<?xml version="1.0" encoding="UTF-8" standalone="no"?>
<svg xmlns="http://www.w3.org/2000/svg" width="395" height="58" version="1.0">
	<g style="line-height:125%;-inkscape-font-specification:cmsy10;text-align:center">
		<path style="-inkscape-font-specification:'Taamey David CLM Bold'" d="M9.426 24.428c.121 5.678.182 13.296.182 22.853-1.698 2.687-3.789 5.203-6.274 7.547a147.157 147.157 0 01-.243-4.274c-.06-1.435-.11-3.071-.151-4.91-.02-1.839-.04-3.293-.06-4.364-.02-1.091-.041-2.86-.061-5.304v-5.001c1.697-2.364 3.9-4.546 6.607-6.547M0 20.7c1.657-4.424 4.193-8.88 7.607-13.365.182.727.334 1.313.455 1.757.141.445.313.829.515 1.152.202.323.374.566.515.728.142.161.374.282.698.363.343.081.626.132.848.152h16.458c1.373 0 2.424.404 3.152 1.212.747.788 1.121 1.87 1.121 3.243 0 8.022-1.616 14.194-4.85 18.518-1.616 2.162-3.737 3.991-6.364 5.486-2.627 1.475-5.193 2.485-7.698 3.031a27.19 27.19 0 012.394-9.456c2.93-.849 5.162-1.829 6.698-2.94.768-.566 1.404-1.414 1.91-2.546.525-1.131.788-2.384.788-3.758l.03-.546c0-.363-.01-.545-.03-.545-.081-.788-.415-1.394-1-1.819-.587-.444-1.354-.666-2.304-.667H0M44.644 8.638c.869 1.354 1.697 2.97 2.485 4.85.808 1.858 1.445 3.515 1.91 4.97.485 1.455 1 3.344 1.545 5.667.566 2.304.94 3.89 1.122 4.759.182.848.475 2.323.879 4.425 2.424-1.03 4.192-2.193 5.304-3.486 1.131-1.293 1.697-2.788 1.697-4.485 0-2.162-.94-4.95-2.819-8.365 1.778-3.294 3.87-6.072 6.274-8.335 1.01 1.657 1.819 3.586 2.425 5.789a25.25 25.25 0 01.909 6.789c0 3.414-.657 6.657-1.97 9.729-3.03 6.91-12.376 13.184-28.035 18.821.99-4.081 2.293-7.688 3.91-10.82a55.442 55.442 0 012.121-1.03 200.67 200.67 0 012.667-1.182c.93-.405 1.485-.647 1.667-.728a35.157 35.157 0 00-1.182-4.455c-.465-1.435-.909-2.647-1.333-3.637-.425-.99-.98-2.071-1.667-3.243-.687-1.172-1.223-2.04-1.607-2.607-.384-.565-.96-1.384-1.727-2.455a68.63 68.63 0 01-1.485-2.121c1.697-2.99 4-5.94 6.91-8.85m28.096 9.001c1.333-3.455 3.303-6.455 5.91-9.001 1.414 2.89 2.485 5.546 3.212 7.97.748 2.405 1.718 6.174 2.91 11.306.182.727.313 1.283.394 1.667.283 1.232.758 2.253 1.425 3.06.686.789 1.555 1.183 2.606 1.183h.212c1.475-.08 3.132-.606 4.97-1.576 1.86-.99 3.264-2.01 4.214-3.061.97-.99 1.454-2.182 1.454-3.577 0-.848-.171-1.768-.515-2.758-.364-1.05-1.142-1.899-2.334-2.546a8.009 8.009 0 00-3.88-.97c-2.464 0-4.838.9-7.121 2.698.222-3.677 1.03-6.9 2.424-9.668 2.061-1.697 4.455-2.546 7.183-2.546 2.95 0 5.345.99 7.183 2.97 1.839 1.98 2.758 4.748 2.758 8.305 0 2.566-.283 4.91-.848 7.031-.546 2.122-1.455 4.243-2.728 6.365-1.758 2.93-3.779 5.02-6.062 6.274-1.333.747-2.586 1.313-3.758 1.697-1.172.384-2.465.576-3.88.576-1.171 0-2.192-.122-3.06-.364-.85-.243-1.577-.637-2.183-1.182a9.114 9.114 0 01-1.454-1.788c-.384-.647-.758-1.506-1.122-2.576a71.338 71.338 0 01-.91-3.122 149.73 149.73 0 00-1.06-3.819c-.444-1.556-.91-3-1.394-4.334-1.152-3.273-2.667-6.011-4.546-8.214m44.432-9.001c5.96 4.546 12.082 9.82 18.366 15.82.768-1.151 1.152-2.252 1.152-3.303 0-1.738-1-3.344-3-4.819a24.635 24.635 0 015.849-7.698c2.788 2.606 4.182 5.364 4.182 8.274 0 3.213-1.757 6.718-5.273 10.517 3.617 3.738 6.203 6.526 7.759 8.365-1.03 2.89-2.546 5.577-4.546 8.062-6.325-7.436-12.619-13.901-18.882-19.397a13.768 13.768 0 00-2.092 3.334c-.505 1.192-.757 2.323-.757 3.394v.334c0 1.192.535 1.788 1.606 1.788h5.122c-.788 3.435-2.03 6.506-3.728 9.213h-11.275c.223-1.212.94-2.97 2.152-5.273.223-.849.374-1.98.455-3.395.08-1.434.222-2.576.424-3.425.404-1.778.97-3.313 1.697-4.606.728-1.314 1.688-2.678 2.88-4.092-3.193-2.445-5.526-4.132-7.001-5.061 1.212-3.274 2.849-5.951 4.91-8.032m4.03 43.522a12.61 12.61 0 011.637-4.91h14.73c-.202 1.698-.748 3.334-1.637 4.91h-4.091v5.729a17.37 17.37 0 01-2.455.182c-.788 0-1.607-.061-2.455-.182V52.16h-5.729m34.916-43.522a104.54 104.54 0 016.304 6.365c1.273 1.414 1.909 3.07 1.909 4.97 0 1.455-.394 2.94-1.182 4.455-1.07 2.021-2.536 4.294-4.395 6.82a15.599 15.599 0 01-6.183 2.455c1.536-2.546 2.83-4.991 3.88-7.335.384-.828.576-1.546.576-2.152 0-1.01-.606-2.091-1.819-3.243l-4.788-4.425c1.353-2.91 3.253-5.546 5.698-7.91M175.666 0c.303.303.546.687.728 1.152.182.444.303 1.01.363 1.697a22.1 22.1 0 01.152 1.788c.02.526.02 1.253 0 2.182 0 .91.01 1.587.03 2.031v.515c0 .465.02.829.06 1.091.061.243.243.475.546.697.324.223.799.334 1.425.334h13.275c1.879 0 2.819 1.263 2.819 3.788 0 1.475-.152 3.193-.455 5.153-.283 1.96-.687 3.768-1.212 5.425-.324.99-.607 1.808-.849 2.455a33.153 33.153 0 01-.94 2.364 15.19 15.19 0 01-1.333 2.425 32.424 32.424 0 01-1.728 2.273 17.438 17.438 0 01-2.394 2.303 25.13 25.13 0 01-3.092 2.152c-3.03 1.839-6.516 3.01-10.456 3.516a33.41 33.41 0 013.455-10.032 54.582 54.582 0 012.364-.697 118.78 118.78 0 002.577-.788 21.861 21.861 0 002.242-.94c.849-.424 1.576-.889 2.183-1.394 1.555-1.334 2.333-3.425 2.333-6.274 0-.384-.02-.687-.06-.91-.02-.221-.101-.474-.243-.757-.121-.283-.343-.495-.667-.636-.323-.142-.747-.212-1.273-.213h-12.183c-.85 0-1.435-.181-1.758-.545-.324-.384-.485-1.121-.485-2.213v-6.455c0-.93-.081-1.586-.243-1.97-.161-.404-.677-1.061-1.545-1.97 1.495-2.667 3.616-5.183 6.364-7.547m33.582 7.335c.283 1.07.515 1.879.697 2.424.202.526.485.93.849 1.213.363.262.697.414 1 .454.323.04.889.06 1.697.06h6.577c1.778 0 3.142.678 4.091 2.031.97 1.354 1.455 3.021 1.455 5.001l-.06 14.79h4.546c-.849 3.436-2.172 6.507-3.97 9.214h-24.823c.97-3.354 2.435-6.425 4.395-9.213h13.76l-.273-8.487c-.142-2.748-1.223-4.121-3.243-4.122h-14.033c1.516-4.829 3.96-9.284 7.335-13.365m30.399 1.303a104.54 104.54 0 016.304 6.365c1.273 1.414 1.91 3.07 1.91 4.97 0 1.455-.395 2.94-1.183 4.455-1.07 2.021-2.535 4.294-4.394 6.82a15.599 15.599 0 01-6.183 2.455c1.535-2.546 2.829-4.991 3.88-7.335.383-.828.575-1.546.575-2.152 0-1.01-.606-2.091-1.818-3.243l-4.789-4.425c1.354-2.91 3.253-5.546 5.698-7.91m22.337-1.303c.283 1.07.515 1.879.697 2.424.202.526.485.93.849 1.213.363.262.697.414 1 .454.323.04.889.06 1.697.06h6.577c1.778 0 3.142.678 4.092 2.031.97 1.354 1.454 3.021 1.455 5.001l-.061 14.79h4.546c-.849 3.436-2.172 6.507-3.97 9.214h-24.823c.97-3.354 2.435-6.425 4.395-9.213h13.76l-.273-8.487c-.141-2.748-1.222-4.121-3.243-4.122H254.65c1.515-4.829 3.96-9.284 7.334-13.365m30.4 1.303a104.54 104.54 0 016.303 6.365c1.273 1.414 1.91 3.07 1.91 4.97 0 1.455-.394 2.94-1.182 4.455-1.071 2.021-2.536 4.294-4.395 6.82a15.599 15.599 0 01-6.183 2.455c1.536-2.546 2.829-4.991 3.88-7.335.383-.828.575-1.546.575-2.152 0-1.01-.606-2.091-1.818-3.243l-4.789-4.425c1.354-2.91 3.253-5.546 5.698-7.91m24.125 15.79c.122 5.678.182 13.296.182 22.853-1.697 2.687-3.788 5.203-6.273 7.547a147.171 147.171 0 01-.243-4.274c-.06-1.435-.111-3.071-.151-4.91-.02-1.839-.04-3.293-.061-4.364-.02-1.091-.04-2.86-.06-5.304v-5.001c1.697-2.364 3.899-4.546 6.607-6.547m-9.426-3.727c1.657-4.425 4.192-8.88 7.607-13.366.182.727.333 1.313.455 1.757.141.445.313.829.515 1.152.202.323.374.566.515.728.142.161.374.282.697.363.344.081.627.132.849.152h16.457c1.374 0 2.425.404 3.152 1.212.748.788 1.122 1.87 1.122 3.243 0 8.022-1.617 14.194-4.85 18.518-1.616 2.162-3.738 3.991-6.364 5.486-2.627 1.475-5.193 2.485-7.699 3.031a27.19 27.19 0 012.395-9.456c2.93-.849 5.162-1.829 6.698-2.94.768-.566 1.404-1.414 1.91-2.546.525-1.131.787-2.384.787-3.758l.03-.546c0-.363-.01-.545-.03-.545-.08-.788-.414-1.394-1-1.819-.586-.444-1.354-.666-2.303-.666h-20.943m43.613-12.063A104.54 104.54 0 01357 15.003c1.273 1.414 1.91 3.07 1.91 4.97 0 1.455-.394 2.94-1.182 4.455-1.071 2.021-2.536 4.294-4.395 6.82a15.599 15.599 0 01-6.183 2.455c1.536-2.546 2.829-4.991 3.88-7.335.383-.828.575-1.546.575-2.152 0-1.01-.606-2.091-1.818-3.243l-4.789-4.425c1.354-2.91 3.253-5.546 5.698-7.91m19.64 0c2.485 1.96 4.536 3.86 6.152 5.698 1.758 2 2.637 4.738 2.637 8.213v14.7c-1.697 2.546-3.849 4.738-6.455 6.577V28.853c-.04-3.495-.839-5.96-2.395-7.395a59.962 59.962 0 00-5.576-4.485c1.555-3.557 3.434-6.335 5.637-8.335m15.7 0c2.485 1.96 4.536 3.86 6.152 5.698 1.758 2 2.637 4.738 2.637 8.213v14.7c-1.697 2.546-3.85 4.738-6.456 6.577V28.853c-.04-3.495-.838-5.96-2.394-7.395a59.966 59.966 0 00-5.577-4.485c1.556-3.557 3.435-6.335 5.638-8.335" font-family="Taamey David CLM" font-size="62.071" font-weight="700" letter-spacing="0" text-anchor="middle" word-spacing="0"/>
	</g>
</svg>
