<?xml version="1.0" encoding="UTF-8" standalone="no"?>
<svg xmlns="http://www.w3.org/2000/svg" xmlns:xlink="http://www.w3.org/1999/xlink" width="105" height="20" viewBox="0 0 105 20">
	<defs>
		<path id="a" d="M22.494 136.105l.21-.105c5.334 1.533 2.751 5.502.777 3.612.063-1.218-.42-2.583-.987-3.507zM11.26 149.629l-1.197-2.499s.525-.105.735-.252c.945-.756 2.08-2.184 3.087-3.696-.65.273-1.386.567-2.163.861-.147.252-.336.42-.546.504l-1.008-2.457s.42-.126.61-.252c.965-1.05 2.204-4.053 2.561-5.649l2.814 1.344c-.084.21-.315.336-.714.315-.882 1.344-2.415 3.129-3.759 4.305.82.021 1.827.021 2.856 0 .61-1.029 1.134-2.016 1.428-2.772l2.478 1.701c-.105.189-.399.315-.798.21-1.218 1.701-3.59 4.158-5.712 5.796a344.58 344.58 0 004.053-.252 11.572 11.572 0 00-.945-1.911l.231-.126c4.39 1.743 2.71 4.977 1.113 3.675-.02-.357-.105-.714-.21-1.092-1.113.441-2.646 1.071-4.368 1.68-.147.273-.336.483-.546.567zm.378.189h.315c.82 2.142.693 3.78.084 4.62-.44.567-1.533.588-1.91-.126-.316-.63 0-1.26.545-1.659.483-.525 1.113-1.785.966-2.835zm1.953-.231l.273-.063c3.276 2.814.903 5.733-.378 3.969.273-1.281.273-2.793.105-3.906zm2.1-.441l.231-.084c3.906 2.058 1.806 5.145.4 3.57.125-1.155-.21-2.562-.63-3.486zm5.376.483v3.885h2.1v-3.885zm2.1-8.589h-2.1v3.675h2.1zm0 8.001v-3.717h-2.1v3.717zm3.36 4.473l1.218-1.68s1.386 1.155 2.226 1.932c-.063.231-.273.336-.588.336h-8.316v1.029c0 .168-.693.693-1.869.693h-.399v-12.096a15.026 15.026 0 01-1.785 1.869l-.189-.189c1.491-2.646 2.52-6.657 2.877-9.24l3.276.987c-.063.231-.23.399-.756.42a22.543 22.543 0 01-1.218 2.73l.357.126h4.977l1.176-1.617s1.344 1.113 2.142 1.89c-.042.231-.252.336-.567.336H25.35v3.675h.798l1.155-1.575s1.26 1.113 1.995 1.848c-.042.231-.273.336-.567.336h-3.38v3.717h.797l1.155-1.575s1.26 1.092 1.995 1.827c-.042.231-.273.336-.567.336h-3.38v3.885zm26.34 1.155l1.47-1.848s1.68 1.239 2.687 2.121c-.042.231-.294.336-.609.336h-16.8l-.189-.609h7.392v-3.003h-4.053l-.168-.588h4.221v-2.835l3.276.252c-.042.294-.189.504-.735.567v2.016h.903l1.218-1.596s1.407 1.092 2.247 1.848c-.063.231-.294.336-.588.336h-3.78v3.003zm-7.246-8.043h5.04v-2.037h-5.04zm5.04-7.203h-5.04v1.974h5.04zm-5.04 2.583v1.995h5.04v-1.995zm11.844 5.208h-5.838c1.617 1.281 4.473 1.869 6.615 1.995l-.02.315c-.925.735-1.408 1.617-1.513 2.667-2.352-.903-4.515-2.835-5.817-4.977h-4.746c-1.512 2.352-4.305 4.032-7.77 5.082l-.168-.294c2.121-1.155 3.801-2.919 4.81-4.788H38.46l-.189-.588h4.851v-7.203h-3.864l-.168-.588h4.032v-2.688l3.255.273c-.042.294-.21.504-.756.609v1.806h5.04v-2.688l3.297.273c-.042.315-.21.525-.777.609v1.806h.903l1.218-1.68s1.386 1.155 2.226 1.932c-.063.231-.294.336-.588.336h-3.76v7.203h1.281l1.281-1.785s1.45 1.218 2.31 2.037c-.063.231-.294.336-.588.336zm16.49-10.899l.147-.126c6.552.756 4.6 5.649 2.121 3.969-.294-1.365-1.302-2.898-2.268-3.843zm5.754 5.187h-8.19c.945 3.276 2.688 5.775 4.977 7.623 1.743-2.226 2.751-4.788 3.213-7.623zm5.775 0h-2.73c-.756 3.444-2.163 6.447-4.536 8.82 2.352 1.491 5.166 2.457 8.127 3.087l-.063.252c-1.239.168-2.142.924-2.583 2.163-2.835-.924-5.25-2.184-7.224-3.99-2.457 1.827-5.649 3.171-9.807 3.99l-.105-.252c3.738-1.239 6.594-2.94 8.652-5.019-1.932-2.226-3.318-5.187-4.074-9.051h-4.22l-.169-.588h15.204l1.491-1.995s1.66 1.344 2.625 2.247c-.063.231-.273.336-.588.336zm13.277-2.121v5.04c0 3.57-.189 8.253-3.906 11.34l-.21-.147c1.701-3.276 1.806-7.434 1.806-11.193v-6.615l2.688.966h5.901l-.042-.021c-.252-.945-.987-1.953-1.659-2.562l.168-.126c3.801-.021 3.99 2.016 3.003 2.709h4.368l1.281-1.722s1.428 1.176 2.268 1.995c-.063.231-.294.336-.567.336zm3.507 9.555h2.604v-1.974h-2.604zm2.604-4.62h-2.604v2.058h2.604zm5.061 0h-2.709v2.058h2.71zm-2.709 4.62h2.71v-1.974h-2.71zm3.76 2.625l1.26-1.554s1.427 1.029 2.267 1.806c-.042.231-.252.336-.546.336h-6.74v2.919c0 .252-1.05.777-1.89.777h-.463v-3.696h-6.53l-.148-.588h6.678v-2.037h-2.604v.504c0 .21-.987.693-1.91.693h-.337v-7.959l2.394.966h2.457v-1.638h-5.607l-.168-.609h5.775v-1.932l2.961.294c-.042.231-.168.42-.609.483v1.155h3.171l1.197-1.533s1.386 1.05 2.205 1.806c-.063.231-.294.336-.588.336h-5.985v1.638h2.5l1.091-1.176 2.205 1.701c-.105.147-.378.315-.756.399v5.145c-.02.168-1.134.651-1.932.651h-.399v-.924h-2.709v2.037z"/>
	</defs>
	<g fill="none" stroke-width="105" transform="translate(-10 -136)">
		<use width="105" height="20" fill="#484848" xlink:href="#a"/>
		<use width="105" height="20" fill="#000" xlink:href="#a"/>
	</g>
</svg>
