<?xml version="1.0" encoding="UTF-8" standalone="no"?>
<svg xmlns="http://www.w3.org/2000/svg" id="svg1325" width="410" height="511" x="0" y="0" version="1.1" viewBox="0 0 410 511" xml:space="preserve">
	<style id="style2" type="text/css">
		.st0{fill:#608ab4}.st2{fill:#d6dde3}.st3{fill:#7bbce5}.st8{fill:#236798}
	</style>
	<g id="g3126" transform="translate(.038 .017)">
		<g id="g2492" transform="matrix(1.0056 0 0 1.0005 -.943 -.218)">
			<path id="path1334" d="M203.5.2c-67.9.5-128 36-164.7 90.2h332C333.8 35.8 273.2.2 204.8.2h-1.3z" class="st0"/>
			<path id="path2488" fill="#375493" d="M27 110C10.4 141.1.9 176.9.9 215.1.9 333.7 92.3 430 204.8 430s203.8-96.3 203.8-214.9c0-38.2-9.4-74-26-105.1z"/>
			<path id="path2361" d="M38.8 90.4c-4.3 6.3-8.2 12.8-11.8 19.6h355.6c-3.6-6.8-7.6-13.3-11.8-19.6z" class="st2"/>
			<path id="path2219" d="M291.9 24.3c-.8 0-1.8.2-2.7.5-9.1 14.6-9.1 62.8-8.9 73.3h.1c13.4 3 31.2-.4 31.8-13.4 1-17 2.1-33.6-6.9-44.2-8.2 3.8-6.7-11.5-10-14.9-.9-.9-2.1-1.3-3.4-1.3z" class="st3"/>
			<path id="path2230" fill="#fff" d="M289.2 24.8c-4.8 1.5-10.6 5.8-13.5 7.3-2.5.3-7.2.1-10.6 1-7.5 1.9-14.2 6.5-18.2 13.7-5.1-14.8-15.9 3.4-28.8 13.8-7.1-5.4-21.5-16.2-34.7-23.1-10.6 5.4-21.7 23.6-28.3 25.2-6.9 1.3-16.5.5-20.5 5.4-6.7 6.9-8.7 14.9-10 22.3 15.7 5.6 32.1 5.7 47.8 3.6 8.9-2.1 15.2.9 24.4.5 27.8 1.2 57.9-2.2 83.4 3.6-.1-10.4-.1-58.7 9-73.3z"/>
			<path id="path2221" d="M196.3 53.9c3.3 10.1 6.2 20.2 5.1 30.3-1.2 6.3 1.5 5.8 6.4 3.3 4.9-2.7 7.5-5.6 14.6-8 5.6-1.5 1.6-5.7-1-8.5-7.9-7.4-16.5-12.2-25.1-17.1z" class="st3"/>
			<path id="path2364" fill="#294584" d="M224.8 110c5.9 77.8 58.1 87.3 91 71.6-16.4-16.3-10.5-49.4 7.1-49.8 32.5-.8 23.2 59.8 23.2 89.3 17.7-3.6 16.6-70.7 12.8-111.1z"/>
			<path id="path2370" fill="#e0e9ea" d="M56.7 110c.6 6.7 1.3 13.4 1.9 20.1 4.3 7.9 7.5 15.7 6.6 23.6 8.5-2.1 13.5-3.2 18.1 5.5 20 12.4 38.9 13.9 57.6 12.1 3.8 45.1 2.7 81.5 1.1 135.4 11.3 18.8 22.7 36.7 34 55.5 6.5 11.4 17.9 15.1 26.9 1.5 7.7-3.5 15.3-6.9 23-10.4v11.5c11.8 3 23.4 7.5 18.1 19.8-4.1 7.9-1.8 11.5 9.8 6.2 10.2-5 16.6 2.7 21.9 4.1-7.6-8.1-1.1-24.1-.8-40.6 10.9-1 23.4-10.9 34.4-11.9 22.5-21.8 26.4-29.9 26.3-58.1 2.3-7.3 5.5-9.2 3.8-21.9 1.3-7.9 3.1-18.1 4.3-26 .9-5.1 1.7-10.2 2.6-15.2h-.2c0-29.4 9.2-90-23.2-89.3-17.5.4-23.5 33.5-7.1 49.8-3.8 1.8-7.9 3.3-12.1 4.4 1.3 7.7-4.2 15.5-11.5 15.9-7.2-.6-17.9 6.5-24.7 23-10.8 22.8-20.6 3-24.6-3.2-5.1-6.7 1.2-13-12.7-8.9-9.1 2.8-20.8 4.7-23.5-9.1-11.7-11.9-22.9-22.3-34.6-34.2-4.7-5.6-.8-10.1-.8-12.1v-.4s0-.1-.1-.1v-.1l-.1-.1-.1-.1h-.1c-.1 0-.1 0-.2-.1-4.6-2.9-10.1.6-16.1 3.1-15.7 2.9-21.9.1-23.6-8.2.1-13.8-7.6-12.3-20.3-10.4-36.4 5.2-42.3-7.7-52.9-31.1z"/>
			<path id="path2383" fill="#4d8ac0" d="M57.8 110c10.6 23.4 16.5 36.3 52.9 31.1 12.6-1.9 20.4-3.3 20.3 10.4 1.7 8.3 7.9 11.1 23.6 8.2 6-2.5 11.6-6 16.1-3.1.1 0 .1 0 .2.1h.1l.1.1.1.1v.1s0 .1.1.1v.4c0 2-3.9 6.5.8 12.1 11.7 11.9 22.9 22.3 34.6 34.2 2.8 13.8 14.4 12 23.5 9.1 13.9-4.1 7.7 2.2 12.7 8.9 3.9 6.1 13.8 25.9 24.6 3.2 6.8-16.5 17.4-23.7 24.7-23 7.3-.3 12.8-8.2 11.5-15.9-32.3 8.2-73.7-7.3-78.9-76z"/>
			<path id="path2398" d="M166.9 199.4c-10.5.7-5 35.8-3.9 52.4 1.6 16.4 5.2 12.5 16.6 5.4 5.3 10.7 2.1 16.6-5.4 23.5-5.5 5.2-8.7 13-3.9 22 1.5 2.4 2.7 3.5 4.4 7.3 1.1 2.3 2.3 4.6 3.4 6.9 1.3 5.1-.2 8.2-2.4 10.9-2 2.9-2.4 5.9.2 14 1.4 4.7-2.5 10.3 3.6 15.3 2.7 2.1 5.4 3.7 8.1 4.9-2.4-6.9-2.4-16.9-1.3-25.4.8-8.1 1.3-13.1 8.7-18.6 6.4-3.3 4.6-20.7 5.2-31 .1.1.2.1.2.2v-.2c13.7-2.9 6.1-13.9 1.9-24.4l-33.6-62.9c-.7-.2-1.3-.3-1.8-.3.1 0 .1 0 0 0z" class="st2"/>
			<path id="path2404" d="M168.9 199.6l33.6 62.9c4.2 10.6 11.9 21.5-1.9 24.4 1.2 7.4 10.3 13.8 20.4 12.9 10.5-.7 18.2 7.2 21.6 15.1.5-8.8 1.5-17.4 3.7-26 1.4-4.2 9.1-8 2.7-13.7-25.9-28.5-50.9-50.9-78.9-75.2-.4-.1-.8-.3-1.2-.4z" class="st0"/>
			<path id="path2407" d="M200.4 286.9c-.5 10.3 1.2 27.7-5.2 31-7.4 5.5-7.9 10.5-8.7 18.6-1.2 8.6-1.1 18.5 1.3 25.4 2.4 1 4.9 1.7 7.6 2.2 4.4.4 7.2 1.5 16.6-.2 8.2-.9 13.1-5 22.5-6.4 5.1-1 8.6-3 8.3-10.8-.4-10.7-.7-21.3-.2-31.8-3.5-7.9-11.1-15.8-21.6-15.1-10 .9-19-5.4-20.4-12.7l-.2-.2z" class="st8"/>
			<path id="path2460" d="M338.5 276.5c-.9 2.4-2 4.5-2.9 7.6 0 28.2-3.8 36.3-26.3 58.1-.2.1-6.6 15.1-12.1 19.1-9.2 6.8-8.6 13-12.1 20.4-2.5 3.8-5.9 4.4-8.4 3.7-1.5-1.2-3.1-1.8-4.7-3.7-.1 3 .1 5.8.9 8.3 0 .1.1.1.1.2.4.9.8 1.8 1.3 2.7 0 0 0 .1.1.1.4.6.8 1.1 1.3 1.7-.1 0-.3-.1-.4-.1 9.4 15.1 22.8 19.8 39.9 13.9 9.2-4 14.6-7.7 20.3-12 5-4.7 10.9-13.6 1.6-14.2-1.3-.4-2.1-.7-2.4-1.1 0 0-.1 0-.1-.1 0 0-.1-.1-.1-.2s-.1-.2-.1-.2v-.3c0-1.3 2.6-3.3.6-7.2-1.3-6 4.3-11.6 8.4-13.1l-8.4-18.3c.2-4 8.1-6.1 6.8-13.6 2.1-18.7 5.2-46.7-3.3-51.7z" class="st0"/>
			<path id="path2468" d="M288 202.3c-6.8 1.8-14.9 9.1-20.5 22.6-2.5 5.3-5 8.3-7.4 9.7.2 23.2 5.8 39.8 17.2 48.9-3.4 13.5-6.8 32-.6 43.2-10.4-3.3-6.1 17.6-9.2 26.4-5.2 14.6-9.8 14-14.6 15.3 4.4 5.1 10.2 10.5 18.8 13.7v.1c0 .1.1.2.1.3.6 1 3.5 2 4.9 3.1 2.5.7 5.9.1 8.4-3.7 3.4-7.4 2.8-13.6 12.1-20.4 5.3-3.8 11.6-18.3 12.1-19.1-18.2-10.2-26.9-29.8-23.9-48.6.8-5.2 4.2-11-.3-19.4-5.5-23.1-2.1-49.8 2.9-72.1z" class="st8"/>
		</g>
	</g>
	<g id="layer2" transform="translate(-10.17 -10.191)">
		<g id="text3347">
			<path id="path3263" d="M101.9 465.5c0 .3-.1.6-.3.9-.2.3-.4.4-.6.4-2 .2-3.6.8-4.8 1.9-1.3 1.1-2.5 3.1-3.9 6.2l-20.4 46c-.1.4-.5.6-1.1.6-.5 0-.9-.2-1.1-.6L58.3 497 45 520.9c-.3.4-.6.6-1.1.6-.6 0-1-.2-1.2-.6l-20-46c-1.3-2.9-2.6-4.8-4-6-1.4-1.1-3.3-1.9-5.8-2.1-.2 0-.4-.1-.6-.3-.2-.2-.3-.5-.3-.8 0-.7.2-1.1.6-1.1 1.8 0 3.7.1 5.6.2 1.8.2 3.5.2 5.1.2 1.6 0 3.5-.1 5.8-.2 2.3-.2 4.4-.2 6.2-.2.4 0 .6.4.6 1.1 0 .7-.1 1.1-.4 1.1-1.8.1-3.2.6-4.2 1.4-1 .8-1.5 1.8-1.5 3 0 .6.2 1.4.6 2.4L47 511l9.4-17.8-8.8-18.4c-1.6-3.3-2.9-5.4-3.9-6.3-1-1-2.5-1.5-4.6-1.8-.2 0-.4-.1-.6-.3-.2-.2-.2-.5-.2-.8 0-.7.2-1.1.6-1.1 1.8 0 3.4.1 4.9.2 1.4.2 3 .2 4.6.2 1.6 0 3.3-.1 5.1-.2 1.8-.2 3.7-.2 5.4-.2.4 0 .6.4.6 1.1 0 .7-.1 1.1-.4 1.1-3.6.2-5.4 1.3-5.4 3 0 .8.4 2 1.2 3.7l5.8 11.8 5.8-10.8c.8-1.5 1.2-2.8 1.2-3.8 0-2.5-1.8-3.8-5.4-3.9-.3 0-.5-.4-.5-1.1 0-.3.1-.5.2-.8.2-.2.3-.4.5-.4 1.3 0 2.9.1 4.7.2 1.8.2 3.3.2 4.4.2.8 0 2-.1 3.6-.2 2-.2 3.7-.3 5.1-.3.3 0 .5.3.5 1 0 .9-.3 1.3-.9 1.3-2.1.2-3.8.8-5 1.7-1.3.9-2.8 3.1-4.7 6.4l-7.7 14.2 10.4 21.2 15.4-35.7c.5-1.3.8-2.5.8-3.6 0-2.6-1.8-4-5.4-4.2-.3 0-.5-.4-.5-1.1 0-.7.2-1.1.7-1.1 1.3 0 2.9.1 4.6.2 1.7.2 3 .2 4.2.2 1.2 0 2.5-.1 4.1-.2 1.6-.2 3-.2 4.3-.2.7.2.8.5.8 1.1"/>
			<path id="path3265" d="M113.4 519.3c0 .5-.1.8-.4.8-1.3 0-2.7-.1-4.5-.2-1.6-.1-3-.2-4.2-.2-1.1 0-2.5.1-4.2.2-1.7.1-3.2.2-4.5.2-.3 0-.4-.3-.4-.8s.1-.7.4-.8c2.3-.3 3.8-.7 4.6-1.3.8-.6 1.2-1.7 1.2-3.5v-26.3c0-1.3-.2-2.2-.5-2.7s-.9-1-1.7-1.3c-.8-.3-2-.6-3.6-.8-.3 0-.4-.3-.4-.8s.1-.8.4-.8c1.3 0 2.8.1 4.5.2 1.6.1 3 .2 4.2.2 1.1 0 2.5-.1 4.2-.2 1.7-.1 3.2-.2 4.5-.2.3 0 .4.3.4.8s-.1.8-.4.8c-1.6.2-2.8.4-3.6.8-.8.3-1.4.7-1.7 1.2-.3.5-.5 1.4-.5 2.8v26.3c0 1.3.2 2.2.5 2.7s.9.9 1.7 1.3c.8.3 2 .5 3.6.7.2.2.4.4.4.9"/>
			<path id="path3267" d="M160.7 519.3c0 .5-.1.8-.4.8-1.3 0-2.7-.1-4.5-.2-1.7-.1-3.1-.2-4.2-.2s-2.6.1-4.6.2c-2 .1-3.7.2-4.9.2-.3 0-.4-.3-.4-.8s.1-.7.4-.8c2.5-.3 3.8-.9 3.8-1.8 0-.5-.4-1.2-1.2-2l-11.1-11.3c-.6-.6-1.1-1-1.6-1.2-.4-.2-1-.3-1.8-.3v11.9c0 1.3.2 2.2.5 2.7s.9.9 1.7 1.3c.8.3 2 .5 3.6.7.3 0 .5.3.5.8s-.1.8-.4.8c-1.3 0-2.7-.1-4.5-.2-1.7-.1-3.1-.2-4.2-.2s-2.5.1-4.1.2c-1.7.1-3.2.2-4.5.2-.3 0-.4-.3-.4-.8s.1-.7.4-.8c2.3-.3 3.8-.7 4.6-1.3.8-.6 1.2-1.7 1.2-3.5v-26.3c0-1.3-.2-2.2-.5-2.7s-.9-1-1.7-1.3c-.8-.3-2-.6-3.6-.8-.3 0-.4-.3-.4-.8s.1-.8.4-.8c1.3 0 2.7.1 4.5.2 1.6.1 3 .2 4.1.2 1.1 0 2.5-.1 4.2-.2 1.7-.1 3.2-.2 4.5-.2.3 0 .4.3.4.8s-.1.8-.4.8c-1.6.2-2.8.4-3.6.8-.8.3-1.4.7-1.7 1.3-.3.5-.5 1.4-.5 2.7v12.7c.7 0 1.3-.1 1.8-.3.4-.2 1-.6 1.6-1.2l12.3-12.1c1-1 1.5-1.6 1.5-2.1s-.2-.9-.7-1.1c-.5-.3-1.4-.5-2.9-.7-.3 0-.4-.3-.4-.8s.2-.8.5-.8c.9 0 2 .1 3.5.2s2.8.2 3.8.2 2.1-.1 3.4-.2c1-.1 1.9-.1 2.6-.1.3 0 .4.3.4.8s-.1.8-.4.8c-1.8.2-3.2.6-4.2 1.1-1 .5-2.3 1.4-3.7 2.8l-12.8 12.2 15.9 16.1c1.1 1.2 2.2 2 3.2 2.5 1.1.5 2.7.9 4.8 1.1.1.1.2.3.2.8"/>
			<path id="path3269" d="M182.3 519.3c0 .5-.1.8-.4.8-1.3 0-2.7-.1-4.5-.2-1.6-.1-3-.2-4.2-.2-1.1 0-2.5.1-4.2.2-1.7.1-3.2.2-4.5.2-.3 0-.4-.3-.4-.8s.1-.7.4-.8c2.3-.3 3.8-.7 4.6-1.3.8-.6 1.2-1.7 1.2-3.5v-26.3c0-1.3-.2-2.2-.5-2.7s-.9-1-1.7-1.3c-.8-.3-2-.6-3.6-.8-.3 0-.4-.3-.4-.8s.1-.8.4-.8c1.3 0 2.8.1 4.5.2 1.6.1 3 .2 4.2.2 1.1 0 2.5-.1 4.2-.2 1.7-.1 3.2-.2 4.5-.2.3 0 .4.3.4.8s-.1.8-.4.8c-1.6.2-2.8.4-3.6.8-.8.3-1.4.7-1.7 1.2-.3.5-.5 1.4-.5 2.8v26.3c0 1.3.2 2.2.5 2.7s.9.9 1.7 1.3c.8.3 2 .5 3.6.7.2.2.4.4.4.9"/>
			<path id="path3271" d="M211.9 508.8c0 3.7-1.1 6.7-3.3 8.9-2.2 2.2-5.2 3.3-8.9 3.3-1.7 0-3.6-.3-6-.9-2.1-.6-3.8-.8-5.2-.8-.1-3.2-.3-6.3-.7-9.5 0-.3.3-.4.8-.4.4 0 .6.1.7.4 1 3.5 2.3 5.9 3.9 7.3 1.6 1.4 3.8 2.1 6.6 2.1 2.3 0 4-.7 5.2-2 1.3-1.3 1.9-3.1 1.9-5.5 0-1.5-.5-2.9-1.6-4.2-1.1-1.3-3.4-3-6.9-5-4.1-2.3-6.7-4.3-8-5.9-1.3-1.6-1.9-3.4-1.9-5.4 0-3 1.1-5.6 3.4-7.7 2.3-2.1 5.1-3.2 8.6-3.2 1.3 0 2.8.2 4.5.5 1.6.3 3 .5 4.1.5.2 3.3.5 6.2.9 8.7 0 .3-.2.4-.7.4-.5 0-.8-.1-.9-.4-.6-2.8-1.5-4.8-2.8-6-1.3-1.2-3-1.8-5.2-1.8-2.1 0-3.8.6-5 1.8-1.2 1.2-1.8 2.9-1.8 5 0 1.3.5 2.6 1.5 3.8 1 1.2 3.3 2.8 6.7 4.8 4.1 2.4 6.8 4.4 8 6 1.4 1.5 2.1 3.3 2.1 5.2"/>
			<path id="path3273" d="M257.7 500.8c0 5.9-1.9 10.8-5.7 14.5-3.8 3.8-8.8 5.6-14.9 5.6s-11.1-1.9-14.9-5.6c-3.8-3.8-5.7-8.6-5.7-14.5s1.9-10.8 5.7-14.7c3.8-3.9 8.8-5.8 14.9-5.8s11.1 1.9 14.9 5.8c3.8 3.9 5.7 8.8 5.7 14.7m-6.1 0c0-5.5-1.3-10-4-13.5s-6.1-5.2-10.5-5.2c-4.3 0-7.8 1.7-10.5 5.2-2.6 3.5-3.9 8-3.9 13.5s1.3 9.9 3.9 13.3c2.6 3.4 6.1 5.1 10.5 5.1s7.9-1.7 10.5-5.1c2.6-3.4 4-7.8 4-13.3"/>
			<path id="path3275" d="M303.3 481.9c0 .5-.1.8-.4.8-2.4.3-3.9.7-4.7 1.3-.8.6-1.2 1.7-1.2 3.4V505c0 5-1.2 8.9-3.6 11.7-2.4 2.8-5.8 4.2-10.2 4.2-5 0-8.9-1.3-11.7-4-2.8-2.7-4.2-6.4-4.2-11v-18.5c0-1.3-.2-2.2-.5-2.7s-.9-1-1.7-1.3c-.8-.3-2-.6-3.6-.8-.3 0-.4-.3-.4-.8s.1-.8.4-.8c1.3 0 2.7.1 4.5.2 1.6.1 3 .2 4.2.2 1.1 0 2.5-.1 4.2-.2 1.7-.1 3.2-.2 4.5-.2.3 0 .4.3.4.8s-.1.8-.4.8c-1.6.2-2.8.4-3.6.8-.8.3-1.4.7-1.7 1.3-.3.5-.5 1.4-.5 2.7v17.7c0 4.6.9 8 2.6 10.1 1.7 2.1 4.6 3.2 8.5 3.2 7.4 0 11.1-4.7 11.1-14v-17c0-1.7-.4-2.9-1.3-3.5-.8-.6-2.4-1-4.7-1.3-.3 0-.4-.3-.4-.8s.1-.8.4-.8c.9 0 2 .1 3.4.2s2.6.2 3.5.2c.9 0 2-.1 3.4-.2s2.5-.2 3.5-.2c.1.1.2.4.2.9"/>
			<path id="path3277" d="M344.6 519.3c0 .5-.1.8-.4.8-.7 0-1.8-.1-3.4-.2-1.1-.1-1.9-.1-2.3-.1-.5 0-1.4.1-2.5.2-1.2.1-2 .2-2.5.2l-8.5-13.8c-1.2-1.9-2.2-3.1-2.9-3.7-.7-.5-2.2-.8-4.4-.8v12c0 1.3.2 2.2.5 2.7s.9.9 1.7 1.3c.8.3 2 .5 3.6.7.3 0 .5.3.5.8s-.1.8-.4.8c-1.3 0-2.7-.1-4.5-.2-1.7-.1-3.1-.2-4.2-.2s-2.5.1-4.2.2c-1.7.1-3.2.2-4.5.2-.3 0-.4-.3-.4-.8s.1-.7.4-.8c1.5-.2 2.7-.4 3.6-.7.8-.3 1.4-.7 1.7-1.3.3-.5.5-1.4.5-2.7v-26.3c0-1.3-.2-2.2-.5-2.7s-.9-1-1.7-1.3c-.8-.3-2-.6-3.6-.8-.3 0-.4-.3-.4-.8s.1-.8.4-.8c1.3 0 2.7.1 4.5.2 1.6.1 3 .2 4.2.2 1.1 0 2.5-.1 4.2-.2 1.7-.1 3.2-.2 4.5-.2 4.2 0 7.4.9 9.7 2.7 2.3 1.8 3.4 4.2 3.4 7.4 0 2-.8 3.9-2.4 5.6-1.6 1.7-3.7 3-6.4 4l9 13.8c.7 1.2 1.7 2.1 2.9 2.7 1.2.6 2.7 1 4.6 1.2 0 0 .2.2.2.7m-14.3-28.1c0-5.5-2.4-8.2-7.1-8.2-1.6 0-2.8.1-3.6.4-.8.2-1.3.6-1.6 1.2-.3.5-.4 1.5-.4 2.9V500c1.1.1 2.4.2 4.1.2 3 0 5.2-.7 6.6-2.1 1.3-1.5 2-3.8 2-6.9"/>
			<path id="path3279" d="M380.6 509.7c-.7 3-1.3 6.2-2 9.5-1.1 0-3 .3-5.8.8-3.6.7-6.2 1-8 1-4.3 0-8-.8-11.2-2.5-3.2-1.7-5.7-4.1-7.5-7.2-1.8-3.1-2.7-6.6-2.7-10.4 0-3.8.9-7.2 2.8-10.4s4.5-5.7 7.8-7.4c3.3-1.8 7.1-2.7 11.2-2.7 1.8 0 4.1.2 7.1.6 2.3.3 4 .4 5 .4.2 2.6.7 5.8 1.3 9.5 0 .3-.3.4-.9.4-.4 0-.6-.1-.7-.4-.7-2.5-2.1-4.6-4.3-6.3-2.2-1.6-4.8-2.5-7.7-2.5-4.4 0-8.1 1.8-11.1 5.4-3 3.6-4.5 8.1-4.5 13.3 0 5.1 1.5 9.4 4.4 13 2.9 3.6 6.6 5.3 10.8 5.3 6.7 0 11.4-3.2 14.2-9.5.1-.3.4-.4.8-.4.8.1 1 .2 1 .5"/>
			<path id="path3281" d="M417.9 510.8c-1.5 3.2-2.7 6.3-3.7 9.2-7-.2-12-.3-15-.3-2.9 0-8 .1-15 .3-.3 0-.4-.3-.4-.8s.1-.7.4-.8c1.5-.2 2.7-.4 3.6-.7.8-.3 1.4-.7 1.7-1.3.3-.5.5-1.4.5-2.7v-26.3c0-1.3-.2-2.2-.5-2.7s-.9-1-1.7-1.3c-.8-.3-2-.6-3.6-.8-.3 0-.4-.3-.4-.8s.1-.8.4-.8c4.7.2 9.5.3 14.4.3 5 0 9.8-.1 14.5-.3.4 2.9 1.1 5.7 1.9 8.6 0 .4-.3.6-1 .6-.3 0-.5-.1-.6-.4-1.4-4.4-4.3-6.6-8.8-6.6h-5.7c-2.2 0-3.2 1.1-3.2 3.4v12.5h7.1c1.9 0 3.1-.4 3.8-1.3.7-.9 1.1-2.4 1.4-4.6 0-.3.3-.4.8-.4s.8.1.8.4c0 .9-.1 2.1-.2 3.5s-.2 2.5-.2 3.3c0 .9.1 2 .2 3.4.1 1.5.2 2.7.2 3.6 0 .3-.3.4-.8.4s-.8-.1-.8-.4c-.3-2.3-.8-3.9-1.5-4.8-.7-.9-1.9-1.4-3.7-1.4h-7.1v13.8c0 2.2 1.1 3.3 3.2 3.3h6.1c2.2 0 4.4-.7 6.6-2.2 2.2-1.5 3.8-3.3 4.8-5.4.1-.2.2-.3.5-.3s.5.1.7.2c.2.3.3.4.3.6"/>
		</g>
	</g>
</svg>
