<?xml version="1.0" encoding="UTF-8" standalone="no"?>
<svg xmlns="http://www.w3.org/2000/svg" width="409" height="58" viewBox="0 0 409 58">
	<path fill="#232323" d="M0 47.021c0-.392.17-.586.513-.586l2.271-.146c1.636-.122 2.692-.359 3.167-.715.478-.354.714-1.165.714-2.436V5.381c0-1.244-.237-2.051-.714-2.417-.476-.365-1.531-.609-3.167-.731L.513 2.087C.171 2.087 0 1.916 0 1.574V.072L.146 0c3.857.049 7.031.072 9.521.072 1.244 0 2.868-.012 4.87-.036C16.538.013 17.943 0 18.748 0c10.791 0 16.188 3.82 16.188 11.462 0 2.002-.672 3.925-2.017 5.769-1.346 1.844-3.017 3.254-5.015 4.229 3.56 1.002 6.383 2.596 8.474 4.779 2.09 2.186 3.136 4.987 3.136 8.404 0 1.367-.173 2.68-.52 3.938-.346 1.258-.976 2.508-1.889 3.754-.914 1.244-2.069 2.319-3.464 3.224-1.396.902-3.223 1.636-5.483 2.196-2.26.563-4.847.842-7.761.842-2.417 0-4.511-.023-6.28-.072a165.326 165.326 0 00-4.449-.073l-9.521.146-.146-.146zM12.744 5.785v15.198h5.566c7.178 0 10.767-2.868 10.767-8.606 0-1.806-.306-3.381-.916-4.724-.609-1.343-1.422-2.368-2.436-3.076-1.014-.708-2.057-1.221-3.131-1.538a11.759 11.759 0 00-3.333-.477c-1.1 0-2.015.019-2.747.056-.732.036-1.343.122-1.831.256-.489.136-.86.257-1.117.366-.256.11-.445.317-.567.623a3.12 3.12 0 00-.22.806c-.023.232-.035.604-.035 1.116zm0 17.762V42.59c0 1.294.409 2.191 1.228 2.691.816.501 2.483.751 4.999.751 2.759 0 5.065-.25 6.921-.751 1.854-.5 3.259-1.232 4.211-2.197.952-.964 1.611-2.001 1.978-3.111.367-1.111.55-2.411.55-3.9 0-3.564-1.153-6.543-3.461-8.936-2.308-2.394-5.562-3.59-9.76-3.59zm44.828-5.158v25.034c0 .857.229 1.519.687 1.982.457.466 1.264.759 2.419.881l1.552.147c.289 0 .433.146.433.438v1.574l-.072.146c-3.792-.099-6.453-.146-7.984-.146l-7.911.146-.146-.146v-1.574c0-.293.168-.438.505-.438l1.48-.147c2.118-.22 3.178-1.174 3.178-2.863V18.389c0-.809-.241-1.384-.723-1.727-.482-.343-1.3-.575-2.455-.697l-1.48-.146c-.337 0-.505-.095-.505-.283v-1.59l.072-.142c3.913.095 6.647.142 8.203.142l7.766-.142.072.142v1.519c0 .236-.145.354-.433.354l-1.552.146c-1.131.099-1.933.338-2.401.717-.47.38-.705.949-.705 1.707zm22.563 24.896c0 .686.122 1.252.366 1.703.243.452.586.77 1.024.952.439.184.836.3 1.19.349.354.049.763.072 1.227.072.391 0 .586.196.586.586v1.429l-.146.146a210.17 210.17 0 00-7.179-.146l-7.8.146-.146-.146v-1.429c0-.39.194-.586.586-.586h1.428c1.245 0 2.093-.238 2.545-.716.451-.478.677-1.267.677-2.367V19.124c0-1.126-.231-1.958-.695-2.496-.464-.539-1.307-.808-2.527-.808h-1.428c-.392 0-.586-.188-.586-.565v-1.308l.146-.142c3.394.095 5.993.142 7.8.142l7.031-.142.146.142v1.308c0 .377-.196.565-.586.565-.586 0-1.063.03-1.429.092a3.75 3.75 0 00-1.135.408c-.391.21-.672.55-.842 1.02-.171.47-.256 1.074-.256 1.815v9.116c1.123 0 2.161-.168 3.112-.502.952-.335 1.739-.732 2.362-1.191.622-.459 1.22-1.078 1.794-1.859.574-.78 1.005-1.475 1.293-2.079l1.073-2.257.995-2.095c.237-.498.59-1.144 1.059-1.938.47-.793.917-1.403 1.346-1.831a6.363 6.363 0 011.593-1.136 4.24 4.24 0 011.978-.493c1.367 0 2.411.316 3.131.95.721.637 1.081 1.441 1.081 2.418 0 .758-.28 1.423-.842 1.995-.562.574-1.232.86-2.014.86-.685 0-1.404-.219-2.161-.658-.416-.195-.989-.293-1.721-.293-.659 0-1.515 1.241-2.563 3.726a46.29 46.29 0 01-1.112 2.338 22.1 22.1 0 01-1.372 2.249 7.96 7.96 0 01-1.995 2.057 6.393 6.393 0 01-2.49 1.056c1.88 0 3.563.672 5.048 2.015 1.485 1.342 2.683 3.016 3.591 5.021.451.909.872 1.823 1.263 2.745a33.1 33.1 0 001.551 3.107c.642 1.15 1.321 2.087 2.043 2.807.72.72 1.396 1.079 2.031 1.079h.623c.537 0 .807.196.807.586v1.429l-.146.146-5.47-.073a4.147 4.147 0 01-1.761-.385c-.557-.256-1.076-.652-1.559-1.189a27.508 27.508 0 01-1.261-1.502c-.359-.464-.734-1.091-1.129-1.883a33.164 33.164 0 01-.839-1.777c-.165-.393-.408-.968-.73-1.723-1.024-2.637-1.854-4.432-2.489-5.384-1.441-2.173-3.479-3.431-6.116-3.772zm38.309-24.896v25.034c0 .857.229 1.519.687 1.982.457.466 1.264.759 2.419.881l1.552.147c.289 0 .433.146.433.438v1.574l-.072.146c-3.792-.099-6.453-.146-7.984-.146l-7.911.146-.146-.146v-1.574c0-.293.168-.438.505-.438l1.48-.147c2.118-.22 3.177-1.174 3.177-2.863V18.389c0-.809-.24-1.384-.722-1.727-.482-.343-1.3-.575-2.455-.697l-1.48-.146c-.337 0-.505-.095-.505-.283v-1.59l.072-.142c3.913.095 6.647.142 8.203.142l7.766-.142.072.142v1.519c0 .236-.145.354-.433.354l-1.552.146c-1.131.099-1.933.338-2.401.717-.471.38-.705.949-.705 1.707zm20.914 30.06c-1.44 0-2.728.25-3.864.751-1.135.5-2.014 1.092-2.637 1.776-.622.683-1.153 1.507-1.593 2.472-.439.964-.732 1.788-.879 2.472a19.458 19.458 0 00-.33 2.124h-1.904l.477-10.106c0-.464.128-.83.385-1.1.256-.269.543-.401.859-.401h1.208c1.979 0 3.26-1.074 3.846-3.224 1.781-7.959 2.673-16.112 2.673-24.463 0-.301-.038-.595-.112-.883a3.672 3.672 0 00-.411-.939c-.198-.338-.522-.606-.971-.808-.449-.2-.996-.3-1.643-.3h-2.055c-.299 0-.447-.118-.447-.354v-1.659c.982 0 2.379.035 4.187.109 1.807.072 2.858.109 3.154.109.363 0 1.458-.024 3.279-.073 1.823-.049 3.257-.073 4.302-.073 1.103 0 2.757.024 4.963.073 2.206.049 3.799.073 4.779.073.854 0 2.229-.037 4.129-.109 1.898-.074 3.189-.109 3.873-.109v1.52c0 .117-.061.229-.179.336a.553.553 0 01-.372.159h-1.178c-1.354 0-2.278.269-2.771.808-.493.538-.739 1.469-.739 2.789v23.312c0 1.42.172 2.387.517 2.899.346.514 1.084.783 2.217.809h1.293c.304 0 .63.141.979.421s.524.641.524 1.08l.513 10.106h-1.868a24.29 24.29 0 00-.604-2.69c-.232-.794-.593-1.644-1.08-2.546-.489-.903-1.075-1.653-1.759-2.252-.684-.6-1.593-1.1-2.729-1.502-1.135-.402-2.423-.604-3.863-.604h-14.17v-.003zm-1.297-3.809c0 .586.475.879 1.423.879h11.274c1.289 0 2.109-.27 2.463-.807.353-.537.529-1.488.529-2.855v-21.46c0-1.393-.173-2.338-.516-2.838-.342-.5-1.175-.751-2.497-.751h-7.675c-.539 0-.986.151-1.341.458-.355.306-.582.586-.68.842-.099.257-.146.471-.146.642-.307 5.005-.697 9.57-1.169 13.695-.473 4.127-.869 7.142-1.188 9.046-.318 1.904-.477 2.954-.477 3.149zm78.954.721c.72.666 1.41.999 2.069.999h.621c.537 0 .807.196.807.586v1.429l-.146.146-5.408-.073c-.676-.024-1.332-.244-1.973-.659a7.023 7.023 0 01-1.623-1.429c-.44-.536-.904-1.244-1.392-2.122-.486-.879-.853-1.601-1.099-2.164a56.766 56.766 0 01-.847-2.085c-1.05-2.588-1.88-4.322-2.49-5.201-1.569-2.366-3.84-3.661-6.811-3.88v12.158c0 1.123.246 1.953.738 2.49.491.536 1.303.805 2.432.805h.685c.385 0 .576.196.576.586v1.429l-.146.146a217.391 217.391 0 00-7.25-.146l-6.851.146-.146-.146v-1.429c0-.39.191-.586.576-.586h.576c1.177 0 1.998-.269 2.467-.805.468-.537.702-1.367.702-2.49V30.908c-1.1.072-2.101.299-3.004.677-.902.379-1.63.8-2.179 1.265-.55.464-1.086 1.104-1.61 1.923-.525.817-.916 1.52-1.173 2.104-.256.585-.592 1.38-1.007 2.381-.123.317-.22.563-.293.732a87.082 87.082 0 01-.896 2.087c-.232.513-.6 1.228-1.1 2.144-.501.915-.982 1.636-1.446 2.159a7.574 7.574 0 01-1.703 1.41c-.672.415-1.361.636-2.069.659l-5.493.073-.146-.146v-1.429c0-.39.279-.586.842-.586h.586c1.928 0 4.26-3.234 6.995-9.704.83-2.002 1.971-3.662 3.424-4.979 1.452-1.318 3.13-1.979 5.035-1.979a5.744 5.744 0 01-2.49-1.044 8.363 8.363 0 01-1.996-2.087c-.574-.843-1.024-1.611-1.354-2.307-.33-.694-.702-1.482-1.118-2.363-1.123-2.49-1.979-3.734-2.563-3.734-.781 0-1.331.099-1.647.293-.879.439-1.624.658-2.234.658-.782 0-1.44-.286-1.978-.86-.537-.572-.807-1.237-.807-1.995 0-1.001.349-1.813 1.043-2.436.696-.623 1.716-.934 3.059-.934.683 0 1.349.17 1.996.51.646.34 1.178.711 1.593 1.111.415.4.881 1.015 1.397 1.84.518.827.887 1.459 1.107 1.896.221.439.552 1.152.993 2.141.47.938.846 1.688 1.125 2.25s.709 1.254 1.292 2.076c.582.823 1.17 1.461 1.764 1.915.594.454 1.37.854 2.327 1.198.958.344 2.006.516 3.146.516h.582v-9.356c0-1.104-.234-1.908-.702-2.412-.469-.504-1.29-.755-2.468-.755h-.575c-.385 0-.576-.188-.576-.565v-1.308l.146-.142c2.817.095 5.102.142 6.851.142l7.25-.142.146.142v1.308c0 .378-.191.565-.576.565h-.685c-1.153 0-1.969.258-2.45.773-.48.515-.72 1.313-.72 2.394v9.356h.582c1.137 0 2.185-.171 3.141-.513.956-.342 1.743-.737 2.36-1.189.617-.452 1.216-1.081 1.798-1.887.581-.807 1.014-1.507 1.298-2.103.283-.597.654-1.349 1.112-2.256.404-.907.726-1.61.962-2.109.237-.498.592-1.144 1.063-1.938.472-.793.921-1.403 1.348-1.831a6.349 6.349 0 011.594-1.135 4.23 4.23 0 011.979-.494c1.392 0 2.439.311 3.148.934.707.622 1.063 1.436 1.063 2.437 0 .757-.27 1.422-.807 1.994a2.6 2.6 0 01-1.978.86c-.708 0-1.453-.219-2.233-.658-.416-.194-1.002-.293-1.758-.293-.685 0-1.502 1.242-2.454 3.729l-.887 1.863c-.221.464-.569 1.088-1.045 1.87-.478.782-.935 1.412-1.373 1.891-.439.478-.995.93-1.667 1.356a5.578 5.578 0 01-2.105.826c1.904 0 3.736 1.037 5.498 3.112s3.361 4.722 4.804 7.939m39.312-26.796c.048 2.51.39 5.506 1.025 8.99l-1.868.219a14.616 14.616 0 00-.747-2.227c-.279-.634-.674-1.321-1.186-2.063a5.156 5.156 0 00-2.041-1.733c-.85-.414-1.834-.621-2.95-.621h-5.978c-.754 0-1.301.108-1.641.329-.34.219-.511.633-.511 1.24V29.15h5.58c.974 0 1.659-.195 2.062-.585.399-.39.687-.998.855-1.825l.438-1.57c0-.228.159-.342.477-.342h1.245c.122 0 .184.065.184.195-.317 2.869-.477 4.732-.477 5.592 0 .464.158 2.185.477 5.163l-.184.11h-1.245c-.365 0-.549-.121-.549-.364l-.365-1.633c-.146-.8-.438-1.388-.875-1.763s-1.118-.563-2.042-.563h-5.579v12.524c0 .685.176 1.153.527 1.409.354.257.895.385 1.622.385h6.416c2.089 0 3.669-.579 4.738-1.738 1.068-1.159 1.957-2.852 2.661-5.072l1.868.22c-.903 3.589-1.43 6.642-1.575 9.155h-19.782l-7.354.146-.072-.146V46.8c0-.242.145-.364.434-.364l1.696-.146c1.132-.122 1.908-.354 2.329-.697.421-.342.632-.893.632-1.648V18.346c0-.831-.223-1.412-.668-1.742-.445-.33-1.21-.536-2.293-.618l-1.696-.163c-.289-.048-.434-.142-.434-.283v-1.59l.072-.142 7.45.146h5.405zM267.47 43.79V18.536c0-1.101-.288-1.799-.866-2.092-.578-.294-1.826-.502-3.744-.624-.345 0-.517-.118-.517-.354v-1.589l.146-.07c.27 0 1.419.023 3.45.072 2.031.05 3.463.072 4.295.072.635 0 1.86-.023 3.679-.072a165.98 165.98 0 014.191-.072c2.03 0 3.821.193 5.374.584 1.554.389 2.775.881 3.668 1.476a7.698 7.698 0 012.183 2.169c.563.852.937 1.659 1.119 2.425.184.767.275 1.586.275 2.46 0 .999-.098 1.974-.294 2.922-.195.95-.587 1.961-1.174 3.031a9.913 9.913 0 01-2.237 2.775c-.905.779-2.146 1.425-3.724 1.936-1.577.513-3.382.768-5.41.768-2.059 0-3.649-.234-4.775-.706v10.145c0 .784.231 1.33.697 1.636.466.308 1.348.57 2.646.79l1.521.223c.346.071.52.219.52.438v1.574l-.094.146c-4.008-.099-6.782-.146-8.321-.146l-7.734.146-.072-.146v-1.574c0-.221.146-.367.441-.438l1.587-.223c1.154-.171 1.973-.439 2.452-.809.479-.37.718-.909.718-1.619zm5.641-27.345v15.192c1.126.466 2.768.697 4.922.697 4.556 0 6.833-2.845 6.833-8.534 0-3.016-.625-5.101-1.873-6.253-1.249-1.151-3.037-1.729-5.362-1.729-1.57.002-3.076.21-4.52.627zm50.43-2.493c.049 2.51.392 5.506 1.025 8.99l-1.867.219a14.507 14.507 0 00-.747-2.227c-.279-.634-.674-1.321-1.185-2.063a5.17 5.17 0 00-2.041-1.733c-.851-.414-1.834-.621-2.951-.621h-5.979c-.753 0-1.3.108-1.64.329-.34.219-.51.633-.51 1.24V29.15h5.58c.973 0 1.659-.195 2.061-.585.4-.39.688-.998.856-1.825l.438-1.57c0-.228.158-.342.477-.342h1.244c.122 0 .185.065.185.195-.318 2.869-.478 4.732-.478 5.592 0 .464.158 2.185.478 5.163l-.185.11h-1.244c-.366 0-.551-.121-.551-.364l-.363-1.633c-.146-.8-.438-1.388-.875-1.763-.438-.375-1.119-.563-2.042-.563h-5.58v12.524c0 .685.176 1.153.527 1.409.354.257.895.385 1.622.385h6.416c2.09 0 3.669-.579 4.738-1.738 1.069-1.159 1.957-2.852 2.662-5.072l1.867.22c-.903 3.589-1.428 6.642-1.574 9.155h-19.783l-7.354.146-.072-.146V46.8c0-.242.145-.364.434-.364l1.696-.146c1.131-.122 1.907-.354 2.329-.697.421-.342.632-.893.632-1.648V18.346c0-.831-.223-1.412-.668-1.742-.445-.33-1.21-.536-2.293-.618l-1.696-.163c-.289-.048-.434-.142-.434-.283v-1.59l.073-.142 7.45.146h5.404zm15.495 30.195c.854-2.975 1.282-8.023 1.282-15.15 0-1.884-.013-3.37-.037-4.46a52.396 52.396 0 00-.184-3.34c-.099-1.138-.237-1.987-.421-2.551a5.981 5.981 0 00-.787-1.579c-.343-.489-.751-.819-1.228-.99-.477-.172-1.067-.257-1.775-.257-.685 0-1.117-.029-1.301-.089-.184-.06-.273-.241-.273-.548v-1.236l.219-.142 7.716.146c1.707 0 3.854-.023 6.438-.073l8.153.073c2.146 0 4.929-.049 8.347-.146l.22.142v1.378c0 .33-.208.495-.622.495h-2.088c-1.367 0-2.222.214-2.563.643-.341.429-.513 1.39-.513 2.882v23.714c0 1.126.238 1.958.714 2.497.478.538 1.313.807 2.51.807h1.428c.391 0 .586.196.586.588v1.434l-.146.141-8.023-.141c-1.812 0-4.415.047-7.813.141l-.146-.141v-1.434c0-.392.195-.588.588-.588h1.433c1.226 0 2.07-.262 2.536-.789.466-.526.698-1.364.698-2.515V20.333c0-1.395-.178-2.343-.533-2.845-.354-.502-1.183-.753-2.479-.753h-4.264c-.687 0-1.244.258-1.672.771-.43.515-.742 1.353-.938 2.516a31.106 31.106 0 00-.388 3.543c-.061 1.199-.092 2.827-.092 4.882 0 7.218-.423 12.38-1.269 15.487-1.017 3.621-3.07 5.432-6.165 5.432-1.245 0-2.405-.41-3.479-1.228-1.075-.818-1.61-1.718-1.61-2.693 0-.808.193-1.462.586-1.964.39-.502.964-.753 1.721-.753.635 0 1.196.231 1.685.696.489.466.758.991.807 1.578.098 1.199.5 1.799 1.209 1.799.771 0 1.42-.884 1.933-2.654zm42.311-7.998l-3.326 7.858c-.219.564-.328.896-.328.993 0 .44.25.761.75.955.5.196 1.273.332 2.325.404l.987.074c.099 0 .195.042.293.128a.394.394 0 01.146.312v1.575l-.146.146c-4.143-.098-6.687-.146-7.634-.146l-4.871.146-.145-.146v-1.574c0-.122.049-.226.146-.312a.445.445 0 01.293-.128c.781-.099 1.403-.214 1.867-.35.464-.134.972-.438 1.521-.915.549-.477 1.019-1.129 1.409-1.959l13.22-28.382a3.409 3.409 0 011.097-1.392c.489-.368.914-.549 1.279-.549 1.485 0 2.484.623 2.997 1.871l10.953 27.979c.608 1.438 1.221 2.384 1.831 2.835.608.451 1.55.738 2.818.86.415.049.623.194.623.438v1.574l-.22.146c-2.661-.098-4.736-.146-6.225-.146l-8.418.146-.146-.146V46.87c0-.293.171-.438.513-.438l1.355-.146c1.05-.146 1.813-.312 2.289-.495.476-.183.714-.494.714-.934 0-.171-.049-.451-.146-.843l-3.383-8.716H382.99c-.949.004-1.496.287-1.643.851zm13.544-3.008l-5.901-14.76-.114-.019-5.695 13.741c0 .196.018.352.055.463.036.11.171.233.404.37.231.136.581.203 1.046.203z"/>
</svg>
