<?xml version="1.0" encoding="UTF-8" standalone="no"?>
<svg xmlns="http://www.w3.org/2000/svg" width="230" height="60" version="1.0">
	<path d="M27.77 40.772h-1.054q-2.45 0-4.152-1.565-1.055-.953-2.553-3.472-1.565 2.757-3.641 3.914-2.553 1.395-7.215 1.395Q0 41.044 0 34.476q0-2.212 1.361-4.56.443-.783.885-.783.409 0 .409.68 0 .375-.103 1.124-.102.714-.102 1.089 0 3.913 6.637 3.913 9.359 0 9.359-3.641 0-1.974-5.411-14.192l1.94-3.37q.374-.646.51-.68.204.136.51.85 2.247 5.31 5.956 15.52 1.94 5.309 5.48 5.309h.34v5.037zM15.656 5.037l-3.54 3.54-3.573-3.574 3.54-3.54 3.573 3.574zm46.999 23.074l-1.906 3.403q-4.867-.068-6.807.647-2.654.987-7.861 3.573-5.173 2.587-7.93 3.574-4.118 1.463-8.168 1.463h-4.594v-5.037h4.764q5.854 0 10.652-2.007l10.142-4.425q-2.416-.544-7.725-2.518-4.39-1.634-5.684-1.634-2.518 0-5.139 2.212-.51.443-.918.443-.443 0-.443-.579 0-.238.136-.646 2.144-6.297 7.317-6.297 1.838 0 5.003 1.43 5.275 2.382 7.896 3.267 4.458 1.497 10.618 1.906 1.089.068 1.089.272 0 .17-.443.953zM50.3 8.271l-3.54 3.538-3.539-3.573 3.54-3.54zm29.132 32.5H77.39q-2.11 0-3.642-.68-1.497-.715-2.484-2.179-.987-1.497-1.463-3.811-.443-2.349-.443-5.65l.034-8.304q0-5.922-1.02-16.948L71.06.34q.34-.34.578-.34.204 0 .375.817.17.817.306 2.212.136 1.361.238 3.165.102 1.804.17 3.778.068 1.94.102 3.947.034 1.974.034 3.71v12.694q0 5.411 5.207 5.411h1.362v5.037zm22.496-8.644q.034.34.034.68v.613q0 1.804-.443 3.233-.442 1.395-1.089 2.348-.646.953-1.395 1.464-.715.476-1.327.476-3.472 0-9.87-4.458-2.008 2.348-2.757 2.96-1.701 1.328-4.186 1.328H77.05v-5.037h4.594q1.293 0 2.246-.442.953-.443 1.906-1.464.953-1.02 2.076-2.654 1.157-1.634 2.825-3.982 2.144-2.995 4.39-2.995 3.2 0 5.173 3.2 1.463 2.313 1.668 4.73zm-2.587 3.199q0-.987-.442-2.144-.443-1.157-1.157-2.144-.68-1.021-1.566-1.702-.885-.68-1.77-.68-1.973 0-4.56 3.981.477.545 1.6 1.225 1.123.647 2.382 1.226 1.293.578 2.518.986 1.26.375 1.974.375 1.021 0 1.021-1.123zm63.097 5.445h-9.018q-1.77 0-3.54.579-2.348.816-2.348 2.212 0 .51 6.262 1.735 6.296 1.26 6.296 2.757 0 5.14-2.96 7.658Q152.125 60 139.5 60q-15.247 0-15.247-11.265 0-2.519 1.09-5.65 1.088-3.13 2.654-5.173.612-.783 1.123-.85.51-.035.51.544 0 .51-.408 1.293-1.974 3.744-1.974 7.76 0 3.3 2.484 5.445 3.2 2.79 9.938 2.79 5.207 0 9.665-.544 7.896-.987 7.896-3.37 0-.986-3.437-1.565-5.446-.919-6.33-1.157-3.438-.953-3.438-2.927 0-1.565 1.668-3.913 1.395-1.974 2.927-3.2 3.063-2.484 8.712-2.484h5.105v5.037zm29.95 0h-2.247q-3.37 0-6.909-3.676-1.735-1.803-5.07-6.67.34 10.346-11.673 10.346h-6.433v-5.037h7.045q8.78 0 8.78-4.867 0-2.586-3.062-6.33-1.94-2.382-5.65-5.82-3.063-2.858-3.063-3.164 0-4.323 1.464-6.33.34-.443 8.542-3.472 8.678-3.199 15.62-5.309 0 .953-1.122 4.833-8.27 2.722-21.305 7.657 6.058 5.343 14.838 16.744 3.097 4.016 5.037 5.173 1.497.885 4.322.885h.885v5.037zm11.298-8.644q0 8.644-8.61 8.644h-5.07v-5.037h4.457q6.5 0 6.5-2.348 0-1.634-2.96-5.411l1.77-4.289q.272-.646.442-.646.17 0 .715.783 2.756 4.05 2.756 8.304zm4.016 18.242l-3.369 3.369-3.37-3.403 3.37-3.37zm-7.453 0l-3.37 3.369-3.369-3.403 3.336-3.37zm30.017-11.333q0 9.733-6.705 16.676-2.11 2.178-2.688 2.178-3.642 0-8.474-.749-1.668-.272-1.668-.51 0-.273 1.77-.783 5.309-1.532 9.835-5.445 1.906-1.634 3.472-3.846 1.974-2.757 1.974-4.629v-1.43l-5.684.205q-6.024.204-6.024-5.003 0-3.233 1.872-6.942 2.144-4.22 4.9-4.22 4.085 0 6.059 5.615 1.361 3.914 1.361 8.882zm-3.131-3.608q0-2.076-1.43-3.982-1.565-2.042-3.573-2.042-1.361 0-2.382 1.021-.987 1.021-.987 2.383 0 2.995 4.288 2.995 1.6 0 4.084-.375z"/>
</svg>
