<?xml version="1.0" encoding="UTF-8" standalone="no"?>
<svg xmlns="http://www.w3.org/2000/svg" width="401" height="51" viewBox="0 0 401 51">
	<path d="M94.526 49.071c.377.35.377 1.574 0 1.924-3.14-.058-4.96-.116-8.1-.116-3.202 0-5.086.059-8.163.116-.376-.35-.376-1.574 0-1.924 4.396-.175 5.463-.466 5.463-5.306v-23.38c0-4.839-1.067-5.131-5.463-5.306-.376-.35-.376-1.574 0-1.924 3.14.059 4.96.116 8.1.116 3.202 0 5.086-.058 8.163-.116.377.35.377 1.574 0 1.924-4.395.175-5.463.467-5.463 5.306v23.38c0 4.841 1.068 5.132 5.463 5.306zm20.153 0c.377.35.377 1.574 0 1.924-3.14-.058-4.96-.116-8.1-.116-3.202 0-5.086.059-8.163.116-.376-.35-.376-1.574 0-1.924 4.396-.175 5.463-.466 5.463-5.306v-23.38c0-4.839-1.067-5.131-5.463-5.306-.376-.35-.376-1.574 0-1.924 3.14.059 4.96.116 8.1.116 3.202 0 5.086-.058 8.163-.116.377.35.377 1.574 0 1.924-4.396.175-5.463.467-5.463 5.306v10.244c2.198-.175 3.51-1.032 4.772-2.256l10.548-10.262c3.021-3.113.509-2.834-1.758-3.032-.377-.35-.377-1.574 0-1.924 2.951.059 4.583.116 7.095.116 2.512 0 3.014-.058 5.965-.116.377.35.377 1.574 0 1.924-2.512.292-5.274.408-8.163 3.266l-8.791 8.804c-2.053 2.058-2.323 2.448-2.323 2.856 0 .467.188.875.753 1.458l13.751 15.159c2.11 2.425 4.401 2.297 5.525 2.448.377.35.377 1.574 0 1.924-2.951-.058-3.893-.116-6.342-.116-1.883 0-2.951.059-4.207.116-.251 0-.314-.175-.314-.35 0-1.061-.006-2.612-1.256-4.022l-10.235-11.545c-1.256-1.498-2.914-2.151-5.023-2.209v10.896c.003 4.842 1.07 5.133 5.466 5.307zm42.315 0c.377.35.377 1.574 0 1.924-3.14-.058-4.96-.116-8.1-.116-3.202 0-5.086.059-8.163.116-.376-.35-.376-1.574 0-1.924 4.396-.175 5.463-.466 5.463-5.306v-23.38c0-4.839-1.067-5.131-5.463-5.306-.376-.35-.376-1.574 0-1.924 3.14.059 4.96.116 8.1.116 3.202 0 5.086-.058 8.163-.116.377.35.377 1.574 0 1.924-4.395.175-5.463.467-5.463 5.306v23.38c0 4.841 1.068 5.132 5.463 5.306zm19.839-35.915c11.679 0 13.5 5.072 13.5 8.979 0 3.166-2.819 6.157-5.965 7.638v.117c5.463 1.457 9.67 4.664 9.67 10.262 0 5.014-3.328 10.844-15.823 10.844-5.588 0-6.467-.116-9.167-.116-3.202 0-5.086.059-8.163.116-.376-.35-.376-1.574 0-1.924 4.396-.175 5.463-.466 5.463-5.306v-23.38c0-4.839-1.067-5.131-5.463-5.306-.376-.35-.376-1.574 0-1.924 3.14.059 4.96.116 8.1.116 2.699.001 5.65-.116 7.848-.116zm-5.149 16.384h4.646c5.212 0 8.917-1.749 8.917-6.705 0-5.947-4.584-7.696-8.1-7.696-5.463 0-5.463.583-5.463 2.507zm0 15.625c0 1.924.816 3.906 5.212 3.906 9.544 0 11.302-3.557 11.302-7.813 0-5.247-3.579-9.736-12.182-9.736h-4.333v13.643zm42.254 3.906c.377.35.377 1.574 0 1.924-3.14-.058-4.961-.116-8.1-.116-3.203 0-5.086.059-8.163.116-.376-.35-.376-1.574 0-1.924 4.396-.175 5.463-.466 5.463-5.306v-23.38c0-4.839-1.067-5.131-5.463-5.306-.376-.35-.376-1.574 0-1.924 3.14.059 4.96.116 8.1.116 2.387 0 6.279-.407 7.849-.407 3.956 0 7.85.175 10.863 2.798 2.26 1.982 3.328 4.373 3.328 7.288 0 6.122-5.651 9.154-8.352 9.97l7.911 12.244c1.633 2.53 3.203 4.489 6.028 4.489.251.467.282.997.063 1.399-.628.292-1.695.408-2.637.408-3.768 0-6.486-2.472-8.288-5.189l-6.719-10.145c-.898-1.358-2.072-2.216-7.347-2.216v9.854c.001 4.842 1.068 5.133 5.464 5.307zm-5.463-30.493V31.93h3.014c6.091 0 10.549-1.632 10.549-8.92 0-6.88-4.521-8.163-8.351-8.163-4.458 0-5.212 2.041-5.212 3.731zm46.963 32.884c-10.8 0-19.653-7.171-19.653-18.657 0-11.428 8.037-20.29 19.276-20.29 10.988 0 20.219 7.638 20.219 19.183-.001 11.66-7.849 19.764-19.842 19.764zm-13.626-19.648c0 11.194 7.347 17.666 14.882 17.666 7.158 0 12.558-6.238 12.558-16.675 0-12.127-6.467-18.308-15.007-18.308-5.715 0-12.433 5.072-12.433 17.317zm19.841-25.712l-9.041 3.382c-1.319.524-2.072.699-2.638.699-.566 0-.941-.408-.941-.874 0-.408.125-.7.941-1.225l7.786-5.015c1.797.776 3.096 1.791 3.893 3.033zm45.33 8.978c-.377-.35-.377-1.574 0-1.924 3.14.059 4.27.116 6.97.116 2.763 0 3.956-.058 7.032-.116.377.35.377 1.574 0 1.924-4.395.408-5.462.758-5.462 5.947v28.627c0 1.108-.565 1.808-1.444 1.808-1.005 0-1.821-.524-2.512-1.399l-21.914-25.712c-1.067-1.282-1.758-1.924-2.135-1.924-.502 0-.502.874-.502 2.856v17.841c0 5.306 1.067 5.539 5.463 5.947.376.35.376 1.574 0 1.924-3.14-.058-4.271-.116-6.97-.116-2.763 0-3.956.059-7.033.116-.376-.35-.376-1.574 0-1.924 4.396-.408 5.463-.758 5.463-5.947V18.811c-.377-1.516-2.26-3.557-4.96-3.731-.377-.35-.377-1.574 0-1.924l8.477.116 21.537 25.771c1.82 2.157 2.512 3.207 3.014 3.207.439 0 .439-.642.439-1.749V21.027c0-5.305-1.067-5.539-5.463-5.947zm45.392 0c-.377-.35-.377-1.574 0-1.924 3.14.059 4.27.116 6.97.116 2.763 0 3.956-.058 7.032-.116.377.35.377 1.574 0 1.924-4.395.408-5.462.758-5.462 5.947v28.627c0 1.108-.565 1.808-1.444 1.808-1.005 0-1.821-.524-2.512-1.399l-21.914-25.712c-1.067-1.282-1.758-1.924-2.135-1.924-.502 0-.502.874-.502 2.856v17.841c0 5.306 1.067 5.539 5.463 5.947.376.35.376 1.574 0 1.924-3.14-.058-4.271-.116-6.97-.116-2.763 0-3.956.059-7.033.116-.376-.35-.376-1.574 0-1.924 4.396-.408 5.463-.758 5.463-5.947V18.811c-.376-1.516-2.26-3.557-4.96-3.731-.377-.35-.377-1.574 0-1.924l8.477.116 21.537 25.771c1.82 2.157 2.512 3.207 3.014 3.207.439 0 .439-.642.439-1.749V21.027c0-5.305-1.067-5.539-5.463-5.947zm38.798 10.786c.377-.35 1.695-.35 2.072 0-.063 1.749-.126 3.032-.126 5.015 0 1.983.063 3.09.126 5.131-.377.35-1.695.35-2.072 0-.188-2.624-.377-3.965-5.714-3.965h-5.714v14.051c0 1.574.879 2.508 2.261 2.508h8.539c4.772 0 6.97-3.44 8.226-7.639a3.083 3.083 0 012.197.292c-.502 2.974-1.443 6.821-2.323 9.736 0 0-5.022-.116-8.037-.116h-13.499s-5.086.059-8.163.116c-.377-.35-.377-1.574 0-1.924 4.396-.175 5.463-.466 5.463-5.306v-23.38c0-4.839-1.067-5.131-5.463-5.306-.377-.35-.377-1.574 0-1.924 3.14.059 8.1.116 8.1.116h16.012c1.507 0 2.009-.058 3.077-.232.188 0 .251.058.251.175.125.466 1.067 6.063 1.381 8.454a3.744 3.744 0 01-2.072.291c-1.381-4.022-2.386-6.354-7.095-6.354h-6.593c-1.507 0-2.261 1.166-2.261 2.565v11.66h5.714c5.336.001 5.524-.757 5.713-3.964zM80.344.858c0 .286-.096.549-.287.787-.167.238-.358.358-.573.358-1.763.165-3.206.737-4.326 1.715-1.12.954-2.277 2.789-3.467 5.507L53.455 50.308c-.119.382-.453.572-1 .572-.429 0-.763-.19-1.001-.572L41.228 28.927 29.464 50.308c-.238.382-.572.572-1.001.572-.525 0-.87-.19-1.037-.572L9.512 9.225c-1.121-2.551-2.3-4.326-3.54-5.327C4.732 2.873 3.004 2.242.786 2.003c-.19 0-.369-.096-.536-.287A1.137 1.137 0 010 1.001C0 .333.19 0 .572 0c1.597 0 3.266.071 5.005.215 1.621.143 3.147.214 4.577.213 1.454.001 3.17-.07 5.149-.213A80.438 80.438 0 0120.809 0c.381 0 .572.333.572 1.001 0 .667-.119 1.002-.357 1.002-1.597.118-2.86.523-3.79 1.214-.906.692-1.358 1.598-1.358 2.718 0 .572.19 1.287.571 2.146L31.25 41.512l8.402-15.875-7.83-16.412c-1.406-2.932-2.563-4.815-3.468-5.649-.906-.857-2.276-1.383-4.112-1.572-.166 0-.333-.097-.5-.287a1.255 1.255 0 01-.214-.715c0-.668.167-1.001.5-1.001 1.597 0 3.063.071 4.398.215 1.287.143 2.657.213 4.111.213 1.43 0 2.944-.071 4.541-.213a55.747 55.747 0 014.863-.215c.382 0 .572.333.572 1.001 0 .667-.119 1.002-.358 1.002-3.194.213-4.791 1.12-4.791 2.717 0 .715.37 1.823 1.108 3.325l5.184 10.512 5.149-9.618c.715-1.358 1.073-2.503 1.073-3.432 0-2.193-1.597-3.361-4.792-3.504-.286 0-.428-.335-.428-1.002 0-.238.071-.465.214-.68.143-.215.286-.321.428-.321 1.145 0 2.55.071 4.219.215 1.598.143 2.909.213 3.933.213.739 0 1.823-.059 3.254-.177 1.812-.168 3.325-.251 4.541-.251.286 0 .429.286.429.857 0 .763-.262 1.146-.786 1.146-1.859.189-3.361.702-4.506 1.536-1.12.835-2.526 2.729-4.219 5.686L45.3 21.918l9.296 18.951 13.73-31.93c.477-1.168.715-2.24.715-3.219 0-2.336-1.598-3.574-4.791-3.717-.287 0-.43-.335-.43-1.002 0-.668.215-1.001.645-1.001 1.168 0 2.55.071 4.147.215 1.478.143 2.718.213 3.718.213 1.049 0 2.264-.071 3.647-.213A38.912 38.912 0 0179.839 0c.337 0 .505.286.505.858"/>
</svg>
