<?xml version="1.0" encoding="UTF-8" standalone="no"?>
<svg xmlns="http://www.w3.org/2000/svg" width="107" height="23" viewBox="0 0 107 23">
	<g fill="none" stroke-width="107">
		<path fill="#010100" d="M90.044 18.57c.485 0 .95.017 1.415-.003a235.89 235.89 0 004.159-.2c.532-.033 1.06-.123 1.665-.195.03-.246.063-.552.106-.858.032-.23.12-.462.101-.686a1.858 1.858 0 00-.221-.758c-.06-.103-.304-.13-.465-.136-.499-.016-.998 0-1.497-.008-.382-.005-.466.12-.524.5-.045.299-.073.602-.142.895-.032.138-.11.304-.22.376-.154.102-.397.223-.53.164-.155-.067-.315-.312-.328-.491-.031-.422.04-.85.04-1.275.002-.337-.035-.675-.063-1.011-.037-.455-.102-.908-.12-1.363-.037-.877-.031-1.756-.083-2.633-.011-.2-.159-.413-.29-.582-.195-.248-.15-.49.154-.586.315-.099.609-.022.865.163.364.263.71.353 1.163.181.35-.132.755-.113 1.136-.154.118-.012.24.001.358-.003.623-.021.744-.133.723-.755a8.07 8.07 0 00-.14-1.159c-.014-.08-.176-.196-.264-.19-.683.044-1.362.129-2.045.173-.689.043-1.38.062-2.07.07-.113.002-.241-.084-.337-.164a.265.265 0 01-.069-.232c.018-.057.128-.116.198-.117.87-.012 1.74 0 2.61-.028.301-.01.599-.126.901-.172.377-.057.757-.09 1.148-.135.035-.768-.017-1.486-.454-2.11-.09-.127-.28-.254-.428-.259a32.38 32.38 0 00-2.159-.007c-.653.02-1.306.08-1.96.13-.295.022-.497.284-.522.68-.07 1.087-.118 2.177-.202 3.264-.062.81-.176 1.618-.25 2.428-.042.467.01.95-.083 1.405-.215 1.067-.01 2.19-.498 3.223-.355.755-.573 1.579-.937 2.328-.211.437-.582.796-.896 1.178a12.312 12.312 0 01-2.591 2.383c-.265.18-.475.444-.727.648-.095.077-.24.092-.361.136l-.074-.095c.108-.15.2-.317.33-.446.394-.396.79-.793 1.21-1.161.7-.614 1.124-1.445 1.695-2.16.412-.516.633-1.106.797-1.739.137-.526.38-1.023.515-1.549.107-.415.15-.852.176-1.283.079-1.253.138-2.507.2-3.762.013-.277-.001-.556 0-.833.012-1.2.034-2.399.027-3.599-.001-.25-.11-.501-.171-.751-.015-.062-.059-.129-.048-.185.1-.49-.173-.752-.55-.954-.019-.01-.048-.008-.059-.022-.119-.165-.357-.36-.327-.495.056-.261.355-.4.606-.345.332.074.676.2.957.39.516.348 1.048.332 1.625.266.483-.055.977-.003 1.467-.001.24 0 .48 0 .72-.009.582-.019 1.164-.047 1.746-.063.377-.01.5-.109.513-.497.014-.442.073-.9-.019-1.323-.076-.358-.303-.703-.528-1.005-.244-.326-.25-.467.133-.6.43-.148.866-.292 1.309-.39.185-.041.404.016.594.075.333.103.656.239.982.363.109.042.22.079.322.136.373.213.38.613.077.906-.158.152-.28.394-.318.614-.097.562-.145 1.134-.194 1.704-.011.128.054.262.099.46.397-.468.886-.537 1.371-.568.373-.023.752.02 1.125.06.983.102 1.744-.327 2.393-1.018.245-.26.517-.42.882-.374.102.013 1.138.858 1.145.954.014.17.023.319-.157.448-.287.207-.485.545-.872.609-.21.034-.418.089-.628.1-.58.034-1.163.058-1.745.068-.653.012-1.307-.012-1.959.009-.371.012-.741.075-1.11.133-.105.016-.202.096-.331.16.09.103.149.178.215.246.316.326.343.42.04.773a.992.992 0 00-.205 1.016c.041.129.222.283.352.295.284.028.576-.032.865-.05.41-.024.824-.01 1.226-.077.283-.048.563-.18.82-.32.288-.158.547-.37.82-.556.179-.121.329-.148.512.033.148.145.368.211.544.33.15.102.31.207.42.348.192.246.11.508-.193.542-.441.05-.89.026-1.336.037-.398.009-.797.025-1.196.034-.388.009-.78.046-1.166.01-.474-.045-.934-.097-1.4.075-.283.105-.445.313-.463.566-.027.388 0 .788.068 1.17.05.28.265.43.58.389.296-.039.602-.093.896-.06.76.084 1.44-.143 2.082-.51.306-.176.559-.173.863.001.245.14.534.198.8.303.322.127.608.273.705.678.052.22 0 .323-.159.42-.127.078-.26.146-.386.225-.192.12-.295.272-.267.53.05.445.112.901.063 1.34-.087.78-.011 1.567-.238 2.34-.276.942-.827 1.631-1.85 2.11-.373-.16-.306-.527-.372-.83-.015-.075-.002-.155-.016-.23-.05-.262-.168-.391-.474-.38-.493.018-.99-.034-1.484-.055-.065-.003-.131-.007-.196.002-.415.055-.492.157-.503.584-.011.426-.054.851-.06 1.277-.006.491.161.65.638.65 1.313 0 2.625.005 3.938-.007.183-.002.388-.057.542-.154.404-.255.783-.548 1.174-.823.34-.24.924-.136 1.196.21.18.23.4.44.518.7.092.202.108.478.06.7-.053.247-.276.373-.545.366-1.803-.045-3.607-.079-5.41-.14-.4-.014-.796-.157-1.196-.175-.312-.014-.628.075-.872.11-.054.72-.1 1.4-.156 2.078-.017.205-.063.406-.083.61-.059.59-.547 1.202-1.098 1.379-.27.086-.468.033-.53-.273-.053-.263-.11-.528-.127-.795-.054-.828-.095-1.656-.13-2.485-.009-.19-.086-.25-.26-.245-.951.025-1.904.02-2.852.076-.81.048-1.615.163-2.42.258-.242.029-.486.15-.717.122-.53-.067-.8-.452-.769-1.05zm7.497-6.7v-.271c-.001-.613-.14-.76-.719-.761-.335 0-.67.006-1.005-.002-.325-.008-.72.032-.808.356-.12.44-.063.937-.075 1.41-.001.032.048.085.083.095.28.082.63.306.83.201.4-.21.79-.13 1.183-.16.327-.024.509-.214.51-.565v-.303zm2.932 3.144c.28 0 .561.007.841-.002.302-.01.494-.204.503-.509.008-.26.024-.524-.003-.782-.047-.44-.087-.619-.613-.605-.556.016-1.113.048-1.67.062-.253.007-.316.174-.312.37.009.365.046.73.065 1.095.013.248.133.371.38.37l.81.001zm-1.254-3.39c0 .158-.001.317.001.474.006.376.076.465.426.445a26.086 26.086 0 001.72-.141c.399-.049.459-.155.459-.59 0-.26.012-.52-.004-.779-.012-.19-.065-.38-.298-.382-.572-.003-1.143-.015-1.715.004-.4.013-.588.248-.589.664v.305zm-3.57 3.371l.002.022c.39-.03.781-.046 1.168-.097.185-.024.401-.044.385-.365-.009-.176.082-.359.132-.537.096-.344-.2-.736-.537-.711-.348.026-.699.022-1.041.075-.764.119-1.082.26-1.002 1.173.025.277.112.492.446.443.146-.02.298-.003.447-.003z"/>
		<path fill="#010103" d="M77.236 20.386c-.639.57-1.446.683-1.963 1.275-.163.187-.35.354-.53.527-.196.19-.752.16-1.084-.018-.28-.15-.594-.238-.876-.384-.22-.113-.405-.29-.622-.41-1.493-.826-2.703-2.006-3.968-3.117-.134-.118-.26-.26-.416-.334-.107-.05-.308-.06-.387.007-.3.254-.552.564-.852.82-.534.455-1.077.9-1.637 1.323-.497.375-1.021.715-1.533 1.072-.017.012-.028.036-.046.043-1.17.439-2.174 1.25-3.43 1.498-.284.056-.552.19-.834.26-.181.044-.375.036-.563.052l-.036-.13c.206-.102.412-.202.616-.307 1.05-.539 2.111-1.057 3.142-1.628a12.122 12.122 0 001.631-1.103c.419-.33.776-.739 1.15-1.122a40.7 40.7 0 001.042-1.11c.343-.38.648-.79.545-1.342a28.069 28.069 0 00-.379-1.73c-.2-.794-.41-1.585-.644-2.368-.075-.249-.241-.47-.394-.756-.532.53-1.057.96-1.463 1.48-.428.549-.546.475-1.042.2-.179-.1-.336-.237-.585-.415.275-.17.494-.295.703-.437.202-.138.392-.296.59-.44.26-.19.502-.437.793-.551.562-.221.79-.646.888-1.182.057-.317.104-.638.128-.959.014-.187.099-.227.264-.23.434-.007.893.427 1.026.96.046.185.013.27-.151.399-.366.288-.519.608-.28 1.145.413.93.83 1.86 1.433 2.7.339.47.783.337.978-.055.281-.566.546-1.14.805-1.717.267-.595.53-1.192.774-1.796.1-.246.14-.515.218-.77.114-.377.234-.75.356-1.124.051-.158.113-.312.166-.468.148-.431.056-.606-.412-.6-1.115.017-2.23.076-3.344.117-.16.005-.32.004-.48.003-1.088-.009-2.151.157-3.206.41-.597.145-1.206.238-1.799.395a32.12 32.12 0 00-1.931.598c-.252.084-.427.03-.56-.186-.256-.416-.513-.832-.762-1.252-.098-.164 0-.276.156-.277.51 0 1.019.027 1.528.038.447.01.895.013 1.342.02.117 0 .237-.016.351.002.417.065.825.128 1.17-.22.057-.057.201-.03.306-.037.808-.062 1.625-.07 2.422-.2.802-.131 1.258-.92 1.103-1.713-.05-.255-.059-.52-.13-.767-.155-.532-.34-1.046-.901-1.32-.128-.062-.201-.237-.3-.36.138-.095.262-.224.413-.278a23.2 23.2 0 011.483-.47c.388-.109.744-.018 1.113.164.433.213.914.328 1.372.492.135.048.268.11.39.186.288.18.264.303-.007.53-.3.249-.575.53-.837.819-.081.088-.117.244-.122.37-.022.572-.055 1.145-.026 1.715.018.342.328.562.678.575.256.009.513-.01.769.005.557.033 1.112.1 1.67.119.53.017.94-.252 1.315-.608.423-.403.873-.777 1.33-1.18.452.397.843.737 1.23 1.082.28.249.564.493.825.76.283.29.265.672.232 1.036-.017.193-.412.38-.65.301-.832-.275-1.687-.39-2.561-.441-.795-.047-1.585-.175-2.38-.24-.388-.031-.406.039-.257.385.269.626.881.923 1.313 1.39.05.052.118.086.18.126.49.326.496.613.019.955-.254.183-.53.34-.762.547-.127.113-.188.302-.273.46-.16.299-.303.606-.475.897-.27.456-.536.917-.845 1.347-.463.643-.966 1.257-1.442 1.892-.067.09-.142.255-.104.331.272.535.621 1.044 1.159 1.314.324.163.633.336.944.52.482.285 1.008.496 1.518.732.757.35 1.498.739 2.278 1.027.659.243 1.365.363 2.047.548.133.038.252.121.377.183zm-39.001-3.393c.058-.479.133-.958.171-1.441.035-.44.028-.88-.214-1.28-.21-.349-.413-.414-.771-.184-.335.214-.633.485-.971.695-.721.446-1.459.864-2.185 1.3-.46.277-.91.57-1.37.847-.172.104-.366.173-.541.274-.862.499-1.718 1.01-2.584 1.5-.178.1-.397.127-.609.191-.075-.259-.017-.383.174-.504.891-.56 1.794-1.108 2.644-1.725.525-.382.98-.865 1.438-1.331.447-.455.86-.943 1.284-1.42.223-.25.46-.49.648-.764.122-.178.189-.403.24-.615.038-.158-.228-.323-.432-.282-.8.16-1.595.342-2.399.479-.468.08-.948.085-1.422.132-.267.027-.532.09-.8.104-.128.007-.296-.02-.386-.1-.249-.218-.498-.45-.688-.719-.179-.25-.065-.409.259-.428.336-.02.674-.02 1.01-.052.676-.065 1.35-.16 2.028-.216.478-.04.96-.03 1.439-.05.26-.01.521-.018.777-.058.425-.065.478-.139.485-.566.01-.513.073-1.033.016-1.538-.12-1.062-.303-2.117-.464-3.174-.033-.212-.158-.286-.385-.3-.506-.033-.976.1-1.464.195-.595.116-1.229.278-1.824-.051-.262-.144-.568-.258-.599-.627.982.148 1.914-.1 2.856-.176a2.62 2.62 0 01.56.008c.379.048.553-.171.684-.47.28-.636.152-1.277-.059-1.881-.082-.236-.417-.383-.63-.578-.072-.066-.176-.157-.17-.229.005-.07.128-.178.208-.185.217-.022.45-.04.658.014.538.137 1.067.311 1.598.478.316.1.41.326.414.649.005.46.052.922.108 1.38.029.23.197.356.437.348.326-.01.652-.05.977-.042.425.01.85.08 1.275.076.475-.005.951-.052 1.424-.106.331-.037.616-.428.635-.872.029-.65.011-1.289-.461-1.823-.124-.14-.192-.352.135-.381.127-.012.26-.067.38-.044.548.104 1.088.246 1.637.34.472.082.85.679.51 1.13-.266.35-.318.77-.292 1.201.022.351.201.475.515.308.275-.145.526-.333.78-.513.251-.176.494-.237.77-.044.378.263.787.487 1.146.773.305.244.226.659-.148.81-.254.104-.54.18-.81.177a9.827 9.827 0 01-1.452-.14c-.427-.07-.903.348-.906.843-.003.384-.013.768-.02 1.153-.011.679-.012 1.358-.04 2.036a5.295 5.295 0 01-.13.889c-.081.378.08.674.466.776.342.089.686.215 1.033.23.343.016.69-.101 1.038-.133.576-.052.983-.475 1.504-.643.053-.017.131-.033.17-.008.545.362 1.078.737 1.385 1.345.133.265.148.508-.034.756-.146.198-.54.367-.84.215-.714-.362-1.503-.25-2.24-.43-.112-.028-.213-.1-.323-.134-.116-.035-.238-.052-.357-.074-.2-.037-.398-.089-.599-.103a2.772 2.772 0 00-.576.024c-.283.04-.564.1-.839.15.043.364.233.533.502.7.491.305.927.7 1.41 1.019.379.249.792.448 1.197.656.37.191.738.403 1.13.537.464.16.954.241 1.431.364.123.031.244.079.357.136.443.224.472.624.045.891a5.478 5.478 0 01-.84.402c-.494.203-.99.397-1.495.57a.446.446 0 01-.371-.063c-.381-.333-.726-.708-1.11-1.036-.284-.243-.612-.433-.914-.655-.074-.055-.124-.144-.184-.218-.14-.17-.273-.346-.42-.51-.35-.395-.722-.77-1.052-1.18-.215-.266-.372-.578-.552-.87-.176-.286-.56-.456-.862-.33-.43.182-.842.411-1.27.603-.188.084-.186.192-.093.33.204.306.118.608.057.94-.1.538-.18 1.095-.149 1.638.029.49.453.639.98.578a5.583 5.583 0 001.949-.619c.302-.156.752.075.922.465.086.193.158.4.19.608.042.27-.054.55-.397.58a4.951 4.951 0 01-1.122-.025c-.686-.1-1.354-.11-2.025.095-.229.07-.294.18-.29.392.011.804.017 1.609.024 2.413.001.106-.003.211-.004.285.418.007.852.044 1.282.016.732-.048 1.461-.167 2.194-.193a2.486 2.486 0 001.042-.28c.144-.07.302-.14.41-.253.584-.616 1.132-.411 1.642-.014.329.258.587.611.855.94.163.2.1.48-.138.607-.425.228-.852.482-1.37.393-.38-.065-.755-.155-1.136-.213-.427-.064-.858-.13-1.29-.15-1.28-.059-2.562-.14-3.842-.123-.952.014-1.9.19-2.854.251-.57.037-1.15-.042-1.72-.008-.457.028-.912.135-1.363.227-.63.127-1.253.282-1.882.402a.414.414 0 01-.33-.122c-.22-.264-.413-.55-.609-.833-.133-.192-.059-.33.149-.386a2.61 2.61 0 01.51-.079c.574-.038 1.148-.08 1.722-.092.325-.006.65.066.974.068.974.006 1.949.01 2.922-.023.217-.008.425-.182.645-.262.299-.11.237-.398.27-.6a4.25 4.25 0 00-.146-1.993c-.082-.26-.245-.291-.474-.27-.83.076-1.659.16-2.49.208-.424.024-.872-.394-.904-.808-.006-.08.072-.203.145-.243.128-.068.282-.115.427-.123.772-.04 1.544-.06 2.316-.1.234-.012.464-.077.698-.092.137-.008.273.037.419.06zm.608-7.18l-.002-.03c-.417-.007-.834-.02-1.252-.02-.319 0-.528.197-.56.507-.049.46.251 1.009.694 1.103.418.089.86.08 1.29.08.39 0 .795-.125 1.164-.051.468.094.876-.026 1.297-.14.472-.129.587-.291.587-.786 0-.946.025-1.893-.026-2.837-.036-.668-.19-1.33-.276-1.996-.046-.356-.28-.349-.546-.336-.694.035-1.39.076-2.084.084-.402.004-.808-.101-1.205-.07-.9.07-1.066.15-.993.955.015.16.059.37.169.46.314.261.716.42 1.115.335.734-.157 1.462-.276 2.21-.183.115.015.318.115.313.153-.019.138-.089.366-.176.383-.472.094-.955.177-1.435.183-.462.006-.925-.118-1.39-.127-.548-.01-.882.312-.844.749.013.149.017.309.078.44.089.192.124.436.443.44.955.015 1.912.082 2.827-.303.103-.042.303-.008.38.068.353.35.248.774-.247.859-.5.084-1.02.058-1.531.08zm-1.674 2.17c-.104.317.06.597.295.803.521.46 1.162.66 1.847.745.349.044.559-.076.575-.422.037-.742.214-.965-.655-1.097-.281-.042-.574-.006-.861-.01-.389-.004-.777-.012-1.201-.02zm-9.957 7.779c.115-.155.168-.284.26-.338.35-.207.71-.404 1.08-.57.103-.046.255.028.384.048-.048.128-.065.336-.149.372-.387.168-.792.29-1.193.422-.09.03-.187.033-.382.066z"/>
		<path fill="#010100" d="M10.132 9.159c-.16.122-.286.211-.404.31-.403.343-.793.701-1.21 1.026-.098.077-.279.044-.422.062.002-.15-.053-.336.015-.443.237-.378.553-.707.77-1.094.382-.682.694-1.405 1.071-2.09.377-.687.817-1.337 1.19-2.025.15-.276.18-.616.29-.917.13-.357.282-.677.043-1.075-.162-.271.023-.477.352-.49a.886.886 0 00.26-.04c.58-.21.735-.168 1.12.295.239.286.48.57.733.845.422.46.433.553.003 1.026-.228.25-.494.465-.721.717-.115.128-.164.316-.274.452-.247.306-.517.593-.769.895-.092.11-.178.234-.234.365-.1.234.004.402.24.405.752.01 1.505.001 2.257-.029.108-.005.233-.157.311-.27.145-.21.262-.442.39-.666.006-.01.011-.022.02-.029.547-.454.41-1.178.665-1.747.054-.122.082-.261.155-.37.116-.17.112-.307.012-.49-.147-.27-.021-.442.296-.438.55.007.934.37 1.352.659.156.107.301.231.461.331.455.283.43.577.048.937-.428.403-.8.878-1.145 1.36-.209.29-.07.508.286.516a.937.937 0 00.866-.472c.123-.199.267-.385.394-.564.69.149 1.112.638 1.528 1.12.072.084.09.304.032.393-.091.142-.257.296-.412.32-.285.047-.585.009-.878-.004-.625-.027-1.243-.023-1.856.155-.262.076-.556.025-.828.075-.098.02-.244.165-.248.257-.028.678-.092 1.36.128 2.025.152.459.452.618 1 .458.314-.092.613-.236.91-.377.073-.035.096-.166.164-.226.15-.133.298-.297.477-.362.224-.081.417.022.531.266.054.115.167.208.27.289.304.237.41.635.254.993-.14.32-.491.467-.843.444a20.529 20.529 0 00-1.697-.025c-.218.004-.434.083-.653.108-.277.032-.424.179-.432.46-.012.401-.027.803-.024 1.205.003.414.26.671.66.684.135.004.273-.009.406.01.445.065.762-.131 1.011-.486.077-.11.163-.216.257-.31.306-.306.673-.268.948.078.109.137.253.247.353.39.075.107.106.246.157.371l-.073.055.258.057c-.031.212.083.474-.237.522-.117.018-.243-.025-.398-.045-.32.065-.69.173-1.066.21-.598.061-1.201.064-1.802.114-.415.034-.566.257-.527.651.049.487.072.978.105 1.466.038.553.14.712.746.794.97.132 1.59-.36 2.152-1.03.237-.283.504-.326.756-.075.445.441.878.895 1.33 1.33.146.14.133.247.034.402-.241.379-.532.628-1.02.529a5.628 5.628 0 00-1.018-.138c-.316-.005-.633.07-.95.107-.685.081-1.367.171-2.05-.04-.165-.05-.359-.024-.536-.005-.266.029-.507.14-.8.004-.175-.08-.442.06-.67.078-.544.042-1.089.083-1.634.1-.412.014-.405.017-.403.43.002.277-.088.553-.121.83-.025.205-.023.413-.036.62-.005.08-.002.163-.029.235-.25.66-1.362.852-1.774.297-.078-.104-.097-.28-.09-.42.061-1.138.128-2.275.206-3.412.044-.645.147-1.287.166-1.932.059-1.974.091-3.95.129-5.924.009-.361-.04-.713-.284-1.073zm3.893.488c.005-.252.012-.503.016-.755.006-.405-.241-.63-.632-.582-.329.042-.665.051-.986.127-.194.046-.48.156-.523.3a3.118 3.118 0 00-.105 1.074c.028.453.053.986.594 1.12.38.095.802.066 1.198.022.288-.033.45-.255.427-.586-.016-.238.006-.48.01-.72zm-2.093 6.08c-.014.648-.025 1.242-.04 1.837-.007.353.144.6.497.63.297.026.6-.026.901-.033.59-.013.716-.264.712-.845-.002-.445.018-.891.026-1.337.006-.408-.151-.56-.55-.503-.51.072-1.018.164-1.546.25zm1.433-3.562c-.323.016-.648.014-.967.06a.493.493 0 00-.328.227c-.255.523-.196 1.071-.067 1.617.085.357.355.496.667.482a6.263 6.263 0 001.239-.181c.142-.036.329-.234.345-.376a3.98 3.98 0 00-.023-1.088c-.112-.676-.198-.727-.866-.741zm-8.947 8.922c-.474-.112-.494-.433-.48-.798.032-.797.039-1.596.056-2.394l.06-2.88.312.164c-.062-.159-.08-.304-.16-.391-.232-.255-.287-.544-.271-.874a2.844 2.844 0 00-.06-.636c-.044-.251-.249-.226-.425-.187-.206.045-.403.135-.61.177-.442.091-.888.2-1.336.225-.176.01-.388-.157-.542-.29-.35-.303-.465-.735-.512-1.171-.038-.351.226-.573.608-.584.303-.01.61-.007.907-.06.122-.022.222-.176.329-.274.05-.045.088-.103.136-.15.714-.71 1.437-1.41 2.14-2.13.194-.196.344-.441.489-.678.028-.047-.034-.216-.089-.237a23.81 23.81 0 00-1.288-.443c-.433-.137-.876-.244-1.307-.388-.396-.132-.478-.392-.23-.736.228-.318.522-.592.73-.922.491-.782.963-1.577 1.411-2.386a1.48 1.48 0 00.158-.743c-.01-.237-.147-.466-.211-.705-.022-.082-.02-.234.026-.261.278-.17.58-.033.866.17.768.546 1.055 1.464 1.7 2.104.159.158.125.418-.076.6-.471.427-.955.841-1.403 1.291-.243.243-.424.546-.627.826-.15.21-.05.366.159.401.354.06.716.082 1.077.09.076.001.192-.112.228-.198.145-.348.265-.707.397-1.062.038-.104.07-.215.132-.304.067-.095.165-.167.25-.25.083.092.167.183.248.277.021.025.03.061.05.086.306.367.605.74.921 1.098.31.35.323.579-.033.89-.243.212-.53.373-.79.566-.479.355-.937.745-1.199 1.288-.249.515-.726.785-1.106 1.159-.213.209-.468.38-.658.608-.09.107-.145.353-.083.45.08.125.303.239.451.225.407-.039.808-.147 1.21-.228.229-.046.296-.137.248-.402-.058-.327-.001-.675.009-1.145.237.196.454.3.554.471.359.612.953.98 1.438 1.458.222.22.463.438.621.701.068.113.001.384-.1.504-.246.296-.54.555-.83.812-.308.273-.912.043-1.088-.37-.125-.294-.301-.565-.468-.838-.112-.183-.275-.212-.468-.108-.175.095-.375.155-.533.271-.19.138-.23.302-.13.566.168.44.281.915.333 1.383.062.56.07 1.133.038 1.697-.07 1.255.1 2.507.006 3.763-.042.562.03 1.132.016 1.698a1.878 1.878 0 01-.164.71c-.19.416-.423.484-.788.18-.269-.224-.445-.583-.592-.912-.084-.19-.075-.456.215-.568.043-.02.066-.106.128-.206zm-2.871-6.264c.128.195.277.38.38.588.316.642.631 1.287.908 1.945.06.144.011.38-.075.525a38.11 38.11 0 01-1.29 2.053c-.313.46-.835.55-1.23.286-.238-.158-.29-.329-.195-.605.392-1.129.768-2.262 1.123-3.4.114-.366.146-.755.216-1.134.014-.073.032-.147.048-.22l.115-.038zm4.735.55c.12-.17.2-.393.329-.432.133-.041.37.044.466.162.42.514.952.864 1.479 1.222.616.42.668.867.15 1.43-.108.116-.183.268-.278.4-.133.183-.593.222-.657-.082-.077-.363-.38-.5-.505-.796-.103-.242-.243-.466-.371-.695-.12-.211-.254-.413-.366-.628-.087-.17-.151-.353-.247-.582z"/>
	</g>
</svg>
