<?xml version="1.0" encoding="UTF-8" standalone="no"?>
<svg xmlns="http://www.w3.org/2000/svg" width="410" height="76">
	<g font-family="Linux Libertine" font-size="109.694" font-weight="400" letter-spacing="0" text-anchor="middle" word-spacing="0" style="line-height:125%;-inkscape-font-specification:'Linux Libertine';text-align:center">
		<path d="M18.203 7.945v20.97h7.644c9.755 0 14.633-3.94 14.633-11.818 0-4.727-1.341-8.171-4.023-10.334-2.682-2.162-5.783-3.243-9.303-3.243-2.95 0-5.054.15-6.31.453-1.258.301-2.012.712-2.264 1.232-.251.52-.377 1.433-.377 2.74zm0 24.49V56.52c0 4.593 2.85 6.906 8.549 6.94 7.207 0 12.102-1.224 14.683-3.672 2.581-2.447 3.872-5.833 3.872-10.157 0-5.029-1.668-9.152-5.003-12.37-3.336-3.219-8.34-4.828-15.01-4.828zM13.778.2c1.509 0 3.738-.033 6.688-.1 2.95-.066 5.012-.1 6.185-.1 14.75 0 22.126 5.28 22.126 15.84 0 2.682-.939 5.263-2.816 7.744-1.877 2.48-4.19 4.408-6.94 5.783v.2c4.794 1.375 8.633 3.571 11.516 6.588 2.883 3.017 4.324 6.856 4.324 11.516 0 2.413-.41 4.685-1.232 6.813-.821 2.129-2.154 4.157-3.997 6.085-1.844 1.927-4.534 3.453-8.071 4.576-3.537 1.123-7.752 1.684-12.647 1.684-3.42 0-6.503-.033-9.252-.1-2.75-.067-4.677-.1-5.783-.1-2.213 0-6.671.066-13.376.2C.168 66.561 0 66.016 0 65.195s.168-1.4.503-1.735c3.855-.134 6.31-.704 7.367-1.71 1.056-1.005 1.584-3.57 1.584-7.693V12.772c0-4.123-.528-6.679-1.584-7.668-1.056-.989-3.512-1.55-7.367-1.685C.168 3.151 0 2.6 0 1.76 0 .922.168.335.503 0 7.375.134 11.8.201 13.778.201z" font-size="174.82"/>
		<path d="M67.24 58.567c0 2.644.33 4.283.989 4.917.658.634 2.16 1.005 4.507 1.113.165.215.252.586.263 1.112.01.527-.077.876-.263 1.048-4.22-.086-6.936-.129-8.15-.129-1.36 0-4.097.043-8.213.13-.206-.173-.31-.522-.31-1.049 0-.526.104-.897.31-1.112 2.367-.086 3.874-.452 4.523-1.097.648-.644.972-2.289.972-4.933V32.094c0-2.645-.324-4.284-.972-4.918-.649-.634-2.156-.994-4.523-1.08-.206-.172-.31-.527-.31-1.064 0-.538.104-.914.31-1.129 4.22.086 6.936.13 8.15.13 1.36 0 4.097-.044 8.213-.13.165.215.252.586.263 1.113.01.526-.077.886-.263 1.08-2.367.086-3.875.446-4.523 1.08-.648.634-.972 2.273-.972 4.918zm7.843 8.061v-1.257c0-.344.144-.516.432-.516l1.698-.13c1.297-.085 2.192-.338 2.686-.757.494-.42.741-1.091.741-2.015V28.708c0-.968-.252-1.645-.756-2.032-.505-.387-1.395-.634-2.67-.741l-1.637-.13c-.33 0-.494-.171-.494-.515v-1.258l.123-.129c4.22.086 6.963.13 8.228.13 1.266 0 3.957-.044 8.074-.13l.124.13v1.257c0 .344-.165.516-.494.516l-1.637.129c-1.255.086-2.15.338-2.686.757-.535.42-.803 1.091-.803 2.016v13.736c3.335 0 5.548-.322 6.639-.967 1.646-.924 2.83-2.225 3.55-3.902.72-1.676 1.266-3.73 1.636-6.159.803-5.202 3.273-7.792 7.41-7.77 1.524 0 2.65.349 3.381 1.047.73.699 1.096 1.489 1.096 2.37 0 .882-.272 1.543-.818 1.983-.545.441-1.199.661-1.96.661a3.122 3.122 0 01-2.347-1c-.68-.709-1.348-1.053-2.007-1.031-.597 0-1.086.231-1.466.693-.381.462-.644.935-.788 1.419-.144.484-.278 1.145-.401 1.983-1.091 6.428-3.365 10.297-6.823 11.608v.323c2.1 0 3.823.629 5.171 1.886 1.348 1.258 2.465 3.123 3.35 5.595 1.606 4.32 3.175 7.647 4.708 9.98 1.534 2.332 2.877 3.541 4.03 3.627l.988.065c.329 0 .504.172.525.516v1.257l-.062.13-5.002-.065c-2.244-.043-4.05-1.075-5.418-3.096-1.37-2.02-2.877-5.213-4.524-9.577-.926-2.515-1.713-4.299-2.362-5.352-.648-1.054-1.636-1.892-2.964-2.516-1.327-.623-3.175-.935-5.542-.935v16.736c0 .967.253 1.65.757 2.047.504.398 1.415.64 2.732.726l1.637.129c.329 0 .494.172.494.516v1.257l-.124.13c-2.017-.087-4.693-.13-8.027-.13-3.458 0-6.216.043-8.275.13zm49.214-8.061c0 2.644.33 4.283.988 4.917.659.634 2.161 1.005 4.508 1.113.165.215.252.586.262 1.112.01.527-.077.876-.262 1.048-4.22-.086-6.937-.129-8.151-.129-1.359 0-4.096.043-8.213.13-.206-.173-.308-.522-.308-1.049 0-.526.102-.897.308-1.112 2.367-.086 3.875-.452 4.523-1.097.649-.644.973-2.289.973-4.933V32.094c0-2.645-.324-4.284-.973-4.918-.648-.634-2.156-.994-4.523-1.08-.206-.172-.308-.527-.308-1.064 0-.538.102-.914.308-1.129 4.22.086 6.937.13 8.151.13 1.359 0 4.096-.044 8.213-.13.165.215.252.586.262 1.113.01.526-.077.886-.262 1.08-2.367.086-3.875.446-4.523 1.08-.649.634-.973 2.273-.973 4.918zm7.843 8.061v-1.257c0-.344.143-.516.432-.516l1.698-.13c1.296-.085 2.192-.338 2.686-.757.494-.42.74-1.091.74-2.015V28.708c0-.968-.251-1.645-.756-2.032-.504-.387-1.394-.634-2.67-.741l-1.637-.13c-.329 0-.494-.171-.494-.515v-1.258l.124-.129c4.22.086 6.962.13 8.228.13s3.957-.044 8.074-.13l.123.13v1.257c0 .344-.164.516-.494.516l-1.636.129c-1.256.086-2.151.338-2.686.757-.535.42-.803 1.091-.803 2.016v13.736c3.335 0 5.547-.322 6.638-.967 1.647-.924 2.83-2.225 3.55-3.902.721-1.676 1.267-3.73 1.637-6.159.803-5.202 3.273-7.792 7.41-7.77 1.523 0 2.65.349 3.38 1.047.732.699 1.097 1.489 1.097 2.37 0 .882-.273 1.543-.818 1.983-.546.441-1.2.661-1.96.661a3.122 3.122 0 01-2.347-1c-.68-.709-1.349-1.053-2.007-1.031-.597 0-1.086.231-1.467.693-.38.462-.643.935-.787 1.419-.144.484-.278 1.145-.401 1.983-1.091 6.428-3.366 10.297-6.824 11.608v.323c2.1 0 3.824.629 5.172 1.886 1.348 1.258 2.465 3.123 3.35 5.595 1.605 4.32 3.175 7.647 4.708 9.98 1.534 2.332 2.877 3.541 4.03 3.627l.987.065c.33 0 .505.172.525.516v1.257l-.062.13-5.001-.065c-2.244-.043-4.05-1.075-5.419-3.096-1.369-2.02-2.876-5.213-4.523-9.577-.926-2.515-1.714-4.299-2.362-5.352-.648-1.054-1.636-1.892-2.964-2.516-1.328-.623-3.175-.935-5.542-.935v16.736c0 .967.252 1.65.756 2.047.505.398 1.416.64 2.733.726l1.636.129c.33 0 .494.172.494.516v1.257l-.123.13c-2.017-.087-4.693-.13-8.028-.13-3.458 0-6.216.043-8.274.13zm49.09-36.598v15.413c.762.215 2.367.323 4.817.323 3.128 0 5.48-.807 7.055-2.419 1.574-1.612 2.362-4.149 2.362-7.61 0-3.826-.803-6.438-2.409-7.835-1.605-1.398-3.715-2.096-6.329-2.096-3.664 0-5.496 1.408-5.496 4.224zm-5.372 2.064c0-2.645-.324-4.284-.972-4.918-.649-.634-2.157-.994-4.524-1.08-.205-.172-.308-.527-.308-1.064 0-.538.103-.914.308-1.129 4.22.086 6.937.13 8.151.13.927 0 2.486-.076 4.678-.227 2.192-.15 3.525-.225 3.998-.225 2.738 0 5.094.37 7.07 1.112 1.976.742 3.448 1.72 4.416 2.935.967 1.214 1.651 2.38 2.053 3.498.401 1.118.602 2.257.602 3.418 0 1.548-.252 3.058-.757 4.53-.504 1.473-1.291 2.903-2.362 4.29-1.07 1.386-2.63 2.504-4.677 3.353-2.048.849-4.44 1.273-7.178 1.273-2.1 0-3.808-.214-5.126-.644v11.22c0 2.602.402 4.22 1.204 4.854.803.634 2.553 1.026 5.25 1.177.205.215.308.586.308 1.112 0 .527-.103.876-.309 1.048-4.22-.086-7.255-.129-9.108-.129-1.358 0-4.096.043-8.213.13-.205-.173-.308-.522-.308-1.049 0-.526.103-.897.308-1.112 2.367-.086 3.875-.452 4.524-1.097.648-.644.972-2.289.972-4.933zm70.827 26.408c0 2.645.33 4.284.988 4.918.658.634 2.161.994 4.508 1.08.164.172.252.527.262 1.064.01.538-.077.914-.262 1.129-4.22-.086-6.937-.13-8.151-.13-1.359 0-4.096.044-8.213.13-.206-.215-.309-.586-.309-1.113 0-.526.103-.886.309-1.08 2.367-.086 3.875-.446 4.523-1.08.648-.634.973-2.273.973-4.918V32.03c0-2.644-.325-4.283-.973-4.917-.648-.634-2.156-1.005-4.523-1.113-.206-.215-.309-.586-.309-1.112 0-.527.103-.876.309-1.048 4.22.086 6.936.129 8.15.129 1.36 0 4.097-.043 8.214-.13.164.173.252.522.262 1.049.01.526-.077.897-.262 1.112-2.368.086-3.875.452-4.524 1.097-.648.644-.972 2.289-.972 4.933zm-28.25 6.095c2.284 0 4.224-.323 5.82-.968 1.595-.644 2.793-1.504 3.596-2.58.803-1.074 1.364-2.144 1.683-3.208.319-1.064.478-2.165.478-3.305 0-2.515-.833-4.794-2.5-6.836-1.668-2.042-4.313-3.063-7.935-3.063h-4.755v15.51c0 2.967 1.204 4.45 3.612 4.45zm-8.985-6.03V32.094c0-2.645-.324-4.284-.973-4.918-.648-.634-2.156-.994-4.523-1.08-.206-.172-.309-.527-.309-1.064 0-.538.103-.914.31-1.129 4.219.086 6.936.13 8.15.13 1.359 0 4.096-.044 8.213-.13.164.215.247.586.247 1.113 0 .526-.083.886-.247 1.08-2.367.086-3.875.446-4.523 1.08-.649.634-.973 2.273-.973 4.918v9.899h5.558c2.243 0 4.23.166 5.958.5 1.73.333 3.14.817 4.23 1.45 1.091.635 2.007 1.328 2.748 2.08a7.092 7.092 0 011.652 2.677c.36 1.032.602 1.988.725 2.87.124.881.186 1.87.186 2.966 0 4.364-1.4 7.492-4.2 9.384-2.799 1.891-7.255 2.837-13.368 2.837-.803 0-1.878-.021-3.226-.064a104.165 104.165 0 00-2.918-.065c-1.359 0-4.096.043-8.213.13-.206-.173-.309-.522-.309-1.049 0-.526.103-.897.31-1.112 2.366-.086 3.874-.452 4.522-1.097.649-.644.973-2.289.973-4.933zm82.775 0c0 2.644.324 4.283.973 4.917.648.634 2.156 1.005 4.523 1.113.206.215.309.586.309 1.112 0 .527-.103.876-.31 1.048-4.219-.086-6.936-.129-8.15-.129-1.359 0-4.106.043-8.244.13-.164-.173-.247-.522-.247-1.049 0-.526.083-.897.247-1.112 2.367-.086 3.88-.452 4.539-1.097.659-.644.988-2.289.988-4.933V45.443H265.21v13.124c0 2.644.33 4.283.988 4.917.658.634 2.161 1.005 4.507 1.113.165.215.253.586.263 1.112.01.527-.077.876-.263 1.048-4.22-.086-6.936-.129-8.15-.129-1.359 0-4.097.043-8.213.13-.206-.173-.309-.522-.309-1.049 0-.526.103-.897.309-1.112 2.367-.086 3.875-.452 4.523-1.097.648-.644.973-2.289.973-4.933V32.094c0-2.645-.325-4.284-.973-4.918-.648-.634-2.156-.994-4.523-1.08-.206-.172-.309-.527-.309-1.064 0-.538.103-.914.309-1.129 4.22.086 6.936.13 8.15.13 1.36 0 4.097-.044 8.213-.13.165.215.253.586.263 1.113.01.526-.077.886-.263 1.08-2.367.086-3.874.446-4.523 1.08-.648.634-.972 2.273-.972 4.918V42.67h21.643V32.094c0-2.645-.33-4.284-.988-4.918-.659-.634-2.172-.994-4.539-1.08-.164-.172-.247-.527-.247-1.064 0-.538.083-.914.247-1.129 4.22.086 6.947.13 8.182.13 1.359 0 4.096-.044 8.213-.13.206.215.309.586.309 1.113 0 .526-.103.886-.31 1.08-2.366.086-3.874.446-4.522 1.08-.649.634-.973 2.273-.973 4.918zm19.173 0c0 2.644.33 4.283.988 4.917.66.634 2.162 1.005 4.508 1.113.165.215.252.586.263 1.112.01.527-.078.876-.263 1.048-4.22-.086-6.936-.129-8.15-.129-1.36 0-4.097.043-8.213.13-.206-.173-.31-.522-.31-1.049 0-.526.104-.897.31-1.112 2.367-.086 3.874-.452 4.523-1.097.648-.644.972-2.289.972-4.933V32.094c0-2.645-.324-4.284-.972-4.918-.649-.634-2.156-.994-4.523-1.08-.206-.172-.31-.527-.31-1.064 0-.538.104-.914.31-1.129 4.22.086 6.936.13 8.15.13 1.359 0 4.097-.044 8.213-.13.165.215.252.586.263 1.113.01.526-.078.886-.263 1.08-2.367.086-3.875.446-4.523 1.08-.648.634-.973 2.273-.973 4.918zm41.99-26.473v26.473c0 1.72.17 3.031.51 3.934.34.903.674 1.45 1.003 1.644.33.194.834.344 1.513.452 1.173.172 1.811.602 1.914 1.29.247 3.16.37 6.513.37 10.06-.72.58-1.42.602-2.099.065-.514-2.602-1.538-4.816-3.072-6.643-1.533-1.827-3.432-2.74-5.696-2.74h-20.625c-1.358 0-4.096.042-8.212.128-.165-.172-.252-.521-.263-1.048-.01-.526.077-.897.263-1.112 2.367-.086 3.874-.452 4.523-1.097.648-.644.972-2.289.972-4.933V32.094c0-2.645-.329-4.284-.988-4.918-.658-.634-2.16-.994-4.507-1.08-.165-.172-.252-.527-.263-1.064-.01-.538.077-.914.263-1.129 4.22.086 6.936.13 8.15.13 1.36 0 4.097-.044 8.213-.13.206.215.309.586.309 1.113 0 .526-.103.886-.309 1.08-2.367.086-3.875.446-4.523 1.08-.648.634-.972 2.273-.972 4.918V60.76c0 1.01.262 1.81.787 2.402.525.591 1.25.887 2.177.887h12.843c1.05 0 1.704-.285 1.961-.855.257-.57.386-2.112.386-4.627V32.094c0-2.645-.33-4.284-.988-4.918-.659-.634-2.161-.994-4.508-1.08-.164-.172-.252-.527-.262-1.064-.01-.538.077-.914.262-1.129 4.22.086 6.937.13 8.151.13 1.359 0 4.096-.044 8.213-.13.206.215.309.586.309 1.113 0 .526-.103.886-.31 1.08-2.366.086-3.874.446-4.522 1.08-.649.634-.973 2.273-.973 4.918zm51.129 26.408c0 2.645.33 4.284.988 4.918.658.634 2.161.994 4.508 1.08.164.172.252.527.262 1.064.01.538-.077.914-.262 1.129-4.22-.086-6.937-.13-8.151-.13-1.359 0-4.096.044-8.213.13-.206-.215-.309-.586-.309-1.113 0-.526.103-.886.309-1.08 2.367-.086 3.875-.446 4.523-1.08.648-.634.973-2.273.973-4.918V32.03c0-2.644-.325-4.283-.973-4.917-.648-.634-2.156-1.005-4.523-1.113-.206-.215-.309-.586-.309-1.112 0-.527.103-.876.309-1.048 4.22.086 6.936.129 8.15.129 1.36 0 4.097-.043 8.214-.13.164.173.252.522.262 1.049.01.526-.077.897-.262 1.112-2.368.086-3.875.452-4.524 1.097-.648.644-.972 2.289-.972 4.933zm-28.25 6.095c2.284 0 4.224-.323 5.82-.968 1.594-.644 2.793-1.504 3.596-2.58.803-1.074 1.364-2.144 1.683-3.208.319-1.064.478-2.165.478-3.305 0-2.515-.833-4.794-2.5-6.836-1.668-2.042-4.313-3.063-7.935-3.063h-4.755v15.51c0 2.967 1.204 4.45 3.612 4.45zm-8.985-6.03V32.094c0-2.645-.324-4.284-.973-4.918-.648-.634-2.156-.994-4.523-1.08-.206-.172-.309-.527-.309-1.064 0-.538.103-.914.31-1.129 4.219.086 6.936.13 8.15.13 1.359 0 4.096-.044 8.213-.13.164.215.247.586.247 1.113 0 .526-.083.886-.247 1.08-2.367.086-3.875.446-4.523 1.08-.649.634-.973 2.273-.973 4.918v9.899h5.558c2.243 0 4.23.166 5.958.5 1.73.333 3.14.817 4.23 1.45 1.091.635 2.007 1.328 2.748 2.08A7.092 7.092 0 01392.8 48.7c.36 1.032.602 1.988.725 2.87.124.881.186 1.87.186 2.966 0 4.364-1.4 7.492-4.2 9.384-2.799 1.891-7.255 2.837-13.368 2.837-.803 0-1.878-.021-3.227-.064-1.348-.043-2.32-.065-2.917-.065-1.359 0-4.096.043-8.213.13-.206-.173-.309-.522-.309-1.049 0-.526.103-.897.31-1.112 2.366-.086 3.874-.452 4.522-1.097.649-.644.973-2.289.973-4.933z"/>
	</g>
</svg>
