<svg xmlns="http://www.w3.org/2000/svg" width="3744" height="376" fill-rule="evenodd" clip-rule="evenodd" image-rendering="optimizeQuality" shape-rendering="geometricPrecision" text-rendering="geometricPrecision" viewBox="0 0 3744 376">
	<path fill="#696969" fill-rule="nonzero" d="M247.822 143.813L120.382 394.8H76.13L-105 4.959H3.856l97.055 212.69L206.818 4.96h82.6l105.904 212.69L491.79 4.96h108.856L420.106 394.8h-44.251L247.823 143.814zM753.456 4.959v384.879H650.794V4.958zm441.617 0L1060.848 185.69l182.016 204.147h-128.62L951.106 209.38v180.458h-102.66V4.958h102.66V178.25L1082.087 4.959zm194.41 0v384.879H1286.82V4.958zM1703.656 0c70.212 0 127.051 19.835 170.51 59.505 43.465 39.49 65.199 85.502 65.199 138.03 0 53.263-22.03 99.459-66.08 138.579-44.054 39.122-100.598 58.686-169.628 58.686-69.816 0-126.652-19.47-170.51-58.411-43.857-38.936-65.785-85.222-65.785-138.854 0-52.713 21.73-98.815 65.195-138.305C1576.218 19.745 1633.25 0 1703.658 0zm0 314.902c38.941 0 70.31-10.747 94.108-32.234 23.796-21.673 35.695-50.052 35.695-85.133 0-35.265-11.899-63.64-35.695-85.132-23.798-21.488-55.167-32.234-94.108-32.234-39.135 0-70.702 10.746-94.691 32.234-23.798 21.492-35.697 49.867-35.697 85.132 0 35.08 11.899 63.46 35.697 85.133 23.99 21.487 55.556 32.234 94.691 32.234zm314.18-309.943h183.786c41.692 0 74.829 11.296 99.414 33.887 24.585 22.592 36.877 49.314 36.877 80.17 0 31.958-12.193 59.33-36.582 82.1-24.19 22.776-57.228 34.166-99.122 34.166h-81.716v154.556h-102.658zm102.657 70.527v89.267h47.791c42.677 0 64.018-14.878 64.018-44.634 0-16.715-5.705-28.285-17.11-34.712-11.408-6.616-30.878-9.92-58.412-9.92zM2516.39 4.96v384.879h-102.662V4.959zm375.244 24.794v75.215c-54.673-22.961-98.237-34.442-130.688-34.442-18.485 0-33.235 2.94-44.251 8.819-10.816 5.693-16.223 13.313-16.223 22.865 0 7.347 3.934 14.327 11.801 20.94 7.866 6.61 27.042 15.15 57.524 25.622 30.483 10.467 54.871 20.205 73.16 29.203 18.289 8.999 34.023 21.672 47.201 38.021 13.371 16.345 20.06 37.01 20.06 61.987 0 35.631-14.556 64.01-43.66 85.133-28.913 21.123-67.065 31.684-114.463 31.684-51.134 0-100.693-12.398-148.677-37.196v-82.927c27.53 17.265 51.917 29.849 73.16 37.743 21.237 7.9 43.76 11.85 67.556 11.85 40.314 0 60.474-11.85 60.474-35.54 0-8.084-4.032-15.705-12.096-22.871-8.064-7.161-27.534-15.884-58.41-26.172-30.68-10.283-55.068-19.835-73.16-28.653-17.9-8.814-33.436-21.394-46.61-37.743-12.981-16.344-19.47-37.283-19.47-62.816 0-33.058 14.257-59.694 42.776-79.898C2666.15 10.193 2704.307 0 2752.094 0c44.055 0 90.566 9.918 139.54 29.754zM3348.588 4.96v70.527H3199.32v314.352h-102.662V75.486h-149.273V4.96zM3590.49 0c70.21 0 127.05 19.835 170.514 59.505 43.465 39.49 65.195 85.502 65.195 138.03 0 53.263-22.025 99.459-66.08 138.58-44.056 39.12-100.596 58.685-169.63 58.685-69.816 0-126.651-19.47-170.51-58.41-43.858-38.936-65.784-85.223-65.784-138.855 0-52.713 21.73-98.814 65.193-138.305C3463.049 19.746 3520.08 0 3590.488 0zm0 314.902c38.941 0 70.31-10.747 94.106-32.234 23.798-21.673 35.697-50.052 35.697-85.133 0-35.265-11.899-63.64-35.697-85.131-23.796-21.489-55.165-32.235-94.106-32.235-39.137 0-70.703 10.746-94.692 32.235-23.797 21.491-35.697 49.866-35.697 85.131 0 35.081 11.9 63.46 35.697 85.133 23.99 21.487 55.555 32.234 94.692 32.234z"/>
</svg>
