<svg xmlns="http://www.w3.org/2000/svg" width="998" height="1063" version="1.0">
	<rect width="998" height="1063" x="-34.309" y="-939.64" fill="#f9f9f9" fill-rule="evenodd" stroke="#000" stroke-linecap="round" stroke-linejoin="round" stroke-width="1.338" rx="4.991" ry="3.476"/>
	<path fill="#069" fill-rule="evenodd" d="M.377-877.651c.006 6.539-5.31 11.843-11.87 11.843s-11.877-5.304-11.87-11.843c-.006-6.54 5.31-11.843 11.87-11.843S.383-884.19.377-877.651z"/>
	<path fill="#0080ce" fill-rule="evenodd" d="M.377-843.47c.006 6.54-5.31 11.844-11.87 11.844s-11.877-5.304-11.87-11.843c-.006-6.54 5.31-11.843 11.87-11.843S.383-850.008.377-843.47z"/>
	<path fill="#696969" fill-rule="evenodd" d="M.044-808.38c.006 6.54-5.31 11.843-11.87 11.843s-11.876-5.304-11.87-11.843c-.006-6.538 5.31-11.843 11.87-11.843S.05-814.918.044-808.38z"/>
	<g font-family="Arial" font-size="26.491" font-weight="400">
		<text style="line-height:130%;text-align:start" x="396.13" y="-322.977" transform="matrix(1.00179 0 0 .99821 -387.08 -545.373)">
			<tspan x="396.13" y="-322.977">Darkest blue - #006699</tspan>
		</text>
		<text style="line-height:130%;text-align:start" x="396.13" y="-322.977" transform="matrix(1.00179 0 0 .99821 -387.08 -545.373)">
			<tspan x="396.13" y="-288.539">Brightest blue - #0080CE </tspan>
		</text>
		<text style="line-height:130%;text-align:start" x="396.13" y="-322.977" transform="matrix(1.00179 0 0 .99821 -387.08 -545.373)">
			<tspan x="396.13" y="-254.1">Font - #484848</tspan>
		</text>
	</g>
	<text x="-22.124" y="-901.683" font-family="Bitstream Vera Sans" font-size="12" font-weight="400">
		<tspan x="-22.124" y="-901.683" font-family="Arial" font-size="36">Wikiversity Logo</tspan>
	</text>
	<path fill="#696969" fill-rule="evenodd" d="M78.618 62.497l-28.405 60.678h-9.85L0 28.918h24.254l21.629 51.425 23.603-51.425h18.398l23.604 51.425 21.494-51.425h24.254l-40.229 94.257h-9.85L78.619 62.497zM191.16 28.918v93.052h-22.886V28.918zm98.272 0l-29.908 43.696 40.543 49.356h-28.652L235.07 78.343v43.627h-22.885V28.918h22.885v41.9l29.168-41.9zm43.37 0v93.052h-22.885V28.918zm107.719 0l-42.45 94.257h-9.94l-44.425-94.257h24.905l24.254 53.085 23.02-53.085h24.636zm78.214 76.001v17.05h-67.692V28.92h66.772v17.05h-43.908v19.529h41.889v17.05h-41.89v22.371h44.83zm17.5-76h41.015c8.907 0 16.132 2.614 21.696 7.82 5.564 5.229 8.346 11.55 8.346 18.96 0 10.254-5.25 17.847-15.773 22.78 4.645 2.092 9.043 7.798 13.17 17.12 4.151 9.32 8.145 18.118 12.004 26.37H591.52c-1.48-3.068-4.083-8.911-7.785-17.527-3.702-8.594-6.888-14.141-9.536-16.574-2.647-2.432-5.497-3.66-8.503-3.66h-6.574v37.762h-22.886V28.918zm22.886 17.05v21.188h12.093c3.86 0 6.91-.932 9.154-2.773 2.266-1.842 3.388-4.456 3.388-7.889 0-7.002-4.353-10.526-13.08-10.526h-11.555zm130.537-11.05v18.189c-12.183-5.548-21.876-8.344-29.1-8.344-4.129 0-7.404.705-9.828 2.114-2.445 1.387-3.657 3.251-3.657 5.548 0 1.796.875 3.478 2.625 5.07 1.75 1.59 6.035 3.66 12.811 6.206 6.799 2.523 12.229 4.865 16.312 7.048 4.083 2.182 7.583 5.251 10.545 9.184 2.962 3.956 4.442 8.957 4.442 15.005 0 8.593-3.23 15.46-9.692 20.574-6.462 5.093-14.988 7.662-25.533 7.662-11.398 0-22.437-3.001-33.139-9.003V94.12c6.148 4.183 11.577 7.23 16.312 9.14 4.734 1.91 9.737 2.864 15.055 2.864 8.974 0 13.462-2.864 13.462-8.594 0-1.955-.898-3.796-2.693-5.524-1.795-1.75-6.125-3.842-12.99-6.343-6.844-2.478-12.274-4.797-16.29-6.911-4.016-2.137-7.471-5.184-10.388-9.14-2.916-3.955-4.375-9.002-4.375-15.186 0-7.98 3.186-14.436 9.536-19.347 6.35-4.91 14.853-7.366 25.51-7.366 9.805 0 20.17 2.41 31.075 7.207zm42.674-6v93.05h-22.885V28.92zm104.039 0v17.05H803.12v76h-22.886v-76h-33.25V28.92zm67.647 0l40.744 93.05h-24.59l-7.561-18.391H871.53l-6.821 18.392h-24.254l36.998-93.052h26.565zm1.84 58.427l-14.809-36.17-13.461 36.17zM871.284 0h22.212l9.984 19.916h-9.984z"/>
</svg>
