<svg xmlns="http://www.w3.org/2000/svg" width="935.999" height="92.405">
 <defs>
  <linearGradient id="Wikiversity-logo-sk_svg__a" x2="0" y1="35" y2="322" gradientUnits="userSpaceOnUse">
   <stop offset="0" stop-color="#069"/>
   <stop offset="1" stop-color="#0080CE"/>
  </linearGradient>
 </defs>
 <path fill="#696969" d="M895.511 0L936 91.229h-24.424l-7.51-18.024H863.25l-6.791 18.024h-24.097L869.128 0zm1.829 57.271l-14.693-35.46-13.387 35.46zM844.183 0v16.718h-33.044V91.23h-22.726V16.718h-33.044V0zm-103.51 0v91.229h-22.726V0zm-38.137 0l-49.762 74.512h49.762V91.23h-88.552l50.153-74.512h-46.692V0zm-169.53 0h40.75q13.257 0 21.55 7.706 8.293 7.64 8.293 18.546 0 15.085-15.673 22.334 6.922 3.07 13.061 16.783 6.204 13.714 11.951 25.86h-25.01q-2.221-4.506-7.772-17.175-5.486-12.67-9.47-16.261-3.917-3.592-8.423-3.592h-6.53v37.027h-22.727zm22.726 16.718v20.767h12.016q5.746 0 9.077-2.678 3.396-2.742 3.396-7.77 0-10.319-12.995-10.319zm-40.097 57.794V91.23h-67.263V.001h66.349v16.718h-43.623v19.134h41.599v16.718h-41.6v21.942zM437.989 0l-42.186 92.405h-9.861L341.797 0h24.75l24.097 52.047L413.5 0zm-107.16 0v91.229h-22.726V0zm-43.035 0L258.08 42.839l40.292 48.39H269.9l-36.113-42.774v42.774h-22.726V0h22.726v41.076L262.783 0zm-97.76 0v91.229h-22.726V0zM78.104 32.913L49.893 92.405h-9.796L0 0h24.097l21.485 50.415L69.026 0h18.285l23.444 50.415L132.109 0h24.097L116.24 92.405h-9.796z"/>
</svg>
