<svg xmlns="http://www.w3.org/2000/svg" width="935.914" height="87.212" version="1.0">
 <defs>
  <linearGradient id="Wikiversity-logo-es_svg__b">
   <stop offset="0" stop-color="#069"/>
   <stop offset="1" stop-color="#0080ce"/>
  </linearGradient>
  <linearGradient id="Wikiversity-logo-es_svg__a">
   <stop offset="0" stop-color="#069"/>
   <stop offset="1" stop-color="#0080ce"/>
  </linearGradient>
 </defs>
 <rect width="996.52" height="154.902" x="-34.442" y="-956.62" fill="#f9f9f9" fill-rule="evenodd" stroke="#000" stroke-linecap="round" stroke-linejoin="round" stroke-width="1.338" rx="4.991" ry="3.476"/>
 <path fill="#069" fill-rule="evenodd" d="M.244-894.631c.006 6.539-5.31 11.843-11.87 11.843s-11.876-5.304-11.87-11.843c-.006-6.54 5.31-11.843 11.87-11.843S.251-901.17.244-894.631z"/>
 <path fill="#0080ce" fill-rule="evenodd" d="M.244-860.45c.006 6.54-5.31 11.844-11.87 11.844s-11.876-5.304-11.87-11.843c-.006-6.54 5.31-11.843 11.87-11.843S.251-866.988.244-860.45z"/>
 <path fill="#696969" fill-rule="evenodd" d="M-.089-825.36c.006 6.54-5.31 11.843-11.87 11.843s-11.876-5.304-11.87-11.843c-.006-6.539 5.31-11.843 11.87-11.843s11.877 5.304 11.87 11.843z"/>
 <g font-family="Arial" font-size="26.491" font-weight="400">
  <text style="line-height:130%;text-align:start" x="396.13" y="-322.977" transform="matrix(1.00179 0 0 .99821 -387.212 -562.353)">
   <tspan x="396.13" y="-322.977">Darkest blue - #006699</tspan>
  </text>
  <text style="line-height:130%;text-align:start" x="396.13" y="-322.977" transform="matrix(1.00179 0 0 .99821 -387.212 -562.353)">
   <tspan x="396.13" y="-288.539">Brightest blue - #0080CE </tspan>
  </text>
  <text style="line-height:130%;text-align:start" x="396.13" y="-322.977" transform="matrix(1.00179 0 0 .99821 -387.212 -562.353)">
   <tspan x="396.13" y="-254.1">Font - #484848</tspan>
  </text>
 </g>
 <text x="-22.257" y="-918.663" font-family="Bitstream Vera Sans" font-size="12" font-weight="400">
  <tspan x="-22.257" y="-918.663" font-family="Arial" font-size="36">Wikiversity Logo</tspan>
 </text>
 <path fill="#696969" fill-rule="evenodd" d="M72.777 31.777L46.482 87.212h-9.117L0 1.102h22.452l20.022 46.982 21.85-46.982h17.031l21.85 46.982 19.897-46.982h22.452l-37.24 86.11h-9.118zM176.958 1.102V86.11h-21.186V1.1zm90.97 0l-27.685 39.917 37.53 45.092H251.25l-33.646-39.855V86.11h-21.186V1.1h21.186l.124 38.279 26.877-38.278zm40.15 0V86.11H286.89V1.1zm99.716 0l-39.3 86.11h-9.2L318.17 1.102h23.057l22.452 48.496 21.308-48.496zm72.4 69.433v15.576h-62.662V1.1h61.81v15.576H438.7v17.842h38.774v15.575h-38.775v20.441zm16.2-69.433h37.97c8.245 0 14.933 2.387 20.082 7.143 5.153 4.777 7.727 10.552 7.727 17.324 0 9.367-4.86 16.301-14.599 20.808 4.298 1.91 8.37 7.126 12.187 15.642 3.843 8.516 7.54 16.552 11.116 24.092h-23.303c-1.373-2.804-3.78-8.14-7.21-16.014-3.426-7.853-6.375-12.918-8.825-15.142-2.453-2.22-5.09-3.342-7.873-3.342h-6.088v34.498h-21.183zm21.184 15.575v19.357h11.2c3.57 0 6.395-.852 8.47-2.534 2.098-1.681 3.137-4.072 3.137-7.205 0-6.396-4.026-9.618-12.108-9.618zM637.815 6.584v16.615c-11.278-5.07-20.27-7.623-26.958-7.623-3.801 0-6.834.642-9.096 1.932-2.245 1.268-3.367 2.97-3.367 5.07 0 1.64.81 3.175 2.433 4.63 1.618 1.453 5.566 3.343 11.858 5.67 6.291 2.304 11.32 4.444 15.1 6.439 3.758 1.994 7.022 4.798 9.763 8.39 2.742 3.614 4.11 8.183 4.11 13.707 0 7.853-2.992 14.124-8.97 18.797-6.005 4.652-13.875 7.001-23.659 7.001-10.53 0-20.77-2.741-30.654-8.223V60.667c5.67 3.822 10.693 6.605 15.079 8.35 4.381 1.744 9.033 2.615 13.936 2.615 8.328 0 12.479-2.616 12.479-7.848 0-1.786-.83-3.472-2.49-5.049-1.661-1.598-5.67-3.509-12.025-5.795-6.355-2.262-11.383-4.381-15.08-6.313-3.718-1.953-6.918-4.735-9.617-8.35-2.7-3.612-4.048-8.223-4.048-13.873 0-7.288 2.925-13.188 8.825-17.674C591.314 2.24 599.183 0 609.03 0c9.096 0 18.693 2.2 28.786 6.584zm40.11-5.482V86.11h-21.188V1.1zm13.56 0h41.766c9.07 0 16.427 4.147 22.09 12.409 5.668 8.3 8.5 18.331 8.5 30.095s-2.832 21.796-8.5 30.095c-5.663 8.263-13.02 12.41-22.09 12.41h-41.766zm21.188 15.575v53.858h15.118c4.822 0 8.635-2.37 11.435-7.048 2.833-4.679 4.236-11.33 4.236-20.049 0-17.796-5.436-26.761-16.346-26.761zm140.792 69.434L814.165 0h-9.2L763.84 86.11h23.057l5.769-12.46h32.516l5.475 12.46zM809.35 37.615l-9.472 20.46h18.462zm54.208-36.513h41.766c9.069 0 16.427 4.147 22.09 12.409 5.668 8.3 8.5 18.331 8.5 30.095s-2.832 21.796-8.5 30.095c-5.663 8.263-13.021 12.41-22.09 12.41h-41.766zm21.187 15.575v53.858h15.12c4.821 0 8.634-2.37 11.434-7.048 2.833-4.679 4.236-11.33 4.236-20.049 0-17.796-5.436-26.761-16.346-26.761z"/>
</svg>
