<?xml version="1.0" encoding="UTF-8" standalone="no"?>
<!-- Created with Inkscape (http://www.inkscape.org/) -->
<svg
   xmlns:ns="http://creativecommons.org/ns#"
   xmlns:dc="http://purl.org/dc/elements/1.1/"
   xmlns:cc="http://web.resource.org/cc/"
   xmlns:rdf="http://www.w3.org/1999/02/22-rdf-syntax-ns#"
   xmlns:svg="http://www.w3.org/2000/svg"
   xmlns="http://www.w3.org/2000/svg"
   xmlns:sodipodi="http://sodipodi.sourceforge.net/DTD/sodipodi-0.dtd"
   xmlns:inkscape="http://www.inkscape.org/namespaces/inkscape"
   version="1.0"
   width="400"
   height="400"
   id="svg2728"
   sodipodi:version="0.32"
   inkscape:version="0.45.1"
   sodipodi:docname="Wikibooks-logo-en-unpathed.svg"
   inkscape:output_extension="org.inkscape.output.svg.inkscape"
   sodipodi:docbase="C:\Documents and Settings\Tech U\Desktop"
   inkscape:export-filename="C:\Documents and Settings\Tech U\Desktop\Wikibooks-logo-en-unpathed.png"
   inkscape:export-xdpi="30.379999"
   inkscape:export-ydpi="30.379999">
  <metadata
     id="metadata18">
    <rdf:RDF>
      <ns:Work
         rdf:about="">
        <dc:format>image/svg+xml</dc:format>
        <dc:type
           rdf:resource="http://purl.org/dc/dcmitype/StillImage" />
      </ns:Work>
      <cc:Work
         rdf:about="">
        <dc:format>image/svg+xml</dc:format>
        <dc:type
           rdf:resource="http://purl.org/dc/dcmitype/StillImage" />
      </cc:Work>
    </rdf:RDF>
  </metadata>
  <sodipodi:namedview
     inkscape:window-height="778"
     inkscape:window-width="1272"
     inkscape:pageshadow="2"
     inkscape:pageopacity="0.0"
     guidetolerance="10.0"
     gridtolerance="10.0"
     objecttolerance="10.0"
     borderopacity="1.0"
     bordercolor="#666666"
     pagecolor="#ffffff"
     id="base"
     showgrid="false"
     inkscape:zoom="1.245"
     inkscape:cx="15.396543"
     inkscape:cy="167.87149"
     inkscape:window-x="0"
     inkscape:window-y="0"
     inkscape:current-layer="svg2728" />
  <defs
     id="defs2731">
    <inkscape:perspective
       sodipodi:type="inkscape:persp3d"
       inkscape:vp_x="0 : 200 : 1"
       inkscape:vp_y="0 : 1000 : 0"
       inkscape:vp_z="400 : 200 : 1"
       inkscape:persp3d-origin="200 : 133.33333 : 1"
       id="perspective20" />
  </defs>
  <g
     id="layer1" />
  <g
     id="g3189">
    <g
       id="g3177">
      <path
         id="path3297"
         style="fill: rgb(253, 252, 248); fill-opacity: 1; fill-rule: evenodd; stroke: none; stroke-width: 1px; stroke-linecap: butt; stroke-linejoin: miter; stroke-opacity: 1;"
         d="M 191.65664,115.97593 C 196.93351,182.00184 208.45394,245.91983 242.85479,307.46513 L 255.86467,307.56221 L 338.15581,234.14292 L 259.72068,35.943307 L 203.18059,89.951746 L 191.65664,115.97593 z" />
      <path
         d="M 263.32723,16.5 C 236.14031,42.801966 209.26473,68.875 209.26473,68.875 C 209.26473,68.875 218.92098,88.53125 218.92098,88.53125 C 232.01455,75.550025 245.18226,64.133911 257.73348,51.4375 C 284.16674,109.4727 302.17756,156.24917 324.33191,218.08448 C 331.58462,238.17246 330.10582,239.07126 312.76941,249.92823 C 284.91465,263.77995 276.0966,272.86547 242.89833,308.1875 L 265.61708,308.1875 C 293.37052,283.09599 303.67261,274.24081 338.42566,255.92823 C 350.71955,248.83035 352.40523,239.86966 347.36316,225.92823 C 331.10198,180.73146 295.87208,83.322614 263.32723,16.5 z"
         style="fill: rgb(95, 150, 211); fill-opacity: 1;"
         id="path3272" />
    </g>
    <g
       id="g3181">
      <path
         id="path3214"
         style="fill: rgb(244, 238, 215); fill-rule: evenodd; stroke: none; stroke-width: 1px; stroke-linecap: butt; stroke-linejoin: miter; stroke-opacity: 1;"
         d="M 125.84082,116.04509 C 131.11769,182.071 144.61911,246.8316 179.01996,308.3769 L 199.35471,308.55962 L 261.32293,230.84125 L 193.90486,36.012472 L 137.36477,90.020911 L 125.84082,116.04509 z" />
      <path
         d="M 192.45223,17.125 C 172.56466,30.549352 157.22356,49.869448 139.92098,66.4375 C 139.92098,66.4375 147.01473,89.0625 147.01473,89.0625 C 160.5559,78.391834 172.3403,65.526043 184.51473,53.34375 L 250.17098,218.03125 C 253.95672,229.18194 247.99456,239.10365 236.01473,249.90625 C 221.66549,261.43896 192.12216,288.32681 178.73348,308.8125 L 199.10848,308.8125 C 220.49313,286.84657 224.35368,283.86504 248.70223,262.78125 C 265.04857,246.10281 279.81623,237.56053 272.10848,216.1875 L 192.45223,17.125 z"
         style="fill: rgb(42, 98, 161); fill-opacity: 1; fill-rule: evenodd; stroke: none; stroke-width: 22; stroke-linecap: round; stroke-linejoin: miter; stroke-miterlimit: 4; stroke-dasharray: none; stroke-opacity: 1;"
         id="path3138" />
    </g>
    <g
       id="g3185">
      <path
         id="path2238"
         style="fill: rgb(233, 221, 175); fill-rule: evenodd; stroke: none; stroke-width: 1px; stroke-linecap: butt; stroke-linejoin: miter; stroke-opacity: 1;"
         d="M 50.218883,114.63177 C 55.595535,183.91551 77.233973,245.97178 102.67801,306.33668 L 129.48015,306.00572 L 199.88087,225.96804 L 118.28293,34.599156 L 61.742841,88.607595 L 50.218883,114.63177 z" />
      <path
         d="M 125.32723,16.0625 C 120.02588,17.841698 115.61512,21.260515 111.48348,24.875 C 55.394922,78.847012 53.13973,81.125 53.13973,81.125 C 50.188265,83.867742 49.941746,87.87735 49.98348,91.90625 L 50.218884,114.63177 C 50.218884,114.63177 76.123108,89.450054 114.79598,52.21875 C 135.6144,106.45643 157.3415,160.40524 178.73348,214.4375 C 181.66298,222.60083 174.65125,229.2909 165.76473,238.21875 C 153.49118,250.19233 127.82007,274.84011 101.54598,307.75 L 127.88973,307.75 C 127.88973,307.75 191.20222,238.3125 191.20223,238.3125 C 197.22151,230.03457 204.70542,221.9413 201.54598,214.4375 C 201.54598,214.4375 125.32723,16.062501 125.32723,16.0625 z"
         style="fill: rgb(21, 48, 79); fill-opacity: 1; fill-rule: evenodd; stroke: none; stroke-width: 22; stroke-linecap: round; stroke-linejoin: miter; stroke-miterlimit: 4; stroke-dasharray: none; stroke-opacity: 1;"
         id="path3136" />
    </g>
  </g>
  <text
     xml:space="preserve"
     style="font-style: normal; font-variant: normal; font-weight: bold; font-stretch: normal; fill: rgb(0, 0, 0); fill-opacity: 1; stroke: none; stroke-width: 1px; stroke-linecap: butt; stroke-linejoin: miter; stroke-opacity: 1; font-family: DejaVu Sans;"
     x="15.261"
     y="175.904"
     id="text2416"><tspan
       sodipodi:role="line"
       id="tspan2418"
       x="15.261"
       y="175.90401" /></text>
  <g
     id="g2700"
     transform="translate(-8.3358612,0)">
    <path
       style="font-size:56px;font-style:normal;font-variant:normal;font-weight:bold;font-stretch:normal;fill:#0b2645;fill-opacity:1;stroke:none;stroke-width:1px;stroke-linecap:butt;stroke-linejoin:miter;stroke-opacity:1;font-family:DejaVu Sans"
       d="M 19.999969,317.17578 L 30.089813,317.17578 L 37.144501,346.84375 L 44.144501,317.17578 L 54.289032,317.17578 L 61.289032,346.84375 L 68.343719,317.17578 L 78.351532,317.17578 L 68.726532,358 L 56.585907,358 L 49.175751,326.96484 L 41.847626,358 L 29.707001,358 L 19.999969,317.17578 z M 85.269501,317.17578 L 95.796844,317.17578 L 95.796844,358 L 85.269501,358 L 85.269501,317.17578 z M 106.16013,317.17578 L 116.68747,317.17578 L 116.68747,332.07813 L 131.86325,317.17578 L 144.08591,317.17578 L 124.42575,336.50781 L 146.10934,358 L 132.92966,358 L 116.68747,341.92188 L 116.68747,358 L 106.16013,358 L 106.16013,317.17578 z M 149.582,317.17578 L 160.10934,317.17578 L 160.10934,358 L 149.582,358 L 149.582,317.17578 z "
       id="text2420" />
    <path
       style="font-size:56px;font-style:normal;font-variant:normal;font-weight:bold;font-stretch:normal;text-align:start;line-height:125%;writing-mode:lr-tb;text-anchor:start;fill:#0a4e98;fill-opacity:1;stroke:none;stroke-width:1px;stroke-linecap:butt;stroke-linejoin:miter;stroke-opacity:1;font-family:DejaVu Sans"
       d="M 183.77332,333.21341 C 185.43215,333.21343 186.68996,332.84885 187.54675,332.11966 C 188.4035,331.39052 188.83188,330.315 188.83191,328.8931 C 188.83188,327.48948 188.4035,326.41852 187.54675,325.68021 C 186.68996,324.94196 185.43215,324.57282 183.77332,324.57278 L 177.9491,324.57278 L 177.9491,333.21341 L 183.77332,333.21341 z M 184.12878,351.06888 C 186.24334,351.06889 187.83384,350.62227 188.90027,349.72903 C 189.96665,348.83581 190.49985,347.48686 190.49988,345.68216 C 190.49985,343.91394 189.9712,342.58777 188.91394,341.70364 C 187.85662,340.81955 186.26157,340.37749 184.12878,340.37747 L 177.9491,340.37747 L 177.9491,351.06888 L 184.12878,351.06888 z M 193.91785,336.38528 C 196.17823,337.04156 197.92823,338.25379 199.16785,340.022 C 200.40739,341.79025 201.02718,343.95952 201.02722,346.52982 C 201.02718,350.46732 199.69646,353.40222 197.03503,355.3345 C 194.37354,357.2668 190.32667,358.23294 184.89441,358.23294 L 167.42175,358.23294 L 167.42175,317.40872 L 183.22644,317.40872 C 188.89568,317.40876 193.0018,318.26553 195.5448,319.97903 C 198.08773,321.69261 199.35922,324.4361 199.35925,328.2095 C 199.35922,330.19651 198.89437,331.88726 197.96472,333.28177 C 197.035,334.67632 195.68604,335.71083 193.91785,336.38528 L 193.91785,336.38528 z M 229.30066,324.40872 L 222.30066,341.08841 L 232.60925,341.08841 L 232.60925,324.40872 L 229.30066,324.40872 z M 222.02722,317.40872 L 260.99207,317.40872 L 260.99207,325.36575 L 243.1366,325.36575 L 243.1366,332.96732 L 259.92566,332.96732 L 259.92566,340.92435 L 243.1366,340.92435 L 243.1366,350.27591 L 261.62097,350.27591 L 261.62097,358.23294 L 232.60925,358.23294 L 232.60925,348.66263 L 219.10144,348.66263 L 215.08191,358.23294 L 204.93738,358.23294 L 222.02722,317.40872 z M 270.8905,317.40872 L 281.41785,317.40872 L 281.41785,332.31107 L 296.59363,317.40872 L 308.81628,317.40872 L 289.15613,336.74075 L 310.83972,358.23294 L 297.66003,358.23294 L 281.41785,342.15482 L 281.41785,358.23294 L 270.8905,358.23294 L 270.8905,317.40872 z M 314.31238,317.40872 L 324.83972,317.40872 L 324.83972,341.88138 C 324.83971,345.25379 325.39114,347.66459 326.49402,349.1138 C 327.59686,350.56303 329.39699,351.28764 331.89441,351.28763 C 334.41001,351.28764 336.21925,350.56303 337.32214,349.1138 C 338.42498,347.66459 338.97641,345.25379 338.97644,341.88138 L 338.97644,317.40872 L 349.50378,317.40872 L 349.50378,341.88138 C 349.50374,347.66003 348.05453,351.96211 345.15613,354.78763 C 342.25766,357.61315 337.83709,359.02591 331.89441,359.02591 C 325.96991,359.02591 321.55846,357.61315 318.66003,354.78763 C 315.76159,351.96211 314.31237,347.66003 314.31238,341.88138 L 314.31238,317.40872 z M 374.76941,335.51028 C 376.97512,335.51031 378.55649,335.10015 379.51355,334.27982 C 380.47056,333.45953 380.94907,332.11057 380.9491,330.23294 C 380.94907,328.3736 380.47056,327.04287 379.51355,326.24075 C 378.55649,325.4387 376.97512,325.03766 374.76941,325.03763 L 370.33972,325.03763 L 370.33972,335.51028 L 374.76941,335.51028 z M 370.33972,342.78372 L 370.33972,358.23294 L 359.81238,358.23294 L 359.81238,317.40872 L 375.8905,317.40872 C 381.26808,317.40876 385.21013,318.31111 387.71667,320.11575 C 390.22315,321.92048 391.4764,324.77334 391.47644,328.67435 C 391.4764,331.37229 390.82471,333.58713 389.52136,335.31888 C 388.21794,337.05067 386.25375,338.32671 383.62878,339.147 C 385.06886,339.47515 386.35857,340.21798 387.49792,341.37552 C 388.63721,342.53309 389.79021,344.28764 390.95691,346.63919 L 396.67175,358.23294 L 385.46082,358.23294 L 380.48425,348.08841 C 379.48162,346.04675 378.46535,344.65223 377.43542,343.90482 C 376.40546,343.15743 375.03371,342.78374 373.32019,342.78372 L 370.33972,342.78372 z "
       id="text2410" />
  </g>
  <path
     style="font-size:30.65307236px;font-style:italic;font-variant:normal;font-weight:normal;font-stretch:normal;text-align:center;line-height:150%;writing-mode:lr-tb;text-anchor:middle;fill:#000000;fill-opacity:1;stroke:none;stroke-width:1px;stroke-linecap:butt;stroke-linejoin:miter;stroke-opacity:1;font-family:Charis SIL"
     d="M 23.467941,378.38258 C 23.467923,377.36482 23.340701,376.44183 23.086274,375.61363 C 22.831813,374.78545 22.477587,374.0745 22.023595,373.48078 C 21.56957,372.8871 21.030747,372.4306 20.407124,372.11127 C 19.783472,371.79199 19.107448,371.63234 18.379052,371.63232 C 17.630674,371.63234 16.922222,371.79698 16.253693,372.12624 C 15.585142,372.45554 14.966494,372.90456 14.397745,373.4733 C 13.828979,374.04208 13.317596,374.70812 12.863594,375.47144 C 12.409579,376.23479 12.022924,377.0505 11.703627,377.91859 C 11.384319,378.78671 11.139853,379.68724 10.970228,380.6202 C 10.800594,381.55317 10.715779,382.47366 10.715784,383.38167 C 10.715779,384.41941 10.84799,385.34987 11.112418,386.17307 C 11.376835,386.99628 11.73605,387.69475 12.190065,388.2685 C 12.644067,388.84225 13.180395,389.28378 13.799052,389.5931 C 14.417693,389.90243 15.086232,390.05709 15.804673,390.05709 C 16.553028,390.05709 17.261481,389.88996 17.930032,389.55569 C 18.59856,389.22142 19.217209,388.76491 19.78598,388.18618 C 20.354724,387.60744 20.866107,386.93641 21.32013,386.17307 C 21.774123,385.40974 22.160779,384.59403 22.480098,383.72591 C 22.799384,382.85782 23.04385,381.96726 23.213497,381.05425 C 23.383109,380.14125 23.467923,379.2507 23.467941,378.38258 L 23.467941,378.38258 z M 26.955327,378.38258 C 26.955305,379.46024 26.840556,380.53539 26.611078,381.60804 C 26.381559,382.68071 26.047289,383.71095 25.608268,384.69879 C 25.169207,385.68664 24.625395,386.60214 23.97683,387.44529 C 23.328228,388.28846 22.582358,389.02435 21.739215,389.65297 C 20.896041,390.2816 19.95809,390.77303 18.925359,391.12725 C 17.892602,391.48148 16.777538,391.65859 15.580163,391.65859 C 14.352834,391.65859 13.230286,391.45654 12.212516,391.05242 C 11.194733,390.6483 10.316651,390.07206 9.5782676,389.32369 C 8.8398767,388.57533 8.26613,387.67729 7.8570257,386.62957 C 7.4479173,385.58187 7.2433641,384.41442 7.2433656,383.12722 C 7.2433641,382.02963 7.3680917,380.94699 7.6175486,379.87931 C 7.8670018,378.81166 8.2287117,377.79388 8.7026793,376.82598 C 9.1766411,375.85811 9.7503878,374.96506 10.423921,374.14683 C 11.097445,373.32863 11.855789,372.62018 12.698954,372.02147 C 13.542105,371.4228 14.465089,370.95382 15.467908,370.61454 C 16.470708,370.2753 17.530892,370.10567 18.648464,370.10565 C 19.915683,370.10567 21.063176,370.3227 22.090947,370.75673 C 23.118686,371.1908 23.991779,371.78201 24.710229,372.53036 C 25.42864,373.27874 25.982431,374.15682 26.371601,375.16461 C 26.760731,376.17242 26.955305,377.24508 26.955327,378.38258 L 26.955327,378.38258 z M 38.689707,381.8101 C 38.689696,381.36109 38.642299,380.90458 38.547517,380.44059 C 38.452713,379.97661 38.308029,379.55503 38.113465,379.17585 C 37.918879,378.79669 37.671919,378.48737 37.372583,378.24788 C 37.073227,378.00841 36.719,377.88867 36.309903,377.88866 C 35.9407,377.88867 35.571507,377.97099 35.202321,378.13562 C 34.83312,378.30027 34.496356,378.48487 34.192027,378.68941 C 33.887685,378.89398 33.625757,379.09354 33.406243,379.2881 C 33.186716,379.48269 33.037043,379.60991 32.957223,379.66977 L 31.13121,389.17402 C 31.22101,389.22391 31.348232,389.30124 31.512877,389.40601 C 31.677513,389.51079 31.869593,389.61306 32.089118,389.71284 C 32.308634,389.81263 32.543122,389.89994 32.792582,389.97477 C 33.042032,390.04961 33.301466,390.08703 33.570883,390.08703 C 34.129657,390.08703 34.643534,389.9623 35.112517,389.71284 C 35.581485,389.46339 36.005559,389.12662 36.384739,388.70255 C 36.763902,388.27848 37.098172,387.78705 37.38755,387.22827 C 37.676908,386.66949 37.916385,386.08327 38.105981,385.46961 C 38.295557,384.85595 38.440241,384.23481 38.540034,383.60618 C 38.639805,382.97756 38.689696,382.37886 38.689707,381.8101 L 38.689707,381.8101 z M 41.728073,381.69036 C 41.728059,382.52854 41.628277,383.35423 41.428726,384.16745 C 41.229148,384.98068 40.942275,385.7515 40.568105,386.4799 C 40.19391,387.20832 39.742396,387.88184 39.213563,388.50049 C 38.684706,389.11914 38.095992,389.65297 37.447419,390.10199 C 36.798826,390.55101 36.095363,390.90275 35.337027,391.15719 C 34.578676,391.41163 33.785408,391.53886 32.957223,391.53886 C 32.49822,391.53886 32.084125,391.474 31.714935,391.34428 C 31.345738,391.21456 31.036413,391.09483 30.786962,390.98507 L 29.814086,395.90931 C 29.774171,396.07894 29.796622,396.21614 29.881439,396.32091 C 29.966251,396.42568 30.143364,396.49303 30.412778,396.52297 L 32.343563,396.68761 L 32.343563,397.8401 L 24.620425,397.8401 L 24.620425,396.68761 L 26.221929,396.52297 C 26.650993,396.49303 26.895459,396.28848 26.955327,395.90931 L 30.412778,378.1431 L 27.838399,377.85872 L 27.838399,376.97565 L 32.478269,376.01774 L 33.675654,376.01774 L 33.301471,377.91859 C 33.560899,377.74898 33.85775,377.5544 34.192027,377.33487 C 34.52629,377.11536 34.883011,376.90831 35.26219,376.71372 C 35.641354,376.51916 36.037988,376.35452 36.452092,376.2198 C 36.866179,376.08511 37.287758,376.01776 37.716831,376.01774 C 38.495121,376.01776 39.141209,376.18489 39.655099,376.51915 C 40.168964,376.85343 40.578071,377.28998 40.882419,377.82879 C 41.186741,378.36763 41.403767,378.9763 41.533498,379.6548 C 41.6632,380.33333 41.728059,381.01185 41.728073,381.69036 L 41.728073,381.69036 z M 58.925525,390.55101 C 58.795792,390.6009 58.568788,390.67824 58.244512,390.78301 C 57.920205,390.88778 57.558495,390.99754 57.159381,391.11229 C 56.760239,391.22704 56.351132,391.32682 55.932061,391.41163 C 55.512963,391.49645 55.14377,391.53886 54.824479,391.53886 C 54.644859,391.53886 54.397899,391.52139 54.083597,391.48647 C 53.769272,391.45155 53.467431,391.37172 53.178074,391.24699 C 52.888696,391.12227 52.654208,390.94016 52.47461,390.70069 C 52.294992,390.46121 52.250091,390.13692 52.339904,389.72781 L 54.210819,380.31337 C 54.280655,379.90427 54.28315,379.56501 54.218303,379.29559 C 54.153433,379.02619 54.048662,378.80916 53.903989,378.64451 C 53.759294,378.47988 53.592159,378.36513 53.402584,378.30026 C 53.212987,378.23542 53.03338,378.20299 52.86376,378.20297 C 52.614295,378.20299 52.307465,378.27533 51.94327,378.42 C 51.579056,378.5647 51.194896,378.75678 50.790786,378.99624 C 50.386661,379.23573 49.980049,379.51761 49.57095,379.84189 C 49.161837,380.1662 48.787654,380.50795 48.448401,380.86716 L 46.338008,391.16467 L 43.47925,391.16467 L 46.143433,378.1431 L 43.569054,377.85872 L 43.569054,376.97565 L 48.193956,376.01774 L 49.421276,376.01774 L 48.852518,378.8765 C 49.191771,378.53726 49.580921,378.1955 50.019969,377.85124 C 50.459003,377.50701 50.927979,377.20018 51.426897,376.93075 C 51.925799,376.66135 52.442171,376.44183 52.976015,376.27219 C 53.509839,376.10257 54.0312,376.01776 54.5401,376.01774 C 55.657647,376.01776 56.453409,376.32708 56.927388,376.94572 C 57.401338,377.56438 57.518582,378.5622 57.27912,379.93918 L 55.647682,388.59029 C 55.597778,388.87966 55.620229,389.10916 55.715035,389.27879 C 55.809815,389.44842 55.934542,389.57814 56.089218,389.66794 C 56.243867,389.75775 56.406012,389.81512 56.575656,389.84006 C 56.745271,389.86501 56.874988,389.87748 56.964806,389.87748 C 57.244181,389.87748 57.548517,389.83757 57.877813,389.75774 C 58.207078,389.67792 58.546337,389.58313 58.89559,389.47337 L 58.925525,390.55101 z M 70.375525,379.14591 C 70.385492,379.09604 70.348073,378.98129 70.26327,378.80167 C 70.178444,378.62207 70.076167,378.43498 69.95644,378.24039 C 69.83669,378.04583 69.709468,377.87371 69.574773,377.72402 C 69.440057,377.57436 69.327802,377.49952 69.238008,377.49951 C 68.459698,377.49952 67.763719,377.62675 67.150067,377.88118 C 66.5364,378.13563 66.000071,378.47988 65.54108,378.91392 C 65.082076,379.34799 64.690432,379.84939 64.366146,380.41814 C 64.041849,380.98691 63.779921,381.58061 63.580361,382.19925 C 63.380793,382.81791 63.236109,383.44154 63.146309,384.07016 C 63.056501,384.6988 63.011599,385.29749 63.011603,385.86624 C 63.011599,386.29531 63.046523,386.72437 63.116374,387.15343 C 63.186218,387.5825 63.308451,387.97165 63.483074,388.32088 C 63.657688,388.67012 63.897165,388.9545 64.201505,389.17402 C 64.505835,389.39354 64.89748,389.5033 65.37644,389.5033 C 65.735649,389.5033 66.094864,389.42348 66.454087,389.26382 C 66.813295,389.10417 67.147565,388.91958 67.456897,388.71003 C 67.766213,388.50049 68.035625,388.29095 68.265133,388.0814 C 68.494622,387.87187 68.664251,387.71221 68.774021,387.60245 L 70.375525,379.14591 z M 74.880688,390.34147 C 74.760934,390.39136 74.541413,390.48366 74.222126,390.61837 C 73.902808,390.75307 73.546088,390.88778 73.151963,391.02248 C 72.75781,391.15719 72.358681,391.27693 71.954577,391.3817 C 71.550447,391.48647 71.198715,391.53886 70.899381,391.53886 C 70.530176,391.53886 70.218357,391.49395 69.963923,391.40415 C 69.709468,391.31435 69.499926,391.17964 69.335296,391.00003 C 69.170645,390.82042 69.043423,390.6009 68.953629,390.34147 C 68.863816,390.08204 68.803946,389.78269 68.774021,389.44343 C 68.544513,389.66295 68.275102,389.89495 67.965786,390.13941 C 67.656453,390.38388 67.314699,390.61088 66.940525,390.82042 C 66.566334,391.02997 66.167206,391.20209 65.743139,391.3368 C 65.319059,391.4715 64.877523,391.53886 64.418531,391.53886 C 63.819834,391.53886 63.293483,391.45404 62.839479,391.28441 C 62.385467,391.11478 61.993822,390.88778 61.664544,390.6034 C 61.335261,390.31902 61.063355,389.98974 60.848825,389.61556 C 60.634292,389.24137 60.462168,388.85222 60.332453,388.4481 C 60.202735,388.04399 60.112931,387.63488 60.063041,387.22078 C 60.013149,386.80669 59.988203,386.41505 59.988204,386.04585 C 59.988203,385.25758 60.073018,384.46181 60.242649,383.65856 C 60.412277,382.85532 60.664227,382.08201 60.998498,381.33863 C 61.332766,380.59526 61.749356,379.89928 62.24827,379.25069 C 62.747177,378.60211 63.323418,378.03835 63.976995,377.55938 C 64.630563,377.08044 65.358971,376.70376 66.162224,376.42935 C 66.965462,376.15496 67.846039,376.01776 68.803956,376.01774 C 69.083336,376.01776 69.360231,376.05019 69.634642,376.11503 C 69.909032,376.17991 70.165971,376.26472 70.405459,376.36948 C 70.644925,376.47426 70.864445,376.59151 71.064022,376.72121 C 71.263574,376.85094 71.433203,376.98565 71.57291,377.12533 L 72.02193,376.39193 L 74.117355,376.39193 C 74.067449,376.51168 74.012569,376.65387 73.952714,376.8185 C 73.89283,376.98315 73.832961,377.15029 73.773107,377.3199 C 73.713223,377.48954 73.660837,377.6492 73.61595,377.79886 C 73.571033,377.94854 73.543593,378.06329 73.533629,378.1431 C 73.463767,378.41253 73.363985,378.81914 73.234283,379.36294 C 73.104552,379.90676 72.967352,380.51793 72.822682,381.19644 C 72.677984,381.87497 72.528311,382.58591 72.373662,383.32928 C 72.218987,384.07266 72.081786,384.77613 71.962061,385.43967 C 71.842309,386.10323 71.742527,386.69194 71.662714,387.20582 C 71.582876,387.7197 71.542963,388.09139 71.542976,388.32088 C 71.542963,388.85971 71.657713,389.2289 71.887224,389.42846 C 72.11671,389.62803 72.441002,389.72781 72.8601,389.72781 C 72.959868,389.72781 73.107047,389.70536 73.301636,389.66046 C 73.496197,389.61556 73.698255,389.56317 73.907812,389.5033 C 74.11734,389.44343 74.311915,389.38855 74.491538,389.33866 C 74.67113,389.28877 74.800847,389.25385 74.880688,389.23389 L 74.880688,390.34147 z M 87.528076,378.08323 C 87.528063,378.44246 87.463205,378.72934 87.3335,378.94386 C 87.203771,379.1584 87.019175,379.32055 86.77971,379.43029 C 86.540221,379.54007 86.253347,379.61241 85.919089,379.64732 C 85.584808,379.68225 85.208131,379.69972 84.789056,379.69971 L 84.055657,378.23291 C 83.676476,378.39257 83.269865,378.66947 82.835821,379.06359 C 82.401761,379.45775 81.99016,379.90676 81.601017,380.41065 C 81.21186,380.91456 80.872601,381.43343 80.583239,381.96725 C 80.293865,382.5011 80.104279,382.99252 80.014481,383.44154 L 78.412977,391.16467 L 75.569186,391.16467 L 78.203435,378.1431 L 75.629056,377.85872 L 75.629056,376.97565 L 80.253958,376.01774 L 81.481278,376.01774 L 80.837683,379.11598 C 81.466304,378.14811 82.179746,377.38976 82.97801,376.84095 C 83.776258,376.29216 84.639373,376.01776 85.567357,376.01774 C 85.93654,376.01776 86.245864,376.08511 86.49533,376.2198 C 86.744774,376.35452 86.946833,376.52665 87.101507,376.73618 C 87.256157,376.94573 87.365917,377.17024 87.430788,377.40971 C 87.495634,377.6492 87.528063,377.87371 87.528076,378.08323 L 87.528076,378.08323 z M 106.5216,381.78016 C 106.52159,381.09168 106.44176,380.51045 106.28212,380.03647 C 106.12246,379.56252 105.92789,379.17586 105.6984,378.8765 C 105.46889,378.57717 105.22692,378.36264 104.97248,378.23291 C 104.71803,378.1032 104.501,378.03835 104.3214,378.03833 C 104.07194,378.03835 103.79754,378.07826 103.4982,378.15807 C 103.19885,378.23791 102.89202,378.35016 102.57771,378.49484 C 102.26339,378.63953 101.95157,378.80667 101.64225,378.99624 C 101.33292,379.18584 101.04854,379.39039 100.78912,379.6099 L 99.082841,388.88964 C 99.182619,389.03932 99.317325,389.184 99.486959,389.32369 C 99.656584,389.46339 99.851159,389.59061 100.07068,389.70536 C 100.2902,389.82011 100.52968,389.91241 100.78912,389.98225 C 101.04854,390.0521 101.31795,390.08703 101.59735,390.08703 C 102.06632,390.08703 102.51284,389.96729 102.93693,389.72781 C 103.36099,389.48833 103.75513,389.16404 104.11934,388.75493 C 104.48354,388.34583 104.81532,387.86688 105.11467,387.31807 C 105.41401,386.76927 105.66596,386.18804 105.87052,385.57438 C 106.07506,384.96072 106.23471,384.32711 106.34948,383.67353 C 106.46421,383.01996 106.52159,382.38884 106.5216,381.78016 L 106.5216,381.78016 z M 109.55997,381.66042 C 109.55995,382.29904 109.4901,382.98504 109.35042,383.71843 C 109.21071,384.45184 108.99369,385.18274 108.69934,385.91114 C 108.40497,386.63956 108.0283,387.34302 107.56931,388.02154 C 107.1103,388.70006 106.5615,389.29875 105.92291,389.81761 C 105.28429,390.33648 104.55089,390.75307 103.72271,391.06739 C 102.89451,391.3817 101.96155,391.53886 100.92382,391.53886 C 100.05571,391.53886 99.200081,391.41912 98.356926,391.17964 C 97.513765,390.94016 96.73297,390.58594 96.01454,390.11696 L 99.636632,370.68938 L 96.897612,370.41997 L 96.897612,369.49199 L 101.68715,368.57899 L 102.88454,368.57899 L 101.13336,377.85872 C 101.41275,377.60928 101.71958,377.3723 102.05385,377.14778 C 102.38812,376.92328 102.73486,376.72871 103.09408,376.56405 C 103.45329,376.39943 103.82248,376.26721 104.20166,376.16742 C 104.58083,376.06765 104.95501,376.01776 105.32421,376.01774 C 106.11248,376.01776 106.77603,376.19238 107.31487,376.5416 C 107.85368,376.89085 108.29022,377.33987 108.62451,377.88866 C 108.95876,378.43747 109.19824,379.04365 109.34294,379.70719 C 109.48761,380.37075 109.55995,381.02183 109.55997,381.66042 L 109.55997,381.66042 z M 132.89402,379.11598 C 132.894,379.67477 132.7568,380.18865 132.48242,380.65761 C 132.208,381.1266 131.83881,381.55067 131.37484,381.92984 C 130.91083,382.30902 130.377,382.64578 129.77334,382.94013 C 129.16964,383.2345 128.53353,383.48395 127.865,383.6885 C 127.19645,383.89306 126.52292,384.0577 125.84442,384.18242 C 125.16588,384.30715 124.52229,384.38448 123.91363,384.41441 C 123.89366,384.5142 123.86872,384.62645 123.8388,384.75118 C 123.80885,384.87591 123.77891,385.00313 123.74899,385.13284 C 123.71904,385.26257 123.6916,385.38979 123.66667,385.51451 C 123.64171,385.63924 123.62924,385.74651 123.62925,385.83631 C 123.62924,386.51483 123.65668,387.09606 123.71157,387.58 C 123.76644,388.06395 123.89366,388.46307 124.09324,388.77739 C 124.29279,389.0917 124.58465,389.32369 124.96883,389.47337 C 125.35297,389.62304 125.87932,389.69788 126.54788,389.69788 C 127.23636,389.69788 127.9947,389.44842 128.82291,388.94951 C 129.65109,388.4506 130.61897,387.70723 131.72657,386.71938 L 131.72657,388.65016 C 131.44716,388.92956 131.10042,389.23638 130.68634,389.57065 C 130.27223,389.90492 129.79826,390.21924 129.26445,390.51359 C 128.7306,390.80795 128.14937,391.05242 127.52076,391.24699 C 126.89211,391.44157 126.22856,391.53886 125.5301,391.53886 C 124.9314,391.53886 124.39507,391.50892 123.92112,391.44905 C 123.44714,391.38918 123.02805,391.25697 122.66386,391.05242 C 122.29964,390.84786 121.98783,390.5585 121.7284,390.18431 C 121.46896,389.81013 121.26441,389.30873 121.11474,388.6801 C 120.77547,389.15905 120.3988,389.57564 119.98471,389.92987 C 119.57061,390.2841 119.13905,390.58095 118.69004,390.82042 C 118.24101,391.0599 117.7895,391.23951 117.33549,391.35925 C 116.88148,391.47899 116.44493,391.53886 116.02585,391.53886 C 115.42716,391.53886 114.90081,391.45404 114.4468,391.28441 C 113.99279,391.11478 113.60114,390.88778 113.27187,390.6034 C 112.94258,390.31902 112.67068,389.98974 112.45615,389.61556 C 112.24161,389.24137 112.06949,388.85222 111.93978,388.4481 C 111.81006,388.04399 111.72025,387.63488 111.67036,387.22078 C 111.62047,386.80669 111.59553,386.41505 111.59553,386.04585 C 111.59553,385.25758 111.68034,384.46181 111.84997,383.65856 C 112.0196,382.85532 112.27155,382.08201 112.60582,381.33863 C 112.94009,380.59526 113.35668,379.89928 113.85559,379.25069 C 114.3545,378.60211 114.93074,378.03835 115.58432,377.55938 C 116.23789,377.08044 116.96629,376.70376 117.76955,376.42935 C 118.57278,376.15496 119.45336,376.01776 120.41128,376.01774 C 120.69066,376.01776 120.94261,376.05019 121.16713,376.11503 C 121.39163,376.17991 121.59618,376.26472 121.78079,376.36948 C 121.96537,376.47426 122.13251,376.59151 122.28219,376.72121 C 122.43186,376.85094 122.57654,376.98565 122.71625,377.12533 L 123.21017,376.39193 L 125.26069,376.39193 C 125.23074,376.47177 125.19582,376.57654 125.15592,376.70624 C 125.11599,376.83597 125.07109,376.97567 125.02121,377.12533 L 124.88651,377.55938 C 124.84658,377.69909 124.80667,377.81883 124.76677,377.91859 C 125.42532,377.37978 126.13127,376.93326 126.88464,376.57902 C 127.63798,376.22481 128.41379,376.04769 129.21206,376.04768 C 129.9205,376.04769 130.50921,376.16494 130.97821,376.39941 C 131.44716,376.63391 131.82384,376.9158 132.10824,377.24506 C 132.3926,377.57436 132.59466,377.91362 132.71442,378.26284 C 132.83413,378.61209 132.894,378.89647 132.89402,379.11598 L 132.89402,379.11598 z M 120.84533,377.49951 C 120.06702,377.49952 119.37104,377.62675 118.75739,377.88118 C 118.14372,378.13563 117.60739,378.47988 117.1484,378.91392 C 116.6894,379.34799 116.29775,379.84939 115.97347,380.41814 C 115.64917,380.98691 115.38724,381.58061 115.18768,382.19925 C 114.98812,382.81791 114.84343,383.44154 114.75363,384.07016 C 114.66382,384.6988 114.61892,385.29749 114.61893,385.86624 C 114.61892,386.29531 114.65385,386.72437 114.7237,387.15343 C 114.79354,387.5825 114.91577,387.97165 115.0904,388.32088 C 115.26501,388.67012 115.50449,388.9545 115.80883,389.17402 C 116.11316,389.39354 116.5048,389.5033 116.98376,389.5033 C 117.2831,389.5033 117.6049,389.43844 117.94915,389.30873 C 118.2934,389.17901 118.62517,389.01686 118.94448,388.82229 C 119.26378,388.62771 119.55314,388.41817 119.81259,388.19366 C 120.07201,387.96915 120.27157,387.76211 120.41128,387.57252 L 121.98285,379.17585 L 120.84533,377.49951 z M 130.19991,379.08605 C 130.19989,378.68693 130.05021,378.34268 129.75089,378.0533 C 129.45152,377.76395 129.03743,377.61926 128.5086,377.61925 C 128.1793,377.61926 127.85002,377.70408 127.52076,377.87369 C 127.19146,378.04334 126.87714,378.27283 126.57781,378.56219 C 126.27845,378.85157 125.99407,379.18584 125.72468,379.565 C 125.45525,379.94418 125.20829,380.34331 124.9838,380.76239 C 124.75927,381.18148 124.56719,381.60555 124.40755,382.03461 C 124.24789,382.46368 124.12316,382.87279 124.03337,383.26193 C 124.46242,383.22202 124.91393,383.1397 125.38791,383.01497 C 125.86186,382.89025 126.32834,382.73309 126.78736,382.5435 C 127.24634,382.35392 127.68288,382.13689 128.097,381.89242 C 128.51108,381.64796 128.87279,381.37606 129.18213,381.0767 C 129.49143,380.77736 129.73839,380.46055 129.92301,380.12627 C 130.10759,379.79202 130.19989,379.44527 130.19991,379.08605 L 130.19991,379.08605 z M 148.71448,390.46121 C 148.45503,390.59093 148.15818,390.72064 147.82392,390.85036 C 147.48964,390.98008 147.14789,391.09483 146.79866,391.19461 C 146.44941,391.29439 146.10766,391.37671 145.7734,391.44157 C 145.43912,391.50643 145.15225,391.53886 144.91278,391.53886 C 144.66331,391.53886 144.41885,391.49645 144.17938,391.41163 C 143.93989,391.32682 143.71289,391.21706 143.49837,391.08235 C 143.28383,390.94765 143.08676,390.79298 142.90716,390.61837 C 142.72754,390.44375 142.57787,390.26663 142.45814,390.08703 C 142.31844,389.87748 142.16128,389.60558 141.98667,389.27131 C 141.81204,388.93704 141.62745,388.57034 141.43288,388.17121 C 141.2383,387.77208 141.04123,387.35549 140.84167,386.92144 C 140.6421,386.48739 140.45002,386.06831 140.26543,385.66418 C 140.08082,385.26007 139.91119,384.88339 139.75654,384.53415 C 139.60187,384.18492 139.46966,383.90054 139.3599,383.68101 L 137.95298,384.93827 L 136.69572,391.16467 L 133.88187,391.16467 L 137.95298,370.68938 L 135.25886,370.41997 L 135.25886,369.49199 L 140.0035,368.57899 L 141.23082,368.57899 L 138.38703,382.82788 L 143.34121,377.70905 C 143.63057,377.40972 143.89499,377.15278 144.13448,376.93823 C 144.37395,376.72372 144.60594,376.5491 144.83046,376.41438 C 145.05496,376.27969 145.28196,376.17991 145.51147,376.11503 C 145.74096,376.05019 145.99042,376.01776 146.25984,376.01774 C 146.59909,376.01776 146.89594,376.06765 147.15039,376.16742 C 147.40483,376.26721 147.61437,376.39693 147.77902,376.55657 C 147.94365,376.71623 148.06588,376.89584 148.14572,377.09539 C 148.22553,377.29497 148.26046,377.48954 148.25049,377.67912 C 148.25048,378.02837 148.08833,378.39008 147.76406,378.76425 C 147.43975,379.13844 146.91839,379.45026 146.19997,379.69971 L 145.15226,378.59212 C 144.87286,378.81166 144.57102,379.05612 144.24673,379.32552 C 143.92243,379.59495 143.59565,379.86935 143.26638,380.14872 C 142.93708,380.42813 142.62277,380.70253 142.32343,380.97193 C 142.02408,381.24135 141.75467,381.48083 141.5152,381.69036 C 141.64491,381.9498 141.7871,382.27409 141.94177,382.66323 C 142.09642,383.05239 142.26106,383.46898 142.43569,383.91301 C 142.6103,384.35704 142.79988,384.81105 143.00445,385.27503 C 143.20899,385.73902 143.42602,386.18056 143.65553,386.59964 C 143.88501,387.02871 144.12699,387.44031 144.38144,387.83444 C 144.63587,388.22859 144.8978,388.57782 145.16722,388.88216 C 145.43662,389.18649 145.71103,389.42847 145.99043,389.60807 C 146.2698,389.78768 146.54421,389.87748 146.81363,389.87748 C 146.92338,389.87748 147.05808,389.86501 147.21775,389.84006 C 147.37739,389.81512 147.54701,389.78269 147.72664,389.74278 C 147.90623,389.70287 148.08334,389.65297 148.25798,389.5931 C 148.43258,389.53324 148.58475,389.47337 148.71448,389.4135 L 148.71448,390.46121 z M 165.16356,390.43127 C 164.97396,390.54104 164.71203,390.66077 164.37778,390.79049 C 164.04349,390.92021 163.68178,391.03995 163.29264,391.14971 C 162.90348,391.25947 162.50685,391.35176 162.10274,391.4266 C 161.69861,391.50144 161.33191,391.53886 161.00264,391.53886 C 160.4239,391.53886 159.99483,391.44157 159.71546,391.24699 C 159.43605,391.05242 159.24397,390.82791 159.13921,390.57346 C 159.03443,390.31902 158.98704,390.06208 158.99702,389.80265 C 159.00699,389.54321 159.01198,389.35363 159.01199,389.23389 C 158.20375,390.00221 157.35809,390.57845 156.47503,390.96261 C 155.59195,391.34678 154.63654,391.53886 153.60879,391.53886 C 152.90033,391.53886 152.3216,391.41413 151.87258,391.16467 C 151.42356,390.91522 151.0843,390.6009 150.8548,390.22173 C 150.6253,389.84256 150.48561,389.42847 150.43572,388.97944 C 150.38582,388.53043 150.40079,388.10635 150.48062,387.70722 L 152.47127,378.1431 L 149.89689,377.85872 L 149.89689,376.97565 L 154.5218,376.01774 L 155.77905,376.01774 L 153.33938,387.70722 C 153.2795,387.96666 153.29198,388.21362 153.3768,388.4481 C 153.46161,388.68259 153.58633,388.88715 153.75098,389.06176 C 153.91561,389.23638 154.10271,389.37608 154.31225,389.48085 C 154.52179,389.58562 154.72634,389.63801 154.92591,389.63801 C 155.2951,389.63801 155.66679,389.58562 156.04098,389.48085 C 156.41515,389.37608 156.78684,389.23389 157.15604,389.05428 C 157.52523,388.87468 157.87946,388.66763 158.21872,388.43314 C 158.55797,388.19865 158.87229,387.9467 159.16166,387.67729 L 161.4816,376.39193 L 164.34036,376.39193 L 161.88572,388.18618 C 161.81586,388.50548 161.81586,388.7724 161.88572,388.98693 C 161.95555,389.20146 162.06282,389.37857 162.20751,389.51827 C 162.35218,389.65796 162.51683,389.75775 162.70144,389.81761 C 162.88602,389.87748 163.06313,389.90742 163.23278,389.90742 C 163.43233,389.90742 163.69675,389.87748 164.02604,389.81761 C 164.35531,389.75775 164.73448,389.60308 165.16356,389.35363 L 165.16356,390.43127 z M 177.81094,378.08323 C 177.81093,378.44246 177.74607,378.72934 177.61637,378.94386 C 177.48664,379.1584 177.30204,379.32055 177.06258,379.43029 C 176.82309,379.54007 176.53621,379.61241 176.20196,379.64732 C 175.86768,379.68225 175.491,379.69972 175.07192,379.69971 L 174.33852,378.23291 C 173.95934,378.39257 173.55273,378.66947 173.11869,379.06359 C 172.68463,379.45775 172.27303,379.90676 171.88388,380.41065 C 171.49473,380.91456 171.15547,381.43343 170.86611,381.96725 C 170.57673,382.5011 170.38715,382.99252 170.29735,383.44154 L 168.69584,391.16467 L 165.85205,391.16467 L 168.4863,378.1431 L 165.91192,377.85872 L 165.91192,376.97565 L 170.53683,376.01774 L 171.76415,376.01774 L 171.12055,379.11598 C 171.74917,378.14811 172.46261,377.38976 173.26088,376.84095 C 174.05913,376.29216 174.92224,376.01776 175.85022,376.01774 C 176.21941,376.01776 176.52873,376.08511 176.7782,376.2198 C 177.02764,376.35452 177.2297,376.52665 177.38437,376.73618 C 177.53902,376.94573 177.64878,377.17024 177.71366,377.40971 C 177.7785,377.6492 177.81093,377.87371 177.81094,378.08323 L 177.81094,378.08323 z M 199.25911,370.47984 C 199.2591,370.96879 199.07949,371.34547 198.72029,371.60987 C 198.36106,371.87431 197.89708,372.04643 197.32833,372.12624 L 194.93356,370.19546 C 194.71403,370.37509 194.50948,370.63452 194.3199,370.97376 C 194.1303,371.31304 193.95569,371.6972 193.79604,372.12624 C 193.63638,372.55532 193.48921,373.01183 193.35451,373.49575 C 193.21979,373.97971 193.10255,374.44869 193.00277,374.90268 C 192.90299,375.3567 192.81817,375.78078 192.74833,376.1749 C 192.67848,376.56906 192.6236,376.89584 192.58369,377.15526 L 196.32552,377.15526 L 196.32552,378.68193 L 192.29931,378.68193 C 192.26937,378.91144 192.21698,379.31057 192.14215,379.87931 C 192.06731,380.44808 191.97501,381.10664 191.86526,381.855 C 191.75549,382.60337 191.63825,383.40412 191.51353,384.25725 C 191.38879,385.1104 191.26407,385.9336 191.13934,386.72686 C 191.01461,387.52013 190.89238,388.25104 190.77264,388.91957 C 190.6529,389.58812 190.54813,390.11197 190.45833,390.49114 C 190.31863,391.0599 190.12655,391.64612 189.88209,392.2498 C 189.63762,392.85348 189.34825,393.4397 189.01398,394.00846 C 188.67971,394.57722 188.31052,395.11604 187.9064,395.62493 C 187.50228,396.13382 187.07322,396.57785 186.61921,396.95703 C 186.1652,397.33619 185.69124,397.63554 185.19732,397.85507 C 184.7034,398.07458 184.20199,398.18434 183.6931,398.18435 C 183.30395,398.18434 182.98216,398.11948 182.72771,397.98977 C 182.47327,397.86005 182.2762,397.70788 182.1365,397.53327 C 181.99681,397.35864 181.89952,397.18901 181.84464,397.02438 C 181.78976,396.85973 181.76232,396.7375 181.76232,396.65768 C 181.76232,396.26852 181.83716,395.96668 181.98683,395.75216 C 182.1365,395.53762 182.32609,395.34554 182.55559,395.17591 L 185.68376,395.98415 C 185.95317,395.65486 186.20013,395.25075 186.42464,394.7718 C 186.64915,394.29284 186.8537,393.76399 187.0383,393.18526 C 187.22289,392.60652 187.39003,391.98538 187.5397,391.32183 C 187.68937,390.65828 187.82408,389.97228 187.94382,389.26382 C 188.20325,387.81699 188.44273,386.20301 188.66225,384.42189 C 188.88177,382.64079 189.14619,380.74244 189.45552,378.72683 L 187.09068,378.96631 L 187.12062,377.76892 L 189.7848,376.88585 C 189.88458,376.34704 190.02178,375.76581 190.1964,375.14216 C 190.37102,374.51853 190.58804,373.89989 190.84748,373.28621 C 191.10691,372.67257 191.41374,372.08136 191.76797,371.51258 C 192.12219,370.94384 192.5288,370.44244 192.98781,370.00837 C 193.4468,369.57433 193.96317,369.22759 194.53693,368.96814 C 195.11066,368.70873 195.74677,368.57901 196.44526,368.57899 C 196.96411,368.57901 197.40316,368.64387 197.76238,368.77356 C 198.12159,368.9033 198.41095,369.06545 198.63049,369.26 C 198.84999,369.4546 199.00965,369.66164 199.10944,369.88114 C 199.20921,370.10068 199.2591,370.30025 199.25911,370.47984 L 199.25911,370.47984 z M 210.15533,378.50232 C 210.03557,378.62207 209.86095,378.84159 209.63147,379.16088 C 209.40196,379.4802 209.16497,379.83941 208.92052,380.23853 C 208.67604,380.63767 208.43657,381.04927 208.20209,381.47333 C 207.96759,381.89742 207.7805,382.2691 207.64082,382.5884 C 207.42128,383.07734 207.16434,383.67104 206.87,384.36951 C 206.57563,385.06799 206.24635,385.81885 205.88216,386.62209 C 205.51794,387.42534 205.12131,388.25852 204.69225,389.12163 C 204.26318,389.98475 203.80418,390.8304 203.31526,391.65859 C 202.8363,392.46683 202.32492,393.26259 201.78111,394.04588 C 201.23729,394.82917 200.66105,395.52764 200.05238,396.14131 C 199.44371,396.75496 198.80261,397.24888 198.12908,397.62307 C 197.45555,397.99725 196.75458,398.18434 196.02618,398.18435 C 195.4674,398.18434 195.00341,398.11449 194.63421,397.9748 C 194.26502,397.8351 193.97066,397.66298 193.75114,397.45843 C 193.53162,397.25387 193.37946,397.03435 193.29464,396.79987 C 193.20983,396.56538 193.16742,396.35334 193.16742,396.16376 C 193.16742,395.93425 193.21981,395.71224 193.32457,395.49771 C 193.42935,395.28318 193.57653,395.09359 193.76611,394.92895 C 193.9557,394.76431 194.18021,394.6321 194.43964,394.53232 C 194.69907,394.43253 194.97846,394.37267 195.27781,394.35271 L 197.05892,396.13382 C 197.37822,396.10388 197.69253,395.97666 198.00186,395.75216 C 198.31118,395.52764 198.63797,395.19088 198.98222,394.74186 C 199.32647,394.29284 199.70314,393.72907 200.11225,393.05056 C 200.52136,392.37204 200.98534,391.55881 201.50421,390.61088 C 201.48425,390.49114 201.43436,390.22423 201.35454,389.81013 C 201.27471,389.39604 201.17742,388.89214 201.06268,388.29843 C 200.94792,387.70473 200.81821,387.04866 200.67353,386.33023 C 200.52884,385.6118 200.37667,384.88339 200.21703,384.145 C 200.05737,383.42658 199.89023,382.70565 199.71562,381.98222 C 199.541,381.25881 199.37137,380.60773 199.20673,380.02899 C 199.04209,379.45026 198.89491,378.9763 198.76519,378.60709 C 198.63548,378.23791 198.53569,378.04832 198.46585,378.03833 L 195.68193,377.82879 L 195.68193,377.06546 L 196.10101,376.93075 C 196.30058,376.86092 196.5201,376.78858 196.75957,376.71372 C 196.99905,376.6389 197.25349,376.55908 197.52291,376.47425 C 197.79232,376.38945 198.04676,376.31461 198.28624,376.24974 C 198.52571,376.18489 198.74274,376.13001 198.93732,376.0851 C 199.13189,376.04021 199.27408,376.01776 199.36389,376.01774 C 199.69316,376.01776 199.98253,376.09509 200.23199,376.24974 C 200.48144,376.40442 200.70346,376.62643 200.89804,376.91578 C 201.09261,377.20517 201.27222,377.55191 201.43686,377.95601 C 201.6015,378.36014 201.75865,378.81665 201.90833,379.32552 C 202.16776,380.23355 202.43717,381.35859 202.71657,382.70065 C 202.99595,384.04273 203.28532,385.53697 203.58467,387.18337 L 208.25448,376.01774 L 209.13755,376.01774 L 211.68199,376.85591 L 211.68199,377.55938 L 210.15533,378.50232 z M 223.43133,378.08323 C 223.43132,378.44246 223.36646,378.72934 223.23676,378.94386 C 223.10703,379.1584 222.92243,379.32055 222.68297,379.43029 C 222.44348,379.54007 222.15661,379.61241 221.82235,379.64732 C 221.48807,379.68225 221.11139,379.69972 220.69232,379.69971 L 219.95892,378.23291 C 219.57974,378.39257 219.17312,378.66947 218.73908,379.06359 C 218.30502,379.45775 217.89342,379.90676 217.50428,380.41065 C 217.11512,380.91456 216.77586,381.43343 216.4865,381.96725 C 216.19712,382.5011 216.00754,382.99252 215.91774,383.44154 L 214.31624,391.16467 L 211.47245,391.16467 L 214.10669,378.1431 L 211.53232,377.85872 L 211.53232,376.97565 L 216.15722,376.01774 L 217.38454,376.01774 L 216.74094,379.11598 C 217.36956,378.14811 218.08301,377.38976 218.88127,376.84095 C 219.67952,376.29216 220.54263,376.01776 221.47062,376.01774 C 221.8398,376.01776 222.14912,376.08511 222.39859,376.2198 C 222.64803,376.35452 222.85009,376.52665 223.00477,376.73618 C 223.15942,376.94573 223.26918,377.17024 223.33405,377.40971 C 223.39889,377.6492 223.43132,377.87371 223.43133,378.08323 L 223.43133,378.08323 z M 230.45101,390.2816 C 230.33126,390.33149 230.11174,390.42629 229.79245,390.56598 C 229.47314,390.70568 229.09895,390.84786 228.6699,390.99255 C 228.24083,391.13723 227.78932,391.26445 227.31536,391.37422 C 226.84139,391.48398 226.39486,391.53886 225.97578,391.53886 C 225.44693,391.53886 225.02785,391.44905 224.71853,391.26944 C 224.4092,391.08984 224.1797,390.85535 224.03003,390.56598 C 223.88035,390.27661 223.79554,389.95232 223.77558,389.5931 C 223.75563,389.23389 223.78057,388.87966 223.85042,388.53042 L 225.81114,378.1431 L 223.17689,377.85872 L 223.17689,376.97565 L 227.80179,376.01774 L 229.05905,376.01774 L 226.73911,388.27598 C 226.6992,388.48553 226.70169,388.68509 226.7466,388.87467 C 226.7915,389.06426 226.86633,389.2314 226.97111,389.37608 C 227.07587,389.52076 227.21058,389.63551 227.37523,389.72033 C 227.53986,389.80514 227.72695,389.84755 227.9365,389.84755 C 228.1161,389.84755 228.32814,389.81512 228.57261,389.75026 C 228.81707,389.6854 229.06154,389.61057 229.30601,389.52575 C 229.55047,389.44094 229.77747,389.35862 229.98702,389.27879 C 230.19656,389.19897 230.35122,389.14409 230.45101,389.11415 L 230.45101,390.2816 z M 230.3163,371.51258 C 230.3163,371.7421 230.27389,371.95913 230.18908,372.16366 C 230.10426,372.36823 229.98452,372.55033 229.82987,372.70997 C 229.6752,372.86964 229.48312,372.99686 229.25362,373.09163 C 229.02412,373.18644 228.7597,373.23384 228.46036,373.23382 C 227.83172,373.23384 227.35776,373.06671 227.03846,372.73242 C 226.71915,372.39817 226.5595,371.99155 226.55951,371.51258 C 226.5595,371.31304 226.60191,371.11347 226.68673,370.91389 C 226.77154,370.71434 226.89627,370.53224 227.06091,370.36758 C 227.22555,370.20296 227.42761,370.06826 227.66709,369.96346 C 227.90656,369.85871 228.18096,369.80633 228.49029,369.80631 C 228.77965,369.80633 229.03659,369.85622 229.26111,369.95598 C 229.48561,370.05578 229.67769,370.1855 229.83735,370.34513 C 229.99699,370.5048 230.11673,370.6869 230.19657,370.89144 C 230.27638,371.09601 230.3163,371.30306 230.3163,371.51258 L 230.3163,371.51258 z M 243.06847,378.08323 C 243.06845,378.44246 243.00359,378.72934 242.87389,378.94386 C 242.74416,379.1584 242.55956,379.32055 242.3201,379.43029 C 242.08061,379.54007 241.79374,379.61241 241.45948,379.64732 C 241.1252,379.68225 240.74852,379.69972 240.32945,379.69971 L 239.59605,378.23291 C 239.21687,378.39257 238.81025,378.66947 238.37621,379.06359 C 237.94215,379.45775 237.53055,379.90676 237.14141,380.41065 C 236.75225,380.91456 236.41299,381.43343 236.12363,381.96725 C 235.83426,382.5011 235.64467,382.99252 235.55487,383.44154 L 233.95337,391.16467 L 231.10958,391.16467 L 233.74382,378.1431 L 231.16945,377.85872 L 231.16945,376.97565 L 235.79435,376.01774 L 237.02167,376.01774 L 236.37807,379.11598 C 237.00669,378.14811 237.72014,377.38976 238.5184,376.84095 C 239.31665,376.29216 240.17976,376.01776 241.10775,376.01774 C 241.47693,376.01776 241.78625,376.08511 242.03572,376.2198 C 242.28516,376.35452 242.48722,376.52665 242.6419,376.73618 C 242.79655,376.94573 242.90631,377.17024 242.97118,377.40971 C 243.03602,377.6492 243.06845,377.87371 243.06847,378.08323 L 243.06847,378.08323 z M 262.46611,381.84003 C 262.4661,381.11163 262.39626,380.46804 262.25657,379.90925 C 262.11687,379.35048 261.92728,378.8815 261.68781,378.50232 C 261.44833,378.12316 261.16145,377.83379 260.82719,377.63422 C 260.49291,377.43466 260.1312,377.33488 259.74206,377.33487 C 259.07351,377.33488 258.45237,377.57685 257.87863,378.06078 C 257.30488,378.54474 256.80846,379.17836 256.38938,379.96163 C 255.97029,380.74493 255.64101,381.628 255.40154,382.61085 C 255.16206,383.59371 255.04232,384.58405 255.04232,385.58186 C 255.04232,386.34021 255.11217,387.00376 255.25187,387.57252 C 255.39156,388.14128 255.58613,388.61774 255.83559,389.0019 C 256.08504,389.38606 256.37441,389.67293 256.7037,389.86252 C 257.03297,390.0521 257.39219,390.1469 257.78134,390.1469 C 258.26029,390.1469 258.7118,390.02466 259.13589,389.7802 C 259.55995,389.53573 259.94411,389.20645 260.28837,388.79235 C 260.63261,388.37826 260.93944,387.89681 261.20886,387.34801 C 261.47826,386.79921 261.70776,386.21798 261.89736,385.60431 C 262.08693,384.99066 262.22912,384.35954 262.32392,383.71095 C 262.41871,383.06237 262.4661,382.43873 262.46611,381.84003 L 262.46611,381.84003 z M 265.56435,381.97474 C 265.56434,382.80294 265.47204,383.61367 265.28745,384.40693 C 265.10284,385.2002 264.83842,385.95106 264.49419,386.65951 C 264.14992,387.36797 263.73583,388.01904 263.2519,388.61274 C 262.76794,389.20645 262.22413,389.72033 261.62046,390.15438 C 261.01677,390.58843 260.3607,390.92769 259.65226,391.17216 C 258.9438,391.41662 258.19543,391.53886 257.40716,391.53886 C 256.56898,391.53886 255.81064,391.40415 255.13213,391.13474 C 254.45361,390.86533 253.87986,390.47867 253.41089,389.97477 C 252.94191,389.47087 252.5802,388.8622 252.32575,388.14876 C 252.07131,387.43532 251.94409,386.63457 251.94409,385.7465 C 251.94409,384.91832 252.03389,384.1026 252.2135,383.29935 C 252.39311,382.49611 252.65005,381.73527 252.98432,381.01683 C 253.31858,380.29841 253.7252,379.63236 254.20415,379.01869 C 254.6831,378.40504 255.22442,377.8762 255.82811,377.43216 C 256.43178,376.98814 257.09035,376.6414 257.80379,376.39193 C 258.51723,376.14249 259.27308,376.01776 260.07134,376.01774 C 260.80972,376.01776 261.51069,376.13251 262.17425,376.36199 C 262.83779,376.59151 263.42152,376.95072 263.92543,377.43964 C 264.42931,377.92859 264.82844,378.54723 265.12281,379.29559 C 265.41716,380.04396 265.56434,380.93701 265.56435,381.97474 L 265.56435,381.97474 z M 277.68788,381.8101 C 277.68786,381.36109 277.64047,380.90458 277.54569,380.44059 C 277.45088,379.97661 277.3062,379.55503 277.11163,379.17585 C 276.91705,378.79669 276.67009,378.48737 276.37075,378.24788 C 276.0714,378.00841 275.71717,377.88867 275.30807,377.88866 C 274.93887,377.88867 274.56968,377.97099 274.20049,378.13562 C 273.83129,378.30027 273.49452,378.48487 273.1902,378.68941 C 272.88585,378.89398 272.62393,379.09354 272.40441,379.2881 C 272.18489,379.48269 272.03521,379.60991 271.95539,379.66977 L 270.12938,389.17402 C 270.21918,389.22391 270.3464,389.30124 270.51105,389.40601 C 270.67568,389.51079 270.86776,389.61306 271.08729,389.71284 C 271.3068,389.81263 271.54129,389.89994 271.79075,389.97477 C 272.0402,390.04961 272.29963,390.08703 272.56905,390.08703 C 273.12783,390.08703 273.6417,389.9623 274.11069,389.71284 C 274.57965,389.46339 275.00373,389.12662 275.38291,388.70255 C 275.76207,388.27848 276.09634,387.78705 276.38572,387.22827 C 276.67508,386.66949 276.91455,386.08327 277.10415,385.46961 C 277.29373,384.85595 277.43841,384.23481 277.5382,383.60618 C 277.63797,382.97756 277.68786,382.37886 277.68788,381.8101 L 277.68788,381.8101 z M 280.72624,381.69036 C 280.72623,382.52854 280.62645,383.35423 280.4269,384.16745 C 280.22732,384.98068 279.94044,385.7515 279.56627,386.4799 C 279.19208,387.20832 278.74057,387.88184 278.21173,388.50049 C 277.68288,389.11914 277.09416,389.65297 276.44559,390.10199 C 275.79699,390.55101 275.09353,390.90275 274.3352,391.15719 C 273.57684,391.41163 272.78358,391.53886 271.95539,391.53886 C 271.49639,391.53886 271.08229,391.474 270.7131,391.34428 C 270.34391,391.21456 270.03458,391.09483 269.78513,390.98507 L 268.81225,395.90931 C 268.77234,396.07894 268.79479,396.21614 268.87961,396.32091 C 268.96442,396.42568 269.14153,396.49303 269.41095,396.52297 L 271.34173,396.68761 L 271.34173,397.8401 L 263.61859,397.8401 L 263.61859,396.68761 L 265.2201,396.52297 C 265.64916,396.49303 265.89363,396.28848 265.9535,395.90931 L 269.41095,378.1431 L 266.83657,377.85872 L 266.83657,376.97565 L 271.47644,376.01774 L 272.67382,376.01774 L 272.29964,377.91859 C 272.55907,377.74898 272.85592,377.5544 273.1902,377.33487 C 273.52446,377.11536 273.88118,376.90831 274.26036,376.71372 C 274.63952,376.51916 275.03616,376.35452 275.45026,376.2198 C 275.86435,376.08511 276.28593,376.01776 276.715,376.01774 C 277.49329,376.01776 278.13938,376.18489 278.65327,376.51915 C 279.16713,376.85343 279.57624,377.28998 279.88059,377.82879 C 280.18491,378.36763 280.40194,378.9763 280.53167,379.6548 C 280.66137,380.33333 280.72623,381.01185 280.72624,381.69036 L 280.72624,381.69036 z M 289.84133,390.2816 C 289.72158,390.33149 289.50206,390.42629 289.18277,390.56598 C 288.86346,390.70568 288.48927,390.84786 288.06022,390.99255 C 287.63115,391.13723 287.17964,391.26445 286.70568,391.37422 C 286.23171,391.48398 285.78518,391.53886 285.3661,391.53886 C 284.83725,391.53886 284.41817,391.44905 284.10885,391.26944 C 283.79952,391.08984 283.57002,390.85535 283.42035,390.56598 C 283.27067,390.27661 283.18586,389.95232 283.1659,389.5931 C 283.14595,389.23389 283.17089,388.87966 283.24074,388.53042 L 285.20146,378.1431 L 282.56721,377.85872 L 282.56721,376.97565 L 287.19211,376.01774 L 288.44937,376.01774 L 286.12943,388.27598 C 286.08952,388.48553 286.09201,388.68509 286.13692,388.87467 C 286.18182,389.06426 286.25665,389.2314 286.36143,389.37608 C 286.46619,389.52076 286.6009,389.63551 286.76555,389.72033 C 286.93018,389.80514 287.11727,389.84755 287.32682,389.84755 C 287.50642,389.84755 287.71846,389.81512 287.96293,389.75026 C 288.20739,389.6854 288.45186,389.61057 288.69633,389.52575 C 288.94079,389.44094 289.16779,389.35862 289.37734,389.27879 C 289.58688,389.19897 289.74154,389.14409 289.84133,389.11415 L 289.84133,390.2816 z M 289.70662,371.51258 C 289.70662,371.7421 289.66421,371.95913 289.5794,372.16366 C 289.49458,372.36823 289.37484,372.55033 289.22019,372.70997 C 289.06552,372.86964 288.87344,372.99686 288.64394,373.09163 C 288.41444,373.18644 288.15002,373.23384 287.85068,373.23382 C 287.22204,373.23384 286.74808,373.06671 286.42878,372.73242 C 286.10947,372.39817 285.94982,371.99155 285.94983,371.51258 C 285.94982,371.31304 285.99223,371.11347 286.07705,370.91389 C 286.16186,370.71434 286.28659,370.53224 286.45123,370.36758 C 286.61587,370.20296 286.81793,370.06826 287.05741,369.96346 C 287.29688,369.85871 287.57128,369.80633 287.88061,369.80631 C 288.16997,369.80633 288.42691,369.85622 288.65143,369.95598 C 288.87593,370.05578 289.06801,370.1855 289.22767,370.34513 C 289.38731,370.5048 289.50705,370.6869 289.58688,370.89144 C 289.6667,371.09601 289.70662,371.30306 289.70662,371.51258 L 289.70662,371.51258 z M 306.06592,390.55101 C 305.93619,390.6009 305.70919,390.67824 305.38491,390.78301 C 305.0606,390.88778 304.69889,390.99754 304.29978,391.11229 C 303.90064,391.22704 303.49153,391.32682 303.07246,391.41163 C 302.65336,391.49645 302.28417,391.53886 301.96488,391.53886 C 301.78526,391.53886 301.5383,391.52139 301.224,391.48647 C 300.90967,391.45155 300.60783,391.37172 300.31847,391.24699 C 300.0291,391.12227 299.79461,390.94016 299.61501,390.70069 C 299.43539,390.46121 299.39049,390.13692 299.4803,389.72781 L 301.35122,380.31337 C 301.42105,379.90427 301.42355,379.56501 301.3587,379.29559 C 301.29383,379.02619 301.18906,378.80916 301.04439,378.64451 C 300.89969,378.47988 300.73256,378.36513 300.54298,378.30026 C 300.35339,378.23542 300.17378,378.20299 300.00416,378.20297 C 299.75469,378.20299 299.44787,378.27533 299.08367,378.42 C 298.71946,378.5647 298.3353,378.75678 297.93119,378.99624 C 297.52706,379.23573 297.12045,379.51761 296.71135,379.84189 C 296.30224,380.1662 295.92805,380.50795 295.5888,380.86716 L 293.47841,391.16467 L 290.61965,391.16467 L 293.28383,378.1431 L 290.70945,377.85872 L 290.70945,376.97565 L 295.33436,376.01774 L 296.56168,376.01774 L 295.99292,378.8765 C 296.33217,378.53726 296.72132,378.1955 297.16037,377.85124 C 297.5994,377.50701 298.06838,377.20018 298.5673,376.93075 C 299.0662,376.66135 299.58257,376.44183 300.11641,376.27219 C 300.65024,376.10257 301.1716,376.01776 301.6805,376.01774 C 302.79805,376.01776 303.59381,376.32708 304.06779,376.94572 C 304.54174,377.56438 304.65898,378.5622 304.41952,379.93918 L 302.78808,388.59029 C 302.73818,388.87966 302.76063,389.10916 302.85543,389.27879 C 302.95021,389.44842 303.07494,389.57814 303.22962,389.66794 C 303.38427,389.75775 303.54641,389.81512 303.71606,389.84006 C 303.88567,389.86501 304.01539,389.87748 304.10521,389.87748 C 304.38458,389.87748 304.68892,389.83757 305.01821,389.75774 C 305.34748,389.67792 305.68674,389.58313 306.03599,389.47337 L 306.06592,390.55101 z M 322.2905,390.55101 C 322.16077,390.6009 321.93377,390.67824 321.60949,390.78301 C 321.28518,390.88778 320.92347,390.99754 320.52436,391.11229 C 320.12522,391.22704 319.71611,391.32682 319.29704,391.41163 C 318.87794,391.49645 318.50875,391.53886 318.18946,391.53886 C 318.00984,391.53886 317.76288,391.52139 317.44858,391.48647 C 317.13425,391.45155 316.83241,391.37172 316.54305,391.24699 C 316.25367,391.12227 316.01919,390.94016 315.83959,390.70069 C 315.65997,390.46121 315.61507,390.13692 315.70488,389.72781 L 317.5758,380.31337 C 317.64563,379.90427 317.64813,379.56501 317.58328,379.29559 C 317.51841,379.02619 317.41364,378.80916 317.26897,378.64451 C 317.12427,378.47988 316.95714,378.36513 316.76756,378.30026 C 316.57797,378.23542 316.39836,378.20299 316.22874,378.20297 C 315.97927,378.20299 315.67244,378.27533 315.30825,378.42 C 314.94404,378.5647 314.55987,378.75678 314.15577,378.99624 C 313.75164,379.23573 313.34503,379.51761 312.93593,379.84189 C 312.52682,380.1662 312.15263,380.50795 311.81338,380.86716 L 309.70299,391.16467 L 306.84423,391.16467 L 309.50841,378.1431 L 306.93403,377.85872 L 306.93403,376.97565 L 311.55893,376.01774 L 312.78626,376.01774 L 312.2175,378.8765 C 312.55675,378.53726 312.9459,378.1955 313.38495,377.85124 C 313.82398,377.50701 314.29296,377.20018 314.79188,376.93075 C 315.29078,376.66135 315.80715,376.44183 316.34099,376.27219 C 316.87482,376.10257 317.39618,376.01776 317.90508,376.01774 C 319.02263,376.01776 319.81839,376.32708 320.29237,376.94572 C 320.76632,377.56438 320.88356,378.5622 320.6441,379.93918 L 319.01266,388.59029 C 318.96276,388.87966 318.98521,389.10916 319.08001,389.27879 C 319.17479,389.44842 319.29952,389.57814 319.4542,389.66794 C 319.60885,389.75775 319.77099,389.81512 319.94063,389.84006 C 320.11025,389.86501 320.23997,389.87748 320.32978,389.87748 C 320.60916,389.87748 320.9135,389.83757 321.24279,389.75774 C 321.57206,389.67792 321.91132,389.58313 322.26057,389.47337 L 322.2905,390.55101 z M 347.34579,390.40134 C 347.21605,390.45123 346.98905,390.53605 346.66477,390.65578 C 346.34047,390.77552 345.97876,390.90275 345.57964,391.03745 C 345.1805,391.17216 344.77139,391.2894 344.35232,391.38918 C 343.93322,391.48896 343.56403,391.53886 343.24474,391.53886 C 343.05514,391.53886 342.81567,391.51142 342.52631,391.45654 C 342.23693,391.40166 341.96502,391.30187 341.71059,391.15719 C 341.45614,391.01251 341.25408,390.81045 341.10441,390.55101 C 340.95473,390.29158 340.91981,389.95232 340.99964,389.53323 L 342.87056,380.49297 C 342.96035,380.09386 342.95287,379.73963 342.84811,379.43029 C 342.74332,379.12098 342.59615,378.86404 342.40657,378.65948 C 342.21697,378.45494 342.00743,378.30027 341.77794,378.19549 C 341.54843,378.09073 341.34887,378.03835 341.17925,378.03833 C 340.93976,378.03835 340.6479,378.09822 340.30366,378.21794 C 339.95941,378.33769 339.5952,378.50233 339.21105,378.71186 C 338.82688,378.92142 338.44022,379.17337 338.05108,379.46771 C 337.66192,379.76208 337.29772,380.08388 336.95847,380.4331 L 334.71337,391.16467 L 331.89951,391.16467 L 336.1203,370.68938 L 333.39624,370.41997 L 333.39624,369.49199 L 338.18579,368.57899 L 339.41311,368.57899 L 337.34762,378.47239 C 337.65693,378.13314 338.02363,377.81384 338.44771,377.51448 C 338.87178,377.21514 339.32579,376.95322 339.80974,376.72869 C 340.29368,376.5042 340.79757,376.32958 341.32144,376.20484 C 341.84529,376.08012 342.36166,376.01776 342.87056,376.01774 C 343.42933,376.01776 343.92325,376.10507 344.35232,376.27967 C 344.78137,376.45431 345.12811,376.71374 345.39255,377.05797 C 345.65696,377.40224 345.82659,377.83379 345.90144,378.35265 C 345.97626,378.87153 345.93884,379.47521 345.78919,380.16369 L 344.09788,388.41069 C 344.038,388.70006 344.05296,388.94203 344.14278,389.1366 C 344.23257,389.33118 344.3548,389.48584 344.50948,389.60059 C 344.66413,389.71534 344.82627,389.79516 344.99592,389.84006 C 345.16553,389.88497 345.29525,389.90742 345.38507,389.90742 C 345.66444,389.90742 345.96878,389.83757 346.29807,389.69788 C 346.62734,389.55818 346.9666,389.43345 347.31585,389.32369 L 347.34579,390.40134 z M 357.44874,379.08605 C 357.44873,378.88649 357.40882,378.68942 357.329,378.49484 C 357.24917,378.30027 357.13941,378.12815 356.99972,377.97846 C 356.86002,377.8288 356.6854,377.70657 356.47587,377.61176 C 356.26632,377.51698 356.03682,377.46959 355.78737,377.46957 C 355.4481,377.46959 355.12381,377.55939 354.81449,377.73899 C 354.50516,377.91861 354.20831,378.15808 353.92394,378.45742 C 353.63955,378.75678 353.37513,379.10102 353.13067,379.49016 C 352.8862,379.87932 352.66668,380.28843 352.47211,380.71748 C 352.27753,381.14656 352.10541,381.58061 351.95574,382.01964 C 351.80606,382.45869 351.68632,382.87279 351.59652,383.26193 C 352.2451,383.20207 352.91613,383.05239 353.60963,382.81291 C 354.3031,382.57344 354.93423,382.26661 355.50299,381.89242 C 356.07174,381.51824 356.53822,381.09168 356.90244,380.61271 C 357.26663,380.13377 357.44873,379.62488 357.44874,379.08605 L 357.44874,379.08605 z M 360.1728,379.11598 C 360.17278,379.67477 360.04307,380.18865 359.78365,380.65761 C 359.5242,381.1266 359.17247,381.55067 358.72845,381.92984 C 358.28441,382.30902 357.77053,382.64578 357.18682,382.94013 C 356.60308,383.2345 355.98942,383.48395 355.34583,383.6885 C 354.70223,383.89306 354.04617,384.0577 353.37763,384.18242 C 352.70909,384.30715 352.07048,384.38448 351.46182,384.41441 C 351.43188,384.61398 351.40444,384.85346 351.37949,385.13284 C 351.35455,385.41224 351.34207,385.64673 351.34208,385.83631 C 351.34207,386.39509 351.40943,386.90897 351.54414,387.37794 C 351.67884,387.84692 351.87341,388.25353 352.12786,388.59778 C 352.3823,388.94203 352.68913,389.21144 353.04835,389.40601 C 353.40756,389.60059 353.81168,389.69788 354.2607,389.69788 C 354.94919,389.69788 355.70754,389.44842 356.53574,388.94951 C 357.36392,388.4506 358.34178,387.70723 359.46933,386.71938 L 359.46933,388.65016 C 359.17995,388.92956 358.82573,389.23638 358.40665,389.57065 C 357.98756,389.90492 357.5111,390.21924 356.97727,390.51359 C 356.44343,390.80795 355.8622,391.05242 355.23358,391.24699 C 354.60495,391.44157 353.94139,391.53886 353.24293,391.53886 C 352.9336,391.53886 352.59683,391.50892 352.23263,391.44905 C 351.86842,391.38918 351.50671,391.28192 351.1475,391.12725 C 350.78828,390.97259 350.44154,390.76056 350.10727,390.49114 C 349.773,390.22173 349.47864,389.87998 349.2242,389.46588 C 348.96975,389.05179 348.7652,388.55787 348.61054,387.98412 C 348.45588,387.41037 348.37855,386.73435 348.37855,385.95605 C 348.37855,385.14782 348.47583,384.34208 348.67041,383.53882 C 348.86498,382.73559 349.13938,381.96726 349.49361,381.23386 C 349.84784,380.50047 350.2744,379.81696 350.77332,379.18333 C 351.27223,378.54973 351.82103,378.00093 352.41972,377.53693 C 353.01841,377.07295 353.65951,376.70875 354.34302,376.44431 C 355.02652,376.17991 355.73248,376.04769 356.4609,376.04768 C 357.16934,376.04769 357.76055,376.16494 358.23453,376.39941 C 358.70848,376.63391 359.09015,376.9158 359.37953,377.24506 C 359.66888,377.57436 359.87344,377.91362 359.99319,378.26284 C 360.11291,378.61209 360.17278,378.89647 360.1728,379.11598 L 360.1728,379.11598 z M 368.80892,390.2816 C 368.68917,390.33149 368.46965,390.42629 368.15036,390.56598 C 367.83105,390.70568 367.45687,390.84786 367.02781,390.99255 C 366.59874,391.13723 366.14723,391.26445 365.67327,391.37422 C 365.1993,391.48398 364.75277,391.53886 364.33369,391.53886 C 363.80484,391.53886 363.38576,391.44905 363.07644,391.26944 C 362.76711,391.08984 362.53761,390.85535 362.38794,390.56598 C 362.23826,390.27661 362.15345,389.95232 362.13349,389.5931 C 362.11354,389.23389 362.13848,388.87966 362.20833,388.53042 L 364.16905,378.1431 L 361.5348,377.85872 L 361.5348,376.97565 L 366.1597,376.01774 L 367.41696,376.01774 L 365.09702,388.27598 C 365.05711,388.48553 365.0596,388.68509 365.10451,388.87467 C 365.14941,389.06426 365.22424,389.2314 365.32902,389.37608 C 365.43378,389.52076 365.56849,389.63551 365.73314,389.72033 C 365.89777,389.80514 366.08486,389.84755 366.29441,389.84755 C 366.47401,389.84755 366.68605,389.81512 366.93052,389.75026 C 367.17498,389.6854 367.41945,389.61057 367.66392,389.52575 C 367.90838,389.44094 368.13538,389.35862 368.34493,389.27879 C 368.55447,389.19897 368.70913,389.14409 368.80892,389.11415 L 368.80892,390.2816 z M 368.67421,371.51258 C 368.67421,371.7421 368.6318,371.95913 368.54699,372.16366 C 368.46217,372.36823 368.34243,372.55033 368.18778,372.70997 C 368.03311,372.86964 367.84103,372.99686 367.61153,373.09163 C 367.38203,373.18644 367.11761,373.23384 366.81827,373.23382 C 366.18963,373.23384 365.71567,373.06671 365.39637,372.73242 C 365.07706,372.39817 364.91741,371.99155 364.91742,371.51258 C 364.91741,371.31304 364.95982,371.11347 365.04464,370.91389 C 365.12945,370.71434 365.25418,370.53224 365.41882,370.36758 C 365.58346,370.20296 365.78552,370.06826 366.025,369.96346 C 366.26447,369.85871 366.53887,369.80633 366.8482,369.80631 C 367.13756,369.80633 367.3945,369.85622 367.61902,369.95598 C 367.84352,370.05578 368.0356,370.1855 368.19526,370.34513 C 368.3549,370.5048 368.47464,370.6869 368.55448,370.89144 C 368.63429,371.09601 368.67421,371.30306 368.67421,371.51258 L 368.67421,371.51258 z M 392.57701,390.3714 C 392.31756,390.48117 392.02569,390.6034 391.70143,390.7381 C 391.37711,390.87281 391.04284,391.00003 390.69862,391.11977 C 390.35435,391.23951 390.01259,391.33929 389.67335,391.41912 C 389.33407,391.49894 389.01477,391.53886 388.71545,391.53886 C 388.29634,391.53886 387.91966,391.49146 387.58541,391.39667 C 387.25112,391.30187 386.97173,391.16467 386.74724,390.98507 C 386.52272,390.80546 386.36306,390.58095 386.26829,390.31154 C 386.17348,390.04212 386.16101,389.7328 386.23087,389.38356 L 387.92218,381.19644 C 388.02194,380.68756 388.05686,380.24353 388.02695,379.86435 C 387.997,379.48519 387.91966,379.17087 387.79496,378.9214 C 387.67021,378.67196 387.51555,378.48487 387.33097,378.36013 C 387.14635,378.23542 386.95427,378.17305 386.75473,378.17304 C 386.28573,378.17305 385.82923,378.27782 385.38522,378.48735 C 384.94117,378.69691 384.53456,378.94387 384.16538,379.22823 C 383.79617,379.51263 383.47687,379.80199 383.20747,380.09634 C 382.93805,380.39071 382.75345,380.62769 382.65368,380.80729 L 380.49839,391.16467 L 377.6546,391.16467 L 379.70512,381.1665 C 379.77496,380.83723 379.80738,380.49548 379.80241,380.14124 C 379.79741,379.78703 379.74752,379.46523 379.65273,379.17585 C 379.55793,378.88649 379.41075,378.64702 379.2112,378.45742 C 379.01162,378.26784 378.7472,378.17305 378.41793,378.17304 C 378.0587,378.17305 377.67704,378.27782 377.27293,378.48735 C 376.8688,378.69691 376.47965,378.94636 376.10548,379.23572 C 375.73129,379.5251 375.39203,379.82195 375.0877,380.12627 C 374.78336,380.43062 374.55635,380.67758 374.40669,380.86716 L 372.25139,391.16467 L 369.43754,391.16467 L 372.07179,378.1431 L 369.52734,377.85872 L 369.52734,376.97565 L 374.12231,376.01774 L 375.37956,376.01774 L 374.79584,378.84657 C 375.175,378.48737 375.57912,378.13563 376.00819,377.79137 C 376.43725,377.44714 376.88128,377.1453 377.34028,376.88585 C 377.79927,376.62643 378.26326,376.41689 378.73224,376.25722 C 379.20121,376.09759 379.66021,376.01776 380.10924,376.01774 C 380.61811,376.01776 381.03969,376.11255 381.37397,376.30212 C 381.70823,376.49172 381.97764,376.72871 382.18221,377.01307 C 382.38675,377.29746 382.53642,377.60429 382.63123,377.93356 C 382.72601,378.26286 382.79336,378.56719 382.83329,378.84657 C 383.20247,378.47739 383.61157,378.12316 384.06061,377.78389 C 384.50961,377.44464 384.97859,377.1428 385.46754,376.87837 C 385.95645,376.61396 386.45287,376.40442 386.95679,376.24974 C 387.46067,376.09509 387.9471,376.01776 388.4161,376.01774 C 388.92497,376.01776 389.37149,376.11006 389.75567,376.29464 C 390.13981,376.47925 390.44914,376.74118 390.68365,377.08042 C 390.91811,377.4197 391.06779,377.8288 391.13267,378.30774 C 391.1975,378.78671 391.17006,379.32055 391.05035,379.90925 L 389.32911,388.18618 C 389.27919,388.43563 389.28418,388.66264 389.34407,388.86719 C 389.40392,389.07174 389.49622,389.24886 389.62097,389.39853 C 389.74568,389.5482 389.89784,389.66545 390.07747,389.75026 C 390.25706,389.83508 390.44664,389.87748 390.64623,389.87748 C 390.89566,389.87748 391.18503,389.81762 391.51433,389.69788 C 391.84359,389.57814 392.19782,389.45341 392.57701,389.32369 L 392.57701,390.3714 z "
     id="text2406" />
</svg>
