<?xml version="1.0" encoding="UTF-8" standalone="no"?>
<!-- Created with Inkscape (http://www.inkscape.org/) -->
<svg
   xmlns:dc="http://purl.org/dc/elements/1.1/"
   xmlns:cc="http://creativecommons.org/ns#"
   xmlns:rdf="http://www.w3.org/1999/02/22-rdf-syntax-ns#"
   xmlns:svg="http://www.w3.org/2000/svg"
   xmlns="http://www.w3.org/2000/svg"
   xmlns:sodipodi="http://sodipodi.sourceforge.net/DTD/sodipodi-0.dtd"
   xmlns:inkscape="http://www.inkscape.org/namespaces/inkscape"
   version="1.0"
   width="400"
   height="400"
   id="svg2728"
   sodipodi:version="0.32"
   inkscape:version="0.46"
   sodipodi:docname="Wikibooks-logo-tr.svg"
   inkscape:output_extension="org.inkscape.output.svg.inkscape"
   inkscape:export-filename="C:\Users\Serhat\Documents\vikikitap\logo asıl\Wikibooks-logo-tr.png"
   inkscape:export-xdpi="30.375"
   inkscape:export-ydpi="30.375">
  <metadata
     id="metadata18">
    <rdf:RDF>
      <cc:Work
         rdf:about="">
        <dc:format>image/svg+xml</dc:format>
        <dc:type
           rdf:resource="http://purl.org/dc/dcmitype/StillImage" />
      </cc:Work>
    </rdf:RDF>
  </metadata>
  <sodipodi:namedview
     inkscape:window-height="776"
     inkscape:window-width="1272"
     inkscape:pageshadow="2"
     inkscape:pageopacity="0.0"
     guidetolerance="10.0"
     gridtolerance="10.0"
     objecttolerance="10.0"
     borderopacity="1.0"
     bordercolor="#666666"
     pagecolor="#ffffff"
     id="base"
     showgrid="false"
     inkscape:zoom="1.245"
     inkscape:cx="27.882536"
     inkscape:cy="192.88812"
     inkscape:window-x="0"
     inkscape:window-y="0"
     inkscape:current-layer="svg2728" />
  <defs
     id="defs2731">
    <inkscape:perspective
       sodipodi:type="inkscape:persp3d"
       inkscape:vp_x="0 : 200 : 1"
       inkscape:vp_y="0 : 1000 : 0"
       inkscape:vp_z="400 : 200 : 1"
       inkscape:persp3d-origin="200 : 133.33333 : 1"
       id="perspective20" />
  </defs>
  <g
     id="layer1" />
  <g
     id="g3189"
     transform="translate(0,-2)">
    <g
       id="g3177">
      <path
         id="path3297"
         style="fill:#fdfcf8;fill-opacity:1;fill-rule:evenodd;stroke:none;stroke-width:1px;stroke-linecap:butt;stroke-linejoin:miter;stroke-opacity:1"
         d="M 191.65664,115.97593 C 196.93351,182.00184 208.45394,245.91983 242.85479,307.46513 L 255.86467,307.56221 L 338.15581,234.14292 L 259.72068,35.943307 L 203.18059,89.951746 L 191.65664,115.97593 z" />
      <path
         d="M 263.32723,16.5 C 236.14031,42.801966 209.26473,68.875 209.26473,68.875 C 209.26473,68.875 218.92098,88.53125 218.92098,88.53125 C 232.01455,75.550025 245.18226,64.133911 257.73348,51.4375 C 284.16674,109.4727 302.17756,156.24917 324.33191,218.08448 C 331.58462,238.17246 330.10582,239.07126 312.76941,249.92823 C 284.91465,263.77995 276.0966,272.86547 242.89833,308.1875 L 265.61708,308.1875 C 293.37052,283.09599 303.67261,274.24081 338.42566,255.92823 C 350.71955,248.83035 352.40523,239.86966 347.36316,225.92823 C 331.10198,180.73146 295.87208,83.322614 263.32723,16.5 z"
         style="fill:#5f96d3;fill-opacity:1"
         id="path3272" />
    </g>
    <g
       id="g3181">
      <path
         id="path3214"
         style="fill:#f4eed7;fill-rule:evenodd;stroke:none;stroke-width:1px;stroke-linecap:butt;stroke-linejoin:miter;stroke-opacity:1"
         d="M 125.84082,116.04509 C 131.11769,182.071 144.61911,246.8316 179.01996,308.3769 L 199.35471,308.55962 L 261.32293,230.84125 L 193.90486,36.012472 L 137.36477,90.020911 L 125.84082,116.04509 z" />
      <path
         d="M 192.45223,17.125 C 172.56466,30.549352 157.22356,49.869448 139.92098,66.4375 C 139.92098,66.4375 147.01473,89.0625 147.01473,89.0625 C 160.5559,78.391834 172.3403,65.526043 184.51473,53.34375 L 250.17098,218.03125 C 253.95672,229.18194 247.99456,239.10365 236.01473,249.90625 C 221.66549,261.43896 192.12216,288.32681 178.73348,308.8125 L 199.10848,308.8125 C 220.49313,286.84657 224.35368,283.86504 248.70223,262.78125 C 265.04857,246.10281 279.81623,237.56053 272.10848,216.1875 L 192.45223,17.125 z"
         style="fill:#2a62a1;fill-opacity:1;fill-rule:evenodd;stroke:none;stroke-width:22;stroke-linecap:round;stroke-linejoin:miter;stroke-miterlimit:4;stroke-dasharray:none;stroke-opacity:1"
         id="path3138" />
    </g>
    <g
       id="g3185">
      <path
         id="path2238"
         style="fill:#e9ddaf;fill-rule:evenodd;stroke:none;stroke-width:1px;stroke-linecap:butt;stroke-linejoin:miter;stroke-opacity:1"
         d="M 50.218883,114.63177 C 55.595535,183.91551 77.233973,245.97178 102.67801,306.33668 L 129.48015,306.00572 L 199.88087,225.96804 L 118.28293,34.599156 L 61.742841,88.607595 L 50.218883,114.63177 z" />
      <path
         d="M 125.32723,16.0625 C 120.02588,17.841698 115.61512,21.260515 111.48348,24.875 C 55.394922,78.847012 53.13973,81.125 53.13973,81.125 C 50.188265,83.867742 49.941746,87.87735 49.98348,91.90625 L 50.218884,114.63177 C 50.218884,114.63177 76.123108,89.450054 114.79598,52.21875 C 135.6144,106.45643 157.3415,160.40524 178.73348,214.4375 C 181.66298,222.60083 174.65125,229.2909 165.76473,238.21875 C 153.49118,250.19233 127.82007,274.84011 101.54598,307.75 L 127.88973,307.75 C 127.88973,307.75 191.20222,238.3125 191.20223,238.3125 C 197.22151,230.03457 204.70542,221.9413 201.54598,214.4375 C 201.54598,214.4375 125.32723,16.062501 125.32723,16.0625 z"
         style="fill:#15304f;fill-opacity:1;fill-rule:evenodd;stroke:none;stroke-width:22;stroke-linecap:round;stroke-linejoin:miter;stroke-miterlimit:4;stroke-dasharray:none;stroke-opacity:1"
         id="path3136" />
    </g>
  </g>
  <text
     xml:space="preserve"
     style="font-style: normal; font-variant: normal; font-weight: bold; font-stretch: normal; fill: rgb(0, 0, 0); fill-opacity: 1; stroke: none; stroke-width: 1px; stroke-linecap: butt; stroke-linejoin: miter; stroke-opacity: 1; font-family: DejaVu Sans;"
     x="15.261"
     y="175.904"
     id="text2416"><tspan
       sodipodi:role="line"
       id="tspan2418"
       x="15.261"
       y="175.904" /></text>
  <path
     transform="translate(384.73896,-30.931727)"
     style="font-size:56px;font-style:normal;font-variant:normal;font-weight:bold;font-stretch:normal;text-align:start;line-height:125%;writing-mode:lr-tb;text-anchor:start;fill:#0b2645;fill-opacity:1;stroke:none;stroke-width:1px;stroke-linecap:butt;stroke-linejoin:miter;stroke-opacity:1;font-family:DejaVu Sans;-inkscape-font-specification:DejaVu Sans Bold"
     d="M -340.28906,345.60845 L -329.70703,345.60845 L -318.87891,375.74127 L -308.07812,345.60845 L -297.49609,345.60845 L -312.61719,386.43267 L -325.16797,386.43267 L -340.28906,345.60845 z M -292.10938,345.60845 L -281.58203,345.60845 L -281.58203,386.43267 L -292.10938,386.43267 L -292.10938,345.60845 z M -290.49609,334.53424 L -283.00391,334.53424 L -283.00391,341.2608 L -290.49609,341.2608 L -290.49609,334.53424 z M -271.21875,345.60845 L -260.69141,345.60845 L -260.69141,360.5108 L -245.51562,345.60845 L -233.29297,345.60845 L -252.95312,364.94049 L -231.26953,386.43267 L -244.44922,386.43267 L -260.69141,370.35455 L -260.69141,386.43267 L -271.21875,386.43267 L -271.21875,345.60845 z M -227.79688,345.60845 L -217.26953,345.60845 L -217.26953,386.43267 L -227.79688,386.43267 L -227.79688,345.60845 z M -226.18359,334.53424 L -218.69141,334.53424 L -218.69141,341.2608 L -226.18359,341.2608 L -226.18359,334.53424 z"
     id="flowRoot2395" />
  <path
     transform="translate(334.04016,44.586345)"
     style="font-size:40px;font-style:normal;font-weight:normal;fill:#0a4e98;fill-opacity:1;stroke:none;stroke-width:1px;stroke-linecap:butt;stroke-linejoin:miter;stroke-opacity:1;font-family:Bitstream Vera Sans"
     d="M -156.29688,269.3272 L -145.76953,269.3272 L -145.76953,284.22955 L -130.59375,269.3272 L -118.37109,269.3272 L -138.03125,288.65924 L -116.34766,310.15142 L -129.52734,310.15142 L -145.76953,294.0733 L -145.76953,310.15142 L -156.29688,310.15142 L -156.29688,269.3272 z M -112.875,269.3272 L -102.34766,269.3272 L -102.34766,310.15142 L -112.875,310.15142 L -112.875,269.3272 z M -111.26172,258.25299 L -103.76953,258.25299 L -103.76953,264.97955 L -111.26172,264.97955 L -111.26172,258.25299 z M -96.851562,269.3272 L -59.226562,269.3272 L -59.226562,277.28424 L -72.761719,277.28424 L -72.761719,310.15142 L -83.289062,310.15142 L -83.289062,277.28424 L -96.851562,277.28424 L -96.851562,269.3272 z M -29.039062,302.71392 L -45.5,302.71392 L -48.097656,310.15142 L -58.679688,310.15142 L -43.558594,269.3272 L -31.007812,269.3272 L -15.886719,310.15142 L -26.46875,310.15142 L -29.039062,302.71392 z M -42.875,295.1397 L -31.691406,295.1397 L -37.269531,278.89752 L -42.875,295.1397 z M -10.5,269.3272 L 6.9726562,269.3272 C 12.167941,269.32724 16.155567,270.48024 18.935547,272.78619 C 21.715457,275.09221 23.10543,278.37802 23.105469,282.64361 C 23.10543,286.92749 21.715457,290.22241 18.935547,292.52838 C 16.155567,294.83438 12.167941,295.98737 6.9726562,295.98736 L 0.02734375,295.98736 L 0.02734375,310.15142 L -10.5,310.15142 L -10.5,269.3272 z M 0.02734375,276.95611 L 0.02734375,288.35845 L 5.8515625,288.35845 C 7.8932056,288.35848 9.470027,287.86173 10.582031,286.86822 C 11.693983,285.87475 12.249972,284.46655 12.25,282.64361 C 12.249972,280.82072 11.693983,279.41708 10.582031,278.43267 C 9.470027,277.44833 7.8932056,276.95614 5.8515625,276.95611 L 0.02734375,276.95611 z"
     id="flowRoot2403" />
  <path
     transform="matrix(0.9783643,0,0,1.0255809,298.64562,6.4102712)"
     style="font-size:27.70305824px;font-style:italic;font-variant:normal;font-weight:normal;font-stretch:normal;text-align:start;line-height:125%;writing-mode:lr-tb;text-anchor:start;fill:#000000;fill-opacity:1;stroke:none;stroke-width:1px;stroke-linecap:butt;stroke-linejoin:miter;stroke-opacity:1;font-family:Charis SIL;-inkscape-font-specification:Charis SIL Italic"
     d="M -289.22997,359.15415 C -289.22999,358.23433 -289.34497,357.40018 -289.57491,356.65168 C -289.80488,355.9032 -290.12502,355.26068 -290.53532,354.72409 C -290.94565,354.18754 -291.43261,353.77498 -291.99622,353.48638 C -292.55985,353.19783 -293.17082,353.05354 -293.82911,353.05352 C -294.50547,353.05354 -295.14574,353.20234 -295.74993,353.49991 C -296.35414,353.79752 -296.91325,354.20333 -297.42726,354.71733 C -297.94129,355.23137 -298.40346,355.83331 -298.81377,356.52317 C -299.22409,357.21305 -299.57354,357.95027 -299.8621,358.73482 C -300.15068,359.51939 -300.37162,360.33325 -300.52492,361.17642 C -300.67823,362.0196 -300.75488,362.85151 -300.75488,363.67213 C -300.75488,364.61 -300.6354,365.45092 -300.39642,366.19489 C -300.15745,366.93887 -299.8328,367.57013 -299.42248,368.08866 C -299.01217,368.60719 -298.52746,369.00623 -297.96834,369.28579 C -297.40924,369.56534 -296.80504,369.70512 -296.15574,369.70512 C -295.4794,369.70512 -294.83913,369.55407 -294.23492,369.25197 C -293.63073,368.94987 -293.07162,368.5373 -292.55759,368.01426 C -292.04358,367.49122 -291.58141,366.88477 -291.17108,366.19489 C -290.76078,365.50503 -290.41134,364.76781 -290.12275,363.98325 C -289.83419,363.19869 -289.61325,362.39385 -289.45993,361.5687 C -289.30664,360.74357 -289.22999,359.93872 -289.22997,359.15415 L -289.22997,359.15415 z M -286.07821,359.15415 C -286.07823,360.1281 -286.18193,361.09978 -286.38933,362.06919 C -286.59676,363.03863 -286.89886,363.96973 -287.29563,364.86249 C -287.69243,365.75527 -288.18391,366.58267 -288.77006,367.34468 C -289.35624,368.10669 -290.03033,368.77177 -290.79233,369.33989 C -291.55436,369.90802 -292.40204,370.35215 -293.33538,370.67229 C -294.26875,370.99243 -295.2765,371.15249 -296.35864,371.1525 C -297.46785,371.15249 -298.48237,370.96988 -299.40219,370.60466 C -300.32202,370.23943 -301.1156,369.71865 -301.78292,369.0423 C -302.45025,368.36596 -302.96878,367.55435 -303.33851,366.60746 C -303.70825,365.66059 -303.89312,364.60549 -303.89312,363.44217 C -303.89312,362.45021 -303.78039,361.47176 -303.55494,360.50684 C -303.3295,359.54193 -303.0026,358.6221 -302.57424,357.74735 C -302.1459,356.87263 -301.62737,356.06553 -301.01865,355.32604 C -300.40995,354.58659 -299.72459,353.94632 -298.96257,353.40522 C -298.20056,352.86417 -297.3664,352.44032 -296.46009,352.1337 C -295.5538,351.82711 -294.59565,351.6738 -293.58563,351.67378 C -292.44037,351.6738 -291.40331,351.86994 -290.47445,352.2622 C -289.54562,352.6545 -288.75655,353.18881 -288.10724,353.86514 C -287.45797,354.5415 -286.95747,355.33507 -286.60576,356.24587 C -286.25408,357.15669 -286.07823,358.12612 -286.07821,359.15415 L -286.07821,359.15415 z M -293.9238,347.53456 C -293.92381,347.74199 -293.96439,347.94038 -294.04554,348.12974 C -294.12672,348.31914 -294.23719,348.48597 -294.37695,348.63023 C -294.51674,348.77454 -294.67906,348.88727 -294.86392,348.96841 C -295.0488,349.04959 -295.24494,349.09017 -295.45234,349.09015 C -295.65074,349.09017 -295.84012,349.04959 -296.02047,348.96841 C -296.20084,348.88727 -296.35865,348.77454 -296.49391,348.63023 C -296.62919,348.48597 -296.7374,348.32365 -296.81856,348.14327 C -296.89972,347.96293 -296.94031,347.76904 -296.9403,347.56161 C -296.94031,347.36324 -296.89972,347.17161 -296.81856,346.98672 C -296.7374,346.80187 -296.62919,346.6373 -296.49391,346.49299 C -296.35865,346.34872 -296.20084,346.23374 -296.02047,346.14805 C -295.84012,346.0624 -295.65074,346.01957 -295.45234,346.01954 C -295.24494,346.01957 -295.0488,346.06015 -294.86392,346.14129 C -294.67906,346.22247 -294.51674,346.33069 -294.37695,346.46593 C -294.23719,346.60122 -294.12672,346.76129 -294.04554,346.94614 C -293.96439,347.13103 -293.92381,347.32717 -293.9238,347.53456 L -293.9238,347.53456 z M -288.1884,347.53456 C -288.18842,347.74199 -288.22675,347.94038 -288.30338,348.12974 C -288.38005,348.31914 -288.48601,348.48597 -288.62126,348.63023 C -288.75655,348.77454 -288.91662,348.88727 -289.10147,348.96841 C -289.28635,349.04959 -289.48249,349.09017 -289.68989,349.09015 C -289.89731,349.09017 -290.09345,349.04959 -290.27831,348.96841 C -290.46319,348.88727 -290.62326,348.77454 -290.75851,348.63023 C -290.89379,348.48597 -291.00201,348.31914 -291.08316,348.12974 C -291.16433,347.94038 -291.20491,347.74199 -291.2049,347.53456 C -291.20491,347.3452 -291.16208,347.15808 -291.07639,346.97319 C -290.99074,346.78835 -290.87801,346.62602 -290.73822,346.48622 C -290.59846,346.34647 -290.43614,346.23374 -290.25125,346.14805 C -290.0664,346.0624 -289.87928,346.01957 -289.68989,346.01954 C -289.48249,346.01957 -289.28635,346.06015 -289.10147,346.14129 C -288.91662,346.22247 -288.75655,346.33069 -288.62126,346.46593 C -288.48601,346.60122 -288.38005,346.76129 -288.30338,346.94614 C -288.22675,347.13103 -288.18842,347.32717 -288.1884,347.53456 L -288.1884,347.53456 z M -282.453,368.74471 L -280.12638,368.136 C -279.93701,368.20815 -279.72058,368.29607 -279.47709,368.39977 C -279.23361,368.50348 -278.98337,368.60493 -278.72635,368.70413 C -278.46934,368.80333 -278.2191,368.889 -277.97561,368.96114 C -277.73213,369.03328 -277.5157,369.06936 -277.32632,369.06935 C -277.12793,369.06936 -276.95433,369.04005 -276.80553,368.98143 C -276.65674,368.92282 -276.52598,368.84842 -276.41325,368.75824 C -276.30054,368.66806 -276.19908,368.57112 -276.1089,368.46741 C -276.01873,368.3637 -275.93306,368.26225 -275.85189,368.16305 L -277.38042,366.47219 C -277.29025,366.30987 -277.18204,366.16333 -277.05578,366.03257 C -276.92954,365.90181 -276.79652,365.79134 -276.65673,365.70116 C -276.51697,365.61099 -276.37493,365.5411 -276.23064,365.49149 C -276.08636,365.4419 -275.95109,365.4171 -275.82483,365.4171 C -275.57234,365.4171 -275.34915,365.46895 -275.15525,365.57266 C -274.96138,365.67637 -274.7968,365.80938 -274.66152,365.9717 C -274.52626,366.13403 -274.42256,366.31889 -274.3504,366.5263 C -274.27827,366.73372 -274.2422,366.93662 -274.24219,367.13501 C -274.2422,367.69412 -274.36619,368.21265 -274.61418,368.6906 C -274.86218,369.16855 -275.18231,369.58112 -275.57458,369.92831 C -275.96687,370.2755 -276.39973,370.54829 -276.87316,370.74669 C -277.34661,370.94508 -277.80878,371.04428 -278.25967,371.04428 C -278.68352,371.04428 -279.08707,370.98341 -279.47033,370.86167 C -279.85359,370.73993 -280.22333,370.60466 -280.57953,370.45586 C -280.93574,370.30707 -281.28519,370.16954 -281.62786,370.04329 C -281.97055,369.91704 -282.30872,369.85392 -282.64238,369.85391 C -282.71453,369.85392 -282.82049,369.86744 -282.96026,369.89449 C -283.10004,369.92155 -283.23306,369.9982 -283.35931,370.12445 L -284.04918,371.42303 L -285.96999,370.39499 L -276.56881,359.39763 L -279.01718,359.92518 C -279.39593,359.71778 -279.78821,359.53291 -280.19401,359.37058 C -280.59983,359.20827 -280.99211,359.12711 -281.37085,359.1271 C -281.48809,359.12711 -281.61885,359.14514 -281.76313,359.1812 C -281.90742,359.21729 -282.0472,359.26914 -282.18247,359.33676 C -282.31774,359.40441 -282.44624,359.48782 -282.56798,359.58701 C -282.68973,359.68622 -282.78667,359.79894 -282.85881,359.92518 L -281.39791,361.6972 C -281.43398,361.75132 -281.49711,361.83023 -281.58728,361.93392 C -281.67747,362.03764 -281.78794,362.14134 -281.91869,362.24504 C -282.04946,362.34876 -282.20051,362.43668 -282.37184,362.50882 C -282.54319,362.58097 -282.72355,362.61704 -282.91292,362.61703 C -283.17444,362.61704 -283.40214,362.56519 -283.59603,362.46147 C -283.78991,362.35777 -283.94998,362.22476 -284.07623,362.06243 C -284.20248,361.90012 -284.29492,361.72201 -284.35353,361.52812 C -284.41215,361.33424 -284.44146,361.15163 -284.44146,360.98028 C -284.44146,360.55645 -284.35353,360.11231 -284.17768,359.64788 C -284.00183,359.18347 -283.74482,358.75512 -283.40665,358.36283 C -283.06848,357.97056 -282.65817,357.64817 -282.1757,357.39565 C -281.69325,357.14317 -281.14541,357.01692 -280.53219,357.0169 C -280.11737,357.01692 -279.71833,357.08906 -279.33506,357.23333 C -278.9518,357.37763 -278.58883,357.5377 -278.24614,357.71354 C -277.90347,357.8894 -277.57657,358.04947 -277.26544,358.19374 C -276.95433,358.33804 -276.659,358.41018 -276.37943,358.41017 C -276.32534,358.41018 -276.24868,358.39891 -276.14948,358.37635 C -276.05029,358.35382 -275.91502,358.29746 -275.74367,358.20727 L -275.13496,356.6652 L -273.05182,357.74735 L -282.453,368.74471 z M -264.29993,373.14095 C -264.29993,372.80728 -264.39913,372.50067 -264.59752,372.22112 C -264.79592,371.94156 -265.16565,371.67553 -265.70672,371.42303 L -269.1696,369.85391 C -269.61149,369.96213 -269.97897,370.11093 -270.27204,370.3003 C -270.56513,370.48968 -270.79734,370.70385 -270.96868,370.94283 C -271.14002,371.1818 -271.26176,371.43656 -271.3339,371.7071 C -271.40605,371.97763 -271.44212,372.25268 -271.44212,372.53224 C -271.44212,372.84786 -271.37449,373.19505 -271.23922,373.57381 C -271.10395,373.95256 -270.89428,374.30426 -270.61022,374.6289 C -270.32615,374.95355 -269.96769,375.22634 -269.53483,375.44728 C -269.10197,375.66821 -268.59246,375.77868 -268.00629,375.77869 C -267.33897,375.77868 -266.77084,375.684 -266.3019,375.49462 C -265.83298,375.30524 -265.44972,375.07529 -265.15212,374.80475 C -264.85454,374.53421 -264.63811,374.24789 -264.50283,373.9458 C -264.36757,373.64369 -264.29993,373.37541 -264.29993,373.14095 L -264.29993,373.14095 z M -264.59752,360.76385 C -264.59753,360.42118 -264.62909,360.09428 -264.6922,359.78315 C -264.75534,359.47204 -264.85228,359.197 -264.98303,358.95801 C -265.1138,358.71905 -265.28063,358.52967 -265.48353,358.38988 C -265.68644,358.25011 -265.92767,358.18023 -266.20722,358.18021 C -266.54089,358.18023 -266.88357,358.30197 -267.23526,358.54544 C -267.58696,358.78894 -267.90935,359.1226 -268.20243,359.54643 C -268.49552,359.97028 -268.73449,360.46627 -268.91936,361.03439 C -269.10423,361.60252 -269.19666,362.21123 -269.19666,362.86052 C -269.19666,363.19419 -269.16059,363.50305 -269.08844,363.78711 C -269.0163,364.07118 -268.91034,364.31466 -268.77056,364.51756 C -268.63079,364.72047 -268.46396,364.87828 -268.27007,364.991 C -268.07619,365.10373 -267.8575,365.16009 -267.61401,365.16009 C -267.1541,365.16009 -266.73703,365.01355 -266.36278,364.72046 C -265.98854,364.42739 -265.67066,364.05991 -265.40913,363.61802 C -265.14762,363.17615 -264.94697,362.6982 -264.80718,362.18417 C -264.66741,361.67016 -264.59753,361.19672 -264.59752,360.76385 L -264.59752,360.76385 z M -262.29795,359.04593 C -262.2168,359.25336 -262.13789,359.51939 -262.06123,359.84402 C -261.98458,360.16868 -261.94626,360.52037 -261.94625,360.89912 C -261.94626,361.78288 -262.10858,362.55391 -262.43322,363.21221 C -262.75787,363.87053 -263.19524,364.42062 -263.74532,364.86249 C -264.29543,365.30438 -264.93344,365.63579 -265.65938,365.85672 C -266.38533,366.07766 -267.14959,366.18813 -267.95218,366.18813 C -268.01531,366.3234 -268.06942,366.4722 -268.11451,366.63452 C -268.1596,366.79684 -268.19567,366.95691 -268.22272,367.11472 C -268.24978,367.27254 -268.26782,367.41682 -268.27683,367.54758 C -268.28585,367.67834 -268.27683,367.77979 -268.24978,367.85194 L -264.54341,369.5428 C -264.11958,369.73217 -263.73406,369.9238 -263.38686,370.11769 C -263.03968,370.31157 -262.74209,370.5235 -262.49409,370.75345 C -262.2461,370.98341 -262.05447,371.24493 -261.91919,371.53801 C -261.78394,371.83109 -261.7163,372.18054 -261.71629,372.58634 C -261.7163,372.98313 -261.80874,373.36865 -261.99359,373.74289 C -262.17847,374.11713 -262.43097,374.46883 -262.7511,374.79799 C -263.07124,375.12714 -263.4545,375.43149 -263.90088,375.71105 C -264.34728,375.99061 -264.82974,376.22958 -265.34826,376.42798 C -265.8668,376.62637 -266.41238,376.77967 -266.98501,376.88789 C -267.55766,376.9961 -268.13706,377.05021 -268.72322,377.05022 C -269.63403,377.05021 -270.4231,376.93749 -271.09042,376.71204 C -271.75775,376.48659 -272.3101,376.189 -272.74746,375.81927 C -273.18483,375.44953 -273.50948,375.02118 -273.7214,374.53422 C -273.93332,374.04724 -274.03928,373.53773 -274.03928,373.00568 C -274.03928,372.53674 -273.94234,372.10388 -273.74845,371.7071 C -273.55457,371.31031 -273.29079,370.9541 -272.95713,370.63847 C -272.62347,370.32285 -272.23344,370.04329 -271.78706,369.79981 C -271.34067,369.55632 -270.86498,369.34891 -270.35997,369.17757 C -270.40506,368.96114 -270.40732,368.70639 -270.36673,368.4133 C -270.32615,368.12022 -270.25852,367.82263 -270.16383,367.52053 C -270.06914,367.21843 -269.94515,366.9276 -269.79184,366.64804 C -269.63854,366.36849 -269.4672,366.13403 -269.27782,365.94464 C -269.64756,365.78233 -269.99024,365.59521 -270.30586,365.38328 C -270.62149,365.17136 -270.89428,364.92788 -271.12424,364.65283 C -271.3542,364.37779 -271.53456,364.06216 -271.66531,363.70595 C -271.79607,363.34974 -271.86145,362.9507 -271.86145,362.50882 C -271.86145,361.83248 -271.7352,361.16741 -271.4827,360.5136 C -271.2302,359.85981 -270.86272,359.27365 -270.38026,358.75511 C -269.8978,358.23659 -269.31164,357.81725 -268.62176,357.49711 C -267.9319,357.17698 -267.14509,357.01692 -266.26132,357.0169 C -265.92767,357.01692 -265.6143,357.04622 -265.32121,357.10483 C -265.02813,357.16346 -264.7621,357.23109 -264.52312,357.30773 C -264.28415,357.3844 -264.07674,357.4633 -263.90088,357.54445 C -263.72504,357.62562 -263.59654,357.69326 -263.51537,357.74735 L -259.75489,357.74735 L -259.75489,359.04593 L -262.29795,359.04593 z M -246.49855,370.04329 C -246.6699,370.14249 -246.90662,370.2507 -247.20871,370.36794 C -247.51082,370.48517 -247.83772,370.59338 -248.18941,370.69258 C -248.54112,370.79178 -248.89958,370.87519 -249.2648,370.94283 C -249.63003,371.01046 -249.96144,371.04428 -250.25902,371.04428 C -250.78207,371.04428 -251.16984,370.95635 -251.42233,370.78051 C -251.67484,370.60466 -251.84844,370.40175 -251.94312,370.1718 C -252.03782,369.94184 -252.08065,369.70963 -252.07162,369.47516 C -252.06261,369.2407 -252.05811,369.06936 -252.0581,368.96114 C -252.78856,369.65552 -253.55282,370.17631 -254.3509,370.52349 C -255.149,370.87068 -256.01246,371.04428 -256.9413,371.04428 C -257.58158,371.04428 -258.10462,370.93156 -258.51042,370.70611 C -258.91623,370.48066 -259.22284,370.1966 -259.43025,369.85391 C -259.63766,369.51123 -259.76391,369.13699 -259.809,368.73118 C -259.85409,368.32538 -259.84056,367.94212 -259.76842,367.5814 L -257.96934,358.93772 L -260.29597,358.68071 L -260.29597,357.88262 L -256.11616,357.0169 L -254.9799,357.0169 L -257.18479,367.5814 C -257.2389,367.81587 -257.22762,368.03906 -257.15097,368.25098 C -257.07432,368.4629 -256.9616,368.64777 -256.8128,368.80558 C -256.664,368.9634 -256.49492,369.08965 -256.30554,369.18433 C -256.11617,369.27902 -255.9313,369.32637 -255.75094,369.32637 C -255.41728,369.32637 -255.08136,369.27902 -254.74318,369.18433 C -254.40502,369.08965 -254.0691,368.96114 -253.73543,368.79882 C -253.40177,368.6365 -253.08164,368.44937 -252.77502,368.23745 C -252.46842,368.02553 -252.18436,367.79783 -251.92283,367.55434 L -249.82616,357.35507 L -247.24253,357.35507 L -249.46093,368.01426 C -249.52407,368.30283 -249.52407,368.54406 -249.46093,368.73795 C -249.39782,368.93183 -249.30088,369.0919 -249.17011,369.21815 C -249.03936,369.3444 -248.89056,369.43458 -248.72372,369.48869 C -248.5569,369.5428 -248.39683,369.56985 -248.24352,369.56985 C -248.06317,369.56985 -247.8242,369.5428 -247.52659,369.48869 C -247.22901,369.43458 -246.88633,369.2948 -246.49855,369.06935 L -246.49855,370.04329 z M -252.92382,352.94531 C -252.92383,353.15274 -252.96441,353.35113 -253.04556,353.54049 C -253.12673,353.72989 -253.2372,353.89672 -253.37697,354.04099 C -253.51675,354.18529 -253.67908,354.29801 -253.86394,354.37916 C -254.04881,354.46034 -254.24495,354.50092 -254.45235,354.5009 C -254.65076,354.50092 -254.84013,354.46034 -255.02048,354.37916 C -255.20085,354.29801 -255.35866,354.18529 -255.49393,354.04099 C -255.6292,353.89672 -255.73741,353.73439 -255.81857,353.55402 C -255.89974,353.37368 -255.94032,353.17979 -255.94031,352.97236 C -255.94032,352.77399 -255.89974,352.58236 -255.81857,352.39747 C -255.73741,352.21262 -255.6292,352.04804 -255.49393,351.90374 C -255.35866,351.75947 -255.20085,351.64449 -255.02048,351.5588 C -254.84013,351.47315 -254.65076,351.43032 -254.45235,351.4303 C -254.24495,351.43032 -254.04881,351.4709 -253.86394,351.55204 C -253.67908,351.63322 -253.51675,351.74144 -253.37697,351.87669 C -253.2372,352.01197 -253.12673,352.17204 -253.04556,352.35689 C -252.96441,352.54178 -252.92383,352.73792 -252.92382,352.94531 L -252.92382,352.94531 z M -247.18842,352.94531 C -247.18843,353.15274 -247.22676,353.35113 -247.3034,353.54049 C -247.38006,353.72989 -247.48602,353.89672 -247.62128,354.04099 C -247.75656,354.18529 -247.91663,354.29801 -248.10148,354.37916 C -248.28636,354.46034 -248.4825,354.50092 -248.6899,354.5009 C -248.89733,354.50092 -249.09347,354.46034 -249.27832,354.37916 C -249.4632,354.29801 -249.62327,354.18529 -249.75853,354.04099 C -249.89381,353.89672 -250.00202,353.72989 -250.08317,353.54049 C -250.16434,353.35113 -250.20492,353.15274 -250.20491,352.94531 C -250.20492,352.75595 -250.16209,352.56883 -250.07641,352.38394 C -249.99075,352.19909 -249.87802,352.03677 -249.73824,351.89698 C -249.59847,351.75722 -249.43615,351.64449 -249.25127,351.5588 C -249.06641,351.47315 -248.87929,351.43032 -248.6899,351.4303 C -248.4825,351.43032 -248.28636,351.4709 -248.10148,351.55204 C -247.91663,351.63322 -247.75656,351.74144 -247.62128,351.87669 C -247.48602,352.01197 -247.38006,352.17204 -247.3034,352.35689 C -247.22676,352.54178 -247.18843,352.73792 -247.18842,352.94531 L -247.18842,352.94531 z M -235.06833,358.88361 C -235.06834,359.20827 -235.12696,359.46753 -235.24418,359.66141 C -235.36142,359.8553 -235.52825,360.00184 -235.74467,360.10103 C -235.96111,360.20024 -236.22038,360.26562 -236.52247,360.29717 C -236.82458,360.32874 -237.16501,360.34453 -237.54375,360.34451 L -238.20657,359.01888 C -238.54926,359.16318 -238.91674,359.41343 -239.30901,359.76962 C -239.70129,360.12584 -240.07328,360.53165 -240.42498,360.98704 C -240.77668,361.44246 -241.08329,361.91139 -241.3448,362.39384 C -241.60633,362.8763 -241.77767,363.32044 -241.85883,363.72624 L -243.3062,370.70611 L -245.87631,370.70611 L -243.49558,358.93772 L -245.8222,358.68071 L -245.8222,357.88262 L -241.6424,357.0169 L -240.53319,357.0169 L -241.11485,359.81697 C -240.54672,358.94224 -239.90194,358.25688 -239.1805,357.76088 C -238.45908,357.26491 -237.67903,357.01692 -236.84035,357.0169 C -236.5067,357.01692 -236.22714,357.07779 -236.00168,357.19951 C -235.77625,357.32127 -235.59363,357.47683 -235.45385,357.66619 C -235.31408,357.85558 -235.21488,358.05848 -235.15625,358.2749 C -235.09765,358.49134 -235.06834,358.69425 -235.06833,358.88361 L -235.06833,358.88361 z M -217.90271,362.22475 C -217.90272,361.60252 -217.97486,361.07723 -218.11914,360.64887 C -218.26344,360.22053 -218.43929,359.87108 -218.64669,359.60054 C -218.85411,359.33001 -219.0728,359.13612 -219.30274,359.01888 C -219.53271,358.90166 -219.72885,358.84304 -219.89116,358.84303 C -220.11662,358.84304 -220.36461,358.87911 -220.63514,358.95125 C -220.90569,359.0234 -221.18299,359.12485 -221.46705,359.2556 C -221.75112,359.38637 -222.03293,359.53742 -222.31248,359.70875 C -222.59204,359.8801 -222.84905,360.06497 -223.08351,360.26335 L -224.62557,368.65002 C -224.5354,368.78529 -224.41365,368.91605 -224.26035,369.0423 C -224.10705,369.16855 -223.9312,369.28353 -223.7328,369.38724 C -223.53441,369.49094 -223.31798,369.57436 -223.08351,369.63748 C -222.84905,369.70061 -222.60556,369.73217 -222.35306,369.73217 C -221.92922,369.73217 -221.52567,369.62396 -221.1424,369.40753 C -220.75915,369.1911 -220.40294,368.89802 -220.07378,368.52828 C -219.74463,368.15855 -219.44478,367.72569 -219.17424,367.2297 C -218.90371,366.73372 -218.67601,366.20842 -218.49113,365.65382 C -218.30627,365.09922 -218.16199,364.52658 -218.05827,363.9359 C -217.95457,363.34524 -217.90272,362.77485 -217.90271,362.22475 L -217.90271,362.22475 z M -215.15675,362.11654 C -215.15677,362.69369 -215.21989,363.31367 -215.34613,363.97648 C -215.47239,364.63931 -215.66853,365.29987 -215.93455,365.95817 C -216.20059,366.61648 -216.54102,367.25225 -216.95583,367.86546 C -217.37066,368.47868 -217.86665,369.01976 -218.44379,369.48869 C -219.02094,369.95762 -219.68376,370.33412 -220.43224,370.61818 C -221.18073,370.90225 -222.02391,371.04428 -222.96177,371.04428 C -223.74633,371.04428 -224.51962,370.93606 -225.28163,370.71963 C -226.04364,370.5032 -226.74929,370.18307 -227.39858,369.75923 L -224.12508,352.20133 L -226.6005,351.95785 L -226.6005,351.11918 L -222.27189,350.29404 L -221.18974,350.29404 L -222.77239,358.68071 C -222.51989,358.45527 -222.24259,358.2411 -221.94049,358.03818 C -221.63839,357.83529 -221.32502,357.65944 -221.00037,357.51063 C -220.67573,357.36185 -220.34207,357.24236 -219.99938,357.15217 C -219.65671,357.062 -219.31853,357.01692 -218.98486,357.0169 C -218.27246,357.01692 -217.67276,357.17473 -217.18579,357.49034 C -216.69883,357.80598 -216.3043,358.21179 -216.00218,358.70776 C -215.7001,359.20376 -215.48367,359.7516 -215.35289,360.35128 C -215.22215,360.95098 -215.15677,361.5394 -215.15675,362.11654 L -215.15675,362.11654 z M -206.91889,369.90802 C -207.02711,369.95311 -207.2255,370.03878 -207.51407,370.16503 C -207.80265,370.29128 -208.14082,370.41979 -208.52859,370.55055 C -208.91636,370.68131 -209.32442,370.79629 -209.75277,370.89548 C -210.18112,370.99468 -210.58468,371.04428 -210.96342,371.04428 C -211.44138,371.04428 -211.82013,370.96312 -212.09968,370.8008 C -212.37924,370.63847 -212.58665,370.42655 -212.72192,370.16503 C -212.85719,369.90351 -212.93384,369.61043 -212.95188,369.28579 C -212.96991,368.96114 -212.94737,368.64101 -212.88424,368.32538 L -211.11222,358.93772 L -213.49295,358.68071 L -213.49295,357.88262 L -209.31315,357.0169 L -208.17689,357.0169 L -210.27355,368.09542 C -210.30963,368.2848 -210.30737,368.46516 -210.26679,368.63649 C -210.22621,368.80784 -210.15858,368.95889 -210.06389,369.08965 C -209.9692,369.22041 -209.84746,369.32411 -209.69866,369.40076 C -209.54987,369.47742 -209.38078,369.51574 -209.1914,369.51574 C -209.02909,369.51574 -208.83745,369.48644 -208.61651,369.42782 C -208.39558,369.3692 -208.17464,369.30157 -207.95369,369.22491 C -207.73276,369.14826 -207.5276,369.07387 -207.33822,369.00172 C -207.14885,368.92958 -207.00907,368.87998 -206.91889,368.85292 L -206.91889,369.90802 z M -207.04063,352.94531 C -207.04064,353.15274 -207.07896,353.34888 -207.15561,353.53373 C -207.23227,353.71861 -207.34048,353.88319 -207.48025,354.02746 C -207.62004,354.17176 -207.79363,354.28674 -208.00104,354.3724 C -208.20846,354.45808 -208.44743,354.50092 -208.71796,354.5009 C -209.2861,354.50092 -209.71445,354.34987 -210.00302,354.04775 C -210.29159,353.74567 -210.43588,353.37819 -210.43588,352.94531 C -210.43588,352.76497 -210.39755,352.58461 -210.3209,352.40423 C -210.24425,352.22389 -210.13153,352.05932 -209.98273,351.9105 C -209.83393,351.76173 -209.65132,351.63998 -209.43489,351.54528 C -209.21846,351.45061 -208.97047,351.40326 -208.69091,351.40324 C -208.42939,351.40326 -208.19718,351.44835 -207.99427,351.53851 C -207.79138,351.62871 -207.61778,351.74594 -207.47349,351.89021 C -207.32921,352.03452 -207.22099,352.19909 -207.14884,352.38394 C -207.07671,352.56883 -207.04064,352.75595 -207.04063,352.94531 L -207.04063,352.94531 z M -195.51572,358.88361 C -195.51573,359.20827 -195.57435,359.46753 -195.69157,359.66141 C -195.80881,359.8553 -195.97565,360.00184 -196.19207,360.10103 C -196.40851,360.20024 -196.66777,360.26562 -196.96986,360.29717 C -197.27197,360.32874 -197.6124,360.34453 -197.99114,360.34451 L -198.65396,359.01888 C -198.99665,359.16318 -199.36413,359.41343 -199.7564,359.76962 C -200.14869,360.12584 -200.52067,360.53165 -200.87237,360.98704 C -201.22407,361.44246 -201.53068,361.91139 -201.7922,362.39384 C -202.05372,362.8763 -202.22506,363.32044 -202.30622,363.72624 L -203.75359,370.70611 L -206.3237,370.70611 L -203.94297,358.93772 L -206.26959,358.68071 L -206.26959,357.88262 L -202.08979,357.0169 L -200.98058,357.0169 L -201.56224,359.81697 C -200.99411,358.94224 -200.34933,358.25688 -199.62789,357.76088 C -198.90647,357.26491 -198.12642,357.01692 -197.28774,357.0169 C -196.95409,357.01692 -196.67453,357.07779 -196.44908,357.19951 C -196.22364,357.32127 -196.04103,357.47683 -195.90124,357.66619 C -195.76147,357.85558 -195.66227,358.05848 -195.60365,358.2749 C -195.54504,358.49134 -195.51573,358.69425 -195.51572,358.88361 L -195.51572,358.88361 z M -176.84862,368.32538 C -176.89372,368.5869 -176.8802,368.79882 -176.80804,368.96114 C -176.73591,369.12346 -176.63897,369.25197 -176.51721,369.34666 C -176.39548,369.44135 -176.26923,369.50673 -176.13846,369.5428 C -176.00771,369.57887 -175.91077,369.5969 -175.84763,369.5969 C -175.78452,369.5969 -175.65601,369.57211 -175.46212,369.52251 C -175.26824,369.47291 -175.06309,369.41655 -174.84664,369.35342 C -174.63023,369.2903 -174.42732,369.23168 -174.23793,369.17757 L -173.85918,369.06935 L -173.85918,370.0974 C -173.96741,370.14249 -174.1658,370.21689 -174.45436,370.32059 C -174.74295,370.4243 -175.06309,370.53026 -175.41477,370.63847 C -175.76648,370.74669 -176.12946,370.84138 -176.50369,370.92254 C -176.87794,371.0037 -177.20484,371.04428 -177.48439,371.04428 C -177.90824,371.04428 -178.25543,370.99243 -178.52596,370.88872 C -178.7965,370.78501 -179.00842,370.64073 -179.16172,370.45586 C -179.31503,370.27099 -179.42099,370.05231 -179.4796,369.79981 C -179.53823,369.54731 -179.56753,369.26775 -179.56753,368.96114 C -179.81102,369.22266 -180.0793,369.47742 -180.37238,369.72541 C -180.66547,369.9734 -180.97884,370.19434 -181.31249,370.38823 C -181.64616,370.58211 -181.99786,370.73993 -182.36759,370.86167 C -182.73733,370.98341 -183.11608,371.04428 -183.50385,371.04428 C -184.27939,371.04428 -184.92192,370.89548 -185.43143,370.59789 C -185.94095,370.3003 -186.3445,369.91253 -186.64209,369.43458 C -186.93968,368.95663 -187.14935,368.42458 -187.27109,367.83841 C -187.39283,367.25225 -187.4537,366.66608 -187.4537,366.07991 C -187.4537,365.34947 -187.37479,364.61676 -187.21698,363.88179 C -187.05917,363.14684 -186.8247,362.44344 -186.51358,361.7716 C -186.20246,361.09978 -185.82146,360.47528 -185.37056,359.89813 C -184.91967,359.32099 -184.40565,358.81824 -183.82849,358.38988 C -183.25135,357.96154 -182.60883,357.62562 -181.90091,357.38213 C -181.19301,357.13866 -180.43325,357.01692 -179.62163,357.0169 C -179.41423,357.01692 -179.21133,357.03721 -179.01292,357.07777 C -178.81454,357.11837 -178.62516,357.16571 -178.44479,357.2198 C -178.26445,357.27393 -178.09761,357.33254 -177.9443,357.39565 C -177.79101,357.45879 -177.65574,357.50839 -177.53849,357.54445 L -176.60514,352.20133 L -179.12114,351.95785 L -179.12114,351.11918 L -174.83312,350.29404 L -173.69686,350.29404 L -176.84862,368.32538 z M -177.93077,359.78991 C -177.92177,359.75385 -177.97362,359.6524 -178.08633,359.48556 C -178.19907,359.31874 -178.34335,359.14514 -178.51919,358.96477 C -178.69505,358.78443 -178.88668,358.6221 -179.09409,358.4778 C -179.30151,358.33353 -179.49539,358.26139 -179.67574,358.26137 C -180.35209,358.26139 -180.99687,358.45753 -181.61009,358.84979 C -182.22331,359.24209 -182.76439,359.78091 -183.23331,360.46626 C -183.70225,361.15163 -184.07649,361.96099 -184.35604,362.89433 C -184.6356,363.82769 -184.77538,364.83545 -184.77538,365.91759 C -184.77538,366.51278 -184.71451,367.0268 -184.59276,367.45966 C -184.47103,367.89252 -184.3087,368.24873 -184.1058,368.52828 C -183.9029,368.80784 -183.67069,369.01525 -183.40916,369.15052 C -183.14765,369.28579 -182.88162,369.35342 -182.61107,369.35342 C -182.35858,369.35342 -182.08579,369.2903 -181.7927,369.16404 C -181.49962,369.03779 -181.20429,368.86871 -180.90669,368.65678 C -180.6091,368.44487 -180.31377,368.20138 -180.02068,367.92633 C -179.7276,367.65129 -179.45481,367.36948 -179.2023,367.0809 L -177.93077,359.78991 z M -159.2772,370.04329 C -159.44856,370.14249 -159.68528,370.2507 -159.98736,370.36794 C -160.28948,370.48517 -160.61638,370.59338 -160.96806,370.69258 C -161.31978,370.79178 -161.67824,370.87519 -162.04345,370.94283 C -162.40869,371.01046 -162.7401,371.04428 -163.03768,371.04428 C -163.56073,371.04428 -163.9485,370.95635 -164.20099,370.78051 C -164.4535,370.60466 -164.62709,370.40175 -164.72177,370.1718 C -164.81647,369.94184 -164.85931,369.70963 -164.85028,369.47516 C -164.84127,369.2407 -164.83676,369.06936 -164.83675,368.96114 C -165.56721,369.65552 -166.33148,370.17631 -167.12956,370.52349 C -167.92765,370.87068 -168.79112,371.04428 -169.71996,371.04428 C -170.36023,371.04428 -170.88327,370.93156 -171.28908,370.70611 C -171.69488,370.48066 -172.00149,370.1966 -172.2089,369.85391 C -172.41632,369.51123 -172.54257,369.13699 -172.58766,368.73118 C -172.63275,368.32538 -172.61922,367.94212 -172.54708,367.5814 L -170.748,358.93772 L -173.07462,358.68071 L -173.07462,357.88262 L -168.89482,357.0169 L -167.75856,357.0169 L -169.96344,367.5814 C -170.01755,367.81587 -170.00628,368.03906 -169.92962,368.25098 C -169.85298,368.4629 -169.74025,368.64777 -169.59145,368.80558 C -169.44266,368.9634 -169.27357,369.08965 -169.08419,369.18433 C -168.89482,369.27902 -168.70996,369.32637 -168.52959,369.32637 C -168.19593,369.32637 -167.86002,369.27902 -167.52184,369.18433 C -167.18367,369.08965 -166.84776,368.96114 -166.51409,368.79882 C -166.18043,368.6365 -165.86029,368.44937 -165.55368,368.23745 C -165.24708,368.02553 -164.96301,367.79783 -164.70148,367.55434 L -162.60482,357.35507 L -160.02118,357.35507 L -162.23959,368.01426 C -162.30273,368.30283 -162.30273,368.54406 -162.23959,368.73795 C -162.17648,368.93183 -162.07953,369.0919 -161.94876,369.21815 C -161.81801,369.3444 -161.66922,369.43458 -161.50238,369.48869 C -161.33556,369.5428 -161.17549,369.56985 -161.02217,369.56985 C -160.84183,369.56985 -160.60285,369.5428 -160.30525,369.48869 C -160.00767,369.43458 -159.66499,369.2948 -159.2772,369.06935 L -159.2772,370.04329 z M -165.70247,352.94531 C -165.70248,353.15274 -165.74306,353.35113 -165.82422,353.54049 C -165.90538,353.72989 -166.01585,353.89672 -166.15562,354.04099 C -166.29541,354.18529 -166.45773,354.29801 -166.64259,354.37916 C -166.82747,354.46034 -167.02361,354.50092 -167.23101,354.5009 C -167.42941,354.50092 -167.61879,354.46034 -167.79914,354.37916 C -167.9795,354.29801 -168.13732,354.18529 -168.27258,354.04099 C -168.40786,353.89672 -168.51607,353.73439 -168.59723,353.55402 C -168.67839,353.37368 -168.71897,353.17979 -168.71897,352.97236 C -168.71897,352.77399 -168.67839,352.58236 -168.59723,352.39747 C -168.51607,352.21262 -168.40786,352.04804 -168.27258,351.90374 C -168.13732,351.75947 -167.9795,351.64449 -167.79914,351.5588 C -167.61879,351.47315 -167.42941,351.43032 -167.23101,351.4303 C -167.02361,351.43032 -166.82747,351.4709 -166.64259,351.55204 C -166.45773,351.63322 -166.29541,351.74144 -166.15562,351.87669 C -166.01585,352.01197 -165.90538,352.17204 -165.82422,352.35689 C -165.74306,352.54178 -165.70248,352.73792 -165.70247,352.94531 L -165.70247,352.94531 z M -159.96707,352.94531 C -159.96709,353.15274 -160.00541,353.35113 -160.08205,353.54049 C -160.15872,353.72989 -160.26468,353.89672 -160.39993,354.04099 C -160.53522,354.18529 -160.69528,354.29801 -160.88014,354.37916 C -161.06502,354.46034 -161.26116,354.50092 -161.46856,354.5009 C -161.67598,354.50092 -161.87212,354.46034 -162.05698,354.37916 C -162.24186,354.29801 -162.40192,354.18529 -162.53718,354.04099 C -162.67246,353.89672 -162.78068,353.72989 -162.86183,353.54049 C -162.943,353.35113 -162.98358,353.15274 -162.98357,352.94531 C -162.98358,352.75595 -162.94075,352.56883 -162.85506,352.38394 C -162.7694,352.19909 -162.65668,352.03677 -162.51689,351.89698 C -162.37713,351.75722 -162.2148,351.64449 -162.02992,351.5588 C -161.84507,351.47315 -161.65795,351.43032 -161.46856,351.4303 C -161.26116,351.43032 -161.06502,351.4709 -160.88014,351.55204 C -160.69528,351.63322 -160.53522,351.74144 -160.39993,351.87669 C -160.26468,352.01197 -160.15872,352.17204 -160.08205,352.35689 C -160.00541,352.54178 -159.96709,352.73792 -159.96707,352.94531 L -159.96707,352.94531 z M -144.587,370.15151 C -144.70425,370.1966 -144.90941,370.26648 -145.20248,370.36117 C -145.49557,370.45586 -145.82247,370.55506 -146.18317,370.65876 C -146.5439,370.76247 -146.91364,370.85265 -147.29238,370.9293 C -147.67114,371.00595 -148.00481,371.04428 -148.29337,371.04428 C -148.4557,371.04428 -148.6789,371.0285 -148.96295,370.99694 C -149.24702,370.96537 -149.51982,370.89323 -149.78133,370.78051 C -150.04285,370.66778 -150.25478,370.5032 -150.41709,370.28677 C -150.57942,370.07034 -150.62,369.77726 -150.53883,369.40753 L -148.84797,360.89912 C -148.78486,360.52939 -148.7826,360.22278 -148.84121,359.97929 C -148.89983,359.73582 -148.99452,359.53968 -149.12527,359.39087 C -149.25604,359.24209 -149.40709,359.13838 -149.57842,359.07975 C -149.74977,359.02115 -149.9121,358.99184 -150.06539,358.99183 C -150.29085,358.99184 -150.56815,359.05722 -150.89729,359.18797 C -151.22646,359.31874 -151.57365,359.49233 -151.93886,359.70875 C -152.3041,359.92519 -152.67158,360.17995 -153.04131,360.47302 C -153.41105,360.76611 -153.74922,361.07498 -154.05582,361.39961 L -155.96311,370.70611 L -158.54675,370.70611 L -156.13896,358.93772 L -158.46559,358.68071 L -158.46559,357.88262 L -154.28578,357.0169 L -153.17657,357.0169 L -153.6906,359.60054 C -153.38399,359.29394 -153.03229,358.98507 -152.6355,358.67394 C -152.23872,358.36284 -151.81487,358.08554 -151.36397,357.84204 C -150.91308,357.59857 -150.44641,357.40018 -149.96394,357.24686 C -149.48149,357.09357 -149.0103,357.01692 -148.55038,357.0169 C -147.54038,357.01692 -146.82121,357.29647 -146.39284,357.85557 C -145.9645,358.41469 -145.85854,359.31648 -146.07496,360.56094 L -147.54939,368.37948 C -147.59449,368.64101 -147.5742,368.84842 -147.48852,369.00172 C -147.40286,369.15503 -147.29014,369.27226 -147.15035,369.35342 C -147.01058,369.43458 -146.86404,369.48644 -146.71072,369.50898 C -146.55743,369.53152 -146.4402,369.5428 -146.35902,369.5428 C -146.10654,369.5428 -145.83149,369.50673 -145.53388,369.43458 C -145.23631,369.36244 -144.9297,369.27677 -144.61406,369.17757 L -144.587,370.15151 z M -131.38476,359.26236 C -131.49299,359.37059 -131.6508,359.56898 -131.8582,359.85755 C -132.06562,360.14613 -132.2798,360.47078 -132.50073,360.83148 C -132.72168,361.19221 -132.93811,361.5642 -133.15002,361.94745 C -133.36195,362.33072 -133.53104,362.66664 -133.65728,362.9552 C -133.85568,363.39709 -134.08789,363.93365 -134.35391,364.5649 C -134.61995,365.19616 -134.91754,365.87476 -135.24668,366.6007 C -135.57585,367.32664 -135.93431,368.07964 -136.32207,368.85969 C -136.70985,369.63974 -137.12467,370.40401 -137.56655,371.1525 C -137.99941,371.88295 -138.46158,372.60212 -138.95305,373.31003 C -139.44453,374.01794 -139.96532,374.64919 -140.51541,375.2038 C -141.0655,375.75839 -141.6449,376.20478 -142.25361,376.54296 C -142.86232,376.88112 -143.49583,377.05021 -144.15414,377.05022 C -144.65914,377.05021 -145.07847,376.98708 -145.41214,376.86084 C -145.7458,376.73458 -146.01183,376.57902 -146.21022,376.39416 C -146.40862,376.20929 -146.54614,376.0109 -146.62279,375.79898 C -146.69944,375.58705 -146.73777,375.39542 -146.73777,375.22409 C -146.73777,375.01667 -146.69043,374.81602 -146.59574,374.62214 C -146.50105,374.42825 -146.36804,374.25691 -146.1967,374.10812 C -146.02535,373.95932 -145.82245,373.83983 -145.58799,373.74966 C -145.35352,373.65947 -145.10102,373.60537 -144.83048,373.58733 L -143.22078,375.19703 C -142.93221,375.16998 -142.64815,375.055 -142.36859,374.8521 C -142.08904,374.64919 -141.7937,374.34484 -141.48258,373.93903 C -141.17146,373.53322 -140.83104,373.02371 -140.4613,372.4105 C -140.09157,371.79728 -139.67223,371.06232 -139.2033,370.20561 C -139.22134,370.0974 -139.26643,369.85617 -139.33857,369.48192 C -139.41072,369.10768 -139.49864,368.65228 -139.60234,368.11571 C -139.70605,367.57915 -139.82328,366.98622 -139.95404,366.33692 C -140.0848,365.68764 -140.22233,365.02933 -140.36661,364.362 C -140.5109,363.71272 -140.66195,363.06117 -140.81976,362.40736 C -140.97758,361.75357 -141.13088,361.16516 -141.27967,360.64211 C -141.42847,360.11908 -141.56149,359.69073 -141.67872,359.35705 C -141.79595,359.0234 -141.88613,358.85206 -141.94926,358.84303 L -144.46526,358.65365 L -144.46526,357.96378 L -144.0865,357.84204 C -143.90615,357.77893 -143.70775,357.71355 -143.49132,357.6459 C -143.27489,357.57828 -143.04493,357.50614 -142.80145,357.42947 C -142.55797,357.35283 -142.32801,357.2852 -142.11158,357.22657 C -141.89515,357.16797 -141.69901,357.11837 -141.52316,357.07777 C -141.34731,357.03721 -141.21881,357.01692 -141.13764,357.0169 C -140.84005,357.01692 -140.57854,357.0868 -140.35308,357.22657 C -140.12764,357.36636 -139.92699,357.56701 -139.75114,357.82851 C -139.57529,358.09005 -139.41297,358.40342 -139.26417,358.76863 C -139.11538,359.13387 -138.97335,359.54644 -138.83807,360.00634 C -138.60361,360.82698 -138.36013,361.84375 -138.10762,363.05666 C -137.85513,364.26957 -137.59361,365.62 -137.32306,367.10796 L -133.10267,357.0169 L -132.30459,357.0169 L -130.00502,357.77441 L -130.00502,358.41017 L -131.38476,359.26236 z M -120.44152,359.84402 C -120.43251,359.79894 -120.46633,359.69524 -120.54297,359.5329 C -120.61964,359.37059 -120.71207,359.2015 -120.82028,359.02564 C -120.9285,358.84981 -121.04348,358.69425 -121.16521,358.55897 C -121.28696,358.42371 -121.38841,358.35608 -121.46957,358.35606 C -122.17297,358.35608 -122.80197,358.47105 -123.35657,358.701 C -123.91118,358.93097 -124.39589,359.24209 -124.81071,359.63435 C -125.22554,360.02664 -125.57949,360.47979 -125.87257,360.99381 C -126.16565,361.50784 -126.40237,362.0444 -126.58273,362.6035 C -126.76309,363.16262 -126.89385,363.72624 -126.97501,364.29436 C -127.05617,364.8625 -127.09675,365.40357 -127.09675,365.91759 C -127.09675,366.30537 -127.06519,366.69314 -127.00206,367.0809 C -126.93894,367.46868 -126.82847,367.82038 -126.67065,368.136 C -126.51284,368.45163 -126.29641,368.70864 -126.02136,368.90703 C -125.74632,369.10543 -125.39237,369.20463 -124.9595,369.20462 C -124.63486,369.20463 -124.31022,369.13248 -123.98557,368.98819 C -123.66093,368.84391 -123.35883,368.67708 -123.07926,368.4877 C -122.79972,368.29832 -122.55623,368.10895 -122.34881,367.91957 C -122.14141,367.7302 -121.98811,367.58591 -121.8889,367.48671 L -120.44152,359.84402 z M -116.36993,369.96213 C -116.47816,370.00722 -116.67655,370.09064 -116.96511,370.21238 C -117.2537,370.33412 -117.57609,370.45586 -117.93229,370.5776 C -118.28851,370.69934 -118.64922,370.80756 -119.01444,370.90225 C -119.37967,370.99694 -119.69755,371.04428 -119.96808,371.04428 C -120.30176,371.04428 -120.58356,371.0037 -120.81351,370.92254 C -121.04348,370.84138 -121.23285,370.71963 -121.38164,370.55731 C -121.53045,370.39499 -121.64542,370.1966 -121.72658,369.96213 C -121.80775,369.72766 -121.86185,369.45713 -121.8889,369.15052 C -122.09632,369.34891 -122.3398,369.55858 -122.61935,369.77952 C -122.89891,370.00046 -123.20778,370.20561 -123.54594,370.39499 C -123.88412,370.58437 -124.24484,370.73993 -124.62809,370.86167 C -125.01136,370.98341 -125.4104,371.04428 -125.82522,371.04428 C -126.3663,371.04428 -126.842,370.96763 -127.25231,370.81432 C -127.66263,370.66102 -128.01658,370.45586 -128.31417,370.19885 C -128.61176,369.94184 -128.8575,369.64425 -129.05138,369.30608 C -129.24527,368.96791 -129.40083,368.61621 -129.51806,368.25098 C -129.6353,367.88576 -129.71646,367.51602 -129.76155,367.14177 C -129.80664,366.76753 -129.82918,366.41358 -129.82918,366.07991 C -129.82918,365.3675 -129.75253,364.64832 -129.59922,363.92238 C -129.44592,363.19644 -129.21822,362.49755 -128.91612,361.82571 C -128.61402,361.15388 -128.23752,360.52488 -127.78662,359.93871 C -127.33573,359.35255 -126.81494,358.84304 -126.22427,358.41017 C -125.6336,357.97732 -124.97529,357.6369 -124.24934,357.38889 C -123.5234,357.14091 -122.72757,357.01692 -121.86185,357.0169 C -121.60935,357.01692 -121.35911,357.04622 -121.1111,357.10483 C -120.86312,357.16346 -120.63091,357.24011 -120.41447,357.33478 C -120.19805,357.42948 -119.99966,357.53545 -119.81929,357.65266 C -119.63894,357.76991 -119.48563,357.89165 -119.35937,358.01789 L -118.95357,357.35507 L -117.0598,357.35507 C -117.1049,357.4633 -117.1545,357.59181 -117.2086,357.74059 C -117.26272,357.8894 -117.31683,358.04045 -117.37092,358.19374 C -117.42504,358.34706 -117.47238,358.49134 -117.51295,358.6266 C -117.55355,358.76188 -117.57835,358.86559 -117.58735,358.93772 C -117.65049,359.18121 -117.74067,359.54869 -117.85789,360.04016 C -117.97513,360.53165 -118.09913,361.08399 -118.22988,361.6972 C -118.36065,362.31043 -118.49592,362.95296 -118.63568,363.62478 C -118.77547,364.29663 -118.89947,364.93239 -119.00767,365.53207 C -119.1159,366.13177 -119.20608,366.66383 -119.27821,367.12825 C -119.35037,367.59267 -119.38644,367.92859 -119.38643,368.136 C -119.38644,368.62297 -119.28273,368.95663 -119.07531,369.13699 C -118.86791,369.31735 -118.57482,369.40753 -118.19606,369.40753 C -118.10589,369.40753 -117.97288,369.38724 -117.79702,369.34666 C -117.62118,369.30608 -117.43857,369.25873 -117.24918,369.20462 C -117.05982,369.15052 -116.88397,369.10092 -116.72163,369.05583 C -116.55932,369.01074 -116.44209,368.97918 -116.36993,368.96114 L -116.36993,369.96213 z M -100.86811,369.90802 C -100.97634,369.95311 -101.17473,370.03878 -101.4633,370.16503 C -101.75188,370.29128 -102.09005,370.41979 -102.47781,370.55055 C -102.86559,370.68131 -103.27365,370.79629 -103.702,370.89548 C -104.13035,370.99468 -104.5339,371.04428 -104.91265,371.04428 C -105.3906,371.04428 -105.76936,370.96312 -106.04891,370.8008 C -106.32847,370.63847 -106.53588,370.42655 -106.67115,370.16503 C -106.80642,369.90351 -106.88307,369.61043 -106.9011,369.28579 C -106.91914,368.96114 -106.8966,368.64101 -106.83347,368.32538 L -105.06145,358.93772 L -107.44218,358.68071 L -107.44218,357.88262 L -103.26237,357.0169 L -102.12611,357.0169 L -104.22278,368.09542 C -104.25886,368.2848 -104.2566,368.46516 -104.21602,368.63649 C -104.17544,368.80784 -104.10781,368.95889 -104.01311,369.08965 C -103.91843,369.22041 -103.79669,369.32411 -103.64789,369.40076 C -103.4991,369.47742 -103.33001,369.51574 -103.14063,369.51574 C -102.97831,369.51574 -102.78668,369.48644 -102.56574,369.42782 C -102.3448,369.3692 -102.12386,369.30157 -101.90292,369.22491 C -101.68199,369.14826 -101.47683,369.07387 -101.28745,369.00172 C -101.09808,368.92958 -100.9583,368.87998 -100.86811,368.85292 L -100.86811,369.90802 z M -100.98985,352.94531 C -100.98986,353.15274 -101.02819,353.34888 -101.10483,353.53373 C -101.18149,353.71861 -101.28971,353.88319 -101.42948,354.02746 C -101.56926,354.17176 -101.74286,354.28674 -101.95026,354.3724 C -102.15768,354.45808 -102.39666,354.50092 -102.66719,354.5009 C -103.23532,354.50092 -103.66367,354.34987 -103.95224,354.04775 C -104.24082,353.74567 -104.38511,353.37819 -104.3851,352.94531 C -104.38511,352.76497 -104.34678,352.58461 -104.27012,352.40423 C -104.19348,352.22389 -104.08075,352.05932 -103.93195,351.9105 C -103.78316,351.76173 -103.60055,351.63998 -103.38411,351.54528 C -103.16769,351.45061 -102.9197,351.40326 -102.64013,351.40324 C -102.37862,351.40326 -102.14641,351.44835 -101.9435,351.53851 C -101.7406,351.62871 -101.56701,351.74594 -101.42272,351.89021 C -101.27844,352.03452 -101.17022,352.19909 -101.09807,352.38394 C -101.02593,352.56883 -100.98986,352.75595 -100.98985,352.94531 L -100.98985,352.94531 z M -92.576131,373.80376 C -92.576139,374.28171 -92.679845,374.71232 -92.887249,375.09558 C -93.094669,375.47884 -93.378733,375.80348 -93.739443,376.06952 C -94.100166,376.33554 -94.517245,376.53844 -94.990679,376.67823 C -95.464126,376.818 -95.962365,376.88789 -96.4854,376.88789 C -96.692816,376.88789 -96.906992,376.87436 -97.127927,376.84731 C -97.34887,376.82025 -97.558536,376.79095 -97.756927,376.75939 C -97.955324,376.72782 -98.137937,376.69175 -98.304766,376.65117 C -98.4716,376.61059 -98.604614,376.57677 -98.703809,376.54972 L -98.446798,375.44052 C -98.239389,375.49462 -97.964342,375.56 -97.621658,375.63666 C -97.278981,375.7133 -96.954336,375.75163 -96.647723,375.75164 C -96.521476,375.75163 -96.354645,375.73359 -96.147228,375.69753 C -95.939821,375.66145 -95.739172,375.59607 -95.545282,375.50139 C -95.351402,375.4067 -95.182316,375.27368 -95.038024,375.10235 C -94.893743,374.931 -94.821599,374.71006 -94.821593,374.43953 C -94.821599,374.30426 -94.850908,374.18928 -94.909518,374.09459 C -94.96814,373.9999 -95.040284,373.92325 -95.125948,373.86464 C -95.211624,373.80602 -95.308567,373.76318 -95.416776,373.73613 C -95.524997,373.70907 -95.633212,373.69555 -95.741421,373.69555 C -95.822588,373.69555 -95.917276,373.72035 -96.025486,373.76995 C -96.133706,373.81954 -96.3321,373.91649 -96.620669,374.06078 L -96.05254,371.03075 C -96.54853,370.98566 -97.008443,370.87745 -97.432282,370.70611 C -97.955324,370.47164 -98.399457,370.13572 -98.76468,369.69835 C -99.129908,369.26099 -99.411717,368.72217 -99.61011,368.08189 C -99.808506,367.44162 -99.907703,366.71117 -99.907702,365.89054 C -99.907703,365.06089 -99.81076,364.26732 -99.616874,363.50981 C -99.42299,362.75231 -99.154707,362.0444 -98.812024,361.38608 C -98.469345,360.72779 -98.063539,360.13035 -97.594605,359.59377 C -97.125676,359.05722 -96.616164,358.5973 -96.066067,358.21403 C -95.515979,357.83078 -94.934323,357.53545 -94.321099,357.32802 C -93.707887,357.12062 -93.09016,357.01692 -92.467916,357.0169 C -91.971939,357.01692 -91.543588,357.08004 -91.182862,357.20628 C -90.822155,357.33254 -90.529072,357.49036 -90.303614,357.67972 C -90.078177,357.86911 -89.911345,358.07877 -89.803119,358.30872 C -89.694915,358.53869 -89.640808,358.75737 -89.640797,358.96477 C -89.640808,359.14514 -89.667862,359.33001 -89.721958,359.51937 C -89.776077,359.70876 -89.882037,359.88461 -90.03984,360.04692 C -90.197664,360.20926 -90.414094,360.3558 -90.68913,360.48655 C -90.964187,360.61732 -91.322649,360.70975 -91.764518,360.76385 L -93.347163,358.6266 C -93.843156,358.65367 -94.285034,358.79119 -94.672798,359.03917 C -95.060574,359.28717 -95.401,359.60506 -95.694077,359.99282 C -95.987165,360.3806 -96.235157,360.82022 -96.438056,361.31169 C -96.640963,361.80317 -96.80554,362.30141 -96.931787,362.80641 C -97.058042,363.31142 -97.148221,363.80289 -97.202325,364.28084 C -97.256436,364.75879 -97.28349,365.18264 -97.283486,365.55237 C -97.28349,366.00327 -97.240655,366.4474 -97.154981,366.88476 C -97.069314,367.32214 -96.929537,367.71442 -96.735647,368.0616 C -96.541766,368.40879 -96.289265,368.6906 -95.978142,368.90703 C -95.667029,369.12346 -95.281513,369.23168 -94.821593,369.23168 C -94.451865,369.23168 -94.077621,369.1663 -93.698862,369.03554 C -93.320117,368.90478 -92.93911,368.72217 -92.55584,368.4877 C -92.172587,368.25324 -91.787071,367.97368 -91.399292,367.64903 C -91.011531,367.32439 -90.619252,366.96818 -90.222453,366.58041 L -90.222453,368.32538 C -90.511037,368.60493 -90.840191,368.90253 -91.209915,369.21815 C -91.579659,369.53378 -91.989974,369.82686 -92.440862,370.0974 C -92.891766,370.36794 -93.387751,370.59338 -93.928819,370.77374 C -94.145256,370.84589 -94.366195,370.89999 -94.591636,370.93606 L -94.848647,372.39697 C -94.77651,372.37893 -94.706621,372.3654 -94.63898,372.35639 C -94.571352,372.34737 -94.501463,372.34286 -94.429314,372.34286 C -93.193866,372.34286 -92.576139,372.82983 -92.576131,373.80376 L -92.576131,373.80376 z M -81.443507,369.90802 C -81.551729,369.95311 -81.750123,370.03878 -82.03869,370.16503 C -82.327269,370.29128 -82.665441,370.41979 -83.053206,370.55055 C -83.440982,370.68131 -83.849042,370.79629 -84.277389,370.89548 C -84.705744,370.99468 -85.109296,371.04428 -85.488045,371.04428 C -85.965998,371.04428 -86.34475,370.96312 -86.624303,370.8008 C -86.903861,370.63847 -87.111273,370.42655 -87.24654,370.16503 C -87.38181,369.90351 -87.458462,369.61043 -87.476497,369.28579 C -87.494534,368.96114 -87.471989,368.64101 -87.408862,368.32538 L -85.636841,358.93772 L -88.017572,358.68071 L -88.017572,357.88262 L -83.837765,357.0169 L -82.701507,357.0169 L -84.798174,368.09542 C -84.834249,368.2848 -84.831995,368.46516 -84.79141,368.63649 C -84.750834,368.80784 -84.683199,368.95889 -84.588507,369.08965 C -84.493823,369.22041 -84.372081,369.32411 -84.223281,369.40076 C -84.07449,369.47742 -83.905404,369.51574 -83.716023,369.51574 C -83.553706,369.51574 -83.362075,369.48644 -83.141131,369.42782 C -82.920197,369.3692 -82.699258,369.30157 -82.478313,369.22491 C -82.257381,369.14826 -82.052223,369.07387 -81.86284,369.00172 C -81.673471,368.92958 -81.533693,368.87998 -81.443507,368.85292 L -81.443507,369.90802 z M -81.565249,352.94531 C -81.565256,353.15274 -81.603582,353.34888 -81.680227,353.53373 C -81.756886,353.71861 -81.865101,353.88319 -82.004872,354.02746 C -82.144657,354.17176 -82.318252,354.28674 -82.525657,354.3724 C -82.733076,354.45808 -82.97205,354.50092 -83.242582,354.5009 C -83.810716,354.50092 -84.239067,354.34987 -84.527636,354.04775 C -84.816214,353.74567 -84.9605,353.37819 -84.960496,352.94531 C -84.9605,352.76497 -84.922174,352.58461 -84.845518,352.40423 C -84.76887,352.22389 -84.656146,352.05932 -84.507346,351.9105 C -84.358555,351.76173 -84.175942,351.63998 -83.959507,351.54528 C -83.743082,351.45061 -83.495089,351.40326 -83.215528,351.40324 C -82.954014,351.40326 -82.721803,351.44835 -82.518894,351.53851 C -82.315997,351.62871 -82.142402,351.74594 -81.998109,351.89021 C -81.853829,352.03452 -81.745614,352.19909 -81.673464,352.38394 C -81.601327,352.56883 -81.565256,352.75595 -81.565249,352.94531 L -81.565249,352.94531 z M -66.780362,370.15151 C -66.897609,370.1966 -67.102767,370.26648 -67.395835,370.36117 C -67.688931,370.45586 -68.015831,370.55506 -68.376534,370.65876 C -68.737264,370.76247 -69.106998,370.85265 -69.485739,370.9293 C -69.864503,371.00595 -70.198166,371.04428 -70.486728,371.04428 C -70.649062,371.04428 -70.872255,371.0285 -71.156309,370.99694 C -71.440383,370.96537 -71.713175,370.89323 -71.974685,370.78051 C -72.236214,370.66778 -72.448135,370.5032 -72.610449,370.28677 C -72.77278,370.07034 -72.813361,369.77726 -72.732191,369.40753 L -71.04133,360.89912 C -70.978215,360.52939 -70.975961,360.22278 -71.034567,359.97929 C -71.093194,359.73582 -71.187882,359.53968 -71.318632,359.39087 C -71.449401,359.24209 -71.600451,359.13838 -71.771782,359.07975 C -71.943132,359.02115 -72.105455,358.99184 -72.25875,358.99183 C -72.484207,358.99184 -72.761508,359.05722 -73.090653,359.18797 C -73.419815,359.31874 -73.767005,359.49233 -74.132223,359.70875 C -74.497456,359.92519 -74.864936,360.17995 -75.234664,360.47302 C -75.604405,360.76611 -75.942577,361.07498 -76.249181,361.39961 L -78.156471,370.70611 L -80.740106,370.70611 L -78.332321,358.93772 L -80.658945,358.68071 L -80.658945,357.88262 L -76.479138,357.0169 L -75.369933,357.0169 L -75.883955,359.60054 C -75.577351,359.29394 -75.225653,358.98507 -74.828858,358.67394 C -74.432076,358.36284 -74.008234,358.08554 -73.557331,357.84204 C -73.106443,357.59857 -72.639766,357.40018 -72.157298,357.24686 C -71.674849,357.09357 -71.203663,357.01692 -70.743739,357.0169 C -69.733743,357.01692 -69.014565,357.29647 -68.586201,357.85557 C -68.157863,358.41469 -68.051902,359.31648 -68.268319,360.56094 L -69.74275,368.37948 C -69.787851,368.64101 -69.76756,368.84842 -69.681879,369.00172 C -69.59622,369.15503 -69.483496,369.27226 -69.343707,369.35342 C -69.203941,369.43458 -69.0574,369.48644 -68.904083,369.50898 C -68.750791,369.53152 -68.633558,369.5428 -68.552384,369.5428 C -68.299895,369.5428 -68.024849,369.50673 -67.727244,369.43458 C -67.429666,369.36244 -67.123057,369.27677 -66.807416,369.17757 L -66.780362,370.15151 z M -48.23501,362.27886 C -48.235021,361.62056 -48.298146,361.0389 -48.424387,360.53389 C -48.550648,360.0289 -48.721988,359.60506 -48.938408,359.26236 C -49.154848,358.91969 -49.414113,358.65818 -49.716204,358.4778 C -50.018313,358.29746 -50.345212,358.20728 -50.696903,358.20727 C -51.301111,358.20728 -51.862476,358.42596 -52.381,358.86332 C -52.899536,359.3007 -53.348178,359.87334 -53.726925,360.58124 C -54.105682,361.28915 -54.403274,362.08724 -54.6197,362.97549 C -54.836133,363.86377 -54.944348,364.75879 -54.944345,365.66058 C -54.944348,366.34595 -54.881223,366.94564 -54.754968,367.45966 C -54.628721,367.97368 -54.452872,368.40429 -54.22742,368.75147 C -54.001976,369.09866 -53.740457,369.35793 -53.442861,369.52927 C -53.145275,369.70061 -52.82063,369.78628 -52.468925,369.78628 C -52.036071,369.78628 -51.628011,369.67581 -51.244742,369.45487 C -50.861488,369.23393 -50.514298,368.93634 -50.203172,368.5621 C -49.892062,368.18786 -49.614761,367.75274 -49.371269,367.25675 C -49.127794,366.76077 -48.920382,366.23548 -48.749032,365.68087 C -48.577701,365.12627 -48.449196,364.55589 -48.363516,363.96972 C -48.277856,363.38356 -48.235021,362.81994 -48.23501,362.27886 L -48.23501,362.27886 z M -45.434945,362.4006 C -45.434959,363.1491 -45.518374,363.8818 -45.685193,364.59872 C -45.852037,365.31565 -46.091012,365.99425 -46.402118,366.63452 C -46.713248,367.27479 -47.087491,367.86321 -47.524849,368.39977 C -47.962229,368.93634 -48.453705,369.40076 -48.999279,369.79304 C -49.544873,370.18532 -50.1378,370.49193 -50.778064,370.71287 C -51.418344,370.93381 -52.094688,371.04428 -52.807097,371.04428 C -53.564608,371.04428 -54.249969,370.92254 -54.863183,370.67905 C -55.476405,370.43557 -55.994935,370.08613 -56.418775,369.63072 C -56.842619,369.17532 -57.169519,368.62522 -57.399474,367.98044 C -57.629432,367.33566 -57.744411,366.61198 -57.74441,365.80938 C -57.744411,365.06089 -57.663249,364.32368 -57.500926,363.59773 C -57.338604,362.8718 -57.106393,362.18418 -56.804291,361.53488 C -56.502193,360.8856 -56.134713,360.28365 -55.70185,359.72904 C -55.268993,359.17445 -54.779771,358.6965 -54.234183,358.29519 C -53.688604,357.89391 -53.093422,357.58053 -52.448635,357.35507 C -51.80386,357.12964 -51.120753,357.01692 -50.399312,357.0169 C -49.731994,357.01692 -49.098486,357.12062 -48.498785,357.32802 C -47.899103,357.53545 -47.371555,357.86009 -46.916139,358.30196 C -46.460746,358.74385 -46.10003,359.30296 -45.833988,359.97929 C -45.567973,360.65564 -45.434959,361.46275 -45.434945,362.4006 L -45.434945,362.4006 z M -50.683376,352.94531 C -50.683384,353.15274 -50.723965,353.35113 -50.805118,353.54049 C -50.886287,353.72989 -50.996757,353.89672 -51.136527,354.04099 C -51.276312,354.18529 -51.438634,354.29801 -51.623495,354.37916 C -51.808369,354.46034 -52.004509,354.50092 -52.211914,354.5009 C -52.410315,354.50092 -52.599691,354.46034 -52.780043,354.37916 C -52.960407,354.29801 -53.118221,354.18529 -53.253484,354.04099 C -53.388758,353.89672 -53.496973,353.73439 -53.578129,353.55402 C -53.659296,353.37368 -53.699876,353.17979 -53.699871,352.97236 C -53.699876,352.77399 -53.659296,352.58236 -53.578129,352.39747 C -53.496973,352.21262 -53.388758,352.04804 -53.253484,351.90374 C -53.118221,351.75947 -52.960407,351.64449 -52.780043,351.5588 C -52.599691,351.47315 -52.410315,351.43032 -52.211914,351.4303 C -52.004509,351.43032 -51.808369,351.4709 -51.623495,351.55204 C -51.438634,351.63322 -51.276312,351.74144 -51.136527,351.87669 C -50.996757,352.01197 -50.886287,352.17204 -50.805118,352.35689 C -50.723965,352.54178 -50.683384,352.73792 -50.683376,352.94531 L -50.683376,352.94531 z M -44.947978,352.94531 C -44.947991,353.15274 -44.986317,353.35113 -45.062956,353.54049 C -45.139622,353.72989 -45.245582,353.89672 -45.380838,354.04099 C -45.51612,354.18529 -45.676188,354.29801 -45.861042,354.37916 C -46.045922,354.46034 -46.242062,354.50092 -46.449462,354.5009 C -46.656886,354.50092 -46.853025,354.46034 -47.037881,354.37916 C -47.22276,354.29801 -47.382828,354.18529 -47.518085,354.04099 C -47.653365,353.89672 -47.76158,353.72989 -47.842731,353.54049 C -47.923903,353.35113 -47.964483,353.15274 -47.964473,352.94531 C -47.964483,352.75595 -47.921648,352.56883 -47.835967,352.38394 C -47.750308,352.19909 -47.637584,352.03677 -47.497795,351.89698 C -47.358029,351.75722 -47.195706,351.64449 -47.010827,351.5588 C -46.825972,351.47315 -46.63885,351.43032 -46.449462,351.4303 C -46.242062,351.43032 -46.045922,351.4709 -45.861042,351.55204 C -45.676188,351.63322 -45.51612,351.74144 -45.380838,351.87669 C -45.245582,352.01197 -45.139622,352.17204 -45.062956,352.35689 C -44.986317,352.54178 -44.947991,352.73792 -44.947978,352.94531 L -44.947978,352.94531 z M -41.512161,368.74471 L -39.185537,368.136 C -38.996166,368.20815 -38.779736,368.29607 -38.536247,368.39977 C -38.292769,368.50348 -38.042522,368.60493 -37.785505,368.70413 C -37.528501,368.80333 -37.278254,368.889 -37.034762,368.96114 C -36.791286,369.03328 -36.574856,369.06936 -36.385472,369.06935 C -36.187086,369.06936 -36.013491,369.04005 -35.864687,368.98143 C -35.7159,368.92282 -35.58514,368.84842 -35.472407,368.75824 C -35.359693,368.66806 -35.258241,368.57112 -35.168052,368.46741 C -35.077883,368.3637 -34.992213,368.26225 -34.911042,368.16305 L -36.43958,366.47219 C -36.349409,366.30987 -36.241194,366.16333 -36.114934,366.03257 C -35.988692,365.90181 -35.855678,365.79134 -35.715891,365.70116 C -35.576122,365.61099 -35.43409,365.5411 -35.289794,365.49149 C -35.145517,365.4419 -35.010248,365.4171 -34.883988,365.4171 C -34.631496,365.4171 -34.408303,365.46895 -34.214407,365.57266 C -34.020532,365.67637 -33.855955,365.80938 -33.720676,365.9717 C -33.585418,366.13403 -33.481712,366.31889 -33.409558,366.5263 C -33.337425,366.73372 -33.301354,366.93662 -33.301342,367.13501 C -33.301354,367.69412 -33.42535,368.21265 -33.673332,368.6906 C -33.921335,369.16855 -34.241471,369.58112 -34.633741,369.92831 C -35.02603,370.2755 -35.45889,370.54829 -35.932321,370.74669 C -36.405771,370.94508 -36.867939,371.04428 -37.318827,371.04428 C -37.742676,371.04428 -38.146228,370.98341 -38.529483,370.86167 C -38.912751,370.73993 -39.282485,370.60466 -39.638688,370.45586 C -39.9949,370.30707 -40.344344,370.16954 -40.687021,370.04329 C -41.029706,369.91704 -41.367877,369.85392 -41.701537,369.85391 C -41.773684,369.85392 -41.879644,369.86744 -42.019419,369.89449 C -42.159199,369.92155 -42.292214,369.9982 -42.418462,370.12445 L -43.108333,371.42303 L -45.029151,370.39499 L -35.627967,359.39763 L -38.076333,359.92518 C -38.455091,359.71778 -38.847371,359.53291 -39.253171,359.37058 C -39.658983,359.20827 -40.051262,359.12711 -40.43001,359.1271 C -40.547247,359.12711 -40.678007,359.14514 -40.82229,359.1812 C -40.96658,359.21729 -41.106358,359.26914 -41.241623,359.33676 C -41.376895,359.40441 -41.505401,359.48782 -41.62714,359.58701 C -41.748884,359.68622 -41.845827,359.79894 -41.917968,359.92518 L -40.457064,361.6972 C -40.49314,361.75132 -40.556265,361.83023 -40.64644,361.93392 C -40.736624,362.03764 -40.847093,362.14134 -40.977849,362.24504 C -41.108612,362.34876 -41.259663,362.43668 -41.431,362.50882 C -41.602343,362.58097 -41.782702,362.61704 -41.972075,362.61703 C -42.233597,362.61704 -42.4613,362.56519 -42.655183,362.46147 C -42.84907,362.35777 -43.009138,362.22476 -43.135387,362.06243 C -43.261639,361.90012 -43.354073,361.72201 -43.412688,361.52812 C -43.471306,361.33424 -43.500614,361.15163 -43.500613,360.98028 C -43.500614,360.55645 -43.412689,360.11231 -43.236839,359.64788 C -43.060991,359.18347 -42.80398,358.75512 -42.465806,358.36283 C -42.127637,357.97056 -41.717322,357.64817 -41.23486,357.39565 C -40.752405,357.14317 -40.204567,357.01692 -39.591344,357.0169 C -39.176524,357.01692 -38.777482,357.08906 -38.394214,357.23333 C -38.010959,357.37763 -37.647988,357.5377 -37.3053,357.71354 C -36.962627,357.8894 -36.635727,358.04947 -36.324601,358.19374 C -36.013491,358.33804 -35.718155,358.41018 -35.43859,358.41017 C -35.384492,358.41018 -35.30784,358.39891 -35.208633,358.37635 C -35.109445,358.35382 -34.974177,358.29746 -34.802827,358.20727 L -34.194117,356.6652 L -32.110977,357.74735 L -41.512161,368.74471 z M -23.359084,373.14095 C -23.359092,372.80728 -23.45829,372.50067 -23.656675,372.22112 C -23.855078,371.94156 -24.224812,371.67553 -24.76588,371.42303 L -28.228762,369.85391 C -28.670644,369.96213 -29.038124,370.11093 -29.331203,370.3003 C -29.624288,370.48968 -29.856499,370.70385 -30.027837,370.94283 C -30.19918,371.1818 -30.320922,371.43656 -30.393063,371.7071 C -30.465208,371.97763 -30.50128,372.25268 -30.501278,372.53224 C -30.50128,372.84786 -30.433646,373.19505 -30.298375,373.57381 C -30.163108,373.95256 -29.953442,374.30426 -29.669375,374.6289 C -29.385313,374.95355 -29.026851,375.22634 -28.593988,375.44728 C -28.161131,375.66821 -27.651619,375.77868 -27.06545,375.77869 C -26.398129,375.77868 -25.830001,375.684 -25.361062,375.49462 C -24.892138,375.30524 -24.508876,375.07529 -24.211277,374.80475 C -23.913694,374.53421 -23.697264,374.24789 -23.561987,373.9458 C -23.426727,373.64369 -23.359092,373.37541 -23.359084,373.14095 L -23.359084,373.14095 z M -23.656675,360.76385 C -23.656684,360.42118 -23.688246,360.09428 -23.751363,359.78315 C -23.814497,359.47204 -23.91144,359.197 -24.042191,358.95801 C -24.172959,358.71905 -24.339791,358.52967 -24.542686,358.38988 C -24.745597,358.25011 -24.986826,358.18023 -25.266374,358.18021 C -25.600044,358.18023 -25.942725,358.30197 -26.294417,358.54544 C -26.646122,358.78894 -26.968512,359.1226 -27.26159,359.54643 C -27.554677,359.97028 -27.793652,360.46627 -27.978514,361.03439 C -28.163386,361.60252 -28.25582,362.21123 -28.255816,362.86052 C -28.25582,363.19419 -28.219748,363.50305 -28.147601,363.78711 C -28.075461,364.07118 -27.969501,364.31466 -27.829719,364.51756 C -27.689945,364.72047 -27.523114,364.87828 -27.329224,364.991 C -27.135344,365.10373 -26.916659,365.16009 -26.67317,365.16009 C -26.213262,365.16009 -25.796184,365.01355 -25.421933,364.72046 C -25.047697,364.42739 -24.729815,364.05991 -24.468288,363.61802 C -24.206776,363.17615 -24.006128,362.6982 -23.866342,362.18417 C -23.726572,361.67016 -23.656684,361.19672 -23.656675,360.76385 L -23.656675,360.76385 z M -21.357105,359.04593 C -21.275954,359.25336 -21.197048,359.51939 -21.120384,359.84402 C -21.043743,360.16868 -21.005417,360.52037 -21.005406,360.89912 C -21.005417,361.78288 -21.167739,362.55391 -21.492374,363.21221 C -21.817029,363.87053 -22.254398,364.42062 -22.804481,364.86249 C -23.354584,365.30438 -23.992601,365.63579 -24.718535,365.85672 C -25.444485,366.07766 -26.208753,366.18813 -27.011342,366.18813 C -27.074473,366.3234 -27.12858,366.4722 -27.173665,366.63452 C -27.21876,366.79684 -27.254831,366.95691 -27.28188,367.11472 C -27.308939,367.27254 -27.326974,367.41682 -27.335987,367.54758 C -27.34501,367.67834 -27.335992,367.77979 -27.308934,367.85194 L -23.602568,369.5428 C -23.178734,369.73217 -22.793218,369.9238 -22.446019,370.11769 C -22.098839,370.31157 -21.801248,370.5235 -21.553245,370.75345 C -21.305263,370.98341 -21.113632,371.24493 -20.978352,371.53801 C -20.843095,371.83109 -20.77546,372.18054 -20.775449,372.58634 C -20.77546,372.98313 -20.867894,373.36865 -21.05275,373.74289 C -21.237628,374.11713 -21.49013,374.46883 -21.810255,374.79799 C -22.130402,375.12714 -22.513663,375.43149 -22.960041,375.71105 C -23.406437,375.99061 -23.888895,376.22958 -24.407417,376.42798 C -24.925955,376.62637 -25.471539,376.77967 -26.04417,376.88789 C -26.616814,376.9961 -27.196215,377.05021 -27.782375,377.05022 C -28.693188,377.05021 -29.482256,376.93749 -30.149579,376.71204 C -30.816907,376.48659 -31.369254,376.189 -31.806623,375.81927 C -32.243992,375.44953 -32.568637,375.02118 -32.780558,374.53422 C -32.992479,374.04724 -33.098439,373.53773 -33.09844,373.00568 C -33.098439,372.53674 -33.001497,372.10388 -32.807612,371.7071 C -32.613726,371.31031 -32.349952,370.9541 -32.016289,370.63847 C -31.682627,370.32285 -31.292602,370.04329 -30.846214,369.79981 C -30.399829,369.55632 -29.924134,369.34891 -29.419128,369.17757 C -29.46422,368.96114 -29.466474,368.70639 -29.425891,368.4133 C -29.385313,368.12022 -29.317679,367.82263 -29.222988,367.52053 C -29.128303,367.21843 -29.004306,366.9276 -28.850998,366.64804 C -28.697697,366.36849 -28.526357,366.13403 -28.336977,365.94464 C -28.706715,365.78233 -29.049396,365.59521 -29.36502,365.38328 C -29.68065,365.17136 -29.953442,364.92788 -30.183397,364.65283 C -30.413355,364.37779 -30.593714,364.06216 -30.724472,363.70595 C -30.855233,363.34974 -30.920613,362.9507 -30.920612,362.50882 C -30.920613,361.83248 -30.794362,361.16741 -30.541859,360.5136 C -30.289359,359.85981 -29.921879,359.27365 -29.439418,358.75511 C -28.956962,358.23659 -28.370798,357.81725 -27.680923,357.49711 C -26.991057,357.17698 -26.204244,357.01692 -25.320482,357.0169 C -24.986826,357.01692 -24.673453,357.04622 -24.380363,357.10483 C -24.087289,357.16346 -23.821261,357.23109 -23.582277,357.30773 C -23.343311,357.3844 -23.135899,357.4633 -22.960041,357.54445 C -22.784201,357.62562 -22.655695,357.69326 -22.574524,357.74735 L -18.814051,357.74735 L -18.814051,359.04593 L -21.357105,359.04593 z M -5.5577056,370.04329 C -5.7290604,370.14249 -5.9657807,370.2507 -6.267867,370.36794 C -6.5699809,370.48517 -6.8968803,370.59338 -7.2485661,370.69258 C -7.6002775,370.79178 -7.9587396,370.87519 -8.3239533,370.94283 C -8.6891906,371.01046 -9.0205989,371.04428 -9.3181793,371.04428 C -9.841229,371.04428 -10.228999,370.95635 -10.481491,370.78051 C -10.734002,370.60466 -10.907597,370.40175 -11.002276,370.1718 C -11.096974,369.94184 -11.139809,369.70963 -11.130782,369.47516 C -11.121773,369.2407 -11.117264,369.06936 -11.117255,368.96114 C -11.847715,369.65552 -12.611983,370.17631 -13.410062,370.52349 C -14.208154,370.87068 -15.071619,371.04428 -16.00046,371.04428 C -16.640736,371.04428 -17.163775,370.93156 -17.569578,370.70611 C -17.975387,370.48066 -18.281996,370.1966 -18.489407,369.85391 C -18.69682,369.51123 -18.823071,369.13699 -18.868159,368.73118 C -18.91325,368.32538 -18.899723,367.94212 -18.827579,367.5814 L -17.028503,358.93772 L -19.355127,358.68071 L -19.355127,357.88262 L -15.17532,357.0169 L -14.039062,357.0169 L -16.243944,367.5814 C -16.298055,367.81587 -16.286783,368.03906 -16.210127,368.25098 C -16.133478,368.4629 -16.020754,368.64777 -15.871955,368.80558 C -15.723163,368.9634 -15.554077,369.08965 -15.364696,369.18433 C -15.175325,369.27902 -14.990458,369.32637 -14.810094,369.32637 C -14.476437,369.32637 -14.140519,369.27902 -13.802341,369.18433 C -13.464176,369.08965 -13.128259,368.96114 -12.794588,368.79882 C -12.460933,368.6365 -12.140797,368.44937 -11.83418,368.23745 C -11.527579,368.02553 -11.243515,367.79783 -10.981986,367.55434 L -8.885319,357.35507 L -6.3016842,357.35507 L -8.5200931,368.01426 C -8.5832301,368.30283 -8.5832301,368.54406 -8.5200931,368.73795 C -8.4569793,368.93183 -8.3600367,369.0919 -8.2292651,369.21815 C -8.0985172,369.3444 -7.9497217,369.43458 -7.782878,369.48869 C -7.6160589,369.5428 -7.4559909,369.56985 -7.3026736,369.56985 C -7.1223281,369.56985 -6.8833534,369.5428 -6.5857487,369.48869 C -6.2881711,369.43458 -5.9454904,369.2948 -5.5577056,369.06935 L -5.5577056,370.04329 z M -11.982975,352.94531 C -11.982984,353.15274 -12.023564,353.35113 -12.104717,353.54049 C -12.185887,353.72989 -12.296356,353.89672 -12.436126,354.04099 C -12.575911,354.18529 -12.738234,354.29801 -12.923094,354.37916 C -13.107968,354.46034 -13.304108,354.50092 -13.511513,354.5009 C -13.709914,354.50092 -13.89929,354.46034 -14.079642,354.37916 C -14.260007,354.29801 -14.41782,354.18529 -14.553083,354.04099 C -14.688358,353.89672 -14.796573,353.73439 -14.877729,353.55402 C -14.958895,353.37368 -14.999476,353.17979 -14.999471,352.97236 C -14.999476,352.77399 -14.958895,352.58236 -14.877729,352.39747 C -14.796573,352.21262 -14.688358,352.04804 -14.553083,351.90374 C -14.41782,351.75947 -14.260007,351.64449 -14.079642,351.5588 C -13.89929,351.47315 -13.709914,351.43032 -13.511513,351.4303 C -13.304108,351.43032 -13.107968,351.4709 -12.923094,351.55204 C -12.738234,351.63322 -12.575911,351.74144 -12.436126,351.87669 C -12.296356,352.01197 -12.185887,352.17204 -12.104717,352.35689 C -12.023564,352.54178 -11.982984,352.73792 -11.982975,352.94531 L -11.982975,352.94531 z M -6.2475766,352.94531 C -6.2475905,353.15274 -6.2859166,353.35113 -6.3625552,353.54049 C -6.4392211,353.72989 -6.5451816,353.89672 -6.6804369,354.04099 C -6.815719,354.18529 -6.975787,354.29801 -7.1606413,354.37916 C -7.3455215,354.46034 -7.5416611,354.50092 -7.7490608,354.5009 C -7.9564851,354.50092 -8.1526247,354.46034 -8.3374802,354.37916 C -8.5223592,354.29801 -8.6824271,354.18529 -8.8176846,354.04099 C -8.9529645,353.89672 -9.0611795,353.72989 -9.1423298,353.54049 C -9.223502,353.35113 -9.2640826,353.15274 -9.2640718,352.94531 C -9.2640826,352.75595 -9.2212475,352.56883 -9.1355664,352.38394 C -9.0499071,352.19909 -8.9371832,352.03677 -8.7973943,351.89698 C -8.6576279,351.75722 -8.4953054,351.64449 -8.3104264,351.5588 C -8.125571,351.47315 -7.9384493,351.43032 -7.7490608,351.4303 C -7.5416611,351.43032 -7.3455215,351.4709 -7.1606413,351.55204 C -6.975787,351.63322 -6.815719,351.74144 -6.6804369,351.87669 C -6.5451816,352.01197 -6.4392211,352.17204 -6.3625552,352.35689 C -6.2859166,352.54178 -6.2475905,352.73792 -6.2475766,352.94531 L -6.2475766,352.94531 z M 5.872516,358.88361 C 5.8725047,359.20827 5.8138882,359.46753 5.6966665,359.66141 C 5.5794225,359.8553 5.4125911,360.00184 5.1961718,360.10103 C 4.9797312,360.20024 4.7204662,360.26562 4.418376,360.29717 C 4.116266,360.32874 3.7758398,360.34453 3.3970963,360.34451 L 2.734279,359.01888 C 2.39159,359.16318 2.0241101,359.41343 1.6318379,359.76962 C 1.2395516,360.12584 0.86756264,360.53165 0.51586999,360.98704 C 0.16416538,361.44246 -0.14244368,361.91139 -0.40395811,362.39384 C -0.66548267,362.8763 -0.83682303,363.32044 -0.9179797,363.72624 L -2.3653563,370.70611 L -4.9354642,370.70611 L -2.5547327,358.93772 L -4.8813567,358.68071 L -4.8813567,357.88262 L -0.70154956,357.0169 L 0.40765492,357.0169 L -0.17400109,359.81697 C 0.39412218,358.94224 1.038903,358.25688 1.7603433,357.76088 C 2.4817692,357.26491 3.2618187,357.01692 4.1004942,357.0169 C 4.4341475,357.01692 4.7137028,357.07779 4.939161,357.19951 C 5.1645985,357.32127 5.3472112,357.47683 5.4869998,357.66619 C 5.6267665,357.85558 5.7259636,358.05848 5.7845913,358.2749 C 5.8431965,358.49134 5.8725047,358.69425 5.872516,358.88361 L 5.872516,358.88361 z M 26.812146,370.07034 C 26.577667,370.18758 26.309384,370.30481 26.007297,370.42204 C 25.705184,370.53928 25.39632,370.64298 25.080705,370.73316 C 24.765066,370.82334 24.456203,370.89774 24.154114,370.95636 C 23.852002,371.01497 23.592737,371.04428 23.376318,371.04428 C 23.15086,371.04428 22.929921,371.00595 22.713501,370.9293 C 22.497061,370.85265 22.291903,370.75345 22.098027,370.63171 C 21.904133,370.50997 21.726029,370.37019 21.563715,370.21238 C 21.401384,370.05456 21.266116,369.8945 21.157909,369.73217 C 21.03165,369.5428 20.889618,369.29706 20.731812,368.99496 C 20.573991,368.69286 20.407159,368.36145 20.231317,368.00073 C 20.055461,367.64002 19.877357,367.26352 19.697005,366.87124 C 19.516641,366.47896 19.343046,366.10021 19.17622,365.73498 C 19.009383,365.36976 18.856078,365.02933 18.716306,364.7137 C 18.576523,364.39808 18.457036,364.14107 18.357844,363.94267 L 17.086317,365.07892 L 15.950059,370.70611 L 13.407004,370.70611 L 17.086317,352.20133 L 14.651478,351.95785 L 14.651478,351.11918 L 18.9395,350.29404 L 20.048704,350.29404 L 17.478596,363.17163 L 21.955995,358.54544 C 22.217506,358.27491 22.45648,358.0427 22.67292,357.8488 C 22.88934,357.65493 23.099007,357.49712 23.30192,357.37536 C 23.504813,357.25364 23.70997,357.16346 23.917393,357.10483 C 24.124794,357.04622 24.350242,357.01692 24.593737,357.0169 C 24.900335,357.01692 25.168618,357.062 25.398587,357.15217 C 25.628531,357.24236 25.817908,357.3596 25.966716,357.50387 C 26.115499,357.64817 26.225968,357.81049 26.298125,357.99084 C 26.370255,358.17121 26.401818,358.34706 26.392813,358.51839 C 26.3928,358.83402 26.246259,359.16092 25.953189,359.49908 C 25.660094,359.83727 25.188908,360.11908 24.53963,360.34451 L 23.592748,359.34353 C 23.340236,359.54193 23.067444,359.76287 22.774372,360.00634 C 22.48128,360.24984 22.185943,360.49783 21.888361,360.75032 C 21.590761,361.00283 21.306696,361.25083 21.036167,361.4943 C 20.765622,361.73779 20.522138,361.95422 20.305715,362.14359 C 20.422941,362.37806 20.551446,362.67115 20.691231,363.02284 C 20.831001,363.37454 20.979797,363.75104 21.137619,364.15233 C 21.295424,364.55364 21.466764,364.96395 21.65164,365.38328 C 21.836499,365.80262 22.032638,366.20166 22.24006,366.58041 C 22.447462,366.96818 22.666147,367.34017 22.896113,367.69638 C 23.12606,368.05259 23.362781,368.36821 23.606275,368.64326 C 23.849748,368.91831 24.097741,369.13699 24.350254,369.29931 C 24.602744,369.46164 24.850736,369.5428 25.094232,369.5428 C 25.193417,369.5428 25.315159,369.53152 25.459458,369.50898 C 25.603732,369.48644 25.757037,369.45713 25.919372,369.42105 C 26.081682,369.38498 26.24175,369.33989 26.399576,369.28579 C 26.557377,369.23168 26.6949,369.17757 26.812146,369.12346 L 26.812146,370.07034 z M 34.454839,369.90802 C 34.346617,369.95311 34.148223,370.03878 33.859656,370.16503 C 33.571076,370.29128 33.232905,370.41979 32.84514,370.55055 C 32.457364,370.68131 32.049304,370.79629 31.620957,370.89548 C 31.192602,370.99468 30.78905,371.04428 30.410301,371.04428 C 29.932348,371.04428 29.553596,370.96312 29.274043,370.8008 C 28.994485,370.63847 28.787073,370.42655 28.651806,370.16503 C 28.516536,369.90351 28.439884,369.61043 28.421849,369.28579 C 28.403812,368.96114 28.426357,368.64101 28.489483,368.32538 L 30.261505,358.93772 L 27.880774,358.68071 L 27.880774,357.88262 L 32.060581,357.0169 L 33.196839,357.0169 L 31.100172,368.09542 C 31.064097,368.2848 31.066351,368.46516 31.106936,368.63649 C 31.147512,368.80784 31.215147,368.95889 31.309839,369.08965 C 31.404523,369.22041 31.526265,369.32411 31.675065,369.40076 C 31.823856,369.47742 31.992942,369.51574 32.182323,369.51574 C 32.34464,369.51574 32.536271,369.48644 32.757215,369.42782 C 32.978149,369.3692 33.199088,369.30157 33.420033,369.22491 C 33.640965,369.14826 33.846123,369.07387 34.035506,369.00172 C 34.224875,368.92958 34.364653,368.87998 34.454839,368.85292 L 34.454839,369.90802 z M 34.333097,352.94531 C 34.33309,353.15274 34.294764,353.34888 34.218119,353.53373 C 34.14146,353.71861 34.033245,353.88319 33.893474,354.02746 C 33.753689,354.17176 33.580094,354.28674 33.372689,354.3724 C 33.16527,354.45808 32.926296,354.50092 32.655764,354.5009 C 32.08763,354.50092 31.659279,354.34987 31.37071,354.04775 C 31.082132,353.74567 30.937846,353.37819 30.937849,352.94531 C 30.937846,352.76497 30.976172,352.58461 31.052828,352.40423 C 31.129476,352.22389 31.2422,352.05932 31.391,351.9105 C 31.539791,351.76173 31.722404,351.63998 31.938839,351.54528 C 32.155264,351.45061 32.403257,351.40326 32.682818,351.40324 C 32.944331,351.40326 33.176543,351.44835 33.379452,351.53851 C 33.582349,351.62871 33.755944,351.74594 33.900237,351.89021 C 34.044517,352.03452 34.152732,352.19909 34.224882,352.38394 C 34.297019,352.56883 34.33309,352.75595 34.333097,352.94531 L 34.333097,352.94531 z M 40.122591,359.10004 L 38.377623,367.79783 C 38.323512,368.04131 38.332529,368.26 38.404677,368.45388 C 38.476816,368.64777 38.591794,368.81009 38.749612,368.94085 C 38.907421,369.07161 39.092289,369.17306 39.304214,369.2452 C 39.516131,369.31735 39.739324,369.35342 39.973795,369.35342 C 40.235309,369.35342 40.505847,369.32862 40.785408,369.27902 C 41.064957,369.22942 41.33324,369.16855 41.590258,369.09641 C 41.847261,369.02427 42.086236,368.94987 42.307183,368.87322 C 42.528114,368.79656 42.710726,368.73118 42.855021,368.67708 L 42.855021,369.78628 C 42.73778,369.84039 42.512332,369.93508 42.178677,370.07034 C 41.845007,370.20561 41.461745,370.34539 41.028892,370.48968 C 40.596026,370.63396 40.140621,370.76247 39.662677,370.87519 C 39.184722,370.98792 38.747353,371.04428 38.350569,371.04428 C 37.845562,371.04428 37.426229,370.98341 37.092569,370.86167 C 36.758904,370.73993 36.492875,370.57309 36.294483,370.36117 C 36.096087,370.14925 35.954055,369.89675 35.868386,369.60367 C 35.782714,369.31059 35.739879,368.9927 35.73988,368.65002 C 35.739879,368.46967 35.746643,368.2848 35.760171,368.09542 C 35.773696,367.90605 35.803005,367.71216 35.848096,367.51376 L 37.538956,359.10004 L 35.793988,359.26236 L 35.793988,358.35606 L 37.877128,357.43623 L 39.229817,354.66322 L 40.920677,354.66322 L 40.366075,357.82851 L 44.194183,357.82851 L 44.194183,359.10004 L 40.122591,359.10004 z M 53.135443,359.84402 C 53.14445,359.79894 53.110633,359.69524 53.033991,359.5329 C 52.957329,359.37059 52.864895,359.2015 52.75669,359.02564 C 52.648465,358.84981 52.533487,358.69425 52.411754,358.55897 C 52.290003,358.42371 52.188552,358.35608 52.1074,358.35606 C 51.403993,358.35608 50.774994,358.47105 50.220399,358.701 C 49.66579,358.93097 49.181077,359.24209 48.766259,359.63435 C 48.351429,360.02664 47.997476,360.47979 47.704399,360.99381 C 47.411312,361.50784 47.174592,362.0444 46.994237,362.6035 C 46.813875,363.16262 46.683115,363.72624 46.601958,364.29436 C 46.520793,364.8625 46.480212,365.40357 46.480216,365.91759 C 46.480212,366.30537 46.511775,366.69314 46.574904,367.0809 C 46.638026,367.46868 46.748495,367.82038 46.906313,368.136 C 47.064122,368.45163 47.280552,368.70864 47.555603,368.90703 C 47.830645,369.10543 48.184598,369.20463 48.617464,369.20462 C 48.942103,369.20463 49.266748,369.13248 49.591399,368.98819 C 49.916037,368.84391 50.218137,368.67708 50.4977,368.4877 C 50.777248,368.29832 51.020732,368.10895 51.228152,367.91957 C 51.435556,367.7302 51.58886,367.58591 51.688066,367.48671 L 53.135443,359.84402 z M 57.207035,369.96213 C 57.098805,370.00722 56.900411,370.09064 56.611852,370.21238 C 56.323265,370.33412 56.000875,370.45586 55.64468,370.5776 C 55.288459,370.69934 54.927743,370.80756 54.562529,370.90225 C 54.197292,370.99694 53.87941,371.04428 53.608884,371.04428 C 53.27521,371.04428 52.9934,371.0037 52.763453,370.92254 C 52.533487,370.84138 52.344111,370.71963 52.195324,370.55731 C 52.046519,370.39499 51.931541,370.1966 51.850389,369.96213 C 51.769219,369.72766 51.715111,369.45713 51.688066,369.15052 C 51.480645,369.34891 51.237162,369.55858 50.957614,369.77952 C 50.678051,370.00046 50.369187,370.20561 50.031023,370.39499 C 49.692844,370.58437 49.332127,370.73993 48.948872,370.86167 C 48.565605,370.98341 48.166562,371.04428 47.751743,371.04428 C 47.210663,371.04428 46.734968,370.96763 46.324657,370.81432 C 45.914338,370.66102 45.560385,370.45586 45.262796,370.19885 C 44.965203,369.94184 44.719465,369.64425 44.525581,369.30608 C 44.331694,368.96791 44.176135,368.61621 44.058904,368.25098 C 43.94167,367.88576 43.860508,367.51602 43.81542,367.14177 C 43.770329,366.76753 43.747784,366.41358 43.747785,366.07991 C 43.747784,365.3675 43.824437,364.64832 43.977742,363.92238 C 44.131046,363.19644 44.358748,362.49755 44.66085,361.82571 C 44.962948,361.15388 45.339446,360.52488 45.790345,359.93871 C 46.241238,359.35255 46.762022,358.84304 47.3527,358.41017 C 47.943369,357.97732 48.601676,357.6369 49.327625,357.38889 C 50.053561,357.14091 50.849391,357.01692 51.71512,357.0169 C 51.967613,357.01692 52.21786,357.04622 52.465862,357.10483 C 52.713845,357.16346 52.946056,357.24011 53.162497,357.33478 C 53.378916,357.42948 53.57731,357.53545 53.757679,357.65266 C 53.938027,357.76991 54.091331,357.89165 54.217593,358.01789 L 54.6234,357.35507 L 56.517164,357.35507 C 56.472061,357.4633 56.422462,357.59181 56.368368,357.74059 C 56.314247,357.8894 56.26014,358.04045 56.206045,358.19374 C 56.151925,358.34706 56.104581,358.49134 56.064013,358.6266 C 56.023419,358.76188 55.99862,358.86559 55.989615,358.93772 C 55.926477,359.18121 55.836298,359.54869 55.719078,360.04016 C 55.601832,360.53165 55.477836,361.08399 55.347088,361.6972 C 55.216316,362.31043 55.081047,362.95296 54.941282,363.62478 C 54.801492,364.29663 54.677496,364.93239 54.569292,365.53207 C 54.461066,366.13177 54.370887,366.66383 54.298755,367.12825 C 54.2266,367.59267 54.190528,367.92859 54.19054,368.136 C 54.190528,368.62297 54.294234,368.95663 54.501658,369.13699 C 54.709058,369.31735 55.002141,369.40753 55.380905,369.40753 C 55.471072,369.40753 55.604086,369.38724 55.779949,369.34666 C 55.955785,369.30608 56.138398,369.25873 56.327787,369.20462 C 56.51715,369.15052 56.692999,369.10092 56.855336,369.05583 C 57.017644,369.01074 57.134877,368.97918 57.207035,368.96114 L 57.207035,369.96213 z M 67.352202,362.25181 C 67.352192,361.84601 67.309357,361.43344 67.223697,361.0141 C 67.138017,360.59477 67.007257,360.21377 66.831417,359.87107 C 66.655558,359.5284 66.432365,359.24885 66.161836,359.03241 C 65.89129,358.81599 65.571154,358.70777 65.201427,358.70776 C 64.867757,358.70777 64.534094,358.78217 64.200438,358.93096 C 63.866768,359.07976 63.562414,359.24659 63.287373,359.43145 C 63.012321,359.61633 62.775601,359.79669 62.577212,359.97253 C 62.378813,360.14839 62.243544,360.26336 62.171406,360.31746 L 60.521126,368.90703 C 60.602284,368.95212 60.717262,369.02201 60.866061,369.1167 C 61.014853,369.21139 61.188448,369.30382 61.386846,369.394 C 61.585236,369.48418 61.797157,369.56309 62.02261,369.63072 C 62.248053,369.69836 62.482519,369.73217 62.726008,369.73217 C 63.231005,369.73217 63.695428,369.61945 64.119277,369.394 C 64.543112,369.16855 64.926373,368.8642 65.269062,368.48094 C 65.611735,368.09768 65.913835,367.65354 66.175363,367.14854 C 66.436874,366.64354 66.653304,366.11374 66.824654,365.55913 C 66.995984,365.00453 67.126744,364.44317 67.216933,363.87503 C 67.307102,363.30691 67.352192,362.76583 67.352202,362.25181 L 67.352202,362.25181 z M 70.098159,362.14359 C 70.098147,362.9011 70.007968,363.64734 69.827622,364.38229 C 69.647251,365.11726 69.387986,365.81389 69.049826,366.47219 C 68.711642,367.13051 68.303582,367.73921 67.825643,368.29832 C 67.347683,368.85744 66.815626,369.33989 66.229471,369.7457 C 65.643297,370.15151 65.007534,370.46939 64.32218,370.69934 C 63.636812,370.9293 62.919887,371.04428 62.171406,371.04428 C 61.756577,371.04428 61.382333,370.98566 61.048674,370.86843 C 60.715008,370.7512 60.435452,370.64298 60.210007,370.54379 L 59.33076,374.99413 C 59.294686,375.14743 59.314977,375.27143 59.391631,375.36612 C 59.468281,375.4608 59.628349,375.52167 59.871835,375.54873 L 61.616803,375.69753 L 61.616803,376.7391 L 54.636931,376.7391 L 54.636931,375.69753 L 56.084308,375.54873 C 56.472079,375.52167 56.693018,375.33681 56.747125,374.99413 L 59.871835,358.93772 L 57.545211,358.68071 L 57.545211,357.88262 L 61.738545,357.0169 L 62.820696,357.0169 L 62.482524,358.73482 C 62.716984,358.58152 62.985267,358.40567 63.287373,358.20727 C 63.589468,358.00889 63.911858,357.82176 64.254546,357.6459 C 64.597219,357.47007 64.955681,357.32127 65.329933,357.19951 C 65.704168,357.07779 66.085175,357.01692 66.472955,357.0169 C 67.176343,357.01692 67.760253,357.16797 68.224686,357.47005 C 68.689098,357.77217 69.058832,358.1667 69.333891,358.65365 C 69.608925,359.14063 69.805064,359.69073 69.92231,360.30393 C 70.03953,360.91716 70.098147,361.53038 70.098159,362.14359 L 70.098159,362.14359 z M 78.336034,369.98918 C 78.227812,370.03427 78.024909,370.11318 77.727325,370.2259 C 77.429727,370.33863 77.096064,370.45586 76.726335,370.5776 C 76.356595,370.69934 75.971079,370.80756 75.569787,370.90225 C 75.168485,370.99694 74.805514,371.04428 74.480872,371.04428 C 74.057027,371.04428 73.696311,370.99468 73.398722,370.89548 C 73.101128,370.79629 72.857645,370.65651 72.66827,370.47615 C 72.478892,370.29579 72.341369,370.08162 72.2557,369.83362 C 72.170029,369.58563 72.127194,369.31284 72.127195,369.01525 C 72.127194,368.73569 72.154247,368.41105 72.208356,368.04131 L 75.251905,352.20133 L 72.790012,351.95785 L 72.790012,351.11918 L 77.118615,350.29404 L 78.187239,350.29404 L 74.819045,367.96015 C 74.782969,368.14953 74.791987,368.33665 74.846098,368.52152 C 74.900202,368.70639 74.985872,368.86871 75.103109,369.00848 C 75.220338,369.14826 75.364625,369.26324 75.535969,369.35342 C 75.707305,369.4436 75.892172,369.48869 76.090572,369.48869 C 76.225835,369.48869 76.403939,369.46389 76.624884,369.41429 C 76.845817,369.36469 77.06901,369.30833 77.294464,369.2452 C 77.519906,369.18208 77.729572,369.11896 77.923464,369.05583 C 78.117343,368.9927 78.254866,368.95212 78.336034,368.93409 L 78.336034,369.98918 z M 88.684118,359.84402 C 88.693126,359.79894 88.659309,359.69524 88.582667,359.5329 C 88.506004,359.37059 88.413571,359.2015 88.305366,359.02564 C 88.197141,358.84981 88.082162,358.69425 87.96043,358.55897 C 87.838679,358.42371 87.737227,358.35608 87.656075,358.35606 C 86.952669,358.35608 86.323669,358.47105 85.769075,358.701 C 85.214466,358.93097 84.729753,359.24209 84.314935,359.63435 C 83.900105,360.02664 83.546152,360.47979 83.253074,360.99381 C 82.959987,361.50784 82.723267,362.0444 82.542913,362.6035 C 82.362551,363.16262 82.231791,363.72624 82.150633,364.29436 C 82.069468,364.8625 82.028888,365.40357 82.028891,365.91759 C 82.028888,366.30537 82.06045,366.69314 82.12358,367.0809 C 82.186701,367.46868 82.297171,367.82038 82.454988,368.136 C 82.612798,368.45163 82.829228,368.70864 83.104279,368.90703 C 83.37932,369.10543 83.733273,369.20463 84.166139,369.20462 C 84.490778,369.20463 84.815423,369.13248 85.140075,368.98819 C 85.464713,368.84391 85.766813,368.67708 86.046376,368.4877 C 86.325924,368.29832 86.569407,368.10895 86.776828,367.91957 C 86.984231,367.7302 87.137536,367.58591 87.236742,367.48671 L 88.684118,359.84402 z M 92.75571,369.96213 C 92.647481,370.00722 92.449087,370.09064 92.160527,370.21238 C 91.87194,370.33412 91.54955,370.45586 91.193355,370.5776 C 90.837135,370.69934 90.476418,370.80756 90.111205,370.90225 C 89.745967,370.99694 89.428086,371.04428 89.157559,371.04428 C 88.823886,371.04428 88.542076,371.0037 88.312129,370.92254 C 88.082162,370.84138 87.892786,370.71963 87.744,370.55731 C 87.595195,370.39499 87.480217,370.1966 87.399064,369.96213 C 87.317894,369.72766 87.263787,369.45713 87.236742,369.15052 C 87.029321,369.34891 86.785837,369.55858 86.50629,369.77952 C 86.226727,370.00046 85.917863,370.20561 85.579698,370.39499 C 85.24152,370.58437 84.880803,370.73993 84.497548,370.86167 C 84.11428,370.98341 83.715238,371.04428 83.300418,371.04428 C 82.759339,371.04428 82.283644,370.96763 81.873332,370.81432 C 81.463014,370.66102 81.109061,370.45586 80.811472,370.19885 C 80.513878,369.94184 80.26814,369.64425 80.074257,369.30608 C 79.88037,368.96791 79.724811,368.61621 79.607579,368.25098 C 79.490345,367.88576 79.409184,367.51602 79.364095,367.14177 C 79.319005,366.76753 79.29646,366.41358 79.296461,366.07991 C 79.29646,365.3675 79.373112,364.64832 79.526418,363.92238 C 79.679721,363.19644 79.907424,362.49755 80.209526,361.82571 C 80.511624,361.15388 80.888122,360.52488 81.33902,359.93871 C 81.789913,359.35255 82.310698,358.84304 82.901375,358.41017 C 83.492044,357.97732 84.150352,357.6369 84.8763,357.38889 C 85.602236,357.14091 86.398067,357.01692 87.263795,357.0169 C 87.516288,357.01692 87.766535,357.04622 88.014538,357.10483 C 88.262521,357.16346 88.494732,357.24011 88.711172,357.33478 C 88.927592,357.42948 89.125986,357.53545 89.306355,357.65266 C 89.486702,357.76991 89.640007,357.89165 89.766269,358.01789 L 90.172076,357.35507 L 92.065839,357.35507 C 92.020736,357.4633 91.971138,357.59181 91.917044,357.74059 C 91.862923,357.8894 91.808815,358.04045 91.754721,358.19374 C 91.7006,358.34706 91.653256,358.49134 91.612689,358.6266 C 91.572095,358.76188 91.547296,358.86559 91.538291,358.93772 C 91.475152,359.18121 91.384973,359.54869 91.267753,360.04016 C 91.150507,360.53165 91.026511,361.08399 90.895764,361.6972 C 90.764992,362.31043 90.629723,362.95296 90.489957,363.62478 C 90.350168,364.29663 90.226171,364.93239 90.117968,365.53207 C 90.009741,366.13177 89.919562,366.66383 89.84743,367.12825 C 89.775276,367.59267 89.739204,367.92859 89.739215,368.136 C 89.739204,368.62297 89.84291,368.95663 90.050334,369.13699 C 90.257734,369.31735 90.550816,369.40753 90.929581,369.40753 C 91.019748,369.40753 91.152762,369.38724 91.328624,369.34666 C 91.50446,369.30608 91.687073,369.25873 91.876463,369.20462 C 92.065826,369.15052 92.241675,369.10092 92.404011,369.05583 C 92.56632,369.01074 92.683553,368.97918 92.75571,368.96114 L 92.75571,369.96213 z M 104.1859,358.88361 C 104.18589,359.20827 104.12727,359.46753 104.01005,359.66141 C 103.89281,359.8553 103.72598,360.00184 103.50956,360.10103 C 103.29312,360.20024 103.03385,360.26562 102.73176,360.29717 C 102.42965,360.32874 102.08922,360.34453 101.71048,360.34451 L 101.04766,359.01888 C 100.70498,359.16318 100.3375,359.41343 99.945223,359.76962 C 99.552937,360.12584 99.180948,360.53165 98.829255,360.98704 C 98.47755,361.44246 98.170941,361.91139 97.909427,362.39384 C 97.647902,362.8763 97.476562,363.32044 97.395405,363.72624 L 95.948029,370.70611 L 93.377921,370.70611 L 95.758652,358.93772 L 93.432028,358.68071 L 93.432028,357.88262 L 97.611835,357.0169 L 98.72104,357.0169 L 98.139384,359.81697 C 98.707507,358.94224 99.352288,358.25688 100.07373,357.76088 C 100.79515,357.26491 101.5752,357.01692 102.41388,357.0169 C 102.74753,357.01692 103.02709,357.07779 103.25255,357.19951 C 103.47798,357.32127 103.6606,357.47683 103.80038,357.66619 C 103.94015,357.85558 104.03935,358.05848 104.09798,358.2749 C 104.15658,358.49134 104.18589,358.69425 104.1859,358.88361 L 104.1859,358.88361 z"
     id="flowRoot2411" />
</svg>
