<?xml version="1.0" encoding="UTF-8" standalone="no"?>
<!-- Created with Inkscape (http://www.inkscape.org/) -->
<svg
   xmlns:xml="http://www.w3.org/XML/1998/namespace"
   xmlns:dc="http://purl.org/dc/elements/1.1/"
   xmlns:cc="http://creativecommons.org/ns#"
   xmlns:rdf="http://www.w3.org/1999/02/22-rdf-syntax-ns#"
   xmlns:svg="http://www.w3.org/2000/svg"
   xmlns="http://www.w3.org/2000/svg"
   xmlns:sodipodi="http://inkscape.sourceforge.net/DTD/sodipodi-0.dtd"
   xmlns:inkscape="http://www.inkscape.org/namespaces/inkscape"
   version="1.0"
   width="400"
   height="400"
   id="svg2728"
   sodipodi:version="0.32"
   inkscape:version="0.40+cvs"
   sodipodi:docname="Wikibooks-logo-be-noslogan.svg"
   sodipodi:docbase="Z:\обмен\wiki">
  <metadata
     id="metadata18">
    <rdf:RDF
       id="RDF1349">
      <cc:Work
         rdf:about=""
         id="Work1351">
        <dc:format
           id="format1353">image/svg+xml</dc:format>
        <dc:type
           rdf:resource="http://purl.org/dc/dcmitype/StillImage"
           id="type1355" />
      </cc:Work>
    </rdf:RDF>
  </metadata>
  <sodipodi:namedview
     inkscape:window-height="814"
     inkscape:window-width="1536"
     inkscape:pageshadow="2"
     inkscape:pageopacity="0.0"
     guidetolerance="10.0"
     gridtolerance="10.0"
     objecttolerance="10.0"
     borderopacity="1.0"
     bordercolor="#666666"
     pagecolor="#ffffff"
     id="base"
     showgrid="false"
     inkscape:zoom="1.2450000"
     inkscape:cx="12.868613"
     inkscape:cy="210.31788"
     inkscape:window-x="-8"
     inkscape:window-y="-8"
     inkscape:current-layer="svg2728" />
  <defs
     id="defs2731">
    <inkscape:perspective
       sodipodi:type="inkscape:persp3d"
       inkscape:vp_x="0 : 200 : 1"
       inkscape:vp_y="0 : 1000 : 0"
       inkscape:vp_z="400 : 200 : 1"
       inkscape:persp3d-origin="200 : 133.33333 : 1"
       id="perspective20" />
  </defs>
  <g
     id="layer1" />
  <text
     xml:space="preserve"
     style="font-style: normal; font-variant: normal; font-weight: bold; font-stretch: normal; fill: rgb(0, 0, 0); fill-opacity: 1; stroke: none; stroke-width: 1px; stroke-linecap: butt; stroke-linejoin: miter; stroke-opacity: 1; font-family: DejaVu Sans;"
     x="15.261"
     y="175.904"
     id="text2416"><tspan
       sodipodi:role="line"
       id="tspan2418"
       x="15.261000"
       y="175.90401"></tspan></text>
  <g
     id="g1427">
    <g
       id="g1423">
      <path
         id="text1392"
         d="M 92.793229,378.85339 L 80.396425,378.85339 L 80.396425,338.29597 C 86.760846,338.01898 90.588724,337.88047 91.880072,337.88043 C 96.067663,337.88047 99.351337,338.78544 101.73111,340.59534 C 104.12927,342.40531 105.32837,344.98170 105.32840,348.32452 C 105.32837,351.57505 103.62196,354.11450 100.20918,355.94288 C 105.24535,357.67897 107.76345,361.30808 107.76348,366.83022 C 107.76345,370.52399 106.37065,373.45128 103.58509,375.61212 C 100.79948,377.77297 97.202190,378.85339 92.793229,378.85339 M 87.590999,344.08593 L 87.590999,353.78204 C 89.029900,353.85594 90.201324,353.89288 91.105272,353.89285 C 95.790949,353.89288 98.133795,352.12911 98.133817,348.60155 C 98.133795,345.46189 95.993872,343.89205 91.714044,343.89201 C 90.607172,343.89205 89.232825,343.95669 87.590999,344.08593 M 87.590999,359.40578 L 87.590999,372.84181 C 89.048349,372.95263 90.238218,373.00803 91.160614,373.00803 C 94.167560,373.00803 96.436616,372.50014 97.967788,371.48435 C 99.498919,370.45011 100.26450,368.59400 100.26452,365.91602 C 100.26450,363.64438 99.600380,361.98219 98.272175,360.92945 C 96.962372,359.85828 94.610302,359.32269 91.215957,359.32267 C 89.924610,359.32269 88.716291,359.35039 87.590999,359.40578 M 119.30247,337.65880 C 120.37242,337.65884 121.29480,338.04669 122.06962,338.82233 C 122.86284,339.57959 123.25948,340.53997 123.25949,341.70346 C 123.25948,342.83009 122.87206,343.78123 122.09729,344.55689 C 121.32247,345.33261 120.39087,345.72045 119.30247,345.72042 C 118.17715,345.72045 117.21788,345.32338 116.42464,344.52918 C 115.64984,343.71659 115.26243,342.77469 115.26244,341.70346 C 115.26243,340.63231 115.64984,339.69041 116.42464,338.87774 C 117.19943,338.06516 118.15870,337.65884 119.30247,337.65880 M 116.00957,378.85339 L 116.00957,354.86246 L 112.21858,354.86246 L 112.21858,349.18331 L 122.98277,349.18331 L 122.98277,378.85339 L 116.00957,378.85339 M 155.82876,379.01961 C 154.85101,379.13042 153.78105,379.18583 152.61888,379.18583 C 149.15071,379.18583 147.14914,377.41283 146.61417,373.86683 C 145.85781,368.67711 142.88775,366.08225 137.70398,366.08224 L 137.53795,366.08224 L 137.53795,378.85339 L 130.67543,378.85339 L 130.67543,349.18331 L 137.53795,349.18331 L 137.53795,360.34769 L 137.87000,360.34769 C 142.88775,360.34770 145.71945,358.21456 146.36514,353.94826 C 146.88165,350.55003 148.82786,348.85091 152.20380,348.85088 C 152.72032,348.85091 153.76261,348.90631 155.33068,349.01710 L 155.33068,354.64084 C 154.85101,354.54852 154.41750,354.50234 154.03012,354.50232 C 153.29219,354.50234 152.78488,355.07488 152.50820,356.21992 C 151.62268,359.98756 149.10459,362.31463 144.95389,363.20111 C 149.41819,364.40160 152.10233,367.27349 153.00628,371.81679 C 153.22763,372.90646 153.71649,373.45128 154.47286,373.45128 C 155.15540,373.45128 155.60737,373.41435 155.82876,373.34047 L 155.82876,379.01961 M 167.22939,337.65880 C 168.29935,337.65884 169.22173,338.04669 169.99655,338.82233 C 170.78977,339.57959 171.18641,340.53997 171.18643,341.70346 C 171.18641,342.83009 170.79900,343.78123 170.02422,344.55689 C 169.24940,345.33261 168.31779,345.72045 167.22939,345.72042 C 166.10408,345.72045 165.14481,345.32338 164.35157,344.52918 C 163.57676,343.71659 163.18936,342.77469 163.18936,341.70346 C 163.18936,340.63231 163.57676,339.69041 164.35157,338.87774 C 165.12637,338.06516 166.08563,337.65884 167.22939,337.65880 M 163.93650,378.85339 L 163.93650,354.86246 L 160.14552,354.86246 L 160.14552,349.18331 L 170.90970,349.18331 L 170.90970,378.85339 L 163.93650,378.85339"
         style="font-size:56.736061;font-style:normal;font-variant:normal;font-weight:bold;font-stretch:normal;fill:#0a2544;fill-opacity:0.99607843;stroke:none;stroke-width:1.0000000px;stroke-linecap:butt;stroke-linejoin:miter;stroke-opacity:1.0000000;font-family:Trebuchet MS;letter-spacing:0.00000000px;text-anchor:start;writing-mode:lr-tb" />
      <path
         id="text2225"
         d="M 218.50994,379.01729 C 217.96684,379.12965 217.16161,379.18583 216.09425,379.18583 C 213.52871,379.18583 211.59054,378.56786 210.27973,377.33192 C 208.96886,376.09599 208.06064,374.07355 207.55505,371.26460 C 206.86215,367.33209 205.59813,364.50442 203.76297,362.78158 C 201.94650,361.05878 199.36228,360.19737 196.01028,360.19735 L 195.67321,360.19735 L 195.67321,378.84875 L 188.42613,378.84875 L 188.42613,337.72578 L 195.67321,337.72578 L 195.67321,353.98958 L 196.23500,353.98958 C 199.49336,353.98961 202.03077,353.27801 203.84724,351.85478 C 205.66367,350.41288 206.84343,348.19382 207.38651,345.19758 C 207.89210,342.46358 208.71606,340.48795 209.85839,339.27070 C 211.00066,338.03481 212.84520,337.41684 215.39201,337.41680 C 216.42192,337.41684 217.28333,337.46366 217.97624,337.55725 L 217.97624,344.04591 C 217.78894,344.00849 217.38633,343.98977 216.76839,343.98973 C 215.92568,343.98977 215.32644,344.18639 214.97067,344.57961 C 214.63356,344.97290 214.31522,345.89049 214.01563,347.33238 C 213.50999,349.74810 212.42386,351.82672 210.75725,353.56824 C 209.09058,355.30981 206.99324,356.47084 204.46521,357.05133 C 207.14305,357.83786 209.28721,359.16742 210.89770,361.04004 C 212.50813,362.89396 213.64107,365.49691 214.29652,368.84891 C 214.65229,370.53428 215.01745,371.58295 215.39201,371.99493 C 215.78523,372.38819 216.45938,372.58481 217.41445,372.58480 C 217.80767,372.58481 218.17283,372.54736 218.50994,372.47245 L 218.50994,379.01729 M 248.95892,378.84875 L 248.95892,360.33780 L 232.58276,360.33780 L 232.58276,378.84875 L 225.27950,378.84875 L 225.27950,337.72578 L 232.58276,337.72578 L 232.58276,353.82104 L 248.95892,353.82104 L 248.95892,337.72578 L 256.14982,337.72578 L 256.14982,378.84875 L 248.95892,378.84875 M 264.77328,378.84875 L 264.77328,337.72578 L 272.07654,337.72578 L 272.07654,378.84875 L 264.77328,378.84875 M 306.14906,344.15827 L 287.91900,344.15827 L 287.91900,378.84875 L 280.55956,378.84875 L 280.55956,337.72578 L 306.14906,337.72578 L 306.14906,344.15827 M 312.30065,378.84875 L 312.30065,337.72578 L 319.60391,337.72578 L 319.60391,378.84875 L 312.30065,378.84875"
         style="font-size:57.527218;font-style:normal;font-variant:normal;font-weight:bold;font-stretch:normal;fill:#094d97;fill-opacity:0.99607843;stroke:none;stroke-width:1.0000000px;stroke-linecap:butt;stroke-linejoin:miter;stroke-opacity:1.0000000;font-family:Trebuchet MS;letter-spacing:0.00000000px;text-anchor:start;writing-mode:lr-tb" />
    </g>
    <g
       transform="matrix(1.077120,0.000000,0.000000,1.077120,-15.42405,3.512906)"
       id="g2229">
      <g
         id="g2231">
        <path
           d="M 191.65664,115.97593 C 196.93351,182.00184 208.45394,245.91983 242.85479,307.46513 L 255.86467,307.56221 L 338.15581,234.14292 L 259.72068,35.943307 L 203.18059,89.951746 L 191.65664,115.97593 z "
           style="fill:#fdfcf8;fill-opacity:1.0000000;fill-rule:evenodd;stroke:none;stroke-width:1.0000000px;stroke-linecap:butt;stroke-linejoin:miter;stroke-opacity:1.0000000"
           id="path2233" />
        <path
           id="path2235"
           style="fill:#5f96d3;fill-opacity:1.0000000"
           d="M 263.32723,16.500000 C 236.14031,42.801966 209.26473,68.875000 209.26473,68.875000 C 209.26473,68.875000 218.92098,88.531250 218.92098,88.531250 C 232.01455,75.550025 245.18226,64.133911 257.73348,51.437500 C 284.16674,109.47270 302.17756,156.24917 324.33191,218.08448 C 331.58462,238.17246 330.10582,239.07126 312.76941,249.92823 C 284.91465,263.77995 276.09660,272.86547 242.89833,308.18750 L 265.61708,308.18750 C 293.37052,283.09599 303.67261,274.24081 338.42566,255.92823 C 350.71955,248.83035 352.40523,239.86966 347.36316,225.92823 C 331.10198,180.73146 295.87208,83.322614 263.32723,16.500000 z " />
      </g>
      <g
         id="g2237">
        <path
           d="M 125.84082,116.04509 C 131.11769,182.07100 144.61911,246.83160 179.01996,308.37690 L 199.35471,308.55962 L 261.32293,230.84125 L 193.90486,36.012472 L 137.36477,90.020911 L 125.84082,116.04509 z "
           style="fill:#f4eed7;fill-rule:evenodd;stroke:none;stroke-width:1.0000000px;stroke-linecap:butt;stroke-linejoin:miter;stroke-opacity:1.0000000"
           id="path2239" />
        <path
           id="path2241"
           style="fill:#2a62a1;fill-opacity:1.0000000;fill-rule:evenodd;stroke:none;stroke-width:22.000000;stroke-linecap:round;stroke-linejoin:miter;stroke-miterlimit:4.0000000;stroke-opacity:1.0000000"
           d="M 192.45223,17.125000 C 172.56466,30.549352 157.22356,49.869448 139.92098,66.437500 C 139.92098,66.437500 147.01473,89.062500 147.01473,89.062500 C 160.55590,78.391834 172.34030,65.526043 184.51473,53.343750 L 250.17098,218.03125 C 253.95672,229.18194 247.99456,239.10365 236.01473,249.90625 C 221.66549,261.43896 192.12216,288.32681 178.73348,308.81250 L 199.10848,308.81250 C 220.49313,286.84657 224.35368,283.86504 248.70223,262.78125 C 265.04857,246.10281 279.81623,237.56053 272.10848,216.18750 L 192.45223,17.125000 z " />
      </g>
      <g
         id="g2243">
        <path
           d="M 50.218883,114.63177 C 55.595535,183.91551 77.233973,245.97178 102.67801,306.33668 L 129.48015,306.00572 L 199.88087,225.96804 L 118.28293,34.599156 L 61.742841,88.607595 L 50.218883,114.63177 z "
           style="fill:#e9ddaf;fill-rule:evenodd;stroke:none;stroke-width:1.0000000px;stroke-linecap:butt;stroke-linejoin:miter;stroke-opacity:1.0000000"
           id="path2245" />
        <path
           id="path2247"
           style="fill:#15304f;fill-opacity:1.0000000;fill-rule:evenodd;stroke:none;stroke-width:22.000000;stroke-linecap:round;stroke-linejoin:miter;stroke-miterlimit:4.0000000;stroke-opacity:1.0000000"
           d="M 125.32723,16.062500 C 120.02588,17.841698 115.61512,21.260515 111.48348,24.875000 C 55.394922,78.847012 53.139730,81.125000 53.139730,81.125000 C 50.188265,83.867742 49.941746,87.877350 49.983480,91.906250 L 50.218884,114.63177 C 50.218884,114.63177 76.123108,89.450054 114.79598,52.218750 C 135.61440,106.45643 157.34150,160.40524 178.73348,214.43750 C 181.66298,222.60083 174.65125,229.29090 165.76473,238.21875 C 153.49118,250.19233 127.82007,274.84011 101.54598,307.75000 L 127.88973,307.75000 C 127.88973,307.75000 191.20222,238.31250 191.20223,238.31250 C 197.22151,230.03457 204.70542,221.94130 201.54598,214.43750 C 201.54598,214.43750 125.32723,16.062501 125.32723,16.062500 z " />
      </g>
    </g>
  </g>
</svg>
