<?xml version="1.0" encoding="UTF-8" standalone="no"?>
<!-- Created with Inkscape (http://www.inkscape.org/) -->
<svg
   xmlns:dc="http://purl.org/dc/elements/1.1/"
   xmlns:cc="http://creativecommons.org/ns#"
   xmlns:rdf="http://www.w3.org/1999/02/22-rdf-syntax-ns#"
   xmlns:svg="http://www.w3.org/2000/svg"
   xmlns="http://www.w3.org/2000/svg"
   xmlns:sodipodi="http://sodipodi.sourceforge.net/DTD/sodipodi-0.dtd"
   xmlns:inkscape="http://www.inkscape.org/namespaces/inkscape"
   version="1.0"
   width="400"
   height="400"
   id="svg2728"
   sodipodi:version="0.32"
   inkscape:version="0.46"
   sodipodi:docname="Wikibooks-logo-bn.svg"
   inkscape:output_extension="org.inkscape.output.svg.inkscape">
  <metadata
     id="metadata18">
    <rdf:RDF>
      <cc:Work
         rdf:about="">
        <dc:format>image/svg+xml</dc:format>
        <dc:type
           rdf:resource="http://purl.org/dc/dcmitype/StillImage" />
      </cc:Work>
    </rdf:RDF>
  </metadata>
  <sodipodi:namedview
     inkscape:window-height="840"
     inkscape:window-width="1440"
     inkscape:pageshadow="2"
     inkscape:pageopacity="0.0"
     guidetolerance="10.0"
     gridtolerance="10.0"
     objecttolerance="10.0"
     borderopacity="1.0"
     bordercolor="#666666"
     pagecolor="#ffffff"
     id="base"
     showgrid="false"
     inkscape:zoom="1.5875"
     inkscape:cx="200"
     inkscape:cy="200"
     inkscape:window-x="0"
     inkscape:window-y="26"
     inkscape:current-layer="svg2728" />
  <defs
     id="defs2731">
    <inkscape:perspective
       sodipodi:type="inkscape:persp3d"
       inkscape:vp_x="0 : 200 : 1"
       inkscape:vp_y="0 : 1000 : 0"
       inkscape:vp_z="400 : 200 : 1"
       inkscape:persp3d-origin="200 : 133.33333 : 1"
       id="perspective20" />
  </defs>
  <g
     id="layer1" />
  <g
     id="g3189">
    <g
       id="g3177">
      <path
         id="path3297"
         style="fill: rgb(253, 252, 248); fill-opacity: 1; fill-rule: evenodd; stroke: none; stroke-width: 1px; stroke-linecap: butt; stroke-linejoin: miter; stroke-opacity: 1;"
         d="M 191.65664,115.97593 C 196.93351,182.00184 208.45394,245.91983 242.85479,307.46513 L 255.86467,307.56221 L 338.15581,234.14292 L 259.72068,35.943307 L 203.18059,89.951746 L 191.65664,115.97593 z" />
      <path
         d="M 263.32723,16.5 C 236.14031,42.801966 209.26473,68.875 209.26473,68.875 C 209.26473,68.875 218.92098,88.53125 218.92098,88.53125 C 232.01455,75.550025 245.18226,64.133911 257.73348,51.4375 C 284.16674,109.4727 302.17756,156.24917 324.33191,218.08448 C 331.58462,238.17246 330.10582,239.07126 312.76941,249.92823 C 284.91465,263.77995 276.0966,272.86547 242.89833,308.1875 L 265.61708,308.1875 C 293.37052,283.09599 303.67261,274.24081 338.42566,255.92823 C 350.71955,248.83035 352.40523,239.86966 347.36316,225.92823 C 331.10198,180.73146 295.87208,83.322614 263.32723,16.5 z"
         style="fill: rgb(95, 150, 211); fill-opacity: 1;"
         id="path3272" />
    </g>
    <g
       id="g3181">
      <path
         id="path3214"
         style="fill: rgb(244, 238, 215); fill-rule: evenodd; stroke: none; stroke-width: 1px; stroke-linecap: butt; stroke-linejoin: miter; stroke-opacity: 1;"
         d="M 125.84082,116.04509 C 131.11769,182.071 144.61911,246.8316 179.01996,308.3769 L 199.35471,308.55962 L 261.32293,230.84125 L 193.90486,36.012472 L 137.36477,90.020911 L 125.84082,116.04509 z" />
      <path
         d="M 192.45223,17.125 C 172.56466,30.549352 157.22356,49.869448 139.92098,66.4375 C 139.92098,66.4375 147.01473,89.0625 147.01473,89.0625 C 160.5559,78.391834 172.3403,65.526043 184.51473,53.34375 L 250.17098,218.03125 C 253.95672,229.18194 247.99456,239.10365 236.01473,249.90625 C 221.66549,261.43896 192.12216,288.32681 178.73348,308.8125 L 199.10848,308.8125 C 220.49313,286.84657 224.35368,283.86504 248.70223,262.78125 C 265.04857,246.10281 279.81623,237.56053 272.10848,216.1875 L 192.45223,17.125 z"
         style="fill: rgb(42, 98, 161); fill-opacity: 1; fill-rule: evenodd; stroke: none; stroke-width: 22; stroke-linecap: round; stroke-linejoin: miter; stroke-miterlimit: 4; stroke-dasharray: none; stroke-opacity: 1;"
         id="path3138" />
    </g>
    <g
       id="g3185">
      <path
         id="path2238"
         style="fill: rgb(233, 221, 175); fill-rule: evenodd; stroke: none; stroke-width: 1px; stroke-linecap: butt; stroke-linejoin: miter; stroke-opacity: 1;"
         d="M 50.218883,114.63177 C 55.595535,183.91551 77.233973,245.97178 102.67801,306.33668 L 129.48015,306.00572 L 199.88087,225.96804 L 118.28293,34.599156 L 61.742841,88.607595 L 50.218883,114.63177 z" />
      <path
         d="M 125.32723,16.0625 C 120.02588,17.841698 115.61512,21.260515 111.48348,24.875 C 55.394922,78.847012 53.13973,81.125 53.13973,81.125 C 50.188265,83.867742 49.941746,87.87735 49.98348,91.90625 L 50.218884,114.63177 C 50.218884,114.63177 76.123108,89.450054 114.79598,52.21875 C 135.6144,106.45643 157.3415,160.40524 178.73348,214.4375 C 181.66298,222.60083 174.65125,229.2909 165.76473,238.21875 C 153.49118,250.19233 127.82007,274.84011 101.54598,307.75 L 127.88973,307.75 C 127.88973,307.75 191.20222,238.3125 191.20223,238.3125 C 197.22151,230.03457 204.70542,221.9413 201.54598,214.4375 C 201.54598,214.4375 125.32723,16.062501 125.32723,16.0625 z"
         style="fill: rgb(21, 48, 79); fill-opacity: 1; fill-rule: evenodd; stroke: none; stroke-width: 22; stroke-linecap: round; stroke-linejoin: miter; stroke-miterlimit: 4; stroke-dasharray: none; stroke-opacity: 1;"
         id="path3136" />
    </g>
  </g>
  <text
     xml:space="preserve"
     style="font-style: normal; font-variant: normal; font-weight: bold; font-stretch: normal; fill: rgb(0, 0, 0); fill-opacity: 1; stroke: none; stroke-width: 1px; stroke-linecap: butt; stroke-linejoin: miter; stroke-opacity: 1; font-family: DejaVu Sans;"
     x="15.261"
     y="175.904"
     id="text2416"><tspan
       sodipodi:role="line"
       id="tspan2418"
       x="15.261"
       y="175.904" /></text>
  <g
     id="g2700"
     transform="translate(6.8381)">
    <text
       xml:space="preserve"
       style="font-size:10px;font-style:normal;font-variant:normal;font-weight:normal;font-stretch:normal;text-align:start;line-height:125%;writing-mode:lr-tb;text-anchor:start;fill:#000000;fill-opacity:1;stroke:none;stroke-width:1px;stroke-linecap:butt;stroke-linejoin:miter;stroke-opacity:1;font-family:SolaimanLipi;-inkscape-font-specification:SolaimanLipi"
       x="546.18475"
       y="306.8273"
       id="text2399"
       sodipodi:linespacing="125%"
       transform="translate(-6.8381,0)"><tspan
         sodipodi:role="line"
         id="tspan2401" /></text>
    <path
       style="font-size:144.54740906px;font-style:normal;font-variant:normal;font-weight:normal;font-stretch:normal;text-align:start;line-height:125%;writing-mode:lr-tb;text-anchor:start;fill:#0b2645;fill-opacity:1;stroke:none;stroke-width:1px;stroke-linecap:butt;stroke-linejoin:miter;stroke-opacity:1;font-family:SolaimanLipi;-inkscape-font-specification:SolaimanLipi"
       d="M 155.36977,302.99138 C 152.83292,303.26387 150.57742,303.65299 148.61393,304.15954 C 146.65042,304.66621 144.92929,305.37907 143.44487,306.30644 C 141.96045,307.23393 140.69398,308.42369 139.65823,309.8583 C 138.62249,311.29299 137.78324,313.06061 137.13381,315.1624 C 137.13381,315.9786 137.35096,316.55227 137.78296,316.89885 L 142.00234,320.4665 L 139.27356,320.4665 L 133.09473,320.4665 L 126.7957,320.4665 L 126.87985,319.50354 C 126.87981,318.16807 126.53863,316.9051 125.85806,315.73069 C 125.17742,314.55636 124.23915,313.53063 123.03311,312.65241 C 121.82698,311.7743 120.38748,311.0917 118.71754,310.58445 C 117.04754,310.0773 115.22667,309.81098 113.24796,309.81094 C 108.51637,310.03357 105.00571,310.19457 102.71749,310.26873 C 100.42925,310.34298 99.149064,310.37929 98.870752,310.37923 C 97.324002,310.37928 96.023705,310.28726 94.987949,310.12665 C 93.952193,309.96614 93.112957,309.75134 92.463521,309.47943 C 91.814096,309.20762 91.347409,308.8875 91.069076,308.51649 C 90.790754,308.14556 90.660354,307.7534 90.660365,307.33254 C 90.660365,306.73902 90.873583,306.10964 91.321517,305.454 C 91.76945,304.79846 92.352811,304.16186 93.064572,303.54388 C 92.879021,303.49409 92.697152,303.46139 92.511612,303.44917 C 92.326048,303.43706 92.144191,303.43346 91.95864,303.43338 C 91.154097,303.43345 90.497453,303.5648 89.987183,303.81225 C 89.476913,304.05981 89.075432,304.37995 88.797099,304.77519 C 88.518777,305.17057 88.328086,305.59598 88.220087,306.05386 C 88.112089,306.51184 88.051785,306.96634 88.051785,307.41146 C 88.051797,308.86992 88.518472,310.1171 89.446242,311.16854 C 90.374,312.22007 91.554424,313.09696 92.992453,313.789 C 94.430469,314.48117 96.003575,314.98643 97.704708,315.32025 C 99.40584,315.65418 101.02794,315.82545 102.57324,315.8254 L 113.52444,315.30446 L 114.67847,315.30446 C 114.89588,315.30451 115.10596,315.3239 115.29153,315.33604 C 115.47707,315.34826 115.67658,315.3591 115.8926,315.3834 C 116.35645,315.38344 116.99618,315.41974 117.81596,315.4939 C 118.6357,315.56814 119.4524,315.69948 120.25624,315.87276 C 121.06002,316.04613 121.74803,316.27424 122.33588,316.58314 C 122.92368,316.89213 123.22541,317.27461 123.22544,317.71972 C 123.22541,318.04206 123.10065,318.35437 122.85279,318.6511 C 122.60488,318.94793 122.31196,319.20208 121.98728,319.42461 C 121.66254,319.64725 121.31251,319.82879 120.94144,319.97713 C 120.57031,320.12556 120.27987,320.22119 120.0639,320.24549 L 116.91437,320.4665 L 92.836183,320.4665 L 89.0255,320.4665 L 81.235844,320.4665 C 81.298135,320.21961 81.33197,320.03807 81.332015,319.91398 L 81.332015,319.31411 C 81.33197,317.90444 80.939301,316.62819 80.165971,315.47811 C 79.392551,314.32813 78.38027,313.34232 77.11261,312.52612 C 75.844883,311.71003 74.388452,311.074 72.748966,310.61602 C 71.109413,310.15814 69.436556,309.93726 67.73618,309.93722 L 54.428856,310.5213 C 53.347416,310.52135 52.248385,310.45596 51.135074,310.33187 C 50.021753,310.20788 49.015109,309.99365 48.117796,309.68465 C 47.22046,309.37575 46.48981,308.95337 45.917928,308.42177 C 45.346044,307.89028 45.052404,307.21736 45.052415,306.40115 C 45.207522,305.80765 45.415125,305.30961 45.677507,304.90148 C 45.939888,304.49347 46.375204,304.14066 46.96376,303.84382 L 44.679764,303.07031 C 44.494212,303.07036 44.260864,303.1829 43.982542,303.4176 C 43.704209,303.65242 43.457156,303.96892 43.225209,304.36475 C 42.993272,304.76072 42.793768,305.21883 42.624157,305.73815 C 42.454545,306.25757 42.371716,306.78886 42.371716,307.33254 C 42.371716,308.69245 42.795746,309.89609 43.645951,310.94753 C 44.496155,311.99907 45.594463,312.88621 46.939732,313.61537 C 48.284967,314.34462 49.780847,314.90195 51.435606,315.27289 C 53.090343,315.64392 54.720542,315.82545 56.328182,315.8254 C 58.183676,315.82545 60.055314,315.74561 61.942021,315.57283 C 63.828682,315.40013 65.700319,315.30453 67.555858,315.30446 C 68.915588,315.30451 70.170753,315.3741 71.330482,315.50968 C 72.490143,315.64537 73.49681,315.85296 74.347772,316.12534 C 75.198666,316.39783 75.864133,316.7246 76.343268,317.11986 C 76.822325,317.51523 77.064497,317.97392 77.06453,318.49324 L 75.898487,319.23518 L 72.195994,320.4665 L 38.236462,320.4665 L 38.236462,324.28671 L 59.201222,324.28671 L 59.201222,338.63619 C 59.2012,339.42802 59.35242,340.19902 59.645993,340.94096 C 59.939532,341.68293 60.346626,342.34557 60.872147,342.9142 C 61.397611,343.48286 62.046167,343.94097 62.819563,344.28759 C 63.592905,344.63423 64.474075,344.80855 65.464203,344.80853 C 66.763042,344.80855 68.11161,344.53863 69.503276,344.01922 C 70.894885,343.49987 72.200807,342.86383 73.422137,342.10911 C 74.643411,341.35443 75.741742,340.53686 76.715919,339.6465 C 77.690028,338.75617 78.403779,337.94164 78.867697,337.19967 C 79.609859,337.9915 80.153759,338.80242 80.478511,339.63071 C 80.803184,340.45906 80.959319,341.28327 80.959363,342.1249 C 80.959319,343.36074 80.609307,344.55471 79.91353,345.69254 C 79.217663,346.83042 78.287499,347.84528 77.11261,348.72346 C 75.937653,349.60165 74.537605,350.30725 72.929287,350.83878 C 71.320902,351.37033 69.625496,351.6281 67.83235,351.62809 C 65.388254,351.62809 63.18425,351.24259 61.220759,350.4757 C 59.257221,349.70883 57.510358,348.68673 55.979571,347.41322 C 54.44875,346.13974 53.125917,344.68196 52.012618,343.02471 C 50.899297,341.3675 49.95221,339.64644 49.16363,337.87847 C 48.375015,336.11055 47.749008,334.36533 47.300363,332.62172 C 46.851695,330.87816 46.53624,329.25937 46.350689,327.77542 L 43.52574,326.54411 C 43.834507,328.74451 44.210264,331.0659 44.643705,333.48995 C 45.077132,335.91409 45.656562,338.28807 46.39878,340.62524 C 47.140975,342.96242 48.074336,345.18814 49.187669,347.30271 C 50.300968,349.4173 51.689007,351.2836 53.358971,352.89097 C 55.028925,354.49835 57.034872,355.77158 59.369513,356.71117 C 61.704108,357.65081 64.431892,358.11615 67.555858,358.11614 C 70.524662,358.11614 73.093115,357.72702 75.273395,356.94796 C 77.453584,356.16892 79.26885,355.13656 80.706923,353.83813 C 82.144895,352.53971 83.208656,351.02623 83.904523,349.30754 C 84.6003,347.58888 84.950311,345.81099 84.950356,343.95608 C 84.950311,343.31268 84.877017,342.55197 84.721956,341.69868 C 84.566793,340.84546 84.325356,339.96133 84.000682,339.04663 C 83.675931,338.13196 83.268812,337.23456 82.774539,336.33144 C 82.280175,335.42836 81.696814,334.62105 81.031483,333.91617 C 80.366062,333.21135 79.618489,332.64375 78.783546,332.21129 C 77.948524,331.7789 77.015163,331.56408 75.994657,331.56406 C 75.623508,331.5641 75.19949,331.73899 74.720423,332.085 C 74.241287,332.43109 73.735152,332.8601 73.193747,333.37945 C 72.652276,333.89884 72.094661,334.46285 71.522811,335.06856 C 70.950906,335.67432 70.401379,336.23832 69.875927,336.75766 C 69.350405,337.27705 68.857996,337.7055 68.409362,338.05211 C 67.960672,338.39876 67.588122,338.57307 67.279378,338.57305 C 66.753135,338.57308 66.295271,338.4744 65.908974,338.28891 C 65.522631,338.10343 65.18953,337.85954 64.91123,337.56275 C 64.632875,337.26599 64.417184,336.94284 64.262088,336.58402 C 64.106959,336.22523 64.01603,335.873 63.985608,335.52635 L 63.985608,324.28671 L 89.0255,324.28671 L 92.836183,324.28671 L 105.03756,324.28671 L 106.75657,325.47066 C 107.18999,325.81733 107.46208,326.1629 107.58603,326.49675 C 107.70995,326.83067 107.85309,327.0164 108.00677,327.06505 C 106.58467,327.43606 105.2442,327.89416 103.99173,328.43842 C 102.73924,328.98275 101.63283,329.6224 100.67392,330.36432 C 99.714981,331.10631 98.949762,331.9469 98.377891,332.8743 C 97.806007,333.80177 97.506752,334.8311 97.476307,335.96836 C 97.754629,337.05697 98.395084,337.83461 99.399682,338.30468 C 100.40426,338.77481 101.49376,339.0151 102.66942,339.01506 C 103.72038,339.01509 104.78412,338.84079 105.86702,338.49412 C 106.94988,338.14751 107.93961,337.65973 108.83623,337.0418 C 109.73279,336.42392 110.46418,335.70445 111.03608,334.86334 C 111.60793,334.02229 111.90157,333.10549 111.90159,332.11657 C 112.64379,331.84416 113.30853,331.70616 113.89709,331.70613 C 114.66971,331.70616 115.45258,331.85499 116.2412,332.16393 C 117.02977,332.47291 117.72659,332.89169 118.34489,333.41102 C 118.96313,333.93043 119.49011,334.53374 119.90763,335.22641 C 120.32508,335.91912 120.55451,336.6544 120.61687,337.42067 C 120.30807,338.93012 119.57668,340.16587 118.41702,341.13038 C 117.25728,342.09494 115.93445,342.86291 114.45006,343.41936 C 112.96563,343.97584 111.44401,344.34614 109.88206,344.55595 C 108.32006,344.7658 106.99796,344.87168 105.91511,344.87166 C 103.56525,344.87168 101.22941,344.61394 98.894803,344.08237 C 96.560174,343.55085 94.463287,342.8186 92.607771,341.9039 L 98.305771,351.40707 C 101.58335,351.92646 104.89522,352.73739 108.23516,353.83813 C 111.57508,354.93889 114.82103,356.2448 117.96021,357.75306 C 121.09934,359.26131 124.0661,360.92667 126.87985,362.75722 C 129.69352,364.58777 132.23062,366.48674 134.48918,368.44019 L 133.01058,363.24659 C 131.34058,361.91107 129.77556,360.71408 128.32237,359.66316 C 126.86908,358.61226 125.38132,357.59016 123.85054,356.60068 C 122.31969,355.61122 120.68142,354.61876 118.93392,353.61712 C 117.18638,352.61549 115.18043,351.49053 112.92338,350.2547 C 114.83976,349.80954 116.61798,349.26855 118.27276,348.61295 C 119.92748,347.95739 121.367,347.15674 122.58833,346.22926 C 123.8096,345.30183 124.79934,344.2398 125.55754,343.04049 C 126.31564,341.84121 126.75659,340.46992 126.87985,338.93613 C 126.87981,337.79887 126.5982,336.63458 126.02635,335.44741 C 125.45444,334.26032 124.69803,333.16258 123.75437,332.14814 C 122.81064,331.13378 121.74688,330.25387 120.55677,329.51188 C 119.3666,328.76996 118.15234,328.29799 116.91437,328.07535 C 116.26491,327.97685 115.60755,327.83465 114.94292,327.64913 C 114.27824,327.46368 113.66033,327.21979 113.10369,326.92297 C 112.54703,326.62623 112.07544,326.26677 111.67319,325.83374 C 111.2709,325.40078 111.02064,324.88029 110.92789,324.28671 L 133.09473,324.28671 L 139.27356,324.28671 L 141.59363,324.28671 L 141.59363,359.97888 L 146.36599,363.53073 L 146.36599,324.28671 L 151.5591,324.28671 L 157.17294,324.28671 L 181.34733,324.28671 L 181.34733,327.2229 C 176.46207,328.33588 171.85309,329.89593 167.52309,331.91135 C 163.19305,333.92683 158.93162,336.16341 154.7567,338.63619 L 161.30818,345.09267 C 164.52489,345.36513 167.34362,345.96486 169.77103,346.89228 C 172.19841,347.81974 174.31711,349.00951 176.14221,350.44413 C 177.96725,351.87878 179.54036,353.51145 180.85446,355.35358 C 182.16852,357.19573 183.32641,359.17035 184.31653,361.27333 L 186.11969,362.64672 L 186.11969,332.33758 C 186.3661,332.28776 186.55998,332.25868 186.68468,332.25865 L 187.23765,332.25865 C 188.81479,332.25868 190.37097,332.50919 191.90183,333.01637 C 193.43259,333.5236 194.81254,334.21534 196.0491,335.06856 C 197.28558,335.92183 198.28415,336.91123 199.04234,338.03633 C 199.80045,339.16145 200.17227,340.35845 200.17232,341.61975 L 200.17232,342.09334 C 200.17227,342.2174 200.15046,342.38446 200.08817,342.5827 C 199.5938,341.9393 198.95336,341.45516 198.1648,341.14617 C 197.37617,340.83723 196.55947,340.68841 195.72453,340.68838 C 195.01272,340.6884 194.30458,340.76824 193.60881,340.94096 C 192.91296,341.11371 192.29896,341.36484 191.75757,341.69868 C 191.2161,342.03258 190.77517,342.44052 190.43526,342.89842 C 190.09528,343.35636 189.93035,343.88348 189.93037,344.47702 C 189.93033,345.19348 190.10338,345.86699 190.4593,346.49763 C 190.81514,347.12831 191.29064,347.66567 191.87778,348.12359 C 192.46484,348.58152 193.10529,348.93736 193.80115,349.19703 C 194.49693,349.45674 195.19304,349.59169 195.90484,349.59169 C 196.98767,349.5917 198.02005,349.41739 198.99426,349.07076 C 199.96836,348.72413 200.81641,348.23332 201.54272,347.60265 C 202.26894,346.972 202.84419,346.2301 203.26173,345.37682 C 203.67918,344.52358 203.88678,343.59594 203.88683,342.5827 C 203.88679,340.60378 203.38064,338.67573 202.36016,336.8208 C 201.33957,334.96594 199.9991,333.33023 198.34512,331.89557 C 196.69105,330.46096 194.79294,329.30388 192.65916,328.43842 C 190.52527,327.57304 188.34627,327.14403 186.11969,327.14398 L 186.11969,324.28671 L 208.33462,324.28671 L 208.33462,320.4665 L 157.17294,320.4665 L 151.5591,320.4665 L 144.64698,320.4665 L 142.84382,317.19879 C 143.36858,315.86331 144.12569,314.59428 145.1158,313.39436 C 146.10589,312.19453 147.28631,311.13308 148.66202,310.20558 C 150.0377,309.27819 151.56005,308.53931 153.23003,307.99554 C 154.89997,307.45189 156.6976,307.1905 158.61546,307.19045 C 161.98582,307.19051 165.16339,307.55717 168.14819,308.31126 C 171.13293,309.06545 173.87764,310.11723 176.38262,311.45268 L 184.35259,316.37792 L 183.29473,313.93108 C 181.53195,312.27449 179.57748,310.81308 177.42846,309.52679 C 175.27935,308.2406 172.99739,307.14227 170.60049,306.22751 C 168.20349,305.31287 165.71715,304.57762 163.13539,304.03325 C 160.55358,303.48902 157.96747,303.13982 155.36977,302.99138 z M 181.34733,332.41651 L 181.34733,352.2911 C 179.80199,350.33768 178.3875,348.71529 177.10389,347.429 C 175.82021,346.14277 174.53685,345.07106 173.26916,344.19287 C 172.00145,343.31471 170.66489,342.55036 169.2421,341.91968 C 167.81929,341.28904 166.18661,340.65187 164.36154,340.00958 C 167.05204,338.42599 169.75729,336.97905 172.46375,335.66842 C 175.17017,334.35786 178.13202,333.28254 181.34733,332.41651 z"
       id="text2470" />
    <path
       style="font-size:85.80565643px;font-style:normal;font-variant:normal;font-weight:normal;font-stretch:normal;text-align:start;line-height:125%;writing-mode:lr-tb;text-anchor:start;fill:#0a4e98;fill-opacity:1;stroke:none;stroke-width:1px;stroke-linecap:butt;stroke-linejoin:miter;stroke-opacity:1;font-family:SolaimanLipi;-inkscape-font-specification:SolaimanLipi"
       d="M 275.15625 301.9375 L 273.21875 302.125 L 272.34375 302.375 C 271.61348 302.89106 271.11844 303.44801 270.875 304.03125 C 270.66635 304.27809 270.51058 304.56738 270.40625 304.9375 C 270.30193 305.30773 270.25001 305.77411 270.25 306.3125 C 270.25 306.80612 270.36773 307.30536 270.59375 307.84375 C 270.81979 308.38224 271.13135 308.94157 271.53125 309.46875 C 271.93116 309.99602 272.38461 310.47764 272.90625 310.9375 C 273.42788 311.39746 274.00258 311.7797 274.59375 312.09375 C 276.6107 313.30528 278.97503 314.16273 281.6875 314.65625 C 284.39994 315.14986 287.12776 315.40629 289.875 315.40625 L 291.6875 315.40625 C 291.89613 315.36143 292.22153 315.30375 292.65625 315.28125 C 293.09092 315.25886 293.64822 315.25004 294.34375 315.25 L 297.53125 314.9375 L 301.4375 314.9375 L 306.8125 314.84375 C 307.92527 314.8438 309.09534 314.91912 310.3125 315.03125 C 311.52959 315.14347 312.7516 315.34222 313.96875 315.65625 C 316.47251 316.26204 317.71871 316.86305 317.71875 317.46875 L 317.15625 318.3125 C 316.04341 319.41185 314.76949 320.06174 313.34375 320.21875 L 310.375 320.3125 L 309.0625 320.4375 L 269.3125 320.4375 L 267.0625 320.4375 L 209.84375 320.4375 L 216.09375 324.625 L 257.375 324.625 L 257.375 327.40625 L 251.21875 328.71875 L 246 330.125 L 234.9375 333.625 L 226.90625 336.6875 L 219.1875 340.09375 L 227.375 347.59375 C 228.73121 347.59377 230.05354 347.65788 231.375 347.78125 C 232.69644 347.90466 234.02228 348.11462 235.34375 348.40625 L 237.28125 349 L 239.46875 349.6875 L 241.65625 350.4375 C 242.3865 350.6843 243.00959 350.88303 243.53125 351.0625 C 245.26997 351.69069 246.7516 352.28288 247.96875 352.84375 C 249.18584 353.40463 250.16209 353.9151 250.875 354.375 C 251.58785 354.83492 252.35286 355.42072 253.1875 356.09375 C 254.02206 356.7668 254.90478 357.55773 255.84375 358.5 L 257.375 360.21875 L 258.9375 362.125 L 260.28125 364.21875 L 263.6875 367.25 L 263.6875 324.625 L 273.3125 324.625 L 275.5625 324.625 L 293.03125 324.625 L 295.34375 325.90625 C 296.7695 326.82611 297.34068 327.45358 297.0625 327.8125 C 296.92338 328.01445 296.14452 328.25327 294.71875 328.5 C 292.97998 328.90386 291.59186 329.26847 290.53125 329.59375 C 289.4706 329.91909 288.72627 330.18194 288.34375 330.40625 L 286.0625 332.125 L 284.5 333.53125 C 282.96989 335.10171 282.39518 336.37909 282.8125 337.34375 C 283.19502 338.55525 284.0016 339.4127 285.21875 339.90625 C 286.05334 340.17549 286.88414 340.35659 287.71875 340.46875 C 288.55334 340.58095 289.35994 340.62503 290.125 340.625 C 292.62878 340.62502 294.94121 340.12579 297.0625 339.09375 L 300.125 337.09375 C 301.58552 335.99447 302.34372 334.67303 302.34375 333.125 C 302.7958 332.99042 303.24927 332.89987 303.71875 332.84375 C 304.18818 332.78769 304.66937 332.75004 305.15625 332.75 C 306.19947 332.75003 307.49758 333.01527 309.0625 333.53125 C 310.73166 333.93511 311.97785 334.76611 312.8125 336 C 313.26454 336.53846 313.58995 337.08419 313.78125 337.65625 C 313.97247 338.22836 314.06246 338.7741 314.0625 339.3125 C 314.06246 340.18748 313.72318 340.92552 313.0625 341.53125 C 311.63669 342.47353 310.42856 343.25166 309.4375 343.8125 C 308.44638 344.37339 307.65363 344.75324 307.0625 345 L 301.125 346.5 C 300.3947 346.72436 299.48425 346.87902 298.40625 346.96875 C 297.3282 347.05851 296.08553 347.09378 294.625 347.09375 L 289.875 346.84375 L 285.125 346.25 C 283.45579 345.93593 281.89806 345.57132 280.4375 345.15625 C 278.97694 344.74123 277.57146 344.3061 276.25 343.8125 L 283.96875 354.125 C 287.06371 354.66344 289.71187 355.14507 291.9375 355.59375 C 294.16308 356.04245 296.0117 356.46235 297.4375 356.84375 C 298.89803 357.20271 300.63928 357.70438 302.65625 358.34375 C 304.67317 358.98315 306.98205 359.78532 309.625 360.75 C 314.18049 362.45504 318.40378 364.28936 322.28125 366.21875 C 326.15861 368.14814 329.65145 370.24291 332.78125 372.53125 L 330.8125 366.9375 L 321 361.15625 C 319.46985 360.21399 317.45512 359.1554 314.96875 358 C 312.4823 356.84462 309.53292 355.60492 306.125 354.28125 L 303.6875 352.875 C 306.67812 352.31414 309.3021 351.61375 311.5625 350.75 C 313.82284 349.88627 315.73371 348.92705 317.28125 347.90625 C 318.82869 346.88548 319.98489 345.8405 320.75 344.71875 C 321.515 343.59703 321.90621 342.47433 321.90625 341.375 L 322.0625 340.5625 C 322.06245 338.13957 320.76079 335.75312 318.1875 333.375 C 315.64888 330.88477 312.60951 329.30689 309.0625 328.65625 L 306.59375 328.25 L 303.78125 327.46875 L 302.1875 326.5 L 300.96875 324.625 L 338.21875 324.625 L 331.8125 320.4375 L 322.40625 320.4375 L 322.53125 319.40625 C 322.5312 317.38717 321.67267 315.56165 319.96875 313.96875 C 318.5777 312.60028 316.7326 311.52646 314.4375 310.71875 C 312.00321 309.6195 308.54491 309.06256 304.09375 309.0625 L 292.6875 309.3125 L 283.59375 309.8125 L 281.78125 309.71875 L 277.71875 308.875 C 275.49315 308.15714 274.32308 307.609 274.21875 307.25 L 273.84375 305.5 C 273.84375 304.01936 274.85803 302.8614 276.875 302.03125 L 276.15625 301.9375 L 275.15625 301.9375 z M 257.375 334.03125 L 257.375 355.78125 C 256.40126 354.77169 255.43889 353.85895 254.5 353.0625 C 253.56104 352.26608 252.67832 351.60094 251.84375 351.0625 L 247.65625 348.40625 C 246.36954 347.71079 245.21686 347.08975 244.15625 346.5625 C 243.09558 346.0353 241.88392 345.51602 240.5625 345 C 239.24103 344.46158 237.91518 343.97996 236.59375 343.53125 C 235.27228 343.08257 233.97768 342.67148 232.65625 342.3125 L 237.375 340.34375 L 243.28125 338.0625 C 245.64592 337.18757 248.01027 336.44311 250.375 335.78125 C 252.73967 335.11945 255.07982 334.52485 257.375 334.03125 z "
       transform="translate(-6.8381,0)"
       id="text2474" />
  </g>
  <path
     style="font-size:33.42889786px;font-style:normal;font-variant:normal;font-weight:bold;font-stretch:normal;text-align:start;line-height:125%;writing-mode:lr-tb;text-anchor:start;fill:#000000;fill-opacity:1;stroke:none;stroke-width:1px;stroke-linecap:butt;stroke-linejoin:miter;stroke-opacity:1;font-family:SolaimanLipi;-inkscape-font-specification:SolaimanLipi"
     d="M 92.21875 361.25 C 90.844344 361.25004 89.639728 361.43124 88.71875 361.75 C 87.840268 362.06882 87.092164 362.35405 86.46875 362.625 C 85.845303 362.89601 85.402555 363.13125 85.0625 363.34375 C 84.835791 363.52444 84.507562 363.80435 84.125 364.21875 L 82.71875 365.875 L 82.375 366.59375 C 82.233305 366.83819 82.156235 367.14872 82.15625 367.53125 C 82.156253 367.94569 82.290368 368.22562 82.53125 368.40625 L 84.8125 370.28125 L 78.15625 370.28125 L 80.75 372.21875 L 84.53125 372.21875 L 84.5 390.6875 L 87.1875 392.4375 L 87.1875 372.21875 L 90.75 372.15625 L 90.8125 372.21875 L 107.625 372.21875 L 107.625 373.5625 L 105.09375 374.1875 L 102.96875 374.84375 L 98.46875 376.5 L 95.21875 377.9375 L 92.0625 379.5625 L 95.40625 383.125 C 95.958838 383.12501 96.524069 383.16031 97.0625 383.21875 C 97.600915 383.27721 98.117819 383.36186 98.65625 383.5 L 99.4375 383.78125 L 100.34375 384.09375 L 101.25 384.4375 C 101.54753 384.55439 101.78745 384.69623 102 384.78125 C 102.70844 385.07879 103.28532 385.35935 103.78125 385.625 C 104.27716 385.89068 104.64702 386.09466 104.9375 386.3125 C 105.22794 386.53035 105.59743 386.83747 105.9375 387.15625 C 106.27754 387.47504 106.64868 387.83495 107.03125 388.28125 L 107.625 389.09375 L 108.25 390.03125 L 108.8125 391 L 110.15625 392.4375 L 110.15625 372.21875 L 113.84375 372.21875 L 115 372.21875 L 121.65625 372.21875 C 120.79194 372.96262 120.0126 373.689 119.375 374.40625 C 118.73738 375.12357 118.22048 375.84055 117.78125 376.53125 C 116.94527 377.93394 116.53125 378.87619 116.53125 379.34375 L 116.375 380.8125 L 116.375 381.875 C 116.375 382.59761 116.47623 383.29336 116.625 384 C 116.77376 384.70666 116.9837 385.41305 117.28125 386.125 C 118.13139 387.99525 119.44471 389.47861 121.1875 390.5625 C 121.68341 390.88128 122.25322 391.10123 122.96875 391.25 C 123.68428 391.39876 124.40237 391.5 125.125 391.5 C 125.66341 391.49999 126.27445 391.42003 126.96875 391.25 C 127.50717 391.05873 127.94408 390.82753 128.3125 390.59375 C 128.68087 390.35997 129.00619 390.13004 129.21875 389.875 C 129.43128 389.61996 129.53997 389.32815 129.625 389.0625 C 129.70999 388.79684 129.78125 388.54691 129.78125 388.28125 C 129.78123 388.03685 129.71709 387.79097 129.625 387.5625 C 129.53288 387.33404 129.40583 387.16003 129.25 386.96875 C 129.09414 386.77749 128.95544 386.61221 128.75 386.46875 C 128.54453 386.3253 128.32335 386.18876 128.125 386.125 L 127.34375 385.90625 C 127.11703 385.8 126.80589 385.75 126.4375 385.75 L 125.15625 386.03125 C 124.20691 386.38192 123.6871 386.91241 123.53125 387.65625 L 123.53125 388.25 C 123.63042 388.54756 123.76456 388.81341 123.90625 389.03125 C 124.04793 389.2491 124.20788 389.40311 124.40625 389.5625 L 125.03125 389.96875 L 124.9375 390.09375 L 124.3125 390.09375 C 123.88742 390.09375 123.55045 390.06438 123.28125 389.96875 C 122.27525 389.45869 121.52426 389.02754 121 388.6875 C 120.74494 388.49623 120.51086 388.25503 120.3125 388 C 120.11412 387.74496 119.96126 387.50035 119.8125 387.21875 C 119.66372 386.93714 119.54377 386.6566 119.4375 386.375 C 119.33123 386.0934 119.22999 385.82753 119.1875 385.59375 L 119.0625 384.09375 L 119.15625 382.6875 L 119.46875 380.8125 L 120.1875 378.46875 C 120.58423 377.62928 121.12656 376.8929 121.75 376.25 C 122.37343 375.60711 123.08734 375.05133 123.9375 374.5625 C 124.61761 374.17995 125.81679 373.69884 127.53125 373.125 L 130.28125 372.25 L 132.75 372.21875 C 133.14673 372.21878 133.64073 372.35998 134.25 372.59375 L 135.03125 372.90625 L 136.5 374.5625 C 136.15994 374.61563 135.84298 374.74623 135.53125 374.9375 L 134.15625 375.75 L 133.0625 376.65625 L 132.3125 377.40625 C 132.09998 377.7038 132.03123 378.06497 132.03125 378.46875 L 132.21875 379.4375 C 132.36046 379.68191 132.51456 379.86123 132.65625 380.03125 C 132.79792 380.20129 132.9208 380.37249 133.0625 380.5 L 133.8125 381 L 134.4375 381.1875 L 135.125 381.28125 L 136.09375 381.1875 L 137.5 380.75 C 138.19427 380.53749 138.73952 380.22694 139.09375 379.8125 L 139.375 379.3125 L 139.9375 379.96875 C 141.01433 380.86139 142.13645 381.28126 143.3125 381.28125 C 143.96426 381.28126 144.66109 381.1413 145.46875 380.84375 C 145.66709 380.73751 145.85539 380.6169 145.96875 380.5 C 146.08208 380.38313 146.1933 380.24315 146.25 380.0625 L 146.5625 379.34375 C 146.59083 379.28 146.61081 379.17939 146.625 379.0625 C 146.63916 378.94563 146.65622 378.78567 146.65625 378.5625 C 146.65625 378.1587 146.4992 377.77819 146.1875 377.40625 C 146.0458 377.19374 145.84171 376.96254 145.59375 376.75 C 145.34577 376.53749 145.02754 376.32692 144.6875 376.125 L 143.9375 375.65625 C 143.48409 375.29498 143.05879 375.05377 142.71875 374.96875 C 142.74706 374.56495 142.99698 374.21443 143.5 373.90625 C 144.00299 373.59811 144.62402 373.43752 145.375 373.4375 C 146.53684 373.43752 147.69023 374.09985 148.78125 375.375 C 149.88642 376.65017 150.40623 377.53119 150.40625 378.0625 L 150.40625 382.75 L 147.5625 384.09375 L 142.8125 386.5625 L 141.59375 387.28125 L 143.78125 389.5625 C 144.2488 389.5625 144.65285 389.5725 145 389.59375 C 145.34713 389.61501 145.69534 389.66561 146 389.71875 C 146.30462 389.77189 146.62286 389.82124 146.90625 389.90625 C 147.1896 389.99125 147.46952 390.12186 147.78125 390.28125 L 149.28125 390.96875 C 149.69213 391.17064 150.00327 391.36186 150.1875 391.5 L 151 392.25 L 152.3125 393.75 L 153.25 394.21875 L 153.25 392.21875 L 153.28125 392.25 L 153.28125 372.21875 L 156.0625 372.21875 L 158.6875 372.21875 L 172.09375 372.21875 L 172.09375 373.53125 L 167.40625 374.84375 L 162.96875 376.4375 C 162.40199 376.66068 161.83384 376.90186 161.28125 377.125 L 159.625 377.875 L 156.53125 379.4375 L 159.96875 382.9375 C 161.45649 382.93751 162.88976 383.15745 164.25 383.625 L 166.65625 384.59375 C 167.57723 385.02945 168.39693 385.51931 169.21875 386.125 C 169.70049 386.49694 170.13869 386.85277 170.5 387.1875 C 170.86131 387.52224 171.15953 387.83809 171.34375 388.125 L 173.65625 391.375 L 174.6875 392.09375 L 174.6875 372.21875 L 178.71875 372.21875 L 176.0625 370.28125 L 156.0625 370.28125 L 155.3125 370.21875 L 154.65625 370.28125 L 154.28125 370.28125 L 153 369.9375 L 152.5 369.40625 L 152.4375 368.8125 C 152.43746 368.55749 152.33752 368.31693 152.125 368.09375 L 151.1875 367.25 L 150.40625 366.78125 L 150.40625 371.375 L 151.46875 376.8125 L 150.8125 375.84375 L 149.65625 374.4375 L 147.6875 372.1875 C 146.92236 371.4224 146.30841 370.90129 145.8125 370.625 C 145.31656 370.34875 144.90545 370.21878 144.59375 370.21875 L 144.03125 370.28125 L 143.40625 370.4375 C 142.72613 370.62881 142.13508 370.80343 141.625 371 C 141.1149 371.19661 140.62963 371.41655 140.21875 371.6875 C 139.80784 371.95851 139.45088 372.29496 139.125 372.65625 C 138.79911 373.01755 138.49921 373.4587 138.1875 373.96875 C 138.08831 373.64997 137.85713 373.26819 137.53125 372.875 L 136.6875 371.96875 L 135.46875 371 C 134.50525 370.53246 133.42894 370.28126 132.28125 370.28125 L 128.03125 370.28125 L 128 370.28125 L 112.46875 370.28125 L 111.21875 370.28125 L 91 370.28125 L 88.25 370.28125 L 86.28125 370.28125 L 85.3125 368.5625 C 85.369162 368.30749 85.56618 367.97821 85.90625 367.5 L 87.09375 366.125 L 88.25 365.0625 C 88.320841 364.95627 88.766111 364.70507 89.53125 364.34375 C 90.310529 363.93998 91.118597 363.6994 91.96875 363.625 C 92.9039 363.47626 93.806113 363.43752 94.65625 363.4375 L 96.71875 363.53125 C 97.48386 363.60566 98.654316 363.8256 100.15625 364.21875 C 100.92136 364.39943 101.60655 364.60468 102.1875 364.84375 C 102.76841 365.08287 103.24824 365.36937 103.6875 365.65625 L 108.15625 368.15625 L 107.53125 366.875 L 106.59375 366.15625 C 105.84277 365.62495 105.17883 365.16382 104.5625 364.78125 C 103.94613 364.39872 103.37089 364.08755 102.875 363.875 C 102.56326 363.69439 102.25338 363.53911 101.90625 363.40625 C 101.55909 363.27346 101.19503 363.15879 100.8125 363.03125 L 98.5 362.28125 C 97.267284 361.90935 96.169328 361.62286 95.15625 361.46875 C 94.143158 361.31469 93.182235 361.25003 92.21875 361.25 z M 368.03125 361.5 L 367.25 361.59375 L 366.90625 361.71875 C 366.60871 361.96317 366.38041 362.19249 366.28125 362.46875 C 366.19625 362.58564 366.13625 362.76218 366.09375 362.9375 C 366.05125 363.11287 366.06251 363.30749 366.0625 363.5625 C 366.06249 363.79632 366.0954 364.0575 366.1875 364.3125 C 366.27959 364.56758 366.39956 364.81281 366.5625 365.0625 C 366.72545 365.31225 366.91245 365.53218 367.125 365.75 C 367.33751 365.96786 367.57162 366.16375 367.8125 366.3125 C 368.63431 366.88634 369.61355 367.29749 370.71875 367.53125 C 371.82392 367.76505 372.94315 367.87501 374.0625 367.875 L 374.75 367.875 C 374.83501 367.85375 375.01035 367.82315 375.1875 367.8125 C 375.3646 367.80189 375.56036 367.81252 375.84375 367.8125 L 377.15625 367.65625 L 378.75 367.65625 L 380.90625 367.59375 C 381.35966 367.59377 381.87907 367.6344 382.375 367.6875 C 382.8709 367.74065 383.34781 367.85125 383.84375 368 C 384.86391 368.28694 385.37499 368.58812 385.375 368.875 L 385.15625 369.25 C 384.70283 369.77071 384.17464 370.05063 383.59375 370.125 L 382.375 370.1875 L 381.84375 370.28125 L 365.625 370.28125 L 364.75 370.28125 L 341.40625 370.28125 L 343.96875 372.21875 L 360.78125 372.21875 L 360.78125 373.5625 L 358.3125 374.1875 L 356.125 374.84375 L 351.65625 376.5 L 348.375 377.9375 L 345.21875 379.5625 L 348.5625 383.125 C 349.1151 383.12501 349.6803 383.16031 350.21875 383.21875 C 350.75715 383.27721 351.27408 383.36186 351.8125 383.5 L 352.625 383.78125 L 353.5 384.09375 L 354.40625 384.4375 C 354.70378 384.55439 354.9437 384.69623 355.15625 384.78125 C 355.8647 385.07879 356.47282 385.35935 356.96875 385.625 C 357.46465 385.89068 357.86579 386.09466 358.15625 386.3125 C 358.4467 386.53035 358.75368 386.83747 359.09375 387.15625 C 359.43379 387.47504 359.80493 387.83495 360.1875 388.28125 L 360.78125 389.09375 L 361.40625 390.03125 L 361.96875 391 L 363.375 392.4375 L 363.375 372.21875 L 367.28125 372.21875 L 368.21875 372.21875 L 375.3125 372.21875 L 376.25 372.84375 C 376.83092 373.27944 377.08211 373.58 376.96875 373.75 C 376.91208 373.84567 376.61217 373.94563 376.03125 374.0625 C 375.32279 374.25379 374.71338 374.43968 374.28125 374.59375 C 373.8491 374.74784 373.56211 374.8625 373.40625 374.96875 L 372.5 375.78125 L 371.84375 376.4375 C 371.22029 377.18137 370.95498 377.82433 371.125 378.28125 C 371.28085 378.85509 371.62909 379.23499 372.125 379.46875 C 372.46506 379.59629 372.8162 379.69688 373.15625 379.75 C 373.49632 379.80313 373.84454 379.81251 374.15625 379.8125 C 375.1764 379.8125 376.10446 379.58257 376.96875 379.09375 L 378.25 378.125 C 378.84507 377.60433 379.125 376.98323 379.125 376.25 C 379.3092 376.18626 379.4962 376.15158 379.6875 376.125 C 379.87877 376.09845 380.05162 376.09375 380.25 376.09375 C 380.67506 376.09376 381.20613 376.19311 381.84375 376.4375 C 382.52384 376.6288 383.03493 377.04056 383.375 377.625 C 383.55918 377.88005 383.70329 378.13528 383.78125 378.40625 C 383.85915 378.67723 383.87496 378.93249 383.875 379.1875 C 383.87499 379.60194 383.76921 379.9631 383.5 380.25 C 382.91904 380.69631 382.40381 381.0781 382 381.34375 C 381.59616 381.6094 381.30334 381.75812 381.0625 381.875 L 378.625 382.59375 C 378.32743 382.70001 377.9705 382.77001 377.53125 382.8125 C 377.092 382.85503 376.56387 382.90626 375.96875 382.90625 L 374.0625 382.75 L 372.0625 382.5 C 371.3824 382.35124 370.78259 382.16535 370.1875 381.96875 C 369.59241 381.77216 369.03843 381.57753 368.5 381.34375 L 371.59375 386.21875 C 372.85477 386.47379 373.99944 386.69373 374.90625 386.90625 C 375.81306 387.11877 376.51282 387.31936 377.09375 387.5 C 377.68883 387.67004 378.39694 387.91591 379.21875 388.21875 C 380.04054 388.52162 381.0169 388.91807 382.09375 389.375 C 383.94987 390.18262 385.6389 391.02363 387.21875 391.9375 C 388.79856 392.85137 390.256 393.85361 391.53125 394.9375 L 390.6875 392.28125 L 386.6875 389.53125 C 386.06405 389.08494 385.26308 388.60977 384.25 388.0625 C 383.2369 387.51526 382.07607 386.93947 380.6875 386.3125 L 379.65625 385.625 C 380.87478 385.35934 381.98523 385.00287 382.90625 384.59375 C 383.82722 384.18464 384.55695 383.73351 385.1875 383.25 C 385.81801 382.7665 386.28202 382.28132 386.59375 381.75 C 386.90543 381.21869 387.06249 380.67696 387.0625 380.15625 L 387.125 379.8125 C 387.12499 378.66487 386.61096 377.5014 385.5625 376.375 C 384.52813 375.19549 383.28896 374.46442 381.84375 374.15625 L 380.875 373.96875 L 379.6875 373.59375 L 379.03125 373.125 L 378.5625 372.21875 L 393.75 372.21875 L 391.125 370.28125 L 387.3125 370.28125 L 387.3125 369.78125 C 387.31249 368.82491 386.97549 367.97324 386.28125 367.21875 C 385.71447 366.57056 384.96641 366.03883 384.03125 365.65625 C 383.03939 365.13559 381.65737 364.87503 379.84375 364.875 L 375.1875 365 L 371.46875 365.21875 L 370.71875 365.15625 L 369.0625 364.78125 C 368.1557 364.44121 367.69875 364.17005 367.65625 364 L 367.53125 363.1875 C 367.53124 362.48617 367.92821 361.92444 368.75 361.53125 L 368.46875 361.5 L 368.03125 361.5 z M 243.1875 370.25 L 245.8125 372.21875 L 253.125 372.21875 L 250.625 374.8125 C 250.52578 374.89754 250.35041 375.07278 250.1875 375.34375 C 250.02453 375.61472 249.9229 375.90934 249.78125 376.28125 C 249.63953 376.65319 249.5196 377.07434 249.40625 377.53125 C 249.29288 377.98818 249.21871 378.44996 249.21875 378.875 C 249.21872 379.83138 249.3874 380.96359 249.8125 382.28125 L 251.125 386.59375 C 251.12497 387.93267 250.88212 388.85368 250.34375 389.40625 L 248.1875 390.8125 C 248.05995 390.91876 247.88001 390.99874 247.625 391.0625 C 247.36993 391.12626 247.05585 391.18688 246.6875 391.21875 C 245.97902 391.41002 245.63372 391.61997 245.71875 391.875 C 245.98793 392.32132 246.38196 392.53125 246.90625 392.53125 C 247.67136 392.53126 248.75348 392.22134 250.15625 391.5625 C 251.87068 390.74428 253.01572 389.86199 253.625 388.9375 C 253.86583 388.59746 254.07831 388.3669 254.15625 388.25 C 254.23415 388.13314 254.24997 388.01252 254.25 387.90625 L 254.375 387.4375 L 254.375 387.0625 L 254.375 386.5625 L 254.25 385.28125 L 254.15625 383.40625 C 254.15622 382.97057 254.08207 382.48476 253.96875 381.9375 C 253.85536 381.39027 253.69835 380.75322 253.5 380.0625 C 253.3016 379.37179 253.14455 378.77133 253.03125 378.21875 C 252.91789 377.66617 252.87495 377.16508 252.875 376.71875 L 252.875 375.65625 L 253.125 374.1875 C 253.36585 373.7412 253.70281 373.3388 254.15625 373.0625 C 254.65213 372.73312 255.17612 372.52847 255.75 372.40625 C 256.32381 372.28408 256.94191 372.21877 257.59375 372.21875 L 258.0625 372.21875 L 259.96875 372.21875 L 257.875 370.25 L 243.1875 370.25 z M 245.8125 372.21875 L 243.15625 370.28125 L 219.96875 370.28125 L 218.3125 370.28125 L 187.46875 370.28125 L 190.0625 372.21875 L 200.90625 372.21875 L 199.40625 373.40625 C 198.86782 373.89508 198.46087 374.34153 198.15625 374.71875 C 197.85161 375.09601 197.64459 375.40123 197.53125 375.65625 C 197.29038 376.08132 197.15623 376.60242 197.15625 377.21875 C 197.15625 378.10074 197.47029 378.93178 198.09375 379.75 C 198.54715 380.21756 198.97825 380.63934 199.375 380.96875 C 199.77171 381.29817 200.197 381.52748 200.59375 381.71875 C 201.03298 381.88877 201.467 382.01938 201.90625 382.09375 C 202.34548 382.16814 202.72826 382.21876 203.125 382.21875 L 203.78125 382.21875 L 205.09375 382.03125 L 207.3125 381.40625 L 207.9375 381.28125 C 208.53257 381.35564 208.88664 381.59684 209 381.96875 C 209.22669 382.28753 209.34372 382.60872 209.34375 382.90625 C 209.34372 383.70324 208.69268 384.3337 207.375 384.84375 C 206.72321 385.09878 206.02678 385.28405 205.375 385.40625 C 204.72321 385.52846 204.12052 385.59375 203.46875 385.59375 C 203.01532 385.56188 202.59715 385.52657 202.25 385.5 C 201.90284 385.47343 201.52881 385.40877 201.125 385.28125 C 200.72118 385.15374 200.26006 384.94317 199.75 384.65625 C 199.2399 384.36934 198.59178 383.93758 197.8125 383.40625 C 196.59396 382.56678 195.72592 381.56516 195.1875 380.375 L 194.375 378.125 C 194.26164 377.81686 194.18749 377.3876 194.1875 376.75 L 194.1875 375.9375 C 194.1875 375.42745 194.13878 375.06692 193.96875 374.84375 L 193.53125 374.4375 L 192.5 373.84375 L 192.46875 374.03125 L 192.46875 374.40625 L 192.5 375.96875 L 192.5625 377.8125 C 192.66169 378.54572 192.78872 379.20682 192.9375 379.8125 C 193.08626 380.41821 193.27329 380.95994 193.5 381.40625 L 194.28125 383.0625 C 194.91886 384.06137 195.56405 384.88305 196.1875 385.53125 C 196.7401 386.1051 197.31114 386.6115 197.90625 387.03125 C 198.50135 387.45098 199.12655 387.77622 199.75 388.03125 C 201.16688 388.58382 202.586 388.875 204.03125 388.875 C 204.4563 388.87499 204.96445 388.8197 205.53125 388.71875 C 206.09799 388.61779 206.57492 388.4819 207 388.34375 C 207.5384 388.15248 208.0024 387.98314 208.40625 387.78125 C 208.81004 387.57935 209.11994 387.37878 209.375 387.1875 C 210.05509 386.67744 210.59744 385.89578 210.9375 384.84375 C 211.1075 384.6206 211.18747 384.30006 211.1875 383.875 C 211.18749 383.3012 210.90214 382.53014 210.40625 381.53125 C 210.16536 381.04244 209.97378 380.59068 209.71875 380.21875 C 209.46369 379.84683 209.15836 379.53628 208.875 379.28125 L 208.15625 378.5625 C 207.81618 378.30747 207.53919 378.18751 207.3125 378.1875 C 207.11413 378.07062 206.84298 378.07061 206.53125 378.1875 L 205.71875 378.46875 L 203.5 379.3125 C 202.91906 379.55692 202.48504 379.65626 202.1875 379.65625 L 201.34375 379.8125 C 200.05435 379.81252 199.40624 379.35139 199.40625 378.4375 L 199.40625 378.28125 L 199.46875 377.96875 C 199.95048 376.91674 200.67568 375.97639 201.625 375.0625 C 202.71601 374.09553 203.38995 373.72435 203.6875 373.96875 L 205.1875 375.4375 C 205.55587 375.77754 206.06111 376.09873 206.65625 376.375 C 207.25132 376.6513 207.90946 376.89718 208.625 377.09375 C 209.34052 377.29036 210.08861 377.425 210.875 377.53125 C 211.66135 377.63751 212.41943 377.71875 213.15625 377.71875 L 214.59375 377.65625 L 215.21875 377.75 C 215.03452 378.07944 214.82626 378.46059 214.65625 378.875 C 214.48619 379.28943 214.34626 379.70932 214.21875 380.1875 C 213.79365 381.50519 213.56247 382.61802 213.5625 383.5 L 213.75 384.875 L 214.1875 386.625 L 215.625 391.40625 C 215.79499 391.53375 216.2461 391.71561 216.96875 391.875 C 217.06791 391.90688 217.22492 391.92688 217.4375 391.9375 C 217.65 391.94811 217.90701 391.9375 218.21875 391.9375 C 217.56694 390.85361 217.10713 389.87199 216.78125 388.96875 C 216.45534 388.0655 216.24997 387.23385 216.25 386.46875 L 216.25 385.4375 L 216.53125 383.96875 C 216.53122 382.7786 217.0852 381.47707 218.21875 380 C 219.15387 378.84173 219.97321 377.98883 220.625 377.5 L 219.125 376.375 L 216.6875 374.5 L 214.21875 375.125 C 213.62362 375.31628 213.2096 375.40627 212.96875 375.40625 L 211.96875 375.4375 L 211.21875 375.5 L 209.28125 375.3125 L 207.6875 374.84375 C 206.49729 374.25932 206.03743 373.59762 206.25 372.875 L 207.84375 372.21875 L 220.90625 372.21875 L 222.5 372.21875 L 238.6875 372.21875 L 238.6875 382.6875 C 238.6875 382.44309 238.01647 381.54146 236.65625 379.96875 C 235.70691 378.88489 234.70476 378.03197 233.65625 377.46875 C 232.91943 377.03309 232.24841 376.77315 231.625 376.65625 C 231.05825 376.4756 230.61004 376.375 230.3125 376.375 L 229.21875 376.34375 C 228.34028 376.34377 227.52222 376.46435 226.75 376.6875 C 225.97779 376.91069 225.31676 377.20057 224.75 377.59375 C 224.18325 377.98693 223.73922 378.47337 223.40625 379.03125 C 223.07329 379.58914 222.875 380.19555 222.875 380.84375 L 223.03125 381.6875 C 223.3713 382.68639 223.73408 383.35746 224.1875 383.71875 C 224.8251 384.09067 225.59315 384.34186 226.5 384.4375 L 227.875 384.53125 C 229.41941 384.53126 230.44739 384.10013 231 383.25 C 231.19836 382.95246 231.31247 382.74253 231.3125 382.59375 C 231.34084 382.52999 231.38498 382.44003 231.40625 382.3125 C 231.4275 382.18499 231.43748 382.01441 231.4375 381.8125 C 231.43749 381.14303 230.91517 380.32137 229.9375 379.34375 L 230.15625 379 C 231.41728 379.00002 232.84764 379.49176 234.40625 380.4375 L 236.03125 381.625 C 236.51299 382.01819 236.93242 382.40871 237.1875 382.8125 C 238.03763 384.15144 238.73447 385.60481 239.34375 387.15625 C 239.68379 387.9426 239.93079 388.68491 240.09375 389.34375 C 240.25668 390.00259 240.31249 390.56243 240.3125 391.09375 L 240.28125 391.6875 L 241.28125 392.625 L 241.28125 372.21875 L 245.8125 372.21875 z M 5 370.28125 L 7.625 372.21875 L 8.03125 373.09375 L 8.9375 373.84375 L 9.53125 374.1875 C 9.8004658 374.42128 10.688502 374.71247 12.21875 375.03125 L 15.5625 375.90625 C 16.681838 376.53323 17.451169 377.14899 17.8125 377.78125 C 18.173801 378.41353 18.343735 379.17116 18.34375 380 C 18.145375 379.76622 17.517263 379.65626 16.46875 379.65625 L 15.28125 379.71875 L 13.875 380 C 13.350743 380.10626 12.893819 380.30622 12.46875 380.625 L 11.5625 381.625 C 11.236603 382.1032 11.09375 382.59494 11.09375 383.0625 L 11.25 383.9375 L 11.5625 384.78125 L 12.28125 385.4375 C 12.564624 385.69254 13.005725 385.9031 13.59375 386.0625 C 14.181759 386.22191 14.802814 386.3125 15.46875 386.3125 L 16.9375 386.125 L 18.34375 385.59375 L 19.5625 384.84375 L 19.9375 384.59375 L 19.9375 384.375 L 20.875 384.78125 C 21.300053 384.96189 21.819478 385.17121 22.34375 385.46875 C 22.867991 385.76628 23.373639 386.13745 23.96875 386.5625 C 24.393804 386.75379 24.850332 387.1743 25.21875 387.84375 C 25.336264 387.99487 25.413721 388.17586 25.53125 388.34375 L 25.59375 389.46875 L 25.625 390.8125 L 25.59375 391.28125 C 25.537085 391.43002 25.405853 391.48 25.25 391.4375 L 23.5625 390.71875 C 23.024083 390.51686 22.35307 390.40625 21.53125 390.40625 L 20.40625 390.53125 C 20.066209 390.59501 19.740882 390.64967 19.5 390.71875 C 19.259132 390.78783 19.079195 390.84249 18.9375 390.90625 L 17.875 391.53125 C 17.180731 392.12633 16.84378 392.73804 16.84375 393.34375 L 16.96875 394.3125 C 17.025447 394.54627 17.209554 394.77153 17.5 395 C 17.790478 395.22845 18.185787 395.45498 18.625 395.625 C 19.064259 395.79503 19.548248 395.91966 20.09375 396.03125 C 20.639269 396.14281 21.214502 396.1875 21.78125 396.1875 C 22.305507 396.18751 22.792428 396.12814 23.28125 395.96875 C 23.770086 395.80937 24.234098 395.59878 24.6875 395.34375 L 26.4375 394.125 L 27.46875 394.65625 L 28.625 395.34375 L 29.65625 395.9375 C 29.967971 396.11815 30.276209 396.29871 30.53125 396.46875 L 30.9375 396.71875 L 31.3125 397.03125 L 32.875 398.28125 L 33.4375 398.90625 L 33.75 399.0625 L 34.09375 398.90625 L 34.09375 398.65625 L 33.65625 397.71875 L 33.1875 397.03125 L 31.96875 395.59375 L 30.4375 394.40625 L 29.1875 393.53125 L 27.96875 392.78125 C 27.926243 392.74935 27.882087 392.68408 27.875 392.59375 C 27.867914 392.50343 27.909168 392.38815 27.9375 392.25 L 27.9375 392.09375 L 28.0625 392.21875 L 28.0625 372.21875 L 32.34375 372.21875 L 33.71875 372.21875 L 70.59375 372.21875 L 68.40625 370.28125 L 31.09375 370.28125 L 29.78125 370.28125 L 5 370.28125 z M 268.125 370.28125 L 270.6875 372.21875 L 271.15625 373.09375 L 272.0625 373.84375 L 272.625 374.1875 C 272.89421 374.42128 273.81351 374.71247 275.34375 375.03125 L 278.6875 375.90625 C 279.80685 376.53323 280.5762 377.14899 280.9375 377.78125 C 281.2988 378.41353 281.46873 379.17116 281.46875 380 C 281.27038 379.76622 280.64227 379.65626 279.59375 379.65625 L 278.40625 379.71875 L 277 380 C 276.47575 380.10626 275.9563 380.30622 275.53125 380.625 L 274.6875 381.625 C 274.36161 382.1032 274.1875 382.59494 274.1875 383.0625 L 274.375 383.9375 L 274.6875 384.78125 L 275.40625 385.4375 C 275.68962 385.69254 276.13073 385.9031 276.71875 386.0625 C 277.30675 386.22191 277.92781 386.3125 278.59375 386.3125 L 280.0625 386.125 L 281.46875 385.59375 L 282.6875 384.84375 L 283.03125 384.59375 L 283.03125 384.375 L 284 384.78125 C 284.42504 384.96189 284.94447 385.17121 285.46875 385.46875 C 285.99299 385.76628 286.52988 386.13745 287.125 386.5625 C 287.55006 386.75379 287.97533 387.1743 288.34375 387.84375 C 288.46127 387.99487 288.53872 388.17586 288.65625 388.34375 L 288.625 388.34375 L 288.71875 389.46875 L 288.75 390.8125 L 288.71875 391.28125 C 288.66207 391.43002 288.53088 391.48 288.375 391.4375 L 286.6875 390.71875 C 286.14908 390.51686 285.47805 390.40625 284.65625 390.40625 L 283.5 390.53125 C 283.15996 390.59501 282.89713 390.64967 282.65625 390.71875 C 282.41538 390.78783 282.23545 390.84249 282.09375 390.90625 L 281 391.53125 C 280.30572 392.12633 279.96875 392.73804 279.96875 393.34375 L 280.09375 394.3125 C 280.15044 394.54627 280.33453 394.77153 280.625 395 C 280.91549 395.22845 281.27954 395.45498 281.71875 395.625 C 282.15802 395.79503 282.67328 395.91966 283.21875 396.03125 C 283.76428 396.14281 284.27701 396.1875 284.84375 396.1875 C 285.368 396.18751 285.91743 396.12814 286.40625 395.96875 C 286.8951 395.80937 287.35908 395.59878 287.8125 395.34375 L 289.5 394.125 L 290.59375 394.65625 L 291.78125 395.34375 L 292.8125 395.9375 C 293.12424 396.11815 293.40122 396.29871 293.65625 396.46875 L 294.0625 396.71875 L 294.4375 397.03125 L 295.9375 398.28125 L 296.5625 398.90625 L 296.90625 399.0625 L 297.21875 398.90625 L 297.21875 398.65625 L 296.75 397.71875 L 296.3125 397.03125 L 295.09375 395.59375 L 293.5625 394.40625 L 292.34375 393.53125 L 291.0625 392.78125 C 291.01998 392.74935 291.00712 392.68408 291 392.59375 C 290.99291 392.50343 290.97165 392.38815 291 392.25 L 291 392.09375 L 291.1875 392.21875 L 291.1875 372.21875 L 295.4375 372.21875 L 296.84375 372.21875 L 333.71875 372.21875 L 331.53125 370.28125 L 294.15625 370.28125 L 292.84375 370.28125 L 268.125 370.28125 z M 13.4375 372.3125 L 25.59375 372.3125 L 25.59375 385.90625 L 24.59375 384.875 L 22.9375 383.40625 C 22.484084 383.1512 22.192923 382.91066 22.09375 382.6875 L 21.125 382 L 21.25 381.1875 C 21.249986 380.86872 21.101694 380.41822 20.875 379.8125 L 20.46875 378.375 C 20.369548 378.09871 20.215437 377.80755 20.03125 377.53125 C 19.847034 377.25497 19.632943 377.00567 19.40625 376.71875 C 19.165366 376.41058 18.948361 376.12942 18.75 375.90625 C 18.551624 375.68311 18.354595 375.51315 18.15625 375.375 L 16.9375 374.5 L 13.4375 372.3125 z M 276.59375 372.3125 L 288.71875 372.3125 L 288.71875 385.90625 L 287.6875 384.875 L 286.0625 383.40625 C 285.60908 383.1512 285.31794 382.91066 285.21875 382.6875 L 284.25 382 L 284.375 381.1875 C 284.37498 380.86872 284.22669 380.41822 284 379.8125 L 283.59375 378.375 C 283.49454 378.09871 283.34044 377.80755 283.15625 377.53125 C 282.97205 377.25497 282.78916 377.00567 282.5625 376.71875 C 282.32163 376.41058 282.10461 376.12942 281.90625 375.90625 C 281.70786 375.68311 281.47962 375.51315 281.28125 375.375 L 280.0625 374.5 L 276.59375 372.3125 z M 50.78125 373.09375 C 50.228646 373.09377 49.741738 373.13439 49.28125 373.1875 C 48.820744 373.24065 48.356735 373.26939 47.875 373.34375 C 47.393236 373.43942 46.929239 373.58063 46.46875 373.71875 C 46.008246 373.85691 45.53006 374.01749 45.0625 374.1875 C 43.220514 374.98448 41.767248 376.0161 40.71875 377.3125 C 40.520375 377.56755 40.397499 377.85404 40.3125 378.125 C 40.227471 378.39599 40.156235 378.66122 40.15625 378.9375 C 40.156236 380.00013 40.601522 380.77181 41.4375 381.25 C 42.174275 381.63254 42.894013 381.81251 43.6875 381.8125 C 44.013379 381.79125 44.263303 381.75063 44.46875 381.71875 C 44.674181 381.68686 44.886623 381.66751 45 381.625 L 45.71875 381.34375 C 46.214659 380.97183 46.394596 380.41948 46.28125 379.75 L 46 379.03125 C 45.929147 378.82935 45.85626 378.6694 45.75 378.53125 C 45.643726 378.39313 45.523766 378.26784 45.375 378.15625 C 45.226219 378.04468 45.02502 377.9294 44.8125 377.8125 C 45.138382 377.42995 45.509499 377.14004 45.90625 376.90625 L 47.875 375.90625 C 47.96 375.84251 48.098682 375.77252 48.375 375.6875 C 48.651287 375.60249 49.029507 375.50253 49.46875 375.375 C 50.403888 375.14122 51.257756 375.03125 52.09375 375.03125 C 52.617977 375.03127 53.103234 375.09125 53.5 375.21875 C 53.896707 375.34627 54.237842 375.48561 54.5 375.6875 C 54.762096 375.8894 54.934964 376.14061 55.0625 376.40625 C 55.190003 376.67194 55.24997 376.94247 55.25 377.21875 C 55.249971 377.47379 55.231244 377.71967 55.125 377.9375 C 55.018709 378.15534 54.908741 378.34998 54.78125 378.5625 C 54.597034 378.78566 54.368769 378.97625 54.15625 379.125 C 53.943684 379.27377 53.689609 379.38376 53.40625 379.46875 L 52.53125 379.15625 L 51.34375 379.03125 C 51.060346 379.07375 50.789178 379.11906 50.5625 379.15625 C 50.335777 379.19346 50.158755 379.24875 50.03125 379.3125 C 49.719515 379.50379 49.431284 379.65312 49.21875 379.8125 C 49.006201 379.97189 48.870433 380.17373 48.75 380.34375 C 48.62955 380.51379 48.518329 380.68372 48.46875 380.875 C 48.419143 381.06629 48.437485 381.29748 48.4375 381.53125 C 48.437486 381.99882 48.537435 382.37934 48.75 382.6875 C 48.920011 382.87877 49.10412 383.04405 49.28125 383.1875 C 49.458347 383.33097 49.624114 383.43563 49.84375 383.53125 C 50.063358 383.6269 50.324505 383.70219 50.59375 383.75 C 50.862952 383.79783 51.211158 383.81251 51.59375 383.8125 L 52.75 383.6875 C 53.160882 383.50687 53.549103 383.28566 53.875 383.0625 L 54.53125 383.4375 C 55.097982 383.82007 55.406235 384.30182 55.40625 384.84375 L 55.25 385.53125 C 54.92409 386.45577 54.294313 387.16744 53.28125 387.65625 C 52.268143 388.14509 51.061894 388.40625 49.6875 388.40625 C 48.823172 388.40624 48.015109 388.26503 47.25 388.03125 C 46.527368 387.77622 45.852169 387.52097 45.25 387.25 C 44.647804 386.97903 44.089659 386.69379 43.59375 386.375 L 41.90625 385.0625 C 41.509515 384.77559 41.138381 384.49568 40.8125 384.1875 C 40.486603 383.87936 40.209617 383.53755 39.96875 383.21875 L 38.75 381.71875 C 37.687313 380.42233 36.930507 379.26077 36.40625 378.1875 L 35.125 375.5625 L 33.34375 374.8125 L 35.125 379.03125 L 36.0625 381 L 37.28125 383.0625 L 39.03125 385.625 L 41.09375 387.75 L 43.8125 389.8125 C 44.124208 389.99315 44.47243 390.16372 44.8125 390.3125 C 45.152541 390.46126 45.489521 390.60123 45.84375 390.75 C 47.104781 391.14318 48.321049 391.34375 49.46875 391.34375 C 49.837125 391.34376 50.248257 391.30313 50.6875 391.25 C 51.126727 391.19686 51.569478 391.15813 52.09375 391.0625 L 55.03125 390.09375 C 55.952213 389.70056 56.566165 389.17009 56.90625 388.46875 C 57.246274 387.76742 57.406235 386.92513 57.40625 385.96875 L 57.21875 384.78125 L 56.84375 383.625 C 56.659532 383.38061 56.428367 383.14004 56.1875 382.90625 C 55.946604 382.67247 55.717942 382.45254 55.40625 382.21875 C 55.68961 381.94246 55.881186 381.63193 56.09375 381.28125 C 56.306254 380.93058 56.500366 380.56006 56.65625 380.15625 C 56.684567 380.11374 56.718735 380.05313 56.71875 380 C 56.71872 379.94687 56.707478 379.90689 56.75 379.875 L 56.90625 379.8125 L 58.25 379.1875 C 58.760053 378.99623 59.119914 378.88627 59.375 378.84375 C 59.530838 378.78001 59.756186 378.73469 59.96875 378.71875 C 60.181253 378.70282 60.401179 378.71875 60.65625 378.71875 L 61.5625 378.75 L 62.3125 378.8125 L 63.09375 379.03125 L 63.84375 379.4375 L 64.375 379.875 L 64.59375 380.15625 L 64.9375 380.90625 L 64.9375 381.5 C 64.880787 381.89318 64.800816 382.16311 64.6875 382.34375 L 64 382.90625 C 63.71658 383.06565 63.425421 383.10564 63.15625 383.03125 C 63.368756 382.8081 63.46872 382.46631 63.46875 382.0625 C 63.468721 381.73309 63.36874 381.47316 63.15625 381.25 L 62.71875 380.875 C 62.378665 380.61997 61.750538 380.50001 60.84375 380.5 C 60.135279 380.58502 59.75249 380.65437 59.625 380.75 L 58.90625 381.25 C 58.707857 381.47315 58.584998 381.69841 58.5 381.9375 C 58.414957 382.17661 58.343735 382.52245 58.34375 382.96875 C 58.400399 383.19192 58.460366 383.3978 58.53125 383.5625 C 58.602076 383.72721 58.73329 383.84188 58.875 383.9375 L 59.625 384.53125 C 59.865852 384.63753 60.087045 384.73813 60.25 384.8125 C 60.412912 384.8869 60.5912 384.91626 60.71875 384.9375 L 61.40625 385.0625 L 62.3125 385.0625 L 63.09375 384.96875 L 64 384.75 L 65.03125 384.25 L 65.65625 383.875 C 65.939592 383.7475 66.071206 383.59752 66.15625 383.40625 C 66.411262 383.11933 66.625366 382.8841 66.78125 382.6875 C 66.93707 382.49091 67.071206 382.29504 67.15625 382.125 C 67.241231 381.955 67.308284 381.7691 67.34375 381.59375 C 67.37914 381.41842 67.37497 381.22378 67.375 380.96875 L 67.28125 380.15625 L 66.71875 379 L 66.25 378.5 C 66.094103 378.33 65.948346 378.14941 65.75 377.96875 L 65 377.5 L 64.28125 377.25 C 63.785297 377.04811 63.291303 376.93814 62.78125 376.90625 L 61.6875 376.75 L 60.375 376.90625 C 60.091596 376.93813 59.777525 376.9775 59.4375 377.0625 C 59.097415 377.14752 58.737539 377.25812 58.3125 377.375 L 57.78125 377.59375 C 57.582858 377.66814 57.417095 377.7475 57.21875 377.875 L 57.21875 377.5 C 57.218719 377.10686 57.130423 376.82754 57.03125 376.59375 C 55.656825 374.27721 53.586689 373.09377 50.78125 373.09375 z M 313.90625 373.09375 C 313.35365 373.09377 312.83548 373.13439 312.375 373.1875 C 311.9145 373.24065 311.41925 373.26939 310.9375 373.34375 C 310.45573 373.43942 309.99172 373.58063 309.53125 373.71875 C 309.07076 373.85691 308.65506 374.01749 308.1875 374.1875 C 306.34551 374.98448 304.89224 376.0161 303.84375 377.3125 C 303.64538 377.56755 303.52249 377.85404 303.4375 378.125 C 303.35247 378.39599 303.28127 378.66122 303.28125 378.9375 C 303.28123 380.00013 303.66401 380.77181 304.5 381.25 C 305.23677 381.63254 306.01904 381.81251 306.8125 381.8125 C 307.13838 381.79125 307.41956 381.75063 307.625 381.71875 C 307.83045 381.68686 307.98041 381.66751 308.09375 381.625 L 308.84375 381.34375 C 309.33965 380.97183 309.51961 380.41948 309.40625 379.75 L 309.125 379.03125 C 309.05416 378.82935 308.94999 378.6694 308.84375 378.53125 C 308.73746 378.39313 308.61753 378.26784 308.46875 378.15625 C 308.31998 378.04468 308.15 377.9294 307.9375 377.8125 C 308.26338 377.42995 308.6345 377.14004 309.03125 376.90625 L 310.9375 375.90625 C 311.0225 375.84251 311.22368 375.77252 311.5 375.6875 C 311.77629 375.60249 312.15449 375.50253 312.59375 375.375 C 313.52889 375.14122 314.38277 375.03125 315.21875 375.03125 C 315.74297 375.03127 316.22827 375.09125 316.625 375.21875 C 317.02171 375.34627 317.36286 375.48561 317.625 375.6875 C 317.88709 375.8894 318.05998 376.14061 318.1875 376.40625 C 318.31501 376.67194 318.37497 376.94247 318.375 377.21875 C 318.37498 377.47379 318.35623 377.71967 318.25 377.9375 C 318.1437 378.15534 318.00247 378.34998 317.875 378.5625 C 317.69077 378.78566 317.525 378.97625 317.3125 379.125 C 317.09994 379.27377 316.81461 379.38376 316.53125 379.46875 L 315.59375 379.15625 L 314.46875 379.03125 C 314.18536 379.07375 313.91419 379.11906 313.6875 379.15625 C 313.46077 379.19346 313.28374 379.24875 313.15625 379.3125 C 312.8445 379.50379 312.58754 379.65312 312.375 379.8125 C 312.16245 379.97189 312.02669 380.17373 311.90625 380.34375 C 311.78582 380.51379 311.64333 380.68372 311.59375 380.875 C 311.54413 381.06629 311.5625 381.29748 311.5625 381.53125 C 311.56248 381.99882 311.6312 382.37934 311.84375 382.6875 C 312.01375 382.87877 312.19786 383.04405 312.375 383.1875 C 312.5521 383.33097 312.7491 383.43563 312.96875 383.53125 C 313.18837 383.6269 313.44952 383.70219 313.71875 383.75 C 313.98795 383.79783 314.33617 383.81251 314.71875 383.8125 L 315.875 383.6875 C 316.28587 383.50687 316.64284 383.28566 316.96875 383.0625 L 317.625 383.4375 C 318.19173 383.82007 318.46873 384.30182 318.46875 384.84375 L 318.375 385.53125 C 318.0491 386.45577 317.3568 387.16744 316.34375 387.65625 C 315.33063 388.14509 314.15565 388.40625 312.78125 388.40625 C 311.91693 388.40624 311.10885 388.26503 310.34375 388.03125 C 309.62113 387.77622 308.97717 387.52097 308.375 387.25 C 307.7728 386.97903 307.21466 386.69379 306.71875 386.375 L 305.03125 385.0625 C 304.63453 384.77559 304.26337 384.49568 303.9375 384.1875 C 303.61162 383.87936 303.3346 383.53755 303.09375 383.21875 L 301.875 381.71875 C 300.81232 380.42233 299.99301 379.26077 299.46875 378.1875 L 298.25 375.5625 L 296.46875 374.8125 L 298.25 379.03125 L 299.1875 381 L 300.375 383.0625 L 302.125 385.625 L 304.21875 387.75 L 306.96875 389.8125 C 307.28047 389.99315 307.59741 390.16372 307.9375 390.3125 C 308.27754 390.46126 308.61452 390.60123 308.96875 390.75 C 310.22978 391.14318 311.44603 391.34375 312.59375 391.34375 C 312.96213 391.34376 313.37326 391.30313 313.8125 391.25 C 314.25174 391.19686 314.69448 391.15813 315.21875 391.0625 L 318.15625 390.09375 C 319.07721 389.70056 319.69119 389.17009 320.03125 388.46875 C 320.37128 387.76742 320.53122 386.92513 320.53125 385.96875 L 320.34375 384.78125 L 319.96875 383.625 C 319.78452 383.38061 319.55337 383.14004 319.3125 382.90625 C 319.0716 382.67247 318.78046 382.45254 318.46875 382.21875 C 318.7521 381.94246 319.00619 381.63193 319.21875 381.28125 C 319.43126 380.93058 319.62537 380.56006 319.78125 380.15625 C 319.80958 380.11374 319.84372 380.05313 319.84375 380 C 319.84372 379.94687 319.83247 379.90689 319.875 379.875 L 320.03125 379.8125 L 321.34375 379.1875 C 321.85382 378.99623 322.27618 378.88627 322.53125 378.84375 C 322.68708 378.78001 322.88118 378.73469 323.09375 378.71875 C 323.30626 378.70282 323.52618 378.71875 323.78125 378.71875 L 324.6875 378.75 L 325.4375 378.8125 L 326.21875 379.03125 L 327 379.4375 L 327.5 379.875 L 327.75 380.15625 L 328.0625 380.90625 L 328.0625 381.5 C 328.00579 381.89318 327.89456 382.16311 327.78125 382.34375 L 327.09375 382.90625 C 326.81034 383.06565 326.55045 383.10564 326.28125 383.03125 C 326.49376 382.8081 326.59372 382.46631 326.59375 382.0625 C 326.59371 381.73309 326.49377 381.47316 326.28125 381.25 L 325.84375 380.875 C 325.50367 380.61997 324.87553 380.50001 323.96875 380.5 C 323.26028 380.58502 322.84627 380.65437 322.71875 380.75 L 322 381.25 C 321.80161 381.47315 321.6475 381.69841 321.5625 381.9375 C 321.47746 382.17661 321.46873 382.52245 321.46875 382.96875 C 321.52539 383.19192 321.58538 383.3978 321.65625 383.5625 C 321.72706 383.72721 321.85827 383.84188 322 383.9375 L 322.75 384.53125 C 322.99084 384.63753 323.21205 384.73813 323.375 384.8125 C 323.5379 384.8869 323.65368 384.91626 323.78125 384.9375 L 324.53125 385.0625 L 325.4375 385.0625 L 326.21875 384.96875 L 327.09375 384.75 L 328.15625 384.25 L 328.71875 383.875 C 329.00209 383.7475 329.19621 383.59752 329.28125 383.40625 C 329.53626 383.11933 329.75036 382.8841 329.90625 382.6875 C 330.06209 382.49091 330.19621 382.29504 330.28125 382.125 C 330.36622 381.955 330.43332 381.7691 330.46875 381.59375 C 330.50413 381.41842 330.49994 381.22378 330.5 380.96875 L 330.40625 380.15625 L 329.84375 379 L 329.375 378.5 C 329.2191 378.33 329.07335 378.14941 328.875 377.96875 L 328.125 377.5 L 327.40625 377.25 C 326.91029 377.04811 326.4163 376.93814 325.90625 376.90625 L 324.8125 376.75 L 323.5 376.90625 C 323.2166 376.93813 322.90255 376.9775 322.5625 377.0625 C 322.2224 377.14752 321.86253 377.25812 321.4375 377.375 L 320.90625 377.59375 C 320.70786 377.66814 320.51086 377.7475 320.3125 377.875 L 320.3125 377.5 C 320.31247 377.10686 320.25542 376.82754 320.15625 376.59375 C 318.78182 374.27721 316.71168 373.09377 313.90625 373.09375 z M 172.09375 376.40625 L 172.09375 387.28125 L 171.53125 386.59375 L 171.15625 386.0625 C 171.02871 385.90311 170.90168 385.74721 170.78125 385.625 C 170.66079 385.5028 170.54792 385.40877 170.40625 385.28125 L 168.1875 383.5 L 166.65625 382.4375 L 165.21875 381.6875 C 165.03453 381.58124 164.87752 381.47001 164.75 381.40625 C 164.62246 381.34249 164.49542 381.30315 164.375 381.25 C 164.25455 381.19687 164.12459 381.11563 163.96875 381.0625 C 163.81288 381.00937 163.59879 380.96002 163.34375 380.875 L 161.9375 380.4375 L 163.96875 379.3125 L 166.28125 378.28125 L 169.03125 377.21875 L 170.21875 376.84375 L 172.09375 376.40625 z M 107.625 376.71875 L 107.625 386.96875 C 107.22825 386.49055 106.85129 386.09599 106.46875 385.71875 C 106.08617 385.34151 105.71503 385.03629 105.375 384.78125 L 103.6875 383.5 C 103.16323 383.17059 102.65089 382.87473 102.21875 382.625 C 101.78657 382.37528 101.31966 382.11942 100.78125 381.875 C 100.24282 381.61999 99.694665 381.40004 99.15625 381.1875 C 98.617816 380.97498 98.069665 380.79503 97.53125 380.625 L 99.5 379.65625 L 101.90625 378.625 C 102.86973 378.21059 103.78649 377.84474 104.75 377.53125 C 105.71349 377.21778 106.68982 376.95254 107.625 376.71875 z M 360.78125 376.71875 L 360.78125 386.96875 C 360.3845 386.49055 360.00756 386.09599 359.625 385.71875 C 359.24241 385.34151 358.8713 385.03629 358.53125 384.78125 L 356.84375 383.5 C 356.31949 383.17059 355.80712 382.87473 355.375 382.625 C 354.94283 382.37528 354.47593 382.11942 353.9375 381.875 C 353.39908 381.61999 352.88215 381.40004 352.34375 381.1875 C 351.80531 380.97498 351.25716 380.79503 350.71875 380.625 L 352.65625 379.65625 L 355.0625 378.625 C 356.02598 378.21059 356.974 377.84474 357.9375 377.53125 C 358.901 377.21778 359.84608 376.95254 360.78125 376.71875 z M 150.40625 385.09375 L 150.5 390.375 L 150.03125 389.90625 L 148.5 389 L 147.40625 388.34375 C 147.06618 388.13122 146.76337 387.96065 146.4375 387.84375 C 146.11159 387.72687 145.74921 387.61564 145.4375 387.5625 L 146.75 386.875 C 147.04753 386.66248 147.30744 386.50783 147.5625 386.375 C 147.81754 386.24217 148.05161 386.12626 148.25 386.0625 L 149.34375 385.59375 L 150.40625 385.09375 z M 164.4375 386.46875 C 163.55901 386.46875 162.88508 386.74868 162.375 387.34375 C 162.23331 387.51378 162.10917 387.67906 162.03125 387.84375 C 161.95331 388.00847 161.9375 388.1631 161.9375 388.34375 C 161.9375 388.66254 162.01745 388.95841 162.1875 389.21875 C 162.35752 389.47908 162.56745 389.72028 162.84375 389.90625 C 163.12004 390.0922 163.44119 390.2428 163.78125 390.34375 C 164.1213 390.44469 164.43827 390.5 164.75 390.5 C 165.64264 390.5 166.31366 390.1582 166.78125 389.53125 L 167.125 389 C 167.15333 388.93623 167.13499 388.86094 167.15625 388.78125 C 167.1775 388.70153 167.21874 388.58627 167.21875 388.4375 C 167.21874 388.16122 167.13169 387.90067 166.96875 387.65625 C 166.80579 387.41185 166.57461 387.17534 166.3125 387 C 166.05034 386.82468 165.7392 386.72595 165.40625 386.625 C 165.07326 386.52405 164.76337 386.46875 164.4375 386.46875 z M 21.4375 392.28125 C 22.259319 392.28126 22.84746 392.33186 23.1875 392.40625 L 23.9375 392.90625 C 23.980023 393.27817 23.800084 393.56935 23.375 393.75 C 23.105801 393.88814 22.801734 393.9981 22.46875 394.09375 C 22.135782 394.18938 21.768834 394.27 21.34375 394.3125 C 20.706163 394.31249 20.18382 394.22063 19.84375 394.125 C 19.50371 394.02935 19.286703 393.88003 19.1875 393.625 C 19.130835 393.21058 19.322029 392.86941 19.71875 392.625 C 20.186342 392.39121 20.75739 392.28125 21.4375 392.28125 z M 284.5625 392.28125 C 285.38432 392.28126 285.97246 392.33186 286.3125 392.40625 L 287.0625 392.90625 C 287.10503 393.27817 286.92507 393.56935 286.5 393.75 C 286.23079 393.88814 285.92672 393.9981 285.59375 394.09375 C 285.26079 394.18938 284.86258 394.27 284.4375 394.3125 C 283.7999 394.31249 283.30879 394.22063 282.96875 394.125 C 282.62872 394.02935 282.4117 393.88003 282.3125 393.625 C 282.25582 393.21058 282.44701 392.86941 282.84375 392.625 C 283.31135 392.39121 283.88242 392.28125 284.5625 392.28125 z "
     id="text3252" />
</svg>
