<?xml version="1.0" encoding="UTF-8" standalone="no"?>
<!-- Created with Inkscape (http://www.inkscape.org/) -->
<svg
   xmlns:dc="http://purl.org/dc/elements/1.1/"
   xmlns:cc="http://creativecommons.org/ns#"
   xmlns:rdf="http://www.w3.org/1999/02/22-rdf-syntax-ns#"
   xmlns:svg="http://www.w3.org/2000/svg"
   xmlns="http://www.w3.org/2000/svg"
   xmlns:sodipodi="http://sodipodi.sourceforge.net/DTD/sodipodi-0.dtd"
   xmlns:inkscape="http://www.inkscape.org/namespaces/inkscape"
   version="1.0"
   width="400"
   height="400"
   id="svg2728"
   sodipodi:version="0.32"
   inkscape:version="0.46"
   sodipodi:docname="Wikibooks-logo-fr-noslogan.svg"
   inkscape:output_extension="org.inkscape.output.svg.inkscape">
  <metadata
     id="metadata18">
    <rdf:RDF>
      <cc:Work
         rdf:about="">
        <dc:format>image/svg+xml</dc:format>
        <dc:type
           rdf:resource="http://purl.org/dc/dcmitype/StillImage" />
      </cc:Work>
    </rdf:RDF>
  </metadata>
  <sodipodi:namedview
     inkscape:window-height="821"
     inkscape:window-width="1272"
     inkscape:pageshadow="2"
     inkscape:pageopacity="0.0"
     guidetolerance="10.0"
     gridtolerance="10.0"
     objecttolerance="10.0"
     borderopacity="1.0"
     bordercolor="#666666"
     pagecolor="#ffffff"
     id="base"
     showgrid="false"
     inkscape:zoom="1.245"
     inkscape:cx="-25.951452"
     inkscape:cy="204.54389"
     inkscape:window-x="0"
     inkscape:window-y="25"
     inkscape:current-layer="svg2728" />
  <defs
     id="defs2731">
    <inkscape:perspective
       sodipodi:type="inkscape:persp3d"
       inkscape:vp_x="0 : 200 : 1"
       inkscape:vp_y="0 : 1000 : 0"
       inkscape:vp_z="400 : 200 : 1"
       inkscape:persp3d-origin="200 : 133.33333 : 1"
       id="perspective20" />
  </defs>
  <g
     id="layer1" />
  <text
     xml:space="preserve"
     style="font-style: normal; font-variant: normal; font-weight: bold; font-stretch: normal; fill: rgb(0, 0, 0); fill-opacity: 1; stroke: none; stroke-width: 1px; stroke-linecap: butt; stroke-linejoin: miter; stroke-opacity: 1; font-family: DejaVu Sans;"
     x="15.261"
     y="175.904"
     id="text2416"><tspan
       sodipodi:role="line"
       id="tspan2418"
       x="15.261"
       y="175.904" /></text>
  <g
     id="g2451"
     transform="translate(0,12.455795)">
    <g
       id="g3189">
      <g
         id="g3177">
        <path
           d="M 191.65664,115.97593 C 196.93351,182.00184 208.45394,245.91983 242.85479,307.46513 L 255.86467,307.56221 L 338.15581,234.14292 L 259.72068,35.943307 L 203.18059,89.951746 L 191.65664,115.97593 z"
           style="fill:#fdfcf8;fill-opacity:1;fill-rule:evenodd;stroke:none;stroke-width:1px;stroke-linecap:butt;stroke-linejoin:miter;stroke-opacity:1"
           id="path3297" />
        <path
           id="path3272"
           style="fill:#5f96d3;fill-opacity:1"
           d="M 263.32723,16.5 C 236.14031,42.801966 209.26473,68.875 209.26473,68.875 C 209.26473,68.875 218.92098,88.53125 218.92098,88.53125 C 232.01455,75.550025 245.18226,64.133911 257.73348,51.4375 C 284.16674,109.4727 302.17756,156.24917 324.33191,218.08448 C 331.58462,238.17246 330.10582,239.07126 312.76941,249.92823 C 284.91465,263.77995 276.0966,272.86547 242.89833,308.1875 L 265.61708,308.1875 C 293.37052,283.09599 303.67261,274.24081 338.42566,255.92823 C 350.71955,248.83035 352.40523,239.86966 347.36316,225.92823 C 331.10198,180.73146 295.87208,83.322614 263.32723,16.5 z" />
      </g>
      <g
         id="g3181">
        <path
           d="M 125.84082,116.04509 C 131.11769,182.071 144.61911,246.8316 179.01996,308.3769 L 199.35471,308.55962 L 261.32293,230.84125 L 193.90486,36.012472 L 137.36477,90.020911 L 125.84082,116.04509 z"
           style="fill:#f4eed7;fill-rule:evenodd;stroke:none;stroke-width:1px;stroke-linecap:butt;stroke-linejoin:miter;stroke-opacity:1"
           id="path3214" />
        <path
           id="path3138"
           style="fill:#2a62a1;fill-opacity:1;fill-rule:evenodd;stroke:none;stroke-width:22;stroke-linecap:round;stroke-linejoin:miter;stroke-miterlimit:4;stroke-dasharray:none;stroke-opacity:1"
           d="M 192.45223,17.125 C 172.56466,30.549352 157.22356,49.869448 139.92098,66.4375 C 139.92098,66.4375 147.01473,89.0625 147.01473,89.0625 C 160.5559,78.391834 172.3403,65.526043 184.51473,53.34375 L 250.17098,218.03125 C 253.95672,229.18194 247.99456,239.10365 236.01473,249.90625 C 221.66549,261.43896 192.12216,288.32681 178.73348,308.8125 L 199.10848,308.8125 C 220.49313,286.84657 224.35368,283.86504 248.70223,262.78125 C 265.04857,246.10281 279.81623,237.56053 272.10848,216.1875 L 192.45223,17.125 z" />
      </g>
      <g
         id="g3185">
        <path
           d="M 50.218883,114.63177 C 55.595535,183.91551 77.233973,245.97178 102.67801,306.33668 L 129.48015,306.00572 L 199.88087,225.96804 L 118.28293,34.599156 L 61.742841,88.607595 L 50.218883,114.63177 z"
           style="fill:#e9ddaf;fill-rule:evenodd;stroke:none;stroke-width:1px;stroke-linecap:butt;stroke-linejoin:miter;stroke-opacity:1"
           id="path2238" />
        <path
           id="path3136"
           style="fill:#15304f;fill-opacity:1;fill-rule:evenodd;stroke:none;stroke-width:22;stroke-linecap:round;stroke-linejoin:miter;stroke-miterlimit:4;stroke-dasharray:none;stroke-opacity:1"
           d="M 125.32723,16.0625 C 120.02588,17.841698 115.61512,21.260515 111.48348,24.875 C 55.394922,78.847012 53.13973,81.125 53.13973,81.125 C 50.188265,83.867742 49.941746,87.87735 49.98348,91.90625 L 50.218884,114.63177 C 50.218884,114.63177 76.123108,89.450054 114.79598,52.21875 C 135.6144,106.45643 157.3415,160.40524 178.73348,214.4375 C 181.66298,222.60083 174.65125,229.2909 165.76473,238.21875 C 153.49118,250.19233 127.82007,274.84011 101.54598,307.75 L 127.88973,307.75 C 127.88973,307.75 191.20222,238.3125 191.20223,238.3125 C 197.22151,230.03457 204.70542,221.9413 201.54598,214.4375 C 201.54598,214.4375 125.32723,16.062501 125.32723,16.0625 z" />
      </g>
    </g>
    <g
       transform="translate(0.1270294,0)"
       id="g2700">
      <path
         id="text2420"
         d="M 19.999969,317.17578 L 30.089813,317.17578 L 37.144501,346.84375 L 44.144501,317.17578 L 54.289032,317.17578 L 61.289032,346.84375 L 68.343719,317.17578 L 78.351532,317.17578 L 68.726532,358 L 56.585907,358 L 49.175751,326.96484 L 41.847626,358 L 29.707001,358 L 19.999969,317.17578 M 85.269501,317.17578 L 95.796844,317.17578 L 95.796844,358 L 85.269501,358 L 85.269501,317.17578 M 106.16013,317.17578 L 116.68747,317.17578 L 116.68747,332.07812 L 131.86325,317.17578 L 144.08591,317.17578 L 124.42575,336.50781 L 146.10934,358 L 132.92966,358 L 116.68747,341.92188 L 116.68747,358 L 106.16013,358 L 106.16013,317.17578 M 149.582,317.17578 L 160.10934,317.17578 L 160.10934,358 L 149.582,358 L 149.582,317.17578"
         style="font-size:56px;font-style:normal;font-variant:normal;font-weight:bold;font-stretch:normal;fill:#0b2645;fill-opacity:1;stroke:none;stroke-width:1px;stroke-linecap:butt;stroke-linejoin:miter;stroke-opacity:1;font-family:DejaVu Sans" />
      <path
         id="text2410"
         d="M 167.42175,317.40872 L 177.9491,317.40872 L 177.9491,350.27591 L 196.43347,350.27591 L 196.43347,358.23294 L 167.42175,358.23294 L 167.42175,317.40872 M 203.078,317.40872 L 213.60535,317.40872 L 213.60535,358.23294 L 203.078,358.23294 L 203.078,317.40872 M 219.10144,317.40872 L 229.68347,317.40872 L 240.5116,347.54153 L 251.31238,317.40872 L 261.89441,317.40872 L 246.77332,358.23294 L 234.22253,358.23294 L 219.10144,317.40872 M 282.23816,335.51028 C 284.44387,335.51031 286.02069,335.10015 286.96863,334.27982 C 287.93475,333.45953 288.41782,332.11057 288.41785,330.23294 C 288.41782,328.3736 287.93475,327.04287 286.96863,326.24075 C 286.02069,325.4387 284.44387,325.03766 282.23816,325.03763 L 277.80847,325.03763 L 277.80847,335.51028 L 282.23816,335.51028 M 277.80847,342.78372 L 277.80847,358.23294 L 267.28113,358.23294 L 267.28113,317.40872 L 283.35925,317.40872 C 288.73683,317.40876 292.67433,318.31111 295.17175,320.11575 C 297.68734,321.92048 298.94515,324.77334 298.94519,328.67435 C 298.94515,331.37229 298.2889,333.58713 296.97644,335.31888 C 295.68214,337.05067 293.7225,338.32671 291.09753,339.147 C 292.53761,339.47515 293.82276,340.22254 294.953,341.38919 C 296.10141,342.53764 297.25896,344.28764 298.42566,346.63919 L 304.1405,358.23294 L 292.92957,358.23294 L 287.953,348.08841 C 286.95037,346.04675 285.92954,344.65223 284.8905,343.90482 C 283.86965,343.15743 282.50246,342.78374 280.78894,342.78372 L 277.80847,342.78372 M 310.37488,317.40872 L 338.78503,317.40872 L 338.78503,325.36575 L 320.90222,325.36575 L 320.90222,332.96732 L 337.71863,332.96732 L 337.71863,340.92435 L 320.90222,340.92435 L 320.90222,350.27591 L 339.3866,350.27591 L 339.3866,358.23294 L 310.37488,358.23294 L 310.37488,317.40872 M 377.06628,318.69388 L 377.06628,327.3345 C 374.82407,326.33193 372.63657,325.57542 370.50378,325.06497 C 368.37095,324.55459 366.35663,324.29938 364.46082,324.29935 C 361.94517,324.29938 360.0858,324.64573 358.88269,325.33841 C 357.67955,326.03115 357.07799,327.10667 357.078,328.56497 C 357.07799,329.65875 357.47903,330.51552 358.28113,331.13528 C 359.10142,331.73687 360.57799,332.2564 362.71082,332.69388 L 367.19519,333.59622 C 371.73422,334.5077 374.96078,335.89312 376.87488,337.75247 C 378.78891,339.61187 379.74594,342.25509 379.74597,345.68216 C 379.74594,350.18477 378.40609,353.53893 375.72644,355.74466 C 373.06495,357.93216 368.99074,359.02591 363.50378,359.02591 C 360.91523,359.02591 358.31757,358.77982 355.71082,358.28763 C 353.10404,357.79544 350.49727,357.06628 347.8905,356.10013 L 347.8905,347.21341 C 350.49727,348.59884 353.01289,349.64701 355.43738,350.35794 C 357.88007,351.05066 360.23163,351.39701 362.49207,351.397 C 364.78892,351.39701 366.54803,351.0142 367.76941,350.24857 C 368.99074,349.48295 369.60141,348.3892 369.60144,346.96732 C 369.60141,345.69129 369.18214,344.70691 368.34363,344.01419 C 367.52329,343.3215 365.87355,342.70171 363.39441,342.15482 L 359.32019,341.25247 C 355.23685,340.37749 352.24727,338.98296 350.35144,337.06888 C 348.47383,335.15484 347.53503,332.57541 347.53503,329.3306 C 347.53503,325.26553 348.84753,322.13923 351.47253,319.95169 C 354.09752,317.76423 357.87096,316.67048 362.79285,316.67044 C 365.03501,316.67048 367.341,316.84366 369.71082,317.18997 C 372.08058,317.51814 374.5324,318.01944 377.06628,318.69388"
         style="font-size:56px;font-style:normal;font-variant:normal;font-weight:bold;font-stretch:normal;fill:#0a4e98;fill-opacity:1;stroke:none;stroke-width:1px;stroke-linecap:butt;stroke-linejoin:miter;stroke-opacity:1;font-family:DejaVu Sans" />
    </g>
  </g>
</svg>
