<?xml version="1.0" encoding="UTF-8" standalone="no"?>
<!-- Created with Inkscape (http://www.inkscape.org/) -->

<svg
   xmlns:dc="http://purl.org/dc/elements/1.1/"
   xmlns:cc="http://creativecommons.org/ns#"
   xmlns:rdf="http://www.w3.org/1999/02/22-rdf-syntax-ns#"
   xmlns:svg="http://www.w3.org/2000/svg"
   xmlns="http://www.w3.org/2000/svg"
   xmlns:sodipodi="http://sodipodi.sourceforge.net/DTD/sodipodi-0.dtd"
   xmlns:inkscape="http://www.inkscape.org/namespaces/inkscape"
   version="1.0"
   width="400"
   height="400"
   id="svg2728"
   sodipodi:version="0.32"
   inkscape:version="0.47 r22583"
   sodipodi:docname="Wikibooks-logo-ca-unpathed.svg"
   inkscape:output_extension="org.inkscape.output.svg.inkscape">
  <metadata
     id="metadata18">
    <rdf:RDF>
      <cc:Work
         rdf:about="">
        <dc:format>image/svg+xml</dc:format>
        <dc:type
           rdf:resource="http://purl.org/dc/dcmitype/StillImage" />
        <dc:title></dc:title>
      </cc:Work>
    </rdf:RDF>
  </metadata>
  <sodipodi:namedview
     inkscape:window-height="821"
     inkscape:window-width="1272"
     inkscape:pageshadow="2"
     inkscape:pageopacity="0.0"
     guidetolerance="10.0"
     gridtolerance="10.0"
     objecttolerance="10.0"
     borderopacity="1.0"
     bordercolor="#666666"
     pagecolor="#ffffff"
     id="base"
     showgrid="false"
     inkscape:zoom="1.7606959"
     inkscape:cx="202.55066"
     inkscape:cy="71.558963"
     inkscape:window-x="0"
     inkscape:window-y="25"
     inkscape:current-layer="svg2728"
     inkscape:window-maximized="0" />
  <defs
     id="defs2731">
    <inkscape:perspective
       sodipodi:type="inkscape:persp3d"
       inkscape:vp_x="0 : 200 : 1"
       inkscape:vp_y="0 : 1000 : 0"
       inkscape:vp_z="400 : 200 : 1"
       inkscape:persp3d-origin="200 : 133.33333 : 1"
       id="perspective20" />
  </defs>
  <g
     id="layer1" />
  <g
     id="g3189">
    <g
       id="g3177">
      <path
         id="path3297"
         style="fill: rgb(253, 252, 248); fill-opacity: 1; fill-rule: evenodd; stroke: none; stroke-width: 1px; stroke-linecap: butt; stroke-linejoin: miter; stroke-opacity: 1;"
         d="M 191.65664,115.97593 C 196.93351,182.00184 208.45394,245.91983 242.85479,307.46513 L 255.86467,307.56221 L 338.15581,234.14292 L 259.72068,35.943307 L 203.18059,89.951746 L 191.65664,115.97593 z" />
      <path
         d="M 263.32723,16.5 C 236.14031,42.801966 209.26473,68.875 209.26473,68.875 C 209.26473,68.875 218.92098,88.53125 218.92098,88.53125 C 232.01455,75.550025 245.18226,64.133911 257.73348,51.4375 C 284.16674,109.4727 302.17756,156.24917 324.33191,218.08448 C 331.58462,238.17246 330.10582,239.07126 312.76941,249.92823 C 284.91465,263.77995 276.0966,272.86547 242.89833,308.1875 L 265.61708,308.1875 C 293.37052,283.09599 303.67261,274.24081 338.42566,255.92823 C 350.71955,248.83035 352.40523,239.86966 347.36316,225.92823 C 331.10198,180.73146 295.87208,83.322614 263.32723,16.5 z"
         style="fill: rgb(95, 150, 211); fill-opacity: 1;"
         id="path3272" />
    </g>
    <g
       id="g3181">
      <path
         id="path3214"
         style="fill: rgb(244, 238, 215); fill-rule: evenodd; stroke: none; stroke-width: 1px; stroke-linecap: butt; stroke-linejoin: miter; stroke-opacity: 1;"
         d="M 125.84082,116.04509 C 131.11769,182.071 144.61911,246.8316 179.01996,308.3769 L 199.35471,308.55962 L 261.32293,230.84125 L 193.90486,36.012472 L 137.36477,90.020911 L 125.84082,116.04509 z" />
      <path
         d="M 192.45223,17.125 C 172.56466,30.549352 157.22356,49.869448 139.92098,66.4375 C 139.92098,66.4375 147.01473,89.0625 147.01473,89.0625 C 160.5559,78.391834 172.3403,65.526043 184.51473,53.34375 L 250.17098,218.03125 C 253.95672,229.18194 247.99456,239.10365 236.01473,249.90625 C 221.66549,261.43896 192.12216,288.32681 178.73348,308.8125 L 199.10848,308.8125 C 220.49313,286.84657 224.35368,283.86504 248.70223,262.78125 C 265.04857,246.10281 279.81623,237.56053 272.10848,216.1875 L 192.45223,17.125 z"
         style="fill: rgb(42, 98, 161); fill-opacity: 1; fill-rule: evenodd; stroke: none; stroke-width: 22; stroke-linecap: round; stroke-linejoin: miter; stroke-miterlimit: 4; stroke-dasharray: none; stroke-opacity: 1;"
         id="path3138" />
    </g>
    <g
       id="g3185">
      <path
         id="path2238"
         style="fill: rgb(233, 221, 175); fill-rule: evenodd; stroke: none; stroke-width: 1px; stroke-linecap: butt; stroke-linejoin: miter; stroke-opacity: 1;"
         d="M 50.218883,114.63177 C 55.595535,183.91551 77.233973,245.97178 102.67801,306.33668 L 129.48015,306.00572 L 199.88087,225.96804 L 118.28293,34.599156 L 61.742841,88.607595 L 50.218883,114.63177 z" />
      <path
         d="M 125.32723,16.0625 C 120.02588,17.841698 115.61512,21.260515 111.48348,24.875 C 55.394922,78.847012 53.13973,81.125 53.13973,81.125 C 50.188265,83.867742 49.941746,87.87735 49.98348,91.90625 L 50.218884,114.63177 C 50.218884,114.63177 76.123108,89.450054 114.79598,52.21875 C 135.6144,106.45643 157.3415,160.40524 178.73348,214.4375 C 181.66298,222.60083 174.65125,229.2909 165.76473,238.21875 C 153.49118,250.19233 127.82007,274.84011 101.54598,307.75 L 127.88973,307.75 C 127.88973,307.75 191.20222,238.3125 191.20223,238.3125 C 197.22151,230.03457 204.70542,221.9413 201.54598,214.4375 C 201.54598,214.4375 125.32723,16.062501 125.32723,16.0625 z"
         style="fill: rgb(21, 48, 79); fill-opacity: 1; fill-rule: evenodd; stroke: none; stroke-width: 22; stroke-linecap: round; stroke-linejoin: miter; stroke-miterlimit: 4; stroke-dasharray: none; stroke-opacity: 1;"
         id="path3136" />
    </g>
  </g>
  <text
     xml:space="preserve"
     style="font-style: normal; font-variant: normal; font-weight: bold; font-stretch: normal; fill: rgb(0, 0, 0); fill-opacity: 1; stroke: none; stroke-width: 1px; stroke-linecap: butt; stroke-linejoin: miter; stroke-opacity: 1; font-family: DejaVu Sans;"
     x="15.261"
     y="175.904"
     id="text2416"><tspan
       sodipodi:role="line"
       id="tspan2418"
       x="15.261"
       y="175.904" /></text>
  <g
     id="g2700"
     transform="translate(-12.724376,0)">
    <g
       transform="scale(0.96689094,1.0342428)"
       style="font-size:54.1458931px;font-style:normal;font-variant:normal;font-weight:bold;font-stretch:normal;fill:#0b2645;fill-opacity:1;stroke:none;font-family:DejaVu Sans"
       id="text2420">
      <path
         d="m 28.360229,307.94062 9.500836,0 9.721786,27.05406 9.697236,-27.05406 9.500837,0 -13.576131,36.6531 -11.268434,0 z"
         style="font-size:50.27832794px"
         id="path2832" />
      <path
         d="m 71.617268,307.94062 9.451737,0 0,36.6531 -9.451737,0 z"
         style="font-size:50.27832794px"
         id="path2834" />
      <path
         d="m 108.12307,345.25657 -0.7365,0 c -6.03931,0 -10.736533,-1.6694 -14.091684,-5.00819 -3.355166,-3.33879 -5.032745,-7.98691 -5.032742,-13.94438 -3e-6,-5.94107 1.673485,-10.59738 5.020467,-13.96893 3.346968,-3.3715 7.958269,-5.05726 13.833909,-5.0573 5.94106,4e-5 10.56872,1.66944 13.883,5.0082 3.31421,3.33882 4.97133,8.01149 4.97137,14.01803 -4e-5,4.1244 -0.87975,7.67596 -2.63912,10.65468 -1.75945,2.97873 -4.29219,5.22096 -7.59822,6.72669 l 7.38954,8.24879 -9.00983,0 z m -1.00655,-31.12936 c -2.88055,3e-5 -5.1146,1.06386 -6.70214,3.1915 -1.587581,2.12769 -2.381363,5.12278 -2.38135,8.98529 -1.3e-5,3.928 0.777402,6.93537 2.33225,9.02211 1.55481,2.08675 3.80522,3.13012 6.75124,3.13012 2.89687,0 5.1391,-1.06383 6.72669,-3.1915 1.58753,-2.12765 2.38131,-5.11456 2.38134,-8.96073 -3e-5,-3.86251 -0.79381,-6.8576 -2.38134,-8.98529 -1.58759,-2.12764 -3.82982,-3.19147 -6.72669,-3.1915 z"
         style="font-size:50.27832794px"
         id="path2836" />
      <path
         d="m 133.09038,307.94062 9.45174,0 0,21.97222 c -2e-5,3.02784 0.49508,5.19233 1.48527,6.49347 0.99017,1.30115 2.60637,1.95172 4.84862,1.95172 2.25857,0 3.88296,-0.65057 4.87317,-1.95172 0.99015,-1.30114 1.48524,-3.46563 1.48527,-6.49347 l 0,-21.97222 9.45174,0 0,21.97222 c -4e-5,5.18824 -1.30119,9.05076 -3.90345,11.58758 -2.60232,2.53683 -6.57123,3.80525 -11.90673,3.80525 -5.31917,0 -9.2799,-1.26842 -11.88218,-3.80525 -2.60231,-2.53682 -3.90345,-6.39934 -3.90345,-11.58758 z"
         style="font-size:50.27832794px"
         id="path2838" />
      <path
         d="m 173.94152,307.94062 9.45173,0 0,36.6531 -9.45173,0 z"
         style="font-size:50.27832794px"
         id="path2840" />
    </g>
    <g
       transform="scale(0.96981632,1.0311231)"
       style="font-size:54.30971527px;font-style:normal;font-variant:normal;font-weight:bold;font-stretch:normal;fill:#0a4e98;fill-opacity:1;stroke:none;font-family:DejaVu Sans"
       id="text2410">
      <path
         d="m 192.95912,309.09825 9.48033,0 0,29.59834 16.64599,0 0,7.16565 -26.12632,0 z"
         style="font-size:50.43045044px"
         id="path2843" />
      <path
         d="m 225.06913,309.09825 9.48033,0 0,29.59834 16.64599,0 0,7.16565 -26.12632,0 z"
         style="font-size:50.43045044px"
         id="path2845" />
      <path
         d="m 257.17914,309.09825 9.48033,0 0,36.76399 -9.48033,0 z"
         style="font-size:50.43045044px"
         id="path2847" />
      <path
         d="m 290.71736,323.33106 c 1.49385,2e-5 2.62656,-0.3283 3.39814,-0.98497 0.77154,-0.65662 1.15732,-1.62517 1.15734,-2.90566 -2e-5,-1.26402 -0.3858,-2.22846 -1.15734,-2.89335 -0.77158,-0.66482 -1.90429,-0.99725 -3.39814,-0.99728 l -5.24497,0 0,7.78126 z m 0.32011,16.07963 c 1.90426,1e-5 3.33656,-0.40219 4.29693,-1.20659 0.96032,-0.80438 1.4405,-2.01917 1.44052,-3.64438 -2e-5,-1.59236 -0.47609,-2.78663 -1.42821,-3.58283 -0.95216,-0.79617 -2.38857,-1.19426 -4.30924,-1.19428 l -5.56508,0 0,9.62808 z m 8.81548,-13.22322 c 2.03557,0.591 3.61152,1.68268 4.72786,3.27503 1.11626,1.59238 1.67441,3.5459 1.67444,5.86057 -3e-5,3.5459 -1.19841,6.1889 -3.59514,7.929 -2.39678,1.74012 -6.04117,2.61017 -10.93316,2.61017 l -15.73489,0 0,-36.76399 14.23281,0 c 5.1054,4e-5 8.80314,0.77159 11.09322,2.31468 2.29003,1.54315 3.43505,4.01378 3.43509,7.41189 -4e-5,1.78939 -0.41865,3.31199 -1.25584,4.5678 -0.83726,1.25586 -2.05205,2.18748 -3.64439,2.79485 z"
         style="font-size:50.43045044px"
         id="path2849" />
      <path
         d="m 327.87534,325.3995 c 1.98633,2e-5 3.41043,-0.36935 4.2723,-1.10809 0.86183,-0.73871 1.29275,-1.9535 1.29278,-3.64439 -3e-5,-1.67442 -0.43095,-2.8728 -1.29278,-3.59514 -0.86187,-0.72228 -2.28597,-1.08344 -4.2723,-1.08347 l -3.98913,0 0,9.43109 z m -3.98913,6.55005 0,13.91269 -9.48033,0 0,-36.76399 14.47905,0 c 4.84275,4e-5 8.39274,0.81263 10.64999,2.4378 2.25719,1.62523 3.3858,4.19436 3.38583,7.70739 -3e-5,2.42961 -0.58691,4.42417 -1.76063,5.98369 -1.17379,1.55955 -2.94263,2.70868 -5.30653,3.44739 1.29685,0.29551 2.4583,0.96447 3.48433,2.00688 1.02598,1.04244 2.0643,2.62249 3.11497,4.74016 l 5.14647,10.44068 -10.09594,0 -4.48161,-9.13559 c -0.90292,-1.8386 -1.81812,-3.09443 -2.74561,-3.76751 -0.92753,-0.67305 -2.16285,-1.00958 -3.70595,-1.00959 z"
         style="font-size:50.43045044px"
         id="path2851" />
      <path
         d="m 353.21369,309.09825 25.58459,0 0,7.16565 -16.10425,0 0,6.84554 15.14391,0 0,7.16566 -15.14391,0 0,8.42149 16.64599,0 0,7.16565 -26.12633,0 z"
         style="font-size:50.43045044px"
         id="path2853" />
      <path
         d="m 413.27222,310.25559 0,7.78126 c -2.01922,-0.90286 -3.98915,-1.58413 -5.90982,-2.04381 -1.92071,-0.45963 -3.7347,-0.68945 -5.44196,-0.68948 -2.26544,3e-5 -3.93989,0.31193 -5.02334,0.93572 -1.08348,0.62384 -1.62521,1.59239 -1.6252,2.90566 -1e-5,0.985 0.36525,1.75245 1.09578,2.30237 0.7305,0.54996 2.05611,1.02193 3.97681,1.41589 l 4.03838,0.8126 c 4.0876,0.82083 6.99325,2.06846 8.71698,3.74289 1.72367,1.67446 2.58551,4.0548 2.58555,7.14103 -4e-5,4.0548 -1.20252,7.07126 -3.60746,9.04941 -2.40499,1.97814 -6.0781,2.96722 -11.01934,2.96722 -2.33112,0 -4.67042,-0.22162 -7.01791,-0.66486 -2.34752,-0.44323 -4.69503,-1.09988 -7.04254,-1.96994 l 0,-8.00288 c 2.34751,1.24764 4.61704,2.18746 6.80861,2.81948 2.19154,0.63203 4.30512,0.94804 6.34074,0.94803 2.06842,10e-6 3.65257,-0.34473 4.75248,-1.03422 1.09986,-0.68947 1.6498,-1.67444 1.64982,-2.9549 -2e-5,-1.14912 -0.37349,-2.0356 -1.1204,-2.65942 -0.74696,-0.6238 -2.23672,-1.18195 -4.4693,-1.67445 l -3.66901,-0.8126 c -3.67723,-0.78796 -6.36538,-2.0438 -8.06444,-3.76751 -1.69908,-1.72368 -2.54862,-4.04656 -2.54861,-6.96866 -1e-5,-3.66078 1.18196,-6.47615 3.54589,-8.44612 2.36392,-1.9699 5.76206,-2.95487 10.19443,-2.95491 2.01917,4e-5 4.09582,0.15189 6.22994,0.45555 2.13407,0.30374 4.34205,0.75929 6.62392,1.36665 z"
         style="font-size:50.43045044px"
         id="path2855" />
    </g>
  </g>
  <g
     transform="scale(0.99292259,1.0071279)"
     style="font-size:30.43612862px;font-style:italic;font-variant:normal;font-weight:normal;font-stretch:normal;text-align:center;line-height:150%;writing-mode:lr-tb;text-anchor:middle;fill:#000000;fill-opacity:1;stroke:none;font-family:Charis SIL;-inkscape-font-specification:Charis SIL Italic"
     id="text2406">
    <path
       d="m 19.102575,388.39624 -14.0588754,0 0,-1.27808 1.7685056,-0.14861 c 0.4260248,-0.0297 0.6687606,-0.22292 0.7282081,-0.5796 L 10.70589,370.0127 c 0.02972,-0.16841 0.0049,-0.30712 -0.07431,-0.41612 -0.07927,-0.10896 -0.247695,-0.17336 -0.505288,-0.1932 l -1.6941982,-0.14861 0,-1.27808 7.9062602,0 0,1.27808 -1.798229,0.14861 c -0.227883,0.0198 -0.403743,0.0892 -0.527579,0.20806 -0.123853,0.11891 -0.200637,0.25266 -0.230352,0.40126 l -3.224921,16.86768 5.98914,0 c 0.198141,0 0.359139,-0.057 0.482995,-0.17091 0.123834,-0.11393 0.220433,-0.26007 0.289798,-0.43841 l 1.084881,-3.50729 1.798228,0 z"
       style=""
       id="path2858" />
    <path
       d="m 29.267767,387.60859 c -0.118899,0.0495 -0.34182,0.13623 -0.668762,0.26007 -0.326958,0.12385 -0.693539,0.25264 -1.099743,0.3864 -0.406218,0.13375 -0.829767,0.25264 -1.270649,0.35667 -0.440893,0.10403 -0.839673,0.15604 -1.196342,0.15605 -0.465661,-1e-5 -0.861964,-0.0545 -1.188912,-0.16348 -0.326952,-0.10898 -0.594457,-0.26255 -0.802515,-0.4607 -0.208061,-0.19815 -0.359151,-0.43346 -0.453272,-0.70592 -0.09412,-0.27246 -0.141185,-0.57216 -0.141183,-0.89911 -2e-6,-0.30714 0.02972,-0.66381 0.08917,-1.07002 l 3.343813,-17.40269 -2.704773,-0.26751 0,-0.9214 4.755645,-0.90655 1.17405,0 -3.700487,19.40898 c -0.03963,0.20806 -0.02973,0.41364 0.02972,0.61675 0.05944,0.2031 0.153564,0.38144 0.282367,0.53501 0.128794,0.15357 0.287315,0.27989 0.475564,0.37896 0.188239,0.0991 0.391345,0.14862 0.609317,0.14862 0.148608,0 0.344283,-0.0272 0.587025,-0.0817 0.24273,-0.0545 0.487943,-0.11642 0.735639,-0.18577 0.247683,-0.0693 0.478034,-0.1387 0.691055,-0.20806 0.213005,-0.0693 0.364096,-0.11393 0.453272,-0.13375 z"
       style=""
       id="path2860" />
    <path
       d="m 37.352364,387.51942 c -0.118899,0.0495 -0.336866,0.14366 -0.653901,0.28236 -0.317051,0.13871 -0.688585,0.27989 -1.114605,0.42355 -0.426032,0.14366 -0.87435,0.26999 -1.344956,0.37897 -0.470615,0.10898 -0.913979,0.16347 -1.330094,0.16348 -0.525106,-1e-5 -0.941224,-0.0892 -1.248357,-0.26751 -0.307137,-0.17834 -0.535012,-0.41116 -0.683624,-0.69849 -0.148615,-0.28731 -0.23283,-0.60931 -0.252644,-0.96599 -0.01982,-0.35667 0.005,-0.70839 0.07431,-1.05515 l 1.946843,-10.31381 -2.615605,-0.28237 0,-0.87682 4.59217,-0.95113 1.248356,0 -2.303515,12.17148 c -0.03963,0.20806 -0.03716,0.40622 0.0074,0.59446 0.04458,0.18824 0.118887,0.3542 0.222921,0.49785 0.104025,0.14367 0.237778,0.2576 0.401258,0.34182 0.16347,0.0842 0.349237,0.12632 0.557302,0.12632 0.178331,0 0.388867,-0.0322 0.631609,-0.0966 0.24273,-0.0644 0.485466,-0.13871 0.728208,-0.22292 0.242729,-0.0842 0.468127,-0.16595 0.676194,-0.24522 0.208051,-0.0793 0.361619,-0.13375 0.460703,-0.16347 z m -0.133753,-18.63619 c -8e-6,0.2279 -0.04212,0.44339 -0.126322,0.64647 -0.08422,0.20313 -0.203113,0.38394 -0.356673,0.54245 -0.153575,0.15853 -0.344296,0.28486 -0.572164,0.37896 -0.227881,0.0941 -0.490432,0.1412 -0.787653,0.14118 -0.624184,2e-5 -1.094794,-0.16593 -1.411832,-0.49785 -0.317048,-0.33189 -0.475569,-0.73562 -0.475565,-1.21121 -4e-6,-0.19813 0.0421,-0.39628 0.126322,-0.59445 0.08421,-0.19813 0.208055,-0.37895 0.371535,-0.54244 0.16347,-0.16346 0.364099,-0.29721 0.601886,-0.40126 0.237777,-0.10401 0.510235,-0.15602 0.817377,-0.15604 0.287313,2e-5 0.542434,0.0496 0.765361,0.14861 0.222914,0.0991 0.413635,0.22789 0.572164,0.3864 0.158514,0.15854 0.277405,0.33935 0.356673,0.54244 0.07925,0.20312 0.118883,0.4087 0.118891,0.61674 z"
       style=""
       id="path2862" />
    <path
       d="m 48.468683,379.07815 c -1.1e-5,-0.68362 -0.07927,-1.26073 -0.237782,-1.73135 -0.158532,-0.4706 -0.35173,-0.85452 -0.579595,-1.15176 -0.227884,-0.29722 -0.468143,-0.51023 -0.720777,-0.63904 -0.252653,-0.12879 -0.468143,-0.19319 -0.64647,-0.1932 -0.247699,1e-5 -0.520157,0.0396 -0.817377,0.11889 -0.297235,0.0793 -0.601894,0.19074 -0.913976,0.33438 -0.312095,0.14368 -0.621707,0.30963 -0.928836,0.49786 -0.307142,0.18826 -0.589508,0.39136 -0.8471,0.60932 l -1.694198,9.21406 c 0.09907,0.14861 0.232824,0.29227 0.401257,0.43098 0.168425,0.13871 0.361623,0.26503 0.579594,0.37896 0.217963,0.11394 0.455745,0.20559 0.713347,0.27494 0.257592,0.0693 0.525097,0.10403 0.802515,0.10403 0.465651,0 0.909015,-0.11889 1.330095,-0.35667 0.421065,-0.23778 0.812414,-0.55978 1.17405,-0.96599 0.361618,-0.40621 0.691045,-0.88178 0.988282,-1.4267 0.297218,-0.54491 0.547385,-1.12203 0.7505,-1.73135 0.203096,-0.60931 0.361617,-1.23844 0.475565,-1.8874 0.113926,-0.64894 0.170895,-1.27559 0.170906,-1.87996 z m 3.016862,-0.11889 c -1.4e-5,0.63409 -0.06937,1.31524 -0.208059,2.04344 -0.13872,0.72821 -0.35421,1.45394 -0.646471,2.17719 -0.292287,0.72326 -0.666298,1.42175 -1.122035,2.09546 -0.455761,0.67372 -1.000678,1.26817 -1.634753,1.78337 -0.634095,0.51519 -1.362303,0.92883 -2.184624,1.24092 -0.822338,0.31209 -1.748697,0.46813 -2.77908,0.46814 -0.861965,-1e-5 -1.711541,-0.1189 -2.548729,-0.35668 -0.837193,-0.23778 -1.612462,-0.5895 -2.325807,-1.05516 l 3.596456,-19.29008 -2.719634,-0.26751 0,-0.9214 4.755645,-0.90655 1.188911,0 -1.738783,9.21406 c 0.277407,-0.24767 0.582065,-0.48298 0.913976,-0.70591 0.331897,-0.22291 0.676186,-0.41611 1.032866,-0.5796 0.356666,-0.16346 0.723247,-0.29473 1.099743,-0.39382 0.37648,-0.0991 0.748014,-0.1486 1.114605,-0.14862 0.782689,2e-5 1.441543,0.1734 1.976565,0.52015 0.534997,0.34678 0.968454,0.79262 1.300371,1.33753 0.331891,0.54493 0.569673,1.14681 0.713347,1.80566 0.143646,0.65886 0.215476,1.30533 0.21549,1.93941 z"
       style=""
       id="path2864" />
    <path
       d="m 64.979687,375.40738 c -1.3e-5,0.35669 -0.06441,0.64153 -0.193198,0.85453 -0.128811,0.21303 -0.312101,0.37403 -0.549872,0.483 -0.237793,0.10899 -0.522636,0.18082 -0.85453,0.21549 -0.331915,0.0347 -0.705926,0.052 -1.122035,0.052 L 61.531844,375.556 c -0.376497,0.15853 -0.780231,0.43347 -1.211203,0.82481 -0.430988,0.39136 -0.839676,0.8372 -1.226065,1.33752 -0.386402,0.50034 -0.72326,1.01554 -1.010574,1.54559 -0.287326,0.53006 -0.47557,1.01801 -0.564733,1.46384 l -1.590169,7.66848 -2.823664,0 2.615604,-12.92941 -2.556159,-0.28237 0,-0.87682 4.59217,-0.95113 1.218634,0 -0.63904,3.07631 c 0.624172,-0.96102 1.332564,-1.714 2.125179,-2.25893 0.792599,-0.5449 1.649605,-0.81736 2.571021,-0.81738 0.36657,2e-5 0.673705,0.0669 0.921406,0.20063 0.247678,0.13377 0.448307,0.30467 0.601886,0.51272 0.153556,0.20807 0.262539,0.43099 0.326951,0.66876 0.06439,0.2378 0.09659,0.46072 0.0966,0.66876 z"
       style=""
       id="path2866" />
    <path
       d="m 73.926247,376.4031 c -1e-5,-0.19814 -0.03964,-0.39382 -0.118891,-0.58703 -0.07927,-0.19318 -0.188254,-0.36409 -0.32695,-0.51272 -0.138716,-0.1486 -0.312099,-0.26996 -0.520149,-0.3641 -0.208068,-0.0941 -0.435943,-0.14117 -0.683624,-0.14118 -0.336866,1e-5 -0.658863,0.0892 -0.96599,0.2675 -0.307143,0.17835 -0.601894,0.41613 -0.884253,0.71335 -0.282373,0.29724 -0.544924,0.63905 -0.787654,1.02544 -0.242741,0.3864 -0.460708,0.79261 -0.653901,1.21863 -0.193203,0.42604 -0.364109,0.85702 -0.512718,1.29294 -0.148618,0.43594 -0.267509,0.84711 -0.356673,1.2335 0.643988,-0.0594 1.310273,-0.20806 1.998857,-0.44585 0.688571,-0.23777 1.315225,-0.54243 1.879966,-0.91397 0.564724,-0.37153 1.027903,-0.79508 1.38954,-1.27065 0.361617,-0.47555 0.54243,-0.98084 0.54244,-1.51586 z m 2.704774,0.0297 c -1.3e-5,0.55484 -0.128812,1.06508 -0.386397,1.53072 -0.257609,0.46567 -0.606851,0.88674 -1.047728,1.26322 -0.440898,0.3765 -0.951139,0.71088 -1.530723,1.00315 -0.579603,0.29228 -1.18892,0.53997 -1.827951,0.74307 -0.639047,0.20311 -1.290471,0.36658 -1.954273,0.49042 -0.663814,0.12385 -1.297899,0.20064 -1.902258,0.23035 -0.02973,0.19816 -0.05697,0.43594 -0.08174,0.71335 -0.02477,0.27742 -0.03716,0.51025 -0.03715,0.69849 -4e-6,0.55483 0.06687,1.06507 0.200629,1.53072 0.133748,0.46566 0.326946,0.86939 0.579594,1.2112 0.252639,0.34182 0.557297,0.60932 0.913975,0.80252 0.356668,0.1932 0.757925,0.2898 1.203773,0.28979 0.683617,10e-6 1.436593,-0.24768 2.258932,-0.74307 0.82232,-0.49537 1.793263,-1.23349 2.912832,-2.21434 l 0,1.91712 c -0.287332,0.27741 -0.639051,0.58207 -1.055159,0.91397 -0.416129,0.33191 -0.889216,0.644 -1.419262,0.93627 -0.530066,0.29227 -1.107182,0.53501 -1.731352,0.72821 -0.624186,0.1932 -1.28304,0.28979 -1.976565,0.2898 -0.307141,-1e-5 -0.641522,-0.0297 -1.003144,-0.0892 -0.361632,-0.0594 -0.720782,-0.16596 -1.077451,-0.31952 -0.356677,-0.15357 -0.700966,-0.36411 -1.032867,-0.63161 -0.331907,-0.26751 -0.62418,-0.60684 -0.876822,-1.01801 -0.252645,-0.41116 -0.455751,-0.90159 -0.609317,-1.47128 -0.153569,-0.56968 -0.230353,-1.24092 -0.230352,-2.01371 -10e-7,-0.80251 0.0966,-1.60255 0.289798,-2.40012 0.193196,-0.79755 0.465655,-1.56044 0.817376,-2.28865 0.351717,-0.7282 0.775266,-1.40687 1.270649,-2.03601 0.495376,-0.62912 1.040293,-1.17404 1.634753,-1.63476 0.59445,-0.46069 1.231012,-0.82231 1.909689,-1.08488 0.678662,-0.26253 1.379624,-0.39381 2.102887,-0.39382 0.703429,1e-5 1.290453,0.11642 1.761074,0.34924 0.4706,0.23284 0.849565,0.51273 1.136897,0.83967 0.287308,0.32696 0.490413,0.66382 0.609317,1.01057 0.118878,0.34678 0.178324,0.62915 0.178337,0.8471 z"
       style=""
       id="path2868" />
    <path
       d="m 87.82165,375.27363 c -1.1e-5,0.35669 -0.07927,0.64153 -0.237782,0.85453 -0.158532,0.21303 -0.35173,0.37898 -0.579594,0.49786 -0.227885,0.1189 -0.468144,0.20064 -0.720778,0.24521 -0.252652,0.0446 -0.473096,0.0718 -0.661332,0.0817 l -1.367248,-1.85767 c -0.05945,-0.0495 -0.153574,-0.10154 -0.282366,-0.15605 -0.128806,-0.0545 -0.287327,-0.0817 -0.475565,-0.0817 -0.336864,2e-5 -0.61923,0.0718 -0.847099,0.21549 -0.22788,0.14368 -0.413647,0.32201 -0.557302,0.53501 -0.143665,0.21303 -0.245218,0.4409 -0.304659,0.68363 -0.05945,0.24275 -0.08917,0.46319 -0.08917,0.66133 -4e-6,0.27742 0.07926,0.55731 0.237782,0.83967 0.158517,0.28237 0.366576,0.56474 0.624179,0.8471 0.257592,0.28237 0.547388,0.55979 0.869391,0.83223 0.32199,0.27247 0.646464,0.5375 0.973421,0.79509 0.336851,0.26751 0.661324,0.54245 0.973421,0.82481 0.312081,0.28237 0.59197,0.57464 0.839669,0.87682 0.24768,0.30219 0.445832,0.62171 0.594456,0.95856 0.148604,0.33686 0.222911,0.68858 0.22292,1.05516 -9e-6,0.62418 -0.126331,1.22359 -0.378965,1.79823 -0.252653,0.57464 -0.624187,1.08488 -1.114604,1.53072 -0.490434,0.44584 -1.099751,0.80004 -1.827951,1.06259 -0.728214,0.26255 -1.562928,0.39382 -2.504145,0.39383 -0.733165,-1e-5 -1.36725,-0.0817 -1.902258,-0.24522 -0.535012,-0.16347 -0.975899,-0.37649 -1.322664,-0.63904 -0.346766,-0.26255 -0.604363,-0.56225 -0.772792,-0.89911 -0.168429,-0.33686 -0.252643,-0.67867 -0.252644,-1.02544 10e-7,-0.48547 0.146137,-0.87929 0.438411,-1.18148 0.292274,-0.30218 0.7505,-0.45327 1.374679,-0.45327 0.188243,0 0.366579,0.0248 0.53501,0.0743 0.168427,0.0495 0.321994,0.10651 0.460703,0.1709 0.138704,0.0644 0.260072,0.13376 0.364104,0.20806 0.104027,0.0743 0.180811,0.13623 0.230352,0.18577 l -0.579594,1.48614 c 0.217964,0.30714 0.487946,0.56721 0.809945,0.78022 0.321994,0.21302 0.740589,0.31952 1.255788,0.31952 0.30713,0 0.604358,-0.0594 0.891683,-0.17834 0.287315,-0.11889 0.542435,-0.28731 0.765362,-0.50528 0.222914,-0.21797 0.398774,-0.483 0.527579,-0.79509 0.128792,-0.31208 0.193191,-0.66133 0.193199,-1.04773 -8e-6,-0.30713 -0.06193,-0.59692 -0.185768,-0.86939 -0.123852,-0.27245 -0.297234,-0.53748 -0.520149,-0.79508 -0.222927,-0.25759 -0.485478,-0.51271 -0.787653,-0.76536 -0.302187,-0.25264 -0.636568,-0.51767 -1.003144,-0.79509 -0.317047,-0.24768 -0.621706,-0.51519 -0.913976,-0.80251 -0.292277,-0.28731 -0.554828,-0.59197 -0.787653,-0.91398 -0.232831,-0.32199 -0.418599,-0.66132 -0.557303,-1.018 -0.138708,-0.35667 -0.208061,-0.72325 -0.208059,-1.09975 -2e-6,-0.74305 0.168427,-1.40191 0.505287,-1.97656 0.336856,-0.57463 0.770312,-1.05762 1.300372,-1.44899 0.530052,-0.39133 1.119553,-0.68608 1.768505,-0.88425 0.648942,-0.19814 1.285504,-0.29721 1.909689,-0.29723 0.574633,2e-5 1.057627,0.0669 1.448986,0.20063 0.39134,0.13377 0.708383,0.29724 0.951129,0.49043 0.242726,0.19321 0.416108,0.40127 0.520149,0.62418 0.104019,0.22293 0.156033,0.42356 0.156044,0.60188 z"
       style=""
       id="path2870" />
    <path
       d="m 105.35809,387.60859 c -0.1189,0.0495 -0.34182,0.13623 -0.66876,0.26007 -0.32696,0.12385 -0.69354,0.25264 -1.09974,0.3864 -0.40622,0.13375 -0.82977,0.25264 -1.27065,0.35667 -0.4409,0.10403 -0.83968,0.15604 -1.19634,0.15605 -0.46567,-1e-5 -0.86197,-0.0545 -1.188916,-0.16348 -0.326953,-0.10898 -0.594458,-0.26255 -0.802515,-0.4607 -0.208061,-0.19815 -0.359152,-0.43346 -0.453273,-0.70592 -0.09412,-0.27246 -0.141184,-0.57216 -0.141183,-0.89911 -1e-6,-0.30714 0.02972,-0.66381 0.08917,-1.07002 l 3.343809,-17.40269 -2.704769,-0.26751 0,-0.9214 4.755649,-0.90655 1.17405,0 -3.70049,19.40898 c -0.0396,0.20806 -0.0297,0.41364 0.0297,0.61675 0.0594,0.2031 0.15357,0.38144 0.28237,0.53501 0.12879,0.15357 0.28731,0.27989 0.47556,0.37896 0.18824,0.0991 0.39135,0.14862 0.60932,0.14862 0.14861,0 0.34428,-0.0272 0.58703,-0.0817 0.24273,-0.0545 0.48794,-0.11642 0.73563,-0.18577 0.24769,-0.0693 0.47804,-0.1387 0.69106,-0.20806 0.213,-0.0693 0.3641,-0.11393 0.45327,-0.13375 z"
       style=""
       id="path2872" />
    <path
       d="m 113.44269,387.60859 c -0.1189,0.0495 -0.34182,0.13623 -0.66877,0.26007 -0.32695,0.12385 -0.69353,0.25264 -1.09974,0.3864 -0.40622,0.13375 -0.82977,0.25264 -1.27065,0.35667 -0.44089,0.10403 -0.83967,0.15604 -1.19634,0.15605 -0.46566,-1e-5 -0.86196,-0.0545 -1.18891,-0.16348 -0.32695,-0.10898 -0.59446,-0.26255 -0.80252,-0.4607 -0.20806,-0.19815 -0.35915,-0.43346 -0.45327,-0.70592 -0.0941,-0.27246 -0.14118,-0.57216 -0.14118,-0.89911 0,-0.30714 0.0297,-0.66381 0.0892,-1.07002 l 3.34381,-17.40269 -2.70477,-0.26751 0,-0.9214 4.75564,-0.90655 1.17405,0 -3.70049,19.40898 c -0.0396,0.20806 -0.0297,0.41364 0.0297,0.61675 0.0594,0.2031 0.15356,0.38144 0.28236,0.53501 0.1288,0.15357 0.28732,0.27989 0.47557,0.37896 0.18824,0.0991 0.39134,0.14862 0.60932,0.14862 0.1486,0 0.34428,-0.0272 0.58702,-0.0817 0.24273,-0.0545 0.48794,-0.11642 0.73564,-0.18577 0.24768,-0.0693 0.47803,-0.1387 0.69105,-0.20806 0.21301,-0.0693 0.3641,-0.11393 0.45328,-0.13375 z"
       style=""
       id="path2874" />
    <path
       d="m 121.52728,387.51942 c -0.1189,0.0495 -0.33686,0.14366 -0.6539,0.28236 -0.31705,0.13871 -0.68858,0.27989 -1.1146,0.42355 -0.42604,0.14366 -0.87436,0.26999 -1.34496,0.37897 -0.47062,0.10898 -0.91398,0.16347 -1.33009,0.16348 -0.52511,-1e-5 -0.94123,-0.0892 -1.24836,-0.26751 -0.30714,-0.17834 -0.53501,-0.41116 -0.68363,-0.69849 -0.14861,-0.28731 -0.23283,-0.60931 -0.25264,-0.96599 -0.0198,-0.35667 0.005,-0.70839 0.0743,-1.05515 l 1.94684,-10.31381 -2.61561,-0.28237 0,-0.87682 4.59217,-0.95113 1.24836,0 -2.30351,12.17148 c -0.0396,0.20806 -0.0372,0.40622 0.007,0.59446 0.0446,0.18824 0.11888,0.3542 0.22292,0.49785 0.10402,0.14367 0.23778,0.2576 0.40126,0.34182 0.16347,0.0842 0.34923,0.12632 0.5573,0.12632 0.17833,0 0.38886,-0.0322 0.63161,-0.0966 0.24273,-0.0644 0.48546,-0.13871 0.7282,-0.22292 0.24273,-0.0842 0.46813,-0.16595 0.6762,-0.24522 0.20805,-0.0793 0.36162,-0.13375 0.4607,-0.16347 z m -0.13375,-18.63619 c -1e-5,0.2279 -0.0421,0.44339 -0.12632,0.64647 -0.0842,0.20313 -0.20312,0.38394 -0.35668,0.54245 -0.15357,0.15853 -0.34429,0.28486 -0.57216,0.37896 -0.22788,0.0941 -0.49043,0.1412 -0.78765,0.14118 -0.62419,2e-5 -1.0948,-0.16593 -1.41184,-0.49785 -0.31704,-0.33189 -0.47556,-0.73562 -0.47556,-1.21121 0,-0.19813 0.0421,-0.39628 0.12632,-0.59445 0.0842,-0.19813 0.20806,-0.37895 0.37154,-0.54244 0.16347,-0.16346 0.36409,-0.29721 0.60188,-0.40126 0.23778,-0.10401 0.51024,-0.15602 0.81738,-0.15604 0.28731,2e-5 0.54243,0.0496 0.76536,0.14861 0.22291,0.0991 0.41364,0.22789 0.57216,0.3864 0.15852,0.15854 0.27741,0.33935 0.35668,0.54244 0.0793,0.20312 0.11888,0.4087 0.11889,0.61674 z"
       style=""
       id="path2876" />
    <path
       d="m 137.60731,387.66803 c -0.18826,0.10899 -0.44834,0.22788 -0.78023,0.35668 -0.33192,0.12879 -0.69107,0.24769 -1.07745,0.35667 -0.38641,0.10898 -0.78023,0.20063 -1.18148,0.27493 -0.40127,0.0743 -0.76537,0.11146 -1.09231,0.11147 -0.57465,-1e-5 -1.00068,-0.0966 -1.27808,-0.2898 -0.27742,-0.1932 -0.46814,-0.41612 -0.57216,-0.66876 -0.10404,-0.25265 -0.1511,-0.50777 -0.14119,-0.76537 0.01,-0.25759 0.0149,-0.44584 0.0149,-0.56473 -0.80253,0.76289 -1.6422,1.33505 -2.51901,1.71649 -0.87683,0.38144 -1.82548,0.57216 -2.84596,0.57217 -0.70344,-1e-5 -1.27808,-0.12385 -1.72392,-0.37154 -0.44584,-0.24769 -0.7827,-0.55978 -1.01057,-0.93627 -0.22788,-0.37648 -0.36659,-0.78765 -0.41612,-1.23349 -0.0495,-0.44584 -0.0347,-0.86691 0.0446,-1.26322 l 1.97657,-9.49643 -2.55616,-0.28237 0,-0.87682 4.59217,-0.95113 1.24835,0 -2.4224,11.60675 c -0.0594,0.2576 -0.0471,0.50281 0.0371,0.73564 0.0842,0.23283 0.20806,0.43593 0.37154,0.60931 0.16347,0.17339 0.34923,0.3121 0.5573,0.41612 0.20805,0.10404 0.41116,0.15605 0.60932,0.15605 0.36657,0 0.73563,-0.052 1.10717,-0.15605 0.37153,-0.10402 0.74058,-0.24521 1.10717,-0.42355 0.36658,-0.17833 0.71829,-0.38391 1.05516,-0.61674 0.33685,-0.23283 0.64894,-0.483 0.93627,-0.7505 l 2.30351,-11.20549 2.83853,0 -2.43727,11.71077 c -0.0694,0.31705 -0.0694,0.58208 0,0.79509 0.0693,0.21301 0.17585,0.38887 0.31952,0.52758 0.14365,0.13871 0.30712,0.23778 0.49043,0.29723 0.18327,0.0594 0.35913,0.0892 0.52758,0.0892 0.19813,0 0.46069,-0.0297 0.78765,-0.0892 0.32694,-0.0594 0.70342,-0.21302 1.12947,-0.46071 z"
       style=""
       id="path2878" />
    <path
       d="m 150.16519,375.40738 c -1e-5,0.35669 -0.0644,0.64153 -0.1932,0.85453 -0.12881,0.21303 -0.3121,0.37403 -0.54987,0.483 -0.2378,0.10899 -0.52264,0.18082 -0.85453,0.21549 -0.33192,0.0347 -0.70593,0.052 -1.12204,0.052 l -0.7282,-1.45641 c -0.3765,0.15853 -0.78024,0.43347 -1.21121,0.82481 -0.43099,0.39136 -0.83967,0.8372 -1.22606,1.33752 -0.38641,0.50034 -0.72326,1.01554 -1.01058,1.54559 -0.28732,0.53006 -0.47557,1.01801 -0.56473,1.46384 l -1.59017,7.66848 -2.82366,0 2.6156,-12.92941 -2.55616,-0.28237 0,-0.87682 4.59217,-0.95113 1.21864,0 -0.63904,3.07631 c 0.62417,-0.96102 1.33256,-1.714 2.12518,-2.25893 0.79259,-0.5449 1.6496,-0.81736 2.57102,-0.81738 0.36657,2e-5 0.6737,0.0669 0.9214,0.20063 0.24768,0.13377 0.44831,0.30467 0.60189,0.51272 0.15355,0.20807 0.26254,0.43099 0.32695,0.66876 0.0644,0.2378 0.0966,0.46072 0.0966,0.66876 z"
       style=""
       id="path2880" />
    <path
       d="m 159.11174,376.4031 c -1e-5,-0.19814 -0.0396,-0.39382 -0.11889,-0.58703 -0.0793,-0.19318 -0.18825,-0.36409 -0.32695,-0.51272 -0.13872,-0.1486 -0.3121,-0.26996 -0.52015,-0.3641 -0.20807,-0.0941 -0.43594,-0.14117 -0.68362,-0.14118 -0.33687,1e-5 -0.65887,0.0892 -0.96599,0.2675 -0.30715,0.17835 -0.6019,0.41613 -0.88426,0.71335 -0.28237,0.29724 -0.54492,0.63905 -0.78765,1.02544 -0.24274,0.3864 -0.46071,0.79261 -0.6539,1.21863 -0.1932,0.42604 -0.36411,0.85702 -0.51272,1.29294 -0.14862,0.43594 -0.26751,0.84711 -0.35667,1.2335 0.64399,-0.0594 1.31027,-0.20806 1.99885,-0.44585 0.68857,-0.23777 1.31523,-0.54243 1.87997,-0.91397 0.56472,-0.37153 1.0279,-0.79508 1.38954,-1.27065 0.36162,-0.47555 0.54243,-0.98084 0.54244,-1.51586 z m 2.70477,0.0297 c -1e-5,0.55484 -0.12881,1.06508 -0.38639,1.53072 -0.25761,0.46567 -0.60685,0.88674 -1.04773,1.26322 -0.4409,0.3765 -0.95114,0.71088 -1.53072,1.00315 -0.57961,0.29228 -1.18892,0.53997 -1.82795,0.74307 -0.63905,0.20311 -1.29048,0.36658 -1.95428,0.49042 -0.66381,0.12385 -1.2979,0.20064 -1.90226,0.23035 -0.0297,0.19816 -0.057,0.43594 -0.0817,0.71335 -0.0248,0.27742 -0.0372,0.51025 -0.0372,0.69849 0,0.55483 0.0669,1.06507 0.20063,1.53072 0.13375,0.46566 0.32695,0.86939 0.5796,1.2112 0.25264,0.34182 0.55729,0.60932 0.91397,0.80252 0.35667,0.1932 0.75793,0.2898 1.20377,0.28979 0.68362,10e-6 1.4366,-0.24768 2.25894,-0.74307 0.82232,-0.49537 1.79326,-1.23349 2.91283,-2.21434 l 0,1.91712 c -0.28733,0.27741 -0.63905,0.58207 -1.05516,0.91397 -0.41613,0.33191 -0.88922,0.644 -1.41926,0.93627 -0.53007,0.29227 -1.10718,0.53501 -1.73136,0.72821 -0.62418,0.1932 -1.28303,0.28979 -1.97656,0.2898 -0.30714,-1e-5 -0.64152,-0.0297 -1.00314,-0.0892 -0.36164,-0.0594 -0.72079,-0.16596 -1.07745,-0.31952 -0.35668,-0.15357 -0.70097,-0.36411 -1.03287,-0.63161 -0.33191,-0.26751 -0.62418,-0.60684 -0.87682,-1.01801 -0.25265,-0.41116 -0.45575,-0.90159 -0.60932,-1.47128 -0.15357,-0.56968 -0.23035,-1.24092 -0.23035,-2.01371 0,-0.80251 0.0966,-1.60255 0.2898,-2.40012 0.19319,-0.79755 0.46565,-1.56044 0.81737,-2.28865 0.35172,-0.7282 0.77527,-1.40687 1.27065,-2.03601 0.49538,-0.62912 1.04029,-1.17404 1.63475,-1.63476 0.59445,-0.46069 1.23102,-0.82231 1.90969,-1.08488 0.67866,-0.26253 1.37963,-0.39381 2.10289,-0.39382 0.70343,1e-5 1.29045,0.11642 1.76107,0.34924 0.4706,0.23284 0.84957,0.51273 1.1369,0.83967 0.28731,0.32696 0.49041,0.66382 0.60932,1.01057 0.11888,0.34678 0.17832,0.62915 0.17833,0.8471 z"
       style=""
       id="path2882" />
    <path
       d="m 173.00714,375.27363 c -1e-5,0.35669 -0.0793,0.64153 -0.23778,0.85453 -0.15853,0.21303 -0.35173,0.37898 -0.57959,0.49786 -0.22789,0.1189 -0.46815,0.20064 -0.72078,0.24521 -0.25265,0.0446 -0.4731,0.0718 -0.66133,0.0817 l -1.36725,-1.85767 c -0.0595,-0.0495 -0.15357,-0.10154 -0.28237,-0.15605 -0.1288,-0.0545 -0.28732,-0.0817 -0.47556,-0.0817 -0.33687,2e-5 -0.61923,0.0718 -0.8471,0.21549 -0.22788,0.14368 -0.41365,0.32201 -0.5573,0.53501 -0.14367,0.21303 -0.24522,0.4409 -0.30466,0.68363 -0.0594,0.24275 -0.0892,0.46319 -0.0892,0.66133 0,0.27742 0.0793,0.55731 0.23778,0.83967 0.15852,0.28237 0.36658,0.56474 0.62418,0.8471 0.25759,0.28237 0.54739,0.55979 0.86939,0.83223 0.32199,0.27247 0.64647,0.5375 0.97342,0.79509 0.33685,0.26751 0.66133,0.54245 0.97342,0.82481 0.31209,0.28237 0.59197,0.57464 0.83967,0.87682 0.24768,0.30219 0.44584,0.62171 0.59446,0.95856 0.1486,0.33686 0.22291,0.68858 0.22292,1.05516 -1e-5,0.62418 -0.12633,1.22359 -0.37897,1.79823 -0.25265,0.57464 -0.62418,1.08488 -1.1146,1.53072 -0.49043,0.44584 -1.09975,0.80004 -1.82795,1.06259 -0.72821,0.26255 -1.56293,0.39382 -2.50415,0.39383 -0.73316,-1e-5 -1.36725,-0.0817 -1.90225,-0.24522 -0.53502,-0.16347 -0.9759,-0.37649 -1.32267,-0.63904 -0.34676,-0.26255 -0.60436,-0.56225 -0.77279,-0.89911 -0.16843,-0.33686 -0.25264,-0.67867 -0.25264,-1.02544 0,-0.48547 0.14613,-0.87929 0.43841,-1.18148 0.29227,-0.30218 0.7505,-0.45327 1.37468,-0.45327 0.18824,0 0.36658,0.0248 0.53501,0.0743 0.16842,0.0495 0.32199,0.10651 0.4607,0.1709 0.1387,0.0644 0.26007,0.13376 0.3641,0.20806 0.10403,0.0743 0.18081,0.13623 0.23036,0.18577 l -0.5796,1.48614 c 0.21797,0.30714 0.48795,0.56721 0.80995,0.78022 0.32199,0.21302 0.74059,0.31952 1.25578,0.31952 0.30713,0 0.60436,-0.0594 0.89169,-0.17834 0.28731,-0.11889 0.54243,-0.28731 0.76536,-0.50528 0.22291,-0.21797 0.39877,-0.483 0.52758,-0.79509 0.12879,-0.31208 0.19319,-0.66133 0.1932,-1.04773 -10e-6,-0.30713 -0.0619,-0.59692 -0.18577,-0.86939 -0.12385,-0.27245 -0.29723,-0.53748 -0.52015,-0.79508 -0.22293,-0.25759 -0.48548,-0.51271 -0.78765,-0.76536 -0.30219,-0.25264 -0.63657,-0.51767 -1.00315,-0.79509 -0.31704,-0.24768 -0.6217,-0.51519 -0.91397,-0.80251 -0.29228,-0.28731 -0.55483,-0.59197 -0.78766,-0.91398 -0.23283,-0.32199 -0.41859,-0.66132 -0.5573,-1.018 -0.13871,-0.35667 -0.20806,-0.72325 -0.20806,-1.09975 0,-0.74305 0.16843,-1.40191 0.50529,-1.97656 0.33685,-0.57463 0.77031,-1.05762 1.30037,-1.44899 0.53005,-0.39133 1.11955,-0.68608 1.76851,-0.88425 0.64894,-0.19814 1.2855,-0.29721 1.90969,-0.29723 0.57463,2e-5 1.05762,0.0669 1.44898,0.20063 0.39134,0.13377 0.70838,0.29724 0.95113,0.49043 0.24273,0.19321 0.41611,0.40127 0.52015,0.62418 0.10402,0.22293 0.15603,0.42356 0.15604,0.60188 z"
       style=""
       id="path2884" />
    <path
       d="m 193.5753,379.10787 c -1e-5,-0.44583 -0.0471,-0.8991 -0.14118,-1.35982 -0.0941,-0.46069 -0.2378,-0.87928 -0.43098,-1.25578 -0.19321,-0.37648 -0.43842,-0.68362 -0.73564,-0.92141 -0.29724,-0.23777 -0.64896,-0.35666 -1.05516,-0.35667 -0.36659,1e-5 -0.73317,0.0817 -1.09974,0.24521 -0.36659,0.16349 -0.70097,0.34678 -1.00315,0.54987 -0.30218,0.20312 -0.56226,0.40127 -0.78022,0.59446 -0.21797,0.19321 -0.36659,0.31953 -0.44584,0.37896 l -1.81309,9.43699 c 0.0892,0.0495 0.21549,0.12632 0.37896,0.23035 0.16348,0.10403 0.3542,0.20558 0.57217,0.30466 0.21796,0.0991 0.45079,0.18576 0.69848,0.26007 0.24769,0.0743 0.50528,0.11146 0.7728,0.11146 0.55481,0 1.06505,-0.12384 1.53072,-0.37153 0.46565,-0.24769 0.88672,-0.58207 1.26322,-1.00315 0.37648,-0.42107 0.70838,-0.90902 0.99571,-1.46385 0.28731,-0.55482 0.52509,-1.13689 0.71335,-1.74621 0.18823,-0.60931 0.33189,-1.22606 0.43098,-1.85024 0.0991,-0.62417 0.1486,-1.21863 0.14861,-1.78337 z m 3.01686,-0.11889 c -1e-5,0.83225 -0.0991,1.6521 -0.29722,2.45956 -0.19817,0.80748 -0.48301,1.57284 -0.85453,2.29608 -0.37155,0.72326 -0.81987,1.39203 -1.34496,2.00629 -0.52511,0.61428 -1.10966,1.14433 -1.75364,1.59017 -0.64401,0.44584 -1.34249,0.79509 -2.09546,1.04773 -0.75298,0.25264 -1.54064,0.37896 -2.36296,0.37897 -0.45576,-1e-5 -0.86692,-0.0644 -1.2335,-0.1932 -0.36658,-0.1288 -0.67372,-0.24769 -0.9214,-0.35668 l -0.96599,4.8894 c -0.0396,0.16843 -0.0173,0.30465 0.0669,0.40869 0.0842,0.10402 0.26007,0.1709 0.52758,0.20063 l 1.91712,0.16347 0,1.14433 -7.66848,0 0,-1.14433 1.59017,-0.16347 c 0.42603,-0.0297 0.66877,-0.23284 0.72821,-0.60932 l 3.43298,-17.64047 -2.55616,-0.28237 0,-0.87682 4.60703,-0.95113 1.18892,0 -0.37154,1.8874 c 0.25759,-0.16842 0.55234,-0.36161 0.88425,-0.57959 0.3319,-0.21796 0.6861,-0.42354 1.06259,-0.61675 0.37648,-0.19319 0.77031,-0.35666 1.18148,-0.49043 0.41116,-0.13374 0.82975,-0.20061 1.25579,-0.20063 0.77278,2e-5 1.4143,0.16597 1.92455,0.49786 0.51023,0.33192 0.91644,0.76537 1.21863,1.30037 0.30217,0.53502 0.51766,1.13939 0.64648,1.81309 0.12878,0.67373 0.19318,1.34744 0.19319,2.02115 z"
       style=""
       id="path2886" />
    <path
       d="m 207.61932,376.4031 c -10e-6,-0.19814 -0.0396,-0.39382 -0.11889,-0.58703 -0.0793,-0.19318 -0.18825,-0.36409 -0.32695,-0.51272 -0.13871,-0.1486 -0.3121,-0.26996 -0.52015,-0.3641 -0.20806,-0.0941 -0.43594,-0.14117 -0.68362,-0.14118 -0.33687,1e-5 -0.65886,0.0892 -0.96599,0.2675 -0.30714,0.17835 -0.60189,0.41613 -0.88425,0.71335 -0.28238,0.29724 -0.54493,0.63905 -0.78766,1.02544 -0.24274,0.3864 -0.46071,0.79261 -0.6539,1.21863 -0.1932,0.42604 -0.36411,0.85702 -0.51272,1.29294 -0.14861,0.43594 -0.26751,0.84711 -0.35667,1.2335 0.64399,-0.0594 1.31027,-0.20806 1.99886,-0.44585 0.68857,-0.23777 1.31522,-0.54243 1.87996,-0.91397 0.56473,-0.37153 1.02791,-0.79508 1.38954,-1.27065 0.36162,-0.47555 0.54243,-0.98084 0.54244,-1.51586 z m 2.70478,0.0297 c -2e-5,0.55484 -0.12881,1.06508 -0.3864,1.53072 -0.25761,0.46567 -0.60685,0.88674 -1.04773,1.26322 -0.4409,0.3765 -0.95114,0.71088 -1.53072,1.00315 -0.5796,0.29228 -1.18892,0.53997 -1.82795,0.74307 -0.63905,0.20311 -1.29047,0.36658 -1.95427,0.49042 -0.66382,0.12385 -1.2979,0.20064 -1.90226,0.23035 -0.0297,0.19816 -0.057,0.43594 -0.0817,0.71335 -0.0248,0.27742 -0.0372,0.51025 -0.0371,0.69849 -1e-5,0.55483 0.0669,1.06507 0.20063,1.53072 0.13374,0.46566 0.32694,0.86939 0.57959,1.2112 0.25264,0.34182 0.5573,0.60932 0.91398,0.80252 0.35666,0.1932 0.75792,0.2898 1.20377,0.28979 0.68361,10e-6 1.43659,-0.24768 2.25893,-0.74307 0.82232,-0.49537 1.79326,-1.23349 2.91283,-2.21434 l 0,1.91712 c -0.28733,0.27741 -0.63905,0.58207 -1.05516,0.91397 -0.41613,0.33191 -0.88921,0.644 -1.41926,0.93627 -0.53006,0.29227 -1.10718,0.53501 -1.73135,0.72821 -0.62419,0.1932 -1.28304,0.28979 -1.97657,0.2898 -0.30714,-1e-5 -0.64152,-0.0297 -1.00314,-0.0892 -0.36163,-0.0594 -0.72078,-0.16596 -1.07745,-0.31952 -0.35668,-0.15357 -0.70097,-0.36411 -1.03287,-0.63161 -0.3319,-0.26751 -0.62418,-0.60684 -0.87682,-1.01801 -0.25265,-0.41116 -0.45575,-0.90159 -0.60932,-1.47128 -0.15357,-0.56968 -0.23035,-1.24092 -0.23035,-2.01371 0,-0.80251 0.0966,-1.60255 0.2898,-2.40012 0.1932,-0.79755 0.46565,-1.56044 0.81738,-2.28865 0.35171,-0.7282 0.77526,-1.40687 1.27064,-2.03601 0.49538,-0.62912 1.0403,-1.17404 1.63476,-1.63476 0.59445,-0.46069 1.23101,-0.82231 1.90969,-1.08488 0.67866,-0.26253 1.37962,-0.39381 2.10288,-0.39382 0.70343,1e-5 1.29046,0.11642 1.76108,0.34924 0.4706,0.23284 0.84956,0.51273 1.13689,0.83967 0.28731,0.32696 0.49042,0.66382 0.60932,1.01057 0.11888,0.34678 0.17832,0.62915 0.17834,0.8471 z"
       style=""
       id="path2888" />
    <path
       d="m 223.34268,375.40738 c -1e-5,0.35669 -0.0644,0.64153 -0.1932,0.85453 -0.12881,0.21303 -0.3121,0.37403 -0.54987,0.483 -0.23779,0.10899 -0.52264,0.18082 -0.85453,0.21549 -0.33192,0.0347 -0.70593,0.052 -1.12204,0.052 l -0.7282,-1.45641 c -0.3765,0.15853 -0.78024,0.43347 -1.21121,0.82481 -0.43099,0.39136 -0.83967,0.8372 -1.22606,1.33752 -0.3864,0.50034 -0.72326,1.01554 -1.01058,1.54559 -0.28732,0.53006 -0.47557,1.01801 -0.56473,1.46384 l -1.59017,7.66848 -2.82366,0 2.6156,-12.92941 -2.55616,-0.28237 0,-0.87682 4.59217,-0.95113 1.21864,0 -0.63904,3.07631 c 0.62417,-0.96102 1.33256,-1.714 2.12518,-2.25893 0.79259,-0.5449 1.6496,-0.81736 2.57102,-0.81738 0.36657,2e-5 0.6737,0.0669 0.9214,0.20063 0.24768,0.13377 0.44831,0.30467 0.60189,0.51272 0.15355,0.20807 0.26254,0.43099 0.32695,0.66876 0.0644,0.2378 0.0966,0.46072 0.0966,0.66876 z"
       style=""
       id="path2890" />
    <path
       d="m 247.16549,387.66803 c -0.18826,0.10899 -0.44834,0.22788 -0.78022,0.35668 -0.33192,0.12879 -0.69107,0.24769 -1.07746,0.35667 -0.38641,0.10898 -0.78023,0.20063 -1.18148,0.27493 -0.40127,0.0743 -0.76537,0.11146 -1.09231,0.11147 -0.57465,-1e-5 -1.00068,-0.0966 -1.27808,-0.2898 -0.27742,-0.1932 -0.46814,-0.41612 -0.57216,-0.66876 -0.10404,-0.25265 -0.1511,-0.50777 -0.14118,-0.76537 0.01,-0.25759 0.0148,-0.44584 0.0149,-0.56473 -0.80253,0.76289 -1.6422,1.33505 -2.51901,1.71649 -0.87683,0.38144 -1.82548,0.57216 -2.84596,0.57217 -0.70344,-1e-5 -1.27808,-0.12385 -1.72392,-0.37154 -0.44584,-0.24769 -0.7827,-0.55978 -1.01057,-0.93627 -0.22788,-0.37648 -0.36658,-0.78765 -0.41612,-1.23349 -0.0495,-0.44584 -0.0347,-0.86691 0.0446,-1.26322 l 1.97657,-9.49643 -2.55616,-0.28237 0,-0.87682 4.59217,-0.95113 1.24836,0 -2.42241,11.60675 c -0.0594,0.2576 -0.0471,0.50281 0.0371,0.73564 0.0842,0.23283 0.20806,0.43593 0.37154,0.60931 0.16347,0.17339 0.34924,0.3121 0.5573,0.41612 0.20805,0.10404 0.41116,0.15605 0.60932,0.15605 0.36657,0 0.73563,-0.052 1.10717,-0.15605 0.37153,-0.10402 0.74059,-0.24521 1.10717,-0.42355 0.36658,-0.17833 0.7183,-0.38391 1.05516,-0.61674 0.33685,-0.23283 0.64894,-0.483 0.93627,-0.7505 l 2.30352,-11.20549 2.83852,0 -2.43727,11.71077 c -0.0694,0.31705 -0.0694,0.58208 0,0.79509 0.0693,0.21301 0.17585,0.38887 0.31952,0.52758 0.14365,0.13871 0.30713,0.23778 0.49043,0.29723 0.18328,0.0594 0.35914,0.0892 0.52758,0.0892 0.19814,0 0.46069,-0.0297 0.78765,-0.0892 0.32694,-0.0594 0.70343,-0.21302 1.12947,-0.46071 z"
       style=""
       id="path2892" />
    <path
       d="m 263.30495,387.78692 c -0.12881,0.0495 -0.35421,0.12633 -0.67619,0.23035 -0.32202,0.10403 -0.68117,0.21302 -1.07745,0.32696 -0.39632,0.11393 -0.80253,0.21301 -1.21864,0.29722 -0.41613,0.0842 -0.78271,0.12632 -1.09974,0.12633 -0.17835,-1e-5 -0.42356,-0.0173 -0.73564,-0.052 -0.3121,-0.0347 -0.6118,-0.11394 -0.89911,-0.23778 -0.28733,-0.12385 -0.52016,-0.30466 -0.69849,-0.54244 -0.17835,-0.23778 -0.22293,-0.55978 -0.13375,-0.96599 l 1.85767,-9.34782 c 0.0693,-0.4062 0.0718,-0.74306 0.007,-1.01057 -0.0644,-0.2675 -0.16844,-0.48299 -0.31209,-0.64647 -0.14367,-0.16347 -0.30962,-0.2774 -0.49785,-0.34182 -0.18826,-0.0644 -0.36659,-0.0966 -0.53501,-0.0966 -0.2477,1e-5 -0.55236,0.0718 -0.91398,0.21549 -0.36164,0.14367 -0.74308,0.33439 -1.14433,0.57216 -0.40126,0.23779 -0.805,0.51768 -1.2112,0.83967 -0.40622,0.32201 -0.77775,0.66134 -1.1146,1.018 l -2.09546,10.22464 -2.83853,0 2.64533,-12.92941 -2.55616,-0.28237 0,-0.87682 4.59217,-0.95113 1.21864,0 -0.56474,2.83853 c 0.33686,-0.33685 0.72325,-0.67618 1.15919,-1.01801 0.43593,-0.3418 0.90159,-0.64645 1.39697,-0.91397 0.49537,-0.26749 1.00809,-0.48546 1.53816,-0.6539 0.53004,-0.16842 1.04771,-0.25263 1.55301,-0.25265 1.10964,2e-5 1.89977,0.30715 2.37039,0.92141 0.4706,0.61428 0.58701,1.60504 0.34925,2.97228 l -1.61989,8.58988 c -0.0496,0.28732 -0.0273,0.5152 0.0669,0.68362 0.0941,0.16844 0.21796,0.29723 0.37154,0.3864 0.15355,0.0892 0.31455,0.14614 0.48299,0.17091 0.16842,0.0248 0.29722,0.0371 0.3864,0.0371 0.2774,0 0.57958,-0.0396 0.90654,-0.11889 0.32694,-0.0793 0.6638,-0.17338 1.01058,-0.28237 z"
       style=""
       id="path2894" />
    <path
       d="m 295.82167,387.60859 c -0.25762,0.10898 -0.54742,0.23035 -0.86939,0.3641 -0.32202,0.13375 -0.65392,0.26008 -0.99571,0.37897 -0.34184,0.11889 -0.68117,0.21796 -1.01801,0.29722 -0.33688,0.0793 -0.65392,0.11889 -0.95113,0.1189 -0.41614,-1e-5 -0.79015,-0.0471 -1.12203,-0.14119 -0.33192,-0.0941 -0.60934,-0.23035 -0.83224,-0.40869 -0.22294,-0.17833 -0.38146,-0.40125 -0.47556,-0.66876 -0.0941,-0.2675 -0.10653,-0.57464 -0.0372,-0.92141 l 1.67934,-8.12918 c 0.0991,-0.50527 0.13373,-0.94616 0.10403,-1.32266 -0.0297,-0.37648 -0.10653,-0.68857 -0.23035,-0.93627 -0.12387,-0.24767 -0.27743,-0.43344 -0.46071,-0.5573 -0.1833,-0.12383 -0.37403,-0.18575 -0.57216,-0.18577 -0.46567,2e-5 -0.91895,0.10405 -1.35982,0.31209 -0.4409,0.20807 -0.84463,0.45329 -1.2112,0.73564 -0.3666,0.28238 -0.68364,0.5697 -0.95113,0.86196 -0.26752,0.29229 -0.45081,0.52759 -0.54987,0.70592 l -2.14004,10.28408 -2.82367,0 2.03602,-9.92741 c 0.0693,-0.32694 0.10154,-0.66627 0.0966,-1.018 -0.005,-0.35171 -0.0545,-0.67123 -0.14861,-0.95856 -0.0941,-0.28731 -0.24027,-0.52509 -0.43841,-0.71335 -0.19816,-0.18823 -0.46071,-0.28235 -0.78765,-0.28237 -0.35669,2e-5 -0.73565,0.10405 -1.1369,0.31209 -0.40127,0.20807 -0.78766,0.45576 -1.15919,0.74307 -0.37154,0.28733 -0.7084,0.58208 -1.01057,0.88425 -0.30219,0.3022 -0.52759,0.54741 -0.6762,0.73564 l -2.14004,10.22464 -2.79394,0 2.61561,-12.92941 -2.52644,-0.28237 0,-0.87682 4.56245,-0.95113 1.24835,0 -0.57959,2.80881 c 0.37648,-0.35667 0.77774,-0.70591 1.20377,-1.04773 0.42602,-0.3418 0.86691,-0.64151 1.32267,-0.89912 0.45574,-0.25758 0.91644,-0.46564 1.3821,-0.62418 0.46565,-0.1585 0.9214,-0.23776 1.36725,-0.23778 0.50528,2e-5 0.92387,0.0941 1.25579,0.28237 0.33189,0.18826 0.5994,0.42356 0.80252,0.70592 0.20309,0.28238 0.3517,0.58703 0.44584,0.91397 0.0941,0.32696 0.16098,0.62915 0.20063,0.90655 0.36656,-0.36657 0.77277,-0.71829 1.21863,-1.05516 0.44583,-0.33685 0.91148,-0.63655 1.39697,-0.89912 0.48546,-0.26253 0.97836,-0.47059 1.47871,-0.62418 0.50031,-0.15355 0.98331,-0.23033 1.44898,-0.23035 0.50527,2e-5 0.94864,0.0917 1.3301,0.27494 0.38142,0.1833 0.68856,0.44338 0.92141,0.78022 0.2328,0.33687 0.38142,0.74308 0.44584,1.21864 0.0644,0.47557 0.0371,1.00563 -0.0817,1.59016 l -1.70906,8.21835 c -0.0496,0.2477 -0.0446,0.47309 0.0149,0.6762 0.0594,0.2031 0.15107,0.37896 0.27494,0.52758 0.12382,0.14861 0.27491,0.26503 0.45327,0.34924 0.17831,0.0842 0.36656,0.12632 0.56473,0.12632 0.24767,0 0.53499,-0.0594 0.86196,-0.17834 0.32693,-0.11889 0.67865,-0.24273 1.05516,-0.37153 z"
       style=""
       id="path2896" />
    <path
       d="m 307.2798,379.13759 c -1e-5,-0.72324 -0.0694,-1.36228 -0.20806,-1.91712 -0.13872,-0.55481 -0.32696,-1.02047 -0.56473,-1.39697 -0.2378,-0.37647 -0.52264,-0.66379 -0.85453,-0.86196 -0.33192,-0.19814 -0.69107,-0.29721 -1.07745,-0.29722 -0.66382,1e-5 -1.28057,0.24027 -1.85025,0.72077 -0.56969,0.48053 -1.06259,1.10966 -1.47871,1.8874 -0.41612,0.77776 -0.74307,1.65458 -0.98085,2.63047 -0.23778,0.9759 -0.35667,1.95923 -0.35667,2.94998 0,0.75298 0.0693,1.41184 0.20806,1.97657 0.1387,0.56473 0.3319,1.03782 0.57959,1.41926 0.24769,0.38144 0.53501,0.66629 0.86196,0.85453 0.32695,0.18824 0.68362,0.28237 1.07002,0.28237 0.47556,0 0.92388,-0.12137 1.34496,-0.36411 0.42106,-0.24273 0.80251,-0.56968 1.14433,-0.98085 0.3418,-0.41116 0.64646,-0.8892 0.91397,-1.43412 0.2675,-0.54492 0.49537,-1.12203 0.68363,-1.73136 0.18823,-0.60931 0.32941,-1.23596 0.42355,-1.87996 0.0941,-0.64399 0.14117,-1.26321 0.14118,-1.85768 z m 3.07631,0.13376 c -2e-5,0.82233 -0.0917,1.62733 -0.27494,2.41497 -0.1833,0.78766 -0.44585,1.53321 -0.78765,2.23664 -0.34183,0.70344 -0.75299,1.34991 -1.2335,1.93941 -0.48053,0.58951 -1.02049,1.09975 -1.61989,1.53073 -0.59942,0.43098 -1.25084,0.76784 -1.95427,1.01057 -0.70345,0.24274 -1.44652,0.3641 -2.22921,0.36411 -0.83224,-1e-5 -1.58522,-0.13376 -2.25893,-0.40126 -0.67372,-0.26751 -1.24341,-0.65143 -1.70906,-1.15176 -0.46566,-0.50033 -0.82481,-1.10469 -1.07745,-1.81309 -0.25265,-0.70839 -0.37897,-1.50347 -0.37897,-2.38525 0,-0.82233 0.0892,-1.63227 0.26751,-2.42984 0.17833,-0.79755 0.43345,-1.55301 0.76536,-2.26636 0.3319,-0.71334 0.73563,-1.37467 1.2112,-1.984 0.47556,-0.6093 1.01305,-1.1344 1.61246,-1.57531 0.59941,-0.44087 1.25331,-0.78516 1.96171,-1.03286 0.70838,-0.24768 1.45888,-0.37152 2.2515,-0.37154 0.73315,2e-5 1.42916,0.11395 2.08802,0.34181 0.65885,0.22789 1.23844,0.58457 1.73878,1.07002 0.50033,0.48549 0.89663,1.09976 1.18892,1.84282 0.29226,0.74308 0.43839,1.62981 0.43841,2.66019 z m 0.14861,-11.84453 c -1e-5,0.28734 -0.0644,0.5276 -0.1932,0.72078 -0.12881,0.19321 -0.30715,0.36907 -0.53501,0.52757 l -4.56244,2.95742 -2.14004,0 4.14632,-4.75564 c 0.0991,-0.11887 0.2031,-0.2229 0.31209,-0.31209 0.10897,-0.0892 0.23034,-0.16841 0.36411,-0.23779 0.13374,-0.0693 0.2873,-0.12134 0.4607,-0.15604 0.17337,-0.0346 0.374,-0.052 0.60189,-0.052 0.26749,2e-5 0.49784,0.0396 0.69105,0.11889 0.19319,0.0793 0.35171,0.18083 0.47557,0.30465 0.12383,0.12387 0.21795,0.26505 0.28236,0.42355 0.0644,0.15855 0.0966,0.31211 0.0966,0.46071 z"
       style=""
       id="path2898" />
    <path
       d="m 327.38726,387.78692 c -0.12882,0.0495 -0.35422,0.12633 -0.6762,0.23035 -0.32201,0.10403 -0.68116,0.21302 -1.07745,0.32696 -0.39632,0.11393 -0.80253,0.21301 -1.21863,0.29722 -0.41613,0.0842 -0.78271,0.12632 -1.09975,0.12633 -0.17834,-1e-5 -0.42356,-0.0173 -0.73563,-0.052 -0.3121,-0.0347 -0.61181,-0.11394 -0.89912,-0.23778 -0.28733,-0.12385 -0.52016,-0.30466 -0.69848,-0.54244 -0.17835,-0.23778 -0.22293,-0.55978 -0.13376,-0.96599 l 1.85768,-9.34782 c 0.0693,-0.4062 0.0718,-0.74306 0.007,-1.01057 -0.0644,-0.2675 -0.16844,-0.48299 -0.31209,-0.64647 -0.14367,-0.16347 -0.30962,-0.2774 -0.49786,-0.34182 -0.18825,-0.0644 -0.36659,-0.0966 -0.53501,-0.0966 -0.2477,1e-5 -0.55236,0.0718 -0.91397,0.21549 -0.36164,0.14367 -0.74308,0.33439 -1.14433,0.57216 -0.40127,0.23779 -0.805,0.51768 -1.2112,0.83967 -0.40622,0.32201 -0.77776,0.66134 -1.11461,1.018 l -2.09545,10.22464 -2.83853,0 2.64533,-12.92941 -2.55616,-0.28237 0,-0.87682 4.59217,-0.95113 1.21863,0 -0.56473,2.83853 c 0.33685,-0.33685 0.72325,-0.67618 1.15919,-1.01801 0.43592,-0.3418 0.90158,-0.64645 1.39697,-0.91397 0.49537,-0.26749 1.00809,-0.48546 1.53815,-0.6539 0.53005,-0.16842 1.04772,-0.25263 1.55302,-0.25265 1.10964,2e-5 1.89977,0.30715 2.37039,0.92141 0.4706,0.61428 0.58701,1.60504 0.34924,2.97228 l -1.61989,8.58988 c -0.0496,0.28732 -0.0273,0.5152 0.0669,0.68362 0.0941,0.16844 0.21795,0.29723 0.37153,0.3864 0.15356,0.0892 0.31455,0.14614 0.483,0.17091 0.16841,0.0248 0.29721,0.0371 0.38639,0.0371 0.2774,0 0.57958,-0.0396 0.90655,-0.11889 0.32693,-0.0793 0.66379,-0.17338 1.01057,-0.28237 z"
       style=""
       id="path2900" />
    <path
       d="m 344.38872,387.60859 c -0.1189,0.0495 -0.34182,0.13623 -0.66877,0.26007 -0.32695,0.12385 -0.69353,0.25264 -1.09974,0.3864 -0.40622,0.13375 -0.82977,0.25264 -1.27065,0.35667 -0.44089,0.10403 -0.83967,0.15604 -1.19634,0.15605 -0.46566,-1e-5 -0.86196,-0.0545 -1.18891,-0.16348 -0.32695,-0.10898 -0.59446,-0.26255 -0.80252,-0.4607 -0.20806,-0.19815 -0.35915,-0.43346 -0.45327,-0.70592 -0.0941,-0.27246 -0.14118,-0.57216 -0.14118,-0.89911 0,-0.30714 0.0297,-0.66381 0.0892,-1.07002 l 3.34381,-17.40269 -2.70477,-0.26751 0,-0.9214 4.75564,-0.90655 1.17405,0 -3.70049,19.40898 c -0.0396,0.20806 -0.0297,0.41364 0.0297,0.61675 0.0594,0.2031 0.15356,0.38144 0.28236,0.53501 0.1288,0.15357 0.28732,0.27989 0.47557,0.37896 0.18824,0.0991 0.39134,0.14862 0.60932,0.14862 0.1486,0 0.34428,-0.0272 0.58702,-0.0817 0.24273,-0.0545 0.48794,-0.11642 0.73564,-0.18577 0.24768,-0.0693 0.47803,-0.1387 0.69105,-0.20806 0.21301,-0.0693 0.3641,-0.11393 0.45328,-0.13375 z"
       style=""
       id="path2902" />
    <path
       d="m 352.47331,387.60859 c -0.1189,0.0495 -0.34182,0.13623 -0.66876,0.26007 -0.32696,0.12385 -0.69354,0.25264 -1.09974,0.3864 -0.40622,0.13375 -0.82977,0.25264 -1.27065,0.35667 -0.4409,0.10403 -0.83968,0.15604 -1.19635,0.15605 -0.46566,-1e-5 -0.86196,-0.0545 -1.18891,-0.16348 -0.32695,-0.10898 -0.59445,-0.26255 -0.80251,-0.4607 -0.20806,-0.19815 -0.35915,-0.43346 -0.45327,-0.70592 -0.0941,-0.27246 -0.14119,-0.57216 -0.14119,-0.89911 0,-0.30714 0.0297,-0.66381 0.0892,-1.07002 l 3.34381,-17.40269 -2.70477,-0.26751 0,-0.9214 4.75565,-0.90655 1.17405,0 -3.70049,19.40898 c -0.0396,0.20806 -0.0297,0.41364 0.0297,0.61675 0.0594,0.2031 0.15357,0.38144 0.28237,0.53501 0.12879,0.15357 0.28731,0.27989 0.47556,0.37896 0.18824,0.0991 0.39135,0.14862 0.60932,0.14862 0.14861,0 0.34428,-0.0272 0.58702,-0.0817 0.24273,-0.0545 0.48795,-0.11642 0.73564,-0.18577 0.24769,-0.0693 0.47804,-0.1387 0.69106,-0.20806 0.213,-0.0693 0.36409,-0.11393 0.45327,-0.13375 z"
       style=""
       id="path2904" />
    <path
       d="m 360.55791,387.51942 c -0.1189,0.0495 -0.33687,0.14366 -0.65391,0.28236 -0.31705,0.13871 -0.68858,0.27989 -1.1146,0.42355 -0.42603,0.14366 -0.87435,0.26999 -1.34496,0.37897 -0.47061,0.10898 -0.91398,0.16347 -1.33009,0.16348 -0.52511,-1e-5 -0.94122,-0.0892 -1.24836,-0.26751 -0.30713,-0.17834 -0.53501,-0.41116 -0.68362,-0.69849 -0.14862,-0.28731 -0.23283,-0.60931 -0.25265,-0.96599 -0.0198,-0.35667 0.005,-0.70839 0.0743,-1.05515 l 1.94684,-10.31381 -2.6156,-0.28237 0,-0.87682 4.59217,-0.95113 1.24836,0 -2.30352,12.17148 c -0.0396,0.20806 -0.0372,0.40622 0.007,0.59446 0.0446,0.18824 0.11889,0.3542 0.22292,0.49785 0.10403,0.14367 0.23778,0.2576 0.40126,0.34182 0.16347,0.0842 0.34924,0.12632 0.5573,0.12632 0.17833,0 0.38887,-0.0322 0.63161,-0.0966 0.24273,-0.0644 0.48547,-0.13871 0.72821,-0.22292 0.24273,-0.0842 0.46813,-0.16595 0.67619,-0.24522 0.20805,-0.0793 0.36162,-0.13375 0.46071,-0.16347 z m -0.13376,-18.63619 c -10e-6,0.2279 -0.0421,0.44339 -0.12632,0.64647 -0.0842,0.20313 -0.20311,0.38394 -0.35667,0.54245 -0.15358,0.15853 -0.3443,0.28486 -0.57217,0.37896 -0.22788,0.0941 -0.49043,0.1412 -0.78765,0.14118 -0.62418,2e-5 -1.09479,-0.16593 -1.41183,-0.49785 -0.31705,-0.33189 -0.47557,-0.73562 -0.47557,-1.21121 0,-0.19813 0.0421,-0.39628 0.12633,-0.59445 0.0842,-0.19813 0.20805,-0.37895 0.37153,-0.54244 0.16347,-0.16346 0.3641,-0.29721 0.60189,-0.40126 0.23777,-0.10401 0.51023,-0.15602 0.81737,-0.15604 0.28732,2e-5 0.54244,0.0496 0.76536,0.14861 0.22292,0.0991 0.41364,0.22789 0.57217,0.3864 0.15851,0.15854 0.2774,0.33935 0.35667,0.54244 0.0793,0.20312 0.11888,0.4087 0.11889,0.61674 z"
       style=""
       id="path2906" />
    <path
       d="m 376.63793,387.66803 c -0.18826,0.10899 -0.44833,0.22788 -0.78022,0.35668 -0.33192,0.12879 -0.69107,0.24769 -1.07745,0.35667 -0.38641,0.10898 -0.78024,0.20063 -1.18148,0.27493 -0.40127,0.0743 -0.76538,0.11146 -1.09232,0.11147 -0.57465,-1e-5 -1.00067,-0.0966 -1.27808,-0.2898 -0.27742,-0.1932 -0.46814,-0.41612 -0.57216,-0.66876 -0.10404,-0.25265 -0.1511,-0.50777 -0.14118,-0.76537 0.01,-0.25759 0.0149,-0.44584 0.0149,-0.56473 -0.80252,0.76289 -1.64219,1.33505 -2.51901,1.71649 -0.87682,0.38144 -1.82548,0.57216 -2.84595,0.57217 -0.70345,-1e-5 -1.27809,-0.12385 -1.72392,-0.37154 -0.44585,-0.24769 -0.78271,-0.55978 -1.01058,-0.93627 -0.22787,-0.37648 -0.36658,-0.78765 -0.41612,-1.23349 -0.0495,-0.44584 -0.0347,-0.86691 0.0446,-1.26322 l 1.97656,-9.49643 -2.55616,-0.28237 0,-0.87682 4.59217,-0.95113 1.24836,0 -2.42241,11.60675 c -0.0594,0.2576 -0.0471,0.50281 0.0372,0.73564 0.0842,0.23283 0.20805,0.43593 0.37153,0.60931 0.16347,0.17339 0.34924,0.3121 0.5573,0.41612 0.20806,0.10404 0.41116,0.15605 0.60932,0.15605 0.36657,0 0.73563,-0.052 1.10717,-0.15605 0.37153,-0.10402 0.74059,-0.24521 1.10718,-0.42355 0.36657,-0.17833 0.71829,-0.38391 1.05516,-0.61674 0.33684,-0.23283 0.64893,-0.483 0.93626,-0.7505 l 2.30352,-11.20549 2.83852,0 -2.43726,11.71077 c -0.0694,0.31705 -0.0694,0.58208 0,0.79509 0.0693,0.21301 0.17584,0.38887 0.31952,0.52758 0.14364,0.13871 0.30712,0.23778 0.49042,0.29723 0.18328,0.0594 0.35914,0.0892 0.52758,0.0892 0.19814,0 0.46069,-0.0297 0.78766,-0.0892 0.32693,-0.0594 0.70342,-0.21302 1.12946,-0.46071 z"
       style=""
       id="path2908" />
    <path
       d="m 389.1958,375.40738 c -2e-5,0.35669 -0.0644,0.64153 -0.1932,0.85453 -0.12881,0.21303 -0.3121,0.37403 -0.54987,0.483 -0.2378,0.10899 -0.52264,0.18082 -0.85453,0.21549 -0.33192,0.0347 -0.70593,0.052 -1.12204,0.052 l -0.72821,-1.45641 c -0.37649,0.15853 -0.78023,0.43347 -1.2112,0.82481 -0.43099,0.39136 -0.83967,0.8372 -1.22606,1.33752 -0.38641,0.50034 -0.72326,1.01554 -1.01058,1.54559 -0.28732,0.53006 -0.47557,1.01801 -0.56473,1.46384 l -1.59017,7.66848 -2.82366,0 2.6156,-12.92941 -2.55616,-0.28237 0,-0.87682 4.59217,-0.95113 1.21864,0 -0.63904,3.07631 c 0.62417,-0.96102 1.33256,-1.714 2.12517,-2.25893 0.7926,-0.5449 1.64961,-0.81736 2.57102,-0.81738 0.36658,2e-5 0.67371,0.0669 0.92141,0.20063 0.24768,0.13377 0.44831,0.30467 0.60189,0.51272 0.15355,0.20807 0.26254,0.43099 0.32695,0.66876 0.0644,0.2378 0.0966,0.46072 0.0966,0.66876 z"
       style=""
       id="path2910" />
    <path
       d="m 398.14235,376.4031 c -1e-5,-0.19814 -0.0396,-0.39382 -0.11889,-0.58703 -0.0793,-0.19318 -0.18826,-0.36409 -0.32695,-0.51272 -0.13872,-0.1486 -0.3121,-0.26996 -0.52015,-0.3641 -0.20807,-0.0941 -0.43594,-0.14117 -0.68362,-0.14118 -0.33687,1e-5 -0.65887,0.0892 -0.96599,0.2675 -0.30715,0.17835 -0.6019,0.41613 -0.88426,0.71335 -0.28237,0.29724 -0.54492,0.63905 -0.78765,1.02544 -0.24274,0.3864 -0.46071,0.79261 -0.6539,1.21863 -0.19321,0.42604 -0.36411,0.85702 -0.51272,1.29294 -0.14862,0.43594 -0.26751,0.84711 -0.35667,1.2335 0.64398,-0.0594 1.31027,-0.20806 1.99885,-0.44585 0.68857,-0.23777 1.31523,-0.54243 1.87997,-0.91397 0.56472,-0.37153 1.0279,-0.79508 1.38954,-1.27065 0.36162,-0.47555 0.54243,-0.98084 0.54244,-1.51586 z m 2.70477,0.0297 c -1e-5,0.55484 -0.12881,1.06508 -0.38639,1.53072 -0.25761,0.46567 -0.60685,0.88674 -1.04773,1.26322 -0.4409,0.3765 -0.95114,0.71088 -1.53072,1.00315 -0.57961,0.29228 -1.18892,0.53997 -1.82796,0.74307 -0.63904,0.20311 -1.29047,0.36658 -1.95427,0.49042 -0.66381,0.12385 -1.2979,0.20064 -1.90226,0.23035 -0.0297,0.19816 -0.057,0.43594 -0.0817,0.71335 -0.0248,0.27742 -0.0372,0.51025 -0.0372,0.69849 0,0.55483 0.0669,1.06507 0.20063,1.53072 0.13375,0.46566 0.32695,0.86939 0.5796,1.2112 0.25263,0.34182 0.55729,0.60932 0.91397,0.80252 0.35667,0.1932 0.75793,0.2898 1.20377,0.28979 0.68362,10e-6 1.4366,-0.24768 2.25894,-0.74307 0.82232,-0.49537 1.79326,-1.23349 2.91283,-2.21434 l 0,1.91712 c -0.28733,0.27741 -0.63905,0.58207 -1.05516,0.91397 -0.41613,0.33191 -0.88922,0.644 -1.41926,0.93627 -0.53007,0.29227 -1.10719,0.53501 -1.73136,0.72821 -0.62418,0.1932 -1.28304,0.28979 -1.97656,0.2898 -0.30714,-1e-5 -0.64152,-0.0297 -1.00314,-0.0892 -0.36164,-0.0594 -0.72079,-0.16596 -1.07746,-0.31952 -0.35667,-0.15357 -0.70096,-0.36411 -1.03286,-0.63161 -0.33191,-0.26751 -0.62418,-0.60684 -0.87682,-1.01801 -0.25265,-0.41116 -0.45576,-0.90159 -0.60932,-1.47128 -0.15357,-0.56968 -0.23035,-1.24092 -0.23035,-2.01371 0,-0.80251 0.0966,-1.60255 0.28979,-2.40012 0.1932,-0.79755 0.46566,-1.56044 0.81738,-2.28865 0.35172,-0.7282 0.77527,-1.40687 1.27065,-2.03601 0.49538,-0.62912 1.04029,-1.17404 1.63475,-1.63476 0.59445,-0.46069 1.23101,-0.82231 1.90969,-1.08488 0.67866,-0.26253 1.37963,-0.39381 2.10289,-0.39382 0.70343,1e-5 1.29045,0.11642 1.76107,0.34924 0.4706,0.23284 0.84957,0.51273 1.1369,0.83967 0.28731,0.32696 0.49041,0.66382 0.60932,1.01057 0.11887,0.34678 0.17832,0.62915 0.17833,0.8471 z"
       style=""
       id="path2912" />
  </g>
</svg>
