<?xml version="1.0" encoding="UTF-8" standalone="no"?>
<!-- Created with Inkscape (http://www.inkscape.org/) -->
<svg
   xmlns:ns="http://creativecommons.org/ns#"
   xmlns:dc="http://purl.org/dc/elements/1.1/"
   xmlns:cc="http://web.resource.org/cc/"
   xmlns:rdf="http://www.w3.org/1999/02/22-rdf-syntax-ns#"
   xmlns:svg="http://www.w3.org/2000/svg"
   xmlns="http://www.w3.org/2000/svg"
   xmlns:sodipodi="http://sodipodi.sourceforge.net/DTD/sodipodi-0.dtd"
   xmlns:inkscape="http://www.inkscape.org/namespaces/inkscape"
   version="1.0"
   width="400"
   height="400"
   id="svg2728"
   sodipodi:version="0.32"
   inkscape:version="0.45.1"
   sodipodi:docname="Wikibooks-logo-hu.svg"
   inkscape:output_extension="org.inkscape.output.svg.inkscape"
   sodipodi:docbase="C:\Documents and Settings\Tech U\Desktop"
   inkscape:export-filename="C:\Documents and Settings\Tech U\Desktop\Wikibooks-logo-hu.png"
   inkscape:export-xdpi="30.379999"
   inkscape:export-ydpi="30.379999">
  <metadata
     id="metadata18">
    <rdf:RDF>
      <ns:Work
         rdf:about="">
        <dc:format>image/svg+xml</dc:format>
        <dc:type
           rdf:resource="http://purl.org/dc/dcmitype/StillImage" />
      </ns:Work>
      <cc:Work
         rdf:about="">
        <dc:format>image/svg+xml</dc:format>
        <dc:type
           rdf:resource="http://purl.org/dc/dcmitype/StillImage" />
      </cc:Work>
    </rdf:RDF>
  </metadata>
  <sodipodi:namedview
     inkscape:window-height="778"
     inkscape:window-width="1272"
     inkscape:pageshadow="2"
     inkscape:pageopacity="0.0"
     guidetolerance="10.0"
     gridtolerance="10.0"
     objecttolerance="10.0"
     borderopacity="1.0"
     bordercolor="#666666"
     pagecolor="#ffffff"
     id="base"
     showgrid="false"
     inkscape:zoom="1.245"
     inkscape:cx="193.28334"
     inkscape:cy="171.80161"
     inkscape:window-x="0"
     inkscape:window-y="0"
     inkscape:current-layer="svg2728" />
  <defs
     id="defs2731">
    <inkscape:perspective
       sodipodi:type="inkscape:persp3d"
       inkscape:vp_x="0 : 200 : 1"
       inkscape:vp_y="0 : 1000 : 0"
       inkscape:vp_z="400 : 200 : 1"
       inkscape:persp3d-origin="200 : 133.33333 : 1"
       id="perspective20" />
  </defs>
  <g
     id="layer1" />
  <g
     id="g3189"
     transform="translate(-6.068381e-7,-10)">
    <g
       id="g3177">
      <path
         id="path3297"
         style="fill:#fdfcf8;fill-opacity:1;fill-rule:evenodd;stroke:none;stroke-width:1px;stroke-linecap:butt;stroke-linejoin:miter;stroke-opacity:1"
         d="M 191.65664,115.97593 C 196.93351,182.00184 208.45394,245.91983 242.85479,307.46513 L 255.86467,307.56221 L 338.15581,234.14292 L 259.72068,35.943307 L 203.18059,89.951746 L 191.65664,115.97593 z " />
      <path
         d="M 263.32723,16.5 C 236.14031,42.801966 209.26473,68.875 209.26473,68.875 C 209.26473,68.875 218.92098,88.53125 218.92098,88.53125 C 232.01455,75.550025 245.18226,64.133911 257.73348,51.4375 C 284.16674,109.4727 302.17756,156.24917 324.33191,218.08448 C 331.58462,238.17246 330.10582,239.07126 312.76941,249.92823 C 284.91465,263.77995 276.0966,272.86547 242.89833,308.1875 L 265.61708,308.1875 C 293.37052,283.09599 303.67261,274.24081 338.42566,255.92823 C 350.71955,248.83035 352.40523,239.86966 347.36316,225.92823 C 331.10198,180.73146 295.87208,83.322614 263.32723,16.5 z "
         style="fill:#5f96d3;fill-opacity:1"
         id="path3272" />
    </g>
    <g
       id="g3181">
      <path
         id="path3214"
         style="fill:#f4eed7;fill-rule:evenodd;stroke:none;stroke-width:1px;stroke-linecap:butt;stroke-linejoin:miter;stroke-opacity:1"
         d="M 125.84082,116.04509 C 131.11769,182.071 144.61911,246.8316 179.01996,308.3769 L 199.35471,308.55962 L 261.32293,230.84125 L 193.90486,36.012472 L 137.36477,90.020911 L 125.84082,116.04509 z " />
      <path
         d="M 192.45223,17.125 C 172.56466,30.549352 157.22356,49.869448 139.92098,66.4375 C 139.92098,66.4375 147.01473,89.0625 147.01473,89.0625 C 160.5559,78.391834 172.3403,65.526043 184.51473,53.34375 L 250.17098,218.03125 C 253.95672,229.18194 247.99456,239.10365 236.01473,249.90625 C 221.66549,261.43896 192.12216,288.32681 178.73348,308.8125 L 199.10848,308.8125 C 220.49313,286.84657 224.35368,283.86504 248.70223,262.78125 C 265.04857,246.10281 279.81623,237.56053 272.10848,216.1875 L 192.45223,17.125 z "
         style="fill:#2a62a1;fill-opacity:1;fill-rule:evenodd;stroke:none;stroke-width:22;stroke-linecap:round;stroke-linejoin:miter;stroke-miterlimit:4;stroke-dasharray:none;stroke-opacity:1"
         id="path3138" />
    </g>
    <g
       id="g3185">
      <path
         id="path2238"
         style="fill:#e9ddaf;fill-rule:evenodd;stroke:none;stroke-width:1px;stroke-linecap:butt;stroke-linejoin:miter;stroke-opacity:1"
         d="M 50.218883,114.63177 C 55.595535,183.91551 77.233973,245.97178 102.67801,306.33668 L 129.48015,306.00572 L 199.88087,225.96804 L 118.28293,34.599156 L 61.742841,88.607595 L 50.218883,114.63177 z " />
      <path
         d="M 125.32723,16.0625 C 120.02588,17.841698 115.61512,21.260515 111.48348,24.875 C 55.394922,78.847012 53.13973,81.125 53.13973,81.125 C 50.188265,83.867742 49.941746,87.87735 49.98348,91.90625 L 50.218884,114.63177 C 50.218884,114.63177 76.123108,89.450054 114.79598,52.21875 C 135.6144,106.45643 157.3415,160.40524 178.73348,214.4375 C 181.66298,222.60083 174.65125,229.2909 165.76473,238.21875 C 153.49118,250.19233 127.82007,274.84011 101.54598,307.75 L 127.88973,307.75 C 127.88973,307.75 191.20222,238.3125 191.20223,238.3125 C 197.22151,230.03457 204.70542,221.9413 201.54598,214.4375 C 201.54598,214.4375 125.32723,16.062501 125.32723,16.0625 z "
         style="fill:#15304f;fill-opacity:1;fill-rule:evenodd;stroke:none;stroke-width:22;stroke-linecap:round;stroke-linejoin:miter;stroke-miterlimit:4;stroke-dasharray:none;stroke-opacity:1"
         id="path3136" />
    </g>
  </g>
  <text
     xml:space="preserve"
     style="font-style: normal; font-variant: normal; font-weight: bold; font-stretch: normal; fill: rgb(0, 0, 0); fill-opacity: 1; stroke: none; stroke-width: 1px; stroke-linecap: butt; stroke-linejoin: miter; stroke-opacity: 1; font-family: DejaVu Sans;"
     x="15.261"
     y="175.904"
     id="text2416"><tspan
       sodipodi:role="line"
       id="tspan2418"
       x="15.261"
       y="175.90401" /></text>
  <g
     id="g2700"
     transform="matrix(0.8725529,0,0,0.9085377,-12.669365,28.018058)">
    <path
       style="font-size:56px;font-style:normal;font-variant:normal;font-weight:bold;font-stretch:normal;fill:#0b2645;fill-opacity:1;stroke:none;stroke-width:1px;stroke-linecap:butt;stroke-linejoin:miter;stroke-opacity:1;font-family:DejaVu Sans"
       d="M 19.999969,317.17578 L 30.089813,317.17578 L 37.144501,346.84375 L 44.144501,317.17578 L 54.289032,317.17578 L 61.289032,346.84375 L 68.343719,317.17578 L 78.351532,317.17578 L 68.726532,358 L 56.585907,358 L 49.175751,326.96484 L 41.847626,358 L 29.707001,358 L 19.999969,317.17578 z M 85.269501,317.17578 L 95.796844,317.17578 L 95.796844,358 L 85.269501,358 L 85.269501,317.17578 z M 106.16013,317.17578 L 116.68747,317.17578 L 116.68747,332.07813 L 131.86325,317.17578 L 144.08591,317.17578 L 124.42575,336.50781 L 146.10934,358 L 132.92966,358 L 116.68747,341.92188 L 116.68747,358 L 106.16013,358 L 106.16013,317.17578 z M 149.582,317.17578 L 160.10934,317.17578 L 160.10934,358 L 149.582,358 L 149.582,317.17578 z "
       id="text2420" />
    <path
       style="font-size:56px;font-style:normal;font-variant:normal;font-weight:bold;font-stretch:normal;fill:#0a4e98;fill-opacity:1;stroke:none;stroke-width:1px;stroke-linecap:butt;stroke-linejoin:miter;stroke-opacity:1;font-family:DejaVu Sans"
       d="M 167.42175,317.40872 L 177.9491,317.40872 L 177.9491,332.31107 L 193.12488,317.40872 L 205.34753,317.40872 L 185.68738,336.74075 L 207.37097,358.23294 L 194.19128,358.23294 L 177.9491,342.15482 L 177.9491,358.23294 L 167.42175,358.23294 L 167.42175,317.40872 z M 229.49207,324.29935 C 226.28371,324.29938 223.79543,325.48428 222.02722,327.85403 C 220.25898,330.22385 219.37486,333.55979 219.37488,337.86185 C 219.37486,342.14572 220.25898,345.47254 222.02722,347.84232 C 223.79543,350.21212 226.28371,351.39701 229.49207,351.397 C 232.7186,351.39701 235.21599,350.21212 236.98425,347.84232 C 238.75245,345.47254 239.63656,342.14572 239.6366,337.86185 C 239.63656,333.55979 238.75245,330.22385 236.98425,327.85403 C 235.21599,325.48428 232.7186,324.29938 229.49207,324.29935 L 229.49207,324.29935 z M 229.49207,316.67044 C 236.05454,316.67048 241.19515,318.54808 244.91394,322.30325 C 248.63265,326.05849 250.49202,331.24469 250.49207,337.86185 C 250.49202,344.46082 248.63265,349.6379 244.91394,353.3931 C 241.19515,357.14831 236.05454,359.02591 229.49207,359.02591 C 222.94778,359.02591 217.81171,357.14831 214.08386,353.3931 C 210.35599,349.6379 208.49206,344.46082 208.49207,337.86185 C 208.49206,331.24469 210.35599,326.05849 214.08386,322.30325 C 217.81171,318.54808 222.94778,316.67048 229.49207,316.67044 L 229.49207,316.67044 z M 220.93347,306.3345 L 227.35925,306.3345 L 227.35925,313.06107 L 220.93347,313.06107 L 220.93347,306.3345 z M 231.73425,306.3345 L 238.16003,306.3345 L 238.16003,313.06107 L 231.73425,313.06107 L 231.73425,306.3345 z M 258.42175,317.40872 L 270.17957,317.40872 L 285.02722,345.40872 L 285.02722,317.40872 L 295.00769,317.40872 L 295.00769,358.23294 L 283.24988,358.23294 L 268.40222,330.23294 L 268.40222,358.23294 L 258.42175,358.23294 L 258.42175,317.40872 z M 299.65613,317.40872 L 311.16785,317.40872 L 320.46472,331.9556 L 329.7616,317.40872 L 341.30066,317.40872 L 325.74207,341.03372 L 325.74207,358.23294 L 315.21472,358.23294 L 315.21472,341.03372 L 299.65613,317.40872 z M 341.05457,317.40872 L 351.6366,317.40872 L 362.46472,347.54153 L 373.2655,317.40872 L 383.84753,317.40872 L 368.72644,358.23294 L 356.17566,358.23294 L 341.05457,317.40872 z M 389.23425,317.40872 L 417.64441,317.40872 L 417.64441,325.36575 L 399.7616,325.36575 L 399.7616,332.96732 L 416.578,332.96732 L 416.578,340.92435 L 399.7616,340.92435 L 399.7616,350.27591 L 418.24597,350.27591 L 418.24597,358.23294 L 389.23425,358.23294 L 389.23425,317.40872 z M 427.5155,317.40872 L 438.04285,317.40872 L 438.04285,332.31107 L 453.21863,317.40872 L 465.44128,317.40872 L 445.78113,336.74075 L 467.46472,358.23294 L 454.28503,358.23294 L 438.04285,342.15482 L 438.04285,358.23294 L 427.5155,358.23294 L 427.5155,317.40872 z "
       id="text2410" />
  </g>
  <path
     transform="scale(0.9336769,1.0710343)"
     style="font-size:28.62006378px;font-style:italic;font-variant:normal;font-weight:normal;font-stretch:normal;text-align:center;line-height:150%;writing-mode:lr-tb;text-anchor:middle;fill:#000000;fill-opacity:1;stroke:none;stroke-width:1px;stroke-linecap:butt;stroke-linejoin:miter;stroke-opacity:1;font-family:Charis SIL"
     d="M 24.081886,343.62707 C 23.895538,343.64572 23.739488,343.69929 23.613736,343.78778 C 23.487945,343.87631 23.401768,344.01372 23.355205,344.20003 L 19.987317,361.48666 L 17.91907,361.48666 L 10.708155,346.29623 L 8.1647708,359.60009 C 8.1368175,359.73984 8.1601085,359.86095 8.234644,359.96343 C 8.3091712,360.06591 8.4768667,360.12647 8.7377311,360.1451 L 10.33084,360.28484 L 10.33084,361.48666 L 3.6928858,361.48666 L 3.6928858,360.28484 L 5.3279188,360.1451 C 5.7192071,360.11715 5.9567757,359.93548 6.0406254,359.60009 L 8.9892746,344.20003 C 9.0172189,344.04167 8.9939279,343.91124 8.9194014,343.80874 C 8.8448652,343.70628 8.6864861,343.64572 8.4442636,343.62707 L 6.8511546,343.48733 L 6.8511546,342.28551 L 12.371138,342.28551 L 12.371138,343.02616 L 18.813447,356.67939 L 21.245034,344.20003 C 21.272966,344.04167 21.249675,343.91124 21.175161,343.80874 C 21.100613,343.70628 20.942234,343.64572 20.700023,343.62707 L 19.06499,343.48733 L 19.06499,342.28551 L 25.702945,342.28551 L 25.702945,343.48733 L 24.081886,343.62707 z M 38.014603,349.66412 C 37.902792,349.77593 37.739755,349.98089 37.52549,350.279 C 37.3112,350.57714 37.089935,350.91253 36.861695,351.28518 C 36.63343,351.65784 36.409836,352.04215 36.190912,352.43808 C 35.971965,352.83404 35.797282,353.18108 35.666863,353.47919 C 35.461891,353.93571 35.221993,354.49003 34.947169,355.14218 C 34.672324,355.79433 34.364883,356.49539 34.024843,357.24536 C 33.684784,357.99534 33.314456,358.77326 32.913859,359.57913 C 32.513245,360.385 32.084689,361.17456 31.628192,361.94783 C 31.180997,362.70246 30.70353,363.44544 30.195791,364.17678 C 29.688041,364.90812 29.150018,365.56027 28.58172,366.13323 C 28.013415,366.70619 27.414835,367.16735 26.785979,367.51672 C 26.157119,367.86608 25.50264,368.04076 24.822542,368.04077 C 24.300822,368.04076 23.867609,367.97555 23.522901,367.84513 C 23.178194,367.71469 22.90336,367.55398 22.698397,367.363 C 22.493437,367.17201 22.351362,366.96705 22.27217,366.74812 C 22.192983,366.52917 22.153388,366.3312 22.153386,366.15419 C 22.153388,365.93991 22.202299,365.73262 22.300119,365.53232 C 22.397944,365.33202 22.535361,365.155 22.712371,365.00129 C 22.889385,364.84756 23.099004,364.72412 23.34123,364.63096 C 23.583458,364.53779 23.844318,364.48189 24.12381,364.46326 L 25.786792,366.12624 C 26.084916,366.09829 26.378383,365.97951 26.667195,365.76989 C 26.956001,365.56027 27.261114,365.24584 27.582534,364.8266 C 27.903947,364.40736 28.255642,363.88098 28.637619,363.24747 C 29.019588,362.61395 29.452801,361.85466 29.937261,360.9696 C 29.918622,360.85781 29.87204,360.60859 29.797514,360.22196 C 29.722977,359.83533 29.632142,359.36485 29.525009,358.81052 C 29.417865,358.2562 29.296751,357.64364 29.161668,356.97285 C 29.026575,356.30208 28.8845,355.62198 28.735441,354.93256 C 28.586374,354.26178 28.430324,353.58867 28.267291,352.91322 C 28.10425,352.23779 27.945871,351.62989 27.792153,351.08953 C 27.638429,350.54919 27.501012,350.10666 27.379901,349.76194 C 27.258785,349.41724 27.165621,349.24023 27.100409,349.2309 L 24.501125,349.03526 L 24.501125,348.32255 L 24.892415,348.19678 C 25.078743,348.13158 25.283704,348.06404 25.507299,347.99415 C 25.730892,347.92429 25.968461,347.84976 26.220006,347.77055 C 26.471548,347.69138 26.709116,347.62151 26.932713,347.56093 C 27.156304,347.50039 27.358936,347.44915 27.54061,347.40721 C 27.722277,347.3653 27.855036,347.34434 27.938887,347.34433 C 28.246325,347.34434 28.516501,347.41654 28.749416,347.56093 C 28.982322,347.70535 29.189613,347.91264 29.371288,348.18281 C 29.552953,348.453 29.720648,348.77674 29.874375,349.15404 C 30.02809,349.53137 30.174824,349.9576 30.314576,350.43272 C 30.556797,351.28053 30.80834,352.33095 31.069206,353.584 C 31.330059,354.83707 31.600236,356.2322 31.879736,357.76941 L 36.239823,347.34433 L 37.064327,347.34433 L 39.440016,348.12691 L 39.440016,348.78372 L 38.014603,349.66412 z M 46.231693,360.66216 C 46.119889,360.70874 45.914927,360.79725 45.616809,360.92768 C 45.318677,361.05811 44.969311,361.19087 44.568711,361.32596 C 44.168099,361.46104 43.746531,361.57983 43.304006,361.68231 C 42.861472,361.78479 42.444562,361.83603 42.053276,361.83603 C 41.559502,361.83603 41.168213,361.75218 40.879406,361.58449 C 40.590595,361.41679 40.376317,361.19785 40.236572,360.92768 C 40.096825,360.6575 40.017635,360.35472 39.999004,360.01933 C 39.980369,359.68394 40.00366,359.3532 40.068877,359.02713 L 41.899555,349.32873 L 39.440018,349.06321 L 39.440018,348.2387 L 43.758182,347.34433 L 44.932052,347.34433 L 42.765982,358.78956 C 42.728713,358.98521 42.731042,359.17153 42.77297,359.34854 C 42.814889,359.52556 42.884763,359.68161 42.982589,359.81669 C 43.080407,359.95178 43.206179,360.05892 43.359905,360.13811 C 43.513621,360.2173 43.688304,360.2569 43.883954,360.2569 C 44.051644,360.2569 44.249618,360.22662 44.477876,360.16606 C 44.706122,360.1055 44.934374,360.03563 45.162633,359.95644 C 45.390879,359.87725 45.602827,359.80039 45.798479,359.72586 C 45.994117,359.65133 46.138521,359.60009 46.231693,359.57214 L 46.231693,360.66216 z M 46.105921,343.13796 C 46.105914,343.35226 46.066319,343.55489 45.987137,343.74586 C 45.90794,343.93686 45.796143,344.10689 45.651746,344.25593 C 45.507334,344.40501 45.327993,344.5238 45.113722,344.61229 C 44.899438,344.70081 44.652553,344.74506 44.373066,344.74504 C 43.786126,344.74506 43.343596,344.58901 43.045475,344.27689 C 42.747345,343.96481 42.598283,343.58517 42.598287,343.13796 C 42.598283,342.95165 42.637878,342.76532 42.717071,342.57898 C 42.796257,342.39267 42.912712,342.22264 43.066437,342.0689 C 43.220154,341.9152 43.408811,341.78943 43.63241,341.69159 C 43.855999,341.59378 44.112201,341.54487 44.401015,341.54485 C 44.671186,341.54487 44.911083,341.59145 45.120709,341.6846 C 45.330322,341.77778 45.509663,341.8989 45.658733,342.04794 C 45.807789,342.19702 45.919586,342.36705 45.994124,342.55801 C 46.068648,342.74902 46.105914,342.94233 46.105921,343.13796 L 46.105921,343.13796 z M 52.087066,349.49642 L 50.284338,358.48212 C 50.228435,358.73366 50.237752,358.95959 50.312287,359.15989 C 50.386814,359.36019 50.505599,359.52789 50.66864,359.66297 C 50.831673,359.79806 51.02266,359.90287 51.241601,359.9774 C 51.460532,360.05194 51.691113,360.0892 51.933345,360.0892 C 52.203516,360.0892 52.483008,360.06358 52.771824,360.01234 C 53.060626,359.9611 53.33779,359.89821 53.603315,359.82368 C 53.868826,359.74915 54.115711,359.67229 54.343971,359.5931 C 54.572215,359.51391 54.760873,359.44637 54.909944,359.39047 L 54.909944,360.53639 C 54.788822,360.59229 54.555911,360.69011 54.211212,360.82986 C 53.866496,360.9696 53.470549,361.11401 53.023367,361.26307 C 52.576173,361.41213 52.105694,361.54489 51.611929,361.66135 C 51.118153,361.7778 50.666307,361.83603 50.256389,361.83603 C 49.734665,361.83603 49.301452,361.77314 48.956747,361.64737 C 48.612037,361.5216 48.337203,361.34925 48.132243,361.13031 C 47.92728,360.91138 47.780547,360.65052 47.692042,360.34773 C 47.603535,360.04495 47.559282,359.71654 47.559283,359.36252 C 47.559282,359.17619 47.566269,358.98521 47.580245,358.78956 C 47.594218,358.59392 47.624497,358.39361 47.67108,358.18865 L 49.41791,349.49642 L 47.615182,349.66412 L 47.615182,348.72782 L 49.767276,347.77754 L 51.16474,344.91274 L 52.91157,344.91274 L 52.33861,348.18281 L 56.293433,348.18281 L 56.293433,349.49642 L 52.087066,349.49642 z M 65.614516,352.78046 C 65.614505,352.10037 65.54929,351.49946 65.418871,350.97773 C 65.28843,350.45603 65.111418,350.01815 64.887834,349.66412 C 64.66423,349.31011 64.396383,349.03993 64.084292,348.85359 C 63.772183,348.66727 63.434463,348.57411 63.071131,348.5741 C 62.446923,348.57411 61.866976,348.80003 61.331288,349.25187 C 60.795588,349.70372 60.332096,350.29532 59.940811,351.02665 C 59.549517,351.75799 59.242075,352.5825 59.018485,353.50016 C 58.794887,354.41783 58.68309,355.34249 58.683094,356.27412 C 58.68309,356.98218 58.748305,357.60172 58.878739,358.13275 C 59.009165,358.66379 59.190835,359.10865 59.42375,359.46733 C 59.656656,359.82601 59.926832,360.09386 60.234279,360.27087 C 60.541715,360.44788 60.877106,360.53639 61.240453,360.53639 C 61.687635,360.53639 62.109203,360.42226 62.505158,360.19401 C 62.901098,359.96576 63.25978,359.65832 63.581205,359.27168 C 63.902613,358.88505 64.189093,358.43554 64.440646,357.92313 C 64.692179,357.41073 64.906457,356.86805 65.083479,356.29508 C 65.260481,355.72213 65.39324,355.13287 65.481756,354.52729 C 65.570252,353.92173 65.614505,353.33946 65.614516,352.78046 L 65.614516,352.78046 z M 68.507266,352.90623 C 68.507252,353.67951 68.421076,354.43646 68.248735,355.17711 C 68.076368,355.91778 67.829483,356.61884 67.508079,357.2803 C 67.18665,357.94177 66.800019,358.54966 66.348184,359.10399 C 65.896326,359.65832 65.388582,360.13811 64.824948,360.54338 C 64.261295,360.94864 63.648741,361.2654 62.987283,361.49365 C 62.325809,361.7219 61.627078,361.83603 60.891087,361.83603 C 60.108502,361.83603 59.400454,361.71026 58.766942,361.45871 C 58.133421,361.20717 57.597727,360.84616 57.159858,360.37568 C 56.721984,359.9052 56.384264,359.3369 56.146697,358.67077 C 55.909127,358.00465 55.790342,357.25701 55.790343,356.42784 C 55.790342,355.65459 55.87419,354.89297 56.041887,354.14299 C 56.209581,353.39303 56.449479,352.68265 56.761581,352.01186 C 57.073679,351.34108 57.453323,350.71921 57.900514,350.14624 C 58.347699,349.57329 58.853115,349.07952 59.416762,348.66493 C 59.980401,348.25036 60.595285,347.92662 61.261415,347.69369 C 61.927532,347.4608 62.633251,347.34434 63.378573,347.34433 C 64.067979,347.34434 64.722458,347.45148 65.34201,347.66574 C 65.961541,347.88004 66.506552,348.21543 66.977043,348.67192 C 67.44751,349.12844 67.820167,349.70605 68.095014,350.40477 C 68.369835,351.10352 68.507252,351.93734 68.507266,352.90623 L 68.507266,352.90623 z M 75.229072,349.49642 L 73.426344,358.48212 C 73.370441,358.73366 73.379758,358.95959 73.454293,359.15989 C 73.52882,359.36019 73.647605,359.52789 73.810646,359.66297 C 73.973679,359.79806 74.164666,359.90287 74.383607,359.9774 C 74.602538,360.05194 74.833119,360.0892 75.075351,360.0892 C 75.345522,360.0892 75.625014,360.06358 75.91383,360.01234 C 76.202632,359.9611 76.479796,359.89821 76.745321,359.82368 C 77.010832,359.74915 77.257717,359.67229 77.485977,359.5931 C 77.714221,359.51391 77.902879,359.44637 78.05195,359.39047 L 78.05195,360.53639 C 77.930828,360.59229 77.697917,360.69011 77.353218,360.82986 C 77.008502,360.9696 76.612555,361.11401 76.165373,361.26307 C 75.718179,361.41213 75.247699,361.54489 74.753935,361.66135 C 74.260159,361.7778 73.808313,361.83603 73.398395,361.83603 C 72.876671,361.83603 72.443458,361.77314 72.098753,361.64737 C 71.754043,361.5216 71.479209,361.34925 71.274249,361.13031 C 71.069286,360.91138 70.922553,360.65052 70.834048,360.34773 C 70.745541,360.04495 70.701288,359.71654 70.701289,359.36252 C 70.701288,359.17619 70.708275,358.98521 70.722251,358.78956 C 70.736224,358.59392 70.766503,358.39361 70.813086,358.18865 L 72.559916,349.49642 L 70.757187,349.66412 L 70.757187,348.72782 L 72.909282,347.77754 L 74.306746,344.91274 L 76.053576,344.91274 L 75.480616,348.18281 L 79.435439,348.18281 L 79.435439,349.49642 L 75.229072,349.49642 z M 83.837448,349.49642 L 82.034719,358.48212 C 81.978817,358.73366 81.988133,358.95959 82.062669,359.15989 C 82.137196,359.36019 82.25598,359.52789 82.419022,359.66297 C 82.582055,359.79806 82.773041,359.90287 82.991982,359.9774 C 83.210913,360.05194 83.441494,360.0892 83.683727,360.0892 C 83.953897,360.0892 84.23339,360.06358 84.522205,360.01234 C 84.811008,359.9611 85.088171,359.89821 85.353696,359.82368 C 85.619207,359.74915 85.866092,359.67229 86.094352,359.5931 C 86.322597,359.51391 86.511254,359.44637 86.660325,359.39047 L 86.660325,360.53639 C 86.539203,360.59229 86.306293,360.69011 85.961593,360.82986 C 85.616878,360.9696 85.22093,361.11401 84.773749,361.26307 C 84.326554,361.41213 83.856075,361.54489 83.36231,361.66135 C 82.868535,361.7778 82.416688,361.83603 82.00677,361.83603 C 81.485047,361.83603 81.051833,361.77314 80.707128,361.64737 C 80.362418,361.5216 80.087584,361.34925 79.882625,361.13031 C 79.677662,360.91138 79.530928,360.65052 79.442424,360.34773 C 79.353916,360.04495 79.309663,359.71654 79.309664,359.36252 C 79.309663,359.17619 79.31665,358.98521 79.330626,358.78956 C 79.3446,358.59392 79.374878,358.39361 79.421462,358.18865 L 81.168292,349.49642 L 79.365563,349.66412 L 79.365563,348.72782 L 81.517658,347.77754 L 82.915122,344.91274 L 84.661952,344.91274 L 84.088991,348.18281 L 88.043815,348.18281 L 88.043815,349.49642 L 83.837448,349.49642 z M 109.27129,360.82986 C 109.02905,360.95097 108.75189,361.07208 108.4398,361.1932 C 108.12769,361.31431 107.8086,361.42145 107.48254,361.51461 C 107.15645,361.60778 106.83737,361.68464 106.52528,361.74519 C 106.21317,361.80575 105.94532,361.83603 105.72174,361.83603 C 105.48882,361.83603 105.26056,361.79643 105.03698,361.71725 C 104.81337,361.63806 104.60143,361.53558 104.40113,361.4098 C 104.20082,361.28403 104.01682,361.13963 103.84913,360.97659 C 103.68143,360.81355 103.54168,360.64819 103.4299,360.48049 C 103.29946,360.28485 103.15272,360.03097 102.98969,359.71887 C 102.82665,359.40677 102.6543,359.0644 102.47263,358.69174 C 102.29095,358.31908 102.10696,357.93012 101.92063,357.52485 C 101.7343,357.11959 101.55496,356.7283 101.38261,356.35098 C 101.21025,355.97367 101.05187,355.62198 100.90747,355.2959 C 100.76306,354.96983 100.63962,354.70431 100.53714,354.49934 L 99.223528,355.67321 L 98.049659,361.48666 L 95.422426,361.48666 L 99.223528,342.36936 L 96.708093,342.11781 L 96.708093,341.25138 L 101.13805,340.39893 L 102.28397,340.39893 L 99.628793,353.70279 L 104.2544,348.92346 C 104.52457,348.64398 104.77145,348.40408 104.99505,348.20377 C 105.21864,348.00348 105.43525,347.84044 105.64488,347.71466 C 105.85448,347.5889 106.06643,347.49573 106.28072,347.43516 C 106.49499,347.37462 106.7279,347.34434 106.97945,347.34433 C 107.2962,347.34434 107.57336,347.39092 107.81094,347.48407 C 108.0485,347.57725 108.24415,347.69837 108.39788,347.84741 C 108.55159,347.99649 108.66571,348.16419 108.74026,348.3505 C 108.81478,348.53684 108.84738,348.71851 108.83808,348.89551 C 108.83807,349.2216 108.68668,349.55932 108.38391,349.90867 C 108.08111,350.25805 107.59433,350.54919 106.92356,350.78209 L 105.94533,349.74797 C 105.68446,349.95294 105.40264,350.18119 105.09986,350.43272 C 104.79707,350.68428 104.49196,350.94048 104.18453,351.20133 C 103.87707,351.4622 103.58361,351.7184 103.30412,351.96993 C 103.02462,352.22149 102.77308,352.44508 102.54949,352.64072 C 102.6706,352.88295 102.80336,353.18574 102.94777,353.54907 C 103.09217,353.91242 103.24589,354.30138 103.40893,354.71595 C 103.57196,355.13054 103.74897,355.55443 103.93997,355.98764 C 104.13095,356.42086 104.33358,356.83311 104.54787,357.2244 C 104.76213,357.62501 104.98806,358.00931 105.22564,358.37731 C 105.46319,358.74531 105.70775,359.07138 105.95931,359.35553 C 106.21084,359.63968 106.46704,359.86561 106.72791,360.0333 C 106.98876,360.201 107.24496,360.28485 107.49652,360.28484 C 107.59898,360.28485 107.72476,360.2732 107.87383,360.24991 C 108.02288,360.22662 108.18126,360.19634 108.34897,360.15907 C 108.51665,360.12181 108.68202,360.07523 108.84507,360.01933 C 109.00809,359.96343 109.15017,359.90753 109.27129,359.85163 L 109.27129,360.82986 z M 120.33921,352.78046 C 120.3392,352.10037 120.27398,351.49946 120.14356,350.97773 C 120.01312,350.45603 119.83611,350.01815 119.61253,349.66412 C 119.38892,349.31011 119.12108,349.03993 118.80899,348.85359 C 118.49688,348.66727 118.15916,348.57411 117.79582,348.5741 C 117.17162,348.57411 116.59167,348.80003 116.05598,349.25187 C 115.52028,349.70372 115.05679,350.29532 114.6655,351.02665 C 114.27421,351.75799 113.96677,352.5825 113.74318,353.50016 C 113.51958,354.41783 113.40778,355.34249 113.40779,356.27412 C 113.40778,356.98218 113.473,357.60172 113.60343,358.13275 C 113.73386,358.66379 113.91553,359.10865 114.14844,359.46733 C 114.38135,359.82601 114.65153,360.09386 114.95897,360.27087 C 115.26641,360.44788 115.6018,360.53639 115.96515,360.53639 C 116.41233,360.53639 116.8339,360.42226 117.22985,360.19401 C 117.62579,359.96576 117.98447,359.65832 118.3059,359.27168 C 118.62731,358.88505 118.91379,358.43554 119.16534,357.92313 C 119.41687,357.41073 119.63115,356.86805 119.80817,356.29508 C 119.98517,355.72213 120.11793,355.13287 120.20645,354.52729 C 120.29495,353.92173 120.3392,353.33946 120.33921,352.78046 L 120.33921,352.78046 z M 123.23196,352.90623 C 123.23195,353.67951 123.14577,354.43646 122.97343,355.17711 C 122.80106,355.91778 122.55418,356.61884 122.23277,357.2803 C 121.91134,357.94177 121.52471,358.54966 121.07288,359.10399 C 120.62102,359.65832 120.11327,360.13811 119.54964,360.54338 C 118.98599,360.94864 118.37343,361.2654 117.71198,361.49365 C 117.0505,361.7219 116.35177,361.83603 115.61578,361.83603 C 114.8332,361.83603 114.12515,361.71026 113.49163,361.45871 C 112.85811,361.20717 112.32242,360.84616 111.88455,360.37568 C 111.44668,359.9052 111.10896,359.3369 110.87139,358.67077 C 110.63382,358.00465 110.51504,357.25701 110.51504,356.42784 C 110.51504,355.65459 110.59888,354.89297 110.76658,354.14299 C 110.93427,353.39303 111.17417,352.68265 111.48627,352.01186 C 111.79837,351.34108 112.17802,350.71921 112.62521,350.14624 C 113.07239,349.57329 113.57781,349.07952 114.14146,348.66493 C 114.70509,348.25036 115.31998,347.92662 115.98611,347.69369 C 116.65223,347.4608 117.35794,347.34434 118.10327,347.34433 C 118.79267,347.34434 119.44715,347.45148 120.0667,347.66574 C 120.68623,347.88004 121.23125,348.21543 121.70174,348.67192 C 122.1722,349.12844 122.54486,349.70605 122.81971,350.40477 C 123.09453,351.10352 123.23195,351.93734 123.23196,352.90623 L 123.23196,352.90623 z M 117.8098,343.13796 C 117.80979,343.35226 117.76787,343.55722 117.68403,343.75285 C 117.60017,343.94851 117.48605,344.12086 117.34165,344.26991 C 117.19724,344.41899 117.02954,344.53544 116.83856,344.61927 C 116.64757,344.70314 116.44494,344.74506 116.23066,344.74504 C 116.0257,344.74506 115.83005,344.70314 115.64373,344.61927 C 115.4574,344.53544 115.29436,344.41899 115.15462,344.26991 C 115.01487,344.12086 114.90307,343.95317 114.81923,343.76682 C 114.73537,343.58051 114.69345,343.38021 114.69345,343.16591 C 114.69345,342.96097 114.73537,342.76299 114.81923,342.57199 C 114.90307,342.38102 115.01487,342.211 115.15462,342.06191 C 115.29436,341.91287 115.4574,341.79409 115.64373,341.70556 C 115.83005,341.61707 116.0257,341.57282 116.23066,341.5728 C 116.44494,341.57282 116.64757,341.61474 116.83856,341.69857 C 117.02954,341.78244 117.19724,341.89424 117.34165,342.03396 C 117.48605,342.17373 117.60017,342.3391 117.68403,342.53006 C 117.76787,342.72107 117.80979,342.9237 117.8098,343.13796 L 117.8098,343.13796 z M 123.73505,343.13796 C 123.73503,343.35226 123.69544,343.55722 123.61626,343.75285 C 123.53706,343.94851 123.42759,344.12086 123.28786,344.26991 C 123.1481,344.41899 122.98273,344.53544 122.79176,344.61927 C 122.60076,344.70314 122.39813,344.74506 122.18386,344.74504 C 121.96957,344.74506 121.76694,344.70314 121.57596,344.61927 C 121.38497,344.53544 121.2196,344.41899 121.07986,344.26991 C 120.94011,344.12086 120.82831,343.94851 120.74447,343.75285 C 120.66061,343.55722 120.61869,343.35226 120.6187,343.13796 C 120.61869,342.94233 120.66294,342.74902 120.75146,342.55801 C 120.83996,342.36705 120.95641,342.19935 121.10083,342.05493 C 121.24522,341.91054 121.41292,341.79409 121.60391,341.70556 C 121.79489,341.61707 121.9882,341.57282 122.18386,341.5728 C 122.39813,341.57282 122.60076,341.61474 122.79176,341.69857 C 122.98273,341.78244 123.1481,341.89424 123.28786,342.03396 C 123.42759,342.17373 123.53706,342.3391 123.61626,342.53006 C 123.69544,342.72107 123.73503,342.9237 123.73505,343.13796 L 123.73505,343.13796 z M 139.191,360.9137 C 139.06987,360.96029 138.85792,361.03249 138.55515,361.13031 C 138.25236,361.22813 137.91464,361.33061 137.54199,361.43775 C 137.16932,361.54489 136.78735,361.63806 136.39607,361.71725 C 136.00477,361.79643 135.66006,361.83603 135.36195,361.83603 C 135.19424,361.83603 134.96366,361.81973 134.6702,361.78712 C 134.37673,361.75451 134.09491,361.67998 133.82474,361.56352 C 133.55455,361.44707 133.33562,361.27704 133.16793,361.05345 C 133.00023,360.82986 132.9583,360.52707 133.04216,360.1451 L 134.78899,351.35505 C 134.85419,350.97309 134.85652,350.65633 134.79598,350.40477 C 134.73541,350.15324 134.63759,349.95061 134.50251,349.79688 C 134.36741,349.64317 134.21136,349.53603 134.03436,349.47546 C 133.85734,349.41492 133.68964,349.38464 133.53127,349.38463 C 133.29835,349.38464 133.01187,349.45218 132.67183,349.58726 C 132.33177,349.72236 131.97309,349.9017 131.59578,350.12528 C 131.21846,350.34889 130.83882,350.61208 130.45685,350.91485 C 130.07487,351.21764 129.72551,351.53673 129.40875,351.87211 L 127.43833,361.48666 L 124.76917,361.48666 L 127.25666,349.32873 L 124.85302,349.06321 L 124.85302,348.2387 L 129.17118,347.34433 L 130.3171,347.34433 L 129.78607,350.01348 C 130.10282,349.69674 130.46616,349.37765 130.87609,349.05622 C 131.28601,348.73482 131.72388,348.44834 132.18971,348.19678 C 132.65552,347.94525 133.13764,347.74029 133.63608,347.5819 C 134.1345,347.42353 134.62128,347.34434 135.09643,347.34433 C 136.13986,347.34434 136.88284,347.63315 137.32539,348.21076 C 137.7679,348.78839 137.87737,349.72003 137.65379,351.00568 L 136.13055,359.08303 C 136.08396,359.3532 136.10492,359.56748 136.19344,359.72586 C 136.28193,359.88424 136.39839,360.00535 136.54281,360.0892 C 136.6872,360.17305 136.83859,360.22662 136.99698,360.24991 C 137.15535,360.2732 137.27646,360.28485 137.36032,360.28484 C 137.62117,360.28485 137.90532,360.24758 138.21278,360.17305 C 138.5202,360.09852 138.83696,360.01001 139.16305,359.90753 L 139.191,360.9137 z M 152.83025,349.66412 C 152.71844,349.77593 152.5554,349.98089 152.34113,350.279 C 152.12684,350.57714 151.90558,350.91253 151.67734,351.28518 C 151.44907,351.65784 151.22548,352.04215 151.00656,352.43808 C 150.78761,352.83404 150.61293,353.18108 150.48251,353.47919 C 150.27753,353.93571 150.03764,354.49003 149.76281,355.14218 C 149.48797,355.79433 149.18053,356.49539 148.84049,357.24536 C 148.50043,357.99534 148.1301,358.77326 147.7295,359.57913 C 147.32889,360.385 146.90033,361.17456 146.44384,361.94783 C 145.99664,362.70246 145.51917,363.44544 145.01143,364.17678 C 144.50368,364.90812 143.96566,365.56027 143.39736,366.13323 C 142.82906,366.70619 142.23048,367.16735 141.60162,367.51672 C 140.97276,367.86608 140.31828,368.04076 139.63819,368.04077 C 139.11647,368.04076 138.68325,367.97555 138.33854,367.84513 C 137.99384,367.71469 137.719,367.55398 137.51404,367.363 C 137.30908,367.17201 137.16701,366.96705 137.08781,366.74812 C 137.00863,366.52917 136.96903,366.3312 136.96903,366.15419 C 136.96903,365.93991 137.01794,365.73262 137.11576,365.53232 C 137.21359,365.33202 137.351,365.155 137.52801,365.00129 C 137.70503,364.84756 137.91465,364.72412 138.15687,364.63096 C 138.3991,364.53779 138.65996,364.48189 138.93945,364.46326 L 140.60244,366.12624 C 140.90056,366.09829 141.19403,365.97951 141.48284,365.76989 C 141.77164,365.56027 142.07676,365.24584 142.39818,364.8266 C 142.71959,364.40736 143.07128,363.88098 143.45326,363.24747 C 143.83523,362.61395 144.26844,361.85466 144.7529,360.9696 C 144.73427,360.85781 144.68768,360.60859 144.61316,360.22196 C 144.53862,359.83533 144.44779,359.36485 144.34065,358.81052 C 144.23351,358.2562 144.11239,357.64364 143.97731,356.97285 C 143.84222,356.30208 143.70014,355.62198 143.55108,354.93256 C 143.40202,354.26178 143.24597,353.58867 143.08293,352.91322 C 142.91989,352.23779 142.76151,351.62989 142.6078,351.08953 C 142.45407,350.54919 142.31666,350.10666 142.19554,349.76194 C 142.07443,349.41724 141.98126,349.24023 141.91605,349.2309 L 139.31677,349.03526 L 139.31677,348.32255 L 139.70806,348.19678 C 139.89439,348.13158 140.09935,348.06404 140.32294,347.99415 C 140.54654,347.92429 140.7841,347.84976 141.03565,347.77055 C 141.28719,347.69138 141.52476,347.62151 141.74836,347.56093 C 141.97195,347.50039 142.17458,347.44915 142.35625,347.40721 C 142.53792,347.3653 142.67068,347.34434 142.75453,347.34433 C 143.06197,347.34434 143.33214,347.41654 143.56506,347.56093 C 143.79797,347.70535 144.00526,347.91264 144.18693,348.18281 C 144.3686,348.453 144.53629,348.77674 144.69002,349.15404 C 144.84373,349.53137 144.99047,349.9576 145.13022,350.43272 C 145.37244,351.28053 145.62398,352.33095 145.88485,353.584 C 146.1457,354.83707 146.41588,356.2322 146.69538,357.76941 L 151.05547,347.34433 L 151.87997,347.34433 L 154.25566,348.12691 L 154.25566,348.78372 L 152.83025,349.66412 z M 166.87476,349.06321 C 166.87475,349.30545 166.85146,349.5337 166.80489,349.74797 C 166.75829,349.96226 166.70472,350.16256 166.64418,350.34888 C 166.58361,350.53521 166.5184,350.70291 166.44854,350.85196 C 166.37865,351.00104 166.32042,351.12215 166.27385,351.2153 C 165.64032,352.38918 164.96022,353.51181 164.23355,354.58319 C 163.50686,355.65459 162.79416,356.64446 162.09543,357.5528 C 161.39669,358.46116 160.73523,359.281 160.11104,360.01234 C 159.48683,360.74368 158.95579,361.35158 158.51793,361.83603 L 156.86892,361.83603 C 157.06456,361.41679 157.21362,361.02783 157.31611,360.66915 C 157.41858,360.31047 157.46051,359.97275 157.44188,359.65599 C 157.44188,359.62804 157.43256,359.48596 157.41393,359.22976 C 157.39529,358.97356 157.36967,358.64283 157.33707,358.23756 C 157.30446,357.8323 157.26486,357.36881 157.21828,356.84708 C 157.1717,356.32537 157.12046,355.78502 157.06456,355.22602 C 157.00866,354.66705 156.95043,354.10573 156.88988,353.54208 C 156.82932,352.97845 156.76411,352.45207 156.69424,351.96295 C 156.62436,351.47384 156.55449,351.04063 156.48462,350.6633 C 156.41474,350.286 156.34254,349.99952 156.26801,349.80386 C 156.17484,349.60823 156.08168,349.46383 155.98852,349.37065 C 155.89535,349.2775 155.76958,349.23092 155.6112,349.2309 L 153.5709,349.11911 L 153.5709,348.2946 L 156.63135,347.34433 C 157.41393,347.36297 157.98223,347.53766 158.33626,347.86838 C 158.69028,348.19912 158.90455,348.70454 158.97909,349.38463 L 159.87347,358.18865 C 160.35791,357.55514 160.8051,356.9519 161.21503,356.37893 C 161.62495,355.80598 161.99993,355.24932 162.33999,354.70896 C 162.68003,354.16862 162.9898,353.63059 163.2693,353.09489 C 163.54879,352.55921 163.80033,352.00721 164.02393,351.4389 L 163.47892,347.97319 C 163.66524,347.78687 163.89815,347.63548 164.17766,347.51901 C 164.45714,347.40257 164.7739,347.34434 165.12793,347.34433 C 165.7428,347.34434 166.18766,347.50039 166.46251,347.81248 C 166.73733,348.12459 166.87475,348.5415 166.87476,349.06321 L 166.87476,349.06321 z M 176.15392,350.20913 C 176.15391,350.02281 176.11664,349.83881 176.04212,349.65713 C 175.96758,349.47547 175.8651,349.31476 175.73468,349.17501 C 175.60424,349.03527 175.4412,348.92115 175.24557,348.83263 C 175.04991,348.74413 174.83564,348.69988 174.60273,348.69987 C 174.28597,348.69988 173.98318,348.78373 173.69438,348.95141 C 173.40557,349.11912 173.1284,349.34271 172.86289,349.62219 C 172.59737,349.9017 172.35048,350.22311 172.12224,350.58644 C 171.89398,350.9498 171.68902,351.33177 171.50735,351.73236 C 171.32568,352.13298 171.16497,352.53824 171.02523,352.94816 C 170.88548,353.35809 170.77368,353.74472 170.68983,354.10805 C 171.2954,354.05216 171.92193,353.91242 172.56942,353.68881 C 173.21691,353.46523 173.80617,353.17875 174.33722,352.82937 C 174.86824,352.48002 175.30379,352.08174 175.64384,351.63454 C 175.98388,351.18736 176.15391,350.71223 176.15392,350.20913 L 176.15392,350.20913 z M 178.6973,350.23708 C 178.69729,350.75881 178.57618,351.2386 178.33396,351.67647 C 178.09172,352.11435 177.76332,352.5103 177.34875,352.86431 C 176.93416,353.21834 176.45436,353.53277 175.90936,353.8076 C 175.36434,354.08244 174.79138,354.31535 174.19048,354.50633 C 173.58957,354.69732 172.97701,354.85105 172.35282,354.96749 C 171.72861,355.08396 171.13236,355.15616 170.56406,355.1841 C 170.53611,355.37044 170.51049,355.59403 170.4872,355.85488 C 170.46391,356.11575 170.45226,356.33468 170.45227,356.51169 C 170.45226,357.03342 170.51515,357.51321 170.64092,357.95108 C 170.76669,358.38895 170.94836,358.7686 171.18593,359.09001 C 171.4235,359.41143 171.70998,359.66298 172.04537,359.84464 C 172.38076,360.02632 172.75808,360.11715 173.17732,360.11715 C 173.82015,360.11715 174.52819,359.88424 175.30147,359.41842 C 176.07472,358.9526 176.98773,358.25853 178.0405,357.3362 L 178.0405,359.13892 C 177.77031,359.39979 177.43958,359.68627 177.0483,359.99836 C 176.657,360.31047 176.21214,360.60393 175.71372,360.87877 C 175.21528,361.1536 174.6726,361.38185 174.08567,361.56352 C 173.49873,361.74519 172.87919,361.83603 172.22705,361.83603 C 171.93823,361.83603 171.6238,361.80808 171.28376,361.75218 C 170.9437,361.69628 170.60598,361.59613 170.2706,361.45173 C 169.9352,361.30732 169.61146,361.10935 169.29936,360.8578 C 168.98726,360.60626 168.71242,360.28718 168.47485,359.90054 C 168.23728,359.51391 168.0463,359.05275 167.90189,358.51705 C 167.75749,357.98136 167.68529,357.35017 167.68529,356.62349 C 167.68529,355.86886 167.77612,355.11656 167.95779,354.36658 C 168.13946,353.61662 168.39566,352.89926 168.7264,352.21449 C 169.05713,351.52974 169.45541,350.89157 169.92123,350.29996 C 170.38705,349.70838 170.89945,349.19598 171.45844,348.76275 C 172.01742,348.32955 172.616,347.9895 173.25418,347.7426 C 173.89235,347.49573 174.55149,347.37229 175.23159,347.37228 C 175.89305,347.37229 176.44505,347.48176 176.88759,347.70068 C 177.33011,347.91963 177.68646,348.18282 177.95665,348.49025 C 178.22681,348.7977 178.4178,349.11446 178.52961,349.44052 C 178.64139,349.76661 178.69729,350.03213 178.6973,350.23708 L 178.6973,350.23708 z M 193.45452,360.82986 C 193.21228,360.95097 192.93512,361.07208 192.62303,361.1932 C 192.31092,361.31431 191.99183,361.42145 191.66577,361.51461 C 191.33968,361.60778 191.02059,361.68464 190.70851,361.74519 C 190.39639,361.80575 190.12855,361.83603 189.90496,361.83603 C 189.67204,361.83603 189.44379,361.79643 189.22021,361.71725 C 188.9966,361.63806 188.78465,361.53558 188.58436,361.4098 C 188.38405,361.28403 188.20005,361.13963 188.03236,360.97659 C 187.86466,360.81355 187.72491,360.64819 187.61312,360.48049 C 187.48268,360.28485 187.33595,360.03097 187.17292,359.71887 C 187.00988,359.40677 186.83752,359.0644 186.65586,358.69174 C 186.47418,358.31908 186.29018,357.93012 186.10386,357.52485 C 185.91753,357.11959 185.73819,356.7283 185.56584,356.35098 C 185.39348,355.97367 185.2351,355.62198 185.0907,355.2959 C 184.94629,354.96983 184.82285,354.70431 184.72037,354.49934 L 183.40676,355.67321 L 182.23289,361.48666 L 179.60565,361.48666 L 183.40676,342.36936 L 180.89132,342.11781 L 180.89132,341.25138 L 185.32128,340.39893 L 186.4672,340.39893 L 183.81202,353.70279 L 188.43763,348.92346 C 188.70779,348.64398 188.95468,348.40408 189.17828,348.20377 C 189.40187,348.00348 189.61847,347.84044 189.8281,347.71466 C 190.03771,347.5889 190.24966,347.49573 190.46395,347.43516 C 190.67822,347.37462 190.91113,347.34434 191.16268,347.34433 C 191.47943,347.34434 191.75659,347.39092 191.99417,347.48407 C 192.23173,347.57725 192.42737,347.69837 192.58111,347.84741 C 192.73481,347.99649 192.84894,348.16419 192.92349,348.3505 C 192.998,348.53684 193.03061,348.71851 193.02131,348.89551 C 193.02129,349.2216 192.8699,349.55932 192.56713,349.90867 C 192.26434,350.25805 191.77755,350.54919 191.10678,350.78209 L 190.12856,349.74797 C 189.86769,349.95294 189.58587,350.18119 189.28309,350.43272 C 188.9803,350.68428 188.67519,350.94048 188.36775,351.20133 C 188.0603,351.4622 187.76684,351.7184 187.48735,351.96993 C 187.20785,352.22149 186.95631,352.44508 186.73272,352.64072 C 186.85383,352.88295 186.98659,353.18574 187.131,353.54907 C 187.27539,353.91242 187.42912,354.30138 187.59216,354.71595 C 187.75519,355.13054 187.9322,355.55443 188.1232,355.98764 C 188.31417,356.42086 188.51681,356.83311 188.73109,357.2244 C 188.94536,357.62501 189.17129,358.00931 189.40886,358.37731 C 189.64642,358.74531 189.89098,359.07138 190.14253,359.35553 C 190.39406,359.63968 190.65027,359.86561 190.91114,360.0333 C 191.17199,360.201 191.42819,360.28485 191.67974,360.28484 C 191.78221,360.28485 191.90798,360.2732 192.05706,360.24991 C 192.20611,360.22662 192.36449,360.19634 192.5322,360.15907 C 192.69988,360.12181 192.86524,360.07523 193.0283,360.01933 C 193.19132,359.96343 193.33339,359.90753 193.45452,359.85163 L 193.45452,360.82986 z M 211.59362,350.20913 C 211.59361,350.02281 211.55634,349.83881 211.48182,349.65713 C 211.40728,349.47547 211.3048,349.31476 211.17438,349.17501 C 211.04394,349.03527 210.8809,348.92115 210.68526,348.83263 C 210.48961,348.74413 210.27533,348.69988 210.04243,348.69987 C 209.72567,348.69988 209.42288,348.78373 209.13408,348.95141 C 208.84526,349.11912 208.5681,349.34271 208.30259,349.62219 C 208.03706,349.9017 207.79018,350.22311 207.56193,350.58644 C 207.33367,350.9498 207.12871,351.33177 206.94705,351.73236 C 206.76537,352.13298 206.60467,352.53824 206.46492,352.94816 C 206.32517,353.35809 206.21338,353.74472 206.12953,354.10805 C 206.7351,354.05216 207.36162,353.91242 208.00912,353.68881 C 208.65661,353.46523 209.24587,353.17875 209.77691,352.82937 C 210.30794,352.48002 210.74348,352.08174 211.08354,351.63454 C 211.42358,351.18736 211.59361,350.71223 211.59362,350.20913 L 211.59362,350.20913 z M 214.137,350.23708 C 214.13699,350.75881 214.01588,351.2386 213.77366,351.67647 C 213.53142,352.11435 213.20302,352.5103 212.78845,352.86431 C 212.37386,353.21834 211.89406,353.53277 211.34906,353.8076 C 210.80404,354.08244 210.23108,354.31535 209.63018,354.50633 C 209.02926,354.69732 208.41671,354.85105 207.79251,354.96749 C 207.16831,355.08396 206.57206,355.15616 206.00376,355.1841 C 205.97581,355.37044 205.95019,355.59403 205.9269,355.85488 C 205.9036,356.11575 205.89196,356.33468 205.89196,356.51169 C 205.89196,357.03342 205.95485,357.51321 206.08062,357.95108 C 206.20639,358.38895 206.38806,358.7686 206.62563,359.09001 C 206.8632,359.41143 207.14968,359.66298 207.48507,359.84464 C 207.82046,360.02632 208.19777,360.11715 208.61702,360.11715 C 209.25984,360.11715 209.96789,359.88424 210.74116,359.41842 C 211.51442,358.9526 212.42743,358.25853 213.48019,357.3362 L 213.48019,359.13892 C 213.21001,359.39979 212.87927,359.68627 212.48799,359.99836 C 212.09669,360.31047 211.65183,360.60393 211.15342,360.87877 C 210.65498,361.1536 210.1123,361.38185 209.52537,361.56352 C 208.93843,361.74519 208.31889,361.83603 207.66674,361.83603 C 207.37793,361.83603 207.0635,361.80808 206.72345,361.75218 C 206.3834,361.69628 206.04568,361.59613 205.71029,361.45173 C 205.3749,361.30732 205.05115,361.10935 204.73906,360.8578 C 204.42695,360.60626 204.15212,360.28718 203.91455,359.90054 C 203.67698,359.51391 203.48599,359.05275 203.34159,358.51705 C 203.19719,357.98136 203.12498,357.35017 203.12498,356.62349 C 203.12498,355.86886 203.21582,355.11656 203.39749,354.36658 C 203.57916,353.61662 203.83536,352.89926 204.16609,352.21449 C 204.49683,351.52974 204.8951,350.89157 205.36093,350.29996 C 205.82674,349.70838 206.33915,349.19598 206.89814,348.76275 C 207.45712,348.32955 208.0557,347.9895 208.69388,347.7426 C 209.33205,347.49573 209.99118,347.37229 210.67129,347.37228 C 211.33275,347.37229 211.88474,347.48176 212.32728,347.70068 C 212.7698,347.91963 213.12616,348.18282 213.39634,348.49025 C 213.66651,348.7977 213.8575,349.11446 213.96931,349.44052 C 214.08109,349.76661 214.13699,350.03213 214.137,350.23708 L 214.137,350.23708 z M 223.84937,364.0021 C 223.84937,363.65739 223.74688,363.34063 223.54193,363.05182 C 223.33696,362.76301 222.95499,362.48818 222.39601,362.22732 L 218.8185,360.60626 C 218.362,360.71806 217.98235,360.87178 217.67957,361.06742 C 217.37678,361.26307 217.13689,361.48433 216.95988,361.73122 C 216.78286,361.9781 216.65709,362.24129 216.58256,362.52079 C 216.50803,362.80028 216.47076,363.08443 216.47076,363.37324 C 216.47076,363.69931 216.54064,364.058 216.68038,364.44929 C 216.82013,364.84057 217.03673,365.20391 217.3302,365.53931 C 217.62367,365.8747 217.994,366.15652 218.44119,366.38478 C 218.88837,366.61302 219.41475,366.72715 220.02032,366.72715 C 220.70973,366.72715 221.29667,366.62933 221.78113,366.43369 C 222.26557,366.23804 222.66152,366.00047 222.96897,365.72098 C 223.27641,365.44148 223.5,365.14569 223.63975,364.83359 C 223.77949,364.52149 223.84937,364.24432 223.84937,364.0021 L 223.84937,364.0021 z M 223.54193,351.2153 C 223.54192,350.86129 223.50932,350.52357 223.44411,350.20214 C 223.37889,349.88074 223.27873,349.59659 223.14366,349.34969 C 223.00856,349.10282 222.8362,348.90717 222.62659,348.76275 C 222.41697,348.61836 222.16775,348.54616 221.87895,348.54615 C 221.53424,348.54616 221.18021,348.67193 220.81688,348.92346 C 220.45353,349.17502 220.12047,349.51973 219.81769,349.95759 C 219.5149,350.39547 219.26802,350.90787 219.07703,351.4948 C 218.88604,352.08174 218.79055,352.7106 218.79055,353.38137 C 218.79055,353.72609 218.82782,354.04518 218.90235,354.33864 C 218.97688,354.63211 219.08635,354.88365 219.23076,355.09327 C 219.37516,355.30289 219.54751,355.46593 219.74782,355.58238 C 219.94812,355.69884 220.17404,355.75707 220.42559,355.75706 C 220.90072,355.75707 221.3316,355.60568 221.71824,355.30289 C 222.10487,355.00011 222.43327,354.62046 222.70345,354.16395 C 222.97362,353.70746 223.18091,353.21368 223.32533,352.68264 C 223.46972,352.15161 223.54192,351.6625 223.54193,351.2153 L 223.54193,351.2153 z M 225.91762,349.44052 C 226.00146,349.65481 226.08298,349.92965 226.16218,350.26503 C 226.24136,350.60043 226.28095,350.96377 226.28096,351.35505 C 226.28095,352.26807 226.11325,353.06462 225.77787,353.74471 C 225.44247,354.42482 224.99063,354.99312 224.42233,355.44962 C 223.85402,355.90613 223.19489,356.24851 222.44492,356.47676 C 221.69494,356.70501 220.90538,356.81914 220.07622,356.81913 C 220.011,356.95888 219.9551,357.11261 219.90853,357.2803 C 219.86194,357.448 219.82467,357.61336 219.79673,357.7764 C 219.76877,357.93944 219.75014,358.0885 219.74083,358.22359 C 219.73151,358.35868 219.74083,358.46349 219.76878,358.53801 L 223.59783,360.28484 C 224.03569,360.48049 224.43397,360.67846 224.79266,360.87877 C 225.15133,361.07907 225.45878,361.29801 225.71499,361.53558 C 225.97118,361.77314 226.16915,362.04332 226.30891,362.3461 C 226.44865,362.64889 226.51852,363.0099 226.51853,363.42914 C 226.51852,363.83906 226.42303,364.23734 226.23205,364.62397 C 226.04105,365.0106 225.78019,365.37394 225.44947,365.71399 C 225.11873,366.05404 224.72278,366.36847 224.26163,366.65728 C 223.80045,366.94608 223.30203,367.19297 222.76634,367.39794 C 222.23064,367.60289 221.66699,367.76127 221.07541,367.87307 C 220.48381,367.98487 219.88523,368.04076 219.27967,368.04077 C 218.3387,368.04076 217.52352,367.92431 216.8341,367.6914 C 216.14469,367.45849 215.57406,367.15105 215.12221,366.76908 C 214.67036,366.3871 214.33497,365.94457 214.11604,365.44149 C 213.8971,364.9384 213.78763,364.41202 213.78763,363.86235 C 213.78763,363.3779 213.88779,362.93071 214.08809,362.52079 C 214.28839,362.11086 214.5609,361.74287 214.9056,361.41679 C 215.25031,361.09072 215.65325,360.80191 216.11441,360.55036 C 216.57557,360.29882 217.06701,360.08454 217.58874,359.90753 C 217.54215,359.68394 217.53982,359.42075 217.58175,359.11796 C 217.62367,358.81518 217.69354,358.50774 217.79137,358.19564 C 217.88919,357.88354 218.01729,357.58308 218.17567,357.29427 C 218.33405,357.00547 218.51106,356.76324 218.70671,356.56759 C 218.32473,356.3999 217.97071,356.20658 217.64463,355.98764 C 217.31856,355.76871 217.03673,355.51717 216.79917,355.23301 C 216.5616,354.94887 216.37527,354.62279 216.24018,354.25479 C 216.10509,353.8868 216.03755,353.47454 216.03755,353.01803 C 216.03755,352.31931 216.16798,351.63222 216.42884,350.95677 C 216.6897,350.28134 217.06934,349.67578 217.56777,349.14007 C 218.0662,348.60439 218.67177,348.17117 219.38448,347.84043 C 220.09718,347.50971 220.91004,347.34434 221.82305,347.34433 C 222.16775,347.34434 222.4915,347.37462 222.79429,347.43516 C 223.09706,347.49573 223.3719,347.56561 223.61879,347.64478 C 223.86567,347.72399 224.07995,347.8055 224.26163,347.88934 C 224.44329,347.9732 224.57605,348.04307 224.6599,348.09896 L 228.54485,348.09896 L 228.54485,349.44052 L 225.91762,349.44052 z M 240.81459,349.66412 C 240.70278,349.77593 240.53974,349.98089 240.32548,350.279 C 240.11119,350.57714 239.88992,350.91253 239.66168,351.28518 C 239.43342,351.65784 239.20982,352.04215 238.9909,352.43808 C 238.77195,352.83404 238.59727,353.18108 238.46685,353.47919 C 238.26188,353.93571 238.02198,354.49003 237.74716,355.14218 C 237.47231,355.79433 237.16487,356.49539 236.82483,357.24536 C 236.48477,357.99534 236.11444,358.77326 235.71385,359.57913 C 235.31323,360.385 234.88468,361.17456 234.42818,361.94783 C 233.98098,362.70246 233.50352,363.44544 232.99578,364.17678 C 232.48803,364.90812 231.95001,365.56027 231.38171,366.13323 C 230.8134,366.70619 230.21482,367.16735 229.58597,367.51672 C 228.95711,367.86608 228.30263,368.04076 227.62253,368.04077 C 227.10081,368.04076 226.6676,367.97555 226.32289,367.84513 C 225.97818,367.71469 225.70335,367.55398 225.49838,367.363 C 225.29343,367.17201 225.15135,366.96705 225.07216,366.74812 C 224.99297,366.52917 224.95338,366.3312 224.95337,366.15419 C 224.95338,365.93991 225.00229,365.73262 225.10011,365.53232 C 225.19793,365.33202 225.33535,365.155 225.51236,365.00129 C 225.68937,364.84756 225.89899,364.72412 226.14122,364.63096 C 226.38345,364.53779 226.64431,364.48189 226.9238,364.46326 L 228.58678,366.12624 C 228.8849,366.09829 229.17837,365.97951 229.46718,365.76989 C 229.75599,365.56027 230.0611,365.24584 230.38252,364.8266 C 230.70393,364.40736 231.05563,363.88098 231.43761,363.24747 C 231.81958,362.61395 232.25279,361.85466 232.73725,360.9696 C 232.71861,360.85781 232.67203,360.60859 232.5975,360.22196 C 232.52297,359.83533 232.43213,359.36485 232.325,358.81052 C 232.21785,358.2562 232.09674,357.64364 231.96166,356.97285 C 231.82656,356.30208 231.68449,355.62198 231.53543,354.93256 C 231.38636,354.26178 231.23031,353.58867 231.06728,352.91322 C 230.90424,352.23779 230.74586,351.62989 230.59214,351.08953 C 230.43842,350.54919 230.301,350.10666 230.17989,349.76194 C 230.05877,349.41724 229.96561,349.24023 229.9004,349.2309 L 227.30111,349.03526 L 227.30111,348.32255 L 227.6924,348.19678 C 227.87873,348.13158 228.08369,348.06404 228.30729,347.99415 C 228.53088,347.92429 228.76845,347.84976 229.01999,347.77055 C 229.27154,347.69138 229.5091,347.62151 229.7327,347.56093 C 229.95629,347.50039 230.15892,347.44915 230.3406,347.40721 C 230.52226,347.3653 230.65502,347.34434 230.73887,347.34433 C 231.04631,347.34434 231.31649,347.41654 231.5494,347.56093 C 231.78231,347.70535 231.9896,347.91264 232.17128,348.18281 C 232.35294,348.453 232.52064,348.77674 232.67436,349.15404 C 232.82808,349.53137 232.97481,349.9576 233.11456,350.43272 C 233.35678,351.28053 233.60833,352.33095 233.86919,353.584 C 234.13005,354.83707 234.40022,356.2322 234.67972,357.76941 L 239.03981,347.34433 L 239.86431,347.34433 L 242.24,348.12691 L 242.24,348.78372 L 240.81459,349.66412 z M 264.96277,360.9137 C 264.84164,360.96029 264.62969,361.03249 264.32692,361.13031 C 264.02412,361.22813 263.6864,361.33061 263.31376,361.43775 C 262.94109,361.54489 262.55912,361.63806 262.16784,361.71725 C 261.77654,361.79643 261.43183,361.83603 261.13372,361.83603 C 260.96601,361.83603 260.73543,361.81973 260.44197,361.78712 C 260.14849,361.75451 259.86667,361.67998 259.59651,361.56352 C 259.32632,361.44707 259.10738,361.27704 258.9397,361.05345 C 258.77199,360.82986 258.73007,360.52707 258.81393,360.1451 L 260.56076,351.35505 C 260.62596,350.97309 260.62829,350.65633 260.56774,350.40477 C 260.50718,350.15324 260.40935,349.95061 260.27428,349.79688 C 260.13918,349.64317 259.98313,349.53603 259.80613,349.47546 C 259.6291,349.41492 259.46141,349.38464 259.30304,349.38463 C 259.07012,349.38464 258.78364,349.45218 258.4436,349.58726 C 258.10354,349.72236 257.74486,349.9017 257.36755,350.12528 C 256.99023,350.34889 256.61058,350.61208 256.22862,350.91485 C 255.84664,351.21764 255.49727,351.53673 255.18052,351.87211 L 253.2101,361.48666 L 250.54094,361.48666 L 253.02842,349.32873 L 250.62479,349.06321 L 250.62479,348.2387 L 254.94295,347.34433 L 256.08887,347.34433 L 255.55783,350.01348 C 255.87459,349.69674 256.23793,349.37765 256.64786,349.05622 C 257.05777,348.73482 257.49564,348.44834 257.96147,348.19678 C 258.42729,347.94525 258.90941,347.74029 259.40785,347.5819 C 259.90627,347.42353 260.39305,347.34434 260.8682,347.34433 C 261.91163,347.34434 262.65461,347.63315 263.09715,348.21076 C 263.53967,348.78839 263.64914,349.72003 263.42556,351.00568 L 261.90232,359.08303 C 261.85573,359.3532 261.87669,359.56748 261.96521,359.72586 C 262.0537,359.88424 262.17016,360.00535 262.31457,360.0892 C 262.45897,360.17305 262.61036,360.22662 262.76875,360.24991 C 262.92712,360.2732 263.04823,360.28485 263.13209,360.28484 C 263.39294,360.28485 263.67709,360.24758 263.98454,360.17305 C 264.29197,360.09852 264.60873,360.01001 264.93482,359.90753 L 264.96277,360.9137 z M 278.60201,349.66412 C 278.49019,349.77593 278.32716,349.98089 278.11289,350.279 C 277.8986,350.57714 277.67734,350.91253 277.4491,351.28518 C 277.22083,351.65784 276.99724,352.04215 276.77831,352.43808 C 276.55937,352.83404 276.38468,353.18108 276.25427,353.47919 C 276.04929,353.93571 275.8094,354.49003 275.53457,355.14218 C 275.25973,355.79433 274.95228,356.49539 274.61225,357.24536 C 274.27219,357.99534 273.90186,358.77326 273.50126,359.57913 C 273.10065,360.385 272.67209,361.17456 272.21559,361.94783 C 271.7684,362.70246 271.29093,363.44544 270.78319,364.17678 C 270.27544,364.90812 269.73742,365.56027 269.16912,366.13323 C 268.60082,366.70619 268.00224,367.16735 267.37338,367.51672 C 266.74452,367.86608 266.09004,368.04076 265.40994,368.04077 C 264.88822,368.04076 264.45501,367.97555 264.1103,367.84513 C 263.7656,367.71469 263.49076,367.55398 263.2858,367.363 C 263.08084,367.17201 262.93876,366.96705 262.85957,366.74812 C 262.78039,366.52917 262.74079,366.3312 262.74079,366.15419 C 262.74079,365.93991 262.7897,365.73262 262.88752,365.53232 C 262.98535,365.33202 263.12276,365.155 263.29977,365.00129 C 263.47679,364.84756 263.68641,364.72412 263.92863,364.63096 C 264.17086,364.53779 264.43172,364.48189 264.71121,364.46326 L 266.37419,366.12624 C 266.67232,366.09829 266.96579,365.97951 267.2546,365.76989 C 267.5434,365.56027 267.84852,365.24584 268.16994,364.8266 C 268.49135,364.40736 268.84304,363.88098 269.22502,363.24747 C 269.60699,362.61395 270.0402,361.85466 270.52466,360.9696 C 270.50602,360.85781 270.45944,360.60859 270.38492,360.22196 C 270.31038,359.83533 270.21954,359.36485 270.11241,358.81052 C 270.00527,358.2562 269.88415,357.64364 269.74907,356.97285 C 269.61398,356.30208 269.4719,355.62198 269.32284,354.93256 C 269.17378,354.26178 269.01773,353.58867 268.85469,352.91322 C 268.69165,352.23779 268.53327,351.62989 268.37956,351.08953 C 268.22583,350.54919 268.08841,350.10666 267.9673,349.76194 C 267.84619,349.41724 267.75302,349.24023 267.68781,349.2309 L 265.08853,349.03526 L 265.08853,348.32255 L 265.47982,348.19678 C 265.66615,348.13158 265.87111,348.06404 266.0947,347.99415 C 266.31829,347.92429 266.55586,347.84976 266.80741,347.77055 C 267.05895,347.69138 267.29652,347.62151 267.52012,347.56093 C 267.74371,347.50039 267.94634,347.44915 268.12801,347.40721 C 268.30968,347.3653 268.44244,347.34434 268.52629,347.34433 C 268.83373,347.34434 269.1039,347.41654 269.33682,347.56093 C 269.56972,347.70535 269.77701,347.91264 269.95869,348.18281 C 270.14036,348.453 270.30805,348.77674 270.46178,349.15404 C 270.61549,349.53137 270.76223,349.9576 270.90198,350.43272 C 271.1442,351.28053 271.39574,352.33095 271.65661,353.584 C 271.91746,354.83707 272.18764,356.2322 272.46714,357.76941 L 276.82723,347.34433 L 277.65173,347.34433 L 280.02742,348.12691 L 280.02742,348.78372 L 278.60201,349.66412 z M 286.81911,360.66216 C 286.70731,360.70874 286.50235,360.79725 286.20423,360.92768 C 285.90609,361.05811 285.55673,361.19087 285.15613,361.32596 C 284.75552,361.46104 284.33395,361.57983 283.89142,361.68231 C 283.44889,361.78479 283.03198,361.83603 282.64069,361.83603 C 282.14692,361.83603 281.75563,361.75218 281.46682,361.58449 C 281.17801,361.41679 280.96373,361.19785 280.82399,360.92768 C 280.68424,360.6575 280.60505,360.35472 280.58642,360.01933 C 280.56779,359.68394 280.59108,359.3532 280.65629,359.02713 L 282.48697,349.32873 L 280.02744,349.06321 L 280.02744,348.2387 L 284.3456,347.34433 L 285.51947,347.34433 L 283.3534,358.78956 C 283.31613,358.98521 283.31846,359.17153 283.36039,359.34854 C 283.40231,359.52556 283.47218,359.68161 283.57001,359.81669 C 283.66782,359.95178 283.7936,360.05892 283.94732,360.13811 C 284.10104,360.2173 284.27572,360.2569 284.47137,360.2569 C 284.63906,360.2569 284.83704,360.22662 285.06529,360.16606 C 285.29354,360.1055 285.52179,360.03563 285.75005,359.95644 C 285.9783,359.87725 286.19025,359.80039 286.3859,359.72586 C 286.58153,359.65133 286.72594,359.60009 286.81911,359.57214 L 286.81911,360.66216 z M 286.69334,343.13796 C 286.69333,343.35226 286.65374,343.55489 286.57455,343.74586 C 286.49536,343.93686 286.38356,344.10689 286.23916,344.25593 C 286.09475,344.40501 285.91541,344.5238 285.70114,344.61229 C 285.48686,344.70081 285.23997,344.74506 284.96048,344.74504 C 284.37354,344.74506 283.93101,344.58901 283.63289,344.27689 C 283.33476,343.96481 283.1857,343.58517 283.1857,343.13796 C 283.1857,342.95165 283.2253,342.76532 283.30449,342.57898 C 283.38367,342.39267 283.50013,342.22264 283.65385,342.0689 C 283.80757,341.9152 283.99623,341.78943 284.21983,341.69159 C 284.44342,341.59378 284.69962,341.54487 284.98843,341.54485 C 285.2586,341.54487 285.4985,341.59145 285.70813,341.6846 C 285.91774,341.77778 286.09708,341.8989 286.24615,342.04794 C 286.39521,342.19702 286.507,342.36705 286.58154,342.55801 C 286.65607,342.74902 286.69333,342.94233 286.69334,343.13796 L 286.69334,343.13796 z M 292.67448,349.49642 L 290.87176,358.48212 C 290.81585,358.73366 290.82517,358.95959 290.8997,359.15989 C 290.97423,359.36019 291.09302,359.52789 291.25606,359.66297 C 291.41909,359.79806 291.61008,359.90287 291.82902,359.9774 C 292.04795,360.05194 292.27853,360.0892 292.52076,360.0892 C 292.79093,360.0892 293.07043,360.06358 293.35924,360.01234 C 293.64804,359.9611 293.92521,359.89821 294.19073,359.82368 C 294.45624,359.74915 294.70313,359.67229 294.93139,359.5931 C 295.15963,359.51391 295.34829,359.44637 295.49736,359.39047 L 295.49736,360.53639 C 295.37624,360.59229 295.14333,360.69011 294.79863,360.82986 C 294.45391,360.9696 294.05797,361.11401 293.61079,361.26307 C 293.16359,361.41213 292.69311,361.54489 292.19935,361.66135 C 291.70557,361.7778 291.25372,361.83603 290.84381,361.83603 C 290.32208,361.83603 289.88887,361.77314 289.54416,361.64737 C 289.19945,361.5216 288.92462,361.34925 288.71966,361.13031 C 288.5147,360.91138 288.36796,360.65052 288.27946,360.34773 C 288.19095,360.04495 288.1467,359.71654 288.1467,359.36252 C 288.1467,359.17619 288.15369,358.98521 288.16766,358.78956 C 288.18164,358.59392 288.21191,358.39361 288.2585,358.18865 L 290.00533,349.49642 L 288.2026,349.66412 L 288.2026,348.72782 L 290.35469,347.77754 L 291.75216,344.91274 L 293.49899,344.91274 L 292.92603,348.18281 L 296.88085,348.18281 L 296.88085,349.49642 L 292.67448,349.49642 z M 306.20193,352.78046 C 306.20191,352.10037 306.1367,351.49946 306.00628,350.97773 C 305.87584,350.45603 305.69883,350.01815 305.47524,349.66412 C 305.25164,349.31011 304.98379,349.03993 304.6717,348.85359 C 304.35959,348.66727 304.02187,348.57411 303.65854,348.5741 C 303.03433,348.57411 302.45439,348.80003 301.9187,349.25187 C 301.383,349.70372 300.91951,350.29532 300.52822,351.02665 C 300.13693,351.75799 299.82949,352.5825 299.6059,353.50016 C 299.3823,354.41783 299.2705,355.34249 299.2705,356.27412 C 299.2705,356.98218 299.33571,357.60172 299.46615,358.13275 C 299.59657,358.66379 299.77824,359.10865 300.01116,359.46733 C 300.24407,359.82601 300.51424,360.09386 300.82169,360.27087 C 301.12913,360.44788 301.46452,360.53639 301.82786,360.53639 C 302.27504,360.53639 302.69661,360.42226 303.09257,360.19401 C 303.48851,359.96576 303.84719,359.65832 304.16862,359.27168 C 304.49002,358.88505 304.7765,358.43554 305.02806,357.92313 C 305.27959,357.41073 305.49387,356.86805 305.67089,356.29508 C 305.84789,355.72213 305.98065,355.13287 306.06917,354.52729 C 306.15766,353.92173 306.20191,353.33946 306.20193,352.78046 L 306.20193,352.78046 z M 309.09468,352.90623 C 309.09466,353.67951 309.00849,354.43646 308.83615,355.17711 C 308.66378,355.91778 308.41689,356.61884 308.09549,357.2803 C 307.77406,357.94177 307.38743,358.54966 306.93559,359.10399 C 306.48374,359.65832 305.97599,360.13811 305.41236,360.54338 C 304.84871,360.94864 304.23615,361.2654 303.57469,361.49365 C 302.91322,361.7219 302.21449,361.83603 301.4785,361.83603 C 300.69591,361.83603 299.98786,361.71026 299.35435,361.45871 C 298.72083,361.20717 298.18514,360.84616 297.74727,360.37568 C 297.30939,359.9052 296.97167,359.3369 296.73411,358.67077 C 296.49654,358.00465 296.37775,357.25701 296.37775,356.42784 C 296.37775,355.65459 296.4616,354.89297 296.6293,354.14299 C 296.79699,353.39303 297.03689,352.68265 297.34899,352.01186 C 297.66109,351.34108 298.04073,350.71921 298.48792,350.14624 C 298.93511,349.57329 299.44052,349.07952 300.00417,348.66493 C 300.56781,348.25036 301.18269,347.92662 301.84882,347.69369 C 302.51494,347.4608 303.22066,347.34434 303.96598,347.34433 C 304.65539,347.34434 305.30987,347.45148 305.92942,347.66574 C 306.54895,347.88004 307.09396,348.21543 307.56445,348.67192 C 308.03492,349.12844 308.40758,349.70605 308.68242,350.40477 C 308.95725,351.10352 309.09466,351.93734 309.09468,352.90623 L 309.09468,352.90623 z M 315.81648,349.49642 L 314.01375,358.48212 C 313.95785,358.73366 313.96717,358.95959 314.0417,359.15989 C 314.11623,359.36019 314.23501,359.52789 314.39806,359.66297 C 314.56109,359.79806 314.75208,359.90287 314.97102,359.9774 C 315.18995,360.05194 315.42053,360.0892 315.66276,360.0892 C 315.93293,360.0892 316.21242,360.06358 316.50124,360.01234 C 316.79004,359.9611 317.06721,359.89821 317.33273,359.82368 C 317.59824,359.74915 317.84513,359.67229 318.07339,359.5931 C 318.30163,359.51391 318.49029,359.44637 318.63936,359.39047 L 318.63936,360.53639 C 318.51824,360.59229 318.28533,360.69011 317.94063,360.82986 C 317.59591,360.9696 317.19996,361.11401 316.75278,361.26307 C 316.30559,361.41213 315.83511,361.54489 315.34134,361.66135 C 314.84757,361.7778 314.39572,361.83603 313.9858,361.83603 C 313.46408,361.83603 313.03087,361.77314 312.68616,361.64737 C 312.34145,361.5216 312.06662,361.34925 311.86166,361.13031 C 311.6567,360.91138 311.50996,360.65052 311.42146,360.34773 C 311.33295,360.04495 311.2887,359.71654 311.2887,359.36252 C 311.2887,359.17619 311.29568,358.98521 311.30966,358.78956 C 311.32363,358.59392 311.35391,358.39361 311.4005,358.18865 L 313.14733,349.49642 L 311.3446,349.66412 L 311.3446,348.72782 L 313.49669,347.77754 L 314.89416,344.91274 L 316.64099,344.91274 L 316.06803,348.18281 L 320.02285,348.18281 L 320.02285,349.49642 L 315.81648,349.49642 z M 324.42485,349.49642 L 322.62212,358.48212 C 322.56622,358.73366 322.57554,358.95959 322.65007,359.15989 C 322.7246,359.36019 322.84338,359.52789 323.00642,359.66297 C 323.16946,359.79806 323.36044,359.90287 323.57938,359.9774 C 323.79832,360.05194 324.0289,360.0892 324.27113,360.0892 C 324.5413,360.0892 324.82079,360.06358 325.10961,360.01234 C 325.39841,359.9611 325.67557,359.89821 325.9411,359.82368 C 326.20661,359.74915 326.45349,359.67229 326.68175,359.5931 C 326.91,359.51391 327.09866,359.44637 327.24773,359.39047 L 327.24773,360.53639 C 327.12661,360.59229 326.8937,360.69011 326.549,360.82986 C 326.20428,360.9696 325.80833,361.11401 325.36115,361.26307 C 324.91396,361.41213 324.44348,361.54489 323.94971,361.66135 C 323.45594,361.7778 323.00409,361.83603 322.59417,361.83603 C 322.07245,361.83603 321.63924,361.77314 321.29453,361.64737 C 320.94982,361.5216 320.67499,361.34925 320.47003,361.13031 C 320.26506,360.91138 320.11833,360.65052 320.02983,360.34773 C 319.94132,360.04495 319.89707,359.71654 319.89707,359.36252 C 319.89707,359.17619 319.90405,358.98521 319.91803,358.78956 C 319.932,358.59392 319.96228,358.39361 320.00886,358.18865 L 321.75569,349.49642 L 319.95297,349.66412 L 319.95297,348.72782 L 322.10506,347.77754 L 323.50252,344.91274 L 325.24935,344.91274 L 324.67639,348.18281 L 328.63122,348.18281 L 328.63122,349.49642 L 324.42485,349.49642 z M 348.99227,349.06321 C 348.99226,349.30545 348.96897,349.5337 348.9224,349.74797 C 348.8758,349.96226 348.82223,350.16256 348.76169,350.34888 C 348.70112,350.53521 348.6359,350.70291 348.56604,350.85196 C 348.49616,351.00104 348.43793,351.12215 348.39136,351.2153 C 347.75783,352.38918 347.07773,353.51181 346.35106,354.58319 C 345.62437,355.65459 344.91167,356.64446 344.21294,357.5528 C 343.5142,358.46116 342.85274,359.281 342.22854,360.01234 C 341.60434,360.74368 341.0733,361.35158 340.63543,361.83603 L 338.98643,361.83603 C 339.18207,361.41679 339.33113,361.02783 339.43362,360.66915 C 339.53609,360.31047 339.57802,359.97275 339.55939,359.65599 C 339.55938,359.62804 339.55007,359.48596 339.53144,359.22976 C 339.5128,358.97356 339.48718,358.64283 339.45458,358.23756 C 339.42197,357.8323 339.38237,357.36881 339.33579,356.84708 C 339.28921,356.32537 339.23797,355.78502 339.18207,355.22602 C 339.12617,354.66705 339.06794,354.10573 339.00739,353.54208 C 338.94683,352.97845 338.88161,352.45207 338.81174,351.96295 C 338.74187,351.47384 338.67199,351.04063 338.60212,350.6633 C 338.53225,350.286 338.46005,349.99952 338.38552,349.80386 C 338.29235,349.60823 338.19919,349.46383 338.10602,349.37065 C 338.01286,349.2775 337.88709,349.23092 337.72871,349.2309 L 335.68841,349.11911 L 335.68841,348.2946 L 338.74886,347.34433 C 339.53143,347.36297 340.09974,347.53766 340.45376,347.86838 C 340.80778,348.19912 341.02206,348.70454 341.0966,349.38463 L 341.99097,358.18865 C 342.47542,357.55514 342.92261,356.9519 343.33254,356.37893 C 343.74245,355.80598 344.11744,355.24932 344.4575,354.70896 C 344.79754,354.16862 345.10731,353.63059 345.38681,353.09489 C 345.6663,352.55921 345.91784,352.00721 346.14144,351.4389 L 345.59643,347.97319 C 345.78275,347.78687 346.01566,347.63548 346.29516,347.51901 C 346.57465,347.40257 346.8914,347.34434 347.24544,347.34433 C 347.86031,347.34434 348.30517,347.50039 348.58002,347.81248 C 348.85484,348.12459 348.99226,348.5415 348.99227,349.06321 L 348.99227,349.06321 z M 356.4128,360.66216 C 356.301,360.70874 356.09603,360.79725 355.79792,360.92768 C 355.49978,361.05811 355.15042,361.19087 354.74982,361.32596 C 354.34921,361.46104 353.92764,361.57983 353.48511,361.68231 C 353.04258,361.78479 352.62567,361.83603 352.23438,361.83603 C 351.74061,361.83603 351.34932,361.75218 351.06051,361.58449 C 350.7717,361.41679 350.55742,361.19785 350.41768,360.92768 C 350.27793,360.6575 350.19874,360.35472 350.18011,360.01933 C 350.16148,359.68394 350.18477,359.3532 350.24998,359.02713 L 352.08066,349.32873 L 349.62112,349.06321 L 349.62112,348.2387 L 353.93929,347.34433 L 355.11316,347.34433 L 352.94709,358.78956 C 352.90982,358.98521 352.91215,359.17153 352.95408,359.34854 C 352.996,359.52556 353.06587,359.68161 353.1637,359.81669 C 353.26151,359.95178 353.38729,360.05892 353.54101,360.13811 C 353.69473,360.2173 353.86941,360.2569 354.06506,360.2569 C 354.23275,360.2569 354.43072,360.22662 354.65898,360.16606 C 354.88723,360.1055 355.11548,360.03563 355.34374,359.95644 C 355.57199,359.87725 355.78393,359.80039 355.97959,359.72586 C 356.17522,359.65133 356.31963,359.60009 356.4128,359.57214 L 356.4128,360.66216 z M 356.28703,343.13796 C 356.28702,343.35226 356.24743,343.55489 356.16824,343.74586 C 356.08905,343.93686 355.97725,344.10689 355.83285,344.25593 C 355.68844,344.40501 355.5091,344.5238 355.29483,344.61229 C 355.08054,344.70081 354.83366,344.74506 354.55417,344.74504 C 353.96723,344.74506 353.5247,344.58901 353.22658,344.27689 C 352.92845,343.96481 352.77939,343.58517 352.77939,343.13796 C 352.77939,342.95165 352.81898,342.76532 352.89818,342.57898 C 352.97736,342.39267 353.09382,342.22264 353.24754,342.0689 C 353.40126,341.9152 353.58992,341.78943 353.81352,341.69159 C 354.03711,341.59378 354.29331,341.54487 354.58212,341.54485 C 354.85229,341.54487 355.09219,341.59145 355.30182,341.6846 C 355.51143,341.77778 355.69077,341.8989 355.83984,342.04794 C 355.9889,342.19702 356.10069,342.36705 356.17523,342.55801 C 356.24975,342.74902 356.28702,342.94233 356.28703,343.13796 L 356.28703,343.13796 z M 364.015,360.74601 C 363.9032,360.79259 363.69358,360.87411 363.38614,360.99056 C 363.0787,361.10702 362.73399,361.22813 362.35202,361.3539 C 361.97004,361.47968 361.57177,361.59147 361.15719,361.6893 C 360.7426,361.78712 360.36762,361.83603 360.03223,361.83603 C 359.59436,361.83603 359.2217,361.78479 358.91426,361.68231 C 358.60682,361.57983 358.35527,361.43542 358.15963,361.24909 C 357.96398,361.06277 357.82191,360.8415 357.7334,360.5853 C 357.64489,360.3291 357.60064,360.04728 357.60064,359.73983 C 357.60064,359.45103 357.62859,359.11564 357.68449,358.73366 L 360.82879,342.36936 L 358.2854,342.11781 L 358.2854,341.25138 L 362.75729,340.39893 L 363.86128,340.39893 L 360.3816,358.64981 C 360.34433,358.84546 360.35364,359.03878 360.40955,359.22976 C 360.46544,359.42075 360.55395,359.58844 360.67506,359.73285 C 360.79617,359.87725 360.94524,359.99604 361.12225,360.0892 C 361.29926,360.18237 361.49025,360.22895 361.69521,360.22895 C 361.83495,360.22895 362.01895,360.20333 362.24721,360.15209 C 362.47546,360.10085 362.70604,360.04262 362.93896,359.9774 C 363.17186,359.91219 363.38847,359.84697 363.58878,359.78176 C 363.78907,359.71654 363.93115,359.67462 364.015,359.65599 L 364.015,360.74601 z M 374.7056,350.26503 C 374.71491,350.21846 374.67997,350.11132 374.60079,349.94361 C 374.52159,349.77593 374.4261,349.60124 374.31431,349.41956 C 374.2025,349.2379 374.08372,349.0772 373.95796,348.93744 C 373.83218,348.7977 373.72737,348.72783 373.64353,348.72782 C 372.91684,348.72783 372.26702,348.84661 371.69407,349.08417 C 371.1211,349.32175 370.62034,349.64317 370.19179,350.04842 C 369.76323,350.4537 369.39756,350.92185 369.09478,351.45287 C 368.792,351.98392 368.54744,352.53824 368.36112,353.11585 C 368.17478,353.69348 368.03969,354.27576 367.95585,354.86268 C 367.872,355.44963 367.83008,356.00861 367.83008,356.53964 C 367.83008,356.94025 367.86268,357.34086 367.9279,357.74146 C 367.99311,358.14207 368.10724,358.50541 368.27028,358.83148 C 368.43331,359.15756 368.65691,359.42308 368.94106,359.62804 C 369.22521,359.833 369.59088,359.93548 370.03807,359.93548 C 370.37346,359.93548 370.70885,359.86095 371.04425,359.71188 C 371.37963,359.56282 371.69173,359.39047 371.98055,359.19482 C 372.26935,358.99918 372.52089,358.80354 372.73518,358.60789 C 372.94945,358.41225 373.10783,358.26318 373.21032,358.1607 L 374.7056,350.26503 z M 378.91197,360.71806 C 378.80016,360.76464 378.5952,360.85082 378.29708,360.97659 C 377.99895,361.10236 377.66588,361.22813 377.2979,361.3539 C 376.92989,361.47968 376.55723,361.59147 376.17993,361.6893 C 375.8026,361.78712 375.4742,361.83603 375.19471,361.83603 C 374.85,361.83603 374.55886,361.79411 374.3213,361.71026 C 374.08372,361.62641 373.88808,361.50064 373.73436,361.33294 C 373.58063,361.16525 373.46185,360.96029 373.37801,360.71806 C 373.29415,360.47583 373.23826,360.19634 373.21032,359.87958 C 372.99603,360.08454 372.74449,360.30115 372.45568,360.5294 C 372.16687,360.75765 371.84778,360.9696 371.49842,361.16525 C 371.14905,361.36089 370.77639,361.5216 370.38045,361.64737 C 369.9845,361.77314 369.57225,361.83603 369.1437,361.83603 C 368.58471,361.83603 368.09326,361.75684 367.66937,361.59846 C 367.24547,361.44008 366.8798,361.22813 366.57236,360.96261 C 366.26492,360.6971 366.01104,360.38966 365.81074,360.04029 C 365.61044,359.69092 365.44973,359.32758 365.32862,358.95027 C 365.2075,358.57295 365.12366,358.19098 365.07707,357.80435 C 365.03049,357.41772 365.0072,357.05205 365.0072,356.70734 C 365.0072,355.97134 365.08639,355.22836 365.24477,354.47838 C 365.40315,353.72842 365.63839,353.00639 365.95049,352.31231 C 366.26259,351.61825 366.65155,350.96843 367.11737,350.36285 C 367.58319,349.75729 368.12121,349.23092 368.73144,348.78372 C 369.34166,348.33654 370.02176,347.98485 370.77174,347.72863 C 371.52171,347.47244 372.34388,347.34434 373.23826,347.34433 C 373.49912,347.34434 373.75765,347.37462 374.01386,347.43516 C 374.27005,347.49573 374.50995,347.57492 374.73355,347.67273 C 374.95713,347.77057 375.1621,347.88004 375.34844,348.00114 C 375.53475,348.12226 375.69313,348.24803 375.82357,348.37845 L 376.24281,347.69369 L 378.19926,347.69369 C 378.15267,347.8055 378.10143,347.93826 378.04554,348.09197 C 377.98963,348.24571 377.93373,348.40176 377.87785,348.56012 C 377.82193,348.71851 377.77302,348.86758 377.73111,349.00731 C 377.68917,349.14707 377.66355,349.25421 377.65425,349.32873 C 377.58902,349.58028 377.49586,349.95993 377.37476,350.46766 C 377.25363,350.97542 377.12553,351.54605 376.99046,352.17955 C 376.85535,352.81308 376.71561,353.47687 376.57122,354.17094 C 376.4268,354.86502 376.2987,355.52183 376.18691,356.14136 C 376.0751,356.76091 375.98194,357.31058 375.90742,357.79037 C 375.83288,358.27017 375.79561,358.61721 375.79562,358.83148 C 375.79561,359.33457 375.90275,359.67928 376.11704,359.86561 C 376.33131,360.05194 376.63409,360.1451 377.02539,360.1451 C 377.11854,360.1451 377.25596,360.12414 377.43764,360.08221 C 377.6193,360.04029 377.80796,359.99138 378.00362,359.93548 C 378.19925,359.87958 378.38092,359.82834 378.54863,359.78176 C 378.71631,359.73518 378.83742,359.70257 378.91197,359.68394 L 378.91197,360.71806 z M 378.66043,341.76845 C 378.66041,342.03864 378.59985,342.26457 378.47875,342.44622 C 378.35763,342.62791 378.18993,342.79327 377.97567,342.94232 L 373.68545,345.72327 L 371.67311,345.72327 L 375.57203,341.25138 C 375.66518,341.13961 375.763,341.04179 375.8655,340.95792 C 375.96797,340.87409 376.08209,340.79956 376.20788,340.73432 C 376.33364,340.66913 376.47804,340.62022 376.64109,340.58759 C 376.80411,340.555 376.99277,340.5387 377.20706,340.53868 C 377.45859,340.5387 377.6752,340.57596 377.85688,340.65047 C 378.03854,340.72503 378.1876,340.82052 378.30407,340.93695 C 378.42051,341.05343 378.50902,341.18619 378.56959,341.33523 C 378.63013,341.48432 378.66041,341.62872 378.66043,341.76845 L 378.66043,341.76845 z M 388.19114,364.0021 C 388.19113,363.65739 388.08865,363.34063 387.8837,363.05182 C 387.67873,362.76301 387.29676,362.48818 386.73778,362.22732 L 383.16027,360.60626 C 382.70376,360.71806 382.32412,360.87178 382.02134,361.06742 C 381.71855,361.26307 381.47865,361.48433 381.30164,361.73122 C 381.12463,361.9781 380.99886,362.24129 380.92433,362.52079 C 380.84979,362.80028 380.81253,363.08443 380.81253,363.37324 C 380.81253,363.69931 380.8824,364.058 381.02215,364.44929 C 381.16189,364.84057 381.3785,365.20391 381.67197,365.53931 C 381.96544,365.8747 382.33576,366.15652 382.78295,366.38478 C 383.23014,366.61302 383.75652,366.72715 384.36209,366.72715 C 385.0515,366.72715 385.63843,366.62933 386.12289,366.43369 C 386.60734,366.23804 387.00329,366.00047 387.31074,365.72098 C 387.61817,365.44148 387.84177,365.14569 387.98152,364.83359 C 388.12126,364.52149 388.19113,364.24432 388.19114,364.0021 L 388.19114,364.0021 z M 387.8837,351.2153 C 387.88369,350.86129 387.85108,350.52357 387.78588,350.20214 C 387.72065,349.88074 387.6205,349.59659 387.48542,349.34969 C 387.35032,349.10282 387.17797,348.90717 386.96836,348.76275 C 386.75873,348.61836 386.50952,348.54616 386.22072,348.54615 C 385.876,348.54616 385.52198,348.67193 385.15864,348.92346 C 384.7953,349.17502 384.46224,349.51973 384.15946,349.95759 C 383.85667,350.39547 383.60978,350.90787 383.4188,351.4948 C 383.22781,352.08174 383.13232,352.7106 383.13232,353.38137 C 383.13232,353.72609 383.16958,354.04518 383.24412,354.33864 C 383.31865,354.63211 383.42811,354.88365 383.57252,355.09327 C 383.71692,355.30289 383.88928,355.46593 384.08958,355.58238 C 384.28988,355.69884 384.5158,355.75707 384.76735,355.75706 C 385.24249,355.75707 385.67337,355.60568 386.06001,355.30289 C 386.44663,355.00011 386.77504,354.62046 387.04522,354.16395 C 387.31539,353.70746 387.52268,353.21368 387.66709,352.68264 C 387.81149,352.15161 387.88369,351.6625 387.8837,351.2153 L 387.8837,351.2153 z M 390.25939,349.44052 C 390.34322,349.65481 390.42474,349.92965 390.50394,350.26503 C 390.58312,350.60043 390.62272,350.96377 390.62273,351.35505 C 390.62272,352.26807 390.45502,353.06462 390.11964,353.74471 C 389.78424,354.42482 389.33239,354.99312 388.7641,355.44962 C 388.19579,355.90613 387.53665,356.24851 386.78669,356.47676 C 386.03671,356.70501 385.24714,356.81914 384.41799,356.81913 C 384.35277,356.95888 384.29687,357.11261 384.25029,357.2803 C 384.2037,357.448 384.16644,357.61336 384.1385,357.7764 C 384.11054,357.93944 384.09191,358.0885 384.0826,358.22359 C 384.07328,358.35868 384.08259,358.46349 384.11055,358.53801 L 387.9396,360.28484 C 388.37746,360.48049 388.77574,360.67846 389.13443,360.87877 C 389.4931,361.07907 389.80054,361.29801 390.05676,361.53558 C 390.31295,361.77314 390.51092,362.04332 390.65068,362.3461 C 390.79041,362.64889 390.86029,363.0099 390.8603,363.42914 C 390.86029,363.83906 390.76479,364.23734 390.57382,364.62397 C 390.38282,365.0106 390.12196,365.37394 389.79124,365.71399 C 389.46049,366.05404 389.06455,366.36847 388.60339,366.65728 C 388.14222,366.94608 387.64379,367.19297 387.10811,367.39794 C 386.5724,367.60289 386.00876,367.76127 385.41717,367.87307 C 384.82558,367.98487 384.227,368.04076 383.62143,368.04077 C 382.68047,368.04076 381.86528,367.92431 381.17587,367.6914 C 380.48645,367.45849 379.91582,367.15105 379.46398,366.76908 C 379.01213,366.3871 378.67674,365.94457 378.4578,365.44149 C 378.23887,364.9384 378.1294,364.41202 378.1294,363.86235 C 378.1294,363.3779 378.22955,362.93071 378.42985,362.52079 C 378.63016,362.11086 378.90266,361.74287 379.24737,361.41679 C 379.59208,361.09072 379.99501,360.80191 380.45618,360.55036 C 380.91734,360.29882 381.40878,360.08454 381.9305,359.90753 C 381.88392,359.68394 381.88159,359.42075 381.92351,359.11796 C 381.96544,358.81518 382.03531,358.50774 382.13313,358.19564 C 382.23095,357.88354 382.35905,357.58308 382.51744,357.29427 C 382.67581,357.00547 382.85282,356.76324 383.04847,356.56759 C 382.6665,356.3999 382.31247,356.20658 381.9864,355.98764 C 381.66032,355.76871 381.3785,355.51717 381.14093,355.23301 C 380.90336,354.94887 380.71704,354.62279 380.58195,354.25479 C 380.44686,353.8868 380.37932,353.47454 380.37932,353.01803 C 380.37932,352.31931 380.50975,351.63222 380.77061,350.95677 C 381.03146,350.28134 381.41111,349.67578 381.90954,349.14007 C 382.40797,348.60439 383.01353,348.17117 383.72624,347.84043 C 384.43894,347.50971 385.2518,347.34434 386.16482,347.34433 C 386.50952,347.34434 386.83326,347.37462 387.13606,347.43516 C 387.43883,347.49573 387.71367,347.56561 387.96056,347.64478 C 388.20744,347.72399 388.42171,347.8055 388.60339,347.88934 C 388.78505,347.9732 388.91781,348.04307 389.00167,348.09896 L 392.88662,348.09896 L 392.88662,349.44052 L 390.25939,349.44052 z M 400.97794,350.20913 C 400.97793,350.02281 400.94066,349.83881 400.86614,349.65713 C 400.7916,349.47547 400.68912,349.31476 400.5587,349.17501 C 400.42826,349.03527 400.26522,348.92115 400.06959,348.83263 C 399.87393,348.74413 399.65966,348.69988 399.42675,348.69987 C 399.10999,348.69988 398.8072,348.78373 398.5184,348.95141 C 398.22959,349.11912 397.95242,349.34271 397.68691,349.62219 C 397.42139,349.9017 397.1745,350.22311 396.94626,350.58644 C 396.718,350.9498 396.51304,351.33177 396.33137,351.73236 C 396.1497,352.13298 395.98899,352.53824 395.84925,352.94816 C 395.7095,353.35809 395.5977,353.74472 395.51385,354.10805 C 396.11942,354.05216 396.74595,353.91242 397.39344,353.68881 C 398.04093,353.46523 398.63019,353.17875 399.16124,352.82937 C 399.69226,352.48002 400.12781,352.08174 400.46787,351.63454 C 400.80791,351.18736 400.97793,350.71223 400.97794,350.20913 L 400.97794,350.20913 z M 403.52132,350.23708 C 403.52131,350.75881 403.4002,351.2386 403.15798,351.67647 C 402.91574,352.11435 402.58734,352.5103 402.17277,352.86431 C 401.75818,353.21834 401.27838,353.53277 400.73338,353.8076 C 400.18836,354.08244 399.6154,354.31535 399.0145,354.50633 C 398.41359,354.69732 397.80103,354.85105 397.17684,354.96749 C 396.55263,355.08396 395.95638,355.15616 395.38808,355.1841 C 395.36013,355.37044 395.33451,355.59403 395.31122,355.85488 C 395.28793,356.11575 395.27628,356.33468 395.27629,356.51169 C 395.27628,357.03342 395.33917,357.51321 395.46494,357.95108 C 395.59071,358.38895 395.77238,358.7686 396.00995,359.09001 C 396.24752,359.41143 396.534,359.66298 396.8694,359.84464 C 397.20478,360.02632 397.5821,360.11715 398.00134,360.11715 C 398.64417,360.11715 399.35222,359.88424 400.12549,359.41842 C 400.89874,358.9526 401.81175,358.25853 402.86452,357.3362 L 402.86452,359.13892 C 402.59433,359.39979 402.2636,359.68627 401.87232,359.99836 C 401.48102,360.31047 401.03616,360.60393 400.53774,360.87877 C 400.0393,361.1536 399.49662,361.38185 398.90969,361.56352 C 398.32275,361.74519 397.70321,361.83603 397.05107,361.83603 C 396.76225,361.83603 396.44782,361.80808 396.10778,361.75218 C 395.76772,361.69628 395.43,361.59613 395.09462,361.45173 C 394.75922,361.30732 394.43548,361.10935 394.12338,360.8578 C 393.81128,360.60626 393.53644,360.28718 393.29887,359.90054 C 393.0613,359.51391 392.87032,359.05275 392.72591,358.51705 C 392.58151,357.98136 392.50931,357.35017 392.50931,356.62349 C 392.50931,355.86886 392.60014,355.11656 392.78181,354.36658 C 392.96348,353.61662 393.21968,352.89926 393.55042,352.21449 C 393.88115,351.52974 394.27943,350.89157 394.74525,350.29996 C 395.21107,349.70838 395.72347,349.19598 396.28246,348.76275 C 396.84144,348.32955 397.44002,347.9895 398.0782,347.7426 C 398.71637,347.49573 399.37551,347.37229 400.05561,347.37228 C 400.71707,347.37229 401.26907,347.48176 401.71161,347.70068 C 402.15413,347.91963 402.51048,348.18282 402.78067,348.49025 C 403.05083,348.7977 403.24182,349.11446 403.35363,349.44052 C 403.46541,349.76661 403.52131,350.03213 403.52132,350.23708 L 403.52132,350.23708 z M 404.69519,341.76845 C 404.69518,342.03864 404.63462,342.26457 404.51352,342.44622 C 404.3924,342.62791 404.2247,342.79327 404.01044,342.94232 L 399.72022,345.72327 L 397.70787,345.72327 L 401.6068,341.25138 C 401.69995,341.13961 401.79777,341.04179 401.90027,340.95792 C 402.00274,340.87409 402.11686,340.79956 402.24264,340.73432 C 402.36841,340.66913 402.51281,340.62022 402.67586,340.58759 C 402.83888,340.555 403.02754,340.5387 403.24183,340.53868 C 403.49336,340.5387 403.70997,340.57596 403.89165,340.65047 C 404.07331,340.72503 404.22237,340.82052 404.33884,340.93695 C 404.45528,341.05343 404.54379,341.18619 404.60436,341.33523 C 404.6649,341.48432 404.69518,341.62872 404.69519,341.76845 L 404.69519,341.76845 z M 415.70721,349.27283 C 415.7072,349.60823 415.64665,349.87608 415.52554,350.07637 C 415.40442,350.27668 415.23207,350.42808 415.00848,350.53055 C 414.78488,350.63304 414.51703,350.70058 414.20494,350.73318 C 413.89283,350.7658 413.54114,350.7821 413.14986,350.78209 L 412.4651,349.41257 C 412.11107,349.56165 411.73142,349.82018 411.32616,350.18817 C 410.92089,350.55618 410.53659,350.97542 410.17326,351.44588 C 409.80991,351.91637 409.49315,352.40083 409.22298,352.89925 C 408.9528,353.39768 408.77579,353.85652 408.69195,354.27575 L 407.19666,361.48666 L 404.54148,361.48666 L 407.00101,349.32873 L 404.59738,349.06321 L 404.59738,348.2387 L 408.91554,347.34433 L 410.06146,347.34433 L 409.46055,350.23708 C 410.04748,349.3334 410.7136,348.62535 411.45892,348.11293 C 412.20423,347.60054 413.0101,347.34434 413.87654,347.34433 C 414.22123,347.34434 414.51004,347.40723 414.74296,347.53299 C 414.97586,347.65877 415.16452,347.81948 415.30894,348.01511 C 415.45333,348.21077 415.55581,348.42039 415.61638,348.64397 C 415.67692,348.86758 415.7072,349.0772 415.70721,349.27283 L 415.70721,349.27283 z M 420.51448,349.49642 L 418.71175,358.48212 C 418.65585,358.73366 418.66517,358.95959 418.7397,359.15989 C 418.81423,359.36019 418.93301,359.52789 419.09605,359.66297 C 419.25909,359.79806 419.45007,359.90287 419.66901,359.9774 C 419.88795,360.05194 420.11853,360.0892 420.36076,360.0892 C 420.63093,360.0892 420.91042,360.06358 421.19924,360.01234 C 421.48804,359.9611 421.7652,359.89821 422.03073,359.82368 C 422.29624,359.74915 422.54312,359.67229 422.77138,359.5931 C 422.99963,359.51391 423.18829,359.44637 423.33736,359.39047 L 423.33736,360.53639 C 423.21624,360.59229 422.98333,360.69011 422.63863,360.82986 C 422.29391,360.9696 421.89796,361.11401 421.45078,361.26307 C 421.00359,361.41213 420.53311,361.54489 420.03934,361.66135 C 419.54557,361.7778 419.09372,361.83603 418.6838,361.83603 C 418.16208,361.83603 417.72887,361.77314 417.38416,361.64737 C 417.03945,361.5216 416.76462,361.34925 416.55966,361.13031 C 416.35469,360.91138 416.20796,360.65052 416.11946,360.34773 C 416.03095,360.04495 415.9867,359.71654 415.9867,359.36252 C 415.9867,359.17619 415.99368,358.98521 416.00766,358.78956 C 416.02163,358.59392 416.05191,358.39361 416.09849,358.18865 L 417.84532,349.49642 L 416.0426,349.66412 L 416.0426,348.72782 L 418.19469,347.77754 L 419.59215,344.91274 L 421.33898,344.91274 L 420.76602,348.18281 L 424.72085,348.18281 L 424.72085,349.49642 L 420.51448,349.49642 z "
     id="text2406" />
</svg>
