<?xml version="1.0" encoding="UTF-8" standalone="no"?>
<!-- Created with Inkscape (http://www.inkscape.org/) -->

<svg
   xmlns:dc="http://purl.org/dc/elements/1.1/"
   xmlns:cc="http://creativecommons.org/ns#"
   xmlns:rdf="http://www.w3.org/1999/02/22-rdf-syntax-ns#"
   xmlns:svg="http://www.w3.org/2000/svg"
   xmlns="http://www.w3.org/2000/svg"
   xmlns:sodipodi="http://sodipodi.sourceforge.net/DTD/sodipodi-0.dtd"
   xmlns:inkscape="http://www.inkscape.org/namespaces/inkscape"
   version="1.0"
   width="400"
   height="400"
   id="svg2728"
   sodipodi:version="0.32"
   inkscape:version="0.48.4 r9939"
   sodipodi:docname="Wikibooks-logo-id.svg"
   inkscape:output_extension="org.inkscape.output.svg.inkscape">
  <metadata
     id="metadata18">
    <rdf:RDF>
      <cc:Work
         rdf:about="">
        <dc:format>image/svg+xml</dc:format>
        <dc:type
           rdf:resource="http://purl.org/dc/dcmitype/StillImage" />
        <dc:title />
      </cc:Work>
    </rdf:RDF>
  </metadata>
  <sodipodi:namedview
     inkscape:window-height="1005"
     inkscape:window-width="1920"
     inkscape:pageshadow="2"
     inkscape:pageopacity="0.0"
     guidetolerance="10.0"
     gridtolerance="10.0"
     objecttolerance="10.0"
     borderopacity="1.0"
     bordercolor="#666666"
     pagecolor="#ffffff"
     id="base"
     showgrid="false"
     inkscape:zoom="1.245"
     inkscape:cx="397.75866"
     inkscape:cy="114.00816"
     inkscape:window-x="-9"
     inkscape:window-y="-9"
     inkscape:current-layer="svg2728"
     showguides="true"
     inkscape:guide-bbox="true"
     inkscape:snap-bbox="true"
     inkscape:bbox-nodes="true"
     inkscape:window-maximized="1"
     inkscape:snap-page="true"
     inkscape:bbox-paths="true">
    <sodipodi:guide
       orientation="0,1"
       position="42.904342,82.824219"
       id="guide3621" />
    <sodipodi:guide
       orientation="0,1"
       position="357.09566,40.974091"
       id="guide3623" />
    <sodipodi:guide
       orientation="0,1"
       position="125.56003,8.83533"
       id="guide3866" />
    <sodipodi:guide
       orientation="0,1"
       position="436.75913,29.77463"
       id="guide3874" />
  </sodipodi:namedview>
  <defs
     id="defs2731">
    <inkscape:perspective
       sodipodi:type="inkscape:persp3d"
       inkscape:vp_x="0 : 200 : 1"
       inkscape:vp_y="0 : 1000 : 0"
       inkscape:vp_z="400 : 200 : 1"
       inkscape:persp3d-origin="200 : 133.33333 : 1"
       id="perspective20" />
  </defs>
  <g
     id="layer1" />
  <g
     id="g3189">
    <g
       id="g3177">
      <path
         id="path3297"
         style="fill:#fdfcf8;fill-opacity:1;fill-rule:evenodd;stroke:none"
         d="m 191.65664,115.97593 c 5.27687,66.02591 16.7973,129.9439 51.19815,191.4892 l 13.00988,0.0971 82.29114,-73.41929 -78.43513,-198.199613 -56.54009,54.008439 -11.52395,26.024184 z"
         inkscape:connector-curvature="0" />
      <path
         d="m 263.32723,16.5 c -27.18692,26.301966 -54.0625,52.375 -54.0625,52.375 0,0 9.65625,19.65625 9.65625,19.65625 13.09357,-12.981225 26.26128,-24.397339 38.8125,-37.09375 26.43326,58.0352 44.44408,104.81167 66.59843,166.64698 7.25271,20.08798 5.77391,20.98678 -11.5625,31.84375 -27.85476,13.85172 -36.67281,22.93724 -69.87108,58.25927 l 22.71875,0 c 27.75344,-25.09151 38.05553,-33.94669 72.80858,-52.25927 12.29389,-7.09788 13.97957,-16.05857 8.9375,-30 C 331.10198,180.73146 295.87208,83.322614 263.32723,16.5 z"
         style="fill:#5f96d3;fill-opacity:1"
         id="path3272"
         inkscape:connector-curvature="0" />
    </g>
    <g
       id="g3181">
      <path
         id="path3214"
         style="fill:#f4eed7;fill-rule:evenodd;stroke:none"
         d="m 125.84082,116.04509 c 5.27687,66.02591 18.77829,130.78651 53.17914,192.33181 l 20.33475,0.18272 61.96822,-77.71837 -67.41807,-194.828778 -56.54009,54.008439 -11.52395,26.024179 z"
         inkscape:connector-curvature="0" />
      <path
         d="m 192.45223,17.125 c -19.88757,13.424352 -35.22867,32.744448 -52.53125,49.3125 0,0 7.09375,22.625 7.09375,22.625 13.54117,-10.670666 25.32557,-23.536457 37.5,-35.71875 l 65.65625,164.6875 c 3.78574,11.15069 -2.17642,21.0724 -14.15625,31.875 -14.34924,11.53271 -43.89257,38.42056 -57.28125,58.90625 l 20.375,0 c 21.38465,-21.96593 25.2452,-24.94746 49.59375,-46.03125 16.34634,-16.67844 31.114,-25.22072 23.40625,-46.59375 L 192.45223,17.125 z"
         style="fill:#2a62a1;fill-opacity:1;fill-rule:evenodd;stroke:none"
         id="path3138"
         inkscape:connector-curvature="0" />
    </g>
    <g
       id="g3185">
      <path
         id="path2238"
         style="fill:#e9ddaf;fill-rule:evenodd;stroke:none"
         d="m 50.218883,114.63177 c 5.376652,69.28374 27.01509,131.34001 52.459127,191.70491 l 26.80214,-0.33096 70.40072,-80.03768 L 118.28293,34.599156 61.742841,88.607595 50.218883,114.63177 z"
         inkscape:connector-curvature="0" />
      <path
         d="m 125.32723,16.0625 c -5.30135,1.779198 -9.71211,5.198015 -13.84375,8.8125 -56.088558,53.972012 -58.34375,56.25 -58.34375,56.25 -2.951465,2.742742 -3.197984,6.75235 -3.15625,10.78125 l 0.235404,22.72552 c 0,0 25.904224,-25.181716 64.577096,-62.41302 20.81842,54.23768 42.54552,108.18649 63.9375,162.21875 2.9295,8.16333 -4.08223,14.8534 -12.96875,23.78125 -12.27355,11.97358 -37.94466,36.62136 -64.21875,69.53125 l 26.34375,0 c 0,0 63.31249,-69.4375 63.3125,-69.4375 6.01928,-8.27793 13.50319,-16.3712 10.34375,-23.875 0,0 -76.21875,-198.374999 -76.21875,-198.375 z"
         style="fill:#15304f;fill-opacity:1;fill-rule:evenodd;stroke:none"
         id="path3136"
         inkscape:connector-curvature="0" />
    </g>
  </g>
  <text
     xml:space="preserve"
     style="font-style: normal; font-variant: normal; font-weight: bold; font-stretch: normal; fill: rgb(0, 0, 0); fill-opacity: 1; stroke: none; stroke-width: 1px; stroke-linecap: butt; stroke-linejoin: miter; stroke-opacity: 1; font-family: DejaVu Sans;"
     x="15.261"
     y="175.904"
     id="text2416"><tspan
       sodipodi:role="line"
       id="tspan2418"
       x="15.261"
       y="175.904" /></text>
  <g
     style="font-size:56.31344604px;font-style:normal;font-variant:normal;font-weight:bold;font-stretch:normal;line-height:125%;letter-spacing:0px;word-spacing:0px;fill:#000000;fill-opacity:1;stroke:none;font-family:DejaVu Sans;-inkscape-font-specification:Sans"
     id="text3625">
    <g
       id="g3646"
       style="fill:#0b2645;fill-opacity:1">
      <path
         id="path3630"
         style="fill:#0b2645;fill-opacity:1"
         d="m 30.702203,317.17579 10.146319,0 7.094175,29.83403 7.039181,-29.83403 10.201312,0 7.039181,29.83403 7.094174,-29.83403 10.063829,0 -9.678873,41.05273 -12.20858,0 -7.451632,-31.20887 -7.369143,31.20887 -12.208579,0 z" />
      <path
         id="path3632"
         style="fill:#0b2645;fill-opacity:1"
         d="m 96.337066,317.17579 10.586264,0 0,41.05273 -10.586264,0 z" />
      <path
         id="path3634"
         style="fill:#0b2645;fill-opacity:1"
         d="m 117.34462,317.17579 10.58627,0 0,14.98576 15.26072,-14.98576 12.29107,0 -19.7702,19.44024 21.80496,21.61249 -13.25345,0 -16.3331,-16.16812 0,16.16812 -10.58627,0 z" />
      <path
         id="path3636"
         style="fill:#0b2645;fill-opacity:1"
         d="m 161.00954,317.17579 10.58626,0 0,41.05273 -10.58626,0 z" />
    </g>
    <g
       id="g3652"
       style="fill:#0a4e98;fill-opacity:1">
      <path
         style="fill:#0a4e98;fill-opacity:1"
         id="path3638"
         d="m 218.0379,333.06894 c 1.66811,3e-5 2.93296,-0.36659 3.79455,-1.09987 0.86154,-0.73322 1.29233,-1.81476 1.29235,-3.24462 -2e-5,-1.41147 -0.43081,-2.48843 -1.29235,-3.23087 -0.86159,-0.74238 -2.12644,-1.11359 -3.79455,-1.11362 l -5.85682,0 0,8.68898 z m 0.35745,17.95541 c 2.1264,10e-6 3.72579,-0.4491 4.7982,-1.34734 1.07234,-0.89822 1.60853,-2.25473 1.60856,-4.06953 -3e-5,-1.77811 -0.53163,-3.1117 -1.59482,-4.00078 -1.06323,-0.88905 -2.66721,-1.33358 -4.81194,-1.33359 l -6.21427,0 0,10.75124 z m 9.84386,-14.76578 c 2.27303,0.65995 4.03283,1.87897 5.27938,3.65708 1.24649,1.77814 1.86975,3.95955 1.86979,6.54424 -4e-5,3.95954 -1.33822,6.91086 -4.01454,8.85396 -2.67638,1.94311 -6.74591,2.91467 -12.20858,2.91467 l -17.57045,0 0,-41.05273 15.89315,0 c 5.70098,4e-5 9.83007,0.86161 12.38731,2.5847 2.55716,1.72317 3.83576,4.48202 3.8358,8.27654 -4e-5,1.99813 -0.46748,3.69835 -1.40234,5.10066 -0.93492,1.40236 -2.29143,2.44265 -4.06952,3.12088 z" />
      <path
         id="path3640"
         style="fill:#0a4e98;fill-opacity:1"
         d="m 244.48983,317.17579 10.58627,0 0,24.60964 c -2e-5,3.39128 0.5545,5.81558 1.66355,7.2729 1.10902,1.45734 2.91923,2.18601 5.43062,2.186 2.52968,1e-5 4.34905,-0.72866 5.45812,-2.186 1.109,-1.45732 1.66352,-3.88162 1.66355,-7.2729 l 0,-24.60964 10.58627,0 0,24.60964 c -4e-5,5.811 -1.45737,10.13716 -4.37199,12.97849 -2.91469,2.84134 -7.36001,4.262 -13.33595,4.262 -5.95766,0 -10.3938,-1.42066 -13.30845,-4.262 -2.91467,-2.84133 -4.372,-7.16749 -4.37199,-12.97849 z" />
      <path
         id="path3642"
         style="fill:#0a4e98;fill-opacity:1"
         d="m 290.2445,317.17579 10.58627,0 0,14.98576 15.26072,-14.98576 12.29107,0 -19.7702,19.44024 21.80496,21.61249 -13.25345,0 -16.3331,-16.16812 0,16.16812 -10.58627,0 z" />
      <path
         id="path3644"
         style="fill:#0a4e98;fill-opacity:1"
         d="m 333.90942,317.17579 10.58626,0 0,24.60964 c -10e-6,3.39128 0.55451,5.81558 1.66356,7.2729 1.10902,1.45734 2.91922,2.18601 5.43062,2.186 2.52968,1e-5 4.34905,-0.72866 5.45811,-2.186 1.10901,-1.45732 1.66353,-3.88162 1.66356,-7.2729 l 0,-24.60964 10.58627,0 0,24.60964 c -4e-5,5.811 -1.45737,10.13716 -4.37199,12.97849 -2.9147,2.84134 -7.36001,4.262 -13.33595,4.262 -5.95766,0 -10.39381,-1.42066 -13.30845,-4.262 -2.91467,-2.84133 -4.372,-7.16749 -4.37199,-12.97849 z" />
    </g>
  </g>
  <g
     style="font-size:23.36262894px;font-style:oblique;font-variant:normal;font-weight:normal;font-stretch:normal;line-height:125%;letter-spacing:0px;word-spacing:0px;fill:#000000;fill-opacity:1;stroke:none;font-family:Charis SIL;-inkscape-font-specification:Sans"
     id="text3868">
    <path
       d="m 13.768893,374.75415 c -1.3e-5,0.60081 -0.102681,1.13316 -0.308003,1.59706 -0.205349,0.46392 -0.484833,0.86888 -0.838454,1.2149 -0.353645,0.34604 -0.768119,0.64454 -1.243421,0.89549 -0.475325,0.25098 -0.979157,0.46392 -1.5114984,0.63882 0.5095264,0.0685 0.9734324,0.17303 1.3917194,0.31371 0.418265,0.1407 0.779503,0.33273 1.083715,0.57608 0.304189,0.24337 0.539944,0.54567 0.707268,0.9069 0.167297,0.36125 0.250952,0.79663 0.250965,1.30616 -1.3e-5,0.95824 -0.174928,1.77008 -0.524746,2.43551 -0.349843,0.66544 -0.834663,1.2054 -1.454461,1.61987 -0.61982,0.41448 -1.3499009,0.71487 -2.1902463,0.9012 -0.8403629,0.18632 -1.7510634,0.27948 -2.7321043,0.27948 l -6.3996264,0 0,-0.98105 1.4715719,-0.11407 c 0.1444941,-0.0152 0.2490631,-0.0589 0.3137071,-0.13119 0.064641,-0.0722 0.1083701,-0.17681 0.1311867,-0.31371 l 2.4298046,-12.5711 c 0.022811,-0.12927 0.0038,-0.23574 -0.057038,-0.31941 -0.060844,-0.0836 -0.1977344,-0.13307 -0.4106712,-0.1483 l -1.3004589,-0.11407 0,-0.98105 6.5593319,0 c 0.8441478,2e-5 1.5609205,0.0704 2.1503205,0.21104 0.589377,0.14071 1.068493,0.34224 1.437349,0.6046 0.368831,0.26239 0.635006,0.57799 0.798527,0.94682 0.163495,0.36886 0.245249,0.77763 0.245262,1.22631 z m -3.022996,7.68868 c -1.1e-5,-0.47911 -0.08367,-0.88408 -0.250966,-1.2149 -0.16732,-0.33081 -0.404977,-0.59889 -0.7129709,-0.80423 -0.3080125,-0.20533 -0.6825595,-0.35363 -1.123642,-0.4449 -0.4410992,-0.0913 -0.9354252,-0.13688 -1.4829794,-0.13689 -0.2889974,1e-5 -0.5893955,0.0114 -0.9011952,0.0342 -0.3118115,0.0228 -0.5969996,0.0532 -0.855565,0.0913 l -1.2320136,6.35399 c 0.091256,0.008 0.1996278,0.0152 0.3251147,0.0228 0.1254786,0.008 0.2547638,0.0152 0.3878561,0.0228 0.1330832,0.008 0.2642697,0.0133 0.3935599,0.0171 0.1292803,0.004 0.2433556,0.006 0.342226,0.006 1.673098,0 2.9431355,-0.34793 3.8101163,-1.04379 0.8669621,-0.69586 1.3004481,-1.6636 1.3004591,-2.90322 z m 0.422078,-7.52897 c -10e-6,-0.73767 -0.279495,-1.27953 -0.838453,-1.62557 -0.5589788,-0.34602 -1.3365916,-0.51903 -2.3328409,-0.51905 -0.2433681,2e-5 -0.4715186,0.008 -0.684452,0.0228 -0.2129474,0.0152 -0.3840602,0.0304 -0.513339,0.0456 l -1.1407534,5.93192 c 0.091255,0.008 0.1863176,0.0152 0.2851883,0.0228 l 0.3080035,0.0114 c 0.1064643,10e-6 0.2034282,0.002 0.2908921,0.006 0.087451,0.004 0.1577978,0.006 0.2110393,0.006 0.7300751,0 1.3707976,-0.10456 1.9221695,-0.31371 0.5513552,-0.20913 1.0114586,-0.49052 1.3803116,-0.84416 0.368833,-0.35362 0.646416,-0.7681 0.83275,-1.24342 0.186312,-0.4753 0.279474,-0.97533 0.279484,-1.50009 z"
       style=""
       id="path3877" />
    <path
       d="m 26.784889,386.88036 c -0.144507,0.0837 -0.344139,0.17492 -0.598895,0.27378 -0.25478,0.0989 -0.530461,0.19013 -0.827046,0.27378 -0.296607,0.0837 -0.598906,0.15401 -0.906899,0.21104 -0.308013,0.057 -0.587497,0.0856 -0.838454,0.0856 -0.4411,0 -0.768115,-0.0741 -0.981048,-0.22245 -0.212948,-0.1483 -0.359345,-0.31941 -0.43919,-0.51334 -0.07986,-0.19392 -0.115984,-0.38975 -0.108371,-0.58748 0.0076,-0.19773 0.0114,-0.34223 0.01141,-0.43349 -0.616014,0.58559 -1.260539,1.02478 -1.933577,1.31757 -0.673049,0.29279 -1.401229,0.43919 -2.184542,0.43919 -0.53996,0 -0.981051,-0.0951 -1.323274,-0.28519 -0.342228,-0.19012 -0.600799,-0.42968 -0.775713,-0.71867 -0.174916,-0.28899 -0.281387,-0.6046 -0.319411,-0.94683 -0.03803,-0.34222 -0.02662,-0.66544 0.03422,-0.96964 l 1.517202,-7.28941 -1.962096,-0.21675 0,-0.67304 3.524928,-0.73008 0.958233,0 -1.859428,8.90928 c -0.04563,0.19773 -0.03613,0.38596 0.02852,0.56467 0.06464,0.17872 0.159702,0.33463 0.285188,0.46771 0.125479,0.13309 0.268073,0.23956 0.427783,0.31941 0.159701,0.0799 0.315604,0.11978 0.467708,0.11978 0.281382,0 0.564668,-0.0399 0.849862,-0.11978 0.285183,-0.0799 0.568469,-0.18822 0.849861,-0.32511 0.281379,-0.13689 0.551357,-0.29469 0.809935,-0.47341 0.258563,-0.17872 0.498121,-0.37075 0.718675,-0.57608 l 1.768167,-8.60128 2.178839,0 -1.870835,8.98913 c -0.05324,0.24336 -0.05324,0.4468 0,0.6103 0.05323,0.16351 0.134979,0.2985 0.245262,0.40497 0.110262,0.10647 0.235745,0.18252 0.376448,0.22815 0.140683,0.0456 0.275672,0.0685 0.404968,0.0685 0.152089,0 0.353622,-0.0228 0.604599,-0.0685 0.250954,-0.0456 0.539945,-0.1635 0.866972,-0.35363 z"
       style=""
       id="path3879" />
    <path
       d="m 38.477611,386.90318 c -0.197742,0.0989 -0.423991,0.19773 -0.678748,0.29659 -0.254779,0.0989 -0.515251,0.18633 -0.781416,0.26238 -0.266186,0.0761 -0.526658,0.13879 -0.781416,0.18822 -0.254778,0.0494 -0.473422,0.0741 -0.655933,0.0741 -0.190134,0 -0.376457,-0.0323 -0.558969,-0.097 -0.182529,-0.0647 -0.355543,-0.1483 -0.519043,-0.25097 -0.163516,-0.10267 -0.313715,-0.22055 -0.450598,-0.35363 -0.136897,-0.13309 -0.250973,-0.26808 -0.342226,-0.40497 -0.106477,-0.15971 -0.226256,-0.36694 -0.359337,-0.62171 -0.133094,-0.25477 -0.273787,-0.53425 -0.422079,-0.83846 -0.148304,-0.30419 -0.298503,-0.6217 -0.450597,-0.95252 -0.152106,-0.33082 -0.298503,-0.65023 -0.439191,-0.95824 -0.140697,-0.308 -0.269983,-0.59509 -0.387856,-0.86127 -0.117882,-0.26617 -0.218649,-0.48291 -0.302299,-0.65023 l -1.072308,0.95824 -0.958233,4.74553 -2.144617,0 3.10285,-15.6055 -2.053357,-0.20534 0,-0.70727 3.616189,-0.69586 0.935417,0 -2.167431,10.85997 3.775894,-3.90137 c 0.220538,-0.22814 0.42207,-0.42397 0.604599,-0.58749 0.182512,-0.1635 0.359329,-0.29658 0.53045,-0.39926 0.171104,-0.10266 0.344119,-0.17871 0.519043,-0.22815 0.174906,-0.0494 0.365032,-0.0741 0.570377,-0.0742 0.25856,1e-5 0.48481,0.038 0.678748,0.11407 0.193917,0.0761 0.353623,0.17493 0.479116,0.2966 0.125472,0.12169 0.218634,0.25858 0.279485,0.41067 0.06083,0.15211 0.08745,0.30041 0.07985,0.44489 -1.2e-5,0.26619 -0.123593,0.54187 -0.370745,0.82705 -0.247174,0.2852 -0.644536,0.52285 -1.192087,0.71297 L 35.762618,377.857 c -0.212949,0.16732 -0.443001,0.35365 -0.690156,0.55897 -0.247171,0.20535 -0.496235,0.41448 -0.747193,0.62742 -0.250973,0.21295 -0.490531,0.42208 -0.718675,0.62741 -0.228157,0.20534 -0.433492,0.38786 -0.616006,0.54756 0.09886,0.19774 0.20723,0.4449 0.325114,0.74149 0.117872,0.2966 0.243354,0.61411 0.376449,0.95253 0.133081,0.33843 0.277576,0.68446 0.433486,1.03809 0.155896,0.35363 0.321305,0.69016 0.496228,1.00956 0.174907,0.32702 0.359329,0.64073 0.553265,0.94112 0.19392,0.30041 0.393551,0.56658 0.598896,0.79853 0.205326,0.23196 0.414464,0.41638 0.627414,0.55327 0.212931,0.13689 0.422069,0.20533 0.627414,0.20533 0.08364,0 0.186313,-0.01 0.308004,-0.0285 0.12167,-0.019 0.250955,-0.0437 0.387856,-0.0741 0.136879,-0.0304 0.271868,-0.0684 0.404967,-0.11408 0.133077,-0.0456 0.249053,-0.0913 0.34793,-0.13689 z"
       style=""
       id="path3881" />
    <path
       d="m 51.014491,386.88036 c -0.144507,0.0837 -0.344139,0.17492 -0.598895,0.27378 -0.25478,0.0989 -0.530462,0.19013 -0.827046,0.27378 -0.296607,0.0837 -0.598906,0.15401 -0.906899,0.21104 -0.308013,0.057 -0.587498,0.0856 -0.838454,0.0856 -0.4411,0 -0.768116,-0.0741 -0.981048,-0.22245 -0.212948,-0.1483 -0.359345,-0.31941 -0.43919,-0.51334 -0.07986,-0.19392 -0.115984,-0.38975 -0.108372,-0.58748 0.0076,-0.19773 0.0114,-0.34223 0.01141,-0.43349 -0.616014,0.58559 -1.260539,1.02478 -1.933577,1.31757 -0.673049,0.29279 -1.40123,0.43919 -2.184543,0.43919 -0.539959,0 -0.98105,-0.0951 -1.323274,-0.28519 -0.342227,-0.19012 -0.600798,-0.42968 -0.775712,-0.71867 -0.174916,-0.28899 -0.281387,-0.6046 -0.319411,-0.94683 -0.03803,-0.34222 -0.02662,-0.66544 0.03422,-0.96964 l 1.517202,-7.28941 -1.962096,-0.21675 0,-0.67304 3.524928,-0.73008 0.958233,0 -1.859428,8.90928 c -0.04563,0.19773 -0.03613,0.38596 0.02852,0.56467 0.06464,0.17872 0.159702,0.33463 0.285188,0.46771 0.125479,0.13309 0.268073,0.23956 0.427782,0.31941 0.159702,0.0799 0.315605,0.11978 0.467709,0.11978 0.281381,0 0.564668,-0.0399 0.849862,-0.11978 0.285182,-0.0799 0.568469,-0.18822 0.849861,-0.32511 0.281379,-0.13689 0.551357,-0.29469 0.809935,-0.47341 0.258563,-0.17872 0.498121,-0.37075 0.718674,-0.57608 l 1.768168,-8.60128 2.178839,0 -1.870836,8.98913 c -0.05324,0.24336 -0.05324,0.4468 0,0.6103 0.05323,0.16351 0.13498,0.2985 0.245262,0.40497 0.110263,0.10647 0.235746,0.18252 0.376449,0.22815 0.140682,0.0456 0.275671,0.0685 0.404968,0.0685 0.152089,0 0.353622,-0.0228 0.604599,-0.0685 0.250954,-0.0456 0.539944,-0.1635 0.866972,-0.35363 z"
       style=""
       id="path3883" />
    <path
       d="m 62.66158,377.65167 -1.471571,7.33504 c -0.04563,0.20534 -0.03803,0.38976 0.02281,0.55327 0.06084,0.16351 0.1578,0.3004 0.290892,0.41067 0.133084,0.11027 0.288987,0.19583 0.467709,0.25667 0.178713,0.0608 0.366938,0.0913 0.564673,0.0913 0.22054,0 0.448691,-0.0209 0.684452,-0.0627 0.23575,-0.0418 0.461999,-0.0932 0.678748,-0.15401 0.216737,-0.0608 0.41827,-0.12358 0.604599,-0.18822 0.186316,-0.0646 0.340318,-0.11978 0.462005,-0.16541 l 0,0.93542 c -0.09887,0.0456 -0.288997,0.12548 -0.570376,0.23956 -0.281392,0.11407 -0.604606,0.23195 -0.969641,0.35363 -0.365046,0.12168 -0.749099,0.23005 -1.152161,0.32512 -0.40307,0.0951 -0.771913,0.14259 -1.10653,0.14259 -0.425885,0 -0.779518,-0.0513 -1.060901,-0.154 -0.281388,-0.10267 -0.505736,-0.24336 -0.673045,-0.42208 -0.167311,-0.17872 -0.28709,-0.39166 -0.359337,-0.63882 -0.07225,-0.24716 -0.108372,-0.51524 -0.108371,-0.80423 -10e-7,-0.1521 0.0057,-0.30801 0.01711,-0.46771 0.01141,-0.15971 0.03612,-0.32321 0.07415,-0.49053 l 1.425942,-7.09548 -1.471572,0.13689 0,-0.76431 1.75676,-0.77571 1.140753,-2.33854 1.425942,0 -0.467709,2.66936 3.228332,0 0,1.07231 z"
       style=""
       id="path3885" />
    <path
       d="m 72.63177,378.23345 c -7e-6,-0.15209 -0.03043,-0.30229 -0.09126,-0.4506 -0.06085,-0.14828 -0.144503,-0.27947 -0.250966,-0.39356 -0.106477,-0.11406 -0.239565,-0.20722 -0.399263,-0.27948 -0.159713,-0.0722 -0.334628,-0.10836 -0.524747,-0.10837 -0.258577,10e-6 -0.50574,0.0684 -0.74149,0.20533 -0.235761,0.1369 -0.46201,0.31942 -0.678748,0.54756 -0.216748,0.22817 -0.418281,0.49054 -0.604599,0.78712 -0.186327,0.29661 -0.353638,0.60841 -0.501932,0.93542 -0.148301,0.32703 -0.279488,0.65784 -0.39356,0.99246 -0.114078,0.33463 -0.205338,0.65023 -0.27378,0.94682 0.494322,-0.0456 1.00576,-0.1597 1.534313,-0.34222 0.528544,-0.18252 1.009561,-0.41637 1.443053,-0.70157 0.43348,-0.28518 0.789014,-0.61029 1.066604,-0.97534 0.277576,-0.36503 0.416368,-0.75289 0.416375,-1.16357 z m 2.076171,0.0228 c -9e-6,0.42589 -0.09887,0.81754 -0.296595,1.17497 -0.19774,0.35745 -0.465817,0.68066 -0.804232,0.96964 -0.338431,0.289 -0.73009,0.54567 -1.174975,0.77001 -0.444901,0.22436 -0.91261,0.41448 -1.403127,0.57038 -0.49053,0.15591 -0.990559,0.28139 -1.500091,0.37645 -0.50954,0.0951 -0.996261,0.154 -1.460164,0.17681 -0.02282,0.15211 -0.04373,0.33463 -0.06274,0.54756 -0.01902,0.21295 -0.02852,0.39167 -0.02852,0.53616 -3e-6,0.42588 0.05133,0.81754 0.154001,1.17498 0.102665,0.35743 0.250963,0.66734 0.444894,0.92971 0.193924,0.26237 0.427779,0.46771 0.701563,0.61601 0.273777,0.14829 0.58178,0.22244 0.924011,0.22244 0.52474,0 1.102722,-0.19012 1.733945,-0.57037 0.631209,-0.38025 1.376501,-0.94683 2.235876,-1.69973 l 0,1.47158 c -0.220554,0.21294 -0.490532,0.44679 -0.809935,0.70156 -0.319419,0.25477 -0.682558,0.49433 -1.089419,0.71867 -0.406876,0.22435 -0.849868,0.41067 -1.328978,0.55897 -0.479122,0.1483 -0.984855,0.22245 -1.517202,0.22245 -0.23576,0 -0.492429,-0.0228 -0.770008,-0.0684 -0.277587,-0.0456 -0.553269,-0.12738 -0.827046,-0.24526 -0.273784,-0.11788 -0.538058,-0.27948 -0.792824,-0.48482 -0.25477,-0.20533 -0.479118,-0.4658 -0.673044,-0.78141 -0.19393,-0.31561 -0.349832,-0.69206 -0.467709,-1.12935 -0.117879,-0.43729 -0.176818,-0.95253 -0.176817,-1.54572 -10e-7,-0.616 0.07415,-1.23011 0.222447,-1.84232 0.148297,-0.6122 0.357435,-1.19778 0.627414,-1.75676 0.269977,-0.55896 0.595091,-1.0799 0.975344,-1.56283 0.380248,-0.48291 0.798524,-0.90118 1.254829,-1.25483 0.456297,-0.35362 0.944919,-0.6312 1.465868,-0.83275 0.520938,-0.20152 1.058993,-0.30229 1.614166,-0.3023 0.539949,1e-5 0.990546,0.0894 1.351793,0.26808 0.36123,0.17873 0.652122,0.39357 0.872676,0.64452 0.220536,0.25098 0.376439,0.50955 0.467709,0.77572 0.09125,0.26618 0.136881,0.48293 0.13689,0.65023 z"
       style=""
       id="path3887" />
    <path
       d="m 84.655304,377.46915 c -1e-5,0.27379 -0.04944,0.49243 -0.148298,0.65593 -0.09888,0.16352 -0.239568,0.2871 -0.422079,0.37074 -0.182529,0.0837 -0.401173,0.13881 -0.655933,0.16541 -0.254776,0.0266 -0.541866,0.0399 -0.861269,0.0399 l -0.558969,-1.11794 c -0.288998,0.12169 -0.598902,0.33273 -0.929714,0.63312 -0.330824,0.30041 -0.644531,0.64263 -0.941122,1.02668 -0.2966,0.38406 -0.555171,0.77952 -0.775712,1.18638 -0.22055,0.40688 -0.365045,0.78142 -0.433486,1.12364 l -1.220606,5.88629 -2.167432,0 2.007726,-9.92455 -1.962096,-0.21675 0,-0.67304 3.524928,-0.73008 0.935418,0 -0.490524,2.36136 c 0.479112,-0.73768 1.02287,-1.31566 1.631278,-1.73395 0.608395,-0.41826 1.266228,-0.6274 1.973503,-0.62741 0.281377,1e-5 0.517133,0.0513 0.707267,0.154 0.190117,0.10268 0.344118,0.23386 0.462005,0.39356 0.117869,0.15971 0.201524,0.33083 0.250966,0.51334 0.04942,0.18253 0.07414,0.35364 0.07415,0.51334 z"
       style=""
       id="path3889" />
    <path
       d="m 92.286944,380.28681 c -8e-6,-0.52474 -0.06085,-0.96773 -0.18252,-1.32898 -0.121689,-0.36123 -0.269987,-0.65592 -0.444894,-0.88408 -0.174923,-0.22815 -0.359345,-0.39165 -0.553265,-0.49053 -0.193936,-0.0988 -0.359345,-0.14829 -0.496228,-0.1483 -0.190132,1e-5 -0.39927,0.0304 -0.627415,0.0913 -0.228156,0.0609 -0.46201,0.14641 -0.701563,0.25667 -0.239563,0.11029 -0.47722,0.23767 -0.712971,0.38216 -0.23576,0.1445 -0.452503,0.3004 -0.650229,0.46771 l -1.300459,7.07267 c 0.07605,0.11407 0.178715,0.22435 0.308003,0.33081 0.129283,0.10648 0.27758,0.20344 0.444894,0.2909 0.167307,0.0875 0.349827,0.1578 0.547562,0.21104 0.197726,0.0532 0.403062,0.0799 0.616007,0.0799 0.357431,0 0.697755,-0.0913 1.020974,-0.27378 0.323207,-0.18252 0.623605,-0.42968 0.901195,-0.74149 0.277577,-0.31181 0.530443,-0.67685 0.758601,-1.09513 0.228143,-0.41827 0.42017,-0.86126 0.576081,-1.32897 0.155894,-0.46771 0.277575,-0.95063 0.365041,-1.44876 0.08745,-0.49812 0.131178,-0.97914 0.131186,-1.44305 z m 2.31573,-0.0913 c -1.1e-5,0.48673 -0.05325,1.00957 -0.159706,1.56853 -0.106481,0.55898 -0.27189,1.11604 -0.496228,1.67121 -0.224358,0.55517 -0.511447,1.09132 -0.861268,1.60846 -0.34984,0.51714 -0.768116,0.97344 -1.254829,1.3689 -0.486729,0.39546 -1.045698,0.71297 -1.676908,0.95253 -0.631222,0.23956 -1.342291,0.35934 -2.133208,0.35934 -0.661641,0 -1.313771,-0.0913 -1.956392,-0.27378 -0.642626,-0.18252 -1.237719,-0.4525 -1.785279,-0.80994 l 2.760623,-14.80697 -2.087579,-0.20534 0,-0.70727 3.650411,-0.69586 0.912603,0 -1.334682,7.07267 c 0.212936,-0.19011 0.44679,-0.37073 0.701563,-0.54185 0.254763,-0.17111 0.519038,-0.3194 0.792824,-0.4449 0.273775,-0.12547 0.55516,-0.22624 0.844158,-0.3023 0.288983,-0.076 0.574171,-0.11406 0.855565,-0.11407 0.600788,1e-5 1.106522,0.1331 1.517202,0.39926 0.410661,0.26619 0.743381,0.60841 0.998159,1.02668 0.254758,0.41828 0.437278,0.88029 0.547561,1.38601 0.110262,0.50575 0.165399,1.00197 0.16541,1.48869 z"
       style=""
       id="path3891" />
    <path
       d="m 107.59586,386.88036 c -0.14451,0.0837 -0.34414,0.17492 -0.5989,0.27378 -0.25478,0.0989 -0.53046,0.19013 -0.82705,0.27378 -0.2966,0.0837 -0.5989,0.15401 -0.9069,0.21104 -0.30801,0.057 -0.58749,0.0856 -0.83845,0.0856 -0.4411,0 -0.76811,-0.0741 -0.98105,-0.22245 -0.21295,-0.1483 -0.35934,-0.31941 -0.43919,-0.51334 -0.0799,-0.19392 -0.11598,-0.38975 -0.10837,-0.58748 0.008,-0.19773 0.0114,-0.34223 0.0114,-0.43349 -0.61602,0.58559 -1.26054,1.02478 -1.93358,1.31757 -0.67305,0.29279 -1.401228,0.43919 -2.184541,0.43919 -0.539959,0 -0.98105,-0.0951 -1.323274,-0.28519 -0.342228,-0.19012 -0.600798,-0.42968 -0.775712,-0.71867 -0.174917,-0.28899 -0.281387,-0.6046 -0.319411,-0.94683 -0.03803,-0.34222 -0.02662,-0.66544 0.03422,-0.96964 l 1.517201,-7.28941 -1.962095,-0.21675 0,-0.67304 3.524928,-0.73008 0.958231,0 -1.859427,8.90928 c -0.04563,0.19773 -0.03613,0.38596 0.02852,0.56467 0.06464,0.17872 0.159702,0.33463 0.285189,0.46771 0.125479,0.13309 0.268073,0.23956 0.427782,0.31941 0.159701,0.0799 0.315604,0.11978 0.467709,0.11978 0.281378,0 0.564668,-0.0399 0.849858,-0.11978 0.28519,-0.0799 0.56847,-0.18822 0.84986,-0.32511 0.28138,-0.13689 0.55136,-0.29469 0.80994,-0.47341 0.25856,-0.17872 0.49812,-0.37075 0.71867,-0.57608 l 1.76817,-8.60128 2.17884,0 -1.87083,8.98913 c -0.0533,0.24336 -0.0533,0.4468 0,0.6103 0.0532,0.16351 0.13497,0.2985 0.24526,0.40497 0.11026,0.10647 0.23574,0.18252 0.37645,0.22815 0.14068,0.0456 0.27567,0.0685 0.40496,0.0685 0.15209,0 0.35363,-0.0228 0.6046,-0.0685 0.25096,-0.0456 0.53995,-0.1635 0.86698,-0.35363 z"
       style=""
       id="path3893" />
    <path
       d="m 119.28858,386.90318 c -0.19774,0.0989 -0.42399,0.19773 -0.67875,0.29659 -0.25478,0.0989 -0.51525,0.18633 -0.78142,0.26238 -0.26618,0.0761 -0.52665,0.13879 -0.78141,0.18822 -0.25478,0.0494 -0.47342,0.0741 -0.65594,0.0741 -0.19013,0 -0.37645,-0.0323 -0.55896,-0.097 -0.18253,-0.0647 -0.35555,-0.1483 -0.51905,-0.25097 -0.16351,-0.10267 -0.31371,-0.22055 -0.4506,-0.35363 -0.13689,-0.13309 -0.25097,-0.26808 -0.34222,-0.40497 -0.10648,-0.15971 -0.22626,-0.36694 -0.35934,-0.62171 -0.13309,-0.25477 -0.27379,-0.53425 -0.42208,-0.83846 -0.1483,-0.30419 -0.2985,-0.6217 -0.45059,-0.95252 -0.15211,-0.33082 -0.29851,-0.65023 -0.4392,-0.95824 -0.14069,-0.308 -0.26998,-0.59509 -0.38785,-0.86127 -0.11788,-0.26617 -0.21865,-0.48291 -0.3023,-0.65023 l -1.07231,0.95824 -0.95823,4.74553 -2.14462,0 3.10285,-15.6055 -2.05336,-0.20534 0,-0.70727 3.61619,-0.69586 0.93542,0 -2.16743,10.85997 3.77589,-3.90137 c 0.22054,-0.22814 0.42207,-0.42397 0.6046,-0.58749 0.18251,-0.1635 0.35933,-0.29658 0.53045,-0.39926 0.17111,-0.10266 0.34412,-0.17871 0.51905,-0.22815 0.1749,-0.0494 0.36503,-0.0741 0.57037,-0.0742 0.25856,1e-5 0.48481,0.038 0.67875,0.11407 0.19392,0.0761 0.35362,0.17493 0.47912,0.2966 0.12547,0.12169 0.21863,0.25858 0.27948,0.41067 0.0608,0.15211 0.0874,0.30041 0.0798,0.44489 -1e-5,0.26619 -0.12359,0.54187 -0.37074,0.82705 -0.24717,0.2852 -0.64454,0.52285 -1.19209,0.71297 l -0.79853,-0.84416 c -0.21294,0.16732 -0.443,0.35365 -0.69015,0.55897 -0.24717,0.20535 -0.49624,0.41448 -0.74719,0.62742 -0.25098,0.21295 -0.49054,0.42208 -0.71868,0.62741 -0.22816,0.20534 -0.43349,0.38786 -0.61601,0.54756 0.0989,0.19774 0.20723,0.4449 0.32512,0.74149 0.11787,0.2966 0.24335,0.61411 0.37645,0.95253 0.13308,0.33843 0.27757,0.68446 0.43348,1.03809 0.1559,0.35363 0.32131,0.69016 0.49623,1.00956 0.17491,0.32702 0.35933,0.64073 0.55327,0.94112 0.19392,0.30041 0.39355,0.56658 0.59889,0.79853 0.20533,0.23196 0.41447,0.41638 0.62742,0.55327 0.21293,0.13689 0.42207,0.20533 0.62741,0.20533 0.0836,0 0.18631,-0.01 0.308,-0.0285 0.12167,-0.019 0.25096,-0.0437 0.38786,-0.0741 0.13688,-0.0304 0.27187,-0.0684 0.40497,-0.11408 0.13307,-0.0456 0.24905,-0.0913 0.34793,-0.13689 z"
       style=""
       id="path3895" />
    <path
       d="m 128.2549,378.27908 c 0.008,-0.038 -0.0209,-0.12547 -0.0856,-0.26237 -0.0647,-0.13688 -0.1426,-0.27948 -0.23385,-0.42778 -0.0913,-0.14829 -0.18824,-0.27948 -0.2909,-0.39356 -0.10267,-0.11407 -0.18823,-0.17111 -0.25667,-0.17112 -0.5932,1e-5 -1.12365,0.097 -1.59135,0.29089 -0.46771,0.19394 -0.87648,0.45632 -1.22631,0.78712 -0.34983,0.33083 -0.64833,0.71298 -0.89549,1.14646 -0.24717,0.4335 -0.4468,0.88599 -0.59889,1.3575 -0.15211,0.47152 -0.26238,0.94683 -0.33082,1.42594 -0.0684,0.47912 -0.10267,0.93542 -0.10267,1.3689 0,0.32702 0.0266,0.65404 0.0798,0.98105 0.0532,0.32702 0.1464,0.62362 0.27949,0.88979 0.13308,0.26618 0.3156,0.48292 0.54756,0.65023 0.23195,0.16731 0.53044,0.25097 0.89549,0.25096 0.27378,10e-6 0.54756,-0.0608 0.82134,-0.18252 0.27378,-0.12167 0.52855,-0.26237 0.76431,-0.42207 0.23575,-0.15971 0.44108,-0.31941 0.616,-0.47912 0.17491,-0.1597 0.3042,-0.28138 0.38786,-0.36504 z m 3.43366,8.53284 c -0.0913,0.038 -0.25858,0.10837 -0.50193,0.21104 -0.24337,0.10266 -0.51525,0.20533 -0.81564,0.308 -0.30041,0.10267 -0.60461,0.19393 -0.9126,0.27378 -0.30801,0.0799 -0.57609,0.11978 -0.80423,0.11978 -0.28139,0 -0.51905,-0.0342 -0.71297,-0.10267 -0.19394,-0.0684 -0.35364,-0.17111 -0.47912,-0.308 -0.12549,-0.13689 -0.22245,-0.3042 -0.29089,-0.50193 -0.0685,-0.19773 -0.11408,-0.42588 -0.13689,-0.68446 -0.17492,0.16732 -0.38026,0.34413 -0.61601,0.53045 -0.23576,0.18633 -0.49623,0.35934 -0.78141,0.51905 -0.2852,0.1597 -0.5894,0.29089 -0.91261,0.39356 -0.32321,0.10267 -0.65974,0.154 -1.00956,0.154 -0.45631,0 -0.85747,-0.0646 -1.2035,-0.19393 -0.34603,-0.12928 -0.64453,-0.3023 -0.89549,-0.51904 -0.25097,-0.21674 -0.4582,-0.46771 -0.62171,-0.7529 -0.16351,-0.28519 -0.29469,-0.58178 -0.39356,-0.88979 -0.0989,-0.308 -0.16731,-0.6198 -0.20533,-0.93541 -0.038,-0.31561 -0.057,-0.61411 -0.057,-0.8955 0,-0.60079 0.0646,-1.20729 0.19393,-1.8195 0.12928,-0.6122 0.32131,-1.20158 0.57608,-1.76816 0.25476,-0.56657 0.57227,-1.09702 0.95253,-1.59136 0.38024,-0.49431 0.81943,-0.924 1.31757,-1.28905 0.49812,-0.36503 1.05329,-0.65212 1.6655,-0.86127 0.61219,-0.20912 1.28334,-0.31369 2.01342,-0.3137 0.21294,1e-5 0.42398,0.0247 0.63312,0.0742 0.20913,0.0494 0.40496,0.11408 0.58749,0.19392 0.18251,0.0799 0.34982,0.16923 0.50193,0.26808 0.15209,0.0989 0.28138,0.20154 0.38786,0.308 l 0.34222,-0.55896 1.59706,0 c -0.038,0.0913 -0.0799,0.19964 -0.12548,0.32511 -0.0456,0.12549 -0.0913,0.25288 -0.13689,0.38215 -0.0457,0.1293 -0.0856,0.25098 -0.11978,0.36504 -0.0342,0.11409 -0.0551,0.20155 -0.0627,0.26238 -0.0532,0.20534 -0.1293,0.51525 -0.22816,0.92971 -0.0989,0.41448 -0.20344,0.88029 -0.3137,1.39742 -0.11029,0.51715 -0.22436,1.05901 -0.34223,1.62558 -0.11789,0.56658 -0.22246,1.10273 -0.31371,1.60846 -0.0913,0.50574 -0.16732,0.95443 -0.22815,1.34609 -0.0608,0.39166 -0.0913,0.67495 -0.0913,0.84986 -1e-5,0.41067 0.0875,0.69206 0.26238,0.84416 0.1749,0.1521 0.42207,0.22815 0.74149,0.22815 0.076,0 0.18821,-0.0171 0.33652,-0.0513 0.14829,-0.0342 0.30229,-0.0741 0.462,-0.11978 0.1597,-0.0456 0.308,-0.0874 0.4449,-0.12548 0.13688,-0.038 0.23574,-0.0646 0.29659,-0.0799 z"
       style=""
       id="path3897" />
    <path
       d="m 150.85323,386.88036 c -0.14451,0.0837 -0.34414,0.17492 -0.5989,0.27378 -0.25478,0.0989 -0.53046,0.19013 -0.82705,0.27378 -0.2966,0.0837 -0.5989,0.15401 -0.9069,0.21104 -0.30801,0.057 -0.58749,0.0856 -0.83845,0.0856 -0.4411,0 -0.76811,-0.0741 -0.98105,-0.22245 -0.21295,-0.1483 -0.35934,-0.31941 -0.43919,-0.51334 -0.0799,-0.19392 -0.11598,-0.38975 -0.10837,-0.58748 0.008,-0.19773 0.0114,-0.34223 0.0114,-0.43349 -0.61602,0.58559 -1.26054,1.02478 -1.93358,1.31757 -0.67305,0.29279 -1.40123,0.43919 -2.18454,0.43919 -0.53996,0 -0.98105,-0.0951 -1.32327,-0.28519 -0.34223,-0.19012 -0.6008,-0.42968 -0.77572,-0.71867 -0.17491,-0.28899 -0.28138,-0.6046 -0.31941,-0.94683 -0.038,-0.34222 -0.0266,-0.66544 0.0342,-0.96964 l 1.51721,-7.28941 -1.9621,-0.21675 0,-0.67304 3.52493,-0.73008 0.95823,0 -1.85943,8.90928 c -0.0456,0.19773 -0.0361,0.38596 0.0285,0.56467 0.0646,0.17872 0.1597,0.33463 0.28519,0.46771 0.12548,0.13309 0.26807,0.23956 0.42778,0.31941 0.1597,0.0799 0.31561,0.11978 0.46771,0.11978 0.28138,0 0.56467,-0.0399 0.84986,-0.11978 0.28519,-0.0799 0.56847,-0.18822 0.84986,-0.32511 0.28138,-0.13689 0.55136,-0.29469 0.80994,-0.47341 0.25856,-0.17872 0.49812,-0.37075 0.71867,-0.57608 l 1.76817,-8.60128 2.17884,0 -1.87083,8.98913 c -0.0533,0.24336 -0.0533,0.4468 0,0.6103 0.0532,0.16351 0.13497,0.2985 0.24526,0.40497 0.11026,0.10647 0.23574,0.18252 0.37645,0.22815 0.14068,0.0456 0.27567,0.0685 0.40496,0.0685 0.15209,0 0.35363,-0.0228 0.6046,-0.0685 0.25096,-0.0456 0.53995,-0.1635 0.86698,-0.35363 z"
       style=""
       id="path3899" />
    <path
       d="m 163.2418,386.97162 c -0.0989,0.038 -0.27189,0.097 -0.51904,0.17682 -0.24718,0.0799 -0.52286,0.16351 -0.82705,0.25096 -0.30421,0.0875 -0.61602,0.16351 -0.93542,0.22816 -0.31942,0.0646 -0.6008,0.097 -0.84415,0.097 -0.1369,0 -0.32513,-0.0133 -0.56468,-0.0399 -0.23956,-0.0266 -0.46962,-0.0874 -0.69015,-0.18252 -0.22056,-0.0951 -0.39927,-0.23385 -0.53616,-0.41637 -0.1369,-0.18252 -0.17112,-0.42969 -0.10267,-0.74149 l 1.42595,-7.17534 c 0.0532,-0.3118 0.0551,-0.57037 0.006,-0.77571 -0.0494,-0.20533 -0.12929,-0.37074 -0.23956,-0.49623 -0.11028,-0.12547 -0.23766,-0.21293 -0.38215,-0.26237 -0.1445,-0.0494 -0.28139,-0.0741 -0.41067,-0.0742 -0.19013,1e-5 -0.42399,0.0551 -0.70156,0.16541 -0.27759,0.11028 -0.57039,0.25668 -0.87838,0.43919 -0.30801,0.18253 -0.61792,0.39737 -0.92972,0.64452 -0.31181,0.24717 -0.597,0.50765 -0.85556,0.78142 l -1.60847,7.84838 -2.17884,0 2.03055,-9.92455 -1.9621,-0.21675 0,-0.67304 3.52493,-0.73008 0.93542,0 -0.43349,2.17884 c 0.25857,-0.25857 0.55516,-0.51904 0.88979,-0.78142 0.33461,-0.26236 0.69205,-0.49622 1.07231,-0.70156 0.38024,-0.20533 0.7738,-0.37264 1.18067,-0.50193 0.40687,-0.12928 0.80423,-0.19392 1.19209,-0.19393 0.85175,1e-5 1.45825,0.23576 1.8195,0.70726 0.36123,0.47153 0.45059,1.23203 0.26808,2.28151 l -1.24342,6.59356 c -0.038,0.22054 -0.0209,0.39546 0.0513,0.52474 0.0722,0.12929 0.1673,0.22815 0.28519,0.2966 0.11787,0.0684 0.24145,0.11217 0.37075,0.13118 0.12927,0.019 0.22814,0.0285 0.29659,0.0285 0.21293,0 0.44489,-0.0304 0.69586,-0.0913 0.25096,-0.0608 0.50953,-0.13308 0.77571,-0.21674 z"
       style=""
       id="path3901" />
    <path
       d="m 168.02156,377.65167 -1.47157,7.33504 c -0.0456,0.20534 -0.038,0.38976 0.0228,0.55327 0.0608,0.16351 0.1578,0.3004 0.29089,0.41067 0.13309,0.11027 0.28899,0.19583 0.46771,0.25667 0.17872,0.0608 0.36694,0.0913 0.56468,0.0913 0.22054,0 0.44869,-0.0209 0.68445,-0.0627 0.23575,-0.0418 0.462,-0.0932 0.67875,-0.15401 0.21673,-0.0608 0.41827,-0.12358 0.60459,-0.18822 0.18632,-0.0646 0.34032,-0.11978 0.46201,-0.16541 l 0,0.93542 c -0.0989,0.0456 -0.289,0.12548 -0.57038,0.23956 -0.28139,0.11407 -0.6046,0.23195 -0.96964,0.35363 -0.36504,0.12168 -0.7491,0.23005 -1.15216,0.32512 -0.40307,0.0951 -0.77191,0.14259 -1.10653,0.14259 -0.42588,0 -0.77952,-0.0513 -1.0609,-0.154 -0.28139,-0.10267 -0.50574,-0.24336 -0.67304,-0.42208 -0.16732,-0.17872 -0.28709,-0.39166 -0.35934,-0.63882 -0.0722,-0.24716 -0.10837,-0.51524 -0.10837,-0.80423 0,-0.1521 0.006,-0.30801 0.0171,-0.46771 0.0114,-0.15971 0.0361,-0.32321 0.0741,-0.49053 l 1.42594,-7.09548 -1.47157,0.13689 0,-0.76431 1.75676,-0.77571 1.14075,-2.33854 1.42594,0 -0.46771,2.66936 3.22834,0 0,1.07231 z"
       style=""
       id="path3903" />
    <path
       d="m 182.56616,386.88036 c -0.14451,0.0837 -0.34414,0.17492 -0.59889,0.27378 -0.25478,0.0989 -0.53047,0.19013 -0.82705,0.27378 -0.29661,0.0837 -0.59891,0.15401 -0.9069,0.21104 -0.30801,0.057 -0.5875,0.0856 -0.83845,0.0856 -0.4411,0 -0.76812,-0.0741 -0.98105,-0.22245 -0.21295,-0.1483 -0.35935,-0.31941 -0.43919,-0.51334 -0.0799,-0.19392 -0.11598,-0.38975 -0.10837,-0.58748 0.008,-0.19773 0.0114,-0.34223 0.0114,-0.43349 -0.61602,0.58559 -1.26054,1.02478 -1.93358,1.31757 -0.67305,0.29279 -1.40123,0.43919 -2.18454,0.43919 -0.53996,0 -0.98105,-0.0951 -1.32328,-0.28519 -0.34223,-0.19012 -0.6008,-0.42968 -0.77571,-0.71867 -0.17492,-0.28899 -0.28139,-0.6046 -0.31941,-0.94683 -0.038,-0.34222 -0.0266,-0.66544 0.0342,-0.96964 l 1.5172,-7.28941 -1.96209,-0.21675 0,-0.67304 3.52493,-0.73008 0.95823,0 -1.85943,8.90928 c -0.0456,0.19773 -0.0361,0.38596 0.0285,0.56467 0.0646,0.17872 0.1597,0.33463 0.28519,0.46771 0.12548,0.13309 0.26807,0.23956 0.42778,0.31941 0.1597,0.0799 0.3156,0.11978 0.46771,0.11978 0.28138,0 0.56467,-0.0399 0.84986,-0.11978 0.28518,-0.0799 0.56847,-0.18822 0.84986,-0.32511 0.28138,-0.13689 0.55136,-0.29469 0.80994,-0.47341 0.25856,-0.17872 0.49812,-0.37075 0.71867,-0.57608 l 1.76817,-8.60128 2.17884,0 -1.87084,8.98913 c -0.0532,0.24336 -0.0532,0.4468 0,0.6103 0.0532,0.16351 0.13498,0.2985 0.24526,0.40497 0.11027,0.10647 0.23575,0.18252 0.37645,0.22815 0.14068,0.0456 0.27567,0.0685 0.40497,0.0685 0.15209,0 0.35362,-0.0228 0.6046,-0.0685 0.25095,-0.0456 0.53994,-0.1635 0.86697,-0.35363 z"
       style=""
       id="path3905" />
    <path
       d="m 194.25889,386.90318 c -0.19774,0.0989 -0.42399,0.19773 -0.67875,0.29659 -0.25478,0.0989 -0.51525,0.18633 -0.78141,0.26238 -0.26619,0.0761 -0.52666,0.13879 -0.78142,0.18822 -0.25478,0.0494 -0.47342,0.0741 -0.65593,0.0741 -0.19014,0 -0.37646,-0.0323 -0.55897,-0.097 -0.18253,-0.0647 -0.35554,-0.1483 -0.51904,-0.25097 -0.16352,-0.10267 -0.31372,-0.22055 -0.4506,-0.35363 -0.1369,-0.13309 -0.25097,-0.26808 -0.34223,-0.40497 -0.10647,-0.15971 -0.22625,-0.36694 -0.35933,-0.62171 -0.1331,-0.25477 -0.27379,-0.53425 -0.42208,-0.83846 -0.14831,-0.30419 -0.29851,-0.6217 -0.4506,-0.95252 -0.15211,-0.33082 -0.2985,-0.65023 -0.43919,-0.95824 -0.1407,-0.308 -0.26998,-0.59509 -0.38786,-0.86127 -0.11788,-0.26617 -0.21865,-0.48291 -0.3023,-0.65023 l -1.0723,0.95824 -0.95824,4.74553 -2.14461,0 3.10285,-15.6055 -2.05336,-0.20534 0,-0.70727 3.61619,-0.69586 0.93541,0 -2.16743,10.85997 3.7759,-3.90137 c 0.22054,-0.22814 0.42207,-0.42397 0.6046,-0.58749 0.18251,-0.1635 0.35933,-0.29658 0.53045,-0.39926 0.1711,-0.10266 0.34412,-0.17871 0.51904,-0.22815 0.17491,-0.0494 0.36503,-0.0741 0.57038,-0.0742 0.25856,1e-5 0.48481,0.038 0.67874,0.11407 0.19392,0.0761 0.35363,0.17493 0.47912,0.2966 0.12547,0.12169 0.21863,0.25858 0.27949,0.41067 0.0608,0.15211 0.0874,0.30041 0.0798,0.44489 -1e-5,0.26619 -0.12359,0.54187 -0.37075,0.82705 -0.24717,0.2852 -0.64453,0.52285 -1.19208,0.71297 L 191.5439,377.857 c -0.21295,0.16732 -0.443,0.35365 -0.69016,0.55897 -0.24717,0.20535 -0.49623,0.41448 -0.74719,0.62742 -0.25097,0.21295 -0.49053,0.42208 -0.71868,0.62741 -0.22815,0.20534 -0.43349,0.38786 -0.616,0.54756 0.0989,0.19774 0.20723,0.4449 0.32511,0.74149 0.11787,0.2966 0.24336,0.61411 0.37645,0.95253 0.13308,0.33843 0.27758,0.68446 0.43349,1.03809 0.15589,0.35363 0.3213,0.69016 0.49623,1.00956 0.1749,0.32702 0.35932,0.64073 0.55326,0.94112 0.19392,0.30041 0.39355,0.56658 0.5989,0.79853 0.20532,0.23196 0.41446,0.41638 0.62741,0.55327 0.21293,0.13689 0.42207,0.20533 0.62741,0.20533 0.0837,0 0.18632,-0.01 0.30801,-0.0285 0.12167,-0.019 0.25095,-0.0437 0.38785,-0.0741 0.13688,-0.0304 0.27187,-0.0684 0.40497,-0.11408 0.13308,-0.0456 0.24905,-0.0913 0.34793,-0.13689 z"
       style=""
       id="path3907" />
    <path
       d="m 219.45813,386.83473 c -0.19775,0.0837 -0.42019,0.17682 -0.66734,0.27949 -0.24718,0.10266 -0.50195,0.19963 -0.7643,0.29089 -0.26239,0.0913 -0.52287,0.16731 -0.78142,0.22815 -0.25859,0.0608 -0.50195,0.0913 -0.73008,0.0913 -0.31943,0 -0.60652,-0.0361 -0.86127,-0.10837 -0.25478,-0.0722 -0.46772,-0.17682 -0.63882,-0.31371 -0.17113,-0.13689 -0.29281,-0.308 -0.36504,-0.51334 -0.0723,-0.20533 -0.0818,-0.44109 -0.0285,-0.70727 l 1.28905,-6.23992 c 0.076,-0.38784 0.10265,-0.72627 0.0798,-1.01527 -0.0228,-0.28898 -0.0818,-0.52854 -0.17682,-0.71867 -0.0951,-0.19012 -0.21295,-0.33271 -0.35363,-0.42778 -0.14071,-0.0951 -0.2871,-0.14259 -0.43919,-0.1426 -0.35745,10e-6 -0.70538,0.0799 -1.04379,0.23956 -0.33843,0.15972 -0.64834,0.34794 -0.92971,0.56467 -0.2814,0.21675 -0.52476,0.4373 -0.73009,0.66164 -0.20534,0.22436 -0.34603,0.40498 -0.42207,0.54186 l -1.64269,7.89401 -2.16743,0 1.56283,-7.62023 c 0.0532,-0.25096 0.0779,-0.51143 0.0742,-0.78142 -0.004,-0.26997 -0.0418,-0.51523 -0.11407,-0.73578 -0.0723,-0.22054 -0.18443,-0.40306 -0.33653,-0.54757 -0.1521,-0.14448 -0.35364,-0.21673 -0.6046,-0.21674 -0.27378,10e-6 -0.56468,0.0799 -0.87267,0.23956 -0.30801,0.15972 -0.60461,0.34984 -0.88979,0.57038 -0.28519,0.22055 -0.54376,0.4468 -0.77571,0.67874 -0.23196,0.23197 -0.40497,0.42019 -0.51905,0.56468 l -1.64268,7.84838 -2.14462,0 2.00773,-9.92455 -1.93928,-0.21675 0,-0.67304 3.50211,-0.73008 0.95823,0 -0.44489,2.15602 c 0.28899,-0.27377 0.59699,-0.54185 0.92401,-0.80423 0.32701,-0.26236 0.66543,-0.49241 1.01527,-0.69016 0.34983,-0.19772 0.70346,-0.35742 1.0609,-0.47911 0.35743,-0.12167 0.70726,-0.18251 1.0495,-0.18252 0.38784,1e-5 0.70915,0.0723 0.96393,0.21674 0.25476,0.14451 0.4601,0.32513 0.61601,0.54186 0.15589,0.21675 0.26997,0.45061 0.34222,0.70156 0.0722,0.25098 0.12358,0.48293 0.15401,0.69586 0.28137,-0.28138 0.59318,-0.55135 0.93541,-0.80993 0.34222,-0.25856 0.69965,-0.48862 1.07231,-0.69016 0.37264,-0.20152 0.75098,-0.36123 1.13505,-0.47912 0.38404,-0.11786 0.75479,-0.1768 1.11224,-0.17681 0.38784,1e-5 0.72816,0.0704 1.02097,0.21104 0.29278,0.1407 0.52853,0.34033 0.70727,0.59889 0.1787,0.25858 0.29277,0.57039 0.34222,0.93542 0.0494,0.36505 0.0285,0.77192 -0.0627,1.22061 l -1.31186,6.30836 c -0.038,0.19013 -0.0342,0.36314 0.0114,0.51904 0.0456,0.15591 0.11596,0.2909 0.21104,0.40497 0.095,0.11408 0.21103,0.20344 0.34793,0.26808 0.13688,0.0646 0.28137,0.097 0.43349,0.097 0.19011,0 0.41065,-0.0456 0.66164,-0.13689 0.25094,-0.0913 0.52092,-0.18632 0.80993,-0.28519 z"
       style=""
       id="path3909" />
    <path
       d="m 227.18103,378.23345 c -1e-5,-0.15209 -0.0304,-0.30229 -0.0913,-0.4506 -0.0608,-0.14828 -0.14451,-0.27947 -0.25097,-0.39356 -0.10648,-0.11406 -0.23957,-0.20722 -0.39926,-0.27948 -0.15972,-0.0722 -0.33463,-0.10836 -0.52475,-0.10837 -0.25858,10e-6 -0.50574,0.0684 -0.74149,0.20533 -0.23576,0.1369 -0.46201,0.31942 -0.67875,0.54756 -0.21675,0.22817 -0.41828,0.49054 -0.6046,0.78712 -0.18632,0.29661 -0.35364,0.60841 -0.50193,0.93542 -0.1483,0.32703 -0.27949,0.65784 -0.39356,0.99246 -0.11408,0.33463 -0.20534,0.65023 -0.27378,0.94682 0.49432,-0.0456 1.00576,-0.1597 1.53431,-0.34222 0.52855,-0.18252 1.00956,-0.41637 1.44306,-0.70157 0.43348,-0.28518 0.78901,-0.61029 1.0666,-0.97534 0.27758,-0.36503 0.41637,-0.75289 0.41638,-1.16357 z m 2.07617,0.0228 c -1e-5,0.42589 -0.0989,0.81754 -0.2966,1.17497 -0.19774,0.35745 -0.46582,0.68066 -0.80423,0.96964 -0.33843,0.289 -0.73009,0.54567 -1.17498,0.77001 -0.4449,0.22436 -0.91261,0.41448 -1.40312,0.57038 -0.49053,0.15591 -0.99056,0.28139 -1.50009,0.37645 -0.50954,0.0951 -0.99626,0.154 -1.46017,0.17681 -0.0228,0.15211 -0.0437,0.33463 -0.0627,0.54756 -0.019,0.21295 -0.0285,0.39167 -0.0285,0.53616 0,0.42588 0.0513,0.81754 0.154,1.17498 0.10267,0.35743 0.25097,0.66734 0.4449,0.92971 0.19392,0.26237 0.42778,0.46771 0.70156,0.61601 0.27378,0.14829 0.58178,0.22244 0.92401,0.22244 0.52474,0 1.10272,-0.19012 1.73395,-0.57037 0.63121,-0.38025 1.3765,-0.94683 2.23587,-1.69973 l 0,1.47158 c -0.22055,0.21294 -0.49053,0.44679 -0.80993,0.70156 -0.31942,0.25477 -0.68256,0.49433 -1.08942,0.71867 -0.40688,0.22435 -0.84987,0.41067 -1.32898,0.55897 -0.47912,0.1483 -0.98485,0.22245 -1.5172,0.22245 -0.23576,0 -0.49243,-0.0228 -0.77001,-0.0684 -0.27759,-0.0456 -0.55327,-0.12738 -0.82705,-0.24526 -0.27378,-0.11788 -0.53805,-0.27948 -0.79282,-0.48482 -0.25477,-0.20533 -0.47912,-0.4658 -0.67304,-0.78141 -0.19393,-0.31561 -0.34984,-0.69206 -0.46771,-1.12935 -0.11788,-0.43729 -0.17682,-0.95253 -0.17682,-1.54572 0,-0.616 0.0742,-1.23011 0.22245,-1.84232 0.14829,-0.6122 0.35743,-1.19778 0.62741,-1.75676 0.26998,-0.55896 0.59509,-1.0799 0.97535,-1.56283 0.38024,-0.48291 0.79852,-0.90118 1.25482,-1.25483 0.4563,-0.35362 0.94492,-0.6312 1.46587,-0.83275 0.52094,-0.20152 1.059,-0.30229 1.61417,-0.3023 0.53995,1e-5 0.99054,0.0894 1.35179,0.26808 0.36123,0.17873 0.65212,0.39357 0.87268,0.64452 0.22053,0.25098 0.37644,0.50955 0.46771,0.77572 0.0913,0.26618 0.13688,0.48293 0.13689,0.65023 z"
       style=""
       id="path3911" />
    <path
       d="m 247.70319,386.83473 c -0.19775,0.0837 -0.4202,0.17682 -0.66734,0.27949 -0.24718,0.10266 -0.50195,0.19963 -0.76431,0.29089 -0.26239,0.0913 -0.52286,0.16731 -0.78141,0.22815 -0.25859,0.0608 -0.50195,0.0913 -0.73009,0.0913 -0.31942,0 -0.60651,-0.0361 -0.86127,-0.10837 -0.25478,-0.0722 -0.46772,-0.17682 -0.63882,-0.31371 -0.17112,-0.13689 -0.2928,-0.308 -0.36504,-0.51334 -0.0723,-0.20533 -0.0818,-0.44109 -0.0285,-0.70727 l 1.28905,-6.23992 c 0.076,-0.38784 0.10266,-0.72627 0.0799,-1.01527 -0.0228,-0.28898 -0.0818,-0.52854 -0.17682,-0.71867 -0.0951,-0.19012 -0.21295,-0.33271 -0.35363,-0.42778 -0.14071,-0.0951 -0.28711,-0.14259 -0.43919,-0.1426 -0.35745,10e-6 -0.70538,0.0799 -1.04379,0.23956 -0.33844,0.15972 -0.64834,0.34794 -0.92972,0.56467 -0.28139,0.21675 -0.52475,0.4373 -0.73008,0.66164 -0.20535,0.22436 -0.34604,0.40498 -0.42208,0.54186 l -1.64268,7.89401 -2.16743,0 1.56283,-7.62023 c 0.0532,-0.25096 0.0779,-0.51143 0.0742,-0.78142 -0.004,-0.26997 -0.0418,-0.51523 -0.11408,-0.73578 -0.0722,-0.22054 -0.18443,-0.40306 -0.33652,-0.54757 -0.15211,-0.14448 -0.35364,-0.21673 -0.6046,-0.21674 -0.27379,10e-6 -0.56468,0.0799 -0.87268,0.23956 -0.30801,0.15972 -0.6046,0.34984 -0.88978,0.57038 -0.2852,0.22055 -0.54377,0.4468 -0.77572,0.67874 -0.23195,0.23197 -0.40497,0.42019 -0.51904,0.56468 l -1.64268,7.84838 -2.14462,0 2.00773,-9.92455 -1.93928,-0.21675 0,-0.67304 3.50211,-0.73008 0.95823,0 -0.44489,2.15602 c 0.28898,-0.27377 0.59699,-0.54185 0.92401,-0.80423 0.32701,-0.26236 0.66543,-0.49241 1.01527,-0.69016 0.34982,-0.19772 0.70346,-0.35742 1.0609,-0.47911 0.35743,-0.12167 0.70726,-0.18251 1.04949,-0.18252 0.38785,1e-5 0.70916,0.0723 0.96394,0.21674 0.25476,0.14451 0.46009,0.32513 0.616,0.54186 0.1559,0.21675 0.26997,0.45061 0.34223,0.70156 0.0722,0.25098 0.12357,0.48293 0.154,0.69586 0.28138,-0.28138 0.59318,-0.55135 0.93542,-0.80993 0.34221,-0.25856 0.69965,-0.48862 1.07231,-0.69016 0.37263,-0.20152 0.75098,-0.36123 1.13505,-0.47912 0.38404,-0.11786 0.75478,-0.1768 1.11223,-0.17681 0.38784,1e-5 0.72817,0.0704 1.02098,0.21104 0.29277,0.1407 0.52853,0.34033 0.70726,0.59889 0.17871,0.25858 0.29278,0.57039 0.34223,0.93542 0.0494,0.36505 0.0285,0.77192 -0.0627,1.22061 l -1.31187,6.30836 c -0.038,0.19013 -0.0342,0.36314 0.0114,0.51904 0.0456,0.15591 0.11596,0.2909 0.21104,0.40497 0.0951,0.11408 0.21102,0.20344 0.34793,0.26808 0.13687,0.0646 0.28137,0.097 0.43349,0.097 0.1901,0 0.41065,-0.0456 0.66163,-0.13689 0.25095,-0.0913 0.52093,-0.18632 0.80994,-0.28519 z"
       style=""
       id="path3913" />
    <path
       d="m 256.19039,380.28681 c -10e-6,-0.52474 -0.0608,-0.96773 -0.18252,-1.32898 -0.12169,-0.36123 -0.26999,-0.65592 -0.4449,-0.88408 -0.17492,-0.22815 -0.35934,-0.39165 -0.55326,-0.49053 -0.19394,-0.0988 -0.35935,-0.14829 -0.49623,-0.1483 -0.19013,1e-5 -0.39927,0.0304 -0.62742,0.0913 -0.22815,0.0609 -0.46201,0.14641 -0.70156,0.25667 -0.23956,0.11029 -0.47722,0.23767 -0.71297,0.38216 -0.23576,0.1445 -0.4525,0.3004 -0.65023,0.46771 l -1.30046,7.07267 c 0.0761,0.11407 0.17872,0.22435 0.30801,0.33081 0.12928,0.10648 0.27758,0.20344 0.44489,0.2909 0.16731,0.0875 0.34983,0.1578 0.54756,0.21104 0.19773,0.0532 0.40306,0.0799 0.61601,0.0799 0.35743,0 0.69775,-0.0913 1.02097,-0.27378 0.32321,-0.18252 0.62361,-0.42968 0.9012,-0.74149 0.27757,-0.31181 0.53044,-0.67685 0.7586,-1.09513 0.22814,-0.41827 0.42017,-0.86126 0.57608,-1.32897 0.15589,-0.46771 0.27757,-0.95063 0.36504,-1.44876 0.0875,-0.49812 0.13118,-0.97914 0.13119,-1.44305 z m 2.31573,-0.0913 c -1e-5,0.48673 -0.0532,1.00957 -0.15971,1.56853 -0.10648,0.55898 -0.27189,1.11604 -0.49623,1.67121 -0.22436,0.55517 -0.51144,1.09132 -0.86127,1.60846 -0.34984,0.51714 -0.76811,0.97344 -1.25482,1.3689 -0.48673,0.39546 -1.0457,0.71297 -1.67691,0.95253 -0.63122,0.23956 -1.34229,0.35934 -2.13321,0.35934 -0.66164,0 -1.31377,-0.0913 -1.95639,-0.27378 -0.64263,-0.18252 -1.23772,-0.4525 -1.78528,-0.80994 l 2.76062,-14.80697 -2.08758,-0.20534 0,-0.70727 3.65041,-0.69586 0.91261,0 -1.33469,7.07267 c 0.21294,-0.19011 0.44679,-0.37073 0.70157,-0.54185 0.25476,-0.17111 0.51904,-0.3194 0.79282,-0.4449 0.27378,-0.12547 0.55516,-0.22624 0.84416,-0.3023 0.28898,-0.076 0.57417,-0.11406 0.85556,-0.11407 0.60079,1e-5 1.10653,0.1331 1.51721,0.39926 0.41066,0.26619 0.74338,0.60841 0.99816,1.02668 0.25475,0.41828 0.43727,0.88029 0.54756,1.38601 0.11026,0.50575 0.1654,1.00197 0.16541,1.48869 z"
       style=""
       id="path3915" />
    <path
       d="m 266.92489,378.23345 c -1e-5,-0.15209 -0.0304,-0.30229 -0.0913,-0.4506 -0.0609,-0.14828 -0.1445,-0.27947 -0.25096,-0.39356 -0.10648,-0.11406 -0.23957,-0.20722 -0.39927,-0.27948 -0.15971,-0.0722 -0.33463,-0.10836 -0.52474,-0.10837 -0.25858,10e-6 -0.50574,0.0684 -0.74149,0.20533 -0.23577,0.1369 -0.46201,0.31942 -0.67875,0.54756 -0.21675,0.22817 -0.41828,0.49054 -0.6046,0.78712 -0.18633,0.29661 -0.35364,0.60841 -0.50193,0.93542 -0.1483,0.32703 -0.27949,0.65784 -0.39356,0.99246 -0.11408,0.33463 -0.20534,0.65023 -0.27378,0.94682 0.49432,-0.0456 1.00576,-0.1597 1.53431,-0.34222 0.52854,-0.18252 1.00956,-0.41637 1.44305,-0.70157 0.43348,-0.28518 0.78902,-0.61029 1.06661,-0.97534 0.27757,-0.36503 0.41636,-0.75289 0.41637,-1.16357 z m 2.07617,0.0228 c -10e-6,0.42589 -0.0989,0.81754 -0.29659,1.17497 -0.19774,0.35745 -0.46582,0.68066 -0.80423,0.96964 -0.33844,0.289 -0.73009,0.54567 -1.17498,0.77001 -0.4449,0.22436 -0.91261,0.41448 -1.40313,0.57038 -0.49053,0.15591 -0.99056,0.28139 -1.50009,0.37645 -0.50954,0.0951 -0.99626,0.154 -1.46016,0.17681 -0.0228,0.15211 -0.0437,0.33463 -0.0627,0.54756 -0.019,0.21295 -0.0285,0.39167 -0.0285,0.53616 -1e-5,0.42588 0.0513,0.81754 0.154,1.17498 0.10266,0.35743 0.25096,0.66734 0.44489,0.92971 0.19393,0.26237 0.42778,0.46771 0.70157,0.61601 0.27377,0.14829 0.58178,0.22244 0.92401,0.22244 0.52474,0 1.10272,-0.19012 1.73394,-0.57037 0.63121,-0.38025 1.3765,-0.94683 2.23588,-1.69973 l 0,1.47158 c -0.22056,0.21294 -0.49053,0.44679 -0.80994,0.70156 -0.31942,0.25477 -0.68255,0.49433 -1.08942,0.71867 -0.40687,0.22435 -0.84986,0.41067 -1.32897,0.55897 -0.47913,0.1483 -0.98486,0.22245 -1.51721,0.22245 -0.23576,0 -0.49242,-0.0228 -0.77,-0.0684 -0.27759,-0.0456 -0.55327,-0.12738 -0.82705,-0.24526 -0.27378,-0.11788 -0.53806,-0.27948 -0.79282,-0.48482 -0.25477,-0.20533 -0.47912,-0.4658 -0.67305,-0.78141 -0.19393,-0.31561 -0.34983,-0.69206 -0.46771,-1.12935 -0.11788,-0.43729 -0.17681,-0.95253 -0.17681,-1.54572 0,-0.616 0.0741,-1.23011 0.22244,-1.84232 0.1483,-0.6122 0.35744,-1.19778 0.62742,-1.75676 0.26997,-0.55896 0.59509,-1.0799 0.97534,-1.56283 0.38025,-0.48291 0.79853,-0.90118 1.25483,-1.25483 0.4563,-0.35362 0.94492,-0.6312 1.46587,-0.83275 0.52094,-0.20152 1.05899,-0.30229 1.61416,-0.3023 0.53995,1e-5 0.99055,0.0894 1.3518,0.26808 0.36123,0.17873 0.65212,0.39357 0.87267,0.64452 0.22054,0.25098 0.37644,0.50955 0.46771,0.77572 0.0913,0.26618 0.13688,0.48293 0.13689,0.65023 z"
       style=""
       id="path3917" />
    <path
       d="m 277.81908,380.28681 c -10e-6,-0.52474 -0.0608,-0.96773 -0.18252,-1.32898 -0.12169,-0.36123 -0.26999,-0.65592 -0.4449,-0.88408 -0.17492,-0.22815 -0.35934,-0.39165 -0.55326,-0.49053 -0.19394,-0.0988 -0.35934,-0.14829 -0.49623,-0.1483 -0.19013,1e-5 -0.39927,0.0304 -0.62741,0.0913 -0.22816,0.0609 -0.46201,0.14641 -0.70157,0.25667 -0.23956,0.11029 -0.47722,0.23767 -0.71297,0.38216 -0.23576,0.1445 -0.4525,0.3004 -0.65023,0.46771 l -1.30045,7.07267 c 0.076,0.11407 0.17871,0.22435 0.308,0.33081 0.12928,0.10648 0.27758,0.20344 0.44489,0.2909 0.16731,0.0875 0.34983,0.1578 0.54756,0.21104 0.19773,0.0532 0.40307,0.0799 0.61601,0.0799 0.35743,0 0.69776,-0.0913 1.02097,-0.27378 0.32321,-0.18252 0.62361,-0.42968 0.9012,-0.74149 0.27758,-0.31181 0.53044,-0.67685 0.7586,-1.09513 0.22814,-0.41827 0.42017,-0.86126 0.57608,-1.32897 0.1559,-0.46771 0.27758,-0.95063 0.36504,-1.44876 0.0875,-0.49812 0.13118,-0.97914 0.13119,-1.44305 z m 2.31573,-0.0913 c -1e-5,0.48673 -0.0532,1.00957 -0.15971,1.56853 -0.10648,0.55898 -0.27189,1.11604 -0.49622,1.67121 -0.22436,0.55517 -0.51145,1.09132 -0.86127,1.60846 -0.34984,0.51714 -0.76812,0.97344 -1.25483,1.3689 -0.48673,0.39546 -1.0457,0.71297 -1.67691,0.95253 -0.63122,0.23956 -1.34229,0.35934 -2.13321,0.35934 -0.66164,0 -1.31377,-0.0913 -1.95639,-0.27378 -0.64263,-0.18252 -1.23772,-0.4525 -1.78528,-0.80994 l 2.76062,-14.80697 -2.08757,-0.20534 0,-0.70727 3.65041,-0.69586 0.9126,0 -1.33468,7.07267 c 0.21293,-0.19011 0.44679,-0.37073 0.70156,-0.54185 0.25476,-0.17111 0.51904,-0.3194 0.79282,-0.4449 0.27378,-0.12547 0.55516,-0.22624 0.84416,-0.3023 0.28899,-0.076 0.57417,-0.11406 0.85557,-0.11407 0.60079,1e-5 1.10652,0.1331 1.5172,0.39926 0.41066,0.26619 0.74338,0.60841 0.99816,1.02668 0.25476,0.41828 0.43728,0.88029 0.54756,1.38601 0.11026,0.50575 0.1654,1.00197 0.16541,1.48869 z"
       style=""
       id="path3919" />
    <path
       d="m 289.55742,378.27908 c 0.008,-0.038 -0.0209,-0.12547 -0.0856,-0.26237 -0.0646,-0.13688 -0.1426,-0.27948 -0.23385,-0.42778 -0.0913,-0.14829 -0.18824,-0.27948 -0.2909,-0.39356 -0.10267,-0.11407 -0.18823,-0.17111 -0.25667,-0.17112 -0.59319,1e-5 -1.12364,0.097 -1.59135,0.29089 -0.46771,0.19394 -0.87648,0.45632 -1.22631,0.78712 -0.34983,0.33083 -0.64833,0.71298 -0.89549,1.14646 -0.24717,0.4335 -0.4468,0.88599 -0.59889,1.3575 -0.15211,0.47152 -0.26238,0.94683 -0.33082,1.42594 -0.0684,0.47912 -0.10267,0.93542 -0.10267,1.3689 0,0.32702 0.0266,0.65404 0.0799,0.98105 0.0532,0.32702 0.1464,0.62362 0.27949,0.88979 0.13308,0.26618 0.3156,0.48292 0.54756,0.65023 0.23195,0.16731 0.53044,0.25097 0.89549,0.25096 0.27378,10e-6 0.54756,-0.0608 0.82134,-0.18252 0.27378,-0.12167 0.52855,-0.26237 0.76431,-0.42207 0.23575,-0.15971 0.44108,-0.31941 0.616,-0.47912 0.17491,-0.1597 0.3042,-0.28138 0.38786,-0.36504 z m 3.43366,8.53284 c -0.0913,0.038 -0.25858,0.10837 -0.50193,0.21104 -0.24337,0.10266 -0.51525,0.20533 -0.81564,0.308 -0.3004,0.10267 -0.60461,0.19393 -0.9126,0.27378 -0.30801,0.0799 -0.57609,0.11978 -0.80423,0.11978 -0.28139,0 -0.51905,-0.0342 -0.71297,-0.10267 -0.19394,-0.0684 -0.35364,-0.17111 -0.47912,-0.308 -0.12549,-0.13689 -0.22245,-0.3042 -0.29089,-0.50193 -0.0684,-0.19773 -0.11408,-0.42588 -0.13689,-0.68446 -0.17492,0.16732 -0.38026,0.34413 -0.61601,0.53045 -0.23576,0.18633 -0.49623,0.35934 -0.78141,0.51905 -0.2852,0.1597 -0.5894,0.29089 -0.9126,0.39356 -0.32322,0.10267 -0.65975,0.154 -1.00957,0.154 -0.45631,0 -0.85747,-0.0646 -1.2035,-0.19393 -0.34603,-0.12928 -0.64452,-0.3023 -0.89549,-0.51904 -0.25097,-0.21674 -0.4582,-0.46771 -0.62171,-0.7529 -0.16351,-0.28519 -0.29469,-0.58178 -0.39356,-0.88979 -0.0989,-0.308 -0.16731,-0.6198 -0.20533,-0.93541 -0.038,-0.31561 -0.057,-0.61411 -0.057,-0.8955 0,-0.60079 0.0646,-1.20729 0.19393,-1.8195 0.12928,-0.6122 0.32131,-1.20158 0.57608,-1.76816 0.25476,-0.56657 0.57227,-1.09702 0.95253,-1.59136 0.38024,-0.49431 0.81943,-0.924 1.31757,-1.28905 0.49812,-0.36503 1.05329,-0.65212 1.6655,-0.86127 0.61219,-0.20912 1.28334,-0.31369 2.01343,-0.3137 0.21293,1e-5 0.42397,0.0247 0.63311,0.0742 0.20913,0.0494 0.40496,0.11408 0.58749,0.19392 0.18251,0.0799 0.34982,0.16923 0.50193,0.26808 0.15209,0.0989 0.28138,0.20154 0.38786,0.308 l 0.34223,-0.55896 1.59705,0 c -0.038,0.0913 -0.0799,0.19964 -0.12548,0.32511 -0.0456,0.12549 -0.0913,0.25288 -0.13689,0.38215 -0.0456,0.1293 -0.0856,0.25098 -0.11978,0.36504 -0.0342,0.11409 -0.0552,0.20155 -0.0627,0.26238 -0.0532,0.20534 -0.1293,0.51525 -0.22815,0.92971 -0.0989,0.41448 -0.20345,0.88029 -0.31371,1.39742 -0.11028,0.51715 -0.22436,1.05901 -0.34223,1.62558 -0.11789,0.56658 -0.22245,1.10273 -0.3137,1.60846 -0.0913,0.50574 -0.16732,0.95443 -0.22816,1.34609 -0.0608,0.39166 -0.0913,0.67495 -0.0913,0.84986 -1e-5,0.41067 0.0874,0.69206 0.26238,0.84416 0.1749,0.1521 0.42207,0.22815 0.74149,0.22815 0.076,0 0.18821,-0.0171 0.33652,-0.0513 0.14829,-0.0342 0.30229,-0.0741 0.462,-0.11978 0.1597,-0.0456 0.308,-0.0874 0.4449,-0.12548 0.13688,-0.038 0.23574,-0.0646 0.29659,-0.0799 z"
       style=""
       id="path3921" />
    <path
       d="m 301.22734,377.36648 c -1e-5,0.27379 -0.0609,0.49243 -0.18252,0.65593 -0.12169,0.16352 -0.26999,0.2909 -0.4449,0.38215 -0.17492,0.0913 -0.35934,0.15401 -0.55326,0.18823 -0.19394,0.0342 -0.36315,0.0551 -0.50764,0.0627 l -1.04949,-1.42594 c -0.0456,-0.038 -0.11789,-0.0779 -0.21675,-0.11978 -0.0989,-0.0418 -0.22055,-0.0627 -0.36504,-0.0627 -0.25857,10e-6 -0.47531,0.0551 -0.65023,0.16541 -0.17492,0.11028 -0.31751,0.24717 -0.42778,0.41067 -0.11027,0.16352 -0.18823,0.33843 -0.23385,0.52474 -0.0456,0.18634 -0.0685,0.35555 -0.0685,0.50764 0,0.21295 0.0608,0.42779 0.18252,0.64453 0.12168,0.21675 0.28138,0.43349 0.47912,0.65023 0.19773,0.21675 0.42017,0.42969 0.66734,0.63882 0.24716,0.20914 0.49622,0.41258 0.74719,0.6103 0.25857,0.20534 0.50763,0.41638 0.7472,0.63312 0.23955,0.21675 0.45439,0.44109 0.64452,0.67304 0.19012,0.23196 0.34222,0.47722 0.4563,0.73579 0.11407,0.25857 0.17111,0.52855 0.17112,0.80993 -1e-5,0.47912 -0.097,0.93923 -0.2909,1.38032 -0.19393,0.44109 -0.47912,0.83275 -0.85556,1.17497 -0.37646,0.34223 -0.84416,0.61411 -1.40313,0.81564 -0.55897,0.20153 -1.19969,0.3023 -1.92217,0.3023 -0.56277,0 -1.04949,-0.0627 -1.46016,-0.18822 -0.41067,-0.12549 -0.7491,-0.289 -1.01527,-0.49053 -0.26618,-0.20153 -0.46391,-0.43158 -0.59319,-0.69015 -0.12929,-0.25857 -0.19393,-0.52095 -0.19393,-0.78712 0,-0.37265 0.11217,-0.67495 0.33652,-0.9069 0.22435,-0.23195 0.57608,-0.34793 1.0552,-0.34793 0.14449,0 0.28138,0.019 0.41067,0.057 0.12928,0.038 0.24716,0.0818 0.35363,0.13119 0.10647,0.0494 0.19963,0.10267 0.27949,0.15971 0.0799,0.057 0.13879,0.10457 0.17681,0.14259 l -0.44489,1.14075 c 0.16731,0.23576 0.37455,0.43539 0.62171,0.5989 0.24716,0.16351 0.56847,0.24526 0.96394,0.24526 0.23575,0 0.4639,-0.0456 0.68445,-0.13689 0.22054,-0.0913 0.41637,-0.22054 0.58749,-0.38785 0.17111,-0.16731 0.30609,-0.37075 0.40496,-0.61031 0.0989,-0.23955 0.1483,-0.50763 0.1483,-0.80423 0,-0.23575 -0.0475,-0.4582 -0.14259,-0.66734 -0.0951,-0.20913 -0.22816,-0.41257 -0.39927,-0.6103 -0.17111,-0.19773 -0.37265,-0.39356 -0.60459,-0.58749 -0.23196,-0.19392 -0.48863,-0.39736 -0.77001,-0.6103 -0.24337,-0.19012 -0.47722,-0.39546 -0.70157,-0.61601 -0.22435,-0.22054 -0.42588,-0.45439 -0.6046,-0.70156 -0.17872,-0.24716 -0.32131,-0.50763 -0.42778,-0.78142 -0.10647,-0.27377 -0.15971,-0.55516 -0.1597,-0.84416 -1e-5,-0.57037 0.12928,-1.0761 0.38785,-1.5172 0.25857,-0.44108 0.59129,-0.81183 0.99816,-1.11223 0.40687,-0.30039 0.85937,-0.52664 1.3575,-0.67875 0.49812,-0.15209 0.98674,-0.22814 1.46587,-0.22815 0.44108,1e-5 0.81183,0.0513 1.11223,0.154 0.30039,0.10268 0.54375,0.22816 0.73008,0.37645 0.18632,0.14831 0.31941,0.30801 0.39927,0.47911 0.0798,0.17113 0.11977,0.32513 0.11978,0.46201 z"
       style=""
       id="path3923" />
    <path
       d="m 313.35353,386.90318 c -0.19775,0.0989 -0.42399,0.19773 -0.67875,0.29659 -0.25478,0.0989 -0.51525,0.18633 -0.78142,0.26238 -0.26618,0.0761 -0.52665,0.13879 -0.78141,0.18822 -0.25478,0.0494 -0.47343,0.0741 -0.65594,0.0741 -0.19013,0 -0.37645,-0.0323 -0.55897,-0.097 -0.18252,-0.0647 -0.35554,-0.1483 -0.51904,-0.25097 -0.16351,-0.10267 -0.31371,-0.22055 -0.4506,-0.35363 -0.13689,-0.13309 -0.25097,-0.26808 -0.34222,-0.40497 -0.10648,-0.15971 -0.22626,-0.36694 -0.35934,-0.62171 -0.13309,-0.25477 -0.27379,-0.53425 -0.42208,-0.83846 -0.1483,-0.30419 -0.2985,-0.6217 -0.4506,-0.95252 -0.1521,-0.33082 -0.2985,-0.65023 -0.43919,-0.95824 -0.14069,-0.308 -0.26998,-0.59509 -0.38785,-0.86127 -0.11788,-0.26617 -0.21865,-0.48291 -0.3023,-0.65023 l -1.07231,0.95824 -0.95823,4.74553 -2.14462,0 3.10285,-15.6055 -2.05336,-0.20534 0,-0.70727 3.61619,-0.69586 0.93542,0 -2.16743,10.85997 3.77589,-3.90137 c 0.22054,-0.22814 0.42207,-0.42397 0.6046,-0.58749 0.18251,-0.1635 0.35933,-0.29658 0.53045,-0.39926 0.17111,-0.10266 0.34412,-0.17871 0.51904,-0.22815 0.17491,-0.0494 0.36504,-0.0741 0.57038,-0.0742 0.25856,1e-5 0.48481,0.038 0.67875,0.11407 0.19392,0.0761 0.35362,0.17493 0.47912,0.2966 0.12547,0.12169 0.21863,0.25858 0.27948,0.41067 0.0608,0.15211 0.0875,0.30041 0.0799,0.44489 -10e-6,0.26619 -0.12359,0.54187 -0.37074,0.82705 -0.24718,0.2852 -0.64454,0.52285 -1.19209,0.71297 l -0.79853,-0.84416 c -0.21295,0.16732 -0.443,0.35365 -0.69015,0.55897 -0.24717,0.20535 -0.49624,0.41448 -0.7472,0.62742 -0.25097,0.21295 -0.49053,0.42208 -0.71867,0.62741 -0.22816,0.20534 -0.43349,0.38786 -0.61601,0.54756 0.0989,0.19774 0.20723,0.4449 0.32512,0.74149 0.11787,0.2966 0.24335,0.61411 0.37645,0.95253 0.13308,0.33843 0.27757,0.68446 0.43348,1.03809 0.1559,0.35363 0.32131,0.69016 0.49623,1.00956 0.17491,0.32702 0.35933,0.64073 0.55327,0.94112 0.19392,0.30041 0.39355,0.56658 0.59889,0.79853 0.20533,0.23196 0.41447,0.41638 0.62742,0.55327 0.21293,0.13689 0.42206,0.20533 0.62741,0.20533 0.0836,0 0.18631,-0.01 0.308,-0.0285 0.12167,-0.019 0.25096,-0.0437 0.38786,-0.0741 0.13688,-0.0304 0.27187,-0.0684 0.40497,-0.11408 0.13307,-0.0456 0.24905,-0.0913 0.34793,-0.13689 z"
       style=""
       id="path3925" />
    <path
       d="m 322.31987,378.27908 c 0.008,-0.038 -0.0209,-0.12547 -0.0856,-0.26237 -0.0646,-0.13688 -0.1426,-0.27948 -0.23385,-0.42778 -0.0913,-0.14829 -0.18824,-0.27948 -0.2909,-0.39356 -0.10267,-0.11407 -0.18823,-0.17111 -0.25666,-0.17112 -0.5932,1e-5 -1.12365,0.097 -1.59136,0.29089 -0.46771,0.19394 -0.87648,0.45632 -1.22631,0.78712 -0.34983,0.33083 -0.64833,0.71298 -0.89549,1.14646 -0.24716,0.4335 -0.4468,0.88599 -0.59889,1.3575 -0.15211,0.47152 -0.26238,0.94683 -0.33082,1.42594 -0.0684,0.47912 -0.10267,0.93542 -0.10267,1.3689 0,0.32702 0.0266,0.65404 0.0799,0.98105 0.0532,0.32702 0.1464,0.62362 0.27949,0.88979 0.13308,0.26618 0.3156,0.48292 0.54756,0.65023 0.23195,0.16731 0.53045,0.25097 0.89549,0.25096 0.27378,10e-6 0.54756,-0.0608 0.82134,-0.18252 0.27378,-0.12167 0.52855,-0.26237 0.76431,-0.42207 0.23575,-0.15971 0.44108,-0.31941 0.61601,-0.47912 0.1749,-0.1597 0.30419,-0.28138 0.38785,-0.36504 z m 3.43367,8.53284 c -0.0913,0.038 -0.25859,0.10837 -0.50194,0.21104 -0.24337,0.10266 -0.51525,0.20533 -0.81563,0.308 -0.30041,0.10267 -0.60461,0.19393 -0.91261,0.27378 -0.30801,0.0799 -0.57609,0.11978 -0.80423,0.11978 -0.28139,0 -0.51905,-0.0342 -0.71297,-0.10267 -0.19394,-0.0684 -0.35364,-0.17111 -0.47912,-0.308 -0.12549,-0.13689 -0.22245,-0.3042 -0.29089,-0.50193 -0.0684,-0.19773 -0.11408,-0.42588 -0.13689,-0.68446 -0.17492,0.16732 -0.38026,0.34413 -0.616,0.53045 -0.23577,0.18633 -0.49624,0.35934 -0.78142,0.51905 -0.2852,0.1597 -0.5894,0.29089 -0.9126,0.39356 -0.32322,0.10267 -0.65974,0.154 -1.00957,0.154 -0.45631,0 -0.85747,-0.0646 -1.2035,-0.19393 -0.34603,-0.12928 -0.64452,-0.3023 -0.89549,-0.51904 -0.25096,-0.21674 -0.4582,-0.46771 -0.62171,-0.7529 -0.16351,-0.28519 -0.29469,-0.58178 -0.39356,-0.88979 -0.0989,-0.308 -0.16731,-0.6198 -0.20533,-0.93541 -0.038,-0.31561 -0.057,-0.61411 -0.057,-0.8955 0,-0.60079 0.0646,-1.20729 0.19393,-1.8195 0.12928,-0.6122 0.32131,-1.20158 0.57608,-1.76816 0.25476,-0.56657 0.57227,-1.09702 0.95253,-1.59136 0.38025,-0.49431 0.81944,-0.924 1.31757,-1.28905 0.49812,-0.36503 1.05329,-0.65212 1.6655,-0.86127 0.6122,-0.20912 1.28334,-0.31369 2.01343,-0.3137 0.21293,1e-5 0.42397,0.0247 0.63312,0.0742 0.20912,0.0494 0.40495,0.11408 0.58748,0.19392 0.18251,0.0799 0.34982,0.16923 0.50193,0.26808 0.1521,0.0989 0.28138,0.20154 0.38786,0.308 l 0.34223,-0.55896 1.59705,0 c -0.038,0.0913 -0.0799,0.19964 -0.12548,0.32511 -0.0456,0.12549 -0.0913,0.25288 -0.13689,0.38215 -0.0456,0.1293 -0.0856,0.25098 -0.11978,0.36504 -0.0342,0.11409 -0.0552,0.20155 -0.0627,0.26238 -0.0532,0.20534 -0.1293,0.51525 -0.22815,0.92971 -0.0989,0.41448 -0.20345,0.88029 -0.31371,1.39742 -0.11028,0.51715 -0.22436,1.05901 -0.34223,1.62558 -0.11788,0.56658 -0.22245,1.10273 -0.3137,1.60846 -0.0913,0.50574 -0.16732,0.95443 -0.22815,1.34609 -0.0609,0.39166 -0.0913,0.67495 -0.0913,0.84986 -10e-6,0.41067 0.0874,0.69206 0.26237,0.84416 0.1749,0.1521 0.42207,0.22815 0.74149,0.22815 0.076,0 0.18821,-0.0171 0.33652,-0.0513 0.14829,-0.0342 0.30229,-0.0741 0.46201,-0.11978 0.15969,-0.0456 0.30799,-0.0874 0.44489,-0.12548 0.13688,-0.038 0.23574,-0.0646 0.2966,-0.0799 z"
       style=""
       id="path3927" />
    <path
       d="m 338.1421,386.97162 c -0.0989,0.038 -0.27189,0.097 -0.51904,0.17682 -0.24718,0.0799 -0.52286,0.16351 -0.82705,0.25096 -0.30421,0.0875 -0.61602,0.16351 -0.93542,0.22816 -0.31942,0.0646 -0.6008,0.097 -0.84416,0.097 -0.13689,0 -0.32512,-0.0133 -0.56467,-0.0399 -0.23957,-0.0266 -0.46962,-0.0874 -0.69015,-0.18252 -0.22056,-0.0951 -0.39928,-0.23385 -0.53616,-0.41637 -0.1369,-0.18252 -0.17112,-0.42969 -0.10267,-0.74149 l 1.42595,-7.17534 c 0.0532,-0.3118 0.0551,-0.57037 0.006,-0.77571 -0.0494,-0.20533 -0.12929,-0.37074 -0.23956,-0.49623 -0.11028,-0.12547 -0.23766,-0.21293 -0.38215,-0.26237 -0.1445,-0.0494 -0.28139,-0.0741 -0.41067,-0.0742 -0.19014,1e-5 -0.42399,0.0551 -0.70157,0.16541 -0.27759,0.11028 -0.57038,0.25668 -0.87838,0.43919 -0.30801,0.18253 -0.61791,0.39737 -0.92971,0.64452 -0.31181,0.24717 -0.597,0.50765 -0.85556,0.78142 l -1.60847,7.84838 -2.17884,0 2.03054,-9.92455 -1.96209,-0.21675 0,-0.67304 3.52493,-0.73008 0.93541,0 -0.43348,2.17884 c 0.25856,-0.25857 0.55516,-0.51904 0.88979,-0.78142 0.33461,-0.26236 0.69205,-0.49622 1.0723,-0.70156 0.38025,-0.20533 0.77381,-0.37264 1.18068,-0.50193 0.40686,-0.12928 0.80423,-0.19392 1.19209,-0.19393 0.85175,1e-5 1.45825,0.23576 1.8195,0.70726 0.36123,0.47153 0.45059,1.23203 0.26808,2.28151 l -1.24342,6.59356 c -0.038,0.22054 -0.0209,0.39546 0.0513,0.52474 0.0722,0.12929 0.1673,0.22815 0.28519,0.2966 0.11787,0.0684 0.24145,0.11217 0.37075,0.13118 0.12927,0.019 0.22814,0.0285 0.29659,0.0285 0.21293,0 0.44488,-0.0304 0.69586,-0.0913 0.25096,-0.0608 0.50953,-0.13308 0.77571,-0.21674 z"
       style=""
       id="path3929" />
    <path
       d="m 354.74007,385.43161 c -0.038,0.22054 -0.0266,0.39926 0.0342,0.53615 0.0608,0.13689 0.14259,0.24526 0.24526,0.32511 0.10266,0.0799 0.20913,0.13499 0.31942,0.16541 0.11026,0.0304 0.19201,0.0456 0.24526,0.0456 0.0532,0 0.16159,-0.0209 0.32511,-0.0627 0.1635,-0.0418 0.33651,-0.0894 0.51905,-0.14259 0.1825,-0.0532 0.35362,-0.10267 0.51333,-0.1483 l 0.31942,-0.0913 0,0.86697 c -0.0913,0.038 -0.25859,0.10077 -0.50194,0.18823 -0.24337,0.0874 -0.51335,0.17681 -0.80993,0.26807 -0.29661,0.0913 -0.60271,0.17112 -0.91831,0.23956 -0.31562,0.0684 -0.5913,0.10267 -0.82704,0.10267 -0.35745,0 -0.65024,-0.0437 -0.87838,-0.13119 -0.22816,-0.0875 -0.40688,-0.20914 -0.53616,-0.36504 -0.12929,-0.1559 -0.21865,-0.34032 -0.26808,-0.55326 -0.0494,-0.21294 -0.0741,-0.4487 -0.0741,-0.70727 -0.20535,0.22055 -0.4316,0.43539 -0.67875,0.64452 -0.24717,0.20914 -0.51145,0.39547 -0.79283,0.55897 -0.28139,0.16351 -0.57798,0.2966 -0.88978,0.39927 -0.31181,0.10267 -0.63122,0.154 -0.95824,0.154 -0.65403,0 -1.19589,-0.12548 -1.62557,-0.37645 -0.42969,-0.25096 -0.77001,-0.57798 -1.02097,-0.98105 -0.25097,-0.40306 -0.42779,-0.85176 -0.53045,-1.34609 -0.10267,-0.49432 -0.15401,-0.98865 -0.15401,-1.48298 0,-0.616 0.0666,-1.23391 0.19964,-1.85372 0.13308,-0.6198 0.33081,-1.21299 0.59319,-1.77957 0.26237,-0.56657 0.58368,-1.09322 0.96393,-1.57995 0.38025,-0.48671 0.81374,-0.91069 1.30046,-1.27194 0.48672,-0.36123 1.02858,-0.64451 1.62558,-0.84986 0.59698,-0.20532 1.23771,-0.30799 1.92217,-0.308 0.1749,1e-5 0.34602,0.0171 0.51333,0.0513 0.16731,0.0342 0.32701,0.0742 0.47912,0.11978 0.15209,0.0456 0.29279,0.0951 0.42208,0.1483 0.12928,0.0532 0.24335,0.0951 0.34223,0.12548 l 0.78712,-4.50597 -2.12181,-0.20534 0,-0.70727 3.61619,-0.69586 0.95824,0 z m -0.9126,-7.19816 c 0.008,-0.0304 -0.0361,-0.11597 -0.13119,-0.25667 -0.0951,-0.14068 -0.21675,-0.28708 -0.36504,-0.43919 -0.14831,-0.15209 -0.30991,-0.28898 -0.48482,-0.41067 -0.17492,-0.12167 -0.33843,-0.18251 -0.49052,-0.18252 -0.57039,1e-5 -1.11415,0.16542 -1.63128,0.49623 -0.51715,0.33083 -0.97345,0.78523 -1.36891,1.3632 -0.39546,0.57799 -0.71107,1.26054 -0.94682,2.04765 -0.23576,0.78713 -0.35364,1.63699 -0.35363,2.54958 -10e-6,0.50194 0.0513,0.93543 0.154,1.30046 0.10266,0.36505 0.23955,0.66544 0.41067,0.9012 0.17111,0.23576 0.36694,0.41067 0.58749,0.52474 0.22054,0.11408 0.44489,0.17112 0.67304,0.17112 0.21294,0 0.44299,-0.0532 0.69016,-0.15971 0.24715,-0.10647 0.49622,-0.24906 0.74719,-0.42778 0.25096,-0.17872 0.50002,-0.38405 0.74719,-0.61601 0.24716,-0.23195 0.47721,-0.4696 0.69016,-0.71297 z"
       style=""
       id="path3931" />
    <path
       d="m 369.55846,386.88036 c -0.14451,0.0837 -0.34414,0.17492 -0.5989,0.27378 -0.25478,0.0989 -0.53046,0.19013 -0.82705,0.27378 -0.2966,0.0837 -0.5989,0.15401 -0.90689,0.21104 -0.30802,0.057 -0.5875,0.0856 -0.83846,0.0856 -0.4411,0 -0.76811,-0.0741 -0.98105,-0.22245 -0.21295,-0.1483 -0.35934,-0.31941 -0.43919,-0.51334 -0.0799,-0.19392 -0.11598,-0.38975 -0.10837,-0.58748 0.008,-0.19773 0.0114,-0.34223 0.0114,-0.43349 -0.61601,0.58559 -1.26054,1.02478 -1.93358,1.31757 -0.67305,0.29279 -1.40123,0.43919 -2.18454,0.43919 -0.53996,0 -0.98105,-0.0951 -1.32327,-0.28519 -0.34223,-0.19012 -0.6008,-0.42968 -0.77572,-0.71867 -0.17491,-0.28899 -0.28138,-0.6046 -0.31941,-0.94683 -0.038,-0.34222 -0.0266,-0.66544 0.0342,-0.96964 l 1.5172,-7.28941 -1.9621,-0.21675 0,-0.67304 3.52493,-0.73008 0.95823,0 -1.85943,8.90928 c -0.0456,0.19773 -0.0361,0.38596 0.0285,0.56467 0.0646,0.17872 0.15971,0.33463 0.28519,0.46771 0.12548,0.13309 0.26807,0.23956 0.42778,0.31941 0.15971,0.0799 0.31561,0.11978 0.46771,0.11978 0.28138,0 0.56467,-0.0399 0.84986,-0.11978 0.28519,-0.0799 0.56847,-0.18822 0.84987,-0.32511 0.28137,-0.13689 0.55135,-0.29469 0.80993,-0.47341 0.25856,-0.17872 0.49812,-0.37075 0.71867,-0.57608 l 1.76817,-8.60128 2.17884,0 -1.87083,8.98913 c -0.0532,0.24336 -0.0532,0.4468 0,0.6103 0.0532,0.16351 0.13498,0.2985 0.24526,0.40497 0.11026,0.10647 0.23574,0.18252 0.37645,0.22815 0.14068,0.0456 0.27567,0.0685 0.40496,0.0685 0.15209,0 0.35363,-0.0228 0.6046,-0.0685 0.25096,-0.0456 0.53995,-0.1635 0.86698,-0.35363 z"
       style=""
       id="path3933" />
    <path
       d="m 381.94703,386.97162 c -0.0989,0.038 -0.27189,0.097 -0.51904,0.17682 -0.24718,0.0799 -0.52286,0.16351 -0.82705,0.25096 -0.30421,0.0875 -0.61602,0.16351 -0.93542,0.22816 -0.31942,0.0646 -0.6008,0.097 -0.84415,0.097 -0.1369,0 -0.32513,-0.0133 -0.56468,-0.0399 -0.23956,-0.0266 -0.46962,-0.0874 -0.69015,-0.18252 -0.22056,-0.0951 -0.39927,-0.23385 -0.53616,-0.41637 -0.13689,-0.18252 -0.17112,-0.42969 -0.10266,-0.74149 l 1.42594,-7.17534 c 0.0532,-0.3118 0.0551,-0.57037 0.006,-0.77571 -0.0494,-0.20533 -0.12929,-0.37074 -0.23956,-0.49623 -0.11028,-0.12547 -0.23766,-0.21293 -0.38215,-0.26237 -0.1445,-0.0494 -0.28139,-0.0741 -0.41067,-0.0742 -0.19013,1e-5 -0.42399,0.0551 -0.70156,0.16541 -0.27759,0.11028 -0.57039,0.25668 -0.87838,0.43919 -0.30801,0.18253 -0.61792,0.39737 -0.92972,0.64452 -0.31181,0.24717 -0.597,0.50765 -0.85556,0.78142 l -1.60847,7.84838 -2.17883,0 2.03054,-9.92455 -1.9621,-0.21675 0,-0.67304 3.52493,-0.73008 0.93542,0 -0.43349,2.17884 c 0.25857,-0.25857 0.55516,-0.51904 0.88979,-0.78142 0.33461,-0.26236 0.69205,-0.49622 1.07231,-0.70156 0.38024,-0.20533 0.7738,-0.37264 1.18068,-0.50193 0.40686,-0.12928 0.80422,-0.19392 1.19208,-0.19393 0.85176,1e-5 1.45826,0.23576 1.8195,0.70726 0.36123,0.47153 0.45059,1.23203 0.26808,2.28151 l -1.24342,6.59356 c -0.038,0.22054 -0.0209,0.39546 0.0513,0.52474 0.0722,0.12929 0.1673,0.22815 0.28519,0.2966 0.11787,0.0684 0.24145,0.11217 0.37075,0.13118 0.12927,0.019 0.22814,0.0285 0.29659,0.0285 0.21293,0 0.44489,-0.0304 0.69586,-0.0913 0.25096,-0.0608 0.50953,-0.13308 0.77572,-0.21674 z"
       style=""
       id="path3935" />
    <path
       d="m 388.15275,386.76629 c -0.0913,0.038 -0.25858,0.11027 -0.50194,0.21674 -0.24336,0.10647 -0.52855,0.21484 -0.85556,0.32511 -0.32702,0.11028 -0.67115,0.20724 -1.03238,0.2909 -0.36124,0.0836 -0.70157,0.12548 -1.02098,0.12548 -0.40307,0 -0.72248,-0.0684 -0.95823,-0.20534 -0.23576,-0.13689 -0.41067,-0.3156 -0.52475,-0.53615 -0.11407,-0.22055 -0.17872,-0.46771 -0.19392,-0.74149 -0.0152,-0.27378 0.004,-0.54376 0.057,-0.80993 l 1.49439,-7.91683 -2.00773,-0.21675 0,-0.67304 3.52493,-0.73008 0.95824,0 -1.76817,9.34277 c -0.0304,0.1597 -0.0285,0.3118 0.006,0.4563 0.0342,0.1445 0.0913,0.27188 0.17111,0.38215 0.0798,0.11027 0.18252,0.19773 0.30801,0.26237 0.12548,0.0646 0.26807,0.097 0.42778,0.097 0.13689,0 0.29849,-0.0247 0.48482,-0.0742 0.18632,-0.0494 0.37264,-0.10647 0.55897,-0.17111 0.18632,-0.0646 0.35933,-0.12739 0.51904,-0.18823 0.1597,-0.0608 0.27758,-0.10266 0.35364,-0.12548 z m -0.10267,-14.30505 c -10e-6,0.17493 -0.0323,0.34034 -0.097,0.49623 -0.0646,0.15591 -0.1559,0.29471 -0.27378,0.41637 -0.11788,0.1217 -0.26428,0.21866 -0.43919,0.29089 -0.17492,0.0723 -0.37645,0.10839 -0.6046,0.10838 -0.47912,1e-5 -0.84035,-0.12737 -1.08371,-0.38216 -0.24337,-0.25475 -0.36505,-0.56465 -0.36504,-0.92971 -10e-6,-0.15209 0.0323,-0.30419 0.097,-0.4563 0.0646,-0.15209 0.1597,-0.29088 0.28519,-0.41638 0.12548,-0.12546 0.27948,-0.22813 0.462,-0.308 0.18252,-0.0798 0.39166,-0.11976 0.62742,-0.11978 0.22054,2e-5 0.41637,0.038 0.58749,0.11408 0.1711,0.0761 0.3175,0.17493 0.43919,0.29659 0.12167,0.1217 0.21293,0.26049 0.27378,0.41638 0.0608,0.15591 0.0913,0.31372 0.0913,0.47341 z"
       style=""
       id="path3937" />
    <path
       d="m 396.8795,378.27908 c 0.008,-0.038 -0.0209,-0.12547 -0.0856,-0.26237 -0.0647,-0.13688 -0.1426,-0.27948 -0.23385,-0.42778 -0.0913,-0.14829 -0.18823,-0.27948 -0.29089,-0.39356 -0.10268,-0.11407 -0.18824,-0.17111 -0.25667,-0.17112 -0.5932,1e-5 -1.12365,0.097 -1.59135,0.29089 -0.46772,0.19394 -0.87649,0.45632 -1.22631,0.78712 -0.34984,0.33083 -0.64834,0.71298 -0.8955,1.14646 -0.24716,0.4335 -0.44679,0.88599 -0.59889,1.3575 -0.1521,0.47152 -0.26238,0.94683 -0.33082,1.42594 -0.0684,0.47912 -0.10267,0.93542 -0.10267,1.3689 0,0.32702 0.0266,0.65404 0.0799,0.98105 0.0532,0.32702 0.14639,0.62362 0.27948,0.88979 0.13308,0.26618 0.3156,0.48292 0.54756,0.65023 0.23195,0.16731 0.53045,0.25097 0.89549,0.25096 0.27378,10e-6 0.54756,-0.0608 0.82135,-0.18252 0.27377,-0.12167 0.52854,-0.26237 0.7643,-0.42207 0.23575,-0.15971 0.44108,-0.31941 0.61601,-0.47912 0.17491,-0.1597 0.30419,-0.28138 0.38785,-0.36504 z m 3.43367,8.53284 c -0.0913,0.038 -0.25859,0.10837 -0.50193,0.21104 -0.24338,0.10266 -0.51526,0.20533 -0.81564,0.308 -0.30041,0.10267 -0.60461,0.19393 -0.91261,0.27378 -0.30801,0.0799 -0.57609,0.11978 -0.80423,0.11978 -0.28139,0 -0.51905,-0.0342 -0.71297,-0.10267 -0.19393,-0.0684 -0.35364,-0.17111 -0.47911,-0.308 -0.12549,-0.13689 -0.22246,-0.3042 -0.2909,-0.50193 -0.0684,-0.19773 -0.11408,-0.42588 -0.13689,-0.68446 -0.17492,0.16732 -0.38026,0.34413 -0.616,0.53045 -0.23577,0.18633 -0.49624,0.35934 -0.78142,0.51905 -0.28519,0.1597 -0.58939,0.29089 -0.9126,0.39356 -0.32322,0.10267 -0.65974,0.154 -1.00957,0.154 -0.4563,0 -0.85747,-0.0646 -1.20349,-0.19393 -0.34604,-0.12928 -0.64453,-0.3023 -0.8955,-0.51904 -0.25096,-0.21674 -0.4582,-0.46771 -0.62171,-0.7529 -0.16351,-0.28519 -0.29469,-0.58178 -0.39356,-0.88979 -0.0989,-0.308 -0.16731,-0.6198 -0.20533,-0.93541 -0.038,-0.31561 -0.057,-0.61411 -0.057,-0.8955 0,-0.60079 0.0646,-1.20729 0.19393,-1.8195 0.12928,-0.6122 0.32131,-1.20158 0.57608,-1.76816 0.25477,-0.56657 0.57228,-1.09702 0.95253,-1.59136 0.38025,-0.49431 0.81944,-0.924 1.31757,-1.28905 0.49812,-0.36503 1.05329,-0.65212 1.6655,-0.86127 0.6122,-0.20912 1.28334,-0.31369 2.01343,-0.3137 0.21293,1e-5 0.42397,0.0247 0.63312,0.0742 0.20913,0.0494 0.40496,0.11408 0.58748,0.19392 0.18252,0.0799 0.34983,0.16923 0.50194,0.26808 0.15209,0.0989 0.28137,0.20154 0.38785,0.308 l 0.34223,-0.55896 1.59705,0 c -0.038,0.0913 -0.0799,0.19964 -0.12548,0.32511 -0.0456,0.12549 -0.0913,0.25288 -0.13689,0.38215 -0.0456,0.1293 -0.0856,0.25098 -0.11978,0.36504 -0.0342,0.11409 -0.0551,0.20155 -0.0627,0.26238 -0.0532,0.20534 -0.1293,0.51525 -0.22815,0.92971 -0.0989,0.41448 -0.20345,0.88029 -0.31371,1.39742 -0.11028,0.51715 -0.22436,1.05901 -0.34222,1.62558 -0.11789,0.56658 -0.22246,1.10273 -0.31371,1.60846 -0.0913,0.50574 -0.16732,0.95443 -0.22815,1.34609 -0.0609,0.39166 -0.0913,0.67495 -0.0913,0.84986 -1e-5,0.41067 0.0874,0.69206 0.26237,0.84416 0.17491,0.1521 0.42207,0.22815 0.74149,0.22815 0.076,0 0.18821,-0.0171 0.33652,-0.0513 0.14829,-0.0342 0.30229,-0.0741 0.46201,-0.11978 0.15969,-0.0456 0.30799,-0.0874 0.44489,-0.12548 0.13688,-0.038 0.23574,-0.0646 0.2966,-0.0799 z"
       style=""
       id="path3939" />
  </g>
  <rect
     style="fill:#00000b;fill-opacity:0.05490196;stroke:none"
     id="rect3872"
     width="15.050867"
     height="11.440314"
     x="410.06512"
     y="359.02591" />
</svg>
