<?xml version="1.0" encoding="UTF-8" standalone="no"?>
<!-- Created with Inkscape (http://www.inkscape.org/) -->

<svg
   xmlns:dc="http://purl.org/dc/elements/1.1/"
   xmlns:cc="http://creativecommons.org/ns#"
   xmlns:rdf="http://www.w3.org/1999/02/22-rdf-syntax-ns#"
   xmlns:svg="http://www.w3.org/2000/svg"
   xmlns="http://www.w3.org/2000/svg"
   xmlns:sodipodi="http://sodipodi.sourceforge.net/DTD/sodipodi-0.dtd"
   xmlns:inkscape="http://www.inkscape.org/namespaces/inkscape"
   version="1.0"
   width="369.57663"
   height="381.96024"
   id="svg2728"
   sodipodi:version="0.32"
   inkscape:version="0.48.3.1 r9886"
   sodipodi:docname="Wikibooks-logo-az.svg"
   inkscape:output_extension="org.inkscape.output.svg.inkscape">
  <metadata
     id="metadata2399">
    <rdf:RDF>
      <cc:Work
         rdf:about="">
        <dc:format>image/svg+xml</dc:format>
        <dc:type
           rdf:resource="http://purl.org/dc/dcmitype/StillImage" />
        <dc:title></dc:title>
      </cc:Work>
    </rdf:RDF>
  </metadata>
  <sodipodi:namedview
     inkscape:window-height="813"
     inkscape:window-width="1440"
     inkscape:pageshadow="2"
     inkscape:pageopacity="0.0"
     guidetolerance="10.0"
     gridtolerance="10.0"
     objecttolerance="10.0"
     borderopacity="1.0"
     bordercolor="#666666"
     pagecolor="#ffffff"
     id="base"
     showgrid="false"
     inkscape:zoom="1.1675"
     inkscape:cx="249.10438"
     inkscape:cy="150.15803"
     inkscape:window-x="0"
     inkscape:window-y="27"
     inkscape:current-layer="svg2728"
     fit-margin-left="0"
     fit-margin-right="0"
     fit-margin-bottom="0"
     fit-margin-top="0"
     inkscape:window-maximized="1" />
  <defs
     id="defs2731">
    <inkscape:perspective
       sodipodi:type="inkscape:persp3d"
       inkscape:vp_x="0 : 200 : 1"
       inkscape:vp_y="0 : 1000 : 0"
       inkscape:vp_z="400 : 200 : 1"
       inkscape:persp3d-origin="200 : 133.33333 : 1"
       id="perspective2401" />
  </defs>
  <g
     id="layer1"
     transform="translate(-22.953022,-19.6875)" />
  <g
     id="g3299"
     transform="translate(-22.973424,-16.0625)">
    <path
       d="m 191.65664,115.97593 c 5.27687,66.02591 16.7973,129.9439 51.19815,191.4892 l 13.00988,0.0971 82.29114,-73.41929 -78.43513,-198.199613 -56.54009,54.008439 -11.52395,26.024184 z"
       style="fill:#fdfcf8;fill-opacity:1;fill-rule:evenodd;stroke:none"
       id="path3297"
       inkscape:connector-curvature="0" />
    <path
       d="m 125.84082,116.04509 c 5.27687,66.02591 18.77829,130.78651 53.17914,192.33181 l 20.33475,0.18272 61.96822,-77.71837 -67.41807,-194.828778 -56.54009,54.008439 -11.52395,26.024179 z"
       style="fill:#f4eed7;fill-rule:evenodd;stroke:none"
       id="path3214"
       inkscape:connector-curvature="0" />
    <path
       d="m 50.218883,114.63177 c 5.376652,69.28374 27.01509,131.34001 52.459127,191.70491 l 26.80214,-0.33096 70.40072,-80.03768 L 118.28293,34.599156 61.742841,88.607595 50.218883,114.63177 z"
       style="fill:#e9ddaf;fill-rule:evenodd;stroke:none"
       id="path2238"
       inkscape:connector-curvature="0" />
    <g
       transform="translate(1.82723,0)"
       id="layer2">
      <path
         d="m 261.5,16.5 c -27.18692,26.301966 -54.0625,52.375 -54.0625,52.375 0,0 9.65625,19.65625 9.65625,19.65625 13.09357,-12.981225 26.26128,-24.397339 38.8125,-37.09375 26.43326,58.0352 44.44408,104.81167 66.59843,166.64698 7.25271,20.08798 5.77391,20.98678 -11.5625,31.84375 -27.85476,13.85172 -36.67281,22.93724 -69.87108,58.25927 l 22.71875,0 c 27.75344,-25.09151 38.05553,-33.94669 72.80858,-52.25927 12.29389,-7.09788 13.97957,-16.05857 8.9375,-30 C 329.27475,180.73146 294.04485,83.322614 261.5,16.5 z"
         style="fill:#5f96d3;fill-opacity:1"
         id="path3272"
         inkscape:connector-curvature="0" />
      <path
         d="m 190.625,17.125 c -19.88757,13.424352 -35.22867,32.744448 -52.53125,49.3125 0,0 7.09375,22.625 7.09375,22.625 13.54117,-10.670666 25.32557,-23.536457 37.5,-35.71875 l 65.65625,164.6875 c 3.78574,11.15069 -2.17642,21.0724 -14.15625,31.875 -14.34924,11.53271 -43.89257,38.42056 -57.28125,58.90625 l 20.375,0 c 21.38465,-21.96593 25.2452,-24.94746 49.59375,-46.03125 16.34634,-16.67844 31.114,-25.22072 23.40625,-46.59375 L 190.625,17.125 z"
         style="fill:#2a62a1;fill-opacity:1;fill-rule:evenodd;stroke:none"
         id="path3138"
         inkscape:connector-curvature="0" />
      <path
         d="m 123.5,16.0625 c -5.30135,1.779198 -9.71211,5.198015 -13.84375,8.8125 -56.088558,53.972012 -58.34375,56.25 -58.34375,56.25 -2.951465,2.742742 -3.197984,6.75235 -3.15625,10.78125 l 0.235404,22.72552 c 0,0 25.904224,-25.181716 64.577096,-62.41302 20.81842,54.23768 42.54552,108.18649 63.9375,162.21875 2.9295,8.16333 -4.08223,14.8534 -12.96875,23.78125 -12.27355,11.97358 -37.94466,36.62136 -64.21875,69.53125 l 26.34375,0 c 0,0 63.31249,-69.4375 63.3125,-69.4375 6.01928,-8.27793 13.50319,-16.3712 10.34375,-23.875 0,0 -76.21875,-198.374999 -76.21875,-198.375 z"
         style="fill:#15304f;fill-opacity:1;fill-rule:evenodd;stroke:none"
         id="path3136"
         inkscape:connector-curvature="0" />
    </g>
  </g>
  <text
     xml:space="preserve"
     style="font-size:58.39240265px;font-style:normal;font-variant:normal;font-weight:bold;font-stretch:normal;text-align:center;line-height:125%;letter-spacing:0px;word-spacing:0px;writing-mode:lr-tb;text-anchor:middle;fill:#000000;fill-opacity:1;stroke:none;font-family:DejaVu Sans;-inkscape-font-specification:Sans Bold"
     x="180.53323"
     y="347.22952"
     id="text2991"
     sodipodi:linespacing="125%"><tspan
       sodipodi:role="line"
       id="tspan2993"
       x="180.53323"
       y="347.22952"><tspan
         style="fill:#0b2645;fill-opacity:1"
         id="tspan3763">VİKİ</tspan><tspan
         style="fill:#0a4e98;fill-opacity:1"
         id="tspan3779">KİTAB</tspan></tspan></text>
  <g
     style="font-size:28.92989731px;font-style:italic;font-variant:normal;font-weight:normal;font-stretch:normal;text-align:center;line-height:125%;letter-spacing:0px;word-spacing:0px;writing-mode:lr-tb;text-anchor:middle;fill:#000000;fill-opacity:1;stroke:none;font-family:Charis SIL;-inkscape-font-specification:Sans Italic"
     id="text3815">
    <path
       id="path3887"
       style=""
       d="m 369.57663,362.98911 c -1e-5,0.33904 -0.0612,0.61214 -0.18364,0.81931 -0.12244,0.19777 -0.29665,0.34845 -0.52266,0.45203 -0.22602,0.1036 -0.49912,0.17423 -0.8193,0.21189 -0.31078,0.0283 -0.66393,0.0424 -1.05945,0.0424 l -0.69217,-1.38434 c -0.35786,0.15069 -0.74397,0.41438 -1.15832,0.79106 -0.40495,0.36728 -0.79106,0.79106 -1.15833,1.27133 -0.36728,0.47087 -0.68747,0.96057 -0.96056,1.4691 -0.27311,0.49912 -0.45204,0.96057 -0.53679,1.38434 l -1.51147,7.28897 -2.68393,0 2.48617,-12.28955 -2.42966,-0.26839 0,-0.83343 4.36491,-0.90406 1.15832,0 -0.60741,2.92406 c 0.59328,-0.91346 1.26662,-1.62917 2.02001,-2.14714 0.75337,-0.51793 1.56797,-0.77691 2.44378,-0.77692 0.34843,1e-5 0.64037,0.0659 0.87581,0.19776 0.23542,0.12244 0.42377,0.28253 0.56504,0.48028 0.15066,0.19778 0.25425,0.40967 0.31077,0.63567 0.0659,0.22603 0.0989,0.43791 0.0989,0.63566 m -16.18833,1.00292 c 0.009,-0.0471 -0.0283,-0.15538 -0.11301,-0.3249 -0.0754,-0.1695 -0.16952,-0.34372 -0.28252,-0.52266 -0.11301,-0.18833 -0.23544,-0.35314 -0.36727,-0.49441 -0.12244,-0.14124 -0.22603,-0.21187 -0.31077,-0.21189 -0.73456,2e-5 -1.39377,0.12244 -1.97763,0.36728 -0.57446,0.23544 -1.07829,0.56034 -1.51148,0.97469 -0.4332,0.40495 -0.80518,0.87581 -1.11594,1.41259 -0.30136,0.53679 -0.54621,1.09712 -0.73455,1.68098 -0.18835,0.58388 -0.3249,1.17246 -0.40965,1.76575 -0.0848,0.59329 -0.12714,1.15833 -0.12714,1.69511 0,0.40494 0.033,0.80989 0.0989,1.21483 0.0659,0.40494 0.17893,0.77222 0.33903,1.10182 0.1695,0.32961 0.39552,0.598 0.67804,0.80518 0.29193,0.20718 0.66391,0.31077 1.11595,0.31077 0.33902,0 0.67804,-0.0753 1.01707,-0.22602 0.33901,-0.15067 0.65449,-0.32489 0.94643,-0.52266 0.29193,-0.19776 0.5462,-0.39552 0.7628,-0.59329 0.21659,-0.19776 0.37669,-0.34843 0.48028,-0.45203 l 1.51148,-7.98114 m 4.2519,10.56619 c -0.11302,0.0471 -0.3202,0.13655 -0.62154,0.26839 -0.30137,0.12243 -0.64039,0.24956 -1.01706,0.3814 -0.36729,0.12243 -0.74398,0.23072 -1.13008,0.3249 -0.3767,0.10359 -0.70631,0.15538 -0.98881,0.15538 -0.34845,0 -0.6451,-0.0424 -0.88994,-0.12713 -0.23544,-0.0848 -0.4332,-0.21189 -0.59329,-0.3814 -0.15068,-0.16951 -0.2684,-0.37669 -0.35314,-0.62154 -0.0848,-0.24485 -0.14127,-0.52737 -0.16952,-0.84756 -0.2166,0.20718 -0.47087,0.42849 -0.7628,0.66392 -0.29194,0.22602 -0.61684,0.43791 -0.97468,0.63567 -0.34845,0.19776 -0.72514,0.35786 -1.13008,0.48028 -0.39553,0.13184 -0.80989,0.19776 -1.24308,0.19776 -0.56504,0 -1.06416,-0.08 -1.49735,-0.24014 -0.42378,-0.16009 -0.79105,-0.37198 -1.10182,-0.63566 -0.31077,-0.27311 -0.56975,-0.58388 -0.77693,-0.93232 -0.19776,-0.35785 -0.35785,-0.72512 -0.48028,-1.10182 -0.12242,-0.3861 -0.20718,-0.77221 -0.25426,-1.15832 -0.0471,-0.39553 -0.0706,-0.76751 -0.0706,-1.11595 0,-0.74396 0.08,-1.49264 0.24014,-2.24602 0.16009,-0.7628 0.39552,-1.49264 0.70629,-2.18952 0.32019,-0.70629 0.71571,-1.3655 1.18658,-1.97763 0.47086,-0.61211 1.01235,-1.14419 1.62448,-1.59623 0.62154,-0.45202 1.309,-0.80517 2.06239,-1.05945 0.76279,-0.26367 1.59622,-0.39551 2.50029,-0.39552 0.26367,1e-5 0.52265,0.033 0.77692,0.0989 0.26368,0.0565 0.50853,0.13656 0.73455,0.24014 0.226,0.0942 0.43318,0.20248 0.62154,0.3249 0.18834,0.12243 0.34843,0.24957 0.48028,0.3814 l 0.42378,-0.69217 1.97763,0 c -0.0471,0.11302 -0.0989,0.24957 -0.15538,0.40965 -0.0565,0.15069 -0.11303,0.30607 -0.16952,0.46615 -0.0565,0.16011 -0.10831,0.31079 -0.15538,0.45203 -0.0377,0.14127 -0.0612,0.24957 -0.0706,0.3249 -0.0659,0.25428 -0.16011,0.64039 -0.28252,1.15832 -0.12244,0.50855 -0.25428,1.083 -0.39552,1.72337 -0.13186,0.64038 -0.27312,1.31372 -0.42378,2.02001 -0.14127,0.69688 -0.26841,1.3608 -0.3814,1.99175 -0.11302,0.62155 -0.2072,1.17717 -0.28252,1.66686 -0.0754,0.48028 -0.11302,0.82872 -0.11301,1.04532 -1e-5,0.50853 0.10829,0.85697 0.3249,1.04532 0.21658,0.18834 0.52264,0.28252 0.91818,0.28252 0.0942,0 0.23071,-0.0188 0.40965,-0.0565 0.18834,-0.0471 0.38139,-0.0989 0.57917,-0.15538 0.19775,-0.0565 0.38138,-0.1083 0.55091,-0.15539 0.1695,-0.0471 0.29192,-0.08 0.36727,-0.0989 l 0,1.04532 m -15.05832,0.0282 c -0.11301,0.0471 -0.3249,0.13184 -0.63567,0.25427 -0.31077,0.113 -0.65921,0.23543 -1.04532,0.36727 -0.38611,0.12243 -0.79105,0.23072 -1.21482,0.3249 -0.41437,0.10359 -0.79106,0.15538 -1.13008,0.15538 -0.44261,0 -0.81931,-0.0518 -1.13007,-0.15538 -0.31078,-0.10359 -0.56504,-0.24956 -0.7628,-0.43791 -0.19777,-0.18834 -0.34374,-0.40965 -0.43791,-0.66391 -0.0847,-0.26369 -0.12713,-0.55091 -0.12713,-0.86169 0,-0.29193 0.0283,-0.63095 0.0848,-1.01706 l 3.17833,-16.54146 -2.57092,-0.25427 0,-0.87581 4.5203,-0.86168 1.11594,0 -3.51735,18.44846 c -0.0377,0.19777 -0.0283,0.39553 0.0283,0.59329 0.0565,0.18835 0.14596,0.35786 0.26839,0.50853 0.12242,0.14126 0.2731,0.25898 0.45203,0.35315 0.17893,0.0942 0.37198,0.14126 0.57917,0.14126 0.14125,0 0.32489,-0.0235 0.55091,-0.0706 0.23542,-0.0565 0.47086,-0.11771 0.70629,-0.18364 0.23543,-0.0659 0.45203,-0.13184 0.6498,-0.19776 0.20717,-0.0659 0.35314,-0.1083 0.4379,-0.12713 l 0,1.10182 m -11.47035,-8.10831 c -10e-6,-0.64978 -0.0753,-1.19599 -0.22601,-1.63861 -0.15069,-0.45202 -0.33432,-0.81929 -0.55091,-1.10182 -0.21661,-0.28251 -0.44733,-0.48498 -0.69217,-0.60742 -0.23544,-0.12241 -0.43791,-0.18362 -0.60742,-0.18363 -0.23544,10e-6 -0.49441,0.0377 -0.77692,0.113 -0.28253,0.0754 -0.57446,0.18365 -0.87581,0.3249 -0.29194,0.13185 -0.58388,0.28724 -0.87581,0.46616 -0.29194,0.17894 -0.56033,0.37199 -0.80518,0.57916 l -1.61035,8.75807 c 0.0942,0.14127 0.2213,0.27782 0.3814,0.40966 0.16009,0.13184 0.34373,0.25426 0.55091,0.36727 0.20718,0.10359 0.43319,0.18835 0.67804,0.25427 0.24485,0.0659 0.49912,0.0989 0.7628,0.0989 0.44261,0 0.86168,-0.11301 1.25721,-0.33902 0.40494,-0.22602 0.77692,-0.53208 1.11595,-0.91819 0.34843,-0.38611 0.66391,-0.83813 0.94644,-1.35609 0.28251,-0.51795 0.51794,-1.06415 0.70629,-1.63861 0.19776,-0.58386 0.34843,-1.18186 0.45203,-1.79399 0.113,-0.62153 0.1695,-1.21953 0.16951,-1.79399 m 2.86757,-0.11301 c -2e-5,0.60272 -0.0659,1.25251 -0.19777,1.94938 -0.13185,0.68747 -0.33903,1.37493 -0.62154,2.06238 -0.27311,0.68747 -0.62626,1.35139 -1.05944,1.99176 -0.43321,0.64038 -0.95116,1.20541 -1.55385,1.69511 -0.60272,0.4897 -1.29489,0.88523 -2.07651,1.18658 -0.78165,0.29193 -1.66216,0.4379 -2.64155,0.4379 -0.81931,0 -1.6292,-0.113 -2.42966,-0.33902 -0.79106,-0.22601 -1.5256,-0.56033 -2.20365,-1.00294 l 3.41848,-18.33545 -2.58505,-0.25427 0,-0.87581 4.5203,-0.86168 1.13007,0 -1.65273,8.75808 c 0.26368,-0.23542 0.55091,-0.45673 0.86168,-0.66392 0.32018,-0.21659 0.64979,-0.40022 0.98882,-0.55091 0.33901,-0.16008 0.68745,-0.28722 1.04532,-0.3814 0.35784,-0.0942 0.71099,-0.14125 1.05944,-0.14126 0.74396,1e-5 1.3702,0.16481 1.87875,0.4944 0.50852,0.32962 0.91817,0.7534 1.22895,1.27134 0.32018,0.51796 0.54619,1.09241 0.67805,1.72336 0.14124,0.62155 0.21187,1.23367 0.21189,1.83637 m -17.65741,-2.37317 c 0.009,-0.0471 -0.0283,-0.15538 -0.11301,-0.3249 -0.0753,-0.1695 -0.16952,-0.34372 -0.28251,-0.52266 -0.11302,-0.18833 -0.23545,-0.35314 -0.36728,-0.49441 -0.12243,-0.14124 -0.22602,-0.21187 -0.31077,-0.21189 -0.73456,2e-5 -1.39376,0.12244 -1.97763,0.36728 -0.57446,0.23544 -1.07828,0.56034 -1.51147,0.97469 -0.4332,0.40495 -0.80519,0.87581 -1.11595,1.41259 -0.30136,0.53679 -0.54621,1.09712 -0.73455,1.68098 -0.18835,0.58388 -0.3249,1.17246 -0.40965,1.76575 -0.0848,0.59329 -0.12714,1.15833 -0.12713,1.69511 -1e-5,0.40494 0.0329,0.80989 0.0989,1.21483 0.0659,0.40494 0.17892,0.77222 0.33902,1.10182 0.16951,0.32961 0.39552,0.598 0.67804,0.80518 0.29194,0.20718 0.66392,0.31077 1.11595,0.31077 0.33902,0 0.67804,-0.0753 1.01707,-0.22602 0.33901,-0.15067 0.65449,-0.32489 0.94644,-0.52266 0.29192,-0.19776 0.54619,-0.39552 0.7628,-0.59329 0.21659,-0.19776 0.37668,-0.34843 0.48028,-0.45203 l 1.51147,-7.98114 m 4.25191,10.56619 c -0.11303,0.0471 -0.32021,0.13655 -0.62154,0.26839 -0.30137,0.12243 -0.64039,0.24956 -1.01707,0.3814 -0.36729,0.12243 -0.74398,0.23072 -1.13008,0.3249 -0.3767,0.10359 -0.7063,0.15538 -0.98881,0.15538 -0.34845,0 -0.64509,-0.0424 -0.88993,-0.12713 -0.23545,-0.0848 -0.43321,-0.21189 -0.59329,-0.3814 -0.15069,-0.16951 -0.2684,-0.37669 -0.35315,-0.62154 -0.0848,-0.24485 -0.14127,-0.52737 -0.16951,-0.84756 -0.21661,0.20718 -0.47087,0.42849 -0.7628,0.66392 -0.29195,0.22602 -0.61684,0.43791 -0.97469,0.63567 -0.34845,0.19776 -0.72514,0.35786 -1.13007,0.48028 -0.39554,0.13184 -0.8099,0.19776 -1.24309,0.19776 -0.56504,0 -1.06415,-0.08 -1.49734,-0.24014 -0.42379,-0.16009 -0.79106,-0.37198 -1.10183,-0.63566 -0.31077,-0.27311 -0.56974,-0.58388 -0.77692,-0.93232 -0.19777,-0.35785 -0.35786,-0.72512 -0.48028,-1.10182 -0.12243,-0.3861 -0.20719,-0.77221 -0.25427,-1.15832 -0.0471,-0.39553 -0.0706,-0.76751 -0.0706,-1.11595 0,-0.74396 0.0801,-1.49264 0.24014,-2.24602 0.16009,-0.7628 0.39552,-1.49264 0.7063,-2.18952 0.32018,-0.70629 0.71571,-1.3655 1.18657,-1.97763 0.47086,-0.61211 1.01236,-1.14419 1.62449,-1.59623 0.62153,-0.45202 1.30899,-0.80517 2.06238,-1.05945 0.76279,-0.26367 1.59622,-0.39551 2.50029,-0.39552 0.26367,1e-5 0.52265,0.033 0.77693,0.0989 0.26367,0.0565 0.50852,0.13656 0.73454,0.24014 0.22601,0.0942 0.43319,0.20248 0.62154,0.3249 0.18834,0.12243 0.34843,0.24957 0.48029,0.3814 l 0.42377,-0.69217 1.97763,0 c -0.0471,0.11302 -0.0989,0.24957 -0.15538,0.40965 -0.0565,0.15069 -0.11302,0.30607 -0.16951,0.46615 -0.0565,0.16011 -0.10832,0.31079 -0.15539,0.45203 -0.0377,0.14127 -0.0612,0.24957 -0.0706,0.3249 -0.0659,0.25428 -0.1601,0.64039 -0.28252,1.15832 -0.12243,0.50855 -0.25428,1.083 -0.39552,1.72337 -0.13186,0.64038 -0.27312,1.31372 -0.42378,2.02001 -0.14127,0.69688 -0.2684,1.3608 -0.3814,1.99175 -0.11302,0.62155 -0.20719,1.17717 -0.28252,1.66686 -0.0754,0.48028 -0.11302,0.82872 -0.11301,1.04532 -1e-5,0.50853 0.10829,0.85697 0.3249,1.04532 0.21659,0.18834 0.52265,0.28252 0.91819,0.28252 0.0942,0 0.23071,-0.0188 0.40965,-0.0565 0.18833,-0.0471 0.38138,-0.0989 0.57916,-0.15538 0.19775,-0.0565 0.38139,-0.1083 0.55091,-0.15539 0.1695,-0.0471 0.29192,-0.08 0.36728,-0.0989 l 0,1.04532 m -17.84113,-11.34313 -1.82224,9.08297 c -0.0565,0.25427 -0.0471,0.48499 0.0283,0.69217 0.0753,0.19777 0.19305,0.36728 0.35315,0.50853 0.16951,0.13185 0.36256,0.23544 0.57916,0.31077 0.22601,0.0753 0.46144,0.11301 0.7063,0.11301 0.27309,0 0.55561,-0.0235 0.84755,-0.0706 0.29193,-0.0565 0.56974,-0.12242 0.83343,-0.19776 0.2731,-0.0753 0.52265,-0.15068 0.74868,-0.22602 0.23542,-0.0848 0.42848,-0.15538 0.57916,-0.21188 l 0,1.15832 c -0.12243,0.0565 -0.35786,0.15539 -0.7063,0.29665 -0.34844,0.14126 -0.74868,0.28722 -1.2007,0.4379 -0.45204,0.15068 -0.92761,0.28252 -1.42672,0.39553 -0.49912,0.12242 -0.95586,0.18363 -1.37021,0.18363 -0.52737,0 -0.96528,-0.0659 -1.31371,-0.19776 -0.34845,-0.12242 -0.62626,-0.29194 -0.83343,-0.50853 -0.20719,-0.22602 -0.35786,-0.4897 -0.45203,-0.79106 -0.0848,-0.31076 -0.12714,-0.64508 -0.12714,-1.00294 0,-0.18834 0.005,-0.38139 0.0141,-0.57916 0.0188,-0.19776 0.0518,-0.40023 0.0989,-0.60741 l 1.76574,-8.78633 -1.82224,0.16951 0,-0.94644 2.17539,-0.96056 1.41259,-2.89581 1.76574,0 -0.57916,3.30546 3.99764,0 0,1.32784 -4.25191,0 m -5.91881,11.28658 c -0.11301,0.0471 -0.32019,0.13656 -0.62154,0.2684 -0.30136,0.13184 -0.6545,0.26839 -1.05944,0.40965 -0.40495,0.13184 -0.83344,0.24956 -1.28546,0.35315 -0.44262,0.10359 -0.86169,0.15538 -1.25721,0.15538 -0.49912,0 -0.89464,-0.0847 -1.18658,-0.25426 -0.29193,-0.16952 -0.50853,-0.39082 -0.64979,-0.66392 -0.14126,-0.2731 -0.22131,-0.57916 -0.24014,-0.91819 -0.0188,-0.33902 0.005,-0.67333 0.0706,-1.00294 l 1.8505,-9.80339 -2.48617,-0.26839 0,-0.83343 4.36492,-0.90406 1.18657,0 -2.18952,11.56913 c -0.0377,0.19777 -0.0377,0.38611 0,0.56504 0.0471,0.17893 0.11772,0.33902 0.21189,0.48028 0.10359,0.13184 0.23072,0.24014 0.3814,0.3249 0.16009,0.0753 0.33902,0.113 0.53679,0.113 0.1695,0 0.36727,-0.0282 0.59329,-0.0847 0.23542,-0.0659 0.46615,-0.13655 0.69217,-0.21189 0.23542,-0.0848 0.45202,-0.1648 0.64979,-0.24014 0.19776,-0.0753 0.34372,-0.12713 0.4379,-0.15539 l 0,1.10182 m -0.12713,-17.71391 c -10e-6,0.21662 -0.0424,0.4238 -0.12713,0.62154 -0.0754,0.18837 -0.18835,0.35788 -0.33902,0.50854 -0.14127,0.15069 -0.3202,0.27312 -0.53679,0.36727 -0.2166,0.0848 -0.46616,0.12715 -0.74867,0.12713 -0.5933,2e-5 -1.04062,-0.15536 -1.34197,-0.46615 -0.30135,-0.32017 -0.45203,-0.70628 -0.45203,-1.15833 0,-0.18832 0.0377,-0.37667 0.11301,-0.56503 0.0848,-0.18833 0.20247,-0.35784 0.35315,-0.50854 0.16009,-0.16007 0.35314,-0.2872 0.57916,-0.3814 0.22601,-0.10357 0.48499,-0.15536 0.77693,-0.15538 0.27309,2e-5 0.51323,0.0471 0.72042,0.14126 0.21659,0.0942 0.40023,0.21661 0.55091,0.36727 0.15067,0.1507 0.26368,0.32492 0.33902,0.52266 0.0753,0.18836 0.113,0.38142 0.11301,0.57916 m -7.85398,17.88338 c -0.24487,0.12242 -0.52739,0.24485 -0.84756,0.36727 -0.31078,0.12242 -0.63097,0.23072 -0.96056,0.3249 -0.32962,0.0942 -0.65452,0.16951 -0.97469,0.22601 -0.31078,0.0659 -0.57918,0.0989 -0.80518,0.0989 -0.23544,0 -0.46616,-0.0424 -0.69217,-0.12713 -0.22602,-0.0753 -0.44262,-0.17422 -0.64979,-0.29665 -0.19777,-0.13184 -0.38141,-0.2778 -0.55091,-0.4379 -0.16952,-0.16951 -0.31078,-0.33902 -0.42378,-0.50853 -0.13185,-0.19776 -0.28253,-0.45203 -0.45203,-0.7628 -0.1601,-0.32019 -0.33432,-0.66863 -0.52266,-1.04532 -0.17894,-0.37669 -0.36257,-0.76751 -0.55091,-1.17245 -0.18835,-0.41436 -0.37199,-0.80988 -0.55091,-1.18658 -0.16952,-0.3861 -0.32961,-0.74396 -0.48028,-1.07357 -0.14127,-0.3296 -0.26369,-0.59799 -0.36728,-0.80518 l -1.32783,1.18658 -1.18658,5.87638 -2.65568,0 3.84226,-19.32426 -2.54267,-0.25427 0,-0.87581 4.47792,-0.86168 1.15832,0 -2.68392,13.44788 4.67568,-4.83106 c 0.27309,-0.28251 0.52265,-0.52265 0.74867,-0.72043 0.22601,-0.20716 0.4426,-0.37196 0.6498,-0.4944 0.21658,-0.13183 0.43318,-0.226 0.64979,-0.28252 0.21658,-0.0659 0.45202,-0.0989 0.70629,-0.0989 0.32018,1e-5 0.59799,0.0471 0.83343,0.14126 0.24484,0.0942 0.4426,0.21661 0.59329,0.36727 0.16008,0.15069 0.2778,0.3202 0.35315,0.50853 0.0753,0.18836 0.10829,0.372 0.0989,0.55091 -1e-5,0.32962 -0.1554,0.67335 -0.46615,1.0312 -0.30137,0.34845 -0.79107,0.64038 -1.4691,0.8758 l -0.98881,-1.04531 c -0.2637,0.20719 -0.55093,0.43791 -0.86169,0.69217 -0.30136,0.25427 -0.60742,0.51325 -0.91818,0.77692 -0.31078,0.2637 -0.60742,0.52267 -0.88993,0.77693 -0.28253,0.25427 -0.5368,0.48029 -0.7628,0.67804 0.12241,0.24486 0.25425,0.55092 0.39552,0.91819 0.15067,0.36728 0.30606,0.76281 0.46616,1.18658 0.1695,0.41436 0.34843,0.84285 0.53678,1.28546 0.19776,0.4332 0.40494,0.84756 0.62154,1.24308 0.21659,0.40494 0.44261,0.79576 0.67805,1.17245 0.24484,0.36728 0.49439,0.69688 0.74867,0.98881 0.25426,0.28252 0.51323,0.50854 0.77693,0.67805 0.26367,0.16951 0.52264,0.25427 0.77692,0.25426 0.10358,1e-5 0.23071,-0.009 0.3814,-0.0283 0.15067,-0.0282 0.31076,-0.0612 0.48029,-0.0989 0.16949,-0.0377 0.3343,-0.0847 0.4944,-0.14126 0.1695,-0.0565 0.31547,-0.113 0.43791,-0.16951 l 0,0.98882 m -27.03704,-10.56613 c 0.0188,-0.10358 -0.0283,-0.24954 -0.14126,-0.4379 -0.1036,-0.19775 -0.24015,-0.39081 -0.40965,-0.57916 -0.16011,-0.19775 -0.32962,-0.36727 -0.50854,-0.50854 -0.16952,-0.14124 -0.30607,-0.21187 -0.40965,-0.21189 -0.79106,2e-5 -1.53503,0.20249 -2.2319,0.60742 -0.68746,0.40495 -1.29017,0.96528 -1.80812,1.68098 -0.51795,0.71573 -0.9276,1.55857 -1.22895,2.52855 -0.29194,0.96998 -0.43791,2.02001 -0.4379,3.15008 -1e-5,0.5462 0.0518,1.04061 0.15538,1.48322 0.113,0.44261 0.26839,0.81931 0.46616,1.13007 0.20717,0.31078 0.45673,0.55092 0.74867,0.72043 0.29193,0.16951 0.61683,0.25426 0.97469,0.25426 0.29193,0 0.57916,-0.0518 0.86168,-0.15538 0.29193,-0.11301 0.56974,-0.25898 0.83343,-0.43791 0.27309,-0.17892 0.54149,-0.37669 0.80518,-0.59329 0.26367,-0.21659 0.52265,-0.4379 0.77692,-0.66391 l 1.55386,-7.96703 m -0.40966,15.70803 c -0.0283,0.16009 -0.005,0.28723 0.0706,0.3814 0.0848,0.10359 0.25426,0.16951 0.50854,0.19777 l 1.79399,0.15538 0,1.0877 -7.28898,0 0,-1.0877 1.53973,-0.15538 c 0.18834,-0.0188 0.34372,-0.0754 0.46615,-0.16951 0.12242,-0.0848 0.20718,-0.22132 0.25427,-0.40966 l 1.18658,-6.01764 c -0.66864,0.55562 -1.35139,1.01236 -2.04826,1.37021 -0.69689,0.34844 -1.38435,0.52266 -2.06239,0.52266 -0.58387,0 -1.12066,-0.113 -1.61035,-0.33902 -0.48029,-0.2166 -0.89936,-0.5462 -1.25721,-0.98881 -0.34844,-0.44262 -0.62154,-0.98882 -0.8193,-1.63861 -0.19777,-0.64979 -0.29665,-1.40788 -0.29665,-2.27428 0,-0.74396 0.0895,-1.49263 0.26839,-2.24602 0.17893,-0.75337 0.4332,-1.4785 0.7628,-2.17539 0.32961,-0.69687 0.73455,-1.34666 1.21483,-1.94938 0.48028,-0.61211 1.02178,-1.13948 1.62449,-1.5821 0.6027,-0.45202 1.26191,-0.80517 1.97763,-1.05945 0.7157,-0.26367 1.47379,-0.39551 2.27427,-0.39552 0.61211,1e-5 1.15361,0.0895 1.62448,0.26839 0.47085,0.17894 0.83813,0.372 1.10182,0.57916 l 0.69217,-0.84755 1.73749,0 -3.71512,18.77335 m -10.56616,-5.31135 c -0.11302,0.0471 -0.3202,0.13656 -0.62154,0.2684 -0.30136,0.13184 -0.65451,0.26839 -1.05945,0.40965 -0.40495,0.13184 -0.83343,0.24956 -1.28546,0.35315 -0.44262,0.10359 -0.86168,0.15538 -1.25721,0.15538 -0.49911,0 -0.89464,-0.0847 -1.18657,-0.25426 -0.29194,-0.16952 -0.50854,-0.39082 -0.6498,-0.66392 -0.14126,-0.2731 -0.2213,-0.57916 -0.24014,-0.91819 -0.0188,-0.33902 0.005,-0.67333 0.0706,-1.00294 l 1.8505,-9.80339 -2.48616,-0.26839 0,-0.83343 4.36491,-0.90406 1.18657,0 -2.18951,11.56913 c -0.0377,0.19777 -0.0377,0.38611 0,0.56504 0.0471,0.17893 0.11771,0.33902 0.21189,0.48028 0.10358,0.13184 0.23071,0.24014 0.3814,0.3249 0.16008,0.0753 0.33901,0.113 0.53678,0.113 0.16951,0 0.36727,-0.0282 0.59329,-0.0847 0.23543,-0.0659 0.46615,-0.13655 0.69217,-0.21189 0.23543,-0.0848 0.45202,-0.1648 0.64979,-0.24014 0.19776,-0.0753 0.34373,-0.12713 0.43791,-0.15539 l 0,1.10182 m -11.62561,4.06822 c -1e-5,0.49911 -0.10831,0.94643 -0.3249,1.34196 -0.2166,0.40494 -0.51325,0.74396 -0.88993,1.01707 -0.3767,0.28251 -0.8146,0.4944 -1.31371,0.63567 -0.48971,0.15067 -1.00766,0.22601 -1.55385,0.22601 -0.21661,0 -0.44262,-0.0141 -0.67805,-0.0424 -0.22602,-0.0283 -0.44261,-0.0612 -0.64979,-0.0989 -0.20718,-0.0282 -0.40024,-0.0659 -0.57916,-0.113 -0.16952,-0.0377 -0.30607,-0.0706 -0.40966,-0.0989 l 0.2684,-1.15832 c 0.21659,0.0565 0.50382,0.12242 0.86168,0.19776 0.35785,0.0847 0.69687,0.12713 1.01706,0.12714 0.13184,-1e-5 0.30606,-0.0188 0.52266,-0.0565 0.2166,-0.0377 0.42378,-0.1083 0.62154,-0.21189 0.20718,-0.0942 0.38611,-0.23073 0.53679,-0.40965 0.15067,-0.17893 0.22601,-0.40966 0.22601,-0.69217 0,-0.14126 -0.033,-0.26369 -0.0989,-0.36727 -0.0565,-0.0942 -0.13184,-0.17423 -0.22601,-0.24014 -0.0848,-0.0565 -0.18364,-0.0989 -0.29665,-0.12714 -0.11301,-0.0282 -0.22602,-0.0424 -0.33902,-0.0424 -0.0848,0 -0.18364,0.0235 -0.29664,0.0706 -0.11302,0.0565 -0.3202,0.16009 -0.62154,0.31077 l 0.59329,-3.1642 c -0.51796,-0.0471 -0.99824,-0.1601 -1.44085,-0.33903 -0.5462,-0.24484 -1.01236,-0.59328 -1.39847,-1.04531 -0.37669,-0.46145 -0.66862,-1.02649 -0.8758,-1.69512 -0.20718,-0.66862 -0.31077,-1.43142 -0.31077,-2.2884 0,-0.86638 0.0989,-1.6951 0.29664,-2.48616 0.20718,-0.79104 0.4897,-1.5303 0.84756,-2.21777 0.35785,-0.68745 0.78163,-1.30899 1.27133,-1.86462 0.48969,-0.56503 1.02177,-1.04531 1.59623,-1.44085 0.57445,-0.40493 1.18186,-0.7157 1.82224,-0.93231 0.64037,-0.21658 1.28546,-0.32488 1.93526,-0.32489 0.51794,1e-5 0.96526,0.0659 1.34196,0.19776 0.37668,0.13186 0.68274,0.29666 0.91818,0.49441 0.23543,0.19777 0.40964,0.41908 0.52266,0.66392 0.113,0.23544 0.1695,0.46146 0.16951,0.67804 -1e-5,0.18836 -0.0283,0.38141 -0.0847,0.57916 -0.0565,0.19778 -0.16952,0.38141 -0.33902,0.55091 -0.16011,0.16953 -0.38612,0.32491 -0.67805,0.46616 -0.28253,0.13185 -0.65451,0.22603 -1.11595,0.28252 l -1.65273,-2.2319 c -0.51796,0.0283 -0.9794,0.17423 -1.38434,0.43791 -0.40495,0.25427 -0.76281,0.58388 -1.07357,0.98881 -0.30136,0.40495 -0.56033,0.8664 -0.77693,1.38434 -0.20718,0.50854 -0.37669,1.02649 -0.50853,1.55385 -0.13185,0.52738 -0.22602,1.04062 -0.28252,1.53973 -0.0565,0.49912 -0.0848,0.94173 -0.0847,1.32784 -1e-5,0.47087 0.0424,0.93702 0.12713,1.39846 0.0942,0.45204 0.24014,0.86169 0.4379,1.22896 0.20718,0.35786 0.47086,0.64979 0.79106,0.87581 0.32959,0.22601 0.73454,0.33902 1.21482,0.33902 0.38611,0 0.77692,-0.0659 1.17246,-0.19776 0.39551,-0.14126 0.79104,-0.33432 1.18657,-0.57917 0.40494,-0.24484 0.80988,-0.53678 1.21483,-0.8758 0.40494,-0.33902 0.81459,-0.71101 1.22896,-1.11595 l 0,1.82224 c -0.30136,0.29194 -0.64509,0.60271 -1.03119,0.93231 -0.38612,0.32961 -0.81461,0.63567 -1.28546,0.91819 -0.47087,0.28252 -0.98882,0.51795 -1.55385,0.70629 -0.22603,0.0753 -0.45675,0.13185 -0.69217,0.16952 l -0.2684,1.5256 c 0.0753,-0.0188 0.14596,-0.033 0.21189,-0.0424 0.0753,-0.009 0.15067,-0.0141 0.22602,-0.0141 1.29016,0 1.93524,0.50853 1.93525,1.5256 m -12.93943,-14.57787 c 0.009,-0.0471 -0.0283,-0.15538 -0.113,-0.3249 -0.0753,-0.1695 -0.16953,-0.34372 -0.28252,-0.52266 -0.11302,-0.18833 -0.23545,-0.35314 -0.36728,-0.49441 -0.12243,-0.14124 -0.22602,-0.21187 -0.31077,-0.21189 -0.73456,2e-5 -1.39376,0.12244 -1.97763,0.36728 -0.57446,0.23544 -1.07828,0.56034 -1.51147,0.97469 -0.4332,0.40495 -0.80518,0.87581 -1.11595,1.41259 -0.30136,0.53679 -0.54621,1.09712 -0.73455,1.68098 -0.18835,0.58388 -0.3249,1.17246 -0.40965,1.76575 -0.0848,0.59329 -0.12714,1.15833 -0.12713,1.69511 -1e-5,0.40494 0.0329,0.80989 0.0989,1.21483 0.0659,0.40494 0.17892,0.77222 0.33902,1.10182 0.16951,0.32961 0.39552,0.598 0.67804,0.80518 0.29194,0.20718 0.66392,0.31077 1.11595,0.31077 0.33902,0 0.67804,-0.0753 1.01707,-0.22602 0.33901,-0.15067 0.65449,-0.32489 0.94644,-0.52266 0.29192,-0.19776 0.54619,-0.39552 0.7628,-0.59329 0.21659,-0.19776 0.37668,-0.34843 0.48028,-0.45203 l 1.51147,-7.98114 m 4.25191,10.56619 c -0.11303,0.0471 -0.32021,0.13655 -0.62154,0.26839 -0.30137,0.12243 -0.64039,0.24956 -1.01707,0.3814 -0.36729,0.12243 -0.74398,0.23072 -1.13008,0.3249 -0.3767,0.10359 -0.7063,0.15538 -0.98881,0.15538 -0.34845,0 -0.64509,-0.0424 -0.88993,-0.12713 -0.23545,-0.0848 -0.43321,-0.21189 -0.59329,-0.3814 -0.15069,-0.16951 -0.2684,-0.37669 -0.35315,-0.62154 -0.0848,-0.24485 -0.14127,-0.52737 -0.16951,-0.84756 -0.21661,0.20718 -0.47087,0.42849 -0.7628,0.66392 -0.29195,0.22602 -0.61684,0.43791 -0.97469,0.63567 -0.34845,0.19776 -0.72514,0.35786 -1.13007,0.48028 -0.39554,0.13184 -0.8099,0.19776 -1.24309,0.19776 -0.56504,0 -1.06415,-0.08 -1.49734,-0.24014 -0.42379,-0.16009 -0.79106,-0.37198 -1.10183,-0.63566 -0.31077,-0.27311 -0.56974,-0.58388 -0.77692,-0.93232 -0.19777,-0.35785 -0.35786,-0.72512 -0.48028,-1.10182 -0.12243,-0.3861 -0.20719,-0.77221 -0.25427,-1.15832 -0.0471,-0.39553 -0.0706,-0.76751 -0.0706,-1.11595 0,-0.74396 0.08,-1.49264 0.24014,-2.24602 0.16009,-0.7628 0.39552,-1.49264 0.7063,-2.18952 0.32018,-0.70629 0.71571,-1.3655 1.18657,-1.97763 0.47087,-0.61211 1.01236,-1.14419 1.62449,-1.59623 0.62153,-0.45202 1.30899,-0.80517 2.06238,-1.05945 0.76279,-0.26367 1.59622,-0.39551 2.50029,-0.39552 0.26367,1e-5 0.52265,0.033 0.77693,0.0989 0.26367,0.0565 0.50852,0.13656 0.73454,0.24014 0.22601,0.0942 0.43319,0.20248 0.62155,0.3249 0.18833,0.12243 0.34842,0.24957 0.48028,0.3814 l 0.42377,-0.69217 1.97763,0 c -0.0471,0.11302 -0.0989,0.24957 -0.15538,0.40965 -0.0565,0.15069 -0.11302,0.30607 -0.16951,0.46615 -0.0565,0.16011 -0.10831,0.31079 -0.15539,0.45203 -0.0377,0.14127 -0.0612,0.24957 -0.0706,0.3249 -0.0659,0.25428 -0.1601,0.64039 -0.28252,1.15832 -0.12243,0.50855 -0.25428,1.083 -0.39552,1.72337 -0.13186,0.64038 -0.27312,1.31372 -0.42378,2.02001 -0.14127,0.69688 -0.2684,1.3608 -0.3814,1.99175 -0.11302,0.62155 -0.20719,1.17717 -0.28252,1.66686 -0.0753,0.48028 -0.11302,0.82872 -0.11301,1.04532 -10e-6,0.50853 0.10829,0.85697 0.3249,1.04532 0.21659,0.18834 0.52265,0.28252 0.91819,0.28252 0.0942,0 0.23071,-0.0188 0.40965,-0.0565 0.18833,-0.0471 0.38138,-0.0989 0.57916,-0.15538 0.19775,-0.0565 0.38139,-0.1083 0.55091,-0.15539 0.1695,-0.0471 0.29192,-0.08 0.36728,-0.0989 l 0,1.04532 m -23.53389,0.19775 c -0.12244,0.0471 -0.33903,0.12243 -0.64979,0.22602 -0.30137,0.0942 -0.64039,0.19776 -1.01707,0.31077 -0.3767,0.10359 -0.76281,0.19305 -1.15832,0.26839 -0.39554,0.0847 -0.74398,0.12713 -1.04532,0.12713 -0.16952,0 -0.40496,-0.0188 -0.7063,-0.0565 -0.29194,-0.0283 -0.57446,-0.10359 -0.84755,-0.22602 -0.27311,-0.113 -0.49442,-0.28251 -0.66392,-0.50853 -0.16952,-0.22601 -0.2119,-0.53207 -0.12714,-0.91818 l 1.76575,-8.88521 c 0.0659,-0.3861 0.0659,-0.70629 0,-0.96057 -0.0565,-0.25425 -0.1554,-0.45672 -0.29665,-0.60741 -0.13185,-0.16008 -0.28724,-0.26838 -0.46615,-0.3249 -0.17894,-0.0659 -0.34845,-0.0989 -0.50854,-0.0989 -0.23544,1e-5 -0.52737,0.0706 -0.87581,0.21189 -0.33903,0.13186 -0.70159,0.31078 -1.08769,0.53679 -0.3767,0.22602 -0.7581,0.49441 -1.1442,0.80517 -0.38612,0.30137 -0.73926,0.62156 -1.05945,0.96057 l -1.99175,9.71863 -2.69805,0 2.51441,-12.28955 -2.42966,-0.26839 0,-0.83343 4.36491,-0.90406 1.15833,0 -0.53679,2.69805 c 0.32019,-0.32018 0.68746,-0.64036 1.10183,-0.96056 0.41435,-0.3296 0.85696,-0.62153 1.32783,-0.87581 0.47086,-0.25425 0.95585,-0.46143 1.45497,-0.62154 0.50853,-0.16008 1.00293,-0.24013 1.48323,-0.24014 1.05472,1e-5 1.80339,0.29195 2.24602,0.8758 0.45201,0.58389 0.56502,1.52562 0.33902,2.82519 l -1.53973,8.16479 c -0.0471,0.2731 -0.0283,0.4897 0.0565,0.64979 0.0942,0.16009 0.21187,0.28252 0.35315,0.36727 0.15066,0.0848 0.30605,0.14126 0.46615,0.16951 0.16008,0.0188 0.28251,0.0283 0.36728,0.0283 0.26367,10e-6 0.55089,-0.0377 0.86168,-0.113 0.31075,-0.0753 0.63094,-0.1648 0.96056,-0.2684 l 0.0283,1.01707 m -15.34079,-0.113 c -0.17894,0.10359 -0.4285,0.2166 -0.74867,0.33903 -0.31079,0.12242 -0.64981,0.23543 -1.01707,0.33902 -0.36729,0.10359 -0.74398,0.18834 -1.13007,0.25427 -0.37671,0.0753 -0.72044,0.113 -1.0312,0.113 -0.54621,0 -0.95115,-0.0942 -1.21483,-0.28252 -0.26369,-0.17892 -0.44733,-0.3861 -0.55091,-0.62154 -0.0942,-0.24485 -0.13656,-0.48969 -0.12713,-0.73454 0.009,-0.24485 0.0141,-0.42378 0.0141,-0.53679 -0.7628,0.72513 -1.56327,1.27133 -2.4014,1.63861 -0.82873,0.35785 -1.72808,0.53678 -2.69806,0.53678 -0.66863,0 -1.21483,-0.11771 -1.6386,-0.35315 -0.42378,-0.23543 -0.74397,-0.53207 -0.96057,-0.88993 -0.21659,-0.35785 -0.34844,-0.74867 -0.39552,-1.17245 -0.0471,-0.42378 -0.033,-0.82401 0.0424,-1.2007 l 1.87874,-9.02647 -2.42965,-0.26839 0,-0.83343 4.36491,-0.90406 1.18657,0 -2.30252,11.03235 c -0.0565,0.24485 -0.0471,0.48028 0.0283,0.70629 0.0847,0.2166 0.20247,0.40966 0.35315,0.57916 0.16009,0.1601 0.33902,0.29194 0.53678,0.39553 0.19776,0.0942 0.39082,0.14126 0.57917,0.14126 0.34843,0 0.69687,-0.0471 1.04531,-0.14126 0.35785,-0.10359 0.711,-0.24014 1.05945,-0.40965 0.34843,-0.16951 0.68274,-0.36256 1.00294,-0.57916 0.32018,-0.22602 0.61682,-0.46616 0.88993,-0.72043 l 2.18952,-10.65094 2.69805,0 -2.31665,11.13123 c -0.0659,0.30135 -0.0659,0.55562 0,0.7628 0.0659,0.19776 0.16479,0.36256 0.29665,0.4944 0.14124,0.13185 0.29663,0.22602 0.46615,0.28252 0.17892,0.0565 0.34843,0.0848 0.50854,0.0848 0.18833,0 0.43789,-0.0283 0.74867,-0.0848 0.31076,-0.0565 0.66861,-0.20247 1.07357,-0.4379 l 0,1.01706 m -6.70981,-17.85517 c -1e-5,0.21662 -0.0424,0.4238 -0.12714,0.62154 -0.0848,0.19778 -0.20248,0.372 -0.35315,0.52266 -0.14126,0.1507 -0.31077,0.26841 -0.50853,0.35315 -0.18835,0.0848 -0.39082,0.12715 -0.60741,0.12713 -0.20719,2e-5 -0.40495,-0.0424 -0.59329,-0.12713 -0.18836,-0.0847 -0.35316,-0.20245 -0.49441,-0.35315 -0.14127,-0.15066 -0.25427,-0.32017 -0.33902,-0.50853 -0.0848,-0.18833 -0.12714,-0.3908 -0.12714,-0.60741 0,-0.20717 0.0424,-0.40493 0.12714,-0.59329 0.0847,-0.19775 0.19775,-0.37197 0.33902,-0.52266 0.14125,-0.15066 0.30605,-0.26838 0.49441,-0.35315 0.18834,-0.0942 0.3861,-0.14124 0.59329,-0.14126 0.21659,2e-5 0.41906,0.0424 0.60741,0.12713 0.19776,0.0848 0.36727,0.19779 0.50853,0.33902 0.15067,0.14128 0.26839,0.31079 0.35315,0.50854 0.0848,0.18836 0.12713,0.39083 0.12714,0.60741 m 5.98939,0 c -2e-5,0.21662 -0.0424,0.4238 -0.12714,0.62154 -0.0754,0.19778 -0.18365,0.372 -0.32489,0.52266 -0.14127,0.1507 -0.31079,0.26841 -0.50854,0.35315 -0.18835,0.0848 -0.39083,0.12715 -0.60741,0.12713 -0.21661,2e-5 -0.42379,-0.0424 -0.62154,-0.12713 -0.18836,-0.0847 -0.35316,-0.20245 -0.49441,-0.35315 -0.14127,-0.15066 -0.25428,-0.32488 -0.33902,-0.52266 -0.0848,-0.19774 -0.12715,-0.40492 -0.12713,-0.62154 -2e-5,-0.19774 0.0424,-0.3908 0.12713,-0.57916 0.0942,-0.19774 0.21188,-0.36725 0.35315,-0.50853 0.15066,-0.15066 0.32017,-0.26838 0.50853,-0.35315 0.19775,-0.0942 0.39551,-0.14124 0.59329,-0.14126 0.21658,2e-5 0.41906,0.0424 0.60741,0.12713 0.19775,0.0848 0.36727,0.19779 0.50854,0.33902 0.14124,0.14128 0.24954,0.31079 0.32489,0.50854 0.0847,0.18836 0.12712,0.39083 0.12714,0.60741 m -18.44851,21.78218 c -1e-5,0.49911 -0.10831,0.94643 -0.3249,1.34196 -0.2166,0.40494 -0.51325,0.74396 -0.88993,1.01707 -0.3767,0.28251 -0.8146,0.4944 -1.31371,0.63567 -0.48971,0.15067 -1.00766,0.22601 -1.55385,0.22601 -0.21661,0 -0.44262,-0.0141 -0.67805,-0.0424 -0.22602,-0.0283 -0.44262,-0.0612 -0.64979,-0.0989 -0.20719,-0.0282 -0.40024,-0.0659 -0.57917,-0.113 -0.16951,-0.0377 -0.30606,-0.0706 -0.40965,-0.0989 l 0.2684,-1.15832 c 0.21659,0.0565 0.50382,0.12242 0.86168,0.19776 0.35785,0.0847 0.69687,0.12713 1.01706,0.12714 0.13184,-1e-5 0.30606,-0.0188 0.52266,-0.0565 0.2166,-0.0377 0.42378,-0.1083 0.62154,-0.21189 0.20718,-0.0942 0.38611,-0.23073 0.53679,-0.40965 0.15067,-0.17893 0.22601,-0.40966 0.22601,-0.69217 0,-0.14126 -0.033,-0.26369 -0.0989,-0.36727 -0.0565,-0.0942 -0.13185,-0.17423 -0.22601,-0.24014 -0.0848,-0.0565 -0.18365,-0.0989 -0.29665,-0.12714 -0.11301,-0.0282 -0.22602,-0.0424 -0.33902,-0.0424 -0.0848,0 -0.18364,0.0235 -0.29664,0.0706 -0.11302,0.0565 -0.3202,0.16009 -0.62154,0.31077 l 0.59328,-3.1642 c -0.51795,-0.0471 -0.99823,-0.1601 -1.44084,-0.33903 -0.54621,-0.24484 -1.01236,-0.59328 -1.39847,-1.04531 -0.37669,-0.46145 -0.66863,-1.02649 -0.8758,-1.69512 -0.20719,-0.66862 -0.31078,-1.43142 -0.31077,-2.2884 -1e-5,-0.86638 0.0989,-1.6951 0.29664,-2.48616 0.20718,-0.79104 0.4897,-1.5303 0.84756,-2.21777 0.35785,-0.68745 0.78163,-1.30899 1.27133,-1.86462 0.48969,-0.56503 1.02177,-1.04531 1.59623,-1.44085 0.57445,-0.40493 1.18186,-0.7157 1.82224,-0.93231 0.64037,-0.21658 1.28545,-0.32488 1.93526,-0.32489 0.51794,1e-5 0.96526,0.0659 1.34196,0.19776 0.37668,0.13186 0.68274,0.29666 0.91818,0.49441 0.23542,0.19777 0.40964,0.41908 0.52266,0.66392 0.113,0.23544 0.1695,0.46146 0.16951,0.67804 -1e-5,0.18836 -0.0283,0.38141 -0.0848,0.57916 -0.0565,0.19778 -0.16952,0.38141 -0.33902,0.55091 -0.16011,0.16953 -0.38612,0.32491 -0.67805,0.46616 -0.28253,0.13185 -0.65451,0.22603 -1.11595,0.28252 l -1.65273,-2.2319 c -0.51796,0.0283 -0.9794,0.17423 -1.38434,0.43791 -0.40495,0.25427 -0.76281,0.58388 -1.07357,0.98881 -0.30136,0.40495 -0.56033,0.8664 -0.77693,1.38434 -0.20718,0.50854 -0.37669,1.02649 -0.50853,1.55385 -0.13185,0.52738 -0.22602,1.04062 -0.28252,1.53973 -0.0565,0.49912 -0.0848,0.94173 -0.0848,1.32784 -1e-5,0.47087 0.0424,0.93702 0.12713,1.39846 0.0942,0.45204 0.24014,0.86169 0.4379,1.22896 0.20718,0.35786 0.47086,0.64979 0.79105,0.87581 0.3296,0.22601 0.73455,0.33902 1.21483,0.33902 0.38611,0 0.77692,-0.0659 1.17246,-0.19776 0.39551,-0.14126 0.79104,-0.33432 1.18657,-0.57917 0.40494,-0.24484 0.80988,-0.53678 1.21483,-0.8758 0.40494,-0.33902 0.81459,-0.71101 1.22896,-1.11595 l 0,1.82224 c -0.30136,0.29194 -0.6451,0.60271 -1.03119,0.93231 -0.38612,0.32961 -0.81461,0.63567 -1.28546,0.91819 -0.47088,0.28252 -0.98883,0.51795 -1.55385,0.70629 -0.22603,0.0753 -0.45675,0.13185 -0.69218,0.16952 l -0.26839,1.5256 c 0.0753,-0.0188 0.14596,-0.033 0.21189,-0.0424 0.0753,-0.009 0.15067,-0.0141 0.22602,-0.0141 1.29016,0 1.93524,0.50853 1.93525,1.5256 M 163.776,374.643 c -0.17895,0.10359 -0.4285,0.2166 -0.74868,0.33903 -0.31078,0.12242 -0.6498,0.23543 -1.01706,0.33902 -0.36729,0.10359 -0.74398,0.18834 -1.13008,0.25427 -0.3767,0.0753 -0.72043,0.113 -1.03119,0.113 -0.54621,0 -0.95116,-0.0942 -1.21483,-0.28252 -0.26369,-0.17892 -0.44733,-0.3861 -0.55091,-0.62154 -0.0942,-0.24485 -0.13656,-0.48969 -0.12713,-0.73454 0.009,-0.24485 0.0141,-0.42378 0.0141,-0.53679 -0.76281,0.72513 -1.56328,1.27133 -2.40141,1.63861 -0.82872,0.35785 -1.72807,0.53678 -2.69805,0.53678 -0.66863,0 -1.21483,-0.11771 -1.63861,-0.35315 -0.42378,-0.23543 -0.74396,-0.53207 -0.96056,-0.88993 -0.2166,-0.35785 -0.34844,-0.74867 -0.39552,-1.17245 -0.0471,-0.42378 -0.033,-0.82401 0.0424,-1.2007 l 1.87875,-9.02647 -2.42966,-0.26839 0,-0.83343 4.36491,-0.90406 1.18658,0 -2.30253,11.03235 c -0.0565,0.24485 -0.0471,0.48028 0.0283,0.70629 0.0848,0.2166 0.20246,0.40966 0.35314,0.57916 0.16009,0.1601 0.33902,0.29194 0.53679,0.39553 0.19776,0.0942 0.39081,0.14126 0.57916,0.14126 0.34844,0 0.69688,-0.0471 1.04532,-0.14126 0.35785,-0.10359 0.711,-0.24014 1.05945,-0.40965 0.34843,-0.16951 0.68274,-0.36256 1.00294,-0.57916 0.32018,-0.22602 0.61682,-0.46616 0.88993,-0.72043 l 2.18952,-10.65094 2.69805,0 -2.31665,11.13123 c -0.0659,0.30135 -0.0659,0.55562 0,0.7628 0.0659,0.19776 0.16479,0.36256 0.29664,0.4944 0.14125,0.13185 0.29664,0.22602 0.46616,0.28252 0.17891,0.0565 0.34843,0.0848 0.50853,0.0848 0.18833,0 0.43789,-0.0283 0.74868,-0.0848 0.31075,-0.0565 0.66861,-0.20247 1.07357,-0.4379 l 0,1.01706 m -6.70982,-17.85517 c -1e-5,0.21662 -0.0424,0.4238 -0.12713,0.62154 -0.0848,0.19778 -0.20248,0.372 -0.35315,0.52266 -0.14127,0.1507 -0.31078,0.26841 -0.50853,0.35315 -0.18836,0.0848 -0.39083,0.12715 -0.60742,0.12713 -0.20718,2e-5 -0.40495,-0.0424 -0.59329,-0.12713 -0.18835,-0.0847 -0.35315,-0.20245 -0.4944,-0.35315 -0.14127,-0.15066 -0.25428,-0.32017 -0.33903,-0.50853 -0.0848,-0.18833 -0.12714,-0.3908 -0.12713,-0.60741 -10e-6,-0.20717 0.0424,-0.40493 0.12713,-0.59329 0.0848,-0.19775 0.19776,-0.37197 0.33903,-0.52266 0.14125,-0.15066 0.30605,-0.26838 0.4944,-0.35315 0.18834,-0.0942 0.38611,-0.14124 0.59329,-0.14126 0.21659,2e-5 0.41906,0.0424 0.60742,0.12713 0.19775,0.0848 0.36726,0.19779 0.50853,0.33902 0.15067,0.14128 0.26838,0.31079 0.35315,0.50854 0.0847,0.18836 0.12712,0.39083 0.12713,0.60741 m 5.98939,0 c -1e-5,0.21662 -0.0424,0.4238 -0.12713,0.62154 -0.0753,0.19778 -0.18365,0.372 -0.3249,0.52266 -0.14127,0.1507 -0.31078,0.26841 -0.50853,0.35315 -0.18836,0.0848 -0.39083,0.12715 -0.60741,0.12713 -0.21661,2e-5 -0.42379,-0.0424 -0.62154,-0.12713 -0.18836,-0.0847 -0.35316,-0.20245 -0.49441,-0.35315 -0.14127,-0.15066 -0.25428,-0.32488 -0.33902,-0.52266 -0.0848,-0.19774 -0.12715,-0.40492 -0.12714,-0.62154 -1e-5,-0.19774 0.0424,-0.3908 0.12714,-0.57916 0.0942,-0.19774 0.21187,-0.36725 0.35314,-0.50853 0.15067,-0.15066 0.32018,-0.26838 0.50854,-0.35315 0.19775,-0.0942 0.39551,-0.14124 0.59329,-0.14126 0.21658,2e-5 0.41905,0.0424 0.60741,0.12713 0.19775,0.0848 0.36726,0.19779 0.50853,0.33902 0.14125,0.14128 0.24955,0.31079 0.3249,0.50854 0.0847,0.18836 0.12712,0.39083 0.12713,0.60741 m -27.26309,7.20423 c 0.009,-0.0471 -0.0283,-0.15538 -0.11301,-0.3249 -0.0753,-0.1695 -0.16952,-0.34372 -0.28251,-0.52266 -0.11302,-0.18833 -0.23545,-0.35314 -0.36728,-0.49441 -0.12243,-0.14124 -0.22602,-0.21187 -0.31077,-0.21189 -0.73456,2e-5 -1.39376,0.12244 -1.97763,0.36728 -0.57446,0.23544 -1.07828,0.56034 -1.51147,0.97469 -0.4332,0.40495 -0.80519,0.87581 -1.11595,1.41259 -0.30136,0.53679 -0.54621,1.09712 -0.73455,1.68098 -0.18835,0.58388 -0.3249,1.17246 -0.40965,1.76575 -0.0848,0.59329 -0.12714,1.15833 -0.12713,1.69511 -1e-5,0.40494 0.0329,0.80989 0.0989,1.21483 0.0659,0.40494 0.17892,0.77222 0.33902,1.10182 0.16951,0.32961 0.39552,0.598 0.67804,0.80518 0.29193,0.20718 0.66392,0.31077 1.11595,0.31077 0.33902,0 0.67804,-0.0753 1.01707,-0.22602 0.33901,-0.15067 0.65449,-0.32489 0.94644,-0.52266 0.29192,-0.19776 0.54619,-0.39552 0.7628,-0.59329 0.21658,-0.19776 0.37668,-0.34843 0.48028,-0.45203 l 1.51147,-7.98114 m 4.25191,10.56619 c -0.11303,0.0471 -0.32021,0.13655 -0.62154,0.26839 -0.30137,0.12243 -0.64039,0.24956 -1.01707,0.3814 -0.36729,0.12243 -0.74398,0.23072 -1.13008,0.3249 -0.3767,0.10359 -0.7063,0.15538 -0.98881,0.15538 -0.34845,0 -0.6451,-0.0424 -0.88993,-0.12713 -0.23545,-0.0848 -0.43321,-0.21189 -0.59329,-0.3814 -0.15069,-0.16951 -0.2684,-0.37669 -0.35315,-0.62154 -0.0848,-0.24485 -0.14127,-0.52737 -0.16951,-0.84756 -0.21661,0.20718 -0.47088,0.42849 -0.7628,0.66392 -0.29195,0.22602 -0.61684,0.43791 -0.97469,0.63567 -0.34845,0.19776 -0.72514,0.35786 -1.13008,0.48028 -0.39553,0.13184 -0.80989,0.19776 -1.24308,0.19776 -0.56504,0 -1.06415,-0.08 -1.49734,-0.24014 -0.42379,-0.16009 -0.79106,-0.37198 -1.10183,-0.63566 -0.31077,-0.27311 -0.56974,-0.58388 -0.77692,-0.93232 -0.19777,-0.35785 -0.35786,-0.72512 -0.48028,-1.10182 -0.12243,-0.3861 -0.20719,-0.77221 -0.25427,-1.15832 -0.0471,-0.39553 -0.0706,-0.76751 -0.0706,-1.11595 0,-0.74396 0.08,-1.49264 0.24014,-2.24602 0.16009,-0.7628 0.39552,-1.49264 0.7063,-2.18952 0.32018,-0.70629 0.71571,-1.3655 1.18657,-1.97763 0.47086,-0.61211 1.01236,-1.14419 1.62449,-1.59623 0.62153,-0.45202 1.30899,-0.80517 2.06238,-1.05945 0.76279,-0.26367 1.59622,-0.39551 2.50029,-0.39552 0.26367,1e-5 0.52265,0.033 0.77693,0.0989 0.26367,0.0565 0.50852,0.13656 0.73454,0.24014 0.22601,0.0942 0.43319,0.20248 0.62154,0.3249 0.18834,0.12243 0.34843,0.24957 0.48029,0.3814 l 0.42377,-0.69217 1.97763,0 c -0.0471,0.11302 -0.0989,0.24957 -0.15538,0.40965 -0.0565,0.15069 -0.11302,0.30607 -0.16951,0.46615 -0.0565,0.16011 -0.10832,0.31079 -0.15539,0.45203 -0.0377,0.14127 -0.0612,0.24957 -0.0706,0.3249 -0.0659,0.25428 -0.1601,0.64039 -0.28252,1.15832 -0.12243,0.50855 -0.25428,1.083 -0.39552,1.72337 -0.13186,0.64038 -0.27312,1.31372 -0.42378,2.02001 -0.14127,0.69688 -0.2684,1.3608 -0.3814,1.99175 -0.11302,0.62155 -0.20719,1.17717 -0.28252,1.66686 -0.0754,0.48028 -0.11302,0.82872 -0.11301,1.04532 -1e-5,0.50853 0.10829,0.85697 0.3249,1.04532 0.21659,0.18834 0.52265,0.28252 0.91819,0.28252 0.0942,0 0.23071,-0.0188 0.40965,-0.0565 0.18833,-0.0471 0.38138,-0.0989 0.57916,-0.15538 0.19775,-0.0565 0.38139,-0.1083 0.55091,-0.15539 0.1695,-0.0471 0.29192,-0.08 0.36728,-0.0989 l 0,1.04532 m -15.67986,-11.17362 c -0.11302,0.11302 -0.27782,0.3202 -0.4944,0.62154 -0.21662,0.30137 -0.44263,0.64039 -0.67805,1.01707 -0.22603,0.3767 -0.45204,0.76752 -0.67804,1.17245 -0.21661,0.39553 -0.39083,0.74397 -0.52266,1.04532 -0.20719,0.46145 -0.45204,1.02178 -0.73455,1.68098 -0.27311,0.65922 -0.58388,1.37022 -0.93231,2.13302 -0.33903,0.75339 -0.71102,1.53973 -1.11595,2.35903 -0.40495,0.80989 -0.83815,1.60565 -1.29959,2.38728 -0.45203,0.7628 -0.93702,1.51147 -1.45497,2.24602 -0.50853,0.74396 -1.05003,1.40317 -1.62448,1.97763 -0.57446,0.58387 -1.18187,1.05002 -1.82224,1.39847 -0.63096,0.35785 -1.29017,0.53678 -1.97763,0.53678 -0.52737,0 -0.96527,-0.0659 -1.31371,-0.19776 -0.34844,-0.13185 -0.62625,-0.29665 -0.83343,-0.49441 -0.20718,-0.18835 -0.34844,-0.39553 -0.42378,-0.62154 -0.0847,-0.2166 -0.12713,-0.41436 -0.12713,-0.59329 0,-0.2166 0.0518,-0.42849 0.15538,-0.63566 0.0942,-0.19777 0.23073,-0.3767 0.40965,-0.53679 0.17893,-0.15068 0.39082,-0.2731 0.63567,-0.36727 0.24485,-0.0942 0.50853,-0.15068 0.79105,-0.16951 l 1.68099,1.68098 c 0.30135,-0.0283 0.59799,-0.15068 0.88993,-0.36727 0.29193,-0.20719 0.598,-0.52267 0.91819,-0.94644 0.3296,-0.42378 0.68745,-0.95586 1.07357,-1.59623 0.3861,-0.64038 0.824,-1.40788 1.31371,-2.30252 -0.0188,-0.11301 -0.0659,-0.36257 -0.14126,-0.74868 -0.0754,-0.39552 -0.16952,-0.8711 -0.28252,-1.42672 -0.1036,-0.56503 -0.22602,-1.18657 -0.36727,-1.86462 -0.13185,-0.67804 -0.27311,-1.3655 -0.42378,-2.06238 -0.15068,-0.67804 -0.31078,-1.35609 -0.48028,-2.03414 -0.1601,-0.68745 -0.3202,-1.30428 -0.48029,-1.85049 -0.15068,-0.5462 -0.28723,-0.99352 -0.40965,-1.34197 -0.12242,-0.34843 -0.2166,-0.52735 -0.28252,-0.53678 l -2.62742,-0.19777 0,-0.72042 0.39553,-0.12713 c 0.18834,-0.0659 0.39552,-0.13183 0.62154,-0.19776 0.22601,-0.0753 0.46615,-0.15067 0.72042,-0.22602 0.25427,-0.0847 0.49441,-0.15537 0.72042,-0.21189 0.22602,-0.0659 0.42849,-0.1177 0.60742,-0.15538 0.18834,-0.0471 0.32489,-0.0706 0.40965,-0.0706 0.31077,1e-5 0.58387,0.0754 0.8193,0.22601 0.23543,0.14128 0.44261,0.34846 0.62154,0.62154 0.18834,0.27312 0.35786,0.60272 0.50854,0.98882 0.16009,0.3767 0.31076,0.80519 0.45203,1.28546 0.24484,0.85698 0.49911,1.92113 0.7628,3.19246 0.26367,1.26192 0.53678,2.6698 0.8193,4.22365 l 4.40729,-10.53794 0.83343,0 2.40141,0.79105 0,0.66392 -1.44085,0.88993 m -13.7869,11.37134 c -0.12244,0.0471 -0.33904,0.12243 -0.6498,0.22602 -0.30136,0.0942 -0.64039,0.19776 -1.01706,0.31077 -0.37671,0.10359 -0.76282,0.19305 -1.15833,0.26839 -0.39554,0.0847 -0.74398,0.12713 -1.04532,0.12713 -0.16952,0 -0.40495,-0.0188 -0.70629,-0.0565 -0.29195,-0.0283 -0.57447,-0.10359 -0.84756,-0.22602 -0.27311,-0.113 -0.49442,-0.28251 -0.66392,-0.50853 -0.16952,-0.22601 -0.2119,-0.53207 -0.12713,-0.91818 l 1.76574,-8.88521 c 0.0659,-0.3861 0.0659,-0.70629 0,-0.96057 -0.0565,-0.25425 -0.1554,-0.45672 -0.29665,-0.60741 -0.13185,-0.16008 -0.28723,-0.26838 -0.46615,-0.3249 -0.17894,-0.0659 -0.34845,-0.0989 -0.50853,-0.0989 -0.23545,10e-6 -0.52738,0.0706 -0.87581,0.21189 -0.33903,0.13186 -0.7016,0.31078 -1.0877,0.53679 -0.3767,0.22602 -0.7581,0.49441 -1.1442,0.80517 -0.38611,0.30137 -0.73926,0.62156 -1.05944,0.96057 l -1.991759,9.71863 -2.698052,0 2.514415,-12.28955 -2.429659,-0.26839 0,-0.83343 4.364915,-0.90406 1.15832,0 -0.53678,2.69805 c 0.32018,-0.32018 0.68745,-0.64036 1.10182,-0.96056 0.41435,-0.3296 0.85696,-0.62153 1.32784,-0.87581 0.47085,-0.25425 0.95584,-0.46143 1.45497,-0.62154 0.50852,-0.16008 1.00293,-0.24013 1.48322,-0.24014 1.05472,1e-5 1.8034,0.29195 2.24602,0.8758 0.45202,0.58389 0.56502,1.52562 0.33902,2.82519 l -1.53972,8.16479 c -0.0471,0.2731 -0.0283,0.4897 0.0565,0.64979 0.0942,0.16009 0.21188,0.28252 0.35315,0.36727 0.15066,0.0848 0.30605,0.14126 0.46615,0.16951 0.16009,0.0188 0.28251,0.0283 0.36728,0.0283 0.26367,1e-5 0.5509,-0.0377 0.86168,-0.113 0.31076,-0.0753 0.63094,-0.1648 0.96056,-0.2684 l 0.0283,1.01707 M 95.237003,374.643 c -0.178943,0.10359 -0.428501,0.2166 -0.748674,0.33903 -0.310785,0.12242 -0.649806,0.23543 -1.017067,0.33902 -0.367287,0.10359 -0.743978,0.18834 -1.130074,0.25427 -0.376703,0.0753 -0.720434,0.113 -1.031193,0.113 -0.546213,0 -0.951156,-0.0942 -1.214829,-0.28252 -0.263694,-0.17892 -0.447331,-0.3861 -0.550911,-0.62154 -0.09418,-0.24485 -0.13656,-0.48969 -0.127134,-0.73454 0.0094,-0.24485 0.01412,-0.42378 0.01413,-0.53679 -0.762808,0.72513 -1.563277,1.27133 -2.401407,1.63861 -0.828727,0.35785 -1.728077,0.53678 -2.698052,0.53678 -0.668631,0 -1.214833,-0.11771 -1.638608,-0.35315 -0.42378,-0.23543 -0.743967,-0.53207 -0.960563,-0.88993 -0.216599,-0.35785 -0.34844,-0.74867 -0.395526,-1.17245 -0.04709,-0.42378 -0.03296,-0.82401 0.04238,-1.2007 l 1.878748,-9.02647 -2.429659,-0.26839 0,-0.83343 4.364911,-0.90406 1.186578,0 -2.302526,11.03235 c -0.05651,0.24485 -0.04709,0.48028 0.02825,0.70629 0.08475,0.2166 0.202467,0.40966 0.353148,0.57916 0.160089,0.1601 0.339018,0.29194 0.536785,0.39553 0.197758,0.0942 0.390812,0.14126 0.579163,0.14126 0.348434,0 0.696873,-0.0471 1.045319,-0.14126 0.35785,-0.10359 0.710998,-0.24014 1.059444,-0.40965 0.348432,-0.16951 0.682745,-0.36256 1.002941,-0.57916 0.320179,-0.22602 0.616823,-0.46616 0.889933,-0.72043 l 2.189519,-10.65094 2.698052,0 -2.316652,11.13123 c -0.06593,0.30135 -0.06593,0.55562 0,0.7628 0.06591,0.19776 0.16479,0.36256 0.296645,0.4944 0.141246,0.13185 0.296631,0.22602 0.466155,0.28252 0.178916,0.0565 0.348426,0.0848 0.508533,0.0848 0.188333,0 0.43789,-0.0283 0.748675,-0.0848 0.310756,-0.0565 0.668612,-0.20247 1.07357,-0.4379 l 0,1.01706 m -6.709815,-17.85517 c -9e-6,0.21662 -0.04239,0.4238 -0.127133,0.62154 -0.08476,0.19778 -0.20248,0.372 -0.353149,0.52266 -0.141267,0.1507 -0.310778,0.26841 -0.508533,0.35315 -0.188353,0.0848 -0.390824,0.12715 -0.607415,0.12713 -0.207187,2e-5 -0.404949,-0.0424 -0.593289,-0.12713 -0.188351,-0.0847 -0.353154,-0.20245 -0.494407,-0.35315 -0.141265,-0.15066 -0.254272,-0.32017 -0.339022,-0.50853 -0.08476,-0.18833 -0.127139,-0.3908 -0.127134,-0.60741 -5e-6,-0.20717 0.04237,-0.40493 0.127134,-0.59329 0.08475,-0.19775 0.197757,-0.37197 0.339022,-0.52266 0.141253,-0.15066 0.306056,-0.26838 0.494407,-0.35315 0.18834,-0.0942 0.386102,-0.14124 0.593289,-0.14126 0.216591,2e-5 0.419062,0.0424 0.607415,0.12713 0.197755,0.0848 0.367266,0.19779 0.508533,0.33902 0.150669,0.14128 0.268385,0.31079 0.353149,0.50854 0.08475,0.18836 0.127124,0.39083 0.127133,0.60741 m 5.989393,0 c -1.5e-5,0.21662 -0.04239,0.4238 -0.127134,0.62154 -0.07535,0.19778 -0.183651,0.372 -0.324896,0.52266 -0.141273,0.1507 -0.310784,0.26841 -0.508533,0.35315 -0.188359,0.0848 -0.390831,0.12715 -0.607415,0.12713 -0.21661,2e-5 -0.42379,-0.0424 -0.621541,-0.12713 -0.188358,-0.0847 -0.35316,-0.20245 -0.494407,-0.35315 -0.141271,-0.15066 -0.254278,-0.32488 -0.339023,-0.52266 -0.08477,-0.19774 -0.127144,-0.40492 -0.127133,-0.62154 -1.1e-5,-0.19774 0.04237,-0.3908 0.127133,-0.57916 0.09416,-0.19774 0.211878,-0.36725 0.353149,-0.50853 0.150664,-0.15066 0.320175,-0.26838 0.508533,-0.35315 0.19775,-0.0942 0.395513,-0.14124 0.593289,-0.14126 0.216584,2e-5 0.419056,0.0424 0.607415,0.12713 0.197749,0.0848 0.36726,0.19779 0.508533,0.33902 0.141245,0.14128 0.249544,0.31079 0.324896,0.50854 0.08474,0.18836 0.127119,0.39083 0.127134,0.60741 M 76.88742,372.84901 c -0.0471,0.2731 -0.03297,0.49441 0.04238,0.66392 0.07533,0.16951 0.174208,0.30606 0.296645,0.40965 0.131829,0.0942 0.263671,0.1601 0.395526,0.19776 0.141246,0.0377 0.244836,0.0565 0.31077,0.0565 0.06591,0 0.19775,-0.0235 0.395526,-0.0706 0.207166,-0.0565 0.423764,-0.11772 0.649792,-0.18364 0.226001,-0.0659 0.43789,-0.12713 0.635667,-0.18364 l 0.395526,-0.113 0,1.07357 c -0.113022,0.0471 -0.320202,0.12713 -0.621541,0.24014 -0.301367,0.10359 -0.63568,0.21189 -1.00294,0.32489 -0.367288,0.11301 -0.748687,0.21189 -1.1442,0.29665 -0.386121,0.0847 -0.725143,0.12713 -1.017067,0.12713 -0.442623,0 -0.805189,-0.0565 -1.087697,-0.16951 -0.282528,-0.10359 -0.503834,-0.24956 -0.663918,-0.4379 -0.160103,-0.19776 -0.273111,-0.42849 -0.339022,-0.69217 -0.05651,-0.26369 -0.08476,-0.55562 -0.08476,-0.87581 -0.254275,0.2731 -0.536794,0.5415 -0.847555,0.80518 -0.301362,0.25427 -0.626258,0.48499 -0.974689,0.69217 -0.348447,0.19776 -0.715721,0.35786 -1.101823,0.48028 -0.386114,0.13184 -0.78164,0.19776 -1.186577,0.19776 -0.809891,0 -1.483226,-0.15538 -2.020008,-0.46615 -0.52737,-0.31077 -0.946439,-0.71572 -1.257207,-1.21483 -0.310772,-0.49912 -0.532078,-1.05474 -0.663919,-1.66686 -0.122426,-0.61212 -0.183638,-1.22424 -0.183637,-1.83637 -10e-7,-0.7628 0.08005,-1.5256 0.240141,-2.2884 0.16951,-0.77221 0.414359,-1.50676 0.734548,-2.20365 0.329603,-0.70628 0.729837,-1.36078 1.200704,-1.9635 0.47086,-0.60269 1.007645,-1.12535 1.610355,-1.56798 0.602701,-0.45201 1.271328,-0.80516 2.005882,-1.05944 0.743958,-0.25426 1.539718,-0.38139 2.387281,-0.3814 0.216589,10e-6 0.428477,0.0236 0.635667,0.0706 0.20717,0.0377 0.404933,0.0848 0.593289,0.14126 0.188335,0.0565 0.362555,0.11773 0.522659,0.18363 0.160083,0.0659 0.301342,0.11773 0.423778,0.15539 l 0.974689,-5.57974 -2.627422,-0.25427 0,-0.87581 4.477918,-0.86168 1.186578,0 -3.291341,18.82986 m -1.130074,-8.91346 c 0.0094,-0.0377 -0.0471,-0.14125 -0.169511,-0.31077 -0.113018,-0.17891 -0.263694,-0.36255 -0.45203,-0.55091 -0.178938,-0.18833 -0.376701,-0.35784 -0.593288,-0.50853 -0.216607,-0.15067 -0.419079,-0.226 -0.607415,-0.22602 -0.706305,2e-5 -1.37964,0.2072 -2.020008,0.62154 -0.640381,0.40496 -1.205418,0.96529 -1.695111,1.68099 -0.489704,0.71572 -0.88052,1.56328 -1.172452,2.54267 -0.291939,0.96998 -0.437907,2.02001 -0.437904,3.15008 -3e-6,0.62154 0.06121,1.15833 0.183638,1.61035 0.131837,0.45203 0.301348,0.82402 0.508533,1.11595 0.216593,0.29194 0.461442,0.50854 0.734548,0.64979 0.273096,0.14126 0.550905,0.21189 0.83343,0.21189 0.263677,0 0.546196,-0.0659 0.847555,-0.19776 0.310764,-0.13184 0.621534,-0.30606 0.932311,-0.52266 0.310763,-0.22601 0.616824,-0.48028 0.918186,-0.7628 0.310761,-0.29193 0.597988,-0.58858 0.861681,-0.88993 l 1.327837,-7.61388 m -23.533788,0.16952 c 0.01882,-0.10358 -0.02826,-0.24954 -0.141259,-0.4379 -0.103601,-0.19775 -0.240152,-0.39081 -0.409652,-0.57916 -0.160104,-0.19775 -0.329615,-0.36727 -0.508534,-0.50854 -0.16952,-0.14124 -0.306071,-0.21187 -0.409651,-0.21189 -0.791061,2e-5 -1.535026,0.20249 -2.231897,0.60742 -0.687468,0.40495 -1.290174,0.96528 -1.808118,1.68098 -0.517956,0.71573 -0.927607,1.55857 -1.228956,2.52855 -0.29194,0.96998 -0.437907,2.02001 -0.437904,3.15008 -3e-6,0.5462 0.05179,1.04061 0.155385,1.48322 0.113004,0.44261 0.268389,0.81931 0.466156,1.13007 0.207176,0.31078 0.456733,0.55092 0.748674,0.72043 0.291931,0.16951 0.616827,0.25426 0.974689,0.25426 0.291929,0 0.579156,-0.0518 0.861682,-0.15538 0.291928,-0.11301 0.569738,-0.25898 0.833429,-0.43791 0.273093,-0.17892 0.541486,-0.37669 0.805178,-0.59329 0.263675,-0.21659 0.52265,-0.4379 0.776926,-0.66391 l 1.553852,-7.96703 m -0.409652,15.70803 c -0.02826,0.16009 -0.0047,0.28723 0.07063,0.3814 0.08474,0.10359 0.254255,0.16951 0.508533,0.19777 l 1.793993,0.15538 0,1.0877 -7.288978,0 0,-1.0877 1.539726,-0.15538 c 0.188338,-0.0188 0.343723,-0.0754 0.466155,-0.16951 0.122417,-0.0848 0.207173,-0.22132 0.254267,-0.40966 l 1.186578,-6.01764 c -0.668636,0.55562 -1.351388,1.01236 -2.04826,1.37021 -0.696885,0.34844 -1.384346,0.52266 -2.062385,0.52266 -0.583876,0 -1.120661,-0.113 -1.610356,-0.33902 -0.480284,-0.2166 -0.899353,-0.5462 -1.257207,-0.98881 -0.348441,-0.44262 -0.621542,-0.98882 -0.819304,-1.63861 -0.197764,-0.64979 -0.296645,-1.40788 -0.296644,-2.27428 -1e-6,-0.74396 0.08946,-1.49263 0.268392,-2.24602 0.178927,-0.75337 0.433194,-1.4785 0.7628,-2.17539 0.329603,-0.69687 0.734546,-1.34666 1.21483,-1.94938 0.480278,-0.61211 1.021771,-1.13948 1.624482,-1.5821 0.6027,-0.45202 1.26191,-0.80517 1.977629,-1.05945 0.715706,-0.26367 1.473797,-0.39551 2.274274,-0.39552 0.612114,1e-5 1.153608,0.0895 1.624482,0.26839 0.470853,0.17894 0.838127,0.372 1.101822,0.57916 l 0.692171,-0.84755 1.737489,0 -3.715119,18.77335 M 41.24771,374.50174 c -0.113015,0.0471 -0.320195,0.13656 -0.621541,0.2684 -0.30136,0.13184 -0.654508,0.26839 -1.059445,0.40965 -0.404948,0.13184 -0.833434,0.24956 -1.285459,0.35315 -0.442617,0.10359 -0.861685,0.15538 -1.257207,0.15538 -0.499119,0 -0.894645,-0.0847 -1.186578,-0.25426 -0.291938,-0.16952 -0.508535,-0.39082 -0.649793,-0.66392 -0.141261,-0.2731 -0.221307,-0.57916 -0.240141,-0.91819 -0.01884,-0.33902 0.0047,-0.67333 0.07063,-1.00294 l 1.850496,-9.80339 -2.486163,-0.26839 0,-0.83343 4.364912,-0.90406 1.186577,0 -2.189518,11.56913 c -0.03767,0.19777 -0.03767,0.38611 0,0.56504 0.04708,0.17893 0.117712,0.33902 0.211889,0.48028 0.103585,0.13184 0.230719,0.24014 0.3814,0.3249 0.160089,0.0753 0.339017,0.113 0.536785,0.113 0.169506,0 0.367268,-0.0282 0.593289,-0.0847 0.235426,-0.0659 0.466149,-0.13655 0.69217,-0.21189 0.235426,-0.0848 0.452023,-0.1648 0.649793,-0.24014 0.197755,-0.0753 0.343723,-0.12713 0.437904,-0.15539 l 0,1.10182 m -11.625638,4.06822 c -9e-6,0.49911 -0.108307,0.94643 -0.324896,1.34196 -0.216606,0.40494 -0.51325,0.74396 -0.889934,1.01707 -0.376698,0.28251 -0.814601,0.4944 -1.313711,0.63567 -0.489704,0.15067 -1.007654,0.22601 -1.553852,0.22601 -0.216602,0 -0.442616,-0.0141 -0.678044,-0.0424 -0.226019,-0.0283 -0.442616,-0.0612 -0.649793,-0.0989 -0.207183,-0.0282 -0.400237,-0.0659 -0.579163,-0.113 -0.169513,-0.0377 -0.306064,-0.0706 -0.409652,-0.0989 l 0.268393,-1.15832 c 0.216595,0.0565 0.503822,0.12242 0.861681,0.19776 0.357853,0.0847 0.696875,0.12713 1.017067,0.12714 0.131838,-1e-5 0.306057,-0.0188 0.522659,-0.0565 0.216593,-0.0377 0.423773,-0.1083 0.621541,-0.21189 0.207175,-0.0942 0.386103,-0.23073 0.536785,-0.40965 0.150671,-0.17893 0.226009,-0.40966 0.226015,-0.69217 -6e-6,-0.14126 -0.03297,-0.26369 -0.09888,-0.36727 -0.05651,-0.0942 -0.131848,-0.17423 -0.226015,-0.24014 -0.08476,-0.0565 -0.183643,-0.0989 -0.296645,-0.12714 -0.113013,-0.0282 -0.22602,-0.0424 -0.339022,-0.0424 -0.08476,0 -0.183642,0.0235 -0.296644,0.0706 -0.113013,0.0565 -0.320193,0.16009 -0.621541,0.31077 l 0.593289,-3.1642 c -0.517955,-0.0471 -0.998236,-0.1601 -1.440845,-0.33903 -0.546205,-0.24484 -1.01236,-0.59328 -1.398466,-1.04531 -0.376693,-0.46145 -0.668629,-1.02649 -0.875808,-1.69512 -0.207181,-0.66862 -0.310771,-1.43142 -0.31077,-2.2884 -10e-7,-0.86638 0.09888,-1.6951 0.296644,-2.48616 0.207179,-0.79104 0.489697,-1.5303 0.847556,-2.21777 0.357854,-0.68745 0.781632,-1.30899 1.271333,-1.86462 0.489695,-0.56503 1.021771,-1.04531 1.59623,-1.44085 0.574449,-0.40493 1.181863,-0.7157 1.822244,-0.93231 0.640368,-0.21658 1.285452,-0.32488 1.935252,-0.32489 0.517942,1e-5 0.965262,0.0659 1.341963,0.19776 0.376681,0.13186 0.682743,0.29666 0.918186,0.49441 0.23542,0.19777 0.40964,0.41908 0.522659,0.66392 0.112996,0.23544 0.169499,0.46146 0.169511,0.67804 -1.2e-5,0.18836 -0.02826,0.38141 -0.08476,0.57916 -0.05652,0.19778 -0.169522,0.38141 -0.339022,0.55091 -0.160105,0.16953 -0.386119,0.32491 -0.678044,0.46616 -0.282529,0.13185 -0.654511,0.22603 -1.115948,0.28252 l -1.652734,-2.2319 c -0.517958,0.0283 -0.979404,0.17423 -1.384341,0.43791 -0.404949,0.25427 -0.762805,0.58388 -1.07357,0.98881 -0.301358,0.40495 -0.560333,0.8664 -0.776926,1.38434 -0.207185,0.50854 -0.376696,1.02649 -0.508533,1.55385 -0.131846,0.52738 -0.226019,1.04062 -0.282519,1.53973 -0.05651,0.49912 -0.08476,0.94173 -0.08475,1.32784 -4e-6,0.47087 0.04237,0.93702 0.127133,1.39846 0.09417,0.45204 0.240137,0.86169 0.437904,1.22896 0.207175,0.35786 0.470859,0.64979 0.791051,0.87581 0.3296,0.22601 0.734543,0.33902 1.21483,0.33902 0.386102,0 0.776919,-0.0659 1.172452,-0.19776 0.395518,-0.14126 0.791044,-0.33432 1.186578,-0.57917 0.404934,-0.24484 0.809877,-0.53678 1.21483,-0.8758 0.404933,-0.33902 0.814584,-0.71101 1.228955,-1.11595 l 0,1.82224 c -0.301364,0.29194 -0.645094,0.60271 -1.031193,0.93231 -0.386118,0.32961 -0.814604,0.63567 -1.285459,0.91819 -0.470872,0.28252 -0.988822,0.51795 -1.553852,0.70629 -0.226021,0.0753 -0.456745,0.13185 -0.69217,0.16952 l -0.268393,1.5256 c 0.07533,-0.0188 0.145962,-0.033 0.211889,-0.0424 0.07533,-0.009 0.15067,-0.0141 0.226015,-0.0141 1.29016,0 1.935243,0.50853 1.935252,1.5256 m -17.261884,-19.5502 -4.2801556,7.51499 5.5232376,0 -1.243082,-7.51499 m 0.494407,16.31544 0,-1.21483 1.327838,-0.14125 c 0.423764,-0.0565 0.607401,-0.24014 0.550911,-0.55092 l -0.875808,-5.52323 -6.5544296,0 -2.9523186,5.52323 c -0.1035928,0.18835 -0.1083015,0.32019 -0.014126,0.39553 0.1035872,0.0753 0.2919327,0.12714 0.565037,0.15539 l 1.3278371,0.14125 0,1.21483 -6.2295335501407,0 0,-1.21483 L 1.624486,373.95083 12.303686,355.46 l 2.316652,0 3.12183,17.96817 c 0.02824,0.18835 0.08003,0.3249 0.155385,0.40966 0.07532,0.0753 0.216581,0.12242 0.423778,0.14126 l 1.327837,0.14125 0,1.21483 -6.794571,0" />
  </g>
</svg>
