<?xml version="1.0" encoding="utf-8"?>
<!-- Generator: Adobe Illustrator 15.0.0, SVG Export Plug-In . SVG Version: 6.00 Build 0)  -->
<!DOCTYPE svg PUBLIC "-//W3C//DTD SVG 1.1//EN" "http://www.w3.org/Graphics/SVG/1.1/DTD/svg11.dtd">
<svg version="1.1"
	 id="svg2728" inkscape:output_extension="org.inkscape.output.svg.inkscape" xmlns:dc="http://purl.org/dc/elements/1.1/" xmlns:cc="http://creativecommons.org/ns#" xmlns:rdf="http://www.w3.org/1999/02/22-rdf-syntax-ns#" xmlns:svg="http://www.w3.org/2000/svg" xmlns:sodipodi="http://sodipodi.sourceforge.net/DTD/sodipodi-0.dtd" xmlns:inkscape="http://www.inkscape.org/namespaces/inkscape" sodipodi:docname="Wikibooks-logo-en-noslogan.svg" inkscape:version="0.46" sodipodi:version="0.32"
	 xmlns="http://www.w3.org/2000/svg" xmlns:xlink="http://www.w3.org/1999/xlink" x="0px" y="0px" width="400px" height="400px"
	 viewBox="0 0 400 400" enable-background="new 0 0 400 400" xml:space="preserve">
<sodipodi:namedview  id="base" inkscape:cy="186.14387" gridtolerance="10.0" objecttolerance="10.0" borderopacity="1.0" bordercolor="#666666" pagecolor="#ffffff" showgrid="false" inkscape:zoom="1.245" inkscape:cx="240.3826" guidetolerance="10.0" inkscape:window-height="821" inkscape:pageshadow="2" inkscape:pageopacity="0.0" inkscape:window-width="1272" inkscape:window-x="0" inkscape:window-y="116" inkscape:current-layer="svg2728">
	</sodipodi:namedview>
<defs>
	
	
		<inkscape:perspective  id="perspective20" sodipodi:type="inkscape:persp3d" inkscape:vp_x="0 : 200 : 1" inkscape:vp_y="0 : 1000 : 0" inkscape:vp_z="400 : 200 : 1" inkscape:persp3d-origin="200 : 133.33333 : 1">
		</inkscape:perspective>
</defs>
<g id="layer1">
</g>
<g id="g2861">
	<g id="g3189" transform="translate(0,12.9688)">
		<g id="g3177">
			<path id="path3297" fill="#FDFCF8" d="M191.657,115.976c5.277,66.026,16.797,129.944,51.198,191.489l13.011,0.098l82.291-73.42
				l-78.437-198.2l-56.539,54.008L191.657,115.976z"/>
			<path id="path3272" fill="#5F96D3" d="M263.327,16.5c-27.187,26.302-54.063,52.375-54.063,52.375l9.656,19.656
				c13.094-12.981,26.262-24.397,38.813-37.094c26.435,58.035,44.444,104.812,66.6,166.646c7.253,20.088,5.773,20.987-11.563,31.845
				c-27.854,13.853-36.673,22.938-69.87,58.26h22.719c27.754-25.092,38.056-33.947,72.809-52.26c12.294-7.099,13.979-16.06,8.938-30
				C331.102,180.731,295.872,83.323,263.327,16.5z"/>
		</g>
		<g id="g3181">
			<path id="path3214" fill="#F4EED7" d="M125.841,116.045c5.277,66.026,18.778,130.787,53.179,192.332l20.334,0.184l61.968-77.719
				L193.905,36.013l-56.54,54.008L125.841,116.045z"/>
			<path id="path3138" fill="#2A62A1" d="M192.452,17.125c-19.888,13.424-35.229,32.745-52.531,49.313l7.094,22.625
				c13.541-10.67,25.326-23.536,37.5-35.719l65.656,164.688c3.786,11.149-2.177,21.071-14.155,31.875
				c-14.35,11.532-43.894,38.421-57.282,58.905h20.375c21.385-21.965,25.245-24.946,49.594-46.03
				c16.347-16.679,31.113-25.222,23.406-46.595L192.452,17.125z"/>
		</g>
		<g id="g3185">
			<path id="path2238" fill="#E9DDAF" d="M50.219,114.632c5.377,69.284,27.015,131.341,52.459,191.705l26.802-0.331l70.401-80.037
				l-81.598-191.37l-56.54,54.008L50.219,114.632z"/>
			<path id="path3136" fill="#15304F" d="M125.327,16.062c-5.301,1.779-9.712,5.198-13.844,8.813
				C55.395,78.847,53.14,81.125,53.14,81.125c-2.951,2.743-3.198,6.752-3.156,10.781l0.235,22.726c0,0,25.904-25.182,64.577-62.413
				c20.818,54.238,42.545,108.187,63.938,162.218c2.93,8.164-4.082,14.854-12.969,23.781
				c-12.273,11.975-37.944,36.621-64.219,69.531h26.344l63.313-69.438c6.02-8.277,13.503-16.371,10.344-23.875L125.327,16.062z"/>
		</g>
	</g>
</g>
<g enable-background="new    ">
	<path fill="#0B2645" d="M146.748,357.46c-1.103,0.19-2.205,0.361-3.306,0.513c-1.103,0.152-2.261,0.285-3.477,0.399
		c-1.216,0.152-2.546,0.285-3.99,0.399c-1.445,0.113-3.041,0.209-4.788,0.284v17.157h-6.042v-16.986c-0.456,0-0.94,0-1.454,0
		s-1.017,0-1.511,0H110.04v-5.699h12.996c4.825,0,9.205-0.171,13.138-0.514c3.933-0.342,7.458-0.835,10.574-1.481V357.46z
		 M140.079,339.904c0,1.52-0.324,2.955-0.969,4.303c-0.646,1.35-1.539,2.537-2.679,3.563c-1.14,1.026-2.479,1.834-4.018,2.423
		c-1.539,0.59-3.221,0.884-5.045,0.884c-1.824,0-3.525-0.285-5.101-0.855c-1.578-0.569-2.955-1.368-4.133-2.394
		c-1.178-1.026-2.09-2.213-2.736-3.563c-0.646-1.349-0.969-2.802-0.969-4.36c0-1.482,0.304-2.907,0.912-4.275
		c0.607-1.368,1.482-2.564,2.622-3.591c1.14-1.063,2.488-1.909,4.047-2.536c1.558-0.628,3.287-0.941,5.187-0.941
		c1.861,0,3.582,0.295,5.159,0.884c1.576,0.59,2.936,1.396,4.075,2.423c1.14,0.988,2.033,2.176,2.679,3.563
		C139.755,336.817,140.079,338.308,140.079,339.904z M133.979,339.904c0-1.71-0.637-3.136-1.91-4.275
		c-1.273-1.14-2.878-1.71-4.816-1.71s-3.544,0.58-4.816,1.738c-1.274,1.16-1.91,2.557-1.91,4.189c0,1.71,0.693,3.106,2.081,4.189
		c1.387,1.083,2.973,1.625,4.759,1.625s3.335-0.551,4.646-1.653C133.324,342.906,133.979,341.538,133.979,339.904z M153.986,376.954
		h-6.042v-51.87h6.042V376.954z"/>
	<path fill="#0B2645" d="M204.943,332.266c-0.229,3.915-0.95,7.516-2.166,10.802c-1.217,3.287-2.832,6.261-4.845,8.921
		c-2.014,2.66-4.38,4.997-7.096,7.011c-2.717,2.015-5.671,3.705-8.864,5.073l-4.503-4.788c3.154-1.141,5.957-2.546,8.408-4.218
		c2.451-1.672,4.55-3.534,6.298-5.586h-11.514v-5.814c0.874,0,1.672,0,2.394,0c0.722,0,1.539,0,2.451,0s1.843,0,2.793,0
		c0.988,0,1.938,0,2.85,0s1.729,0,2.451,0c0.722,0,1.52,0,2.394,0c0.456-0.912,0.845-1.843,1.168-2.793
		c0.323-0.949,0.599-1.899,0.827-2.85h-16.758v-5.758H204.943z M219.991,376.954h-6.042v-51.87h6.042V376.954z"/>
</g>
<g enable-background="new    ">
	<path fill="#0A4E98" d="M272.716,353.242l-4.218,4.161l-7.582-6.669c-1.709,1.672-3.533,3.116-5.471,4.332
		c-1.938,1.216-3.82,2.146-5.644,2.793l-3.819-4.675c2.09-0.721,3.951-1.586,5.586-2.593c1.634-1.007,3.059-2.062,4.275-3.164
		c1.178-1.102,2.175-2.203,2.992-3.306c0.816-1.102,1.453-2.109,1.91-3.021h-12.142v-5.643h20.406
		c-0.267,1.977-0.779,3.867-1.539,5.672c-0.761,1.805-1.673,3.505-2.735,5.102L272.716,353.242z M265.762,333.235
		c-0.494,0.076-1.436,0.143-2.822,0.199s-3.087,0.048-5.102-0.028c-1.938-0.19-3.563-0.579-4.873-1.169
		c-1.311-0.589-2.156-1.035-2.536-1.339l1.938-4.675c0.189,0.077,0.475,0.182,0.854,0.313c0.38,0.134,0.816,0.276,1.312,0.428
		c0.531,0.152,1.119,0.295,1.767,0.428c0.646,0.134,1.349,0.237,2.108,0.313c1.748,0.076,3.287,0.085,4.617,0.028
		s2.242-0.123,2.736-0.199V333.235z M289.759,379.519h-6.099v-13.622h-21.832v-5.758h27.931V379.519z M291.697,358.543h-6.043
		v-13.395h-5.472v12.312h-6.042v-31.179h6.042v13.167h5.472v-14.364h6.043V358.543z"/>
</g>
</svg>
