<?xml version="1.0" encoding="UTF-8" standalone="no"?>
<!-- Created with Inkscape (http://www.inkscape.org/) -->
<svg
   xmlns:ns="http://creativecommons.org/ns#"
   xmlns:dc="http://purl.org/dc/elements/1.1/"
   xmlns:cc="http://web.resource.org/cc/"
   xmlns:rdf="http://www.w3.org/1999/02/22-rdf-syntax-ns#"
   xmlns:svg="http://www.w3.org/2000/svg"
   xmlns="http://www.w3.org/2000/svg"
   xmlns:sodipodi="http://sodipodi.sourceforge.net/DTD/sodipodi-0.dtd"
   xmlns:inkscape="http://www.inkscape.org/namespaces/inkscape"
   version="1.0"
   width="400"
   height="400"
   id="svg2728"
   sodipodi:version="0.32"
   inkscape:version="0.45.1"
   sodipodi:docname="Wikibooks-logo-en-unpathed.svg"
   inkscape:output_extension="org.inkscape.output.svg.inkscape"
   sodipodi:docbase="C:\Documents and Settings\Tech U\Desktop"
   inkscape:export-filename="C:\Documents and Settings\Tech U\Desktop\Wikibooks-logo-en-unpathed.png"
   inkscape:export-xdpi="30.379999"
   inkscape:export-ydpi="30.379999">
  <metadata
     id="metadata18">
    <rdf:RDF>
      <ns:Work
         rdf:about="">
        <dc:format>image/svg+xml</dc:format>
        <dc:type
           rdf:resource="http://purl.org/dc/dcmitype/StillImage" />
      </ns:Work>
      <cc:Work
         rdf:about="">
        <dc:format>image/svg+xml</dc:format>
        <dc:type
           rdf:resource="http://purl.org/dc/dcmitype/StillImage" />
      </cc:Work>
    </rdf:RDF>
  </metadata>
  <sodipodi:namedview
     inkscape:window-height="821"
     inkscape:window-width="1272"
     inkscape:pageshadow="2"
     inkscape:pageopacity="0.0"
     guidetolerance="10.0"
     gridtolerance="10.0"
     objecttolerance="10.0"
     borderopacity="1.0"
     bordercolor="#666666"
     pagecolor="#ffffff"
     id="base"
     showgrid="false"
     inkscape:zoom="1.245"
     inkscape:cx="15.396543"
     inkscape:cy="167.87149"
     inkscape:window-x="0"
     inkscape:window-y="25"
     inkscape:current-layer="svg2728" />
  <defs
     id="defs2731">
    <inkscape:perspective
       sodipodi:type="inkscape:persp3d"
       inkscape:vp_x="0 : 200 : 1"
       inkscape:vp_y="0 : 1000 : 0"
       inkscape:vp_z="400 : 200 : 1"
       inkscape:persp3d-origin="200 : 133.33333 : 1"
       id="perspective20" />
  </defs>
  <g
     id="layer1" />
  <g
     id="g3189">
    <g
       id="g3177">
      <path
         id="path3297"
         style="fill: rgb(253, 252, 248); fill-opacity: 1; fill-rule: evenodd; stroke: none; stroke-width: 1px; stroke-linecap: butt; stroke-linejoin: miter; stroke-opacity: 1;"
         d="M 191.65664,115.97593 C 196.93351,182.00184 208.45394,245.91983 242.85479,307.46513 L 255.86467,307.56221 L 338.15581,234.14292 L 259.72068,35.943307 L 203.18059,89.951746 L 191.65664,115.97593 z" />
      <path
         d="M 263.32723,16.5 C 236.14031,42.801966 209.26473,68.875 209.26473,68.875 C 209.26473,68.875 218.92098,88.53125 218.92098,88.53125 C 232.01455,75.550025 245.18226,64.133911 257.73348,51.4375 C 284.16674,109.4727 302.17756,156.24917 324.33191,218.08448 C 331.58462,238.17246 330.10582,239.07126 312.76941,249.92823 C 284.91465,263.77995 276.0966,272.86547 242.89833,308.1875 L 265.61708,308.1875 C 293.37052,283.09599 303.67261,274.24081 338.42566,255.92823 C 350.71955,248.83035 352.40523,239.86966 347.36316,225.92823 C 331.10198,180.73146 295.87208,83.322614 263.32723,16.5 z"
         style="fill: rgb(95, 150, 211); fill-opacity: 1;"
         id="path3272" />
    </g>
    <g
       id="g3181">
      <path
         id="path3214"
         style="fill: rgb(244, 238, 215); fill-rule: evenodd; stroke: none; stroke-width: 1px; stroke-linecap: butt; stroke-linejoin: miter; stroke-opacity: 1;"
         d="M 125.84082,116.04509 C 131.11769,182.071 144.61911,246.8316 179.01996,308.3769 L 199.35471,308.55962 L 261.32293,230.84125 L 193.90486,36.012472 L 137.36477,90.020911 L 125.84082,116.04509 z" />
      <path
         d="M 192.45223,17.125 C 172.56466,30.549352 157.22356,49.869448 139.92098,66.4375 C 139.92098,66.4375 147.01473,89.0625 147.01473,89.0625 C 160.5559,78.391834 172.3403,65.526043 184.51473,53.34375 L 250.17098,218.03125 C 253.95672,229.18194 247.99456,239.10365 236.01473,249.90625 C 221.66549,261.43896 192.12216,288.32681 178.73348,308.8125 L 199.10848,308.8125 C 220.49313,286.84657 224.35368,283.86504 248.70223,262.78125 C 265.04857,246.10281 279.81623,237.56053 272.10848,216.1875 L 192.45223,17.125 z"
         style="fill: rgb(42, 98, 161); fill-opacity: 1; fill-rule: evenodd; stroke: none; stroke-width: 22; stroke-linecap: round; stroke-linejoin: miter; stroke-miterlimit: 4; stroke-dasharray: none; stroke-opacity: 1;"
         id="path3138" />
    </g>
    <g
       id="g3185">
      <path
         id="path2238"
         style="fill: rgb(233, 221, 175); fill-rule: evenodd; stroke: none; stroke-width: 1px; stroke-linecap: butt; stroke-linejoin: miter; stroke-opacity: 1;"
         d="M 50.218883,114.63177 C 55.595535,183.91551 77.233973,245.97178 102.67801,306.33668 L 129.48015,306.00572 L 199.88087,225.96804 L 118.28293,34.599156 L 61.742841,88.607595 L 50.218883,114.63177 z" />
      <path
         d="M 125.32723,16.0625 C 120.02588,17.841698 115.61512,21.260515 111.48348,24.875 C 55.394922,78.847012 53.13973,81.125 53.13973,81.125 C 50.188265,83.867742 49.941746,87.87735 49.98348,91.90625 L 50.218884,114.63177 C 50.218884,114.63177 76.123108,89.450054 114.79598,52.21875 C 135.6144,106.45643 157.3415,160.40524 178.73348,214.4375 C 181.66298,222.60083 174.65125,229.2909 165.76473,238.21875 C 153.49118,250.19233 127.82007,274.84011 101.54598,307.75 L 127.88973,307.75 C 127.88973,307.75 191.20222,238.3125 191.20223,238.3125 C 197.22151,230.03457 204.70542,221.9413 201.54598,214.4375 C 201.54598,214.4375 125.32723,16.062501 125.32723,16.0625 z"
         style="fill: rgb(21, 48, 79); fill-opacity: 1; fill-rule: evenodd; stroke: none; stroke-width: 22; stroke-linecap: round; stroke-linejoin: miter; stroke-miterlimit: 4; stroke-dasharray: none; stroke-opacity: 1;"
         id="path3136" />
    </g>
  </g>
  <text
     xml:space="preserve"
     style="font-style: normal; font-variant: normal; font-weight: bold; font-stretch: normal; fill: rgb(0, 0, 0); fill-opacity: 1; stroke: none; stroke-width: 1px; stroke-linecap: butt; stroke-linejoin: miter; stroke-opacity: 1; font-family: DejaVu Sans;"
     x="15.261"
     y="175.904"
     id="text2416"><tspan
       sodipodi:role="line"
       id="tspan2418"
       x="15.261"
       y="175.90401" /></text>
  <g
     id="g2700"
     transform="translate(22.904373,0)">
    <path
       style="font-size:56px;font-style:normal;font-variant:normal;font-weight:bold;font-stretch:normal;fill:#0b2645;fill-opacity:1;stroke:none;stroke-width:1px;stroke-linecap:butt;stroke-linejoin:miter;stroke-opacity:1;font-family:DejaVu Sans"
       d="M 19.999969,317.17578 L 30.089813,317.17578 L 37.144501,346.84375 L 44.144501,317.17578 L 54.289032,317.17578 L 61.289032,346.84375 L 68.343719,317.17578 L 78.351532,317.17578 L 68.726532,358 L 56.585907,358 L 49.175751,326.96484 L 41.847626,358 L 29.707001,358 L 19.999969,317.17578 z M 85.269501,317.17578 L 95.796844,317.17578 L 95.796844,358 L 85.269501,358 L 85.269501,317.17578 z M 106.16013,317.17578 L 116.68747,317.17578 L 116.68747,332.07813 L 131.86325,317.17578 L 144.08591,317.17578 L 124.42575,336.50781 L 146.10934,358 L 132.92966,358 L 116.68747,341.92188 L 116.68747,358 L 106.16013,358 L 106.16013,317.17578 z M 149.582,317.17578 L 160.10934,317.17578 L 160.10934,358 L 149.582,358 L 149.582,317.17578 z "
       id="text2420" />
    <path
       style="font-size:56px;font-style:normal;font-variant:normal;font-weight:bold;font-stretch:normal;fill:#0a4e98;fill-opacity:1;stroke:none;stroke-width:1px;stroke-linecap:butt;stroke-linejoin:miter;stroke-opacity:1;font-family:DejaVu Sans"
       d="M 183.77332,333.21341 C 185.43215,333.21343 186.68996,332.84885 187.54675,332.11966 C 188.4035,331.39052 188.83188,330.315 188.83191,328.8931 C 188.83188,327.48948 188.4035,326.41852 187.54675,325.68021 C 186.68996,324.94196 185.43215,324.57282 183.77332,324.57278 L 177.9491,324.57278 L 177.9491,333.21341 L 183.77332,333.21341 z M 184.12878,351.06888 C 186.24334,351.06889 187.83384,350.62227 188.90027,349.72903 C 189.96665,348.83581 190.49985,347.48686 190.49988,345.68216 C 190.49985,343.91394 189.9712,342.58777 188.91394,341.70364 C 187.85662,340.81955 186.26157,340.37749 184.12878,340.37747 L 177.9491,340.37747 L 177.9491,351.06888 L 184.12878,351.06888 z M 193.91785,336.38528 C 196.17823,337.04156 197.92823,338.25379 199.16785,340.022 C 200.40739,341.79025 201.02718,343.95952 201.02722,346.52982 C 201.02718,350.46732 199.69646,353.40222 197.03503,355.3345 C 194.37354,357.2668 190.32667,358.23294 184.89441,358.23294 L 167.42175,358.23294 L 167.42175,317.40872 L 183.22644,317.40872 C 188.89568,317.40876 193.0018,318.26553 195.5448,319.97903 C 198.08773,321.69261 199.35922,324.4361 199.35925,328.2095 C 199.35922,330.19651 198.89437,331.88726 197.96472,333.28177 C 197.035,334.67632 195.68604,335.71083 193.91785,336.38528 L 193.91785,336.38528 z M 210.078,317.40872 L 220.60535,317.40872 L 220.60535,341.88138 C 220.60533,345.25379 221.15676,347.66459 222.25964,349.1138 C 223.36249,350.56303 225.16262,351.28764 227.66003,351.28763 C 230.17563,351.28764 231.98488,350.56303 233.08777,349.1138 C 234.1906,347.66459 234.74204,345.25379 234.74207,341.88138 L 234.74207,317.40872 L 245.26941,317.40872 L 245.26941,341.88138 C 245.26937,347.66003 243.82015,351.96211 240.92175,354.78763 C 238.02328,357.61315 233.60271,359.02591 227.66003,359.02591 C 221.73554,359.02591 217.32408,357.61315 214.42566,354.78763 C 211.52722,351.96211 210.078,347.66003 210.078,341.88138 L 210.078,317.40872 z M 255.578,317.40872 L 266.10535,317.40872 L 266.10535,332.31107 L 281.28113,317.40872 L 293.50378,317.40872 L 273.84363,336.74075 L 295.52722,358.23294 L 282.34753,358.23294 L 266.10535,342.15482 L 266.10535,358.23294 L 255.578,358.23294 L 255.578,317.40872 z M 298.99988,317.40872 L 309.52722,317.40872 L 309.52722,341.88138 C 309.52721,345.25379 310.07864,347.66459 311.18152,349.1138 C 312.28436,350.56303 314.08449,351.28764 316.58191,351.28763 C 319.09751,351.28764 320.90675,350.56303 322.00964,349.1138 C 323.11248,347.66459 323.66391,345.25379 323.66394,341.88138 L 323.66394,317.40872 L 334.19128,317.40872 L 334.19128,341.88138 C 334.19124,347.66003 332.74203,351.96211 329.84363,354.78763 C 326.94516,357.61315 322.52459,359.02591 316.58191,359.02591 C 310.65741,359.02591 306.24596,357.61315 303.34753,354.78763 C 300.44909,351.96211 298.99987,347.66003 298.99988,341.88138 L 298.99988,317.40872 z "
       id="text2410" />
  </g>
  <path
     style="font-size:30.65307236px;font-style:italic;font-variant:normal;font-weight:normal;font-stretch:normal;text-align:center;line-height:150%;writing-mode:lr-tb;text-anchor:middle;fill:#000000;fill-opacity:1;stroke:none;stroke-width:1px;stroke-linecap:butt;stroke-linejoin:miter;stroke-opacity:1;font-family:Charis SIL"
     d="M 21.611993,374.52101 C 21.611976,375.30931 21.47727,376.00778 21.207876,376.61644 C 20.938447,377.22512 20.571748,377.75646 20.107778,378.21046 C 19.643775,378.66448 19.099963,379.05612 18.47634,379.38539 C 17.852687,379.71468 17.191631,379.99407 16.49317,380.22356 C 17.161697,380.31338 17.770367,380.45058 18.319183,380.63516 C 18.86797,380.81977 19.341934,381.07172 19.741078,381.39101 C 20.140191,381.71032 20.449515,382.10696 20.669052,382.58091 C 20.888556,383.05489 20.998316,383.62614 20.998333,384.29467 C 20.998316,385.55193 20.768817,386.61711 20.309836,387.4902 C 19.850823,388.36329 19.214712,389.07174 18.401503,389.61556 C 17.588265,390.15937 16.630357,390.55351 15.527777,390.79797 C 14.425174,391.04244 13.230285,391.16467 11.943104,391.16467 L 3.5464374,391.16467 L 3.5464374,389.87748 L 5.4772218,389.72781 C 5.6668062,389.70786 5.8040065,389.65048 5.8888231,389.55569 C 5.9736359,389.46089 6.0310106,389.32369 6.0609473,389.14408 L 9.2489865,372.6501 C 9.2789159,372.48049 9.2539704,372.34079 9.1741499,372.23101 C 9.0943191,372.12127 8.9147115,372.05641 8.6353264,372.03644 L 6.9290518,371.88676 L 6.9290518,370.59957 L 15.535261,370.59957 C 16.64283,370.5996 17.583276,370.69189 18.356601,370.87647 C 19.129897,371.06109 19.758524,371.32551 20.242483,371.66974 C 20.72641,372.01401 21.075647,372.4281 21.290196,372.91203 C 21.50471,373.39599 21.611976,373.93232 21.611993,374.52101 L 21.611993,374.52101 z M 17.645653,384.60899 C 17.64564,383.98037 17.535879,383.44903 17.316372,383.01497 C 17.096838,382.58092 16.78502,382.22919 16.380915,381.95977 C 15.976785,381.69037 15.485359,381.49579 14.906634,381.37605 C 14.327887,381.25632 13.679304,381.19645 12.960882,381.19644 C 12.581701,381.19645 12.187562,381.21141 11.778464,381.24134 C 11.36935,381.27128 10.995167,381.3112 10.655915,381.36108 L 9.039444,389.69788 C 9.1591774,389.70786 9.3013669,389.71783 9.4660127,389.72781 C 9.6306476,389.73779 9.800277,389.74777 9.9749016,389.75774 C 10.149514,389.76772 10.321638,389.77521 10.491274,389.7802 C 10.660897,389.78519 10.81057,389.78768 10.940294,389.78768 C 13.135492,389.78768 14.801852,389.33118 15.939379,388.41817 C 17.076882,387.50517 17.64564,386.23544 17.645653,384.60899 L 17.645653,384.60899 z M 18.199444,374.73055 C 18.19943,373.76269 17.832731,373.05174 17.099346,372.59771 C 16.365935,372.14372 15.345664,371.91672 14.038529,371.9167 C 13.719217,371.91672 13.41987,371.9267 13.14049,371.94663 C 12.861091,371.96661 12.636581,371.98657 12.46696,372.0065 L 10.970228,379.78951 C 11.08996,379.7995 11.214687,379.80948 11.344411,379.81944 L 11.748529,379.83441 C 11.888216,379.83442 12.015438,379.83692 12.130196,379.84189 C 12.244937,379.8469 12.337235,379.84939 12.407091,379.84938 C 13.36499,379.84939 14.205654,379.71219 14.929085,379.43778 C 15.652493,379.16339 16.256175,378.79419 16.74013,378.3302 C 17.224061,377.86622 17.588265,377.32241 17.832745,376.69876 C 18.077197,376.07513 18.19943,375.41907 18.199444,374.73055 L 18.199444,374.73055 z M 38.689706,390.43127 C 38.500104,390.54104 38.238176,390.66077 37.903922,390.79049 C 37.569636,390.92021 37.207927,391.03995 36.818791,391.14971 C 36.429627,391.25947 36.032993,391.35176 35.628889,391.4266 C 35.224759,391.50144 34.85806,391.53886 34.528791,391.53886 C 33.950043,391.53886 33.52098,391.44157 33.241601,391.24699 C 32.962201,391.05242 32.77012,390.82791 32.665359,390.57346 C 32.560578,390.31902 32.513182,390.06208 32.52317,389.80265 C 32.533138,389.54321 32.538127,389.35363 32.538137,389.23389 C 31.729893,390.00221 30.88424,390.57845 30.001176,390.96261 C 29.118098,391.34678 28.162685,391.53886 27.134934,391.53886 C 26.426477,391.53886 25.847742,391.41413 25.398725,391.16467 C 24.949703,390.91522 24.610444,390.6009 24.380947,390.22173 C 24.151447,389.84256 24.011752,389.42847 23.961862,388.97944 C 23.91197,388.53043 23.926937,388.10635 24.006764,387.70722 L 25.997418,378.1431 L 23.423039,377.85872 L 23.423039,376.97565 L 28.047941,376.01774 L 29.305196,376.01774 L 26.865523,387.70722 C 26.805649,387.96666 26.818122,388.21362 26.902941,388.4481 C 26.987751,388.68259 27.112479,388.88715 27.277124,389.06176 C 27.44176,389.23638 27.628851,389.37608 27.838398,389.48085 C 28.047936,389.58562 28.252489,389.63801 28.452059,389.63801 C 28.821246,389.63801 29.192934,389.58562 29.567124,389.48085 C 29.9413,389.37608 30.312988,389.23389 30.682189,389.05428 C 31.051375,388.87468 31.405601,388.66763 31.744869,388.43314 C 32.084119,388.19865 32.398432,387.9467 32.68781,387.67729 L 35.007745,376.39193 L 37.866503,376.39193 L 35.411863,388.18618 C 35.342002,388.50548 35.342002,388.7724 35.411863,388.98693 C 35.481697,389.20146 35.588963,389.37857 35.73366,389.51827 C 35.878331,389.65796 36.042971,389.75775 36.227582,389.81761 C 36.412165,389.87748 36.589278,389.90742 36.758922,389.90742 C 36.958471,389.90742 37.222894,389.87748 37.552189,389.81761 C 37.881455,389.75775 38.260627,389.60308 38.689706,389.35363 L 38.689706,390.43127 z M 54.031207,390.46121 C 53.771758,390.59093 53.474907,390.72064 53.140651,390.85036 C 52.806367,390.98008 52.464613,391.09483 52.11539,391.19461 C 51.766139,391.29439 51.424386,391.37671 51.090128,391.44157 C 50.755846,391.50643 50.468973,391.53886 50.229507,391.53886 C 49.980041,391.53886 49.735575,391.49645 49.496108,391.41163 C 49.256621,391.32682 49.029617,391.21706 48.815095,391.08235 C 48.600554,390.94765 48.403484,390.79298 48.223886,390.61837 C 48.044269,390.44375 47.894596,390.26663 47.774867,390.08703 C 47.635163,389.87748 47.478006,389.60558 47.303396,389.27131 C 47.128769,388.93704 46.944172,388.57034 46.749605,388.17121 C 46.555022,387.77208 46.357953,387.35549 46.158396,386.92144 C 45.958825,386.48739 45.766744,386.06831 45.582154,385.66418 C 45.397551,385.26007 45.227921,384.88339 45.073265,384.53415 C 44.918597,384.18492 44.786386,383.90054 44.676631,383.68101 L 43.269703,384.93827 L 42.012448,391.16467 L 39.198592,391.16467 L 43.269703,370.68938 L 40.575585,370.41997 L 40.575585,369.49199 L 45.320226,368.57899 L 46.547546,368.57899 L 43.703755,382.82788 L 48.657939,377.70905 C 48.947297,377.40972 49.211719,377.15278 49.451207,376.93823 C 49.690673,376.72372 49.922666,376.5491 50.147187,376.41438 C 50.371685,376.27969 50.598689,376.17991 50.8282,376.11503 C 51.057687,376.05019 51.307142,376.01776 51.576566,376.01774 C 51.915812,376.01776 52.212664,376.06765 52.467122,376.16742 C 52.721552,376.26721 52.931094,376.39693 53.095749,376.55657 C 53.260375,376.71623 53.382608,376.89584 53.462448,377.09539 C 53.542259,377.29497 53.577183,377.48954 53.56722,377.67912 C 53.567205,378.02837 53.405059,378.39008 53.080782,378.76425 C 52.756476,379.13844 52.235115,379.45026 51.516697,379.69971 L 50.468984,378.59212 C 50.189583,378.81166 49.887742,379.05612 49.563461,379.32552 C 49.239159,379.59495 48.912373,379.86935 48.583102,380.14872 C 48.253811,380.42813 47.939498,380.70253 47.640161,380.97193 C 47.340806,381.24135 47.071394,381.48083 46.831925,381.69036 C 46.961634,381.9498 47.103823,382.27409 47.258494,382.66323 C 47.413148,383.05239 47.577788,383.46898 47.752416,383.91301 C 47.927025,384.35704 48.116611,384.81105 48.321174,385.27503 C 48.525717,385.73902 48.742743,386.18056 48.972252,386.59964 C 49.201741,387.02871 49.443712,387.44031 49.698167,387.83444 C 49.952601,388.22859 50.214528,388.57782 50.483952,388.88216 C 50.753351,389.18649 51.027752,389.42847 51.307154,389.60807 C 51.586531,389.78768 51.860932,389.87748 52.130357,389.87748 C 52.240104,389.87748 52.37481,389.86501 52.534475,389.84006 C 52.694112,389.81512 52.863742,389.78269 53.043363,389.74278 C 53.222957,389.70287 53.40007,389.65297 53.574703,389.5931 C 53.749307,389.53324 53.901475,389.47337 54.031207,389.4135 L 54.031207,390.46121 z M 70.480294,390.43127 C 70.290692,390.54104 70.028764,390.66077 69.69451,390.79049 C 69.360225,390.92021 68.998515,391.03995 68.609379,391.14971 C 68.220215,391.25947 67.823581,391.35176 67.419477,391.4266 C 67.015347,391.50144 66.648648,391.53886 66.319379,391.53886 C 65.740631,391.53886 65.311569,391.44157 65.03219,391.24699 C 64.752789,391.05242 64.560709,390.82791 64.455948,390.57346 C 64.351167,390.31902 64.30377,390.06208 64.313758,389.80265 C 64.323726,389.54321 64.328716,389.35363 64.328726,389.23389 C 63.520481,390.00221 62.674828,390.57845 61.791765,390.96261 C 60.908686,391.34678 59.953273,391.53886 58.925523,391.53886 C 58.217066,391.53886 57.63833,391.41413 57.189314,391.16467 C 56.740292,390.91522 56.401033,390.6009 56.171536,390.22173 C 55.942035,389.84256 55.802341,389.42847 55.752451,388.97944 C 55.702559,388.53043 55.717526,388.10635 55.797353,387.70722 L 57.788006,378.1431 L 55.213627,377.85872 L 55.213627,376.97565 L 59.838529,376.01774 L 61.095784,376.01774 L 58.656111,387.70722 C 58.596238,387.96666 58.60871,388.21362 58.693529,388.4481 C 58.77834,388.68259 58.903067,388.88715 59.067712,389.06176 C 59.232348,389.23638 59.419439,389.37608 59.628987,389.48085 C 59.838524,389.58562 60.043077,389.63801 60.242647,389.63801 C 60.611835,389.63801 60.983523,389.58562 61.357712,389.48085 C 61.731888,389.37608 62.103576,389.23389 62.472778,389.05428 C 62.841963,388.87468 63.196189,388.66763 63.535458,388.43314 C 63.874707,388.19865 64.189021,387.9467 64.478399,387.67729 L 66.798333,376.39193 L 69.657092,376.39193 L 67.202451,388.18618 C 67.132591,388.50548 67.132591,388.7724 67.202451,388.98693 C 67.272286,389.20146 67.379551,389.37857 67.524248,389.51827 C 67.668919,389.65796 67.83356,389.75775 68.01817,389.81761 C 68.202753,389.87748 68.379866,389.90742 68.54951,389.90742 C 68.74906,389.90742 69.013482,389.87748 69.342778,389.81761 C 69.672044,389.75775 70.051215,389.60308 70.480294,389.35363 L 70.480294,390.43127 z M 90.626305,381.78016 C 90.626294,381.09168 90.546468,380.51045 90.386828,380.03647 C 90.227166,379.56252 90.032591,379.17586 89.803102,378.8765 C 89.573593,378.57717 89.331622,378.36264 89.077187,378.23291 C 88.822734,378.1032 88.605708,378.03835 88.426109,378.03833 C 88.176645,378.03835 87.902244,378.07826 87.602906,378.15807 C 87.303552,378.23791 86.996722,378.35016 86.682416,378.49484 C 86.368096,378.63953 86.056277,378.80667 85.746959,378.99624 C 85.437628,379.18584 85.153249,379.39039 84.893821,379.6099 L 83.187547,388.88964 C 83.287325,389.03932 83.422031,389.184 83.591664,389.32369 C 83.76129,389.46339 83.955865,389.59061 84.17539,389.70536 C 84.394906,389.82011 84.634383,389.91241 84.893821,389.98225 C 85.153249,390.0521 85.422661,390.08703 85.702057,390.08703 C 86.171026,390.08703 86.617551,389.96729 87.041632,389.72781 C 87.465698,389.48833 87.859837,389.16404 88.22405,388.75493 C 88.588246,388.34583 88.920021,387.86688 89.219377,387.31807 C 89.518713,386.76927 89.770663,386.18804 89.975227,385.57438 C 90.179769,384.96072 90.339421,384.32711 90.454181,383.67353 C 90.568919,383.01996 90.626294,382.38884 90.626305,381.78016 L 90.626305,381.78016 z M 93.664671,381.66042 C 93.664657,382.29904 93.59481,382.98504 93.455129,383.71843 C 93.31542,384.45184 93.098394,385.18274 92.80405,385.91114 C 92.50968,386.63956 92.133003,387.34302 91.674017,388.02154 C 91.215008,388.70006 90.666207,389.29875 90.027612,389.81761 C 89.388997,390.33648 88.655599,390.75307 87.827416,391.06739 C 86.999217,391.3817 86.066255,391.53886 85.028527,391.53886 C 84.160418,391.53886 83.304787,391.41912 82.461632,391.17964 C 81.618471,390.94016 80.837676,390.58594 80.119246,390.11696 L 83.741338,370.68938 L 81.002318,370.41997 L 81.002318,369.49199 L 85.79186,368.57899 L 86.989246,368.57899 L 85.23807,377.85872 C 85.517454,377.60928 85.824283,377.3723 86.15856,377.14778 C 86.492823,376.92328 86.839566,376.72871 87.198789,376.56405 C 87.557996,376.39943 87.92719,376.26721 88.30637,376.16742 C 88.685533,376.06765 89.059716,376.01776 89.428919,376.01774 C 90.217188,376.01776 90.880738,376.19238 91.419573,376.5416 C 91.958384,376.89085 92.394931,377.33987 92.729214,377.88866 C 93.06347,378.43747 93.302947,379.04365 93.447645,379.70719 C 93.592315,380.37075 93.664657,381.02183 93.664671,381.66042 L 93.664671,381.66042 z M 104.77042,379.08605 C 104.77041,378.88649 104.7305,378.68942 104.65068,378.49484 C 104.57085,378.30027 104.46109,378.12815 104.3214,377.97846 C 104.1817,377.8288 104.00708,377.70657 103.79755,377.61176 C 103.58799,377.51698 103.3585,377.46959 103.10905,377.46957 C 102.76978,377.46959 102.44549,377.55939 102.13617,377.73899 C 101.82684,377.91861 101.52999,378.15808 101.24562,378.45742 C 100.96123,378.75678 100.69681,379.10102 100.45235,379.49016 C 100.20788,379.87932 99.988357,380.28843 99.793787,380.71748 C 99.599207,381.14656 99.427083,381.58061 99.277415,382.01964 C 99.127737,382.45869 99.007999,382.87279 98.918199,383.26193 C 99.566778,383.20207 100.23781,383.05239 100.9313,382.81291 C 101.62478,382.57344 102.2559,382.26661 102.82467,381.89242 C 103.39342,381.51824 103.8599,381.09168 104.22411,380.61271 C 104.58831,380.13377 104.77041,379.62488 104.77042,379.08605 L 104.77042,379.08605 z M 107.49447,379.11598 C 107.49446,379.67477 107.36474,380.18865 107.10532,380.65761 C 106.84588,381.1266 106.49415,381.55067 106.05013,381.92984 C 105.60609,382.30902 105.09221,382.64578 104.50849,382.94013 C 103.92476,383.2345 103.3111,383.48395 102.66751,383.6885 C 102.02391,383.89306 101.36784,384.0577 100.69931,384.18242 C 100.03076,384.30715 99.39216,384.38448 98.783493,384.41441 C 98.753555,384.61398 98.726114,384.85346 98.701173,385.13284 C 98.676223,385.41224 98.663751,385.64673 98.663755,385.83631 C 98.663751,386.39509 98.731104,386.90897 98.865813,387.37794 C 99.000515,387.84692 99.19509,388.25353 99.449539,388.59778 C 99.703978,388.94203 100.01081,389.21144 100.37003,389.40601 C 100.72924,389.60059 101.13336,389.69788 101.58238,389.69788 C 102.27087,389.69788 103.02921,389.44842 103.85741,388.94951 C 104.6856,388.4506 105.66346,387.70723 106.79101,386.71938 L 106.79101,388.65016 C 106.50163,388.92956 106.1474,389.23638 105.72833,389.57065 C 105.30923,389.90492 104.83278,390.21924 104.29895,390.51359 C 103.76511,390.80795 103.18388,391.05242 102.55526,391.24699 C 101.92662,391.44157 101.26307,391.53886 100.5646,391.53886 C 100.25527,391.53886 99.91851,391.50892 99.55431,391.44905 C 99.190101,391.38918 98.828391,391.28192 98.469179,391.12725 C 98.10996,390.97259 97.763218,390.76056 97.428951,390.49114 C 97.094678,390.22173 96.800321,389.87998 96.545879,389.46588 C 96.291433,389.05179 96.08688,388.55787 95.932219,387.98412 C 95.777555,387.41037 95.700224,386.73435 95.700225,385.95605 C 95.700224,385.14782 95.797512,384.34208 95.992088,383.53882 C 96.186662,382.73559 96.461062,381.96726 96.815291,381.23386 C 97.169515,380.50047 97.596083,379.81696 98.094996,379.18333 C 98.593903,378.54973 99.142704,378.00093 99.741402,377.53693 C 100.34009,377.07295 100.98119,376.70875 101.6647,376.44431 C 102.3482,376.17991 103.05416,376.04769 103.78258,376.04768 C 104.49102,376.04769 105.08223,376.16494 105.55621,376.39941 C 106.03016,376.63391 106.41183,376.9158 106.70121,377.24506 C 106.99056,377.57436 107.19511,377.91362 107.31487,378.26284 C 107.43459,378.61209 107.49446,378.89647 107.49447,379.11598 L 107.49447,379.11598 z M 119.12408,381.78016 C 119.12407,381.09168 119.04425,380.51045 118.88461,380.03647 C 118.72495,379.56252 118.53037,379.17586 118.30088,378.8765 C 118.07137,378.57717 117.8294,378.36264 117.57497,378.23291 C 117.32051,378.1032 117.10349,378.03835 116.92389,378.03833 C 116.67442,378.03835 116.40002,378.07826 116.10069,378.15807 C 115.80133,378.23791 115.4945,378.35016 115.1802,378.49484 C 114.86588,378.63953 114.55406,378.80667 114.24474,378.99624 C 113.93541,379.18584 113.65103,379.39039 113.3916,379.6099 L 111.68533,388.88964 C 111.7851,389.03932 111.91981,389.184 112.08944,389.32369 C 112.25907,389.46339 112.45364,389.59061 112.67317,389.70536 C 112.89269,389.82011 113.13216,389.91241 113.3916,389.98225 C 113.65103,390.0521 113.92044,390.08703 114.19984,390.08703 C 114.66881,390.08703 115.11533,389.96729 115.53941,389.72781 C 115.96348,389.48833 116.35762,389.16404 116.72183,388.75493 C 117.08603,388.34583 117.4178,387.86688 117.71716,387.31807 C 118.01649,386.76927 118.26844,386.18804 118.47301,385.57438 C 118.67755,384.96072 118.8372,384.32711 118.95196,383.67353 C 119.0667,383.01996 119.12407,382.38884 119.12408,381.78016 L 119.12408,381.78016 z M 122.16245,381.66042 C 122.16244,382.29904 122.09259,382.98504 121.95291,383.71843 C 121.8132,384.45184 121.59617,385.18274 121.30183,385.91114 C 121.00746,386.63956 120.63078,387.34302 120.1718,388.02154 C 119.71279,388.70006 119.16399,389.29875 118.52539,389.81761 C 117.88678,390.33648 117.15338,390.75307 116.3252,391.06739 C 115.497,391.3817 114.56403,391.53886 113.52631,391.53886 C 112.6582,391.53886 111.80257,391.41912 110.95941,391.17964 C 110.11625,390.94016 109.33546,390.58594 108.61703,390.11696 L 112.23912,370.68938 L 109.5001,370.41997 L 109.5001,369.49199 L 114.28964,368.57899 L 115.48703,368.57899 L 113.73585,377.85872 C 114.01523,377.60928 114.32206,377.3723 114.65634,377.14778 C 114.9906,376.92328 115.33735,376.72871 115.69657,376.56405 C 116.05578,376.39943 116.42497,376.26721 116.80415,376.16742 C 117.18331,376.06765 117.5575,376.01776 117.9267,376.01774 C 118.71497,376.01776 119.37852,376.19238 119.91735,376.5416 C 120.45616,376.89085 120.89271,377.33987 121.22699,377.88866 C 121.56125,378.43747 121.80073,379.04365 121.94542,379.70719 C 122.09009,380.37075 122.16244,381.02183 122.16245,381.66042 L 122.16245,381.66042 z M 134.58533,379.14591 C 134.59529,379.09604 134.55787,378.98129 134.47307,378.80167 C 134.38824,378.62207 134.28597,378.43498 134.16624,378.24039 C 134.04649,378.04583 133.91927,377.87371 133.78457,377.72402 C 133.64986,377.57436 133.5376,377.49952 133.44781,377.49951 C 132.6695,377.49952 131.97352,377.62675 131.35987,377.88118 C 130.7462,378.13563 130.20987,378.47988 129.75088,378.91392 C 129.29188,379.34799 128.90023,379.84939 128.57595,380.41814 C 128.25165,380.98691 127.98972,381.58061 127.79016,382.19925 C 127.59059,382.81791 127.44591,383.44154 127.35611,384.07016 C 127.2663,384.6988 127.2214,385.29749 127.2214,385.86624 C 127.2214,386.29531 127.25632,386.72437 127.32618,387.15343 C 127.39602,387.5825 127.51825,387.97165 127.69287,388.32088 C 127.86749,388.67012 128.10697,388.9545 128.41131,389.17402 C 128.71564,389.39354 129.10728,389.5033 129.58624,389.5033 C 129.94545,389.5033 130.30466,389.42348 130.66389,389.26382 C 131.0231,389.10417 131.35737,388.91958 131.6667,388.71003 C 131.97601,388.50049 132.24543,388.29095 132.47493,388.0814 C 132.70442,387.87187 132.87405,387.71221 132.98382,387.60245 L 134.58533,379.14591 z M 139.09049,390.34147 C 138.97073,390.39136 138.75121,390.48366 138.43193,390.61837 C 138.11261,390.75307 137.75589,390.88778 137.36176,391.02248 C 136.96761,391.15719 136.56848,391.27693 136.16438,391.3817 C 135.76025,391.48647 135.40852,391.53886 135.10918,391.53886 C 134.73998,391.53886 134.42816,391.49395 134.17372,391.40415 C 133.91927,391.31435 133.70973,391.17964 133.5451,391.00003 C 133.38045,390.82042 133.25322,390.6009 133.16343,390.34147 C 133.07362,390.08204 133.01375,389.78269 132.98382,389.44343 C 132.75431,389.66295 132.4849,389.89495 132.17559,390.13941 C 131.86625,390.38388 131.5245,390.61088 131.15033,390.82042 C 130.77613,391.02997 130.37701,391.20209 129.95294,391.3368 C 129.52886,391.4715 129.08732,391.53886 128.62833,391.53886 C 128.02963,391.53886 127.50328,391.45404 127.04928,391.28441 C 126.59527,391.11478 126.20362,390.88778 125.87434,390.6034 C 125.54506,390.31902 125.27316,389.98974 125.05863,389.61556 C 124.84409,389.24137 124.67197,388.85222 124.54225,388.4481 C 124.41254,388.04399 124.32273,387.63488 124.27284,387.22078 C 124.22295,386.80669 124.198,386.41505 124.19801,386.04585 C 124.198,385.25758 124.28282,384.46181 124.45245,383.65856 C 124.62208,382.85532 124.87403,382.08201 125.2083,381.33863 C 125.54257,380.59526 125.95916,379.89928 126.45807,379.25069 C 126.95698,378.60211 127.53322,378.03835 128.1868,377.55938 C 128.84036,377.08044 129.56877,376.70376 130.37202,376.42935 C 131.17526,376.15496 132.05584,376.01776 133.01376,376.01774 C 133.29314,376.01776 133.57003,376.05019 133.84444,376.11503 C 134.11883,376.17991 134.37577,376.26472 134.61526,376.36948 C 134.85473,376.47426 135.07425,376.59151 135.27382,376.72121 C 135.47337,376.85094 135.643,376.98565 135.78271,377.12533 L 136.23173,376.39193 L 138.32716,376.39193 C 138.27725,376.51168 138.22237,376.65387 138.16252,376.8185 C 138.10263,376.98315 138.04276,377.15029 137.98291,377.3199 C 137.92302,377.48954 137.87064,377.6492 137.82575,377.79886 C 137.78083,377.94854 137.75339,378.06329 137.74343,378.1431 C 137.67357,378.41253 137.57379,378.81914 137.44408,379.36294 C 137.31435,379.90676 137.17715,380.51793 137.03248,381.19644 C 136.88778,381.87497 136.73811,382.58591 136.58346,383.32928 C 136.42879,384.07266 136.29159,384.77613 136.17186,385.43967 C 136.05211,386.10323 135.95233,386.69194 135.87252,387.20582 C 135.79268,387.7197 135.75276,388.09139 135.75278,388.32088 C 135.75276,388.85971 135.86751,389.2289 136.09702,389.42846 C 136.32651,389.62803 136.6508,389.72781 137.0699,389.72781 C 137.16967,389.72781 137.31685,389.70536 137.51144,389.66046 C 137.706,389.61556 137.90806,389.56317 138.11761,389.5033 C 138.32714,389.44343 138.52172,389.38855 138.70134,389.33866 C 138.88093,389.28877 139.01065,389.25385 139.09049,389.23389 L 139.09049,390.34147 z M 149.8969,377.94853 C 149.89689,378.30776 149.81707,378.59463 149.65743,378.80915 C 149.49776,379.02369 149.30319,379.19083 149.0737,379.31056 C 148.84419,379.43031 148.60222,379.51263 148.34779,379.55752 C 148.09333,379.60243 147.87132,379.62987 147.68174,379.63984 L 146.30475,377.76892 C 146.24487,377.71904 146.15008,377.66666 146.02037,377.61176 C 145.89064,377.5569 145.73099,377.52946 145.54141,377.52944 C 145.20215,377.52946 144.91777,377.6018 144.68828,377.74647 C 144.45877,377.89117 144.27168,378.07078 144.127,378.28529 C 143.98231,378.49984 143.88004,378.72934 143.82017,378.97379 C 143.7603,379.21827 143.73036,379.44028 143.73037,379.63984 C 143.73036,379.91924 143.81019,380.20112 143.96984,380.48549 C 144.12949,380.76988 144.33903,381.05426 144.59847,381.33863 C 144.8579,381.62302 145.14976,381.90241 145.47406,382.1768 C 145.79835,382.45121 146.12513,382.71812 146.45442,382.97755 C 146.79367,383.24697 147.12046,383.52386 147.43478,383.80823 C 147.74908,384.09262 148.03097,384.38698 148.28043,384.69131 C 148.52988,384.99565 148.72944,385.31745 148.87913,385.6567 C 149.02879,385.99596 149.10363,386.35019 149.10364,386.71938 C 149.10363,387.34801 148.9764,387.95169 148.72197,388.53042 C 148.46752,389.10916 148.09333,389.62304 147.59942,390.07206 C 147.10549,390.52108 146.49183,390.8778 145.75844,391.14222 C 145.02503,391.40664 144.18437,391.53886 143.23645,391.53886 C 142.49805,391.53886 141.85945,391.45654 141.32063,391.2919 C 140.7818,391.12725 140.33777,390.91272 139.98854,390.6483 C 139.6393,390.38388 139.37987,390.08204 139.21024,389.74278 C 139.04061,389.40352 138.95579,389.05927 138.95579,388.71003 C 138.95579,388.2211 139.10297,387.82447 139.39733,387.52013 C 139.69168,387.2158 140.15318,387.06363 140.78181,387.06363 C 140.97139,387.06363 141.151,387.08858 141.32063,387.13846 C 141.49026,387.18836 141.64492,387.24573 141.78462,387.31059 C 141.92431,387.37545 142.04654,387.4453 142.15132,387.52013 C 142.25608,387.59497 142.33341,387.65733 142.38331,387.70722 L 141.79958,389.20395 C 142.0191,389.51328 142.29101,389.77521 142.6153,389.98974 C 142.93959,390.20427 143.36117,390.31154 143.88004,390.31154 C 144.18936,390.31154 144.48871,390.25167 144.77808,390.13193 C 145.06744,390.01219 145.32438,389.84256 145.5489,389.62304 C 145.7734,389.40352 145.95051,389.1366 146.08024,388.82229 C 146.20995,388.50798 146.2748,388.15624 146.27481,387.76709 C 146.2748,387.45777 146.21244,387.16591 146.08772,386.8915 C 145.96299,386.61711 145.78837,386.35019 145.56386,386.09075 C 145.33935,385.83132 145.07493,385.57438 144.7706,385.31993 C 144.46626,385.0655 144.12949,384.79858 143.7603,384.51918 C 143.44099,384.26973 143.13417,384.00032 142.83981,383.71095 C 142.54545,383.42159 142.28103,383.11476 142.04654,382.79046 C 141.81205,382.46617 141.62496,382.12442 141.48527,381.7652 C 141.34557,381.40599 141.27572,381.0368 141.27573,380.65761 C 141.27572,379.90926 141.44535,379.24571 141.78462,378.66696 C 142.12387,378.08824 142.56042,377.6018 143.09426,377.20765 C 143.62809,376.81352 144.22179,376.51667 144.87537,376.31709 C 145.52893,376.11754 146.17003,376.01776 146.79867,376.01774 C 147.3774,376.01776 147.86383,376.08511 148.25798,376.2198 C 148.65211,376.35452 148.97141,376.51916 149.21589,376.71372 C 149.46035,376.90831 149.63496,377.11786 149.73975,377.34235 C 149.84451,377.56688 149.89689,377.76893 149.8969,377.94853 L 149.8969,377.94853 z M 175.55089,390.43127 C 175.36129,390.54104 175.09936,390.66077 174.7651,390.79049 C 174.43082,390.92021 174.06911,391.03995 173.67997,391.14971 C 173.29081,391.25947 172.89418,391.35176 172.49007,391.4266 C 172.08594,391.50144 171.71924,391.53886 171.38997,391.53886 C 170.81123,391.53886 170.38216,391.44157 170.10278,391.24699 C 169.82338,391.05242 169.6313,390.82791 169.52654,390.57346 C 169.42176,390.31902 169.37436,390.06208 169.38435,389.80265 C 169.39432,389.54321 169.39931,389.35363 169.39932,389.23389 C 168.59108,390.00221 167.74542,390.57845 166.86236,390.96261 C 165.97928,391.34678 165.02387,391.53886 163.99612,391.53886 C 163.28766,391.53886 162.70892,391.41413 162.25991,391.16467 C 161.81089,390.91522 161.47163,390.6009 161.24213,390.22173 C 161.01263,389.84256 160.87294,389.42847 160.82305,388.97944 C 160.77315,388.53043 160.78812,388.10635 160.86795,387.70722 L 162.8586,378.1431 L 160.28422,377.85872 L 160.28422,376.97565 L 164.90912,376.01774 L 166.16638,376.01774 L 163.72671,387.70722 C 163.66683,387.96666 163.67931,388.21362 163.76412,388.4481 C 163.84893,388.68259 163.97366,388.88715 164.13831,389.06176 C 164.30294,389.23638 164.49003,389.37608 164.69958,389.48085 C 164.90912,389.58562 165.11367,389.63801 165.31324,389.63801 C 165.68243,389.63801 166.05412,389.58562 166.42831,389.48085 C 166.80248,389.37608 167.17417,389.23389 167.54337,389.05428 C 167.91256,388.87468 168.26678,388.66763 168.60605,388.43314 C 168.9453,388.19865 169.25962,387.9467 169.54899,387.67729 L 171.86893,376.39193 L 174.72769,376.39193 L 172.27305,388.18618 C 172.20319,388.50548 172.20319,388.7724 172.27305,388.98693 C 172.34288,389.20146 172.45015,389.37857 172.59484,389.51827 C 172.73951,389.65796 172.90415,389.75775 173.08876,389.81761 C 173.27335,389.87748 173.45046,389.90742 173.6201,389.90742 C 173.81965,389.90742 174.08408,389.87748 174.41337,389.81761 C 174.74264,389.75775 175.12181,389.60308 175.55089,389.35363 L 175.55089,390.43127 z M 191.8054,390.55101 C 191.67566,390.6009 191.44866,390.67824 191.12438,390.78301 C 190.80008,390.88778 190.43837,390.99754 190.03925,391.11229 C 189.64011,391.22704 189.231,391.32682 188.81193,391.41163 C 188.39283,391.49645 188.02364,391.53886 187.70435,391.53886 C 187.52473,391.53886 187.27777,391.52139 186.96347,391.48647 C 186.64914,391.45155 186.3473,391.37172 186.05795,391.24699 C 185.76857,391.12227 185.53408,390.94016 185.35448,390.70069 C 185.17486,390.46121 185.12996,390.13692 185.21978,389.72781 L 187.09069,380.31337 C 187.16053,379.90427 187.16302,379.56501 187.09817,379.29559 C 187.0333,379.02619 186.92853,378.80916 186.78386,378.64451 C 186.63917,378.47988 186.47203,378.36513 186.28246,378.30026 C 186.09286,378.23542 185.91325,378.20299 185.74363,378.20297 C 185.49417,378.20299 185.18734,378.27533 184.82314,378.42 C 184.45893,378.5647 184.07477,378.75678 183.67066,378.99624 C 183.26653,379.23573 182.85992,379.51761 182.45082,379.84189 C 182.04171,380.1662 181.66753,380.50795 181.32827,380.86716 L 179.21788,391.16467 L 176.35912,391.16467 L 179.0233,378.1431 L 176.44893,377.85872 L 176.44893,376.97565 L 181.07383,376.01774 L 182.30115,376.01774 L 181.73239,378.8765 C 182.07164,378.53726 182.46079,378.1955 182.89984,377.85124 C 183.33887,377.50701 183.80785,377.20018 184.30677,376.93075 C 184.80567,376.66135 185.32204,376.44183 185.85589,376.27219 C 186.38971,376.10257 186.91107,376.01776 187.41997,376.01774 C 188.53752,376.01776 189.33328,376.32708 189.80726,376.94572 C 190.28121,377.56438 190.39845,378.5622 190.15899,379.93918 L 188.52755,388.59029 C 188.47765,388.87966 188.5001,389.10916 188.59491,389.27879 C 188.68969,389.44842 188.81441,389.57814 188.96909,389.66794 C 189.12374,389.75775 189.28588,389.81512 189.45553,389.84006 C 189.62514,389.86501 189.75486,389.87748 189.84468,389.87748 C 190.12405,389.87748 190.42839,389.83757 190.75768,389.75774 C 191.08695,389.67792 191.42621,389.58313 191.77546,389.47337 L 191.8054,390.55101 z M 198.07671,378.32271 L 196.14592,387.9467 C 196.08605,388.21611 196.09603,388.45809 196.17586,388.67261 C 196.25568,388.88715 196.3829,389.06676 196.55752,389.21144 C 196.73214,389.35612 196.93669,389.46838 197.17118,389.5482 C 197.40567,389.62803 197.65263,389.66794 197.91207,389.66794 C 198.20143,389.66794 198.50077,389.6405 198.81011,389.58562 C 199.11942,389.53074 199.41627,389.46339 199.70066,389.38356 C 199.98503,389.30374 200.24945,389.22142 200.49393,389.1366 C 200.73839,389.05179 200.94045,388.97945 201.10011,388.91957 L 201.10011,390.1469 C 200.97038,390.20677 200.72092,390.31154 200.35174,390.46121 C 199.98254,390.61088 199.55846,390.76554 199.07952,390.9252 C 198.60056,391.08485 198.09666,391.22704 197.56782,391.35176 C 197.03897,391.47649 196.55502,391.53886 196.11599,391.53886 C 195.5572,391.53886 195.09322,391.4715 194.72403,391.3368 C 194.35483,391.20209 194.06047,391.01749 193.84096,390.78301 C 193.62143,390.54852 193.46428,390.26913 193.36948,389.94484 C 193.27469,389.62055 193.22729,389.26881 193.2273,388.88964 C 193.22729,388.69008 193.23478,388.48553 193.24975,388.27598 C 193.26471,388.06644 193.29714,387.85191 193.34703,387.63239 L 195.21795,378.32271 L 193.28716,378.50232 L 193.28716,377.49951 L 195.59213,376.48173 L 197.08886,373.41343 L 198.95978,373.41343 L 198.34612,376.91578 L 202.58187,376.91578 L 202.58187,378.32271 L 198.07671,378.32271 z M 217.16004,390.43127 C 216.97043,390.54104 216.70851,390.66077 216.37425,390.79049 C 216.03997,390.92021 215.67826,391.03995 215.28912,391.14971 C 214.89996,391.25947 214.50332,391.35176 214.09922,391.4266 C 213.69509,391.50144 213.32839,391.53886 212.99912,391.53886 C 212.42037,391.53886 211.99131,391.44157 211.71193,391.24699 C 211.43253,391.05242 211.24045,390.82791 211.13569,390.57346 C 211.03091,390.31902 210.98351,390.06208 210.9935,389.80265 C 211.00347,389.54321 211.00846,389.35363 211.00847,389.23389 C 210.20022,390.00221 209.35457,390.57845 208.47151,390.96261 C 207.58843,391.34678 206.63301,391.53886 205.60526,391.53886 C 204.89681,391.53886 204.31807,391.41413 203.86905,391.16467 C 203.42003,390.91522 203.08077,390.6009 202.85128,390.22173 C 202.62178,389.84256 202.48208,389.42847 202.43219,388.97944 C 202.3823,388.53043 202.39727,388.10635 202.47709,387.70722 L 204.46775,378.1431 L 201.89337,377.85872 L 201.89337,376.97565 L 206.51827,376.01774 L 207.77553,376.01774 L 205.33585,387.70722 C 205.27598,387.96666 205.28845,388.21362 205.37327,388.4481 C 205.45808,388.68259 205.58281,388.88715 205.74745,389.06176 C 205.91209,389.23638 206.09918,389.37608 206.30873,389.48085 C 206.51826,389.58562 206.72282,389.63801 206.92239,389.63801 C 207.29158,389.63801 207.66326,389.58562 208.03745,389.48085 C 208.41163,389.37608 208.78332,389.23389 209.15252,389.05428 C 209.5217,388.87468 209.87593,388.66763 210.2152,388.43314 C 210.55445,388.19865 210.86876,387.9467 211.15814,387.67729 L 213.47807,376.39193 L 216.33683,376.39193 L 213.88219,388.18618 C 213.81233,388.50548 213.81233,388.7724 213.88219,388.98693 C 213.95203,389.20146 214.05929,389.37857 214.20399,389.51827 C 214.34866,389.65796 214.5133,389.75775 214.69791,389.81761 C 214.88249,389.87748 215.05961,389.90742 215.22925,389.90742 C 215.4288,389.90742 215.69322,389.87748 216.02252,389.81761 C 216.35178,389.75775 216.73096,389.60308 217.16004,389.35363 L 217.16004,390.43127 z M 232.50154,390.46121 C 232.24209,390.59093 231.94524,390.72064 231.61098,390.85036 C 231.2767,390.98008 230.93494,391.09483 230.58572,391.19461 C 230.23647,391.29439 229.89471,391.37671 229.56046,391.44157 C 229.22618,391.50643 228.9393,391.53886 228.69984,391.53886 C 228.45037,391.53886 228.2059,391.49645 227.96644,391.41163 C 227.72695,391.32682 227.49995,391.21706 227.28542,391.08235 C 227.07088,390.94765 226.87381,390.79298 226.69422,390.61837 C 226.5146,390.44375 226.36493,390.26663 226.2452,390.08703 C 226.10549,389.87748 225.94834,389.60558 225.77373,389.27131 C 225.5991,388.93704 225.4145,388.57034 225.21993,388.17121 C 225.02535,387.77208 224.82828,387.35549 224.62873,386.92144 C 224.42915,386.48739 224.23707,386.06831 224.05248,385.66418 C 223.86788,385.26007 223.69825,384.88339 223.54359,384.53415 C 223.38893,384.18492 223.25671,383.90054 223.14696,383.68101 L 221.74003,384.93827 L 220.48278,391.16467 L 217.66892,391.16467 L 221.74003,370.68938 L 219.04591,370.41997 L 219.04591,369.49199 L 223.79056,368.57899 L 225.01788,368.57899 L 222.17408,382.82788 L 227.12827,377.70905 C 227.41763,377.40972 227.68205,377.15278 227.92154,376.93823 C 228.161,376.72372 228.393,376.5491 228.61752,376.41438 C 228.84201,376.27969 229.06902,376.17991 229.29853,376.11503 C 229.52802,376.05019 229.77747,376.01776 230.0469,376.01774 C 230.38614,376.01776 230.68299,376.06765 230.93745,376.16742 C 231.19188,376.26721 231.40142,376.39693 231.56608,376.55657 C 231.7307,376.71623 231.85294,376.89584 231.93278,377.09539 C 232.01259,377.29497 232.04751,377.48954 232.03755,377.67912 C 232.03753,378.02837 231.87539,378.39008 231.55111,378.76425 C 231.22681,379.13844 230.70544,379.45026 229.98703,379.69971 L 228.93931,378.59212 C 228.65991,378.81166 228.35807,379.05612 228.03379,379.32552 C 227.70949,379.59495 227.3827,379.86935 227.05343,380.14872 C 226.72414,380.42813 226.40983,380.70253 226.11049,380.97193 C 225.81114,381.24135 225.54172,381.48083 225.30225,381.69036 C 225.43196,381.9498 225.57415,382.27409 225.72882,382.66323 C 225.88348,383.05239 226.04812,383.46898 226.22274,383.91301 C 226.39735,384.35704 226.58694,384.81105 226.7915,385.27503 C 226.99605,385.73902 227.21307,386.18056 227.44258,386.59964 C 227.67207,387.02871 227.91404,387.44031 228.1685,387.83444 C 228.42293,388.22859 228.68486,388.57782 228.95428,388.88216 C 229.22368,389.18649 229.49808,389.42847 229.77748,389.60807 C 230.05686,389.78768 230.33126,389.87748 230.60069,389.87748 C 230.71043,389.87748 230.84514,389.86501 231.0048,389.84006 C 231.16444,389.81512 231.33407,389.78269 231.51369,389.74278 C 231.69329,389.70287 231.8704,389.65297 232.04503,389.5931 C 232.21964,389.53324 232.3718,389.47337 232.50154,389.4135 L 232.50154,390.46121 z M 254.5933,388.53042 C 254.5434,388.81979 254.55837,389.05428 254.63821,389.23389 C 254.71802,389.4135 254.82528,389.55569 254.96,389.66046 C 255.0947,389.76523 255.23439,389.83757 255.37909,389.87748 C 255.52376,389.9174 255.63102,389.93735 255.70089,389.93735 C 255.77072,389.93735 255.91291,389.90991 256.12745,389.85503 C 256.34197,389.80015 256.56898,389.73779 256.80847,389.66794 C 257.04793,389.59809 257.27244,389.53324 257.482,389.47337 L 257.90108,389.35363 L 257.90108,390.49114 C 257.78133,390.54104 257.56181,390.62336 257.24252,390.7381 C 256.9232,390.85285 256.56898,390.9701 256.17984,391.08984 C 255.79068,391.20957 255.38905,391.31435 254.97497,391.40415 C 254.56086,391.49395 254.19915,391.53886 253.88984,391.53886 C 253.42085,391.53886 253.03669,391.48148 252.73736,391.36673 C 252.438,391.25198 252.20351,391.09233 252.03389,390.88778 C 251.86425,390.68322 251.74701,390.44125 251.68216,390.16186 C 251.61729,389.88247 251.58486,389.57315 251.58487,389.23389 C 251.31545,389.52326 251.0186,389.80514 250.69432,390.07954 C 250.37002,390.35394 250.02327,390.59841 249.65409,390.81294 C 249.28489,391.02747 248.89574,391.20209 248.48664,391.3368 C 248.07752,391.4715 247.65844,391.53886 247.22938,391.53886 C 246.37125,391.53886 245.6603,391.37422 245.09654,391.04493 C 244.53277,390.71565 244.08624,390.28659 243.75696,389.75774 C 243.42768,389.2289 243.19569,388.64019 243.06098,387.9916 C 242.92628,387.34302 242.85892,386.69444 242.85892,386.04585 C 242.85892,385.23762 242.94623,384.42689 243.12085,383.61366 C 243.29547,382.80044 243.5549,382.02214 243.89915,381.27876 C 244.2434,380.53539 244.66498,379.8444 245.16389,379.20578 C 245.6628,378.56719 246.23156,378.01091 246.87017,377.53693 C 247.50877,377.06298 248.21971,376.69129 249.00301,376.42186 C 249.78629,376.15247 250.62695,376.01776 251.525,376.01774 C 251.75449,376.01776 251.979,376.04021 252.19853,376.0851 C 252.41804,376.13001 252.62758,376.1824 252.82716,376.24225 C 253.02671,376.30214 253.21131,376.367 253.38095,376.43683 C 253.55057,376.50669 253.70024,376.56157 253.82997,376.60147 L 254.86272,370.68938 L 252.07879,370.41997 L 252.07879,369.49199 L 256.82343,368.57899 L 258.08069,368.57899 L 254.5933,388.53042 z M 253.39592,379.08605 C 253.40588,379.04614 253.34851,378.93389 253.22379,378.74928 C 253.09905,378.5647 252.9394,378.37262 252.74484,378.17304 C 252.55025,377.97349 252.33822,377.79388 252.10873,377.63422 C 251.87922,377.47458 251.66469,377.39475 251.46513,377.39474 C 250.71676,377.39475 250.00332,377.61178 249.32481,378.04582 C 248.64628,378.47988 248.04759,379.07608 247.52873,379.83441 C 247.00986,380.59277 246.59576,381.48831 246.28644,382.52105 C 245.97711,383.5538 245.82245,384.66886 245.82245,385.86624 C 245.82245,386.52481 245.8898,387.09357 246.02451,387.57252 C 246.15921,388.05147 246.33882,388.44561 246.56334,388.75493 C 246.78784,389.06426 247.04478,389.29376 247.33415,389.44343 C 247.62352,389.59311 247.91787,389.66794 248.21722,389.66794 C 248.49661,389.66794 248.79845,389.59809 249.12275,389.4584 C 249.44703,389.31871 249.77382,389.13161 250.10311,388.89712 C 250.43238,388.66264 250.75917,388.39323 251.08347,388.08889 C 251.40775,387.78456 251.70959,387.47274 251.98899,387.15343 L 253.39592,379.08605 z M 274.03584,390.43127 C 273.84624,390.54104 273.58431,390.66077 273.25006,390.79049 C 272.91577,390.92021 272.55406,391.03995 272.16493,391.14971 C 271.77576,391.25947 271.37913,391.35176 270.97503,391.4266 C 270.5709,391.50144 270.2042,391.53886 269.87493,391.53886 C 269.29618,391.53886 268.86712,391.44157 268.58774,391.24699 C 268.30834,391.05242 268.11626,390.82791 268.0115,390.57346 C 267.90672,390.31902 267.85932,390.06208 267.86931,389.80265 C 267.87928,389.54321 267.88427,389.35363 267.88428,389.23389 C 267.07603,390.00221 266.23038,390.57845 265.34731,390.96261 C 264.46424,391.34678 263.50882,391.53886 262.48107,391.53886 C 261.77262,391.53886 261.19388,391.41413 260.74486,391.16467 C 260.29584,390.91522 259.95658,390.6009 259.72709,390.22173 C 259.49759,389.84256 259.35789,389.42847 259.308,388.97944 C 259.25811,388.53043 259.27308,388.10635 259.3529,387.70722 L 261.34356,378.1431 L 258.76918,377.85872 L 258.76918,376.97565 L 263.39408,376.01774 L 264.65133,376.01774 L 262.21166,387.70722 C 262.15179,387.96666 262.16426,388.21362 262.24908,388.4481 C 262.33389,388.68259 262.45862,388.88715 262.62326,389.06176 C 262.7879,389.23638 262.97499,389.37608 263.18454,389.48085 C 263.39407,389.58562 263.59863,389.63801 263.7982,389.63801 C 264.16738,389.63801 264.53907,389.58562 264.91326,389.48085 C 265.28744,389.37608 265.65913,389.23389 266.02833,389.05428 C 266.39751,388.87468 266.75174,388.66763 267.09101,388.43314 C 267.43026,388.19865 267.74457,387.9467 268.03395,387.67729 L 270.35388,376.39193 L 273.21264,376.39193 L 270.758,388.18618 C 270.68814,388.50548 270.68814,388.7724 270.758,388.98693 C 270.82784,389.20146 270.9351,389.37857 271.0798,389.51827 C 271.22447,389.65796 271.38911,389.75775 271.57372,389.81761 C 271.7583,389.87748 271.93542,389.90742 272.10506,389.90742 C 272.30461,389.90742 272.56903,389.87748 272.89833,389.81761 C 273.22759,389.75775 273.60677,389.60308 274.03584,389.35363 L 274.03584,390.43127 z M 290.29035,390.55101 C 290.16062,390.6009 289.93361,390.67824 289.60934,390.78301 C 289.28503,390.88778 288.92332,390.99754 288.52421,391.11229 C 288.12506,391.22704 287.71596,391.32682 287.29689,391.41163 C 286.87779,391.49645 286.5086,391.53886 286.18931,391.53886 C 286.00969,391.53886 285.76273,391.52139 285.44842,391.48647 C 285.1341,391.45155 284.83226,391.37172 284.5429,391.24699 C 284.25352,391.12227 284.01903,390.94016 283.83944,390.70069 C 283.65982,390.46121 283.61492,390.13692 283.70473,389.72781 L 285.57565,380.31337 C 285.64548,379.90427 285.64798,379.56501 285.58313,379.29559 C 285.51826,379.02619 285.41349,378.80916 285.26882,378.64451 C 285.12412,378.47988 284.95699,378.36513 284.76741,378.30026 C 284.57781,378.23542 284.39821,378.20299 284.22859,378.20297 C 283.97912,378.20299 283.67229,378.27533 283.3081,378.42 C 282.94388,378.5647 282.55972,378.75678 282.15561,378.99624 C 281.75149,379.23573 281.34488,379.51761 280.93578,379.84189 C 280.52666,380.1662 280.15248,380.50795 279.81323,380.86716 L 277.70283,391.16467 L 274.84408,391.16467 L 277.50826,378.1431 L 274.93388,377.85872 L 274.93388,376.97565 L 279.55878,376.01774 L 280.7861,376.01774 L 280.21734,378.8765 C 280.5566,378.53726 280.94575,378.1955 281.3848,377.85124 C 281.82383,377.50701 282.2928,377.20018 282.79172,376.93075 C 283.29063,376.66135 283.807,376.44183 284.34084,376.27219 C 284.87466,376.10257 285.39603,376.01776 285.90493,376.01774 C 287.02247,376.01776 287.81824,376.32708 288.29221,376.94572 C 288.76616,377.56438 288.88341,378.5622 288.64395,379.93918 L 287.01251,388.59029 C 286.9626,388.87966 286.98506,389.10916 287.07986,389.27879 C 287.17464,389.44842 287.29937,389.57814 287.45404,389.66794 C 287.60869,389.75775 287.77084,389.81512 287.94048,389.84006 C 288.1101,389.86501 288.23981,389.87748 288.32963,389.87748 C 288.60901,389.87748 288.91334,389.83757 289.24264,389.75774 C 289.5719,389.67792 289.91116,389.58313 290.26042,389.47337 L 290.29035,390.55101 z M 298.43258,390.2816 C 298.31283,390.33149 298.09331,390.42629 297.77401,390.56598 C 297.4547,390.70568 297.08052,390.84786 296.65147,390.99255 C 296.2224,391.13723 295.77088,391.26445 295.29692,391.37422 C 294.82295,391.48398 294.37643,391.53886 293.95735,391.53886 C 293.4285,391.53886 293.00942,391.44905 292.70009,391.26944 C 292.39077,391.08984 292.16127,390.85535 292.0116,390.56598 C 291.86192,390.27661 291.77711,389.95232 291.75715,389.5931 C 291.73719,389.23389 291.76214,388.87966 291.83199,388.53042 L 293.79271,378.1431 L 291.15846,377.85872 L 291.15846,376.97565 L 295.78336,376.01774 L 297.04062,376.01774 L 294.72068,388.27598 C 294.68076,388.48553 294.68326,388.68509 294.72817,388.87467 C 294.77306,389.06426 294.8479,389.2314 294.95267,389.37608 C 295.05744,389.52076 295.19215,389.63551 295.35679,389.72033 C 295.52143,389.80514 295.70852,389.84755 295.91807,389.84755 C 296.09767,389.84755 296.30971,389.81512 296.55418,389.75026 C 296.79864,389.6854 297.0431,389.61057 297.28758,389.52575 C 297.53204,389.44094 297.75904,389.35862 297.96859,389.27879 C 298.17812,389.19897 298.33279,389.14409 298.43258,389.11415 L 298.43258,390.2816 z M 298.29787,371.51258 C 298.29786,371.7421 298.25546,371.95913 298.17065,372.16366 C 298.08583,372.36823 297.96609,372.55033 297.81143,372.70997 C 297.65676,372.86964 297.46468,372.99686 297.23519,373.09163 C 297.00569,373.18644 296.74126,373.23384 296.44192,373.23382 C 295.81329,373.23384 295.33933,373.06671 295.02003,372.73242 C 294.70072,372.39817 294.54107,371.99155 294.54107,371.51258 C 294.54107,371.31304 294.58348,371.11347 294.6683,370.91389 C 294.75311,370.71434 294.87783,370.53224 295.04248,370.36758 C 295.20711,370.20296 295.40917,370.06826 295.64866,369.96346 C 295.88813,369.85871 296.16253,369.80633 296.47186,369.80631 C 296.76122,369.80633 297.01816,369.85622 297.24267,369.95598 C 297.46718,370.05578 297.65926,370.1855 297.81892,370.34513 C 297.97856,370.5048 298.0983,370.6869 298.17813,370.89144 C 298.25795,371.09601 298.29786,371.30306 298.29787,371.51258 L 298.29787,371.51258 z M 309.8826,379.14591 C 309.89256,379.09604 309.85515,378.98129 309.77034,378.80167 C 309.68552,378.62207 309.58324,378.43498 309.46351,378.24039 C 309.34376,378.04583 309.21654,377.87371 309.08185,377.72402 C 308.94713,377.57436 308.83487,377.49952 308.74508,377.49951 C 307.96677,377.49952 307.27079,377.62675 306.65714,377.88118 C 306.04347,378.13563 305.50714,378.47988 305.04815,378.91392 C 304.58915,379.34799 304.1975,379.84939 303.87322,380.41814 C 303.54892,380.98691 303.28699,381.58061 303.08743,382.19925 C 302.88787,382.81791 302.74318,383.44154 302.65338,384.07016 C 302.56357,384.6988 302.51867,385.29749 302.51868,385.86624 C 302.51867,386.29531 302.5536,386.72437 302.62345,387.15343 C 302.69329,387.5825 302.81552,387.97165 302.99015,388.32088 C 303.16476,388.67012 303.40424,388.9545 303.70858,389.17402 C 304.01291,389.39354 304.40455,389.5033 304.88351,389.5033 C 305.24272,389.5033 305.60194,389.42348 305.96116,389.26382 C 306.32037,389.10417 306.65464,388.91958 306.96397,388.71003 C 307.27329,388.50049 307.5427,388.29095 307.77221,388.0814 C 308.00169,387.87187 308.17132,387.71221 308.28109,387.60245 L 309.8826,379.14591 z M 314.38776,390.34147 C 314.26801,390.39136 314.04849,390.48366 313.7292,390.61837 C 313.40988,390.75307 313.05316,390.88778 312.65904,391.02248 C 312.26488,391.15719 311.86575,391.27693 311.46165,391.3817 C 311.05752,391.48647 310.70579,391.53886 310.40645,391.53886 C 310.03725,391.53886 309.72543,391.49395 309.471,391.40415 C 309.21654,391.31435 309.007,391.17964 308.84237,391.00003 C 308.67772,390.82042 308.5505,390.6009 308.4607,390.34147 C 308.37089,390.08204 308.31102,389.78269 308.28109,389.44343 C 308.05159,389.66295 307.78217,389.89495 307.47286,390.13941 C 307.16353,390.38388 306.82177,390.61088 306.4476,390.82042 C 306.07341,391.02997 305.67428,391.20209 305.25021,391.3368 C 304.82613,391.4715 304.3846,391.53886 303.9256,391.53886 C 303.32691,391.53886 302.80056,391.45404 302.34655,391.28441 C 301.89254,391.11478 301.50089,390.88778 301.17162,390.6034 C 300.84233,390.31902 300.57043,389.98974 300.3559,389.61556 C 300.14136,389.24137 299.96924,388.85222 299.83953,388.4481 C 299.70981,388.04399 299.62,387.63488 299.57011,387.22078 C 299.52022,386.80669 299.49528,386.41505 299.49528,386.04585 C 299.49528,385.25758 299.58009,384.46181 299.74972,383.65856 C 299.91935,382.85532 300.1713,382.08201 300.50557,381.33863 C 300.83984,380.59526 301.25643,379.89928 301.75534,379.25069 C 302.25425,378.60211 302.83049,378.03835 303.48407,377.55938 C 304.13764,377.08044 304.86604,376.70376 305.6693,376.42935 C 306.47253,376.15496 307.35311,376.01776 308.31103,376.01774 C 308.59041,376.01776 308.8673,376.05019 309.14171,376.11503 C 309.4161,376.17991 309.67304,376.26472 309.91253,376.36948 C 310.152,376.47426 310.37152,376.59151 310.57109,376.72121 C 310.77065,376.85094 310.94028,376.98565 311.07998,377.12533 L 311.529,376.39193 L 313.62443,376.39193 C 313.57452,376.51168 313.51964,376.65387 313.45979,376.8185 C 313.3999,376.98315 313.34003,377.15029 313.28018,377.3199 C 313.22029,377.48954 313.16791,377.6492 313.12302,377.79886 C 313.07811,377.94854 313.05067,378.06329 313.0407,378.1431 C 312.97084,378.41253 312.87106,378.81914 312.74136,379.36294 C 312.61162,379.90676 312.47442,380.51793 312.32975,381.19644 C 312.18506,381.87497 312.03538,382.58591 311.88073,383.32928 C 311.72606,384.07266 311.58886,384.77613 311.46913,385.43967 C 311.34938,386.10323 311.2496,386.69194 311.16979,387.20582 C 311.08995,387.7197 311.05004,388.09139 311.05005,388.32088 C 311.05004,388.85971 311.16478,389.2289 311.3943,389.42846 C 311.62378,389.62803 311.94807,389.72781 312.36717,389.72781 C 312.46694,389.72781 312.61412,389.70536 312.80871,389.66046 C 313.00327,389.61556 313.20533,389.56317 313.41488,389.5033 C 313.62441,389.44343 313.81899,389.38855 313.99861,389.33866 C 314.1782,389.28877 314.30792,389.25385 314.38776,389.23389 L 314.38776,390.34147 z M 334.53377,381.78016 C 334.53376,381.09168 334.45393,380.51045 334.29429,380.03647 C 334.13463,379.56252 333.94005,379.17586 333.71057,378.8765 C 333.48106,378.57717 333.23909,378.36264 332.98465,378.23291 C 332.7302,378.1032 332.51317,378.03835 332.33357,378.03833 C 332.08411,378.03835 331.80971,378.07826 331.51037,378.15807 C 331.21102,378.23791 330.90419,378.35016 330.58988,378.49484 C 330.27556,378.63953 329.96374,378.80667 329.65442,378.99624 C 329.34509,379.18584 329.06071,379.39039 328.80128,379.6099 L 327.09501,388.88964 C 327.19479,389.03932 327.32949,389.184 327.49913,389.32369 C 327.66875,389.46339 327.86333,389.59061 328.08285,389.70536 C 328.30237,389.82011 328.54185,389.91241 328.80128,389.98225 C 329.06071,390.0521 329.33012,390.08703 329.60952,390.08703 C 330.07849,390.08703 330.52501,389.96729 330.94909,389.72781 C 331.37316,389.48833 331.7673,389.16404 332.13151,388.75493 C 332.49571,388.34583 332.82748,387.86688 333.12684,387.31807 C 333.42618,386.76927 333.67813,386.18804 333.88269,385.57438 C 334.08723,384.96072 334.24688,384.32711 334.36164,383.67353 C 334.47638,383.01996 334.53376,382.38884 334.53377,381.78016 L 334.53377,381.78016 z M 337.57213,381.66042 C 337.57212,382.29904 337.50227,382.98504 337.36259,383.71843 C 337.22288,384.45184 337.00586,385.18274 336.71151,385.91114 C 336.41714,386.63956 336.04047,387.34302 335.58148,388.02154 C 335.12247,388.70006 334.57367,389.29875 333.93508,389.81761 C 333.29646,390.33648 332.56306,390.75307 331.73488,391.06739 C 330.90668,391.3817 329.97372,391.53886 328.93599,391.53886 C 328.06788,391.53886 327.21225,391.41912 326.36909,391.17964 C 325.52593,390.94016 324.74514,390.58594 324.02671,390.11696 L 327.6488,370.68938 L 324.90978,370.41997 L 324.90978,369.49199 L 329.69932,368.57899 L 330.89671,368.57899 L 329.14553,377.85872 C 329.42492,377.60928 329.73175,377.3723 330.06602,377.14778 C 330.40029,376.92328 330.74703,376.72871 331.10625,376.56405 C 331.46546,376.39943 331.83465,376.26721 332.21383,376.16742 C 332.593,376.06765 332.96718,376.01776 333.33638,376.01774 C 334.12465,376.01776 334.7882,376.19238 335.32704,376.5416 C 335.86585,376.89085 336.30239,377.33987 336.63668,377.88866 C 336.97093,378.43747 337.21041,379.04365 337.35511,379.70719 C 337.49978,380.37075 337.57212,381.02183 337.57213,381.66042 L 337.57213,381.66042 z M 348.67787,379.08605 C 348.67786,378.88649 348.63795,378.68942 348.55813,378.49484 C 348.4783,378.30027 348.36853,378.12815 348.22885,377.97846 C 348.08915,377.8288 347.91453,377.70657 347.70499,377.61176 C 347.49544,377.51698 347.26594,377.46959 347.0165,377.46957 C 346.67723,377.46959 346.35294,377.55939 346.04362,377.73899 C 345.73429,377.91861 345.43744,378.15808 345.15307,378.45742 C 344.86868,378.75678 344.60426,379.10102 344.3598,379.49016 C 344.11533,379.87932 343.89581,380.28843 343.70124,380.71748 C 343.50666,381.14656 343.33453,381.58061 343.18486,382.01964 C 343.03518,382.45869 342.91545,382.87279 342.82565,383.26193 C 343.47423,383.20207 344.14526,383.05239 344.83875,382.81291 C 345.53223,382.57344 346.16335,382.26661 346.73212,381.89242 C 347.30087,381.51824 347.76735,381.09168 348.13156,380.61271 C 348.49576,380.13377 348.67786,379.62488 348.67787,379.08605 L 348.67787,379.08605 z M 351.40192,379.11598 C 351.40191,379.67477 351.27219,380.18865 351.01277,380.65761 C 350.75333,381.1266 350.40159,381.55067 349.95758,381.92984 C 349.51353,382.30902 348.99966,382.64578 348.41594,382.94013 C 347.83221,383.2345 347.21855,383.48395 346.57496,383.6885 C 345.93136,383.89306 345.27529,384.0577 344.60676,384.18242 C 343.93821,384.30715 343.29961,384.38448 342.69094,384.41441 C 342.661,384.61398 342.63356,384.85346 342.60862,385.13284 C 342.58367,385.41224 342.5712,385.64673 342.5712,385.83631 C 342.5712,386.39509 342.63855,386.90897 342.77326,387.37794 C 342.90796,387.84692 343.10254,388.25353 343.35699,388.59778 C 343.61143,388.94203 343.91826,389.21144 344.27748,389.40601 C 344.63669,389.60059 345.0408,389.69788 345.48983,389.69788 C 346.17832,389.69788 346.93666,389.44842 347.76486,388.94951 C 348.59304,388.4506 349.57091,387.70723 350.69846,386.71938 L 350.69846,388.65016 C 350.40908,388.92956 350.05485,389.23638 349.63578,389.57065 C 349.21668,389.90492 348.74022,390.21924 348.2064,390.51359 C 347.67256,390.80795 347.09132,391.05242 346.46271,391.24699 C 345.83407,391.44157 345.17052,391.53886 344.47205,391.53886 C 344.16272,391.53886 343.82596,391.50892 343.46176,391.44905 C 343.09755,391.38918 342.73584,391.28192 342.37663,391.12725 C 342.01741,390.97259 341.67067,390.76056 341.3364,390.49114 C 341.00213,390.22173 340.70777,389.87998 340.45333,389.46588 C 340.19888,389.05179 339.99433,388.55787 339.83967,387.98412 C 339.685,387.41037 339.60767,386.73435 339.60767,385.95605 C 339.60767,385.14782 339.70496,384.34208 339.89954,383.53882 C 340.09411,382.73559 340.36851,381.96726 340.72274,381.23386 C 341.07696,380.50047 341.50353,379.81696 342.00244,379.18333 C 342.50135,378.54973 343.05015,378.00093 343.64885,377.53693 C 344.24754,377.07295 344.88864,376.70875 345.57215,376.44431 C 346.25565,376.17991 346.96161,376.04769 347.69003,376.04768 C 348.39847,376.04769 348.98968,376.16494 349.46365,376.39941 C 349.93761,376.63391 350.31927,376.9158 350.60865,377.24506 C 350.89801,377.57436 351.10256,377.91362 351.22231,378.26284 C 351.34204,378.61209 351.40191,378.89647 351.40192,379.11598 L 351.40192,379.11598 z M 363.03154,381.78016 C 363.03153,381.09168 362.9517,380.51045 362.79206,380.03647 C 362.6324,379.56252 362.43783,379.17586 362.20834,378.8765 C 361.97883,378.57717 361.73686,378.36264 361.48242,378.23291 C 361.22797,378.1032 361.01094,378.03835 360.83134,378.03833 C 360.58188,378.03835 360.30748,378.07826 360.00814,378.15807 C 359.70879,378.23791 359.40196,378.35016 359.08765,378.49484 C 358.77333,378.63953 358.46151,378.80667 358.15219,378.99624 C 357.84286,379.18584 357.55848,379.39039 357.29906,379.6099 L 355.59278,388.88964 C 355.69256,389.03932 355.82727,389.184 355.9969,389.32369 C 356.16653,389.46339 356.3611,389.59061 356.58063,389.70536 C 356.80014,389.82011 357.03962,389.91241 357.29906,389.98225 C 357.55848,390.0521 357.8279,390.08703 358.10729,390.08703 C 358.57626,390.08703 359.02279,389.96729 359.44687,389.72781 C 359.87093,389.48833 360.26507,389.16404 360.62929,388.75493 C 360.99348,388.34583 361.32526,387.86688 361.62461,387.31807 C 361.92395,386.76927 362.1759,386.18804 362.38046,385.57438 C 362.585,384.96072 362.74466,384.32711 362.85942,383.67353 C 362.97415,383.01996 363.03153,382.38884 363.03154,381.78016 L 363.03154,381.78016 z M 366.06991,381.66042 C 366.06989,382.29904 366.00004,382.98504 365.86036,383.71843 C 365.72066,384.45184 365.50363,385.18274 365.20929,385.91114 C 364.91492,386.63956 364.53824,387.34302 364.07925,388.02154 C 363.62024,388.70006 363.07144,389.29875 362.43285,389.81761 C 361.79423,390.33648 361.06083,390.75307 360.23265,391.06739 C 359.40445,391.3817 358.47149,391.53886 357.43376,391.53886 C 356.56565,391.53886 355.71002,391.41912 354.86687,391.17964 C 354.02371,390.94016 353.24291,390.58594 352.52448,390.11696 L 356.14657,370.68938 L 353.40755,370.41997 L 353.40755,369.49199 L 358.1971,368.57899 L 359.39448,368.57899 L 357.6433,377.85872 C 357.92269,377.60928 358.22952,377.3723 358.5638,377.14778 C 358.89806,376.92328 359.2448,376.72871 359.60402,376.56405 C 359.96323,376.39943 360.33243,376.26721 360.71161,376.16742 C 361.09077,376.06765 361.46495,376.01776 361.83415,376.01774 C 362.62242,376.01776 363.28597,376.19238 363.82481,376.5416 C 364.36362,376.89085 364.80017,377.33987 365.13445,377.88866 C 365.46871,378.43747 365.70818,379.04365 365.85288,379.70719 C 365.99755,380.37075 366.06989,381.02183 366.06991,381.66042 L 366.06991,381.66042 z M 378.49277,379.14591 C 378.50273,379.09604 378.46531,378.98129 378.38051,378.80167 C 378.29568,378.62207 378.19341,378.43498 378.07368,378.24039 C 377.95393,378.04583 377.82671,377.87371 377.69201,377.72402 C 377.5573,377.57436 377.44504,377.49952 377.35525,377.49951 C 376.57694,377.49952 375.88096,377.62675 375.26731,377.88118 C 374.65364,378.13563 374.11731,378.47988 373.65832,378.91392 C 373.19932,379.34799 372.80767,379.84939 372.48339,380.41814 C 372.15909,380.98691 371.89716,381.58061 371.6976,382.19925 C 371.49803,382.81791 371.35335,383.44154 371.26355,384.07016 C 371.17374,384.6988 371.12884,385.29749 371.12884,385.86624 C 371.12884,386.29531 371.16376,386.72437 371.23362,387.15343 C 371.30346,387.5825 371.42569,387.97165 371.60031,388.32088 C 371.77493,388.67012 372.01441,388.9545 372.31875,389.17402 C 372.62308,389.39354 373.01472,389.5033 373.49368,389.5033 C 373.85289,389.5033 374.2121,389.42348 374.57133,389.26382 C 374.93054,389.10417 375.26481,388.91958 375.57414,388.71003 C 375.88345,388.50049 376.15287,388.29095 376.38237,388.0814 C 376.61186,387.87187 376.78149,387.71221 376.89126,387.60245 L 378.49277,379.14591 z M 382.99793,390.34147 C 382.87817,390.39136 382.65865,390.48366 382.33937,390.61837 C 382.02005,390.75307 381.66333,390.88778 381.2692,391.02248 C 380.87505,391.15719 380.47592,391.27693 380.07182,391.3817 C 379.66769,391.48647 379.31596,391.53886 379.01662,391.53886 C 378.64742,391.53886 378.3356,391.49395 378.08116,391.40415 C 377.82671,391.31435 377.61717,391.17964 377.45254,391.00003 C 377.28789,390.82042 377.16066,390.6009 377.07087,390.34147 C 376.98106,390.08204 376.92119,389.78269 376.89126,389.44343 C 376.66175,389.66295 376.39234,389.89495 376.08303,390.13941 C 375.77369,390.38388 375.43194,390.61088 375.05777,390.82042 C 374.68358,391.02997 374.28445,391.20209 373.86038,391.3368 C 373.4363,391.4715 372.99476,391.53886 372.53577,391.53886 C 371.93707,391.53886 371.41072,391.45404 370.95672,391.28441 C 370.50271,391.11478 370.11106,390.88778 369.78179,390.6034 C 369.4525,390.31902 369.1806,389.98974 368.96607,389.61556 C 368.75153,389.24137 368.57941,388.85222 368.44969,388.4481 C 368.31998,388.04399 368.23017,387.63488 368.18028,387.22078 C 368.13039,386.80669 368.10544,386.41505 368.10545,386.04585 C 368.10544,385.25758 368.19026,384.46181 368.35989,383.65856 C 368.52952,382.85532 368.78147,382.08201 369.11574,381.33863 C 369.45001,380.59526 369.8666,379.89928 370.36551,379.25069 C 370.86442,378.60211 371.44066,378.03835 372.09424,377.55938 C 372.7478,377.08044 373.47621,376.70376 374.27946,376.42935 C 375.0827,376.15496 375.96328,376.01776 376.9212,376.01774 C 377.20058,376.01776 377.47747,376.05019 377.75188,376.11503 C 378.02627,376.17991 378.28321,376.26472 378.5227,376.36948 C 378.76217,376.47426 378.98169,376.59151 379.18126,376.72121 C 379.38081,376.85094 379.55044,376.98565 379.69015,377.12533 L 380.13917,376.39193 L 382.2346,376.39193 C 382.18469,376.51168 382.12981,376.65387 382.06996,376.8185 C 382.01007,376.98315 381.9502,377.15029 381.89035,377.3199 C 381.83046,377.48954 381.77808,377.6492 381.73319,377.79886 C 381.68827,377.94854 381.66083,378.06329 381.65087,378.1431 C 381.58101,378.41253 381.48123,378.81914 381.35152,379.36294 C 381.22179,379.90676 381.08459,380.51793 380.93992,381.19644 C 380.79522,381.87497 380.64555,382.58591 380.4909,383.32928 C 380.33623,384.07266 380.19903,384.77613 380.0793,385.43967 C 379.95955,386.10323 379.85977,386.69194 379.77996,387.20582 C 379.70012,387.7197 379.6602,388.09139 379.66022,388.32088 C 379.6602,388.85971 379.77495,389.2289 380.00447,389.42846 C 380.23395,389.62803 380.55824,389.72781 380.97734,389.72781 C 381.07711,389.72781 381.22429,389.70536 381.41888,389.66046 C 381.61344,389.61556 381.8155,389.56317 382.02505,389.5033 C 382.23458,389.44343 382.42916,389.38855 382.60878,389.33866 C 382.78837,389.28877 382.91809,389.25385 382.99793,389.23389 L 382.99793,390.34147 z M 393.80434,377.94853 C 393.80433,378.30776 393.72451,378.59463 393.56487,378.80915 C 393.4052,379.02369 393.21063,379.19083 392.98114,379.31056 C 392.75163,379.43031 392.50966,379.51263 392.25523,379.55752 C 392.00077,379.60243 391.77876,379.62987 391.58918,379.63984 L 390.21219,377.76892 C 390.15231,377.71904 390.05752,377.66666 389.92781,377.61176 C 389.79808,377.5569 389.63843,377.52946 389.44885,377.52944 C 389.10959,377.52946 388.82521,377.6018 388.59572,377.74647 C 388.36621,377.89117 388.17912,378.07078 388.03444,378.28529 C 387.88975,378.49984 387.78748,378.72934 387.72761,378.97379 C 387.66774,379.21827 387.6378,379.44028 387.63781,379.63984 C 387.6378,379.91924 387.71763,380.20112 387.87728,380.48549 C 388.03693,380.76988 388.24647,381.05426 388.50591,381.33863 C 388.76534,381.62302 389.0572,381.90241 389.3815,382.1768 C 389.70579,382.45121 390.03257,382.71812 390.36186,382.97755 C 390.70111,383.24697 391.0279,383.52386 391.34222,383.80823 C 391.65652,384.09262 391.93841,384.38698 392.18787,384.69131 C 392.43732,384.99565 392.63688,385.31745 392.78657,385.6567 C 392.93623,385.99596 393.01107,386.35019 393.01108,386.71938 C 393.01107,387.34801 392.88384,387.95169 392.62941,388.53042 C 392.37496,389.10916 392.00077,389.62304 391.50686,390.07206 C 391.01293,390.52108 390.39927,390.8778 389.66588,391.14222 C 388.93248,391.40664 388.09181,391.53886 387.14389,391.53886 C 386.40549,391.53886 385.76689,391.45654 385.22807,391.2919 C 384.68924,391.12725 384.24521,390.91272 383.89598,390.6483 C 383.54674,390.38388 383.28731,390.08204 383.11768,389.74278 C 382.94805,389.40352 382.86323,389.05927 382.86323,388.71003 C 382.86323,388.2211 383.01041,387.82447 383.30477,387.52013 C 383.59913,387.2158 384.06062,387.06363 384.68925,387.06363 C 384.87883,387.06363 385.05844,387.08858 385.22807,387.13846 C 385.3977,387.18836 385.55236,387.24573 385.69206,387.31059 C 385.83175,387.37545 385.95398,387.4453 386.05876,387.52013 C 386.16352,387.59497 386.24085,387.65733 386.29075,387.70722 L 385.70702,389.20395 C 385.92654,389.51328 386.19845,389.77521 386.52274,389.98974 C 386.84703,390.20427 387.26861,390.31154 387.78748,390.31154 C 388.0968,390.31154 388.39615,390.25167 388.68552,390.13193 C 388.97488,390.01219 389.23182,389.84256 389.45634,389.62304 C 389.68084,389.40352 389.85795,389.1366 389.98768,388.82229 C 390.11739,388.50798 390.18225,388.15624 390.18225,387.76709 C 390.18225,387.45777 390.11988,387.16591 389.99516,386.8915 C 389.87043,386.61711 389.69581,386.35019 389.4713,386.09075 C 389.24679,385.83132 388.98237,385.57438 388.67804,385.31993 C 388.3737,385.0655 388.03693,384.79858 387.66774,384.51918 C 387.34844,384.26973 387.04161,384.00032 386.74725,383.71095 C 386.45289,383.42159 386.18847,383.11476 385.95398,382.79046 C 385.71949,382.46617 385.5324,382.12442 385.39271,381.7652 C 385.25301,381.40599 385.18316,381.0368 385.18317,380.65761 C 385.18316,379.90926 385.35279,379.24571 385.69206,378.66696 C 386.03131,378.08824 386.46786,377.6018 387.0017,377.20765 C 387.53553,376.81352 388.12923,376.51667 388.78281,376.31709 C 389.43637,376.11754 390.07747,376.01776 390.70611,376.01774 C 391.28484,376.01776 391.77127,376.08511 392.16542,376.2198 C 392.55955,376.35452 392.87885,376.51916 393.12333,376.71372 C 393.36779,376.90831 393.54241,377.11786 393.64719,377.34235 C 393.75195,377.56688 393.80433,377.76893 393.80434,377.94853 L 393.80434,377.94853 z "
     id="text2406" />
</svg>
