<?xml version="1.0" encoding="UTF-8" standalone="no"?>
<!-- Created with Inkscape (http://www.inkscape.org/) -->
<svg
   xmlns:svg="http://www.w3.org/2000/svg"
   xmlns="http://www.w3.org/2000/svg"
   xmlns:xlink="http://www.w3.org/1999/xlink"
   version="1.0"
   width="317.33084"
   height="321.8204"
   id="svg2">
  <defs
     id="defs4">
    <linearGradient
       id="linearGradient7070">
      <stop
         style="stop-color:#000000;stop-opacity:1"
         offset="0"
         id="stop7072" />
      <stop
         style="stop-color:#000000;stop-opacity:0"
         offset="1"
         id="stop7074" />
    </linearGradient>
    <linearGradient
       id="linearGradient6085">
      <stop
         style="stop-color:#ffffff;stop-opacity:1"
         offset="0"
         id="stop6087" />
      <stop
         style="stop-color:#ffffff;stop-opacity:0"
         offset="1"
         id="stop6089" />
    </linearGradient>
    <linearGradient
       id="linearGradient4119">
      <stop
         style="stop-color:#ffffff;stop-opacity:1"
         offset="0"
         id="stop4121" />
      <stop
         style="stop-color:#000000;stop-opacity:0"
         offset="1"
         id="stop4123" />
    </linearGradient>
    <linearGradient
       x1="325.45804"
       y1="564.78363"
       x2="470.36774"
       y2="535.4892"
       id="linearGradient4125"
       xlink:href="#linearGradient4119"
       gradientUnits="userSpaceOnUse" />
    <linearGradient
       x1="313.92975"
       y1="550.71338"
       x2="161.39671"
       y2="582.0282"
       id="linearGradient5102"
       xlink:href="#linearGradient4119"
       gradientUnits="userSpaceOnUse" />
    <linearGradient
       x1="195.3634"
       y1="584.02191"
       x2="373.5531"
       y2="545.63617"
       id="linearGradient6091"
       xlink:href="#linearGradient6085"
       gradientUnits="userSpaceOnUse" />
    <linearGradient
       x1="447.95474"
       y1="547.76447"
       x2="273.38797"
       y2="592.21124"
       id="linearGradient7068"
       xlink:href="#linearGradient6085"
       gradientUnits="userSpaceOnUse" />
    <linearGradient
       x1="362.02295"
       y1="571.31091"
       x2="163.02289"
       y2="571.31091"
       id="linearGradient7076"
       xlink:href="#linearGradient7070"
       gradientUnits="userSpaceOnUse" />
    <linearGradient
       x1="295.4061"
       y1="539.09406"
       x2="453.17953"
       y2="539.09406"
       id="linearGradient7084"
       xlink:href="#linearGradient7070"
       gradientUnits="userSpaceOnUse" />
    <linearGradient
       x1="447.95474"
       y1="547.76447"
       x2="273.38797"
       y2="592.21124"
       id="linearGradient2298"
       xlink:href="#linearGradient6085"
       gradientUnits="userSpaceOnUse"
       gradientTransform="matrix(0.9691982,0,0,0.9213697,-143.45488,-345.6382)" />
    <linearGradient
       x1="195.3634"
       y1="584.02191"
       x2="373.5531"
       y2="545.63617"
       id="linearGradient2301"
       xlink:href="#linearGradient6085"
       gradientUnits="userSpaceOnUse"
       gradientTransform="matrix(0.9691982,0,0,0.9213697,-143.45488,-345.6382)" />
    <linearGradient
       x1="295.4061"
       y1="539.09406"
       x2="453.17953"
       y2="539.09406"
       id="linearGradient2304"
       xlink:href="#linearGradient7070"
       gradientUnits="userSpaceOnUse"
       gradientTransform="matrix(0.9691982,0,0,0.9213697,-143.45488,-345.6382)" />
    <linearGradient
       x1="362.02295"
       y1="571.31091"
       x2="163.02289"
       y2="571.31091"
       id="linearGradient2307"
       xlink:href="#linearGradient7070"
       gradientUnits="userSpaceOnUse"
       gradientTransform="matrix(0.9691982,0,0,0.9213697,-143.45488,-345.6382)" />
    <linearGradient
       x1="325.45804"
       y1="564.78363"
       x2="470.36774"
       y2="535.4892"
       id="linearGradient2310"
       xlink:href="#linearGradient4119"
       gradientUnits="userSpaceOnUse"
       gradientTransform="matrix(0.9691982,0,0,0.9213697,-143.45488,-345.6382)" />
    <linearGradient
       x1="313.92975"
       y1="550.71338"
       x2="161.39671"
       y2="582.0282"
       id="linearGradient2313"
       xlink:href="#linearGradient4119"
       gradientUnits="userSpaceOnUse"
       gradientTransform="matrix(0.9691982,0,0,0.9213697,-143.45488,-345.6382)" />
  </defs>
  <path
     d="M 181.73016,295.13296 C 141.66442,310.42532 118.0747,324.64183 50.103915,310.46175 C 56.275237,225.55893 10.579693,138.65467 5.4514521,58.126466 C 50.857273,60.014251 83.428536,62.835458 124.67426,46.335108"
     style="fill:url(#linearGradient2313);fill-opacity:1;fill-rule:evenodd;stroke:#000000;stroke-width:1.19719958px;stroke-linecap:butt;stroke-linejoin:miter;stroke-opacity:1"
     id="path2164" />
  <path
     d="M 141.26317,40.513452 C 176.14205,22.53202 202.70562,3.7857489 242.35137,5.7289176 C 283.23221,84.270341 301.04672,185.82588 311.81074,274.57211 C 274.57358,278.33285 237.64746,275.31435 202.6603,289.90089"
     style="fill:url(#linearGradient2310);fill-opacity:1;fill-rule:evenodd;stroke:#000000;stroke-width:1.19719958px;stroke-linecap:butt;stroke-linejoin:miter;stroke-opacity:1"
     id="path2166" />
  <path
     d="M 22.925446,71.086121 C 63.345499,72.766616 92.340284,75.27804 129.05703,60.589499 C 143.52255,133.78666 172.42726,206.23493 179.84793,282.06819 C 144.18159,295.68138 123.18213,308.33685 62.674852,295.71381 C 68.168539,220.13371 27.490573,142.77194 22.925446,71.086121 z "
     style="fill:url(#linearGradient2307);fill-opacity:1;fill-rule:evenodd;stroke:#000000;stroke-width:1.06574142px;stroke-linecap:butt;stroke-linejoin:miter;stroke-opacity:1"
     id="path2160" />
  <path
     d="M 143.39871,55.609441 C 174.44772,39.602448 198.09449,22.914609 233.38695,24.644407 C 269.77889,94.561616 285.63727,184.96589 295.21936,263.96736 C 262.07101,267.31516 229.19956,264.62809 198.05415,277.61296 C 178.39349,162.57323 143.39871,60.841826 143.39871,55.609441 z "
     style="fill:url(#linearGradient2304);fill-opacity:1;fill-rule:evenodd;stroke:#000000;stroke-width:1.06574142px;stroke-linecap:butt;stroke-linejoin:miter;stroke-opacity:1"
     id="path2162" />
  <path
     d="M 22.940595,70.698233 C 63.360647,72.378729 92.355433,74.890152 129.07217,60.201612 C 143.53768,133.39877 171.46337,202.12415 179.86307,281.6803 C 144.19673,295.29349 123.19727,307.94896 62.690001,295.32592 C 68.183688,219.74582 27.505722,142.38406 22.940595,70.698233 z "
     style="fill:url(#linearGradient2301);fill-opacity:1;fill-rule:evenodd;stroke:#000000;stroke-width:1.06574142px;stroke-linecap:butt;stroke-linejoin:miter;stroke-opacity:1"
     id="path2168" />
  <path
     d="M 143.41385,55.221553 C 174.46286,39.214561 198.10963,22.526722 233.40209,24.25652 C 269.79403,94.173729 285.65241,184.578 295.2345,263.57947 C 262.08615,266.92727 229.2147,264.2402 198.06929,277.22508 C 178.40863,162.18534 143.41385,60.453938 143.41385,55.221553 z "
     style="fill:url(#linearGradient2298);fill-opacity:1;fill-rule:evenodd;stroke:#000000;stroke-width:1.06574142px;stroke-linecap:butt;stroke-linejoin:miter;stroke-opacity:1"
     id="path2170" />
  <path
     d="M 78.106659,265.27056 C 77.812274,267.05303 77.713794,268.85162 77.614005,270.65047 C 77.550484,272.43336 77.556745,274.21757 77.541723,276.0012 C 77.437825,277.73368 77.581537,279.42754 77.874826,281.13202 C 77.9496,282.61543 78.686365,283.78449 79.393725,285.00482 C 80.535072,286.15087 82.030477,286.46959 83.587145,286.77934 C 87.283686,286.58266 87.649442,285.38849 80.47691,289.1428 C 81.629946,288.07994 81.874814,286.66174 82.262755,285.26005 C 82.460074,284.27365 82.413145,283.27074 82.433625,282.27473 C 89.103201,278.42256 88.530366,277.4394 89.226657,281.58315 C 89.766665,282.73436 90.405125,283.84262 91.016311,284.9604 C 91.395946,286.10301 92.179707,286.75587 93.066911,287.48598 C 93.936631,287.86144 94.8841,287.78432 95.809296,287.83878 C 98.322737,287.50176 104.73412,283.60289 92.304055,290.13441 C 93.101366,289.31682 93.067551,288.31291 93.202987,287.27143 C 93.264444,285.93212 93.242346,284.59087 93.237529,283.25071 C 93.221682,282.12082 93.211923,280.99088 93.202337,279.86093 C 93.350789,278.75443 92.88224,277.85706 92.464884,276.86261 C 91.872772,275.96157 91.233867,275.09374 90.623621,274.20355 L 96.8447,270.75425 C 97.471365,271.68198 98.126882,272.58988 98.730886,273.53126 C 99.190926,274.58495 99.756056,275.57567 99.618148,276.75218 C 99.613341,277.88899 99.607255,279.0258 99.605277,280.16261 C 99.611945,281.51052 99.628276,282.85851 99.610249,284.2064 C 99.52337,285.33543 99.566655,286.48925 98.96015,287.50589 C 96.219781,289.11441 93.474944,291.97458 89.962376,291.85066 C 88.930053,291.75325 87.910389,291.73631 87.002347,291.18128 C 86.09166,290.318 85.195665,289.53932 84.781284,288.30875 C 84.146324,287.14998 83.482093,286 82.925134,284.80358 C 82.081922,280.70929 82.431328,281.20596 88.883697,279.15198 C 88.850792,280.19552 88.864284,281.2438 88.696709,282.27899 C 88.381429,283.77331 88.035309,285.2656 87.119262,286.55167 C 84.103543,288.30039 81.423478,291.37178 77.720278,290.66141 C 76.06701,290.22536 74.483728,289.75157 73.277134,288.50952 C 72.383921,287.22468 71.769992,285.89665 71.60643,284.30894 C 71.284443,282.56474 71.103135,280.83919 71.216367,279.06266 C 71.219623,277.26301 71.243873,275.46369 71.325596,273.66534 C 71.401959,271.91073 71.475501,270.1556 71.634537,268.40554 L 78.106659,265.27056 z "
     style="fill:#000000;fill-opacity:1"
     id="path7086" />
  <path
     d="M 111.36021,266.82221 C 111.24538,269.38931 111.53747,271.96084 111.80918,274.51247 C 112.13245,277.6376 112.40519,280.7671 112.65967,283.89783 C 112.77461,285.19992 112.79696,286.50571 112.82394,287.81111 C 112.89143,288.88518 113.51911,288.44704 114.30012,288.76171 C 116.0392,288.65484 117.6359,287.93923 119.23774,287.34023 C 120.90886,286.64046 122.6271,286.14434 124.38083,285.69237 C 125.6734,285.21852 122.03364,287.09486 120.81869,287.72764 C 121.65071,287.19725 122.12167,286.37223 122.69237,285.62888 C 123.28654,284.88939 123.28813,283.99585 123.4708,283.13215 C 123.5527,282.16245 122.84323,282.27063 122.27556,281.81062 C 121.30254,281.60286 120.3003,281.63993 119.31022,281.61996 C 118.40996,281.69927 117.62022,282.05142 116.78256,282.32664 C 115.97016,282.74943 115.04446,282.86633 114.15831,283.06628 C 113.21614,283.29859 112.23897,283.42963 111.28758,283.57597 C 106.85756,284.86874 113.90962,281.20746 116.37297,279.54962 C 117.74369,279.20226 119.12948,278.909 120.50333,278.56354 C 121.86295,278.07192 123.14737,277.42589 124.44982,276.81686 C 114.29361,283.15688 119.11267,279.79486 121.2221,277.73288 C 121.95991,276.78209 122.57218,275.74828 123.21128,274.73597 C 123.82178,273.97603 123.68536,273.17542 123.74741,272.33877 C 123.32167,271.76038 122.59498,271.76402 121.96622,271.5391 C 120.93,271.33947 119.8825,271.43779 118.8465,271.47122 C 117.76331,271.59394 116.71232,271.82646 115.65824,272.08446 C 112.68326,272.36446 108.84206,275.14706 119.15416,269.55266 C 115.54703,272.22119 113.74019,272.97519 110.24254,273.77685 C 109.76763,273.93068 109.26469,273.96535 108.77701,274.05937 L 114.53286,269.93234 C 115.01072,269.8245 115.49601,269.74377 115.96719,269.60865 C 118.69168,268.78966 123.20971,266.94153 112.42044,272.01688 C 116.4022,269.84771 117.73724,268.41318 121.38743,267.93463 C 122.45801,267.71508 123.52343,267.47572 124.62172,267.40704 C 125.71991,267.42176 126.8279,267.37293 127.90353,267.64249 C 128.7594,268.03051 129.6245,268.14861 130.10437,269.04188 C 130.13047,270.05265 130.42891,270.97417 129.77166,271.94642 C 129.12856,272.98909 128.46241,274.02371 127.81656,275.07021 C 125.1973,277.9192 123.17715,279.28175 118.8441,281.07036 C 117.53546,281.66768 116.24131,282.31208 114.83633,282.68741 C 113.43112,283.01916 112.02842,283.35528 110.63542,283.73109 C 112.64587,282.14084 114.43853,279.68597 117.039,279.421 C 117.99285,279.27392 118.95897,279.1919 119.88212,278.89595 C 120.76176,278.65565 121.66191,278.49457 122.49128,278.10139 C 123.36061,277.87875 124.19925,277.537 125.13096,277.61099 C 126.19358,277.65452 127.27261,277.61523 128.2818,277.99182 C 129.07752,278.65647 129.89701,278.86757 129.92186,280.07318 C 129.81065,281.02521 129.7719,281.98879 129.31233,282.86678 C 128.73685,283.66384 128.26535,284.5339 127.4971,285.198 C 124.6423,286.83235 122.0226,289.17446 118.67982,289.81705 C 117.00358,290.30192 115.34549,290.82032 113.71968,291.45337 C 112.00077,292.07592 110.3001,292.85536 108.41728,292.70036 C 107.25508,292.26194 106.65587,292.22908 106.40653,290.92006 C 106.41812,289.60036 106.43549,288.28053 106.40963,286.96086 C 106.31398,283.81172 106.17542,280.66138 105.7372,277.53476 C 105.41423,275.00995 105.10079,272.48097 104.91622,269.94356 L 111.36021,266.82221 z "
     style="fill:#000000;fill-opacity:1"
     id="path7088" />
</svg>
