<?xml version="1.0" encoding="UTF-8" standalone="no"?>
<!-- Created with Inkscape (http://www.inkscape.org/) -->

<svg
   xmlns:dc="http://purl.org/dc/elements/1.1/"
   xmlns:cc="http://creativecommons.org/ns#"
   xmlns:rdf="http://www.w3.org/1999/02/22-rdf-syntax-ns#"
   xmlns:svg="http://www.w3.org/2000/svg"
   xmlns="http://www.w3.org/2000/svg"
   xmlns:sodipodi="http://sodipodi.sourceforge.net/DTD/sodipodi-0.dtd"
   xmlns:inkscape="http://www.inkscape.org/namespaces/inkscape"
   version="1.0"
   width="348.32425"
   height="377.65652"
   id="svg2728"
   sodipodi:version="0.32"
   inkscape:version="0.48.3.1 r9886"
   sodipodi:docname="Wikibooks-logo-sl.svg"
   inkscape:output_extension="org.inkscape.output.svg.inkscape">
  <metadata
     id="metadata2399">
    <rdf:RDF>
      <cc:Work
         rdf:about="">
        <dc:format>image/svg+xml</dc:format>
        <dc:type
           rdf:resource="http://purl.org/dc/dcmitype/StillImage" />
        <dc:title></dc:title>
      </cc:Work>
    </rdf:RDF>
  </metadata>
  <sodipodi:namedview
     inkscape:window-height="813"
     inkscape:window-width="1440"
     inkscape:pageshadow="2"
     inkscape:pageopacity="0.0"
     guidetolerance="10.0"
     gridtolerance="10.0"
     objecttolerance="10.0"
     borderopacity="1.0"
     bordercolor="#666666"
     pagecolor="#ffffff"
     id="base"
     showgrid="false"
     inkscape:zoom="2.335"
     inkscape:cx="191.51578"
     inkscape:cy="81.706769"
     inkscape:window-x="0"
     inkscape:window-y="27"
     inkscape:current-layer="svg2728"
     fit-margin-left="0"
     fit-margin-right="0"
     fit-margin-bottom="0"
     fit-margin-top="0"
     inkscape:window-maximized="1" />
  <defs
     id="defs2731">
    <inkscape:perspective
       sodipodi:type="inkscape:persp3d"
       inkscape:vp_x="0 : 200 : 1"
       inkscape:vp_y="0 : 1000 : 0"
       inkscape:vp_z="400 : 200 : 1"
       inkscape:persp3d-origin="200 : 133.33333 : 1"
       id="perspective2401" />
  </defs>
  <g
     id="layer1"
     transform="translate(-21.81323,-19.6875)" />
  <g
     id="g3299"
     transform="translate(-21.833632,-16.0625)">
    <path
       d="m 191.65664,115.97593 c 5.27687,66.02591 16.7973,129.9439 51.19815,191.4892 l 13.00988,0.0971 82.29114,-73.41929 -78.43513,-198.199613 -56.54009,54.008439 -11.52395,26.024184 z"
       style="fill:#fdfcf8;fill-opacity:1;fill-rule:evenodd;stroke:none"
       id="path3297"
       inkscape:connector-curvature="0" />
    <path
       d="m 125.84082,116.04509 c 5.27687,66.02591 18.77829,130.78651 53.17914,192.33181 l 20.33475,0.18272 61.96822,-77.71837 -67.41807,-194.828778 -56.54009,54.008439 -11.52395,26.024179 z"
       style="fill:#f4eed7;fill-rule:evenodd;stroke:none"
       id="path3214"
       inkscape:connector-curvature="0" />
    <path
       d="m 50.218883,114.63177 c 5.376652,69.28374 27.01509,131.34001 52.459127,191.70491 l 26.80214,-0.33096 70.40072,-80.03768 L 118.28293,34.599156 61.742841,88.607595 50.218883,114.63177 z"
       style="fill:#e9ddaf;fill-rule:evenodd;stroke:none"
       id="path2238"
       inkscape:connector-curvature="0" />
    <g
       transform="translate(1.82723,0)"
       id="layer2">
      <path
         d="m 261.5,16.5 c -27.18692,26.301966 -54.0625,52.375 -54.0625,52.375 0,0 9.65625,19.65625 9.65625,19.65625 13.09357,-12.981225 26.26128,-24.397339 38.8125,-37.09375 26.43326,58.0352 44.44408,104.81167 66.59843,166.64698 7.25271,20.08798 5.77391,20.98678 -11.5625,31.84375 -27.85476,13.85172 -36.67281,22.93724 -69.87108,58.25927 l 22.71875,0 c 27.75344,-25.09151 38.05553,-33.94669 72.80858,-52.25927 12.29389,-7.09788 13.97957,-16.05857 8.9375,-30 C 329.27475,180.73146 294.04485,83.322614 261.5,16.5 z"
         style="fill:#5f96d3;fill-opacity:1"
         id="path3272"
         inkscape:connector-curvature="0" />
      <path
         d="m 190.625,17.125 c -19.88757,13.424352 -35.22867,32.744448 -52.53125,49.3125 0,0 7.09375,22.625 7.09375,22.625 13.54117,-10.670666 25.32557,-23.536457 37.5,-35.71875 l 65.65625,164.6875 c 3.78574,11.15069 -2.17642,21.0724 -14.15625,31.875 -14.34924,11.53271 -43.89257,38.42056 -57.28125,58.90625 l 20.375,0 c 21.38465,-21.96593 25.2452,-24.94746 49.59375,-46.03125 16.34634,-16.67844 31.114,-25.22072 23.40625,-46.59375 L 190.625,17.125 z"
         style="fill:#2a62a1;fill-opacity:1;fill-rule:evenodd;stroke:none"
         id="path3138"
         inkscape:connector-curvature="0" />
      <path
         d="m 123.5,16.0625 c -5.30135,1.779198 -9.71211,5.198015 -13.84375,8.8125 -56.088558,53.972012 -58.34375,56.25 -58.34375,56.25 -2.951465,2.742742 -3.197984,6.75235 -3.15625,10.78125 l 0.235404,22.72552 c 0,0 25.904224,-25.181716 64.577096,-62.41302 20.81842,54.23768 42.54552,108.18649 63.9375,162.21875 2.9295,8.16333 -4.08223,14.8534 -12.96875,23.78125 -12.27355,11.97358 -37.94466,36.62136 -64.21875,69.53125 l 26.34375,0 c 0,0 63.31249,-69.4375 63.3125,-69.4375 6.01928,-8.27793 13.50319,-16.3712 10.34375,-23.875 0,0 -76.21875,-198.374999 -76.21875,-198.375 z"
         style="fill:#15304f;fill-opacity:1;fill-rule:evenodd;stroke:none"
         id="path3136"
         inkscape:connector-curvature="0" />
    </g>
  </g>
  <text
     xml:space="preserve"
     style="font-size:54.55552673px;font-style:normal;font-variant:normal;font-weight:normal;font-stretch:normal;text-align:center;line-height:125%;letter-spacing:0px;word-spacing:0px;writing-mode:lr-tb;text-anchor:middle;fill:#000000;fill-opacity:1;stroke:none;font-family:cmsy10;-inkscape-font-specification:cmsy10"
     x="175.36086"
     y="338.40518"
     id="text2991"
     sodipodi:linespacing="125%"><tspan
       sodipodi:role="line"
       id="tspan2993"
       x="175.36086"
       y="338.40518"
       style="font-style:normal;font-variant:normal;font-weight:bold;font-stretch:normal;font-family:DejaVu Sans;-inkscape-font-specification:DejaVu Sans Bold"><tspan
         style="fill:#0b2645;fill-opacity:1"
         id="tspan3763">WIKI</tspan><tspan
         style="fill:#0a4e98;fill-opacity:1"
         id="tspan3787">KNJIGE</tspan></tspan></text>
  <g
     style="font-size:42.31962967px;font-style:normal;font-variant:normal;font-weight:normal;font-stretch:normal;text-align:center;line-height:125%;letter-spacing:0px;word-spacing:0px;writing-mode:lr-tb;text-anchor:middle;fill:#000000;fill-opacity:1;stroke:none;font-family:Charis SIL;-inkscape-font-specification:Charis SIL"
     id="text3789">
    <path
       id="path3857"
       style="font-size:29.62374115px;font-style:italic;-inkscape-font-specification:Charis SIL Italic"
       d="m 336.92251,358.46183 -1.86595,9.30081 c -0.0579,0.26037 -0.0482,0.49663 0.0289,0.70878 0.0771,0.2025 0.19768,0.37608 0.36162,0.52073 0.17357,0.135 0.37126,0.24108 0.59305,0.31822 0.23143,0.0772 0.47251,0.11572 0.72324,0.11572 0.27964,0 0.56894,-0.0241 0.86788,-0.0723 0.29893,-0.0579 0.58341,-0.12536 0.85342,-0.2025 0.27964,-0.0771 0.53519,-0.15429 0.76663,-0.23144 0.24107,-0.0868 0.43876,-0.15911 0.59305,-0.21697 l 0,1.18611 c -0.12537,0.0579 -0.36644,0.15911 -0.72323,0.30376 -0.35681,0.14464 -0.76664,0.29411 -1.2295,0.4484 -0.46288,0.15429 -0.94986,0.2893 -1.46094,0.40502 -0.51109,0.12536 -0.97878,0.18804 -1.40308,0.18804 -0.54002,0 -0.98842,-0.0675 -1.34522,-0.20251 -0.35679,-0.12536 -0.64127,-0.29894 -0.85341,-0.52073 -0.21215,-0.23143 -0.36644,-0.50144 -0.46287,-0.81002 -0.0868,-0.31823 -0.13019,-0.66056 -0.13019,-1.027 0,-0.19286 0.005,-0.39054 0.0145,-0.59305 0.0193,-0.2025 0.053,-0.40983 0.10125,-0.62198 l 1.80809,-8.99706 -1.86595,0.17358 0,-0.96914 2.22757,-0.9836 1.44647,-2.96527 1.80809,0 -0.59305,3.38475 4.09351,0 0,1.35968 -4.35388,0 m -9.17063,0.73767 c -1e-5,-0.19285 -0.0386,-0.38089 -0.11572,-0.56412 -0.0772,-0.19285 -0.18323,-0.36161 -0.31822,-0.50627 -0.13501,-0.14463 -0.30377,-0.26035 -0.50627,-0.34715 -0.20251,-0.0964 -0.4243,-0.14463 -0.66537,-0.14465 -0.32788,2e-5 -0.64128,0.0868 -0.94021,0.26037 -0.29894,0.17359 -0.58824,0.40502 -0.86788,0.6943 -0.27002,0.28931 -0.52556,0.622 -0.76663,0.99807 -0.23144,0.37609 -0.44359,0.77146 -0.63645,1.18611 -0.18322,0.41466 -0.34716,0.83414 -0.4918,1.25843 -0.14465,0.4243 -0.26037,0.82449 -0.34715,1.20057 0.6268,-0.0578 1.27289,-0.2025 1.93827,-0.43394 0.67501,-0.23143 1.28735,-0.52555 1.83702,-0.88235 0.54965,-0.36643 0.99805,-0.78109 1.34522,-1.24397 0.35678,-0.46286 0.53518,-0.95466 0.53519,-1.4754 m 2.63258,0.0289 c -10e-6,0.54003 -0.12537,1.03665 -0.37608,1.48987 -0.25074,0.45323 -0.59307,0.86307 -1.027,1.2295 -0.42431,0.36645 -0.92093,0.69431 -1.48986,0.9836 -0.55931,0.27966 -1.15237,0.52074 -1.77916,0.72323 -0.61717,0.19287 -1.2488,0.35199 -1.89488,0.47734 -0.6461,0.11572 -1.26326,0.18805 -1.85149,0.21697 -0.0289,0.19287 -0.0579,0.42431 -0.0868,0.69431 -0.0193,0.27001 -0.0289,0.49662 -0.0289,0.67984 -10e-6,0.54002 0.0627,1.03664 0.18804,1.48987 0.135,0.45323 0.32304,0.84859 0.56412,1.1861 0.25072,0.32787 0.54966,0.58824 0.89681,0.7811 0.34715,0.18322 0.7377,0.27483 1.17165,0.27483 0.66537,0 1.39824,-0.24108 2.19863,-0.72324 0.80038,-0.48215 1.7454,-1.20057 2.83509,-2.15524 l 0,1.86595 c -0.27966,0.27001 -0.622,0.56894 -1.027,0.89681 -0.40502,0.31822 -0.86789,0.62198 -1.38861,0.91128 -0.51109,0.27965 -1.0704,0.51108 -1.67791,0.6943 -0.60752,0.19286 -1.24879,0.2893 -1.9238,0.2893 -0.29895,0 -0.62681,-0.0289 -0.9836,-0.0868 -0.34716,-0.0579 -0.69432,-0.15911 -1.04146,-0.30376 -0.34716,-0.15429 -0.68467,-0.36162 -1.01253,-0.62198 -0.31823,-0.26037 -0.6027,-0.58823 -0.85342,-0.9836 -0.24108,-0.40501 -0.43877,-0.88235 -0.59306,-1.43201 -0.14464,-0.5593 -0.21697,-1.21503 -0.21697,-1.9672 0,-0.78109 0.0916,-1.55736 0.27483,-2.32882 0.19286,-0.78109 0.45805,-1.52361 0.79556,-2.22757 0.34715,-0.71358 0.76181,-1.37414 1.24397,-1.98167 0.48215,-0.61714 1.01252,-1.14752 1.59112,-1.59111 0.57858,-0.45322 1.19574,-0.80519 1.85148,-1.05593 0.66537,-0.26035 1.35003,-0.39053 2.05399,-0.39055 0.68465,2e-5 1.2536,0.11574 1.70684,0.34716 0.46286,0.2218 0.83412,0.49181 1.11378,0.81002 0.27964,0.31824 0.47732,0.6461 0.59305,0.9836 0.11571,0.33752 0.17357,0.61235 0.17358,0.82449 m -12.23716,-1.215 c -2e-5,0.25074 -0.0241,0.487 -0.0723,0.70878 -0.0482,0.2218 -0.10609,0.42913 -0.17357,0.62198 -0.0579,0.19287 -0.12538,0.36645 -0.20251,0.52073 -0.0675,0.1543 -0.12537,0.27966 -0.17358,0.37608 -0.65574,1.21505 -1.35969,2.37704 -2.11185,3.486 -0.75217,1.10897 -1.48987,2.13596 -2.2131,3.08098 -0.72324,0.93539 -1.4079,1.78399 -2.05399,2.54579 -0.64609,0.75217 -1.19575,1.37897 -1.64897,1.88042 l -1.70684,0 c 0.2025,-0.43394 0.35679,-0.83414 0.46287,-1.20058 0.10607,-0.37608 0.14946,-0.72805 0.13018,-1.05592 0,-0.0289 -0.01,-0.17357 -0.0289,-0.43394 -0.0193,-0.27001 -0.0482,-0.61234 -0.0868,-1.027 -0.0289,-0.42429 -0.0675,-0.90645 -0.11571,-1.44647 -0.0482,-0.54001 -0.10126,-1.09931 -0.15912,-1.6779 -0.0579,-0.57859 -0.12054,-1.15717 -0.18804,-1.73577 -0.0579,-0.58822 -0.12536,-1.13306 -0.2025,-1.63451 -0.0675,-0.51108 -0.13983,-0.95949 -0.21697,-1.34522 -0.0675,-0.39536 -0.13983,-0.6943 -0.21697,-0.89682 -0.0964,-0.20249 -0.19287,-0.35196 -0.2893,-0.4484 -0.0964,-0.0964 -0.22661,-0.14464 -0.39055,-0.14465 l -2.11184,-0.11572 0,-0.85341 3.16777,-0.98361 c 0.81002,0.0193 1.39825,0.20253 1.76469,0.54966 0.36644,0.33753 0.58823,0.85826 0.66538,1.56219 l 0.92574,9.11278 c 0.50144,-0.65573 0.96431,-1.27772 1.38862,-1.86595 0.42429,-0.59787 0.81001,-1.17646 1.15717,-1.73577 0.35679,-0.55929 0.67983,-1.11377 0.96914,-1.66344 0.28928,-0.55929 0.54965,-1.13306 0.78109,-1.7213 l -0.56412,-3.58725 c 0.19285,-0.19285 0.43393,-0.34714 0.72324,-0.46287 0.28928,-0.12535 0.61715,-0.18803 0.9836,-0.18805 0.63643,2e-5 1.09448,0.16395 1.37414,0.49181 0.28929,0.31823 0.43393,0.74735 0.43395,1.28735 m -14.42138,0.0868 c -10e-6,0.34717 -0.0772,0.62682 -0.23144,0.83896 -0.1543,0.20251 -0.34234,0.36163 -0.56412,0.47733 -0.22181,0.11573 -0.45806,0.1977 -0.70877,0.2459 -0.24109,0.0386 -0.45324,0.0627 -0.63645,0.0723 l -1.33076,-1.80809 c -0.0579,-0.0482 -0.14947,-0.0964 -0.27483,-0.14465 -0.12536,-0.0579 -0.27965,-0.0868 -0.46287,-0.0868 -0.32787,1e-5 -0.6027,0.0723 -0.82449,0.21697 -0.22179,0.13502 -0.40501,0.3086 -0.54965,0.52073 -0.13501,0.20252 -0.23144,0.42431 -0.2893,0.66538 -0.0579,0.23145 -0.0868,0.44359 -0.0868,0.63645 0,0.27002 0.0771,0.54484 0.23144,0.82449 0.15428,0.27001 0.35679,0.54484 0.60752,0.82448 0.25071,0.27002 0.53036,0.54003 0.83895,0.81003 0.31822,0.26037 0.63644,0.51591 0.95467,0.76663 0.32786,0.26037 0.64126,0.53038 0.94021,0.81002 0.30857,0.27002 0.5834,0.55449 0.82449,0.85342 0.24107,0.2893 0.43393,0.59788 0.57859,0.92574 0.14463,0.32787 0.21696,0.67021 0.21697,1.027 -10e-6,0.60752 -0.12537,1.19093 -0.37609,1.75023 -0.24108,0.5593 -0.6027,1.05592 -1.08485,1.48986 -0.47252,0.43395 -1.06557,0.7811 -1.77916,1.04146 -0.70396,0.25073 -1.51398,0.37609 -2.43007,0.37609 -0.7136,0 -1.33076,-0.082 -1.85149,-0.2459 -0.52073,-0.15429 -0.94985,-0.3568 -1.28736,-0.60752 -0.33751,-0.26037 -0.58823,-0.55448 -0.75216,-0.88235 -0.16394,-0.32786 -0.2459,-0.66055 -0.2459,-0.99807 0,-0.47251 0.13982,-0.85341 0.41947,-1.14271 0.2893,-0.29893 0.7377,-0.4484 1.34522,-0.4484 0.18322,0 0.3568,0.0241 0.52073,0.0723 0.16393,0.0482 0.3134,0.10608 0.44841,0.17358 0.135,0.0579 0.25072,0.12536 0.34715,0.2025 0.10607,0.0675 0.18322,0.12537 0.23144,0.17358 l -0.56413,1.44647 c 0.21215,0.29894 0.47252,0.55448 0.7811,0.76663 0.31822,0.20251 0.72805,0.30376 1.2295,0.30376 0.29893,0 0.58823,-0.0579 0.86788,-0.17358 0.27965,-0.11571 0.52555,-0.27965 0.7377,-0.4918 0.22179,-0.21214 0.39537,-0.46769 0.52073,-0.76663 0.12536,-0.30858 0.18804,-0.65091 0.18804,-1.02699 0,-0.29894 -0.0627,-0.57859 -0.18804,-0.83896 -0.11572,-0.27 -0.28448,-0.53036 -0.50626,-0.78109 -0.21216,-0.25072 -0.4677,-0.49662 -0.76663,-0.7377 -0.2893,-0.25072 -0.61235,-0.51108 -0.96914,-0.7811 -0.30858,-0.24107 -0.60752,-0.50143 -0.89681,-0.78109 -0.27965,-0.27964 -0.5352,-0.57376 -0.76663,-0.88235 -0.2218,-0.31821 -0.40019,-0.6509 -0.5352,-0.99806 -0.135,-0.34715 -0.2025,-0.70394 -0.2025,-1.07039 0,-0.72323 0.16393,-1.3645 0.4918,-1.92381 0.32786,-0.55929 0.74734,-1.02698 1.25843,-1.40308 0.52073,-0.38571 1.09449,-0.675 1.7213,-0.86788 0.63644,-0.19285 1.25842,-0.28928 1.86595,-0.2893 0.55929,2e-5 1.02699,0.0675 1.40308,0.20251 0.38571,0.12538 0.69429,0.28449 0.92574,0.47734 0.24107,0.18323 0.40982,0.38574 0.50626,0.60751 0.10607,0.21217 0.15911,0.40503 0.15912,0.57859 m -21.94295,0.36168 -1.86595,9.30081 c -0.0579,0.26037 -0.0482,0.49663 0.0289,0.70878 0.0771,0.2025 0.19768,0.37608 0.36161,0.52073 0.17358,0.135 0.37126,0.24108 0.59306,0.31822 0.23143,0.0772 0.47251,0.11572 0.72323,0.11572 0.27965,0 0.56894,-0.0241 0.86789,-0.0723 0.29893,-0.0579 0.5834,-0.12536 0.85341,-0.2025 0.27965,-0.0771 0.53519,-0.15429 0.76663,-0.23144 0.24107,-0.0868 0.43876,-0.15911 0.59306,-0.21697 l 0,1.18611 c -0.12537,0.0579 -0.36645,0.15911 -0.72324,0.30376 -0.3568,0.14464 -0.76664,0.29411 -1.2295,0.4484 -0.46288,0.15429 -0.94985,0.2893 -1.46094,0.40502 -0.51109,0.12536 -0.97878,0.18804 -1.40307,0.18804 -0.54002,0 -0.98843,-0.0675 -1.34522,-0.20251 -0.3568,-0.12536 -0.64127,-0.29894 -0.85342,-0.52073 -0.21215,-0.23143 -0.36644,-0.50144 -0.46287,-0.81002 -0.0868,-0.31823 -0.13018,-0.66056 -0.13018,-1.027 0,-0.19286 0.005,-0.39054 0.0145,-0.59305 0.0193,-0.2025 0.053,-0.40983 0.10125,-0.62198 l 1.80809,-8.99706 -1.86594,0.17358 0,-0.96914 2.22756,-0.9836 1.44647,-2.96527 1.80809,0 -0.59305,3.38475 4.09352,0 0,1.35968 -4.35388,0 m -4.97589,-0.23146 c -1e-5,0.34716 -0.0627,0.62681 -0.18804,0.83895 -0.12538,0.20252 -0.30377,0.35681 -0.5352,0.46287 -0.23144,0.10609 -0.5111,0.17841 -0.83895,0.21697 -0.31824,0.0289 -0.67985,0.0434 -1.08486,0.0434 l -0.70877,-1.41755 c -0.36644,0.15431 -0.76181,0.42431 -1.1861,0.81003 -0.41467,0.37609 -0.81003,0.81003 -1.18611,1.30182 -0.37609,0.48217 -0.70396,0.98361 -0.9836,1.50433 -0.27966,0.5111 -0.46288,0.98361 -0.54966,1.41754 l -1.54772,7.4638 -2.7483,0 2.54579,-12.58431 -2.48793,-0.27483 0,-0.85341 4.4696,-0.92575 1.1861,0 -0.62198,2.9942 c 0.60751,-0.93537 1.297,-1.66825 2.06845,-2.19864 0.77145,-0.53035 1.60558,-0.79554 2.5024,-0.79556 0.35679,2e-5 0.65572,0.0675 0.89681,0.20251 0.24107,0.12538 0.43393,0.28931 0.57859,0.4918 0.15428,0.20252 0.26035,0.41949 0.31823,0.65091 0.0675,0.23145 0.10124,0.44842 0.10125,0.65092 m -16.0703,3.60171 c -10e-6,-0.43393 -0.0482,-0.87269 -0.14465,-1.31629 -0.0868,-0.45322 -0.22662,-0.86305 -0.41948,-1.2295 -0.18323,-0.36643 -0.41948,-0.66536 -0.70877,-0.89681 -0.2893,-0.23143 -0.63163,-0.34714 -1.02699,-0.34716 -0.35681,2e-5 -0.7136,0.082 -1.07039,0.2459 -0.3568,0.15431 -0.68467,0.33271 -0.9836,0.5352 -0.2893,0.19287 -0.54002,0.38574 -0.75217,0.57859 -0.21215,0.18323 -0.3568,0.30377 -0.43394,0.36162 l -1.76469,9.18509 c 0.0868,0.0482 0.20732,0.12536 0.36161,0.23144 0.16393,0.0964 0.35197,0.19286 0.56413,0.28929 0.21214,0.0964 0.43876,0.18322 0.67984,0.26037 0.24107,0.0675 0.49179,0.10125 0.75217,0.10125 0.54,0 1.03663,-0.12054 1.48986,-0.36162 0.45322,-0.24108 0.86305,-0.56412 1.2295,-0.96914 0.36643,-0.41465 0.68948,-0.89198 0.96914,-1.432 0.27964,-0.54001 0.51107,-1.10414 0.6943,-1.69237 0.18321,-0.59787 0.32304,-1.20057 0.41948,-1.80809 0.0964,-0.60751 0.14464,-1.1861 0.14465,-1.73577 m 2.93634,-0.11572 c -2e-5,0.81004 -0.0965,1.61042 -0.2893,2.40115 -0.19287,0.7811 -0.47253,1.52362 -0.83895,2.22756 -0.35681,0.70396 -0.79075,1.35487 -1.30183,1.95274 -0.51109,0.59788 -1.08004,1.11378 -1.70683,1.54772 -0.62682,0.43395 -1.30666,0.77628 -2.03953,1.027 -0.73288,0.24108 -1.49951,0.36162 -2.29989,0.36162 -0.44359,0 -0.84378,-0.0627 -1.20057,-0.18804 -0.3568,-0.12537 -0.65574,-0.24108 -0.89681,-0.34716 l -0.94021,4.75889 c -0.0386,0.16393 -0.0193,0.29412 0.0579,0.39055 0.0868,0.10607 0.26036,0.17357 0.52073,0.20251 l 1.86595,0.15911 0,1.11378 -7.4638,0 0,-1.11378 1.54773,-0.15911 c 0.41465,-0.0289 0.65091,-0.22662 0.70877,-0.59306 l 3.34135,-17.16962 -2.48793,-0.27483 0,-0.85341 4.48406,-0.92575 1.15718,0 -0.36162,1.83702 c 0.25072,-0.16392 0.53519,-0.35196 0.85342,-0.56412 0.32786,-0.21214 0.67501,-0.40982 1.04146,-0.59305 0.36643,-0.19285 0.74733,-0.35196 1.14271,-0.47734 0.405,-0.13499 0.81484,-0.20249 1.2295,-0.20251 0.75216,2e-5 1.37414,0.16395 1.86595,0.49181 0.50143,0.31823 0.8968,0.73771 1.18611,1.25843 0.29892,0.52074 0.51107,1.10897 0.63644,1.76469 0.12535,0.65575 0.18803,1.31148 0.18805,1.9672 m -16.95268,6.61038 c -0.0482,0.27965 -0.0338,0.50627 0.0434,0.67984 0.0771,0.17358 0.17839,0.3134 0.30376,0.41948 0.13499,0.0964 0.27,0.16393 0.40501,0.2025 0.14464,0.0386 0.25071,0.0579 0.31823,0.0579 0.0675,0 0.20249,-0.0241 0.40501,-0.0723 0.21213,-0.0579 0.43393,-0.12054 0.66538,-0.18804 0.23142,-0.0675 0.44839,-0.13018 0.65091,-0.18804 l 0.40501,-0.11572 0,1.09932 c -0.11573,0.0482 -0.32788,0.13018 -0.63645,0.2459 -0.30859,0.10607 -0.65092,0.21697 -1.02699,0.33269 -0.3761,0.11571 -0.76665,0.21697 -1.17164,0.30375 -0.39539,0.0868 -0.74254,0.13019 -1.04146,0.13019 -0.45324,0 -0.8245,-0.0579 -1.11379,-0.17358 -0.2893,-0.10607 -0.51592,-0.25554 -0.67984,-0.44841 -0.16394,-0.2025 -0.27966,-0.43876 -0.34715,-0.70877 -0.0579,-0.27 -0.0868,-0.56894 -0.0868,-0.89681 -0.26037,0.27965 -0.54967,0.55448 -0.86788,0.82449 -0.30859,0.26036 -0.64128,0.49662 -0.99807,0.70877 -0.3568,0.20251 -0.73289,0.36644 -1.12825,0.4918 -0.39537,0.135 -0.80038,0.20251 -1.21503,0.20251 -0.82932,0 -1.5188,-0.15912 -2.06846,-0.47734 -0.54002,-0.31822 -0.96914,-0.73288 -1.28736,-1.24396 -0.31822,-0.51109 -0.54484,-1.08003 -0.67984,-1.70684 -0.12536,-0.6268 -0.18804,-1.25361 -0.18804,-1.88041 0,-0.78109 0.082,-1.56219 0.2459,-2.34329 0.17357,-0.79073 0.4243,-1.54289 0.75216,-2.25649 0.33751,-0.72323 0.74735,-1.39343 1.22951,-2.0106 0.48215,-0.61715 1.03181,-1.15234 1.64897,-1.60558 0.61716,-0.46286 1.30182,-0.82448 2.05399,-1.08486 0.7618,-0.26035 1.57665,-0.39053 2.44454,-0.39055 0.22178,2e-5 0.43875,0.0241 0.65091,0.0723 0.21214,0.0386 0.41465,0.0868 0.60752,0.14465 0.19285,0.0579 0.37125,0.12055 0.5352,0.18804 0.16392,0.0675 0.30856,0.12055 0.43394,0.15911 l 0.99806,-5.71356 -2.69044,-0.26037 0,-0.89681 4.58532,-0.88235 1.21504,0 -3.37028,19.28147 m -1.15718,-9.12724 c 0.01,-0.0386 -0.0482,-0.14463 -0.17358,-0.31822 -0.11573,-0.18321 -0.27002,-0.37125 -0.46287,-0.56413 -0.18323,-0.19285 -0.38573,-0.36642 -0.60752,-0.52073 -0.2218,-0.15427 -0.42913,-0.23142 -0.62198,-0.23143 -0.72324,1e-5 -1.41273,0.21216 -2.06845,0.63645 -0.65574,0.41466 -1.23433,0.98843 -1.73577,1.7213 -0.50145,0.73289 -0.90164,1.60077 -1.20057,2.60365 -0.29894,0.99325 -0.44841,2.06846 -0.44841,3.22563 0,0.63645 0.0627,1.18611 0.18804,1.64898 0.135,0.46287 0.30858,0.84377 0.52073,1.14271 0.22179,0.29894 0.47251,0.52073 0.75217,0.66538 0.27964,0.14464 0.56412,0.21697 0.85342,0.21697 0.27,0 0.55929,-0.0675 0.86788,-0.20251 0.31822,-0.135 0.63644,-0.3134 0.95467,-0.53519 0.31822,-0.23144 0.63162,-0.4918 0.94021,-0.7811 0.31821,-0.29893 0.61233,-0.60269 0.88235,-0.91128 l 1.35968,-7.79648 m -15.10116,2.66148 c -1e-5,-0.70394 -0.0675,-1.32592 -0.20251,-1.86595 -0.13501,-0.54 -0.31823,-0.99323 -0.54966,-1.35968 -0.23144,-0.36643 -0.5111,-0.64608 -0.83895,-0.83896 -0.31824,-0.19285 -0.66539,-0.28928 -1.04146,-0.28929 -0.6461,10e-6 -1.2488,0.23627 -1.80809,0.70877 -0.54967,0.46288 -1.027,1.07522 -1.43201,1.83702 -0.40502,0.75218 -0.72324,1.60559 -0.95467,2.56025 -0.23144,0.94504 -0.34716,1.89971 -0.34715,2.86402 -1e-5,0.73288 0.0675,1.37415 0.2025,1.92381 0.135,0.54966 0.32304,1.01253 0.56413,1.38861 0.24107,0.36644 0.52072,0.64127 0.83895,0.82449 0.31822,0.18322 0.66537,0.27483 1.04146,0.27483 0.46286,0 0.89681,-0.11572 1.30182,-0.34716 0.41465,-0.24107 0.78591,-0.5593 1.11379,-0.95467 0.3375,-0.40501 0.63644,-0.8727 0.89681,-1.40307 0.26036,-0.53037 0.48215,-1.08967 0.66538,-1.67791 0.18321,-0.59787 0.31821,-1.21021 0.40501,-1.83702 0.0964,-0.6268 0.14464,-1.22949 0.14465,-1.80809 m 2.99419,0.13018 c -1e-5,0.80039 -0.0916,1.58631 -0.27483,2.35775 -0.17359,0.76182 -0.42913,1.48505 -0.76663,2.16971 -0.32788,0.68467 -0.72807,1.31629 -1.20057,1.89488 -0.46288,0.56894 -0.98843,1.06557 -1.57665,1.48986 -0.5786,0.41466 -1.21023,0.7377 -1.89488,0.96914 -0.68467,0.24108 -1.40791,0.36162 -2.16971,0.36162 -0.81003,0 -1.54291,-0.13019 -2.19863,-0.39055 -0.65574,-0.26037 -1.21022,-0.63163 -1.66345,-1.11378 -0.45323,-0.4918 -0.8052,-1.08003 -1.05592,-1.7647 -0.24108,-0.6943 -0.36162,-1.47057 -0.36162,-2.32882 0,-0.80037 0.0868,-1.58629 0.26037,-2.35775 0.17357,-0.78108 0.41947,-1.51878 0.7377,-2.2131 0.32786,-0.6943 0.72323,-1.33556 1.1861,-1.92381 0.46287,-0.59786 0.9836,-1.10895 1.56219,-1.53326 0.58823,-0.43393 1.22468,-0.77143 1.90934,-1.01253 0.6943,-0.24106 1.42718,-0.3616 2.19864,-0.36162 0.71359,2e-5 1.3886,0.11092 2.02506,0.33269 0.64608,0.22181 1.2102,0.56896 1.69237,1.04146 0.49179,0.47253 0.87752,1.0704 1.15718,1.79363 0.28928,0.72324 0.43393,1.5863 0.43394,2.58918 m -27.20813,-2.73383 c 0.01,-0.0482 -0.0289,-0.1591 -0.11572,-0.33269 -0.0772,-0.17356 -0.17359,-0.35196 -0.2893,-0.53519 -0.11572,-0.19285 -0.24108,-0.36161 -0.37608,-0.50627 -0.12537,-0.14463 -0.23144,-0.21696 -0.31822,-0.21697 -0.75218,10e-6 -1.4272,0.12538 -2.02506,0.37608 -0.58824,0.2411 -1.10415,0.57378 -1.54773,0.99807 -0.44359,0.41467 -0.82449,0.89682 -1.14271,1.44647 -0.30859,0.54967 -0.55931,1.12344 -0.75216,1.7213 -0.19287,0.59789 -0.3327,1.20058 -0.41948,1.80809 -0.0868,0.60753 -0.13019,1.18612 -0.13018,1.73577 -1e-5,0.41466 0.0337,0.82931 0.10125,1.24396 0.0675,0.41466 0.18321,0.79075 0.34715,1.12825 0.17357,0.33751 0.40501,0.61234 0.69431,0.82449 0.29893,0.21215 0.67983,0.31823 1.14271,0.31822 0.34715,10e-6 0.6943,-0.0771 1.04146,-0.23143 0.34715,-0.15429 0.67019,-0.33269 0.96914,-0.5352 0.29893,-0.2025 0.55929,-0.405 0.78109,-0.60751 0.22178,-0.20251 0.38572,-0.3568 0.4918,-0.46287 l 1.54773,-8.17257 m 4.35388,10.81961 c -0.11574,0.0482 -0.32789,0.13983 -0.63645,0.27483 -0.3086,0.12536 -0.65575,0.25554 -1.04146,0.39055 -0.3761,0.12536 -0.76182,0.23625 -1.15718,0.33268 -0.38574,0.10608 -0.72325,0.15912 -1.01253,0.15912 -0.35681,0 -0.66056,-0.0434 -0.91128,-0.13019 -0.24108,-0.0868 -0.44359,-0.21697 -0.60751,-0.39054 -0.1543,-0.17358 -0.27484,-0.38573 -0.36162,-0.63645 -0.0868,-0.25072 -0.14466,-0.54002 -0.17358,-0.86788 -0.2218,0.21215 -0.48216,0.43876 -0.78109,0.67984 -0.29895,0.23143 -0.63164,0.4484 -0.99807,0.65091 -0.3568,0.20251 -0.74253,0.36644 -1.15718,0.4918 -0.40501,0.135 -0.82931,0.20251 -1.27289,0.20251 -0.57859,0 -1.08968,-0.082 -1.53326,-0.2459 -0.43395,-0.16394 -0.81003,-0.38091 -1.12825,-0.65092 -0.31822,-0.27965 -0.58341,-0.59787 -0.79556,-0.95467 -0.20251,-0.36643 -0.36644,-0.74252 -0.4918,-1.12825 -0.12536,-0.39536 -0.21215,-0.79073 -0.26036,-1.1861 -0.0482,-0.40501 -0.0723,-0.78591 -0.0723,-1.14271 0,-0.76181 0.082,-1.52844 0.2459,-2.29989 0.16394,-0.78109 0.40501,-1.52843 0.72324,-2.24204 0.32786,-0.72322 0.73288,-1.39824 1.21504,-2.02506 0.48215,-0.62679 1.03663,-1.17163 1.66344,-1.63451 0.63644,-0.46286 1.34039,-0.82447 2.11185,-1.08485 0.78108,-0.27 1.6345,-0.405 2.56025,-0.40502 0.27,2e-5 0.53519,0.0338 0.79556,0.10126 0.27,0.0579 0.52072,0.13984 0.75217,0.2459 0.23142,0.0964 0.44357,0.20734 0.63644,0.33269 0.19285,0.12537 0.35679,0.25555 0.4918,0.39054 l 0.43395,-0.70877 2.02506,0 c -0.0482,0.11573 -0.10127,0.25556 -0.15912,0.41948 -0.0579,0.1543 -0.11573,0.31342 -0.17357,0.47734 -0.0579,0.16394 -0.11091,0.31823 -0.15911,0.46287 -0.0386,0.14466 -0.0627,0.25555 -0.0723,0.33268 -0.0675,0.26038 -0.16395,0.65575 -0.28929,1.18611 -0.12538,0.52074 -0.26038,1.10897 -0.40501,1.7647 -0.13502,0.65574 -0.27967,1.34522 -0.43395,2.06845 -0.14466,0.7136 -0.27484,1.39344 -0.39054,2.03953 -0.11573,0.63645 -0.21216,1.20539 -0.2893,1.70683 -0.0772,0.49181 -0.11573,0.8486 -0.11572,1.07039 -1e-5,0.52073 0.11089,0.87753 0.33269,1.07039 0.22178,0.19287 0.53518,0.2893 0.94021,0.2893 0.0964,0 0.23624,-0.0193 0.41948,-0.0579 0.19285,-0.0482 0.39053,-0.10125 0.59305,-0.15912 0.20249,-0.0579 0.39053,-0.11089 0.56412,-0.15911 0.17357,-0.0482 0.29893,-0.082 0.37609,-0.10125 l 0,1.07039 m -25.25546,-1.30179 2.48794,-0.65091 c 0.2025,0.0772 0.43393,0.17358 0.6943,0.2893 0.26036,0.10607 0.52555,0.21215 0.79556,0.31822 0.27965,0.10608 0.54965,0.19769 0.81003,0.27483 0.26035,0.0771 0.49179,0.11572 0.6943,0.11572 0.21214,0 0.39536,-0.0289 0.54966,-0.0868 0.16393,-0.0675 0.30375,-0.14947 0.41948,-0.2459 0.12535,-0.0964 0.23625,-0.19768 0.33269,-0.30376 0.0964,-0.11572 0.18803,-0.22661 0.27483,-0.33269 l -1.63452,-1.80809 c 0.0964,-0.17357 0.21214,-0.32786 0.34716,-0.46287 0.13499,-0.14464 0.27482,-0.26518 0.41947,-0.36162 0.15428,-0.0964 0.30857,-0.16875 0.46287,-0.21697 0.15428,-0.0578 0.29893,-0.0868 0.43395,-0.0868 0.26999,10e-6 0.50625,0.0579 0.70877,0.17358 0.21213,0.10608 0.39053,0.24591 0.53519,0.41948 0.14464,0.17358 0.25553,0.37126 0.33269,0.59305 0.0771,0.2218 0.11571,0.43877 0.11572,0.65091 -1e-5,0.59788 -0.13502,1.15236 -0.40501,1.66345 -0.26038,0.51108 -0.60271,0.95467 -1.027,1.33075 -0.41466,0.36644 -0.87754,0.65573 -1.38861,0.86788 -0.50145,0.21215 -0.99325,0.31823 -1.4754,0.31823 -0.45324,0 -0.88718,-0.0675 -1.30183,-0.20251 -0.40502,-0.12536 -0.80038,-0.26519 -1.1861,-0.41948 -0.37609,-0.16393 -0.74735,-0.3134 -1.11379,-0.4484 -0.36644,-0.13501 -0.72806,-0.20251 -1.08485,-0.20251 -0.0771,0 -0.19287,0.0145 -0.34716,0.0434 -0.14464,0.0289 -0.28447,0.11089 -0.41947,0.2459 l -0.7377,1.38861 -2.05399,-1.09932 10.05298,-11.75982 -2.61812,0.56413 c -0.40502,-0.22178 -0.82449,-0.41947 -1.25843,-0.59305 -0.43394,-0.17357 -0.85342,-0.26036 -1.25843,-0.26037 -0.12536,10e-6 -0.26519,0.0193 -0.41948,0.0579 -0.15429,0.0386 -0.30376,0.0964 -0.4484,0.17358 -0.14465,0.0675 -0.28448,0.1543 -0.41948,0.26036 -0.12536,0.10609 -0.22662,0.22663 -0.30376,0.36162 l 1.56219,1.89488 c -0.0386,0.0579 -0.10608,0.14465 -0.2025,0.26036 -0.0964,0.10609 -0.21698,0.21698 -0.36162,0.33269 -0.13501,0.10608 -0.29412,0.19769 -0.47734,0.27483 -0.18322,0.0772 -0.37608,0.11573 -0.57859,0.11572 -0.27965,10e-6 -0.52555,-0.053 -0.7377,-0.15911 -0.2025,-0.11571 -0.37126,-0.26036 -0.50626,-0.43395 -0.13501,-0.17356 -0.23626,-0.3616 -0.30376,-0.56412 -0.0579,-0.21214 -0.0868,-0.40982 -0.0868,-0.59305 0,-0.45322 0.0916,-0.92573 0.27483,-1.41755 0.19286,-0.50143 0.46769,-0.95948 0.82449,-1.37414 0.36644,-0.42429 0.8052,-0.77144 1.31629,-1.04146 0.52072,-0.27 1.10896,-0.405 1.76469,-0.40502 0.44358,2e-5 0.86788,0.0772 1.2729,0.23144 0.41465,0.1543 0.80519,0.32788 1.17164,0.52073 0.36643,0.18323 0.71359,0.35199 1.04146,0.50627 0.3375,0.1543 0.65573,0.23144 0.95467,0.23143 0.0579,10e-6 0.13982,-0.01 0.2459,-0.0289 0.10607,-0.0289 0.25071,-0.0916 0.43394,-0.18804 l 0.65092,-1.64898 2.22756,1.15718 -10.05298,11.75981 m -15.14455,-9.57569 c -1e-5,-0.19285 -0.0386,-0.38089 -0.11571,-0.56412 -0.0772,-0.19285 -0.18323,-0.36161 -0.31823,-0.50627 -0.13501,-0.14463 -0.30377,-0.26035 -0.50626,-0.34715 -0.20252,-0.0964 -0.42431,-0.14463 -0.66538,-0.14465 -0.32787,2e-5 -0.64128,0.0868 -0.94021,0.26037 -0.29894,0.17359 -0.58824,0.40502 -0.86788,0.6943 -0.27001,0.28931 -0.52556,0.622 -0.76663,0.99807 -0.23144,0.37609 -0.44359,0.77146 -0.63645,1.18611 -0.18322,0.41466 -0.34716,0.83414 -0.4918,1.25843 -0.14465,0.4243 -0.26037,0.82449 -0.34715,1.20057 0.6268,-0.0578 1.27289,-0.2025 1.93827,-0.43394 0.67501,-0.23143 1.28735,-0.52555 1.83702,-0.88235 0.54965,-0.36643 0.99806,-0.78109 1.34522,-1.24397 0.35679,-0.46286 0.53518,-0.95466 0.53519,-1.4754 m 2.63258,0.0289 c -10e-6,0.54003 -0.12537,1.03665 -0.37608,1.48987 -0.25073,0.45323 -0.59307,0.86307 -1.027,1.2295 -0.4243,0.36645 -0.92093,0.69431 -1.48986,0.9836 -0.55931,0.27966 -1.15237,0.52074 -1.77916,0.72323 -0.61717,0.19287 -1.2488,0.35199 -1.89488,0.47734 -0.6461,0.11572 -1.26326,0.18805 -1.85148,0.21697 -0.0289,0.19287 -0.0579,0.42431 -0.0868,0.69431 -0.0193,0.27001 -0.0289,0.49662 -0.0289,0.67984 0,0.54002 0.0627,1.03664 0.18804,1.48987 0.135,0.45323 0.32304,0.84859 0.56412,1.1861 0.25072,0.32787 0.54966,0.58824 0.89682,0.7811 0.34714,0.18322 0.73769,0.27483 1.17164,0.27483 0.66537,0 1.39825,-0.24108 2.19864,-0.72324 0.80037,-0.48215 1.74539,-1.20057 2.83508,-2.15524 l 0,1.86595 c -0.27966,0.27001 -0.62199,0.56894 -1.02699,0.89681 -0.40503,0.31822 -0.8679,0.62198 -1.38862,0.91128 -0.51109,0.27965 -1.07039,0.51108 -1.6779,0.6943 -0.60753,0.19286 -1.2488,0.2893 -1.92381,0.2893 -0.29894,0 -0.62681,-0.0289 -0.9836,-0.0868 -0.34716,-0.0579 -0.69431,-0.15911 -1.04146,-0.30376 -0.34716,-0.15429 -0.68467,-0.36162 -1.01253,-0.62198 -0.31823,-0.26037 -0.6027,-0.58823 -0.85342,-0.9836 -0.24108,-0.40501 -0.43877,-0.88235 -0.59305,-1.43201 -0.14465,-0.5593 -0.21698,-1.21503 -0.21698,-1.9672 0,-0.78109 0.0916,-1.55736 0.27483,-2.32882 0.19287,-0.78109 0.45805,-1.52361 0.79556,-2.22757 0.34715,-0.71358 0.76181,-1.37414 1.24397,-1.98167 0.48215,-0.61714 1.01253,-1.14752 1.59112,-1.59111 0.57858,-0.45322 1.19574,-0.80519 1.85148,-1.05593 0.66537,-0.26035 1.35003,-0.39053 2.05399,-0.39055 0.68466,2e-5 1.2536,0.11574 1.70684,0.34716 0.46286,0.2218 0.83412,0.49181 1.11378,0.81002 0.27964,0.31824 0.47733,0.6461 0.59306,0.9836 0.1157,0.33752 0.17356,0.61235 0.17357,0.82449 m -15.86782,14.24779 c -1e-5,-0.3568 -0.10608,-0.68467 -0.31822,-0.9836 -0.21216,-0.29894 -0.60753,-0.58341 -1.18611,-0.85342 l -3.70296,-1.67791 c -0.47252,0.11572 -0.86789,0.27483 -1.18611,0.47734 -0.30859,0.2025 -0.55449,0.42912 -0.7377,0.67984 -0.18322,0.26036 -0.31341,0.53519 -0.39055,0.82449 -0.0772,0.28929 -0.11572,0.58341 -0.11572,0.88235 0,0.3375 0.0723,0.70876 0.21697,1.11378 0.14465,0.40501 0.36644,0.78109 0.66538,1.12825 0.30858,0.34715 0.6943,0.63644 1.15718,0.86788 0.46286,0.24107 1.0077,0.36161 1.63451,0.36162 0.71359,-10e-6 1.3211,-0.10126 1.82256,-0.30376 0.50143,-0.20251 0.91126,-0.44841 1.2295,-0.7377 0.31821,-0.2893 0.54965,-0.59788 0.6943,-0.92574 0.14464,-0.31823 0.21696,-0.6027 0.21697,-0.85342 m -0.31822,-13.23522 c -1e-5,-0.36643 -0.0338,-0.71358 -0.10125,-1.04146 -0.0675,-0.3375 -0.17359,-0.63161 -0.31823,-0.88235 -0.13501,-0.26035 -0.31341,-0.46285 -0.53519,-0.60751 -0.21216,-0.15428 -0.4677,-0.23143 -0.76663,-0.23144 -0.35681,1e-5 -0.72324,0.1302 -1.09932,0.39055 -0.37609,0.26038 -0.72324,0.61717 -1.04146,1.07039 -0.30859,0.45324 -0.56413,0.98361 -0.76663,1.59112 -0.19287,0.60752 -0.2893,1.25844 -0.28929,1.95273 -1e-5,0.35681 0.0386,0.6895 0.11571,0.99807 0.0771,0.29894 0.18804,0.55931 0.33269,0.78109 0.15429,0.21216 0.33269,0.38091 0.5352,0.50627 0.21214,0.11572 0.4484,0.17358 0.70877,0.17357 0.49179,10e-6 0.93538,-0.15428 1.33075,-0.46287 0.40501,-0.31821 0.74734,-0.71358 1.027,-1.1861 0.27964,-0.47251 0.49179,-0.9836 0.63644,-1.53326 0.15429,-0.54965 0.23143,-1.05592 0.23144,-1.5188 m 2.459,-1.83702 c 0.0868,0.22181 0.16874,0.50628 0.2459,0.85342 0.0868,0.34717 0.13017,0.72325 0.13018,1.12825 -1e-5,0.94504 -0.17358,1.76952 -0.52073,2.47347 -0.34716,0.70395 -0.81485,1.29218 -1.40307,1.76469 -0.58824,0.47252 -1.27291,0.82932 -2.05399,1.07039 -0.77146,0.23144 -1.58631,0.34716 -2.44454,0.34715 -0.0675,0.14465 -0.12537,0.30377 -0.17358,0.47734 -0.0482,0.17358 -0.0868,0.34716 -0.11571,0.52073 -0.0289,0.16394 -0.0482,0.31823 -0.0579,0.46287 -0.01,0.13501 -1e-5,0.24108 0.0289,0.31822 l 3.96333,1.80809 c 0.45322,0.20251 0.86305,0.40984 1.2295,0.62199 0.37607,0.2025 0.69429,0.42429 0.95467,0.66537 0.27,0.25072 0.47732,0.53038 0.62198,0.83896 0.14464,0.31822 0.21696,0.6943 0.21697,1.12824 -1e-5,0.4243 -0.10126,0.83413 -0.30375,1.22951 -0.19288,0.405 -0.46289,0.78109 -0.81003,1.12824 -0.33752,0.35679 -0.74735,0.68466 -1.2295,0.9836 -0.47252,0.29894 -0.98843,0.55448 -1.54772,0.76663 -0.54967,0.21215 -1.13308,0.37608 -1.75024,0.4918 -0.60752,0.11572 -1.22468,0.17357 -1.85148,0.17358 -0.97396,-1e-5 -1.81774,-0.12054 -2.53132,-0.36162 -0.7136,-0.24108 -1.30665,-0.55931 -1.77917,-0.95467 -0.46287,-0.39537 -0.8052,-0.85342 -1.02699,-1.37415 -0.23143,-0.52073 -0.34715,-1.06557 -0.34715,-1.63451 0,-0.50144 0.10607,-0.96432 0.31822,-1.38861 0.20251,-0.4243 0.48216,-0.80521 0.83895,-1.14271 0.3568,-0.33751 0.77145,-0.63645 1.24397,-0.89682 0.48216,-0.26036 0.99324,-0.48215 1.53326,-0.66537 -0.0482,-0.23144 -0.053,-0.50145 -0.0145,-0.81003 0.0482,-0.31822 0.12053,-0.63644 0.21697,-0.95467 0.10607,-0.32786 0.24107,-0.64127 0.40501,-0.94021 0.16393,-0.29893 0.34715,-0.54965 0.54966,-0.75216 -0.39538,-0.17357 -0.76181,-0.37126 -1.09932,-0.59306 -0.33751,-0.23142 -0.63163,-0.49179 -0.88235,-0.78109 -0.24108,-0.29893 -0.43394,-0.63644 -0.57859,-1.01253 -0.135,-0.38572 -0.20251,-0.81484 -0.2025,-1.28736 -1e-5,-0.72323 0.135,-1.432 0.40501,-2.12631 0.27,-0.70394 0.66055,-1.33075 1.17164,-1.88042 0.52073,-0.55929 1.14753,-1.00769 1.88041,-1.34522 0.74252,-0.34713 1.58629,-0.52071 2.53133,-0.52073 0.35679,2e-5 0.68948,0.0338 0.99806,0.10126 0.31822,0.0579 0.60269,0.13019 0.85342,0.21697 0.26036,0.0772 0.48215,0.15912 0.66538,0.2459 0.19285,0.0868 0.33268,0.15912 0.41948,0.21697 l 4.02119,0 0,1.38861 -2.71937,0 m -11.71631,11.61517 c -0.11572,0.0482 -0.32787,0.13983 -0.63645,0.27483 -0.30858,0.135 -0.6702,0.27483 -1.08485,0.41948 -0.41466,0.135 -0.85342,0.25554 -1.31629,0.36161 -0.45323,0.10608 -0.88235,0.15912 -1.28736,0.15912 -0.51109,0 -0.9161,-0.0868 -1.21504,-0.26037 -0.29893,-0.17357 -0.52073,-0.40019 -0.66537,-0.67984 -0.14465,-0.27965 -0.22662,-0.59305 -0.2459,-0.94021 -0.0193,-0.34715 0.005,-0.68948 0.0723,-1.02699 l 1.89488,-10.03852 -2.54579,-0.27483 0,-0.85341 4.4696,-0.92575 1.21503,0 -2.24203,11.84661 c -0.0386,0.20251 -0.0386,0.39537 0,0.57859 0.0482,0.18322 0.12054,0.34715 0.21697,0.4918 0.10607,0.135 0.23625,0.2459 0.39055,0.33269 0.16393,0.0771 0.34715,0.11571 0.54966,0.11571 0.17357,0 0.37608,-0.0289 0.60752,-0.0868 0.24107,-0.0675 0.47733,-0.13983 0.70877,-0.21698 0.24107,-0.0868 0.46286,-0.16875 0.66538,-0.2459 0.20249,-0.0771 0.35196,-0.13018 0.4484,-0.15911 l 0,1.12825 m -0.13018,-18.13876 c -1e-5,0.22182 -0.0434,0.43396 -0.13018,0.63645 -0.0772,0.19288 -0.19287,0.36646 -0.34716,0.52073 -0.14465,0.15431 -0.32787,0.27967 -0.54966,0.37608 -0.22179,0.0868 -0.47734,0.1302 -0.76663,0.13019 -0.60752,10e-6 -1.06557,-0.1591 -1.37414,-0.47734 -0.30859,-0.32785 -0.46288,-0.72322 -0.46287,-1.18611 -1e-5,-0.19284 0.0386,-0.3857 0.11571,-0.57858 0.0868,-0.19285 0.20733,-0.36642 0.36162,-0.52073 0.16393,-0.16392 0.36161,-0.2941 0.59305,-0.39055 0.23143,-0.10606 0.49662,-0.15909 0.79556,-0.15911 0.27965,2e-5 0.52555,0.0482 0.7377,0.14464 0.22179,0.0965 0.40983,0.22182 0.56413,0.37609 0.15428,0.15431 0.27,0.33271 0.34715,0.53519 0.0771,0.19288 0.11571,0.39057 0.11572,0.59305 m -11.0221,16.61998 c -0.0868,0.49181 -0.21697,1.06075 -0.39054,1.70684 -0.17358,0.64609 -0.39538,1.30665 -0.66538,1.98167 -0.26037,0.68466 -0.57377,1.35004 -0.94021,1.99613 -0.3568,0.65573 -0.76663,1.23914 -1.2295,1.75023 -0.46287,0.52072 -0.97396,0.93538 -1.53326,1.24397 -0.5593,0.31821 -1.16682,0.47732 -1.82255,0.47733 -0.6268,-1e-5 -1.11378,-0.14947 -1.46094,-0.44841 -0.34715,-0.29894 -0.52073,-0.67502 -0.52073,-1.12824 0,-0.18323 0.0289,-0.34716 0.0868,-0.4918 0.0579,-0.14466 0.13019,-0.27002 0.21697,-0.37609 0.0868,-0.10608 0.1784,-0.19768 0.27483,-0.27483 0.0868,-0.0771 0.16876,-0.13983 0.2459,-0.18804 l 2.96527,0.81003 c 0.14464,-0.1543 0.28929,-0.39055 0.43394,-0.70877 0.15429,-0.31823 0.30376,-0.67985 0.4484,-1.08486 0.14465,-0.39537 0.27483,-0.81485 0.39055,-1.25843 0.11572,-0.44358 0.21215,-0.86788 0.2893,-1.27289 l 2.22756,-12.94593 -2.48793,-0.27483 0,-0.85341 4.4696,-0.92575 1.09932,0 -2.09739,12.26608 m 3.13885,-16.61996 c -1e-5,0.1736 -0.0434,0.36164 -0.13019,0.56413 -0.0868,0.19288 -0.21215,0.37128 -0.37608,0.53519 -0.16394,0.16395 -0.36162,0.29896 -0.59305,0.40502 -0.2218,0.10609 -0.4677,0.15912 -0.7377,0.15911 -0.54002,10e-6 -0.98361,-0.15428 -1.33076,-0.46287 -0.33751,-0.31821 -0.50627,-0.7184 -0.50626,-1.20058 -1e-5,-0.22177 0.0337,-0.43392 0.10125,-0.63644 0.0771,-0.20249 0.19286,-0.38089 0.34716,-0.5352 0.15428,-0.16391 0.34714,-0.28927 0.57858,-0.37608 0.23143,-0.0964 0.50144,-0.14463 0.81003,-0.14465 0.29893,2e-5 0.55929,0.0482 0.78109,0.14465 0.23143,0.0868 0.42429,0.21217 0.57859,0.37608 0.15428,0.15431 0.27,0.33271 0.34715,0.5352 0.0868,0.20252 0.13018,0.41467 0.13019,0.63644 m -7.95561,18.39913 c -0.12538,0.0482 -0.34717,0.12536 -0.66538,0.23143 -0.30859,0.0964 -0.65574,0.20251 -1.04146,0.31822 -0.38574,0.10608 -0.7811,0.19769 -1.1861,0.27483 -0.40503,0.0868 -0.76182,0.13019 -1.07039,0.13019 -0.17359,0 -0.41467,-0.0193 -0.72324,-0.0579 -0.29895,-0.0289 -0.58824,-0.10608 -0.86788,-0.23144 -0.27966,-0.11572 -0.50628,-0.28929 -0.67984,-0.52073 -0.17359,-0.23143 -0.21698,-0.54483 -0.13019,-0.9402 l 1.80809,-9.09831 c 0.0675,-0.39536 0.0675,-0.72323 0,-0.9836 -0.0579,-0.26036 -0.15912,-0.46768 -0.30375,-0.62199 -0.13502,-0.16392 -0.29413,-0.27481 -0.47734,-0.33268 -0.18323,-0.0675 -0.35681,-0.10124 -0.52073,-0.10126 -0.24109,2e-5 -0.54003,0.0723 -0.89681,0.21697 -0.34716,0.13502 -0.71843,0.31824 -1.11379,0.54966 -0.38573,0.23145 -0.77628,0.50628 -1.17164,0.82449 -0.39537,0.30859 -0.75699,0.63646 -1.08485,0.9836 l -2.03953,9.95173 -2.76276,0 2.57472,-12.58431 -2.48793,-0.27483 0,-0.85341 4.4696,-0.92575 1.1861,0 -0.54965,2.76277 c 0.32786,-0.32786 0.70394,-0.65573 1.12824,-0.98361 0.42429,-0.33749 0.87752,-0.63643 1.35969,-0.89681 0.48215,-0.26035 0.97877,-0.4725 1.48986,-0.63645 0.52072,-0.16391 1.02699,-0.24588 1.5188,-0.2459 1.08002,2e-5 1.84665,0.29896 2.29989,0.89682 0.46285,0.59789 0.57857,1.5622 0.34715,2.89294 l -1.57665,8.36061 c -0.0482,0.27965 -0.0289,0.50144 0.0579,0.66537 0.0964,0.16394 0.21695,0.2893 0.36161,0.37609 0.15428,0.0868 0.31339,0.14465 0.47734,0.17357 0.16392,0.0193 0.28928,0.0289 0.37608,0.0289 0.27,0 0.56411,-0.0386 0.88235,-0.11571 0.31821,-0.0772 0.64608,-0.16876 0.9836,-0.27483 l 0.0289,1.04146 m -15.98352,-0.0867 c -0.25074,0.12536 -0.54003,0.25072 -0.86789,0.37608 -0.31823,0.12536 -0.6461,0.23626 -0.9836,0.33269 -0.33752,0.0964 -0.67021,0.17357 -0.99806,0.23143 -0.31824,0.0675 -0.59307,0.10126 -0.82449,0.10126 -0.24109,0 -0.47735,-0.0434 -0.70877,-0.13019 -0.23145,-0.0771 -0.45324,-0.17839 -0.66538,-0.30375 -0.20252,-0.13501 -0.39056,-0.28448 -0.56412,-0.44841 -0.17359,-0.17358 -0.31824,-0.34715 -0.43395,-0.52073 -0.13501,-0.20251 -0.2893,-0.46287 -0.46287,-0.7811 -0.16394,-0.32786 -0.34234,-0.68466 -0.53519,-1.07038 -0.18323,-0.38573 -0.37127,-0.78592 -0.56412,-1.20058 -0.19287,-0.42429 -0.38092,-0.8293 -0.56413,-1.21503 -0.17358,-0.39537 -0.33751,-0.76181 -0.4918,-1.09932 -0.14465,-0.3375 -0.27001,-0.61233 -0.37608,-0.82449 l -1.35969,1.21504 -1.21503,6.01732 -2.71937,0 3.9344,-19.78773 -2.60364,-0.26037 0,-0.89681 4.58531,-0.88235 1.18611,0 -2.7483,13.77041 4.78782,-4.94693 c 0.27964,-0.28928 0.53519,-0.53518 0.76663,-0.7377 0.23143,-0.21214 0.45322,-0.38089 0.66538,-0.50627 0.22178,-0.13499 0.44357,-0.23142 0.66538,-0.28929 0.22178,-0.0675 0.46286,-0.10124 0.72323,-0.10126 0.32786,2e-5 0.61233,0.0482 0.85342,0.14465 0.25071,0.0965 0.45322,0.22181 0.60752,0.37608 0.16392,0.15431 0.28446,0.32789 0.36162,0.52073 0.0771,0.19288 0.11088,0.38092 0.10125,0.56413 -1e-5,0.33752 -0.15913,0.6895 -0.47734,1.05592 -0.30859,0.35681 -0.81003,0.65575 -1.50433,0.89682 l -1.01253,-1.07039 c -0.27002,0.21216 -0.56413,0.44841 -0.88234,0.70877 -0.30859,0.26037 -0.622,0.52556 -0.94021,0.79556 -0.31823,0.27002 -0.62199,0.5352 -0.91128,0.79556 -0.2893,0.26037 -0.54966,0.49181 -0.78109,0.6943 0.12535,0.25073 0.26035,0.56414 0.40501,0.94021 0.15428,0.37609 0.31339,0.7811 0.47734,1.21504 0.17356,0.4243 0.35678,0.86306 0.54965,1.31628 0.2025,0.44359 0.41465,0.86789 0.63645,1.2729 0.22178,0.41466 0.45322,0.81485 0.69431,1.20057 0.25071,0.37609 0.50625,0.7136 0.76663,1.01253 0.26035,0.2893 0.52554,0.52073 0.79556,0.69431 0.26999,0.17358 0.53518,0.26036 0.79556,0.26036 0.10606,0 0.23624,-0.01 0.39055,-0.0289 0.15427,-0.0289 0.31821,-0.0627 0.4918,-0.10125 0.17356,-0.0386 0.34231,-0.0868 0.50626,-0.14465 0.17356,-0.0579 0.32303,-0.11571 0.44841,-0.17357 l 0,1.01253 M 88.852612,359.19953 c -9e-6,-0.19285 -0.03858,-0.38089 -0.115717,-0.56412 -0.07716,-0.19285 -0.18323,-0.36161 -0.318224,-0.50627 -0.135013,-0.14463 -0.303768,-0.26035 -0.506265,-0.34715 -0.202515,-0.0964 -0.424307,-0.14463 -0.665377,-0.14465 -0.327875,2e-5 -0.641277,0.0868 -0.940207,0.26037 -0.298944,0.17359 -0.588238,0.40502 -0.867883,0.6943 -0.270014,0.28931 -0.525557,0.622 -0.76663,0.99807 -0.231441,0.37609 -0.44359,0.77146 -0.636448,1.18611 -0.183224,0.41466 -0.347157,0.83414 -0.4918,1.25843 -0.144651,0.4243 -0.260369,0.82449 -0.347153,1.20057 0.6268,-0.0578 1.27289,-0.2025 1.938272,-0.43394 0.675013,-0.23143 1.287353,-0.52555 1.837019,-0.88235 0.549651,-0.36643 0.998057,-0.78109 1.345219,-1.24397 0.356787,-0.46286 0.535185,-0.95466 0.535194,-1.4754 m 2.632579,0.0289 c -1.2e-5,0.54003 -0.125373,1.03665 -0.376083,1.48987 -0.250733,0.45323 -0.593065,0.86307 -1.026995,1.2295 -0.424309,0.36645 -0.92093,0.69431 -1.489866,0.9836 -0.559311,0.27966 -1.152364,0.52074 -1.77916,0.72323 -0.617168,0.19287 -1.248794,0.35199 -1.894878,0.47734 -0.646096,0.11572 -1.263256,0.18805 -1.851484,0.21697 -0.02893,0.19287 -0.05786,0.42431 -0.08679,0.69431 -0.01929,0.27001 -0.02893,0.49662 -0.02893,0.67984 -4e-6,0.54002 0.06268,1.03664 0.188041,1.48987 0.135,0.45323 0.323041,0.84859 0.564124,1.1861 0.250717,0.32787 0.549654,0.58824 0.896812,0.7811 0.347148,0.18322 0.737695,0.27483 1.171643,0.27483 0.665369,0 1.398247,-0.24108 2.198637,-0.72324 0.800371,-0.48215 1.745398,-1.20057 2.835084,-2.15524 l 0,1.86595 c -0.279662,0.27001 -0.621994,0.56894 -1.026995,0.89681 -0.405022,0.31822 -0.867893,0.62198 -1.388613,0.91128 -0.511095,0.27965 -1.070397,0.51108 -1.677907,0.6943 -0.607525,0.19286 -1.248793,0.2893 -1.923807,0.2893 -0.298943,0 -0.62681,-0.0289 -0.983601,-0.0868 -0.347158,-0.0579 -0.69431,-0.15911 -1.04146,-0.30376 -0.347156,-0.15429 -0.684666,-0.36162 -1.01253,-0.62198 -0.318226,-0.26037 -0.602698,-0.58823 -0.853418,-0.9836 -0.24108,-0.40501 -0.438765,-0.88235 -0.593054,-1.43201 -0.144648,-0.5593 -0.216971,-1.21503 -0.21697,-1.9672 -10e-7,-0.78109 0.09161,-1.55736 0.274829,-2.32882 0.192862,-0.78109 0.458048,-1.52361 0.79556,-2.22757 0.347151,-0.71358 0.761805,-1.37414 1.243965,-1.98167 0.482154,-0.61714 1.012526,-1.14752 1.591119,-1.59111 0.578584,-0.45322 1.195744,-0.80519 1.851484,-1.05593 0.66537,-0.26035 1.350032,-0.39053 2.05399,-0.39055 0.684654,2e-5 1.253599,0.11574 1.706837,0.34716 0.46286,0.2218 0.83412,0.49181 1.113783,0.81002 0.279639,0.31824 0.477323,0.6461 0.593053,0.9836 0.115706,0.33752 0.173565,0.61235 0.173577,0.82449 m -15.274743,-0.76659 -1.865949,9.30081 c -0.05786,0.26037 -0.04822,0.49663 0.02893,0.70878 0.07714,0.2025 0.197681,0.37608 0.361618,0.52073 0.173572,0.135 0.371257,0.24108 0.593054,0.31822 0.23143,0.0772 0.472508,0.11572 0.723236,0.11572 0.279645,0 0.568939,-0.0241 0.867883,-0.0723 0.29893,-0.0579 0.583403,-0.12536 0.853418,-0.2025 0.279643,-0.0771 0.535186,-0.15429 0.76663,-0.23144 0.24107,-0.0868 0.438754,-0.15911 0.593053,-0.21697 l 0,1.18611 c -0.125369,0.0579 -0.366448,0.15911 -0.723235,0.30376 -0.356805,0.14464 -0.766638,0.29411 -1.229501,0.4484 -0.462878,0.15429 -0.949856,0.2893 -1.460937,0.40502 -0.511092,0.12536 -0.978784,0.18804 -1.403077,0.18804 -0.54002,0 -0.988426,-0.0675 -1.345219,-0.20251 -0.356799,-0.12536 -0.641271,-0.29894 -0.853418,-0.52073 -0.212151,-0.23143 -0.366442,-0.50144 -0.462871,-0.81002 -0.08679,-0.31823 -0.130184,-0.66056 -0.130183,-1.027 -10e-7,-0.19286 0.0048,-0.39054 0.01447,-0.59305 0.01928,-0.2025 0.05304,-0.40983 0.101253,-0.62198 l 1.80809,-8.99706 -1.865949,0.17358 0,-0.96914 2.227566,-0.9836 1.446472,-2.96527 1.80809,0 -0.593054,3.38475 4.093515,0 0,1.35968 -4.353879,0 m -4.975868,-0.23146 c -1.2e-5,0.34716 -0.06269,0.62681 -0.188042,0.83895 -0.125372,0.20252 -0.30377,0.35681 -0.535194,0.46287 -0.231447,0.10609 -0.511098,0.17841 -0.838954,0.21697 -0.318234,0.0289 -0.679851,0.0434 -1.084854,0.0434 l -0.708771,-1.41755 c -0.366448,0.15431 -0.761816,0.42431 -1.186107,0.81003 -0.414662,0.37609 -0.81003,0.81003 -1.186106,1.30182 -0.376089,0.48217 -0.703956,0.98361 -0.983601,1.50433 -0.279656,0.5111 -0.462876,0.98361 -0.549659,1.41754 l -1.547725,7.4638 -2.748296,0 2.54579,-12.58431 -2.487932,-0.27483 0,-0.85341 4.469598,-0.92575 1.186107,0 -0.621983,2.9942 c 0.607512,-0.93537 1.296996,-1.66825 2.068455,-2.19864 0.771443,-0.53035 1.605574,-0.79554 2.502396,-0.79556 0.356786,2e-5 0.655723,0.0675 0.896812,0.20251 0.241067,0.12538 0.43393,0.28931 0.578589,0.4918 0.154278,0.20252 0.260353,0.41949 0.318224,0.65091 0.06749,0.23145 0.101241,0.44842 0.101253,0.65092 m -16.0703,3.60171 c -1.1e-5,-0.43393 -0.04823,-0.87269 -0.144647,-1.31629 -0.0868,-0.45322 -0.226625,-0.86305 -0.419477,-1.2295 -0.18323,-0.36643 -0.419487,-0.66536 -0.708771,-0.89681 -0.289304,-0.23143 -0.631635,-0.34714 -1.026995,-0.34716 -0.356805,2e-5 -0.713601,0.082 -1.070389,0.2459 -0.356804,0.15431 -0.68467,0.33271 -0.983601,0.5352 -0.289301,0.19287 -0.540022,0.38574 -0.752165,0.57859 -0.212155,0.18323 -0.356802,0.30377 -0.433942,0.36162 l -1.764695,9.18509 c 0.08678,0.0482 0.207324,0.12536 0.361618,0.23144 0.163929,0.0964 0.35197,0.19286 0.564123,0.28929 0.212145,0.0964 0.438759,0.18322 0.679842,0.26037 0.241074,0.0675 0.491795,0.10125 0.752166,0.10125 0.540009,0 1.036631,-0.12054 1.489865,-0.36162 0.45322,-0.24108 0.863054,-0.56412 1.229501,-0.96914 0.366431,-0.41465 0.689476,-0.89198 0.969136,-1.432 0.279642,-0.54001 0.511077,-1.10414 0.694307,-1.69237 0.183209,-0.59787 0.323035,-1.20057 0.419477,-1.80809 0.09642,-0.60751 0.144636,-1.1861 0.144647,-1.73577 m 2.936337,-0.11572 c -1.3e-5,0.81004 -0.09645,1.61042 -0.289294,2.40115 -0.192876,0.7811 -0.472527,1.52362 -0.838953,2.22756 -0.356809,0.70396 -0.79075,1.35487 -1.301825,1.95274 -0.511097,0.59788 -1.080042,1.11378 -1.706837,1.54772 -0.626813,0.43395 -1.306654,0.77628 -2.039525,1.027 -0.732886,0.24108 -1.499515,0.36162 -2.29989,0.36162 -0.443589,0 -0.843779,-0.0627 -1.200571,-0.18804 -0.3568,-0.12537 -0.655738,-0.24108 -0.896813,-0.34716 l -0.940207,4.75889 c -0.03857,0.16393 -0.01929,0.29412 0.05786,0.39055 0.08679,0.10607 0.260363,0.17357 0.52073,0.20251 l 1.865949,0.15911 0,1.11378 -7.463794,0 0,-1.11378 1.547724,-0.15911 c 0.414656,-0.0289 0.650913,-0.22662 0.708771,-0.59306 l 3.34135,-17.16962 -2.487931,-0.27483 0,-0.85341 4.484062,-0.92575 1.157178,0 -0.361618,1.83702 c 0.250716,-0.16392 0.535188,-0.35196 0.853418,-0.56412 0.32786,-0.21214 0.675013,-0.40982 1.04146,-0.59305 0.366431,-0.19285 0.747335,-0.35196 1.142712,-0.47734 0.405003,-0.13499 0.814837,-0.20249 1.229501,-0.20251 0.752155,2e-5 1.374137,0.16395 1.865949,0.49181 0.501431,0.31823 0.8968,0.73771 1.186107,1.25843 0.298924,0.52074 0.511073,1.10897 0.636447,1.76469 0.125347,0.65575 0.188028,1.31148 0.188041,1.9672 m -16.952649,6.61038 c -0.04823,0.27965 -0.03376,0.50627 0.04339,0.67984 0.07713,0.17358 0.178386,0.3134 0.303759,0.41948 0.134992,0.0964 0.269996,0.16393 0.405012,0.2025 0.144634,0.0386 0.250709,0.0579 0.318224,0.0579 0.06749,0 0.202493,-0.0241 0.405012,-0.0723 0.212136,-0.0579 0.433928,-0.12054 0.665377,-0.18804 0.231421,-0.0675 0.448392,-0.13018 0.650913,-0.18804 l 0.405012,-0.11572 0,1.09932 c -0.115733,0.0482 -0.327882,0.13018 -0.636448,0.2459 -0.308595,0.10607 -0.650926,0.21697 -1.026995,0.33269 -0.376096,0.11571 -0.766643,0.21697 -1.171642,0.30375 -0.395381,0.0868 -0.742534,0.13019 -1.04146,0.13019 -0.453239,0 -0.824499,-0.0579 -1.113783,-0.17358 -0.289304,-0.10607 -0.515918,-0.25554 -0.679841,-0.44841 -0.163944,-0.2025 -0.279661,-0.43876 -0.347154,-0.70877 -0.05787,-0.27 -0.0868,-0.56894 -0.08679,-0.89681 -0.260374,0.27965 -0.549668,0.55448 -0.867883,0.82449 -0.308589,0.26036 -0.641277,0.49662 -0.998066,0.70877 -0.356803,0.20251 -0.732885,0.36644 -1.128248,0.4918 -0.395374,0.135 -0.800386,0.20251 -1.215036,0.20251 -0.829315,0 -1.518799,-0.15912 -2.068454,-0.47734 -0.540019,-0.31822 -0.969139,-0.73288 -1.28736,-1.24396 -0.318225,-0.51109 -0.544839,-1.08003 -0.679842,-1.70684 -0.125362,-0.6268 -0.188042,-1.25361 -0.188041,-1.88041 -1e-6,-0.78109 0.08197,-1.56219 0.2459,-2.34329 0.173575,-0.79073 0.424297,-1.54289 0.752165,-2.25649 0.337508,-0.72323 0.747341,-1.39343 1.229501,-2.0106 0.482154,-0.61715 1.031813,-1.15234 1.648978,-1.60558 0.617156,-0.46286 1.301818,-0.82448 2.05399,-1.08486 0.761801,-0.26035 1.576646,-0.39053 2.444537,-0.39055 0.221783,2e-5 0.438753,0.0241 0.650912,0.0723 0.212139,0.0386 0.414645,0.0868 0.607519,0.14465 0.192852,0.0579 0.37125,0.12055 0.535194,0.18804 0.163922,0.0675 0.308569,0.12055 0.433942,0.15911 l 0.998065,-5.71356 -2.690437,-0.26037 0,-0.89681 4.585315,-0.88235 1.215036,0 -3.370279,19.28147 m -1.157177,-9.12724 c 0.0096,-0.0386 -0.04823,-0.14463 -0.173577,-0.31822 -0.115728,-0.18321 -0.270019,-0.37125 -0.462871,-0.56413 -0.18323,-0.19285 -0.385736,-0.36642 -0.607518,-0.52073 -0.221802,-0.15427 -0.429129,-0.23142 -0.621983,-0.23143 -0.723244,1e-5 -1.412728,0.21216 -2.068454,0.63645 -0.655741,0.41466 -1.234329,0.98843 -1.735766,1.7213 -0.501449,0.73289 -0.901639,1.60077 -1.200572,2.60365 -0.298941,0.99325 -0.44841,2.06846 -0.448406,3.22563 -4e-6,0.63645 0.06268,1.18611 0.188041,1.64898 0.135,0.46287 0.308576,0.84377 0.52073,1.14271 0.221788,0.29894 0.472509,0.52073 0.752165,0.66538 0.279646,0.14464 0.564118,0.21697 0.853419,0.21697 0.270001,0 0.559295,-0.0675 0.867883,-0.20251 0.318216,-0.135 0.63644,-0.3134 0.954671,-0.53519 0.318215,-0.23144 0.631617,-0.4918 0.940207,-0.7811 0.318214,-0.29893 0.61233,-0.60269 0.882347,-0.91128 l 1.359684,-7.79648 m -15.10116,-0.67987 c -1.7e-5,-0.98359 -0.125377,-1.87558 -0.376082,-2.67597 -0.241095,-0.80037 -0.583427,-1.48503 -1.026995,-2.05399 -0.433957,-0.57857 -0.954686,-1.02216 -1.56219,-1.33076 -0.597888,-0.30856 -1.2488,-0.46285 -1.952736,-0.46287 -0.723248,2e-5 -1.40791,0.15913 -2.05399,0.47734 -0.646101,0.31824 -1.243975,0.75218 -1.793625,1.30182 -0.549667,0.54968 -1.046289,1.19577 -1.489866,1.93827 -0.433948,0.7329 -0.805209,1.51881 -1.113783,2.35775 -0.308586,0.83897 -0.544843,1.71167 -0.708772,2.61812 -0.163938,0.89682 -0.245905,1.78399 -0.2459,2.66151 -5e-6,1.00289 0.125356,1.90452 0.376083,2.7049 0.260359,0.79074 0.607512,1.46576 1.04146,2.02506 0.443578,0.54966 0.964307,0.97396 1.562189,1.27289 0.597867,0.29894 1.243957,0.44841 1.938272,0.44841 0.723226,0 1.407888,-0.15911 2.05399,-0.47734 0.646078,-0.32786 1.243953,-0.77145 1.793625,-1.33075 0.549645,-0.5593 1.041445,-1.20539 1.475401,-1.93827 0.443569,-0.74252 0.819652,-1.53326 1.128248,-2.37222 0.308564,-0.83894 0.544821,-1.69718 0.708771,-2.57472 0.163917,-0.88715 0.245883,-1.75021 0.2459,-2.58918 m 3.37028,0 c -2.1e-5,1.04147 -0.110917,2.08293 -0.332689,3.12438 -0.221812,1.03182 -0.544857,2.02507 -0.969136,2.97973 -0.424317,0.95468 -0.949868,1.84185 -1.576654,2.66151 -0.626822,0.81003 -1.350057,1.5188 -2.169708,2.12631 -0.810039,0.60752 -1.716493,1.08486 -2.719367,1.43201 -0.993255,0.33751 -2.068465,0.50626 -3.225632,0.50626 -1.186115,0 -2.270967,-0.19286 -3.254561,-0.57858 -0.983606,-0.39537 -1.832202,-0.95467 -2.54579,-1.67791 -0.713596,-0.72324 -1.268076,-1.59112 -1.6634428,-2.60365 -0.3953705,-1.01253 -0.5930548,-2.14077 -0.5930534,-3.38474 -1.4e-6,-1.06074 0.1205378,-2.10702 0.361618,-3.13885 0.2410766,-1.0318 0.5882292,-2.0154 1.0414592,-2.9508 0.462868,-0.93537 1.017348,-1.79843 1.663443,-2.58919 0.655729,-0.79072 1.388607,-1.47538 2.198637,-2.05398 0.81966,-0.57857 1.71165,-1.0318 2.675973,-1.35969 0.973947,-0.32785 2.000941,-0.49178 3.080984,-0.4918 1.224666,2e-5 2.333627,0.21217 3.326885,0.63645 0.993228,0.41467 1.837002,0.98362 2.531326,1.70684 0.694287,0.72325 1.229481,1.57184 1.605584,2.54579 0.376062,0.97397 0.564103,2.0106 0.564124,3.10991" />
  </g>
</svg>
