<?xml version="1.0" encoding="UTF-8" standalone="no"?>
<!-- Created with Inkscape (http://www.inkscape.org/) -->
<svg
   xmlns:dc="http://purl.org/dc/elements/1.1/"
   xmlns:cc="http://creativecommons.org/ns#"
   xmlns:rdf="http://www.w3.org/1999/02/22-rdf-syntax-ns#"
   xmlns:svg="http://www.w3.org/2000/svg"
   xmlns="http://www.w3.org/2000/svg"
   xmlns:sodipodi="http://sodipodi.sourceforge.net/DTD/sodipodi-0.dtd"
   xmlns:inkscape="http://www.inkscape.org/namespaces/inkscape"
   version="1.0"
   width="400"
   height="400"
   id="svg2728"
   sodipodi:version="0.32"
   inkscape:version="0.46"
   sodipodi:docname="Wikibooks-logo-en b&amp;w.svg"
   inkscape:output_extension="org.inkscape.output.svg.inkscape">
  <metadata
     id="metadata18">
    <rdf:RDF>
      <cc:Work
         rdf:about="">
        <dc:format>image/svg+xml</dc:format>
        <dc:type
           rdf:resource="http://purl.org/dc/dcmitype/StillImage" />
      </cc:Work>
    </rdf:RDF>
  </metadata>
  <sodipodi:namedview
     inkscape:window-height="935"
     inkscape:window-width="1272"
     inkscape:pageshadow="2"
     inkscape:pageopacity="0.0"
     guidetolerance="10.0"
     gridtolerance="10.0"
     objecttolerance="10.0"
     borderopacity="1.0"
     bordercolor="#666666"
     pagecolor="#ffffff"
     id="base"
     showgrid="false"
     inkscape:zoom="1.245"
     inkscape:cx="-25.596562"
     inkscape:cy="167.87149"
     inkscape:window-x="0"
     inkscape:window-y="55"
     inkscape:current-layer="svg2728"
     showguides="true"
     inkscape:guide-bbox="true" />
  <defs
     id="defs2731">
    <inkscape:perspective
       sodipodi:type="inkscape:persp3d"
       inkscape:vp_x="0 : 200 : 1"
       inkscape:vp_y="0 : 1000 : 0"
       inkscape:vp_z="400 : 200 : 1"
       inkscape:persp3d-origin="200 : 133.33333 : 1"
       id="perspective20" />
  </defs>
  <g
     id="layer1" />
  <g
     id="g3189">
    <g
       id="g3177">
      <path
         id="path3297"
         style="fill:#ffffff;fill-opacity:1;fill-rule:evenodd;stroke:none;stroke-width:1px;stroke-linecap:butt;stroke-linejoin:miter;stroke-opacity:1"
         d="M 191.65664,115.97593 C 196.93351,182.00184 208.45394,245.91983 242.85479,307.46513 L 255.86467,307.56221 L 338.15581,234.14292 L 259.72068,35.943307 L 203.18059,89.951746 L 191.65664,115.97593 z" />
      <path
         d="M 263.32723,16.5 C 236.14031,42.801966 209.26473,68.875 209.26473,68.875 C 209.26473,68.875 218.92098,88.53125 218.92098,88.53125 C 232.01455,75.550025 245.18226,64.133911 257.73348,51.4375 C 284.16674,109.4727 302.17756,156.24917 324.33191,218.08448 C 331.58462,238.17246 330.10582,239.07126 312.76941,249.92823 C 284.91465,263.77995 276.0966,272.86547 242.89833,308.1875 L 265.61708,308.1875 C 293.37052,283.09599 303.67261,274.24081 338.42566,255.92823 C 350.71955,248.83035 352.40523,239.86966 347.36316,225.92823 C 331.10198,180.73146 295.87208,83.322614 263.32723,16.5 z"
         style="fill:#000000;fill-opacity:1"
         id="path3272" />
    </g>
    <g
       id="g3181">
      <path
         id="path3214"
         style="fill:#ffffff;fill-rule:evenodd;stroke:none;stroke-width:1px;stroke-linecap:butt;stroke-linejoin:miter;stroke-opacity:1"
         d="M 125.84082,116.04509 C 131.11769,182.071 144.61911,246.8316 179.01996,308.3769 L 199.35471,308.55962 L 261.32293,230.84125 L 193.90486,36.012472 L 137.36477,90.020911 L 125.84082,116.04509 z" />
      <path
         d="M 192.45223,17.125 C 172.56466,30.549352 157.22356,49.869448 139.92098,66.4375 C 139.92098,66.4375 147.01473,89.0625 147.01473,89.0625 C 160.5559,78.391834 172.3403,65.526043 184.51473,53.34375 L 250.17098,218.03125 C 253.95672,229.18194 247.99456,239.10365 236.01473,249.90625 C 221.66549,261.43896 192.12216,288.32681 178.73348,308.8125 L 199.10848,308.8125 C 220.49313,286.84657 224.35368,283.86504 248.70223,262.78125 C 265.04857,246.10281 279.81623,237.56053 272.10848,216.1875 L 192.45223,17.125 z"
         style="fill:#000000;fill-opacity:1;fill-rule:evenodd;stroke:none;stroke-width:22;stroke-linecap:round;stroke-linejoin:miter;stroke-miterlimit:4;stroke-dasharray:none;stroke-opacity:1"
         id="path3138" />
    </g>
    <g
       id="g3185">
      <path
         id="path2238"
         style="fill:#ffffff;fill-rule:evenodd;stroke:none;stroke-width:1px;stroke-linecap:butt;stroke-linejoin:miter;stroke-opacity:1"
         d="M 50.218883,114.63177 C 55.595535,183.91551 77.233973,245.97178 102.67801,306.33668 L 129.48015,306.00572 L 199.88087,225.96804 L 118.28293,34.599156 L 61.742841,88.607595 L 50.218883,114.63177 z" />
      <path
         d="M 125.32723,16.0625 C 120.02588,17.841698 115.61512,21.260515 111.48348,24.875 C 55.394922,78.847012 53.13973,81.125 53.13973,81.125 C 50.188265,83.867742 49.941746,87.87735 49.98348,91.90625 L 50.218884,114.63177 C 50.218884,114.63177 76.123108,89.450054 114.79598,52.21875 C 135.6144,106.45643 157.3415,160.40524 178.73348,214.4375 C 181.66298,222.60083 174.65125,229.2909 165.76473,238.21875 C 153.49118,250.19233 127.82007,274.84011 101.54598,307.75 L 127.88973,307.75 C 127.88973,307.75 191.20222,238.3125 191.20223,238.3125 C 197.22151,230.03457 204.70542,221.9413 201.54598,214.4375 C 201.54598,214.4375 125.32723,16.062501 125.32723,16.0625 z"
         style="fill:#000000;fill-opacity:1;fill-rule:evenodd;stroke:none;stroke-width:22;stroke-linecap:round;stroke-linejoin:miter;stroke-miterlimit:4;stroke-dasharray:none;stroke-opacity:1"
         id="path3136" />
    </g>
  </g>
  <text
     xml:space="preserve"
     style="font-style: normal; font-variant: normal; font-weight: bold; font-stretch: normal; fill: rgb(0, 0, 0); fill-opacity: 1; stroke: none; stroke-width: 1px; stroke-linecap: butt; stroke-linejoin: miter; stroke-opacity: 1; font-family: DejaVu Sans;"
     x="15.261"
     y="175.904"
     id="text2416"><tspan
       sodipodi:role="line"
       id="tspan2418"
       x="15.261"
       y="175.904" /></text>
  <g
     id="g2700"
     transform="translate(6.8381)">
    <path
       style="font-size:56px;font-style:normal;font-variant:normal;font-weight:bold;font-stretch:normal;fill:#000000;fill-opacity:1;stroke:none;stroke-width:1px;stroke-linecap:butt;stroke-linejoin:miter;stroke-opacity:1;font-family:DejaVu Sans"
       d="M 19.999969,318.41012 L 30.089813,318.41012 L 37.144501,348.07809 L 44.144501,318.41012 L 54.289032,318.41012 L 61.289032,348.07809 L 68.343719,318.41012 L 78.351532,318.41012 L 68.726532,359.23434 L 56.585907,359.23434 L 49.175751,328.19918 L 41.847626,359.23434 L 29.707001,359.23434 L 19.999969,318.41012 z M 85.269501,318.41012 L 95.796844,318.41012 L 95.796844,359.23434 L 85.269501,359.23434 L 85.269501,318.41012 z M 106.16013,318.41012 L 116.68747,318.41012 L 116.68747,333.31246 L 131.86325,318.41012 L 144.08591,318.41012 L 124.42575,337.74215 L 146.10934,359.23434 L 132.92966,359.23434 L 116.68747,343.15622 L 116.68747,359.23434 L 106.16013,359.23434 L 106.16013,318.41012 z M 149.582,318.41012 L 160.10934,318.41012 L 160.10934,359.23434 L 149.582,359.23434 L 149.582,318.41012 z"
       id="text2420" />
    <path
       sodipodi:nodetypes="cssscccccssscccccsssccccssscccssssssscccssssssscccssssssscccsssssssccccccccccccccccsssssccsssssccsssssccssssscc"
       id="text3194"
       d="M 186.35118,334.18747 C 188.01001,334.18749 189.26782,333.82291 190.12462,333.09372 C 190.98136,332.36458 191.40975,331.28906 191.40977,329.86716 C 191.40975,328.46354 190.98136,327.39258 190.12462,326.65427 C 189.26782,325.91602 188.01001,325.54688 186.35118,325.54684 L 180.52696,325.54684 L 180.52696,334.18747 L 186.35118,334.18747 z M 186.70665,352.04294 C 188.82121,352.04295 190.4117,351.59633 191.47813,350.70309 C 192.54451,349.80987 193.07772,348.46092 193.07774,346.65622 C 193.07772,344.888 192.54907,343.56183 191.49181,342.6777 C 190.43449,341.79361 188.83944,341.35155 186.70665,341.35153 L 180.52696,341.35153 L 180.52696,352.04294 L 186.70665,352.04294 z M 196.49571,337.35934 C 198.7561,338.01562 200.50609,339.22785 201.74571,340.99606 C 202.98526,342.76431 203.60505,344.93358 203.60509,347.50388 C 203.60505,351.44138 202.27432,354.37628 199.6129,356.30856 C 196.95141,358.24086 192.90454,359.207 187.47227,359.207 L 169.99962,359.207 L 169.99962,318.38278 L 185.80431,318.38278 C 191.47355,318.38282 195.57967,319.23959 198.12267,320.95309 C 200.6656,322.66667 201.93708,325.41016 201.93712,329.18356 C 201.93708,331.17057 201.47224,332.86132 200.54259,334.25583 C 199.61287,335.65038 198.26391,336.68489 196.49571,337.35934 L 196.49571,337.35934 z M 227.30431,325.27341 C 224.09595,325.27344 221.60767,326.45834 219.83946,328.82809 C 218.07122,331.19791 217.1871,334.53385 217.18712,338.83591 C 217.1871,343.11978 218.07122,346.4466 219.83946,348.81638 C 221.60767,351.18618 224.09595,352.37107 227.30431,352.37106 C 230.53084,352.37107 233.02823,351.18618 234.79649,348.81638 C 236.56469,346.4466 237.4488,343.11978 237.44884,338.83591 C 237.4488,334.53385 236.56469,331.19791 234.79649,328.82809 C 233.02823,326.45834 230.53084,325.27344 227.30431,325.27341 L 227.30431,325.27341 z M 227.30431,317.6445 C 233.86678,317.64454 239.0074,319.52214 242.72618,323.27731 C 246.44489,327.03255 248.30426,332.21875 248.30431,338.83591 C 248.30426,345.43488 246.44489,350.61196 242.72618,354.36716 C 239.0074,358.12237 233.86678,359.99997 227.30431,359.99997 C 220.76002,359.99997 215.62396,358.12237 211.8961,354.36716 C 208.16823,350.61196 206.3043,345.43488 206.30431,338.83591 C 206.3043,332.21875 208.16823,327.03255 211.8961,323.27731 C 215.62396,319.52214 220.76002,317.64454 227.30431,317.6445 L 227.30431,317.6445 z M 270.88243,325.27341 C 267.67408,325.27344 265.1858,326.45834 263.41759,328.82809 C 261.64934,331.19791 260.76523,334.53385 260.76524,338.83591 C 260.76523,343.11978 261.64934,346.4466 263.41759,348.81638 C 265.1858,351.18618 267.67408,352.37107 270.88243,352.37106 C 274.10897,352.37107 276.60636,351.18618 278.37462,348.81638 C 280.14281,346.4466 281.02693,343.11978 281.02696,338.83591 C 281.02693,334.53385 280.14281,331.19791 278.37462,328.82809 C 276.60636,326.45834 274.10897,325.27344 270.88243,325.27341 L 270.88243,325.27341 z M 270.88243,317.6445 C 277.4449,317.64454 282.58552,319.52214 286.30431,323.27731 C 290.02301,327.03255 291.88239,332.21875 291.88243,338.83591 C 291.88239,345.43488 290.02301,350.61196 286.30431,354.36716 C 282.58552,358.12237 277.4449,359.99997 270.88243,359.99997 C 264.33814,359.99997 259.20208,358.12237 255.47423,354.36716 C 251.74636,350.61196 249.88243,345.43488 249.88243,338.83591 C 249.88243,332.21875 251.74636,327.03255 255.47423,323.27731 C 259.20208,319.52214 264.33814,317.64454 270.88243,317.6445 L 270.88243,317.6445 z M 295.81212,318.38278 L 306.33946,318.38278 L 306.33946,333.28513 L 321.51524,318.38278 L 333.7379,318.38278 L 314.07774,337.71481 L 333.76134,359.207 L 322.58165,359.207 L 306.33946,343.12888 L 306.33946,359.207 L 295.81212,359.207 L 295.81212,318.38278 z M 363.64415,319.66794 L 363.64415,328.30856 C 361.40193,327.30599 359.21443,326.54948 357.08165,326.03903 C 354.94881,325.52865 352.93449,325.27344 351.03868,325.27341 C 348.52304,325.27344 346.66366,325.61979 345.46056,326.31247 C 344.25742,327.00521 343.65585,328.08073 343.65587,329.53903 C 343.65585,330.63281 344.06145,331.48502 344.87267,332.09567 C 345.68385,332.70638 347.15585,333.23046 349.28868,333.66794 L 353.77306,334.57028 C 358.31209,335.48176 361.53865,336.86718 363.45274,338.72653 C 365.36677,340.58593 366.3238,343.22915 366.32384,346.65622 C 366.3238,351.15883 364.98852,354.50844 362.31798,356.70505 C 359.64738,358.90166 355.5686,359.99997 350.08165,359.99997 C 347.49309,359.99997 344.89544,359.75388 342.28868,359.26169 C 339.6819,358.7695 337.07513,358.04034 334.46837,357.07419 L 334.46837,348.18747 C 337.07513,349.5729 339.59531,350.61651 342.02892,351.31833 C 344.46249,352.02016 346.8095,352.37107 349.06993,352.37106 C 351.36678,352.37107 353.1259,351.98826 354.34727,351.22263 C 355.5686,350.45701 356.17928,349.36326 356.17931,347.94138 C 356.17928,346.66535 355.76457,345.68097 354.93517,344.98825 C 354.10571,344.29556 352.45142,343.67577 349.97227,343.12888 L 345.89806,342.22653 C 341.81471,341.35155 338.82969,339.95702 336.94298,338.04294 C 335.05625,336.1289 334.1129,333.54947 334.1129,330.30466 C 334.1129,326.23959 335.42539,323.11329 338.0504,320.92575 C 340.67539,318.73829 344.44882,317.64454 349.37071,317.6445 C 351.61288,317.64454 353.91887,317.81316 356.28868,318.15036 C 358.65844,318.48764 361.11026,318.9935 363.64415,319.66794 L 363.64415,319.66794 z"
       style="font-size:56px;font-style:normal;font-variant:normal;font-weight:bold;font-stretch:normal;fill:#000000;fill-opacity:1;stroke:none;stroke-width:1px;stroke-linecap:butt;stroke-linejoin:miter;stroke-opacity:1;font-family:DejaVu Sans" />
  </g>
  <path
     style="font-size: 30.6531px; font-style: italic; font-variant: normal; font-weight: normal; font-stretch: normal; text-align: center; line-height: 150%; text-anchor: middle; fill: rgb(0, 0, 0); fill-opacity: 1; stroke: none; stroke-width: 1px; stroke-linecap: butt; stroke-linejoin: miter; stroke-opacity: 1; font-family: Charis SIL;"
     d="M 17.6872,376.62284 C 17.687182,375.59583 17.55586,374.66446 17.293235,373.82872 C 17.030575,372.99301 16.664936,372.2756 16.196315,371.67649 C 15.727662,371.0774 15.171477,370.61676 14.52776,370.29454 C 13.884014,369.97234 13.186207,369.81124 12.434341,369.81122 C 11.66185,369.81124 10.930572,369.97738 10.240502,370.30963 C 9.5504093,370.64192 8.9118284,371.09502 8.324753,371.66893 C 7.7376607,372.24289 7.2098008,372.91497 6.7411703,373.68524 C 6.2725268,374.45553 5.8734129,375.27866 5.5438282,376.15464 C 5.2142313,377.03065 4.9618884,377.93937 4.7867987,378.8808 C 4.6116982,379.82226 4.5241508,380.75111 4.5241557,381.66738 C 4.5241508,382.71455 4.6606218,383.65348 4.9335697,384.48415 C 5.2065066,385.31485 5.5772962,386.01967 6.0459394,386.59863 C 6.5145699,387.1776 7.0681785,387.62315 7.7067697,387.93529 C 8.3453437,388.24743 9.0354244,388.40349 9.7770143,388.40349 C 10.549481,388.40349 11.280761,388.23484 11.970854,387.89753 C 12.660923,387.56021 13.299505,387.09957 13.886602,386.51558 C 14.473671,385.93158 15.001532,385.25444 15.470184,384.48415 C 15.938806,383.71389 16.33792,382.89076 16.667528,382.01476 C 16.997101,381.13877 17.249444,380.24012 17.424557,379.3188 C 17.599634,378.3975 17.687182,377.49886 17.6872,376.62284 L 17.6872,376.62284 z M 21.286953,376.62284 C 21.286931,377.71029 21.168484,378.79523 20.931611,379.87763 C 20.694697,380.96005 20.349657,381.99966 19.89649,382.99647 C 19.443282,383.9933 18.881948,384.91713 18.212486,385.76796 C 17.542987,386.61878 16.773082,387.36136 15.902773,387.9957 C 15.032431,388.63004 14.064257,389.12593 12.998252,389.48338 C 11.932218,389.84083 10.781226,390.01956 9.5452703,390.01956 C 8.2783955,390.01956 7.1196773,389.81566 6.0691137,389.40786 C 5.0185367,389.00007 4.1121622,388.41859 3.3499874,387.66342 C 2.587805,386.90826 1.9955716,386.00206 1.5732855,384.94481 C 1.1509954,383.88759 0.93985122,382.70951 0.93985272,381.41061 C 0.93985122,380.30305 1.0685976,379.21057 1.3260924,378.13319 C 1.5835831,377.05583 1.9569477,376.02879 2.446187,375.05209 C 2.9354202,374.07542 3.5276537,373.17426 4.222889,372.34859 C 4.9181147,371.52296 5.7008926,370.80806 6.5712258,370.2039 C 7.4415434,369.59979 8.3942667,369.12654 9.4293983,368.78418 C 10.464508,368.44187 11.558854,368.27069 12.712434,368.27067 C 14.020484,368.27069 15.204951,368.48969 16.265839,368.92766 C 17.326691,369.3657 18.227916,369.96226 18.969516,370.71742 C 19.711074,371.47261 20.282709,372.35868 20.684418,373.37563 C 21.086086,374.39259 21.286931,375.47499 21.286953,376.62284 L 21.286953,376.62284 z M 33.399426,380.08152 C 33.399416,379.62843 33.350491,379.16778 33.252655,378.69956 C 33.154796,378.23136 33.00545,377.80596 32.804618,377.42332 C 32.603761,377.04072 32.348844,376.72859 32.039863,376.48691 C 31.730861,376.24527 31.365222,376.12445 30.942942,376.12443 C 30.561845,376.12445 30.180754,376.20752 29.799673,376.37364 C 29.418576,376.5398 29.070961,376.72606 28.756826,376.93246 C 28.442678,377.13889 28.172311,377.34027 27.945723,377.53661 C 27.719123,377.73295 27.564628,377.86135 27.482236,377.92174 L 25.597387,387.51238 C 25.69008,387.56273 25.821402,387.64078 25.991351,387.74649 C 26.161293,387.85222 26.359562,387.95542 26.58616,388.05612 C 26.812748,388.1568 27.054792,388.24491 27.31229,388.32041 C 27.569777,388.39595 27.837571,388.43371 28.115669,388.43371 C 28.692447,388.43371 29.222882,388.30784 29.706976,388.05612 C 30.191054,387.80439 30.628792,387.46457 31.02019,387.03663 C 31.41157,386.60871 31.75661,386.11281 32.055312,385.54896 C 32.353994,384.98509 32.601187,384.39354 32.796892,383.7743 C 32.992576,383.15507 33.141922,382.52827 33.24493,381.89393 C 33.347916,381.2596 33.399416,380.65546 33.399426,380.08152 L 33.399426,380.08152 z M 36.535692,379.96069 C 36.535677,380.8065 36.43268,381.6397 36.226699,382.46031 C 36.020692,383.28093 35.724574,384.05875 35.338349,384.79378 C 34.952095,385.52882 34.486034,386.20847 33.940161,386.83274 C 33.394265,387.45701 32.786582,387.9957 32.11711,388.4488 C 31.447619,388.90191 30.72149,389.25683 29.93872,389.51359 C 29.155933,389.77035 28.337106,389.89872 27.482236,389.89872 C 27.008443,389.89872 26.581006,389.83328 26.19992,389.70238 C 25.818827,389.57148 25.499536,389.45065 25.242047,389.33991 L 24.237824,394.30892 C 24.196623,394.48008 24.219798,394.61853 24.307347,394.72426 C 24.394892,394.82998 24.577711,394.89794 24.855807,394.92816 L 26.848803,395.0943 L 26.848803,396.25726 L 18.876819,396.25726 L 18.876819,395.0943 L 20.529924,394.92816 C 20.972813,394.89794 21.225156,394.69153 21.286954,394.30892 L 24.855807,376.3812 L 22.198479,376.09423 L 22.198479,375.20313 L 26.987849,374.23651 L 28.223815,374.23651 L 27.837576,376.15464 C 28.105363,375.98348 28.41178,375.78714 28.756826,375.56561 C 29.10186,375.3441 29.470075,375.13519 29.86147,374.93883 C 30.252853,374.7425 30.662267,374.57636 31.089712,374.44041 C 31.517143,374.30449 31.952305,374.23652 32.395204,374.23651 C 33.198571,374.23652 33.865476,374.40518 34.395924,374.74248 C 34.926346,375.0798 35.348635,375.52031 35.66279,376.06402 C 35.976916,376.60775 36.200935,377.22197 36.334847,377.90663 C 36.468729,378.59134 36.535677,379.27602 36.535692,379.96069 L 36.535692,379.96069 z M 47.999283,377.33271 C 47.999273,377.13134 47.958073,376.93248 47.875685,376.73613 C 47.793278,376.5398 47.679981,376.3661 47.535795,376.21506 C 47.39159,376.06404 47.211344,375.94069 46.99506,375.84503 C 46.778756,375.74938 46.541863,375.70155 46.284379,375.70154 C 45.93418,375.70155 45.599439,375.79216 45.280155,375.9734 C 44.960856,376.15465 44.65444,376.39632 44.360906,376.69837 C 44.067356,377.00044 43.794415,377.34783 43.542078,377.7405 C 43.289729,378.1332 43.063135,378.54601 42.862297,378.97898 C 42.661446,379.41195 42.483776,379.84995 42.329285,380.29297 C 42.174785,380.73602 42.051188,381.15387 41.958495,381.54655 C 42.627972,381.48615 43.320629,381.33512 44.036465,381.09344 C 44.752288,380.8518 45.403745,380.54218 45.990836,380.16459 C 46.577912,379.78702 47.059423,379.35657 47.435372,378.87324 C 47.811302,378.38995 47.999273,377.87643 47.999283,377.33271 L 47.999283,377.33271 z M 50.811106,377.36291 C 50.811093,377.92678 50.677196,378.44533 50.409418,378.91856 C 50.141612,379.39181 49.778546,379.81974 49.320222,380.20235 C 48.861872,380.58498 48.331437,380.9248 47.728914,381.22183 C 47.126371,381.51887 46.492939,381.77059 45.828615,381.977 C 45.164276,382.18343 44.487071,382.34956 43.796995,382.47541 C 43.10691,382.60127 42.447727,382.67931 41.819448,382.7095 C 41.788546,382.91089 41.760222,383.15255 41.734476,383.43448 C 41.708723,383.71641 41.695848,383.95304 41.695853,384.14434 C 41.695848,384.70819 41.765372,385.22676 41.904422,385.69998 C 42.043464,386.17322 42.244308,386.58353 42.506956,386.93091 C 42.769594,387.27829 43.08631,387.55015 43.457104,387.74649 C 43.827889,387.94284 44.245026,388.04101 44.708521,388.04101 C 45.419194,388.04101 46.201972,387.78929 47.056857,387.28584 C 47.911725,386.7824 48.921096,386.03227 50.084976,385.03544 L 50.084976,386.98378 C 49.786272,387.2657 49.420632,387.57533 48.988055,387.91264 C 48.555457,388.24994 48.063645,388.56711 47.51262,388.86415 C 46.961577,389.16117 46.361618,389.40786 45.712744,389.60421 C 45.063853,389.80055 44.378923,389.89872 43.65795,389.89872 C 43.338651,389.89872 42.991037,389.86852 42.615103,389.8081 C 42.239158,389.74768 41.865793,389.63945 41.495009,389.48338 C 41.124215,389.32731 40.7663,389.11335 40.421262,388.84149 C 40.076218,388.56963 39.772376,388.22477 39.509737,387.80689 C 39.247093,387.38905 39.035949,386.89064 38.876304,386.31167 C 38.716657,385.73271 38.636833,385.05054 38.636834,384.26517 C 38.636833,383.44959 38.737257,382.63653 38.938103,381.82597 C 39.138945,381.01542 39.422187,380.24012 39.787829,379.50004 C 40.153468,378.75999 40.593779,378.07026 41.108768,377.43088 C 41.62375,376.7915 42.190235,376.23773 42.808223,375.76951 C 43.4262,375.30132 44.087957,374.93379 44.793494,374.66695 C 45.499017,374.40014 46.227722,374.26674 46.979609,374.26672 C 47.71088,374.26674 48.321138,374.38504 48.810386,374.62165 C 49.299611,374.85828 49.693574,375.14272 49.992278,375.47498 C 50.290958,375.80727 50.502102,376.14962 50.625711,376.50201 C 50.749295,376.85444 50.811093,377.1414 50.811106,377.36291 L 50.811106,377.36291 z M 68.068289,388.9019 C 67.934375,388.95225 67.700058,389.03028 67.365333,389.136 C 67.030576,389.24174 66.657211,389.35248 66.245238,389.46828 C 65.833235,389.58407 65.410946,389.68477 64.978372,389.77035 C 64.545771,389.85593 64.164682,389.89872 63.835104,389.89872 C 63.649696,389.89872 63.394778,389.88112 63.070349,389.84586 C 62.745896,389.81063 62.434331,389.73006 62.135649,389.60421 C 61.836947,389.47835 61.594903,389.29459 61.409519,389.05294 C 61.224114,388.81127 61.177766,388.48404 61.270473,388.07122 L 63.201671,378.57119 C 63.273757,378.15837 63.276332,377.81602 63.209395,377.54416 C 63.142435,377.2723 63.034288,377.05331 62.884954,376.88716 C 62.735596,376.72103 62.563076,376.60523 62.367393,376.53978 C 62.171688,376.47435 61.986294,376.44162 61.811207,376.44161 C 61.553705,376.44162 61.236988,376.51462 60.861059,376.6606 C 60.48511,376.80662 60.088571,377.00044 59.67144,377.24208 C 59.254293,377.48375 58.834581,377.7682 58.412301,378.09543 C 57.990005,378.42268 57.603766,378.76754 57.253581,379.13001 L 55.07519,389.52115 L 52.124319,389.52115 L 54.874345,376.3812 L 52.217017,376.09423 L 52.217017,375.20313 L 56.990938,374.23651 L 58.257804,374.23651 L 57.670719,377.12125 C 58.020904,376.77893 58.422592,376.43406 58.875787,376.08667 C 59.328967,375.73931 59.813054,375.4297 60.328049,375.1578 C 60.843025,374.88597 61.376035,374.66446 61.92708,374.49327 C 62.478104,374.32211 63.016265,374.23652 63.541561,374.23651 C 64.695117,374.23652 65.516519,374.54866 66.005769,375.17292 C 66.494991,375.7972 66.616013,376.80409 66.368835,378.19359 L 64.68483,386.92336 C 64.633319,387.21537 64.656492,387.44695 64.754354,387.61812 C 64.852188,387.78929 64.980933,387.92019 65.140593,388.0108 C 65.300225,388.10142 65.467597,388.15932 65.642705,388.18449 C 65.817786,388.20967 65.951681,388.22225 66.044393,388.22225 C 66.332772,388.22225 66.646912,388.18197 66.986818,388.10142 C 67.326692,388.02087 67.676883,387.92522 68.037389,387.81446 L 68.068289,388.9019 z M 88.832532,380.05132 C 88.83252,379.35657 88.750123,378.77005 88.585338,378.29177 C 88.420532,377.81351 88.219687,377.42333 87.982804,377.12125 C 87.7459,376.8192 87.496133,376.60272 87.233501,376.47181 C 86.970847,376.34093 86.746828,376.27548 86.561442,376.27547 C 86.303941,376.27548 86.020698,376.31576 85.711716,376.3963 C 85.402716,376.47685 85.086,376.59013 84.761567,376.73613 C 84.437118,376.88213 84.115252,377.05079 83.795967,377.24208 C 83.476671,377.4334 83.183129,377.63981 82.915341,377.86133 L 81.154089,387.22542 C 81.257083,387.37646 81.396129,387.52245 81.571228,387.66342 C 81.746319,387.80439 81.947162,387.93277 82.173761,388.04856 C 82.40035,388.16435 82.647543,388.2575 82.915341,388.32797 C 83.183129,388.39846 83.46122,388.43371 83.749619,388.43371 C 84.2337,388.43371 84.694611,388.31287 85.132356,388.07122 C 85.570087,387.82956 85.976926,387.50232 86.352874,387.0895 C 86.728803,386.67667 87.07127,386.19337 87.38027,385.63957 C 87.689253,385.08578 87.94932,384.49927 88.160474,383.88002 C 88.371608,383.26079 88.536403,382.62141 88.654861,381.96189 C 88.773296,381.30239 88.83252,380.66552 88.832532,380.05132 L 88.832532,380.05132 z M 91.968798,379.9305 C 91.968782,380.57491 91.896685,381.26714 91.752502,382.00721 C 91.608291,382.74727 91.384273,383.48482 91.080446,384.21986 C 90.77659,384.95488 90.387776,385.66474 89.914002,386.34943 C 89.440202,387.03412 88.873718,387.63826 88.214549,388.16183 C 87.555356,388.68542 86.798328,389.10579 85.94346,389.42297 C 85.088574,389.74013 84.125552,389.89872 83.054387,389.89872 C 82.158306,389.89872 81.275108,389.7779 80.404784,389.53625 C 79.534455,389.29459 78.728503,388.93714 77.986925,388.4639 L 81.725723,368.8597 L 78.89845,368.58784 L 78.89845,367.65143 L 83.842317,366.73013 L 85.078284,366.73013 L 83.270682,376.09423 C 83.559067,375.84252 83.875784,375.60338 84.220831,375.37681 C 84.565866,375.15027 84.923779,374.95394 85.294576,374.78778 C 85.665359,374.62167 86.046447,374.48825 86.437846,374.38754 C 86.829226,374.28687 87.215465,374.23652 87.596565,374.23651 C 88.410232,374.23652 89.095163,374.41273 89.65136,374.76512 C 90.207531,375.11756 90.658144,375.57066 91.003198,376.12443 C 91.348225,376.67824 91.595418,377.28992 91.744777,377.9595 C 91.89411,378.62909 91.968782,379.28609 91.968798,379.9305 L 91.968798,379.9305 z M 104.88466,380.11172 C 104.88465,379.3767 104.81254,378.72726 104.66836,378.16339 C 104.52415,377.59954 104.32844,377.1263 104.08127,376.74367 C 103.83406,376.36106 103.53795,376.06908 103.19292,375.86768 C 102.84787,375.66631 102.4745,375.56562 102.07283,375.56561 C 101.38274,375.56562 100.74157,375.80979 100.14935,376.29813 C 99.557107,376.78647 99.044703,377.42585 98.612115,378.21626 C 98.179526,379.00667 97.83963,379.89778 97.592443,380.88955 C 97.345246,381.88134 97.221649,382.88069 97.221649,383.88758 C 97.221649,384.65282 97.293745,385.3224 97.437948,385.89633 C 97.582141,386.47026 97.782986,386.95105 98.040485,387.3387 C 98.297973,387.72636 98.596661,388.01583 98.936558,388.20715 C 99.276437,388.39846 99.647227,388.49412 100.04893,388.49412 C 100.5433,388.49412 101.00937,388.37077 101.44712,388.12407 C 101.88484,387.87738 102.28138,387.54511 102.63674,387.12725 C 102.99206,386.70939 103.30878,386.22356 103.58687,385.66978 C 103.86496,385.11599 104.10185,384.52947 104.29756,383.91024 C 104.49325,383.291 104.64001,382.65414 104.73789,381.99965 C 104.83571,381.34518 104.88465,380.71588 104.88466,380.11172 L 104.88466,380.11172 z M 108.08271,380.24766 C 108.0827,381.08338 107.98743,381.90148 107.79689,382.70196 C 107.60633,383.50244 107.3334,384.26014 106.97806,384.97502 C 106.62271,385.68992 106.19528,386.34693 105.69575,386.94602 C 105.19621,387.54511 104.63487,388.06366 104.01174,388.50166 C 103.38859,388.93965 102.71139,389.282 101.98013,389.52869 C 101.24884,389.77537 100.47636,389.89872 99.662687,389.89872 C 98.797507,389.89872 98.014729,389.76279 97.31435,389.49093 C 96.613971,389.21908 96.021732,388.8289 95.537648,388.32041 C 95.053559,387.81194 94.680196,387.19773 94.417554,386.47781 C 94.154911,385.75788 94.023589,384.94985 94.02359,384.05372 C 94.023589,383.218 94.116286,382.39486 94.301682,381.58431 C 94.487075,380.77377 94.752294,380.00601 95.097336,379.28105 C 95.442374,378.55609 95.862087,377.884 96.356476,377.26473 C 96.850864,376.64551 97.409617,376.11186 98.032758,375.66378 C 98.655879,375.21573 99.335667,374.86583 100.07211,374.6141 C 100.80852,374.36238 101.58872,374.23652 102.41272,374.23651 C 103.17488,374.23652 103.89844,374.35231 104.58339,374.5839 C 105.2683,374.81549 105.87083,375.17796 106.39098,375.67132 C 106.91111,376.16472 107.3231,376.789 107.62695,377.54416 C 107.93077,378.29934 108.0827,379.20051 108.08271,380.24766 L 108.08271,380.24766 z M 120.95221,380.11172 C 120.9522,379.3767 120.8801,378.72726 120.73593,378.16339 C 120.59171,377.59954 120.39602,377.1263 120.14883,376.74367 C 119.90163,376.36106 119.60552,376.06908 119.26048,375.86768 C 118.91543,375.66631 118.54208,375.56562 118.14039,375.56561 C 117.45029,375.56562 116.80913,375.80979 116.21691,376.29813 C 115.62468,376.78647 115.11226,377.42585 114.67968,378.21626 C 114.24709,379.00667 113.90719,379.89778 113.66001,380.88955 C 113.4128,381.88134 113.28921,382.88069 113.28922,383.88758 C 113.28921,384.65282 113.3613,385.3224 113.50551,385.89633 C 113.6497,386.47026 113.85054,386.95105 114.10804,387.3387 C 114.36552,387.72636 114.66422,388.01583 115.00412,388.20715 C 115.34399,388.39846 115.7148,388.49412 116.11649,388.49412 C 116.61086,388.49412 117.07694,388.37077 117.51467,388.12407 C 117.95241,387.87738 118.34896,387.54511 118.70429,387.12725 C 119.05963,386.70939 119.37634,386.22356 119.65445,385.66978 C 119.93252,385.11599 120.16941,384.52947 120.36513,383.91024 C 120.5608,383.291 120.70758,382.65414 120.80544,381.99965 C 120.90327,381.34518 120.9522,380.71588 120.95221,380.11172 L 120.95221,380.11172 z M 124.15027,380.24766 C 124.15026,381.08338 124.05499,381.90148 123.86446,382.70196 C 123.6739,383.50244 123.40095,384.26014 123.04564,384.97502 C 122.69028,385.68992 122.26283,386.34693 121.76331,386.94602 C 121.26377,387.54511 120.70243,388.06366 120.0793,388.50166 C 119.45617,388.93965 118.77897,389.282 118.04769,389.52869 C 117.31639,389.77537 116.54392,389.89872 115.73024,389.89872 C 114.86506,389.89872 114.08229,389.76279 113.38191,389.49093 C 112.68154,389.21908 112.08929,388.8289 111.60522,388.32041 C 111.12113,387.81194 110.74776,387.19773 110.48512,386.47781 C 110.22247,385.75788 110.09116,384.94985 110.09116,384.05372 C 110.09116,383.218 110.18384,382.39486 110.36925,381.58431 C 110.55464,380.77377 110.81986,380.00601 111.1649,379.28105 C 111.50994,378.55609 111.92965,377.884 112.42404,377.26473 C 112.91843,376.64551 113.47717,376.11186 114.10032,375.66378 C 114.72346,375.21573 115.40322,374.86583 116.13967,374.6141 C 116.87609,374.36238 117.65629,374.23652 118.48028,374.23651 C 119.24244,374.23652 119.966,374.35231 120.65094,374.5839 C 121.33586,374.81549 121.9384,375.17796 122.45853,375.67132 C 122.97867,376.16472 123.39066,376.789 123.69452,377.54416 C 123.99834,378.29934 124.15026,379.20051 124.15027,380.24766 L 124.15027,380.24766 z M 140.91307,388.81127 C 140.64526,388.94218 140.33885,389.07309 139.99382,389.20397 C 139.64877,389.33487 139.29601,389.45065 138.93553,389.55135 C 138.57502,389.65204 138.22226,389.7351 137.87723,389.80055 C 137.53218,389.866 137.23607,389.89872 136.98888,389.89872 C 136.73137,389.89872 136.47904,389.85593 136.23185,389.77035 C 135.98465,389.68477 135.75033,389.574 135.5289,389.43807 C 135.30745,389.30215 135.10403,389.14607 134.91864,388.96986 C 134.73324,388.79366 134.57874,388.61493 134.45515,388.43371 C 134.31095,388.22225 134.14872,387.94788 133.96849,387.61056 C 133.78823,387.27326 133.5977,386.90322 133.39685,386.50046 C 133.19601,386.09771 132.99259,385.67734 132.7866,385.23932 C 132.58059,384.80133 132.38232,384.37845 132.19179,383.97063 C 132.00123,383.56286 131.82614,383.18276 131.6665,382.83034 C 131.50684,382.47794 131.37038,382.19097 131.25708,381.96944 L 129.80483,383.23814 L 128.50706,389.52115 L 125.60254,389.52115 L 129.80483,368.8597 L 127.0239,368.58784 L 127.0239,367.65143 L 131.92142,366.73013 L 133.18828,366.73013 L 130.25286,381.10855 L 135.36667,375.9432 C 135.66535,375.64113 135.93829,375.38186 136.1855,375.16537 C 136.43269,374.94891 136.67215,374.7727 136.90391,374.63675 C 137.13564,374.50084 137.36996,374.40014 137.60686,374.33468 C 137.84374,374.26925 138.10124,374.23652 138.37934,374.23651 C 138.72953,374.23652 139.03594,374.28687 139.29859,374.38754 C 139.56122,374.48825 139.77752,374.61914 139.94747,374.78024 C 140.11741,374.94135 140.24357,375.12259 140.32599,375.32395 C 140.40837,375.52534 140.44443,375.72169 140.43413,375.91299 C 140.43412,376.26541 140.26675,376.63041 139.93202,377.00798 C 139.59727,377.38558 139.05911,377.70023 138.31754,377.95195 L 137.23608,376.8343 C 136.94767,377.05583 136.63611,377.30251 136.30137,377.57435 C 135.96662,377.84623 135.62931,378.12313 135.28942,378.40505 C 134.94952,378.68699 134.62508,378.96389 134.3161,379.23573 C 134.00711,379.5076 133.72901,379.74926 133.48183,379.96069 C 133.61572,380.2225 133.76248,380.54975 133.92214,380.94242 C 134.08177,381.33512 134.25172,381.75549 134.43198,382.20355 C 134.6122,382.65163 134.8079,383.10976 135.01906,383.57795 C 135.23019,384.04617 135.45422,384.49171 135.69112,384.91461 C 135.928,385.34757 136.17778,385.76291 136.44043,386.16065 C 136.70305,386.55836 136.97342,386.91077 137.25152,387.21787 C 137.52959,387.52498 137.81284,387.76915 138.10126,387.95039 C 138.38962,388.13162 138.67287,388.22225 138.95098,388.22225 C 139.06426,388.22225 139.20331,388.20967 139.36811,388.18449 C 139.53289,388.15932 139.70799,388.12659 139.8934,388.08632 C 140.07879,388.04605 140.2616,387.9957 140.44186,387.93529 C 140.62209,387.87488 140.77916,387.81446 140.91307,387.75405 L 140.91307,388.81127 z M 152.36122,376.18485 C 152.36121,376.54734 152.2788,376.83682 152.11401,377.0533 C 151.94921,377.26979 151.74836,377.43844 151.51149,377.55925 C 151.27458,377.6801 151.02482,377.76317 150.76218,377.80846 C 150.49953,377.85379 150.27035,377.88147 150.07467,377.89153 L 148.65331,376.00361 C 148.59151,375.95328 148.49365,375.90042 148.35976,375.84503 C 148.22586,375.78965 148.06107,375.76197 147.86539,375.76196 C 147.51518,375.76197 147.22163,375.83497 146.98475,375.98095 C 146.74786,376.12696 146.55475,376.30821 146.4054,376.52468 C 146.25604,376.74118 146.15048,376.97275 146.08868,377.21943 C 146.02688,377.46613 145.99598,377.69017 145.99598,377.89153 C 145.99598,378.17348 146.07837,378.45791 146.24317,378.74487 C 146.40797,379.03184 146.62427,379.31881 146.89206,379.60577 C 147.15985,379.89274 147.46112,380.17467 147.79587,380.45156 C 148.13059,380.72847 148.46791,380.99781 148.8078,381.25959 C 149.15799,381.53146 149.4953,381.81088 149.81975,382.09782 C 150.14418,382.38479 150.43515,382.68182 150.69266,382.98893 C 150.95013,383.29604 151.15613,383.62077 151.31064,383.96309 C 151.46512,384.30544 151.54237,384.66289 151.54238,385.03544 C 151.54237,385.66978 151.41105,386.27895 151.14841,386.86294 C 150.88576,387.44695 150.49953,387.96548 149.98971,388.41859 C 149.47985,388.87169 148.84642,389.23167 148.0894,389.49849 C 147.33237,389.76531 146.46462,389.89872 145.48615,389.89872 C 144.72396,389.89872 144.06479,389.81566 143.5086,389.64952 C 142.95242,389.48338 142.49407,389.2669 142.13359,389.00007 C 141.77309,388.73325 141.5053,388.42867 141.33021,388.08632 C 141.15511,387.74398 141.06757,387.39659 141.06757,387.04418 C 141.06757,386.55081 141.21949,386.15057 141.52333,385.84347 C 141.82717,385.53637 142.30353,385.38282 142.95242,385.38282 C 143.1481,385.38282 143.33349,385.40798 143.5086,385.45833 C 143.68369,385.50868 143.84333,385.56657 143.98753,385.63201 C 144.13172,385.69747 144.2579,385.76796 144.36606,385.84347 C 144.4742,385.91898 144.55402,385.98192 144.60551,386.03226 L 144.00298,387.5426 C 144.22958,387.85474 144.51024,388.11905 144.84499,388.33553 C 145.17972,388.55201 145.61488,388.66025 146.15049,388.66025 C 146.46977,388.66025 146.77876,388.59984 147.07746,388.479 C 147.37614,388.35817 147.64136,388.18701 147.8731,387.96548 C 148.10484,387.74398 148.28766,387.47464 148.42156,387.15746 C 148.55545,386.84029 148.6224,386.48537 148.62241,386.09267 C 148.6224,385.78053 148.55803,385.48602 148.4293,385.20913 C 148.30054,384.93222 148.12029,384.66289 147.88855,384.40109 C 147.6568,384.13931 147.38386,383.88003 147.06973,383.62327 C 146.75558,383.36652 146.40797,383.09717 146.02689,382.81524 C 145.69729,382.56352 145.38056,382.29166 145.07674,381.99965 C 144.77289,381.70767 144.49995,381.39804 144.2579,381.0708 C 144.01585,380.74357 143.82275,380.3987 143.67854,380.03622 C 143.53435,379.67374 143.46224,379.3012 143.46224,378.91856 C 143.46224,378.1634 143.63735,377.49382 143.98753,376.9098 C 144.33772,376.32583 144.78833,375.83497 145.33938,375.43723 C 145.8904,375.03951 146.50323,374.73997 147.17787,374.53857 C 147.8525,374.33722 148.51426,374.23652 149.16314,374.23651 C 149.76052,374.23652 150.26263,374.30449 150.66948,374.44041 C 151.07631,374.57636 151.4059,374.7425 151.65826,374.93883 C 151.91058,375.13519 152.09083,375.34662 152.19898,375.57315 C 152.30711,375.79972 152.36121,376.00363 152.36122,376.18485 L 152.36122,376.18485 z M 176.21536,368.64826 C 176.21535,369.14166 176.02995,369.52176 175.65918,369.78856 C 175.28837,370.0554 174.80944,370.2291 174.22237,370.30963 L 171.75043,368.36129 C 171.52382,368.54256 171.31269,368.80434 171.117,369.14667 C 170.9213,369.48903 170.74105,369.87668 170.57627,370.30963 C 170.41146,370.74262 170.25955,371.20326 170.12051,371.69159 C 169.98145,372.17995 169.86042,372.65319 169.75743,373.1113 C 169.65443,373.56946 169.56689,373.99739 169.49479,374.39509 C 169.42269,374.79284 169.36604,375.12259 169.32485,375.38436 L 173.18724,375.38436 L 173.18724,376.92491 L 169.03131,376.92491 C 169.0004,377.15651 168.94633,377.55926 168.86909,378.13319 C 168.79183,378.70712 168.69656,379.37167 168.58327,380.12683 C 168.46998,380.88202 168.34895,381.69005 168.22021,382.55092 C 168.09145,383.41183 167.9627,384.24252 167.83396,385.04298 C 167.70521,385.84348 167.57904,386.58102 167.45545,387.25563 C 167.33186,387.93026 167.2237,388.45886 167.13101,388.84149 C 166.98681,389.41541 166.78855,390.00697 166.5362,390.61614 C 166.28385,391.22531 165.98516,391.81685 165.64013,392.39079 C 165.29509,392.9647 164.914,393.50843 164.49686,394.02196 C 164.07971,394.53546 163.63683,394.98353 163.16819,395.36615 C 162.69956,395.74877 162.21032,396.05083 161.70048,396.27236 C 161.19065,396.49386 160.67309,396.60463 160.14781,396.60464 C 159.74611,396.60463 159.41394,396.53917 159.15129,396.40829 C 158.88865,396.27739 158.68524,396.12383 158.54105,395.94763 C 158.39684,395.77143 158.29643,395.60026 158.23978,395.43412 C 158.18313,395.26797 158.15481,395.14463 158.1548,395.06408 C 158.15481,394.6714 158.23205,394.36682 158.38654,394.15033 C 158.54105,393.93384 158.73673,393.74001 158.97363,393.56886 L 162.20259,394.38442 C 162.48068,394.05215 162.7356,393.64436 162.96734,393.16105 C 163.1991,392.67775 163.41023,392.1441 163.60077,391.56009 C 163.79133,390.9761 163.96384,390.34931 164.11835,389.67973 C 164.27283,389.01014 164.41187,388.31791 164.53548,387.60302 C 164.80327,386.14302 165.05046,384.51437 165.27706,382.71707 C 165.50364,380.91976 165.7766,379.00416 166.09589,376.97022 L 163.65485,377.21189 L 163.68575,376.00361 L 166.43579,375.11251 C 166.53877,374.56879 166.68038,373.98229 166.86064,373.35297 C 167.04088,372.72368 167.2649,372.09939 167.5327,371.48014 C 167.80048,370.86092 168.1172,370.26434 168.48286,369.69039 C 168.84848,369.11648 169.2682,368.61052 169.74198,368.1725 C 170.21576,367.73453 170.74877,367.38462 171.34102,367.12282 C 171.93324,366.86104 172.58985,366.73015 173.31083,366.73013 C 173.84641,366.73015 174.29959,366.7956 174.6704,366.92647 C 175.04117,367.05738 175.33988,367.22101 175.56647,367.41733 C 175.79306,367.61369 175.95785,367.82263 176.06087,368.04412 C 176.16385,368.26566 176.21535,368.46703 176.21536,368.64826 L 176.21536,368.64826 z M 184.2955,380.11172 C 184.29549,379.3767 184.22338,378.72726 184.07921,378.16339 C 183.935,377.59954 183.73931,377.1263 183.49211,376.74367 C 183.24491,376.36106 182.94879,376.06908 182.60377,375.86768 C 182.25872,375.66631 181.88536,375.56562 181.48367,375.56561 C 180.79358,375.56562 180.15243,375.80979 179.5602,376.29813 C 178.96796,376.78647 178.45556,377.42585 178.02296,378.21626 C 177.59038,379.00667 177.25049,379.89778 177.0033,380.88955 C 176.75609,381.88134 176.63251,382.88069 176.63251,383.88758 C 176.63251,384.65282 176.70459,385.3224 176.8488,385.89633 C 176.99299,386.47026 177.19384,386.95105 177.45134,387.3387 C 177.70882,387.72636 178.00752,388.01583 178.34741,388.20715 C 178.68729,388.39846 179.05807,388.49412 179.45978,388.49412 C 179.95416,388.49412 180.42023,388.37077 180.85796,388.12407 C 181.2957,387.87738 181.69224,387.54511 182.04758,387.12725 C 182.40292,386.70939 182.71962,386.22356 182.99774,385.66978 C 183.27582,385.11599 183.51271,384.52947 183.70841,383.91024 C 183.9041,383.291 184.05087,382.65414 184.14872,381.99965 C 184.24656,381.34518 184.29549,380.71588 184.2955,380.11172 L 184.2955,380.11172 z M 187.49357,380.24766 C 187.49355,381.08338 187.39827,381.90148 187.20775,382.70196 C 187.01718,383.50244 186.74424,384.26014 186.38891,384.97502 C 186.03356,385.68992 185.60613,386.34693 185.1066,386.94602 C 184.60705,387.54511 184.04572,388.06366 183.42259,388.50166 C 182.79945,388.93965 182.12224,389.282 181.39097,389.52869 C 180.65968,389.77537 179.88721,389.89872 179.07354,389.89872 C 178.20835,389.89872 177.42558,389.76279 176.7252,389.49093 C 176.02482,389.21908 175.43257,388.8289 174.9485,388.32041 C 174.46441,387.81194 174.09105,387.19773 173.82841,386.47781 C 173.56577,385.75788 173.43444,384.94985 173.43444,384.05372 C 173.43444,383.218 173.52714,382.39486 173.71253,381.58431 C 173.89793,380.77377 174.16315,380.00601 174.50818,379.28105 C 174.85322,378.55609 175.27294,377.884 175.76733,377.26473 C 176.26172,376.64551 176.82047,376.11186 177.44361,375.66378 C 178.06673,375.21573 178.74651,374.86583 179.48295,374.6141 C 180.21937,374.36238 180.99957,374.23652 181.82357,374.23651 C 182.58574,374.23652 183.30929,374.35231 183.99424,374.5839 C 184.67915,374.81549 185.28168,375.17796 185.80182,375.67132 C 186.32195,376.16472 186.73395,376.789 187.0378,377.54416 C 187.34163,378.29934 187.49355,379.20051 187.49357,380.24766 L 187.49357,380.24766 z M 201.47543,376.32078 C 201.47541,376.68327 201.40848,376.97275 201.27459,377.18923 C 201.14067,377.40571 200.95013,377.56933 200.70295,377.68009 C 200.45574,377.79086 200.15963,377.86386 199.8146,377.89908 C 199.46955,377.93433 199.08072,377.95196 198.64816,377.95195 L 197.89112,376.47181 C 197.49973,376.63293 197.08002,376.91233 196.63198,377.31006 C 196.18393,377.70778 195.75908,378.16089 195.3574,378.66936 C 194.9557,379.17785 194.6055,379.70143 194.30682,380.24011 C 194.00812,380.7788 193.81243,381.2747 193.71974,381.72779 L 192.06663,389.52115 L 189.13122,389.52115 L 191.85035,376.3812 L 189.19301,376.09423 L 189.19301,375.20313 L 193.96694,374.23651 L 195.23379,374.23651 L 194.56947,377.36291 C 195.21835,376.38625 195.95478,375.621 196.77875,375.0672 C 197.60273,374.51341 198.49364,374.23652 199.45154,374.23651 C 199.83261,374.23652 200.15191,374.30449 200.40941,374.44041 C 200.6669,374.57636 200.87545,374.75004 201.03512,374.96147 C 201.19475,375.17293 201.30804,375.39948 201.375,375.64112 C 201.44194,375.8828 201.47541,376.10934 201.47543,376.32078 L 201.47543,376.32078 z M 221.40539,377.39311 C 221.41568,377.34279 221.37706,377.22699 221.28953,377.04575 C 221.20195,376.86451 221.09639,376.67572 220.97281,376.47936 C 220.84921,376.28303 220.71788,376.10934 220.57884,375.95829 C 220.43978,375.80727 220.32392,375.73176 220.23123,375.73174 C 219.42784,375.73176 218.70943,375.86014 218.07601,376.11688 C 217.44257,376.37366 216.88897,376.72103 216.41518,377.15901 C 215.94138,377.59703 215.53712,378.10298 215.20238,378.6769 C 214.86764,379.25085 214.59727,379.84995 214.39128,380.4742 C 214.18527,381.09849 214.03595,381.7278 213.94324,382.36214 C 213.85055,382.99648 213.8042,383.60062 213.8042,384.17453 C 213.8042,384.6075 213.84024,385.04047 213.91235,385.47342 C 213.98444,385.90639 214.11062,386.29909 214.29086,386.6515 C 214.4711,387.0039 214.71829,387.29088 215.03244,387.51238 C 215.34658,387.73391 215.75085,387.84466 216.24523,387.84466 C 216.61602,387.84466 216.9868,387.76412 217.35759,387.60302 C 217.72838,387.44192 218.07342,387.25563 218.39272,387.04418 C 218.71201,386.83274 218.9901,386.62129 219.227,386.40984 C 219.46389,386.19841 219.63898,386.0373 219.75229,385.92652 L 221.40539,377.39311 z M 226.05573,388.69046 C 225.93211,388.7408 225.7055,388.83393 225.37593,388.96986 C 225.04633,389.10579 224.67811,389.24174 224.2713,389.37767 C 223.86444,389.51359 223.45245,389.63442 223.03531,389.74013 C 222.61817,389.84586 222.2551,389.89872 221.94613,389.89872 C 221.56503,389.89872 221.24316,389.85343 220.98053,389.76279 C 220.71788,389.67218 220.50158,389.53625 220.33163,389.355 C 220.16169,389.17377 220.03037,388.95225 219.93768,388.69046 C 219.84498,388.42867 219.78317,388.12659 219.75229,387.78425 C 219.51538,388.00577 219.2373,388.23987 218.918,388.48655 C 218.59871,388.73325 218.24595,388.96231 217.85971,389.17377 C 217.47346,389.38521 217.06148,389.5589 216.62375,389.69484 C 216.18601,389.83076 215.73024,389.89872 215.25646,389.89872 C 214.63847,389.89872 214.09516,389.81314 213.62653,389.64196 C 213.15788,389.47079 212.75362,389.24174 212.41373,388.95476 C 212.07383,388.6678 211.79317,388.33553 211.57173,387.95795 C 211.35028,387.58036 211.17262,387.18767 211.03872,386.77988 C 210.90482,386.37208 210.81214,385.95927 210.76063,385.54141 C 210.70914,385.12353 210.68339,384.72834 210.68339,384.35578 C 210.68339,383.56035 210.77093,382.75735 210.94604,381.94679 C 211.12111,381.13625 211.38119,380.35591 211.72624,379.60577 C 212.07126,378.85564 212.50128,378.15333 213.01627,377.49885 C 213.53125,376.84438 214.12605,376.27548 214.80069,375.79215 C 215.47533,375.30886 216.2272,374.92876 217.05633,374.65186 C 217.88545,374.37497 218.79441,374.23652 219.78318,374.23651 C 220.07156,374.23652 220.35738,374.26925 220.64064,374.33468 C 220.92387,374.40014 221.18908,374.48574 221.4363,374.59144 C 221.68347,374.69717 221.91007,374.81549 222.11607,374.94637 C 222.32205,375.07728 222.49715,375.21321 222.64135,375.35417 L 223.10484,374.6141 L 225.26779,374.6141 C 225.21627,374.73493 225.15963,374.87842 225.09783,375.04454 C 225.03603,375.21069 224.97423,375.37935 224.91244,375.55051 C 224.85063,375.72169 224.79655,375.8828 224.75024,376.03381 C 224.70386,376.18486 224.67554,376.30064 224.66526,376.3812 C 224.59313,376.65307 224.49013,377.06338 224.35625,377.61211 C 224.22235,378.16089 224.08073,378.77761 223.9314,379.46229 C 223.78203,380.14698 223.62755,380.86439 223.46791,381.61452 C 223.30824,382.36465 223.16662,383.07452 223.04305,383.7441 C 222.91944,384.41368 222.81644,385.00776 222.73405,385.5263 C 222.65164,386.04484 222.61044,386.41991 222.61045,386.6515 C 222.61044,387.19522 222.72889,387.56777 222.96581,387.76915 C 223.20269,387.97052 223.53742,388.07122 223.97002,388.07122 C 224.07302,388.07122 224.22492,388.04856 224.42577,388.00324 C 224.62661,387.95795 224.83517,387.90507 225.0515,387.84466 C 225.26778,387.78425 225.46861,387.72887 225.65402,387.67852 C 225.8394,387.62819 225.9733,387.59294 226.05573,387.5728 L 226.05573,388.69046 z M 242.83397,388.9019 C 242.70006,388.95225 242.46574,389.03028 242.13101,389.136 C 241.79625,389.24174 241.42289,389.35248 241.01092,389.46828 C 240.59892,389.58407 240.17663,389.68477 239.74405,389.77035 C 239.31145,389.85593 238.93037,389.89872 238.60079,389.89872 C 238.41539,389.89872 238.16045,389.88112 237.83603,389.84586 C 237.51158,389.81063 237.20002,389.73006 236.90133,389.60421 C 236.60263,389.47835 236.36059,389.29459 236.1752,389.05294 C 235.98979,388.81127 235.94345,388.48404 236.03615,388.07122 L 237.96735,378.57119 C 238.03943,378.15837 238.04201,377.81602 237.97507,377.54416 C 237.90811,377.2723 237.79997,377.05331 237.65064,376.88716 C 237.50127,376.72103 237.32876,376.60523 237.13307,376.53978 C 236.93738,376.47435 236.75198,376.44162 236.57689,376.44161 C 236.31938,376.44162 236.00267,376.51462 235.62674,376.6606 C 235.25079,376.80662 234.85425,377.00044 234.43712,377.24208 C 234.01998,377.48375 233.60026,377.7682 233.17798,378.09543 C 232.75569,378.42268 232.36945,378.76754 232.01925,379.13001 L 229.84087,389.52115 L 226.89,389.52115 L 229.64002,376.3812 L 226.9827,376.09423 L 226.9827,375.20313 L 231.75662,374.23651 L 233.02348,374.23651 L 232.4364,377.12125 C 232.78658,376.77893 233.18828,376.43406 233.64147,376.08667 C 234.09465,375.73931 234.57874,375.4297 235.09374,375.1578 C 235.6087,374.88597 236.14172,374.66446 236.69276,374.49327 C 237.24379,374.32211 237.78195,374.23652 238.30724,374.23651 C 239.4608,374.23652 240.2822,374.54866 240.77145,375.17292 C 241.26067,375.7972 241.3817,376.80409 241.13451,378.19359 L 239.45051,386.92336 C 239.39901,387.21537 239.42217,387.44695 239.52003,387.61812 C 239.61787,387.78929 239.74661,387.92019 239.90627,388.0108 C 240.06592,388.10142 240.23327,388.15932 240.40839,388.18449 C 240.58347,388.20967 240.71737,388.22225 240.81008,388.22225 C 241.09845,388.22225 241.4126,388.18197 241.7525,388.10142 C 242.09238,388.02087 242.44257,387.92522 242.80307,387.81446 L 242.83397,388.9019 z M 264.01534,380.11172 C 264.01533,379.3767 263.94323,378.72726 263.79904,378.16339 C 263.65483,377.59954 263.45914,377.1263 263.21196,376.74367 C 262.96476,376.36106 262.66864,376.06908 262.32361,375.86768 C 261.97856,375.66631 261.60519,375.56562 261.20352,375.56561 C 260.51342,375.56562 259.87227,375.80979 259.28005,376.29813 C 258.6878,376.78647 258.17539,377.42585 257.74281,378.21626 C 257.31021,379.00667 256.97033,379.89778 256.72313,380.88955 C 256.47593,381.88134 256.35234,382.88069 256.35235,383.88758 C 256.35234,384.65282 256.42443,385.3224 256.56864,385.89633 C 256.71283,386.47026 256.91367,386.95105 257.17118,387.3387 C 257.42866,387.72636 257.72735,388.01583 258.06724,388.20715 C 258.40713,388.39846 258.77791,388.49412 259.17962,388.49412 C 259.67399,388.49412 260.14006,388.37077 260.5778,388.12407 C 261.01554,387.87738 261.41208,387.54511 261.76742,387.12725 C 262.12276,386.70939 262.43947,386.22356 262.71758,385.66978 C 262.99565,385.11599 263.23254,384.52947 263.42825,383.91024 C 263.62394,383.291 263.77072,382.65414 263.86857,381.99965 C 263.9664,381.34518 264.01533,380.71588 264.01534,380.11172 L 264.01534,380.11172 z M 267.2134,380.24766 C 267.21339,381.08338 267.11812,381.90148 266.92758,382.70196 C 266.73703,383.50244 266.46409,384.26014 266.10875,384.97502 C 265.75341,385.68992 265.32596,386.34693 264.82644,386.94602 C 264.32689,387.54511 263.76557,388.06366 263.14244,388.50166 C 262.5193,388.93965 261.84209,389.282 261.11082,389.52869 C 260.37952,389.77537 259.60706,389.89872 258.79337,389.89872 C 257.92819,389.89872 257.14543,389.76279 256.44504,389.49093 C 255.74466,389.21908 255.15242,388.8289 254.66834,388.32041 C 254.18426,387.81194 253.81088,387.19773 253.54824,386.47781 C 253.28559,385.75788 253.15428,384.94985 253.15428,384.05372 C 253.15428,383.218 253.24698,382.39486 253.43237,381.58431 C 253.61776,380.77377 253.88298,380.00601 254.22803,379.28105 C 254.57307,378.55609 254.99278,377.884 255.48717,377.26473 C 255.98156,376.64551 256.54031,376.11186 257.16345,375.66378 C 257.78657,375.21573 258.46635,374.86583 259.2028,374.6141 C 259.93922,374.36238 260.71942,374.23652 261.5434,374.23651 C 262.30558,374.23652 263.02913,374.35231 263.71407,374.5839 C 264.399,374.81549 265.00152,375.17796 265.52166,375.67132 C 266.04179,376.16472 266.45378,376.789 266.75764,377.54416 C 267.06146,378.29934 267.21339,379.20051 267.2134,380.24766 L 267.2134,380.24766 z M 279.72755,380.08152 C 279.72754,379.62843 279.67862,379.16778 279.58078,378.69956 C 279.48294,378.23136 279.33358,377.80596 279.13275,377.42332 C 278.93189,377.04072 278.67698,376.72859 278.368,376.48691 C 278.05899,376.24527 277.69335,376.12445 277.27107,376.12443 C 276.88997,376.12445 276.50889,376.20752 276.1278,376.37364 C 275.7467,376.5398 275.3991,376.72606 275.08495,376.93246 C 274.77081,377.13889 274.50044,377.34027 274.27386,377.53661 C 274.04725,377.73295 273.89276,377.86135 273.81037,377.92174 L 271.92551,387.51238 C 272.01822,387.56273 272.14954,387.64078 272.31949,387.74649 C 272.48943,387.85222 272.6877,387.95542 272.91429,388.05612 C 273.14088,388.1568 273.38293,388.24491 273.64042,388.32041 C 273.89791,388.39595 274.1657,388.43371 274.4438,388.43371 C 275.02057,388.43371 275.55101,388.30784 276.03511,388.05612 C 276.51919,387.80439 276.95693,387.46457 277.34831,387.03663 C 277.7397,386.60871 278.08475,386.11281 278.38344,385.54896 C 278.68213,384.98509 278.92932,384.39354 279.12502,383.7743 C 279.32071,383.15507 279.47005,382.52827 279.57307,381.89393 C 279.67606,381.2596 279.72754,380.65546 279.72755,380.08152 L 279.72755,380.08152 z M 282.86383,379.96069 C 282.86381,380.8065 282.76081,381.6397 282.55483,382.46031 C 282.34882,383.28093 282.05271,384.05875 281.66648,384.79378 C 281.28023,385.52882 280.81417,386.20847 280.2683,386.83274 C 279.72239,387.45701 279.11471,387.9957 278.44524,388.4488 C 277.77576,388.90191 277.04963,389.25683 276.26684,389.51359 C 275.48407,389.77035 274.66524,389.89872 273.81037,389.89872 C 273.33658,389.89872 272.90913,389.83328 272.52805,389.70238 C 272.14695,389.57148 271.82767,389.45065 271.57019,389.33991 L 270.56596,394.30892 C 270.52475,394.48008 270.54793,394.61853 270.63548,394.72426 C 270.72301,394.82998 270.90586,394.89794 271.18393,394.92816 L 273.17693,395.0943 L 273.17693,396.25726 L 265.20496,396.25726 L 265.20496,395.0943 L 266.85805,394.92816 C 267.30095,394.89794 267.55329,394.69153 267.61508,394.30892 L 271.18393,376.3812 L 268.52661,376.09423 L 268.52661,375.20313 L 273.31598,374.23651 L 274.55195,374.23651 L 274.1657,376.15464 C 274.43349,375.98348 274.73991,375.78714 275.08495,375.56561 C 275.42998,375.3441 275.79821,375.13519 276.18961,374.93883 C 276.58099,374.7425 276.99039,374.57636 277.41785,374.44041 C 277.84528,374.30449 278.28044,374.23652 278.72332,374.23651 C 279.5267,374.23652 280.19361,374.40518 280.72406,374.74248 C 281.25448,375.0798 281.67676,375.52031 281.99093,376.06402 C 282.30505,376.60775 282.52908,377.22197 282.66299,377.90663 C 282.79686,378.59134 282.86381,379.27602 282.86383,379.96069 L 282.86383,379.96069 z M 294.32743,377.33271 C 294.32742,377.13134 294.28624,376.93248 294.20384,376.73613 C 294.12142,376.5398 294.00813,376.3661 293.86395,376.21506 C 293.71973,376.06404 293.5395,375.94069 293.32321,375.84503 C 293.1069,375.74938 292.87001,375.70155 292.61253,375.70154 C 292.26233,375.70155 291.92759,375.79216 291.6083,375.9734 C 291.28901,376.15465 290.9826,376.39632 290.68905,376.69837 C 290.39551,377.00044 290.12258,377.34783 289.87023,377.7405 C 289.61787,378.1332 289.39129,378.54601 289.19044,378.97898 C 288.9896,379.41195 288.81192,379.84995 288.65744,380.29297 C 288.50293,380.73602 288.37934,381.15387 288.28665,381.54655 C 288.95612,381.48615 289.64879,381.33512 290.36462,381.09344 C 291.08044,380.8518 291.73189,380.54218 292.31899,380.16459 C 292.90606,379.78702 293.38758,379.35657 293.76352,378.87324 C 294.13946,378.38995 294.32742,377.87643 294.32743,377.33271 L 294.32743,377.33271 z M 297.13926,377.36291 C 297.13925,377.92678 297.00535,378.44533 296.73756,378.91856 C 296.46975,379.39181 296.1067,379.81974 295.64837,380.20235 C 295.19002,380.58498 294.65959,380.9248 294.05706,381.22183 C 293.45453,381.51887 292.8211,381.77059 292.15677,381.977 C 291.49243,382.18343 290.81522,382.34956 290.12515,382.47541 C 289.43506,382.60127 288.77588,382.67931 288.1476,382.7095 C 288.1167,382.91089 288.08836,383.15255 288.06264,383.43448 C 288.03688,383.71641 288.024,383.95304 288.024,384.14434 C 288.024,384.70819 288.09352,385.22676 288.23257,385.69998 C 288.37161,386.17322 288.57246,386.58353 288.83511,386.93091 C 289.09775,387.27829 289.41445,387.55015 289.78526,387.74649 C 290.15604,387.94284 290.57318,388.04101 291.03668,388.04101 C 291.74735,388.04101 292.53012,387.78929 293.38501,387.28584 C 294.23987,386.7824 295.24925,386.03227 296.41313,385.03544 L 296.41313,386.98378 C 296.11443,387.2657 295.74878,387.57533 295.31622,387.91264 C 294.88361,388.24994 294.39179,388.56711 293.84077,388.86415 C 293.28972,389.16117 292.68977,389.40786 292.0409,389.60421 C 291.392,389.80055 290.70708,389.89872 289.98611,389.89872 C 289.6668,389.89872 289.31919,389.86852 288.94325,389.8081 C 288.56731,389.74768 288.19395,389.63945 287.82316,389.48338 C 287.45237,389.32731 287.09444,389.11335 286.74942,388.84149 C 286.40437,388.56963 286.10053,388.22477 285.83789,387.80689 C 285.57524,387.38905 285.3641,386.89064 285.20446,386.31167 C 285.0448,385.73271 284.96499,385.05054 284.96499,384.26517 C 284.96499,383.44959 285.06541,382.63653 285.26625,381.82597 C 285.4671,381.01542 285.75034,380.24012 286.11598,379.50004 C 286.48162,378.75999 286.92193,378.07026 287.43691,377.43088 C 287.9519,376.7915 288.51838,376.23773 289.13638,375.76951 C 289.75435,375.30132 290.41612,374.93379 291.12164,374.66695 C 291.82717,374.40014 292.55588,374.26674 293.30777,374.26672 C 294.03903,374.26674 294.64929,374.38504 295.13853,374.62165 C 295.62776,374.85828 296.02172,375.14272 296.32043,375.47498 C 296.61911,375.80727 296.83025,376.14962 296.95386,376.50201 C 297.07744,376.85444 297.13925,377.1414 297.13926,377.36291 L 297.13926,377.36291 z M 314.39642,388.9019 C 314.2625,388.95225 314.02819,389.03028 313.69347,389.136 C 313.35871,389.24174 312.98534,389.35248 312.57337,389.46828 C 312.16136,389.58407 311.73908,389.68477 311.3065,389.77035 C 310.87391,389.85593 310.49281,389.89872 310.16324,389.89872 C 309.97783,389.89872 309.72291,389.88112 309.39848,389.84586 C 309.07403,389.81063 308.76246,389.73006 308.46378,389.60421 C 308.16508,389.47835 307.92304,389.29459 307.73765,389.05294 C 307.55226,388.81127 307.50589,388.48404 307.59861,388.07122 L 309.52981,378.57119 C 309.60189,378.15837 309.60447,377.81602 309.53753,377.54416 C 309.47058,377.2723 309.36242,377.05331 309.21309,376.88716 C 309.06374,376.72103 308.8912,376.60523 308.69552,376.53978 C 308.49982,376.47435 308.31442,376.44162 308.13934,376.44161 C 307.88184,376.44162 307.56512,376.51462 307.18919,376.6606 C 306.81324,376.80662 306.4167,377.00044 305.99958,377.24208 C 305.58243,377.48375 305.16271,377.7682 304.74042,378.09543 C 304.31814,378.42268 303.9319,378.76754 303.58172,379.13001 L 301.40332,389.52115 L 298.45244,389.52115 L 301.20248,376.3812 L 298.54515,376.09423 L 298.54515,375.20313 L 303.31908,374.23651 L 304.58595,374.23651 L 303.99884,377.12125 C 304.34903,376.77893 304.75072,376.43406 305.20392,376.08667 C 305.6571,375.73931 306.14118,375.4297 306.65618,375.1578 C 307.17115,374.88597 307.70416,374.66446 308.25521,374.49327 C 308.80624,374.32211 309.3444,374.23652 309.8697,374.23651 C 311.02325,374.23652 311.84465,374.54866 312.3339,375.17292 C 312.82313,375.7972 312.94414,376.80409 312.69697,378.19359 L 311.01296,386.92336 C 310.96145,387.21537 310.98462,387.44695 311.08249,387.61812 C 311.18033,387.78929 311.30908,387.92019 311.46873,388.0108 C 311.62836,388.10142 311.79572,388.15932 311.97084,388.18449 C 312.14592,388.20967 312.27981,388.22225 312.37253,388.22225 C 312.66089,388.22225 312.97505,388.18197 313.31495,388.10142 C 313.65482,388.02087 314.00502,387.92522 314.36553,387.81446 L 314.39642,388.9019 z M 346.08353,376.06402 C 346.08351,376.49699 345.97021,377.01555 345.74364,377.61967 C 345.51703,378.22381 345.21834,378.87578 344.84758,379.57556 C 344.47677,380.27536 344.04931,381.00284 343.56525,381.75799 C 343.08115,382.51318 342.58417,383.25828 342.07436,383.9933 C 341.56452,384.72834 341.05983,385.43064 340.56031,386.10023 C 340.06075,386.76981 339.60499,387.37143 339.19303,387.90507 C 338.78102,388.43874 338.4334,388.88177 338.15017,389.23418 C 337.86692,389.58659 337.68409,389.8081 337.60171,389.89872 L 335.63961,389.89872 L 334.94439,379.34145 C 334.48088,380.31815 333.9968,381.29232 333.49212,382.26397 C 332.98743,383.23562 332.48274,384.17454 331.97808,385.08073 C 331.47337,385.98695 330.97641,386.85036 330.48718,387.67097 C 329.99794,388.49159 329.53188,389.23418 329.089,389.89872 L 326.75611,389.89872 L 327.0651,389.17377 L 326.18447,376.4114 L 323.80523,376.15464 L 323.80523,375.29376 L 327.63674,374.23651 L 329.05809,374.32714 L 329.75331,385.89633 C 330.16531,385.1613 330.5979,384.35076 331.05109,383.46469 C 331.50427,382.57862 331.96261,381.66487 332.4261,380.72342 C 332.88958,379.78199 333.34791,378.82544 333.80112,377.85378 C 334.25429,376.88213 334.68689,375.93315 335.09889,375.00678 L 337.47812,374.73492 L 338.26606,386.51558 C 339.24451,385.28716 340.10453,384.02352 340.84613,382.72462 C 341.58768,381.42573 342.27776,380.06139 342.91637,378.63161 L 342.28294,375.00678 C 342.32411,374.96653 342.39364,374.90359 342.49151,374.818 C 342.58933,374.73242 342.72066,374.64683 342.88547,374.56123 C 343.05025,374.47566 343.2408,374.40014 343.45711,374.33468 C 343.67338,374.26925 343.91542,374.23652 344.18324,374.23651 C 344.5643,374.23652 344.87586,374.30953 345.11793,374.45551 C 345.35996,374.60152 345.55307,374.7727 345.6973,374.96903 C 345.84147,375.16538 345.94189,375.36676 345.99856,375.57315 C 346.05519,375.77959 346.08351,375.94321 346.08353,376.06402 L 346.08353,376.06402 z M 357.82522,380.11172 C 357.82521,379.3767 357.7531,378.72726 357.60894,378.16339 C 357.46472,377.59954 357.26903,377.1263 357.02185,376.74367 C 356.77463,376.36106 356.47853,376.06908 356.13349,375.86768 C 355.78844,375.66631 355.41508,375.56562 355.01341,375.56561 C 354.3233,375.56562 353.68216,375.80979 353.08993,376.29813 C 352.49768,376.78647 351.98528,377.42585 351.55269,378.21626 C 351.1201,379.00667 350.78021,379.89778 350.53303,380.88955 C 350.28583,381.88134 350.16223,382.88069 350.16223,383.88758 C 350.16223,384.65282 350.23432,385.3224 350.37852,385.89633 C 350.52272,386.47026 350.72356,386.95105 350.98106,387.3387 C 351.23855,387.72636 351.53725,388.01583 351.87713,388.20715 C 352.21702,388.39846 352.58781,388.49412 352.98951,388.49412 C 353.48389,388.49412 353.94995,388.37077 354.38768,388.12407 C 354.82543,387.87738 355.22196,387.54511 355.57731,387.12725 C 355.93264,386.70939 356.24935,386.22356 356.52746,385.66978 C 356.80554,385.11599 357.04243,384.52947 357.23814,383.91024 C 357.43382,383.291 357.58059,382.65414 357.67846,381.99965 C 357.77629,381.34518 357.82521,380.71588 357.82522,380.11172 L 357.82522,380.11172 z M 361.02329,380.24766 C 361.02327,381.08338 360.92799,381.90148 360.73747,382.70196 C 360.54691,383.50244 360.27397,384.26014 359.91864,384.97502 C 359.56328,385.68992 359.13586,386.34693 358.63633,386.94602 C 358.13678,387.54511 357.57544,388.06366 356.95232,388.50166 C 356.32918,388.93965 355.65197,389.282 354.92069,389.52869 C 354.1894,389.77537 353.41693,389.89872 352.60326,389.89872 C 351.73809,389.89872 350.9553,389.76279 350.25492,389.49093 C 349.55455,389.21908 348.96231,388.8289 348.47822,388.32041 C 347.99413,387.81194 347.62077,387.19773 347.35813,386.47781 C 347.09549,385.75788 346.96417,384.94985 346.96417,384.05372 C 346.96417,383.218 347.05686,382.39486 347.24226,381.58431 C 347.42765,380.77377 347.69287,380.00601 348.03791,379.28105 C 348.38295,378.55609 348.80266,377.884 349.29706,377.26473 C 349.79144,376.64551 350.35021,376.11186 350.97333,375.66378 C 351.59647,375.21573 352.27623,374.86583 353.01267,374.6141 C 353.7491,374.36238 354.52929,374.23652 355.35329,374.23651 C 356.11546,374.23652 356.83901,374.35231 357.52396,374.5839 C 358.20888,374.81549 358.8114,375.17796 359.33156,375.67132 C 359.85168,376.16472 360.26367,376.789 360.56752,377.54416 C 360.87135,378.29934 361.02327,379.20051 361.02329,380.24766 L 361.02329,380.24766 z M 375.00515,376.32078 C 375.00514,376.68327 374.9382,376.97275 374.80431,377.18923 C 374.6704,377.40571 374.47985,377.56933 374.23267,377.68009 C 373.98547,377.79086 373.68935,377.86386 373.34432,377.89908 C 372.99928,377.93433 372.61046,377.95196 372.17788,377.95195 L 371.42086,376.47181 C 371.02945,376.63293 370.60974,376.91233 370.16172,377.31006 C 369.71366,377.70778 369.2888,378.16089 368.88713,378.66936 C 368.48543,379.17785 368.13523,379.70143 367.83655,380.24011 C 367.53785,380.7788 367.34215,381.2747 367.24947,381.72779 L 365.59636,389.52115 L 362.66094,389.52115 L 365.38007,376.3812 L 362.72273,376.09423 L 362.72273,375.20313 L 367.49666,374.23651 L 368.76353,374.23651 L 368.0992,377.36291 C 368.74807,376.38625 369.4845,375.621 370.30848,375.0672 C 371.13245,374.51341 372.02337,374.23652 372.98126,374.23651 C 373.36233,374.23652 373.68163,374.30449 373.93913,374.44041 C 374.19662,374.57636 374.40517,374.75004 374.56484,374.96147 C 374.72448,375.17293 374.83778,375.39948 374.90473,375.64112 C 374.97168,375.8828 375.00514,376.10934 375.00515,376.32078 L 375.00515,376.32078 z M 382.25102,388.72067 C 382.12741,388.771 381.89567,388.85912 381.55577,388.98498 C 381.21587,389.11083 380.83479,389.24174 380.4125,389.37767 C 379.99022,389.51359 379.5499,389.63442 379.09158,389.74013 C 378.63322,389.84586 378.21867,389.89872 377.84788,389.89872 C 377.3638,389.89872 376.9518,389.84336 376.61191,389.73259 C 376.27202,389.62183 375.99393,389.46576 375.77765,389.26438 C 375.56134,389.06301 375.40426,388.82386 375.30642,388.54697 C 375.20858,388.27008 375.15965,387.96548 375.15965,387.63322 C 375.15965,387.32108 375.19055,386.95861 375.25236,386.54577 L 378.7285,368.8597 L 375.91668,368.58784 L 375.91668,367.65143 L 380.86055,366.73013 L 382.08106,366.73013 L 378.23412,386.45516 C 378.19291,386.6666 378.20321,386.87553 378.26502,387.08194 C 378.32681,387.28836 378.42466,387.46961 378.55855,387.62568 C 378.69244,387.78174 378.85725,387.91011 379.05295,388.0108 C 379.24864,388.1115 379.45978,388.16183 379.68638,388.16183 C 379.84086,388.16183 380.04429,388.13414 380.29664,388.07878 C 380.54898,388.02339 380.80389,387.96046 381.0614,387.88997 C 381.31888,387.81949 381.55835,387.74901 381.7798,387.67852 C 382.00123,387.60806 382.1583,387.56273 382.25102,387.5426 L 382.25102,388.72067 z M 395.4604,386.86294 C 395.40888,387.15496 395.42432,387.39157 395.50674,387.5728 C 395.58914,387.75405 395.69985,387.89753 395.83891,388.00324 C 395.97794,388.10898 396.12213,388.18197 396.2715,388.22225 C 396.42084,388.26253 396.53154,388.28266 396.60366,388.28266 C 396.67575,388.28266 396.82252,388.25498 397.04398,388.19959 C 397.26541,388.14422 397.49972,388.08129 397.74693,388.0108 C 397.99412,387.94033 398.22586,387.87488 398.44216,387.81446 L 398.87475,387.69363 L 398.87475,388.84149 C 398.75113,388.89184 398.52454,388.97491 398.19497,389.09069 C 397.86537,389.20649 397.49972,389.3248 397.09806,389.44562 C 396.69634,389.56645 396.28178,389.67218 395.85436,389.76279 C 395.42691,389.85343 395.05354,389.89872 394.73427,389.89872 C 394.25017,389.89872 393.85363,389.84083 393.54464,389.72503 C 393.23564,389.60923 392.9936,389.44814 392.81852,389.24174 C 392.64341,389.03533 392.52239,388.79114 392.45545,388.50921 C 392.38849,388.22729 392.35502,387.91515 392.35503,387.5728 C 392.07693,387.86481 391.77051,388.14925 391.43577,388.42615 C 391.10103,388.70304 390.74311,388.94972 390.36204,389.16621 C 389.98092,389.38269 389.57924,389.5589 389.15696,389.69484 C 388.73466,389.83076 388.30209,389.89872 387.8592,389.89872 C 386.97341,389.89872 386.23956,389.73259 385.65764,389.40033 C 385.07569,389.06805 384.61479,388.63507 384.27489,388.10142 C 383.935,387.56777 383.69554,386.97371 383.5565,386.31923 C 383.41744,385.66474 383.34792,385.01027 383.34792,384.35578 C 383.34792,383.5402 383.43805,382.7221 383.61829,381.90147 C 383.79854,381.08087 384.06632,380.2955 384.42167,379.54535 C 384.77701,378.79523 385.21218,378.09795 385.72716,377.45353 C 386.24214,376.80913 386.82922,376.2478 387.4884,375.76951 C 388.14758,375.29125 388.88144,374.91618 389.68998,374.6443 C 390.4985,374.37245 391.36625,374.23652 392.29323,374.23651 C 392.53012,374.23652 392.76186,374.25918 392.98846,374.30448 C 393.21505,374.3498 393.43133,374.40266 393.63735,374.46307 C 393.84332,374.52349 394.03387,374.58894 394.20897,374.65941 C 394.38407,374.7299 394.53855,374.78528 394.67246,374.82553 L 395.73848,368.8597 L 392.86486,368.58784 L 392.86486,367.65143 L 397.76238,366.73013 L 399.06015,366.73013 L 395.4604,386.86294 z M 394.22443,377.33271 C 394.23471,377.29245 394.1755,377.17917 394.04676,376.99288 C 393.918,376.80662 393.7532,376.61279 393.55237,376.4114 C 393.3515,376.21004 393.13265,376.02879 392.89577,375.86768 C 392.65887,375.70659 392.43741,375.62603 392.23142,375.62602 C 391.45894,375.62603 390.7225,375.84504 390.02214,376.28302 C 389.32175,376.72103 388.70378,377.32265 388.1682,378.08787 C 387.63259,378.85312 387.20517,379.75681 386.88587,380.79893 C 386.56658,381.84108 386.40694,382.96627 386.40694,384.17453 C 386.40694,384.8391 386.47646,385.41302 386.6155,385.89633 C 386.75455,386.37964 386.93995,386.77736 387.17168,387.0895 C 387.40344,387.40164 387.66865,387.63322 387.96734,387.78425 C 388.26602,387.93529 388.56988,388.0108 388.87887,388.0108 C 389.16726,388.0108 389.47883,387.94033 389.81357,387.79936 C 390.1483,387.6584 390.48562,387.46961 390.82551,387.23298 C 391.16541,386.99637 391.5027,386.72449 391.83746,386.4174 C 392.1722,386.1103 392.48377,385.79564 392.77217,385.47342 L 394.22443,377.33271 z"
     id="text3198" />
</svg>
