<?xml version="1.0" encoding="UTF-8" standalone="no"?>
<!DOCTYPE svg PUBLIC "-//W3C//DTD SVG 1.0//EN" "http://www.w3.org/TR/2001/REC-SVG-20010904/DTD/svg10.dtd">
<!-- Created with Inkscape (http://www.inkscape.org/) -->
<svg
   xmlns:dc="http://purl.org/dc/elements/1.1/"
   xmlns:cc="http://creativecommons.org/ns#"
   xmlns:rdf="http://www.w3.org/1999/02/22-rdf-syntax-ns#"
   xmlns:svg="http://www.w3.org/2000/svg"
   xmlns="http://www.w3.org/2000/svg"
   xmlns:sodipodi="http://sodipodi.sourceforge.net/DTD/sodipodi-0.dtd"
   xmlns:inkscape="http://www.inkscape.org/namespaces/inkscape"
   version="1.0"
   id="WIKIBOOKS-Logo-German"
   sodipodi:version="0.32"
   sodipodi:docname="Wikibooks-logo-de.svg"
   inkscape:version="0.46"
   inkscape:output_extension="org.inkscape.output.svg.inkscape"
   x="0px"
   y="0px"
   width="400px"
   height="400px"
   viewBox="0 0 400 400"
   enable-background="new 0 0 400 400"
   xml:space="preserve"><metadata
   id="metadata2465"><rdf:RDF><cc:Work
       rdf:about=""><dc:format>image/svg+xml</dc:format><dc:type
         rdf:resource="http://purl.org/dc/dcmitype/StillImage" /></cc:Work></rdf:RDF></metadata><defs
   id="defs2463"><inkscape:perspective
     sodipodi:type="inkscape:persp3d"
     inkscape:vp_x="0 : 200 : 1"
     inkscape:vp_y="0 : 1000 : 0"
     inkscape:vp_z="400 : 200 : 1"
     inkscape:persp3d-origin="200 : 133.33333 : 1"
     id="perspective2467" /></defs><sodipodi:namedview
   inkscape:window-height="1049"
   inkscape:window-width="1611"
   inkscape:pageshadow="2"
   inkscape:pageopacity="0.0"
   guidetolerance="10.0"
   gridtolerance="10.0"
   objecttolerance="10.0"
   borderopacity="1.0"
   bordercolor="#666666"
   pagecolor="#ffffff"
   id="base"
   showgrid="false"
   inkscape:zoom="1.155"
   inkscape:cx="200"
   inkscape:cy="200"
   inkscape:window-x="154"
   inkscape:window-y="27"
   inkscape:current-layer="WIKIBOOKS-Logo-German" />
   <g
   id="Books">
   <g
   id="Right_one">
   <path
   id="path3297"
   d="M 191.657,115.976 C 196.934,182.002 208.454,245.92 242.856,307.465 L 255.866,307.563 L 338.157,234.143 L 259.721,35.943 L 203.181,89.951 L 191.657,115.976 z"
   style="fill:#fdfcf8" />
   <path
   id="path3272"
   d="M 263.327,16.5 C 236.14,42.802 209.264,68.875 209.264,68.875 L 218.92,88.531 C 232.014,75.55 245.181,64.134 257.733,51.437 C 284.167,109.472 302.177,156.249 324.332,218.083 C 331.585,238.171 330.105,239.07 312.769,249.927 C 284.914,263.779 276.096,272.865 242.898,308.187 L 265.617,308.187 C 293.371,283.095 303.673,274.24 338.426,255.927 C 350.72,248.829 352.405,239.868 347.364,225.927 C 331.102,180.731 295.872,83.323 263.327,16.5 z"
   style="fill:#5f96d3" />
   </g>
   <g
   id="Middle_one">
   <path
   id="path3214"
   d="M 125.841,116.045 C 131.118,182.071 144.619,246.832 179.02,308.377 L 199.354,308.56 L 261.322,230.842 L 193.905,36.012 L 137.365,90.021 L 125.841,116.045 z"
   style="fill:#f4eed7" />
   <path
   id="path3138"
   d="M 192.452,17.125 C 172.564,30.549 157.223,49.87 139.921,66.438 L 147.015,89.063 C 160.556,78.393 172.341,65.526 184.515,53.344 L 250.171,218.032 C 253.957,229.182 247.994,239.104 236.015,249.907 C 221.666,261.44 192.122,288.327 178.734,308.813 L 199.109,308.813 C 220.494,286.847 224.354,283.866 248.703,262.782 C 265.05,246.104 279.817,237.561 272.109,216.188 L 192.452,17.125 z"
   style="fill:#2a62a1" />
   </g>
   <g
   id="Left_one">
   <path
   id="path2238"
   d="M 50.219,114.632 C 55.596,183.916 77.234,245.972 102.678,306.336 L 129.48,306.006 L 199.881,225.969 L 118.283,34.599 L 61.743,88.607 L 50.219,114.632 z"
   style="fill:#e9ddaf" />
   <path
   id="path3136"
   d="M 125.327,16.063 C 120.026,17.842 115.615,21.261 111.483,24.876 C 55.395,78.847 53.14,81.125 53.14,81.125 C 50.189,83.868 49.942,87.877 49.984,91.906 L 50.219,114.632 C 50.219,114.632 76.123,89.45 114.796,52.219 C 135.614,106.457 157.341,160.406 178.734,214.438 C 181.664,222.602 174.652,229.292 165.765,238.219 C 153.492,250.193 127.821,274.84 101.546,307.75 L 127.89,307.75 L 191.203,238.312 C 197.223,230.035 204.706,221.941 201.547,214.437 L 125.327,16.063 z"
   style="fill:#15304f" />
   </g>
   </g>
   <g
   id="Caption"
   transform="translate(6.8381)">
   <path
   id="WIKI"
   fill="#0B2645"
   d="M20,316.41h10.09l7.055,29.668l7-29.668h10.145l7,29.668l7.055-29.668h10.008l-9.625,40.824   H56.586l-7.41-31.035l-7.328,31.035H29.707L20,316.41z M85.269,316.41h10.527v40.824H85.269V316.41z M106.16,316.41h10.527v14.902   l15.176-14.902h12.223l-19.66,19.332l21.684,21.492h-13.18l-16.242-16.078v16.078H106.16V316.41z M149.582,316.41h10.527v40.824   h-10.527V316.41z" />
   <path
   id="BOOKS"
   sodipodi:nodetypes="cssscccccssscccccsssccccssscccssssssscccssssssscccssssssscccsssssssccccccccccccccccsssssccsssssccsssssccssssscc"
   fill="#0A4E98"
   d="   M186.351,332.188c1.659,0,2.917-0.365,3.773-1.094c0.856-0.729,1.285-1.805,1.285-3.227c0-1.404-0.429-2.475-1.285-3.213   c-0.857-0.738-2.115-1.107-3.773-1.107h-5.824v8.641H186.351z M186.707,350.043c2.114,0,3.705-0.447,4.771-1.34   s1.6-2.242,1.6-4.047c0-1.768-0.529-3.094-1.586-3.979c-1.058-0.885-2.652-1.326-4.785-1.326h-6.18v10.691H186.707z    M196.496,335.359c2.26,0.656,4.01,1.869,5.25,3.637c1.239,1.768,1.859,3.938,1.859,6.508c0,3.938-1.331,6.873-3.992,8.805   c-2.662,1.932-6.708,2.898-12.141,2.898H170v-40.824h15.805c5.669,0,9.775,0.857,12.318,2.57s3.814,4.457,3.814,8.23   c0,1.986-0.465,3.678-1.395,5.072S198.263,334.686,196.496,335.359L196.496,335.359z M227.304,323.273   c-3.209,0-5.697,1.186-7.465,3.555c-1.769,2.369-2.652,5.705-2.652,10.008c0,4.283,0.884,7.611,2.652,9.98   c1.768,2.369,4.256,3.555,7.465,3.555c3.227,0,5.724-1.186,7.492-3.555c1.768-2.369,2.652-5.697,2.652-9.98   c0-4.303-0.885-7.639-2.652-10.008C233.028,324.459,230.531,323.273,227.304,323.273L227.304,323.273z M227.304,315.645   c6.563,0,11.703,1.877,15.422,5.633s5.578,8.941,5.578,15.559c0,6.6-1.859,11.775-5.578,15.531S233.867,358,227.304,358   c-6.545,0-11.681-1.877-15.408-5.633c-3.729-3.756-5.592-8.932-5.592-15.531c0-6.617,1.863-11.803,5.592-15.559   C215.624,317.521,220.76,315.645,227.304,315.645L227.304,315.645z M270.883,323.273c-3.209,0-5.697,1.186-7.465,3.555   c-1.769,2.369-2.652,5.705-2.652,10.008c0,4.283,0.884,7.611,2.652,9.98c1.768,2.369,4.256,3.555,7.465,3.555   c3.227,0,5.724-1.186,7.492-3.555c1.768-2.369,2.652-5.697,2.652-9.98c0-4.303-0.885-7.639-2.652-10.008   C276.606,324.459,274.109,323.273,270.883,323.273L270.883,323.273z M270.883,315.645c6.563,0,11.703,1.877,15.422,5.633   s5.578,8.941,5.578,15.559c0,6.6-1.859,11.775-5.578,15.531S277.445,358,270.883,358c-6.545,0-11.681-1.877-15.408-5.633   c-3.729-3.756-5.592-8.932-5.592-15.531c0-6.617,1.863-11.803,5.592-15.559C259.202,317.521,264.338,315.645,270.883,315.645   L270.883,315.645z M295.812,316.383h10.527v14.902l15.176-14.902h12.223l-19.66,19.332l19.684,21.492h-11.18l-16.242-16.078v16.078   h-10.527V316.383z M363.644,317.668v8.641c-2.242-1.002-4.43-1.76-6.563-2.27s-4.147-0.766-6.043-0.766   c-2.516,0-4.375,0.346-5.578,1.039s-1.805,1.768-1.805,3.227c0,1.094,0.405,1.945,1.217,2.557c0.811,0.611,2.283,1.135,4.416,1.572   l4.484,0.902c4.539,0.912,7.766,2.297,9.68,4.156s2.871,4.502,2.871,7.93c0,4.502-1.336,7.852-4.006,10.049   c-2.671,2.197-6.75,3.295-12.236,3.295c-2.589,0-5.187-0.246-7.793-0.738c-2.607-0.492-5.214-1.221-7.82-2.188v-8.887   c2.606,1.385,5.127,2.43,7.561,3.131s4.78,1.053,7.041,1.053c2.297,0,4.056-0.383,5.277-1.148c1.221-0.766,1.832-1.859,1.832-3.281   c0-1.275-0.415-2.26-1.244-2.953c-0.83-0.693-2.484-1.313-4.963-1.859l-4.074-0.902c-4.084-0.875-7.068-2.27-8.955-4.184   s-2.83-4.494-2.83-7.738c0-4.064,1.313-7.191,3.938-9.379s6.398-3.281,11.32-3.281c2.242,0,4.548,0.168,6.918,0.506   C358.658,316.488,361.11,316.994,363.644,317.668L363.644,317.668z" />
   </g>
   <path
   id="Subline_German"
   d="M 97.946,376.743 C 97.946,378.725 97.56,380.525 96.789,382.141 C 96.018,383.757 95.007,385.097 93.757,386.162 C 92.458,387.266 91.01,388.1 89.414,388.667 C 87.818,389.234 86.145,389.517 84.397,389.517 L 75.33,389.517 L 75.55,388.55 C 75.804,388.55 76.163,388.526 76.627,388.477 C 77.091,388.428 77.42,388.365 77.616,388.287 C 77.968,388.15 78.234,387.957 78.414,387.709 C 78.595,387.459 78.719,387.164 78.788,386.822 L 82.245,371.866 C 82.274,371.749 82.301,371.62 82.326,371.478 C 82.351,371.336 82.363,371.221 82.363,371.133 C 82.363,370.918 82.326,370.73 82.253,370.57 C 82.18,370.408 82.031,370.274 81.806,370.167 C 81.552,370.05 81.24,369.95 80.868,369.867 C 80.496,369.784 80.214,369.727 80.018,369.698 L 80.238,368.731 L 89.042,368.731 C 89.921,368.731 90.878,368.855 91.913,369.105 C 92.948,369.353 93.915,369.781 94.813,370.386 C 95.76,371.021 96.52,371.868 97.091,372.927 C 97.66,373.987 97.946,375.259 97.946,376.743 z M 94.503,376.764 C 94.503,374.575 93.917,372.874 92.744,371.662 C 91.571,370.45 90.012,369.844 88.067,369.844 C 87.666,369.844 87.251,369.851 86.82,369.866 C 86.39,369.88 86.053,369.892 85.809,369.902 L 82.093,386.042 C 82.064,386.18 82.039,386.313 82.02,386.439 C 82.001,386.565 81.991,386.688 81.991,386.805 C 81.991,387.391 82.236,387.804 82.724,388.043 C 83.212,388.282 84.013,388.402 85.127,388.402 C 86.583,388.402 87.909,388.07 89.105,387.405 C 90.302,386.741 91.295,385.856 92.087,384.752 C 92.898,383.608 93.503,382.362 93.904,381.014 C 94.303,379.666 94.503,378.249 94.503,376.764 z M 106.085,387.92 L 105.865,388.858 C 104.967,389.219 104.249,389.471 103.712,389.613 C 103.175,389.754 102.716,389.825 102.335,389.825 C 101.554,389.825 100.968,389.622 100.577,389.217 C 100.186,388.811 99.991,388.31 99.991,387.714 C 99.991,387.488 100.011,387.254 100.05,387.01 C 100.089,386.766 100.153,386.457 100.24,386.086 L 101.788,379.854 C 101.866,379.512 101.941,379.145 102.015,378.754 C 102.088,378.362 102.125,378.03 102.125,377.756 C 102.125,377.209 102.035,376.845 101.854,376.664 C 101.674,376.483 101.306,376.393 100.75,376.393 C 100.536,376.393 100.25,376.427 99.895,376.496 C 99.539,376.564 99.269,376.623 99.083,376.672 L 99.303,375.734 C 100.064,375.392 100.747,375.138 101.353,374.972 C 101.958,374.806 102.436,374.723 102.788,374.723 C 103.588,374.723 104.169,374.913 104.53,375.295 C 104.891,375.676 105.072,376.19 105.072,376.834 C 105.072,377.011 105.052,377.25 105.013,377.553 C 104.974,377.857 104.915,378.159 104.837,378.462 L 103.28,384.694 C 103.183,385.075 103.098,385.449 103.025,385.816 C 102.952,386.182 102.916,386.483 102.916,386.717 C 102.916,387.275 103.04,387.656 103.288,387.862 C 103.536,388.068 103.938,388.17 104.493,388.17 C 104.678,388.17 104.943,388.146 105.288,388.097 C 105.633,388.048 105.9,387.988 106.085,387.92 z M 107.125,369.185 C 107.125,369.742 106.944,370.228 106.583,370.642 C 106.222,371.058 105.772,371.265 105.235,371.265 C 104.737,371.265 104.307,371.068 103.946,370.671 C 103.585,370.276 103.404,369.824 103.404,369.317 C 103.404,368.78 103.585,368.311 103.946,367.911 C 104.307,367.511 104.737,367.31 105.235,367.31 C 105.792,367.31 106.246,367.498 106.597,367.874 C 106.948,368.25 107.125,368.687 107.125,369.185 z M 120.29,377.773 C 120.29,378.81 119.965,379.701 119.316,380.444 C 118.667,381.187 117.722,381.779 116.482,382.219 C 115.574,382.551 114.656,382.821 113.728,383.026 C 112.8,383.232 111.775,383.403 110.652,383.54 C 110.652,385.083 110.938,386.263 111.509,387.077 C 112.08,387.893 112.918,388.301 114.021,388.301 C 114.998,388.301 115.859,388.057 116.606,387.569 C 117.353,387.081 118.088,386.353 118.811,385.386 L 119.646,386.001 C 118.865,387.192 117.888,388.145 116.716,388.857 C 115.544,389.569 114.328,389.926 113.069,389.926 C 111.34,389.926 110.02,389.443 109.107,388.475 C 108.194,387.507 107.737,386.133 107.737,384.355 C 107.737,383.123 107.93,381.948 108.316,380.829 C 108.702,379.71 109.266,378.685 110.008,377.757 C 110.731,376.848 111.617,376.114 112.667,375.558 C 113.717,375 114.876,374.722 116.146,374.722 C 117.552,374.722 118.595,375.008 119.273,375.58 C 119.951,376.152 120.29,376.884 120.29,377.773 z M 117.594,377.413 C 117.594,377.033 117.54,376.733 117.433,376.515 C 117.326,376.295 117.189,376.132 117.023,376.026 C 116.847,375.909 116.662,375.836 116.466,375.806 C 116.27,375.776 116.07,375.762 115.865,375.762 C 114.693,375.762 113.612,376.406 112.62,377.692 C 111.628,378.978 111.001,380.581 110.738,382.501 C 111.422,382.403 112.193,382.265 113.052,382.084 C 113.911,381.904 114.624,381.668 115.191,381.376 C 116.002,380.957 116.605,380.418 117,379.761 C 117.396,379.102 117.594,378.319 117.594,377.413 z M 134.934,376.538 L 132.353,388.638 C 131.895,390.806 130.929,392.578 129.456,393.955 C 127.983,395.332 126.466,396.02 124.906,396.02 C 124.048,396.02 123.416,395.856 123.011,395.53 C 122.606,395.202 122.404,394.79 122.404,394.292 C 122.404,393.872 122.531,393.501 122.785,393.179 C 123.039,392.857 123.405,392.696 123.884,392.696 C 124.187,392.696 124.453,392.764 124.682,392.901 C 124.912,393.038 125.114,393.209 125.29,393.414 C 125.427,393.58 125.581,393.805 125.751,394.088 C 125.922,394.371 126.071,394.615 126.198,394.82 C 126.95,394.761 127.592,394.254 128.124,393.297 C 128.656,392.34 129.118,390.973 129.508,389.195 L 132.208,376.539 L 129.347,376.539 L 129.654,375.206 L 132.476,375.206 L 132.687,374.212 C 132.921,373.081 133.292,372.063 133.8,371.155 C 134.308,370.249 134.884,369.478 135.529,368.844 C 136.164,368.221 136.884,367.731 137.69,367.375 C 138.496,367.019 139.27,366.841 140.012,366.841 C 140.871,366.841 141.504,367.005 141.909,367.331 C 142.314,367.659 142.517,368.071 142.517,368.569 C 142.517,368.989 142.397,369.36 142.157,369.682 C 141.917,370.004 141.542,370.165 141.032,370.165 C 140.728,370.165 140.464,370.1 140.238,369.967 C 140.012,369.836 139.812,369.662 139.635,369.447 C 139.439,369.203 139.282,368.973 139.165,368.759 C 139.048,368.545 138.9,368.305 138.724,368.041 C 138.048,368.07 137.45,368.514 136.931,369.371 C 136.411,370.229 135.945,371.657 135.532,373.654 L 135.203,375.204 L 138.899,375.204 L 138.591,376.537 L 134.934,376.537 L 134.934,376.538 z M 151.315,377.109 C 151.315,377.382 151.276,377.683 151.198,378.01 C 151.12,378.337 151.008,378.608 150.861,378.823 C 150.685,379.087 150.492,379.29 150.282,379.43 C 150.072,379.573 149.772,379.643 149.381,379.643 C 148.854,379.643 148.458,379.511 148.194,379.247 C 147.93,378.983 147.798,378.69 147.798,378.368 C 147.798,378.065 147.871,377.726 148.018,377.349 C 148.164,376.974 148.316,376.6 148.472,376.229 C 148.355,376.229 148.162,376.261 147.894,376.325 C 147.626,376.389 147.302,376.513 146.922,376.699 C 146.542,376.885 146.111,377.163 145.629,377.535 C 145.147,377.907 144.633,378.4 144.088,379.016 L 141.727,389.515 L 138.995,389.515 L 141.132,380.012 C 141.181,379.778 141.251,379.425 141.344,378.956 C 141.437,378.486 141.483,378.14 141.483,377.915 C 141.483,377.367 141.39,377.001 141.205,376.814 C 141.019,376.628 140.649,376.536 140.093,376.536 C 139.878,376.536 139.605,376.573 139.273,376.645 C 138.941,376.719 138.683,376.78 138.497,376.829 L 138.717,375.891 C 139.479,375.549 140.152,375.295 140.738,375.129 C 141.324,374.963 141.827,374.88 142.247,374.88 C 143.028,374.88 143.585,375.093 143.917,375.518 C 144.249,375.944 144.415,376.581 144.415,377.432 L 144.503,377.432 C 145.665,376.425 146.546,375.721 147.147,375.321 C 147.748,374.92 148.375,374.719 149.03,374.719 C 149.342,374.719 149.645,374.758 149.938,374.836 C 150.231,374.914 150.48,375.046 150.685,375.232 C 150.9,375.437 151.059,375.674 151.161,375.942 C 151.264,376.214 151.315,376.602 151.315,377.109 z M 164.538,377.773 C 164.538,378.81 164.213,379.701 163.564,380.444 C 162.915,381.187 161.97,381.779 160.73,382.219 C 159.822,382.551 158.904,382.821 157.976,383.026 C 157.048,383.232 156.023,383.403 154.9,383.54 C 154.9,385.083 155.186,386.263 155.757,387.077 C 156.328,387.893 157.166,388.301 158.269,388.301 C 159.246,388.301 160.107,388.057 160.854,387.569 C 161.601,387.081 162.336,386.353 163.059,385.386 L 163.894,386.001 C 163.113,387.192 162.136,388.145 160.964,388.857 C 159.792,389.569 158.576,389.926 157.317,389.926 C 155.588,389.926 154.268,389.443 153.355,388.475 C 152.442,387.507 151.985,386.133 151.985,384.355 C 151.985,383.123 152.178,381.948 152.564,380.829 C 152.95,379.71 153.514,378.685 154.256,377.757 C 154.979,376.848 155.865,376.114 156.915,375.558 C 157.965,375 159.124,374.722 160.394,374.722 C 161.8,374.722 162.843,375.008 163.521,375.58 C 164.199,376.152 164.538,376.884 164.538,377.773 z M 161.842,377.413 C 161.842,377.033 161.788,376.733 161.681,376.515 C 161.574,376.295 161.437,376.132 161.271,376.026 C 161.095,375.909 160.91,375.836 160.714,375.806 C 160.518,375.776 160.318,375.762 160.113,375.762 C 158.941,375.762 157.86,376.406 156.868,377.692 C 155.876,378.978 155.249,380.581 154.986,382.501 C 155.67,382.403 156.441,382.265 157.3,382.084 C 158.159,381.904 158.872,381.668 159.439,381.376 C 160.25,380.957 160.853,380.418 161.248,379.761 C 161.645,379.102 161.842,378.319 161.842,377.413 z M 172.984,387.92 L 172.764,388.858 C 171.866,389.219 171.148,389.471 170.611,389.613 C 170.074,389.754 169.615,389.825 169.234,389.825 C 168.453,389.825 167.867,389.622 167.476,389.217 C 167.085,388.811 166.89,388.31 166.89,387.714 C 166.89,387.488 166.91,387.254 166.949,387.01 C 166.988,386.766 167.052,386.457 167.139,386.086 L 168.687,379.854 C 168.765,379.512 168.84,379.145 168.914,378.754 C 168.987,378.362 169.024,378.03 169.024,377.756 C 169.024,377.209 168.934,376.845 168.753,376.664 C 168.573,376.483 168.205,376.393 167.649,376.393 C 167.435,376.393 167.149,376.427 166.794,376.496 C 166.438,376.564 166.168,376.623 165.982,376.672 L 166.202,375.734 C 166.963,375.392 167.646,375.138 168.252,374.972 C 168.857,374.806 169.335,374.723 169.687,374.723 C 170.487,374.723 171.068,374.913 171.429,375.295 C 171.79,375.676 171.971,376.19 171.971,376.834 C 171.971,377.011 171.951,377.25 171.912,377.553 C 171.873,377.857 171.814,378.159 171.736,378.462 L 170.179,384.694 C 170.082,385.075 169.997,385.449 169.924,385.816 C 169.851,386.182 169.815,386.483 169.815,386.717 C 169.815,387.275 169.939,387.656 170.187,387.862 C 170.435,388.068 170.837,388.17 171.392,388.17 C 171.577,388.17 171.842,388.146 172.187,388.097 C 172.532,388.048 172.799,387.988 172.984,387.92 z M 174.024,369.185 C 174.024,369.742 173.843,370.228 173.482,370.642 C 173.121,371.058 172.671,371.265 172.134,371.265 C 171.636,371.265 171.206,371.068 170.845,370.671 C 170.484,370.276 170.303,369.824 170.303,369.317 C 170.303,368.78 170.484,368.311 170.845,367.911 C 171.206,367.511 171.636,367.31 172.134,367.31 C 172.691,367.31 173.145,367.498 173.496,367.874 C 173.847,368.25 174.024,368.687 174.024,369.185 z M 187.188,377.773 C 187.188,378.81 186.863,379.701 186.214,380.444 C 185.565,381.187 184.62,381.779 183.38,382.219 C 182.472,382.551 181.554,382.821 180.626,383.026 C 179.698,383.232 178.673,383.403 177.55,383.54 C 177.55,385.083 177.836,386.263 178.407,387.077 C 178.978,387.893 179.816,388.301 180.919,388.301 C 181.896,388.301 182.757,388.057 183.504,387.569 C 184.251,387.081 184.986,386.353 185.709,385.386 L 186.544,386.001 C 185.763,387.192 184.786,388.145 183.614,388.857 C 182.442,389.569 181.226,389.926 179.967,389.926 C 178.238,389.926 176.918,389.443 176.005,388.475 C 175.092,387.507 174.635,386.133 174.635,384.355 C 174.635,383.123 174.828,381.948 175.214,380.829 C 175.6,379.71 176.164,378.685 176.906,377.757 C 177.629,376.848 178.515,376.114 179.565,375.558 C 180.615,375 181.774,374.722 183.044,374.722 C 184.45,374.722 185.493,375.008 186.171,375.58 C 186.849,376.152 187.188,376.884 187.188,377.773 z M 184.493,377.413 C 184.493,377.033 184.439,376.733 184.332,376.515 C 184.225,376.295 184.088,376.132 183.922,376.026 C 183.746,375.909 183.561,375.836 183.365,375.806 C 183.169,375.776 182.969,375.762 182.764,375.762 C 181.592,375.762 180.511,376.406 179.519,377.692 C 178.527,378.978 177.9,380.581 177.637,382.501 C 178.321,382.403 179.092,382.265 179.951,382.084 C 180.81,381.904 181.523,381.668 182.09,381.376 C 182.901,380.957 183.504,380.418 183.899,379.761 C 184.295,379.102 184.493,378.319 184.493,377.413 z M 211.891,369.551 C 212.428,369.844 212.848,370.232 213.151,370.715 C 213.454,371.198 213.605,371.762 213.605,372.405 C 213.605,373.294 213.429,374.075 213.077,374.748 C 212.725,375.422 212.266,375.988 211.7,376.446 C 211.122,376.915 210.471,377.303 209.742,377.61 C 209.014,377.918 208.278,378.145 207.536,378.292 L 207.536,378.422 C 208.102,378.49 208.689,378.624 209.296,378.824 C 209.901,379.025 210.448,379.291 210.939,379.623 C 211.457,379.966 211.878,380.407 212.207,380.95 C 212.534,381.492 212.698,382.135 212.698,382.877 C 212.698,383.981 212.441,384.956 211.927,385.801 C 211.414,386.647 210.767,387.333 209.985,387.861 C 209.144,388.427 208.243,388.845 207.28,389.114 C 206.317,389.383 205.328,389.517 204.31,389.517 L 194.153,389.517 L 194.387,388.55 C 194.621,388.53 194.973,388.489 195.442,388.425 C 195.911,388.362 196.248,388.286 196.453,388.198 C 196.795,388.061 197.056,387.874 197.237,387.634 C 197.418,387.396 197.547,387.105 197.625,386.763 L 201.112,371.675 C 201.132,371.577 201.148,371.483 201.164,371.39 C 201.178,371.297 201.185,371.202 201.185,371.104 C 201.185,370.899 201.144,370.721 201.06,370.57 C 200.978,370.419 200.833,370.289 200.628,370.181 C 200.345,370.025 200.045,369.91 199.727,369.837 C 199.41,369.763 199.114,369.717 198.841,369.697 L 199.075,368.73 L 208.245,368.73 C 208.938,368.73 209.585,368.792 210.184,368.913 C 210.785,369.035 211.354,369.248 211.891,369.551 z M 207.83,386.35 C 208.251,385.773 208.569,385.142 208.785,384.457 C 209,383.772 209.107,383.097 209.107,382.432 C 209.107,381.386 208.754,380.564 208.049,379.967 C 207.345,379.371 206.356,379.072 205.083,379.072 C 204.466,379.072 203.937,379.079 203.497,379.094 C 203.056,379.108 202.724,379.12 202.498,379.13 L 200.841,386.3 C 200.812,386.44 200.79,386.569 200.775,386.686 C 200.761,386.803 200.754,386.916 200.754,387.024 C 200.754,387.532 201.014,387.899 201.531,388.125 C 202.051,388.35 202.711,388.462 203.513,388.462 C 204.501,388.462 205.361,388.259 206.089,387.854 C 206.819,387.447 207.399,386.946 207.83,386.35 z M 208.783,376.304 C 209.243,375.767 209.572,375.199 209.773,374.597 C 209.974,373.997 210.074,373.316 210.074,372.554 C 210.074,372.036 209.98,371.597 209.795,371.236 C 209.61,370.875 209.355,370.587 209.031,370.372 C 208.708,370.167 208.35,370.023 207.959,369.939 C 207.566,369.857 207.156,369.815 206.725,369.815 C 206.403,369.815 206.042,369.822 205.646,369.837 C 205.249,369.851 204.915,369.863 204.639,369.873 L 202.785,377.959 L 204.618,377.959 C 205.576,377.959 206.404,377.808 207.104,377.505 C 207.803,377.202 208.363,376.802 208.783,376.304 z M 222.066,387.92 L 221.846,388.858 C 220.948,389.219 220.23,389.471 219.693,389.613 C 219.156,389.754 218.697,389.825 218.316,389.825 C 217.535,389.825 216.949,389.622 216.558,389.217 C 216.167,388.811 215.972,388.31 215.972,387.714 C 215.972,387.488 215.992,387.254 216.031,387.01 C 216.07,386.766 216.134,386.457 216.221,386.086 L 217.769,379.854 C 217.847,379.512 217.922,379.145 217.996,378.754 C 218.069,378.362 218.105,378.03 218.105,377.756 C 218.105,377.209 218.015,376.845 217.834,376.664 C 217.653,376.483 217.286,376.393 216.73,376.393 C 216.516,376.393 216.231,376.427 215.876,376.496 C 215.52,376.564 215.25,376.623 215.064,376.672 L 215.284,375.734 C 216.045,375.392 216.728,375.138 217.334,374.972 C 217.94,374.806 218.418,374.723 218.77,374.723 C 219.57,374.723 220.151,374.913 220.512,375.295 C 220.873,375.676 221.053,376.19 221.053,376.834 C 221.053,377.011 221.033,377.25 220.994,377.553 C 220.955,377.857 220.896,378.159 220.818,378.462 L 219.261,384.694 C 219.164,385.075 219.079,385.449 219.007,385.816 C 218.934,386.182 218.898,386.483 218.898,386.717 C 218.898,387.275 219.022,387.656 219.27,387.862 C 219.518,388.068 219.919,388.17 220.474,388.17 C 220.66,388.17 220.924,388.146 221.27,388.097 C 221.616,388.048 221.881,387.988 222.066,387.92 z M 223.106,369.185 C 223.106,369.742 222.925,370.228 222.564,370.642 C 222.203,371.058 221.753,371.265 221.216,371.265 C 220.718,371.265 220.288,371.068 219.927,370.671 C 219.566,370.276 219.385,369.824 219.385,369.317 C 219.385,368.78 219.566,368.311 219.927,367.911 C 220.288,367.511 220.718,367.31 221.216,367.31 C 221.773,367.31 222.227,367.498 222.578,367.874 C 222.929,368.25 223.106,368.687 223.106,369.185 z M 238.292,380.323 C 238.292,381.623 238.058,382.867 237.589,384.054 C 237.12,385.241 236.5,386.265 235.729,387.125 C 234.938,388.005 234.044,388.696 233.048,389.2 C 232.052,389.703 230.997,389.955 229.884,389.955 C 229.044,389.955 228.305,389.884 227.664,389.742 C 227.025,389.6 226.48,389.408 226.031,389.164 C 225.572,388.909 225.191,388.624 224.888,388.307 C 224.585,387.989 224.312,387.634 224.068,387.244 L 227.843,370.651 C 227.892,370.426 227.933,370.233 227.968,370.072 C 228.001,369.911 228.019,369.747 228.019,369.581 C 228.019,369.229 227.96,368.958 227.843,368.768 C 227.726,368.578 227.56,368.433 227.346,368.335 C 227.142,368.247 226.883,368.189 226.572,368.159 C 226.259,368.13 225.943,368.096 225.621,368.056 L 225.825,367.162 L 231.234,366.84 L 231.38,367.06 L 229.166,376.787 L 229.225,376.787 C 230.106,376.006 230.881,375.467 231.551,375.169 C 232.221,374.871 232.873,374.722 233.51,374.722 C 234.996,374.722 236.164,375.228 237.016,376.24 C 237.868,377.252 238.292,378.612 238.292,380.323 z M 235.274,380.396 C 235.274,379.877 235.227,379.357 235.134,378.834 C 235.041,378.311 234.887,377.873 234.671,377.521 C 234.446,377.15 234.138,376.857 233.747,376.641 C 233.354,376.426 232.87,376.319 232.293,376.319 C 231.95,376.319 231.628,376.378 231.323,376.495 C 231.02,376.612 230.707,376.769 230.385,376.965 C 230.101,377.141 229.824,377.354 229.555,377.603 C 229.286,377.852 229.038,378.075 228.814,378.27 L 226.865,386.967 C 226.894,387.162 226.982,387.377 227.13,387.613 C 227.276,387.847 227.463,388.052 227.688,388.228 C 227.961,388.453 228.27,388.624 228.613,388.742 C 228.956,388.86 229.332,388.918 229.743,388.918 C 230.515,388.918 231.242,388.69 231.923,388.236 C 232.603,387.781 233.187,387.168 233.676,386.395 C 234.214,385.554 234.615,384.616 234.88,383.58 C 235.143,382.541 235.274,381.48 235.274,380.396 z M 247.912,367.061 L 243.816,384.698 C 243.727,385.069 243.644,385.44 243.566,385.811 C 243.488,386.182 243.449,386.485 243.449,386.719 C 243.449,387.276 243.573,387.657 243.822,387.862 C 244.07,388.067 244.472,388.17 245.028,388.17 C 245.222,388.17 245.513,388.146 245.898,388.097 C 246.283,388.048 246.574,387.99 246.768,387.921 L 246.548,388.859 C 245.669,389.211 244.993,389.46 244.519,389.606 C 244.046,389.752 243.511,389.826 242.915,389.826 C 242.134,389.826 241.54,389.623 241.136,389.218 C 240.73,388.813 240.528,388.312 240.528,387.716 C 240.528,387.49 240.55,387.256 240.593,387.012 C 240.638,386.768 240.698,386.46 240.777,386.088 L 244.347,370.653 C 244.415,370.35 244.462,370.139 244.486,370.022 C 244.511,369.905 244.523,369.758 244.523,369.583 C 244.523,369.231 244.464,368.96 244.347,368.77 C 244.229,368.58 244.062,368.435 243.846,368.337 C 243.64,368.249 243.38,368.191 243.066,368.161 C 242.753,368.132 242.433,368.098 242.11,368.058 L 242.316,367.164 L 247.764,366.842 L 247.912,367.061 z M 255.523,387.92 L 255.303,388.858 C 254.405,389.219 253.687,389.471 253.15,389.613 C 252.613,389.754 252.154,389.825 251.773,389.825 C 250.992,389.825 250.406,389.622 250.015,389.217 C 249.624,388.811 249.429,388.31 249.429,387.714 C 249.429,387.488 249.449,387.254 249.488,387.01 C 249.527,386.766 249.591,386.457 249.678,386.086 L 251.226,379.854 C 251.304,379.512 251.379,379.145 251.453,378.754 C 251.526,378.362 251.562,378.03 251.562,377.756 C 251.562,377.209 251.472,376.845 251.291,376.664 C 251.11,376.483 250.743,376.393 250.187,376.393 C 249.973,376.393 249.688,376.427 249.333,376.496 C 248.977,376.564 248.707,376.623 248.521,376.672 L 248.741,375.734 C 249.502,375.392 250.185,375.138 250.791,374.972 C 251.397,374.806 251.875,374.723 252.227,374.723 C 253.027,374.723 253.608,374.913 253.969,375.295 C 254.33,375.676 254.51,376.19 254.51,376.834 C 254.51,377.011 254.49,377.25 254.451,377.553 C 254.412,377.857 254.353,378.159 254.275,378.462 L 252.718,384.694 C 252.621,385.075 252.536,385.449 252.464,385.816 C 252.391,386.182 252.355,386.483 252.355,386.717 C 252.355,387.275 252.479,387.656 252.727,387.862 C 252.975,388.068 253.376,388.17 253.931,388.17 C 254.117,388.17 254.381,388.146 254.727,388.097 C 255.073,388.048 255.338,387.988 255.523,387.92 z M 256.563,369.185 C 256.563,369.742 256.382,370.228 256.021,370.642 C 255.66,371.058 255.21,371.265 254.673,371.265 C 254.175,371.265 253.745,371.068 253.384,370.671 C 253.023,370.276 252.842,369.824 252.842,369.317 C 252.842,368.78 253.023,368.311 253.384,367.911 C 253.745,367.511 254.175,367.31 254.673,367.31 C 255.23,367.31 255.684,367.498 256.035,367.874 C 256.386,368.25 256.563,368.687 256.563,369.185 z M 271.295,380.484 C 271.295,381.637 271.1,382.791 270.709,383.944 C 270.318,385.097 269.752,386.109 269.01,386.979 C 268.258,387.878 267.352,388.599 266.293,389.142 C 265.232,389.684 264.005,389.955 262.608,389.955 C 260.987,389.955 259.671,389.433 258.66,388.387 C 257.65,387.34 257.144,385.933 257.144,384.163 C 257.144,382.863 257.359,381.651 257.789,380.527 C 258.219,379.403 258.795,378.416 259.518,377.565 C 260.25,376.714 261.157,376.028 262.235,375.504 C 263.315,374.982 264.484,374.72 265.744,374.72 C 267.482,374.72 268.843,375.25 269.823,376.311 C 270.805,377.373 271.295,378.764 271.295,380.484 z M 268.307,379.927 C 268.307,378.538 268.061,377.497 267.567,376.803 C 267.075,376.11 266.364,375.762 265.436,375.762 C 264.625,375.762 263.862,376.011 263.143,376.51 C 262.426,377.008 261.808,377.82 261.29,378.945 C 260.89,379.796 260.597,380.741 260.411,381.783 C 260.225,382.824 260.133,383.784 260.133,384.664 C 260.133,386.062 260.375,387.121 260.858,387.839 C 261.342,388.558 262.072,388.917 263.048,388.917 C 263.917,388.917 264.689,388.644 265.362,388.096 C 266.035,387.548 266.583,386.855 267.003,386.014 C 267.423,385.193 267.745,384.251 267.97,383.191 C 268.195,382.131 268.307,381.041 268.307,379.927 z M 276.505,389.824 C 275.577,389.824 274.899,389.636 274.469,389.261 C 274.039,388.885 273.824,388.345 273.824,387.642 C 273.824,387.417 273.839,387.205 273.868,387.005 C 273.897,386.805 273.936,386.577 273.985,386.323 L 276.268,376.538 L 273.648,376.538 L 273.957,375.205 L 276.631,375.205 L 277.652,370.913 L 280.287,370.913 L 279.297,375.205 L 283.375,375.205 L 283.068,376.538 L 279.024,376.538 L 277.133,384.609 C 277.045,384.98 276.972,385.339 276.913,385.686 C 276.854,386.033 276.825,386.328 276.825,386.572 C 276.825,387.109 276.96,387.503 277.227,387.751 C 277.497,388.001 277.983,388.125 278.686,388.125 C 278.94,388.125 279.295,388.094 279.755,388.03 C 280.214,387.967 280.57,387.885 280.824,387.788 L 280.575,388.857 C 279.891,389.121 279.247,389.348 278.641,389.538 C 278.038,389.729 277.325,389.824 276.505,389.824 z M 298.282,387.817 L 298.062,388.755 C 297.182,389.107 296.498,389.362 296.009,389.525 C 295.52,389.685 295.027,389.766 294.528,389.766 C 293.746,389.766 293.16,389.563 292.768,389.158 C 292.377,388.752 292.181,388.251 292.181,387.655 C 292.181,387.439 292.201,387.203 292.24,386.943 C 292.279,386.684 292.344,386.379 292.431,386.027 L 293.865,380.557 C 293.972,380.136 294.058,379.755 294.122,379.413 C 294.185,379.07 294.217,378.797 294.217,378.591 C 294.217,377.937 294.063,377.418 293.752,377.037 C 293.441,376.655 292.981,376.465 292.371,376.465 C 291.75,376.465 291.08,376.666 290.357,377.067 C 289.635,377.468 288.951,378.031 288.301,378.755 L 285.813,389.518 L 283.077,389.518 L 287.437,370.653 C 287.486,370.428 287.528,370.238 287.562,370.081 C 287.596,369.925 287.613,369.759 287.613,369.583 C 287.613,369.231 287.554,368.96 287.437,368.77 C 287.32,368.58 287.153,368.435 286.937,368.337 C 286.75,368.249 286.496,368.191 286.171,368.161 C 285.848,368.132 285.525,368.098 285.2,368.058 L 285.405,367.164 L 290.856,366.842 L 291.002,367.062 L 288.662,377.187 L 288.721,377.187 C 289.722,376.375 290.617,375.762 291.405,375.346 C 292.193,374.931 293.088,374.723 294.089,374.723 C 295.023,374.723 295.753,374.994 296.278,375.536 C 296.802,376.079 297.065,376.79 297.065,377.67 C 297.065,377.847 297.038,378.159 296.985,378.608 C 296.93,379.058 296.845,379.503 296.728,379.943 L 295.497,384.65 C 295.418,384.963 295.335,385.323 295.247,385.728 C 295.159,386.133 295.115,386.449 295.115,386.673 C 295.115,387.231 295.237,387.61 295.481,387.81 C 295.725,388.011 296.126,388.111 296.683,388.111 C 296.869,388.111 297.135,388.08 297.482,388.015 C 297.83,387.952 298.096,387.886 298.282,387.817 z M 312.501,377.773 C 312.501,378.81 312.176,379.701 311.527,380.444 C 310.877,381.187 309.932,381.779 308.692,382.219 C 307.784,382.551 306.866,382.821 305.938,383.026 C 305.01,383.232 303.985,383.403 302.862,383.54 C 302.862,385.083 303.148,386.263 303.718,387.077 C 304.29,387.893 305.127,388.301 306.231,388.301 C 307.208,388.301 308.07,388.057 308.816,387.569 C 309.564,387.081 310.298,386.353 311.021,385.386 L 311.856,386.001 C 311.075,387.192 310.098,388.145 308.926,388.857 C 307.754,389.569 306.538,389.926 305.279,389.926 C 303.55,389.926 302.23,389.443 301.316,388.475 C 300.404,387.507 299.947,386.133 299.947,384.355 C 299.947,383.123 300.14,381.948 300.525,380.829 C 300.912,379.71 301.475,378.685 302.217,377.757 C 302.94,376.848 303.825,376.114 304.876,375.558 C 305.925,375 307.085,374.722 308.355,374.722 C 309.761,374.722 310.804,375.008 311.482,375.58 C 312.162,376.152 312.501,376.884 312.501,377.773 z M 309.806,377.413 C 309.806,377.033 309.752,376.733 309.645,376.515 C 309.538,376.295 309.401,376.132 309.235,376.026 C 309.059,375.909 308.874,375.836 308.678,375.806 C 308.482,375.776 308.282,375.762 308.077,375.762 C 306.905,375.762 305.824,376.406 304.832,377.692 C 303.842,378.978 303.214,380.581 302.95,382.501 C 303.634,382.403 304.405,382.265 305.264,382.084 C 306.123,381.904 306.836,381.668 307.403,381.376 C 308.214,380.957 308.816,380.418 309.213,379.761 C 309.607,379.102 309.806,378.319 309.806,377.413 z M 328.565,376.406 C 328.565,376.836 328.396,377.233 328.059,377.6 C 327.722,377.965 327.303,378.149 326.804,378.149 C 326.482,378.149 326.163,378.105 325.851,378.017 C 325.539,377.929 325.196,377.797 324.824,377.621 C 324.288,377.924 323.734,378.298 323.164,378.742 C 322.593,379.186 321.971,379.723 321.298,380.355 C 321.856,381.801 322.326,382.987 322.713,383.91 C 323.098,384.834 323.428,385.589 323.701,386.175 C 324.054,386.908 324.441,387.428 324.867,387.737 C 325.291,388.044 325.758,388.198 326.265,388.198 C 326.499,388.198 326.822,388.163 327.232,388.093 C 327.642,388.024 327.96,387.951 328.184,387.876 L 327.964,388.835 C 327.054,389.204 326.341,389.451 325.821,389.577 C 325.303,389.702 324.78,389.765 324.253,389.765 C 323.627,389.765 323.092,389.591 322.647,389.244 C 322.203,388.898 321.775,388.27 321.366,387.362 C 320.967,386.493 320.611,385.636 320.3,384.792 C 319.989,383.948 319.682,383.149 319.379,382.397 L 317.69,383.826 L 316.419,389.515 L 313.683,389.515 L 318.043,370.65 C 318.111,370.347 318.158,370.137 318.183,370.02 C 318.208,369.903 318.219,369.755 318.219,369.58 C 318.219,369.228 318.16,368.957 318.043,368.767 C 317.926,368.577 317.759,368.432 317.543,368.334 C 317.338,368.246 317.077,368.188 316.764,368.158 C 316.45,368.129 316.131,368.095 315.807,368.055 L 316.012,367.161 L 321.463,366.839 L 321.609,367.059 L 318.025,382.308 L 318.084,382.308 C 319.187,381.117 320.189,380.084 321.092,379.21 C 321.995,378.336 322.94,377.444 323.925,376.536 C 324.627,375.891 325.184,375.45 325.594,375.21 C 326.004,374.972 326.443,374.852 326.911,374.852 C 327.408,374.852 327.808,374.992 328.111,375.269 C 328.414,375.55 328.565,375.928 328.565,376.406 z" />
   <rect
   id="Wrapper"
   fill="none"
   width="400"
   height="400" />
</svg>