<?xml version="1.0" encoding="UTF-8" standalone="no"?>
<!-- Created with Inkscape (http://www.inkscape.org/) -->
<svg
   xmlns:ns="http://creativecommons.org/ns#"
   xmlns:dc="http://purl.org/dc/elements/1.1/"
   xmlns:cc="http://web.resource.org/cc/"
   xmlns:rdf="http://www.w3.org/1999/02/22-rdf-syntax-ns#"
   xmlns:svg="http://www.w3.org/2000/svg"
   xmlns="http://www.w3.org/2000/svg"
   xmlns:sodipodi="http://sodipodi.sourceforge.net/DTD/sodipodi-0.dtd"
   xmlns:inkscape="http://www.inkscape.org/namespaces/inkscape"
   version="1.0"
   width="400"
   height="400"
   id="svg2728"
   sodipodi:version="0.32"
   inkscape:version="0.44"
   sodipodi:docname="Wikibooks-logo-el.svg"
   sodipodi:docbase="F:\Documents and Settings\geraki\Επιφάνεια εργασίας">
  <metadata
     id="metadata18">
    <rdf:RDF>
      <ns:Work
         rdf:about="">
        <dc:format>image/svg+xml</dc:format>
        <dc:type
           rdf:resource="http://purl.org/dc/dcmitype/StillImage" />
      </ns:Work>
      <cc:Work
         rdf:about="">
        <dc:format>image/svg+xml</dc:format>
        <dc:type
           rdf:resource="http://purl.org/dc/dcmitype/StillImage" />
      </cc:Work>
    </rdf:RDF>
  </metadata>
  <sodipodi:namedview
     inkscape:window-height="994"
     inkscape:window-width="1680"
     inkscape:pageshadow="2"
     inkscape:pageopacity="0.0"
     guidetolerance="10.0"
     gridtolerance="10.0"
     objecttolerance="10.0"
     borderopacity="1.0"
     bordercolor="#666666"
     pagecolor="#ffffff"
     id="base"
     showgrid="false"
     inkscape:zoom="2.49"
     inkscape:cx="181.80491"
     inkscape:cy="86.657511"
     inkscape:window-x="-4"
     inkscape:window-y="-4"
     inkscape:current-layer="svg2728" />
  <defs
     id="defs2731">
    <inkscape:perspective
       sodipodi:type="inkscape:persp3d"
       inkscape:vp_x="0 : 200 : 1"
       inkscape:vp_y="0 : 1000 : 0"
       inkscape:vp_z="400 : 200 : 1"
       inkscape:persp3d-origin="200 : 133.33333 : 1"
       id="perspective20" />
  </defs>
  <g
     id="layer1" />
  <g
     id="g3189">
    <g
       id="g3177">
      <path
         id="path3297"
         style="fill: rgb(253, 252, 248); fill-opacity: 1; fill-rule: evenodd; stroke: none; stroke-width: 1px; stroke-linecap: butt; stroke-linejoin: miter; stroke-opacity: 1;"
         d="M 191.65664,115.97593 C 196.93351,182.00184 208.45394,245.91983 242.85479,307.46513 L 255.86467,307.56221 L 338.15581,234.14292 L 259.72068,35.943307 L 203.18059,89.951746 L 191.65664,115.97593 z" />
      <path
         d="M 263.32723,16.5 C 236.14031,42.801966 209.26473,68.875 209.26473,68.875 C 209.26473,68.875 218.92098,88.53125 218.92098,88.53125 C 232.01455,75.550025 245.18226,64.133911 257.73348,51.4375 C 284.16674,109.4727 302.17756,156.24917 324.33191,218.08448 C 331.58462,238.17246 330.10582,239.07126 312.76941,249.92823 C 284.91465,263.77995 276.0966,272.86547 242.89833,308.1875 L 265.61708,308.1875 C 293.37052,283.09599 303.67261,274.24081 338.42566,255.92823 C 350.71955,248.83035 352.40523,239.86966 347.36316,225.92823 C 331.10198,180.73146 295.87208,83.322614 263.32723,16.5 z"
         style="fill: rgb(95, 150, 211); fill-opacity: 1;"
         id="path3272" />
    </g>
    <g
       id="g3181">
      <path
         id="path3214"
         style="fill: rgb(244, 238, 215); fill-rule: evenodd; stroke: none; stroke-width: 1px; stroke-linecap: butt; stroke-linejoin: miter; stroke-opacity: 1;"
         d="M 125.84082,116.04509 C 131.11769,182.071 144.61911,246.8316 179.01996,308.3769 L 199.35471,308.55962 L 261.32293,230.84125 L 193.90486,36.012472 L 137.36477,90.020911 L 125.84082,116.04509 z" />
      <path
         d="M 192.45223,17.125 C 172.56466,30.549352 157.22356,49.869448 139.92098,66.4375 C 139.92098,66.4375 147.01473,89.0625 147.01473,89.0625 C 160.5559,78.391834 172.3403,65.526043 184.51473,53.34375 L 250.17098,218.03125 C 253.95672,229.18194 247.99456,239.10365 236.01473,249.90625 C 221.66549,261.43896 192.12216,288.32681 178.73348,308.8125 L 199.10848,308.8125 C 220.49313,286.84657 224.35368,283.86504 248.70223,262.78125 C 265.04857,246.10281 279.81623,237.56053 272.10848,216.1875 L 192.45223,17.125 z"
         style="fill: rgb(42, 98, 161); fill-opacity: 1; fill-rule: evenodd; stroke: none; stroke-width: 22; stroke-linecap: round; stroke-linejoin: miter; stroke-miterlimit: 4; stroke-dasharray: none; stroke-opacity: 1;"
         id="path3138" />
    </g>
    <g
       id="g3185">
      <path
         id="path2238"
         style="fill: rgb(233, 221, 175); fill-rule: evenodd; stroke: none; stroke-width: 1px; stroke-linecap: butt; stroke-linejoin: miter; stroke-opacity: 1;"
         d="M 50.218883,114.63177 C 55.595535,183.91551 77.233973,245.97178 102.67801,306.33668 L 129.48015,306.00572 L 199.88087,225.96804 L 118.28293,34.599156 L 61.742841,88.607595 L 50.218883,114.63177 z" />
      <path
         d="M 125.32723,16.0625 C 120.02588,17.841698 115.61512,21.260515 111.48348,24.875 C 55.394922,78.847012 53.13973,81.125 53.13973,81.125 C 50.188265,83.867742 49.941746,87.87735 49.98348,91.90625 L 50.218884,114.63177 C 50.218884,114.63177 76.123108,89.450054 114.79598,52.21875 C 135.6144,106.45643 157.3415,160.40524 178.73348,214.4375 C 181.66298,222.60083 174.65125,229.2909 165.76473,238.21875 C 153.49118,250.19233 127.82007,274.84011 101.54598,307.75 L 127.88973,307.75 C 127.88973,307.75 191.20222,238.3125 191.20223,238.3125 C 197.22151,230.03457 204.70542,221.9413 201.54598,214.4375 C 201.54598,214.4375 125.32723,16.062501 125.32723,16.0625 z"
         style="fill: rgb(21, 48, 79); fill-opacity: 1; fill-rule: evenodd; stroke: none; stroke-width: 22; stroke-linecap: round; stroke-linejoin: miter; stroke-miterlimit: 4; stroke-dasharray: none; stroke-opacity: 1;"
         id="path3136" />
    </g>
  </g>
  <text
     xml:space="preserve"
     style="font-style: normal; font-variant: normal; font-weight: bold; font-stretch: normal; fill: rgb(0, 0, 0); fill-opacity: 1; stroke: none; stroke-width: 1px; stroke-linecap: butt; stroke-linejoin: miter; stroke-opacity: 1; font-family: DejaVu Sans;"
     x="15.261"
     y="175.904"
     id="text2416"><tspan
       sodipodi:role="line"
       id="tspan2418"
       x="15.261"
       y="175.90401" /></text>
  <path
     transform="scale(1.066409,0.937727)"
     style="font-size:60.37290192px;font-style:normal;font-weight:normal;fill:#0b2645;fill-opacity:1;stroke:none;stroke-width:1px;stroke-linecap:butt;stroke-linejoin:miter;stroke-opacity:1;font-family:Arial"
     d="M 25.648854,337.67371 L 42.923522,337.67371 C 46.343056,337.67376 48.892983,337.81624 50.573311,338.10116 C 52.253581,338.38616 53.757006,338.98065 55.083592,339.88463 C 56.41011,340.7887 57.515569,341.99242 58.399974,343.49581 C 59.284305,344.99927 59.726489,346.68448 59.726527,348.55145 C 59.726489,350.5757 59.181129,352.43287 58.090445,354.12297 C 56.999688,355.81312 55.520829,357.08072 53.653862,357.92576 C 56.287281,358.69223 58.3115,359.99913 59.726527,361.84646 C 61.141477,363.69382 61.848971,365.86544 61.849012,368.36131 C 61.848971,370.32658 61.392048,372.2378 60.478241,374.09496 C 59.564355,375.95214 58.316413,377.43591 56.734413,378.54629 C 55.152342,379.65666 53.20182,380.33959 50.88284,380.59507 C 49.428517,380.75229 45.920525,380.85056 40.358853,380.88986 L 25.648854,380.88986 L 25.648854,337.67371 z M 34.374625,344.86658 L 34.374625,354.85994 L 40.093543,354.85994 C 43.493427,354.85997 45.606083,354.81084 46.431518,354.71255 C 47.925092,354.5357 49.099336,354.01982 49.954253,353.1649 C 50.809114,352.31004 51.236558,351.18493 51.236588,349.78956 C 51.236558,348.45322 50.868071,347.36741 50.131127,346.53214 C 49.394125,345.69694 48.298492,345.19088 46.844224,345.01397 C 45.979483,344.91575 43.493427,344.86661 39.386048,344.86658 L 34.374625,344.86658 z M 34.374625,362.05281 L 34.374625,373.60856 L 42.451859,373.60856 C 45.596257,373.60857 47.590997,373.52013 48.436087,373.34325 C 49.733133,373.10743 50.789461,372.53259 51.605075,371.61873 C 52.420628,370.70489 52.82842,369.48152 52.828452,367.9486 C 52.82842,366.65154 52.513978,365.55099 51.885125,364.64696 C 51.256211,363.74295 50.347277,363.08459 49.158322,362.67187 C 47.96931,362.25918 45.389904,362.05283 41.420096,362.05281 L 34.374625,362.05281 z M 68.982921,380.88986 L 68.982921,337.67371 L 77.708692,337.67371 L 77.708692,380.88986 L 68.982921,380.88986 z M 86.110193,380.88986 L 86.110193,337.67371 L 94.835964,337.67371 L 94.835964,356.86451 L 112.46438,337.67371 L 124.197,337.67371 L 107.92462,354.5062 L 125.08137,380.88986 L 113.79093,380.88986 L 101.91091,360.60834 L 94.835964,367.83068 L 94.835964,380.88986 L 86.110193,380.88986 z M 129.35583,380.88986 L 129.35583,337.67371 L 138.0816,337.67371 L 138.0816,380.88986 L 129.35583,380.88986 z "
     id="text1886" />
  <path
     transform="scale(1.066409,0.937727)"
     style="font-size:60.37290192px;font-style:normal;font-weight:normal;fill:#0a4e98;fill-opacity:1;stroke:none;stroke-width:1px;stroke-linecap:butt;stroke-linejoin:miter;stroke-opacity:1;font-family:Arial"
     d="M 148.85359,337.67374 L 166.12826,337.67374 C 169.54779,337.67379 172.09772,337.81627 173.77805,338.10119 C 175.45832,338.38619 176.96174,338.98069 178.28833,339.88466 C 179.61485,340.78873 180.72031,341.99245 181.60471,343.49584 C 182.48904,344.9993 182.93123,346.68451 182.93126,348.55148 C 182.93123,350.57573 182.38587,352.4329 181.29518,354.123 C 180.20442,355.81315 178.72557,357.08075 176.8586,357.92579 C 179.49202,358.69226 181.51624,359.99916 182.93126,361.84649 C 184.34621,363.69385 185.05371,365.86547 185.05375,368.36134 C 185.05371,370.32661 184.59678,372.23783 183.68298,374.09499 C 182.76909,375.95217 181.52115,377.43595 179.93915,378.54632 C 178.35708,379.65669 176.40656,380.33962 174.08758,380.5951 C 172.63325,380.75232 169.12526,380.85059 163.56359,380.88989 L 148.85359,380.88989 L 148.85359,337.67374 z M 157.57936,344.86661 L 157.57936,354.85997 L 163.29828,354.85997 C 166.69816,354.86 168.81082,354.81087 169.63625,354.71258 C 171.12983,354.53573 172.30407,354.01985 173.15899,353.16493 C 174.01385,352.31007 174.44129,351.18496 174.44132,349.78959 C 174.44129,348.45325 174.07281,347.36744 173.33586,346.53217 C 172.59886,345.69697 171.50323,345.19091 170.04896,345.014 C 169.18422,344.91578 166.69816,344.86664 162.59078,344.86661 L 157.57936,344.86661 z M 157.57936,362.05284 L 157.57936,373.60859 L 165.6566,373.60859 C 168.80099,373.6086 170.79573,373.52016 171.64082,373.34328 C 172.93787,373.10746 173.9942,372.53262 174.80981,371.61876 C 175.62536,370.70492 176.03316,369.48155 176.03319,367.94863 C 176.03316,366.65157 175.71871,365.55102 175.08986,364.64699 C 174.46095,363.74298 173.55201,363.08462 172.36306,362.6719 C 171.17405,362.25921 168.59464,362.05286 164.62483,362.05284 L 157.57936,362.05284 z M 192.18766,380.88989 L 192.18766,337.67374 L 200.91343,337.67374 L 200.91343,380.88989 L 192.18766,380.88989 z M 209.22649,337.67374 L 226.50116,337.67374 C 229.92069,337.67379 232.47062,337.81627 234.15095,338.10119 C 235.83122,338.38619 237.33464,338.98069 238.66123,339.88466 C 239.98775,340.78873 241.09321,341.99245 241.97761,343.49584 C 242.86194,344.9993 243.30413,346.68451 243.30417,348.55148 C 243.30413,350.57573 242.75877,352.4329 241.66808,354.123 C 240.57733,355.81315 239.09847,357.08075 237.2315,357.92579 C 239.86492,358.69226 241.88914,359.99916 243.30417,361.84649 C 244.71912,363.69385 245.42661,365.86547 245.42665,368.36134 C 245.42661,370.32661 244.96969,372.23783 244.05588,374.09499 C 243.14199,375.95217 241.89405,377.43595 240.31205,378.54632 C 238.72998,379.65669 236.77946,380.33962 234.46048,380.5951 C 233.00616,380.75232 229.49816,380.85059 223.93649,380.88989 L 209.22649,380.88989 L 209.22649,337.67374 z M 217.95226,344.86661 L 217.95226,354.85997 L 223.67118,354.85997 C 227.07107,354.86 229.18372,354.81087 230.00916,354.71258 C 231.50273,354.53573 232.67697,354.01985 233.53189,353.16493 C 234.38675,352.31007 234.8142,351.18496 234.81423,349.78959 C 234.8142,348.45325 234.44571,347.36744 233.70877,346.53217 C 232.97176,345.69697 231.87613,345.19091 230.42186,345.014 C 229.55712,344.91578 227.07107,344.86664 222.96369,344.86661 L 217.95226,344.86661 z M 217.95226,362.05284 L 217.95226,373.60859 L 226.0295,373.60859 C 229.1739,373.6086 231.16864,373.52016 232.01373,373.34328 C 233.31077,373.10746 234.3671,372.53262 235.18271,371.61876 C 235.99827,370.70492 236.40606,369.48155 236.40609,367.94863 C 236.40606,366.65157 236.09162,365.55102 235.46276,364.64699 C 234.83385,363.74298 233.92492,363.08462 232.73596,362.6719 C 231.54695,362.25921 228.96754,362.05286 224.99773,362.05284 L 217.95226,362.05284 z M 273.22531,337.67374 L 288.67228,380.88989 L 279.20954,380.88989 L 268.27285,348.9347 L 257.6899,380.88989 L 248.43351,380.88989 L 263.90996,337.67374 L 273.22531,337.67374 z M 292.88778,380.88989 L 292.88778,337.67374 L 301.61355,337.67374 L 301.61355,380.88989 L 292.88778,380.88989 z M 348.86832,380.88989 L 339.3761,380.88989 L 335.60279,371.0734 L 318.32812,371.0734 L 314.76117,380.88989 L 305.50478,380.88989 L 322.33726,337.67374 L 331.56417,337.67374 L 348.86832,380.88989 z M 332.80229,363.7921 L 326.84754,347.75555 L 321.01071,363.7921 L 332.80229,363.7921 z "
     id="text1890" />
  <path
     transform="scale(0.850069,1.176375)"
     style="font-size:28.77142715px;font-style:italic;font-weight:normal;fill:black;fill-opacity:1;stroke:none;stroke-width:1px;stroke-linecap:butt;stroke-linejoin:miter;stroke-opacity:1;font-family:Times New Roman"
     d="M 15.676227,324.96351 L 9.7758369,324.96351 L 8.5957589,326.42456 L 7.2470982,328.04014 C 6.9848557,328.38667 6.792859,328.70042 6.6711077,328.98139 C 6.5774482,329.1968 6.5306197,329.41222 6.5306222,329.62762 C 6.5306197,329.8524 6.6500323,330.06079 6.8888602,330.25278 C 7.1276824,330.44478 7.5233828,330.55483 8.0759626,330.58293 L 8.0759626,331.10272 L 2.3863005,331.10272 L 2.526786,330.58293 C 3.0325347,330.49864 3.4820878,330.32069 3.8754466,330.04908 C 4.3999254,329.67445 5.1538634,328.90179 6.1372629,327.73107 L 19.637918,311.61739 L 20.270103,311.61739 L 19.637918,327.21127 C 19.609805,328.02609 19.595757,328.51779 19.595772,328.68637 C 19.595757,329.32324 19.724535,329.78684 19.982107,330.07718 C 20.239648,330.36752 20.668128,330.5361 21.26755,330.58293 L 21.127064,331.10272 L 12.880566,331.10272 L 13.0351,330.58293 C 13.849906,330.508 14.318191,330.44244 14.439955,330.38625 C 14.702184,330.25513 14.941009,329.98118 15.156431,329.56441 C 15.371831,329.14763 15.50295,328.42413 15.54979,327.39391 L 15.676227,324.96351 z M 15.676227,323.81153 L 16.04149,317.60207 L 10.745187,323.81153 L 15.676227,323.81153 z M 27.196037,331.49608 L 26.690289,331.49608 C 26.718383,330.72809 26.732431,330.14742 26.732435,329.75406 C 26.732431,328.68637 26.650482,327.14338 26.486585,325.12506 C 26.322683,323.10676 26.13771,321.76045 25.931668,321.08611 C 25.772448,320.58974 25.56172,320.22916 25.299483,320.00437 C 25.121533,319.85453 24.892073,319.7796 24.611104,319.77959 C 24.451886,319.7796 24.259889,319.79833 24.035114,319.83579 L 24.035114,319.33004 L 28.71328,318.07972 C 29.649844,320.63656 30.10408,323.90987 30.075989,327.89965 C 31.452739,326.58846 32.401015,325.52545 32.920821,324.71063 C 33.440607,323.89582 33.700504,323.21681 33.700515,322.67359 C 33.700504,322.24278 33.538946,321.80493 33.21584,321.36005 C 32.892714,320.91519 32.691351,320.5991 32.611752,320.41178 C 32.532135,320.22447 32.492331,320.01843 32.49234,319.79364 C 32.492331,319.30664 32.651547,318.89923 32.96999,318.57142 C 33.288414,318.24363 33.691139,318.07973 34.178166,318.07972 C 34.693268,318.07973 35.091309,318.24363 35.372292,318.57142 C 35.765639,319.03035 35.962319,319.57356 35.962331,320.20105 C 35.962319,320.84729 35.847589,321.48182 35.618142,322.10463 C 35.38867,322.72745 34.995311,323.46266 34.438064,324.31025 C 33.880794,325.15785 33.260317,325.92818 32.576631,326.62124 C 31.321619,327.89497 29.52809,329.51992 27.196037,331.49608 L 27.196037,331.49608 z M 45.4451,318.07972 C 46.18498,318.07973 46.880383,318.25065 47.53131,318.59249 C 48.182213,318.93435 48.673912,319.40966 49.006407,320.01842 C 49.338876,320.6272 49.505117,321.30153 49.505131,322.04141 C 49.505117,323.55866 49.08132,325.0759 48.233737,326.59314 C 47.38613,328.11038 46.269271,329.30685 44.883158,330.18254 C 43.497027,331.05824 42.101539,331.49608 40.696691,331.49608 C 39.422952,331.49608 38.437213,331.11677 37.739471,330.35815 C 37.041726,329.59953 36.692854,328.67233 36.692854,327.57654 C 36.692854,326.27471 36.952752,325.05483 37.472549,323.91689 C 37.992343,322.77897 38.652624,321.7862 39.453394,320.9386 C 40.254157,320.09101 41.174336,319.40263 42.213934,318.87346 C 43.253519,318.34431 44.330574,318.07973 45.4451,318.07972 L 45.4451,318.07972 z M 44.86911,318.82429 C 44.372719,318.8243 43.960629,318.96947 43.632837,319.2598 C 42.977231,319.84985 42.237342,321.22894 41.413167,323.39709 C 40.588981,325.56526 40.17689,327.52035 40.176894,329.26236 C 40.17689,329.69319 40.30801,330.04908 40.570254,330.33005 C 40.832489,330.61102 41.141556,330.75151 41.497458,330.75151 C 41.862714,330.75151 42.185831,330.63912 42.466808,330.41434 C 42.878892,330.07718 43.384639,329.3209 43.984051,328.1455 C 44.583447,326.97011 45.075146,325.67296 45.459149,324.25405 C 45.843132,322.83516 46.035129,321.53567 46.035139,320.35558 C 46.035129,319.86858 45.918058,319.49161 45.683925,319.22467 C 45.449773,318.95776 45.178168,318.8243 44.86911,318.82429 L 44.86911,318.82429 z M 57.765679,318.07972 L 54.885727,328.06824 C 54.726505,328.63955 54.646897,329.01417 54.646901,329.19212 C 54.646897,329.29514 54.689043,329.39114 54.773338,329.48011 C 54.857625,329.56909 54.946599,329.61358 55.040261,329.61358 C 55.199473,329.61358 55.358689,329.54333 55.517911,329.40285 C 55.939362,329.05632 56.445109,328.42882 57.035154,327.52034 L 57.512805,327.80131 C 56.098579,330.26449 54.595386,331.49608 53.003221,331.49608 C 52.394449,331.49608 51.909774,331.32516 51.549196,330.98331 C 51.188616,330.64146 51.008327,330.2083 51.008327,329.68382 C 51.008327,329.33729 51.087935,328.8971 51.247153,328.36326 L 53.199901,321.64805 C 53.387212,321.00183 53.480869,320.51481 53.480872,320.187 C 53.480869,319.98097 53.391895,319.79833 53.213949,319.63911 C 53.035998,319.4799 52.79249,319.40029 52.483425,319.40028 C 52.342937,319.40029 52.174355,319.40498 51.977677,319.41433 L 52.160308,318.85239 L 56.922766,318.07972 L 57.765679,318.07972 z M 68.864033,318.47308 L 72.713335,318.47308 L 65.084973,329.34665 C 65.244183,331.42584 65.515788,332.8705 65.899789,333.68063 C 66.283775,334.49076 66.845716,334.89583 67.585615,334.89583 C 68.325495,334.89583 68.840608,334.48842 69.130955,333.67361 L 69.650752,333.67361 C 69.416598,335.92137 68.56432,337.04525 67.093916,337.04526 C 66.101144,337.04525 65.422131,336.47395 65.056876,335.33134 C 64.691608,334.18872 64.471514,332.50289 64.396594,330.27386 L 59.858913,336.66595 L 55.897223,336.66595 L 64.157769,325.0197 C 63.942352,322.92179 63.652016,321.58016 63.286759,320.99479 C 62.921492,320.40945 62.401697,320.11677 61.72737,320.11676 C 61.015574,320.11677 60.51451,320.50544 60.224176,321.28279 L 59.620088,321.28279 C 60.032177,319.14742 60.9266,318.07973 62.303361,318.07972 C 62.893395,318.07973 63.385094,318.27407 63.778458,318.66273 C 64.171812,319.05142 64.422344,319.55717 64.530056,320.17998 C 64.637755,320.80281 64.743119,322.09761 64.846148,324.0644 L 68.864033,318.47308 z M 80.285503,321.50756 L 78.95089,325.31472 C 78.56689,326.40115 78.374893,327.23001 78.3749,327.80131 C 78.374893,328.69106 78.749521,329.13593 79.498784,329.13593 C 80.201203,329.13593 80.725681,328.71447 81.072221,327.87156 L 81.718455,327.87156 C 80.90363,330.28791 79.667359,331.49608 78.009638,331.49608 C 76.024105,331.49608 75.031342,330.68127 75.031345,329.05163 C 75.031342,328.1338 75.326361,326.93967 75.916404,325.46925 L 77.475793,321.50756 L 76.070938,321.50756 C 75.115633,321.50757 74.413207,321.60123 73.963656,321.78853 C 73.5141,321.97586 73.13479,322.35049 72.825723,322.91242 L 72.460461,322.74384 C 72.769528,321.73235 73.141814,320.8988 73.577321,320.24319 C 74.012823,319.58761 74.488132,319.12869 75.003248,318.86644 C 75.518358,318.60421 76.127128,318.47309 76.82956,318.47308 L 85.216543,318.47308 L 84.387679,321.50756 L 80.285503,321.50756 z M 96.258701,318.47308 L 99.925372,318.47308 L 97.171856,324.44371 C 96.684828,325.51141 96.254006,326.36837 95.87939,327.01459 C 95.926207,328.51311 96.40854,329.26236 97.32639,329.26236 C 98.206752,329.26236 98.64694,328.79408 98.646954,327.85751 L 99.307236,327.85751 C 99.307221,330.28322 98.618843,331.49608 97.242099,331.49608 C 95.987084,331.49608 95.312754,330.33474 95.219108,328.01204 C 93.636296,330.33474 91.61799,331.49608 89.164184,331.49608 C 88.012199,331.49608 87.061582,331.07931 86.312329,330.24576 C 85.563072,329.41222 85.188444,328.34453 85.188445,327.04269 C 85.188444,325.60975 85.640338,324.13465 86.54413,322.6174 C 87.447917,321.10017 88.487508,319.96458 89.662907,319.21063 C 90.838296,318.4567 91.955155,318.07973 93.013486,318.07972 C 94.249749,318.07973 94.984955,318.99289 95.219108,320.81918 L 96.258701,318.47308 z M 94.629069,322.13975 C 94.629059,320.30408 94.151409,319.38624 93.196117,319.38623 C 92.156517,319.38624 91.07478,320.45159 89.950903,322.58228 C 88.827014,324.71298 88.265073,326.62124 88.265077,328.30706 C 88.265073,329.74938 88.663115,330.47054 89.459203,330.47054 C 89.880654,330.47054 90.3185,330.18254 90.772743,329.60655 C 91.226972,329.03056 91.875546,327.86688 92.718467,326.11549 L 94.629069,322.13975 z M 94.839797,311.61739 L 99.16675,311.61739 L 94.43239,316.53438 L 93.16802,316.53438 L 94.839797,311.61739 z M 108.77595,337.25599 L 105.16548,337.25599 C 105.84917,336.35687 106.49541,334.89583 107.10418,332.87284 L 111.43113,318.44498 C 111.94624,316.70297 112.45667,315.41285 112.96242,314.5746 C 113.46816,313.73639 114.23381,313.03397 115.25936,312.46732 C 116.28489,311.90072 117.40175,311.61741 118.60994,311.61739 C 119.85556,311.61741 120.87408,311.93116 121.6655,312.55864 C 122.45688,313.18616 122.85258,314.00097 122.8526,315.00309 C 122.85258,316.0146 122.49903,317.01907 121.79193,318.0165 C 121.08481,319.01396 120.03351,319.76555 118.63803,320.27129 C 120.02415,321.27343 120.71721,322.5659 120.71722,324.14869 C 120.71721,325.33814 120.42219,326.54866 119.83216,327.78024 C 119.24211,329.01183 118.46242,329.93904 117.49308,330.56185 C 116.52372,331.18467 115.51925,331.49608 114.47966,331.49608 C 113.34641,331.49608 112.36769,331.02311 111.54352,330.07718 L 110.7568,332.87284 C 110.19485,334.849 109.53457,336.31005 108.77595,337.25599 L 108.77595,337.25599 z M 111.82449,329.20617 C 112.3115,329.82431 112.86408,330.13337 113.48222,330.13337 C 114.50307,330.13337 115.39984,329.2811 116.17251,327.57654 C 116.94518,325.87198 117.33151,324.00821 117.33152,321.98521 C 117.33151,321.46074 117.28468,321.00651 117.19103,320.62251 C 116.91942,320.66934 116.70401,320.69276 116.5448,320.69275 C 116.32002,320.69276 116.12334,320.62252 115.95476,320.48202 C 115.78617,320.34154 115.70188,320.15891 115.70189,319.93413 C 115.70188,319.43776 115.95944,319.18957 116.47456,319.18955 C 116.78362,319.18957 117.13015,319.316 117.51415,319.56886 C 118.07608,318.82899 118.57949,317.87603 119.02437,316.70998 C 119.46923,315.54397 119.69166,314.5395 119.69168,313.69657 C 119.69166,312.81621 119.27021,312.37603 118.42731,312.37601 C 117.79043,312.37603 117.28702,312.64763 116.91709,313.19082 C 116.54713,313.73405 116.07651,314.975 115.50521,316.91369 L 111.82449,329.20617 z M 129.69425,318.07972 L 126.8143,328.06824 C 126.65508,328.63955 126.57547,329.01417 126.57547,329.19212 C 126.57547,329.29514 126.61761,329.39114 126.70191,329.48011 C 126.78619,329.56909 126.87517,329.61358 126.96883,329.61358 C 127.12804,329.61358 127.28726,329.54333 127.44648,329.40285 C 127.86793,329.05632 128.37368,328.42882 128.96372,327.52034 L 129.44137,327.80131 C 128.02715,330.26449 126.52396,331.49608 124.93179,331.49608 C 124.32302,331.49608 123.83834,331.32516 123.47777,330.98331 C 123.11719,330.64146 122.9369,330.2083 122.9369,329.68382 C 122.9369,329.33729 123.0165,328.8971 123.17572,328.36326 L 125.12847,321.64805 C 125.31578,321.00183 125.40944,320.51481 125.40944,320.187 C 125.40944,319.98097 125.32046,319.79833 125.14252,319.63911 C 124.96457,319.4799 124.72106,319.40029 124.41199,319.40028 C 124.27151,319.40029 124.10292,319.40498 123.90625,319.41433 L 124.08888,318.85239 L 128.85134,318.07972 L 129.69425,318.07972 z M 131.47842,337.25599 L 127.86794,337.25599 C 128.55164,336.35687 129.19787,334.89583 129.80664,332.87284 L 134.13359,318.44498 C 134.6487,316.70297 135.15913,315.41285 135.66488,314.5746 C 136.17062,313.73639 136.93627,313.03397 137.96182,312.46732 C 138.98736,311.90072 140.10421,311.61741 141.3124,311.61739 C 142.55802,311.61741 143.57654,311.93116 144.36796,312.55864 C 145.15934,313.18616 145.55505,314.00097 145.55506,315.00309 C 145.55505,316.0146 145.20149,317.01907 144.4944,318.0165 C 143.78727,319.01396 142.73597,319.76555 141.3405,320.27129 C 142.72661,321.27343 143.41967,322.5659 143.41968,324.14869 C 143.41967,325.33814 143.12465,326.54866 142.53462,327.78024 C 141.94457,329.01183 141.16488,329.93904 140.19554,330.56185 C 139.22618,331.18467 138.22171,331.49608 137.18213,331.49608 C 136.04887,331.49608 135.07016,331.02311 134.24598,330.07718 L 133.45926,332.87284 C 132.89732,334.849 132.23703,336.31005 131.47842,337.25599 L 131.47842,337.25599 z M 134.52695,329.20617 C 135.01396,329.82431 135.56654,330.13337 136.18468,330.13337 C 137.20553,330.13337 138.1023,329.2811 138.87498,327.57654 C 139.64764,325.87198 140.03397,324.00821 140.03398,321.98521 C 140.03397,321.46074 139.98714,321.00651 139.8935,320.62251 C 139.62188,320.66934 139.40647,320.69276 139.24726,320.69275 C 139.02248,320.69276 138.8258,320.62252 138.65722,320.48202 C 138.48863,320.34154 138.40434,320.15891 138.40435,319.93413 C 138.40434,319.43776 138.6619,319.18957 139.17702,319.18955 C 139.48608,319.18957 139.83261,319.316 140.21661,319.56886 C 140.77854,318.82899 141.28195,317.87603 141.72683,316.70998 C 142.17169,315.54397 142.39413,314.5395 142.39414,313.69657 C 142.39413,312.81621 141.97267,312.37603 141.12977,312.37601 C 140.49289,312.37603 139.98948,312.64763 139.61955,313.19082 C 139.24959,313.73405 138.77897,314.975 138.20767,316.91369 L 134.52695,329.20617 z M 147.84497,331.10272 L 143.47587,331.10272 L 153.50653,318.38879 L 153.54868,317.40539 C 153.55803,317.19936 153.56272,316.99331 153.56272,316.78725 C 153.56272,315.64465 153.36604,314.91179 152.97269,314.58865 C 152.57932,314.26555 152.15318,314.104 151.69427,314.10398 C 150.82325,314.104 150.18638,314.58633 149.78366,315.55098 L 149.24982,315.55098 C 149.4184,314.34282 149.78366,313.38518 150.34561,312.67805 C 150.90754,311.97096 151.55846,311.61741 152.29835,311.61739 C 152.86965,311.61741 153.3754,311.85155 153.8156,312.31981 C 154.25578,312.78812 154.47587,313.54205 154.47588,314.58163 C 154.47587,314.89071 154.45246,315.36836 154.40564,316.01458 L 153.66106,326.14358 C 153.64232,326.39646 153.63296,326.64465 153.63297,326.88816 C 153.63296,328.27428 154.15744,328.96734 155.2064,328.96734 C 155.84326,328.96734 156.27877,328.61613 156.51292,327.9137 L 157.03272,327.9137 C 157.0327,328.96266 156.80793,329.79387 156.35839,330.40732 C 155.90882,331.02077 155.3422,331.3275 154.65851,331.3275 C 153.41286,331.3275 152.79005,330.36283 152.79005,328.4335 C 152.79005,328.26492 152.79941,328.06356 152.81815,327.82941 L 153.09912,323.89582 L 147.84497,331.10272 z M 165.15278,318.07972 L 162.27283,328.06824 C 162.11361,328.63955 162.034,329.01417 162.03401,329.19212 C 162.034,329.29514 162.07615,329.39114 162.16044,329.48011 C 162.24473,329.56909 162.3337,329.61358 162.42736,329.61358 C 162.58658,329.61358 162.74579,329.54333 162.90502,329.40285 C 163.32647,329.05632 163.83221,328.42882 164.42226,327.52034 L 164.89991,327.80131 C 163.48568,330.26449 161.98249,331.49608 160.39033,331.49608 C 159.78155,331.49608 159.29688,331.32516 158.9363,330.98331 C 158.57572,330.64146 158.39543,330.2083 158.39543,329.68382 C 158.39543,329.33729 158.47504,328.8971 158.63426,328.36326 L 160.587,321.64805 C 160.77432,321.00183 160.86797,320.51481 160.86798,320.187 C 160.86797,319.98097 160.779,319.79833 160.60105,319.63911 C 160.4231,319.4799 160.17959,319.40029 159.87053,319.40028 C 159.73004,319.40029 159.56146,319.40498 159.36478,319.41433 L 159.54741,318.85239 L 164.30987,318.07972 L 165.15278,318.07972 z M 164.12724,311.61739 L 168.45419,311.61739 L 163.71983,316.53438 L 162.45546,316.53438 L 164.12724,311.61739 z M 177.5155,318.47308 L 181.18217,318.47308 L 178.42865,324.44371 C 177.94163,325.51141 177.5108,326.36837 177.13619,327.01459 C 177.183,328.51311 177.66534,329.26236 178.58319,329.26236 C 179.46355,329.26236 179.90374,328.79408 179.90375,327.85751 L 180.56403,327.85751 C 180.56402,330.28322 179.87564,331.49608 178.4989,331.49608 C 177.24388,331.49608 176.56955,330.33474 176.47591,328.01204 C 174.89309,330.33474 172.87479,331.49608 170.42098,331.49608 C 169.269,331.49608 168.31838,331.07931 167.56913,330.24576 C 166.81987,329.41222 166.44524,328.34453 166.44524,327.04269 C 166.44524,325.60975 166.89714,324.13465 167.80093,322.6174 C 168.70471,321.10017 169.74431,319.96458 170.91971,319.21063 C 172.09509,318.4567 173.21195,318.07973 174.27028,318.07972 C 175.50655,318.07973 176.24175,318.99289 176.47591,320.81918 L 177.5155,318.47308 z M 175.88587,322.13975 C 175.88586,320.30408 175.40821,319.38624 174.45292,319.38623 C 173.41331,319.38624 172.33158,320.45159 171.2077,322.58228 C 170.08381,324.71298 169.52187,326.62124 169.52187,328.30706 C 169.52187,329.74938 169.91991,330.47054 170.716,330.47054 C 171.13745,330.47054 171.5753,330.18254 172.02954,329.60655 C 172.48377,329.03056 173.13234,327.86688 173.97526,326.11549 L 175.88587,322.13975 z M 194.48616,330.28791 C 194.40186,334.97075 193.38568,337.31217 191.43762,337.31218 C 190.86631,337.31217 190.43783,337.12954 190.15218,336.76429 C 189.86652,336.39902 189.7237,335.99161 189.7237,335.54206 C 189.7237,334.09974 191.01148,332.17041 193.58705,329.75406 C 193.75563,328.66764 193.83992,327.47352 193.83992,326.17168 C 193.83992,324.21426 193.68538,322.84687 193.37632,322.06951 C 193.06725,321.29216 192.58023,320.90349 191.91527,320.90348 C 191.42825,320.90349 191.0466,321.11187 190.77032,321.52864 C 190.49403,321.94542 190.35588,322.44882 190.35588,323.03886 L 189.82204,323.06695 C 189.82204,321.83069 189.89462,320.89412 190.03979,320.25724 C 190.18496,319.62039 190.46593,319.09825 190.8827,318.69083 C 191.29948,318.28343 191.80288,318.07973 192.39292,318.07972 C 194.10684,318.07973 194.9638,319.67658 194.96381,322.87027 C 194.9638,324.45308 194.84673,326.40115 194.61259,328.71447 C 195.85822,327.35645 196.65665,326.33559 197.00787,325.65189 C 197.35908,324.9682 197.53468,324.28918 197.53469,323.61485 C 197.53468,323.17467 197.40356,322.64082 197.14133,322.01331 C 196.87908,321.39518 196.74797,320.86134 196.74797,320.41178 C 196.74797,319.68126 196.9306,319.10996 197.29587,318.69785 C 197.66112,318.28578 198.16218,318.07973 198.79906,318.07972 C 199.43592,318.07973 199.89952,318.29748 200.18987,318.73298 C 200.48019,319.16849 200.62536,319.67658 200.62537,320.25724 C 200.62536,322.69233 198.57896,326.03588 194.48616,330.28791 L 194.48616,330.28791 z M 208.19754,318.07972 L 205.31758,328.06824 C 205.15836,328.63955 205.07876,329.01417 205.07876,329.19212 C 205.07876,329.29514 205.1209,329.39114 205.2052,329.48011 C 205.28948,329.56909 205.37846,329.61358 205.47212,329.61358 C 205.63133,329.61358 205.79055,329.54333 205.94977,329.40285 C 206.37122,329.05632 206.87697,328.42882 207.46701,327.52034 L 207.94466,327.80131 C 206.53044,330.26449 205.02724,331.49608 203.43508,331.49608 C 202.82631,331.49608 202.34163,331.32516 201.98105,330.98331 C 201.62047,330.64146 201.44018,330.2083 201.44019,329.68382 C 201.44018,329.33729 201.51979,328.8971 201.67901,328.36326 L 203.63176,321.64805 C 203.81907,321.00183 203.91273,320.51481 203.91273,320.187 C 203.91273,319.98097 203.82375,319.79833 203.64581,319.63911 C 203.46786,319.4799 203.22435,319.40029 202.91528,319.40028 C 202.7748,319.40029 202.60621,319.40498 202.40954,319.41433 L 202.59217,318.85239 L 207.35462,318.07972 L 208.19754,318.07972 z M 220.56025,318.47308 L 224.22692,318.47308 L 221.47341,324.44371 C 220.98638,325.51141 220.55556,326.36837 220.18094,327.01459 C 220.22776,328.51311 220.71009,329.26236 221.62794,329.26236 C 222.5083,329.26236 222.94849,328.79408 222.94851,327.85751 L 223.60879,327.85751 C 223.60877,330.28322 222.92039,331.49608 221.54365,331.49608 C 220.28864,331.49608 219.61431,330.33474 219.52066,328.01204 C 217.93785,330.33474 215.91954,331.49608 213.46574,331.49608 C 212.31375,331.49608 211.36313,331.07931 210.61388,330.24576 C 209.86462,329.41222 209.49,328.34453 209.49,327.04269 C 209.49,325.60975 209.94189,324.13465 210.84568,322.6174 C 211.74947,321.10017 212.78906,319.96458 213.96446,319.21063 C 215.13985,318.4567 216.25671,318.07973 217.31504,318.07972 C 218.5513,318.07973 219.28651,318.99289 219.52066,320.81918 L 220.56025,318.47308 z M 218.93062,322.13975 C 218.93061,320.30408 218.45296,319.38624 217.49767,319.38623 C 216.45807,319.38624 215.37633,320.45159 214.25245,322.58228 C 213.12857,324.71298 212.56662,326.62124 212.56663,328.30706 C 212.56662,329.74938 212.96467,330.47054 213.76076,330.47054 C 214.18221,330.47054 214.62005,330.18254 215.07429,329.60655 C 215.52852,329.03056 216.1771,327.86688 217.02002,326.11549 L 218.93062,322.13975 z M 236.84253,324.10655 C 236.12137,323.93797 235.51494,323.59612 235.02324,323.081 C 234.53154,322.5659 234.28569,322.00864 234.2857,321.40922 C 234.28569,320.4633 234.73291,319.6719 235.62733,319.03502 C 236.52175,318.39816 237.76036,318.07973 239.34317,318.07972 C 240.79485,318.07973 241.89766,318.33729 242.65161,318.85239 C 243.40553,319.36751 243.7825,319.93882 243.78251,320.56631 C 243.7825,320.93158 243.65138,321.26172 243.38916,321.55673 C 243.1269,321.85176 242.78506,321.99927 242.36361,321.99926 C 241.56752,321.99927 241.1367,321.53567 241.07114,320.60846 C 240.99621,319.44712 240.52793,318.86645 239.66629,318.86644 C 238.8983,318.86645 238.28718,319.26917 237.83295,320.07461 C 237.37871,320.88007 237.15159,321.65274 237.1516,322.39262 C 237.15159,322.80472 237.29442,323.15828 237.58008,323.45329 C 237.86573,323.74831 238.22397,323.89582 238.65479,323.89582 C 238.8421,323.89582 239.20268,323.82558 239.73653,323.68509 C 240.0175,323.61017 240.22822,323.57271 240.36872,323.5727 C 240.77143,323.57271 240.9728,323.75066 240.97281,324.10655 C 240.9728,324.48118 240.77143,324.66849 240.36872,324.66849 C 240.28442,324.66849 240.16735,324.65913 240.0175,324.64039 C 239.59604,324.56547 239.28229,324.52801 239.07625,324.528 C 238.05538,324.52801 237.23589,324.94946 236.61776,325.79237 C 235.99961,326.63529 235.69055,327.64678 235.69055,328.82686 C 235.69055,330.09123 236.21971,330.72341 237.27804,330.72341 C 237.82124,330.72341 238.22631,330.59932 238.49324,330.35112 C 238.76015,330.10293 238.96386,329.70255 239.10435,329.14997 C 239.44151,327.77322 240.06901,327.08484 240.98685,327.08484 C 241.36147,327.08484 241.68225,327.21128 241.94918,327.46415 C 242.21609,327.71703 242.34955,328.04482 242.34956,328.44755 C 242.34955,329.253 241.85551,329.96245 240.86744,330.5759 C 239.87935,331.18935 238.57986,331.49608 236.96897,331.49608 C 235.35807,331.49608 234.14755,331.17062 233.33742,330.51971 C 232.52729,329.86879 232.12222,329.07037 232.12222,328.12443 C 232.12222,325.93286 233.69566,324.59357 236.84253,324.10655 L 236.84253,324.10655 z M 240.27038,311.61739 L 244.59733,311.61739 L 239.86297,316.53438 L 238.5986,316.53438 L 240.27038,311.61739 z M 247.64585,331.49608 L 247.1401,331.49608 C 247.1682,330.72809 247.18225,330.14742 247.18225,329.75406 C 247.18225,328.68637 247.1003,327.14338 246.9364,325.12506 C 246.7725,323.10676 246.58752,321.76045 246.38148,321.08611 C 246.22226,320.58974 246.01153,320.22916 245.7493,320.00437 C 245.57135,319.85453 245.34189,319.7796 245.06092,319.77959 C 244.9017,319.7796 244.7097,319.79833 244.48493,319.83579 L 244.48493,319.33004 L 249.16309,318.07972 C 250.09966,320.63656 250.55389,323.90987 250.5258,327.89965 C 251.90255,326.58846 252.85083,325.52545 253.37063,324.71063 C 253.89042,323.89582 254.15032,323.21681 254.15033,322.67359 C 254.15032,322.24278 253.98876,321.80493 253.66565,321.36005 C 253.34253,320.91519 253.14117,320.5991 253.06157,320.41178 C 252.98195,320.22447 252.94214,320.01843 252.94215,319.79364 C 252.94214,319.30664 253.10136,318.89923 253.4198,318.57142 C 253.73823,318.24363 254.14095,318.07973 254.62798,318.07972 C 255.14308,318.07973 255.54112,318.24363 255.82211,318.57142 C 256.21545,319.03035 256.41213,319.57356 256.41215,320.20105 C 256.41213,320.84729 256.2974,321.48182 256.06796,322.10463 C 255.83848,322.72745 255.44512,323.46266 254.88788,324.31025 C 254.33061,325.15785 253.71013,325.92818 253.02644,326.62124 C 251.77143,327.89497 249.9779,329.51992 247.64585,331.49608 L 247.64585,331.49608 z M 268.21293,318.47308 L 271.8796,318.47308 L 269.12609,324.44371 C 268.63906,325.51141 268.20824,326.36837 267.83362,327.01459 C 267.88044,328.51311 268.36277,329.26236 269.28062,329.26236 C 270.16098,329.26236 270.60117,328.79408 270.60119,327.85751 L 271.26147,327.85751 C 271.26145,330.28322 270.57307,331.49608 269.19633,331.49608 C 267.94132,331.49608 267.26699,330.33474 267.17334,328.01204 C 265.59053,330.33474 263.57222,331.49608 261.11842,331.49608 C 259.96643,331.49608 259.01581,331.07931 258.26656,330.24576 C 257.5173,329.41222 257.14268,328.34453 257.14268,327.04269 C 257.14268,325.60975 257.59457,324.13465 258.49836,322.6174 C 259.40215,321.10017 260.44174,319.96458 261.61714,319.21063 C 262.79253,318.4567 263.90939,318.07973 264.96772,318.07972 C 266.20398,318.07973 266.93919,318.99289 267.17334,320.81918 L 268.21293,318.47308 z M 266.5833,322.13975 C 266.58329,320.30408 266.10564,319.38624 265.15035,319.38623 C 264.11075,319.38624 263.02901,320.45159 261.90513,322.58228 C 260.78125,324.71298 260.2193,326.62124 260.21931,328.30706 C 260.2193,329.74938 260.61735,330.47054 261.41343,330.47054 C 261.83489,330.47054 262.27273,330.18254 262.72697,329.60655 C 263.1812,329.03056 263.82978,327.86688 264.6727,326.11549 L 266.5833,322.13975 z M 276.30489,331.49608 L 275.79915,331.49608 C 275.82724,330.72809 275.84129,330.14742 275.84129,329.75406 C 275.84129,328.68637 275.75934,327.14338 275.59544,325.12506 C 275.43154,323.10676 275.24657,321.76045 275.04052,321.08611 C 274.8813,320.58974 274.67058,320.22916 274.40834,320.00437 C 274.23039,319.85453 274.00093,319.7796 273.71996,319.77959 C 273.56074,319.7796 273.36875,319.79833 273.14397,319.83579 L 273.14397,319.33004 L 277.82214,318.07972 C 278.7587,320.63656 279.21294,323.90987 279.18485,327.89965 C 280.5616,326.58846 281.50987,325.52545 282.02968,324.71063 C 282.54946,323.89582 282.80936,323.21681 282.80937,322.67359 C 282.80936,322.24278 282.6478,321.80493 282.3247,321.36005 C 282.00157,320.91519 281.80021,320.5991 281.72061,320.41178 C 281.64099,320.22447 281.60119,320.01843 281.6012,319.79364 C 281.60119,319.30664 281.7604,318.89923 282.07885,318.57142 C 282.39727,318.24363 282.8,318.07973 283.28702,318.07972 C 283.80212,318.07973 284.20017,318.24363 284.48115,318.57142 C 284.8745,319.03035 285.07117,319.57356 285.07119,320.20105 C 285.07117,320.84729 284.95645,321.48182 284.727,322.10463 C 284.49753,322.72745 284.10417,323.46266 283.54692,324.31025 C 282.98965,325.15785 282.36917,325.92818 281.68549,326.62124 C 280.43048,327.89497 278.63695,329.51992 276.30489,331.49608 L 276.30489,331.49608 z M 304.06483,318.47308 L 307.7315,318.47308 L 304.97799,324.44371 C 304.49096,325.51141 304.06014,326.36837 303.68552,327.01459 C 303.73234,328.51311 304.21467,329.26236 305.13252,329.26236 C 306.01288,329.26236 306.45307,328.79408 306.45308,327.85751 L 307.11337,327.85751 C 307.11335,330.28322 306.42497,331.49608 305.04823,331.49608 C 303.79321,331.49608 303.11888,330.33474 303.02524,328.01204 C 301.44243,330.33474 299.42412,331.49608 296.97031,331.49608 C 295.81833,331.49608 294.86771,331.07931 294.11846,330.24576 C 293.3692,329.41222 292.99457,328.34453 292.99457,327.04269 C 292.99457,325.60975 293.44647,324.13465 294.35026,322.6174 C 295.25405,321.10017 296.29364,319.96458 297.46904,319.21063 C 298.64443,318.4567 299.76128,318.07973 300.81962,318.07972 C 302.05588,318.07973 302.79108,318.99289 303.02524,320.81918 L 304.06483,318.47308 z M 302.4352,322.13975 C 302.43519,320.30408 301.95754,319.38624 301.00225,319.38623 C 299.96265,319.38624 298.88091,320.45159 297.75703,322.58228 C 296.63314,324.71298 296.0712,326.62124 296.07121,328.30706 C 296.0712,329.74938 296.46924,330.47054 297.26533,330.47054 C 297.68678,330.47054 298.12463,330.18254 298.57887,329.60655 C 299.0331,329.03056 299.68168,327.86688 300.5246,326.11549 L 302.4352,322.13975 z M 312.15679,331.49608 L 311.65104,331.49608 C 311.67914,330.72809 311.69319,330.14742 311.69319,329.75406 C 311.69319,328.68637 311.61124,327.14338 311.44734,325.12506 C 311.28344,323.10676 311.09846,321.76045 310.89242,321.08611 C 310.7332,320.58974 310.52247,320.22916 310.26024,320.00437 C 310.08229,319.85453 309.85283,319.7796 309.57186,319.77959 C 309.41264,319.7796 309.22064,319.79833 308.99587,319.83579 L 308.99587,319.33004 L 313.67403,318.07972 C 314.6106,320.63656 315.06483,323.90987 315.03674,327.89965 C 316.41349,326.58846 317.36177,325.52545 317.88157,324.71063 C 318.40136,323.89582 318.66126,323.21681 318.66127,322.67359 C 318.66126,322.24278 318.4997,321.80493 318.17659,321.36005 C 317.85347,320.91519 317.65211,320.5991 317.57251,320.41178 C 317.49289,320.22447 317.45308,320.01843 317.45309,319.79364 C 317.45308,319.30664 317.6123,318.89923 317.93074,318.57142 C 318.24917,318.24363 318.65189,318.07973 319.13892,318.07972 C 319.65402,318.07973 320.05206,318.24363 320.33305,318.57142 C 320.72639,319.03035 320.92307,319.57356 320.92309,320.20105 C 320.92307,320.84729 320.80834,321.48182 320.5789,322.10463 C 320.34942,322.72745 319.95607,323.46266 319.39882,324.31025 C 318.84155,325.15785 318.22107,325.92818 317.53739,326.62124 C 316.28237,327.89497 314.48884,329.51992 312.15679,331.49608 L 312.15679,331.49608 z M 330.40585,318.07972 C 331.14573,318.07973 331.84113,318.25065 332.49206,318.59249 C 333.14296,318.93435 333.63466,319.40966 333.96715,320.01842 C 334.29962,320.6272 334.46586,321.30153 334.46588,322.04141 C 334.46586,323.55866 334.04207,325.0759 333.19448,326.59314 C 332.34688,328.11038 331.23002,329.30685 329.8439,330.18254 C 328.45777,331.05824 327.06229,331.49608 325.65744,331.49608 C 324.3837,331.49608 323.39796,331.11677 322.70022,330.35815 C 322.00247,329.59953 321.6536,328.67233 321.6536,327.57654 C 321.6536,326.27471 321.9135,325.05483 322.4333,323.91689 C 322.95309,322.77897 323.61337,321.7862 324.41414,320.9386 C 325.2149,320.09101 326.13508,319.40263 327.17468,318.87346 C 328.21427,318.34431 329.29132,318.07973 330.40585,318.07972 L 330.40585,318.07972 z M 329.82986,318.82429 C 329.33347,318.8243 328.92138,318.96947 328.59358,319.2598 C 327.93798,319.84985 327.19809,321.22894 326.37391,323.39709 C 325.54973,325.56526 325.13764,327.52035 325.13764,329.26236 C 325.13764,329.69319 325.26876,330.04908 325.531,330.33005 C 325.79324,330.61102 326.1023,330.75151 326.4582,330.75151 C 326.82346,330.75151 327.14658,330.63912 327.42755,330.41434 C 327.83964,330.07718 328.34539,329.3209 328.9448,328.1455 C 329.54419,326.97011 330.03589,325.67296 330.4199,324.25405 C 330.80388,322.83516 330.99588,321.53567 330.99589,320.35558 C 330.99588,319.86858 330.8788,319.49161 330.64467,319.22467 C 330.41052,318.95776 330.13892,318.8243 329.82986,318.82429 L 329.82986,318.82429 z M 342.72642,318.07972 L 339.84647,328.06824 C 339.68725,328.63955 339.60764,329.01417 339.60764,329.19212 C 339.60764,329.29514 339.64979,329.39114 339.73408,329.48011 C 339.81837,329.56909 339.90734,329.61358 340.001,329.61358 C 340.16022,329.61358 340.31943,329.54333 340.47865,329.40285 C 340.90011,329.05632 341.40585,328.42882 341.9959,327.52034 L 342.47355,327.80131 C 341.05932,330.26449 339.55613,331.49608 337.96396,331.49608 C 337.35519,331.49608 336.87052,331.32516 336.50994,330.98331 C 336.14936,330.64146 335.96907,330.2083 335.96907,329.68382 C 335.96907,329.33729 336.04868,328.8971 336.2079,328.36326 L 338.16064,321.64805 C 338.34795,321.00183 338.44161,320.51481 338.44161,320.187 C 338.44161,319.98097 338.35264,319.79833 338.17469,319.63911 C 337.99674,319.4799 337.75323,319.40029 337.44417,319.40028 C 337.30368,319.40029 337.1351,319.40498 336.93842,319.41433 L 337.12105,318.85239 L 341.88351,318.07972 L 342.72642,318.07972 z M 353.82478,318.47308 L 357.67409,318.47308 L 350.04572,329.34665 C 350.20493,331.42584 350.47654,332.8705 350.86054,333.68063 C 351.24453,334.49076 351.80647,334.89583 352.54637,334.89583 C 353.28625,334.89583 353.80136,334.48842 354.09171,333.67361 L 354.6115,333.67361 C 354.37735,335.92137 353.52507,337.04525 352.05467,337.04526 C 351.06189,337.04525 350.38288,336.47395 350.01763,335.33134 C 349.65236,334.18872 349.43226,332.50289 349.35735,330.27386 L 344.81966,336.66595 L 340.85797,336.66595 L 349.11852,325.0197 C 348.9031,322.92179 348.61277,321.58016 348.24751,320.99479 C 347.88224,320.40945 347.36245,320.11677 346.68812,320.11676 C 345.97633,320.11677 345.47526,320.50544 345.18493,321.28279 L 344.58084,321.28279 C 344.99293,319.14742 345.88735,318.07973 347.26411,318.07972 C 347.85415,318.07973 348.34584,318.27407 348.73921,318.66273 C 349.13256,319.05142 349.38309,319.55717 349.49081,320.17998 C 349.59851,320.80281 349.70387,322.09761 349.8069,324.0644 L 353.82478,318.47308 z M 365.24624,321.50756 L 363.91163,325.31472 C 363.52763,326.40115 363.33563,327.23001 363.33564,327.80131 C 363.33563,328.69106 363.71026,329.13593 364.45952,329.13593 C 365.16194,329.13593 365.68642,328.71447 366.03296,327.87156 L 366.67919,327.87156 C 365.86437,330.28791 364.6281,331.49608 362.97038,331.49608 C 360.98484,331.49608 359.99208,330.68127 359.99208,329.05163 C 359.99208,328.1338 360.2871,326.93967 360.87714,325.46925 L 362.43653,321.50756 L 361.03168,321.50756 C 360.07637,321.50757 359.37395,321.60123 358.92439,321.78853 C 358.47484,321.97586 358.09553,322.35049 357.78646,322.91242 L 357.4212,322.74384 C 357.73027,321.73235 358.10255,320.8988 358.53806,320.24319 C 358.97356,319.58761 359.44887,319.12869 359.96399,318.86644 C 360.4791,318.60421 361.08787,318.47309 361.7903,318.47308 L 370.17728,318.47308 L 369.34842,321.50756 L 365.24624,321.50756 z M 378.90145,318.07972 C 379.64133,318.07973 380.33673,318.25065 380.98766,318.59249 C 381.63857,318.93435 382.13026,319.40966 382.46276,320.01842 C 382.79523,320.6272 382.96147,321.30153 382.96148,322.04141 C 382.96147,323.55866 382.53767,325.0759 381.69009,326.59314 C 380.84248,328.11038 379.72562,329.30685 378.33951,330.18254 C 376.95338,331.05824 375.55789,331.49608 374.15304,331.49608 C 372.8793,331.49608 371.89357,331.11677 371.19582,330.35815 C 370.49808,329.59953 370.14921,328.67233 370.14921,327.57654 C 370.14921,326.27471 370.4091,325.05483 370.9289,323.91689 C 371.4487,322.77897 372.10898,321.7862 372.90975,320.9386 C 373.71051,320.09101 374.63069,319.40263 375.67029,318.87346 C 376.70987,318.34431 377.78693,318.07973 378.90145,318.07972 L 378.90145,318.07972 z M 378.32546,318.82429 C 377.82907,318.8243 377.41698,318.96947 377.08919,319.2598 C 376.43358,319.84985 375.69369,321.22894 374.86952,323.39709 C 374.04533,325.56526 373.63324,327.52035 373.63325,329.26236 C 373.63324,329.69319 373.76436,330.04908 374.02661,330.33005 C 374.28884,330.61102 374.59791,330.75151 374.95381,330.75151 C 375.31907,330.75151 375.64218,330.63912 375.92316,330.41434 C 376.33524,330.07718 376.84099,329.3209 377.4404,328.1455 C 378.0398,326.97011 378.5315,325.67296 378.9155,324.25405 C 379.29948,322.83516 379.49148,321.53567 379.49149,320.35558 C 379.49148,319.86858 379.37441,319.49161 379.14028,319.22467 C 378.90613,318.95776 378.63452,318.8243 378.32546,318.82429 L 378.32546,318.82429 z M 379.18242,311.61739 L 383.50938,311.61739 L 378.77502,316.53438 L 377.51065,316.53438 L 379.18242,311.61739 z M 396.72904,324.90731 L 400.31142,321.6621 L 403.14923,319.07716 C 403.85164,318.41221 404.53534,318.07973 405.20032,318.07972 C 405.65922,318.07973 406.02448,318.22724 406.2961,318.52225 C 406.56769,318.81728 406.7035,319.21298 406.70351,319.70935 C 406.7035,320.77705 406.20711,321.31089 405.21437,321.31088 C 404.7929,321.31089 404.3808,321.13295 403.97809,320.77704 C 403.74394,320.56164 403.52853,320.45393 403.33186,320.45392 C 402.99468,320.45393 402.57791,320.68339 402.08154,321.1423 C 401.82865,321.37645 401.41656,321.73703 400.84527,322.22404 L 401.71628,326.07334 C 401.98787,327.30962 402.18923,328.08697 402.32036,328.4054 C 402.45147,328.72384 402.62474,328.88305 402.84016,328.88305 C 403.00873,328.88305 403.17731,328.79408 403.34591,328.61613 C 403.51448,328.43818 403.81418,327.998 404.24502,327.29557 L 404.76481,327.61868 C 404.31525,328.50843 403.70648,329.349 402.9385,330.1404 C 402.1705,330.9318 401.45871,331.3275 400.80312,331.3275 C 400.24117,331.3275 399.81269,331.12379 399.51768,330.71639 C 399.22265,330.30898 398.92997,329.43563 398.63964,328.09633 L 397.93722,324.90731 L 396.39188,326.28407 L 394.98702,331.10272 L 391.40464,331.10272 L 394.14411,321.77449 C 394.35015,321.0908 394.45317,320.5991 394.45318,320.29939 C 394.45317,319.72809 394.11601,319.44244 393.44168,319.44243 C 393.30119,319.44244 393.13729,319.4518 392.94998,319.47052 L 393.13261,318.89453 L 397.90912,318.07972 L 398.75203,318.07972 L 396.72904,324.90731 z M 415.70864,318.07972 C 416.44852,318.07973 417.14392,318.25065 417.79485,318.59249 C 418.44576,318.93435 418.93745,319.40966 419.26995,320.01842 C 419.60242,320.6272 419.76866,321.30153 419.76867,322.04141 C 419.76866,323.55866 419.34486,325.0759 418.49728,326.59314 C 417.64967,328.11038 416.53281,329.30685 415.1467,330.18254 C 413.76057,331.05824 412.36508,331.49608 410.96023,331.49608 C 409.68649,331.49608 408.70076,331.11677 408.00301,330.35815 C 407.30527,329.59953 406.9564,328.67233 406.9564,327.57654 C 406.9564,326.27471 407.21629,325.05483 407.73609,323.91689 C 408.25589,322.77897 408.91617,321.7862 409.71694,320.9386 C 410.5177,320.09101 411.43788,319.40263 412.47748,318.87346 C 413.51706,318.34431 414.59412,318.07973 415.70864,318.07972 L 415.70864,318.07972 z M 415.13265,318.82429 C 414.63626,318.8243 414.22417,318.96947 413.89638,319.2598 C 413.24077,319.84985 412.50088,321.22894 411.67671,323.39709 C 410.85252,325.56526 410.44043,327.52035 410.44044,329.26236 C 410.44043,329.69319 410.57155,330.04908 410.8338,330.33005 C 411.09603,330.61102 411.4051,330.75151 411.761,330.75151 C 412.12626,330.75151 412.44937,330.63912 412.73035,330.41434 C 413.14243,330.07718 413.64818,329.3209 414.24759,328.1455 C 414.84699,326.97011 415.33869,325.67296 415.72269,324.25405 C 416.10667,322.83516 416.29867,321.53567 416.29868,320.35558 C 416.29867,319.86858 416.1816,319.49161 415.94747,319.22467 C 415.71332,318.95776 415.44171,318.8243 415.13265,318.82429 L 415.13265,318.82429 z M 415.98961,311.61739 L 420.31657,311.61739 L 415.58221,316.53438 L 414.31784,316.53438 L 415.98961,311.61739 z M 436.86575,318.47308 L 435.99474,321.50756 L 431.19014,321.50756 C 432.74483,322.88433 433.52219,324.20957 433.5222,325.4833 C 433.52219,327.00992 432.86191,328.3937 431.54135,329.63465 C 430.22078,330.8756 428.5771,331.49608 426.61031,331.49608 C 424.99941,331.49608 423.75611,331.00204 422.88042,330.01396 C 422.00473,329.02588 421.56688,327.78259 421.56689,326.28407 C 421.56688,324.7762 422.07263,323.35261 423.08413,322.01331 C 424.09562,320.67403 425.23589,319.74916 426.50495,319.23872 C 427.77399,318.7283 429.49494,318.47309 431.66779,318.47308 L 436.86575,318.47308 z M 430.41747,321.50756 C 429.27485,321.50757 428.32189,321.72064 427.55859,322.14677 C 426.79528,322.57292 426.0952,323.37603 425.45833,324.5561 C 424.82146,325.73618 424.50303,326.96309 424.50303,328.23682 C 424.50303,329.01417 424.66459,329.61358 424.98771,330.03503 C 425.31082,330.45649 425.7393,330.66722 426.27315,330.66722 C 427.34083,330.66722 428.34062,329.7564 429.27251,327.93477 C 430.20439,326.11315 430.67033,324.42967 430.67034,322.88432 C 430.67033,322.47224 430.58604,322.01332 430.41747,321.50756 L 430.41747,321.50756 z M 440.20932,318.47308 L 443.8198,318.47308 L 441.16463,327.74512 C 441.04287,328.17594 440.98199,328.47096 440.98199,328.63018 C 440.98199,328.86432 441.13184,328.98139 441.43155,328.98139 C 442.06841,328.98139 442.81532,328.49906 443.67229,327.53439 C 444.52924,326.56973 445.31362,325.38029 446.02542,323.96606 L 447.61291,318.47308 L 451.1391,318.47308 L 448.44177,327.78726 C 448.22635,328.51779 448.11865,328.97203 448.11866,329.14997 C 448.11865,329.36539 448.22167,329.47309 448.42773,329.47309 C 448.78361,329.47309 449.35492,328.86901 450.14165,327.66083 L 450.6193,327.99799 C 449.32682,330.33005 447.88919,331.49608 446.30639,331.49608 C 445.77254,331.49608 445.33001,331.3556 444.97881,331.07463 C 444.62758,330.79365 444.45198,330.4003 444.45199,329.89455 C 444.45198,329.37944 444.56905,328.73789 444.8032,327.9699 L 445.21061,326.66338 C 443.10332,329.88518 441.21613,331.49608 439.54904,331.49608 C 438.90281,331.49608 438.45325,331.29004 438.20038,330.87795 C 437.88195,332.33899 437.68058,333.68765 437.59629,334.92393 C 437.54946,335.62635 437.49327,336.09932 437.42771,336.34283 C 437.36215,336.58633 437.20059,336.80877 436.94304,337.01014 C 436.68548,337.21149 436.3647,337.31217 435.98071,337.31218 C 435.52179,337.31217 435.14014,337.17403 434.83575,336.89775 C 434.53137,336.62145 434.37918,336.30068 434.37918,335.93542 C 434.37918,335.52333 434.6742,334.75534 435.26424,333.63146 C 436.14461,331.96437 436.91728,329.97416 437.58225,327.66083 L 440.20932,318.47308 z M 461.61929,318.07972 C 462.35917,318.07973 463.05457,318.25065 463.7055,318.59249 C 464.3564,318.93435 464.8481,319.40966 465.18059,320.01842 C 465.51306,320.6272 465.6793,321.30153 465.67932,322.04141 C 465.6793,323.55866 465.25551,325.0759 464.40792,326.59314 C 463.56032,328.11038 462.44346,329.30685 461.05734,330.18254 C 459.67121,331.05824 458.27573,331.49608 456.87088,331.49608 C 455.59714,331.49608 454.6114,331.11677 453.91366,330.35815 C 453.21591,329.59953 452.86704,328.67233 452.86704,327.57654 C 452.86704,326.27471 453.12694,325.05483 453.64674,323.91689 C 454.16653,322.77897 454.82681,321.7862 455.62758,320.9386 C 456.42834,320.09101 457.34852,319.40263 458.38812,318.87346 C 459.42771,318.34431 460.50476,318.07973 461.61929,318.07972 L 461.61929,318.07972 z M 461.0433,318.82429 C 460.54691,318.8243 460.13482,318.96947 459.80702,319.2598 C 459.15142,319.84985 458.41153,321.22894 457.58735,323.39709 C 456.76317,325.56526 456.35108,327.52035 456.35108,329.26236 C 456.35108,329.69319 456.4822,330.04908 456.74444,330.33005 C 457.00668,330.61102 457.31574,330.75151 457.67164,330.75151 C 458.0369,330.75151 458.36002,330.63912 458.64099,330.41434 C 459.05308,330.07718 459.55883,329.3209 460.15824,328.1455 C 460.75763,326.97011 461.24933,325.67296 461.63334,324.25405 C 462.01732,322.83516 462.20932,321.53567 462.20933,320.35558 C 462.20932,319.86858 462.09224,319.49161 461.85811,319.22467 C 461.62396,318.95776 461.35236,318.8243 461.0433,318.82429 L 461.0433,318.82429 z "
     id="text1894" />
</svg>
