<?xml version="1.0" encoding="UTF-8" standalone="no"?>
<!-- Created with Inkscape (http://www.inkscape.org/) -->
<svg
   xmlns:ns="http://creativecommons.org/ns#"
   xmlns:dc="http://purl.org/dc/elements/1.1/"
   xmlns:cc="http://web.resource.org/cc/"
   xmlns:rdf="http://www.w3.org/1999/02/22-rdf-syntax-ns#"
   xmlns:svg="http://www.w3.org/2000/svg"
   xmlns="http://www.w3.org/2000/svg"
   xmlns:sodipodi="http://sodipodi.sourceforge.net/DTD/sodipodi-0.dtd"
   xmlns:inkscape="http://www.inkscape.org/namespaces/inkscape"
   version="1.0"
   width="400"
   height="430"
   id="svg2728"
   sodipodi:version="0.32"
   inkscape:version="0.45.1"
   sodipodi:docname="Wikibooks-logo-ru-text.svg"
   inkscape:output_extension="org.inkscape.output.svg.inkscape"
   sodipodi:docbase="C:\Documents and Settings\Tech U\Desktop">
  <metadata
     id="metadata18">
    <rdf:RDF>
      <ns:Work
         rdf:about="">
        <dc:format>image/svg+xml</dc:format>
        <dc:type
           rdf:resource="http://purl.org/dc/dcmitype/StillImage" />
      </ns:Work>
      <cc:Work
         rdf:about="">
        <dc:format>image/svg+xml</dc:format>
        <dc:type
           rdf:resource="http://purl.org/dc/dcmitype/StillImage" />
      </cc:Work>
    </rdf:RDF>
  </metadata>
  <sodipodi:namedview
     inkscape:window-height="927"
     inkscape:window-width="1280"
     inkscape:pageshadow="2"
     inkscape:pageopacity="0.0"
     guidetolerance="10.0"
     gridtolerance="10.0"
     objecttolerance="10.0"
     borderopacity="1.0"
     bordercolor="#666666"
     pagecolor="#ffffff"
     id="base"
     showgrid="false"
     inkscape:zoom="1.245"
     inkscape:cx="173.56606"
     inkscape:cy="167.87149"
     inkscape:window-x="0"
     inkscape:window-y="35"
     inkscape:current-layer="svg2728" />
  <defs
     id="defs2731">
    <inkscape:perspective
       sodipodi:type="inkscape:persp3d"
       inkscape:vp_x="0 : 200 : 1"
       inkscape:vp_y="0 : 1000 : 0"
       inkscape:vp_z="400 : 200 : 1"
       inkscape:persp3d-origin="200 : 133.33333 : 1"
       id="perspective20" />
  </defs>
  <g
     id="layer1" />
  <g
     id="g3189">
    <g
       id="g3177">
      <path
         id="path3297"
         style="fill:#fdfcf8;fill-opacity:1;fill-rule:evenodd;stroke:none;stroke-width:1px;stroke-linecap:butt;stroke-linejoin:miter;stroke-opacity:1"
         d="M 191.65664,115.97593 C 196.93351,182.00184 208.45394,245.91983 242.85479,307.46513 L 255.86467,307.56221 L 338.15581,234.14292 L 259.72068,35.943307 L 203.18059,89.951746 L 191.65664,115.97593 z" />
      <path
         d="M 263.32723,16.5 C 236.14031,42.801966 209.26473,68.875 209.26473,68.875 C 209.26473,68.875 218.92098,88.53125 218.92098,88.53125 C 232.01455,75.550025 245.18226,64.133911 257.73348,51.4375 C 284.16674,109.4727 302.17756,156.24917 324.33191,218.08448 C 331.58462,238.17246 330.10582,239.07126 312.76941,249.92823 C 284.91465,263.77995 276.0966,272.86547 242.89833,308.1875 L 265.61708,308.1875 C 293.37052,283.09599 303.67261,274.24081 338.42566,255.92823 C 350.71955,248.83035 352.40523,239.86966 347.36316,225.92823 C 331.10198,180.73146 295.87208,83.322614 263.32723,16.5 z"
         style="fill:#5f96d3;fill-opacity:1"
         id="path3272" />
    </g>
    <g
       id="g3181">
      <path
         id="path3214"
         style="fill:#f4eed7;fill-rule:evenodd;stroke:none;stroke-width:1px;stroke-linecap:butt;stroke-linejoin:miter;stroke-opacity:1"
         d="M 125.84082,116.04509 C 131.11769,182.071 144.61911,246.8316 179.01996,308.3769 L 199.35471,308.55962 L 261.32293,230.84125 L 193.90486,36.012472 L 137.36477,90.020911 L 125.84082,116.04509 z" />
      <path
         d="M 192.45223,17.125 C 172.56466,30.549352 157.22356,49.869448 139.92098,66.4375 C 139.92098,66.4375 147.01473,89.0625 147.01473,89.0625 C 160.5559,78.391834 172.3403,65.526043 184.51473,53.34375 L 250.17098,218.03125 C 253.95672,229.18194 247.99456,239.10365 236.01473,249.90625 C 221.66549,261.43896 192.12216,288.32681 178.73348,308.8125 L 199.10848,308.8125 C 220.49313,286.84657 224.35368,283.86504 248.70223,262.78125 C 265.04857,246.10281 279.81623,237.56053 272.10848,216.1875 L 192.45223,17.125 z"
         style="fill:#2a62a1;fill-opacity:1;fill-rule:evenodd;stroke:none;stroke-width:22;stroke-linecap:round;stroke-linejoin:miter;stroke-miterlimit:4;stroke-dasharray:none;stroke-opacity:1"
         id="path3138" />
    </g>
    <g
       id="g3185">
      <path
         id="path2238"
         style="fill:#e9ddaf;fill-rule:evenodd;stroke:none;stroke-width:1px;stroke-linecap:butt;stroke-linejoin:miter;stroke-opacity:1"
         d="M 50.218883,114.63177 C 55.595535,183.91551 77.233973,245.97178 102.67801,306.33668 L 129.48015,306.00572 L 199.88087,225.96804 L 118.28293,34.599156 L 61.742841,88.607595 L 50.218883,114.63177 z" />
      <path
         d="M 125.32723,16.0625 C 120.02588,17.841698 115.61512,21.260515 111.48348,24.875 C 55.394922,78.847012 53.13973,81.125 53.13973,81.125 C 50.188265,83.867742 49.941746,87.87735 49.98348,91.90625 L 50.218884,114.63177 C 50.218884,114.63177 76.123108,89.450054 114.79598,52.21875 C 135.6144,106.45643 157.3415,160.40524 178.73348,214.4375 C 181.66298,222.60083 174.65125,229.2909 165.76473,238.21875 C 153.49118,250.19233 127.82007,274.84011 101.54598,307.75 L 127.88973,307.75 C 127.88973,307.75 191.20222,238.3125 191.20223,238.3125 C 197.22151,230.03457 204.70542,221.9413 201.54598,214.4375 C 201.54598,214.4375 125.32723,16.062501 125.32723,16.0625 z"
         style="fill:#15304f;fill-opacity:1;fill-rule:evenodd;stroke:none;stroke-width:22;stroke-linecap:round;stroke-linejoin:miter;stroke-miterlimit:4;stroke-dasharray:none;stroke-opacity:1"
         id="path3136" />
    </g>
  </g>
  <text
     xml:space="preserve"
     style="font-style:normal;font-variant:normal;font-weight:bold;font-stretch:normal;fill:#000000;fill-opacity:1;stroke:none;stroke-width:1px;stroke-linecap:butt;stroke-linejoin:miter;stroke-opacity:1;font-family:DejaVu Sans"
     x="15.261"
     y="175.90401"
     id="text2416"><tspan
       sodipodi:role="line"
       id="tspan2418"
       x="15.261"
       y="175.90401" /></text>
  <path
     style="font-size:45px;font-style:normal;font-variant:normal;font-weight:bold;font-stretch:semi-condensed;text-align:start;line-height:125%;writing-mode:lr-tb;text-anchor:start;fill:#0b2645;fill-opacity:1;stroke:none;stroke-width:1px;stroke-linecap:butt;stroke-linejoin:miter;stroke-opacity:1;font-family:DejaVu Sans"
     d="M 18.478313,336.9151 C 19.811302,336.91512 20.822044,336.62215 21.51054,336.03619 C 22.198995,335.45028 22.543233,334.58602 22.543255,333.44342 C 22.543233,332.31552 22.198995,331.45492 21.51054,330.86163 C 20.822044,330.2684 19.811302,329.97177 18.478313,329.97174 L 13.798137,329.97174 L 13.798137,336.9151 L 18.478313,336.9151 z M 18.763958,351.26324 C 20.463157,351.26325 21.741232,350.90436 22.598186,350.18658 C 23.455098,349.46882 23.883564,348.38484 23.883587,346.93463 C 23.883564,345.51374 23.45876,344.44807 22.609173,343.73761 C 21.759543,343.02717 20.477806,342.67195 18.763958,342.67194 L 13.798137,342.67194 L 13.798137,351.26324 L 18.763958,351.26324 z M 26.630169,339.46393 C 28.446548,339.99129 29.852796,340.96541 30.848919,342.38629 C 31.844982,343.8072 32.343028,345.55037 32.343059,347.61578 C 32.343028,350.77985 31.273693,353.13825 29.135051,354.69098 C 26.996354,356.24371 23.744404,357.02008 19.379192,357.02008 L 5.3386648,357.02008 L 5.3386648,324.2149 L 18.03886,324.2149 C 22.594503,324.21494 25.89406,324.90341 27.937542,326.28033 C 29.98097,327.65732 31.002697,329.8619 31.002727,332.8941 C 31.002697,334.49081 30.629163,335.84945 29.882122,336.97003 C 29.135024,338.09066 28.05104,338.92195 26.630169,339.46393 L 26.630169,339.46393 z M 69.015423,324.2149 L 69.015423,357.02008 L 60.995403,357.02008 L 60.995403,334.52008 L 49.064251,357.02008 L 39.616009,357.02008 L 39.616009,324.2149 L 47.636028,324.2149 L 47.636028,346.7149 L 59.56718,324.2149 L 69.015423,324.2149 z M 77.321087,324.2149 L 85.780559,324.2149 L 85.780559,337.75006 L 99.008098,324.2149 L 108.58818,324.2149 L 95.558391,337.50836 L 109.31327,357.02008 L 99.996868,357.02008 L 90.131145,343.04547 L 85.780559,347.48395 L 85.780559,357.02008 L 77.321087,357.02008 L 77.321087,324.2149 z M 143.54667,324.2149 L 143.54667,357.02008 L 135.52665,357.02008 L 135.52665,334.52008 L 123.5955,357.02008 L 114.14726,357.02008 L 114.14726,324.2149 L 122.16728,324.2149 L 122.16728,346.7149 L 134.09843,324.2149 L 143.54667,324.2149 z "
     id="text2622" />
  <path
     style="font-size:45px;font-style:normal;font-variant:normal;font-weight:bold;font-stretch:semi-condensed;text-align:start;line-height:125%;writing-mode:lr-tb;text-anchor:start;fill:#0a4e98;fill-opacity:1;stroke:none;stroke-width:1px;stroke-linecap:butt;stroke-linejoin:miter;stroke-opacity:1;font-family:DejaVu Sans"
     d="M 167.39125,351.57086 C 166.80529,352.81598 166.0802,353.83405 165.21596,354.62506 C 163.45813,356.22174 160.08899,357.02008 155.10854,357.02008 L 153.57045,357.02008 L 153.57045,350.62604 L 155.89955,350.62604 C 157.95032,350.62604 159.21741,350.12067 159.70082,349.10992 C 159.818,348.89021 159.92786,348.67048 160.03041,348.45074 L 148.23109,324.2149 L 157.0641,324.2149 L 164.33705,339.15631 L 171.41225,324.2149 L 180.2892,324.2149 L 167.39125,351.57086 z M 205.42592,357.02008 L 205.42592,344.49567 L 193.95619,344.49567 C 191.17298,344.49568 189.03065,343.63875 187.52919,341.92487 C 186.02772,340.21102 185.27699,337.66219 185.27699,334.27838 L 185.27699,324.2149 L 193.73647,324.2149 L 193.73647,330.25739 C 193.73645,333.71444 194.00745,335.88607 194.54945,336.77228 C 195.09143,337.65853 196.0509,338.10164 197.42787,338.10162 L 205.42592,338.10162 L 205.42592,324.2149 L 213.88539,324.2149 L 213.88539,357.02008 L 205.42592,357.02008 z M 222.16908,324.2149 L 244.99867,324.2149 L 244.99867,330.60895 L 230.62856,330.60895 L 230.62856,336.71735 L 244.14174,336.71735 L 244.14174,343.11139 L 230.62856,343.11139 L 230.62856,350.62604 L 245.48207,350.62604 L 245.48207,357.02008 L 222.16908,357.02008 L 222.16908,324.2149 z M 266.35609,351.26324 C 268.12854,351.26325 269.41027,350.93366 270.20131,350.27448 C 271.0509,349.55671 271.4757,348.51667 271.47572,347.15436 C 271.4757,345.82136 271.0509,344.8033 270.20131,344.10016 C 269.42492,343.44099 268.14318,343.1114 266.35609,343.11139 L 261.39027,343.11139 L 261.39027,351.26324 L 266.35609,351.26324 z M 266.97133,357.02008 L 252.9308,357.02008 L 252.9308,324.2149 L 277.73793,324.2149 L 277.73793,330.60895 L 261.39027,330.60895 L 261.39027,336.71735 L 266.97133,336.71735 C 271.11681,336.71737 274.36876,337.5743 276.72719,339.28815 C 278.86583,340.8409 279.93516,343.37507 279.9352,346.89069 C 279.93516,350.37702 278.86583,352.89655 276.72719,354.44928 C 274.36876,356.16315 271.11681,357.02008 266.97133,357.02008 L 266.97133,357.02008 z M 287.20815,324.2149 L 295.66762,324.2149 L 295.66762,336.71735 L 308.14809,336.71735 L 308.14809,324.2149 L 316.60756,324.2149 L 316.60756,357.02008 L 308.14809,357.02008 L 308.14809,343.11139 L 295.66762,343.11139 L 295.66762,357.02008 L 287.20815,357.02008 L 287.20815,324.2149 z M 354.31264,324.2149 L 354.31264,357.02008 L 346.29262,357.02008 L 346.29262,334.52008 L 334.36147,357.02008 L 324.91322,357.02008 L 324.91322,324.2149 L 332.93324,324.2149 L 332.93324,346.7149 L 344.8644,324.2149 L 354.31264,324.2149 z M 362.6183,324.2149 L 371.07777,324.2149 L 371.07777,337.75006 L 384.30531,324.2149 L 393.88539,324.2149 L 380.85561,337.50836 L 394.61049,357.02008 L 385.29408,357.02008 L 375.42836,343.04547 L 371.07777,347.48395 L 371.07777,357.02008 L 362.6183,357.02008 L 362.6183,324.2149 z "
     id="text2626" />
  <path
     style="font-size:28px;font-style:italic;font-variant:normal;font-weight:normal;font-stretch:normal;text-align:center;line-height:100%;writing-mode:lr-tb;text-anchor:middle;fill:#000000;fill-opacity:1;stroke:none;stroke-width:1px;stroke-linecap:butt;stroke-linejoin:miter;stroke-opacity:1;font-family:DejaVu Serif"
     d="M 76.385742,388.44498 C 78.618803,388.44498 80.45539,387.67707 81.895508,386.14127 C 83.335595,384.60546 84.347313,382.33366 84.930664,379.32584 C 85.513979,376.30892 85.386375,374.03256 84.547852,372.49673 C 83.709293,370.96095 82.173487,370.19304 79.94043,370.19302 C 77.698231,370.19304 75.857087,370.96095 74.416992,372.49673 C 72.976882,374.03256 71.965164,376.30892 71.381836,379.32584 C 70.798498,382.33366 70.926103,384.60546 71.764648,386.14127 C 72.603184,387.67707 74.143547,388.44498 76.385742,388.44498 L 76.385742,388.44498 z M 76.098633,389.90787 C 74.713208,389.90787 73.485019,389.68 72.414063,389.22427 C 71.343094,388.76855 70.452145,388.09862 69.741211,387.21451 C 68.920896,386.19368 68.387694,385.03613 68.141602,383.74185 C 67.895507,382.44759 67.931965,380.97558 68.250977,379.32584 C 68.569985,377.67611 69.103188,376.20183 69.850586,374.90298 C 70.597978,373.60417 71.582352,372.44434 72.803711,371.42349 C 73.87011,370.53028 75.023104,369.85808 76.262695,369.40689 C 77.502268,368.95574 78.823881,368.73015 80.227539,368.73013 C 83.189762,368.73015 85.39321,369.70086 86.837891,371.64224 C 88.28253,373.58366 88.694965,376.14486 88.075195,379.32584 C 87.756164,380.95736 87.218404,382.42708 86.461914,383.73502 C 85.705385,385.04296 84.721011,386.20279 83.508789,387.21451 C 82.442367,388.10774 81.289373,388.77994 80.049805,389.23111 C 78.810209,389.68228 77.493153,389.90787 76.098633,389.90787 L 76.098633,389.90787 z M 104.97363,377.80826 C 105.66633,376.74186 106.44106,375.9375 107.29785,375.39517 C 108.1546,374.85287 109.08429,374.58171 110.08691,374.5817 C 111.60903,374.58171 112.65265,375.05567 113.21777,376.00357 C 113.55499,376.56869 113.72361,377.31153 113.72363,378.23209 C 113.72361,378.83366 113.65069,379.5127 113.50488,380.2692 L 111.9873,388.06216 L 114.25684,388.06216 L 113.9834,389.51138 L 109.19824,389.51138 L 110.93457,380.5563 C 111.07127,379.84538 111.13963,379.2347 111.13965,378.72427 C 111.13963,378.15918 111.0576,377.71257 110.89355,377.38443 C 110.58364,376.75554 109.92283,376.44108 108.91113,376.44107 C 107.79002,376.44108 106.8535,376.86491 106.10156,377.71255 C 105.34959,378.56022 104.81411,379.79525 104.49512,381.41763 L 102.92285,389.51138 L 100.40723,389.51138 L 102.1709,380.4606 C 102.29849,379.77702 102.36229,379.18913 102.3623,378.69693 C 102.36229,378.13184 102.28026,377.68978 102.11621,377.37076 C 101.79719,376.75098 101.13182,376.44108 100.12012,376.44107 C 98.999014,376.44108 98.062492,376.86491 97.310547,377.71255 C 96.558587,378.56022 96.023106,379.79525 95.704102,381.41763 L 94.131836,389.51138 L 91.616211,389.51138 L 94.15918,376.41373 L 91.75293,376.41373 L 92.026367,374.97818 L 96.948242,374.97818 L 96.456055,377.56216 C 97.103183,376.59603 97.836906,375.85775 98.657227,375.34732 C 99.477529,374.83692 100.34341,374.58171 101.25488,374.5817 C 102.38508,374.58171 103.27375,374.86198 103.9209,375.42252 C 104.56802,375.98308 104.91893,376.77832 104.97363,377.80826 L 104.97363,377.80826 z M 118.19434,389.51138 L 120.7373,376.44107 L 118.33105,376.44107 L 118.61816,374.97818 L 123.54004,374.97818 L 122.26855,381.49966 C 122.29589,381.49967 122.55794,381.2832 123.05469,380.85025 C 123.55142,380.41732 123.89094,380.10514 124.07324,379.91373 L 127.49121,376.44107 C 128.69432,375.2015 129.66958,374.58171 130.41699,374.5817 C 131.16437,374.58171 132.00747,374.74122 132.94629,375.06021 L 132.48145,377.35709 L 130.85449,377.35709 C 130.85448,376.65528 130.53091,376.30437 129.88379,376.30435 C 129.52831,376.30437 129.03156,376.63249 128.39355,377.28873 L 125.03027,380.73404 C 124.78417,380.99837 124.41959,381.34017 123.93652,381.75943 L 124.52441,381.92349 C 125.57258,382.20605 126.34276,382.46582 126.83496,382.70279 C 127.64615,383.18587 128.12466,383.86946 128.27051,384.75357 L 128.68066,387.24185 C 128.79003,387.8981 129.14094,388.22623 129.7334,388.22623 C 130.32583,388.22623 130.83625,387.56998 131.26465,386.25748 L 132.46777,386.50357 C 132.17609,388.01659 131.54719,389.03287 130.58105,389.5524 C 130.14354,389.78938 129.69237,389.90787 129.22754,389.90787 C 128.05175,389.90787 127.20865,389.59341 126.69824,388.96451 C 126.42479,388.56347 126.21516,387.91633 126.06934,387.0231 L 125.78223,385.19107 C 125.61815,384.15201 125.09407,383.49121 124.20996,383.20865 L 122.70605,382.81216 L 121.91309,383.38638 L 120.70996,389.51138 L 118.19434,389.51138 z M 139.37207,381.52701 L 139.08496,382.96255 C 138.94824,383.68261 138.87988,384.32975 138.87988,384.90396 C 138.87988,385.73339 139.02571,386.42154 139.31738,386.96841 C 139.80956,387.87987 140.69368,388.3356 141.96973,388.3356 C 143.25487,388.3356 144.32811,387.82063 145.18945,386.79068 C 146.05077,385.76074 146.6774,384.24316 147.06934,382.23795 C 147.2425,381.31738 147.32909,380.49707 147.3291,379.77701 C 147.32909,378.93848 147.20604,378.24121 146.95996,377.68521 C 146.4951,376.66439 145.6201,376.15397 144.33496,376.15396 C 143.05891,376.15397 141.99706,376.61426 141.14941,377.53482 C 140.30175,378.4554 139.7093,379.78613 139.37207,381.52701 L 139.37207,381.52701 z M 137.84082,376.44107 L 135.4209,376.44107 L 135.70801,374.97818 L 140.64355,374.97818 L 140.20605,377.24771 C 140.87141,376.33627 141.62792,375.66407 142.47559,375.23111 C 143.32323,374.79818 144.30761,374.58171 145.42871,374.5817 C 147.21516,374.58171 148.53221,375.28809 149.37988,376.70084 C 149.94497,377.63054 150.22752,378.74707 150.22754,380.05045 C 150.22752,380.73405 150.15461,381.46321 150.00879,382.23795 C 149.56216,384.5166 148.63703,386.36458 147.2334,387.78189 C 145.82974,389.19921 144.23469,389.90787 142.44824,389.90787 C 141.32714,389.90787 140.42708,389.6914 139.74805,389.25845 C 139.069,388.82551 138.57454,388.15331 138.26465,387.24185 L 136.67871,395.3356 L 134.16309,395.3356 L 137.84082,376.44107 z M 152.81152,376.44107 L 153.09863,374.97818 L 158.02051,374.97818 L 156.80371,381.26724 C 158.00683,380.27376 159.18261,379.77702 160.33105,379.77701 C 162.31802,379.77702 163.56672,380.1735 164.07715,380.96646 C 164.58755,381.75944 164.84276,382.60254 164.84277,383.49576 C 164.84276,383.93326 164.79263,384.39811 164.69238,384.89029 C 164.39159,386.43977 163.71255,387.6634 162.65527,388.56119 C 161.59797,389.45897 160.1442,389.90787 158.29395,389.90787 C 156.52571,389.90787 155.27474,389.49315 154.54102,388.66373 C 153.80729,387.8343 153.44043,386.95474 153.44043,386.02505 C 153.44043,385.73339 153.46777,385.44628 153.52246,385.16373 L 155.21777,376.44107 L 152.81152,376.44107 z M 155.92871,386.3942 C 155.92871,386.82258 156.07682,387.28971 156.37305,387.79556 C 156.66927,388.30142 157.34146,388.55435 158.38965,388.55435 C 159.43782,388.55435 160.32649,388.19888 161.05566,387.48795 C 161.75748,386.82258 162.24511,385.85644 162.51855,384.58951 C 162.59146,384.25227 162.62792,383.86035 162.62793,383.41373 C 162.62792,382.97623 162.46158,382.49316 162.12891,381.96451 C 161.79621,381.43587 161.12629,381.17155 160.11914,381.17154 C 159.11197,381.17155 158.2552,381.44498 157.54883,381.99185 C 156.84244,382.53873 156.43001,383.1403 156.31152,383.79654 L 156.02441,385.2731 C 155.96061,385.61035 155.92871,385.98404 155.92871,386.3942 L 155.92871,386.3942 z M 166.40137,389.51138 L 169.21777,374.97818 L 171.7334,374.97818 L 169.19043,388.06216 L 171.56934,388.06216 L 171.2959,389.51138 L 166.40137,389.51138 z M 189.02832,377.80826 C 189.72101,376.74186 190.49575,375.9375 191.35254,375.39517 C 192.20929,374.85287 193.13898,374.58171 194.1416,374.5817 C 195.66372,374.58171 196.70733,375.05567 197.27246,376.00357 C 197.60968,376.56869 197.7783,377.31153 197.77832,378.23209 C 197.7783,378.83366 197.70538,379.5127 197.55957,380.2692 L 196.04199,388.06216 L 198.31152,388.06216 L 198.03809,389.51138 L 193.25293,389.51138 L 194.98926,380.5563 C 195.12596,379.84538 195.19431,379.2347 195.19434,378.72427 C 195.19431,378.15918 195.11228,377.71257 194.94824,377.38443 C 194.63833,376.75554 193.97752,376.44108 192.96582,376.44107 C 191.84471,376.44108 190.90819,376.86491 190.15625,377.71255 C 189.40428,378.56022 188.8688,379.79525 188.5498,381.41763 L 186.97754,389.51138 L 184.46191,389.51138 L 186.22559,380.4606 C 186.35318,379.77702 186.41698,379.18913 186.41699,378.69693 C 186.41698,378.13184 186.33495,377.68978 186.1709,377.37076 C 185.85188,376.75098 185.18651,376.44108 184.1748,376.44107 C 183.0537,376.44108 182.11718,376.86491 181.36523,377.71255 C 180.61327,378.56022 180.07779,379.79525 179.75879,381.41763 L 178.18652,389.51138 L 175.6709,389.51138 L 178.21387,376.41373 L 175.80762,376.41373 L 176.08105,374.97818 L 181.00293,374.97818 L 180.51074,377.56216 C 181.15787,376.59603 181.89159,375.85775 182.71191,375.34732 C 183.53222,374.83692 184.3981,374.58171 185.30957,374.5817 C 186.43977,374.58171 187.32844,374.86198 187.97559,375.42252 C 188.62271,375.98308 188.97362,376.77832 189.02832,377.80826 L 189.02832,377.80826 z M 202.19434,376.44107 L 202.48145,374.97818 L 207.40332,374.97818 L 206.18652,381.26724 C 207.38964,380.27376 208.56542,379.77702 209.71387,379.77701 C 211.70083,379.77702 212.94953,380.1735 213.45996,380.96646 C 213.97036,381.75944 214.22557,382.60254 214.22559,383.49576 C 214.22557,383.93326 214.17544,384.39811 214.0752,384.89029 C 213.7744,386.43977 213.09536,387.6634 212.03809,388.56119 C 210.98078,389.45897 209.52701,389.90787 207.67676,389.90787 C 205.90852,389.90787 204.65755,389.49315 203.92383,388.66373 C 203.1901,387.8343 202.82324,386.95474 202.82324,386.02505 C 202.82324,385.73339 202.85058,385.44628 202.90527,385.16373 L 204.60059,376.44107 L 202.19434,376.44107 z M 205.31152,386.3942 C 205.31152,386.82258 205.45963,387.28971 205.75586,387.79556 C 206.05208,388.30142 206.72428,388.55435 207.77246,388.55435 C 208.82063,388.55435 209.7093,388.19888 210.43848,387.48795 C 211.14029,386.82258 211.62792,385.85644 211.90137,384.58951 C 211.97427,384.25227 212.01073,383.86035 212.01074,383.41373 C 212.01073,382.97623 211.84439,382.49316 211.51172,381.96451 C 211.17903,381.43587 210.5091,381.17155 209.50195,381.17154 C 208.49478,381.17155 207.63801,381.44498 206.93164,381.99185 C 206.22525,382.53873 205.81282,383.1403 205.69434,383.79654 L 205.40723,385.2731 C 205.34342,385.61035 205.31152,385.98404 205.31152,386.3942 L 205.31152,386.3942 z M 215.78418,389.51138 L 218.60059,374.97818 L 221.11621,374.97818 L 218.57324,388.06216 L 220.95215,388.06216 L 220.67871,389.51138 L 215.78418,389.51138 z M 227.18652,383.93326 C 227.15006,384.27962 227.13183,384.60774 227.13184,384.91763 C 227.13183,385.77441 227.28678,386.48534 227.59668,387.05045 C 228.13444,388.05305 229.12337,388.55435 230.56348,388.55435 C 231.62076,388.55435 232.40917,388.39485 232.92871,388.07584 C 233.85839,387.50162 234.43261,386.84537 234.65137,386.10709 L 236.49707,386.10709 C 236.13247,387.26464 235.27115,388.24901 233.91309,389.06021 C 232.96516,389.62532 231.5524,389.90787 229.6748,389.90787 C 227.7972,389.90787 226.35254,389.2106 225.34082,387.81607 C 224.62988,386.84081 224.27441,385.6468 224.27441,384.23404 C 224.27441,383.61425 224.34277,382.95345 224.47949,382.25162 C 224.9261,379.94564 225.91959,378.09082 227.45996,376.68716 C 229.00032,375.28353 230.86425,374.58171 233.05176,374.5817 C 236.61555,374.58171 238.39745,375.84408 238.39746,378.3688 C 238.39745,380.21907 237.4632,381.59538 235.59473,382.49771 C 233.68977,383.41829 230.88704,383.89681 227.18652,383.93326 L 227.18652,383.93326 z M 234.2002,380.87076 C 235.22102,380.2692 235.73143,379.40332 235.73145,378.2731 C 235.73143,376.71452 234.69693,375.93522 232.62793,375.93521 C 231.40657,375.93522 230.37206,376.40007 229.52441,377.32974 C 228.67675,378.25944 227.99316,379.97754 227.47363,382.48404 C 230.39941,382.34733 232.64159,381.80957 234.2002,380.87076 L 234.2002,380.87076 z M 250.53809,389.51138 L 253.08105,376.44107 L 250.6748,376.44107 L 250.96191,374.97818 L 255.88379,374.97818 L 254.6123,381.49966 C 254.63964,381.49967 254.90169,381.2832 255.39844,380.85025 C 255.89517,380.41732 256.23469,380.10514 256.41699,379.91373 L 259.83496,376.44107 C 261.03807,375.2015 262.01333,374.58171 262.76074,374.5817 C 263.50812,374.58171 264.35122,374.74122 265.29004,375.06021 L 264.8252,377.35709 L 263.19824,377.35709 C 263.19823,376.65528 262.87466,376.30437 262.22754,376.30435 C 261.87206,376.30437 261.37531,376.63249 260.7373,377.28873 L 257.37402,380.73404 C 257.12792,380.99837 256.76334,381.34017 256.28027,381.75943 L 256.86816,381.92349 C 257.91633,382.20605 258.68651,382.46582 259.17871,382.70279 C 259.9899,383.18587 260.46841,383.86946 260.61426,384.75357 L 261.02441,387.24185 C 261.13378,387.8981 261.48469,388.22623 262.07715,388.22623 C 262.66958,388.22623 263.18,387.56998 263.6084,386.25748 L 264.81152,386.50357 C 264.51984,388.01659 263.89094,389.03287 262.9248,389.5524 C 262.48729,389.78938 262.03612,389.90787 261.57129,389.90787 C 260.3955,389.90787 259.5524,389.59341 259.04199,388.96451 C 258.76854,388.56347 258.55891,387.91633 258.41309,387.0231 L 258.12598,385.19107 C 257.9619,384.15201 257.43782,383.49121 256.55371,383.20865 L 255.0498,382.81216 L 254.25684,383.38638 L 253.05371,389.51138 L 250.53809,389.51138 z M 267.5459,376.4274 L 267.81934,374.97818 L 272.60449,374.97818 L 271.4834,380.76138 L 278.1416,380.76138 L 279.2627,374.97818 L 281.77832,374.97818 L 279.23535,388.06216 L 281.50488,388.06216 L 281.23145,389.51138 L 276.44629,389.51138 L 277.81348,382.4567 L 271.15527,382.4567 L 269.78809,389.51138 L 267.27246,389.51138 L 269.81543,376.4274 L 267.5459,376.4274 z M 297.28223,374.97818 L 299.79785,374.97818 L 297.25488,388.06216 L 299.63379,388.06216 L 299.36035,389.51138 L 294.46582,389.51138 L 294.95801,386.94107 C 294.30175,387.90722 293.55663,388.64322 292.72266,389.14908 C 291.88866,389.65494 290.98404,389.90787 290.00879,389.90787 C 288.3955,389.90787 287.2972,389.44758 286.71387,388.52701 C 286.3584,387.98013 286.18066,387.2373 286.18066,386.29849 C 286.18066,385.68782 286.25814,384.99511 286.41309,384.22037 L 287.91699,376.44107 L 285.64746,376.44107 L 285.93457,374.97818 L 290.7334,374.97818 L 289.09277,383.44107 C 288.91048,384.37988 288.81933,385.15917 288.81934,385.77896 C 288.81933,386.33495 288.89225,386.7679 289.03809,387.07779 C 289.33886,387.73404 290.04524,388.06217 291.15723,388.06216 C 292.32388,388.06217 293.29687,387.63378 294.07617,386.77701 C 294.85546,385.92024 295.40005,384.6761 295.70996,383.04459 L 297.28223,374.97818 z M 303.80371,386.5856 C 303.80371,385.27311 304.4235,384.09733 305.66309,383.05826 C 306.43782,382.41113 307.44498,381.84147 308.68457,381.34927 L 310.27051,380.74771 C 312.02961,380.09147 312.90917,379.13444 312.90918,377.87662 C 312.90917,377.44824 312.77017,377.0153 312.49219,376.57779 C 312.21418,376.1403 311.6468,375.92155 310.79004,375.92154 C 308.59342,375.92155 306.54264,377.06087 304.6377,379.33951 L 303.96777,378.50552 C 304.46907,377.76725 305.07975,377.11328 305.7998,376.54361 C 306.51985,375.97396 307.06673,375.59343 307.44043,375.40201 C 308.50683,374.84603 309.74641,374.56804 311.15918,374.56802 C 312.59927,374.56804 313.69074,374.90528 314.43359,375.57974 C 315.17642,376.25423 315.54784,377.0153 315.54785,377.86295 C 315.54784,379.02051 315.12629,380.05729 314.2832,380.9733 C 313.44009,381.88932 312.31672,382.60026 310.91309,383.10611 C 309.50943,383.61197 308.57975,383.98795 308.12402,384.23404 C 306.99381,384.83561 306.42871,385.64225 306.42871,386.65396 C 306.42871,387.07323 306.56087,387.45605 306.8252,387.8024 C 307.21712,388.32193 307.86425,388.5817 308.7666,388.5817 C 310.59862,388.5817 312.35318,387.69303 314.03027,385.91568 L 314.64551,385.25943 L 315.34277,386.12076 C 313.38313,388.6455 311.00422,389.90787 308.20605,389.90787 C 306.81152,389.90787 305.72916,389.56835 304.95898,388.88931 C 304.1888,388.21028 303.80371,387.44237 303.80371,386.5856 L 303.80371,386.5856 z M 329.49316,374.97818 L 332.00879,374.97818 L 329.46582,388.06216 L 331.84473,388.06216 L 331.57129,389.51138 L 326.67676,389.51138 L 327.16895,386.94107 C 326.51268,387.90722 325.76757,388.64322 324.93359,389.14908 C 324.0996,389.65494 323.19498,389.90787 322.21973,389.90787 C 320.60644,389.90787 319.50813,389.44758 318.9248,388.52701 C 318.56933,387.98013 318.3916,387.2373 318.3916,386.29849 C 318.3916,385.68782 318.46907,384.99511 318.62402,384.22037 L 320.12793,376.44107 L 317.8584,376.44107 L 318.14551,374.97818 L 322.94434,374.97818 L 321.30371,383.44107 C 321.12141,384.37988 321.03027,385.15917 321.03027,385.77896 C 321.03027,386.33495 321.10318,386.7679 321.24902,387.07779 C 321.5498,387.73404 322.25618,388.06217 323.36816,388.06216 C 324.53482,388.06217 325.5078,387.63378 326.28711,386.77701 C 327.0664,385.92024 327.61099,384.6761 327.9209,383.04459 L 329.49316,374.97818 z M 42.793945,412.75357 C 42.793941,415.28743 43.83756,416.55435 45.924805,416.55435 C 47.255525,416.55435 48.376618,416.02115 49.288086,414.95474 C 49.880523,414.27115 50.534493,413.0498 51.25,411.29068 C 51.965482,409.53157 52.323229,408.32389 52.323242,407.66763 C 52.323229,407.00228 52.072578,406.264 51.571289,405.45279 C 51.388985,405.15202 50.965157,404.8239 50.299805,404.46841 C 49.634429,404.11296 48.996409,403.93522 48.385742,403.93521 C 47.036776,403.93522 45.913404,404.46615 45.015625,405.52798 C 44.117833,406.58984 43.46842,408.15983 43.067383,410.23795 C 42.885087,411.18587 42.793941,412.02441 42.793945,412.75357 L 42.793945,412.75357 z M 39.922852,412.24771 C 39.92285,411.61881 39.99121,410.94889 40.12793,410.23795 C 40.574542,407.92285 41.574867,406.06804 43.128906,404.67349 C 44.682937,403.27898 46.485344,402.58171 48.536133,402.5817 C 50.586902,402.58171 52.118151,403.52507 53.129883,405.41177 C 53.303045,404.51856 53.389634,403.69369 53.389648,402.93716 C 53.389634,401.70671 53.170884,400.65854 52.733398,399.79263 C 52.013333,398.37078 50.737293,397.65984 48.905273,397.65982 C 47.738598,397.65984 46.685864,398.03354 45.74707,398.78091 L 44.913086,397.70084 C 46.025058,396.7256 47.323885,396.23797 48.80957,396.23795 C 51.334297,396.23797 53.216457,397.28614 54.456055,399.38248 C 55.030257,400.35775 55.317366,401.6976 55.317383,403.40201 C 55.317366,406.09082 54.820622,408.83887 53.827148,411.64615 C 53.207342,413.38704 52.323229,414.77701 51.174805,415.81607 C 49.625315,417.2106 47.793285,417.90787 45.678711,417.90787 C 43.555008,417.90787 41.987301,417.2106 40.975586,415.81607 C 40.273761,414.84081 39.92285,413.65136 39.922852,412.24771 L 39.922852,412.24771 z M 61.073242,417.29263 C 60.389645,417.70279 59.706051,417.90787 59.022461,417.90787 C 58.338865,417.90787 57.614257,417.77571 56.848633,417.51138 L 57.176758,415.8024 C 57.814777,416.08495 58.370766,416.22623 58.844727,416.22623 C 59.765296,416.22623 60.423824,415.94823 60.820313,415.39224 C 61.216792,414.83626 61.870763,413.1888 62.782227,410.44986 C 63.693678,407.71094 64.400057,406.00879 64.901367,405.34341 C 66.05891,403.76661 68.278309,402.97819 71.55957,402.97818 L 72.461914,402.97818 L 69.918945,416.06216 L 72.174805,416.06216 L 71.901367,417.51138 L 67.129883,417.51138 L 69.631836,404.63248 C 68.866199,404.63249 68.077788,404.83073 67.266602,405.2272 C 66.455394,405.6237 65.776358,406.67415 65.229492,408.37857 C 64.081047,411.97884 63.183262,414.44889 62.536133,415.78873 C 62.24446,416.38118 61.756831,416.88248 61.073242,417.29263 L 61.073242,417.29263 z M 77.014648,417.90787 C 76.221678,417.90787 75.442382,417.77571 74.676758,417.51138 L 75.004883,415.8024 C 75.642902,416.08495 76.176105,416.22623 76.604492,416.22623 C 77.479489,416.22623 78.076494,415.93912 78.395508,415.3649 L 80.15918,412.16568 C 80.614903,411.33626 81.35774,410.78483 82.387695,410.51138 C 81.485344,410.38379 80.665033,410.0625 79.926758,409.54752 C 79.188472,409.03255 78.819331,408.33756 78.819336,407.46255 C 78.819331,407.20736 78.851232,406.92936 78.915039,406.62857 C 79.12467,405.54395 79.680659,404.66439 80.583008,403.9899 C 81.485344,403.31543 82.642895,402.97819 84.055664,402.97818 L 90.905273,402.97818 L 88.362305,416.06216 L 90.631836,416.06216 L 90.344727,417.51138 L 85.55957,417.51138 L 86.87207,410.75748 L 85.40918,410.75748 C 84.105784,410.75748 83.07128,411.46842 82.305664,412.89029 L 80.801758,415.67935 C 79.999669,417.16503 78.7373,417.90787 77.014648,417.90787 L 77.014648,417.90787 z M 81.512695,407.43521 C 81.512688,407.90918 81.672193,408.34668 81.991211,408.74771 C 82.310213,409.14876 82.966463,409.34928 83.959961,409.34927 L 87.145508,409.34927 L 88.102539,404.4274 L 84.916992,404.4274 C 83.932608,404.42741 83.166983,404.65528 82.620117,405.11099 C 81.881828,405.72168 81.512688,406.49642 81.512695,407.43521 L 81.512695,407.43521 z M 108.97949,416.55435 C 110.32844,416.55435 111.45181,416.02115 112.34961,414.95474 C 113.24738,413.88834 113.8968,412.31608 114.29785,410.23795 C 114.48013,409.29004 114.57128,408.44694 114.57129,407.70865 C 114.57128,406.83366 114.44367,406.10905 114.18848,405.53482 C 113.70539,404.46843 112.78938,403.93522 111.44043,403.93521 C 110.09146,403.93522 108.96809,404.46615 108.07031,405.52798 C 107.17252,406.58984 106.52311,408.15983 106.12207,410.23795 C 105.93977,411.18587 105.84863,412.02441 105.84863,412.75357 C 105.84863,413.63769 105.98079,414.37141 106.24512,414.95474 C 106.72819,416.02115 107.63964,416.55435 108.97949,416.55435 L 108.97949,416.55435 z M 108.71973,417.90787 C 106.60514,417.90787 105.04199,417.2106 104.03027,415.81607 C 103.32845,414.84081 102.97754,413.65136 102.97754,412.24771 C 102.97754,411.61881 103.0459,410.94889 103.18262,410.23795 C 103.62923,407.92285 104.62955,406.06804 106.18359,404.67349 C 107.73762,403.27898 109.57649,402.58171 111.7002,402.5817 C 113.82388,402.58171 115.39159,403.27898 116.40332,404.67349 C 117.09601,405.63965 117.44237,406.82454 117.44238,408.22818 C 117.44237,408.85709 117.37401,409.52702 117.2373,410.23795 C 116.79068,412.55305 115.79035,414.41015 114.23633,415.80923 C 112.68228,417.20832 110.84342,417.90787 108.71973,417.90787 L 108.71973,417.90787 z M 133.95801,405.80826 C 134.6507,404.74186 135.42544,403.9375 136.28223,403.39517 C 137.13898,402.85287 138.06867,402.58171 139.07129,402.5817 C 140.5934,402.58171 141.63702,403.05567 142.20215,404.00357 C 142.53936,404.56869 142.70798,405.31153 142.70801,406.23209 C 142.70798,406.83366 142.63507,407.5127 142.48926,408.2692 L 140.97168,416.06216 L 143.24121,416.06216 L 142.96777,417.51138 L 138.18262,417.51138 L 139.91895,408.5563 C 140.05564,407.84538 140.124,407.2347 140.12402,406.72427 C 140.124,406.15918 140.04197,405.71257 139.87793,405.38443 C 139.56801,404.75554 138.90721,404.44108 137.89551,404.44107 C 136.7744,404.44108 135.83787,404.86491 135.08594,405.71255 C 134.33397,406.56022 133.79849,407.79525 133.47949,409.41763 L 131.90723,417.51138 L 129.3916,417.51138 L 131.15527,408.4606 C 131.28286,407.77702 131.34667,407.18913 131.34668,406.69693 C 131.34667,406.13184 131.26464,405.68978 131.10059,405.37076 C 130.78156,404.75098 130.1162,404.44108 129.10449,404.44107 C 127.98339,404.44108 127.04687,404.86491 126.29492,405.71255 C 125.54296,406.56022 125.00748,407.79525 124.68848,409.41763 L 123.11621,417.51138 L 120.60059,417.51138 L 123.14355,404.41373 L 120.7373,404.41373 L 121.01074,402.97818 L 125.93262,402.97818 L 125.44043,405.56216 C 126.08756,404.59603 126.82128,403.85775 127.6416,403.34732 C 128.4619,402.83692 129.32779,402.58171 130.23926,402.5817 C 131.36945,402.58171 132.25812,402.86198 132.90527,403.42252 C 133.55239,403.98308 133.90331,404.77832 133.95801,405.80826 L 133.95801,405.80826 z M 147.17871,417.51138 L 149.72168,404.44107 L 147.31543,404.44107 L 147.60254,402.97818 L 152.52441,402.97818 L 151.25293,409.49966 C 151.28027,409.49967 151.54231,409.2832 152.03906,408.85025 C 152.5358,408.41732 152.87532,408.10514 153.05762,407.91373 L 156.47559,404.44107 C 157.6787,403.2015 158.65396,402.58171 159.40137,402.5817 C 160.14875,402.58171 160.99185,402.74122 161.93066,403.06021 L 161.46582,405.35709 L 159.83887,405.35709 C 159.83885,404.65528 159.51529,404.30437 158.86816,404.30435 C 158.51268,404.30437 158.01594,404.63249 157.37793,405.28873 L 154.01465,408.73404 C 153.76855,408.99837 153.40396,409.34017 152.9209,409.75943 L 153.50879,409.92349 C 154.55696,410.20605 155.32714,410.46582 155.81934,410.70279 C 156.63052,411.18587 157.10904,411.86946 157.25488,412.75357 L 157.66504,415.24185 C 157.7744,415.8981 158.12531,416.22623 158.71777,416.22623 C 159.31021,416.22623 159.82062,415.56998 160.24902,414.25748 L 161.45215,414.50357 C 161.16047,416.01659 160.53156,417.03287 159.56543,417.5524 C 159.12792,417.78938 158.67674,417.90787 158.21191,417.90787 C 157.03612,417.90787 156.19302,417.59341 155.68262,416.96451 C 155.40917,416.56347 155.19953,415.91633 155.05371,415.0231 L 154.7666,413.19107 C 154.60253,412.15201 154.07844,411.49121 153.19434,411.20865 L 151.69043,410.81216 L 150.89746,411.38638 L 149.69434,417.51138 L 147.17871,417.51138 z M 168.35645,409.52701 L 168.06934,410.96255 C 167.93261,411.68261 167.86425,412.32975 167.86426,412.90396 C 167.86425,413.73339 168.01009,414.42154 168.30176,414.96841 C 168.79394,415.87987 169.67805,416.3356 170.9541,416.3356 C 172.23925,416.3356 173.31249,415.82063 174.17383,414.79068 C 175.03514,413.76074 175.66177,412.24316 176.05371,410.23795 C 176.22687,409.31738 176.31346,408.49707 176.31348,407.77701 C 176.31346,406.93848 176.19042,406.24121 175.94434,405.68521 C 175.47948,404.66439 174.60448,404.15397 173.31934,404.15396 C 172.04328,404.15397 170.98144,404.61426 170.13379,405.53482 C 169.28613,406.4554 168.69368,407.78613 168.35645,409.52701 L 168.35645,409.52701 z M 166.8252,404.44107 L 164.40527,404.44107 L 164.69238,402.97818 L 169.62793,402.97818 L 169.19043,405.24771 C 169.85579,404.33627 170.6123,403.66407 171.45996,403.23111 C 172.30761,402.79818 173.29198,402.58171 174.41309,402.5817 C 176.19953,402.58171 177.51659,403.28809 178.36426,404.70084 C 178.92934,405.63054 179.2119,406.74707 179.21191,408.05045 C 179.2119,408.73405 179.13898,409.46321 178.99316,410.23795 C 178.54653,412.5166 177.6214,414.36458 176.21777,415.78189 C 174.81411,417.19921 173.21906,417.90787 171.43262,417.90787 C 170.31152,417.90787 169.41145,417.6914 168.73242,417.25845 C 168.05338,416.82551 167.55891,416.15331 167.24902,415.24185 L 165.66309,423.3356 L 163.14746,423.3356 L 166.8252,404.44107 z M 181.7959,404.44107 L 182.08301,402.97818 L 187.00488,402.97818 L 185.78809,409.26724 C 186.9912,408.27376 188.16698,407.77702 189.31543,407.77701 C 191.3024,407.77702 192.55109,408.1735 193.06152,408.96646 C 193.57193,409.75944 193.82713,410.60254 193.82715,411.49576 C 193.82713,411.93326 193.777,412.39811 193.67676,412.89029 C 193.37596,414.43977 192.69693,415.6634 191.63965,416.56119 C 190.58235,417.45897 189.12857,417.90787 187.27832,417.90787 C 185.51009,417.90787 184.25911,417.49315 183.52539,416.66373 C 182.79166,415.8343 182.4248,414.95474 182.4248,414.02505 C 182.4248,413.73339 182.45215,413.44628 182.50684,413.16373 L 184.20215,404.44107 L 181.7959,404.44107 z M 184.91309,414.3942 C 184.91308,414.82258 185.06119,415.28971 185.35742,415.79556 C 185.65364,416.30142 186.32584,416.55435 187.37402,416.55435 C 188.42219,416.55435 189.31086,416.19888 190.04004,415.48795 C 190.74185,414.82258 191.22948,413.85644 191.50293,412.58951 C 191.57583,412.25227 191.61229,411.86035 191.6123,411.41373 C 191.61229,410.97623 191.44595,410.49316 191.11328,409.96451 C 190.78059,409.43587 190.11067,409.17155 189.10352,409.17154 C 188.09635,409.17155 187.23958,409.44498 186.5332,409.99185 C 185.82682,410.53873 185.41438,411.1403 185.2959,411.79654 L 185.00879,413.2731 C 184.94498,413.61035 184.91308,413.98404 184.91309,414.3942 L 184.91309,414.3942 z M 195.38574,417.51138 L 198.20215,402.97818 L 200.71777,402.97818 L 198.1748,416.06216 L 200.55371,416.06216 L 200.28027,417.51138 L 195.38574,417.51138 z M 218.0127,405.80826 C 218.70539,404.74186 219.48013,403.9375 220.33691,403.39517 C 221.19367,402.85287 222.12335,402.58171 223.12598,402.5817 C 224.64809,402.58171 225.69171,403.05567 226.25684,404.00357 C 226.59405,404.56869 226.76267,405.31153 226.7627,406.23209 C 226.76267,406.83366 226.68975,407.5127 226.54395,408.2692 L 225.02637,416.06216 L 227.2959,416.06216 L 227.02246,417.51138 L 222.2373,417.51138 L 223.97363,408.5563 C 224.11033,407.84538 224.17869,407.2347 224.17871,406.72427 C 224.17869,406.15918 224.09666,405.71257 223.93262,405.38443 C 223.6227,404.75554 222.96189,404.44108 221.9502,404.44107 C 220.82908,404.44108 219.89256,404.86491 219.14063,405.71255 C 218.38866,406.56022 217.85317,407.79525 217.53418,409.41763 L 215.96191,417.51138 L 213.44629,417.51138 L 215.20996,408.4606 C 215.33755,407.77702 215.40135,407.18913 215.40137,406.69693 C 215.40135,406.13184 215.31932,405.68978 215.15527,405.37076 C 214.83625,404.75098 214.17089,404.44108 213.15918,404.44107 C 212.03808,404.44108 211.10155,404.86491 210.34961,405.71255 C 209.59765,406.56022 209.06217,407.79525 208.74316,409.41763 L 207.1709,417.51138 L 204.65527,417.51138 L 207.19824,404.41373 L 204.79199,404.41373 L 205.06543,402.97818 L 209.9873,402.97818 L 209.49512,405.56216 C 210.14225,404.59603 210.87597,403.85775 211.69629,403.34732 C 212.51659,402.83692 213.38248,402.58171 214.29395,402.5817 C 215.42414,402.58171 216.31281,402.86198 216.95996,403.42252 C 217.60708,403.98308 217.95799,404.77832 218.0127,405.80826 L 218.0127,405.80826 z M 236.45605,416.55435 C 237.805,416.55435 238.92838,416.02115 239.82617,414.95474 C 240.72395,413.88834 241.37336,412.31608 241.77441,410.23795 C 241.95669,409.29004 242.04784,408.44694 242.04785,407.70865 C 242.04784,406.83366 241.92023,406.10905 241.66504,405.53482 C 241.18195,404.46843 240.26594,403.93522 238.91699,403.93521 C 237.56803,403.93522 236.44465,404.46615 235.54688,405.52798 C 234.64908,406.58984 233.99967,408.15983 233.59863,410.23795 C 233.41634,411.18587 233.32519,412.02441 233.3252,412.75357 C 233.32519,413.63769 233.45735,414.37141 233.72168,414.95474 C 234.20475,416.02115 235.11621,416.55435 236.45605,416.55435 L 236.45605,416.55435 z M 236.19629,417.90787 C 234.0817,417.90787 232.51855,417.2106 231.50684,415.81607 C 230.80501,414.84081 230.4541,413.65136 230.4541,412.24771 C 230.4541,411.61881 230.52246,410.94889 230.65918,410.23795 C 231.10579,407.92285 232.10612,406.06804 233.66016,404.67349 C 235.21419,403.27898 237.05305,402.58171 239.17676,402.5817 C 241.30044,402.58171 242.86815,403.27898 243.87988,404.67349 C 244.57258,405.63965 244.91893,406.82454 244.91895,408.22818 C 244.91893,408.85709 244.85057,409.52702 244.71387,410.23795 C 244.26724,412.55305 243.26691,414.41015 241.71289,415.80923 C 240.15884,417.20832 238.31998,417.90787 236.19629,417.90787 L 236.19629,417.90787 z M 248.13184,414.5856 C 248.13183,413.27311 248.75162,412.09733 249.99121,411.05826 C 250.76595,410.41113 251.77311,409.84147 253.0127,409.34927 L 254.59863,408.74771 C 256.35774,408.09147 257.23729,407.13444 257.2373,405.87662 C 257.23729,405.44824 257.0983,405.0153 256.82031,404.57779 C 256.54231,404.1403 255.97493,403.92155 255.11816,403.92154 C 252.92154,403.92155 250.87076,405.06087 248.96582,407.33951 L 248.2959,406.50552 C 248.7972,405.76725 249.40787,405.11328 250.12793,404.54361 C 250.84798,403.97396 251.39485,403.59343 251.76855,403.40201 C 252.83495,402.84603 254.07454,402.56804 255.4873,402.56802 C 256.9274,402.56804 258.01887,402.90528 258.76172,403.57974 C 259.50454,404.25423 259.87596,405.0153 259.87598,405.86295 C 259.87596,407.02051 259.45441,408.05729 258.61133,408.9733 C 257.76822,409.88932 256.64485,410.60026 255.24121,411.10611 C 253.83756,411.61197 252.90787,411.98795 252.45215,412.23404 C 251.32193,412.83561 250.75683,413.64225 250.75684,414.65396 C 250.75683,415.07323 250.88899,415.45605 251.15332,415.8024 C 251.54524,416.32193 252.19238,416.5817 253.09473,416.5817 C 254.92675,416.5817 256.6813,415.69303 258.3584,413.91568 L 258.97363,413.25943 L 259.6709,414.12076 C 257.71125,416.6455 255.33235,417.90787 252.53418,417.90787 C 251.13964,417.90787 250.05729,417.56835 249.28711,416.88931 C 248.51692,416.21028 248.13183,415.44237 248.13184,414.5856 L 248.13184,414.5856 z M 267.46387,416.55435 C 268.81282,416.55435 269.93619,416.02115 270.83398,414.95474 C 271.73176,413.88834 272.38117,412.31608 272.78223,410.23795 C 272.96451,409.29004 273.05565,408.44694 273.05566,407.70865 C 273.05565,406.83366 272.92805,406.10905 272.67285,405.53482 C 272.18977,404.46843 271.27375,403.93522 269.9248,403.93521 C 268.57584,403.93522 267.45247,404.46615 266.55469,405.52798 C 265.6569,406.58984 265.00748,408.15983 264.60645,410.23795 C 264.42415,411.18587 264.333,412.02441 264.33301,412.75357 C 264.333,413.63769 264.46517,414.37141 264.72949,414.95474 C 265.21256,416.02115 266.12402,416.55435 267.46387,416.55435 L 267.46387,416.55435 z M 267.2041,417.90787 C 265.08951,417.90787 263.52636,417.2106 262.51465,415.81607 C 261.81282,414.84081 261.46191,413.65136 261.46191,412.24771 C 261.46191,411.61881 261.53027,410.94889 261.66699,410.23795 C 262.1136,407.92285 263.11393,406.06804 264.66797,404.67349 C 266.222,403.27898 268.06086,402.58171 270.18457,402.5817 C 272.30826,402.58171 273.87596,403.27898 274.8877,404.67349 C 275.58039,405.63965 275.92674,406.82454 275.92676,408.22818 C 275.92674,408.85709 275.85838,409.52702 275.72168,410.23795 C 275.27505,412.55305 274.27473,414.41015 272.7207,415.80923 C 271.16666,417.20832 269.32779,417.90787 267.2041,417.90787 L 267.2041,417.90787 z M 288.36816,417.90787 C 287.79394,417.90787 287.12858,417.77571 286.37207,417.51138 L 286.68652,415.8024 C 287.32454,416.08495 287.88053,416.22623 288.35449,416.22623 C 288.83756,416.22623 289.28418,415.94823 289.69434,415.39224 C 290.32324,414.53547 290.87923,412.86295 291.3623,410.37466 L 292.51074,404.4274 L 290.85645,404.4274 L 291.12988,402.97818 L 296.36621,402.97818 L 298.10254,412.97232 L 303.8584,402.97818 L 307.37207,402.97818 L 304.8291,416.06216 L 307.09863,416.06216 L 306.8252,417.51138 L 302.04004,417.51138 L 304.50098,404.82388 L 297.99316,416.04849 L 295.9834,416.04849 L 294.00098,404.82388 L 292.98926,410.70279 C 292.58821,413.02701 292.05956,414.72232 291.40332,415.78873 C 290.52832,417.20149 289.5166,417.90787 288.36816,417.90787 L 288.36816,417.90787 z M 322.82129,402.97818 L 325.33691,402.97818 L 322.79395,416.06216 L 325.17285,416.06216 L 324.89941,417.51138 L 320.00488,417.51138 L 320.49707,414.94107 C 319.84081,415.90722 319.09569,416.64322 318.26172,417.14908 C 317.42773,417.65494 316.5231,417.90787 315.54785,417.90787 C 313.93457,417.90787 312.83626,417.44758 312.25293,416.52701 C 311.89746,415.98013 311.71972,415.2373 311.71973,414.29849 C 311.71972,413.68782 311.7972,412.99511 311.95215,412.22037 L 313.45605,404.44107 L 311.18652,404.44107 L 311.47363,402.97818 L 316.27246,402.97818 L 314.63184,411.44107 C 314.44954,412.37988 314.35839,413.15917 314.3584,413.77896 C 314.35839,414.33495 314.43131,414.7679 314.57715,415.07779 C 314.87792,415.73404 315.5843,416.06217 316.69629,416.06216 C 317.86295,416.06217 318.83593,415.63378 319.61523,414.77701 C 320.39452,413.92024 320.93912,412.6761 321.24902,411.04459 L 322.82129,402.97818 z M 333.73145,409.52701 L 333.44434,410.96255 C 333.30761,411.68261 333.23925,412.32975 333.23926,412.90396 C 333.23925,413.73339 333.38509,414.42154 333.67676,414.96841 C 334.16894,415.87987 335.05305,416.3356 336.3291,416.3356 C 337.61425,416.3356 338.68749,415.82063 339.54883,414.79068 C 340.41014,413.76074 341.03677,412.24316 341.42871,410.23795 C 341.60187,409.31738 341.68846,408.49707 341.68848,407.77701 C 341.68846,406.93848 341.56542,406.24121 341.31934,405.68521 C 340.85448,404.66439 339.97948,404.15397 338.69434,404.15396 C 337.41828,404.15397 336.35644,404.61426 335.50879,405.53482 C 334.66113,406.4554 334.06868,407.78613 333.73145,409.52701 L 333.73145,409.52701 z M 332.2002,404.44107 L 329.78027,404.44107 L 330.06738,402.97818 L 335.00293,402.97818 L 334.56543,405.24771 C 335.23079,404.33627 335.9873,403.66407 336.83496,403.23111 C 337.68261,402.79818 338.66698,402.58171 339.78809,402.5817 C 341.57453,402.58171 342.89159,403.28809 343.73926,404.70084 C 344.30434,405.63054 344.5869,406.74707 344.58691,408.05045 C 344.5869,408.73405 344.51398,409.46321 344.36816,410.23795 C 343.92153,412.5166 342.9964,414.36458 341.59277,415.78189 C 340.18911,417.19921 338.59406,417.90787 336.80762,417.90787 C 335.68652,417.90787 334.78645,417.6914 334.10742,417.25845 C 333.42838,416.82551 332.93391,416.15331 332.62402,415.24185 L 331.03809,423.3356 L 328.52246,423.3356 L 332.2002,404.44107 z M 355.42871,415.24185 C 354.21646,417.0192 352.63053,417.90787 350.6709,417.90787 C 349.06673,417.90787 347.85905,417.36555 347.04785,416.28091 C 346.48275,415.51529 346.20019,414.5856 346.2002,413.49185 C 346.20019,413.02701 346.25032,412.53483 346.35059,412.01529 C 346.97038,408.79785 348.40136,406.3597 350.64355,404.70084 C 352.5485,403.28809 354.65396,402.58171 356.95996,402.5817 C 358.50943,402.58171 359.54849,402.71387 360.07715,402.97818 L 357.53418,416.06216 L 359.69434,416.06216 L 359.4209,417.51138 L 354.99121,417.51138 L 355.42871,415.24185 z M 348.85254,413.40982 C 348.85254,415.36034 349.79589,416.3356 351.68262,416.3356 C 352.83105,416.3356 353.79491,415.8776 354.57422,414.96158 C 355.35351,414.04557 355.91633,412.71256 356.2627,410.96255 L 357.53418,404.37271 L 357.53418,404.37271 C 357.53417,404.1084 357.16958,403.97624 356.44043,403.97623 C 354.69042,403.97624 353.13639,404.65983 351.77832,406.02701 C 350.42936,407.40332 349.51334,409.34017 349.03027,411.83755 C 348.91178,412.42089 348.85254,412.94498 348.85254,413.40982 L 348.85254,413.40982 z "
     id="text2636" />
</svg>
