<?xml version="1.0" encoding="UTF-8" standalone="no"?>
<!-- Created with Inkscape (http://www.inkscape.org/) -->

<svg
   xmlns:dc="http://purl.org/dc/elements/1.1/"
   xmlns:cc="http://creativecommons.org/ns#"
   xmlns:rdf="http://www.w3.org/1999/02/22-rdf-syntax-ns#"
   xmlns:svg="http://www.w3.org/2000/svg"
   xmlns="http://www.w3.org/2000/svg"
   xmlns:sodipodi="http://sodipodi.sourceforge.net/DTD/sodipodi-0.dtd"
   xmlns:inkscape="http://www.inkscape.org/namespaces/inkscape"
   version="1.0"
   width="400"
   height="400"
   id="svg2728"
   sodipodi:version="0.32"
   inkscape:version="0.48.4 r9939"
   sodipodi:docname="Wikibooks-logo-cy-noslogan.svg"
   inkscape:output_extension="org.inkscape.output.svg.inkscape">
  <metadata
     id="metadata18">
    <rdf:RDF>
      <cc:Work
         rdf:about="">
        <dc:format>image/svg+xml</dc:format>
        <dc:type
           rdf:resource="http://purl.org/dc/dcmitype/StillImage" />
        <dc:title></dc:title>
      </cc:Work>
    </rdf:RDF>
  </metadata>
  <sodipodi:namedview
     inkscape:window-height="821"
     inkscape:window-width="1272"
     inkscape:pageshadow="2"
     inkscape:pageopacity="0.0"
     guidetolerance="10.0"
     gridtolerance="10.0"
     objecttolerance="10.0"
     borderopacity="1.0"
     bordercolor="#666666"
     pagecolor="#ffffff"
     id="base"
     showgrid="false"
     inkscape:zoom="1.245"
     inkscape:cx="168.60224"
     inkscape:cy="122.41127"
     inkscape:window-x="238"
     inkscape:window-y="70"
     inkscape:current-layer="svg2728"
     showguides="true"
     inkscape:guide-bbox="true"
     inkscape:snap-bbox="true"
     inkscape:bbox-nodes="true"
     inkscape:snap-bbox-edge-midpoints="true"
     inkscape:snap-bbox-midpoints="true"
     inkscape:window-maximized="0">
    <sodipodi:guide
       orientation="0,1"
       position="199.21421,8.8353271"
       id="guide3129" />
  </sodipodi:namedview>
  <defs
     id="defs2731">
    <inkscape:perspective
       sodipodi:type="inkscape:persp3d"
       inkscape:vp_x="0 : 200 : 1"
       inkscape:vp_y="0 : 1000 : 0"
       inkscape:vp_z="400 : 200 : 1"
       inkscape:persp3d-origin="200 : 133.33333 : 1"
       id="perspective20" />
  </defs>
  <g
     id="layer1" />
  <g
     id="g3189">
    <g
       id="g3177">
      <path
         id="path3297"
         style="fill: rgb(253, 252, 248); fill-opacity: 1; fill-rule: evenodd; stroke: none; stroke-width: 1px; stroke-linecap: butt; stroke-linejoin: miter; stroke-opacity: 1;"
         d="M 191.65664,115.97593 C 196.93351,182.00184 208.45394,245.91983 242.85479,307.46513 L 255.86467,307.56221 L 338.15581,234.14292 L 259.72068,35.943307 L 203.18059,89.951746 L 191.65664,115.97593 z" />
      <path
         d="M 263.32723,16.5 C 236.14031,42.801966 209.26473,68.875 209.26473,68.875 C 209.26473,68.875 218.92098,88.53125 218.92098,88.53125 C 232.01455,75.550025 245.18226,64.133911 257.73348,51.4375 C 284.16674,109.4727 302.17756,156.24917 324.33191,218.08448 C 331.58462,238.17246 330.10582,239.07126 312.76941,249.92823 C 284.91465,263.77995 276.0966,272.86547 242.89833,308.1875 L 265.61708,308.1875 C 293.37052,283.09599 303.67261,274.24081 338.42566,255.92823 C 350.71955,248.83035 352.40523,239.86966 347.36316,225.92823 C 331.10198,180.73146 295.87208,83.322614 263.32723,16.5 z"
         style="fill: rgb(95, 150, 211); fill-opacity: 1;"
         id="path3272" />
    </g>
    <g
       id="g3181">
      <path
         id="path3214"
         style="fill: rgb(244, 238, 215); fill-rule: evenodd; stroke: none; stroke-width: 1px; stroke-linecap: butt; stroke-linejoin: miter; stroke-opacity: 1;"
         d="M 125.84082,116.04509 C 131.11769,182.071 144.61911,246.8316 179.01996,308.3769 L 199.35471,308.55962 L 261.32293,230.84125 L 193.90486,36.012472 L 137.36477,90.020911 L 125.84082,116.04509 z" />
      <path
         d="M 192.45223,17.125 C 172.56466,30.549352 157.22356,49.869448 139.92098,66.4375 C 139.92098,66.4375 147.01473,89.0625 147.01473,89.0625 C 160.5559,78.391834 172.3403,65.526043 184.51473,53.34375 L 250.17098,218.03125 C 253.95672,229.18194 247.99456,239.10365 236.01473,249.90625 C 221.66549,261.43896 192.12216,288.32681 178.73348,308.8125 L 199.10848,308.8125 C 220.49313,286.84657 224.35368,283.86504 248.70223,262.78125 C 265.04857,246.10281 279.81623,237.56053 272.10848,216.1875 L 192.45223,17.125 z"
         style="fill: rgb(42, 98, 161); fill-opacity: 1; fill-rule: evenodd; stroke: none; stroke-width: 22; stroke-linecap: round; stroke-linejoin: miter; stroke-miterlimit: 4; stroke-dasharray: none; stroke-opacity: 1;"
         id="path3138" />
    </g>
    <g
       id="g3185">
      <path
         id="path2238"
         style="fill: rgb(233, 221, 175); fill-rule: evenodd; stroke: none; stroke-width: 1px; stroke-linecap: butt; stroke-linejoin: miter; stroke-opacity: 1;"
         d="M 50.218883,114.63177 C 55.595535,183.91551 77.233973,245.97178 102.67801,306.33668 L 129.48015,306.00572 L 199.88087,225.96804 L 118.28293,34.599156 L 61.742841,88.607595 L 50.218883,114.63177 z" />
      <path
         d="M 125.32723,16.0625 C 120.02588,17.841698 115.61512,21.260515 111.48348,24.875 C 55.394922,78.847012 53.13973,81.125 53.13973,81.125 C 50.188265,83.867742 49.941746,87.87735 49.98348,91.90625 L 50.218884,114.63177 C 50.218884,114.63177 76.123108,89.450054 114.79598,52.21875 C 135.6144,106.45643 157.3415,160.40524 178.73348,214.4375 C 181.66298,222.60083 174.65125,229.2909 165.76473,238.21875 C 153.49118,250.19233 127.82007,274.84011 101.54598,307.75 L 127.88973,307.75 C 127.88973,307.75 191.20222,238.3125 191.20223,238.3125 C 197.22151,230.03457 204.70542,221.9413 201.54598,214.4375 C 201.54598,214.4375 125.32723,16.062501 125.32723,16.0625 z"
         style="fill: rgb(21, 48, 79); fill-opacity: 1; fill-rule: evenodd; stroke: none; stroke-width: 22; stroke-linecap: round; stroke-linejoin: miter; stroke-miterlimit: 4; stroke-dasharray: none; stroke-opacity: 1;"
         id="path3136" />
    </g>
  </g>
  <g
     style="font-style:normal;font-variant:normal;font-weight:bold;font-stretch:normal;fill:#000000;fill-opacity:1;stroke:none;font-family:DejaVu Sans"
     id="text2416" />
  <g
     id="g2700"
     transform="translate(-11.767502,0)">
    <g
       style="font-size:56px;font-style:normal;font-variant:normal;font-weight:bold;font-stretch:normal;fill:#0b2645;fill-opacity:1;stroke:none;font-family:DejaVu Sans"
       id="text2420">
      <path
         d="m 19.999969,317.17578 10.089844,0 7.054688,29.66797 7,-29.66797 10.144531,0 7,29.66797 7.054687,-29.66797 10.007813,0 L 68.726532,358 56.585907,358 49.175751,326.96484 41.847626,358 29.707001,358 z"
         style=""
         id="path3252" />
      <path
         d="m 85.269501,317.17578 10.527343,0 0,40.82422 -10.527343,0 z"
         style=""
         id="path3254" />
      <path
         d="m 138.53513,355.75781 c -1.93233,1.00261 -3.94665,1.75912 -6.04297,2.26953 -2.09639,0.51042 -4.28388,0.76563 -6.5625,0.76563 -6.7995,0 -12.18621,-1.90039 -16.16016,-5.70117 -3.97396,-3.80078 -5.96094,-8.95507 -5.96094,-15.46289 0,-6.52602 1.98698,-11.68942 5.96094,-15.49024 3.97395,-3.80074 9.36066,-5.70113 16.16016,-5.70117 2.27862,4e-5 4.46611,0.25525 6.5625,0.76562 2.09632,0.51046 4.11064,1.26697 6.04297,2.26954 l 0,8.44921 c -1.95056,-1.33069 -3.87374,-2.30595 -5.76954,-2.92578 -1.89586,-0.61975 -3.89195,-0.92965 -5.98828,-0.92968 -3.75523,3e-5 -6.70835,1.20315 -8.85937,3.60937 -2.15106,2.40628 -3.22658,5.72398 -3.22656,9.95313 -2e-5,4.21095 1.0755,7.51954 3.22656,9.92578 2.15102,2.40626 5.10414,3.60938 8.85937,3.60937 2.09633,10e-6 4.09242,-0.30989 5.98828,-0.92969 1.8958,-0.61978 3.81898,-1.59504 5.76954,-2.92578 z"
         style=""
         id="path3256" />
      <path
         d="m 147.28513,317.17578 10.52734,0 0,40.82422 -10.52734,0 z"
         style=""
         id="path3258" />
    </g>
    <g
       style="font-size:56px;font-style:normal;font-variant:normal;font-weight:bold;font-stretch:normal;fill:#0a4e98;fill-opacity:1;stroke:none;font-family:DejaVu Sans"
       id="text2410">
      <path
         d="m 167.42175,317.40872 10.52735,0 0,32.86719 18.48437,0 0,7.95703 -29.01172,0 z"
         style=""
         id="path3261" />
      <path
         d="m 197.3905,317.40872 11.51172,0 9.29688,14.54688 9.29687,-14.54688 11.53906,0 -15.55859,23.625 0,17.19922 -10.52734,0 0,-17.19922 z"
         style=""
         id="path3263" />
      <path
         d="m 243.65613,317.40872 28.41015,0 0,7.95703 -17.88281,0 0,7.60157 16.81641,0 0,7.95703 -16.81641,0 0,17.30859 -10.52734,0 z"
         style=""
         id="path3265" />
      <path
         d="m 296.89441,335.51028 c 2.20571,3e-5 3.78708,-0.41013 4.74414,-1.23046 0.95701,-0.82029 1.43552,-2.16925 1.43555,-4.04688 -3e-5,-1.85934 -0.47854,-3.19007 -1.43555,-3.99219 -0.95706,-0.80205 -2.53843,-1.20309 -4.74414,-1.20312 l -4.42969,0 0,10.47265 z m -4.42969,7.27344 0,15.44922 -10.52734,0 0,-40.82422 16.07812,0 c 5.37758,4e-5 9.31963,0.90239 11.82617,2.70703 2.50648,1.80473 3.75973,4.65759 3.75977,8.5586 -4e-5,2.69794 -0.65173,4.91278 -1.95508,6.64453 -1.30342,1.73179 -3.26761,3.00783 -5.89258,3.82812 1.44008,0.32815 2.72979,1.07098 3.86914,2.22852 1.13929,1.15757 2.29229,2.91212 3.45899,5.26367 l 5.71484,11.59375 -11.21093,0 -4.97657,-10.14453 c -1.00263,-2.04166 -2.0189,-3.43618 -3.04883,-4.18359 -1.02996,-0.74739 -2.40171,-1.12108 -4.11523,-1.1211 z"
         style=""
         id="path3267" />
      <path
         d="m 349.80457,350.79544 -16.46094,0 -2.59766,7.4375 -10.58203,0 15.12109,-40.82422 12.55079,0 15.12109,40.82422 -10.58203,0 z m -13.83594,-7.57422 11.18359,0 -5.57812,-16.24219 z"
         style=""
         id="path3269" />
      <path
         d="m 368.34363,317.40872 10.52734,0 0,24.47266 c -10e-6,3.37241 0.55142,5.78321 1.6543,7.23242 1.10284,1.44923 2.90297,2.17384 5.40039,2.17383 2.5156,1e-5 4.32484,-0.7246 5.42773,-2.17383 1.10284,-1.44921 1.65427,-3.86001 1.6543,-7.23242 l 0,-24.47266 10.52734,0 0,24.47266 c -4e-5,5.77865 -1.44925,10.08073 -4.34765,12.90625 -2.89847,2.82552 -7.31904,4.23828 -13.26172,4.23828 -5.9245,0 -10.33595,-1.41276 -13.23438,-4.23828 -2.89844,-2.82552 -4.34766,-7.1276 -4.34765,-12.90625 z"
         style=""
         id="path3271" />
    </g>
  </g>
  <g
     style="font-size:30.65307236px;font-style:italic;font-variant:normal;font-weight:normal;font-stretch:normal;text-align:center;line-height:150%;writing-mode:lr-tb;text-anchor:middle;fill:#000000;fill-opacity:1;stroke:none;font-family:Charis SIL;-inkscape-font-specification:Charis SIL Italic"
     id="text2406"
     transform="translate(0.9653742,0)">
    <path
       d="m 15.897887,391.16467 -14.1576654,0 0,-1.28706 1.7809326,-0.14966 c 0.4290184,-0.0299 0.6734599,-0.22448 0.7333252,-0.58366 L 7.442199,372.65195 c 0.029926,-0.16959 0.00498,-0.30927 -0.074829,-0.41904 -0.079823,-0.10973 -0.2494352,-0.17458 -0.5088378,-0.19456 l -1.7061035,-0.14965 0,-1.28706 7.9618163,0 0,1.28706 -1.810864,0.14965 c -0.229485,0.02 -0.406581,0.0898 -0.531287,0.20953 -0.124724,0.11974 -0.202047,0.25443 -0.23197,0.40407 l -3.2475831,16.98621 6.0312251,0 c 0.199533,0 0.361663,-0.0574 0.48639,-0.17211 0.124703,-0.11473 0.221981,-0.2619 0.291833,-0.44149 l 1.092505,-3.53193 1.810864,0 z"
       style="font-size:30.64999962px"
       id="path3274"
       inkscape:connector-curvature="0" />
    <path
       d="m 26.134509,390.37148 c -0.119735,0.0499 -0.344222,0.13719 -0.673462,0.26191 -0.329255,0.12471 -0.698412,0.25442 -1.107471,0.38911 -0.409072,0.13469 -0.835597,0.25442 -1.279578,0.35918 -0.44399,0.10476 -0.845573,0.15714 -1.204748,0.15714 -0.468933,0 -0.868021,-0.0549 -1.197266,-0.16463 -0.32925,-0.10975 -0.598635,-0.26439 -0.808154,-0.46394 -0.209523,-0.19954 -0.361675,-0.4365 -0.456458,-0.71087 -0.09478,-0.27437 -0.142176,-0.57619 -0.142175,-0.90543 -1e-6,-0.3093 0.02993,-0.66848 0.08979,-1.07754 l 3.36731,-17.52498 -2.72378,-0.26938 0,-0.92788 4.789063,-0.91292 1.1823,0 -3.72649,19.54536 c -0.03991,0.20953 -0.02993,0.41655 0.02993,0.62108 0.05986,0.20454 0.154642,0.38413 0.284351,0.53877 0.129699,0.15465 0.289334,0.28186 0.478906,0.38163 0.189562,0.0998 0.394094,0.14966 0.613598,0.14966 0.149653,0 0.346703,-0.0274 0.59115,-0.0823 0.244436,-0.0549 0.491371,-0.11723 0.740808,-0.18708 0.249424,-0.0698 0.481394,-0.13967 0.695911,-0.20952 0.214502,-0.0698 0.366655,-0.11473 0.456458,-0.13469 z"
       style="font-size:30.64999962px"
       id="path3276"
       inkscape:connector-curvature="0" />
    <path
       d="m 40.74115,378.50359 c -0.119741,0.11974 -0.294342,0.33924 -0.523804,0.6585 -0.22949,0.31928 -0.466448,0.67846 -0.710876,1.07753 -0.244455,0.3991 -0.483908,0.81066 -0.71836,1.23468 -0.234477,0.42405 -0.421549,0.7957 -0.561218,1.11496 -0.21951,0.48889 -0.476423,1.08253 -0.77074,1.78093 -0.294338,0.69841 -0.623586,1.4492 -0.987744,2.25236 -0.364178,0.80317 -0.760772,1.63626 -1.189782,2.49929 -0.429029,0.86303 -0.887981,1.7086 -1.376856,2.5367 -0.478913,0.80816 -0.990245,1.60384 -1.533996,2.38705 -0.543764,0.78321 -1.119948,1.48162 -1.728553,2.09522 -0.608614,0.61359 -1.249649,1.10746 -1.923108,1.48161 -0.673463,0.37414 -1.374362,0.56122 -2.102697,0.56122 -0.558724,0 -1.022664,-0.0698 -1.391822,-0.20952 -0.369155,-0.13969 -0.663483,-0.31179 -0.882983,-0.51632 -0.219497,-0.20454 -0.371649,-0.42404 -0.456457,-0.6585 -0.0848,-0.23447 -0.127208,-0.44648 -0.12721,-0.63604 2e-6,-0.22948 0.05238,-0.45148 0.157141,-0.66598 0.104763,-0.21452 0.251927,-0.40408 0.441492,-0.5687 0.189569,-0.16463 0.414056,-0.29683 0.673462,-0.3966 0.259408,-0.0998 0.53877,-0.15964 0.838086,-0.17959 l 1.780932,1.78094 c 0.319269,-0.0299 0.633551,-0.15715 0.942847,-0.38163 0.309291,-0.22449 0.636044,-0.56123 0.980261,-1.0102 0.34421,-0.44897 0.72085,-1.01269 1.12992,-1.69113 0.40906,-0.67846 0.873,-1.4916 1.391821,-2.43943 -0.01996,-0.11973 -0.06985,-0.38662 -0.149658,-0.80067 -0.07982,-0.41406 -0.177101,-0.91791 -0.291834,-1.51155 -0.114743,-0.59364 -0.244447,-1.24964 -0.389111,-1.96801 -0.144675,-0.71835 -0.296827,-1.44669 -0.456458,-2.18501 -0.15964,-0.71835 -0.326758,-1.4392 -0.501355,-2.16256 -0.174605,-0.72334 -0.344217,-1.37435 -0.508838,-1.95304 -0.164627,-0.57866 -0.311791,-1.05258 -0.441491,-1.42175 -0.129707,-0.36914 -0.229479,-0.55871 -0.299317,-0.5687 l -2.783642,-0.20952 0,-0.76326 0.419043,-0.13469 c 0.199543,-0.0698 0.419042,-0.14216 0.658496,-0.21701 0.239452,-0.0748 0.49387,-0.15463 0.763257,-0.23945 0.269382,-0.0848 0.523801,-0.15962 0.763257,-0.22449 0.23945,-0.0648 0.456454,-0.11971 0.651013,-0.16462 0.194552,-0.0449 0.336727,-0.0673 0.426526,-0.0674 0.329244,2e-5 0.618582,0.0773 0.868017,0.23197 0.249426,0.15466 0.471418,0.37666 0.665979,0.66598 0.19455,0.28936 0.37414,0.63606 0.53877,1.04013 0.164618,0.40409 0.321759,0.86054 0.471423,1.36937 0.259401,0.90794 0.528785,2.03287 0.808154,3.37479 0.279355,1.34194 0.568694,2.83603 0.868018,4.48226 l 4.669336,-11.1645 0.882983,0 2.54419,0.83809 0,0.70339 z"
       style="font-size:30.64999962px"
       id="path3278"
       inkscape:connector-curvature="0" />
    <path
       d="m 54.988611,370.48191 c -1.4e-5,0.4889 -0.179603,0.86554 -0.53877,1.12992 -0.359192,0.26441 -0.823132,0.43652 -1.391821,0.51632 l -2.394531,-1.93059 c -0.219508,0.17961 -0.424041,0.43902 -0.613599,0.77822 -0.189575,0.33925 -0.364176,0.72337 -0.523804,1.15237 -0.159643,0.42904 -0.306807,0.8855 -0.441491,1.36937 -0.1347,0.48391 -0.251932,0.95284 -0.351697,1.40679 -0.09978,0.45398 -0.184586,0.87801 -0.254419,1.27209 -0.06985,0.39412 -0.124722,0.72087 -0.164624,0.98027 l 3.741455,0 0,1.52651 -4.025806,0 c -0.02994,0.22949 -0.08232,0.62858 -0.157141,1.19726 -0.07484,0.56872 -0.167124,1.22721 -0.276867,1.97549 -0.109756,0.7483 -0.226988,1.54897 -0.351697,2.40202 -0.124721,0.85305 -0.249436,1.67617 -0.374146,2.46936 -0.12472,0.79319 -0.246941,1.52402 -0.366662,2.19249 -0.119732,0.66847 -0.224492,1.19228 -0.314282,1.57141 -0.139686,0.5687 -0.331747,1.15486 -0.576184,1.75848 -0.244446,0.60362 -0.533785,1.18979 -0.868018,1.75849 -0.33424,0.5687 -0.703396,1.10747 -1.107471,1.61631 -0.404079,0.50883 -0.833098,0.95282 -1.28706,1.33196 -0.453964,0.37912 -0.927881,0.67844 -1.421753,0.89794 -0.493871,0.2195 -0.995226,0.32925 -1.504065,0.32925 -0.389109,0 -0.710874,-0.0649 -0.965295,-0.19455 -0.254416,-0.12971 -0.451466,-0.28187 -0.59115,-0.45646 -0.139678,-0.17461 -0.236955,-0.34422 -0.291834,-0.50884 -0.05487,-0.16463 -0.08231,-0.28685 -0.08231,-0.36666 4e-6,-0.38912 0.07483,-0.69093 0.224487,-0.90543 0.149662,-0.21452 0.339229,-0.40658 0.568702,-0.57619 l 3.127856,0.80816 c 0.269385,-0.32926 0.51632,-0.73333 0.740808,-1.21223 0.224486,-0.47891 0.429019,-1.00771 0.613599,-1.58638 0.184577,-0.57868 0.351695,-1.19976 0.501355,-1.86325 0.149656,-0.66348 0.284348,-1.34941 0.404077,-2.0578 0.259405,-1.44669 0.498858,-3.0605 0.718359,-4.84144 0.219496,-1.78092 0.483892,-3.67909 0.793189,-5.69449 l -2.3646,0.23945 0.02993,-1.19727 2.663916,-0.88298 c 0.09977,-0.53875 0.236954,-1.11993 0.41156,-1.74352 0.174596,-0.62356 0.391601,-1.24214 0.651013,-1.85576 0.259402,-0.61358 0.566201,-1.20473 0.920398,-1.77345 0.354185,-0.56868 0.760756,-1.07003 1.219714,-1.50406 0.458944,-0.43399 0.975265,-0.7807 1.548963,-1.04013 0.57368,-0.25938 1.209727,-0.38909 1.908142,-0.38911 0.518804,2e-5 0.9578,0.0649 1.316992,0.19456 0.359167,0.12972 0.648506,0.29185 0.868017,0.48639 0.219486,0.19457 0.379121,0.4016 0.478907,0.62108 0.09976,0.21952 0.149644,0.41906 0.149658,0.59863 z"
       style="font-size:30.64999962px"
       id="path3280"
       inkscape:connector-curvature="0" />
    <path
       d="m 63.893274,378.08455 c -1.3e-5,0.35919 -0.06486,0.64603 -0.194556,0.86053 -0.129716,0.21452 -0.314294,0.37665 -0.553735,0.48639 -0.239465,0.10976 -0.526309,0.1821 -0.860535,0.217 -0.334247,0.0349 -0.710886,0.0524 -1.129919,0.0524 l -0.733325,-1.46665 c -0.379143,0.15965 -0.785714,0.43652 -1.219715,0.83061 -0.434016,0.39411 -0.845576,0.84308 -1.23468,1.34692 -0.389117,0.50386 -0.728342,1.02268 -1.017676,1.55645 -0.289344,0.53379 -0.478911,1.02516 -0.568701,1.47413 l -1.601343,7.72236 -2.843505,0 2.633984,-13.02026 -2.574121,-0.28435 0,-0.88298 4.624438,-0.95782 1.227198,0 -0.643531,3.09793 c 0.628558,-0.96778 1.341928,-1.72605 2.140113,-2.27481 0.798168,-0.54873 1.661196,-0.8231 2.589086,-0.82312 0.369146,2e-5 0.67844,0.0674 0.927881,0.20204 0.249419,0.13471 0.451457,0.30682 0.606116,0.51632 0.154635,0.20954 0.264384,0.43403 0.329248,0.67346 0.06484,0.23947 0.09727,0.46396 0.09728,0.67347 z"
       style="font-size:30.64999962px"
       id="path3282"
       inkscape:connector-curvature="0" />
    <path
       d="m 74.219688,379.14712 c 0.01,-0.0499 -0.02745,-0.16461 -0.112244,-0.34421 -0.08482,-0.17958 -0.187084,-0.36665 -0.306799,-0.56122 -0.119738,-0.19455 -0.246947,-0.36665 -0.381629,-0.51632 -0.134703,-0.14965 -0.246946,-0.22448 -0.336731,-0.22449 -0.778232,1e-5 -1.474142,0.12722 -2.087732,0.38163 -0.613606,0.25443 -1.14988,0.59864 -1.608825,1.03264 -0.458958,0.43402 -0.850563,0.93537 -1.174817,1.50406 -0.324265,0.56872 -0.586166,1.16236 -0.785706,1.78094 -0.199548,0.61859 -0.344218,1.24217 -0.434008,1.87072 -0.0898,0.62858 -0.134697,1.22721 -0.134693,1.7959 -4e-6,0.42903 0.03492,0.85805 0.104761,1.28706 0.06984,0.42903 0.192057,0.81814 0.366663,1.16734 0.174596,0.3492 0.414049,0.63355 0.718359,0.85305 0.304299,0.2195 0.695905,0.32925 1.174817,0.32925 0.359173,0 0.718352,-0.0798 1.077539,-0.23946 0.359172,-0.15963 0.693408,-0.34421 1.00271,-0.55373 0.309285,-0.20952 0.578669,-0.41904 0.808154,-0.62857 0.229466,-0.20951 0.399079,-0.36915 0.508838,-0.4789 z m 4.504712,11.19443 c -0.119743,0.0499 -0.339241,0.14218 -0.658497,0.27687 -0.319285,0.13469 -0.67597,0.26939 -1.070056,0.40408 -0.394113,0.13469 -0.793202,0.25442 -1.197265,0.35918 -0.40409,0.10476 -0.755786,0.15714 -1.055091,0.15714 -0.369168,0 -0.680956,-0.0449 -0.935363,-0.13469 -0.25443,-0.0898 -0.463951,-0.22449 -0.628565,-0.40408 -0.164634,-0.17959 -0.291843,-0.39909 -0.381628,-0.6585 -0.0898,-0.2594 -0.149668,-0.55872 -0.17959,-0.89795 -0.229486,0.2195 -0.49887,0.45147 -0.808154,0.69591 -0.309303,0.24445 -0.651022,0.47143 -1.025159,0.68095 -0.374153,0.20952 -0.773241,0.38163 -1.197266,0.51632 -0.424038,0.13469 -0.865529,0.20204 -1.324475,0.20204 -0.598637,0 -1.124935,-0.0848 -1.578894,-0.25442 -0.453966,-0.16961 -0.845572,-0.39659 -1.174817,-0.68095 -0.32925,-0.28435 -0.601129,-0.61359 -0.815637,-0.98774 -0.214512,-0.37414 -0.386618,-0.76325 -0.516321,-1.16733 -0.129705,-0.40408 -0.219499,-0.81314 -0.269384,-1.2272 -0.04989,-0.41405 -0.07483,-0.80566 -0.07483,-1.17482 -10e-7,-0.78819 0.0848,-1.58387 0.254418,-2.38705 0.169612,-0.80315 0.421536,-1.57639 0.755774,-2.3197 0.334235,-0.74329 0.750783,-1.4392 1.249646,-2.08773 0.498857,-0.64851 1.075041,-1.21222 1.728553,-1.69114 0.653501,-0.47889 1.381837,-0.85553 2.185009,-1.12992 0.803158,-0.27436 1.683646,-0.41154 2.641468,-0.41156 0.279351,2e-5 0.556219,0.0324 0.830603,0.0973 0.274362,0.0649 0.531275,0.14967 0.770739,0.25442 0.239442,0.10478 0.45894,0.22201 0.658496,0.3517 0.199532,0.12971 0.369145,0.26441 0.508838,0.40407 l 0.448975,-0.73332 2.095215,0 c -0.0499,0.11974 -0.104776,0.26191 -0.164624,0.42652 -0.05988,0.16464 -0.119742,0.33176 -0.17959,0.50136 -0.05988,0.16963 -0.112258,0.32926 -0.157141,0.47891 -0.04491,0.14967 -0.07235,0.2644 -0.08231,0.34421 -0.06986,0.2694 -0.169627,0.67597 -0.299317,1.21971 -0.129718,0.54377 -0.266904,1.15488 -0.41156,1.83332 -0.144683,0.67846 -0.294341,1.38933 -0.448974,2.13263 -0.15466,0.74331 -0.291847,1.4467 -0.41156,2.11018 -0.11974,0.66349 -0.219512,1.25214 -0.299317,1.76596 -0.07983,0.51383 -0.119739,0.88548 -0.119726,1.11496 -1.3e-5,0.53877 0.114725,0.90793 0.344214,1.10747 0.229462,0.19954 0.553721,0.29932 0.972778,0.29931 0.09976,10e-6 0.246922,-0.0224 0.441492,-0.0673 0.194541,-0.0449 0.396579,-0.0973 0.606115,-0.15714 0.209507,-0.0599 0.404062,-0.11474 0.583667,-0.16463 0.179574,-0.0499 0.309278,-0.0848 0.389112,-0.10476 z"
       style="font-size:30.64999962px"
       id="path3284"
       inkscape:connector-curvature="0" />
    <path
       d="m 94.887487,390.43135 c -0.189583,0.10975 -0.451485,0.22947 -0.785706,0.35918 -0.334251,0.1297 -0.695925,0.24943 -1.085022,0.35918 -0.389125,0.10975 -0.785718,0.20204 -1.189782,0.27686 -0.40409,0.0748 -0.770752,0.11225 -1.099988,0.11225 -0.57869,0 -1.007709,-0.0973 -1.287061,-0.29184 -0.279372,-0.19455 -0.471433,-0.41904 -0.576184,-0.67346 -0.10477,-0.25442 -0.152162,-0.51133 -0.142175,-0.77074 0.01,-0.2594 0.01496,-0.44897 0.01497,-0.5687 -0.808163,0.76825 -1.653731,1.34443 -2.536707,1.72855 -0.882989,0.38413 -1.838307,0.57619 -2.865954,0.57619 -0.708386,0 -1.287064,-0.12472 -1.736035,-0.37415 -0.448977,-0.24943 -0.788202,-0.56371 -1.017676,-0.94284 -0.229477,-0.37914 -0.369158,-0.79319 -0.419043,-1.24217 -0.04989,-0.44897 -0.03492,-0.873 0.0449,-1.27209 l 1.990455,-9.56316 -2.574122,-0.28435 0,-0.88298 4.624439,-0.95782 1.257129,0 -2.439429,11.68831 c -0.05987,0.25941 -0.0474,0.50634 0.03742,0.74081 0.0848,0.23446 0.209517,0.439 0.374145,0.6136 0.164619,0.1746 0.351692,0.31428 0.561218,0.41904 0.209516,0.10476 0.414049,0.15714 0.613599,0.15714 0.369151,0 0.740802,-0.0524 1.114954,-0.15714 0.374138,-0.10476 0.745789,-0.24694 1.114953,-0.42653 0.369149,-0.17959 0.723339,-0.38661 1.062573,-0.62108 0.339216,-0.23446 0.653498,-0.48639 0.942847,-0.75577 l 2.319702,-11.28423 2.858472,0 -2.454395,11.79306 c -0.06985,0.31928 -0.06985,0.58617 0,0.80068 0.06983,0.21451 0.177083,0.3916 0.321766,0.53128 0.144656,0.13969 0.30928,0.23946 0.493872,0.29932 0.184564,0.0599 0.36166,0.0898 0.531286,0.0898 0.19953,10e-6 0.463926,-0.0299 0.793189,-0.0898 0.329232,-0.0599 0.708366,-0.21451 1.137402,-0.46394 z"
       style="font-size:30.64999962px"
       id="path3286"
       inkscape:connector-curvature="0" />
    <path
       d="m 115.34576,379.14712 c 0.01,-0.0499 -0.0275,-0.16461 -0.11224,-0.34421 -0.0848,-0.17958 -0.18708,-0.36665 -0.3068,-0.56122 -0.11974,-0.19455 -0.24695,-0.36665 -0.38163,-0.51632 -0.1347,-0.14965 -0.24694,-0.22448 -0.33673,-0.22449 -0.77823,1e-5 -1.47414,0.12722 -2.08773,0.38163 -0.61361,0.25443 -1.14988,0.59864 -1.60883,1.03264 -0.45895,0.43402 -0.85056,0.93537 -1.17481,1.50406 -0.32427,0.56872 -0.58617,1.16236 -0.78571,1.78094 -0.19955,0.61859 -0.34422,1.24217 -0.43401,1.87072 -0.0898,0.62858 -0.13469,1.22721 -0.13469,1.7959 0,0.42903 0.0349,0.85805 0.10476,1.28706 0.0698,0.42903 0.19206,0.81814 0.36666,1.16734 0.1746,0.3492 0.41405,0.63355 0.71836,0.85305 0.3043,0.2195 0.69591,0.32925 1.17482,0.32925 0.35917,0 0.71835,-0.0798 1.07754,-0.23946 0.35917,-0.15963 0.69341,-0.34421 1.00271,-0.55373 0.30928,-0.20952 0.57867,-0.41904 0.80815,-0.62857 0.22947,-0.20951 0.39908,-0.36915 0.50884,-0.4789 z m 4.50472,11.19443 c -0.11975,0.0499 -0.33925,0.14218 -0.6585,0.27687 -0.31929,0.13469 -0.67597,0.26939 -1.07006,0.40408 -0.39411,0.13469 -0.7932,0.25442 -1.19726,0.35918 -0.40409,0.10476 -0.75579,0.15714 -1.05509,0.15714 -0.36917,0 -0.68096,-0.0449 -0.93537,-0.13469 -0.25443,-0.0898 -0.46395,-0.22449 -0.62856,-0.40408 -0.16464,-0.17959 -0.29184,-0.39909 -0.38163,-0.6585 -0.0898,-0.2594 -0.14967,-0.55872 -0.17959,-0.89795 -0.22948,0.2195 -0.49887,0.45147 -0.80815,0.69591 -0.30931,0.24445 -0.65103,0.47143 -1.02516,0.68095 -0.37416,0.20952 -0.77324,0.38163 -1.19727,0.51632 -0.42404,0.13469 -0.86553,0.20204 -1.32447,0.20204 -0.59864,0 -1.12494,-0.0848 -1.5789,-0.25442 -0.45396,-0.16961 -0.84557,-0.39659 -1.17481,-0.68095 -0.32925,-0.28435 -0.60113,-0.61359 -0.81564,-0.98774 -0.21451,-0.37414 -0.38662,-0.76325 -0.51632,-1.16733 -0.12971,-0.40408 -0.2195,-0.81314 -0.26939,-1.2272 -0.0499,-0.41405 -0.0748,-0.80566 -0.0748,-1.17482 0,-0.78819 0.0848,-1.58387 0.25442,-2.38705 0.16961,-0.80315 0.42154,-1.57639 0.75578,-2.3197 0.33423,-0.74329 0.75078,-1.4392 1.24964,-2.08773 0.49886,-0.64851 1.07504,-1.21222 1.72856,-1.69114 0.6535,-0.47889 1.38183,-0.85553 2.18501,-1.12992 0.80315,-0.27436 1.68364,-0.41154 2.64146,-0.41156 0.27935,2e-5 0.55622,0.0324 0.83061,0.0973 0.27436,0.0649 0.53127,0.14967 0.77074,0.25442 0.23944,0.10478 0.45894,0.22201 0.65849,0.3517 0.19953,0.12971 0.36915,0.26441 0.50884,0.40407 l 0.44897,-0.73332 2.09522,0 c -0.0499,0.11974 -0.10478,0.26191 -0.16463,0.42652 -0.0599,0.16464 -0.11974,0.33176 -0.17959,0.50136 -0.0599,0.16963 -0.11225,0.32926 -0.15714,0.47891 -0.0449,0.14967 -0.0724,0.2644 -0.0823,0.34421 -0.0699,0.2694 -0.16963,0.67597 -0.29931,1.21971 -0.12972,0.54377 -0.26691,1.15488 -0.41156,1.83332 -0.14469,0.67846 -0.29435,1.38933 -0.44898,2.13263 -0.15466,0.74331 -0.29185,1.4467 -0.41156,2.11018 -0.11974,0.66349 -0.21951,1.25214 -0.29932,1.76596 -0.0798,0.51383 -0.11974,0.88548 -0.11972,1.11496 -2e-5,0.53877 0.11472,0.90793 0.34421,1.10747 0.22946,0.19954 0.55372,0.29932 0.97278,0.29931 0.0998,10e-6 0.24692,-0.0224 0.44149,-0.0673 0.19454,-0.0449 0.39658,-0.0973 0.60612,-0.15714 0.2095,-0.0599 0.40406,-0.11474 0.58366,-0.16463 0.17958,-0.0499 0.30928,-0.0848 0.38912,-0.10476 z"
       style="font-size:30.64999962px"
       id="path3288"
       inkscape:connector-curvature="0" />
    <path
       d="m 143.64613,390.37148 c -0.25943,0.10975 -0.55126,0.23198 -0.8755,0.36667 -0.32428,0.13469 -0.65852,0.2619 -1.00271,0.38163 -0.34423,0.11972 -0.68595,0.21949 -1.02516,0.29931 -0.33924,0.0798 -0.65851,0.11973 -0.95781,0.11973 -0.41906,0 -0.7957,-0.0474 -1.12992,-0.14218 -0.33426,-0.0948 -0.61362,-0.23197 -0.83809,-0.41156 -0.2245,-0.17959 -0.38414,-0.40407 -0.4789,-0.67346 -0.0948,-0.26938 -0.10727,-0.57868 -0.0374,-0.92788 l 1.69114,-8.1863 c 0.0998,-0.50883 0.13467,-0.95282 0.10476,-1.33196 -0.0299,-0.37912 -0.10727,-0.69341 -0.23197,-0.94285 -0.12473,-0.24942 -0.27938,-0.43649 -0.46394,-0.56122 -0.1846,-0.1247 -0.37666,-0.18706 -0.57618,-0.18707 -0.46895,1e-5 -0.92541,0.10477 -1.36938,0.31428 -0.444,0.20954 -0.85057,0.45647 -1.21971,0.74081 -0.36917,0.28436 -0.68844,0.5737 -0.95781,0.86802 -0.2694,0.29434 -0.45398,0.5313 -0.55374,0.71088 l -2.15508,10.35634 -2.8435,0 2.05032,-9.99716 c 0.0698,-0.32924 0.10225,-0.67096 0.0973,-1.02516 -0.005,-0.35418 -0.0549,-0.67595 -0.14965,-0.9653 -0.0948,-0.28933 -0.24196,-0.52878 -0.4415,-0.71836 -0.19955,-0.18955 -0.46395,-0.28434 -0.79318,-0.28435 -0.35919,1e-5 -0.74082,0.10477 -1.14489,0.31428 -0.40409,0.20954 -0.7932,0.45897 -1.16733,0.74829 -0.37416,0.28936 -0.71338,0.58618 -1.01768,0.89047 -0.30431,0.30432 -0.53129,0.55125 -0.68094,0.74081 l -2.15508,10.29648 -2.81358,0 2.63399,-13.02026 -2.54419,-0.28435 0,-0.88298 4.5945,-0.95782 1.25713,0 -0.58366,2.82854 c 0.37912,-0.35916 0.7832,-0.71086 1.21223,-1.05509 0.42901,-0.3442 0.873,-0.64601 1.33196,-0.90543 0.45894,-0.25939 0.92288,-0.46891 1.39182,-0.62856 0.46892,-0.15962 0.92787,-0.23944 1.37685,-0.23946 0.50883,2e-5 0.93037,0.0948 1.26461,0.28435 0.33423,0.18959 0.60361,0.42654 0.80816,0.71088 0.20452,0.28436 0.35418,0.59116 0.44897,0.9204 0.0948,0.32926 0.16212,0.63356 0.20204,0.91291 0.36914,-0.36914 0.77821,-0.72333 1.2272,-1.06257 0.44896,-0.33921 0.91789,-0.64102 1.40679,-0.90543 0.48886,-0.26438 0.98523,-0.47391 1.4891,-0.62857 0.50383,-0.15463 0.99021,-0.23195 1.45916,-0.23197 0.50882,2e-5 0.9553,0.0923 1.33944,0.27687 0.38411,0.18459 0.6934,0.4465 0.92788,0.78571 0.23445,0.33924 0.38411,0.7483 0.44898,1.22719 0.0648,0.47892 0.0374,1.0127 -0.0823,1.60135 l -1.72107,8.27609 c -0.0499,0.24944 -0.0449,0.47642 0.015,0.68095 0.0599,0.20453 0.15214,0.38163 0.27687,0.53129 0.1247,0.14966 0.27685,0.26689 0.45646,0.35169 0.17957,0.0848 0.36913,0.12721 0.5687,0.12721 0.24941,0 0.53875,-0.0599 0.86802,-0.17959 0.32922,-0.11972 0.68341,-0.24444 1.06257,-0.37414 z"
       style="font-size:30.64999962px"
       id="path3290"
       inkscape:connector-curvature="0" />
    <path
       d="m 165.4214,388.53069 c -0.0499,0.28934 -0.0349,0.5238 0.0449,0.70339 0.0798,0.17959 0.18706,0.32177 0.32176,0.42653 0.13468,0.10476 0.27436,0.17709 0.41905,0.217 0.14465,0.0399 0.25191,0.0599 0.32176,0.0599 0.0698,0 0.212,-0.0274 0.42653,-0.0823 0.21449,-0.0549 0.44147,-0.11723 0.68094,-0.18707 0.23944,-0.0698 0.46393,-0.13469 0.67346,-0.19455 l 0.41905,-0.11973 0,1.1374 c -0.11975,0.0499 -0.33924,0.1322 -0.6585,0.24694 -0.31928,0.11474 -0.67348,0.23197 -1.06257,0.35169 -0.38913,0.11973 -0.79071,0.22449 -1.20475,0.31429 -0.41407,0.0898 -0.77574,0.13469 -1.08502,0.13469 -0.46894,0 -0.85307,-0.0574 -1.15237,-0.17211 -0.29933,-0.11474 -0.53379,-0.27437 -0.70339,-0.4789 -0.16963,-0.20454 -0.28686,-0.44648 -0.3517,-0.72585 -0.0649,-0.27936 -0.0973,-0.58865 -0.0973,-0.92788 -0.26939,0.28934 -0.56621,0.5712 -0.89046,0.84557 -0.32427,0.27438 -0.67098,0.51882 -1.04013,0.73333 -0.36916,0.21451 -0.75827,0.38911 -1.16733,0.5238 -0.40908,0.13469 -0.82812,0.20204 -1.25713,0.20204 -0.85805,0 -1.56892,-0.16463 -2.13263,-0.49387 -0.56372,-0.32925 -1.0102,-0.75827 -1.33944,-1.28706 -0.32925,-0.52879 -0.56122,-1.11745 -0.69591,-1.76597 -0.1347,-0.64852 -0.20204,-1.29703 -0.20204,-1.94556 0,-0.80815 0.0873,-1.61879 0.2619,-2.43194 0.1746,-0.81314 0.43401,-1.59136 0.77822,-2.33467 0.34421,-0.74329 0.76575,-1.43421 1.26461,-2.07277 0.49886,-0.63853 1.06756,-1.19476 1.70611,-1.66869 0.63853,-0.4739 1.34941,-0.84555 2.13263,-1.11495 0.7832,-0.26937 1.62378,-0.40406 2.52174,-0.40408 0.22946,2e-5 0.45395,0.0225 0.67346,0.0674 0.21949,0.0449 0.42901,0.0973 0.62856,0.15714 0.19954,0.0599 0.38412,0.12473 0.55374,0.19456 0.1696,0.0698 0.31926,0.12473 0.44897,0.16462 l 1.03265,-5.9115 -2.78365,-0.26938 0,-0.92788 4.74417,-0.91292 1.25713,0 z m -1.19726,-9.44343 c 0.01,-0.0399 -0.0474,-0.15214 -0.17211,-0.33673 -0.12473,-0.18457 -0.28436,-0.37663 -0.47891,-0.57619 -0.19456,-0.19953 -0.40658,-0.37912 -0.63604,-0.53877 -0.22949,-0.15962 -0.444,-0.23944 -0.64354,-0.23945 -0.7483,1e-5 -1.46167,0.21702 -2.14011,0.65101 -0.67845,0.43402 -1.27709,1.03016 -1.7959,1.78842 -0.51882,0.75828 -0.93287,1.65373 -1.24216,2.68636 -0.3093,1.03265 -0.46394,2.1476 -0.46394,3.34486 0,0.6585 0.0673,1.2272 0.20204,1.70611 0.13469,0.47891 0.31428,0.873 0.53877,1.1823 0.22448,0.30929 0.48139,0.53877 0.77074,0.68842 0.28933,0.14966 0.58366,0.22449 0.88298,0.22449 0.27936,0 0.58117,-0.0698 0.90543,-0.20952 0.32426,-0.13968 0.65101,-0.32675 0.98027,-0.56122 0.32923,-0.23446 0.65599,-0.50385 0.98026,-0.80815 0.32425,-0.3043 0.62606,-0.61609 0.90543,-0.93537 z"
       style="font-size:30.64999962px"
       id="path3292"
       inkscape:connector-curvature="0" />
    <path
       d="m 181.52461,388.53069 c -0.0499,0.28934 -0.0349,0.5238 0.0449,0.70339 0.0798,0.17959 0.18706,0.32177 0.32176,0.42653 0.13468,0.10476 0.27436,0.17709 0.41905,0.217 0.14465,0.0399 0.25191,0.0599 0.32176,0.0599 0.0698,0 0.212,-0.0274 0.42653,-0.0823 0.21449,-0.0549 0.44148,-0.11723 0.68094,-0.18707 0.23944,-0.0698 0.46393,-0.13469 0.67346,-0.19455 l 0.41905,-0.11973 0,1.1374 c -0.11974,0.0499 -0.33924,0.1322 -0.6585,0.24694 -0.31928,0.11474 -0.67347,0.23197 -1.06257,0.35169 -0.38913,0.11973 -0.79071,0.22449 -1.20475,0.31429 -0.41407,0.0898 -0.77574,0.13469 -1.08502,0.13469 -0.46894,0 -0.85306,-0.0574 -1.15237,-0.17211 -0.29933,-0.11474 -0.53379,-0.27437 -0.70339,-0.4789 -0.16963,-0.20454 -0.28686,-0.44648 -0.3517,-0.72585 -0.0649,-0.27936 -0.0973,-0.58865 -0.0973,-0.92788 -0.26939,0.28934 -0.56621,0.5712 -0.89046,0.84557 -0.32427,0.27438 -0.67098,0.51882 -1.04013,0.73333 -0.36916,0.21451 -0.75827,0.38911 -1.16733,0.5238 -0.40907,0.13469 -0.82812,0.20204 -1.25713,0.20204 -0.85805,0 -1.56892,-0.16463 -2.13263,-0.49387 -0.56372,-0.32925 -1.0102,-0.75827 -1.33944,-1.28706 -0.32925,-0.52879 -0.56122,-1.11745 -0.69591,-1.76597 -0.1347,-0.64852 -0.20204,-1.29703 -0.20204,-1.94556 0,-0.80815 0.0873,-1.61879 0.2619,-2.43194 0.1746,-0.81314 0.43401,-1.59136 0.77822,-2.33467 0.34421,-0.74329 0.76575,-1.43421 1.26461,-2.07277 0.49886,-0.63853 1.06756,-1.19476 1.70611,-1.66869 0.63853,-0.4739 1.34941,-0.84555 2.13263,-1.11495 0.7832,-0.26937 1.62378,-0.40406 2.52174,-0.40408 0.22946,2e-5 0.45395,0.0225 0.67346,0.0674 0.21949,0.0449 0.42901,0.0973 0.62856,0.15714 0.19954,0.0599 0.38412,0.12473 0.55374,0.19456 0.1696,0.0698 0.31926,0.12473 0.44897,0.16462 l 1.03265,-5.9115 -2.78365,-0.26938 0,-0.92788 4.74417,-0.91292 1.25713,0 z m -1.19726,-9.44343 c 0.01,-0.0399 -0.0474,-0.15214 -0.17211,-0.33673 -0.12473,-0.18457 -0.28436,-0.37663 -0.47891,-0.57619 -0.19456,-0.19953 -0.40658,-0.37912 -0.63604,-0.53877 -0.22949,-0.15962 -0.444,-0.23944 -0.64353,-0.23945 -0.7483,1e-5 -1.46167,0.21702 -2.14012,0.65101 -0.67845,0.43402 -1.27709,1.03016 -1.7959,1.78842 -0.51882,0.75828 -0.93287,1.65373 -1.24216,2.68636 -0.3093,1.03265 -0.46394,2.1476 -0.46394,3.34486 0,0.6585 0.0673,1.2272 0.20204,1.70611 0.13469,0.47891 0.31428,0.873 0.53877,1.1823 0.22448,0.30929 0.48139,0.53877 0.77074,0.68842 0.28933,0.14966 0.58366,0.22449 0.88298,0.22449 0.27936,0 0.58117,-0.0698 0.90543,-0.20952 0.32426,-0.13968 0.65101,-0.32675 0.98027,-0.56122 0.32924,-0.23446 0.65599,-0.50385 0.98026,-0.80815 0.32425,-0.3043 0.62606,-0.61609 0.90543,-0.93537 z"
       style="font-size:30.64999962px"
       id="path3294"
       inkscape:connector-curvature="0" />
    <path
       d="m 192.97347,390.28169 c -0.11974,0.0499 -0.33924,0.14467 -0.6585,0.28435 -0.31928,0.13968 -0.69342,0.28186 -1.12244,0.42653 -0.42902,0.14467 -0.88049,0.27187 -1.3544,0.38162 -0.47392,0.10975 -0.9204,0.16463 -1.33944,0.16463 -0.5288,0 -0.94784,-0.0898 -1.25713,-0.26939 -0.3093,-0.17959 -0.53877,-0.41405 -0.68843,-0.70339 -0.14966,-0.28934 -0.23447,-0.6136 -0.25442,-0.97278 -0.0199,-0.35918 0.005,-0.71337 0.0748,-1.06257 l 1.96052,-10.38628 -2.63398,-0.28435 0,-0.88298 4.62444,-0.95782 1.25713,0 -2.31971,12.25701 c -0.0399,0.20952 -0.0374,0.40907 0.007,0.59863 0.0449,0.18957 0.11972,0.35669 0.22448,0.50136 0.10476,0.14467 0.23945,0.25941 0.40408,0.34421 0.16462,0.0848 0.35169,0.12721 0.56122,0.12721 0.17958,0 0.3916,-0.0324 0.63605,-0.0973 0.24443,-0.0649 0.48887,-0.13968 0.73332,-0.22448 0.24444,-0.0848 0.47142,-0.16712 0.68095,-0.24694 0.20951,-0.0798 0.36416,-0.13469 0.46394,-0.16462 z m -0.1347,-18.76714 c 0,0.2295 -0.0424,0.4465 -0.1272,0.65101 -0.0848,0.20456 -0.20455,0.38664 -0.35918,0.54626 -0.15466,0.15965 -0.34672,0.28686 -0.57619,0.38163 -0.22948,0.0948 -0.49388,0.14219 -0.79319,0.14217 -0.62857,2e-5 -1.10248,-0.1671 -1.42175,-0.50135 -0.31927,-0.33422 -0.47891,-0.74079 -0.47891,-1.21972 0,-0.19952 0.0424,-0.39907 0.12721,-0.59863 0.0848,-0.19953 0.20952,-0.38161 0.37415,-0.54625 0.16462,-0.16461 0.36666,-0.2993 0.60611,-0.40408 0.23945,-0.10474 0.51383,-0.15712 0.82312,-0.15714 0.28934,2e-5 0.54625,0.0499 0.77074,0.14966 0.22448,0.0998 0.41655,0.22949 0.57619,0.38911 0.15963,0.15965 0.27935,0.34174 0.35918,0.54625 0.0798,0.20455 0.11972,0.41158 0.11972,0.62108 z"
       style="font-size:30.64999962px"
       id="path3296"
       inkscape:connector-curvature="0" />
    <path
       d="m 216.73919,390.37148 c -0.25943,0.10975 -0.55127,0.23198 -0.8755,0.36667 -0.32429,0.13469 -0.65852,0.2619 -1.00271,0.38163 -0.34424,0.11972 -0.68596,0.21949 -1.02516,0.29931 -0.33925,0.0798 -0.65852,0.11973 -0.95781,0.11973 -0.41907,0 -0.79571,-0.0474 -1.12992,-0.14218 -0.33426,-0.0948 -0.61362,-0.23197 -0.83809,-0.41156 -0.22451,-0.17959 -0.38414,-0.40407 -0.47891,-0.67346 -0.0948,-0.26938 -0.10727,-0.57868 -0.0374,-0.92788 l 1.69114,-8.1863 c 0.0998,-0.50883 0.13467,-0.95282 0.10476,-1.33196 -0.03,-0.37912 -0.10728,-0.69341 -0.23197,-0.94285 -0.12474,-0.24942 -0.27938,-0.43649 -0.46394,-0.56122 -0.1846,-0.1247 -0.37666,-0.18706 -0.57619,-0.18707 -0.46894,1e-5 -0.9254,0.10477 -1.36937,0.31428 -0.444,0.20954 -0.85057,0.45647 -1.21971,0.74081 -0.36918,0.28436 -0.68845,0.5737 -0.95782,0.86802 -0.2694,0.29434 -0.45397,0.5313 -0.55373,0.71088 l -2.15508,10.35634 -2.84351,0 2.05032,-9.99716 c 0.0698,-0.32924 0.10226,-0.67096 0.0973,-1.02516 -0.005,-0.35418 -0.0549,-0.67595 -0.14966,-0.9653 -0.0948,-0.28933 -0.24196,-0.52878 -0.44149,-0.71836 -0.19956,-0.18955 -0.46395,-0.28434 -0.79319,-0.28435 -0.35919,1e-5 -0.74082,0.10477 -1.14488,0.31428 -0.40409,0.20954 -0.7932,0.45897 -1.16734,0.74829 -0.37415,0.28936 -0.71338,0.58618 -1.01767,0.89047 -0.30431,0.30432 -0.5313,0.55125 -0.68095,0.74081 l -2.15508,10.29648 -2.81357,0 2.63398,-13.02026 -2.54419,-0.28435 0,-0.88298 4.59451,-0.95782 1.25713,0 -0.58367,2.82854 c 0.37913,-0.35916 0.78321,-0.71086 1.21223,-1.05509 0.42902,-0.3442 0.873,-0.64601 1.33196,-0.90543 0.45894,-0.25939 0.92288,-0.46891 1.39182,-0.62856 0.46892,-0.15962 0.92787,-0.23944 1.37686,-0.23946 0.50882,2e-5 0.93036,0.0948 1.26461,0.28435 0.33422,0.18959 0.60361,0.42654 0.80815,0.71088 0.20452,0.28436 0.35418,0.59116 0.44898,0.9204 0.0948,0.32926 0.16212,0.63356 0.20204,0.91291 0.36914,-0.36914 0.77821,-0.72333 1.2272,-1.06257 0.44895,-0.33921 0.91788,-0.64102 1.40678,-0.90543 0.48887,-0.26438 0.98523,-0.47391 1.4891,-0.62857 0.50383,-0.15463 0.99022,-0.23195 1.45917,-0.23197 0.50882,2e-5 0.9553,0.0923 1.33944,0.27687 0.3841,0.18459 0.69339,0.4465 0.92788,0.78571 0.23444,0.33924 0.3841,0.7483 0.44898,1.22719 0.0648,0.47892 0.0374,1.0127 -0.0823,1.60135 l -1.72107,8.27609 c -0.0499,0.24944 -0.0449,0.47642 0.015,0.68095 0.0598,0.20453 0.15213,0.38163 0.27687,0.53129 0.12469,0.14966 0.27684,0.26689 0.45645,0.35169 0.17957,0.0848 0.36914,0.12721 0.56871,0.12721 0.2494,0 0.53874,-0.0599 0.86801,-0.17959 0.32923,-0.11972 0.68342,-0.24444 1.06258,-0.37414 z"
       style="font-size:30.64999962px"
       id="path3298"
       inkscape:connector-curvature="0" />
    <path
       d="m 235.85055,379.08726 c -1e-5,-0.19954 -0.0399,-0.39659 -0.11973,-0.59115 -0.0798,-0.19455 -0.18957,-0.36665 -0.32925,-0.51632 -0.13969,-0.14965 -0.31429,-0.27187 -0.5238,-0.36667 -0.20953,-0.0948 -0.43901,-0.14216 -0.68843,-0.14217 -0.33923,10e-6 -0.66349,0.0898 -0.97278,0.26938 -0.3093,0.17961 -0.60612,0.41906 -0.89046,0.71836 -0.28436,0.29933 -0.54875,0.64354 -0.79319,1.03264 -0.24445,0.38913 -0.46395,0.79819 -0.6585,1.2272 -0.19456,0.42903 -0.36666,0.86304 -0.51632,1.30203 -0.14966,0.439 -0.26939,0.85306 -0.35918,1.24216 0.64852,-0.0599 1.31948,-0.20951 2.01291,-0.44897 0.69341,-0.23945 1.32446,-0.54625 1.89317,-0.9204 0.56869,-0.37414 1.03513,-0.80066 1.39931,-1.27958 0.36415,-0.4789 0.54624,-0.98773 0.54625,-1.52651 z m 2.72378,0.0299 c -1e-5,0.55873 -0.12972,1.07256 -0.38911,1.54148 -0.25942,0.46894 -0.61112,0.89297 -1.05509,1.27209 -0.444,0.37914 -0.95783,0.71588 -1.54148,1.01019 -0.58368,0.29434 -1.19728,0.54377 -1.8408,0.7483 -0.64354,0.20454 -1.29954,0.36916 -1.968,0.49387 -0.66848,0.12472 -1.30702,0.20204 -1.91563,0.23197 -0.0299,0.19955 -0.0574,0.439 -0.0823,0.71836 -0.025,0.27937 -0.0374,0.51383 -0.0374,0.70339 0,0.55873 0.0673,1.07256 0.20204,1.54148 0.13469,0.46893 0.32925,0.8755 0.58367,1.21971 0.25441,0.34422 0.56121,0.61361 0.9204,0.80816 0.35917,0.19456 0.76325,0.29183 1.21223,0.29183 0.68842,0 1.44669,-0.24943 2.2748,-0.74829 0.8281,-0.49886 1.80587,-1.24216 2.9333,-2.22991 l 0,1.9306 c -0.28935,0.27936 -0.64354,0.58616 -1.06257,0.92039 -0.41905,0.33424 -0.89546,0.64852 -1.42923,0.94285 -0.53379,0.29433 -1.11497,0.53877 -1.74352,0.73332 -0.62857,0.19456 -1.29206,0.29184 -1.99046,0.29184 -0.3093,0 -0.64603,-0.0299 -1.01019,-0.0898 -0.36417,-0.0599 -0.72585,-0.16712 -1.08502,-0.32176 -0.35918,-0.15465 -0.70589,-0.36666 -1.04013,-0.63605 -0.33424,-0.26938 -0.62856,-0.6111 -0.88298,-1.02516 -0.25442,-0.41405 -0.45895,-0.90792 -0.6136,-1.48161 -0.15465,-0.57369 -0.23197,-1.24965 -0.23197,-2.02787 0,-0.80815 0.0973,-1.61381 0.29184,-2.41698 0.19455,-0.80316 0.46892,-1.5714 0.82312,-2.30474 0.35418,-0.73331 0.78071,-1.41675 1.27957,-2.05032 0.49886,-0.63354 1.04761,-1.18228 1.64624,-1.64624 0.59863,-0.46392 1.23967,-0.82809 1.92311,-1.0925 0.68343,-0.26438 1.38932,-0.39658 2.11766,-0.3966 0.70838,2e-5 1.29953,0.11725 1.77345,0.3517 0.47391,0.23448 0.85554,0.51634 1.14489,0.84557 0.28933,0.32926 0.49386,0.66849 0.6136,1.01768 0.11971,0.34921 0.17958,0.63356 0.17959,0.85305 z"
       style="font-size:30.64999962px"
       id="path3300"
       inkscape:connector-curvature="0" />
    <path
       d="m 251.62452,378.08455 c -2e-5,0.35919 -0.0649,0.64603 -0.19456,0.86053 -0.12971,0.21452 -0.31429,0.37665 -0.55373,0.48639 -0.23947,0.10976 -0.52631,0.1821 -0.86054,0.217 -0.33425,0.0349 -0.71089,0.0524 -1.12992,0.0524 l -0.73332,-1.46665 c -0.37915,0.15965 -0.78572,0.43652 -1.21972,0.83061 -0.43401,0.39411 -0.84557,0.84308 -1.23468,1.34692 -0.38912,0.50386 -0.72834,1.02268 -1.01767,1.55645 -0.28935,0.53379 -0.47891,1.02516 -0.5687,1.47413 l -1.60135,7.72236 -2.8435,0 2.63398,-13.02026 -2.57412,-0.28435 0,-0.88298 4.62444,-0.95782 1.2272,0 -0.64353,3.09793 c 0.62855,-0.96778 1.34192,-1.72605 2.14011,-2.27481 0.79817,-0.54873 1.66119,-0.8231 2.58908,-0.82312 0.36915,2e-5 0.67844,0.0674 0.92789,0.20204 0.24941,0.13471 0.45145,0.30682 0.60611,0.51632 0.15464,0.20954 0.26438,0.43403 0.32925,0.67346 0.0648,0.23947 0.0973,0.46396 0.0973,0.67347 z"
       style="font-size:30.64999962px"
       id="path3302"
       inkscape:connector-curvature="0" />
    <path
       d="m 265.75225,378.324 -1.9306,9.62302 c -0.0599,0.26939 -0.0499,0.51134 0.0299,0.72584 0.0798,0.21452 0.20702,0.39411 0.38162,0.53877 0.1746,0.14467 0.37913,0.25692 0.6136,0.33673 0.23446,0.0798 0.4814,0.11973 0.74081,0.11973 0.28933,0 0.58865,-0.0274 0.89795,-0.0823 0.30929,-0.0549 0.60611,-0.12222 0.89047,-0.20204 0.28434,-0.0798 0.54874,-0.16213 0.79319,-0.24694 0.24443,-0.0848 0.44647,-0.15713 0.60611,-0.217 l 0,1.2272 c -0.12971,0.0599 -0.37914,0.16462 -0.74829,0.31428 -0.36916,0.14966 -0.7932,0.3043 -1.27209,0.46394 -0.47892,0.15964 -0.98277,0.30181 -1.51155,0.42653 -0.5288,0.12471 -1.01269,0.18707 -1.45169,0.18707 -0.55872,0 -1.02266,-0.0673 -1.39182,-0.20204 -0.36916,-0.13469 -0.66349,-0.31927 -0.88298,-0.55374 -0.2195,-0.23446 -0.37664,-0.51382 -0.47143,-0.83808 -0.0948,-0.32426 -0.14217,-0.67596 -0.14217,-1.05509 0,-0.19954 0.007,-0.40408 0.0224,-0.6136 0.015,-0.20952 0.0474,-0.42403 0.0973,-0.64353 l 1.87072,-9.30874 -1.93059,0.17959 0,-1.00271 2.30474,-1.01768 1.49658,-3.06799 1.87073,0 -0.6136,3.502 4.23533,0 0,1.40679 z"
       style="font-size:30.64999962px"
       id="path3304"
       inkscape:connector-curvature="0" />
    <path
       d="m 278.83239,379.08726 c -10e-6,-0.19954 -0.0399,-0.39659 -0.11973,-0.59115 -0.0798,-0.19455 -0.18957,-0.36665 -0.32924,-0.51632 -0.13969,-0.14965 -0.3143,-0.27187 -0.52381,-0.36667 -0.20953,-0.0948 -0.439,-0.14216 -0.68843,-0.14217 -0.33923,10e-6 -0.66349,0.0898 -0.97277,0.26938 -0.3093,0.17961 -0.60613,0.41906 -0.89047,0.71836 -0.28436,0.29933 -0.54875,0.64354 -0.79319,1.03264 -0.24445,0.38913 -0.46394,0.79819 -0.65849,1.2272 -0.19457,0.42903 -0.36667,0.86304 -0.51633,1.30203 -0.14966,0.439 -0.26938,0.85306 -0.35918,1.24216 0.64852,-0.0599 1.31949,-0.20951 2.01291,-0.44897 0.69341,-0.23945 1.32447,-0.54625 1.89317,-0.9204 0.5687,-0.37414 1.03513,-0.80066 1.39931,-1.27958 0.36416,-0.4789 0.54624,-0.98773 0.54625,-1.52651 z m 2.72378,0.0299 c -1e-5,0.55873 -0.12972,1.07256 -0.38911,1.54148 -0.25942,0.46894 -0.61112,0.89297 -1.05509,1.27209 -0.444,0.37914 -0.95782,0.71588 -1.54148,1.01019 -0.58368,0.29434 -1.19728,0.54377 -1.8408,0.7483 -0.64353,0.20454 -1.29954,0.36916 -1.968,0.49387 -0.66848,0.12472 -1.30702,0.20204 -1.91563,0.23197 -0.0299,0.19955 -0.0574,0.439 -0.0823,0.71836 -0.0249,0.27937 -0.0374,0.51383 -0.0374,0.70339 -10e-6,0.55873 0.0673,1.07256 0.20203,1.54148 0.13469,0.46893 0.32925,0.8755 0.58367,1.21971 0.25442,0.34422 0.56121,0.61361 0.9204,0.80816 0.35917,0.19456 0.76325,0.29183 1.21223,0.29183 0.68842,0 1.44669,-0.24943 2.27481,-0.74829 0.82809,-0.49886 1.80586,-1.24216 2.9333,-2.22991 l 0,1.9306 c -0.28935,0.27936 -0.64355,0.58616 -1.06258,0.92039 -0.41905,0.33424 -0.89546,0.64852 -1.42923,0.94285 -0.53379,0.29433 -1.11496,0.53877 -1.74352,0.73332 -0.62857,0.19456 -1.29206,0.29184 -1.99045,0.29184 -0.3093,0 -0.64603,-0.0299 -1.0102,-0.0898 -0.36417,-0.0599 -0.72584,-0.16712 -1.08502,-0.32176 -0.35918,-0.15465 -0.70589,-0.36666 -1.04012,-0.63605 -0.33424,-0.26938 -0.62857,-0.6111 -0.88299,-1.02516 -0.25442,-0.41405 -0.45895,-0.90792 -0.6136,-1.48161 -0.15464,-0.57369 -0.23197,-1.24965 -0.23197,-2.02787 0,-0.80815 0.0973,-1.61381 0.29184,-2.41698 0.19455,-0.80316 0.46892,-1.5714 0.82312,-2.30474 0.35419,-0.73331 0.78071,-1.41675 1.27957,-2.05032 0.49886,-0.63354 1.04761,-1.18228 1.64625,-1.64624 0.59862,-0.46392 1.23966,-0.82809 1.9231,-1.0925 0.68343,-0.26438 1.38932,-0.39658 2.11767,-0.3966 0.70837,2e-5 1.29952,0.11725 1.77345,0.3517 0.4739,0.23448 0.85553,0.51634 1.14488,0.84557 0.28933,0.32926 0.49386,0.66849 0.6136,1.01768 0.11971,0.34921 0.17958,0.63356 0.17959,0.85305 z"
       style="font-size:30.64999962px"
       id="path3306"
       inkscape:connector-curvature="0" />
    <path
       d="m 294.4118,378.17434 c -1e-5,0.19956 -0.0299,0.40409 -0.0898,0.6136 -0.0599,0.20953 -0.17711,0.40409 -0.3517,0.58367 -0.17461,0.1796 -0.41406,0.34173 -0.71836,0.48639 -0.30431,0.14468 -0.70091,0.24694 -1.18978,0.3068 l -1.751,-2.3646 c -0.54876,0.0299 -1.03764,0.18209 -1.46665,0.45645 -0.42903,0.27439 -0.80567,0.62609 -1.12992,1.05509 -0.32427,0.42903 -0.59864,0.91542 -0.82312,1.45917 -0.22449,0.54377 -0.40658,1.09501 -0.54625,1.65372 -0.13969,0.55874 -0.23946,1.10249 -0.29932,1.63128 -0.0599,0.5288 -0.0898,0.99773 -0.0898,1.40679 -10e-6,0.49886 0.0474,0.99024 0.14217,1.47413 0.0948,0.4839 0.24943,0.91791 0.46394,1.30203 0.21451,0.38412 0.49387,0.69591 0.83809,0.93536 0.3442,0.23945 0.77073,0.35918 1.27957,0.35918 0.40906,0 0.82312,-0.0723 1.24217,-0.21701 0.41903,-0.14466 0.84057,-0.3467 1.26461,-0.60611 0.42402,-0.25941 0.85055,-0.5687 1.27958,-0.92788 0.42901,-0.35918 0.86301,-0.75328 1.30202,-1.1823 l 0,1.93059 c -0.31928,0.30929 -0.68345,0.63854 -1.0925,0.98774 -0.40908,0.34921 -0.86304,0.67347 -1.36189,0.97278 -0.49887,0.29932 -1.04512,0.54875 -1.63876,0.74829 -0.59365,0.19955 -1.2297,0.29932 -1.90814,0.29932 -0.72834,0 -1.38434,-0.12721 -1.96801,-0.38163 -0.58367,-0.25442 -1.07754,-0.62358 -1.48161,-1.10747 -0.40408,-0.48389 -0.71587,-1.08003 -0.93537,-1.78842 -0.2195,-0.70837 -0.32925,-1.51653 -0.32924,-2.42446 -10e-6,-0.9179 0.10725,-1.79589 0.32176,-2.63398 0.21451,-0.83808 0.51133,-1.62129 0.89047,-2.34964 0.37913,-0.72832 0.8281,-1.38931 1.34692,-1.98297 0.51881,-0.59363 1.08252,-1.10247 1.69114,-1.52651 0.6086,-0.42402 1.25213,-0.75077 1.93059,-0.98026 0.67844,-0.22946 1.36188,-0.3442 2.05032,-0.34422 0.54873,2e-5 1.02265,0.0699 1.42175,0.20952 0.39908,0.1397 0.72334,0.3143 0.97278,0.52381 0.24942,0.20953 0.43399,0.4415 0.55373,0.69591 0.11972,0.25443 0.17958,0.49638 0.17959,0.72584 z"
       style="font-size:30.64999962px"
       id="path3308"
       inkscape:connector-curvature="0" />
    <path
       d="m 306.78854,379.14712 c 0.01,-0.0499 -0.0274,-0.16461 -0.11224,-0.34421 -0.0848,-0.17958 -0.18708,-0.36665 -0.3068,-0.56122 -0.11974,-0.19455 -0.24695,-0.36665 -0.38163,-0.51632 -0.1347,-0.14965 -0.24694,-0.22448 -0.33673,-0.22449 -0.77823,1e-5 -1.47414,0.12722 -2.08773,0.38163 -0.61361,0.25443 -1.14988,0.59864 -1.60883,1.03264 -0.45895,0.43402 -0.85056,0.93537 -1.17481,1.50406 -0.32427,0.56872 -0.58617,1.16236 -0.78571,1.78094 -0.19955,0.61859 -0.34422,1.24217 -0.43401,1.87072 -0.0898,0.62858 -0.13469,1.22721 -0.13469,1.7959 0,0.42903 0.0349,0.85805 0.10476,1.28706 0.0698,0.42903 0.19206,0.81814 0.36666,1.16734 0.1746,0.3492 0.41405,0.63355 0.71836,0.85305 0.3043,0.2195 0.69591,0.32925 1.17482,0.32925 0.35917,0 0.71835,-0.0798 1.07754,-0.23946 0.35917,-0.15963 0.69341,-0.34421 1.00271,-0.55373 0.30928,-0.20952 0.57867,-0.41904 0.80815,-0.62857 0.22947,-0.20951 0.39908,-0.36915 0.50884,-0.4789 z m 4.50471,11.19443 c -0.11974,0.0499 -0.33924,0.14218 -0.65849,0.27687 -0.31929,0.13469 -0.67597,0.26939 -1.07006,0.40408 -0.39411,0.13469 -0.7932,0.25442 -1.19726,0.35918 -0.40409,0.10476 -0.75579,0.15714 -1.05509,0.15714 -0.36917,0 -0.68096,-0.0449 -0.93537,-0.13469 -0.25443,-0.0898 -0.46395,-0.22449 -0.62856,-0.40408 -0.16464,-0.17959 -0.29185,-0.39909 -0.38163,-0.6585 -0.0898,-0.2594 -0.14967,-0.55872 -0.17959,-0.89795 -0.22949,0.2195 -0.49887,0.45147 -0.80815,0.69591 -0.30931,0.24445 -0.65103,0.47143 -1.02516,0.68095 -0.37416,0.20952 -0.77324,0.38163 -1.19727,0.51632 -0.42404,0.13469 -0.86553,0.20204 -1.32447,0.20204 -0.59864,0 -1.12494,-0.0848 -1.5789,-0.25442 -0.45396,-0.16961 -0.84557,-0.39659 -1.17481,-0.68095 -0.32925,-0.28435 -0.60113,-0.61359 -0.81564,-0.98774 -0.21451,-0.37414 -0.38662,-0.76325 -0.51632,-1.16733 -0.12971,-0.40408 -0.2195,-0.81314 -0.26939,-1.2272 -0.0499,-0.41405 -0.0748,-0.80566 -0.0748,-1.17482 0,-0.78819 0.0848,-1.58387 0.25442,-2.38705 0.16961,-0.80315 0.42154,-1.57639 0.75578,-2.3197 0.33423,-0.74329 0.75078,-1.4392 1.24964,-2.08773 0.49886,-0.64851 1.07504,-1.21222 1.72855,-1.69114 0.65351,-0.47889 1.38184,-0.85553 2.18501,-1.12992 0.80316,-0.27436 1.68365,-0.41154 2.64147,-0.41156 0.27935,2e-5 0.55622,0.0324 0.8306,0.0973 0.27437,0.0649 0.53128,0.14967 0.77074,0.25442 0.23945,0.10478 0.45894,0.22201 0.6585,0.3517 0.19953,0.12971 0.36915,0.26441 0.50884,0.40407 l 0.44897,-0.73332 2.09522,0 c -0.0499,0.11974 -0.10478,0.26191 -0.16463,0.42652 -0.0599,0.16464 -0.11974,0.33176 -0.17959,0.50136 -0.0599,0.16963 -0.11225,0.32926 -0.15714,0.47891 -0.0449,0.14967 -0.0723,0.2644 -0.0823,0.34421 -0.0698,0.2694 -0.16963,0.67597 -0.29932,1.21971 -0.12971,0.54377 -0.2669,1.15488 -0.41156,1.83332 -0.14468,0.67846 -0.29434,1.38933 -0.44897,2.13263 -0.15466,0.74331 -0.29185,1.4467 -0.41156,2.11018 -0.11974,0.66349 -0.21951,1.25214 -0.29932,1.76596 -0.0798,0.51383 -0.11974,0.88548 -0.11972,1.11496 -2e-5,0.53877 0.11472,0.90793 0.34421,1.10747 0.22946,0.19954 0.55372,0.29932 0.97278,0.29931 0.0998,10e-6 0.24692,-0.0224 0.44149,-0.0673 0.19454,-0.0449 0.39658,-0.0973 0.60612,-0.15714 0.2095,-0.0599 0.40406,-0.11474 0.58366,-0.16463 0.17958,-0.0499 0.30928,-0.0848 0.38911,-0.10476 z"
       style="font-size:30.64999962px"
       id="path3310"
       inkscape:connector-curvature="0" />
    <path
       d="m 323.74481,378.17434 c -10e-6,0.19956 -0.0299,0.40409 -0.0898,0.6136 -0.0599,0.20953 -0.17711,0.40409 -0.3517,0.58367 -0.17461,0.1796 -0.41407,0.34173 -0.71836,0.48639 -0.30432,0.14468 -0.70091,0.24694 -1.18978,0.3068 l -1.751,-2.3646 c -0.54876,0.0299 -1.03764,0.18209 -1.46665,0.45645 -0.42903,0.27439 -0.80567,0.62609 -1.12992,1.05509 -0.32427,0.42903 -0.59864,0.91542 -0.82312,1.45917 -0.2245,0.54377 -0.40658,1.09501 -0.54626,1.65372 -0.13968,0.55874 -0.23945,1.10249 -0.29931,1.63128 -0.0599,0.5288 -0.0898,0.99773 -0.0898,1.40679 0,0.49886 0.0474,0.99024 0.14218,1.47413 0.0948,0.4839 0.24942,0.91791 0.46394,1.30203 0.2145,0.38412 0.49387,0.69591 0.83808,0.93536 0.34421,0.23945 0.77074,0.35918 1.27958,0.35918 0.40906,0 0.82311,-0.0723 1.24217,-0.21701 0.41903,-0.14466 0.84057,-0.3467 1.26461,-0.60611 0.42402,-0.25941 0.85054,-0.5687 1.27957,-0.92788 0.42901,-0.35918 0.86302,-0.75328 1.30203,-1.1823 l 0,1.93059 c -0.31928,0.30929 -0.68345,0.63854 -1.0925,0.98774 -0.40908,0.34921 -0.86304,0.67347 -1.36189,0.97278 -0.49887,0.29932 -1.04512,0.54875 -1.63876,0.74829 -0.59365,0.19955 -1.2297,0.29932 -1.90814,0.29932 -0.72834,0 -1.38435,-0.12721 -1.96801,-0.38163 -0.58367,-0.25442 -1.07754,-0.62358 -1.48161,-1.10747 -0.40408,-0.48389 -0.71587,-1.08003 -0.93537,-1.78842 -0.2195,-0.70837 -0.32925,-1.51653 -0.32925,-2.42446 0,-0.9179 0.10726,-1.79589 0.32177,-2.63398 0.21451,-0.83808 0.51133,-1.62129 0.89047,-2.34964 0.37913,-0.72832 0.8281,-1.38931 1.34692,-1.98297 0.51881,-0.59363 1.08252,-1.10247 1.69114,-1.52651 0.6086,-0.42402 1.25213,-0.75077 1.93059,-0.98026 0.67844,-0.22946 1.36188,-0.3442 2.05031,-0.34422 0.54874,2e-5 1.02266,0.0699 1.42176,0.20952 0.39908,0.1397 0.72333,0.3143 0.97278,0.52381 0.24941,0.20953 0.43399,0.4415 0.55373,0.69591 0.11972,0.25443 0.17958,0.49638 0.17959,0.72584 z"
       style="font-size:30.64999962px"
       id="path3312"
       inkscape:connector-curvature="0" />
    <path
       d="m 340.74599,390.40142 c -0.12972,0.0499 -0.3567,0.13469 -0.68095,0.25441 -0.32427,0.11973 -0.68594,0.24694 -1.08502,0.38163 -0.3991,0.1347 -0.80817,0.25193 -1.22719,0.3517 -0.41906,0.0998 -0.78822,0.14966 -1.10748,0.14966 -0.18957,0 -0.42903,-0.0274 -0.71835,-0.0823 -0.28935,-0.0549 -0.56123,-0.15465 -0.81564,-0.29932 -0.25443,-0.14467 -0.45647,-0.34671 -0.60612,-0.60612 -0.14967,-0.2594 -0.18459,-0.59863 -0.10476,-1.01767 l 1.87073,-9.03936 c 0.0898,-0.39907 0.0823,-0.75327 -0.0224,-1.06257 -0.10477,-0.30928 -0.25194,-0.56619 -0.44149,-0.77074 -0.18958,-0.20452 -0.3991,-0.35917 -0.62857,-0.46394 -0.22948,-0.10475 -0.42903,-0.15713 -0.59863,-0.15714 -0.23946,10e-6 -0.53129,0.0599 -0.8755,0.17959 -0.34422,0.11974 -0.70839,0.28436 -1.0925,0.49387 -0.38413,0.20953 -0.77075,0.46146 -1.15986,0.75577 -0.38911,0.29434 -0.75328,0.61611 -1.0925,0.9653 l -2.24487,10.73049 -2.81358,0 4.22036,-20.47324 -2.72378,-0.26938 0,-0.92788 4.78907,-0.91292 1.22719,0 -2.06528,9.89241 c 0.30929,-0.33921 0.67595,-0.65849 1.09999,-0.95782 0.42402,-0.2993 0.87799,-0.5612 1.36189,-0.7857 0.48388,-0.22447 0.98773,-0.39907 1.51155,-0.5238 0.52379,-0.1247 1.04011,-0.18706 1.54896,-0.18708 0.55871,2e-5 1.05258,0.0873 1.48162,0.2619 0.429,0.17462 0.77571,0.43403 1.04012,0.77823 0.26438,0.34423 0.43399,0.77574 0.50884,1.29454 0.0748,0.51883 0.0374,1.12245 -0.11225,1.81087 l -1.69113,8.24616 c -0.0599,0.28934 -0.0449,0.53129 0.0449,0.72584 0.0898,0.19456 0.21201,0.34921 0.36667,0.46394 0.15463,0.11474 0.31676,0.19456 0.48639,0.23946 0.16959,0.0449 0.2993,0.0674 0.38911,0.0673 0.27934,10e-6 0.58365,-0.0698 0.91291,-0.20952 0.32923,-0.13968 0.66846,-0.26439 1.01768,-0.37414 z"
       style="font-size:30.64999962px"
       id="path3314"
       inkscape:connector-curvature="0" />
    <path
       d="m 360.8301,381.7811 c -2e-5,-0.68841 -0.0798,-1.26959 -0.23946,-1.74351 -0.15964,-0.47391 -0.3542,-0.86053 -0.58366,-1.15986 -0.22949,-0.2993 -0.47144,-0.51381 -0.72585,-0.64353 -0.25442,-0.12969 -0.47143,-0.19454 -0.65101,-0.19455 -0.24944,1e-5 -0.52381,0.0399 -0.82312,0.11973 -0.29932,0.0798 -0.60612,0.19207 -0.9204,0.33673 -0.31429,0.14468 -0.62607,0.3118 -0.93536,0.50135 -0.3093,0.18958 -0.59365,0.39411 -0.85305,0.6136 l -1.70611,9.27881 c 0.0998,0.14966 0.23446,0.29433 0.40408,0.43401 0.16961,0.13968 0.36416,0.26689 0.58367,0.38163 0.21949,0.11473 0.45894,0.20702 0.71836,0.27686 0.2594,0.0698 0.52878,0.10476 0.80815,0.10476 0.46892,0 0.9154,-0.11972 1.33944,-0.35918 0.42403,-0.23945 0.81812,-0.56371 1.1823,-0.97277 0.36416,-0.40907 0.6959,-0.88797 0.99523,-1.43672 0.29931,-0.54875 0.55123,-1.12992 0.75577,-1.74352 0.20452,-0.61359 0.36416,-1.24715 0.47891,-1.90066 0.11473,-0.6535 0.17209,-1.28456 0.17211,-1.89318 z m 3.03806,-0.11972 c -2e-5,0.63855 -0.0699,1.32448 -0.20952,2.0578 -0.1397,0.73333 -0.3567,1.46416 -0.65102,2.19249 -0.29434,0.72834 -0.67098,1.43173 -1.12992,2.11018 -0.45896,0.67845 -1.00771,1.27709 -1.64624,1.7959 -0.63855,0.51881 -1.37187,0.93536 -2.19997,1.24965 -0.82812,0.31428 -1.76099,0.47142 -2.79861,0.47142 -0.86802,0 -1.72357,-0.11973 -2.56664,-0.35918 -0.84308,-0.23945 -1.62379,-0.59364 -2.34215,-1.06257 l 3.62173,-19.42564 -2.73875,-0.26938 0,-0.92788 4.78907,-0.91292 1.19726,0 -1.751,9.27881 c 0.27936,-0.24942 0.58616,-0.48638 0.9204,-0.71088 0.33423,-0.22447 0.68094,-0.41903 1.04012,-0.58366 0.35917,-0.16461 0.72833,-0.29681 1.10747,-0.3966 0.37913,-0.0998 0.75327,-0.14964 1.12244,-0.14966 0.78819,2e-5 1.45167,0.17462 1.99045,0.52381 0.53876,0.34921 0.97526,0.79819 1.30951,1.34692 0.33423,0.54876 0.57368,1.15487 0.71836,1.81835 0.14466,0.66349 0.21699,1.31451 0.21701,1.95304 z"
       style="font-size:30.64999962px"
       id="path3316"
       inkscape:connector-curvature="0" />
    <path
       d="m 379.38774,378.50359 c -0.11974,0.11974 -0.29434,0.33924 -0.52381,0.6585 -0.22949,0.31928 -0.46644,0.67846 -0.71087,1.07753 -0.24446,0.3991 -0.48391,0.81066 -0.71836,1.23468 -0.23448,0.42405 -0.42155,0.7957 -0.56122,1.11496 -0.21951,0.48889 -0.47642,1.08253 -0.77074,1.78093 -0.29434,0.69841 -0.62359,1.4492 -0.98774,2.25236 -0.36418,0.80317 -0.76078,1.63626 -1.18979,2.49929 -0.42903,0.86303 -0.88798,1.7086 -1.37685,2.5367 -0.47892,0.80816 -0.99025,1.60384 -1.534,2.38705 -0.54376,0.78321 -1.11995,1.48162 -1.72855,2.09522 -0.60862,0.61359 -1.24965,1.10746 -1.92311,1.48161 -0.67346,0.37414 -1.37436,0.56122 -2.1027,0.56122 -0.55872,0 -1.02266,-0.0698 -1.39182,-0.20952 -0.36915,-0.13969 -0.66348,-0.31179 -0.88298,-0.51632 -0.2195,-0.20454 -0.37165,-0.42404 -0.45646,-0.6585 -0.0848,-0.23447 -0.12721,-0.44648 -0.12721,-0.63604 0,-0.22948 0.0524,-0.45148 0.15714,-0.66598 0.10477,-0.21452 0.25193,-0.40408 0.44149,-0.5687 0.18957,-0.16463 0.41406,-0.29683 0.67347,-0.3966 0.2594,-0.0998 0.53877,-0.15964 0.83808,-0.17959 l 1.78093,1.78094 c 0.31927,-0.0299 0.63356,-0.15715 0.94285,-0.38163 0.30929,-0.22449 0.63605,-0.56123 0.98026,-1.0102 0.34421,-0.44897 0.72085,-1.01269 1.12992,-1.69113 0.40906,-0.67846 0.873,-1.4916 1.39182,-2.43943 -0.02,-0.11973 -0.0698,-0.38662 -0.14965,-0.80067 -0.0798,-0.41406 -0.17711,-0.91791 -0.29184,-1.51155 -0.11474,-0.59364 -0.24445,-1.24964 -0.38911,-1.96801 -0.14467,-0.71835 -0.29683,-1.44669 -0.45646,-2.18501 -0.15964,-0.71835 -0.32676,-1.4392 -0.50135,-2.16256 -0.17461,-0.72334 -0.34422,-1.37435 -0.50884,-1.95304 -0.16463,-0.57866 -0.31179,-1.05258 -0.44149,-1.42175 -0.12971,-0.36914 -0.22948,-0.55871 -0.29932,-0.5687 l -2.78364,-0.20952 0,-0.76326 0.41904,-0.13469 c 0.19955,-0.0698 0.41904,-0.14216 0.6585,-0.21701 0.23945,-0.0748 0.49387,-0.15463 0.76326,-0.23945 0.26938,-0.0848 0.5238,-0.15962 0.76325,-0.22449 0.23945,-0.0648 0.45646,-0.11971 0.65102,-0.16462 0.19455,-0.0449 0.33672,-0.0673 0.42652,-0.0674 0.32924,2e-5 0.61858,0.0773 0.86802,0.23197 0.24942,0.15466 0.47142,0.37666 0.66598,0.66598 0.19455,0.28936 0.37414,0.63606 0.53877,1.04013 0.16462,0.40409 0.32176,0.86054 0.47142,1.36937 0.2594,0.90794 0.52879,2.03287 0.80815,3.37479 0.27936,1.34194 0.5687,2.83603 0.86802,4.48226 l 4.66934,-11.1645 0.88298,0 2.54419,0.83809 0,0.70339 z"
       style="font-size:30.64999962px"
       id="path3318"
       inkscape:connector-curvature="0" />
    <path
       d="m 392.84201,388.53069 c -0.0499,0.28934 -0.0349,0.5238 0.0449,0.70339 0.0798,0.17959 0.18706,0.32177 0.32176,0.42653 0.13468,0.10476 0.27436,0.17709 0.41905,0.217 0.14465,0.0399 0.25191,0.0599 0.32176,0.0599 0.0698,0 0.212,-0.0274 0.42653,-0.0823 0.21449,-0.0549 0.44147,-0.11723 0.68094,-0.18707 0.23944,-0.0698 0.46393,-0.13469 0.67346,-0.19455 l 0.41905,-0.11973 0,1.1374 c -0.11975,0.0499 -0.33924,0.1322 -0.6585,0.24694 -0.31929,0.11474 -0.67348,0.23197 -1.06257,0.35169 -0.38913,0.11973 -0.79071,0.22449 -1.20475,0.31429 -0.41407,0.0898 -0.77574,0.13469 -1.08502,0.13469 -0.46894,0 -0.85307,-0.0574 -1.15237,-0.17211 -0.29933,-0.11474 -0.53379,-0.27437 -0.7034,-0.4789 -0.16962,-0.20454 -0.28685,-0.44648 -0.35169,-0.72585 -0.0649,-0.27936 -0.0973,-0.58865 -0.0973,-0.92788 -0.26939,0.28934 -0.56622,0.5712 -0.89047,0.84557 -0.32426,0.27438 -0.67097,0.51882 -1.04012,0.73333 -0.36917,0.21451 -0.75828,0.38911 -1.16733,0.5238 -0.40908,0.13469 -0.82812,0.20204 -1.25713,0.20204 -0.85805,0 -1.56892,-0.16463 -2.13263,-0.49387 -0.56372,-0.32925 -1.0102,-0.75827 -1.33944,-1.28706 -0.32925,-0.52879 -0.56122,-1.11745 -0.69591,-1.76597 -0.1347,-0.64852 -0.20204,-1.29703 -0.20204,-1.94556 0,-0.80815 0.0873,-1.61879 0.2619,-2.43194 0.1746,-0.81314 0.43401,-1.59136 0.77822,-2.33467 0.34421,-0.74329 0.76575,-1.43421 1.26461,-2.07277 0.49886,-0.63853 1.06756,-1.19476 1.70611,-1.66869 0.63853,-0.4739 1.34941,-0.84555 2.13263,-1.11495 0.7832,-0.26937 1.62378,-0.40406 2.52174,-0.40408 0.22946,2e-5 0.45395,0.0225 0.67346,0.0674 0.21949,0.0449 0.42901,0.0973 0.62856,0.15714 0.19954,0.0599 0.38411,0.12473 0.55374,0.19456 0.1696,0.0698 0.31926,0.12473 0.44897,0.16462 l 1.03264,-5.9115 -2.78364,-0.26938 0,-0.92788 4.74417,-0.91292 1.25713,0 z m -1.19727,-9.44343 c 0.01,-0.0399 -0.0474,-0.15214 -0.1721,-0.33673 -0.12473,-0.18457 -0.28436,-0.37663 -0.47891,-0.57619 -0.19457,-0.19953 -0.40658,-0.37912 -0.63605,-0.53877 -0.22948,-0.15962 -0.44399,-0.23944 -0.64353,-0.23945 -0.7483,1e-5 -1.46167,0.21702 -2.14011,0.65101 -0.67846,0.43402 -1.27709,1.03016 -1.7959,1.78842 -0.51882,0.75828 -0.93287,1.65373 -1.24216,2.68636 -0.3093,1.03265 -0.46394,2.1476 -0.46394,3.34486 0,0.6585 0.0673,1.2272 0.20204,1.70611 0.13469,0.47891 0.31428,0.873 0.53877,1.1823 0.22448,0.30929 0.48139,0.53877 0.77074,0.68842 0.28933,0.14966 0.58366,0.22449 0.88298,0.22449 0.27936,0 0.58117,-0.0698 0.90543,-0.20952 0.32425,-0.13968 0.65101,-0.32675 0.98026,-0.56122 0.32924,-0.23446 0.656,-0.50385 0.98026,-0.80815 0.32425,-0.3043 0.62607,-0.61609 0.90544,-0.93537 z"
       style="font-size:30.64999962px"
       id="path3320"
       inkscape:connector-curvature="0" />
  </g>
</svg>
