<?xml version="1.0" encoding="UTF-8" standalone="no"?>
<!-- Created with Inkscape (http://www.inkscape.org/) -->
<svg
   xmlns:ns="http://creativecommons.org/ns#"
   xmlns:dc="http://purl.org/dc/elements/1.1/"
   xmlns:cc="http://web.resource.org/cc/"
   xmlns:rdf="http://www.w3.org/1999/02/22-rdf-syntax-ns#"
   xmlns:svg="http://www.w3.org/2000/svg"
   xmlns="http://www.w3.org/2000/svg"
   xmlns:sodipodi="http://sodipodi.sourceforge.net/DTD/sodipodi-0.dtd"
   xmlns:inkscape="http://www.inkscape.org/namespaces/inkscape"
   version="1.0"
   width="400"
   height="400"
   id="svg2728"
   sodipodi:version="0.32"
   inkscape:version="0.45.1"
   sodipodi:docname="Wikibooks-logo-en-unpathed.svg"
   inkscape:output_extension="org.inkscape.output.svg.inkscape"
   sodipodi:docbase="C:\Documents and Settings\Tech U\Desktop"
   inkscape:export-filename="C:\Documents and Settings\Tech U\Desktop\Wikibooks-logo-en-unpathed.png"
   inkscape:export-xdpi="28.26"
   inkscape:export-ydpi="28.26">
  <metadata
     id="metadata18">
    <rdf:RDF>
      <ns:Work
         rdf:about="">
        <dc:format>image/svg+xml</dc:format>
        <dc:type
           rdf:resource="http://purl.org/dc/dcmitype/StillImage" />
      </ns:Work>
      <cc:Work
         rdf:about="">
        <dc:format>image/svg+xml</dc:format>
        <dc:type
           rdf:resource="http://purl.org/dc/dcmitype/StillImage" />
      </cc:Work>
    </rdf:RDF>
  </metadata>
  <sodipodi:namedview
     inkscape:window-height="821"
     inkscape:window-width="1272"
     inkscape:pageshadow="2"
     inkscape:pageopacity="0.0"
     guidetolerance="10.0"
     gridtolerance="10.0"
     objecttolerance="10.0"
     borderopacity="1.0"
     bordercolor="#666666"
     pagecolor="#ffffff"
     id="base"
     showgrid="false"
     inkscape:zoom="1.245"
     inkscape:cx="15.396543"
     inkscape:cy="167.87149"
     inkscape:window-x="0"
     inkscape:window-y="25"
     inkscape:current-layer="svg2728"
     width="400px"
     height="400px" />
  <defs
     id="defs2731">
    <inkscape:perspective
       sodipodi:type="inkscape:persp3d"
       inkscape:vp_x="0 : 200 : 1"
       inkscape:vp_y="0 : 1000 : 0"
       inkscape:vp_z="400 : 200 : 1"
       inkscape:persp3d-origin="200 : 133.33333 : 1"
       id="perspective20" />
  </defs>
  <g
     id="layer1"
     transform="translate(427.54343,5.9375)" />
  <g
     id="g3189"
     transform="translate(-6.068381e-7,5.9375)">
    <g
       id="g3177">
      <path
         id="path3297"
         style="fill:#fdfcf8;fill-opacity:1;fill-rule:evenodd;stroke:none;stroke-width:1px;stroke-linecap:butt;stroke-linejoin:miter;stroke-opacity:1"
         d="M 191.65664,115.97593 C 196.93351,182.00184 208.45394,245.91983 242.85479,307.46513 L 255.86467,307.56221 L 338.15581,234.14292 L 259.72068,35.943307 L 203.18059,89.951746 L 191.65664,115.97593 z " />
      <path
         d="M 263.32723,16.5 C 236.14031,42.801966 209.26473,68.875 209.26473,68.875 C 209.26473,68.875 218.92098,88.53125 218.92098,88.53125 C 232.01455,75.550025 245.18226,64.133911 257.73348,51.4375 C 284.16674,109.4727 302.17756,156.24917 324.33191,218.08448 C 331.58462,238.17246 330.10582,239.07126 312.76941,249.92823 C 284.91465,263.77995 276.0966,272.86547 242.89833,308.1875 L 265.61708,308.1875 C 293.37052,283.09599 303.67261,274.24081 338.42566,255.92823 C 350.71955,248.83035 352.40523,239.86966 347.36316,225.92823 C 331.10198,180.73146 295.87208,83.322614 263.32723,16.5 z "
         style="fill:#5f96d3;fill-opacity:1"
         id="path3272" />
    </g>
    <g
       id="g3181">
      <path
         id="path3214"
         style="fill:#f4eed7;fill-rule:evenodd;stroke:none;stroke-width:1px;stroke-linecap:butt;stroke-linejoin:miter;stroke-opacity:1"
         d="M 125.84082,116.04509 C 131.11769,182.071 144.61911,246.8316 179.01996,308.3769 L 199.35471,308.55962 L 261.32293,230.84125 L 193.90486,36.012472 L 137.36477,90.020911 L 125.84082,116.04509 z " />
      <path
         d="M 192.45223,17.125 C 172.56466,30.549352 157.22356,49.869448 139.92098,66.4375 C 139.92098,66.4375 147.01473,89.0625 147.01473,89.0625 C 160.5559,78.391834 172.3403,65.526043 184.51473,53.34375 L 250.17098,218.03125 C 253.95672,229.18194 247.99456,239.10365 236.01473,249.90625 C 221.66549,261.43896 192.12216,288.32681 178.73348,308.8125 L 199.10848,308.8125 C 220.49313,286.84657 224.35368,283.86504 248.70223,262.78125 C 265.04857,246.10281 279.81623,237.56053 272.10848,216.1875 L 192.45223,17.125 z "
         style="fill:#2a62a1;fill-opacity:1;fill-rule:evenodd;stroke:none;stroke-width:22;stroke-linecap:round;stroke-linejoin:miter;stroke-miterlimit:4;stroke-dasharray:none;stroke-opacity:1"
         id="path3138" />
    </g>
    <g
       id="g3185">
      <path
         id="path2238"
         style="fill:#e9ddaf;fill-rule:evenodd;stroke:none;stroke-width:1px;stroke-linecap:butt;stroke-linejoin:miter;stroke-opacity:1"
         d="M 50.218883,114.63177 C 55.595535,183.91551 77.233973,245.97178 102.67801,306.33668 L 129.48015,306.00572 L 199.88087,225.96804 L 118.28293,34.599156 L 61.742841,88.607595 L 50.218883,114.63177 z " />
      <path
         d="M 125.32723,16.0625 C 120.02588,17.841698 115.61512,21.260515 111.48348,24.875 C 55.394922,78.847012 53.13973,81.125 53.13973,81.125 C 50.188265,83.867742 49.941746,87.87735 49.98348,91.90625 L 50.218884,114.63177 C 50.218884,114.63177 76.123108,89.450054 114.79598,52.21875 C 135.6144,106.45643 157.3415,160.40524 178.73348,214.4375 C 181.66298,222.60083 174.65125,229.2909 165.76473,238.21875 C 153.49118,250.19233 127.82007,274.84011 101.54598,307.75 L 127.88973,307.75 C 127.88973,307.75 191.20222,238.3125 191.20223,238.3125 C 197.22151,230.03457 204.70542,221.9413 201.54598,214.4375 C 201.54598,214.4375 125.32723,16.062501 125.32723,16.0625 z "
         style="fill:#15304f;fill-opacity:1;fill-rule:evenodd;stroke:none;stroke-width:22;stroke-linecap:round;stroke-linejoin:miter;stroke-miterlimit:4;stroke-dasharray:none;stroke-opacity:1"
         id="path3136" />
    </g>
  </g>
  <text
     xml:space="preserve"
     style="font-style:normal;font-variant:normal;font-weight:bold;font-stretch:normal;fill:#000000;fill-opacity:1;stroke:none;stroke-width:1px;stroke-linecap:butt;stroke-linejoin:miter;stroke-opacity:1;font-family:DejaVu Sans"
     x="442.80444"
     y="181.84151"
     id="text2416"><tspan
       sodipodi:role="line"
       id="tspan2418"
       x="442.80444"
       y="181.84151" /></text>
  <g
     id="g2181"
     transform="translate(-4.3203199,9.9375)">
    <path
       style="font-size:56px;font-style:normal;font-variant:normal;font-weight:bold;font-stretch:normal;fill:#0b2645;fill-opacity:1;stroke:none;stroke-width:1px;stroke-linecap:butt;stroke-linejoin:miter;stroke-opacity:1;font-family:DejaVu Sans"
       d="M 20.126999,317.17578 L 30.216843,317.17578 L 37.27153,346.84375 L 44.27153,317.17578 L 54.416061,317.17578 L 61.416061,346.84375 L 68.470749,317.17578 L 78.478561,317.17578 L 68.853561,358 L 56.712936,358 L 49.30278,326.96484 L 41.974655,358 L 29.83403,358 L 20.126999,317.17578 z M 85.39653,317.17578 L 95.923874,317.17578 L 95.923874,358 L 85.39653,358 L 85.39653,317.17578 z M 106.28716,317.17578 L 116.8145,317.17578 L 116.8145,332.07813 L 131.99028,317.17578 L 144.21294,317.17578 L 124.55278,336.50781 L 146.23637,358 L 133.05669,358 L 116.8145,341.92188 L 116.8145,358 L 106.28716,358 L 106.28716,317.17578 z M 149.70903,317.17578 L 160.23637,317.17578 L 160.23637,358 L 149.70903,358 L 149.70903,317.17578 z "
       id="text2420" />
    <path
       style="font-size:56px;font-style:normal;font-variant:normal;font-weight:bold;font-stretch:normal;fill:#0a4e98;fill-opacity:1;stroke:none;stroke-width:1px;stroke-linecap:butt;stroke-linejoin:miter;stroke-opacity:1;font-family:DejaVu Sans"
       d="M 167.54878,317.40872 L 178.07613,317.40872 L 178.07613,350.27591 L 196.5605,350.27591 L 196.5605,358.23294 L 167.54878,358.23294 L 167.54878,317.40872 z M 203.20503,317.40872 L 213.73238,317.40872 L 213.73238,358.23294 L 203.20503,358.23294 L 203.20503,317.40872 z M 240.44722,333.21341 C 242.10605,333.21343 243.36386,332.84885 244.22066,332.11966 C 245.0774,331.39052 245.50579,330.315 245.50581,328.8931 C 245.50579,327.48948 245.0774,326.41852 244.22066,325.68021 C 243.36386,324.94196 242.10605,324.57282 240.44722,324.57278 L 234.623,324.57278 L 234.623,333.21341 L 240.44722,333.21341 z M 240.80269,351.06888 C 242.91725,351.06889 244.50774,350.62227 245.57417,349.72903 C 246.64055,348.83581 247.17375,347.48686 247.17378,345.68216 C 247.17375,343.91394 246.64511,342.58777 245.58784,341.70364 C 244.53053,340.81955 242.93548,340.37749 240.80269,340.37747 L 234.623,340.37747 L 234.623,351.06888 L 240.80269,351.06888 z M 250.59175,336.38528 C 252.85213,337.04156 254.60213,338.25379 255.84175,340.022 C 257.0813,341.79025 257.70109,343.95952 257.70113,346.52982 C 257.70109,350.46732 256.37036,353.40222 253.70894,355.3345 C 251.04745,357.2668 247.00058,358.23294 241.56831,358.23294 L 224.09566,358.23294 L 224.09566,317.40872 L 239.90034,317.40872 C 245.56959,317.40876 249.6757,318.26553 252.2187,319.97903 C 254.76164,321.69261 256.03312,324.4361 256.03316,328.2095 C 256.03312,330.19651 255.56828,331.88726 254.63863,333.28177 C 253.7089,334.67632 252.35995,335.71083 250.59175,336.38528 L 250.59175,336.38528 z M 281.70894,335.51028 C 283.91465,335.51031 285.49602,335.10015 286.45308,334.27982 C 287.41008,333.45953 287.8886,332.11057 287.88863,330.23294 C 287.8886,328.3736 287.41008,327.04287 286.45308,326.24075 C 285.49602,325.4387 283.91465,325.03766 281.70894,325.03763 L 277.27925,325.03763 L 277.27925,335.51028 L 281.70894,335.51028 z M 277.27925,342.78372 L 277.27925,358.23294 L 266.75191,358.23294 L 266.75191,317.40872 L 282.83003,317.40872 C 288.20761,317.40876 292.14966,318.31111 294.6562,320.11575 C 297.16268,321.92048 298.41593,324.77334 298.41597,328.67435 C 298.41593,331.37229 297.76424,333.58713 296.46089,335.31888 C 295.15747,337.05067 293.19328,338.32671 290.56831,339.147 C 292.00839,339.47515 293.2981,340.21798 294.43745,341.37552 C 295.57674,342.53309 296.72974,344.28764 297.89644,346.63919 L 303.61128,358.23294 L 292.40034,358.23294 L 287.42378,348.08841 C 286.42115,346.04675 285.40488,344.65223 284.37495,343.90482 C 283.34498,343.15743 281.97324,342.78374 280.25972,342.78372 L 277.27925,342.78372 z M 328.49409,324.29935 C 325.28574,324.29938 322.79746,325.48428 321.02925,327.85403 C 319.26101,330.22385 318.37689,333.55979 318.37691,337.86185 C 318.37689,342.14572 319.26101,345.47254 321.02925,347.84232 C 322.79746,350.21212 325.28574,351.39701 328.49409,351.397 C 331.72063,351.39701 334.21802,350.21212 335.98628,347.84232 C 337.75448,345.47254 338.63859,342.14572 338.63863,337.86185 C 338.63859,333.55979 337.75448,330.22385 335.98628,327.85403 C 334.21802,325.48428 331.72063,324.29938 328.49409,324.29935 L 328.49409,324.29935 z M 328.49409,316.67044 C 335.05656,316.67048 340.19718,318.54808 343.91597,322.30325 C 347.63468,326.05849 349.49405,331.24469 349.49409,337.86185 C 349.49405,344.46082 347.63468,349.6379 343.91597,353.3931 C 340.19718,357.14831 335.05656,359.02591 328.49409,359.02591 C 321.94981,359.02591 316.81374,357.14831 313.08589,353.3931 C 309.35802,349.6379 307.49409,344.46082 307.49409,337.86185 C 307.49409,331.24469 309.35802,326.05849 313.08589,322.30325 C 316.81374,318.54808 321.94981,316.67048 328.49409,316.67044 L 328.49409,316.67044 z M 385.83394,318.69388 L 385.83394,327.3345 C 383.59172,326.33193 381.40422,325.57542 379.27144,325.06497 C 377.1386,324.55459 375.12428,324.29938 373.22847,324.29935 C 370.71283,324.29938 368.85345,324.64573 367.65034,325.33841 C 366.44721,326.03115 365.84564,327.10667 365.84566,328.56497 C 365.84564,329.65875 366.25124,330.51096 367.06245,331.12161 C 367.87364,331.73232 369.34564,332.2564 371.47847,332.69388 L 375.96284,333.59622 C 380.50188,334.5077 383.72844,335.89312 385.64253,337.75247 C 387.55656,339.61187 388.51359,342.25509 388.51363,345.68216 C 388.51359,350.18477 387.1783,353.53438 384.50777,355.73099 C 381.83716,357.9276 377.75839,359.02591 372.27144,359.02591 C 369.68288,359.02591 367.08523,358.77982 364.47847,358.28763 C 361.87169,357.79544 359.26492,357.06628 356.65816,356.10013 L 356.65816,347.21341 C 359.26492,348.59884 361.7851,349.64245 364.2187,350.34427 C 366.65228,351.0461 368.99929,351.39701 371.25972,351.397 C 373.55657,351.39701 375.31569,351.0142 376.53706,350.24857 C 377.75839,349.48295 378.36907,348.3892 378.36909,346.96732 C 378.36907,345.69129 377.95436,344.70691 377.12495,344.01419 C 376.2955,343.3215 374.64121,342.70171 372.16206,342.15482 L 368.08784,341.25247 C 364.0045,340.37749 361.01948,338.98296 359.13277,337.06888 C 357.24604,335.15484 356.30268,332.57541 356.30269,329.3306 C 356.30268,325.26553 357.61518,322.13923 360.24019,319.95169 C 362.86518,317.76423 366.63861,316.67048 371.5605,316.67044 C 373.80267,316.67048 376.10865,316.8391 378.47847,317.1763 C 380.84823,317.51358 383.30005,318.01944 385.83394,318.69388 L 385.83394,318.69388 z "
       id="text2410" />
  </g>
</svg>
