<?xml version="1.0" encoding="UTF-8" standalone="no"?>
<svg
   xmlns:dc="http://purl.org/dc/elements/1.1/"
   xmlns:cc="http://creativecommons.org/ns#"
   xmlns:rdf="http://www.w3.org/1999/02/22-rdf-syntax-ns#"
   xmlns:svg="http://www.w3.org/2000/svg"
   xmlns="http://www.w3.org/2000/svg"
   xmlns:xlink="http://www.w3.org/1999/xlink"
   xmlns:sodipodi="http://sodipodi.sourceforge.net/DTD/sodipodi-0.dtd"
   xmlns:inkscape="http://www.inkscape.org/namespaces/inkscape"
   version="1.0"
   width="391"
   height="473.85715"
   id="svg2047"
   sodipodi:docname="Wiktionary-pt.svg">
  <sodipodi:namedview
     pagecolor="#ffffff"
     bordercolor="#666666"
     borderopacity="1"
     objecttolerance="10"
     gridtolerance="10"
     guidetolerance="10"
     inkscape:pageopacity="0"
     inkscape:pageshadow="2"
     inkscape:window-width="640"
     inkscape:window-height="480"
     id="namedview88" />
  <metadata
     id="metadata63">
    <rdf:RDF>
      <cc:Work
         rdf:about="">
        <dc:format>image/svg+xml</dc:format>
        <dc:type
           rdf:resource="http://purl.org/dc/dcmitype/StillImage" />
        <dc:title />
      </cc:Work>
    </rdf:RDF>
  </metadata>
  <defs
     id="defs3">
    <linearGradient
       id="linearGradient3525">
      <stop
         id="stop3527"
         style="stop-color:#000066;stop-opacity:1"
         offset="0" />
      <stop
         id="stop3529"
         style="stop-color:#00004f;stop-opacity:1"
         offset="1" />
    </linearGradient>
    <linearGradient
       id="linearGradient3446">
      <stop
         id="stop3448"
         style="stop-color:#f4e3ca;stop-opacity:1"
         offset="0" />
      <stop
         id="stop3450"
         style="stop-color:#e9cc9d;stop-opacity:1"
         offset="1" />
    </linearGradient>
    <linearGradient
       id="linearGradient2917">
      <stop
         id="stop2919"
         style="stop-color:#d40000;stop-opacity:1"
         offset="0" />
      <stop
         id="stop2921"
         style="stop-color:#570000;stop-opacity:1"
         offset="1" />
    </linearGradient>
    <linearGradient
       x1="366.08591"
       y1="184.23257"
       x2="270.37161"
       y2="86.036026"
       id="linearGradient3071"
       xlink:href="#linearGradient3525"
       gradientUnits="userSpaceOnUse"
       gradientTransform="matrix(0.485989,0.460262,-0.482828,0.469608,235.2216,-80.23556)" />
    <linearGradient
       x1="196.08591"
       y1="365.66113"
       x2="95.290253"
       y2="255.5688"
       id="linearGradient3101"
       xlink:href="#linearGradient3525"
       gradientUnits="userSpaceOnUse"
       gradientTransform="matrix(0.620715,0.136186,-0.132947,0.605953,365.14,10.09319)" />
    <linearGradient
       x1="370.37161"
       y1="344.23257"
       x2="283.22876"
       y2="259.17615"
       id="linearGradient3103"
       xlink:href="#linearGradient2917"
       gradientUnits="userSpaceOnUse"
       gradientTransform="matrix(0.620931,0.304009,-0.292008,0.644049,194.0425,-60.61792)" />
    <linearGradient
       x1="536.08594"
       y1="521.37543"
       x2="439.24854"
       y2="434.30499"
       id="linearGradient3117"
       xlink:href="#linearGradient3525"
       gradientUnits="userSpaceOnUse"
       gradientTransform="matrix(0.492397,0.571556,-0.503799,0.505374,233.6223,-190.7188)" />
    <linearGradient
       x1="533.22876"
       y1="185.66115"
       x2="454.65735"
       y2="89.025398"
       id="linearGradient3125"
       xlink:href="#linearGradient3525"
       gradientUnits="userSpaceOnUse"
       gradientTransform="matrix(0.660096,0.05941423,-0.06000381,0.653611,-116.4365,105.7272)" />
    <linearGradient
       x1="715.71844"
       y1="299.56409"
       x2="650.84174"
       y2="230.34946"
       id="linearGradient3452"
       xlink:href="#linearGradient3446"
       gradientUnits="userSpaceOnUse"
       gradientTransform="translate(-476.4724,-112.8383)" />
    <linearGradient
       x1="791.06329"
       y1="-355.92725"
       x2="723.2616"
       y2="-358.38074"
       id="linearGradient3460"
       xlink:href="#linearGradient3446"
       gradientUnits="userSpaceOnUse"
       gradientTransform="translate(-419.3421,258.595)" />
    <linearGradient
       x1="175.47467"
       y1="955.26855"
       x2="218.35574"
       y2="880.65918"
       id="linearGradient3474"
       xlink:href="#linearGradient3446"
       gradientUnits="userSpaceOnUse"
       gradientTransform="translate(-137.3612,-469.7778)" />
    <linearGradient
       x1="758.90216"
       y1="200.78854"
       x2="693.67474"
       y2="145.09717"
       id="linearGradient3482"
       xlink:href="#linearGradient3446"
       gradientUnits="userSpaceOnUse"
       gradientTransform="translate(-490.353,22.1016)" />
    <linearGradient
       x1="870.85938"
       y1="-140.09358"
       x2="795.29053"
       y2="-169.7764"
       id="linearGradient3490"
       xlink:href="#linearGradient3446"
       gradientUnits="userSpaceOnUse"
       gradientTransform="translate(-450.4099,198.7519)" />
    <linearGradient
       x1="965.19623"
       y1="159.7126"
       x2="901.40399"
       y2="103.7599"
       id="linearGradient3498"
       xlink:href="#linearGradient3446"
       gradientUnits="userSpaceOnUse"
       gradientTransform="translate(-490.3612,21.8953)" />
    <linearGradient
       x1="412.31854"
       y1="743.88672"
       x2="388.38828"
       y2="683.20331"
       id="linearGradient3506"
       xlink:href="#linearGradient3446"
       gradientUnits="userSpaceOnUse"
       gradientTransform="translate(-379.7777,-307.2103)" />
    <linearGradient
       x1="805.99457"
       y1="514.12738"
       x2="741.84326"
       y2="450.75146"
       id="linearGradient3514"
       xlink:href="#linearGradient3446"
       gradientUnits="userSpaceOnUse"
       gradientTransform="translate(-476.4724,-112.8383)" />
    <linearGradient
       x1="974.9718"
       y1="357.18353"
       x2="909.49103"
       y2="305.17203"
       id="linearGradient3522"
       xlink:href="#linearGradient3446"
       gradientUnits="userSpaceOnUse"
       gradientTransform="translate(-489.4263,-30.47642)" />
    <linearGradient
       x1="904.65735"
       y1="359.94687"
       x2="947.51447"
       y2="414.23257"
       id="linearGradient3531"
       xlink:href="#linearGradient3525"
       gradientUnits="userSpaceOnUse"
       gradientTransform="matrix(0.868057,-0.04019387,0.04019387,0.868057,-383.372,26.04062)" />
    <linearGradient
       x1="1090.1083"
       y1="429.67673"
       x2="897.16919"
       y2="230.67667"
       id="linearGradient3106"
       xlink:href="#linearGradient3525"
       gradientUnits="userSpaceOnUse"
       gradientTransform="matrix(0.279104,0,0,0.294448,61.36618,240.5454)" />
    <linearGradient
       x1="-190.76511"
       y1="284.21475"
       x2="-514.01392"
       y2="-144.08994"
       id="linearGradient4929"
       xlink:href="#linearGradient3525"
       gradientUnits="userSpaceOnUse"
       gradientTransform="matrix(0.110956,-0.03855391,0.03807676,0.115717,257.0759,100.5169)" />
    <linearGradient
       x1="24.404194"
       y1="365.39426"
       x2="14.581494"
       y2="357.17325"
       id="linearGradient2865"
       xlink:href="#linearGradient3525"
       gradientUnits="userSpaceOnUse"
       gradientTransform="matrix(5.542162,3.319805,-4.164453,6.008209,1822.086,-2110.395)" />
  </defs>
  <g
     transform="matrix(1.6526914,0,0,1.6526914,173.36227,-470.1476)"
     id="text3337"
     style="font-size:40.00020981px;font-style:normal;font-variant:normal;font-weight:normal;font-stretch:normal;fill:#4d4d4d;fill-opacity:1;stroke:none;font-family:Nimbus Sans L;-inkscape-font-specification:Nimbus Sans L">
    <path
       d="m -83.279427,527.94983 -5.863281,-22.89649 c -0.556643,-2.10284 -0.915367,-3.25322 -1.076172,-3.45117 -0.160809,-0.19789 -0.834962,-0.29685 -2.022461,-0.29687 l -0.389648,-0.0371 0,-1.13184 9.833984,0 0,1.13184 -0.352539,0 c -1.199878,2e-5 -1.960619,0.0619 -2.282226,0.18555 -0.321622,0.12372 -0.482429,0.40822 -0.482422,0.85351 -7e-6,0.40823 0.179355,1.32359 0.538086,2.74609 l 4.063476,15.97559 6.327149,-20.55859 1.298828,0 6.327148,21.13379 4.75,-16.53223 c 0.531871,-1.88018 0.797821,-2.93162 0.797852,-3.1543 -3.1e-5,-0.43291 -0.964874,-0.64939 -2.894531,-0.64941 l -0.333985,0 0,-1.13184 7.551758,0 0,1.13184 -0.333984,0.0371 c -1.323602,0.0742 -2.056511,0.19176 -2.198731,0.35254 -0.142285,0.16083 -0.535025,1.29266 -1.178222,3.3955 l -6.716797,22.89649 -1.243164,0 -6.475586,-21.13379 -6.364258,21.13379 z"
       id="path3055"
       style="font-size:38px;fill:#4d4d4d;font-family:Lucida Bright;-inkscape-font-specification:Lucida Bright" />
    <path
       d="m -49.676888,507.4469 0,15.34473 c -7e-6,1.68229 0.13606,2.68424 0.408204,3.00586 0.272127,0.32161 1.168936,0.5319 2.690429,0.63085 l 0.352539,0.0186 0,1.15039 -10.539062,0 0,-1.15039 0.352539,-0.0186 c 1.496742,-0.099 2.384274,-0.31233 2.662598,-0.64013 0.278316,-0.3278 0.417476,-1.32666 0.41748,-2.99658 l 0,-10.53907 c -4e-6,-1.6699 -0.139164,-2.66567 -0.41748,-2.9873 -0.278324,-0.3216 -1.165856,-0.53807 -2.662598,-0.64942 l -0.352539,-0.0186 0,-1.15039 z m -3.655273,-3.65527 0,-3.65528 3.655273,0 0,3.65528 z"
       id="path3057"
       style="font-size:38px;fill:#4d4d4d;font-family:Lucida Bright;-inkscape-font-specification:Lucida Bright" />
    <path
       d="m -38.024544,517.68909 0,5.10254 c -8e-6,1.65755 0.126783,2.65641 0.380371,2.99658 0.253573,0.34017 1.005037,0.55355 2.254395,0.64013 l 0.352539,0.0186 0,1.15039 -10.075195,0 0,-1.15039 0.352539,-0.0186 c 1.496742,-0.099 2.384274,-0.31233 2.662597,-0.64013 0.278317,-0.3278 0.417477,-1.32666 0.417481,-2.99658 l 0,-19.68653 c -4e-6,-1.66989 -0.139164,-2.66875 -0.417481,-2.99658 -0.278323,-0.32777 -1.165855,-0.54115 -2.662597,-0.64014 l -0.352539,-0.0186 0,-1.15039 7.08789,0 0,18.48047 0.872071,0 4.675781,-4.49024 c 2.003891,-2.041 3.005843,-3.13572 3.005859,-3.28418 -1.6e-5,-0.235 -0.340185,-0.36179 -1.020508,-0.38037 -0.680353,-0.0185 -1.150404,-0.0278 -1.410156,-0.0278 l -0.389648,0 0,-1.15039 7.848632,0 0,1.15039 -0.352539,0.0186 c -1.311217,0.0866 -2.14927,0.24433 -2.51416,0.47315 -0.364927,0.22886 -1.524594,1.30812 -3.479004,3.23779 l -3.52539,3.46973 6.048828,7.10644 c 1.533835,1.73178 2.495585,2.73682 2.885254,3.01514 0.389627,0.27832 1.066873,0.44841 2.031738,0.51025 l 0.352539,0.0186 0,1.15039 -5.65918,0 -8.498046,-9.9082 z"
       id="path3059"
       style="font-size:38px;fill:#4d4d4d;font-family:Lucida Bright;-inkscape-font-specification:Lucida Bright" />
    <path
       d="m -5.6095047,526.91077 c -1.929703,0.76692 -3.8160943,1.15039 -5.6591793,1.15039 -2.94402,0 -5.331387,-0.9834 -7.16211,-2.9502 -1.830732,-1.96679 -2.746095,-4.52733 -2.746094,-7.68164 -10e-7,-3.15428 0.881345,-5.68081 2.644043,-7.57959 1.76269,-1.89874 4.109855,-2.84812 7.041504,-2.84814 1.4967321,2e-5 3.4573422,0.30308 5.8818363,0.90918 l 0,4.80566 -2.2822266,0 -0.018555,-0.33398 c -1.52e-5,-2.77082 -1.2184384,-4.15623 -3.6552727,-4.15625 -1.76889,2e-5 -3.175953,0.80405 -4.221192,2.41211 -1.045253,1.60808 -1.567877,3.78517 -1.567871,6.53125 -6e-6,2.80795 0.618483,5.02214 1.855469,6.64257 1.23697,1.62045 2.91926,2.43067 5.046875,2.43067 1.8307142,0 3.4449704,-0.30925 4.8427729,-0.92774 z"
       id="path3061"
       style="font-size:38px;fill:#4d4d4d;font-family:Lucida Bright;-inkscape-font-specification:Lucida Bright" />
    <path
       d="m 4.1317062,507.4469 0,15.34473 c -7.7e-6,1.68229 0.1360598,2.68424 0.4082032,3.00586 0.2721269,0.32161 1.1689359,0.5319 2.6904297,0.63085 l 0.352539,0.0186 0,1.15039 -10.5390625,0 0,-1.15039 0.3525391,-0.0186 c 1.4967422,-0.099 2.3842739,-0.31233 2.66259763,-0.64013 0.27831633,-0.3278 0.41747635,-1.32666 0.41748047,-2.99658 l 0,-10.53907 c -4.12e-6,-1.6699 -0.13916414,-2.66567 -0.41748047,-2.9873 -0.27832373,-0.3216 -1.16585543,-0.53807 -2.66259763,-0.64942 l -0.3525391,-0.0186 0,-1.15039 z m -3.6552734,-3.65527 0,-3.65528 3.6552734,0 0,3.65528 z"
       id="path3063"
       style="font-size:38px;fill:#4d4d4d;font-family:Lucida Bright;-inkscape-font-specification:Lucida Bright" />
    <path
       d="m 19.457878,528.06116 c -2.968758,0 -5.312832,-0.9432 -7.032226,-2.82959 -1.719404,-1.88639 -2.5791038,-4.45621 -2.579102,-7.70948 -1.8e-6,-3.25324 0.859698,-5.81997 2.579102,-7.70019 1.719394,-1.88019 4.063468,-2.82029 7.032226,-2.82031 2.981105,2e-5 5.328271,0.94012 7.041504,2.82031 1.713196,1.88022 2.569803,4.44695 2.569824,7.70019 -2.1e-5,3.25327 -0.85972,5.82309 -2.579101,7.70948 -1.719418,1.88639 -4.063491,2.82959 -7.032227,2.82959 z m 0,-1.15039 c 1.645169,0 3.01203,-0.88753 4.100586,-2.6626 1.088525,-1.77506 1.632795,-4.01708 1.632813,-6.72608 -1.8e-5,-2.68423 -0.544288,-4.92006 -1.632813,-6.70751 -1.088556,-1.78742 -2.455417,-2.68114 -4.100586,-2.68116 -1.632822,2e-5 -2.993498,0.89374 -4.082031,2.68116 -1.088548,1.78745 -1.632818,4.02328 -1.632813,6.70751 -5e-6,2.709 0.541172,4.95102 1.623536,6.72608 1.082348,1.77507 2.446116,2.6626 4.091308,2.6626 z"
       id="path3065"
       style="font-size:38px;fill:#4d4d4d;font-family:Lucida Bright;-inkscape-font-specification:Lucida Bright" />
    <path
       d="m 38.717644,511.23206 c 0.927725,-1.41014 1.997711,-2.46776 3.209961,-3.17286 1.212227,-0.70505 2.566718,-1.05759 4.063476,-1.05761 1.731754,2e-5 3.09243,0.56903 4.082031,1.70703 0.977194,1.13804 1.4658,2.70281 1.465821,4.69433 l 0,9.38868 c 0.08657,1.8431 0.22882,2.88216 0.426758,3.11718 0.197895,0.23503 1.088519,0.40821 2.671875,0.51953 l 0.333984,0.0186 0,1.15039 -10.520508,0 0,-1.15039 0.333985,-0.0186 c 1.583317,-0.11132 2.473942,-0.2845 2.671875,-0.51953 0.1979,-0.23502 0.340152,-1.27408 0.426757,-3.11718 l 0,-8.81348 c -1.7e-5,-1.73176 -0.225765,-2.93472 -0.677246,-3.60889 -0.451513,-0.67413 -1.258641,-1.01121 -2.421386,-1.01123 -0.81642,2e-5 -1.731783,0.25669 -2.746094,0.77002 -1.014333,0.51337 -2.121428,1.28957 -3.321289,2.32862 l 0,10.33496 c -8e-6,1.68229 0.13606,2.68424 0.408203,3.00586 0.272127,0.32161 1.168936,0.5319 2.69043,0.63085 l 0.352539,0.0186 0,1.15039 -10.539063,0 0,-1.15039 0.352539,-0.0186 c 1.496742,-0.099 2.384274,-0.31233 2.662598,-0.64013 0.278316,-0.3278 0.417476,-1.32666 0.41748,-2.99658 l 0,-10.53907 c -4e-6,-1.6699 -0.139164,-2.66567 -0.41748,-2.9873 -0.278324,-0.3216 -1.165856,-0.53807 -2.662598,-0.64942 l -0.352539,-0.0186 0,-1.15039 7.087891,0 z"
       id="path3067"
       style="font-size:38px;fill:#4d4d4d;font-family:Lucida Bright;-inkscape-font-specification:Lucida Bright" />
    <path
       d="m 69.277214,524.83264 c -2.177095,2.15235 -4.329437,3.22852 -6.457031,3.22852 -1.707038,0 -3.129562,-0.54118 -4.267578,-1.62354 -1.138024,-1.08235 -1.707033,-2.43994 -1.707032,-4.07275 -1e-6,-1.90494 0.742185,-3.45117 2.226563,-4.63867 1.694656,-1.36067 4.564444,-2.04101 8.609375,-2.04102 l 0.760742,0 0,-2.50488 c -1.3e-5,-3.17902 -1.206067,-4.76854 -3.618164,-4.76856 -1.12566,2e-5 -2.121427,0.34638 -2.987305,1.03907 -0.507167,0.42059 -0.828782,1.28029 -0.964843,2.5791 l -0.01855,0.35254 -2.486328,0 0,-3.69239 c 2.572911,-1.12563 4.960278,-1.68845 7.162109,-1.68847 4.378892,2e-5 6.568342,2.01011 6.56836,6.03027 l 0,8.98047 c -1.8e-5,1.60808 0.139142,2.73991 0.41748,3.39551 0.278303,0.6556 0.763816,0.9834 1.456543,0.9834 0.247377,0 0.575176,-0.0557 0.983398,-0.167 l 0.111329,1.37305 c -0.878275,0.30924 -1.663756,0.46387 -2.356446,0.46387 -1.806005,0 -2.95021,-1.07617 -3.432617,-3.22852 z m -0.834961,-0.4082 0,-7.58887 -0.853516,0 c -2.152354,1e-5 -3.834644,0.44532 -5.046875,1.33594 -1.212245,0.89063 -1.818365,2.11524 -1.818359,3.67383 -6e-6,1.16276 0.377273,2.1276 1.131836,2.89453 0.75455,0.76693 1.694653,1.15039 2.820313,1.15039 1.063791,0 2.319323,-0.48861 3.766601,-1.46582 z m -2.634766,-26.125 4.230469,0 -6.512695,5.49219 -1.725586,0 z"
       id="path3069"
       style="font-size:38px;fill:#4d4d4d;font-family:Lucida Bright;-inkscape-font-specification:Lucida Bright" />
    <path
       d="m 83.397331,512.93909 0,9.85254 c -8e-6,1.66992 0.145337,2.67187 0.436035,3.00586 0.290682,0.33398 1.178214,0.54427 2.662598,0.63085 l 0.797852,0.0186 0,1.15039 -10.984375,0 0,-1.15039 0.352539,-0.0186 c 1.496742,-0.099 2.384274,-0.31233 2.662597,-0.64013 0.278317,-0.3278 0.417477,-1.32666 0.417481,-2.99658 l 0,-10.53907 c -4e-6,-1.6699 -0.139164,-2.66567 -0.417481,-2.9873 -0.278323,-0.3216 -1.165855,-0.53807 -2.662597,-0.64942 l -0.352539,-0.0186 0,-1.15039 7.08789,0 0,3.78516 c 1.669913,-2.8203 3.853179,-4.23045 6.549805,-4.23047 0.371079,2e-5 0.785467,0.068 1.243164,0.2041 l 0,5.51074 -2.05957,0 -0.01856,-0.33398 c -0.136081,-1.15038 -0.256686,-1.83381 -0.361816,-2.0503 -0.105157,-0.21645 -0.386569,-0.32469 -0.844239,-0.3247 -1.830739,10e-6 -3.333668,0.97723 -4.508789,2.93164 z"
       id="path3071"
       style="font-size:38px;fill:#4d4d4d;font-family:Lucida Bright;-inkscape-font-specification:Lucida Bright" />
    <path
       d="m 100.09655,507.4469 0,15.34473 c -10e-6,1.68229 0.13606,2.68424 0.4082,3.00586 0.27213,0.32161 1.16894,0.5319 2.69043,0.63085 l 0.35254,0.0186 0,1.15039 -10.539061,0 0,-1.15039 0.352539,-0.0186 c 1.496743,-0.099 2.384274,-0.31233 2.662598,-0.64013 0.278316,-0.3278 0.417476,-1.32666 0.417481,-2.99658 l 0,-10.53907 c -5e-6,-1.6699 -0.139165,-2.66567 -0.417481,-2.9873 -0.278324,-0.3216 -1.165855,-0.53807 -2.662598,-0.64942 l -0.352539,-0.0186 0,-1.15039 z m -3.655273,-3.65527 0,-3.65528 3.655273,0 0,3.65528 z"
       id="path3073"
       style="font-size:38px;fill:#4d4d4d;font-family:Lucida Bright;-inkscape-font-specification:Lucida Bright" />
    <path
       d="m 115.42272,528.06116 c -2.96876,0 -5.31283,-0.9432 -7.03222,-2.82959 -1.71941,-1.88639 -2.57911,-4.45621 -2.57911,-7.70948 0,-3.25324 0.8597,-5.81997 2.57911,-7.70019 1.71939,-1.88019 4.06346,-2.82029 7.03222,-2.82031 2.98111,2e-5 5.32827,0.94012 7.04151,2.82031 1.71319,1.88022 2.5698,4.44695 2.56982,7.70019 -2e-5,3.25327 -0.85972,5.82309 -2.5791,7.70948 -1.71942,1.88639 -4.06349,2.82959 -7.03223,2.82959 z m 0,-1.15039 c 1.64517,0 3.01203,-0.88753 4.10059,-2.6626 1.08852,-1.77506 1.63279,-4.01708 1.63281,-6.72608 -2e-5,-2.68423 -0.54429,-4.92006 -1.63281,-6.70751 -1.08856,-1.78742 -2.45542,-2.68114 -4.10059,-2.68116 -1.63282,2e-5 -2.9935,0.89374 -4.08203,2.68116 -1.08855,1.78745 -1.63282,4.02328 -1.63281,6.70751 -1e-5,2.709 0.54117,4.95102 1.62353,6.72608 1.08235,1.77507 2.44612,2.6626 4.09131,2.6626 z"
       id="path3075"
       style="font-size:38px;fill:#4d4d4d;font-family:Lucida Bright;-inkscape-font-specification:Lucida Bright" />
  </g>
  <rect
     width="89.876274"
     height="89.531746"
     rx="9.1593952"
     ry="12.278864"
     x="157.9026"
     y="113.38107"
     transform="matrix(0.993692,-0.112147,0.121212,0.992627,-128.4431,-60.87543)"
     id="rect2525"
     style="fill:#e7c78d;fill-opacity:1;fill-rule:nonzero;stroke:#000000;stroke-width:1.08279371;stroke-linecap:round;stroke-linejoin:round;stroke-miterlimit:4;stroke-opacity:1;stroke-dasharray:none;stroke-dashoffset:0" />
  <rect
     width="89.87632"
     height="89.531639"
     rx="9.1594009"
     ry="12.278854"
     x="296.33511"
     y="-142.43333"
     transform="matrix(0.780862,0.624704,-0.617551,0.786531,-128.4431,-60.87543)"
     id="rect3412"
     style="fill:#e7c78d;fill-opacity:1;fill-rule:nonzero;stroke:#000000;stroke-width:1.08279395;stroke-linecap:round;stroke-linejoin:round;stroke-miterlimit:4;stroke-opacity:1;stroke-dasharray:none;stroke-dashoffset:0" />
  <rect
     width="89.875908"
     height="89.531143"
     rx="9.1593494"
     ry="12.278783"
     x="4.3842111"
     y="408.65277"
     transform="matrix(0.400924,-0.916111,0.919732,0.392546,-128.4431,-60.87543)"
     id="rect3414"
     style="fill:#e7c78d;fill-opacity:1;fill-rule:nonzero;stroke:#000000;stroke-width:1.08278763;stroke-linecap:round;stroke-linejoin:round;stroke-miterlimit:4;stroke-opacity:1;stroke-dasharray:none;stroke-dashoffset:0" />
  <rect
     width="89.875633"
     height="89.531563"
     rx="9.1593246"
     ry="12.278835"
     x="186.71849"
     y="155.3264"
     transform="matrix(0.986464,0.163975,-0.154965,0.98792,-128.4431,-60.87543)"
     id="rect3416"
     style="fill:#e7c78d;fill-opacity:1;fill-rule:nonzero;stroke:#000000;stroke-width:1.08278918;stroke-linecap:round;stroke-linejoin:round;stroke-miterlimit:4;stroke-opacity:1;stroke-dasharray:none;stroke-dashoffset:0" />
  <rect
     width="89.87571"
     height="89.531258"
     rx="9.1593342"
     ry="12.278788"
     x="340.08557"
     y="5.9207983"
     transform="matrix(0.859397,0.511308,-0.503443,0.864028,-128.4431,-60.87543)"
     id="rect3418"
     style="fill:#e7c78d;fill-opacity:1;fill-rule:nonzero;stroke:#000000;stroke-width:1.0827868;stroke-linecap:round;stroke-linejoin:round;stroke-miterlimit:4;stroke-opacity:1;stroke-dasharray:none;stroke-dashoffset:0" />
  <rect
     width="89.875694"
     height="89.531532"
     rx="9.1593323"
     ry="12.278823"
     x="398.77051"
     y="113.79871"
     transform="matrix(0.986533,0.16356,-0.154549,0.987985,-128.4431,-60.87543)"
     id="rect3420"
     style="fill:#e7c78d;fill-opacity:1;fill-rule:nonzero;stroke:#000000;stroke-width:1.0827893;stroke-linecap:round;stroke-linejoin:round;stroke-miterlimit:4;stroke-opacity:1;stroke-dasharray:none;stroke-dashoffset:0" />
  <rect
     width="89.876167"
     height="89.531548"
     rx="9.1593819"
     ry="12.278833"
     x="-31.370306"
     y="367.33505"
     transform="matrix(0.848906,-0.528544,0.536269,0.844047,-128.4431,-60.87543)"
     id="rect3422"
     style="fill:#e7c78d;fill-opacity:1;fill-rule:nonzero;stroke:#000000;stroke-width:1.08279181;stroke-linecap:round;stroke-linejoin:round;stroke-miterlimit:4;stroke-opacity:1;stroke-dasharray:none;stroke-dashoffset:0" />
  <rect
     width="89.876335"
     height="89.531807"
     rx="9.1594028"
     ry="12.278873"
     x="247.75377"
     y="334.37372"
     transform="matrix(0.993692,-0.112147,0.121212,0.992627,-128.4431,-60.87543)"
     id="rect3424"
     style="fill:#e7c78d;fill-opacity:1;fill-rule:nonzero;stroke:#000000;stroke-width:1.08279443;stroke-linecap:round;stroke-linejoin:round;stroke-miterlimit:4;stroke-opacity:1;stroke-dasharray:none;stroke-dashoffset:0" />
  <rect
     width="89.876228"
     height="89.53167"
     rx="9.1593895"
     ry="12.278848"
     x="403.2547"
     y="264.06793"
     transform="matrix(0.998347,0.05747685,-0.04836232,0.99883,-128.4431,-60.87543)"
     id="rect3426"
     style="fill:#e7c78d;fill-opacity:1;fill-rule:nonzero;stroke:#000000;stroke-width:1.08279252;stroke-linecap:round;stroke-linejoin:round;stroke-miterlimit:4;stroke-opacity:1;stroke-dasharray:none;stroke-dashoffset:0" />
  <rect
     width="89.876335"
     height="89.531807"
     rx="9.1594028"
     ry="12.278873"
     x="159.51381"
     y="105.61226"
     transform="matrix(0.993692,-0.112147,0.121212,0.992627,-128.4431,-60.87543)"
     id="rect3428"
     style="fill:url(#linearGradient3452);fill-opacity:1;fill-rule:nonzero;stroke:#000000;stroke-width:1.08279443;stroke-linecap:round;stroke-linejoin:round;stroke-miterlimit:4;stroke-opacity:1;stroke-dasharray:none;stroke-dashoffset:0" />
  <rect
     width="89.876366"
     height="89.531654"
     rx="9.1594067"
     ry="12.278858"
     x="291.97964"
     y="-149.00807"
     transform="matrix(0.780862,0.624704,-0.617551,0.786531,-128.4431,-60.87543)"
     id="rect3430"
     style="fill:url(#linearGradient3460);fill-opacity:1;fill-rule:nonzero;stroke:#000000;stroke-width:1.08279443;stroke-linecap:round;stroke-linejoin:round;stroke-miterlimit:4;stroke-opacity:1;stroke-dasharray:none;stroke-dashoffset:0" />
  <rect
     width="89.875862"
     height="89.531082"
     rx="9.1593437"
     ry="12.278775"
     x="11.901784"
     y="406.09143"
     transform="matrix(0.400924,-0.916111,0.919732,0.392546,-128.4431,-60.87543)"
     id="rect3432"
     style="fill:url(#linearGradient3474);fill-opacity:1;fill-rule:nonzero;stroke:#000000;stroke-width:1.08278692;stroke-linecap:round;stroke-linejoin:round;stroke-miterlimit:4;stroke-opacity:1;stroke-dasharray:none;stroke-dashoffset:0" />
  <rect
     width="89.875542"
     height="89.531563"
     rx="9.1593151"
     ry="12.278835"
     x="186.14561"
     y="147.4326"
     transform="matrix(0.986464,0.163975,-0.154965,0.98792,-128.4431,-60.87543)"
     id="rect3434"
     style="fill:url(#linearGradient3482);fill-opacity:1;fill-rule:nonzero;stroke:#000000;stroke-width:1.08278871;stroke-linecap:round;stroke-linejoin:round;stroke-miterlimit:4;stroke-opacity:1;stroke-dasharray:none;stroke-dashoffset:0" />
  <rect
     width="89.875633"
     height="89.531197"
     rx="9.1593266"
     ry="12.278778"
     x="336.6806"
     y="-1.1987466"
     transform="matrix(0.859397,0.511308,-0.503443,0.864028,-128.4431,-60.87543)"
     id="rect3436"
     style="fill:url(#linearGradient3490);fill-opacity:1;fill-rule:nonzero;stroke:#000000;stroke-width:1.08278584;stroke-linecap:round;stroke-linejoin:round;stroke-miterlimit:4;stroke-opacity:1;stroke-dasharray:none;stroke-dashoffset:0" />
  <rect
     width="89.875618"
     height="89.531517"
     rx="9.1593246"
     ry="12.278819"
     x="398.20093"
     y="105.90461"
     transform="matrix(0.986533,0.16356,-0.154549,0.987985,-128.4431,-60.87543)"
     id="rect3438"
     style="fill:url(#linearGradient3498);fill-opacity:1;fill-rule:nonzero;stroke:#000000;stroke-width:1.08278883;stroke-linecap:round;stroke-linejoin:round;stroke-miterlimit:4;stroke-opacity:1;stroke-dasharray:none;stroke-dashoffset:0" />
  <rect
     width="89.876183"
     height="89.531532"
     rx="9.1593838"
     ry="12.278831"
     x="-26.581539"
     y="360.98306"
     transform="matrix(0.848906,-0.528544,0.536269,0.844047,-128.4431,-60.87543)"
     id="rect3440"
     style="fill:url(#linearGradient3506);fill-opacity:1;fill-rule:nonzero;stroke:#000000;stroke-width:1.08279181;stroke-linecap:round;stroke-linejoin:round;stroke-miterlimit:4;stroke-opacity:1;stroke-dasharray:none;stroke-dashoffset:0" />
  <rect
     width="89.876396"
     height="89.531868"
     rx="9.1594105"
     ry="12.278883"
     x="249.36504"
     y="326.60507"
     transform="matrix(0.993692,-0.112147,0.121212,0.992627,-128.4431,-60.87543)"
     id="rect3442"
     style="fill:url(#linearGradient3514);fill-opacity:1;fill-rule:nonzero;stroke:#000000;stroke-width:1.08279514;stroke-linecap:round;stroke-linejoin:round;stroke-miterlimit:4;stroke-opacity:1;stroke-dasharray:none;stroke-dashoffset:0" />
  <rect
     width="89.876259"
     height="89.5317"
     rx="9.1593933"
     ry="12.278852"
     x="403.53143"
     y="256.15054"
     transform="matrix(0.998347,0.05747683,-0.0483623,0.99883,-128.4431,-60.87543)"
     id="rect3444"
     style="fill:url(#linearGradient3522);fill-opacity:1;fill-rule:nonzero;stroke:#000000;stroke-width:1.08279276;stroke-linecap:round;stroke-linejoin:round;stroke-miterlimit:4;stroke-opacity:1;stroke-dasharray:none;stroke-dashoffset:0" />
  <path
     d="m 441.29356,356.86407 -27.64286,-1.62772 c -0.65387,-5.66943 -1.42149,-10.76049 -2.30298,-15.27317 -1.23903,-6.4716 -1.75067,-11.71222 -1.53482,-15.72155 0.29236,-5.4308 1.2321,-10.29327 2.81922,-14.58756 -4.04818,-1.59115 -5.9752,-4.19099 -5.78094,-7.79944 0.18445,-3.42613 1.17438,-6.45753 2.96994,-9.09411 l 1.33516,0.0786 c 0.25699,1.36806 0.717,2.34579 1.37988,2.93317 0.66287,0.58766 2.08503,1.20145 4.26631,1.84179 3.25545,0.95956 4.75176,3.88141 4.48882,8.76546 -0.0667,1.23924 -0.21865,2.21765 -0.45567,2.93483 -2.15102,0.64133 -4.11675,0.90944 -5.89695,0.80461 -0.9604,3.70956 -1.56514,7.87877 -1.81434,12.50766 -0.31985,5.94122 1.20965,13.16133 4.5884,21.66019 l 1.53587,0.0357 c 4.97406,-8.84818 9.54728,-20.07826 13.71956,-33.69039 -3.99766,-1.9173 -5.89838,-4.69835 -5.70215,-8.34328 0.16874,-3.13451 1.16144,-5.90982 2.97821,-8.32576 l 1.33516,0.0786 c 0.28568,2.06444 1.14302,3.3398 2.57205,3.8261 l 3.07413,0.94887 c 3.28454,1.03442 4.81389,3.64741 4.58838,7.83897 -0.0806,1.49438 -0.29857,2.77958 -0.65405,3.85549 -1.51105,0.42305 -3.37098,0.5695 -5.57973,0.4393 -3.14557,12.35639 -7.33763,23.57232 -12.57618,33.64797 l 15.72522,0.92596 c 1.81469,-5.45076 6.43721,-13.29585 13.86731,-23.5351 1.89051,-2.55783 2.88577,-4.76619 2.98585,-6.62513 0.10204,-1.89526 -0.71938,-3.2234 -2.46429,-3.98423 l -0.63109,-0.25652 c -3.23005,-1.43337 -4.76265,-3.68099 -4.59768,-6.74269 0.18628,-3.46246 1.31014,-6.52257 3.37136,-9.18008 l 1.28568,0.0757 c 0.13664,1.7631 0.91444,2.97892 2.33365,3.64755 l 2.71334,1.20187 c 3.06705,1.38721 4.49861,3.97612 4.29451,7.76679 -0.17658,3.28038 -1.93974,7.46371 -5.28916,12.54986 -3.34938,5.08642 -6.36384,10.70421 -9.04289,16.85377 -2.6792,6.14956 -4.76656,12.67223 -6.26223,19.56787 l 0,0 z"
     transform="translate(-128.4431,-60.87543)"
     id="flowRoot2762"
     style="font-size:8.35136795px;font-style:normal;font-variant:normal;font-weight:normal;font-stretch:normal;text-align:start;line-height:125%;writing-mode:lr-tb;text-anchor:start;fill:url(#linearGradient3531);fill-opacity:1;stroke:#000000;stroke-width:0.83784765;stroke-miterlimit:4;stroke-opacity:1;font-family:Times New Roman" />
  <path
     d="m 204.05937,338.41602 1.25447,-0.83867 c 1.70236,2.63653 3.18247,4.05446 4.44035,4.2538 1.25795,0.19927 3.40133,-0.71358 6.43011,-2.73837 l 14.07031,-9.40671 -0.49925,-0.91456 c -0.46963,-0.78579 -1.015,-1.32776 -1.63603,-1.62585 -0.62107,-0.29815 -1.28353,-0.4274 -1.98738,-0.38782 -0.70393,0.0396 -4.26847,0.45365 -10.69356,1.24193 l -16.3671,2.07025 -6.56829,-10.98999 1.25446,-0.83866 c 2.39834,2.7954 5.0878,4.25203 8.06841,4.36953 2.98067,0.11758 8.95149,-0.29276 17.91265,-1.23091 3.27319,-0.34561 5.72501,-0.18652 7.35541,0.47705 0.23295,-1.93904 0.82507,-3.68733 1.77656,-5.24477 0.95136,-1.55746 3.03593,-4.16971 6.2538,-7.83678 2.53097,-2.91069 4.03358,-4.82927 4.50803,-5.75577 0.47438,-0.92645 0.4895,-1.76134 0.0453,-2.50455 -0.41889,-0.70087 -1.30374,-1.38739 -2.65444,-2.05961 -1.30287,-0.64473 -2.18275,-1.34944 -2.63961,-2.11402 -0.53316,-0.89191 -0.69162,-1.8188 -0.47562,-2.78057 0.21601,-0.96177 0.74223,-1.72225 1.57855,-2.28138 1.0171,-0.67998 2.1934,-0.84222 3.52888,-0.48673 1.33551,0.3555 2.5236,1.40397 3.56444,3.14532 1.01529,1.69895 1.46262,3.53249 1.34196,5.50054 -0.12085,1.96807 -0.63145,3.65441 -1.53183,5.05884 -0.90055,1.40456 -2.82542,3.82082 -5.77469,7.24906 -2.67383,3.0953 -4.41534,5.26269 -5.22452,6.50219 -0.80931,1.23946 -1.2261,2.51379 -1.25033,3.82293 -0.0242,1.30913 0.39517,2.68567 1.2583,4.12983 0.29189,0.48839 0.74678,1.09084 1.3648,1.80717 l 12.64624,-8.45465 c 3.02868,-2.02494 4.72787,-3.68101 5.09735,-4.96832 0.36939,-1.28724 -0.20663,-3.30961 -1.72805,-6.06711 l 1.25446,-0.83867 11.11843,18.60325 -1.25445,0.83868 c -1.68972,-2.61537 -3.1603,-4.01736 -4.41183,-4.20607 -1.25161,-0.18865 -3.39184,0.72945 -6.42053,2.75439 l -12.64623,8.45463 c 0.21964,0.68527 0.48188,1.2827 0.78651,1.79242 0.95193,1.59275 1.98892,2.65302 3.11105,3.18089 1.12213,0.52788 2.36918,0.68242 3.74109,0.46374 1.37187,-0.21877 3.99341,-0.95342 7.86463,-2.20397 4.15781,-1.35315 7.02399,-2.15471 8.59866,-2.40485 1.57441,-0.2502 3.2393,-0.0184 4.99473,0.69551 1.75518,0.71385 3.14683,1.93081 4.17503,3.65099 0.98989,1.65646 1.37991,3.20875 1.16995,4.65704 -0.21014,1.44819 -0.85767,2.53489 -1.94247,3.26025 -0.83638,0.55905 -1.70845,0.74084 -2.61614,0.54528 -0.90777,-0.19569 -1.63462,-0.75005 -2.18026,-1.66322 -0.43167,-0.72207 -0.65601,-1.86493 -0.67311,-3.42873 -0.007,-1.60015 -0.22676,-2.76118 -0.6583,-3.48322 -0.41883,-0.70081 -1.15146,-1.01349 -2.19772,-0.93819 -1.04643,0.0754 -3.30396,0.67811 -6.77248,1.80825 -4.5478,1.49483 -7.68197,2.36413 -9.4026,2.60799 -1.7208,0.24376 -3.45909,0.061 -5.21509,-0.54828 -0.1918,1.58462 -0.62392,3.08468 -1.29632,4.50025 -0.67249,1.41542 -2.58303,4.91444 -5.73155,10.49697 -3.02132,5.31896 -4.71738,9.0312 -5.08815,11.13684 -0.37076,2.10541 -0.0701,4.52731 0.90224,7.26567 l -1.25447,0.83868 -6.56824,-10.9899 c 0.43532,-0.64778 2.72411,-4.46657 6.86637,-11.45638 l 6.82833,-11.52005 c 0.43258,-0.70533 0.80528,-1.56378 1.11809,-2.57541 0.31273,-1.01157 0.13279,-2.08012 -0.53989,-3.20563 -0.13965,-0.23367 -0.31595,-0.50218 -0.52882,-0.8056 l -14.07031,9.40671 c -3.02879,2.02479 -4.73109,3.67562 -5.10693,4.9523 -0.37574,1.27662 0.19074,3.28307 1.69954,6.01938 l -1.25448,0.83866 -11.11844,-18.60324 z"
     transform="translate(-128.4431,-60.87543)"
     id="flowRoot3743"
     style="font-size:8.35136795px;font-style:normal;font-variant:normal;font-weight:normal;font-stretch:normal;text-align:start;line-height:125%;writing-mode:lr-tb;text-anchor:start;fill:url(#linearGradient3117);fill-opacity:1;stroke:#000000;stroke-width:0.73623741;stroke-miterlimit:4;stroke-opacity:1;font-family:Times New Roman" />
  <path
     d="m 367.54967,135.55627 -10.17249,-8.44001 -35.78543,39.65828 -6.91259,-5.73532 35.78543,-39.65827 -4.90951,-4.07337 4.93591,-5.47011 21.9946,18.2487 -4.93592,5.4701 z m -34.07519,-14.22268 c -3.82539,4.23934 -8.36489,6.85985 -13.61849,7.86155 -5.25369,1.00169 -10.52587,0.32405 -15.81653,-2.03294 l 1.81601,23.02885 -8.84711,-0.16631 -3.35064,-41.04157 8.87794,0.13212 0.69713,8.58942 c 0.0337,0.26711 0.37783,0.67222 1.03246,1.21532 3.2206,2.67214 7.24223,3.51785 12.06488,2.53716 4.34574,-0.85819 7.83487,-2.74599 10.46742,-5.66337 2.03601,-2.25641 3.07898,-5.13751 3.12894,-8.6433 0.0629,-3.77391 -1.17559,-6.71453 -3.71539,-8.82185 -1.67583,-1.390339 -3.40855,-2.210195 -5.19814,-2.459561 -2.00289,-0.266754 -3.65215,0.317815 -4.94779,1.753686 -1.85101,2.051315 -1.40183,4.217495 1.34755,6.498565 0.62836,0.52141 1.37831,0.98422 2.24986,1.38844 l -4.62743,5.12821 c -1.25678,-0.48469 -2.72303,-1.42225 -4.39877,-2.81264 -2.67081,-2.2159 -4.04665,-4.85202 -4.12756,-7.90837 -0.0996,-2.832666 0.89945,-5.411409 2.99725,-7.736231 2.69415,-2.985738 6.20394,-4.338247 10.52941,-4.057578 4.0598,0.219855 7.80477,1.752729 11.23494,4.598619 5.05346,4.192886 7.70691,8.96512 7.96034,14.31672 0.19342,5.0628 -1.72533,9.82782 -5.75628,14.29506 l 0,0 z"
     transform="translate(-128.4431,-60.87543)"
     id="text3751"
     style="font-size:147.8637085px;font-style:normal;font-weight:normal;fill:url(#linearGradient3071);fill-opacity:1;stroke:#000000;stroke-width:0.83894545;stroke-linecap:butt;stroke-linejoin:miter;stroke-miterlimit:4;stroke-opacity:1;font-family:Bitstream Vera Sans" />
  <path
     d="m 352.72259,230.14849 -0.85439,1.39128 c -1.26069,-0.77881 -2.42971,-1.17243 -3.50711,-1.18104 -1.07748,-0.009 -2.37321,0.4184 -3.88723,1.28111 -1.01466,0.58355 -3.04925,2.21379 -6.10407,4.89097 l -38.7258,32.76716 -1.42714,-0.88159 8.99572,-39.41133 -30.9739,25.83417 -1.28443,-0.79347 11.62269,-51.2219 c 0.86933,-3.81968 1.33829,-6.10601 1.40705,-6.85901 0.10924,-1.2464 -0.10407,-2.35487 -0.63985,-3.32564 -0.53582,-0.97068 -1.50549,-1.88956 -2.9088,-2.75648 l 0.85439,-1.39126 17.91073,11.06443 -0.85441,1.39128 -0.85621,-0.52893 c -1.26072,-0.77881 -2.40882,-1.07302 -3.44426,-0.88289 -1.03551,0.19025 -1.81491,0.71143 -2.33824,1.56378 -0.53889,0.87732 -1.25488,3.21862 -2.14793,7.02367 l -8.04653,34.4998 22.96801,-19.36921 1.2053,-5.16818 0.95963,-4.12705 c 0.27022,-1.56199 0.38854,-3.01024 0.35514,-4.34491 -0.0167,-0.66727 -0.151,-1.30351 -0.40279,-1.90854 -0.31753,-0.81852 -0.71211,-1.51176 -1.1835,-2.07975 -0.3596,-0.42948 -1.02701,-0.94556 -2.00222,-1.54798 l 0.85439,-1.39129 18.83842,11.63754 -0.85439,1.39127 -1.28442,-0.79346 c -1.33203,-0.82286 -2.49202,-1.12442 -3.47987,-0.90487 -0.988,0.21959 -1.7975,0.84327 -2.42855,1.871 -0.78523,1.27843 -1.62013,3.84008 -2.50482,7.68499 l -7.74211,33.44304 26.45466,-22.40194 c 2.95544,-2.46191 4.80255,-4.29448 5.54164,-5.49778 0.35395,-0.57654 0.51246,-1.22203 0.47553,-1.93641 -0.037,-0.7144 -0.25563,-1.33356 -0.65569,-1.85734 -0.68838,-0.90934 -1.75805,-1.81218 -3.20889,-2.70845 l 0.85439,-1.39127 14.44986,8.92648 z"
     transform="translate(-128.4431,-60.87543)"
     id="flowRoot3695"
     style="font-size:8.35136795px;font-style:normal;font-variant:normal;font-weight:normal;font-stretch:normal;text-align:start;line-height:125%;writing-mode:lr-tb;text-anchor:start;fill:url(#linearGradient3103);fill-opacity:1;stroke:#000000;stroke-width:0.81462008;stroke-miterlimit:4;stroke-opacity:1;font-family:Times New Roman" />
  <path
     d="m 445.04672,194.82991 -4.81362,5.32041 -4.69472,-5.51016 4.70365,-5.35513 4.80469,5.54488 z m 4.79728,9.85233 -4.82306,5.2238 -4.76798,-5.5334 4.69943,-5.21584 4.89161,5.52544 z m -9.66054,1.16753 -4.76332,5.28953 -4.79526,-5.44827 4.69001,-5.31256 4.86857,5.4713 z m 0.17998,38.37645 -2.89673,-0.9141 c -1.4668,-0.46287 -2.68129,-1.1038 -3.64357,-1.92281 -0.96241,-0.81893 -1.85444,-1.9202 -2.6762,-3.30383 -1.37214,0.7537 -2.52055,1.18774 -3.44538,1.30189 -1.31249,0.14793 -3.0688,-0.12519 -5.26891,-0.81947 l -4.51018,-1.42324 c -0.83604,2.60928 -2.18719,4.97802 -4.05338,7.10622 -2.42031,2.76521 -5.36047,4.63251 -8.82031,5.60197 -4.34776,1.22002 -9.22285,0.97768 -14.62534,-0.72716 -4.88911,-1.54283 -8.31127,-3.7157 -10.26631,-6.51877 -2.13591,-3.07878 -2.48145,-6.87302 -1.03652,-11.38269 0.78151,-2.43913 1.82885,-4.82562 3.14194,-7.15962 1.31307,-2.33389 2.81393,-4.62414 4.50279,-6.87069 1.02854,-1.36185 2.7117,-3.42283 5.04966,-6.18289 l 1.22135,1.22863 c -3.01986,3.54431 -5.18187,6.40665 -6.48619,8.58717 -1.30433,2.18054 -2.26995,4.24932 -2.89697,6.20625 -1.1269,3.51706 -0.90173,6.53155 0.67566,9.04359 1.57725,2.51213 4.37038,4.40068 8.37944,5.66581 4.69354,1.48111 9.19037,1.85395 13.4906,1.11855 5.34997,-0.90387 8.70197,-3.46879 10.0561,-7.69477 0.90869,-2.83634 1.31979,-5.67348 1.23324,-8.51152 -0.0638,-2.23743 -0.44814,-4.48234 -1.15293,-6.73478 l 5.83785,-7.76117 c 0.47708,2.71154 0.6494,5.03004 0.51695,6.95579 -0.19778,2.71707 -0.99627,6.25954 -2.39577,10.62743 l 4.51019,1.42326 c 2.32231,0.73282 4.10414,0.84226 5.34559,0.32832 1.08268,-0.43906 1.86038,-1.39598 2.33296,-2.87089 0.26354,-0.82253 0.48653,-1.66556 0.66911,-2.52927 0.18248,-0.86375 0.34723,-1.81891 0.49419,-2.86561 l 2.28458,-2.08979 -0.73552,4.31192 c -0.35285,2.94925 -0.27232,5.17631 0.24141,6.68137 0.56598,1.67765 1.76573,2.80583 3.59927,3.38432 0.56214,0.1775 1.06191,0.10879 1.49933,-0.20604 0.43724,-0.31486 0.75593,-0.78422 0.95587,-1.4082 0.45438,-1.41817 0.56164,-3.05512 0.32188,-4.91094 -0.1806,-1.36867 -0.54455,-2.79521 -1.09176,-4.27958 l 3.94266,-3.86198 c 0.44908,2.54648 0.66866,4.25544 0.65874,5.12666 -0.0348,1.95655 -0.59736,4.63663 -1.68786,8.04009 l -3.27153,10.21057 z"
     transform="translate(-128.4431,-60.87543)"
     id="flowRoot3683"
     style="font-size:8.35136795px;font-style:normal;font-variant:normal;font-weight:normal;font-stretch:normal;text-align:start;line-height:125%;writing-mode:lr-tb;text-anchor:start;fill:url(#linearGradient3101);fill-opacity:1;stroke:#000000;stroke-width:0.78484678;stroke-miterlimit:4;stroke-opacity:1;font-family:Times New Roman" />
  <path
     d="m 224.05397,250.96169 2.04088,0.4248 c -0.98465,4.6378 -2.67448,7.81086 -5.06949,9.51916 -2.39512,1.70829 -5.04772,2.25958 -7.95782,1.65386 -2.38108,-0.49561 -4.51963,-1.66868 -6.41564,-3.51921 -1.89611,-1.85054 -3.06843,-5.9948 -3.51698,-12.43277 l -1.24869,-18.09836 -23.21277,26.24777 -10.71465,-2.23018 32.88207,-35.54512 c -0.16959,-5.52163 -0.89347,-9.73345 -2.17163,-12.63548 -1.27825,-2.90193 -3.25903,-4.63217 -5.94238,-5.19075 -2.1543,-0.44834 -4.17009,-0.20128 -6.04739,0.74119 -1.87735,0.94259 -3.19402,2.72975 -3.95005,5.36152 l -2.04089,-0.4248 c 1.02942,-4.29126 2.8781,-7.51554 5.54607,-9.67282 2.66796,-2.15716 5.58928,-2.90538 8.76402,-2.24464 2.04086,0.42486 3.83915,1.48113 5.39489,3.16881 1.55567,1.6878 2.66944,4.24905 3.34127,7.68373 0.67177,3.43478 1.37181,10.40782 2.10015,20.91916 l 1.06197,14.79524 c 0.39749,6.12085 1.28667,10.34409 2.66753,12.66974 1.38078,2.32565 3.3184,3.74807 5.81285,4.26729 4.2329,0.88104 7.12512,-0.93833 8.67668,-5.45814 l 0,0 z"
     transform="translate(-128.4431,-60.87543)"
     id="text3899"
     style="font-size:158.52603149px;font-style:normal;font-weight:normal;fill:url(#linearGradient3125);fill-opacity:1;stroke:#000000;stroke-width:0.82444137;stroke-linecap:butt;stroke-linejoin:miter;stroke-miterlimit:4;stroke-opacity:1;font-family:Times New Roman" />
  <path
     d="m 336.95284,370.92012 c -0.0722,-0.36438 -1.02033,-10.07015 -2.10693,-21.56839 -1.0866,-11.49822 -2.05209,-21.5449 -2.14552,-22.32596 l -0.16989,-1.42009 -0.79641,1.53642 c -1.70456,3.2884 -3.65054,5.57328 -4.74664,5.57328 -0.42134,0 -0.83482,-0.11734 -0.91883,-0.26074 -0.084,-0.14342 0.33149,-1.36906 0.92333,-2.72366 3.5369,-8.09509 6.16694,-18.56994 6.17242,-24.58338 0.002,-2.17727 0.25313,-3.6438 0.62401,-3.6438 0.70072,0 7.75077,3.36319 7.75077,3.69747 0,0.2084 -0.50071,0.83105 -1.11265,1.38366 -0.99247,0.89622 -1.21687,1.36692 -2.07764,4.35804 -0.53074,1.8443 -0.91449,3.40656 -0.85278,3.47166 0.0617,0.0651 4.35636,-0.34054 9.54365,-0.90143 l 9.43148,-1.01982 2.07067,-2.25585 c 1.13886,-1.24072 2.15589,-2.25586 2.26005,-2.25586 0.31527,0 4.82313,3.69329 5.67798,4.65197 0.43902,0.49238 0.7432,1.06948 0.67593,1.28244 -0.0882,0.27903 -2.16707,0.60513 -7.44105,1.16722 -4.0253,0.42901 -7.36256,0.82854 -7.41616,0.88786 -0.0536,0.0593 0.13777,2.49289 0.42522,5.40793 0.28745,2.91505 0.52603,5.55112 0.53015,5.85794 0.007,0.50967 0.17029,0.54238 1.89147,0.37845 l 1.88395,-0.17942 1.8356,-2.12041 c 1.34909,-1.55834 1.94095,-2.05254 2.23284,-1.86439 1.14201,0.73608 5.99155,4.98361 6.06646,5.31338 0.10877,0.47887 -0.29185,0.54862 -7.62297,1.32704 -3.22365,0.34229 -5.87882,0.64202 -5.90039,0.66606 -0.0435,0.0485 0.97103,10.39297 1.0859,11.07208 0.0547,0.32322 0.44848,0.41204 1.60614,0.36227 1.51966,-0.0653 1.55187,-0.0861 3.51563,-2.26852 1.09006,-1.21141 2.15764,-2.20103 2.37238,-2.19916 0.45616,0.004 6.39122,5.1895 6.39122,5.58408 0,0.14671 -0.0942,0.32601 -0.20932,0.39845 -0.11513,0.0724 -3.09806,0.42848 -6.62873,0.79122 -3.53066,0.36273 -6.49536,0.74192 -6.58822,0.84263 -0.20707,0.22462 0.93411,12.28228 1.18751,12.54693 0.0998,0.1042 1.34955,0.0518 2.77733,-0.11633 l 2.59595,-0.30577 2.25237,-2.36386 c 1.2388,-1.30012 2.40813,-2.36386 2.59849,-2.36386 0.4308,0 7.0385,5.52592 7.0385,5.88619 0,0.14437 -0.10693,0.3322 -0.23764,0.41741 -0.13067,0.0852 -7.12136,0.88712 -15.53483,1.78201 -8.41349,0.8949 -15.35977,1.69308 -15.43621,1.77373 -0.0765,0.0806 -0.001,1.43971 0.16746,3.02015 l 0.30645,2.87352 -0.86614,0.79764 c -0.77775,0.71621 -3.99679,2.29408 -4.68024,2.29408 -0.14897,0 -0.32993,-0.29813 -0.40212,-0.66251 z m 9.85082,-11.84139 c 2.0512,-0.23087 3.77653,-0.46948 3.83411,-0.53022 0.1242,-0.13101 -1.02362,-12.38035 -1.17668,-12.55743 -0.14622,-0.16916 -8.11243,0.61627 -8.4267,0.83083 -0.18834,0.1286 0.78629,12.05781 1.03065,12.61471 0.0591,0.13478 0.97848,0.0653 4.73862,-0.35789 z m -1.07796,-15.78317 c 1.76534,-0.18318 3.26567,-0.38996 3.33408,-0.45951 0.18115,-0.1842 -0.83514,-11.11495 -1.0551,-11.34802 -0.21628,-0.22917 -8.19629,0.61352 -8.45125,0.89246 -0.0944,0.10322 0.0551,2.44019 0.33213,5.1933 0.27701,2.75309 0.5112,5.3154 0.52042,5.69402 0.0152,0.62626 0.1112,0.67361 1.06339,0.5246 0.57565,-0.0901 2.491,-0.31366 4.25633,-0.49685 z m -2.09327,-14.42272 c 1.68857,-0.17093 3.32499,-0.36523 3.6365,-0.43178 l 0.56635,-0.12101 -0.55669,-5.89967 c -0.52357,-5.54846 -0.59053,-5.89935 -1.12459,-5.89394 -1.42324,0.0144 -7.80243,0.88493 -7.98695,1.08994 -0.11352,0.12613 0.0302,2.61436 0.31937,5.52941 0.28917,2.91504 0.52915,5.46571 0.53328,5.66813 0.009,0.44936 0.67187,0.45783 4.61273,0.0589 z m -35.97151,36.30552 c -1.41779,-1.75795 -1.84117,-2.49562 -1.84375,-3.21233 -0.003,-0.9264 0.005,-0.93186 2.02017,-1.28642 3.04831,-0.53639 10.90773,-2.70257 16.3882,-4.51683 2.68133,-0.88764 4.97347,-1.54979 5.09364,-1.47144 0.12017,0.0784 0.21694,0.43277 0.21504,0.78759 -0.003,0.51859 -0.64601,1.01596 -3.27948,2.53572 -1.8018,1.03982 -6.19009,3.59049 -9.75173,5.66814 -3.56166,2.07766 -6.59407,3.77755 -6.73872,3.77755 -0.14463,0 -1.09116,-1.02688 -2.10337,-2.28198 z M 307.491,349.20987 c -0.76893,-1.61653 -1.39806,-3.12594 -1.39806,-3.35425 0,-0.22831 0.32484,-0.50112 0.72187,-0.60624 1.04063,-0.27554 3.28619,-2.60194 4.74297,-4.91374 1.35357,-2.14801 5.00516,-9.92297 4.77463,-10.16618 -0.0769,-0.0812 -0.55972,0.0816 -1.07289,0.36175 -1.79125,0.97777 -9.27958,4.24531 -9.72911,4.24531 -0.44766,0 -3.62403,-4.60553 -3.62403,-5.2546 0,-0.18151 0.60544,-0.65368 1.34543,-1.04928 1.24586,-0.66603 1.43397,-0.9203 2.54176,-3.43567 2.29515,-5.21144 4.29863,-11.67083 5.63243,-18.15949 0.41994,-2.04295 0.74409,-3.01809 1.00325,-3.01809 0.63265,0 5.91941,3.94021 5.92613,4.41673 0.003,0.24292 -0.47575,0.80119 -1.06482,1.2406 -0.8629,0.64369 -1.24903,1.27307 -1.98711,3.23893 -1.28654,3.42672 -4.16069,9.59834 -5.97002,12.81934 -0.84147,1.49801 -1.50663,2.72365 -1.47812,2.72365 0.0285,0 2.12418,-0.32926 4.65703,-0.73171 2.53286,-0.40245 4.70737,-0.73371 4.83223,-0.73613 0.50752,-0.01 3.81998,-8.32088 3.81998,-9.58441 0,-1.09918 0.93319,-0.70863 3.48931,1.46033 1.45804,1.2372 2.65098,2.3 2.65098,2.3618 0,0.0618 -0.55566,0.68696 -1.23479,1.38926 -0.80035,0.82764 -2.38296,3.39636 -4.49812,7.30081 -3.4691,6.4038 -6.126,10.86599 -8.11791,13.63384 -0.67144,0.93301 -1.22079,1.73509 -1.22079,1.78239 0,0.0473 2.98292,-0.34847 6.62871,-0.87952 3.64579,-0.53105 7.09971,-0.96874 7.67536,-0.97266 1.00727,-0.007 1.04664,0.0309 1.04664,1.00257 0,0.97877 -0.0491,1.02397 -1.60485,1.47634 -4.02154,1.16939 -11.34778,3.82214 -13.87653,5.02456 -1.53019,0.72758 -2.87921,1.3229 -2.99783,1.3229 -0.11862,0 -0.8448,-1.32262 -1.61373,-2.93914 z m 41.19259,-36.97194 c -0.23715,-0.25021 -0.56651,-1.01209 -0.73189,-1.69308 -0.78247,-3.22197 -1.98169,-5.43987 -4.1661,-7.70497 -1.05471,-1.09362 -1.40914,-1.67739 -1.40914,-2.32075 0,-0.83188 0.0357,-0.85452 1.10882,-0.70267 1.93006,0.27311 5.56057,2.37488 7.61318,4.40739 1.88091,1.86253 1.88395,1.86811 1.8825,3.47418 -0.002,1.8559 -0.78604,3.50054 -2.10801,4.41989 -0.99348,0.6909 -1.61586,0.72503 -2.18936,0.12001 z"
     transform="translate(-128.4431,-60.87543)"
     id="path3098"
     style="fill:url(#linearGradient3106);fill-opacity:1;stroke:#000000;stroke-width:0.838;stroke-miterlimit:4;stroke-opacity:1;stroke-dasharray:none" />
  <path
     d="m 212.60358,160.39113 c -0.66978,-0.31416 -1.75491,-1.10752 -4.26504,-3.11826 -1.8517,-1.4833 -3.4184,-2.77828 -3.48158,-2.87775 -0.0632,-0.0995 -0.0785,-0.22667 -0.034,-0.28266 0.0445,-0.056 0.81381,-0.56495 1.70961,-1.13099 9.14592,-5.77912 16.77344,-12.47898 22.04853,-19.36703 6.43146,-8.39795 11.48079,-18.68233 13.83219,-28.17306 0.24995,-1.00882 0.50823,-1.99382 0.57396,-2.18887 l 0.11952,-0.35466 3.66825,1.78855 c 2.01755,0.98372 3.70805,1.85564 3.75662,1.93764 0.16215,0.27364 -1.35622,5.5682 -2.54455,8.87279 -2.66765,7.41847 -6.66652,14.92013 -11.04127,20.71289 -5.79752,7.67666 -12.65875,14.49645 -20.85926,20.73317 l -1.60042,1.21718 0.0127,0.66725 c 0.007,0.36699 -0.0433,0.90429 -0.11167,1.19402 -0.10401,0.44052 -0.18667,0.54842 -0.50483,0.65897 -0.30881,0.1073 -0.5496,0.0528 -1.27877,-0.28918 z m -8.38844,-29.96657 c -6.06962,-1.81847 -10.2718,-2.82429 -14.37761,-3.44136 -0.84061,-0.12635 -1.54482,-0.27968 -1.56492,-0.34075 -0.0705,-0.21419 2.42621,-8.06735 2.582,-8.12148 0.18509,-0.0643 8.52174,1.51463 10.28551,1.94805 2.01798,0.4959 8.30298,2.25031 8.4187,2.35002 0.0965,0.0832 -2.52374,7.98357 -2.73687,8.25191 -0.0475,0.0598 -1.22057,-0.23107 -2.60681,-0.64639 z m 3.71692,-20.64321 c -4.16457,-1.18228 -6.59331,-1.78867 -9.56139,-2.38726 -4.86207,-0.98056 -6.92266,-1.46765 -6.9169,-1.63506 0.0121,-0.35152 1.80489,-7.619535 1.91774,-7.774575 0.085,-0.11678 0.23683,-0.14585 0.49075,-0.09394 0.20224,0.04134 2.24562,0.45593 4.54086,0.9213 2.29522,0.46538 4.86847,1.01474 5.71832,1.220815 1.61389,0.39134 6.71695,1.73286 7.62317,2.00403 l 0.52414,0.15683 -0.094,0.39893 c -0.31701,1.34542 -2.08664,7.56794 -2.1751,7.64827 -0.0589,0.0535 -0.98929,-0.15322 -2.0676,-0.45934 z"
     transform="translate(-128.4431,-60.87543)"
     id="path4921"
     style="fill:url(#linearGradient4929);fill-opacity:1;stroke:#000000;stroke-width:0.838;stroke-miterlimit:4;stroke-opacity:1;stroke-dasharray:none" />
  <path
     d="m 425.16275,85.74398 c 0.6657,0.398759 2.28373,1.775938 4.85419,4.131416 0.84232,0.776565 1.64034,1.390546 2.39406,1.841943 2.17296,1.301709 5.54306,3.184475 10.11031,5.648285 l 5.63758,2.45833 c 3.59097,2.151096 5.00319,3.779626 4.23663,4.885636 -0.3,0.43275 -1.17681,1.06374 -2.63052,1.89308 l -1.09983,0.77042 -10.63739,10.46127 c -0.53461,0.49773 -0.50197,1.2656 0.0979,2.30369 0.56382,1.08717 0.66276,1.89476 0.29678,2.42285 -0.83271,1.20132 -3.5547,0.42093 -8.16592,-2.34123 l -1.18079,-0.6046 -6.65192,-3.57659 c -3.5591,-1.92643 -5.33863,-2.88967 -5.33861,-2.88966 -0.26522,-0.15886 -0.97465,0.23202 -2.12825,1.1726 l -1.53272,1.12144 -0.99628,0.21906 -0.51711,-0.20704 c -1.01892,-0.61026 0.4206,-3.99935 4.31855,-10.16728 0.15457,-0.31419 0.28225,-0.54397 0.38291,-0.68919 l 4.49806,-7.711966 c 1.24492,-1.97567 1.92871,-3.232953 2.05144,-3.771891 0.59949,-1.953398 0.11252,-3.876691 -1.46083,-5.770005 -0.93012,-1.103024 -1.2729,-1.920723 -1.02836,-2.453097 0.59985,-0.865426 2.09656,-0.581248 4.49014,0.852529 l 0,0 z m -6.74275,24.53011 10.85764,6.19866 c 2.07314,0.90147 3.76966,0.89737 5.08948,-0.0122 1.02141,-0.74988 3.24271,-3.50156 6.66381,-8.25492 1.06545,-1.53721 2.00383,-2.84547 2.81514,-3.92475 0.60955,-0.79108 0.75416,-1.45279 0.43388,-1.98518 -0.15589,-0.22823 -0.43335,-0.46194 -0.83248,-0.70102 L 429.5146,93.451154 418.42,110.27409 z m -3.45456,11.90853 3.05972,2.24077 c 3.73413,2.57722 6.00035,4.10494 6.79873,4.58309 l 7.51561,4.50192 7.74665,4.43794 0.13396,0.0802 3.26078,1.13434 0.067,0.0401 c 2.96993,1.77902 4.12143,3.14968 3.45454,4.11192 -0.26645,0.38432 -1.02637,0.84665 -2.27974,1.38701 -0.37762,0.18279 -0.65463,0.3573 -0.83106,0.52354 -3.1535,3.00802 -4.83522,4.61933 -5.04521,4.83399 -0.1235,0.26648 0.0251,0.73024 0.44599,1.39122 0.27701,0.50638 0.34312,0.95386 0.19829,1.34249 -0.0551,0.17049 -0.11611,0.30415 -0.18314,0.40098 -0.19933,0.28746 -0.58193,0.43197 -1.14778,0.43347 -0.89824,-0.0606 -3.64203,-1.39799 -8.23137,-4.01211 l -13.96568,-8.36557 c -1.41804,-0.84942 -2.59372,-0.60084 -3.52703,0.74573 l -2.44774,3.53145 c -1.36647,1.97139 -0.56474,3.84668 2.40527,5.62575 l 7.61627,4.3567 0.13192,0.079 c 3.7696,2.25803 5.8038,3.44227 6.10262,3.55273 0.2665,0.15963 0.54867,0.29541 0.84644,0.40737 l 5.40621,1.70643 c 0.30007,0.11121 0.58273,0.24626 0.84798,0.40515 3.59234,2.15184 4.8888,3.94876 3.88943,5.39071 -0.80022,1.15438 -2.15349,1.16053 -4.05995,0.0186 l -21.53159,-12.79491 c -0.48849,-0.29261 -0.97627,-0.58479 -1.46334,-0.87655 -3.81298,-2.28401 -5.74094,-4.52765 -5.78392,-6.73095 -0.0309,-1.31188 0.50311,-2.76056 1.60222,-4.34623 l 2.39893,-3.46103 c 0.93227,-1.34507 0.68379,-2.7519 -0.74544,-4.22047 l -1.46363,-1.69249 c -0.16457,-0.30409 -0.14721,-0.59987 0.0521,-0.88741 0.50018,-0.72166 1.87474,-0.44221 4.12361,0.83848 0.22188,0.13291 0.37748,0.22612 0.4668,0.27962 l 5.30143,4.70448 c 0.26653,0.15966 0.51075,0.30595 0.73268,0.43889 3.19186,1.91195 8.0579,4.75822 14.5981,8.53888 2.04038,1.2222 3.75985,1.23194 5.15853,0.0291 0.53209,-0.49703 1.14793,-1.25016 1.84748,-2.25933 0.96581,-1.39351 1.45392,-2.18889 1.46432,-2.38613 0.12263,-0.53892 -0.12589,-0.99396 -0.74555,-1.36514 l -15.96164,-9.15329 c -0.17868,-0.10695 -1.39837,-0.56564 -3.65912,-1.37601 -0.46527,-0.14376 -0.85284,-0.30841 -1.16263,-0.49406 -1.06493,-0.63782 -2.27874,-2.14648 -3.6415,-4.52593 l -0.89526,-1.9655 c -0.1217,-0.54828 -0.0992,-0.94267 0.0676,-1.18322 0.20029,-0.28901 0.54399,-0.28762 1.03112,0.004 l 0,0 z m 41.76728,6.14312 c -3.83106,5.5271 -6.85076,8.48033 -9.05911,8.85967 l -1.03157,-0.008 -0.1989,-0.11915 c -0.7984,-0.47816 0.26318,-2.86891 3.18468,-7.17218 l 13.89337,-20.04447 1.13172,-1.76952 0.0503,-0.0726 c 1.0543,-1.61234 0.74593,-4.10964 -0.92523,-7.4917 -1.1957,-2.349866 -1.71589,-3.817756 -1.56061,-4.403596 0.3995,-0.57645 1.28662,-0.45294 2.66142,0.37049 1.90639,1.14203 3.9011,3.15264 5.98406,6.031936 1.05326,1.37831 1.59533,2.45134 1.62617,3.21916 0.0337,0.49556 -0.20515,1.06665 -0.71638,1.71315 -2.56407,3.15771 -3.86284,4.76076 -3.89631,4.80915 l -9.44473,13.62626 c 1.01876,0.61034 3.11391,1.38894 6.28546,2.33582 1.30733,0.37633 2.36022,0.80355 3.15863,1.28172 3.41368,2.04491 4.65441,3.73992 3.72217,5.08501 -0.89987,1.29816 -3.63306,0.57951 -8.19959,-2.15589 l -5.40319,-3.33935 -1.26241,-0.7562 z"
     transform="translate(-128.4431,-60.87543)"
     id="flowRoot2865"
     style="font-weight:normal;fill:url(#linearGradient2865);fill-opacity:1;stroke:#000000;stroke-width:0.838;stroke-miterlimit:4;stroke-opacity:1;font-family:UnBatang" />
  <g
     transform="matrix(1.1634942,0,0,1.1634942,0.6006252,-187.61113)"
     id="text3341"
     style="font-size:35px;font-style:normal;font-variant:normal;font-weight:normal;font-stretch:normal;fill:#808080;fill-opacity:1;stroke:none;font-family:Nimbus Sans L;-inkscape-font-specification:Nimbus Sans L">
    <path
       d="m 33.464264,546.50348 c -2.871104,0 -5.132658,-0.8488 -6.784668,-2.54639 -1.652023,-1.69759 -2.478031,-4.0275 -2.478027,-6.98974 -4e-6,-4.59146 1.52099,-8.57624 4.562988,-11.95435 3.041981,-3.37807 6.636541,-5.06711 10.783691,-5.06714 2.916645,3e-5 5.200985,0.84597 6.853028,2.53784 1.65199,1.69192 2.477998,4.03607 2.478027,7.03247 -2.9e-5,4.60288 -1.52672,8.58481 -4.580078,11.94581 -3.053407,3.361 -6.665057,5.0415 -10.834961,5.0415 z m -5.45166,-8.88672 c -8e-6,2.29005 0.57535,4.1329 1.726074,5.52856 1.150706,1.39568 2.6717,2.09351 4.562988,2.09351 2.779931,0 5.283591,-1.60929 7.510987,-4.82788 2.227352,-3.21858 3.341039,-6.83877 3.341064,-10.8606 -2.5e-5,-2.58624 -0.563989,-4.63702 -1.691894,-6.15234 -1.127952,-1.51528 -2.654643,-2.27292 -4.580079,-2.27295 -2.916682,3e-5 -5.45737,1.64635 -7.62207,4.93897 -2.164722,3.29266 -3.247078,7.14356 -3.24707,11.55273 z"
       id="path3078"
       style="font-style:italic;fill:#808080;font-family:Lucida Bright;-inkscape-font-specification:Lucida Bright Italic" />
    <path
       d="m 72.839264,545.87115 1.555176,-7.79296 c -1.412775,2.48373 -2.990736,4.47469 -4.733887,5.9729 -1.743174,1.49821 -3.366707,2.24731 -4.870605,2.24731 -1.219081,0 -2.133387,-0.35889 -2.74292,-1.07666 -0.609541,-0.71777 -0.91431,-1.78873 -0.914307,-3.21289 -3e-6,-3.70279 1.304521,-7.14639 3.913574,-10.33081 2.60904,-3.18439 5.428862,-4.77659 8.459473,-4.77661 0.626612,2e-5 1.634911,0.13674 3.024902,0.41015 l 0.786133,-3.99902 c 0.193666,-0.93422 0.290508,-1.74884 0.290527,-2.44385 -1.9e-5,-0.36455 -0.108254,-0.58672 -0.324707,-0.6665 -0.21649,-0.0797 -0.928566,-0.15948 -2.13623,-0.23926 l -0.307617,-0.0171 0.205078,-1.05957 6.52832,0 -4.477539,22.5586 c -0.193703,0.93424 -0.290546,1.74886 -0.290527,2.44384 -1.9e-5,0.36459 0.108217,0.58676 0.324707,0.66651 0.216452,0.0797 0.928528,0.1595 2.13623,0.23925 l 0.307617,0.0171 -0.205078,1.05957 z m 2.067871,-10.35644 1.230469,-6.01563 c -1.333024,-0.67218 -2.722997,-1.00828 -4.169922,-1.0083 -1.697603,2e-5 -3.081879,0.78046 -4.152832,2.34131 -0.854501,1.24188 -1.586515,2.8882 -2.196045,4.93897 -0.609544,2.05079 -0.914313,3.90218 -0.914307,5.5542 -6e-6,0.82031 0.136713,1.43555 0.410157,1.8457 0.27343,0.41016 0.683586,0.61524 1.230468,0.61523 2.176097,10e-6 5.030098,-2.75715 8.562012,-8.27148 z"
       id="path3080"
       style="font-style:italic;fill:#808080;font-family:Lucida Bright;-inkscape-font-specification:Lucida Bright Italic" />
    <path
       d="m 83.298248,545.87115 2.819825,-14.1333 c 0.182285,-0.94562 0.27343,-1.75454 0.273437,-2.42675 -7e-6,-0.36457 -0.105394,-0.58674 -0.316162,-0.66651 -0.210781,-0.0797 -0.925705,-0.16518 -2.144775,-0.25635 l -0.307618,-0.0171 0.205078,-1.05957 6.545411,0 -2.819825,14.13331 c -0.182299,0.93424 -0.273445,1.74886 -0.273437,2.44384 -8e-6,0.36459 0.10538,0.58676 0.316162,0.66651 0.210767,0.0797 0.925691,0.1595 2.144775,0.23925 l 0.307618,0.0171 -0.205079,1.05957 z m 4.35791,-21.92626 0.683594,-3.3667 3.366699,0 -0.666503,3.3667 z"
       id="path3082"
       style="font-style:italic;fill:#808080;font-family:Lucida Bright;-inkscape-font-specification:Lucida Bright Italic" />
    <path
       d="m 105.7543,544.24762 c -2.48373,1.36719 -4.91619,2.05078 -7.29736,2.05078 -1.777351,0 -3.167323,-0.57251 -4.169922,-1.71753 -1.002608,-1.14502 -1.503909,-2.73152 -1.503906,-4.75952 -3e-6,-3.37239 1.179195,-6.3688 3.537597,-8.98926 2.35839,-2.62042 5.052881,-3.93064 8.083501,-3.93066 0.68357,2e-5 1.38141,0.0655 2.0935,0.19653 0.71206,0.13104 1.43838,0.32758 2.17896,0.5896 l -0.93995,4.68262 -1.6748,0 0.0342,-0.30762 c 0.0342,-0.28482 0.0968,-0.6551 0.18799,-1.11084 0.0342,-0.23924 0.0512,-0.44432 0.0513,-0.61523 -2e-5,-0.67219 -0.29055,-1.17349 -0.87158,-1.50391 -0.58107,-0.33039 -1.45266,-0.49559 -2.61475,-0.4956 -1.84571,10e-6 -3.389496,1.03395 -4.631348,3.1018 -1.241869,2.06789 -1.8628,4.6399 -1.862793,7.71607 -7e-6,1.73177 0.35888,3.03345 1.07666,3.90503 0.717765,0.87158 1.794424,1.30737 3.229981,1.30737 1.24185,0 3.03628,-0.51839 5.3833,-1.55518 z"
       id="path3084"
       style="font-style:italic;fill:#808080;font-family:Lucida Bright;-inkscape-font-specification:Lucida Bright Italic" />
    <path
       d="m 110.50528,545.87115 2.81982,-14.1333 c 0.18229,-0.94562 0.27343,-1.75454 0.27344,-2.42675 -1e-5,-0.36457 -0.10539,-0.58674 -0.31616,-0.66651 -0.21078,-0.0797 -0.92571,-0.16518 -2.14478,-0.25635 l -0.30761,-0.0171 0.20507,-1.05957 6.54541,0 -2.81982,14.13331 c -0.1823,0.93424 -0.27344,1.74886 -0.27344,2.44384 0,0.36459 0.10538,0.58676 0.31617,0.66651 0.21076,0.0797 0.92569,0.1595 2.14477,0.23925 l 0.30762,0.0171 -0.20508,1.05957 z m 4.35791,-21.92626 0.68359,-3.3667 3.3667,0 -0.6665,3.3667 z"
       id="path3086"
       style="font-style:italic;fill:#808080;font-family:Lucida Bright;-inkscape-font-specification:Lucida Bright Italic" />
    <path
       d="m 125.9545,546.2984 c -1.95964,0 -3.42937,-0.53548 -4.40918,-1.60644 -0.97982,-1.07097 -1.46973,-2.67171 -1.46973,-4.80225 0,-3.42935 1.13932,-6.4514 3.41797,-9.06616 2.27864,-2.61473 4.91617,-3.9221 7.9126,-3.92212 2.00519,2e-5 3.50625,0.53265 4.50317,1.5979 0.99689,1.06528 1.49534,2.66318 1.49536,4.7937 -2e-5,3.45216 -1.15073,6.48275 -3.45214,9.0918 -2.30145,2.60905 -4.96746,3.91357 -7.99805,3.91357 z m 0.87158,-1.29883 c 1.81151,0 3.40656,-1.20198 4.78516,-3.60595 1.37856,-2.40397 2.06785,-5.17252 2.06787,-8.30567 -2e-5,-1.62922 -0.26206,-2.85114 -0.78614,-3.66577 -0.5241,-0.8146 -1.31593,-1.22191 -2.37548,-1.22192 -1.76597,1e-5 -3.33253,1.23048 -4.69971,3.6914 -1.3672,2.46095 -2.05079,5.28647 -2.05078,8.47657 -10e-6,1.36719 0.28482,2.48087 0.85449,3.34106 0.56965,0.86019 1.30452,1.29028 2.20459,1.29028 z"
       id="path3088"
       style="font-style:italic;fill:#808080;font-family:Lucida Bright;-inkscape-font-specification:Lucida Bright Italic" />
    <path
       d="m 140.24161,545.87115 2.81982,-14.1333 c 0.18229,-0.94562 0.27343,-1.75454 0.27344,-2.42675 -1e-5,-0.36457 -0.10539,-0.58674 -0.31616,-0.66651 -0.21078,-0.0797 -0.92571,-0.16518 -2.14478,-0.25635 l -0.30762,-0.0171 0.20508,-1.05957 6.54541,0 -1.52099,7.5879 c 1.46971,-2.46093 3.07046,-4.40917 4.80224,-5.84473 1.73176,-1.43553 3.3439,-2.1533 4.83643,-2.15332 0.99119,2e-5 1.7346,0.26491 2.23022,0.79468 0.49559,0.5298 0.74339,1.33017 0.74341,2.40112 -2e-5,0.5241 -0.10826,1.33302 -0.32471,2.42676 l -1.77734,8.9209 c -0.18231,0.93424 -0.27346,1.74886 -0.27344,2.44384 -2e-5,0.36459 0.10537,0.58676 0.31617,0.66651 0.21075,0.0797 0.92567,0.1595 2.14477,0.23925 l 0.30762,0.0171 -0.20508,1.05957 -6.54541,0 2.75146,-13.82568 c 0.11392,-0.60383 0.17088,-1.08234 0.1709,-1.43555 -2e-5,-0.39874 -0.0997,-0.69497 -0.29907,-0.88867 -0.1994,-0.19367 -0.49847,-0.29051 -0.89722,-0.29052 -1.84571,10e-6 -4.67123,2.67742 -8.47656,8.03222 l -1.69189,8.4082 z"
       id="path3090"
       style="font-style:italic;fill:#808080;font-family:Lucida Bright;-inkscape-font-specification:Lucida Bright Italic" />
    <path
       d="m 173.19083,545.87115 1.55517,-7.79296 c -1.41277,2.48373 -2.99073,4.47469 -4.73388,5.9729 -1.74318,1.49821 -3.36671,2.24731 -4.87061,2.24731 -1.21908,0 -2.13339,-0.35889 -2.74292,-1.07666 -0.60954,-0.71777 -0.91431,-1.78873 -0.91431,-3.21289 0,-3.70279 1.30452,-7.14639 3.91358,-10.33081 2.60904,-3.18439 5.42886,-4.77659 8.45947,-4.77661 0.319,2e-5 0.72915,0.0342 1.23047,0.10254 0.50128,0.0684 1.09943,0.17091 1.79443,0.30761 l 3.3667,0 -2.80273,14.13331 c -0.19371,0.93424 -0.29055,1.74886 -0.29053,2.44384 -2e-5,0.36459 0.10822,0.58676 0.32471,0.66651 0.21645,0.0797 0.92853,0.1595 2.13623,0.23925 l 0.30761,0.0171 -0.20507,1.05957 z m 2.06787,-10.35644 1.21338,-5.94727 c -0.66083,-0.34178 -1.33872,-0.59528 -2.03369,-0.76049 -0.69501,-0.16519 -1.41278,-0.24779 -2.15333,-0.24781 -1.70899,2e-5 -3.09327,0.76906 -4.15283,2.30713 -0.8431,1.23048 -1.56657,2.87111 -2.17041,4.92188 -0.60385,2.05079 -0.90577,3.89649 -0.90576,5.53711 -1e-5,0.82031 0.13671,1.43555 0.41016,1.8457 0.27343,0.41016 0.68358,0.61524 1.23047,0.61523 2.17609,10e-6 5.03009,-2.75715 8.56201,-8.27148 z m 0.8374,-16.62842 4.0332,0 -6.87011,5.0586 -1.45264,0 z"
       id="path3092"
       style="font-style:italic;fill:#808080;font-family:Lucida Bright;-inkscape-font-specification:Lucida Bright Italic" />
    <path
       d="m 183.64981,545.87115 2.81983,-14.1333 c 0.18228,-0.93423 0.27343,-1.74314 0.27343,-2.42675 0,-0.36457 -0.10539,-0.58674 -0.31616,-0.66651 -0.21078,-0.0797 -0.9257,-0.16518 -2.14477,-0.25635 l -0.30762,-0.0171 0.20508,-1.05957 6.54541,0 -1.521,7.5879 c 3.29263,-5.34341 6.45425,-8.01512 9.48486,-8.01514 0.29621,2e-5 0.57534,0.0513 0.83741,0.15381 l -1.43555,3.8623 c -0.51271,-0.22785 -1.03111,-0.34178 -1.55518,-0.3418 -2.16472,2e-5 -4.75668,2.216 -7.77588,6.64795 l -1.74316,8.66455 z"
       id="path3094"
       style="font-style:italic;fill:#808080;font-family:Lucida Bright;-inkscape-font-specification:Lucida Bright Italic" />
    <path
       d="m 200.12442,545.87115 2.81982,-14.1333 c 0.18229,-0.94562 0.27344,-1.75454 0.27344,-2.42675 0,-0.36457 -0.10539,-0.58674 -0.31616,-0.66651 -0.21078,-0.0797 -0.92571,-0.16518 -2.14478,-0.25635 l -0.30761,-0.0171 0.20508,-1.05957 6.54541,0 -2.81983,14.13331 c -0.1823,0.93424 -0.27344,1.74886 -0.27344,2.44384 0,0.36459 0.10538,0.58676 0.31617,0.66651 0.21076,0.0797 0.92569,0.1595 2.14477,0.23925 l 0.30762,0.0171 -0.20508,1.05957 z m 4.35791,-21.92626 0.68359,-3.3667 3.3667,0 -0.6665,3.3667 z"
       id="path3096"
       style="font-style:italic;fill:#808080;font-family:Lucida Bright;-inkscape-font-specification:Lucida Bright Italic" />
    <path
       d="m 215.57364,546.2984 c -1.95964,0 -3.42937,-0.53548 -4.40918,-1.60644 -0.97982,-1.07097 -1.46973,-2.67171 -1.46973,-4.80225 0,-3.42935 1.13932,-6.4514 3.41797,-9.06616 2.27864,-2.61473 4.91617,-3.9221 7.9126,-3.92212 2.00519,2e-5 3.50625,0.53265 4.50317,1.5979 0.99689,1.06528 1.49534,2.66318 1.49536,4.7937 -2e-5,3.45216 -1.15073,6.48275 -3.45214,9.0918 -2.30145,2.60905 -4.96746,3.91357 -7.99805,3.91357 z m 0.87158,-1.29883 c 1.81151,0 3.40656,-1.20198 4.78516,-3.60595 1.37856,-2.40397 2.06785,-5.17252 2.06787,-8.30567 -2e-5,-1.62922 -0.26206,-2.85114 -0.78613,-3.66577 -0.52411,-0.8146 -1.31594,-1.22191 -2.37549,-1.22192 -1.76597,1e-5 -3.33253,1.23048 -4.69971,3.6914 -1.36719,2.46095 -2.05079,5.28647 -2.05078,8.47657 -1e-5,1.36719 0.28482,2.48087 0.85449,3.34106 0.56965,0.86019 1.30452,1.29028 2.20459,1.29028 z"
       id="path3099"
       style="font-style:italic;fill:#808080;font-family:Lucida Bright;-inkscape-font-specification:Lucida Bright Italic" />
    <path
       d="m 240.09756,545.87115 4.49463,-22.55859 c 0.18229,-0.93422 0.27343,-1.74884 0.27344,-2.44385 -1e-5,-0.36455 -0.10539,-0.58672 -0.31616,-0.6665 -0.21078,-0.0797 -0.92571,-0.15948 -2.14478,-0.23926 l -0.30761,-0.0171 0.20507,-1.05957 6.54541,0 -4.49462,22.5586 c -0.1823,0.93424 -0.27345,1.74886 -0.27344,2.44384 -1e-5,0.36459 0.10538,0.58676 0.31616,0.66651 0.21077,0.0797 0.92569,0.1595 2.14478,0.23925 l 0.30761,0.0171 -0.20508,1.05957 z"
       id="path3101"
       style="font-style:italic;fill:#808080;font-family:Lucida Bright;-inkscape-font-specification:Lucida Bright Italic" />
    <path
       d="m 250.642,545.87115 2.81982,-14.1333 c 0.18229,-0.94562 0.27343,-1.75454 0.27344,-2.42675 -1e-5,-0.36457 -0.10539,-0.58674 -0.31616,-0.66651 -0.21078,-0.0797 -0.92571,-0.16518 -2.14478,-0.25635 l -0.30761,-0.0171 0.20507,-1.05957 6.54541,0 -2.81982,14.13331 c -0.1823,0.93424 -0.27345,1.74886 -0.27344,2.44384 -1e-5,0.36459 0.10538,0.58676 0.31616,0.66651 0.21077,0.0797 0.9257,0.1595 2.14478,0.23925 l 0.30762,0.0171 -0.20508,1.05957 z m 4.35791,-21.92626 0.68359,-3.3667 3.3667,0 -0.6665,3.3667 z"
       id="path3103"
       style="font-style:italic;fill:#808080;font-family:Lucida Bright;-inkscape-font-specification:Lucida Bright Italic" />
    <path
       d="m 265.47598,546.07623 c -10e-6,-5.82193 -0.88868,-10.85773 -2.66601,-15.10742 -0.5241,-1.24184 -0.92001,-1.95962 -1.18775,-2.15332 -0.26774,-0.19367 -1.06242,-0.33608 -2.38403,-0.42725 l -0.30762,-0.0171 0.20508,-1.05957 6.18652,0 c 1.78873,4.20412 2.85969,9.13169 3.21289,14.78272 l 3.12745,-3.67432 c 2.67739,-3.14452 4.01609,-5.8675 4.01611,-8.16894 -2e-5,-1.05956 -0.43296,-2.03937 -1.29883,-2.93946 l 4.13574,0 c 0.23924,0.5469 0.35887,1.15074 0.35889,1.81153 -2e-5,1.15073 -0.55259,2.52931 -1.65771,4.13574 -1.10517,1.60646 -3.5718,4.60857 -7.39991,9.00635 l -3.29834,3.81103 z"
       id="path3105"
       style="font-style:italic;fill:#808080;font-family:Lucida Bright;-inkscape-font-specification:Lucida Bright Italic" />
    <path
       d="m 280.30997,545.87115 2.81982,-14.1333 c 0.18229,-0.93423 0.27343,-1.74314 0.27344,-2.42675 -1e-5,-0.36457 -0.1054,-0.58674 -0.31616,-0.66651 -0.21078,-0.0797 -0.92571,-0.16518 -2.14478,-0.25635 l -0.30762,-0.0171 0.20508,-1.05957 6.54541,0 -1.52099,7.5879 c 3.29263,-5.34341 6.45424,-8.01512 9.48486,-8.01514 0.2962,2e-5 0.57534,0.0513 0.8374,0.15381 l -1.43554,3.8623 c -0.51272,-0.22785 -1.03111,-0.34178 -1.55518,-0.3418 -2.16473,2e-5 -4.75669,2.216 -7.77588,6.64795 l -1.74316,8.66455 z"
       id="path3107"
       style="font-style:italic;fill:#808080;font-family:Lucida Bright;-inkscape-font-specification:Lucida Bright Italic" />
    <path
       d="m 310.86661,542.91461 c -3.40659,2.25586 -6.4144,3.38379 -9.02344,3.38379 -1.73178,0 -3.11321,-0.58675 -4.14429,-1.76025 -1.03109,-1.1735 -1.54663,-2.75146 -1.54663,-4.73389 0,-3.32681 1.16211,-6.31184 3.48633,-8.95508 2.32421,-2.64321 4.94465,-3.96482 7.86133,-3.96484 1.10513,2e-5 2.02228,0.33327 2.75146,0.99975 0.72915,0.66653 1.09374,1.51247 1.09375,2.53785 -1e-5,2.30144 -1.05958,4.18987 -3.17871,5.66528 -2.11915,1.47543 -4.94467,2.29859 -8.47656,2.46948 l -0.0342,0.87158 c -10e-6,1.64063 0.34179,2.8711 1.02539,3.69141 0.68359,0.82031 1.70898,1.23047 3.07617,1.23047 2.29003,0 4.76236,-0.98551 7.41699,-2.95654 z m -11.1084,-5.34912 c 2.58625,-0.19368 4.61709,-0.86303 6.09253,-2.00806 1.47541,-1.145 2.21312,-2.62327 2.21313,-4.43481 -1e-5,-0.91144 -0.188,-1.59504 -0.56396,-2.05078 -0.37599,-0.45571 -0.93996,-0.68358 -1.6919,-0.6836 -1.50391,2e-5 -2.82553,0.86306 -3.96484,2.58912 -1.13933,1.72608 -1.83432,3.92213 -2.08496,6.58813 z"
       id="path3109"
       style="font-style:italic;fill:#808080;font-family:Lucida Bright;-inkscape-font-specification:Lucida Bright Italic" />
  </g>
</svg>
