<?xml version="1.0" encoding="UTF-8" standalone="no"?>
<svg
   xmlns:dc="http://purl.org/dc/elements/1.1/"
   xmlns:cc="http://creativecommons.org/ns#"
   xmlns:rdf="http://www.w3.org/1999/02/22-rdf-syntax-ns#"
   xmlns:svg="http://www.w3.org/2000/svg"
   xmlns="http://www.w3.org/2000/svg"
   xmlns:xlink="http://www.w3.org/1999/xlink"
   xmlns:sodipodi="http://sodipodi.sourceforge.net/DTD/sodipodi-0.dtd"
   xmlns:inkscape="http://www.inkscape.org/namespaces/inkscape"
   version="1.0"
   width="391"
   height="473.85715"
   id="svg2047"
   sodipodi:docname="Wiktionary-kk.svg">
  <metadata
     id="metadata111">
    <rdf:RDF>
      <cc:Work
         rdf:about="">
        <dc:format>image/svg+xml</dc:format>
        <dc:type
           rdf:resource="http://purl.org/dc/dcmitype/StillImage" />
      </cc:Work>
    </rdf:RDF>
  </metadata>
  <sodipodi:namedview
     pagecolor="#ffffff"
     bordercolor="#666666"
     borderopacity="1"
     objecttolerance="10"
     gridtolerance="10"
     guidetolerance="10"
     inkscape:pageopacity="0"
     inkscape:pageshadow="2"
     inkscape:window-width="640"
     inkscape:window-height="480"
     id="namedview109" />
  <defs
     id="defs3">
    <linearGradient
       id="linearGradient3525">
      <stop
         id="stop3527"
         style="stop-color:#000066;stop-opacity:1"
         offset="0" />
      <stop
         id="stop3529"
         style="stop-color:#00004f;stop-opacity:1"
         offset="1" />
    </linearGradient>
    <linearGradient
       id="linearGradient3446">
      <stop
         id="stop3448"
         style="stop-color:#f4e3ca;stop-opacity:1"
         offset="0" />
      <stop
         id="stop3450"
         style="stop-color:#e9cc9d;stop-opacity:1"
         offset="1" />
    </linearGradient>
    <linearGradient
       id="linearGradient3033">
      <stop
         id="stop3035"
         style="stop-color:#557567;stop-opacity:1"
         offset="0" />
      <stop
         id="stop3037"
         style="stop-color:#002d17;stop-opacity:1"
         offset="1" />
    </linearGradient>
    <linearGradient
       id="linearGradient3025">
      <stop
         id="stop3027"
         style="stop-color:#4aaf6d;stop-opacity:1"
         offset="0" />
      <stop
         id="stop3029"
         style="stop-color:#6af297;stop-opacity:1"
         offset="1" />
    </linearGradient>
    <linearGradient
       id="linearGradient2959">
      <stop
         id="stop2961"
         style="stop-color:#5500af;stop-opacity:1"
         offset="0" />
      <stop
         id="stop2963"
         style="stop-color:#000052;stop-opacity:1"
         offset="1" />
    </linearGradient>
    <linearGradient
       id="linearGradient2951">
      <stop
         id="stop2953"
         style="stop-color:#4aafff;stop-opacity:1"
         offset="0" />
      <stop
         id="stop2955"
         style="stop-color:#7fe5e5;stop-opacity:1"
         offset="1" />
    </linearGradient>
    <linearGradient
       id="linearGradient2925">
      <stop
         id="stop2927"
         style="stop-color:#fa2f52;stop-opacity:1"
         offset="0" />
      <stop
         id="stop2929"
         style="stop-color:#f57d5a;stop-opacity:1"
         offset="1" />
    </linearGradient>
    <linearGradient
       id="linearGradient2917">
      <stop
         id="stop2919"
         style="stop-color:#d40000;stop-opacity:1"
         offset="0" />
      <stop
         id="stop2921"
         style="stop-color:#570000;stop-opacity:1"
         offset="1" />
    </linearGradient>
    <linearGradient
       id="linearGradient1977">
      <stop
         id="stop1979"
         style="stop-color:#efefbd;stop-opacity:1"
         offset="0" />
      <stop
         id="stop1981"
         style="stop-color:#d2c595;stop-opacity:1"
         offset="1" />
    </linearGradient>
    <linearGradient
       x1="27.14286"
       y1="122.6041"
       x2="171.42857"
       y2="125.82186"
       id="linearGradient2923"
       xlink:href="#linearGradient2917"
       gradientUnits="userSpaceOnUse" />
    <linearGradient
       x1="52.857136"
       y1="62.271225"
       x2="131.42856"
       y2="150.75945"
       id="linearGradient2931"
       xlink:href="#linearGradient2925"
       gradientUnits="userSpaceOnUse" />
    <linearGradient
       x1="27.14286"
       y1="122.6041"
       x2="171.42857"
       y2="125.82186"
       id="linearGradient2947"
       xlink:href="#linearGradient2917"
       gradientUnits="userSpaceOnUse" />
    <linearGradient
       x1="52.857136"
       y1="62.271225"
       x2="131.42856"
       y2="150.75945"
       id="linearGradient2949"
       xlink:href="#linearGradient2951"
       gradientUnits="userSpaceOnUse" />
    <linearGradient
       x1="27.14286"
       y1="122.6041"
       x2="171.42857"
       y2="125.82186"
       id="linearGradient2965"
       xlink:href="#linearGradient2959"
       gradientUnits="userSpaceOnUse" />
    <linearGradient
       x1="27.14286"
       y1="122.6041"
       x2="171.42857"
       y2="125.82186"
       id="linearGradient2971"
       xlink:href="#linearGradient2959"
       gradientUnits="userSpaceOnUse" />
    <linearGradient
       x1="52.857136"
       y1="62.271225"
       x2="131.42856"
       y2="150.75945"
       id="linearGradient2973"
       xlink:href="#linearGradient2951"
       gradientUnits="userSpaceOnUse" />
    <linearGradient
       x1="27.14286"
       y1="122.6041"
       x2="171.42857"
       y2="125.82186"
       id="linearGradient3019"
       xlink:href="#linearGradient2959"
       gradientUnits="userSpaceOnUse" />
    <linearGradient
       x1="52.857136"
       y1="62.271225"
       x2="131.42856"
       y2="150.75945"
       id="linearGradient3021"
       xlink:href="#linearGradient2951"
       gradientUnits="userSpaceOnUse" />
    <linearGradient
       x1="366.08591"
       y1="184.23257"
       x2="270.37161"
       y2="86.036026"
       id="linearGradient3071"
       xlink:href="#linearGradient3525"
       gradientUnits="userSpaceOnUse"
       gradientTransform="matrix(0.485989,0.460262,-0.482828,0.469608,235.2216,-80.23556)" />
    <linearGradient
       x1="173.22878"
       y1="524.23254"
       x2="114.65734"
       y2="451.37543"
       id="linearGradient3087"
       xlink:href="#linearGradient3525"
       gradientUnits="userSpaceOnUse"
       gradientTransform="matrix(0.57853,0.353675,-0.35104,0.582872,520.7052,-207.5038)" />
    <linearGradient
       x1="196.08591"
       y1="365.66113"
       x2="95.290253"
       y2="255.5688"
       id="linearGradient3101"
       xlink:href="#linearGradient3525"
       gradientUnits="userSpaceOnUse"
       gradientTransform="matrix(0.620715,0.136186,-0.132947,0.605953,365.14,10.09319)" />
    <linearGradient
       x1="370.37161"
       y1="344.23257"
       x2="283.22876"
       y2="259.17615"
       id="linearGradient3103"
       xlink:href="#linearGradient3525"
       gradientUnits="userSpaceOnUse"
       gradientTransform="matrix(0.437823,0.535059,-0.533781,0.463839,254.1209,21.50925)" />
    <linearGradient
       x1="536.08594"
       y1="521.37543"
       x2="439.24854"
       y2="434.30499"
       id="linearGradient3117"
       xlink:href="#linearGradient2917"
       gradientUnits="userSpaceOnUse"
       gradientTransform="matrix(0.692955,0.298236,-0.231638,0.674952,78.17678,-235.7722)" />
    <linearGradient
       x1="533.22876"
       y1="185.66115"
       x2="454.65735"
       y2="89.025398"
       id="linearGradient3125"
       xlink:href="#linearGradient3525"
       gradientUnits="userSpaceOnUse"
       gradientTransform="matrix(0.660096,0.05941423,-0.06000381,0.653611,-116.4365,105.7272)" />
    <linearGradient
       x1="715.71844"
       y1="299.56409"
       x2="650.84174"
       y2="230.34946"
       id="linearGradient3452"
       xlink:href="#linearGradient3446"
       gradientUnits="userSpaceOnUse"
       gradientTransform="translate(-476.4724,-112.8383)" />
    <linearGradient
       x1="791.06329"
       y1="-355.92725"
       x2="723.2616"
       y2="-358.38074"
       id="linearGradient3460"
       xlink:href="#linearGradient3446"
       gradientUnits="userSpaceOnUse"
       gradientTransform="translate(-419.3421,258.595)" />
    <linearGradient
       x1="175.47467"
       y1="955.26855"
       x2="218.35574"
       y2="880.65918"
       id="linearGradient3474"
       xlink:href="#linearGradient3446"
       gradientUnits="userSpaceOnUse"
       gradientTransform="translate(-137.3612,-469.7778)" />
    <linearGradient
       x1="758.90216"
       y1="200.78854"
       x2="693.67474"
       y2="145.09717"
       id="linearGradient3482"
       xlink:href="#linearGradient3446"
       gradientUnits="userSpaceOnUse"
       gradientTransform="translate(-490.353,22.1016)" />
    <linearGradient
       x1="870.85938"
       y1="-140.09358"
       x2="795.29053"
       y2="-169.7764"
       id="linearGradient3490"
       xlink:href="#linearGradient3446"
       gradientUnits="userSpaceOnUse"
       gradientTransform="translate(-450.4099,198.7519)" />
    <linearGradient
       x1="965.19623"
       y1="159.7126"
       x2="901.40399"
       y2="103.7599"
       id="linearGradient3498"
       xlink:href="#linearGradient3446"
       gradientUnits="userSpaceOnUse"
       gradientTransform="translate(-490.3612,21.8953)" />
    <linearGradient
       x1="412.31854"
       y1="743.88672"
       x2="388.38828"
       y2="683.20331"
       id="linearGradient3506"
       xlink:href="#linearGradient3446"
       gradientUnits="userSpaceOnUse"
       gradientTransform="translate(-379.7777,-307.2103)" />
    <linearGradient
       x1="805.99457"
       y1="514.12738"
       x2="741.84326"
       y2="450.75146"
       id="linearGradient3514"
       xlink:href="#linearGradient3446"
       gradientUnits="userSpaceOnUse"
       gradientTransform="translate(-476.4724,-112.8383)" />
    <linearGradient
       x1="974.9718"
       y1="357.18353"
       x2="909.49103"
       y2="305.17203"
       id="linearGradient3522"
       xlink:href="#linearGradient3446"
       gradientUnits="userSpaceOnUse"
       gradientTransform="translate(-489.4263,-30.47642)" />
    <linearGradient
       x1="904.65735"
       y1="359.94687"
       x2="947.51447"
       y2="414.23257"
       id="linearGradient3531"
       xlink:href="#linearGradient3525"
       gradientUnits="userSpaceOnUse"
       gradientTransform="matrix(0.868057,-0.04019387,0.04019387,0.868057,-383.372,26.04062)" />
    <linearGradient
       x1="1090.1083"
       y1="429.67673"
       x2="897.16919"
       y2="230.67667"
       id="linearGradient3106"
       xlink:href="#linearGradient3525"
       gradientUnits="userSpaceOnUse"
       gradientTransform="matrix(0.279104,0,0,0.294448,61.36618,240.5454)" />
    <linearGradient
       x1="-190.76511"
       y1="284.21475"
       x2="-514.01392"
       y2="-144.08994"
       id="linearGradient4929"
       xlink:href="#linearGradient3525"
       gradientUnits="userSpaceOnUse"
       gradientTransform="matrix(0.110956,-0.03855391,0.03807676,0.115717,257.0759,100.5169)" />
    <linearGradient
       x1="24.404194"
       y1="365.39426"
       x2="14.581494"
       y2="357.17325"
       id="linearGradient2865"
       xlink:href="#linearGradient3525"
       gradientUnits="userSpaceOnUse"
       gradientTransform="matrix(5.542162,3.319805,-4.164453,6.008209,1822.086,-2110.395)" />
  </defs>
  <g
     transform="translate(-128.4431,-60.87543)"
     id="layer1">
    <rect
       width="89.876274"
       height="89.531746"
       rx="9.1593952"
       ry="12.278864"
       x="157.9026"
       y="113.38107"
       transform="matrix(0.993692,-0.112147,0.121212,0.992627,0,0)"
       id="rect2525"
       style="fill:#e7c78d;fill-opacity:1;fill-rule:nonzero;stroke:#000000;stroke-width:1.08279371;stroke-linecap:round;stroke-linejoin:round;stroke-miterlimit:4;stroke-opacity:1;stroke-dasharray:none;stroke-dashoffset:0" />
    <rect
       width="89.87632"
       height="89.531639"
       rx="9.1594009"
       ry="12.278854"
       x="296.33511"
       y="-142.43333"
       transform="matrix(0.780862,0.624704,-0.617551,0.786531,0,0)"
       id="rect3412"
       style="fill:#e7c78d;fill-opacity:1;fill-rule:nonzero;stroke:#000000;stroke-width:1.08279395;stroke-linecap:round;stroke-linejoin:round;stroke-miterlimit:4;stroke-opacity:1;stroke-dasharray:none;stroke-dashoffset:0" />
    <rect
       width="89.875908"
       height="89.531143"
       rx="9.1593494"
       ry="12.278783"
       x="4.3842111"
       y="408.65277"
       transform="matrix(0.400924,-0.916111,0.919732,0.392546,0,0)"
       id="rect3414"
       style="fill:#e7c78d;fill-opacity:1;fill-rule:nonzero;stroke:#000000;stroke-width:1.08278763;stroke-linecap:round;stroke-linejoin:round;stroke-miterlimit:4;stroke-opacity:1;stroke-dasharray:none;stroke-dashoffset:0" />
    <rect
       width="89.875633"
       height="89.531563"
       rx="9.1593246"
       ry="12.278835"
       x="186.71849"
       y="155.3264"
       transform="matrix(0.986464,0.163975,-0.154965,0.98792,0,0)"
       id="rect3416"
       style="fill:#e7c78d;fill-opacity:1;fill-rule:nonzero;stroke:#000000;stroke-width:1.08278918;stroke-linecap:round;stroke-linejoin:round;stroke-miterlimit:4;stroke-opacity:1;stroke-dasharray:none;stroke-dashoffset:0" />
    <rect
       width="89.87571"
       height="89.531258"
       rx="9.1593342"
       ry="12.278788"
       x="340.08557"
       y="5.9207983"
       transform="matrix(0.859397,0.511308,-0.503443,0.864028,0,0)"
       id="rect3418"
       style="fill:#e7c78d;fill-opacity:1;fill-rule:nonzero;stroke:#000000;stroke-width:1.0827868;stroke-linecap:round;stroke-linejoin:round;stroke-miterlimit:4;stroke-opacity:1;stroke-dasharray:none;stroke-dashoffset:0" />
    <rect
       width="89.875694"
       height="89.531532"
       rx="9.1593323"
       ry="12.278823"
       x="398.77051"
       y="113.79871"
       transform="matrix(0.986533,0.16356,-0.154549,0.987985,0,0)"
       id="rect3420"
       style="fill:#e7c78d;fill-opacity:1;fill-rule:nonzero;stroke:#000000;stroke-width:1.0827893;stroke-linecap:round;stroke-linejoin:round;stroke-miterlimit:4;stroke-opacity:1;stroke-dasharray:none;stroke-dashoffset:0" />
    <rect
       width="89.876167"
       height="89.531548"
       rx="9.1593819"
       ry="12.278833"
       x="-31.370306"
       y="367.33505"
       transform="matrix(0.848906,-0.528544,0.536269,0.844047,0,0)"
       id="rect3422"
       style="fill:#e7c78d;fill-opacity:1;fill-rule:nonzero;stroke:#000000;stroke-width:1.08279181;stroke-linecap:round;stroke-linejoin:round;stroke-miterlimit:4;stroke-opacity:1;stroke-dasharray:none;stroke-dashoffset:0" />
    <rect
       width="89.876335"
       height="89.531807"
       rx="9.1594028"
       ry="12.278873"
       x="247.75377"
       y="334.37372"
       transform="matrix(0.993692,-0.112147,0.121212,0.992627,0,0)"
       id="rect3424"
       style="fill:#e7c78d;fill-opacity:1;fill-rule:nonzero;stroke:#000000;stroke-width:1.08279443;stroke-linecap:round;stroke-linejoin:round;stroke-miterlimit:4;stroke-opacity:1;stroke-dasharray:none;stroke-dashoffset:0" />
    <rect
       width="89.876228"
       height="89.53167"
       rx="9.1593895"
       ry="12.278848"
       x="403.2547"
       y="264.06793"
       transform="matrix(0.998347,0.05747685,-0.04836232,0.99883,0,0)"
       id="rect3426"
       style="fill:#e7c78d;fill-opacity:1;fill-rule:nonzero;stroke:#000000;stroke-width:1.08279252;stroke-linecap:round;stroke-linejoin:round;stroke-miterlimit:4;stroke-opacity:1;stroke-dasharray:none;stroke-dashoffset:0" />
    <rect
       width="89.876335"
       height="89.531807"
       rx="9.1594028"
       ry="12.278873"
       x="159.51381"
       y="105.61226"
       transform="matrix(0.993692,-0.112147,0.121212,0.992627,0,0)"
       id="rect3428"
       style="fill:url(#linearGradient3452);fill-opacity:1;fill-rule:nonzero;stroke:#000000;stroke-width:1.08279443;stroke-linecap:round;stroke-linejoin:round;stroke-miterlimit:4;stroke-opacity:1;stroke-dasharray:none;stroke-dashoffset:0" />
    <rect
       width="89.876366"
       height="89.531654"
       rx="9.1594067"
       ry="12.278858"
       x="291.97964"
       y="-149.00807"
       transform="matrix(0.780862,0.624704,-0.617551,0.786531,0,0)"
       id="rect3430"
       style="fill:url(#linearGradient3460);fill-opacity:1;fill-rule:nonzero;stroke:#000000;stroke-width:1.08279443;stroke-linecap:round;stroke-linejoin:round;stroke-miterlimit:4;stroke-opacity:1;stroke-dasharray:none;stroke-dashoffset:0" />
    <rect
       width="89.875862"
       height="89.531082"
       rx="9.1593437"
       ry="12.278775"
       x="11.901784"
       y="406.09143"
       transform="matrix(0.400924,-0.916111,0.919732,0.392546,0,0)"
       id="rect3432"
       style="fill:url(#linearGradient3474);fill-opacity:1;fill-rule:nonzero;stroke:#000000;stroke-width:1.08278692;stroke-linecap:round;stroke-linejoin:round;stroke-miterlimit:4;stroke-opacity:1;stroke-dasharray:none;stroke-dashoffset:0" />
    <rect
       width="89.875542"
       height="89.531563"
       rx="9.1593151"
       ry="12.278835"
       x="186.14561"
       y="147.4326"
       transform="matrix(0.986464,0.163975,-0.154965,0.98792,0,0)"
       id="rect3434"
       style="fill:url(#linearGradient3482);fill-opacity:1;fill-rule:nonzero;stroke:#000000;stroke-width:1.08278871;stroke-linecap:round;stroke-linejoin:round;stroke-miterlimit:4;stroke-opacity:1;stroke-dasharray:none;stroke-dashoffset:0" />
    <rect
       width="89.875633"
       height="89.531197"
       rx="9.1593266"
       ry="12.278778"
       x="336.6806"
       y="-1.1987466"
       transform="matrix(0.859397,0.511308,-0.503443,0.864028,0,0)"
       id="rect3436"
       style="fill:url(#linearGradient3490);fill-opacity:1;fill-rule:nonzero;stroke:#000000;stroke-width:1.08278584;stroke-linecap:round;stroke-linejoin:round;stroke-miterlimit:4;stroke-opacity:1;stroke-dasharray:none;stroke-dashoffset:0" />
    <rect
       width="89.875618"
       height="89.531517"
       rx="9.1593246"
       ry="12.278819"
       x="398.20093"
       y="105.90461"
       transform="matrix(0.986533,0.16356,-0.154549,0.987985,0,0)"
       id="rect3438"
       style="fill:url(#linearGradient3498);fill-opacity:1;fill-rule:nonzero;stroke:#000000;stroke-width:1.08278883;stroke-linecap:round;stroke-linejoin:round;stroke-miterlimit:4;stroke-opacity:1;stroke-dasharray:none;stroke-dashoffset:0" />
    <rect
       width="89.876183"
       height="89.531532"
       rx="9.1593838"
       ry="12.278831"
       x="-26.581539"
       y="360.98306"
       transform="matrix(0.848906,-0.528544,0.536269,0.844047,0,0)"
       id="rect3440"
       style="fill:url(#linearGradient3506);fill-opacity:1;fill-rule:nonzero;stroke:#000000;stroke-width:1.08279181;stroke-linecap:round;stroke-linejoin:round;stroke-miterlimit:4;stroke-opacity:1;stroke-dasharray:none;stroke-dashoffset:0" />
    <rect
       width="89.876396"
       height="89.531868"
       rx="9.1594105"
       ry="12.278883"
       x="249.36504"
       y="326.60507"
       transform="matrix(0.993692,-0.112147,0.121212,0.992627,0,0)"
       id="rect3442"
       style="fill:url(#linearGradient3514);fill-opacity:1;fill-rule:nonzero;stroke:#000000;stroke-width:1.08279514;stroke-linecap:round;stroke-linejoin:round;stroke-miterlimit:4;stroke-opacity:1;stroke-dasharray:none;stroke-dashoffset:0" />
    <rect
       width="89.876259"
       height="89.5317"
       rx="9.1593933"
       ry="12.278852"
       x="403.53143"
       y="256.15054"
       transform="matrix(0.998347,0.05747683,-0.0483623,0.99883,0,0)"
       id="rect3444"
       style="fill:url(#linearGradient3522);fill-opacity:1;fill-rule:nonzero;stroke:#000000;stroke-width:1.08279276;stroke-linecap:round;stroke-linejoin:round;stroke-miterlimit:4;stroke-opacity:1;stroke-dasharray:none;stroke-dashoffset:0" />
    <path
       d="m 441.29356,356.86407 -27.64286,-1.62772 c -0.65387,-5.66943 -1.42149,-10.76049 -2.30298,-15.27317 -1.23903,-6.4716 -1.75067,-11.71222 -1.53482,-15.72155 0.29236,-5.4308 1.2321,-10.29327 2.81922,-14.58756 -4.04818,-1.59115 -5.9752,-4.19099 -5.78094,-7.79944 0.18445,-3.42613 1.17438,-6.45753 2.96994,-9.09411 l 1.33516,0.0786 c 0.25699,1.36806 0.717,2.34579 1.37988,2.93317 0.66287,0.58766 2.08503,1.20145 4.26631,1.84179 3.25545,0.95956 4.75176,3.88141 4.48882,8.76546 -0.0667,1.23924 -0.21865,2.21765 -0.45567,2.93483 -2.15102,0.64133 -4.11675,0.90944 -5.89695,0.80461 -0.9604,3.70956 -1.56514,7.87877 -1.81434,12.50766 -0.31985,5.94122 1.20965,13.16133 4.5884,21.66019 l 1.53587,0.0357 c 4.97406,-8.84818 9.54728,-20.07826 13.71956,-33.69039 -3.99766,-1.9173 -5.89838,-4.69835 -5.70215,-8.34328 0.16874,-3.13451 1.16144,-5.90982 2.97821,-8.32576 l 1.33516,0.0786 c 0.28568,2.06444 1.14302,3.3398 2.57205,3.8261 l 3.07413,0.94887 c 3.28454,1.03442 4.81389,3.64741 4.58838,7.83897 -0.0806,1.49438 -0.29857,2.77958 -0.65405,3.85549 -1.51105,0.42305 -3.37098,0.5695 -5.57973,0.4393 -3.14557,12.35639 -7.33763,23.57232 -12.57618,33.64797 l 15.72522,0.92596 c 1.81469,-5.45076 6.43721,-13.29585 13.86731,-23.5351 1.89051,-2.55783 2.88577,-4.76619 2.98585,-6.62513 0.10204,-1.89526 -0.71938,-3.2234 -2.46429,-3.98423 l -0.63109,-0.25652 c -3.23005,-1.43337 -4.76265,-3.68099 -4.59768,-6.74269 0.18628,-3.46246 1.31014,-6.52257 3.37136,-9.18008 l 1.28568,0.0757 c 0.13664,1.7631 0.91444,2.97892 2.33365,3.64755 l 2.71334,1.20187 c 3.06705,1.38721 4.49861,3.97612 4.29451,7.76679 -0.17658,3.28038 -1.93974,7.46371 -5.28916,12.54986 -3.34938,5.08642 -6.36384,10.70421 -9.04289,16.85377 -2.6792,6.14956 -4.76656,12.67223 -6.26223,19.56787 l 0,0 z"
       id="flowRoot2762"
       style="font-size:8.35136795px;font-style:normal;font-variant:normal;font-weight:normal;font-stretch:normal;text-align:start;line-height:125%;writing-mode:lr-tb;text-anchor:start;fill:url(#linearGradient3531);fill-opacity:1;stroke:#000000;stroke-width:0.83784765;stroke-miterlimit:4;stroke-opacity:1;font-family:Times New Roman" />
    <path
       d="m 283.29714,252.88245 0.76057,-1.3033 c 2.68496,1.6249 4.63652,2.25155 5.85468,1.87996 1.21819,-0.37168 2.74544,-2.13091 4.5818,-5.27751 l 8.53064,-14.61807 -0.84931,-0.6036 c -0.7663,-0.50081 -1.49392,-0.74925 -2.18278,-0.74531 -0.68891,0.004 -1.34108,0.17779 -1.95653,0.52157 -0.61551,0.34387 -3.63885,2.27693 -9.07005,5.79905 l -13.80803,9.02808 -10.71742,-7.00423 0.76057,-1.30329 c 3.38024,1.46297 6.43598,1.59486 9.1671,0.39534 2.7312,-1.19947 7.91948,-4.18289 15.56506,-8.95024 2.79137,-1.74399 5.0653,-2.67457 6.82165,-2.79192 -0.63964,-1.84526 -0.87285,-3.67631 -0.6994,-5.49314 0.17332,-1.81679 0.90356,-5.07808 2.19078,-9.78395 1.00089,-3.72507 1.51168,-6.1079 1.53253,-7.1486 0.0208,-1.04063 -0.33119,-1.79785 -1.05596,-2.27152 -0.68349,-0.44668 -1.77961,-0.67643 -3.28829,-0.68933 -1.45364,-0.009 -2.55326,-0.2574 -3.29879,-0.74473 -0.86987,-0.5684 -1.4182,-1.33232 -1.64515,-2.29156 -0.22694,-0.95925 -0.0869,-1.87337 0.42019,-2.74226 0.61666,-1.05669 1.60315,-1.71763 2.95945,-1.98281 1.35633,-0.26519 2.88357,0.15717 4.58182,1.26694 1.65672,1.08284 2.86176,2.53537 3.61506,4.35755 0.75313,1.82227 1.0325,3.56193 0.838,5.21882 -0.19459,1.65708 -0.86708,4.67224 -2.0174,9.04577 -1.04849,3.9536 -1.6651,6.66473 -1.84983,8.1334 -0.18486,1.4687 -0.002,2.79687 0.5499,3.98444 0.55148,1.18755 1.53128,2.24147 2.93963,3.16186 0.47628,0.31127 1.14904,0.6537 2.01833,1.02709 l 7.66725,-13.13856 c 1.8362,-3.14669 2.63866,-5.3796 2.40715,-6.69872 -0.23157,-1.31902 -1.63499,-2.88497 -4.21025,-4.69785 l 0.76056,-1.3033 18.14185,11.85638 -0.76055,1.3033 c -2.66433,-1.61141 -4.60034,-2.2279 -5.80814,-1.84954 -1.20784,0.37846 -2.72996,2.14103 -4.56617,5.28772 l -7.66725,13.13854 c 0.49753,0.51991 0.9949,0.94218 1.49197,1.26705 1.55325,1.0151 2.94981,1.51424 4.18979,1.49745 1.23998,-0.0168 2.42879,-0.4239 3.56642,-1.22124 1.13756,-0.79739 3.17273,-2.60579 6.10549,-5.42521 3.14548,-3.03716 5.37128,-5.01283 6.67743,-5.92724 1.30589,-0.91434 2.90419,-1.43495 4.79498,-1.56181 1.89055,-0.12679 3.67457,0.35792 5.35219,1.45419 1.61528,1.05576 2.64564,2.28053 3.09105,3.67453 0.44522,1.39399 0.33891,2.65451 -0.31874,3.78165 -0.50713,0.86884 -1.21155,1.41413 -2.11322,1.63578 -0.90181,0.22156 -1.79801,0.0414 -2.68842,-0.54059 -0.70427,-0.46015 -1.4064,-1.38938 -2.10653,-2.7878 -0.70731,-1.43536 -1.41293,-2.3831 -2.11707,-2.84327 -0.68341,-0.44666 -1.47899,-0.40696 -2.38664,0.11887 -0.90775,0.52602 -2.67343,2.05639 -5.29688,4.59122 -3.43406,3.3353 -5.87113,5.48923 -7.31125,6.4619 -1.44032,0.97265 -3.08311,1.56955 -4.92862,1.79067 0.52144,1.50861 0.7898,3.04643 0.80514,4.6135 0.0152,1.56698 -0.17028,5.54931 -0.55642,11.94686 -0.38719,6.1049 -0.28648,10.185 0.3022,12.24039 0.5886,2.05518 1.91944,4.10088 3.99265,6.137 l -0.76057,1.30331 -10.71734,-7.00417 c 0.10772,-0.77299 0.49324,-5.20843 1.15656,-13.30631 l 1.09447,-13.3469 c 0.0801,-0.82354 0.0392,-1.75851 -0.12252,-2.80497 -0.16179,-1.04638 -0.79146,-1.92824 -1.88907,-2.64556 -0.22787,-0.14893 -0.50394,-0.31313 -0.82818,-0.4927 l -8.53064,14.61807 c -1.83637,3.1466 -2.64392,5.37616 -2.42278,6.68851 0.22121,1.31225 1.60908,2.86806 4.16372,4.66742 l -0.76059,1.3033 -18.14185,-11.85637 z"
       id="flowRoot3743"
       style="font-size:8.35136795px;font-style:normal;font-variant:normal;font-weight:normal;font-stretch:normal;text-align:start;line-height:125%;writing-mode:lr-tb;text-anchor:start;fill:url(#linearGradient3117);fill-opacity:1;stroke:#000000;stroke-width:0.73623741;stroke-miterlimit:4;stroke-opacity:1;font-family:Times New Roman" />
    <path
       d="m 367.54967,135.55627 -10.17249,-8.44001 -35.78543,39.65828 -6.91259,-5.73532 35.78543,-39.65827 -4.90951,-4.07337 4.93591,-5.47011 21.9946,18.2487 -4.93592,5.4701 z m -34.07519,-14.22268 c -3.82539,4.23934 -8.36489,6.85985 -13.61849,7.86155 -5.25369,1.00169 -10.52587,0.32405 -15.81653,-2.03294 l 1.81601,23.02885 -8.84711,-0.16631 -3.35064,-41.04157 8.87794,0.13212 0.69713,8.58942 c 0.0337,0.26711 0.37783,0.67222 1.03246,1.21532 3.2206,2.67214 7.24223,3.51785 12.06488,2.53716 4.34574,-0.85819 7.83487,-2.74599 10.46742,-5.66337 2.03601,-2.25641 3.07898,-5.13751 3.12894,-8.6433 0.0629,-3.77391 -1.17559,-6.71453 -3.71539,-8.82185 -1.67583,-1.390339 -3.40855,-2.210195 -5.19814,-2.459561 -2.00289,-0.266754 -3.65215,0.317815 -4.94779,1.753686 -1.85101,2.051315 -1.40183,4.217495 1.34755,6.498565 0.62836,0.52141 1.37831,0.98422 2.24986,1.38844 l -4.62743,5.12821 c -1.25678,-0.48469 -2.72303,-1.42225 -4.39877,-2.81264 -2.67081,-2.2159 -4.04665,-4.85202 -4.12756,-7.90837 -0.0996,-2.832666 0.89945,-5.411409 2.99725,-7.736231 2.69415,-2.985738 6.20394,-4.338247 10.52941,-4.057578 4.0598,0.219855 7.80477,1.752729 11.23494,4.598619 5.05346,4.192886 7.70691,8.96512 7.96034,14.31672 0.19342,5.0628 -1.72533,9.82782 -5.75628,14.29506 l 0,0 z"
       id="text3751"
       style="font-size:147.8637085px;font-style:normal;font-weight:normal;fill:url(#linearGradient3071);fill-opacity:1;stroke:#000000;stroke-width:0.83894545;stroke-linecap:butt;stroke-linejoin:miter;stroke-miterlimit:4;stroke-opacity:1;font-family:Bitstream Vera Sans" />
    <path
       d="m 277.23642,351.94854 -1.35634,0.90883 c -0.8216,-1.23322 -1.72035,-2.07809 -2.69621,-2.53478 -0.9759,-0.45678 -2.33176,-0.60835 -4.06754,-0.45484 -1.16553,0.10777 -3.69432,0.74215 -7.58676,1.90324 l -48.85627,13.65428 -0.93011,-1.396 24.59724,-32.0804 -38.92076,10.58118 -0.83708,-1.25644 31.90583,-41.72275 c 2.38163,-3.11023 3.76048,-4.99332 4.1367,-5.64921 0.61858,-1.08757 0.88647,-2.18413 0.80384,-3.28985 -0.0827,-1.10566 -0.5814,-2.34498 -1.49595,-3.71772 l 1.35633,-0.90882 11.67272,17.52037 -1.35636,0.90883 -0.558,-0.83755 c -0.82164,-1.23324 -1.74278,-1.97902 -2.76329,-2.23755 -1.02063,-0.25846 -1.9463,-0.10937 -2.77715,0.44745 -0.8554,0.57305 -2.48172,2.40319 -4.87882,5.49024 l -21.68812,28.01086 28.94934,-8.03938 3.24886,-4.19616 2.59178,-3.35203 c 0.8964,-1.3074 1.60732,-2.57468 2.13301,-3.80192 0.26278,-0.61358 0.40579,-1.24791 0.42895,-1.90283 0.0523,-0.87639 -0.0175,-1.67099 -0.20944,-2.38373 -0.14798,-0.54025 -0.5397,-1.28746 -1.17527,-2.2414 l 1.35635,-0.90885 12.27729,18.42787 -1.35633,0.90883 -0.83708,-1.25643 c -0.86811,-1.30299 -1.797,-2.06041 -2.7865,-2.27237 -0.98966,-0.21199 -1.9854,0.0177 -2.98724,0.68912 -1.24646,0.83506 -3.07267,2.81598 -5.47878,5.94274 l -20.97112,27.17701 33.38248,-9.34379 c 3.71241,-1.0068 6.15506,-1.90322 7.32827,-2.6892 0.56196,-0.37666 0.97498,-0.89743 1.23903,-1.56225 0.26399,-0.66486 0.3232,-1.31881 0.17772,-1.96164 -0.24694,-1.11346 -0.84323,-2.37986 -1.78876,-3.79908 l 1.35634,-0.90883 9.4172,14.13495 z"
       id="flowRoot3695"
       style="font-size:8.35136795px;font-style:normal;font-variant:normal;font-weight:normal;font-stretch:normal;text-align:start;line-height:125%;writing-mode:lr-tb;text-anchor:start;fill:url(#linearGradient3103);fill-opacity:1;stroke:#000000;stroke-width:0.81462008;stroke-miterlimit:4;stroke-opacity:1;font-family:Times New Roman" />
    <path
       d="m 445.04672,194.82991 -4.81362,5.32041 -4.69472,-5.51016 4.70365,-5.35513 4.80469,5.54488 z m 4.79728,9.85233 -4.82306,5.2238 -4.76798,-5.5334 4.69943,-5.21584 4.89161,5.52544 z m -9.66054,1.16753 -4.76332,5.28953 -4.79526,-5.44827 4.69001,-5.31256 4.86857,5.4713 z m 0.17998,38.37645 -2.89673,-0.9141 c -1.4668,-0.46287 -2.68129,-1.1038 -3.64357,-1.92281 -0.96241,-0.81893 -1.85444,-1.9202 -2.6762,-3.30383 -1.37214,0.7537 -2.52055,1.18774 -3.44538,1.30189 -1.31249,0.14793 -3.0688,-0.12519 -5.26891,-0.81947 l -4.51018,-1.42324 c -0.83604,2.60928 -2.18719,4.97802 -4.05338,7.10622 -2.42031,2.76521 -5.36047,4.63251 -8.82031,5.60197 -4.34776,1.22002 -9.22285,0.97768 -14.62534,-0.72716 -4.88911,-1.54283 -8.31127,-3.7157 -10.26631,-6.51877 -2.13591,-3.07878 -2.48145,-6.87302 -1.03652,-11.38269 0.78151,-2.43913 1.82885,-4.82562 3.14194,-7.15962 1.31307,-2.33389 2.81393,-4.62414 4.50279,-6.87069 1.02854,-1.36185 2.7117,-3.42283 5.04966,-6.18289 l 1.22135,1.22863 c -3.01986,3.54431 -5.18187,6.40665 -6.48619,8.58717 -1.30433,2.18054 -2.26995,4.24932 -2.89697,6.20625 -1.1269,3.51706 -0.90173,6.53155 0.67566,9.04359 1.57725,2.51213 4.37038,4.40068 8.37944,5.66581 4.69354,1.48111 9.19037,1.85395 13.4906,1.11855 5.34997,-0.90387 8.70197,-3.46879 10.0561,-7.69477 0.90869,-2.83634 1.31979,-5.67348 1.23324,-8.51152 -0.0638,-2.23743 -0.44814,-4.48234 -1.15293,-6.73478 l 5.83785,-7.76117 c 0.47708,2.71154 0.6494,5.03004 0.51695,6.95579 -0.19778,2.71707 -0.99627,6.25954 -2.39577,10.62743 l 4.51019,1.42326 c 2.32231,0.73282 4.10414,0.84226 5.34559,0.32832 1.08268,-0.43906 1.86038,-1.39598 2.33296,-2.87089 0.26354,-0.82253 0.48653,-1.66556 0.66911,-2.52927 0.18248,-0.86375 0.34723,-1.81891 0.49419,-2.86561 l 2.28458,-2.08979 -0.73552,4.31192 c -0.35285,2.94925 -0.27232,5.17631 0.24141,6.68137 0.56598,1.67765 1.76573,2.80583 3.59927,3.38432 0.56214,0.1775 1.06191,0.10879 1.49933,-0.20604 0.43724,-0.31486 0.75593,-0.78422 0.95587,-1.4082 0.45438,-1.41817 0.56164,-3.05512 0.32188,-4.91094 -0.1806,-1.36867 -0.54455,-2.79521 -1.09176,-4.27958 l 3.94266,-3.86198 c 0.44908,2.54648 0.66866,4.25544 0.65874,5.12666 -0.0348,1.95655 -0.59736,4.63663 -1.68786,8.04009 l -3.27153,10.21057 z"
       id="flowRoot3683"
       style="font-size:8.35136795px;font-style:normal;font-variant:normal;font-weight:normal;font-stretch:normal;text-align:start;line-height:125%;writing-mode:lr-tb;text-anchor:start;fill:url(#linearGradient3101);fill-opacity:1;stroke:#000000;stroke-width:0.78484678;stroke-miterlimit:4;stroke-opacity:1;font-family:Times New Roman" />
    <path
       d="m 224.05397,250.96169 2.04088,0.4248 c -0.98465,4.6378 -2.67448,7.81086 -5.06949,9.51916 -2.39512,1.70829 -5.04772,2.25958 -7.95782,1.65386 -2.38108,-0.49561 -4.51963,-1.66868 -6.41564,-3.51921 -1.89611,-1.85054 -3.06843,-5.9948 -3.51698,-12.43277 l -1.24869,-18.09836 -23.21277,26.24777 -10.71465,-2.23018 32.88207,-35.54512 c -0.16959,-5.52163 -0.89347,-9.73345 -2.17163,-12.63548 -1.27825,-2.90193 -3.25903,-4.63217 -5.94238,-5.19075 -2.1543,-0.44834 -4.17009,-0.20128 -6.04739,0.74119 -1.87735,0.94259 -3.19402,2.72975 -3.95005,5.36152 l -2.04089,-0.4248 c 1.02942,-4.29126 2.8781,-7.51554 5.54607,-9.67282 2.66796,-2.15716 5.58928,-2.90538 8.76402,-2.24464 2.04086,0.42486 3.83915,1.48113 5.39489,3.16881 1.55567,1.6878 2.66944,4.24905 3.34127,7.68373 0.67177,3.43478 1.37181,10.40782 2.10015,20.91916 l 1.06197,14.79524 c 0.39749,6.12085 1.28667,10.34409 2.66753,12.66974 1.38078,2.32565 3.3184,3.74807 5.81285,4.26729 4.2329,0.88104 7.12512,-0.93833 8.67668,-5.45814 l 0,0 z"
       id="text3899"
       style="font-size:158.52603149px;font-style:normal;font-weight:normal;fill:url(#linearGradient3125);fill-opacity:1;stroke:#000000;stroke-width:0.82444137;stroke-linecap:butt;stroke-linejoin:miter;stroke-miterlimit:4;stroke-opacity:1;font-family:Times New Roman" />
    <path
       d="m 336.95284,370.92012 c -0.0722,-0.36438 -1.02033,-10.07015 -2.10693,-21.56839 -1.0866,-11.49822 -2.05209,-21.5449 -2.14552,-22.32596 l -0.16989,-1.42009 -0.79641,1.53642 c -1.70456,3.2884 -3.65054,5.57328 -4.74664,5.57328 -0.42134,0 -0.83482,-0.11734 -0.91883,-0.26074 -0.084,-0.14342 0.33149,-1.36906 0.92333,-2.72366 3.5369,-8.09509 6.16694,-18.56994 6.17242,-24.58338 0.002,-2.17727 0.25313,-3.6438 0.62401,-3.6438 0.70072,0 7.75077,3.36319 7.75077,3.69747 0,0.2084 -0.50071,0.83105 -1.11265,1.38366 -0.99247,0.89622 -1.21687,1.36692 -2.07764,4.35804 -0.53074,1.8443 -0.91449,3.40656 -0.85278,3.47166 0.0617,0.0651 4.35636,-0.34054 9.54365,-0.90143 l 9.43148,-1.01982 2.07067,-2.25585 c 1.13886,-1.24072 2.15589,-2.25586 2.26005,-2.25586 0.31527,0 4.82313,3.69329 5.67798,4.65197 0.43902,0.49238 0.7432,1.06948 0.67593,1.28244 -0.0882,0.27903 -2.16707,0.60513 -7.44105,1.16722 -4.0253,0.42901 -7.36256,0.82854 -7.41616,0.88786 -0.0536,0.0593 0.13777,2.49289 0.42522,5.40793 0.28745,2.91505 0.52603,5.55112 0.53015,5.85794 0.007,0.50967 0.17029,0.54238 1.89147,0.37845 l 1.88395,-0.17942 1.8356,-2.12041 c 1.34909,-1.55834 1.94095,-2.05254 2.23284,-1.86439 1.14201,0.73608 5.99155,4.98361 6.06646,5.31338 0.10877,0.47887 -0.29185,0.54862 -7.62297,1.32704 -3.22365,0.34229 -5.87882,0.64202 -5.90039,0.66606 -0.0435,0.0485 0.97103,10.39297 1.0859,11.07208 0.0547,0.32322 0.44848,0.41204 1.60614,0.36227 1.51966,-0.0653 1.55187,-0.0861 3.51563,-2.26852 1.09006,-1.21141 2.15764,-2.20103 2.37238,-2.19916 0.45616,0.004 6.39122,5.1895 6.39122,5.58408 0,0.14671 -0.0942,0.32601 -0.20932,0.39845 -0.11513,0.0724 -3.09806,0.42848 -6.62873,0.79122 -3.53066,0.36273 -6.49536,0.74192 -6.58822,0.84263 -0.20707,0.22462 0.93411,12.28228 1.18751,12.54693 0.0998,0.1042 1.34955,0.0518 2.77733,-0.11633 l 2.59595,-0.30577 2.25237,-2.36386 c 1.2388,-1.30012 2.40813,-2.36386 2.59849,-2.36386 0.4308,0 7.0385,5.52592 7.0385,5.88619 0,0.14437 -0.10693,0.3322 -0.23764,0.41741 -0.13067,0.0852 -7.12136,0.88712 -15.53483,1.78201 -8.41349,0.8949 -15.35977,1.69308 -15.43621,1.77373 -0.0765,0.0806 -0.001,1.43971 0.16746,3.02015 l 0.30645,2.87352 -0.86614,0.79764 c -0.77775,0.71621 -3.99679,2.29408 -4.68024,2.29408 -0.14897,0 -0.32993,-0.29813 -0.40212,-0.66251 z m 9.85082,-11.84139 c 2.0512,-0.23087 3.77653,-0.46948 3.83411,-0.53022 0.1242,-0.13101 -1.02362,-12.38035 -1.17668,-12.55743 -0.14622,-0.16916 -8.11243,0.61627 -8.4267,0.83083 -0.18834,0.1286 0.78629,12.05781 1.03065,12.61471 0.0591,0.13478 0.97848,0.0653 4.73862,-0.35789 z m -1.07796,-15.78317 c 1.76534,-0.18318 3.26567,-0.38996 3.33408,-0.45951 0.18115,-0.1842 -0.83514,-11.11495 -1.0551,-11.34802 -0.21628,-0.22917 -8.19629,0.61352 -8.45125,0.89246 -0.0944,0.10322 0.0551,2.44019 0.33213,5.1933 0.27701,2.75309 0.5112,5.3154 0.52042,5.69402 0.0152,0.62626 0.1112,0.67361 1.06339,0.5246 0.57565,-0.0901 2.491,-0.31366 4.25633,-0.49685 z m -2.09327,-14.42272 c 1.68857,-0.17093 3.32499,-0.36523 3.6365,-0.43178 l 0.56635,-0.12101 -0.55669,-5.89967 c -0.52357,-5.54846 -0.59053,-5.89935 -1.12459,-5.89394 -1.42324,0.0144 -7.80243,0.88493 -7.98695,1.08994 -0.11352,0.12613 0.0302,2.61436 0.31937,5.52941 0.28917,2.91504 0.52915,5.46571 0.53328,5.66813 0.009,0.44936 0.67187,0.45783 4.61273,0.0589 z m -35.97151,36.30552 c -1.41779,-1.75795 -1.84117,-2.49562 -1.84375,-3.21233 -0.003,-0.9264 0.005,-0.93186 2.02017,-1.28642 3.04831,-0.53639 10.90773,-2.70257 16.3882,-4.51683 2.68133,-0.88764 4.97347,-1.54979 5.09364,-1.47144 0.12017,0.0784 0.21694,0.43277 0.21504,0.78759 -0.003,0.51859 -0.64601,1.01596 -3.27948,2.53572 -1.8018,1.03982 -6.19009,3.59049 -9.75173,5.66814 -3.56166,2.07766 -6.59407,3.77755 -6.73872,3.77755 -0.14463,0 -1.09116,-1.02688 -2.10337,-2.28198 z M 307.491,349.20987 c -0.76893,-1.61653 -1.39806,-3.12594 -1.39806,-3.35425 0,-0.22831 0.32484,-0.50112 0.72187,-0.60624 1.04063,-0.27554 3.28619,-2.60194 4.74297,-4.91374 1.35357,-2.14801 5.00516,-9.92297 4.77463,-10.16618 -0.0769,-0.0812 -0.55972,0.0816 -1.07289,0.36175 -1.79125,0.97777 -9.27958,4.24531 -9.72911,4.24531 -0.44766,0 -3.62403,-4.60553 -3.62403,-5.2546 0,-0.18151 0.60544,-0.65368 1.34543,-1.04928 1.24586,-0.66603 1.43397,-0.9203 2.54176,-3.43567 2.29515,-5.21144 4.29863,-11.67083 5.63243,-18.15949 0.41994,-2.04295 0.74409,-3.01809 1.00325,-3.01809 0.63265,0 5.91941,3.94021 5.92613,4.41673 0.003,0.24292 -0.47575,0.80119 -1.06482,1.2406 -0.8629,0.64369 -1.24903,1.27307 -1.98711,3.23893 -1.28654,3.42672 -4.16069,9.59834 -5.97002,12.81934 -0.84147,1.49801 -1.50663,2.72365 -1.47812,2.72365 0.0285,0 2.12418,-0.32926 4.65703,-0.73171 2.53286,-0.40245 4.70737,-0.73371 4.83223,-0.73613 0.50752,-0.01 3.81998,-8.32088 3.81998,-9.58441 0,-1.09918 0.93319,-0.70863 3.48931,1.46033 1.45804,1.2372 2.65098,2.3 2.65098,2.3618 0,0.0618 -0.55566,0.68696 -1.23479,1.38926 -0.80035,0.82764 -2.38296,3.39636 -4.49812,7.30081 -3.4691,6.4038 -6.126,10.86599 -8.11791,13.63384 -0.67144,0.93301 -1.22079,1.73509 -1.22079,1.78239 0,0.0473 2.98292,-0.34847 6.62871,-0.87952 3.64579,-0.53105 7.09971,-0.96874 7.67536,-0.97266 1.00727,-0.007 1.04664,0.0309 1.04664,1.00257 0,0.97877 -0.0491,1.02397 -1.60485,1.47634 -4.02154,1.16939 -11.34778,3.82214 -13.87653,5.02456 -1.53019,0.72758 -2.87921,1.3229 -2.99783,1.3229 -0.11862,0 -0.8448,-1.32262 -1.61373,-2.93914 z m 41.19259,-36.97194 c -0.23715,-0.25021 -0.56651,-1.01209 -0.73189,-1.69308 -0.78247,-3.22197 -1.98169,-5.43987 -4.1661,-7.70497 -1.05471,-1.09362 -1.40914,-1.67739 -1.40914,-2.32075 0,-0.83188 0.0357,-0.85452 1.10882,-0.70267 1.93006,0.27311 5.56057,2.37488 7.61318,4.40739 1.88091,1.86253 1.88395,1.86811 1.8825,3.47418 -0.002,1.8559 -0.78604,3.50054 -2.10801,4.41989 -0.99348,0.6909 -1.61586,0.72503 -2.18936,0.12001 z"
       id="path3098"
       style="fill:url(#linearGradient3106);fill-opacity:1;stroke:#000000;stroke-width:0.838;stroke-miterlimit:4;stroke-opacity:1;stroke-dasharray:none" />
    <path
       d="m 212.60358,160.39113 c -0.66978,-0.31416 -1.75491,-1.10752 -4.26504,-3.11826 -1.8517,-1.4833 -3.4184,-2.77828 -3.48158,-2.87775 -0.0632,-0.0995 -0.0785,-0.22667 -0.034,-0.28266 0.0445,-0.056 0.81381,-0.56495 1.70961,-1.13099 9.14592,-5.77912 16.77344,-12.47898 22.04853,-19.36703 6.43146,-8.39795 11.48079,-18.68233 13.83219,-28.17306 0.24995,-1.00882 0.50823,-1.99382 0.57396,-2.18887 l 0.11952,-0.35466 3.66825,1.78855 c 2.01755,0.98372 3.70805,1.85564 3.75662,1.93764 0.16215,0.27364 -1.35622,5.5682 -2.54455,8.87279 -2.66765,7.41847 -6.66652,14.92013 -11.04127,20.71289 -5.79752,7.67666 -12.65875,14.49645 -20.85926,20.73317 l -1.60042,1.21718 0.0127,0.66725 c 0.007,0.36699 -0.0433,0.90429 -0.11167,1.19402 -0.10401,0.44052 -0.18667,0.54842 -0.50483,0.65897 -0.30881,0.1073 -0.5496,0.0528 -1.27877,-0.28918 z m -8.38844,-29.96657 c -6.06962,-1.81847 -10.2718,-2.82429 -14.37761,-3.44136 -0.84061,-0.12635 -1.54482,-0.27968 -1.56492,-0.34075 -0.0705,-0.21419 2.42621,-8.06735 2.582,-8.12148 0.18509,-0.0643 8.52174,1.51463 10.28551,1.94805 2.01798,0.4959 8.30298,2.25031 8.4187,2.35002 0.0965,0.0832 -2.52374,7.98357 -2.73687,8.25191 -0.0475,0.0598 -1.22057,-0.23107 -2.60681,-0.64639 z m 3.71692,-20.64321 c -4.16457,-1.18228 -6.59331,-1.78867 -9.56139,-2.38726 -4.86207,-0.98056 -6.92266,-1.46765 -6.9169,-1.63506 0.0121,-0.35152 1.80489,-7.619535 1.91774,-7.774575 0.085,-0.11678 0.23683,-0.14585 0.49075,-0.09394 0.20224,0.04134 2.24562,0.45593 4.54086,0.9213 2.29522,0.46538 4.86847,1.01474 5.71832,1.220815 1.61389,0.39134 6.71695,1.73286 7.62317,2.00403 l 0.52414,0.15683 -0.094,0.39893 c -0.31701,1.34542 -2.08664,7.56794 -2.1751,7.64827 -0.0589,0.0535 -0.98929,-0.15322 -2.0676,-0.45934 z"
       id="path4921"
       style="fill:url(#linearGradient4929);fill-opacity:1;stroke:#000000;stroke-width:0.838;stroke-miterlimit:4;stroke-opacity:1;stroke-dasharray:none" />
    <path
       d="m 425.16275,85.74398 c 0.6657,0.398759 2.28373,1.775938 4.85419,4.131416 0.84232,0.776565 1.64034,1.390546 2.39406,1.841943 2.17296,1.301709 5.54306,3.184475 10.11031,5.648285 l 5.63758,2.45833 c 3.59097,2.151096 5.00319,3.779626 4.23663,4.885636 -0.3,0.43275 -1.17681,1.06374 -2.63052,1.89308 l -1.09983,0.77042 -10.63739,10.46127 c -0.53461,0.49773 -0.50197,1.2656 0.0979,2.30369 0.56382,1.08717 0.66276,1.89476 0.29678,2.42285 -0.83271,1.20132 -3.5547,0.42093 -8.16592,-2.34123 l -1.18079,-0.6046 -6.65192,-3.57659 c -3.5591,-1.92643 -5.33863,-2.88967 -5.33861,-2.88966 -0.26522,-0.15886 -0.97465,0.23202 -2.12825,1.1726 l -1.53272,1.12144 -0.99628,0.21906 -0.51711,-0.20704 c -1.01892,-0.61026 0.4206,-3.99935 4.31855,-10.16728 0.15457,-0.31419 0.28225,-0.54397 0.38291,-0.68919 l 4.49806,-7.711966 c 1.24492,-1.97567 1.92871,-3.232953 2.05144,-3.771891 0.59949,-1.953398 0.11252,-3.876691 -1.46083,-5.770005 -0.93012,-1.103024 -1.2729,-1.920723 -1.02836,-2.453097 0.59985,-0.865426 2.09656,-0.581248 4.49014,0.852529 l 0,0 z m -6.74275,24.53011 10.85764,6.19866 c 2.07314,0.90147 3.76966,0.89737 5.08948,-0.0122 1.02141,-0.74988 3.24271,-3.50156 6.66381,-8.25492 1.06545,-1.53721 2.00383,-2.84547 2.81514,-3.92475 0.60955,-0.79108 0.75416,-1.45279 0.43388,-1.98518 -0.15589,-0.22823 -0.43335,-0.46194 -0.83248,-0.70102 L 429.5146,93.451154 418.42,110.27409 z m -3.45456,11.90853 3.05972,2.24077 c 3.73413,2.57722 6.00035,4.10494 6.79873,4.58309 l 7.51561,4.50192 7.74665,4.43794 0.13396,0.0802 3.26078,1.13434 0.067,0.0401 c 2.96993,1.77902 4.12143,3.14968 3.45454,4.11192 -0.26645,0.38432 -1.02637,0.84665 -2.27974,1.38701 -0.37762,0.18279 -0.65463,0.3573 -0.83106,0.52354 -3.1535,3.00802 -4.83522,4.61933 -5.04521,4.83399 -0.1235,0.26648 0.0251,0.73024 0.44599,1.39122 0.27701,0.50638 0.34312,0.95386 0.19829,1.34249 -0.0551,0.17049 -0.11611,0.30415 -0.18314,0.40098 -0.19933,0.28746 -0.58193,0.43197 -1.14778,0.43347 -0.89824,-0.0606 -3.64203,-1.39799 -8.23137,-4.01211 l -13.96568,-8.36557 c -1.41804,-0.84942 -2.59372,-0.60084 -3.52703,0.74573 l -2.44774,3.53145 c -1.36647,1.97139 -0.56474,3.84668 2.40527,5.62575 l 7.61627,4.3567 0.13192,0.079 c 3.7696,2.25803 5.8038,3.44227 6.10262,3.55273 0.2665,0.15963 0.54867,0.29541 0.84644,0.40737 l 5.40621,1.70643 c 0.30007,0.11121 0.58273,0.24626 0.84798,0.40515 3.59234,2.15184 4.8888,3.94876 3.88943,5.39071 -0.80022,1.15438 -2.15349,1.16053 -4.05995,0.0186 l -21.53159,-12.79491 c -0.48849,-0.29261 -0.97627,-0.58479 -1.46334,-0.87655 -3.81298,-2.28401 -5.74094,-4.52765 -5.78392,-6.73095 -0.0309,-1.31188 0.50311,-2.76056 1.60222,-4.34623 l 2.39893,-3.46103 c 0.93227,-1.34507 0.68379,-2.7519 -0.74544,-4.22047 l -1.46363,-1.69249 c -0.16457,-0.30409 -0.14721,-0.59987 0.0521,-0.88741 0.50018,-0.72166 1.87474,-0.44221 4.12361,0.83848 0.22188,0.13291 0.37748,0.22612 0.4668,0.27962 l 5.30143,4.70448 c 0.26653,0.15966 0.51075,0.30595 0.73268,0.43889 3.19186,1.91195 8.0579,4.75822 14.5981,8.53888 2.04038,1.2222 3.75985,1.23194 5.15853,0.0291 0.53209,-0.49703 1.14793,-1.25016 1.84748,-2.25933 0.96581,-1.39351 1.45392,-2.18889 1.46432,-2.38613 0.12263,-0.53892 -0.12589,-0.99396 -0.74555,-1.36514 l -15.96164,-9.15329 c -0.17868,-0.10695 -1.39837,-0.56564 -3.65912,-1.37601 -0.46527,-0.14376 -0.85284,-0.30841 -1.16263,-0.49406 -1.06493,-0.63782 -2.27874,-2.14648 -3.6415,-4.52593 l -0.89526,-1.9655 c -0.1217,-0.54828 -0.0992,-0.94267 0.0676,-1.18322 0.20029,-0.28901 0.54399,-0.28762 1.03112,0.004 l 0,0 z m 41.76728,6.14312 c -3.83106,5.5271 -6.85076,8.48033 -9.05911,8.85967 l -1.03157,-0.008 -0.1989,-0.11915 c -0.7984,-0.47816 0.26318,-2.86891 3.18468,-7.17218 l 13.89337,-20.04447 1.13172,-1.76952 0.0503,-0.0726 c 1.0543,-1.61234 0.74593,-4.10964 -0.92523,-7.4917 -1.1957,-2.349866 -1.71589,-3.817756 -1.56061,-4.403596 0.3995,-0.57645 1.28662,-0.45294 2.66142,0.37049 1.90639,1.14203 3.9011,3.15264 5.98406,6.031936 1.05326,1.37831 1.59533,2.45134 1.62617,3.21916 0.0337,0.49556 -0.20515,1.06665 -0.71638,1.71315 -2.56407,3.15771 -3.86284,4.76076 -3.89631,4.80915 l -9.44473,13.62626 c 1.01876,0.61034 3.11391,1.38894 6.28546,2.33582 1.30733,0.37633 2.36022,0.80355 3.15863,1.28172 3.41368,2.04491 4.65441,3.73992 3.72217,5.08501 -0.89987,1.29816 -3.63306,0.57951 -8.19959,-2.15589 l -5.40319,-3.33935 -1.26241,-0.7562 z"
       id="flowRoot2865"
       style="font-weight:normal;fill:url(#linearGradient2865);fill-opacity:1;stroke:#000000;stroke-width:0.838;stroke-miterlimit:4;stroke-opacity:1;font-family:UnBatang" />
    <g
       transform="scale(1.0318837,0.96910142)"
       id="text3044"
       style="font-size:72.20806122px;font-style:normal;font-variant:normal;font-weight:normal;font-stretch:normal;fill:#4d4d4d;fill-opacity:1;stroke:none;font-family:Linux Libertine;-inkscape-font-specification:Linux Libertine">
      <path
         d="m 157.78802,473.98764 c 1.22225,0 2.31525,-0.50536 3.27898,-1.51609 0.9872,-1.01072 2.02143,-2.82062 3.10269,-5.4297 l -14.10314,-30.5333 c -1.17527,-2.67955 -3.05568,-4.10161 -5.64125,-4.26619 -0.47011,4e-5 -0.70516,-0.1645 -0.70516,-0.49361 l 0,-1.44558 0.0705,-0.0705 c 3.03218,0.0471 5.53548,0.0706 7.50992,0.0705 l 9.37859,-0.0705 0.14103,0.0705 0,1.37506 c -1e-5,0.37613 -0.16455,0.56417 -0.49361,0.56413 l -2.75011,0.14103 c -1.10476,0.0941 -1.7629,0.37612 -1.97444,0.84619 -0.21156,0.47014 -0.0823,1.1753 0.38784,2.11547 l 11.35302,24.99781 0.14103,0 9.30807,-24.99781 c 0.25853,-0.65811 0.41131,-1.15172 0.45836,-1.48083 0.047,-0.35254 -0.0353,-0.6346 -0.24681,-0.84619 -0.21158,-0.2115 -0.50539,-0.35254 -0.88144,-0.4231 -0.35261,-0.0705 -0.92849,-0.14098 -1.72764,-0.21154 l -2.08021,-0.14103 c -0.28209,4e-5 -0.42312,-0.1645 -0.4231,-0.49361 l 0,-1.44558 0.0705,-0.0705 c 3.17317,0.0471 5.7705,0.0706 7.79198,0.0705 l 5.78229,-0.0705 0.14103,0.0705 0,1.37506 c -4e-5,0.37613 -0.27035,0.56417 -0.81093,0.56413 -1.6219,0.0941 -2.7384,0.37612 -3.34949,0.84618 -0.61118,0.47015 -1.19881,1.44562 -1.7629,2.9264 L 168.4006,465.2437 c -1.6689,4.27796 -3.58457,7.55693 -5.74703,9.83693 -2.13899,2.25651 -4.74807,3.38476 -7.82724,3.38476 -1.59837,0 -3.05569,-0.38784 -4.37197,-1.16351 -1.3163,-0.75217 -1.97445,-1.69238 -1.97444,-2.82063 -1e-5,-1.03423 0.28205,-1.84516 0.84619,-2.43279 0.56411,-0.58763 1.4103,-0.88144 2.53856,-0.88145 0.54061,10e-6 1.13999,0.12929 1.79815,0.38784 0.68164,0.25856 1.19876,0.58764 1.55135,0.98722 0.28205,0.37609 0.65813,0.71691 1.12825,1.02248 0.49359,0.28206 0.97545,0.42309 1.44557,0.42309"
         id="path3218" />
      <path
         d="m 192.48173,445.88714 8.21508,-0.14103 0.14103,0.14103 0,1.51609 c -2e-5,0.3056 -0.14105,0.45838 -0.42309,0.45835 l -2.15073,0.14103 c -1.33981,0.094 -2.17425,0.36436 -2.50331,0.81093 -0.30558,0.42312 -0.45836,1.39859 -0.45835,2.9264 l 0,17.20583 14.87881,-17.91098 c -3e-5,-0.5406 -0.0235,-0.95194 -0.0705,-1.23403 -0.0235,-0.28203 -0.11755,-0.57585 -0.28206,-0.88144 -0.14106,-0.32905 -0.39961,-0.57585 -0.77567,-0.74042 -0.35261,-0.16451 -0.82271,-0.27028 -1.41031,-0.31732 -0.23508,3e-5 -0.35261,-0.12925 -0.35258,-0.38784 l 0,-1.5866 0.14103,-0.14103 c 2.16245,0.0941 3.91359,0.14106 5.25342,0.14103 l 8.32085,-0.14103 0.0705,0.14103 0,1.51609 c -4e-5,0.3056 -0.14107,0.45838 -0.42309,0.45835 l -2.18599,0.14103 c -1.31633,0.0705 -2.13901,0.3291 -2.46805,0.77567 -0.3291,0.42313 -0.49364,1.41034 -0.49361,2.96166 l 0,19.42707 c -3e-5,1.38682 0.18801,2.32702 0.56413,2.82063 0.37605,0.47011 1.17523,0.74042 2.39753,0.81093 l 2.18599,0.14103 c 0.28202,0 0.42305,0.14104 0.42309,0.4231 l 0,1.51608 -0.0705,0.14104 c -3.36129,-0.094 -6.1349,-0.14104 -8.32085,-0.14104 l -8.07405,0.14104 0,-0.14104 0,-1.5866 c -2e-5,-0.23505 0.1175,-0.35258 0.35258,-0.35258 l 2.2565,-0.14103 c 1.29276,-0.0705 2.10369,-0.34082 2.43279,-0.81093 0.35255,-0.49361 0.52884,-1.43381 0.52887,-2.82063 l 0,-17.02953 -14.87881,17.91098 0,0.14103 c -1e-5,0.96372 0.15277,1.64537 0.45835,2.04496 0.32906,0.37608 1.06948,0.61113 2.22125,0.70515 0.28204,0 0.42307,0.14104 0.42309,0.4231 l 0,1.51608 -0.0705,0.14104 c -2.37404,-0.094 -4.32497,-0.14104 -5.8528,-0.14104 l -8.00353,0.14104 -0.0705,-0.14104 0,-1.5866 c -1e-5,-0.23505 0.11752,-0.35258 0.35258,-0.35258 l 2.22124,-0.14103 c 1.29278,-0.0705 2.09196,-0.32907 2.39753,-0.77567 0.32907,-0.4466 0.4936,-1.35155 0.49361,-2.71485 l 0,-19.49759 c -1e-5,-1.57483 -0.15279,-2.5738 -0.45835,-2.99692 -0.28207,-0.44657 -1.093,-0.71688 -2.43279,-0.81093 l -2.15073,-0.14103 c -0.28206,3e-5 -0.4231,-0.12925 -0.42309,-0.38784 l 0,-1.5866 0.21154,-0.14103 c 3.1732,0.0941 5.79403,0.14106 7.8625,0.14103"
         id="path3220" />
      <path
         d="m 236.37774,471.90743 c -10e-6,0.56413 0.10577,1.04598 0.31733,1.44557 0.23503,0.37609 0.56411,0.6699 0.98721,0.88145 0.42308,0.21155 0.81092,0.36433 1.16351,0.45835 0.37607,0.094 0.81092,0.17629 1.30454,0.2468 0.37607,0.094 0.56411,0.28207 0.56413,0.56413 l 0,1.37505 -0.14103,0.14104 c -2.79714,-0.094 -5.12415,-0.14104 -6.98106,-0.14104 l -7.4394,0.14104 -0.14103,-0.14104 0,-1.37505 c 0,-0.30557 0.18804,-0.49361 0.56412,-0.56413 l 1.37506,-0.14103 c 1.24577,-0.16453 2.06845,-0.4466 2.46805,-0.84619 0.42309,-0.42309 0.63463,-1.15175 0.63464,-2.18598 l 0,-20.59058 c -1e-5,-1.0107 -0.23506,-1.76287 -0.70516,-2.2565 -0.47011,-0.51709 -1.26928,-0.82266 -2.39753,-0.91671 l -1.37506,-0.14103 c -0.37608,-0.0705 -0.56412,-0.27028 -0.56412,-0.59938 l 0,-1.37506 0.14103,-0.14103 c 3.26722,0.0941 5.74702,0.14106 7.4394,0.14103 l 6.84003,-0.14103 0.14103,0.14103 0,1.23403 c -2e-5,0.18807 -0.0588,0.36436 -0.17629,0.52886 -0.11754,0.14106 -0.24682,0.21158 -0.38784,0.21155 -1.24579,0.11755 -2.16249,0.37611 -2.75011,0.77567 -0.58764,0.39962 -0.88146,1.1988 -0.88145,2.39754 l 0,8.21507 c 2.25649,2e-5 4.01938,-0.5641 5.28868,-1.69237 1.26926,-1.12823 2.327,-2.7971 3.17321,-5.00662 1.88039,-4.86555 4.24267,-7.29834 7.08682,-7.29837 2.49153,3e-5 3.7373,1.08127 3.73733,3.24372 -3e-5,0.70519 -0.29384,1.35158 -0.88144,1.93918 -0.58766,0.58766 -1.21055,0.88147 -1.86867,0.88145 -0.96374,2e-5 -1.68065,-0.23503 -2.15073,-0.70516 -0.30559,-0.35255 -0.78745,-0.52884 -1.44557,-0.52887 -0.3526,3e-5 -0.77569,0.36436 -1.26928,1.093 -0.49363,0.70518 -0.94023,1.62188 -1.3398,2.75011 -1.36332,3.9724 -3.31425,6.15839 -5.8528,6.55796 4.08989,1e-5 6.81649,1.65713 8.17982,4.97135 0.37606,0.86971 0.77565,1.75115 1.19877,2.64434 0.44657,0.8697 0.97544,1.84517 1.5866,2.9264 0.63461,1.05774 1.29276,1.93919 1.97444,2.64434 0.68162,0.70516 1.32801,1.10475 1.93918,1.19877 l 0.59938,0.0705 c 0.51709,0 0.77564,0.21155 0.77568,0.63464 l 0,1.30454 -0.21155,0.14104 -5.1829,-0.0705 c -2.77365,-0.047 -5.08891,-2.78537 -6.9458,-8.21508 -0.3761,-1.10473 -0.76394,-2.00968 -1.16351,-2.71485 -0.3761,-0.72865 -0.88146,-1.42206 -1.51609,-2.08021 -0.61115,-0.65814 -1.38682,-1.15175 -2.32701,-1.48083 -0.94023,-0.35257 -2.06848,-0.57587 -3.38476,-0.6699 l 0,10.119"
         id="path3222" />
      <path
         d="m 268.49764,445.88714 8.21508,-0.14103 0.14103,0.14103 0,1.51609 c -2e-5,0.3056 -0.14105,0.45838 -0.42309,0.45835 l -2.15073,0.14103 c -1.33981,0.094 -2.17425,0.36436 -2.50331,0.81093 -0.30558,0.42312 -0.45836,1.39859 -0.45835,2.9264 l 0,17.20583 14.87881,-17.91098 c -3e-5,-0.5406 -0.0235,-0.95194 -0.0705,-1.23403 -0.0235,-0.28203 -0.11756,-0.57585 -0.28207,-0.88144 -0.14106,-0.32905 -0.39961,-0.57585 -0.77567,-0.74042 -0.35261,-0.16451 -0.82271,-0.27028 -1.41031,-0.31732 -0.23508,3e-5 -0.35261,-0.12925 -0.35258,-0.38784 l 0,-1.5866 0.14103,-0.14103 c 2.16245,0.0941 3.91359,0.14106 5.25342,0.14103 l 8.32085,-0.14103 0.0705,0.14103 0,1.51609 c -3e-5,0.3056 -0.14107,0.45838 -0.42309,0.45835 l -2.18599,0.14103 c -1.31632,0.0705 -2.13901,0.3291 -2.46805,0.77567 -0.3291,0.42313 -0.49364,1.41034 -0.4936,2.96166 l 0,19.42707 c -4e-5,1.38682 0.188,2.32702 0.56412,2.82063 0.37605,0.47011 1.17523,0.74042 2.39753,0.81093 l 2.18599,0.14103 c 0.28202,0 0.42306,0.14104 0.42309,0.4231 l 0,1.51608 -0.0705,0.14104 c -3.36128,-0.094 -6.1349,-0.14104 -8.32085,-0.14104 l -8.07405,0.14104 0,-0.14104 0,-1.5866 c -2e-5,-0.23505 0.11751,-0.35258 0.35258,-0.35258 l 2.2565,-0.14103 c 1.29276,-0.0705 2.10369,-0.34082 2.43279,-0.81093 0.35255,-0.49361 0.52884,-1.43381 0.52887,-2.82063 l 0,-17.02953 -14.87881,17.91098 0,0.14103 c -1e-5,0.96372 0.15277,1.64537 0.45835,2.04496 0.32906,0.37608 1.06948,0.61113 2.22125,0.70515 0.28204,0 0.42308,0.14104 0.42309,0.4231 l 0,1.51608 -0.0705,0.14104 c -2.37405,-0.094 -4.32498,-0.14104 -5.85281,-0.14104 l -8.00353,0.14104 -0.0705,-0.14104 0,-1.5866 c 0,-0.23505 0.11752,-0.35258 0.35258,-0.35258 l 2.22124,-0.14103 c 1.29278,-0.0705 2.09196,-0.32907 2.39753,-0.77567 0.32907,-0.4466 0.49361,-1.35155 0.49361,-2.71485 l 0,-19.49759 c 0,-1.57483 -0.15279,-2.5738 -0.45835,-2.99692 -0.28207,-0.44657 -1.093,-0.71688 -2.43279,-0.81093 l -2.15073,-0.14103 c -0.28206,3e-5 -0.42309,-0.12925 -0.42309,-0.38784 l 0,-1.5866 0.21155,-0.14103 c 3.1732,0.0941 5.79403,0.14106 7.86249,0.14103"
         id="path3224" />
      <path
         d="m 328.01288,470.32083 c -1.52786,2.63258 -3.17323,4.50125 -4.93609,5.60599 -1.76292,1.10475 -3.77261,1.65712 -6.0291,1.65712 -4.51301,0 -8.0858,-1.44557 -10.71838,-4.33671 -2.63259,-2.89114 -3.94888,-6.68723 -3.94888,-11.38829 0,-4.95958 1.44557,-8.97897 4.33672,-12.05818 2.91464,-3.07915 6.40516,-4.61874 10.47158,-4.61878 3.29071,4e-5 5.87628,0.71694 7.75672,2.15073 1.9039,1.43385 2.85586,3.17323 2.85589,5.21816 -3e-5,0.98725 -0.27034,1.76292 -0.81093,2.32702 -0.54065,0.56415 -1.21055,0.84621 -2.0097,0.84619 -0.82271,2e-5 -1.53962,-0.22328 -2.15073,-0.6699 -0.58765,-0.44658 -0.92848,-1.09297 -1.02248,-1.93918 -0.094,-0.65812 -0.17631,-1.16349 -0.2468,-1.51609 -0.047,-0.35255 -0.18807,-0.8109 -0.4231,-1.37505 -0.23507,-0.58761 -0.51713,-1.03421 -0.84618,-1.3398 -0.30559,-0.32905 -0.76394,-0.61111 -1.37506,-0.84619 -0.58765,-0.25853 -1.29281,-0.38781 -2.11547,-0.38784 -2.44456,3e-5 -4.4425,1.14003 -5.99383,3.42001 -1.52785,2.25653 -2.29177,5.32396 -2.29176,9.2023 -1e-5,4.16044 0.97545,7.55694 2.9264,10.18952 1.95092,2.63259 4.34845,3.94888 7.1926,3.94888 3.00864,0 5.69999,-1.70413 8.07404,-5.11239 l 1.30454,1.02248"
         id="path3226" />
      <path
         d="m 331.92651,462.07049 c 0,-5.0536 1.31629,-9.13176 3.94888,-12.23447 2.63257,-3.10266 6.29939,-4.654 11.00044,-4.65404 2.06844,4e-5 3.94886,0.32911 5.64126,0.98722 1.69235,0.63467 3.09091,1.49261 4.19568,2.57383 1.12822,1.05776 2.06843,2.30353 2.82063,3.73733 0.77564,1.41033 1.32801,2.86766 1.65712,4.37197 0.32904,1.50435 0.49358,3.03219 0.49361,4.58352 -3e-5,1.88043 -0.31735,3.74909 -0.95196,5.606 -0.61117,1.83341 -1.50437,3.54929 -2.6796,5.14764 -1.15178,1.59836 -2.71488,2.9029 -4.68929,3.91362 -1.97446,0.98722 -4.18395,1.48083 -6.62848,1.48083 -2.32703,0 -4.45425,-0.45835 -6.38167,-1.37505 -1.92743,-0.91671 -3.49053,-2.12723 -4.68929,-3.63156 -1.19877,-1.50433 -2.12723,-3.16145 -2.78537,-4.97136 -0.63464,-1.80989 -0.95196,-3.65505 -0.95196,-5.53548 m 23.37595,-2.60908 c -0.42312,-3.90185 -1.43385,-6.85175 -3.03218,-8.84972 -1.59837,-2.02142 -3.66683,-3.03214 -6.20538,-3.03217 -1.36331,3e-5 -2.57383,0.36436 -3.63155,1.09299 -1.05775,0.70518 -1.89219,1.6689 -2.50331,2.89114 -0.61115,1.19879 -1.0695,2.51509 -1.37506,3.94888 -0.30557,1.43384 -0.47011,2.94993 -0.49361,4.54826 1.92742,-0.77565 3.90186,-1.16349 5.92332,-1.16351 1.12824,2e-5 2.45628,0.24683 3.98414,0.74042 1.52782,0.47012 2.72658,0.70517 3.5963,0.70516 1.22225,1e-5 2.46802,-0.2938 3.73733,-0.88145 m 0.14103,1.97444 c -2.67962,1.66888 -5.03014,2.50332 -7.05157,2.50331 -1.08126,10e-6 -2.50332,-0.32906 -4.2662,-0.98722 -1.7629,-0.68164 -3.04394,-1.02247 -3.8431,-1.02248 -0.3996,10e-6 -1.11651,0.094 -2.15073,0.28206 0.14102,1.48084 0.42308,2.94992 0.84619,4.40723 0.44659,1.45733 1.04597,2.85589 1.79815,4.19569 0.77566,1.31629 1.77463,2.38578 2.99691,3.20846 1.24577,0.79918 2.63257,1.19877 4.16043,1.19877 0.91668,0 1.77462,-0.15279 2.57382,-0.45836 0.82266,-0.32907 1.62184,-0.88144 2.39754,-1.65711 0.79915,-0.79918 1.43379,-1.99794 1.90392,-3.5963 0.47008,-1.59835 0.70513,-3.52578 0.70516,-5.78229 -3e-5,-1.05772 -0.0235,-1.82164 -0.0705,-2.29176"
         id="path3228" />
      <path
         d="m 378.36108,475.43321 c 0.68164,0 1.4103,-0.10577 2.18598,-0.31732 0.77566,-0.23505 1.56308,-0.59938 2.36228,-1.09299 0.82266,-0.51711 1.49256,-1.28103 2.0097,-2.29176 0.5406,-1.03422 0.81091,-2.23299 0.81093,-3.5963 -2e-5,-1.78639 -0.51714,-3.36124 -1.55135,-4.72455 -1.01074,-1.36329 -2.37404,-2.04494 -4.08991,-2.04496 l -4.61877,0 c -0.30558,2e-5 -0.56414,-0.11751 -0.77568,-0.35257 -0.21155,-0.25855 -0.31733,-0.55236 -0.31732,-0.88145 -10e-6,-0.35256 0.11752,-0.65813 0.35258,-0.9167 0.23504,-0.25854 0.48185,-0.38782 0.74042,-0.38784 l 2.89114,0 c 1.26927,2e-5 2.38576,-0.19978 3.34949,-0.59938 0.9872,-0.42308 1.72762,-0.95195 2.22125,-1.58661 0.49359,-0.65812 0.85792,-1.28101 1.09299,-1.86866 0.23503,-0.61112 0.35256,-1.18699 0.35258,-1.72764 -2e-5,-1.22224 -0.38786,-2.29173 -1.16351,-3.20846 -0.77569,-0.91668 -1.66889,-1.57482 -2.6796,-1.97444 -1.01074,-0.39956 -2.02146,-0.59935 -3.03217,-0.59938 -2.67961,3e-5 -4.70106,0.74044 -6.06435,2.22124 -1.36331,1.45735 -2.32702,3.53756 -2.89114,6.24064 l -1.93918,-0.35258 c 0.4701,-3.29071 0.72865,-6.47566 0.77567,-9.55487 2.53856,3e-5 4.51299,-0.14101 5.92332,-0.4231 1.4338,-0.28203 2.9734,-0.42306 4.61877,-0.42309 1.24577,3e-5 2.47979,0.12931 3.70208,0.38783 1.22225,0.25859 2.42102,0.66993 3.5963,1.23403 1.17524,0.56415 2.11544,1.39859 2.82062,2.5033 0.72864,1.08127 1.09297,2.35055 1.093,3.80785 -3e-5,1.38683 -0.58766,2.76189 -1.76289,4.12517 -1.17529,1.33982 -2.51508,2.23301 -4.0194,2.67959 0.42308,0.047 0.89318,0.16456 1.41032,0.35258 0.54059,0.18806 1.12822,0.50538 1.76289,0.95197 0.65812,0.4231 1.24575,0.92847 1.76289,1.51608 0.54059,0.58765 0.98719,1.35157 1.3398,2.29176 0.35255,0.94022 0.52884,1.97445 0.52887,3.10269 -3e-5,0.8697 -0.11756,1.7394 -0.35258,2.60908 -0.23508,0.8462 -0.66993,1.71589 -1.30454,2.60908 -0.63467,0.8932 -1.43385,1.68063 -2.39754,2.36228 -0.94023,0.65815 -2.20951,1.19877 -3.80784,1.62186 -1.57487,0.42309 -3.36127,0.63464 -5.3592,0.63464 -3.22022,0 -5.78229,-0.65815 -7.68621,-1.97444 -1.90392,-1.31629 -2.85588,-2.97341 -2.85588,-4.97135 0,-0.54062 0.19979,-1.02248 0.59938,-1.44558 0.39959,-0.42308 0.9167,-0.63463 1.55135,-0.63464 1.62185,1e-5 2.53856,0.88146 2.75011,2.64434 0.18803,1.26929 0.79917,2.26826 1.83341,2.99692 1.03422,0.70516 2.44453,1.05773 4.23094,1.05773"
         id="path3230" />
      <path
         d="m 404.66343,473.21197 c -1e-5,0.56413 0.45834,0.84619 1.37505,0.84619 l 9.30807,0 c 1.24576,0 2.03318,-0.25856 2.36228,-0.77568 0.35255,-0.51711 0.52884,-1.43381 0.52887,-2.75011 l 0,-18.33408 c -3e-5,-1.36327 -0.17632,-2.29173 -0.52887,-2.78537 -0.3291,-0.51708 -1.11652,-0.77564 -2.36228,-0.77567 l -5.8528,0 c -0.49362,3e-5 -0.90497,0.15281 -1.23402,0.45835 -0.32909,0.28209 -0.54064,0.5524 -0.63464,0.81093 -0.094,0.23508 -0.14105,0.43488 -0.14104,0.59939 -0.30558,4.8421 -0.69341,9.04953 -1.16351,12.62231 -0.47011,3.5728 -0.8697,6.11136 -1.19876,7.61569 -0.30558,1.48083 -0.45836,2.30352 -0.45835,2.46805 m 1.23402,3.66681 c -1.15177,0 -2.2095,0.24681 -3.1732,0.74042 -0.94022,0.49361 -1.70414,1.06948 -2.29176,1.72763 -0.56414,0.68165 -1.08125,1.49258 -1.55135,2.43279 -0.47011,0.94021 -0.79918,1.72763 -0.98722,2.36228 -0.18805,0.65814 -0.36433,1.33979 -0.52887,2.04495 l -1.86866,-0.0705 0.42309,-9.59013 c 0.0235,-0.58763 0.19979,-0.97547 0.52887,-1.16351 0.35257,-0.18804 0.85794,-0.32907 1.51609,-0.4231 1.99793,-0.23505 3.1967,-1.26928 3.5963,-3.10269 0.84618,-3.80784 1.50432,-7.34537 1.97444,-10.61261 0.47009,-3.26721 0.70514,-6.84 0.70515,-10.71838 -10e-6,-0.58761 -0.21156,-1.12823 -0.63464,-1.62186 -0.4231,-0.49358 -1.19877,-0.7874 -2.32702,-0.88145 l -1.93918,-0.14103 c -0.35258,3e-5 -0.52887,-0.12925 -0.52887,-0.38784 l 0,-1.5866 0.24681,-0.14103 c 3.73732,0.0941 6.01733,0.14106 6.84002,0.14103 l 15.09036,0 7.65095,-0.14103 0.0705,0.14103 0,1.44557 c -3e-5,0.14106 -0.0588,0.27034 -0.17628,0.38784 -0.0941,0.094 -0.19983,0.14106 -0.31732,0.14103 l -1.23403,0.14103 c -1.31632,0.14106 -2.19777,0.43488 -2.64434,0.88145 -0.44663,0.44662 -0.66993,1.28106 -0.6699,2.5033 l 0,19.9912 c -3e-5,2.04496 0.96369,3.23197 2.89115,3.56104 0.68161,0.11753 1.15172,0.28207 1.41031,0.49361 0.25852,0.18805 0.3878,0.52887 0.38784,1.02248 l 0.42309,9.66065 -1.79815,0 c -0.14106,-0.68166 -0.32911,-1.37506 -0.56412,-2.08021 -0.21158,-0.70517 -0.55241,-1.50434 -1.02248,-2.39754 -0.47014,-0.8932 -1.01076,-1.68062 -1.62186,-2.36227 -0.58766,-0.65815 -1.36333,-1.22228 -2.32702,-1.69238 -0.96374,-0.4701 -2.00972,-0.70516 -3.13795,-0.70516 l -12.41076,0"
         id="path3232" />
      <path
         d="m 444.71632,445.88714 0,25.63245 c -10e-6,1.05774 0.23504,1.84517 0.70516,2.36228 0.47009,0.49361 1.26927,0.79918 2.39753,0.9167 l 1.37506,0.14103 c 0.44658,0.094 0.66988,0.28207 0.6699,0.56413 l 0,1.37505 -0.17629,0.14104 c -3.31425,-0.094 -5.91158,-0.14104 -7.79198,-0.14104 l -7.43941,0.14104 -0.14103,-0.14104 0,-1.37505 c 0,-0.30557 0.19979,-0.49361 0.59938,-0.56413 l 1.37506,-0.14103 c 1.12824,-0.11752 1.92742,-0.42309 2.39753,-0.9167 0.4701,-0.51711 0.70515,-1.30454 0.70516,-2.36228 l 0,-20.34377 c -10e-6,-1.0107 -0.23506,-1.75111 -0.70516,-2.22125 -0.4466,-0.49358 -1.24578,-0.8109 -2.39753,-0.95196 l -1.37506,-0.14103 c -0.39959,-0.0705 -0.59938,-0.27028 -0.59938,-0.59938 l 0,-1.37506 0.14103,-0.14103 c 3.29073,0.0941 5.77053,0.14106 7.43941,0.14103 l 2.67959,-0.14103 0.14103,0.14103 m -6.84002,-10.15426 c -1e-5,-0.98718 0.32907,-1.80986 0.98722,-2.46805 0.68164,-0.6816 1.50433,-1.02243 2.46805,-1.02247 0.9402,4e-5 1.75113,0.34087 2.43279,1.02247 0.68164,0.65819 1.02246,1.48087 1.02248,2.46805 -2e-5,0.94025 -0.34084,1.73943 -1.02248,2.39754 -0.68166,0.65818 -1.49259,0.98725 -2.43279,0.98721 -0.96372,4e-5 -1.78641,-0.32903 -2.46805,-0.98721 -0.65815,-0.65811 -0.98723,-1.45729 -0.98722,-2.39754"
         id="path3234" />
      <path
         d="m 464.00238,471.90743 c -1e-5,0.56413 0.10576,1.04598 0.31732,1.44557 0.23504,0.37609 0.56411,0.6699 0.98722,0.88145 0.42308,0.21155 0.81091,0.36433 1.16351,0.45835 0.37607,0.094 0.81091,0.17629 1.30454,0.2468 0.37606,0.094 0.56411,0.28207 0.56412,0.56413 l 0,1.37505 -0.14103,0.14104 c -2.79713,-0.094 -5.12415,-0.14104 -6.98105,-0.14104 l -7.43941,0.14104 -0.14103,-0.14104 0,-1.37505 c 0,-0.30557 0.18804,-0.49361 0.56413,-0.56413 l 1.37505,-0.14103 c 1.24578,-0.16453 2.06846,-0.4466 2.46805,-0.84619 0.42309,-0.42309 0.63464,-1.15175 0.63464,-2.18598 l 0,-20.59058 c 0,-1.0107 -0.23506,-1.76287 -0.70515,-2.2565 -0.47011,-0.51709 -1.26929,-0.82266 -2.39754,-0.91671 l -1.37505,-0.14103 c -0.37609,-0.0705 -0.56413,-0.27028 -0.56413,-0.59938 l 0,-1.37506 0.14103,-0.14103 c 3.26723,0.0941 5.74702,0.14106 7.43941,0.14103 l 6.84002,-0.14103 0.14103,0.14103 0,1.23403 c -2e-5,0.18807 -0.0588,0.36436 -0.17629,0.52886 -0.11754,0.14106 -0.24682,0.21158 -0.38783,0.21155 -1.2458,0.11755 -2.1625,0.37611 -2.75012,0.77567 -0.58764,0.39962 -0.88145,1.1988 -0.88144,2.39754 l 0,8.21507 c 2.25649,2e-5 4.01938,-0.5641 5.28867,-1.69237 1.26927,-1.12823 2.327,-2.7971 3.17321,-5.00662 1.8804,-4.86555 4.24267,-7.29834 7.08683,-7.29837 2.49152,3e-5 3.7373,1.08127 3.73733,3.24372 -3e-5,0.70519 -0.29385,1.35158 -0.88145,1.93918 -0.58766,0.58766 -1.21055,0.88147 -1.86866,0.88145 -0.96375,2e-5 -1.68065,-0.23503 -2.15073,-0.70516 -0.3056,-0.35255 -0.78745,-0.52884 -1.44557,-0.52887 -0.35261,3e-5 -0.7757,0.36436 -1.26929,1.093 -0.49363,0.70518 -0.94023,1.62188 -1.33979,2.75011 -1.36333,3.9724 -3.31426,6.15839 -5.85281,6.55796 4.08989,1e-5 6.8165,1.65713 8.17982,4.97135 0.37606,0.86971 0.77565,1.75115 1.19877,2.64434 0.44657,0.8697 0.97544,1.84517 1.5866,2.9264 0.63462,1.05774 1.29276,1.93919 1.97444,2.64434 0.68162,0.70516 1.32802,1.10475 1.93918,1.19877 l 0.59939,0.0705 c 0.51708,0 0.77564,0.21155 0.77567,0.63464 l 0,1.30454 -0.21155,0.14104 -5.1829,-0.0705 c -2.77364,-0.047 -5.08891,-2.78537 -6.9458,-8.21508 -0.3761,-1.10473 -0.76394,-2.00968 -1.1635,-2.71485 -0.37611,-0.72865 -0.88147,-1.42206 -1.51609,-2.08021 -0.61115,-0.65814 -1.38683,-1.15175 -2.32702,-1.48083 -0.94022,-0.35257 -2.06847,-0.57587 -3.38475,-0.6699 l 0,10.119"
         id="path3236" />
    </g>
    <g
       transform="scale(1.0156386,0.98460217)"
       id="text3062"
       style="font-size:49.99693298px;font-style:italic;font-variant:normal;font-weight:normal;font-stretch:normal;fill:#808080;fill-opacity:1;stroke:none;font-family:Linux Libertine;-inkscape-font-specification:Andale Mono Italic">
      <path
         d="m 191.81513,517.99576 c -0.30923,0.39061 -0.46384,0.77307 -0.46383,1.1474 -1e-5,0.69982 0.71609,1.04974 2.1483,1.04974 l 1.46475,0 c 0.19529,0 0.29294,0.1302 0.29296,0.3906 l -0.14648,0.95209 -0.0976,0.0977 c -3.30384,-0.0651 -5.3545,-0.0977 -6.15197,-0.0977 l -4.49191,0.0977 -0.12206,-0.0977 0.21971,-0.95209 c 0.0488,-0.2604 0.1953,-0.3906 0.43943,-0.3906 l 0.61031,0 c 0.9765,0 1.76584,-0.21158 2.36802,-0.63473 0.61845,-0.43942 1.19621,-1.11484 1.73329,-2.02624 l 16.47848,-27.34208 c 0.69981,-1.13922 1.25316,-1.70884 1.66006,-1.70888 0.42313,4e-5 0.73235,0.1221 0.92768,0.36619 0.19527,0.22789 0.36616,0.67545 0.51266,1.34269 l 5.46841,27.09795 c 0.19527,1.00906 0.52891,1.74957 1.00092,2.22154 0.48822,0.45571 1.22059,0.68356 2.19713,0.68356 l 0.53708,0 c 0.0976,0 0.18713,0.0407 0.26854,0.12206 0.0976,0.0814 0.14644,0.17089 0.14647,0.26854 l -0.14647,0.95209 -0.21972,0.0977 c -2.49011,-0.0651 -4.38615,-0.0977 -5.68813,-0.0977 l -6.71345,0.0977 -0.0977,-0.0977 0.21971,-0.95209 c 0.0488,-0.2604 0.19528,-0.3906 0.43943,-0.3906 l 1.39151,0 c 0.79746,0 1.43218,-0.13834 1.90418,-0.41502 0.47195,-0.27667 0.70794,-0.69169 0.70797,-1.24504 -3e-5,-0.22785 -0.0163,-0.40687 -0.0488,-0.53708 l -1.70888,-8.61763 -10.4974,0 c -0.97651,10e-6 -1.64379,0.28482 -2.00183,0.85444 l -4.54074,7.76319 m 7.78761,-10.57064 8.91059,0 -2.56332,-13.32926 -7.39701,12.45041 c -0.0977,0.19532 -0.14649,0.34179 -0.14647,0.43943 -2e-5,0.29296 0.39872,0.43944 1.19621,0.43942"
         id="path3197" />
      <path
         d="m 242.12943,519.48493 c 1.12295,0 2.38427,-0.81375 3.78395,-2.44126 1.39962,-1.64377 3.09223,-4.15012 5.07781,-7.51907 l 2.19713,-9.44766 c 0.63469,2e-5 1.88787,-0.13018 3.75954,-0.3906 l -3.71071,15.5508 c -0.35809,1.66006 -0.53711,2.79118 -0.53708,3.39335 -3e-5,0.24413 0.0732,0.42315 0.21972,0.53708 0.14644,0.11393 0.28477,0.17089 0.41501,0.17089 0.32546,0 0.69165,-0.22785 1.09856,-0.68356 0.40684,-0.45569 0.99274,-1.24503 1.75771,-2.36801 l 0.95209,0.80561 c -1.90422,3.32011 -3.92232,4.98016 -6.05432,4.98016 -0.78123,0 -1.33458,-0.21971 -1.66005,-0.65914 -0.32553,-0.4557 -0.48828,-0.98464 -0.48825,-1.58681 -3e-5,-0.74865 0.16272,-1.79839 0.48825,-3.14922 l 0.80561,-2.78304 -0.1953,-0.0977 c -0.65103,0.97651 -1.13114,1.68448 -1.44034,2.1239 -0.30925,0.43943 -0.73241,1.02533 -1.26945,1.7577 -0.53711,0.73238 -0.97653,1.26132 -1.31828,1.58682 -0.32553,0.3255 -0.74868,0.7161 -1.26945,1.1718 -0.50456,0.43943 -0.97653,0.74865 -1.41593,0.92768 -0.43945,0.17902 -0.95212,0.34177 -1.53799,0.48825 -0.56965,0.14647 -1.17183,0.21971 -1.80653,0.21971 -0.3418,0 -0.67544,-0.0651 -1.00092,-0.1953 -0.30925,-0.11392 -0.64288,-0.31736 -1.00091,-0.61031 -0.3418,-0.30923 -0.61848,-0.78934 -0.83003,-1.44034 -0.2116,-0.651 -0.31738,-1.4322 -0.31736,-2.34361 -2e-5,-0.55335 0.0895,-1.25317 0.26853,-2.09948 -0.84632,1.07416 -1.57869,1.96115 -2.19713,2.66097 -0.60219,0.68355 -1.29388,1.36711 -2.07507,2.05066 -0.78121,0.66727 -1.57055,1.16366 -2.36801,1.48916 -0.79749,0.3255 -1.61938,0.48825 -2.46567,0.48825 -0.89514,0 -1.68448,-0.37432 -2.36802,-1.12298 -0.68356,-0.76492 -1.02534,-1.92045 -1.02533,-3.46658 -1e-5,-0.87885 0.14647,-2.00996 0.43943,-3.39335 l 1.90418,-8.10497 c 0.32549,-1.52983 0.48824,-2.51447 0.48825,-2.95392 -10e-6,-0.22783 -0.0732,-0.39872 -0.21972,-0.51266 -0.1302,-0.11391 -0.25227,-0.17087 -0.36618,-0.17089 -0.48826,2e-5 -1.45663,0.96025 -2.9051,2.88068 l -1.09856,-0.85444 c 1.20434,-1.77396 2.31104,-3.01086 3.3201,-3.71071 1.00905,-0.71608 2.03437,-1.07413 3.07599,-1.07415 0.76491,2e-5 1.30199,0.22787 1.61123,0.68355 0.32548,0.45572 0.48823,0.9928 0.48825,1.61123 -2e-5,0.78122 -0.17904,2.01812 -0.53708,3.71071 l -1.90418,8.12939 c -0.34178,1.41593 -0.51267,2.50636 -0.51266,3.27128 -1e-5,0.84631 0.17901,1.49731 0.53707,1.953 0.35804,0.45571 0.79747,0.68356 1.31828,0.68356 0.83002,0 1.78211,-0.5208 2.85627,-1.56241 1.09041,-1.0416 2.66909,-3.00274 4.73604,-5.88343 l 2.7098,-11.44949 3.39334,-1.24504 0.24413,0.5859 -3.05157,13.86634 c -0.26043,1.13926 -0.39063,2.15645 -0.3906,3.05157 -3e-5,1.66006 0.46381,2.49008 1.39151,2.49008"
         id="path3199" />
      <path
         d="m 270.03299,520.48585 c 1.51357,0 2.93763,-0.83003 4.2722,-2.49009 1.35081,-1.67632 2.02622,-3.7107 2.02624,-6.10314 -2e-5,-1.07414 -0.21973,-1.9123 -0.65914,-2.51449 -0.42316,-0.60216 -0.9521,-0.90325 -1.58681,-0.90327 -1.04162,2e-5 -2.44127,0.78936 -4.19896,2.36802 -1.80654,1.57869 -2.70981,3.66189 -2.7098,6.24962 -10e-6,1.02533 0.26853,1.84722 0.80562,2.46567 0.53706,0.61845 1.22061,0.92768 2.05065,0.92768 m -0.3906,-14.89167 -1.09856,4.58956 0.0976,0 c 1.48101,-1.39964 2.89694,-2.47379 4.24778,-3.22245 1.36709,-0.74864 2.54703,-1.12297 3.53982,-1.12298 1.15551,1e-5 2.07505,0.48013 2.75862,1.44034 0.69981,0.94396 1.04972,2.11577 1.04974,3.51541 -2e-5,2.03439 -0.61033,3.9467 -1.83094,5.73695 -1.20437,1.77398 -2.7505,3.1655 -4.63839,4.17455 -1.87164,0.99278 -3.80023,1.48917 -5.78577,1.48917 -1.28574,0 -2.36803,-0.36619 -3.24687,-1.09857 -0.86259,-0.74865 -1.29388,-1.78211 -1.29387,-3.1004 -1e-5,-0.71609 0.11392,-1.57053 0.34178,-2.56331 l 2.24595,-9.88709 c 0.21157,-0.97649 0.31736,-1.62749 0.31736,-1.95301 0,-0.71608 -0.25227,-1.09855 -0.75678,-1.14739 l -2.09949,-0.21971 0.14648,-1.19622 c 3.3201,-0.48823 5.75322,-1.00089 7.29936,-1.53799 0.13018,2e-5 0.19528,0.0489 0.1953,0.14648 -0.60219,2.26225 -1.09858,4.2478 -1.48917,5.95666 m 15.18462,-0.0976 c 0.37429,-1.39963 0.56146,-2.68536 0.56149,-3.85718 -3e-5,-0.50451 -0.0489,-1.00904 -0.14648,-1.51358 l 0.14648,-0.0976 c 0.26037,0.0651 0.84627,0.0977 1.7577,0.0976 0.73235,2e-5 1.5461,-0.16273 2.44126,-0.48825 l -1.04974,4.80927 -3.00275,12.84101 c -0.0977,0.53708 -0.1465,1.00092 -0.14647,1.39152 -3e-5,0.30922 0.0488,0.52894 0.14647,0.65914 0.0976,0.1302 0.28479,0.1953 0.56149,0.1953 1.0253,0 2.23779,-0.76493 3.63747,-2.29478 l 0.80562,0.85443 c -0.84634,1.09044 -1.79029,2.05066 -2.83186,2.88069 -1.02536,0.81375 -1.98558,1.22063 -2.88068,1.22063 -2.03441,0 -3.0516,-0.91954 -3.05157,-2.75862 -3e-5,-0.47198 0.0569,-0.93582 0.17088,-1.39152 l 2.88069,-12.54806"
         id="path3201" />
      <path
         d="m 296.03237,517.99576 3.2957,-14.40341 c 0.0976,-0.37431 0.14646,-0.65912 0.14647,-0.85444 -10e-6,-0.43941 -0.13834,-0.75677 -0.41501,-0.95209 -0.27668,-0.19528 -0.73238,-0.29293 -1.3671,-0.29295 l -0.41502,0 c -0.24413,2e-5 -0.34178,-0.13832 -0.29295,-0.41501 l 0.24413,-0.95209 0.0976,-0.0976 c 1.87162,0.0651 3.40961,0.0977 4.61397,0.0976 l 4.83369,-0.0976 0.12206,0.0976 -0.26854,0.95209 c -0.0488,0.27669 -0.21159,0.41503 -0.48825,0.41501 l -0.41501,0 c -0.79749,2e-5 -1.39153,0.16277 -1.78212,0.48825 -0.39061,0.32552 -0.67542,0.8626 -0.85444,1.61123 l -1.34269,5.78578 0.95209,0 c 1.54612,10e-6 2.89694,-0.32549 4.05249,-0.9765 1.15551,-0.66727 2.4982,-2.02623 4.02807,-4.0769 1.18806,-1.51356 2.25407,-2.62026 3.19805,-3.32011 0.9602,-0.71608 1.87974,-1.07413 2.75862,-1.07415 1.43217,2e-5 2.14827,0.48827 2.1483,1.46475 -3e-5,0.13022 -0.0326,0.29297 -0.0976,0.48825 -0.0977,0.52082 -0.37435,0.97652 -0.83003,1.36711 -0.45572,0.39061 -0.97652,0.58591 -1.5624,0.5859 -0.37435,1e-5 -0.83819,-0.0651 -1.39152,-0.1953 -0.5371,-0.13019 -0.8626,-0.19529 -0.9765,-0.1953 -0.19532,1e-5 -0.43945,0.12208 -0.73237,0.36618 -0.2767,0.22787 -0.51269,0.46386 -0.70797,0.70797 -0.17905,0.22787 -0.46386,0.58592 -0.85444,1.07415 -1.00907,1.30202 -2.05881,2.37617 -3.14922,3.22246 -1.07417,0.83004 -2.07508,1.30202 -3.00275,1.41593 1.10669,10e-6 2.12388,0.3011 3.05158,0.90326 0.92765,0.58592 1.49728,1.44849 1.70887,2.58774 0.0976,0.60218 0.2197,1.22063 0.36619,1.85535 0.14646,0.61846 0.34176,1.31015 0.5859,2.07507 0.26038,0.74865 0.57775,1.35897 0.95209,1.83094 0.39058,0.47198 0.8056,0.70797 1.24505,0.70797 0.92765,0 1.39149,0.27667 1.39151,0.83002 -2e-5,0.11393 -0.0163,0.18717 -0.0488,0.21972 l -1.29387,6.73786 -1.14739,0 c 0.0651,-0.5208 0.0976,-0.93582 0.0977,-1.24504 -2e-5,-1.1067 -0.17091,-2.08321 -0.51266,-2.9295 -0.32553,-0.84631 -0.85446,-1.38338 -1.58682,-1.61123 -1.7089,-0.53708 -2.82374,-2.62028 -3.34452,-6.24962 -0.0977,-0.55335 -0.17904,-0.95208 -0.24413,-1.19622 -0.0488,-0.26039 -0.14649,-0.60217 -0.29295,-1.02532 -0.13021,-0.43942 -0.27669,-0.75679 -0.43942,-0.95209 -0.14649,-0.1953 -0.35807,-0.42315 -0.63473,-0.68356 -0.27669,-0.27666 -0.59405,-0.46382 -0.95209,-0.56149 -0.35807,-0.11391 -0.79749,-0.21156 -1.31828,-0.29295 -0.52081,-0.0976 -1.11485,-0.14646 -1.78212,-0.14647 l -1.58681,6.90875 c -0.0977,0.34178 -0.14649,0.61846 -0.14648,0.83003 -1e-5,0.91141 0.57776,1.36711 1.73329,1.36711 l 0.46384,0 c 0.24412,0 0.34177,0.1302 0.29295,0.3906 l -0.1953,0.95209 -0.0976,0.0977 c -1.93674,-0.0651 -3.5561,-0.0977 -4.8581,-0.0977 l -4.58956,0.0977 -0.0976,-0.0977 0.1953,-0.95209 c 0.0976,-0.2604 0.2604,-0.3906 0.48825,-0.3906 l 0.41501,0 c 0.7812,0 1.3671,-0.17903 1.75771,-0.53708 0.40687,-0.35805 0.69982,-0.9114 0.87885,-1.66006"
         id="path3203" />
      <path
         d="m 338.53465,522.07266 c -1.02533,0 -1.96115,-0.2604 -2.80744,-0.7812 -0.83004,-0.53707 -1.48917,-1.21249 -1.97742,-2.02624 -0.48826,-0.83003 -0.86258,-1.68447 -1.12298,-2.56332 -0.2604,-0.89512 -0.3906,-1.74956 -0.3906,-2.56332 0,-2.0181 0.31736,-3.93041 0.95209,-5.73695 0.651,-1.82279 1.4973,-3.36892 2.53891,-4.63839 1.04159,-1.26944 2.24594,-2.27035 3.61306,-3.00275 1.36709,-0.74863 2.76674,-1.12295 4.19896,-1.12297 0.91138,2e-5 1.70886,0.11394 2.39243,0.34177 0.69981,0.2116 1.25316,0.48827 1.66005,0.83003 0.40686,0.32552 0.73236,0.71612 0.97651,1.1718 0.26038,0.45572 0.43126,0.88701 0.51266,1.29387 0.0976,0.40689 0.14645,0.83004 0.14648,1.26945 -3e-5,0.73239 -0.25229,1.29388 -0.75679,1.68447 -0.50455,0.37434 -0.96839,0.5615 -1.39152,0.56149 -0.61847,1e-5 -1.07417,-0.1546 -1.3671,-0.46384 -0.2767,-0.30921 -0.41503,-0.69167 -0.41502,-1.14739 -10e-6,-0.48824 0.0814,-0.83815 0.24413,-1.04974 0.16273,-0.21156 0.24411,-0.52892 0.24412,-0.95209 -1e-5,-0.71609 -0.22786,-1.22875 -0.68355,-1.53799 -0.45572,-0.30921 -0.92769,-0.46382 -1.41593,-0.46384 -2.01812,2e-5 -3.75141,1.08231 -5.19987,3.24687 -1.43222,2.16459 -2.14832,5.03714 -2.14831,8.61763 -10e-6,1.41594 0.10578,2.60402 0.31737,3.56424 0.22784,0.96023 0.53706,1.66819 0.92767,2.12389 0.40687,0.43943 0.80561,0.74052 1.19622,0.90327 0.39059,0.16275 0.83001,0.24412 1.31828,0.24412 2.14829,0 4.09315,-1.04974 5.8346,-3.14922 l 0.90326,0.75679 c -0.29296,0.42316 -0.54523,0.77307 -0.75678,1.04974 -0.19532,0.2604 -0.56151,0.64287 -1.09857,1.14739 -0.52082,0.48825 -1.04976,0.88699 -1.58682,1.19622 -0.53709,0.30922 -1.23691,0.5859 -2.09948,0.83002 -0.86259,0.24413 -1.78213,0.36619 -2.75862,0.36619"
         id="path3205" />
      <path
         d="m 355.62345,513.08884 c -10e-6,1.51359 0.13019,2.78304 0.3906,3.80836 0.26039,1.02533 0.61031,1.77398 1.04974,2.24596 0.45569,0.4557 0.88698,0.77306 1.29387,0.95209 0.40686,0.16275 0.84629,0.24412 1.31828,0.24412 0.76491,0 1.48101,-0.17089 2.1483,-0.51266 0.66726,-0.35805 1.23689,-0.81375 1.70888,-1.36711 0.47196,-0.55334 0.89511,-1.21248 1.26945,-1.97741 0.37431,-0.76493 0.6754,-1.51358 0.90327,-2.24596 0.24411,-0.74864 0.44754,-1.52985 0.61031,-2.34361 -1.25319,0.48826 -2.25411,0.73239 -3.00274,0.73238 -0.71612,10e-6 -1.58683,-0.22784 -2.61215,-0.68355 -1.02534,-0.47197 -1.79026,-0.70796 -2.29478,-0.70797 -0.19531,1e-5 -0.61846,0.057 -1.26945,0.17089 -0.65101,0.11394 -1.02534,0.1709 -1.12298,0.17089 -0.22786,10e-6 -0.29296,-0.21157 -0.1953,-0.63473 0.0651,-0.37431 0.73237,-0.76491 2.00183,-1.1718 1.28572,-0.42314 2.43311,-0.63471 3.44217,-0.63473 0.69981,2e-5 1.50543,0.1709 2.41685,0.51267 0.91138,0.32551 1.66003,0.48826 2.24595,0.48825 0.29293,10e-6 0.50451,-0.0163 0.63473,-0.0488 0.0976,-0.79746 0.14646,-1.46474 0.14647,-2.00183 -10e-6,-0.53706 -0.008,-0.94393 -0.0244,-1.22063 -2e-5,-0.27666 -0.0163,-0.66726 -0.0488,-1.1718 -0.0163,-0.50451 -0.0651,-0.89511 -0.14648,-1.1718 -0.0651,-0.27666 -0.15463,-0.6103 -0.26854,-1.00092 -0.11394,-0.40685 -0.26855,-0.71608 -0.46384,-0.92767 -0.19531,-0.22784 -0.42316,-0.44755 -0.68355,-0.65914 -0.26042,-0.22783 -0.58592,-0.39058 -0.9765,-0.48825 -0.37434,-0.0976 -0.79749,-0.14646 -1.26945,-0.14648 -1.09045,2e-5 -2.06695,0.26856 -2.92951,0.80561 -0.86259,0.5371 -1.55428,1.22065 -2.07507,2.05066 -0.52081,0.81377 -0.9521,1.76586 -1.29387,2.85627 -0.34178,1.09044 -0.57777,2.13204 -0.70796,3.12481 -0.13021,0.99279 -0.19531,1.97743 -0.1953,2.95392 m -4.19896,0.3906 c -10e-6,-1.23689 0.15461,-2.48193 0.46384,-3.73512 0.30922,-1.26944 0.79747,-2.50634 1.46475,-3.71071 0.68355,-1.22061 1.48916,-2.3029 2.41685,-3.24687 0.94394,-0.94394 2.09947,-1.70072 3.46658,-2.27037 1.38337,-0.58588 2.88067,-0.87883 4.49191,-0.87885 1.17179,2e-5 2.19711,0.17091 3.07598,0.51266 0.87884,0.3418 1.56239,0.77308 2.05066,1.29387 0.48823,0.50454 0.87883,1.13927 1.1718,1.90418 0.30921,0.74867 0.50451,1.46477 0.5859,2.1483 0.0976,0.68357 0.14646,1.43222 0.14648,2.24596 -2e-5,2.55519 -0.58592,4.94762 -1.7577,7.17729 -1.15555,2.21341 -2.68541,3.96298 -4.58957,5.2487 -1.88792,1.26946 -3.88975,1.90418 -6.00549,1.90418 -1.20436,0 -2.2541,-0.21971 -3.14922,-0.65914 -0.89513,-0.43942 -1.57868,-0.96022 -2.05065,-1.5624 -0.47199,-0.61845 -0.85445,-1.35083 -1.14739,-2.19713 -0.27668,-0.86257 -0.45571,-1.60309 -0.53708,-2.22154 -0.0651,-0.63472 -0.0977,-1.28573 -0.0976,-1.95301"
         id="path3207" />
      <path
         d="m 376.78914,517.43428 c 0,0.0814 -0.008,0.18716 -0.0244,0.31736 -0.0163,0.1302 -0.0244,0.24413 -0.0244,0.34177 -1e-5,0.76493 0.26853,1.37525 0.80561,1.83095 0.55334,0.43942 1.3671,0.65914 2.44126,0.65914 1.52984,0 2.92136,-0.61032 4.17455,-1.83095 1.25316,-1.2369 1.87975,-2.77489 1.87976,-4.61397 -10e-6,-0.96022 -0.22786,-1.74956 -0.68355,-2.36802 -0.45571,-0.61844 -1.11485,-0.92767 -1.97742,-0.92768 l -3.00274,0 c -0.32551,1e-5 -0.48826,-0.20342 -0.48825,-0.61031 -1e-5,-0.30922 0.0895,-0.57775 0.26854,-0.80562 0.19529,-0.22783 0.39872,-0.34176 0.61031,-0.34177 l 1.85536,0 c 1.64376,1e-5 2.97831,-0.52079 4.00366,-1.56241 1.04158,-1.05786 1.56238,-2.1727 1.5624,-3.34452 -2e-5,-0.97648 -0.37434,-1.73327 -1.12298,-2.27037 -0.74867,-0.55333 -1.57869,-0.83 -2.49008,-0.83002 -1.70889,2e-5 -3.11668,0.51268 -4.22337,1.53799 -1.10672,1.00907 -2.06694,2.44941 -2.88069,4.32102 l -1.19621,-0.24412 c 0.89512,-2.31104 1.57867,-4.51631 2.05065,-6.61581 1.59495,2e-5 2.87254,-0.0976 3.83278,-0.29295 0.96021,-0.19528 1.98554,-0.29293 3.07598,-0.29295 0.69981,2e-5 1.37522,0.0733 2.02624,0.21971 0.66726,0.13023 1.30199,0.34994 1.90418,0.65914 0.61843,0.30925 1.11482,0.75681 1.48917,1.34269 0.3743,0.56965 0.56147,1.24506 0.56149,2.02625 -2e-5,0.79749 -0.18719,1.57055 -0.56149,2.31919 -0.35807,0.73239 -0.81377,1.34271 -1.3671,1.83094 -0.5371,0.47199 -1.0579,0.86259 -1.56241,1.17181 -0.48827,0.30923 -0.93583,0.52081 -1.34269,0.63472 0.27666,0.0326 0.57775,0.13021 0.90327,0.29295 0.34175,0.16277 0.69167,0.39875 1.04974,0.70797 0.35803,0.29296 0.65098,0.72425 0.87885,1.29386 0.2441,0.55336 0.36617,1.17182 0.36619,1.85536 -2e-5,0.69983 -0.11395,1.41593 -0.34178,2.1483 -0.22787,0.73239 -0.61033,1.4729 -1.14739,2.22155 -0.52082,0.74865 -1.16368,1.41593 -1.92859,2.00183 -0.76495,0.5859 -1.74145,1.05788 -2.92951,1.41593 -1.17182,0.37432 -2.47382,0.56149 -3.90601,0.56149 -1.79026,0 -3.19805,-0.35806 -4.22337,-1.07416 -1.00906,-0.73237 -1.51359,-1.67632 -1.51358,-2.83185 -10e-6,-0.8463 0.19529,-1.44848 0.5859,-1.80653 0.40687,-0.35805 0.80561,-0.53708 1.19621,-0.53708 0.94395,0 1.41593,0.49639 1.41593,1.48917"
         id="path3209" />
      <path
         d="m 409.94141,504.32473 c -2e-5,-0.55334 -0.13022,-1.03345 -0.3906,-1.44034 -0.26042,-0.40686 -0.6022,-0.70795 -1.02533,-0.90327 -0.4069,-0.21155 -0.81377,-0.35803 -1.22063,-0.43942 -0.40689,-0.0976 -0.81377,-0.14646 -1.22063,-0.14648 -0.84632,2e-5 -1.70889,0.28483 -2.58773,0.85444 -0.86259,0.56965 -1.66007,1.36712 -2.39243,2.39243 -0.73239,1.02535 -1.33457,2.35176 -1.80653,3.97925 -0.45571,1.62752 -0.6917,3.40149 -0.70797,5.32194 0,1.77398 0.31736,3.24687 0.95209,4.41867 0.651,1.15553 1.54612,1.7333 2.68539,1.7333 1.15551,0 2.20525,-0.46384 3.14922,-1.39152 0.94393,-0.92767 1.68445,-2.05065 2.22154,-3.36894 0.55333,-1.31827 1.01717,-2.75047 1.39152,-4.29661 0.3743,-1.54611 0.62657,-2.88067 0.75679,-4.00366 0.13018,-1.13923 0.19528,-2.0425 0.1953,-2.70979 m -2.7098,-4.83369 c 1.44846,2e-5 2.54703,0.30111 3.2957,0.90327 0.0813,-0.30921 0.12204,-0.73236 0.12206,-1.26946 -2e-5,-2.47378 -0.7975,-4.28845 -2.39243,-5.444 -0.7975,-0.58587 -2.22156,-1.2206 -4.2722,-1.90418 -0.58591,-0.19527 -0.96838,-0.32547 -1.14739,-0.3906 -2.00184,-0.68352 -3.00276,-2.08317 -3.00275,-4.19896 -1e-5,-0.50449 0.0651,-0.75676 0.1953,-0.75679 l 0.0488,0 c 0.60217,0.34181 1.43219,0.708 2.49008,1.09856 1.05787,0.37436 1.96927,0.71614 2.73421,1.02533 0.76491,0.29298 1.6519,0.87889 2.66097,1.75771 1.02531,0.8626 1.96926,1.96931 2.83186,3.3201 1.95298,2.94581 2.95389,6.41239 3.00274,10.39976 -2e-5,3.01089 -0.5371,5.86716 -1.61123,8.56881 -1.0579,2.70166 -2.39245,4.77673 -4.00366,6.2252 -0.58592,0.55336 -1.08231,0.98464 -1.48916,1.29387 -0.4069,0.30922 -0.91956,0.651 -1.538,1.02533 -0.61846,0.35805 -1.30201,0.61845 -2.05065,0.7812 -0.73239,0.17902 -1.538,0.26854 -2.41685,0.26854 -1.05788,0 -1.9937,-0.21158 -2.80744,-0.63473 -0.81376,-0.42315 -1.46476,-1.00092 -1.95301,-1.73329 -0.47198,-0.74865 -0.83003,-1.57054 -1.07415,-2.46567 -0.24413,-0.89512 -0.36619,-1.85535 -0.36619,-2.88068 0,-2.9295 0.73237,-5.59861 2.19713,-8.00733 1.46475,-2.40868 3.19804,-4.15825 5.19988,-5.2487 2.13202,-1.1555 3.91413,-1.73327 5.34635,-1.73329"
         id="path3211" />
      <path
         d="m 426.6396,490.6781 c 0.58589,4e-5 1.07414,0.1872 1.46475,0.56149 0.39059,0.35808 0.58589,0.8382 0.5859,1.44034 -10e-6,0.74868 -0.27669,1.39969 -0.83002,1.95301 -0.53709,0.5371 -1.16368,0.80564 -1.87977,0.80561 -0.63474,3e-5 -1.1474,-0.18713 -1.53799,-0.56148 -0.37434,-0.39058 -0.5615,-0.87069 -0.56149,-1.44035 -1e-5,-0.71607 0.26039,-1.35079 0.7812,-1.90418 0.53707,-0.56959 1.1962,-0.8544 1.97742,-0.85444 m -1.24504,14.91608 -2.24596,9.78944 c -0.40688,1.79026 -0.61032,2.87255 -0.61031,3.24687 -1e-5,0.17903 0.0488,0.33364 0.14647,0.46384 0.11392,0.11393 0.21157,0.18717 0.29295,0.21971 0.0814,0.0163 0.15461,0.0244 0.21972,0.0244 0.65099,0 1.66818,-0.91954 3.05157,-2.75862 l 1.14739,0.85444 c -1.22064,1.74143 -2.34362,2.95392 -3.36894,3.63747 -1.02533,0.66727 -2.10762,1.00091 -3.24687,1.00091 -0.76493,0 -1.31014,-0.21971 -1.63564,-0.65914 -0.30923,-0.4557 -0.46384,-0.98464 -0.46384,-1.58681 0,-0.7161 0.21971,-2.05065 0.65914,-4.00366 l 2.44126,-10.27769 c 0.21156,-0.97649 0.31735,-1.62749 0.31736,-1.95301 -10e-6,-0.71608 -0.25227,-1.09855 -0.75679,-1.14739 l -2.09948,-0.21971 0.14648,-1.19622 c 3.3201,-0.48823 5.75321,-1.00089 7.29935,-1.53799 0.13019,2e-5 0.19529,0.0489 0.1953,0.14648 -0.60219,2.26225 -1.09857,4.2478 -1.48916,5.95666"
         id="path3213" />
      <path
         d="m 450.46627,503.83648 c -0.55338,1e-5 -0.9928,-0.13832 -1.31828,-0.41502 -0.30925,-0.29293 -0.64289,-0.4394 -1.00092,-0.43942 -0.24414,2e-5 -0.59406,0.25228 -1.04974,0.75679 -0.43944,0.48827 -0.88701,1.12299 -1.34269,1.90418 -1.61124,2.78304 -3.32826,4.31289 -5.15105,4.58956 2.78302,10e-6 4.41866,1.16367 4.90693,3.491 0.1139,0.61845 0.2441,1.22063 0.3906,1.80653 0.14645,0.5859 0.34175,1.25318 0.5859,2.00183 0.26038,0.74865 0.57774,1.3671 0.95209,1.85535 0.3743,0.47198 0.78118,0.74052 1.22063,0.80562 l 0.34177,0.0488 c 0.34176,0.0651 0.51264,0.1953 0.51267,0.3906 l -0.26854,0.95209 -0.0976,0.0976 -3.44217,-0.0976 c -0.52082,-0.0163 -1.00907,-0.21157 -1.46476,-0.5859 -0.43944,-0.37432 -0.80563,-0.87071 -1.09856,-1.48917 -0.29297,-0.63472 -0.52896,-1.22876 -0.70797,-1.78211 -0.16276,-0.56963 -0.30924,-1.16366 -0.43942,-1.78212 -0.14649,-0.7812 -0.30111,-1.39965 -0.46384,-1.85536 -0.14649,-0.47196 -0.38248,-0.94394 -0.70797,-1.41592 -0.32551,-0.47197 -0.78121,-0.83002 -1.3671,-1.07416 -0.56964,-0.26039 -1.28574,-0.43128 -2.14831,-0.51266 l -2.19713,9.88709 -3.66188,1.22063 -0.24413,-0.61032 3.75954,-16.03905 c 0.19529,-0.89511 0.29294,-1.54612 0.29295,-1.95301 -1e-5,-0.71608 -0.25227,-1.09855 -0.75679,-1.14739 l -2.09948,-0.21971 0.14647,-1.19622 c 3.3201,-0.48823 5.75322,-1.00089 7.29936,-1.53799 0.14646,2e-5 0.2197,0.0489 0.21971,0.14648 -0.60218,2.26225 -1.10671,4.2478 -1.51357,5.95666 l -0.85444,3.78395 c 1.54611,-0.0163 2.84811,-0.42314 3.90601,-1.22063 1.07413,-0.81374 2.09132,-1.96926 3.05157,-3.46658 2.06691,-3.36892 4.10129,-5.05338 6.10314,-5.0534 1.43218,2e-5 2.14828,0.51268 2.1483,1.53799 -2e-5,0.76494 -0.2767,1.39967 -0.83002,1.90418 -0.5371,0.50454 -1.07418,0.7568 -1.61123,0.75679"
         id="path3215" />
    </g>
  </g>
</svg>
