<?xml version="1.0" encoding="UTF-8" standalone="no"?>
<svg
   xmlns:dc="http://purl.org/dc/elements/1.1/"
   xmlns:cc="http://creativecommons.org/ns#"
   xmlns:rdf="http://www.w3.org/1999/02/22-rdf-syntax-ns#"
   xmlns:svg="http://www.w3.org/2000/svg"
   xmlns="http://www.w3.org/2000/svg"
   xmlns:sodipodi="http://sodipodi.sourceforge.net/DTD/sodipodi-0.dtd"
   xmlns:inkscape="http://www.inkscape.org/namespaces/inkscape"
   version="1.1"
   id="svg3525"
   sodipodi:docname="Wiktionary-logo-my.svg"
   inkscape:version="0.48.2 r9819"
   x="0px"
   y="0px"
   width="391px"
   height="474px"
   viewBox="-10.5 -1 391 474"
   enable-background="new -10.5 -1 391 474"
   xml:space="preserve"><metadata
   id="metadata149"><rdf:RDF><cc:Work
       rdf:about=""><dc:format>image/svg+xml</dc:format><dc:type
         rdf:resource="http://purl.org/dc/dcmitype/StillImage" /></cc:Work></rdf:RDF></metadata><defs
   id="defs147" />
<sodipodi:namedview
   inkscape:cy="92.908355"
   inkscape:cx="185"
   inkscape:zoom="2.43"
   showgrid="false"
   guidetolerance="10"
   gridtolerance="10"
   objecttolerance="10"
   bordercolor="#666666"
   pagecolor="#ffffff"
   borderopacity="1"
   id="namedview3721"
   inkscape:current-layer="g3651"
   inkscape:window-maximized="0"
   inkscape:window-y="44"
   inkscape:window-x="134"
   inkscape:window-height="836"
   inkscape:window-width="1447"
   inkscape:pageopacity="0"
   inkscape:pageshadow="2">
	</sodipodi:namedview>
<g
   id="svg2047"
   sodipodi:docname="Wiktprintable_without_text.svg"
   inkscape:version="0.45.1"
   sodipodi:version="0.32"
   inkscape:output_extension="org.inkscape.output.svg.inkscape"
   sodipodi:docbase="C:\Upload\Images">
	
		<sodipodi:namedview
   inkscape:cy="175"
   inkscape:cx="185"
   inkscape:zoom="1.0771429"
   guidetolerance="10.0"
   gridtolerance="10.0"
   objecttolerance="10.0"
   bordercolor="#666666"
   pagecolor="#ffffff"
   borderopacity="1.0"
   id="base"
   inkscape:current-layer="svg2047"
   inkscape:window-y="28"
   inkscape:window-x="200"
   inkscape:window-height="573"
   inkscape:window-width="739"
   inkscape:pageopacity="0.0"
   inkscape:pageshadow="2">
		</sodipodi:namedview>
	<g
   id="layer1"
   transform="translate(-128.4431,-60.87543)">
		<g
   id="g1952"
   transform="translate(-7.311888,1.982351)">
			<path
   id="rect2525"
   fill="#E7C78D"
   stroke="#000000"
   stroke-width="1.0828"
   stroke-linecap="round"
   stroke-linejoin="round"
   d="     M179.751,93.81l71.106-8.025c5.026-0.567,9.768,4.43,10.59,11.161l7.875,64.495c0.822,6.731-2.586,12.648-7.613,13.215     l-71.106,8.025c-5.027,0.567-9.768-4.43-10.59-11.161l-7.876-64.495C171.316,100.293,174.725,94.377,179.751,93.81z" />
			<path
   id="rect3412"
   fill="#E7C78D"
   stroke="#000000"
   stroke-width="1.0828"
   stroke-linecap="round"
   stroke-linejoin="round"
   d="     M326.509,78.815l55.877,44.702c3.949,3.16,3.758,10.046-0.432,15.38l-40.124,51.104c-4.188,5.333-10.785,7.096-14.735,3.936     l-55.876-44.702c-3.95-3.16-3.757-10.046,0.431-15.38l40.125-51.104C315.962,77.417,322.56,75.655,326.509,78.815z" />
			<path
   id="rect3414"
   fill="#E7C78D"
   stroke="#000000"
   stroke-width="1.0828"
   stroke-linecap="round"
   stroke-linejoin="round"
   d="     M381.28,148.007l28.688-65.554c2.028-4.634,8.729-6.233,14.967-3.571l59.758,25.505c6.236,2.662,9.648,8.577,7.62,13.211     l-28.688,65.555c-2.028,4.634-8.729,6.233-14.966,3.571l-59.76-25.505C382.665,158.557,379.253,152.642,381.28,148.007z" />
			<path
   id="rect3416"
   fill="#E7C78D"
   stroke="#000000"
   stroke-width="1.0828"
   stroke-linecap="round"
   stroke-linejoin="round"
   d="     M169.156,185.569l70.588,11.734c4.99,0.83,8.184,6.933,7.132,13.632l-10.068,64.188c-1.051,6.7-5.948,11.459-10.938,10.629     l-70.588-11.733c-4.99-0.829-8.183-6.933-7.132-13.632l10.068-64.189C159.269,189.498,164.166,184.74,169.156,185.569z" />
			<path
   id="rect3418"
   fill="#E7C78D"
   stroke="#000000"
   stroke-width="1.0828"
   stroke-linecap="round"
   stroke-linejoin="round"
   d="     M297.159,183.688l61.497,36.587c4.349,2.587,5.104,9.434,1.688,15.293l-32.711,56.139c-3.414,5.859-9.705,8.513-14.053,5.927     l-61.496-36.588c-4.348-2.587-5.104-9.434-1.69-15.293l32.71-56.139C286.52,183.754,292.812,181.101,297.159,183.688z" />
			<path
   id="rect3420"
   fill="#E7C78D"
   stroke="#000000"
   stroke-width="1.0828"
   stroke-linecap="round"
   stroke-linejoin="round"
   d="     M384.849,179.152l70.594,11.704c4.99,0.827,8.188,6.929,7.14,13.629l-10.041,64.192c-1.049,6.701-5.943,11.461-10.937,10.634     l-70.593-11.704c-4.991-0.827-8.187-6.93-7.138-13.629l10.041-64.193C374.963,183.085,379.858,178.325,384.849,179.152z" />
			<path
   id="rect3422"
   fill="#E7C78D"
   stroke="#000000"
   stroke-width="1.0828"
   stroke-linecap="round"
   stroke-linejoin="round"
   d="     M178.135,321.788l60.746-37.821c4.294-2.674,10.724-0.201,14.36,5.522l34.843,54.842c3.637,5.725,3.104,12.531-1.19,15.205     l-60.746,37.82c-4.294,2.674-10.724,0.201-14.36-5.521l-34.843-54.842C173.308,331.268,173.841,324.461,178.135,321.788z" />
			<path
   id="rect3424"
   fill="#E7C78D"
   stroke="#000000"
   stroke-width="1.0828"
   stroke-linecap="round"
   stroke-linejoin="round"
   d="     M295.823,303.096l71.106-8.025c5.027-0.566,9.768,4.43,10.59,11.162l7.877,64.494c0.82,6.732-2.588,12.648-7.613,13.216     l-71.105,8.024c-5.026,0.568-9.768-4.43-10.59-11.16l-7.875-64.495C287.387,309.581,290.796,303.665,295.823,303.096z" />
			<path
   id="rect3426"
   fill="#E7C78D"
   stroke="#000000"
   stroke-width="1.0828"
   stroke-linecap="round"
   stroke-linejoin="round"
   d="     M398.962,287.463l71.438,4.113c5.052,0.29,8.881,6.017,8.553,12.792l-3.145,64.896c-0.328,6.773-4.688,12.027-9.736,11.736     l-71.438-4.111c-5.051-0.29-8.879-6.018-8.551-12.791l3.144-64.896C389.552,292.428,393.911,287.172,398.962,287.463z" />
			
				<linearGradient
   id="rect3428_1_"
   gradientUnits="userSpaceOnUse"
   x1="1055.1857"
   y1="-246.2085"
   x2="990.3085"
   y2="-176.9934"
   gradientTransform="matrix(0.9937 -0.1121 -0.1212 -0.9926 -818.3219 32.8419)">
				<stop
   offset="0"
   style="stop-color:#F4E3CA"
   id="stop13" />
				<stop
   offset="1"
   style="stop-color:#E9CC9D"
   id="stop15" />
			</linearGradient>
			
				<path
   id="rect3428"
   fill="url(#rect3428_1_)"
   stroke="#000000"
   stroke-width="1.0828"
   stroke-linecap="round"
   stroke-linejoin="round"
   d="     M180.411,85.917l71.106-8.025c5.027-0.567,9.768,4.43,10.59,11.161l7.875,64.495c0.822,6.731-2.587,12.648-7.613,13.216     l-71.106,8.025c-5.026,0.567-9.768-4.43-10.59-11.161l-7.875-64.495C171.975,92.401,175.384,86.485,180.411,85.917z" />
			
				<linearGradient
   id="rect3430_1_"
   gradientUnits="userSpaceOnUse"
   x1="1451.4279"
   y1="795.3589"
   x2="1383.6277"
   y2="797.8123"
   gradientTransform="matrix(0.7809 0.6247 0.6176 -0.7865 -1270.5575 -129.7579)">
				<stop
   offset="0"
   style="stop-color:#F4E3CA"
   id="stop19" />
				<stop
   offset="1"
   style="stop-color:#E9CC9D"
   id="stop21" />
			</linearGradient>
			
				<path
   id="rect3430"
   fill="url(#rect3430_1_)"
   stroke="#000000"
   stroke-width="1.0828"
   stroke-linecap="round"
   stroke-linejoin="round"
   d="     M327.168,70.923l55.876,44.702c3.951,3.16,3.758,10.046-0.43,15.38l-40.125,51.104c-4.188,5.333-10.785,7.096-14.734,3.936     l-55.877-44.702c-3.95-3.16-3.757-10.046,0.431-15.379l40.125-51.104C316.621,69.525,323.218,67.763,327.168,70.923z" />
			
				<linearGradient
   id="rect3432_1_"
   gradientUnits="userSpaceOnUse"
   x1="-129.3163"
   y1="-874.9028"
   x2="-86.4352"
   y2="-800.2936"
   gradientTransform="matrix(0.4009 -0.9161 -0.9197 -0.3925 -291.8454 -305.6174)">
				<stop
   offset="0"
   style="stop-color:#F4E3CA"
   id="stop25" />
				<stop
   offset="1"
   style="stop-color:#E9CC9D"
   id="stop27" />
			</linearGradient>
			
				<path
   id="rect3432"
   fill="url(#rect3432_1_)"
   stroke="#000000"
   stroke-width="1.0828"
   stroke-linecap="round"
   stroke-linejoin="round"
   d="     M381.939,140.115l28.689-65.554c2.027-4.634,8.729-6.233,14.965-3.571l59.759,25.505c6.237,2.662,9.649,8.577,7.621,13.211     l-28.688,65.554c-2.027,4.634-8.729,6.233-14.965,3.571l-59.761-25.505C383.323,150.664,379.911,144.75,381.939,140.115z" />
			
				<linearGradient
   id="rect3434_1_"
   gradientUnits="userSpaceOnUse"
   x1="1243.9865"
   y1="-44.1626"
   x2="1178.7594"
   y2="11.5288"
   gradientTransform="matrix(0.9865 0.164 0.155 -0.9879 -990.6924 17.2627)">
				<stop
   offset="0"
   style="stop-color:#F4E3CA"
   id="stop31" />
				<stop
   offset="1"
   style="stop-color:#E9CC9D"
   id="stop33" />
			</linearGradient>
			
				<path
   id="rect3434"
   fill="url(#rect3434_1_)"
   stroke="#000000"
   stroke-width="1.0828"
   stroke-linecap="round"
   stroke-linejoin="round"
   d="     M169.815,177.677l70.588,11.733c4.99,0.83,8.183,6.933,7.132,13.632l-10.069,64.189c-1.051,6.699-5.948,11.458-10.938,10.628     l-70.588-11.732c-4.99-0.83-8.183-6.934-7.132-13.633l10.068-64.189C159.927,181.606,164.824,176.847,169.815,177.677z" />
			
				<linearGradient
   id="rect3436_1_"
   gradientUnits="userSpaceOnUse"
   x1="1498.007"
   y1="490.8335"
   x2="1422.4391"
   y2="520.516"
   gradientTransform="matrix(0.8594 0.5113 0.5034 -0.864 -1202.7931 -76.1049)">
				<stop
   offset="0"
   style="stop-color:#F4E3CA"
   id="stop37" />
				<stop
   offset="1"
   style="stop-color:#E9CC9D"
   id="stop39" />
			</linearGradient>
			
				<path
   id="rect3436"
   fill="url(#rect3436_1_)"
   stroke="#000000"
   stroke-width="1.0828"
   stroke-linecap="round"
   stroke-linejoin="round"
   d="     M297.817,175.795l61.497,36.588c4.346,2.586,5.104,9.433,1.688,15.292l-32.711,56.139c-3.414,5.859-9.706,8.513-14.053,5.927     l-61.496-36.588c-4.347-2.587-5.104-9.434-1.689-15.293l32.71-56.139C287.178,175.862,293.47,173.208,297.817,175.795z" />
			
				<linearGradient
   id="rect3438_1_"
   gradientUnits="userSpaceOnUse"
   x1="1452.3253"
   y1="-0.6782"
   x2="1388.5325"
   y2="55.275"
   gradientTransform="matrix(0.9865 0.1636 0.1545 -0.988 -990.4346 17.3228)">
				<stop
   offset="0"
   style="stop-color:#F4E3CA"
   id="stop43" />
				<stop
   offset="1"
   style="stop-color:#E9CC9D"
   id="stop45" />
			</linearGradient>
			
				<path
   id="rect3438"
   fill="url(#rect3438_1_)"
   stroke="#000000"
   stroke-width="1.0828"
   stroke-linecap="round"
   stroke-linejoin="round"
   d="     M385.507,171.26l70.593,11.704c4.991,0.828,8.188,6.929,7.141,13.629l-10.042,64.193c-1.05,6.7-5.942,11.46-10.936,10.633     l-70.593-11.704c-4.991-0.827-8.187-6.929-7.14-13.629l10.043-64.193C375.621,175.193,380.517,170.433,385.507,171.26z" />
			
				<linearGradient
   id="rect3440_1_"
   gradientUnits="userSpaceOnUse"
   x1="474.8614"
   y1="-764.0269"
   x2="450.9311"
   y2="-703.3433"
   gradientTransform="matrix(0.8489 -0.5285 -0.5363 -0.844 -552.144 -41.0129)">
				<stop
   offset="0"
   style="stop-color:#F4E3CA"
   id="stop49" />
				<stop
   offset="1"
   style="stop-color:#E9CC9D"
   id="stop51" />
			</linearGradient>
			
				<path
   id="rect3440"
   fill="url(#rect3440_1_)"
   stroke="#000000"
   stroke-width="1.0828"
   stroke-linecap="round"
   stroke-linejoin="round"
   d="     M178.794,313.895l60.746-37.821c4.294-2.674,10.724-0.201,14.36,5.522l34.843,54.842c3.637,5.725,3.104,12.531-1.19,15.205     l-60.746,37.82c-4.294,2.674-10.724,0.201-14.36-5.522L177.604,329.1C173.967,323.375,174.5,316.569,178.794,313.895z" />
			
				<linearGradient
   id="rect3442_1_"
   gradientUnits="userSpaceOnUse"
   x1="1143.4083"
   y1="-462.8745"
   x2="1079.2571"
   y2="-399.4985"
   gradientTransform="matrix(0.9937 -0.1121 -0.1212 -0.9926 -818.3219 32.8419)">
				<stop
   offset="0"
   style="stop-color:#F4E3CA"
   id="stop55" />
				<stop
   offset="1"
   style="stop-color:#E9CC9D"
   id="stop57" />
			</linearGradient>
			
				<path
   id="rect3442"
   fill="url(#rect3442_1_)"
   stroke="#000000"
   stroke-width="1.0828"
   stroke-linecap="round"
   stroke-linejoin="round"
   d="     M296.482,295.204l71.107-8.024c5.025-0.567,9.768,4.43,10.59,11.161l7.875,64.495c0.822,6.729-2.586,12.646-7.613,13.216     l-71.104,8.024c-5.027,0.565-9.768-4.431-10.59-11.162l-7.875-64.494C288.047,301.688,291.456,295.772,296.482,295.204z" />
			
				<linearGradient
   id="rect3444_1_"
   gradientUnits="userSpaceOnUse"
   x1="1405.9503"
   y1="-246.855"
   x2="1340.4691"
   y2="-194.8432"
   gradientTransform="matrix(0.9983 0.0575 0.0484 -0.9988 -924.5732 28.9587)">
				<stop
   offset="0"
   style="stop-color:#F4E3CA"
   id="stop61" />
				<stop
   offset="1"
   style="stop-color:#E9CC9D"
   id="stop63" />
			</linearGradient>
			
				<path
   id="rect3444"
   fill="url(#rect3444_1_)"
   stroke="#000000"
   stroke-width="1.0828"
   stroke-linecap="round"
   stroke-linejoin="round"
   d="     M399.62,279.571l71.438,4.113c5.053,0.291,8.879,6.018,8.553,12.791l-3.145,64.898c-0.328,6.771-4.688,12.026-9.738,11.735     l-71.438-4.11c-5.051-0.291-8.878-6.02-8.551-12.791l3.143-64.898C390.21,284.536,394.569,279.28,399.62,279.571z" />
			
				<linearGradient
   id="flowRoot2762_1_"
   gradientUnits="userSpaceOnUse"
   x1="1335.8156"
   y1="-369.5415"
   x2="1378.6721"
   y2="-423.8266"
   gradientTransform="matrix(0.8681 -0.0402 -0.0402 -0.8681 -759.4653 36.2651)">
				<stop
   offset="0"
   style="stop-color:#000066"
   id="stop67" />
				<stop
   offset="1"
   style="stop-color:#00004F"
   id="stop69" />
			</linearGradient>
			<path
   id="flowRoot2762"
   fill="url(#flowRoot2762_1_)"
   stroke="#000000"
   stroke-width="0.8378"
   d="M441.294,356.864l-27.645-1.627     c-0.652-5.67-1.42-10.761-2.304-15.273c-1.237-6.471-1.751-11.713-1.532-15.721c0.291-5.432,1.229-10.295,2.816-14.589     c-4.048-1.591-5.977-4.19-5.781-7.8c0.188-3.426,1.176-6.457,2.973-9.094l1.334,0.079c0.258,1.368,0.718,2.346,1.381,2.933     c0.662,0.588,2.085,1.201,4.266,1.842c3.256,0.961,4.752,3.883,4.489,8.766c-0.065,1.24-0.22,2.22-0.456,2.938     c-2.15,0.643-4.116,0.908-5.896,0.807c-0.961,3.709-1.563,7.877-1.813,12.506c-0.32,5.94,1.21,13.162,4.589,21.66l1.536,0.037     c4.975-8.851,9.547-20.078,13.719-33.69c-3.998-1.917-5.896-4.698-5.699-8.343c0.168-3.137,1.158-5.911,2.978-8.326l1.335,0.078     c0.285,2.064,1.143,3.34,2.572,3.827l3.074,0.948c3.282,1.034,4.813,3.647,4.586,7.839c-0.078,1.494-0.299,2.779-0.652,3.855     c-1.51,0.423-3.37,0.568-5.579,0.439c-3.146,12.354-7.338,23.57-12.576,33.646l15.726,0.926     c1.814-5.448,6.438-13.295,13.867-23.534c1.893-2.558,2.888-4.767,2.985-6.625c0.103-1.896-0.719-3.224-2.464-3.984l-0.631-0.256     c-3.23-1.435-4.765-3.683-4.6-6.742c0.188-3.463,1.312-6.522,3.371-9.18l1.285,0.075c0.137,1.764,0.915,2.979,2.334,3.648     l2.713,1.201c3.067,1.388,4.499,3.977,4.295,7.768c-0.177,3.279-1.938,7.463-5.289,12.549c-3.35,5.088-6.362,10.705-9.043,16.854     C444.876,343.446,442.789,349.967,441.294,356.864L441.294,356.864z" />
			
				<linearGradient
   id="flowRoot3743_1_"
   gradientUnits="userSpaceOnUse"
   x1="1422.4659"
   y1="-2.7925"
   x2="1325.6276"
   y2="84.2787"
   gradientTransform="matrix(0.4924 0.5716 0.5038 -0.5054 -465.4564 -435.2926)">
				<stop
   offset="0"
   style="stop-color:#000066"
   id="stop73" />
				<stop
   offset="1"
   style="stop-color:#00004F"
   id="stop75" />
			</linearGradient>
			<path
   id="flowRoot3743"
   fill="url(#flowRoot3743_1_)"
   stroke="#000000"
   stroke-width="0.7362"
   d="M204.059,338.417l1.255-0.838     c1.702,2.635,3.182,4.053,4.44,4.252s3.401-0.713,6.43-2.738l14.07-9.404l-0.499-0.914c-0.47-0.786-1.015-1.328-1.636-1.627     c-0.621-0.297-1.283-0.427-1.987-0.389c-0.704,0.039-4.269,0.453-10.693,1.242l-16.367,2.069l-6.568-10.989l1.254-0.84     c2.398,2.797,5.088,4.254,8.068,4.37c2.981,0.118,8.952-0.293,17.913-1.231c3.273-0.344,5.725-0.186,7.355,0.479     c0.233-1.938,0.825-3.688,1.777-5.245c0.951-1.557,3.036-4.17,6.253-7.836c2.531-2.911,4.034-4.83,4.508-5.756     c0.474-0.927,0.489-1.764,0.045-2.505c-0.419-0.7-1.304-1.388-2.655-2.06c-1.303-0.646-2.183-1.351-2.64-2.115     c-0.533-0.892-0.691-1.817-0.476-2.779c0.216-0.962,0.742-1.723,1.579-2.281c1.017-0.68,2.193-0.842,3.529-0.486     c1.336,0.356,2.524,1.403,3.564,3.145c1.016,1.699,1.463,3.533,1.342,5.501c-0.121,1.969-0.632,3.654-1.532,5.061     c-0.9,1.403-2.825,3.819-5.774,7.248c-2.674,3.097-4.416,5.264-5.225,6.502c-0.809,1.239-1.226,2.515-1.25,3.822     c-0.024,1.311,0.396,2.688,1.258,4.131c0.292,0.487,0.747,1.092,1.365,1.808l12.646-8.454c3.029-2.023,4.728-3.682,5.097-4.969     c0.37-1.287-0.207-3.312-1.728-6.067l1.254-0.838l11.119,18.604l-1.254,0.838c-1.69-2.615-3.16-4.02-4.412-4.205     c-1.251-0.189-3.392,0.729-6.42,2.754l-12.646,8.455c0.22,0.685,0.482,1.281,0.786,1.791c0.952,1.594,1.989,2.652,3.111,3.182     c1.122,0.527,2.369,0.684,3.741,0.464c1.372-0.219,3.993-0.954,7.864-2.204c4.158-1.354,7.024-2.154,8.599-2.404     c1.574-0.25,3.239-0.02,4.995,0.695c1.755,0.713,3.146,1.932,4.175,3.65c0.99,1.656,1.38,3.209,1.17,4.656     s-0.857,2.535-1.942,3.262c-0.836,0.559-1.708,0.74-2.616,0.545c-0.908-0.195-1.635-0.75-2.18-1.663     c-0.432-0.722-0.656-1.865-0.673-3.429c-0.007-1.602-0.227-2.762-0.658-3.483c-0.418-0.7-1.151-1.014-2.198-0.938     c-1.046,0.076-3.304,0.68-6.772,1.811c-4.548,1.494-7.682,2.364-9.402,2.605c-1.721,0.244-3.459,0.063-5.215-0.547     c-0.191,1.584-0.624,3.084-1.296,4.5c-0.672,1.414-2.583,4.914-5.731,10.496c-3.021,5.319-4.717,9.031-5.088,11.137     c-0.371,2.106-0.07,4.527,0.902,7.268l-1.254,0.839l-6.568-10.987c0.435-0.648,2.724-4.469,6.866-11.457l6.828-11.521     c0.433-0.705,0.806-1.563,1.118-2.576c0.313-1.012,0.133-2.08-0.54-3.205c-0.14-0.232-0.316-0.502-0.529-0.806l-14.07,9.405     c-3.029,2.024-4.731,3.678-5.107,4.951c-0.375,1.277,0.191,3.283,1.7,6.021l-1.254,0.839L204.059,338.417z" />
			
				<linearGradient
   id="text3751_1_"
   gradientUnits="userSpaceOnUse"
   x1="1370.2706"
   y1="242.3843"
   x2="1274.556"
   y2="340.5811"
   gradientTransform="matrix(0.486 0.4603 0.4828 -0.4696 -450.4503 -342.0811)">
				<stop
   offset="0"
   style="stop-color:#000066"
   id="stop79" />
				<stop
   offset="1"
   style="stop-color:#00004F"
   id="stop81" />
			</linearGradient>
			<path
   id="text3751"
   fill="url(#text3751_1_)"
   stroke="#000000"
   stroke-width="0.8389"
   d="M367.55,135.556l-10.173-8.44     l-35.785,39.658l-6.913-5.735l35.785-39.658l-4.908-4.073l4.936-5.47l21.994,18.249L367.55,135.556z M333.476,121.333     c-3.826,4.239-8.365,6.86-13.62,7.862c-5.254,1.001-10.526,0.324-15.816-2.033l1.816,23.029l-8.847-0.166l-3.351-41.042     l8.878,0.132l0.697,8.589c0.033,0.267,0.377,0.672,1.032,1.215c3.221,2.672,7.242,3.518,12.065,2.537     c4.346-0.858,7.835-2.746,10.468-5.663c2.035-2.256,3.078-5.138,3.129-8.644c0.063-3.774-1.176-6.714-3.716-8.822     c-1.677-1.39-3.409-2.21-5.198-2.459c-2.003-0.267-3.652,0.318-4.948,1.753c-1.851,2.052-1.402,4.218,1.348,6.499     c0.628,0.521,1.378,0.984,2.25,1.388l-4.627,5.128c-1.257-0.485-2.723-1.422-4.399-2.813c-2.671-2.216-4.046-4.852-4.127-7.908     c-0.1-2.833,0.899-5.412,2.997-7.736c2.694-2.986,6.204-4.338,10.529-4.058c4.06,0.22,7.806,1.753,11.235,4.599     c5.053,4.193,7.707,8.965,7.961,14.317C339.425,112.101,337.505,116.866,333.476,121.333L333.476,121.333z" />
			
				<linearGradient
   id="flowRoot3949_1_"
   gradientUnits="userSpaceOnUse"
   x1="1089.0929"
   y1="-286.4893"
   x2="1030.521"
   y2="-213.6318"
   gradientTransform="matrix(0.5785 0.3537 0.351 -0.5829 -86.7885 -393.6439)">
				<stop
   offset="0"
   style="stop-color:#000066"
   id="stop85" />
				<stop
   offset="1"
   style="stop-color:#00004F"
   id="stop87" />
			</linearGradient>
			<path
   id="flowRoot3949"
   fill="url(#flowRoot3949_1_)"
   stroke="#000000"
   stroke-width="0.838"
   d="M425.163,85.744     c0.665,0.398,2.283,1.776,4.854,4.131c0.844,0.776,1.641,1.391,2.396,1.842c2.173,1.302,5.543,3.185,10.108,5.648l5.64,2.458     c3.591,2.151,5.003,3.78,4.234,4.886c-0.3,0.433-1.177,1.064-2.631,1.893l-1.1,0.771l-10.637,10.461     c-0.535,0.498-0.502,1.266,0.098,2.304c0.563,1.087,0.662,1.895,0.297,2.423c-0.833,1.201-3.555,0.421-8.166-2.341l-1.182-0.604     l-6.651-3.577c-3.56-1.927-5.339-2.89-5.339-2.89c-0.266-0.159-0.975,0.232-2.128,1.172l-1.532,1.122l-0.997,0.219l-0.517-0.207     c-1.021-0.61,0.42-4,4.318-10.167c0.152-0.314,0.28-0.544,0.383-0.689l4.498-7.712c1.244-1.976,1.929-3.233,2.051-3.771     c0.6-1.954,0.113-3.877-1.461-5.77c-0.93-1.103-1.272-1.921-1.027-2.453C421.273,84.026,422.769,84.31,425.163,85.744     L425.163,85.744z M418.42,110.274l10.856,6.199c2.074,0.901,3.771,0.897,5.09-0.012c1.021-0.75,3.244-3.501,6.664-8.255     c1.064-1.537,2.004-2.845,2.813-3.925c0.609-0.791,0.755-1.453,0.437-1.985c-0.156-0.229-0.436-0.462-0.833-0.701l-13.935-8.144     L418.42,110.274z M414.966,122.183l3.059,2.241c3.734,2.577,6.002,4.105,6.799,4.583l7.518,4.502l7.747,4.438l0.134,0.081     l3.262,1.134l0.066,0.041c2.97,1.779,4.121,3.149,3.454,4.112c-0.267,0.384-1.026,0.847-2.279,1.387     c-0.378,0.183-0.652,0.357-0.831,0.524c-3.152,3.008-4.836,4.619-5.045,4.834c-0.123,0.266,0.025,0.73,0.445,1.391     c0.275,0.506,0.344,0.954,0.197,1.342c-0.055,0.17-0.115,0.304-0.184,0.401c-0.199,0.287-0.582,0.432-1.146,0.433     c-0.898-0.061-3.643-1.398-8.23-4.012l-13.967-8.366c-1.418-0.85-2.593-0.601-3.525,0.746l-2.447,3.531     c-1.366,1.972-0.564,3.847,2.406,5.626l7.613,4.357l0.135,0.079c3.77,2.258,5.803,3.442,6.103,3.553     c0.267,0.16,0.548,0.295,0.847,0.408l5.406,1.707c0.3,0.111,0.582,0.246,0.848,0.405c3.592,2.152,4.889,3.949,3.889,5.391     c-0.799,1.155-2.15,1.161-4.06,0.019l-21.53-12.795c-0.49-0.293-0.978-0.585-1.465-0.877c-3.813-2.284-5.74-4.527-5.783-6.731     c-0.03-1.312,0.504-2.76,1.604-4.346l2.398-3.461c0.934-1.345,0.685-2.752-0.746-4.22l-1.463-1.693     c-0.166-0.304-0.146-0.6,0.052-0.887c0.5-0.722,1.875-0.442,4.122,0.838c0.225,0.133,0.38,0.226,0.469,0.28l5.303,4.705     c0.268,0.16,0.512,0.306,0.73,0.438c3.191,1.912,8.06,4.758,14.6,8.539c2.041,1.222,3.76,1.232,5.158,0.029     c0.531-0.497,1.146-1.25,1.848-2.259c0.967-1.394,1.454-2.189,1.467-2.386c0.121-0.539-0.127-0.994-0.746-1.365l-15.961-9.153     c-0.182-0.107-1.398-0.565-3.66-1.376c-0.465-0.144-0.854-0.309-1.162-0.494c-1.064-0.638-2.279-2.146-3.644-4.526l-0.896-1.965     c-0.12-0.548-0.098-0.943,0.068-1.184C414.135,121.89,414.478,121.891,414.966,122.183L414.966,122.183z M456.733,128.326     c-3.831,5.527-6.853,8.48-9.061,8.86l-1.032-0.008l-0.196-0.119c-0.801-0.478,0.263-2.869,3.185-7.172l13.894-20.044l1.134-1.771     l0.05-0.073c1.055-1.612,0.746-4.109-0.925-7.491c-1.196-2.35-1.719-3.818-1.563-4.404c0.399-0.577,1.286-0.453,2.661,0.371     c1.906,1.142,3.901,3.152,5.983,6.032c1.054,1.378,1.596,2.452,1.627,3.219c0.031,0.496-0.205,1.066-0.719,1.713     c-2.563,3.158-3.86,4.761-3.896,4.81l-9.444,13.626c1.021,0.61,3.114,1.389,6.285,2.336c1.31,0.376,2.36,0.804,3.159,1.282     c3.413,2.045,4.654,3.74,3.722,5.085c-0.897,1.298-3.633,0.58-8.198-2.156l-5.402-3.339L456.733,128.326z" />
			
				<linearGradient
   id="flowRoot3695_1_"
   gradientUnits="userSpaceOnUse"
   x1="1213.6027"
   y1="-171.397"
   x2="1126.4604"
   y2="-86.3414"
   gradientTransform="matrix(0.6209 0.304 0.292 -0.644 -378.4767 -206.2263)">
				<stop
   offset="0"
   style="stop-color:#D40000"
   id="stop91" />
				<stop
   offset="1"
   style="stop-color:#570000"
   id="stop93" />
			</linearGradient>
			<path
   id="flowRoot3695"
   fill="url(#flowRoot3695_1_)"
   stroke="#000000"
   stroke-width="0.8146"
   d="M352.723,230.148l-0.854,1.391     c-1.26-0.778-2.43-1.172-3.508-1.181c-1.076-0.009-2.373,0.418-3.887,1.281c-1.015,0.583-3.049,2.214-6.104,4.891l-38.726,32.767     l-1.427-0.881l8.996-39.412l-30.974,25.834l-1.285-0.794l11.623-51.222c0.87-3.819,1.338-6.106,1.407-6.859     c0.109-1.247-0.104-2.355-0.64-3.326c-0.536-0.971-1.506-1.89-2.909-2.756l0.854-1.391l17.911,11.064l-0.854,1.391l-0.856-0.529     c-1.261-0.779-2.409-1.073-3.444-0.883c-1.036,0.19-1.815,0.711-2.338,1.564c-0.539,0.877-1.255,3.219-2.148,7.023l-8.046,34.5     l22.968-19.369l1.205-5.168l0.959-4.127c0.271-1.562,0.389-3.01,0.355-4.345c-0.017-0.667-0.151-1.304-0.403-1.909     c-0.317-0.818-0.712-1.512-1.184-2.08c-0.359-0.43-1.027-0.946-2.002-1.548l0.854-1.392l18.839,11.638l-0.854,1.391l-1.285-0.793     c-1.332-0.823-2.492-1.125-3.479-0.905c-0.987,0.22-1.796,0.843-2.429,1.871c-0.786,1.278-1.62,3.84-2.505,7.685l-7.742,33.443     l26.455-22.401c2.956-2.462,4.805-4.295,5.542-5.498c0.354-0.577,0.513-1.222,0.476-1.937c-0.037-0.715-0.254-1.333-0.654-1.857     c-0.688-0.909-1.758-1.813-3.208-2.708l0.854-1.391L352.723,230.148z" />
			
				<linearGradient
   id="flowRoot3683_1_"
   gradientUnits="userSpaceOnUse"
   x1="975.6622"
   y1="-458.7485"
   x2="874.8713"
   y2="-348.6614"
   gradientTransform="matrix(0.6207 0.1362 0.1329 -0.606 -107.9031 -151.6584)">
				<stop
   offset="0"
   style="stop-color:#000066"
   id="stop97" />
				<stop
   offset="1"
   style="stop-color:#00004F"
   id="stop99" />
			</linearGradient>
			<path
   id="flowRoot3683"
   fill="url(#flowRoot3683_1_)"
   stroke="#000000"
   stroke-width="0.7848"
   d="M445.047,194.83l-4.813,5.32     l-4.693-5.51l4.704-5.355L445.047,194.83z M449.844,204.682l-4.823,5.224l-4.768-5.533l4.699-5.216L449.844,204.682z      M440.185,205.85l-4.765,5.29l-4.795-5.448l4.69-5.313L440.185,205.85z M440.362,244.226l-2.896-0.914     c-1.467-0.463-2.682-1.104-3.645-1.923c-0.963-0.818-1.854-1.92-2.676-3.304c-1.373,0.754-2.521,1.188-3.445,1.302     c-1.313,0.148-3.068-0.125-5.271-0.819l-4.51-1.423c-0.836,2.609-2.188,4.978-4.054,7.105c-2.422,2.766-5.36,4.633-8.82,5.603     c-4.348,1.22-9.225,0.978-14.626-0.728c-4.89-1.543-8.312-3.715-10.267-6.519c-2.137-3.079-2.48-6.873-1.037-11.383     c0.781-2.439,1.83-4.826,3.144-7.16c1.313-2.333,2.813-4.624,4.503-6.871c1.028-1.362,2.713-3.423,5.051-6.183l1.221,1.229     c-3.02,3.544-5.182,6.407-6.485,8.587c-1.306,2.181-2.271,4.25-2.896,6.207c-1.127,3.517-0.901,6.531,0.677,9.043     c1.575,2.512,4.37,4.4,8.379,5.666c4.692,1.48,9.19,1.854,13.489,1.118c5.352-0.903,8.703-3.469,10.058-7.694     c0.908-2.836,1.32-5.674,1.233-8.512c-0.063-2.237-0.448-4.482-1.153-6.735l5.838-7.761c0.478,2.712,0.649,5.03,0.519,6.956     c-0.197,2.717-0.996,6.259-2.396,10.627l4.513,1.423c2.32,0.732,4.104,0.842,5.344,0.328c1.084-0.438,1.86-1.396,2.334-2.871     c0.265-0.822,0.485-1.666,0.67-2.529c0.183-0.863,0.347-1.819,0.494-2.865l2.283-2.09l-0.734,4.312     c-0.354,2.949-0.272,5.177,0.24,6.682c0.565,1.678,1.767,2.806,3.601,3.385c0.563,0.177,1.062,0.108,1.499-0.207     c0.438-0.314,0.756-0.783,0.956-1.408c0.454-1.418,0.562-3.055,0.321-4.911c-0.183-1.369-0.545-2.795-1.092-4.28l3.941-3.862     c0.449,2.546,0.669,4.255,0.658,5.126c-0.034,1.957-0.599,4.637-1.688,8.04L440.362,244.226z" />
			
				<linearGradient
   id="text3899_1_"
   gradientUnits="userSpaceOnUse"
   x1="1179.5011"
   y1="-335.1089"
   x2="1100.9298"
   y2="-238.4734"
   gradientTransform="matrix(0.6601 0.0594 0.06 -0.6536 -545.6685 -22.7084)">
				<stop
   offset="0"
   style="stop-color:#000066"
   id="stop103" />
				<stop
   offset="1"
   style="stop-color:#00004F"
   id="stop105" />
			</linearGradient>
			<path
   id="text3899"
   fill="url(#text3899_1_)"
   stroke="#000000"
   stroke-width="0.8244"
   d="M224.054,250.961l2.041,0.425     c-0.985,4.638-2.674,7.812-5.069,9.52c-2.396,1.708-5.048,2.259-7.958,1.653c-2.381-0.495-4.52-1.668-6.416-3.519     s-3.068-5.995-3.517-12.433l-1.249-18.099l-23.213,26.247l-10.715-2.229l32.882-35.545c-0.169-5.521-0.894-9.733-2.172-12.635     c-1.278-2.902-3.259-4.632-5.942-5.191c-2.154-0.448-4.17-0.201-6.047,0.741c-1.877,0.943-3.194,2.73-3.95,5.362l-2.041-0.425     c1.029-4.292,2.878-7.516,5.546-9.673c2.668-2.157,5.589-2.905,8.764-2.245c2.041,0.425,3.839,1.481,5.395,3.168     c1.556,1.688,2.669,4.249,3.341,7.684c0.671,3.435,1.372,10.408,2.1,20.919l1.062,14.795c0.397,6.121,1.287,10.344,2.667,12.67     c1.381,2.325,3.318,3.748,5.813,4.268C219.61,257.301,222.503,255.481,224.054,250.961L224.054,250.961z" />
			
				<linearGradient
   id="path3098_1_"
   gradientUnits="userSpaceOnUse"
   x1="2426.0156"
   y1="-1624.4453"
   x2="2233.0686"
   y2="-1425.4373"
   gradientTransform="matrix(0.2791 0 0 -0.2944 -312.9067 -109.7686)">
				<stop
   offset="0"
   style="stop-color:#000066"
   id="stop109" />
				<stop
   offset="1"
   style="stop-color:#00004F"
   id="stop111" />
			</linearGradient>
			<path
   id="path3098"
   fill="url(#path3098_1_)"
   stroke="#000000"
   stroke-width="0.838"
   d="M336.952,370.92     c-0.072-0.365-1.02-10.07-2.106-21.568c-1.086-11.498-2.052-21.545-2.146-22.326l-0.17-1.42l-0.797,1.536     c-1.705,3.288-3.65,5.573-4.746,5.573c-0.422,0-0.836-0.117-0.92-0.262s0.332-1.369,0.924-2.725     c3.537-8.096,6.168-18.568,6.173-24.584c0.002-2.177,0.253-3.645,0.624-3.645c0.701,0,7.751,3.363,7.751,3.697     c0,0.209-0.501,0.83-1.112,1.383c-0.992,0.896-1.217,1.367-2.078,4.358c-0.531,1.845-0.914,3.407-0.853,3.472     c0.062,0.065,4.356-0.34,9.544-0.899l9.432-1.021l2.07-2.257c1.139-1.241,2.156-2.256,2.26-2.256     c0.314,0,4.823,3.692,5.678,4.651c0.439,0.492,0.744,1.069,0.676,1.283c-0.088,0.276-2.166,0.604-7.438,1.166     c-4.024,0.43-7.36,0.827-7.417,0.889c-0.053,0.06,0.141,2.492,0.428,5.408c0.285,2.914,0.524,5.551,0.528,5.855     c0.007,0.511,0.171,0.543,1.894,0.379l1.883-0.18l1.836-2.12c1.35-1.56,1.941-2.054,2.232-1.864     c1.143,0.736,5.99,4.983,6.065,5.313c0.106,0.479-0.292,0.55-7.623,1.328c-3.226,0.343-5.878,0.643-5.899,0.666     c-0.043,0.049,0.973,10.394,1.086,11.07c0.055,0.323,0.447,0.412,1.605,0.362c1.521-0.063,1.552-0.086,3.518-2.269     c1.09-1.211,2.156-2.201,2.371-2.199c0.455,0.005,6.393,5.188,6.393,5.584c0,0.146-0.094,0.326-0.209,0.397     c-0.115,0.072-3.1,0.429-6.629,0.791c-3.531,0.362-6.496,0.742-6.588,0.843c-0.207,0.226,0.934,12.282,1.188,12.547     c0.1,0.104,1.35,0.054,2.777-0.114l2.596-0.308l2.252-2.363c1.238-1.301,2.408-2.363,2.6-2.363c0.43,0,7.037,5.525,7.037,5.887     c0,0.145-0.104,0.332-0.236,0.418c-0.131,0.084-7.123,0.887-15.534,1.781c-8.413,0.895-15.359,1.691-15.438,1.773     c-0.076,0.08,0,1.438,0.168,3.021l0.307,2.873l-0.864,0.798c-0.778,0.717-3.997,2.295-4.683,2.295     C337.206,371.583,337.025,371.286,336.952,370.92z M346.804,359.079c2.051-0.229,3.776-0.469,3.834-0.529     c0.124-0.131-1.023-12.381-1.177-12.559c-0.146-0.169-8.112,0.617-8.427,0.831c-0.188,0.13,0.787,12.058,1.031,12.614     C342.124,359.571,343.044,359.502,346.804,359.079z M345.726,343.295c1.766-0.186,3.266-0.392,3.334-0.459     c0.182-0.187-0.834-11.115-1.055-11.351c-0.217-0.229-8.197,0.614-8.451,0.894c-0.095,0.104,0.055,2.439,0.332,5.192     c0.277,2.755,0.512,5.315,0.52,5.694c0.018,0.626,0.111,0.674,1.064,0.523C342.045,343.702,343.96,343.479,345.726,343.295z      M343.632,328.874c1.689-0.172,3.326-0.364,3.637-0.433l0.566-0.121l-0.557-5.899c-0.523-5.549-0.59-5.897-1.125-5.895     c-1.424,0.016-7.803,0.887-7.986,1.09c-0.113,0.127,0.029,2.615,0.318,5.53s0.528,5.466,0.533,5.668     C339.028,329.263,339.691,329.272,343.632,328.874z M307.661,365.178c-1.417-1.758-1.841-2.496-1.844-3.213     c-0.003-0.926,0.005-0.932,2.021-1.285c3.048-0.537,10.908-2.703,16.388-4.518c2.682-0.89,4.973-1.552,5.094-1.473     c0.121,0.078,0.219,0.434,0.215,0.787c-0.002,0.52-0.646,1.018-3.277,2.535c-1.803,1.041-6.19,3.591-9.752,5.668     c-3.562,2.076-6.594,3.777-6.739,3.777S308.673,366.434,307.661,365.178z M307.491,349.209c-0.769-1.616-1.398-3.125-1.398-3.354     s0.325-0.502,0.722-0.606c1.041-0.274,3.286-2.603,4.743-4.914c1.354-2.146,5.005-9.922,4.775-10.166     c-0.077-0.08-0.56,0.082-1.073,0.362c-1.791,0.979-9.279,4.244-9.729,4.244c-0.448,0-3.624-4.604-3.624-5.254     c0-0.183,0.605-0.653,1.345-1.049c1.246-0.666,1.434-0.921,2.542-3.437c2.295-5.213,4.299-11.673,5.632-18.16     c0.42-2.043,0.744-3.019,1.003-3.019c0.633,0,5.919,3.938,5.926,4.416c0.003,0.243-0.476,0.801-1.065,1.24     c-0.863,0.645-1.249,1.272-1.987,3.237c-1.287,3.429-4.161,9.601-5.97,12.819c-0.842,1.498-1.507,2.726-1.479,2.726     c0.029,0,2.125-0.33,4.657-0.731c2.532-0.401,4.708-0.731,4.832-0.735c0.508-0.011,3.82-8.32,3.82-9.584     c0-1.101,0.933-0.71,3.488,1.461c1.459,1.235,2.65,2.299,2.65,2.36s-0.556,0.688-1.234,1.39     c-0.799,0.827-2.383,3.396-4.498,7.301c-3.468,6.403-6.125,10.867-8.116,13.636c-0.671,0.933-1.221,1.733-1.221,1.78     c0,0.049,2.983-0.349,6.629-0.879s7.1-0.97,7.675-0.974c1.007-0.007,1.047,0.031,1.047,1.002c0,0.979-0.051,1.024-1.604,1.478     c-4.021,1.17-11.35,3.822-13.877,5.024c-1.53,0.728-2.879,1.322-2.998,1.322C308.985,352.147,308.26,350.827,307.491,349.209z      M348.685,312.238c-0.238-0.25-0.566-1.012-0.73-1.692c-0.783-3.223-1.982-5.438-4.166-7.703c-1.057-1.096-1.41-1.68-1.41-2.321     c0-0.832,0.036-0.854,1.107-0.702c1.932,0.271,5.563,2.375,7.613,4.407c1.881,1.86,1.885,1.868,1.883,3.476     c-0.002,1.854-0.787,3.5-2.106,4.42C349.88,312.809,349.257,312.842,348.685,312.238z" />
			
				<linearGradient
   id="path4921_1_"
   gradientUnits="userSpaceOnUse"
   x1="1335.4279"
   y1="-4793.0435"
   x2="1012.1818"
   y2="-4364.7427"
   gradientTransform="matrix(0.111 -0.0386 -0.0381 -0.1157 -85.6923 -359.7983)">
				<stop
   offset="0"
   style="stop-color:#000066"
   id="stop115" />
				<stop
   offset="1"
   style="stop-color:#00004F"
   id="stop117" />
			</linearGradient>
			<path
   id="path4921"
   fill="url(#path4921_1_)"
   stroke="#000000"
   stroke-width="0.838"
   d="M212.604,160.391     c-0.67-0.314-1.755-1.107-4.265-3.118c-1.852-1.483-3.418-2.778-3.481-2.878s-0.079-0.227-0.034-0.283     c0.044-0.056,0.814-0.565,1.709-1.131c9.146-5.779,16.773-12.479,22.049-19.367c6.432-8.398,11.481-18.682,13.832-28.173     c0.25-1.009,0.508-1.994,0.574-2.189l0.119-0.354l3.668,1.789c2.018,0.983,3.708,1.855,3.757,1.938     c0.162,0.274-1.356,5.568-2.545,8.873c-2.667,7.419-6.667,14.92-11.041,20.713c-5.797,7.677-12.659,14.497-20.859,20.733     l-1.601,1.217l0.013,0.667c0.007,0.367-0.043,0.904-0.111,1.194c-0.104,0.44-0.187,0.548-0.505,0.659     C213.573,160.788,213.333,160.733,212.604,160.391z M204.215,130.424c-6.069-1.818-10.271-2.824-14.377-3.441     c-0.841-0.126-1.545-0.28-1.565-0.341c-0.07-0.214,2.426-8.067,2.582-8.122c0.185-0.064,8.522,1.515,10.286,1.948     c2.018,0.496,8.303,2.25,8.418,2.35c0.097,0.083-2.523,7.984-2.737,8.252C206.775,131.131,205.601,130.84,204.215,130.424z      M207.932,109.781c-4.165-1.182-6.593-1.789-9.562-2.387c-4.862-0.98-6.923-1.468-6.917-1.635     c0.012-0.352,1.805-7.62,1.918-7.775c0.085-0.117,0.237-0.146,0.491-0.094c0.202,0.042,2.246,0.456,4.541,0.921     s4.869,1.015,5.718,1.221c1.614,0.391,6.717,1.733,7.624,2.004l0.524,0.157l-0.094,0.399c-0.317,1.346-2.087,7.568-2.175,7.648     C209.941,110.294,209.01,110.087,207.932,109.781z" />
		</g>
	</g>
</g>
<g
   id="Layer_2"
   transform="translate(0,6)">
	<g
   id="g3651">
		<path
   id="path3653"
   fill="#4D4D4D"
   d="M43.813,358.361c-4.384,0-8.057,1.363-11.019,4.137c-2.961,2.773-4.45,6.213-4.45,10.314    c0,4.047,1.522,7.516,4.512,10.371c2.99,2.854,6.633,4.279,10.957,4.279c0.334,0,0.655-0.039,0.982-0.057    c0.325,0.017,0.649,0.057,0.982,0.057c4.263,0,7.938-1.456,11.018-4.337c3.079-2.883,4.604-6.321,4.604-10.313    c0-3.938-1.526-7.314-4.604-10.172c-3.08-2.854-6.754-4.279-11.018-4.279c-0.337,0-0.654,0.013-0.982,0.029    C44.468,358.372,44.146,358.361,43.813,358.361z M44.549,362.066c0.069-0.004,0.145,0.006,0.215,0    c2.744,0.197,5.172,1.217,7.274,3.132c2.339,2.136,3.499,4.676,3.499,7.614c0,2.994-1.158,5.596-3.468,7.756    c-2.02,1.894-4.388,2.953-7.089,3.188c-0.132-0.007-0.269,0.013-0.399,0c-2.738-0.231-5.084-1.292-7.028-3.159    c-2.221-2.133-3.314-4.736-3.314-7.785c0-3.104,1.092-5.679,3.284-7.729C39.438,363.289,41.77,362.292,44.549,362.066z" />
		<path
   id="path3655"
   fill="#4D4D4D"
   d="M91.446,336.326c-2.488,0-4.607,0.712-6.415,2.125c-1.806,1.414-2.931,3.271-3.345,5.545    c0,2.661,0.53,4.895,1.596,6.723c1.482,2.553,3.964,4.689,7.458,6.407l2.548,1.265c-0.114,0.004-0.226-0.006-0.338,0    c-0.359-0.021-0.706-0.029-1.074-0.029c-4.442,0-8.118,1.365-11.049,4.109c-2.932,2.744-4.42,6.187-4.42,10.342    c0,3.883,1.489,7.353,4.45,10.4c3.317,2.827,6.926,4.251,10.834,4.251c0.34,0,0.68-0.038,1.013-0.057    c0.318,0.019,0.629,0.057,0.952,0.057c4.204,0,7.878-1.456,11.019-4.337c3.139-2.883,4.696-6.291,4.696-10.229    c0-3.99-1.491-7.4-4.481-10.258c-1.87-1.783-4.001-3.007-6.415-3.678c0.657-0.352,0.982-0.947,0.982-1.752    c0-0.715-0.258-1.188-0.798-1.408l-3.039-1.378c-2.045-0.944-3.548-1.868-4.542-2.758c-2.336-2.002-3.53-4.374-3.53-7.153    c0.464-2.627,2.053-4.125,4.727-4.453c1.091,0.123,2.265,0.498,3.53,1.148c1.562,0.805,2.333,1.796,2.333,2.959    c0,1.164,0.569,1.725,1.688,1.725c0.343-0.066,0.63-0.172,0.89-0.287c0.271,0.192,0.618,0.287,1.074,0.287    c1.414-0.276,2.118-0.959,2.118-2.068c-0.355-2.273-1.546-4.1-3.591-5.459c-2.043-1.357-4.359-2.039-6.906-2.039    c-0.311,0-0.59,0.035-0.89,0.058C92.17,336.355,91.807,336.326,91.446,336.326z M91.692,362.01h0.184    c3.257-0.111,6.004,0.973,8.256,3.246c2.25,2.273,3.376,4.814,3.376,7.643c0,3.16-1.192,5.699-3.56,7.586    c-1.971,1.939-4.32,3.031-7.06,3.273c-0.111-0.007-0.227,0.012-0.337,0c-1.088-0.104-2.14-0.387-3.161-0.804    c1.777-1.17,3.167-2.584,4.174-4.281c1.007-1.698,1.504-3.634,1.504-5.803c0-4.229-1.889-7.701-5.678-10.372    C90.336,362.166,91.099,362.01,91.692,362.01z M85.124,365.516c1.349,0.799,2.316,1.646,2.916,2.527    c0.769,1.137,1.167,2.749,1.167,4.855c0,2.959-1.362,5.385-4.082,7.24c-1.896-2.152-2.824-4.6-2.824-7.326    C82.3,369.934,83.225,367.505,85.124,365.516z" />
		<path
   id="path3659"
   fill="#4D4D4D"
   d="M150.068,358.189c-4.207,0-7.846,1.444-10.896,4.338c-3.052,2.891-4.573,6.34-4.573,10.343    c0,4.06,1.521,7.538,4.542,10.429s6.662,4.338,10.926,4.338c0.243,0,0.448-0.039,0.645-0.086c0.436,0.032,0.87,0.086,1.32,0.086    c0.733,0,1.252-0.238,1.565-0.66v19.363h-5.341c-1.229,0-1.841,0.588-1.841,1.753c0,1.274,0.597,1.896,1.841,1.896h7.305h1.964    c1.304,0,1.934-0.646,1.934-1.924v-21.261c0-1.226-0.661-1.84-1.995-1.84l-0.737,0.26c-0.313-0.173-0.728-0.26-1.228-0.26    l-1.167,0.402c-0.066,0.037-0.126,0.098-0.184,0.145c0.3-1.005,0.46-1.97,0.46-2.902c0-3.069-1.291-5.908-3.836-8.531    c-2.132-2.121-5.542-3.189-10.221-3.189c0.594-2.679,1.972-4.848,4.082-6.521c1.846-1.464,3.968-2.288,6.384-2.472    c0.089,0.006,0.188-0.008,0.276,0c2.701,0.229,5.017,1.246,6.967,3.074c2.229,2.088,3.345,5.12,3.345,9.078v34.018    c0,1.279,0.661,1.924,1.964,1.924h1.964h4.235h1.964c1.362-0.108,2.057-0.729,2.057-1.866c-0.121-1.194-0.797-1.781-2.057-1.782    h-1.964h-2.271v-32.177c0-4.96-1.556-8.879-4.635-11.724c-3.081-2.84-6.688-4.25-10.834-4.25c-0.33,0-0.659,0.011-0.982,0.027    C150.726,358.2,150.399,358.189,150.068,358.189z M140.523,374.564c2.582,0.228,4.414,0.938,5.463,2.098    c0.889,0.998,1.519,2.021,1.934,3.074c0.389,0.99,0.622,2.271,0.645,3.85c-1.582-0.457-3.144-1.445-4.696-3.018    C142.171,378.872,141.064,376.855,140.523,374.564z" />
		<path
   id="path3663"
   fill="#4D4D4D"
   d="M207.309,335.406c-2.488,0-4.639,0.712-6.445,2.126c-1.805,1.413-2.898,3.272-3.313,5.545    c0,2.659,0.529,4.894,1.597,6.723c1.479,2.552,3.963,4.688,7.457,6.406l3.744,1.84l0.952,0.315    c0.406-0.065,0.759-0.168,1.043-0.315l0.921,0.315c1.364-0.221,2.057-0.91,2.057-2.068c0-0.715-0.258-1.188-0.799-1.406    l-3.037-1.381c-2.045-0.943-3.577-1.867-4.573-2.758c-2.335-2.001-3.499-4.374-3.499-7.154c0.465-2.627,2.053-4.123,4.727-4.451    c1.092,0.123,2.267,0.496,3.53,1.147c1.562,0.806,2.332,1.796,2.332,2.96c0,1.163,0.567,1.725,1.688,1.725    c0.338-0.066,0.633-0.146,0.89-0.26c0.267,0.18,0.635,0.26,1.073,0.26c1.414-0.277,2.119-0.959,2.119-2.068    c-0.355-2.273-1.549-4.102-3.592-5.46c-2.043-1.357-4.357-2.039-6.906-2.039c-0.311,0-0.619,0.036-0.92,0.058    C208.012,335.438,207.658,335.406,207.309,335.406z M205.773,358.361c-4.385,0-8.09,1.363-11.08,4.137s-4.48,6.213-4.48,10.314    c0,3.992,1.557,7.432,4.635,10.313c3.078,2.881,6.721,4.337,10.926,4.337c0.387,0,0.734-0.04,1.105-0.057    c0.283,0.013,0.57,0.057,0.859,0.057c5.566,0,9.639-1.764,12.246-5.257l0.613-0.806l0.553-1.176l0.275-0.748    c-0.179-1.108-0.842-1.666-1.965-1.666c-0.316,0-0.613,0.09-0.891,0.229c-0.288-0.156-0.652-0.229-1.073-0.229    c-0.771,0-1.431,0.402-1.964,1.234l-0.706,1.092c-1.499,2.288-4.259,3.478-8.257,3.619c-0.01,0-0.021,0-0.03,0    c-2.699-0.234-5.035-1.296-7.028-3.188c-2.281-2.161-3.406-4.764-3.406-7.758c0-3.104,1.094-5.678,3.314-7.729    c2.014-1.857,4.482-2.843,7.396-3.018c3.25,0.232,5.961,1.531,8.103,3.937c0.354,0.224,0.751,0.379,1.166,0.489    c0.376-0.078,0.696-0.213,1.013-0.374c0.297,0.161,0.618,0.284,0.952,0.374c0.532-0.11,0.996-0.297,1.411-0.575    c0.533-0.499,0.799-0.964,0.799-1.407c-0.119-0.498-0.281-0.839-0.461-1.006c-3.197-3.438-7.207-5.143-12.063-5.143    c-0.319,0-0.639,0.015-0.95,0.029C206.449,358.372,206.119,358.361,205.773,358.361z" />
		<path
   id="path3667"
   fill="#4D4D4D"
   d="M262.277,358.361c-2.487,0-4.438,0.683-5.801,2.068c-1.127,1.108-1.688,2.379-1.688,3.82    c0,1.109,0.263,2.005,0.735,2.672c1.479,2.107,3.836,3.5,7.091,4.166l3.284,0.66c1.242,0.277,2.069,0.525,2.485,0.747l0.46,0.144    c1.006,0.502,1.9,1.361,2.67,2.528c0.889,1.335,1.32,2.353,1.32,3.074l-0.43,2.327c-0.355,0.834-0.819,1.42-1.352,1.752    c-0.236,0.277-0.67,0.494-1.32,0.662l-0.152,0.027c-0.133-0.893-0.344-1.762-0.645-2.613l-0.063,0.027    c-1.236-3.191-2.801-5.47-4.727-6.779l-0.185-0.145c-2.19-1.385-4.541-2.098-7.028-2.098c-0.295,0-0.574,0.031-0.858,0.058    c-0.367-0.03-0.731-0.058-1.104-0.058c-1.304,0-2.498,0.246-3.621,0.746c-2.666,1.172-4.021,3.314-4.021,6.437    c0,1.896,0.662,3.731,1.964,5.459c1.185,1.281,2.84,2.17,4.972,2.672c1.48,0.5,3.532,0.777,6.139,0.833h1.966h1.411v20.515    c0,1.276,0.628,1.924,1.871,1.924c0.404,0,0.729-0.061,1.015-0.172c0.261,0.114,0.578,0.172,0.951,0.172    c1.36,0,2.024-0.646,2.024-1.924v-21.117l2.578-0.574c1.362-0.332,2.488-0.769,3.377-1.321c2.014-1.662,3.038-4.049,3.038-7.154    c-0.297-2.272-1.321-4.289-3.038-6.032c-1.72-1.747-3.771-2.894-6.139-3.448l-3.714-0.832c-1.423-0.337-2.517-0.729-3.284-1.179    c-0.947-0.562-1.51-1.041-1.688-1.437l-0.092-0.604c0-0.451,0.166-0.93,0.521-1.438c0.487-0.463,1.198-0.746,2.087-0.861    c0.02,0.002,0.043-0.002,0.063,0c1,0.117,1.719,0.418,2.117,0.891l1.412,1.207c0.533,0.344,0.961,0.518,1.258,0.518    c0.393,0,0.717-0.137,1.045-0.345c0.008,0.003,0.021-0.004,0.029,0c0.354,0.191,0.668,0.345,0.891,0.345    c0.533,0,0.996-0.215,1.412-0.604c0.414-0.389,0.613-0.823,0.613-1.322c-0.12-0.387-0.416-0.883-0.891-1.492l-1.043-1.094    c-1.01-0.831-1.934-1.326-2.764-1.521c-0.83-0.193-1.891-0.287-3.19-0.287c-0.312,0-0.628,0.007-0.921,0.029    c-0.01,0-0.021,0-0.031,0C262.953,358.374,262.652,358.361,262.277,358.361z M255.984,375.141c1.336,0.182,2.728,0.699,4.176,1.58    c0.352,0.331,0.857,0.983,1.504,1.924c0.999,1.441,1.536,2.435,1.596,2.988c0.293,0.609,0.43,1.137,0.43,1.58l0.093,0.833h-1.228    c-4.414-0.112-7.138-0.871-8.195-2.271c-0.823-1.118-1.194-2.118-1.135-3.017l0.092-1.006l0.613-1.437    C254.415,375.689,255.104,375.298,255.984,375.141z" />
		<path
   id="path3669"
   fill="#4D4D4D"
   d="M313.287,337.503c-3.121,0-5.735,1.015-7.826,3.046c-2.09,2.031-3.131,4.488-3.131,7.412    c0,2.823,1.05,5.268,3.191,7.298c1.784,1.688,3.874,2.646,6.262,2.931c-4.142,0.035-7.73,1.48-10.742,4.338    c-3.05,2.892-4.572,6.341-4.572,10.344c0,4.061,1.521,7.538,4.542,10.429c3.021,2.89,6.662,4.339,10.927,4.339    c0.193,0,0.356-0.027,0.521-0.059c0.475,0.039,0.951,0.059,1.442,0.059c1.064,0,1.663-0.459,1.842-1.351    c0.474-1.285,0.735-2.507,0.735-3.679c0-3.069-1.291-5.908-3.837-8.531c-2.132-2.121-5.541-3.189-10.22-3.189    c0.596-2.679,1.941-4.848,4.051-6.521c1.823-1.445,3.941-2.3,6.323-2.5c2.854,0.165,5.299,1.194,7.335,3.103    c2.229,2.088,3.346,5.121,3.346,9.079v34.018c0,1.279,0.66,1.924,1.965,1.924h1.965h4.234h1.964    c1.362-0.108,2.058-0.729,2.058-1.866c-0.12-1.194-0.827-1.781-2.087-1.782h-1.965h-2.271v-32.177    c0-4.96-1.525-8.879-4.604-11.723c-2.632-2.428-5.646-3.813-9.055-4.166c2.732-0.099,5.127-1.125,7.213-3.103    c2.197-2.082,3.283-4.487,3.283-7.212c0-2.822-1.047-5.275-3.19-7.354c-2.144-2.082-4.718-3.104-7.734-3.104    c-0.288,0-0.58,0.013-0.859,0.029C314.029,337.5,313.664,337.503,313.287,337.503z M314.239,340.836    c1.647,0.195,3.106,0.864,4.327,2.068c1.457,1.437,2.18,3.125,2.18,5.057c0,0.702-0.09,1.352-0.276,1.925    c-0.568-0.431-1.154-0.813-1.779-1.091c-1.139-0.508-2.408-0.747-3.838-0.747c-0.334,0-0.686,0.019-1.013,0.058    c-0.311-0.026-0.625-0.058-0.951-0.058c-1.747,0-3.402,0.521-4.94,1.579c-0.096-0.467-0.186-1.031-0.186-1.666    c0-2.029,0.716-3.727,2.118-5.113C311.059,341.684,312.521,341.021,314.239,340.836z M313.84,351.438    c1.461,0.201,2.697,0.908,3.714,2.127c-1.015,0.776-2.128,1.252-3.346,1.408c-1.315-0.166-2.485-0.652-3.499-1.467    C311.564,352.387,312.609,351.695,313.84,351.438z M302.361,374.564c2.592,0.227,4.441,0.936,5.494,2.098    c0.888,0.998,1.518,2.021,1.934,3.074c0.388,0.99,0.591,2.271,0.613,3.85c-1.581-0.451-3.145-1.445-4.695-3.018    C304.01,378.872,302.902,376.855,302.361,374.564z" />
	</g>
	<path
   id="path3693"
   inkscape:connector-curvature="0"
   fill="#4D4D4D"
   d="M67.607,436.929c0,2.541-1.051,4.81-3.151,6.798   s-4.504,2.984-7.212,2.984c-2.748,0-5.181-0.971-7.301-2.912c-2.003-1.83-3.003-3.882-3.003-6.15c0-0.989-0.158-1.94-0.473-2.857   c-0.789-2.232-2.287-3.753-4.492-4.56c-1.025-0.365-1.951-0.55-2.777-0.55c-2.207,0-4.03,0.709-5.468,2.129   c-1.439,1.422-2.158,3.163-2.158,5.229c0,2.214,0.809,3.985,2.427,5.313c1.5,1.289,3.454,1.935,5.86,1.935l1.42-0.386   c0.71,0,1.146,0.404,1.303,1.214c0,0.476-0.275,0.825-0.824,1.046l-0.707,0.166l-0.883,0.22v-0.22l0.059,0.258l-1.177,0.128   c-2.63,0-4.967-0.955-7.007-2.865c-2.041-1.91-3.061-4.189-3.061-6.835s1.011-4.934,3.032-6.861   c2.021-1.93,4.426-2.894,7.213-2.894c2.827,0,5.259,0.952,7.301,2.856c1.333,1.245,2.256,3.059,2.767,5.438   c0,2.82,0.847,4.981,2.541,6.483c1.694,1.503,3.507,2.251,5.437,2.251c3.151,0,5.537-1.512,7.152-4.536   c0.394-0.996,0.591-1.937,0.591-2.82c0-1.992-0.76-3.696-2.279-5.118c-1.519-1.42-3.542-2.129-6.068-2.129l-0.888,0.133   l-0.592,0.198c-0.789,0-1.184-0.413-1.184-1.237c0-0.787,0.785-1.293,2.355-1.519v0.329l-0.059-0.329   c3.14,0,5.77,0.866,7.889,2.598C66.469,431.698,67.607,434.055,67.607,436.929L67.607,436.929z" />
	<path
   id="path3695"
   inkscape:connector-curvature="0"
   fill="#4D4D4D"
   d="M66.371,453.903c0,2.138-0.785,3.954-2.355,5.448   c-1.57,1.492-3.494,2.24-5.771,2.24c-2.237,0-4.151-0.756-5.741-2.267c-1.59-1.516-2.384-3.32-2.384-5.422   c0-2.177,0.786-4.02,2.355-5.53c1.571-1.515,3.495-2.27,5.77-2.27c2.237,0,4.152,0.767,5.741,2.297   C65.576,449.931,66.371,451.764,66.371,453.903z M63.779,453.876c0-1.508-0.53-2.774-1.589-3.803   c-1.06-1.028-2.374-1.543-3.945-1.543c-1.649,0-2.983,0.504-4.004,1.515s-1.531,2.287-1.531,3.831c0,1.433,0.541,2.672,1.618,3.721   c1.081,1.047,2.385,1.57,3.917,1.57c1.57,0,2.885-0.516,3.945-1.544S63.779,455.345,63.779,453.876L63.779,453.876z" />
	<path
   id="path3697"
   inkscape:connector-curvature="0"
   fill="#4D4D4D"
   d="M111.354,436.983c0,2.563-1.041,4.817-3.12,6.761   c-2.081,1.94-4.887,2.913-8.42,2.913c-0.942,0-1.414-0.386-1.414-1.155c0-0.842,0.532-1.263,1.599-1.263   c1.066,0,2.092-0.146,3.079-0.44c1.698-0.513,3.069-1.372,4.115-2.582c1.046-1.208,1.569-2.618,1.569-4.229   c0-2.053-0.769-3.766-2.306-5.139c-1.536-1.372-3.407-2.059-5.614-2.059c-2.325,0-4.156,0.695-5.496,2.087   c-0.632,0.551-1.183,1.411-1.655,2.583c-0.275,0.732-0.551,1.83-0.827,3.296c0,2.491-1.021,4.599-3.062,6.317   c-2.042,1.721-4.417,2.583-7.124,2.583c-2.905,0-5.378-0.957-7.419-2.866c-2.041-1.91-3.062-4.207-3.062-6.89   c0-2.756,1.001-5.034,3.003-6.834c2.001-1.801,4.494-2.701,7.478-2.701c4.082,0,7.104,1.672,9.067,5.015   c0.55-1.198,1.492-2.252,2.827-3.161c1.844-1.234,3.925-1.854,6.24-1.854c2.865,0,5.338,0.934,7.419,2.804   C110.313,432.037,111.354,434.309,111.354,436.983z M90.393,436.544c0-1.903-0.765-3.505-2.296-4.804   c-1.531-1.299-3.336-1.949-5.417-1.949c-2.277,0-4.161,0.658-5.652,1.975c-1.493,1.319-2.238,3.039-2.238,5.162   c0,2.014,0.775,3.733,2.326,5.161c1.551,1.428,3.405,2.142,5.565,2.142c2.12,0,3.934-0.777,5.446-2.333   C89.637,440.343,90.393,438.557,90.393,436.544L90.393,436.544z" />
	<path
   id="path3699"
   inkscape:connector-curvature="0"
   fill="#4D4D4D"
   d="M108.016,417.446c0,0.735-0.468,1.195-1.406,1.379   c-0.742,0-1.112,1.452-1.112,0.681c0-0.771-0.517-3.262-1.552-3.794c-1.034-0.533-1.981-0.8-2.84-0.8   c-2.265,0-3.572,0.994-3.923,2.982c0,1.845,0.775,3.429,2.322,4.755c0.658,0.59,1.665,1.197,3.021,1.821l2.009,0.924   c0.358,0.146,0.536,0.459,0.536,0.933c0,0.769-0.451,1.226-1.354,1.371l-0.648-0.22l-2.473-1.212   c-2.316-1.141-3.965-2.555-4.946-4.244c-0.707-1.214-1.06-2.701-1.06-4.465c0.275-1.507,1.012-2.729,2.209-3.663   c1.197-0.938,2.619-1.406,4.269-1.406c1.688,0,3.208,0.451,4.563,1.351S107.782,415.941,108.016,417.446L108.016,417.446z" />
	<path
   id="path3701"
   inkscape:connector-curvature="0"
   fill="#4D4D4D"
   d="M154.158,436.929c0,2.541-1.051,4.81-3.151,6.798   c-2.1,1.988-4.504,2.984-7.212,2.984c-2.748,0-5.181-0.971-7.301-2.912c-2.003-1.83-3.004-3.882-3.004-6.15   c0-0.989-0.158-1.94-0.472-2.857c-0.789-2.232-2.287-3.753-4.492-4.56c-1.025-0.365-1.951-0.55-2.777-0.55   c-2.207,0-4.03,0.709-5.468,2.129c-1.439,1.422-2.158,3.163-2.158,5.229c0,2.214,0.809,3.985,2.427,5.313   c1.5,1.289,3.454,1.935,5.86,1.935l1.42-0.386c0.71,0,1.146,0.404,1.303,1.214c0,0.476-0.275,0.825-0.824,1.046l-0.707,0.166   l-0.883,0.22v-0.22l0.059,0.258l-1.177,0.128c-2.63,0-4.967-0.955-7.007-2.865c-2.041-1.91-3.061-4.189-3.061-6.835   s1.011-4.934,3.032-6.861c2.021-1.93,4.425-2.894,7.213-2.894c2.827,0,5.259,0.952,7.301,2.856   c1.333,1.245,2.256,3.059,2.767,5.438c0,2.82,0.847,4.981,2.541,6.483c1.694,1.503,3.507,2.251,5.437,2.251   c3.151,0,5.536-1.512,7.152-4.536c0.394-0.996,0.591-1.937,0.591-2.82c0-1.992-0.76-3.696-2.279-5.118   c-1.519-1.42-3.542-2.129-6.068-2.129l-0.888,0.133l-0.592,0.198c-0.789,0-1.184-0.413-1.184-1.237   c0-0.787,0.785-1.293,2.355-1.519v0.329l-0.059-0.329c3.14,0,5.77,0.866,7.889,2.598   C153.02,431.698,154.158,434.055,154.158,436.929L154.158,436.929z" />
	<path
   id="path3703"
   inkscape:connector-curvature="0"
   fill="#4D4D4D"
   d="M179.947,436.734c0,2.72-1.011,5.053-3.032,7   c-2.022,1.946-4.466,2.922-7.331,2.922c-2.866,0-5.299-0.984-7.301-2.949s-3.003-4.289-3.003-6.973   c0-1.764,0.491-3.473,1.472-5.125c0.981-1.653,2.256-3.014,3.827-4.078l0.707-0.166c0.785,0,1.216,0.422,1.295,1.268   c0,0.366-0.216,0.681-0.648,0.938c-1.217,0.733-2.199,1.764-2.944,3.086c-0.747,1.321-1.119,2.683-1.119,4.078   c0,2.021,0.755,3.774,2.267,5.264c1.511,1.488,3.327,2.233,5.446,2.233c2.199,0,4.043-0.735,5.535-2.205   c1.492-1.47,2.237-3.232,2.237-5.291c0-1.396-0.373-2.756-1.119-4.078c-0.747-1.322-1.747-2.354-3.003-3.087   c-0.353-0.146-0.55-0.44-0.588-0.881c-0.04-0.734,0.373-1.177,1.236-1.322l0.589,0.165c1.688,0.919,3.022,2.225,4.004,3.913   C179.457,433.134,179.947,434.898,179.947,436.734L179.947,436.734z" />
	<path
   id="path3705"
   inkscape:connector-curvature="0"
   fill="#4D4D4D"
   d="M175.628,416.527c0,0.735-0.468,1.195-1.406,1.378   c-0.742,0-1.112-0.387-1.112-1.157c0-0.772-0.517-1.424-1.552-1.956c-1.035-0.532-1.981-0.8-2.84-0.8   c-2.265,0-3.572,0.994-3.924,2.982c0,1.845,0.775,3.43,2.323,4.754c0.658,0.592,1.665,1.198,3.02,1.823l2.01,0.924   c0.358,0.146,0.536,0.457,0.536,0.934c0,0.767-0.451,1.224-1.354,1.37l-0.648-0.222l-2.473-1.211   c-2.316-1.139-3.965-2.554-4.946-4.243c-0.706-1.214-1.06-2.701-1.06-4.466c0.275-1.507,1.012-2.729,2.209-3.664   c1.198-0.938,2.62-1.405,4.269-1.405c1.688,0,3.209,0.45,4.563,1.351C174.597,413.818,175.392,415.021,175.628,416.527   L175.628,416.527z" />
	<path
   id="path3707"
   inkscape:connector-curvature="0"
   fill="#4D4D4D"
   d="M218.866,436.818c0,3.443-1.513,6.082-4.535,7.913   c-0.746,0.439-1.745,0.88-3.002,1.318c-1.259,0.44-2.277,0.642-3.062,0.605l-1.062-0.058c-0.313,0-0.804-0.128-1.472-0.383   c-0.197-0.036-0.451-0.129-0.767-0.272c-0.823,0-1.237-0.401-1.237-1.206c0-3.031,1.67-5.314,5.006-6.85l1.474-0.384l1.472-0.165   c1.608,0,3.101,0.352,4.476,1.048l0.116-1.566c0.078-0.9-0.137-1.966-0.644-3.191c-0.079-0.215-0.295-0.54-0.646-0.974   c-1.485-1.909-3.559-2.865-6.217-2.865c-1.76,0-3.341,0.437-4.748,1.311l-0.061,0.162l-1.525,1.147l-0.526,1.036   c0,1.564-0.746,2.802-2.235,3.712c1.372,0.873,2.061,2.4,2.061,4.585c-0.668,3.273-3.649,4.912-8.949,4.912   c-4.436,0-7.321-1.563-8.655-4.687l-0.118-0.496c0-0.552,0.456-0.899,1.364-1.048c0.593,0,1.01,0.221,1.248,0.663   c0.634,1.285,1.464,2.149,2.493,2.589c0.791,0.367,2.035,0.552,3.736,0.552c3.799,0,5.953-1.011,6.467-3.031   c0-0.624-0.398-1.294-1.198-2.012c-0.802-0.717-1.54-1.056-2.222-1.021h-1.561c-0.681,0.037-1.102-0.386-1.26-1.269   c0-0.771,0.412-1.156,1.234-1.156h1.768c2.158-0.289,3.236-1.102,3.236-2.437c-0.313-2.345-2.49-3.516-6.534-3.516   c-2.235,0-3.787,0.253-4.649,0.76c-0.629,0.364-1.119,1.105-1.473,2.229c-0.118,0.651-0.53,0.979-1.236,0.979   c-0.824,0-1.275-0.479-1.354-1.434c0.55-3.31,3.454-4.961,8.713-4.961c4.006,0,6.693,0.975,8.066,2.922l0.709-0.596   c0.194-0.146,0.549-0.344,1.059-0.597c1.924-1.226,3.947-1.84,6.064-1.84c1.57,0,3.109,0.358,4.621,1.072   c1.512,0.715,2.739,1.713,3.682,2.995C218.236,433.008,218.866,434.84,218.866,436.818L218.866,436.818z M215.216,440.648   c-1.376-0.589-2.592-0.884-3.651-0.884c-0.746,0-1.314,0.094-1.707,0.276l-0.06-0.276l0.116,0.226   c-1.805,0.743-2.964,2.046-3.473,3.906c0.588,0.224,1.215,0.334,1.886,0.334c1.687,0,3.237-0.479,4.647-1.435   C213.645,442.32,214.391,441.604,215.216,440.648L215.216,440.648z" />
	<path
   id="path3709"
   inkscape:connector-curvature="0"
   fill="#4D4D4D"
   d="M261.021,437.093c0,2.493-1.029,4.736-3.092,6.733   c-2.06,1.996-4.425,2.995-7.095,2.995l-1.177-0.11v-0.22l0.06,0.33l-0.882-0.056l-0.766-0.275   c-0.514-0.257-0.766-0.626-0.766-1.104c0-0.183,0.116-0.439,0.354-0.771c0.195-0.185,0.492-0.313,0.888-0.386   c0.315,0,0.513,0,0.593,0h0.828c2.525,0,4.598-0.727,6.217-2.18c1.024-0.943,1.717-2.144,2.069-3.598   c0.119-0.471,0.179-0.944,0.179-1.417c0-1.997-0.766-3.705-2.296-5.121c-1.532-1.416-3.378-2.125-5.536-2.125   c-1.963,0-3.748,0.732-5.357,2.197c-0.706,0.659-1.256,1.363-1.648,2.114c-0.393,0.752-0.589,1.622-0.589,2.609   c0,2.967-0.937,5.367-2.805,7.197c-1.869,1.829-4.399,2.746-7.589,2.746c-3.229,0-5.926-1.157-8.092-3.474   c-0.787-0.845-1.182-1.544-1.182-2.093c0-0.663,0.354-0.992,1.061-0.992c0.862,0,1.57,0.479,2.119,1.434   c1.609,1.8,3.629,2.701,6.064,2.701c2.238,0,4.104-0.671,5.594-2.013c1.491-1.34,2.237-3.059,2.237-5.151   c0-1.984-0.774-3.694-2.326-5.125c-1.55-1.435-3.385-2.149-5.505-2.149c-2.551,0-4.531,0.789-5.946,2.369l-0.59,0.661   c-0.196,0.551-0.589,0.826-1.176,0.826c-0.863,0-1.296-0.495-1.296-1.487c0.078-0.441,0.236-0.772,0.471-0.991l0.354-0.331   c1.768-2.313,4.494-3.472,8.184-3.472c1.846,0,3.592,0.459,5.24,1.376c1.65,0.92,2.924,2.132,3.826,3.639l0.883-1.472l0.767-0.71   c2.041-1.889,4.476-2.833,7.302-2.833c2.786,0,5.221,0.972,7.303,2.913C259.98,432.221,261.021,434.492,261.021,437.093   L261.021,437.093z" />
	<path
   id="path3711"
   inkscape:connector-curvature="0"
   fill="#4D4D4D"
   d="M258.646,420.258c0,2.131-0.785,3.94-2.354,5.429   c-1.569,1.487-3.493,2.232-5.771,2.232c-2.236,0-4.151-0.752-5.742-2.26c-1.588-1.507-2.385-3.309-2.385-5.401   c0-2.168,0.776-4.004,2.326-5.512c1.551-1.505,3.483-2.26,5.801-2.26c2.235,0,4.15,0.771,5.738,2.314   C257.852,416.345,258.646,418.163,258.646,420.258z M256.055,420.23c0-1.427-0.539-2.668-1.619-3.729   c-1.078-1.06-2.384-1.59-3.914-1.59c-1.609,0-2.934,0.513-3.976,1.535c-1.039,1.022-1.562,2.285-1.562,3.782   c0,1.427,0.541,2.66,1.619,3.701c1.08,1.042,2.387,1.563,3.916,1.563c1.53,0,2.836-0.521,3.914-1.563   C255.516,422.889,256.055,421.656,256.055,420.23z" />
	<path
   id="path3713"
   inkscape:connector-curvature="0"
   fill="#4D4D4D"
   d="M287.398,436.955c0,2.646-1.021,4.924-3.062,6.835   c-2.041,1.91-4.476,2.866-7.302,2.866c-2.865,0-5.29-0.946-7.271-2.839c-1.98-1.894-2.973-4.181-2.973-6.862   c0-2.719,0.98-4.997,2.943-6.835c1.963-1.836,4.396-2.755,7.301-2.755c2.828,0,5.261,0.945,7.302,2.837   C286.379,432.098,287.398,434.347,287.398,436.955L287.398,436.955z M284.811,436.955c0-1.946-0.775-3.628-2.326-5.043   c-1.551-1.413-3.366-2.121-5.447-2.121c-2.198,0-4.023,0.68-5.475,2.039c-1.453,1.357-2.18,3.068-2.18,5.125l0.178,1.819   c0.117,0.479,0.373,1.012,0.765,1.598c1.649-2.021,3.866-3.031,6.653-3.031c2.864,0,5.123,1.011,6.771,3.031   C284.454,439.38,284.811,438.241,284.811,436.955L284.811,436.955z M282.041,442.302c-1.295-1.689-2.982-2.536-5.063-2.536   c-2.082,0-3.709,0.864-4.888,2.592c1.332,1.249,2.979,1.874,4.944,1.874C278.999,444.23,280.667,443.588,282.041,442.302z" />
	<path
   id="path3715"
   inkscape:connector-curvature="0"
   fill="#4D4D4D"
   d="M308.36,436.955c0,3.492-1.493,6.138-4.477,7.937   c-2.041,1.248-4.103,1.875-6.181,1.875c-0.826,0-1.611-0.109-2.355-0.331l-0.766-0.221l-0.766-0.386   c-0.746-0.22-1.119-0.624-1.119-1.212c0-0.256,0.139-0.516,0.414-0.771c0.275-0.257,0.554-0.387,0.828-0.387   c0.275,0,0.453,0.037,0.533,0.11l1.715,0.604c0.313,0.11,0.808,0.166,1.479,0.166c2.208,0,4.111-0.718,5.708-2.157   c1.597-1.438,2.396-3.188,2.396-5.256c0-1.586-0.435-2.986-1.303-4.205c-0.634-0.849-1.543-1.539-2.729-2.073   s-2.37-0.805-3.557-0.805c-1.541,0-3.043,0.409-4.504,1.225c-1.068,0.777-1.938,1.648-2.607,2.611l-1.848,2.832   c-0.236,0.555-0.629,0.828-1.178,0.828c-0.822,0-1.234-0.421-1.234-1.267c0-0.331,0.078-0.589,0.234-0.771l1.943-2.977   c0.785-1.213,1.992-2.333,3.621-3.362c1.629-1.028,3.504-1.543,5.623-1.543c3.455,0,6.184,1.359,8.186,4.079   C307.713,433.263,308.36,435.081,308.36,436.955L308.36,436.955z" />
	<path
   id="path3717"
   inkscape:connector-curvature="0"
   fill="#4D4D4D"
   d="M330.852,440.318c0,2.058-0.668,3.637-2.001,4.738   c-0.589,0.368-1.334,0.662-2.236,0.883l-1.708,0.385v13.996c0,0.848-0.451,1.271-1.354,1.271c-0.823,0-1.235-0.425-1.235-1.271   v-13.609h-2.236c-1.729-0.037-3.083-0.221-4.063-0.554c-1.414-0.332-2.514-0.924-3.298-1.773c-0.862-1.144-1.295-2.345-1.295-3.601   c0-2.068,0.883-3.491,2.649-4.268c0.746-0.332,1.55-0.498,2.414-0.498c1.648,0,3.198,0.459,4.65,1.376l0.117,0.111   c1.296,0.882,2.354,2.406,3.18,4.576l-0.234,0.055l0.239-0.166c0.238,0.677,0.396,1.37,0.478,2.085l1.347-0.36   c0.432-0.11,0.726-0.259,0.882-0.441c0.352-0.222,0.646-0.608,0.882-1.161l0.295-1.548c0-0.479-0.296-1.16-0.885-2.045   c-0.51-0.772-1.099-1.325-1.766-1.657l-0.295-0.109c-0.274-0.147-0.823-0.313-1.648-0.497l-2.182-0.431   c-2.158-0.44-3.728-1.36-4.709-2.759c-0.313-0.441-0.471-1.03-0.471-1.765c0-0.956,0.374-1.803,1.119-2.54   c0.902-0.917,2.18-1.377,3.826-1.377c0.862,0,1.57,0.063,2.12,0.191c0.55,0.129,1.156,0.471,1.825,1.021l0.705,0.717   c0.314,0.403,0.511,0.735,0.59,0.992c0,0.33-0.139,0.625-0.412,0.882c-0.273,0.256-0.589,0.386-0.941,0.386   c-0.196,0-0.472-0.113-0.824-0.342l-0.941-0.797c-0.354-0.416-1.061-0.625-2.12-0.625c-0.902,0-1.57,0.205-2.003,0.613   c-0.232,0.336-0.352,0.651-0.352,0.949l0.06,0.392c0.117,0.26,0.49,0.577,1.119,0.947c0.511,0.299,1.236,0.561,2.179,0.783   l2.474,0.559c1.57,0.366,2.925,1.13,4.063,2.287C329.988,437.479,330.654,438.811,330.852,440.318z M322.313,444.396l-0.06-0.553   c0-0.293-0.098-0.643-0.291-1.048c-0.039-0.366-0.39-1.029-1.051-1.984c-0.43-0.624-0.762-1.047-0.996-1.267   c-1.208-0.736-2.357-1.103-3.449-1.103c-0.896,0-1.56,0.278-1.988,0.834l-0.407,0.945l-0.061,0.667   c-0.039,0.595,0.214,1.263,0.76,2.004c0.702,0.929,2.515,1.429,5.438,1.502h2.104V444.396z" />
	<path
   id="path3719"
   inkscape:connector-curvature="0"
   fill="#4D4D4D"
   d="M326.824,418.041c0,0.721-0.459,1.171-1.378,1.351   c-0.727,0-1.091-0.378-1.091-1.134c0-0.757-0.508-1.396-1.521-1.919c-1.014-0.521-1.943-0.784-2.786-0.784   c-2.221,0-3.503,0.977-3.849,2.928c0,1.809,0.76,3.359,2.277,4.66c0.646,0.578,1.634,1.175,2.964,1.788l1.972,0.905   c0.35,0.145,0.526,0.447,0.526,0.914c0,0.753-0.442,1.201-1.329,1.344l-0.635-0.215l-2.427-1.188   c-2.271-1.117-3.889-2.506-4.85-4.162c-0.693-1.189-1.04-2.648-1.04-4.379c0.27-1.477,0.992-2.677,2.165-3.595   c1.175-0.919,2.568-1.379,4.188-1.379c1.655,0,3.147,0.441,4.477,1.324C325.814,415.384,326.594,416.563,326.824,418.041   L326.824,418.041z" />
</g>
</svg>
