<?xml version="1.0" encoding="UTF-8" standalone="no"?>
<svg
   xmlns:dc="http://purl.org/dc/elements/1.1/"
   xmlns:cc="http://creativecommons.org/ns#"
   xmlns:rdf="http://www.w3.org/1999/02/22-rdf-syntax-ns#"
   xmlns:svg="http://www.w3.org/2000/svg"
   xmlns="http://www.w3.org/2000/svg"
   xmlns:sodipodi="http://sodipodi.sourceforge.net/DTD/sodipodi-0.dtd"
   xmlns:inkscape="http://www.inkscape.org/namespaces/inkscape"
   version="1.1"
   id="svg2047"
   inkscape:version="0.48.4 r9939"
   sodipodi:docname="Wiktionary-sr.svg"
   sodipodi:version="0.32"
   x="0px"
   y="0px"
   viewBox="62 -136.9 391 473.9"
   style="enable-background:new 62 -136.9 391 473.9;"
   xml:space="preserve"><metadata
   id="metadata115"><rdf:RDF><cc:Work
       rdf:about=""><dc:format>image/svg+xml</dc:format><dc:type
         rdf:resource="http://purl.org/dc/dcmitype/StillImage" /></cc:Work></rdf:RDF></metadata><defs
   id="defs113" />
<style
   type="text/css"
   id="style2">
	.st0{fill:url(#flowRoot2762_1_);stroke:#000000;stroke-width:0.8378;}
	.st1{fill:url(#SVGID_1_);stroke:#000000;stroke-width:0.815;stroke-miterlimit:10;}
	.st2{fill:url(#text3751_1_);stroke:#000000;stroke-width:0.8389;}
	.st3{fill:url(#SVGID_2_);stroke:#000000;stroke-width:0.75;stroke-miterlimit:10;}
	.st4{fill:url(#flowRoot3683_1_);stroke:#000000;stroke-width:0.7848;}
	.st5{fill:url(#text3899_1_);stroke:#000000;stroke-width:0.8244;}
	.st6{fill:#4D4D4D;}
	.st7{fill:#808080;}
	.st8{fill:url(#path3098_1_);stroke:#000000;stroke-width:0.838;}
	.st9{fill:url(#path4921_1_);stroke:#000000;stroke-width:0.838;}
	.st10{fill:url(#flowRoot2865_1_);stroke:#000000;stroke-width:0.838;}
</style>
<sodipodi:namedview
   showgrid="false"
   showguides="true"
   pagecolor="#ffffff"
   inkscape:cy="256.14318"
   inkscape:cx="210.07301"
   inkscape:zoom="0.7"
   bordercolor="#666666"
   id="base"
   borderopacity="1.0"
   inkscape:pageopacity="0.0"
   inkscape:pageshadow="2"
   inkscape:document-units="mm"
   inkscape:current-layer="layer1"
   inkscape:window-width="1038"
   inkscape:window-height="700"
   inkscape:window-x="92"
   inkscape:window-y="22"
   inkscape:guide-bbox="true"
   inkscape:window-maximized="0">
	</sodipodi:namedview>
<g
   id="layer1"
   transform="translate(-128.4431,-60.87543)"
   inkscape:label="Layer 1"
   inkscape:groupmode="layer">
	
		<linearGradient
   id="flowRoot2762_1_"
   gradientUnits="userSpaceOnUse"
   x1="1091.4542"
   y1="60.5413"
   x2="1134.3113"
   y2="6.2556"
   gradientTransform="matrix(0.8681 -4.019387e-002 -4.019387e-002 -0.8681 -468.0157 262.9089)">
		<stop
   offset="0"
   style="stop-color:#000066"
   id="stop5" />
		<stop
   offset="1"
   style="stop-color:#00004F"
   id="stop7" />
	</linearGradient>
	<path
   id="flowRoot2762"
   class="st0"
   d="M503.3,220l-27.6-1.6c-0.7-5.7-1.4-10.8-2.3-15.3c-1.2-6.5-1.8-11.7-1.5-15.7   c0.3-5.4,1.2-10.3,2.8-14.6c-4-1.6-6-4.2-5.8-7.8c0.2-3.4,1.2-6.5,3-9.1l1.3,0.1c0.3,1.4,0.7,2.3,1.4,2.9c0.7,0.6,2.1,1.2,4.3,1.8   c3.3,1,4.8,3.9,4.5,8.8c-0.1,1.2-0.2,2.2-0.5,2.9c-2.2,0.6-4.1,0.9-5.9,0.8c-1,3.7-1.6,7.9-1.8,12.5c-0.3,5.9,1.2,13.2,4.6,21.7   l1.5,0c5-8.8,9.5-20.1,13.7-33.7c-4-1.9-5.9-4.7-5.7-8.3c0.2-3.1,1.2-5.9,3-8.3l1.3,0.1c0.3,2.1,1.1,3.3,2.6,3.8l3.1,0.9   c3.3,1,4.8,3.6,4.6,7.8c-0.1,1.5-0.3,2.8-0.7,3.9c-1.5,0.4-3.4,0.6-5.6,0.4c-3.1,12.4-7.3,23.6-12.6,33.6l15.7,0.9   c1.8-5.5,6.4-13.3,13.9-23.5c1.9-2.6,2.9-4.8,3-6.6c0.1-1.9-0.7-3.2-2.5-4l-0.6-0.3c-3.2-1.4-4.8-3.7-4.6-6.7   c0.2-3.5,1.3-6.5,3.4-9.2l1.3,0.1c0.1,1.8,0.9,3,2.3,3.6l2.7,1.2c3.1,1.4,4.5,4,4.3,7.8c-0.2,3.3-1.9,7.5-5.3,12.5   c-3.3,5.1-6.4,10.7-9,16.9C506.9,206.6,504.8,213.1,503.3,220L503.3,220z" />
	
		<linearGradient
   id="SVGID_1_"
   gradientUnits="userSpaceOnUse"
   x1="559.2581"
   y1="-408.1404"
   x2="556.6358"
   y2="-476.4008"
   gradientTransform="matrix(1 0 0 1 -256.8862 641.9557)">
		<stop
   offset="0"
   style="stop-color:#000066"
   id="stop11" />
		<stop
   offset="1"
   style="stop-color:#00004F"
   id="stop13" />
	</linearGradient>
	<path
   class="st1"
   d="M281.3,211c-2.7,4.6-4.3,8.7-4.7,12.4c-0.4,3.7,0.3,7.3,1.9,10.7l-1.1,0.6c-1.6-3.1-2.9-6.7-3.8-10.7   c-0.8-4-1.2-8.3-0.9-12.5c0.3-4.2,0.9-8.2,1.9-11.8c-0.5-3.9-0.5-7.2-0.2-9.9c0.6-4,2.2-7.6,4.6-11c2.3-3.4,5.8-6.4,10.3-9   c7-4.1,14-5.4,21.1-3.9c7.1,1.5,12.5,5.4,16,11.4c3.4,5.8,4.1,12.1,1.9,19.1c-2.2,6.9-6.8,12.5-13.8,16.7   c-5.7,3.3-11.6,4.9-17.7,4.4C290.8,217,285.6,214.9,281.3,211z M323.6,178.6c-2.3-4-5.7-6.2-10.1-6.9c-5.5-0.8-12.1,1-19.9,5.6   c-7.6,4.4-12.4,9.4-14.8,14.9c-1.7,4.2-1.4,8.3,0.9,12.2c2.4,4.1,5.9,6.4,10.5,7.1c5.4,0.7,11.8-1.1,19.1-5.3   c5.6-3.3,9.8-6.8,12.7-10.7c2.3-3,3.4-5.9,3.6-8.7C325.8,183.9,325.1,181.2,323.6,178.6z"
   id="path16" />
	
		<linearGradient
   id="text3751_1_"
   gradientUnits="userSpaceOnUse"
   x1="415.7635"
   y1="169.7414"
   x2="320.0493"
   y2="267.938"
   gradientTransform="matrix(0.486 0.4603 0.4828 -0.4696 110.5101 -73.7064)">
		<stop
   offset="0"
   style="stop-color:#000066"
   id="stop18" />
		<stop
   offset="1"
   style="stop-color:#00004F"
   id="stop20" />
	</linearGradient>
	<path
   id="text3751"
   class="st2"
   d="M429.5-1.3l-10.2-8.4l-35.8,39.7l-6.9-5.7l35.8-39.7l-4.9-4.1l4.9-5.5l22,18.2L429.5-1.3z    M395.5-15.5c-3.8,4.2-8.4,6.9-13.6,7.9c-5.3,1-10.5,0.3-15.8-2l1.8,23l-8.8-0.2l-3.4-41l8.9,0.1l0.7,8.6c0,0.3,0.4,0.7,1,1.2   c3.2,2.7,7.2,3.5,12.1,2.5c4.3-0.9,7.8-2.7,10.5-5.7c2-2.3,3.1-5.1,3.1-8.6c0.1-3.8-1.2-6.7-3.7-8.8c-1.7-1.4-3.4-2.2-5.2-2.5   c-2-0.3-3.7,0.3-4.9,1.8c-1.9,2.1-1.4,4.2,1.3,6.5c0.6,0.5,1.4,1,2.2,1.4l-4.6,5.1c-1.3-0.5-2.7-1.4-4.4-2.8   c-2.7-2.2-4-4.9-4.1-7.9c-0.1-2.8,0.9-5.4,3-7.7c2.7-3,6.2-4.3,10.5-4.1c4.1,0.2,7.8,1.8,11.2,4.6c5.1,4.2,7.7,9,8,14.3   C401.4-24.8,399.5-20,395.5-15.5L395.5-15.5z" />
	
		<linearGradient
   id="SVGID_2_"
   gradientUnits="userSpaceOnUse"
   x1="631.8959"
   y1="-514.3005"
   x2="607.8248"
   y2="-581.1601"
   gradientTransform="matrix(1 0 0 1 -256.8862 641.9557)">
		<stop
   offset="0"
   style="stop-color:#D40000"
   id="stop24" />
		<stop
   offset="1"
   style="stop-color:#570000"
   id="stop26" />
	</linearGradient>
	<path
   class="st3"
   d="M379.3,102.2c2.9,2.8,4.6,5.6,5.2,8.3c0.8,3.8,0.2,7.4-1.9,10.8c-1.6,2.6-3.9,4.6-6.9,6   c-3,1.4-6.1,1.9-9.5,1.3c-3.3-0.6-7.7-2.5-13.1-5.9l-22.7-14l0.9-1.4l1.8,1.1c2,1.2,3.9,1.5,5.6,0.6c1.1-0.6,2.6-2.3,4.4-5.2   L364,70.1c2-3.2,2.9-5.5,2.8-6.7c-0.2-1.7-1.3-3.1-3.1-4.2l-1.8-1.1l0.9-1.4l20.8,12.9c3.9,2.4,6.8,4.7,8.8,6.7   c3,3.1,4.7,6.4,5.1,9.9c0.4,3.5-0.3,6.8-2.2,9.8c-1.6,2.6-3.8,4.5-6.6,5.6C385.9,102.8,382.8,103,379.3,102.2z M346.5,113.5   c2.3,2.4,4.8,4.4,7.5,6.1c4.3,2.7,8.2,3.6,11.8,3c3.5-0.7,6.3-2.6,8.2-5.6c1.3-2,2-4.3,2.1-6.8s-0.6-5-2.2-7.5s-4.1-4.8-7.5-6.9   c-1.5-0.9-2.7-1.7-3.8-2.3c-1.1-0.6-2-1-2.7-1.3L346.5,113.5z M362,88.6c0.8,0.7,1.7,1.5,2.8,2.3s2.3,1.6,3.6,2.4   c3.5,2.1,6.3,3.4,8.6,3.6c2.2,0.3,4.3-0.1,6.3-1.2s3.5-2.6,4.8-4.6c1.9-3,2.4-6.4,1.4-9.9c-1-3.6-3.6-6.7-8.1-9.5   c-2.4-1.5-4.7-2.5-6.9-3.1L362,88.6z"
   id="path29" />
	
		<linearGradient
   id="flowRoot3683_1_"
   gradientUnits="userSpaceOnUse"
   x1="304.9876"
   y1="87.7754"
   x2="204.192"
   y2="197.8678"
   gradientTransform="matrix(0.6207 0.1362 0.1329 -0.606 297.7432 134.0216)">
		<stop
   offset="0"
   style="stop-color:#000066"
   id="stop31" />
		<stop
   offset="1"
   style="stop-color:#00004F"
   id="stop33" />
	</linearGradient>
	<path
   id="flowRoot3683"
   class="st4"
   d="M507,58l-4.8,5.3l-4.7-5.5l4.7-5.4L507,58z M511.8,67.8L507,73l-4.8-5.5l4.7-5.2L511.8,67.8   z M502.2,69l-4.8,5.3l-4.8-5.4l4.7-5.3L502.2,69z M502.4,107.4l-2.9-0.9c-1.5-0.5-2.7-1.1-3.6-1.9c-1-0.8-1.9-1.9-2.7-3.3   c-1.4,0.8-2.5,1.2-3.4,1.3c-1.3,0.1-3.1-0.1-5.3-0.8l-4.5-1.4c-0.8,2.6-2.2,5-4.1,7.1c-2.4,2.8-5.4,4.6-8.8,5.6   c-4.3,1.2-9.2,1-14.6-0.7c-4.9-1.5-8.3-3.7-10.3-6.5c-2.1-3.1-2.5-6.9-1-11.4c0.8-2.4,1.8-4.8,3.1-7.2c1.3-2.3,2.8-4.6,4.5-6.9   c1-1.4,2.7-3.4,5-6.2l1.2,1.2c-3,3.5-5.2,6.4-6.5,8.6c-1.3,2.2-2.3,4.2-2.9,6.2c-1.1,3.5-0.9,6.5,0.7,9c1.6,2.5,4.4,4.4,8.4,5.7   c4.7,1.5,9.2,1.9,13.5,1.1c5.3-0.9,8.7-3.5,10.1-7.7c0.9-2.8,1.3-5.7,1.2-8.5c-0.1-2.2-0.4-4.5-1.2-6.7l5.8-7.8   c0.5,2.7,0.6,5,0.5,7c-0.2,2.7-1,6.3-2.4,10.6l4.5,1.4c2.3,0.7,4.1,0.8,5.3,0.3c1.1-0.4,1.9-1.4,2.3-2.9c0.3-0.8,0.5-1.7,0.7-2.5   c0.2-0.9,0.3-1.8,0.5-2.9l2.3-2.1l-0.7,4.3c-0.4,2.9-0.3,5.2,0.2,6.7c0.6,1.7,1.8,2.8,3.6,3.4c0.6,0.2,1.1,0.1,1.5-0.2   c0.4-0.3,0.8-0.8,1-1.4c0.5-1.4,0.6-3.1,0.3-4.9c-0.2-1.4-0.5-2.8-1.1-4.3l3.9-3.9c0.4,2.5,0.7,4.3,0.7,5.1c0,2-0.6,4.6-1.7,8   L502.4,107.4z" />
	
		<linearGradient
   id="text3899_1_"
   gradientUnits="userSpaceOnUse"
   x1="657.3282"
   y1="261.5309"
   x2="578.7568"
   y2="358.1667"
   gradientTransform="matrix(0.6601 5.941423e-002 6.000381e-002 -0.6536 -174.7353 261.4758)">
		<stop
   offset="0"
   style="stop-color:#000066"
   id="stop37" />
		<stop
   offset="1"
   style="stop-color:#00004F"
   id="stop39" />
	</linearGradient>
	<path
   id="text3899"
   class="st5"
   d="M286.1,114.1l2,0.4c-1,4.6-2.7,7.8-5.1,9.5c-2.4,1.7-5,2.3-8,1.7c-2.4-0.5-4.5-1.7-6.4-3.5   c-1.9-1.9-3.1-6-3.5-12.4l-1.2-18.1l-23.2,26.2l-10.7-2.2l32.9-35.5c-0.2-5.5-0.9-9.7-2.2-12.6c-1.3-2.9-3.3-4.6-5.9-5.2   c-2.2-0.4-4.2-0.2-6,0.7c-1.9,0.9-3.2,2.7-4,5.4l-2-0.4c1-4.3,2.9-7.5,5.5-9.7c2.7-2.2,5.6-2.9,8.8-2.2c2,0.4,3.8,1.5,5.4,3.2   c1.6,1.7,2.7,4.2,3.3,7.7c0.7,3.4,1.4,10.4,2.1,20.9l1.1,14.8c0.4,6.1,1.3,10.3,2.7,12.7c1.4,2.3,3.3,3.7,5.8,4.3   C281.6,120.4,284.5,118.6,286.1,114.1L286.1,114.1z" />
	<g
   id="XMLID_3_">
		<path
   class="st6"
   d="M206.9,278.3c2.7,0.1,5.4,0.1,8,0.1c0.9,0,2.5-0.1,4.7-0.2c2.2-0.1,3.7-0.1,4.4-0.1c4.6,0,8.1,0.9,10.5,2.8    s3.5,4.5,3.5,8.1c0,5.6-2.7,9.6-8.4,11.5c3.2,0.6,5.8,1.9,7.5,3.9c1.7,2.1,2.6,4.6,2.6,7.8c0,4.5-1.5,8.2-4.5,10.7    c-3,2.5-7.4,3.7-12.7,3.7c-1,0-2.3,0-3.5-0.1c-1.2-0.1-2.6-0.1-4.1-0.1c-2.5,0-5.1,0-7.8,0.1l-0.1-1.4l3.9-1.2    c0.6-0.2,0.8-0.5,0.8-1c0-0.9,0-2,0-3.1c0-1.1,0-2.4,0-3.7v-27.9c0-1.1,0-2.2,0-3.2c0-0.9,0-1.8,0-2.6c0-0.6-0.3-1-0.8-1.1    l-3.9-1.3L206.9,278.3z M217.8,299.8c1.3,0,2.6,0,4,0c3.1,0,5.4-0.8,7.1-2.5c1.7-1.6,2.4-4,2.4-7.2c0-3.3-0.8-5.6-2.5-7.1    c-1.6-1.4-4-2.2-7.1-2.2c-0.6,0-1.1,0-1.8,0c-0.7,0-1.3,0.1-2.1,0.2V299.8z M217.8,302.6v21c0.7,0.2,1.3,0.4,2.2,0.5    c0.8,0.1,1.6,0.1,2.3,0.1c3.5,0,6.1-0.9,7.9-2.8c1.8-1.9,2.7-4.5,2.7-8.2c0-3.6-0.9-6.2-2.7-8c-1.8-1.8-4.7-2.6-8.9-2.6    C220.1,302.5,218.9,302.5,217.8,302.6z"
   id="path43" />
		<path
   class="st6"
   d="M254.7,322.2c0,0.7,0.3,1.1,0.8,1.3l3.2,1.1l0.1,1.5c-2.5-0.1-4.8-0.1-7-0.1c-2.1,0-4.5,0-7.5,0.1l-0.2-1.5    l3.7-1.3c0.5-0.2,0.8-0.6,0.8-1.2c0-1,0.1-2.6,0.1-5v-16c0-3,0-5.2-0.1-6.3c0-0.7-0.3-1.1-0.8-1.3l-3.7-1.3l-0.1-1.5    c2.9,0.1,5.4,0.1,7.5,0.1c2.2,0,4.3,0,6.9-0.1l0.1,1.5l-3.1,1.1c-0.5,0.2-0.8,0.6-0.8,1.2c0,1-0.1,2.6-0.1,5v15.1l14.6-18.1v-1.7    c0-0.7-0.3-1.1-0.8-1.3l-3.2-1.1l-0.1-1.5c2.5,0.1,4.8,0.1,7,0.1c2.1,0,4.5,0,7.5-0.1l0.2,1.5l-3.7,1.3c-0.5,0.2-0.8,0.6-0.8,1.2    c0,1-0.1,2.6-0.1,5v16c0,3,0,5.2,0.1,6.3c0,0.7,0.3,1.1,0.8,1.3l3.7,1.3l0.1,1.5c-2.9-0.1-5.4-0.1-7.5-0.1s-4.3,0-6.9,0.1    l-0.1-1.5l3.1-1.1c0.5-0.2,0.8-0.6,0.8-1.2c0-1,0.1-2.6,0.1-5v-16.3l-14.7,18V322.2L254.7,322.2z"
   id="path45" />
		<path
   class="st6"
   d="M293.9,315.8c0,1.5,0,2.8,0,3.8c0,1,0,1.8,0,2.4c0,0.7,0.3,1.1,0.8,1.3l3.1,1.1l0.1,1.5    c-2.5-0.1-4.8-0.1-7-0.1s-4.5,0-7.5,0.1l-0.2-1.5l3.7-1.3c0.5-0.2,0.8-0.6,0.8-1.2c0-0.5,0-1.1,0-1.9c0-0.8,0-1.8,0-3v-16    c0-1.5,0-2.8,0-3.8s0-1.8,0-2.4c0-0.7-0.3-1.1-0.8-1.3l-3.7-1.3l-0.1-1.5c2.8,0.1,5.3,0.1,7.5,0.1c2.1,0,4.3,0,6.9-0.1l0.1,1.5    l-3.1,1.1c-0.5,0.2-0.8,0.6-0.8,1.2c0,0.5,0,1.1,0,1.9c0,0.8,0,1.8,0,3v7.3h1.7c1.2,0,2.3-0.1,3.1-0.3c0.8-0.2,1.6-0.6,2.2-1.2    c0.6-0.6,1.1-1.4,1.5-2.5c0.4-1.1,0.8-2.5,1.1-4.3c0.4-1.8,0.7-3.3,0.9-4.4s0.7-1.8,1-2.3c0.4-0.5,0.9-0.8,1.6-0.9    c0.7-0.1,1.5-0.2,2.5-0.2c1.2,0,2.8,0.1,4.7,0.2l0.1,2c-1.1,0-2.1,0.2-2.9,0.5c-0.8,0.3-1.5,0.8-2.1,1.3c-0.6,0.6-1,1.2-1.4,1.9    c-0.4,0.7-0.8,1.5-1,2.3c-0.4,0.8-0.7,1.6-0.9,2.3c-0.3,0.7-0.7,1.4-1,2.1c-0.4,0.7-0.8,1.3-1.2,1.9c-0.5,0.6-0.9,1.2-1.5,1.7    c0.8,1.3,1.7,2.7,2.5,4.3c0.8,1.5,1.6,2.9,2.4,4.4c0.8,1.5,1.5,2.9,2.3,4.2c0.8,1.2,1.4,2.2,2.2,3c0.6,0.6,1.1,1,1.7,1.3    c0.6,0.2,1.2,0.5,2,0.7l0.1,1.5c-0.5,0.1-1,0.2-1.6,0.2c-0.6,0-1.2,0.1-1.8,0.1c-0.7,0-1.2,0-1.7-0.1c-0.5,0-0.9-0.1-1.3-0.2    c-0.4-0.1-0.8-0.2-1-0.4s-0.7-0.4-0.9-0.6c-0.8-0.6-1.4-1.4-2.1-2.5c-0.7-1.1-1.4-2.4-2.2-3.8c-0.6-1.2-1.2-2.4-1.9-3.7    c-0.7-1.2-1.3-2.5-2.1-3.7c-0.2-0.3-0.4-0.6-0.5-0.8c-0.2-0.2-0.3-0.4-0.5-0.6c-0.2-0.2-0.4-0.3-0.7-0.4c-0.3-0.1-0.6-0.1-0.9-0.1    h-2.2V315.8L293.9,315.8z"
   id="path47" />
		<path
   class="st6"
   d="M328.1,322.2c0,0.7,0.3,1.1,0.8,1.3l3.2,1.1l0.1,1.5c-2.5-0.1-4.8-0.1-7-0.1c-2.1,0-4.5,0-7.5,0.1l-0.2-1.5    l3.7-1.3c0.5-0.2,0.8-0.6,0.8-1.2c0-1,0.1-2.6,0.1-5v-16c0-3,0-5.2-0.1-6.3c0-0.7-0.3-1.1-0.8-1.3l-3.7-1.3l-0.1-1.5    c2.9,0.1,5.4,0.1,7.5,0.1c2.1,0,4.3,0,6.9-0.1l0.1,1.5l-3.1,1.1c-0.5,0.2-0.8,0.6-0.8,1.2c0,1-0.1,2.6-0.1,5v15.1l14.6-18.1v-1.7    c0-0.7-0.3-1.1-0.8-1.3l-3.2-1.1l-0.1-1.5c2.5,0.1,4.8,0.1,7,0.1c2.1,0,4.5,0,7.5-0.1l0.2,1.5l-3.7,1.3c-0.5,0.2-0.8,0.6-0.8,1.2    c0,1-0.1,2.6-0.1,5v16c0,3,0,5.2,0.1,6.3c0,0.7,0.3,1.1,0.8,1.3l3.7,1.3l0.1,1.5c-2.9-0.1-5.4-0.1-7.5-0.1c-2.1,0-4.3,0-6.9,0.1    l-0.1-1.5l3.1-1.1c0.5-0.2,0.8-0.6,0.8-1.2c0-1,0.1-2.6,0.1-5v-16.3l-14.7,18V322.2z"
   id="path49" />
		<path
   class="st6"
   d="M356.3,293.8l-0.2-1.3c3.5-0.8,6.9-1.7,10.1-2.6l0.3,0.3v3.7c3.2-2.6,6.4-4,9.4-4c3.9,0,7.1,1.6,9.4,4.8    c2.3,3.1,3.5,7.4,3.5,12.5c0,6.2-1.5,11.2-4.4,14.9c-2.9,3.6-7.3,5.5-12.7,5.5c-1.6,0-3.3-0.2-5.1-0.6v8.4c0,2.5,0,4.4,0.1,5.4    c0,0.8,0.3,1.2,0.8,1.4l4.1,1.4l0.1,1.5c-3.3-0.1-6-0.1-8-0.1c-2.1,0-4.5,0-7.4,0.1l-0.1-1.5l3.6-1.3c0.5-0.2,0.8-0.6,0.8-1.2    c0-1.8,0.1-4.7,0.1-8.5v-15.6c0-11.3,0-18.4-0.1-21.5L356.3,293.8z M366.5,323.1c1.8,0.5,3.6,0.7,5.3,0.7c3.5,0,6.1-1.3,7.9-4    c1.8-2.6,2.6-6.5,2.6-11.4c0-4.7-0.8-8.2-2.5-10.6c-1.7-2.3-4.1-3.5-7.3-3.5c-2.3,0-4.2,0.6-6.1,1.7L366.5,323.1L366.5,323.1z"
   id="path51" />
		<path
   class="st6"
   d="M420,323.4c-1.8,1.3-3.6,2.3-5.5,2.9c-1.9,0.6-3.6,0.9-5.2,0.9c-4.6,0-8.4-1.6-11.2-4.8    c-2.8-3.1-4.2-7.7-4.2-13.4c0-5.7,1.3-10.3,4-13.9c2.6-3.5,6.2-5.4,10.7-5.4c3.7,0,6.7,1.3,8.8,4.1c2.1,2.6,3.1,6.5,3.1,11.1    c0,0.7,0,1.4-0.1,2.1h-20c0,5.5,1,9.4,3.2,11.7c2.1,2.3,5.4,3.5,10,3.5c2,0,4.1-0.2,6.5-0.7V323.4z M413.7,303.9v-1.1    c0-3.6-0.5-6.2-1.4-7.8c-0.9-1.5-2.4-2.3-4.1-2.3c-2.5,0-4.3,1.1-5.6,3.2c-1.3,2.2-2,4.9-2.2,8L413.7,303.9L413.7,303.9z"
   id="path53" />
		<path
   class="st6"
   d="M451.2,322c0,0.7,0.3,1.1,0.8,1.3l3.6,1.3l0.1,1.5c-2.8-0.1-5.3-0.1-7.5-0.1c-2.1,0-4.3,0-6.9,0.1l-0.1-1.5    l3.1-1.1c0.6-0.2,0.8-0.6,0.8-1.2c0-0.5,0-1.2,0-2s0-1.8,0-3v-7.5c-3.3,1.5-6.5,2.2-9.5,2.2c-2.7,0-4.8-0.7-6.4-2.2    c-1.5-1.5-2.3-3.8-2.3-7.1v-2.1c0-1.5,0-2.7,0-3.6c0-0.9,0-1.6,0-2.2c0-0.7-0.3-1.1-0.8-1.3l-3.7-1.3l-0.1-1.5    c2.8,0.1,5.4,0.1,7.5,0.1c1,0,2.1,0,3.2,0c1,0,2.3,0,3.5-0.1l0.1,1.5l-2.9,1c-0.5,0.2-0.8,0.6-0.8,1.2c0,0.5,0,1.2,0,2    c0,0.8,0,1.8,0,3v2.5c0,1.8,0.6,3.2,1.7,4.3c1.1,1,2.6,1.5,4.5,1.5c2.2,0,4.1-0.3,6.1-0.9v-5.9c0-1.5,0-2.8,0-3.8    c0-1.1,0-1.9,0-2.5c-0.1-0.7-0.4-1.1-0.8-1.3l-2.9-1l-0.1-1.5c1.3,0.1,2.5,0.1,3.6,0.1s2.2,0,3.2,0c2.1,0,4.5,0,7.5-0.1l0.1,1.5    l-3.6,1.3c-0.5,0.2-0.8,0.6-0.8,1.2c0,0.5,0,1.2-0.1,2c0,0.8,0,1.8,0,3v16c0,1.5,0,2.8,0,3.8C451.2,320.6,451.2,321.4,451.2,322z"
   id="path55" />
		<path
   class="st6"
   d="M489.6,322c0,0.7,0.3,1.1,0.8,1.3l3.7,1.3l0.1,1.5c-2.9-0.1-5.4-0.1-7.5-0.1c-2.1,0-4.3,0-6.9,0.1l-0.1-1.5    l3.1-1.1c0.5-0.2,0.8-0.6,0.8-1.2c0-1,0.1-2.6,0.1-5v-8.3h-13.8v6.8c0,3,0,5.2,0.1,6.3c0,0.7,0.3,1.1,0.8,1.3l3.1,1.1l0.1,1.5    c-2.5-0.1-4.8-0.1-7-0.1c-2.1,0-4.5,0-7.5,0.1l-0.2-1.5l3.7-1.3c0.5-0.2,0.8-0.6,0.8-1.2c0-1,0.1-2.6,0.1-5V301c0-3,0-5.1-0.1-6.3    c0-0.7-0.3-1.1-0.8-1.3l-3.7-1.3l-0.1-1.5c2.9,0.1,5.4,0.1,7.5,0.1c2.2,0,4.3,0,6.9-0.1l0.1,1.5l-3.1,1.1    c-0.5,0.2-0.8,0.6-0.8,1.2c0,1-0.1,2.6-0.1,5v6.3h13.8v-4.8c0-3,0-5.2-0.1-6.3c0-0.7-0.3-1.1-0.8-1.3l-3.1-1.1l-0.1-1.5    c2.5,0.1,4.8,0.1,7,0.1c2.1,0,4.5,0,7.5-0.1l0.2,1.5l-3.7,1.3c-0.5,0.2-0.8,0.6-0.8,1.2c0,1-0.1,2.6-0.1,5v16    C489.6,318.8,489.6,320.9,489.6,322z"
   id="path57" />
		<path
   class="st6"
   d="M508.4,322.2c0,0.7,0.3,1.1,0.8,1.3l3.2,1.1l0.1,1.5c-2.5-0.1-4.8-0.1-7-0.1c-2.1,0-4.5,0-7.5,0.1l-0.2-1.5    l3.7-1.3c0.5-0.2,0.8-0.6,0.8-1.2c0-1,0.1-2.6,0.1-5v-16c0-3,0-5.2-0.1-6.3c0-0.7-0.3-1.1-0.8-1.3l-3.7-1.3l-0.1-1.5    c2.9,0.1,5.4,0.1,7.5,0.1s4.3,0,6.9-0.1l0.1,1.5l-3.1,1.1c-0.5,0.2-0.8,0.6-0.8,1.2c0,1-0.1,2.6-0.1,5v15.1l14.6-18.1v-1.7    c0-0.7-0.3-1.1-0.8-1.3l-3.2-1.1l-0.1-1.5c2.5,0.1,4.8,0.1,7,0.1c2.1,0,4.5,0,7.5-0.1l0.2,1.5l-3.7,1.3c-0.5,0.2-0.8,0.6-0.8,1.2    c0,1-0.1,2.6-0.1,5v16c0,3,0,5.2,0.1,6.3c0,0.7,0.3,1.1,0.8,1.3l3.7,1.3l0.1,1.5c-2.9-0.1-5.4-0.1-7.5-0.1c-2.1,0-4.3,0-6.9,0.1    l-0.1-1.5l3.1-1.1c0.5-0.2,0.8-0.6,0.8-1.2c0-1,0.1-2.6,0.1-5v-16.3l-14.7,18V322.2z"
   id="path59" />
		<path
   class="st6"
   d="M547.6,315.8c0,1.5,0,2.8,0,3.8c0,1,0,1.8,0,2.4c0,0.7,0.3,1.1,0.8,1.3l3.1,1.1l0.1,1.5    c-2.5-0.1-4.8-0.1-7-0.1c-2.1,0-4.5,0-7.5,0.1l-0.2-1.5l3.7-1.3c0.5-0.2,0.8-0.6,0.8-1.2c0-0.5,0-1.1,0-1.9c0-0.8,0-1.8,0-3v-16    c0-1.5,0-2.8,0-3.8s0-1.8,0-2.4c0-0.7-0.3-1.1-0.8-1.3l-3.7-1.3l-0.1-1.5c2.8,0.1,5.3,0.1,7.5,0.1c2.1,0,4.3,0,6.9-0.1l0.1,1.5    l-3.1,1.1c-0.5,0.2-0.8,0.6-0.8,1.2c0,0.5,0,1.1,0,1.9c0,0.8,0,1.8,0,3v7.3h1.7c1.2,0,2.3-0.1,3.1-0.3c0.8-0.2,1.6-0.6,2.2-1.2    c0.6-0.6,1.1-1.4,1.5-2.5c0.4-1.1,0.8-2.5,1.1-4.3c0.4-1.8,0.7-3.3,0.9-4.4c0.3-1,0.7-1.8,1-2.3c0.4-0.5,0.9-0.8,1.6-0.9    c0.7-0.1,1.5-0.2,2.5-0.2c1.2,0,2.8,0.1,4.7,0.2l0.1,2c-1.1,0-2.1,0.2-2.9,0.5c-0.8,0.3-1.5,0.8-2.1,1.3c-0.6,0.6-1,1.2-1.4,1.9    c-0.4,0.7-0.8,1.5-1,2.3c-0.4,0.8-0.7,1.6-0.9,2.3c-0.3,0.7-0.7,1.4-1,2.1c-0.4,0.7-0.8,1.3-1.2,1.9c-0.5,0.6-0.9,1.2-1.5,1.7    c0.8,1.3,1.7,2.7,2.5,4.3c0.8,1.5,1.6,2.9,2.4,4.4c0.8,1.5,1.5,2.9,2.3,4.2c0.8,1.2,1.4,2.2,2.2,3c0.6,0.6,1.1,1,1.7,1.3    c0.6,0.2,1.2,0.5,2,0.7l0.1,1.5c-0.5,0.1-1,0.2-1.6,0.2s-1.2,0.1-1.8,0.1c-0.7,0-1.2,0-1.7-0.1c-0.5,0-0.9-0.1-1.3-0.2    c-0.4-0.1-0.8-0.2-1-0.4c-0.3-0.2-0.7-0.4-0.9-0.6c-0.8-0.6-1.4-1.4-2.1-2.5c-0.7-1.1-1.4-2.4-2.2-3.8c-0.6-1.2-1.2-2.4-1.9-3.7    c-0.7-1.2-1.3-2.5-2.1-3.7c-0.2-0.3-0.4-0.6-0.5-0.8c-0.2-0.2-0.3-0.4-0.5-0.6c-0.2-0.2-0.4-0.3-0.7-0.4c-0.3-0.1-0.6-0.1-0.9-0.1    h-2.2V315.8L547.6,315.8z"
   id="path61" />
	</g>
	<g
   id="XMLID_2_">
		<path
   class="st7"
   d="M245.7,351.6l-0.9,0.1l-0.5-6.1c-1.4-0.4-2.9-0.6-4.6-0.6c-3.9,0-7.2,1.7-9.6,5.2c-2.6,3.5-3.7,7.6-3.7,12.4    c0,3.6,0.9,6.4,2.8,8.5s4.5,3.1,7.7,3.1c2.1,0,4.3-0.4,6.5-1.3l0.3,0.9c-2.8,2-5.9,3.1-9.3,3.1c-3.7,0-6.7-1.2-9.1-3.7    c-2.2-2.6-3.4-5.8-3.4-10c0-5.8,1.8-10.6,5.4-14.3c3.6-3.7,8-5.6,13.5-5.6c2.2,0,4.8,0.3,7.5,0.9l0.1,0.2L245.7,351.6z"
   id="path64" />
		<path
   class="st7"
   d="M259.3,353.6c-0.5,2.1-1,4-1.4,5.8c-0.4,1.8-0.7,3.4-1.2,4.8c-0.4,1.4-0.7,2.8-1.1,3.9    c-0.4,1.1-0.7,2.2-1.1,3c-0.4,0.9-0.7,1.8-1.2,2.4c-0.4,0.6-0.7,1.2-1.3,1.7c-0.4,0.4-0.9,0.7-1.4,0.9s-1.1,0.3-1.6,0.3    c-1,0-2-0.2-3.1-0.6c0.2-1.7,0.6-3.1,0.9-4.5l0.2-0.1c1.3,1.1,2.2,1.8,3.1,1.8c0.5,0,1-0.2,1.4-0.7c0.4-0.4,0.7-1.1,1.2-2.1    c0.4-0.8,0.7-1.9,1.2-2.9c0.4-1.1,0.7-2.2,1.1-3.3c0.3-1.1,0.6-2.3,0.9-3.3c0.3-1,0.5-2.1,0.7-2.9c0.2-0.8,0.4-1.5,0.5-2.2    c0.1-0.5,0.2-0.9,0.2-0.9c0-0.3-0.1-0.5-0.4-0.6c-0.6-0.1-1.5-0.2-2.6-0.3l0.1-1.2c2.1-0.3,4.1-0.6,5.7-0.8s2.9-0.3,3.9-0.3    c1.4,0,2.4,0.2,3,0.5c0.6,0.3,0.9,1,0.9,2c0,0.3,0,0.7-0.1,1.1c-0.1,0.4-0.1,0.8-0.2,1.3l-2.6,15.5c-0.1,0.2-0.1,0.5-0.1,0.9    c0,0.7,0.2,1.1,0.7,1.3s1.3,0.3,2.4,0.3l-0.1,1c-1.7,0.7-3.1,1.1-4.3,1.1c-0.7,0-1.4-0.2-1.8-0.7s-0.6-1.2-0.6-2.4    c0-0.2,0-0.5,0.1-0.8c0-0.3,0.1-0.6,0.1-1l2.5-15.8c0-0.2,0-0.3,0.1-0.5c0-0.1,0-0.2,0-0.3c0-0.5-0.2-0.9-0.5-1.1    s-0.7-0.3-1.5-0.3C261.2,353.5,260.4,353.5,259.3,353.6z"
   id="path66" />
		<path
   class="st7"
   d="M282.3,351.2c2.6,0,4.6,0.9,6.2,2.9c1.5,2,2.2,4.6,2.2,7.9c0,4.2-1,7.6-2.9,10.4c-2,2.8-4.5,4.1-7.6,4.1    c-2.6,0-4.7-0.9-6.2-2.9c-1.5-2-2.2-4.5-2.2-7.7c0-4.2,1-7.7,2.9-10.5C276.7,352.5,279.1,351.2,282.3,351.2z M282,353.4    c-1.9,0-3.4,1.2-4.5,3.7c-1.2,2.5-1.7,5.5-1.7,9c0,2.6,0.4,4.5,1.3,6.1c0.7,1.4,2,2.2,3.5,2.2c1.9,0,3.5-1.2,4.6-3.8    s1.7-5.5,1.7-8.9c0-2.6-0.4-4.6-1.3-6.1C284.7,354.1,283.5,353.4,282,353.4z"
   id="path68" />
		<path
   class="st7"
   d="M317.8,336.7c-0.7,2.3-1.5,3.8-2.2,5c-0.7,1-1.7,1.5-2.7,1.5c-0.4,0-0.7,0-1.1-0.1c-0.4-0.1-0.7-0.2-1.3-0.3    c-0.5-0.1-0.9-0.3-1.4-0.4c-0.5-0.1-1-0.2-1.4-0.2c-1.6,0-3.1,1.1-4.5,3.4c-1.4,2.3-2.5,5.3-3.2,9c2.2-2,4.6-2.9,6.7-2.9    c2.1,0,3.7,0.9,5,2.9c1.3,2,1.9,4.3,1.9,7.3c0,4-1,7.5-3,10.4c-2,2.9-4.5,4.3-7.6,4.3c-2.7,0-4.8-1.1-6.2-3.3    c-1.4-2.3-2.1-5.4-2.1-9.3c0-2.7,0.3-5.2,0.7-7.4s1.2-4.3,2.1-6.3c0.9-1.9,1.8-3.5,2.9-5c1.1-1.4,2.1-2.7,3.3-3.7    c1.1-1,2.1-1.8,3.2-2.3c1.1-0.5,1.9-0.7,2.7-0.7c0.3,0,0.5,0,0.7,0.1c0.3,0,0.6,0.1,0.9,0.1c0.4,0.1,0.7,0.1,1.2,0.2    c0.4,0.1,0.7,0.1,1.2,0.1c0.5,0,1-0.2,1.4-0.5s1-1.1,1.8-2.4L317.8,336.7z M299.4,356.6c-0.3,1.8-0.5,3.2-0.6,4.3    c-0.1,1.2-0.2,2.4-0.2,3.4c0,3.3,0.4,5.9,1.3,7.5c0.7,1.7,2,2.5,3.6,2.5c1.8,0,3.3-1.1,4.5-3.5s1.8-5.2,1.8-8.3    c0-2.5-0.4-4.3-1.3-5.8c-0.9-1.4-2.1-2.1-3.6-2.1C303,354.6,301.2,355.2,299.4,356.6z"
   id="path70" />
		<path
   class="st7"
   d="M327.6,351.2c2.6,0,4.6,0.9,6.2,2.9c1.5,2,2.2,4.6,2.2,7.9c0,4.2-1,7.6-2.9,10.4c-2,2.8-4.5,4.1-7.6,4.1    c-2.6,0-4.7-0.9-6.2-2.9c-1.5-2-2.2-4.5-2.2-7.7c0-4.2,1-7.7,2.9-10.5C321.9,352.5,324.3,351.2,327.6,351.2z M327.2,353.4    c-1.9,0-3.4,1.2-4.5,3.7c-1.2,2.5-1.7,5.5-1.7,9c0,2.6,0.4,4.5,1.3,6.1c0.7,1.4,2,2.2,3.5,2.2c1.9,0,3.5-1.2,4.6-3.8    s1.7-5.5,1.7-8.9c0-2.6-0.4-4.6-1.3-6.1C329.9,354.1,328.7,353.4,327.2,353.4z"
   id="path72" />
		<path
   class="st7"
   d="M359.6,358.9c0-1.7-1.9-4.1-3.5-5.6c-0.1-0.1-0.1-0.2-0.3-0.2c-0.1-0.2-0.3-0.2-0.6-0.4    c-0.1-0.1-0.2-0.2-0.3-0.2c-0.3-0.2-0.6-0.2-0.7-0.3c-0.1,0-0.2-0.1-0.3-0.2c-0.7-0.2-1.7-0.4-2.2-0.4c-3,0-5.7,1.5-7.8,4.4    c-2.1,2.9-3.2,6.5-3.2,10.6c0,3,0.7,5.4,2,7.2c1.4,1.8,3.2,2.7,5.5,2.7c1.9,0,3.6-0.6,5-1.7c0.1-0.1,0.2-0.2,0.3-0.3    c-0.2,1.1,0,0.7-0.5,2.5c-1,3.8-2.2,6.6-3.6,8.4c-1.6,1.9-3.2,2.5-4.8,1.8c-0.6-0.2-1-0.5-1.5-0.8c-0.5-0.3-0.7-0.7-1.1-1.1    c-0.2-0.3-0.5-0.7-0.7-1.1c-0.2-0.4-0.3-0.7-0.5-0.9l-1,0.9c0.6,1.7,1.4,3,2.1,4c0.7,1,1.2,1.2,2.4,1.8c1.2,0.5,2.2,0.6,3.5,0.3    c1.1-0.2,2.2-0.9,3.3-2.1c1.1-1.1,2.1-2.6,3-4.4c0.9-1.9,1.7-4.2,2.2-7.1c0.6-3,3-14.3,3.2-17.5    C359.6,358.9,359.6,358.9,359.6,358.9z M355.4,363.2c-0.4,2.3-0.9,4.3-1.5,5.9c-0.6,1.7-1.4,3-2.2,4.1c-0.9,1.1-2,1.7-3.2,1.7    c-1.4,0-2.2-0.6-2.9-1.9c-0.6-1.2-0.7-3-0.7-5.5c0-3.5,0.7-6.8,2.1-9.8c1.4-3,3.1-4.4,5.1-4.4c0.7,0,1.5,0.2,2.1,0.7    c0,0,0.1,0,0.1,0.1c0.6,0.4,1.2,1.1,1.8,2.2c0.1,0.1,0.1,0.2,0.1,0.2C355.8,358.6,355.7,360.9,355.4,363.2z"
   id="path74" />
		<path
   class="st7"
   d="M366.4,375.9l-3.7,0.3l3.3-20c0-0.3,0.1-0.5,0.1-0.8c0-0.2,0.1-0.4,0.1-0.6c0-0.5-0.2-0.8-0.5-0.9    c-0.4-0.2-1.2-0.3-2.5-0.3l0.1-1c1.9-0.8,3.4-1.2,4.5-1.2c0.7,0,1.3,0.2,1.7,0.6c0.4,0.4,0.6,1,0.6,2c0,0.4,0,0.7-0.1,1.1    l-1.2,7.1h8.7l1.7-10l3.7-0.3l-3.2,19.5c-0.1,0.4-0.1,0.6-0.1,0.9c0,0.2,0,0.4,0,0.5c0,0.7,0.2,1.1,0.7,1.3s1.3,0.3,2.2,0.3    l-0.1,1c-1.8,0.7-3.2,1.1-4.3,1.1c-0.7,0-1.5-0.2-1.9-0.7s-0.7-1.2-0.7-2.4c0-0.2,0-0.5,0-0.9c0-0.3,0.1-0.8,0.2-1.5l1.1-6.8h-8.7    L366.4,375.9z"
   id="path76" />
		<path
   class="st7"
   d="M402.9,352l3.7-0.3l-3.2,19.2c-0.1,0.6-0.2,1.1-0.2,1.4c0,0.8,0.2,1.3,0.7,1.5c0.4,0.3,1.2,0.4,2.4,0.3    l-0.1,1c-1.8,0.7-3.1,1.1-4,1.1c-0.7,0-1.5-0.3-1.9-0.9c-0.5-0.6-0.7-1.4-0.7-2.7c0-0.3,0-0.6,0-0.9c-2.6,3.1-4.9,4.6-6.9,4.6    c-1.6,0-2.8-0.6-3.6-1.8c-0.9-1.2-1.3-2.9-1.3-5c0-0.9,0.1-2,0.3-3.1l1.7-10.6c0-0.3,0.1-0.5,0.1-0.8c0-0.2,0.1-0.4,0.1-0.6    c0-0.4-0.2-0.7-0.5-0.9c-0.3-0.2-1.2-0.3-2.5-0.3l0.1-1c1.9-0.8,3.4-1.2,4.5-1.2c0.7,0,1.3,0.2,1.7,0.6c0.4,0.4,0.6,1,0.6,2    c0,0.4,0,0.7-0.1,1.1l-2.1,11.9c-0.1,0.8-0.2,1.5-0.2,2.2c0,1.3,0.3,2.4,0.7,3.1c0.4,0.7,1.3,1,2.2,1c1.4,0,3.1-1.1,5.2-3.3    L402.9,352z"
   id="path78" />
		<path
   class="st7"
   d="M418.4,387.7l2.2-0.9c0.4-0.2,0.6-0.4,0.7-0.8c0.1-0.6,0.2-1.4,0.4-2.5c0.2-0.9,0.3-2.1,0.6-3.4l3.9-24    c0.1-0.8,0.2-1.2,0.2-1.4c0-0.4-0.2-0.7-0.5-0.9s-1.2-0.3-2.5-0.3l0.1-1c1.9-0.8,3.4-1.2,4.5-1.2c0.7,0,1.3,0.2,1.7,0.6    c0.4,0.4,0.6,1,0.6,1.9c0,0.1,0,0.2,0,0.3s0,0.2,0,0.3l0,0c3-2.1,4.9-3.1,5.8-3.1c1.6,0,3,0.8,4.1,2.5s1.7,3.8,1.7,6.6    c0,4.6-1.1,8.5-3.4,11.7c-2.2,3.2-5.1,4.7-8.8,4.7c-0.9,0-1.9-0.1-3-0.4l-0.9,5.9c-0.2,0.9-0.3,1.7-0.4,2.3    c-0.1,0.6-0.2,1.1-0.2,1.4c-0.1,0.5,0.1,0.8,0.4,0.9l2.8,0.9l-0.1,1.1c-2.1-0.1-3.7-0.1-5-0.1c-1.4,0-3,0-4.9,0.1L418.4,387.7z     M427,374.1c0.9,0.3,1.9,0.4,2.8,0.4c2.4,0,4.4-1.3,5.9-4s2.1-5.7,2.1-9c0-2-0.3-3.5-0.9-4.8c-0.6-1.3-1.4-2-2.4-2    c-1.3,0-2.9,0.5-4.7,1.7L427,374.1z"
   id="path80" />
		<path
   class="st7"
   d="M448.9,364.5c-0.1,0.6-0.1,1.2-0.1,1.8c0,2.3,0.4,4,1.3,5.3c0.9,1.2,2.1,1.9,3.6,1.9c1.8,0,3.6-0.6,5.6-2    l0.5,0.9c-1,1.2-2.1,2.4-3.6,3.1c-1.5,0.8-3,1.1-4.4,1.1c-2.1,0-3.7-0.9-5-2.7c-1.3-1.8-1.9-4.1-1.9-6.9c0-1.4,0.1-2.8,0.4-4.1    c0.3-1.3,0.7-2.6,1.2-3.7c0.5-1.1,1.1-2.3,1.8-3.2c0.7-0.9,1.5-1.9,2.2-2.5c0.9-0.7,1.8-1.2,2.8-1.7c1-0.4,2-0.6,3.1-0.6    c1.7,0,3.1,0.4,4,1.3c0.9,0.9,1.4,2.2,1.4,3.6c0,2.7-1.3,4.6-3.9,6.1C455.4,363.6,452.4,364.3,448.9,364.5z M449.1,362.6    c3-0.2,5.1-0.9,6.6-2c1.5-1.1,2.2-2.5,2.2-4.1c0-0.9-0.2-1.7-0.7-2.2c-0.5-0.5-1.1-0.8-1.8-0.8c-1.4,0-2.7,0.8-3.9,2.5    C450.5,357.5,449.8,359.7,449.1,362.6z"
   id="path82" />
		<path
   class="st7"
   d="M463.6,353.5l0.1-1c1.9-0.8,3.3-1.2,4.4-1.2c0.7,0,1.3,0.2,1.7,0.7c0.4,0.5,0.6,1.1,0.6,1.9    c0,0.3,0,0.6-0.1,1l-0.7,3.9c-0.1,0.4-0.1,0.8-0.1,1.2c0,1,0.3,1.9,0.9,2.5c0.6,0.6,1.3,0.8,2.1,0.8c1.6,0,3.1-0.7,4.5-2.1    l1.6-9.3l3.7-0.3l-3.3,20c-0.1,0.3-0.1,0.6-0.1,0.9c0,0.7,0.2,1.1,0.7,1.3c0.5,0.2,1.2,0.3,2.2,0.3l-0.1,1    c-1.8,0.7-3.2,1.1-4.2,1.1c-0.7,0-1.4-0.2-1.9-0.7c-0.4-0.5-0.7-1.2-0.7-2.4c0-0.2,0-0.5,0-0.8c0-0.3,0.1-0.6,0.1-1l1.3-8.2    c-1.9,2-3.9,2.9-6.1,2.9c-1.5,0-2.6-0.5-3.5-1.4c-0.9-0.9-1.3-2.3-1.3-4c0-0.6,0.1-1.3,0.2-2.1l0.5-2.7c0.1-0.6,0.2-1.1,0.2-1.3    c0-0.5-0.2-0.8-0.5-1C465.8,353.6,464.9,353.5,463.6,353.5z"
   id="path84" />
		<path
   class="st7"
   d="M490.3,375.9l-3.7,0.3l3.3-20c0-0.3,0.1-0.5,0.1-0.8c0-0.2,0.1-0.4,0.1-0.6c0-0.5-0.2-0.8-0.5-0.9    c-0.4-0.2-1.2-0.3-2.5-0.3l0.1-1c1.9-0.8,3.4-1.2,4.5-1.2c0.7,0,1.3,0.2,1.7,0.6c0.4,0.4,0.6,1,0.6,2c0,0.4,0,0.7-0.1,1.1    l-1.2,7.1h8.7l1.7-10l3.7-0.3l-3.2,19.5c-0.1,0.4-0.1,0.6-0.1,0.9c0,0.2,0,0.4,0,0.5c0,0.7,0.2,1.1,0.7,1.3    c0.5,0.2,1.3,0.3,2.2,0.3l-0.1,1c-1.8,0.7-3.2,1.1-4.3,1.1c-0.7,0-1.5-0.2-1.9-0.7s-0.7-1.2-0.7-2.4c0-0.2,0-0.5,0-0.9    c0-0.4,0.1-0.8,0.2-1.5l1.1-6.8h-8.7L490.3,375.9z"
   id="path86" />
		<path
   class="st7"
   d="M526.8,352l3.7-0.3l-3.2,19.2c-0.1,0.6-0.2,1.1-0.2,1.4c0,0.8,0.2,1.3,0.7,1.5c0.4,0.3,1.2,0.4,2.4,0.3    l-0.1,1c-1.8,0.7-3.1,1.1-4,1.1c-0.7,0-1.5-0.3-1.9-0.9c-0.5-0.6-0.7-1.4-0.7-2.7c0-0.3,0-0.6,0-0.9c-2.6,3.1-4.9,4.6-6.9,4.6    c-1.6,0-2.8-0.6-3.6-1.8c-0.9-1.2-1.3-2.9-1.3-5c0-0.9,0.1-2,0.3-3.1l1.7-10.6c0-0.3,0.1-0.5,0.1-0.8c0-0.2,0.1-0.4,0.1-0.6    c0-0.4-0.2-0.7-0.5-0.9c-0.3-0.2-1.2-0.3-2.5-0.3l0.1-1c1.9-0.8,3.4-1.2,4.5-1.2c0.7,0,1.3,0.2,1.7,0.6c0.4,0.4,0.6,1,0.6,2    c0,0.4,0,0.7-0.1,1.1l-2.1,11.9c-0.1,0.8-0.2,1.5-0.2,2.2c0,1.3,0.3,2.4,0.7,3.1c0.4,0.7,1.3,1,2.2,1c1.4,0,3.1-1.1,5.2-3.3    L526.8,352z"
   id="path88" />
		<path
   class="st7"
   d="M538.5,375.9l-3.7,0.3l3.3-20c0-0.3,0.1-0.5,0.1-0.8c0-0.2,0.1-0.4,0.1-0.6c0-0.5-0.2-0.8-0.5-0.9    c-0.4-0.2-1.3-0.3-2.5-0.3l0.1-1c1.8-0.8,3.3-1.2,4.5-1.2c0.7,0,1.3,0.2,1.7,0.6c0.4,0.4,0.6,1,0.6,2c0,0.5,0,0.8-0.1,1.1    l-1.9,11.3l0.1,0.1c1.6-2.8,3.1-5.1,4.3-7c1.2-2,2.1-3.5,3-4.7c0.7-1,1.5-1.9,2.4-2.5c0.9-0.6,2-0.8,3.3-0.8    c0.7,0,1.4,0.1,2.1,0.2c-0.3,1.4-0.7,3-1.2,4.6l-0.1,0.1c-0.7-0.3-1.6-0.5-2.5-0.5c-0.7,0-1.6,0.2-2.1,0.6    c-0.6,0.4-1.2,0.9-1.7,1.5c-0.6,0.9-1.5,2.2-2.6,3.8c0.7,2,1.5,3.7,2.1,5.5c0.7,1.8,1.5,3.3,2.1,4.5c0.3,0.6,0.6,1,0.9,1.3    c0.3,0.3,0.6,0.5,0.9,0.7c0.3,0.1,0.7,0.2,1,0.3c0.4,0,0.9,0,1.5,0l-0.1,1c-1.9,0.8-3.3,1.1-4.4,1.1c-0.6,0-1.1-0.1-1.5-0.4    c-0.4-0.3-0.7-0.7-1.2-1.3c-0.3-0.4-0.6-1-0.9-1.7c-0.3-0.7-0.7-1.4-1-2.3c-0.3-0.8-0.7-1.7-1.1-2.6c-0.4-0.9-0.7-1.8-1.1-2.7    c-0.5,0.6-0.9,1.3-1.4,2.1c-0.5,0.8-1,1.4-1.5,2.2L538.5,375.9z"
   id="path90" />
	</g>
	
		<linearGradient
   id="path3098_1_"
   gradientUnits="userSpaceOnUse"
   x1="1115.2944"
   y1="291.829"
   x2="922.3553"
   y2="490.8291"
   gradientTransform="matrix(0.2791 0 0 -0.2944 114.9083 317.5446)">
		<stop
   offset="0"
   style="stop-color:#000066"
   id="stop93" />
		<stop
   offset="1"
   style="stop-color:#00004F"
   id="stop95" />
	</linearGradient>
	<path
   id="path3098"
   class="st8"
   d="M399,234.1c-0.1-0.4-1-10.1-2.1-21.6c-1.1-11.5-2.1-21.5-2.1-22.3l-0.2-1.4l-0.8,1.5   c-1.7,3.3-3.7,5.6-4.7,5.6c-0.4,0-0.8-0.1-0.9-0.3c-0.1-0.1,0.3-1.4,0.9-2.7c3.5-8.1,6.2-18.6,6.2-24.6c0-2.2,0.3-3.6,0.6-3.6   c0.7,0,7.8,3.4,7.8,3.7c0,0.2-0.5,0.8-1.1,1.4c-1,0.9-1.2,1.4-2.1,4.4c-0.5,1.8-0.9,3.4-0.9,3.5c0.1,0.1,4.4-0.3,9.5-0.9l9.4-1   l2.1-2.3c1.1-1.2,2.2-2.3,2.3-2.3c0.3,0,4.8,3.7,5.7,4.7c0.4,0.5,0.7,1.1,0.7,1.3c-0.1,0.3-2.2,0.6-7.4,1.2c-4,0.4-7.4,0.8-7.4,0.9   s0.1,2.5,0.4,5.4s0.5,5.6,0.5,5.9c0,0.5,0.2,0.5,1.9,0.4l1.9-0.2l1.8-2.1c1.3-1.6,1.9-2.1,2.2-1.9c1.1,0.7,6,5,6.1,5.3   c0.1,0.5-0.3,0.5-7.6,1.3c-3.2,0.3-5.9,0.6-5.9,0.7c0,0,1,10.4,1.1,11.1c0.1,0.3,0.4,0.4,1.6,0.4c1.5-0.1,1.6-0.1,3.5-2.3   c1.1-1.2,2.2-2.2,2.4-2.2c0.5,0,6.4,5.2,6.4,5.6c0,0.1-0.1,0.3-0.2,0.4c-0.1,0.1-3.1,0.4-6.6,0.8c-3.5,0.4-6.5,0.7-6.6,0.8   c-0.2,0.2,0.9,12.3,1.2,12.5c0.1,0.1,1.3,0.1,2.8-0.1l2.6-0.3l2.3-2.4c1.2-1.3,2.4-2.4,2.6-2.4c0.4,0,7,5.5,7,5.9   c0,0.1-0.1,0.3-0.2,0.4c-0.1,0.1-7.1,0.9-15.5,1.8c-8.4,0.9-15.4,1.7-15.4,1.8c-0.1,0.1,0,1.4,0.2,3l0.3,2.9l-0.9,0.8   c-0.8,0.7-4,2.3-4.7,2.3C399.2,234.7,399,234.4,399,234.1z M408.8,222.2c2.1-0.2,3.8-0.5,3.8-0.5c0.1-0.1-1-12.4-1.2-12.6   c-0.1-0.2-8.1,0.6-8.4,0.8c-0.2,0.1,0.8,12.1,1,12.6C404.1,222.7,405,222.6,408.8,222.2z M407.7,206.4c1.8-0.2,3.3-0.4,3.3-0.5   c0.2-0.2-0.8-11.1-1.1-11.3c-0.2-0.2-8.2,0.6-8.5,0.9c-0.1,0.1,0.1,2.4,0.3,5.2c0.3,2.8,0.5,5.3,0.5,5.7c0,0.6,0.1,0.7,1.1,0.5   C404,206.8,406,206.6,407.7,206.4z M405.6,192c1.7-0.2,3.3-0.4,3.6-0.4l0.6-0.1l-0.6-5.9c-0.5-5.5-0.6-5.9-1.1-5.9   c-1.4,0-7.8,0.9-8,1.1c-0.1,0.1,0,2.6,0.3,5.5s0.5,5.5,0.5,5.7C401,192.4,401.7,192.4,405.6,192z M369.7,228.3   c-1.4-1.8-1.8-2.5-1.8-3.2c0-0.9,0-0.9,2-1.3c3-0.5,10.9-2.7,16.4-4.5c2.7-0.9,5-1.5,5.1-1.5s0.2,0.4,0.2,0.8c0,0.5-0.6,1-3.3,2.5   c-1.8,1-6.2,3.6-9.8,5.7c-3.6,2.1-6.6,3.8-6.7,3.8C371.6,230.6,370.7,229.6,369.7,228.3z M369.5,212.4c-0.8-1.6-1.4-3.1-1.4-3.4   s0.3-0.5,0.7-0.6c1-0.3,3.3-2.6,4.7-4.9c1.4-2.1,5-9.9,4.8-10.2c-0.1-0.1-0.6,0.1-1.1,0.4c-1.8,1-9.3,4.2-9.7,4.2   c-0.4,0-3.6-4.6-3.6-5.3c0-0.2,0.6-0.7,1.3-1c1.2-0.7,1.4-0.9,2.5-3.4c2.3-5.2,4.3-11.7,5.6-18.2c0.4-2,0.7-3,1-3   c0.6,0,5.9,3.9,5.9,4.4c0,0.2-0.5,0.8-1.1,1.2c-0.9,0.6-1.2,1.3-2,3.2c-1.3,3.4-4.2,9.6-6,12.8c-0.8,1.5-1.5,2.7-1.5,2.7   s2.1-0.3,4.7-0.7c2.5-0.4,4.7-0.7,4.8-0.7c0.5,0,3.8-8.3,3.8-9.6c0-1.1,0.9-0.7,3.5,1.5c1.5,1.2,2.7,2.3,2.7,2.4s-0.6,0.7-1.2,1.4   c-0.8,0.8-2.4,3.4-4.5,7.3c-3.5,6.4-6.1,10.9-8.1,13.6c-0.7,0.9-1.2,1.7-1.2,1.8s3-0.3,6.6-0.9c3.6-0.5,7.1-1,7.7-1c1,0,1,0,1,1   c0,1,0,1-1.6,1.5c-4,1.2-11.3,3.8-13.9,5c-1.5,0.7-2.9,1.3-3,1.3S370.3,214,369.5,212.4z M410.7,175.4c-0.2-0.3-0.6-1-0.7-1.7   c-0.8-3.2-2-5.4-4.2-7.7c-1.1-1.1-1.4-1.7-1.4-2.3c0-0.8,0-0.9,1.1-0.7c1.9,0.3,5.6,2.4,7.6,4.4c1.9,1.9,1.9,1.9,1.9,3.5   c0,1.9-0.8,3.5-2.1,4.4C411.9,176,411.3,176,410.7,175.4z" />
	
		<linearGradient
   id="path4921_1_"
   gradientUnits="userSpaceOnUse"
   x1="-94.5902"
   y1="1191.6626"
   x2="-417.8391"
   y2="1619.9673"
   gradientTransform="matrix(0.111 -3.855391e-002 -3.807676e-002 -0.1157 363.0045 140.5967)">
		<stop
   offset="0"
   style="stop-color:#000066"
   id="stop99" />
		<stop
   offset="1"
   style="stop-color:#00004F"
   id="stop101" />
	</linearGradient>
	<path
   id="path4921"
   class="st9"
   d="M274.6,23.5c-0.7-0.3-1.8-1.1-4.3-3.1c-1.9-1.5-3.4-2.8-3.5-2.9c-0.1-0.1-0.1-0.2,0-0.3   c0-0.1,0.8-0.6,1.7-1.1c9.1-5.8,16.8-12.5,22-19.4c6.4-8.4,11.5-18.7,13.8-28.2c0.2-1,0.5-2,0.6-2.2l0.1-0.4l3.7,1.8   c2,1,3.7,1.9,3.8,1.9c0.2,0.3-1.4,5.6-2.5,8.9c-2.7,7.4-6.7,14.9-11,20.7c-5.8,7.7-12.7,14.5-20.9,20.7l-1.6,1.2l0,0.7   c0,0.4,0,0.9-0.1,1.2c-0.1,0.4-0.2,0.5-0.5,0.7C275.6,23.9,275.3,23.9,274.6,23.5z M266.2-6.4c-6.1-1.8-10.3-2.8-14.4-3.4   c-0.8-0.1-1.5-0.3-1.6-0.3c-0.1-0.2,2.4-8.1,2.6-8.1c0.2-0.1,8.5,1.5,10.3,1.9c2,0.5,8.3,2.3,8.4,2.4c0.1,0.1-2.5,8-2.7,8.3   C268.8-5.7,267.6-6,266.2-6.4z M269.9-27.1c-4.2-1.2-6.6-1.8-9.6-2.4c-4.9-1-6.9-1.5-6.9-1.6c0-0.4,1.8-7.6,1.9-7.8   c0.1-0.1,0.2-0.1,0.5-0.1c0.2,0,2.2,0.5,4.5,0.9c2.3,0.5,4.9,1,5.7,1.2c1.6,0.4,6.7,1.7,7.6,2l0.5,0.2l-0.1,0.4   c-0.3,1.3-2.1,7.6-2.2,7.6C271.9-26.6,271-26.8,269.9-27.1z" />
	
		<linearGradient
   id="flowRoot2865_1_"
   gradientUnits="userSpaceOnUse"
   x1="257.9292"
   y1="-91.3243"
   x2="248.1065"
   y2="-83.1033"
   gradientTransform="matrix(5.5422 3.3198 4.1645 -6.0082 -539.9929 -1380.0615)">
		<stop
   offset="0"
   style="stop-color:#000066"
   id="stop105" />
		<stop
   offset="1"
   style="stop-color:#00004F"
   id="stop107" />
	</linearGradient>
	<path
   id="flowRoot2865"
   class="st10"
   d="M487.2-51.1c0.7,0.4,2.3,1.8,4.9,4.1c0.8,0.8,1.6,1.4,2.4,1.8c2.2,1.3,5.5,3.2,10.1,5.6   l5.6,2.5c3.6,2.2,5,3.8,4.2,4.9c-0.3,0.4-1.2,1.1-2.6,1.9l-1.1,0.8L500-19c-0.5,0.5-0.5,1.3,0.1,2.3c0.6,1.1,0.7,1.9,0.3,2.4   c-0.8,1.2-3.6,0.4-8.2-2.3l-1.2-0.6l-6.7-3.6c-3.6-1.9-5.3-2.9-5.3-2.9c-0.3-0.2-1,0.2-2.1,1.2l-1.5,1.1l-1,0.2l-0.5-0.2   c-1-0.6,0.4-4,4.3-10.2c0.2-0.3,0.3-0.5,0.4-0.7l4.5-7.7c1.2-2,1.9-3.2,2.1-3.8c0.6-2,0.1-3.9-1.5-5.8c-0.9-1.1-1.3-1.9-1-2.5   C483.3-52.8,484.8-52.5,487.2-51.1L487.2-51.1z M480.4-26.6l10.9,6.2c2.1,0.9,3.8,0.9,5.1,0c1-0.7,3.2-3.5,6.7-8.3   c1.1-1.5,2-2.8,2.8-3.9c0.6-0.8,0.8-1.5,0.4-2c-0.2-0.2-0.4-0.5-0.8-0.7l-13.9-8.1L480.4-26.6z M477-14.7l3.1,2.2   c3.7,2.6,6,4.1,6.8,4.6l7.5,4.5l7.7,4.4l0.1,0.1l3.3,1.1l0.1,0c3,1.8,4.1,3.1,3.5,4.1c-0.3,0.4-1,0.8-2.3,1.4   c-0.4,0.2-0.7,0.4-0.8,0.5c-3.2,3-4.8,4.6-5,4.8c-0.1,0.3,0,0.7,0.4,1.4c0.3,0.5,0.3,1,0.2,1.3c-0.1,0.2-0.1,0.3-0.2,0.4   c-0.2,0.3-0.6,0.4-1.1,0.4c-0.9-0.1-3.6-1.4-8.2-4l-14-8.4c-1.4-0.8-2.6-0.6-3.5,0.7L472,8.7c-1.4,2-0.6,3.8,2.4,5.6l7.6,4.4   l0.1,0.1c3.8,2.3,5.8,3.4,6.1,3.6c0.3,0.2,0.5,0.3,0.8,0.4l5.4,1.7c0.3,0.1,0.6,0.2,0.8,0.4c3.6,2.2,4.9,3.9,3.9,5.4   c-0.8,1.2-2.2,1.2-4.1,0l-21.5-12.8c-0.5-0.3-1-0.6-1.5-0.9c-3.8-2.3-5.7-4.5-5.8-6.7c0-1.3,0.5-2.8,1.6-4.3l2.4-3.5   c0.9-1.3,0.7-2.8-0.7-4.2l-1.5-1.7c-0.2-0.3-0.1-0.6,0.1-0.9c0.5-0.7,1.9-0.4,4.1,0.8c0.2,0.1,0.4,0.2,0.5,0.3l5.3,4.7   c0.3,0.2,0.5,0.3,0.7,0.4c3.2,1.9,8.1,4.8,14.6,8.5c2,1.2,3.8,1.2,5.2,0c0.5-0.5,1.1-1.3,1.8-2.3c1-1.4,1.5-2.2,1.5-2.4   c0.1-0.5-0.1-1-0.7-1.4l-16-9.2c-0.2-0.1-1.4-0.6-3.7-1.4c-0.5-0.1-0.9-0.3-1.2-0.5c-1.1-0.6-2.3-2.1-3.6-4.5l-0.9-2   c-0.1-0.5-0.1-0.9,0.1-1.2C476.1-15,476.5-15,477-14.7L477-14.7z M518.7-8.5c-3.8,5.5-6.9,8.5-9.1,8.9l-1,0l-0.2-0.1   c-0.8-0.5,0.3-2.9,3.2-7.2l13.9-20l1.1-1.8l0.1-0.1c1.1-1.6,0.7-4.1-0.9-7.5c-1.2-2.3-1.7-3.8-1.6-4.4c0.4-0.6,1.3-0.5,2.7,0.4   c1.9,1.1,3.9,3.2,6,6c1.1,1.4,1.6,2.5,1.6,3.2c0,0.5-0.2,1.1-0.7,1.7c-2.6,3.2-3.9,4.8-3.9,4.8L520.4-11c1,0.6,3.1,1.4,6.3,2.3   c1.3,0.4,2.4,0.8,3.2,1.3c3.4,2,4.7,3.7,3.7,5.1c-0.9,1.3-3.6,0.6-8.2-2.2L520-7.8L518.7-8.5z" />
</g>
</svg>
