<?xml version="1.0" encoding="UTF-8"?>
<!DOCTYPE svg PUBLIC '-//W3C//DTD SVG 1.1//EN' 'http://www.w3.org/Graphics/SVG/1.1/DTD/svg11.dtd'>
<svg viewBox="0 0 135 155" xmlns="http://www.w3.org/2000/svg" xmlns:xlink="http://www.w3.org/1999/xlink">
 <radialGradient id="a" cx="244.57" cy="-427.14" r="68.69" gradientTransform="matrix(1 0 0 -1 -213.76 -386.5)" gradientUnits="userSpaceOnUse">
  <stop stop-color="#fff" offset="0"/>
  <stop stop-color="#eaeaeb" offset=".483"/>
  <stop stop-color="#a9abae" offset=".945"/>
  <stop stop-color="#999b9e" offset="1"/>
 </radialGradient>
 <linearGradient id="b" x1="50.11" x2="96.62" y1="9.84" y2="82.59" gradientUnits="userSpaceOnUse">
  <stop stop-color="#8a8a8a" offset="0"/>
  <stop stop-color="#606060" offset=".569"/>
  <stop stop-color="#fff" offset=".591"/>
  <stop stop-color="#585858" offset=".612"/>
  <stop stop-color="#303030" offset="1"/>
 </linearGradient>
 <linearGradient id="c" gradientUnits="userSpaceOnUse">
  <stop stop-color="#a8a9ab" offset="0"/>
  <stop stop-color="#636668" offset="1"/>
 </linearGradient>
 <linearGradient id="d" x1="19.13" x2="39.63" y1="2.63" y2="98.34" xlink:href="#c"/>
 <linearGradient id="e" x1="14.91" x2="34.91" y1="4.05" y2="97.42" xlink:href="#c"/>
 <linearGradient id="f" x1="38.6" x2="67.68" y1="50.49" y2="50.49" gradientUnits="userSpaceOnUse">
  <stop stop-color="#231f20" offset="0"/>
  <stop stop-color="#474747" offset="1"/>
 </linearGradient>
 <linearGradient id="g" x1="266.49" x2="295.96" y1="-395.28" y2="-485.03" gradientTransform="matrix(1 0 0 -1 -213.76 -386.5)" gradientUnits="userSpaceOnUse">
  <stop stop-color="#fff" offset="0"/>
  <stop stop-color="#fcfcfc" offset=".009"/>
  <stop stop-color="#eee" offset=".066"/>
  <stop stop-color="#e5e5e5" offset=".134"/>
  <stop stop-color="#e3e3e3" offset=".252"/>
  <stop stop-color="#8a8a8a" offset=".336"/>
  <stop stop-color="#b8b8b8" offset=".442"/>
  <stop stop-color="#3b3b3b" offset="1"/>
 </linearGradient>
 <linearGradient id="h" x1="54.3" x2="103.43" y1="12.24" y2="72.99" gradientUnits="userSpaceOnUse">
  <stop stop-color="#eff0f0" offset="0"/>
  <stop stop-color="#f0f1f2" offset=".591"/>
  <stop stop-color="#787878" offset=".599"/>
  <stop stop-color="#eeeff0" offset=".646"/>
  <stop stop-color="#d8d9db" offset="1"/>
 </linearGradient>
 <linearGradient id="i" gradientUnits="userSpaceOnUse">
  <stop stop-color="#fff" offset="0"/>
  <stop stop-color="#e4e5e6" offset="1"/>
 </linearGradient>
 <linearGradient id="j" x1="272.87" x2="302.47" y1="-392.83" y2="-482.96" gradientTransform="matrix(1 0 0 -1 -213.76 -386.5)" xlink:href="#i"/>
 <linearGradient id="k" x1="38.53" x2="63.56" y1="10.64" y2="91.75" gradientUnits="userSpaceOnUse">
  <stop stop-color="#fff" offset="0"/>
  <stop stop-color="#f9f9f9" offset=".747"/>
  <stop stop-color="#d5d7d8" offset="1"/>
 </linearGradient>
 <linearGradient id="l" x1="274.53" x2="255.21" y1="-396.16" y2="-490.19" gradientTransform="matrix(1 0 0 -1 -213.76 -386.5)" xlink:href="#i"/>
 <linearGradient id="m" x1="16.4" x2="21.13" y1="18.44" y2="77.86" gradientUnits="userSpaceOnUse">
  <stop stop-color="#989a9c" offset=".22"/>
  <stop stop-color="#fff" offset=".253"/>
 </linearGradient>
 <linearGradient id="n" x1="237.37" x2="218.85" y1="-388.36" y2="-478.5" gradientTransform="matrix(1 0 0 -1 -213.76 -386.5)" xlink:href="#i"/>
 <linearGradient id="o" x1="259.91" x2="259.9" y1="-479.34" y2="-479.38" gradientTransform="matrix(1 0 0 -1 -213.76 -386.5)" xlink:href="#i"/>
 <linearGradient id="p" x1="268.9" x2="249.5" y1="-394.64" y2="-489.07" gradientTransform="matrix(1 0 0 -1 -213.76 -386.5)" xlink:href="#i"/>
 <linearGradient id="q" x1="254.46" x2="235.03" y1="-391.6" y2="-486.11" gradientTransform="matrix(1 0 0 -1 -213.76 -386.5)" xlink:href="#i"/>
 <linearGradient id="r" x1="262.65" x2="243.16" y1="-392.97" y2="-487.84" gradientTransform="matrix(1 0 0 -1 -213.76 -386.5)" xlink:href="#i"/>
 <linearGradient id="s" x1="271.55" x2="251.19" y1="-390.96" y2="-490.02" gradientTransform="matrix(1 0 0 -1 -213.76 -386.5)" xlink:href="#i"/>
 <linearGradient id="t" x1="274.66" x2="255.26" y1="-395.84" y2="-490.26" gradientTransform="matrix(1 0 0 -1 -213.76 -386.5)" xlink:href="#i"/>
 <linearGradient id="u" x1="221.18" x2="221.37" y1="-454.56" y2="-454.56" gradientTransform="matrix(1 0 0 -1 -213.76 -386.5)" gradientUnits="userSpaceOnUse">
  <stop stop-color="#808080" offset="0"/>
  <stop stop-color="#7a7a7a" offset=".087"/>
  <stop stop-color="#6b6b6b" offset=".36"/>
  <stop stop-color="#686868" offset=".519"/>
  <stop stop-color="#5f5f5f" offset=".638"/>
  <stop stop-color="#4e4e4e" offset=".743"/>
  <stop stop-color="#383838" offset=".841"/>
  <stop stop-color="#1b1b1b" offset=".932"/>
  <stop offset="1"/>
 </linearGradient>
 <linearGradient id="v" x1="221.4" x2="316.03" y1="-449.8" y2="-449.8" gradientTransform="matrix(1 0 0 -1 -213.76 -386.5)" gradientUnits="userSpaceOnUse">
  <stop stop-color="#808080" offset="0"/>
  <stop stop-color="#7a7a7a" offset=".087"/>
  <stop stop-color="#828282" offset=".382"/>
  <stop stop-color="#808080" offset=".518"/>
  <stop stop-color="#797979" offset=".568"/>
  <stop stop-color="#6e6e6e" offset=".603"/>
  <stop stop-color="#6b6b6b" offset=".608"/>
  <stop stop-color="#4e4e4e" offset="1"/>
 </linearGradient>
 <linearGradient id="w" x1="214.59" x2="314.4" y1="-431.36" y2="-431.36" gradientTransform="matrix(1 0 0 -1 -213.76 -386.5)" gradientUnits="userSpaceOnUse">
  <stop stop-color="#555" offset="0"/>
  <stop stop-color="#231f20" offset="1"/>
 </linearGradient>
 <linearGradient id="x" x1="214.9" x2="306.5" y1="-410.88" y2="-410.88" gradientTransform="matrix(1 0 0 -1 -213.76 -386.5)" gradientUnits="userSpaceOnUse">
  <stop stop-color="#a0a0a0" offset="0"/>
  <stop stop-color="#656767" offset=".077"/>
  <stop stop-color="#717375" offset="1"/>
 </linearGradient>
 <linearGradient id="y" gradientUnits="userSpaceOnUse">
  <stop stop-color="#fff" offset="0"/>
  <stop stop-color="#f4f4f4" offset=".078"/>
  <stop stop-color="#cecece" offset=".381"/>
  <stop stop-color="#bfbfbf" offset=".54"/>
  <stop stop-color="#7c7c7c" offset=".836"/>
  <stop stop-color="#a8a8a8" offset=".9"/>
  <stop stop-color="#9a9a9a" offset=".909"/>
  <stop stop-color="#7d7d7d" offset=".933"/>
  <stop stop-color="#686868" offset=".956"/>
  <stop stop-color="#5b5b5b" offset=".979"/>
  <stop stop-color="#575757" offset="1"/>
 </linearGradient>
 <linearGradient id="z" x1="214.33" x2="322.87" y1="-436.51" y2="-424.49" gradientTransform="matrix(1 0 0 -1 -213.76 -386.5)" xlink:href="#y"/>
 <linearGradient id="A" x1="213.89" x2="336.88" y1="-436.48" y2="-422.85" gradientTransform="matrix(1 0 0 -1 -213.76 -386.5)" xlink:href="#y"/>
 <linearGradient id="B" x1="5.09" x2="101.08" y1="56.68" y2="37.31" gradientUnits="userSpaceOnUse">
  <stop stop-color="#ededee" offset="0"/>
  <stop stop-color="#fff" offset=".418"/>
  <stop stop-color="#f8f9f9" offset=".626"/>
  <stop stop-color="#bfc0c2" offset="1"/>
 </linearGradient>
 <linearGradient id="C" x1="7.35" x2="11.84" y1="16.09" y2="16.09" gradientUnits="userSpaceOnUse">
  <stop stop-color="#e2e3e4" offset="0"/>
  <stop stop-color="#fff" offset=".505"/>
 </linearGradient>
 <linearGradient id="D" gradientUnits="userSpaceOnUse">
  <stop stop-color="#ededee" offset="0"/>
  <stop stop-color="#fff" offset=".418"/>
  <stop stop-color="#f8f9f9" offset=".626"/>
  <stop stop-color="#b2b4b6" offset=".951"/>
 </linearGradient>
 <linearGradient id="E" x1="8.09" x2="102.85" y1="67.95" y2="45.41" xlink:href="#D"/>
 <linearGradient id="F" x1="10.54" x2="105.66" y1="78.24" y2="55.62" xlink:href="#D"/>
 <linearGradient id="G" x1="9.31" x2="104.43" y1="73.1" y2="50.48" xlink:href="#D"/>
 <linearGradient id="H" x1="8.62" x2="103.71" y1="70.16" y2="47.54" xlink:href="#D"/>
 <linearGradient id="I" x1="9.94" x2="105.07" y1="75.75" y2="53.12" xlink:href="#D"/>
 <linearGradient id="J" x1="6.46" x2="95.43" y1="35.08" y2="14.56" gradientUnits="userSpaceOnUse">
  <stop stop-color="#fff" offset="0"/>
  <stop stop-color="#fff" offset=".654"/>
  <stop stop-color="#cbccce" offset="1"/>
 </linearGradient>
 <linearGradient id="K" x1="231.23" x2="263.62" y1="-407.87" y2="-407.87" gradientTransform="matrix(1 0 0 -1 -213.76 -386.5)" gradientUnits="userSpaceOnUse">
  <stop stop-color="#696969" offset="0"/>
  <stop stop-color="#2e2e2e" offset=".37"/>
  <stop stop-color="#424242" offset=".455"/>
  <stop stop-color="#303030" offset=".601"/>
  <stop stop-color="#4a4a4a" offset=".695"/>
  <stop stop-color="#666" offset="1"/>
 </linearGradient>
 <linearGradient id="L" x1="231.62" x2="263.49" y1="-407.06" y2="-407.06" gradientTransform="matrix(1 0 0 -1 -213.76 -386.5)" gradientUnits="userSpaceOnUse">
  <stop stop-color="#525252" offset="0"/>
  <stop stop-color="#333" offset=".186"/>
  <stop stop-color="#aeaeae" offset=".354"/>
  <stop stop-color="#adadad" offset=".42"/>
  <stop stop-color="#9d9d9d" offset=".428"/>
  <stop stop-color="#818181" offset=".443"/>
  <stop stop-color="#6a6a6a" offset=".461"/>
  <stop stop-color="#585858" offset=".481"/>
  <stop stop-color="#4c4c4c" offset=".506"/>
  <stop stop-color="#444" offset=".539"/>
  <stop stop-color="#424242" offset=".617"/>
  <stop stop-color="#454545" offset=".668"/>
  <stop stop-color="#bdbdbd" offset="1"/>
 </linearGradient>
 <linearGradient id="M" x1="236.92" x2="235.89" y1="-417.33" y2="-410.53" gradientTransform="matrix(1 0 0 -1 -213.76 -386.5)" gradientUnits="userSpaceOnUse">
  <stop stop-color="#969696" offset="0"/>
  <stop offset="1"/>
 </linearGradient>
 <linearGradient id="N" x1="22.62" x2="23.37" y1="31.73" y2="24.15" gradientUnits="userSpaceOnUse">
  <stop stop-color="#333" offset="0"/>
  <stop offset=".431"/>
  <stop stop-color="#2e2e2e" offset="1"/>
 </linearGradient>
 <radialGradient id="O" cx="251.81" cy="-408.36" r="72.75" gradientTransform="matrix(1 0 0 -1 -213.76 -386.5)" gradientUnits="userSpaceOnUse">
  <stop stop-opacity="0" offset="0"/>
  <stop stop-opacity=".08" offset=".802"/>
  <stop stop-opacity=".39" offset="1"/>
 </radialGradient>
 <path d="m123.08 89.94-19.88-9.42h25.88l-4.28 6.17 4.28 6.08h-6m-111.22-3 19.88-9.34h-25.87l4.28 6.17-4.28 6.09h5.99" fill="#395e99"/>
 <path d="m11.86 89.77 19.88-9.34 71.46.09 19.88 9.25z" fill="#26364c"/>
 <path transform="translate(16.12 14.64)" d="m49.85 17c.01-.61-.39-1.27-.39-1.27l-.03-.06s-.49-.95-1.3-1.23c-.82-.28-1.48.34-1.48.34s-.11.13-.43.49c-.31.36-.51.67-1.2.94s-1.38.2-1.74.03c-.37-.17-.46-.54-.46-.54s-.23-.72-.31-1.05c-.09-.33-.31-1.69-.31-1.69s-.49-2.75-.54-3.3c0 0 1.48-.13 3.69-.78 2.3-.67 3.04-1.21 3.04-1.21s-.43-.16-.48-.66c-.05-.51-.09-1.19-.09-1.19s-.09-.5.48-1.14 1.35-.86 1.76-.95 1.28-.17 2.09-.13 1.27.11 1.59.29c.33.18.36.61.36.61l-.01 1.15s-.04.4.26.53c0 0 .51.31 2.2.13 0 0 .72-.13 1.85-.46 1.13-.34 4.13-1.23 4.55-1.34.43-.11.95-.29 1.65-.47.69-.18 2.04-.63 2.31-.73s1.81-.62 2.93-.81c1.11-.2 2.23-.19 2.81.15 0 0 .36.3.52.66s.48.86.92 1.09c.46.23.75.37 1.88.27 0 0 .02-.1-.4-.37-.42-.28-.99-.7-.99-.7s-.33-.25-.41-.45c-.07-.2-.04-.31-.04-.31l.88-1.41s0-.17.51-.24 1.07-.13 1.74-.31.79-.31.79-.31l.58.18s3.55 2.85 4.66 3.58l.2-.24s.44.02.83.17.98.56.98.56 1.61 1.31 2.07 2.2l.22.68-.1.16s.92 1.31 2.1 2.6c0 0 1.23 1.66 1.69 2.09 0 0-.11-.4-.2-.85l.34-.23.2-.14.62.26c3.58 4.81 6.44 10.42 8.14 16.33l-.12.48.4.5c1.13 4.21 1.73 8.64 1.73 13.21 0 1.12-.04 2.24-.11 3.34l-.3.51.23.56c-2.23 26.1-24.12 46.59-50.8 46.59-18.5 0-34.7-9.85-43.64-24.6l-.1-.37-.21-.15a50.73 50.73 0 0 1 -6.6-19.1l.21-.52-.34-.48a51.607 51.607 0 0 1 .43-14.52l.25-.56-.09-.33a50.655 50.655 0 0 1 6.47-16.8l.68-.38.08.03s.23-.17.35-.22l.08-.02s1.18-1.97 1.63-2.6c0 0 .54-.35.75-.41 0 0 .12-.02.19.08 0 0 .5-.43 1.7-2.05 0-.01.01-.01.01-.02 0 0-.11-.08-.13-.17-.02-.1.11-.59.17-.72s.11-.16.11-.16 1.72-2.03 3.15-3.24c0 0 .26-.2.68-.25 0 0 1.47-.61 3.26-2.18 0 0 .05-.29.48-.86s1.46-1.16 2.22-1.34c.76-.17.9-.04.9-.04l.06.07.52.77s.56-.32 1.41-.6c.85-.29.98-.26.98-.26l.82 1.34-.99 2s-.64 1.42-1.66 2.19c0 0-.47.28-1.12.13s-1.07.33-1.07.33l-.17.14s.14-.02.35-.1c0 0 .16.07.27.22.11.16.91 1.18.91 1.18s.01.84-.42 1.94c-.42 1.1-1.47 2.89-1.47 2.89s-.73 1.42-1.08 2.25-.52 1.77-.49 2.26c0 0 .19.06.71-.2.66-.33 1.08.03 1.08.03s.72.53 1.04.88c.26.29.8 1.77.21 3.22 0 0-.4 1.01-1.38 1.72 0 0-.22.33-1.53.17-.37-.04-.59-.28-1.37-.2-.79.08-1.23.82-1.23.82l.01-.02c-.69 1-1.15 2.46-1.15 2.46l-.06.17s-.24.51-.29 1.75c-.05 1.28.28 3.11.28 3.11s7.88-1.39 9.88-.06l.58.53s.05.17-.03.38c-.08.2-.38.67-.99 1.11s-1.22 1.58-.31 2.3c1.03.82 1.69.77 3.43.47s2.9-1.27 2.9-1.27.97-.72.78-1.63-1.02-1.19-1.02-1.19-.66-.42-.14-1.24c0 0 .14-.69 2.55-1.32s6.81-1.52 10.56-1.99c0 0-2.54-8.22-.74-9.29 0 0 .44-.3 1.22-.41l.72-.04c.13-.03.34.01.8.05.45.04 1 .08 1.68-.44s.7-.82.7-.82" fill="url(#a)"/>
 <path transform="translate(16.12 14.64)" d="m82.45 79.31.45.17c-.03.06-.07.12-.1.18-.86 1.57-.94 1.93-1.36 2.25s-.58.54-1.44.7c-.87.16-1.77 1.18-1.77 1.18s-.88.84-.48.87 1.18-.61 1.18-.61.5-.35.63-.26c.13.1-.54.75-.54.75s-1.16 1.18-2.48 1.98l-.4.21s1.87-1.39 2.76-2.4c0 0 .19-.27-.19.06-.37.33-1.33.82-1.74.82s.02-.56.02-.56.6-.77 1.81-1.76c1.22-.99 2.24-.92 2.24-.92s.23.04.25-.27c.03-.31.31-.86.31-.86s.45-1.03 1.67-2.75c1.22-1.71 1.77-2.19 1.77-2.19s1.59-1.63 2.42-3.26c0 0 .58-1.01-.36-.26-.95.75-2.21 1.7-3.44 2.01s-1.35-.84-1.35-.84-.27-1.88 1.05-3.34c1.19-1.32 2.49-1.27 3.68-1.42 1.19-.14 2.21-1.57 2.21-1.57s.82-.92 1.29-3.8c.22-1.34.07-2.24-.14-2.82l.02-.65-.37-.02c-.08-.11-.14-.15-.14-.15s-.3-.3-.61-.52c-.31-.23-.69-.65-1.06-1.46 0 0-1.02-2.11-.79-5.16s2.76-2.76 2.76-2.76 1.48.14 1.76-.3.55-.99.65-2.22-.4-2.41-.4-2.41-.19-.61-1.05-.71-1.05.17-1.05.17-.26.07-.72 1.09c-.47 1.02-.75 1.49-1.6 1.7s-2.02.1-2.55-.99c-.52-1.07-1.76-3.69-2.35-5.77l.08-.74-.33-.47c-.06-.4-.12-.85-.13-1.24-.03-.99-.31-2.1-.64-3.2-.33-1.11-1.46-2.97-1.67-3.4-.32-.67-.62-.95-1.02-.89s-.34.06-.51.06-.27.21-.31.43c-.04.21-.38 1.32-1.1 1.81-.75.51-1.15.74-2.44.85 0 0-1.49.1-2.66-2.1-1.18-2.2-.88-3.6-.78-4.11s.54-1.25 1.23-1.39 1.12-.18 1.12-.18 1.12-.01 1.6-.07c.55-.07.28-1.01.28-1.01s-.36-2.37-2.35-4.32l-.1-.49-.76-.38c-1.88-2.04-4.35-5.35-4.35-5.35s-1.11-1.05-.17-2.49c0 0 .44-.96 1.74-.79.42.08.46.12.82.2.48.1 1.01.23 1.48-.4 0 0 .44-.79-.27-1.81s-.92-1.74-1.79-1.69c0 0-.4-.06-.79.38-.4.44-1.42.72-2.01.78-.68.07-2.25-.53-3.16-2.08-.51-.87-.75-1.35-.87-1.6l.23-.34.72.08c.19.36.55 1.06.98 1.81.55.98 1.05 1.12 1.37 1.26.33.14 1.05-.07 1.43-.28.39-.21.77-.7 1.43-.74.67-.04 1.63.07 2.31.79s1.53 2.22 1.46 2.93-.11 1.4-1.03 1.7-1.3.04-1.88-.08c-.58-.13-.86-.07-1.1.21s-.51.89-.41 1.16.19.45.75 1.26c.57.81 3.47 4.25 4.03 4.77l-.15.7.97.18c.63.72 1.36 1.67 1.69 2.26.49.91.75 2.34.78 3 .03.67-.3.96-.3.96s-.31.52-2.01.52c-1.52 0-1.61.3-1.61.3s-.47.47-.37 1.62.62 2.34 1.56 3.37c.78.85 2.25-.01 2.75-.3.51-.3.82-1.26.82-1.26s.1-1.22 1.43-1.22c1.38 0 1.97 1.32 1.97 1.32s.96 1.3 1.94 4.12c.48 1.39.57 2.28.57 2.28l.13 1.67-.51.89.73.31c.14.54.35 1.24.69 2.04 0 0 1.01 2.38 1.44 3.29.44.91.9.77 1.26.81 0 0 .85.11 1.16-.28.31-.4.61-1.09.61-1.09s.66-1.81 2.14-1.66c1.48.16 1.84 1.09 2.1 2.17.26 1.07.31 3.23-.48 4.55-.8 1.32-1.69 1.14-1.69 1.14s-1.81-.17-2.23.21c-.41.38-.62.72-.68 1.61s.03 2.34.75 4.08c.63 1.52 1.15 1.36 1.43 1.73s1.19 1.2 1.1 3.27c-.08 2.07-.79 4.15-1.59 5.44-.79 1.29-2 2.05-2 2.05s-.34.21-1.08.31-1.78.09-2.53.51c-.75.43-.99 1.5-1.06 1.97s-.11 1.53.92 1.41c1.03-.11 2.58-1.4 2.58-1.4s1.49-1.1 1.69-.75-.64 1.78-.64 1.78-1.03 1.56-1.9 2.52c-.71.79-1.64 1.87-2.43 3.1l-.84.47z" fill="url(#b)" opacity=".69"/>
 <path transform="translate(16.12 14.64)" d="m23.44 22.73c-.01.01-.01.02-.02.03.01-.01.01-.02.02-.03z" fill="url(#d)"/>
 <path transform="translate(16.12 14.64)" d="m38.19 89.71.16.01c-.16-.15-.37-.28-.62-.41-.7-.37-3.73-2.38-4.67-3.01s-2.58-1.7-3.3-1.48c-.55.17-.48.39-.8.56-.33.16-.69.05-1.5-.38-.82-.43-1.42-.73-3.02-2.24-1.25-1.19 1.6-.12 1.6-.12s.62.26.34-.39-1.68-2.33-2.99-3.69c-1.07-1.1-1.67-1.86-2.44-2.97l-.57-.66.01-.17a.218.218 0 0 1 -.05-.08s-1.87-3.38-1.68-4.62c0 0 .07-.83 1.24-1.19.82-.25.71.54 3.11.98 0 0 2.07.56 2.61-.95s-.57-3.39-.57-3.39-1.45-2.66-3.24-2.76c-.95-.05-.69.59-2.13.93 0 0-1.91.18-2.52-.96-.73-1.39-1.04-2.97-1.01-4.02.02-1 .05-1.08.12-1.37.05-.21.19-.58.25-1.13l-.13-.67.2-.5c0-.26 0-.54-.02-.83-.09-1.66-.21-4.22-.44-5.71-.22-1.49-.63-3.8-1.99-3.87 0 0-.67-.05-1.63.89-.88.86-1.68-.71-1.73-1.66-.05-1.12.13-2.25.41-2.8.28-.54 1.04-.57 1.19-.56s.56.17 1.04.47c.49.31 1.16.31 1.56-.09.4-.39.95-.86 1.17-2.6s.22-3.55.01-5.71l-.23-.48 1.34-.29c0-.02-.02-.13-.03-.19v-.01c0-.02-.01-.03-.01-.05v-.01c0-.02-.01-.04-.01-.06s-.01-.04-.01-.06-.01-.05-.01-.07v-.01c0-.02-.01-.05-.01-.07v-.02c0-.02-.01-.05-.01-.07v-.01c0-.03-.01-.05-.01-.08v-.01c0-.02-.01-.05-.01-.08v-.02c0-.03-.01-.05-.01-.08v-.02c-.01-.03-.01-.05-.01-.08v-.02c0-.03-.01-.06-.01-.09v-.01c0-.03-.01-.06-.01-.08v-.02c0-.03-.01-.06-.01-.09v-.02c0-.03-.01-.06-.01-.09v-.02c0-.03-.01-.06-.01-.09v-.02c0-.03-.01-.06-.01-.09v-.01c0-.03-.01-.07-.01-.1v-.02c0-.03-.01-.07-.01-.1v-.02c0-.03-.01-.07-.01-.1v-.02c0-.03-.01-.07-.01-.1v-.01c0-.03 0-.07-.01-.1v-.02c0-.03 0-.07-.01-.1v-.02-.1-.02-.11-.11-.22-.02-.12-.1c.05-1.24.29-1.75.29-1.75l.06-.16s.46-1.46 1.15-2.46l-.01.02s.45-.74 1.23-.81c.79-.08 1 .16 1.37.2.04 0 .08.01.12.01h.04c.03 0 .05 0 .08.01h.78c.02 0 .03 0 .05-.01h.01c.02 0 .04-.01.05-.01.04-.01.07-.01.1-.02.01 0 .03-.01.04-.01h.01c.01 0 .02-.01.03-.01h.01c.01 0 .02-.01.03-.01h.01c.01 0 .02-.01.02-.01h.01c.01 0 .01-.01.02-.01h.01c.01 0 .01-.01.02-.01h.01c.01 0 .01-.01.02-.01h.01l.01-.01h.01l.01-.01s.01 0 .01-.01.01-.01.01-.01l.01-.01.01-.01v-.01c.33-.24.59-.52.8-.78.01-.02.03-.03.04-.05l.01-.01c.01-.02.03-.03.04-.05l.01-.01c.01-.02.03-.03.04-.05.04-.05.08-.11.11-.16v-.01c.01-.02.02-.03.03-.04l.01-.01c.01-.01.02-.03.02-.04l.01-.01c.01-.01.02-.03.02-.04.02-.03.03-.06.05-.08 0 0 0-.01.01-.01.01-.01.01-.02.02-.03 0-.01.01-.01.01-.02s.01-.02.01-.02c0-.01.01-.02.01-.02 0-.01.01-.02.01-.02 0-.01.01-.01.01-.02s.01-.01.01-.02c.07-.13.1-.21.1-.21.59-1.46.05-2.94-.21-3.22-.32-.35-1.04-.88-1.04-.88s-.43-.36-1.08-.03c-.52.26-.71.2-.71.2-.02-.5.15-1.43.49-2.26s1.08-2.25 1.08-2.25 1.05-1.79 1.47-2.89.42-1.94.42-1.94-.8-1.02-.91-1.18-.27-.22-.27-.22c-.21.08-.35.1-.35.1l.17-.14s.42-.49 1.07-.33 1.12-.13 1.12-.13c1.01-.76 1.65-2.19 1.65-2.19l.99-2-.83-1.34s-.13-.03-.98.26c0 0-.77 1.91-1.73 3.09 0 0-.37.55-.66.42s-.63-.14-.91-.09c-.28.06-1.16.35-1.95 1.41s-.88 1.86-.46 2.1 1.05-.08 1.42-.41c.38-.33.64-.49.76-.47s.09.32.07.41c-.03.09-.15 1.36-1.63 3.91-.37.64-.85 1.59-1.07 2.05l.61.45-1 .5c-.27.76-.61 1.95-.47 2.61.2 1.01 1.16 1.01 1.16 1.01s.62.03 1.34-.35.89 1.24.89 1.51c0 .26-.01 1.73-1.02 2.44 0 0-.41.31-.99.31s-.95-.17-.95-.17-.98-.27-1.59.08c-.6.36-1.33 1.1-1.9 2.17s-1.05 2.99-1.02 4.4c.02 1.11.18 2.16.29 2.88l.67.44-.54.62c.08 1.14.17 3.36.16 4.11-.02.91-.15 2.84-1.12 3.29 0 0-.32.17-.87-.24s-1.13-.43-1.37-.44-1.29.16-1.69 1.31c-.41 1.15-.38 2.69-.29 3.6s.88 2.46 1.87 2.46c0 0 .48.04 1.06-.55.57-.59.9-.64 1.16-.63s.75.27 1.07 2.85c.31 2.44.44 4.44.41 6.67l.61.39-.76.77c-.04.2-.09.42-.14.63-.17.68-.19 1.36-.02 2.57.16 1.21.81 3.72 1.75 4.38 1.25.87 2.07.86 2.92.79.84-.07 1.42-.71 1.42-.71s.33-.34.69-.24 1.35.66 2.06 2.08c.71 1.43.87 2.99-.32 3.27-1.19.27-3.23-.85-3.23-.85s-1.16-.65-2.11.06-.98 1.81-.5 3.15c.26.74.78 1.94 1.51 3.19l.72.3-.19.55c.49.75 1.06 1.48 1.68 2.11 0 0 2.47 2.73 3.84 4.46 0 0 .08.16-.16.02-.24-.15-1.27-.62-1.82-.57-.56.05-.45.4-.45.4s.24 1.25 4.01 3.37c0 0 1.36.77 2.22.77 0 0 .28.04.62-.35.35-.38.45-.34.69-.26s.55.25 1.74 1.11 3.5 2.18 4.33 2.73c.83.56.79.66.62 1.05-.17.4.59.62.59.62s1.9.86 2.93.85c1.03-.02 1.46-.12 2.1.01.63.13 1.28.29 1.35.35.07.05-.32.04-.32.04s-2.36-.28-2.49-.21.01.18.99.44v.01c1.25.22 2.51.39 3.78.51-.49-.06-2.52-.32-3.82-.71 0 0-.13-.08.17-.01s2.02.23 2.47.16-.09-.27-.09-.27-.9-.43-2.89-.58c0 0-.8-.06-1.5.01s-1.41-.26-1.41-.26-1.03-.32-.78-.65c.13-.17.14-.34.07-.5l-.45-.36z" fill="url(#e)" opacity=".45"/>
 <path transform="translate(16.12 14.64)" d="m62.34 86.16-.44.65c.1.66-.1.88-.25 1.12-.16.26-.59.59-.38 1.19.22.59 1.69.4 2.54.14s1.57-.49 2.13-.69.72.09.72.09.25.18-.57.61-2.34.63-3.06.72-.51-.04-1.59.33c-1.08.38-.07.71-.07.71 2.44.64 4.19.12 4.19.12l.33-.1c.27-.08.54-.16.8-.24-2.02.46-3.33.15-3.74.1-.43-.06-.78-.14-.88-.36s.48-.2.48-.2 1.68-.19 3.24-.69c1.56-.51 1.93-.98 1.87-1.34s-.85-.33-1.79-.03c-.94.31-2.33.75-2.66.82s-.69.06-.81-.15c-.11-.2-.22-.53.15-.91.36-.38.4-.69.4-.69.06-.25.06-.52.02-.8l-.64-.38.55-.12c-.3-1.12-1.05-2.22-1.28-2.58-.31-.51-.84-.79-2.39-.54-1.56.26-3.39 1.03-3.39 1.03s-1.89 1-3.3.81-1.7-1.61-1.69-2.06c.02-.45.3-.84 1.04-1.12.74-.29 2.47-.68 4.99-.81s3.46-1.77 3.46-1.77c.33-.48.92-1.54-.49-2.34-1.41-.79-1.44-.59-2.12-1.11s-1.41-1.15-1.7-2.03c-.03-.08-.07-.2-.1-.29l-.85-.56.41-.37c-.34-.67-.69-1.27-.69-1.27s-1.28-1.9-.25-3.7c1.04-1.8 2.74-2.35 2.74-2.35s1.5-.33 3 .02c1.42.32 2.13-.22 2.13-.22s.87-.37 1.12-2.1c.26-1.73-.01-4.94-2.32-5.58-2.31-.63-3.53.56-3.53.56s-1.24 1.37-1.64 1.57-1.02.56-1.02.56-.87.52-1.45.65c-.39.09-1.79-1.77-1.93-3.2-.13-1.32-.4-2.39-.31-5.1l-.49-.63.54-.53c.1-3-.42-5.12-1.19-6.46-.81-1.41-2.12-2.16-2.77-2.48s-2.15-.46-3.17-.09-1.24.68-1.61 1.33c-.38.65-.84.61-.84.61s-1.43.04-1.89-2.13c-.65-3.05.36-4.04.36-4.04s.32-.48 1.37-.62 1.73.12 2.54.32 1.41.12 2.42-.37 1.44-1.3 1.24-2.74c-.2-1.39-.26-1.74-1.48-5.96l-.88-.46.58-.58c-1.19-4.28-1.26-6.96-1.26-6.96-.11-.98.05-1.29.6-1.54.58-.26 1.12-.18 1.93-.12.82.05 1.43-.08 1.85-.32s1.58-.87 1.5-2.16-1.11-2.82-1.95-3.35-1.95-.32-2.56.13-.85 1.03-1.21 1.21c-.37.18-.9.61-1.45.47-.55-.13-.58-1.37-.82-2.77-.15-.91-.27-1.61-.34-1.99l-.68-.25c.04.56.54 3.3.54 3.3s.22 1.36.31 1.69.31 1.05.31 1.05.09.36.46.54c.37.17 1.05.24 1.74-.03s.89-.57 1.2-.94c.32-.36.43-.49.43-.49s.66-.62 1.48-.34c.81.28 1.3 1.23 1.3 1.23l.03.06s.4.66.39 1.27v-.06s-.02.3-.7.82-1.23.48-1.68.44-.67-.07-.8-.05l-.72.04c-.79.11-1.22.41-1.22.41-1.8 1.06.74 9.29.74 9.29l-.28.61s.51 2.05.9 3.38.56 2.64.62 2.91.04.76-.32 1.05-1.24.53-1.43.56-.54-.04-1-.2-.92-.19-.92-.19-1.11-.19-2.29.17-2.08 1.57-2.15 3.08-.06 2.28.54 3.62c.59 1.34 1.66 2.1 2.46 2.12.81.01 1.47-.4 1.93-1.05s.59-.75.59-.75c.55-.3 1.94-.43 2.65-.17s2.01 1.07 2.72 2.68c.58 1.3.76 2.75.73 5.36l.58.45-.61.7-.03.76c-.14 3.88.72 5.86.72 5.86.49 1.07 1.02 1.83 1.75 2.32.72.49 1.7.16 2.02 0s1.19-.56 1.94-1.04.73-.68 1.63-1.52c.91-.83 2.08-.6 2.08-.6s1.11.03 1.74 1.31c.64 1.28.51 3.11.35 3.77s-.44 1.1-1.06.98c-.62-.11-1.65-.22-2.02-.23-.38-.01-1.43-.05-2.39.2-.94.24-2.21.92-3.41 2.88-.94 1.52-.48 3.01-.26 3.6.17.46.64 1.1 1.04 1.9l.76.25-.35.66c.4.96.7 1.49 1.31 2.15.65.71 1.67 1.25 2.88 1.71s.66 1.28.66 1.28c-.69 1.5-2.75 1.56-3.35 1.63s-1.87.19-3.06.45c-1.18.26-2.29.42-2.95 1.18s-.4 1.56-.01 2.39 1.43 1.28 2.85 1.23c1.43-.06 2.35-.48 3.21-.85s2.36-.81 2.81-.94 1.05-.39 1.5.26c.48.7.99 1.7 1.23 2.45l.56-.12z" fill="url(#f)" opacity=".35"/>
 <g fill="#232323">
  <path d="m117.69 65.8s.35-3.24.46-4.39c.02-.17.03-.34.05-.51l-.1-.24c-.46 5.82-.94 7.73-.94 7.73s.01-.04.03-.1c.19-.82.36-1.65.51-2.48h-.01zm-10.3-38.58.33.41.28.5c1.02 1.65 2.85 4.3 2.85 4.3s.74.96.91.97c.16.01-.08-.74-.08-.74s-.27-.98.52.3c.73 1.19 1.21 2.36 1.32 2.72s.04.41.04.41-.15.07-.15.33c0 .51.5 1.66.5 1.66s1.55 3.93 2.07 5.56c.53 1.64 1.13 4.37 1.13 4.37s.19.8.21 1.17-.06.38-.23.19c-.16-.2-.33-.07-.33-.07s-.18.07-.18.77.09 2.35.22 3.62c.15 1.51.62 2.13.62 2.13s.41.62.53-.58c.1-1.03.19-.23.19-.23.2 1.56.06 4.54.03 4.96-.02.22-.03.43-.05.64l.13-.22c.2-2.97.06-5.36.06-5.36s-.14-1.32-.3-1.31-.21.7-.21.7-.07.47-.16.46-.37.02-.57-1.41c-.2-1.44-.16-2.95-.16-2.95s-.04-.16.05-.19.19.1.19.1.13.19.29.03c.16-.15.19-.62-.3-3.08-.29-1.45-.71-2.9-1.01-3.83l-.29-.33-.06-.72s-.31-.91-1.03-2.74c-.72-1.82-.85-2.46-.85-2.46s-.05-.2.07-.23c.11-.03.09-.18.09-.18s-.01-.25-.28-.99c-.27-.75-.43-1.28-1.36-2.86-.87-1.47-1.12-1.56-1.12-1.56s-.43-.23-.11.59c.31.82-.08.23-.08.23-.93-1.18-2.84-4.29-2.84-4.29l-.54-.37-.51-1.26-.02.01m-89.53 20.95-.18.37c-.47 2.5-.63 5.14-.62 5.31.01.21-.04.21-.08.18-.04-.04.03-.16-.05-.16s-.11.21-.11.21v-.01c-.02.29-.04.57-.05.86h.02c.07-.1.1-.03.1-.03s-.03.13.1.06.21-1.38.21-1.38.01-2.81.84-6.14c.82-3.33 1.28-4.26 1.28-4.26s.15-.42.14-.08c-.01.33.2.36.2.36.38-.05.82-1.13 1.27-2.49s.67-2.59.67-2.7-.06-.19-.15-.14c-.1.06-.13.01-.13.01-.01-.21.36-1.13.36-1.13 1.25-3.2 3.1-5.69 3.1-5.69l.09-.5c-.16.25-.27.42-.42.66-.06.09-.04.3 0 .32-.2.19-.37.35-.48.46-2.71 4.47-3.06 6.56-3.06 6.56-.02.21 0 .31.11.31.07 0 .25-.35.12.35-.09.47-.52 1.71-.69 2.21-.17.51-.36.85-.5.83-.14-.03-.14-.23-.14-.23s-.04-.55-.4.25-.71 1.86-1.43 4.65l-.09.38-.03.62zm3.29 29.93c-.15-.4-.26-.72-.18-.58.09.14.2.43.46.73.26.29.44-.23-.62-3.1s-1.35-3.04-1.4-3.1-.22-.24-.17.17c.05.4.02.66-.51-1.15s-1-4.84-1.02-5.09c-.03-.24-.17-1.78-.4-3.59s-.25-3.74-.21-4.28-.07-.83-.12-.84c-.06-.01-.09.05-.13.28s-.01.4-.07.39-.08-.47-.08-.47h-.01v.67l.04.4c.03.6.13.35.14.25l.03-.33s.1-.88.08.02.24 4.56.24 4.56c.02.24.04.48.07.73l.06.09-.04.1c.27 2.42.8 5.09.8 5.09.51 2.42 1.11 3.85 1.31 4.25.2.41.24.09.17-.27s.55.69.87 1.67c.33.99.56 1.82.56 1.82s.25.78.14.83-.29-.29-.29-.29-.47-.84-.27-.23c.4 1.23 1.6 3.82 1.6 3.82l1.4 2.47c-1-1.81-2.3-4.64-2.44-5.01zm2.44 5.01c.07.13.14.25.2.36zm13.44-64.77c-.21.34-.24.51-.24.51s.11-.12.18-.24.06-.28.06-.28zm-3.5 2.7c-.42.05-.68.25-.68.25s.35-.06.68-.25zm66.79-.66s.25-.03.35.02.07-.16.07-.16-.29-.41-.32-.56c-.32-.09-.61-.1-.61-.1l-.03.03c-.01.08-.04.19-.01.3 0 0 .47.37.56.46zm3.48 2.97.1-.15-.22-.68c0-.01-.01-.02-.02-.04-.01.07-.05.13-.17.12 0 0-.1-.03-.01.2.06.14.2.37.33.55z" opacity=".1"/>
  <path d="m117.69 65.8s.35-3.24.46-4.39c.02-.17.03-.34.05-.51l-.1-.24c-.46 5.82-.94 7.73-.94 7.73s.01-.04.03-.1c.19-.82.36-1.65.51-2.48h-.01z" opacity=".1"/>
 </g>
 <path transform="translate(16.12 14.64)" d="m79 84.53s.67-.65.54-.75-.62.26-.62.26-.07.06-.19.14l.39-.25s-.04.24-.36.56c0 0-.09.09-.26.25-.96.94-2.39 2-2.39 2l.4-.21c1.32-.81 2.48-1.98 2.48-1.98z" fill="url(#g)" opacity=".5"/>
 <path transform="translate(16.12 14.64)" d="m82.98 39.71.51-.89-.13-1.67s-.09-.89-.57-2.28c-.98-2.83-1.94-4.12-1.94-4.12s-.59-1.32-1.97-1.32c-1.33 0-1.43 1.22-1.43 1.22s-.31.96-.82 1.26c-.5.29-1.97 1.15-2.75.3-.94-1.03-1.46-2.23-1.56-3.37-.1-1.15.37-1.62.37-1.62s.1-.3 1.61-.3c1.7 0 2.01-.53 2.01-.53s.32-.3.3-.96-.28-2.1-.78-3c-.32-.6-1.06-1.54-1.68-2.26l-.97-.18.15-.7c-.56-.51-3.47-3.96-4.03-4.77s-.65-.99-.75-1.26.17-.88.41-1.16.52-.34 1.1-.21.96.38 1.89.08c.92-.3.96-.99 1.03-1.7s-.78-2.21-1.46-2.93-1.65-.84-2.31-.79c-.66.04-1.05.52-1.43.74-.38.21-1.1.43-1.43.28-.33-.14-.82-.28-1.38-1.26-.43-.76-.79-1.46-.98-1.82l-.71-.08v.01s.63 1.65 1.63 2.81 2.27.92 2.27.92.82-.09 1.53-.77 1.76-.15 2.02.04c.27.19.85.91 1.48 2.13.62 1.22-.36 2.06-.36 2.06s-.56.54-1.69.09c-1.14-.44-1.81.26-1.99.61-.18.36-.51.99.08 1.73.58.74 3.18 4.27 4.92 5.95 1.74 1.67 2.31 3.05 2.68 4.34.37 1.3.08 1.9-.52 2.02s-1.15.02-2.09.19-1.35.37-1.54 1.65c-.2 1.29.56 3.37 1.67 4.36s2.33.39 2.76.23 1.35-.65 1.68-2.03c.19-.78.85-.72.85-.72s.56-.07.85.12.63.53 1.4 1.87c.77 1.35 1.45 3.15 1.72 4.74.26 1.59.06 1.82.32 2.95s1.08 3.25 1.47 4.07c.38.83.78 1.66.99 2.11s.53.78 1.44.8 1.27-.23 1.54-.66c.27-.44.61-1.09.71-1.32s.47-.91 1.15-1.02c.69-.11 1.76.01 2.11 1.2.31 1.07.76 2.62-.16 4.5-.65 1.33-1.13.86-2.45.95 0 0-1.17-.01-1.78.92s-.42 2.61-.29 3.88.99 3.11 1.62 3.56c.64.44.86.85 1.08 1.26.22.4.53 1.21.22 3.31-.31 2.11-.98 3.74-1.87 4.52-.02.02-.05.04-.07.06-.07.07-.14.14-.22.2-.54.52-.37.54-.89.79-.59.29-.99.21-1.96.37s-1.58.33-2.09.82c-.5.5-1.24 1.41-.98 3.19.15.99 1.32.58 2.23.11-.27.13-.55.22-.8.25-1.03.11-.99-.95-.92-1.42s.31-1.54 1.06-1.97 1.8-.41 2.53-.51c.74-.1 1.08-.31 1.08-.31s1.21-.77 2-2.06 1.5-3.37 1.59-5.44c.08-2.07-.82-2.9-1.1-3.27s-.8-.2-1.43-1.73c-.72-1.74-.81-3.19-.75-4.08s.27-1.23.68-1.61 2.22-.21 2.22-.21.89.19 1.69-1.13c.79-1.32.74-3.47.48-4.55-.25-1.08-.62-2.01-2.1-2.17-1.47-.15-2.14 1.66-2.14 1.66s-.3.69-.61 1.09-1.16.28-1.16.28c-.37-.04-.82.1-1.26-.81s-1.44-3.29-1.44-3.29c-.34-.81-.56-1.51-.69-2.06l-.73-.3z" fill="url(#h)" opacity=".73"/>
 <path transform="translate(16.12 14.64)" d="m82.49 79.31.8-.48c.79-1.23 1.72-2.31 2.43-3.1.86-.96 1.9-2.52 1.9-2.52s.84-1.43.64-1.78c-.13-.23-.7.02-1.69.75-3.67 2.75-3.97 1.25-3.97 1.25.42 2.44 4.73-1.63 5.11-1.38-.06.56-.46 1.17-1.25 2.25 0 0-.39.56-.78.95-.37.43-.58.64-.58.64l-.13.13c-.47.54-1.02 1.24-1.6 2.02-.02.02-.1.11-.13.14-.3.42-.49.73-.7 1.06-.01.02-.06.01-.08.03 0 0-.01.01-.03.04-.25.39-.37.71-.51.96l-.03.1s-.32.67-.46 1.07c-.14.41-.12.55-.62.63s-.28-.05-1.02.2c0 0-.4.2-.94.57-.03.02-.06.04-.08.06-.74.6-1.25 1.12-1.53 1.44-.05.06-.1.13-.15.2 0 0-.16.17.05.19s.63-.01 1.01-.17l.09-.06c-.19.1-.37.17-.51.16-.4-.03.48-.86.48-.86s.91-1.02 1.77-1.18 1.02-.37 1.44-.69c.43-.33.49-.68 1.36-2.25.03-.06.06-.12.1-.18l-.41-.17z" fill="url(#j)" opacity=".53"/>
 <path transform="translate(16.12 14.64)" d="m55.06 72.69.41-.38c-.34-.67-.69-1.27-.69-1.27s-1.28-1.9-.25-3.7c1.04-1.8 2.74-2.35 2.74-2.35s1.5-.33 3 .02c1.42.32 2.13-.22 2.13-.22s.87-.38 1.12-2.1c.26-1.73-.01-4.94-2.32-5.58-2.31-.63-3.53.56-3.53.56s-1.24 1.37-1.64 1.57-1.02.56-1.02.56-.87.52-1.45.65c-.39.09-1.79-1.77-1.93-3.2-.13-1.31-.4-2.38-.31-5.08v-.02l-.49-.63.54-.53c.1-3-.42-5.12-1.19-6.46-.81-1.41-2.12-2.16-2.77-2.48s-2.15-.46-3.17-.09c-1.02.38-1.24.68-1.61 1.33-.38.65-.84.61-.84.61s-1.43.04-1.89-2.13c-.64-3.05.36-4.04.36-4.04s.32-.48 1.37-.62 1.73.12 2.54.32 1.41.11 2.42-.37c1.01-.49 1.44-1.3 1.24-2.74-.2-1.4-.25-1.73-1.48-5.97l-.87-.46.58-.58c-1.18-4.27-1.26-6.96-1.26-6.96-.11-.98.05-1.29.6-1.54.58-.26 1.12-.18 1.93-.13.82.05 1.43-.08 1.85-.32s1.58-.87 1.5-2.16-1.11-2.82-1.95-3.35-1.95-.32-2.56.13-.84 1.03-1.21 1.21c-.37.19-.9.61-1.45.47-.55-.13-.58-1.37-.82-2.77-.16-.92-.28-1.61-.34-1.99l-.67-.25c.04.56.54 3.3.54 3.3l.29 1.62v.02c.01.02.01.04.01.05.02.08.05.18.08.29.11.22.37.46.94.5 1.08.09 1.77-.47 2.03-.71.25-.24.86-.91.86-.91s.33-.63 1.25-.49 1.24.77 1.4 1.01c.17.24 1.57 1.96.67 2.86l-.15.15c-.1.11-.25.25-.45.4-.68.52-1.23.48-1.68.44s-.67-.07-.8-.04l-.72.04c-.79.11-1.22.41-1.22.41-1.8 1.07.74 9.29.74 9.29s.67 2.03.97 2.98.5 1.63.79 3.26-.23 2.09-.53 2.25c-.29.16-.98.57-1.77.6-.78.03-1.03-.37-2.37-.43-1.35-.07-2.25.35-2.66.91-.42.56-.91 1.86-.68 3.4.24 1.54.5 2.06 1.09 2.75.59.68 1.17.97 1.98.7.79-.27.76-.76 1.17-1.16.52-.52.86-.79 2.06-.82s1.98.29 2.59.78c.62.5 1.93 1.65 2.29 3.36s.42 2.27.42 3.68-.1 2.98-.06 4.38.19 2.84.58 3.8.93 1.76 1.4 2.18c.48.43.9.44 1.37.25.48-.19 1.51-.77 2.37-1.32.86-.56.8-.99 1.58-1.5.88-.58 1.8-.61 2.46-.49.66.11 1.68.63 2.09 1.89.42 1.26.36 2.68.36 2.68s.04 1.19-.45 1.88c-.48.69-1.27.62-1.63.55-.35-.07-1.09-.14-1.09-.14s-1.45-.17-2.56.09-2.08 1.09-2.73 1.9-.94 1.57-.98 2.16.03 1.6.64 2.57c.61.98.71 1.43 1.41 2.83s2.15 2.17 2.2 2.21 1.39.52 1.89.95c.51.43.56.83.41 1.21-.14.38-.44 1.09-1.6 1.6-1.17.51-2.59.52-3.5.62-.91.09-2.65.33-3.7.83-1.04.5-.97 1.45-.97 1.45s-.03 1.56 1.34 1.98c1.37.43 2.64 0 3.2-.24s1.49-.58 1.49-.58 1.79-.63 2.75-.85c.97-.22 1.53-.32 2.19.83.65 1.16 1.01 1.89 1.08 2.63.06.74-.21 1.15-.46 1.43s-.22.46-.22.46c-.11.87 1.18.76 1.18.76s.04 0 .11-.02c-.26.02-.5-.02-.59-.18-.12-.2-.22-.53.15-.91.36-.37.4-.69.4-.69.31-1.44-1.04-3.37-1.35-3.88-.32-.5-.84-.79-2.39-.53-1.56.26-3.39 1.04-3.39 1.04s-1.89 1-3.3.81-1.7-1.61-1.69-2.06c.02-.44.3-.84 1.04-1.12.73-.29 2.46-.68 4.98-.81s3.46-1.77 3.46-1.77c.33-.48.92-1.54-.49-2.34-1.41-.79-1.44-.59-2.12-1.1-.68-.52-1.41-1.15-1.7-2.03-.03-.08-.07-.2-.11-.29l-.84-.56z" fill="url(#k)" opacity=".96"/>
 <path d="m108.12 28c1.02 1.65 2.84 4.3 2.84 4.3s.26.33.5.61l.01-.01c.01-.38-.05-.57-.06-.62l-.09-.27c-.02-.37.44.1.61.29-.5-.75-.66-.81-.66-.81s-.42-.23-.11.59-.08.23-.08.23c-.92-1.18-2.84-4.29-2.84-4.29l-.55-.38.42.38zm9.54 37.99.03-.19h-.01s.01-.03.01-.09c-.01.1-.03.19-.04.28zm-.72-15.67c.09-.03.19.1.19.1s.14.19.29.03c.11-.1.16-.35.03-1.26 0 .23-.05.41-.14.59-.14.3-.31.02-.44-.08s-.17.07-.17.07v.16c0 .7.09 2.35.22 3.62.06.61.17 1.07.29 1.41l.04.08c.09.15.19.34.31.26.12-.09.27-.58.27-.58l.13-.59c.19.11.29.53.34.96v-.06s-.14-1.32-.3-1.31-.21.7-.21.7-.07.47-.16.46-.37.02-.56-1.41c-.2-1.44-.16-2.95-.16-2.95s-.04-.16.05-.19zm-1.12-7.11.3.34c.48 1.49 1 3.84 1.09 4.26-.03-.14-.06-.29-.09-.44-.29-1.45-.71-2.9-1.01-3.83l-.3-.33-.05-.7c0-.01-.01-.02-.01-.02s-.31-.91-1.03-2.74c-.73-1.82-.85-2.46-.85-2.46s-.04-.2.07-.23.09-.18.09-.18-.01-.25-.28-.99c-.18-.5-.31-.91-.66-1.61.28.59.46 1.05.52 1.26l.03.07s.1.15.07.55-.15.45-.15.45l.02.14c.14.54.42 1.19.42 1.19s1.07 2.71 1.75 4.54l.06.72z" fill="#232323" opacity=".1"/>
 <path transform="translate(16.12 14.64)" d="m42.96 91.54c.94.18 1.72.36 1.89.4-.33-.11-.95-.28-1.89-.4z" fill="url(#l)"/>
 <path transform="translate(16.12 14.64)" d="m20.38 74.92.01-.16-.05-.08s-1.87-3.38-1.68-4.62c0 0 .07-.83 1.24-1.19.82-.25.71.54 3.11.98 0 0 2.07.56 2.61-.95s-.57-3.39-.57-3.39-1.45-2.66-3.24-2.76c-.95-.06-.69.58-2.13.92 0 0-1.91.19-2.52-.96-.73-1.39-1.01-2.97-1.01-4.02 0-1.06.05-1 .13-1.41.05-.22.19-.55.25-1.09l-.13-.68.2-.5c0-.26 0-.54-.02-.83-.09-1.66-.21-4.22-.44-5.71-.22-1.49-.63-3.8-1.99-3.87 0 0-.67-.05-1.64.89-.88.86-1.68-.71-1.73-1.66-.05-1.12.13-2.26.41-2.8s1.04-.57 1.19-.55c.15.01.56.17 1.04.47.49.3 1.16.3 1.56-.09.4-.4.95-.86 1.17-2.6.23-1.74.23-3.55.01-5.71l-.22-.49 1.34-.29c0-.02-.02-.13-.03-.2 0-.02 0-.03-.01-.05v-.01c0-.02-.01-.04-.01-.06s-.01-.04-.01-.06-.01-.05-.01-.07v-.01c0-.02-.01-.05-.01-.07v-.02c0-.02-.01-.05-.01-.07v-.01c0-.03-.01-.05-.01-.08v-.01c0-.03-.01-.05-.01-.08v-.02c0-.02-.01-.05-.01-.08v-.02c0-.03-.01-.05-.01-.08v-.02c0-.03-.01-.06-.01-.09v-.01c0-.03-.01-.06-.01-.08v-.02c0-.03-.01-.06-.01-.09v-.02c0-.03-.01-.06-.01-.09v-.02c0-.03-.01-.06-.01-.09v-.02c0-.03-.01-.06-.01-.09v-.01c0-.03 0-.07-.01-.1v-.02c0-.04-.01-.07-.01-.1v-.02c0-.03-.01-.07-.01-.1v-.02c0-.03-.01-.07-.01-.1v-.01c0-.03 0-.07-.01-.1v-.02c0-.03 0-.07-.01-.1v-.02c0-.03 0-.07-.01-.1v-.02-.11-.11-.24-.11-.1c.05-1.24.29-1.75.29-1.75l.06-.17s.46-1.46 1.15-2.46l-.01.02s.45-.74 1.23-.82c.79-.08 1 .16 1.37.2.04 0 .08.01.12.01h.04c.03 0 .05 0 .07.01h.78c.02 0 .03 0 .05-.01h.01c.02 0 .04-.01.05-.01.04-.01.07-.01.1-.02.01 0 .03-.01.04-.01h.01c.01 0 .02-.01.03-.01h.01c.01 0 .02-.01.03-.01h.01c.01 0 .02-.01.02-.01h.01c.01 0 .01 0 .02-.01h.01c.01 0 .01-.01.02-.01h.01c.01 0 .01-.01.02-.01h.01l.01-.01h.01l.01-.01s.01 0 .01-.01.01-.01.01-.01.01 0 .01-.01 0 0 .01-.01 0 0 0-.01c.33-.24.59-.52.8-.78.01-.02.03-.03.04-.05l.01-.01c.01-.02.03-.03.04-.05l.01-.01c.01-.02.03-.03.04-.05.04-.06.08-.11.11-.16v-.01c.01-.02.02-.03.03-.04 0 0 0-.01.01-.01.01-.02.02-.03.02-.04l.01-.01c.01-.01.02-.03.02-.04.02-.03.03-.06.05-.08 0 0 0-.01.01-.01.01-.01.01-.02.02-.03 0-.01.01-.01.01-.02s.01-.02.01-.02c0-.01.01-.02.01-.02 0-.01.01-.02.01-.02 0-.01.01-.01.01-.02s.01-.01.01-.02c.07-.13.1-.21.1-.21.59-1.46.05-2.94-.21-3.23-.32-.35-1.04-.88-1.04-.88s-.29-.24-.75-.14c.35-.05.79.09.97.56.28.73.38 1.34.21 2.33 0 0-.26 1.39-1.38 2.23-1.13.85-1.92.1-2.89.13-.96.03-1.52.7-1.81 1.16s-1.42 2.2-1.32 5.07.29 4.3.33 5.56c.03 1.21.18 3.98-.64 5.28s-1.63.65-2.2.31-1.22-.25-1.74.13-.83 1.12-.85 3.32c-.02 2.36 1.53 2.61 1.53 2.61s.29.15.95-.54c0 0 .65-.69 1.25-.6.6.08 1 .72 1.25 1.81.26 1.09.8 5.62.72 8.67-.03 1.27-.62 1.29-.36 3.62 0 0 .41 3.13 1.4 4.09 1 .96 2.38.78 2.71.75.32-.03.7-.26.7-.26s.31-.2.54-.37c.23-.18.52-.43 1.01-.28s1.65.9 2.56 2.57c.92 1.68.5 3.32-.26 3.52-.67.18-.85.23-1.97-.05-1.12-.27-1.45-.57-1.96-.77-.5-.2-1.04-.26-1.55.11s-1.35 1.06-.34 3.32c.96 2.17 1.69 3.8 3.52 5.62-.52-.61-.96-1.19-1.43-1.87l-.57-.67z" fill="url(#m)"/>
 <path transform="translate(16.12 14.64)" d="m22.49 7.39-.05.03c.01 0 .03-.01.05-.03z" fill="url(#n)"/>
 <path transform="translate(16.12 14.64)" d="m46.03 92.85c.13.01.26.03.39.04-.11-.02-.31-.04-.56-.07z" fill="url(#o)"/>
 <path d="m40.21 20.13c-.65.36-.7-.02-1.14.02-.44.03-1.03.21-1.6 1.04s-.59 1.89.33 1.42c0 0 .44-.43.82-.58.08-.04.24-.13.41-.17l.14-.12s.42-.49 1.07-.33 1.12-.13 1.12-.13c1.01-.76 1.66-2.18 1.66-2.18l.99-2-.83-1.34s-.7 1.49-1.38 2.53c-.68 1.05-.64 1.33-1.58 1.84z" fill="#9fa2a3"/>
 <path d="m35.99 30.93s-.42 1.89 1.16 1.6c0 0 .01 0 .02-.01-.06 0-.09-.01-.09-.01-.03-.5.15-1.43.49-2.26s1.08-2.25 1.08-2.25 1.05-1.79 1.47-2.89.42-1.94.42-1.94-.8-1.02-.92-1.18-.27-.22-.27-.22c-.05.02-.1.04-.15.05.12-.01.22.02.28.11.21.31-.39 2.04-.39 2.04s-.52 1.24-1.55 3.03-1.55 3.93-1.55 3.93z" fill="#9fa2a3"/>
 <path transform="translate(16.12 14.64)" d="m38.19 89.7.17.02c-.13-.12-.31-.24-.5-.35.18.11.49.36.31.67-.25.42-.05.46.49.86l.06.03c-.16-.11-.25-.23-.16-.36.13-.17.14-.33.07-.5z" fill="url(#p)"/>
 <path transform="translate(16.12 14.64)" d="m24.44 82.75c-1.25-1.19 1.6-.12 1.6-.12s.62.26.34-.39c-.25-.57-1.37-1.96-2.54-3.22l.14.16s2.35 2.72 2.18 2.97c-.16.25-1.11-.33-1.11-.33s-1.4-.54-1.21.13c.14.49 1.06 1.27 1.54 1.65-.27-.23-.58-.51-.94-.85z" fill="url(#q)"/>
 <path transform="translate(16.12 14.64)" d="m26.98 84.73c.42.26.9.51 1.37.68 0 0 .83.29 1.34-.11.5-.4.5-.6 1.24-.24 0 0 1.39.7 2.38 1.44.98.74 3.56 2.34 4.4 2.79-.76-.42-3.71-2.37-4.63-2.99-.94-.63-2.57-1.7-3.3-1.48-.55.17-.47.4-.8.56s-.69.06-1.5-.38c-.17-.09-.32-.17-.48-.26z" fill="url(#r)"/>
 <path transform="translate(16.12 14.64)" d="m39.9 91.45c.37.1.67.06.79.04-.68.04-1.35-.27-1.35-.27s-.07-.02-.17-.06c.24.12.51.23.73.3z" fill="url(#s)"/>
 <path transform="translate(16.12 14.64)" d="m44.29 92.17s-1.34-.16-1.94-.16c0 0-.04.06.23.16-.02-.02-.03-.05.19 0 .3.06 2.02.23 2.47.16s-.09-.28-.09-.28-.09-.04-.27-.1c-.32.26-.58.23-.58.23z" fill="url(#t)"/>
 <g fill="#232323">
  <path d="m20.78 76.69c.09.14.2.43.46.73.15.16.27.07.16-.53-.25-.18-.41-.32-.46-.37-.11-.01-.26-.3-.26-.3s-.47-.84-.27-.23c.4 1.23 1.6 3.82 1.6 3.82l1.4 2.47c-1-1.8-2.3-4.63-2.44-5.01-.15-.41-.26-.72-.18-.58zm-3.11-29.35.03-.64.09-.36c.71-2.79 1.07-3.86 1.43-4.65s.4-.25.4-.25 0 .21.14.23.32-.32.49-.83c.17-.5.6-1.75.69-2.21.14-.7-.05-.36-.12-.35-.11.01-.13-.09-.11-.31 0 0 .38-2.12 3.06-6.56.18-.17.32-.31.47-.45-.06-.05-.03-.27 0-.32.14-.21.28-.44.42-.66l-.09.5s-1.85 2.49-3.1 5.69c0 0-.34.84-.36 1.09-.03.15-.1.74.15.58l.07-.05c-.09.48-.3 1.37-.61 2.33-.29.88-.57 1.63-.84 2.08-.08.07-.1-.02-.15-.21-.05-.2-.11-.2-.11-.2-.18 0-.32.2-.41.36-.04.06-.09.19-.09.19s-.46.93-1.28 4.26-.84 6.14-.84 6.14-.08 1.31-.21 1.38-.1-.06-.1-.06-.05-.05-.11.05c0 0 .02-.76.04-.88 0 0 .04-.21.12-.21s.01.13.05.16.08.03.08-.18c-.01-.18.15-2.82.62-5.31l.18-.37zm-1.16 9.29v-.01s.02.22.04.36v.01c.08.36.19.36.19.36.01-.1.09-.27.18-.46.01.11.01.23 0 .38-.04.54-.02 2.47.21 4.28.23 1.82.37 3.35.39 3.59.03.25.5 3.28 1.02 5.09.28.97.42 1.34.48 1.42l.01.05s.1.18.35.32c0 0 .11-.1.11-.41.02.03.04.07.06.11-.08.26-.11.43-.11.43-.04-.04-.06-.03-.05.05.07.36.03.68-.17.27-.2-.4-.8-1.83-1.31-4.25 0 0-.53-2.66-.8-5.08l.04-.11-.06-.09c-.03-.25-.05-.49-.07-.73 0 0-.26-3.66-.24-4.56s-.09-.02-.09-.02l-.03.33c-.01.11-.1.35-.14-.25.02.26-.04-.8-.04-1.07zm24.28-40.02-.53-.75-.07-.07s-.13-.14-.9.04l-.11.02s.38-.09.17.19-.56.5-1.17 1.15c-.61.66-.41.8-.01.67.4-.14 1.19-.5 2.61-1.24z" opacity=".1"/>
  <path d="m39.23 15.85c-.02 0-.04.01-.04.01zm.53.6c.31-.27.43-.48.45-.64l-.02-.01s-.13-.14-.9.04l-.08.02c.09-.02.3-.03.13.2-.21.28-.56.5-1.17 1.15-.61.66-.41.8-.01.67.11-.04.24-.09.4-.16.14-.31.59-.74 1.18-1.26zm59.84 2.31-.2.24s.14.08.21.14c.01.01.01.01.02.01a.728.728 0 0 1 -.07-.06c-.02-.11 0-.22.01-.3l.03-.04s.06 0 .14.01l-.14-.01z" opacity=".1"/>
 </g>
 <path d="m78.68 104.96s1.69-.19 3.24-.69c1.56-.5 1.94-.98 1.87-1.34-.04-.24-.4-.31-.91-.24.27-.02.51.03.35.33-.31.58-.86.78-.86.78s-.27.19-.89.37c-.81.25-1.79.38-2.34.44-.69.08-.52-.03-1.47.29-.02.02-.05.03-.07.04-.29.24 1.07.51 1.07.51s1.3.36 3.26.23l.07-.02c.27-.08.53-.16.8-.25-2.02.46-3.32.15-3.74.1-.43-.06-.78-.14-.88-.36s.48-.2.48-.2z" fill="#fff" opacity=".53"/>
 <path d="m79.42 19.06.72.08c1.43-.41 2.65-.78 2.65-.78s1.26-.41 1.9-.64 1.09-.31 1.66-.41c.56-.1 1.31-.14 1.71-.13s.53.12.53.12.17.13.25.27.74 1.89 2.98 2.01c2.23.11 2.26-1.1 2.06-1.46-.23-.43-.9-.86-.9-.86s-.9-.57-1.09-.85.03-.36.1-.38 2.43-.5 2.73-.61l.02-.02-.56-.17s-.12.13-.79.31-1.23.25-1.74.31c-.5.07-.5.24-.5.24l-.88 1.41s-.03.1.04.31c.07.2.41.45.41.45s.57.42.99.7.4.37.4.37c-1.12.1-1.42-.05-1.88-.28-.45-.22-.76-.73-.92-1.09s-.52-.66-.52-.66c-.59-.34-1.7-.34-2.81-.15-1.12.19-2.66.71-2.92.81-.27.1-1.62.55-2.31.73s-1.22.36-1.65.47-3.43 1-4.56 1.34c-1.12.33-1.85.46-1.85.46-1.69.17-2.19-.13-2.19-.13-.3-.13-.26-.53-.26-.53l.01-1.15s-.03-.43-.36-.61-.78-.25-1.59-.29-1.68.04-2.09.13-1.19.31-1.76.95-.48 1.14-.48 1.14.04.68.09 1.19c.05.5.48.66.48.66s-.74.53-3.05 1.21c-2.21.65-3.68.77-3.68.77l.68.25s5.47-1.01 7.15-2.62c0 0 .62-.29.02-.88-.61-.59-.9-.76-.9-.76s-.41-.22.02-.77.92-.8 1.35-.93 1.75-.25 2.93-.09c0 0 .49.04.46.41s-.09.87-.08 1.03.02.52.4.85 1.1.45 1.1.45 1.26.23 2.84-.22 3.64-1.14 5.43-1.63l.23-.34z" fill="#232323" opacity=".1"/>
 <path d="m64.58 21.27c.31.21.48.22.5.42.06.34-.56.64-.56.64l-.01-.01s-.43-.16-.48-.66c-.05-.51-.09-1.19-.09-1.19s0 .2.05.26c.13.17.22.29.59.54z" fill="#616161"/>
 <path d="m98.57 93.95.45.17c1.1-.62 1.5-.81 1.76-.96 1.18-.7 2.59-1.56 2.96-1.86 0 0 .76-.52.12.2s-.97 1.01-.97 1.01-.63.63-.47.78c0 0 .17.25 1.19-.69 1.02-.93 2.15-2.26 2.28-2.44.13-.19.15-.29.15-.29s.11-.22.27-.39c.14-.15 1.38-1.5 1.99-2.12h.01c.27-.36.54-.73.81-1.1-.36.38-1.72 1.83-2.48 2.68 0 0-.71.76-.94 1.06s-.23.47-.23.47-.12.2-.39.52-1.24 1.19-1.24 1.19-.58.47-.75.48c-.18.01.43-.54.43-.54s.59-.63.97-1.12c.38-.5.14-.47.14-.47s-.19-.05-.99.46-1.37.86-1.37.86-1.72.99-2.81 1.62c-1.1.64-3.6 1.91-5.02 2.49-1.43.59-2.16.72-2.04.53.13-.19.46-.46.46-.46s.4-.4.4-.8c0 0 .13-.59-1.6-.22-1.73.36-3.29 1.21-3.29 1.21s-2.57 1.18-1.97 1.89c0 0 .12.19.64.35.52.17-.92.61-.92.61-1.37.45-2.41.65-3.74.93-1.96.4-3.56.76-4.17.89l-.25.06s-1.21.29-3.23 1.07-5.97 1.43-5.97 1.43-2.54.29-2.78.63c-.23.33.18.5.18.5s.36.22 1.67.28c0 0 .45 0 .47.04s.05.07-.24.16-.85.31-2.78.56c-1.94.25-1.9-.07-1.9-.07s-.01-.08.08-.22c.09-.13.01-.37-.29-.54 0 0-.42-.27-1.83-.26s-4.21.02-6.83-.14c-2.37-.14-5.59-.55-6.1-.66 0 0-.12-.03-.21-.12s-.65-.42-1.16-.73c-.52-.31-2.07-.91-2.07-.91s-2.01-.78-1.95-.52c.02.06.13.15.27.25.35.19.7.38 1.06.56s-.74-.4-.54-.4.44.11.44.11 1.21.33 1.97.69c.75.35 1.41.83 1.41.83s.93.55 2.32.73c1.35.18 3.17.39 3.78.45l.59-.27.43.35c1.11.07 2.58.15 2.58.15s2.98.11 4.61-.02c.73-.06.51.32.51.32s-.21.35.21.53c0 0 .77.44 3.34.16 2.57-.29 3.14-.86 3.14-.86s.3-.28-.35-.4c-.51-.1-.51-.05-1.18-.12s-1-.21-.56-.32 1.17-.18 1.17-.18 2.25-.31 4.07-.78c0 0 1.94-.46 3.86-1.13.76-.27 1.4-.46 1.89-.6l.44-.64.64.37c.07-.01.1-.02.1-.02s2.31-.54 3.27-.7c.97-.17 3.15-.64 4.09-1.09.93-.45 1.4-.81 1.51-1.08s-.39-.43-.39-.43-.59-.14-.51-.34c.08-.21.29-.38 1.21-.79s2.07-.86 3.23-1.14c1.15-.28.73.19.73.19s-.69.71-.78.98.03.28.12.33.65.03 1.02-.07c.38-.1 3.46-1.27 5.34-2.35.05-.03.09-.05.14-.08l.39-.65z" fill="#fff" opacity=".17"/>
 <path transform="translate(16.12 14.64)" d="m7.43 68.01.18.13c-.11-.1-.17-.16-.17-.16h-.02s.01.01.01.02z" fill="url(#u)" opacity=".68"/>
 <path transform="translate(16.12 14.64)" d="m90.41 59.95-.37-.02c-1.81 1.46-2.34 1.94-3.78 2.96 0 0-1.64 1.23-3.44 2.2s-3.92.85-3.92.85-.57-.06-.3-.48c.28-.42.63-1.43.77-1.94.14-.52.42-1.82-.63-2.24s-3.02.2-3.02.2-4.53 1.21-6.37 3.23c-1.79 1.97-.29 2.85-.29 2.85s.7.49 1.39.73c.65.23.52.44.35.56 0 0-2.02 1.29-4.41 1.97 0 0-3.27 1-6.44 1.21-3.15.2-4.5.28-4.5.28l-.4.38-.76-.25c-1.28.15-3.46.46-5.6.98-2.62.64-5.12 1.15-6.9 2.3 0 0-1.33.89-.57 1.75.77.86 1.57 1.23 1.57 1.23s.47.21.46.34c-.01.16-.02.31-.37.51 0 0-1.39.81-4.11.86s-3.91.02-4.71-.7c-.66-.59.17-1.84.17-1.84s.33-.61 0-1.45-2.22-.85-2.22-.85l-2.62-.13c-3.1-.08-7.18-.43-9-.65 0 0-.01 0-.03-.01l-.01.17-.72-.3c-1.14-.22-3.24-.67-4.08-1.08-.76-.38-1.17-.31-1.07-1.1.1-.77-.75-1.84-.75-1.84s-1.19-1.29-2.26-2.09-1.52-.56-1.52-.56-.48.26-.05 1.3c.44 1.04.86 1.4.86 1.4s.21.22.09.28-.48-.22-.79-.48c-.25-.21-1.89-1.74-2.46-2.28l.11.36c.02.03.04.06.05.09.18.29.86 1.27 2.15 2.28 1.55 1.21 1.56.73 1.56.73s.06-.4-.3-.84-.93-1.37-.79-1.72c.14-.34.31-.31.31-.31s.13-.05.6.3c.46.35 1.5 1.08 2.01 1.7s.48 1.18.48 1.18-.1.56.45 1.17c.55.6 1.73 1.71 5.86 2.35.03 0 .03.01.06.01l.19-.55.57.66c3.6.52 5.56.56 5.56.56s4.71.16 5.98.16 1.03.67 1.03.67-.07.36-.23.65-.52 1.37-.14 1.94c0 0 .59 1.43 4.38 1.53 0 0 3.32.27 5.64-.69 2.32-.95.23-2.28.23-2.28s-.79-.48-1.13-.74c-.31-.23-.18-.48-.12-.65.06-.16.3-.36.56-.49.27-.13 1.24-.65 5.37-1.72 4.12-1.07 6.59-1.18 6.59-1.18h.06l.34-.66.85.56c.73-.06 1.68-.13 2.53-.17 1.69-.08 4.34-.47 5.88-.81s3.87-1.06 5.59-1.95c1.73-.9 1.81-1.52 1.81-1.52s.33-.48-.39-1-1.04-.38-1.67-1.03c-.64-.65.56-1.62.56-1.62s.61-.86 4.02-2.17c3.4-1.31 3.98-.87 4.15-.73s.2.62.12.94c-.07.32-.49 1.46-.72 2.05s-.32 1.41.61 1.6c.92.19 2.22-.01 3.43-.44 2.89-1.03 3.76-2.3 8.53-5.76.01-.01.02-.02.03-.02l.02-.65.69.11c1.98-1.57 3.87-3.57 3.87-3.57s1.26-1.26 1.89-2.36c.6-1.03.03.89.03.89s-.32 1.52.19 2.08c.41.45 1.56-.8 1.56-.8s.69-.79.97-2.06c.41-1.88.19-2.25.19-2.25s-.25-.39-.09-.85c.15-.46 1.16-3.05 1.98-4.01l.5-.56v-.03l-.22-.56.3-.51s-.28.32-1.4 2.18c-1.27 2.09-1.47 3.77-1.47 3.77s-.12.65-.05 1.03c.06.36.19.52.19.62.01.1-.07.96-.51 1.77s-.82 1.03-.82 1.03-.76.55-.86.16-.07-.72-.04-.97c.04-.25.29-1.58.25-2.07s-.48-.1-.48-.1-.1.12-.3.37-1.29 1.64-1.71 2.13c-.99 1.16-1.89 1.99-4.29 3.93-.01 0-.02.01-.02.02l-.36.61z" fill="url(#v)" opacity=".43"/>
 <path transform="translate(16.12 14.64)" d="m1.19 48.54.1.98c.24.28.58.68 1.07 1.19 1.08 1.12 1.43.42 1.43.42s.25-.71-.05-1.99c-.31-1.29-.25-2.05.33-2.03s2.26.36 2.78 1.75c0 0 .22.65.02 1.48s-.16 1.57-.02 2.3.76 1.41 1.46 1.97c.71.56 2.75 1.54 4.73 1.66 1.99.13 2.6.02 2.6.02l.75-.77.13.67c.81-.09 2.12-.23 3.62-.39 2.53-.27 4.23-.54 5.8-.31 1.57.24 2.08 1.46 2.08 1.46s.11.31-.25.54c-.35.22-.75.55-.95.89-.2.35-.41 1.07.16 2.04.57.96 2.14 1.59 3.48 1.43s3.34-.67 4.52-.98c1.29-.34 2.42-.97 2.57-1.98s-1.53-2.3-1.53-2.3-.81-.61-.91-.75.1-.2.1-.2.95-.23 1.36-.41c.4-.19 1.52-.65 3.35-1.22s5.61-1.25 5.61-1.25 2.08-.33 4.68-.54l.62-.7.49.63c.41-.02.83-.05 1.24-.06 3.57-.13 5.34-.55 7.24-.98s4.57-1.98 4.97-2.28 1.23-.66 1.4-1.96-1.36-2.16-1.36-2.16-1.22-.64-1.48-.93-.02-.56-.02-.56.69-1.49 2.9-2.35c2.21-.87 3.69-1.11 4.62-1.21s1.25.24 1.37.4c.13.16.13.49.02.82-.1.31-.44 1.04-.65 1.4-.2.36-.52 1.22-.32 1.62.21.41.84.59 1.66.45.82-.15 2.99-.76 4.89-1.55s5.07-2.35 5.07-2.35.01 0 .02-.01l.09-.73.73.3c1.02-.56 2.76-1.58 4.01-2.63 1.87-1.57 3.7-3.23 4.17-3.64.47-.42.89-.75 1.31-.73.41.02.73.32.99 1.43.26 1.12.31 2.04.43 2.58s.28 1.18.93 1.3 1.51-.43 1.84-.71.92-1.18.88-2.38c0 0 .07-1.6-.76-3.13 0 0-.35-.61-.48-.78-.09-.12-.16-.24-.01-.53s.47-.82 1.06-1.16c.45-.26.88-.32 1.13-.4 0 0 .28-.07.63-.26l-.13-.41.29.32c.4-.24.65.05.65.05l-.39-.5.12-.48s-.3-.16-.69-.09c-.38.08-.42.36-1.01.46s-1.27.31-1.95 1.32c-.67 1.01 0 2.27 0 2.27s.36.59.53.9 1.07 2.22.04 3.61c0 0-.55.64-1.53.86-.86.19-.64-.82-.73-1.36 0 0-.13-2.28-1.24-3.59-.98-1.15-2.75.89-3.63 1.57-.82.63-3.23 3.11-6.68 4.93l-.51.89-.32-.47c-1.66.83-5.42 2.66-7.87 3.51 0 0-1.88.76-2.64.78 0 0-.17.01-.03-.18.13-.19.28-.32.51-.74s.65-1.36.65-2.33-1.12-1.92-2.68-1.75-3.05.6-4.85 1.29-3.34 2.16-3.55 3.38 1.11 1.92 1.11 1.92 1.48.75 1.67 1.16.05.78.05.78-.13.41-.78.78c-.65.38-2.42 1.29-2.42 1.29s-2.21 1.22-5.56 1.51c0 0-3.06.26-4.82.35h-.07l-.54.53-.59-.45c-1.64.14-3.54.36-3.54.36s-4.29.61-8.22 1.82c-3.34 1.03-3.97 1.59-3.97 1.59s-.71.6-.12 1.45c0 0 .34.54 1.03 1.08s1.24 1.06 1.16 1.32c-.08.27-.29.38-.29.38s-.96.86-4.89 1.52c0 0-2.53.49-3.31-.28s-.44-1.28-.44-1.28.05-.17.62-.53c0 0 .95-.6.65-1.73-.3-1.14-2.13-2.55-4.1-2.53 0 0-2.3.01-8.2.76 0 0-.01 0-.03.01l-.2.5-.61-.39c-.32.04-.71.08-1.11.11-1.01.07-2.48-.06-4.3-.6-1.83-.54-2.96-1.54-3.13-2.13-.11-.41.04-1 .04-1s.34-1.32.13-2.4c-.22-1.08-.58-1.93-1.63-2.57-1.05-.63-1.64-.52-1.64-.52s-.94-.14-.9 1.45.24 2.26.24 2.26.18.56-.11.64c-.29.07-.74-.36-.74-.36s-1.02-.92-1.62-1.69l.05.07-.21.53s.07.12.27.38l.1-.74z" fill="url(#w)" opacity=".31"/>
 <path transform="translate(16.12 14.64)" d="m91.08 11.74.18.85s-.56.31-1.68.61c-1.11.3-2.19.8-2.19.8s-.89.29-.55 1.01c.34.73.84 1.08.84 1.08s.71.69.74 1.21c.02.53-.2.77-.76 1.08s-1.08.38-1.08.38-1.34.24-2-.39-.79-1.66-.79-1.66-.05-.88-1.15-1.25c-1.1-.38-2.45.43-2.45.43s-1.06.56-2.2 1.3-3.29 1.64-4.64 2.11l-.15.7-.76-.38c-1.42.49-3.27 1.11-3.27 1.11s-2.51.93-4.16 1.15-2.02-.01-2.24-.24c-.23-.22.04-1.01.04-1.01s.67-1.38.35-2.09-2.45-.9-2.49-.9-2.32-.27-4.45.93c-1.9 1.06-2.14 1.64-2.14 1.64s-.6.94.11 1.87c.81 1.05 1.88 1.15 1.88 1.15s1.02.08 1.26.38.08.63.08.63-.34.93-2.23 1.31c0 0-3.18.93-9.11 1.78l-.58.58c-3.74.47-8.14 1.36-10.56 1.99-2.41.63-2.55 1.32-2.55 1.32-.52.81.14 1.24.14 1.24s.83.28 1.02 1.19-.78 1.63-.78 1.63-1.16.97-2.9 1.27-2.4.35-3.43-.47c-.91-.72-.3-1.86.31-2.3s.91-.91.99-1.11.03-.38.03-.38l-.58-.53c-2.01-1.33-9.88.06-9.88.06l-1.34.29-.67-.44s-2.29.6-4.88.59c-2.71-.01-1.27-2.13-1.27-2.13s.64-1.12.75-1.76c0 0 .22-1.75-1.42-1.63-1.65.11-1.97 1.55-1.97 1.55s-.11.8-.09 1.39 0 1.85-.74 2.56-1.53.5-1.53.5-1.33-.58-1.6-.72-.52-.15-.75-.07l-.06.03-.18.75.03-.62c-.16.18-.27.42-.27.42l.09.33-.25.56c0 .01-.01.02-.01.04h.01s.09-.2.22-.36l.18-.37-.05.24c.06-.04.11-.07.17-.07.28-.02.63.16.63.16s1.14.61 1.64.72.88-.07 1.21-.29c.53-.37 1.14-1.12 1.4-1.84.23-.65.28-2.39.28-2.39v.01s0-.42-.01-.52-.08-.55.2-.78.46-.35 1.14-.36c.68-.02.89.38.89.38s.23.33.23.54-.07.34-.07.34-.37.63-.5.93c-.13.31-.64 1.32-.49 2.18.15.85 1.48 1.25 1.48 1.25s1.06.25 2.58.03l3.12-.5.54-.62.22.47c.81-.15 2.14-.37 3.58-.51 2.33-.23 4.79-.26 5.82-.13 0 0 .48.06.41.23-.06.14-.42.42-.42.42s-.14.08-.65.67-.67 1.16-.69 1.66c-.02.51.52 2 2.42 2.39 1.9.4 4.08-.34 4.08-.34s1.43-.31 2.79-1.67c1.41-1.41.01-3.11.01-3.11s-.22-.3-.65-.44c0 0-.19-.05-.08-.17s.37-.65 1.37-.91 3.98-1.2 11.07-2.13l.27-.62.87.46c2.71-.37 4.55-.69 7.83-1.45 0 0 3.04-.54 3.68-1.65.37-.65 1.03-1.54-.05-2.43 0 0-.13-.16-.79-.31s-1.18-.25-1.74-.65-.55-.87-.55-.87-.05-.45.86-.96c0 0 .85-.62 2.54-1.16 1.69-.53 3.65-.3 3.65-.3s.82.09.69.64c-.14.56-.6 1.48-.62 1.96-.02.47.01 1.03.94 1.41.93.39 2.27.27 2.27.27s1.39-.07 3.65-.8c2.27-.73 4.59-1.57 4.59-1.57l-.09-.48.97.17c.59-.22 1.41-.54 2.29-.94 1.8-.81 2.66-1.49 3.48-1.96 0 0 1.82-1.12 2.89-1.09 0 0 .25-.01.27.32s.1.81.22 1.1c.11.28.73 1.82 2.73 2.05 1.99.23 2.85-1.12 2.85-1.12s.68-1.05-.49-2.3c0 0-.96-1.03-.99-1.11 0 0-.1-.16.17-.23.27-.08 3.15-.88 4.27-1.4l.04-.02-.27-.49.54.37c.2-.1.45-.25.54-.4.17-.27-.05-.8-.05-.8l.01-.01-.4-.55-.61-.26-.06.03-.48.35" fill="url(#x)" opacity=".34"/>
 <path d="m24.24 30.96-.29.44c.13-.02.24-.06.24-.06s.4-.07 1.11.12c.92.24 2.07-.5 2.07-.5s.87-.52 1.27-1.38l.36-1s.29-.97 1.11-1.28c0 0 .32-.17.83-.18s.39.35.39.35-.06.23-.59.91-.67 1.2-.67 1.2-.32.72.19.96c0 0 .24.14.94-.09s3.02-.84 4.44-1.06l.99-.51c-.31-.23-.6-.44-.6-.44-2.39.44-4.17 1-4.78 1.23s-.62.08-.62.08c-.21-.25.44-1.02.44-1.02s.66-.89.91-1.72c.26-.82-.89-.71-.89-.71-.76.12-1.3.48-1.93 1.24-.49.59-.78 1.39-.89 1.81-.07.27-.19.52-.19.52s-.09.17-.45.32c-.42.18-1.23.4-1.23.4s-.54.05-.93-.15c-.24-.12-.9.05-.9.05l.09-.5-.08-.03-.68.38c-.12.19-.23.38-.34.57-.06.15-.18.48.04.51.05.01.11.01.16.01l.47-.46zm5.18-7.13s.34-.27.34-.03c0 .25-.33.69-.33.69s-.11.13-.17.13.02-.47.16-.8zm-2.7 3.31s-.39.46 0 .52l.84-.83c-.04-.04-.05-.06-.16-.11 0 0-.52.26-.68.42z" fill="#232323" opacity=".1"/>
 <path d="m93.93 100.39s-1.75.81-3.4 1.6c-1.65.8-2.25 1.14-2.25 1.14s-.09.05-.03.08-.01.06-.01.06c-.85.41-2.7 1.07-2.7 1.07s-.17.06-.16.02.2-.11.2-.11.38-.15.28-.22-1.21.31-1.21.31-1.95.62-2.89.89-2.75.74-2.75.74c-1.2.3-3.75.8-4.32.9-.56.1-.42.06-.42.06s.49-.19-.41-.23c-1.15-.05-2.36.11-3.61.29s-1.18.32-1.18.32-.04.15.71.14c.75-.02.53.05.53.05-1.4.2-4.2.24-4.2.24l.01.01c.46.01.92.02 1.38.02.61 0 1.22-.01 1.82-.03.24-.02 1.48-.15 1.93-.24.49-.11-.09-.11-.09-.11l-.74-.02s-.78-.03-.05-.16 1.83-.19 2.39-.25c.83-.09.54.11.54.11l-.04.02s.01.09.53.07 4.72-.8 7.07-1.49 4.1-1.25 4.1-1.25.16-.06.07.03c-.09.08-.46.2-.46.2s-.6.3.84-.11l.2-.06c1.23-.47 2.45-.98 3.64-1.54.03-.03.13-.15-.02-.1-.17.06 0-.07.19-.13.18-.07 2.27-1.16 3.36-1.61l1.17-.69v-.01z" fill="#fff" opacity=".3"/>
 <path transform="translate(16.12 14.64)" d="m1.19 48.54.11.98c.24.28.58.68 1.07 1.18 1.08 1.12 1.43.42 1.43.42s.07-.2.09-.59c-.04.22-.21.4-.79-.06-.3-.24-.69-.63-1.08-1.05-.33-.33-.72-.74-1.02-1.12l.05.07-.21.53s.07.12.27.38l.09-.74z" fill="url(#z)"/>
 <path transform="translate(16.12 14.64)" d="m3.74 49.13c-.01-.03-.01-.05-.02-.08.01.09.03.18.04.27 0 0 .09.39.12.75-.01-.27-.05-.58-.14-.95z" fill="url(#A)"/>
 <path transform="translate(16.12 14.64)" d="m99.7 28.57.29.32c.41-.24.65.05.65.05l-.39-.49c-.38.08-1.09.26-2.23.61 0 0-1.35.59-1.59 1.53-.02.33.05.64.12.88.75 1.43.91 1.67.91 1.67.5 1.09.42 1.99.25 2.82-.19.92-1.19 1.67-1.79 1.84-.61.17-.95 0-1.14-.48-.19-.49-.16-.85-.44-2.34-.28-1.5-.65-2.2-1.22-2.37-.56-.17-1.31.47-1.75.81s-2.42 2.15-2.42 2.15-2.32 2.09-5.74 4.03-7.69 3.42-7.69 3.42-2.84 1.09-3.53 1-.52-.72-.3-1.08.52-.94.77-1.55c.31-.76.2-1.65-.36-1.97-.56-.31-1.25-.47-3.52.09s-3.2 1.08-3.84 1.45c-.64.38-1.58 1.23-1.84 1.72-.27.48-.56.98.13 1.58.69.59.76.49 1.56 1.05s.92.64.97 1.47-.77 1.34-.77 1.34-3.12 2.08-6.6 2.78c-2.34.47-6.83.64-6.83.64s-1.33-.05-5.38.55c-4.06.59-6.79 1.51-7.74 1.86-.95.34-2.34.81-3.14 1.17s-.38.89-.2 1.01c.17.12 1.19 1.07 1.5 1.35s1.47 1.28.11 2.11-3.6 1.26-3.6 1.26-3.12.65-4.12.23-1.2-.78-1.45-1.36c-.31-.72-.02-1.26.79-1.78.77-.49.47-1.2.47-1.2-.98-1.9-3.06-2.06-4.77-1.94-2.72.2-5.36.47-7.43.73-3.06.39-4.54-.06-5.99-.52-1.45-.45-2.99-1.53-3.15-2.5-.03-.1-.04-.2-.04-.31-.08-.76.07-1.15.18-1.78s-.04-1.53-.08-1.76a.292.292 0 0 1 -.02-.09c-.51-1.3-1.73-1.9-2.67-2.06-.95-.16-.98.86-.98.86s0 .01-.01.04c.08-.21.22-.32.44-.31.58.02 2.26.36 2.78 1.75 0 0 .22.65.02 1.48s-.16 1.57-.02 2.3.76 1.41 1.47 1.97c.7.56 2.75 1.54 4.73 1.66 1.81.12 2.48.04 2.59.02l.76-.77.14.67c.81-.09 2.12-.23 3.62-.39 2.53-.27 4.23-.54 5.8-.31s2.08 1.46 2.08 1.46.11.31-.25.54c-.35.23-.75.55-.95.89-.2.35-.41 1.07.16 2.03.57.97 2.14 1.6 3.48 1.44s3.34-.67 4.52-.98c1.29-.34 2.42-.97 2.57-1.98s-1.53-2.3-1.53-2.3-.81-.61-.91-.75.1-.2.1-.2.95-.23 1.36-.42c.4-.19 1.52-.64 3.35-1.22 1.83-.57 5.61-1.25 5.61-1.25s2.09-.33 4.69-.54l.61-.71.49.63c.41-.02.82-.05 1.24-.06 3.57-.13 5.34-.56 7.24-.98 1.9-.43 4.57-1.98 4.97-2.28s1.23-.66 1.4-1.96c.17-1.29-1.36-2.16-1.36-2.16s-1.22-.64-1.48-.93-.02-.56-.02-.56.69-1.49 2.9-2.36 3.69-1.11 4.62-1.21 1.25.24 1.38.4.13.49.02.82c-.1.31-.44 1.04-.64 1.4s-.52 1.22-.32 1.62c.21.41.84.59 1.66.44s2.99-.76 4.89-1.55 5.07-2.34 5.07-2.34.01-.01.02-.01l.09-.73.73.3c1.02-.56 2.76-1.58 4.01-2.63 1.87-1.57 3.7-3.23 4.17-3.64.47-.42.89-.75 1.31-.73s.73.32.99 1.43c.26 1.12.31 2.04.43 2.58s.28 1.18.93 1.31c.64.13 1.51-.44 1.84-.71.33-.28.92-1.18.88-2.38 0 0 .07-1.61-.76-3.13 0 0-.35-.61-.48-.78-.09-.12-.16-.24-.01-.52.15-.29.47-.82 1.06-1.16.45-.26.88-.32 1.13-.4 0 0 .28-.07.64-.27l-.14-.4z" fill="url(#B)"/>
 <g fill="#fff">
  <path d="m17.67 47.34-.05.24c.05-.04.11-.07.17-.07.28-.02.63.16.63.16s1.14.61 1.64.72c.51.11.88-.07 1.21-.29.25-.17.52-.43.76-.74-.29.29-.73.55-1.37.6 0 0-.57-.05-1.42-.59s-1.33-.23-1.73.11l-.25.56c0 .01 0 .02-.01.04h.01s.09-.19.22-.35l.18-.37z"/>
  <path d="m22.51 46.6c.06-.12.11-.24.16-.35.05-.14.09-.33.13-.55-.1.44-.22.73-.22.73s-.02.07-.06.17zm.42-3.31c-.04.44-.04.99-.04 1.49.04-.51.05-.94.05-.94v.01s0-.42-.01-.52c0-.01-.01-.03-.01-.05z" opacity=".73"/>
 </g>
 <path transform="translate(16.12 14.64)" d="m8.12 16.32-.29.44c.09-.01.09-.01.24-.06 0 0 .4-.07 1.11.12.92.24 2.07-.5 2.07-.5s.27-.16.58-.46c-.4.24-1.39.76-2.13.59-.96-.23-.99-.02-1.34-.05-.29-.03-.29-.11-.28-.31 0-.03.02-.05.03-.09.05-.26.34-.69.34-.69l-.68.38c-.12.19-.23.38-.34.57-.06.15-.18.48.04.51.06.01.11.01.16.01l.48-.46z" fill="url(#C)"/>
 <path d="m33.14 29.68c-1.03.28-1.97.73-2.49.6-.44-.11-.08-.76.04-.97.07-.15.17-.29.25-.41.31-.51.83-1.35.83-1.35.02-.03.03-.07.05-.1.07-.18.12-.54-.47-.6-.8-.08-1.61.62-1.61.62s-.55.3-.84 1.42l.11-.31s.29-.97 1.11-1.28c0 0 .32-.17.83-.18s.39.35.39.35-.06.23-.59.91-.67 1.2-.67 1.2-.32.72.19.96c0 0 .24.14.94-.09s3.02-.84 4.44-1.06l.99-.51c-.67.06-2.51.53-3.5.79z" fill="#fff"/>
 <g fill="#231f20">
  <path d="m106.7 88.86c.01 0 .01-.01.01-.01zm.16-.18.01-.01z" opacity=".1"/>
  <path d="m104.02 91.32-.16.17c-.65.72-.97 1.01-.97 1.01l-.24.27c0 .01-.01.01-.01.01h.04s.23 0 .59-.22c-.07.04-.14.07-.18.07-.18.01.43-.54.43-.54s.59-.63.97-1.13.14-.47.14-.47-.09-.02-.4.13c.03.03.17.23-.2.69z" opacity=".25"/>
  <path d="m106.78 88.77c0-.01.01-.01.01-.02-.01.01-.01.01-.01.02z" opacity=".1"/>
  <path d="m89.06 95.85s2.22-.93 3.4-.79c0 0 .61.06-.06.71s-.89 1.17.4.75c0 0 .09-.03.24-.09-.5.14-.73.14-.66.03.13-.19.46-.46.46-.46s.4-.4.4-.8c0 0 .13-.59-1.6-.23-1.01.21-1.97.59-2.59.87h.01z" opacity=".22"/>
  <path d="m104.18 90.65c-.01.01-.03.02-.04.02.01-.01.03-.01.04-.02z" opacity=".1"/>
  <path d="m94.43 95.94c1.45-.52 3.93-1.85 5.02-2.49-1.1.64-3.6 1.91-5.02 2.49z" opacity=".28"/>
  <path d="m103.63 90.97c.03-.02.06-.03.08-.05-.03.02-.05.03-.08.05zm4.11-3.25.03-.03zm-.19.2c.01-.01.02-.02.02-.03-.01.01-.02.02-.02.03zm.09-.09.03-.03zm-.62.67c0-.01.01-.01.01-.02-.01.01-.01.01-.01.02zm-19.65 8.23c-.01.01-.02.02-.04.02.01-.01.02-.01.04-.02zm20.1-8.71c.01-.01.01-.02.02-.02zm-.27.29c.01-.01.01-.01.01-.02 0 .01-.01.01-.01.02zm.17-.19c.01-.01.02-.01.02-.02zm-.26.29c0-.01.01-.01.02-.02-.01.01-.01.02-.02.02zm.17-.19.02-.02zm-19.34 8.18c-.01.01-.02.01-.03.02.01-.01.02-.01.03-.02zm.22-.11c-.01 0-.01.01-.02.01.01 0 .01-.01.02-.01zm-.73.41c-.01.01-.02.01-.03.02.01-.01.02-.01.03-.02zm.66-.38c-.01 0-.02.01-.02.01.01-.01.01-.01.02-.01zm.14-.07c0 .01-.01.01-.02.01.01 0 .01-.01.02-.01zm-.1.06c-.01 0-.01.01-.02.01.01 0 .01-.01.02-.01zm.2-.1h-.01zm-.06.02c-.01 0-.02.01-.02.02.01-.01.02-.01.02-.02zm-.22.12c-.01 0-.02.01-.03.02.01-.01.02-.01.03-.02zm.26-.13h-.01zm-.02 0s-.01.01-.02.01c.01 0 .01-.01.02-.01zm-.09.05c-.01 0-.01 0-.02.01.01 0 .01 0 .02-.01zm-.21.11c-.01 0-.02.01-.03.01.01-.01.02-.01.03-.01zm-.31.17c-.02.01-.03.02-.05.03.02-.01.04-.02.05-.03zm-.14.08c-.01.01-.02.01-.03.02.01-.01.02-.01.03-.02zm-.06.03c-.01.01-.02.01-.03.02.01-.01.02-.02.03-.02zm.12-.07c-.01.01-.02.02-.04.02.01-.01.03-.01.04-.02zm.29-.16c-.01 0-.02.01-.02.02zm19.94-8.81c.01-.01.02-.03.04-.04zm-19.99 8.84c-.01 0-.02.01-.03.02.01-.01.02-.01.03-.02zm-.05.03c-.01.01-.02.01-.03.02.01-.01.02-.01.03-.02zm-.06.03c-.01.01-.02.01-.03.02.01-.01.02-.01.03-.02zm20.83-9.68-.06.06zm-.08.09c-.02.02-.04.04-.06.07.02-.02.04-.04.06-.07zm.14-.15c-.01.02-.02.02-.03.03zm-.71.76.06-.06zm.48-.52c-.01.02-.03.03-.04.05.01-.02.03-.03.04-.05zm.31-.33-.03.03zm.12-.13c0 .01-.01.01-.01.02 0-.01.01-.01.01-.02zm-4.76 4.15c-.02.01-.03.02-.04.02.01-.01.03-.02.04-.02zm4.71-4.09-.03.03zm-4.98 4.25c-.02.01-.03.02-.05.03.02-.01.03-.02.05-.03zm-39.6 14.8h-.02zm.07 0h-.02zm-.13 0h-.01zm-.07.01h-.02zm39.93-14.93c-.01.01-.02.02-.04.02.02-.01.03-.02.04-.02zm-.13.08c-.02.01-.03.02-.04.02.02-.01.03-.01.04-.02zm.21-.12c.02-.01.04-.02.05-.03-.02.01-.03.02-.05.03zm-.23 1.45s-.08.06-.19.15c.07-.05.14-.1.19-.15zm4.49-5.07c-.02.02-.04.05-.06.07.02-.02.05-.04.06-.07zm-64.16 14.56c-.02-.01-.04-.02-.06-.02.02.01.04.01.06.02zm43-4.79c-.01.01-.02.02-.04.02.01-.01.02-.02.04-.02zm-25.2 7.65h-.07zm-18.17-2.99c.02 0 .04.01.06.02-.02-.01-.04-.02-.06-.02zm-.12-.04c.04.01.08.02.12.04-.04-.01-.08-.03-.12-.04zm.3.1c-.04-.01-.08-.03-.12-.04.04.01.08.03.12.04zm64.02-14.14.04-.04c-.01.02-.03.03-.04.04zm-63.82 14.21c.04.02.08.03.12.04-.04-.01-.08-.03-.12-.04zm63.92-14.32c.01-.02.03-.03.04-.04zm.08-.08.06-.06zm-64.07 14.38c-.02-.01-.04-.02-.06-.02.02.01.04.01.06.02zm43.14-4.83a.21.21 0 0 0 .06-.04.21.21 0 0 0 -.06.04zm-24.77 7.77c-.02 0-.04 0-.05-.01.02 0 .04.01.05.01zm24.76-7.76c-.02.01-.03.02-.05.03.02-.01.03-.02.05-.03zm-24.68 7.77c-.02 0-.03-.01-.05-.01.02 0 .03.01.05.01zm.07.01c-.02-.01-.03-.01-.05-.01.02 0 .03.01.05.01zm-.41-.06c-.03 0-.07-.01-.1-.01.04 0 .07.01.1.01zm.18.02c-.02 0-.04 0-.06-.01.02 0 .04 0 .06.01zm-.09-.01c-.03-.01-.05-.01-.08-.01.03 0 .06.01.08.01zm-.22-.02c-.03-.01-.05-.01-.08-.01.03 0 .05.01.08.01zm-18.04-2.92c-.02 0-.04-.01-.06-.02.02.01.04.02.06.02zm18.66 3.01c-.02 0-.04-.01-.05-.01.02.01.04.01.05.01zm.17.04c-.01 0-.02-.01-.03-.01.01.01.02.01.03.01zm2.29.94h-.03zm-2.39-.97c-.02-.01-.04-.01-.06-.01.02.01.04.01.06.01zm1.11 1.05h.01zm.05 0h.01zm-2.61-1.17h.14zm2.51 1.17h.01z" opacity=".1"/>
  <path d="m62.89 104.65s.16.02.06.34c-.1.31.06.45.48.59l.02.01c-.08-.04-.07-.08-.07-.08s-.01-.08.08-.22.01-.37-.29-.54c0 0-.08-.05-.27-.11z" opacity=".36"/>
  <path d="m63.99 105.67h.02zm-.19-.01h.01zm-.12-.01h.01zm.03.01h.01zm-.88-1.02c-.01 0-.03-.01-.04-.01.02 0 .03.01.04.01zm-17.96-2.74c-.01 0-.02-.01-.03-.01.01 0 .02.01.03.01zm.03.01c-.01 0-.02-.01-.02-.01.01 0 .02.01.02.01zm-.1-.04c-.01 0-.02-.01-.03-.01.01.01.02.01.03.01zm16.98 2.63c.03 0 .05.01.07.01-.02 0-.05 0-.07-.01zm-16.86-2.58c-.01 0-.01-.01-.02-.01.01 0 .02.01.02.01zm-1.42-.49.11.03c-.04-.01-.08-.02-.11-.03zm.11.04c.02 0 .04.01.06.02-.02-.01-.04-.02-.06-.02zm1.32.45-.01-.01c.01 0 .01.01.01.01zm-.17-.06c-.01-.01-.02-.01-.03-.01.01.01.02.01.03.01z" opacity=".1"/>
  <path d="m43.81 101.88-.03-.03c-.26-.2-.34-.42-.34-.42l.01-.01c.02.01.03.01.05.01-.29-.08-.5-.1-.48-.02.02.06.13.15.27.25.17.09.35.19.52.28z" opacity=".38"/>
  <path d="m44.84 101.89c-.01 0-.02-.01-.03-.01.01 0 .02.01.03.01zm-.12-.05c-.01 0-.03-.01-.04-.02.01.01.03.01.04.02zm.24.09s-.01 0-.02-.01zm-.61-.22c-.02-.01-.03-.01-.05-.02.02.01.03.01.05.02zm17.3 2.79h.08zm-.13 0h.09zm-17.05-2.75c-.03-.01-.07-.03-.11-.04.04.01.07.03.11.04zm.16.06c-.01-.01-.03-.01-.04-.02.01.01.03.01.04.02zm-.11-.04c-.01-.01-.03-.01-.04-.02.02 0 .03.01.04.02zm.16.06c-.01 0-.03-.01-.04-.02.01.01.03.01.04.02zm-.1-.04c-.02-.01-.03-.01-.05-.02.02.01.03.01.05.02zm41.56-2.76h.01zm.74-.29h-.01zm-.03.02h-.01zm-.31.13h.01zm-.1.04h.01zm-.03.01h.01zm-21.34 6.67h-.03zm21.83-8.56c.01-.01.03-.02.04-.03-.01.01-.03.02-.04.03zm.18-.13c.01-.01.02-.02.03-.02-.01.01-.02.02-.03.02zm-.06.04c.01-.01.02-.02.03-.02-.01.01-.02.01-.03.02z" opacity=".1"/>
  <path d="m87.02 98.43c.2.06.11.17-.09.28l.09-.03s.79-.44.46-.63c-.34-.2-1.13-.28-.61-.97l.02-.02c-.44.34-.76.73-.5 1.02 0 .01.12.19.63.36z" opacity=".19"/>
  <path d="m86.69 98.83h-.01zm.06-.03h-.01zm-.03.02h-.01zm-.11.04h-.01zm-.03.01h-.01zm.38-1.87.03-.03zm-22.55 8.66h-.02zm.15-.01h-.02zm-.07.01h-.03z" opacity=".1"/>
  <path d="m66.14 104.54s.36.23 1.67.28c0 0 .45 0 .47.04.02.03.04.06-.07.1.06-.02.79-.25.48-.39-.04-.02-.06-.02-.07-.03h-.05c-.01 0-.01 0-.02-.01h-.36c-.04 0-.08 0-.13-.01h-.41c-.01 0-.02 0-.04-.01h-.02c-.02 0-.04-.01-.06-.01-.14-.02-.27-.03-.38-.06l-.19-.03s-.47-.01-.65-.32c-.12-.2.46-.32.46-.32s.96-.19 1.92-.32c0 0-2.54.29-2.78.63-.21.34.2.51.2.51z" opacity=".25"/>
  <path d="m64.96 105.62h-.02zm-.11.01h-.03zm-.09.01h-.03zm-.09 0h-.03zm21.59-6.65h.01zm-.02.01h.01zm-.05.01h.01zm.09-.03c.01 0 .01 0 .01-.01zm-.16.06h.01z" opacity=".1"/>
 </g>
 <path transform="translate(16.12 14.64)" d="m7.61 68.14c-.07-.06-.11-.11-.14-.13l-.02.01z" fill="url(#E)"/>
 <path transform="translate(16.12 14.64)" d="m90.41 59.95.69.11c1.98-1.57 3.87-3.57 3.87-3.57s1.26-1.26 1.89-2.36c.22-.38.28-.36.27-.18.02-.09.1-.46-.04-.71-.09-.18-.38.29-.83.86 0 0-2.01 2.93-5.8 5.82s-4.78 3.77-8.08 5.66c0 0-2.31 1.02-3.91.67-1.25-.27 0-1.55.27-2.7s.06-1.58-.23-1.81-.91-.39-2.14-.11c0 0-4.71 1.26-6.82 3.31-1.92 1.85.48 2.62 1.02 2.88 0 0 .78.34.72.67-.06.34-.5.62-.73.78-.24.16-3.34 1.98-8.32 2.76-4.04.64-3.26.26-7.14.65-3.88.4-4.95.72-8.07 1.45s-4.95 1.54-5.35 2.35c-.34.67.48 1.1.99 1.41.51.3 1.42.78 1.12 1.29-.31.51-1.63 1.28-4.87 1.39s-4.57-.34-5.16-1.04c-.55-.65-.08-1.32.1-1.95 0 0 .38-.81.16-1.22-.22-.4-.74-.49-1.28-.56-.54-.06-3.25-.16-5.34-.27-2.37-.13-5.21-.21-8.61-.93 0 0-2.24-.44-3.69-1.26-.1-.06-.18-.11-.25-.16a.654.654 0 0 1 -.25-.21c-.41-.43-.05-.75-.19-1.17-.12-.36-.35-.88-.9-1.5-.18-.18-.43-.44-.72-.71-.08-.07-.17-.14-.25-.21-1.28-1.04-1.42-1.15-1.96-1.17s-.24.9-.13 1.25c.04.14.14.33.24.51-.2-.36-.34-.73-.26-.92.14-.34.31-.31.31-.31s.13-.05.6.3c.46.35 1.5 1.08 2.01 1.71s.48 1.18.48 1.18-.1.56.45 1.17c.56.6 1.73 1.71 5.86 2.35.02.01.04.01.06.01l.19-.55.57.66h.02c3.59.52 5.54.56 5.54.56s4.71.16 5.98.16 1.03.66 1.03.66-.07.36-.23.65c-.15.29-.52 1.37-.14 1.94 0 0 .59 1.43 4.38 1.53 0 0 3.32.27 5.64-.69 2.32-.95.22-2.28.22-2.28s-.79-.48-1.13-.74c-.31-.23-.18-.48-.12-.65.06-.16.3-.36.56-.49.27-.13 1.24-.65 5.37-1.72 4.12-1.07 6.59-1.18 6.59-1.18s.02 0 .06-.01l.33-.66.85.56c.73-.06 1.69-.13 2.54-.17 1.69-.08 4.34-.48 5.88-.81 1.54-.34 3.87-1.06 5.59-1.95s1.81-1.52 1.81-1.52.33-.47-.39-1c-.72-.52-1.04-.38-1.67-1.02-.64-.65.55-1.62.55-1.62s.62-.87 4.02-2.18c3.41-1.31 3.98-.87 4.16-.73s.2.61.12.93c-.07.32-.49 1.46-.72 2.06-.23.59-.32 1.4.6 1.6.92.19 2.22-.01 3.43-.44 2.89-1.03 3.76-2.3 8.54-5.76.01-.01.02-.02.03-.02l.02-.65z" fill="url(#F)" opacity=".83"/>
 <path transform="translate(16.12 14.64)" d="m100.9 47.6c-.64 1.19-1.16 2.61-1.44 3.5-.05.21-.06.33-.06.33s-.12.65-.05 1.04a1.968 1.968 0 0 0 .17.51c.02.05.03.08.03.11.01.08-.04.61-.27 1.23-.06.18-.14.36-.24.54-.02.05-.05.1-.07.14-.46.81-1.1 1.46-1.6 1.53-.32.05-.48-.12-.56-.39.01.37.09.74.29.96.41.44 1.56-.8 1.56-.8s.69-.79.97-2.06c.41-1.88.19-2.25.19-2.25s-.25-.39-.09-.85c.15-.46 1.16-3.05 1.98-4.01l.5-.56v-.03l-.21-.52c-.13.13-.26.28-.39.45-.18.29-.41.65-.69 1.12z" fill="url(#G)"/>
 <path transform="translate(16.12 14.64)" d="m10.56 70.81c-.15-.09-.32-.23-.47-.36-.13-.11-.64-.59-1.18-1.09-.21-.19-.41-.38-.59-.55-.28-.26-.52-.49-.69-.65l.11.36c.02.03.03.06.05.09.18.29.85 1.26 2.15 2.28 1.55 1.21 1.56.73 1.56.73s.06-.4-.3-.84c-.06-.08-.13-.17-.2-.27s1.01 1.48-.45.29z" fill="url(#H)"/>
 <path transform="translate(16.12 14.64)" d="m96.89 55.02s.23-.76.24-1.07c0 .01-.01.02-.01.02s-.51 1.44-.33 2.16c-.02-.56.1-1.12.1-1.12z" fill="url(#I)"/>
 <path d="m79.42 19.06.73.07c1.43-.4 2.64-.77 2.64-.77s1.26-.41 1.9-.64 1.09-.31 1.65-.41 1.31-.14 1.71-.13.53.12.53.12.17.13.24.27c.08.14.74 1.89 2.97 2.01 2.23.11 2.26-1.1 2.07-1.46-.23-.43-.9-.86-.9-.86s-.9-.57-1.09-.85c-.19-.27.03-.36.1-.38s2.44-.5 2.73-.61l.02-.02-.56-.17s-.12.13-.79.31-1.24.25-1.74.31c-.51.07-.51.24-.51.24l-.09.14c-.03.08-.07.32.38.64.53.39 1.17.75 1.44 1.04s.59.78.01 1.14c-.28.17-.49.23-.78.26v.01c-.25.02-.46.03-.64.03-.05 0-.1.01-.16.01l-.02-.01c-.51-.02-.75-.14-1.07-.3-.44-.22-.76-.73-.92-1.09s-.52-.66-.52-.66c-.59-.34-1.7-.34-2.81-.15-1.12.19-2.66.71-2.93.81s-1.62.55-2.31.73-1.22.36-1.65.47-3.43 1-4.56 1.34c-1.13.33-1.85.46-1.85.46-1.69.17-2.19-.13-2.19-.13-.3-.12-.26-.53-.26-.53l.01-1.15s-.03-.43-.36-.61-.78-.25-1.59-.29-1.68.04-2.09.13-1.19.31-1.76.95-.48 1.14-.48 1.14 0 .08.01.2c.15.25.42.52.86.74 1.01.49-1.14 1.34-1.14 1.34-.48.21-1.19.48-2.21.78-2.21.65-3.68.77-3.68.77l.68.25s5.47-1.02 7.15-2.62c0 0 .63-.29.02-.88s-.9-.76-.9-.76-.41-.22.02-.77.92-.79 1.35-.93 1.75-.25 2.93-.09c0 0 .49.04.46.41s-.09.87-.08 1.03.03.52.4.85c.38.33 1.1.45 1.1.45s1.26.23 2.85-.22c1.59-.44 3.65-1.14 5.44-1.63l.22-.34z" fill="#232323" opacity=".1"/>
 <path transform="translate(16.12 14.64)" d="m91.6 12.99.27.49c-.02.01-.03.01-.03.01-1.11.52-4 1.32-4.27 1.4s-.17.23-.17.23c.03.08.99 1.11.99 1.11 1.18 1.25.49 2.3.49 2.3s-.85 1.35-2.84 1.12-2.62-1.77-2.73-2.05-.2-.77-.22-1.1-.27-.32-.27-.32c-1.07-.03-2.89 1.09-2.89 1.09-.82.47-1.68 1.15-3.48 1.96-.88.4-1.69.72-2.29.94l-.97-.17.09.48c-.04.01-.06.02-.06.02s-2.27.82-4.53 1.55c-2.27.73-3.65.8-3.65.8s-1.34.12-2.27-.27-.96-.94-.94-1.42.48-1.4.62-1.96-.68-.64-.68-.64-1.96-.24-3.65.3-2.54 1.16-2.54 1.16c-.91.51-.86.96-.86.96s-.01.47.55.87 1.07.51 1.74.65c.67.15.79.31.79.31 1.08.89.42 1.79.05 2.43-.63 1.11-3.67 1.65-3.67 1.65-3.28.76-5.12 1.08-7.83 1.45l-.88-.46-.28.62c-7.09.94-10.07 1.88-11.07 2.13-1 .26-1.26.78-1.37.9s.08.17.08.17c.43.14.65.44.65.44s1.4 1.7-.01 3.11c-1.36 1.36-2.79 1.67-2.79 1.67s-2.18.74-4.08.34-2.44-1.89-2.42-2.4.18-1.08.69-1.66c.52-.59.65-.67.65-.67s.36-.28.42-.42c.08-.17-.4-.23-.4-.23-1.03-.13-3.5-.1-5.82.13-1.44.14-2.77.37-3.58.52l-.22-.48-.54.63-3.12.5c-1.51.22-2.58-.03-2.58-.03s-1.33-.4-1.48-1.25.36-1.87.49-2.18.5-.93.5-.93.07-.13.07-.34-.23-.54-.23-.54-.21-.4-.89-.38-.87.13-1.14.36c-.04.04-.08.08-.11.13.02-.06.05-.12.07-.16.21-.31.65-.67 1.4-.7s1.04.23 1.04.23c.72.82.12 1.85-.35 2.76-.06.1-.16.27-.23.48-.03.08-.06.15-.09.23-.36 1.06.29 1.57.67 1.66.38.1 1.14.57 4.27-.03s3.59-.73 3.59-.73 6.15-1.09 8.96-.43h.02s1.3.37.33 1.33c-.97.97-1.73 1.62-1.5 2.38.22.76 1.27 1.9 3.65 1.6 0 0 .84-.11 1.11-.17 1.73-.34 2.9-1.27 2.9-1.27s.97-.72.78-1.63-1.02-1.19-1.02-1.19-.66-.42-.14-1.24c0 0 .14-.69 2.55-1.32s6.81-1.52 10.56-1.99c3.49-.41 9.65-1.58 10.89-2.08 1.24-.51 1.5-1.4 1.52-1.71s.07-.83-1.14-1.09-1.76-.66-1.93-.79c-.17-.14-.55-.48-.55-1.27s1.61-1.75 3.39-2.35c1.78-.61 3.93-.34 3.93-.34 1.95.17.94 1.96.94 1.96-.07.32-.95 1.79.5 2.17 1.54.41 4.18-.35 5.19-.67.83-.26 3.14-1.07 4.69-1.62.35-.12.66-.23.91-.32 1.66-.58 3.02-1.22 3.79-1.68s2.14-1.3 2.14-1.3 1.35-.74 1.8-.81c.45-.06 1.62-.35 1.77.77.16 1.12.63 1.9 1.4 2.27s2.06.54 3.25-.23c1.18-.77.36-1.9.36-1.9l-.06-.09a3.62 3.62 0 0 0 -.49-.65c-.39-.47-.74-.82-.74-.82-.3-.44.05-.69.43-.83.37-.14 2.35-.76 2.35-.76 1.16-.38 1.59-.55 2.05-.99.45-.42-.19-1.34-.24-1.41l.61.26c.14.18.27.36.4.55l-.01.01s.23.53.05.8c-.1.15-.34.29-.55.4l-.53-.37z" fill="url(#J)"/>
 <path d="m73.58 106.92c-.03-.04-.04-.03-.01-.06.02-.02.09-.08.12-.14 0 0-1.17-.06-2.14.08-.96.14-1.93.34-1.93.34l.3.15s.13-.06 1.05-.18c.92-.13 1.27-.13 1.27-.13s.81-.06.97-.06.06.1.06.1-.08.14.37.12c0 0 .66-.03 1.31-.19 0 .01-1.13.24-1.35-.02zm-2.99.41s.15.27-2.92.39c0 0 1.79.05 3.31-.2 1.11-.18-.39-.2-.39-.2zm-41.36-82.83s-.01.1.02.13c.02.03.11.11.11.11s.33-.5.19-.44c0 0-.12.19-.16.23 0 0-.03.04-.09.08s-.07.02-.07-.11zm-2.51 2.64s-.39.46 0 .52l.53-.53s.14-.23.14-.4c0 0-.51.25-.67.41z" fill="#232323" opacity=".1"/>
 <path d="m37.21 38.35c1.23.15 1.5-.13 1.53-.17.29 0 1.48-.03 2.87-.21 1.69-.21 3.56-.89 3.56-.89s1.55-.57 2.1-1.18h.02s-.69-.6-1.06-1.12c0 0-.29-.56.03-1.03.32-.48.84-1.01 2.34-1.64 1.51-.64 2.36-.51 2.36-.51s.59-.01 1.01.45.65 1.01.65 1.01.03.38-.12.63c-.14.25-.16.28-.16.28s.05.02.38-.01c.33-.02 1.17-.14 2.67-.51 1.51-.36 3.41-.97 3.41-.97s4.9-1.58 5.41-1.71c.51-.14 1.36-.44 1.36-.44l.03.06s.41.66.39 1.27v-.06s-.02.3-.7.82c-.67.52-1.23.48-1.68.44s-.67-.07-.79-.05l-.72.04c-.79.11-1.22.41-1.22.41-1.8 1.07.73 9.29.73 9.29-3.74.47-8.14 1.36-10.56 1.99-2.41.63-2.55 1.32-2.55 1.32-.52.81.14 1.24.14 1.24s.83.28 1.02 1.19-.78 1.63-.78 1.63-1.16.97-2.9 1.27-2.4.35-3.43-.47c-.91-.72-.3-1.86.31-2.3s.91-.91.99-1.11.03-.38.03-.38l-.58-.53c-2.01-1.33-9.88.06-9.88.06-.21-1.17-.36-1.17-.28-3.12.05-1.24.29-1.75.29-1.75l.06-.16s.45-1.44 1.14-2.44c0 0 .6-.17 1.36-.35.76-.17 1.24-.26 1.24-.26z" fill="#6b6b6b"/>
 <path transform="translate(16.12 14.64)" d="m49.86 16.94s-4.09 1.33-3.89 1.25c0 0-.39.08-.69.16-.29.09-.54.25-.54.25s-3.29 1.22-6.44 1.85-2.98-.36-2.71-.83c.23-.41.83-1.11-.19-1.25s-1.79.25-2.21.44-3.16 1.36-1.25 2.25c0 0 1.42.64-.38 1.76 0 0-1.82 1.16-5.36 1.77 0 0-.56.06-1.88.11s-2.56.21-4.12.66c-1.38.39-1.99.58-2.74 1.07l.19-.5.2-.46c1.07-.53 3.72-1.29 5.72-1.38s2.91-.16 4.72-.62c2.13-.55 2.7-1.02 2.93-1.16.19-.12.77-.48.49-.63-.36-.2-.9-.73-.9-.73-.22-.26-.39-.37-.16-1.05.36-1.03 2.2-1.64 2.2-1.64s1.03-.53 2.33-.51c1.31.02 1.29.75 1.29.75s.06.34-.27.83c0 0-.5.58-.05.66s1.62.18 5.48-1.03 8.09-2.61 8.09-2.61.12.34.12.62z" fill="url(#K)" opacity=".45"/>
 <path transform="translate(16.12 14.64)" d="m31.15 21.26c-.54.61-2.1 1.18-2.1 1.18s-1.88.68-3.56.89c-1.61.2-2.78.21-2.78.21h-.08c-.18.14-.48.19-.73.21-.24.02-.81-.04-.81-.04s-2.16.43-2.6.62c0 0-.25.39-.33.54s-.3.59-.3.59c1.07-.53 3.72-1.29 5.72-1.38s2.91-.16 4.72-.62c2.13-.55 2.7-1.02 2.93-1.16.2-.12.77-.48.49-.63-.36-.2-.89-.73-.89-.73-.22-.26-.39-.37-.16-1.05.36-1.03 2.2-1.64 2.2-1.64s1.03-.53 2.33-.51c1.31.02 1.29.75 1.29.75s.06.34-.27.83c0 0-.5.58-.05.66.46.08 1.62.18 5.48-1.03s8.09-2.61 8.09-2.61c-.1-.29-.3-.65-.3-.65s-.85.3-1.36.44-5.41 1.71-5.41 1.71-1.9.61-3.41.97-2.34.49-2.67.51-.38.01-.38.01.01-.03.16-.28c.14-.25.12-.63.12-.63s-.24-.55-.65-1.01-1.01-.45-1.01-.45-.85-.12-2.36.51c-1.51.64-2.03 1.16-2.35 1.64-.31.48-.03 1.03-.03 1.03.37.52 1.06 1.12 1.06 1.12" fill="url(#L)"/>
 <path transform="translate(16.12 14.64)" d="m21.61 31.24s-.06-.33.17-.94.91-.6 1.36-.5c.46.1.85.3 1.47-.12.63-.42.47-1.58.05-2.85s-.33-2.13-.33-2.13l-.61-.65-.24.7c.05 1.32.66 3.23.83 3.76s.3.8-.74.52c-1.03-.28-1.52.13-1.52.13-1.33.86-1.08 2.16-1.08 2.16l.63-.06z" fill="url(#M)" opacity=".2"/>
 <path d="m43.62 51.27c-.26-1.76-.92-2.75-.92-2.75-.25.19-.51.69-.51.69s.18.21.47 1.57c0 0 .14.11.44.28s.52.21.52.21zm5.65-3.75s-.78.91-.38 2.34c0 0 .45-.38.59-.68 0 0-.14-.46.14-1.02 0 0-.13-.42-.35-.64z" fill="#141414" opacity=".5"/>
 <path transform="translate(16.12 14.64)" d="m21.2 31.25c.02-1.3.47-1.49.91-1.82s1.33-.02 1.33-.02.68.22 1.05-.1-.02-1.47-.22-2.12-.41-1.6-.45-2.26c-.03-.49-.09-.71-.13-.79l-.21.6c.05 1.32.66 3.23.83 3.76s.3.8-.74.52c-1.03-.28-1.52.13-1.52.13-1.33.86-1.08 2.16-1.08 2.16l.26-.03-.04-.02z" fill="url(#N)" opacity=".18"/>
 <path d="m42.36 48.93c.05.06.42.6.74 2.11l.01.03c.29.17.52.21.52.21-.26-1.76-.92-2.75-.92-2.75-.12.09-.25.26-.34.41zm6.91-1.41s-.78.91-.38 2.34c0 0 .13-.1.26-.25l.02-.05c-.3-1.03.28-1.76.28-1.76-.05-.1-.12-.2-.19-.27z" fill="#505050" opacity=".3"/>
 <path d="m33.28 22.83h.12c-.16.48-.79 1.14-1.07 1.58-.16.25-.25.57-.47.75l.04.04c.09.05.81-.14.95-.24.08.02.08.01.12.04.04.07-.48.99-.6 1.11v.04c.2-.02.5-.06.63-.16.38-.3.47-.94.75-1.35-.01-.07-.03-.13-.04-.2-.22-.04-.68.02-.87.16h-.04c.09-.47.87-1.35 1.15-1.74.45-.65.88-1.27 1.35-1.9.24-.33.59-.62.83-.95.28-.37.57-.85.95-1.11v-.08h-.16c-.19.14-.68.22-.91.35.03.14.02.1.12.16-.14.39-.6.67-.83.99-.37.5-.78.97-1.15 1.46-.12.16-.21.42-.36.55-.24.21-.91.19-1.19.4h-.08c.06-.33.91-1.39 1.15-1.62v-.04c-.41.06-.72.27-.99.47.04.09.04.07.12.12-.14.24-.36.42-.52.63-.2.28-.31.6-.51.87.01.04.03.08.04.12.25-.02 1.31-.36 1.46-.47zm34.78 5.35c.2.07.4.13.6.2.16 0 .33 0 .43-.04-.01-.65-.36-.91-.59-1.35-.11-.22-.18-.52-.36-.67.07-.24.73-.31.99-.4.64-.21 1.37-.42 2.02-.63.31-.1.66-.08.91-.24.15.02.22.03.28.12.14.21.26 1.67.16 2.1-.4 1.66-.9 2.96-1.94 3.96v.04c.39-.06.57-.44.83-.63 1.05-.79 1.76-1.97 2.14-3.44.22-.87-.14-1.71.2-2.45h-.04c-.07-.19-1.08-.55-1.39-.56-.16.18-.4.42-.63.52-.36.15-.84.11-1.15.32-.29-.02-.51-.57-.32-.79-.01-.09-.01-.11-.04-.16-.24-.19-.85-.17-1.27-.16-.13.13-.25.15-.31.36h-.04c-.02.08.02.05.04.08.03.02.16-.01.24.04.45.05.44.57.68.83-.03.07-.01.04-.04.08-.16.12-1.3.45-1.54.52-.19.05-.41-.07-.55-.08-.34-.03-.63.16-.83.28.11.16.43.12.55.28.42.56.61 1.28.99 1.9zm7.87-.56c.19.09.19.33.28.51.19.37.44.82.55 1.23v.32c.09.25.4.28.6.44.16-.02.21-.06.31-.12-.07-.75-.53-1.38-.79-1.98-.08-.19-.21-.45-.24-.63-.02-.11.06-.17 0-.28-.05-.12-.07-.09-.16-.16-.06-.04-.03-.02 0-.08.07-.14.21-.29.28-.44.13-.31.13-.58.4-.75-.04-.41-.64-.46-1.11-.44-.06.04-.16.06-.24.08.05.1.08.12.2.16.11 1.16-.7 2.23-1.23 2.93-.21.28-.56.46-.75.75h-.04v.04c.53-.09 1.67-1.18 1.94-1.58zm-47.4 9.85c-.08.02-.08.01-.12.04-.29.15-.77 1.43-1.35 1.07-.29 0-.32-.06-.48-.16.02-.38.66-1.06.91-1.23.03-.6.19-1.25.12-1.82-.04-.01-.08-.03-.12-.04-.14-.05-.25.17-.36.28-.29.29-.65.6-.87.95-.34 0-1.41-.01-1.62.12h-.12c.1-.26.86-1.1.63-1.46-.01-.04-.03-.08-.04-.12-.72 0-1.59 1.29-1.82 1.82-.12.27-.12.57-.28.79v.04c.54-.07 1.08-.13 1.62-.2.21-.04.49.05.63-.04h.55c.09-.12.18-.24.28-.36.33-.35.77-.7 1.03-1.11h.12v.55c-.3.27-.77.7-.91 1.11v.32c-.2.88.22 1.33.99 1.27.5-.47 1.32-.85 1.23-1.78-.04-.04 0 .01-.04-.04zm-4.59-.71h-.24c.11-.44.54-.94 1.07-.95v.2c-.19.24-.37.48-.55.71-.11 0-.22 0-.28.04zm85.23.2c-.16-.41-.29-.72-.48-1.07-.3-.57-.61-1.41-1.46-1.43-.21.18-.44.32-.56.59-.78 1.76.82 3.75 1.54 4.71.26.34.56.71.95.91-.09 1.38-1.27 1.81-2.53 1.27-.9-.39-1.62-1.24-2.18-1.98-.19-.25-.48-.46-.67-.71-.18-.24-.3-.51-.52-.71v-.04h-.08c.11.43.35.82.51 1.19.67 1.54 1.52 2.61 2.81 3.52.61.43 1.62 1.1 2.49.48 1.53-1.1.78-5.19.16-6.73zm-.12 1.9c-.1.1-.54-.42-.64-.52-.44-.44-1.33-1.22-.83-1.98h.2c.39.4.75.79.99 1.34.13.3.15.81.31 1.07-.02.07-.01.04-.04.08zm-26.24 7.91v-.4c.18-.8.14-1.77.31-2.57.24-1.09-.1-2.15.99-2.41.02-.11.06-.15 0-.24-.03-.07-.01-.04-.04-.08-.04-.03-.04-.02-.12-.04-.31.22-1.13.37-1.54.47-.31.08-.64.01-.87.16-.04.01-.08.03-.12.04.01.08.03.16.04.24.45.15.87-.03 1.07.36.13.25.11 1.16.04 1.5-.25 1.16-.15 2.49-.4 3.64-.09.4.02 1.17-.16 1.46v.08c-.24-.12-.4-.43-.55-.63-.35-.47-.88-.84-1.23-1.31-.21-.28-.44-.62-.71-.83.04-.76.26-1.56.44-2.25.13-.52.14-1 .4-1.39.15-.22.51-.36.75-.48 0-.1 0-.15-.04-.2a.564.564 0 0 0 -.04-.12c-.54.08-1 .34-1.51.48-.45.12-.91.09-1.27.28.01.09.01.11.04.16.01.04.02.08.04.12 1.39-.08 1.18.68.91 1.74-.08.33-.03.78-.2 1.03v.08h-.04c-.28-.43-.71-.85-1.07-1.23-.15-.13-.29-.26-.44-.4-.1-.14-.16-.31-.28-.44.02-.44.38-.55.71-.67-.02-.18-.05-.21-.12-.32-1.03.15-1.93.73-3.09.79v.04h-.04c0 .1 0 .15.04.2v.08c.23.04.56-.05.83.04.43.15.81.65 1.07.99.39.51 1 .95 1.38 1.46.2.27.43.63.71.83-.04.7-.23 1.43-.4 2.06-.09.32-.04.74-.2.99-.03.07-.01.04-.04.08-.38-.72-1.1-1.26-1.58-1.9-.92-1.22-1.94-2.32-2.89-3.52 0-.17.01-.27.08-.36.07-.23.36-.44.63-.48.02-.12.03-.14-.04-.24-.02-.04-.03-.08-.04-.12-.8.12-1.52.5-2.29.71-.4.11-.93.06-1.23.28-.04.01-.08.03-.12.04.02.15.06.18.12.28.31-.01.65-.09.95 0 .79.24 1.36 1.14 1.82 1.74.2.27.51.48.71.75.85 1.13 1.81 2.15 2.65 3.29.33.44.77.83 1.07 1.3.18 0 .22-.03.32-.08.21-.93.33-1.87.6-2.81.12-.43.27-.94.31-1.42.33.12.59.61.79.87.62.82 1.49 1.5 2.06 2.37.16-.01.18-.03.28-.08.18-1.34.35-2.69.52-4.03zm-62.4 6.77c-.01 2.47-.14 6.27 1.78 6.81.7.19 1.09-.27 1.31-.6.79-1.17.56-3.45-.2-4.43-.34.03-.83.84-.99 1.11-.08-.02-.08-.01-.12-.04-.09-.04-.09-.07-.16-.12-.06-.93.13-1.8.16-2.69 1.04.1 1.94.7 3.01.75 0-.19 0-.43.08-.55-.01-.09-.01-.11-.04-.16-.14-.12-.95-.31-1.19-.32v-.04h-.04c.15-1.17-.19-2.08-.99-2.41l-1.35-.24c-.23-.08-.34-.27-.51-.4-.06-.38-.13-.81.16-1.03-.02-.14-.03-.17-.12-.24v-.04h-.04c-.13.23-.25.49-.32.79-.23.98.31 1.82.91 2.02.4.07.79.13 1.19.2.31.12.45.38.67.6-.01.51-.5.57-.91.44-.64-.21-1.32-.35-1.98-.59-.17-.06-.33-.17-.56-.2-.03.25-.05.5-.08.75.55.17 1.11.34 1.66.52-.02 1.4-.57 3.07.12 4.15.08.02.14.04.2.08.78-.05.94-.68 1.35-1.11.34.82.09 2.25-.67 2.45-.33.22-.8-.07-.99-.24-.65-.6-.79-1.51-1.03-2.53-.08-.34.03-1.04-.12-1.31.01-.4.09-1.13-.12-1.34v-.04h-.08zm95.04 6.65c-.14-.67.06-1.48-.08-2.1v-.63c-.1-.45-.06-1.06-.16-1.5-.19-.88-.02-1.93-.36-2.65-.2-.05-.39-.08-.67-.08-.1.1-.18.16-.16.28.08.36.55.43.67.79.02.17.03.34.04.51.13.56.11 1.29.24 1.86v.48c.06.29.16 1.04.08 1.27-.14.41-.58.78-.87 1.07-.75.76-1.64 1.72-2.97 1.86-.03.07-.01.04-.04.08.02.49.48.4.79.59.08-.01.16-.03.24-.04.12-.07.19-.24.28-.36.2-.26.56-.4.75-.67h.04c0 1.21.03 2.56.04 3.72h.12c.27-1.17.25-2.61.24-4.04.52-.49.85-1.19 1.39-1.66v-.08h.04c.01 1.25.04 2.53.04 3.8 0 .41-.1 1.38 0 1.54v.24h.08c.11-.43.13-1.02.24-1.5v-.67c.12-.53.12-1.56 0-2.1zm-71.02 2.53c-.35-.14-.78-.46-.99-.75-.64-.88-1.34-2.95-.87-4.51.38-1.27 1.2-2.13 2.53-2.45.67-.16 1.4.06 1.82.28 1.21.62 1.73 1.51 2.1 2.97.48 1.89-.13 3.62-1.39 4.19l.24 2.3c.44-.01.85-.11 1.23-.2.63-.16 1.27-.18 1.86-.32.43-.1 1.05-.02 1.38-.24.08-.17-.25-1.35-.32-1.62-.06-.23-.01-.46-.12-.63v-.08c-.09.01-.19.03-.28.04.02 1.2-.83 1.03-1.78 1.27-.47.12-1.05.27-1.58.28v-.51c.05-.08.74-.39.87-.48.46-.32.93-.83 1.23-1.3.2-.33.37-.76.47-1.15.14-.49.15-1.17.04-1.66-.08-.34-.05-.6-.16-.91-.43-1.19-1.32-2.05-2.45-2.53-.51-.22-1.09-.22-1.7-.36-.54-.12-1.51.12-1.9.24-1.91.56-3.2 1.48-3.8 3.32-.24.73-.16 1.74.04 2.41.47 1.56 1.77 3.02 3.72 3.05v.04c.06.09.06.26.12.36-.02.07-.01.04-.04.08-.16.11-.4.06-.63.12-.47.12-1.99.49-2.33.16-.22-.07-.37-.36-.4-.63-.1 0-.15 0-.2.04h-.08c.15.77.29 1.53.44 2.3h.04v.04c1.39-.24 2.77-.48 4.15-.71-.2-.73-.4-1.45-.59-2.18-.11-.17-.47-.15-.67-.23zm67.7-4.39c.09.22.25.58.44.71.09.06.13.04.2.12 1.31.11 1.84-2.14 1.31-3.44-.1-.23-.52-.89-.91-.63h-.08c.03-.07.01-.04.04-.08 0-.19-.02-.25-.08-.36-.08-.01-.16-.03-.24-.04-.04.03-.01.01-.08.04.03.24.11.25.12.51-.64.58-1.19 1.98-.72 3.17zm.43-2.1c.09-.21.27-.35.4-.52.08-.02.08-.01.12-.04.3 0 .39.06.56.16.3.71.35 1.95-.16 2.49-.08.09-.23.12-.32.2-.83-.06-.9-1.58-.6-2.3zm-18.35 15.58c-.45-.27-.51-1.68-.67-2.29-.33-1.22-.48-2.49-.83-3.72-.22-.79-.52-1.61-.44-2.57.14-.14.23-.32.4-.44.22-.15.58-.23.75-.44.03-.05-.02-.13-.04-.24-.46.07-.88.35-1.27.52-.79.34-1.57.54-2.37.87-.25.1-.52.28-.83.32v.24c.03.01.06.03.08.04.04.05 1.03-.39 1.35-.12.36.13.31.59.51.87-.06.61-.67 1.56-.91 2.1a61.74 61.74 0 0 1 -1.82 3.84c-.25.48-.54 1.33-.87 1.7v.04c-.22-.3-.2-1.05-.31-1.46-.35-1.24-.58-2.59-.95-3.8-.07-.23-.31-1.28-.16-1.5.05-.55.82-.79 1.27-.95-.01-.09-.02-.19-.04-.28-.7.11-1.43.48-2.06.71-.6.22-1.14.31-1.74.52-.3.1-.64.28-.99.31v.04h-.04c.02.11.03.17.08.24.16.11 1.03-.35 1.39-.08.56.19.57 1.08.75 1.66.48 1.58.73 3.33 1.19 4.95.12.4.39 1.69.12 2.02-.15.44-.89.62-1.31.79.01.08.02.16.04.24.61-.09 1.16-.37 1.71-.56 1.06-.35 2.07-.65 3.09-1.03-.02-.09-.03-.19-.04-.28-.44.12-.77.25-1.39.24-.08-.07-.16-.13-.24-.2-.07-.21-.13-.42-.2-.63.04-.5.68-1.42.91-1.86.67-1.29 1.26-2.6 1.86-3.96.23-.52.75-1.27.83-1.86.18.11.13.44.2.67.14.48.21.98.36 1.5.28 1 .39 2.08.67 3.13.1.39.26 1.05.08 1.46-.18.4-.84.67-1.27.83.02.08.04.18.08.24 0 .01.91-.29 1.06-.35 1.1-.47 2.24-.96 3.36-1.39-.02-.09-.02-.19-.04-.27-.28.07-.92.44-1.31.2zm18.71 3.33c-.14.13-.35.16-.51.28-.5.36-1.02.96-1.39 1.46-.29.4-.53.84-.79 1.27-.11.19-.14.4-.28.55v.08c.35-.06.55-.28.79-.44.66-.41 1.25-.78 1.86-1.23.3-.22.52-.55.83-.75.03-.47.13-.84-.08-1.19-.12-.02-.26-.04-.44-.04zm-.47 1.42c-.24.18-.47.42-.71.6-.21.15-.46.22-.63.4h-.04c.13-.41.82-1.11 1.15-1.34.17-.12.38-.16.56-.28h.16c.04.05.03.04.08.08-.04.3-.36.41-.55.55zm-85.5 1.54c-.17-.5-.28-.99-.44-1.47-.08-.25-.06-.53-.2-.71v-.12c.27.1.68.09.91.24h.2c-.05-.21-.09-.55-.2-.71-.12-.2-.89-.2-1.11-.35-.31-.24-.61-.95-.83-1.31-.56-.89-1.3-1.83-2.14-2.45-.44-.33-.75-.67-1.54-.67-.09.07-.19.13-.28.2-.18.79.14 2.25.59 2.61v.08c-.19-.05-.39-.15-.51-.28h-.04c.01.23.05.52.16.67.05.2.36.35.55.4.25 1.04.59 2.1.95 3.05.29.76.44 1.48.75 2.21.16.36.52.62.63.99h.12c-.09-.33-.27-.65-.39-.95-.36-.88-.65-1.8-.95-2.69-.19-.58-.33-1.15-.51-1.7-.07-.21-.05-.43-.16-.6v-.04c.27.05.43.19.63.28.46.2.9.28 1.39.48.35.15.8.35 1.23.4.05.36.25 1.3.44 1.55v.12c-.6-.41-.59-1-1.66-.91-.05.06-.13.12-.2.16-.1.24-.1.65 0 .91.26.65 1.07 1.99 1.74 2.18.26.18.63-.04.75-.24.24.13.29.68.4.95.21.56.52 1.29 1.03 1.54v.04h.08c-.07-.45-.32-.85-.48-1.23-.35-.86-.62-1.75-.91-2.61zm-1.15-3.21c-.42-.03-.77-.19-1.11-.32-.89-.33-1.7-.62-2.49-.99-.1-.36-.76-1.64-.4-2.1.03-.04.05-.08.08-.12.08-.02.08-.01.12-.04 1.22.15 2.44 1.63 3.05 2.45.24.32.43.8.75 1.03v.08zm.63 3.44c-.12.15-.24.29-.36.44-.11.08-.22.11-.32.2-.68-.02-.7-.69-.99-1.11.01-.39.15-.39.32-.59.09-.01.11-.01.16-.04.61 0 .75.28 1.11.52.06.23.1.33.08.59zm23.27 6.09c-.17-.27-.49-.34-.71-.55-.07-.02-.04-.01-.08-.04.51-.26 1.05-.56 1.58-.79.14.16.8.79 1.03.67.04-.01.08-.02.12-.04-.01-.22-.03-.45-.04-.67-.5-.5-1.23-.91-2.06-1.07v.04h-.04c.09.27.4.53.64.67v.12c-.47.07-.89.3-1.31.44-.29.09-.64.08-.87.24h-.12c.17-.48.74-.87 1.03-1.27.58-.78 1.03-1.73 1.94-2.18-.02-.37-1.08-1.12-1.46-.87-.1.05-.03-.02-.08.08-.06.14.14.32.08.55-.08.31-.83 1.74-1.03 1.9v.04c-.41-.14-.72-.52-1.11-.71.07-.36.38-.64.55-.91.45-.68.82-1.34 1.5-1.78-.01-.53-.86-1.08-1.43-1.07 0 .24.13.38.08.59-.14.65-.44 1.3-.67 1.86-.16.36-.23.8-.48 1.07-.05.03-.49-.01-.59-.08-.15 0-.3.01-.39.04v.08c.67.65 1.39.87 2.3 1.27-.13.66-.79 1.09-1.11 1.58-.17 0-.3-.01-.4-.08-.09.02-.1.02-.16.04.02.58.5 1.08.99 1.19.33-.37.74-.54 1.23-.75.45.47.58 1.14.75 1.9.08.33-.05.7.04.99.15.51.43.67.67 1.03h.28c.17-.93-.25-1.83-.48-2.57-.07-.32-.13-.63-.2-.95zm62.51-6.69c-.24.2-.57.3-.83.48-.4.28-.76.66-1.15.95-.18.13-.44.25-.56.44-.2.3-.16.81-.4 1.07v.16c.31-.11.46-.48.71-.67.31-.23.56-.54.87-.75.19-.13.41-.21.59-.36.13.02.12.04.2.08-.02 1-.55 1.71-.87 2.45-.09.22-.12.55-.28.71-.07.08-.23.09-.31.16-.26.29-.53.58-.79.87-.25.34-.37.8-.63 1.15 0 .11 0 .22.04.28.04.03.11.06.16.08.51-.48 1-.89 1.42-1.47.66-.9.99-2.05 1.47-3.13.3-.68.73-1.35.71-2.33-.05-.05-.08-.1-.12-.16h-.24zm-2.77 6.25v.04h-.04c.07-.48.43-.61.6-.95h.08c-.05.39-.35.75-.64.91zm-59.15.63c-.08.34.76 1.11 1.03 1.31.13.1.31.33.52.24.1-.01.14-.02.2-.04.05-.11.12-.24.04-.35-.02-.5-1.31-1.05-1.78-1.15zm3.8 3.04c.07.03.12.02.2-.04.14-.11.06-.31.16-.48.22-.16.62-.12.91-.2.81-.21 1.75-.2 2.65-.4.43-.09 1.13.16 1.46-.04.04-.02.08-.03.12-.04-.02-.52-1.01-.74-1.55-.59-.24.07-.51.21-.75.28-.19.01-.37.03-.56.04-.06-.64-.38-1.14-.4-1.82.6-.01 1.34-.09 1.74-.32-.01-.2-.05-.2-.12-.31-.45-.11-1.23-.13-1.58.12-.1 0-.15 0-.2-.04-.22-.28-.12-.85-.32-1.15v-.16c.43-.09 1.12-.17 1.35-.48.03-.04.01-.01.04-.08-.04-.04-.05-.07-.08-.12-.62-.16-.89-.05-1.42.16-.17-.54.03-.96-.51-1.11.12-.2.51-.19.75-.28.38-.13.82-.3 1.15-.47.03-.07.01-.04.04-.08-.02-.2-.08-.19-.16-.32-.57-.04-1.03.01-1.35.32h-.08c.05-.3.23-.72.39-.95.11-.16.32-.14.4-.36h.04v-.04c-.08-.1-.16-.21-.24-.31-.19-.13-.45-.14-.63-.28-.26 0-.52 0-.67.08.02.15.09.25.12.36.11.41-.28 1.67-.44 1.86-.12.15-1.55.67-1.94.56-.09-.03-.36-.16-.44-.24-.03-.04-.02-.01-.04-.08.56-.53.97-1.7 1.74-1.94.01-.06.03-.13.04-.2-.19-.2-1.14-1.19-1.62-.87-.04.01-.08.02-.12.04 0 .34.17.59.08.95-.18.71-.59 1.56-.95 2.14-.22.35-.69.73-.71 1.23.65-.06.8-.73 1.3-.91.15.14.29.27.44.4.21.31.17.78.28 1.19.19.86.37 1.72.55 2.57.03.43.05.85.08 1.27.11.38.42 1.05.83 1.14zm1.26-3.01c.03.37.26 1.41.44 1.66v.08c-.48.1-.97.24-1.5.24-.08-.56-.35-1.06-.36-1.66.61-.01.92-.26 1.42-.32zm-2.29-3.28c.06-.11 1.11-.27 1.23-.2.42.2.27.81.51 1.19-.08.19-1.05.49-1.35.51-.05-.42-.12-1.28-.4-1.5zm1.82 1.5h.04c.08.36.12.98.32 1.27-.14.35-1.02.32-1.35.52-.14-.08-.32-1.08-.32-1.35.3-.03 1.09-.29 1.31-.44zm-6.85 2.25c-.06.14-.05.35-.12.51-.34.84-.45 1.01.08 1.82.24 0 .27-.04.4-.12.16-.66.18-1.91-.36-2.22zm45.11.24c-1.15-.28-2.13.28-3.33.2-.11-.12-.2-.19-.28-.36-.84.02-1.76 1.89-.91 2.45.45.31 1.74.13 2.3 0 .31-.07.78-.14 1.03.04.33.25.27 1.18.16 1.7-.13.98-.27 1.95-.4 2.93l-.36 1.78c.61 0 1.18-.62 1.35-1.07.1-.26.05-.5.12-.79.21-.83.24-1.82.44-2.69.13-.56.04-1.1.16-1.62.09-.39.14-1.7.04-2.06-.06-.2-.22-.36-.32-.52zm-54.17 11.95c-.14-.1-.23-.28-.36-.4-.47-.42-1.03-.83-1.54-1.19-.43-.3-1.01-.48-1.39-.83-.01-.09.12-.3.04-.52-.34-.9-1.59-1.93-2.37-2.41-.36-.23-.97-.33-1.31-.56-.25-.02-.37-.03-.44.16-.1.22.21.52.32.68.27.38.58.83.95 1.1.28.21.59.39.83.64h.12c-.15-.43-.61-.66-.95-.91-.31-.23-.45-.63-.71-.91.02-.13.04-.12.08-.2 1.09.01 1.8 1.01 2.29 1.66.22.29.57.46.59.95-.12 0-.22 0-.28-.04h-.12c.19.52.82.48 1.27.75.89.55 1.6 1.41 2.37 2.09.26.23.72.47.79.87-.54-.03-.92-.33-1.26-.56-.61-.4-1.6-1.1-2.02-1.66-.08-.1-.11-.26-.2-.36-.11-.11-.26-.14-.36-.28h-.16c-.04.41.41.71.67.95.82.75 1.7 1.44 2.73 1.98.37.19 1.05.52 1.47.28-.06-.57-.7-1.02-1.07-1.31zm24.37 2.61c-2.01-1.38-4.99-2.78-8.43-2.69-.17.1-.5.02-.71.08-.29.08-.46.22-.67.36-.01.97 1.45 1.5 2.26 1.7.48.12.91-.1 1.19-.2.22-.82-.78-.94-1.23-1.35h-.08v-.04c3.04-.12 5.31.73 7.04 2.02.43.32.93.78 1.15 1.31.08.19.12.52 0 .67-.16.44-.69.4-1.19.52-1.16.27-2.76-.39-3.29-.91-.11.19.05.48-.12.67-.18.48-.79.35-1.35.47-.92.2-2.35-.27-2.89-.63-.15-.1-.26-.29-.4-.4a.774.774 0 0 0 -.04-.2c.08-.07.18-.19.24-.28 1.14-.09 1.72-.03 2.38.6-.02.08-.01.07-.04.11-.07.15-.25.17-.47.16v.07c.42 0 .59-.06.83-.2.01-.08.03-.16.04-.24-.14-.14-.23-.33-.4-.44-.65-.43-1.99-.64-2.73-.16-.12.56.23.86.55 1.11.65.49 1.19.77 2.1 1.03.29.08.55.01.87.08.28.06.77.08 1.07 0 .5-.13 1.21-.66.63-1.27v-.04c.3.11.54.4.83.56.76.4 2.02.73 3.17.48.56-.13 1.14-.13 1.3-.64.18-.28-.07-.67-.16-.83-.37-.66-.86-1.09-1.47-1.5zm-7.32-1.82c.14.09.22.29.36.4 0 .1 0 .15-.04.2-.26.7-1.71.18-2.06-.08-.11-.08-.15-.25-.24-.35.02-.08.01-.08.04-.12.11-.31.42-.2.67-.35.5 0 .96.1 1.27.31zm36.72.4h-.4c-.26.21-.69.24-.99.4-.26.14-.58.33-.83.52-.21.15-.33.42-.52.59 0 .2.01.23.16.28.04.03.01.02.08.04.04-.05.08-.06.12-.12.03-.02-.03-.1-.04-.23.38-.39.67-.6 1.23-.83.14-.06.45-.23.63-.12h.08c-.03.39-.92 1.59-1.19 1.78v.12c.73-.19 1.22-1.64 1.7-2.17-.01-.09-.01-.11-.04-.16v-.08zm-3.17 2.93c-.23.21-.81.23-1.07.44h-.04c.1-.15.29-.21.4-.35.08-.1.11-.23.2-.32-.02-.08-.01-.08-.04-.12v-.08c-1.16-.21-3.08.78-3.68 1.31-.16.14-.25.34-.4.48 0 .11.02.17.04.24.7.05 2.02-.38 2.17-.95.03-.03.01 0 0-.04v-.08c-.48-.03-1.12.08-1.42.36h-.04c.26-.4 1.22-.75 1.74-.91.17-.05.55-.15.71-.04.04.02.08.03.12.04-.09.4-.66.84-1.03.95v.08c.61-.14 1.16-.42 1.7-.63.37-.15.79-.19 1.11-.4.23-.15 1.01-1.21 1.07-1.5-.91.14-.99 1.04-1.54 1.54zm-3.13.79v.12c-.08.05-.13.16-.2.2-.21.12-.48.11-.67.24-.09-.01-.11-.01-.16-.04h-.04c.11-.34.76-.49 1.07-.51zm-16.5 3.72c.02-.04.03-.08.04-.12l-2.93-.12c-.12.08-.31.04-.48.08-.2.06-.43.15-.59.24.03.07.01.04.04.08.24.19 1.62.2 1.9 0h.08v-.08c-.42-.13-1.18.2-1.5 0h-.04v-.04c1.05-.07 2.23-.04 3.33-.04-.11.07-.33.05-.44.12-.04.01-.08.03-.12.04v.08c.24.04.48.08.71.12l.04.04c-.35.23-1.25.14-1.58-.04v-.08c-.18-.08-.99.08-1.15.12-.13.03-.27-.01-.36.04-.17.01-.18.03-.28.08.02.13.04.12.08.2.26.06.7.06.99.16v-.04h.04v-.04c-.15-.06-.56-.03-.71-.12h-.08c.13-.1 1.43-.28 1.66-.12.07.02.04.01.08.04l-.63.12c.03.07.01.04.04.08.07.05.19.05.32.04-.04.07-.05.11-.12.16.01.02.03.05.04.08.56 0 1.03-.06 1.5-.16.28-.06.62.05.83-.08h.32v-.08c-.54 0-1.89-.06-2.22.16h-.12c.03-.04 0 0 .04-.04.16-.18.47-.09.75-.16.44-.1 1.17-.28 1.54 0 .11.06.04-.01.04.12.11 0 .18 0 .24-.04h.28v-.08c-.36-.09-.89-.25-1.19-.43-.17-.1-.09-.25-.39-.28zm-40.2-72.96c-.09.32-.27.59-.4.87-.27.61-.51 1.23-.75 1.82-.21.5-.34 1.3-.63 1.7v.08c.42-.07.7-.49.95-.75.62-.63 1.92-2.22 1.9-3.4-.06-.06-.12-.16-.16-.24-.25-.06-.56-.09-.91-.08zm.16 1.66c-.18.3-.28.59-.48.87-.18.26-.46.45-.63.71h-.04c.05-.3.21-.55.32-.79.24-.56.4-1.12.67-1.62.15 0 .27.02.36.08.1.05.03-.02.08.08.08.2-.18.51-.28.67zm70.23-12.15c-.41-.42-.73-.94-1.15-1.35v-.04c-.21.07-.9.69-1.03.87-.25-.1-.39-.37-.59-.51-.68-.51-1.31-1.17-2.49-1.15-.15.12-.37.12-.56.2-.53.23-1.08.69-1.31 1.23-.25.6 0 1.49.2 1.94.39.9 1.03 1.67 1.58 2.41.46.62.97 1.25 1.82 1.46.96.24 1.42-.88 1.78-1.31.37-.44 1.18-.54 1.46-1.11.1-.21.03-.62-.04-.79-.18-.43-1.07-1.62-1.43-1.86.02-.24.14-.25.24-.4.25.12.34.47.52.67.23.26.55.4.79.63.38 0 .6-.09.79-.28h.04c-.09-.27-.44-.45-.63-.63zm-2.25 4.27c-.7.17-1.05-.29-1.42-.67-.94-.94-1.57-2.09-2.3-3.24-.25-.4-.89-1.13-.55-1.7h.16c.2.3.54.51.75.79.59.78 1.31 1.47 1.9 2.26.36.49.76.94 1.11 1.42.18.25.32.56.56.75-.04.18-.12.26-.19.4zm.59-2.81c.32.44.76.69.75 1.46-.12.12-.16.22-.36.28-.04.03-.01.02-.08.04-.56-.93-1.37-1.71-2.02-2.57-.21-.28-.54-.51-.75-.79-.36-.48-.79-.86-1.19-1.31-.11-.13-.17-.26-.31-.36.03-.09.03-.06.08-.12.67.01.99.46 1.39.75.97.73 1.78 1.63 2.49 2.61z" fill="#231f20" opacity=".88"/>
 <path transform="translate(16.12 14.64)" d="m49.89 17.04c.01-.61-.39-1.27-.39-1.27l-.03-.06s-.49-.95-1.3-1.23c-.82-.28-1.48.34-1.48.34s-.11.13-.43.49c-.31.36-.51.67-1.2.94s-1.38.2-1.74.03-.46-.54-.46-.54-.23-.72-.31-1.05c-.09-.33-.31-1.69-.31-1.69s-.49-2.75-.53-3.3c0 0 1.48-.13 3.69-.78 2.3-.67 3.04-1.21 3.04-1.21s-.43-.16-.48-.66c-.05-.51-.09-1.19-.09-1.19s-.09-.5.48-1.14 1.35-.86 1.76-.95 1.28-.17 2.09-.13 1.27.11 1.59.29c.33.18.36.61.36.61l-.01 1.15s-.04.4.26.53c0 0 .51.31 2.2.13 0 0 .72-.13 1.85-.46 1.13-.34 4.13-1.23 4.55-1.34.43-.11.95-.29 1.65-.47.69-.18 2.04-.63 2.31-.73s1.81-.62 2.93-.81c1.12-.2 2.23-.19 2.81.15 0 0 .36.3.52.66s.48.86.92 1.09c.45.23.75.37 1.88.27 0 0 .02-.1-.4-.37-.42-.28-.99-.7-.99-.7s-.34-.25-.41-.45-.04-.31-.04-.31l.88-1.41s0-.17.51-.24 1.07-.13 1.74-.31.79-.31.79-.31l.58.18s3.55 2.85 4.66 3.58l.2-.24s.44.02.83.17.98.56.98.56 1.61 1.31 2.07 2.2l.22.68-.1.16s.92 1.31 2.1 2.6c0 0 1.23 1.66 1.69 2.09 0 0-.11-.4-.2-.85l.34-.23.2-.14.62.26c3.57 4.81 6.43 10.42 8.14 16.33l-.12.48.4.5c1.13 4.21 1.73 8.64 1.73 13.21 0 1.12-.04 2.24-.11 3.34l-.3.51.23.56c-2.24 26.1-24.13 46.58-50.81 46.58-18.5 0-34.7-9.85-43.64-24.6l-.1-.36-.21-.15a50.73 50.73 0 0 1 -6.6-19.1l.21-.53-.34-.48a51.607 51.607 0 0 1 .43-14.52l.25-.56-.09-.33a50.655 50.655 0 0 1 6.47-16.8l.68-.38.08.03s.23-.17.35-.22l.08-.02s1.18-1.97 1.63-2.6c0 0 .54-.35.75-.41 0 0 .12-.02.19.08 0 0 .5-.43 1.7-2.05 0-.01.01-.01.01-.02 0 0-.11-.08-.13-.17-.02-.1.11-.59.17-.72s.11-.16.11-.16 1.72-2.03 3.15-3.24c0 0 .26-.2.68-.25 0 0 1.47-.61 3.26-2.18 0 0 .05-.29.48-.86s1.46-1.16 2.22-1.34c.76-.17.9-.04.9-.04l.06.07.52.77s.56-.32 1.41-.6c.85-.29.98-.26.98-.26l.83 1.34-.99 2s-.64 1.42-1.66 2.19c0 0-.47.28-1.12.13s-1.07.33-1.07.33l-.17.14s.14-.02.35-.1c0 0 .16.07.27.22.11.16.91 1.18.91 1.18s.01.84-.42 1.94c-.42 1.1-1.47 2.89-1.47 2.89s-.73 1.42-1.08 2.25-.52 1.77-.49 2.26c0 0 .19.06.71-.2.66-.33 1.08.03 1.08.03s.72.53 1.04.88c.26.29.8 1.77.21 3.22 0 0-.4 1.01-1.38 1.72 0 0-.22.33-1.53.17-.37-.04-.59-.28-1.37-.2-.79.08-1.23.82-1.23.82l.01-.02c-.69 1-1.15 2.46-1.15 2.46l-.06.17s-.24.51-.29 1.75c-.05 1.28.28 3.11.28 3.11s7.88-1.39 9.88-.06l.58.53s.05.17-.03.38c-.08.2-.38.67-.99 1.11s-1.22 1.58-.31 2.3c1.03.82 1.69.77 3.43.47s2.9-1.27 2.9-1.27.97-.72.78-1.63-1.02-1.19-1.02-1.19-.66-.42-.14-1.24c0 0 .14-.69 2.55-1.32s6.81-1.52 10.56-1.99c0 0-2.54-8.22-.74-9.29 0 0 .44-.3 1.22-.41l.72-.04c.13-.03.34.01.8.05.45.04 1 .08 1.68-.44s.7-.82.7-.82" fill="url(#O)" opacity=".38"/>
 <path d="m117.31 131.56q-1.82 0-3.15-.29-1.32-.27-2.55-1.01l1.56-2.92q1.09.56 2.05.78.97.24 2.01.24 1.52 0 2.34-.84.82-.82.82-2.27v-.13h-2.65q-2.86 0-4.41-1.62-1.54-1.62-1.54-4.61 0-2.12 1.06-3.71 1.06-1.61 2.99-2.46 1.93-.85 4.47-.85h4.07v13.33q0 3.05-1.86 4.69-1.84 1.66-5.22 1.66zm3.09-9.65v-6.82h-.86q-1.71 0-2.68.97-.95.97-.95 2.73 0 1.61.65 2.37t2 .76h1.84zm-38.55 0h22.03q0-1.62-1.11-2.48t-3.15-.86h-14.24v-2.89q1.43-3.02 4-5.29 2.59-2.29 5.99-3.49l1.46 3.59q-2.3.69-4.35 2.07-2.04 1.37-2.95 2.8h10.71q3.8 0 5.71 1.54 1.92 1.54 1.92 4.51v3.73h-26.01v-3.22z"/>
 <path d="m70.11 125.13q-.13 0-.13-.13v-2.98q0-.1.13-.1h4.14v-10.04h3.99v10.04h4.03q.13 0 .13.1v2.98q0 .13-.13.13zm3.58 6.69q-.82 0-1.31-.52-.48-.51-.48-1.4 0-.9.47-1.42.48-.51 1.32-.51.82 0 1.29.51.47.51.47 1.42 0 .92-.48 1.41-.48.51-1.28.51zm4.55 0q-.82 0-1.31-.52-.48-.51-.48-1.4 0-.9.47-1.42.48-.51 1.32-.51.84 0 1.31.51.47.52.47 1.42 0 .89-.5 1.4-.48.52-1.28.52z"/>
 <path d="m58.24 125.13q-.13 0-.13-.13v-2.98q0-.1.13-.1h4.14v-10.04h3.99v10.04h4.03q.13 0 .13.1v2.98q0 .13-.13.13zm6.14 8.81q-.64 0-1.09-.41-.43-.41-.43-1.23 0-.85.43-1.24.44-.39 1.09-.39.71 0 1.11.44.42.46.42 1.19t-.42 1.18q-.41.46-1.11.46zm-2.27-3.37q-.82 0-1.31-.52-.48-.52-.48-1.41 0-.89.47-1.41.47-.51 1.32-.51.84 0 1.31.51.47.52.47 1.41 0 .9-.5 1.41-.48.52-1.28.52zm4.56 0q-.84 0-1.32-.51-.48-.51-.48-1.42 0-.89.47-1.41.47-.51 1.33-.51.81 0 1.28.51.48.51.48 1.41 0 .9-.5 1.41-.48.52-1.27.52z"/>
 <path d="m46.37 125.13q-.13 0-.13-.13v-2.98q0-.1.13-.1h4.14v-10.04h3.99v10.04h4.03q.13 0 .13.1v2.98q0 .13-.13.13zm3.58 6.69q-.82 0-1.31-.52-.48-.51-.48-1.4 0-.9.47-1.42.48-.51 1.32-.51.82 0 1.29.51.47.51.47 1.42 0 .92-.48 1.41-.48.51-1.28.51zm4.55 0q-.82 0-1.31-.52-.48-.51-.48-1.4 0-.9.47-1.42.48-.51 1.32-.51.84 0 1.31.51.47.52.47 1.42 0 .89-.5 1.4-.48.52-1.28.52z"/>
 <path d="m30.19 121.91h8.94q-.55-2.47-1.35-3.99-.78-1.53-2.01-2.63-1.22-1.11-2.98-1.84l1.5-3.75q3.53 1.41 5.69 4.37 2.16 2.95 3.16 7.84h3.52q.13 0 .13.1v2.98q0 .13-.13.13h-16.47v-3.22zm6.03 9.91q-.84 0-1.32-.52-.48-.51-.48-1.4 0-.9.47-1.42.48-.51 1.33-.51.81 0 1.28.51.48.51.48 1.42 0 .89-.5 1.4-.48.52-1.27.52zm-18.19-6.69q-.13 0-.13-.13v-2.98q0-.1.13-.1h4.68v-10.04h3.99v13.26h-8.67zm2.16 6.69q-.82 0-1.31-.52-.48-.51-.48-1.4 0-.9.47-1.42.48-.51 1.32-.51.82 0 1.29.51.47.51.47 1.42 0 .92-.48 1.41-.48.51-1.28.51zm4.55 0q-.82 0-1.31-.52-.48-.51-.48-1.4 0-.9.47-1.42.48-.51 1.32-.51.84 0 1.31.51.47.52.47 1.42 0 .89-.5 1.4-.48.52-1.28.52z"/>
 <path d="m18.29 121.91q.13 0 .13.1v2.98q0 .13-.13.13h-7.33v-20.34h3.99v17.12h3.35zm102.68 23.26v-1.42q0-.9-.35-1.32-.35-.42-1.03-.42-.62 0-.97.38t-.35 1.07q0 .78.47 1.25.47.46 1.23.46zm-4.82.95q-.06 0-.06-.06v-.85q0-.05.06-.05h1.89q-.39-.24-.62-.71-.23-.46-.23-1.04 0-.75.33-1.31.33-.57.89-.87.57-.31 1.23-.31 2.37 0 2.37 2.62v1.61h1.6v-2.39q0-1.66-.75-2.45t-2.36-.79q-1.19 0-2.26.36l-.28-.94q1.14-.38 2.54-.38 1.99 0 3.07 1.08 1.08 1.07 1.08 3.02v3.45h-8.49zm2.21 2.15 2.86-1.07v.66l-2.86 1.07v-.67z"/>
 <path d="m106.58 146.13q-1.13 0-2.42-.23-1.29-.24-1.96-.54l.12-.55q.85.2 1.48.29.64.08 1.95.08h8.08v-.34q0-.92-.56-1.34-.55-.43-1.69-.43h-6.57v-1q.6-1.25 1.82-2.37 1.23-1.11 2.48-1.6l.39.93q-1.14.46-2.19 1.35-1.06.88-1.48 1.74h5.56q1.6 0 2.44.66.84.66.84 1.88v.52h1.4q.07 0 .07.05v.85q0 .06-.07.06h-9.69zm.43-8.33q-.68 0-1.25-.41l.35-.51q.45.3.87.3.36 0 .61-.08-.39-.49-.39-1.04 0-.46.3-.74t.79-.27.77.28q.28.27.28.69 0 .44-.33.86-.32.42-.87.67-.55.25-1.14.25zm1.12-.91q.32-.17.45-.39.14-.23.14-.44 0-.19-.13-.31t-.32-.12q-.18 0-.32.12-.13.12-.13.37 0 .38.3.77zm-17.42 9.24q-.06 0-.06-.06v-.85q0-.05.06-.05h5.14v-2.25q0-.91-.55-1.34-.55-.43-1.7-.43h-2.07v-1q.39-.82 1.09-1.62.69-.8 1.54-1.42.86-.63 1.67-.94l.39.93q-1.12.44-2.19 1.34-1.07.89-1.48 1.75h1.06q1.6 0 2.44.66.85.66.85 1.88v3.38h-6.18zm1.06-9.23q-.68 0-1.25-.41l.35-.51q.45.3.87.3.36 0 .61-.08-.39-.49-.39-1.04 0-.46.3-.74.3-.27.79-.27t.77.28q.28.27.28.69 0 .44-.33.86-.32.42-.87.67-.55.25-1.14.25zm1.12-.91q.32-.17.45-.39.14-.23.14-.44 0-.19-.13-.31t-.32-.12q-.18 0-.32.12-.13.12-.13.37 0 .38.3.77z"/>
 <path d="m86.54 146.13q-.06 0-.06-.06v-.85q0-.05.06-.05h1.61v-8.32h1.09v8.32h1.59q.06 0 .06.05v.85q0 .06-.06.06z"/>
 <path d="m81.77 146.13q-.06 0-.06-.06v-.85q0-.05.06-.05h1.98v-4.97h1.09v4.97h1.83q.06 0 .06.05v.85q0 .06-.06.06h-4.89zm1.5 2.44q-.29 0-.49-.17t-.2-.56.2-.56q.2-.17.49-.17.31 0 .49.18.18.19.18.55 0 .35-.18.54-.18.19-.49.19zm2.11 0q-.32 0-.5-.19t-.18-.54.18-.54q.18-.19.51-.19t.51.2q.18.2.18.54 0 .33-.18.53t-.51.2z"/>
 <path d="m80.55 146.13q-.02 1.45-.75 2.19-.73.75-2.29.75h-.88q-1.13 0-1.79-.83-.66-.83-.66-2.3 0-.75.13-1.52t.37-1.36h1.01q-.42 1.06-.42 2.88 0 1.04.42 1.61.42.57 1.17.57h.6q1.06 0 1.56-.48.49-.48.49-1.46v-9.31h1.04v8.32h1.34q.07 0 .07.05v.85q0 .06-.07.06h-1.34zm-18.46 0q-.06 0-.06-.06v-.85q0-.05.06-.05h5.23q-.45-.45-.77-2.24-.18-1.06-.52-1.48-.34-.42-1.02-.42-.85 0-1.77.49l-.42-.84q.52-.34 1.06-.47.54-.13 1.15-.13.75 0 1.25.27t.79.8q.3.52.45 1.51.18 1.09.4 1.69.23.59.52.85v.93zm2.92 4.65q-.32 0-.5-.19t-.18-.54q0-.35.18-.54.18-.19.5-.19t.5.2q.18.2.18.53t-.18.53q-.18.2-.51.2zm0-2.21q-.32 0-.5-.19t-.18-.54.18-.54q.18-.19.51-.19t.51.2q.18.2.18.54 0 .33-.18.53t-.51.2z"/>
 <path d="m59.51 136.85h1.09v8.32h1.61q.07 0 .07.05v.85q0 .06-.07.06h-2.69v-9.28zm-6.17 12.21q-1.14 0-1.8-.79-.66-.79-.66-2.15 0-1.46.5-2.7h1.01q-.42 1.06-.42 2.63 0 .99.41 1.53t1.18.54h.6q1.06 0 1.56-.48.49-.48.49-1.46v-5.96h1.04v5.87q0 1.48-.73 2.23t-2.31.75h-.88zm-.55-8.86h.18v-2.22h.49v1.55q.15-.36.37-.57.23-.22.58-.22.9 0 .9 1.06v.93h-2.53v-.52zm2.04 0v-.3q0-.32-.11-.48-.11-.16-.36-.16-.29 0-.51.2-.21.19-.39.62v.13h1.37zm-2.84-3.62 2.86-1.06v.66l-2.86 1.07zm-13.19 9.55q-.06 0-.06-.06v-.85q0-.05.06-.05h5.23q-.45-.45-.77-2.24-.18-1.06-.52-1.48-.34-.42-1.02-.42-.85 0-1.77.49l-.42-.84q.52-.34 1.06-.47.54-.13 1.15-.13.75 0 1.25.27t.79.8q.3.52.45 1.51.18 1.09.4 1.69.23.59.52.85v.93zm2.97 4.1q-.27 0-.45-.16t-.18-.51q0-.35.18-.51.18-.16.45-.16.26 0 .44.16.19.16.19.51 0 .36-.19.51-.18.16-.44.16zm-1.05-1.49q-.29 0-.49-.17t-.2-.56q0-.38.2-.55.2-.17.49-.17.32 0 .5.2t.18.53-.18.53q-.18.2-.51.2zm2.11 0q-.32 0-.5-.19t-.18-.54q0-.35.18-.54.18-.19.5-.19t.5.2q.18.2.18.53t-.18.53q-.18.2-.51.2zm-2.42 3.1 2.86-1.07v.66l-2.86 1.07v-.67z"/>
 <path d="m34.03 146.13q-.06 0-.06-.06v-.85q0-.05.06-.05h1.98v-4.97h1.09v4.97h1.83q.06 0 .06.05v.85q0 .06-.06.06h-4.89zm1.5 2.44q-.29 0-.49-.17t-.2-.56.2-.56q.2-.17.49-.17.31 0 .49.18.18.19.18.55 0 .35-.18.54-.18.19-.49.19zm2.11 0q-.32 0-.5-.19t-.18-.54.18-.54q.18-.19.51-.19t.51.2q.18.2.18.54 0 .33-.18.53t-.51.2z"/>
 <path d="m21.07 145.17h10.55v-.34q0-.91-.55-1.34-.55-.43-1.7-.43h-6.57v-1q.59-1.23 1.81-2.35t2.49-1.62l.39.93q-1.13.45-2.19 1.34-1.06.88-1.49 1.75h5.56q1.6 0 2.44.66.84.66.84 1.88v.52h1.49q.06 0 .06.05v.85q0 .06-.06.06h-13.07v-.95z"/>
 <path d="m16.95 146.13q-.06 0-.06-.06v-.85q0-.05.06-.05h1.61v-8.32h1.09v8.32h1.59q.06 0 .06.05v.85q0 .06-.06.06z"/>
 <path d="m15.04 145.17v-4.02h-.52q-1.09 0-1.69.57-.6.57-.6 1.6 0 .95.41 1.4.42.44 1.26.44h1.15zm1.04 1.25q0 1.25-.74 1.94-.73.7-2.08.7-1.25 0-2.2-.63l.49-.82q.39.21.81.35.42.14.92.14.83 0 1.3-.45.47-.44.47-1.18v-.35h-1.2q-1.3 0-2.01-.72-.71-.72-.71-2.07 0-1.44.91-2.28.91-.85 2.44-.85h1.6v4.97h1q.06 0 .06.05v.85q0 .06-.06.06h-1z"/>
 <path d="m11.86 89.77h111.22v14.14h-111.22z" fill="#369"/>
 <text x="67.5" y="101" fill="#fff" font-size="12" text-anchor="middle">10000 </text>
</svg>
