<?xml version="1.0" encoding="UTF-8" standalone="no"?>
<svg xmlns="http://www.w3.org/2000/svg" width="294" height="41" version="1.0">
	<path fill="gray" d="M109.406 0c-.132-.003-.197.264-.187.781.01.517.119 1.06.344 1.625.213.46.524.854.906 1.157a4.11 4.11 0 001.312.687c.658.219 1.291.438 1.844.625.553.187 1.134.416 1.75.719.86.416 1.54.926 2.031 1.531.492.606.792 1.32.938 2.156.067.447.105.943.125 1.438.02.494-.014.97-.094 1.437a3.398 3.398 0 00-1.312-.593 6.501 6.501 0 00-1.5-.157h-.032c-.521.003-1.184.115-2 .375-.815.26-1.663.64-2.562 1.125-1.643.885-3.116 2.31-4.375 4.25-1.26 1.94-1.902 4.257-1.969 6.969-.01 1.745.4 3.27 1.25 4.563.85 1.293 2.194 1.966 4.031 2.03 1.116-.024 2.223-.325 3.344-.874 1.121-.55 2.126-1.22 2.969-2 1.364-1.263 2.52-2.995 3.469-5.25.949-2.255 1.427-4.757 1.468-7.469a18.183 18.183 0 00-.625-4.656 15.162 15.162 0 00-1.937-4.281c-.76-1.23-1.619-2.249-2.563-3.032-.944-.783-2.079-1.391-3.406-1.843a34.357 34.357 0 01-2-.72A9.879 9.879 0 01109.406 0zM84.844.125a.88.88 0 00-.25.188c-.314.347-.768.658-1.406.937-.64.28-1.453.58-2.438.906-.686.21-1.315.421-1.875.657-.56.235-1.107.509-1.625.78-.873.438-1.793 1.01-2.781 1.72-.989.71-1.98 1.568-2.938 2.593-1.814 1.932-3.249 4.199-4.343 6.782-1.095 2.583-1.66 5.361-1.688 8.343-.009 2.213.439 4.038 1.344 5.469.904 1.43 2.295 2.169 4.219 2.219.948-.015 1.977-.279 3.03-.75a11.517 11.517 0 002.876-1.813c1.47-1.293 2.622-2.879 3.5-4.75.877-1.87 1.353-3.825 1.375-5.875-.008-1.837-.418-3.314-1.219-4.437-.8-1.124-1.97-1.719-3.469-1.75h-.03c-1.022.02-2.15.365-3.407 1a15.22 15.22 0 00-3.531 2.437l-.125-.062c.37-1.579.856-2.946 1.437-4.063.581-1.116 1.19-1.981 1.813-2.593a6.754 6.754 0 012-1.344c.784-.354 1.666-.606 2.656-.813.655-.16 1.339-.349 2.031-.531a14.67 14.67 0 002.031-.687c1.019-.462 1.788-1.13 2.282-1.97.493-.84.78-1.629.875-2.343-.004-.119-.048-.194-.157-.25a.213.213 0 00-.187 0zM17.438 2.281c-4.971.064-9.08 1.565-12.344 4.5C1.829 9.717.12 13.71 0 18.75c.07 3.94 1.25 6.945 3.5 9 2.25 2.055 5.14 3.08 8.719 3.094a25.894 25.894 0 004.25-.406c1.311-.24 2.303-.424 2.969-.594.518-.75 1.12-1.772 1.78-3.063.661-1.29 1.191-2.384 1.563-3.281l-1.093-.594c-1.123 1.87-2.38 3.412-3.782 4.625-1.4 1.214-3.15 1.832-5.218 1.875-2.821-.074-4.95-1.103-6.407-3.125-1.456-2.022-2.212-4.579-2.218-7.656.054-4.019 1.21-7.464 3.437-10.344 2.228-2.88 5.219-4.397 8.969-4.531 2.079-.043 3.658.426 4.75 1.375 1.092.95 1.707 2.638 1.812 5.094l1.25-.125c.08-1.016.145-2.062.188-3.156.043-1.095.097-2.203.156-3.282-.604-.26-1.537-.526-2.781-.843-1.245-.318-2.71-.503-4.406-.532zm162.75 6.125c-.501.283-1.03.66-1.594 1.094a10.47 10.47 0 00-1.469 1.344l-.469 1.906c-.703.277-1.421.577-2.125.938-.703.36-1.329.753-1.906 1.156l.281 1.031c.48-.257 1.004-.513 1.563-.781a14.68 14.68 0 011.844-.719c-.78 3.633-1.555 7.284-2.344 10.938-.79 3.653-1.565 7.325-2.344 11-.228 1.232-.587 2.039-1.062 2.468-.476.43-1.337.765-2.594.969l-.219 1.031 9.688-.5.187-1.031-1.062-.125c-1.005-.064-1.617-.283-1.844-.656-.228-.374-.224-1.167.031-2.344l1.187-5.844c.41.165.835.285 1.282.344.447.06.84.097 1.187.094 1.37-.35 2.744-.959 4.125-1.813a16.991 16.991 0 003.688-3.062c1.196-1.384 2.095-2.84 2.687-4.344.593-1.504.907-2.94.906-4.344.019-1.877-.453-3.323-1.406-4.312-.953-.99-2.511-1.492-4.656-1.5-.585 0-1.231.04-1.938.125a13.24 13.24 0 00-1.968.375l.75-3.219-.407-.219zM42.625 11.313c-.371.11-.939.233-1.687.375-.75.141-1.604.264-2.563.375a75.72 75.72 0 01-4.812.406c-1.78.096-3.318.154-4.625.156-.252.07-.478.337-.688.844-.21.506-.395.937-.562 1.281a35.23 35.23 0 002.093-.125c.754-.07 1.507-.163 2.25-.25-.323 1.491-.829 3.183-1.562 5.094-.733 1.91-1.619 3.675-2.656 5.25A18.648 18.648 0 0125.5 27.53c-.748.741-1.497 1.33-2.25 1.782l-.062.437c.137.267.376.5.718.719.342.22.715.35 1.125.344.288.008.582-.095.907-.282.324-.186.72-.525 1.156-1 1.637-1.971 3.007-4.401 4.125-7.312 1.117-2.911 1.985-5.567 2.594-7.938 1.083-.127 2.023-.226 2.843-.343a30.621 30.621 0 001.844-.313 442.763 442.763 0 00-1.594 6.594 300.236 300.236 0 00-1.468 6.469c-.28 1.49-.334 2.547-.157 3.156.178.609.513.896.969.875.602-.018 1.498-.394 2.688-1.125 1.19-.732 2.331-1.733 3.437-2.969l-.469-1.031a12.555 12.555 0 01-1.843 1.469c-.58.371-.987.584-1.22.593-.15.018-.24-.13-.28-.406-.042-.276.003-.782.125-1.562.296-1.659.603-3.358.968-5.063.365-1.705.755-3.424 1.157-5.187.199-.96.404-1.64.625-2.032a1.94 1.94 0 01.906-.843l.5-.25zm13.813.03c-.665.007-1.393.133-2.188.376-.795.242-1.575.563-2.344.968-1.79.945-3.291 2.402-4.5 4.375-1.208 1.974-1.858 4.343-1.906 7.094-.018 1.762.412 3.29 1.281 4.563.87 1.273 2.305 1.94 4.282 2a8.715 8.715 0 003.437-.75 12.511 12.511 0 003.031-1.907 12.091 12.091 0 003.344-4.625c.76-1.83 1.153-3.68 1.156-5.53-.015-2.093-.524-3.713-1.5-4.845-.975-1.13-2.336-1.705-4.093-1.718zm39.375 0c-.665.007-1.393.133-2.188.376-.795.242-1.575.563-2.344.968-1.79.945-3.291 2.402-4.5 4.375-1.208 1.974-1.858 4.343-1.906 7.094-.018 1.762.412 3.29 1.281 4.563.87 1.273 2.305 1.94 4.282 2a8.715 8.715 0 003.437-.75 12.511 12.511 0 003.031-1.907 12.091 12.091 0 003.344-4.625c.76-1.83 1.153-3.68 1.156-5.53-.015-2.093-.524-3.713-1.5-4.845-.975-1.13-2.336-1.705-4.093-1.718zm38.78 0c-.9.012-1.853.23-2.874.657-1.021.426-1.985 1.014-2.906 1.719-1.662 1.309-2.934 2.915-3.782 4.875a15.055 15.055 0 00-1.25 6c.072 2.442.578 4.086 1.563 4.937.985.852 1.993 1.245 3.031 1.188 1.02.049 2.299-.263 3.813-.907 1.513-.644 3.202-1.918 5.062-3.843l-.719-.969c-1.064 1.035-2.123 1.818-3.187 2.375-1.064.557-2.042.869-2.938.875-1.257-.056-2.118-.572-2.593-1.531-.476-.96-.712-2.029-.688-3.219-.002-.208-.009-.438 0-.656.009-.219.054-.438.094-.688 1.406-.332 2.951-.833 4.656-1.469 1.705-.635 3.18-1.452 4.437-2.437 1.257-.985 1.938-2.15 2-3.531a3.292 3.292 0 00-1.03-2.375c-.661-.642-1.56-.973-2.688-1zm12.532 0c-.623.032-1.519.433-2.687 1.157a18.37 18.37 0 00-3.313 2.625l.563.969c.454-.401.94-.777 1.5-1.125.56-.349.973-.54 1.218-.563.13.007.199.127.219.344.02.217-.045.624-.187 1.219-.518 2.371-1.024 4.753-1.563 7.156a209.26 209.26 0 01-1.781 7.281l.25.313a84.378 84.378 0 013.031-.969c.193-.92.477-2.246.875-3.969.398-1.723.733-3.244 1.031-4.562h7.782c-.2.876-.41 1.908-.657 3.093-.246 1.186-.478 2.188-.656 3-.223 1.153-.243 2.004-.094 2.563.15.56.447.846.875.844.564-.02 1.432-.392 2.625-1.094 1.194-.702 2.36-1.628 3.47-2.781l-.47-1c-.631.518-1.223.962-1.78 1.312-.56.35-.945.517-1.157.531-.131-.007-.213-.137-.25-.375-.037-.238.004-.675.125-1.312.21-1.103.523-2.634.937-4.625.414-1.99.835-3.932 1.282-5.844.446-1.911.816-3.323 1.125-4.187h-.532L155.97 12.5c-.217 1.025-.47 2.166-.75 3.469s-.554 2.526-.813 3.656h-7.718l.875-4.031c.318-1.408.434-2.478.375-3.188-.06-.71-.333-1.061-.813-1.062zm56.563 0c-.9.012-1.886.23-2.907.657-1.02.426-1.985 1.014-2.906 1.719a12.298 12.298 0 00-3.75 4.875c-.848 1.96-1.279 3.977-1.281 6 .071 2.442.608 4.086 1.594 4.937.985.852 1.993 1.245 3.03 1.188 1.021.049 2.268-.263 3.782-.907 1.514-.644 3.202-1.918 5.063-3.843l-.72-.969c-1.063 1.035-2.123 1.818-3.187 2.375-1.064.557-2.041.869-2.937.875-1.258-.056-2.119-.572-2.594-1.531-.475-.96-.711-2.029-.687-3.219-.002-.208.022-.438.03-.656a5.88 5.88 0 01.063-.688c1.406-.332 2.952-.833 4.656-1.469 1.705-.635 3.212-1.452 4.47-2.437 1.256-.985 1.906-2.15 1.968-3.531a3.292 3.292 0 00-1.031-2.375c-.66-.642-1.529-.973-2.657-1zm11.937 0c-.761.037-1.736.454-2.906 1.22a18.546 18.546 0 00-3.281 2.75l.562 1c.677-.594 1.241-1.045 1.719-1.376.477-.33.816-.526 1.031-.53.131.008.213.124.25.312.037.187-.004.518-.125 1.031l-.937 3.906c-.373 1.75-.27 2.895.312 3.406.583.511 1.218.744 1.938.688.932.008 2.105-.372 3.53-1.125 1.427-.753 2.938-1.922 4.5-3.531h.126l-1.969 7.937c-.309 1.275-.419 2.184-.281 2.781.137.598.49.913 1 .907.643-.019 1.566-.388 2.781-1.094 1.215-.706 2.374-1.64 3.5-2.813l-.531-1a10.79 10.79 0 01-1.781 1.344c-.603.367-1.02.548-1.282.563-.168-.019-.281-.162-.281-.469 0-.307.113-.779.281-1.406.585-2.45 1.155-4.859 1.719-7.25.563-2.392 1.134-4.822 1.719-7.25h-.438l-2.968 1.156a87.668 87.668 0 01-.5 2.344 6.372 6.372 0 01-.375 1.156c-.505 1.04-1.489 2.198-2.938 3.469-1.449 1.27-2.741 1.978-3.875 2.093-.516.024-.872-.191-1.062-.625-.191-.433-.157-1.232.125-2.406l1.062-4.312c.234-.964.285-1.686.188-2.157-.098-.47-.354-.72-.813-.718zm21.594 0c-.623.032-1.519.433-2.688 1.157a18.56 18.56 0 00-3.343 2.625l.562.969c.455-.401.971-.777 1.531-1.125.56-.349.943-.54 1.188-.563.13.007.198.127.219.344.02.217-.014.624-.157 1.219-.518 2.371-1.055 4.753-1.593 7.156a209.26 209.26 0 01-1.782 7.281l.25.313a84.378 84.378 0 013.032-.969c.193-.92.476-2.246.875-3.969.398-1.723.764-3.244 1.062-4.562h7.75c-.199.876-.41 1.908-.656 3.093-.246 1.186-.448 2.188-.625 3-.223 1.153-.275 2.004-.125 2.563.15.56.447.846.875.844.563-.02 1.431-.392 2.625-1.094 1.193-.702 2.359-1.628 3.469-2.781l-.47-1c-.631.518-1.222.962-1.78 1.312-.559.35-.945.517-1.157.531-.131-.007-.213-.137-.25-.375-.037-.238.004-.675.125-1.312.21-1.103.524-2.634.938-4.625.414-1.99.834-3.932 1.281-5.844.447-1.911.817-3.323 1.125-4.187h-.531L246.03 12.5c-.217 1.025-.47 2.166-.75 3.469s-.553 2.526-.812 3.656h-7.719l.875-4.031c.318-1.408.434-2.478.375-3.188-.06-.71-.302-1.061-.781-1.062zm22.375 0c-.601.013-1.463.369-2.594 1.063-1.131.695-2.31 1.676-3.563 2.906l.47 1c.746-.596 1.379-1.082 1.905-1.437.527-.355.872-.523 1.032-.531.15-.008.22.074.25.281.029.207-.002.577-.125 1.094-.756 3.199-1.526 6.415-2.281 9.656-.491 2.207-.522 3.67-.125 4.375.396.705.877 1.03 1.5.969.509-.002 1.073-.122 1.656-.344.582-.222 1.157-.547 1.75-.969a25.187 25.187 0 003.469-2.969 39.672 39.672 0 003.312-3.875h.063c-.141.669-.26 1.27-.375 1.813-.115.542-.245 1.164-.407 1.875-.396 1.784-.52 2.98-.344 3.594.176.613.505.918.97.875.697-.027 1.626-.426 2.78-1.219 1.155-.793 2.259-1.818 3.313-3.063l-.563-1a12.841 12.841 0 01-1.78 1.532c-.6.416-.999.607-1.22.625-.15.013-.252-.08-.28-.313-.03-.233.032-.674.156-1.312.524-2.72 1.047-5.283 1.593-7.688.546-2.404 1.09-4.722 1.656-6.937h-.437l-2.906 1.093a284.494 284.494 0 01-1.5 6.72c-.58 1.072-1.409 2.286-2.469 3.624a26.561 26.561 0 01-3.313 3.5c-1.139.998-2.12 1.512-2.937 1.563-.326.013-.54-.171-.656-.594-.116-.423-.065-1.14.156-2.156.398-1.683.805-3.375 1.188-5.063.382-1.688.747-3.37 1.125-5.031.335-1.383.454-2.337.375-2.875-.08-.538-.36-.805-.844-.781zm22.187 0c-.633.031-1.519.428-2.656 1.157-1.137.729-2.248 1.628-3.344 2.687l.563.938c.55-.456 1.065-.832 1.594-1.156.528-.325.911-.485 1.125-.5.147.003.223.166.218.531-.004.365-.083.898-.25 1.594a779.326 779.326 0 01-1.594 7.093 176.89 176.89 0 01-1.687 6.72l.25.312c1.057-.343 2.079-.668 3.094-.969.26-1.244.567-2.618.906-4.125.339-1.507.677-2.983 1-4.438.883-.027 1.594.144 2.156.532.563.387.956 1.03 1.188 1.906.205.64.424 1.292.656 2 .232.708.502 1.525.813 2.437.335.974.715 1.661 1.093 2.063.378.402.768.607 1.188.594.757-.04 1.615-.444 2.594-1.188a11.406 11.406 0 002.468-2.562l-.656-.907c-.494.577-.965 1.025-1.438 1.375-.472.351-.893.522-1.218.532-.224.01-.422-.106-.625-.407-.203-.3-.453-.837-.719-1.562-.345-.959-.615-1.721-.844-2.281a17.86 17.86 0 00-.75-1.563 5.111 5.111 0 00-1.031-1.437c-.43-.413-.867-.694-1.281-.813a19.083 19.083 0 001.844-1.625 36.05 36.05 0 001.875-2c.603-.675 1.105-1.202 1.53-1.562.426-.36.785-.56 1.094-.563.336.01.613.12.844.281.231.162.437.333.563.532.16.21.369.21.656 0 .374-.281.648-.61.813-.969a2.51 2.51 0 00.25-1.063c-.013-.434-.184-.785-.5-1.093a1.728 1.728 0 00-1.188-.5c-.514-.014-1.064.146-1.625.468-.56.322-1.193.893-1.938 1.72-.71.804-1.398 1.59-2.062 2.374a50.64 50.64 0 01-1.969 2.219c-.706.718-1.342 1.197-1.906 1.469a4.21 4.21 0 01-1.625.437l1-4.344c.32-1.392.439-2.476.375-3.218s-.344-1.118-.844-1.125zM55.094 12.938c.987-.003 1.776.418 2.406 1.25.63.833.979 2.115 1 3.813-.049 2.741-.528 5.072-1.438 7.031-.91 1.96-1.973 3.214-3.156 3.75a3.29 3.29 0 01-.625.188 3.898 3.898 0 01-.718.062c-1.121-.017-1.983-.475-2.594-1.375-.612-.9-.93-2.147-.938-3.719.083-3.227.634-5.716 1.625-7.468.992-1.753 1.942-2.806 2.844-3.157.23-.107.458-.179.719-.25.26-.07.561-.122.875-.125zm39.375 0c.987-.003 1.776.418 2.406 1.25.63.833.979 2.115 1 3.813-.049 2.741-.528 5.072-1.438 7.031-.91 1.96-1.973 3.214-3.156 3.75a3.29 3.29 0 01-.625.188 3.898 3.898 0 01-.719.062c-1.12-.017-1.982-.475-2.593-1.375-.612-.9-.93-2.147-.938-3.719.083-3.227.634-5.716 1.625-7.468.992-1.753 1.942-2.806 2.844-3.157.23-.107.458-.179.719-.25.26-.07.561-.122.875-.125zm20.094.094h.062c.393-.008.82.075 1.313.219.492.144.96.39 1.374.781.21.186.35.408.438.656.088.249.116.553.094.907-.223 3.65-.808 6.538-1.75 8.656-.943 2.117-1.906 3.498-2.907 4.125a2.802 2.802 0 01-.968.406 4.09 4.09 0 01-.969.125c-1.013-.037-1.803-.539-2.344-1.531-.54-.992-.807-2.243-.812-3.75.123-3.189.708-5.595 1.75-7.188 1.042-1.592 1.924-2.522 2.656-2.812.38-.208.745-.376 1.094-.469a3.64 3.64 0 01.968-.125zm18.5.031c.62.004 1.115.227 1.5.625.384.399.582.949.593 1.688.052.973-.485 1.944-1.625 2.875-1.14.93-3.205 1.789-6.156 2.594.406-2.322 1.008-4.038 1.813-5.157.804-1.119 1.509-1.84 2.125-2.125.237-.15.538-.251.843-.343.306-.092.606-.154.906-.157zm69.062 0c.62.004 1.116.227 1.5.625.384.399.582.949.594 1.688.051.973-.485 1.944-1.625 2.875-1.14.93-3.205 1.789-6.156 2.594.405-2.322 1.038-4.038 1.843-5.157.805-1.119 1.51-1.84 2.125-2.125.237-.15.507-.251.813-.343a3.26 3.26 0 01.906-.157zm-20.25.094c1.25-.04 2.264.279 3.094.938.83.658 1.28 1.889 1.312 3.718-.107 2.813-.907 5.318-2.406 7.532-1.499 2.213-3.058 3.407-4.656 3.53-.52-.02-1.016-.2-1.5-.5-.484-.298-.846-.602-1.094-.937l2.844-14a9.021 9.021 0 011.25-.218c.422-.047.812-.064 1.156-.063zm-106.469.156h.031c.911.007 1.619.404 2.125 1.188.507.784.774 1.93.782 3.406-.075 2.848-.58 5.196-1.532 7.063-.95 1.866-1.908 3.056-2.843 3.53a3.03 3.03 0 01-.844.313c-.265.06-.51.098-.781.094-1.118-.042-1.976-.595-2.563-1.687-.587-1.092-.87-2.456-.875-4.094.01-1.365.12-2.565.344-3.594.225-1.029.488-1.9.812-2.594a10.926 10.926 0 012.625-2.53c1.005-.692 1.904-1.065 2.72-1.095z" font-family="Vikidemia" font-size="42" font-style="italic" font-weight="400" text-anchor="middle" style="line-height:100%;-inkscape-font-specification:'Vikidemia Italic';text-align:center"/>
</svg>
