<?xml version="1.0" encoding="UTF-8" standalone="no"?>
<svg xmlns="http://www.w3.org/2000/svg" width="273" height="27" version="1.0">
	<path fill="gray" d="M6.836 1.21l.273-.722h9.454c1.588 0 3.004.248 4.248.742 1.243.495 2.174 1.185 2.793 2.07.618.886.927 1.824.927 2.813 0 1.524-.55 2.9-1.65 4.131-1.1 1.23-2.894 2.139-5.381 2.725 1.602.599 2.78 1.393 3.535 2.383.755.99 1.133 2.076 1.133 3.261 0 1.315-.339 2.572-1.016 3.77s-1.546 2.129-2.607 2.793c-1.061.664-2.34 1.152-3.838 1.465-1.068.221-2.734.332-5 .332H0l.254-.723c1.016-.026 1.706-.124 2.07-.293.521-.221.892-.514 1.114-.879.312-.495.729-1.627 1.25-3.398L9.434 5.645c.403-1.355.605-2.305.605-2.852 0-.482-.179-.863-.537-1.143-.358-.28-1.038-.42-2.041-.42-.221 0-.43-.006-.625-.019zM10.8 12.208a67.2 67.2 0 001.836.04c2.708 0 4.723-.59 6.045-1.768 1.321-1.179 1.982-2.653 1.982-4.424 0-1.341-.404-2.386-1.21-3.135-.808-.749-2.097-1.123-3.868-1.123-.469 0-1.068.078-1.797.234zM6.953 25.254c1.406.182 2.507.273 3.3.273 2.032 0 3.832-.612 5.401-1.836 1.57-1.224 2.354-2.884 2.354-4.98 0-1.602-.485-2.852-1.455-3.75-.97-.898-2.536-1.348-4.698-1.348-.416 0-.924.02-1.523.059zM34.316 1.543c.547 0 1.01.189 1.387.566.378.378.567.84.567 1.387 0 .534-.193.993-.577 1.377a1.879 1.879 0 01-1.377.576c-.533 0-.992-.192-1.377-.576a1.879 1.879 0 01-.576-1.377c0-.547.19-1.009.567-1.387.377-.377.84-.566 1.386-.566zm.254 7.754l-3.867 13.691c-.26.925-.39 1.478-.39 1.66 0 .209.061.378.185.508s.27.196.44.196c.195 0 .43-.105.703-.313.742-.586 1.49-1.42 2.246-2.5l.683.45c-.885 1.353-1.927 2.493-3.125 3.417-.885.69-1.731 1.035-2.539 1.035-.534 0-.97-.16-1.308-.478a1.581 1.581 0 01-.508-1.201c0-.482.163-1.283.488-2.403l2.54-8.75c.416-1.432.624-2.33.624-2.695 0-.286-.1-.52-.303-.703-.201-.182-.478-.273-.83-.273-.286 0-.879.071-1.777.214v-.761zm6.582.469h11.504L48.81 22.832c-.287 1.003-.43 1.667-.43 1.992 0 .443.189.664.566.664.326 0 .674-.185 1.045-.556.371-.371.928-1.071 1.67-2.1l.664.43c-1.054 1.445-1.992 2.503-2.812 3.174-.82.67-1.686 1.005-2.598 1.005-1.12 0-1.68-.573-1.68-1.718 0-.586.267-1.778.801-3.575l3.3-11.21h-2.343c-.95 0-1.546.055-1.787.166-.24.11-.456.387-.644.83-.19.442-.55 1.556-1.084 3.34-1.537 5.104-2.764 8.408-3.682 9.912-.918 1.503-1.976 2.255-3.174 2.255-1.289 0-1.933-.507-1.933-1.523 0-.417.126-.772.38-1.064.254-.293.59-.44 1.006-.44.39 0 .801.176 1.23.527.274.222.522.332.743.332.39 0 .817-.338 1.28-1.015.461-.677 1.259-2.767 2.392-6.27 1.133-3.502 1.699-5.52 1.699-6.054 0-.834-.82-1.309-2.461-1.426zm18.692 8.828c1.875-1.98 3.815-2.969 5.82-2.969 1.25 0 2.318.404 3.203 1.21.886.808 1.328 1.863 1.328 3.165 0 1.953-.856 3.682-2.568 5.186-1.712 1.503-3.753 2.255-6.123 2.255-1.927 0-3.346-.459-4.258-1.377-.911-.918-1.367-1.962-1.367-3.134 0-.586.189-1.517.566-2.793l2.012-6.7c.17-.585.254-1.093.254-1.523 0-.638-.371-.957-1.113-.957-.313 0-.866.072-1.66.215l.195-.684 5.82-1.191h.625zm4.472-1.192c-1.38 0-2.662.622-3.847 1.866-1.185 1.243-1.778 2.633-1.778 4.17 0 .885.287 1.647.86 2.285.573.638 1.282.957 2.129.957 1.315 0 2.506-.658 3.574-1.973a6.959 6.959 0 001.601-4.512c0-.885-.247-1.572-.742-2.06a2.464 2.464 0 00-1.797-.733zm9.922-6.894l5.996-1.211h.704l-2.325 8.183h6.739l2.226-7.714h3.008L86.66 23.242c-.208.742-.312 1.218-.312 1.426 0 .325.143.488.43.488.572 0 1.53-.86 2.87-2.578l.664.352c-2.07 3.008-3.912 4.511-5.527 4.511-1.015 0-1.523-.605-1.523-1.816 0-.599.247-1.758.742-3.477l1.074-3.691H78.32l-2.48 8.516h-2.95l3.79-13.008c.286-.99.43-1.621.43-1.895 0-.703-.437-1.054-1.31-1.054-.208 0-.728.045-1.562.136zm36.524-.742l-3.399 11.64c-.508 1.732-.761 2.826-.761 3.282 0 .234.042.406.127.517.084.11.198.166.341.166.222 0 .466-.1.733-.303.267-.201.94-1.005 2.021-2.412l.586.45c-1.029 1.627-2.083 2.825-3.164 3.593-.716.495-1.406.742-2.07.742-.508 0-.905-.143-1.192-.43-.286-.286-.43-.657-.43-1.113 0-.442.085-1.028.255-1.757.208-.964.8-3.06 1.777-6.29-2.214 3.633-4.066 6.14-5.557 7.52-1.49 1.38-2.874 2.07-4.15 2.07a2.073 2.073 0 01-1.524-.625c-.416-.416-.625-.944-.625-1.582 0-.976.287-2.474.86-4.492l1.7-6.035c.416-1.445.624-2.344.624-2.695a.546.546 0 00-.166-.4.504.504 0 00-.361-.167c-.274 0-.547.098-.82.293-.274.196-.893.918-1.856 2.168l-.606-.43c.977-1.51 2.012-2.623 3.106-3.34.833-.56 1.601-.84 2.305-.84.481 0 .875.154 1.181.46.306.306.46.7.46 1.182 0 .703-.261 1.96-.782 3.769l-1.836 6.309c-.508 1.718-.762 2.806-.762 3.261a.77.77 0 00.244.596c.163.15.381.225.655.225.43 0 .99-.215 1.68-.645.69-.43 1.61-1.383 2.763-2.861 1.152-1.478 2.103-2.865 2.852-4.16.748-1.296 1.546-3.356 2.392-6.182l.43-1.484zM130.332 0h.918c-1.51 3.36-3.652 5.04-6.426 5.04-1.276 0-2.334-.313-3.174-.938-.84-.625-1.26-1.387-1.26-2.286 0-.507.147-.937.44-1.289.293-.351.687-.527 1.182-.527.455 0 .83.13 1.123.39.293.261.608.736.947 1.426.495 1.03 1.217 1.543 2.168 1.543.872 0 1.693-.367 2.46-1.103.77-.736 1.31-1.488 1.622-2.256zm.43 9.766l-3.399 11.64c-.508 1.745-.761 2.858-.761 3.34 0 .417.156.625.468.625.209 0 .466-.11.772-.332.306-.221.967-1.016 1.982-2.383l.586.45c-1.849 2.89-3.626 4.335-5.332 4.335a1.5 1.5 0 01-1.064-.41c-.293-.273-.44-.657-.44-1.152 0-.872.67-3.548 2.012-8.027-3.75 6.393-6.953 9.59-9.61 9.59-.716 0-1.269-.222-1.66-.665-.39-.442-.586-.996-.586-1.66 0-.898.287-2.357.86-4.375l1.7-6.035c.416-1.458.624-2.324.624-2.598 0-.442-.195-.664-.586-.664-.495 0-1.367.82-2.617 2.461l-.606-.43c1.81-2.786 3.614-4.18 5.41-4.18.482 0 .876.154 1.182.46.306.306.46.706.46 1.201 0 .69-.261 1.94-.782 3.75l-1.836 6.309c-.508 1.718-.762 2.806-.762 3.261 0 .547.306.82.918.82.47 0 1.081-.253 1.836-.761.755-.508 1.807-1.673 3.155-3.496 1.347-1.823 2.301-3.333 2.86-4.531.56-1.198 1.166-2.885 1.817-5.059l.43-1.484zm26.62 12.949c-1.353 1.627-2.72 2.822-4.1 3.584a8.922 8.922 0 01-4.376 1.142c-1.849 0-3.29-.52-4.326-1.562-1.035-1.042-1.553-2.441-1.553-4.2 0-1.991.557-3.951 1.67-5.878a13.55 13.55 0 014.492-4.697c1.882-1.205 3.728-1.807 5.538-1.807 1.419 0 2.48.296 3.183.889.703.592 1.055 1.318 1.055 2.177 0 .808-.248 1.498-.742 2.07-.365.443-.814.665-1.348.665-.404 0-.739-.13-1.006-.391-.267-.26-.4-.586-.4-.977 0-.247.049-.475.146-.683.098-.208.3-.46.606-.752.306-.293.491-.505.556-.635a.907.907 0 00.098-.41c0-.273-.124-.501-.371-.684-.378-.26-.912-.39-1.602-.39-1.276 0-2.539.449-3.789 1.347-1.25.899-2.317 2.175-3.203 3.829-1.068 2.005-1.601 4.01-1.601 6.015 0 1.328.377 2.38 1.132 3.154.756.775 1.784 1.163 3.086 1.163 1.003 0 1.996-.251 2.979-.752.983-.502 2.086-1.41 3.31-2.725zm6.973-12.95h11.504l-3.847 13.067c-.287 1.003-.43 1.667-.43 1.992 0 .443.189.664.566.664.326 0 .674-.185 1.045-.556.371-.371.928-1.071 1.67-2.1l.664.43c-1.054 1.445-1.992 2.503-2.812 3.174-.82.67-1.686 1.005-2.598 1.005-1.12 0-1.68-.573-1.68-1.718 0-.586.267-1.778.801-3.575l3.301-11.21h-2.344c-.95 0-1.546.055-1.787.166-.24.11-.456.387-.644.83-.19.442-.55 1.556-1.084 3.34-1.537 5.104-2.764 8.408-3.682 9.912-.918 1.503-1.976 2.255-3.174 2.255-1.289 0-1.933-.507-1.933-1.523 0-.417.127-.772.38-1.064.254-.293.59-.44 1.006-.44.391 0 .801.176 1.23.527.274.222.522.332.743.332.39 0 .817-.338 1.28-1.015.462-.677 1.26-2.767 2.392-6.27 1.133-3.502 1.7-5.52 1.7-6.054 0-.834-.821-1.309-2.462-1.426zm31.23 5.645c0 1.953-.517 3.887-1.552 5.8a11.77 11.77 0 01-4.326 4.552c-1.849 1.12-3.646 1.68-5.39 1.68-1.784 0-3.24-.57-4.366-1.71-1.126-1.139-1.69-2.613-1.69-4.423 0-1.914.55-3.835 1.651-5.762 1.1-1.927 2.572-3.45 4.414-4.57 1.843-1.12 3.623-1.68 5.342-1.68 1.719 0 3.135.566 4.248 1.7 1.113 1.132 1.67 2.603 1.67 4.413zm-3.241-1.347c0-1.211-.296-2.14-.889-2.784-.592-.644-1.357-.966-2.295-.966-1.914 0-3.675 1.37-5.283 4.11-1.608 2.742-2.412 5.466-2.412 8.175 0 1.237.312 2.19.937 2.861.625.67 1.413 1.006 2.364 1.006 1.836 0 3.558-1.364 5.166-4.092 1.608-2.728 2.412-5.498 2.412-8.31zm14.61 3.632c1.692.078 2.961.511 3.808 1.3.846.787 1.27 1.747 1.27 2.88 0 1.51-.727 2.816-2.178 3.916-1.452 1.1-3.226 1.65-5.323 1.65-4.14 0-6.21-2.109-6.21-6.328 0-3.073 1.113-5.81 3.34-8.213 2.226-2.402 4.85-3.603 7.87-3.603 1.498 0 2.601.273 3.31.82.71.547 1.065 1.237 1.065 2.07 0 2.045-2.317 3.88-6.953 5.508zm-4.669.47c3.112-.756 5.371-1.658 6.777-2.706 1.407-1.048 2.11-2.19 2.11-3.428 0-.442-.163-.862-.488-1.26-.326-.397-.82-.595-1.485-.595-2.747 0-5.052 2.663-6.914 7.988zm-.39 1.17a12.155 12.155 0 00-.567 3.75c0 1.25.303 2.156.908 2.716.606.56 1.351.84 2.237.84 1.224 0 2.226-.498 3.007-1.495.782-.996 1.172-2.17 1.172-3.525 0-.885-.286-1.627-.859-2.226-.573-.6-1.302-.899-2.188-.899-1.106 0-2.343.28-3.71.84zm14.687-8.827l5.996-1.211h.703l-2.324 8.183h6.738l2.227-7.714h3.008l-3.926 13.476c-.208.742-.313 1.218-.313 1.426 0 .325.144.488.43.488.573 0 1.53-.86 2.871-2.578l.664.352c-2.07 3.008-3.913 4.511-5.527 4.511-1.016 0-1.524-.605-1.524-1.816 0-.599.248-1.758.743-3.477l1.074-3.691h-6.758l-2.48 8.516h-2.95l3.79-13.008c.286-.99.43-1.621.43-1.895 0-.703-.437-1.054-1.31-1.054-.208 0-.729.045-1.562.136zm36.523-.742l-3.398 11.64c-.508 1.732-.762 2.826-.762 3.282 0 .234.043.406.127.517a.41.41 0 00.342.166c.221 0 .466-.1.732-.303.267-.201.941-1.005 2.022-2.412l.586.45c-1.029 1.627-2.083 2.825-3.164 3.593-.716.495-1.406.742-2.07.742-.508 0-.905-.143-1.192-.43-.286-.286-.43-.657-.43-1.113 0-.442.085-1.028.254-1.757.209-.964.801-3.06 1.778-6.29-2.214 3.633-4.066 6.14-5.557 7.52-1.49 1.38-2.874 2.07-4.15 2.07a2.073 2.073 0 01-1.524-.625c-.416-.416-.625-.944-.625-1.582 0-.976.287-2.474.86-4.492l1.699-6.035c.416-1.445.625-2.344.625-2.695a.546.546 0 00-.166-.4.504.504 0 00-.362-.167c-.273 0-.546.098-.82.293-.273.196-.892.918-1.855 2.168l-.606-.43c.977-1.51 2.012-2.623 3.106-3.34.833-.56 1.601-.84 2.304-.84.482 0 .876.154 1.182.46.306.306.459.7.459 1.182 0 .703-.26 1.96-.781 3.769l-1.836 6.309c-.508 1.718-.762 2.806-.762 3.261a.77.77 0 00.244.596c.163.15.381.225.655.225.43 0 .99-.215 1.68-.645.69-.43 1.61-1.383 2.763-2.861 1.152-1.478 2.103-2.865 2.851-4.16.75-1.296 1.547-3.356 2.393-6.182l.43-1.484zm3.223.722l6.016-1.191h.761l-2.5 8.516c.482.026.756.039.82.039 2.11 0 3.764-1.342 4.962-4.024.664-1.484 1.13-2.457 1.396-2.92a3.494 3.494 0 011.074-1.152 2.66 2.66 0 011.534-.46c.703 0 1.292.222 1.767.665.475.443.713.964.713 1.562 0 .508-.17.941-.508 1.3-.338.357-.729.536-1.172.536-.546 0-1.035-.319-1.464-.957-.3-.455-.567-.683-.801-.683-.352 0-.775.592-1.27 1.777-1.067 2.565-2.259 4.115-3.574 4.649.56.273 1.051.71 1.475 1.308.423.6 1.246 2.057 2.47 4.375.547 1.068 1.065 1.719 1.553 1.953.488.235 1.078.39 1.768.469l-.235.723h-4.668c-1.133-2.448-2.096-4.35-2.89-5.703-.795-1.355-1.364-2.13-1.71-2.325-.344-.195-.836-.293-1.474-.293l-2.441 8.32H255l3.867-13.202c.248-.82.371-1.394.371-1.72 0-.69-.462-1.034-1.386-1.034-.287 0-.795.052-1.524.156z" font-family="Times New Roman" font-size="40"/>
</svg>
