<?xml version="1.0" encoding="UTF-8" standalone="no"?>
<svg xmlns="http://www.w3.org/2000/svg" width="975" height="216" version="1.0">
	<path fill="gray" d="M45.717 80.031c-6.842 2.073-12.7 3.11-17.571 3.11-8.743 0-15.62-2.946-20.63-8.838C2.506 68.412 0 61.457 0 53.44c0-5.287 1.106-10.314 3.317-15.083C5.53 33.588 8.423 30.047 12 27.73c3.577-2.315 7.784-3.473 12.622-3.473 6.496 0 11.68 2.333 15.55 6.998 3.87 4.665 5.805 11.645 5.805 20.94l-.051 3.11H10.419c.552 4.976 1.624 8.812 3.213 11.507 1.59 2.696 3.706 4.795 6.35 6.298 2.643 1.503 6.004 2.255 10.081 2.255 2.074 0 4.138-.181 6.195-.544 2.056-.363 5.209-1.322 9.46-2.877zM10.885 47.635h24.828c0-5.632-1.097-9.658-3.291-12.077-2.194-2.419-5.002-3.628-8.423-3.629-3.905 0-6.954 1.305-9.149 3.914-2.194 2.609-3.516 6.54-3.965 11.792zm52.663 34.21V25.554h10.211v10.574c2.592-3.767 5.607-6.678 9.045-8.734 3.438-2.056 7.006-3.084 10.704-3.084 4.768 0 8.639 1.512 11.61 4.535 2.972 3.024 4.458 7.214 4.458 12.57v40.43H99.365V44.732c0-3.904-.346-6.479-1.037-7.723a7.16 7.16 0 00-2.902-2.877 8.254 8.254 0 00-3.992-1.01c-2.522 0-5.243.777-8.163 2.332-2.92 1.555-6.09 4.873-9.512 9.952v36.44zm63.859-1.969v-9.382c6.67 3.317 12.475 4.976 17.416 4.976 2.903 0 5.33-.795 7.283-2.385 1.952-1.59 2.928-3.576 2.928-5.96 0-1.486-.484-2.938-1.451-4.355-.968-1.416-3.197-2.85-6.687-4.302l-5.96-2.54c-4.596-1.9-7.948-4.112-10.056-6.634-2.108-2.488-3.162-5.546-3.162-9.175 0-4.527 1.641-8.293 4.924-11.3 3.283-3.006 8.138-4.509 14.565-4.51 3.145.001 7.032.433 11.663 1.297l2.125.414v8.501c-5.702-1.693-10.246-2.54-13.632-2.54-3.283 0-5.736.709-7.36 2.125-1.625 1.417-2.437 3.093-2.437 5.028 0 1.52.553 2.886 1.659 4.095 1.071 1.244 3.006 2.471 5.805 3.68l4.925 2.074c6.6 2.799 10.798 5.563 12.595 8.293 1.797 2.73 2.695 5.702 2.695 8.915 0 3.076-.838 5.927-2.513 8.553-1.676 2.626-4.147 4.682-7.413 6.168-3.265 1.486-6.902 2.23-10.91 2.23-4.666 0-10.333-1.09-17.002-3.266zm56.188 1.969V25.554h10.21v56.291zm0-66.502V5.132h10.21v10.21zm30.685 66.502V0h10.211v52.87l23.844-27.316h10.988l-22.755 26.28 27.472 30.011h-13.062l-26.487-28.871v28.871zm61.993 0V0h10.211v81.845zm53.077 1.296c-5.356 0-10.012-1.097-13.969-3.291-3.956-2.195-7.092-5.65-9.407-10.367-2.316-4.717-3.473-9.978-3.473-15.783 0-5.46 1.054-10.531 3.162-15.214 2.107-4.682 5.174-8.215 9.2-10.6 4.026-2.384 8.855-3.576 14.488-3.576 5.356 0 10.02 1.089 13.995 3.265 3.973 2.178 7.11 5.633 9.407 10.367 2.298 4.734 3.447 9.987 3.447 15.758 0 5.529-1.071 10.634-3.213 15.316-2.143 4.683-5.21 8.207-9.2 10.574-3.992 2.368-8.804 3.551-14.436 3.551zm0-7.671c5.08 0 9.02-1.892 11.819-5.676 2.799-3.784 4.198-9.149 4.198-16.094 0-6.98-1.408-12.345-4.224-16.095-2.817-3.749-6.747-5.624-11.792-5.624-5.046 0-8.968 1.875-11.767 5.624-2.799 3.75-4.198 9.114-4.198 16.095 0 6.945 1.4 12.31 4.198 16.094 2.8 3.784 6.721 5.676 11.767 5.676zm42.919 26.85V25.553h10.21v10.574c2.109-3.94 4.726-6.894 7.854-8.864 3.127-1.97 6.781-2.954 10.963-2.954 6.945 0 12.319 2.557 16.12 7.671 3.8 5.115 5.701 11.784 5.701 20.008 0 5.356-.88 10.453-2.643 15.291-1.762 4.838-4.501 8.69-8.216 11.559-3.714 2.868-7.922 4.302-12.621 4.302-1.866 0-4.328-.276-7.386-.83-3.059-.552-6.316-2.833-9.771-6.841v26.85zm10.21-33.9c3.491 3.11 6.273 5.063 8.346 5.858 2.073.794 4.302 1.192 6.687 1.192 5.01 0 8.716-2.108 11.118-6.324 2.402-4.216 3.602-9.59 3.602-16.12 0-6.082-1.062-10.903-3.187-14.462-2.126-3.559-5.417-5.339-9.875-5.339-2.833 0-5.64.77-8.423 2.307-2.781 1.538-5.537 3.862-8.267 6.972zm97.811 11.611c-6.842 2.073-12.7 3.11-17.572 3.11-8.742 0-15.619-2.946-20.63-8.838-5.01-5.891-7.515-12.846-7.515-20.863 0-5.287 1.105-10.314 3.317-15.083s5.106-8.31 8.682-10.626c3.577-2.315 7.784-3.473 12.622-3.473 6.496 0 11.68 2.333 15.55 6.998 3.87 4.665 5.805 11.645 5.805 20.94l-.052 3.11h-35.506c.553 4.976 1.624 8.812 3.214 11.507 1.59 2.696 3.706 4.795 6.35 6.298 2.643 1.503 6.004 2.255 10.081 2.255 2.074 0 4.138-.181 6.194-.544 2.056-.363 5.21-1.322 9.46-2.877zm-34.832-32.396h24.828c0-5.632-1.097-9.658-3.291-12.077-2.195-2.419-5.002-3.628-8.423-3.629-3.905 0-6.955 1.305-9.149 3.914-2.194 2.609-3.516 6.54-3.965 11.792zm88.791 34.21V71.271c-2.074 3.94-4.674 6.903-7.801 8.89-3.128 1.987-6.782 2.98-10.963 2.98-6.911 0-12.276-2.548-16.094-7.645-3.819-5.097-5.728-11.775-5.728-20.034 0-8.915 2.142-16.336 6.427-22.263 4.285-5.926 10.142-8.889 17.572-8.89 2.177.001 4.25.26 6.22.778 1.97.519 3.723 1.253 5.261 2.203 1.538.95 3.24 2.514 5.106 4.691V0h10.263v81.845zm0-42.866c-3.525-3.11-6.315-5.054-8.371-5.831-2.057-.778-4.277-1.167-6.661-1.167-4.976 0-8.665 2.091-11.067 6.272-2.401 4.181-3.602 9.572-3.602 16.172 0 6.117 1.063 10.937 3.188 14.462 2.125 3.525 5.416 5.287 9.874 5.287 2.834 0 5.641-.778 8.423-2.333 2.782-1.555 5.52-3.87 8.216-6.945zm30.633 42.866V25.554h10.212v56.291zm0-66.502V5.132h10.212v10.21zm59.713 59.349c-3.041 2.8-6.04 4.907-8.994 6.324-2.954 1.417-5.848 2.125-8.682 2.125-3.974 0-7.671-1.313-11.092-3.94-3.421-2.626-5.132-6.461-5.132-11.506 0-5.53 2.385-10.1 7.153-13.71 4.77-3.611 12.389-5.417 22.859-5.417h2.384v-6.79c0-2.695-.363-4.656-1.088-5.883-.726-1.227-1.858-2.186-3.395-2.877-1.538-.691-3.447-1.037-5.728-1.037-5.287 0-11.058 1.659-17.312 4.976v-8.449c6.876-2.798 13.355-4.198 19.437-4.198 3.318 0 6.367.527 9.149 1.58 2.782 1.055 5.002 2.714 6.66 4.977 1.66 2.263 2.489 5.9 2.489 10.91V67.28c0 2.834.224 4.743.673 5.728.45.984 1.08 1.736 1.892 2.254.812.519 1.754.778 2.825.778.45 0 1.106-.07 1.97-.207l.726 5.65c-2.316 1.105-4.873 1.658-7.672 1.658-1.866 0-3.663-.605-5.39-1.814-1.728-1.21-2.972-3.421-3.732-6.635zm-1.504-5.546V54.581l-3.265-.104c-5.356 0-9.849 1.037-13.477 3.11s-5.442 4.89-5.442 8.449c0 2.453.89 4.527 2.669 6.22 1.78 1.693 3.862 2.54 6.246 2.54 2.142 0 4.32-.475 6.531-1.426 2.212-.95 4.458-2.358 6.738-4.224zm64.741 13.321V0h10.21v36.128c2.109-3.94 4.726-6.894 7.854-8.864 3.127-1.97 6.781-2.954 10.962-2.954 6.946 0 12.32 2.557 16.12 7.671 3.802 5.115 5.702 11.784 5.702 20.008 0 8.88-2.15 16.293-6.453 22.237-4.302 5.943-10.168 8.915-17.598 8.915-2.177 0-4.25-.26-6.22-.777-1.97-.519-3.723-1.262-5.26-2.23-1.538-.967-3.24-2.522-5.106-4.664l-1.244 6.997zm10.21-14.047c3.49 3.11 6.273 5.063 8.346 5.858 2.073.794 4.302 1.192 6.686 1.192 5.011 0 8.717-2.108 11.119-6.324 2.401-4.216 3.602-9.59 3.602-16.12 0-6.082-1.062-10.903-3.188-14.462-2.125-3.559-5.416-5.339-9.874-5.339-2.833 0-5.641.77-8.423 2.307-2.782 1.538-5.537 3.862-8.267 6.972zm97.811 11.611c-6.842 2.073-12.7 3.11-17.572 3.11-8.742 0-15.62-2.946-20.63-8.838-5.01-5.891-7.516-12.846-7.516-20.863 0-5.287 1.106-10.314 3.318-15.083 2.211-4.769 5.105-8.31 8.682-10.626 3.576-2.315 7.784-3.473 12.621-3.473 6.497 0 11.68 2.333 15.55 6.998 3.87 4.665 5.806 11.645 5.806 20.94l-.052 3.11h-35.506c.553 4.976 1.624 8.812 3.214 11.507 1.59 2.696 3.706 4.795 6.35 6.298 2.643 1.503 6.003 2.255 10.081 2.255a35.56 35.56 0 006.194-.544c2.056-.363 5.21-1.322 9.46-2.877zM761.02 47.635h24.828c0-5.632-1.097-9.658-3.292-12.077-2.194-2.419-5.002-3.628-8.423-3.629-3.904 0-6.954 1.305-9.148 3.914s-3.516 6.54-3.965 11.792zm52.663 34.832V0h10.212v36.128c2.108-3.94 4.725-6.894 7.852-8.864 3.128-1.97 6.782-2.954 10.963-2.954 6.946 0 12.32 2.557 16.12 7.671 3.802 5.115 5.702 11.784 5.702 20.008 0 8.88-2.151 16.293-6.453 22.237-4.302 5.943-10.168 8.915-17.598 8.915-2.177 0-4.25-.26-6.22-.777-1.97-.519-3.723-1.262-5.26-2.23-1.538-.967-3.24-2.522-5.106-4.664l-1.244 6.997zm10.212-14.047c3.49 3.11 6.272 5.063 8.345 5.858 2.073.794 4.302 1.192 6.686 1.192 5.01 0 8.717-2.108 11.119-6.324 2.401-4.216 3.602-9.59 3.602-16.12 0-6.082-1.062-10.903-3.188-14.462-2.125-3.559-5.416-5.339-9.874-5.339-2.834 0-5.641.77-8.423 2.307-2.782 1.538-5.537 3.862-8.267 6.972zm85.577 6.272c-3.041 2.8-6.039 4.907-8.993 6.324-2.955 1.417-5.849 2.125-8.682 2.125-3.974 0-7.672-1.313-11.093-3.94-3.42-2.626-5.131-6.461-5.131-11.506 0-5.53 2.384-10.1 7.153-13.71 4.768-3.611 12.388-5.417 22.858-5.417h2.385v-6.79c0-2.695-.363-4.656-1.089-5.883-.725-1.227-1.857-2.186-3.395-2.877-1.538-.691-3.447-1.037-5.727-1.037-5.288 0-11.058 1.659-17.313 4.976v-8.449c6.877-2.798 13.356-4.198 19.438-4.198 3.317 0 6.367.527 9.148 1.58 2.782 1.055 5.002 2.714 6.66 4.977 1.66 2.263 2.489 5.9 2.489 10.91V67.28c0 2.834.225 4.743.674 5.728.449.984 1.08 1.736 1.892 2.254.812.519 1.753.778 2.825.778.449 0 1.105-.07 1.97-.207l.725 5.65c-2.315 1.105-4.872 1.658-7.671 1.658-1.866 0-3.663-.605-5.391-1.814-1.728-1.21-2.972-3.421-3.732-6.635zm-1.503-5.546V54.581l-3.266-.104c-5.356 0-9.848 1.037-13.477 3.11-3.628 2.073-5.442 4.89-5.442 8.449 0 2.453.89 4.527 2.67 6.22 1.779 1.693 3.861 2.54 6.245 2.54 2.143 0 4.32-.475 6.531-1.426 2.212-.95 4.458-2.358 6.739-4.224zm29.078 10.73v-9.382c6.67 3.317 12.475 4.976 17.416 4.976 2.903 0 5.33-.795 7.283-2.385 1.952-1.59 2.929-3.576 2.929-5.96 0-1.486-.484-2.938-1.452-4.355-.967-1.416-3.196-2.85-6.686-4.302l-5.961-2.54c-4.596-1.9-7.948-4.112-10.056-6.634-2.108-2.488-3.162-5.546-3.162-9.175 0-4.527 1.642-8.293 4.925-11.3 3.282-3.006 8.137-4.509 14.565-4.51 3.144.001 7.032.433 11.662 1.297l2.126.414v8.501c-5.702-1.693-10.246-2.54-13.633-2.54-3.283 0-5.736.709-7.36 2.125-1.624 1.417-2.436 3.093-2.436 5.028 0 1.52.553 2.886 1.658 4.095 1.072 1.244 3.007 2.471 5.806 3.68l4.924 2.074c6.6 2.799 10.799 5.563 12.596 8.293 1.796 2.73 2.695 5.702 2.695 8.915 0 3.076-.838 5.927-2.514 8.553-1.676 2.626-4.147 4.682-7.412 6.168-3.266 1.486-6.903 2.23-10.911 2.23-4.665 0-10.332-1.09-17.002-3.266zM138.81 214.54v-56.292h10.212v10.574c2.073-3.283 4.725-6.073 7.956-8.371 3.23-2.298 6.972-3.447 11.222-3.447 2.453 0 4.596.397 6.427 1.192 1.832.795 3.49 1.918 4.976 3.37 1.486 1.45 2.817 3.87 3.992 7.256 2.073-3.386 4.708-6.211 7.904-8.475 3.196-2.263 6.85-3.395 10.963-3.395 4.008 0 7.62 1.244 10.833 3.732 3.214 2.488 4.82 6.79 4.82 12.907v40.948h-10.262v-39.342c0-3.731-.787-6.271-2.359-7.62-1.572-1.347-3.326-2.02-5.26-2.02-2.42 0-4.934.751-7.543 2.254-2.609 1.503-5.641 4.501-9.096 8.993v37.735H173.33v-39.342c0-3.766-.794-6.323-2.384-7.67-1.59-1.349-3.386-2.022-5.39-2.022-2.454 0-4.933.743-7.439 2.228-2.505 1.486-5.537 4.51-9.096 9.071v37.735zm134.301 0v-10.575c-2.626 3.801-5.65 6.73-9.07 8.786-3.422 2.056-6.981 3.084-10.678 3.084-4.735 0-8.596-1.512-11.585-4.535-2.99-3.024-4.484-7.231-4.484-12.622v-40.43h10.211v37.113c0 3.905.346 6.479 1.037 7.723a7.33 7.33 0 002.903 2.903 8.19 8.19 0 004.043 1.036c2.488 0 5.192-.777 8.112-2.332 2.92-1.555 6.09-4.873 9.511-9.952v-36.491h10.211v56.291zm30.737 0v-81.846h10.212v81.845zm55.773 0c-3.144.863-5.874 1.295-8.19 1.295-5.045 0-9.053-1.46-12.025-4.38-2.972-2.92-4.457-7.075-4.457-12.466v-33.07h-7.05v-7.671h7.05v-10.211l10.21-.985v11.196h14.722v7.671H345.16v31.204c0 3.94.76 6.764 2.28 8.475 1.52 1.71 3.94 2.566 7.257 2.566 1.348 0 2.99-.225 4.924-.674zm14.721 0v-56.292h10.211v56.291zm0-66.503v-10.212h10.211v10.212zm30.686 67.124v-82.467h10.21v36.128c2.109-3.94 4.726-6.894 7.854-8.864 3.127-1.97 6.781-2.954 10.962-2.954 6.946 0 12.32 2.557 16.12 7.671 3.802 5.115 5.702 11.784 5.702 20.008 0 8.88-2.15 16.293-6.453 22.237-4.302 5.943-10.168 8.915-17.597 8.915-2.178 0-4.25-.26-6.22-.778-1.97-.518-3.724-1.26-5.262-2.228-1.537-.968-3.24-2.523-5.105-4.665l-1.244 6.997zm10.21-14.047c3.49 3.11 6.273 5.063 8.346 5.857 2.073.795 4.302 1.193 6.686 1.193 5.011 0 8.717-2.108 11.119-6.324 2.401-4.216 3.602-9.59 3.602-16.12 0-6.082-1.062-10.903-3.188-14.462-2.125-3.56-5.416-5.339-9.874-5.339-2.833 0-5.641.77-8.423 2.307-2.782 1.538-5.537 3.862-8.267 6.971zm85.578 6.272c-3.04 2.8-6.039 4.907-8.993 6.324-2.955 1.417-5.849 2.125-8.682 2.125-3.974 0-7.672-1.313-11.093-3.94-3.42-2.626-5.131-6.461-5.131-11.506 0-5.53 2.384-10.1 7.153-13.71 4.769-3.611 12.388-5.417 22.858-5.417h2.385v-6.79c0-2.695-.363-4.657-1.089-5.883-.725-1.227-1.857-2.186-3.395-2.877-1.538-.691-3.447-1.037-5.727-1.037-5.287 0-11.058 1.659-17.313 4.976v-8.449c6.877-2.799 13.356-4.198 19.438-4.198 3.317 0 6.367.527 9.148 1.58 2.782 1.055 5.002 2.713 6.661 4.977 1.659 2.263 2.488 5.9 2.488 10.91v25.503c0 2.834.225 4.743.674 5.728.45.984 1.08 1.736 1.892 2.254.812.519 1.753.778 2.825.778.449 0 1.105-.07 1.97-.208l.725 5.65c-2.315 1.106-4.872 1.659-7.671 1.659-1.866 0-3.663-.605-5.391-1.814-1.728-1.21-2.972-3.421-3.732-6.635zm-1.503-5.546v-14.565l-3.266-.104c-5.356 0-9.848 1.037-13.476 3.11-3.629 2.073-5.443 4.89-5.443 8.449 0 2.453.89 4.527 2.67 6.22 1.78 1.693 3.861 2.54 6.245 2.54 2.143 0 4.32-.475 6.531-1.426 2.212-.95 4.458-2.358 6.739-4.224zm31.152 12.7v-81.846h10.211v36.128c2.592-3.767 5.607-6.678 9.045-8.734 3.438-2.056 7.006-3.084 10.704-3.084 4.768 0 8.638 1.512 11.61 4.535 2.972 3.024 4.458 7.214 4.458 12.57v40.43h-10.211v-37.113c0-3.904-.346-6.479-1.037-7.723a7.16 7.16 0 00-2.903-2.877 8.254 8.254 0 00-3.99-1.01c-2.523 0-5.245.777-8.165 2.332-2.92 1.555-6.09 4.873-9.511 9.952v36.44zm94.959-7.154c-3.041 2.8-6.039 4.907-8.993 6.324-2.955 1.417-5.849 2.125-8.682 2.125-3.974 0-7.672-1.313-11.093-3.94-3.42-2.626-5.131-6.461-5.131-11.506 0-5.53 2.384-10.1 7.153-13.71 4.768-3.611 12.388-5.417 22.858-5.417h2.385v-6.79c0-2.695-.363-4.657-1.089-5.883-.726-1.227-1.857-2.186-3.395-2.877-1.538-.691-3.447-1.037-5.728-1.037-5.287 0-11.057 1.659-17.312 4.976v-8.449c6.877-2.799 13.356-4.198 19.438-4.198 3.317 0 6.367.527 9.148 1.58 2.782 1.055 5.002 2.713 6.66 4.977 1.66 2.263 2.489 5.9 2.489 10.91v25.503c0 2.834.224 4.743.674 5.728.449.984 1.08 1.736 1.892 2.254.812.519 1.753.778 2.825.778.449 0 1.105-.07 1.97-.208l.725 5.65c-2.315 1.106-4.872 1.659-7.671 1.659-1.866 0-3.663-.605-5.391-1.814-1.728-1.21-2.972-3.421-3.732-6.635zm-1.503-5.546v-14.565l-3.266-.104c-5.356 0-9.848 1.037-13.477 3.11-3.628 2.073-5.442 4.89-5.442 8.449 0 2.453.89 4.527 2.67 6.22 1.779 1.693 3.86 2.54 6.245 2.54 2.143 0 4.32-.475 6.531-1.426 2.212-.95 4.458-2.358 6.739-4.224zM653 212.57v-9.382c6.669 3.317 12.474 4.976 17.415 4.976 2.903 0 5.33-.795 7.283-2.385 1.952-1.59 2.929-3.576 2.929-5.96 0-1.486-.484-2.938-1.452-4.355-.967-1.416-3.196-2.85-6.686-4.302l-5.961-2.54c-4.596-1.9-7.948-4.112-10.056-6.634-2.108-2.488-3.162-5.546-3.162-9.175 0-4.527 1.642-8.293 4.925-11.3 3.282-3.006 8.137-4.509 14.565-4.51 3.144.001 7.032.433 11.662 1.297l2.125.414v8.501c-5.701-1.693-10.245-2.54-13.632-2.54-3.283 0-5.736.709-7.36 2.125-1.624 1.417-2.436 3.093-2.436 5.028 0 1.52.553 2.886 1.658 4.095 1.072 1.244 3.007 2.47 5.806 3.68l4.924 2.074c6.6 2.799 10.799 5.563 12.595 8.293 1.797 2.73 2.696 5.702 2.696 8.915 0 3.076-.838 5.927-2.514 8.553-1.676 2.626-4.147 4.682-7.412 6.168-3.266 1.486-6.903 2.229-10.911 2.229-4.665 0-10.332-1.089-17.002-3.266zm85.214-5.184c-3.041 2.8-6.039 4.907-8.993 6.324-2.955 1.417-5.849 2.125-8.683 2.125-3.973 0-7.67-1.313-11.092-3.94-3.42-2.626-5.131-6.461-5.131-11.506 0-5.53 2.384-10.1 7.153-13.71 4.768-3.611 12.388-5.417 22.858-5.417h2.385v-6.79c0-2.695-.363-4.657-1.089-5.883-.726-1.227-1.857-2.186-3.395-2.877-1.538-.691-3.447-1.037-5.728-1.037-5.287 0-11.057 1.659-17.312 4.976v-8.449c6.877-2.799 13.356-4.198 19.438-4.198 3.317 0 6.366.527 9.148 1.58 2.782 1.055 5.002 2.713 6.66 4.977 1.66 2.263 2.489 5.9 2.489 10.91v25.503c0 2.834.224 4.743.674 5.728.449.984 1.08 1.736 1.892 2.254.812.519 1.753.778 2.824.778.45 0 1.106-.07 1.97-.208l.726 5.65c-2.315 1.106-4.873 1.659-7.672 1.659-1.866 0-3.663-.605-5.39-1.814-1.728-1.21-2.972-3.421-3.732-6.635zm-1.503-5.546v-14.565l-3.266-.104c-5.356 0-9.848 1.037-13.477 3.11-3.628 2.073-5.442 4.89-5.442 8.449 0 2.453.89 4.527 2.67 6.22 1.779 1.693 3.86 2.54 6.245 2.54 2.143 0 4.32-.475 6.531-1.426 2.212-.95 4.458-2.358 6.739-4.224z" font-family="Lucida Sans" font-size="106.155" font-weight="400" letter-spacing="0" word-spacing="0"/>
</svg>
