<?xml version="1.0" encoding="UTF-8" standalone="no"?>
<svg xmlns="http://www.w3.org/2000/svg" width="340" height="28" version="1.0">
	<path fill="gray" d="M.154 2.751L.36 1.702h10.025l-.206 1.05-.327.034-1.169.069c-.734.057-1.244.286-1.53.687-.287.39-.568 1.262-.843 2.614L4.143 17.041c-.527 2.637-.802 4.357-.825 5.16a4.375 4.375 0 00.567 2.286c.826 1.445 2.345 2.167 4.557 2.167 2.075 0 3.864-.63 5.366-1.891.836-.711 1.444-1.497 1.822-2.356.39-.86.809-2.396 1.256-4.609l2.321-11.642.224-1.702c.091-.654.063-1.072-.086-1.255-.138-.184-.528-.299-1.17-.344l-1.169-.07-.292-.034.206-1.049h8.151l-.206 1.05-.344.034-1.17.069c-.733.057-1.243.286-1.53.687-.275.39-.55 1.262-.825 2.614l-2.133 10.662c-.47 2.362-.946 4.093-1.427 5.193-.482 1.1-1.215 2.127-2.201 3.078-1.846 1.8-4.345 2.7-7.498 2.7-6.27 0-8.73-3.388-7.377-10.163l2.287-11.47.24-1.702c.081-.654.052-1.072-.085-1.255-.138-.184-.533-.299-1.187-.344l-1.152-.07-.31-.034m46.259 24.402l.705-3.508c-2.19 2.625-4.638 3.938-7.343 3.938-2.11 0-3.623-.831-4.54-2.494-.917-1.673-1.095-3.915-.533-6.723.63-3.119 1.846-5.612 3.646-7.48 1.81-1.88 3.903-2.821 6.276-2.821 2.178 0 3.875.848 5.09 2.545l1.238-6.156c.275-1.353.35-2.224.224-2.614-.126-.401-.545-.625-1.255-.67l-1.153-.087-.326-.017L48.664 0h6.586l-4.54 22.699c-.275 1.353-.355 2.23-.24 2.631.126.39.556.608 1.29.653l1.135.086.309.018-.206 1.066h-6.586m3.043-15.219c-1.502-1.318-3.09-1.977-4.763-1.977-3.141 0-5.21 2.493-6.208 7.48-1.055 5.296-.057 7.945 2.992 7.945.94 0 1.966-.276 3.078-.826 1.124-.562 2.058-1.26 2.803-2.098l2.098-10.524m15.15-3.456l-2.837 14.221c-.275 1.353-.35 2.23-.224 2.631.126.39.55.608 1.273.653l1.152.087.31.017-.207 1.066h-9.767l.206-1.066.344-.017 1.17-.087c.664-.045 1.106-.154 1.323-.326.218-.184.413-.602.585-1.256l.447-1.702 1.943-9.767.241-1.686c.08-.653.052-1.072-.086-1.255-.138-.183-.533-.298-1.186-.344l-1.135-.086-.327-.017.206-1.066h6.57m-2.7-3.388l.67-3.387h3.388l-.671 3.387h-3.388m4.901 22.063l.207-1.066 15.15-16.543h-6.105l-1.651.017c-.745 0-1.238.086-1.479.258-.24.16-.424.545-.55 1.152-.092.482-.184.894-.275 1.238l-.086.361H70.21l.808-4.092h15.288L86.1 9.544 71.14 25.88h6.827l2.115-.086c.94 0 1.49-.412 1.65-1.238l.259-1.29.103-.412h1.805l-.86 4.299H66.806m20.98 0l.206-1.066 15.15-16.543h-6.105l-1.65.017c-.746 0-1.239.086-1.48.258-.24.16-.424.545-.55 1.152-.092.482-.183.894-.275 1.238l-.086.362H91.19L92 8.478h15.287l-.206 1.066L92.12 25.88h6.826l2.115-.086c.94 0 1.49-.412 1.65-1.238l.259-1.29.103-.412h1.806l-.86 4.299H87.786m29.577-18.675l-2.837 14.221c-.275 1.353-.35 2.23-.224 2.631.126.39.55.608 1.273.654l1.152.086.31.017-.207 1.066h-9.767l.206-1.066.344-.017 1.17-.086c.664-.046 1.106-.155 1.323-.327.218-.184.413-.602.585-1.255l.447-1.703 1.943-9.767.241-1.686c.08-.653.052-1.071-.086-1.255-.138-.183-.533-.298-1.187-.344l-1.134-.086-.327-.017.206-1.066h6.57m-2.7-3.388l.67-3.387h3.388l-.671 3.387h-3.388m17.626 22.063l.705-3.508c-2.247 2.625-4.751 3.938-7.514 3.938-1.605 0-2.763-.527-3.474-1.582-.7-1.066-.865-2.522-.499-4.368l1.737-8.701.241-1.685c.08-.654.052-1.072-.086-1.256-.138-.183-.533-.298-1.187-.344l-1.135-.086-.326-.017.206-1.066h6.569L124.998 21.1c-.573 2.866.16 4.3 2.201 4.3 1.869 0 3.875-.964 6.019-2.89l1.909-9.578.24-1.685c.092-.665.064-1.084-.085-1.256-.138-.183-.534-.298-1.187-.344l-1.152-.086-.31-.017.207-1.066h6.569L136.57 22.7l-.223 1.703c-.092.653-.07 1.072.068 1.255.15.172.55.28 1.204.327l1.152.086.31.017-.206 1.066h-6.587m17.455-15.167c2.247-2.614 4.757-3.92 7.531-3.92 1.605 0 2.758.527 3.457 1.581.7 1.055.865 2.505.499 4.351l-1.737 8.701-.224 1.703c-.091.653-.069 1.072.069 1.255.15.172.55.281 1.204.327l1.152.086.292.017-.206 1.066h-9.75l.206-1.066.327-.017 1.186-.086c.654-.046 1.09-.155 1.307-.327.23-.183.43-.602.602-1.255l.447-1.703 1.634-8.168c.32-1.605.332-2.717.034-3.336-.286-.63-.963-.946-2.029-.946-1.536 0-3.611.958-6.225 2.872L147.61 22.7c-.275 1.353-.35 2.23-.223 2.631.126.39.55.608 1.272.654l1.152.086.31.017-.206 1.066h-9.768l.206-1.066.344-.017 1.17-.086c.665-.046 1.106-.155 1.324-.327.218-.183.413-.602.584-1.255l.448-1.703 1.943-9.767.24-1.685c.08-.654.052-1.072-.086-1.256-.137-.183-.533-.298-1.186-.344L144 9.561l-.327-.017.207-1.066h6.569l-.706 3.508m25.812 12.605c-2.419 1.995-4.614 2.992-6.586 2.992-1.582 0-2.803-.499-3.663-1.496-.848-1.009-1.123-2.27-.825-3.783.825-4.127 4.585-6.19 11.28-6.19h.705l.465-2.322c.596-2.947-.224-4.42-2.46-4.42-2.223 0-3.668 1.118-4.333 3.354l-.086.326h-2.304l.688-3.422c2.59-1.043 4.895-1.565 6.913-1.565 4.08 0 5.749 1.863 5.004 5.59l-1.668 8.322c-.54 2.706-.23 4.058.928 4.058.218 0 .533-.051.946-.154l-.155 1.272c-.871.287-1.633.43-2.287.43-1.662 0-2.516-.997-2.562-2.992m-.705-.378l1.41-7.034h-.791c-4.242 0-6.672 1.548-7.291 4.643-.218 1.078-.052 1.972.499 2.683.55.71 1.347 1.066 2.39 1.066.997 0 2.258-.453 3.783-1.358m15.992-10.645L189.02 22.7c-.276 1.353-.35 2.23-.224 2.631.126.39.55.608 1.273.654l1.152.086.722.017-.206 1.066h-10.18l.206-1.066.344-.017 1.17-.086c.664-.046 1.105-.155 1.323-.327.218-.183.413-.602.585-1.255l.447-1.703 1.943-9.767.24-1.685c.081-.654.053-1.072-.085-1.256-.138-.183-.533-.298-1.187-.344l-1.134-.085-.327-.018.206-1.066h6.57l-.706 3.508c2.075-2.614 4.362-3.92 6.861-3.92.344 0 .717.063 1.118.189l-1.032 5.107h-1.908l.034-.31.103-1.29c.069-.607-.177-.91-.74-.91-1.707 0-3.29.905-4.745 2.716m16.49-5.09L204.497 22.7c-.275 1.353-.35 2.23-.223 2.631.126.39.55.608 1.272.654l1.153.086.309.017-.206 1.066h-9.768l.207-1.066.344-.017 1.169-.086c.665-.046 1.106-.155 1.324-.327.218-.183.413-.602.585-1.255l.447-1.703 1.943-9.767.24-1.685c.08-.654.052-1.072-.085-1.256-.138-.183-.533-.298-1.187-.343l-1.135-.086-.327-.018.207-1.066h6.569m-2.7-3.387l.67-3.388h3.388l-.67 3.388h-3.388m17.626 22.062l.705-3.508c-2.247 2.626-4.752 3.938-7.515 3.938-1.605 0-2.762-.527-3.473-1.582-.7-1.066-.866-2.522-.499-4.368l1.737-8.7.24-1.686c.08-.654.052-1.072-.085-1.255-.138-.184-.533-.299-1.187-.344l-1.135-.086-.327-.017.207-1.067h6.569L214.969 21.1c-.573 2.866.16 4.3 2.201 4.3 1.869 0 3.875-.964 6.019-2.89l1.908-9.578.241-1.685c.092-.665.063-1.083-.086-1.255-.137-.184-.533-.298-1.186-.344l-1.153-.086-.309-.017.206-1.067h6.57L226.541 22.7l-.224 1.702c-.091.654-.068 1.072.07 1.255.148.172.55.281 1.203.327l1.152.086.31.017-.207 1.067h-6.586M252.852 0l-4.54 22.699c-.275 1.352-.35 2.23-.223 2.63.126.39.55.608 1.272.654l1.152.086.31.017-.206 1.067h-9.768l.206-1.067.344-.017 1.17-.086c.665-.046 1.106-.155 1.324-.327.218-.183.413-.601.584-1.255l.448-1.702 3.645-18.245.24-1.703c.081-.653.047-1.066-.102-1.238-.138-.183-.533-.298-1.187-.344l-1.135-.086-.326-.017.223-1.066h6.569m9.372 8.477L259.387 22.7c-.276 1.352-.35 2.23-.224 2.63.126.39.55.608 1.273.654l1.152.086.31.017-.207 1.067h-9.768l.207-1.067.344-.017 1.169-.086c.665-.046 1.106-.155 1.324-.327.218-.183.413-.601.585-1.255l.447-1.702 1.943-9.768.24-1.685c.081-.653.052-1.072-.085-1.255-.138-.184-.533-.298-1.187-.344l-1.135-.086-.326-.017.206-1.067h6.569m-2.7-3.387l.67-3.388h3.388l-.67 3.388h-3.388m5.28 22.269l4.574-22.905.24-1.703c.08-.653.046-1.066-.103-1.238-.137-.183-.533-.298-1.186-.344l-1.135-.086-.327-.017L267.09 0h6.57l-2.408 11.986c2.213-2.614 4.666-3.921 7.36-3.921 2.11 0 3.623.83 4.54 2.493.917 1.663 1.095 3.898.533 6.707-.62 3.118-1.834 5.617-3.646 7.497-1.811 1.88-3.903 2.82-6.276 2.82-2.19 0-3.892-.848-5.108-2.545h-.206l-.894 2.322h-2.752m4.11-3.663c1.536 1.33 3.13 1.995 4.78 1.995 3.13 0 5.194-2.5 6.191-7.498 1.067-5.296.08-7.944-2.957-7.944-2.04 0-4.007.974-5.899 2.923l-2.115 10.524m28.46.894c-2.419 1.995-4.614 2.992-6.586 2.992-1.582 0-2.803-.498-3.663-1.496-.848-1.008-1.123-2.27-.825-3.783.825-4.127 4.585-6.19 11.28-6.19h.705l.465-2.322c.596-2.946-.224-4.42-2.46-4.42-2.223 0-3.668 1.118-4.333 3.354l-.086.327h-2.304l.688-3.422c2.59-1.044 4.895-1.565 6.913-1.565 4.08 0 5.749 1.863 5.004 5.589l-1.668 8.323c-.539 2.705-.23 4.058.928 4.058.218 0 .533-.052.946-.155l-.155 1.273c-.87.286-1.633.43-2.287.43-1.662 0-2.516-.998-2.562-2.993m-.705-.378l1.41-7.033h-.79c-4.243 0-6.673 1.547-7.292 4.643-.218 1.077-.052 1.972.499 2.682.55.711 1.347 1.067 2.39 1.067.997 0 2.258-.453 3.783-1.359m15.993-10.644l-1.823 9.13c-.275 1.354-.35 2.23-.224 2.632.126.39.55.607 1.273.653l1.152.086.722.017-.206 1.067h-10.18l.206-1.067.344-.017 1.17-.086c.664-.046 1.105-.155 1.323-.326.218-.184.413-.602.585-1.256l.447-1.702 1.943-9.768.241-1.685c.08-.653.052-1.072-.086-1.255-.138-.184-.533-.298-1.187-.344l-1.135-.086-.326-.017.206-1.066h6.57l-.706 3.508c2.075-2.614 4.362-3.921 6.861-3.921.344 0 .717.063 1.118.189l-1.032 5.107h-1.908l.034-.31.103-1.289c.069-.608-.178-.911-.74-.911-1.707 0-3.29.905-4.745 2.717m20.618 13.585l.705-3.508c-2.247 2.625-4.752 3.938-7.515 3.938-1.605 0-2.763-.528-3.474-1.583-.699-1.066-.865-2.522-.498-4.367l1.737-8.702.24-1.685c.08-.653.052-1.072-.086-1.255-.137-.184-.533-.298-1.186-.344l-1.135-.086-.327-.017.206-1.066h6.57L325.987 21.1c-.574 2.866.16 4.299 2.2 4.299 1.87 0 3.876-.963 6.02-2.89l1.908-9.578.24-1.685c.093-.665.064-1.083-.085-1.255-.138-.184-.533-.298-1.187-.344l-1.152-.086-.31-.017.207-1.066h6.57L337.56 22.7l-.224 1.702c-.092.654-.069 1.072.069 1.256.149.172.55.28 1.204.326l1.152.086.31.018-.207 1.066h-6.586" font-family="Nimbus Sans L" font-size="40" font-weight="400" style="-inkscape-font-specification:'Nimbus Sans L'"/>
</svg>
