<?xml version="1.0" encoding="UTF-8" standalone="no"?>
<svg xmlns="http://www.w3.org/2000/svg" width="119" height="11" viewBox="0 0 119 11">
	<path d="M117.074.32l-.899 1.407c-.094.154-.13.201-.13.331 0 .083.083.154.166.154s.177-.047.355-.225l1.36-1.29-.036-.13a.962.962 0 00-.65-.271c-.06 0-.13.012-.166.023zm-1.727 4.6c.225-1.336 1.053-1.443 1.337-1.443.45 0 .982.249.982 1.242 0 .107-.048.166-.178.166l-2.14.035zm3.1 2.236c-.438.45-.781.639-1.467.639-.426 0-.923-.249-1.29-.852-.236-.39-.378-.934-.378-1.62l3.146.023c.142 0 .225-.07.225-.2 0-.994-.355-2.059-2-2.059-1.028 0-2.365.982-2.365 2.78 0 .662.166 1.3.556 1.75.402.473.958.757 1.81.757.899 0 1.537-.414 2.01-1.029-.035-.118-.106-.177-.248-.189zm-9.54-6.837a.806.806 0 00-.178-.023c-.402 0-.674.2-.769.272l-.023.13 1.348 1.29c.19.176.272.236.343.236.095 0 .178-.071.178-.13a.585.585 0 00-.071-.284l-.828-1.49zm.97 6.494V4.459c0-.591.047-1.348.047-1.348 0-.047-.06-.083-.154-.083-.343.13-.804.236-1.62.343-.024.07 0 .26.023.331.64.071.77.13.77.804v2.307c0 .982-.13 1.017-.852 1.076-.071.071-.071.32 0 .39.39-.011.851-.023 1.324-.023.473 0 .923.012 1.313.023.071-.07.071-.319 0-.39-.721-.047-.851-.094-.851-1.076zm-5.905-2.85a1.488 1.488 0 011.006-.38c.721 0 1.313.876 1.313 2.024 0 1.348-.545 2.365-1.668 2.365-.367 0-.615-.26-.852-.556V4.46c0-.248.048-.355.201-.497zm-.083-.367c-.082.07-.118.047-.118-.06V1.36c0-.769.047-1.242.047-1.242 0-.082-.047-.118-.153-.118-.296.118-1.183.284-1.656.32-.024.094 0 .283.07.354.616.036.758-.023.758.97v5.772c0 .461-.012.674-.048.84.06.095.119.142.26.142.071-.06.19-.178.273-.284.13-.142.2-.142.33-.024.26.225.616.284 1.042.284 1.206 0 2.614-1.1 2.614-2.98 0-1.443-1.065-2.33-2.094-2.33-.509 0-.958.2-1.325.532zM95.7 6.825c0-.663.39-1.053 1.053-1.053.106 0 .509.07.603.07.272 0 .355-.13.355-.271 0-.142-.118-.248-.343-.248-.06 0-.591.059-.603.059-.509 0-.935-.26-.935-1.077 0-.78.533-.851.9-.851.46 0 .662.248.792.508.118.201.236.39.497.39.153 0 .378-.094.378-.437 0-.426-.686-.852-1.597-.852-1.395 0-1.81.852-1.81 1.325 0 .58.308.91.852 1.136v.023c-.851.296-1.076.923-1.076 1.372 0 .686.39 1.455 1.951 1.455.746 0 1.384-.343 1.775-.71a.29.29 0 00-.178-.248c-.461.32-.91.509-1.466.509-.65 0-1.148-.473-1.148-1.1zm-8.777-2.803c-.023-.343-.047-.77-.094-.9-.036-.047-.048-.094-.142-.094-.331.13-.639.237-1.455.343-.024.071 0 .26.024.331.638.06.768.119.768.805v2.306c0 .97-.153 1.029-.804 1.076-.07.071-.07.32 0 .39a32.52 32.52 0 012.46 0c.071-.07.071-.319 0-.39-.591-.059-.721-.106-.721-1.076v-1.94c0-.248.106-.39.2-.497.462-.45.912-.697 1.278-.697.45 0 .78.283.78 1.076v2.058c0 .97-.094 1.029-.732 1.076-.06.071-.06.32 0 .39a28.482 28.482 0 012.365 0c.06-.07.06-.319 0-.39-.591-.047-.698-.106-.698-1.076v-1.88c0-.166 0-.332-.012-.474.568-.627 1.1-.78 1.562-.78.45 0 .71.26.71 1.052v2.082c0 .97-.119 1.029-.734 1.076-.06.071-.06.32 0 .39a31.377 31.377 0 012.425 0c.059-.07.059-.319 0-.39-.65-.047-.757-.106-.757-1.076V4.944c0-1.053-.178-1.88-1.219-1.88-.615 0-1.336.224-1.951.875-.036.035-.107.094-.13 0-.119-.485-.568-.876-1.183-.876-.686 0-1.313.414-1.798.958-.059.071-.142.142-.142 0zM78.262.319a.806.806 0 00-.178-.023c-.402 0-.674.2-.769.272l-.024.13 1.349 1.29c.19.176.272.236.343.236.094 0 .177-.071.177-.13a.585.585 0 00-.07-.284L78.26.32zm-.024 8.055c.46 0 1.017-.236 1.596-.71.06-.047.166-.07.178.012.024.308.13.698.13.698.095.036.142.036.225 0 .26-.213.674-.39 1.395-.473.071-.07.071-.248 0-.32-.757-.058-.863-.283-.863-.863v-2.27c0-.356.047-1.219.047-1.219 0-.035-.035-.071-.094-.071-.06.012-.237.024-.414.024-.379 0-.805-.012-1.207-.024-.07.071-.07.32 0 .39.58.036.734.178.734.958V6.79c0 .225-.024.32-.19.461-.437.379-.887.568-1.182.568-.355 0-.947-.165-.947-1.218V4.447c0-.355.048-1.218.048-1.218 0-.036-.036-.071-.095-.071-.06.012-.237.024-.414.024-.378 0-.804-.012-1.206-.024-.071.07-.071.32 0 .39.567.048.733.178.733.946v2.271c0 .817.355 1.609 1.526 1.609zm-6.79-4.352c-.083.082-.142.118-.142 0-.012-.32-.047-.77-.094-.9-.036-.047-.048-.094-.142-.094-.331.13-.639.237-1.455.343-.024.071 0 .26.024.331.638.06.768.119.768.805v2.306c0 .97-.118 1.017-.828 1.076-.07.071-.07.32 0 .39a32.52 32.52 0 012.484 0c.071-.07.071-.319 0-.39-.603-.059-.721-.106-.721-1.076v-1.94c0-.248.106-.39.2-.497.45-.437.983-.697 1.444-.697.237 0 .485.153.627.425.118.237.142.556.142.911v1.798c0 .97-.119 1.017-.734 1.076-.059.071-.059.32 0 .39a34.19 34.19 0 011.207-.023c.473 0 .899.012 1.254.023.059-.07.059-.319 0-.39-.663-.06-.793-.106-.793-1.076V5.05c0-.65-.047-1.218-.32-1.585-.2-.26-.567-.402-.98-.402-.58 0-1.243.154-1.94.958zm-9.356 0c-.083.082-.142.118-.142 0-.012-.32-.047-.77-.094-.9-.036-.047-.048-.094-.142-.094-.331.13-.639.237-1.455.343-.024.071 0 .26.024.331.638.06.768.119.768.805v2.306c0 .97-.118 1.017-.828 1.076-.07.071-.07.32 0 .39a32.52 32.52 0 012.484 0c.071-.07.071-.319 0-.39-.603-.059-.721-.106-.721-1.076v-1.94c0-.248.106-.39.201-.497.45-.437.982-.697 1.443-.697.237 0 .485.153.627.425.118.237.142.556.142.911v1.798c0 .97-.119 1.017-.734 1.076-.059.071-.059.32 0 .39a34.19 34.19 0 011.207-.023c.473 0 .899.012 1.254.023.059-.07.059-.319 0-.39-.663-.06-.793-.106-.793-1.076V5.05c0-.65-.047-1.218-.32-1.585-.2-.26-.567-.402-.98-.402-.58 0-1.243.154-1.94.958zM56.2 8.374c.461 0 1.017-.236 1.597-.71.059-.047.165-.07.177.012.024.308.13.698.13.698.095.036.142.036.225 0 .26-.213.674-.39 1.396-.473.07-.07.07-.248 0-.32-.757-.058-.864-.283-.864-.863v-2.27c0-.356.048-1.219.048-1.219 0-.035-.036-.071-.095-.071-.06.012-.236.024-.414.024-.378 0-.804-.012-1.206-.024-.071.071-.071.32 0 .39.58.036.733.178.733.958V6.79c0 .225-.024.32-.19.461-.437.379-.886.568-1.182.568-.355 0-.946-.165-.946-1.218V4.447c0-.355.047-1.218.047-1.218 0-.036-.035-.071-.095-.071a2.904 2.904 0 01-.414.024c-.378 0-.804-.012-1.206-.024-.07.07-.07.32 0 .39.568.048.733.178.733.946v2.271c0 .817.355 1.609 1.526 1.609zm-6.944-3.489c0-.26.106-.402.2-.509.45-.437 1.042-.697 1.515-.697.236 0 .485.165.627.425.118.237.142.556.142.911v1.798c0 .97-.119 1.017-.734 1.076-.059.071-.059.32 0 .39a33.021 33.021 0 012.46 0c.06-.07.06-.319 0-.39-.662-.059-.792-.106-.792-1.076V5.051c0-.651-.047-1.219-.32-1.585-.2-.26-.567-.403-.981-.403-.591 0-1.29.154-2.01.958-.048.048-.119.166-.119 0l.012-2.66c0-.77.047-1.243.047-1.243 0-.083-.047-.118-.154-.118-.295.118-1.182.284-1.656.32-.023.094 0 .283.071.354.616.036.757-.024.757.97v5.169c0 .982-.142 1.029-.828 1.076-.07.071-.07.32 0 .39a31.115 31.115 0 012.46 0c.072-.07.072-.319 0-.39-.59-.047-.697-.094-.697-1.076V4.885zM42.225.32l-.898 1.407c-.095.154-.13.201-.13.331 0 .083.083.154.165.154.083 0 .178-.047.355-.225l1.36-1.289-.035-.13a.962.962 0 00-.65-.272.61.61 0 00-.166.024zM40.5 4.92c.225-1.336 1.053-1.442 1.337-1.442.449 0 .981.248.981 1.241 0 .107-.047.166-.177.166l-2.141.036zm3.099 2.236c-.438.45-.78.639-1.467.639-.426 0-.922-.249-1.289-.852-.237-.39-.379-.934-.379-1.62l3.147.023c.142 0 .224-.07.224-.2 0-.994-.354-2.059-1.999-2.059-1.029 0-2.365.982-2.365 2.78 0 .662.165 1.301.556 1.75.402.474.958.757 1.81.757.898 0 1.537-.414 2.01-1.029-.035-.118-.106-.177-.248-.189zM31.853 4.022c-.083.082-.142.118-.142 0-.012-.32-.047-.77-.095-.9-.035-.047-.047-.094-.142-.094-.33.13-.638.237-1.454.343-.024.071 0 .26.023.331.639.06.769.119.769.805v2.306c0 .97-.118 1.017-.828 1.076-.07.071-.07.32 0 .39a32.52 32.52 0 012.484 0c.071-.07.071-.319 0-.39-.603-.059-.722-.106-.722-1.076v-1.94c0-.248.107-.39.202-.497.449-.437.981-.697 1.443-.697.236 0 .484.153.626.425.119.237.142.556.142.911v1.798c0 .97-.118 1.017-.733 1.076-.06.071-.06.32 0 .39a34.19 34.19 0 011.206-.023c.474 0 .9.012 1.254.024.06-.071.06-.32 0-.39-.662-.06-.792-.107-.792-1.077V5.051c0-.651-.048-1.219-.32-1.585-.2-.26-.567-.403-.981-.403-.58 0-1.242.154-1.94.958zm-4.3-2.85c0 .307.284.614.568.614.331 0 .615-.307.615-.568 0-.283-.249-.615-.568-.615-.284 0-.615.284-.615.568zm1.076 5.641V4.459c0-.591.048-1.348.048-1.348 0-.047-.06-.083-.154-.083-.343.13-.804.237-1.62.343-.024.071 0 .26.023.331.639.071.769.13.769.805v2.306c0 .982-.13 1.017-.852 1.076-.07.071-.07.32 0 .39.39-.011.852-.023 1.325-.023s.923.012 1.313.024c.07-.071.07-.32 0-.39-.722-.048-.852-.095-.852-1.077zm-5.803 3.336c.177-.32.33-.663.485-1.018.946-2.282 1.466-3.489 2.093-4.825.225-.497.402-.686.958-.757.071-.071.071-.32 0-.39-.236.011-.508.023-.84.023-.354 0-.721-.012-1.076-.024-.07.071-.07.32 0 .39.367.036.757.107.568.533L23.83 6.789c-.083.201-.177.225-.284-.011l-1.04-2.46c-.214-.497-.273-.71.39-.77.07-.07.07-.319 0-.39a51.4 51.4 0 01-1.337.024c-.402 0-.721-.012-.958-.024-.071.071-.071.32 0 .39.461.06.615.166.923.888l1.348 3.11c.095.249.284.781.166 1.112a9.873 9.873 0 01-.462 1.088c-.13.237-.295.343-.591.343-.166 0-.213-.035-.343-.035-.343 0-.52.355-.52.508 0 .249.236.438.555.438.249 0 .722-.094 1.148-.851zm-4.304-1.775c.13 1.656.875 2.106 1.525 2.106 1.006 0 1.372-.533 1.372-.9 0-.26-.153-.425-.402-.425-.32 0-.485.213-.544.461-.07.249-.13.485-.485.485-.343 0-.591-.355-.591-2.176V1.36c0-.768.035-1.241.035-1.241 0-.083-.047-.119-.153-.119-.308.119-1.124.272-1.597.308l.023.284c0 .035.024.059.071.059l.379.024c.236 0 .355.153.355.922v1.727c-.272-.154-.793-.26-1.03-.26-.78 0-1.3.26-1.774.71-.508.508-.792 1.206-.792 2.081 0 1.455.71 2.52 1.987 2.52.473 0 1.065-.379 1.609-.817v.84l.012-.024zM18.51 6.73v.414c-.533.426-.994.674-1.301.674-.64 0-1.29-.697-1.29-2.176 0-.852.154-1.325.332-1.573a1.24 1.24 0 011.1-.591c.556 0 .875.248 1.159.697V6.73zM10.76.32a.806.806 0 00-.178-.024c-.402 0-.674.2-.769.272l-.023.13 1.348 1.29c.19.177.272.236.343.236.095 0 .177-.071.177-.13a.585.585 0 00-.07-.284L10.76.32zm-.024 8.054c.461 0 1.017-.236 1.597-.71.059-.047.165-.07.177.012.024.308.13.698.13.698.095.036.142.036.225 0 .26-.213.674-.39 1.396-.473.07-.07.07-.248 0-.32-.757-.058-.864-.283-.864-.863v-2.27c0-.355.048-1.219.048-1.219 0-.035-.036-.07-.095-.07-.06.01-.237.023-.414.023-.379 0-.804-.012-1.206-.024-.071.071-.071.32 0 .39.58.036.733.178.733.958V6.79c0 .225-.024.32-.19.462-.437.378-.886.567-1.182.567-.355 0-.946-.165-.946-1.218V4.447c0-.355.047-1.218.047-1.218 0-.035-.036-.071-.095-.071a2.904 2.904 0 01-.414.024c-.378 0-.804-.012-1.206-.024-.071.071-.071.32 0 .39.568.048.733.178.733.947v2.27c0 .817.355 1.61 1.526 1.61zM6.452 2.2v3.868c0 .225 0 .355-.083.355-.047 0-.224-.213-.567-.65L1.745.626.148.603c-.071.071-.071.32 0 .39.508.036.863.45.934.758v4.932c0 1.053-.2 1.123-1.029 1.206-.07.071-.07.32 0 .39a74.02 74.02 0 011.325-.023c.272 0 .816.012 1.313.024.07-.071.07-.32 0-.39-.828-.084-1.03-.13-1.03-1.207v-3.62c0-.402 0-.579.095-.579.071 0 .202.13.403.39L6.286 8.09c.13.178.284.284.474.284.165 0 .272-.142.272-.366V2.2c0-1.053.2-1.124 1.029-1.206.07-.071.07-.32 0-.39-.485.011-1.053.023-1.325.023-.26 0-.793-.012-1.313-.024-.07.071-.07.32 0 .39.828.083 1.03.13 1.03 1.207z"/>
</svg>
