<?xml version="1.0" encoding="UTF-8" standalone="no"?>
<svg xmlns="http://www.w3.org/2000/svg" width="123" height="12" viewBox="0 0 123 12">
	<path style="-inkscape-font-specification:Sans" d="M7.97 6.913l1.066-5.28C9.246.54 9.483.474 10.418.435c.092-.08.145-.356.08-.435-.646.013-1.041.026-1.713.026-.658 0-1.04-.013-1.698-.026-.092.079-.145.356-.08.435.699.039.988.079.975.605a3.05 3.05 0 01-.474.632L2.992 6.175c-.119.106-.21.145-.263.145l.948-4.687C3.887.54 4.124.474 5.059.435c.092-.08.145-.356.08-.435-.646.013-1.041.026-1.712.026-.659 0-1.04-.013-1.699-.026-.092.079-.145.356-.079.435.908.039 1.12.105.908 1.198l-1.066 5.28C1.281 8.006 1.043 8.07.108 8.11c-.092.079-.144.355-.079.434.646-.013 1.04-.026 1.712-.026.658 0 1.04.013 1.699.026.092-.079.145-.355.079-.434-.711-.026-1.014-.08-.988-.619.145-.316.303-.421.5-.619l4.49-4.477a.658.658 0 01.277-.17L6.85 6.912C6.64 8.006 6.402 8.07 5.467 8.11c-.092.079-.144.355-.079.434.646-.013 1.04-.026 1.712-.026.658 0 1.04.013 1.699.026.092-.079.144-.355.079-.434-.909-.04-1.12-.105-.909-1.198m4.24-2.489c.434-.698 1.158-1.08 1.605-1.08.804 0 1.212.843.896 2.436-.237 1.133-.738 2.423-2.146 2.423-.211 0-.646-.026-1.001-.566l.645-3.213m.316-1.554l-.026-.026s-.303.026-.487.026c-.461 0-1.357-.026-1.357-.026l-.026.026-.053.25c-.013.066.014.106.08.106l.25.026c.42.053.526.21.447.58l-1.356 6.78c-.066.37-.29.54-.685.58l-.25.026c-.066.013-.118.04-.131.106l-.04.25.013.026s.909-.026 1.37-.026c.513 0 1.408.026 1.408.026l.04-.026.04-.25c.013-.066-.027-.093-.093-.106l-.25-.026c-.408-.04-.513-.21-.448-.58l.448-2.25c.316.183.658.289 1.132.289.685 0 1.278-.224 1.896-.738.712-.605 1.212-1.422 1.423-2.488.276-1.396-.303-2.686-1.58-2.686-.422 0-1.16.131-1.95 1.053H12.3l.224-.922m11.758 1.607c.223-1.093.381-1.133 1.198-1.198.092-.08.145-.356.079-.435-.553.013-.896.026-1.475.026-.566 0-.895-.013-1.461-.026-.093.08-.145.356-.08.435.79.052.922.105.698 1.198l-.487 2.436c-.21 1.093-.368 1.132-1.185 1.198-.092.079-.145.355-.079.434.553-.013.896-.026 1.475-.026.566 0 .895.013 1.461.026.093-.079.145-.355.08-.434-.79-.053-.922-.105-.712-1.198l.488-2.436M20.569 6.86c-.211 1.08-.87 1.277-1.528 1.277-.606 0-.803-.131-.71-.592l.394-1.975h.882c.935 0 1.106.592.962 1.29m-3.226.685c-.08.382-.211.553-.685.592l-.263.027c-.066.013-.106.04-.119.105l-.053.25.027.026s.83-.026 1.37-.026c.513 0 .802.026 1.329.026 1.462 0 2.41-.71 2.633-1.817.25-1.237-.763-1.58-2.027-1.58h-.75l.262-1.303c.08-.382.237-.527.685-.58l.25-.026c.053 0 .119-.04.132-.118l.053-.237-.027-.027s-.895.013-1.409.013c-.474 0-1.369-.013-1.369-.013l-.026.027-.053.237c-.013.079.013.118.08.118l.25.026c.447.053.526.198.447.58l-.737 3.7m2.975-6.57c-.079.342.145.618.488.618.342 0 .671-.276.75-.619.066-.342-.158-.632-.5-.632-.343 0-.672.29-.738.632m2.226 0c-.08.343.144.62.487.62.342 0 .671-.277.75-.62.066-.342-.158-.632-.5-.632-.342 0-.672.29-.737.632m2.602 7.545l.026.026s.896-.026 1.356-.026c.514 0 1.278.026 1.278.026l.026-.026.053-.25c.013-.066-.04-.092-.093-.105-.276-.04-.658-.119-.566-.553l.369-1.844c.974.066 1.172.54 1.277 1.264.08.58.303 1.488.961 1.501l.948.013.04-.026.053-.237c.013-.092-.08-.118-.132-.118l-.092-.014c-.461-.065-.777-1.211-.882-1.711-.145-.646-.567-.935-1.278-.935l.014-.053c.513-.145.908-.592 1.21-1.119.225-.408.528-.698.66-.698.118 0 .21.04.276.092a.508.508 0 00.342.119.66.66 0 00.606-.5c.052-.317-.027-.593-.566-.593-.632 0-1.199.71-1.567 1.33-.435.724-.896 1.224-1.778 1.224l.303-1.5c.092-.475.382-.54.764-.58.052 0 .118-.066.131-.132l.053-.224-.026-.026s-.738.026-1.251.026c-.461 0-1.356-.026-1.356-.026l-.027.026-.052.25c-.014.066.026.093.079.106l.25.026c.408.04.513.21.434.58l-.75 3.752c-.066.369-.185.5-.659.553l-.263.027c-.066.013-.105.04-.118.105l-.053.25m8.46-7.571c-.065.342.159.619.5.619a.785.785 0 00.738-.619c.066-.342-.145-.632-.487-.632-.342 0-.685.29-.75.632m2.225 0c-.066.342.158.619.5.619a.785.785 0 00.737-.619c.066-.342-.144-.632-.487-.632-.342 0-.684.29-.75.632m-.356 4.503l-.355 1.751a.528.528 0 01-.25.343c-.395.276-.909.566-1.278.566-.658 0-.842-.527-.763-.935.118-.592.513-1.185 1.54-1.448l1.106-.277m-.487 2.436c.013.277.145.764.856.764.645 0 1.224-.527 1.238-.593.013-.092-.08-.224-.132-.224-.079 0-.171.211-.448.211-.513 0-.421-.513-.303-1.12l.395-1.961c.37-1.87-.579-2.225-1.54-2.225-1.08 0-2.33.75-2.462 1.461-.066.316.066.461.368.461.382 0 .632-.263.659-.434a.503.503 0 00.013-.237c-.013-.04 0-.119.026-.264.08-.408.698-.553 1.198-.553.448 0 1.027.224.725 1.712-.014.092-.066.145-.106.158l-1.185.276c-1.33.316-2.383 1.014-2.554 1.91-.21 1.04.448 1.422 1.37 1.422.605 0 .881-.106 1.54-.553l.316-.211h.026m7.269-.382c-.092.5-.185.606-.659.632l-.355.027c-.04.013-.066.026-.08.065l-.052.29.013.026a46.61 46.61 0 011.422-.026c.488 0 .962.013 1.357.026l.026-.026.053-.276c.013-.053-.014-.066-.066-.08l-.25-.026c-.448-.04-.527-.105-.422-.632l.738-3.634c.105-.54.197-.566.658-.619l.263-.026c.053 0 .092-.026.106-.08l.052-.276-.013-.026a41.76 41.76 0 01-1.37.026 45.13 45.13 0 01-1.408-.026l-.026.026-.066.29c0 .053.013.066.052.066l.343.026c.408.04.513.119.421.62l-.29 1.408h-2.699l.29-1.409c.105-.54.197-.566.658-.619l.264-.026c.052 0 .092-.026.105-.08l.053-.276-.014-.026c-.395.013-.895.026-1.382.026-.474 0-1-.013-1.396-.026l-.026.026-.066.29c0 .053.013.066.053.066l.342.026c.408.04.513.119.421.62l-.737 3.633c-.092.5-.184.606-.658.632l-.356.027c-.04.013-.066.026-.079.065l-.053.29.014.026a45.13 45.13 0 011.408-.026c.488 0 .975.013 1.37.026l.026-.026.053-.276c.013-.053-.013-.066-.066-.08l-.25-.026c-.448-.04-.527-.105-.422-.632l.356-1.777h2.7l-.356 1.777m6.052-.066c-.132.698.698 1.212 1.896 1.212 1.303 0 2.804-.922 3.226-3.042.316-1.593-.171-2.87-1.923-2.87-.618 0-1.198.21-1.856.25-.145.5-.29.948-.553 1.58l.316.053c.395-.843.935-1.475 1.91-1.475 1.17 0 1.329 1.132 1.092 2.344l-.04.026c-.302-.21-.632-.369-1.013-.369-.567 0-.988.369-1.449.369-.171 0-.316-.079-.408-.079-.079 0-.132.132-.145.184-.04.185.527.422 1.093.422.593 0 .882-.29 1.383-.29.17 0 .329.053.474.118-.316 1.567-1.054 2.344-2.16 2.344-.526 0-.83-.316-.908-.671-.119-.408-.25-.487-.474-.487-.237 0-.409.17-.461.381m10.252.066c-.092.5-.184.606-.658.632l-.356.027c-.04.013-.065.026-.079.065l-.052.29.013.026a46.61 46.61 0 011.422-.026c.487 0 .961.013 1.356.026l.026-.026.053-.276c.013-.053-.013-.066-.066-.08l-.25-.026c-.448-.04-.527-.105-.421-.632l.737-3.634c.105-.54.198-.566.658-.619l.264-.026c.052 0 .092-.026.105-.08l.053-.276-.013-.026a41.76 41.76 0 01-1.37.026 45.13 45.13 0 01-1.409-.026l-.026.026-.066.29c0 .053.013.066.053.066l.342.026c.408.04.514.119.422.62l-.29 1.408h-2.7l.29-1.409c.106-.54.198-.566.659-.619l.263-.026c.053 0 .092-.026.105-.08l.053-.276-.013-.026c-.395.013-.896.026-1.383.026-.474 0-1-.013-1.395-.026l-.027.026-.066.29c0 .053.014.066.053.066l.342.026c.409.04.514.119.422.62l-.738 3.633c-.092.5-.184.606-.658.632l-.355.027c-.04.013-.066.026-.08.065l-.052.29.013.026a45.13 45.13 0 011.409-.026c.487 0 .974.013 1.37.026l.026-.026.052-.276c.013-.053-.013-.066-.066-.08l-.25-.026c-.447-.04-.526-.105-.421-.632l.355-1.777h2.7l-.356 1.777m7.962-3.62l-.685 3.475c-.092.448-.171.646-.659.646H63.6c-.46 0-.5-.158-.395-.646l.698-3.489c.106-.54.185-.566.645-.619l.277-.026c.053 0 .092-.026.105-.08l.053-.276-.026-.026s-.843.026-1.37.026c-.553 0-1.409-.026-1.409-.026l-.013.026-.066.29c0 .053.014.066.066.066l.343.026c.434.04.5.119.408.62l-.738 3.686c-.105.513-.184.527-.645.58l-.237.026c-.04.013-.066.026-.079.079l-.052.276.026.026s.83-.026 1.224-.026h3.2c1.04 0 1.225 1.053 1.238 1.699l.329-.014.276-1.75c.027-.225-.105-.25-.329-.29-.224-.04-.421-.25-.342-.646l.724-3.634c.119-.54.21-.592.672-.632l.329-.026c.052 0 .092-.026.092-.066l.066-.29-.027-.026s-.869.026-1.422.026c-.526 0-1.343-.026-1.343-.026l-.013.026-.066.29c0 .053.013.066.053.066l.277.026c.434.053.5.119.395.632m4.433-1.014c-.566 0-1.435-.026-1.435-.026l-.04.026-.065.29c0 .053.013.066.066.066l.395.026c.474.04.5.145.381.698l-.71 3.555c-.093.461-.159.606-.646.632l-.421.027c-.04.013-.066.026-.08.065l-.052.29.013.026c.527-.013.896-.026 1.462-.026.421 0 .54.013 1.066.026l.014-.026.052-.276c.013-.053-.013-.066-.066-.08-.434-.039-.447-.184-.381-.5v-.026l3.37-3.266-.618 3.108c-.093.46-.185.632-.672.658l-.421.027c-.04.013-.066.026-.08.065l-.052.29.026.026c.527-.013.883-.026 1.449-.026.592 0 .987.013 1.514.026l.013-.026.053-.276c.013-.053-.013-.066-.066-.08l-.382-.026c-.46-.026-.5-.17-.395-.658l.711-3.542c.105-.553.158-.645.658-.685l.395-.026c.053 0 .093-.026.106-.08l.052-.276-.013-.026s-.921.026-1.514.026c-.369 0-.961-.026-.961-.026l-.026.026-.066.29c0 .053.013.066.052.066.448.04.409.263.356.58l-3.37 3.265.631-3.134c.105-.54.158-.645.672-.685l.395-.026c.052 0 .092-.026.105-.08l.053-.276-.027-.026s-.921.026-1.5.026m4.979 5.65l.026.025s.895-.026 1.356-.026c.514 0 1.277.026 1.277.026l.027-.026.052-.25c.014-.066-.04-.092-.092-.105-.276-.04-.658-.119-.566-.553l.369-1.844c.974.066 1.172.54 1.277 1.264.079.58.303 1.488.961 1.501l.948.013.04-.026.052-.237c.014-.092-.079-.118-.131-.118l-.092-.014c-.461-.065-.777-1.211-.883-1.711-.145-.646-.566-.935-1.277-.935l.013-.053c.514-.145.909-.592 1.212-1.119.224-.408.526-.698.658-.698.119 0 .21.04.277.092a.508.508 0 00.342.119.66.66 0 00.606-.5c.052-.317-.027-.593-.567-.593-.632 0-1.198.71-1.567 1.33-.434.724-.895 1.224-1.777 1.224l.303-1.5c.092-.475.382-.54.763-.58.053 0 .119-.066.132-.132l.053-.224-.027-.026s-.737.026-1.25.026c-.461 0-1.357-.026-1.357-.026l-.026.026-.053.25c-.013.066.027.093.08.106l.25.026c.408.04.513.21.434.58l-.75 3.752c-.066.369-.185.5-.659.553l-.263.027c-.066.013-.105.04-.119.105l-.052.25m6.024-.606c-.079.409.198.764.777.764.632 0 1.054-.33 1.488-1.053.369-.632.711-1.975.882-2.87.211-1.028.316-1.37.817-1.37h.592c.474 0 .487.184.395.632l-.698 3.529c-.079.382-.21.54-.684.592l-.264.027c-.065.013-.105.04-.118.105l-.053.25.027.026s.895-.026 1.369-.026c.513 0 1.409.026 1.409.026l.026-.026.053-.25c.013-.066-.04-.105-.092-.105l-.237-.027c-.422-.04-.527-.21-.448-.592l.737-3.674c.092-.5.145-.58.659-.619l.368-.026c.08 0 .119-.026.132-.092l.053-.264-.04-.026s-.895.026-1.461.026h-2.291a55.67 55.67 0 01-1.357-.026l-.04.026-.039.211c-.026.119.027.132.237.145.738.053.738.237.461 1.62-.276 1.382-.526 2.106-.803 2.646-.263.474-.5.645-.711.645-.158 0-.198-.105-.184-.276.013-.237 0-.5-.356-.5-.316 0-.54.263-.606.552M89.48 5.82c-.263 1.343.343 2.83 2.2 2.83 1.961 0 3.12-1.632 3.383-2.949.277-1.369-.132-2.962-2.173-2.962-1.777 0-3.08 1.409-3.41 3.08m3.173-2.646c1.133 0 1.58 1.014 1.185 2.95-.342 1.738-1.21 2.093-1.83 2.093-1.37 0-1.54-1.685-1.33-2.699.224-1.146.87-2.344 1.975-2.344m4.7.724l-.724 3.621c-.093.461-.198.593-.659.62l-.408.026c-.053.013-.079.026-.092.065l-.053.29.027.026s.895-.026 1.474-.026c.553 0 1.436.026 1.436.026l.013-.026.052-.276c.014-.053-.013-.066-.052-.08l-.343-.026c-.447-.026-.5-.118-.408-.619l.724-3.62c.093-.461.37-.514.646-.514h1.593c.263 0 .54.026.434.513l-.724 3.621c-.092.461-.197.593-.658.62l-.369.026c-.04.013-.066.026-.079.065l-.053.29.014.026s.882-.026 1.448-.026 1.475.026 1.475.026l.013-.026.053-.276c.013-.053-.014-.066-.066-.08l-.382-.026c-.46-.026-.514-.118-.421-.619l.724-3.634c.118-.54.158-.592.671-.632l.395-.026c.053 0 .092-.026.106-.08l.052-.276-.013-.026s-.922.026-1.514.026h-3.647c-.567 0-1.449-.026-1.449-.026l-.026.026-.066.29c0 .053.013.066.053.066l.395.026c.447.04.526.092.408.645m7.485.909c.553-1.488 1.5-1.606 1.817-1.606.5 0 1.04.276.816 1.382-.026.119-.092.184-.237.184l-2.396.04m2.962 2.489c-.592.5-1.013.71-1.777.71-.474 0-.975-.276-1.251-.947-.171-.435-.21-1.04-.053-1.804l3.49.026c.158 0 .263-.079.302-.224.211-1.106.053-2.29-1.777-2.29-1.146 0-2.844 1.092-3.252 3.093-.145.738-.106 1.449.237 1.949.342.527.895.843 1.843.843 1 0 1.804-.461 2.462-1.146-.013-.131-.079-.197-.224-.21m.53 2.91l.343.013c.21-.488.79-1.699 1.896-1.699h2.133c1.093 0 1.238 1.159 1.238 1.685h.329l.276-1.764c.04-.184-.04-.224-.276-.276-.21-.04-.487-.158-.395-.646l.737-3.647c.08-.448.237-.553.724-.619l.224-.026c.04 0 .106-.04.119-.092l.052-.264-.013-.026s-.961.026-1.395.026h-2.502c-.224 0-1.251-.026-1.251-.026l-.04.026-.065.29c0 .053.026.066.079.066l.355.026c.448.04.474.303.448.461-.316 1.567-.803 2.765-1.264 3.884-.145.356-.54.527-.896.567-.184.026-.355.052-.42.29l-.435 1.75m2.146-2.356c.052-.224.553-1.133 1.343-4.135.013-.053.131-.342.434-.342h.935c.487 0 .487.197.395.645l-.658 3.344c-.092.435-.171.646-.658.646H110.7c-.132 0-.25-.014-.224-.158m7.569-4.978c-.566 0-1.435-.026-1.435-.026l-.04.026-.066.29c0 .053.014.066.066.066l.395.026c.474.04.5.145.382.698l-.71 3.555c-.093.461-.159.606-.646.632l-.421.027c-.04.013-.066.026-.08.065l-.052.29.013.026c.527-.013.895-.026 1.462-.026.421 0 .54.013 1.066.026l.013-.026.053-.276c.013-.053-.013-.066-.066-.08-.434-.039-.447-.184-.382-.5v-.026l3.371-3.266-.619 3.108c-.092.46-.184.632-.671.658l-.422.027c-.039.013-.065.026-.079.065l-.052.29.026.026c.527-.013.882-.026 1.448-.026.593 0 .988.013 1.515.026l.013-.026.053-.276c.013-.053-.014-.066-.066-.08l-.382-.026c-.461-.026-.5-.17-.395-.658l.71-3.542c.106-.553.159-.645.66-.685l.394-.026c.053 0 .092-.026.106-.08l.052-.276-.013-.026s-.922.026-1.514.026c-.369 0-.961-.026-.961-.026l-.027.026-.065.29c0 .053.013.066.052.066.448.04.408.263.356.58l-3.371 3.265.632-3.134c.105-.54.158-.645.672-.685l.395-.026c.052 0 .092-.026.105-.08l.053-.276-.027-.026s-.921.026-1.5.026" font-family="Sans" font-size="13" font-weight="400"/>
</svg>
