<?xml version="1.0" encoding="UTF-8" standalone="no"?>
<svg xmlns="http://www.w3.org/2000/svg" width="129" height="10" viewBox="0 0 129 10">
	<path d="M8.502 6.766c-.14 1.032-.178 1.045-1.02 1.083-.089.077-.14.344-.076.42.599-.012.981-.025 1.364-.025.382 0 .955.013 1.388.026.09-.077.14-.344.077-.42-.854-.04-.88-.09-.752-1.148l.688-5.364c.09-.688.191-.867 1.07-.918.09-.076.14-.344.077-.42l-1.67.025-3.988 6.46c-.076.128-.127.18-.152.18-.039 0-.039-.052-.077-.167L4.12.025 2.27 0c-.09.076-.14.344-.076.42.866.051.943.077.662 1.033l-1.58 5.25C1.061 7.466.844 7.784.105 7.848c-.09.077-.14.344-.077.42.383-.012.79-.025 1.096-.025.306 0 .816.013 1.198.026.09-.077.14-.344.076-.42-.828-.065-.828-.447-.598-1.173l1.503-5.11h.026L4.64 8.18c0 .102.09.14.166.14.076 0 .127-.038.204-.14l4.217-6.74h.026l-.752 5.326m4.07-2.115c.536-1.44 1.453-1.555 1.759-1.555.484 0 1.007.268.79 1.338-.026.115-.09.179-.23.179l-2.318.038m2.866 2.408c-.573.484-.98.688-1.72.688-.458 0-.943-.267-1.21-.917-.166-.42-.204-1.007-.051-1.746l3.376.026c.153 0 .255-.077.294-.217.203-1.07.05-2.217-1.72-2.217-1.11 0-2.753 1.057-3.148 2.994-.14.714-.102 1.402.23 1.886.33.51.866.816 1.783.816.969 0 1.746-.446 2.383-1.109-.013-.127-.076-.191-.217-.204m1.118.128c-.063.28.077.484.294.688.242.229.828.497 1.77.497 1.198 0 2.473-.536 2.702-1.644.153-.765-.408-1.287-1.338-1.415l.013-.063c.739-.166 1.44-.586 1.58-1.3.153-.739-.37-1.3-1.657-1.3-.7 0-1.363.28-2.026.357l-.586 1.516.319.051c.37-.739 1.07-1.529 2.077-1.529.688 0 .98.446.866 1.007-.114.56-.51 1.109-1.338 1.109-.23 0-.535-.064-.764-.064-.102 0-.255.064-.293.267-.039.204.102.255.204.255.229 0 .497-.063.79-.063 1.057 0 1.223.65 1.108 1.21-.153.752-.713 1.21-1.593 1.21-.675 0-1.006-.344-1.172-.764-.076-.217-.166-.408-.471-.408-.217 0-.446.179-.485.383m4.727 2.688l.332.013c.204-.472.764-1.644 1.835-1.644h2.064c1.057 0 1.198 1.121 1.198 1.631h.318l.268-1.707c.038-.179-.039-.217-.268-.268-.204-.038-.471-.153-.382-.624l.713-3.53c.077-.433.23-.535.701-.599l.217-.025c.038 0 .102-.038.115-.09l.05-.254-.012-.026s-.93.026-1.35.026H24.66c-.217 0-1.21-.026-1.21-.026l-.039.026-.063.28c0 .051.025.064.076.064l.344.025c.433.039.459.293.433.446-.305 1.517-.777 2.676-1.223 3.76-.14.343-.522.509-.866.547-.179.026-.344.051-.408.28l-.42 1.695m2.076-2.28c.051-.217.536-1.097 1.3-4.002.013-.05.128-.331.42-.331h.905c.472 0 .472.191.383.624l-.638 3.237c-.089.42-.165.624-.637.624h-1.516c-.127 0-.242-.013-.217-.153m5.842-4.842l-.012.026-.064.28c0 .038 0 .064.05.064l.37.025c.332.026.472.102.383.548L29.1 7.288c-.114.446-.216.561-.662.587l-.395.025c-.051.013-.077.026-.09.064l-.05.28.012.026s.816-.026 1.198-.026 1.007.026 1.007.026l.025-.026.051-.267c.013-.051-.013-.064-.064-.077l-.203-.025c-.383-.039-.46-.166-.37-.587l.841-3.695h.026l.993 4.575c.026.089.064.127.115.127a.232.232 0 00.204-.127l2.943-4.791h.013l-.79 3.899c-.102.458-.153.535-.599.599l-.178.025c-.038.013-.064.026-.077.077l-.05.267.012.026s.701-.026 1.083-.026c.383 0 1.491.026 1.491.026l.013-.026.05-.267c.014-.039-.012-.064-.063-.077l-.37-.025c-.51-.026-.522-.166-.433-.6l.714-3.58c.102-.471.14-.51.624-.548l.357-.025c.051 0 .09-.026.09-.064l.063-.28-.026-.026-1.962.026-2.612 4.32-.866-4.32-1.963-.026m9.58-1.835c-.064.332.152.6.484.6a.76.76 0 00.713-.6c.064-.33-.14-.611-.471-.611-.332 0-.663.28-.727.611m2.154 0c-.064.332.153.6.484.6a.76.76 0 00.714-.6c.063-.33-.14-.611-.472-.611-.331 0-.662.28-.726.611M36.82 5.632c-.255 1.3.331 2.74 2.128 2.74 1.899 0 3.02-1.58 3.275-2.855.267-1.325-.128-2.867-2.103-2.867-1.72 0-2.981 1.364-3.3 2.982m3.071-2.561c1.096 0 1.529.981 1.147 2.854-.332 1.682-1.172 2.026-1.771 2.026-1.326 0-1.491-1.63-1.287-2.612.216-1.109.84-2.268 1.911-2.268m3.753-.319l-.013.026-.064.28c0 .038 0 .064.051.064l.37.025c.331.026.471.102.382.548l-.828 3.593c-.115.446-.217.561-.663.587l-.395.025c-.05.013-.076.026-.089.064l-.05.28.012.026s.815-.026 1.198-.026c.382 0 1.006.026 1.006.026l.026-.026.05-.267c.013-.051-.012-.064-.063-.077l-.204-.025c-.382-.039-.459-.166-.37-.587l.842-3.695h.025l.994 4.575c.025.089.064.127.115.127a.232.232 0 00.203-.127l2.944-4.791h.013l-.79 3.899c-.102.458-.153.535-.6.599l-.178.025c-.038.013-.063.026-.076.077l-.051.267.013.026s.7-.026 1.083-.026c.382 0 1.49.026 1.49.026l.013-.026.051-.267c.013-.039-.012-.064-.063-.077l-.37-.025c-.51-.026-.522-.166-.433-.6l.713-3.58c.102-.471.14-.51.625-.548l.357-.025c.05 0 .089-.026.089-.064l.063-.28-.025-.026-1.962.026-2.612 4.32-.867-4.32-1.962-.026M52.875 7.2c-.127.676.675 1.173 1.835 1.173 1.261 0 2.714-.892 3.122-2.944.305-1.542-.166-2.778-1.86-2.778-.6 0-1.16.204-1.797.242-.14.485-.28.918-.536 1.53l.306.05c.383-.815.905-1.427 1.848-1.427 1.134 0 1.287 1.096 1.057 2.268l-.038.026c-.293-.204-.611-.357-.98-.357-.549 0-.957.357-1.403.357-.165 0-.305-.077-.395-.077-.076 0-.127.128-.14.179-.038.178.51.408 1.058.408.573 0 .854-.28 1.338-.28.165 0 .318.05.459.114-.306 1.516-1.02 2.268-2.09 2.268-.51 0-.803-.306-.88-.65-.114-.395-.241-.471-.458-.471-.23 0-.395.165-.446.37m9.725.063c-.089.484-.178.586-.637.612l-.344.025c-.038.013-.063.026-.076.064l-.051.28.013.026c.382-.013.917-.026 1.376-.026.471 0 .93.013 1.312.026l.026-.026.05-.267c.013-.051-.012-.064-.063-.077l-.242-.025c-.433-.039-.51-.102-.408-.612l.714-3.517c.102-.522.19-.548.637-.599l.255-.025c.05 0 .089-.026.102-.077l.05-.267-.012-.026c-.383.013-.854.026-1.325.026-.46 0-.982-.013-1.364-.026l-.025.026-.064.28c0 .051.013.064.05.064l.332.025c.395.039.497.115.408.6l-.28 1.363h-2.612l.28-1.364c.102-.522.191-.548.637-.599l.255-.025c.05 0 .089-.026.102-.077l.05-.267-.012-.026a41.24 41.24 0 01-1.338.026c-.459 0-.968-.013-1.35-.026l-.026.026-.064.28c0 .051.013.064.051.064l.331.025c.395.039.497.115.408.6l-.713 3.516c-.09.484-.179.586-.637.612l-.344.025c-.039.013-.064.026-.077.064l-.05.28.012.026c.382-.013.905-.026 1.363-.026.472 0 .943.013 1.325.026l.026-.026.05-.267c.014-.051-.012-.064-.063-.077l-.242-.025c-.433-.039-.51-.102-.408-.612l.344-1.72h2.612l-.344 1.72m7.509-3.504l-.663 3.364c-.089.433-.165.624-.637.624H67.28c-.446 0-.484-.153-.382-.624l.675-3.377c.102-.522.178-.548.624-.599l.268-.025c.051 0 .09-.026.102-.077l.05-.267-.025-.026s-.815.026-1.325.026c-.535 0-1.363-.026-1.363-.026l-.013.026-.064.28c0 .051.013.064.064.064l.331.025c.42.039.485.115.395.6l-.713 3.567c-.102.497-.179.51-.624.56l-.23.026c-.038.013-.064.026-.076.077l-.051.267.025.026s.803-.026 1.185-.026h3.097c1.006 0 1.185 1.02 1.197 1.644l.319-.013.267-1.695c.026-.216-.102-.242-.318-.28-.217-.038-.408-.242-.331-.624l.7-3.517c.115-.523.204-.573.65-.612l.319-.025c.05 0 .089-.026.089-.064l.064-.28-.026-.026s-.84.026-1.376.026c-.51 0-1.3-.026-1.3-.026l-.012.026-.064.28c0 .051.013.064.05.064l.268.025c.421.051.485.115.383.612m4.094-.981c-.547 0-1.388-.026-1.388-.026l-.039.026-.063.28c0 .051.012.064.063.064l.383.025c.458.039.484.14.37.676l-.689 3.44c-.09.446-.153.586-.624.612l-.408.025c-.038.013-.064.026-.077.064l-.05.28.012.026c.51-.013.867-.026 1.415-.026.407 0 .522.013 1.032.026l.012-.026.051-.267c.013-.051-.012-.064-.063-.077-.42-.038-.434-.178-.37-.484V7.39l3.262-3.16-.599 3.007c-.089.446-.178.612-.65.638l-.407.025c-.039.013-.064.026-.077.064l-.05.28.025.026c.51-.013.853-.026 1.401-.026.574 0 .956.013 1.466.026l.012-.026.051-.267c.013-.051-.012-.064-.063-.077l-.37-.025c-.446-.026-.484-.166-.382-.638l.688-3.427c.102-.535.153-.624.637-.663l.382-.025c.051 0 .09-.026.102-.077l.051-.267-.012-.026s-.892.026-1.466.026c-.357 0-.93-.026-.93-.026l-.025.026-.064.28c0 .051.013.064.05.064.434.038.396.255.345.56l-3.262 3.16.611-3.032c.102-.523.153-.624.65-.663l.383-.025c.05 0 .089-.026.102-.077l.05-.267-.025-.026s-.892.026-1.453.026m4.623 5.466l.026.026s.866-.026 1.312-.026c.497 0 1.236.026 1.236.026l.025-.026.051-.242c.013-.064-.038-.09-.089-.102-.267-.038-.637-.115-.548-.535l.357-1.784c.943.064 1.134.522 1.236 1.223.077.56.293 1.44.93 1.453l.918.013.038-.026.05-.23c.014-.088-.076-.114-.127-.114l-.089-.013c-.446-.063-.752-1.172-.853-1.656-.14-.624-.548-.905-1.236-.905l.012-.05c.497-.14.88-.574 1.173-1.084.216-.395.51-.675.637-.675a.42.42 0 01.267.089.491.491 0 00.332.115c.267 0 .535-.23.586-.485.05-.305-.026-.573-.548-.573-.612 0-1.16.688-1.517 1.287-.42.7-.866 1.185-1.72 1.185l.293-1.453c.09-.458.37-.522.74-.56.05 0 .114-.064.127-.128l.05-.216-.025-.026s-.713.026-1.21.026c-.446 0-1.313-.026-1.313-.026l-.025.026-.051.242c-.013.064.025.09.076.102l.242.025c.395.039.497.204.421.56l-.726 3.632c-.064.357-.179.485-.637.536l-.255.025c-.064.013-.102.038-.115.102l-.05.242m5.633-.586c-.076.395.191.739.752.739.612 0 1.02-.319 1.44-1.02.357-.611.688-1.91.854-2.777.204-.994.305-1.325.79-1.325h.573c.459 0 .472.178.382.611l-.675 3.415c-.076.37-.204.523-.663.574l-.254.025c-.064.013-.102.038-.115.102l-.051.242.025.026s.867-.026 1.326-.026c.497 0 1.363.026 1.363.026l.025-.026.051-.242c.013-.064-.038-.102-.089-.102l-.23-.025c-.407-.039-.509-.204-.432-.574l.713-3.555c.09-.484.14-.56.637-.599l.357-.025c.077 0 .115-.026.128-.09l.05-.254-.038-.026s-.866.026-1.414.026h-2.217c-.51 0-1.313-.026-1.313-.026l-.038.026-.038.204c-.026.114.025.127.23.14.713.05.713.23.445 1.567-.267 1.338-.51 2.039-.777 2.561-.255.459-.484.625-.688.625-.153 0-.191-.102-.179-.268.013-.23 0-.484-.344-.484-.305 0-.522.255-.586.535m7.08-2.026c-.255 1.3.33 2.74 2.127 2.74 1.899 0 3.02-1.58 3.275-2.855.268-1.325-.127-2.867-2.102-2.867-1.72 0-2.982 1.364-3.3 2.982m3.07-2.561c1.096 0 1.53.981 1.147 2.854-.331 1.682-1.172 2.026-1.771 2.026-1.325 0-1.491-1.63-1.287-2.612.217-1.109.84-2.268 1.911-2.268m4.352.7l-.7 3.505c-.09.446-.192.573-.638.599l-.395.025c-.051.013-.076.026-.09.064l-.05.28.025.026s.867-.026 1.427-.026c.536 0 1.39.026 1.39.026l.012-.026.051-.267c.013-.051-.013-.064-.051-.077l-.331-.025c-.433-.026-.484-.115-.395-.6l.7-3.503c.09-.446.357-.497.625-.497h1.542c.255 0 .522.025.42.497l-.7 3.504c-.09.446-.192.573-.638.599l-.356.025c-.039.013-.064.026-.077.064l-.05.28.012.026s.854-.026 1.401-.026c.548 0 1.428.026 1.428.026l.012-.026.051-.267c.013-.051-.012-.064-.063-.077l-.37-.025c-.446-.026-.497-.115-.408-.6l.701-3.516c.115-.523.153-.573.65-.612l.382-.025c.051 0 .09-.026.102-.077l.051-.267-.013-.026s-.891.026-1.465.026h-3.53c-.547 0-1.401-.026-1.401-.026l-.026.026-.063.28c0 .051.012.064.05.064l.383.025c.433.039.51.09.395.625m7.047.879c.535-1.44 1.453-1.555 1.759-1.555.484 0 1.006.268.79 1.338-.026.115-.09.179-.23.179l-2.319.038m2.867 2.408c-.573.484-.981.688-1.72.688-.459 0-.943-.267-1.21-.917-.166-.42-.204-1.007-.051-1.746l3.376.026c.153 0 .255-.077.293-.217.204-1.07.051-2.217-1.72-2.217-1.109 0-2.752 1.057-3.147 2.994-.14.714-.102 1.402.23 1.886.33.51.866.816 1.783.816.968 0 1.746-.446 2.383-1.109-.013-.127-.077-.191-.217-.204m.317 2.816l.331.013c.204-.472.765-1.644 1.835-1.644h2.065c1.057 0 1.197 1.121 1.197 1.631h.319l.267-1.707c.039-.179-.038-.217-.267-.268-.204-.038-.472-.153-.382-.624l.713-3.53c.077-.433.23-.535.701-.599l.217-.025c.038 0 .102-.038.114-.09l.051-.254-.012-.026s-.93.026-1.351.026h-2.421c-.217 0-1.21-.026-1.21-.026l-.039.026-.063.28c0 .051.025.064.076.064l.344.025c.433.039.459.293.433.446-.306 1.517-.777 2.676-1.223 3.76-.14.343-.522.509-.866.547-.179.026-.344.051-.408.28l-.42 1.695m2.076-2.28c.051-.217.535-1.097 1.3-4.002.013-.05.127-.331.42-.331h.905c.472 0 .472.191.382.624l-.637 3.237c-.089.42-.165.624-.637.624h-1.516c-.128 0-.242-.013-.217-.153m7.13-4.816c-.549 0-1.39-.026-1.39-.026l-.038.026-.064.28c0 .051.013.064.064.064l.382.025c.46.039.485.14.37.676l-.688 3.44c-.09.446-.153.586-.625.612l-.407.025c-.039.013-.064.026-.077.064l-.05.28.012.026c.51-.013.866-.026 1.414-.026.408 0 .523.013 1.032.026l.013-.026.051-.267c.013-.051-.013-.064-.064-.077-.42-.038-.433-.178-.37-.484V7.39l3.263-3.16-.599 3.007c-.09.446-.178.612-.65.638l-.408.025c-.038.013-.063.026-.076.064l-.051.28.025.026c.51-.013.854-.026 1.402-.026.573 0 .956.013 1.465.026l.013-.026.051-.267c.013-.051-.013-.064-.064-.077l-.37-.025c-.445-.026-.483-.166-.381-.638l.688-3.427c.102-.535.153-.624.637-.663l.382-.025c.051 0 .09-.026.102-.077l.051-.267-.013-.026s-.892.026-1.465.026c-.357 0-.93-.026-.93-.026l-.026.026-.063.28c0 .051.012.064.05.064.434.038.396.255.345.56l-3.262 3.16.611-3.032c.102-.523.153-.624.65-.663l.382-.025c.051 0 .09-.026.102-.077l.051-.267-.025-.026s-.892.026-1.453.026m4.394 5.466l.038.026.802-.013c.408-.013.93-.523 1.287-1.147.472-.828.93-1.363 1.44-1.363h.319l-.306 1.516c-.09.497-.14.599-.56.624l-.205.013c-.05 0-.076.038-.089.09l-.05.28s.726-.026 1.184-.026c.446 0 1.16.026 1.16.026l.05-.255c0-.026-.012-.115-.114-.115l-.267-.013c-.204-.012-.217-.293-.153-.624l.751-3.733c.051-.268.166-.37.395-.383l.319-.025c.026 0 .051-.013.051-.038l.064-.306-.026-.026s-.675.026-1.108.026c-.408 0-.077-.026-1.045-.026-2.18 0-2.523 1.173-2.6 1.542-.178.905.663 1.35 1.364 1.35l-.013.039c-.37.064-.854.37-1.172.892-.293.471-.867 1.274-1.21 1.312l-.115.013c-.051 0-.128.013-.14.102l-.051.242m2.319-4.09c.127-.599.407-1.032 1.503-1.032.497 0 .586.05.497.459l-.344 1.732h-.854c-.726 0-.93-.522-.802-1.16" font-family="Sans" font-size="13" font-weight="400" letter-spacing="-.2" word-spacing="-1" style="-inkscape-font-specification:Sans"/>
</svg>
