<?xml version="1.0" encoding="UTF-8" standalone="no"?>
<svg xmlns="http://www.w3.org/2000/svg" width="98" height="12" viewBox="0 0 98 12">
	<path d="M94.545 9.023c.496 0 1.094-.255 1.718-.764.063-.051.179-.076.191.013.026.331.14.751.14.751.102.039.153.039.242 0 .28-.229.726-.42 1.502-.509.076-.076.076-.267 0-.344-.814-.063-.929-.305-.929-.93V4.798c0-.382.051-1.311.051-1.311 0-.04-.039-.076-.102-.076a3.127 3.127 0 01-.445.025c-.408 0-.866-.012-1.299-.025-.076.076-.076.343 0 .42.624.039.79.19.79 1.03v2.458c0 .242-.026.343-.204.496-.471.408-.955.611-1.273.611-.382 0-1.019-.178-1.019-1.311V4.797c0-.382.052-1.311.052-1.311 0-.039-.04-.076-.102-.076a3.127 3.127 0 01-.446.026c-.407 0-.865-.013-1.298-.026-.076.076-.076.344 0 .42.61.05.789.191.789 1.019v2.444c0 .878.382 1.731 1.642 1.731zm-5.067-3.68c0 1.185-.598 1.427-1.07 1.427-1.069 0-1.183-.904-1.183-1.719 0-.891.318-1.35 1.018-1.35.802 0 1.235.586 1.235 1.643zm-2.38 3.68c.14.039.343.063.509.063.394 0 .75-.039.929-.039.637 0 1.171.013 1.54.217.497.28.65.458.65.789 0 .917-1.35 1.4-2.496 1.4-.458 0-1.527-.369-1.527-1.235 0-.432.026-.75.394-1.196zm3.971-5.054a.499.499 0 00.471-.484c0-.267-.242-.47-.585-.47-.331 0-.942.216-1.273.648-.153-.101-.573-.356-1.324-.356-1.133 0-2.177.764-2.177 1.935 0 .687.305 1.082.662 1.426-.357.305-.56.853-.56 1.286 0 .458.254.814.585.98-.687.407-1.044.993-1.044 1.54 0 1.108 1.044 1.451 2.024 1.451 1.719 0 3.578-.827 3.578-2.202 0-.407-.191-.726-.56-1.031-.497-.407-1.388-.42-1.86-.42a7.76 7.76 0 00-.852.063c-.191.013-.318.026-.382.026-.37 0-.815-.178-.815-.726 0-.254.076-.522.23-.738.305.178.661.267 1.158.267 1.12 0 2.151-.7 2.151-1.947 0-.599-.178-.943-.547-1.324.089-.128.344-.306.51-.306.088 0 .177.039.254.153.05.102.216.229.356.229zm-9.652 5.054c.496 0 1.094-.255 1.718-.764.063-.051.178-.076.191.013.026.331.14.751.14.751.102.039.153.039.242 0 .28-.229.726-.42 1.502-.509.076-.076.076-.267 0-.344-.815-.063-.93-.305-.93-.93V4.798c0-.382.052-1.311.052-1.311 0-.04-.039-.076-.102-.076a3.127 3.127 0 01-.446.025c-.407 0-.865-.012-1.298-.025-.076.076-.076.343 0 .42.624.039.79.19.79 1.03v2.458c0 .242-.027.343-.204.496-.471.408-.955.611-1.273.611-.382 0-1.019-.178-1.019-1.311V4.797c0-.382.051-1.311.051-1.311 0-.039-.038-.076-.102-.076a3.133 3.133 0 01-.445.026c-.408 0-.866-.013-1.299-.026-.076.076-.076.344 0 .42.611.05.79.191.79 1.019v2.444c0 .878.381 1.731 1.642 1.731zm-7.475-3.756c0-.28.115-.432.217-.547.484-.471 1.12-.751 1.63-.751.254 0 .521.178.674.458.127.255.153.599.153.98v1.936c0 1.043-.127 1.094-.79 1.158-.063.076-.063.344 0 .42.357-.013.79-.026 1.3-.026.508 0 .928.013 1.348.026.064-.076.064-.344 0-.42-.712-.063-.852-.115-.852-1.158V5.446c0-.7-.051-1.311-.344-1.706-.217-.28-.611-.433-1.057-.433-.636 0-1.387.165-2.164 1.031-.05.051-.127.178-.127 0l.013-2.864c0-.828.05-1.337.05-1.337 0-.089-.05-.127-.165-.127-.318.127-1.273.305-1.782.344-.026.101 0 .305.076.381.662.04.815-.025.815 1.044v5.564c0 1.056-.153 1.107-.891 1.158-.077.076-.077.344 0 .42a33 33 0 012.648 0c.076-.076.076-.344 0-.42-.637-.051-.751-.102-.751-1.158zm-6.093 5.665c.191-.343.357-.713.522-1.094 1.019-2.457 1.579-3.756 2.254-5.194.242-.535.433-.739 1.03-.815.077-.076.077-.344 0-.42-.254.013-.546.026-.903.026-.382 0-.776-.013-1.158-.026-.077.076-.077.344 0 .42.394.039.814.115.61.573l-1.272 2.915c-.09.216-.191.242-.306-.013l-1.12-2.648c-.23-.534-.293-.764.42-.827.076-.076.076-.344 0-.42-.471.012-.98.025-1.439.025-.432 0-.776-.012-1.03-.025-.077.076-.077.343 0 .42.496.063.661.178.992.955L67.9 8.132c.102.267.306.84.179 1.196a10.75 10.75 0 01-.497 1.171c-.14.255-.318.37-.636.37-.179 0-.23-.04-.37-.04-.369 0-.56.383-.56.548 0 .268.255.471.599.471.267 0 .776-.102 1.234-.916zM63.164 5.93v1.68c0 .166-.076.255-.178.332-.33.267-.764.56-1.12.56-.637 0-.917-.51-.917-.904 0-.573.268-1.158 1.21-1.4zm0 2.356c.077.394.204.738.853.738a1.83 1.83 0 001.21-.471c-.026-.153-.077-.255-.217-.344-.102.09-.318.204-.47.204-.37 0-.383-.497-.383-1.082V5.458c0-1.807-.993-2.151-1.922-2.151-1.044 0-2.1.687-2.1 1.413 0 .305.152.458.445.458.37 0 .598-.267.598-.433a.574.574 0 00-.038-.229.883.883 0 01-.025-.254c0-.395.535-.535 1.018-.535.433 0 1.031.216 1.031 1.655 0 .089-.038.14-.076.153l-1.095.267c-1.222.306-2.1.98-2.1 1.846 0 1.044.713 1.375 1.604 1.375.433 0 .827-.102 1.387-.535l.255-.204zm-6.213-3.947c-.026-.51-.051-.827-.102-.967-.038-.052-.051-.102-.153-.102-.356.14-.687.254-1.566.369-.025.076 0 .28.026.356.687.064.827.128.827.866v2.482c0 1.057-.152 1.108-.942 1.159-.076.076-.076.344 0 .42a49.99 49.99 0 011.452-.026c.509 0 1.094.013 1.54.026.076-.076.076-.344 0-.42-.891-.063-1.044-.102-1.044-1.159v-1.77c0-.33.153-.623.306-.852.14-.204.432-.624.585-.624.115 0 .23.039.318.166.102.127.242.293.471.293.306 0 .599-.319.599-.637 0-.242-.23-.611-.764-.611-.598 0-1.12.56-1.413 1.056-.076.14-.14.04-.14-.025zm-6.208 6.594c.191-.343.357-.713.522-1.094 1.019-2.457 1.579-3.756 2.253-5.194.242-.535.433-.739 1.032-.815.076-.076.076-.344 0-.42-.255.013-.548.026-.904.026-.382 0-.777-.013-1.159-.026-.076.076-.076.344 0 .42.395.039.815.115.611.573l-1.273 2.915c-.089.216-.19.242-.305-.013L50.4 4.656c-.23-.534-.293-.764.42-.827.076-.076.076-.344 0-.42-.471.012-.98.025-1.439.025-.433 0-.776-.012-1.031-.025-.076.076-.076.343 0 .42.496.063.662.178.993.955l1.451 3.348c.102.267.306.84.178 1.196-.152.433-.305.777-.496 1.171-.14.255-.318.37-.637.37-.178 0-.229-.04-.369-.04-.369 0-.56.383-.56.548 0 .268.255.471.598.471.268 0 .777-.102 1.235-.916zM46.058 5.93v1.68c0 .166-.076.255-.178.332-.331.267-.764.56-1.12.56-.637 0-.917-.51-.917-.904 0-.573.267-1.158 1.21-1.4zm0 2.356c.076.394.204.738.853.738a1.83 1.83 0 001.21-.471c-.026-.153-.077-.255-.217-.344-.102.09-.318.204-.471.204-.37 0-.382-.497-.382-1.082V5.458c0-1.807-.993-2.151-1.922-2.151-1.044 0-2.1.687-2.1 1.413 0 .305.152.458.445.458.369 0 .598-.267.598-.433a.574.574 0 00-.038-.229.882.882 0 01-.026-.254c0-.395.535-.535 1.019-.535.433 0 1.031.216 1.031 1.655 0 .089-.038.14-.076.153l-1.095.267c-1.222.306-2.1.98-2.1 1.846 0 1.044.712 1.375 1.603 1.375.433 0 .828-.102 1.388-.535l.255-.204zm-7.776-4.02a1.601 1.601 0 011.082-.408c.777 0 1.413.942 1.413 2.177 0 1.451-.585 2.546-1.795 2.546-.394 0-.662-.28-.916-.598V4.799c0-.267.05-.382.216-.534zm-.09-.395c-.088.076-.126.05-.126-.063V1.464c0-.827.05-1.336.05-1.336 0-.09-.05-.128-.165-.128-.318.128-1.273.306-1.782.344-.026.102 0 .306.076.382.662.039.815-.026.815 1.044v6.212c0 .497-.013.726-.051.904.064.102.127.153.28.153.076-.063.204-.191.293-.306.14-.152.216-.152.356-.026.28.242.662.306 1.12.306 1.3 0 2.814-1.184 2.814-3.208 0-1.553-1.146-2.508-2.253-2.508-.548 0-1.032.217-1.426.573zm-7.455 3.463c0 1.056-.14 1.12-.917 1.158-.076.076-.076.344 0 .42.446-.013.917-.026 1.426-.026.51 0 .993.013 1.413.026.077-.076.077-.344 0-.42-.776-.039-.916-.102-.916-1.158v-5.87c0-.827.05-1.336.05-1.336 0-.089-.05-.127-.165-.127-.318.127-1.273.306-1.782.344-.025.101 0 .305.076.382.739.05.815.089.815 1.043zM27.44 5.919V7.6c0 .166-.076.255-.178.332-.33.267-.764.56-1.12.56-.637 0-.917-.51-.917-.904 0-.573.268-1.158 1.21-1.4zm0 2.356c.077.394.204.738.853.738a1.83 1.83 0 001.21-.471c-.026-.153-.077-.255-.217-.344-.101.09-.318.204-.47.204-.37 0-.383-.497-.383-1.082V5.448c0-1.807-.993-2.151-1.922-2.151-1.044 0-2.1.687-2.1 1.413 0 .306.152.458.445.458.37 0 .599-.267.599-.432a.574.574 0 00-.039-.23.883.883 0 01-.025-.254c0-.395.535-.535 1.018-.535.433 0 1.032.216 1.032 1.655 0 .089-.039.14-.077.153l-1.095.267c-1.222.306-2.1.98-2.1 1.846 0 1.044.713 1.375 1.604 1.375.433 0 .827-.102 1.388-.535l.254-.203zm-7.21-4.85c-.178 0-.23.152-.23.254v.165c0 .064.014.076.065.076h.75v3.832c0 .904.395 1.26.98 1.26.586 0 1.223-.28 1.72-.84-.026-.127-.102-.203-.23-.216a1.724 1.724 0 01-1.044.356c-.343 0-.42-.381-.42-1.17v-3.23h1.324c.127 0 .306-.051.306-.166V3.49c0-.05-.038-.076-.102-.076H21.82V2.92c0-.828.051-1.337.051-1.337 0-.076-.038-.102-.102-.102-.063 0-.165.051-.28.115-.152.076-.28.127-.433.178-.152.039-.28.089-.28.165 0 .153.039.064.039 1.477zm-4.515 7.497c.191-.343.357-.712.522-1.094 1.019-2.457 1.579-3.756 2.254-5.194.242-.535.433-.739 1.03-.815.077-.076.077-.344 0-.42-.254.013-.547.026-.903.026-.382 0-.776-.013-1.158-.026-.077.076-.077.344 0 .42.394.039.814.115.61.573l-1.272 2.915c-.09.217-.191.242-.306-.013l-1.12-2.648c-.23-.534-.293-.764.42-.827.076-.076.076-.344 0-.42-.471.013-.98.026-1.439.026a19.9 19.9 0 01-1.03-.026c-.077.076-.077.343 0 .42.496.063.661.178.992.955l1.451 3.348c.102.267.306.84.179 1.196a10.85 10.85 0 01-.497 1.172c-.14.254-.318.369-.636.369-.179 0-.23-.04-.37-.04-.369 0-.56.383-.56.548 0 .268.255.471.599.471.267 0 .776-.102 1.234-.916zM11.03 5.92V7.6c0 .166-.076.255-.178.332-.33.267-.764.56-1.12.56-.637 0-.917-.51-.917-.904 0-.573.268-1.158 1.21-1.4zm0 2.356c.077.394.204.738.853.738a1.83 1.83 0 001.21-.471c-.026-.153-.077-.255-.217-.344-.102.09-.318.204-.47.204-.37 0-.383-.497-.383-1.082V5.448c0-1.807-.993-2.151-1.922-2.151-1.044 0-2.1.687-2.1 1.413 0 .306.152.458.445.458.37 0 .598-.267.598-.432a.574.574 0 00-.038-.23.883.883 0 01-.025-.254c0-.395.535-.535 1.018-.535.433 0 1.031.216 1.031 1.655 0 .089-.038.14-.076.153l-1.095.267c-1.222.306-2.1.98-2.1 1.846 0 1.044.713 1.375 1.604 1.375.433 0 .827-.102 1.387-.535l.255-.203zM2.247 1.884c0-.675 0-.802 1.107-.802.713 0 1.643.382 1.643 1.68 0 1.082-.752 1.464-1.808 1.464h-.942zm0 2.775h.878c1.744 0 2.47.98 2.47 2.126 0 .93-.356 1.706-2.292 1.706-.89 0-1.056-.33-1.056-1.108zM1.699.674A78.63 78.63 0 01.057.65c-.076.076-.076.343 0 .42.891.038 1.108.102 1.108 1.158v5.105c0 1.057-.217 1.12-1.108 1.158-.076.076-.076.344 0 .42a71.907 71.907 0 011.655-.025c.446 0 .79.025 1.859.025 2.533 0 3.208-1.272 3.208-2.367 0-1.222-.853-1.923-1.96-2.24v-.027c.636-.318 1.209-.967 1.209-1.667 0-.853-.37-1.96-2.737-1.96-.446 0-1.133.025-1.592.025z"/>
</svg>
