<?xml version="1.0" encoding="UTF-8" standalone="no"?>
<svg xmlns="http://www.w3.org/2000/svg" width="107" height="11" viewBox="0 0 107 11">
	<path d="M4.78.379c2.564 0 3.846.71 3.846 2.133 0 .437-.064.782-.193 1.034C8 4.43 6.703 4.871 4.54 4.871c-1.411 0-2.41-.31-2.993-.933-.334-.345-.501-.783-.501-1.313 0-1.295.952-2.032 2.856-2.208A9.54 9.54 0 014.78.379m-.25.833c-1.108 0-1.882.219-2.322.656a1.08 1.08 0 00-.33.795c0 .74.648 1.186 1.946 1.338.273.033.554.05.842.05 2.086 0 3.13-.47 3.13-1.413 0-.816-.653-1.283-1.958-1.401a6.315 6.315 0 00-.58-.025h-.729M0 6.032h9.684v.82h-4.45v4.405H4.45V6.853H0v-.82M11.642 1.2h4.825v3.91H12.45v2.714c1.661 0 3.046-.097 4.154-.29l1.251-.228h.092l.068.732a.24.24 0 01-.012.088l-1.252.253c-1.244.252-2.947.378-5.11.378v-4.48h4.04V2.02h-4.04V1.2M19.313 0h.728c.107 0 .16.042.16.126l-.08.366v10.765h-.808V0m8.167 1.149h7.102v4.846H27.48V1.149m6.294.82h-5.497v3.205h5.497V1.97m-3.141 4.694h.728c.099 0 .148.043.148.127l-.091.39v1.906h4.45v.82h-9.685v-.82h4.45V6.663M38.838.442h7.317v.833h-6.52v2.448h6.52v.833h-7.317V.442m-1.275 5.59h9.685v.82h-4.45v4.405h-.785V6.853h-4.45v-.82M52.448.77c.759 0 1.385.273 1.878.82.41.455.615 1.006.615 1.654 0 1.194-.43 2.014-1.286 2.46-.395.202-.858.303-1.389.303-.918 0-1.616-.34-2.094-1.022-.333-.471-.5-1.047-.5-1.729 0-.715.28-1.325.842-1.83a2.332 2.332 0 011.24-.605c.213-.034.444-.051.694-.051m-.318.82c-.258 0-.539.089-.842.265-.524.32-.786.82-.786 1.502 0 .656.243 1.161.729 1.514.288.21.618.316.99.316 1.047 0 1.657-.467 1.832-1.4.03-.16.045-.337.045-.53 0-.809-.39-1.326-1.172-1.553a2.664 2.664 0 00-.796-.114M56.875 0h.751c.099 0 .148.038.148.114l-.09.366v10.777h-.809V0M48.83 7.938c.152-.017.596-.059 1.332-.126l6.043-.518v.846c-.713.05-2.841.257-6.384.618-.03 0-.186.06-.467.177a.44.44 0 01-.114.025c-.144 0-.273-.294-.387-.883a.922.922 0 00-.023-.139M64.042.631h.751c.099 0 .148.042.148.126l-.102.379v1.35h2.674V.631h.774c.068 0 .102.038.102.114l-.068.391v4.909h-4.279V.631m3.471 2.676H64.84v1.918h2.674V3.307m-2.48 4.101H72.6v3.95h-.808V8.241h-6.76v-.833M71.792 0h.762c.076 0 .114.034.114.101L72.6.505v6.259h-.808V4.215h-1.48v2.55h-.796V.251h.74c.098 0 .148.043.148.127l-.091.366v2.65h1.479V0m3.721 1.2h5.724v.996c0 1.65-.136 3.067-.41 4.253l-.784-.126a25.06 25.06 0 00.386-4.304h-4.916V1.2m7.17-1.2h.728c.084 0 .133.03.148.089-.06.269-.091.416-.091.441v4.695h1.912v.82h-1.912v5.212h-.785V0m-5.474 4.102h.751c.076 0 .114.033.114.1l-.08.417v.013l.012 3.016 4.04-.379v.846c-1.73.16-3.407.324-5.03.492-.66.067-1.135.113-1.423.139-.015 0-.095.05-.239.151a.33.33 0 01-.148.05c-.053 0-.106-.041-.16-.126l-.204-.933c1.085-.068 1.874-.122 2.367-.165V4.102M88.874.921h.591c.13-.025.216-.012.262.038.015.026.023.05.023.076l-.069.631v.013c0 1.447.126 2.553.376 3.319.266.799.736 1.569 1.411 2.31.47.52.751.824.842.908.038.033.072.063.103.088-.084.135-.27.34-.558.618l-.068.063a7.65 7.65 0 01-.41-.39 9.465 9.465 0 01-1.593-2.234c-.144-.286-.33-.695-.558-1.225a10.575 10.575 0 01-1.855 3.231l-.25.278c-.16.176-.262.277-.307.303l-.74-.53c.023-.034.16-.181.41-.442l.045-.05c.288-.295.577-.653.865-1.073.744-1.06 1.199-2.196 1.366-3.408.076-.589.113-1.43.113-2.524m5.19-.92h.728c.084 0 .133.029.148.087-.06.27-.09.417-.09.442v4.367h1.91v.82h-1.91v5.54h-.786V0m4.165.947h5.827v.833h-2.47c0 1.766.626 3.12 1.878 4.063.432.337.736.551.91.644-.076.143-.27.357-.58.643l-.057.05c-1.115-.672-1.973-1.724-2.572-3.154-.212.572-.706 1.279-1.48 2.12-.5.547-.925.926-1.274 1.136a17.906 17.906 0 00-.66-.631v-.025c1.92-1.178 2.917-2.705 2.993-4.581.008-.085.011-.173.011-.265h-2.526V.947m1.309 6.751h.773c.061 0 .095.021.103.063a4.01 4.01 0 00-.091.467v1.931h6.68v.82h-7.465V7.7m6.281-7.7h.763c.09 0 .136.038.136.114l-.09.404v8.177h-.808v-4.53h-2.197v-.82h2.197V0"/>
</svg>
