<?xml version="1.0" encoding="UTF-8" standalone="no"?>
<svg xmlns="http://www.w3.org/2000/svg" width="79" height="18" viewBox="0 0 79 18">
	<g font-family="Kalimati" font-size="13.249" font-weight="400" letter-spacing=".408" style="line-height:125%;-inkscape-font-specification:Kalimati;text-align:start">
		<path d="M4.296 11.522c-.035.026-.166.039-.395.039-.1 0-.584-.516-1.456-1.547l-.394-.44c-.134-.155-.2-.308-.2-.459 0-.293.187-.44.562-.44.229 0 .548.004.958.013V5.311H.886L0 4.418h9.697l.887.893H8.352v8.384l-1.184-1.183V9.8H4.412c0 .492.004.927.013 1.307.004.207-.039.345-.13.414m2.873-6.21H4.412v3.376h2.756V5.311m.446 10.06l-.763-.796c.479-.37.994-.543 1.546-.517.466.021.859.246 1.178.673.293.396.44.836.44 1.32 0 .577-.24 1.02-.719 1.326-.405.263-.912.394-1.52.394-.862 0-1.785-.42-2.769-1.261a10.498 10.498 0 01-2.044-2.381h.408c.375.643 1.024 1.272 1.947 1.889.97.647 1.807.97 2.51.97 1.16 0 1.74-.336 1.74-1.009 0-.224-.114-.442-.343-.653-.228-.207-.455-.31-.679-.31-.367 0-.677.118-.932.355"/>
		<path d="M17.648 8.442v5.24l-1.074-1.08V8.358h-2.121c-.535 0-.958.134-1.268.401-.337.285-.505.69-.505 1.217 0 .711.259 1.39.776 2.037l1.462 1.683h-.427a9.416 9.416 0 01-1.915-1.792c-.664-.833-.996-1.605-.996-2.316 0-.436.186-.846.557-1.23h-.99l-1.061-1.074h6.488V5.311h-6.508l-.892-.892h14.433l.886.892h-6.845v2.096c.276-.013.583-.017.919-.013.354.004.791.026 1.313.065.69.155 1.223.43 1.598.822.51.535.764 1.147.764 1.837 0 .565-.201 1.203-.602 1.915-.194.34-.548.888-1.061 1.643l-.951-.925c.323-.241.753-.604 1.287-1.087.53-.595.796-1.166.796-1.714 0-.453-.179-.835-.537-1.145-.345-.298-.908-.466-1.688-.505-.358-.017-.97.03-1.838.142m20.987-3.131h-7.213l-.893-.892h7.213l.893.892m-.906 2.556h-3.195c.198.073.528.289.99.647.521.4.836.72.944.957.082.177.123.38.123.608 0 .44-.173.841-.518 1.203-.345.363-.737.576-1.177.64l.673 1.625-.395.407-.783-1.876a1.981 1.981 0 01-.582.078c-.38 0-.703-.108-.97-.324a1.11 1.11 0 01-.434-.905c0-.643.309-.97.925-.984.306-.009.567.097.783.317.16.164.265.352.317.563.25 0 .468-.1.653-.297a.949.949 0 00.285-.673c0-.432-.127-.727-.382-.887l-2.49-1.578V6.87h5.233v.997m0-2.556h-.705l-.88-.893h4.083l.886.893h-2.174v8.384l-1.21-1.21V5.312"/>
		<path d="M41.999 5.312h-.964l-.892-.893h4.243l.887.892H43.06v8.385L42 12.622v-7.31"/>
		<path d="M45.803 9.238c-.302-.38-.453-.7-.453-.964 0-.453.175-.703.524-.75h4.096V5.31h-5.596l-.887-.892h8.83l.887.892h-2.2v8.385l-1.034-1.023V8.54h-2.724v1.45c-.026.245-.1.396-.22.452a.636.636 0 01-.46-.245l-.763-.958"/>
		<path d="M52.7 5.311l-.887-.892h12.091l.887.892h-5.984v2.491c.13-.116.224-.196.284-.24.147-.107.291-.18.434-.22.293-.081.567-.122.821-.122.66 0 1.206.23 1.637.692.431.457.647 1.02.647 1.688 0 .535-.19 1.04-.57 1.514-.284.367-.73.673-1.338.919l-.473-.919c.613-.284 1.022-.509 1.23-.673.457-.358.685-.75.685-1.177 0-.384-.179-.731-.537-1.042-.228-.194-.584-.267-1.067-.22-.229.022-.51.173-.841.453a5.243 5.243 0 00-.912 1.016v4.225l-1.074-1.087v-1.883c-.186.207-.46.386-.822.537-.362.147-.688.22-.977.22-.625 0-1.16-.213-1.604-.64a2.113 2.113 0 01-.66-1.579c0-.638.21-1.164.628-1.578.418-.419.946-.628 1.585-.628.81 0 1.427.345 1.85 1.035v.395a1.913 1.913 0 00-1.307-.505c-.63 0-1.117.123-1.462.369-.475.336-.733.785-.776 1.345-.026.354.07.639.29.854.182.173.432.26.751.26.457 0 .981-.234 1.572-.7.621-.491.932-.961.932-1.41v-3.39H52.7"/>
		<path d="M65.302 5.312h-.964l-.893-.893h4.244l.886.892h-2.212v8.385l-1.061-1.074v-7.31m.731-.894c-.34-.527-.615-.928-.822-1.204-.858-1.151-1.354-1.8-1.488-1.947C62.96.423 62.261 0 61.627 0c-.457 0-.99.09-1.598.272l1.178 1.197c.41-.06.707-.091.893-.091.6 0 1.28.37 2.044 1.113a8.5 8.5 0 011.5 1.928h.389"/>
		<path d="M67.702 5.311l-.886-.892h2.277c-.272.293-.46.59-.563.892h-.828m4.043 2.62c-.327.268-.774.401-1.339.401a1.604 1.604 0 01-1.17-.666c-.281-.366-.421-.8-.421-1.3 0-.535.15-1.003.453-1.404.327-.44.75-.664 1.268-.673.694-.009 1.313.481 1.856 1.469.216.396.335.892.356 1.488 0 .047-.009.213-.026.498-.082 1.212-.617 2.219-1.604 3.02l1.734 2.705-.285.227-1.896-2.743c-.276.133-.586.163-.931.09-.712-.155-1.068-.48-1.068-.977 0-.53.22-.843.66-.938.371 0 .533-.004.486-.013.185.026.373.134.562.324.04.039.102.127.188.265.09.138.136.224.136.259.694-.324 1.041-1 1.041-2.032m-1.339-3.15c-.453.009-.679.384-.679 1.126 0 .327.062.653.188.976.228.596.616.893 1.164.893.354-.073.53-.4.53-.983 0-.5-.08-.934-.239-1.3-.211-.484-.532-.72-.964-.712m2.239.53a2.858 2.858 0 00-.712-.892h5.725l.9.892h-2.232v8.385l-1.061-1.087V5.31h-2.62"/>
	</g>
</svg>
