<?xml version="1.0" encoding="UTF-8" standalone="no"?>
<svg xmlns="http://www.w3.org/2000/svg" width="116" height="12" viewBox="0 0 116 12">
	<path d="M5.629.676c0-.026-.013-.039-.052-.039a2.67 2.67 0 01-.611.052H1.677C1.17.689.637.676.026.663L0 .689v.26c0 .039.013.091.104.091l.39.026c.494.039.663.182.663.585v6.487c0 .364-.156.52-.663.559l-.39.026c-.078 0-.104.052-.104.091v.26l.026.026c.611-.013 1.144-.026 1.651-.026h2.782c.624 0 1.664.026 1.664.026l.481-2.171-.403-.065c-.26.936-.767 1.703-1.755 1.703H2.678c-.286 0-.468-.078-.468-.429V4.875h1.651c.442 0 .611.117.65.494l.039.325c0 .039.026.104.091.104h.286l.052-.039c-.039-.52-.052-.871-.052-1.131s.013-.65.052-1.17l-.052-.052h-.286c-.052 0-.091.052-.091.104l-.039.325c-.039.364-.195.546-.65.546H2.21v-2.73c0-.312.156-.442.468-.442h1.365c.975 0 1.209.52 1.495 1.417l.377-.065A45.635 45.635 0 005.629.676m4.308 2.691c0-.026-.026-.039-.052-.039-.364.143-.884.26-1.794.403l.026.312.559.052c.182.026.286.156.286.806v3.237c0 .377-.13.52-.56.559l-.246.026c-.065.013-.104.039-.104.104v.247l.026.026c.52-.013.845-.026 1.352-.026.533 0 .806.013 1.326.026l.026-.026v-.247c0-.065-.04-.091-.104-.104l-.182-.026c-.43-.065-.56-.182-.56-.559V4.992c.664-.78 1.158-1.001 1.73-1.001.689 0 .845.429.845 1.339v2.808c0 .377-.143.494-.56.559l-.181.026c-.065.013-.104.039-.104.104v.247l.026.026c.52-.013.78-.026 1.287-.026.533 0 .87.013 1.39.026l.027-.026v-.247c0-.065-.052-.091-.117-.104l-.247-.026c-.403-.039-.546-.182-.546-.559V5.421c0-1.157-.26-2.054-1.43-2.054-.663 0-1.287.182-2.12 1.157h-.038l.039-1.157m7.578.637h1.222c.13 0 .312-.052.312-.169v-.26c0-.052-.039-.078-.104-.078h-1.43V1.482l-.754.26v.247c0 .988-.208 1.508-1.079 1.508-.026 0-.039.013-.039.052v.403c0 .039.013.052.052.052h.845v3.913c0 .923.351 1.287.95 1.287.597 0 1.117-.286 1.624-.858-.026-.13-.104-.208-.234-.221-.338.26-.598.364-.936.364-.35 0-.429-.39-.429-1.196V4.004m3.371-.676c-.026 0-.052.013-.052.039-.013.585-.091 1.118-.195 1.755l.338.039c.26-.949.702-1.222 1.092-1.222h1.794l-3.198 4.719c-.104.156-.117.195-.117.26 0 .091.104.156.299.156h4.004c.065-.403.195-1.014.416-1.768l-.338-.091-.169.377c-.312.689-.533 1.04-1.287 1.04h-1.729l3.12-4.589c.221-.338.286-.494.286-.546 0-.052-.065-.091-.156-.091-.065 0-.481.091-.858.091h-2.639c-.416 0-.39-.13-.611-.169m6.559-1.664c0 .338.286.624.624.624a.633.633 0 00.624-.624.633.633 0 00-.624-.624.633.633 0 00-.624.624m1.222 1.703c0-.026-.026-.039-.052-.039-.364.143-.91.26-1.833.403l.026.312.56.052c.181.026.285.156.285.806v3.237c0 .377-.117.507-.559.559l-.247.026c-.065.013-.104.039-.104.104v.247l.026.026c.52-.013.884-.026 1.352-.026.494 0 .871.013 1.391.026l.026-.026v-.247c0-.065-.052-.091-.117-.104l-.247-.026c-.403-.039-.546-.182-.546-.559V4.901c0-.65.04-1.534.04-1.534m3.082-1.612v6.383c0 .377-.13.52-.56.559l-.246.026c-.065.013-.091.039-.091.104v.247l.026.026c.65-.013.832-.026 1.339-.026.533 0 .663.013 1.17.026l.026-.026v-.247a.103.103 0 00-.104-.104c-.338-.039-.585-.091-.585-.585v-1.82c.325 0 .507.091.767.468l.949 1.339c.26.377.299.533.299.702v.247l.039.026c.26-.013.48-.026.87-.026.404 0 .716.013 1.106.026l.026-.026v-.247c0-.065-.026-.091-.117-.104l-.091-.013c-.325-.052-.741-.234-.975-.585l-1.521-2.249a.31.31 0 01-.065-.182c0-.052.013-.091.052-.13l.988-1.092c.325-.338.897-.559 1.248-.611l.09-.013c.066-.013.144-.039.144-.104v-.247l-.052-.026c-.481.013-.663.026-1.131.026-.494 0-.676-.013-1.157-.026 0 .013-.04.026-.04.026v.247c0 .052.04.104.105.104.78.039.312.572.169.715-.702.767-1.365 1.352-1.703 1.43V1.495c0-.845.039-1.365.039-1.365 0-.091-.052-.13-.17-.13-.324.13-1.234.299-1.754.338l.026.312c0 .039.039.065.078.065l.416.026c.26 0 .39.169.39 1.014m7.111 6.383c0 .377-.13.52-.559.559l-.312.026c-.065 0-.09.039-.09.104v.247l.012.026c.65-.013.91-.026 1.417-.026.533 0 .793.013 1.443.026l.026-.026v-.247a.103.103 0 00-.104-.104l-.312-.026c-.429-.039-.546-.182-.546-.559V1.495c0-.845.04-1.365.04-1.365 0-.091-.053-.13-.17-.13-.325.13-1.222.299-1.755.338l.026.312c0 .039.04.065.078.065l.416.026c.26 0 .39.169.39 1.014v6.383m3.41-1.729c0 1.326.923 2.795 2.665 2.795 1.846 0 2.691-1.612 2.691-2.912 0-1.352-.74-2.925-2.665-2.925-1.729 0-2.69 1.261-2.69 3.042m2.547-2.613c1.066 0 1.703 1.001 1.703 2.912 0 1.716-.78 2.067-1.365 2.067-1.287 0-1.78-1.664-1.78-2.665 0-1.131.402-2.314 1.442-2.314m6.096 1.235c.286-.689.91-1.066 1.352-1.066.793 0 1.47.936 1.47 2.405 0 1.066-.352 2.392-1.743 2.392-.208 0-.624-.026-1.079-.559V5.031m-.975-.13v6.266c0 .364-.143.507-.559.546l-.247.026c-.065.013-.104.039-.104.104v.247l.026.026c.481-.013.884-.026 1.352-.026.494 0 .91.013 1.391.026l.026-.026v-.247c0-.065-.052-.091-.117-.104l-.247-.026c-.403-.039-.546-.182-.546-.546V8.918a2.31 2.31 0 001.157.286c.69 0 1.313-.221 1.82-.728.585-.598.91-1.404.91-2.457 0-1.378-.923-2.652-2.184-2.652-.416 0-1.105.13-1.703 1.04h-.039l.04-1.04c0-.026-.027-.039-.053-.039-.377.143-.87.26-1.794.403l.026.312.56.052c.181.026.285.156.285.806m7.756.442c.234-1.469 1.196-1.534 1.495-1.534.468 0 1.079.26 1.079 1.352 0 .117-.052.182-.182.182h-2.392m3.432 2.496c-.455.494-.91.728-1.625.728-.728 0-1.846-.78-1.846-2.717h3.419c.143 0 .234-.078.234-.221 0-1.092-.403-2.262-2.12-2.262-1.234 0-2.573 1.144-2.573 3.12 0 1.495.793 2.717 2.574 2.717.936 0 1.703-.481 2.197-1.157-.04-.13-.117-.195-.26-.208m5.942.013c-.584.468-1.091.741-1.43.741-.701 0-1.416-.767-1.416-2.392 0-.936.169-1.456.364-1.729.403-.611.949-.65 1.209-.65.61 0 .962.273 1.274.767v3.263m.975-6.357c0-.845.039-1.365.039-1.365 0-.091-.052-.13-.17-.13-.324.13-1.221.299-1.754.338l.026.312c0 .039.039.065.078.065l.416.026c.26 0 .39.169.39 1.014v1.898c-.3-.169-.871-.286-1.131-.286-.858 0-1.43.286-1.95.78-.56.559-.871 1.326-.871 2.288 0 1.599.78 2.769 2.184 2.769.52 0 1.17-.416 1.768-.897l.026.013-.026.91h.299c.286-.234.858-.403 1.664-.546l-.04-.299-.623-.065c-.273-.026-.325-.104-.325-.754V1.495m3.034.169c0 .338.286.624.624.624a.633.633 0 00.624-.624.633.633 0 00-.624-.624.633.633 0 00-.624.624m1.222 1.703c0-.026-.026-.039-.052-.039-.364.143-.91.26-1.833.403l.026.312.56.052c.181.026.285.156.285.806v3.237c0 .377-.117.507-.559.559l-.247.026c-.065.013-.104.039-.104.104v.247l.026.026c.52-.013.884-.026 1.352-.026.494 0 .871.013 1.391.026l.026-.026v-.247c0-.065-.052-.091-.117-.104l-.247-.026c-.403-.039-.546-.182-.546-.559V4.901c0-.65.04-1.534.04-1.534m5.721 2.678v1.729c0 .169-.078.26-.182.338-.338.273-.78.559-1.144.559a.932.932 0 01-.962-.923c0-.585.299-1.17 1.26-1.43l1.028-.273m0 2.405c.078.273.286.754.975.754.637 0 1.079-.52 1.079-.585 0-.091-.091-.195-.143-.195-.078 0-.117.208-.43.208-.506 0-.52-.533-.52-1.131V5.564c0-1.846-.961-2.197-1.91-2.197-1.066 0-2.145.741-2.145 1.443 0 .312.156.455.455.455.377 0 .572-.26.572-.429a.584.584 0 00-.04-.234.899.899 0 01-.025-.26c0-.403.585-.585 1.079-.585.442 0 1.053.26 1.053 1.729 0 .091-.04.143-.078.156l-1.118.273c-1.248.312-2.12 1.001-2.12 1.885 0 1.027.703 1.404 1.613 1.404.598 0 .845-.104 1.417-.546l.26-.208h.026M88.74 6.045v1.729c0 .169-.079.26-.183.338-.338.273-.78.559-1.144.559a.932.932 0 01-.962-.923c0-.585.3-1.17 1.261-1.43l1.027-.273m0 2.405c.078.273.286.754.975.754.637 0 1.08-.52 1.08-.585 0-.091-.092-.195-.144-.195-.078 0-.117.208-.429.208-.507 0-.52-.533-.52-1.131V5.564c0-1.846-.962-2.197-1.91-2.197-1.067 0-2.146.741-2.146 1.443 0 .312.156.455.455.455.377 0 .572-.26.572-.429a.584.584 0 00-.039-.234.899.899 0 01-.026-.26c0-.403.585-.585 1.08-.585.441 0 1.052.26 1.052 1.729 0 .091-.039.143-.078.156l-1.118.273c-1.248.312-2.119 1.001-2.119 1.885 0 1.027.702 1.404 1.612 1.404.598 0 .845-.104 1.417-.546l.26-.208h.026m3.441-1.196c.052.637.091 1.274.091 1.82.13-.026.234-.039.3-.039a.8.8 0 01.246.026 4.43 4.43 0 001.17.143c.611 0 1.976-.351 1.976-1.638 0-1.04-.845-1.508-1.898-1.898-.715-.26-.923-.52-.923-1.04 0-.715.533-.871 1.027-.871.273 0 .95.208 1.222 1.274l.351-.013c-.026-.468-.065-.91-.143-1.326-.403-.208-.78-.325-1.43-.325-1.027 0-1.82.585-1.82 1.456 0 .975.455 1.248 1.404 1.664 1.027.455 1.34.819 1.34 1.378 0 .637-.677.975-1.132.975-.48 0-.832-.234-.962-.377-.299-.299-.429-.897-.468-1.222l-.35.013m6.132-5.499v6.383c0 .377-.13.52-.559.559l-.247.026c-.065.013-.09.039-.09.104v.247l.025.026c.65-.013.832-.026 1.34-.026.532 0 .662.013 1.17.026l.025-.026v-.247a.103.103 0 00-.104-.104c-.338-.039-.585-.091-.585-.585v-1.82c.325 0 .507.091.767.468l.95 1.339c.26.377.298.533.298.702v.247l.04.026c.26-.013.48-.026.87-.026.403 0 .715.013 1.105.026l.026-.026v-.247c0-.065-.026-.091-.117-.104l-.09-.013c-.326-.052-.742-.234-.976-.585l-1.52-2.249a.31.31 0 01-.066-.182c0-.052.013-.091.052-.13l.988-1.092c.325-.338.897-.559 1.248-.611l.091-.013c.065-.013.143-.039.143-.104v-.247l-.052-.026c-.48.013-.663.026-1.13.026-.495 0-.677-.013-1.158-.026 0 .013-.039.026-.039.026v.247c0 .052.04.104.104.104.78.039.312.572.17.715-.703.767-1.366 1.352-1.704 1.43V1.495c0-.845.04-1.365.04-1.365 0-.091-.053-.13-.17-.13-.325.13-1.235.299-1.755.338l.026.312c0 .039.04.065.078.065l.416.026c.26 0 .39.169.39 1.014m7.195 3.588c.234-1.469 1.196-1.534 1.495-1.534.468 0 1.079.26 1.079 1.352 0 .117-.052.182-.182.182h-2.392m3.432 2.496c-.455.494-.91.728-1.625.728-.728 0-1.846-.78-1.846-2.717h3.419c.143 0 .234-.078.234-.221 0-1.092-.403-2.262-2.119-2.262-1.235 0-2.574 1.144-2.574 3.12 0 1.495.793 2.717 2.574 2.717.936 0 1.703-.481 2.197-1.157-.039-.13-.117-.195-.26-.208m5.267-1.794v1.729c0 .169-.078.26-.182.338-.338.273-.78.559-1.144.559a.932.932 0 01-.962-.923c0-.585.299-1.17 1.26-1.43l1.028-.273m0 2.405c.078.273.286.754.975.754.637 0 1.079-.52 1.079-.585 0-.091-.091-.195-.143-.195-.078 0-.117.208-.43.208-.506 0-.52-.533-.52-1.131V5.564c0-1.846-.961-2.197-1.91-2.197-1.066 0-2.145.741-2.145 1.443 0 .312.156.455.455.455.377 0 .572-.26.572-.429a.584.584 0 00-.04-.234.899.899 0 01-.025-.26c0-.403.585-.585 1.079-.585.442 0 1.053.26 1.053 1.729 0 .091-.04.143-.078.156l-1.118.273c-1.248.312-2.12 1.001-2.12 1.885 0 1.027.703 1.404 1.613 1.404.598 0 .845-.104 1.417-.546l.26-.208h.026" font-family="Linux Libertine O" font-size="13" font-weight="400" letter-spacing=".8"/>
</svg>
