<?xml version="1.0" encoding="UTF-8" standalone="no"?>
<svg xmlns="http://www.w3.org/2000/svg" width="119" height="11" viewBox="0 0 119 11">
	<path style="-inkscape-font-specification:'AR PL UMing CN Light'" d="M96.121 2.969c-1.17 0-2.895 1.11-3.312 3.156-.148.754-.1 1.489.25 2 .35.538.906.844 1.875.844 1.022 0 1.827-.457 2.5-1.156-.014-.135-.071-.206-.22-.22-.605.512-1.031.72-1.812.72-.484 0-.998-.283-1.28-.97-.176-.443-.225-1.063-.063-1.843l3.562.031c.162 0 .272-.07.313-.219.215-1.13.058-2.343-1.813-2.343zm-.062.437c.51 0 1.04.276.812 1.406-.027.122-.07.188-.219.188l-2.468.063c.565-1.521 1.552-1.657 1.875-1.657zM6.589 0c-.201 0-.333.105-.562.469l-4.375 7c-.524.834-.939.928-1.53.968-.095.081-.162.357-.095.438.498-.013.663-.031 1.188-.031.552 0 1.252.018 1.75.031.094-.08.13-.357.062-.438-.498-.026-1.117-.09-.78-.656L3.37 5.844c.094-.175.177-.25.5-.25h2.813l.343 2.281c.081.565-.448.522-1.093.563-.095.08-.13.356-.063.437a73.05 73.05 0 011.75-.031c.552 0 1.033.018 1.531.031.095-.08.161-.357.094-.438-.511-.04-.955-.05-1.062-.75L6.87.407C6.804.15 6.778 0 6.59 0zm-.624 1.438h.031L6.59 5.03H4.246c-.31 0-.393-.008-.312-.156zm11.844 1.625v.03l-.063.25c-.013.081-.005.094.063.094l.28.032c.458.053.52.203.438.593l-.75 3.782c-.08.39-.203.584-.687.625l-.281.03c-.068.014-.112.027-.125.094l-.063.25.031.032s.855-.031 1.407-.031c.524 0 .836.03 1.375.03 1.493 0 2.458-.713 2.687-1.843.256-1.265-.802-1.625-2.094-1.625h-.75l.25-1.344c.081-.39.262-.54.72-.594l.25-.03c.053 0 .11-.014.124-.094l.063-.25-.032-.032H17.81zm1.375 2.78h.906c.955 0 1.148.6 1 1.313-.215 1.104-.89 1.313-1.563 1.313-.619 0-.844-.154-.75-.625zM14.755 4.1l-.35 1.722c-.51.431-1.076.592-1.735.592-.835 0-.835-.457-.62-1.507l.176-.888c.08-.43.201-.525.645-.565l.202-.013c.054 0 .095-.027.108-.081l.054-.283-.014-.027s-.82.027-1.345.027c-.471 0-1.184-.027-1.184-.027l-.014.027-.067.296c0 .054.013.068.054.068l.107.013c.444.067.525.121.43.633l-.16.767c-.283 1.426.067 2.032 1.385 2.032.808 0 1.279-.189 1.884-.58L14.015 7.8c-.107.524-.188.605-.686.659l-.229.027c-.054.013-.08.027-.094.08l-.054.283.027.027s.794-.027 1.346-.027c.498 0 1.292.027 1.292.027l.027-.027.053-.296c.014-.04-.013-.054-.053-.067l-.216-.027c-.484-.054-.511-.148-.403-.66l.74-3.7c.107-.552.242-.619.659-.646l.35-.013c.04 0 .08-.027.08-.068l.068-.296-.014-.027s-.928.027-1.507.027c-.498 0-1.251-.027-1.251-.027l-.027.027-.067.296c0 .054.013.068.067.068l.202.013c.457.04.525.121.43.646m11.13-1.023l-.028-.027s-.296.027-.497.027c-.471 0-1.386-.027-1.386-.027l-.027.027-.054.256c-.014.067.013.108.08.108l.256.026c.43.054.538.216.458.593l-.754 3.794c-.08.39-.269.565-.7.606l-.269.027c-.067.013-.107.04-.12.107l-.055.256.027.027s.915-.027 1.386-.027c.525 0 1.454.027 1.454.027l.026-.027.054-.256c.014-.067-.04-.094-.107-.107l-.243-.027c-.444-.04-.538-.215-.457-.606l.955-4.777m.502 5.773l.027.027s.915-.027 1.386-.027c.524 0 1.305.027 1.305.027l.027-.027.054-.256c.013-.067-.04-.094-.095-.107-.282-.04-.672-.121-.578-.565l.377-1.884c.995.067 1.197.551 1.305 1.292.08.592.31 1.52.982 1.534l.969.013.04-.027.054-.242c.014-.094-.08-.121-.134-.121l-.095-.014c-.47-.067-.794-1.238-.901-1.749-.148-.66-.579-.955-1.305-.955l.013-.054c.525-.148.929-.606 1.238-1.144.229-.417.538-.713.673-.713.121 0 .215.04.282.094a.522.522 0 00.35.121c.283 0 .565-.242.62-.511.053-.323-.028-.606-.58-.606-.645 0-1.224.727-1.6 1.36-.445.74-.916 1.25-1.817 1.25l.31-1.533c.093-.485.39-.552.78-.592.054 0 .12-.068.134-.135l.054-.229-.027-.027s-.753.027-1.278.027c-.471 0-1.386-.027-1.386-.027l-.027.027-.054.256c-.013.067.027.094.08.108l.256.026c.418.04.525.216.445.593l-.767 3.835c-.068.376-.189.511-.673.565l-.27.027c-.067.013-.107.04-.12.107l-.054.256m10.032-1.103c-.134.713.713 1.238 1.938 1.238 1.332 0 2.866-.942 3.297-3.109.323-1.628-.175-2.933-1.965-2.933-.632 0-1.224.215-1.897.255-.148.512-.296.97-.565 1.615l.323.054c.403-.861.955-1.507 1.95-1.507 1.198 0 1.36 1.157 1.118 2.395l-.04.027c-.31-.215-.647-.377-1.037-.377-.578 0-1.009.377-1.48.377-.175 0-.323-.08-.417-.08-.08 0-.135.134-.148.188-.04.188.538.43 1.117.43.605 0 .901-.296 1.413-.296.175 0 .336.054.484.121-.323 1.602-1.076 2.396-2.207 2.396-.538 0-.848-.323-.928-.687-.121-.417-.256-.498-.485-.498-.242 0-.417.175-.47.39m10.477.068c-.094.511-.188.619-.673.646l-.363.027c-.04.013-.067.027-.08.067l-.055.296.014.027c.404-.013.969-.027 1.453-.027.498 0 .982.014 1.386.027l.027-.027.054-.282c.013-.054-.014-.068-.067-.081l-.256-.027c-.458-.04-.538-.108-.43-.646l.753-3.714c.108-.552.202-.579.673-.632l.269-.027c.054 0 .094-.027.108-.081l.053-.283-.013-.027c-.404.014-.902.027-1.4.027-.484 0-1.036-.013-1.44-.027l-.026.027-.068.296c0 .054.014.068.054.068l.35.027c.417.04.525.12.43.632l-.295 1.44h-2.759l.296-1.44c.108-.552.202-.579.673-.632l.269-.027c.054 0 .094-.027.108-.081l.054-.283-.014-.026c-.404.013-.915.026-1.413.026-.484 0-1.023-.013-1.426-.026l-.027.026-.067.296c0 .054.013.068.053.068l.35.027c.417.04.525.12.43.632l-.753 3.714c-.094.511-.188.62-.673.646l-.363.027c-.04.013-.067.027-.08.067l-.054.296.013.027a45.99 45.99 0 011.44-.027c.498 0 .996.014 1.4.027l.026-.027.054-.282c.014-.054-.013-.068-.067-.081l-.256-.027c-.457-.04-.538-.108-.43-.646l.363-1.816h2.758l-.363 1.816m8.136-3.7l-.7 3.552c-.093.458-.174.66-.672.66h-1.615c-.47 0-.511-.162-.404-.66l.714-3.566c.107-.552.188-.578.659-.632l.283-.027c.053 0 .094-.027.107-.08l.054-.283-.027-.027s-.861.027-1.4.027c-.564 0-1.44-.027-1.44-.027l-.013.027-.067.296c0 .053.014.067.067.067l.35.027c.444.04.512.12.417.632l-.753 3.768c-.108.525-.189.538-.66.592l-.242.027c-.04.014-.067.027-.08.08l-.054.283.027.027s.847-.027 1.251-.027h3.27c1.063 0 1.251 1.077 1.265 1.736l.336-.013.283-1.79c.027-.229-.108-.256-.337-.296-.228-.04-.43-.256-.35-.66l.74-3.713c.122-.552.216-.606.687-.646l.336-.027c.054 0 .095-.027.095-.068l.067-.296-.027-.026s-.888.026-1.453.026c-.539 0-1.373-.026-1.373-.026l-.013.026-.068.296c0 .054.014.068.054.068l.283.027c.444.053.511.12.404.646m4.53-1.037a61.7 61.7 0 01-1.466-.026l-.04.026-.068.296c0 .054.014.068.068.068l.403.027c.485.04.512.148.39.713l-.726 3.633c-.094.471-.162.62-.66.646l-.43.027c-.04.013-.067.027-.08.067l-.055.296.014.027c.538-.013.915-.027 1.494-.027.43 0 .551.014 1.09.027l.013-.027.054-.282c.013-.054-.014-.068-.067-.081-.445-.04-.458-.188-.39-.511v-.027L62.55 4.61l-.632 3.175c-.095.471-.189.646-.687.673l-.43.027c-.04.014-.067.027-.08.067l-.055.296.027.027c.538-.013.902-.027 1.48-.027.606 0 1.01.014 1.548.027l.013-.027.054-.282c.014-.054-.013-.068-.067-.08l-.39-.028c-.471-.027-.512-.175-.404-.673l.727-3.62c.107-.565.161-.659.672-.7l.404-.026c.054 0 .094-.027.108-.08l.054-.283-.014-.027s-.942.027-1.547.027c-.377 0-.983-.027-.983-.027l-.027.027-.067.296c0 .053.014.067.054.067.457.04.417.27.363.592l-3.445 3.337.646-3.202c.108-.552.162-.66.687-.7l.403-.027c.054 0 .094-.027.108-.08l.054-.283-.027-.027s-.942.027-1.534.027m5.089 5.773l.027.026s.915-.026 1.386-.026c.524 0 1.305.026 1.305.026l.027-.026.054-.256c.013-.067-.04-.094-.095-.108-.282-.04-.672-.12-.578-.565l.377-1.884c.995.067 1.197.552 1.305 1.292.08.592.31 1.52.982 1.534l.97.014.04-.027.053-.243c.014-.094-.08-.12-.134-.12l-.094-.014c-.471-.068-.794-1.238-.902-1.75-.148-.659-.579-.955-1.305-.955l.013-.054c.525-.148.929-.605 1.238-1.144.229-.417.538-.713.673-.713.121 0 .215.04.283.094.08.068.188.121.35.121a.673.673 0 00.618-.51c.054-.324-.027-.606-.578-.606-.646 0-1.225.726-1.602 1.359-.444.74-.915 1.251-1.816 1.251l.31-1.534c.094-.484.39-.552.78-.592.054 0 .12-.067.134-.135l.054-.228-.027-.027s-.753.027-1.278.027c-.471 0-1.386-.027-1.386-.027l-.027.027-.054.255c-.013.068.027.095.08.108l.257.027c.417.04.524.215.444.592l-.767 3.835c-.068.377-.189.511-.673.565l-.27.027c-.067.014-.107.04-.12.108l-.054.256m6.157-.62c-.08.418.202.781.794.781.646 0 1.076-.336 1.52-1.077.377-.645.727-2.018.902-2.933.215-1.05.323-1.4.834-1.4h.606c.484 0 .498.189.404.646l-.714 3.607c-.08.39-.215.551-.7.605l-.269.027c-.067.014-.107.04-.12.108l-.054.256.026.026s.916-.026 1.4-.026c.525 0 1.44.026 1.44.026l.027-.026.054-.256c.013-.067-.04-.108-.095-.108l-.242-.027c-.43-.04-.538-.215-.457-.605l.753-3.755c.094-.511.148-.592.673-.632l.377-.027c.08 0 .12-.027.134-.094l.054-.27-.04-.026s-.915.027-1.494.027h-2.341c-.539 0-1.386-.027-1.386-.027l-.04.027-.041.215c-.027.121.027.135.242.148.754.054.754.242.471 1.655-.282 1.413-.538 2.153-.82 2.705-.27.484-.512.66-.727.66-.162 0-.202-.108-.189-.283.014-.242 0-.512-.363-.512-.323 0-.552.27-.62.566m11.156-5.293c-1.817 0-3.133 1.447-3.469 3.156-.27 1.372.353 2.875 2.25 2.875 2.005 0 3.168-1.655 3.438-3 .282-1.4-.133-3.032-2.22-3.032zm-.219.437c1.157 0 1.591 1.053 1.188 3.031-.35 1.777-1.212 2.125-1.844 2.125-1.4 0-1.59-1.714-1.375-2.75.229-1.17.9-2.406 2.031-2.406zm4.793.75l-.74 3.701c-.095.471-.202.606-.673.633l-.417.027c-.054.013-.081.027-.095.067l-.053.296.026.027s.916-.027 1.508-.027c.565 0 1.466.027 1.466.027l.014-.027.054-.282c.013-.054-.014-.068-.054-.081l-.35-.027c-.458-.027-.511-.121-.417-.633l.74-3.7c.094-.471.377-.525.66-.525h1.628c.269 0 .551.027.444.525l-.74 3.7c-.095.471-.202.606-.673.633l-.377.027c-.04.013-.067.027-.08.067l-.055.296.014.027s.901-.027 1.48-.027 1.507.027 1.507.027l.014-.027.053-.282c.014-.054-.013-.068-.067-.081l-.39-.027c-.471-.027-.525-.121-.43-.632l.74-3.714c.12-.552.16-.606.686-.646l.403-.027c.054 0 .095-.027.108-.081l.054-.283-.014-.026s-.942.026-1.547.026h-3.728c-.578 0-1.48-.026-1.48-.026l-.027.026-.067.296c0 .054.013.068.054.068l.403.027c.458.04.539.094.418.659m13.457-1.064l-.062.313c0 .054.04.063.093.063l.344.03c.458.041.496.308.469.47-.323 1.6-.81 2.824-1.281 3.968-.149.364-.575.554-.938.594-.188.027-.339.039-.406.281l-.469 1.781.375.032c.215-.498.807-1.75 1.938-1.75h2.156c1.117 0 1.281 1.18 1.281 1.718h.344l.281-1.78c.04-.19-.039-.228-.281-.282-.216-.04-.5-.19-.406-.688l.75-3.718c.08-.458.22-.558.718-.625l.25-.032c.04 0 .112-.04.125-.093l.031-.281h-5.25zm1.781.532h.938c.498 0 .5.198.406.656l-.656 3.406c-.094.444-.19.657-.688.657h-1.593c-.135 0-.246-.009-.22-.157.055-.229.537-1.15 1.345-4.219.013-.053.159-.343.468-.343zm5.91-.518a61.7 61.7 0 01-1.467-.027l-.04.027-.068.296c0 .054.014.068.068.068l.403.027c.485.04.512.148.39.713l-.726 3.633c-.094.47-.162.619-.66.646l-.43.027c-.04.013-.067.027-.08.067l-.055.296.014.027c.538-.013.915-.027 1.493-.027.431 0 .552.014 1.09.027l.014-.027.054-.282c.013-.054-.014-.068-.068-.081-.444-.04-.457-.189-.39-.512v-.026l3.445-3.338-.632 3.176c-.095.471-.189.646-.687.673l-.43.027c-.04.013-.068.027-.081.067l-.054.296.027.027c.538-.013.902-.027 1.48-.027.606 0 1.01.014 1.548.027l.013-.027.054-.282c.014-.054-.013-.068-.067-.081l-.39-.027c-.471-.027-.512-.175-.404-.673l.726-3.62c.108-.565.162-.659.673-.7l.404-.026c.054 0 .094-.027.108-.081l.053-.283-.013-.026s-.942.026-1.548.026c-.376 0-.982-.026-.982-.026l-.027.026-.067.296c0 .054.013.068.054.068.457.04.417.269.363.592l-3.445 3.337.646-3.203c.108-.551.162-.659.686-.7l.404-.026c.054 0 .094-.027.108-.08l.054-.283-.027-.027s-.942.027-1.534.027m8.996-.014c-2.3 0-2.669 1.234-2.75 1.625-.188.955.698 1.406 1.438 1.406v.062c-.39.068-.914.386-1.25.938-.31.498-.887 1.335-1.25 1.375l-.125.031c-.054 0-.143 0-.156.094l-.063.25.031.031h.875c.431-.013.967-.56 1.344-1.219.498-.874.993-1.437 1.531-1.437h.344l-.344 1.594c-.094.524-.15.629-.593.656l-.219.031c-.054 0-.08.04-.094.094l-.03.281s.765-.031 1.25-.031c.47 0 1.218.031 1.218.031l.062-.281c0-.027-.017-.094-.125-.094l-.28-.031c-.216-.014-.256-.307-.188-.656l.812-3.938c.054-.283.164-.393.406-.406l.344-.031c.027 0 .063-.004.063-.032l.062-.344h-2.311zm-.125.375c.525 0 .626.07.532.5l-.344 1.812h-.906c-.767 0-.978-.546-.844-1.219.135-.632.405-1.093 1.563-1.093z" font-family="AR PL UMing CN" font-size="144" font-weight="300"/>
</svg>
