<?xml version="1.0" encoding="UTF-8" standalone="no"?>
<svg xmlns="http://www.w3.org/2000/svg" width="124" height="11" viewBox="0 0 124 11">
	<path style="-inkscape-font-specification:Sans" d="M7.868 6.825l1.053-5.213C9.129.533 9.363.468 10.286.429c.091-.078.143-.351.078-.429-.637.013-1.027.026-1.69.026-.65 0-1.027-.013-1.677-.026-.091.078-.143.351-.078.429.689.039.975.078.962.598a3.012 3.012 0 01-.468.624L2.954 6.097c-.117.104-.208.143-.26.143l.936-4.628C3.838.533 4.072.468 4.995.429c.091-.078.143-.351.078-.429-.637.013-1.027.026-1.69.026-.65 0-1.027-.013-1.677-.026-.091.078-.143.351-.078.429.897.039 1.105.104.897 1.183L1.472 6.825C1.264 7.904 1.03 7.969.107 8.008c-.091.078-.143.351-.078.429.637-.013 1.027-.026 1.69-.026.65 0 1.027.013 1.677.026.091-.078.143-.351.078-.429-.702-.026-1.001-.078-.975-.611.143-.312.299-.416.494-.611l4.433-4.42a.65.65 0 01.273-.169l-.936 4.628c-.208 1.079-.442 1.144-1.365 1.183-.091.078-.143.351-.078.429.637-.013 1.027-.026 1.69-.026.65 0 1.027.013 1.677.026.091-.078.143-.351.078-.429-.897-.039-1.105-.104-.897-1.183m4.185-2.457c.43-.689 1.144-1.066 1.586-1.066.793 0 1.196.832.884 2.405-.234 1.118-.728 2.392-2.119 2.392-.208 0-.637-.026-.988-.559l.637-3.172m.312-1.534l-.026-.026s-.299.026-.48.026c-.456 0-1.34-.026-1.34-.026l-.026.026-.052.247c-.013.065.013.104.078.104l.247.026c.416.052.52.208.442.572L9.87 10.478c-.065.364-.286.533-.676.572l-.247.026c-.065.013-.117.039-.13.104l-.039.247.013.026s.897-.026 1.352-.026c.507 0 1.391.026 1.391.026l.04-.026.038-.247c.013-.065-.026-.091-.09-.104l-.248-.026c-.403-.039-.507-.208-.442-.572l.442-2.223c.312.182.65.286 1.118.286.676 0 1.261-.221 1.872-.728.702-.598 1.196-1.404 1.404-2.457.273-1.378-.299-2.652-1.56-2.652-.416 0-1.144.13-1.924 1.04h-.039l.221-.91m5.626 1.911c.546-1.469 1.482-1.586 1.794-1.586.494 0 1.027.273.806 1.365-.026.117-.09.182-.234.182l-2.366.039m2.925 2.457c-.585.494-1 .702-1.755.702-.468 0-.962-.273-1.235-.936-.169-.429-.208-1.027-.052-1.781l3.445.026c.156 0 .26-.078.3-.221.207-1.092.051-2.262-1.756-2.262-1.13 0-2.808 1.079-3.21 3.055-.144.728-.105 1.43.233 1.924.338.52.884.832 1.82.832.988 0 1.781-.455 2.431-1.131-.013-.13-.078-.195-.22-.208m.965 1.209l.026.026s.884-.026 1.339-.026c.507 0 1.26.026 1.26.026l.027-.026.052-.247c.013-.065-.04-.091-.091-.104-.273-.039-.65-.117-.56-.546l.365-1.82c.962.065 1.157.533 1.26 1.248.079.572.3 1.469.95 1.482l.936.013.039-.026.052-.234c.013-.091-.078-.117-.13-.117l-.091-.013c-.455-.065-.767-1.196-.871-1.69-.143-.637-.56-.923-1.261-.923l.013-.052c.507-.143.897-.585 1.196-1.105.22-.403.52-.689.65-.689a.43.43 0 01.273.091.501.501 0 00.338.117.652.652 0 00.598-.494c.052-.312-.026-.585-.56-.585-.623 0-1.182.702-1.546 1.313-.43.715-.884 1.209-1.755 1.209l.299-1.482c.09-.468.377-.533.754-.572.052 0 .117-.065.13-.13l.052-.221-.026-.026s-.728.026-1.235.026c-.455 0-1.34-.026-1.34-.026L23 2.834l-.052.247c-.013.065.026.091.078.104l.247.026c.403.039.507.208.429.572l-.741 3.705c-.065.364-.182.494-.65.546l-.26.026c-.065.013-.104.039-.117.104l-.052.247m5.948-.598c-.078.403.195.754.767.754.624 0 1.04-.325 1.469-1.04.364-.624.702-1.95.87-2.834.209-1.014.313-1.352.807-1.352h.585c.468 0 .48.182.39.624l-.69 3.484c-.077.377-.207.533-.675.585l-.26.026c-.065.013-.104.039-.117.104l-.052.247.026.026s.884-.026 1.352-.026c.507 0 1.39.026 1.39.026l.027-.026.052-.247c.013-.065-.04-.104-.091-.104l-.234-.026c-.416-.039-.52-.208-.442-.585l.728-3.627c.09-.494.143-.572.65-.611l.364-.026c.078 0 .117-.026.13-.091l.052-.26-.04-.026s-.883.026-1.442.026h-2.262c-.52 0-1.34-.026-1.34-.026l-.038.026-.04.208c-.025.117.027.13.235.143.728.052.728.234.455 1.599-.273 1.365-.52 2.08-.793 2.613-.26.468-.494.637-.702.637-.156 0-.195-.104-.182-.273.013-.234 0-.494-.351-.494-.312 0-.533.26-.598.546m8.696-3.068c.546-1.469 1.482-1.586 1.794-1.586.494 0 1.027.273.806 1.365-.026.117-.09.182-.234.182l-2.366.039m2.925 2.457c-.585.494-1 .702-1.755.702-.468 0-.962-.273-1.235-.936-.169-.429-.208-1.027-.052-1.781l3.445.026c.156 0 .26-.078.3-.221.207-1.092.051-2.262-1.756-2.262-1.13 0-2.808 1.079-3.21 3.055-.144.728-.105 1.43.233 1.924.338.52.884.832 1.82.832.988 0 1.781-.455 2.431-1.131-.013-.13-.078-.195-.22-.208m4.462.143c-.13.689.689 1.196 1.872 1.196 1.287 0 2.769-.91 3.185-3.003.312-1.573-.17-2.834-1.898-2.834-.611 0-1.183.208-1.833.247-.143.494-.286.936-.546 1.56l.312.052c.39-.832.923-1.456 1.885-1.456 1.157 0 1.313 1.118 1.079 2.314l-.04.026c-.298-.208-.623-.364-1-.364-.56 0-.975.364-1.43.364-.17 0-.312-.078-.403-.078-.078 0-.13.13-.143.182-.04.182.52.416 1.079.416.585 0 .87-.286 1.365-.286.169 0 .325.052.468.117-.312 1.547-1.04 2.314-2.132 2.314-.52 0-.82-.312-.897-.663-.117-.403-.247-.481-.468-.481-.234 0-.403.169-.455.377m10.122.065c-.09.494-.182.598-.65.624l-.35.026c-.04.013-.066.026-.079.065l-.052.286.013.026c.39-.013.936-.026 1.404-.026.481 0 .95.013 1.34.026l.025-.026.052-.273c.013-.052-.013-.065-.065-.078l-.247-.026c-.442-.039-.52-.104-.416-.624l.728-3.588c.104-.533.195-.559.65-.611l.26-.026c.052 0 .091-.026.104-.078l.052-.273-.013-.026c-.39.013-.87.026-1.352.026-.468 0-1-.013-1.39-.026l-.027.026-.065.286c0 .052.013.065.052.065l.338.026c.403.039.507.117.416.611l-.286 1.391h-2.665l.286-1.391c.104-.533.195-.559.65-.611l.26-.026c.052 0 .091-.026.104-.078l.052-.273-.013-.026c-.39.013-.884.026-1.365.026-.468 0-.988-.013-1.378-.026l-.026.026-.065.286c0 .052.013.065.052.065l.338.026c.403.039.507.117.416.611l-.728 3.588c-.09.494-.182.598-.65.624l-.35.026c-.04.013-.066.026-.079.065l-.052.286.013.026c.39-.013.923-.026 1.391-.026.481 0 .962.013 1.352.026l.026-.026.052-.273c.013-.052-.013-.065-.065-.078l-.247-.026c-.442-.039-.52-.104-.416-.624l.351-1.755h2.665l-.35 1.755m7.86-3.575l-.677 3.432c-.09.442-.169.637-.65.637h-1.56c-.455 0-.494-.156-.39-.637l.69-3.445c.103-.533.181-.559.636-.611l.273-.026c.052 0 .091-.026.104-.078l.052-.273-.026-.026s-.832.026-1.352.026c-.546 0-1.39-.026-1.39-.026l-.014.026-.065.286c0 .052.013.065.065.065l.338.026c.43.039.494.117.403.611l-.728 3.64c-.104.507-.182.52-.637.572l-.234.026c-.039.013-.065.026-.078.078l-.052.273.026.026s.82-.026 1.21-.026h3.158c1.027 0 1.21 1.04 1.222 1.677l.325-.013.273-1.729c.026-.221-.104-.247-.325-.286-.22-.039-.416-.247-.338-.637l.715-3.588c.117-.533.208-.585.663-.624l.325-.026c.052 0 .091-.026.091-.065l.065-.286-.026-.026s-.858.026-1.404.026c-.52 0-1.326-.026-1.326-.026l-.013.026-.065.286c0 .052.013.065.052.065l.273.026c.43.052.494.117.39.624m4.378-1.001c-.559 0-1.417-.026-1.417-.026l-.039.026-.065.286c0 .052.013.065.065.065l.39.026c.468.039.494.143.377.689l-.702 3.51c-.091.455-.156.598-.637.624l-.416.026c-.039.013-.065.026-.078.065l-.052.286.013.026c.52-.013.884-.026 1.443-.026.416 0 .533.013 1.053.026l.013-.026.052-.273c.013-.052-.013-.065-.065-.078-.429-.039-.442-.182-.377-.494V7.54l3.328-3.224-.611 3.068c-.091.455-.182.624-.663.65l-.416.026c-.039.013-.065.026-.078.065l-.052.286.026.026c.52-.013.871-.026 1.43-.026.585 0 .975.013 1.495.026l.013-.026.052-.273c.013-.052-.013-.065-.065-.078l-.377-.026c-.455-.026-.494-.169-.39-.65l.702-3.497c.104-.546.156-.637.65-.676l.39-.026c.052 0 .091-.026.104-.078l.052-.273-.013-.026s-.91.026-1.495.026c-.364 0-.949-.026-.949-.026l-.026.026-.065.286c0 .052.013.065.052.065.442.039.403.26.351.572l-3.328 3.224.624-3.094c.104-.533.156-.637.663-.676l.39-.026c.052 0 .091-.026.104-.078l.052-.273-.026-.026s-.91.026-1.482.026m4.916 5.577l.026.026s.884-.026 1.34-.026c.506 0 1.26.026 1.26.026l.026-.026.052-.247c.013-.065-.039-.091-.09-.104-.274-.039-.65-.117-.56-.546l.364-1.82c.962.065 1.157.533 1.261 1.248.078.572.3 1.469.95 1.482l.935.013.04-.026.051-.234c.013-.091-.078-.117-.13-.117l-.09-.013c-.456-.065-.768-1.196-.872-1.69-.143-.637-.559-.923-1.26-.923l.012-.052c.507-.143.897-.585 1.196-1.105.221-.403.52-.689.65-.689a.43.43 0 01.273.091.501.501 0 00.338.117.652.652 0 00.598-.494c.052-.312-.026-.585-.559-.585-.624 0-1.183.702-1.547 1.313-.429.715-.884 1.209-1.755 1.209l.3-1.482c.09-.468.376-.533.753-.572.052 0 .117-.065.13-.13l.052-.221-.026-.026s-.728.026-1.235.026c-.455 0-1.339-.026-1.339-.026l-.026.026-.052.247c-.013.065.026.091.078.104l.247.026c.403.039.507.208.43.572l-.742 3.705c-.065.364-.182.494-.65.546l-.26.026c-.065.013-.104.039-.117.104l-.052.247m5.949-.598c-.078.403.195.754.767.754.624 0 1.04-.325 1.469-1.04.364-.624.702-1.95.87-2.834.209-1.014.313-1.352.807-1.352h.585c.468 0 .48.182.39.624l-.69 3.484c-.077.377-.207.533-.675.585l-.26.026c-.065.013-.104.039-.117.104l-.052.247.026.026s.884-.026 1.352-.026c.507 0 1.39.026 1.39.026l.027-.026.052-.247c.013-.065-.04-.104-.091-.104l-.234-.026c-.416-.039-.52-.208-.442-.585l.728-3.627c.09-.494.143-.572.65-.611l.364-.026c.078 0 .117-.026.13-.091l.052-.26-.04-.026s-.883.026-1.442.026h-2.262c-.52 0-1.34-.026-1.34-.026l-.038.026-.04.208c-.025.117.027.13.235.143.728.052.728.234.455 1.599-.273 1.365-.52 2.08-.793 2.613-.26.468-.494.637-.702.637-.156 0-.195-.104-.182-.273.013-.234 0-.494-.351-.494-.312 0-.533.26-.598.546m7.422-2.067c-.26 1.326.338 2.795 2.17 2.795 1.938 0 3.082-1.612 3.342-2.912.273-1.352-.13-2.925-2.145-2.925-1.755 0-3.042 1.391-3.367 3.042m3.133-2.613c1.118 0 1.56 1.001 1.17 2.912-.338 1.716-1.196 2.067-1.807 2.067-1.352 0-1.521-1.664-1.313-2.665.22-1.131.858-2.314 1.95-2.314m4.64.715l-.715 3.575c-.091.455-.195.585-.65.611l-.403.026c-.052.013-.078.026-.091.065l-.052.286.026.026s.884-.026 1.456-.026c.546 0 1.417.026 1.417.026l.013-.026.052-.273c.013-.052-.013-.065-.052-.078l-.338-.026c-.442-.026-.494-.117-.403-.611l.715-3.575c.09-.455.364-.507.637-.507h1.573c.26 0 .533.026.429.507l-.715 3.575c-.091.455-.195.585-.65.611l-.364.026c-.04.013-.065.026-.078.065l-.052.286.013.026s.87-.026 1.43-.026c.559 0 1.456.026 1.456.026L97 8.411l.052-.273c.013-.052-.013-.065-.065-.078l-.377-.026c-.455-.026-.507-.117-.416-.611l.715-3.588c.117-.533.156-.585.663-.624l.39-.026c.052 0 .09-.026.104-.078l.052-.273-.013-.026s-.91.026-1.495.026h-3.6c-.56 0-1.43-.026-1.43-.026l-.026.026-.065.286c0 .052.013.065.052.065l.39.026c.442.039.52.091.403.637m7.39.897c.546-1.469 1.482-1.586 1.794-1.586.494 0 1.027.273.806 1.365-.026.117-.091.182-.234.182l-2.366.039m2.925 2.457c-.585.494-1.001.702-1.755.702-.468 0-.962-.273-1.235-.936-.17-.429-.208-1.027-.052-1.781l3.445.026c.156 0 .26-.078.299-.221.208-1.092.052-2.262-1.755-2.262-1.131 0-2.808 1.079-3.211 3.055-.143.728-.104 1.43.234 1.924.338.52.884.832 1.82.832.988 0 1.78-.455 2.43-1.131-.012-.13-.077-.195-.22-.208m.523 2.873l.338.013c.208-.481.78-1.677 1.872-1.677h2.106c1.08 0 1.222 1.144 1.222 1.664h.325l.273-1.742c.04-.182-.039-.221-.273-.273-.208-.039-.48-.156-.39-.637l.728-3.601c.078-.442.234-.546.715-.611l.221-.026c.04 0 .104-.039.117-.091l.052-.26-.013-.026s-.949.026-1.378.026h-2.47c-.22 0-1.235-.026-1.235-.026l-.039.026-.065.286c0 .052.026.065.078.065l.351.026c.442.039.468.299.442.455-.312 1.547-.793 2.73-1.248 3.835-.143.351-.533.52-.884.559-.182.026-.35.052-.416.286l-.429 1.729m2.12-2.327c.051-.221.545-1.118 1.325-4.082.013-.052.13-.338.43-.338h.922c.481 0 .481.195.39.637l-.65 3.302c-.09.429-.169.637-.65.637h-1.547c-.13 0-.247-.013-.22-.156m7.472-4.914c-.559 0-1.417-.026-1.417-.026l-.039.026-.065.286c0 .052.013.065.065.065l.39.026c.468.039.494.143.377.689l-.702 3.51c-.09.455-.156.598-.637.624l-.416.026c-.039.013-.065.026-.078.065l-.052.286.013.026c.52-.013.884-.026 1.443-.026.416 0 .533.013 1.053.026l.013-.026.052-.273c.013-.052-.013-.065-.065-.078-.429-.039-.442-.182-.377-.494V7.54l3.328-3.224-.61 3.068c-.092.455-.183.624-.664.65l-.416.026c-.039.013-.065.026-.078.065l-.052.286.026.026c.52-.013.871-.026 1.43-.026.585 0 .975.013 1.495.026l.013-.026.052-.273c.013-.052-.013-.065-.065-.078l-.377-.026c-.455-.026-.494-.169-.39-.65l.702-3.497c.104-.546.156-.637.65-.676l.39-.026c.052 0 .091-.026.104-.078l.052-.273-.013-.026s-.91.026-1.495.026c-.364 0-.949-.026-.949-.026l-.026.026-.065.286c0 .052.013.065.052.065.442.039.403.26.351.572l-3.328 3.224.624-3.094c.104-.533.156-.637.663-.676l.39-.026c.052 0 .091-.026.104-.078l.052-.273-.026-.026s-.91.026-1.482.026m4.682 5.577l.04.026.818-.013c.416-.013.95-.533 1.313-1.17.481-.845.95-1.391 1.47-1.391h.324L121.1 7.41c-.09.507-.143.611-.572.637l-.208.013c-.052 0-.078.039-.09.091l-.053.286s.741-.026 1.21-.026c.454 0 1.182.026 1.182.026l.052-.26c0-.026-.013-.117-.117-.117l-.273-.013c-.208-.013-.22-.299-.156-.637l.767-3.809c.052-.273.17-.377.403-.39l.325-.026c.026 0 .052-.013.052-.039l.065-.312-.026-.026s-.689.026-1.13.026c-.417 0-.079-.026-1.067-.026-2.223 0-2.574 1.196-2.652 1.573-.182.923.676 1.378 1.391 1.378l-.013.039c-.377.065-.87.377-1.196.91-.299.481-.884 1.3-1.235 1.339l-.117.013c-.052 0-.13.013-.143.104l-.052.247m2.366-4.173c.13-.611.416-1.053 1.534-1.053.507 0 .598.052.507.468l-.35 1.768h-.872c-.74 0-.949-.533-.819-1.183" font-family="Sans" font-size="13" font-weight="400"/>
</svg>
