<?xml version="1.0" encoding="UTF-8" standalone="no"?>
<svg xmlns="http://www.w3.org/2000/svg" width="109" height="12" viewBox="0 0 109 12">
	<path d="M4.311 5.128c-.314 0-.41-.027-.328-.177l2.079-3.474h.027l.602 3.651H4.31m-2.038 2.79l1.15-1.983c.095-.177.19-.232.519-.232h2.844l.37 2.311c.082.574-.465.52-1.122.56-.095.083-.15.37-.082.452a75.932 75.932 0 011.792-.027c.56 0 1.053.013 1.559.027.095-.082.15-.37.082-.451-.52-.041-.971-.041-1.08-.752L6.991.41C6.923.15 6.896 0 6.704 0 6.5 0 6.362.123 6.13.492L1.672 7.604c-.534.848-.958.93-1.56.97-.095.083-.15.37-.081.452.506-.014.683-.027 1.217-.027.56 0 1.244.013 1.75.027.096-.082.15-.37.082-.451-.506-.028-1.149-.082-.807-.657m8.132-1.723c-.274 1.395.356 2.94 2.284 2.94 2.038 0 3.241-1.695 3.514-3.063.288-1.422-.136-3.077-2.256-3.077-1.846 0-3.2 1.463-3.542 3.2M13.7 3.446c1.176 0 1.64 1.053 1.23 3.064-.355 1.805-1.258 2.174-1.9 2.174-1.423 0-1.6-1.75-1.382-2.803.233-1.19.903-2.435 2.052-2.435m5.66 1.3c.452-.725 1.204-1.122 1.669-1.122.834 0 1.258.875.93 2.53-.246 1.176-.766 2.516-2.23 2.516-.218 0-.67-.027-1.039-.588l.67-3.336m.329-1.614l-.028-.028s-.314.028-.506.028c-.478 0-1.408-.028-1.408-.028l-.028.028-.054.26c-.014.068.013.109.082.109l.26.027c.437.055.546.22.464.602l-1.408 7.043c-.069.383-.301.56-.711.602l-.26.027c-.069.014-.123.041-.137.11l-.041.26.014.027s.943-.028 1.422-.028c.533 0 1.463.028 1.463.028l.041-.028.041-.26c.014-.068-.027-.095-.095-.109l-.26-.027c-.424-.041-.534-.219-.465-.602l.465-2.338c.328.191.684.3 1.176.3.711 0 1.326-.232 1.97-.765.738-.63 1.257-1.477 1.476-2.585.287-1.45-.314-2.79-1.64-2.79-.439 0-1.204.137-2.025 1.094h-.04l.232-.957m5.918 2.01c.574-1.545 1.559-1.668 1.887-1.668.52 0 1.08.287.848 1.436-.027.123-.096.191-.246.191l-2.489.041m3.077 2.585c-.615.52-1.053.738-1.846.738-.493 0-1.012-.287-1.3-.984-.177-.452-.218-1.08-.054-1.874l3.624.027c.164 0 .274-.082.315-.232.218-1.149.054-2.38-1.847-2.38-1.19 0-2.954 1.135-3.378 3.214-.15.766-.109 1.505.247 2.024.355.547.93.875 1.914.875 1.04 0 1.874-.478 2.558-1.19-.014-.136-.083-.204-.233-.218m3.655-2.093l.328-1.613c.082-.41.26-.493.876-.493.738 0 1.23.206 1.066 1.053-.11.547-.629 1.053-1.422 1.053h-.848m-.082.397h.971c.78 0 1.121.574.985 1.286-.192.916-.876 1.312-1.696 1.312-.67 0-.752-.123-.657-.615l.397-1.983M29.7 9.026s.957-.027 1.477-.027c.478 0 .889.027 1.75.027.807 0 2.024-.479 2.27-1.737.15-.766-.369-1.244-.943-1.422V5.84c.383-.055 1.148-.561 1.299-1.259.164-.834-.274-1.477-1.942-1.477-.52 0-.766.028-1.258.028-.588 0-1.49-.028-1.49-.028l-.028.028-.069.3c0 .028.028.069.069.069l.465.027c.314.028.41.192.355.465L30.863 8c-.096.479-.3.588-.547.602l-.451.027c-.096.014-.123.041-.137.124l-.055.246.028.027m14.867-1.272c-.027-.123-.123-.178-.246-.191-.588.601-1.231.902-1.819.902-.998 0-1.627-1.012-1.313-2.612.3-1.504 1.135-2.407 2.038-2.407.807 0 .82.479.78.958-.028.369.136.492.423.492s.711-.178.793-.602c.15-.752-.52-1.299-1.832-1.299-1.354 0-3.05 1.217-3.433 3.16-.355 1.763.383 2.98 2.106 2.98.82 0 1.6-.26 2.503-1.38m1.228-1.56c-.273 1.395.356 2.94 2.284 2.94 2.038 0 3.242-1.695 3.515-3.063.287-1.422-.137-3.077-2.256-3.077-1.847 0-3.2 1.463-3.543 3.2m3.296-2.749c1.176 0 1.641 1.053 1.231 3.064-.355 1.805-1.258 2.174-1.9 2.174-1.423 0-1.6-1.75-1.382-2.803.232-1.19.903-2.435 2.051-2.435m2.447 7.303l.356.014c.218-.506.82-1.764 1.969-1.764h2.215c1.136 0 1.286 1.203 1.286 1.75h.342l.287-1.832c.041-.192-.041-.233-.287-.288-.219-.04-.506-.164-.41-.67l.765-3.788c.082-.465.247-.574.753-.643l.232-.027c.041 0 .11-.041.123-.096l.055-.273-.014-.028s-.998.028-1.45.028h-2.598c-.232 0-1.3-.028-1.3-.028l-.04.028-.068.3c0 .055.027.069.082.069l.369.027c.465.041.492.315.465.479-.328 1.627-.834 2.872-1.313 4.034-.15.37-.56.547-.93.588-.191.028-.37.055-.438.301l-.451 1.82m2.23-2.449c.054-.232.574-1.176 1.394-4.294.014-.055.137-.356.451-.356h.971c.506 0 .506.206.41.67l-.683 3.474c-.096.452-.178.67-.684.67h-1.627c-.137 0-.26-.013-.233-.164m9.366-2.489l-.369 1.82a.549.549 0 01-.26.355c-.41.287-.943.588-1.326.588-.684 0-.876-.547-.794-.971.123-.616.534-1.231 1.6-1.505l1.15-.287m-.507 2.53c.014.287.15.793.89.793.67 0 1.271-.547 1.285-.615.013-.096-.082-.232-.137-.232-.082 0-.178.218-.465.218-.533 0-.438-.533-.315-1.162l.41-2.038c.384-1.942-.601-2.311-1.6-2.311-1.12 0-2.42.78-2.557 1.518-.068.328.069.479.383.479.397 0 .657-.274.684-.452a.522.522 0 00.014-.246c-.014-.04 0-.123.027-.273.082-.424.725-.575 1.244-.575.465 0 1.067.233.753 1.778-.014.096-.069.15-.11.164l-1.23.287c-1.382.329-2.476 1.054-2.654 1.983-.219 1.08.465 1.477 1.423 1.477.629 0 .916-.109 1.6-.574l.328-.219h.027m3.87-5.238l-.013.028-.068.3c0 .042 0 .069.055.069l.396.027c.356.028.506.11.41.588l-.889 3.857c-.123.479-.232.602-.71.63l-.425.026c-.054.014-.082.028-.095.069l-.055.3.014.028s.875-.027 1.285-.027c.41 0 1.08.027 1.08.027l.028-.027.055-.287c.013-.055-.014-.069-.069-.083l-.219-.027c-.41-.04-.492-.178-.396-.629l.902-3.966h.028l1.066 4.91c.028.095.069.136.124.136a.249.249 0 00.218-.136l3.16-5.142h.013l-.848 4.184c-.11.493-.164.575-.642.643l-.192.027c-.041.014-.068.028-.082.083l-.055.287.014.027s.752-.027 1.162-.027c.41 0 1.6.027 1.6.027l.014-.027.055-.287c.014-.042-.014-.069-.068-.083l-.397-.027c-.547-.027-.56-.178-.465-.643l.766-3.843c.11-.506.15-.547.67-.588l.383-.027c.054 0 .096-.027.096-.068l.068-.301-.027-.028-2.107.028-2.803 4.636-.93-4.636-2.106-.028M74.2 9l.027.027S75.157 9 75.635 9c.534 0 1.327.027 1.327.027L76.989 9l.055-.26c.014-.069-.04-.096-.096-.11-.287-.04-.683-.123-.588-.574l.383-1.915c1.012.069 1.217.561 1.327 1.313.082.602.314 1.546.998 1.56l.985.013.04-.027.056-.246c.013-.096-.083-.124-.137-.124l-.096-.013c-.479-.069-.807-1.258-.916-1.778-.15-.67-.588-.971-1.327-.971l.014-.055c.533-.15.944-.615 1.258-1.162.233-.424.547-.725.684-.725.123 0 .219.041.287.096a.527.527 0 00.356.123c.287 0 .574-.246.629-.52.054-.328-.028-.615-.588-.615-.657 0-1.245.738-1.628 1.38-.451.753-.93 1.273-1.846 1.273l.315-1.56c.095-.492.396-.56.793-.601.054 0 .123-.068.136-.137l.055-.232-.027-.028s-.766.028-1.3.028c-.478 0-1.408-.028-1.408-.028l-.027.028-.055.26c-.014.068.027.095.082.109l.26.027c.424.041.533.22.451.602l-.78 3.898c-.068.383-.19.52-.683.574l-.274.027c-.068.014-.11.041-.123.11L74.2 9m8.62 2.188c.273-.37.533-.766.793-1.176 1.627-2.626 2.503-4.048 3.542-5.58.274-.397.766-.834 1.286-.875.095-.082.15-.37.082-.452-.342.014-.588.028-.971.028-.479 0-.739-.014-1.245-.028-.096.082-.15.37-.082.452.41.04.834.123.533.615l-1.996 3.132c-.15.232-.26.26-.328-.014l-.63-2.844c-.136-.575-.232-.82.616-.89.096-.081.15-.369.082-.45-.506.013-1.053.027-1.545.027-.465 0-.835-.014-1.108-.028-.096.082-.15.37-.082.452.588.054.67.164.875 1.025l.82 3.597c.069.287.151.903-.068 1.286-.246.465-.492.834-.78 1.258-.204.273-.423.396-.765.396-.192 0-.233-.04-.383-.04-.397 0-.684.41-.725.587-.055.288.178.506.547.506.287 0 .848-.109 1.518-.984h.014m10.168-3.241c-.096.52-.192.629-.684.656l-.37.027c-.04.014-.068.028-.082.069l-.054.3.013.028c.41-.014.985-.027 1.477-.027.506 0 .999.013 1.409.027L94.724 9l.055-.287c.014-.055-.014-.069-.068-.083l-.26-.027c-.465-.04-.547-.11-.438-.656l.766-3.775c.11-.56.205-.588.684-.643l.273-.027c.055 0 .096-.027.11-.082l.054-.287-.013-.028c-.41.014-.916.028-1.422.028a45.78 45.78 0 01-1.464-.028l-.027.028-.069.3c0 .055.014.069.055.069l.356.027c.424.041.533.123.437.643l-.3 1.463H90.65l.3-1.463c.11-.56.206-.588.685-.643l.273-.027c.055 0 .096-.027.11-.082l.054-.287-.013-.028c-.41.014-.93.028-1.436.028-.493 0-1.04-.014-1.45-.028l-.027.028-.069.3c0 .055.014.069.055.069l.356.027c.423.041.533.123.437.643l-.766 3.775c-.095.52-.191.629-.683.656l-.37.027c-.04.014-.068.028-.082.069l-.054.3.013.028c.41-.014.971-.027 1.464-.027.506 0 1.012.013 1.422.027L90.896 9l.055-.288c.014-.054-.014-.068-.069-.082l-.26-.027c-.464-.04-.546-.11-.437-.656l.37-1.847h2.803l-.37 1.847m2.143 2.803l.355.014c.22-.506.82-1.764 1.97-1.764h2.215c1.135 0 1.286 1.203 1.286 1.75h.342l.287-1.832c.04-.192-.041-.233-.287-.288-.22-.04-.506-.164-.41-.67l.765-3.788c.082-.465.246-.574.752-.643l.233-.027c.04 0 .11-.041.123-.096l.055-.273-.014-.028s-.998.028-1.45.028h-2.598c-.233 0-1.3-.028-1.3-.028l-.04.028-.069.3c0 .055.028.069.082.069l.37.027c.464.041.492.315.464.479-.328 1.627-.834 2.872-1.312 4.034-.15.37-.561.547-.93.588-.192.028-.37.055-.438.301l-.451 1.82M97.36 8.3c.055-.232.574-1.176 1.395-4.294.013-.055.137-.356.451-.356h.971c.506 0 .506.206.41.67l-.683 3.474c-.096.452-.178.67-.684.67h-1.628c-.136 0-.26-.013-.232-.164m5.838-2.106c-.274 1.395.355 2.94 2.283 2.94 2.038 0 3.242-1.695 3.515-3.063.287-1.422-.137-3.077-2.256-3.077-1.847 0-3.2 1.463-3.542 3.2m3.295-2.749c1.177 0 1.641 1.053 1.231 3.064-.355 1.805-1.258 2.174-1.9 2.174-1.423 0-1.6-1.75-1.382-2.803.233-1.19.903-2.435 2.051-2.435"/>
</svg>
