<?xml version="1.0" encoding="UTF-8" standalone="no"?>
<svg
   xmlns:dc="http://purl.org/dc/elements/1.1/"
   xmlns:cc="http://creativecommons.org/ns#"
   xmlns:rdf="http://www.w3.org/1999/02/22-rdf-syntax-ns#"
   xmlns:svg="http://www.w3.org/2000/svg"
   xmlns="http://www.w3.org/2000/svg"
   xml:space="preserve"
   enable-background="new 0 0 135 155"
   viewBox="0 0 104.27053 14.249254"
   height="14.249254"
   width="104.27053"
   y="0px"
   x="0px"
   id="svg3857"
   version="1.1"><metadata
     id="metadata698"><rdf:RDF><cc:Work
         rdf:about=""><dc:format>image/svg+xml</dc:format><dc:type
           rdf:resource="http://purl.org/dc/dcmitype/StillImage" /></cc:Work></rdf:RDF></metadata><defs
     id="defs3" /><path
     id="tagline"
     d="m 103.34481,3.0788805 -0.15772,0.644576 -0.92572,0.5348618 0.41143,0.096 h 0.29486 l 0.36343,-0.034286 0.40458,-0.096 0.53486,-0.1851445 -0.14401,0.4662893 -0.17142,0.1714297 -0.82972,0.4457175 -1.87202,1.1657239 0.16458,-0.6514339 0.84343,-0.6308621 -0.32915,-0.068571 -0.18514,-0.130287 0.15086,-0.8228636 0.63086,-0.4868612 0.81601,-0.4182887 m -1.27544,6.8503394 h -0.81601 V 8.7909248 h 0.85715 c 0.192,10e-7 0.432,-0.1462859 0.72001,-0.4388606 -0.15086,-0.2331432 -0.2263,-0.3748581 -0.2263,-0.4251457 0,-0.5668596 0.12344,-0.9828623 0.3703,-1.2480102 0.13257,-0.00914 0.20114,-0.00456 0.20571,0.013715 0.11886,0.3702911 0.36343,0.8182945 0.73372,1.3440105 C 103.5848,9.2983579 102.96994,9.92922 102.06937,9.92922 M 101.43165,8.7909249 V 9.92922 h -0.336 c -0.37944,0 -0.65373,-0.084572 -0.82287,-0.253717 -0.0137,0.507433 -0.0526,0.834291 -0.11657,0.980579 -0.173721,0.475432 -0.941726,1.202294 -2.304018,2.180589 -1.129153,0.813717 -1.99316,1.284577 -2.592021,1.412582 0,-0.265149 0.06629,-0.617151 0.198859,-1.056008 0.278858,-0.100576 0.962292,-0.486864 2.050301,-1.158867 0.04571,-0.02743 0.548573,-0.422861 1.508584,-1.186294 0.370284,-0.288003 0.544,-0.624005 0.521147,-1.0080083 l -1.632013,0.4114313 c -0.05943,-0.169143 -0.08915,-0.4045734 -0.08914,-0.70629 -3e-6,-0.640004 0.10514,-1.2480083 0.315431,-1.8240147 0.251427,-0.649145 0.550857,-0.9737185 0.898293,-0.9737214 0.402284,2.9e-6 0.820572,0.5165779 1.254867,1.5497259 0.15999,0.3291464 0.42971,0.4937191 0.80915,0.4937181 h 0.336 M 98.400767,9.1337851 C 98.92191,9.0514987 99.161912,8.9714984 99.120773,8.893783 98.883053,8.4777812 98.711623,8.2354941 98.606483,8.1669197 L 98.400767,9.1337851 M 87.298966,9.9292199 H 86.194958 V 8.7909248 L 87.113822,8.7497821 87.9504,8.4549224 89.033837,7.8583461 C 88.480688,7.6526326 88.119543,7.4926319 87.9504,7.3783428 87.51611,7.1086289 87.090964,6.8640558 86.674961,6.6446226 l 0.699435,-1.2960099 c 1.837725,0.8045807 3.266306,1.1840127 4.285747,1.1382941 1.11086,-0.054854 2.141724,-0.2948558 3.092596,-0.7200053 -0.489155,0.5851503 -0.832014,0.9737253 -1.02858,1.1657229 l -3.462884,1.7554422 -1.837728,0.6788627 c -0.749722,0.3474313 -1.124582,0.5348618 -1.124581,0.5622906 m 4.381749,0.9737211 c -6e-6,-1e-6 0.281139,0.28343 0.843435,0.850293 l -0.877721,0.918864 -0.795434,-0.843435 0.82972,-0.925722 m -1.851443,-0.01371 c -3e-6,-1e-6 0.281141,0.283429 0.843435,0.850293 l -0.877721,0.918864 -0.795435,-0.843436 0.829721,-0.925721 m 0.912007,1.536012 c -4e-6,-3e-6 0.28114,0.283428 0.843435,0.850293 L 90.706993,14.1944 89.911558,13.350964 90.741279,12.425243 M 84.652089,5.2251827 84.151513,4.8617515 c -0.534865,0.626295 -0.973724,0.9394396 -1.316582,0.9394357 -0.06857,3.9e-6 -0.219432,-0.043425 -0.452574,-0.130287 0.214856,-0.132568 0.432001,-0.2834259 0.651434,-0.4525744 0.223998,-0.1691398 0.459428,-0.3634263 0.70629,-0.5828615 -0.187433,-0.2102825 -0.281148,-0.3771402 -0.281145,-0.5005761 -3e-6,-0.1051373 0.01828,-0.2171384 0.05486,-0.3360023 0.03657,-0.1234232 0.08914,-0.2445673 0.157716,-0.3634312 0.06857,-0.1234232 0.148569,-0.2262814 0.240002,-0.3085736 0.09143,-0.086851 0.191996,-0.1302801 0.301717,-0.130287 0.292568,6.9e-6 0.438855,0.2011513 0.43886,0.6034333 -5e-6,0.2514369 -0.06629,0.5074379 -0.198859,0.768006 0.032,0.01372 0.07085,0.041149 0.116573,0.082286 0.04571,0.036577 0.09142,0.082291 0.137144,0.1371439 l -0.05486,0.637719 m -0.445718,-1.227438 c -4e-6,-0.036566 -0.0091,-0.070852 -0.02743,-0.1028572 -0.01372,-0.031995 -0.02972,-0.057138 -0.048,-0.075429 -0.01372,-0.022851 -0.03886,-0.041137 -0.07543,-0.054858 -0.032,-0.01828 -0.06858,-0.027423 -0.109715,-0.027429 -0.05029,5.9e-6 -0.07543,0.022864 -0.07543,0.068572 -4e-6,0.109721 0.100569,0.2262941 0.301717,0.3497173 0.02285,-0.031994 0.03428,-0.063995 0.03429,-0.096 -4e-6,-0.031995 -4e-6,-0.052567 0,-0.061716 m 2.139445,4.7931805 V 9.92922 h -0.336003 c -0.379436,0 -0.653724,-0.084572 -0.822863,-0.253717 -0.01372,0.507433 -0.05258,0.834291 -0.116572,0.980579 -0.173721,0.475432 -0.941726,1.202294 -2.304018,2.180589 -1.129153,0.813717 -1.99316,1.284577 -2.592021,1.412582 0,-0.265149 0.06629,-0.617151 0.19886,-1.056008 0.278857,-0.100576 0.962291,-0.486864 2.050301,-1.158867 0.04571,-0.02743 0.548572,-0.422861 1.508583,-1.186294 0.370284,-0.288003 0.544,-0.624005 0.521147,-1.0080083 l -1.632013,0.4114313 c -0.05943,-0.169143 -0.08915,-0.4045734 -0.08914,-0.70629 -3e-6,-0.640004 0.10514,-1.2480083 0.315431,-1.8240147 0.251427,-0.649145 0.550857,-0.9737185 0.898293,-0.9737214 0.402284,2.9e-6 0.820572,0.5165779 1.254867,1.5497259 0.159996,0.3291464 0.429712,0.4937191 0.809148,0.4937181 h 0.336003 m -3.03088,0.3428603 c 0.521138,-0.082287 0.761139,-0.1622868 0.72,-0.2400022 -0.23772,-0.4160018 -0.40915,-0.6582889 -0.51429,-0.7268633 L 83.314936,9.1337851 M 77.80175,5.0263243 78.206325,5.2046109 c -6e-6,0.086863 0.11428,0.3360072 0.342859,0.7474351 0.283424,0.5257218 0.48914,0.9714383 0.617148,1.3371526 0.228565,0.626293 0.349709,1.2571541 0.363431,1.8925861 -0.205723,1.0148653 -0.793155,1.9063003 -1.762299,2.6743073 -0.324579,0.233142 -0.749725,0.436572 -1.275439,0.61029 -0.557723,0.187428 -1.078869,0.281142 -1.563441,0.281145 -0.758865,-3e-6 -1.296012,-0.203433 -1.611441,-0.61029 -0.525719,-0.662864 -0.788578,-1.373727 -0.788577,-2.132589 -10e-7,-0.6720044 0.214858,-1.3920088 0.644576,-2.1600158 l 0.370289,0.3017166 c -0.164575,0.3977179 -0.24686,0.765721 -0.246859,1.1040084 -10e-7,0.7405772 0.37943,1.3874378 1.138294,1.9405868 0.333715,0.141714 0.674288,0.212571 1.021722,0.212572 0.982861,-10e-7 2.070868,-0.516576 3.264026,-1.5497255 0.01371,-0.2468591 -0.03429,-0.5348609 -0.144001,-0.8640073 -0.10515,-0.3291434 -0.157722,-0.5485737 -0.157716,-0.6582908 -0.274294,0.2285752 -0.573724,0.3428613 -0.898292,0.3428603 -0.05029,10e-7 -0.356579,-0.1142851 -0.918865,-0.3428603 -0.0091,-1.1062914 0.390856,-2.2080128 1.20001,-3.3051681 m -0.274288,1.6731559 -0.157716,0.5005751 c 0.26514,0.1600036 0.434284,0.240004 0.507433,0.2400021 0.03657,1.9e-6 0.05485,-0.022855 0.05486,-0.068573 -6e-6,-0.086854 -0.134864,-0.3108566 -0.404575,-0.6720047 m 1.34401,-3.9908888 c -7e-6,7.8e-6 0.281138,0.2834376 0.843436,0.8502924 l -0.877721,0.9188648 -0.795435,-0.8434354 0.82972,-0.9257218 m -1.851443,-0.00686 c -5e-6,6.9e-6 0.28114,0.2834376 0.843435,0.8502924 L 76.985743,4.4708926 76.190308,3.6274572 77.020029,2.7017354 m -11.280088,0.3771461 -0.157716,0.6445759 -0.92572,0.5348618 0.411431,0.096 h 0.294859 l 0.363432,-0.034286 0.404574,-0.096 L 66.665663,4.038889 66.521662,4.5051783 66.350231,4.676608 65.520511,5.1223255 63.648496,6.2880494 63.813069,5.6366155 64.656505,5.0057534 64.327359,4.9371819 64.142215,4.806895 64.293072,3.9840314 64.923935,3.4971702 65.739941,3.0788815 M 64.464503,9.9292209 H 63.648496 V 8.7909258 h 0.85715 c 0.192,9e-7 0.432002,-0.1462859 0.720005,-0.4388606 -0.150859,-0.2331432 -0.226288,-0.3748581 -0.226287,-0.4251457 -10e-7,-0.5668596 0.123428,-0.9828623 0.370289,-1.2480102 0.13257,-0.00914 0.201142,-0.00456 0.205715,0.013715 0.118857,0.370291 0.36343,0.8182945 0.733721,1.3440105 -0.329148,1.2617241 -0.94401,1.8925862 -1.844586,1.8925862 M 61.543337,7.1589135 c 0.466287,-0.068569 0.708574,-0.05257 0.726863,0.048 0.07771,0.3154334 0.185142,0.6491498 0.322288,1.0011511 0.141713,0.3520042 0.281143,0.5462907 0.418289,0.5828615 h 0.658291 V 9.9292209 H 63.05192 c -0.05486,0 -0.198861,-0.057144 -0.432003,-0.1714307 C 62.281626,9.5795036 62.069054,9.398931 61.982198,9.2160724 l -0.116573,0.130286 c -0.01829,0.086858 -0.144002,0.2125734 -0.377146,0.3771461 -0.205717,0.1371439 -0.317717,0.2057164 -0.336002,0.2057164 H 59.973039 V 8.7909258 h 0.850293 c 0.109714,9e-7 0.349715,-0.5440028 0.720005,-1.6320123 m -0.603433,3.3463115 c -10e-7,-10e-7 0.281144,0.28343 0.843435,0.850293 l -0.877721,0.918864 -0.795435,-0.843436 0.829721,-0.925721 m 0,1.892587 c -10e-7,-3e-6 0.281144,0.283427 0.843435,0.850292 l -0.877721,0.918864 -0.795435,-0.843436 0.829721,-0.92572 M 57.950166,7.1589135 c 0.466287,-0.068569 0.708575,-0.05257 0.726863,0.048 0.07771,0.3154334 0.185142,0.6491498 0.322288,1.0011511 0.141713,0.3520042 0.281143,0.5462907 0.41829,0.5828615 h 0.65829 v 1.1382951 h -0.617148 c -0.05486,0 -0.198861,-0.057144 -0.432003,-0.1714307 C 58.688455,9.5795036 58.475883,9.398931 58.389027,9.2160724 l -0.116572,0.130286 c -0.01829,0.086858 -0.144003,0.2125734 -0.377146,0.3771461 -0.205718,0.1371439 -0.317718,0.2057164 -0.336003,0.2057164 H 56.379868 V 8.7909258 h 0.850293 c 0.109714,9e-7 0.349715,-0.5440028 0.720005,-1.6320123 m -0.226287,-3.442313 c -10e-7,5.8e-6 0.281144,0.2834366 0.843435,0.8502923 L 57.689593,5.4857576 56.894158,4.6423222 57.723879,3.7166005 m -3.394313,3.442313 c 0.466288,-0.068569 0.708575,-0.05257 0.726864,0.048 0.07771,0.3154334 0.185141,0.6491498 0.322287,1.0011511 0.141713,0.3520042 0.281143,0.5462907 0.41829,0.5828615 h 0.658291 V 9.9292209 H 55.83815 c -0.05486,0 -0.198862,-0.057144 -0.432004,-0.1714307 C 55.067856,9.5795036 54.855283,9.398931 54.768427,9.2160724 l -0.116572,0.130286 c -0.01829,0.086858 -0.144003,0.2125734 -0.377146,0.3771461 -0.205717,0.1371439 -0.317718,0.2057164 -0.336003,0.2057164 H 52.759269 V 8.7909258 h 0.850292 c 0.109714,9e-7 0.349715,-0.5440028 0.720005,-1.6320123 M 48.67238,7.8309183 c 0.141711,1.9e-6 0.212568,0.00915 0.212573,0.027429 0.02742,0.1691466 0.05714,0.2720038 0.08914,0.3085736 0.301712,0.4571483 0.795429,0.6422919 1.481155,0.5554336 0.292567,0.00915 0.548569,-0.1394289 0.768006,-0.4457185 l 0.562289,-0.6514329 0.205717,0.7131484 0.507432,0.4525745 h 0.356574 V 9.9292211 H 52.50555 c -0.201153,0 -0.39544,-0.082286 -0.582863,-0.2468591 L 51.339829,9.1337861 c -0.128008,0.5577186 -0.484581,0.8365774 -1.069723,0.8365774 -0.416008,0 -0.946297,-0.2080013 -1.590869,-0.6240051 -0.04115,0.1371449 -0.235434,0.2880028 -0.582862,0.4525755 -0.256006,0.132572 -0.532579,0.1988584 -0.82972,0.1988584 -0.384006,0 -0.736008,-0.1142861 -1.056009,-0.3428593 -0.15086,0.2011444 -0.397719,0.3040016 -0.740577,0.3085736 -0.187431,0 -0.301718,0 -0.34286,0 L 44.83235,9.9292209 H 44.393489 V 8.7909258 h 0.445718 c 0.379431,0.064001 0.596575,0.064001 0.651434,0 0.306286,-0.2925718 0.507431,-0.6377171 0.603433,-1.0354369 0.146285,0.7131504 0.617145,1.0697236 1.412582,1.0697226 0.365714,10e-7 0.621716,-0.091427 0.768006,-0.2742878 0.150855,-0.1874286 0.283427,-0.4274298 0.397718,-0.7200054 M 42.343187,7.1589135 c 0.466288,-0.068569 0.708575,-0.05257 0.726864,0.048 0.07771,0.3154334 0.185141,0.6491498 0.322287,1.0011511 0.141713,0.3520042 0.281143,0.5462907 0.41829,0.5828615 h 0.658291 V 9.9292209 H 43.85177 c -0.05486,0 -0.198861,-0.057144 -0.432003,-0.1714307 C 43.081477,9.5795036 42.868904,9.398931 42.782048,9.2160724 l -0.116572,0.130286 c -0.01829,0.086858 -0.144003,0.2125734 -0.377146,0.3771461 -0.205718,0.1371439 -0.317718,0.2057164 -0.336003,0.2057164 H 40.77289 V 8.7909258 h 0.850292 c 0.109714,9e-7 0.349715,-0.5440028 0.720005,-1.6320123 M 37.138575,9.0377848 C 36.429997,9.4400747 35.739706,9.7372194 35.067702,9.9292209 H 34.025408 V 8.7909258 h 0.253716 C 34.868843,8.7452121 35.357989,8.5600685 35.746565,8.2354931 35.677991,8.0252077 35.428846,7.6252048 34.99913,7.0354835 34.605984,6.4960546 34.349982,6.0526231 34.231124,5.7051879 34.258553,5.3211888 34.397982,4.8869002 34.649413,4.4023201 34.951129,3.762321 35.136273,3.3394613 35.204846,3.133739 35.794564,2.99203 36.692855,2.6377427 37.899724,2.0708734 39.220872,1.4720198 40.055163,0.98744562 40.4026,0.61714775 c 0.09142,9.75e-6 0.137139,0.0548673 0.137144,0.16457271 -5e-6,0.13715271 -0.09143,0.38629774 -0.274287,0.74743414 L 39.91574,2.2285891 c -0.589724,0.3428672 -1.076584,0.6057261 -1.460583,0.7885779 -0.539437,0.2651507 -1.67773,0.7680118 -3.414884,1.5085831 0.150857,0.5485806 0.482289,1.1862987 0.994294,1.9131571 0.50743,0.7954377 0.916576,1.3280125 1.227438,1.5977275 0.580573,0.502862 1.323435,0.754292 2.228589,0.7542911 h 1.494869 v 1.1382951 h -1.494869 c -0.347437,0 -0.854869,-0.091429 -1.522298,-0.2742879 C 37.671147,9.5817896 37.394574,9.3760742 37.138575,9.0377848 M 32.708827,8.5166379 c 0.01371,0.1828596 0.267428,0.2742888 0.761149,0.2742879 h 0.630862 v 1.1382951 h -0.624005 c -0.214862,0 -0.500578,-0.2857168 -0.85715,-0.8571503 0.05943,0.082287 -0.08229,0.253717 -0.425146,0.5142899 -0.214861,0.1691447 -0.49829,0.2834308 -0.850293,0.3428604 H 30.679097 V 8.7909258 h 0.685719 c 0.137143,9e-7 0.288001,-0.08457 0.452575,-0.253716 0.04571,-0.041142 0.06857,-1.0034342 0.06857,-2.8868795 C 31.88596,3.5383197 31.693959,2.1988822 31.309957,1.6320128 31.675675,0.97373074 31.929391,0.42972698 32.071108,5.695238e-7 32.509966,0.28801208 32.791111,0.68572898 32.914542,1.1931522 c 0.07771,0.2605818 0.11657,0.6765845 0.116573,1.2480103 -3e-6,0.484582 -0.07086,1.2320152 -0.212573,2.2423024 -0.141718,1.010298 -0.212575,1.8125897 -0.212574,2.4068762 -10e-7,0.4662923 0.03428,0.9417236 0.102859,1.4262968 m -1.851444,0.2742879 v 1.1382951 h -0.336002 c -0.379437,0 -0.653725,-0.084572 -0.822864,-0.253717 -0.01372,0.5074331 -0.05258,0.8342911 -0.116572,0.9805791 -0.17372,0.475431 -0.941725,1.202294 -2.304018,2.180589 -1.129153,0.813717 -1.993159,1.284577 -2.592021,1.412582 0,-0.265149 0.06629,-0.617151 0.19886,-1.056008 0.278858,-0.100576 0.962291,-0.486864 2.050301,-1.158867 0.04571,-0.02743 0.548573,-0.422861 1.508583,-1.186294 0.370284,-0.288003 0.544,-0.624005 0.521147,-1.0080084 l -1.632012,0.4114314 c -0.05943,-0.169143 -0.08915,-0.4045735 -0.08914,-0.7062901 -3e-6,-0.6400041 0.105141,-1.2480083 0.315431,-1.8240148 0.251427,-0.6491449 0.550858,-0.9737184 0.898293,-0.9737213 0.402284,2.9e-6 0.820573,0.5165779 1.254867,1.5497258 0.159996,0.3291464 0.429712,0.4937191 0.809149,0.4937182 h 0.336002 m -3.03088,0.3428603 C 28.347646,9.0514997 28.587647,8.9714993 28.546508,8.893784 28.308788,8.4777822 28.137359,8.2354951 28.032218,8.1669207 L 27.826503,9.1337861 M 21.319024,9.9292209 H 20.503017 V 8.7909258 h 0.857149 c 0.192001,9e-7 0.432003,-0.1462859 0.720006,-0.4388606 -0.150859,-0.2331432 -0.226288,-0.3748581 -0.226287,-0.4251457 -10e-7,-0.5668596 0.123428,-0.9828623 0.370289,-1.2480102 0.13257,-0.00914 0.201142,-0.00456 0.205715,0.013715 0.118856,0.370291 0.363429,0.8182945 0.73372,1.3440105 C 22.834462,9.2983589 22.2196,9.929221 21.319024,9.929221 m 0.994293,2.118873 c -2e-6,-2e-6 0.281143,0.283428 0.843435,0.850293 l -0.877721,0.918863 -0.795435,-0.843434 0.829721,-0.925722 m 0.939436,-1.522298 c -3e-6,0 0.281142,0.28343 0.843435,0.850293 l -0.877721,0.918864 -0.795435,-0.843435 0.829721,-0.925722 m -1.851443,-0.0069 c -10e-7,-10e-7 0.281144,0.28343 0.843435,0.850293 L 21.367023,12.288097 20.571589,11.444662 21.40131,10.51894 M 18.397858,7.1589145 c 0.466287,-0.068569 0.708574,-0.05257 0.726863,0.048 0.07771,0.3154334 0.185142,0.6491498 0.322287,1.0011511 0.141713,0.3520042 0.281143,0.5462907 0.41829,0.5828614 h 0.658291 v 1.1382951 h -0.617148 c -0.05486,0 -0.198862,-0.057144 -0.432004,-0.1714306 C 19.136147,9.5795046 18.923575,9.398932 18.836718,9.2160734 l -0.116572,0.130286 C 18.701858,9.4332177 18.576143,9.5589327 18.343,9.7235055 18.137283,9.8606494 18.025283,9.9292218 18.006998,9.9292218 H 16.82756 V 8.7909267 h 0.850292 c 0.109714,10e-7 0.349716,-0.5440027 0.720006,-1.6320122 m -0.603434,3.3463115 c -1e-6,-1e-6 0.281144,0.28343 0.843436,0.850293 l -0.877721,0.918863 -0.795435,-0.843435 0.82972,-0.925721 m 0,1.892587 c -1e-6,-3e-6 0.281144,0.283427 0.843436,0.850292 l -0.877721,0.918864 -0.795435,-0.843436 0.82972,-0.92572 M 14.242397,3.4423136 c 0.105139,-0.00914 0.24914,0.2788657 0.432003,0.8640072 0.173712,0.5760094 0.409142,1.5748726 0.706291,2.9965946 0.228569,0.7268643 0.543999,1.2228684 0.946294,1.4880113 h 0.617147 v 1.1382951 h -0.61029 c -0.384009,0 -0.713153,-0.1942874 -0.987436,-0.5828624 -0.114291,-0.1554288 -0.28115,-0.4914312 -0.500576,-1.0080071 -0.374864,0.7222913 -0.674294,1.1040083 -0.898293,1.145151 -0.214862,0.045716 -0.825151,0.2308592 -1.830871,0.5554337 -0.534862,0.155429 -0.950865,0.404574 -1.24801,0.747434 -0.07314,-0.08229 -0.109715,-0.198859 -0.109715,-0.349717 0,-0.109715 0.02286,-0.265145 0.06857,-0.4662895 0.064,-0.2422871 0.100572,-0.4022888 0.109715,-0.4800032 C 11.490374,9.0240719 12.03895,8.756642 12.582955,8.6880686 13.60696,8.5280688 14.267536,8.3223534 14.564685,8.0709214 14.587539,7.3394891 14.285822,6.187482 13.659535,4.6148944 L 14.242397,3.4423136 M 8.4274944,9.9292199 H 7.6114881 V 8.7909248 H 8.4686376 C 8.6606381,8.7909258 8.9006397,8.6446389 9.1886432,8.3520642 9.0377835,8.118921 8.9623543,7.9772061 8.9623557,7.9269185 8.9623543,7.3600589 9.0857838,6.9440562 9.3326443,6.6789083 9.4652149,6.6697703 9.5337869,6.6743442 9.5383602,6.6926232 9.6572162,7.0629143 9.9017893,7.5109177 10.27208,8.0366337 9.9429325,9.2983578 9.3280712,9.9292199 8.4274944,9.9292199 M 5.5886151,7.1589126 c 0.4662873,-0.06857 0.7085747,-0.05257 0.7268628,0.048 0.077713,0.3154335 0.1851418,0.6491499 0.3222883,1.0011512 0.1417126,0.3520042 0.2811422,0.5462907 0.4182889,0.5828614 H 7.714346 V 9.9292199 H 7.0971983 c -0.054861,0 -0.1988616,-0.057144 -0.4320033,-0.1714307 C 6.3269043,9.5795026 6.1143315,9.39893 6.0274757,9.2160715 L 5.9109034,9.3463575 C 5.8926157,9.4332158 5.7669005,9.5589308 5.5337575,9.7235035 5.3280404,9.8606474 5.2160396,9.9292199 5.197755,9.9292199 H 4.0183172 V 8.7909248 h 0.8502924 c 0.1097141,10e-7 0.3497157,-0.5440028 0.7200055,-1.6320122 m 1.152009,3.6068844 c -2.7e-6,-10e-7 0.2811421,0.28343 0.8434352,0.850293 L 6.7063382,12.534954 5.9109034,11.691519 6.7406241,10.765797 m -1.851443,-0.0069 c -9e-7,-10e-7 0.2811439,0.28343 0.8434352,0.850293 L 4.8548951,12.528098 4.0594604,11.684663 4.8891811,10.758941 M 2.6194492,8.763496 C 2.3360158,9.2297863 1.9017271,9.4629305 1.3165819,9.4629305 1.0788644,9.4629305 0.84571997,9.4172159 0.61714783,9.3257866 0.20571566,9.1612139 -3.541422e-8,8.8320694 1.5963492e-7,8.3383503 -3.541422e-8,8.0594925 0.06857183,7.7852046 0.20571605,7.5154868 0.78629103,7.3874877 1.2822944,7.1360577 1.6937276,6.7611947 c 0.466287,-0.402285 0.6994315,-0.8548594 0.699434,-1.3577244 -2.5e-6,-0.050282 -0.00229,-0.1028533 -0.00686,-0.1577158 0.324571,0.077719 0.4868578,0.4571504 0.4868609,1.1382941 v 0.2811458 c -3.1e-6,3e-6 -0.00229,0.089146 -0.00686,0.26743 -3.1e-6,0.5668644 0.05714,0.9600094 0.1714299,1.1794377 0.2194268,0.3611472 0.4114281,0.5874344 0.5760045,0.6788627 h 0.6240049 v 1.1382951 h -0.768006 c -0.00915,0 -0.132576,-0.073144 -0.3702886,-0.2194303 C 2.7794478,9.5086452 2.6194467,9.1932146 2.6194495,8.763496 M 1.0422944,8.2972067 c 0.2194288,0.123431 0.4114301,0.1851455 0.5760045,0.1851445 0.187428,10e-7 0.3474291,-0.070856 0.4800037,-0.2125733 C 2.185158,8.1417788 2.2285869,7.9794921 2.2285893,7.7829167 2.2285869,7.6686325 2.2125868,7.5474895 2.180589,7.4194855 2.0891574,7.6709185 1.7097262,7.9634922 1.0422944,8.2972067"
     style="font-style:normal;font-variant:normal;font-weight:normal;font-stretch:normal;font-size:144px;font-family:'Linux Libertine O';-inkscape-font-specification:'Linux Libertine O';fill:#000000;fill-opacity:1;stroke:none;stroke-width:0.0975246px;stroke-linecap:butt;stroke-linejoin:miter;stroke-opacity:1" /></svg>
