<?xml version="1.0" encoding="UTF-8" standalone="no"?>
<svg
   xmlns:dc="http://purl.org/dc/elements/1.1/"
   xmlns:cc="http://creativecommons.org/ns#"
   xmlns:rdf="http://www.w3.org/1999/02/22-rdf-syntax-ns#"
   xmlns:svg="http://www.w3.org/2000/svg"
   xmlns="http://www.w3.org/2000/svg"
   xmlns:xlink="http://www.w3.org/1999/xlink"
   xml:space="preserve"
   id="svg3857"
   viewBox="0 0 119 9.0136805"
   height="9.0136805"
   width="119"
   version="1.1"><metadata
   id="metadata698"><rdf:RDF><cc:Work
       rdf:about=""><dc:format>image/svg+xml</dc:format><dc:type
         rdf:resource="http://purl.org/dc/dcmitype/StillImage" /><dc:title /></cc:Work></rdf:RDF></metadata>
<defs
   id="defs3"><radialGradient
     gradientTransform="matrix(1,0,0,-1,192.3999,143.0996)"
     gradientUnits="userSpaceOnUse"
     xlink:href="#SVGID_1_"
     id="radialGradient5395"
     r="68.686401"
     cy="87.823196"
     cx="-145.4702" /><radialGradient
     gradientTransform="matrix(1,0,0,-1,192.3999,143.0996)"
     gradientUnits="userSpaceOnUse"
     id="SVGID_1_"
     r="68.686401"
     cy="87.823196"
     cx="-145.4702"><stop
       offset="0"
       style="stop-color:#ffffff;stop-opacity:1"
       id="stop3922" /><stop
       offset="0.4835"
       style="stop-color:#eaeaeb;stop-opacity:1"
       id="stop3924" /><stop
       offset="0.94510001"
       style="stop-color:#a9abae;stop-opacity:1"
       id="stop3926" /><stop
       offset="1"
       style="stop-color:#999b9e;stop-opacity:1"
       id="stop3928" /></radialGradient><linearGradient
     gradientUnits="userSpaceOnUse"
     xlink:href="#SVGID_2_"
     id="linearGradient5391"
     y2="97.232101"
     x2="112.7331"
     y1="24.481001"
     x1="66.232399" /><linearGradient
     gradientUnits="userSpaceOnUse"
     id="SVGID_2_"
     y2="97.232101"
     x2="112.7331"
     y1="24.481001"
     x1="66.232399"><stop
       offset="0"
       style="stop-color:#8a8a8a;stop-opacity:1"
       id="stop3935" /><stop
       offset="0.56870002"
       style="stop-color:#606060;stop-opacity:1"
       id="stop3937" /><stop
       offset="0.59140003"
       style="stop-color:#ffffff;stop-opacity:1"
       id="stop3939" /><stop
       offset="0.61159998"
       style="stop-color:#585858;stop-opacity:1"
       id="stop3941" /><stop
       offset="1"
       style="stop-color:#303030;stop-opacity:1"
       id="stop3943" /></linearGradient><linearGradient
     gradientUnits="userSpaceOnUse"
     id="SVGID_3_"
     y2="111.1372"
     x2="55.350601"
     y1="17.762199"
     x1="35.350601"><stop
       offset="0"
       style="stop-color:#a8a9ab;stop-opacity:1"
       id="stop3950" /><stop
       offset="1"
       style="stop-color:#636668;stop-opacity:1"
       id="stop3952" /></linearGradient><linearGradient
     gradientUnits="userSpaceOnUse"
     id="SVGID_4_"
     y2="112.0642"
     x2="51.026798"
     y1="18.689501"
     x1="31.026899"><stop
       offset="0"
       style="stop-color:#a8a9ab;stop-opacity:1"
       id="stop3957" /><stop
       offset="1"
       style="stop-color:#636668;stop-opacity:1"
       id="stop3959" /></linearGradient><linearGradient
     gradientUnits="userSpaceOnUse"
     xlink:href="#SVGID_5_"
     id="linearGradient5379"
     y2="65.136703"
     x2="83.798798"
     y1="65.136703"
     x1="54.715801" /><linearGradient
     gradientUnits="userSpaceOnUse"
     id="SVGID_5_"
     y2="65.136703"
     x2="83.798798"
     y1="65.136703"
     x1="54.715801"><stop
       offset="0"
       style="stop-color:#231f20;stop-opacity:1"
       id="stop3964" /><stop
       offset="1"
       style="stop-color:#474747;stop-opacity:1"
       id="stop3966" /></linearGradient><linearGradient
     gradientTransform="matrix(1,0,0,-1,192.3999,143.0996)"
     gradientUnits="userSpaceOnUse"
     xlink:href="#SVGID_6_"
     id="linearGradient5363"
     y2="29.9035"
     x2="-94.069099"
     y1="119.8076"
     x1="-123.5898" /><linearGradient
     gradientTransform="matrix(1,0,0,-1,192.3999,143.0996)"
     gradientUnits="userSpaceOnUse"
     id="SVGID_6_"
     y2="29.9035"
     x2="-94.069099"
     y1="119.8076"
     x1="-123.5898"><stop
       offset="0"
       style="stop-color:#ffffff;stop-opacity:1"
       id="stop3997" /><stop
       offset="0.0094"
       style="stop-color:#fcfcfc;stop-opacity:1"
       id="stop3999" /><stop
       offset="0.0655"
       style="stop-color:#eeeeee;stop-opacity:1"
       id="stop4001" /><stop
       offset="0.13420001"
       style="stop-color:#e5e5e5;stop-opacity:1"
       id="stop4003" /><stop
       offset="0.25150001"
       style="stop-color:#e3e3e3;stop-opacity:1"
       id="stop4005" /><stop
       offset="0.33570001"
       style="stop-color:#8a8a8a;stop-opacity:1"
       id="stop4007" /><stop
       offset="0.44220001"
       style="stop-color:#b8b8b8;stop-opacity:1"
       id="stop4009" /><stop
       offset="1"
       style="stop-color:#3b3b3b;stop-opacity:1"
       id="stop4011" /></linearGradient><linearGradient
     gradientUnits="userSpaceOnUse"
     xlink:href="#SVGID_7_"
     id="linearGradient5360"
     y2="87.626701"
     x2="119.5471"
     y1="26.876499"
     x1="70.421898" /><linearGradient
     gradientUnits="userSpaceOnUse"
     id="SVGID_7_"
     y2="87.626701"
     x2="119.5471"
     y1="26.876499"
     x1="70.421898"><stop
       offset="0"
       style="stop-color:#eff0f0;stop-opacity:1"
       id="stop4016" /><stop
       offset="0.59140003"
       style="stop-color:#f0f1f2;stop-opacity:1"
       id="stop4018" /><stop
       offset="0.59899998"
       style="stop-color:#787878;stop-opacity:1"
       id="stop4020" /><stop
       offset="0.64560002"
       style="stop-color:#eeeff0;stop-opacity:1"
       id="stop4022" /><stop
       offset="1"
       style="stop-color:#d8d9db;stop-opacity:1"
       id="stop4024" /></linearGradient><linearGradient
     gradientTransform="matrix(1,0,0,-1,192.3999,143.0996)"
     gradientUnits="userSpaceOnUse"
     xlink:href="#SVGID_8_"
     id="linearGradient5357"
     y2="31.998501"
     x2="-87.569702"
     y1="122.1328"
     x1="-117.166" /><linearGradient
     gradientTransform="matrix(1,0,0,-1,192.3999,143.0996)"
     gradientUnits="userSpaceOnUse"
     id="SVGID_8_"
     y2="31.998501"
     x2="-87.569702"
     y1="122.1328"
     x1="-117.166"><stop
       offset="0"
       style="stop-color:#ffffff;stop-opacity:1"
       id="stop4029" /><stop
       offset="1"
       style="stop-color:#e4e5e6;stop-opacity:1"
       id="stop4031" /></linearGradient><linearGradient
     gradientUnits="userSpaceOnUse"
     xlink:href="#SVGID_9_"
     id="linearGradient5354"
     y2="106.3903"
     x2="79.683601"
     y1="25.2764"
     x1="54.653301" /><linearGradient
     gradientUnits="userSpaceOnUse"
     id="SVGID_9_"
     y2="106.3903"
     x2="79.683601"
     y1="25.2764"
     x1="54.653301"><stop
       offset="0"
       style="stop-color:#ffffff;stop-opacity:1"
       id="stop4036" /><stop
       offset="0.74730003"
       style="stop-color:#f9f9f9;stop-opacity:1"
       id="stop4038" /><stop
       offset="1"
       style="stop-color:#d5d7d8;stop-opacity:1"
       id="stop4040" /></linearGradient><linearGradient
     gradientTransform="matrix(1,0,0,-1,192.3999,143.0996)"
     gradientUnits="userSpaceOnUse"
     xlink:href="#SVGID_10_"
     id="linearGradient5343"
     y2="24.6462"
     x2="-134.85719"
     y1="119.6328"
     x1="-115.3369" /><linearGradient
     gradientTransform="matrix(1,0,0,-1,192.3999,143.0996)"
     gradientUnits="userSpaceOnUse"
     id="SVGID_10_"
     y2="24.6462"
     x2="-134.85719"
     y1="119.6328"
     x1="-115.3369"><stop
       offset="0"
       style="stop-color:#ffffff;stop-opacity:1"
       id="stop4061" /><stop
       offset="1"
       style="stop-color:#e4e5e6;stop-opacity:1"
       id="stop4063" /></linearGradient><linearGradient
     gradientUnits="userSpaceOnUse"
     xlink:href="#SVGID_11_"
     id="linearGradient5340"
     y2="92.496101"
     x2="37.2481"
     y1="33.077099"
     x1="32.519001" /><linearGradient
     gradientUnits="userSpaceOnUse"
     id="SVGID_11_"
     y2="92.496101"
     x2="37.2481"
     y1="33.077099"
     x1="32.519001"><stop
       offset="0.2198"
       style="stop-color:#989a9c;stop-opacity:1"
       id="stop4068" /><stop
       offset="0.2527"
       style="stop-color:#ffffff;stop-opacity:1"
       id="stop4070" /></linearGradient><linearGradient
     gradientTransform="matrix(1,0,0,-1,192.3999,143.0996)"
     gradientUnits="userSpaceOnUse"
     xlink:href="#SVGID_12_"
     id="linearGradient5337"
     y2="32.797901"
     x2="-171.9462"
     y1="126.8398"
     x1="-152.6201" /><linearGradient
     gradientTransform="matrix(1,0,0,-1,192.3999,143.0996)"
     gradientUnits="userSpaceOnUse"
     id="SVGID_12_"
     y2="32.797901"
     x2="-171.9462"
     y1="126.8398"
     x1="-152.6201"><stop
       offset="0"
       style="stop-color:#ffffff;stop-opacity:1"
       id="stop4075" /><stop
       offset="1"
       style="stop-color:#e4e5e6;stop-opacity:1"
       id="stop4077" /></linearGradient><linearGradient
     gradientTransform="matrix(1,0,0,-1,192.3999,143.0996)"
     gradientUnits="userSpaceOnUse"
     xlink:href="#SVGID_13_"
     id="linearGradient5334"
     y2="35.585701"
     x2="-130.14281"
     y1="35.625"
     x1="-130.1348" /><linearGradient
     gradientTransform="matrix(1,0,0,-1,192.3999,143.0996)"
     gradientUnits="userSpaceOnUse"
     id="SVGID_13_"
     y2="35.585701"
     x2="-130.14281"
     y1="35.625"
     x1="-130.1348"><stop
       offset="0"
       style="stop-color:#ffffff;stop-opacity:1"
       id="stop4082" /><stop
       offset="1"
       style="stop-color:#e4e5e6;stop-opacity:1"
       id="stop4084" /></linearGradient><linearGradient
     gradientTransform="matrix(1,0,0,-1,192.3999,143.0996)"
     gradientUnits="userSpaceOnUse"
     xlink:href="#SVGID_14_"
     id="linearGradient5329"
     y2="25.888"
     x2="-140.54491"
     y1="120.3223"
     x1="-121.1382" /><linearGradient
     gradientTransform="matrix(1,0,0,-1,192.3999,143.0996)"
     gradientUnits="userSpaceOnUse"
     id="SVGID_14_"
     y2="25.888"
     x2="-140.54491"
     y1="120.3223"
     x1="-121.1382"><stop
       offset="0"
       style="stop-color:#ffffff;stop-opacity:1"
       id="stop4093" /><stop
       offset="1"
       style="stop-color:#e4e5e6;stop-opacity:1"
       id="stop4095" /></linearGradient><linearGradient
     gradientTransform="matrix(1,0,0,-1,192.3999,143.0996)"
     gradientUnits="userSpaceOnUse"
     xlink:href="#SVGID_15_"
     id="linearGradient5326"
     y2="28.8524"
     x2="-155.006"
     y1="123.3525"
     x1="-135.58591" /><linearGradient
     gradientTransform="matrix(1,0,0,-1,192.3999,143.0996)"
     gradientUnits="userSpaceOnUse"
     id="SVGID_15_"
     y2="28.8524"
     x2="-155.006"
     y1="123.3525"
     x1="-135.58591"><stop
       offset="0"
       style="stop-color:#ffffff;stop-opacity:1"
       id="stop4100" /><stop
       offset="1"
       style="stop-color:#e4e5e6;stop-opacity:1"
       id="stop4102" /></linearGradient><linearGradient
     gradientTransform="matrix(1,0,0,-1,192.3999,143.0996)"
     gradientUnits="userSpaceOnUse"
     xlink:href="#SVGID_16_"
     id="linearGradient5323"
     y2="27.1346"
     x2="-146.8837"
     y1="121.9365"
     x1="-127.4014" /><linearGradient
     gradientTransform="matrix(1,0,0,-1,192.3999,143.0996)"
     gradientUnits="userSpaceOnUse"
     id="SVGID_16_"
     y2="27.1346"
     x2="-146.8837"
     y1="121.9365"
     x1="-127.4014"><stop
       offset="0"
       style="stop-color:#ffffff;stop-opacity:1"
       id="stop4107" /><stop
       offset="1"
       style="stop-color:#e4e5e6;stop-opacity:1"
       id="stop4109" /></linearGradient><linearGradient
     gradientTransform="matrix(1,0,0,-1,192.3999,143.0996)"
     gradientUnits="userSpaceOnUse"
     xlink:href="#SVGID_17_"
     id="linearGradient5320"
     y2="24.9438"
     x2="-138.85201"
     y1="124.0039"
     x1="-118.4946" /><linearGradient
     gradientTransform="matrix(1,0,0,-1,192.3999,143.0996)"
     gradientUnits="userSpaceOnUse"
     id="SVGID_17_"
     y2="24.9438"
     x2="-138.85201"
     y1="124.0039"
     x1="-118.4946"><stop
       offset="0"
       style="stop-color:#ffffff;stop-opacity:1"
       id="stop4114" /><stop
       offset="1"
       style="stop-color:#e4e5e6;stop-opacity:1"
       id="stop4116" /></linearGradient><linearGradient
     gradientTransform="matrix(1,0,0,-1,192.3999,143.0996)"
     gradientUnits="userSpaceOnUse"
     xlink:href="#SVGID_18_"
     id="linearGradient5317"
     y2="24.695299"
     x2="-134.7878"
     y1="119.1758"
     x1="-115.3716" /><linearGradient
     gradientTransform="matrix(1,0,0,-1,192.3999,143.0996)"
     gradientUnits="userSpaceOnUse"
     id="SVGID_18_"
     y2="24.695299"
     x2="-134.7878"
     y1="119.1758"
     x1="-115.3716"><stop
       offset="0"
       style="stop-color:#ffffff;stop-opacity:1"
       id="stop4121" /><stop
       offset="1"
       style="stop-color:#e4e5e6;stop-opacity:1"
       id="stop4123" /></linearGradient><linearGradient
     gradientTransform="matrix(1,0,0,-1,192.3999,143.0996)"
     gradientUnits="userSpaceOnUse"
     id="SVGID_19_"
     y2="60.396"
     x2="-168.6685"
     y1="60.396"
     x1="-168.85941"><stop
       offset="0"
       style="stop-color:#808080;stop-opacity:1"
       id="stop4158" /><stop
       offset="0.0868"
       style="stop-color:#7a7a7a;stop-opacity:1"
       id="stop4160" /><stop
       offset="0.36000001"
       style="stop-color:#6b6b6b;stop-opacity:1"
       id="stop4162" /><stop
       offset="0.51920003"
       style="stop-color:#686868;stop-opacity:1"
       id="stop4164" /><stop
       offset="0.63770002"
       style="stop-color:#5f5f5f;stop-opacity:1"
       id="stop4166" /><stop
       offset="0.74309999"
       style="stop-color:#4e4e4e;stop-opacity:1"
       id="stop4168" /><stop
       offset="0.84079999"
       style="stop-color:#383838;stop-opacity:1"
       id="stop4170" /><stop
       offset="0.93239999"
       style="stop-color:#1b1b1b;stop-opacity:1"
       id="stop4172" /><stop
       offset="1"
       style="stop-color:#000000;stop-opacity:1"
       id="stop4174" /></linearGradient><linearGradient
     gradientTransform="matrix(1,0,0,-1,192.3999,143.0996)"
     gradientUnits="userSpaceOnUse"
     id="SVGID_20_"
     y2="65.153801"
     x2="-74.015099"
     y1="65.153801"
     x1="-168.64011"><stop
       offset="0"
       style="stop-color:#808080;stop-opacity:1"
       id="stop4179" /><stop
       offset="0.0868"
       style="stop-color:#7a7a7a;stop-opacity:1"
       id="stop4181" /><stop
       offset="0.38170001"
       style="stop-color:#828282;stop-opacity:1"
       id="stop4183" /><stop
       offset="0.51849997"
       style="stop-color:#808080;stop-opacity:1"
       id="stop4185" /><stop
       offset="0.56770003"
       style="stop-color:#797979;stop-opacity:1"
       id="stop4187" /><stop
       offset="0.6027"
       style="stop-color:#6e6e6e;stop-opacity:1"
       id="stop4189" /><stop
       offset="0.60799998"
       style="stop-color:#6b6b6b;stop-opacity:1"
       id="stop4191" /><stop
       offset="1"
       style="stop-color:#4e4e4e;stop-opacity:1"
       id="stop4193" /></linearGradient><linearGradient
     gradientTransform="matrix(1,0,0,-1,192.3999,143.0996)"
     gradientUnits="userSpaceOnUse"
     xlink:href="#SVGID_21_"
     id="linearGradient5278"
     y2="83.6045"
     x2="-75.6362"
     y1="83.6045"
     x1="-175.4424" /><linearGradient
     gradientTransform="matrix(1,0,0,-1,192.3999,143.0996)"
     gradientUnits="userSpaceOnUse"
     id="SVGID_21_"
     y2="83.6045"
     x2="-75.6362"
     y1="83.6045"
     x1="-175.4424"><stop
       offset="0"
       style="stop-color:#555555;stop-opacity:1"
       id="stop4198" /><stop
       offset="1"
       style="stop-color:#231f20;stop-opacity:1"
       id="stop4200" /></linearGradient><linearGradient
     gradientTransform="matrix(1,0,0,-1,192.3999,143.0996)"
     gradientUnits="userSpaceOnUse"
     xlink:href="#SVGID_22_"
     id="linearGradient5275"
     y2="104.0801"
     x2="-83.541"
     y1="104.0801"
     x1="-175.14211" /><linearGradient
     gradientTransform="matrix(1,0,0,-1,192.3999,143.0996)"
     gradientUnits="userSpaceOnUse"
     id="SVGID_22_"
     y2="104.0801"
     x2="-83.541"
     y1="104.0801"
     x1="-175.14211"><stop
       offset="0"
       style="stop-color:#a0a0a0;stop-opacity:1"
       id="stop4205" /><stop
       offset="0.0769"
       style="stop-color:#656767;stop-opacity:1"
       id="stop4207" /><stop
       offset="1"
       style="stop-color:#717375;stop-opacity:1"
       id="stop4209" /></linearGradient><linearGradient
     gradientTransform="matrix(1,0,0,-1,192.3999,143.0996)"
     gradientUnits="userSpaceOnUse"
     xlink:href="#SVGID_23_"
     id="linearGradient5267"
     y2="78.209"
     x2="-172.3853"
     y1="78.209"
     x1="-172.3853" /><linearGradient
     gradientTransform="matrix(1,0,0,-1,192.3999,143.0996)"
     gradientUnits="userSpaceOnUse"
     id="SVGID_23_"
     y2="78.209"
     x2="-172.3853"
     y1="78.209"
     x1="-172.3853"><stop
       offset="0"
       style="stop-color:#ffffff;stop-opacity:1"
       id="stop4224" /><stop
       offset="0.078"
       style="stop-color:#f4f4f4;stop-opacity:1"
       id="stop4226" /><stop
       offset="0.38069999"
       style="stop-color:#cecece;stop-opacity:1"
       id="stop4228" /><stop
       offset="0.53960001"
       style="stop-color:#bfbfbf;stop-opacity:1"
       id="stop4230" /><stop
       offset="0.83569998"
       style="stop-color:#7c7c7c;stop-opacity:1"
       id="stop4232" /><stop
       offset="0.89960003"
       style="stop-color:#a8a8a8;stop-opacity:1"
       id="stop4234" /><stop
       offset="0.90930003"
       style="stop-color:#9a9a9a;stop-opacity:1"
       id="stop4236" /><stop
       offset="0.93269998"
       style="stop-color:#7d7d7d;stop-opacity:1"
       id="stop4238" /><stop
       offset="0.9558"
       style="stop-color:#686868;stop-opacity:1"
       id="stop4240" /><stop
       offset="0.97850001"
       style="stop-color:#5b5b5b;stop-opacity:1"
       id="stop4242" /><stop
       offset="1"
       style="stop-color:#575757;stop-opacity:1"
       id="stop4244" /></linearGradient><linearGradient
     gradientTransform="matrix(1,0,0,-1,192.3999,143.0996)"
     gradientUnits="userSpaceOnUse"
     xlink:href="#SVGID_24_"
     id="linearGradient5264"
     y2="90.476799"
     x2="-67.153198"
     y1="78.449203"
     x1="-175.7173" /><linearGradient
     gradientTransform="matrix(1,0,0,-1,192.3999,143.0996)"
     gradientUnits="userSpaceOnUse"
     id="SVGID_24_"
     y2="90.476799"
     x2="-67.153198"
     y1="78.449203"
     x1="-175.7173"><stop
       offset="0"
       style="stop-color:#ffffff;stop-opacity:1"
       id="stop4249" /><stop
       offset="0.078"
       style="stop-color:#f4f4f4;stop-opacity:1"
       id="stop4251" /><stop
       offset="0.38069999"
       style="stop-color:#cecece;stop-opacity:1"
       id="stop4253" /><stop
       offset="0.53960001"
       style="stop-color:#bfbfbf;stop-opacity:1"
       id="stop4255" /><stop
       offset="0.83569998"
       style="stop-color:#7c7c7c;stop-opacity:1"
       id="stop4257" /><stop
       offset="0.89960003"
       style="stop-color:#a8a8a8;stop-opacity:1"
       id="stop4259" /><stop
       offset="0.90930003"
       style="stop-color:#9a9a9a;stop-opacity:1"
       id="stop4261" /><stop
       offset="0.93269998"
       style="stop-color:#7d7d7d;stop-opacity:1"
       id="stop4263" /><stop
       offset="0.9558"
       style="stop-color:#686868;stop-opacity:1"
       id="stop4265" /><stop
       offset="0.97850001"
       style="stop-color:#5b5b5b;stop-opacity:1"
       id="stop4267" /><stop
       offset="1"
       style="stop-color:#575757;stop-opacity:1"
       id="stop4269" /></linearGradient><linearGradient
     gradientTransform="matrix(1,0,0,-1,192.3999,143.0996)"
     gradientUnits="userSpaceOnUse"
     xlink:href="#SVGID_25_"
     id="linearGradient5261"
     y2="92.223099"
     x2="-52.131699"
     y1="78.4795"
     x1="-176.1851" /><linearGradient
     gradientTransform="matrix(1,0,0,-1,192.3999,143.0996)"
     gradientUnits="userSpaceOnUse"
     id="SVGID_25_"
     y2="92.223099"
     x2="-52.131699"
     y1="78.4795"
     x1="-176.1851"><stop
       offset="0"
       style="stop-color:#ffffff;stop-opacity:1"
       id="stop4274" /><stop
       offset="0.078"
       style="stop-color:#f4f4f4;stop-opacity:1"
       id="stop4276" /><stop
       offset="0.38069999"
       style="stop-color:#cecece;stop-opacity:1"
       id="stop4278" /><stop
       offset="0.53960001"
       style="stop-color:#bfbfbf;stop-opacity:1"
       id="stop4280" /><stop
       offset="0.83569998"
       style="stop-color:#7c7c7c;stop-opacity:1"
       id="stop4282" /><stop
       offset="0.89960003"
       style="stop-color:#a8a8a8;stop-opacity:1"
       id="stop4284" /><stop
       offset="0.90930003"
       style="stop-color:#9a9a9a;stop-opacity:1"
       id="stop4286" /><stop
       offset="0.93269998"
       style="stop-color:#7d7d7d;stop-opacity:1"
       id="stop4288" /><stop
       offset="0.9558"
       style="stop-color:#686868;stop-opacity:1"
       id="stop4290" /><stop
       offset="0.97850001"
       style="stop-color:#5b5b5b;stop-opacity:1"
       id="stop4292" /><stop
       offset="1"
       style="stop-color:#575757;stop-opacity:1"
       id="stop4294" /></linearGradient><linearGradient
     gradientUnits="userSpaceOnUse"
     xlink:href="#SVGID_26_"
     id="linearGradient5258"
     y2="51.952599"
     x2="117.1948"
     y1="71.326698"
     x1="21.2129" /><linearGradient
     gradientUnits="userSpaceOnUse"
     id="SVGID_26_"
     y2="51.952599"
     x2="117.1948"
     y1="71.326698"
     x1="21.2129"><stop
       offset="0"
       style="stop-color:#ededee;stop-opacity:1"
       id="stop4299" /><stop
       offset="0.41760001"
       style="stop-color:#ffffff;stop-opacity:1"
       id="stop4301" /><stop
       offset="0.62639999"
       style="stop-color:#f8f9f9;stop-opacity:1"
       id="stop4303" /><stop
       offset="1"
       style="stop-color:#bfc0c2;stop-opacity:1"
       id="stop4305" /></linearGradient><linearGradient
     gradientUnits="userSpaceOnUse"
     xlink:href="#SVGID_27_"
     id="linearGradient5252"
     y2="30.732401"
     x2="27.9561"
     y1="30.732401"
     x1="23.471201" /><linearGradient
     gradientUnits="userSpaceOnUse"
     id="SVGID_27_"
     y2="30.732401"
     x2="27.9561"
     y1="30.732401"
     x1="23.471201"><stop
       offset="0"
       style="stop-color:#e2e3e4;stop-opacity:1"
       id="stop4316" /><stop
       offset="0.50550002"
       style="stop-color:#ffffff;stop-opacity:1"
       id="stop4318" /></linearGradient><linearGradient
     gradientUnits="userSpaceOnUse"
     id="SVGID_28_"
     y2="60.048599"
     x2="118.9646"
     y1="82.586899"
     x1="24.2041"><stop
       offset="0"
       style="stop-color:#ededee;stop-opacity:1"
       id="stop4675" /><stop
       offset="0.41760001"
       style="stop-color:#ffffff;stop-opacity:1"
       id="stop4677" /><stop
       offset="0.62639999"
       style="stop-color:#f8f9f9;stop-opacity:1"
       id="stop4679" /><stop
       offset="0.95050001"
       style="stop-color:#b2b4b6;stop-opacity:1"
       id="stop4681" /></linearGradient><linearGradient
     gradientUnits="userSpaceOnUse"
     id="SVGID_29_"
     y2="70.259804"
     x2="121.781"
     y1="92.884804"
     x1="26.6558"><stop
       offset="0"
       style="stop-color:#ededee;stop-opacity:1"
       id="stop4686" /><stop
       offset="0.41760001"
       style="stop-color:#ffffff;stop-opacity:1"
       id="stop4688" /><stop
       offset="0.62639999"
       style="stop-color:#f8f9f9;stop-opacity:1"
       id="stop4690" /><stop
       offset="0.95050001"
       style="stop-color:#b2b4b6;stop-opacity:1"
       id="stop4692" /></linearGradient><linearGradient
     gradientUnits="userSpaceOnUse"
     id="SVGID_30_"
     y2="65.119499"
     x2="120.5521"
     y1="87.743202"
     x1="25.4326"><stop
       offset="0"
       style="stop-color:#ededee;stop-opacity:1"
       id="stop4697" /><stop
       offset="0.41760001"
       style="stop-color:#ffffff;stop-opacity:1"
       id="stop4699" /><stop
       offset="0.62639999"
       style="stop-color:#f8f9f9;stop-opacity:1"
       id="stop4701" /><stop
       offset="0.95050001"
       style="stop-color:#b2b4b6;stop-opacity:1"
       id="stop4703" /></linearGradient><linearGradient
     gradientUnits="userSpaceOnUse"
     id="SVGID_31_"
     y2="62.178501"
     x2="119.8431"
     y1="84.799797"
     x1="24.7334"><stop
       offset="0"
       style="stop-color:#ededee;stop-opacity:1"
       id="stop4708" /><stop
       offset="0.41760001"
       style="stop-color:#ffffff;stop-opacity:1"
       id="stop4710" /><stop
       offset="0.62639999"
       style="stop-color:#f8f9f9;stop-opacity:1"
       id="stop4712" /><stop
       offset="0.95050001"
       style="stop-color:#b2b4b6;stop-opacity:1"
       id="stop4714" /></linearGradient><linearGradient
     gradientUnits="userSpaceOnUse"
     id="SVGID_32_"
     y2="62.814899"
     x2="119.7705"
     y1="85.384804"
     x1="24.877001"><stop
       offset="0"
       style="stop-color:#ededee;stop-opacity:1"
       id="stop4719" /><stop
       offset="0.41760001"
       style="stop-color:#ffffff;stop-opacity:1"
       id="stop4721" /><stop
       offset="0.62639999"
       style="stop-color:#f8f9f9;stop-opacity:1"
       id="stop4723" /><stop
       offset="0.95050001"
       style="stop-color:#b2b4b6;stop-opacity:1"
       id="stop4725" /></linearGradient><linearGradient
     gradientUnits="userSpaceOnUse"
     id="SVGID_33_"
     y2="67.762299"
     x2="121.1816"
     y1="90.374001"
     x1="26.112301"><stop
       offset="0"
       style="stop-color:#ededee;stop-opacity:1"
       id="stop4730" /><stop
       offset="0.41760001"
       style="stop-color:#ffffff;stop-opacity:1"
       id="stop4732" /><stop
       offset="0.62639999"
       style="stop-color:#f8f9f9;stop-opacity:1"
       id="stop4734" /><stop
       offset="0.95050001"
       style="stop-color:#b2b4b6;stop-opacity:1"
       id="stop4736" /></linearGradient><linearGradient
     gradientUnits="userSpaceOnUse"
     xlink:href="#SVGID_34_"
     id="linearGradient5036"
     y2="29.204"
     x2="111.5455"
     y1="49.7188"
     x1="22.5742" /><linearGradient
     gradientUnits="userSpaceOnUse"
     id="SVGID_34_"
     y2="29.204"
     x2="111.5455"
     y1="49.7188"
     x1="22.5742"><stop
       offset="0"
       style="stop-color:#ffffff;stop-opacity:1"
       id="stop4743" /><stop
       offset="0.65380001"
       style="stop-color:#ffffff;stop-opacity:1"
       id="stop4745" /><stop
       offset="1"
       style="stop-color:#cbccce;stop-opacity:1"
       id="stop4747" /></linearGradient><linearGradient
     gradientTransform="matrix(1,0,0,-1,192.3999,143.0996)"
     gradientUnits="userSpaceOnUse"
     xlink:href="#SVGID_35_"
     id="linearGradient5024"
     y2="107.0898"
     x2="-126.4229"
     y1="107.0898"
     x1="-158.8101" /><linearGradient
     gradientTransform="matrix(1,0,0,-1,192.3999,143.0996)"
     gradientUnits="userSpaceOnUse"
     id="SVGID_35_"
     y2="107.0898"
     x2="-126.4229"
     y1="107.0898"
     x1="-158.8101"><stop
       offset="0"
       style="stop-color:#696969;stop-opacity:1"
       id="stop4770" /><stop
       offset="0.37020001"
       style="stop-color:#2e2e2e;stop-opacity:1"
       id="stop4772" /><stop
       offset="0.45539999"
       style="stop-color:#424242;stop-opacity:1"
       id="stop4774" /><stop
       offset="0.60140002"
       style="stop-color:#303030;stop-opacity:1"
       id="stop4776" /><stop
       offset="0.6947"
       style="stop-color:#4a4a4a;stop-opacity:1"
       id="stop4778" /><stop
       offset="1"
       style="stop-color:#666666;stop-opacity:1"
       id="stop4780" /></linearGradient><linearGradient
     gradientTransform="matrix(1,0,0,-1,192.3999,143.0996)"
     gradientUnits="userSpaceOnUse"
     xlink:href="#SVGID_36_"
     id="linearGradient5021"
     y2="107.8965"
     x2="-126.5454"
     y1="107.8965"
     x1="-158.4185" /><linearGradient
     gradientTransform="matrix(1,0,0,-1,192.3999,143.0996)"
     gradientUnits="userSpaceOnUse"
     id="SVGID_36_"
     y2="107.8965"
     x2="-126.5454"
     y1="107.8965"
     x1="-158.4185"><stop
       offset="0"
       style="stop-color:#525252;stop-opacity:1"
       id="stop4785" /><stop
       offset="0.1856"
       style="stop-color:#333333;stop-opacity:1"
       id="stop4787" /><stop
       offset="0.354"
       style="stop-color:#aeaeae;stop-opacity:1"
       id="stop4789" /><stop
       offset="0.4199"
       style="stop-color:#adadad;stop-opacity:1"
       id="stop4791" /><stop
       offset="0.4276"
       style="stop-color:#9d9d9d;stop-opacity:1"
       id="stop4793" /><stop
       offset="0.44330001"
       style="stop-color:#818181;stop-opacity:1"
       id="stop4795" /><stop
       offset="0.46110001"
       style="stop-color:#6a6a6a;stop-opacity:1"
       id="stop4797" /><stop
       offset="0.48140001"
       style="stop-color:#585858;stop-opacity:1"
       id="stop4799" /><stop
       offset="0.50599998"
       style="stop-color:#4c4c4c;stop-opacity:1"
       id="stop4801" /><stop
       offset="0.53899997"
       style="stop-color:#444444;stop-opacity:1"
       id="stop4803" /><stop
       offset="0.61659998"
       style="stop-color:#424242;stop-opacity:1"
       id="stop4805" /><stop
       offset="0.66839999"
       style="stop-color:#454545;stop-opacity:1"
       id="stop4807" /><stop
       offset="1"
       style="stop-color:#bdbdbd;stop-opacity:1"
       id="stop4809" /></linearGradient><linearGradient
     gradientTransform="matrix(1,0,0,-1,192.3999,143.0996)"
     gradientUnits="userSpaceOnUse"
     xlink:href="#SVGID_37_"
     id="linearGradient5018"
     y2="104.4332"
     x2="-154.15421"
     y1="97.627899"
     x1="-153.1255" /><linearGradient
     gradientTransform="matrix(1,0,0,-1,192.3999,143.0996)"
     gradientUnits="userSpaceOnUse"
     id="SVGID_37_"
     y2="104.4332"
     x2="-154.15421"
     y1="97.627899"
     x1="-153.1255"><stop
       offset="0"
       style="stop-color:#969696;stop-opacity:1"
       id="stop4814" /><stop
       offset="1"
       style="stop-color:#000000;stop-opacity:1"
       id="stop4816" /></linearGradient><linearGradient
     gradientUnits="userSpaceOnUse"
     xlink:href="#SVGID_38_"
     id="linearGradient5013"
     y2="38.790001"
     x2="39.487301"
     y1="46.373001"
     x1="38.737301" /><linearGradient
     gradientUnits="userSpaceOnUse"
     id="SVGID_38_"
     y2="38.790001"
     x2="39.487301"
     y1="46.373001"
     x1="38.737301"><stop
       offset="0"
       style="stop-color:#333333;stop-opacity:1"
       id="stop4825" /><stop
       offset="0.43099999"
       style="stop-color:#000000;stop-opacity:1"
       id="stop4827" /><stop
       offset="1"
       style="stop-color:#2e2e2e;stop-opacity:1"
       id="stop4829" /></linearGradient><radialGradient
     gradientTransform="matrix(1,0,0,-1,192.3999,143.0996)"
     gradientUnits="userSpaceOnUse"
     id="SVGID_39_"
     r="72.751701"
     cy="106.5996"
     cx="-138.2334"><stop
       offset="0"
       style="stop-color:#000000;stop-opacity:0"
       id="stop4840" /><stop
       offset="0.80220002"
       style="stop-color:#000000;stop-opacity:0.08"
       id="stop4842" /><stop
       offset="1"
       style="stop-color:#000000;stop-opacity:0.3882353"
       id="stop4844" /></radialGradient><radialGradient
     gradientTransform="matrix(1,0,0,-1,192.3999,143.0996)"
     gradientUnits="userSpaceOnUse"
     xlink:href="#SVGID_39_"
     id="radialGradient4174"
     r="72.751701"
     cy="106.5996"
     cx="-138.2334" /></defs>




<g
   style="font-style:normal;font-variant:normal;font-weight:normal;font-stretch:normal;font-size:13px;line-height:125%;font-family:Quivira;-inkscape-font-specification:Quivira;letter-spacing:0px;word-spacing:0px;fill:#000000;fill-opacity:1;stroke:none"
   id="The_Free_Encyclopedia"
   transform="matrix(0.95027762,0,0,1,86.57066,-138.0498)"><path
     id="path3711"
     d="m -88.878708,147 v -0.25391 h 0.317383 c 0.296221,0 0.528968,-0.11637 0.698242,-0.34912 0.169267,-0.23274 0.253903,-0.45491 0.253906,-0.6665 v -2.85645 h -2.221679 c -0.21159,1e-5 -0.433758,0.0846 -0.666504,0.25391 -0.232748,0.16927 -0.349122,0.40202 -0.349121,0.69824 v 0.31738 h -0.253907 v -3.17382 h 0.253907 v 0.31738 c -10e-7,0.29623 0.116373,0.52898 0.349121,0.69824 0.232746,0.16928 0.454914,0.25391 0.666504,0.25391 h 2.221679 v -2.85645 c -3e-6,-0.21158 -0.08464,-0.43375 -0.253906,-0.6665 -0.169274,-0.23274 -0.402021,-0.34911 -0.698242,-0.34912 h -0.317383 v -0.25391 h 3.808594 v 0.25391 h -0.317383 c -0.29623,1e-5 -0.528977,0.11638 -0.698242,0.34912 -0.169276,0.23275 -0.253911,0.45492 -0.253906,0.6665 v 2.85645 h 2.221679 c 0.211581,0 0.433749,-0.0846 0.666504,-0.25391 0.232739,-0.16926 0.349113,-0.40201 0.349121,-0.69824 v -0.31738 h 0.253907 v 3.17382 h -0.253907 v -0.31738 c -8e-6,-0.29622 -0.116382,-0.52897 -0.349121,-0.69824 -0.232755,-0.16927 -0.454923,-0.2539 -0.666504,-0.25391 h -2.221679 v 2.85645 c -5e-6,0.21159 0.08463,0.43376 0.253906,0.6665 0.169265,0.23275 0.402012,0.34912 0.698242,0.34912 h 0.317383 V 147 Z" /><path
     id="path3713"
     d="m -80.309372,143.25488 c 0.334307,10e-6 0.653806,0.0815 0.958496,0.24439 0.304684,0.16292 0.538489,0.39673 0.701416,0.70141 0.162919,0.30469 0.244381,0.62419 0.244385,0.9585 -4e-6,0.33431 -0.08147,0.65381 -0.244385,0.9585 -0.162927,0.30468 -0.396732,0.53849 -0.701416,0.70141 -0.30469,0.16292 -0.624189,0.24439 -0.958496,0.24439 -0.334312,0 -0.65381,-0.0815 -0.958496,-0.24439 -0.304689,-0.16292 -0.538494,-0.39673 -0.701416,-0.70141 -0.162924,-0.30469 -0.244385,-0.62419 -0.244385,-0.9585 0,-0.33431 0.08146,-0.65381 0.244385,-0.9585 0.162922,-0.30468 0.396727,-0.53849 0.701416,-0.70141 0.304686,-0.16292 0.624184,-0.24438 0.958496,-0.24439 z m 0,0.63477 c -0.11426,0 -0.22217,0.054 -0.32373,0.16186 -0.101565,0.10792 -0.178794,0.26343 -0.23169,0.46656 -0.0529,0.20312 -0.07935,0.41683 -0.07935,0.64111 -10e-7,0.22429 0.02645,0.43799 0.07935,0.64111 0.0529,0.20313 0.130125,0.35865 0.23169,0.46656 0.10156,0.10791 0.20947,0.16186 0.32373,0.16186 0.114256,0 0.222166,-0.0539 0.323731,-0.16186 0.101559,-0.10791 0.178789,-0.26343 0.231689,-0.46656 0.05289,-0.20312 0.07934,-0.41682 0.07935,-0.64111 -3e-6,-0.22428 -0.02645,-0.43799 -0.07935,-0.64111 -0.0529,-0.20313 -0.13013,-0.35864 -0.231689,-0.46656 -0.101565,-0.1079 -0.209475,-0.16186 -0.323731,-0.16186 z" /><path
     id="path3715"
     d="m -74.786911,138.74805 1.694824,2.93896 2.056641,-2.93896 z m -1.11084,0.60302 c -0.152346,-0.20311 -0.338543,-0.4147 -0.558594,-0.63476 -0.232748,-0.23274 -0.497234,-0.34911 -0.793457,-0.34912 h -0.317382 v -0.25391 h 8.696289 v 0.25391 h -0.317383 c -0.296233,1e-5 -0.590341,0.11638 -0.882324,0.34912 -0.241219,0.19044 -0.427417,0.37452 -0.558594,0.55224 l -0.08252,0.11426 -2.03125,2.90723 2.024903,3.51025 c 0.122714,0.19043 0.2941,0.38933 0.51416,0.59668 0.245434,0.23275 0.516267,0.34912 0.8125,0.34912 h 0.317383 V 147 h -3.808594 v -0.25391 h 0.317383 c 0.296218,0 0.454909,-0.11637 0.476074,-0.34912 0.0042,-0.0381 0.0063,-0.0762 0.0063,-0.11426 -6e-6,-0.18196 -0.04232,-0.35758 -0.126954,-0.52685 l -1.339355,-2.32324 -1.605957,2.29785 c -0.13542,0.21159 -0.203128,0.43376 -0.203125,0.6665 -3e-6,0.23275 0.148109,0.34912 0.444336,0.34912 h 0.317383 V 147 h -3.173828 v -0.25391 h 0.317382 c 0.296223,0 0.581868,-0.11637 0.856934,-0.34912 0.258136,-0.21582 0.47184,-0.42529 0.641113,-0.62842 l 2.056641,-2.93896 z" /><path
     id="path3717"
     d="m -64.097458,138.0498 c 1.239903,1e-5 2.237542,0.43377 2.99292,1.30127 0.755363,0.86752 1.133048,1.93605 1.133057,3.20557 -9e-6,1.27377 -0.380868,2.34335 -1.142578,3.20874 -0.761726,0.8654 -1.756191,1.2981 -2.983399,1.2981 -1.227217,0 -2.221682,-0.4327 -2.983398,-1.2981 -0.76172,-0.86539 -1.142579,-1.93497 -1.142578,-3.20874 -10e-7,-1.26952 0.377684,-2.33805 1.133056,-3.20557 0.755369,-0.8675 1.753008,-1.30126 2.99292,-1.30127 z m 0,0.63477 c -0.901371,1e-5 -1.602786,0.40943 -2.104248,1.22827 -0.501467,0.81886 -0.752199,1.70012 -0.752197,2.6438 -2e-6,0.92676 0.25073,1.8038 0.752197,2.6311 0.501462,0.82732 1.202877,1.24097 2.104248,1.24097 0.888667,0 1.586908,-0.41365 2.094727,-1.24097 0.507805,-0.8273 0.761711,-1.70434 0.761718,-2.6311 -7e-6,-0.94368 -0.253913,-1.82494 -0.761718,-2.6438 -0.507819,-0.81884 -1.20606,-1.22826 -2.094727,-1.22827 z" /><path
     id="path3719"
     d="m -57.432419,143.25488 c 0.334308,10e-6 0.653806,0.0815 0.958496,0.24439 0.304684,0.16292 0.538489,0.39673 0.701416,0.70141 0.162919,0.30469 0.244381,0.62419 0.244385,0.9585 -4e-6,0.33431 -0.08147,0.65381 -0.244385,0.9585 -0.162927,0.30468 -0.396732,0.53849 -0.701416,0.70141 -0.30469,0.16292 -0.624188,0.24439 -0.958496,0.24439 -0.334312,0 -0.65381,-0.0815 -0.958496,-0.24439 -0.304688,-0.16292 -0.538493,-0.39673 -0.701416,-0.70141 -0.162924,-0.30469 -0.244385,-0.62419 -0.244385,-0.9585 0,-0.33431 0.08146,-0.65381 0.244385,-0.9585 0.162923,-0.30468 0.396728,-0.53849 0.701416,-0.70141 0.304686,-0.16292 0.624184,-0.24438 0.958496,-0.24439 z m 0,0.63477 c -0.11426,0 -0.22217,0.054 -0.32373,0.16186 -0.101565,0.10792 -0.178794,0.26343 -0.23169,0.46656 -0.0529,0.20312 -0.07935,0.41683 -0.07934,0.64111 -2e-6,0.22429 0.02645,0.43799 0.07934,0.64111 0.0529,0.20313 0.130125,0.35865 0.23169,0.46656 0.10156,0.10791 0.20947,0.16186 0.32373,0.16186 0.114256,0 0.222166,-0.0539 0.323731,-0.16186 0.101559,-0.10791 0.178789,-0.26343 0.231689,-0.46656 0.05289,-0.20312 0.07934,-0.41682 0.07935,-0.64111 -3e-6,-0.22428 -0.02645,-0.43799 -0.07935,-0.64111 -0.0529,-0.20313 -0.13013,-0.35864 -0.231689,-0.46656 -0.101565,-0.1079 -0.209475,-0.16186 -0.323731,-0.16186 z m 0,-5.83985 c 0.334308,1e-5 0.653806,0.0815 0.958496,0.24439 0.304684,0.16293 0.538489,0.39674 0.701416,0.70142 0.162919,0.30469 0.244381,0.62419 0.244385,0.95849 -4e-6,0.33432 -0.08147,0.65382 -0.244385,0.9585 -0.162927,0.30469 -0.396732,0.5385 -0.701416,0.70141 -0.30469,0.16293 -0.624188,0.24439 -0.958496,0.24439 -0.334312,0 -0.65381,-0.0815 -0.958496,-0.24439 -0.304688,-0.16291 -0.538493,-0.39672 -0.701416,-0.70141 -0.162924,-0.30468 -0.244385,-0.62418 -0.244385,-0.9585 0,-0.3343 0.08146,-0.6538 0.244385,-0.95849 0.162923,-0.30468 0.396728,-0.53849 0.701416,-0.70142 0.304686,-0.16291 0.624184,-0.24438 0.958496,-0.24439 z m 0,0.63477 c -0.11426,1e-5 -0.22217,0.054 -0.32373,0.16187 -0.101565,0.10791 -0.178794,0.26343 -0.23169,0.46655 -0.0529,0.20313 -0.07935,0.41683 -0.07934,0.64111 -2e-6,0.22429 0.02645,0.438 0.07934,0.64111 0.0529,0.20314 0.130125,0.35865 0.23169,0.46656 0.10156,0.10791 0.20947,0.16187 0.32373,0.16186 0.114256,10e-6 0.222166,-0.054 0.323731,-0.16186 0.101559,-0.10791 0.178789,-0.26342 0.231689,-0.46656 0.05289,-0.20311 0.07934,-0.41682 0.07935,-0.64111 -3e-6,-0.22428 -0.02645,-0.43798 -0.07935,-0.64111 -0.0529,-0.20312 -0.13013,-0.35864 -0.231689,-0.46655 -0.101565,-0.10791 -0.209475,-0.16186 -0.323731,-0.16187 z" /><path
     id="path3721"
     d="m -53.623825,139.38281 c -2e-6,-0.21158 -0.08464,-0.43375 -0.253906,-0.6665 -0.169272,-0.23274 -0.402019,-0.34911 -0.698243,-0.34912 h -0.317382 v -0.25391 h 7.299804 l 0.634766,2.22168 h -0.253906 c -0.465503,-1.05793 -0.909838,-1.5869 -1.333008,-1.58691 h -3.808594 v 7.61718 h 3.808594 c 0.42317,1e-5 0.867505,-0.52897 1.333008,-1.58691 h 0.253906 L -47.593552,147 h -7.299804 v -0.25391 h 0.317382 c 0.296224,0 0.528971,-0.11637 0.698243,-0.34912 0.169269,-0.23274 0.253904,-0.45491 0.253906,-0.6665 z" /><path
     id="path3723"
     d="m -42.185349,138.0498 c 1.239904,1e-5 2.237543,0.43377 2.99292,1.30127 0.755363,0.86752 1.133048,1.93605 1.133057,3.20557 -9e-6,1.27377 -0.380868,2.34335 -1.142578,3.20874 -0.761725,0.8654 -1.756191,1.2981 -2.983399,1.2981 -1.227216,0 -2.221681,-0.4327 -2.983398,-1.2981 -0.761719,-0.86539 -1.142578,-1.93497 -1.142578,-3.20874 0,-1.26952 0.377685,-2.33805 1.133057,-3.20557 0.755368,-0.8675 1.753007,-1.30126 2.992919,-1.30127 z m 0,0.63477 c -0.90137,1e-5 -1.602786,0.40943 -2.104248,1.22827 -0.501466,0.81886 -0.752198,1.70012 -0.752197,2.6438 -10e-7,0.92676 0.250731,1.8038 0.752197,2.6311 0.501462,0.82732 1.202878,1.24097 2.104248,1.24097 0.888667,0 1.586909,-0.41365 2.094727,-1.24097 0.507806,-0.8273 0.761712,-1.70434 0.761719,-2.6311 -7e-6,-0.94368 -0.253913,-1.82494 -0.761719,-2.6438 -0.507818,-0.81884 -1.20606,-1.22826 -2.094727,-1.22827 z m 0,2.91992 c 0.165035,1e-5 0.323726,0.0413 0.476075,0.12378 0.152338,0.0825 0.26977,0.19996 0.352295,0.3523 0.08251,0.15234 0.123774,0.31104 0.123779,0.47607 -5e-6,0.16504 -0.04127,0.32374 -0.123779,0.47607 -0.08252,0.15235 -0.199957,0.26978 -0.352295,0.3523 -0.152349,0.0825 -0.31104,0.12378 -0.476075,0.12378 -0.165043,0 -0.323734,-0.0413 -0.476074,-0.12378 -0.152347,-0.0825 -0.269779,-0.19995 -0.352295,-0.3523 -0.08252,-0.15233 -0.123782,-0.31103 -0.123779,-0.47607 -3e-6,-0.16503 0.04126,-0.32373 0.123779,-0.47607 0.08252,-0.15234 0.199948,-0.26977 0.352295,-0.3523 0.15234,-0.0825 0.311031,-0.12377 0.476074,-0.12378 z" /><path
     id="path3725"
     d="m -33.616013,138.11328 v 0.25391 h -0.317382 c -0.296228,1e-5 -0.528975,0.11638 -0.698243,0.34912 -0.169273,0.23275 -0.253909,0.45492 -0.253906,0.6665 v 6.34766 c -3e-6,0.21159 0.08463,0.43376 0.253906,0.6665 0.169268,0.23275 0.402015,0.34912 0.698243,0.34912 h 0.317382 V 147 h -3.808593 v -0.25391 h 0.317382 c 0.296224,0 0.528971,-0.11637 0.698243,-0.34912 0.169269,-0.23274 0.253904,-0.45491 0.253906,-0.6665 v -6.34766 c -2e-6,-0.21158 -0.08464,-0.43375 -0.253906,-0.6665 -0.169272,-0.23274 -0.402019,-0.34911 -0.698243,-0.34912 h -0.317382 v -0.25391 z" /><path
     id="path3727"
     d="m -31.07695,143.25488 c 0.334307,10e-6 0.653806,0.0815 0.958496,0.24439 0.304684,0.16292 0.538489,0.39673 0.701416,0.70141 0.162919,0.30469 0.244381,0.62419 0.244385,0.9585 -4e-6,0.33431 -0.08147,0.65381 -0.244385,0.9585 -0.162927,0.30468 -0.396732,0.53849 -0.701416,0.70141 -0.30469,0.16292 -0.624189,0.24439 -0.958496,0.24439 -0.334312,0 -0.65381,-0.0815 -0.958496,-0.24439 -0.304689,-0.16292 -0.538494,-0.39673 -0.701416,-0.70141 -0.162924,-0.30469 -0.244385,-0.62419 -0.244385,-0.9585 0,-0.33431 0.08146,-0.65381 0.244385,-0.9585 0.162922,-0.30468 0.396727,-0.53849 0.701416,-0.70141 0.304686,-0.16292 0.624184,-0.24438 0.958496,-0.24439 z m 0,0.63477 c -0.11426,0 -0.22217,0.054 -0.323731,0.16186 -0.101564,0.10792 -0.178794,0.26343 -0.231689,0.46656 -0.0529,0.20312 -0.07935,0.41683 -0.07935,0.64111 -1e-6,0.22429 0.02645,0.43799 0.07935,0.64111 0.0529,0.20313 0.130125,0.35865 0.231689,0.46656 0.101561,0.10791 0.209471,0.16186 0.323731,0.16186 0.114255,0 0.222165,-0.0539 0.32373,-0.16186 0.10156,-0.10791 0.17879,-0.26343 0.23169,-0.46656 0.05289,-0.20312 0.07934,-0.41682 0.07935,-0.64111 -3e-6,-0.22428 -0.02645,-0.43799 -0.07935,-0.64111 -0.0529,-0.20313 -0.13013,-0.35864 -0.23169,-0.46656 -0.101565,-0.1079 -0.209475,-0.16186 -0.32373,-0.16186 z" /><path
     id="path3729"
     d="m -22.558395,147 v -0.25391 h 0.317382 c 0.296221,0 0.528968,-0.11637 0.698243,-0.34912 0.169267,-0.23274 0.253902,-0.45491 0.253906,-0.6665 v -2.85645 h -2.22168 c -0.21159,1e-5 -0.433757,0.0846 -0.666504,0.25391 -0.232748,0.16927 -0.349121,0.40202 -0.349121,0.69824 v 0.31738 h -0.253906 v -3.17382 h 0.253906 v 0.31738 c 0,0.29623 0.116373,0.52898 0.349121,0.69824 0.232747,0.16928 0.454914,0.25391 0.666504,0.25391 h 2.22168 v -2.85645 c -4e-6,-0.21158 -0.08464,-0.43375 -0.253906,-0.6665 -0.169275,-0.23274 -0.402022,-0.34911 -0.698243,-0.34912 h -0.317382 v -0.25391 h 3.808593 v 0.25391 h -0.317382 c -0.29623,1e-5 -0.528977,0.11638 -0.698243,0.34912 -0.169276,0.23275 -0.253911,0.45492 -0.253906,0.6665 v 2.85645 h 2.22168 c 0.211581,0 0.433749,-0.0846 0.666504,-0.25391 0.232739,-0.16926 0.349112,-0.40201 0.349121,-0.69824 v -0.31738 h 0.253906 v 3.17382 h -0.253906 v -0.31738 c -9e-6,-0.29622 -0.116382,-0.52897 -0.349121,-0.69824 -0.232755,-0.16927 -0.454923,-0.2539 -0.666504,-0.25391 h -2.22168 v 2.85645 c -5e-6,0.21159 0.08463,0.43376 0.253906,0.6665 0.169266,0.23275 0.402013,0.34912 0.698243,0.34912 h 0.317382 V 147 Z" /><path
     id="path3731"
     d="m -11.373825,147 -4.519531,-2.60889 3.808593,-2.19629 -3.808593,-2.20263 2.158203,-1.24414 1.098144,-0.63477 h 2.7739261 l 0.6347656,2.22168 h -0.2539062 c -0.4655011,-1.05793 -0.9098365,-1.5869 -1.3330075,-1.58691 h -0.38086 l -2.792968,1.6123 3.808593,2.19629 -3.808593,2.20264 2.786621,1.60595 h 0.387207 c 0.423171,1e-5 0.8675064,-0.52897 1.3330075,-1.58691 h 0.2539062 L -9.8630829,147 Z" /><path
     id="path3733"
     d="M -6.1179657,144.46094 V 147 h -2.5390625 v -0.25391 h 0.3173828 c 0.296223,0 0.5289702,-0.11637 0.6982422,-0.34912 0.1692693,-0.23274 0.2539047,-0.45491 0.2539063,-0.6665 v -6.34766 c -1.6e-6,-0.21158 -0.084637,-0.43375 -0.2539063,-0.6665 -0.169272,-0.23274 -0.4020192,-0.34911 -0.6982422,-0.34912 h -0.3173828 v -0.25391 h 2.5390625 v 5.25586 l 1.9042969,-2.7168 v -2.53906 h 2.5390625 v 0.25391 h -0.3173828 c -0.2962307,1e-5 -0.5289778,0.11638 -0.6982422,0.34912 -0.169277,0.23275 -0.2539123,0.45492 -0.2539063,0.6665 v 6.34766 c -6e-6,0.21159 0.084629,0.43376 0.2539063,0.6665 0.1692644,0.23275 0.4020115,0.34912 0.6982422,0.34912 h 0.3173828 V 147 h -2.5390625 v -5.25586 z" /><path
     id="path3735"
     d="m 0.86445618,143.25488 c 0.33430732,10e-6 0.65380572,0.0815 0.95849612,0.24439 0.304684,0.16292 0.5384891,0.39673 0.701416,0.70141 0.1629191,0.30469 0.2443806,0.62419 0.2443848,0.9585 -4.2e-6,0.33431 -0.081466,0.65381 -0.2443848,0.9585 -0.1629269,0.30468 -0.396732,0.53849 -0.701416,0.70141 -0.3046904,0.16292 -0.6241888,0.24439 -0.95849612,0.24439 -0.33431179,0 -0.65381016,-0.0815 -0.9584961,-0.24439 -0.30468846,-0.16292 -0.53849356,-0.39673 -0.70141601,-0.70141 -0.16292358,-0.30469 -0.24438507,-0.62419 -0.24438477,-0.9585 -3e-7,-0.33431 0.0814612,-0.65381 0.24438477,-0.9585 0.16292245,-0.30468 0.39672755,-0.53849 0.70141601,-0.70141 0.30468594,-0.16292 0.62418431,-0.24438 0.9584961,-0.24439 z m 0,0.63477 c -0.11425992,0 -0.22216997,0.054 -0.32373047,0.16186 -0.1015643,0.10792 -0.17879404,0.26343 -0.23168946,0.46656 -0.0528987,0.20312 -0.0793473,0.41683 -0.0793457,0.64111 -1.59e-6,0.22429 0.026447,0.43799 0.0793457,0.64111 0.0528954,0.20313 0.13012516,0.35865 0.23168946,0.46656 0.1015605,0.10791 0.20947055,0.16186 0.32373047,0.16186 0.11425547,0 0.22216552,-0.0539 0.32373042,-0.16186 0.1015599,-0.10791 0.1787896,-0.26343 0.2316895,-0.46656 0.052894,-0.20312 0.079343,-0.41682 0.079346,-0.64111 -2.9e-6,-0.22428 -0.026451,-0.43799 -0.079346,-0.64111 -0.0529,-0.20313 -0.1301296,-0.35864 -0.2316895,-0.46656 -0.1015649,-0.1079 -0.20947495,-0.16186 -0.32373042,-0.16186 z m 0,-5.83985 c 0.33430732,1e-5 0.65380572,0.0815 0.95849612,0.24439 0.304684,0.16293 0.5384891,0.39674 0.701416,0.70142 0.1629191,0.30469 0.2443806,0.62419 0.2443848,0.95849 -4.2e-6,0.33432 -0.081466,0.65382 -0.2443848,0.9585 -0.1629269,0.30469 -0.396732,0.5385 -0.701416,0.70141 -0.3046904,0.16293 -0.6241888,0.24439 -0.95849612,0.24439 -0.33431179,0 -0.65381016,-0.0815 -0.9584961,-0.24439 -0.30468846,-0.16291 -0.53849356,-0.39672 -0.70141601,-0.70141 -0.16292358,-0.30468 -0.24438507,-0.62418 -0.24438477,-0.9585 -3e-7,-0.3343 0.0814612,-0.6538 0.24438477,-0.95849 0.16292245,-0.30468 0.39672755,-0.53849 0.70141601,-0.70142 0.30468594,-0.16291 0.62418431,-0.24438 0.9584961,-0.24439 z m 0,0.63477 c -0.11425992,1e-5 -0.22216997,0.054 -0.32373047,0.16187 -0.1015643,0.10791 -0.17879404,0.26343 -0.23168946,0.46655 -0.0528987,0.20313 -0.0793473,0.41683 -0.0793457,0.64111 -1.59e-6,0.22429 0.026447,0.438 0.0793457,0.64111 0.0528954,0.20314 0.13012516,0.35865 0.23168946,0.46656 0.1015605,0.10791 0.20947055,0.16187 0.32373047,0.16186 0.11425547,10e-6 0.22216552,-0.054 0.32373042,-0.16186 0.1015599,-0.10791 0.1787896,-0.26342 0.2316895,-0.46656 0.052894,-0.20311 0.079343,-0.41682 0.079346,-0.64111 -2.9e-6,-0.22428 -0.026451,-0.43798 -0.079346,-0.64111 -0.0529,-0.20312 -0.1301296,-0.35864 -0.2316895,-0.46655 -0.1015649,-0.10791 -0.20947495,-0.16186 -0.32373042,-0.16187 z m 1.90429692,3.55469 v 0.63476 h -3.8085938 v -0.63476 z" /><path
     id="path3737"
     d="M 5.9425812,144.46094 V 147 H 3.4035187 v -0.25391 h 0.3173828 c 0.296223,0 0.5289702,-0.11637 0.6982422,-0.34912 0.1692693,-0.23274 0.2539046,-0.45491 0.2539062,-0.6665 v -6.34766 c -1.6e-6,-0.21158 -0.084637,-0.43375 -0.2539062,-0.6665 -0.169272,-0.23274 -0.4020192,-0.34911 -0.6982422,-0.34912 H 3.4035187 v -0.25391 h 2.5390625 v 5.25586 l 1.9042969,-2.7168 v -2.53906 h 2.5390629 v 0.25391 h -0.317383 c -0.2962309,1e-5 -0.5289781,0.11638 -0.6982424,0.34912 -0.169277,0.23275 -0.2539123,0.45492 -0.2539063,0.6665 v 6.34766 c -6e-6,0.21159 0.084629,0.43376 0.2539063,0.6665 0.1692643,0.23275 0.4020115,0.34912 0.6982424,0.34912 h 0.317383 V 147 H 7.8468781 v -5.25586 z" /><path
     id="path3739"
     d="M 13.559769,144.46094 V 147 h -2.539063 v -0.25391 h 0.317383 c 0.296223,0 0.52897,-0.11637 0.698242,-0.34912 0.16927,-0.23274 0.253905,-0.45491 0.253906,-0.6665 v -6.34766 c -10e-7,-0.21158 -0.08464,-0.43375 -0.253906,-0.6665 -0.169272,-0.23274 -0.402019,-0.34911 -0.698242,-0.34912 h -0.317383 v -0.25391 h 2.539063 v 5.25586 l 1.904297,-2.7168 v -2.53906 h 2.539062 v 0.25391 h -0.317383 c -0.29623,1e-5 -0.528978,0.11638 -0.698242,0.34912 -0.169277,0.23275 -0.253912,0.45492 -0.253906,0.6665 v 6.34766 c -6e-6,0.21159 0.08463,0.43376 0.253906,0.6665 0.169264,0.23275 0.402012,0.34912 0.698242,0.34912 h 0.317383 V 147 h -2.539062 v -5.25586 z" /><path
     id="path3741"
     d="m 23.157425,147 -4.519531,-2.60889 3.808593,-2.19629 -3.808593,-2.20263 2.158203,-1.24414 1.098144,-0.63477 h 2.773926 l 0.634766,2.22168 h -0.253907 c -0.465501,-1.05793 -0.909836,-1.5869 -1.333007,-1.58691 h -0.38086 l -2.792968,1.6123 3.808593,2.19629 -3.808593,2.20264 2.786621,1.60595 h 0.387207 c 0.423171,1e-5 0.867506,-0.52897 1.333007,-1.58691 h 0.253907 L 24.668167,147 Z" /><path
     id="path3743"
     d="m 28.095901,147 v -0.25391 h 0.317383 c 0.296221,0 0.528968,-0.11637 0.698242,-0.34912 0.169268,-0.23274 0.253903,-0.45491 0.253907,-0.6665 v -2.85645 h -2.22168 c -0.21159,1e-5 -0.433758,0.0846 -0.666504,0.25391 -0.232748,0.16927 -0.349122,0.40202 -0.349121,0.69824 v 0.31738 h -0.253906 v -3.17382 h 0.253906 v 0.31738 c -1e-6,0.29623 0.116373,0.52898 0.349121,0.69824 0.232746,0.16928 0.454914,0.25391 0.666504,0.25391 h 2.22168 v -2.85645 c -4e-6,-0.21158 -0.08464,-0.43375 -0.253907,-0.6665 -0.169274,-0.23274 -0.402021,-0.34911 -0.698242,-0.34912 h -0.317383 v -0.25391 h 3.808594 v 0.25391 h -0.317383 c -0.296229,1e-5 -0.528976,0.11638 -0.698242,0.34912 -0.169276,0.23275 -0.253911,0.45492 -0.253906,0.6665 v 2.85645 h 2.22168 c 0.211581,0 0.433748,-0.0846 0.666504,-0.25391 0.232739,-0.16926 0.349112,-0.40201 0.349121,-0.69824 v -0.31738 h 0.253906 v 3.17382 h -0.253906 v -0.31738 c -9e-6,-0.29622 -0.116382,-0.52897 -0.349121,-0.69824 -0.232756,-0.16927 -0.454923,-0.2539 -0.666504,-0.25391 h -2.22168 v 2.85645 c -5e-6,0.21159 0.08463,0.43376 0.253906,0.6665 0.169266,0.23275 0.402013,0.34912 0.698242,0.34912 h 0.317383 V 147 Z" /></g></svg>
