<?xml version="1.0" encoding="UTF-8" standalone="no"?>
<svg
   xmlns:dc="http://purl.org/dc/elements/1.1/"
   xmlns:cc="http://creativecommons.org/ns#"
   xmlns:rdf="http://www.w3.org/1999/02/22-rdf-syntax-ns#"
   xmlns:svg="http://www.w3.org/2000/svg"
   xmlns="http://www.w3.org/2000/svg"
   id="svg3857"
   xml:space="preserve"
   enable-background="new 0 0 135 155"
   viewBox="0 0 118.29764 12.116"
   height="12.116"
   width="118.29764"
   y="0px"
   x="0px"
   version="1.1"><metadata
     id="metadata4852"><rdf:RDF><cc:Work
         rdf:about=""><dc:format>image/svg+xml</dc:format><dc:type
           rdf:resource="http://purl.org/dc/dcmitype/StillImage" /><dc:title /></cc:Work></rdf:RDF></metadata><defs
     id="defs4850"><radialGradient
       id="SVGID_1_"
       cx="-145.4702"
       cy="87.823196"
       r="68.686401"
       gradientTransform="matrix(1,0,0,-1,192.3999,143.0996)"
       gradientUnits="userSpaceOnUse">
		<stop
   offset="0"
   style="stop-color:#FFFFFF"
   id="stop3922" />
		<stop
   offset="0.4835"
   style="stop-color:#EAEAEB"
   id="stop3924" />
		<stop
   offset="0.9451"
   style="stop-color:#A9ABAE"
   id="stop3926" />
		<stop
   offset="1"
   style="stop-color:#999B9E"
   id="stop3928" />
	</radialGradient><linearGradient
       id="SVGID_2_"
       gradientUnits="userSpaceOnUse"
       x1="66.232399"
       y1="24.481001"
       x2="112.7331"
       y2="97.232101">
		<stop
   offset="0"
   style="stop-color:#8A8A8A"
   id="stop3935" />
		<stop
   offset="0.5687"
   style="stop-color:#606060"
   id="stop3937" />
		<stop
   offset="0.5914"
   style="stop-color:#FFFFFF"
   id="stop3939" />
		<stop
   offset="0.6116"
   style="stop-color:#585858"
   id="stop3941" />
		<stop
   offset="1"
   style="stop-color:#303030"
   id="stop3943" />
	</linearGradient><linearGradient
       id="SVGID_5_"
       gradientUnits="userSpaceOnUse"
       x1="54.715801"
       y1="65.136703"
       x2="83.798798"
       y2="65.136703">
		<stop
   offset="0"
   style="stop-color:#231F20"
   id="stop3964" />
		<stop
   offset="1"
   style="stop-color:#474747"
   id="stop3966" />
	</linearGradient><linearGradient
       id="SVGID_6_"
       gradientUnits="userSpaceOnUse"
       x1="-123.5898"
       y1="119.8076"
       x2="-94.069099"
       y2="29.9035"
       gradientTransform="matrix(1,0,0,-1,192.3999,143.0996)">
		<stop
   offset="0"
   style="stop-color:#FFFFFF"
   id="stop3997" />
		<stop
   offset="0.0094"
   style="stop-color:#FCFCFC"
   id="stop3999" />
		<stop
   offset="0.0655"
   style="stop-color:#EEEEEE"
   id="stop4001" />
		<stop
   offset="0.1342"
   style="stop-color:#E5E5E5"
   id="stop4003" />
		<stop
   offset="0.2515"
   style="stop-color:#E3E3E3"
   id="stop4005" />
		<stop
   offset="0.3357"
   style="stop-color:#8A8A8A"
   id="stop4007" />
		<stop
   offset="0.4422"
   style="stop-color:#B8B8B8"
   id="stop4009" />
		<stop
   offset="1"
   style="stop-color:#3B3B3B"
   id="stop4011" />
	</linearGradient><linearGradient
       id="SVGID_7_"
       gradientUnits="userSpaceOnUse"
       x1="70.421898"
       y1="26.876499"
       x2="119.5471"
       y2="87.626701">
		<stop
   offset="0"
   style="stop-color:#EFF0F0"
   id="stop4016" />
		<stop
   offset="0.5914"
   style="stop-color:#F0F1F2"
   id="stop4018" />
		<stop
   offset="0.599"
   style="stop-color:#787878"
   id="stop4020" />
		<stop
   offset="0.6456"
   style="stop-color:#EEEFF0"
   id="stop4022" />
		<stop
   offset="1"
   style="stop-color:#D8D9DB"
   id="stop4024" />
	</linearGradient><linearGradient
       id="SVGID_8_"
       gradientUnits="userSpaceOnUse"
       x1="-117.166"
       y1="122.1328"
       x2="-87.569702"
       y2="31.998501"
       gradientTransform="matrix(1,0,0,-1,192.3999,143.0996)">
		<stop
   offset="0"
   style="stop-color:#FFFFFF"
   id="stop4029" />
		<stop
   offset="1"
   style="stop-color:#E4E5E6"
   id="stop4031" />
	</linearGradient><linearGradient
       id="SVGID_9_"
       gradientUnits="userSpaceOnUse"
       x1="54.653301"
       y1="25.2764"
       x2="79.683601"
       y2="106.3903">
		<stop
   offset="0"
   style="stop-color:#FFFFFF"
   id="stop4036" />
		<stop
   offset="0.7473"
   style="stop-color:#F9F9F9"
   id="stop4038" />
		<stop
   offset="1"
   style="stop-color:#D5D7D8"
   id="stop4040" />
	</linearGradient><linearGradient
       id="SVGID_10_"
       gradientUnits="userSpaceOnUse"
       x1="-115.3369"
       y1="119.6328"
       x2="-134.85719"
       y2="24.6462"
       gradientTransform="matrix(1,0,0,-1,192.3999,143.0996)">
		<stop
   offset="0"
   style="stop-color:#FFFFFF"
   id="stop4061" />
		<stop
   offset="1"
   style="stop-color:#E4E5E6"
   id="stop4063" />
	</linearGradient><linearGradient
       id="SVGID_11_"
       gradientUnits="userSpaceOnUse"
       x1="32.519001"
       y1="33.077099"
       x2="37.2481"
       y2="92.496101">
		<stop
   offset="0.2198"
   style="stop-color:#989A9C"
   id="stop4068" />
		<stop
   offset="0.2527"
   style="stop-color:#FFFFFF"
   id="stop4070" />
	</linearGradient><linearGradient
       id="SVGID_12_"
       gradientUnits="userSpaceOnUse"
       x1="-152.6201"
       y1="126.8398"
       x2="-171.9462"
       y2="32.797901"
       gradientTransform="matrix(1,0,0,-1,192.3999,143.0996)">
		<stop
   offset="0"
   style="stop-color:#FFFFFF"
   id="stop4075" />
		<stop
   offset="1"
   style="stop-color:#E4E5E6"
   id="stop4077" />
	</linearGradient><linearGradient
       id="SVGID_13_"
       gradientUnits="userSpaceOnUse"
       x1="-130.1348"
       y1="35.625"
       x2="-130.14281"
       y2="35.585701"
       gradientTransform="matrix(1,0,0,-1,192.3999,143.0996)">
		<stop
   offset="0"
   style="stop-color:#FFFFFF"
   id="stop4082" />
		<stop
   offset="1"
   style="stop-color:#E4E5E6"
   id="stop4084" />
	</linearGradient><linearGradient
       id="SVGID_14_"
       gradientUnits="userSpaceOnUse"
       x1="-121.1382"
       y1="120.3223"
       x2="-140.54491"
       y2="25.888"
       gradientTransform="matrix(1,0,0,-1,192.3999,143.0996)">
		<stop
   offset="0"
   style="stop-color:#FFFFFF"
   id="stop4093" />
		<stop
   offset="1"
   style="stop-color:#E4E5E6"
   id="stop4095" />
	</linearGradient><linearGradient
       id="SVGID_15_"
       gradientUnits="userSpaceOnUse"
       x1="-135.58591"
       y1="123.3525"
       x2="-155.006"
       y2="28.8524"
       gradientTransform="matrix(1,0,0,-1,192.3999,143.0996)">
		<stop
   offset="0"
   style="stop-color:#FFFFFF"
   id="stop4100" />
		<stop
   offset="1"
   style="stop-color:#E4E5E6"
   id="stop4102" />
	</linearGradient><linearGradient
       id="SVGID_16_"
       gradientUnits="userSpaceOnUse"
       x1="-127.4014"
       y1="121.9365"
       x2="-146.8837"
       y2="27.1346"
       gradientTransform="matrix(1,0,0,-1,192.3999,143.0996)">
		<stop
   offset="0"
   style="stop-color:#FFFFFF"
   id="stop4107" />
		<stop
   offset="1"
   style="stop-color:#E4E5E6"
   id="stop4109" />
	</linearGradient><linearGradient
       id="SVGID_17_"
       gradientUnits="userSpaceOnUse"
       x1="-118.4946"
       y1="124.0039"
       x2="-138.85201"
       y2="24.9438"
       gradientTransform="matrix(1,0,0,-1,192.3999,143.0996)">
		<stop
   offset="0"
   style="stop-color:#FFFFFF"
   id="stop4114" />
		<stop
   offset="1"
   style="stop-color:#E4E5E6"
   id="stop4116" />
	</linearGradient><linearGradient
       id="SVGID_18_"
       gradientUnits="userSpaceOnUse"
       x1="-115.3716"
       y1="119.1758"
       x2="-134.7878"
       y2="24.695299"
       gradientTransform="matrix(1,0,0,-1,192.3999,143.0996)">
		<stop
   offset="0"
   style="stop-color:#FFFFFF"
   id="stop4121" />
		<stop
   offset="1"
   style="stop-color:#E4E5E6"
   id="stop4123" />
	</linearGradient><linearGradient
       id="SVGID_21_"
       gradientUnits="userSpaceOnUse"
       x1="-175.4424"
       y1="83.6045"
       x2="-75.6362"
       y2="83.6045"
       gradientTransform="matrix(1,0,0,-1,192.3999,143.0996)">
		<stop
   offset="0"
   style="stop-color:#555555"
   id="stop4198" />
		<stop
   offset="1"
   style="stop-color:#231F20"
   id="stop4200" />
	</linearGradient><linearGradient
       id="SVGID_22_"
       gradientUnits="userSpaceOnUse"
       x1="-175.14211"
       y1="104.0801"
       x2="-83.541"
       y2="104.0801"
       gradientTransform="matrix(1,0,0,-1,192.3999,143.0996)">
		<stop
   offset="0"
   style="stop-color:#A0A0A0"
   id="stop4205" />
		<stop
   offset="0.0769"
   style="stop-color:#656767"
   id="stop4207" />
		<stop
   offset="1"
   style="stop-color:#717375"
   id="stop4209" />
	</linearGradient><linearGradient
       id="SVGID_23_"
       gradientUnits="userSpaceOnUse"
       x1="-172.3853"
       y1="78.209"
       x2="-172.3853"
       y2="78.209"
       gradientTransform="matrix(1,0,0,-1,192.3999,143.0996)">
		<stop
   offset="0"
   style="stop-color:#FFFFFF"
   id="stop4224" />
		<stop
   offset="0.078"
   style="stop-color:#F4F4F4"
   id="stop4226" />
		<stop
   offset="0.3807"
   style="stop-color:#CECECE"
   id="stop4228" />
		<stop
   offset="0.5396"
   style="stop-color:#BFBFBF"
   id="stop4230" />
		<stop
   offset="0.8357"
   style="stop-color:#7C7C7C"
   id="stop4232" />
		<stop
   offset="0.8996"
   style="stop-color:#A8A8A8"
   id="stop4234" />
		<stop
   offset="0.9093"
   style="stop-color:#9A9A9A"
   id="stop4236" />
		<stop
   offset="0.9327"
   style="stop-color:#7D7D7D"
   id="stop4238" />
		<stop
   offset="0.9558"
   style="stop-color:#686868"
   id="stop4240" />
		<stop
   offset="0.9785"
   style="stop-color:#5B5B5B"
   id="stop4242" />
		<stop
   offset="1"
   style="stop-color:#575757"
   id="stop4244" />
	</linearGradient><linearGradient
       id="SVGID_24_"
       gradientUnits="userSpaceOnUse"
       x1="-175.7173"
       y1="78.449203"
       x2="-67.153198"
       y2="90.476799"
       gradientTransform="matrix(1,0,0,-1,192.3999,143.0996)">
		<stop
   offset="0"
   style="stop-color:#FFFFFF"
   id="stop4249" />
		<stop
   offset="0.078"
   style="stop-color:#F4F4F4"
   id="stop4251" />
		<stop
   offset="0.3807"
   style="stop-color:#CECECE"
   id="stop4253" />
		<stop
   offset="0.5396"
   style="stop-color:#BFBFBF"
   id="stop4255" />
		<stop
   offset="0.8357"
   style="stop-color:#7C7C7C"
   id="stop4257" />
		<stop
   offset="0.8996"
   style="stop-color:#A8A8A8"
   id="stop4259" />
		<stop
   offset="0.9093"
   style="stop-color:#9A9A9A"
   id="stop4261" />
		<stop
   offset="0.9327"
   style="stop-color:#7D7D7D"
   id="stop4263" />
		<stop
   offset="0.9558"
   style="stop-color:#686868"
   id="stop4265" />
		<stop
   offset="0.9785"
   style="stop-color:#5B5B5B"
   id="stop4267" />
		<stop
   offset="1"
   style="stop-color:#575757"
   id="stop4269" />
	</linearGradient><linearGradient
       id="SVGID_25_"
       gradientUnits="userSpaceOnUse"
       x1="-176.1851"
       y1="78.4795"
       x2="-52.131699"
       y2="92.223099"
       gradientTransform="matrix(1,0,0,-1,192.3999,143.0996)">
		<stop
   offset="0"
   style="stop-color:#FFFFFF"
   id="stop4274" />
		<stop
   offset="0.078"
   style="stop-color:#F4F4F4"
   id="stop4276" />
		<stop
   offset="0.3807"
   style="stop-color:#CECECE"
   id="stop4278" />
		<stop
   offset="0.5396"
   style="stop-color:#BFBFBF"
   id="stop4280" />
		<stop
   offset="0.8357"
   style="stop-color:#7C7C7C"
   id="stop4282" />
		<stop
   offset="0.8996"
   style="stop-color:#A8A8A8"
   id="stop4284" />
		<stop
   offset="0.9093"
   style="stop-color:#9A9A9A"
   id="stop4286" />
		<stop
   offset="0.9327"
   style="stop-color:#7D7D7D"
   id="stop4288" />
		<stop
   offset="0.9558"
   style="stop-color:#686868"
   id="stop4290" />
		<stop
   offset="0.9785"
   style="stop-color:#5B5B5B"
   id="stop4292" />
		<stop
   offset="1"
   style="stop-color:#575757"
   id="stop4294" />
	</linearGradient><linearGradient
       id="SVGID_26_"
       gradientUnits="userSpaceOnUse"
       x1="21.2129"
       y1="71.326698"
       x2="117.1948"
       y2="51.952599">
		<stop
   offset="0"
   style="stop-color:#EDEDEE"
   id="stop4299" />
		<stop
   offset="0.4176"
   style="stop-color:#FFFFFF"
   id="stop4301" />
		<stop
   offset="0.6264"
   style="stop-color:#F8F9F9"
   id="stop4303" />
		<stop
   offset="1"
   style="stop-color:#BFC0C2"
   id="stop4305" />
	</linearGradient><linearGradient
       id="SVGID_27_"
       gradientUnits="userSpaceOnUse"
       x1="23.471201"
       y1="30.732401"
       x2="27.9561"
       y2="30.732401">
		<stop
   offset="0"
   style="stop-color:#E2E3E4"
   id="stop4316" />
		<stop
   offset="0.5055"
   style="stop-color:#FFFFFF"
   id="stop4318" />
	</linearGradient><linearGradient
       id="SVGID_34_"
       gradientUnits="userSpaceOnUse"
       x1="22.5742"
       y1="49.7188"
       x2="111.5455"
       y2="29.204">
		<stop
   offset="0"
   style="stop-color:#FFFFFF"
   id="stop4743" />
		<stop
   offset="0.6538"
   style="stop-color:#FFFFFF"
   id="stop4745" />
		<stop
   offset="1"
   style="stop-color:#CBCCCE"
   id="stop4747" />
	</linearGradient><linearGradient
       id="SVGID_35_"
       gradientUnits="userSpaceOnUse"
       x1="-158.8101"
       y1="107.0898"
       x2="-126.4229"
       y2="107.0898"
       gradientTransform="matrix(1,0,0,-1,192.3999,143.0996)">
		<stop
   offset="0"
   style="stop-color:#696969"
   id="stop4770" />
		<stop
   offset="0.3702"
   style="stop-color:#2E2E2E"
   id="stop4772" />
		<stop
   offset="0.4554"
   style="stop-color:#424242"
   id="stop4774" />
		<stop
   offset="0.6014"
   style="stop-color:#303030"
   id="stop4776" />
		<stop
   offset="0.6947"
   style="stop-color:#4A4A4A"
   id="stop4778" />
		<stop
   offset="1"
   style="stop-color:#666666"
   id="stop4780" />
	</linearGradient><linearGradient
       id="SVGID_36_"
       gradientUnits="userSpaceOnUse"
       x1="-158.4185"
       y1="107.8965"
       x2="-126.5454"
       y2="107.8965"
       gradientTransform="matrix(1,0,0,-1,192.3999,143.0996)">
		<stop
   offset="0"
   style="stop-color:#525252"
   id="stop4785" />
		<stop
   offset="0.1856"
   style="stop-color:#333333"
   id="stop4787" />
		<stop
   offset="0.354"
   style="stop-color:#AEAEAE"
   id="stop4789" />
		<stop
   offset="0.4199"
   style="stop-color:#ADADAD"
   id="stop4791" />
		<stop
   offset="0.4276"
   style="stop-color:#9D9D9D"
   id="stop4793" />
		<stop
   offset="0.4433"
   style="stop-color:#818181"
   id="stop4795" />
		<stop
   offset="0.4611"
   style="stop-color:#6A6A6A"
   id="stop4797" />
		<stop
   offset="0.4814"
   style="stop-color:#585858"
   id="stop4799" />
		<stop
   offset="0.506"
   style="stop-color:#4C4C4C"
   id="stop4801" />
		<stop
   offset="0.539"
   style="stop-color:#444444"
   id="stop4803" />
		<stop
   offset="0.6166"
   style="stop-color:#424242"
   id="stop4805" />
		<stop
   offset="0.6684"
   style="stop-color:#454545"
   id="stop4807" />
		<stop
   offset="1"
   style="stop-color:#BDBDBD"
   id="stop4809" />
	</linearGradient><linearGradient
       id="SVGID_37_"
       gradientUnits="userSpaceOnUse"
       x1="-153.1255"
       y1="97.627899"
       x2="-154.15421"
       y2="104.4332"
       gradientTransform="matrix(1,0,0,-1,192.3999,143.0996)">
		<stop
   offset="0"
   style="stop-color:#969696"
   id="stop4814" />
		<stop
   offset="1"
   style="stop-color:#000000"
   id="stop4816" />
	</linearGradient><linearGradient
       id="SVGID_38_"
       gradientUnits="userSpaceOnUse"
       x1="38.737301"
       y1="46.373001"
       x2="39.487301"
       y2="38.790001">
		<stop
   offset="0"
   style="stop-color:#333333"
   id="stop4825" />
		<stop
   offset="0.431"
   style="stop-color:#000000"
   id="stop4827" />
		<stop
   offset="1"
   style="stop-color:#2E2E2E"
   id="stop4829" />
	</linearGradient><radialGradient
       id="SVGID_39_"
       cx="-138.2334"
       cy="106.5996"
       r="72.751701"
       gradientTransform="matrix(1,0,0,-1,192.3999,143.0996)"
       gradientUnits="userSpaceOnUse">
		<stop
   offset="0"
   style="stop-color:#000000;stop-opacity:0;"
   id="stop4840" />
		<stop
   offset="0.80220002"
   style="stop-color:#000000;stop-opacity:0.08;"
   id="stop4842" />
		<stop
   offset="1"
   style="stop-color:#000000;stop-opacity:0.3882353;"
   id="stop4844" />
	</radialGradient></defs><g
     transform="translate(-8.35118,-137.926)"
     id="the_free_encyclopedia"><path
       id="path3948"
       d="m 10.09968,147 h 2.756 c 0.364,0 1.56,0.026 1.56,0.026 0.13,-0.65 0.26,-1.495 0.338,-2.171 -0.13,-0.052 -0.273,-0.078 -0.429,-0.065 -0.26,0.936 -0.611001,1.703 -1.599,1.703 h -1.469 c -0.377,0 -0.611,-0.247 -0.611,-0.65 v -5.642 c 0,-1.079 0.221001,-1.144 1.131,-1.183 0.078,-0.078 0.078,-0.351 0,-0.429 -0.636999,0.013 -1.027001,0.026 -1.69,0.026 -0.6499993,0 -1.0270006,-0.013 -1.677,-0.026 -0.078,0.078 -0.078,0.351 0,0.429 0.9099991,0.039 1.131,0.104 1.131,1.183 v 5.213 c 0,1.079 -0.2210009,1.144 -1.131,1.183 -0.078,0.078 -0.078,0.351 0,0.429 0.6369994,-0.013 1.69,-0.026 1.69,-0.026" /><path
       id="path3950"
       d="m 19.127758,143.971 v 1.729 c 0,0.169 -0.078,0.26 -0.182,0.338 -0.337999,0.273 -0.78,0.559 -1.144,0.559 -0.649999,0 -0.936,-0.52 -0.936,-0.923 0,-0.585 0.273001,-1.17 1.235,-1.43 l 1.027,-0.273 m 0,2.405 c 0.078,0.273 0.299001,0.754 1.001,0.754 0.637,0 1.105,-0.52 1.105,-0.585 0,-0.091 -0.117,-0.221 -0.169,-0.221 -0.078,0 -0.13,0.208 -0.403,0.208 -0.506999,0 -0.52,-0.507 -0.52,-1.105 v -1.937 c 0,-1.846 -1.014001,-2.197 -1.963,-2.197 -1.065999,0 -2.145,0.741 -2.145,1.443 0,0.312 0.156001,0.455 0.455,0.455 0.377,0 0.572,-0.26 0.572,-0.429 0,-0.091 -0.013,-0.182 -0.039,-0.234 -0.013,-0.039 -0.026,-0.117 -0.026,-0.26 0,-0.403 0.585001,-0.546 1.079,-0.546 0.442,0 1.053,0.221 1.053,1.69 0,0.091 -0.039,0.143 -0.078,0.156 l -1.118,0.273 c -1.247998,0.312 -2.145,1.001 -2.145,1.885 0,1.027 0.728001,1.404 1.638,1.404 0.598,0 0.845001,-0.104 1.417,-0.546 l 0.26,-0.208 h 0.026" /><path
       id="path3952"
       d="m 26.722164,143.334 c 0.247,-1.469 1.157,-1.586 1.469,-1.586 0.493999,0 1.079,0.273 1.079,1.365 0,0.117 -0.052,0.182 -0.195,0.182 l -2.353,0.039 m 3.406,2.457 c -0.481,0.494 -0.858001,0.702 -1.612,0.702 -0.468,0 -1.014,-0.273 -1.417,-0.936 -0.26,-0.429 -0.416,-1.027 -0.416,-1.781 l 3.458,0.026 c 0.156,0 0.247,-0.078 0.247,-0.221 0,-1.092 -0.390002,-2.262 -2.197,-2.262 -1.130999,0 -2.6,1.079 -2.6,3.055 0,0.728 0.182,1.43 0.611,1.924 0.442,0.52 1.053001,0.832 1.989,0.832 0.987999,0 1.690001,-0.455 2.21,-1.131 -0.039,-0.13 -0.117,-0.195 -0.273,-0.208" /><path
       id="path3955"
       d="m 33.616618,142.346 c -0.039,0.052 -0.13,0.182 -0.13,0 0,-0.39 0.065,-0.988 0.065,-0.988 0,-0.065 -0.052,-0.104 -0.156,-0.104 -0.363999,0.143 -0.897001,0.26 -1.794,0.377 -0.026,0.078 0,0.286 0.026,0.364 0.702,0.065 0.845,0.13 0.845,0.884 v 2.535 c 0,1.066 -0.130001,1.118 -0.91,1.183 -0.078,0.078 -0.078,0.351 0,0.429 0.533,-0.013 0.871001,-0.026 1.43,-0.026 0.507,0 0.741001,0.013 1.287,0.026 0.078,-0.078 0.078,-0.351 0,-0.429 -0.662999,-0.065 -0.78,-0.117 -0.78,-1.183 v -2.132 c 0,-0.273 0.117,-0.429 0.221,-0.546 0.494,-0.481 1.001001,-0.767 1.508,-0.767 0.26,0 0.533,0.169 0.689,0.468 0.13,0.26 0.156,0.611 0.156,1.001 v 1.976 c 0,1.066 -0.13,1.118 -0.806,1.183 -0.065,0.078 -0.065,0.351 0,0.429 0.546,-0.013 0.806001,-0.026 1.326,-0.026 0.533,0 0.819001,0.013 1.378,0.026 0.065,-0.078 0.065,-0.351 0,-0.429 -0.727999,-0.065 -0.871,-0.117 -0.871,-1.183 v -1.937 c 0,-0.715 -0.052,-1.339 -0.351,-1.742 -0.221,-0.286 -0.624,-0.442 -1.079,-0.442 -0.636999,0 -1.261001,0.169 -2.054,1.053" /><path
       id="path3957"
       d="m 43.655649,145.817 c -0.052,-0.117 -0.156,-0.169 -0.273,-0.182 -0.442,0.572 -1.001001,0.858 -1.56,0.858 -0.948999,0 -1.742,-0.962 -1.742,-2.483 0,-1.43 0.624001,-2.288 1.482,-2.288 0.766999,0 0.871,0.455 0.923,0.91 0.039,0.351 0.221,0.468 0.494,0.468 0.272999,0 0.637,-0.169 0.637,-0.572 0,-0.715 -0.741001,-1.235 -1.989,-1.235 -1.286999,0 -2.665,1.157 -2.665,3.003 0,1.677 0.936001,2.834 2.574,2.834 0.779999,0 1.469,-0.247 2.119,-1.313" /><path
       id="path3959"
       d="m 45.461414,139.213 c 0,0.338 0.312,0.676 0.624,0.676 0.363999,0 0.676,-0.338 0.676,-0.624 0,-0.312 -0.273001,-0.676 -0.624,-0.676 -0.312,0 -0.676,0.312 -0.676,0.624 m 1.183,6.201 v -2.587 c 0,-0.65 0.052,-1.482 0.052,-1.482 0,-0.052 -0.065,-0.091 -0.169,-0.091 -0.377,0.143 -0.884001,0.26 -1.781,0.377 -0.026,0.078 0,0.286 0.026,0.364 0.701999,0.078 0.845,0.143 0.845,0.884 v 2.535 c 0,1.079 -0.143001,1.118 -0.936,1.183 -0.078,0.078 -0.078,0.351 0,0.429 0.545999,-0.013 0.884,-0.026 1.456,-0.026 0.558999,0 0.884,0.013 1.443,0.026 0.078,-0.078 0.078,-0.351 0,-0.429 -0.793,-0.052 -0.936,-0.104 -0.936,-1.183" /><path
       id="path3962"
       d="m 53.29471,145.817 c -0.052,-0.117 -0.156,-0.169 -0.273,-0.182 -0.442,0.572 -1.001001,0.858 -1.56,0.858 -0.948999,0 -1.742,-0.962 -1.742,-2.483 0,-1.43 0.624001,-2.288 1.482,-2.288 0.766999,0 0.871,0.455 0.923,0.91 0.039,0.351 0.221,0.468 0.494,0.468 0.272999,0 0.637,-0.169 0.637,-0.572 0,-0.715 -0.741002,-1.235 -1.989,-1.235 -1.286999,0 -2.665,1.157 -2.665,3.003 0,1.677 0.936001,2.834 2.574,2.834 0.779999,0 1.469,-0.247 2.119,-1.313" /><path
       id="path3964"
       d="m 55.165478,145.414 c 0,1.079 -0.143,1.144 -0.936,1.183 -0.078,0.078 -0.078,0.351 0,0.429 0.546,-0.013 0.884001,-0.026 1.456,-0.026 0.559,0 0.884001,0.013 1.443,0.026 0.078,-0.078 0.078,-0.351 0,-0.429 -0.792999,-0.039 -0.936,-0.104 -0.936,-1.183 v -5.993 c 0,-0.845 0.052,-1.365 0.052,-1.365 0,-0.091 -0.052,-0.13 -0.169,-0.13 -0.324999,0.13 -1.3,0.312 -1.82,0.351 -0.026,0.104 0,0.312 0.078,0.39 0.676,0.039 0.832,-0.026 0.832,1.066 v 5.681" /><path
       id="path3966"
       d="m 58.191212,144.335 c 0,1.326 0.897002,2.795 2.73,2.795 1.936998,0 2.756,-1.612 2.756,-2.912 0,-1.352 -0.715002,-2.925 -2.73,-2.925 -1.754998,0 -2.756,1.391 -2.756,3.042 m 2.613,-2.613 c 1.117999,0 1.755,1.001 1.755,2.912 0,1.716 -0.793001,2.067 -1.404,2.067 -1.351999,0 -1.846,-1.664 -1.846,-2.665 0,-1.131 0.403001,-2.314 1.495,-2.314" /><path
       id="path3969"
       d="m 66.783993,142.645 c 0.402999,-0.416 0.923,-0.754 1.312999,-0.754 0.832,0 1.547001,0.936 1.547001,2.405 0,1.066 -0.377002,2.392 -1.833,2.392 -0.234,0 -0.689001,-0.065 -0.923,-0.273 -0.273,-0.234 -0.312001,-0.299 -0.312001,-0.78 v -2.418 c 0,-0.273 0.039,-0.39 0.208001,-0.572 m -0.104,-0.429 c -0.052,0.052 -0.130001,0.065 -0.130001,-0.039 0,-0.468 0.052,-0.832 0.052,-0.832 0,-0.052 -0.065,-0.091 -0.169,-0.091 -0.364,0.143 -0.858001,0.26 -1.755001,0.377 -0.026,0.078 10e-7,0.286 0.026,0.364 0.702,0.065 0.845001,0.143 0.845001,0.884 v 5.551 c 0,1.079 -0.143001,1.144 -0.936001,1.183 -0.078,0.078 -0.078,0.351 0,0.429 0.546,-0.013 0.884001,-0.026 1.456001,-0.026 0.610999,0 1.014,0.013 1.572999,0.026 0.078,-0.078 0.078,-0.351 0,-0.429 -0.922999,-0.052 -1.066,-0.104 -1.066,-1.183 v -1.404 c 0,-0.169 0.039,-0.143 0.182,-0.091 0.312,0.13 0.715001,0.195 1.131,0.195 0.728,0 1.378001,-0.221 1.911,-0.728 0.611,-0.598 0.962,-1.404 0.962,-2.457 0,-1.378 -0.975001,-2.652 -2.301,-2.652 -0.480999,0 -1.196,0.325 -1.780999,0.923" /><path
       id="path3971"
       d="m 73.27646,143.334 c 0.247,-1.469 1.157001,-1.586 1.469,-1.586 0.494,0 1.079,0.273 1.079,1.365 0,0.117 -0.052,0.182 -0.195,0.182 l -2.353,0.039 m 3.406,2.457 c -0.480999,0.494 -0.858,0.702 -1.612,0.702 -0.467999,0 -1.014,-0.273 -1.417,-0.936 -0.259999,-0.429 -0.416,-1.027 -0.416,-1.781 l 3.458,0.026 c 0.156,0 0.247,-0.078 0.247,-0.221 0,-1.092 -0.390001,-2.262 -2.197,-2.262 -1.130998,0 -2.6,1.079 -2.6,3.055 0,0.728 0.182001,1.43 0.611,1.924 0.442,0.52 1.053001,0.832 1.989,0.832 0.987999,0 1.690001,-0.455 2.21,-1.131 -0.039,-0.13 -0.117,-0.195 -0.273,-0.208" /><path
       id="path3973"
       d="m 82.340085,145.388 c 0,0.247 -0.026,0.351 -0.208,0.507 -0.481,0.416 -0.897001,0.624 -1.222,0.624 -0.702,0 -1.43,-0.767 -1.43,-2.392 0,-0.936 0.182,-1.456 0.377,-1.729 0.402999,-0.611 0.949,-0.65 1.209,-0.65 0.467999,0 0.793,0.169 1.053,0.468 0.182,0.208 0.221,0.299 0.221,0.702 v 2.47 m -0.143,0.962 c 0.052,-0.052 0.156,-0.078 0.156,0.013 0,0.312 0.143,0.767 0.143,0.767 0.104,0.039 0.143,0.026 0.247,0 0.285999,-0.234 0.780001,-0.429 1.573,-0.52 0.078,-0.078 0.078,-0.273 0,-0.351 -0.831999,-0.065 -0.949,-0.312 -0.949,-0.949 v -5.889 c 0,-0.845 0.052,-1.365 0.052,-1.365 0,-0.091 -0.052,-0.13 -0.169,-0.13 -0.325,0.13 -1.300001,0.312 -1.82,0.351 -0.026,0.104 0,0.312 0.078,0.39 0.675999,0.039 0.832,-0.026 0.832,1.066 v 1.664 c 0,0.091 -0.026,0.117 -0.117,0.117 -0.052,0 -0.585001,-0.221 -1.014,-0.221 -0.857999,0 -1.430001,0.286 -1.95,0.78 -0.559,0.559 -0.897,1.326 -0.897,2.288 0,1.599 0.806001,2.769 2.21,2.769 0.506999,0 0.988,-0.26 1.625,-0.78" /><path
       id="path3975"
       d="m 85.90126,139.213 c 0,0.338 0.312,0.676 0.624,0.676 0.363999,0 0.676,-0.338 0.676,-0.624 0,-0.312 -0.273001,-0.676 -0.624,-0.676 -0.312,0 -0.676,0.312 -0.676,0.624 m 1.183,6.201 v -2.587 c 0,-0.65 0.052,-1.482 0.052,-1.482 0,-0.052 -0.065,-0.091 -0.169,-0.091 -0.377,0.143 -0.884001,0.26 -1.781,0.377 -0.026,0.078 0,0.286 0.026,0.364 0.701999,0.078 0.845,0.143 0.845,0.884 v 2.535 c 0,1.079 -0.143001,1.118 -0.936,1.183 -0.078,0.078 -0.078,0.351 0,0.429 0.545999,-0.013 0.884,-0.026 1.456,-0.026 0.558999,0 0.884,0.013 1.443,0.026 0.078,-0.078 0.078,-0.351 0,-0.429 -0.793,-0.052 -0.936,-0.104 -0.936,-1.183" /><path
       id="path3977"
       d="m 92.369552,143.971 v 1.729 c 0,0.169 -0.078,0.26 -0.182,0.338 -0.338,0.273 -0.78,0.559 -1.144,0.559 -0.649999,0 -0.936,-0.52 -0.936,-0.923 0,-0.585 0.273001,-1.17 1.235,-1.43 l 1.027,-0.273 m 0,2.405 c 0.078,0.273 0.299001,0.754 1.001,0.754 0.636999,0 1.105,-0.52 1.105,-0.585 0,-0.091 -0.117,-0.221 -0.169,-0.221 -0.078,0 -0.13,0.208 -0.403,0.208 -0.507,0 -0.52,-0.507 -0.52,-1.105 v -1.937 c 0,-1.846 -1.014001,-2.197 -1.963,-2.197 -1.065999,0 -2.145,0.741 -2.145,1.443 0,0.312 0.156,0.455 0.455,0.455 0.377,0 0.572,-0.26 0.572,-0.429 0,-0.091 -0.013,-0.182 -0.039,-0.234 -0.013,-0.039 -0.026,-0.117 -0.026,-0.26 0,-0.403 0.585,-0.546 1.079,-0.546 0.442,0 1.053,0.221 1.053,1.69 0,0.091 -0.039,0.143 -0.078,0.156 l -1.118,0.273 c -1.247999,0.312 -2.145,1.001 -2.145,1.885 0,1.027 0.728001,1.404 1.638,1.404 0.597999,0 0.845001,-0.104 1.417,-0.546 l 0.26,-0.208 h 0.026" /><path
       id="path3979"
       d="m 99.586964,145.414 c 0,1.079 -0.143,1.144 -0.936,1.183 -0.078,0.078 -0.078,0.351 0,0.429 0.546,-0.013 0.884001,-0.026 1.455996,-0.026 0.559,0 0.884,0.013 1.443,0.026 0.078,-0.078 0.078,-0.351 0,-0.429 -0.79299,-0.039 -0.936,-0.104 -0.936,-1.183 v -5.993 c 0,-0.845 0.052,-1.365 0.052,-1.365 0,-0.091 -0.052,-0.13 -0.169,-0.13 -0.32499,0.13 -1.299996,0.312 -1.819996,0.351 -0.026,0.104 0,0.312 0.078,0.39 0.676,0.039 0.832,-0.026 0.832,1.066 v 5.681" /><path
       id="path3981"
       d="m 103.31469,145.414 c 0,1.079 -0.143,1.144 -0.936,1.183 -0.078,0.078 -0.078,0.351 0,0.429 0.546,-0.013 0.884,-0.026 1.456,-0.026 0.559,0 0.884,0.013 1.443,0.026 0.078,-0.078 0.078,-0.351 0,-0.429 -0.793,-0.039 -0.936,-0.104 -0.936,-1.183 v -5.993 c 0,-0.845 0.052,-1.365 0.052,-1.365 0,-0.091 -0.052,-0.13 -0.169,-0.13 -0.325,0.13 -1.3,0.312 -1.82,0.351 -0.026,0.104 0,0.312 0.078,0.39 0.676,0.039 0.832,-0.026 0.832,1.066 v 5.681" /><path
       id="path3983"
       d="m 106.97743,139.213 c 0,0.338 0.312,0.676 0.624,0.676 0.364,0 0.676,-0.338 0.676,-0.624 0,-0.312 -0.273,-0.676 -0.624,-0.676 -0.312,0 -0.676,0.312 -0.676,0.624 m 1.183,6.201 v -2.587 c 0,-0.65 0.052,-1.482 0.052,-1.482 0,-0.052 -0.065,-0.091 -0.169,-0.091 -0.377,0.143 -0.884,0.26 -1.781,0.377 -0.026,0.078 0,0.286 0.026,0.364 0.702,0.078 0.845,0.143 0.845,0.884 v 2.535 c 0,1.079 -0.143,1.118 -0.936,1.183 -0.078,0.078 -0.078,0.351 0,0.429 0.546,-0.013 0.884,-0.026 1.456,-0.026 0.559,0 0.884,0.013 1.443,0.026 0.078,-0.078 0.078,-0.351 0,-0.429 -0.793,-0.052 -0.936,-0.104 -0.936,-1.183" /><path
       id="path3985"
       d="m 111.89872,142.281 c 0.338,-0.299 0.728,-0.416 1.105,-0.416 0.793,0 1.443,0.962 1.443,2.223 0,1.482 -0.598,2.6 -1.833,2.6 -0.403,0 -0.676,-0.286 -0.936,-0.611 v -3.25 c 0,-0.273 0.052,-0.39 0.221,-0.546 m -0.091,-0.403 c -0.091,0.078 -0.13,0.052 -0.13,-0.065 v -2.392 c 0,-0.845 0.052,-1.365 0.052,-1.365 0,-0.091 -0.052,-0.13 -0.169,-0.13 -0.325,0.13 -1.3,0.312 -1.82,0.351 -0.026,0.104 0,0.312 0.078,0.39 0.676,0.039 0.832,-0.026 0.832,1.066 v 6.344 c 0,0.507 -0.013,0.741 -0.052,0.923 0.065,0.104 0.13,0.156 0.286,0.156 0.078,-0.065 0.208,-0.195 0.299,-0.312 0.143,-0.156 0.221,-0.156 0.364,-0.026 0.286,0.247 0.676,0.312 1.144,0.312 1.326,0 2.873,-1.209 2.873,-3.276 0,-1.586 -1.17,-2.561 -2.301,-2.561 -0.559,0 -1.053,0.221 -1.456,0.585" /><path
       id="path3987"
       d="m 117.63516,142.879 v 2.535 c 0,1.079 -0.156,1.131 -0.962,1.183 -0.078,0.078 -0.078,0.351 0,0.429 0.546,-0.013 0.962,-0.026 1.482,-0.026 0.533,0 1.014,0.013 1.573,0.026 0.078,-0.078 0.078,-0.351 0,-0.429 -0.90999,-0.065 -1.066,-0.104 -1.066,-1.183 v -1.807 c 0,-0.338 0.156,-0.637 0.312,-0.871 0.143,-0.208 0.442,-0.637 0.598,-0.637 0.091,0 0.195,0.013 0.273,0.091 0.13,0.13 0.26,0.377 0.533,0.377 0.312,0 0.611,-0.325 0.611,-0.65 0,-0.247 -0.234,-0.624 -0.78,-0.624 -0.611,0 -1.144,0.572 -1.443,1.079 -0.078,0.143 -0.117,0.078 -0.117,0.013 0,-0.416 0.065,-1.04 0.065,-1.04 0,-0.052 -0.065,-0.091 -0.169,-0.091 -0.364,0.143 -0.884,0.26 -1.781,0.377 -0.026,0.078 -0.026,0.286 0.026,0.364 0.702,0.065 0.845,0.169 0.845,0.884" /><path
       id="path3989"
       d="m 122.96982,143.334 c 0.247,-1.469 1.157,-1.586 1.469,-1.586 0.494,0 1.079,0.273 1.079,1.365 0,0.117 -0.052,0.182 -0.195,0.182 l -2.353,0.039 m 3.406,2.457 c -0.481,0.494 -0.858,0.702 -1.612,0.702 -0.468,0 -1.014,-0.273 -1.417,-0.936 -0.26,-0.429 -0.416,-1.027 -0.416,-1.781 l 3.458,0.026 c 0.156,0 0.247,-0.078 0.247,-0.221 0,-1.092 -0.39,-2.262 -2.197,-2.262 -1.131,0 -2.6,1.079 -2.6,3.055 0,0.728 0.182,1.43 0.611,1.924 0.442,0.52 1.053,0.832 1.989,0.832 0.988,0 1.69,-0.455 2.21,-1.131 -0.039,-0.13 -0.117,-0.195 -0.273,-0.208" /></g></svg>
