<?xml version="1.0" encoding="UTF-8" standalone="no"?>
<svg
   xmlns:dc="http://purl.org/dc/elements/1.1/"
   xmlns:cc="http://creativecommons.org/ns#"
   xmlns:rdf="http://www.w3.org/1999/02/22-rdf-syntax-ns#"
   xmlns:svg="http://www.w3.org/2000/svg"
   xmlns="http://www.w3.org/2000/svg"
   xml:space="preserve"
   enable-background="new 0 0 135 155"
   viewBox="0 0 130.24944 12.116"
   height="12.116"
   width="130.24944"
   y="0px"
   x="0px"
   id="svg3857"
   version="1.1"><metadata
     id="metadata698"><rdf:RDF><cc:Work
         rdf:about=""><dc:format>image/svg+xml</dc:format><dc:type
           rdf:resource="http://purl.org/dc/dcmitype/StillImage" /></cc:Work></rdf:RDF></metadata><defs
     id="defs3" /><path
     id="tagline"
     d="m 3.4775,4.381 h -1.183 v -2.6 c 0,-0.312 0.156,-0.572 0.468,-0.572 h 1.365 c 0.974999,0 1.183,0.52 1.469,1.417 0.156,0.026 0.299,0 0.429,-0.065 -0.065,-0.533 -0.26,-1.781 -0.286,-1.885 0,-0.026 -0.013,-0.039 -0.052,-0.039 -0.221,0.039 -0.325,0.052 -0.637,0.052 h -3.315 c 0,0 -1.027001,-0.013 -1.677,-0.026 -0.078,0.078 -0.078,0.351 0,0.429 0.909999,0.039 1.131,0.104 1.131,1.183 v 5.213 c 0,1.079 -0.221001,1.144 -1.131,1.183 -0.078,0.078 -0.078,0.351 0,0.429 0.636999,-0.013 1.69,-0.026 1.69,-0.026 h 2.795 C 5.167499,9.074 6.2075,9.1 6.2075,9.1 6.3895,8.45 6.5845,7.592 6.6885,6.929 6.5455,6.864 6.4025,6.825 6.2335,6.864 5.9735,7.8 5.518499,8.567 4.5305,8.567 h -1.768 c -0.286,0 -0.468,-0.208 -0.468,-0.559 V 4.875 h 1.183 c 1.104999,0 1.144,0.299 1.183,0.884 0.078,0.078 0.351,0.078 0.429,0 -0.013,-0.455 -0.026,-0.702 -0.026,-1.144 0,-0.442 0.013,-0.728 0.026,-1.118 -0.078,-0.078 -0.351,-0.078 -0.429,0 -0.039,0.715 -0.078,0.884 -1.183,0.884 M 9.255266,4.42 c -0.039,0.052 -0.13,0.182 -0.13,0 0,-0.39 0.065,-0.988 0.065,-0.988 0,-0.065 -0.052,-0.104 -0.156,-0.104 -0.364,0.143 -0.897001,0.26 -1.794,0.377 -0.026,0.078 0,0.286 0.026,0.364 0.701999,0.065 0.845,0.13 0.845,0.884 v 2.535 c 0,1.066 -0.130001,1.118 -0.91,1.183 -0.078,0.078 -0.078,0.351 0,0.429 0.532999,-0.013 0.871,-0.026 1.43,-0.026 0.506999,0 0.741,0.013 1.287,0.026 0.078,-0.078 0.078,-0.351 0,-0.429 -0.663,-0.065 -0.78,-0.117 -0.78,-1.183 V 5.356 c 0,-0.273 0.117,-0.429 0.221,-0.546 0.493999,-0.481 1.001,-0.767 1.508,-0.767 0.259999,0 0.533,0.169 0.689,0.468 0.13,0.26 0.156,0.611 0.156,1.001 v 1.976 c 0,1.066 -0.130001,1.118 -0.806,1.183 -0.065,0.078 -0.065,0.351 0,0.429 0.545999,-0.013 0.806,-0.026 1.326,-0.026 0.532999,0 0.819,0.013 1.378,0.026 0.065,-0.078 0.065,-0.351 0,-0.429 -0.728,-0.065 -0.871,-0.117 -0.871,-1.183 V 5.551 c 0,-0.715 -0.052,-1.339 -0.351,-1.742 -0.221,-0.286 -0.624001,-0.442 -1.079,-0.442 -0.637,0 -1.261001,0.169 -2.054,1.053 m 9.539031,3.471 c -0.052,-0.117 -0.156,-0.169 -0.273,-0.182 -0.441999,0.572 -1.001,0.858 -1.56,0.858 -0.948999,0 -1.742,-0.962 -1.742,-2.483 0,-1.43 0.624001,-2.288 1.482,-2.288 0.766999,0 0.871,0.455 0.923,0.91 0.039,0.351 0.221,0.468 0.494,0.468 0.273,0 0.637,-0.169 0.637,-0.572 0,-0.715 -0.741001,-1.235 -1.989,-1.235 -1.286999,0 -2.665,1.157 -2.665,3.003 0,1.677 0.936002,2.834 2.574,2.834 0.779999,0 1.469001,-0.247 2.119,-1.313 m 2.839765,3.263 c 0.195,-0.351 0.364,-0.728 0.533,-1.118 1.039999,-2.496 1.612001,-3.848 2.301,-5.304 0.182,-0.377 0.572001,-0.793 1.053,-0.832 0.078,-0.078 0.078,-0.351 0,-0.429 -0.325,0.013 -0.559,0.026 -0.923,0.026 -0.454999,0 -0.702,-0.013 -1.183,-0.026 -0.078,0.078 -0.078,0.351 0,0.429 0.403,0.039 0.819,0.117 0.624,0.585 l -1.3,2.977 c -0.091,0.221 -0.195,0.247 -0.312,-0.013 l -1.144,-2.704 c -0.234,-0.546 -0.376999,-0.78 0.416,-0.845 0.078,-0.078 0.078,-0.351 0,-0.429 -0.480999,0.013 -1.001,0.026 -1.469,0.026 -0.442,0 -0.793,-0.013 -1.053,-0.026 -0.078,0.078 -0.078,0.351 0,0.429 0.571999,0.052 0.676,0.156 1.027,0.975 l 1.469,3.419 c 0.117,0.273 0.312,0.858 0.182,1.222 -0.143,0.442 -0.312,0.793 -0.507,1.196 -0.143,0.26 -0.325,0.377 -0.65,0.377 -0.182,0 -0.234,-0.039 -0.377,-0.039 -0.377,0 -0.572,0.39 -0.572,0.559 0,0.273 0.26,0.481 0.611,0.481 0.273,0 0.793001,-0.104 1.261,-0.936 h 0.013 m 8.922345,-3.263 c -0.052,-0.117 -0.156,-0.169 -0.273,-0.182 -0.442,0.572 -1.001001,0.858 -1.56,0.858 -0.948999,0 -1.742,-0.962 -1.742,-2.483 0,-1.43 0.624001,-2.288 1.482,-2.288 0.766999,0 0.871,0.455 0.923,0.91 0.039,0.351 0.221,0.468 0.494,0.468 0.273,0 0.637,-0.169 0.637,-0.572 0,-0.715 -0.741001,-1.235 -1.989,-1.235 -1.286999,0 -2.665,1.157 -2.665,3.003 0,1.677 0.936002,2.834 2.574,2.834 0.779999,0 1.469001,-0.247 2.119,-1.313 m 1.370765,-0.403 c 0,1.079 -0.143001,1.144 -0.936,1.183 -0.078,0.078 -0.078,0.351 0,0.429 0.545999,-0.013 0.884,-0.026 1.456,-0.026 0.558999,0 0.884,0.013 1.443,0.026 0.078,-0.078 0.078,-0.351 0,-0.429 -0.792999,-0.039 -0.936,-0.104 -0.936,-1.183 V 1.495 c 0,-0.845 0.052,-1.365 0.052,-1.365 0,-0.091 -0.052,-0.13 -0.169,-0.13 -0.325,0.13 -1.300001,0.312 -1.82,0.351 -0.026,0.104 0,0.312 0.078,0.39 0.675999,0.039 0.832,-0.026 0.832,1.066 v 5.681 m 2.525733,-1.079 c 0,1.326 0.897002,2.795 2.73,2.795 1.936998,0 2.756,-1.612 2.756,-2.912 0,-1.352 -0.715002,-2.925 -2.73,-2.925 -1.754998,0 -2.756,1.391 -2.756,3.042 m 2.613,-2.613 c 1.117999,0 1.755,1.001 1.755,2.912 0,1.716 -0.793,2.067 -1.404,2.067 -1.351998,0 -1.846,-1.664 -1.846,-2.665 0,-1.131 0.403002,-2.314 1.495,-2.314 m 5.479781,0.923 c 0.402999,-0.416 0.923,-0.754 1.313,-0.754 0.831999,0 1.547,0.936 1.547,2.405 0,1.066 -0.377002,2.392 -1.833,2.392 -0.234,0 -0.689,-0.065 -0.923,-0.273 -0.273,-0.234 -0.312,-0.299 -0.312,-0.78 V 5.291 c 0,-0.273 0.039,-0.39 0.208,-0.572 m -0.104,-0.429 c -0.052,0.052 -0.13,0.065 -0.13,-0.039 0,-0.468 0.052,-0.832 0.052,-0.832 0,-0.052 -0.065,-0.091 -0.169,-0.091 -0.364,0.143 -0.858001,0.26 -1.755,0.377 -0.026,0.078 0,0.286 0.026,0.364 0.701999,0.065 0.845,0.143 0.845,0.884 v 5.551 c 0,1.079 -0.143001,1.144 -0.936,1.183 -0.078,0.078 -0.078,0.351 0,0.429 0.545999,-0.013 0.884,-0.026 1.456,-0.026 0.610999,0 1.014,0.013 1.573,0.026 0.078,-0.078 0.078,-0.351 0,-0.429 -0.922999,-0.052 -1.066,-0.104 -1.066,-1.183 V 9.1 c 0,-0.169 0.039,-0.143 0.182,-0.091 0.312,0.13 0.715,0.195 1.131,0.195 0.727999,0 1.378,-0.221 1.911,-0.728 0.610999,-0.598 0.962,-1.404 0.962,-2.457 0,-1.378 -0.975001,-2.652 -2.301,-2.652 -0.481,0 -1.196001,0.325 -1.781,0.923 m 6.096472,1.118 c 0.246999,-1.469 1.157,-1.586 1.469,-1.586 0.493999,0 1.079,0.273 1.079,1.365 0,0.117 -0.052,0.182 -0.195,0.182 l -2.353,0.039 m 3.406,2.457 c -0.481,0.494 -0.858001,0.702 -1.612,0.702 -0.468,0 -1.014001,-0.273 -1.417,-0.936 -0.26,-0.429 -0.416,-1.027 -0.416,-1.781 l 3.458,0.026 c 0.156,0 0.247,-0.078 0.247,-0.221 0,-1.092 -0.390002,-2.262 -2.197,-2.262 -1.130999,0 -2.6,1.079 -2.6,3.055 0,0.728 0.182,1.43 0.611,1.924 0.441999,0.52 1.053001,0.832 1.989,0.832 0.987999,0 1.69,-0.455 2.21,-1.131 -0.039,-0.13 -0.117,-0.195 -0.273,-0.208 m 5.157624,-0.403 c 0,0.247 -0.026,0.351 -0.208,0.507 -0.481,0.416 -0.897,0.624 -1.222,0.624 -0.701999,0 -1.43,-0.767 -1.43,-2.392 0,-0.936 0.182,-1.456 0.377,-1.729 0.403,-0.611 0.949,-0.65 1.209,-0.65 0.467999,0 0.793,0.169 1.053,0.468 0.182,0.208 0.221,0.299 0.221,0.702 v 2.47 m -0.143,0.962 c 0.052,-0.052 0.156,-0.078 0.156,0.013 0,0.312 0.143,0.767 0.143,0.767 0.104,0.039 0.143,0.026 0.247,0 0.286,-0.234 0.780001,-0.429 1.573,-0.52 0.078,-0.078 0.078,-0.273 0,-0.351 -0.831999,-0.065 -0.949,-0.312 -0.949,-0.949 V 1.495 c 0,-0.845 0.052,-1.365 0.052,-1.365 0,-0.091 -0.052,-0.13 -0.169,-0.13 -0.325,0.13 -1.300001,0.312 -1.82,0.351 -0.026,0.104 0,0.312 0.078,0.39 0.675999,0.039 0.832,-0.026 0.832,1.066 v 1.664 c 0,0.091 -0.026,0.117 -0.117,0.117 -0.052,0 -0.585,-0.221 -1.014,-0.221 -0.857999,0 -1.430001,0.286 -1.95,0.78 -0.558999,0.559 -0.897,1.326 -0.897,2.288 0,1.599 0.806001,2.769 2.21,2.769 0.506999,0 0.988001,-0.26 1.625,-0.78 m 3.204171,-7.137 c 0,0.338 0.312,0.676 0.624,0.676 0.364,0 0.676,-0.338 0.676,-0.624 0,-0.312 -0.273,-0.676 -0.624,-0.676 -0.312,0 -0.676,0.312 -0.676,0.624 m 1.183,6.201 V 4.901 c 0,-0.65 0.052,-1.482 0.052,-1.482 0,-0.052 -0.065,-0.091 -0.169,-0.091 -0.377,0.143 -0.884001,0.26 -1.781,0.377 -0.026,0.078 0,0.286 0.026,0.364 0.701999,0.078 0.845,0.143 0.845,0.884 v 2.535 c 0,1.079 -0.143001,1.118 -0.936,1.183 -0.078,0.078 -0.078,0.351 0,0.429 0.546,-0.013 0.884001,-0.026 1.456,-0.026 0.558999,0 0.884001,0.013 1.443,0.026 0.078,-0.078 0.078,-0.351 0,-0.429 -0.792999,-0.052 -0.936,-0.104 -0.936,-1.183 m 4.785296,-1.443 v 1.729 c 0,0.169 -0.078,0.26 -0.182,0.338 -0.337999,0.273 -0.78,0.559 -1.144,0.559 -0.649999,0 -0.936,-0.52 -0.936,-0.923 0,-0.585 0.273001,-1.17 1.235,-1.43 l 1.027,-0.273 m 0,2.405 c 0.078,0.273 0.299001,0.754 1.001,0.754 0.637,0 1.105,-0.52 1.105,-0.585 0,-0.091 -0.117,-0.221 -0.169,-0.221 -0.078,0 -0.13,0.208 -0.403,0.208 -0.506999,0 -0.52,-0.507 -0.52,-1.105 V 5.564 c 0,-1.846 -1.014001,-2.197 -1.963,-2.197 -1.065999,0 -2.145,0.741 -2.145,1.443 0,0.312 0.156,0.455 0.455,0.455 0.377,0 0.572,-0.26 0.572,-0.429 0,-0.091 -0.013,-0.182 -0.039,-0.234 -0.013,-0.039 -0.026,-0.117 -0.026,-0.26 0,-0.403 0.585001,-0.546 1.079,-0.546 0.442,0 1.053,0.221 1.053,1.69 0,0.091 -0.039,0.143 -0.078,0.156 l -1.118,0.273 c -1.247999,0.312 -2.145,1.001 -2.145,1.885 0,1.027 0.728001,1.404 1.638,1.404 0.598,0 0.845001,-0.104 1.417,-0.546 l 0.26,-0.208 h 0.026 m 5.094409,-3.042 c 0.246999,-1.469 1.157,-1.586 1.469,-1.586 0.493999,0 1.079,0.273 1.079,1.365 0,0.117 -0.052,0.182 -0.195,0.182 l -2.353,0.039 m 3.406,2.457 c -0.481,0.494 -0.858001,0.702 -1.612,0.702 -0.468,0 -1.014001,-0.273 -1.417,-0.936 -0.26,-0.429 -0.416,-1.027 -0.416,-1.781 l 3.458,0.026 c 0.155999,0 0.247,-0.078 0.247,-0.221 0,-1.092 -0.390002,-2.262 -2.197,-2.262 -1.130999,0 -2.6,1.079 -2.6,3.055 0,0.728 0.182,1.43 0.611,1.924 0.441999,0.52 1.053001,0.832 1.989,0.832 0.987999,0 1.69,-0.455 2.21,-1.131 -0.039,-0.13 -0.117001,-0.195 -0.273,-0.208 m 1.155448,-4.368 c -0.182,0 -0.234,0.156 -0.234,0.26 v 0.169 c 0,0.065 0.013,0.078 0.065,0.078 h 0.767 v 3.913 c 0,0.923 0.403001,1.287 1.001,1.287 0.598,0 1.248001,-0.286 1.755,-0.858 -0.026,-0.13 -0.104,-0.208 -0.234,-0.221 -0.337999,0.26 -0.728,0.364 -1.066,0.364 -0.350999,0 -0.429,-0.39 -0.429,-1.196 V 4.004 h 1.352 c 0.13,0 0.312,-0.052 0.312,-0.169 v -0.26 c 0,-0.052 -0.039,-0.078 -0.104,-0.078 h -1.56 V 2.99 c 0,-0.845 0.052,-1.365 0.052,-1.365 0,-0.091 -0.052,-0.13 -0.169,-0.13 l -0.754,0.351 c -0.078,0.039 -0.195,0.065 -0.182,0.156 0.026,0.299 0.026,0.416 0.026,1.495 h -0.598 m 7.163285,2.548 v 1.729 c 0,0.169 -0.078,0.26 -0.182,0.338 -0.338,0.273 -0.780001,0.559 -1.144,0.559 -0.65,0 -0.936,-0.52 -0.936,-0.923 0,-0.585 0.273,-1.17 1.235,-1.43 l 1.027,-0.273 m 0,2.405 c 0.078,0.273 0.299,0.754 1.001,0.754 0.636999,0 1.105,-0.52 1.105,-0.585 0,-0.091 -0.117001,-0.221 -0.169,-0.221 -0.078,0 -0.130001,0.208 -0.403,0.208 -0.507,0 -0.52,-0.507 -0.52,-1.105 V 5.564 c 0,-1.846 -1.014001,-2.197 -1.963,-2.197 -1.065999,0 -2.145,0.741 -2.145,1.443 0,0.312 0.156,0.455 0.455,0.455 0.376999,0 0.572,-0.26 0.572,-0.429 0,-0.091 -0.013,-0.182 -0.039,-0.234 -0.013,-0.039 -0.026,-0.117 -0.026,-0.26 0,-0.403 0.585,-0.546 1.079,-0.546 0.441999,0 1.053,0.221 1.053,1.69 0,0.091 -0.039,0.143 -0.078,0.156 l -1.118,0.273 c -1.247999,0.312 -2.145,1.001 -2.145,1.885 0,1.027 0.728,1.404 1.638,1.404 0.597999,0 0.845,-0.104 1.417,-0.546 l 0.26,-0.208 h 0.026 M 86.1828,4.953 v 2.535 c 0,1.079 -0.156001,1.131 -0.962,1.183 -0.078,0.078 -0.078,0.351 0,0.429 0.545999,-0.013 0.962,-0.026 1.482,-0.026 0.532999,0 1.014,0.013 1.573,0.026 0.078,-0.078 0.078,-0.351 0,-0.429 -0.909999,-0.065 -1.066,-0.104 -1.066,-1.183 V 5.681 c 0,-0.338 0.156,-0.637 0.312,-0.871 0.143,-0.208 0.442,-0.637 0.598,-0.637 0.091,0 0.195,0.013 0.273,0.091 0.13,0.13 0.26,0.377 0.533,0.377 0.311999,0 0.611,-0.325 0.611,-0.65 0,-0.247 -0.234001,-0.624 -0.78,-0.624 -0.611,0 -1.144,0.572 -1.443,1.079 -0.078,0.143 -0.117,0.078 -0.117,0.013 0,-0.416 0.065,-1.04 0.065,-1.04 0,-0.052 -0.065,-0.091 -0.169,-0.091 -0.364,0.143 -0.884001,0.26 -1.781,0.377 -0.026,0.078 -0.026,0.286 0.026,0.364 0.701999,0.065 0.845,0.169 0.845,0.884 m 4.494214,-3.666 c 0,0.338 0.312,0.676 0.624,0.676 0.364,0 0.676,-0.338 0.676,-0.624 0,-0.312 -0.273,-0.676 -0.624,-0.676 -0.312,0 -0.676,0.312 -0.676,0.624 m 1.183,6.201 V 4.901 c 0,-0.65 0.052,-1.482 0.052,-1.482 0,-0.052 -0.065,-0.091 -0.169,-0.091 -0.377,0.143 -0.884001,0.26 -1.781,0.377 -0.026,0.078 0,0.286 0.026,0.364 0.701999,0.078 0.845,0.143 0.845,0.884 v 2.535 c 0,1.079 -0.143001,1.118 -0.936,1.183 -0.078,0.078 -0.078,0.351 0,0.429 0.545999,-0.013 0.884001,-0.026 1.456,-0.026 0.558999,0 0.884001,0.013 1.443,0.026 0.078,-0.078 0.078,-0.351 0,-0.429 -0.792999,-0.052 -0.936,-0.104 -0.936,-1.183 M 96.856309,4.81 c 0.507,-0.494 0.923001,-0.767 1.326,-0.767 0.494,0 0.858,0.312 0.858,1.183 v 2.262 c 0,1.066 -0.104,1.131 -0.806,1.183 -0.065,0.078 -0.065,0.351 0,0.429 0.546,-0.013 0.806001,-0.026 1.326,-0.026 0.533001,0 0.715001,0.013 1.274001,0.026 0.065,-0.078 0.065,-0.351 0,-0.429 -0.65,-0.052 -0.767,-0.117 -0.767,-1.183 V 5.421 c 0,-0.182 0,-0.364 -0.013,-0.52 0.624,-0.689 1.131,-0.858 1.638,-0.858 0.494,0 0.806,0.286 0.806,1.157 v 2.288 c 0,1.066 -0.13,1.131 -0.806,1.183 -0.065,0.078 -0.065,0.351 0,0.429 0.546,-0.013 0.806,-0.026 1.326,-0.026 0.533,0 0.78,0.013 1.339,0.026 0.065,-0.078 0.065,-0.351 0,-0.429 -0.715,-0.052 -0.832,-0.117 -0.832,-1.183 V 5.434 c 0,-1.157 -0.221,-2.067 -1.365,-2.067 -0.676,0 -1.391,0.247 -2.067,0.962 -0.039,0.039 -0.117001,0.104 -0.143001,0 -0.129999,-0.533 -0.624,-0.962 -1.3,-0.962 -0.753999,0 -1.326,0.455 -1.898,1.053 -0.052,0.052 -0.13,0.182 -0.13,0 0,-0.39 0.065,-0.988 0.065,-0.988 0,-0.065 -0.052,-0.104 -0.156,-0.104 -0.376999,0.143 -0.897001,0.26 -1.794,0.377 -0.026,0.078 0,0.286 0.026,0.364 0.702,0.078 0.845,0.13 0.845,0.884 v 2.535 c 0,1.066 -0.169,1.131 -0.884,1.183 -0.078,0.078 -0.078,0.351 0,0.429 0.533,-0.013 0.845001,-0.026 1.404,-0.026 0.507,0 0.728001,0.013 1.274,0.026 0.078,-0.078 0.078,-0.351 0,-0.429 -0.649999,-0.065 -0.767,-0.117 -0.767,-1.183 V 5.356 c 0,-0.273 0.117,-0.429 0.221,-0.546 m 11.269861,1.235 v 1.729 c 0,0.169 -0.078,0.26 -0.182,0.338 -0.338,0.273 -0.78,0.559 -1.144,0.559 -0.65,0 -0.936,-0.52 -0.936,-0.923 0,-0.585 0.273,-1.17 1.235,-1.43 l 1.027,-0.273 m 0,2.405 c 0.078,0.273 0.299,0.754 1.001,0.754 0.637,0 1.105,-0.52 1.105,-0.585 0,-0.091 -0.117,-0.221 -0.169,-0.221 -0.078,0 -0.13,0.208 -0.403,0.208 -0.507,0 -0.52,-0.507 -0.52,-1.105 V 5.564 c 0,-1.846 -1.014,-2.197 -1.963,-2.197 -1.066,0 -2.145,0.741 -2.145,1.443 0,0.312 0.156,0.455 0.455,0.455 0.377,0 0.572,-0.26 0.572,-0.429 0,-0.091 -0.013,-0.182 -0.039,-0.234 -0.013,-0.039 -0.026,-0.117 -0.026,-0.26 0,-0.403 0.585,-0.546 1.079,-0.546 0.442,0 1.053,0.221 1.053,1.69 0,0.091 -0.039,0.143 -0.078,0.156 l -1.118,0.273 c -1.248,0.312 -2.145,1.001 -2.145,1.885 0,1.027 0.728,1.404 1.638,1.404 0.598,0 0.845,-0.104 1.417,-0.546 l 0.26,-0.208 h 0.026 m 3.23241,-3.497 v 2.535 c 0,1.079 -0.156,1.131 -0.962,1.183 -0.078,0.078 -0.078,0.351 0,0.429 0.546,-0.013 0.962,-0.026 1.482,-0.026 0.533,0 1.014,0.013 1.573,0.026 0.078,-0.078 0.078,-0.351 0,-0.429 -0.91,-0.065 -1.066,-0.104 -1.066,-1.183 V 5.681 c 0,-0.338 0.156,-0.637 0.312,-0.871 0.143,-0.208 0.442,-0.637 0.598,-0.637 0.091,0 0.195,0.013 0.273,0.091 0.13,0.13 0.26,0.377 0.533,0.377 0.312,0 0.611,-0.325 0.611,-0.65 0,-0.247 -0.234,-0.624 -0.78,-0.624 -0.611,0 -1.144,0.572 -1.443,1.079 -0.078,0.143 -0.117,0.078 -0.117,0.013 0,-0.416 0.065,-1.04 0.065,-1.04 0,-0.052 -0.065,-0.091 -0.169,-0.091 -0.364,0.143 -0.884,0.26 -1.781,0.377 -0.026,0.078 -0.026,0.286 0.026,0.364 0.702,0.065 0.845,0.169 0.845,0.884 m 4.83465,0.455 c 0.247,-1.469 1.157,-1.586 1.469,-1.586 0.494,0 1.079,0.273 1.079,1.365 0,0.117 -0.052,0.182 -0.195,0.182 l -2.353,0.039 m 3.406,2.457 c -0.481,0.494 -0.858,0.702 -1.612,0.702 -0.468,0 -1.014,-0.273 -1.417,-0.936 -0.26,-0.429 -0.416,-1.027 -0.416,-1.781 l 3.458,0.026 c 0.156,0 0.247,-0.078 0.247,-0.221 0,-1.092 -0.39,-2.262 -2.197,-2.262 -1.131,0 -2.6,1.079 -2.6,3.055 0,0.728 0.182,1.43 0.611,1.924 0.442,0.52 1.053,0.832 1.989,0.832 0.988,0 1.69,-0.455 2.21,-1.131 -0.039,-0.13 -0.117,-0.195 -0.273,-0.208 m 2.76746,-2.496 c 0,-0.286 0.117,-0.442 0.221,-0.559 0.494,-0.481 1.066,-0.767 1.586,-0.767 0.26,0 0.533,0.182 0.689,0.468 0.13,0.26 0.156,0.611 0.156,1.001 v 1.976 c 0,1.066 -0.13,1.118 -0.806,1.183 -0.065,0.078 -0.065,0.351 0,0.429 0.546,-0.013 0.806,-0.026 1.326,-0.026 0.533,0 0.819,0.013 1.378,0.026 0.065,-0.078 0.065,-0.351 0,-0.429 -0.728,-0.065 -0.871,-0.117 -0.871,-1.183 V 5.551 c 0,-0.715 -0.052,-1.339 -0.351,-1.742 -0.221,-0.286 -0.624,-0.442 -1.079,-0.442 -0.65,0 -1.339,0.169 -2.132,1.053 -0.052,0.052 -0.13,0.182 -0.13,0 l 0.013,-2.925 c 0,-0.845 0.052,-1.365 0.052,-1.365 0,-0.091 -0.052,-0.13 -0.169,-0.13 -0.325,0.13 -1.3,0.312 -1.82,0.351 -0.026,0.104 0,0.312 0.078,0.39 0.676,0.039 0.832,-0.026 0.832,1.066 v 5.681 c 0,1.079 -0.156,1.131 -0.91,1.183 -0.078,0.078 -0.078,0.351 0,0.429 0.533,-0.013 0.871,-0.026 1.43,-0.026 0.507,0 0.728,0.013 1.274,0.026 0.078,-0.078 0.078,-0.351 0,-0.429 -0.65,-0.052 -0.767,-0.104 -0.767,-1.183 V 5.369 m 5.70524,-4.082 c 0,0.338 0.312,0.676 0.624,0.676 0.364,0 0.676,-0.338 0.676,-0.624 0,-0.312 -0.273,-0.676 -0.624,-0.676 -0.312,0 -0.676,0.312 -0.676,0.624 m 1.183,6.201 V 4.901 c 0,-0.65 0.052,-1.482 0.052,-1.482 0,-0.052 -0.065,-0.091 -0.169,-0.091 -0.377,0.143 -0.884,0.26 -1.781,0.377 -0.026,0.078 0,0.286 0.026,0.364 0.702,0.078 0.845,0.143 0.845,0.884 v 2.535 c 0,1.079 -0.143,1.118 -0.936,1.183 -0.078,0.078 -0.078,0.351 0,0.429 0.546,-0.013 0.884,-0.026 1.456,-0.026 0.559,0 0.884,0.013 1.443,0.026 0.078,-0.078 0.078,-0.351 0,-0.429 -0.793,-0.052 -0.936,-0.104 -0.936,-1.183"
     style="font-style:normal;font-variant:normal;font-weight:normal;font-stretch:normal;font-size:13px;font-family:Sans;-inkscape-font-specification:Sans;letter-spacing:-0.2;word-spacing:-1.5;fill:#000000;fill-opacity:1;stroke:none;stroke-width:1px;stroke-linecap:butt;stroke-linejoin:miter;stroke-opacity:1" /></svg>
