<?xml version="1.0" encoding="UTF-8" standalone="no"?>
<svg
   xmlns:dc="http://purl.org/dc/elements/1.1/"
   xmlns:cc="http://creativecommons.org/ns#"
   xmlns:rdf="http://www.w3.org/1999/02/22-rdf-syntax-ns#"
   xmlns:svg="http://www.w3.org/2000/svg"
   xmlns="http://www.w3.org/2000/svg"
   id="svg3857"
   xml:space="preserve"
   enable-background="new 0 0 135 155"
   viewBox="0 0 118.34039 11.492029"
   height="11.492029"
   width="118.34039"
   y="0px"
   x="0px"
   version="1.1"><metadata
     id="metadata4852"><rdf:RDF><cc:Work
         rdf:about=""><dc:format>image/svg+xml</dc:format><dc:type
           rdf:resource="http://purl.org/dc/dcmitype/StillImage" /><dc:title /></cc:Work></rdf:RDF></metadata><defs
     id="defs4850"><radialGradient
       id="SVGID_1_"
       cx="-145.4702"
       cy="87.823196"
       r="68.686401"
       gradientTransform="matrix(1,0,0,-1,192.3999,143.0996)"
       gradientUnits="userSpaceOnUse">
		<stop
   offset="0"
   style="stop-color:#FFFFFF"
   id="stop3922" />
		<stop
   offset="0.4835"
   style="stop-color:#EAEAEB"
   id="stop3924" />
		<stop
   offset="0.9451"
   style="stop-color:#A9ABAE"
   id="stop3926" />
		<stop
   offset="1"
   style="stop-color:#999B9E"
   id="stop3928" />
	</radialGradient><linearGradient
       id="SVGID_2_"
       gradientUnits="userSpaceOnUse"
       x1="66.232399"
       y1="24.481001"
       x2="112.7331"
       y2="97.232101">
		<stop
   offset="0"
   style="stop-color:#8A8A8A"
   id="stop3935" />
		<stop
   offset="0.5687"
   style="stop-color:#606060"
   id="stop3937" />
		<stop
   offset="0.5914"
   style="stop-color:#FFFFFF"
   id="stop3939" />
		<stop
   offset="0.6116"
   style="stop-color:#585858"
   id="stop3941" />
		<stop
   offset="1"
   style="stop-color:#303030"
   id="stop3943" />
	</linearGradient><linearGradient
       id="SVGID_5_"
       gradientUnits="userSpaceOnUse"
       x1="54.715801"
       y1="65.136703"
       x2="83.798798"
       y2="65.136703">
		<stop
   offset="0"
   style="stop-color:#231F20"
   id="stop3964" />
		<stop
   offset="1"
   style="stop-color:#474747"
   id="stop3966" />
	</linearGradient><linearGradient
       id="SVGID_6_"
       gradientUnits="userSpaceOnUse"
       x1="-123.5898"
       y1="119.8076"
       x2="-94.069099"
       y2="29.9035"
       gradientTransform="matrix(1,0,0,-1,192.3999,143.0996)">
		<stop
   offset="0"
   style="stop-color:#FFFFFF"
   id="stop3997" />
		<stop
   offset="0.0094"
   style="stop-color:#FCFCFC"
   id="stop3999" />
		<stop
   offset="0.0655"
   style="stop-color:#EEEEEE"
   id="stop4001" />
		<stop
   offset="0.1342"
   style="stop-color:#E5E5E5"
   id="stop4003" />
		<stop
   offset="0.2515"
   style="stop-color:#E3E3E3"
   id="stop4005" />
		<stop
   offset="0.3357"
   style="stop-color:#8A8A8A"
   id="stop4007" />
		<stop
   offset="0.4422"
   style="stop-color:#B8B8B8"
   id="stop4009" />
		<stop
   offset="1"
   style="stop-color:#3B3B3B"
   id="stop4011" />
	</linearGradient><linearGradient
       id="SVGID_7_"
       gradientUnits="userSpaceOnUse"
       x1="70.421898"
       y1="26.876499"
       x2="119.5471"
       y2="87.626701">
		<stop
   offset="0"
   style="stop-color:#EFF0F0"
   id="stop4016" />
		<stop
   offset="0.5914"
   style="stop-color:#F0F1F2"
   id="stop4018" />
		<stop
   offset="0.599"
   style="stop-color:#787878"
   id="stop4020" />
		<stop
   offset="0.6456"
   style="stop-color:#EEEFF0"
   id="stop4022" />
		<stop
   offset="1"
   style="stop-color:#D8D9DB"
   id="stop4024" />
	</linearGradient><linearGradient
       id="SVGID_8_"
       gradientUnits="userSpaceOnUse"
       x1="-117.166"
       y1="122.1328"
       x2="-87.569702"
       y2="31.998501"
       gradientTransform="matrix(1,0,0,-1,192.3999,143.0996)">
		<stop
   offset="0"
   style="stop-color:#FFFFFF"
   id="stop4029" />
		<stop
   offset="1"
   style="stop-color:#E4E5E6"
   id="stop4031" />
	</linearGradient><linearGradient
       id="SVGID_9_"
       gradientUnits="userSpaceOnUse"
       x1="54.653301"
       y1="25.2764"
       x2="79.683601"
       y2="106.3903">
		<stop
   offset="0"
   style="stop-color:#FFFFFF"
   id="stop4036" />
		<stop
   offset="0.7473"
   style="stop-color:#F9F9F9"
   id="stop4038" />
		<stop
   offset="1"
   style="stop-color:#D5D7D8"
   id="stop4040" />
	</linearGradient><linearGradient
       id="SVGID_10_"
       gradientUnits="userSpaceOnUse"
       x1="-115.3369"
       y1="119.6328"
       x2="-134.85719"
       y2="24.6462"
       gradientTransform="matrix(1,0,0,-1,192.3999,143.0996)">
		<stop
   offset="0"
   style="stop-color:#FFFFFF"
   id="stop4061" />
		<stop
   offset="1"
   style="stop-color:#E4E5E6"
   id="stop4063" />
	</linearGradient><linearGradient
       id="SVGID_11_"
       gradientUnits="userSpaceOnUse"
       x1="32.519001"
       y1="33.077099"
       x2="37.2481"
       y2="92.496101">
		<stop
   offset="0.2198"
   style="stop-color:#989A9C"
   id="stop4068" />
		<stop
   offset="0.2527"
   style="stop-color:#FFFFFF"
   id="stop4070" />
	</linearGradient><linearGradient
       id="SVGID_12_"
       gradientUnits="userSpaceOnUse"
       x1="-152.6201"
       y1="126.8398"
       x2="-171.9462"
       y2="32.797901"
       gradientTransform="matrix(1,0,0,-1,192.3999,143.0996)">
		<stop
   offset="0"
   style="stop-color:#FFFFFF"
   id="stop4075" />
		<stop
   offset="1"
   style="stop-color:#E4E5E6"
   id="stop4077" />
	</linearGradient><linearGradient
       id="SVGID_13_"
       gradientUnits="userSpaceOnUse"
       x1="-130.1348"
       y1="35.625"
       x2="-130.14281"
       y2="35.585701"
       gradientTransform="matrix(1,0,0,-1,192.3999,143.0996)">
		<stop
   offset="0"
   style="stop-color:#FFFFFF"
   id="stop4082" />
		<stop
   offset="1"
   style="stop-color:#E4E5E6"
   id="stop4084" />
	</linearGradient><linearGradient
       id="SVGID_14_"
       gradientUnits="userSpaceOnUse"
       x1="-121.1382"
       y1="120.3223"
       x2="-140.54491"
       y2="25.888"
       gradientTransform="matrix(1,0,0,-1,192.3999,143.0996)">
		<stop
   offset="0"
   style="stop-color:#FFFFFF"
   id="stop4093" />
		<stop
   offset="1"
   style="stop-color:#E4E5E6"
   id="stop4095" />
	</linearGradient><linearGradient
       id="SVGID_15_"
       gradientUnits="userSpaceOnUse"
       x1="-135.58591"
       y1="123.3525"
       x2="-155.006"
       y2="28.8524"
       gradientTransform="matrix(1,0,0,-1,192.3999,143.0996)">
		<stop
   offset="0"
   style="stop-color:#FFFFFF"
   id="stop4100" />
		<stop
   offset="1"
   style="stop-color:#E4E5E6"
   id="stop4102" />
	</linearGradient><linearGradient
       id="SVGID_16_"
       gradientUnits="userSpaceOnUse"
       x1="-127.4014"
       y1="121.9365"
       x2="-146.8837"
       y2="27.1346"
       gradientTransform="matrix(1,0,0,-1,192.3999,143.0996)">
		<stop
   offset="0"
   style="stop-color:#FFFFFF"
   id="stop4107" />
		<stop
   offset="1"
   style="stop-color:#E4E5E6"
   id="stop4109" />
	</linearGradient><linearGradient
       id="SVGID_17_"
       gradientUnits="userSpaceOnUse"
       x1="-118.4946"
       y1="124.0039"
       x2="-138.85201"
       y2="24.9438"
       gradientTransform="matrix(1,0,0,-1,192.3999,143.0996)">
		<stop
   offset="0"
   style="stop-color:#FFFFFF"
   id="stop4114" />
		<stop
   offset="1"
   style="stop-color:#E4E5E6"
   id="stop4116" />
	</linearGradient><linearGradient
       id="SVGID_18_"
       gradientUnits="userSpaceOnUse"
       x1="-115.3716"
       y1="119.1758"
       x2="-134.7878"
       y2="24.695299"
       gradientTransform="matrix(1,0,0,-1,192.3999,143.0996)">
		<stop
   offset="0"
   style="stop-color:#FFFFFF"
   id="stop4121" />
		<stop
   offset="1"
   style="stop-color:#E4E5E6"
   id="stop4123" />
	</linearGradient><linearGradient
       id="SVGID_21_"
       gradientUnits="userSpaceOnUse"
       x1="-175.4424"
       y1="83.6045"
       x2="-75.6362"
       y2="83.6045"
       gradientTransform="matrix(1,0,0,-1,192.3999,143.0996)">
		<stop
   offset="0"
   style="stop-color:#555555"
   id="stop4198" />
		<stop
   offset="1"
   style="stop-color:#231F20"
   id="stop4200" />
	</linearGradient><linearGradient
       id="SVGID_22_"
       gradientUnits="userSpaceOnUse"
       x1="-175.14211"
       y1="104.0801"
       x2="-83.541"
       y2="104.0801"
       gradientTransform="matrix(1,0,0,-1,192.3999,143.0996)">
		<stop
   offset="0"
   style="stop-color:#A0A0A0"
   id="stop4205" />
		<stop
   offset="0.0769"
   style="stop-color:#656767"
   id="stop4207" />
		<stop
   offset="1"
   style="stop-color:#717375"
   id="stop4209" />
	</linearGradient><linearGradient
       id="SVGID_23_"
       gradientUnits="userSpaceOnUse"
       x1="-172.3853"
       y1="78.209"
       x2="-172.3853"
       y2="78.209"
       gradientTransform="matrix(1,0,0,-1,192.3999,143.0996)">
		<stop
   offset="0"
   style="stop-color:#FFFFFF"
   id="stop4224" />
		<stop
   offset="0.078"
   style="stop-color:#F4F4F4"
   id="stop4226" />
		<stop
   offset="0.3807"
   style="stop-color:#CECECE"
   id="stop4228" />
		<stop
   offset="0.5396"
   style="stop-color:#BFBFBF"
   id="stop4230" />
		<stop
   offset="0.8357"
   style="stop-color:#7C7C7C"
   id="stop4232" />
		<stop
   offset="0.8996"
   style="stop-color:#A8A8A8"
   id="stop4234" />
		<stop
   offset="0.9093"
   style="stop-color:#9A9A9A"
   id="stop4236" />
		<stop
   offset="0.9327"
   style="stop-color:#7D7D7D"
   id="stop4238" />
		<stop
   offset="0.9558"
   style="stop-color:#686868"
   id="stop4240" />
		<stop
   offset="0.9785"
   style="stop-color:#5B5B5B"
   id="stop4242" />
		<stop
   offset="1"
   style="stop-color:#575757"
   id="stop4244" />
	</linearGradient><linearGradient
       id="SVGID_24_"
       gradientUnits="userSpaceOnUse"
       x1="-175.7173"
       y1="78.449203"
       x2="-67.153198"
       y2="90.476799"
       gradientTransform="matrix(1,0,0,-1,192.3999,143.0996)">
		<stop
   offset="0"
   style="stop-color:#FFFFFF"
   id="stop4249" />
		<stop
   offset="0.078"
   style="stop-color:#F4F4F4"
   id="stop4251" />
		<stop
   offset="0.3807"
   style="stop-color:#CECECE"
   id="stop4253" />
		<stop
   offset="0.5396"
   style="stop-color:#BFBFBF"
   id="stop4255" />
		<stop
   offset="0.8357"
   style="stop-color:#7C7C7C"
   id="stop4257" />
		<stop
   offset="0.8996"
   style="stop-color:#A8A8A8"
   id="stop4259" />
		<stop
   offset="0.9093"
   style="stop-color:#9A9A9A"
   id="stop4261" />
		<stop
   offset="0.9327"
   style="stop-color:#7D7D7D"
   id="stop4263" />
		<stop
   offset="0.9558"
   style="stop-color:#686868"
   id="stop4265" />
		<stop
   offset="0.9785"
   style="stop-color:#5B5B5B"
   id="stop4267" />
		<stop
   offset="1"
   style="stop-color:#575757"
   id="stop4269" />
	</linearGradient><linearGradient
       id="SVGID_25_"
       gradientUnits="userSpaceOnUse"
       x1="-176.1851"
       y1="78.4795"
       x2="-52.131699"
       y2="92.223099"
       gradientTransform="matrix(1,0,0,-1,192.3999,143.0996)">
		<stop
   offset="0"
   style="stop-color:#FFFFFF"
   id="stop4274" />
		<stop
   offset="0.078"
   style="stop-color:#F4F4F4"
   id="stop4276" />
		<stop
   offset="0.3807"
   style="stop-color:#CECECE"
   id="stop4278" />
		<stop
   offset="0.5396"
   style="stop-color:#BFBFBF"
   id="stop4280" />
		<stop
   offset="0.8357"
   style="stop-color:#7C7C7C"
   id="stop4282" />
		<stop
   offset="0.8996"
   style="stop-color:#A8A8A8"
   id="stop4284" />
		<stop
   offset="0.9093"
   style="stop-color:#9A9A9A"
   id="stop4286" />
		<stop
   offset="0.9327"
   style="stop-color:#7D7D7D"
   id="stop4288" />
		<stop
   offset="0.9558"
   style="stop-color:#686868"
   id="stop4290" />
		<stop
   offset="0.9785"
   style="stop-color:#5B5B5B"
   id="stop4292" />
		<stop
   offset="1"
   style="stop-color:#575757"
   id="stop4294" />
	</linearGradient><linearGradient
       id="SVGID_26_"
       gradientUnits="userSpaceOnUse"
       x1="21.2129"
       y1="71.326698"
       x2="117.1948"
       y2="51.952599">
		<stop
   offset="0"
   style="stop-color:#EDEDEE"
   id="stop4299" />
		<stop
   offset="0.4176"
   style="stop-color:#FFFFFF"
   id="stop4301" />
		<stop
   offset="0.6264"
   style="stop-color:#F8F9F9"
   id="stop4303" />
		<stop
   offset="1"
   style="stop-color:#BFC0C2"
   id="stop4305" />
	</linearGradient><linearGradient
       id="SVGID_27_"
       gradientUnits="userSpaceOnUse"
       x1="23.471201"
       y1="30.732401"
       x2="27.9561"
       y2="30.732401">
		<stop
   offset="0"
   style="stop-color:#E2E3E4"
   id="stop4316" />
		<stop
   offset="0.5055"
   style="stop-color:#FFFFFF"
   id="stop4318" />
	</linearGradient><linearGradient
       id="SVGID_34_"
       gradientUnits="userSpaceOnUse"
       x1="22.5742"
       y1="49.7188"
       x2="111.5455"
       y2="29.204">
		<stop
   offset="0"
   style="stop-color:#FFFFFF"
   id="stop4743" />
		<stop
   offset="0.6538"
   style="stop-color:#FFFFFF"
   id="stop4745" />
		<stop
   offset="1"
   style="stop-color:#CBCCCE"
   id="stop4747" />
	</linearGradient><linearGradient
       id="SVGID_35_"
       gradientUnits="userSpaceOnUse"
       x1="-158.8101"
       y1="107.0898"
       x2="-126.4229"
       y2="107.0898"
       gradientTransform="matrix(1,0,0,-1,192.3999,143.0996)">
		<stop
   offset="0"
   style="stop-color:#696969"
   id="stop4770" />
		<stop
   offset="0.3702"
   style="stop-color:#2E2E2E"
   id="stop4772" />
		<stop
   offset="0.4554"
   style="stop-color:#424242"
   id="stop4774" />
		<stop
   offset="0.6014"
   style="stop-color:#303030"
   id="stop4776" />
		<stop
   offset="0.6947"
   style="stop-color:#4A4A4A"
   id="stop4778" />
		<stop
   offset="1"
   style="stop-color:#666666"
   id="stop4780" />
	</linearGradient><linearGradient
       id="SVGID_36_"
       gradientUnits="userSpaceOnUse"
       x1="-158.4185"
       y1="107.8965"
       x2="-126.5454"
       y2="107.8965"
       gradientTransform="matrix(1,0,0,-1,192.3999,143.0996)">
		<stop
   offset="0"
   style="stop-color:#525252"
   id="stop4785" />
		<stop
   offset="0.1856"
   style="stop-color:#333333"
   id="stop4787" />
		<stop
   offset="0.354"
   style="stop-color:#AEAEAE"
   id="stop4789" />
		<stop
   offset="0.4199"
   style="stop-color:#ADADAD"
   id="stop4791" />
		<stop
   offset="0.4276"
   style="stop-color:#9D9D9D"
   id="stop4793" />
		<stop
   offset="0.4433"
   style="stop-color:#818181"
   id="stop4795" />
		<stop
   offset="0.4611"
   style="stop-color:#6A6A6A"
   id="stop4797" />
		<stop
   offset="0.4814"
   style="stop-color:#585858"
   id="stop4799" />
		<stop
   offset="0.506"
   style="stop-color:#4C4C4C"
   id="stop4801" />
		<stop
   offset="0.539"
   style="stop-color:#444444"
   id="stop4803" />
		<stop
   offset="0.6166"
   style="stop-color:#424242"
   id="stop4805" />
		<stop
   offset="0.6684"
   style="stop-color:#454545"
   id="stop4807" />
		<stop
   offset="1"
   style="stop-color:#BDBDBD"
   id="stop4809" />
	</linearGradient><linearGradient
       id="SVGID_37_"
       gradientUnits="userSpaceOnUse"
       x1="-153.1255"
       y1="97.627899"
       x2="-154.15421"
       y2="104.4332"
       gradientTransform="matrix(1,0,0,-1,192.3999,143.0996)">
		<stop
   offset="0"
   style="stop-color:#969696"
   id="stop4814" />
		<stop
   offset="1"
   style="stop-color:#000000"
   id="stop4816" />
	</linearGradient><linearGradient
       id="SVGID_38_"
       gradientUnits="userSpaceOnUse"
       x1="38.737301"
       y1="46.373001"
       x2="39.487301"
       y2="38.790001">
		<stop
   offset="0"
   style="stop-color:#333333"
   id="stop4825" />
		<stop
   offset="0.431"
   style="stop-color:#000000"
   id="stop4827" />
		<stop
   offset="1"
   style="stop-color:#2E2E2E"
   id="stop4829" />
	</linearGradient><radialGradient
       id="SVGID_39_"
       cx="-138.2334"
       cy="106.5996"
       r="72.751701"
       gradientTransform="matrix(1,0,0,-1,192.3999,143.0996)"
       gradientUnits="userSpaceOnUse">
		<stop
   offset="0"
   style="stop-color:#000000;stop-opacity:0;"
   id="stop4840" />
		<stop
   offset="0.80220002"
   style="stop-color:#000000;stop-opacity:0.08;"
   id="stop4842" />
		<stop
   offset="1"
   style="stop-color:#000000;stop-opacity:0.3882353;"
   id="stop4844" />
	</radialGradient></defs><g
     title="свободната енциклопедия"
     id="The_Free_Encyclopedia"
     style="font-style:italic;font-variant:normal;font-weight:normal;font-size:12.5352px;line-height:125%;font-family:'Linux Libertine O';-inkscape-font-specification:'AlArabiya Italic';text-align:start;letter-spacing:-0.6;writing-mode:lr-tb;text-anchor:start;fill:#000000;fill-opacity:1;stroke:none"
     transform="matrix(0.96424836,0,0,1.0370772,-8.3298093,-137.861)"><path
       id="path3471"
       d="m 10.218102,141.86986 c 1.291127,0 1.842679,-0.80226 2.080848,-1.15324 -0.0376,-0.12535 -0.112817,-0.18803 -0.225634,-0.18803 -0.551549,0.66437 -1.1031,0.78972 -1.466622,0.78972 -0.426197,0 -0.9401418,-0.22564 -0.9401418,-1.71733 0,-1.86774 0.8774668,-2.97085 1.8426788,-2.97085 0.175493,0 0.526479,0.0877 0.526479,0.50141 0,0.0752 -0.02507,0.18803 -0.06268,0.23817 -0.03761,0.0501 -0.06268,0.18803 -0.06268,0.26324 0,0.20057 0.112818,0.40113 0.451268,0.40113 0.137888,0 0.539015,-0.13789 0.539015,-0.56409 0,-0.48887 -0.23817,-1.22845 -1.429016,-1.22845 -1.44155,0 -2.8329616,1.55437 -2.8329616,3.63522 0,0.77718 0.488875,1.9931 1.5794386,1.9931" /><path
       id="path3473"
       d="m 16.044562,140.06479 c 0,0.82732 -0.513946,1.57944 -1.303664,1.57944 -0.376057,0 -0.965213,-0.16296 -0.965213,-1.11564 0,-0.41366 0,-0.95268 0.188029,-1.37888 0.438732,-0.17549 0.802255,-0.27577 1.140705,-0.27577 0.57662,0 0.940143,0.65183 0.940143,1.19085 m 0.764648,-3.00846 c 0,0.77718 -0.752115,1.19085 -2.720144,1.66719 0.589155,-1.66719 1.266059,-2.24381 2.130989,-2.24381 0.501408,0 0.589155,0.40113 0.589155,0.57662 m -0.488873,-0.85239 c -0.952677,0 -1.767468,0.37605 -2.469441,1.12817 -0.689436,0.75211 -1.040424,1.61704 -1.040424,2.58225 0,1.3162 0.639298,1.98057 1.942961,1.98057 1.341268,0 2.344088,-0.80226 2.344088,-1.7424 0,-0.52648 -0.300847,-1.46662 -1.566904,-1.5293 1.454085,-0.5014 2.156059,-0.87746 2.156059,-1.51676 0,-0.36352 -0.225635,-0.90253 -1.366339,-0.90253" /><path
       id="path3475"
       d="m 18.736234,139.61352 c 0,-1.12817 0.376058,-2.95832 1.805073,-2.95832 0.977747,0 0.977748,0.90254 0.977748,1.7048 0,0.81478 -0.363523,3.07113 -1.767468,3.07113 -0.388591,0 -1.015353,-0.2131 -1.015353,-1.81761 m -1.052959,0.10028 c 0,0.66437 0.162959,2.15606 1.754932,2.15606 1.604507,0 3.096201,-1.61705 3.096201,-3.59761 0,-0.90254 -0.225635,-2.03071 -1.767467,-2.03071 -2.093381,0 -3.083666,1.96803 -3.083666,3.47226" /><path
       id="path3477"
       d="m 27.666338,138.07168 c 0,-1.00281 -0.45127,-1.86774 -1.717326,-1.86774 -1.103099,0 -1.717327,0.73957 -2.080848,1.26605 0.125352,-0.47633 0.338451,-0.99028 0.57662,-1.3538 0.526479,-0.78972 0.890003,-1.11564 1.968031,-1.21592 1.027888,-0.10028 1.805073,-0.57662 2.268876,-1.90535 h -0.250704 c -0.26324,0.65183 -0.802256,0.9276 -1.780003,1.00282 -2.431832,0.20056 -3.898456,4.08648 -3.898456,5.91662 0,1.41648 0.802256,1.98057 1.717327,1.98057 1.667183,0 3.196483,-1.83015 3.196483,-3.82325 m -2.883103,3.42212 c -0.727042,0 -1.090565,-0.6393 -1.090565,-1.60451 0,-1.44155 0.764651,-3.27169 2.043243,-3.27169 0.651831,0 0.952677,0.62676 0.952677,1.54183 0,1.50423 -0.73958,3.33437 -1.905355,3.33437" /><path
       id="path3479"
       d="m 28.822836,139.61352 c 0,-1.12817 0.376058,-2.95832 1.805073,-2.95832 0.977747,0 0.977748,0.90254 0.977748,1.7048 0,0.81478 -0.363523,3.07113 -1.767467,3.07113 -0.388592,0 -1.015354,-0.2131 -1.015354,-1.81761 m -1.052959,0.10028 c 0,0.66437 0.162959,2.15606 1.754932,2.15606 1.604508,0 3.096201,-1.61705 3.096201,-3.59761 0,-0.90254 -0.225635,-2.03071 -1.767467,-2.03071 -2.093381,0 -3.083666,1.96803 -3.083666,3.47226" /><path
       id="path3481"
       d="m 36.72505,137.41985 c 0,0.6769 -0.388593,3.9486 -1.930425,3.9486 -0.589155,0 -0.915071,-0.68944 -0.915071,-1.54183 0.01253,-2.00564 1.040424,-3.14635 1.880284,-3.14635 0.350986,0 0.965212,0.15043 0.965212,0.73958 m -0.676902,-1.21591 c -0.263239,0 -0.764649,0.12535 -1.341269,0.43873 -0.915071,0.50141 -1.855214,1.75493 -1.855214,3.32183 0,0.99029 0.451269,1.93043 1.554368,1.93043 0.927606,0 1.403946,-0.40113 1.880284,-0.83986 0.777184,-0.70197 1.403946,-2.15606 1.403946,-3.71043 -0.01253,-0.94014 -0.23817,-1.83014 -0.752114,-2.60733 -0.927606,-1.46662 -1.86775,-1.34127 -2.682539,-1.80507 h -0.01253 c -0.02507,0 -0.05014,0.0752 -0.05014,0.18803 0,0.40113 0.162959,0.8524 0.752114,1.05296 1.052958,0.36352 1.955496,0.55155 1.955496,1.94296 0,0.10028 0,0.20056 -0.02507,0.31338 -0.225634,-0.17549 -0.52648,-0.22563 -0.827325,-0.22563" /><path
       id="path3483"
       d="m 39.54756,139.08704 h 2.231271 l -0.325916,1.45408 c -0.06268,0.35099 -0.112817,0.6393 -0.112817,0.78972 0,0.23817 0.08775,0.56409 0.52648,0.56409 0.57662,0 1.065495,-0.4638 1.516762,-1.25352 l -0.238169,-0.20057 c -0.338451,0.48888 -0.539015,0.76465 -0.714508,0.76465 -0.02507,0 -0.162958,-0.0376 -0.162958,-0.17549 0,-0.12535 0.05014,-0.45127 0.150423,-0.8524 l 0.915072,-3.92352 c -0.26324,0.0376 -0.802255,0.10028 -0.940143,0.10028 l -0.501409,2.2438 h -2.23127 l 0.188028,-0.86493 c 0.150423,-0.63929 0.376057,-1.49169 0.376057,-1.49169 0,-0.0376 -0.02507,-0.0376 -0.05014,-0.0376 -0.388592,0.13788 -0.915073,0.2507 -1.830143,0.38859 l -0.03761,0.30084 0.526479,0.0501 c 0.112817,0.0125 0.188029,0.0752 0.188029,0.28831 0,0.11282 -0.02507,0.26324 -0.07521,0.48888 l -0.940142,4.02381 0.06268,0.15042 0.915072,-0.30085 0.564085,-2.50704" /><path
       id="path3485"
       d="m 47.906136,136.31675 c -0.33845,-0.0376 -0.501409,-0.0752 -1.002818,-0.0752 -1.341268,0 -3.158878,1.96803 -3.158878,3.93606 0,0.70198 0.16296,1.69226 1.215918,1.69226 0.664366,0 1.403946,-0.81479 2.156059,-1.93043 l 0.02507,0.0251 -0.200563,0.65184 c -0.08775,0.30084 -0.125352,0.53901 -0.125352,0.68943 0,0.23817 0.08775,0.56409 0.513944,0.56409 0.676902,0 1.278594,-0.68944 1.604509,-1.21592 l -0.28831,-0.20056 c -0.338451,0.4638 -0.576621,0.72704 -0.701973,0.72704 -0.03761,0 -0.150423,-0.0251 -0.150423,-0.17549 0,-0.11282 0.07521,-0.52648 0.125353,-0.76465 l 0.86493,-3.89846 c -0.300845,0 -0.626761,0.0376 -0.877466,-0.0251 m -0.626761,2.68254 c -0.614226,1.12817 -1.579439,2.18113 -1.980566,2.18113 -0.426198,0 -0.55155,-0.50141 -0.55155,-1.20338 0,-1.32873 1.040425,-3.34691 2.193665,-3.34691 0.263239,0 0.539015,0.0877 0.777184,0.23817 0,0 -0.125353,1.32874 -0.438733,2.13099" /><path
       id="path3487"
       d="m 51.196171,137.85859 -0.01253,-0.0125 0.02507,-0.11282 0.376057,-1.49169 c 0,-0.0376 -0.02507,-0.0376 -0.05014,-0.0376 -0.388591,0.13788 -0.915072,0.2507 -1.830143,0.38859 l -0.03761,0.30084 0.52648,0.0501 c 0.112817,0.0125 0.188028,0.0752 0.188028,0.28831 0,0.11282 -0.02507,0.26324 -0.07521,0.48888 l -0.940142,4.02381 0.06268,0.15042 0.915072,-0.31338 0.664367,-2.8831 c 0.977746,-1.41648 1.554368,-1.84268 1.955495,-1.84268 0.250705,0 0.451269,0.18803 0.451269,0.66436 0,0.15043 -0.01254,0.3886 -0.100282,0.77719 l -0.827325,3.44719 0.06268,0.15042 0.915071,-0.30085 0.676903,-2.84549 c 1.065493,-1.49169 1.529298,-1.89282 1.930425,-1.89282 0.238169,0 0.488874,0.2131 0.488874,0.66436 0,0.13789 -0.02507,0.43874 -0.112817,0.82733 l -0.476339,2.03071 c -0.08775,0.38859 -0.150423,0.68943 -0.150423,0.9276 0,0.23817 0.100283,0.56409 0.539015,0.56409 0.476339,0 0.952678,-0.26324 1.60451,-1.19085 l -0.288311,-0.22563 c -0.350986,0.47634 -0.601691,0.72704 -0.727043,0.72704 -0.02507,0 -0.150423,-0.0251 -0.150423,-0.17549 0,-0.11282 0.03761,-0.33845 0.125353,-0.73958 l 0.476338,-2.01817 c 0.06268,-0.28831 0.125353,-0.61423 0.125353,-0.8524 0,-0.83986 -0.50141,-1.15324 -0.890002,-1.15324 -0.89,0 -1.579439,0.76465 -2.306482,1.67972 0.03761,-0.20056 0.05014,-0.36352 0.05014,-0.52648 0,-0.97774 -0.501409,-1.15324 -0.852395,-1.15324 -0.902536,0 -1.591975,0.66437 -2.331553,1.61705" /><path
       id="path3489"
       d="m 62.375173,136.31675 c -0.338451,-0.0376 -0.50141,-0.0752 -1.002819,-0.0752 -1.341268,0 -3.158877,1.96803 -3.158877,3.93606 0,0.70198 0.162959,1.69226 1.215917,1.69226 0.664366,0 1.403946,-0.81479 2.156059,-1.93043 l 0.02507,0.0251 -0.200564,0.65184 c -0.08775,0.30084 -0.125352,0.53901 -0.125352,0.68943 0,0.23817 0.08775,0.56409 0.513944,0.56409 0.676902,0 1.278594,-0.68944 1.604509,-1.21592 l -0.28831,-0.20056 c -0.338451,0.4638 -0.576621,0.72704 -0.701973,0.72704 -0.03761,0 -0.150423,-0.0251 -0.150423,-0.17549 0,-0.11282 0.07521,-0.52648 0.125353,-0.76465 l 0.864931,-3.89846 c -0.300846,0 -0.626762,0.0376 -0.877466,-0.0251 m -0.626762,2.68254 c -0.614226,1.12817 -1.579439,2.18113 -1.980566,2.18113 -0.426197,0 -0.55155,-0.50141 -0.55155,-1.20338 0,-1.32873 1.040425,-3.34691 2.193665,-3.34691 0.263239,0 0.539015,0.0877 0.777184,0.23817 0,0 -0.125353,1.32874 -0.438733,2.13099" /><path
       id="path3491"
       d="m 69.841128,137.10647 c 0,1.19085 -1.466623,1.72986 -2.431834,1.80508 0.438732,-1.89282 1.178312,-2.28142 1.780002,-2.28142 0.451268,0 0.651832,0.11282 0.651832,0.47634 M 67.359153,139.25 c 3.271691,-0.6393 3.359441,-1.65465 3.359441,-2.13099 0,-0.43874 -0.225635,-0.87747 -1.240988,-0.87747 -2.143522,0 -3.171413,2.13099 -3.171413,3.72296 0,1.0655 0.350988,1.90536 1.62958,1.90536 1.015353,0 1.717327,-0.51395 2.419299,-1.47916 -0.06268,-0.13789 -0.125352,-0.20056 -0.275775,-0.20056 -0.676901,0.72704 -1.090565,1.07803 -1.692256,1.07803 -0.564084,0 -1.040424,-0.45127 -1.040424,-1.59198 0,-0.0627 0,-0.32591 0.01254,-0.42619" /><path
       id="path3493"
       d="m 72.427033,139.08704 h 2.231271 l -0.325916,1.45408 c -0.06268,0.35099 -0.112817,0.6393 -0.112817,0.78972 0,0.23817 0.08775,0.56409 0.52648,0.56409 0.576619,0 1.065494,-0.4638 1.516762,-1.25352 l -0.238169,-0.20057 c -0.338451,0.48888 -0.539015,0.76465 -0.714508,0.76465 -0.02507,0 -0.162958,-0.0376 -0.162958,-0.17549 0,-0.12535 0.05014,-0.45127 0.150423,-0.8524 l 0.915071,-3.92352 c -0.263239,0.0376 -0.802255,0.10028 -0.940142,0.10028 l -0.501409,2.2438 H 72.53985 l 0.188029,-0.86493 c 0.150422,-0.63929 0.376057,-1.49169 0.376057,-1.49169 0,-0.0376 -0.02507,-0.0376 -0.05014,-0.0376 -0.388592,0.13788 -0.915073,0.2507 -1.830144,0.38859 l -0.0376,0.30084 0.526479,0.0501 c 0.112817,0.0125 0.188029,0.0752 0.188029,0.28831 0,0.11282 -0.02507,0.26324 -0.07521,0.48888 l -0.940142,4.02381 0.06268,0.15042 0.915072,-0.30085 0.564085,-2.50704" /><path
       id="path3495"
       d="m 76.774338,137.43239 0.275775,0.2131 c 0.388592,-0.45127 0.626761,-0.68944 0.764649,-0.68944 0.08775,0 0.162958,0.0376 0.162958,0.17549 0,0.12535 -0.02507,0.33845 -0.137888,0.75212 l -0.564085,2.14352 c -0.08775,0.32592 -0.125352,0.60169 -0.125352,0.83986 0,0.71451 0.363522,1.00282 0.83986,1.00282 1.115634,0 1.60451,-0.77719 2.494511,-2.08085 l 0.03761,0.0251 -0.188028,0.70197 c -0.100282,0.35099 -0.137888,0.6393 -0.137888,0.78972 0,0.23817 0.112818,0.56409 0.539015,0.56409 0.213099,0 0.413663,-0.0627 0.601691,-0.18803 -0.137887,0.33845 -0.213099,0.62676 -0.213099,0.91507 0,0.15042 0.01253,0.25071 0.01253,0.32592 0,0.37605 -0.350986,0.56408 -0.714508,0.73958 l 0.137888,0.35098 c 1.17831,-0.4638 1.303664,-0.86493 1.303664,-1.20338 0,-0.18803 -0.02507,-0.33845 -0.06268,-0.50141 -0.02507,-0.13789 -0.05014,-0.30084 -0.05014,-0.52648 0,-0.18803 0.05014,-0.40112 0.125352,-0.60169 0.125352,-0.16296 0.250705,-0.35099 0.376057,-0.56408 l -0.28831,-0.20057 c -0.325916,0.48888 -0.52648,0.76465 -0.664368,0.76465 -0.02507,0 -0.162958,-0.0376 -0.162958,-0.17549 0,-0.12535 0.05014,-0.45127 0.150423,-0.8524 l 0.915072,-3.94859 c -0.26324,0.0501 -0.802255,0.11281 -0.940142,0.11281 l -0.55155,2.3817 c -0.927606,1.57943 -1.566905,2.51958 -2.193665,2.51958 -0.225634,0 -0.388592,-0.13789 -0.388592,-0.55155 0,-0.20057 0.0376,-0.47634 0.125352,-0.81479 l 0.539015,-2.06832 c 0.112817,-0.42619 0.200563,-0.83986 0.200563,-1.07803 0,-0.30084 -0.08775,-0.4638 -0.513944,-0.4638 -0.564085,0 -1.266059,0.58916 -1.704791,1.19085" /><path
       id="path3497"
       d="m 84.416057,136.24154 c -0.564085,0 -1.266059,0.58916 -1.704791,1.19085 l 0.275775,0.2131 c 0.388591,-0.45127 0.626761,-0.68944 0.764649,-0.68944 0.08775,0 0.162958,0.0376 0.162958,0.17549 0,0.12535 -0.02507,0.33845 -0.137888,0.75212 l -0.564085,2.14352 c -0.08775,0.32592 -0.125352,0.60169 -0.125352,0.83986 0,0.71451 0.363522,1.00282 0.83986,1.00282 1.115634,0 1.60451,-0.77719 2.49451,-2.08085 l 0.03761,0.0251 -0.188028,0.70197 c -0.100282,0.35099 -0.137888,0.6393 -0.137888,0.78972 0,0.23817 0.112818,0.56409 0.539015,0.56409 0.57662,0 1.065495,-0.46381 1.516763,-1.25352 l -0.288311,-0.20057 c -0.325915,0.48888 -0.526479,0.76465 -0.664367,0.76465 -0.02507,0 -0.162958,-0.0376 -0.162958,-0.17549 0,-0.12535 0.05014,-0.45127 0.150423,-0.8524 l 0.915072,-3.94859 c -0.26324,0.0501 -0.802255,0.11281 -0.940142,0.11281 l -0.551551,2.3817 c -0.927606,1.57943 -1.566904,2.51958 -2.193665,2.51958 -0.225633,0 -0.388592,-0.13789 -0.388592,-0.55155 0,-0.20057 0.03761,-0.47634 0.125353,-0.81479 l 0.539014,-2.06832 c 0.112817,-0.42619 0.200564,-0.83986 0.200564,-1.07803 0,-0.30084 -0.08775,-0.4638 -0.513944,-0.4638" /><path
       id="path3499"
       d="m 93.424108,137.2945 c 0.238169,0 0.614226,-0.2507 0.614226,-0.66437 0,-0.22563 -0.137888,-0.38859 -0.539015,-0.38859 -0.614225,0 -1.165776,0.6769 -1.529298,1.26606 -0.426197,0.6769 -0.915072,1.16578 -1.742396,1.17831 l 0.213099,-0.95268 c 0.150422,-0.63929 0.376056,-1.49169 0.376056,-1.49169 0,-0.0376 -0.02507,-0.0376 -0.05014,-0.0376 -0.388591,0.13788 -0.915072,0.2507 -1.830143,0.38859 l -0.03761,0.30084 0.52648,0.0501 c 0.112817,0.0125 0.188028,0.0752 0.188028,0.28831 0,0.11282 -0.02507,0.26324 -0.07521,0.48888 l -0.940142,4.02381 0.06268,0.15042 0.915072,-0.30085 0.55155,-2.48197 c 0.902535,0.0877 1.052959,0.55155 1.178311,1.21592 0.100282,0.51394 0.363523,1.40394 0.927607,1.41648 l 0.864931,0.0251 0.02507,-0.0251 0.06268,-0.23817 c 0,-0.0752 -0.06268,-0.0877 -0.125353,-0.10028 l -0.08775,-0.0125 c -0.463803,-0.0627 -0.701973,-1.14071 -0.78972,-1.61704 -0.125352,-0.61423 -0.55155,-0.87747 -1.228452,-0.87747 0.57662,-0.0877 0.977748,-0.61423 1.291128,-1.15324 0.225634,-0.38859 0.476339,-0.66437 0.601691,-0.66437 0.28831,0 0.188029,0.2131 0.576621,0.2131" /><path
       id="path3501"
       d="m 98.44871,137.2945 c 0.08775,-0.47634 0.162958,-0.58916 0.601691,-0.58916 h 0.325916 c 0.07521,0 0.100282,-0.0251 0.112817,-0.0877 l 0.06268,-0.25071 -0.02507,-0.0251 c 0,0 -0.78972,0.0251 -1.291129,0.0251 h -2.268876 c -0.476339,0 -1.203382,-0.0251 -1.203382,-0.0251 l -0.03761,0.0251 -0.05014,0.22564 c -0.02507,0.11281 0.02507,0.11281 0.225634,0.11281 0.376057,0 0.52648,0.0502 0.52648,0.3886 0,0.26324 -0.08775,0.68944 -0.250705,1.40394 -0.300845,1.3162 -0.564085,2.06832 -0.789719,2.49451 -0.150423,0.31338 -0.288311,0.43874 -0.401128,0.43874 -0.100281,0 -0.137887,-0.12536 -0.125352,-0.28831 0.01253,-0.0125 0.01253,-0.0376 0.01253,-0.0502 0,-0.17549 -0.112817,-0.32591 -0.300845,-0.32591 -0.238169,0 -0.413663,0.20056 -0.463804,0.45127 -0.01253,0.0251 -0.01253,0.0627 -0.01253,0.0877 0,0.30085 0.300846,0.56409 0.651832,0.56409 0.476338,0 0.890002,-0.31338 1.165776,-0.90254 0.250705,-0.48887 0.551551,-1.5293 0.78972,-2.55718 0.275774,-1.17831 0.401127,-1.55437 0.83986,-1.55437 h 0.664367 c 0.28831,0 0.388592,0.0627 0.388592,0.2507 0,0.0877 -0.01253,0.20057 -0.05014,0.35099 l -0.626761,2.8831 c -0.112817,0.52648 -0.162958,0.76465 -0.162958,1.01535 0,0.33846 0.275775,0.51395 0.564085,0.51395 0.463803,0 0.990284,-0.27578 1.729862,-1.16578 l -0.28831,-0.23817 c -0.426198,0.50141 -0.676903,0.73958 -0.864931,0.73958 -0.08775,0 -0.125353,-0.10028 -0.125353,-0.22563 0,-0.12535 0.02507,-0.28831 0.112818,-0.73958 l 0.564085,-2.94578" /><path
       id="path3503"
       d="m 100.54319,139.61352 c 0,-1.12817 0.37606,-2.95832 1.80508,-2.95832 0.97774,0 0.97774,0.90254 0.97774,1.7048 0,0.81478 -0.36352,3.07113 -1.76746,3.07113 -0.3886,0 -1.01536,-0.2131 -1.01536,-1.81761 m -1.052957,0.10028 c 0,0.66437 0.162959,2.15606 1.754927,2.15606 1.60451,0 3.09621,-1.61705 3.09621,-3.59761 0,-0.90254 -0.22564,-2.03071 -1.76747,-2.03071 -2.09338,0 -3.083667,1.96803 -3.083667,3.47226" /><path
       id="path3505"
       d="m 106.4147,137.85859 -0.0125,-0.0125 0.0251,-0.11282 0.37606,-1.49169 c 0,-0.0376 -0.0251,-0.0376 -0.0501,-0.0376 -0.38859,0.13788 -0.91507,0.2507 -1.83014,0.38859 l -0.0376,0.30084 0.52648,0.0501 c 0.11282,0.0125 0.18803,0.0752 0.18803,0.28831 0,0.11282 -0.0251,0.26324 -0.0752,0.48888 l -0.92761,4.02381 0.0627,0.15042 0.91507,-0.30085 0.71451,-3.04606 c 0.95267,-1.26605 1.54183,-1.69225 1.9931,-1.69225 0.26324,0 0.45127,0.20056 0.45127,0.58915 0,0.1755 -0.0376,0.4262 -0.13789,0.8524 l -0.48887,2.04324 c -0.12536,0.51395 -0.16296,0.76465 -0.16296,1.01535 0,0.33846 0.27577,0.51395 0.56408,0.51395 0.46381,0 1.00282,-0.27578 1.72986,-1.16578 l -0.28831,-0.23817 c -0.42619,0.50141 -0.6769,0.73958 -0.86493,0.73958 -0.0877,0 -0.13788,-0.10028 -0.13788,-0.22563 0,-0.12535 0.0251,-0.28831 0.12535,-0.73958 l 0.47634,-2.04324 c 0.10028,-0.43874 0.17549,-0.72705 0.17549,-0.95268 0,-0.75211 -0.35099,-1.00282 -0.83986,-1.00282 -0.65183,0 -1.3162,0.26324 -2.46944,1.61705" /><path
       id="path3507"
       d="m 114.1048,137.10647 c 0,1.19085 -1.46663,1.72986 -2.43184,1.80508 0.43873,-1.89282 1.17831,-2.28142 1.78,-2.28142 0.45127,0 0.65184,0.11282 0.65184,0.47634 m -2.48198,2.14353 c 3.27169,-0.6393 3.35944,-1.65465 3.35944,-2.13099 0,-0.43874 -0.22563,-0.87747 -1.24099,-0.87747 -2.14352,0 -3.17141,2.13099 -3.17141,3.72296 0,1.0655 0.35099,1.90536 1.62958,1.90536 1.01535,0 1.71733,-0.51395 2.4193,-1.47916 -0.0627,-0.13789 -0.12535,-0.20056 -0.27577,-0.20056 -0.67691,0.72704 -1.09057,1.07803 -1.69226,1.07803 -0.56409,0 -1.04042,-0.45127 -1.04042,-1.59198 0,-0.0627 0,-0.32591 0.0125,-0.42619" /><path
       id="path3509"
       d="m 118.99719,137.41985 c 0,0.6769 -0.3886,3.9486 -1.93043,3.9486 -0.58915,0 -0.91507,-0.68944 -0.91507,-1.54183 0.0125,-2.00564 1.04043,-3.14635 1.88028,-3.14635 0.35099,0 0.96522,0.15043 0.96522,0.73958 m -0.67691,-1.21591 c -0.26323,0 -0.76464,0.12535 -1.34126,0.43873 -0.91508,0.50141 -1.85522,1.75493 -1.85522,3.32183 0,0.99029 0.45127,1.93043 1.55437,1.93043 0.92761,0 1.40395,-0.40113 1.88028,-0.83986 0.77719,-0.70197 1.40395,-2.15606 1.40395,-3.71043 -0.0125,-0.94014 -0.23817,-1.83014 -0.75211,-2.60733 -0.92761,-1.46662 -1.86775,-1.34127 -2.68254,-1.80507 h -0.0125 c -0.0251,0 -0.0501,0.0752 -0.0501,0.18803 0,0.40113 0.16296,0.8524 0.75211,1.05296 1.05296,0.36352 1.9555,0.55155 1.9555,1.94296 0,0.10028 0,0.20056 -0.0251,0.31338 -0.22563,-0.17549 -0.52648,-0.22563 -0.82733,-0.22563" /><path
       id="path3511"
       d="m 122.03279,136.24154 c -0.56408,0 -1.26605,0.58916 -1.70479,1.19085 l 0.27578,0.2131 c 0.38859,-0.45127 0.62676,-0.68944 0.76465,-0.68944 0.0877,0 0.16295,0.0376 0.16295,0.17549 0,0.12535 -0.0251,0.33845 -0.13788,0.75212 l -0.56409,2.14352 c -0.0877,0.32592 -0.12535,0.60169 -0.12535,0.83986 0,0.71451 0.36352,1.00282 0.83986,1.00282 1.11563,0 1.60451,-0.77719 2.49451,-2.08085 l 0.0376,0.0251 -0.18803,0.70197 c -0.10028,0.35099 -0.13789,0.6393 -0.13789,0.78972 0,0.23817 0.11282,0.56409 0.53902,0.56409 0.57662,0 1.06549,-0.46381 1.51676,-1.25352 l -0.28831,-0.20057 c -0.32592,0.48888 -0.52648,0.76465 -0.66437,0.76465 -0.0251,0 -0.16296,-0.0376 -0.16296,-0.17549 0,-0.12535 0.0501,-0.45127 0.15043,-0.8524 l 0.91507,-3.94859 c -0.26324,0.0501 -0.80226,0.11281 -0.94015,0.11281 l -0.55155,2.3817 c -0.9276,1.57943 -1.5669,2.51958 -2.19366,2.51958 -0.22563,0 -0.38859,-0.13789 -0.38859,-0.55155 0,-0.20057 0.0376,-0.47634 0.12535,-0.81479 l 0.53901,-2.06832 c 0.11282,-0.42619 0.20057,-0.83986 0.20057,-1.07803 0,-0.30084 -0.0877,-0.4638 -0.51395,-0.4638" /><path
       id="path3513"
       d="m 129.18563,138.8614 h -0.92761 c -0.58915,0 -0.80225,-0.35098 -0.80225,-0.75211 0,-0.0877 0.0125,-0.17549 0.0376,-0.26324 0.10028,-0.45127 0.60169,-1.15324 1.67972,-1.15324 0.16295,0 0.33845,0.0251 0.50141,0.0627 l -0.48888,2.10591 m -0.0627,0.43874 -0.27578,1.24098 c -0.0752,0.35099 -0.12535,0.6393 -0.12535,0.78972 0,0.23817 0.10028,0.56409 0.53901,0.56409 0.57662,0 1.0655,-0.4638 1.51677,-1.25352 l -0.23817,-0.20057 c -0.33845,0.48888 -0.53902,0.76465 -0.71451,0.76465 -0.0251,0 -0.16296,-0.0376 -0.16296,-0.17549 0,-0.12535 0.0501,-0.45127 0.15042,-0.8524 l 0.72705,-3.0962 c 0.0627,-0.26324 0.0877,-0.37606 0.38859,-0.37606 h 0.31338 c 0.0376,0 0.0501,-0.0125 0.0627,-0.0376 l 0.0627,-0.30085 -0.0125,-0.0251 -1.11564,0.0251 -1.47916,-0.0125 c -0.94014,0 -1.90535,0.60169 -2.13099,1.5293 -0.0125,0.10028 -0.0251,0.20056 -0.0251,0.27577 0,0.75211 0.81479,1.02789 1.3162,1.02789 -0.36352,0.0752 -0.68943,0.33845 -1.00281,0.8524 -0.30085,0.47633 -0.89001,1.3538 -1.26606,1.3538 h -0.0877 c -0.0627,0 -0.13789,0.0125 -0.16296,0.10028 l -0.0501,0.23817 0.0376,0.0251 0.78972,-0.0125 c 0.40112,0 0.90253,-0.53902 1.19084,-1.05296 0.43874,-0.75212 0.87747,-1.39141 1.37888,-1.39141 h 0.37606" /></g></svg>
