<?xml version="1.0" encoding="UTF-8" standalone="no"?>
<svg
   xmlns:dc="http://purl.org/dc/elements/1.1/"
   xmlns:cc="http://creativecommons.org/ns#"
   xmlns:rdf="http://www.w3.org/1999/02/22-rdf-syntax-ns#"
   xmlns:svg="http://www.w3.org/2000/svg"
   xmlns="http://www.w3.org/2000/svg"
   xml:space="preserve"
   enable-background="new 0 0 135 155"
   viewBox="0 0 128 10.019468"
   height="10.019468"
   width="128"
   y="0px"
   x="0px"
   id="svg3857"
   version="1.1"><metadata
     id="metadata698"><rdf:RDF><cc:Work
         rdf:about=""><dc:format>image/svg+xml</dc:format><dc:type
           rdf:resource="http://purl.org/dc/dcmitype/StillImage" /></cc:Work></rdf:RDF></metadata><defs
     id="defs3" /><path
     id="tagline"
     d="m 5.8393372,1.9910479 v 3.5753229 c 0,0.2033859 -1e-7,0.3211368 -0.074932,0.3211368 -0.085636,0 -0.2033869,-0.1926828 -0.5138189,-0.5887508 L 1.5789225,0.56734143 0.13380693,0.54593231 c -0.06422729,0.0642266 -0.06422729,0.28902312 0,0.35325047 0.4602956,0.0321129 0.78143291,0.40677332 0.8456602,0.68509182 V 6.048076 c 0,0.9527043 -0.18197826,1.0169332 -0.93129667,1.0918651 -0.06422729,0.064227 -0.06422729,0.2890231 0,0.3532504 0.52452288,-0.010705 0.72791055,-0.021409 1.19891064,-0.021409 0.4602956,0 0.6529788,0.010705 1.1882061,0.021409 0.064227,-0.064227 0.064227,-0.2890238 0,-0.3532504 C 1.6859688,7.0650092 1.5039906,7.0221894 1.5039906,6.048076 V 2.7724807 c 0,-0.363955 0,-0.5245234 0.085636,-0.5245234 0.064227,0 0.1819778,0.1177502 0.3639551,0.3532505 L 5.6894734,7.3219186 C 5.8072235,7.4824862 5.946383,7.578828 6.1176558,7.578828 c 0.1498637,0 0.2462048,-0.1284554 0.2462048,-0.3318413 V 1.9910479 c 0,-0.9527051 0.1819783,-1.01693394 0.9312968,-1.09186512 0.064227,-0.0642273 0.064227,-0.28902385 0,-0.35325047 -0.524523,0.0107046 -0.7279106,0.0214091 -1.1989107,0.0214091 -0.4602956,0 -0.6529787,-0.0107046 -1.1882062,-0.0214091 -0.064227,0.0642266 -0.064227,0.28902312 0,0.35325047 C 5.657359,0.97411396 5.8393372,1.0169337 5.8393372,1.9910479 M 9.3016305,9.184512 C 9.4621989,8.8954889 9.6013582,8.5850559 9.7405174,8.2639198 10.596881,6.2086459 11.067884,5.0953687 11.635224,3.8964595 c 0.149864,-0.3104322 0.471001,-0.6529789 0.86707,-0.6850918 0.06423,-0.064227 0.06423,-0.2890239 0,-0.3532505 -0.267614,0.010705 -0.460296,0.021409 -0.760024,0.021409 -0.374659,0 -0.578047,-0.010705 -0.974115,-0.021409 -0.06423,0.064227 -0.06423,0.2890231 0,0.3532505 0.331841,0.032113 0.674387,0.096341 0.513819,0.4817052 L 10.211518,6.144417 C 10.136586,6.3263938 10.05095,6.3478029 9.9546086,6.1337125 L 9.0126074,3.9071641 C 8.8199253,3.4575725 8.7021759,3.2648897 9.3551533,3.2113677 c 0.064227,-0.064227 0.064227,-0.2890239 0,-0.3532505 -0.3960687,0.010705 -0.8242519,0.021409 -1.2096153,0.021409 -0.363955,0 -0.6529781,-0.010705 -0.8670693,-0.021409 -0.064227,0.064227 -0.064227,0.2890231 0,0.3532505 0.4709999,0.042817 0.5566371,0.1284547 0.8456602,0.802842 L 9.3337442,6.8295088 C 9.4300852,7.0543039 9.5906536,7.5360098 9.483608,7.8357375 9.3658578,8.1996917 9.2266986,8.4887156 9.0661302,8.8205569 8.94838,9.0346474 8.7985162,9.1309892 8.5309022,9.1309892 c -0.1498638,0 -0.1926821,-0.032114 -0.3104322,-0.032114 -0.3104323,0 -0.4710007,0.3211368 -0.4710007,0.4602961 0,0.224795 0.2140912,0.3960687 0.5031143,0.3960687 0.2247958,0 0.6529782,-0.085637 1.0383423,-0.7707283 h 0.010705 M 15.475522,4.97762 v 1.4237065 c 0,0.1391585 -0.06423,0.2140912 -0.149863,0.2783185 -0.278319,0.224795 -0.642274,0.4602961 -0.942002,0.4602961 -0.535227,0 -0.770728,-0.4281832 -0.770728,-0.7600238 0,-0.4817051 0.224797,-0.9634111 1.016933,-1.1775015 L 15.475522,4.97762 m 0,1.9803436 c 0.06423,0.224795 0.246206,0.6208644 0.824252,0.6208644 0.524522,0 0.909887,-0.4281831 0.909887,-0.4817052 0,-0.074932 -0.09634,-0.1819775 -0.139159,-0.1819775 -0.06423,0 -0.107046,0.171273 -0.331842,0.171273 -0.417477,0 -0.428182,-0.4174786 -0.428182,-0.9098876 V 4.5815513 c 0,-1.520046 -0.834956,-1.8090706 -1.616388,-1.8090706 -0.877774,0 -1.766253,0.6101599 -1.766253,1.1882062 0,0.2569086 0.128455,0.3746595 0.37466,0.3746595 0.310432,0 0.471,-0.2140919 0.471,-0.3532504 0,-0.074932 -0.0107,-0.1498646 -0.03211,-0.1926821 -0.0107,-0.032114 -0.02141,-0.096342 -0.02141,-0.2140912 0,-0.3318413 0.481705,-0.4495915 0.888478,-0.4495915 0.363954,0 0.867069,0.1819783 0.867069,1.3915928 0,0.074931 -0.03211,0.1177501 -0.06423,0.1284547 l -0.920592,0.2247957 c -1.027637,0.2569087 -1.766252,0.8242519 -1.766252,1.5521612 0,0.8456587 0.599456,1.1560924 1.348774,1.1560924 0.492409,0 0.695797,-0.085637 1.166797,-0.4495915 l 0.214091,-0.1712729 h 0.02141 m 3.4924,-2.9972767 c 0.417477,-0.4067733 0.760024,-0.6315691 1.091865,-0.6315691 0.406773,0 0.706501,0.2569095 0.706501,0.974115 v 1.8625933 c 0,0.8777725 -0.08564,0.9312967 -0.663682,0.974115 -0.05352,0.064227 -0.05352,0.2890231 0,0.3532504 0.44959,-0.010705 0.663683,-0.021409 1.091865,-0.021409 0.438886,0 0.588751,0.010705 1.049046,0.021409 0.05352,-0.064227 0.05352,-0.2890238 0,-0.3532504 -0.535227,-0.042818 -0.631569,-0.096342 -0.631569,-0.974115 V 4.4638012 c 0,-0.1498639 0,-0.2997285 -0.0107,-0.4281824 0.513818,-0.5673417 0.931297,-0.706501 1.348774,-0.706501 0.406773,0 0.663683,0.2355003 0.663683,0.9527058 v 1.8840025 c 0,0.8777725 -0.107046,0.9312967 -0.663683,0.974115 -0.05352,0.064227 -0.05352,0.2890231 0,0.3532504 0.449591,-0.010705 0.663684,-0.021409 1.091866,-0.021409 0.438886,0 0.642274,0.010705 1.102569,0.021409 0.05352,-0.064227 0.05352,-0.2890238 0,-0.3532504 -0.58875,-0.042818 -0.685092,-0.096342 -0.685092,-0.974115 V 4.4745057 c 0,-0.9527051 -0.181978,-1.702025 -1.123978,-1.702025 -0.556637,0 -1.145389,0.2033867 -1.702025,0.7921374 -0.03211,0.032113 -0.09634,0.085636 -0.117751,0 -0.107045,-0.4388869 -0.513819,-0.7921374 -1.070456,-0.7921374 -0.620863,0 -1.091865,0.3746596 -1.562865,0.8670694 -0.04282,0.042817 -0.107046,0.1498631 -0.107046,0 0,-0.3211368 0.05352,-0.8135466 0.05352,-0.8135466 0,-0.053523 -0.04282,-0.085637 -0.128455,-0.085637 -0.310432,0.1177495 -0.738615,0.2140912 -1.477229,0.3104323 -0.02141,0.064227 0,0.2355003 0.02141,0.2997277 0.578046,0.064227 0.695796,0.1070455 0.695796,0.72791 v 2.0873891 c 0,0.8777725 -0.13916,0.9312967 -0.72791,0.974115 -0.06423,0.064227 -0.06423,0.2890231 0,0.3532504 0.438887,-0.010705 0.695798,-0.021409 1.156093,-0.021409 0.417477,0 0.599456,0.010705 1.049047,0.021409 0.06423,-0.064227 0.06423,-0.2890238 0,-0.3532504 -0.535228,-0.053523 -0.631569,-0.096342 -0.631569,-0.974115 V 4.4102784 c 0,-0.2247958 0.09634,-0.3532513 0.181977,-0.4495915 m 7.33818,0.4924097 c 0.203387,-1.2096145 0.952706,-1.3059563 1.209616,-1.3059563 0.406772,0 0.888478,0.2247965 0.888478,1.1239788 0,0.09634 -0.04282,0.1498638 -0.160568,0.1498638 l -1.937526,0.032114 m 2.804595,2.0231618 c -0.396069,0.4067725 -0.706502,0.5780462 -1.327365,0.5780462 -0.385365,0 -0.834957,-0.2247965 -1.166797,-0.7707283 -0.214092,-0.3532505 -0.342546,-0.845661 -0.342546,-1.4665247 l 2.847412,0.021409 c 0.128455,0 0.203387,-0.064228 0.203387,-0.1819775 0,-0.8991822 -0.321138,-1.8625934 -1.80907,-1.8625934 -0.931296,0 -2.140912,0.88848 -2.140912,2.5155716 0,0.5994546 0.149863,1.1775015 0.503114,1.5842748 0.363954,0.4281816 0.86707,0.6850918 1.637798,0.6850918 0.813545,0 1.391593,-0.3746603 1.819775,-0.9312967 -0.03211,-0.1070456 -0.09634,-0.1605684 -0.224796,-0.1712729 M 33.224965,6.144417 c 0,0.2033859 -0.02141,0.2890231 -0.171273,0.4174779 -0.396069,0.3425451 -0.738615,0.5138188 -1.006229,0.5138188 -0.578045,0 -1.177501,-0.6315705 -1.177501,-1.969639 0,-0.7707275 0.149863,-1.1989114 0.310432,-1.4237064 0.33184,-0.5031143 0.781433,-0.535228 0.995524,-0.535228 0.385363,0 0.652978,0.1391593 0.867069,0.3853642 0.149864,0.1712722 0.181978,0.2462048 0.181978,0.5780462 V 6.144417 m -0.11775,0.7921374 c 0.04282,-0.042818 0.128454,-0.064227 0.128454,0.010705 0,0.2569087 0.11775,0.631569 0.11775,0.631569 0.08564,0.032113 0.117751,0.021408 0.203387,0 0.2355,-0.192682 0.642274,-0.3532512 1.295252,-0.4281824 0.06423,-0.064227 0.06423,-0.2247965 0,-0.2890231 C 34.166967,6.8080997 34.070625,6.6047124 34.070625,6.0801897 V 1.2310241 c 0,-0.69579635 0.04282,-1.12397873 0.04282,-1.12397873 C 34.113443,0.03211345 34.070625,-2.2915646e-7 33.974284,-2.2915646e-7 33.70667,0.10704462 32.903827,0.2569092 32.475646,0.28902288 c -0.02141,0.0856357 0,0.25690943 0.06423,0.32113679 0.556636,0.0321129 0.685092,-0.0214084 0.685092,0.87777393 v 1.3701836 c 0,0.074931 -0.02141,0.096341 -0.09634,0.096341 -0.04282,0 -0.481706,-0.1819775 -0.834956,-0.1819775 -0.7065,0 -1.177502,0.2355003 -1.605684,0.6422736 -0.460295,0.4602953 -0.738615,1.0918658 -0.738615,1.8840025 0,1.3166594 0.663684,2.2800712 1.819776,2.2800712 0.417477,0 0.813547,-0.2140919 1.33807,-0.6422736 M 35.302523,2.740367 c -0.03211,0 -0.06423,0.042818 -0.06423,0.064227 -0.0107,0.4817044 -0.07493,0.8884785 -0.160568,1.4130019 0.08564,0.042817 0.224796,0.064227 0.35325,0.032114 0.214092,-0.7814321 0.545933,-1.0062286 0.86707,-1.0062286 h 1.477229 l -2.633322,3.8857551 c -0.08564,0.128454 -0.09634,0.1605684 -0.09634,0.2140912 0,0.074931 0.08564,0.1284547 0.246205,0.1284547 H 38.63164 C 38.68516,7.139941 38.792208,6.6368259 38.974186,6.0159622 38.899256,5.9838482 38.781504,5.9410302 38.653049,5.9410302 L 38.51389,6.2514624 c -0.25691,0.5673409 -0.438888,0.8563648 -1.059752,0.8563648 h -1.423706 l 2.569094,-3.7787096 c 0.181978,-0.2783185 0.2355,-0.406774 0.2355,-0.4495915 0,-0.042818 -0.05352,-0.074932 -0.128454,-0.074932 -0.05352,0 -0.396069,0.074932 -0.706501,0.074932 h -2.173026 c -0.35325,0 -0.342546,-0.096342 -0.524523,-0.1391593 m 4.657022,1.33807 v 2.0873891 c 0,0.888477 -0.128455,0.9312967 -0.792137,0.974115 -0.06423,0.064227 -0.06423,0.2890231 0,0.3532504 0.449591,-0.010705 0.792138,-0.021409 1.22032,-0.021409 0.438886,0 0.834956,0.010705 1.295251,0.021409 0.06423,-0.064227 0.06423,-0.2890238 0,-0.3532504 -0.749318,-0.053523 -0.877774,-0.085638 -0.877774,-0.974115 V 4.6778924 c 0,-0.2783186 0.128455,-0.5245242 0.25691,-0.7172055 0.11775,-0.171273 0.363955,-0.5245235 0.49241,-0.5245235 0.07493,0 0.160568,0.010705 0.224795,0.074932 0.107046,0.1070449 0.214092,0.3104323 0.438887,0.3104323 0.25691,0 0.503115,-0.2676148 0.503115,-0.535228 0,-0.2033866 -0.192683,-0.5138189 -0.642274,-0.5138189 -0.503114,0 -0.942001,0.4710007 -1.188206,0.8884785 -0.06423,0.1177494 -0.09634,0.064227 -0.09634,0.010704 0,-0.3425459 0.05352,-0.8563647 0.05352,-0.8563647 0,-0.042818 -0.05352,-0.074932 -0.13916,-0.074932 -0.299727,0.1177495 -0.72791,0.2140912 -1.466524,0.3104323 -0.02141,0.064227 -0.02141,0.2355003 0.02141,0.2997277 0.578045,0.053522 0.695796,0.1391592 0.695796,0.72791 m 2.959848,1.1989107 c 0,1.0918636 0.738616,2.3014803 2.247958,2.3014803 1.594978,0 2.269366,-1.3273669 2.269366,-2.3978213 0,-1.1132735 -0.588752,-2.408526 -2.247957,-2.408526 -1.445114,0 -2.269367,1.1453887 -2.269367,2.504867 M 45.07101,3.1257312 c 0.920591,0 1.445115,0.8242526 1.445115,2.3978214 0,1.4130004 -0.652979,1.702025 -1.156092,1.702025 -1.113274,0 -1.520048,-1.3701852 -1.520048,-2.1944348 0,-0.9312959 0.331842,-1.9054116 1.231025,-1.9054116 m 5.920996,1.3594791 c 0,0.9955225 -0.503115,1.1989107 -0.899183,1.1989107 -0.899182,0 -0.995524,-0.7600245 -0.995524,-1.4451156 0,-0.7493184 0.267615,-1.1346833 0.856365,-1.1346833 0.674387,0 1.038342,0.4924105 1.038342,1.3808882 M 48.990254,7.578828 c 0.11775,0.032113 0.289023,0.053523 0.428182,0.053523 0.331841,0 0.631569,-0.032114 0.781433,-0.032114 0.535227,0 0.984819,0.010705 1.295252,0.1819776 0.417477,0.2354995 0.545932,0.3853641 0.545932,0.6636827 0,0.7707268 -1.134684,1.1775015 -2.098094,1.1775015 -0.385364,0 -1.284547,-0.310433 -1.284547,-1.0383423 0,-0.363955 0.02141,-0.6315697 0.331842,-1.0062286 m 3.339822,-4.2497102 c 0.203387,0 0.396069,-0.1926828 0.396069,-0.4067732 0,-0.2247958 -0.203387,-0.3960687 -0.49241,-0.3960687 -0.278318,0 -0.792137,0.1819775 -1.070456,0.5459325 -0.128454,-0.085637 -0.481706,-0.2997277 -1.113274,-0.2997277 -0.952705,0 -1.83048,0.6422744 -1.83048,1.6270931 0,0.5780455 0.25691,0.9098876 0.556637,1.1989107 -0.299727,0.2569087 -0.471,0.7172055 -0.471,1.0811605 0,0.3853634 0.214091,0.6850918 0.49241,0.8242511 -0.578046,0.3425452 -0.877774,0.8349557 -0.877774,1.2952517 0,0.9312952 0.877774,1.2203203 1.702025,1.2203203 1.445114,0 3.007981,-0.6957983 3.007981,-1.8518893 0,-0.3425459 -0.160568,-0.6101606 -0.471001,-0.8670693 C 51.741325,6.9579636 50.992006,6.947259 50.595938,6.947259 c -0.192682,0 -0.460296,0.021409 -0.717206,0.053523 -0.160568,0.010705 -0.267614,0.021409 -0.321137,0.021409 -0.310432,0 -0.685091,-0.1498646 -0.685091,-0.6101599 0,-0.2140912 0.06423,-0.4388877 0.192682,-0.6208644 0.256909,0.149863 0.556637,0.2247957 0.974115,0.2247957 0.942,0 1.80907,-0.5887523 1.80907,-1.6377976 0,-0.5031143 -0.149864,-0.7921382 -0.460296,-1.1132742 0.07493,-0.1070456 0.289023,-0.2569095 0.428182,-0.2569095 0.07493,0 0.149864,0.032114 0.214092,0.1284548 0.04282,0.085636 0.181977,0.192682 0.299727,0.192682 m 2.1647,0.2569095 c 0.278319,-0.2462049 0.599455,-0.3425459 0.909888,-0.3425459 0.652977,0 1.188206,0.7921381 1.188206,1.8304797 0,1.2203183 -0.492411,2.1409119 -1.509343,2.1409119 -0.331841,0 -0.556637,-0.2355011 -0.770728,-0.5031143 v -2.67614 c 0,-0.2247958 0.04282,-0.3211376 0.181977,-0.4495915 m -0.07493,-0.3318414 c -0.07493,0.064227 -0.107045,0.042817 -0.107045,-0.053523 v -1.969639 c 0,-0.69579635 0.04282,-1.12397873 0.04282,-1.12397873 C 54.355617,0.03211345 54.312799,-2.2915646e-7 54.216458,-2.2915646e-7 53.948844,0.10704462 53.146001,0.2569092 52.717819,0.28902288 c -0.02141,0.0856357 0,0.25690943 0.06423,0.32113679 0.556636,0.0321129 0.685091,-0.0214084 0.685091,0.87777393 v 5.2238251 c 0,0.4174771 -0.0107,0.6101599 -0.04282,0.7600237 0.05352,0.085636 0.107046,0.1284547 0.2355,0.1284547 0.06423,-0.053523 0.171273,-0.1605691 0.246205,-0.2569094 0.117751,-0.1284547 0.181978,-0.1284547 0.299728,-0.021409 0.2355,0.2033859 0.556637,0.2569094 0.942001,0.2569094 1.091864,0 2.365708,-0.9955263 2.365708,-2.697549 0,-1.3059556 -0.963411,-2.1087983 -1.894707,-2.1087983 -0.460295,0 -0.86707,0.1819775 -1.198911,0.4817052 M 60.73992,4.97762 v 1.4237065 c 0,0.1391585 -0.06423,0.2140912 -0.149864,0.2783185 -0.278318,0.224795 -0.642273,0.4602961 -0.942001,0.4602961 -0.535227,0 -0.770728,-0.4281832 -0.770728,-0.7600238 0,-0.4817051 0.224796,-0.9634111 1.016933,-1.1775015 L 60.73992,4.97762 m 0,1.9803436 c 0.06423,0.224795 0.246206,0.6208644 0.824251,0.6208644 0.524523,0 0.909888,-0.4281831 0.909888,-0.4817052 0,-0.074932 -0.09634,-0.1819775 -0.139159,-0.1819775 -0.06423,0 -0.107046,0.171273 -0.331842,0.171273 -0.417477,0 -0.428182,-0.4174786 -0.428182,-0.9098876 V 4.5815513 c 0,-1.520046 -0.834956,-1.8090706 -1.616389,-1.8090706 -0.877773,0 -1.766252,0.6101599 -1.766252,1.1882062 0,0.2569086 0.128455,0.3746595 0.37466,0.3746595 0.310432,0 0.471,-0.2140919 0.471,-0.3532504 0,-0.074932 -0.0107,-0.1498646 -0.03211,-0.1926821 -0.01071,-0.032114 -0.02141,-0.096342 -0.02141,-0.2140912 0,-0.3318413 0.481705,-0.4495915 0.888478,-0.4495915 0.363954,0 0.867069,0.1819783 0.867069,1.3915928 0,0.074931 -0.03211,0.1177501 -0.06423,0.1284547 L 59.7551,4.8705744 c -1.027637,0.2569087 -1.766253,0.8242519 -1.766253,1.5521612 0,0.8456587 0.599457,1.1560924 1.348775,1.1560924 0.492409,0 0.695797,-0.085637 1.166797,-0.4495915 L 60.71851,6.9579636 h 0.02141 m 2.475467,-0.7921375 c 0,0.888477 -0.117751,0.9420013 -0.770728,0.974115 -0.06423,0.064227 -0.06423,0.2890231 0,0.3532504 0.44959,-0.010705 0.72791,-0.021409 1.19891,-0.021409 0.460296,0 0.727911,0.010705 1.188206,0.021409 0.06423,-0.064227 0.06423,-0.2890238 0,-0.3532504 -0.652977,-0.032114 -0.770728,-0.085638 -0.770728,-0.974115 v -4.934802 c 0,-0.69579635 0.04282,-1.12397873 0.04282,-1.12397873 C 64.103865,0.03211345 64.061047,-2.2915647e-7 63.964706,-2.2915647e-7 63.697092,0.10704462 62.894249,0.2569092 62.466068,0.28902288 c -0.02141,0.0856357 0,0.25690943 0.06423,0.32113679 0.556636,0.0321129 0.685092,-0.0214084 0.685092,0.87777393 v 4.6778925 m 4.601827,-4.8277564 c -0.203387,0 -0.385364,-0.074933 -0.556637,-0.2033866 -0.214091,-0.14986384 -0.449592,-0.36395503 -0.770728,-0.36395503 -0.460296,0 -0.706501,0.41747783 -0.856365,1.04904683 0.06423,0.064227 0.171273,0.074931 0.289023,0.053523 0.107045,-0.3532505 0.214091,-0.5138188 0.49241,-0.5138188 0.181977,0 0.385364,0.085636 0.578046,0.2033866 0.224796,0.1498631 0.449591,0.3425459 0.685092,0.3425459 0.492409,0 0.802842,-0.4174786 0.931296,-1.05975141 -0.06423,-0.0428182 -0.171273,-0.0749319 -0.289023,-0.0642274 C 68.170464,1.2310234 68.052714,1.3380697 67.817214,1.3380697 m -1.766252,3.1150269 c 0.203386,-1.2096145 0.952705,-1.3059563 1.209615,-1.3059563 0.406772,0 0.888478,0.2247965 0.888478,1.1239788 0,0.09634 -0.04282,0.1498638 -0.160568,0.1498638 l -1.937525,0.032114 m 2.804594,2.0231618 c -0.396068,0.4067725 -0.706501,0.5780462 -1.327365,0.5780462 -0.385364,0 -0.834957,-0.2247965 -1.166797,-0.7707283 -0.214091,-0.3532505 -0.342546,-0.845661 -0.342546,-1.4665247 l 2.847413,0.021409 c 0.128454,0 0.203386,-0.064228 0.203386,-0.1819775 0,-0.8991822 -0.321138,-1.8625934 -1.80907,-1.8625934 -0.931296,0 -2.140912,0.88848 -2.140912,2.5155716 0,0.5994546 0.149864,1.1775015 0.503114,1.5842748 0.363954,0.4281816 0.86707,0.6850918 1.637798,0.6850918 0.813546,0 1.391593,-0.3746603 1.819775,-0.9312967 -0.03211,-0.1070456 -0.09634,-0.1605684 -0.224796,-0.1712729 m 2.879397,-0.4817052 c 0.04282,0.5245227 0.07493,1.0276377 0.07493,1.4772292 0.107045,-0.021409 0.214091,-0.032114 0.267614,-0.032114 0.07493,0 0.139159,0 0.214091,0.021409 0.289023,0.074931 0.578046,0.1177501 0.974115,0.1177501 0.599454,0 1.702022,-0.2890246 1.702022,-1.3487745 0,-0.7279093 -0.535228,-1.1453886 -1.252431,-1.4237064 C 73.073023,4.5601422 72.64484,4.3995731 72.64484,3.810823 c 0,-0.4388869 0.385364,-0.6850918 0.749319,-0.6850918 0.235501,0 0.856363,0.085637 0.995522,0.995524 0.06423,0.064227 0.278319,0.053522 0.342546,-0.010705 0,-0.3853642 0.05352,-0.7814336 0.06423,-1.1346833 -0.331842,-0.053523 -0.845661,-0.2033867 -1.402296,-0.2033867 -0.792136,0 -1.509342,0.5138189 -1.509342,1.1989107 0,0.7814314 0.353251,1.1132742 1.177501,1.4558201 0.877772,0.3746589 1.091863,0.5887508 1.091863,1.0490469 0,0.5245227 -0.513817,0.7493192 -0.909885,0.7493192 -0.417478,0 -0.652979,-0.1391601 -0.760024,-0.2569095 -0.25691,-0.2462049 -0.353251,-0.7172062 -0.417478,-0.9848195 -0.06423,-0.064227 -0.267614,-0.053523 -0.331841,0.010705 m 4.250079,-4.934802 c 0,0.2783178 0.25691,0.5566371 0.513819,0.5566371 0.299728,0 0.556637,-0.2783193 0.556637,-0.5138189 0,-0.25690941 -0.224795,-0.55663709 -0.513819,-0.55663709 -0.256909,0 -0.556637,0.25690944 -0.556637,0.51381889 M 76.959149,6.165826 V 4.0356188 c 0,-0.535228 0.04282,-1.2203198 0.04282,-1.2203198 0,-0.042818 -0.05352,-0.074932 -0.13916,-0.074932 -0.310432,0.1177495 -0.72791,0.2140912 -1.466524,0.3104323 -0.02141,0.064227 0,0.2355003 0.02141,0.2997277 0.578046,0.064227 0.695796,0.1177501 0.695796,0.72791 v 2.0873891 c 0,0.888477 -0.11775,0.9205922 -0.770728,0.974115 -0.06423,0.064227 -0.06423,0.2890231 0,0.3532504 0.449591,-0.010705 0.72791,-0.021409 1.19891,-0.021409 0.460297,0 0.72791,0.010705 1.188207,0.021409 0.06423,-0.064227 0.06423,-0.2890238 0,-0.3532504 -0.652979,-0.042818 -0.770729,-0.085638 -0.770729,-0.974115 m 7.377657,0.1284548 V 4.4638012 c 0,-0.9527051 -0.214091,-1.6913205 -1.177501,-1.6913205 -0.545933,0 -1.059752,0.1498646 -1.744844,0.9527058 h -0.03211 l 0.03211,-0.9527058 c 0,-0.021409 -0.02141,-0.032114 -0.04282,-0.032114 -0.310432,0.1177495 -0.72791,0.2140912 -1.477229,0.3318414 l 0.02141,0.2569094 0.460296,0.042818 c 0.149864,0.021408 0.2355,0.1284547 0.2355,0.6636827 v 2.6654353 c 0,0.3104315 -0.09634,0.4281824 -0.460296,0.4602961 l -0.203386,0.021409 c -0.05352,0.010705 -0.08564,0.032114 -0.08564,0.085637 v 0.2033866 l 0.02141,0.021409 c 0,0 0.674388,-0.021409 1.113275,-0.021409 0.417477,0 1.091865,0.021409 1.091865,0.021409 l 0.02141,-0.021409 V 7.2683958 c 0,-0.053523 -0.04282,-0.074932 -0.08564,-0.085637 L 81.874755,7.1613502 C 81.532209,7.118532 81.414459,7.0114856 81.414459,6.7010541 V 4.1105507 c 0.545933,-0.6422736 0.952706,-0.8242511 1.423707,-0.8242511 0.567341,0 0.695796,0.3532512 0.695796,1.1025696 v 2.2693667 c 0,1.1667955 0.107046,2.7938901 -0.363955,2.7938901 -0.11775,0 -0.181977,-0.074933 -0.246205,-0.171273 -0.08564,-0.1070456 -0.192682,-0.2355003 -0.471,-0.2355003 -0.117751,0 -0.321137,0.1284547 -0.321137,0.3211368 0,0.321136 0.363955,0.4710006 0.556637,0.4710006 0.214091,0 0.578046,-7e-7 0.974115,-0.3318413 0.503114,-0.4067733 0.674387,-1.4772315 0.674387,-3.2113679 m 2.845778,1.2845471 c 0.417477,0 0.856364,-0.2140919 1.380888,-0.6422736 0.04282,-0.042818 0.128455,-0.064227 0.128455,0.010705 0,0.2569087 0.11775,0.631569 0.11775,0.631569 0.07493,0.032113 0.11775,0.032113 0.203386,0 0.235501,-0.192682 0.642274,-0.3532512 1.295252,-0.4281824 0.06423,-0.064227 0.06423,-0.2247965 0,-0.2890231 C 89.623221,6.8080997 89.52688,6.6047124 89.52688,6.0801897 V 4.0249142 c 0,-0.3211368 0.04282,-1.0918651 0.04282,-1.0918651 0,-0.042818 -0.03211,-0.074932 -0.08564,-0.074932 -0.05352,0.010705 -0.214091,0.021409 -0.37466,0.021409 -0.342546,0 -0.695796,-0.010705 -1.091865,-0.021409 -0.06423,0.064227 -0.06423,0.2890231 0,0.3532505 0.524524,0.032113 0.663683,0.1605684 0.663683,0.8670693 v 2.06598 c 0,0.2033859 -0.02141,0.2890231 -0.171273,0.4174779 -0.396069,0.3425451 -0.738615,0.5138188 -1.006229,0.5138188 -0.321136,0 -0.856364,-0.1498653 -0.856364,-1.1025696 V 4.0249142 c 0,-0.3211368 0.04282,-1.0918651 0.04282,-1.0918651 0,-0.042818 -0.03211,-0.074932 -0.08564,-0.074932 -0.05352,0.010705 -0.214091,0.021409 -0.374659,0.021409 -0.342546,0 -0.695797,-0.010705 -1.091865,-0.021409 -0.06423,0.064227 -0.06423,0.2890231 0,0.3532505 0.513819,0.042817 0.663682,0.1605684 0.663682,0.8563647 v 2.0552755 c 0,0.7386139 0.321137,1.4558201 1.380889,1.4558201 m 7.044804,-3.6181411 c 0.417478,-0.4067733 0.760024,-0.6315691 1.091865,-0.6315691 0.406773,0 0.706501,0.2569095 0.706501,0.974115 V 6.165826 c 0,0.8777725 -0.08564,0.9312967 -0.663683,0.974115 -0.05352,0.064227 -0.05352,0.2890231 0,0.3532504 0.449592,-0.010705 0.663683,-0.021409 1.091866,-0.021409 0.438886,0 0.58875,0.010705 1.049046,0.021409 0.05352,-0.064227 0.05352,-0.2890238 0,-0.3532504 C 96.96775,7.097123 96.871409,7.043599 96.871409,6.165826 V 4.4638012 c 0,-0.1498639 0,-0.2997285 -0.0107,-0.4281824 0.513819,-0.5673417 0.931296,-0.706501 1.348774,-0.706501 0.406774,0 0.663683,0.2355003 0.663683,0.9527058 v 1.8840025 c 0,0.8777725 -0.107046,0.9312967 -0.663683,0.974115 -0.05352,0.064227 -0.05352,0.2890231 0,0.3532504 0.449592,-0.010705 0.663683,-0.021409 1.091865,-0.021409 0.438887,0 0.642274,0.010705 1.102572,0.021409 0.0535,-0.064227 0.0535,-0.2890238 0,-0.3532504 -0.588753,-0.042818 -0.685094,-0.096342 -0.685094,-0.974115 V 4.4745057 c 0,-0.9527051 -0.181977,-1.702025 -1.123979,-1.702025 -0.556637,0 -1.145387,0.2033867 -1.702025,0.7921374 -0.03211,0.032113 -0.09634,0.085636 -0.11775,0 -0.107045,-0.4388869 -0.513819,-0.7921374 -1.070456,-0.7921374 -0.620864,0 -1.091865,0.3746596 -1.562865,0.8670694 -0.04282,0.042817 -0.107046,0.1498631 -0.107046,0 0,-0.3211368 0.05352,-0.8135466 0.05352,-0.8135466 0,-0.053523 -0.04282,-0.085637 -0.128455,-0.085637 -0.310432,0.1177495 -0.738614,0.2140912 -1.477229,0.3104323 -0.02141,0.064227 0,0.2355003 0.02141,0.2997277 0.578046,0.064227 0.695796,0.1070455 0.695796,0.72791 v 2.0873891 c 0,0.8777725 -0.139159,0.9312967 -0.72791,0.974115 -0.06423,0.064227 -0.06423,0.2890231 0,0.3532504 0.438887,-0.010705 0.695797,-0.021409 1.156093,-0.021409 0.417478,0 0.599455,0.010705 1.049047,0.021409 0.06423,-0.064227 0.06423,-0.2890238 0,-0.3532504 -0.535228,-0.053523 -0.631569,-0.096342 -0.631569,-0.974115 V 4.4102784 c 0,-0.2247958 0.09634,-0.3532513 0.181977,-0.4495915 m 6.149975,-0.1070456 c 0.0428,0.09634 0.12846,0.1391592 0.2248,0.1498638 0.36395,-0.4710006 0.82425,-0.7065009 1.28455,-0.7065009 0.78143,0 1.43441,0.7921381 1.43441,2.0445709 0,1.1775 -0.51382,1.8840025 -1.22032,1.8840025 -0.63157,0 -0.71721,-0.3746604 -0.76003,-0.7493192 -0.0428,-0.2890231 -0.18197,-0.3853642 -0.40677,-0.3853642 -0.22479,0 -0.52452,0.1391593 -0.52452,0.4710007 0,0.58875 0.61016,1.0169331 1.6378,1.0169331 1.05975,0 2.19443,-0.952708 2.19443,-2.4727533 0,-1.3808874 -0.77073,-2.333594 -2.1195,-2.333594 -0.64228,0 -1.20962,0.2033874 -1.74485,1.0811606 m 7.12442,2.3121848 c 0,0.888477 -0.11775,0.9420013 -0.77072,0.974115 -0.0642,0.064227 -0.0642,0.2890231 0,0.3532504 0.44959,-0.010705 0.72791,-0.021409 1.19891,-0.021409 0.46029,0 0.72791,0.010705 1.1882,0.021409 0.0642,-0.064227 0.0642,-0.2890238 0,-0.3532504 -0.65298,-0.032114 -0.77073,-0.085638 -0.77073,-0.974115 v -4.934802 c 0,-0.69579635 0.0428,-1.12397873 0.0428,-1.12397873 0,-0.07493192 -0.0428,-0.10704559915647 -0.13916,-0.10704559915647 C 107.98349,0.10704462 107.18065,0.2569092 106.75246,0.28902288 c -0.0214,0.0856357 0,0.25690943 0.0642,0.32113679 0.55664,0.0321129 0.68509,-0.0214084 0.68509,0.87777393 v 4.6778925 m 2.83558,-1.7127295 c 0.20339,-1.2096145 0.95271,-1.3059563 1.20962,-1.3059563 0.40677,0 0.88848,0.2247965 0.88848,1.1239788 0,0.09634 -0.0428,0.1498638 -0.16057,0.1498638 l -1.93753,0.032114 m 2.8046,2.0231618 c -0.39607,0.4067725 -0.7065,0.5780462 -1.32737,0.5780462 -0.38536,0 -0.83495,-0.2247965 -1.1668,-0.7707283 -0.21409,-0.3532505 -0.34254,-0.845661 -0.34254,-1.4665247 l 2.84741,0.021409 c 0.12846,0 0.20339,-0.064228 0.20339,-0.1819775 0,-0.8991822 -0.32114,-1.8625934 -1.80907,-1.8625934 -0.9313,0 -2.14091,0.88848 -2.14091,2.5155716 0,0.5994546 0.14986,1.1775015 0.50311,1.5842748 0.36395,0.4281816 0.86707,0.6850918 1.6378,0.6850918 0.81354,0 1.39159,-0.3746603 1.81977,-0.9312967 -0.0321,-0.1070456 -0.0963,-0.1605684 -0.22479,-0.1712729 M 117.3808,6.1658263 V 3.2970042 h 0.99552 c 0.0963,0 0.24621,-0.042819 0.24621,-0.1391593 V 2.9437537 c 0,-0.042818 -0.0321,-0.064227 -0.0856,-0.064227 h -1.15609 V 2.2693664 c 0,-1.64850068 0.49241,-1.9054116 0.84566,-1.9054116 0.32114,0 0.49241,0.12845472 0.64227,0.5031143 0.0856,0.1926813 0.20339,0.3425459 0.42818,0.3425459 0.18198,0 0.43889,-0.22479648 0.43889,-0.43888693 0,-0.18197752 -0.11775,-0.37466033 -0.34254,-0.54593255 C 119.11497,0.03211345 118.83665,-2.2915646e-7 118.42988,-2.2915646e-7 c -0.89919,0 -1.89471,0.78143433915646 -1.89471,2.45134412915646 v 0.4281824 h -0.54593 c -0.19269,0 -0.24621,0.1284547 -0.24621,0.2140912 v 0.1391593 c 0,0.053522 0.0107,0.064227 0.0535,0.064227 h 0.73862 v 2.8688219 c 0,0.888477 -0.11775,0.9312967 -0.6958,0.974115 -0.0642,0.064227 -0.0642,0.2890231 0,0.3532504 0.44959,-0.010705 0.68509,-0.021409 1.12398,-0.021409 0.49241,0 0.80284,0.010705 1.26314,0.021409 0.0642,-0.064227 0.0642,-0.2890238 0,-0.3532504 -0.72791,-0.042818 -0.84566,-0.085638 -0.84566,-0.974115 M 121.67089,4.97762 v 1.4237065 c 0,0.1391585 -0.0642,0.2140912 -0.14987,0.2783185 -0.27831,0.224795 -0.64227,0.4602961 -0.942,0.4602961 -0.53522,0 -0.77072,-0.4281832 -0.77072,-0.7600238 0,-0.4817051 0.22479,-0.9634111 1.01693,-1.1775015 L 121.67089,4.97762 m 0,1.9803436 c 0.0642,0.224795 0.2462,0.6208644 0.82425,0.6208644 0.52452,0 0.90989,-0.4281831 0.90989,-0.4817052 0,-0.074932 -0.0963,-0.1819775 -0.13916,-0.1819775 -0.0642,0 -0.10705,0.171273 -0.33184,0.171273 -0.41748,0 -0.42819,-0.4174786 -0.42819,-0.9098876 V 4.5815513 c 0,-1.520046 -0.83495,-1.8090706 -1.61638,-1.8090706 -0.87778,0 -1.76626,0.6101599 -1.76626,1.1882062 0,0.2569086 0.12846,0.3746595 0.37466,0.3746595 0.31044,0 0.471,-0.2140919 0.471,-0.3532504 0,-0.074932 -0.0107,-0.1498646 -0.0321,-0.1926821 -0.0107,-0.032114 -0.0214,-0.096342 -0.0214,-0.2140912 0,-0.3318413 0.48171,-0.4495915 0.88848,-0.4495915 0.36395,0 0.86707,0.1819783 0.86707,1.3915928 0,0.074931 -0.0321,0.1177501 -0.0642,0.1284547 l -0.92059,0.2247957 c -1.02764,0.2569087 -1.76625,0.8242519 -1.76625,1.5521612 0,0.8456587 0.59945,1.1560924 1.34877,1.1560924 0.49241,0 0.6958,-0.085637 1.1668,-0.4495915 l 0.21409,-0.1712729 h 0.0214 M 126.26586,4.97762 v 1.4237065 c 0,0.1391585 -0.0642,0.2140912 -0.14987,0.2783185 -0.27831,0.224795 -0.64227,0.4602961 -0.942,0.4602961 -0.53522,0 -0.77073,-0.4281832 -0.77073,-0.7600238 0,-0.4817051 0.2248,-0.9634111 1.01694,-1.1775015 L 126.26586,4.97762 m 0,1.9803436 c 0.0642,0.224795 0.2462,0.6208644 0.82425,0.6208644 0.52452,0 0.90989,-0.4281831 0.90989,-0.4817052 0,-0.074932 -0.0963,-0.1819775 -0.13916,-0.1819775 -0.0642,0 -0.10705,0.171273 -0.33184,0.171273 -0.41748,0 -0.42819,-0.4174786 -0.42819,-0.9098876 V 4.5815513 c 0,-1.520046 -0.83495,-1.8090706 -1.61638,-1.8090706 -0.87778,0 -1.76626,0.6101599 -1.76626,1.1882062 0,0.2569086 0.12846,0.3746595 0.37466,0.3746595 0.31043,0 0.471,-0.2140919 0.471,-0.3532504 0,-0.074932 -0.0107,-0.1498646 -0.0321,-0.1926821 -0.0107,-0.032114 -0.0214,-0.096342 -0.0214,-0.2140912 0,-0.3318413 0.48171,-0.4495915 0.88848,-0.4495915 0.36395,0 0.86707,0.1819783 0.86707,1.3915928 0,0.074931 -0.0321,0.1177501 -0.0642,0.1284547 l -0.92059,0.2247957 c -1.02764,0.2569087 -1.76625,0.8242519 -1.76625,1.5521612 0,0.8456587 0.59945,1.1560924 1.34877,1.1560924 0.49241,0 0.6958,-0.085637 1.1668,-0.4495915 l 0.21409,-0.1712729 h 0.0214"
     style="font-style:normal;font-variant:normal;font-weight:normal;font-stretch:normal;font-size:144px;font-family:'Linux Libertine O';-inkscape-font-specification:'Linux Libertine O';letter-spacing:-4;word-spacing:-5;fill:#000000;fill-opacity:1;stroke:none;stroke-width:0.0743372px;stroke-linecap:butt;stroke-linejoin:miter;stroke-opacity:1" /></svg>
