<?xml version="1.0" encoding="UTF-8" standalone="no"?>
<svg
   xmlns:dc="http://purl.org/dc/elements/1.1/"
   xmlns:cc="http://creativecommons.org/ns#"
   xmlns:rdf="http://www.w3.org/1999/02/22-rdf-syntax-ns#"
   xmlns:svg="http://www.w3.org/2000/svg"
   xmlns="http://www.w3.org/2000/svg"
   id="svg3857"
   xml:space="preserve"
   enable-background="new 0 0 135 155"
   viewBox="0 0 130.21803 12.01979"
   height="12.01979"
   width="130.21803"
   y="0px"
   x="0px"
   version="1.1"><metadata
     id="metadata4852"><rdf:RDF><cc:Work
         rdf:about=""><dc:format>image/svg+xml</dc:format><dc:type
           rdf:resource="http://purl.org/dc/dcmitype/StillImage" /><dc:title /></cc:Work></rdf:RDF></metadata><defs
     id="defs4850"><radialGradient
       id="SVGID_1_"
       cx="-145.4702"
       cy="87.823196"
       r="68.686401"
       gradientTransform="matrix(1,0,0,-1,192.3999,143.0996)"
       gradientUnits="userSpaceOnUse">
		<stop
   offset="0"
   style="stop-color:#FFFFFF"
   id="stop3922" />
		<stop
   offset="0.4835"
   style="stop-color:#EAEAEB"
   id="stop3924" />
		<stop
   offset="0.9451"
   style="stop-color:#A9ABAE"
   id="stop3926" />
		<stop
   offset="1"
   style="stop-color:#999B9E"
   id="stop3928" />
	</radialGradient><linearGradient
       id="SVGID_2_"
       gradientUnits="userSpaceOnUse"
       x1="66.232399"
       y1="24.481001"
       x2="112.7331"
       y2="97.232101">
		<stop
   offset="0"
   style="stop-color:#8A8A8A"
   id="stop3935" />
		<stop
   offset="0.5687"
   style="stop-color:#606060"
   id="stop3937" />
		<stop
   offset="0.5914"
   style="stop-color:#FFFFFF"
   id="stop3939" />
		<stop
   offset="0.6116"
   style="stop-color:#585858"
   id="stop3941" />
		<stop
   offset="1"
   style="stop-color:#303030"
   id="stop3943" />
	</linearGradient><linearGradient
       id="SVGID_5_"
       gradientUnits="userSpaceOnUse"
       x1="54.715801"
       y1="65.136703"
       x2="83.798798"
       y2="65.136703">
		<stop
   offset="0"
   style="stop-color:#231F20"
   id="stop3964" />
		<stop
   offset="1"
   style="stop-color:#474747"
   id="stop3966" />
	</linearGradient><linearGradient
       id="SVGID_6_"
       gradientUnits="userSpaceOnUse"
       x1="-123.5898"
       y1="119.8076"
       x2="-94.069099"
       y2="29.9035"
       gradientTransform="matrix(1,0,0,-1,192.3999,143.0996)">
		<stop
   offset="0"
   style="stop-color:#FFFFFF"
   id="stop3997" />
		<stop
   offset="0.0094"
   style="stop-color:#FCFCFC"
   id="stop3999" />
		<stop
   offset="0.0655"
   style="stop-color:#EEEEEE"
   id="stop4001" />
		<stop
   offset="0.1342"
   style="stop-color:#E5E5E5"
   id="stop4003" />
		<stop
   offset="0.2515"
   style="stop-color:#E3E3E3"
   id="stop4005" />
		<stop
   offset="0.3357"
   style="stop-color:#8A8A8A"
   id="stop4007" />
		<stop
   offset="0.4422"
   style="stop-color:#B8B8B8"
   id="stop4009" />
		<stop
   offset="1"
   style="stop-color:#3B3B3B"
   id="stop4011" />
	</linearGradient><linearGradient
       id="SVGID_7_"
       gradientUnits="userSpaceOnUse"
       x1="70.421898"
       y1="26.876499"
       x2="119.5471"
       y2="87.626701">
		<stop
   offset="0"
   style="stop-color:#EFF0F0"
   id="stop4016" />
		<stop
   offset="0.5914"
   style="stop-color:#F0F1F2"
   id="stop4018" />
		<stop
   offset="0.599"
   style="stop-color:#787878"
   id="stop4020" />
		<stop
   offset="0.6456"
   style="stop-color:#EEEFF0"
   id="stop4022" />
		<stop
   offset="1"
   style="stop-color:#D8D9DB"
   id="stop4024" />
	</linearGradient><linearGradient
       id="SVGID_8_"
       gradientUnits="userSpaceOnUse"
       x1="-117.166"
       y1="122.1328"
       x2="-87.569702"
       y2="31.998501"
       gradientTransform="matrix(1,0,0,-1,192.3999,143.0996)">
		<stop
   offset="0"
   style="stop-color:#FFFFFF"
   id="stop4029" />
		<stop
   offset="1"
   style="stop-color:#E4E5E6"
   id="stop4031" />
	</linearGradient><linearGradient
       id="SVGID_9_"
       gradientUnits="userSpaceOnUse"
       x1="54.653301"
       y1="25.2764"
       x2="79.683601"
       y2="106.3903">
		<stop
   offset="0"
   style="stop-color:#FFFFFF"
   id="stop4036" />
		<stop
   offset="0.7473"
   style="stop-color:#F9F9F9"
   id="stop4038" />
		<stop
   offset="1"
   style="stop-color:#D5D7D8"
   id="stop4040" />
	</linearGradient><linearGradient
       id="SVGID_10_"
       gradientUnits="userSpaceOnUse"
       x1="-115.3369"
       y1="119.6328"
       x2="-134.85719"
       y2="24.6462"
       gradientTransform="matrix(1,0,0,-1,192.3999,143.0996)">
		<stop
   offset="0"
   style="stop-color:#FFFFFF"
   id="stop4061" />
		<stop
   offset="1"
   style="stop-color:#E4E5E6"
   id="stop4063" />
	</linearGradient><linearGradient
       id="SVGID_11_"
       gradientUnits="userSpaceOnUse"
       x1="32.519001"
       y1="33.077099"
       x2="37.2481"
       y2="92.496101">
		<stop
   offset="0.2198"
   style="stop-color:#989A9C"
   id="stop4068" />
		<stop
   offset="0.2527"
   style="stop-color:#FFFFFF"
   id="stop4070" />
	</linearGradient><linearGradient
       id="SVGID_12_"
       gradientUnits="userSpaceOnUse"
       x1="-152.6201"
       y1="126.8398"
       x2="-171.9462"
       y2="32.797901"
       gradientTransform="matrix(1,0,0,-1,192.3999,143.0996)">
		<stop
   offset="0"
   style="stop-color:#FFFFFF"
   id="stop4075" />
		<stop
   offset="1"
   style="stop-color:#E4E5E6"
   id="stop4077" />
	</linearGradient><linearGradient
       id="SVGID_13_"
       gradientUnits="userSpaceOnUse"
       x1="-130.1348"
       y1="35.625"
       x2="-130.14281"
       y2="35.585701"
       gradientTransform="matrix(1,0,0,-1,192.3999,143.0996)">
		<stop
   offset="0"
   style="stop-color:#FFFFFF"
   id="stop4082" />
		<stop
   offset="1"
   style="stop-color:#E4E5E6"
   id="stop4084" />
	</linearGradient><linearGradient
       id="SVGID_14_"
       gradientUnits="userSpaceOnUse"
       x1="-121.1382"
       y1="120.3223"
       x2="-140.54491"
       y2="25.888"
       gradientTransform="matrix(1,0,0,-1,192.3999,143.0996)">
		<stop
   offset="0"
   style="stop-color:#FFFFFF"
   id="stop4093" />
		<stop
   offset="1"
   style="stop-color:#E4E5E6"
   id="stop4095" />
	</linearGradient><linearGradient
       id="SVGID_15_"
       gradientUnits="userSpaceOnUse"
       x1="-135.58591"
       y1="123.3525"
       x2="-155.006"
       y2="28.8524"
       gradientTransform="matrix(1,0,0,-1,192.3999,143.0996)">
		<stop
   offset="0"
   style="stop-color:#FFFFFF"
   id="stop4100" />
		<stop
   offset="1"
   style="stop-color:#E4E5E6"
   id="stop4102" />
	</linearGradient><linearGradient
       id="SVGID_16_"
       gradientUnits="userSpaceOnUse"
       x1="-127.4014"
       y1="121.9365"
       x2="-146.8837"
       y2="27.1346"
       gradientTransform="matrix(1,0,0,-1,192.3999,143.0996)">
		<stop
   offset="0"
   style="stop-color:#FFFFFF"
   id="stop4107" />
		<stop
   offset="1"
   style="stop-color:#E4E5E6"
   id="stop4109" />
	</linearGradient><linearGradient
       id="SVGID_17_"
       gradientUnits="userSpaceOnUse"
       x1="-118.4946"
       y1="124.0039"
       x2="-138.85201"
       y2="24.9438"
       gradientTransform="matrix(1,0,0,-1,192.3999,143.0996)">
		<stop
   offset="0"
   style="stop-color:#FFFFFF"
   id="stop4114" />
		<stop
   offset="1"
   style="stop-color:#E4E5E6"
   id="stop4116" />
	</linearGradient><linearGradient
       id="SVGID_18_"
       gradientUnits="userSpaceOnUse"
       x1="-115.3716"
       y1="119.1758"
       x2="-134.7878"
       y2="24.695299"
       gradientTransform="matrix(1,0,0,-1,192.3999,143.0996)">
		<stop
   offset="0"
   style="stop-color:#FFFFFF"
   id="stop4121" />
		<stop
   offset="1"
   style="stop-color:#E4E5E6"
   id="stop4123" />
	</linearGradient><linearGradient
       id="SVGID_21_"
       gradientUnits="userSpaceOnUse"
       x1="-175.4424"
       y1="83.6045"
       x2="-75.6362"
       y2="83.6045"
       gradientTransform="matrix(1,0,0,-1,192.3999,143.0996)">
		<stop
   offset="0"
   style="stop-color:#555555"
   id="stop4198" />
		<stop
   offset="1"
   style="stop-color:#231F20"
   id="stop4200" />
	</linearGradient><linearGradient
       id="SVGID_22_"
       gradientUnits="userSpaceOnUse"
       x1="-175.14211"
       y1="104.0801"
       x2="-83.541"
       y2="104.0801"
       gradientTransform="matrix(1,0,0,-1,192.3999,143.0996)">
		<stop
   offset="0"
   style="stop-color:#A0A0A0"
   id="stop4205" />
		<stop
   offset="0.0769"
   style="stop-color:#656767"
   id="stop4207" />
		<stop
   offset="1"
   style="stop-color:#717375"
   id="stop4209" />
	</linearGradient><linearGradient
       id="SVGID_23_"
       gradientUnits="userSpaceOnUse"
       x1="-172.3853"
       y1="78.209"
       x2="-172.3853"
       y2="78.209"
       gradientTransform="matrix(1,0,0,-1,192.3999,143.0996)">
		<stop
   offset="0"
   style="stop-color:#FFFFFF"
   id="stop4224" />
		<stop
   offset="0.078"
   style="stop-color:#F4F4F4"
   id="stop4226" />
		<stop
   offset="0.3807"
   style="stop-color:#CECECE"
   id="stop4228" />
		<stop
   offset="0.5396"
   style="stop-color:#BFBFBF"
   id="stop4230" />
		<stop
   offset="0.8357"
   style="stop-color:#7C7C7C"
   id="stop4232" />
		<stop
   offset="0.8996"
   style="stop-color:#A8A8A8"
   id="stop4234" />
		<stop
   offset="0.9093"
   style="stop-color:#9A9A9A"
   id="stop4236" />
		<stop
   offset="0.9327"
   style="stop-color:#7D7D7D"
   id="stop4238" />
		<stop
   offset="0.9558"
   style="stop-color:#686868"
   id="stop4240" />
		<stop
   offset="0.9785"
   style="stop-color:#5B5B5B"
   id="stop4242" />
		<stop
   offset="1"
   style="stop-color:#575757"
   id="stop4244" />
	</linearGradient><linearGradient
       id="SVGID_24_"
       gradientUnits="userSpaceOnUse"
       x1="-175.7173"
       y1="78.449203"
       x2="-67.153198"
       y2="90.476799"
       gradientTransform="matrix(1,0,0,-1,192.3999,143.0996)">
		<stop
   offset="0"
   style="stop-color:#FFFFFF"
   id="stop4249" />
		<stop
   offset="0.078"
   style="stop-color:#F4F4F4"
   id="stop4251" />
		<stop
   offset="0.3807"
   style="stop-color:#CECECE"
   id="stop4253" />
		<stop
   offset="0.5396"
   style="stop-color:#BFBFBF"
   id="stop4255" />
		<stop
   offset="0.8357"
   style="stop-color:#7C7C7C"
   id="stop4257" />
		<stop
   offset="0.8996"
   style="stop-color:#A8A8A8"
   id="stop4259" />
		<stop
   offset="0.9093"
   style="stop-color:#9A9A9A"
   id="stop4261" />
		<stop
   offset="0.9327"
   style="stop-color:#7D7D7D"
   id="stop4263" />
		<stop
   offset="0.9558"
   style="stop-color:#686868"
   id="stop4265" />
		<stop
   offset="0.9785"
   style="stop-color:#5B5B5B"
   id="stop4267" />
		<stop
   offset="1"
   style="stop-color:#575757"
   id="stop4269" />
	</linearGradient><linearGradient
       id="SVGID_25_"
       gradientUnits="userSpaceOnUse"
       x1="-176.1851"
       y1="78.4795"
       x2="-52.131699"
       y2="92.223099"
       gradientTransform="matrix(1,0,0,-1,192.3999,143.0996)">
		<stop
   offset="0"
   style="stop-color:#FFFFFF"
   id="stop4274" />
		<stop
   offset="0.078"
   style="stop-color:#F4F4F4"
   id="stop4276" />
		<stop
   offset="0.3807"
   style="stop-color:#CECECE"
   id="stop4278" />
		<stop
   offset="0.5396"
   style="stop-color:#BFBFBF"
   id="stop4280" />
		<stop
   offset="0.8357"
   style="stop-color:#7C7C7C"
   id="stop4282" />
		<stop
   offset="0.8996"
   style="stop-color:#A8A8A8"
   id="stop4284" />
		<stop
   offset="0.9093"
   style="stop-color:#9A9A9A"
   id="stop4286" />
		<stop
   offset="0.9327"
   style="stop-color:#7D7D7D"
   id="stop4288" />
		<stop
   offset="0.9558"
   style="stop-color:#686868"
   id="stop4290" />
		<stop
   offset="0.9785"
   style="stop-color:#5B5B5B"
   id="stop4292" />
		<stop
   offset="1"
   style="stop-color:#575757"
   id="stop4294" />
	</linearGradient><linearGradient
       id="SVGID_26_"
       gradientUnits="userSpaceOnUse"
       x1="21.2129"
       y1="71.326698"
       x2="117.1948"
       y2="51.952599">
		<stop
   offset="0"
   style="stop-color:#EDEDEE"
   id="stop4299" />
		<stop
   offset="0.4176"
   style="stop-color:#FFFFFF"
   id="stop4301" />
		<stop
   offset="0.6264"
   style="stop-color:#F8F9F9"
   id="stop4303" />
		<stop
   offset="1"
   style="stop-color:#BFC0C2"
   id="stop4305" />
	</linearGradient><linearGradient
       id="SVGID_27_"
       gradientUnits="userSpaceOnUse"
       x1="23.471201"
       y1="30.732401"
       x2="27.9561"
       y2="30.732401">
		<stop
   offset="0"
   style="stop-color:#E2E3E4"
   id="stop4316" />
		<stop
   offset="0.5055"
   style="stop-color:#FFFFFF"
   id="stop4318" />
	</linearGradient><linearGradient
       id="SVGID_34_"
       gradientUnits="userSpaceOnUse"
       x1="22.5742"
       y1="49.7188"
       x2="111.5455"
       y2="29.204">
		<stop
   offset="0"
   style="stop-color:#FFFFFF"
   id="stop4743" />
		<stop
   offset="0.6538"
   style="stop-color:#FFFFFF"
   id="stop4745" />
		<stop
   offset="1"
   style="stop-color:#CBCCCE"
   id="stop4747" />
	</linearGradient><linearGradient
       id="SVGID_35_"
       gradientUnits="userSpaceOnUse"
       x1="-158.8101"
       y1="107.0898"
       x2="-126.4229"
       y2="107.0898"
       gradientTransform="matrix(1,0,0,-1,192.3999,143.0996)">
		<stop
   offset="0"
   style="stop-color:#696969"
   id="stop4770" />
		<stop
   offset="0.3702"
   style="stop-color:#2E2E2E"
   id="stop4772" />
		<stop
   offset="0.4554"
   style="stop-color:#424242"
   id="stop4774" />
		<stop
   offset="0.6014"
   style="stop-color:#303030"
   id="stop4776" />
		<stop
   offset="0.6947"
   style="stop-color:#4A4A4A"
   id="stop4778" />
		<stop
   offset="1"
   style="stop-color:#666666"
   id="stop4780" />
	</linearGradient><linearGradient
       id="SVGID_36_"
       gradientUnits="userSpaceOnUse"
       x1="-158.4185"
       y1="107.8965"
       x2="-126.5454"
       y2="107.8965"
       gradientTransform="matrix(1,0,0,-1,192.3999,143.0996)">
		<stop
   offset="0"
   style="stop-color:#525252"
   id="stop4785" />
		<stop
   offset="0.1856"
   style="stop-color:#333333"
   id="stop4787" />
		<stop
   offset="0.354"
   style="stop-color:#AEAEAE"
   id="stop4789" />
		<stop
   offset="0.4199"
   style="stop-color:#ADADAD"
   id="stop4791" />
		<stop
   offset="0.4276"
   style="stop-color:#9D9D9D"
   id="stop4793" />
		<stop
   offset="0.4433"
   style="stop-color:#818181"
   id="stop4795" />
		<stop
   offset="0.4611"
   style="stop-color:#6A6A6A"
   id="stop4797" />
		<stop
   offset="0.4814"
   style="stop-color:#585858"
   id="stop4799" />
		<stop
   offset="0.506"
   style="stop-color:#4C4C4C"
   id="stop4801" />
		<stop
   offset="0.539"
   style="stop-color:#444444"
   id="stop4803" />
		<stop
   offset="0.6166"
   style="stop-color:#424242"
   id="stop4805" />
		<stop
   offset="0.6684"
   style="stop-color:#454545"
   id="stop4807" />
		<stop
   offset="1"
   style="stop-color:#BDBDBD"
   id="stop4809" />
	</linearGradient><linearGradient
       id="SVGID_37_"
       gradientUnits="userSpaceOnUse"
       x1="-153.1255"
       y1="97.627899"
       x2="-154.15421"
       y2="104.4332"
       gradientTransform="matrix(1,0,0,-1,192.3999,143.0996)">
		<stop
   offset="0"
   style="stop-color:#969696"
   id="stop4814" />
		<stop
   offset="1"
   style="stop-color:#000000"
   id="stop4816" />
	</linearGradient><linearGradient
       id="SVGID_38_"
       gradientUnits="userSpaceOnUse"
       x1="38.737301"
       y1="46.373001"
       x2="39.487301"
       y2="38.790001">
		<stop
   offset="0"
   style="stop-color:#333333"
   id="stop4825" />
		<stop
   offset="0.431"
   style="stop-color:#000000"
   id="stop4827" />
		<stop
   offset="1"
   style="stop-color:#2E2E2E"
   id="stop4829" />
	</linearGradient><radialGradient
       id="SVGID_39_"
       cx="-138.2334"
       cy="106.5996"
       r="72.751701"
       gradientTransform="matrix(1,0,0,-1,192.3999,143.0996)"
       gradientUnits="userSpaceOnUse">
		<stop
   offset="0"
   style="stop-color:#000000;stop-opacity:0;"
   id="stop4840" />
		<stop
   offset="0.80220002"
   style="stop-color:#000000;stop-opacity:0.08;"
   id="stop4842" />
		<stop
   offset="1"
   style="stop-color:#000000;stop-opacity:0.3882353;"
   id="stop4844" />
	</radialGradient></defs><g
     transform="translate(-2.3677435,-137.99615)"
     title="Ínsadoobíídiiya tʼáadoo ni kólnéhé"
     id="the_free_encyclopedia"><path
       id="path3516"
       d="m 4.3850903,137.99615 -1.2795449,0.98354 c -0.1341457,0.10296 -0.1547837,0.16012 -0.1547837,0.24018 0,0.0915 0.061913,0.17155 0.1547837,0.17155 0.09287,0 0.2166973,-0.0343 0.4333942,-0.13724 l 1.4859231,-0.66333 c -0.1341457,-0.24016 -0.3508433,-0.43459 -0.6397724,-0.5947 m -0.1960594,7.9713 v -4.58608 c 0,-0.94922 0.1754223,-1.00641 0.8977453,-1.04072 0.061913,-0.0686 0.061913,-0.30878 0,-0.3774 -0.5056262,0.0115 -0.8151945,0.0228 -1.3414584,0.0228 -0.515945,0 -0.8151944,-0.0115 -1.3311395,-0.0228 -0.061913,0.0686 -0.061913,0.30878 0,0.3774 0.7223231,0.0343 0.8977452,0.0915 0.8977452,1.04072 v 4.58608 c 0,0.94923 -0.1754221,1.00642 -0.8977452,1.04073 -0.061913,0.0686 -0.061913,0.30879 0,0.3774 0.5056262,-0.0115 0.8151945,-0.0228 1.3414584,-0.0228 0.515945,0 0.8151945,0.0115 1.3311395,0.0228 0.061913,-0.0686 0.061913,-0.30878 0,-0.3774 -0.722323,-0.0343 -0.8977453,-0.0915 -0.8977453,-1.04073" /><path
       id="path3518"
       d="m 6.783344,143.26841 c -0.030957,0.0458 -0.1031891,0.16012 -0.1031891,0 0,-0.34309 0.051595,-0.86917 0.051595,-0.86917 0,-0.0572 -0.041276,-0.0915 -0.123827,-0.0915 -0.2889291,0.12581 -0.7120055,0.22874 -1.4240096,0.33167 -0.020638,0.0686 0,0.2516 0.020638,0.32022 0.5572206,0.0572 0.6707292,0.11437 0.6707292,0.77768 v 2.23014 c 0,0.9378 -0.1031897,0.98354 -0.7223237,1.04073 -0.061913,0.0686 -0.061913,0.30879 0,0.3774 0.4230748,-0.0115 0.6913674,-0.0228 1.1350801,-0.0228 0.4024372,0 0.5881783,0.0115 1.0215722,0.0228 0.061913,-0.0686 0.061913,-0.30878 0,-0.3774 -0.5262639,-0.0572 -0.6191347,-0.10296 -0.6191347,-1.04073 v -1.8756 c 0,-0.24016 0.092871,-0.37741 0.1754215,-0.48034 0.3921182,-0.42315 0.7945566,-0.67476 1.1969936,-0.67476 0.206378,0 0.4230755,0.14868 0.5469023,0.41173 0.103189,0.22872 0.1238269,0.53752 0.1238269,0.88061 v 1.73836 c 0,0.9378 -0.1031896,0.98354 -0.6397724,1.04073 -0.051595,0.0686 -0.051595,0.30879 0,0.3774 0.4333938,-0.0115 0.6397728,-0.0228 1.0525289,-0.0228 0.4230741,0 0.6500917,0.0115 1.0938038,0.0228 0.0516,-0.0686 0.0516,-0.30878 0,-0.3774 -0.577858,-0.0572 -0.6913668,-0.10296 -0.6913668,-1.04073 v -1.70405 c 0,-0.62901 -0.041272,-1.17797 -0.2786102,-1.53251 -0.1754213,-0.2516 -0.495308,-0.38884 -0.8564695,-0.38884 -0.5056261,0 -1.000935,0.14868 -1.6303879,0.92636" /><path
       id="path3520"
       d="m 10.50532,145.78447 c 0.04127,0.56038 0.07223,1.0979 0.07223,1.57824 0.10319,-0.0229 0.206379,-0.0343 0.257973,-0.0343 0.07223,0 0.134146,0 0.206379,0.0228 0.27861,0.08 0.557222,0.12581 0.93902,0.12581 0.577859,0 1.640707,-0.3088 1.640707,-1.44102 0,-0.77768 -0.515946,-1.22371 -1.207313,-1.52106 -0.619133,-0.26304 -1.03189,-0.43459 -1.03189,-1.0636 0,-0.4689 0.371481,-0.73194 0.722324,-0.73194 0.227015,0 0.825512,0.0915 0.959658,1.0636 0.06191,0.0686 0.268292,0.0572 0.330205,-0.0115 0,-0.41172 0.0516,-0.83487 0.06191,-1.21228 -0.319886,-0.0572 -0.815195,-0.21729 -1.351777,-0.21729 -0.7636,0 -1.454967,0.54895 -1.454967,1.2809 0,0.83486 0.340524,1.1894 1.13508,1.55537 0.84615,0.40029 1.052529,0.62901 1.052529,1.12079 0,0.56038 -0.495308,0.80056 -0.877108,0.80056 -0.402436,0 -0.629453,-0.14868 -0.732642,-0.27449 -0.247653,-0.26303 -0.340524,-0.76624 -0.402437,-1.05216 -0.06191,-0.0686 -0.257973,-0.0572 -0.319886,0.0115" /><path
       id="path3522"
       d="m 16.58678,144.69799 v 1.52107 c 0,0.14867 -0.06191,0.22872 -0.144464,0.29734 -0.268292,0.24017 -0.619135,0.49178 -0.908065,0.49178 -0.515945,0 -0.742961,-0.45747 -0.742961,-0.812 0,-0.51464 0.216698,-1.0293 0.980296,-1.25802 l 0.815194,-0.24017 m 0,2.11576 c 0.06191,0.24017 0.237336,0.66333 0.794557,0.66333 0.505626,0 0.877107,-0.45747 0.877107,-0.51464 0,-0.0801 -0.09287,-0.19443 -0.134146,-0.19443 -0.06191,0 -0.103189,0.18298 -0.319887,0.18298 -0.402436,0 -0.412756,-0.44602 -0.412756,-0.97211 v -1.70405 c 0,-1.62399 -0.804876,-1.93278 -1.558156,-1.93278 -0.846149,0 -1.70262,0.65189 -1.70262,1.26946 0,0.27449 0.123827,0.40028 0.361163,0.40028 0.299248,0 0.454032,-0.22873 0.454032,-0.37741 0,-0.08 -0.01032,-0.16011 -0.03096,-0.20585 -0.01032,-0.0343 -0.02064,-0.10296 -0.02064,-0.22874 0,-0.35453 0.464351,-0.48033 0.856469,-0.48033 0.350843,0 0.835832,0.19442 0.835832,1.48675 0,0.08 -0.03096,0.12581 -0.06191,0.13724 l -0.887427,0.24017 c -0.990613,0.27448 -1.70262,0.88062 -1.70262,1.6583 0,0.9035 0.57786,1.23516 1.300183,1.23516 0.474669,0 0.67073,-0.0915 1.124761,-0.48033 l 0.206379,-0.183 h 0.02064" /><path
       id="path3524"
       d="m 21.442547,145.94457 c 0,0.2173 -0.02064,0.3088 -0.165102,0.44604 -0.3818,0.36596 -0.712005,0.54895 -0.969978,0.54895 -0.55722,0 -1.13508,-0.67476 -1.13508,-2.10433 0,-0.82344 0.144465,-1.2809 0.299248,-1.52106 0.319887,-0.53753 0.753281,-0.57183 0.95966,-0.57183 0.37148,0 0.629453,0.14867 0.835831,0.41171 0.144465,0.18298 0.175421,0.26304 0.175421,0.61757 v 2.17295 m -0.113507,0.84631 c 0.04127,-0.0458 0.123826,-0.0686 0.123826,0.0115 0,0.27448 0.113509,0.67476 0.113509,0.67476 0.08255,0.0343 0.113508,0.0228 0.196059,0 0.227016,-0.20586 0.619135,-0.3774 1.248588,-0.45747 0.06191,-0.0686 0.06191,-0.24016 0,-0.30878 -0.66041,-0.0572 -0.753281,-0.27448 -0.753281,-0.83488 v -5.18077 c 0,-0.74337 0.04127,-1.20083 0.04127,-1.20083 0,-0.0801 -0.04127,-0.11437 -0.134146,-0.11437 -0.257974,0.11437 -1.031892,0.27447 -1.444648,0.30878 -0.02064,0.0915 0,0.27449 0.06191,0.34311 0.536582,0.0343 0.66041,-0.0229 0.66041,0.93779 v 1.46389 c 0,0.08 -0.02064,0.10296 -0.09287,0.10296 -0.04127,0 -0.464352,-0.19442 -0.804875,-0.19442 -0.681048,0 -1.135081,0.2516 -1.547837,0.68619 -0.443712,0.49178 -0.712005,1.16653 -0.712005,2.01284 0,1.40669 0.639774,2.43599 1.754215,2.43599 0.402437,0 0.784238,-0.22873 1.289864,-0.6862" /><path
       id="path3526"
       d="m 23.128634,145.01821 c 0,1.16653 0.712007,2.45887 2.166972,2.45887 1.537516,0 2.187608,-1.41814 2.187608,-2.5618 0,-1.1894 -0.567541,-2.57323 -2.166971,-2.57323 -1.393051,0 -2.187609,1.22372 -2.187609,2.67616 m 2.074102,-2.29875 c 0.887425,0 1.393053,0.88062 1.393053,2.5618 0,1.50962 -0.629454,1.81841 -1.114443,1.81841 -1.073165,0 -1.465285,-1.46389 -1.465285,-2.3445 0,-0.99498 0.319887,-2.03571 1.186675,-2.03571" /><path
       id="path3528"
       d="m 28.012132,145.01821 c 0,1.16653 0.712007,2.45887 2.166972,2.45887 1.537516,0 2.187609,-1.41814 2.187609,-2.5618 0,-1.1894 -0.567542,-2.57323 -2.166971,-2.57323 -1.393052,0 -2.18761,1.22372 -2.18761,2.67616 m 2.074101,-2.29875 c 0.887425,0 1.393053,0.88062 1.393053,2.5618 0,1.50962 -0.629454,1.81841 -1.114442,1.81841 -1.073166,0 -1.465285,-1.46389 -1.465285,-2.3445 0,-0.99498 0.319886,-2.03571 1.186674,-2.03571" /><path
       id="path3530"
       d="m 34.187431,143.21124 c 0.268291,-0.26305 0.577859,-0.36598 0.877108,-0.36598 0.629453,0 1.145398,0.84631 1.145398,1.95566 0,1.30377 -0.47467,2.28731 -1.454966,2.28731 -0.319886,0 -0.536584,-0.2516 -0.742961,-0.53752 v -2.85914 c 0,-0.24017 0.04127,-0.3431 0.175421,-0.48033 m -0.07223,-0.35454 c -0.07223,0.0686 -0.103189,0.0458 -0.103189,-0.0572 v -2.10433 c 0,-0.74337 0.04127,-1.20083 0.04127,-1.20083 0,-0.0801 -0.04127,-0.11437 -0.134146,-0.11437 -0.257973,0.11437 -1.031892,0.27447 -1.444648,0.30878 -0.02064,0.0915 0,0.27449 0.06191,0.34311 0.536584,0.0343 0.660411,-0.0229 0.660411,0.93779 v 5.58105 c 0,0.44603 -0.01032,0.65189 -0.04127,0.812 0.0516,0.0915 0.103189,0.13724 0.227016,0.13724 0.06191,-0.0572 0.165103,-0.17155 0.237335,-0.27448 0.113508,-0.13724 0.175421,-0.13724 0.288929,-0.0228 0.227016,0.21729 0.536584,0.27447 0.908065,0.27447 1.052528,0 2.280479,-1.06361 2.280479,-2.88201 0,-1.39527 -0.928703,-2.25301 -1.826447,-2.25301 -0.443713,0 -0.835833,0.19442 -1.155718,0.51464" /><path
       id="path3532"
       d="m 38.755881,139.68876 -0.784237,1.36096 c -0.08255,0.14867 -0.113508,0.19442 -0.113508,0.32022 0,0.08 0.07223,0.14868 0.144465,0.14868 0.07223,0 0.154784,-0.0458 0.309568,-0.2173 l 1.186674,-1.24659 -0.03096,-0.12579 c -0.237335,-0.25161 -0.505627,-0.26305 -0.56754,-0.26305 -0.0516,0 -0.113509,0.0115 -0.144466,0.0229 m 0.185741,6.27869 v -2.27588 c 0,-0.57183 0.04127,-1.30378 0.04127,-1.30378 0,-0.0458 -0.0516,-0.08 -0.134146,-0.08 -0.299248,0.12581 -0.701687,0.22874 -1.413691,0.33167 -0.02064,0.0686 0,0.2516 0.02064,0.32022 0.55722,0.0686 0.670729,0.1258 0.670729,0.77768 v 2.23014 c 0,0.94923 -0.113509,0.98354 -0.742961,1.04073 -0.06191,0.0686 -0.06191,0.30879 0,0.37741 0.433393,-0.0115 0.701686,-0.0229 1.155717,-0.0229 0.443713,0 0.701687,0.0115 1.1454,0.0229 0.06191,-0.0686 0.06191,-0.30879 0,-0.37741 -0.629453,-0.0458 -0.742962,-0.0915 -0.742962,-1.04073" /><path
       id="path3534"
       d="m 41.160421,139.68876 -0.784237,1.36096 c -0.08255,0.14867 -0.113508,0.19442 -0.113508,0.32022 0,0.08 0.07223,0.14868 0.144465,0.14868 0.07223,0 0.154784,-0.0458 0.309567,-0.2173 l 1.186675,-1.24659 -0.03096,-0.12579 c -0.237335,-0.25161 -0.505627,-0.26305 -0.56754,-0.26305 -0.0516,0 -0.113509,0.0115 -0.144466,0.0229 m 0.185741,6.27869 v -2.27588 c 0,-0.57183 0.04127,-1.30378 0.04127,-1.30378 0,-0.0458 -0.0516,-0.08 -0.134146,-0.08 -0.299248,0.12581 -0.701687,0.22874 -1.413691,0.33167 -0.02064,0.0686 0,0.2516 0.02064,0.32022 0.55722,0.0686 0.670729,0.1258 0.670729,0.77768 v 2.23014 c 0,0.94923 -0.113509,0.98354 -0.742961,1.04073 -0.06191,0.0686 -0.06191,0.30879 0,0.37741 0.433393,-0.0115 0.701686,-0.0229 1.155717,-0.0229 0.443713,0 0.701687,0.0115 1.1454,0.0229 0.06191,-0.0686 0.06191,-0.30879 0,-0.37741 -0.629453,-0.0458 -0.742962,-0.0915 -0.742962,-1.04073" /><path
       id="path3536"
       d="m 45.443007,145.94457 c 0,0.2173 -0.02064,0.3088 -0.165103,0.44604 -0.381799,0.36596 -0.712005,0.54895 -0.969977,0.54895 -0.557221,0 -1.13508,-0.67476 -1.13508,-2.10433 0,-0.82344 0.144464,-1.2809 0.299248,-1.52106 0.319886,-0.53753 0.753281,-0.57183 0.959658,-0.57183 0.371481,0 0.629455,0.14867 0.835832,0.41171 0.144465,0.18298 0.175422,0.26304 0.175422,0.61757 v 2.17295 m -0.113508,0.84631 c 0.04127,-0.0458 0.123827,-0.0686 0.123827,0.0115 0,0.27448 0.113508,0.67476 0.113508,0.67476 0.08255,0.0343 0.113507,0.0228 0.196059,0 0.227016,-0.20586 0.619135,-0.3774 1.248589,-0.45747 0.06191,-0.0686 0.06191,-0.24016 0,-0.30878 -0.66041,-0.0572 -0.753281,-0.27448 -0.753281,-0.83488 v -5.18077 c 0,-0.74337 0.04127,-1.20083 0.04127,-1.20083 0,-0.0801 -0.04127,-0.11437 -0.134145,-0.11437 -0.257973,0.11437 -1.031891,0.27447 -1.444648,0.30878 -0.02064,0.0915 0,0.27449 0.06191,0.34311 0.536582,0.0343 0.66041,-0.0229 0.66041,0.93779 v 1.46389 c 0,0.08 -0.02064,0.10296 -0.09287,0.10296 -0.04127,0 -0.464351,-0.19442 -0.804876,-0.19442 -0.681047,0 -1.13508,0.2516 -1.547836,0.68619 -0.443713,0.49178 -0.712005,1.16653 -0.712005,2.01284 0,1.40669 0.639774,2.43599 1.754215,2.43599 0.402437,0 0.784238,-0.22873 1.289864,-0.6862" /><path
       id="path3538"
       d="m 47.634719,140.5122 c 0,0.29735 0.247654,0.5947 0.495307,0.5947 0.288929,0 0.536584,-0.29735 0.536584,-0.54896 0,-0.27447 -0.216697,-0.59469 -0.495307,-0.59469 -0.247654,0 -0.536584,0.27447 -0.536584,0.54895 m 0.93902,5.45525 v -2.27588 c 0,-0.57183 0.04127,-1.30377 0.04127,-1.30377 0,-0.0458 -0.0516,-0.08 -0.134145,-0.08 -0.299249,0.1258 -0.701687,0.22873 -1.413691,0.33166 -0.02064,0.0686 0,0.2516 0.02064,0.32022 0.557221,0.0686 0.670728,0.1258 0.670728,0.77769 v 2.23013 c 0,0.94924 -0.113508,0.98354 -0.742961,1.04073 -0.06191,0.0686 -0.06191,0.30879 0,0.37741 0.433394,-0.0115 0.701686,-0.0229 1.155719,-0.0229 0.443712,0 0.701686,0.0115 1.145398,0.0229 0.06191,-0.0686 0.06191,-0.30879 0,-0.37741 -0.629453,-0.0458 -0.742962,-0.0915 -0.742962,-1.04073" /><path
       id="path3540"
       d="m 50.039263,140.5122 c 0,0.29735 0.247653,0.5947 0.495307,0.5947 0.288929,0 0.536584,-0.29735 0.536584,-0.54896 0,-0.27447 -0.216698,-0.59469 -0.495309,-0.59469 -0.247652,0 -0.536582,0.27447 -0.536582,0.54895 m 0.93902,5.45525 v -2.27588 c 0,-0.57183 0.04127,-1.30377 0.04127,-1.30377 0,-0.0458 -0.0516,-0.08 -0.134146,-0.08 -0.299248,0.1258 -0.701687,0.22873 -1.41369,0.33166 -0.02064,0.0686 0,0.2516 0.02064,0.32022 0.55722,0.0686 0.670729,0.1258 0.670729,0.77769 v 2.23013 c 0,0.94924 -0.113509,0.98354 -0.742961,1.04073 -0.06191,0.0686 -0.06191,0.30879 0,0.37741 0.433393,-0.0115 0.701686,-0.0229 1.155717,-0.0229 0.443713,0 0.701687,0.0115 1.1454,0.0229 0.06191,-0.0686 0.06191,-0.30879 0,-0.37741 -0.629453,-0.0458 -0.742962,-0.0915 -0.742962,-1.04073" /><path
       id="path3542"
       d="m 53.661434,149.19256 c 0.154783,-0.30879 0.288929,-0.64045 0.423075,-0.98355 0.825512,-2.19581 1.279545,-3.38522 1.826448,-4.66612 0.144464,-0.33165 0.454032,-0.69763 0.835831,-0.73194 0.06191,-0.0686 0.06191,-0.30878 0,-0.3774 -0.257973,0.0115 -0.443713,0.0228 -0.732642,0.0228 -0.361162,0 -0.557222,-0.0115 -0.939021,-0.0228 -0.06191,0.0686 -0.06191,0.30879 0,0.3774 0.319885,0.0343 0.650091,0.10296 0.495307,0.51465 l -1.031891,2.61897 c -0.07223,0.19443 -0.154784,0.2173 -0.247654,-0.0115 l -0.908064,-2.37881 c -0.18574,-0.48033 -0.299247,-0.6862 0.330206,-0.74338 0.06191,-0.0686 0.06191,-0.30878 0,-0.3774 -0.3818,0.0115 -0.794557,0.0228 -1.166038,0.0228 -0.350842,0 -0.629453,-0.0115 -0.835831,-0.0228 -0.06191,0.0686 -0.06191,0.30878 0,0.3774 0.454031,0.0458 0.536584,0.13724 0.815194,0.85774 l 1.166037,3.00782 c 0.09287,0.24017 0.247653,0.75481 0.144464,1.07504 -0.113508,0.38884 -0.247654,0.69764 -0.402437,1.05217 -0.113508,0.22873 -0.257974,0.33166 -0.515946,0.33166 -0.144464,0 -0.18574,-0.0343 -0.299248,-0.0343 -0.299249,0 -0.454033,0.3431 -0.454033,0.49177 0,0.24017 0.206379,0.42316 0.484989,0.42316 0.216697,0 0.629455,-0.0915 1.000935,-0.82344 h 0.01032" /><path
       id="path3544"
       d="m 59.502657,144.69799 v 1.52107 c 0,0.14867 -0.06191,0.22872 -0.144466,0.29734 -0.26829,0.24017 -0.619134,0.49178 -0.908063,0.49178 -0.515946,0 -0.742962,-0.45747 -0.742962,-0.812 0,-0.51464 0.216698,-1.0293 0.980297,-1.25802 l 0.815194,-0.24017 m 0,2.11576 c 0.06191,0.24017 0.237335,0.66333 0.794555,0.66333 0.505626,0 0.877108,-0.45747 0.877108,-0.51464 0,-0.0801 -0.09287,-0.19443 -0.134145,-0.19443 -0.06191,0 -0.10319,0.18298 -0.319887,0.18298 -0.402437,0 -0.412757,-0.44602 -0.412757,-0.97211 v -1.70405 c 0,-1.62399 -0.804875,-1.93278 -1.558155,-1.93278 -0.846149,0 -1.70262,0.65189 -1.70262,1.26946 0,0.27449 0.123827,0.40028 0.361161,0.40028 0.299249,0 0.454033,-0.22873 0.454033,-0.37741 0,-0.08 -0.01032,-0.16011 -0.03096,-0.20585 -0.01032,-0.0343 -0.02064,-0.10296 -0.02064,-0.22874 0,-0.35453 0.464352,-0.48033 0.85647,-0.48033 0.350842,0 0.835832,0.19442 0.835832,1.48675 0,0.08 -0.03096,0.12581 -0.06191,0.13724 l -0.887426,0.24017 c -0.990615,0.27448 -1.70262,0.88062 -1.70262,1.6583 0,0.9035 0.577859,1.23516 1.300183,1.23516 0.474669,0 0.670729,-0.0915 1.12476,-0.48033 l 0.206379,-0.183 h 0.02064" /><path
       id="path3546"
       d="m 63.424961,142.45641 c -0.144465,0 -0.18574,0.13724 -0.18574,0.22874 v 0.14867 c 0,0.0572 0.01032,0.0686 0.0516,0.0686 h 0.608816 v 3.44241 c 0,0.812 0.319886,1.13223 0.794556,1.13223 0.474669,0 0.990615,-0.25161 1.393053,-0.75482 -0.02064,-0.11436 -0.08255,-0.18298 -0.18574,-0.19441 -0.268292,0.22872 -0.57786,0.32021 -0.846151,0.32021 -0.27861,0 -0.340524,-0.34309 -0.340524,-1.05216 v -2.89346 h 1.073167 c 0.103188,0 0.247653,-0.0458 0.247653,-0.14867 v -0.22873 c 0,-0.0458 -0.03096,-0.0686 -0.08255,-0.0686 h -1.238269 v -0.44602 c 0,-0.74338 0.04127,-1.20084 0.04127,-1.20084 0,-0.08 -0.04127,-0.11437 -0.134146,-0.11437 l -0.598496,0.30879 c -0.06191,0.0343 -0.154784,0.0572 -0.144466,0.13724 0.02064,0.26304 0.02064,0.36597 0.02064,1.3152 h -0.47467" /><path
       id="path3548"
       d="m 66.66453,139.90606 c -0.309567,0 -0.454032,0.20586 -0.454032,0.38884 0,0.18299 0.0516,0.43459 0.47467,0.43459 0.08255,0 0.144464,0.0915 0.144464,0.24017 0,0.26304 -0.216698,0.6862 -0.650091,0.78913 l 0.0516,0.19441 c 0.722323,-0.0915 1.052529,-0.80055 1.052529,-1.21226 0,-0.41173 -0.227017,-0.83488 -0.619135,-0.83488" /><path
       id="path3550"
       d="m 69.784136,139.68876 -0.784237,1.36096 c -0.08255,0.14867 -0.113508,0.19442 -0.113508,0.32022 0,0.08 0.07223,0.14868 0.144464,0.14868 0.07223,0 0.154784,-0.0458 0.309568,-0.2173 l 1.186675,-1.24659 -0.03096,-0.12579 c -0.237335,-0.25161 -0.505626,-0.26305 -0.56754,-0.26305 -0.0516,0 -0.113508,0.0115 -0.144465,0.0229 m 0.505627,5.00923 v 1.52107 c 0,0.14867 -0.06191,0.22872 -0.144465,0.29734 -0.268291,0.24017 -0.619134,0.49178 -0.908064,0.49178 -0.515945,0 -0.742961,-0.45747 -0.742961,-0.812 0,-0.51464 0.216697,-1.0293 0.980296,-1.25802 l 0.815194,-0.24017 m 0,2.11576 c 0.06191,0.24017 0.237335,0.66333 0.794556,0.66333 0.505627,0 0.877108,-0.45747 0.877108,-0.51464 0,-0.0801 -0.09287,-0.19443 -0.134146,-0.19443 -0.06191,0 -0.10319,0.18298 -0.319887,0.18298 -0.402436,0 -0.412756,-0.44602 -0.412756,-0.97211 v -1.70405 c 0,-1.62399 -0.804876,-1.93278 -1.558156,-1.93278 -0.846149,0 -1.70262,0.65188 -1.70262,1.26946 0,0.27448 0.123827,0.40028 0.361162,0.40028 0.299248,0 0.454032,-0.22874 0.454032,-0.37741 0,-0.08 -0.01032,-0.16011 -0.03096,-0.20585 -0.01032,-0.0343 -0.02064,-0.10296 -0.02064,-0.22874 0,-0.35453 0.464352,-0.48033 0.85647,-0.48033 0.350843,0 0.835832,0.19442 0.835832,1.48675 0,0.08 -0.03096,0.12581 -0.06191,0.13724 l -0.887427,0.24017 c -0.990615,0.27448 -1.70262,0.88062 -1.70262,1.6583 0,0.9035 0.57786,1.23516 1.300183,1.23516 0.474669,0 0.670729,-0.0915 1.124761,-0.48034 l 0.206378,-0.18299 h 0.02064" /><path
       id="path3552"
       d="m 74.608945,144.69799 v 1.52107 c 0,0.14867 -0.06191,0.22872 -0.144464,0.29734 -0.268292,0.24017 -0.619136,0.49178 -0.908065,0.49178 -0.515945,0 -0.742961,-0.45747 -0.742961,-0.812 0,-0.51464 0.216697,-1.0293 0.980296,-1.25802 l 0.815194,-0.24017 m 0,2.11576 c 0.06191,0.24017 0.237335,0.66333 0.794556,0.66333 0.505627,0 0.877108,-0.45747 0.877108,-0.51464 0,-0.0801 -0.09287,-0.19443 -0.134146,-0.19443 -0.06191,0 -0.10319,0.18298 -0.319887,0.18298 -0.402436,0 -0.412756,-0.44602 -0.412756,-0.97211 v -1.70405 c 0,-1.62399 -0.804876,-1.93278 -1.558156,-1.93278 -0.846149,0 -1.70262,0.65189 -1.70262,1.26946 0,0.27449 0.123827,0.40028 0.361162,0.40028 0.299248,0 0.454032,-0.22873 0.454032,-0.37741 0,-0.08 -0.01032,-0.16011 -0.03096,-0.20585 -0.01032,-0.0343 -0.02064,-0.10296 -0.02064,-0.22874 0,-0.35453 0.464352,-0.48033 0.85647,-0.48033 0.350843,0 0.835832,0.19442 0.835832,1.48675 0,0.08 -0.03096,0.12581 -0.06191,0.13724 l -0.887427,0.24017 c -0.990614,0.27448 -1.70262,0.88062 -1.70262,1.6583 0,0.9035 0.57786,1.23516 1.300183,1.23516 0.474669,0 0.670729,-0.0915 1.124761,-0.48033 l 0.206378,-0.183 h 0.02064" /><path
       id="path3554"
       d="m 79.464717,145.94457 c 0,0.2173 -0.02064,0.3088 -0.165102,0.44604 -0.381799,0.36596 -0.712005,0.54895 -0.969977,0.54895 -0.557221,0 -1.13508,-0.67476 -1.13508,-2.10433 0,-0.82344 0.144464,-1.2809 0.299248,-1.52106 0.319885,-0.53753 0.753281,-0.57183 0.959658,-0.57183 0.37148,0 0.629455,0.14867 0.835832,0.41171 0.144465,0.18298 0.175421,0.26304 0.175421,0.61757 v 2.17295 m -0.113508,0.84631 c 0.04127,-0.0458 0.123828,-0.0686 0.123828,0.0115 0,0.27448 0.113507,0.67476 0.113507,0.67476 0.08255,0.0343 0.113508,0.0228 0.19606,0 0.227015,-0.20586 0.619135,-0.3774 1.248588,-0.45747 0.06191,-0.0686 0.06191,-0.24016 0,-0.30878 -0.660409,-0.0572 -0.75328,-0.27448 -0.75328,-0.83488 v -5.18077 c 0,-0.74337 0.04127,-1.20083 0.04127,-1.20083 0,-0.0801 -0.04127,-0.11437 -0.134146,-0.11437 -0.257972,0.11437 -1.031891,0.27447 -1.444647,0.30878 -0.02064,0.0915 0,0.27449 0.06191,0.34311 0.536583,0.0343 0.66041,-0.0229 0.66041,0.93779 v 1.46389 c 0,0.08 -0.02064,0.10296 -0.09287,0.10296 -0.04127,0 -0.464351,-0.19442 -0.804876,-0.19442 -0.681047,0 -1.13508,0.2516 -1.547836,0.68619 -0.443713,0.49178 -0.712005,1.16653 -0.712005,2.01284 0,1.40669 0.639774,2.43599 1.754215,2.43599 0.402437,0 0.784238,-0.22873 1.289863,-0.6862" /><path
       id="path3556"
       d="m 81.150799,145.01821 c 0,1.16653 0.712007,2.45887 2.166971,2.45887 1.537516,0 2.187609,-1.41814 2.187609,-2.5618 0,-1.1894 -0.567542,-2.57323 -2.166971,-2.57323 -1.393051,0 -2.187609,1.22372 -2.187609,2.67616 m 2.074101,-2.29875 c 0.887426,0 1.393053,0.88062 1.393053,2.5618 0,1.50962 -0.629453,1.81841 -1.114442,1.81841 -1.073165,0 -1.465285,-1.46389 -1.465285,-2.3445 0,-0.99498 0.319887,-2.03571 1.186674,-2.03571" /><path
       id="path3558"
       d="m 86.034299,145.01821 c 0,1.16653 0.712006,2.45887 2.166971,2.45887 1.537516,0 2.187609,-1.41814 2.187609,-2.5618 0,-1.1894 -0.567541,-2.57323 -2.166971,-2.57323 -1.393052,0 -2.187609,1.22372 -2.187609,2.67616 m 2.074101,-2.29875 c 0.887425,0 1.393053,0.88062 1.393053,2.5618 0,1.50962 -0.629454,1.81841 -1.114443,1.81841 -1.073165,0 -1.465285,-1.46389 -1.465285,-2.3445 0,-0.99498 0.319887,-2.03571 1.186675,-2.03571" /><path
       id="path3560"
       d="m 94.495637,143.26841 c -0.03096,0.0458 -0.103189,0.16012 -0.103189,0 0,-0.34309 0.0516,-0.86917 0.0516,-0.86917 0,-0.0572 -0.04127,-0.0915 -0.123826,-0.0915 -0.28893,0.12581 -0.712006,0.22874 -1.42401,0.33167 -0.02064,0.0686 0,0.2516 0.02064,0.32022 0.55722,0.0572 0.670728,0.11437 0.670728,0.77768 v 2.23014 c 0,0.9378 -0.103189,0.98354 -0.722323,1.04073 -0.06191,0.0686 -0.06191,0.30879 0,0.3774 0.423075,-0.0115 0.691368,-0.0228 1.13508,-0.0228 0.402437,0 0.588179,0.0115 1.021574,0.0228 0.06193,-0.0686 0.06193,-0.30878 0,-0.3774 -0.526265,-0.0572 -0.619136,-0.10296 -0.619136,-1.04073 v -1.8756 c 0,-0.24016 0.09287,-0.37741 0.175421,-0.48034 0.392118,-0.42315 0.794562,-0.67476 1.196998,-0.67476 0.206381,0 0.423077,0.14868 0.546903,0.41173 0.103186,0.22872 0.123827,0.53752 0.123827,0.88061 v 1.73836 c 0,0.9378 -0.103195,0.98354 -0.639773,1.04073 -0.05158,0.0686 -0.05158,0.30879 0,0.3774 0.433392,-0.0115 0.639773,-0.0228 1.052524,-0.0228 0.423077,0 0.650098,0.0115 1.093806,0.0228 0.05158,-0.0686 0.05158,-0.30878 0,-0.3774 -0.57786,-0.0572 -0.691361,-0.10296 -0.691361,-1.04073 v -1.70405 c 0,-0.62901 -0.04132,-1.17797 -0.278619,-1.53251 -0.175414,-0.2516 -0.495305,-0.38884 -0.856469,-0.38884 -0.505621,0 -1.000926,0.14868 -1.630387,0.92636" /><path
       id="path3562"
       d="m 98.651002,140.5122 c 0,0.29735 0.247662,0.5947 0.495315,0.5947 0.288925,0 0.536578,-0.29735 0.536578,-0.54896 0,-0.27447 -0.216696,-0.59469 -0.495306,-0.59469 -0.247653,0 -0.536587,0.27447 -0.536587,0.54895 m 0.939023,5.45525 v -2.27588 c 0,-0.57183 0.04132,-1.30377 0.04132,-1.30377 0,-0.0458 -0.05158,-0.08 -0.134152,-0.08 -0.29925,0.1258 -0.701686,0.22873 -1.413688,0.33166 -0.02061,0.0686 0,0.2516 0.02061,0.32022 0.557219,0.0686 0.670729,0.1258 0.670729,0.77769 v 2.23013 c 0,0.94924 -0.11351,0.98354 -0.742967,1.04073 -0.06193,0.0686 -0.06193,0.30879 0,0.37741 0.433392,-0.0115 0.701685,-0.0229 1.155719,-0.0229 0.443717,0 0.701686,0.0115 1.145404,0.0229 0.0619,-0.0686 0.0619,-0.30879 0,-0.37741 -0.629458,-0.0458 -0.742969,-0.0915 -0.742969,-1.04073" /><path
       id="path3564"
       d="m 103.19712,145.96745 c 0,0.94923 -0.11351,0.99499 -0.69137,1.04073 -0.0619,0.0686 -0.0619,0.30879 0,0.3774 0.43339,-0.0115 0.67073,-0.0228 1.10412,-0.0228 0.36116,0 0.49532,0.0115 0.93902,0.0228 0.0619,-0.0686 0.0619,-0.30878 0,-0.3774 -0.42307,-0.0458 -0.53657,-0.0915 -0.53657,-1.04073 v -1.02929 c 0.23732,0.0115 0.38179,0.0915 0.58817,0.41171 l 0.75328,1.17797 c 0.20638,0.33166 0.23733,0.46891 0.23733,0.61758 v 0.18298 c 0,0.0343 0.0104,0.0572 0.0413,0.0572 0.20637,-0.0115 0.40244,-0.0228 0.712,-0.0228 0.31989,0 0.53659,0.0115 0.84616,0.0228 0.0619,-0.0686 0.0619,-0.30878 0,-0.3774 -0.35085,-0.0458 -0.66042,-0.0915 -0.88743,-0.48034 l -1.20732,-1.97853 c -0.031,-0.0458 -0.0516,-0.10296 -0.0516,-0.16012 0,-0.0458 0.0104,-0.08 0.0413,-0.11436 l 0.78423,-0.96067 c 0.29925,-0.34309 0.61914,-0.48034 1.13508,-0.50321 0.0619,-0.0686 0.0619,-0.30878 0,-0.3774 -0.3818,0.0115 -0.52627,0.0228 -0.89775,0.0228 -0.39212,0 -0.56753,-0.0115 -0.94934,-0.0228 -0.0619,0.0686 -0.0619,0.30878 0,0.3774 0.61914,0.0343 0.28894,0.4689 0.18574,0.58327 -0.5469,0.66332 -1.06285,1.16653 -1.33113,1.25802 v -3.95706 c 0,-0.74338 0.0412,-1.20083 0.0412,-1.20083 0,-0.0801 -0.0412,-0.11438 -0.13415,-0.11438 -0.25797,0.11438 -1.03189,0.27448 -1.44465,0.30879 -0.0206,0.0915 0,0.27449 0.0619,0.34311 0.53659,0.0343 0.66042,-0.0229 0.66042,0.93779 v 4.99779" /><path
       id="path3566"
       d="m 109.61651,139.68876 -0.78423,1.36096 c -0.0825,0.14867 -0.11351,0.19442 -0.11351,0.32022 0,0.08 0.0722,0.14868 0.14447,0.14868 0.0722,0 0.15478,-0.0458 0.30957,-0.2173 l 1.18667,-1.24659 -0.031,-0.12579 c -0.23734,-0.25161 -0.50564,-0.26305 -0.56755,-0.26305 -0.0516,0 -0.1135,0.0115 -0.14447,0.0229 m -2.36302,5.32945 c 0,1.16653 0.71201,2.45887 2.16697,2.45887 1.53751,0 2.18761,-1.41814 2.18761,-2.5618 0,-1.1894 -0.56754,-2.57323 -2.16697,-2.57323 -1.39306,0 -2.18761,1.22371 -2.18761,2.67616 m 2.0741,-2.29875 c 0.88742,0 1.39306,0.88061 1.39306,2.56179 0,1.50963 -0.62946,1.81842 -1.11445,1.81842 -1.07317,0 -1.46529,-1.46389 -1.46529,-2.3445 0,-0.99498 0.31989,-2.03571 1.18668,-2.03571" /><path
       id="path3568"
       d="m 112.61359,145.96745 c 0,0.94923 -0.11351,1.00642 -0.74296,1.04073 -0.0619,0.0686 -0.0619,0.30879 0,0.3774 0.4334,-0.0115 0.70169,-0.0228 1.15572,-0.0228 0.44371,0 0.70168,0.0115 1.1454,0.0228 0.0619,-0.0686 0.0619,-0.30878 0,-0.3774 -0.62946,-0.0343 -0.74296,-0.0915 -0.74296,-1.04073 v -5.27227 c 0,-0.74338 0.0412,-1.20083 0.0412,-1.20083 0,-0.0801 -0.0412,-0.11438 -0.13416,-0.11438 -0.25796,0.11438 -1.03188,0.27448 -1.44464,0.30879 -0.0206,0.0915 0,0.27449 0.0619,0.34311 0.53659,0.0343 0.66042,-0.0229 0.66042,0.93779 v 4.99779" /><path
       id="path3570"
       d="m 115.85591,143.26841 c -0.031,0.0458 -0.1032,0.16012 -0.1032,0 0,-0.34309 0.0516,-0.86917 0.0516,-0.86917 0,-0.0572 -0.0412,-0.0915 -0.12383,-0.0915 -0.28892,0.12581 -0.712,0.22874 -1.42401,0.33167 -0.0206,0.0686 0,0.2516 0.0206,0.32022 0.55722,0.0572 0.67073,0.11437 0.67073,0.77768 v 2.23014 c 0,0.9378 -0.10318,0.98354 -0.72232,1.04073 -0.0619,0.0686 -0.0619,0.30879 0,0.3774 0.42307,-0.0115 0.69137,-0.0228 1.13508,-0.0228 0.40244,0 0.58818,0.0115 1.02157,0.0228 0.0619,-0.0686 0.0619,-0.30878 0,-0.3774 -0.52626,-0.0572 -0.61913,-0.10296 -0.61913,-1.04073 v -1.8756 c 0,-0.24016 0.0929,-0.37741 0.17541,-0.48034 0.39212,-0.42315 0.79457,-0.67476 1.197,-0.67476 0.20638,0 0.42308,0.14868 0.54691,0.41173 0.10318,0.22872 0.12382,0.53752 0.12382,0.88061 v 1.73836 c 0,0.9378 -0.10319,0.98354 -0.63977,1.04073 -0.0516,0.0686 -0.0516,0.30879 0,0.3774 0.43339,-0.0115 0.63977,-0.0228 1.05252,-0.0228 0.42308,0 0.6501,0.0115 1.09381,0.0228 0.0516,-0.0686 0.0516,-0.30878 0,-0.3774 -0.57786,-0.0572 -0.69137,-0.10296 -0.69137,-1.04073 v -1.70405 c 0,-0.62901 -0.0413,-1.17797 -0.27861,-1.53251 -0.17541,-0.2516 -0.4953,-0.38884 -0.85647,-0.38884 -0.50562,0 -1.00093,0.14868 -1.63038,0.92636" /><path
       id="path3572"
       d="m 121.86868,139.68876 -0.78424,1.36096 c -0.0825,0.14867 -0.11351,0.19442 -0.11351,0.32022 0,0.08 0.0722,0.14868 0.14446,0.14868 0.0722,0 0.15479,-0.0458 0.30958,-0.2173 l 1.18666,-1.24659 -0.031,-0.12579 c -0.23733,-0.25161 -0.50562,-0.26305 -0.56754,-0.26305 -0.0516,0 -0.11351,0.0115 -0.14446,0.0229 m -1.50656,4.44883 c 0.19605,-1.29233 0.91838,-1.39526 1.16603,-1.39526 0.39212,0 0.85647,0.24017 0.85647,1.20084 0,0.10296 -0.0413,0.16011 -0.15478,0.16011 l -1.86772,0.0343 m 2.70355,2.16152 c -0.3818,0.43459 -0.68105,0.61757 -1.27955,0.61757 -0.37148,0 -0.80487,-0.24016 -1.12475,-0.82343 -0.20638,-0.3774 -0.33021,-0.90349 -0.33021,-1.56682 l 2.74483,0.0229 c 0.12383,0 0.19606,-0.0686 0.19606,-0.19443 0,-0.96066 -0.30957,-1.98995 -1.7439,-1.98995 -0.89774,0 -2.06378,0.94923 -2.06378,2.68759 0,0.64045 0.14447,1.25802 0.48499,1.69261 0.35085,0.45747 0.83584,0.73195 1.57879,0.73195 0.78424,0 1.34146,-0.40028 1.75421,-0.99499 -0.031,-0.11436 -0.0929,-0.17155 -0.21669,-0.18298" /><path
       id="path3574"
       d="m 125.02424,144.10329 c 0,-0.2516 0.0929,-0.38885 0.17542,-0.49178 0.39212,-0.42315 0.84615,-0.67476 1.25891,-0.67476 0.20637,0 0.42308,0.16011 0.54691,0.41172 0.10318,0.22873 0.12382,0.53753 0.12382,0.88062 v 1.73836 c 0,0.9378 -0.10319,0.98354 -0.63977,1.04073 -0.0516,0.0686 -0.0516,0.30879 0,0.3774 0.43339,-0.0115 0.63977,-0.0228 1.05252,-0.0228 0.42308,0 0.6501,0.0115 1.09381,0.0228 0.0516,-0.0686 0.0516,-0.30878 0,-0.3774 -0.57786,-0.0572 -0.69137,-0.10296 -0.69137,-1.04073 v -1.70405 c 0,-0.62902 -0.0413,-1.17797 -0.27861,-1.53251 -0.17541,-0.2516 -0.49531,-0.38884 -0.85647,-0.38884 -0.51595,0 -1.06285,0.14867 -1.6923,0.92636 -0.0413,0.0458 -0.10319,0.16012 -0.10319,0 l 0.0104,-2.57323 c 0,-0.74338 0.0413,-1.20083 0.0413,-1.20083 0,-0.0801 -0.0413,-0.11438 -0.13414,-0.11438 -0.25798,0.11438 -1.03189,0.27448 -1.44465,0.30879 -0.0206,0.0915 0,0.27449 0.0619,0.34311 0.53659,0.0343 0.66041,-0.0229 0.66041,0.93779 v 4.99779 c 0,0.94923 -0.12382,0.99499 -0.72232,1.04073 -0.0619,0.0686 -0.0619,0.30879 0,0.3774 0.42307,-0.0115 0.69137,-0.0228 1.13507,-0.0228 0.40245,0 0.57786,0.0115 1.01127,0.0228 0.0619,-0.0686 0.0619,-0.30878 0,-0.3774 -0.51595,-0.0458 -0.60882,-0.0915 -0.60882,-1.04073 v -1.86416" /><path
       id="path3576"
       d="m 131.17213,139.68876 -0.78424,1.36096 c -0.0825,0.14867 -0.11351,0.19442 -0.11351,0.32022 0,0.08 0.0722,0.14868 0.14447,0.14868 0.0722,0 0.15478,-0.0458 0.30957,-0.2173 l 1.18667,-1.24659 -0.031,-0.12579 c -0.23734,-0.25161 -0.50563,-0.26305 -0.56755,-0.26305 -0.0516,0 -0.11351,0.0115 -0.14446,0.0229 m -1.50656,4.44883 c 0.19605,-1.29233 0.91838,-1.39526 1.16603,-1.39526 0.39212,0 0.85647,0.24017 0.85647,1.20084 0,0.10296 -0.0412,0.16011 -0.15478,0.16011 l -1.86772,0.0343 m 2.70356,2.16152 c -0.38181,0.43459 -0.68106,0.61757 -1.27955,0.61757 -0.37149,0 -0.80488,-0.24016 -1.12476,-0.82343 -0.20638,-0.3774 -0.33021,-0.90349 -0.33021,-1.56682 l 2.74483,0.0229 c 0.12383,0 0.19606,-0.0686 0.19606,-0.19443 0,-0.96066 -0.30957,-1.98995 -1.7439,-1.98995 -0.89774,0 -2.06377,0.94923 -2.06377,2.68759 0,0.64045 0.14445,1.25802 0.48498,1.69261 0.35085,0.45747 0.83583,0.73195 1.57879,0.73195 0.78424,0 1.34146,-0.40028 1.75422,-0.99499 -0.031,-0.11436 -0.0929,-0.17155 -0.21669,-0.18298" /></g></svg>
