<?xml version="1.0" encoding="UTF-8" standalone="no"?>
<svg
   xmlns:dc="http://purl.org/dc/elements/1.1/"
   xmlns:cc="http://creativecommons.org/ns#"
   xmlns:rdf="http://www.w3.org/1999/02/22-rdf-syntax-ns#"
   xmlns:svg="http://www.w3.org/2000/svg"
   xmlns="http://www.w3.org/2000/svg"
   id="svg3857"
   xml:space="preserve"
   enable-background="new 0 0 135 155"
   viewBox="0 0 127.21645 12.168037"
   height="12.168037"
   width="127.21645"
   y="0px"
   x="0px"
   version="1.1"><metadata
   id="metadata4852"><rdf:RDF><cc:Work
       rdf:about=""><dc:format>image/svg+xml</dc:format><dc:type
         rdf:resource="http://purl.org/dc/dcmitype/StillImage" /><dc:title /></cc:Work></rdf:RDF></metadata><defs
   id="defs4850"><radialGradient
     id="SVGID_1_"
     cx="-145.4702"
     cy="87.823196"
     r="68.686401"
     gradientTransform="matrix(1,0,0,-1,192.3999,143.0996)"
     gradientUnits="userSpaceOnUse">
		<stop
   offset="0"
   style="stop-color:#FFFFFF"
   id="stop3922" />
		<stop
   offset="0.4835"
   style="stop-color:#EAEAEB"
   id="stop3924" />
		<stop
   offset="0.9451"
   style="stop-color:#A9ABAE"
   id="stop3926" />
		<stop
   offset="1"
   style="stop-color:#999B9E"
   id="stop3928" />
	</radialGradient><linearGradient
     id="SVGID_2_"
     gradientUnits="userSpaceOnUse"
     x1="66.232399"
     y1="24.481001"
     x2="112.7331"
     y2="97.232101">
		<stop
   offset="0"
   style="stop-color:#8A8A8A"
   id="stop3935" />
		<stop
   offset="0.5687"
   style="stop-color:#606060"
   id="stop3937" />
		<stop
   offset="0.5914"
   style="stop-color:#FFFFFF"
   id="stop3939" />
		<stop
   offset="0.6116"
   style="stop-color:#585858"
   id="stop3941" />
		<stop
   offset="1"
   style="stop-color:#303030"
   id="stop3943" />
	</linearGradient><linearGradient
     id="SVGID_5_"
     gradientUnits="userSpaceOnUse"
     x1="54.715801"
     y1="65.136703"
     x2="83.798798"
     y2="65.136703">
		<stop
   offset="0"
   style="stop-color:#231F20"
   id="stop3964" />
		<stop
   offset="1"
   style="stop-color:#474747"
   id="stop3966" />
	</linearGradient><linearGradient
     id="SVGID_6_"
     gradientUnits="userSpaceOnUse"
     x1="-123.5898"
     y1="119.8076"
     x2="-94.069099"
     y2="29.9035"
     gradientTransform="matrix(1,0,0,-1,192.3999,143.0996)">
		<stop
   offset="0"
   style="stop-color:#FFFFFF"
   id="stop3997" />
		<stop
   offset="0.0094"
   style="stop-color:#FCFCFC"
   id="stop3999" />
		<stop
   offset="0.0655"
   style="stop-color:#EEEEEE"
   id="stop4001" />
		<stop
   offset="0.1342"
   style="stop-color:#E5E5E5"
   id="stop4003" />
		<stop
   offset="0.2515"
   style="stop-color:#E3E3E3"
   id="stop4005" />
		<stop
   offset="0.3357"
   style="stop-color:#8A8A8A"
   id="stop4007" />
		<stop
   offset="0.4422"
   style="stop-color:#B8B8B8"
   id="stop4009" />
		<stop
   offset="1"
   style="stop-color:#3B3B3B"
   id="stop4011" />
	</linearGradient><linearGradient
     id="SVGID_7_"
     gradientUnits="userSpaceOnUse"
     x1="70.421898"
     y1="26.876499"
     x2="119.5471"
     y2="87.626701">
		<stop
   offset="0"
   style="stop-color:#EFF0F0"
   id="stop4016" />
		<stop
   offset="0.5914"
   style="stop-color:#F0F1F2"
   id="stop4018" />
		<stop
   offset="0.599"
   style="stop-color:#787878"
   id="stop4020" />
		<stop
   offset="0.6456"
   style="stop-color:#EEEFF0"
   id="stop4022" />
		<stop
   offset="1"
   style="stop-color:#D8D9DB"
   id="stop4024" />
	</linearGradient><linearGradient
     id="SVGID_8_"
     gradientUnits="userSpaceOnUse"
     x1="-117.166"
     y1="122.1328"
     x2="-87.569702"
     y2="31.998501"
     gradientTransform="matrix(1,0,0,-1,192.3999,143.0996)">
		<stop
   offset="0"
   style="stop-color:#FFFFFF"
   id="stop4029" />
		<stop
   offset="1"
   style="stop-color:#E4E5E6"
   id="stop4031" />
	</linearGradient><linearGradient
     id="SVGID_9_"
     gradientUnits="userSpaceOnUse"
     x1="54.653301"
     y1="25.2764"
     x2="79.683601"
     y2="106.3903">
		<stop
   offset="0"
   style="stop-color:#FFFFFF"
   id="stop4036" />
		<stop
   offset="0.7473"
   style="stop-color:#F9F9F9"
   id="stop4038" />
		<stop
   offset="1"
   style="stop-color:#D5D7D8"
   id="stop4040" />
	</linearGradient><linearGradient
     id="SVGID_10_"
     gradientUnits="userSpaceOnUse"
     x1="-115.3369"
     y1="119.6328"
     x2="-134.85719"
     y2="24.6462"
     gradientTransform="matrix(1,0,0,-1,192.3999,143.0996)">
		<stop
   offset="0"
   style="stop-color:#FFFFFF"
   id="stop4061" />
		<stop
   offset="1"
   style="stop-color:#E4E5E6"
   id="stop4063" />
	</linearGradient><linearGradient
     id="SVGID_11_"
     gradientUnits="userSpaceOnUse"
     x1="32.519001"
     y1="33.077099"
     x2="37.2481"
     y2="92.496101">
		<stop
   offset="0.2198"
   style="stop-color:#989A9C"
   id="stop4068" />
		<stop
   offset="0.2527"
   style="stop-color:#FFFFFF"
   id="stop4070" />
	</linearGradient><linearGradient
     id="SVGID_12_"
     gradientUnits="userSpaceOnUse"
     x1="-152.6201"
     y1="126.8398"
     x2="-171.9462"
     y2="32.797901"
     gradientTransform="matrix(1,0,0,-1,192.3999,143.0996)">
		<stop
   offset="0"
   style="stop-color:#FFFFFF"
   id="stop4075" />
		<stop
   offset="1"
   style="stop-color:#E4E5E6"
   id="stop4077" />
	</linearGradient><linearGradient
     id="SVGID_13_"
     gradientUnits="userSpaceOnUse"
     x1="-130.1348"
     y1="35.625"
     x2="-130.14281"
     y2="35.585701"
     gradientTransform="matrix(1,0,0,-1,192.3999,143.0996)">
		<stop
   offset="0"
   style="stop-color:#FFFFFF"
   id="stop4082" />
		<stop
   offset="1"
   style="stop-color:#E4E5E6"
   id="stop4084" />
	</linearGradient><linearGradient
     id="SVGID_14_"
     gradientUnits="userSpaceOnUse"
     x1="-121.1382"
     y1="120.3223"
     x2="-140.54491"
     y2="25.888"
     gradientTransform="matrix(1,0,0,-1,192.3999,143.0996)">
		<stop
   offset="0"
   style="stop-color:#FFFFFF"
   id="stop4093" />
		<stop
   offset="1"
   style="stop-color:#E4E5E6"
   id="stop4095" />
	</linearGradient><linearGradient
     id="SVGID_15_"
     gradientUnits="userSpaceOnUse"
     x1="-135.58591"
     y1="123.3525"
     x2="-155.006"
     y2="28.8524"
     gradientTransform="matrix(1,0,0,-1,192.3999,143.0996)">
		<stop
   offset="0"
   style="stop-color:#FFFFFF"
   id="stop4100" />
		<stop
   offset="1"
   style="stop-color:#E4E5E6"
   id="stop4102" />
	</linearGradient><linearGradient
     id="SVGID_16_"
     gradientUnits="userSpaceOnUse"
     x1="-127.4014"
     y1="121.9365"
     x2="-146.8837"
     y2="27.1346"
     gradientTransform="matrix(1,0,0,-1,192.3999,143.0996)">
		<stop
   offset="0"
   style="stop-color:#FFFFFF"
   id="stop4107" />
		<stop
   offset="1"
   style="stop-color:#E4E5E6"
   id="stop4109" />
	</linearGradient><linearGradient
     id="SVGID_17_"
     gradientUnits="userSpaceOnUse"
     x1="-118.4946"
     y1="124.0039"
     x2="-138.85201"
     y2="24.9438"
     gradientTransform="matrix(1,0,0,-1,192.3999,143.0996)">
		<stop
   offset="0"
   style="stop-color:#FFFFFF"
   id="stop4114" />
		<stop
   offset="1"
   style="stop-color:#E4E5E6"
   id="stop4116" />
	</linearGradient><linearGradient
     id="SVGID_18_"
     gradientUnits="userSpaceOnUse"
     x1="-115.3716"
     y1="119.1758"
     x2="-134.7878"
     y2="24.695299"
     gradientTransform="matrix(1,0,0,-1,192.3999,143.0996)">
		<stop
   offset="0"
   style="stop-color:#FFFFFF"
   id="stop4121" />
		<stop
   offset="1"
   style="stop-color:#E4E5E6"
   id="stop4123" />
	</linearGradient><linearGradient
     id="SVGID_21_"
     gradientUnits="userSpaceOnUse"
     x1="-175.4424"
     y1="83.6045"
     x2="-75.6362"
     y2="83.6045"
     gradientTransform="matrix(1,0,0,-1,192.3999,143.0996)">
		<stop
   offset="0"
   style="stop-color:#555555"
   id="stop4198" />
		<stop
   offset="1"
   style="stop-color:#231F20"
   id="stop4200" />
	</linearGradient><linearGradient
     id="SVGID_22_"
     gradientUnits="userSpaceOnUse"
     x1="-175.14211"
     y1="104.0801"
     x2="-83.541"
     y2="104.0801"
     gradientTransform="matrix(1,0,0,-1,192.3999,143.0996)">
		<stop
   offset="0"
   style="stop-color:#A0A0A0"
   id="stop4205" />
		<stop
   offset="0.0769"
   style="stop-color:#656767"
   id="stop4207" />
		<stop
   offset="1"
   style="stop-color:#717375"
   id="stop4209" />
	</linearGradient><linearGradient
     id="SVGID_23_"
     gradientUnits="userSpaceOnUse"
     x1="-172.3853"
     y1="78.209"
     x2="-172.3853"
     y2="78.209"
     gradientTransform="matrix(1,0,0,-1,192.3999,143.0996)">
		<stop
   offset="0"
   style="stop-color:#FFFFFF"
   id="stop4224" />
		<stop
   offset="0.078"
   style="stop-color:#F4F4F4"
   id="stop4226" />
		<stop
   offset="0.3807"
   style="stop-color:#CECECE"
   id="stop4228" />
		<stop
   offset="0.5396"
   style="stop-color:#BFBFBF"
   id="stop4230" />
		<stop
   offset="0.8357"
   style="stop-color:#7C7C7C"
   id="stop4232" />
		<stop
   offset="0.8996"
   style="stop-color:#A8A8A8"
   id="stop4234" />
		<stop
   offset="0.9093"
   style="stop-color:#9A9A9A"
   id="stop4236" />
		<stop
   offset="0.9327"
   style="stop-color:#7D7D7D"
   id="stop4238" />
		<stop
   offset="0.9558"
   style="stop-color:#686868"
   id="stop4240" />
		<stop
   offset="0.9785"
   style="stop-color:#5B5B5B"
   id="stop4242" />
		<stop
   offset="1"
   style="stop-color:#575757"
   id="stop4244" />
	</linearGradient><linearGradient
     id="SVGID_24_"
     gradientUnits="userSpaceOnUse"
     x1="-175.7173"
     y1="78.449203"
     x2="-67.153198"
     y2="90.476799"
     gradientTransform="matrix(1,0,0,-1,192.3999,143.0996)">
		<stop
   offset="0"
   style="stop-color:#FFFFFF"
   id="stop4249" />
		<stop
   offset="0.078"
   style="stop-color:#F4F4F4"
   id="stop4251" />
		<stop
   offset="0.3807"
   style="stop-color:#CECECE"
   id="stop4253" />
		<stop
   offset="0.5396"
   style="stop-color:#BFBFBF"
   id="stop4255" />
		<stop
   offset="0.8357"
   style="stop-color:#7C7C7C"
   id="stop4257" />
		<stop
   offset="0.8996"
   style="stop-color:#A8A8A8"
   id="stop4259" />
		<stop
   offset="0.9093"
   style="stop-color:#9A9A9A"
   id="stop4261" />
		<stop
   offset="0.9327"
   style="stop-color:#7D7D7D"
   id="stop4263" />
		<stop
   offset="0.9558"
   style="stop-color:#686868"
   id="stop4265" />
		<stop
   offset="0.9785"
   style="stop-color:#5B5B5B"
   id="stop4267" />
		<stop
   offset="1"
   style="stop-color:#575757"
   id="stop4269" />
	</linearGradient><linearGradient
     id="SVGID_25_"
     gradientUnits="userSpaceOnUse"
     x1="-176.1851"
     y1="78.4795"
     x2="-52.131699"
     y2="92.223099"
     gradientTransform="matrix(1,0,0,-1,192.3999,143.0996)">
		<stop
   offset="0"
   style="stop-color:#FFFFFF"
   id="stop4274" />
		<stop
   offset="0.078"
   style="stop-color:#F4F4F4"
   id="stop4276" />
		<stop
   offset="0.3807"
   style="stop-color:#CECECE"
   id="stop4278" />
		<stop
   offset="0.5396"
   style="stop-color:#BFBFBF"
   id="stop4280" />
		<stop
   offset="0.8357"
   style="stop-color:#7C7C7C"
   id="stop4282" />
		<stop
   offset="0.8996"
   style="stop-color:#A8A8A8"
   id="stop4284" />
		<stop
   offset="0.9093"
   style="stop-color:#9A9A9A"
   id="stop4286" />
		<stop
   offset="0.9327"
   style="stop-color:#7D7D7D"
   id="stop4288" />
		<stop
   offset="0.9558"
   style="stop-color:#686868"
   id="stop4290" />
		<stop
   offset="0.9785"
   style="stop-color:#5B5B5B"
   id="stop4292" />
		<stop
   offset="1"
   style="stop-color:#575757"
   id="stop4294" />
	</linearGradient><linearGradient
     id="SVGID_26_"
     gradientUnits="userSpaceOnUse"
     x1="21.2129"
     y1="71.326698"
     x2="117.1948"
     y2="51.952599">
		<stop
   offset="0"
   style="stop-color:#EDEDEE"
   id="stop4299" />
		<stop
   offset="0.4176"
   style="stop-color:#FFFFFF"
   id="stop4301" />
		<stop
   offset="0.6264"
   style="stop-color:#F8F9F9"
   id="stop4303" />
		<stop
   offset="1"
   style="stop-color:#BFC0C2"
   id="stop4305" />
	</linearGradient><linearGradient
     id="SVGID_27_"
     gradientUnits="userSpaceOnUse"
     x1="23.471201"
     y1="30.732401"
     x2="27.9561"
     y2="30.732401">
		<stop
   offset="0"
   style="stop-color:#E2E3E4"
   id="stop4316" />
		<stop
   offset="0.5055"
   style="stop-color:#FFFFFF"
   id="stop4318" />
	</linearGradient><linearGradient
     id="SVGID_34_"
     gradientUnits="userSpaceOnUse"
     x1="22.5742"
     y1="49.7188"
     x2="111.5455"
     y2="29.204">
		<stop
   offset="0"
   style="stop-color:#FFFFFF"
   id="stop4743" />
		<stop
   offset="0.6538"
   style="stop-color:#FFFFFF"
   id="stop4745" />
		<stop
   offset="1"
   style="stop-color:#CBCCCE"
   id="stop4747" />
	</linearGradient><linearGradient
     id="SVGID_35_"
     gradientUnits="userSpaceOnUse"
     x1="-158.8101"
     y1="107.0898"
     x2="-126.4229"
     y2="107.0898"
     gradientTransform="matrix(1,0,0,-1,192.3999,143.0996)">
		<stop
   offset="0"
   style="stop-color:#696969"
   id="stop4770" />
		<stop
   offset="0.3702"
   style="stop-color:#2E2E2E"
   id="stop4772" />
		<stop
   offset="0.4554"
   style="stop-color:#424242"
   id="stop4774" />
		<stop
   offset="0.6014"
   style="stop-color:#303030"
   id="stop4776" />
		<stop
   offset="0.6947"
   style="stop-color:#4A4A4A"
   id="stop4778" />
		<stop
   offset="1"
   style="stop-color:#666666"
   id="stop4780" />
	</linearGradient><linearGradient
     id="SVGID_36_"
     gradientUnits="userSpaceOnUse"
     x1="-158.4185"
     y1="107.8965"
     x2="-126.5454"
     y2="107.8965"
     gradientTransform="matrix(1,0,0,-1,192.3999,143.0996)">
		<stop
   offset="0"
   style="stop-color:#525252"
   id="stop4785" />
		<stop
   offset="0.1856"
   style="stop-color:#333333"
   id="stop4787" />
		<stop
   offset="0.354"
   style="stop-color:#AEAEAE"
   id="stop4789" />
		<stop
   offset="0.4199"
   style="stop-color:#ADADAD"
   id="stop4791" />
		<stop
   offset="0.4276"
   style="stop-color:#9D9D9D"
   id="stop4793" />
		<stop
   offset="0.4433"
   style="stop-color:#818181"
   id="stop4795" />
		<stop
   offset="0.4611"
   style="stop-color:#6A6A6A"
   id="stop4797" />
		<stop
   offset="0.4814"
   style="stop-color:#585858"
   id="stop4799" />
		<stop
   offset="0.506"
   style="stop-color:#4C4C4C"
   id="stop4801" />
		<stop
   offset="0.539"
   style="stop-color:#444444"
   id="stop4803" />
		<stop
   offset="0.6166"
   style="stop-color:#424242"
   id="stop4805" />
		<stop
   offset="0.6684"
   style="stop-color:#454545"
   id="stop4807" />
		<stop
   offset="1"
   style="stop-color:#BDBDBD"
   id="stop4809" />
	</linearGradient><linearGradient
     id="SVGID_37_"
     gradientUnits="userSpaceOnUse"
     x1="-153.1255"
     y1="97.627899"
     x2="-154.15421"
     y2="104.4332"
     gradientTransform="matrix(1,0,0,-1,192.3999,143.0996)">
		<stop
   offset="0"
   style="stop-color:#969696"
   id="stop4814" />
		<stop
   offset="1"
   style="stop-color:#000000"
   id="stop4816" />
	</linearGradient><linearGradient
     id="SVGID_38_"
     gradientUnits="userSpaceOnUse"
     x1="38.737301"
     y1="46.373001"
     x2="39.487301"
     y2="38.790001">
		<stop
   offset="0"
   style="stop-color:#333333"
   id="stop4825" />
		<stop
   offset="0.431"
   style="stop-color:#000000"
   id="stop4827" />
		<stop
   offset="1"
   style="stop-color:#2E2E2E"
   id="stop4829" />
	</linearGradient><radialGradient
     id="SVGID_39_"
     cx="-138.2334"
     cy="106.5996"
     r="72.751701"
     gradientTransform="matrix(1,0,0,-1,192.3999,143.0996)"
     gradientUnits="userSpaceOnUse">
		<stop
   offset="0"
   style="stop-color:#000000;stop-opacity:0;"
   id="stop4840" />
		<stop
   offset="0.80220002"
   style="stop-color:#000000;stop-opacity:0.08;"
   id="stop4842" />
		<stop
   offset="1"
   style="stop-color:#000000;stop-opacity:0.3882353;"
   id="stop4844" />
	</radialGradient></defs><g
   title="Ang gawasnong ensiklopedya"
   id="The_Free_Encyclopedia"
   style="font-style:normal;font-variant:normal;font-weight:normal;font-stretch:normal;font-size:12.3081px;line-height:125%;font-family:'Linux Libertine O';-inkscape-font-specification:'Linux Libertine O';text-align:start;letter-spacing:-0.473387;writing-mode:lr-tb;text-anchor:start;fill:#000000;fill-opacity:1;stroke:none"
   transform="matrix(0.94677388,0,0,1.0562184,-3.8917752,-137.92595)"><path
     id="path3361"
     d="m 7.3229679,135.69258 c -0.270777,0 -0.3569337,-0.0369 -0.3077015,-0.16 l 1.2308061,-3.12625 h 0.024616 l 1.1938819,3.28625 H 7.3229678 m -1.3661947,2.51085 0.7138675,-1.78467 c 0.06154,-0.16 0.135389,-0.20924 0.4307821,-0.20924 h 2.5600767 l 0.7507916,2.08007 c 0.123081,0.34462 -0.04923,0.49232 -0.5169385,0.52924 l -0.3446257,0.0246 c -0.06154,0 -0.086156,0.0369 -0.086156,0.0985 v 0.23386 l 0.012308,0.0246 c 0.4553977,-0.0123 1.1569582,-0.0246 1.6369722,-0.0246 0.50463,0 0.984645,0.0123 1.440043,0.0246 l 0.02462,-0.0246 v -0.23386 c 0,-0.0615 -0.06154,-0.0985 -0.123081,-0.0985 l -0.135388,-0.0123 c -0.492322,-0.0492 -0.738484,-0.23385 -0.910797,-0.71387 L 8.8860916,131.4463 c -0.086156,-0.23385 -0.1600049,-0.36924 -0.3323176,-0.36924 -0.1846207,0 -0.2707775,0.11077 -0.4184741,0.44309 l -2.7323894,6.40019 c -0.3200093,0.7631 -0.6523278,0.88618 -1.1938819,0.92311 -0.06154,0 -0.098464,0.0369 -0.098464,0.0985 v 0.23386 l 0.024616,0.0246 c 0.4553978,-0.0123 0.6523277,-0.0246 1.1323416,-0.0246 0.50463,0 1.1569582,0.0123 1.612356,0.0246 l 0.024616,-0.0246 v -0.23386 c 0,-0.0615 -0.049232,-0.0985 -0.098465,-0.0985 l -0.3569338,-0.0246 c -0.4553978,-0.0369 -0.6277109,-0.28308 -0.4923224,-0.6154" /><path
     id="path3363"
     d="m 14.213647,133.77253 c 0,-0.0246 -0.02462,-0.0369 -0.04923,-0.0369 -0.344625,0.13539 -0.836949,0.24616 -1.698512,0.38155 l 0.02462,0.2954 0.529247,0.0492 c 0.172312,0.0246 0.270777,0.1477 0.270777,0.7631 v 3.06471 c 0,0.35693 -0.123081,0.49232 -0.529247,0.52924 l -0.233853,0.0246 c -0.06154,0.0123 -0.09846,0.0369 -0.09846,0.0985 v 0.23386 l 0.02462,0.0246 c 0.492322,-0.0123 0.800024,-0.0246 1.280038,-0.0246 0.50463,0 0.7631,0.0123 1.255422,0.0246 l 0.02462,-0.0246 v -0.23386 c 0,-0.0615 -0.03692,-0.0862 -0.09846,-0.0985 l -0.172313,-0.0246 c -0.406166,-0.0615 -0.529247,-0.17231 -0.529247,-0.52924 v -2.97856 c 0.627711,-0.73848 1.095418,-0.94772 1.636972,-0.94772 0.652327,0 0.800024,0.40617 0.800024,1.26773 v 2.65855 c 0,0.35693 -0.135389,0.4677 -0.529246,0.52924 l -0.172313,0.0246 c -0.06154,0.0123 -0.09846,0.0369 -0.09846,0.0985 v 0.23386 l 0.02462,0.0246 c 0.492322,-0.0123 0.738484,-0.0246 1.218498,-0.0246 0.50463,0 0.82464,0.0123 1.316962,0.0246 l 0.02462,-0.0246 v -0.23386 c 0,-0.0615 -0.04923,-0.0862 -0.110772,-0.0985 l -0.233853,-0.0246 c -0.38155,-0.0369 -0.516939,-0.17231 -0.516939,-0.52924 v -2.57239 c 0,-1.09542 -0.246162,-1.94467 -1.353887,-1.94467 -0.62771,0 -1.218499,0.17231 -2.006214,1.09541 h -0.03692 l 0.03692,-1.09541" /><path
     id="path3365"
     d="m 21.930505,135.74182 c 0,1.14465 -0.566171,1.3785 -0.996953,1.3785 -0.984643,0 -1.107725,-0.87387 -1.107725,-1.66159 0,-0.86156 0.307702,-1.30465 0.947721,-1.30465 0.738483,0 1.156957,0.56617 1.156957,1.58774 m -2.215451,3.55703 c 0.135389,0.0369 0.32001,0.0615 0.467707,0.0615 0.369241,0 0.676943,-0.0369 0.849256,-0.0369 0.590786,0 1.095418,0.0123 1.440043,0.20924 0.455398,0.27078 0.603095,0.44309 0.603095,0.7631 0,0.88618 -1.267731,1.35389 -2.326223,1.35389 -0.418474,0 -1.403119,-0.35694 -1.403119,-1.19389 0,-0.41847 0.02462,-0.72617 0.369241,-1.15695 m 3.692419,-4.89861 c 0.246161,0 0.418474,-0.17231 0.418474,-0.44309 0,-0.25847 -0.221546,-0.46771 -0.541555,-0.46771 -0.307701,0 -0.861565,0.20924 -1.169266,0.62771 -0.135388,-0.0985 -0.541555,-0.34462 -1.230806,-0.34462 -1.046184,0 -2.018522,0.73848 -2.018522,1.87082 0,0.66464 0.283086,1.04619 0.615403,1.37851 -0.332317,0.29539 -0.516938,0.82464 -0.516938,1.24311 0,0.44309 0.221545,0.78772 0.529246,0.94772 -0.62771,0.39386 -0.960028,0.96003 -0.960028,1.48928 0,1.0708 0.972337,1.40311 1.870825,1.40311 1.587738,0 3.310868,-0.80002 3.310868,-2.12929 0,-0.39386 -0.172313,-0.70156 -0.516938,-0.99695 -0.455398,-0.39386 -1.304655,-0.40617 -1.735437,-0.40617 -0.209237,0 -0.492323,0.0246 -0.775408,0.0615 -0.172312,0.0123 -0.295393,0.0246 -0.356934,0.0246 -0.344625,0 -0.750791,-0.17232 -0.750791,-0.70156 0,-0.24616 0.07385,-0.50463 0.209237,-0.71387 0.283085,0.17231 0.627711,0.25847 1.083109,0.25847 1.033876,0 1.993906,-0.67694 1.993906,-1.88313 0,-0.57848 -0.160005,-0.9108 -0.504631,-1.28004 0.08616,-0.12308 0.32001,-0.2954 0.467707,-0.2954 0.08616,0 0.135389,0.0369 0.209237,0.1477 0.04923,0.0985 0.172313,0.20924 0.369242,0.20924" /><path
     id="path3367"
     d="m 29.950346,135.74182 c 0,1.14465 -0.566172,1.3785 -0.996953,1.3785 -0.984644,0 -1.107726,-0.87387 -1.107726,-1.66159 0,-0.86156 0.307702,-1.30465 0.947721,-1.30465 0.738483,0 1.156958,0.56617 1.156958,1.58774 m -2.215451,3.55703 c 0.135388,0.0369 0.320009,0.0615 0.467706,0.0615 0.369241,0 0.676944,-0.0369 0.849256,-0.0369 0.590787,0 1.095418,0.0123 1.440043,0.20924 0.455398,0.27078 0.603095,0.44309 0.603095,0.7631 0,0.88618 -1.267731,1.35389 -2.326223,1.35389 -0.418474,0 -1.403119,-0.35694 -1.403119,-1.19389 0,-0.41847 0.02462,-0.72617 0.369242,-1.15695 m 3.692418,-4.89861 c 0.246161,0 0.418474,-0.17231 0.418474,-0.44309 0,-0.25847 -0.221545,-0.46771 -0.541555,-0.46771 -0.307701,0 -0.861564,0.20924 -1.169265,0.62771 -0.135389,-0.0985 -0.541556,-0.34462 -1.230807,-0.34462 -1.046184,0 -2.018521,0.73848 -2.018521,1.87082 0,0.66464 0.283085,1.04619 0.615403,1.37851 -0.332318,0.29539 -0.516939,0.82464 -0.516939,1.24311 0,0.44309 0.221545,0.78772 0.529247,0.94772 -0.627711,0.39386 -0.960029,0.96003 -0.960029,1.48928 0,1.0708 0.972338,1.40311 1.870825,1.40311 1.587738,0 3.310868,-0.80002 3.310868,-2.12929 0,-0.39386 -0.172313,-0.70156 -0.516938,-0.99695 -0.455398,-0.39386 -1.304655,-0.40617 -1.735437,-0.40617 -0.209237,0 -0.492322,0.0246 -0.775408,0.0615 -0.172312,0.0123 -0.295393,0.0246 -0.356933,0.0246 -0.344626,0 -0.750792,-0.17232 -0.750792,-0.70156 0,-0.24616 0.07385,-0.50463 0.209237,-0.71387 0.283085,0.17231 0.627712,0.25847 1.083109,0.25847 1.033876,0 1.993906,-0.67694 1.993906,-1.88313 0,-0.57848 -0.160005,-0.9108 -0.50463,-1.28004 0.08616,-0.12308 0.320009,-0.2954 0.467706,-0.2954 0.08616,0 0.135389,0.0369 0.209237,0.1477 0.04923,0.0985 0.172313,0.20924 0.369242,0.20924" /><path
     id="path3369"
     d="m 35.085204,136.30799 v 1.63697 c 0,0.16 -0.07385,0.24616 -0.172313,0.32001 -0.320009,0.25847 -0.738484,0.52925 -1.083109,0.52925 -0.615403,0 -0.910797,-0.49233 -0.910797,-0.87388 0,-0.55386 0.283086,-1.10772 1.193882,-1.35388 l 0.972337,-0.25847 m 0,2.27699 c 0.07385,0.25847 0.270778,0.71387 0.923104,0.71387 0.603095,0 1.021569,-0.49233 1.021569,-0.55387 0,-0.0862 -0.08616,-0.18462 -0.135388,-0.18462 -0.07385,0 -0.110773,0.19693 -0.406166,0.19693 -0.480014,0 -0.492323,-0.50463 -0.492323,-1.0708 v -1.8339 c 0,-1.74774 -0.910797,-2.08006 -1.809285,-2.08006 -1.00926,0 -2.03083,0.70156 -2.03083,1.36619 0,0.2954 0.147697,0.43078 0.430782,0.43078 0.356934,0 0.541555,-0.24616 0.541555,-0.40616 0,-0.0862 -0.01231,-0.17231 -0.03692,-0.22155 -0.01231,-0.0369 -0.02462,-0.11077 -0.02462,-0.24616 0,-0.38155 0.553863,-0.55386 1.021569,-0.55386 0.418474,0 0.996953,0.24616 0.996953,1.63697 0,0.0862 -0.03692,0.13539 -0.07385,0.1477 l -1.058493,0.25847 c -1.181572,0.29539 -2.006214,0.94772 -2.006214,1.78467 0,0.97233 0.664636,1.32927 1.5262,1.32927 0.56617,0 0.800024,-0.0985 1.341578,-0.51694 l 0.246162,-0.19693 h 0.02462" /><path
     id="path3371"
     d="m 39.044836,134.12946 v -0.22154 l -0.02462,-0.0369 c -0.455397,0.0123 -0.775408,0.0246 -1.218498,0.0246 -0.467706,0 -0.664635,-0.0123 -1.120033,-0.0246 l -0.02462,0.0246 v 0.24616 c 0,0.0615 0.08616,0.0738 0.147696,0.0862 0.356934,0.0369 0.578479,0.0985 0.775408,0.59078 l 1.686205,4.25859 c 0.07385,0.17231 0.172312,0.24616 0.295393,0.24616 0.110772,0 0.209237,-0.0739 0.295393,-0.27077 l 1.230806,-3.0524 1.230807,3.07701 c 0.07385,0.17231 0.172313,0.24616 0.295393,0.24616 0.110772,0 0.209237,-0.0739 0.283085,-0.25847 l 1.673897,-4.16012 c 0.221545,-0.54156 0.529247,-0.64002 0.849256,-0.67694 0.07385,-0.0123 0.147697,-0.0246 0.147697,-0.0985 v -0.23385 l -0.02462,-0.0246 c -0.307701,0.0123 -0.455398,0.0246 -0.898488,0.0246 -0.467706,0 -0.82464,-0.0123 -1.280038,-0.0246 l -0.02462,0.0246 v 0.24616 c 0,0.0369 0.04923,0.0862 0.110772,0.0862 l 0.184621,0.0123 c 0.627711,0.0369 0.603095,0.39386 0.492322,0.61541 l -1.280038,3.18778 -1.280038,-3.24932 c -0.147697,-0.36925 -0.196929,-0.52925 0.233853,-0.55387 l 0.221545,-0.0123 c 0.06154,0 0.123081,-0.0369 0.123081,-0.0985 v -0.23385 l -0.03692,-0.0246 c -0.455398,0.0123 -0.800025,0.0246 -1.230807,0.0246 -0.430781,0 -0.664635,-0.0123 -1.120033,-0.0246 l -0.02462,0.0246 v 0.24616 c 0,0.0615 0.06154,0.0738 0.12308,0.0862 0.356934,0.0369 0.627712,0.18462 0.787716,0.59078 l 0.221545,0.55387 -1.070801,2.67084 -1.292346,-3.24932 c -0.123081,-0.3077 -0.160005,-0.52925 0.246161,-0.55387 l 0.184621,-0.0123 c 0.06154,0 0.110772,-0.0369 0.110772,-0.0985" /><path
     id="path3373"
     d="m 48.754252,136.30799 v 1.63697 c 0,0.16 -0.07385,0.24616 -0.172313,0.32001 -0.320009,0.25847 -0.738484,0.52925 -1.083109,0.52925 -0.615402,0 -0.910797,-0.49233 -0.910797,-0.87388 0,-0.55386 0.283087,-1.10772 1.193882,-1.35388 l 0.972337,-0.25847 m 0,2.27699 c 0.07385,0.25847 0.270778,0.71387 0.923105,0.71387 0.603094,0 1.021569,-0.49233 1.021569,-0.55387 0,-0.0862 -0.08616,-0.18462 -0.135389,-0.18462 -0.07385,0 -0.110773,0.19693 -0.406166,0.19693 -0.480014,0 -0.492322,-0.50463 -0.492322,-1.0708 v -1.8339 c 0,-1.74774 -0.910798,-2.08006 -1.809285,-2.08006 -1.00926,0 -2.03083,0.70156 -2.03083,1.36619 0,0.2954 0.147697,0.43078 0.430782,0.43078 0.356933,0 0.541554,-0.24616 0.541554,-0.40616 0,-0.0862 -0.01231,-0.17231 -0.03692,-0.22155 -0.01231,-0.0369 -0.02462,-0.11077 -0.02462,-0.24616 0,-0.38155 0.553863,-0.55386 1.021569,-0.55386 0.418474,0 0.996953,0.24616 0.996953,1.63697 0,0.0862 -0.03692,0.13539 -0.07385,0.1477 l -1.058493,0.25847 c -1.181573,0.29539 -2.006214,0.94772 -2.006214,1.78467 0,0.97233 0.664636,1.32927 1.526199,1.32927 0.56617,0 0.800025,-0.0985 1.341579,-0.51694 l 0.246161,-0.19693 h 0.02462" /><path
     id="path3375"
     d="m 50.781515,137.45264 c 0.04923,0.60309 0.08616,1.20619 0.08616,1.72313 0.12308,-0.0246 0.221545,-0.0369 0.283085,-0.0369 0.08616,0 0.147697,0 0.233853,0.0246 0.32001,0.0862 0.676944,0.13539 1.107726,0.13539 0.578478,0 1.870825,-0.33232 1.870825,-1.55082 0,-0.98464 -0.800025,-1.42773 -1.796977,-1.79698 -0.676942,-0.24616 -0.873872,-0.49232 -0.873872,-0.98464 0,-0.67694 0.504631,-0.82464 0.972337,-0.82464 0.258469,0 0.898488,0.19693 1.156957,1.20619 l 0.332318,-0.0123 c -0.02462,-0.44309 -0.06154,-0.86156 -0.135389,-1.25542 -0.381549,-0.19693 -0.738484,-0.3077 -1.353886,-0.3077 -0.972336,0 -1.723129,0.55386 -1.723129,1.3785 0,0.9231 0.430783,1.18157 1.329271,1.57543 0.972336,0.43078 1.26773,0.77541 1.26773,1.30466 0,0.60309 -0.64002,0.9231 -1.070801,0.9231 -0.455398,0 -0.787716,-0.22154 -0.910797,-0.35693 -0.283085,-0.28309 -0.406166,-0.84926 -0.44309,-1.15696 l -0.332318,0.0123" /><path
     id="path3377"
     d="m 56.317349,133.77253 c 0,-0.0246 -0.02462,-0.0369 -0.04923,-0.0369 -0.344626,0.13539 -0.836949,0.24616 -1.698513,0.38155 l 0.02462,0.2954 0.529246,0.0492 c 0.172313,0.0246 0.270777,0.1477 0.270777,0.7631 v 3.06471 c 0,0.35693 -0.123081,0.49232 -0.529246,0.52924 l -0.233853,0.0246 c -0.06154,0.0123 -0.09846,0.0369 -0.09846,0.0985 v 0.23386 l 0.02462,0.0246 c 0.492322,-0.0123 0.800025,-0.0246 1.280039,-0.0246 0.50463,0 0.7631,0.0123 1.255422,0.0246 l 0.02462,-0.0246 v -0.23386 c 0,-0.0615 -0.03692,-0.0862 -0.09846,-0.0985 l -0.172312,-0.0246 c -0.406166,-0.0615 -0.529247,-0.17231 -0.529247,-0.52924 v -2.97856 c 0.62771,-0.73848 1.095418,-0.94772 1.636972,-0.94772 0.652327,0 0.800024,0.40617 0.800024,1.26773 v 2.65855 c 0,0.35693 -0.135389,0.4677 -0.529247,0.52924 l -0.172312,0.0246 c -0.06154,0.0123 -0.09846,0.0369 -0.09846,0.0985 v 0.23386 l 0.02462,0.0246 c 0.492322,-0.0123 0.738484,-0.0246 1.218498,-0.0246 0.50463,0 0.824641,0.0123 1.316963,0.0246 l 0.02462,-0.0246 v -0.23386 c 0,-0.0615 -0.04923,-0.0862 -0.110773,-0.0985 l -0.233853,-0.0246 c -0.381549,-0.0369 -0.516938,-0.17231 -0.516938,-0.52924 v -2.57239 c 0,-1.09542 -0.246163,-1.94467 -1.353887,-1.94467 -0.627711,0 -1.218499,0.17231 -2.006214,1.09541 h -0.03692 l 0.03692,-1.09541" /><path
     id="path3379"
     d="m 60.686414,136.65261 c 0,1.25542 0.873873,2.64624 2.523152,2.64624 1.747743,0 2.547768,-1.5262 2.547768,-2.75701 0,-1.28004 -0.701561,-2.76931 -2.523152,-2.76931 -1.63697,0 -2.547768,1.19388 -2.547768,2.88008 m 2.412379,-2.47392 c 1.00926,0 1.612356,0.94773 1.612356,2.75701 0,1.62466 -0.738484,1.95698 -1.292346,1.95698 -1.218497,0 -1.686204,-1.57543 -1.686204,-2.52315 0,-1.0708 0.381551,-2.19084 1.366194,-2.19084" /><path
     id="path3381"
     d="m 67.774792,133.77253 c 0,-0.0246 -0.02462,-0.0369 -0.04923,-0.0369 -0.344625,0.13539 -0.836949,0.24616 -1.698512,0.38155 l 0.02462,0.2954 0.529246,0.0492 c 0.172313,0.0246 0.270778,0.1477 0.270778,0.7631 v 3.06471 c 0,0.35693 -0.123081,0.49232 -0.529247,0.52924 l -0.233853,0.0246 c -0.06154,0.0123 -0.09847,0.0369 -0.09847,0.0985 v 0.23386 l 0.02462,0.0246 c 0.492321,-0.0123 0.800024,-0.0246 1.280038,-0.0246 0.50463,0 0.7631,0.0123 1.255422,0.0246 l 0.02462,-0.0246 v -0.23386 c 0,-0.0615 -0.03692,-0.0862 -0.09846,-0.0985 l -0.172313,-0.0246 c -0.406166,-0.0615 -0.529247,-0.17231 -0.529247,-0.52924 v -2.97856 c 0.627711,-0.73848 1.095418,-0.94772 1.636972,-0.94772 0.652327,0 0.800024,0.40617 0.800024,1.26773 v 2.65855 c 0,0.35693 -0.135389,0.4677 -0.529246,0.52924 l -0.172313,0.0246 c -0.06154,0.0123 -0.09846,0.0369 -0.09846,0.0985 v 0.23386 l 0.02462,0.0246 c 0.492322,-0.0123 0.738485,-0.0246 1.218498,-0.0246 0.50463,0 0.824641,0.0123 1.316963,0.0246 l 0.02462,-0.0246 v -0.23386 c 0,-0.0615 -0.04923,-0.0862 -0.110773,-0.0985 l -0.233853,-0.0246 c -0.381549,-0.0369 -0.516938,-0.17231 -0.516938,-0.52924 v -2.57239 c 0,-1.09542 -0.246163,-1.94467 -1.353887,-1.94467 -0.62771,0 -1.218499,0.17231 -2.006214,1.09541 h -0.03692 l 0.03692,-1.09541" /><path
     id="path3383"
     d="m 75.491653,135.74182 c 0,1.14465 -0.566171,1.3785 -0.996953,1.3785 -0.984644,0 -1.107725,-0.87387 -1.107725,-1.66159 0,-0.86156 0.307702,-1.30465 0.94772,-1.30465 0.738483,0 1.156958,0.56617 1.156958,1.58774 m -2.215451,3.55703 c 0.135389,0.0369 0.32001,0.0615 0.467706,0.0615 0.369242,0 0.676944,-0.0369 0.849257,-0.0369 0.590786,0 1.095417,0.0123 1.440043,0.20924 0.455398,0.27078 0.603095,0.44309 0.603095,0.7631 0,0.88618 -1.267732,1.35389 -2.326224,1.35389 -0.418473,0 -1.403119,-0.35694 -1.403119,-1.19389 0,-0.41847 0.02462,-0.72617 0.369242,-1.15695 m 3.692418,-4.89861 c 0.246161,0 0.418474,-0.17231 0.418474,-0.44309 0,-0.25847 -0.221545,-0.46771 -0.541554,-0.46771 -0.307701,0 -0.861565,0.20924 -1.169266,0.62771 -0.135389,-0.0985 -0.541555,-0.34462 -1.230806,-0.34462 -1.046184,0 -2.018522,0.73848 -2.018522,1.87082 0,0.66464 0.283086,1.04619 0.615403,1.37851 -0.332317,0.29539 -0.516939,0.82464 -0.516939,1.24311 0,0.44309 0.221546,0.78772 0.529247,0.94772 -0.62771,0.39386 -0.960029,0.96003 -0.960029,1.48928 0,1.0708 0.972338,1.40311 1.870826,1.40311 1.587738,0 3.310868,-0.80002 3.310868,-2.12929 0,-0.39386 -0.172313,-0.70156 -0.516939,-0.99695 -0.455397,-0.39386 -1.304655,-0.40617 -1.735436,-0.40617 -0.209237,0 -0.492323,0.0246 -0.775408,0.0615 -0.172313,0.0123 -0.295394,0.0246 -0.356934,0.0246 -0.344625,0 -0.750792,-0.17232 -0.750792,-0.70156 0,-0.24616 0.07385,-0.50463 0.209238,-0.71387 0.283085,0.17231 0.627711,0.25847 1.083109,0.25847 1.033876,0 1.993906,-0.67694 1.993906,-1.88313 0,-0.57848 -0.160005,-0.9108 -0.504631,-1.28004 0.08616,-0.12308 0.32001,-0.2954 0.467706,-0.2954 0.08616,0 0.135389,0.0369 0.209238,0.1477 0.04923,0.0985 0.172313,0.20924 0.369241,0.20924" /><path
     id="path3385"
     d="m 81.16065,135.64335 c 0.221545,-1.39081 1.132342,-1.45235 1.415427,-1.45235 0.44309,0 1.021569,0.24616 1.021569,1.28004 0,0.11077 -0.04923,0.17231 -0.172313,0.17231 H 81.16065 m 3.249328,2.36315 c -0.430782,0.46771 -0.861565,0.68925 -1.538508,0.68925 -0.68925,0 -1.747744,-0.73848 -1.747744,-2.57238 h 3.23702 c 0.135388,0 0.221545,-0.0738 0.221545,-0.20924 0,-1.03388 -0.381552,-2.1416 -2.006214,-2.1416 -1.169265,0 -2.436996,1.08311 -2.436996,2.95393 0,1.41543 0.750793,2.57239 2.436996,2.57239 0.886179,0 1.612356,-0.4554 2.080062,-1.09542 -0.03692,-0.12308 -0.110773,-0.18462 -0.246161,-0.19693" /><path
     id="path3387"
     d="m 86.554944,133.77253 c 0,-0.0246 -0.02462,-0.0369 -0.04923,-0.0369 -0.344625,0.13539 -0.836949,0.24616 -1.698512,0.38155 l 0.02462,0.2954 0.529247,0.0492 c 0.172312,0.0246 0.270777,0.1477 0.270777,0.7631 v 3.06471 c 0,0.35693 -0.123081,0.49232 -0.529247,0.52924 l -0.233853,0.0246 c -0.06154,0.0123 -0.09846,0.0369 -0.09846,0.0985 v 0.23386 l 0.02462,0.0246 c 0.492322,-0.0123 0.800024,-0.0246 1.280038,-0.0246 0.50463,0 0.7631,0.0123 1.255422,0.0246 l 0.02462,-0.0246 v -0.23386 c 0,-0.0615 -0.03692,-0.0862 -0.09847,-0.0985 l -0.172313,-0.0246 c -0.406165,-0.0615 -0.529246,-0.17231 -0.529246,-0.52924 v -2.97856 c 0.62771,-0.73848 1.095418,-0.94772 1.636972,-0.94772 0.652326,0 0.800024,0.40617 0.800024,1.26773 v 2.65855 c 0,0.35693 -0.135389,0.4677 -0.529247,0.52924 l -0.172313,0.0246 c -0.06154,0.0123 -0.09846,0.0369 -0.09846,0.0985 v 0.23386 l 0.02462,0.0246 c 0.492322,-0.0123 0.738484,-0.0246 1.218498,-0.0246 0.50463,0 0.82464,0.0123 1.316962,0.0246 l 0.02462,-0.0246 v -0.23386 c 0,-0.0615 -0.04923,-0.0862 -0.110772,-0.0985 l -0.233853,-0.0246 c -0.38155,-0.0369 -0.516939,-0.17231 -0.516939,-0.52924 v -2.57239 c 0,-1.09542 -0.246162,-1.94467 -1.353887,-1.94467 -0.62771,0 -1.218498,0.17231 -2.006213,1.09541 h -0.03693 l 0.03693,-1.09541" /><path
     id="path3389"
     d="m 91.010161,137.45264 c 0.04923,0.60309 0.08616,1.20619 0.08616,1.72313 0.123081,-0.0246 0.221545,-0.0369 0.283086,-0.0369 0.08616,0 0.147696,0 0.233853,0.0246 0.320009,0.0862 0.676943,0.13539 1.107725,0.13539 0.578478,0 1.870825,-0.33232 1.870825,-1.55082 0,-0.98464 -0.800025,-1.42773 -1.796976,-1.79698 -0.676943,-0.24616 -0.873873,-0.49232 -0.873873,-0.98464 0,-0.67694 0.504631,-0.82464 0.972337,-0.82464 0.258469,0 0.898489,0.19693 1.156958,1.20619 l 0.332317,-0.0123 c -0.02462,-0.44309 -0.06154,-0.86156 -0.135388,-1.25542 -0.38155,-0.19693 -0.738485,-0.3077 -1.353887,-0.3077 -0.972336,0 -1.723128,0.55386 -1.723128,1.3785 0,0.9231 0.430783,1.18157 1.32927,1.57543 0.972336,0.43078 1.26773,0.77541 1.26773,1.30466 0,0.60309 -0.640019,0.9231 -1.070801,0.9231 -0.455398,0 -0.787716,-0.22154 -0.910796,-0.35693 -0.283086,-0.28309 -0.406166,-0.84926 -0.443091,-1.15696 l -0.332317,0.0123" /><path
     id="path3391"
     d="m 95.561349,132.16017 c 0,0.32001 0.270778,0.59079 0.590787,0.59079 0.32001,0 0.590787,-0.27078 0.590787,-0.59079 0,-0.32001 -0.270777,-0.59079 -0.590787,-0.59079 -0.320009,0 -0.590787,0.27078 -0.590787,0.59079 m 1.156958,1.61236 c 0,-0.0246 -0.02462,-0.0369 -0.04923,-0.0369 -0.344625,0.13539 -0.861565,0.24616 -1.735437,0.38155 l 0.02462,0.2954 0.529247,0.0492 c 0.172313,0.0246 0.270777,0.1477 0.270777,0.7631 v 3.06471 c 0,0.35693 -0.110773,0.48001 -0.529246,0.52924 l -0.233853,0.0246 c -0.06154,0.0123 -0.09846,0.0369 -0.09846,0.0985 v 0.23386 l 0.02462,0.0246 c 0.492322,-0.0123 0.836949,-0.0246 1.280039,-0.0246 0.467705,0 0.82464,0.0123 1.316962,0.0246 l 0.02462,-0.0246 v -0.23386 c 0,-0.0615 -0.04923,-0.0862 -0.110772,-0.0985 l -0.233853,-0.0246 c -0.38155,-0.0369 -0.516939,-0.17231 -0.516939,-0.52924 v -3.06471 c 0,-0.6154 0.03692,-1.45235 0.03692,-1.45235" /><path
     id="path3393"
     d="m 98.405942,132.24633 v 6.04326 c 0,0.35693 -0.123081,0.49232 -0.529246,0.52924 l -0.233853,0.0246 c -0.06154,0.0123 -0.08616,0.0369 -0.08616,0.0985 v 0.23386 l 0.02462,0.0246 c 0.615403,-0.0123 0.787717,-0.0246 1.267731,-0.0246 0.50463,0 0.627711,0.0123 1.107725,0.0246 l 0.02462,-0.0246 v -0.23386 c 0,-0.0615 -0.04923,-0.0985 -0.09846,-0.0985 -0.32001,-0.0369 -0.553863,-0.0862 -0.553863,-0.55386 v -1.72313 c 0.307701,0 0.480015,0.0862 0.726174,0.44309 l 0.89849,1.26773 c 0.24616,0.35693 0.28309,0.50463 0.28309,0.66463 v 0.23386 l 0.0369,0.0246 c 0.24616,-0.0123 0.4554,-0.0246 0.82464,-0.0246 0.38155,0 0.67694,0.0123 1.04619,0.0246 l 0.0246,-0.0246 v -0.23386 c 0,-0.0615 -0.0246,-0.0862 -0.11077,-0.0985 l -0.0862,-0.0123 c -0.3077,-0.0492 -0.70156,-0.22155 -0.9231,-0.55386 l -1.44004,-2.1293 c -0.0369,-0.0492 -0.0615,-0.11077 -0.0615,-0.17231 0,-0.0492 0.0123,-0.0862 0.0492,-0.12308 l 0.93541,-1.03388 c 0.3077,-0.32001 0.84926,-0.52924 1.18157,-0.57848 l 0.0862,-0.0123 c 0.0615,-0.0123 0.13539,-0.0369 0.13539,-0.0985 v -0.23385 l -0.0492,-0.0246 c -0.4554,0.0123 -0.62772,0.0246 -1.0708,0.0246 -0.46771,0 -0.64002,-0.0123 -1.09542,-0.0246 0,0.0123 -0.0369,0.0246 -0.0369,0.0246 v 0.23385 c 0,0.0492 0.0369,0.0985 0.0985,0.0985 0.73848,0.0369 0.29539,0.54155 0.16,0.67694 -0.66463,0.72617 -1.292345,1.28004 -1.612354,1.35389 v -4.25859 c 0,-0.80003 0.03692,-1.29235 0.03692,-1.29235 0,-0.0862 -0.04923,-0.12308 -0.160005,-0.12308 -0.307701,0.12308 -1.169266,0.28309 -1.661588,0.32001 l 0.02462,0.29539 c 0,0.0369 0.03692,0.0615 0.07385,0.0615 l 0.393858,0.0246 c 0.246161,0 0.369241,0.16 0.369241,0.96003" /><path
     id="path3395"
     d="m 103.90831,138.28959 c 0,0.35693 -0.12308,0.49232 -0.52924,0.52924 l -0.2954,0.0246 c -0.0615,0 -0.0862,0.0369 -0.0862,0.0985 v 0.23386 l 0.0123,0.0246 c 0.61541,-0.0123 0.86157,-0.0246 1.34158,-0.0246 0.50463,0 0.7508,0.0123 1.3662,0.0246 l 0.0246,-0.0246 v -0.23386 c 0,-0.0615 -0.0492,-0.0985 -0.0985,-0.0985 l -0.29539,-0.0246 c -0.40617,-0.0369 -0.51694,-0.17231 -0.51694,-0.52924 v -6.28942 c 0,-0.80003 0.0369,-1.29235 0.0369,-1.29235 0,-0.0862 -0.0492,-0.12308 -0.16,-0.12308 -0.3077,0.12308 -1.15696,0.28309 -1.66159,0.32001 l 0.0246,0.29539 c 0,0.0369 0.0369,0.0615 0.0739,0.0615 l 0.39386,0.0246 c 0.24616,0 0.36924,0.16 0.36924,0.96003 v 6.04326" /><path
     id="path3397"
     d="m 105.90596,136.65261 c 0,1.25542 0.87387,2.64624 2.52315,2.64624 1.74775,0 2.54777,-1.5262 2.54777,-2.75701 0,-1.28004 -0.70156,-2.76931 -2.52315,-2.76931 -1.63697,0 -2.54777,1.19388 -2.54777,2.88008 m 2.41238,-2.47392 c 1.00926,0 1.61236,0.94773 1.61236,2.75701 0,1.62466 -0.73849,1.95698 -1.29235,1.95698 -1.2185,0 -1.6862,-1.57543 -1.6862,-2.52315 0,-1.0708 0.38155,-2.19084 1.36619,-2.19084" /><path
     id="path3399"
     d="m 112.85895,135.34796 c 0.27078,-0.65233 0.86157,-1.00926 1.28004,-1.00926 0.75079,0 1.39081,0.88618 1.39081,2.27699 0,1.00926 -0.33232,2.26468 -1.64928,2.26468 -0.19693,0 -0.59078,-0.0246 -1.02157,-0.52924 v -3.00317 m -0.9231,-0.12308 v 5.93248 c 0,0.34463 -0.13539,0.48002 -0.52925,0.51694 l -0.23385,0.0246 c -0.0615,0.0123 -0.0985,0.0369 -0.0985,0.0985 v 0.23386 l 0.0246,0.0246 c 0.4554,-0.0123 0.83695,-0.0246 1.28004,-0.0246 0.46771,0 0.86156,0.0123 1.31696,0.0246 l 0.0246,-0.0246 v -0.23386 c 0,-0.0615 -0.0492,-0.0862 -0.11077,-0.0985 l -0.23386,-0.0246 c -0.38155,-0.0369 -0.51694,-0.17231 -0.51694,-0.51694 v -2.12929 c 0.32001,0.17231 0.65233,0.27078 1.09542,0.27078 0.65233,0 1.24312,-0.20924 1.72313,-0.68925 0.55386,-0.56618 0.86156,-1.32928 0.86156,-2.32623 0,-1.30465 -0.87387,-2.51084 -2.06775,-2.51084 -0.39386,0 -1.04619,0.12308 -1.61236,0.98464 h -0.0369 l 0.0369,-0.98464 c 0,-0.0246 -0.0246,-0.0369 -0.0492,-0.0369 -0.35693,0.13539 -0.82464,0.24616 -1.69851,0.38155 l 0.0246,0.2954 0.52924,0.0492 c 0.17232,0.0246 0.27078,0.1477 0.27078,0.7631" /><path
     id="path3401"
     d="m 118.04785,135.64335 c 0.22154,-1.39081 1.13234,-1.45235 1.41543,-1.45235 0.44309,0 1.02157,0.24616 1.02157,1.28004 0,0.11077 -0.0492,0.17231 -0.17232,0.17231 h -2.26468 m 3.24933,2.36315 c -0.43078,0.46771 -0.86157,0.68925 -1.53851,0.68925 -0.68925,0 -1.74774,-0.73848 -1.74774,-2.57238 h 3.23702 c 0.13538,0 0.22154,-0.0738 0.22154,-0.20924 0,-1.03388 -0.38155,-2.1416 -2.00621,-2.1416 -1.16927,0 -2.437,1.08311 -2.437,2.95393 0,1.41543 0.75079,2.57239 2.437,2.57239 0.88618,0 1.61235,-0.4554 2.08006,-1.09542 -0.0369,-0.12308 -0.11077,-0.18462 -0.24616,-0.19693" /><path
     id="path3403"
     d="m 125.69278,138.01881 c -0.55386,0.44309 -1.03387,0.70156 -1.35388,0.70156 -0.66464,0 -1.34158,-0.72618 -1.34158,-2.26469 0,-0.88617 0.16,-1.3785 0.34462,-1.63697 0.38155,-0.57848 0.89849,-0.6154 1.14465,-0.6154 0.57848,0 0.9108,0.25847 1.20619,0.72618 v 3.08932 m 0.92311,-6.01864 c 0,-0.80003 0.0369,-1.29235 0.0369,-1.29235 0,-0.0862 -0.0492,-0.12308 -0.16,-0.12308 -0.3077,0.12308 -1.15696,0.28309 -1.66159,0.32001 l 0.0246,0.29539 c 0,0.0369 0.0369,0.0615 0.0739,0.0615 l 0.39386,0.0246 c 0.24616,0 0.36924,0.16 0.36924,0.96003 v 1.79697 c -0.28308,-0.16 -0.82464,-0.27077 -1.0708,-0.27077 -0.81233,0 -1.35389,0.27078 -1.84621,0.73848 -0.52924,0.52925 -0.82464,1.25542 -0.82464,2.16622 0,1.51389 0.73849,2.62162 2.06776,2.62162 0.49232,0 1.10772,-0.39386 1.67389,-0.84926 l 0.0246,0.0123 -0.0246,0.86156 h 0.28309 c 0.27078,-0.22154 0.81233,-0.38155 1.57543,-0.51694 l -0.0369,-0.28308 -0.59079,-0.0615 c -0.25847,-0.0246 -0.3077,-0.0985 -0.3077,-0.71387 v -5.74786" /><path
     id="path3405"
     d="m 129.72299,134.12946 v -0.22154 l -0.0246,-0.0369 c -0.4554,0.0123 -0.89849,0.0246 -1.34158,0.0246 -0.41848,0 -0.78772,-0.0123 -1.03388,-0.0246 l -0.0246,0.0246 v 0.24616 c 0,0.0492 0.0492,0.0738 0.12308,0.0862 0.40617,0.0369 0.55387,0.13538 0.7508,0.60309 l 1.55081,3.60626 c 0.0985,0.24616 0.20924,0.57848 0.20924,0.70156 0,0.11077 -0.0246,0.23386 -0.0985,0.38155 -0.3077,0.75079 -0.7631,1.8339 -0.94772,1.8339 -0.12308,0 -0.20923,-0.0862 -0.33231,-0.20923 -0.0738,-0.0985 -0.19693,-0.17232 -0.38155,-0.17232 -0.19693,0 -0.46771,0.11078 -0.46771,0.48002 0,0.44309 0.48001,0.57848 0.71387,0.57848 0.87387,0 1.34158,-1.0585 1.71082,-1.94468 0.98464,-2.37545 1.5262,-3.64318 2.17852,-5.02169 0.17232,-0.35693 0.41848,-0.80002 0.87388,-0.83694 0.0862,-0.0123 0.13539,-0.0369 0.13539,-0.0985 v -0.23385 l -0.0369,-0.0246 c -0.3077,0.0123 -0.50463,0.0246 -0.84925,0.0246 -0.43079,0 -0.70156,-0.0123 -1.15696,-0.0246 l -0.0246,0.0369 v 0.23385 c 0,0.0615 0.0615,0.0862 0.12308,0.0862 0.38155,0.0369 0.75079,0.11077 0.48002,0.60309 l -1.3662,3.12625 -1.35388,-3.17548 c -0.18463,-0.41848 -0.0123,-0.51694 0.45539,-0.55386 0.0615,0 0.13539,-0.0369 0.13539,-0.0985" /><path
     id="path3407"
     d="m 136.53425,136.30799 v 1.63697 c 0,0.16 -0.0738,0.24616 -0.17232,0.32001 -0.32001,0.25847 -0.73848,0.52925 -1.08311,0.52925 -0.6154,0 -0.91079,-0.49233 -0.91079,-0.87388 0,-0.55386 0.28308,-1.10772 1.19388,-1.35388 l 0.97234,-0.25847 m 0,2.27699 c 0.0739,0.25847 0.27078,0.71387 0.9231,0.71387 0.6031,0 1.02157,-0.49233 1.02157,-0.55387 0,-0.0862 -0.0862,-0.18462 -0.13539,-0.18462 -0.0738,0 -0.11077,0.19693 -0.40616,0.19693 -0.48002,0 -0.49233,-0.50463 -0.49233,-1.0708 v -1.8339 c 0,-1.74774 -0.91079,-2.08006 -1.80928,-2.08006 -1.00926,0 -2.03083,0.70156 -2.03083,1.36619 0,0.2954 0.1477,0.43078 0.43078,0.43078 0.35693,0 0.54156,-0.24616 0.54156,-0.40616 0,-0.0862 -0.0123,-0.17231 -0.0369,-0.22155 -0.0123,-0.0369 -0.0246,-0.11077 -0.0246,-0.24616 0,-0.38155 0.55386,-0.55386 1.02156,-0.55386 0.41848,0 0.99696,0.24616 0.99696,1.63697 0,0.0862 -0.0369,0.13539 -0.0738,0.1477 l -1.05849,0.25847 c -1.18158,0.29539 -2.00622,0.94772 -2.00622,1.78467 0,0.97233 0.66464,1.32927 1.5262,1.32927 0.56617,0 0.80003,-0.0985 1.34158,-0.51694 l 0.24616,-0.19693 h 0.0246" /></g>
</svg>
