<?xml version="1.0" encoding="UTF-8" standalone="no"?>
<svg
   xmlns:dc="http://purl.org/dc/elements/1.1/"
   xmlns:cc="http://creativecommons.org/ns#"
   xmlns:rdf="http://www.w3.org/1999/02/22-rdf-syntax-ns#"
   xmlns:svg="http://www.w3.org/2000/svg"
   xmlns="http://www.w3.org/2000/svg"
   viewBox="0 0 115.98668 16.0373"
   enable-background="new 0 0 135 155"
   x="0px"
   y="0px"
   version="1.1"
   width="115.98668"
   height="16.0373"
   xml:space="preserve"
   id="svg3857"><defs
     id="defs492" /><metadata
     id="metadata698"><rdf:RDF><cc:Work
         rdf:about=""><dc:format>image/svg+xml</dc:format><dc:type
           rdf:resource="http://purl.org/dc/dcmitype/StillImage" /><dc:title /></cc:Work></rdf:RDF></metadata><path
     d="M 1.24973,4.24336 0.53368,3.54136 Q 0.91276,3.19035 1.24973,2.85339 1.57265,2.50238 1.92366,2.27774 2.26062,2.03906 2.66779,2.03906 q 0.32292,0 0.51949,0.0842 0.19656,0.0842 0.46333,0.30888 l 0.71605,0.57565 q 0.09828,0.0702 0.18252,0.1404 0.09828,0.0562 0.25272,0.0562 0.18252,0 0.47737,-0.26676 Q 5.57411,2.67086 6.19188,2.02502 L 6.90793,2.72703 Q 6.52885,3.07803 6.19188,3.42903 5.86896,3.766 5.53199,4.00468 5.19503,4.22932 4.78786,4.22932 4.47898,4.22932 4.28241,4.14512 4.08585,4.06092 3.80504,3.83624 L 3.08899,3.26059 Q 2.99071,3.19039 2.90647,3.13423 2.80819,3.06403 2.63971,3.06403 2.45719,3.06403 2.16234,3.33079 1.8675,3.59756 1.24973,4.2434 Z m 2.4008,9.2105 q -1.0811,0 -1.9095,-0.44929 Q 0.9267,12.54124 0.46333,11.69887 0,10.84242 0,9.69117 0,8.59607 0.49141,7.75357 0.99686,6.91116 1.82521,6.43377 2.66762,5.95641 3.69251,5.95641 q 1.1232,0 1.9375,0.4914 0.81433,0.47737 1.2496,1.3057 0.44929,0.81433 0.44929,1.8393 0,0.702 -0.19656,1.3057 -0.18252,0.60373 -0.51949,1.0951 0.40716,0.36504 1.1373,0.36504 h 1.0249 v 1.0951 H 7.80628 q -0.65989,0 -1.0109,-0.21061 -0.351,-0.22464 -0.73009,-0.65989 -0.47737,0.42121 -1.0951,0.64585 -0.60373,0.22465 -1.3198,0.22465 z m 0.02808,-1.0951 q 0.74413,0 1.2636,-0.351 0.53353,-0.36505 0.81433,-0.96878 0.29484,-0.61776 0.29484,-1.3619 0,-1.1653 -0.63181,-1.8954 -0.61777,-0.74413 -1.755,-0.74413 -0.70201,0 -1.2355,0.35101 -0.53353,0.33696 -0.84241,0.95473 -0.30888,0.60373 -0.30888,1.4181 0,0.63181 0.23868,1.2355 0.25272,0.58969 0.77221,0.98282 0.53353,0.37908 1.39,0.37908 z m 4.832,1.0951 q -0.12636,0 -0.351,-0.0702 -0.22464,-0.0702 -0.33696,-0.15445 v -0.87049 h 3.51 v -7.8344 h -2.3307 v -1.0951 h 5.9109 v 1.0951 h -2.3307 v 7.2868 q 0,0.85646 -0.49141,1.2496 -0.49141,0.39313 -1.2215,0.39313 z m 15.11,2.58 q -0.32292,0 -0.54757,-0.19656 -0.23868,-0.19657 -0.23868,-0.64585 0,-0.44929 0.23868,-0.64585 0.22464,-0.19656 0.54757,-0.19656 0.30888,0 0.54757,0.19656 0.23868,0.19656 0.23868,0.64585 0,0.44928 -0.23868,0.64585 -0.239,0.2 -0.548,0.2 z m -3.9172,-2.5834 3.2854,-7.2026 h 1.2496 l 2.78,6.1075 h 1.4181 v 1.0951 h -2.2605 l -1.7129,-3.7768 q -0.23868,-0.53353 -0.44929,-1.053 -0.2106,-0.53352 -0.40717,-1.1092 -0.40716,1.1653 -0.89857,2.2464 l -1.6567,3.6926 z m 8.4682,0 q -0.12636,0 -0.351,-0.0702 -0.22464,-0.0702 -0.33696,-0.15445 v -0.87049 h 5.6301 v -7.8344 h -1.8954 q -0.51949,0 -0.71605,0.30888 -0.19656,0.30889 -0.19656,0.82837 v 2.106 h -1.2496 v -2.2043 q 0,-2.1341 2.2605,-2.1341 h 3.0467 v 8.1293 q 0.36504,0.80029 1.4461,0.80029 h 0.26676 v 1.0951 h -0.47737 q -0.53353,0 -0.82837,-0.19657 -0.29484,-0.19656 -0.58969,-0.58968 -0.2106,0.40716 -0.61777,0.60372 -0.40716,0.18253 -0.91261,0.18253 z m 6.9067,-11.232 -0.71605,-0.70201 q 0.37908,-0.351 0.71605,-0.68797 0.32292,-0.351 0.67393,-0.57565 0.33696,-0.23868 0.74413,-0.23868 0.32292,0 0.51949,0.0842 0.19656,0.0842 0.46333,0.30889 l 0.71605,0.57564 q 0.09828,0.0702 0.18252,0.1404 0.09828,0.0562 0.25272,0.0562 0.18252,0 0.47737,-0.26677 Q 39.40269,0.64595 40.02046,1e-4 l 0.71605,0.70201 q -0.37908,0.351 -0.71605,0.70201 -0.32292,0.33696 -0.65989,0.57565 -0.33696,0.22464 -0.74413,0.22464 -0.30888,0 -0.50545,-0.0842 -0.19656,-0.0842 -0.47737,-0.30889 L 36.91757,1.23568 q -0.09828,-0.0702 -0.18252,-0.12637 -0.09828,-0.0702 -0.26676,-0.0702 -0.18252,0 -0.47737,0.26677 -0.29484,0.26676 -0.91261,0.91261 z m 0.74412,11.232 q -0.12636,0 -0.351,-0.0702 -0.22464,-0.0702 -0.33696,-0.15445 v -0.87049 h 1.7129 v -8.9296 h 1.2496 v 8.1293 q 0.351,0.80029 1.4461,0.80029 h 0.26676 v 1.0951 h -0.47737 q -0.53353,0 -0.82837,-0.19657 -0.29484,-0.19656 -0.58969,-0.58968 -0.2106,0.40716 -0.61777,0.60372 -0.40716,0.18253 -0.91261,0.18253 z m 3.7294,0 q -0.12636,0 -0.351,-0.0702 -0.22464,-0.0702 -0.33696,-0.15445 v -0.87049 h 4.6754 v -3.861 h -0.57565 q -1.5023,0 -2.2464,-0.73009 -0.73009,-0.73009 -0.73009,-1.8533 0,-0.78625 0.32292,-1.3338 0.32292,-0.56161 0.88453,-0.85645 0.56161,-0.29485 1.2636,-0.29485 1.1513,0 1.741,0.70201 0.58969,0.70201 0.58969,1.7972 v 1.4742 h 2.1201 v 1.0951 h -2.1201 v 3.0608 q 0.36504,0.80029 1.4461,0.80029 h 1.6989 v 1.0951 h -1.6427 q -0.63181,0 -0.98281,-0.19657 -0.33696,-0.2106 -0.70201,-0.60372 -0.2106,0.40716 -0.61777,0.60372 -0.39312,0.19657 -0.91261,0.19657 z m 3.4539,-6.0513 h 0.53353 v -1.5725 q 0,-0.61777 -0.2808,-0.95474 -0.26676,-0.351 -0.81433,-0.351 -0.53353,0 -0.87049,0.36504 -0.33696,0.35101 -0.33696,0.96878 0,0.70201 0.4212,1.1232 0.42121,0.42121 1.3479,0.42121 z m 5.0141,-5.1808 -0.71605,-0.70201 q 0.37908,-0.351 0.71605,-0.68797 0.32292,-0.351 0.67393,-0.57565 0.33696,-0.23868 0.74413,-0.23868 0.32292,0 0.51949,0.0842 0.19656,0.0842 0.46333,0.30889 l 0.71605,0.57564 q 0.09828,0.0702 0.18252,0.1404 0.09828,0.0562 0.25272,0.0562 0.18252,0 0.47737,-0.26677 Q 52.34421,0.64585 52.96198,0 l 0.71605,0.70201 q -0.37908,0.351 -0.71605,0.70201 -0.32292,0.33696 -0.65989,0.57565 -0.33696,0.22464 -0.74413,0.22464 -0.30888,0 -0.50545,-0.0842 -0.19656,-0.0842 -0.47737,-0.30889 L 49.85909,1.23558 q -0.09828,-0.0702 -0.18252,-0.12637 -0.09828,-0.0702 -0.26676,-0.0702 -0.18252,0 -0.47737,0.26677 -0.29484,0.26676 -0.91261,0.91261 z m -0.35103,11.232 q -0.12636,0 -0.351,-0.0702 -0.22464,-0.0702 -0.33696,-0.15445 v -0.87049 h 2.9204 v -3.8189 l -2.3868,-5.1106 h 1.2355 l 1.2075,2.6255 q 0.1404,0.30888 0.29484,0.67393 0.15444,0.351 0.26676,0.67393 0.11232,-0.32293 0.25272,-0.65989 0.15444,-0.35101 0.29484,-0.64585 l 1.2355,-2.6676 h 1.2355 l -2.3868,5.1106 v 3.0186 q 0.351,0.80029 1.4461,0.80029 h 1.4742 v 1.0951 h -1.417 q -0.63181,0 -0.98281,-0.19657 -0.33696,-0.2106 -0.70201,-0.60372 -0.2106,0.40716 -0.61777,0.60372 -0.39312,0.19657 -0.91261,0.19657 z m 6.1426,0 q -0.12636,0 -0.351,-0.0702 -0.22464,-0.0702 -0.33696,-0.15445 v -0.87049 h 1.7129 v -8.9296 h 3.6926 v 1.0951 h -2.443 v 2.8923 h 2.443 v 1.0951 h -2.443 v 3.0467 q 0.351,0.80029 1.4461,0.80029 h 2.429 v 1.0951 h -2.3728 q -0.63181,0 -0.98281,-0.19657 -0.33696,-0.2106 -0.70201,-0.60372 -0.2106,0.40716 -0.61777,0.60372 -0.39312,0.19657 -0.91261,0.19657 z m 5.8958,0 q -0.12636,0 -0.351,-0.0702 -0.22464,-0.0702 -0.33696,-0.15445 v -0.87049 h 1.7129 v -8.9296 h 1.2496 v 8.1293 q 0.351,0.80029 1.4461,0.80029 h 0.26676 v 1.0951 h -0.47737 q -0.53353,0 -0.82837,-0.19657 -0.29484,-0.19656 -0.58969,-0.58968 -0.2106,0.40716 -0.61777,0.60372 -0.40716,0.18253 -0.91261,0.18253 z m 3.7294,0 q -0.12636,0 -0.351,-0.0702 -0.22464,-0.0702 -0.33696,-0.15445 v -0.87049 h 4.6754 v -3.861 h -0.57565 q -1.5023,0 -2.2464,-0.73009 -0.73009,-0.73009 -0.73009,-1.8533 0,-0.78625 0.32292,-1.3338 0.32292,-0.56161 0.88453,-0.85645 0.56161,-0.29485 1.2636,-0.29485 1.1513,0 1.741,0.70201 0.58969,0.70201 0.58969,1.7972 v 1.4742 h 2.1201 v 1.0951 h -2.119 v 3.3135 q 0,0.85646 -0.49141,1.2496 -0.49141,0.39313 -1.2215,0.39313 z m 3.4539,-6.0513 h 0.53353 v -1.5725 q 0,-0.61777 -0.2808,-0.95474 -0.26676,-0.351 -0.81433,-0.351 -0.53353,0 -0.87049,0.36504 -0.33696,0.35101 -0.33696,0.96878 0,0.70201 0.4212,1.1232 0.42121,0.42121 1.3479,0.42121 z m 9.5598,-3.3178 V 3.08441 h 5.3634 v 0.99685 z m -0.22465,9.3692 v -7.2026 h 1.2496 v 6.1075 h 3.3556 v -6.1075 h 1.2496 v 5.3353 q 0.36504,0.77221 1.4321,0.77221 h 0.26676 v 1.0951 h -0.47737 q -0.53353,0 -0.82837,-0.19657 -0.29484,-0.19656 -0.58969,-0.58968 -0.2106,0.40716 -0.61777,0.60372 -0.40716,0.18253 -0.91261,0.18253 z m 7.284,0 q -0.12636,0 -0.351,-0.0702 -0.22464,-0.0702 -0.33696,-0.15445 v -0.87049 h 5.6301 v -5.0123 h -2.808 v 2.092 h -1.2496 v -5.0123 h 1.2496 v 1.8252 h 2.808 v -2.8221 h 1.2496 v 8.1293 q 0.36504,0.80029 1.4461,0.80029 h 0.26676 v 1.0951 h -0.47737 q -0.53352,0 -0.82837,-0.19657 -0.29484,-0.19656 -0.58969,-0.58968 -0.2106,0.40716 -0.61777,0.60372 -0.40717,0.18253 -0.91261,0.18253 z m 7.6508,0 q -0.12636,0 -0.35101,-0.0702 -0.22464,-0.0702 -0.33696,-0.15445 v -0.87049 h 2.3868 q -0.44928,-0.4914 -0.70201,-1.1653 -0.23868,-0.67393 -0.23868,-1.5023 0,-1.0951 0.49141,-1.9376 0.50544,-0.84241 1.3338,-1.3198 0.84241,-0.47736 1.8674,-0.47736 1.1232,0 1.9375,0.4914 0.81433,0.47737 1.2496,1.3057 0.44928,0.81433 0.44928,1.8393 0,0.702 -0.19656,1.3057 -0.18252,0.60373 -0.51948,1.0951 0.40716,0.36504 1.1372,0.36504 h 1.0249 v 1.0951 h -0.96877 q -0.65989,0 -1.0109,-0.21061 -0.35101,-0.22464 -0.73009,-0.65989 -0.47737,0.42121 -1.0951,0.64585 -0.60372,0.22465 -1.3198,0.22465 z m 4.4367,-1.0951 q 0.74413,0 1.2636,-0.351 0.53353,-0.36505 0.81433,-0.96878 0.29485,-0.61776 0.29485,-1.3619 0,-1.1653 -0.63181,-1.8954 -0.61777,-0.74413 -1.755,-0.74413 -0.70201,0 -1.2355,0.35101 -0.53353,0.33696 -0.84241,0.95473 -0.30888,0.60373 -0.30888,1.4181 0,0.63181 0.23868,1.2355 0.25272,0.58969 0.77221,0.98282 0.53353,0.37908 1.39,0.37908 z m 4.832,1.0951 q -0.12636,0 -0.351,-0.0702 -0.22464,-0.0702 -0.33696,-0.15445 v -0.87049 h 1.7129 v -2.27 q 0,-1.6146 0.58969,-2.3868 0.58968,-0.78625 1.6427,-0.78625 0.57564,0 1.0109,0.23868 0.43525,0.22465 0.63181,0.58969 0.22464,-0.70201 0.78625,-1.1513 0.56161,-0.44929 1.404,-0.44929 1.2074,0 1.8954,0.77221 0.68797,0.75817 0.68797,2.3588 v 2.2745 q 0.36505,0.80029 1.4461,0.80029 h 0.56161 v 1.0951 h -0.77221 q -0.53353,0 -0.82837,-0.19657 -0.29485,-0.19656 -0.58969,-0.58968 -0.2106,0.40716 -0.61777,0.60372 -0.40717,0.18253 -0.91261,0.18253 z m 5.6863,-1.0951 h 2.7378 v -3.2292 q 0,-0.88453 -0.32292,-1.3759 -0.30888,-0.50545 -1.0249,-0.50545 -0.71605,0 -1.053,0.54757 -0.33696,0.53353 -0.33696,1.4321 z m -3.4118,0 h 2.1622 v -2.443 q 0,-0.87049 -0.23868,-1.3759 -0.22464,-0.51949 -0.84241,-0.51949 -0.44929,0 -0.68797,0.26677 -0.22464,0.25272 -0.30889,0.70201 -0.0842,0.44928 -0.0842,1.0249 z m 8.8589,1.0951 q -0.12636,0 -0.351,-0.0702 -0.22465,-0.0702 -0.33697,-0.15445 v -0.87049 h 3.8751 v -3.847 h -2.443 v -1.0951 h 2.443 v -2.8923 h -2.443 v -1.0951 h 3.68 v 8.382 q 0,0.85646 -0.49141,1.2496 -0.4914,0.39313 -1.2215,0.39313 z"
     id="The_Free_Encyclopedia" /></svg>
