<?xml version="1.0" encoding="UTF-8" standalone="no"?>
<svg
   xmlns:dc="http://purl.org/dc/elements/1.1/"
   xmlns:cc="http://creativecommons.org/ns#"
   xmlns:rdf="http://www.w3.org/1999/02/22-rdf-syntax-ns#"
   xmlns:svg="http://www.w3.org/2000/svg"
   xmlns="http://www.w3.org/2000/svg"
   id="svg3857"
   xml:space="preserve"
   enable-background="new 0 0 135 155"
   viewBox="0 0 117.17246 12.11776"
   height="12.11776"
   width="117.17246"
   y="0px"
   x="0px"
   version="1.1"><metadata
     id="metadata4852"><rdf:RDF><cc:Work
         rdf:about=""><dc:format>image/svg+xml</dc:format><dc:type
           rdf:resource="http://purl.org/dc/dcmitype/StillImage" /><dc:title /></cc:Work></rdf:RDF></metadata><defs
     id="defs4850"><radialGradient
       id="SVGID_1_"
       cx="-145.4702"
       cy="87.823196"
       r="68.686401"
       gradientTransform="matrix(1,0,0,-1,192.3999,143.0996)"
       gradientUnits="userSpaceOnUse">
		<stop
   offset="0"
   style="stop-color:#FFFFFF"
   id="stop3922" />
		<stop
   offset="0.4835"
   style="stop-color:#EAEAEB"
   id="stop3924" />
		<stop
   offset="0.9451"
   style="stop-color:#A9ABAE"
   id="stop3926" />
		<stop
   offset="1"
   style="stop-color:#999B9E"
   id="stop3928" />
	</radialGradient><linearGradient
       id="SVGID_2_"
       gradientUnits="userSpaceOnUse"
       x1="66.232399"
       y1="24.481001"
       x2="112.7331"
       y2="97.232101">
		<stop
   offset="0"
   style="stop-color:#8A8A8A"
   id="stop3935" />
		<stop
   offset="0.5687"
   style="stop-color:#606060"
   id="stop3937" />
		<stop
   offset="0.5914"
   style="stop-color:#FFFFFF"
   id="stop3939" />
		<stop
   offset="0.6116"
   style="stop-color:#585858"
   id="stop3941" />
		<stop
   offset="1"
   style="stop-color:#303030"
   id="stop3943" />
	</linearGradient><linearGradient
       id="SVGID_5_"
       gradientUnits="userSpaceOnUse"
       x1="54.715801"
       y1="65.136703"
       x2="83.798798"
       y2="65.136703">
		<stop
   offset="0"
   style="stop-color:#231F20"
   id="stop3964" />
		<stop
   offset="1"
   style="stop-color:#474747"
   id="stop3966" />
	</linearGradient><linearGradient
       id="SVGID_6_"
       gradientUnits="userSpaceOnUse"
       x1="-123.5898"
       y1="119.8076"
       x2="-94.069099"
       y2="29.9035"
       gradientTransform="matrix(1,0,0,-1,192.3999,143.0996)">
		<stop
   offset="0"
   style="stop-color:#FFFFFF"
   id="stop3997" />
		<stop
   offset="0.0094"
   style="stop-color:#FCFCFC"
   id="stop3999" />
		<stop
   offset="0.0655"
   style="stop-color:#EEEEEE"
   id="stop4001" />
		<stop
   offset="0.1342"
   style="stop-color:#E5E5E5"
   id="stop4003" />
		<stop
   offset="0.2515"
   style="stop-color:#E3E3E3"
   id="stop4005" />
		<stop
   offset="0.3357"
   style="stop-color:#8A8A8A"
   id="stop4007" />
		<stop
   offset="0.4422"
   style="stop-color:#B8B8B8"
   id="stop4009" />
		<stop
   offset="1"
   style="stop-color:#3B3B3B"
   id="stop4011" />
	</linearGradient><linearGradient
       id="SVGID_7_"
       gradientUnits="userSpaceOnUse"
       x1="70.421898"
       y1="26.876499"
       x2="119.5471"
       y2="87.626701">
		<stop
   offset="0"
   style="stop-color:#EFF0F0"
   id="stop4016" />
		<stop
   offset="0.5914"
   style="stop-color:#F0F1F2"
   id="stop4018" />
		<stop
   offset="0.599"
   style="stop-color:#787878"
   id="stop4020" />
		<stop
   offset="0.6456"
   style="stop-color:#EEEFF0"
   id="stop4022" />
		<stop
   offset="1"
   style="stop-color:#D8D9DB"
   id="stop4024" />
	</linearGradient><linearGradient
       id="SVGID_8_"
       gradientUnits="userSpaceOnUse"
       x1="-117.166"
       y1="122.1328"
       x2="-87.569702"
       y2="31.998501"
       gradientTransform="matrix(1,0,0,-1,192.3999,143.0996)">
		<stop
   offset="0"
   style="stop-color:#FFFFFF"
   id="stop4029" />
		<stop
   offset="1"
   style="stop-color:#E4E5E6"
   id="stop4031" />
	</linearGradient><linearGradient
       id="SVGID_9_"
       gradientUnits="userSpaceOnUse"
       x1="54.653301"
       y1="25.2764"
       x2="79.683601"
       y2="106.3903">
		<stop
   offset="0"
   style="stop-color:#FFFFFF"
   id="stop4036" />
		<stop
   offset="0.7473"
   style="stop-color:#F9F9F9"
   id="stop4038" />
		<stop
   offset="1"
   style="stop-color:#D5D7D8"
   id="stop4040" />
	</linearGradient><linearGradient
       id="SVGID_10_"
       gradientUnits="userSpaceOnUse"
       x1="-115.3369"
       y1="119.6328"
       x2="-134.85719"
       y2="24.6462"
       gradientTransform="matrix(1,0,0,-1,192.3999,143.0996)">
		<stop
   offset="0"
   style="stop-color:#FFFFFF"
   id="stop4061" />
		<stop
   offset="1"
   style="stop-color:#E4E5E6"
   id="stop4063" />
	</linearGradient><linearGradient
       id="SVGID_11_"
       gradientUnits="userSpaceOnUse"
       x1="32.519001"
       y1="33.077099"
       x2="37.2481"
       y2="92.496101">
		<stop
   offset="0.2198"
   style="stop-color:#989A9C"
   id="stop4068" />
		<stop
   offset="0.2527"
   style="stop-color:#FFFFFF"
   id="stop4070" />
	</linearGradient><linearGradient
       id="SVGID_12_"
       gradientUnits="userSpaceOnUse"
       x1="-152.6201"
       y1="126.8398"
       x2="-171.9462"
       y2="32.797901"
       gradientTransform="matrix(1,0,0,-1,192.3999,143.0996)">
		<stop
   offset="0"
   style="stop-color:#FFFFFF"
   id="stop4075" />
		<stop
   offset="1"
   style="stop-color:#E4E5E6"
   id="stop4077" />
	</linearGradient><linearGradient
       id="SVGID_13_"
       gradientUnits="userSpaceOnUse"
       x1="-130.1348"
       y1="35.625"
       x2="-130.14281"
       y2="35.585701"
       gradientTransform="matrix(1,0,0,-1,192.3999,143.0996)">
		<stop
   offset="0"
   style="stop-color:#FFFFFF"
   id="stop4082" />
		<stop
   offset="1"
   style="stop-color:#E4E5E6"
   id="stop4084" />
	</linearGradient><linearGradient
       id="SVGID_14_"
       gradientUnits="userSpaceOnUse"
       x1="-121.1382"
       y1="120.3223"
       x2="-140.54491"
       y2="25.888"
       gradientTransform="matrix(1,0,0,-1,192.3999,143.0996)">
		<stop
   offset="0"
   style="stop-color:#FFFFFF"
   id="stop4093" />
		<stop
   offset="1"
   style="stop-color:#E4E5E6"
   id="stop4095" />
	</linearGradient><linearGradient
       id="SVGID_15_"
       gradientUnits="userSpaceOnUse"
       x1="-135.58591"
       y1="123.3525"
       x2="-155.006"
       y2="28.8524"
       gradientTransform="matrix(1,0,0,-1,192.3999,143.0996)">
		<stop
   offset="0"
   style="stop-color:#FFFFFF"
   id="stop4100" />
		<stop
   offset="1"
   style="stop-color:#E4E5E6"
   id="stop4102" />
	</linearGradient><linearGradient
       id="SVGID_16_"
       gradientUnits="userSpaceOnUse"
       x1="-127.4014"
       y1="121.9365"
       x2="-146.8837"
       y2="27.1346"
       gradientTransform="matrix(1,0,0,-1,192.3999,143.0996)">
		<stop
   offset="0"
   style="stop-color:#FFFFFF"
   id="stop4107" />
		<stop
   offset="1"
   style="stop-color:#E4E5E6"
   id="stop4109" />
	</linearGradient><linearGradient
       id="SVGID_17_"
       gradientUnits="userSpaceOnUse"
       x1="-118.4946"
       y1="124.0039"
       x2="-138.85201"
       y2="24.9438"
       gradientTransform="matrix(1,0,0,-1,192.3999,143.0996)">
		<stop
   offset="0"
   style="stop-color:#FFFFFF"
   id="stop4114" />
		<stop
   offset="1"
   style="stop-color:#E4E5E6"
   id="stop4116" />
	</linearGradient><linearGradient
       id="SVGID_18_"
       gradientUnits="userSpaceOnUse"
       x1="-115.3716"
       y1="119.1758"
       x2="-134.7878"
       y2="24.695299"
       gradientTransform="matrix(1,0,0,-1,192.3999,143.0996)">
		<stop
   offset="0"
   style="stop-color:#FFFFFF"
   id="stop4121" />
		<stop
   offset="1"
   style="stop-color:#E4E5E6"
   id="stop4123" />
	</linearGradient><linearGradient
       id="SVGID_21_"
       gradientUnits="userSpaceOnUse"
       x1="-175.4424"
       y1="83.6045"
       x2="-75.6362"
       y2="83.6045"
       gradientTransform="matrix(1,0,0,-1,192.3999,143.0996)">
		<stop
   offset="0"
   style="stop-color:#555555"
   id="stop4198" />
		<stop
   offset="1"
   style="stop-color:#231F20"
   id="stop4200" />
	</linearGradient><linearGradient
       id="SVGID_22_"
       gradientUnits="userSpaceOnUse"
       x1="-175.14211"
       y1="104.0801"
       x2="-83.541"
       y2="104.0801"
       gradientTransform="matrix(1,0,0,-1,192.3999,143.0996)">
		<stop
   offset="0"
   style="stop-color:#A0A0A0"
   id="stop4205" />
		<stop
   offset="0.0769"
   style="stop-color:#656767"
   id="stop4207" />
		<stop
   offset="1"
   style="stop-color:#717375"
   id="stop4209" />
	</linearGradient><linearGradient
       id="SVGID_23_"
       gradientUnits="userSpaceOnUse"
       x1="-172.3853"
       y1="78.209"
       x2="-172.3853"
       y2="78.209"
       gradientTransform="matrix(1,0,0,-1,192.3999,143.0996)">
		<stop
   offset="0"
   style="stop-color:#FFFFFF"
   id="stop4224" />
		<stop
   offset="0.078"
   style="stop-color:#F4F4F4"
   id="stop4226" />
		<stop
   offset="0.3807"
   style="stop-color:#CECECE"
   id="stop4228" />
		<stop
   offset="0.5396"
   style="stop-color:#BFBFBF"
   id="stop4230" />
		<stop
   offset="0.8357"
   style="stop-color:#7C7C7C"
   id="stop4232" />
		<stop
   offset="0.8996"
   style="stop-color:#A8A8A8"
   id="stop4234" />
		<stop
   offset="0.9093"
   style="stop-color:#9A9A9A"
   id="stop4236" />
		<stop
   offset="0.9327"
   style="stop-color:#7D7D7D"
   id="stop4238" />
		<stop
   offset="0.9558"
   style="stop-color:#686868"
   id="stop4240" />
		<stop
   offset="0.9785"
   style="stop-color:#5B5B5B"
   id="stop4242" />
		<stop
   offset="1"
   style="stop-color:#575757"
   id="stop4244" />
	</linearGradient><linearGradient
       id="SVGID_24_"
       gradientUnits="userSpaceOnUse"
       x1="-175.7173"
       y1="78.449203"
       x2="-67.153198"
       y2="90.476799"
       gradientTransform="matrix(1,0,0,-1,192.3999,143.0996)">
		<stop
   offset="0"
   style="stop-color:#FFFFFF"
   id="stop4249" />
		<stop
   offset="0.078"
   style="stop-color:#F4F4F4"
   id="stop4251" />
		<stop
   offset="0.3807"
   style="stop-color:#CECECE"
   id="stop4253" />
		<stop
   offset="0.5396"
   style="stop-color:#BFBFBF"
   id="stop4255" />
		<stop
   offset="0.8357"
   style="stop-color:#7C7C7C"
   id="stop4257" />
		<stop
   offset="0.8996"
   style="stop-color:#A8A8A8"
   id="stop4259" />
		<stop
   offset="0.9093"
   style="stop-color:#9A9A9A"
   id="stop4261" />
		<stop
   offset="0.9327"
   style="stop-color:#7D7D7D"
   id="stop4263" />
		<stop
   offset="0.9558"
   style="stop-color:#686868"
   id="stop4265" />
		<stop
   offset="0.9785"
   style="stop-color:#5B5B5B"
   id="stop4267" />
		<stop
   offset="1"
   style="stop-color:#575757"
   id="stop4269" />
	</linearGradient><linearGradient
       id="SVGID_25_"
       gradientUnits="userSpaceOnUse"
       x1="-176.1851"
       y1="78.4795"
       x2="-52.131699"
       y2="92.223099"
       gradientTransform="matrix(1,0,0,-1,192.3999,143.0996)">
		<stop
   offset="0"
   style="stop-color:#FFFFFF"
   id="stop4274" />
		<stop
   offset="0.078"
   style="stop-color:#F4F4F4"
   id="stop4276" />
		<stop
   offset="0.3807"
   style="stop-color:#CECECE"
   id="stop4278" />
		<stop
   offset="0.5396"
   style="stop-color:#BFBFBF"
   id="stop4280" />
		<stop
   offset="0.8357"
   style="stop-color:#7C7C7C"
   id="stop4282" />
		<stop
   offset="0.8996"
   style="stop-color:#A8A8A8"
   id="stop4284" />
		<stop
   offset="0.9093"
   style="stop-color:#9A9A9A"
   id="stop4286" />
		<stop
   offset="0.9327"
   style="stop-color:#7D7D7D"
   id="stop4288" />
		<stop
   offset="0.9558"
   style="stop-color:#686868"
   id="stop4290" />
		<stop
   offset="0.9785"
   style="stop-color:#5B5B5B"
   id="stop4292" />
		<stop
   offset="1"
   style="stop-color:#575757"
   id="stop4294" />
	</linearGradient><linearGradient
       id="SVGID_26_"
       gradientUnits="userSpaceOnUse"
       x1="21.2129"
       y1="71.326698"
       x2="117.1948"
       y2="51.952599">
		<stop
   offset="0"
   style="stop-color:#EDEDEE"
   id="stop4299" />
		<stop
   offset="0.4176"
   style="stop-color:#FFFFFF"
   id="stop4301" />
		<stop
   offset="0.6264"
   style="stop-color:#F8F9F9"
   id="stop4303" />
		<stop
   offset="1"
   style="stop-color:#BFC0C2"
   id="stop4305" />
	</linearGradient><linearGradient
       id="SVGID_27_"
       gradientUnits="userSpaceOnUse"
       x1="23.471201"
       y1="30.732401"
       x2="27.9561"
       y2="30.732401">
		<stop
   offset="0"
   style="stop-color:#E2E3E4"
   id="stop4316" />
		<stop
   offset="0.5055"
   style="stop-color:#FFFFFF"
   id="stop4318" />
	</linearGradient><linearGradient
       id="SVGID_34_"
       gradientUnits="userSpaceOnUse"
       x1="22.5742"
       y1="49.7188"
       x2="111.5455"
       y2="29.204">
		<stop
   offset="0"
   style="stop-color:#FFFFFF"
   id="stop4743" />
		<stop
   offset="0.6538"
   style="stop-color:#FFFFFF"
   id="stop4745" />
		<stop
   offset="1"
   style="stop-color:#CBCCCE"
   id="stop4747" />
	</linearGradient><linearGradient
       id="SVGID_35_"
       gradientUnits="userSpaceOnUse"
       x1="-158.8101"
       y1="107.0898"
       x2="-126.4229"
       y2="107.0898"
       gradientTransform="matrix(1,0,0,-1,192.3999,143.0996)">
		<stop
   offset="0"
   style="stop-color:#696969"
   id="stop4770" />
		<stop
   offset="0.3702"
   style="stop-color:#2E2E2E"
   id="stop4772" />
		<stop
   offset="0.4554"
   style="stop-color:#424242"
   id="stop4774" />
		<stop
   offset="0.6014"
   style="stop-color:#303030"
   id="stop4776" />
		<stop
   offset="0.6947"
   style="stop-color:#4A4A4A"
   id="stop4778" />
		<stop
   offset="1"
   style="stop-color:#666666"
   id="stop4780" />
	</linearGradient><linearGradient
       id="SVGID_36_"
       gradientUnits="userSpaceOnUse"
       x1="-158.4185"
       y1="107.8965"
       x2="-126.5454"
       y2="107.8965"
       gradientTransform="matrix(1,0,0,-1,192.3999,143.0996)">
		<stop
   offset="0"
   style="stop-color:#525252"
   id="stop4785" />
		<stop
   offset="0.1856"
   style="stop-color:#333333"
   id="stop4787" />
		<stop
   offset="0.354"
   style="stop-color:#AEAEAE"
   id="stop4789" />
		<stop
   offset="0.4199"
   style="stop-color:#ADADAD"
   id="stop4791" />
		<stop
   offset="0.4276"
   style="stop-color:#9D9D9D"
   id="stop4793" />
		<stop
   offset="0.4433"
   style="stop-color:#818181"
   id="stop4795" />
		<stop
   offset="0.4611"
   style="stop-color:#6A6A6A"
   id="stop4797" />
		<stop
   offset="0.4814"
   style="stop-color:#585858"
   id="stop4799" />
		<stop
   offset="0.506"
   style="stop-color:#4C4C4C"
   id="stop4801" />
		<stop
   offset="0.539"
   style="stop-color:#444444"
   id="stop4803" />
		<stop
   offset="0.6166"
   style="stop-color:#424242"
   id="stop4805" />
		<stop
   offset="0.6684"
   style="stop-color:#454545"
   id="stop4807" />
		<stop
   offset="1"
   style="stop-color:#BDBDBD"
   id="stop4809" />
	</linearGradient><linearGradient
       id="SVGID_37_"
       gradientUnits="userSpaceOnUse"
       x1="-153.1255"
       y1="97.627899"
       x2="-154.15421"
       y2="104.4332"
       gradientTransform="matrix(1,0,0,-1,192.3999,143.0996)">
		<stop
   offset="0"
   style="stop-color:#969696"
   id="stop4814" />
		<stop
   offset="1"
   style="stop-color:#000000"
   id="stop4816" />
	</linearGradient><linearGradient
       id="SVGID_38_"
       gradientUnits="userSpaceOnUse"
       x1="38.737301"
       y1="46.373001"
       x2="39.487301"
       y2="38.790001">
		<stop
   offset="0"
   style="stop-color:#333333"
   id="stop4825" />
		<stop
   offset="0.431"
   style="stop-color:#000000"
   id="stop4827" />
		<stop
   offset="1"
   style="stop-color:#2E2E2E"
   id="stop4829" />
	</linearGradient><radialGradient
       id="SVGID_39_"
       cx="-138.2334"
       cy="106.5996"
       r="72.751701"
       gradientTransform="matrix(1,0,0,-1,192.3999,143.0996)"
       gradientUnits="userSpaceOnUse">
		<stop
   offset="0"
   style="stop-color:#000000;stop-opacity:0;"
   id="stop4840" />
		<stop
   offset="0.80220002"
   style="stop-color:#000000;stop-opacity:0.08;"
   id="stop4842" />
		<stop
   offset="1"
   style="stop-color:#000000;stop-opacity:0.3882353;"
   id="stop4844" />
	</radialGradient></defs><g
     id="the_free_encyclopedia"
     style="font-style:normal;font-variant:normal;font-weight:normal;font-stretch:normal;font-size:13px;line-height:125%;font-family:'Linux Libertine';text-align:start;text-anchor:start;fill:#000000;fill-opacity:1;stroke:none"
     transform="translate(-8.9087496,-141.92282)"><path
       id="path4712"
       d="m 13.498105,142.79883 c 0.02115,0.16081 0.04231,0.35336 0.06348,0.57763 0.02538,0.22006 0.04866,0.41261 0.06982,0.57764 0.02115,0.16082 0.04866,0.33432 0.08252,0.52051 l -0.399902,0.0762 c -0.05925,-0.19889 -0.116378,-0.36604 -0.171387,-0.50146 -0.05079,-0.13964 -0.124841,-0.28776 -0.222168,-0.44434 -0.09733,-0.1608 -0.207361,-0.28775 -0.330078,-0.38086 -0.118493,-0.0973 -0.272953,-0.17773 -0.463379,-0.24121 -0.190433,-0.0635 -0.406253,-0.0952 -0.647461,-0.0952 -0.418948,0 -0.761721,0.14177 -1.02832,0.42529 -0.266603,0.2793 -0.399904,0.62208 -0.399902,1.02832 -2e-6,0.75749 0.588214,1.34782 1.764648,1.77099 0.249671,0.0889 0.469723,0.17774 0.660156,0.26661 0.194658,0.0846 0.397782,0.20101 0.609375,0.34912 0.215816,0.14388 0.39355,0.29834 0.533204,0.46338 0.139643,0.16504 0.256016,0.37028 0.349121,0.61572 0.09309,0.24544 0.139642,0.51205 0.139648,0.7998 -6e-6,0.67286 -0.264491,1.26107 -0.793457,1.76465 -0.528976,0.50358 -1.161625,0.75537 -1.897949,0.75537 -0.393557,0 -0.810386,-0.0317 -1.250488,-0.0952 -0.4401059,-0.0635 -0.7765314,-0.0952 -1.0092778,-0.0952 -0.02116,-0.45703 -0.103679,-1.15104 -0.2475586,-2.08203 l 0.3999023,-0.0381 c 0.2581369,1.23144 0.9944641,1.84716 2.2089841,1.84716 0.499346,0 0.882321,-0.13541 1.148926,-0.40625 0.266597,-0.27083 0.399898,-0.66861 0.399902,-1.19336 -4e-6,-0.27506 -0.03597,-0.51415 -0.10791,-0.71728 -0.07194,-0.20735 -0.179854,-0.38086 -0.32373,-0.52051 -0.143884,-0.14388 -0.291996,-0.25813 -0.444336,-0.34277 -0.152347,-0.0889 -0.340661,-0.17773 -0.564942,-0.2666 -0.279299,-0.10579 -0.518394,-0.20524 -0.717285,-0.29834 -0.198895,-0.0931 -0.416831,-0.2137 -0.653808,-0.36182 -0.232749,-0.15234 -0.4231787,-0.31103 -0.5712894,-0.47607 -0.1438812,-0.16504 -0.2666025,-0.36605 -0.368164,-0.60303 -0.097332,-0.24121 -0.1459968,-0.50146 -0.1459961,-0.78076 -7e-7,-0.4401 0.1248364,-0.83577 0.3745117,-1.18701 0.2496732,-0.35123 0.5564758,-0.61572 0.9204098,-0.79346 0.368162,-0.18196 0.746905,-0.27294 1.136231,-0.27295 0.355465,1e-5 0.634762,0.0212 0.83789,0.0635 0.203121,0.0423 0.387203,0.0952 0.552247,0.15869 0.165034,0.0635 0.334305,0.10792 0.507812,0.1333" /><path
       id="path4714"
       d="m 15.772129,150.06689 v -6.38574 c -2e-6,-0.40201 -0.03174,-0.67073 -0.09521,-0.80615 -0.05925,-0.13964 -0.158693,-0.20946 -0.29834,-0.20947 l -0.412598,-0.0254 c -0.05501,1e-5 -0.08252,-0.0212 -0.08252,-0.0635 l -0.02539,-0.31104 c 0.270833,-0.0212 0.590331,-0.0656 0.958496,-0.1333 0.368163,-0.0719 0.634764,-0.14175 0.799805,-0.20947 0.110024,1e-5 0.165037,0.0444 0.165039,0.1333 -0.02539,0.34702 -0.03809,0.80193 -0.03809,1.36475 v 6.64599 c -2e-6,0.19043 0.03808,0.32585 0.114258,0.40625 0.07617,0.0804 0.220049,0.13119 0.43164,0.15235 l 0.311036,0.0254 c 0.07194,0 0.107907,0.0339 0.10791,0.10156 v 0.24756 l -0.02539,0.0254 C 16.811026,151.00846 16.328605,151 16.235507,151 c -0.0804,0 -0.552247,0.008 -1.415527,0.0254 L 14.807285,151 v -0.24756 c 0,-0.0677 0.02962,-0.10156 0.08887,-0.10156 l 0.311035,-0.0254 c 0.21582,-0.0212 0.363931,-0.0719 0.444336,-0.15235 0.0804,-0.0804 0.120604,-0.21582 0.120606,-0.40625" /><path
       id="path4716-6"
       d="m 18.281015,148.33398 c 0,-0.90982 0.236979,-1.64403 0.710938,-2.20263 0.473957,-0.55859 1.134112,-0.83789 1.980469,-0.83789 0.372392,0 0.710933,0.0592 1.015625,0.17773 0.304683,0.11426 0.556473,0.26872 0.755371,0.46338 0.20312,0.19043 0.37239,0.41472 0.507812,0.67285 0.139643,0.25391 0.23909,0.51628 0.29834,0.78711 0.05924,0.27084 0.08886,0.5459 0.08887,0.8252 -6e-6,0.33854 -0.05713,0.67497 -0.171386,1.00927 -0.110032,0.33008 -0.270839,0.639 -0.482422,0.92676 -0.207362,0.28776 -0.488775,0.52263 -0.844239,0.70459 -0.355472,0.17774 -0.753258,0.2666 -1.193359,0.2666 -0.418948,0 -0.801923,-0.0825 -1.148926,-0.24756 -0.347007,-0.16503 -0.628419,-0.38297 -0.844238,-0.6538 -0.215821,-0.27084 -0.382976,-0.56918 -0.501465,-0.89502 -0.114258,-0.32585 -0.171387,-0.65804 -0.171387,-0.99659 m 2.545411,-2.60888 c -0.330081,0 -0.607262,0.11849 -0.831543,0.35547 -0.224286,0.23275 -0.382977,0.51628 -0.476075,0.85058 -0.08887,0.33432 -0.133302,0.70248 -0.1333,1.10449 -2e-6,0.2116 0.01904,0.43376 0.05713,0.66651 0.04232,0.22852 0.110025,0.46338 0.203125,0.70459 0.0931,0.24121 0.205239,0.45703 0.336426,0.64746 0.131183,0.19043 0.298338,0.34701 0.501465,0.46973 0.207354,0.11849 0.433754,0.17773 0.679199,0.17773 0.165036,0 0.319495,-0.0275 0.463379,-0.0825 0.148108,-0.0592 0.291988,-0.15869 0.431641,-0.29834 0.143876,-0.14388 0.258133,-0.3597 0.342773,-0.64746 0.08463,-0.28776 0.126949,-0.63476 0.126953,-1.04102 -4e-6,-0.94368 -0.148116,-1.66308 -0.444336,-2.1582 -0.296227,-0.49934 -0.715172,-0.74902 -1.256835,-0.74902" /><path
       id="path4718"
       d="m 25.99498,150.07959 c 0.156573,0.19466 0.304685,0.34489 0.444336,0.45068 0.143877,0.1058 0.308916,0.1587 0.495117,0.15869 0.592444,1e-5 1.043128,-0.23909 1.352051,-0.71728 0.313146,-0.47819 0.469722,-1.10661 0.469726,-1.88525 -4e-6,-0.6263 -0.139653,-1.15316 -0.418945,-1.58057 -0.279301,-0.4274 -0.617842,-0.64111 -1.015625,-0.64111 -0.08887,0 -0.188317,0.008 -0.29834,0.0254 -0.110029,0.0127 -0.270836,0.0635 -0.482422,0.15234 -0.211591,0.0889 -0.393557,0.21159 -0.545898,0.36816 v 3.66895 m -0.971192,-6.39844 c -1e-6,-0.40201 -0.03174,-0.67073 -0.09521,-0.80615 -0.05925,-0.13964 -0.158693,-0.20946 -0.29834,-0.20947 l -0.412598,-0.0254 c -0.05501,1e-5 -0.08252,-0.0212 -0.08252,-0.0635 l -0.02539,-0.31104 c 0.266601,-0.0212 0.5861,-0.0677 0.958496,-0.13964 0.376626,-0.0719 0.643228,-0.13964 0.799805,-0.20313 0.110024,1e-5 0.165037,0.0444 0.165039,0.1333 -0.02539,0.34702 -0.03809,0.80193 -0.03809,1.36475 v 2.58984 c 0.440102,-0.47818 0.969072,-0.71728 1.586914,-0.71728 0.283525,0 0.560705,0.0614 0.831543,0.18408 0.270829,0.11849 0.514155,0.28565 0.72998,0.50146 0.215815,0.2116 0.389318,0.48243 0.520508,0.8125 0.131179,0.32585 0.196772,0.67921 0.196778,1.06006 -6e-6,0.49512 -0.08676,0.95427 -0.260254,1.37744 -0.169277,0.42318 -0.391444,0.77019 -0.666504,1.04102 -0.27507,0.27083 -0.579757,0.48242 -0.914063,0.63477 -0.334313,0.14811 -0.670739,0.22216 -1.009277,0.22216 -0.533206,0 -0.983889,-0.15869 -1.352051,-0.47607 -0.13965,0.20312 -0.281414,0.37239 -0.425293,0.50781 -0.118491,0 -0.209474,-0.0233 -0.272949,-0.0698 0.04232,-0.23698 0.06348,-0.57341 0.06348,-1.00928 v -6.39844" /><path
       id="path4720"
       d="m 30.776328,148.33398 c 0,-0.90982 0.236979,-1.64403 0.710938,-2.20263 0.473956,-0.55859 1.134112,-0.83789 1.980468,-0.83789 0.372393,0 0.710934,0.0592 1.015625,0.17773 0.304683,0.11426 0.556473,0.26872 0.755371,0.46338 0.20312,0.19043 0.372391,0.41472 0.507813,0.67285 0.139643,0.25391 0.239089,0.51628 0.29834,0.78711 0.05924,0.27084 0.08886,0.5459 0.08887,0.8252 -6e-6,0.33854 -0.05714,0.67497 -0.171387,1.00927 -0.110031,0.33008 -0.270838,0.639 -0.482422,0.92676 -0.207361,0.28776 -0.488774,0.52263 -0.844238,0.70459 -0.355473,0.17774 -0.753259,0.2666 -1.193359,0.2666 -0.418948,0 -0.801923,-0.0825 -1.148926,-0.24756 -0.347007,-0.16503 -0.628419,-0.38297 -0.844238,-0.6538 -0.215822,-0.27084 -0.382976,-0.56918 -0.501465,-0.89502 -0.114259,-0.32585 -0.171387,-0.65804 -0.171387,-0.99659 m 2.54541,-2.60888 c -0.330081,0 -0.607261,0.11849 -0.831543,0.35547 -0.224286,0.23275 -0.382977,0.51628 -0.476074,0.85058 -0.08887,0.33432 -0.133302,0.70248 -0.133301,1.10449 -1e-6,0.2116 0.01904,0.43376 0.05713,0.66651 0.04232,0.22852 0.110024,0.46338 0.203125,0.70459 0.0931,0.24121 0.205239,0.45703 0.336426,0.64746 0.131183,0.19043 0.298337,0.34701 0.501465,0.46973 0.207354,0.11849 0.433753,0.17773 0.679199,0.17773 0.165036,0 0.319495,-0.0275 0.463379,-0.0825 0.148108,-0.0592 0.291988,-0.15869 0.431641,-0.29834 0.143875,-0.14388 0.258133,-0.3597 0.342773,-0.64746 0.08463,-0.28776 0.126948,-0.63476 0.126953,-1.04102 -5e-6,-0.94368 -0.148116,-1.66308 -0.444336,-2.1582 -0.296228,-0.49934 -0.715173,-0.74902 -1.256836,-0.74902" /><path
       id="path4722"
       d="m 41.035703,149.7749 v -3.26269 c -0.165044,-0.25814 -0.344894,-0.44857 -0.539551,-0.57129 -0.194665,-0.12695 -0.437992,-0.19043 -0.729981,-0.19043 -0.52051,0 -0.924644,0.21582 -1.212402,0.64746 -0.241213,0.34701 -0.361818,0.92253 -0.361816,1.72656 -2e-6,0.76172 0.139646,1.35205 0.418945,1.771 0.283526,0.41471 0.61572,0.62207 0.996582,0.62207 0.338538,0 0.814612,-0.24756 1.428223,-0.74268 m 0.977539,-6.354 v 6.06836 c -6e-6,0.32161 0.01904,0.52474 0.05713,0.60937 0.03808,0.0846 0.126947,0.1333 0.266601,0.146 l 0.628418,0.0635 0.03809,0.30468 c -0.842128,0.14812 -1.396489,0.33008 -1.663086,0.5459 h -0.304687 l 0.03174,-0.91406 -0.03174,-0.0127 c -0.736332,0.59668 -1.324548,0.89502 -1.764649,0.89502 -0.685549,0 -1.220867,-0.25602 -1.605957,-0.76806 -0.385092,-0.51205 -0.577637,-1.17855 -0.577636,-1.99952 -10e-7,-0.94368 0.289875,-1.70539 0.869628,-2.28515 0.275064,-0.26237 0.56494,-0.45703 0.869629,-0.58399 0.308917,-0.13117 0.668617,-0.19677 1.079102,-0.19677 0.143877,0 0.33219,0.0275 0.564941,0.0825 0.236975,0.055 0.425289,0.12272 0.564942,0.20312 v -1.89795 c -5e-6,-0.40201 -0.02963,-0.67073 -0.08887,-0.80615 -0.05925,-0.13964 -0.158696,-0.20946 -0.29834,-0.20947 l -0.418946,-0.0254 c -0.05078,1e-5 -0.07618,-0.0212 -0.07617,-0.0635 l -0.02539,-0.31104 c 0.270829,-0.0212 0.590328,-0.0656 0.958496,-0.1333 0.368159,-0.0719 0.63476,-0.14175 0.799805,-0.20947 0.11002,1e-5 0.165033,0.0444 0.165039,0.1333 -0.0254,0.34702 -0.03809,0.80193 -0.03809,1.36475" /><path
       id="path4724"
       d="m 45.188634,145.29346 -0.03809,1.15527 h 0.03809 c 0.385089,-0.45279 0.740557,-0.75748 1.066406,-0.91406 0.330075,-0.1608 0.681311,-0.24121 1.053711,-0.24121 0.283524,0 0.520503,0.0508 0.710938,0.15234 0.194656,0.10157 0.342768,0.2518 0.444336,0.45068 0.101557,0.19467 0.171381,0.40837 0.209472,0.64112 0.04231,0.22852 0.06347,0.49935 0.06348,0.8125 v 2.71679 c -6e-6,0.1862 0.0402,0.32162 0.120605,0.40625 0.0804,0.0804 0.222162,0.13119 0.425293,0.15235 l 0.247559,0.0254 c 0.07617,0.0169 0.114251,0.0508 0.114258,0.10156 v 0.24756 l -0.02539,0.0254 C 48.925282,151.00846 48.461903,151 48.229161,151 c -0.165044,0 -0.594568,0.008 -1.288574,0.0254 L 46.915196,151 v -0.24756 c -3e-6,-0.055 0.03597,-0.0889 0.107911,-0.10156 l 0.177734,-0.0254 c 0.215816,-0.0339 0.361812,-0.0889 0.437988,-0.16504 0.0804,-0.0804 0.120601,-0.21159 0.120606,-0.39356 v -2.81201 c -5e-6,-0.48241 -0.05925,-0.82519 -0.177735,-1.02832 -0.114262,-0.20735 -0.33643,-0.31103 -0.666504,-0.31103 -0.300459,0 -0.583987,0.0741 -0.850586,0.22217 -0.266604,0.14811 -0.558596,0.40837 -0.875976,0.78076 v 3.14843 c -2e-6,0.1862 0.03808,0.31739 0.114258,0.39356 0.0804,0.0762 0.228513,0.13118 0.444336,0.16504 l 0.184082,0.0254 c 0.0677,0.0127 0.101559,0.0465 0.101562,0.10156 V 151 l -0.02539,0.0254 C 45.313469,151.00846 44.871249,151 44.680821,151 c -0.207358,0 -0.658041,0.008 -1.35205,0.0254 L 43.30338,151 v -0.24756 c 0,-0.055 0.03385,-0.0889 0.101563,-0.10156 l 0.247558,-0.0254 c 0.21582,-0.0212 0.361816,-0.0719 0.437988,-0.15235 0.0804,-0.0804 0.120605,-0.21582 0.120606,-0.40625 v -3.2373 c -10e-7,-0.30891 -0.02328,-0.51627 -0.06982,-0.62207 -0.04232,-0.11002 -0.114259,-0.17138 -0.215821,-0.18408 l -0.558593,-0.0571 -0.02539,-0.31104 c 0.829426,-0.12694 1.428221,-0.26024 1.796387,-0.3999 0.03385,1e-5 0.05078,0.0127 0.05078,0.0381" /><path
       id="path4726"
       d="m 53.518319,147.97217 -1.02832,0.27295 c -0.837893,0.22852 -1.256838,0.70459 -1.256836,1.42822 -2e-6,0.23275 0.08463,0.44645 0.253906,0.64111 0.169269,0.19043 0.404132,0.28565 0.70459,0.28565 0.296221,0 0.67708,-0.18832 1.142578,-0.56494 0.122718,-0.0846 0.184078,-0.19678 0.184082,-0.33643 v -1.72656 m 0,2.40576 h -0.02539 l -0.260254,0.20312 c -0.287764,0.22429 -0.522627,0.37028 -0.70459,0.43799 -0.177737,0.0719 -0.414716,0.10791 -0.710938,0.10791 -0.490887,0 -0.882325,-0.11214 -1.174316,-0.33642 -0.291993,-0.22429 -0.437989,-0.57975 -0.437988,-1.06641 -10e-7,-0.43164 0.192544,-0.8125 0.577636,-1.14258 0.389322,-0.3343 0.903481,-0.58186 1.542481,-0.74267 l 1.117187,-0.27295 c 0.05078,-0.0169 0.07617,-0.0677 0.07617,-0.15235 -4e-6,-0.28352 -0.02328,-0.53108 -0.06982,-0.74267 -0.04655,-0.21582 -0.103682,-0.38509 -0.171387,-0.50781 -0.06771,-0.12272 -0.152347,-0.22005 -0.253906,-0.292 -0.09733,-0.0762 -0.190433,-0.12694 -0.279297,-0.15234 -0.08464,-0.0254 -0.177737,-0.0381 -0.279297,-0.0381 -0.279299,10e-6 -0.528973,0.0508 -0.749023,0.15235 -0.220054,0.10157 -0.33008,0.24756 -0.330078,0.43799 -2e-6,0.11849 0.0085,0.20313 0.02539,0.2539 0.02539,0.055 0.03808,0.13331 0.03809,0.23487 -2e-6,0.10156 -0.0529,0.19889 -0.158691,0.29199 -0.101564,0.0931 -0.239097,0.13965 -0.412598,0.13965 -0.300456,0 -0.450684,-0.15234 -0.450683,-0.45704 -10e-7,-0.22851 0.103677,-0.45491 0.311035,-0.67919 0.207355,-0.22428 0.478188,-0.40625 0.8125,-0.5459 0.334307,-0.14388 0.672849,-0.21582 1.015625,-0.21582 0.207353,0 0.395667,0.0169 0.564941,0.0508 0.173499,0.0339 0.347002,0.0994 0.520508,0.19678 0.173498,0.0931 0.317378,0.21794 0.431641,0.37451 0.118485,0.15658 0.213699,0.37028 0.285644,0.64111 0.07617,0.26661 0.114253,0.57764 0.114258,0.93311 v 1.93603 c -5e-6,0.12272 -5e-6,0.22217 0,0.29834 0.0042,0.0719 0.01058,0.15869 0.01904,0.26025 0.01269,0.0973 0.02962,0.17562 0.05078,0.23487 0.02115,0.055 0.04866,0.11214 0.08252,0.17138 0.03808,0.0592 0.08675,0.10157 0.145996,0.12696 0.06347,0.0254 0.135411,0.0381 0.21582,0.0381 0.09309,0 0.169265,-0.0169 0.228516,-0.0508 0.05924,-0.0339 0.103672,-0.0677 0.1333,-0.10156 0.02962,-0.0339 0.05289,-0.0508 0.06983,-0.0508 0.02538,0 0.05501,0.0212 0.08887,0.0635 0.03808,0.0423 0.05712,0.0846 0.05713,0.12695 -6e-6,0.0169 -0.01693,0.0465 -0.05078,0.0889 -0.03386,0.0423 -0.08464,0.091 -0.152344,0.14599 -0.06348,0.055 -0.137538,0.11003 -0.222168,0.16504 -0.08464,0.0508 -0.186203,0.0931 -0.304688,0.12695 -0.114263,0.0381 -0.230636,0.0571 -0.349121,0.0571 -0.512048,0 -0.837894,-0.24967 -0.977539,-0.74902" /><path
       id="path4728"
       d="m 60.173787,147.26758 h 2.386719 c 0.122717,0 0.184078,-0.0592 0.184082,-0.17774 -4e-6,-0.25813 -0.03386,-0.4803 -0.101563,-0.6665 -0.06348,-0.18619 -0.152347,-0.32584 -0.266601,-0.41895 -0.11003,-0.0973 -0.224288,-0.16503 -0.342774,-0.20312 -0.114261,-0.0423 -0.236982,-0.0635 -0.368164,-0.0635 -0.08464,10e-6 -0.169273,0.006 -0.253906,0.0191 -0.08041,0.008 -0.190432,0.0423 -0.330078,0.10156 -0.139651,0.055 -0.264488,0.1333 -0.374512,0.23486 -0.105796,0.10157 -0.21159,0.25391 -0.317383,0.45703 -0.101564,0.20313 -0.173504,0.44223 -0.21582,0.71729 m 3.427734,2.49463 c 0.135412,0.0127 0.222163,0.0825 0.260254,0.20947 -0.258143,0.35547 -0.575525,0.63688 -0.952148,0.84424 -0.376632,0.20735 -0.791345,0.31103 -1.244141,0.31103 -0.846356,0 -1.487469,-0.2539 -1.92334,-0.76172 -0.431641,-0.50781 -0.647461,-1.1595 -0.64746,-1.95507 -1e-6,-0.47396 0.07617,-0.91195 0.228515,-1.31397 0.152343,-0.40201 0.351236,-0.73209 0.59668,-0.99023 0.245441,-0.25814 0.51839,-0.45703 0.818848,-0.59668 0.304685,-0.14388 0.613604,-0.21582 0.926757,-0.21582 0.330075,0 0.622067,0.0444 0.875977,0.1333 0.253902,0.0889 0.457027,0.20524 0.609375,0.34912 0.156571,0.13965 0.283524,0.31104 0.380859,0.51416 0.09733,0.20313 0.162918,0.40625 0.196778,0.60937 0.03808,0.20313 0.05712,0.42107 0.05713,0.65381 -6e-6,0.14812 -0.07829,0.22217 -0.234864,0.22217 h -3.421386 c -2e-6,0.3724 0.0402,0.71517 0.120605,1.02832 0.08463,0.30892 0.190428,0.56494 0.317383,0.76807 0.131183,0.20312 0.279294,0.37663 0.444336,0.52051 0.169268,0.13964 0.334307,0.24121 0.495117,0.30468 0.160804,0.0635 0.31738,0.0952 0.469726,0.0952 0.351234,0 0.651689,-0.0571 0.901368,-0.17139 0.24967,-0.11849 0.49088,-0.30469 0.723632,-0.55859" /><path
       id="path4730"
       d="m 66.269101,145.29346 -0.03809,1.15527 h 0.03809 c 0.385089,-0.45279 0.740557,-0.75748 1.066406,-0.91406 0.330075,-0.1608 0.681312,-0.24121 1.053711,-0.24121 0.283524,0 0.520503,0.0508 0.710938,0.15234 0.194656,0.10157 0.342768,0.2518 0.444336,0.45068 0.101557,0.19467 0.171381,0.40837 0.209472,0.64112 0.04231,0.22852 0.06347,0.49935 0.06348,0.8125 v 2.71679 c -6e-6,0.1862 0.0402,0.32162 0.120605,0.40625 0.0804,0.0804 0.222162,0.13119 0.425293,0.15235 l 0.247559,0.0254 c 0.07616,0.0169 0.114251,0.0508 0.114258,0.10156 v 0.24756 l -0.02539,0.0254 C 70.005749,151.00846 69.54237,151 69.309628,151 c -0.165044,0 -0.594568,0.008 -1.288574,0.0254 L 67.995664,151 v -0.24756 c -4e-6,-0.055 0.03597,-0.0889 0.10791,-0.10156 l 0.177734,-0.0254 c 0.215816,-0.0339 0.361812,-0.0889 0.437988,-0.16504 0.0804,-0.0804 0.120601,-0.21159 0.120606,-0.39356 v -2.81201 c -5e-6,-0.48241 -0.05925,-0.82519 -0.177734,-1.02832 -0.114263,-0.20735 -0.33643,-0.31103 -0.666504,-0.31103 -0.30046,0 -0.583988,0.0741 -0.850586,0.22217 -0.266605,0.14811 -0.558597,0.40837 -0.875977,0.78076 v 3.14843 c -2e-6,0.1862 0.03808,0.31739 0.114258,0.39356 0.0804,0.0762 0.228513,0.13118 0.444336,0.16504 l 0.184082,0.0254 c 0.06771,0.0127 0.101559,0.0465 0.101562,0.10156 V 151 l -0.02539,0.0254 C 66.393936,151.00846 65.951716,151 65.761289,151 c -0.207359,0 -0.658042,0.008 -1.352051,0.0254 L 64.383847,151 v -0.24756 c 0,-0.055 0.03385,-0.0889 0.101563,-0.10156 l 0.247558,-0.0254 c 0.21582,-0.0212 0.361816,-0.0719 0.437989,-0.15235 0.0804,-0.0804 0.120604,-0.21582 0.120605,-0.40625 v -3.2373 c -10e-7,-0.30891 -0.02328,-0.51627 -0.06982,-0.62207 -0.04232,-0.11002 -0.114259,-0.17138 -0.21582,-0.18408 l -0.558594,-0.0571 -0.02539,-0.31104 c 0.829426,-0.12694 1.428221,-0.26024 1.796387,-0.3999 0.03385,1e-5 0.05078,0.0127 0.05078,0.0381" /><path
       id="path4732"
       d="m 75.963536,149.81934 c -0.207361,0.34277 -0.431645,0.6136 -0.672851,0.8125 -0.236984,0.19889 -0.467615,0.33007 -0.691895,0.39355 -0.220055,0.0677 -0.471846,0.10156 -0.755371,0.10156 -0.804039,0 -1.43034,-0.25813 -1.878906,-0.77441 -0.444337,-0.51628 -0.666505,-1.20182 -0.666504,-2.05664 -10e-7,-0.44857 0.07406,-0.86328 0.222168,-1.24414 0.148111,-0.38086 0.347004,-0.69824 0.59668,-0.95215 0.249673,-0.2539 0.535317,-0.45068 0.856933,-0.59033 0.325844,-0.14388 0.664385,-0.21582 1.015625,-0.21582 0.596676,0 1.068518,0.13119 1.415528,0.39355 0.347,0.25814 0.520502,0.56918 0.520507,0.93311 -5e-6,0.1735 -0.06348,0.31104 -0.190429,0.41259 -0.126958,0.0973 -0.266607,0.146 -0.418946,0.146 -0.279301,0 -0.435876,-0.15234 -0.469726,-0.45703 -0.01693,-0.13541 -0.03809,-0.24755 -0.06348,-0.33643 -0.02539,-0.0931 -0.06983,-0.19465 -0.133301,-0.30468 -0.05925,-0.11426 -0.150231,-0.19889 -0.272949,-0.25391 -0.122725,-0.0592 -0.275068,-0.0889 -0.457031,-0.0889 -0.440107,1e-5 -0.804039,0.20525 -1.091797,0.61573 -0.28353,0.40625 -0.425294,0.9585 -0.425293,1.65673 -10e-7,0.75326 0.160806,1.36687 0.482422,1.84082 0.325844,0.46973 0.740557,0.70459 1.244141,0.70459 0.283525,0 0.564937,-0.0804 0.844238,-0.24121 0.279292,-0.16504 0.518387,-0.39143 0.717285,-0.6792 0.135412,0.0169 0.226395,0.0783 0.272949,0.18409" /><path
       id="path4734"
       d="m 77.399671,144.03027 c -0.122723,-0.12271 -0.184084,-0.26871 -0.184082,-0.43798 -2e-6,-0.16927 0.06136,-0.31526 0.184082,-0.43799 0.12272,-0.12695 0.268715,-0.19042 0.437988,-0.19043 0.169269,1e-5 0.315265,0.0614 0.437988,0.18408 0.126951,0.12273 0.190427,0.27084 0.19043,0.44434 -3e-6,0.16927 -0.06348,0.31527 -0.19043,0.43798 -0.122723,0.12273 -0.268719,0.18409 -0.437988,0.18409 -0.169273,0 -0.315268,-0.0614 -0.437988,-0.18409 m 1.041015,1.26319 c -0.02962,0.58822 -0.04444,1.10026 -0.04443,1.53613 v 3.2373 c -3e-6,0.1862 0.0402,0.32162 0.120605,0.40625 0.08463,0.0804 0.228513,0.13119 0.431641,0.15235 l 0.241211,0.0254 c 0.0804,0.0127 0.120602,0.0465 0.120605,0.10156 v 0.24756 l -0.02539,0.0254 C 78.590912,151.00846 78.127533,151 77.894788,151 c -0.207359,0 -0.658042,0.008 -1.352051,0.0254 L 76.517346,151 v -0.24756 c 0,-0.055 0.03385,-0.0889 0.101563,-0.10156 l 0.247558,-0.0254 c 0.220052,-0.0296 0.368163,-0.0825 0.444336,-0.15869 0.07617,-0.0804 0.114257,-0.21371 0.114258,-0.39991 v -3.2373 c -10e-7,-0.30891 -0.02328,-0.51627 -0.06982,-0.62207 -0.04232,-0.11002 -0.114259,-0.17138 -0.21582,-0.18408 l -0.558594,-0.0571 -0.02539,-0.31104 c 0.871744,-0.13118 1.481118,-0.26448 1.828125,-0.3999 0.03808,1e-5 0.05713,0.0127 0.05713,0.0381" /><path
       id="path4736"
       d="m 80.619489,143.68115 c -10e-7,-0.40201 -0.02962,-0.67073 -0.08887,-0.80615 -0.05925,-0.13964 -0.158693,-0.20946 -0.29834,-0.20947 l -0.418946,-0.0254 c -0.05078,1e-5 -0.07617,-0.0212 -0.07617,-0.0635 l -0.02539,-0.31104 c 0.266601,-0.0212 0.583983,-0.0677 0.952148,-0.13964 0.372395,-0.0719 0.638996,-0.13964 0.799805,-0.20313 0.114256,1e-5 0.171385,0.0444 0.171387,0.1333 -0.02539,0.34702 -0.03809,0.80193 -0.03809,1.36475 v 4.50049 c 0.338539,-0.0846 0.905596,-0.56283 1.701172,-1.43457 0.05078,-0.0508 0.09733,-0.10579 0.139648,-0.16504 0.04655,-0.0635 0.08675,-0.13753 0.120606,-0.22217 0.03385,-0.0846 0.01481,-0.15657 -0.05713,-0.21582 -0.06771,-0.0635 -0.19255,-0.0994 -0.374512,-0.10791 -0.06771,0 -0.101566,-0.036 -0.101563,-0.10791 v -0.24756 c 0.02539,-0.008 0.03808,-0.0169 0.03809,-0.0254 0.643225,0.0169 1.030432,0.0254 1.161621,0.0254 0.110022,1e-5 0.486649,-0.008 1.129883,-0.0254 l 0.05078,0.0254 v 0.24756 c -6e-6,0.055 -0.04867,0.091 -0.145997,0.10791 l -0.08887,0.0127 c -0.194667,0.0296 -0.414719,0.0995 -0.660156,0.20948 -0.241216,0.11003 -0.437993,0.24333 -0.590332,0.3999 l -0.983887,1.0918 c -0.03386,0.0339 -0.05078,0.0783 -0.05078,0.1333 -3e-6,0.0635 0.02115,0.12272 0.06348,0.17773 l 1.517089,2.24707 c 0.110021,0.16504 0.253901,0.29623 0.431641,0.39356 0.177729,0.0973 0.359695,0.16292 0.545898,0.19677 l 0.08887,0.0127 c 0.0804,0.0127 0.120599,0.0465 0.120605,0.10156 v 0.24756 l -0.02539,0.0254 C 85.103044,151.00846 84.734881,151 84.523297,151 c -0.236984,0 -0.528976,0.008 -0.875976,0.0254 L 83.609235,151 v -0.24756 c -4e-6,-0.17773 -0.09945,-0.4126 -0.29834,-0.70459 l -0.945801,-1.33301 c -0.126956,-0.18619 -0.245445,-0.31103 -0.355469,-0.37451 -0.105796,-0.0635 -0.243329,-0.0952 -0.412597,-0.0952 v 1.82177 c -2e-6,0.22006 0.04655,0.36817 0.139648,0.44434 0.0931,0.0719 0.241209,0.11849 0.444336,0.13965 0.06771,0 0.10156,0.0339 0.101563,0.10156 v 0.24756 l -0.02539,0.0254 C 81.580099,151.00846 81.190776,151 81.089215,151 c -0.02962,0 -0.476075,0.008 -1.339355,0.0254 L 79.724469,151 v -0.24756 c 0,-0.055 0.02962,-0.0889 0.08887,-0.10156 l 0.247559,-0.0254 c 0.215819,-0.0212 0.361815,-0.0719 0.437988,-0.15235 0.0804,-0.0804 0.120605,-0.21582 0.120606,-0.40625 v -6.38574" /><path
       id="path4738-3"
       d="m 86.835408,150.06689 v -6.38574 c -10e-7,-0.40201 -0.03174,-0.67073 -0.09521,-0.80615 -0.05925,-0.13964 -0.158692,-0.20946 -0.298339,-0.20947 l -0.412598,-0.0254 c -0.05501,1e-5 -0.08252,-0.0212 -0.08252,-0.0635 l -0.02539,-0.31104 c 0.270832,-0.0212 0.590331,-0.0656 0.958496,-0.1333 0.368162,-0.0719 0.634764,-0.14175 0.799804,-0.20947 0.110024,1e-5 0.165037,0.0444 0.16504,0.1333 -0.02539,0.34702 -0.03809,0.80193 -0.03809,1.36475 v 6.64599 c -3e-6,0.19043 0.03808,0.32585 0.114257,0.40625 0.07617,0.0804 0.22005,0.13119 0.431641,0.15235 l 0.311035,0.0254 c 0.07194,0 0.107907,0.0339 0.10791,0.10156 v 0.24756 l -0.02539,0.0254 C 87.874306,151.00846 87.391884,151 87.298787,151 c -0.0804,0 -0.552247,0.008 -1.415527,0.0254 L 85.87056,151 v -0.24756 c 0,-0.0677 0.02962,-0.10156 0.08887,-0.10156 l 0.311035,-0.0254 c 0.215819,-0.0212 0.363931,-0.0719 0.444336,-0.15235 0.0804,-0.0804 0.120604,-0.21582 0.120605,-0.40625" /><path
       id="path4740-3"
       d="m 89.344296,148.33398 c 0,-0.90982 0.236979,-1.64403 0.710938,-2.20263 0.473957,-0.55859 1.134112,-0.83789 1.980469,-0.83789 0.372392,0 0.710933,0.0592 1.015625,0.17773 0.304683,0.11426 0.556473,0.26872 0.755371,0.46338 0.20312,0.19043 0.37239,0.41472 0.507812,0.67285 0.139643,0.25391 0.23909,0.51628 0.29834,0.78711 0.05924,0.27084 0.08886,0.5459 0.08887,0.8252 -5e-6,0.33854 -0.05713,0.67497 -0.171386,1.00927 -0.110032,0.33008 -0.270839,0.639 -0.482422,0.92676 -0.207362,0.28776 -0.488774,0.52263 -0.844239,0.70459 -0.355472,0.17774 -0.753258,0.2666 -1.193359,0.2666 -0.418948,0 -0.801923,-0.0825 -1.148926,-0.24756 -0.347007,-0.16503 -0.628419,-0.38297 -0.844238,-0.6538 -0.215821,-0.27084 -0.382976,-0.56918 -0.501465,-0.89502 -0.114258,-0.32585 -0.171387,-0.65804 -0.171387,-0.99659 m 2.545411,-2.60888 c -0.330081,0 -0.607262,0.11849 -0.831543,0.35547 -0.224286,0.23275 -0.382977,0.51628 -0.476075,0.85058 -0.08887,0.33432 -0.133302,0.70248 -0.1333,1.10449 -2e-6,0.2116 0.01904,0.43376 0.05713,0.66651 0.04232,0.22852 0.110024,0.46338 0.203125,0.70459 0.0931,0.24121 0.205238,0.45703 0.336425,0.64746 0.131183,0.19043 0.298338,0.34701 0.501465,0.46973 0.207354,0.11849 0.433754,0.17773 0.679199,0.17773 0.165036,0 0.319495,-0.0275 0.463379,-0.0825 0.148108,-0.0592 0.291988,-0.15869 0.431641,-0.29834 0.143876,-0.14388 0.258133,-0.3597 0.342773,-0.64746 0.08463,-0.28776 0.126949,-0.63476 0.126953,-1.04102 -4e-6,-0.94368 -0.148116,-1.66308 -0.444335,-2.1582 -0.296228,-0.49934 -0.715173,-0.74902 -1.256836,-0.74902" /><path
       id="path4742"
       d="m 97.083653,146.95654 v 3.17383 c 0.317381,0.3724 0.677081,0.5586 1.079102,0.55859 0.266598,1e-5 0.503577,-0.0487 0.710938,-0.14599 0.211584,-0.10156 0.380855,-0.23063 0.507812,-0.38721 0.126949,-0.15657 0.230627,-0.34277 0.311035,-0.55859 0.08463,-0.21582 0.14176,-0.42952 0.171387,-0.64112 0.02962,-0.21158 0.04443,-0.43163 0.04443,-0.66015 -4e-6,-0.71517 -0.143884,-1.29492 -0.43164,-1.73926 -0.283533,-0.44433 -0.630538,-0.6665 -1.041016,-0.6665 -0.236982,0 -0.488772,0.0973 -0.755371,0.29199 -0.262372,0.19043 -0.461265,0.44857 -0.59668,0.77441 m -0.971191,-0.12695 c -10e-7,-0.30468 -0.02328,-0.51204 -0.06982,-0.62207 -0.04655,-0.11002 -0.118491,-0.17138 -0.21582,-0.18408 l -0.558594,-0.0571 -0.02539,-0.31104 c 0.808267,-0.12271 1.404946,-0.25601 1.790039,-0.3999 0.03385,1e-5 0.05078,0.0127 0.05078,0.0381 l -0.03808,1.04101 h 0.03808 c 0.457029,-0.694 1.026202,-1.04101 1.70752,-1.04101 0.406246,0 0.778641,0.12484 1.117187,0.37451 0.338539,0.24968 0.600909,0.57764 0.787109,0.98389 0.18619,0.40625 0.27929,0.83789 0.2793,1.29492 -1e-5,1.01986 -0.3047,1.8387 -0.91407,2.45654 -0.478189,0.48242 -1.083332,0.72363 -1.815424,0.72363 -0.418949,0 -0.806155,-0.0952 -1.161622,-0.28564 v 2.25342 c -2e-6,0.18196 0.0402,0.31315 0.120606,0.39355 0.08463,0.0846 0.226397,0.13542 0.425293,0.15234 l 0.247558,0.0254 c 0.0804,0.0127 0.120603,0.0465 0.120606,0.10156 v 0.24756 l -0.02539,0.0254 c -0.643231,-0.0169 -1.10661,-0.0254 -1.390136,-0.0254 -0.266603,-10e-6 -0.717286,0.008 -1.352051,0.0254 l -0.03174,-0.0254 v -0.24756 c -1e-6,-0.055 0.03597,-0.0889 0.10791,-0.10156 l 0.247558,-0.0254 c 0.207356,-0.0169 0.351236,-0.0677 0.431641,-0.15234 0.08463,-0.0804 0.126952,-0.21159 0.126953,-0.39355 v -6.26514" /><path
       id="path4744"
       d="m 102.96949,147.26758 h 2.38672 c 0.12272,0 0.18408,-0.0592 0.18409,-0.17774 -1e-5,-0.25813 -0.0339,-0.4803 -0.10157,-0.6665 -0.0635,-0.18619 -0.15234,-0.32584 -0.2666,-0.41895 -0.11003,-0.0973 -0.22429,-0.16503 -0.34277,-0.20312 -0.11426,-0.0423 -0.23698,-0.0635 -0.36817,-0.0635 -0.0846,10e-6 -0.16927,0.006 -0.2539,0.0191 -0.0804,0.008 -0.19043,0.0423 -0.33008,0.10156 -0.13965,0.055 -0.26449,0.1333 -0.37451,0.23486 -0.1058,0.10157 -0.21159,0.25391 -0.31738,0.45703 -0.10157,0.20313 -0.17351,0.44223 -0.21583,0.71729 m 3.42774,2.49463 c 0.13541,0.0127 0.22216,0.0825 0.26025,0.20947 -0.25814,0.35547 -0.57552,0.63688 -0.95215,0.84424 -0.37663,0.20735 -0.79134,0.31103 -1.24414,0.31103 -0.84635,0 -1.48746,-0.2539 -1.92334,-0.76172 -0.43164,-0.50781 -0.64746,-1.1595 -0.64746,-1.95507 0,-0.47396 0.0762,-0.91195 0.22852,-1.31397 0.15234,-0.40201 0.35123,-0.73209 0.59668,-0.99023 0.24544,-0.25814 0.51839,-0.45703 0.81885,-0.59668 0.30468,-0.14388 0.6136,-0.21582 0.92675,-0.21582 0.33008,0 0.62207,0.0444 0.87598,0.1333 0.2539,0.0889 0.45703,0.20524 0.60938,0.34912 0.15657,0.13965 0.28352,0.31104 0.38085,0.51416 0.0973,0.20313 0.16292,0.40625 0.19678,0.60937 0.0381,0.20313 0.0571,0.42107 0.0571,0.65381 0,0.14812 -0.0783,0.22217 -0.23486,0.22217 h -3.42139 c 0,0.3724 0.0402,0.71517 0.12061,1.02832 0.0846,0.30892 0.19042,0.56494 0.31738,0.76807 0.13118,0.20312 0.27929,0.37663 0.44434,0.52051 0.16926,0.13964 0.3343,0.24121 0.49511,0.30468 0.16081,0.0635 0.31738,0.0952 0.46973,0.0952 0.35123,0 0.65169,-0.0571 0.90137,-0.17139 0.24967,-0.11849 0.49088,-0.30469 0.72363,-0.55859" /><path
       id="path4746"
       d="m 111.43882,149.7749 v -3.26269 c -0.16504,-0.25814 -0.34489,-0.44857 -0.53955,-0.57129 -0.19466,-0.12695 -0.43799,-0.19043 -0.72998,-0.19043 -0.52051,0 -0.92464,0.21582 -1.2124,0.64746 -0.24121,0.34701 -0.36182,0.92253 -0.36182,1.72656 0,0.76172 0.13965,1.35205 0.41895,1.771 0.28353,0.41471 0.61572,0.62207 0.99658,0.62207 0.33854,0 0.81461,-0.24756 1.42822,-0.74268 m 0.97754,-6.354 v 6.06836 c 0,0.32161 0.019,0.52474 0.0571,0.60937 0.0381,0.0846 0.12695,0.1333 0.2666,0.146 l 0.62842,0.0635 0.0381,0.30468 c -0.84213,0.14812 -1.39649,0.33008 -1.66309,0.5459 h -0.30469 l 0.0317,-0.91406 -0.0317,-0.0127 c -0.73633,0.59668 -1.32454,0.89502 -1.76464,0.89502 -0.68555,0 -1.22087,-0.25602 -1.60596,-0.76806 -0.38509,-0.51205 -0.57764,-1.17855 -0.57764,-1.99952 0,-0.94368 0.28988,-1.70539 0.86963,-2.28515 0.27506,-0.26237 0.56494,-0.45703 0.86963,-0.58399 0.30892,-0.13117 0.66862,-0.19677 1.0791,-0.19677 0.14388,0 0.33219,0.0275 0.56494,0.0825 0.23698,0.055 0.42529,0.12272 0.56494,0.20312 v -1.89795 c 0,-0.40201 -0.0296,-0.67073 -0.0889,-0.80615 -0.0592,-0.13964 -0.1587,-0.20946 -0.29834,-0.20947 l -0.41895,-0.0254 c -0.0508,1e-5 -0.0762,-0.0212 -0.0762,-0.0635 l -0.0254,-0.31104 c 0.27083,-0.0212 0.59033,-0.0656 0.9585,-0.1333 0.36816,-0.0719 0.63476,-0.14175 0.7998,-0.20947 0.11002,1e-5 0.16503,0.0444 0.16504,0.1333 -0.0254,0.34702 -0.0381,0.80193 -0.0381,1.36475" /><path
       id="path4748"
       d="m 114.73482,144.03027 c -0.12272,-0.12271 -0.18408,-0.26871 -0.18408,-0.43798 0,-0.16927 0.0614,-0.31526 0.18408,-0.43799 0.12272,-0.12695 0.26872,-0.19042 0.43799,-0.19043 0.16927,1e-5 0.31527,0.0614 0.43799,0.18408 0.12695,0.12273 0.19043,0.27084 0.19043,0.44434 0,0.16927 -0.0635,0.31527 -0.19043,0.43798 -0.12272,0.12273 -0.26872,0.18409 -0.43799,0.18409 -0.16927,0 -0.31527,-0.0614 -0.43799,-0.18409 m 1.04102,1.26319 c -0.0296,0.58822 -0.0444,1.10026 -0.0444,1.53613 v 3.2373 c 0,0.1862 0.0402,0.32162 0.12061,0.40625 0.0846,0.0804 0.22851,0.13119 0.43164,0.15235 l 0.24121,0.0254 c 0.0804,0.0127 0.1206,0.0465 0.12061,0.10156 v 0.24756 l -0.0254,0.0254 c -0.69402,-0.0169 -1.1574,-0.0254 -1.39014,-0.0254 -0.20736,0 -0.65804,0.008 -1.35205,0.0254 L 113.8525,151 v -0.24756 c 0,-0.055 0.0338,-0.0889 0.10156,-0.10156 l 0.24756,-0.0254 c 0.22005,-0.0296 0.36816,-0.0825 0.44434,-0.15869 0.0762,-0.0804 0.11425,-0.21371 0.11425,-0.39991 v -3.2373 c 0,-0.30891 -0.0233,-0.51627 -0.0698,-0.62207 -0.0423,-0.11002 -0.11426,-0.17138 -0.21582,-0.18408 l -0.5586,-0.0571 -0.0254,-0.31104 c 0.87175,-0.13118 1.48112,-0.26448 1.82813,-0.3999 0.0381,1e-5 0.0571,0.0127 0.0571,0.0381" /><path
       id="path4750"
       d="m 118.28473,144.03027 c -0.12273,-0.12271 -0.18409,-0.26871 -0.18409,-0.43798 0,-0.16927 0.0614,-0.31526 0.18409,-0.43799 0.12272,-0.12695 0.26871,-0.19042 0.43798,-0.19043 0.16927,1e-5 0.31527,0.0635 0.43799,0.19043 0.12272,0.12273 0.18408,0.26872 0.18408,0.43799 0,0.16927 -0.0614,0.31527 -0.18408,0.43798 -0.12272,0.12273 -0.26872,0.18409 -0.43799,0.18409 -0.16927,0 -0.31526,-0.0614 -0.43798,-0.18409 m 1.03466,1.26319 c -0.0254,0.76172 -0.0381,1.27376 -0.0381,1.53613 v 2.74219 c 0,2.08626 -0.31527,3.38541 -0.9458,3.89746 -0.14812,0.12272 -0.30681,0.21582 -0.47608,0.2793 -0.16927,0.0677 -0.29834,0.10579 -0.3872,0.11425 -0.0846,0.008 -0.19255,0.0127 -0.32373,0.0127 -0.14388,0 -0.292,-0.0529 -0.44434,-0.15869 -0.15234,-0.10157 -0.22852,-0.24122 -0.22852,-0.41895 0,-0.10579 0.0444,-0.19678 0.1333,-0.27295 0.0889,-0.0762 0.17351,-0.11426 0.25391,-0.11426 0.1058,0 0.19889,0.0169 0.2793,0.0508 0.0804,0.0339 0.13753,0.0656 0.17138,0.0952 0.0339,0.0339 0.0741,0.0804 0.12061,0.13965 0.0973,0.13965 0.19678,0.20947 0.29834,0.20947 0.0719,0 0.13542,-0.0275 0.19043,-0.0825 0.055,-0.0508 0.10156,-0.13542 0.13965,-0.2539 0.0423,-0.1185 0.0783,-0.23699 0.10791,-0.35547 0.0296,-0.11849 0.0529,-0.2793 0.0698,-0.48242 0.0169,-0.1989 0.0296,-0.37029 0.0381,-0.51416 0.0127,-0.14389 0.0212,-0.33855 0.0254,-0.58399 0.004,-0.24544 0.006,-0.43376 0.006,-0.56494 0,-0.13118 0,-0.31738 0,-0.55859 v -3.18018 c 0,-0.31315 -0.0233,-0.52262 -0.0698,-0.62842 -0.0423,-0.11002 -0.11637,-0.16926 -0.22217,-0.17773 l -0.55859,-0.0571 -0.0254,-0.31104 c 0.85905,-0.13118 1.47054,-0.26448 1.83447,-0.3999 0.0339,1e-5 0.0508,0.0127 0.0508,0.0381" /><path
       id="path4752"
       d="m 124.02457,147.97217 -1.02832,0.27295 c -0.83789,0.22852 -1.25684,0.70459 -1.25683,1.42822 -10e-6,0.23275 0.0846,0.44645 0.2539,0.64111 0.16927,0.19043 0.40413,0.28565 0.70459,0.28565 0.29622,0 0.67708,-0.18832 1.14258,-0.56494 0.12272,-0.0846 0.18408,-0.19678 0.18408,-0.33643 v -1.72656 m 0,2.40576 h -0.0254 l -0.26025,0.20312 c -0.28777,0.22429 -0.52263,0.37028 -0.70459,0.43799 -0.17774,0.0719 -0.41472,0.10791 -0.71094,0.10791 -0.49089,0 -0.88233,-0.11214 -1.17432,-0.33642 -0.29199,-0.22429 -0.43799,-0.57975 -0.43799,-1.06641 0,-0.43164 0.19255,-0.8125 0.57764,-1.14258 0.38932,-0.3343 0.90348,-0.58186 1.54248,-0.74267 l 1.11719,-0.27295 c 0.0508,-0.0169 0.0762,-0.0677 0.0762,-0.15235 0,-0.28352 -0.0233,-0.53108 -0.0698,-0.74267 -0.0466,-0.21582 -0.10368,-0.38509 -0.17139,-0.50781 -0.0677,-0.12272 -0.15235,-0.22005 -0.25391,-0.292 -0.0973,-0.0762 -0.19043,-0.12694 -0.27929,-0.15234 -0.0846,-0.0254 -0.17774,-0.0381 -0.2793,-0.0381 -0.2793,10e-6 -0.52897,0.0508 -0.74902,0.15235 -0.22006,0.10157 -0.33008,0.24756 -0.33008,0.43799 0,0.11849 0.008,0.20313 0.0254,0.2539 0.0254,0.055 0.0381,0.13331 0.0381,0.23487 -10e-6,0.10156 -0.0529,0.19889 -0.1587,0.29199 -0.10156,0.0931 -0.23909,0.13965 -0.41259,0.13965 -0.30046,0 -0.45069,-0.15234 -0.45069,-0.45704 0,-0.22851 0.10368,-0.45491 0.31104,-0.67919 0.20735,-0.22428 0.47819,-0.40625 0.8125,-0.5459 0.33431,-0.14388 0.67285,-0.21582 1.01562,-0.21582 0.20736,0 0.39567,0.0169 0.56494,0.0508 0.1735,0.0339 0.34701,0.0994 0.52051,0.19678 0.1735,0.0931 0.31738,0.21794 0.43164,0.37451 0.11849,0.15658 0.2137,0.37028 0.28565,0.64111 0.0762,0.26661 0.11425,0.57764 0.11426,0.93311 v 1.93603 c -1e-5,0.12272 -1e-5,0.22217 0,0.29834 0.004,0.0719 0.0106,0.15869 0.019,0.26025 0.0127,0.0973 0.0296,0.17562 0.0508,0.23487 0.0211,0.055 0.0487,0.11214 0.0825,0.17138 0.0381,0.0592 0.0867,0.10157 0.146,0.12696 0.0635,0.0254 0.13541,0.0381 0.21582,0.0381 0.0931,0 0.16926,-0.0169 0.22851,-0.0508 0.0592,-0.0339 0.10367,-0.0677 0.1333,-0.10156 0.0296,-0.0339 0.0529,-0.0508 0.0698,-0.0508 0.0254,0 0.055,0.0212 0.0889,0.0635 0.0381,0.0423 0.0571,0.0846 0.0571,0.12695 0,0.0169 -0.0169,0.0465 -0.0508,0.0889 -0.0339,0.0423 -0.0846,0.091 -0.15234,0.14599 -0.0635,0.055 -0.13754,0.11003 -0.22217,0.16504 -0.0846,0.0508 -0.1862,0.0931 -0.30469,0.12695 -0.11426,0.0381 -0.23063,0.0571 -0.34912,0.0571 -0.51205,0 -0.83789,-0.24967 -0.97754,-0.74902" /></g></svg>
