<?xml version="1.0" encoding="UTF-8" standalone="no"?>
<svg
   xmlns:dc="http://purl.org/dc/elements/1.1/"
   xmlns:cc="http://creativecommons.org/ns#"
   xmlns:rdf="http://www.w3.org/1999/02/22-rdf-syntax-ns#"
   xmlns:svg="http://www.w3.org/2000/svg"
   xmlns="http://www.w3.org/2000/svg"
   xml:space="preserve"
   enable-background="new 0 0 135 155"
   viewBox="0 0 128.90846 9.8878384"
   height="9.8878384"
   width="128.90846"
   y="0px"
   x="0px"
   id="svg3857"
   version="1.1"><metadata
     id="metadata714"><rdf:RDF><cc:Work
         rdf:about=""><dc:format>image/svg+xml</dc:format><dc:type
           rdf:resource="http://purl.org/dc/dcmitype/StillImage" /></cc:Work></rdf:RDF></metadata><defs
     id="defs3" /><path
     id="tagline"
     d="M 8.5019357,6.7660334 C 8.3617731,7.7981402 8.3235459,7.8108823 7.482571,7.8491085 7.3933766,7.9255608 7.3424083,8.1931441 7.4061186,8.2695964 8.0049944,8.2568544 8.3872572,8.2441123 8.769519,8.2441123 c 0.3822608,0 0.9556544,0.012742 1.388884,0.025484 0.0892,-0.076452 0.140163,-0.3440356 0.07645,-0.4204879 C 9.3811388,7.8108823 9.3556537,7.7599141 9.4830743,6.7023231 L 10.171145,1.3379162 C 10.26034,0.64984502 10.362277,0.47145619 11.241478,0.42048795 11.330673,0.3440356 11.381641,0.07645236 11.317931,0 L 9.6487211,0.02548412 5.6604565,6.4857081 C 5.5840042,6.6131287 5.5330359,6.664097 5.5075518,6.664097 c -0.038226,0 -0.038226,-0.050968 -0.076452,-0.1656468 L 4.1186674,0.02548412 2.2710688,0 C 2.1818744,0.07645236 2.1309061,0.3440356 2.1946164,0.42048795 3.0610755,0.47145619 3.1375288,0.49694031 2.8572035,1.4525947 L 1.2771882,6.7023231 C 1.0605732,7.4668467 0.84395717,7.7853982 0.10491872,7.8491085 0.0157243,7.9255608 -0.03524393,8.1931441 0.02846636,8.2695964 c 0.3822608,-0.012742 0.79000767,-0.025484 1.09581714,-0.025484 0.3058094,0 0.8154917,0.012742 1.1977535,0.025484 C 2.4112314,8.1931441 2.4621997,7.9255608 2.3984894,7.8491085 1.5702565,7.7853982 1.5702555,7.4031364 1.7996126,6.676839 l 1.503563,-5.1095657 h 0.025484 L 4.6410918,8.180402 c 0,0.1019365 0.089194,0.1401627 0.1656468,0.1401627 0.076452,0 0.1274206,-0.038226 0.2038729,-0.1401627 L 9.2282331,1.4398527 h 0.025484 L 8.5019357,6.7660334 M 12.572503,4.6508516 c 0.535166,-1.4398527 1.452595,-1.5545312 1.758404,-1.5545312 0.484198,0 1.006623,0.2675832 0.790008,1.3379162 -0.02548,0.1146785 -0.08919,0.1783888 -0.229357,0.1783888 l -2.319055,0.038226 m 2.866964,2.4082492 c -0.573393,0.4841982 -0.98114,0.6880712 -1.720178,0.6880712 -0.458715,0 -0.942913,-0.2675832 -1.210496,-0.9174283 C 12.343146,6.4092558 12.30492,5.8231211 12.457825,5.0840816 l 3.376645,0.025484 c 0.152905,0 0.254842,-0.076452 0.293068,-0.216615 0.203873,-1.0703329 0.05097,-2.2171183 -1.720178,-2.2171183 -1.108558,0 -2.752286,1.0575909 -3.147289,2.9943839 -0.140163,0.7135554 -0.101936,1.4016266 0.229357,1.8858248 0.331293,0.5096824 0.866461,0.8154918 1.783888,0.8154918 0.968396,0 1.745663,-0.4459721 2.382766,-1.1085592 -0.01274,-0.1274205 -0.07645,-0.1911308 -0.216615,-0.2038729 m 1.117993,0.1274206 c -0.06371,0.2803253 0.07645,0.4841982 0.293067,0.6880712 0.242099,0.2293571 0.828235,0.4969403 1.771146,0.4969403 1.197753,0 2.47196,-0.5351665 2.701317,-1.6437256 0.152905,-0.7645236 -0.407747,-1.286948 -1.337916,-1.4143686 l 0.01274,-0.06371 c 0.739038,-0.1656468 1.439852,-0.5861347 1.580015,-1.29969 0.152905,-0.7390395 -0.369521,-1.2996901 -1.656468,-1.2996901 -0.700812,0 -1.363401,0.2803253 -2.025987,0.3567777 l -0.586135,1.516305 0.318552,0.050968 C 17.99731,3.8353597 18.698125,3.045352 19.704746,3.045352 c 0.688071,0 0.981139,0.4459721 0.86646,1.0066227 -0.114678,0.5606506 -0.509683,1.1085592 -1.337916,1.1085592 -0.229357,0 -0.535166,-0.06371 -0.764523,-0.06371 -0.101937,0 -0.254842,0.06371 -0.293068,0.2675832 -0.03823,0.203873 0.101937,0.2548412 0.203873,0.2548412 0.229357,0 0.49694,-0.06371 0.790008,-0.06371 1.05759,0 1.223237,0.649845 1.108559,1.2104956 -0.152905,0.7517815 -0.713556,1.2104957 -1.592757,1.2104957 -0.675329,0 -1.006623,-0.3440356 -1.17227,-0.7645236 -0.07645,-0.216615 -0.165647,-0.4077459 -0.471456,-0.4077459 -0.216615,0 -0.445972,0.1783888 -0.484198,0.3822618 m 4.726981,2.6885745 0.331294,0.012742 c 0.203873,-0.4714562 0.764524,-1.6437256 1.834856,-1.6437256 h 2.064214 c 1.05759,0 1.197753,1.1213012 1.197753,1.6309836 h 0.318552 l 0.267583,-1.707436 C 27.336919,7.9892711 27.260467,7.9510449 27.03111,7.9000767 26.827237,7.8618505 26.559654,7.747172 26.648848,7.2757158 l 0.713556,-3.5295504 c 0.07645,-0.43323 0.229357,-0.5351665 0.700813,-0.5988768 l 0.216615,-0.025484 c 0.03823,0 0.101936,-0.038226 0.114678,-0.089194 l 0.05097,-0.2548412 -0.01274,-0.025484 c 0,0 -0.93017,0.025484 -1.350658,0.025484 h -2.420991 c -0.216615,0 -1.210496,-0.025484 -1.210496,-0.025484 l -0.03823,0.025484 -0.06371,0.2803253 c 0,0.050968 0.02548,0.06371 0.07645,0.06371 l 0.344036,0.025484 c 0.433229,0.038226 0.458714,0.2930674 0.43323,0.4459721 -0.305809,1.516305 -0.777266,2.6758324 -1.223238,3.7589075 -0.140163,0.3440356 -0.522424,0.5096823 -0.86646,0.5479085 -0.178389,0.025484 -0.344036,0.050968 -0.407746,0.2803253 L 21.284439,9.875096 m 2.076956,-2.2808286 c 0.05097,-0.216615 0.535167,-1.0958171 1.29969,-4.0010066 0.01274,-0.050968 0.127421,-0.3312935 0.420488,-0.3312935 h 0.904686 c 0.471456,0 0.471456,0.1911308 0.382262,0.6243609 L 25.73142,7.1228111 C 25.642226,7.543299 25.565773,7.747172 25.094317,7.747172 h -1.516305 c -0.127421,0 -0.242099,-0.012742 -0.216615,-0.1529047 m 5.841914,-4.8419825 -0.01274,0.025484 -0.06371,0.2803253 c 0,0.038226 0,0.06371 0.05097,0.06371 l 0.36952,0.025484 c 0.331293,0.025484 0.471456,0.1019365 0.382262,0.5479086 l -0.828234,3.5932607 c -0.114678,0.445972 -0.216615,0.5606506 -0.662587,0.5861347 l -0.395004,0.025484 c -0.05097,0.012742 -0.07645,0.025484 -0.08919,0.06371 l -0.05097,0.2803253 0.01274,0.025484 c 0,0 0.815492,-0.025484 1.197753,-0.025484 0.382262,0 1.006623,0.025484 1.006623,0.025484 l 0.02548,-0.025484 0.05097,-0.2675832 c 0.01274,-0.050968 -0.01274,-0.06371 -0.06371,-0.076452 L 29.929608,7.8745926 C 29.547347,7.8363664 29.470894,7.7089458 29.560088,7.2884579 l 0.840976,-3.6951972 h 0.02548 l 0.993881,4.5743992 c 0.02548,0.089194 0.06371,0.1274206 0.114678,0.1274206 0.07645,0 0.152905,-0.038226 0.203873,-0.1274206 l 2.943416,-4.7910142 h 0.01274 L 33.90513,7.2757158 c -0.101936,0.4587141 -0.152905,0.5351665 -0.598876,0.5988768 l -0.178389,0.025484 c -0.03823,0.012742 -0.06371,0.025484 -0.07645,0.076452 l -0.05097,0.2675832 0.01274,0.025484 c 0,0 0.700814,-0.025484 1.083075,-0.025484 0.382262,0 1.490821,0.025484 1.490821,0.025484 l 0.01274,-0.025484 0.05097,-0.2675832 c 0.01274,-0.038226 -0.01274,-0.06371 -0.06371,-0.076452 l -0.36952,-0.025484 C 34.707881,7.8491085 34.695138,7.7089458 34.784332,7.2757158 L 35.497888,3.6951972 C 35.599824,3.223741 35.638051,3.1855148 36.122249,3.1472886 l 0.356777,-0.025484 c 0.05097,0 0.0892,-0.025484 0.0892,-0.06371 l 0.06371,-0.2803253 -0.02548,-0.025484 -1.962277,0.025484 -2.612122,4.3195581 -0.86646,-4.3195581 -1.962277,-0.025484 m 9.579117,-1.83485654 c -0.06371,0.33129354 0.152905,0.59887674 0.484199,0.59887674 0.331293,0 0.649845,-0.2675832 0.713555,-0.59887674 0.06371,-0.33129354 -0.140163,-0.61161884 -0.471456,-0.61161884 -0.331293,0 -0.662587,0.2803253 -0.726298,0.61161884 m 2.153408,0 c -0.06371,0.33129354 0.152905,0.59887674 0.484199,0.59887674 0.331293,0 0.649845,-0.2675832 0.713555,-0.59887674 0.06371,-0.33129354 -0.140163,-0.61161884 -0.471456,-0.61161884 -0.331293,0 -0.662587,0.2803253 -0.726298,0.61161884 M 36.820151,5.6319902 c -0.254841,1.29969 0.331296,2.7395427 2.127924,2.7395427 1.898565,0 3.019869,-1.5800153 3.274709,-2.8542213 0.267583,-1.3251741 -0.127422,-2.8669633 -2.102439,-2.8669633 -1.720177,0 -2.981642,1.3634003 -3.300194,2.9816419 m 3.070837,-2.5611539 c 1.095816,0 1.529046,0.9811385 1.146785,2.8542212 -0.331293,1.6819518 -1.17227,2.0259874 -1.771146,2.0259874 -1.325173,0 -1.490821,-1.6309835 -1.286948,-2.6121221 0.216615,-1.1085591 0.840977,-2.2680865 1.911309,-2.2680865 m 3.752811,-0.3185515 -0.01274,0.025484 -0.06371,0.2803253 c 0,0.038226 0,0.06371 0.05097,0.06371 l 0.36952,0.025484 c 0.331293,0.025484 0.471456,0.1019365 0.382261,0.5479086 l -0.828234,3.5932607 c -0.114678,0.445972 -0.216615,0.5606506 -0.662587,0.5861347 l -0.395003,0.025484 c -0.05097,0.012742 -0.07645,0.025484 -0.08919,0.06371 l -0.05097,0.2803253 0.01274,0.025484 c 0,0 0.815492,-0.025484 1.197753,-0.025484 0.382262,0 1.006623,0.025484 1.006623,0.025484 l 0.02548,-0.025484 0.05097,-0.2675832 c 0.01274,-0.050968 -0.01274,-0.06371 -0.06371,-0.076452 L 44.370096,7.8745926 C 43.987835,7.8363664 43.911382,7.7089458 44.000577,7.2884579 l 0.840975,-3.6951972 h 0.02549 l 0.99388,4.5743992 c 0.02548,0.089194 0.06371,0.1274206 0.114679,0.1274206 0.07645,0 0.152904,-0.038226 0.203873,-0.1274206 l 2.943415,-4.7910142 h 0.01274 l -0.790007,3.8990701 c -0.101937,0.4587141 -0.152905,0.5351665 -0.598877,0.5988768 l -0.178389,0.025484 c -0.03823,0.012742 -0.06371,0.025484 -0.07645,0.076452 l -0.05097,0.2675832 0.01274,0.025484 c 0,0 0.700813,-0.025484 1.083075,-0.025484 0.382261,0 1.490821,0.025484 1.490821,0.025484 l 0.01274,-0.025484 0.05097,-0.2675832 c 0.01274,-0.038226 -0.01274,-0.06371 -0.06371,-0.076452 l -0.36952,-0.025484 C 49.148369,7.8491085 49.135626,7.7089458 49.224821,7.2757158 L 49.938376,3.6951972 C 50.040313,3.223741 50.07854,3.1855148 50.562737,3.1472886 l 0.356778,-0.025484 c 0.05097,0 0.08919,-0.025484 0.08919,-0.06371 l 0.06371,-0.2803253 -0.02548,-0.025484 -1.962277,0.025484 -2.612122,4.3195581 -0.86646,-4.3195581 -1.962277,-0.025484 m 9.231165,4.4469786 c -0.127421,0.6753292 0.67533,1.1722695 1.834857,1.1722695 1.261461,0 2.714058,-0.8919441 3.121804,-2.9434157 0.305809,-1.5417891 -0.165649,-2.7777689 -1.860341,-2.7777689 -0.598876,0 -1.159528,0.203873 -1.79663,0.2420991 -0.140163,0.4841983 -0.280326,0.9174283 -0.535166,1.5290471 l 0.305809,0.050968 c 0.382261,-0.8154918 0.904687,-1.4271107 1.847599,-1.4271107 1.134041,0 1.286947,1.0958171 1.057591,2.2680866 l -0.03823,0.025484 c -0.293064,-0.203873 -0.611616,-0.3567778 -0.981135,-0.3567778 -0.547909,0 -0.955656,0.3567777 -1.401627,0.3567777 -0.165647,0 -0.305809,-0.076452 -0.395004,-0.076452 -0.07645,0 -0.12742,0.1274206 -0.140162,0.1783889 -0.03823,0.1783888 0.509682,0.4077459 1.057591,0.4077459 0.573391,0 0.853718,-0.2803253 1.337916,-0.2803253 0.165646,0 0.318551,0.050968 0.458714,0.1146785 -0.305809,1.516305 -1.019366,2.2680865 -2.089698,2.2680865 -0.509682,0 -0.802749,-0.3058094 -0.879202,-0.649845 -0.114678,-0.3950038 -0.2421,-0.4714562 -0.458714,-0.4714562 -0.229357,0 -0.395004,0.1656468 -0.445972,0.3695197 m 9.725452,0.06371 c -0.08919,0.4841983 -0.178389,0.5861348 -0.637103,0.6116189 l -0.344035,0.025484 c -0.03823,0.012742 -0.06371,0.025484 -0.07645,0.06371 l -0.05097,0.2803253 0.01274,0.025484 c 0.382262,-0.012742 0.917428,-0.025484 1.376143,-0.025484 0.471456,0 0.93017,0.012742 1.312432,0.025484 l 0.02548,-0.025484 0.05097,-0.2675832 c 0.01274,-0.050968 -0.01274,-0.06371 -0.06371,-0.076452 L 63.963817,7.8745926 C 63.530587,7.8363664 63.454134,7.7726561 63.556071,7.2629737 L 64.269626,3.7461654 C 64.371562,3.223741 64.460757,3.1982569 64.906729,3.1472886 l 0.254841,-0.025484 c 0.05097,0 0.0892,-0.025484 0.101937,-0.076452 l 0.05097,-0.2675832 -0.01274,-0.025484 c -0.382262,0.012742 -0.853718,0.025484 -1.325174,0.025484 -0.458715,0 -0.981139,-0.012742 -1.363401,-0.025484 l -0.02548,0.025484 -0.06371,0.2803253 c 0,0.050968 0.01274,0.06371 0.05097,0.06371 l 0.331294,0.025484 c 0.395003,0.038226 0.49694,0.1146786 0.407746,0.5988768 L 63.033646,5.1095657 H 60.421524 L 60.701849,3.7461654 C 60.803786,3.223741 60.89298,3.1982569 61.338952,3.1472886 l 0.254842,-0.025484 c 0.05097,0 0.08919,-0.025484 0.101936,-0.076452 L 61.7467,2.7777694 61.73396,2.7522854 c -0.382262,0.012742 -0.86646,0.025484 -1.337916,0.025484 -0.458714,0 -0.968397,-0.012742 -1.350658,-0.025484 l -0.02548,0.025484 -0.06371,0.2803253 c 0,0.050968 0.01274,0.06371 0.05097,0.06371 l 0.331293,0.025484 c 0.395004,0.038226 0.49694,0.1146786 0.407746,0.5988768 L 59.03264,7.2629737 c -0.0892,0.4841983 -0.178389,0.5861348 -0.637103,0.6116189 l -0.344036,0.025484 c -0.03823,0.012742 -0.06371,0.025484 -0.07645,0.06371 l -0.05097,0.2803253 0.01274,0.025484 c 0.382261,-0.012742 0.904686,-0.025484 1.3634,-0.025484 0.471456,0 0.942912,0.012742 1.325174,0.025484 l 0.02548,-0.025484 0.05097,-0.2675832 c 0.01274,-0.050968 -0.01274,-0.06371 -0.06371,-0.076452 L 60.39604,7.8745926 C 59.96281,7.8363664 59.886358,7.7726561 59.988294,7.2629737 L 60.33233,5.5427958 h 2.612122 L 62.600416,7.2629737 M 70.10875,3.7589075 69.446163,7.1228111 c -0.08919,0.43323 -0.165647,0.6243609 -0.637103,0.6243609 h -1.529047 c -0.445971,0 -0.484198,-0.1529047 -0.382262,-0.6243609 L 67.57308,3.7461654 C 67.675017,3.223741 67.75147,3.1982569 68.197441,3.1472886 l 0.267583,-0.025484 c 0.05097,0 0.0892,-0.025484 0.101937,-0.076452 l 0.05097,-0.2675832 -0.02548,-0.025484 c 0,0 -0.815492,0.025484 -1.325174,0.025484 -0.535166,0 -1.3634,-0.025484 -1.3634,-0.025484 l -0.01274,0.025484 -0.06371,0.2803253 c 0,0.050968 0.01274,0.06371 0.06371,0.06371 l 0.331294,0.025484 c 0.420488,0.038226 0.484198,0.1146786 0.395004,0.5988768 L 65.903871,7.313942 C 65.801934,7.8108823 65.725482,7.8236243 65.27951,7.8745926 l -0.229357,0.025484 c -0.03823,0.012742 -0.06371,0.025484 -0.07645,0.076452 l -0.05097,0.2675832 0.02548,0.025484 c 0,0 0.802751,-0.025484 1.185012,-0.025484 h 3.09632 c 1.006622,0 1.185011,1.0193647 1.197754,1.6437256 L 70.745853,9.8750959 71.013436,8.180402 C 71.03892,7.963787 70.9115,7.9383029 70.694885,7.9000767 70.478271,7.8618505 70.287139,7.6579776 70.363591,7.2757158 L 71.064404,3.7589075 C 71.179083,3.236483 71.268278,3.1855148 71.71425,3.1472886 l 0.318551,-0.025484 c 0.05097,0 0.08919,-0.025484 0.08919,-0.06371 l 0.06371,-0.2803253 -0.02548,-0.025484 c 0,0 -0.840976,0.025484 -1.376143,0.025484 -0.509681,0 -1.29969,-0.025484 -1.29969,-0.025484 l -0.01274,0.025484 -0.06371,0.2803253 c 0,0.050968 0.01274,0.06371 0.05097,0.06371 l 0.267583,0.025484 c 0.420488,0.050968 0.484199,0.1146786 0.382262,0.6116189 m 4.094661,-0.9811386 c -0.547908,0 -1.388885,-0.025484 -1.388885,-0.025484 l -0.03823,0.025484 -0.06371,0.2803253 c 0,0.050968 0.01274,0.06371 0.06371,0.06371 l 0.382262,0.025484 c 0.458714,0.038226 0.484198,0.1401627 0.36952,0.6753292 L 72.84001,7.2629737 c -0.08919,0.4459721 -0.152904,0.5861348 -0.62436,0.6116189 l -0.407746,0.025484 c -0.03823,0.012742 -0.06371,0.025484 -0.07645,0.06371 l -0.05097,0.2803253 0.01274,0.025484 c 0.509682,-0.012742 0.866461,-0.025484 1.414369,-0.025484 0.407746,0 0.522425,0.012742 1.032106,0.025484 l 0.01274,-0.025484 0.05097,-0.2675832 c 0.01274,-0.050968 -0.01274,-0.06371 -0.06371,-0.076452 C 73.719213,7.8618507 73.706469,7.7216879 73.77018,7.4158785 V 7.3903945 L 77.032147,4.2303639 76.43327,7.2374898 c -0.08919,0.4459721 -0.178389,0.6116189 -0.649845,0.637103 l -0.407746,0.025484 c -0.03823,0.012742 -0.06371,0.025484 -0.07645,0.06371 l -0.05097,0.2803253 0.02548,0.025484 c 0.509682,-0.012742 0.853719,-0.025484 1.401626,-0.025484 0.573393,0 0.955656,0.012742 1.465337,0.025484 l 0.01274,-0.025484 0.05097,-0.2675832 c 0.01274,-0.050968 -0.01274,-0.06371 -0.06371,-0.076452 l -0.36952,-0.025484 C 77.325216,7.8491085 77.286989,7.7089458 77.388926,7.2374896 L 78.076997,3.8098757 C 78.178933,3.2747092 78.229902,3.1855148 78.7141,3.1472886 l 0.382262,-0.025484 c 0.05097,0 0.08919,-0.025484 0.101936,-0.076452 l 0.05097,-0.2675832 -0.01274,-0.025484 c 0,0 -0.891944,0.025484 -1.465337,0.025484 -0.356776,0 -0.93017,-0.025484 -0.93017,-0.025484 l -0.02548,0.025484 -0.06371,0.2803253 c 0,0.050968 0.01274,0.06371 0.05097,0.06371 0.43323,0.038226 0.395004,0.2548412 0.344035,0.5606506 L 73.884869,6.842486 74.496488,3.8098759 C 74.598425,3.2874515 74.649394,3.185515 75.146333,3.1472888 l 0.382262,-0.025484 c 0.05097,0 0.08919,-0.025484 0.101936,-0.076452 l 0.05097,-0.2675832 -0.02548,-0.025484 c 0,0 -0.891945,0.025484 -1.452595,0.025484 m 4.622652,5.4663434 0.02548,0.025484 c 0,0 0.866461,-0.025484 1.312432,-0.025484 0.496941,0 1.23598,0.025484 1.23598,0.025484 L 81.42545,8.244113 81.47642,8.0020139 C 81.48916,7.9383039 81.43819,7.9128199 81.38723,7.9000774 81.119647,7.8618514 80.750127,7.7853989 80.839322,7.3649109 l 0.356777,-1.7838883 c 0.942912,0.06371 1.134044,0.5224245 1.23598,1.2232377 0.07645,0.5606506 0.293068,1.4398527 0.93017,1.4525948 l 0.917429,0.012742 0.03823,-0.025484 0.05097,-0.2293571 c 0.01274,-0.089194 -0.07645,-0.1146785 -0.127421,-0.1146785 l -0.08919,-0.012742 C 83.706273,7.8236243 83.400462,6.7150652 83.298526,6.2308669 83.158363,5.606506 82.750616,5.3261807 82.062546,5.3261807 l 0.01274,-0.050968 c 0.496941,-0.1401626 0.879202,-0.5733927 1.17227,-1.083075 0.216615,-0.3950039 0.509682,-0.6753292 0.637103,-0.6753292 0.114678,0 0.203873,0.038226 0.267583,0.089195 0.07645,0.06371 0.178389,0.1146785 0.331294,0.1146785 0.267583,0 0.535166,-0.2293571 0.586134,-0.4841983 0.05097,-0.3058094 -0.02548,-0.5733926 -0.547908,-0.5733926 -0.611618,0 -1.159528,0.6880712 -1.516305,1.286948 -0.420487,0.7008132 -0.866461,1.1850115 -1.720178,1.1850115 l 0.293067,-1.4525948 c 0.08919,-0.4587141 0.36952,-0.5224244 0.739039,-0.5606506 0.05097,0 0.114679,-0.06371 0.127421,-0.1274206 l 0.05097,-0.216615 -0.02548,-0.025484 c 0,0 -0.713555,0.025484 -1.210495,0.025484 -0.445972,0 -1.312433,-0.025484 -1.312433,-0.025484 l -0.02548,0.025484 -0.05097,0.2420991 c -0.01274,0.06371 0.02548,0.089194 0.07645,0.1019365 l 0.2421,0.025484 c 0.395003,0.038226 0.49694,0.203873 0.420488,0.5606506 l -0.726298,3.6314869 c -0.06371,0.3567777 -0.178389,0.4841982 -0.637103,0.5351665 l -0.254841,0.025484 c -0.06371,0.012742 -0.101936,0.038226 -0.114679,0.1019365 l -0.05097,0.2420991 m 5.63426,-0.5861347 c -0.07645,0.3950038 0.191131,0.7390394 0.751782,0.7390394 0.611618,0 1.019365,-0.3185515 1.439853,-1.0193647 0.356776,-0.6116189 0.688071,-1.9113089 0.853718,-2.7777689 0.203872,-0.9938806 0.305809,-1.3251742 0.790007,-1.3251742 h 0.573393 c 0.458713,0 0.471456,0.1783888 0.382262,0.6116189 l -0.675329,3.4148718 c -0.07645,0.3695197 -0.203874,0.5224244 -0.662588,0.5733927 l -0.254841,0.025484 c -0.06371,0.012742 -0.101936,0.038226 -0.114678,0.1019365 l -0.05097,0.2420991 0.02548,0.025484 c 0,0 0.86646,-0.025484 1.325174,-0.025484 0.496939,0 1.3634,0.025484 1.3634,0.025484 l 0.02548,-0.025484 0.05097,-0.2420991 c 0.01274,-0.06371 -0.03823,-0.1019365 -0.08919,-0.1019365 l -0.229357,-0.025484 c -0.407746,-0.038226 -0.509682,-0.203873 -0.43323,-0.5733927 l 0.713555,-3.5550345 c 0.0892,-0.4841982 0.140163,-0.5606506 0.637103,-0.5988768 l 0.356778,-0.025484 c 0.07645,0 0.114678,-0.025484 0.127421,-0.089194 l 0.05097,-0.2548412 -0.03823,-0.025484 c 0,0 -0.866461,0.025484 -1.414369,0.025484 h -2.217118 c -0.509683,0 -1.312432,-0.025484 -1.312432,-0.025484 l -0.03823,0.025484 -0.03823,0.203873 c -0.02548,0.1146785 0.02548,0.1274205 0.229357,0.1401626 0.713555,0.050968 0.713555,0.2293571 0.445972,1.5672733 -0.267583,1.3379162 -0.509683,2.0387295 -0.777265,2.5611539 -0.254841,0.4587141 -0.484199,0.6243609 -0.688071,0.6243609 -0.152905,0 -0.191131,-0.1019365 -0.178389,-0.2675833 0.01274,-0.229357 -10e-7,-0.4841982 -0.344036,-0.4841982 -0.305809,0 -0.522424,0.2548412 -0.586135,0.5351665 m 7.079083,-2.0259874 c -0.254841,1.29969 0.331295,2.7395427 2.127924,2.7395427 1.898564,0 3.019868,-1.5800153 3.274709,-2.8542213 0.267582,-1.3251741 -0.127423,-2.8669633 -2.10244,-2.8669633 -1.720177,0 -2.981643,1.3634003 -3.300193,2.9816419 m 3.070836,-2.5611539 c 1.095816,0 1.529046,0.9811385 1.146785,2.8542212 -0.331293,1.6819518 -1.17227,2.0259874 -1.771146,2.0259874 -1.325173,0 -1.490821,-1.6309835 -1.286948,-2.6121221 0.216614,-1.1085591 0.840977,-2.2680865 1.911309,-2.2680865 m 4.351692,0.7008132 -0.700814,3.5040663 c -0.08919,0.4459721 -0.191131,0.5733927 -0.637103,0.5988768 l -0.395003,0.025484 c -0.05097,0.012742 -0.07645,0.025484 -0.0892,0.06371 l -0.05097,0.2803253 0.02548,0.025484 c 0,0 0.866461,-0.025484 1.427111,-0.025484 0.535165,0 1.388884,0.025484 1.388884,0.025484 l 0.01274,-0.025484 0.05097,-0.2675832 c 0.01274,-0.050968 -0.01274,-0.06371 -0.05097,-0.076452 L 99.611779,7.8745926 C 99.178549,7.8491085 99.12758,7.7599141 99.216775,7.2757158 l 0.700813,-3.5040663 c 0.08919,-0.445972 0.356782,-0.4969403 0.624362,-0.4969403 h 1.54179 c 0.25484,0 0.52242,0.025484 0.42049,0.4969403 l -0.70082,3.5040663 c -0.0892,0.4459721 -0.19113,0.5733927 -0.6371,0.5988768 l -0.35678,0.025484 c -0.0382,0.012742 -0.0637,0.025484 -0.0764,0.06371 l -0.051,0.2803253 0.0127,0.025484 c 0,0 0.85372,-0.025484 1.40163,-0.025484 0.54791,0 1.42711,0.025484 1.42711,0.025484 l 0.0127,-0.025484 0.051,-0.2675832 c 0.0127,-0.050968 -0.0127,-0.06371 -0.0637,-0.076452 l -0.36952,-0.025484 c -0.44597,-0.025484 -0.49694,-0.1146785 -0.40774,-0.5988768 l 0.70081,-3.5168083 c 0.11468,-0.5224245 0.1529,-0.5733927 0.64984,-0.6116189 l 0.38227,-0.025484 c 0.051,0 0.0892,-0.025484 0.10193,-0.076452 l 0.051,-0.2675832 -0.0127,-0.025484 c 0,0 -0.89195,0.025484 -1.46534,0.025484 h -3.529549 c -0.547908,0 -1.401627,-0.025484 -1.401627,-0.025484 l -0.02548,0.025484 -0.06371,0.2803253 c 0,0.050968 0.01274,0.06371 0.05097,0.06371 l 0.382262,0.025484 c 0.43323,0.038226 0.509682,0.089194 0.395004,0.6243609 m 7.04724,0.8792021 c 0.53516,-1.4398527 1.45259,-1.5545312 1.7584,-1.5545312 0.4842,0 1.00662,0.2675832 0.79001,1.3379162 -0.0255,0.1146785 -0.0892,0.1783888 -0.22936,0.1783888 l -2.31905,0.038226 m 2.86696,2.4082492 c -0.57339,0.4841982 -0.98114,0.6880712 -1.72018,0.6880712 -0.45871,0 -0.94291,-0.2675832 -1.21049,-0.9174283 -0.16565,-0.4204879 -0.20387,-1.0066226 -0.051,-1.7456621 l 3.37665,0.025484 c 0.1529,0 0.25484,-0.076452 0.29306,-0.216615 0.20388,-1.0703329 0.051,-2.2171183 -1.72017,-2.2171183 -1.10856,0 -2.75229,1.0575909 -3.14729,2.9943839 -0.14017,0.7135554 -0.10194,1.4016266 0.22935,1.8858248 0.3313,0.5096824 0.86646,0.8154918 1.78389,0.8154918 0.9684,0 1.74566,-0.4459721 2.38277,-1.1085592 -0.0127,-0.1274205 -0.0765,-0.1911308 -0.21662,-0.2038729 m 0.31703,2.8159951 0.3313,0.012742 c 0.20387,-0.4714562 0.76452,-1.6437256 1.83485,-1.6437256 h 2.06422 c 1.05759,0 1.19775,1.1213012 1.19775,1.6309836 h 0.31855 l 0.26758,-1.707436 c 0.0382,-0.1783888 -0.0382,-0.216615 -0.26758,-0.2675832 -0.20387,-0.038226 -0.47146,-0.1529047 -0.38226,-0.6243609 l 0.71355,-3.5295504 c 0.0765,-0.43323 0.22936,-0.5351665 0.70082,-0.5988768 l 0.21661,-0.025484 c 0.0382,0 0.10194,-0.038226 0.11468,-0.089194 l 0.051,-0.2548412 -0.0127,-0.025484 c 0,0 -0.93017,0.025484 -1.35066,0.025484 h -2.42099 c -0.21662,0 -1.2105,-0.025484 -1.2105,-0.025484 l -0.0382,0.025484 -0.0637,0.2803253 c 0,0.050968 0.0255,0.06371 0.0765,0.06371 l 0.34403,0.025484 c 0.43323,0.038226 0.45872,0.2930674 0.43323,0.4459721 -0.3058,1.516305 -0.77726,2.6758324 -1.22323,3.7589075 -0.14017,0.3440356 -0.52243,0.5096823 -0.86646,0.5479085 -0.17839,0.025484 -0.34404,0.050968 -0.40775,0.2803253 l -0.42049,1.6946939 m 2.07696,-2.2808286 c 0.051,-0.216615 0.53517,-1.0958171 1.29969,-4.0010066 0.0127,-0.050968 0.12742,-0.3312935 0.42049,-0.3312935 h 0.90468 c 0.47146,0 0.47146,0.1911308 0.38226,0.6243609 l -0.6371,3.236483 c -0.0892,0.4204879 -0.16565,0.6243609 -0.6371,0.6243609 h -1.51631 c -0.12742,0 -0.2421,-0.012742 -0.21661,-0.1529047 m 7.12886,-4.8164984 c -0.54791,0 -1.38888,-0.025484 -1.38888,-0.025484 l -0.0382,0.025484 -0.0637,0.2803253 c 0,0.050968 0.0127,0.06371 0.0637,0.06371 l 0.38226,0.025484 c 0.45872,0.038226 0.4842,0.1401627 0.36952,0.6753292 l -0.68807,3.4403559 c -0.0892,0.4459721 -0.1529,0.5861348 -0.62436,0.6116189 l -0.40775,0.025484 c -0.0382,0.012742 -0.0637,0.025484 -0.0764,0.06371 l -0.051,0.2803253 0.0127,0.025484 c 0.50968,-0.012742 0.86646,-0.025484 1.41436,-0.025484 0.40775,0 0.52243,0.012742 1.03211,0.025484 l 0.0127,-0.025484 0.051,-0.2675832 c 0.0127,-0.050968 -0.0127,-0.06371 -0.0637,-0.076452 -0.42049,-0.038226 -0.43323,-0.1783888 -0.36952,-0.4841982 v -0.025484 l 3.26197,-3.1600306 -0.59888,3.0071259 c -0.0892,0.4459721 -0.17839,0.6116189 -0.64984,0.637103 l -0.40775,0.025484 c -0.0382,0.012742 -0.0637,0.025484 -0.0765,0.06371 l -0.051,0.2803253 0.0255,0.025484 c 0.50969,-0.012742 0.85372,-0.025484 1.40163,-0.025484 0.57339,0 0.95566,0.012742 1.46534,0.025484 l 0.0127,-0.025484 0.051,-0.2675832 c 0.0127,-0.050968 -0.0127,-0.06371 -0.0637,-0.076452 l -0.36952,-0.025484 c -0.44597,-0.025484 -0.4842,-0.1656468 -0.38226,-0.637103 l 0.68807,-3.4276139 c 0.10193,-0.5351665 0.1529,-0.6243609 0.6371,-0.6625871 l 0.38226,-0.025484 c 0.051,0 0.0892,-0.025484 0.10194,-0.076452 l 0.051,-0.2675832 -0.0127,-0.025484 c 0,0 -0.89194,0.025484 -1.46533,0.025484 -0.35678,0 -0.93017,-0.025484 -0.93017,-0.025484 l -0.0255,0.025484 -0.0637,0.2803253 c 0,0.050968 0.0127,0.06371 0.051,0.06371 0.43323,0.038226 0.39501,0.2548412 0.34404,0.5606506 l -3.26197,3.1600307 0.61162,-3.0326101 c 0.10194,-0.5224244 0.1529,-0.6243609 0.64984,-0.6625871 l 0.38227,-0.025484 c 0.051,0 0.0892,-0.025484 0.10193,-0.076452 l 0.051,-0.2675832 -0.0255,-0.025484 c 0,0 -0.89195,0.025484 -1.4526,0.025484 m 4.3933,5.4663434 0.0382,0.025484 0.80275,-0.012742 c 0.40775,-0.012742 0.93017,-0.5224245 1.28695,-1.1467854 0.47146,-0.8282338 0.93017,-1.3634003 1.43985,-1.3634003 h 0.31855 l -0.3058,1.516305 c -0.0892,0.4969404 -0.14017,0.5988768 -0.56066,0.6243609 l -0.20387,0.012742 c -0.051,0 -0.0765,0.038226 -0.0892,0.089194 l -0.051,0.2803253 c 0,0 0.7263,-0.025484 1.18501,-0.025484 0.44597,0 1.15953,0.025484 1.15953,0.025484 l 0.051,-0.2548412 c 0,-0.025484 -0.0127,-0.1146785 -0.11468,-0.1146785 l -0.26759,-0.012742 c -0.20387,-0.012742 -0.21661,-0.2930673 -0.1529,-0.6243609 l 0.75178,-3.7334233 c 0.051,-0.2675832 0.16565,-0.3695197 0.39501,-0.3822618 l 0.31855,-0.025484 c 0.0255,0 0.051,-0.012742 0.051,-0.038226 l 0.0637,-0.3058094 -0.0255,-0.025484 c 0,0 -0.67533,0.025484 -1.10856,0.025484 -0.40774,0 -0.0765,-0.025484 -1.04485,-0.025484 -2.17889,0 -2.52292,1.1722694 -2.59938,1.5417892 -0.17839,0.9046862 0.66259,1.3506582 1.3634,1.3506582 l -0.0127,0.038226 c -0.36952,0.06371 -0.85372,0.3695197 -1.17227,0.8919441 -0.29307,0.4714562 -0.86646,1.274206 -1.21049,1.3124321 l -0.11468,0.012742 c -0.051,0 -0.12742,0.012742 -0.14016,0.1019365 l -0.051,0.2420991 m 2.31905,-4.090201 c 0.12742,-0.5988768 0.40775,-1.0321068 1.50356,-1.0321068 0.49694,0 0.58614,0.050968 0.49694,0.4587141 l -0.34403,1.7329201 h -0.85372 c -0.7263,0 -0.93017,-0.5224244 -0.80275,-1.1595274"
     style="font-style:normal;font-variant:normal;font-weight:normal;font-stretch:normal;font-size:13px;font-family:Sans;-inkscape-font-specification:Sans;letter-spacing:-0.2;word-spacing:-1;fill:#000000;fill-opacity:1;stroke:none;stroke-width:0.980158px;stroke-linecap:butt;stroke-linejoin:miter;stroke-opacity:1" /></svg>
