<?xml version="1.0" encoding="UTF-8" standalone="no"?>
<svg
   xmlns:dc="http://purl.org/dc/elements/1.1/"
   xmlns:cc="http://creativecommons.org/ns#"
   xmlns:rdf="http://www.w3.org/1999/02/22-rdf-syntax-ns#"
   xmlns:svg="http://www.w3.org/2000/svg"
   xmlns="http://www.w3.org/2000/svg"
   id="svg3857"
   xml:space="preserve"
   enable-background="new 0 0 135 155"
   viewBox="0 0 112.0977 12.116"
   height="12.116"
   width="112.0977"
   y="0px"
   x="0px"
   version="1.1"><metadata
     id="metadata4852"><rdf:RDF><cc:Work
         rdf:about=""><dc:format>image/svg+xml</dc:format><dc:type
           rdf:resource="http://purl.org/dc/dcmitype/StillImage" /><dc:title /></cc:Work></rdf:RDF></metadata><defs
     id="defs4850"><radialGradient
       id="SVGID_1_"
       cx="-145.4702"
       cy="87.823196"
       r="68.686401"
       gradientTransform="matrix(1,0,0,-1,192.3999,143.0996)"
       gradientUnits="userSpaceOnUse">
		<stop
   offset="0"
   style="stop-color:#FFFFFF"
   id="stop3922" />
		<stop
   offset="0.4835"
   style="stop-color:#EAEAEB"
   id="stop3924" />
		<stop
   offset="0.9451"
   style="stop-color:#A9ABAE"
   id="stop3926" />
		<stop
   offset="1"
   style="stop-color:#999B9E"
   id="stop3928" />
	</radialGradient><linearGradient
       id="SVGID_2_"
       gradientUnits="userSpaceOnUse"
       x1="66.232399"
       y1="24.481001"
       x2="112.7331"
       y2="97.232101">
		<stop
   offset="0"
   style="stop-color:#8A8A8A"
   id="stop3935" />
		<stop
   offset="0.5687"
   style="stop-color:#606060"
   id="stop3937" />
		<stop
   offset="0.5914"
   style="stop-color:#FFFFFF"
   id="stop3939" />
		<stop
   offset="0.6116"
   style="stop-color:#585858"
   id="stop3941" />
		<stop
   offset="1"
   style="stop-color:#303030"
   id="stop3943" />
	</linearGradient><linearGradient
       id="SVGID_5_"
       gradientUnits="userSpaceOnUse"
       x1="54.715801"
       y1="65.136703"
       x2="83.798798"
       y2="65.136703">
		<stop
   offset="0"
   style="stop-color:#231F20"
   id="stop3964" />
		<stop
   offset="1"
   style="stop-color:#474747"
   id="stop3966" />
	</linearGradient><linearGradient
       id="SVGID_6_"
       gradientUnits="userSpaceOnUse"
       x1="-123.5898"
       y1="119.8076"
       x2="-94.069099"
       y2="29.9035"
       gradientTransform="matrix(1,0,0,-1,192.3999,143.0996)">
		<stop
   offset="0"
   style="stop-color:#FFFFFF"
   id="stop3997" />
		<stop
   offset="0.0094"
   style="stop-color:#FCFCFC"
   id="stop3999" />
		<stop
   offset="0.0655"
   style="stop-color:#EEEEEE"
   id="stop4001" />
		<stop
   offset="0.1342"
   style="stop-color:#E5E5E5"
   id="stop4003" />
		<stop
   offset="0.2515"
   style="stop-color:#E3E3E3"
   id="stop4005" />
		<stop
   offset="0.3357"
   style="stop-color:#8A8A8A"
   id="stop4007" />
		<stop
   offset="0.4422"
   style="stop-color:#B8B8B8"
   id="stop4009" />
		<stop
   offset="1"
   style="stop-color:#3B3B3B"
   id="stop4011" />
	</linearGradient><linearGradient
       id="SVGID_7_"
       gradientUnits="userSpaceOnUse"
       x1="70.421898"
       y1="26.876499"
       x2="119.5471"
       y2="87.626701">
		<stop
   offset="0"
   style="stop-color:#EFF0F0"
   id="stop4016" />
		<stop
   offset="0.5914"
   style="stop-color:#F0F1F2"
   id="stop4018" />
		<stop
   offset="0.599"
   style="stop-color:#787878"
   id="stop4020" />
		<stop
   offset="0.6456"
   style="stop-color:#EEEFF0"
   id="stop4022" />
		<stop
   offset="1"
   style="stop-color:#D8D9DB"
   id="stop4024" />
	</linearGradient><linearGradient
       id="SVGID_8_"
       gradientUnits="userSpaceOnUse"
       x1="-117.166"
       y1="122.1328"
       x2="-87.569702"
       y2="31.998501"
       gradientTransform="matrix(1,0,0,-1,192.3999,143.0996)">
		<stop
   offset="0"
   style="stop-color:#FFFFFF"
   id="stop4029" />
		<stop
   offset="1"
   style="stop-color:#E4E5E6"
   id="stop4031" />
	</linearGradient><linearGradient
       id="SVGID_9_"
       gradientUnits="userSpaceOnUse"
       x1="54.653301"
       y1="25.2764"
       x2="79.683601"
       y2="106.3903">
		<stop
   offset="0"
   style="stop-color:#FFFFFF"
   id="stop4036" />
		<stop
   offset="0.7473"
   style="stop-color:#F9F9F9"
   id="stop4038" />
		<stop
   offset="1"
   style="stop-color:#D5D7D8"
   id="stop4040" />
	</linearGradient><linearGradient
       id="SVGID_10_"
       gradientUnits="userSpaceOnUse"
       x1="-115.3369"
       y1="119.6328"
       x2="-134.85719"
       y2="24.6462"
       gradientTransform="matrix(1,0,0,-1,192.3999,143.0996)">
		<stop
   offset="0"
   style="stop-color:#FFFFFF"
   id="stop4061" />
		<stop
   offset="1"
   style="stop-color:#E4E5E6"
   id="stop4063" />
	</linearGradient><linearGradient
       id="SVGID_11_"
       gradientUnits="userSpaceOnUse"
       x1="32.519001"
       y1="33.077099"
       x2="37.2481"
       y2="92.496101">
		<stop
   offset="0.2198"
   style="stop-color:#989A9C"
   id="stop4068" />
		<stop
   offset="0.2527"
   style="stop-color:#FFFFFF"
   id="stop4070" />
	</linearGradient><linearGradient
       id="SVGID_12_"
       gradientUnits="userSpaceOnUse"
       x1="-152.6201"
       y1="126.8398"
       x2="-171.9462"
       y2="32.797901"
       gradientTransform="matrix(1,0,0,-1,192.3999,143.0996)">
		<stop
   offset="0"
   style="stop-color:#FFFFFF"
   id="stop4075" />
		<stop
   offset="1"
   style="stop-color:#E4E5E6"
   id="stop4077" />
	</linearGradient><linearGradient
       id="SVGID_13_"
       gradientUnits="userSpaceOnUse"
       x1="-130.1348"
       y1="35.625"
       x2="-130.14281"
       y2="35.585701"
       gradientTransform="matrix(1,0,0,-1,192.3999,143.0996)">
		<stop
   offset="0"
   style="stop-color:#FFFFFF"
   id="stop4082" />
		<stop
   offset="1"
   style="stop-color:#E4E5E6"
   id="stop4084" />
	</linearGradient><linearGradient
       id="SVGID_14_"
       gradientUnits="userSpaceOnUse"
       x1="-121.1382"
       y1="120.3223"
       x2="-140.54491"
       y2="25.888"
       gradientTransform="matrix(1,0,0,-1,192.3999,143.0996)">
		<stop
   offset="0"
   style="stop-color:#FFFFFF"
   id="stop4093" />
		<stop
   offset="1"
   style="stop-color:#E4E5E6"
   id="stop4095" />
	</linearGradient><linearGradient
       id="SVGID_15_"
       gradientUnits="userSpaceOnUse"
       x1="-135.58591"
       y1="123.3525"
       x2="-155.006"
       y2="28.8524"
       gradientTransform="matrix(1,0,0,-1,192.3999,143.0996)">
		<stop
   offset="0"
   style="stop-color:#FFFFFF"
   id="stop4100" />
		<stop
   offset="1"
   style="stop-color:#E4E5E6"
   id="stop4102" />
	</linearGradient><linearGradient
       id="SVGID_16_"
       gradientUnits="userSpaceOnUse"
       x1="-127.4014"
       y1="121.9365"
       x2="-146.8837"
       y2="27.1346"
       gradientTransform="matrix(1,0,0,-1,192.3999,143.0996)">
		<stop
   offset="0"
   style="stop-color:#FFFFFF"
   id="stop4107" />
		<stop
   offset="1"
   style="stop-color:#E4E5E6"
   id="stop4109" />
	</linearGradient><linearGradient
       id="SVGID_17_"
       gradientUnits="userSpaceOnUse"
       x1="-118.4946"
       y1="124.0039"
       x2="-138.85201"
       y2="24.9438"
       gradientTransform="matrix(1,0,0,-1,192.3999,143.0996)">
		<stop
   offset="0"
   style="stop-color:#FFFFFF"
   id="stop4114" />
		<stop
   offset="1"
   style="stop-color:#E4E5E6"
   id="stop4116" />
	</linearGradient><linearGradient
       id="SVGID_18_"
       gradientUnits="userSpaceOnUse"
       x1="-115.3716"
       y1="119.1758"
       x2="-134.7878"
       y2="24.695299"
       gradientTransform="matrix(1,0,0,-1,192.3999,143.0996)">
		<stop
   offset="0"
   style="stop-color:#FFFFFF"
   id="stop4121" />
		<stop
   offset="1"
   style="stop-color:#E4E5E6"
   id="stop4123" />
	</linearGradient><linearGradient
       id="SVGID_21_"
       gradientUnits="userSpaceOnUse"
       x1="-175.4424"
       y1="83.6045"
       x2="-75.6362"
       y2="83.6045"
       gradientTransform="matrix(1,0,0,-1,192.3999,143.0996)">
		<stop
   offset="0"
   style="stop-color:#555555"
   id="stop4198" />
		<stop
   offset="1"
   style="stop-color:#231F20"
   id="stop4200" />
	</linearGradient><linearGradient
       id="SVGID_22_"
       gradientUnits="userSpaceOnUse"
       x1="-175.14211"
       y1="104.0801"
       x2="-83.541"
       y2="104.0801"
       gradientTransform="matrix(1,0,0,-1,192.3999,143.0996)">
		<stop
   offset="0"
   style="stop-color:#A0A0A0"
   id="stop4205" />
		<stop
   offset="0.0769"
   style="stop-color:#656767"
   id="stop4207" />
		<stop
   offset="1"
   style="stop-color:#717375"
   id="stop4209" />
	</linearGradient><linearGradient
       id="SVGID_23_"
       gradientUnits="userSpaceOnUse"
       x1="-172.3853"
       y1="78.209"
       x2="-172.3853"
       y2="78.209"
       gradientTransform="matrix(1,0,0,-1,192.3999,143.0996)">
		<stop
   offset="0"
   style="stop-color:#FFFFFF"
   id="stop4224" />
		<stop
   offset="0.078"
   style="stop-color:#F4F4F4"
   id="stop4226" />
		<stop
   offset="0.3807"
   style="stop-color:#CECECE"
   id="stop4228" />
		<stop
   offset="0.5396"
   style="stop-color:#BFBFBF"
   id="stop4230" />
		<stop
   offset="0.8357"
   style="stop-color:#7C7C7C"
   id="stop4232" />
		<stop
   offset="0.8996"
   style="stop-color:#A8A8A8"
   id="stop4234" />
		<stop
   offset="0.9093"
   style="stop-color:#9A9A9A"
   id="stop4236" />
		<stop
   offset="0.9327"
   style="stop-color:#7D7D7D"
   id="stop4238" />
		<stop
   offset="0.9558"
   style="stop-color:#686868"
   id="stop4240" />
		<stop
   offset="0.9785"
   style="stop-color:#5B5B5B"
   id="stop4242" />
		<stop
   offset="1"
   style="stop-color:#575757"
   id="stop4244" />
	</linearGradient><linearGradient
       id="SVGID_24_"
       gradientUnits="userSpaceOnUse"
       x1="-175.7173"
       y1="78.449203"
       x2="-67.153198"
       y2="90.476799"
       gradientTransform="matrix(1,0,0,-1,192.3999,143.0996)">
		<stop
   offset="0"
   style="stop-color:#FFFFFF"
   id="stop4249" />
		<stop
   offset="0.078"
   style="stop-color:#F4F4F4"
   id="stop4251" />
		<stop
   offset="0.3807"
   style="stop-color:#CECECE"
   id="stop4253" />
		<stop
   offset="0.5396"
   style="stop-color:#BFBFBF"
   id="stop4255" />
		<stop
   offset="0.8357"
   style="stop-color:#7C7C7C"
   id="stop4257" />
		<stop
   offset="0.8996"
   style="stop-color:#A8A8A8"
   id="stop4259" />
		<stop
   offset="0.9093"
   style="stop-color:#9A9A9A"
   id="stop4261" />
		<stop
   offset="0.9327"
   style="stop-color:#7D7D7D"
   id="stop4263" />
		<stop
   offset="0.9558"
   style="stop-color:#686868"
   id="stop4265" />
		<stop
   offset="0.9785"
   style="stop-color:#5B5B5B"
   id="stop4267" />
		<stop
   offset="1"
   style="stop-color:#575757"
   id="stop4269" />
	</linearGradient><linearGradient
       id="SVGID_25_"
       gradientUnits="userSpaceOnUse"
       x1="-176.1851"
       y1="78.4795"
       x2="-52.131699"
       y2="92.223099"
       gradientTransform="matrix(1,0,0,-1,192.3999,143.0996)">
		<stop
   offset="0"
   style="stop-color:#FFFFFF"
   id="stop4274" />
		<stop
   offset="0.078"
   style="stop-color:#F4F4F4"
   id="stop4276" />
		<stop
   offset="0.3807"
   style="stop-color:#CECECE"
   id="stop4278" />
		<stop
   offset="0.5396"
   style="stop-color:#BFBFBF"
   id="stop4280" />
		<stop
   offset="0.8357"
   style="stop-color:#7C7C7C"
   id="stop4282" />
		<stop
   offset="0.8996"
   style="stop-color:#A8A8A8"
   id="stop4284" />
		<stop
   offset="0.9093"
   style="stop-color:#9A9A9A"
   id="stop4286" />
		<stop
   offset="0.9327"
   style="stop-color:#7D7D7D"
   id="stop4288" />
		<stop
   offset="0.9558"
   style="stop-color:#686868"
   id="stop4290" />
		<stop
   offset="0.9785"
   style="stop-color:#5B5B5B"
   id="stop4292" />
		<stop
   offset="1"
   style="stop-color:#575757"
   id="stop4294" />
	</linearGradient><linearGradient
       id="SVGID_26_"
       gradientUnits="userSpaceOnUse"
       x1="21.2129"
       y1="71.326698"
       x2="117.1948"
       y2="51.952599">
		<stop
   offset="0"
   style="stop-color:#EDEDEE"
   id="stop4299" />
		<stop
   offset="0.4176"
   style="stop-color:#FFFFFF"
   id="stop4301" />
		<stop
   offset="0.6264"
   style="stop-color:#F8F9F9"
   id="stop4303" />
		<stop
   offset="1"
   style="stop-color:#BFC0C2"
   id="stop4305" />
	</linearGradient><linearGradient
       id="SVGID_27_"
       gradientUnits="userSpaceOnUse"
       x1="23.471201"
       y1="30.732401"
       x2="27.9561"
       y2="30.732401">
		<stop
   offset="0"
   style="stop-color:#E2E3E4"
   id="stop4316" />
		<stop
   offset="0.5055"
   style="stop-color:#FFFFFF"
   id="stop4318" />
	</linearGradient><linearGradient
       id="SVGID_34_"
       gradientUnits="userSpaceOnUse"
       x1="22.5742"
       y1="49.7188"
       x2="111.5455"
       y2="29.204">
		<stop
   offset="0"
   style="stop-color:#FFFFFF"
   id="stop4743" />
		<stop
   offset="0.6538"
   style="stop-color:#FFFFFF"
   id="stop4745" />
		<stop
   offset="1"
   style="stop-color:#CBCCCE"
   id="stop4747" />
	</linearGradient><linearGradient
       id="SVGID_35_"
       gradientUnits="userSpaceOnUse"
       x1="-158.8101"
       y1="107.0898"
       x2="-126.4229"
       y2="107.0898"
       gradientTransform="matrix(1,0,0,-1,192.3999,143.0996)">
		<stop
   offset="0"
   style="stop-color:#696969"
   id="stop4770" />
		<stop
   offset="0.3702"
   style="stop-color:#2E2E2E"
   id="stop4772" />
		<stop
   offset="0.4554"
   style="stop-color:#424242"
   id="stop4774" />
		<stop
   offset="0.6014"
   style="stop-color:#303030"
   id="stop4776" />
		<stop
   offset="0.6947"
   style="stop-color:#4A4A4A"
   id="stop4778" />
		<stop
   offset="1"
   style="stop-color:#666666"
   id="stop4780" />
	</linearGradient><linearGradient
       id="SVGID_36_"
       gradientUnits="userSpaceOnUse"
       x1="-158.4185"
       y1="107.8965"
       x2="-126.5454"
       y2="107.8965"
       gradientTransform="matrix(1,0,0,-1,192.3999,143.0996)">
		<stop
   offset="0"
   style="stop-color:#525252"
   id="stop4785" />
		<stop
   offset="0.1856"
   style="stop-color:#333333"
   id="stop4787" />
		<stop
   offset="0.354"
   style="stop-color:#AEAEAE"
   id="stop4789" />
		<stop
   offset="0.4199"
   style="stop-color:#ADADAD"
   id="stop4791" />
		<stop
   offset="0.4276"
   style="stop-color:#9D9D9D"
   id="stop4793" />
		<stop
   offset="0.4433"
   style="stop-color:#818181"
   id="stop4795" />
		<stop
   offset="0.4611"
   style="stop-color:#6A6A6A"
   id="stop4797" />
		<stop
   offset="0.4814"
   style="stop-color:#585858"
   id="stop4799" />
		<stop
   offset="0.506"
   style="stop-color:#4C4C4C"
   id="stop4801" />
		<stop
   offset="0.539"
   style="stop-color:#444444"
   id="stop4803" />
		<stop
   offset="0.6166"
   style="stop-color:#424242"
   id="stop4805" />
		<stop
   offset="0.6684"
   style="stop-color:#454545"
   id="stop4807" />
		<stop
   offset="1"
   style="stop-color:#BDBDBD"
   id="stop4809" />
	</linearGradient><linearGradient
       id="SVGID_37_"
       gradientUnits="userSpaceOnUse"
       x1="-153.1255"
       y1="97.627899"
       x2="-154.15421"
       y2="104.4332"
       gradientTransform="matrix(1,0,0,-1,192.3999,143.0996)">
		<stop
   offset="0"
   style="stop-color:#969696"
   id="stop4814" />
		<stop
   offset="1"
   style="stop-color:#000000"
   id="stop4816" />
	</linearGradient><linearGradient
       id="SVGID_38_"
       gradientUnits="userSpaceOnUse"
       x1="38.737301"
       y1="46.373001"
       x2="39.487301"
       y2="38.790001">
		<stop
   offset="0"
   style="stop-color:#333333"
   id="stop4825" />
		<stop
   offset="0.431"
   style="stop-color:#000000"
   id="stop4827" />
		<stop
   offset="1"
   style="stop-color:#2E2E2E"
   id="stop4829" />
	</linearGradient><radialGradient
       id="SVGID_39_"
       cx="-138.2334"
       cy="106.5996"
       r="72.751701"
       gradientTransform="matrix(1,0,0,-1,192.3999,143.0996)"
       gradientUnits="userSpaceOnUse">
		<stop
   offset="0"
   style="stop-color:#000000;stop-opacity:0;"
   id="stop4840" />
		<stop
   offset="0.80220002"
   style="stop-color:#000000;stop-opacity:0.08;"
   id="stop4842" />
		<stop
   offset="1"
   style="stop-color:#000000;stop-opacity:0.3882353;"
   id="stop4844" />
	</radialGradient></defs><g
     transform="translate(-12.451147,-137.926)"
     id="The_Free_Encyclopedia"><path
       id="path4060"
       d="M 12.451147,146.766 V 147 l 0.026,0.026 c 0.611,-0.013 1.131001,-0.026 1.651,-0.026 0.507,0 1.014002,0.026 2.353,0.026 1.832999,0 4.251,-0.832 4.251,-4.03 0,-2.418 -1.989002,-4.407 -4.485,-4.407 -0.831999,0 -1.599,0.026 -2.119,0.026 -0.506999,0 -1.04,-0.013 -1.651,-0.026 l -0.026,0.026 v 0.247 c 0,0.065 0.052,0.104 0.117,0.104 l 0.364,0.026 c 0.533,0.039 0.676,0.104 0.676,0.572 v 6.474 c 0,0.416 -0.221,0.559 -0.676,0.585 l -0.39,0.026 c -0.052,0 -0.091,0.052 -0.091,0.117 m 2.21,-0.715 v -6.513 c 0,-0.455 0.455001,-0.507 1.092,-0.507 2.807998,0 3.783,2.275 3.783,4.277 0,2.626 -1.625001,3.276 -3.458,3.276 -1.273998,0 -1.417,-0.117 -1.417,-0.533" /><path
       id="path4062"
       d="m 22.472601,139.59 c 0,0.338 0.286,0.624 0.624,0.624 0.338,0 0.624,-0.286 0.624,-0.624 0,-0.338 -0.286,-0.624 -0.624,-0.624 -0.338,0 -0.624,0.286 -0.624,0.624 m 1.222,1.703 c 0,-0.026 -0.026,-0.039 -0.052,-0.039 -0.364,0.143 -0.910001,0.26 -1.833,0.403 l 0.026,0.312 0.559,0.052 c 0.182,0.026 0.286,0.156 0.286,0.806 v 3.237 c 0,0.377 -0.117001,0.507 -0.559,0.559 l -0.247,0.026 c -0.065,0.013 -0.104,0.039 -0.104,0.104 V 147 l 0.026,0.026 c 0.519999,-0.013 0.884,-0.026 1.352,-0.026 0.493999,0 0.871,0.013 1.391,0.026 l 0.026,-0.026 v -0.247 c 0,-0.065 -0.052,-0.091 -0.117,-0.104 l -0.247,-0.026 c -0.403,-0.039 -0.546,-0.182 -0.546,-0.559 v -3.237 c 0,-0.65 0.039,-1.534 0.039,-1.534" /><path
       id="path4064"
       d="m 26.414116,143.269 c 0.234,-1.469 1.196,-1.534 1.495,-1.534 0.468,0 1.079,0.26 1.079,1.352 0,0.117 -0.052,0.182 -0.182,0.182 h -2.392 m 3.432,2.496 c -0.455,0.494 -0.910001,0.728 -1.625,0.728 -0.727999,0 -1.846,-0.78 -1.846,-2.717 h 3.419 c 0.143,0 0.234,-0.078 0.234,-0.221 0,-1.092 -0.403002,-2.262 -2.119,-2.262 -1.234999,0 -2.574,1.144 -2.574,3.12 0,1.495 0.793002,2.717 2.574,2.717 0.935999,0 1.703,-0.481 2.197,-1.157 -0.039,-0.13 -0.117,-0.195 -0.26,-0.208" /><path
       id="path4066"
       d="m 35.071663,146.064 c 0,0.377 -0.104001,0.507 -0.559,0.559 l -0.247,0.026 c -0.065,0.013 -0.104,0.039 -0.104,0.104 V 147 l 0.026,0.026 c 0.649999,-0.013 0.845,-0.026 1.378,-0.026 0.597999,0 0.897,0.013 1.547,0.026 l 0.026,-0.026 v -0.247 c 0,-0.065 -0.052,-0.104 -0.104,-0.104 l -0.429,-0.026 c -0.429,-0.026 -0.559,-0.182 -0.559,-0.559 v -4.134 h 1.235 c 0.117,0 0.299,-0.052 0.299,-0.169 v -0.26 c 0,-0.052 -0.039,-0.078 -0.104,-0.078 h -1.43 v -0.741 c 0,-2.002 0.624,-2.314 1.053,-2.314 0.389999,0 0.637,0.169 0.806,0.598 0.104,0.221 0.273,0.364 0.533,0.364 0.247,0 0.442,-0.195 0.442,-0.468 0,-0.208 -0.117001,-0.429 -0.377,-0.624 -0.325,-0.221 -0.663001,-0.312 -1.157,-0.312 -1.091999,0 -2.275,0.949 -2.275,2.977 v 0.52 h -0.663 c -0.234,0 -0.299,0.156 -0.299,0.26 v 0.169 c 0,0.065 0.013,0.078 0.065,0.078 h 0.897 v 4.134" /><path
       id="path4068"
       d="m 39.156381,146.064 c 0,0.377 -0.13,0.52 -0.559,0.559 l -0.247,0.026 c -0.065,0.013 -0.091,0.039 -0.091,0.104 V 147 l 0.013,0.026 c 0.480999,-0.013 0.884,-0.026 1.352,-0.026 0.493999,0 1.053,0.013 1.534,0.026 l 0.026,-0.026 v -0.247 c 0,-0.065 -0.052,-0.104 -0.117,-0.104 l -0.377,-0.026 c -0.416,-0.026 -0.559,-0.182 -0.559,-0.559 v -2.847 c 0,-0.169 0.065,-0.338 0.156,-0.455 0.312,-0.442 0.598,-0.676 0.741,-0.676 0.091,0 0.182,0.039 0.26,0.117 0.13,0.13 0.273,0.234 0.533,0.234 0.338,0 0.559,-0.208 0.559,-0.546 0,-0.338 -0.195001,-0.598 -0.728,-0.598 -0.610999,0 -1.183,0.663 -1.521,1.17 h -0.039 l 0.039,-1.17 c 0,-0.026 -0.026,-0.039 -0.052,-0.039 -0.364,0.143 -0.884001,0.26 -1.794,0.403 l 0.026,0.312 0.559,0.052 c 0.182,0.026 0.286,0.156 0.286,0.806 v 3.237" /><path
       id="path4073"
       d="m 49.238849,139.59 c 0,0.338 0.286,0.624 0.624,0.624 0.337999,0 0.624,-0.286 0.624,-0.624 0,-0.338 -0.286001,-0.624 -0.624,-0.624 -0.338,0 -0.624,0.286 -0.624,0.624 m 1.222,1.703 c 0,-0.026 -0.026,-0.039 -0.052,-0.039 -0.364,0.143 -0.910001,0.26 -1.833,0.403 l 0.026,0.312 0.559,0.052 c 0.181999,0.026 0.286,0.156 0.286,0.806 v 3.237 c 0,0.377 -0.117001,0.507 -0.559,0.559 l -0.247,0.026 c -0.065,0.013 -0.104,0.039 -0.104,0.104 V 147 l 0.026,0.026 c 0.519999,-0.013 0.884,-0.026 1.352,-0.026 0.493999,0 0.871,0.013 1.391,0.026 l 0.026,-0.026 v -0.247 c 0,-0.065 -0.052,-0.091 -0.117,-0.104 l -0.247,-0.026 c -0.403,-0.039 -0.546,-0.182 -0.546,-0.559 v -3.237 c 0,-0.65 0.039,-1.534 0.039,-1.534" /><path
       id="path4077"
       d="m 60.374911,138.602 c 0,-0.026 -0.013,-0.039 -0.052,-0.039 -0.220999,0.039 -0.299,0.052 -0.611,0.052 h -3.289 c -0.506999,0 -1.04,-0.013 -1.651,-0.026 l -0.026,0.026 v 0.26 c 0,0.039 0.013,0.091 0.104,0.091 l 0.39,0.026 c 0.494,0.039 0.663,0.182 0.663,0.585 v 6.487 c 0,0.364 -0.156,0.52 -0.663,0.559 l -0.39,0.026 c -0.078,0 -0.104,0.052 -0.104,0.091 V 147 l 0.026,0.026 c 0.611,-0.013 1.144001,-0.026 1.651,-0.026 h 2.782 c 0.624,0 1.664,0.026 1.664,0.026 l 0.481,-2.171 -0.403,-0.065 c -0.259999,0.936 -0.767001,1.703 -1.755,1.703 h -1.768 c -0.285999,0 -0.468,-0.078 -0.468,-0.429 v -3.263 h 1.651 c 0.442,0 0.611,0.117 0.65,0.494 l 0.039,0.325 c 0,0.039 0.026,0.104 0.091,0.104 h 0.286 l 0.052,-0.039 c -0.039,-0.52 -0.052,-0.871 -0.052,-1.131 0,-0.26 0.013,-0.65 0.052,-1.17 l -0.052,-0.052 h -0.286 c -0.052,0 -0.091,0.052 -0.091,0.104 l -0.039,0.325 c -0.039,0.364 -0.195,0.546 -0.65,0.546 h -1.651 v -2.73 c 0,-0.312 0.156001,-0.442 0.468,-0.442 h 1.365 c 0.974999,0 1.209001,0.52 1.495,1.417 l 0.377,-0.065 c -0.065,-0.533 -0.26,-1.781 -0.286,-1.885" /><path
       id="path4080"
       d="m 63.942678,141.293 c 0,-0.026 -0.026,-0.039 -0.052,-0.039 -0.363999,0.143 -0.884,0.26 -1.794,0.403 l 0.026,0.312 0.559,0.052 c 0.182,0.026 0.286,0.156 0.286,0.806 v 3.237 c 0,0.377 -0.13,0.52 -0.559,0.559 l -0.247,0.026 c -0.065,0.013 -0.104,0.039 -0.104,0.104 V 147 l 0.026,0.026 c 0.52,-0.013 0.845001,-0.026 1.352,-0.026 0.533,0 0.806001,0.013 1.326,0.026 l 0.026,-0.026 v -0.247 c 0,-0.065 -0.039,-0.091 -0.104,-0.104 l -0.182,-0.026 c -0.428999,-0.065 -0.559,-0.182 -0.559,-0.559 v -3.146 c 0.663,-0.78 1.157001,-1.001 1.729,-1.001 0.689,0 0.845,0.429 0.845,1.339 v 2.808 c 0,0.377 -0.143,0.494 -0.559,0.559 l -0.182,0.026 c -0.065,0.013 -0.104,0.039 -0.104,0.104 V 147 l 0.026,0.026 c 0.52,-0.013 0.780001,-0.026 1.287,-0.026 0.533,0 0.871001,0.013 1.391,0.026 l 0.026,-0.026 v -0.247 c 0,-0.065 -0.052,-0.091 -0.117,-0.104 l -0.247,-0.026 c -0.402999,-0.039 -0.546,-0.182 -0.546,-0.559 v -2.717 c 0,-1.157 -0.260001,-2.054 -1.43,-2.054 -0.662999,0 -1.287,0.182 -2.119,1.157 h -0.039 l 0.039,-1.157" /><path
       id="path4082"
       d="m 69.416367,141.254 c -0.026,0 -0.052,0.013 -0.052,0.039 -0.013,0.585 -0.091,1.118 -0.195,1.755 l 0.338,0.039 c 0.26,-0.949 0.702001,-1.222 1.092,-1.222 h 1.794 l -3.198,4.719 c -0.104,0.156 -0.117,0.195 -0.117,0.26 0,0.091 0.104001,0.156 0.299,0.156 h 4.004 c 0.065,-0.403 0.195001,-1.014 0.416,-1.768 l -0.338,-0.091 -0.169,0.377 c -0.311999,0.689 -0.533,1.04 -1.287,1.04 h -1.729 l 3.12,-4.589 c 0.221,-0.338 0.286,-0.494 0.286,-0.546 0,-0.052 -0.065,-0.091 -0.156,-0.091 -0.065,0 -0.481,0.091 -0.858,0.091 h -2.639 c -0.415999,0 -0.39,-0.13 -0.611,-0.169" /><path
       id="path4084"
       d="m 76.782568,141.67 v -0.234 l -0.026,-0.039 c -0.481,0.013 -0.949,0.026 -1.417,0.026 -0.442,0 -0.832,-0.013 -1.092,-0.026 l -0.026,0.026 v 0.26 c 0,0.052 0.052,0.078 0.13,0.091 0.429,0.039 0.585,0.143 0.793,0.637 l 1.638,3.809 c 0.104,0.26 0.221,0.611 0.221,0.741 0,0.117 -0.026,0.247 -0.104,0.403 -0.325,0.793 -0.806,1.937 -1.001,1.937 -0.13,0 -0.221,-0.091 -0.351,-0.221 -0.078,-0.104 -0.208,-0.182 -0.403,-0.182 -0.208,0 -0.494,0.117 -0.494,0.507 0,0.468 0.507,0.611 0.754,0.611 0.922999,0 1.417,-1.118 1.807,-2.054 1.039999,-2.509 1.612001,-3.848 2.301,-5.304 0.182,-0.377 0.442,-0.845 0.923,-0.884 0.091,-0.013 0.143,-0.039 0.143,-0.104 v -0.247 l -0.039,-0.026 c -0.325,0.013 -0.533,0.026 -0.897,0.026 -0.455,0 -0.741,-0.013 -1.222,-0.026 l -0.026,0.039 v 0.247 c 0,0.065 0.065,0.091 0.13,0.091 0.403,0.039 0.793,0.117 0.507,0.637 l -1.443,3.302 -1.43,-3.354 c -0.195,-0.442 -0.013,-0.546 0.481,-0.585 0.065,0 0.143,-0.039 0.143,-0.104" /><path
       id="path4087"
       d="m 81.897737,139.681 v 6.383 c 0,0.377 -0.13,0.52 -0.559,0.559 l -0.247,0.026 c -0.065,0.013 -0.091,0.039 -0.091,0.104 V 147 l 0.026,0.026 c 0.65,-0.013 0.832001,-0.026 1.339,-0.026 0.533,0 0.663001,0.013 1.17,0.026 l 0.026,-0.026 v -0.247 c 0,-0.065 -0.052,-0.104 -0.104,-0.104 -0.337999,-0.039 -0.585,-0.091 -0.585,-0.585 v -1.82 c 0.325,0 0.507001,0.091 0.767,0.468 l 0.949,1.339 c 0.26,0.377 0.299,0.533 0.299,0.702 V 147 l 0.039,0.026 c 0.26,-0.013 0.481001,-0.026 0.871,-0.026 0.403,0 0.715001,0.013 1.105,0.026 l 0.026,-0.026 v -0.247 c 0,-0.065 -0.026,-0.091 -0.117,-0.104 l -0.091,-0.013 c -0.324999,-0.052 -0.741,-0.234 -0.975,-0.585 l -1.521,-2.249 c -0.039,-0.052 -0.065,-0.117 -0.065,-0.182 0,-0.052 0.013,-0.091 0.052,-0.13 l 0.988,-1.092 c 0.325,-0.338 0.897001,-0.559 1.248,-0.611 l 0.091,-0.013 c 0.065,-0.013 0.143,-0.039 0.143,-0.104 v -0.247 l -0.052,-0.026 c -0.480999,0.013 -0.663,0.026 -1.131,0.026 -0.493999,0 -0.676,-0.013 -1.157,-0.026 0,0.013 -0.039,0.026 -0.039,0.026 v 0.247 c 0,0.052 0.039,0.104 0.104,0.104 0.78,0.039 0.312,0.572 0.169,0.715 -0.701999,0.767 -1.365,1.352 -1.703,1.43 v -4.498 c 0,-0.845 0.039,-1.365 0.039,-1.365 0,-0.091 -0.052,-0.13 -0.169,-0.13 -0.324999,0.13 -1.235,0.299 -1.755,0.338 l 0.026,0.312 c 0,0.039 0.039,0.065 0.078,0.065 l 0.416,0.026 c 0.26,0 0.39,0.169 0.39,1.014" /><path
       id="path4089"
       d="m 88.269446,146.064 c 0,0.377 -0.130001,0.52 -0.559,0.559 l -0.312,0.026 c -0.065,0 -0.091,0.039 -0.091,0.104 V 147 l 0.013,0.026 c 0.649999,-0.013 0.91,-0.026 1.417,-0.026 0.532999,0 0.793,0.013 1.443,0.026 l 0.026,-0.026 v -0.247 c 0,-0.065 -0.052,-0.104 -0.104,-0.104 l -0.312,-0.026 c -0.429,-0.039 -0.546,-0.182 -0.546,-0.559 v -6.643 c 0,-0.845 0.039,-1.365 0.039,-1.365 0,-0.091 -0.052,-0.13 -0.169,-0.13 -0.325,0.13 -1.222001,0.299 -1.755,0.338 l 0.026,0.312 c 0,0.039 0.039,0.065 0.078,0.065 l 0.416,0.026 c 0.26,0 0.39,0.169 0.39,1.014 v 6.383" /><path
       id="path4091"
       d="m 90.939396,144.335 c 0,1.326 0.923002,2.795 2.665,2.795 1.845999,0 2.691,-1.612 2.691,-2.912 0,-1.352 -0.741001,-2.925 -2.665,-2.925 -1.728998,0 -2.691,1.261 -2.691,3.042 m 2.548,-2.613 c 1.065999,0 1.703,1.001 1.703,2.912 0,1.716 -0.78,2.067 -1.365,2.067 -1.286998,0 -1.781,-1.664 -1.781,-2.665 0,-1.131 0.403001,-2.314 1.443,-2.314" /><path
       id="path4093"
       d="m 98.84327,142.957 c 0.286,-0.689 0.91,-1.066 1.352,-1.066 0.793,0 1.469,0.936 1.469,2.405 0,1.066 -0.351,2.392 -1.742,2.392 -0.208,0 -0.624,-0.026 -1.079,-0.559 v -3.172 m -0.975001,-0.13 v 6.266 c 0,0.364 -0.143,0.507 -0.559,0.546 l -0.247,0.026 c -0.065,0.013 -0.104,0.039 -0.104,0.104 v 0.247 l 0.026,0.026 c 0.481,-0.013 0.884,-0.026 1.352001,-0.026 0.494,0 0.91,0.013 1.391,0.026 l 0.026,-0.026 v -0.247 c 0,-0.065 -0.052,-0.091 -0.117,-0.104 l -0.247,-0.026 c -0.403,-0.039 -0.546,-0.182 -0.546,-0.546 v -2.249 c 0.338,0.182 0.689,0.286 1.157,0.286 0.689,0 1.313,-0.221 1.82,-0.728 0.585,-0.598 0.91,-1.404 0.91,-2.457 0,-1.378 -0.923,-2.652 -2.184,-2.652 -0.416,0 -1.105,0.13 -1.703,1.04 h -0.039 l 0.039,-1.04 c 0,-0.026 -0.026,-0.039 -0.052,-0.039 -0.377,0.143 -0.871002,0.26 -1.794001,0.403 l 0.026,0.312 0.559,0.052 c 0.182,0.026 0.286,0.156 0.286,0.806" /><path
       id="path4095"
       d="m 104.39232,139.551 c 0,0.325 0.273,0.598 0.598,0.598 0.325,0 0.598,-0.273 0.598,-0.598 0,-0.325 -0.273,-0.598 -0.598,-0.598 -0.325,0 -0.598,0.273 -0.598,0.598 m 2.08,0 c 0,0.325 0.273,0.598 0.598,0.598 0.325,0 0.598,-0.273 0.598,-0.598 0,-0.325 -0.273,-0.598 -0.598,-0.598 -0.325,0 -0.598,0.273 -0.598,0.598 m 0.572,4.42 v 1.729 c 0,0.169 -0.078,0.26 -0.182,0.338 -0.338,0.273 -0.78,0.559 -1.144,0.559 -0.65,0 -0.962,-0.52 -0.962,-0.923 0,-0.585 0.299,-1.17 1.261,-1.43 l 1.027,-0.273 m 0,2.405 c 0.078,0.273 0.286,0.754 0.975,0.754 0.637,0 1.079,-0.52 1.079,-0.585 0,-0.091 -0.091,-0.195 -0.143,-0.195 -0.078,0 -0.117,0.208 -0.429,0.208 -0.507,0 -0.52,-0.533 -0.52,-1.131 v -1.937 c 0,-1.846 -0.962,-2.197 -1.911,-2.197 -1.066,0 -2.145,0.741 -2.145,1.443 0,0.312 0.156,0.455 0.455,0.455 0.377,0 0.572,-0.26 0.572,-0.429 0,-0.091 -0.013,-0.182 -0.039,-0.234 -0.013,-0.039 -0.026,-0.117 -0.026,-0.26 0,-0.403 0.585,-0.585 1.079,-0.585 0.442,0 1.053,0.26 1.053,1.729 0,0.091 -0.039,0.143 -0.078,0.156 l -1.118,0.273 c -1.248,0.312 -2.119,1.001 -2.119,1.885 0,1.027 0.702,1.404 1.612,1.404 0.598,0 0.845,-0.104 1.417,-0.546 l 0.26,-0.208 h 0.026" /><path
       id="path4098"
       d="m 113.64555,145.778 c -0.585,0.468 -1.092,0.741 -1.43,0.741 -0.702,0 -1.417,-0.767 -1.417,-2.392 0,-0.936 0.169,-1.456 0.364,-1.729 0.403,-0.611 0.949,-0.65 1.209,-0.65 0.611,0 0.962,0.273 1.274,0.767 v 3.263 m 0.975,-6.357 c 0,-0.845 0.039,-1.365 0.039,-1.365 0,-0.091 -0.052,-0.13 -0.169,-0.13 -0.325,0.13 -1.222,0.299 -1.755,0.338 l 0.026,0.312 c 0,0.039 0.039,0.065 0.078,0.065 l 0.416,0.026 c 0.26,0 0.39,0.169 0.39,1.014 v 1.898 c -0.299,-0.169 -0.871,-0.286 -1.131,-0.286 -0.858,0 -1.43,0.286 -1.95,0.78 -0.559,0.559 -0.871,1.326 -0.871,2.288 0,1.599 0.78,2.769 2.184,2.769 0.52,0 1.17,-0.416 1.768,-0.897 l 0.026,0.013 -0.026,0.91 h 0.299 c 0.286,-0.234 0.858,-0.403 1.664,-0.546 l -0.039,-0.299 -0.624,-0.065 c -0.273,-0.026 -0.325,-0.104 -0.325,-0.754 v -6.071" /><path
       id="path4100"
       d="m 116.91533,139.59 c 0,0.338 0.286,0.624 0.624,0.624 0.338,0 0.624,-0.286 0.624,-0.624 0,-0.338 -0.286,-0.624 -0.624,-0.624 -0.338,0 -0.624,0.286 -0.624,0.624 m 1.222,1.703 c 0,-0.026 -0.026,-0.039 -0.052,-0.039 -0.364,0.143 -0.91,0.26 -1.833,0.403 l 0.026,0.312 0.559,0.052 c 0.182,0.026 0.286,0.156 0.286,0.806 v 3.237 c 0,0.377 -0.117,0.507 -0.559,0.559 l -0.247,0.026 c -0.065,0.013 -0.104,0.039 -0.104,0.104 V 147 l 0.026,0.026 c 0.52,-0.013 0.884,-0.026 1.352,-0.026 0.494,0 0.871,0.013 1.391,0.026 l 0.026,-0.026 v -0.247 c 0,-0.065 -0.052,-0.091 -0.117,-0.104 l -0.247,-0.026 c -0.403,-0.039 -0.546,-0.182 -0.546,-0.559 v -3.237 c 0,-0.65 0.039,-1.534 0.039,-1.534" /><path
       id="path4102"
       d="m 120.85685,143.269 c 0.234,-1.469 1.196,-1.534 1.495,-1.534 0.468,0 1.079,0.26 1.079,1.352 0,0.117 -0.052,0.182 -0.182,0.182 h -2.392 m 3.432,2.496 c -0.455,0.494 -0.91,0.728 -1.625,0.728 -0.728,0 -1.846,-0.78 -1.846,-2.717 h 3.419 c 0.143,0 0.234,-0.078 0.234,-0.221 0,-1.092 -0.403,-2.262 -2.119,-2.262 -1.235,0 -2.574,1.144 -2.574,3.12 0,1.495 0.793,2.717 2.574,2.717 0.936,0 1.703,-0.481 2.197,-1.157 -0.039,-0.13 -0.117,-0.195 -0.26,-0.208" /><path
       d="m 46.390429,143.867 v 1.729 c 0,0.169 -0.08114,0.26 -0.189325,0.338 -0.351604,0.273 -0.811395,0.559 -1.190045,0.559 -0.676162,0 -1.000719,-0.52 -1.000719,-0.923 0,-0.585 0.311035,-1.17 1.311753,-1.43 l 1.068336,-0.273 m 0,2.405 c 0.08114,0.273 0.297512,0.754 1.014243,0.754 0.662637,0 1.122428,-0.52 1.122428,-0.585 0,-0.091 -0.09466,-0.195 -0.148755,-0.195 -0.08114,0 -0.12171,0.20801 -0.446267,0.20801 -0.527405,0 -0.54093,-0.53301 -0.54093,-1.13101 v -1.937 c 0,-1.846 -1.00072,-2.19699 -1.987915,-2.19699 -1.108904,0 -2.231335,0.74099 -2.231335,1.44299 0,0.31201 0.16228,0.455 0.473314,0.455 0.392173,0 0.595022,-0.26 0.595022,-0.429 0,-0.091 -0.01352,-0.182 -0.04057,-0.234 -0.01352,-0.039 -0.02705,-0.117 -0.02705,-0.26 0,-0.403 0.608546,-0.585 1.122428,-0.585 0.45979,0 1.095383,0.26 1.095383,1.729 0,0.091 -0.04057,0.143 -0.08114,0.156 l -1.162998,0.273 c -1.298229,0.312 -2.204287,1.001 -2.204287,1.885 0,1.027 0.730256,1.404 1.67688,1.404 0.62207,0 0.879011,-0.104 1.474034,-0.546 l 0.270464,-0.208 h 0.02705"
       id="path16068"
       style="font-style:normal;font-variant:normal;font-weight:normal;font-stretch:normal;font-size:13.259px;font-family:'Linux Libertine O';-inkscape-font-specification:'Linux Libertine O';letter-spacing:0.302963;fill:#000000;fill-opacity:1;stroke:none" /></g></svg>
