<?xml version="1.0" encoding="UTF-8" standalone="no"?>
<svg
   xmlns:dc="http://purl.org/dc/elements/1.1/"
   xmlns:cc="http://creativecommons.org/ns#"
   xmlns:rdf="http://www.w3.org/1999/02/22-rdf-syntax-ns#"
   xmlns:svg="http://www.w3.org/2000/svg"
   xmlns="http://www.w3.org/2000/svg"
   xml:space="preserve"
   enable-background="new 0 0 135 155"
   viewBox="0 0 79.959099 15.8"
   height="15.8"
   width="79.959099"
   y="0px"
   x="0px"
   id="svg3857"
   version="1.1"><metadata
     id="metadata698"><rdf:RDF><cc:Work
         rdf:about=""><dc:format>image/svg+xml</dc:format><dc:type
           rdf:resource="http://purl.org/dc/dcmitype/StillImage" /></cc:Work></rdf:RDF></metadata><defs
     id="defs3" /><path
     id="tagline"
     d="m 3.7775132,4.4113561 c 0.013793,9.9e-6 0.024147,0.012645 0.031051,0.037934 0.00693,0.016826 0.010345,0.033752 0.010353,0.050579 -4e-6,0.2106682 -0.05175,0.3834222 -0.1552405,0.5182323 C 3.5670797,5.1529409 3.4532371,5.2624915 3.3221488,5.3467428 3.1979532,5.4226108 3.0703108,5.4773712 2.9392225,5.5110638 2.8150276,5.5363531 2.7253332,5.5489978 2.6701394,5.5489978 H 2.566646 c -0.0345,9.9e-6 -0.065551,0.012645 -0.093144,0.037934 -0.020698,0.016826 -0.031051,0.033752 -0.031051,0.050579 -2.4e-6,0.016826 0.00693,0.05476 0.020698,0.1137622 0.013793,0.059042 0.027595,0.1306284 0.041396,0.2148797 0.013793,0.075868 0.027595,0.1601193 0.041396,0.2528038 0.013793,0.084231 0.020698,0.1558978 0.020698,0.2148797 -2.5e-6,0.075868 -0.010353,0.1601093 -0.031051,0.2528037 C 2.51489,6.7793339 2.490735,6.8636055 2.46314,6.9394337 2.435537,7.0321277 2.401045,7.1206109 2.3596466,7.2048721 c 0.3104778,0.067405 0.58646,0.202245 0.8279482,0.40448 0.2483808,0.1938219 0.4726166,0.4381925 0.6727076,0.7331219 0.2000828,0.2949394 0.3863715,0.6235813 0.5588651,0.9859256 0.1724847,0.3623444 0.3380735,0.7331214 0.4967689,1.1123124 0.00693,0.01683 0.017242,0.04212 0.031051,0.07587 0.013793,0.03375 0.02069,0.06741 0.020698,0.101117 -4.9e-6,0.05058 -0.024155,0.07587 -0.072448,0.07587 -0.055198,0 -0.096599,-0.02111 -0.1241924,-0.06322 C 4.743442,10.588229 4.722744,10.558759 4.70895,10.541839 4.5157597,10.213187 4.3053229,9.9098249 4.0776411,9.6317418 3.849952,9.3536687 3.6084671,9.1177212 3.3531872,8.9239093 3.0978999,8.7216743 2.8322668,8.5657765 2.5562863,8.4562258 2.2803017,8.3382621 1.9974196,8.2792702 1.7076399,8.2792602 c -0.2759846,10e-6 -0.5140195,0.021108 -0.71410561,0.063223 -0.19318858,0.033752 -0.35532824,0.071686 -0.48641931,0.1137622 -0.12419276,0.042116 -0.22078656,0.084231 -0.2897819,0.1263969 -0.0689962,0.033752 -0.113843,0.050579 -0.13454152,0.050579 -0.04139721,10e-6 -0.06554619,-0.00797 -0.07244532,-0.025289 C 0.00344956,8.5911056 -2.8532353e-6,8.5658163 -2.8532353e-6,8.532064 -2.9347564e-6,8.4309465 0.04139435,8.300338 0.12418933,8.1402286 0.21388344,7.9801292 0.33117592,7.828443 0.47606728,7.6851899 0.62785736,7.5335136 0.80379609,7.4028952 1.0038846,7.2933446 1.2108698,7.1838039 1.4316557,7.1290336 1.6662431,7.1290236 c 0.075896,10e-6 0.13109,10e-6 0.1655897,0 0.041396,10e-6 0.082793,0.00398 0.1241916,0.012645 0.048293,-0.092694 0.086243,-0.1811672 0.1138433,-0.2654384 0.027595,-0.092694 0.041396,-0.2148797 0.041396,-0.366566 C 2.1112617,6.383277 2.0698677,6.2610817 1.9870717,6.143108 1.9111756,6.0251442 1.8145805,5.9240167 1.6972904,5.8397455 1.5799955,5.7470511 1.4523539,5.6754345 1.3143641,5.6248658 1.1763717,5.5742871 1.0521793,5.5489978 0.94178758,5.5489978 H 0.53816627 c -0.23458571,9.9e-6 -0.3518782,-0.029471 -0.35187795,-0.088513 -2.5e-7,-0.016826 0.003448,-0.037934 0.0103491,-0.063223 0.0137991,-0.025289 0.0275981,-0.050579 0.0413972,-0.075868 L 0.73480311,4.4113162 H 3.7775127 m 4.2846323,0 c 0.013793,1e-5 0.024147,0.012645 0.031051,0.037934 0.00693,0.016826 0.010345,0.033752 0.010353,0.050579 -3.2e-6,0.13483 -0.024155,0.2570153 -0.072448,0.366556 C 7.9896972,4.9675123 7.9345042,5.0602067 7.8655121,5.144468 7.7965127,5.220336 7.7171683,5.2835095 7.6274772,5.3340683 7.5377796,5.384647 7.4515352,5.422581 7.3687432,5.4478205 7.1686531,5.4983992 7.0030634,5.5278702 6.8719743,5.5363332 6.7477795,5.5442983 6.6097888,5.5742672 6.4579998,5.6248459 6.3752038,5.6501352 6.2786095,5.7343965 6.1682186,5.8776496 6.0647235,6.0124796 5.9612301,6.172589 5.8577375,6.3579678 5.7542433,6.5433565 5.657649,6.7371684 5.5679555,6.9394034 5.4782603,7.1416484 5.4127149,7.318614 5.3713177,7.4702803 c 0.020698,-0.00797 0.062095,-0.029471 0.1241924,-0.063223 0.062095,-0.042116 0.1345408,-0.08005 0.2173368,-0.1137622 0.089693,-0.042116 0.186287,-0.075868 0.2897821,-0.1011175 0.1034917,-0.033752 0.2069852,-0.050579 0.3104802,-0.050579 0.4691683,0 0.8486439,0.096876 1.1384284,0.2907178 0.2897788,0.1853888 0.5312637,0.433981 0.7244548,0.7457566 0.2000836,0.3033725 0.3760223,0.6446491 0.527817,1.0238397 0.1517865,0.3792106 0.3208253,0.7584113 0.507118,1.1376023 0.013793,0.01683 0.041396,0.07159 0.082795,0.164321 0.041396,0.09269 0.062095,0.168532 0.062095,0.227524 -4.9e-6,0.05894 -0.020706,0.08851 -0.062095,0.08851 -0.041405,10e-6 -0.075904,-0.008 -0.1034934,-0.02529 C 9.169523,10.76929 9.141928,10.72718 9.107434,10.668183 8.9211412,10.38168 8.7279543,10.099385 8.5278707,9.8213023 8.3346788,9.534806 8.127692,9.2777907 7.9069093,9.0502663 7.6861202,8.8227519 7.4411861,8.6415748 7.1721055,8.5067448 6.9099199,8.3635016 6.6201379,8.291875 6.3027601,8.2918651 5.9577802,8.291875 5.6852471,8.3086911 5.4851611,8.3424441 5.2919725,8.3677331 5.1401819,8.4014861 5.0297894,8.4435616 4.919396,8.4773136 4.8400516,8.5109666 4.7917544,8.544689 4.7434534,8.569978 4.6986104,8.582623 4.6572129,8.582623 4.6365149,8.582633 4.6261619,8.569978 4.6261619,8.544689 4.7089559,8.291895 4.7848512,8.0812268 4.8538474,7.9126844 4.9297435,7.7441618 4.9883889,7.6388228 5.0297861,7.5966872 5.1332795,7.2259196 5.229873,6.8719984 5.3195682,6.5349234 5.4161616,6.1978683 5.5610523,5.8692265 5.7542408,5.5490077 H 5.4437606 c -0.2345858,1e-5 -0.3518783,-0.029471 -0.3518783,-0.088513 0,-0.016826 0.00342,-0.037934 0.010353,-0.063223 0.013802,-0.025289 0.027595,-0.050579 0.041396,-0.075868 L 5.6404008,4.4113262 H 8.062149 m 2.504543,0 c 0.0414,9.9e-6 0.06209,0.029471 0.06209,0.088513 -10e-7,0.1011274 -0.02415,0.2317359 -0.07245,0.3918353 -0.0483,0.1601193 -0.106945,0.3160072 -0.175939,0.4676834 -0.069,0.1516863 -0.141442,0.2865162 -0.217337,0.40448 -0.069,0.1095507 -0.127642,0.164321 -0.1759386,0.164321 C 9.9595295,5.7427798 9.8905292,5.5742473 9.7801375,5.4225511 9.6697433,5.2708848 9.5455517,5.1866136 9.4075602,5.1697573 L 9.7076914,4.4113561 h 0.8589966 m 3.632622,0 c 0.01379,9.9e-6 0.02415,0.012645 0.03105,0.037934 0.0069,0.016826 0.01035,0.033752 0.01035,0.050579 -3e-6,0.2106682 -0.0552,0.3834222 -0.16559,0.5182323 -0.110395,0.1264168 -0.238038,0.2275343 -0.382925,0.3033625 -0.144894,0.075868 -0.286336,0.1306283 -0.424324,0.1643209 -0.137994,0.025289 -0.234587,0.042116 -0.289782,0.050579 -0.220788,0.025289 -0.407076,0.092694 -0.558865,0.2022449 -0.151792,0.1095507 -0.279434,0.2359476 -0.382926,0.3792007 -0.0966,0.1432531 -0.17249,0.2865062 -0.227685,0.4297594 -0.0483,0.1432531 -0.08625,0.2654484 -0.113844,0.3665559 0.0552,-0.033752 0.124192,-0.063223 0.206988,-0.088513 0.08969,-0.025289 0.162138,-0.037934 0.217336,-0.037934 0.303579,9.9e-6 0.562313,0.016826 0.776202,0.050579 0.213883,0.025289 0.396722,0.067405 0.548515,0.1263969 0.158687,0.058942 0.293229,0.13484 0.403625,0.2275244 0.11039,0.084231 0.210433,0.1811772 0.300131,0.2907178 0.193184,0.2528037 0.355324,0.5730225 0.48642,0.9606363 0.137987,0.3792106 0.24838,0.80897 0.331179,1.2892881 0.08969,0.4718958 0.158685,0.9774928 0.206987,1.5167928 0.05519,0.530887 0.100039,1.074409 0.134541,1.630565 l 0.155241,2.755522 c -5e-6,0.03365 -0.01035,0.0674 -0.03105,0.101117 -0.02071,0.04212 -0.0414,0.06322 -0.06209,0.06322 -0.0345,-10e-6 -0.07245,-0.01683 -0.113843,-0.05058 -0.0345,-0.03375 -0.0552,-0.07159 -0.06209,-0.113752 l -0.279439,-2.679714 c -0.0966,-0.910078 -0.22769,-1.735894 -0.393276,-2.477439 C 14.354547,9.728588 14.151011,9.1513639 13.909529,8.746874 13.737037,8.4603777 13.516251,8.2497096 13.24717,8.1148796 12.978085,7.9716264 12.640006,7.8999999 12.232934,7.8999999 c -0.0828,0 -0.18284,0.012645 -0.300131,0.037934 -0.117294,0.025289 -0.238036,0.059042 -0.362227,0.1011175 -0.124193,0.033752 -0.248386,0.067405 -0.372577,0.1011275 -0.117293,0.033752 -0.220786,0.058942 -0.310481,0.075868 -0.0345,0 -0.05175,-0.021108 -0.05175,-0.063223 0,-0.050579 0.0138,-0.1179638 0.0414,-0.202235 0.0345,-0.092694 0.07245,-0.1896003 0.113843,-0.2907278 0.0483,-0.1011075 0.103493,-0.2022251 0.165589,-0.3033525 0.0621,-0.1095407 0.124192,-0.2022351 0.186289,-0.2780831 0.02759,-0.1011176 0.0552,-0.2148698 0.08279,-0.3412766 0.0345,-0.1263969 0.06899,-0.2527938 0.103494,-0.3792007 0.0414,-0.13482 0.07934,-0.2612169 0.113843,-0.3792006 0.0414,-0.1263969 0.08279,-0.2359375 0.124193,-0.3286419 -2e-6,-0.050579 -0.0276,-0.084231 -0.0828,-0.1011175 h -0.186288 c -0.234586,10e-6 -0.351879,-0.029471 -0.351878,-0.088513 -10e-7,-0.016826 0.0034,-0.037934 0.01035,-0.063223 0.0138,-0.025289 0.02759,-0.050579 0.0414,-0.075868 l 0.496769,-0.9100775 h 2.504543 m 5.826685,0 c 0.06899,9.9e-6 0.103489,0.042116 0.103494,0.1263969 -5e-6,0.059042 -0.01035,0.096876 -0.03105,0.1137621 -0.0138,0.016826 -0.02415,0.042116 -0.03105,0.075868 -0.0345,0.1264068 -0.07245,0.2570252 -0.113842,0.3918453 -0.04141,0.1348299 -0.07935,0.2780831 -0.113844,0.4297593 -0.0345,0.1685425 -0.06555,0.3454981 -0.09314,0.5308769 -0.02071,0.1853987 -0.03105,0.3834222 -0.03105,0.5940804 v 3.3369574 c 0.02069,0.07587 0.03104,0.160109 0.03105,0.252804 -5e-6,0.05058 -0.0138,0.101117 -0.0414,0.151676 -0.0276,0.04212 -0.06555,0.06322 -0.113842,0.06322 -0.0552,0 -0.117297,-0.0463 -0.186289,-0.139041 C 19.329127,10.229971 19.204936,10.06565 19.032451,9.8465491 18.86686,9.6274705 18.659873,9.4083693 18.411491,9.189278 18.170004,8.9617636 17.894022,8.7679517 17.583543,8.6078324 17.27996,8.4393099 16.948782,8.3550386 16.590005,8.3550386 c -0.144891,0 -0.269083,0.00797 -0.372576,0.025289 -0.103494,0.016826 -0.196639,0.037934 -0.279432,0.063223 -0.0828,0.025289 -0.162141,0.05476 -0.238036,0.088513 -0.069,0.025289 -0.137991,0.050579 -0.206987,0.075868 0.08969,-0.3539113 0.15869,-0.6067151 0.206987,-0.7584013 0.0552,-0.1516663 0.131092,-0.2738516 0.227686,-0.3665559 0,-0.3707676 0.0207,-0.703621 0.06209,-0.9985604 0.0414,-0.3033525 0.124192,-0.5645794 0.248385,-0.7836806 0.0207,-0.033653 0.03104,-0.063223 0.03105,-0.088513 -0.0207,-0.042116 -0.05175,-0.063223 -0.09314,-0.063223 H 16.05184 c -0.227686,9.9e-6 -0.341529,-0.029471 -0.341528,-0.088513 -10e-7,-0.016826 0.0034,-0.037934 0.01035,-0.063223 0.0138,-0.025289 0.02759,-0.050579 0.0414,-0.075868 l 0.496769,-0.9100776 h 3.767164 m -0.7969,2.9071982 c -0.02071,-0.1516762 -0.04485,-0.3286319 -0.07245,-0.5308769 -0.0276,-0.202235 -0.0621,-0.3960469 -0.103494,-0.5814456 -0.0345,-0.1853788 -0.0759,-0.3412666 -0.124192,-0.4676735 -0.0414,-0.1263969 -0.08625,-0.1895903 -0.134542,-0.1896003 h -1.614499 c -0.0828,0.067405 -0.17939,0.164321 -0.289782,0.2907179 -0.110394,0.1179837 -0.213888,0.2570252 -0.31048,0.4171147 -0.08969,0.1601193 -0.169041,0.3328634 -0.238035,0.5182422 -0.06209,0.1769656 -0.09314,0.3581427 -0.09314,0.5435215 0.0552,-0.025289 0.103492,-0.046297 0.14489,-0.063223 0.04829,-0.025289 0.113842,-0.037934 0.196638,-0.037934 0.413973,9.9e-6 0.752051,0.071587 1.014237,0.2148797 0.26908,0.1432631 0.489866,0.3160072 0.662358,0.5182422 0.179386,0.202245 0.324276,0.4129131 0.434673,0.6319944 0.117289,0.2191012 0.224233,0.40449 0.32083,0.5561662 L 19.405032,9.73272 V 9.4167128 c -4e-6,-0.3117757 -0.0207,-0.6530622 -0.06209,-1.0238397 -0.0345,-0.3707676 -0.07245,-0.7289004 -0.113842,-1.0743985 m 4.605461,-2.9071982 c 0.01379,10e-6 0.02415,0.012645 0.03105,0.037934 0.0069,0.016826 0.01034,0.033752 0.01034,0.050579 -4e-6,0.13483 -0.02416,0.2570153 -0.07245,0.3665559 -0.0414,0.1011275 -0.0966,0.1938219 -0.16559,0.2780832 -0.069,0.075868 -0.148344,0.1390415 -0.238035,0.1896003 -0.0897,0.050579 -0.175942,0.088513 -0.258734,0.1137522 -0.20009,0.050579 -0.36568,0.08005 -0.496769,0.088513 -0.124194,0.00797 -0.262185,0.037934 -0.413973,0.088513 -0.0828,0.025289 -0.179391,0.1095507 -0.289782,0.2528038 -0.103495,0.13483 -0.206989,0.2949393 -0.310481,0.4803181 -0.103495,0.1853888 -0.200089,0.3792007 -0.289782,0.5814357 -0.08969,0.202245 -0.155241,0.3792106 -0.196637,0.5308769 0.0207,-0.00797 0.06209,-0.029471 0.124191,-0.063223 0.06209,-0.042116 0.134541,-0.08005 0.217337,-0.1137621 0.08969,-0.042116 0.186287,-0.075868 0.289782,-0.1011175 0.103492,-0.033752 0.206985,-0.050579 0.31048,-0.050579 0.469169,0 0.848645,0.096876 1.138429,0.2907178 0.289779,0.1853888 0.531263,0.4339809 0.724454,0.7457566 0.200085,0.3033725 0.376024,0.644649 0.527817,1.0238397 0.151787,0.3792106 0.320827,0.7584112 0.507119,1.137602 0.01379,0.01683 0.04139,0.07159 0.0828,0.164321 0.0414,0.09269 0.06209,0.168532 0.06209,0.227524 -5e-6,0.05894 -0.02071,0.08851 -0.06209,0.08851 -0.04141,10e-6 -0.0759,-0.008 -0.103494,-0.02529 -0.02071,-0.02529 -0.0483,-0.06741 -0.08279,-0.126396 C 24.693545,10.38164 24.500357,10.099346 24.300274,9.8212625 24.107082,9.5347662 23.900095,9.2777509 23.679312,9.0502265 23.458523,8.8227121 23.213589,8.6415349 22.944509,8.506705 22.682323,8.3634618 22.392541,8.2918352 22.075163,8.2918253 c -0.34498,9.9e-6 -0.617512,0.016826 -0.817599,0.050579 -0.193189,0.025289 -0.344978,0.059042 -0.455372,0.1011175 -0.110393,0.033752 -0.189737,0.067405 -0.238035,0.1011275 -0.04829,0.025289 -0.09314,0.037934 -0.134541,0.037934 -0.0207,10e-6 -0.03105,-0.012645 -0.03105,-0.037934 0.08279,-0.2527938 0.15869,-0.4634619 0.227685,-0.6320044 0.0759,-0.1685225 0.134542,-0.2738616 0.175939,-0.3159972 0.103494,-0.3707675 0.200087,-0.7246888 0.289782,-1.0617637 0.09659,-0.3370551 0.241484,-0.665697 0.434673,-0.9859157 h -0.31048 c -0.234586,10e-6 -0.351879,-0.029471 -0.351879,-0.088513 0,-0.016826 0.0034,-0.037934 0.01035,-0.063223 0.0138,-0.025289 0.02759,-0.050579 0.0414,-0.075868 l 0.496769,-0.9100775 h 2.421748 m 1.676595,0 c 0.0414,9.9e-6 0.06209,0.029471 0.06209,0.088513 -1e-6,0.1011275 -0.02415,0.231736 -0.07245,0.3918354 -0.0483,0.1601193 -0.106944,0.3160071 -0.175938,0.4676834 -0.069,0.1516862 -0.141443,0.2865162 -0.217337,0.40448 -0.069,0.1095506 -0.127643,0.164321 -0.175939,0.164321 C 24.903985,5.74274 24.834986,5.5742075 24.724593,5.4225113 24.6142,5.270845 24.490007,5.1865737 24.352017,5.1697175 l 0.300131,-0.7584013 h 0.858996 m 5.640397,0 c 0.07589,1e-5 0.113837,0.029471 0.113842,0.088513 -5e-6,0.042116 -0.02071,0.1558978 -0.06209,0.3412766 -0.04141,0.1853987 -0.069,0.4213462 -0.0828,0.7078425 -0.02071,0.3033625 -0.03796,0.6783516 -0.05175,1.1249572 -0.0138,0.4381925 -0.0276,0.9100875 -0.0414,1.415685 -0.0138,0.5055976 -0.0276,1.0238397 -0.0414,1.5547166 -0.0069,0.5224539 -0.01726,1.0196279 -0.03105,1.4915229 -0.0069,0.463462 -0.0138,0.884798 -0.0207,1.263999 -5e-6,0.370767 -5e-6,0.657274 0,0.859519 v 2.224635 c -5e-6,0.09269 -0.0138,0.164321 -0.0414,0.214879 -0.02071,0.05894 -0.0483,0.08851 -0.08279,0.08851 -0.0276,0 -0.06555,-0.02947 -0.113844,-0.08851 -0.0483,-0.05058 -0.07245,-0.122185 -0.07245,-0.214879 v -1.997121 c -5e-6,-0.235938 -0.01035,-0.551945 -0.03105,-0.947992 -0.0138,-0.40448 -0.0345,-0.851095 -0.06209,-1.339847 -0.02071,-0.488741 -0.0483,-1.002771 -0.08279,-1.5420811 -0.0276,-0.5393001 -0.05865,-1.0617538 -0.09314,-1.5673514 -0.0276,-0.5140206 -0.05865,-0.9901272 -0.09314,-1.4283296 -0.0276,-0.4466057 -0.05175,-0.8173733 -0.07245,-1.1123126 h -1.11773 c -0.0759,10e-6 -0.120746,0.042116 -0.134542,0.1263969 -0.0069,0.084231 -0.01035,0.1685424 -0.01035,0.2528037 l 0.113842,3.5518373 c 0.0276,0.033752 0.04485,0.075868 0.05175,0.1263969 0.01379,0.042116 0.0207,0.08005 0.0207,0.1137622 -3e-6,0.1011274 -0.0414,0.1516862 -0.124191,0.1516762 -0.0552,1e-5 -0.110397,-0.025289 -0.16559,-0.075868 -0.0483,-0.050579 -0.0966,-0.105329 -0.144891,-0.1643209 C 28.540051,9.4631098 28.377911,9.307212 28.191626,9.1639588 28.005334,9.0122826 27.808697,8.8816641 27.601712,8.7721135 27.401623,8.6625729 27.201535,8.5783116 27.00145,8.5193197 26.801361,8.4519147 26.618523,8.4182022 26.452934,8.4181923 c -0.137992,9.9e-6 -0.269084,0.029471 -0.393275,0.088513 -0.124193,0.050579 -0.248385,0.092694 -0.372577,0.1263968 0.02759,-0.2275144 0.06899,-0.4381725 0.124192,-0.6319944 0.06209,-0.1938119 0.127642,-0.3496997 0.196638,-0.4676834 0.0138,-0.1685226 0.04829,-0.3496997 0.103494,-0.5435216 0.0552,-0.1938019 0.117291,-0.3791906 0.186287,-0.5561563 0.069,-0.1853787 0.141441,-0.3539112 0.217337,-0.5055975 0.0759,-0.1600994 0.14144,-0.2865062 0.196638,-0.3792006 h -0.227686 c -0.234586,10e-6 -0.351878,-0.029471 -0.351878,-0.088513 0,-0.016826 0.0034,-0.037934 0.01035,-0.063223 0.0138,-0.025289 0.02759,-0.050579 0.0414,-0.075868 l 0.496769,-0.9100776 h 4.47092 m -3.446334,1.1376019 c -0.110395,1e-5 -0.238037,0.058942 -0.382926,0.1769557 -0.144892,0.1095606 -0.286333,0.2570253 -0.424324,0.442404 -0.131092,0.1769657 -0.248385,0.3749891 -0.351877,0.5940804 -0.103494,0.2191012 -0.169041,0.4297594 -0.196638,0.6319944 0.0552,-0.042116 0.134541,-0.067405 0.238035,-0.075868 0.110392,-0.016826 0.189737,-0.025289 0.238035,-0.025289 0.179388,10e-6 0.341527,0.037934 0.48642,0.1137622 0.144889,0.067405 0.27598,0.1601094 0.393275,0.2780831 0.11729,0.1095507 0.224234,0.2401591 0.32083,0.3918354 0.09659,0.1432631 0.189736,0.2865162 0.279433,0.4297594 l 0.424323,0.6699184 V 8.809948 c -3e-6,-0.1685325 -0.0138,-0.366556 -0.0414,-0.5940804 -0.02071,-0.2275144 -0.05175,-0.4634619 -0.09314,-0.7078425 -0.0414,-0.2527937 -0.0897,-0.501376 -0.144891,-0.7457566 -0.0552,-0.2443706 -0.117295,-0.471885 -0.186288,-0.6825631 -0.0414,-0.1263869 -0.0828,-0.2443607 -0.124192,-0.3539212 -0.0414,-0.1179638 -0.100046,-0.1769457 -0.175939,-0.1769557 H 27.705209 M 31.182591,4.1584229 C 30.968705,3.8887828 30.747919,3.6233444 30.520233,3.3621075 30.292549,3.0924675 30.078662,2.8228075 29.878572,2.5531475 29.768182,2.4014812 29.63364,2.2582281 29.474948,2.1233881 29.316261,1.980145 29.147221,1.8537481 28.96783,1.7441875 28.788444,1.6346468 28.605606,1.546174 28.419314,1.478749 28.226129,1.411344 28.046741,1.3776415 27.881148,1.3776216 c -0.08279,1.99e-5 -0.165586,0.037934 -0.248384,0.1137622 -0.08279,0.067405 -0.124189,0.1516961 -0.124193,0.2528037 4e-6,0.084331 0.03105,0.1685425 0.09314,0.2527938 0.0621,0.084231 0.137994,0.1601193 0.227685,0.2275243 0.0897,0.059042 0.186292,0.1095606 0.289782,0.1516763 0.103497,0.042116 0.196641,0.063223 0.279433,0.063223 0.0552,1e-5 0.113845,-0.025289 0.175938,-0.075868 0.0621,-0.050579 0.110396,-0.075868 0.144891,-0.075868 0.0276,1e-5 0.04141,0.016826 0.0414,0.050579 3e-6,0.1179837 -0.0552,0.3033725 -0.165589,0.5561563 -0.06899,0.1516962 -0.155237,0.2949493 -0.258734,0.4297594 -0.11039,0.1264168 -0.234582,0.1896102 -0.372577,0.1896003 -0.08969,9.9e-6 -0.189734,-0.029471 -0.300131,-0.088513 C 27.546521,3.3663091 27.436128,3.2904411 27.332631,3.1977368 27.229142,3.1050424 27.142897,2.9997233 27.073897,2.8817396 27.004906,2.7637758 26.970408,2.6458021 26.970404,2.5278184 c 4e-6,-0.1516664 0.0345,-0.3496998 0.103493,-0.5940804 0.069,-0.2527938 0.162144,-0.4971644 0.279432,-0.7331219 0.117298,-0.24436064 0.255288,-0.45081719 0.413975,-0.61935966 0.151793,-0.17694569 0.317383,-0.26542849 0.496769,-0.26543845 0.0897,9.96e-6 0.196641,0.003983 0.320829,0.0126447 0.117296,0.007965 0.238038,0.0252893 0.362227,0.0505787 0.117296,0.0252893 0.231139,0.067405 0.341529,0.12640685 0.103496,0.0505787 0.193191,0.12640684 0.269083,0.2275144 0.179391,0.24439056 0.320832,0.49297276 0.424324,0.74576656 0.0966,0.2443806 0.210438,0.5140307 0.341528,0.8089601 0.069,0.1685424 0.162142,0.3412865 0.279433,0.5182322 0.110394,0.1769755 0.220787,0.3497196 0.331179,0.5182422 0.103494,0.1601193 0.193188,0.3033724 0.269083,0.4297594 0.0759,0.1264168 0.113843,0.2191111 0.113843,0.2780831 0,0.084231 -0.04484,0.1264068 -0.134541,0.1263969 m 1.90428,0.2528037 c 0.0414,10e-6 0.06209,0.029471 0.06209,0.088513 -2e-6,0.1011275 -0.02415,0.2317359 -0.07245,0.3918353 -0.0483,0.1601193 -0.106944,0.3160072 -0.175939,0.4676835 -0.069,0.1516862 -0.141442,0.2865162 -0.217337,0.40448 -0.069,0.1095506 -0.127642,0.1643209 -0.175938,0.1643209 C 32.4797,5.7426603 32.410708,5.5741278 32.300316,5.4224316 32.189922,5.2707653 32.06573,5.1864941 31.927739,5.1696378 L 32.22787,4.4112366 h 0.858996 m 4.015549,0 c 0.01379,9.9e-6 0.02415,0.012645 0.03105,0.037934 0.0069,0.016826 0.01034,0.033752 0.01035,0.050579 -4e-6,0.2106681 -0.05175,0.3834221 -0.155241,0.5182322 -0.0966,0.1348399 -0.21044,0.2443905 -0.341528,0.3286419 -0.124196,0.075868 -0.251837,0.1306283 -0.382927,0.1643209 -0.124194,0.025289 -0.213889,0.037934 -0.269083,0.037934 h -0.103493 c -0.0345,10e-6 -0.06555,0.012645 -0.09314,0.037934 -0.0207,0.016826 -0.03105,0.033752 -0.03105,0.050579 -2e-6,0.016826 0.0069,0.05476 0.0207,0.1137622 0.01379,0.059042 0.0276,0.1306283 0.0414,0.2148796 0.01379,0.075868 0.02759,0.1601194 0.0414,0.2528038 0.01379,0.084231 0.0207,0.1558978 0.0207,0.2148797 -2e-6,0.075868 -0.01035,0.1601093 -0.03105,0.2528037 -0.0207,0.092694 -0.04485,0.1769656 -0.07245,0.2527938 -0.0276,0.092694 -0.0621,0.1811772 -0.103493,0.2654385 0.310478,0.067405 0.58646,0.2022449 0.827948,0.40448 0.248381,0.1938218 0.472617,0.4381924 0.672708,0.7331218 0.200083,0.2949394 0.386371,0.6235813 0.558865,0.9859257 0.172485,0.3623444 0.338074,0.7331226 0.496769,1.1123126 0.0069,0.01683 0.01724,0.04212 0.03105,0.07587 0.01379,0.03375 0.02069,0.0674 0.0207,0.101118 -5e-6,0.05058 -0.02415,0.07587 -0.07245,0.07587 -0.0552,0 -0.0966,-0.02111 -0.124192,-0.06322 -0.0276,-0.04212 -0.0483,-0.07159 -0.06209,-0.08851 C 37.840662,10.213068 37.630225,9.9097055 37.402544,9.6316224 37.174854,9.3535492 36.933369,9.1176017 36.678089,8.9237898 36.422802,8.7215548 36.157169,8.565657 35.881189,8.4561064 35.605204,8.3381426 35.322322,8.2791507 35.032542,8.2791408 c -0.275984,9.9e-6 -0.514019,0.021108 -0.714105,0.063223 -0.193189,0.033752 -0.355329,0.071686 -0.48642,0.1137622 -0.124193,0.042116 -0.220786,0.084231 -0.289782,0.1263969 -0.069,0.033752 -0.113843,0.050579 -0.134541,0.050579 -0.0414,10e-6 -0.06554,-0.00797 -0.07245,-0.025289 -0.0069,-0.016826 -0.01035,-0.042116 -0.01035,-0.075868 -10e-7,-0.1011175 0.0414,-0.231726 0.124191,-0.3918353 0.08969,-0.1600994 0.206987,-0.3117857 0.351879,-0.4550388 0.151789,-0.1516763 0.327728,-0.2822947 0.527817,-0.3918453 0.206985,-0.1095407 0.427772,-0.164311 0.662358,-0.1643209 0.0759,9.9e-6 0.13109,9.9e-6 0.16559,0 0.0414,9.9e-6 0.08279,0.00398 0.124192,0.012645 0.04829,-0.092694 0.08624,-0.1811672 0.113843,-0.2654384 0.0276,-0.092694 0.0414,-0.2148797 0.0414,-0.3665659 -10e-7,-0.126387 -0.0414,-0.2485823 -0.124191,-0.366556 C 35.236071,6.0250247 35.139476,5.9238972 35.022185,5.839626 34.904891,5.7469316 34.777249,5.675315 34.639259,5.6247463 34.501267,5.5741676 34.377074,5.5488783 34.266683,5.5488783 h -0.403625 c -0.234586,10e-6 -0.351878,-0.029471 -0.351878,-0.088513 0,-0.016826 0.0034,-0.037934 0.01035,-0.063223 0.0138,-0.025289 0.0276,-0.050579 0.0414,-0.075868 l 0.496769,-0.9100775 h 3.04271 M 37.516382,4.158393 C 37.302496,3.888753 37.08171,3.6233145 36.854023,3.3620777 36.626339,3.0924376 36.412452,2.8227776 36.212363,2.5531176 36.101972,2.4014513 35.96743,2.2581982 35.808739,2.1233583 35.650051,1.9801151 35.481011,1.8537182 35.30162,1.7441576 35.122235,1.634617 34.939396,1.5461441 34.753105,1.4787192 34.55992,1.4113141 34.380532,1.3776116 34.214938,1.3775917 c -0.08279,1.99e-5 -0.165586,0.037934 -0.248384,0.1137622 -0.08279,0.067405 -0.124188,0.1516962 -0.124193,0.2528037 5e-6,0.084331 0.03105,0.1685425 0.09314,0.2527938 0.0621,0.084231 0.137995,0.1601193 0.227686,0.2275244 0.0897,0.059042 0.186292,0.1095605 0.289782,0.1516762 0.103496,0.042116 0.196641,0.063223 0.279432,0.063223 0.0552,9.9e-6 0.113846,-0.025289 0.175939,-0.075868 0.0621,-0.050579 0.110396,-0.075868 0.144891,-0.075868 0.0276,9.9e-6 0.0414,0.016826 0.0414,0.050579 4e-6,0.1179837 -0.0552,0.3033725 -0.165589,0.5561563 -0.06899,0.1516962 -0.155237,0.2949493 -0.258734,0.4297594 C 34.559919,3.4505505 34.435726,3.513744 34.297731,3.513734 34.208041,3.513744 34.107997,3.484263 33.9976,3.425221 33.880312,3.366279 33.769918,3.290411 33.666421,3.1977066 33.562932,3.1050126 33.476687,2.9996931 33.407687,2.8817094 33.338697,2.7637456 33.304198,2.6457719 33.304194,2.5277882 c 4e-6,-0.1516663 0.0345,-0.3496997 0.103493,-0.5940803 0.069,-0.2527938 0.162145,-0.4971645 0.279432,-0.7331219 0.117298,-0.24436071 0.255288,-0.45081726 0.413975,-0.61935973 0.151793,-0.17694569 0.317383,-0.26542849 0.496769,-0.26543845 0.0897,9.96e-6 0.196641,0.003983 0.32083,0.0126447 0.117295,0.007965 0.238037,0.0252893 0.362227,0.0505787 0.117295,0.0252893 0.231138,0.067405 0.341528,0.12640685 0.103496,0.0505787 0.193191,0.12640684 0.269083,0.2275144 0.179391,0.24439056 0.320832,0.49297283 0.424324,0.74576663 0.0966,0.2443806 0.210439,0.5140306 0.341528,0.80896 0.069,0.1685424 0.162142,0.3412865 0.279433,0.5182322 0.110394,0.1769756 0.220787,0.3497197 0.33118,0.5182422 0.103493,0.1601193 0.193187,0.3033725 0.269083,0.4297594 0.0759,0.1264168 0.113843,0.2191112 0.113842,0.2780831 1e-6,0.084231 -0.04484,0.1264069 -0.134541,0.1263969 m 5.992275,0.2528037 c 0.07589,10e-6 0.113837,0.029471 0.113842,0.088513 -5e-6,0.042116 -0.02071,0.1558978 -0.06209,0.3412766 -0.0414,0.1853987 -0.069,0.4213462 -0.0828,0.7078425 -0.02071,0.3033625 -0.03796,0.6783516 -0.05175,1.1249572 -0.0138,0.4381925 -0.0276,0.9100875 -0.0414,1.415685 -0.0138,0.5055976 -0.0276,1.0238398 -0.0414,1.5547167 -0.0069,0.5224534 -0.01725,1.0196284 -0.03105,1.4915234 -0.0069,0.463462 -0.0138,0.884798 -0.0207,1.263998 -4e-6,0.370768 -4e-6,0.657274 0,0.859519 v 2.224635 c -4e-6,0.09269 -0.0138,0.164321 -0.0414,0.21488 -0.02071,0.05894 -0.0483,0.08851 -0.08279,0.08851 -0.0276,0 -0.06555,-0.02947 -0.113844,-0.08851 -0.0483,-0.05058 -0.07245,-0.122185 -0.07245,-0.21488 v -1.99712 c -5e-6,-0.235938 -0.01035,-0.551945 -0.03105,-0.947992 -0.0138,-0.40448 -0.0345,-0.851096 -0.06209,-1.339847 -0.02071,-0.488741 -0.0483,-1.002772 -0.0828,-1.5420817 -0.0276,-0.5393001 -0.05865,-1.0617538 -0.09314,-1.5673514 -0.0276,-0.5140206 -0.05866,-0.9901272 -0.09314,-1.4283296 -0.0276,-0.4466057 -0.05175,-0.8173732 -0.07245,-1.1123126 h -1.117702 c -0.0759,10e-6 -0.120746,0.042116 -0.134541,0.1263969 -0.0069,0.084231 -0.01035,0.1685425 -0.01035,0.2528037 l 0.113842,3.5518373 c 0.02759,0.033752 0.04484,0.075868 0.05175,0.1263969 0.01379,0.042116 0.0207,0.08005 0.0207,0.1137622 -3e-6,0.1011275 -0.0414,0.1516862 -0.124192,0.1516763 -0.0552,9.9e-6 -0.110396,-0.025289 -0.165589,-0.075868 -0.0483,-0.050579 -0.0966,-0.1053291 -0.144892,-0.164321 C 40.897193,9.4629704 40.735054,9.3070726 40.548768,9.1638194 40.362477,9.0121432 40.165839,8.8815248 39.958855,8.7719741 39.758766,8.6624335 39.558679,8.5781722 39.358593,8.5191804 39.158504,8.4517753 38.975665,8.4180628 38.810077,8.4180529 c -0.137992,9.9e-6 -0.269084,0.029471 -0.393276,0.088513 -0.124192,0.050579 -0.248384,0.092694 -0.372576,0.1263969 0.02759,-0.2275145 0.069,-0.4381726 0.124192,-0.6319945 0.06209,-0.1938118 0.127642,-0.3496997 0.196638,-0.4676834 0.0138,-0.1685225 0.04829,-0.3496997 0.103493,-0.5435216 0.0552,-0.1938019 0.117292,-0.3791906 0.186288,-0.5561562 0.069,-0.1853788 0.141441,-0.3539113 0.217337,-0.5055976 0.0759,-0.1600994 0.14144,-0.2865062 0.196638,-0.3792006 h -0.227686 c -0.234586,10e-6 -0.351879,-0.029471 -0.351879,-0.088513 0,-0.016826 0.0034,-0.037934 0.01035,-0.063223 0.0138,-0.025289 0.02759,-0.050579 0.0414,-0.075868 l 0.496769,-0.9100775 h 4.47092 M 40.062351,5.548729 c -0.110395,9.9e-6 -0.238037,0.058942 -0.382927,0.1769556 -0.144892,0.1095606 -0.286333,0.2570253 -0.424322,0.4424041 -0.131094,0.1769656 -0.248386,0.374989 -0.351879,0.5940803 -0.103494,0.2191012 -0.16904,0.4297594 -0.196637,0.6319944 0.0552,-0.042116 0.13454,-0.067405 0.238035,-0.075868 0.110392,-0.016826 0.189737,-0.025289 0.238034,-0.025289 0.179388,9.9e-6 0.341528,0.037934 0.48642,0.1137621 0.144889,0.067405 0.275981,0.1601094 0.393276,0.2780832 0.117291,0.1095506 0.224233,0.240159 0.32083,0.3918353 0.09659,0.1432631 0.189735,0.2865162 0.279432,0.4297594 l 0.424324,0.6699184 V 8.8098086 c -4e-6,-0.1685325 -0.0138,-0.366556 -0.0414,-0.5940803 -0.02071,-0.2275144 -0.05175,-0.463462 -0.09314,-0.7078426 C 40.910991,7.255092 40.862698,7.0065098 40.807505,6.7621292 40.752307,6.5177585 40.69021,6.2902441 40.621217,6.079566 40.579812,5.9531791 40.538419,5.8352053 40.497024,5.7256448 40.455628,5.607681 40.396978,5.5486991 40.321086,5.5486891 h -0.258734 m 5.381662,-1.1376019 c 0.0414,1e-5 0.06209,0.029471 0.06209,0.088513 -10e-7,0.1011275 -0.02415,0.2317359 -0.07245,0.3918353 -0.0483,0.1601194 -0.106944,0.3160072 -0.175939,0.4676835 -0.069,0.1516862 -0.141442,0.2865162 -0.217336,0.40448 -0.069,0.1095506 -0.127643,0.1643209 -0.175939,0.1643209 C 44.836844,5.7425408 44.767852,5.5740083 44.65746,5.4223121 44.547066,5.2706458 44.422874,5.1863746 44.284883,5.1695184 l 0.300132,-0.7584013 h 0.858995 m 3.580877,0 c 0.01379,10e-6 0.02415,0.012645 0.03105,0.037934 0.0069,0.016826 0.01035,0.033752 0.01035,0.050579 -3e-6,0.1432631 -0.02416,0.26966 -0.07245,0.3792006 -0.0483,0.1011275 -0.110396,0.1938218 -0.186288,0.2780732 -0.069,0.075868 -0.151794,0.1390515 -0.248384,0.1896003 -0.0897,0.050579 -0.175942,0.092694 -0.258734,0.1264068 -0.0414,0.016826 -0.07935,0.042116 -0.113844,0.075868 -0.0345,0.033752 -0.05175,0.088513 -0.05175,0.164321 v 1.0491191 c 0.227682,0.1516862 0.42087,0.3328534 0.579563,0.5435215 0.165586,0.202245 0.313927,0.4213363 0.445023,0.6572738 0.137987,0.2359575 0.269079,0.4803281 0.393275,0.7331219 0.131088,0.2443806 0.275978,0.4803281 0.434673,0.7078425 L 50.308199,9.871652 V 9.4166132 c -4e-6,-0.3117757 -0.02071,-0.6488407 -0.06209,-1.011195 -0.0345,-0.3707676 -0.069,-0.7289004 -0.103494,-1.0743985 -0.02071,-0.1600994 -0.0483,-0.3412766 -0.08279,-0.5435216 -0.0276,-0.202235 -0.0621,-0.3960469 -0.103494,-0.5814456 -0.0345,-0.1853788 -0.07245,-0.3412666 -0.113843,-0.4676734 -0.0345,-0.1263969 -0.06555,-0.1895904 -0.09314,-0.1896004 -0.0345,1e-5 -0.069,0.012645 -0.103494,0.037934 -0.0276,0.025289 -0.0483,0.037934 -0.06209,0.037934 -0.02071,10e-6 -0.04485,-0.00398 -0.07245,-0.012645 -0.02071,-0.016826 -0.03105,-0.042116 -0.03105,-0.075868 -4e-6,-0.033653 0.01035,-0.063223 0.03105,-0.088513 0.0207,-0.025289 0.03794,-0.046297 0.05175,-0.063223 L 50.256456,4.537514 c 0.0414,-0.050579 0.07934,-0.084231 0.113843,-0.1011175 0.0414,-0.016826 0.07244,-0.025289 0.09314,-0.025289 h 0.465721 c 0.06899,10e-6 0.103488,0.042116 0.103493,0.1263969 -5e-6,0.016826 -0.0138,0.063223 -0.0414,0.1390416 -0.02071,0.075868 -0.0483,0.1643309 -0.0828,0.2654384 -0.0276,0.1011275 -0.05865,0.2064666 -0.09314,0.3160072 -0.0276,0.1095506 -0.05175,0.2064566 -0.07245,0.2907178 -0.0345,0.1685425 -0.06555,0.3497097 -0.09314,0.5435216 -0.02071,0.1853888 -0.03105,0.3834122 -0.03105,0.5940803 v 3.4886337 c 0.0414,0.08423 0.06209,0.185389 0.06209,0.303362 -6e-6,0.04212 -0.02416,0.08005 -0.07245,0.113762 -0.0414,0.02529 -0.0759,0.03793 -0.103493,0.03793 -0.0345,10e-6 -0.069,-0.01264 -0.103494,-0.03793 -0.0276,-0.03375 -0.05865,-0.07159 -0.09314,-0.113762 L 48.134832,8.1778241 c -3e-6,0.13483 -0.02416,0.2991509 -0.07245,0.4929628 -0.0483,0.1938219 -0.124195,0.3792007 -0.227686,0.5561563 C 47.731202,9.4039088 47.600111,9.555595 47.441423,9.681982 47.28963,9.8083888 47.106792,9.8715923 46.892907,9.8715823 46.692818,9.8715923 46.516879,9.8294666 46.36509,9.7451854 46.213299,9.660954 46.085657,9.5471619 45.982164,9.4039088 45.87867,9.2606557 45.799325,9.0963348 45.744129,8.910946 c -0.0483,-0.1938119 -0.07245,-0.3960469 -0.07245,-0.606715 0,-0.2612269 0.0414,-0.5055976 0.124193,-0.7331219 0.08969,-0.2275144 0.200087,-0.4213263 0.331179,-0.5814456 0.137991,-0.1685226 0.289781,-0.299141 0.455372,-0.3918354 0.165588,-0.092694 0.327727,-0.1390316 0.48642,-0.1390415 0.103491,9.9e-6 0.200085,0.00797 0.289781,0.025289 0.09659,0.016826 0.179387,0.033752 0.248385,0.050579 0.0759,0.025289 0.148338,0.050579 0.217336,0.075868 -2e-6,-0.1179638 -0.0207,-0.2401491 -0.0621,-0.366556 -0.0414,-0.1263969 -0.09315,-0.2401491 -0.15524,-0.3412766 -0.0621,-0.1011175 -0.131094,-0.1853788 -0.206987,-0.2528037 -0.069,-0.067405 -0.134544,-0.1011076 -0.196637,-0.1011175 h -0.693407 c -0.234587,9.9e-6 -0.351879,-0.029471 -0.351878,-0.088513 -10e-7,-0.016826 0.0034,-0.037934 0.01035,-0.063223 0.0138,-0.025289 0.0276,-0.050579 0.0414,-0.075868 l 0.496769,-0.9100776 h 2.318255 m -1.200526,3.6276755 c -0.0759,-0.1095407 -0.18284,-0.2106582 -0.320829,-0.3033526 -0.131094,-0.092694 -0.341531,-0.1390415 -0.63131,-0.1390415 -0.289783,0 -0.486421,0.042116 -0.589914,0.1263968 -0.103494,0.075868 -0.155241,0.1853987 -0.15524,0.3286419 -1e-6,0.1011275 0.0138,0.2233128 0.0414,0.366556 0.0276,0.1348399 0.0759,0.2654484 0.144892,0.3918453 0.0759,0.1264068 0.172488,0.2359475 0.289781,0.3286419 0.117292,0.084231 0.265632,0.1263968 0.445023,0.1263968 0.144889,0 0.265631,-0.037934 0.362227,-0.1137621 0.103492,-0.075868 0.186286,-0.1685226 0.248384,-0.2780832 0.06209,-0.1179637 0.103492,-0.2401491 0.124192,-0.3665559 0.02759,-0.13482 0.0414,-0.2527938 0.0414,-0.3539213 V 8.0387627 m 6.944415,-3.6276755 c -3e-6,-0.050579 -0.0069,-0.1179638 -0.0207,-0.2022449 -0.0138,-0.092694 -0.0345,-0.1853689 -0.06209,-0.2780732 -0.0276,-0.1011175 -0.06555,-0.1980235 -0.113844,-0.2907178 -0.0414,-0.1011176 -0.0897,-0.1895904 -0.14489,-0.2654484 -0.0621,-0.084232 -0.117296,-0.1474548 -0.16559,-0.1896004 -0.0483,-0.042116 -0.07245,-0.084231 -0.07245,-0.1263969 -3e-6,-0.025289 0.0207,-0.08005 0.06209,-0.1643209 0.04829,-0.084231 0.103491,-0.1769457 0.165589,-0.2780831 0.06209,-0.1011076 0.12419,-0.1938019 0.186289,-0.2780732 0.06899,-0.092694 0.124189,-0.1600994 0.16559,-0.202245 h 1.862883 c 0.01379,1e-5 0.02415,0.012645 0.03105,0.037934 0.0069,0.016826 0.01035,0.033752 0.01035,0.050579 -5e-6,0.1179837 -0.02071,0.2233228 -0.06209,0.3159972 -0.0414,0.092694 -0.0897,0.1769756 -0.144892,0.2528038 -0.0552,0.067405 -0.113847,0.1221952 -0.175938,0.1643209 -0.0552,0.042116 -0.0966,0.075868 -0.124193,0.1011175 -0.117297,0.084331 -0.251839,0.1432631 -0.403624,0.1769656 -0.144896,0.025289 -0.286337,0.037934 -0.424324,0.037934 H 55.089593 V 4.411137 h 0.227686 c 0.01379,10e-6 0.02415,0.012645 0.03105,0.037934 0.0069,0.016826 0.01035,0.033752 0.01035,0.050579 -4e-6,0.1685425 -0.069,0.3328634 -0.206987,0.4929528 -0.137995,0.1601194 -0.296685,0.2823047 -0.47607,0.366566 -0.0966,0.042116 -0.217339,0.075868 -0.362228,0.1011175 -0.144894,0.016826 -0.296683,0.029471 -0.455371,0.037934 -0.151793,0.00797 -0.300133,0.016826 -0.445022,0.025289 -0.137993,1e-5 -0.248387,0.00797 -0.331179,0.025289 -0.0483,0.00797 -0.110395,0.08005 -0.186289,0.2148797 -0.069,0.13483 -0.141442,0.2907278 -0.217336,0.4676735 -0.069,0.1769756 -0.131093,0.3539312 -0.186289,0.5308869 -0.0552,0.1685424 -0.08969,0.2991509 -0.103493,0.3918353 0.103493,-0.1011075 0.200086,-0.2064466 0.289782,-0.3159972 0.09659,-0.1095406 0.206985,-0.2064466 0.331179,-0.2907178 0.12419,-0.084231 0.269082,-0.1516763 0.434673,-0.202245 0.172487,-0.058942 0.386373,-0.088513 0.64166,-0.088513 0.08969,1e-5 0.172486,0.00398 0.248384,0.012645 0.08279,0.00797 0.169037,0.012645 0.258734,0.012645 0.09659,0 0.200084,-0.00797 0.310481,-0.025289 0.110389,-0.016826 0.238031,-0.058942 0.382926,-0.1263969 -4e-6,0.084231 -0.0276,0.1811872 -0.0828,0.2907179 -0.0552,0.1095605 -0.120746,0.2148896 -0.196638,0.3160071 -0.069,0.1011275 -0.137995,0.1938219 -0.206987,0.2780732 -0.069,0.075868 -0.120746,0.1221953 -0.15524,0.1390415 -0.0828,0.067405 -0.172492,0.1264069 -0.269083,0.1769657 -0.0897,0.042116 -0.182842,0.063223 -0.279433,0.063223 -0.137994,9.9e-6 -0.293234,-0.016826 -0.46572,-0.050579 -0.172492,-0.033752 -0.369129,-0.050579 -0.589914,-0.050579 -0.117294,9.9e-6 -0.248385,0.021108 -0.393275,0.063223 -0.144892,0.033752 -0.258735,0.084231 -0.341528,0.1516763 -0.0138,0.033752 -0.03105,0.092694 -0.05175,0.1769656 -0.0207,0.084231 -0.0414,0.1769656 -0.06209,0.2780731 -0.0207,0.1011275 -0.0414,0.202245 -0.06209,0.3033625 -0.0207,0.1011275 -0.0345,0.1811772 -0.0414,0.2401591 0.110393,-0.092694 0.238035,-0.164311 0.382927,-0.2148797 0.151789,-0.058942 0.303579,-0.1011175 0.455371,-0.1263969 0.158689,-0.025289 0.310478,-0.037934 0.455371,-0.037934 0.144889,-0.00797 0.275981,-0.012645 0.393276,-0.012645 0.372574,0 0.707202,0.1179738 1.003887,0.3539113 0.296678,0.2275344 0.57956,0.5561663 0.848647,0.9859257 0.04829,0.075868 0.08279,0.1348299 0.103493,0.1769556 0.02759,0.042116 0.05174,0.084231 0.07245,0.1264069 0.02069,0.033752 0.0414,0.071587 0.0621,0.1137522 0.02759,0.042116 0.06899,0.105339 0.124192,0.1896001 0.02069,0.04212 0.05864,0.109551 0.113843,0.202245 0.05519,0.08423 0.08279,0.151687 0.08279,0.202235 -5e-6,0.01683 -0.0034,0.05058 -0.01034,0.101128 -0.0069,0.04212 -0.01725,0.06322 -0.03105,0.06322 -0.0414,1e-5 -0.07935,-0.02111 -0.113843,-0.06322 C 55.789897,10.280334 55.544962,10.052809 55.296582,9.8842767 55.055093,9.7073211 54.80326,9.5767027 54.541079,9.4924314 54.278893,9.3997371 54.00636,9.3407651 53.72348,9.3154758 c -0.282883,-0.033752 -0.583015,-0.050579 -0.900393,-0.050579 -0.255285,0 -0.49332,0.029471 -0.714105,0.088513 -0.0483,0.016826 -0.103494,0.037934 -0.16559,0.063223 -0.06209,0.016826 -0.124193,0.037934 -0.186288,0.063223 -0.0552,0.025289 -0.106944,0.046297 -0.155241,0.063223 -0.0414,0.016826 -0.069,0.025289 -0.08279,0.025289 -0.0345,0 -0.05175,-0.016826 -0.05175,-0.050579 0,-0.058942 0.01035,-0.1306085 0.03105,-0.2148797 0.02759,-0.092694 0.0552,-0.1769557 0.0828,-0.2528038 0.0345,-0.084231 0.06554,-0.1558878 0.09314,-0.2148797 0.02759,-0.067405 0.04485,-0.1095406 0.05175,-0.1263968 0.0276,-0.050579 0.05865,-0.2022351 0.09314,-0.4550488 0.0345,-0.2527937 0.0759,-0.5393 0.124193,-0.8595187 0.0552,-0.3201989 0.120741,-0.6488407 0.196637,-0.9859157 0.0759,-0.3454882 0.165588,-0.6319944 0.269083,-0.8595188 h -0.186288 c -0.234586,1e-5 -0.351879,-0.029471 -0.351878,-0.088513 -10e-7,-0.016826 0.0034,-0.037934 0.01035,-0.063223 0.0138,-0.025289 0.02759,-0.050579 0.0414,-0.075868 L 52.419462,4.411147 h 2.349302 M 53.381951,3.1345035 c -0.0069,-0.042116 -0.01035,-0.1053191 -0.01035,-0.1896003 2e-6,-0.2106482 0.04485,-0.4086816 0.134542,-0.5940803 0.0828,-0.1853689 0.18629,-0.3496898 0.31048,-0.4929529 0.206989,-0.2527938 0.441574,-0.4592404 0.703756,-0.6193597 0.255285,-0.1600994 0.507119,-0.24014909 0.755502,-0.24016901 0.200089,1.992e-5 0.382927,-0.029471 0.548516,-0.0885127 0.15869,-0.067405 0.317381,-0.16431098 0.47607,-0.29071783 0.06209,-0.0505787 0.120743,-0.10954065 0.17594,-0.1769656 0.06209,-0.075868 0.117292,-0.14324317 0.165589,-0.20223503 0.0552,-0.067405 0.103493,-0.12217536 0.144891,-0.16432094 0.0414,-0.05057867 0.0759,-0.0758680001 0.103494,-0.0758680001 0.0138,9.95643e-6 0.02759,0.0168263701 0.0414,0.0505786701 0.0138,0.02528933 0.0207,0.04639697 0.0207,0.06322334 -10e-7,0.075868 -0.01725,0.17697556 -0.05175,0.30336249 -0.0345,0.11798371 -0.0828,0.24860213 -0.144891,0.3918453 -0.0552,0.13482999 -0.120743,0.26966001 -0.196638,0.40448001 -0.0759,0.1264069 -0.15179,0.2359575 -0.227686,0.3286319 -0.186288,0.2191112 -0.369126,0.3749991 -0.548515,0.4676835 -0.186288,0.084231 -0.358777,0.1264068 -0.517468,0.1263969 -0.179388,9.9e-6 -0.382925,0.025289 -0.610611,0.075868 -0.234584,0.050579 -0.431222,0.1264168 -0.589913,0.2275243 -0.124191,0.075868 -0.231134,0.1769756 -0.320831,0.3033625 -0.08969,0.1264069 -0.134539,0.2780931 -0.134541,0.4550388 2e-6,0.067405 0.0034,0.1601193 0.01035,0.2780831 0.0069,0.1095506 0.02415,0.2191012 0.05175,0.3286319 0.0207,0.067405 0.03105,0.1222053 0.03105,0.164321 2e-6,0.1011374 -0.05865,0.1516962 -0.175939,0.1516862 -0.0345,1e-5 -0.07244,-0.021108 -0.113843,-0.063223 -0.0414,-0.042116 -0.08624,-0.092694 -0.134542,-0.1516763 -0.0483,-0.058942 -0.09315,-0.1179641 -0.134553,-0.1769659 -0.0414,-0.058942 -0.0759,-0.1053191 -0.103494,-0.1390416 C 52.923126,3.437866 52.792035,3.2735451 52.647141,3.0965795 52.495354,2.9112007 52.336664,2.7426682 52.171071,2.590972 51.998585,2.4393057 51.822647,2.3129088 51.643254,2.2117714 51.463869,2.1106638 51.287931,2.0601051 51.115437,2.0600951 c -0.04829,1e-5 -0.08969,0.021108 -0.124192,0.063223 -0.03449,0.042116 -0.06899,0.063223 -0.103494,0.063223 -0.02759,1.99e-5 -0.04829,-0.012645 -0.06209,-0.037934 -0.01379,-0.033653 -0.02069,-0.063223 -0.0207,-0.088513 6e-6,-0.033653 0.02071,-0.1095307 0.06209,-0.2275144 0.0414,-0.1263969 0.0966,-0.2570054 0.16559,-0.3918453 0.0621,-0.1348101 0.134546,-0.2527838 0.217336,-0.3539213 0.0759,-0.10953066 0.151795,-0.16430099 0.227686,-0.1643209 0.165594,1.991e-5 0.320834,0.0590416 0.465721,0.1769656 0.144895,0.1179837 0.282885,0.26966 0.413974,0.4550388 0.124195,0.1769755 0.244938,0.374999 0.362227,0.5940803 0.110397,0.2106781 0.21389,0.4129131 0.310481,0.606715 0.0207,0.033752 0.04485,0.084231 0.07245,0.1516863 l 0.31048,0.6319944 -0.03105,-0.40448 M 59.38457,4.411136 c 0.01379,10e-6 0.02415,0.012645 0.03105,0.037934 0.0069,0.016826 0.01035,0.033752 0.01035,0.050579 -4e-6,0.2106681 -0.0552,0.3834221 -0.165589,0.5182322 -0.110397,0.1264168 -0.238039,0.2275343 -0.382927,0.3033625 -0.144894,0.075868 -0.286334,0.1306284 -0.424323,0.164321 -0.137994,0.025289 -0.234588,0.042116 -0.289782,0.050579 -0.220788,0.025289 -0.407077,0.092694 -0.558865,0.202245 -0.151792,0.1095506 -0.279434,0.2359475 -0.382926,0.3792006 -0.0966,0.1432532 -0.172491,0.2865063 -0.227686,0.4297594 -0.0483,0.1432532 -0.08625,0.2654484 -0.113842,0.366556 0.0552,-0.033752 0.12419,-0.063223 0.206986,-0.088513 0.08969,-0.025289 0.162139,-0.037934 0.217337,-0.037934 0.303579,10e-6 0.562313,0.016826 0.776201,0.050579 0.213884,0.025289 0.396722,0.067405 0.548516,0.1263969 0.158687,0.058942 0.293228,0.1348399 0.403625,0.2275243 0.110389,0.084231 0.210433,0.1811772 0.300131,0.2907179 0.193184,0.2528037 0.355324,0.5730224 0.48642,0.9606363 0.137986,0.3792105 0.24838,0.8089699 0.331179,1.2892881 0.08969,0.4718948 0.158686,0.9774928 0.206987,1.5167928 0.05519,0.530887 0.100039,1.074408 0.134541,1.630565 l 0.155241,2.755522 c -5e-6,0.03365 -0.01035,0.06741 -0.03105,0.101117 -0.02071,0.04212 -0.0414,0.06322 -0.06209,0.06322 -0.0345,-10e-6 -0.07245,-0.01683 -0.113843,-0.05058 -0.0345,-0.03375 -0.0552,-0.07159 -0.06209,-0.113752 l -0.279432,-2.679684 c -0.0966,-0.910078 -0.22769,-1.735894 -0.393276,-2.477439 C 59.539812,9.7283989 59.336275,9.1511748 59.094794,8.7466848 58.922301,8.4601885 58.701515,8.2495204 58.432435,8.1146904 58.16335,7.9714373 57.825272,7.8998107 57.418199,7.8998107 c -0.0828,0 -0.18284,0.012645 -0.300132,0.037934 -0.117294,0.025289 -0.238035,0.059042 -0.362227,0.1011175 -0.124193,0.033752 -0.248385,0.067405 -0.372576,0.1011275 -0.117294,0.033752 -0.220787,0.058942 -0.310481,0.075868 -0.0345,0 -0.05175,-0.021108 -0.05175,-0.063223 0,-0.050579 0.0138,-0.1179638 0.0414,-0.2022351 0.0345,-0.092694 0.07245,-0.1896003 0.113844,-0.2907278 0.04829,-0.1011075 0.103492,-0.202225 0.165589,-0.3033525 0.06209,-0.1095407 0.124192,-0.202235 0.186288,-0.2780831 0.0276,-0.1011175 0.0552,-0.2148698 0.0828,-0.3412766 0.0345,-0.1263969 0.06899,-0.2527938 0.103494,-0.3792006 0.0414,-0.1348201 0.07934,-0.261217 0.113842,-0.3792007 0.0414,-0.1263969 0.08279,-0.2359375 0.124193,-0.3286418 -10e-7,-0.050579 -0.0276,-0.084231 -0.0828,-0.1011176 h -0.186288 c -0.234586,10e-6 -0.351879,-0.029471 -0.351879,-0.088513 0,-0.016826 0.0034,-0.037934 0.01035,-0.063223 0.0138,-0.025289 0.02759,-0.050579 0.0414,-0.075868 l 0.496769,-0.9100775 h 2.504543 m 1.769739,0 c 0.0414,10e-6 0.06209,0.029471 0.06209,0.088513 -2e-6,0.1011274 -0.02415,0.2317359 -0.07245,0.3918353 -0.0483,0.1601193 -0.106945,0.3160072 -0.175939,0.4676835 -0.069,0.1516862 -0.141443,0.2865162 -0.217336,0.40448 -0.069,0.1095506 -0.127644,0.1643209 -0.17594,0.1643209 C 60.547142,5.7425707 60.478151,5.5740382 60.367758,5.422342 60.257365,5.2706757 60.133172,5.1864045 59.995182,5.1695482 L 60.295313,4.411147 h 0.858996 m 4.533016,0 c 0.01379,9.9e-6 0.02415,0.012645 0.03105,0.037934 0.0069,0.016826 0.01035,0.033752 0.01035,0.050579 -4e-6,0.2106682 -0.05175,0.3834222 -0.155241,0.5182323 -0.0966,0.1348399 -0.210441,0.2443905 -0.341528,0.3286419 -0.124196,0.075868 -0.251838,0.1306283 -0.382926,0.1643209 -0.124196,0.025289 -0.21389,0.037934 -0.269083,0.037934 h -0.310481 c -0.0552,0.042116 -0.100046,0.1432631 -0.134541,0.3033525 -0.0276,0.1601194 -0.0414,0.337075 -0.0414,0.5308869 V 6.913905 c 0.172486,-0.025289 0.324276,-0.042116 0.455371,-0.050579 0.131089,-0.016826 0.307028,-0.025289 0.527817,-0.025289 0.400172,9.9e-6 0.7279,0.1601094 0.983189,0.4803181 0.262178,0.3202188 0.393271,0.8216047 0.393275,1.5041579 -4e-6,0.2528037 -0.0345,0.4929728 -0.103493,0.7204872 -0.0621,0.2275243 -0.151795,0.4297593 -0.269083,0.6067148 -0.117297,0.168543 -0.258739,0.303363 -0.424324,0.40448 -0.158694,0.101128 -0.334633,0.151686 -0.527817,0.151676 -0.179392,10e-6 -0.338082,-0.03375 -0.47607,-0.101117 -0.131095,-0.07587 -0.248388,-0.168523 -0.351878,-0.278073 -0.0966,-0.109551 -0.175942,-0.223303 -0.238035,-0.3412867 -0.0621,-0.1179638 -0.113846,-0.2275144 -0.15524,-0.3286419 -3e-6,0.092694 -0.0345,0.202245 -0.103494,0.3286419 -0.06209,0.1179837 -0.144893,0.2317357 -0.248385,0.3412867 -0.103495,0.101117 -0.220787,0.1896 -0.351877,0.265438 -0.124194,0.07587 -0.251836,0.113762 -0.382926,0.113752 -0.448473,10e-6 -0.793451,-0.155887 -1.034935,-0.467673 -0.241485,-0.3202088 -0.362228,-0.7626128 -0.362228,-1.3272022 0,-0.2190913 0.02759,-0.4508173 0.08279,-0.6951978 0.06209,-0.2443707 0.14834,-0.4676735 0.258734,-0.6699185 0.110392,-0.202235 0.244934,-0.3707675 0.403624,-0.5056075 0.15869,-0.13482 0.338079,-0.2022251 0.538167,-0.202235 0.282881,9.9e-6 0.503666,0.00797 0.662359,0.025289 0.158687,0.016826 0.296678,0.033752 0.413973,0.050579 V 6.6611012 c -2e-6,-0.1432431 -0.0276,-0.2822847 -0.08279,-0.4171147 -0.0552,-0.13482 -0.127645,-0.2527938 -0.217337,-0.3539212 C 63.400112,5.7889577 63.303522,5.7088981 63.19313,5.6499062 63.082736,5.5825012 62.975792,5.5487986 62.872301,5.5487887 h -0.527817 c -0.234587,9.9e-6 -0.351879,-0.029471 -0.351879,-0.088513 0,-0.016826 0.0034,-0.037934 0.01035,-0.063223 0.0138,-0.025289 0.02759,-0.050579 0.0414,-0.075868 l 0.496769,-0.9100776 h 3.146203 m -1.5938,4.7273633 c 0.06899,0.1938119 0.196634,0.3792006 0.382925,0.5561562 0.186286,0.1685326 0.43812,0.2528038 0.755503,0.2528038 0.310476,0 0.527812,-0.1011175 0.652009,-0.3033625 0.13108,-0.202235 0.196626,-0.4676735 0.196631,-0.7963253 C 66.08059,8.5949488 65.980546,8.3758575 65.780464,8.1904688 65.580372,7.9966569 65.29404,7.899751 64.921468,7.899751 c -0.117297,0 -0.251838,0.00398 -0.403626,0.012645 -0.144893,10e-6 -0.286334,0.021108 -0.424322,0.063223 V 9.1385002 M 63.783039,7.975619 C 63.672644,7.9503296 63.510504,7.9335033 63.29662,7.9250403 63.08963,7.9082139 62.896443,7.899751 62.717055,7.899751 c -0.200088,0 -0.362228,0.029471 -0.486419,0.088513 -0.124193,0.050579 -0.220787,0.1179837 -0.289782,0.202245 -0.06209,0.084231 -0.103494,0.1769656 -0.124192,0.2780732 -0.0207,0.1011274 -0.03105,0.1980334 -0.03105,0.2907278 -10e-7,0.1179737 0.02759,0.2485921 0.08279,0.3918353 0.0552,0.1432631 0.131092,0.2738716 0.227686,0.3918453 0.09659,0.1179738 0.210436,0.2190913 0.341529,0.3033525 0.13109,0.075868 0.275981,0.1137722 0.434673,0.1137622 0.144889,10e-6 0.27253,-0.029471 0.382925,-0.088513 0.110391,-0.058942 0.203536,-0.1348201 0.279433,-0.2275145 0.0759,-0.092694 0.134539,-0.1938118 0.175939,-0.3033624 0.0414,-0.1179638 0.06554,-0.231726 0.07245,-0.3412766 V 7.9755991 M 62.861945,1.0615148 c 0.04141,-0.075868 0.0897,-0.13059846 0.144892,-0.16432089 0.0552,-0.0336527 0.110396,-0.0505787 0.165589,-0.0505787 0.331183,9.96e-6 0.641663,0.10113743 0.931442,0.30336249 0.282884,0.1938219 0.531269,0.4129131 0.745153,0.6572738 0.200089,0.2359674 0.362229,0.4592703 0.48642,0.6699284 0.117294,0.2106781 0.196638,0.3497097 0.238035,0.4171148 l 0.507118,0.7836806 c 0.0552,0.092694 0.103494,0.172754 0.144891,0.2401591 0.0345,0.067405 0.05175,0.1179837 0.05175,0.1516862 0,0.075868 -0.03105,0.1137622 -0.09315,0.1137522 -0.0345,10e-6 -0.06899,-0.016826 -0.103493,-0.050579 -0.0345,-0.042116 -0.07245,-0.088513 -0.113843,-0.1390416 C 65.725269,3.6653306 65.459636,3.3788244 65.169853,3.1344338 64.880074,2.88165 64.586842,2.6709819 64.290159,2.5024394 63.99348,2.3254838 63.707148,2.1948753 63.431163,2.1105941 63.155183,2.0263627 62.913699,1.9842072 62.706708,1.9841972 c -0.02759,10e-6 -0.06209,0.033752 -0.103493,0.1011175 -0.0414,0.059042 -0.07934,0.088513 -0.113844,0.088513 -0.03449,1e-5 -0.05865,-0.016826 -0.07245,-0.050579 -0.02069,-0.042116 -0.03104,-0.088513 -0.03105,-0.1390415 4e-6,-0.025289 0.0138,-0.063223 0.0414,-0.1137622 0.0276,-0.050579 0.05866,-0.1095307 0.09314,-0.1769557 l 0.34153,-0.6320043 m 7.762015,3.3496022 c 0.01379,1e-5 0.02415,0.012645 0.03105,0.037934 0.0069,0.016826 0.01035,0.033752 0.01035,0.050579 -4e-6,0.2106681 -0.0552,0.3834222 -0.165589,0.5182322 -0.103498,0.1264168 -0.224239,0.2275344 -0.362228,0.3033625 -0.131095,0.075868 -0.262186,0.1264069 -0.393275,0.1516863 -0.124195,0.025289 -0.20699,0.037934 -0.248384,0.037934 -0.0276,9.9e-6 -0.0552,0.016826 -0.0828,0.050579 -0.0276,0.033752 -0.0414,0.08005 -0.0414,0.1390416 v 1.2260847 c 0.0759,0.042116 0.155237,0.1095506 0.238035,0.202235 0.08969,0.084231 0.175936,0.1980334 0.258734,0.3412766 0.137988,0.2359575 0.255281,0.5224637 0.351878,0.8595287 0.10349,0.337065 0.189734,0.7078425 0.258733,1.1123126 0.07589,0.3960569 0.137988,0.8216046 0.186289,1.2766436 0.04829,0.446616 0.08279,0.901655 0.103494,1.365116 l 0.175938,3.539203 c -4e-6,0.04212 -0.0138,0.08005 -0.0414,0.113762 -0.0276,0.03375 -0.0552,0.05058 -0.0828,0.05058 -0.0552,0 -0.09315,-0.01683 -0.113843,-0.05058 -0.0138,-0.02529 -0.02416,-0.05894 -0.03105,-0.101117 -0.0345,-0.176966 -0.069,-0.417125 -0.103494,-0.720487 -0.0276,-0.29493 -0.05865,-0.610927 -0.09314,-0.947992 -0.0276,-0.328642 -0.0552,-0.657284 -0.08279,-0.985926 -0.02071,-0.328642 -0.0414,-0.610926 -0.06209,-0.846874 -0.0552,-0.741545 -0.175943,-1.42832 -0.362227,-2.060324 C 69.785663,9.4334495 69.585575,8.9152173 69.371691,8.5191604 v 0.1896004 c -2e-6,0.1263969 -0.03105,0.26965 -0.09314,0.4297593 -0.0552,0.1601094 -0.131094,0.3117857 -0.227686,0.4550388 -0.0966,0.1432531 -0.206989,0.2654385 -0.331179,0.366556 -0.124194,0.1011271 -0.251836,0.1516861 -0.382926,0.1516861 -0.213888,0 -0.413975,-0.03375 -0.600262,-0.101127 C 67.557108,9.934806 67.398418,9.8295064 67.260427,9.6946764 67.129335,9.5514233 67.022392,9.3786792 66.939598,9.1764342 66.863698,8.9657761 66.825755,8.7298286 66.825755,8.4685917 c 0,-0.2275144 0.04484,-0.4508172 0.134541,-0.6699184 0.08969,-0.2275144 0.206987,-0.4255379 0.351878,-0.5940804 0.15179,-0.1769456 0.320829,-0.3159872 0.507118,-0.4171147 0.186287,-0.1095406 0.372576,-0.164311 0.558866,-0.1643209 0.12419,9.9e-6 0.241483,0.016826 0.351878,0.050579 0.11729,0.025289 0.206984,0.046397 0.269083,0.063223 V 6.5979177 C 68.999112,6.4715208 68.974968,6.345124 68.926667,6.2187171 68.878366,6.0923202 68.809372,5.9827796 68.719679,5.8900752 68.636883,5.7889677 68.540289,5.708908 68.429898,5.6499162 68.319503,5.5825111 68.202211,5.5488086 68.07802,5.5487986 h -0.269083 c -0.234587,1e-5 -0.351879,-0.029471 -0.351878,-0.088513 -10e-7,-0.016826 0.0034,-0.037934 0.01035,-0.063223 0.0138,-0.025289 0.02759,-0.050579 0.0414,-0.075868 l 0.496769,-0.9100775 h 2.618386 m -2.463146,5.0180811 c 0.29668,0 0.500217,-0.092694 0.610612,-0.2780832 0.110391,-0.1853788 0.165587,-0.4171147 0.165589,-0.6951978 V 8.2663169 C 68.881813,8.13992 68.785217,8.0219462 68.647228,7.9123956 68.509235,7.802855 68.347096,7.7480846 68.160809,7.7480747 c -0.117294,9.9e-6 -0.227687,0.00797 -0.33118,0.025289 -0.09659,0.016826 -0.182839,0.050579 -0.258733,0.1011175 -0.0759,0.050579 -0.137992,0.1264069 -0.186288,0.2275244 -0.0414,0.092694 -0.06209,0.2191012 -0.06209,0.3792006 -10e-7,0.1432631 0.02415,0.2738716 0.07245,0.3918354 0.04829,0.1179837 0.110392,0.2191012 0.186288,0.3033625 0.08279,0.084231 0.172488,0.1474746 0.269083,0.1896003 0.103493,0.042116 0.206986,0.063223 0.310481,0.063223 m 4.108692,-5.018081 c 0.0414,9.9e-6 0.06209,0.029471 0.06209,0.088513 -10e-7,0.1011275 -0.02415,0.231736 -0.07245,0.3918354 -0.0483,0.1601193 -0.106944,0.3160071 -0.175938,0.4676834 -0.069,0.1516862 -0.141443,0.2865162 -0.217337,0.40448 -0.069,0.1095506 -0.127643,0.164321 -0.175939,0.164321 C 71.662335,5.7426006 71.593343,5.5740681 71.482951,5.4223719 71.372557,5.2707056 71.248365,5.1864343 71.110374,5.1695781 l 0.300132,-0.7584013 h 0.858995 m 3.580877,0 c 0.01378,1e-5 0.02413,0.012645 0.03106,0.037934 0.0065,0.016826 0.01035,0.033752 0.01035,0.050579 0,0.1432631 -0.02413,0.26966 -0.07247,0.3792006 -0.04826,0.1011275 -0.110395,0.1938219 -0.186283,0.2780732 -0.06897,0.075868 -0.151793,0.1390515 -0.248387,0.1896003 -0.0897,0.050579 -0.175939,0.092694 -0.258731,0.1264069 -0.04141,0.016826 -0.07932,0.042116 -0.113845,0.075868 -0.03448,0.033752 -0.05177,0.088513 -0.05177,0.1643209 v 1.0491191 c 0.227688,0.1516862 0.420876,0.3328534 0.579565,0.5435216 0.165586,0.202245 0.31393,0.4213362 0.445024,0.6572738 0.137982,0.2359574 0.269076,0.4803281 0.393274,0.7331218 0.131085,0.2443806 0.275981,0.4803281 0.43467,0.7078426 L 77.133669,9.871712 V 9.416673 c -8e-6,-0.3117757 -0.02071,-0.6488407 -0.06212,-1.0111951 C 77.037072,8.0347104 77.002588,7.6765776 76.968056,7.3310794 76.94735,7.17098 76.919714,6.9898029 76.885263,6.7875579 76.857627,6.5853229 76.823144,6.391511 76.781772,6.2061123 76.747289,6.0207335 76.7093,5.8648456 76.667928,5.7384388 c -0.03448,-0.1263969 -0.06554,-0.1895904 -0.09315,-0.1896003 -0.03448,9.9e-6 -0.06897,0.012645 -0.103491,0.037934 -0.02764,0.025289 -0.04834,0.037934 -0.06212,0.037934 -0.02071,9.9e-6 -0.04484,-0.00398 -0.07247,-0.012645 -0.02071,-0.016826 -0.03106,-0.042116 -0.03106,-0.075868 0,-0.033653 0.01035,-0.063223 0.03106,-0.088513 0.02071,-0.025289 0.03791,-0.046297 0.05177,-0.063223 l 0.693401,-0.8468841 c 0.04141,-0.050579 0.07932,-0.084231 0.113845,-0.1011175 0.04141,-0.016826 0.07247,-0.025289 0.09315,-0.025289 h 0.465721 c 0.06897,9.9e-6 0.103483,0.042116 0.103491,0.1263969 -8e-6,0.016826 -0.01378,0.063223 -0.04141,0.1390415 -0.02071,0.075868 -0.04826,0.1643309 -0.08279,0.2654385 -0.02764,0.1011275 -0.0587,0.2064665 -0.09315,0.3160071 -0.02764,0.1095507 -0.05177,0.2064566 -0.07247,0.2907179 -0.03448,0.1685424 -0.06554,0.3497097 -0.09315,0.5435215 -0.02071,0.1853888 -0.03106,0.3834122 -0.03106,0.5940804 v 3.4886343 c 0.04141,0.08423 0.06212,0.185388 0.06212,0.303362 -8e-6,0.04212 -0.02413,0.08005 -0.07247,0.113762 -0.04141,0.02529 -0.0759,0.03793 -0.103491,0.03793 -0.03448,1e-5 -0.06897,-0.01264 -0.103491,-0.03793 -0.02764,-0.03375 -0.05861,-0.07159 -0.09315,-0.113762 L 74.960192,8.1778839 c 0,0.1348299 -0.02413,0.2991509 -0.07247,0.4929628 -0.04834,0.1938218 -0.124199,0.3792006 -0.22769,0.5561563 C 74.556533,9.4039686 74.425447,9.5556548 74.266758,9.6820417 74.114966,9.8084486 73.932125,9.871652 73.71824,9.871642 73.518151,9.871652 73.342212,9.8295263 73.190423,9.7452451 73.038632,9.6610137 72.91099,9.5472217 72.807497,9.4039686 72.704003,9.2607154 72.624658,9.0963945 72.569462,8.9110057 c -0.0483,-0.1938118 -0.07245,-0.3960469 -0.07245,-0.606715 0,-0.2612269 0.0414,-0.5055975 0.124193,-0.7331219 0.08969,-0.2275144 0.200087,-0.4213263 0.331179,-0.5814456 0.137991,-0.1685225 0.289781,-0.299141 0.455372,-0.3918353 0.165588,-0.092694 0.327727,-0.1390316 0.48642,-0.1390416 0.103494,10e-6 0.200088,0.00797 0.289778,0.025289 0.09659,0.016826 0.179387,0.033752 0.248386,0.050579 0.0759,0.025289 0.148344,0.050579 0.217335,0.075868 0,-0.1179638 -0.02071,-0.2401491 -0.06212,-0.3665559 C 74.546145,6.1176295 74.494412,6.0038772 74.432318,5.9027498 74.370199,5.8016323 74.301224,5.717371 74.225336,5.649946 74.156369,5.582541 74.090785,5.5488385 74.028691,5.5488285 h -0.693403 c -0.234587,10e-6 -0.351879,-0.029471 -0.351878,-0.088513 -1e-6,-0.016826 0.0034,-0.037934 0.01034,-0.063223 0.0138,-0.025289 0.0276,-0.050579 0.0414,-0.075868 L 73.53192,4.411147 h 2.318255 M 74.649647,8.0388224 C 74.573751,7.9292817 74.466812,7.8281642 74.328821,7.7354698 74.197727,7.6427755 73.987288,7.5964283 73.69751,7.5964283 c -0.289783,0 -0.486421,0.042116 -0.589914,0.1263969 -0.103494,0.075868 -0.155241,0.1853987 -0.15524,0.3286419 -10e-7,0.1011274 0.0138,0.2233127 0.0414,0.3665559 0.0276,0.13484 0.0759,0.2654484 0.144892,0.3918453 0.0759,0.1264069 0.172488,0.2359475 0.289781,0.3286419 0.117292,0.084231 0.265632,0.1263969 0.445023,0.1263969 0.144891,0 0.265632,-0.037934 0.362226,-0.1137622 0.103491,-0.075868 0.186284,-0.1685225 0.248387,-0.2780831 0.06212,-0.1179638 0.103491,-0.2401491 0.124189,-0.366556 0.02764,-0.13482 0.04141,-0.2527938 0.04141,-0.3539212 V 8.0388224 m 1.02459,-4.9043189 c -0.0065,-0.042116 -0.01035,-0.1053191 -0.01035,-0.1896003 9e-6,-0.2106482 0.04484,-0.4086816 0.134543,-0.5940803 0.0828,-0.1853689 0.186292,-0.3496898 0.310481,-0.4929529 0.20699,-0.2527938 0.441575,-0.4592404 0.703755,-0.6193597 0.255291,-0.1600994 0.507126,-0.24014909 0.755504,-0.24016901 0.200086,1.992e-5 0.382929,-0.029471 0.548515,-0.0885127 0.158689,-0.067405 0.317386,-0.16431098 0.476074,-0.29071783 0.06212,-0.0505787 0.120741,-0.10954065 0.175939,-0.1769656 0.06212,-0.075868 0.117293,-0.14324317 0.165586,-0.20223503 0.05519,-0.067405 0.103491,-0.12217536 0.144895,-0.16432094 0.04141,-0.05057867 0.0759,-0.0758680001 0.103491,-0.0758680001 0.01378,9.95643e-6 0.02764,0.0168263701 0.04141,0.0505786701 0.01378,0.02528933 0.02071,0.04639697 0.02071,0.06322334 0,0.075868 -0.01728,0.17697556 -0.05177,0.30336249 -0.03448,0.11798371 -0.0828,0.24860213 -0.144895,0.3918453 -0.05519,0.13482999 -0.120741,0.26966001 -0.196637,0.40448001 -0.0759,0.1264069 -0.151792,0.2359575 -0.227688,0.3286319 -0.186284,0.2191112 -0.369128,0.3749991 -0.548515,0.4676835 -0.186283,0.084231 -0.358774,0.1264068 -0.517463,0.1263969 -0.179387,9.9e-6 -0.382929,0.025289 -0.610617,0.075868 -0.234585,0.050579 -0.431222,0.1264168 -0.589911,0.2275243 -0.124189,0.075868 -0.231136,0.1769756 -0.320826,0.3033625 -0.0897,0.1264069 -0.134542,0.2780931 -0.134542,0.4550388 0,0.067405 0.0033,0.1601193 0.01035,0.2780831 0.0065,0.1095506 0.02413,0.2191012 0.05177,0.3286319 0.02071,0.067405 0.03106,0.1222053 0.03106,0.164321 9e-6,0.1011374 -0.05861,0.1516962 -0.175938,0.1516862 -0.03448,1e-5 -0.07247,-0.021108 -0.113836,-0.063223 -0.04141,-0.042116 -0.08625,-0.092694 -0.134543,-0.1516763 C 75.522541,3.8465974 75.477655,3.7875757 75.436259,3.7285739 75.394846,3.6696318 75.360363,3.6232548 75.33276,3.5895323 75.215476,3.437866 75.084382,3.2735451 74.939486,3.0965795 74.787702,2.9112007 74.629013,2.7426682 74.463419,2.590972 74.290929,2.4393057 74.11499,2.3129088 73.935601,2.2117714 73.756216,2.1106638 73.580277,2.0601051 73.407784,2.0600951 c -0.04829,1e-5 -0.08969,0.021108 -0.124193,0.063223 -0.03449,0.042116 -0.06899,0.063223 -0.103493,0.063223 -0.0276,1.99e-5 -0.04829,-0.012645 -0.06209,-0.037934 -0.01379,-0.033653 -0.02069,-0.063223 -0.0207,-0.088513 6e-6,-0.033653 0.02071,-0.1095307 0.06209,-0.2275144 0.0414,-0.1263969 0.0966,-0.2570054 0.165589,-0.3918453 0.0621,-0.1348101 0.134547,-0.2527838 0.217337,-0.3539213 0.0759,-0.10953066 0.151795,-0.16430099 0.227686,-0.1643209 0.165594,1.991e-5 0.320833,0.0590416 0.46572,0.1769656 0.144896,0.1179837 0.282886,0.26966 0.413972,0.4550388 0.124197,0.1769755 0.244938,0.374999 0.362231,0.5940803 0.110395,0.2106781 0.213886,0.4129131 0.310481,0.606715 0.02071,0.033752 0.04484,0.084231 0.07247,0.1516863 l 0.310481,0.6319944 -0.03106,-0.40448 m 4.150089,4.651525 c -0.03448,0.4718951 -0.06212,0.9648579 -0.08279,1.4788785 -0.01378,0.5140306 -0.02764,1.0322729 -0.04141,1.5547169 -0.0065,0.51403 -0.01035,1.028061 -0.01035,1.542082 0,0.505597 0,0.990137 0,1.453599 v 1.263999 c 0,0.05058 -0.0065,0.105339 -0.02071,0.16432 -0.01378,0.05894 -0.04834,0.08851 -0.103491,0.08851 -0.04826,0 -0.0897,-0.02947 -0.124197,-0.08851 -0.02764,-0.05894 -0.04141,-0.113762 -0.04141,-0.16432 v -1.554717 c 0,-1.322981 -0.04484,-2.620692 -0.134542,-3.8931239 -0.08279,-1.2808451 -0.162137,-2.5659117 -0.238033,-3.8551998 0,-0.033653 -0.02071,-0.075868 -0.06212,-0.1263969 -0.04141,-0.058942 -0.103499,-0.088513 -0.186292,-0.088513 h -0.134542 c -0.04826,9.9e-6 -0.07932,0.012645 -0.09314,0.037934 -0.01378,0.016826 -0.03448,0.025289 -0.06212,0.025289 -0.04141,9.9e-6 -0.06897,-0.00797 -0.08279,-0.025289 -0.0065,-0.025289 -0.01035,-0.05476 -0.01035,-0.088513 0,-0.016826 0.01378,-0.042116 0.04141,-0.075868 0.02764,-0.033752 0.05861,-0.071587 0.09315,-0.1137622 l 0.620954,-0.7584013 c 0.0828,-0.1011075 0.144896,-0.1516663 0.186292,-0.1516762 h 0.507118 c 0.0759,9.9e-6 0.113844,0.033752 0.113844,0.1011175 0,0.033752 -0.0065,0.071686 -0.02071,0.1137622 -0.0065,0.033752 -0.01035,0.058942 -0.01035,0.075868 -0.02071,0.1769656 -0.04484,0.3581427 -0.07247,0.5435215 -0.02071,0.1769656 -0.03106,0.3539312 -0.03106,0.5308769 v 2.0097654 0"
     style="font-style:normal;font-variant:normal;font-weight:normal;font-stretch:normal;font-size:13px;font-family:Sans;-inkscape-font-specification:Sans;fill:#000000;fill-opacity:1;stroke:none;stroke-width:0.900921px;stroke-linecap:butt;stroke-linejoin:miter;stroke-opacity:1" /></svg>
