<?xml version="1.0" encoding="UTF-8" standalone="no"?>
<svg
   xmlns:dc="http://purl.org/dc/elements/1.1/"
   xmlns:cc="http://creativecommons.org/ns#"
   xmlns:rdf="http://www.w3.org/1999/02/22-rdf-syntax-ns#"
   xmlns:svg="http://www.w3.org/2000/svg"
   xmlns="http://www.w3.org/2000/svg"
   viewBox="0 0 117.59002 10.78286"
   enable-background="new 0 0 135 155"
   x="0px"
   y="0px"
   version="1.1"
   width="117.59002"
   height="10.78286"
   xml:space="preserve"
   id="svg3857"><defs
     id="defs502" /><metadata
     id="metadata714"><rdf:RDF><cc:Work
         rdf:about=""><dc:format>image/svg+xml</dc:format><dc:type
           rdf:resource="http://purl.org/dc/dcmitype/StillImage" /><dc:title /></cc:Work></rdf:RDF></metadata><path
     d="m 19.95633,8.59321 c -0.51997,0 -0.79364,-0.45156 -0.79364,-1.1084 0,-0.83469 0.34209,-1.1905 0.4926,-1.3136 0.51997,-0.42418 0.97153,-0.69785 1.3683,-0.69785 0.46524,0 0.56102,0.53365 0.56102,0.93047 0,1.1768 -0.69786,2.1894 -1.6283,2.1894 z m 2.7367,-2.5178 c 0,-0.71154 -0.34209,-1.341 -0.98521,-1.341 -0.54734,0 -1.3136,0.30104 -2.2578,1.1084 h -0.02737 c 0.51997,-1.4231 1.0399,-2.0525 1.6283,-2.7093 L 20.7636,2.85984 c -0.1642,0.13683 -0.38314,0.35577 -0.58839,0.35577 -0.51997,0 -1.0263,-0.25999 -1.6831,-0.25999 -0.30104,0 -0.98521,0.20525 -1.5189,1.6831 l 0.3284,0.15052 c 0.31472,-0.60208 0.58839,-1.0126 1.122,-1.0126 0.36945,0 0.72522,0.041 1.0126,0.041 0.2463,0 0.45155,-0.041 0.53366,-0.0547 -0.93048,1.0536 -1.9157,2.7367 -1.9157,3.9408 0,0.88943 0.4926,1.4641 1.3136,1.4641 1.5462,0 3.3251,-1.3683 3.3251,-3.0925 z m -10.527,-1.2999 0.47892,1.3547 -1.2726,1.8746 c -0.15052,0.21893 -0.28735,0.25998 -0.38314,0.25998 -0.10947,0 -0.25999,-0.0274 -0.36945,-0.0821 -0.12315,-0.0547 -0.25999,-0.0821 -0.39682,-0.0821 -0.30104,0 -0.51997,0.21894 -0.51997,0.51997 0,0.35577 0.47892,0.51998 0.79364,0.51998 0.46524,0 0.79364,-0.20526 1.3957,-1.0673 l 0.94416,-1.3547 0.53366,1.6557 c 0.1642,0.54734 0.31472,0.76628 0.77996,0.76628 0.47892,0 1.081,-0.25999 1.5052,-0.97153 -0.05473,-0.12315 -0.17788,-0.23262 -0.3284,-0.25999 -0.35577,0.45156 -0.53366,0.56103 -0.68417,0.56103 -0.12315,0 -0.21894,-0.1642 -0.3284,-0.50629 l -0.73891,-2.203 1.0399,-1.5326 c 0.20525,-0.31472 0.54734,-0.36945 0.64312,-0.36945 0.10947,0 0.28735,0.041 0.4105,0.13683 0.09578,0.0821 0.31472,0.13684 0.45155,0.13684 0.19157,0 0.43787,-0.27367 0.43787,-0.58839 0,-0.34209 -0.36945,-0.54734 -0.68417,-0.54734 -0.68417,0 -1.1357,0.2463 -1.8062,1.2042 L 13.38381,5.18604 13.00067,3.98184 C 12.76805,3.2703 12.61753,2.99663 12.27545,2.99663 c -0.3284,0 -1.3273,0.57471 -1.8062,0.93048 0.01368,0.15051 0.06842,0.31472 0.17788,0.42418 0.1642,-0.0821 0.61576,-0.30103 0.88942,-0.30103 0.17788,0 0.31472,0.0411 0.38314,0.15052 0.06842,0.10946 0.15052,0.34208 0.2463,0.5747 z m -8.0062,0.35577 c -0.21894,0 -0.3284,-0.0137 -0.3284,-0.0821 0,-0.0274 0.01368,-0.0547 0.04105,-0.0958 l 1.9841,-3.4756 h 0.02737 l 0.56102,3.6535 h -2.2851 z m -1.9978,2.7914 1.1494,-1.9841 C 3.40721,5.76069 3.503,5.70596 3.81772,5.70596 h 2.7367 l 0.34209,2.3125 V 8.1553 c 0,0.28735 -0.21894,0.42418 -0.65681,0.45155 l -0.38314,0.0274 c -0.05473,0 -0.10947,0.041 -0.10947,0.10947 L 5.71972,9.0037 5.7334,9.0311 C 6.226,9.0174 6.9649,9.0037 7.4712,9.0037 c 0.53366,0 1.0673,0.0137 1.5462,0.0274 L 9.04477,9.0037 9.07214,8.74372 c 0,-0.0684 -0.04105,-0.10947 -0.10947,-0.10947 L 8.82584,8.62055 C 8.30587,8.56585 8.08693,8.36057 8.00483,7.82691 L 6.74593,0.41051 C 6.70488,0.15052 6.66383,0 6.47226,0 6.28069,0 6.15754,0.12315 5.9386,0.49261 l -4.3103,7.1154 c -0.50629,0.84837 -0.88943,0.98521 -1.4641,1.0263 -0.068417,0 -0.12315,0.041 -0.12315,0.10947 L 0,9.00376 0.013683,9.03116 c 0.4926,-0.0137 0.71154,-0.0274 1.2178,-0.0274 0.53365,0 1.2315,0.0137 1.7104,0.0274 l 0.04105,-0.0274 0.02737,-0.25998 c 0,-0.0684 -0.02737,-0.10947 -0.0821,-0.10947 l -0.36945,-0.0274 c -0.34209,-0.0274 -0.50629,-0.1642 -0.50629,-0.35577 0,-0.0958 0.04105,-0.20525 0.10947,-0.3284 z m 113.09,-4.7941 c -2.3371,0 -2.7051,1.258 -2.7871,1.6543 -0.19134,0.97036 0.7112,1.4492 1.4629,1.4492 l -0.0156,0.041 c -0.39633,0.0683 -0.91418,0.39473 -1.2559,0.95508 -0.31434,0.50568 -0.92982,1.3672 -1.2988,1.4082 l -0.12306,0.0137 c -0.0547,0 -0.13673,0.0137 -0.15039,0.10937 l -0.0547,0.25977 0.041,0.0273 0.86133,-0.0137 c 0.43734,-0.0137 0.99818,-0.56078 1.3809,-1.2305 0.50568,-0.88836 0.99629,-1.4609 1.543,-1.4609 h 0.34179 l -0.32812,1.625 c -0.0957,0.53301 -0.15055,0.64258 -0.60156,0.66992 l -0.21875,0.0137 c -0.0547,0 -0.082,0.041 -0.0957,0.0957 l -0.0547,0.30078 c 0,0 0.77947,-0.0273 1.2715,-0.0273 0.47835,0 1.2441,0.0273 1.2441,0.0273 l 0.0547,-0.27344 c 0,-0.0273 -0.0137,-0.12304 -0.12305,-0.12304 l -0.28711,-0.0137 c -0.21867,-0.0137 -0.2324,-0.31458 -0.16406,-0.66992 l 0.80664,-4.0039 c 0.0547,-0.28702 0.17782,-0.39649 0.42383,-0.41016 l 0.3418,-0.0273 c 0.0273,0 0.0547,-0.0137 0.0547,-0.041 l 0.0684,-0.32813 -0.0273,-0.0273 c 0,0 -0.72477,0.0273 -1.1894,0.0273 -0.43735,0 -0.0824,-0.0273 -1.1211,-0.0273 z m -0.12306,0.39649 c 0.53302,0 0.62888,0.0549 0.53321,0.49218 l -0.36914,1.8594 h -0.91602 c -0.77902,0 -0.99604,-0.56079 -0.85937,-1.2441 0.13667,-0.64235 0.43596,-1.1074 1.6113,-1.1074 z m -9.022,-0.36875 c -0.58768,0 -1.4897,-0.0273 -1.4897,-0.0273 l -0.041,0.0273 -0.0683,0.30067 c 0,0.0547 0.0137,0.0683 0.0683,0.0683 l 0.41001,0.0273 c 0.49202,0.041 0.51935,0.15034 0.39635,0.72436 l -0.73803,3.6901 c -0.0957,0.47834 -0.164,0.62868 -0.66968,0.65602 l -0.43735,0.0273 c -0.041,0.0137 -0.0683,0.0273 -0.082,0.0683 l -0.0547,0.30067 0.0137,0.0273 c 0.54668,-0.0137 0.92936,-0.0273 1.517,-0.0273 0.43734,0 0.56036,0.0137 1.107,0.0273 l 0.0137,-0.0273 0.0547,-0.287 c 0.0137,-0.0547 -0.0137,-0.0683 -0.0683,-0.082 -0.45102,-0.041 -0.46468,-0.19134 -0.39635,-0.51935 v -0.0273 l 3.4988,-3.3894 -0.64234,3.2254 c -0.0957,0.47834 -0.19134,0.65601 -0.69702,0.68335 l -0.43735,0.0273 c -0.041,0.0137 -0.0683,0.0273 -0.082,0.0683 l -0.0547,0.30067 0.0273,0.0273 c 0.54668,-0.0137 0.91569,-0.0273 1.5034,-0.0273 0.61502,0 1.025,0.0137 1.5717,0.0273 l 0.0137,-0.0273 0.0547,-0.287 c 0.0137,-0.0547 -0.0137,-0.0683 -0.0683,-0.082 l -0.39635,-0.0273 c -0.47834,-0.0273 -0.51935,-0.17768 -0.41001,-0.68335 l 0.73802,-3.6764 c 0.10934,-0.57402 0.16401,-0.66968 0.68336,-0.71069 l 0.41001,-0.0273 c 0.0547,0 0.0957,-0.0273 0.10933,-0.082 l 0.0547,-0.28701 -0.0137,-0.0273 c 0,0 -0.9567,0.0273 -1.5717,0.0273 -0.38268,0 -0.99769,-0.0273 -0.99769,-0.0273 l -0.0273,0.0273 -0.0683,0.30067 c 0,0.0547 0.0137,0.0683 0.0547,0.0683 0.46469,0.041 0.42368,0.27334 0.36902,0.60135 l -3.4988,3.3894 0.65602,-3.2528 c 0.10934,-0.56035 0.16401,-0.66968 0.69702,-0.71069 l 0.41002,-0.0273 c 0.0547,0 0.0957,-0.0273 0.10933,-0.082 l 0.0547,-0.28701 -0.0273,-0.0273 c 0,0 -0.9567,0.0273 -1.558,0.0273 m -7.7614,-0.0276 -0.041,0.0273 -0.0684,0.30079 c 0,0.0547 0.0273,0.0684 0.082,0.0684 l 0.36914,0.0273 c 0.46468,0.041 0.49218,0.31451 0.46484,0.47851 -0.32801,1.6264 -0.83415,2.8696 -1.3125,4.0312 -0.15033,0.36901 -0.56067,0.5469 -0.92968,0.5879 -0.19134,0.0273 -0.36918,0.0548 -0.4375,0.30078 l -0.44922,1.8184 0.35351,0.0137 c 0.21867,-0.50568 0.82071,-1.7637 1.9688,-1.7637 h 2.2148 c 1.1344,0 1.2832,1.2033 1.2832,1.75 h 0.3418 l 0.28711,-1.832 c 0.041,-0.19134 -0.0411,-0.23243 -0.28711,-0.2871 -0.21867,-0.041 -0.50583,-0.16426 -0.41016,-0.66993 l 0.76562,-3.7852 c 0.082,-0.46468 0.24628,-0.57424 0.75196,-0.64258 l 0.23242,-0.0273 c 0.041,0 0.10938,-0.041 0.12305,-0.0957 l 0.0547,-0.27344 -0.0137,-0.0273 c 0,0 -0.9982,0.0273 -1.4492,0.0273 h -2.5957 c -0.23234,0 -1.2988,-0.0273 -1.2988,-0.0273 z m 1.75,0.54688 h 0.9707 c 0.5057,0 0.50583,0.20524 0.41016,0.66992 l -0.68359,3.4707 c -0.0957,0.45101 -0.17792,0.66992 -0.6836,0.66992 h -1.627 c -0.13667,0 -0.25976,-0.0138 -0.23242,-0.16406 0.0547,-0.23234 0.5745,-1.1749 1.3945,-4.291 0.0137,-0.0547 0.13683,-0.35546 0.45117,-0.35546 z m -15.468,0.54689 -0.75169,3.7584 C 83.78053,8.45909 83.67119,8.59576 83.19285,8.6231 l -0.42368,0.0273 c -0.05467,0.0137 -0.082,0.0273 -0.09567,0.0683 l -0.05467,0.30067 0.02733,0.0273 c 0,0 0.92936,-0.0273 1.5307,-0.0273 0.57402,0 1.4897,0.0273 1.4897,0.0273 l 0.01367,-0.0273 0.05467,-0.287 c 0.01367,-0.0547 -0.01367,-0.0683 -0.05467,-0.082 L 85.32489,8.62307 C 84.86021,8.59577 84.80554,8.50006 84.90121,7.98072 L 85.6529,4.22232 C 85.74857,3.74397 86.03558,3.6893 86.32259,3.6893 h 1.6537 c 0.27334,0 0.56035,0.0273 0.45101,0.53302 l -0.75169,3.7584 C 87.57994,8.45906 87.4706,8.59573 86.99226,8.62307 l -0.38268,0.0273 c -0.041,0.0137 -0.06834,0.0273 -0.082,0.0683 l -0.05467,0.30067 0.01367,0.0273 c 0,0 0.91569,-0.0273 1.5034,-0.0273 0.58768,0 1.5307,0.0273 1.5307,0.0273 l 0.01367,-0.0273 0.05467,-0.287 c 0.01367,-0.0547 -0.01367,-0.0683 -0.06834,-0.082 L 89.12434,8.62304 C 88.64599,8.59574 88.59132,8.50003 88.68699,7.98069 l 0.75169,-3.7721 c 0.123,-0.56035 0.164,-0.61501 0.69702,-0.65602 l 0.41001,-0.0273 c 0.05467,0 0.09567,-0.0273 0.10934,-0.082 l 0.05467,-0.28701 -0.01367,-0.0273 c 0,0 -0.9567,0.0273 -1.5717,0.0273 h -3.7858 c -0.58768,0 -1.5034,-0.0273 -1.5034,-0.0273 l -0.02733,0.0273 -0.06834,0.30067 c 0,0.0547 0.01367,0.0683 0.05467,0.0683 l 0.41001,0.0273 c 0.46468,0.041 0.54668,0.0957 0.42368,0.66969 m -4.6319,-1.203 c -1.8451,0 -3.1974,1.4635 -3.5391,3.1992 -0.27334,1.394 0.35419,2.9375 2.2812,2.9375 2.0364,0 3.2403,-1.6938 3.5137,-3.0605 0.28701,-1.4214 -0.13747,-3.0762 -2.2559,-3.0762 z m -0.24609,0.45117 c 1.1754,0 1.6405,1.0534 1.2305,3.0625 -0.35534,1.804 -1.258,2.1719 -1.9004,2.1719 -1.4214,0 -1.5995,-1.7484 -1.3809,-2.8008 0.23234,-1.189 0.90275,-2.4336 2.0508,-2.4336 z m -11.097,4.9204 c -0.082,0.42367 0.20501,0.79269 0.80636,0.79269 0.65602,0 1.0934,-0.34168 1.5444,-1.0934 0.38268,-0.65602 0.73802,-2.0501 0.91569,-2.9794 0.21867,-1.066 0.32801,-1.4214 0.84736,-1.4214 h 0.61502 c 0.49202,0 0.50568,0.19134 0.41001,0.65602 l -0.72436,3.6628 c -0.082,0.39634 -0.21867,0.56035 -0.71069,0.61502 l -0.27334,0.0273 c -0.06834,0.0137 -0.10934,0.041 -0.123,0.10934 l -0.05467,0.25967 0.02733,0.0273 c 0,0 0.92936,-0.0273 1.4214,-0.0273 0.53302,0 1.4624,0.0273 1.4624,0.0273 l 0.02733,-0.0273 0.05467,-0.25967 c 0.01367,-0.0683 -0.041,-0.10934 -0.09567,-0.10934 L 74.55708,8.62312 C 74.11973,8.58212 74.0104,8.40444 74.0924,8.0081 L 74.85776,4.195 C 74.95343,3.67565 75.0081,3.59365 75.54111,3.55264 l 0.38268,-0.0273 c 0.082,0 0.123,-0.0273 0.13667,-0.0957 L 76.11513,3.1563 76.07413,3.129 c 0,0 -0.92936,0.0273 -1.517,0.0273 h -2.3781 c -0.54668,0 -1.4077,-0.0273 -1.4077,-0.0273 l -0.041,0.0273 -0.041,0.21867 c -0.02733,0.12301 0.02733,0.13667 0.24601,0.15034 0.76536,0.0547 0.76536,0.24601 0.47835,1.681 -0.28701,1.43499 -0.54668,2.1867 -0.83369,2.7471 -0.27334,0.49201 -0.51935,0.66969 -0.73802,0.66969 -0.164,0 -0.20501,-0.10934 -0.19134,-0.28701 0.01367,-0.24601 0,-0.51935 -0.36901,-0.51935 -0.32801,0 -0.56035,0.27334 -0.62868,0.57402 m -6.2535,0.62868 0.02733,0.0273 c 0,0 0.92936,-0.0273 1.4077,-0.0273 0.53302,0 1.3257,0.0273 1.3257,0.0273 l 0.02734,-0.0273 0.05467,-0.25967 c 0.01367,-0.0683 -0.041,-0.0957 -0.09567,-0.10934 -0.28701,-0.041 -0.68335,-0.123 -0.58768,-0.57401 l 0.38268,-1.9134 c 1.0114,0.0683 1.2164,0.56035 1.3257,1.312 0.082,0.60135 0.31435,1.5444 0.9977,1.558 l 0.98403,0.0137 0.041,-0.0273 0.05467,-0.246 c 0.01367,-0.0957 -0.082,-0.12301 -0.13667,-0.12301 L 68.11228,8.63671 C 67.63394,8.56841 67.30592,7.37931 67.19659,6.86001 67.04625,6.19032 66.60891,5.88964 65.87089,5.88964 l 0.01367,-0.0547 c 0.53302,-0.15034 0.94303,-0.61503 1.2574,-1.1617 0.23234,-0.42368 0.54668,-0.72435 0.68335,-0.72435 0.123,0 0.21867,0.041 0.28701,0.0957 0.082,0.0683 0.19134,0.123 0.35534,0.123 0.28701,0 0.57402,-0.24601 0.62868,-0.51935 0.05467,-0.32801 -0.02733,-0.61502 -0.58768,-0.61502 -0.65602,0 -1.2437,0.73803 -1.6264,1.3804 -0.45101,0.75169 -0.92936,1.271 -1.8451,1.271 l 0.31434,-1.558 c 0.09567,-0.49201 0.39634,-0.56035 0.79269,-0.60135 0.05467,0 0.123,-0.0683 0.13667,-0.13667 L 66.33553,3.15626 66.3082,3.12896 c 0,0 -0.76536,0.0273 -1.2984,0.0273 -0.47834,0 -1.4077,-0.0273 -1.4077,-0.0273 l -0.02733,0.0273 -0.05467,0.25967 c -0.01367,0.0683 0.02733,0.0957 0.082,0.10934 l 0.25967,0.0273 c 0.42368,0.041 0.53302,0.21868 0.45101,0.60136 l -0.77902,3.8951 c -0.06834,0.38268 -0.19134,0.51935 -0.68335,0.57402 l -0.27334,0.0273 c -0.06833,0.0137 -0.10934,0.041 -0.123,0.10934 L 62.3994,9.01936 m -5.1685,-5.8631 c -0.58768,0 -1.4897,-0.0273 -1.4897,-0.0273 l -0.041,0.0273 -0.06833,0.30067 c 0,0.0547 0.01367,0.0683 0.06833,0.0683 l 0.41001,0.0273 c 0.49202,0.041 0.51935,0.15034 0.39635,0.72436 l -0.73802,3.6901 c -0.09567,0.47834 -0.16401,0.62868 -0.66969,0.65602 l -0.43735,0.0273 c -0.041,0.0137 -0.06834,0.0273 -0.082,0.0683 l -0.05467,0.30067 0.01367,0.0273 c 0.54668,-0.0137 0.92936,-0.0273 1.517,-0.0273 0.43735,0 0.56035,0.0137 1.107,0.0273 l 0.01367,-0.0273 0.05467,-0.287 c 0.01367,-0.0547 -0.01367,-0.0683 -0.06834,-0.082 -0.45101,-0.041 -0.46468,-0.19134 -0.39634,-0.51935 v -0.0273 l 3.4988,-3.3894 -0.64235,3.2254 c -0.09567,0.47834 -0.19134,0.65601 -0.69702,0.68335 l -0.43735,0.0273 c -0.041,0.0137 -0.06834,0.0273 -0.082,0.0683 l -0.05467,0.30067 0.02733,0.0273 c 0.54668,-0.0137 0.9157,-0.0273 1.5034,-0.0273 0.61502,0 1.025,0.0137 1.5717,0.0273 l 0.01367,-0.0273 0.05467,-0.287 C 61.53601,8.67755 61.50867,8.66395 61.454,8.65025 L 61.05765,8.62295 C 60.5793,8.59565 60.5383,8.44527 60.64764,7.9396 l 0.73802,-3.6764 c 0.10934,-0.57402 0.164,-0.66968 0.68335,-0.71069 l 0.41001,-0.0273 c 0.05467,0 0.09567,-0.0273 0.10934,-0.082 L 62.64303,3.1562 62.62936,3.1289 c 0,0 -0.9567,0.0273 -1.5717,0.0273 -0.38268,0 -0.9977,-0.0273 -0.9977,-0.0273 l -0.02733,0.0273 -0.06834,0.30067 c 0,0.0547 0.01367,0.0683 0.05467,0.0683 0.46468,0.041 0.42368,0.27334 0.36901,0.60135 l -3.4988,3.3894 0.65602,-3.2528 C 57.65453,3.70277 57.7092,3.59344 58.24221,3.55243 l 0.41001,-0.0273 c 0.05467,0 0.09567,-0.0273 0.10934,-0.082 l 0.05467,-0.28701 -0.02734,-0.0273 c 0,0 -0.9567,0.0273 -1.558,0.0273 m -4.6022,1.0525 -0.71069,3.6081 C 51.82233,8.2814 51.74033,8.48641 51.23465,8.48641 h -1.64 c -0.47835,0 -0.51935,-0.16401 -0.41001,-0.66969 L 49.909,4.19492 c 0.10934,-0.56035 0.19134,-0.58769 0.66969,-0.64236 l 0.28701,-0.0273 c 0.05467,0 0.09567,-0.0273 0.10934,-0.082 l 0.05467,-0.28701 -0.02734,-0.0273 c 0,0 -0.87469,0.0273 -1.4214,0.0273 -0.57402,0 -1.4624,-0.0273 -1.4624,-0.0273 l -0.01367,0.0273 -0.06833,0.30067 c 0,0.0547 0.01367,0.0683 0.06833,0.0683 l 0.35534,0.0273 c 0.45101,0.041 0.51935,0.12301 0.42368,0.64236 l -0.76536,3.8268 c -0.10934,0.53301 -0.19134,0.54668 -0.66969,0.60135 l -0.24601,0.0273 c -0.041,0.0137 -0.06834,0.0273 -0.082,0.082 l -0.05467,0.287 0.02734,0.0273 c 0,0 0.86103,-0.0273 1.271,-0.0273 h 3.3211 c 1.0797,0 1.271,1.0934 1.2847,1.7631 l 0.34168,-0.0137 0.28701,-1.8177 C 53.62635,8.71869 53.48968,8.69135 53.25734,8.65035 53.025,8.60935 52.81999,8.39068 52.902,7.98067 l 0.75169,-3.7721 c 0.123,-0.56035 0.21867,-0.61501 0.69702,-0.65602 l 0.34168,-0.0273 c 0.05467,0 0.09567,-0.0273 0.09567,-0.0683 L 54.8564,3.15628 54.82907,3.12898 c 0,0 -0.90203,0.0273 -1.476,0.0273 -0.54668,0 -1.394,-0.0273 -1.394,-0.0273 l -0.01367,0.0273 -0.06834,0.30067 c 0,0.0547 0.01367,0.0683 0.05467,0.0683 l 0.28701,0.0273 c 0.45101,0.0547 0.51935,0.12301 0.41001,0.65602 m -8.2637,3.7586 C 44.26938,8.48651 44.17371,8.59585 43.6817,8.62319 l -0.36901,0.0273 c -0.041,0.0137 -0.06833,0.0273 -0.082,0.0683 l -0.05467,0.30067 0.01367,0.0273 c 0.41001,-0.0137 0.98403,-0.0273 1.476,-0.0273 0.50568,0 0.9977,0.0137 1.4077,0.0273 l 0.02733,-0.0273 0.05467,-0.287 c 0.01367,-0.0547 -0.01367,-0.0683 -0.06833,-0.082 L 45.82738,8.62316 C 45.3627,8.58216 45.2807,8.51382 45.39003,7.96714 l 0.76536,-3.7721 C 46.26473,3.63469 46.3604,3.60735 46.83874,3.55268 l 0.27334,-0.0273 c 0.05467,0 0.09567,-0.0273 0.10934,-0.082 l 0.05467,-0.28701 -0.01367,-0.0273 c -0.41001,0.0137 -0.9157,0.0273 -1.4214,0.0273 -0.49201,0 -1.0524,-0.0137 -1.4624,-0.0273 l -0.02733,0.0273 -0.06834,0.30067 c 0,0.0547 0.01367,0.0683 0.05467,0.0683 l 0.35534,0.0273 c 0.42368,0.041 0.53302,0.12301 0.43735,0.64236 l -0.30068,1.4624 h -2.8018 L 42.32851,4.195 c 0.10934,-0.56035 0.20501,-0.58769 0.68335,-0.64236 l 0.27334,-0.0273 c 0.05467,0 0.09567,-0.0273 0.10934,-0.082 l 0.05467,-0.28701 -0.01367,-0.0273 c -0.41001,0.0137 -0.92936,0.0273 -1.435,0.0273 -0.49202,0 -1.0387,-0.0137 -1.4487,-0.0273 L 40.52451,3.15633 40.45617,3.457 c 0,0.0547 0.01367,0.0683 0.05467,0.0683 l 0.35534,0.0273 c 0.42368,0.041 0.53302,0.12301 0.43735,0.64236 l -0.76536,3.7721 C 40.4425,8.4864 40.34683,8.59574 39.85482,8.62308 l -0.36901,0.0273 c -0.041,0.0137 -0.06834,0.0273 -0.082,0.0683 l -0.05467,0.30067 0.01367,0.0273 c 0.41001,-0.0137 0.97036,-0.0273 1.4624,-0.0273 0.50568,0 1.0114,0.0137 1.4214,0.0273 l 0.02733,-0.0273 0.05467,-0.287 c 0.01367,-0.0547 -0.01367,-0.0683 -0.06834,-0.082 L 42.0006,8.62305 C 41.53592,8.58205 41.45392,8.51371 41.56325,7.96703 l 0.36901,-1.8451 h 2.8018 l -0.36901,1.8451 m -10.642,-0.0682 c -0.13667,0.72436 0.72436,1.2574 1.9681,1.2574 1.353,0 2.9111,-0.95669 3.3484,-3.1571 0.32801,-1.6537 -0.17767,-2.9794 -1.9954,-2.9794 -0.64235,0 -1.2437,0.21867 -1.9271,0.25967 -0.15034,0.51935 -0.30068,0.98403 -0.57402,1.64 l 0.32801,0.0547 c 0.41001,-0.87469 0.97036,-1.5307 1.9817,-1.5307 1.2164,0 1.3804,1.1754 1.1344,2.4327 l -0.041,0.0273 C 37.6318,5.68473 37.29012,5.52072 36.89374,5.52072 c -0.58768,0 -1.025,0.38268 -1.5034,0.38268 -0.17767,0 -0.32801,-0.082 -0.42368,-0.082 -0.082,0 -0.13667,0.13667 -0.15034,0.19134 -0.041,0.19134 0.54668,0.43734 1.1344,0.43734 0.61502,0 0.91569,-0.30067 1.435,-0.30067 0.17767,0 0.34168,0.0547 0.49202,0.123 -0.32801,1.6264 -1.0934,2.4327 -2.2414,2.4327 -0.54668,0 -0.86103,-0.32801 -0.94303,-0.69702 -0.123,-0.42368 -0.25968,-0.50568 -0.49202,-0.50568 -0.24601,0 -0.42368,0.17767 -0.47835,0.39634 m 60.642,-4.8522 c -1.189,0 -2.9513,1.1355 -3.375,3.2129 -0.15034,0.76536 -0.10925,1.5021 0.24609,2.0215 0.35535,0.54668 0.92809,0.875 1.9121,0.875 1.0387,0 1.8733,-0.47877 2.5566,-1.1894 -0.0137,-0.13667 -0.0821,-0.20509 -0.23242,-0.21875 -0.61503,0.51934 -1.053,0.73828 -1.8457,0.73828 -0.49201,0 -1.0118,-0.28735 -1.2988,-0.98437 -0.17767,-0.45101 -0.21869,-1.0784 -0.0547,-1.8711 l 3.623,0.0273 c 0.164,0 0.27346,-0.0821 0.31446,-0.23242 0.21867,-1.148 0.054,-2.3789 -1.8457,-2.3789 z m -0.082,0.45117 c 0.51935,0 1.08,0.28751 0.84766,1.4356 -0.0273,0.123 -0.0958,0.1914 -0.2461,0.1914 l -2.4883,0.041 c 0.57402,-1.5444 1.5587,-1.668 1.8867,-1.668 z m -67.411,-0.47851 c -1.1207,0 -2.418,0.77955 -2.5547,1.5176 -0.06834,0.32801 0.06847,0.47852 0.38281,0.47852 0.39634,0 0.65626,-0.2735 0.68359,-0.45117 0.02733,-0.0957 0.02733,-0.19143 0.01367,-0.2461 -0.01367,-0.041 1.4e-5,-0.12309 0.02734,-0.27343 0.082,-0.42368 0.72284,-0.57422 1.2422,-0.57422 0.46468,0 1.0663,0.23296 0.75195,1.7773 -0.01367,0.0957 -0.06838,0.15039 -0.10938,0.16406 l -1.2305,0.28711 c -1.3804,0.32801 -2.4727,1.0511 -2.6504,1.9805 -0.21867,1.0797 0.46518,1.4766 1.4219,1.4766 0.62868,0 0.9143,-0.10954 1.5977,-0.57421 l 0.32812,-0.21875 h 0.02734 c 0.01367,0.28701 0.15065,0.79296 0.88867,0.79296 0.66969,0 1.2715,-0.5469 1.2852,-0.61523 0.01367,-0.0957 -0.08205,-0.23242 -0.13672,-0.23242 -0.082,0 -0.17783,0.21875 -0.46484,0.21875 -0.53302,0 -0.43746,-0.53343 -0.31445,-1.1621 l 0.41016,-2.0352 c 0.38268,-1.9407 -0.60191,-2.3105 -1.5996,-2.3105 z m 0.4375,2.8164 -0.36914,1.8164 c -0.041,0.17767 -0.13676,0.27347 -0.25977,0.35547 -0.41001,0.28701 -0.94154,0.58789 -1.3242,0.58789 -0.68335,0 -0.87497,-0.54703 -0.79297,-0.97071 0.123,-0.61502 0.53162,-1.2286 1.5977,-1.502 l 1.1484,-0.28711 z"
     fill="#1a1a1a"
     id="The_Free_Encyclopedia" /></svg>
