<?xml version="1.0" encoding="UTF-8" standalone="no"?>
<svg
   xmlns:dc="http://purl.org/dc/elements/1.1/"
   xmlns:cc="http://creativecommons.org/ns#"
   xmlns:rdf="http://www.w3.org/1999/02/22-rdf-syntax-ns#"
   xmlns:svg="http://www.w3.org/2000/svg"
   xmlns="http://www.w3.org/2000/svg"
   xml:space="preserve"
   enable-background="new 0 0 135 155"
   viewBox="0 0 128.7 10.078914"
   height="10.078914"
   width="128.7"
   y="0px"
   x="0px"
   id="svg3857"
   version="1.1"><metadata
     id="metadata698"><rdf:RDF><cc:Work
         rdf:about=""><dc:format>image/svg+xml</dc:format><dc:type
           rdf:resource="http://purl.org/dc/dcmitype/StillImage" /></cc:Work></rdf:RDF></metadata><defs
     id="defs3" /><path
     id="tagline"
     d="M 1.9005644,6.6223637 V 1.4429216 c 0,-0.376882 0.376883,-0.52763541 0.904518,-0.52763541 2.325901,0 3.0904363,1.88441381 3.0904363,3.54269521 0,2.1751481 -1.302938,2.7135539 -2.8212345,2.7135539 -1.0552699,0 -1.1737198,-0.2045934 -1.1737198,-0.5491716 M 1.4375374,0.57070792 c -0.53840301,0 -0.85067814,-0.0107681 -1.38908114,-0.0215361 -0.06460836,0.0646084 -0.06460836,0.29073799 0,0.35534634 0.75376421,0.0323042 0.93682216,0.0861455 0.93682216,0.97989434 v 4.3179964 c 0,0.8937491 -0.18305795,0.9475903 -0.93682216,0.9798945 -0.06460836,0.064608 -0.06460836,0.2907379 0,0.3553463 0.52763495,-0.010768 0.85067815,-0.021536 1.39984924,-0.021536 0.3984182,0 0.8506787,0.021536 1.9597889,0.021536 1.5182965,0 3.5211591,-0.6891588 3.5211591,-3.338102 0,-2.0028589 -1.6475169,-3.65037588 -3.7149844,-3.65037588 -0.6891559,0 -1.3567773,0.0215361 -1.7767317,0.0215361 M 9.5064678,7.6237943 c 0.4199547,0 0.8614462,-0.2153614 1.3890812,-0.6460843 0.04307,-0.043072 0.129217,-0.064608 0.129217,0.010768 0,0.2584337 0.118449,0.6353162 0.118449,0.6353162 0.07538,0.032304 0.118448,0.032304 0.204593,0 0.236897,-0.1938253 0.646085,-0.3553464 1.302936,-0.4307229 0.06461,-0.064608 0.06461,-0.2261295 0,-0.2907379 C 11.961589,6.8484934 11.864675,6.643899 11.864675,6.1162642 V 4.0487947 c 0,-0.3230413 0.04307,-1.0983432 0.04307,-1.0983432 0,-0.043072 -0.0323,-0.075376 -0.08615,-0.075376 -0.05384,0.010768 -0.215361,0.021536 -0.376882,0.021536 -0.344578,0 -0.699925,-0.010768 -1.098344,-0.021536 -0.06461,0.064608 -0.06461,0.2907379 0,0.3553464 0.527636,0.032304 0.667621,0.1615218 0.667621,0.8722137 v 2.0782377 c 0,0.2045933 -0.02154,0.2907379 -0.172289,0.4199547 -0.398418,0.3445783 -0.742997,0.5168674 -1.0121991,0.5168674 -0.3230414,0 -0.8614457,-0.1507537 -0.8614457,-1.1091113 V 4.0487947 c 0,-0.3230413 0.043072,-1.0983432 0.043072,-1.0983432 0,-0.043072 -0.032304,-0.075376 -0.086145,-0.075376 -0.05384,0.010768 -0.2153614,0.021536 -0.3768824,0.021536 -0.3445776,0 -0.6999249,-0.010768 -1.0983431,-0.021536 -0.064608,0.064608 -0.064608,0.2907379 0,0.3553464 0.5168672,0.043072 0.6676202,0.1615218 0.6676202,0.8614456 v 2.0674696 c 0,0.7429962 0.3230437,1.4644577 1.3890812,1.4644577 M 13.679712,4.1026351 v 2.0997738 c 0,0.8937491 -0.129217,0.9368222 -0.796837,0.9798945 -0.06461,0.064608 -0.06461,0.2907379 0,0.3553463 0.452259,-0.010768 0.796838,-0.021536 1.22756,-0.021536 0.441491,0 0.83991,0.010768 1.302937,0.021536 0.06461,-0.064608 0.06461,-0.2907379 0,-0.3553463 C 14.659607,7.128463 14.53039,7.096158 14.53039,6.2024089 V 4.7056471 c 0,-0.2799691 0.129217,-0.5276355 0.258433,-0.7214608 0.118449,-0.1722891 0.366115,-0.5276355 0.495332,-0.5276355 0.07538,0 0.161521,0.010768 0.226129,0.075376 0.107681,0.1076807 0.215362,0.3122741 0.441491,0.3122741 0.258434,0 0.506099,-0.2692018 0.506099,-0.5384036 0,-0.2045933 -0.193825,-0.5168674 -0.646084,-0.5168674 -0.506098,0 -0.94759,0.4737959 -1.195256,0.8937499 -0.06461,0.1184488 -0.09691,0.064609 -0.09691,0.010768 0,-0.3445775 0.05384,-0.8614457 0.05384,-0.8614457 0,-0.043072 -0.05384,-0.075376 -0.139985,-0.075376 -0.301505,0.1184488 -0.732229,0.2153615 -1.475226,0.3122741 -0.02154,0.064608 -0.02154,0.2368975 0.02154,0.301506 0.581475,0.05384 0.699924,0.1399856 0.699924,0.7322288 m 5.849867,0.9045179 v 1.4321535 c 0,0.1399849 -0.06461,0.2153614 -0.150753,0.2799698 -0.279969,0.2261295 -0.646084,0.4630271 -0.94759,0.4630271 -0.538403,0 -0.775302,-0.4307229 -0.775302,-0.7645331 0,-0.4845624 0.226131,-0.9691263 1.022967,-1.1844878 L 19.529579,5.007153 m 0,1.9920932 c 0.06461,0.2261294 0.247666,0.6245481 0.829141,0.6245481 0.527636,0 0.915286,-0.4307229 0.915286,-0.4845632 0,-0.075376 -0.09691,-0.1830572 -0.139985,-0.1830572 -0.06461,0 -0.10768,0.1722891 -0.33381,0.1722891 -0.419954,0 -0.430723,-0.4199555 -0.430723,-0.915286 V 4.6087344 c 0,-1.5290645 -0.83991,-1.819804 -1.625978,-1.819804 -0.882981,0 -1.776732,0.6137808 -1.776732,1.1952559 0,0.2584337 0.129218,0.3768825 0.376882,0.3768825 0.312274,0 0.473796,-0.2153614 0.473796,-0.3553463 0,-0.075376 -0.01077,-0.150753 -0.03231,-0.1938253 -0.01077,-0.032304 -0.02154,-0.096913 -0.02154,-0.2153614 0,-0.3338095 0.484564,-0.452259 0.89375,-0.452259 0.366115,0 0.872214,0.1830587 0.872214,1.3998492 0,0.075376 -0.0323,0.1184488 -0.06461,0.1292168 l -0.926054,0.2261295 c -1.033733,0.2584337 -1.776731,0.8291422 -1.776731,1.5613703 0,0.8506769 0.603012,1.1629517 1.356777,1.1629517 0.495331,0 0.699925,-0.086145 1.173719,-0.452259 l 0.215362,-0.1722891 h 0.02154 M 24.09258,4.1026351 v 2.0997738 c 0,0.8937491 -0.129217,0.9368222 -0.796837,0.9798945 -0.06461,0.064608 -0.06461,0.2907379 0,0.3553463 0.452259,-0.010768 0.796838,-0.021536 1.22756,-0.021536 0.441491,0 0.83991,0.010768 1.302937,0.021536 0.06461,-0.064608 0.06461,-0.2907379 0,-0.3553463 C 25.072481,7.128463 24.943264,7.096158 24.943264,6.2024089 V 4.7056471 c 0,-0.2799691 0.129217,-0.5276355 0.258434,-0.7214608 0.118448,-0.1722891 0.366114,-0.5276355 0.495331,-0.5276355 0.07538,0 0.161521,0.010768 0.226129,0.075376 0.107681,0.1076807 0.215362,0.3122741 0.441491,0.3122741 0.258434,0 0.5061,-0.2692018 0.5061,-0.5384036 0,-0.2045933 -0.193826,-0.5168674 -0.646085,-0.5168674 -0.506098,0 -0.94759,0.4737959 -1.195256,0.8937499 -0.06461,0.1184488 -0.09691,0.064609 -0.09691,0.010768 0,-0.3445775 0.05384,-0.8614457 0.05384,-0.8614457 0,-0.043072 -0.05384,-0.075376 -0.139985,-0.075376 -0.301505,0.1184488 -0.732229,0.2153615 -1.475225,0.3122741 -0.02154,0.064608 -0.02154,0.2368975 0.02154,0.301506 0.581475,0.05384 0.699924,0.1399856 0.699924,0.7322288 m 3.945937,0.3768825 c 0.204594,-1.2167905 0.958359,-1.3137047 1.216792,-1.3137047 0.409187,0 0.89375,0.2261303 0.89375,1.1306475 0,0.096913 -0.04307,0.150753 -0.161521,0.150753 l -1.949021,0.032304 m 2.821235,2.0351654 c -0.398418,0.4091867 -0.710693,0.5814758 -1.335241,0.5814758 -0.38765,0 -0.839909,-0.2261302 -1.17372,-0.7753011 C 28.135437,5.9655121 28.006219,5.4701793 28.006219,4.845632 l 2.864307,0.021536 c 0.129217,0 0.204593,-0.064608 0.204593,-0.1830572 0,-0.9045172 -0.323043,-1.8736443 -1.819804,-1.8736443 -0.936821,0 -2.153614,0.8937514 -2.153614,2.5304966 0,0.6030113 0.150754,1.1844886 0.5061,1.5936745 0.366114,0.4307229 0.872214,0.6891566 1.647514,0.6891566 0.818373,0 1.39985,-0.3768833 1.830572,-0.9368222 -0.0323,-0.1076807 -0.09691,-0.1615211 -0.226129,-0.1722891 m 3.364293,-5.65323717 c 0.656852,0 1.432153,0.23689887 1.432153,1.50752987 0,1.3460073 -0.764533,1.6475148 -1.809035,1.6475148 H 33.330301 V 1.5506023 c 0,-0.3122736 0.129218,-0.68915647 0.89375,-0.68915647 m -0.89375,5.34096307 v -1.819804 c 0.904517,0 1.098343,0.1615211 1.259864,0.4091867 l 1.152184,1.8736444 c 0.301506,0.5060985 0.775302,0.9583583 1.421385,0.9583583 0.161521,0 0.344579,-0.021536 0.452259,-0.075376 0.0323,-0.064609 0.0323,-0.1722892 -0.01077,-0.2584337 -0.484562,0 -0.753765,-0.3553464 -1.033735,-0.8291415 L 35.214714,4.1995477 c 0.463027,-0.150753 1.432153,-0.7106934 1.432153,-1.8413401 0,-0.5384028 -0.183057,-0.9798947 -0.570708,-1.3460088 -0.516866,-0.48456264 -1.184488,-0.51686738 -1.862876,-0.51686738 -0.269201,0 -0.936822,0.0753765 -1.346009,0.0753765 -0.538403,0 -0.850678,-0.0107681 -1.389081,-0.0215361 -0.06461,0.0646084 -0.06461,0.29073799 0,0.35534634 0.753764,0.0323042 0.936822,0.0861455 0.936822,0.97989434 v 4.3179964 c 0,0.8937491 -0.183058,0.9475903 -0.936822,0.9798945 -0.06461,0.064608 -0.06461,0.2907379 0,0.3553463 0.527635,-0.010768 0.850678,-0.021536 1.399849,-0.021536 0.538403,0 0.850679,0.010768 1.389081,0.021536 0.06461,-0.064608 0.06461,-0.2907379 0,-0.3553463 -0.753764,-0.032304 -0.936822,-0.086145 -0.936822,-0.9798945 m 6.407619,1.4213854 c 0.419955,0 0.861447,-0.2153614 1.389081,-0.6460843 0.04307,-0.043072 0.129217,-0.064608 0.129217,0.010768 0,0.2584337 0.118449,0.6353162 0.118449,0.6353162 0.07538,0.032304 0.118449,0.032304 0.204593,0 0.236898,-0.1938253 0.646085,-0.3553464 1.302937,-0.4307229 0.06461,-0.064608 0.06461,-0.2261295 0,-0.2907379 C 42.193041,6.8484934 42.096128,6.643899 42.096128,6.1162642 V 4.0487947 c 0,-0.3230413 0.04307,-1.0983432 0.04307,-1.0983432 0,-0.043072 -0.0323,-0.075376 -0.08615,-0.075376 -0.05384,0.010768 -0.215361,0.021536 -0.376882,0.021536 -0.344578,0 -0.699925,-0.010768 -1.098343,-0.021536 -0.06461,0.064608 -0.06461,0.2907379 0,0.3553464 0.527635,0.032304 0.66762,0.1615218 0.66762,0.8722137 v 2.0782377 c 0,0.2045933 -0.02154,0.2907379 -0.172289,0.4199547 -0.398418,0.3445783 -0.742997,0.5168674 -1.012199,0.5168674 -0.323041,0 -0.861445,-0.1507537 -0.861445,-1.1091113 V 4.0487947 c 0,-0.3230413 0.04307,-1.0983432 0.04307,-1.0983432 0,-0.043072 -0.0323,-0.075376 -0.08615,-0.075376 -0.05384,0.010768 -0.215361,0.021536 -0.376882,0.021536 -0.344578,0 -0.699925,-0.010768 -1.098343,-0.021536 -0.06461,0.064608 -0.06461,0.2907379 0,0.3553464 0.516867,0.043072 0.66762,0.1615218 0.66762,0.8614456 v 2.0674696 c 0,0.7429962 0.323044,1.4644577 1.389081,1.4644577 m 3.75329,-4.8671681 c -0.0323,0 -0.06461,0.043072 -0.06461,0.064609 -0.01077,0.4845624 -0.07538,0.8937506 -0.161521,1.4213853 0.08615,0.043072 0.22613,0.064608 0.355347,0.032304 0.215361,-0.7860684 0.549172,-1.0121986 0.872213,-1.0121986 h 1.485994 l -2.648945,3.9088097 c -0.08615,0.1292168 -0.09691,0.1615211 -0.09691,0.2153614 0,0.075376 0.08615,0.1292169 0.247666,0.1292169 h 3.359638 c 0.05384,-0.3338095 0.161521,-0.8399103 0.344578,-1.4644577 -0.07538,-0.032304 -0.193825,-0.075376 -0.323042,-0.075376 l -0.139985,0.3122741 c -0.258433,0.570707 -0.441492,0.8614457 -1.066039,0.8614457 h -1.432153 l 2.584337,-3.8011291 c 0.183057,-0.2799691 0.236897,-0.4091867 0.236897,-0.4522589 0,-0.043072 -0.05384,-0.075376 -0.129217,-0.075376 -0.05384,0 -0.398418,0.075376 -0.710692,0.075376 h -2.185919 c -0.355345,0 -0.344578,-0.096913 -0.527635,-0.139985 m 4.65175,-1.690587 c 0,0.2799696 0.258435,0.5599396 0.516868,0.5599396 0.301506,0 0.559939,-0.27997 0.559939,-0.5168673 0,-0.25843344 -0.226129,-0.55993972 -0.516867,-0.55993972 -0.258433,0 -0.55994,0.258434 -0.55994,0.51686742 m 0.979895,5.1363697 V 4.0595628 c 0,-0.5384028 0.04307,-1.2275601 0.04307,-1.2275601 0,-0.043072 -0.05384,-0.075376 -0.139985,-0.075376 -0.312273,0.1184488 -0.732229,0.2153615 -1.475225,0.3122741 -0.02154,0.064608 0,0.2368975 0.02154,0.301506 0.581475,0.064608 0.699924,0.1184495 0.699924,0.7322288 v 2.0997738 c 0,0.8937491 -0.118449,0.9260541 -0.775301,0.9798945 -0.06461,0.064608 -0.06461,0.2907379 0,0.3553463 0.452259,-0.010768 0.73223,-0.021536 1.206024,-0.021536 0.463027,0 0.73223,0.010768 1.195256,0.021536 0.06461,-0.064608 0.06461,-0.2907379 0,-0.3553463 -0.656852,-0.043072 -0.775301,-0.086145 -0.775301,-0.9798945 m 4.24963,-2.9719875 c 0.581475,0.043072 0.635316,0.1830579 0.409187,0.7214607 L 52.920226,6.062424 C 52.737169,6.4931468 52.683329,6.4823788 52.521808,6.03012 L 51.735738,3.9518823 C 51.552681,3.4350156 51.401929,3.29503 52.080317,3.2304216 c 0.06461,-0.064608 0.06461,-0.290738 0,-0.3553464 -0.398418,0.010768 -0.699925,0.021536 -1.141416,0.021536 -0.376882,0 -0.549171,-0.010768 -0.94759,-0.021536 -0.06461,0.064608 -0.06461,0.2907379 0,0.3553464 0.613779,0.075376 0.646085,0.2476663 0.861446,0.7860691 l 1.378313,3.4027104 c 0.06461,0.1615211 0.129217,0.2261295 0.269201,0.2261295 0.107681,0 0.17229,-0.064608 0.258434,-0.2476656 l 1.432154,-3.3704062 c 0.204593,-0.4630263 0.323043,-0.7429969 0.926054,-0.7968372 0.06461,-0.064608 0.06461,-0.290738 0,-0.3553464 -0.236897,0.010768 -0.430723,0.021536 -0.710693,0.021536 -0.398418,0 -0.635316,-0.010768 -1.033735,-0.021536 -0.06461,0.064608 -0.06461,0.2907379 0,0.3553464 m 1.97538,2.0782376 c 0,1.0983425 0.742999,2.3151353 2.261295,2.3151353 1.604441,0 2.282831,-1.3352416 2.282831,-2.4120479 0,-1.1198779 -0.592245,-2.422816 -2.261295,-2.422816 -1.453688,0 -2.282831,1.1521851 -2.282831,2.5197286 M 57.512248,3.144277 c 0.926053,0 1.453689,0.8291429 1.453689,2.4120479 0,1.4213838 -0.656852,1.7121232 -1.162951,1.7121232 -1.119878,0 -1.529066,-1.3783138 -1.529066,-2.2074545 0,-0.9368214 0.33381,-1.9167166 1.238328,-1.9167166 m 7.46904,-2.28283097 c 0.656852,0 1.432154,0.23689887 1.432154,1.50752987 0,1.3460073 -0.764534,1.6475148 -1.809036,1.6475148 H 64.087538 V 1.5506023 c 0,-0.3122736 0.129218,-0.68915647 0.89375,-0.68915647 m -0.89375,5.34096307 v -1.819804 c 0.904518,0 1.098344,0.1615211 1.259865,0.4091867 l 1.152183,1.8736444 c 0.301506,0.5060985 0.775302,0.9583583 1.421386,0.9583583 0.161521,0 0.344578,-0.021536 0.452259,-0.075376 0.0323,-0.064609 0.0323,-0.1722892 -0.01077,-0.2584337 -0.484562,0 -0.753764,-0.3553464 -1.033734,-0.8291415 L 65.971951,4.1995477 c 0.463027,-0.150753 1.432153,-0.7106934 1.432153,-1.8413401 0,-0.5384028 -0.183057,-0.9798947 -0.570708,-1.3460088 C 66.31653,0.52763616 65.648908,0.49533142 64.97052,0.49533142 c -0.269201,0 -0.936822,0.0753765 -1.346009,0.0753765 -0.538403,0 -0.850678,-0.0107681 -1.389081,-0.0215361 -0.06461,0.0646084 -0.06461,0.29073799 0,0.35534634 0.753764,0.0323042 0.936822,0.0861455 0.936822,0.97989434 v 4.3179964 c 0,0.8937491 -0.183058,0.9475903 -0.936822,0.9798945 -0.06461,0.064608 -0.06461,0.2907379 0,0.3553463 0.527636,-0.010768 0.850678,-0.021536 1.399849,-0.021536 0.538403,0 0.850679,0.010768 1.389081,0.021536 0.06461,-0.064608 0.06461,-0.2907379 0,-0.3553463 C 64.270596,7.1499992 64.087538,7.096158 64.087538,6.2024089 M 71.313531,5.007153 v 1.4321535 c 0,0.1399849 -0.06461,0.2153614 -0.150753,0.2799698 -0.279969,0.2261295 -0.646084,0.4630271 -0.94759,0.4630271 -0.538403,0 -0.775302,-0.4307229 -0.775302,-0.7645331 0,-0.4845624 0.226131,-0.9691263 1.022967,-1.1844878 L 71.313531,5.007153 m 0,1.9920932 c 0.06461,0.2261294 0.247666,0.6245481 0.829141,0.6245481 0.527636,0 0.915286,-0.4307229 0.915286,-0.4845632 0,-0.075376 -0.09691,-0.1830572 -0.139985,-0.1830572 -0.06461,0 -0.10768,0.1722891 -0.33381,0.1722891 -0.419954,0 -0.430723,-0.4199555 -0.430723,-0.915286 V 4.6087344 c 0,-1.5290645 -0.83991,-1.819804 -1.625978,-1.819804 -0.882981,0 -1.776732,0.6137808 -1.776732,1.1952559 0,0.2584337 0.129218,0.3768825 0.376882,0.3768825 0.312274,0 0.473796,-0.2153614 0.473796,-0.3553463 0,-0.075376 -0.01077,-0.150753 -0.03231,-0.1938253 -0.01077,-0.032304 -0.02154,-0.096913 -0.02154,-0.2153614 0,-0.3338095 0.484564,-0.452259 0.89375,-0.452259 0.366114,0 0.872214,0.1830587 0.872214,1.3998492 0,0.075376 -0.0323,0.1184488 -0.06461,0.1292168 l -0.926054,0.2261295 c -1.033733,0.2584337 -1.776731,0.8291422 -1.776731,1.5613703 0,0.8506769 0.603012,1.1629517 1.356777,1.1629517 0.495331,0 0.699925,-0.086145 1.173719,-0.452259 l 0.215362,-0.1722891 h 0.02154 M 73.78155,6.2024089 c 0,0.8937491 -0.118449,0.9368222 -0.721461,0.9798945 -0.06461,0.064608 -0.06461,0.2907379 0,0.3553463 0.452259,-0.010768 0.699926,-0.021536 1.152184,-0.021536 0.376883,0 0.516868,0.010768 0.979895,0.021536 0.06461,-0.064608 0.06461,-0.2907379 0,-0.3553463 -0.441491,-0.043072 -0.55994,-0.086145 -0.55994,-0.9798945 V 5.2332825 c 0.247665,0.010768 0.398419,0.086145 0.61378,0.3876506 l 0.786068,1.1091113 c 0.215361,0.312274 0.247665,0.4414909 0.247665,0.5814758 v 0.1722891 c 0,0.032304 0.01077,0.05384 0.04307,0.05384 0.215362,-0.010768 0.419955,-0.021536 0.742997,-0.021536 0.333811,0 0.55994,0.010768 0.882982,0.021536 0.06461,-0.064608 0.06461,-0.2907379 0,-0.3553463 C 77.582676,7.139231 77.259634,7.096158 77.022736,6.730044 L 75.762874,4.8671681 c -0.0323,-0.043072 -0.05384,-0.096913 -0.05384,-0.150753 0,-0.043072 0.01077,-0.075376 0.04307,-0.1076807 l 0.818373,-0.9045179 c 0.312274,-0.3230414 0.646084,-0.452259 1.184488,-0.4737951 0.06461,-0.064608 0.06461,-0.290738 0,-0.3553464 -0.398419,0.010768 -0.549172,0.021536 -0.936822,0.021536 -0.409187,0 -0.592244,-0.010768 -0.990663,-0.021536 -0.06461,0.064608 -0.06461,0.2907379 0,0.3553464 0.646084,0.032304 0.301506,0.4414909 0.193825,0.5491716 C 75.4506,4.4041403 74.912198,4.8779362 74.632228,4.9640808 V 1.2383283 c 0,-0.69992385 0.04307,-1.13064743 0.04307,-1.13064743 C 74.6753,0.03230445 74.632228,1.6202864e-7 74.535315,1.6202864e-7 74.266114,0.1076808 73.458508,0.25843394 73.027785,0.29073808 c -0.02154,0.0861445 0,0.25843377 0.06461,0.32304212 0.559939,0.0323042 0.689156,-0.0215352 0.689156,0.8829817 v 4.705647 M 80.917863,5.007153 v 1.4321535 c 0,0.1399849 -0.06461,0.2153614 -0.150753,0.2799698 -0.279969,0.2261295 -0.646084,0.4630271 -0.94759,0.4630271 -0.538403,0 -0.775301,-0.4307229 -0.775301,-0.7645331 0,-0.4845624 0.22613,-0.9691263 1.022967,-1.1844878 L 80.917863,5.007153 m 0,1.9920932 c 0.06461,0.2261294 0.247666,0.6245481 0.829142,0.6245481 0.527635,0 0.915286,-0.4307229 0.915286,-0.4845632 0,-0.075376 -0.09691,-0.1830572 -0.139985,-0.1830572 -0.06461,0 -0.107681,0.1722891 -0.33381,0.1722891 -0.419955,0 -0.430723,-0.4199555 -0.430723,-0.915286 V 4.6087344 c 0,-1.5290645 -0.83991,-1.819804 -1.625979,-1.819804 -0.882982,0 -1.776732,0.6137808 -1.776732,1.1952559 0,0.2584337 0.129217,0.3768825 0.376883,0.3768825 0.312274,0 0.473795,-0.2153614 0.473795,-0.3553463 0,-0.075376 -0.01077,-0.150753 -0.0323,-0.1938253 -0.01077,-0.032304 -0.02154,-0.096913 -0.02154,-0.2153614 0,-0.3338095 0.484563,-0.452259 0.89375,-0.452259 0.366114,0 0.872213,0.1830587 0.872213,1.3998492 0,0.075376 -0.0323,0.1184488 -0.06461,0.1292168 l -0.926054,0.2261295 c -1.033735,0.2584337 -1.776732,0.8291422 -1.776732,1.5613703 0,0.8506769 0.603012,1.1629517 1.356777,1.1629517 0.495331,0 0.699925,-0.086145 1.17372,-0.452259 l 0.215361,-0.1722891 h 0.02154 m 2.058833,-0.9691264 c 0.04307,0.5276347 0.07538,1.0337355 0.07538,1.4859938 0.10768,-0.021536 0.215361,-0.032304 0.269201,-0.032304 0.07538,0 0.139985,0 0.215362,0.021536 0.290738,0.075376 0.581476,0.1184488 0.979894,0.1184488 0.603012,0 1.712123,-0.2907387 1.712123,-1.356777 0,-0.732228 -0.538403,-1.1521835 -1.259864,-1.4321534 -0.646084,-0.2476656 -1.076807,-0.4091874 -1.076807,-1.0014306 0,-0.4414901 0.387651,-0.6891565 0.753765,-0.6891565 0.236898,0 0.861446,0.086145 1.001431,1.0014306 0.06461,0.064608 0.27997,0.05384 0.344578,-0.010768 0,-0.3876498 0.05384,-0.7860692 0.06461,-1.1414155 -0.33381,-0.05384 -0.850677,-0.2045934 -1.410617,-0.2045934 -0.796837,0 -1.518298,0.5168682 -1.518298,1.206024 0,0.7860684 0.355346,1.1198801 1.184488,1.4644576 0.882982,0.3768825 1.098343,0.5922447 1.098343,1.055271 0,0.5276347 -0.516867,0.7537649 -0.915286,0.7537649 -0.419955,0 -0.656852,-0.1399849 -0.764533,-0.2584337 -0.258434,-0.2476656 -0.355346,-0.7214607 -0.419955,-0.9906625 -0.06461,-0.064608 -0.269201,-0.05384 -0.33381,0.010768 m 5.717621,1.5936745 c 0.419955,0 0.861446,-0.2153614 1.389082,-0.6460843 0.04307,-0.043072 0.129216,-0.064608 0.129216,0.010768 0,0.2584337 0.118449,0.6353162 0.118449,0.6353162 0.07538,0.032304 0.118449,0.032304 0.204594,0 0.236897,-0.1938253 0.646084,-0.3553464 1.302936,-0.4307229 0.06461,-0.064608 0.06461,-0.2261295 0,-0.2907379 -0.689156,-0.05384 -0.786069,-0.2584344 -0.786069,-0.7860692 V 4.0487947 c 0,-0.3230413 0.04307,-1.0983432 0.04307,-1.0983432 0,-0.043072 -0.0323,-0.075376 -0.08614,-0.075376 -0.05384,0.010768 -0.215362,0.021536 -0.376883,0.021536 -0.344578,0 -0.699924,-0.010768 -1.098343,-0.021536 -0.06461,0.064608 -0.06461,0.2907379 0,0.3553464 0.527635,0.032304 0.66762,0.1615218 0.66762,0.8722137 v 2.0782377 c 0,0.2045933 -0.02154,0.2907379 -0.172289,0.4199547 -0.398418,0.3445783 -0.742997,0.5168674 -1.012198,0.5168674 -0.323043,0 -0.861446,-0.1507537 -0.861446,-1.1091113 V 4.0487947 c 0,-0.3230413 0.04307,-1.0983432 0.04307,-1.0983432 0,-0.043072 -0.0323,-0.075376 -0.08614,-0.075376 -0.05384,0.010768 -0.215362,0.021536 -0.376883,0.021536 -0.344578,0 -0.699925,-0.010768 -1.098343,-0.021536 -0.06461,0.064608 -0.06461,0.2907379 0,0.3553464 0.516867,0.043072 0.66762,0.1615218 0.66762,0.8614456 v 2.0674696 c 0,0.7429962 0.323042,1.4644577 1.389081,1.4644577 m 5.077766,-3.9626501 c -0.0323,0.043072 -0.10768,0.150753 -0.10768,0 0,-0.3230414 0.05384,-0.8183734 0.05384,-0.8183734 0,-0.05384 -0.04307,-0.086145 -0.129217,-0.086145 -0.301506,0.1184488 -0.742997,0.2153615 -1.485994,0.3122741 -0.02154,0.064608 0,0.2368975 0.02154,0.301506 0.581475,0.05384 0.699924,0.1076814 0.699924,0.7322288 V 6.202409 c 0,0.8829811 -0.10768,0.9260541 -0.753765,0.9798945 -0.06461,0.064608 -0.06461,0.2907379 0,0.3553463 0.441491,-0.010768 0.721461,-0.021536 1.184488,-0.021536 0.419955,0 0.61378,0.010768 1.066039,0.021536 0.06461,-0.064608 0.06461,-0.2907379 0,-0.3553463 C 93.772083,7.128463 93.675171,7.08539 93.675171,6.2024089 V 4.4364453 c 0,-0.2261295 0.09691,-0.3553463 0.183057,-0.452259 0.409187,-0.3984179 0.829141,-0.6353162 1.249096,-0.6353162 0.215362,0 0.441491,0.139985 0.570708,0.3876506 0.107681,0.2153614 0.129217,0.5061001 0.129217,0.8291414 v 1.6367468 c 0,0.8829811 -0.107681,0.9260541 -0.667621,0.9798945 -0.05384,0.064608 -0.05384,0.2907379 0,0.3553463 0.452259,-0.010768 0.667621,-0.021536 1.098344,-0.021536 0.441491,0 0.678388,0.010768 1.141415,0.021536 0.05384,-0.064608 0.05384,-0.2907379 0,-0.3553463 C 96.776375,7.128463 96.657926,7.08539 96.657926,6.2024089 V 4.5979664 c 0,-0.5922432 -0.04307,-1.1091113 -0.290737,-1.4429215 -0.183058,-0.2368976 -0.516868,-0.3661145 -0.89375,-0.3661145 -0.527636,0 -1.044503,0.1399857 -1.701356,0.8722138 m 6.991957,0.8506776 c 0,1.0014298 -0.5061,1.2060239 -0.904519,1.2060239 -0.904518,0 -1.001431,-0.7645338 -1.001431,-1.4536895 0,-0.7537643 0.269202,-1.1414156 0.861446,-1.1414156 0.678384,0 1.044504,0.4953321 1.044504,1.3890812 m -2.013631,3.1119725 c 0.118449,0.032304 0.290738,0.05384 0.430723,0.05384 0.33381,0 0.635316,-0.032304 0.786069,-0.032304 0.538399,0 0.990659,0.010768 1.302939,0.1830572 0.41995,0.2368976 0.54917,0.3876513 0.54917,0.6676204 0,0.7753004 -1.14142,1.1844878 -2.110542,1.1844878 -0.387651,0 -1.292169,-0.3122748 -1.292169,-1.0445029 0,-0.3661136 0.02154,-0.6353161 0.33381,-1.0121986 M 102.11005,3.34887 c 0.20459,0 0.39842,-0.1938252 0.39842,-0.4091867 0,-0.2261295 -0.2046,-0.3984186 -0.49534,-0.3984186 -0.27996,0 -0.79683,0.183058 -1.0768,0.5491716 -0.12922,-0.086145 -0.48457,-0.301506 -1.119882,-0.301506 -0.958358,0 -1.84134,0.646085 -1.84134,1.6367468 0,0.5814751 0.258434,0.9152868 0.55994,1.206024 -0.301506,0.2584337 -0.473795,0.7214615 -0.473795,1.0875751 0,0.3876506 0.215361,0.6891566 0.495331,0.8291415 -0.581476,0.3445782 -0.882982,0.8399103 -0.882982,1.3029366 0,0.9368214 0.882982,1.2275597 1.712124,1.2275597 1.453694,0 3.025824,-0.699925 3.025824,-1.8628759 0,-0.3445776 -0.16152,-0.6137801 -0.47379,-0.8722138 -0.41996,-0.3445775 -1.17372,-0.3553463 -1.57214,-0.3553463 -0.19383,0 -0.463027,0.021536 -0.721461,0.05384 -0.161521,0.010768 -0.269201,0.021536 -0.323042,0.021536 -0.312274,0 -0.689156,-0.150753 -0.689156,-0.6137801 0,-0.2153614 0.06461,-0.4414909 0.193825,-0.6245481 0.258434,0.150753 0.55994,0.2261295 0.979894,0.2261295 0.94759,0 1.8198,-0.5922446 1.8198,-1.6475148 0,-0.5060986 -0.15075,-0.7968373 -0.46302,-1.1198794 0.0754,-0.1076807 0.29074,-0.2584337 0.43072,-0.2584337 0.0754,0 0.15075,0.032304 0.21536,0.1292169 0.0431,0.086145 0.18306,0.1938252 0.30151,0.1938252 m 2.71535,4.2749242 c 0.41995,0 0.86144,-0.2153614 1.38908,-0.6460843 0.0431,-0.043072 0.12921,-0.064608 0.12921,0.010768 0,0.2584337 0.11845,0.6353162 0.11845,0.6353162 0.0754,0.032304 0.11845,0.032304 0.2046,0 0.23689,-0.1938253 0.64608,-0.3553464 1.30293,-0.4307229 0.0646,-0.064608 0.0646,-0.2261295 0,-0.2907379 -0.68915,-0.05384 -0.78607,-0.2584344 -0.78607,-0.7860692 V 4.0487947 c 0,-0.3230413 0.0431,-1.0983432 0.0431,-1.0983432 0,-0.043072 -0.0323,-0.075376 -0.0862,-0.075376 -0.0538,0.010768 -0.21536,0.021536 -0.37688,0.021536 -0.34458,0 -0.69993,-0.010768 -1.09834,-0.021536 -0.0646,0.064608 -0.0646,0.2907379 0,0.3553464 0.52763,0.032304 0.66762,0.1615218 0.66762,0.8722137 v 2.0782377 c 0,0.2045933 -0.0215,0.2907379 -0.17229,0.4199547 -0.39842,0.3445783 -0.743,0.5168674 -1.0122,0.5168674 -0.32304,0 -0.86145,-0.1507537 -0.86145,-1.1091113 V 4.0487947 c 0,-0.3230413 0.0431,-1.0983432 0.0431,-1.0983432 0,-0.043072 -0.0323,-0.075376 -0.0861,-0.075376 -0.0538,0.010768 -0.21536,0.021536 -0.37688,0.021536 -0.34458,0 -0.69993,-0.010768 -1.09835,-0.021536 -0.0646,0.064608 -0.0646,0.2907379 0,0.3553464 0.51687,0.043072 0.66762,0.1615218 0.66762,0.8614456 v 2.0674696 c 0,0.7429962 0.32305,1.4644577 1.38909,1.4644577 m 5.07775,-3.9626501 c -0.0323,0.043072 -0.10768,0.150753 -0.10768,0 0,-0.3230414 0.0538,-0.8183734 0.0538,-0.8183734 0,-0.05384 -0.0431,-0.086145 -0.12921,-0.086145 -0.30151,0.1184488 -0.743,0.2153615 -1.486,0.3122741 -0.0215,0.064608 0,0.2368975 0.0215,0.301506 0.58148,0.05384 0.69992,0.1076814 0.69992,0.7322288 V 6.202409 c 0,0.8829811 -0.10768,0.9260541 -0.75376,0.9798945 -0.0646,0.064608 -0.0646,0.2907379 0,0.3553463 0.44149,-0.010768 0.72146,-0.021536 1.18449,-0.021536 0.41995,0 0.61378,0.010768 1.06604,0.021536 0.0646,-0.064608 0.0646,-0.2907379 0,-0.3553463 -0.54918,-0.05384 -0.64609,-0.096913 -0.64609,-0.9798945 V 4.4364453 c 0,-0.2261295 0.0969,-0.3553463 0.18306,-0.452259 0.40919,-0.3984179 0.82914,-0.6353162 1.2491,-0.6353162 0.21536,0 0.44149,0.139985 0.5707,0.3876506 0.10768,0.2153614 0.12922,0.5061001 0.12922,0.8291414 v 1.6367468 c 0,0.8829811 -0.10768,0.9260541 -0.66762,0.9798945 -0.0538,0.064608 -0.0538,0.2907379 0,0.3553463 0.45226,-0.010768 0.66762,-0.021536 1.09834,-0.021536 0.44149,0 0.67839,0.010768 1.14142,0.021536 0.0538,-0.064608 0.0538,-0.2907379 0,-0.3553463 C 112.90745,7.128463 112.789,7.08539 112.789,6.2024089 V 4.5979664 c 0,-0.5922432 -0.0431,-1.1091113 -0.29074,-1.4429215 -0.18306,-0.2368976 -0.51687,-0.3661145 -0.89375,-0.3661145 -0.52764,0 -1.0445,0.1399857 -1.70136,0.8722138 m 5.89362,3.9626501 c 0.41995,0 0.86144,-0.2153614 1.38908,-0.6460843 0.0431,-0.043072 0.12921,-0.064608 0.12921,0.010768 0,0.2584337 0.11845,0.6353162 0.11845,0.6353162 0.0754,0.032304 0.11845,0.032304 0.2046,0 0.23689,-0.1938253 0.64608,-0.3553464 1.30293,-0.4307229 0.0646,-0.064608 0.0646,-0.2261295 0,-0.2907379 -0.68915,-0.05384 -0.78607,-0.2584344 -0.78607,-0.7860692 V 4.0487947 c 0,-0.3230413 0.0431,-1.0983432 0.0431,-1.0983432 0,-0.043072 -0.0323,-0.075376 -0.0861,-0.075376 -0.0538,0.010768 -0.21536,0.021536 -0.37688,0.021536 -0.34458,0 -0.69993,-0.010768 -1.09834,-0.021536 -0.0646,0.064608 -0.0646,0.2907379 0,0.3553464 0.52763,0.032304 0.66762,0.1615218 0.66762,0.8722137 v 2.0782377 c 0,0.2045933 -0.0215,0.2907379 -0.17229,0.4199547 -0.39842,0.3445783 -0.743,0.5168674 -1.0122,0.5168674 -0.32304,0 -0.86145,-0.1507537 -0.86145,-1.1091113 V 4.0487947 c 0,-0.3230413 0.0431,-1.0983432 0.0431,-1.0983432 0,-0.043072 -0.0323,-0.075376 -0.0862,-0.075376 -0.0538,0.010768 -0.21536,0.021536 -0.37688,0.021536 -0.34458,0 -0.69993,-0.010768 -1.09834,-0.021536 -0.0646,0.064608 -0.0646,0.2907379 0,0.3553464 0.51686,0.043072 0.66762,0.1615218 0.66762,0.8614456 v 2.0674696 c 0,0.7429962 0.32304,1.4644577 1.38908,1.4644577 m 4.02249,-1.4213854 c 0,0.8937491 -0.11845,0.9368222 -0.72146,0.9798945 -0.0646,0.064608 -0.0646,0.2907379 0,0.3553463 0.45226,-0.010768 0.69993,-0.021536 1.15218,-0.021536 0.37689,0 0.51687,0.010768 0.9799,0.021536 0.0646,-0.064608 0.0646,-0.2907379 0,-0.3553463 -0.44149,-0.043072 -0.55994,-0.086145 -0.55994,-0.9798945 V 5.2332825 c 0.24766,0.010768 0.39842,0.086145 0.61378,0.3876506 l 0.78607,1.1091113 c 0.21536,0.312274 0.24766,0.4414909 0.24766,0.5814758 v 0.1722891 c 0,0.032304 0.0108,0.05384 0.0431,0.05384 0.21536,-0.010768 0.41995,-0.021536 0.74299,-0.021536 0.33381,0 0.55994,0.010768 0.88299,0.021536 0.0646,-0.064608 0.0646,-0.2907379 0,-0.3553463 -0.36612,-0.043072 -0.68916,-0.086145 -0.92606,-0.452259 l -1.25986,-1.8628763 c -0.0323,-0.043072 -0.0538,-0.096913 -0.0538,-0.150753 0,-0.043072 0.0108,-0.075376 0.0431,-0.1076807 l 0.81837,-0.9045179 c 0.31228,-0.3230414 0.64609,-0.452259 1.18449,-0.4737951 0.0646,-0.064608 0.0646,-0.290738 0,-0.3553464 -0.39842,0.010768 -0.54917,0.021536 -0.93682,0.021536 -0.40919,0 -0.59225,-0.010768 -0.99066,-0.021536 -0.0646,0.064608 -0.0646,0.2907379 0,0.3553464 0.64608,0.032304 0.3015,0.4414909 0.19382,0.5491716 -0.57071,0.6245473 -1.10911,1.0983432 -1.38908,1.1844878 V 1.2383283 c 0,-0.69992385 0.0431,-1.13064743 0.0431,-1.13064743 C 120.71301,0.03230445 120.66994,1.6202864e-7 120.57303,1.6202864e-7 120.30382,0.1076808 119.49622,0.25843394 119.0655,0.29073808 c -0.0215,0.0861445 0,0.25843377 0.0646,0.32304212 0.55993,0.0323042 0.68915,-0.0215352 0.68915,0.8829817 v 4.705647 m 7.13632,-1.1952559 v 1.4321535 c 0,0.1399849 -0.0646,0.2153614 -0.15076,0.2799698 -0.27997,0.2261295 -0.64608,0.4630271 -0.94759,0.4630271 -0.5384,0 -0.7753,-0.4307229 -0.7753,-0.7645331 0,-0.4845624 0.22613,-0.9691263 1.02297,-1.1844878 l 0.85068,-0.2261295 m 0,1.9920932 c 0.0646,0.2261294 0.24766,0.6245481 0.82914,0.6245481 0.52763,0 0.91528,-0.4307229 0.91528,-0.4845632 0,-0.075376 -0.0969,-0.1830572 -0.13998,-0.1830572 -0.0646,0 -0.10768,0.1722891 -0.33381,0.1722891 -0.41996,0 -0.43072,-0.4199555 -0.43072,-0.915286 V 4.6087344 c 0,-1.5290645 -0.83991,-1.819804 -1.62598,-1.819804 -0.88298,0 -1.77673,0.6137808 -1.77673,1.1952559 0,0.2584337 0.12921,0.3768825 0.37688,0.3768825 0.31227,0 0.47379,-0.2153614 0.47379,-0.3553463 0,-0.075376 -0.0108,-0.150753 -0.0323,-0.1938253 -0.0108,-0.032304 -0.0215,-0.096913 -0.0215,-0.2153614 0,-0.3338095 0.48457,-0.452259 0.89375,-0.452259 0.36612,0 0.87222,0.1830587 0.87222,1.3998492 0,0.075376 -0.0323,0.1184488 -0.0646,0.1292168 l -0.92606,0.2261295 c -1.03373,0.2584337 -1.77673,0.8291422 -1.77673,1.5613703 0,0.8506769 0.60301,1.1629517 1.35678,1.1629517 0.49533,0 0.69992,-0.086145 1.17372,-0.452259 l 0.21536,-0.1722891 h 0.0215"
     style="font-style:normal;font-variant:normal;font-weight:normal;font-stretch:normal;font-size:144px;font-family:'Linux Libertine O';-inkscape-font-specification:'Linux Libertine O';letter-spacing:-3;word-spacing:-7;fill:#000000;fill-opacity:1;stroke:none;stroke-width:0.0747783px;stroke-linecap:butt;stroke-linejoin:miter;stroke-opacity:1" /></svg>
