<?xml version="1.0" encoding="UTF-8" standalone="no"?>
<svg
   xmlns:dc="http://purl.org/dc/elements/1.1/"
   xmlns:cc="http://creativecommons.org/ns#"
   xmlns:rdf="http://www.w3.org/1999/02/22-rdf-syntax-ns#"
   xmlns:svg="http://www.w3.org/2000/svg"
   xmlns="http://www.w3.org/2000/svg"
   id="svg3857"
   xml:space="preserve"
   enable-background="new 0 0 135 155"
   viewBox="0 0 106.91601 8.5254002"
   height="8.5254002"
   width="106.91601"
   y="0px"
   x="0px"
   version="1.1"><metadata
   id="metadata4852"><rdf:RDF><cc:Work
       rdf:about=""><dc:format>image/svg+xml</dc:format><dc:type
         rdf:resource="http://purl.org/dc/dcmitype/StillImage" /><dc:title /></cc:Work></rdf:RDF></metadata><defs
   id="defs4850"><radialGradient
     id="SVGID_1_"
     cx="-145.4702"
     cy="87.823196"
     r="68.686401"
     gradientTransform="matrix(1,0,0,-1,192.3999,143.0996)"
     gradientUnits="userSpaceOnUse">
		<stop
   offset="0"
   style="stop-color:#FFFFFF"
   id="stop3922" />
		<stop
   offset="0.4835"
   style="stop-color:#EAEAEB"
   id="stop3924" />
		<stop
   offset="0.9451"
   style="stop-color:#A9ABAE"
   id="stop3926" />
		<stop
   offset="1"
   style="stop-color:#999B9E"
   id="stop3928" />
	</radialGradient><linearGradient
     id="SVGID_2_"
     gradientUnits="userSpaceOnUse"
     x1="66.232399"
     y1="24.481001"
     x2="112.7331"
     y2="97.232101">
		<stop
   offset="0"
   style="stop-color:#8A8A8A"
   id="stop3935" />
		<stop
   offset="0.5687"
   style="stop-color:#606060"
   id="stop3937" />
		<stop
   offset="0.5914"
   style="stop-color:#FFFFFF"
   id="stop3939" />
		<stop
   offset="0.6116"
   style="stop-color:#585858"
   id="stop3941" />
		<stop
   offset="1"
   style="stop-color:#303030"
   id="stop3943" />
	</linearGradient><linearGradient
     id="SVGID_5_"
     gradientUnits="userSpaceOnUse"
     x1="54.715801"
     y1="65.136703"
     x2="83.798798"
     y2="65.136703">
		<stop
   offset="0"
   style="stop-color:#231F20"
   id="stop3964" />
		<stop
   offset="1"
   style="stop-color:#474747"
   id="stop3966" />
	</linearGradient><linearGradient
     id="SVGID_6_"
     gradientUnits="userSpaceOnUse"
     x1="-123.5898"
     y1="119.8076"
     x2="-94.069099"
     y2="29.9035"
     gradientTransform="matrix(1,0,0,-1,192.3999,143.0996)">
		<stop
   offset="0"
   style="stop-color:#FFFFFF"
   id="stop3997" />
		<stop
   offset="0.0094"
   style="stop-color:#FCFCFC"
   id="stop3999" />
		<stop
   offset="0.0655"
   style="stop-color:#EEEEEE"
   id="stop4001" />
		<stop
   offset="0.1342"
   style="stop-color:#E5E5E5"
   id="stop4003" />
		<stop
   offset="0.2515"
   style="stop-color:#E3E3E3"
   id="stop4005" />
		<stop
   offset="0.3357"
   style="stop-color:#8A8A8A"
   id="stop4007" />
		<stop
   offset="0.4422"
   style="stop-color:#B8B8B8"
   id="stop4009" />
		<stop
   offset="1"
   style="stop-color:#3B3B3B"
   id="stop4011" />
	</linearGradient><linearGradient
     id="SVGID_7_"
     gradientUnits="userSpaceOnUse"
     x1="70.421898"
     y1="26.876499"
     x2="119.5471"
     y2="87.626701">
		<stop
   offset="0"
   style="stop-color:#EFF0F0"
   id="stop4016" />
		<stop
   offset="0.5914"
   style="stop-color:#F0F1F2"
   id="stop4018" />
		<stop
   offset="0.599"
   style="stop-color:#787878"
   id="stop4020" />
		<stop
   offset="0.6456"
   style="stop-color:#EEEFF0"
   id="stop4022" />
		<stop
   offset="1"
   style="stop-color:#D8D9DB"
   id="stop4024" />
	</linearGradient><linearGradient
     id="SVGID_8_"
     gradientUnits="userSpaceOnUse"
     x1="-117.166"
     y1="122.1328"
     x2="-87.569702"
     y2="31.998501"
     gradientTransform="matrix(1,0,0,-1,192.3999,143.0996)">
		<stop
   offset="0"
   style="stop-color:#FFFFFF"
   id="stop4029" />
		<stop
   offset="1"
   style="stop-color:#E4E5E6"
   id="stop4031" />
	</linearGradient><linearGradient
     id="SVGID_9_"
     gradientUnits="userSpaceOnUse"
     x1="54.653301"
     y1="25.2764"
     x2="79.683601"
     y2="106.3903">
		<stop
   offset="0"
   style="stop-color:#FFFFFF"
   id="stop4036" />
		<stop
   offset="0.7473"
   style="stop-color:#F9F9F9"
   id="stop4038" />
		<stop
   offset="1"
   style="stop-color:#D5D7D8"
   id="stop4040" />
	</linearGradient><linearGradient
     id="SVGID_10_"
     gradientUnits="userSpaceOnUse"
     x1="-115.3369"
     y1="119.6328"
     x2="-134.85719"
     y2="24.6462"
     gradientTransform="matrix(1,0,0,-1,192.3999,143.0996)">
		<stop
   offset="0"
   style="stop-color:#FFFFFF"
   id="stop4061" />
		<stop
   offset="1"
   style="stop-color:#E4E5E6"
   id="stop4063" />
	</linearGradient><linearGradient
     id="SVGID_11_"
     gradientUnits="userSpaceOnUse"
     x1="32.519001"
     y1="33.077099"
     x2="37.2481"
     y2="92.496101">
		<stop
   offset="0.2198"
   style="stop-color:#989A9C"
   id="stop4068" />
		<stop
   offset="0.2527"
   style="stop-color:#FFFFFF"
   id="stop4070" />
	</linearGradient><linearGradient
     id="SVGID_12_"
     gradientUnits="userSpaceOnUse"
     x1="-152.6201"
     y1="126.8398"
     x2="-171.9462"
     y2="32.797901"
     gradientTransform="matrix(1,0,0,-1,192.3999,143.0996)">
		<stop
   offset="0"
   style="stop-color:#FFFFFF"
   id="stop4075" />
		<stop
   offset="1"
   style="stop-color:#E4E5E6"
   id="stop4077" />
	</linearGradient><linearGradient
     id="SVGID_13_"
     gradientUnits="userSpaceOnUse"
     x1="-130.1348"
     y1="35.625"
     x2="-130.14281"
     y2="35.585701"
     gradientTransform="matrix(1,0,0,-1,192.3999,143.0996)">
		<stop
   offset="0"
   style="stop-color:#FFFFFF"
   id="stop4082" />
		<stop
   offset="1"
   style="stop-color:#E4E5E6"
   id="stop4084" />
	</linearGradient><linearGradient
     id="SVGID_14_"
     gradientUnits="userSpaceOnUse"
     x1="-121.1382"
     y1="120.3223"
     x2="-140.54491"
     y2="25.888"
     gradientTransform="matrix(1,0,0,-1,192.3999,143.0996)">
		<stop
   offset="0"
   style="stop-color:#FFFFFF"
   id="stop4093" />
		<stop
   offset="1"
   style="stop-color:#E4E5E6"
   id="stop4095" />
	</linearGradient><linearGradient
     id="SVGID_15_"
     gradientUnits="userSpaceOnUse"
     x1="-135.58591"
     y1="123.3525"
     x2="-155.006"
     y2="28.8524"
     gradientTransform="matrix(1,0,0,-1,192.3999,143.0996)">
		<stop
   offset="0"
   style="stop-color:#FFFFFF"
   id="stop4100" />
		<stop
   offset="1"
   style="stop-color:#E4E5E6"
   id="stop4102" />
	</linearGradient><linearGradient
     id="SVGID_16_"
     gradientUnits="userSpaceOnUse"
     x1="-127.4014"
     y1="121.9365"
     x2="-146.8837"
     y2="27.1346"
     gradientTransform="matrix(1,0,0,-1,192.3999,143.0996)">
		<stop
   offset="0"
   style="stop-color:#FFFFFF"
   id="stop4107" />
		<stop
   offset="1"
   style="stop-color:#E4E5E6"
   id="stop4109" />
	</linearGradient><linearGradient
     id="SVGID_17_"
     gradientUnits="userSpaceOnUse"
     x1="-118.4946"
     y1="124.0039"
     x2="-138.85201"
     y2="24.9438"
     gradientTransform="matrix(1,0,0,-1,192.3999,143.0996)">
		<stop
   offset="0"
   style="stop-color:#FFFFFF"
   id="stop4114" />
		<stop
   offset="1"
   style="stop-color:#E4E5E6"
   id="stop4116" />
	</linearGradient><linearGradient
     id="SVGID_18_"
     gradientUnits="userSpaceOnUse"
     x1="-115.3716"
     y1="119.1758"
     x2="-134.7878"
     y2="24.695299"
     gradientTransform="matrix(1,0,0,-1,192.3999,143.0996)">
		<stop
   offset="0"
   style="stop-color:#FFFFFF"
   id="stop4121" />
		<stop
   offset="1"
   style="stop-color:#E4E5E6"
   id="stop4123" />
	</linearGradient><linearGradient
     id="SVGID_21_"
     gradientUnits="userSpaceOnUse"
     x1="-175.4424"
     y1="83.6045"
     x2="-75.6362"
     y2="83.6045"
     gradientTransform="matrix(1,0,0,-1,192.3999,143.0996)">
		<stop
   offset="0"
   style="stop-color:#555555"
   id="stop4198" />
		<stop
   offset="1"
   style="stop-color:#231F20"
   id="stop4200" />
	</linearGradient><linearGradient
     id="SVGID_22_"
     gradientUnits="userSpaceOnUse"
     x1="-175.14211"
     y1="104.0801"
     x2="-83.541"
     y2="104.0801"
     gradientTransform="matrix(1,0,0,-1,192.3999,143.0996)">
		<stop
   offset="0"
   style="stop-color:#A0A0A0"
   id="stop4205" />
		<stop
   offset="0.0769"
   style="stop-color:#656767"
   id="stop4207" />
		<stop
   offset="1"
   style="stop-color:#717375"
   id="stop4209" />
	</linearGradient><linearGradient
     id="SVGID_23_"
     gradientUnits="userSpaceOnUse"
     x1="-172.3853"
     y1="78.209"
     x2="-172.3853"
     y2="78.209"
     gradientTransform="matrix(1,0,0,-1,192.3999,143.0996)">
		<stop
   offset="0"
   style="stop-color:#FFFFFF"
   id="stop4224" />
		<stop
   offset="0.078"
   style="stop-color:#F4F4F4"
   id="stop4226" />
		<stop
   offset="0.3807"
   style="stop-color:#CECECE"
   id="stop4228" />
		<stop
   offset="0.5396"
   style="stop-color:#BFBFBF"
   id="stop4230" />
		<stop
   offset="0.8357"
   style="stop-color:#7C7C7C"
   id="stop4232" />
		<stop
   offset="0.8996"
   style="stop-color:#A8A8A8"
   id="stop4234" />
		<stop
   offset="0.9093"
   style="stop-color:#9A9A9A"
   id="stop4236" />
		<stop
   offset="0.9327"
   style="stop-color:#7D7D7D"
   id="stop4238" />
		<stop
   offset="0.9558"
   style="stop-color:#686868"
   id="stop4240" />
		<stop
   offset="0.9785"
   style="stop-color:#5B5B5B"
   id="stop4242" />
		<stop
   offset="1"
   style="stop-color:#575757"
   id="stop4244" />
	</linearGradient><linearGradient
     id="SVGID_24_"
     gradientUnits="userSpaceOnUse"
     x1="-175.7173"
     y1="78.449203"
     x2="-67.153198"
     y2="90.476799"
     gradientTransform="matrix(1,0,0,-1,192.3999,143.0996)">
		<stop
   offset="0"
   style="stop-color:#FFFFFF"
   id="stop4249" />
		<stop
   offset="0.078"
   style="stop-color:#F4F4F4"
   id="stop4251" />
		<stop
   offset="0.3807"
   style="stop-color:#CECECE"
   id="stop4253" />
		<stop
   offset="0.5396"
   style="stop-color:#BFBFBF"
   id="stop4255" />
		<stop
   offset="0.8357"
   style="stop-color:#7C7C7C"
   id="stop4257" />
		<stop
   offset="0.8996"
   style="stop-color:#A8A8A8"
   id="stop4259" />
		<stop
   offset="0.9093"
   style="stop-color:#9A9A9A"
   id="stop4261" />
		<stop
   offset="0.9327"
   style="stop-color:#7D7D7D"
   id="stop4263" />
		<stop
   offset="0.9558"
   style="stop-color:#686868"
   id="stop4265" />
		<stop
   offset="0.9785"
   style="stop-color:#5B5B5B"
   id="stop4267" />
		<stop
   offset="1"
   style="stop-color:#575757"
   id="stop4269" />
	</linearGradient><linearGradient
     id="SVGID_25_"
     gradientUnits="userSpaceOnUse"
     x1="-176.1851"
     y1="78.4795"
     x2="-52.131699"
     y2="92.223099"
     gradientTransform="matrix(1,0,0,-1,192.3999,143.0996)">
		<stop
   offset="0"
   style="stop-color:#FFFFFF"
   id="stop4274" />
		<stop
   offset="0.078"
   style="stop-color:#F4F4F4"
   id="stop4276" />
		<stop
   offset="0.3807"
   style="stop-color:#CECECE"
   id="stop4278" />
		<stop
   offset="0.5396"
   style="stop-color:#BFBFBF"
   id="stop4280" />
		<stop
   offset="0.8357"
   style="stop-color:#7C7C7C"
   id="stop4282" />
		<stop
   offset="0.8996"
   style="stop-color:#A8A8A8"
   id="stop4284" />
		<stop
   offset="0.9093"
   style="stop-color:#9A9A9A"
   id="stop4286" />
		<stop
   offset="0.9327"
   style="stop-color:#7D7D7D"
   id="stop4288" />
		<stop
   offset="0.9558"
   style="stop-color:#686868"
   id="stop4290" />
		<stop
   offset="0.9785"
   style="stop-color:#5B5B5B"
   id="stop4292" />
		<stop
   offset="1"
   style="stop-color:#575757"
   id="stop4294" />
	</linearGradient><linearGradient
     id="SVGID_26_"
     gradientUnits="userSpaceOnUse"
     x1="21.2129"
     y1="71.326698"
     x2="117.1948"
     y2="51.952599">
		<stop
   offset="0"
   style="stop-color:#EDEDEE"
   id="stop4299" />
		<stop
   offset="0.4176"
   style="stop-color:#FFFFFF"
   id="stop4301" />
		<stop
   offset="0.6264"
   style="stop-color:#F8F9F9"
   id="stop4303" />
		<stop
   offset="1"
   style="stop-color:#BFC0C2"
   id="stop4305" />
	</linearGradient><linearGradient
     id="SVGID_27_"
     gradientUnits="userSpaceOnUse"
     x1="23.471201"
     y1="30.732401"
     x2="27.9561"
     y2="30.732401">
		<stop
   offset="0"
   style="stop-color:#E2E3E4"
   id="stop4316" />
		<stop
   offset="0.5055"
   style="stop-color:#FFFFFF"
   id="stop4318" />
	</linearGradient><linearGradient
     id="SVGID_34_"
     gradientUnits="userSpaceOnUse"
     x1="22.5742"
     y1="49.7188"
     x2="111.5455"
     y2="29.204">
		<stop
   offset="0"
   style="stop-color:#FFFFFF"
   id="stop4743" />
		<stop
   offset="0.6538"
   style="stop-color:#FFFFFF"
   id="stop4745" />
		<stop
   offset="1"
   style="stop-color:#CBCCCE"
   id="stop4747" />
	</linearGradient><linearGradient
     id="SVGID_35_"
     gradientUnits="userSpaceOnUse"
     x1="-158.8101"
     y1="107.0898"
     x2="-126.4229"
     y2="107.0898"
     gradientTransform="matrix(1,0,0,-1,192.3999,143.0996)">
		<stop
   offset="0"
   style="stop-color:#696969"
   id="stop4770" />
		<stop
   offset="0.3702"
   style="stop-color:#2E2E2E"
   id="stop4772" />
		<stop
   offset="0.4554"
   style="stop-color:#424242"
   id="stop4774" />
		<stop
   offset="0.6014"
   style="stop-color:#303030"
   id="stop4776" />
		<stop
   offset="0.6947"
   style="stop-color:#4A4A4A"
   id="stop4778" />
		<stop
   offset="1"
   style="stop-color:#666666"
   id="stop4780" />
	</linearGradient><linearGradient
     id="SVGID_36_"
     gradientUnits="userSpaceOnUse"
     x1="-158.4185"
     y1="107.8965"
     x2="-126.5454"
     y2="107.8965"
     gradientTransform="matrix(1,0,0,-1,192.3999,143.0996)">
		<stop
   offset="0"
   style="stop-color:#525252"
   id="stop4785" />
		<stop
   offset="0.1856"
   style="stop-color:#333333"
   id="stop4787" />
		<stop
   offset="0.354"
   style="stop-color:#AEAEAE"
   id="stop4789" />
		<stop
   offset="0.4199"
   style="stop-color:#ADADAD"
   id="stop4791" />
		<stop
   offset="0.4276"
   style="stop-color:#9D9D9D"
   id="stop4793" />
		<stop
   offset="0.4433"
   style="stop-color:#818181"
   id="stop4795" />
		<stop
   offset="0.4611"
   style="stop-color:#6A6A6A"
   id="stop4797" />
		<stop
   offset="0.4814"
   style="stop-color:#585858"
   id="stop4799" />
		<stop
   offset="0.506"
   style="stop-color:#4C4C4C"
   id="stop4801" />
		<stop
   offset="0.539"
   style="stop-color:#444444"
   id="stop4803" />
		<stop
   offset="0.6166"
   style="stop-color:#424242"
   id="stop4805" />
		<stop
   offset="0.6684"
   style="stop-color:#454545"
   id="stop4807" />
		<stop
   offset="1"
   style="stop-color:#BDBDBD"
   id="stop4809" />
	</linearGradient><linearGradient
     id="SVGID_37_"
     gradientUnits="userSpaceOnUse"
     x1="-153.1255"
     y1="97.627899"
     x2="-154.15421"
     y2="104.4332"
     gradientTransform="matrix(1,0,0,-1,192.3999,143.0996)">
		<stop
   offset="0"
   style="stop-color:#969696"
   id="stop4814" />
		<stop
   offset="1"
   style="stop-color:#000000"
   id="stop4816" />
	</linearGradient><linearGradient
     id="SVGID_38_"
     gradientUnits="userSpaceOnUse"
     x1="38.737301"
     y1="46.373001"
     x2="39.487301"
     y2="38.790001">
		<stop
   offset="0"
   style="stop-color:#333333"
   id="stop4825" />
		<stop
   offset="0.431"
   style="stop-color:#000000"
   id="stop4827" />
		<stop
   offset="1"
   style="stop-color:#2E2E2E"
   id="stop4829" />
	</linearGradient><radialGradient
     id="SVGID_39_"
     cx="-138.2334"
     cy="106.5996"
     r="72.751701"
     gradientTransform="matrix(1,0,0,-1,192.3999,143.0996)"
     gradientUnits="userSpaceOnUse">
		<stop
   offset="0"
   style="stop-color:#000000;stop-opacity:0;"
   id="stop4840" />
		<stop
   offset="0.80220002"
   style="stop-color:#000000;stop-opacity:0.08;"
   id="stop4842" />
		<stop
   offset="1"
   style="stop-color:#000000;stop-opacity:0.3882353;"
   id="stop4844" />
	</radialGradient></defs><g
   transform="translate(-6.5401047,-138.50445)"
   id="The_Free_Encyclopedia">
		
		
		
		
		
		
		
		
		
		
		
		
		
		
		
		
		
		
	<g
   id="text3541"
   style="font-style:normal;font-weight:normal;font-size:40px;line-height:125%;font-family:Sans;letter-spacing:0px;word-spacing:0px;fill:#000000;fill-opacity:1;stroke:none"><path
     id="path6300"
     style="font-variant:normal;font-stretch:normal;font-size:12px;font-family:'Linux Libertine';-inkscape-font-specification:'Linux Libertine'"
     d="m 9.6748695,143.48489 h 2.0859375 l -1.166016,-3.19921 h -0.02344 l -1.201172,3.04687 c -0.02344,0.0586 -0.011722,0.0986 0.035156,0.12012 0.046872,0.0215 0.1367157,0.0322 0.2695312,0.0322 z m -1.3359375,2.44922 c -0.066408,0.16797 -0.057619,0.30567 0.026367,0.41309 0.083982,0.10742 0.2353495,0.1709 0.4541016,0.19043 l 0.3515625,0.0234 c 0.062497,0 0.093747,0.0312 0.09375,0.0937 v 0.22851 l -0.023437,0.0234 c -0.5937521,-0.0156 -1.1171891,-0.0234 -1.5703125,-0.0234 -0.1445323,0 -0.5136725,0.008 -1.1074219,0.0234 l -0.023437,-0.0234 v -0.22851 c 0,-0.0625 0.03125,-0.0937 0.09375,-0.0937 0.2929684,-0.0195 0.5244134,-0.0879 0.6943359,-0.20508 0.1699209,-0.11719 0.3271473,-0.34961 0.4716797,-0.69727 l 2.6660157,-6.24023 c 0.07422,-0.16406 0.138668,-0.27734 0.19336,-0.33985 0.05468,-0.0625 0.124995,-0.0937 0.210937,-0.0937 0.07812,1e-5 0.139644,0.0283 0.18457,0.085 0.04492,0.0566 0.09277,0.14943 0.143555,0.27833 l 2.460938,6.5039 c 0.08202,0.23047 0.189445,0.39746 0.322265,0.50098 0.132805,0.10351 0.320305,0.16894 0.5625,0.19629 l 0.134766,0.0117 c 0.07812,0 0.117179,0.0312 0.117187,0.0937 v 0.22851 l -0.02344,0.0234 c -0.593758,-0.0156 -1.062507,-0.0234 -1.40625,-0.0234 -0.468757,0 -1.000006,0.008 -1.59375,0.0234 l -0.01172,-0.0234 v -0.22851 c -5e-6,-0.0625 0.02734,-0.0937 0.08203,-0.0937 l 0.339844,-0.0234 c 0.230463,-0.0195 0.386713,-0.0693 0.46875,-0.14942 0.08202,-0.0801 0.09374,-0.20214 0.03516,-0.36621 l -0.732422,-2.0332 H 9.4580725 c -0.1406278,0 -0.238284,0.0146 -0.2929688,0.0439 -0.05469,0.0293 -0.097659,0.083 -0.1289062,0.16113 z" /><path
     id="path6302"
     style="font-variant:normal;font-stretch:normal;font-size:12px;font-family:'Linux Libertine';-inkscape-font-specification:'Linux Libertine'"
     d="m 16.852604,141.61575 -0.03516,1.06641 h 0.03516 c 0.355466,-0.41796 0.684568,-0.70019 0.987305,-0.84668 0.302731,-0.14648 0.625973,-0.21972 0.969726,-0.21973 0.261715,1e-5 0.481441,0.0469 0.65918,0.14063 0.177729,0.0937 0.313471,0.23145 0.407226,0.41308 0.09374,0.18165 0.159175,0.37891 0.196289,0.5918 0.03711,0.2129 0.05566,0.46387 0.05566,0.75293 v 2.50781 c -6e-6,0.17188 0.0371,0.2959 0.111328,0.37207 0.07421,0.0762 0.205072,0.12403 0.392578,0.14356 l 0.228515,0.0234 c 0.07031,0.0156 0.105463,0.0469 0.105469,0.0937 v 0.22851 l -0.02344,0.0234 c -0.640631,-0.0156 -1.068365,-0.0234 -1.283203,-0.0234 -0.152349,0 -0.548833,0.008 -1.189454,0.0234 l -0.02344,-0.0234 v -0.22851 c -4e-6,-0.0508 0.0332,-0.082 0.09961,-0.0937 l 0.164063,-0.0234 c 0.199214,-0.0312 0.334957,-0.083 0.407226,-0.15528 0.07226,-0.0723 0.108394,-0.19238 0.108399,-0.36035 v -2.5957 c -5e-6,-0.44531 -0.05372,-0.76269 -0.161133,-0.95215 -0.107426,-0.18945 -0.31348,-0.28417 -0.618164,-0.28418 -0.277347,1e-5 -0.539066,0.0684 -0.785156,0.20508 -0.246097,0.13672 -0.515628,0.37696 -0.808594,0.7207 v 2.90625 c -2e-6,0.17188 0.03613,0.29297 0.108398,0.36328 0.07226,0.0703 0.208006,0.1211 0.407227,0.15235 l 0.169922,0.0234 c 0.0625,0.0117 0.09375,0.043 0.09375,0.0937 v 0.22851 l -0.02344,0.0234 c -0.640627,-0.0156 -1.04883,-0.0234 -1.224609,-0.0234 -0.191408,0 -0.607423,0.008 -1.248047,0.0234 l -0.02344,-0.0234 v -0.22851 c -1e-6,-0.0508 0.03125,-0.082 0.09375,-0.0937 l 0.228515,-0.0234 c 0.199218,-0.0195 0.33496,-0.0664 0.407227,-0.14063 0.07226,-0.0742 0.108397,-0.19921 0.108398,-0.375 v -2.98828 c -1e-6,-0.28515 -0.02051,-0.47753 -0.06152,-0.57715 -0.04102,-0.0996 -0.1084,-0.15527 -0.202149,-0.16699 l -0.515625,-0.0527 -0.02344,-0.28711 c 0.765624,-0.11718 1.318358,-0.24023 1.658203,-0.36914 0.03125,0 0.04687,0.0117 0.04687,0.0351 z" /><path
     id="path6304"
     style="font-variant:normal;font-stretch:normal;font-size:12px;font-family:'Linux Libertine';-inkscape-font-specification:'Linux Libertine'"
     d="m 25.284245,146.022 v -5.89453 c -2e-6,-0.37108 -0.02832,-0.62011 -0.08496,-0.74707 -0.05664,-0.12694 -0.149415,-0.19042 -0.278321,-0.19043 l -0.380859,-0.0234 c -0.05078,1e-5 -0.07617,-0.0195 -0.07617,-0.0586 l -0.02344,-0.28711 c 0.249999,-0.0195 0.544921,-0.0615 0.884765,-0.12598 0.339842,-0.0644 0.585936,-0.12792 0.738281,-0.19042 0.101561,0 0.152342,0.041 0.152344,0.12304 -0.02344,0.32032 -0.03516,0.74024 -0.03516,1.25977 v 6.13476 c -2e-6,0.17579 0.03515,0.30078 0.105469,0.375 0.07031,0.0742 0.203122,0.1211 0.398437,0.14063 l 0.28711,0.0234 c 0.0664,0 0.09961,0.0312 0.09961,0.0937 v 0.22851 l -0.02344,0.0234 c -0.804689,-0.0156 -1.250001,-0.0234 -1.335937,-0.0234 -0.07422,0 -0.509767,0.008 -1.306641,0.0234 l -0.01172,-0.0234 v -0.22851 c -10e-7,-0.0625 0.02734,-0.0937 0.08203,-0.0937 l 0.287109,-0.0234 c 0.199218,-0.0195 0.335937,-0.0664 0.410156,-0.14063 0.07422,-0.0742 0.111327,-0.19921 0.111329,-0.375 z" /><path
     id="path6306"
     style="font-variant:normal;font-stretch:normal;font-size:12px;font-family:'Linux Libertine';-inkscape-font-specification:'Linux Libertine'"
     d="m 28.665104,143.43802 h 2.203125 c 0.113277,0 0.169918,-0.0547 0.169922,-0.16406 -4e-6,-0.23828 -0.03028,-0.44336 -0.09082,-0.61524 -0.06055,-0.17187 -0.142581,-0.30175 -0.246093,-0.38965 -0.103519,-0.0879 -0.208988,-0.15038 -0.316407,-0.1875 -0.107424,-0.0371 -0.221682,-0.0557 -0.342773,-0.0557 -0.07813,0 -0.155276,0.005 -0.231445,0.0146 -0.07617,0.01 -0.178714,0.041 -0.307617,0.0937 -0.128909,0.0527 -0.243167,0.12598 -0.342774,0.21972 -0.09961,0.0938 -0.197267,0.23438 -0.292969,0.42188 -0.0957,0.1875 -0.163087,0.40821 -0.202148,0.66211 z m 3.164062,2.30273 c 0.124996,0.0117 0.205074,0.0762 0.240235,0.19336 -0.238286,0.32813 -0.531254,0.58789 -0.878906,0.7793 -0.34766,0.19141 -0.730472,0.28711 -1.148438,0.28711 -0.781252,0 -1.372072,-0.23438 -1.772461,-0.70313 -0.400391,-0.46875 -0.600586,-1.07031 -0.600586,-1.80468 0,-0.4375 0.07031,-0.8418 0.210938,-1.21289 0.140624,-0.37109 0.324217,-0.67578 0.550781,-0.91407 0.226561,-0.23827 0.47949,-0.42284 0.758789,-0.55371 0.279295,-0.13085 0.563474,-0.19628 0.852539,-0.19629 0.304684,1e-5 0.574215,0.041 0.808594,0.12305 0.234371,0.082 0.422847,0.18848 0.565429,0.31934 0.142574,0.13086 0.258785,0.29004 0.348633,0.47754 0.08984,0.1875 0.151363,0.375 0.184571,0.5625 0.0332,0.1875 0.0498,0.38867 0.0498,0.60351 -4e-6,0.13672 -0.07227,0.20508 -0.216797,0.20508 h -3.158203 c -1e-6,0.34375 0.03808,0.65918 0.114258,0.94629 0.07617,0.28711 0.173827,0.52441 0.292969,0.71191 0.119139,0.1875 0.255857,0.34668 0.410156,0.47754 0.154295,0.13086 0.305662,0.22559 0.454102,0.28418 0.148434,0.0586 0.292965,0.0879 0.433593,0.0879 0.324216,0 0.601559,-0.0537 0.832032,-0.16113 0.230464,-0.10742 0.45312,-0.27832 0.667968,-0.5127 z" /><path
     id="path6308"
     style="font-variant:normal;font-stretch:normal;font-size:12px;font-family:'Linux Libertine';-inkscape-font-specification:'Linux Libertine'"
     d="m 35.883854,144.08841 -0.949219,0.25195 c -0.773439,0.21094 -1.160157,0.6504 -1.160156,1.31836 -10e-7,0.21485 0.07812,0.41114 0.234375,0.58887 0.156248,0.17773 0.373045,0.2666 0.650391,0.2666 0.273434,0 0.624997,-0.17383 1.054687,-0.52148 0.113278,-0.0781 0.169918,-0.18164 0.169922,-0.31055 z m 0,2.2207 h -0.02344 l -0.240234,0.1875 c -0.265628,0.20703 -0.481448,0.34278 -0.647461,0.40723 -0.166018,0.0644 -0.385744,0.0967 -0.65918,0.0967 -0.453126,0 -0.814454,-0.10352 -1.083984,-0.31055 -0.269532,-0.20703 -0.404297,-0.53515 -0.404297,-0.98437 0,-0.39844 0.17871,-0.75098 0.536133,-1.05762 0.357421,-0.30664 0.831053,-0.53418 1.420898,-0.68262 l 1.03125,-0.25195 c 0.04687,-0.0156 0.07031,-0.0625 0.07031,-0.14063 -4e-6,-0.26171 -0.02149,-0.4912 -0.06445,-0.68847 -0.04297,-0.19726 -0.09571,-0.35254 -0.158203,-0.46582 -0.0625,-0.11328 -0.139652,-0.2041 -0.231446,-0.27246 -0.0918,-0.0684 -0.177737,-0.11426 -0.257812,-0.1377 -0.08008,-0.0234 -0.166995,-0.0351 -0.260742,-0.0351 -0.257815,0 -0.488284,0.0469 -0.691407,0.14062 -0.203126,0.0937 -0.304689,0.22852 -0.304687,0.4043 -2e-6,0.10938 0.0078,0.1875 0.02344,0.23437 0.02344,0.0508 0.03515,0.12305 0.03516,0.2168 -2e-6,0.0937 -0.04785,0.1836 -0.143555,0.26953 -0.0957,0.0859 -0.223634,0.12891 -0.383789,0.12891 -0.277345,0 -0.416016,-0.14063 -0.416016,-0.42188 0,-0.21093 0.0957,-0.41992 0.28711,-0.62695 0.191405,-0.20703 0.441405,-0.37597 0.75,-0.50684 0.308591,-0.13085 0.621091,-0.19628 0.9375,-0.19629 0.191403,10e-6 0.366208,0.0156 0.524414,0.0469 0.1582,0.0312 0.317379,0.0908 0.477539,0.17871 0.160152,0.0879 0.293941,0.20411 0.401367,0.34863 0.107418,0.14454 0.195308,0.34083 0.263672,0.58887 0.06836,0.24805 0.102535,0.53614 0.102539,0.86426 v 1.78711 c -4e-6,0.11328 9.72e-4,0.2041 0.0029,0.27246 0.0019,0.0684 0.0078,0.14844 0.01758,0.24023 0.0098,0.0918 0.02441,0.16406 0.04395,0.2168 0.01953,0.0527 0.04589,0.10644 0.0791,0.16113 0.0332,0.0547 0.07812,0.0937 0.134765,0.11719 0.05664,0.0234 0.122066,0.0352 0.196289,0.0352 0.08593,0 0.156245,-0.0156 0.210938,-0.0469 0.05468,-0.0312 0.0957,-0.0625 0.123047,-0.0937 0.02734,-0.0312 0.04882,-0.0469 0.06445,-0.0469 0.02343,0 0.05175,0.0195 0.08496,0.0586 0.0332,0.0391 0.0498,0.0781 0.0498,0.11719 -5e-6,0.0156 -0.01563,0.043 -0.04687,0.082 -0.03126,0.0391 -0.07715,0.084 -0.137695,0.13476 -0.06055,0.0508 -0.129888,0.10059 -0.208008,0.14942 -0.07813,0.0488 -0.170903,0.0898 -0.27832,0.12304 -0.107427,0.0332 -0.215825,0.0498 -0.325195,0.0498 -0.472661,0 -0.773441,-0.23047 -0.902344,-0.69141 z" /><path
     id="path6310"
     style="font-variant:normal;font-stretch:normal;font-size:12px;font-family:'Linux Libertine';-inkscape-font-specification:'Linux Libertine'"
     d="m 39.639713,146.03372 c 0.14453,0.17969 0.282225,0.31836 0.413086,0.41602 0.130857,0.0977 0.282224,0.14648 0.454102,0.14648 0.546872,0 0.963863,-0.2207 1.250976,-0.66211 0.287105,-0.4414 0.43066,-1.02148 0.430664,-1.74023 -4e-6,-0.57812 -0.12891,-1.06445 -0.386718,-1.45899 -0.257817,-0.39452 -0.570316,-0.59179 -0.9375,-0.59179 -0.08203,0 -0.173831,0.007 -0.275391,0.0205 -0.101565,0.0137 -0.250002,0.0615 -0.445312,0.14356 -0.195315,0.082 -0.363284,0.19532 -0.503907,0.33984 z m -0.896484,-5.90625 c -10e-7,-0.37108 -0.02832,-0.62011 -0.08496,-0.74707 -0.05664,-0.12694 -0.149415,-0.19042 -0.27832,-0.19043 l -0.38086,-0.0234 c -0.05078,1e-5 -0.07617,-0.0195 -0.07617,-0.0586 l -0.02344,-0.28711 c 0.246093,-0.0195 0.541991,-0.0625 0.887695,-0.1289 0.345702,-0.0664 0.590819,-0.1289 0.735352,-0.1875 0.10156,0 0.152342,0.041 0.152344,0.12304 -0.02344,0.32032 -0.03516,0.74024 -0.03516,1.25977 v 2.39062 c 0.406248,-0.4414 0.894529,-0.6621 1.464844,-0.66211 0.261715,1e-5 0.517574,0.0557 0.767578,0.167 0.249996,0.11133 0.474605,0.26563 0.673828,0.46289 0.199214,0.19727 0.35937,0.44727 0.480469,0.75 0.121088,0.30273 0.181635,0.62988 0.181641,0.98144 -6e-6,0.45703 -0.07911,0.88086 -0.237305,1.27149 -0.158208,0.39062 -0.364263,0.71093 -0.618164,0.96093 -0.253911,0.25 -0.53516,0.44434 -0.84375,0.58301 -0.308597,0.13867 -0.619144,0.20801 -0.931641,0.20801 -0.492189,0 -0.908205,-0.14649 -1.248047,-0.43945 -0.128907,0.1875 -0.259766,0.34375 -0.392578,0.46875 -0.109376,0 -0.19336,-0.0215 -0.251953,-0.0645 0.03906,-0.21875 0.05859,-0.52929 0.05859,-0.93164 z" /><path
     id="path6312"
     style="font-variant:normal;font-stretch:normal;font-size:12px;font-family:'Linux Libertine';-inkscape-font-specification:'Linux Libertine'"
     d="m 45.598698,139.88724 v 2.72461 c 0.66406,-0.66406 1.324215,-0.99609 1.980468,-0.9961 0.863277,1e-5 1.294917,0.61915 1.294922,1.85743 v 2.54882 c -5e-6,0.17579 0.03613,0.30078 0.108399,0.375 0.07226,0.0742 0.208002,0.1211 0.407226,0.14063 l 0.228516,0.0234 c 0.06249,0 0.09374,0.0312 0.09375,0.0937 v 0.22851 l -0.02344,0.0234 c -0.79688,-0.0156 -1.224614,-0.0234 -1.283203,-0.0234 -0.03516,0 -0.451176,0.008 -1.248047,0.0234 l -0.02344,-0.0234 v -0.22851 c -4e-6,-0.0508 0.03125,-0.082 0.09375,-0.0937 l 0.228516,-0.0234 c 0.203121,-0.0274 0.339839,-0.0762 0.410156,-0.14649 0.07031,-0.0703 0.105464,-0.19335 0.105469,-0.36914 v -2.67773 c -5e-6,-0.32031 -0.03321,-0.56543 -0.09961,-0.73535 -0.06641,-0.16992 -0.162113,-0.28418 -0.287109,-0.34278 -0.125004,-0.0586 -0.306644,-0.0879 -0.544922,-0.0879 -0.367191,1e-5 -0.847659,0.29298 -1.441406,0.87891 v 2.96484 c -2e-6,0.17579 0.03613,0.30078 0.108398,0.375 0.07226,0.0742 0.208006,0.1211 0.407227,0.14063 l 0.228515,0.0234 c 0.0625,0 0.09375,0.0312 0.09375,0.0937 v 0.22851 l -0.02344,0.0234 c -0.796877,-0.0156 -1.224611,-0.0234 -1.283203,-0.0234 -0.02735,0 -0.439455,0.008 -1.236328,0.0234 l -0.02344,-0.0234 v -0.22851 c 0,-0.0508 0.02734,-0.082 0.08203,-0.0937 l 0.228516,-0.0234 c 0.203124,-0.0274 0.339843,-0.0762 0.410156,-0.14649 0.07031,-0.0703 0.105468,-0.19335 0.105469,-0.36914 v -5.89453 c -10e-7,-0.37108 -0.02734,-0.62011 -0.08203,-0.74707 -0.05469,-0.12694 -0.146486,-0.19042 -0.275391,-0.19043 l -0.386719,-0.0234 c -0.04687,1e-5 -0.07031,-0.0195 -0.07031,-0.0586 l -0.02344,-0.28711 c 0.246094,-0.0195 0.540039,-0.0625 0.881836,-0.1289 0.341796,-0.0664 0.586913,-0.1289 0.735352,-0.1875 0.105467,0 0.158201,0.041 0.158203,0.12304 -0.02344,0.32032 -0.03516,0.74024 -0.03516,1.25977 z" /><path
     id="path6314"
     style="font-variant:normal;font-stretch:normal;font-size:12px;font-family:'Linux Libertine';-inkscape-font-specification:'Linux Libertine'"
     d="m 53.368229,144.08841 -0.949219,0.25195 c -0.773439,0.21094 -1.160157,0.6504 -1.160156,1.31836 -10e-7,0.21485 0.07812,0.41114 0.234375,0.58887 0.156248,0.17773 0.373045,0.2666 0.650391,0.2666 0.273434,0 0.624997,-0.17383 1.054687,-0.52148 0.113278,-0.0781 0.169918,-0.18164 0.169922,-0.31055 z m 0,2.2207 h -0.02344 l -0.240234,0.1875 c -0.265628,0.20703 -0.481448,0.34278 -0.647461,0.40723 -0.166018,0.0644 -0.385744,0.0967 -0.65918,0.0967 -0.453126,0 -0.814454,-0.10352 -1.083984,-0.31055 -0.269532,-0.20703 -0.404297,-0.53515 -0.404297,-0.98437 0,-0.39844 0.17871,-0.75098 0.536133,-1.05762 0.357421,-0.30664 0.831053,-0.53418 1.420898,-0.68262 l 1.03125,-0.25195 c 0.04687,-0.0156 0.07031,-0.0625 0.07031,-0.14063 -4e-6,-0.26171 -0.02149,-0.4912 -0.06445,-0.68847 -0.04297,-0.19726 -0.09571,-0.35254 -0.158203,-0.46582 -0.0625,-0.11328 -0.139652,-0.2041 -0.231446,-0.27246 -0.0918,-0.0684 -0.177737,-0.11426 -0.257812,-0.1377 -0.08008,-0.0234 -0.166995,-0.0351 -0.260742,-0.0351 -0.257815,0 -0.488284,0.0469 -0.691407,0.14062 -0.203126,0.0937 -0.304689,0.22852 -0.304687,0.4043 -2e-6,0.10938 0.0078,0.1875 0.02344,0.23437 0.02344,0.0508 0.03515,0.12305 0.03516,0.2168 -2e-6,0.0937 -0.04785,0.1836 -0.143555,0.26953 -0.0957,0.0859 -0.223634,0.12891 -0.383789,0.12891 -0.277345,0 -0.416016,-0.14063 -0.416016,-0.42188 0,-0.21093 0.0957,-0.41992 0.28711,-0.62695 0.191405,-0.20703 0.441405,-0.37597 0.75,-0.50684 0.308591,-0.13085 0.621091,-0.19628 0.9375,-0.19629 0.191403,10e-6 0.366208,0.0156 0.524414,0.0469 0.1582,0.0312 0.317379,0.0908 0.477539,0.17871 0.160152,0.0879 0.293941,0.20411 0.401367,0.34863 0.107418,0.14454 0.195308,0.34083 0.263672,0.58887 0.06836,0.24805 0.102535,0.53614 0.102539,0.86426 v 1.78711 c -4e-6,0.11328 9.72e-4,0.2041 0.0029,0.27246 0.0019,0.0684 0.0078,0.14844 0.01758,0.24023 0.0098,0.0918 0.02441,0.16406 0.04395,0.2168 0.01953,0.0527 0.04589,0.10644 0.0791,0.16113 0.0332,0.0547 0.07812,0.0937 0.134765,0.11719 0.05664,0.0234 0.122066,0.0352 0.196289,0.0352 0.08593,0 0.156245,-0.0156 0.210938,-0.0469 0.05468,-0.0312 0.0957,-0.0625 0.123047,-0.0937 0.02734,-0.0312 0.04882,-0.0469 0.06445,-0.0469 0.02343,0 0.05175,0.0195 0.08496,0.0586 0.0332,0.0391 0.0498,0.0781 0.0498,0.11719 -5e-6,0.0156 -0.01563,0.043 -0.04687,0.082 -0.03126,0.0391 -0.07715,0.084 -0.137695,0.13476 -0.06055,0.0508 -0.129888,0.10059 -0.208008,0.14942 -0.07813,0.0488 -0.170903,0.0898 -0.27832,0.12304 -0.107427,0.0332 -0.215825,0.0498 -0.325195,0.0498 -0.472661,0 -0.773441,-0.23047 -0.902344,-0.69141 z" /><path
     id="path6316"
     style="font-variant:normal;font-stretch:normal;font-size:12px;font-family:'Linux Libertine';-inkscape-font-specification:'Linux Libertine'"
     d="m 56.45612,146.022 v -2.98828 c -2e-6,-0.28124 -0.02149,-0.47265 -0.06445,-0.57422 -0.04297,-0.10155 -0.109376,-0.1582 -0.199218,-0.16992 l -0.515625,-0.0527 -0.0293,-0.28711 c 0.773436,-0.11718 1.32617,-0.24023 1.658203,-0.36914 0.03125,0 0.04687,0.0117 0.04687,0.0351 l -0.03516,1.07813 h 0.03516 c 0.484372,-0.71875 0.953122,-1.07812 1.40625,-1.07813 0.449215,10e-6 0.673824,0.1836 0.673828,0.55078 -4e-6,0.15626 -0.04688,0.27931 -0.140625,0.36915 -0.09375,0.0898 -0.220707,0.13476 -0.380859,0.13476 -0.187504,0 -0.349613,-0.0723 -0.486328,-0.2168 -0.07422,-0.0703 -0.1543,-0.10546 -0.240235,-0.10546 -0.07032,0 -0.167971,0.0547 -0.292969,0.16406 -0.125002,0.10938 -0.255861,0.26172 -0.392578,0.45703 -0.09766,0.125 -0.146486,0.26563 -0.146484,0.42187 v 2.63086 c -2e-6,0.17579 0.03906,0.30274 0.117187,0.38086 0.07812,0.0781 0.210936,0.12305 0.398438,0.13477 l 0.351562,0.0234 c 0.07031,0 0.105466,0.0312 0.105469,0.0937 v 0.22851 l -0.02344,0.0234 c -0.593753,-0.0156 -1.066409,-0.0234 -1.417969,-0.0234 -0.238283,0 -0.654298,0.008 -1.248047,0.0234 l -0.01172,-0.0234 v -0.22851 c 0,-0.0508 0.0293,-0.082 0.08789,-0.0937 l 0.228516,-0.0234 c 0.195311,-0.0195 0.330077,-0.0674 0.404296,-0.14356 0.07422,-0.0762 0.111327,-0.20019 0.111329,-0.37207 z" /><path
     id="path6318"
     style="font-variant:normal;font-stretch:normal;font-size:12px;font-family:'Linux Libertine';-inkscape-font-specification:'Linux Libertine'"
     d="m 62.83112,144.2056 h -2.589844 c -0.05469,0 -0.09863,-0.0225 -0.131836,-0.0674 -0.0332,-0.0449 -0.0498,-0.0986 -0.0498,-0.16113 0,-0.10937 0.03223,-0.21875 0.09668,-0.32812 0.06445,-0.10938 0.131835,-0.16406 0.202148,-0.16407 h 2.63086 c 0.109371,1e-5 0.164059,0.0801 0.164062,0.24024 -3e-6,0.082 -0.03516,0.18262 -0.105469,0.30176 -0.07032,0.11914 -0.142581,0.17871 -0.216796,0.17871 z" /><path
     id="path6320"
     style="font-variant:normal;font-stretch:normal;font-size:12px;font-family:'Linux Libertine';-inkscape-font-specification:'Linux Libertine'"
     d="m 65.040104,143.43802 h 2.203125 c 0.113277,0 0.169918,-0.0547 0.169922,-0.16406 -4e-6,-0.23828 -0.03028,-0.44336 -0.09082,-0.61524 -0.06055,-0.17187 -0.142581,-0.30175 -0.246093,-0.38965 -0.103519,-0.0879 -0.208988,-0.15038 -0.316407,-0.1875 -0.107424,-0.0371 -0.221682,-0.0557 -0.342773,-0.0557 -0.07813,0 -0.155276,0.005 -0.231445,0.0146 -0.07618,0.01 -0.178714,0.041 -0.307617,0.0937 -0.128909,0.0527 -0.243167,0.12598 -0.342774,0.21972 -0.09961,0.0938 -0.197267,0.23438 -0.292969,0.42188 -0.0957,0.1875 -0.163087,0.40821 -0.202148,0.66211 z m 3.164062,2.30273 c 0.124996,0.0117 0.205074,0.0762 0.240235,0.19336 -0.238286,0.32813 -0.531254,0.58789 -0.878906,0.7793 -0.34766,0.19141 -0.730472,0.28711 -1.148438,0.28711 -0.781252,0 -1.372072,-0.23438 -1.772461,-0.70313 -0.400391,-0.46875 -0.600586,-1.07031 -0.600586,-1.80468 0,-0.4375 0.07031,-0.8418 0.210938,-1.21289 0.140624,-0.37109 0.324217,-0.67578 0.550781,-0.91407 0.226561,-0.23827 0.47949,-0.42284 0.758789,-0.55371 0.279295,-0.13085 0.563474,-0.19628 0.852539,-0.19629 0.304684,1e-5 0.574215,0.041 0.808594,0.12305 0.234371,0.082 0.422847,0.18848 0.565429,0.31934 0.142574,0.13086 0.258785,0.29004 0.348633,0.47754 0.08984,0.1875 0.151363,0.375 0.184571,0.5625 0.0332,0.1875 0.0498,0.38867 0.0498,0.60351 -4e-6,0.13672 -0.07227,0.20508 -0.216797,0.20508 h -3.158203 c -10e-7,0.34375 0.03808,0.65918 0.114258,0.94629 0.07617,0.28711 0.173827,0.52441 0.292969,0.71191 0.119139,0.1875 0.255857,0.34668 0.410156,0.47754 0.154295,0.13086 0.305662,0.22559 0.454102,0.28418 0.148434,0.0586 0.292965,0.0879 0.433593,0.0879 0.324216,0 0.601559,-0.0537 0.832032,-0.16113 0.230464,-0.10742 0.45312,-0.27832 0.667968,-0.5127 z" /><path
     id="path6322"
     style="font-variant:normal;font-stretch:normal;font-size:12px;font-family:'Linux Libertine';-inkscape-font-specification:'Linux Libertine'"
     d="m 71.45612,138.83255 0.83789,1.51172 c 0.04687,0.0938 0.07031,0.18946 0.07031,0.28711 -4e-6,0.0312 -0.01758,0.0615 -0.05273,0.0908 -0.03516,0.0293 -0.07618,0.044 -0.123047,0.0439 -0.0586,1e-5 -0.175784,-0.0801 -0.351562,-0.24023 l -1.365234,-1.3125 0.02344,-0.12891 c 0.246092,-0.18358 0.505857,-0.27538 0.779297,-0.27539 0.05859,10e-6 0.119138,0.008 0.181641,0.0234 z m -2.25586,5.58984 c 0,-0.83984 0.21875,-1.51757 0.65625,-2.0332 0.437499,-0.51562 1.046873,-0.77343 1.828125,-0.77344 0.343747,1e-5 0.656247,0.0537 0.9375,0.16114 0.281246,0.10742 0.514644,0.25 0.700195,0.42773 0.185543,0.17774 0.341792,0.38477 0.46875,0.62109 0.126948,0.23634 0.217769,0.4795 0.272461,0.7295 0.05468,0.25 0.08203,0.50391 0.08203,0.76172 -6e-6,0.3125 -0.05176,0.62207 -0.155274,0.92871 -0.103521,0.30664 -0.251958,0.59277 -0.445312,0.85839 -0.193364,0.26563 -0.454106,0.48145 -0.782227,0.64747 -0.328129,0.16601 -0.695316,0.24902 -1.101562,0.24902 -0.386722,0 -0.740237,-0.0762 -1.060547,-0.22852 -0.320314,-0.15234 -0.58008,-0.35351 -0.779297,-0.60351 -0.19922,-0.25 -0.35254,-0.52539 -0.459961,-0.82617 -0.107422,-0.30078 -0.161133,-0.60742 -0.161133,-0.91993 z m 2.34961,-2.4082 c -0.30469,10e-6 -0.56055,0.1084 -0.767579,0.3252 -0.207033,0.2168 -0.35254,0.47949 -0.436523,0.78808 -0.08399,0.3086 -0.125978,0.64844 -0.125977,1.01953 -10e-7,0.19532 0.01855,0.39942 0.05566,0.61231 0.03711,0.21289 0.09863,0.43066 0.184571,0.65332 0.08594,0.22266 0.189451,0.42187 0.310547,0.59765 0.121091,0.17579 0.276365,0.31934 0.46582,0.43067 0.18945,0.11133 0.397458,0.16699 0.624023,0.16699 0.152341,0 0.295895,-0.0264 0.430664,-0.0791 0.134762,-0.0527 0.267575,-0.14453 0.398438,-0.27539 0.130855,-0.13086 0.235347,-0.3291 0.313477,-0.59473 0.07812,-0.26562 0.117183,-0.58593 0.117187,-0.96094 -4e-6,-0.87109 -0.136723,-1.53612 -0.410156,-1.99511 -0.273441,-0.45898 -0.66016,-0.68847 -1.160156,-0.68848 z" /><path
     id="path6324"
     style="font-variant:normal;font-stretch:normal;font-size:12px;font-family:'Linux Libertine';-inkscape-font-specification:'Linux Libertine'"
     d="m 75.721745,146.022 v -5.89453 c -2e-6,-0.37108 -0.02832,-0.62011 -0.08496,-0.74707 -0.05664,-0.12694 -0.149415,-0.19042 -0.278321,-0.19043 l -0.380859,-0.0234 c -0.05078,1e-5 -0.07617,-0.0195 -0.07617,-0.0586 l -0.02344,-0.28711 c 0.249999,-0.0195 0.544921,-0.0615 0.884765,-0.12598 0.339842,-0.0644 0.585936,-0.12792 0.738281,-0.19042 0.101561,0 0.152342,0.041 0.152344,0.12304 -0.02344,0.32032 -0.03516,0.74024 -0.03516,1.25977 v 6.13476 c -2e-6,0.17579 0.03515,0.30078 0.105469,0.375 0.07031,0.0742 0.203122,0.1211 0.398437,0.14063 l 0.28711,0.0234 c 0.0664,0 0.09961,0.0312 0.09961,0.0937 v 0.22851 l -0.02344,0.0234 c -0.804689,-0.0156 -1.250001,-0.0234 -1.335937,-0.0234 -0.07422,0 -0.509767,0.008 -1.306641,0.0234 l -0.01172,-0.0234 v -0.22851 c -10e-7,-0.0625 0.02734,-0.0937 0.08203,-0.0937 l 0.287109,-0.0234 c 0.199218,-0.0195 0.335937,-0.0664 0.410156,-0.14063 0.07422,-0.0742 0.111327,-0.19921 0.111329,-0.375 z" /><path
     id="path6326"
     style="font-variant:normal;font-stretch:normal;font-size:12px;font-family:'Linux Libertine';-inkscape-font-specification:'Linux Libertine'"
     d="m 81.188541,144.08841 -0.949218,0.25195 c -0.77344,0.21094 -1.160158,0.6504 -1.160157,1.31836 -10e-7,0.21485 0.07812,0.41114 0.234375,0.58887 0.156249,0.17773 0.373045,0.2666 0.650391,0.2666 0.273435,0 0.624997,-0.17383 1.054688,-0.52148 0.113277,-0.0781 0.169918,-0.18164 0.169921,-0.31055 z m 0,2.2207 h -0.02344 l -0.240234,0.1875 c -0.265628,0.20703 -0.481449,0.34278 -0.647461,0.40723 -0.166018,0.0644 -0.385745,0.0967 -0.65918,0.0967 -0.453127,0 -0.814454,-0.10352 -1.083984,-0.31055 -0.269532,-0.20703 -0.404298,-0.53515 -0.404297,-0.98437 -1e-6,-0.39844 0.17871,-0.75098 0.536132,-1.05762 0.357421,-0.30664 0.831053,-0.53418 1.420899,-0.68262 l 1.03125,-0.25195 c 0.04687,-0.0156 0.07031,-0.0625 0.07031,-0.14063 -3e-6,-0.26171 -0.02149,-0.4912 -0.06445,-0.68847 -0.04297,-0.19726 -0.09571,-0.35254 -0.158203,-0.46582 -0.0625,-0.11328 -0.139651,-0.2041 -0.231445,-0.27246 -0.0918,-0.0684 -0.177737,-0.11426 -0.257813,-0.1377 -0.08008,-0.0234 -0.166994,-0.0351 -0.260742,-0.0351 -0.257815,0 -0.488283,0.0469 -0.691406,0.14062 -0.203127,0.0937 -0.304689,0.22852 -0.304688,0.4043 -1e-6,0.10938 0.0078,0.1875 0.02344,0.23437 0.02344,0.0508 0.03516,0.12305 0.03516,0.2168 -10e-7,0.0937 -0.04785,0.1836 -0.143555,0.26953 -0.0957,0.0859 -0.223634,0.12891 -0.383789,0.12891 -0.277344,0 -0.416016,-0.14063 -0.416015,-0.42188 -10e-7,-0.21093 0.0957,-0.41992 0.287109,-0.62695 0.191405,-0.20703 0.441405,-0.37597 0.75,-0.50684 0.308592,-0.13085 0.621092,-0.19628 0.9375,-0.19629 0.191404,10e-6 0.366208,0.0156 0.524414,0.0469 0.1582,0.0312 0.31738,0.0908 0.477539,0.17871 0.160153,0.0879 0.293942,0.20411 0.401367,0.34863 0.107418,0.14454 0.195309,0.34083 0.263672,0.58887 0.06836,0.24805 0.102535,0.53614 0.102539,0.86426 v 1.78711 c -4e-6,0.11328 9.73e-4,0.2041 0.0029,0.27246 0.0019,0.0684 0.0078,0.14844 0.01758,0.24023 0.0098,0.0918 0.02441,0.16406 0.04395,0.2168 0.01953,0.0527 0.04589,0.10644 0.0791,0.16113 0.0332,0.0547 0.07812,0.0937 0.134766,0.11719 0.05664,0.0234 0.122065,0.0352 0.196289,0.0352 0.08593,0 0.156245,-0.0156 0.210937,-0.0469 0.05468,-0.0312 0.0957,-0.0625 0.123047,-0.0937 0.02734,-0.0312 0.04882,-0.0469 0.06445,-0.0469 0.02343,0 0.05175,0.0195 0.08496,0.0586 0.0332,0.0391 0.0498,0.0781 0.04981,0.11719 -5e-6,0.0156 -0.01563,0.043 -0.04687,0.082 -0.03126,0.0391 -0.07715,0.084 -0.137695,0.13476 -0.06055,0.0508 -0.129888,0.10059 -0.208008,0.14942 -0.07813,0.0488 -0.170903,0.0898 -0.278321,0.12304 -0.107426,0.0332 -0.215824,0.0498 -0.325195,0.0498 -0.47266,0 -0.773441,-0.23047 -0.902344,-0.69141 z" /><path
     id="path6328"
     style="font-variant:normal;font-stretch:normal;font-size:12px;font-family:'Linux Libertine';-inkscape-font-specification:'Linux Libertine'"
     d="m 84.311588,140.44974 c -0.113282,-0.11328 -0.169923,-0.24804 -0.169922,-0.4043 -10e-7,-0.15624 0.05664,-0.29198 0.169922,-0.40723 0.11328,-0.11522 0.248046,-0.17284 0.404297,-0.17285 0.156248,1e-5 0.29199,0.0566 0.407227,0.16992 0.115232,0.11329 0.172849,0.25001 0.172851,0.41016 -2e-6,0.15626 -0.05762,0.29102 -0.172851,0.4043 -0.115237,0.11329 -0.250979,0.16993 -0.407227,0.16992 -0.156251,1e-5 -0.291017,-0.0566 -0.404297,-0.16992 z m 0.960938,1.16601 c -0.02735,0.54298 -0.04102,1.01563 -0.04102,1.41797 v 2.98828 c -2e-6,0.17188 0.03808,0.2959 0.114258,0.37207 0.07617,0.0762 0.208005,0.12403 0.395508,0.14356 l 0.222656,0.0234 c 0.07422,0.0117 0.111325,0.043 0.111328,0.0937 v 0.22851 l -0.02344,0.0234 c -0.640628,-0.0156 -1.068362,-0.0234 -1.283203,-0.0234 -0.191408,0 -0.607423,0.008 -1.248047,0.0234 l -0.02344,-0.0234 v -0.22851 c 0,-0.0508 0.03125,-0.082 0.09375,-0.0937 l 0.228516,-0.0234 c 0.203124,-0.0274 0.339842,-0.0772 0.410156,-0.14942 0.07031,-0.0723 0.105468,-0.19433 0.105469,-0.36621 v -2.98828 c -10e-7,-0.28515 -0.02051,-0.47753 -0.06152,-0.57715 -0.04102,-0.0996 -0.108399,-0.15527 -0.202148,-0.16699 l -0.515625,-0.0527 -0.02344,-0.28711 c 0.804687,-0.12109 1.367186,-0.24414 1.6875,-0.36914 0.03516,0 0.05273,0.0117 0.05273,0.0351 z" /><path
     id="path6330"
     style="font-variant:normal;font-stretch:normal;font-size:12px;font-family:'Linux Libertine';-inkscape-font-specification:'Linux Libertine'"
     d="m 86.836979,145.20169 0.322266,-0.0117 c 0.07422,0.53907 0.218748,0.91602 0.433593,1.13086 0.08203,0.0859 0.201171,0.16504 0.357422,0.23731 0.156248,0.0723 0.333983,0.10839 0.533203,0.10839 0.242185,0 0.47656,-0.082 0.703125,-0.24609 0.22656,-0.16406 0.339841,-0.38086 0.339844,-0.65039 -3e-6,-0.26562 -0.08985,-0.49316 -0.269531,-0.68262 -0.17969,-0.18945 -0.501956,-0.38769 -0.966797,-0.59472 -0.250002,-0.10938 -0.443361,-0.20215 -0.580078,-0.27832 -0.13672,-0.0762 -0.266603,-0.17285 -0.389649,-0.29004 -0.123047,-0.11719 -0.208008,-0.25195 -0.254882,-0.4043 -0.04688,-0.15234 -0.07031,-0.33984 -0.07031,-0.5625 -1e-6,-0.39453 0.159179,-0.71679 0.477539,-0.9668 0.318358,-0.24999 0.717772,-0.37499 1.198242,-0.375 0.496091,1e-5 0.937497,0.0996 1.324219,0.29883 0.05859,0.32813 0.101559,0.73633 0.128906,1.22461 l -0.322265,0.0117 c -0.0586,-0.23047 -0.139652,-0.42871 -0.243164,-0.59473 -0.103519,-0.16601 -0.212894,-0.28808 -0.328125,-0.36621 -0.115238,-0.0781 -0.218753,-0.13378 -0.310547,-0.16699 -0.0918,-0.0332 -0.174807,-0.0498 -0.249024,-0.0498 -0.628908,0 -0.94336,0.26953 -0.943359,0.80859 -1e-6,0.24219 0.05957,0.43262 0.178711,0.57129 0.119139,0.13867 0.342771,0.2666 0.670898,0.38379 0.273435,0.10156 0.503904,0.20117 0.691407,0.29883 0.187496,0.0976 0.36816,0.21484 0.541992,0.35156 0.173824,0.13672 0.303707,0.29687 0.389648,0.48047 0.08593,0.18359 0.128902,0.39062 0.128906,0.62109 -4e-6,0.22656 -0.0459,0.43067 -0.137695,0.6123 -0.0918,0.18165 -0.205082,0.32715 -0.339844,0.43653 -0.134769,0.10937 -0.288089,0.20019 -0.459961,0.27246 -0.171877,0.0723 -0.331057,0.12207 -0.477539,0.14941 -0.146486,0.0274 -0.282229,0.041 -0.407226,0.041 -0.390627,0 -0.751955,-0.043 -1.083985,-0.12891 -0.05469,-0.0156 -0.128907,-0.0234 -0.222656,-0.0234 -0.0625,0 -0.156251,0.0117 -0.28125,0.0351 0,-0.42969 -0.02734,-0.99023 -0.08203,-1.68164 z" /><path
     id="path6332"
     style="font-variant:normal;font-stretch:normal;font-size:12px;font-family:'Linux Libertine';-inkscape-font-specification:'Linux Libertine'"
     d="m 94.219791,145.20169 0.322266,-0.0117 c 0.07422,0.53907 0.218749,0.91602 0.433594,1.13086 0.08203,0.0859 0.20117,0.16504 0.357422,0.23731 0.156248,0.0723 0.333982,0.10839 0.533203,0.10839 0.242185,0 0.47656,-0.082 0.703125,-0.24609 0.226559,-0.16406 0.33984,-0.38086 0.339844,-0.65039 -4e-6,-0.26562 -0.08985,-0.49316 -0.269532,-0.68262 -0.17969,-0.18945 -0.501955,-0.38769 -0.966797,-0.59472 -0.250001,-0.10938 -0.44336,-0.20215 -0.580078,-0.27832 -0.13672,-0.0762 -0.266602,-0.17285 -0.389648,-0.29004 -0.123048,-0.11719 -0.208009,-0.25195 -0.254883,-0.4043 -0.04688,-0.15234 -0.07031,-0.33984 -0.07031,-0.5625 -10e-7,-0.39453 0.159178,-0.71679 0.477539,-0.9668 0.318358,-0.24999 0.717771,-0.37499 1.198242,-0.375 0.496091,1e-5 0.937497,0.0996 1.324219,0.29883 0.05859,0.32813 0.101558,0.73633 0.128906,1.22461 l -0.322266,0.0117 c -0.0586,-0.23047 -0.139652,-0.42871 -0.243164,-0.59473 -0.103519,-0.16601 -0.212894,-0.28808 -0.328125,-0.36621 -0.115237,-0.0781 -0.218753,-0.13378 -0.310547,-0.16699 -0.0918,-0.0332 -0.174807,-0.0498 -0.249023,-0.0498 -0.628908,0 -0.943361,0.26953 -0.94336,0.80859 -10e-7,0.24219 0.05957,0.43262 0.178711,0.57129 0.119139,0.13867 0.342772,0.2666 0.670899,0.38379 0.273435,0.10156 0.503903,0.20117 0.691406,0.29883 0.187497,0.0976 0.368161,0.21484 0.541992,0.35156 0.173825,0.13672 0.303707,0.29687 0.389649,0.48047 0.08593,0.18359 0.128902,0.39062 0.128906,0.62109 -4e-6,0.22656 -0.0459,0.43067 -0.137695,0.6123 -0.0918,0.18165 -0.205082,0.32715 -0.339844,0.43653 -0.134769,0.10937 -0.288089,0.20019 -0.459961,0.27246 -0.171878,0.0723 -0.331058,0.12207 -0.477539,0.14941 -0.146487,0.0274 -0.282229,0.041 -0.407227,0.041 -0.390627,0 -0.751954,-0.043 -1.083984,-0.12891 -0.05469,-0.0156 -0.128907,-0.0234 -0.222656,-0.0234 -0.0625,0 -0.156251,0.0117 -0.28125,0.0351 -10e-7,-0.42969 -0.02734,-0.99023 -0.08203,-1.68164 z" /><path
     id="path6334"
     style="font-variant:normal;font-stretch:normal;font-size:12px;font-family:'Linux Libertine';-inkscape-font-specification:'Linux Libertine'"
     d="m 101.57917,144.08841 -0.94922,0.25195 c -0.773442,0.21094 -1.16016,0.6504 -1.160159,1.31836 -10e-7,0.21485 0.07812,0.41114 0.234375,0.58887 0.156249,0.17773 0.373044,0.2666 0.650394,0.2666 0.27343,0 0.62499,-0.17383 1.05468,-0.52148 0.11328,-0.0781 0.16992,-0.18164 0.16993,-0.31055 z m 0,2.2207 h -0.0234 l -0.24024,0.1875 c -0.26562,0.20703 -0.48144,0.34278 -0.64746,0.40723 -0.16601,0.0644 -0.38574,0.0967 -0.65918,0.0967 -0.453123,0 -0.81445,-0.10352 -1.08398,-0.31055 -0.269532,-0.20703 -0.404298,-0.53515 -0.404297,-0.98437 -10e-7,-0.39844 0.17871,-0.75098 0.536132,-1.05762 0.357421,-0.30664 0.831053,-0.53418 1.420895,-0.68262 l 1.03125,-0.25195 c 0.0469,-0.0156 0.0703,-0.0625 0.0703,-0.14063 -1e-5,-0.26171 -0.0215,-0.4912 -0.0645,-0.68847 -0.043,-0.19726 -0.0957,-0.35254 -0.1582,-0.46582 -0.0625,-0.11328 -0.13965,-0.2041 -0.23145,-0.27246 -0.0918,-0.0684 -0.17773,-0.11426 -0.25781,-0.1377 -0.0801,-0.0234 -0.16699,-0.0351 -0.26074,-0.0351 -0.25781,0 -0.48828,0.0469 -0.691406,0.14062 -0.203127,0.0937 -0.304689,0.22852 -0.304688,0.4043 -10e-7,0.10938 0.0078,0.1875 0.02344,0.23437 0.02344,0.0508 0.03516,0.12305 0.03516,0.2168 -1e-6,0.0937 -0.04785,0.1836 -0.143555,0.26953 -0.0957,0.0859 -0.223634,0.12891 -0.383789,0.12891 -0.277344,0 -0.416016,-0.14063 -0.416015,-0.42188 -1e-6,-0.21093 0.0957,-0.41992 0.287109,-0.62695 0.191405,-0.20703 0.441405,-0.37597 0.75,-0.50684 0.308594,-0.13085 0.621094,-0.19628 0.937504,-0.19629 0.1914,10e-6 0.36621,0.0156 0.52441,0.0469 0.1582,0.0312 0.31738,0.0908 0.47754,0.17871 0.16016,0.0879 0.29394,0.20411 0.40137,0.34863 0.10742,0.14454 0.19531,0.34083 0.26367,0.58887 0.0684,0.24805 0.10254,0.53614 0.10254,0.86426 v 1.78711 c 0,0.11328 9.7e-4,0.2041 0.003,0.27246 0.002,0.0684 0.008,0.14844 0.0176,0.24023 0.01,0.0918 0.0244,0.16406 0.0439,0.2168 0.0195,0.0527 0.0459,0.10644 0.0791,0.16113 0.0332,0.0547 0.0781,0.0937 0.13476,0.11719 0.0566,0.0234 0.12207,0.0352 0.19629,0.0352 0.0859,0 0.15625,-0.0156 0.21094,-0.0469 0.0547,-0.0312 0.0957,-0.0625 0.12305,-0.0937 0.0273,-0.0312 0.0488,-0.0469 0.0644,-0.0469 0.0234,0 0.0517,0.0195 0.085,0.0586 0.0332,0.0391 0.0498,0.0781 0.0498,0.11719 0,0.0156 -0.0156,0.043 -0.0469,0.082 -0.0313,0.0391 -0.0772,0.084 -0.1377,0.13476 -0.0606,0.0508 -0.12988,0.10059 -0.208,0.14942 -0.0781,0.0488 -0.17091,0.0898 -0.27832,0.12304 -0.10743,0.0332 -0.21583,0.0498 -0.3252,0.0498 -0.47266,0 -0.77344,-0.23047 -0.90234,-0.69141 z" /><path
     id="path6336"
     style="font-variant:normal;font-stretch:normal;font-size:12px;font-family:'Linux Libertine';-inkscape-font-specification:'Linux Libertine'"
     d="m 103.93464,144.42239 c -1e-5,-0.83984 0.21874,-1.51757 0.65625,-2.0332 0.43749,-0.51562 1.04687,-0.77343 1.82812,-0.77344 0.34375,1e-5 0.65625,0.0537 0.9375,0.16114 0.28125,0.10742 0.51464,0.25 0.7002,0.42773 0.18554,0.17774 0.34179,0.38477 0.46875,0.62109 0.12694,0.23634 0.21776,0.4795 0.27246,0.7295 0.0547,0.25 0.082,0.50391 0.082,0.76172 -1e-5,0.3125 -0.0518,0.62207 -0.15528,0.92871 -0.10352,0.30664 -0.25195,0.59277 -0.44531,0.85839 -0.19336,0.26563 -0.4541,0.48145 -0.78222,0.64747 -0.32813,0.16601 -0.69532,0.24902 -1.10157,0.24902 -0.38672,0 -0.74023,-0.0762 -1.06054,-0.22852 -0.32032,-0.15234 -0.58008,-0.35351 -0.7793,-0.60351 -0.19922,-0.25 -0.35254,-0.52539 -0.45996,-0.82617 -0.10742,-0.30078 -0.16114,-0.60742 -0.16113,-0.91993 z m 2.3496,-2.4082 c -0.30469,10e-6 -0.56054,0.1084 -0.76757,0.3252 -0.20704,0.2168 -0.35254,0.47949 -0.43653,0.78808 -0.084,0.3086 -0.12598,0.64844 -0.12597,1.01953 -1e-5,0.19532 0.0185,0.39942 0.0557,0.61231 0.0371,0.21289 0.0986,0.43066 0.18457,0.65332 0.0859,0.22266 0.18945,0.42187 0.31055,0.59765 0.12109,0.17579 0.27636,0.31934 0.46582,0.43067 0.18945,0.11133 0.39746,0.16699 0.62402,0.16699 0.15234,0 0.2959,-0.0264 0.43067,-0.0791 0.13476,-0.0527 0.26757,-0.14453 0.39843,-0.27539 0.13086,-0.13086 0.23535,-0.3291 0.31348,-0.59473 0.0781,-0.26562 0.11718,-0.58593 0.11719,-0.96094 -1e-5,-0.87109 -0.13673,-1.53612 -0.41016,-1.99511 -0.27344,-0.45898 -0.66016,-0.68847 -1.16016,-0.68848 z" /><path
     id="path6338"
     style="font-variant:normal;font-stretch:normal;font-size:12px;font-family:'Linux Libertine';-inkscape-font-specification:'Linux Libertine'"
     d="m 110.47956,146.022 v -2.98828 c 0,-0.28124 -0.0215,-0.47265 -0.0645,-0.57422 -0.043,-0.10155 -0.10937,-0.1582 -0.19921,-0.16992 l -0.51563,-0.0527 -0.0293,-0.28711 c 0.77344,-0.11718 1.32617,-0.24023 1.65821,-0.36914 0.0312,0 0.0469,0.0117 0.0469,0.0351 l -0.0352,1.07813 h 0.0352 c 0.48437,-0.71875 0.95312,-1.07812 1.40625,-1.07813 0.44922,10e-6 0.67383,0.1836 0.67383,0.55078 0,0.15626 -0.0469,0.27931 -0.14063,0.36915 -0.0937,0.0898 -0.2207,0.13476 -0.38085,0.13476 -0.18751,0 -0.34962,-0.0723 -0.48633,-0.2168 -0.0742,-0.0703 -0.1543,-0.10546 -0.24024,-0.10546 -0.0703,0 -0.16797,0.0547 -0.29297,0.16406 -0.125,0.10938 -0.25586,0.26172 -0.39257,0.45703 -0.0977,0.125 -0.14649,0.26563 -0.14649,0.42187 v 2.63086 c 0,0.17579 0.0391,0.30274 0.11719,0.38086 0.0781,0.0781 0.21093,0.12305 0.39844,0.13477 l 0.35156,0.0234 c 0.0703,0 0.10546,0.0312 0.10547,0.0937 v 0.22851 l -0.0234,0.0234 c -0.59375,-0.0156 -1.06641,-0.0234 -1.41797,-0.0234 -0.23828,0 -0.6543,0.008 -1.24805,0.0234 l -0.0117,-0.0234 v -0.22851 c 0,-0.0508 0.0293,-0.082 0.0879,-0.0937 l 0.22851,-0.0234 c 0.19531,-0.0195 0.33008,-0.0674 0.4043,-0.14356 0.0742,-0.0762 0.11133,-0.20019 0.11133,-0.37207 z" /></g>
</g>
</svg>
