<?xml version="1.0" encoding="UTF-8" standalone="no"?>
<svg
   xmlns:dc="http://purl.org/dc/elements/1.1/"
   xmlns:cc="http://creativecommons.org/ns#"
   xmlns:rdf="http://www.w3.org/1999/02/22-rdf-syntax-ns#"
   xmlns:svg="http://www.w3.org/2000/svg"
   xmlns="http://www.w3.org/2000/svg"
   id="svg1325"
   height="57.636108"
   width="396.48325"
   version="1.0">
  <metadata
     id="metadata22">
    <rdf:RDF>
      <cc:Work
         rdf:about="">
        <dc:format>image/svg+xml</dc:format>
        <dc:type
           rdf:resource="http://purl.org/dc/dcmitype/StillImage" />
      </cc:Work>
    </rdf:RDF>
  </metadata>
  <defs
     id="defs1328" />
  <path
     style="font-style:normal;font-variant:normal;font-weight:normal;font-stretch:normal;font-size:40px;font-family:Sans;-inkscape-font-specification:Sans;fill:#000000;fill-opacity:1;stroke:none;stroke-width:1px;stroke-linecap:butt;stroke-linejoin:miter;stroke-opacity:1"
     id="wicidestun"
     d="m 97.53536,48.43436 v -24.9116 c 0,-5.15626 1.0561,-5.46688 5.40476,-5.65325 0.37274,-0.37275 0.37274,-1.67734 0,-2.05008 -3.04406,0.0621 -4.90777,0.12424 -8.07608,0.12424 -3.10619,0 -4.90777,-0.0621 -8.013957,-0.12424 -0.372742,0.37274 -0.372742,1.67733 0,2.05008 4.348647,0.18637 5.404757,0.49699 5.404757,5.65325 v 24.9116 c 0,5.15627 -1.05611,5.46688 -5.404757,5.65325 -0.372742,0.37275 -0.372742,1.67734 0,2.05009 3.044057,-0.0621 4.907767,-0.12425 8.076077,-0.12425 3.10619,0 4.90777,0.0621 8.01396,0.12425 0.37274,-0.37275 0.37274,-1.67734 0,-2.05009 -4.34866,-0.18637 -5.40476,-0.49698 -5.40476,-5.65325 m 28.7555,8.20033 c 6.02598,0 11.555,-2.85769 15.77941,-8.3867 -0.31062,-0.55911 -0.74548,-0.93186 -1.42884,-0.93186 -4.41078,4.84565 -8.63521,6.77148 -14.4127,6.77148 -9.62917,0 -14.1642,-9.75341 -14.1642,-18.82347 0,-5.34264 1.36672,-9.50493 3.6653,-12.30049 3.10618,-3.78955 6.70936,-5.52901 9.93979,-5.52901 8.57305,0 11.98987,5.09414 13.60509,10.43678 0.74548,0.24849 1.30459,0.0621 2.05008,-0.31062 -0.31062,-3.23043 -0.80761,-6.21237 -1.36672,-9.62917 -3.16831,-0.31062 -5.96389,-2.79557 -13.60509,-2.79557 -5.28051,0 -9.69131,1.92584 -13.35659,5.28052 -4.16229,3.78954 -6.58511,9.56706 -6.58511,16.02791 0,10.0019 6.523,20.1902 19.87958,20.1902 m 29.84945,-8.20033 v -24.9116 c 0,-5.15626 1.05612,-5.46688 5.40476,-5.65325 0.37274,-0.37275 0.37274,-1.67734 0,-2.05008 -3.04406,0.0621 -4.90777,0.12424 -8.07608,0.12424 -3.10618,0 -4.90777,-0.0621 -8.01395,-0.12424 -0.37275,0.37274 -0.37275,1.67733 0,2.05008 4.34865,0.18637 5.40476,0.49699 5.40476,5.65325 v 24.9116 c 0,5.15627 -1.05611,5.46688 -5.40476,5.65325 -0.37275,0.37275 -0.37275,1.67734 0,2.05009 3.04406,-0.0621 4.90777,-0.12425 8.07607,-0.12425 3.10619,0 4.90778,0.0621 8.01396,0.12425 0.37274,-0.37275 0.37274,-1.67734 0,-2.05009 -4.34864,-0.18637 -5.40476,-0.49698 -5.40476,-5.65325 m 19.89899,2.42282 V 20.97569 c 0,-2.17433 2.17433,-3.04406 5.21839,-3.04406 13.4187,0 17.8295,10.87166 17.8295,20.43869 0,12.54897 -7.51697,15.65517 -16.27641,15.65517 -6.0881,0 -6.77148,-1.18035 -6.77148,-3.16831 m -2.67132,-34.91351 c -3.10618,0 -4.90777,-0.0621 -8.01395,-0.12424 -0.37274,0.37274 -0.37274,1.67733 0,2.05008 4.34866,0.18637 5.40476,0.49699 5.40476,5.65325 v 24.9116 c 0,5.15627 -1.0561,5.46688 -5.40476,5.65325 -0.37274,0.37275 -0.37274,1.67734 0,2.05009 3.04406,-0.0621 4.90777,-0.12425 8.07608,-0.12425 2.29857,0 4.90778,0.12425 11.30651,0.12425 8.75944,0 20.31444,-3.97594 20.31444,-19.25835 0,-11.55499 -9.50494,-21.05992 -21.43267,-21.05992 -3.97592,0 -7.82758,0.12424 -10.25041,0.12424 m 51.32485,17.64313 h -5.65325 V 21.16206 c 0,-1.49097 0.74548,-2.73344 2.23645,-2.73344 h 6.52299 c 4.65926,0 5.65325,2.48495 7.01997,6.77148 0.74549,0.12425 1.42885,0 2.05008,-0.31062 -0.31062,-2.54707 -1.24247,-8.51094 -1.36672,-9.00793 0,-0.12425 -0.0621,-0.18637 -0.24849,-0.18637 -1.05611,0.18637 -1.55309,0.24849 -3.04406,0.24849 h -15.84154 c 0,0 -4.90777,-0.0621 -8.01396,-0.12424 -0.37274,0.37274 -0.37274,1.67733 0,2.05008 4.34864,0.18637 5.40476,0.49699 5.40476,5.65325 v 24.9116 c 0,5.15627 -1.05612,5.46688 -5.40476,5.65325 -0.37274,0.37275 -0.37274,1.67734 0,2.05009 3.04406,-0.0621 8.07608,-0.12425 8.07608,-0.12425 h 13.35659 c 2.98194,0 7.95183,0.12425 7.95183,0.12425 0.86974,-3.10619 1.80159,-7.20635 2.29858,-10.37466 -0.68336,-0.31062 -1.36672,-0.49699 -2.17433,-0.31062 -1.24247,4.47291 -3.41682,8.13821 -8.1382,8.13821 h -8.44882 c -1.36672,0 -2.23645,-0.99398 -2.23645,-2.67132 V 35.9475 h 5.65325 c 5.2805,0 5.46689,1.42884 5.65326,4.22441 0.37274,0.37274 1.67734,0.37274 2.05008,0 -0.0621,-2.17433 -0.12425,-3.35468 -0.12425,-5.46688 0,-2.11221 0.0621,-3.47893 0.12425,-5.34264 -0.37274,-0.37274 -1.67734,-0.37274 -2.05008,0 -0.18637,3.4168 -0.37276,4.22441 -5.65326,4.22441 m 41.61218,-16.7734 c -3.60317,-0.49699 -3.4168,-1.67734 -9.50492,-1.67734 -5.65324,0 -11.8035,4.16231 -11.8035,10.7474 0,5.83963 4.10018,8.82157 8.94581,10.87165 3.91379,1.73946 10.25041,2.91983 10.25041,10.00191 0,5.03202 -2.85769,7.64121 -7.76546,7.64121 -5.83961,0 -9.56705,-2.60919 -10.93377,-8.82156 -0.74548,-0.24849 -1.42884,-0.12425 -1.98796,0.18637 0.2485,4.78352 0.49699,6.39874 1.24248,9.4428 3.91379,0 5.59114,1.42885 11.12014,1.42885 7.51696,0 13.54296,-5.71538 13.54296,-12.052 0,-5.90175 -4.03804,-8.88369 -8.57307,-10.80952 -2.98194,-1.24247 -11.43076,-3.47893 -11.43076,-9.56705 0,-3.78954 2.85769,-6.95785 6.77148,-6.95785 6.08812,0 8.01396,3.85167 9.25643,7.95183 0.68336,0 1.42885,0.0621 1.98796,-0.37274 -0.18637,-2.98194 -0.43487,-4.7214 -1.11823,-8.01396 m 27.35772,31.62096 v -26.2162 c 0,-2.1122 1.24248,-3.85166 3.47893,-3.85166 h 3.85167 c 3.4168,0 3.85167,0.99398 4.90777,5.7775 0.68336,0 1.36672,0.0621 2.11221,-0.31062 -0.49699,-3.16831 -0.80761,-6.52299 -0.80761,-9.56705 -0.62124,0.0621 -1.24248,0.0621 -1.86371,0.2485 0,0.37274 -0.0621,1.42884 -1.36672,1.42884 h -27.02381 c -1.30459,0 -1.30459,-1.0561 -1.30459,-1.42884 -0.49699,-0.12425 -0.99398,-0.31062 -1.92584,-0.2485 -0.24849,3.04406 -0.62123,6.2745 -1.36672,9.56705 0.55911,0.31062 1.3046,0.37274 2.11221,0.31062 1.24247,-4.9699 2.05008,-5.7775 5.46688,-5.7775 h 4.90777 c 2.29858,0 3.54105,1.73946 3.54105,3.66529 v 26.40257 c 0,5.15627 -1.05611,5.46688 -6.026,5.65325 -0.37274,0.37275 -0.37274,1.67734 0,2.05009 3.04406,-0.0621 5.28052,-0.12425 8.69732,-0.12425 3.35468,0 5.52901,0.0621 8.63519,0.12425 0.37274,-0.37275 0.37274,-1.67734 0,-2.05009 -4.96989,-0.18637 -6.026,-0.49698 -6.026,-5.65325 m 27.76929,-24.9116 c 0,-5.15626 0.93186,-5.46688 5.71538,-5.65325 0.37274,-0.37275 0.37274,-1.67734 0,-2.05008 -3.04406,0.0621 -5.09414,0.12424 -8.3867,0.12424 -2.85768,0 -4.28653,-0.0621 -7.39272,-0.12424 -0.37274,0.37274 -0.37274,1.67733 0,2.05008 3.72742,0.18637 4.78353,0.49699 4.78353,5.65325 v 17.8295 c 0,12.67322 8.94581,15.28243 14.53694,15.28243 12.73534,0 15.77942,-7.88973 15.77942,-18.94773 v -14.1642 c 0,-5.15626 1.0561,-5.21839 4.78352,-5.65325 0.37274,-0.37275 0.37274,-1.67734 0,-2.05008 -3.04406,0.0621 -3.85167,0.12424 -6.33662,0.12424 -2.79556,0 -4.10016,-0.0621 -7.20634,-0.12424 -0.37274,0.37274 -0.37274,1.67733 0,2.05008 4.65927,0.43486 5.71538,0.49699 5.71538,5.65325 v 15.28243 c 0,6.95785 -0.93187,15.28242 -11.43076,15.28242 -2.98194,0 -5.52901,-1.30459 -7.39272,-3.10618 -3.04406,-2.91981 -3.16831,-7.64121 -3.16831,-11.67925 V 23.52276 m 66.32286,0.68336 v 20.74931 c 0,1.18035 0,1.86371 -0.43487,1.86371 -0.49699,0 -1.18035,-1.11822 -2.98193,-3.4168 l -21.30843,-27.45867 -8.3867,-0.12424 c -0.37274,0.37274 -0.37274,1.67733 0,2.05008 2.67132,0.18637 4.53503,2.3607 4.90778,3.97591 V 47.751 c 0,5.52901 -1.05611,5.90175 -5.40477,6.33661 -0.37274,0.37275 -0.37274,1.67734 0,2.05009 3.04406,-0.0621 4.22442,-0.12425 6.95786,-0.12425 2.67131,0 3.78955,0.0621 6.89573,0.12425 0.37274,-0.37275 0.37274,-1.67734 0,-2.05009 -4.34866,-0.43486 -5.40476,-0.68336 -5.40476,-6.33661 V 28.74115 c 0,-2.1122 0,-3.04406 0.49699,-3.04406 0.37274,0 1.0561,0.68336 2.1122,2.05008 l 21.68117,27.39655 c 0.68336,0.93185 1.49097,1.49097 2.48494,1.49097 0.86974,0 1.42885,-0.74549 1.42885,-1.92584 V 24.20612 c 0,-5.52901 1.05611,-5.90175 5.40476,-6.33661 0.37274,-0.37275 0.37274,-1.67734 0,-2.05008 -3.04406,0.0621 -4.22441,0.12424 -6.95785,0.12424 -2.67132,0 -3.78955,-0.0621 -6.89573,-0.12424 -0.37274,0.37274 -0.37274,1.67733 0,2.05008 4.34865,0.43486 5.40476,0.68336 5.40476,6.33661 M 86.360074,0.97399 c -8.7e-5,0.32307 -0.09626,0.61972 -0.288532,0.88995 -0.19244,0.27033 -0.40356,0.40547 -0.633362,0.40541 -1.897041,0.18959 -3.447603,0.83109 -4.651691,1.92451 -1.204249,1.09353 -2.446732,3.17952 -3.727452,6.25802 l -19.60138,46.53655 c -0.128293,0.43178 -0.487198,0.64767 -1.076714,0.64768 -0.461395,-1e-5 -0.819517,-0.2159 -1.07437,-0.64768 L 44.314224,32.76718 31.668097,56.98843 c -0.254939,0.43178 -0.613062,0.64767 -1.074369,0.64768 -0.564582,-1e-5 -0.935998,-0.2159 -1.114248,-0.64768 L 10.222931,10.45188 C 9.018753,7.56126 7.750466,5.54241 6.418068,4.39533 5.085657,3.24834 3.227797,2.53969 0.844483,2.26935 0.639617,2.26941 0.447654,2.15446 0.268593,1.9245 0.089531,1.69465 0,1.43138 0,1.13468 0,0.37828 0.204865,6e-5 0.614596,0 2.331708,6e-5 4.12545,0.0816 5.995827,0.24473 7.737955,0.40631 9.377658,0.48705 10.914937,0.487 12.477218,0.48705 14.321785,0.4063 16.448645,0.24473 18.678685,0.08163 20.651489,6e-5 22.36706,0 c 0.411271,6e-5 0.616919,0.37828 0.616941,1.13468 -2.2e-5,0.75651 -0.128259,1.13473 -0.384708,1.13467 -1.717136,0.1352 -3.069089,0.59418 -4.055862,1.37694 -0.986812,0.78288 -1.480208,1.80877 -1.48019,3.07772 -1.8e-5,0.64773 0.205629,1.45774 0.616941,2.43004 L 33.591641,47.02354 42.622913,29.04178 34.206237,10.45188 C 32.693954,7.12948 31.45108,4.98909 30.477611,4.0307 29.504081,3.07241 28.030538,2.4853 26.056979,2.26935 25.878674,2.26941 25.70626,2.15446 25.539734,1.9245 25.373158,1.69465 25.289883,1.43138 25.289908,1.13468 25.289883,0.37828 25.468944,6e-5 25.827093,0 c 1.717087,6e-5 3.292671,0.0816 4.726756,0.24473 1.383982,0.16158 2.857133,0.24232 4.41946,0.24227 1.537234,5e-5 3.164425,-0.0807 4.881578,-0.24227 C 41.623568,0.08163 43.365702,6e-5 45.081296,0 c 0.411249,6e-5 0.616895,0.37828 0.616941,1.13468 -4.6e-5,0.75651 -0.128281,1.13473 -0.384709,1.13467 -3.43427,0.24232 -5.151383,1.26823 -5.151343,3.07772 -4e-5,0.81089 0.397179,2.0667 1.191658,3.76742 l 5.573586,11.90792 5.533706,-10.89685 C 53.2305,8.58799 53.615208,7.29263 53.615262,6.23948 53.615208,3.7543 51.898095,2.43091 48.463918,2.26935 48.157353,2.26941 48.004096,1.89119 48.004144,1.13468 48.004096,0.86446 48.080724,0.60778 48.234031,0.36464 48.38724,0.1216 48.54128,6e-5 48.69615,0 c 1.229142,6e-5 2.740608,0.0816 4.534402,0.24473 1.717061,0.16158 3.126094,0.24232 4.227105,0.24227 0.794381,5e-5 1.960235,-0.0675 3.497566,-0.20271 C 62.902161,0.09483 64.529353,6e-5 65.836801,0 c 0.30645,6e-5 0.459708,0.32472 0.459774,0.97399 -6.6e-5,0.86363 -0.28156,1.29542 -0.844483,1.29536 -1.998672,0.21595 -3.606314,0.79647 -4.822934,1.74158 -1.216739,0.94519 -2.735242,3.09218 -4.555514,6.44095 l -7.377494,14.3775 9.990698,21.4649 14.75968,-36.16872 C 73.959399,8.80389 74.215871,7.58928 74.215945,6.48175 74.215871,3.83505 72.498758,2.43091 69.064601,2.26935 68.756453,2.26941 68.602413,1.89119 68.602482,1.13468 68.602413,0.37828 68.833082,6e-5 69.294489,0 c 1.255706,6e-5 2.74215,0.0816 4.459336,0.24473 1.588804,0.16158 2.921208,0.24232 3.997218,0.24227 1.127462,5e-5 2.434063,-0.0807 3.919807,-0.24227 C 83.208038,0.08163 84.591268,6e-5 85.820544,0 c 0.359601,6e-5 0.539443,0.32472 0.53953,0.97399 z" />
</svg>
