<?xml version="1.0" encoding="UTF-8" standalone="no"?>
<svg
   xmlns:dc="http://purl.org/dc/elements/1.1/"
   xmlns:cc="http://creativecommons.org/ns#"
   xmlns:rdf="http://www.w3.org/1999/02/22-rdf-syntax-ns#"
   xmlns:svg="http://www.w3.org/2000/svg"
   xmlns="http://www.w3.org/2000/svg"
   version="1.1"
   id="svg3101"
   height="347.30942"
   width="637.23883">
  <defs
     id="defs3103" />
  <metadata
     id="metadata3106">
    <rdf:RDF>
      <cc:Work
         rdf:about="">
        <dc:format>image/svg+xml</dc:format>
        <dc:type
           rdf:resource="http://purl.org/dc/dcmitype/StillImage" />
        <dc:title />
      </cc:Work>
    </rdf:RDF>
  </metadata>
  <g
     transform="translate(-58.071982,-692.95958)"
     id="layer1">
    <g
       id="flowRoot4309"
       style="font-style:normal;font-variant:normal;font-weight:normal;font-stretch:normal;font-size:48px;line-height:125%;font-family:'Lohit Telugu';-inkscape-font-specification:'Lohit Telugu';text-align:start;letter-spacing:0px;word-spacing:0px;writing-mode:lr-tb;text-anchor:start;fill:#000000;fill-opacity:1;stroke:none"
       transform="matrix(4.8447309,0,0,4.3228351,-484.17729,-1842.1132)">
      <path
         id="path3181"
         d="m 117.71875,607.15629 c -1e-5,0.84377 0.29687,1.57814 0.89063,2.20312 0.59374,0.59377 1.32811,0.89064 2.20312,0.89063 0.84374,10e-6 1.54686,-0.29686 2.10938,-0.89063 0.59373,-0.62498 0.89061,-1.35935 0.89062,-2.20312 -1e-5,-0.84373 -0.29689,-1.56248 -0.89062,-2.15625 -0.56252,-0.62498 -1.26564,-0.93748 -2.10938,-0.9375 -0.87501,2e-5 -1.60938,0.31252 -2.20312,0.9375 -0.59376,0.59377 -0.89064,1.31252 -0.89063,2.15625 v 0 m -3,16.96875 c 0,0.84375 0.29687,1.57812 0.89063,2.20312 0.59374,0.59375 1.32811,0.89063 2.20312,0.89063 0.84374,0 1.54687,-0.29688 2.10938,-0.89063 0.59374,-0.625 0.89061,-1.35937 0.89062,-2.20312 -1e-5,-0.875 -0.29688,-1.59375 -0.89062,-2.15625 -0.56251,-0.59375 -1.26564,-0.89062 -2.10938,-0.89063 -0.87501,10e-6 -1.60938,0.29688 -2.20312,0.89063 -0.59376,0.5625 -0.89063,1.28125 -0.89063,2.15625 v 0 m -2.48437,0 c -1e-5,-1.5 0.54687,-2.78125 1.64062,-3.84375 1.09375,-1.09374 2.40624,-1.64062 3.9375,-1.64063 1.18749,10e-6 2.29687,0.43751 3.32813,1.3125 1.06248,0.84376 1.85936,1.98438 2.39062,3.42188 0.34374,0.96875 0.93749,1.75 1.78125,2.34375 0.87498,0.5625 1.82811,0.84375 2.85937,0.84375 1.53124,0 2.84374,-0.9375 3.9375,-2.8125 1.09373,-1.90625 1.64061,-4.21874 1.64063,-6.9375 -2e-5,-2.87499 -0.7344,-5.37499 -2.20313,-7.5 -1.46876,-2.12498 -3.31251,-3.39061 -5.53124,-3.79688 l -0.14063,0.23438 c 0.15624,0.25002 0.26561,0.50002 0.32813,0.75 0.0937,0.25002 0.1406,0.46877 0.14062,0.65625 -2e-5,1.50002 -0.54689,2.79689 -1.64062,3.89062 -1.09377,1.06252 -2.39064,1.59377 -3.89063,1.59375 -1.53126,2e-5 -2.84376,-0.53123 -3.9375,-1.59375 -1.0625,-1.09373 -1.59375,-2.3906 -1.59375,-3.89062 0,-1.53123 0.625,-2.8281 1.875,-3.89063 1.28124,-1.09372 2.81249,-1.6406 4.59375,-1.64062 4.12499,2e-5 7.65623,1.4844 10.59375,4.45312 2.93748,2.96877 4.40622,6.54689 4.40625,10.73438 -3e-5,3.5625 -0.84377,6.59375 -2.53125,9.09375 -1.65627,2.5 -3.67189,3.75 -6.04688,3.75 -1.09376,0 -2.12501,-0.28125 -3.09374,-0.84375 -0.93752,-0.59375 -1.68752,-1.375 -2.25,-2.34375 l -0.14063,0.0937 c -0.34376,0.90625 -0.96876,1.65625 -1.875,2.25 -0.87501,0.5625 -1.87501,0.84375 -3,0.84375 -1.53126,0 -2.84375,-0.54688 -3.9375,-1.64063 -1.09375,-1.09375 -1.64063,-2.39062 -1.64062,-3.89062 v 0" />
      <path
         id="path3183"
         d="m 144.25,613.06254 c -1e-5,0.93751 0.59374,1.73439 1.78125,2.39062 1.18749,0.65626 2.64062,0.98439 4.35937,0.98438 2.53124,10e-6 4.70311,0.64063 6.51563,1.92187 1.81248,1.25001 2.71873,2.76563 2.71875,4.54688 -2e-5,1.875 -0.93752,3.46875 -2.8125,4.78125 -1.84377,1.3125 -4.09376,1.96875 -6.75,1.96875 -2.09376,0 -4.07813,-0.42188 -5.95313,-1.26563 -1.84375,-0.84375 -3.40625,-2.03125 -4.6875,-3.5625 l 2.10938,-2.10937 c 1.03125,1.21875 2.29687,2.17188 3.79687,2.85937 1.5,0.65625 3.07812,0.98438 4.73438,0.98438 1.81249,0 3.34374,-0.34375 4.59375,-1.03125 1.28123,-0.71875 1.92186,-1.59375 1.92187,-2.625 -1e-5,-1.09375 -0.70314,-2.03125 -2.10937,-2.8125 -1.37501,-0.78124 -3.03126,-1.17187 -4.96875,-1.17188 -2.31251,10e-6 -4.28126,-0.56249 -5.90625,-1.6875 -1.59375,-1.15624 -2.39063,-2.54686 -2.39063,-4.17187 0,-0.93749 0.3125,-1.84374 0.9375,-2.71875 0.65625,-0.87498 1.54688,-1.59373 2.67188,-2.15625 -0.21876,-0.0625 -0.45313,-0.14061 -0.70313,-0.23438 -0.25,-0.12498 -0.5,-0.29685 -0.75,-0.51562 l 1.45313,-2.53125 c 0.62499,0.46877 1.37499,0.84377 2.25,1.125 0.90624,0.25002 1.89061,0.37502 2.95312,0.375 1.40624,2e-5 2.60937,-0.42186 3.60938,-1.26563 0.99998,-0.84372 1.49998,-1.87497 1.5,-3.09375 l -0.28125,-0.23437 c -0.53127,0.56252 -1.21876,1.00002 -2.0625,1.3125 -0.81251,0.31252 -1.73439,0.46877 -2.76563,0.46875 -1.96875,2e-5 -3.65625,-0.48435 -5.0625,-1.45313 -1.40625,-0.96872 -2.10937,-2.12497 -2.10937,-3.46875 0,-0.81247 0.29687,-1.56247 0.89062,-2.25 0.59375,-0.71872 1.39062,-1.21872 2.39063,-1.5 v -0.23437 c -0.75001,-0.21872 -1.35938,-0.64059 -1.82813,-1.26563 -0.4375,-0.62496 -0.65625,-1.32809 -0.65625,-2.10937 0,-1.34372 0.625,-2.48434 1.875,-3.42188 1.25,-0.96871 2.75,-1.45308 4.5,-1.45312 1.93749,4e-5 3.56249,0.56254 4.875,1.6875 1.34374,1.09379 1.93749,2.37503 1.78125,3.84375 h -3.28125 c -1e-5,-0.84372 -0.34376,-1.56247 -1.03125,-2.15625 -0.65626,-0.59371 -1.43751,-0.89059 -2.34375,-0.89063 -0.87501,4e-5 -1.625,0.23442 -2.25,0.70313 -0.625,0.46878 -0.9375,1.03128 -0.9375,1.6875 0,0.59378 0.3125,1.14066 0.9375,1.64062 0.625,0.46879 1.40624,0.76566 2.34375,0.89063 2.24999,0.31253 4.10936,1.1719 5.57813,2.57812 1.49998,1.37503 2.24998,2.95316 2.25,4.73438 -2e-5,1.31252 -0.29689,2.5469 -0.89063,3.70312 -0.59376,1.15627 -1.42189,2.1094 -2.48437,2.85938 0.74998,0.25002 1.46873,0.56252 2.15625,0.9375 0.71873,0.37502 1.37498,0.81252 1.96875,1.3125 l -1.5,2.71875 c -1.03127,-0.87499 -2.18752,-1.53124 -3.46875,-1.96875 -1.25001,-0.46874 -2.54689,-0.70311 -3.89063,-0.70313 -1.53125,2e-5 -2.84375,0.29689 -3.9375,0.89063 -1.09375,0.59376 -1.64063,1.31251 -1.64062,2.15625 v 0 m 1.73437,-14.39063 c 0,0.68753 0.39062,1.26566 1.17188,1.73438 0.81249,0.43752 1.76561,0.65627 2.85937,0.65625 0.96874,2e-5 1.79687,-0.21873 2.48438,-0.65625 0.71874,-0.46872 1.07811,-1.04685 1.07812,-1.73438 -1e-5,-0.65622 -0.35938,-1.21872 -1.07812,-1.6875 -0.68751,-0.49997 -1.51564,-0.74997 -2.48438,-0.75 -1.09376,3e-5 -2.04688,0.25003 -2.85937,0.75 -0.78126,0.46878 -1.17188,1.03128 -1.17188,1.6875 v 0" />
      <path
         id="path3185"
         d="m 178.60937,626.56254 c 1.68749,0 3.14061,-0.98438 4.35938,-2.95313 1.21873,-1.96874 1.8281,-4.35936 1.82812,-7.17187 -2e-5,-0.71874 -0.0781,-1.43749 -0.23437,-2.15625 -0.12502,-0.71874 -0.32815,-1.43749 -0.60938,-2.15625 h -5.85937 c -0.84377,10e-6 -1.56252,0.29689 -2.15625,0.89062 -0.56251,0.59377 -0.84376,1.31252 -0.84375,2.15625 h -2.10938 c -1e-5,-0.84373 -0.28126,-1.56248 -0.84375,-2.15625 -0.53126,-0.59373 -1.17188,-0.89061 -1.92187,-0.89062 h -2.20313 c -0.5625,10e-6 -1.0625,0.23439 -1.5,0.70312 -0.40625,0.46877 -0.60937,1.04689 -0.60937,1.73438 h -3.14063 c 0.25,-1.40624 0.82813,-2.56249 1.73438,-3.46875 0.90625,-0.93749 1.93749,-1.40623 3.09375,-1.40625 h 2.71875 c 0.87499,2e-5 1.64061,0.14064 2.29687,0.42187 0.65624,0.25002 1.10937,0.60939 1.35938,1.07813 h 0.1875 c 0.24999,-0.46874 0.68749,-0.82811 1.3125,-1.07813 0.62498,-0.28123 1.37498,-0.42185 2.25,-0.42187 h 4.96875 c -1.31252,-1.87498 -3.04689,-3.34373 -5.20313,-4.40625 -2.12501,-1.09373 -4.42188,-1.6406 -6.89062,-1.64063 v -2.67187 c 3.28124,2e-5 6.29686,0.78127 9.04687,2.34375 2.74998,1.56252 4.84373,3.68752 6.28125,6.375 h 4.78125 l 2.01563,0.14062 0.1875,-0.1875 c -0.37503,-0.31248 -0.65628,-0.67185 -0.84375,-1.07812 -0.18753,-0.40623 -0.28128,-0.84373 -0.28125,-1.3125 -3e-5,-1.37498 0.48434,-2.53123 1.45312,-3.46875 0.96872,-0.96873 2.12497,-1.4531 3.46875,-1.45313 1.49997,3e-5 2.74997,0.5469 3.75,1.64063 1.03121,1.09377 1.48434,2.39064 1.35938,3.89062 h -2.53125 c -4e-5,-0.84373 -0.25004,-1.56248 -0.75,-2.15625 -0.50004,-0.59373 -1.10941,-0.8906 -1.82813,-0.89062 -0.68753,2e-5 -1.28128,0.23439 -1.78125,0.70312 -0.46878,0.46877 -0.70315,1.0469 -0.70312,1.73438 -3e-5,0.56252 0.24997,1.07814 0.75,1.54687 0.49997,0.46877 1.12496,0.76565 1.875,0.89063 1.53121,0.28126 2.79684,0.95314 3.79687,2.01562 1.03121,1.03127 1.54684,2.18752 1.54688,3.46875 -4e-5,1.50001 -0.54692,2.79689 -1.64063,3.89063 -1.06253,1.0625 -2.34378,1.59375 -3.84375,1.59375 -1.53128,0 -2.84378,-0.53125 -3.9375,-1.59375 -1.06253,-1.09374 -1.59378,-2.39062 -1.59375,-3.89063 -3e-5,-0.68748 0.0781,-1.29686 0.23438,-1.82812 0.18747,-0.53124 0.43747,-0.93749 0.75,-1.21875 l -0.0469,-0.1875 -2.10937,0.1875 h -3.04688 c 0.18748,0.62501 0.3281,1.28126 0.42188,1.96875 0.0937,0.65626 0.1406,1.34376 0.14062,2.0625 -2e-5,3.71876 -0.87502,6.90625 -2.625,9.5625 -1.71877,2.625 -3.81252,3.9375 -6.28125,3.9375 -1.53126,0 -2.90626,-0.53125 -4.125,-1.59375 -1.18751,-1.0625 -1.92188,-2.40625 -2.20312,-4.03125 -0.21876,-1.21875 -0.65626,-2.21875 -1.3125,-3 -0.62501,-0.8125 -1.32813,-1.21874 -2.10938,-1.21875 -0.875,10e-6 -1.625,0.40625 -2.25,1.21875 -0.59375,0.78125 -0.89062,1.71875 -0.89062,2.8125 0,0.71875 0.1875,1.5 0.5625,2.34375 0.37499,0.84375 0.93749,1.70312 1.6875,2.57812 l -2.8125,1.35938 c -0.8125,-0.96875 -1.4375,-1.98438 -1.875,-3.04688 -0.40625,-1.09375 -0.60938,-2.17187 -0.60938,-3.23437 0,-1.875 0.59375,-3.46875 1.78125,-4.78125 1.21875,-1.31249 2.6875,-1.96874 4.40625,-1.96875 1.40625,10e-6 2.64062,0.50001 3.70313,1.5 1.09374,1.00001 1.78124,2.26563 2.0625,3.79687 0.21874,1.21876 0.70311,2.21876 1.45312,3 0.74999,0.78125 1.59374,1.17188 2.53125,1.17188 v 0 m 15.04688,-11.39063 c -3e-5,0.84376 0.29684,1.57814 0.89062,2.20313 0.59372,0.59376 1.31247,0.89063 2.15625,0.89062 0.84372,10e-6 1.56247,-0.29686 2.15625,-0.89062 0.59372,-0.62499 0.89059,-1.35937 0.89063,-2.20313 -4e-5,-0.84373 -0.29691,-1.56248 -0.89063,-2.15625 -0.59378,-0.59373 -1.31253,-0.89061 -2.15625,-0.89062 -0.84378,10e-6 -1.56253,0.29689 -2.15625,0.89062 -0.59378,0.59377 -0.89065,1.31252 -0.89062,2.15625 v 0" />
      <path
         id="path3187"
         d="m 207.85937,618.31254 c 0,2.28125 0.78125,4.23438 2.34375,5.85937 1.5625,1.59375 3.45312,2.39063 5.67188,2.39063 2.18749,0 4.04686,-0.79688 5.57812,-2.39063 1.56249,-1.62499 2.34373,-3.57812 2.34375,-5.85937 -2e-5,-2.31249 -0.78126,-4.26561 -2.34375,-5.85938 -1.53126,-1.62498 -3.39063,-2.43748 -5.57812,-2.4375 -2.21876,2e-5 -4.10938,0.81252 -5.67188,2.4375 -1.5625,1.59377 -2.34375,3.54689 -2.34375,5.85938 v 0 m -3.04687,0 c 0,-1.90624 0.46875,-3.68749 1.40625,-5.34375 0.9375,-1.65624 2.23437,-2.98436 3.89062,-3.98438 -0.84375,-0.34373 -1.51563,-0.90623 -2.01562,-1.6875 -0.5,-0.78123 -0.75,-1.65623 -0.75,-2.625 0,-0.65622 0.1875,-1.2656 0.5625,-1.82812 0.40624,-0.56248 0.93749,-0.99998 1.59375,-1.3125 -0.87501,-0.40623 -1.5625,-1.0156 -2.0625,-1.82813 -0.5,-0.81247 -0.75,-1.70309 -0.75,-2.67187 0,-1.43747 0.54687,-2.67184 1.64062,-3.70313 1.09375,-1.03121 2.40625,-1.54684 3.9375,-1.54687 h 15.75 v 3.09375 h -15.75 c -0.6875,3e-5 -1.28125,0.25003 -1.78125,0.75 -0.46875,0.46878 -0.70313,1.03128 -0.70312,1.6875 -1e-5,0.68753 0.23437,1.26565 0.70312,1.73437 0.5,0.46878 1.09375,0.70316 1.78125,0.70313 h 9.60938 v 3.04687 h -9.60938 c -0.5,3e-5 -0.9375,0.18753 -1.3125,0.5625 -0.34375,0.34378 -0.51563,0.78128 -0.51562,1.3125 -1e-5,0.50002 0.17187,0.93752 0.51562,1.3125 0.375,0.34377 0.8125,0.51565 1.3125,0.51563 h 6.89063 v 1.40625 c 2.31248,0.68752 4.18748,2.03127 5.625,4.03125 1.43748,2.00001 2.15623,4.23438 2.15625,6.70312 -2e-5,3.03126 -1.09377,5.62501 -3.28125,7.78125 -2.15627,2.15625 -4.75002,3.23438 -7.78125,3.23438 -3.06251,0 -5.67188,-1.10938 -7.82813,-3.32813 -2.15625,-2.21874 -3.23437,-4.89062 -3.23437,-8.01562 v 0" />
      <path
         id="path3189"
         d="m 219.29687,639.12504 c 10e-6,-1.71876 0.54689,-3.18751 1.64063,-4.40625 1.06251,-1.18751 2.35938,-1.78126 3.89062,-1.78125 1.25001,-10e-6 2.39063,0.43749 3.42188,1.3125 1,0.87499 1.6875,1.98436 2.0625,3.32812 0.28125,1.15624 0.82812,2.09374 1.64062,2.8125 0.8125,0.74999 1.71875,1.12499 2.71875,1.125 1.5,-10e-6 2.78125,-1.31251 3.84375,-3.9375 1.06249,-2.59376 1.59374,-5.75 1.59375,-9.46875 -1e-5,-4.18749 -1.07813,-7.76562 -3.23437,-10.73437 -2.15626,-2.99999 -4.76563,-4.49999 -7.82813,-4.5 l 1.07813,-3.42188 c 3.59374,2e-5 6.65624,1.82814 9.1875,5.48438 2.56249,3.62501 3.84374,8 3.84375,13.125 -1e-5,4.56249 -0.85939,8.45311 -2.57813,11.67187 -1.71876,3.21874 -3.8125,4.82811 -6.28125,4.82813 -1.46875,-2e-5 -2.79687,-0.48439 -3.98437,-1.45313 -1.15625,-0.96876 -1.95312,-2.23439 -2.39063,-3.79687 -0.24999,-0.96876 -0.65624,-1.76564 -1.21875,-2.39063 -0.59374,-0.59376 -1.21874,-0.89063 -1.875,-0.89062 -0.68749,-10e-6 -1.26562,0.29686 -1.73437,0.89062 -0.49999,0.59374 -0.74999,1.32812 -0.75,2.20313 1e-5,0.74999 0.20313,1.49998 0.60937,2.25 0.37501,0.74998 0.90626,1.43748 1.59375,2.0625 l -2.34375,1.82812 c -0.93749,-0.78126 -1.65624,-1.71876 -2.15625,-2.8125 -0.49999,-1.06251 -0.74999,-2.17189 -0.75,-3.32812 v 0" />
    </g>
    <g
       id="flowRoot4319"
       style="font-style:normal;font-variant:normal;font-weight:normal;font-stretch:normal;font-size:48px;line-height:125%;font-family:'Lohit Telugu';-inkscape-font-specification:'Lohit Telugu';letter-spacing:0px;word-spacing:0px;fill:#000000;fill-opacity:1;stroke:none"
       transform="matrix(3.238407,0,0,3.1295854,-215.99086,-547.66761)">
      <path
         id="path3150"
         style="font-size:22px"
         d="m 93.394531,496.97528 c 0.615877,0 1.145824,-0.35091 1.589844,-1.05274 0.444,-0.71614 0.666005,-1.57551 0.666016,-2.57812 -1.1e-5,-1.11718 -0.329438,-2.06966 -0.988282,-2.85742 -0.658863,-0.78776 -1.453784,-1.18164 -2.384765,-1.18165 l 0.580078,-1.43945 c 1.160147,10e-6 2.141266,0.53712 2.943359,1.61133 0.816395,1.0599 1.224598,2.34896 1.22461,3.86719 -1.2e-5,1.38932 -0.358085,2.57812 -1.074219,3.5664 -0.701833,0.98829 -1.554046,1.48243 -2.556641,1.48243 -0.845059,0 -1.575527,-0.26498 -2.191406,-0.79493 -0.615891,-0.52994 -0.95964,-1.18164 -1.03125,-1.95507 -0.04297,-0.48698 -0.200526,-0.90234 -0.472656,-1.2461 -0.27214,-0.34374 -0.580082,-0.51562 -0.923828,-0.51562 -0.444014,0 -0.816409,0.20052 -1.117188,0.60156 -0.300783,0.38672 -0.451174,0.85222 -0.451172,1.39648 -2e-6,0.28646 0.08594,0.61589 0.257813,0.98828 0.171872,0.35808 0.422523,0.73047 0.751953,1.11719 l -1.289063,0.62305 c -0.372397,-0.44401 -0.658855,-0.89518 -0.859375,-1.35352 -0.186198,-0.47265 -0.279297,-0.93098 -0.279297,-1.375 0,-0.93098 0.286458,-1.7259 0.859375,-2.38476 0.587238,-0.65885 1.296222,-0.98828 2.126954,-0.98828 0.687495,0 1.281896,0.24349 1.783203,0.73047 0.515619,0.48698 0.809238,1.0957 0.880859,1.82617 0.04296,0.54427 0.250645,1.0026 0.623047,1.375 0.386711,0.35807 0.830721,0.53711 1.332031,0.53711 v 0 m -5.714844,-8.14258 v -1.39649 h 1.91211 c 0.229162,2e-5 0.422521,-0.0931 0.580078,-0.27929 0.17187,-0.20051 0.257807,-0.43684 0.257812,-0.70899 -5e-6,-0.2578 -0.08594,-0.4798 -0.257812,-0.66601 -0.17188,-0.20051 -0.379562,-0.30077 -0.623047,-0.30078 h -4.919922 v -1.39649 h 2.384766 l 0.773437,0.043 0.02148,-0.10742 c -0.200524,-0.15754 -0.350914,-0.34374 -0.451172,-0.5586 -0.100263,-0.21482 -0.150393,-0.44399 -0.150391,-0.6875 -2e-6,-0.61586 0.229165,-1.13865 0.6875,-1.56835 0.472653,-0.444 1.038408,-0.666 1.697266,-0.66602 0.687495,2e-5 1.260411,0.26499 1.71875,0.79492 0.458327,0.52997 0.666009,1.16017 0.623047,1.89063 h -1.138672 c 0.02864,-0.37238 -0.07878,-0.69465 -0.322266,-0.9668 -0.229171,-0.28644 -0.522791,-0.42967 -0.880859,-0.42969 -0.343754,2e-5 -0.637374,0.0931 -0.88086,0.2793 -0.243492,0.17189 -0.365237,0.37957 -0.365234,0.62305 -3e-6,0.37241 0.121742,0.69467 0.365234,0.96679 0.243486,0.25783 0.537106,0.38674 0.88086,0.38672 0.658849,2e-5 1.217442,0.22918 1.675781,0.6875 0.47265,0.45835 0.708978,1.01694 0.708984,1.67578 -6e-6,0.65887 -0.229173,1.22462 -0.6875,1.69727 -0.458338,0.45834 -1.00977,0.68751 -1.654296,0.6875 h -1.955079 v 0" />
      <path
         id="path3152"
         style="font-size:22px"
         d="m 95.865234,502.13153 c 2e-6,0.40103 0.13607,0.73046 0.408203,0.98828 0.272137,0.27213 0.601564,0.4082 0.988282,0.4082 0.386719,0 0.716145,-0.13607 0.988281,-0.4082 0.272135,-0.25782 0.408202,-0.58725 0.408203,-0.98828 -10e-7,-0.38673 -0.136068,-0.71615 -0.408203,-0.98828 -0.272136,-0.27214 -0.601562,-0.40821 -0.988281,-0.40821 -0.386718,0 -0.716145,0.13607 -0.988282,0.40821 -0.272133,0.27213 -0.408201,0.60155 -0.408203,0.98828 v 0 m -1.138672,0 c 4e-6,-0.68751 0.250654,-1.28191 0.751954,-1.78321 0.486981,-0.5013 1.081381,-0.75195 1.783203,-0.75195 0.587239,0 1.124348,0.16471 1.611328,0.49414 0.486978,0.34375 0.837889,0.79492 1.052734,1.35352 0.243489,0.6302 0.580079,1.1315 1.009769,1.5039 0.444,0.38672 0.90234,0.58008 1.375,0.58008 0.6302,0 1.16015,-0.22917 1.58984,-0.6875 0.444,-0.45834 0.66601,-1.00977 0.66602,-1.6543 -1e-5,-0.51562 -0.27931,-1.14583 -0.83789,-1.89062 -0.54428,-0.74479 -1.32488,-1.54688 -2.3418,-2.40625 -0.91667,-0.75911 -1.632816,-1.5612 -2.148439,-2.40625 -0.501303,-0.85937 -0.751953,-1.68294 -0.751953,-2.4707 0,-0.93099 0.329426,-1.72591 0.988281,-2.38477 0.658851,-0.65884 1.453771,-0.98827 2.384771,-0.98828 0.8164,10e-6 1.52538,0.31511 2.12695,0.94531 0.61588,0.63022 0.96679,1.40365 1.05273,2.32031 l -1.00976,0.25782 c -0.17188,-0.6302 -0.45834,-1.13867 -0.85938,-1.52539 -0.40104,-0.40104 -0.83789,-0.60156 -1.31054,-0.60157 -0.57293,10e-6 -1.06707,0.19337 -1.48243,0.58008 -0.401041,0.38673 -0.601561,0.85222 -0.601559,1.39649 -2e-6,0.57292 0.250649,1.23177 0.751949,1.97656 0.5013,0.73047 1.21029,1.47526 2.12696,2.23437 1.04556,0.88803 1.85481,1.7474 2.42773,2.57813 0.58723,0.84505 0.88085,1.597 0.88086,2.25586 -1e-5,1.0026 -0.35808,1.84765 -1.07422,2.53515 -0.70183,0.70182 -1.5612,1.05273 -2.57812,1.05274 -0.50131,-10e-6 -0.98829,-0.1504 -1.46094,-0.45117 -0.45834,-0.28647 -0.83073,-0.68035 -1.117188,-1.18164 l -0.128906,0.0215 c -0.171877,0.48697 -0.472658,0.87369 -0.902344,1.16016 -0.429688,0.30077 -0.909505,0.45116 -1.439453,0.45117 -0.701822,-10e-6 -1.296222,-0.25066 -1.783203,-0.75195 -0.5013,-0.48699 -0.75195,-1.07423 -0.751954,-1.76172 v 0" />
      <path
         id="path3154"
         style="font-size:22px"
         d="m 114.57813,498.39325 c -0.45835,0 -0.87371,-0.11459 -1.2461,-0.34375 -0.3724,-0.24349 -0.63021,-0.5586 -0.77344,-0.94532 l -0.10742,0.043 c -0.14323,0.3724 -0.40821,0.67318 -0.79492,0.90235 -0.3724,0.22916 -0.79493,0.34375 -1.26758,0.34375 -0.78776,0 -1.45378,-0.27214 -1.99804,-0.81641 -0.54428,-0.54427 -0.81641,-1.20312 -0.81641,-1.97656 0,-0.22917 0.0358,-0.45117 0.10742,-0.66602 0.0716,-0.22916 0.17903,-0.42968 0.32227,-0.60156 l -0.15039,-0.15039 h -2.25586 v -1.39649 h 4.49023 v 0.9668 c -0.32943,0.12891 -0.60157,0.35808 -0.81641,0.6875 -0.20052,0.32943 -0.30078,0.71615 -0.30078,1.16016 0,0.38672 0.13607,0.71614 0.40821,0.98828 0.28645,0.25781 0.62304,0.38672 1.00976,0.38672 0.38672,0 0.71614,-0.12891 0.98828,-0.38672 0.27213,-0.27214 0.4082,-0.60156 0.40821,-0.98828 v -0.85938 h 1.39648 v 0.85938 c -1e-5,0.38672 0.13606,0.71614 0.4082,0.98828 0.27213,0.25781 0.60156,0.38672 0.98829,0.38672 0.65884,0 1.22459,-0.34375 1.69726,-1.03125 0.47265,-0.6875 0.70897,-1.51823 0.70899,-2.49219 -2e-5,-1.11718 -0.37957,-2.0983 -1.13868,-2.94336 -0.75912,-0.84504 -1.69727,-1.33202 -2.81445,-1.46094 h -5.37109 v -1.41797 h 14.26562 c 0.85936,1e-5 1.58983,0.27931 2.19141,0.83789 0.60154,0.54428 0.90232,1.20314 0.90234,1.97657 -2e-5,0.70183 -0.25067,1.30339 -0.75195,1.80468 -0.487,0.50131 -1.07424,0.75196 -1.76172,0.75196 -0.70184,0 -1.3034,-0.25065 -1.80469,-0.75196 -0.50132,-0.50129 -0.75197,-1.10285 -0.75195,-1.80468 -2e-5,-0.28645 0.0358,-0.54427 0.10742,-0.77344 0.0859,-0.24348 0.20051,-0.45116 0.34375,-0.62305 l -0.0645,-0.15039 -1.09571,0.15039 h -3.09375 c 0.70182,0.52996 1.24609,1.18165 1.63282,1.95508 0.40103,0.77344 0.60155,1.58985 0.60156,2.44922 -1e-5,1.375 -0.37241,2.54232 -1.11719,3.50195 -0.73048,0.95964 -1.62566,1.43946 -2.68554,1.43946 v 0 m 6.53125,-7.94922 c -2e-5,0.40105 0.13605,0.73763 0.4082,1.00976 0.27212,0.25782 0.60154,0.38673 0.98828,0.38672 0.3867,1e-5 0.71613,-0.1289 0.98828,-0.38672 0.27212,-0.27213 0.40819,-0.60871 0.4082,-1.00976 -10e-6,-0.38671 -0.13608,-0.71614 -0.4082,-0.98828 -0.27215,-0.27213 -0.60158,-0.4082 -0.98828,-0.40821 -0.38674,10e-6 -0.71616,0.13608 -0.98828,0.40821 -0.27215,0.27214 -0.40822,0.60157 -0.4082,0.98828 v 0" />
      <path
         id="path3156"
         style="font-size:22px"
         d="m 122.3125,500.09051 h 4.06055 c -0.67318,0.55859 -1.1888,1.13151 -1.54688,1.71875 -0.37239,0.58724 -0.55859,1.13151 -0.55859,1.63281 0,0.3151 0.11458,0.58008 0.34375,0.79493 0.21484,0.22916 0.47982,0.34374 0.79492,0.34375 0.47266,-1e-5 0.8737,-0.22202 1.20313,-0.66602 0.34374,-0.44402 0.51562,-0.97396 0.51562,-1.58984 h 1.03125 c 0,0.61588 0.17187,1.14582 0.51562,1.58984 0.34375,0.444 0.75912,0.66601 1.2461,0.66602 0.61588,-1e-5 1.13867,-0.60873 1.56836,-1.82618 0.444,-1.20312 0.66601,-2.6569 0.66601,-4.36132 0,-2.32031 -0.63021,-4.30404 -1.89062,-5.95118 -1.26042,-1.64712 -2.77865,-2.47069 -4.55469,-2.4707 l 0.49414,-1.54687 c 2.01953,10e-6 3.74544,0.97396 5.17774,2.92187 1.4466,1.94792 2.16991,4.29688 2.16992,7.04688 -1e-5,2.09114 -0.35808,3.8815 -1.07422,5.37109 -0.70183,1.48958 -1.55404,2.23437 -2.55664,2.23437 -0.2435,0 -0.50847,-0.0859 -0.79492,-0.25781 -0.28646,-0.15756 -0.58008,-0.38672 -0.88086,-0.6875 l -0.12891,0.0644 0.38672,1.99805 h -1.67578 l 0.4082,-1.97656 -0.1289,-0.0215 c -0.20053,0.27213 -0.45118,0.48698 -0.75196,0.64454 -0.30078,0.15754 -0.61588,0.23632 -0.94531,0.23632 -0.70182,0 -1.29622,-0.25065 -1.7832,-0.75195 -0.5013,-0.50131 -0.75195,-1.10287 -0.75196,-1.80469 1e-5,-0.40104 0.0716,-0.79492 0.21485,-1.18164 0.14323,-0.3724 0.35807,-0.73047 0.64453,-1.07422 l -0.0859,-0.0859 -0.66601,0.0859 h -0.66602 v -1.0957 0" />
      <path
         id="path3158"
         style="font-size:22px"
         d="m 139.32812,488.08075 c 0,0.38672 0.13607,0.72331 0.40821,1.00976 0.27213,0.27215 0.60872,0.40821 1.00976,0.4082 0.38672,10e-6 0.70898,-0.13605 0.9668,-0.4082 0.27213,-0.28645 0.4082,-0.62304 0.4082,-1.00976 0,-0.38671 -0.13607,-0.71614 -0.4082,-0.98829 -0.25782,-0.28644 -0.58008,-0.42967 -0.9668,-0.42968 -0.40104,10e-6 -0.73763,0.14324 -1.00976,0.42968 -0.27214,0.27215 -0.40821,0.60158 -0.40821,0.98829 v 0 m -1.375,7.77734 c 0,0.38672 0.13607,0.72331 0.40821,1.00976 0.27213,0.27214 0.60872,0.40821 1.00976,0.40821 0.38672,0 0.70898,-0.13607 0.9668,-0.40821 0.27213,-0.28645 0.4082,-0.62304 0.4082,-1.00976 0,-0.40104 -0.13607,-0.73047 -0.4082,-0.98828 -0.25782,-0.27213 -0.58008,-0.4082 -0.9668,-0.40821 -0.40104,1e-5 -0.73763,0.13608 -1.00976,0.40821 -0.27214,0.25781 -0.40821,0.58724 -0.40821,0.98828 v 0 m -1.13867,0 c 0,-0.6875 0.25065,-1.27474 0.75196,-1.76172 0.5013,-0.5013 1.10286,-0.75195 1.80468,-0.75195 0.54427,0 1.05273,0.20052 1.52539,0.60156 0.48698,0.38672 0.85221,0.90951 1.09571,1.56836 0.15754,0.44401 0.42968,0.80208 0.8164,1.07422 0.40104,0.25781 0.83789,0.38672 1.31055,0.38672 0.70182,0 1.30338,-0.42969 1.80469,-1.28907 0.50129,-0.87369 0.75194,-1.93359 0.75195,-3.17968 -1e-5,-1.3177 -0.3366,-2.46354 -1.00976,-3.4375 -0.67319,-0.97395 -1.51824,-1.55403 -2.53516,-1.74024 l -0.0645,0.10742 c 0.0716,0.1146 0.12173,0.22918 0.15039,0.34375 0.043,0.1146 0.0644,0.21486 0.0644,0.30079 -1e-5,0.6875 -0.25066,1.28191 -0.75195,1.7832 -0.50131,0.48699 -1.09571,0.73048 -1.78321,0.73047 -0.70182,10e-6 -1.30338,-0.24348 -1.80468,-0.73047 -0.48699,-0.50129 -0.73047,-1.0957 -0.73047,-1.7832 0,-0.70182 0.28645,-1.29622 0.85937,-1.78321 0.58724,-0.50129 1.28906,-0.75194 2.10547,-0.75195 1.89062,10e-6 3.50911,0.68035 4.85547,2.04101 1.34634,1.36069 2.01952,3.00066 2.01953,4.91993 -1e-5,1.63281 -0.38673,3.02213 -1.16016,4.16797 -0.75912,1.14583 -1.68295,1.71875 -2.77148,1.71875 -0.50131,0 -0.97396,-0.12891 -1.41797,-0.38672 -0.42969,-0.27214 -0.77344,-0.63021 -1.03125,-1.07422 l -0.0644,0.043 c -0.15756,0.41536 -0.44402,0.75911 -0.85938,1.03125 -0.40104,0.25781 -0.85937,0.38672 -1.375,0.38672 -0.70182,0 -1.30338,-0.25066 -1.80468,-0.75196 -0.50131,-0.5013 -0.75196,-1.0957 -0.75196,-1.7832 v 0" />
      <path
         id="path3160"
         style="font-size:22px"
         d="m 149.91992,495.2995 c 0,-0.63021 0.22201,-1.21745 0.66602,-1.76172 0.45833,-0.55859 1.05273,-0.96679 1.7832,-1.22461 0.61588,-0.22916 1.11002,-0.5013 1.48242,-0.81641 0.37239,-0.32942 0.55859,-0.65168 0.5586,-0.9668 -1e-5,-0.31509 -0.1504,-0.58007 -0.45118,-0.79492 -0.30078,-0.22916 -0.66602,-0.34374 -1.0957,-0.34375 -0.41537,10e-6 -0.7806,0.11459 -1.0957,0.34375 -0.30079,0.21485 -0.45118,0.47983 -0.45117,0.79492 -1e-5,0.18621 0.043,0.37957 0.1289,0.58008 0.0859,0.18621 0.20052,0.36524 0.34375,0.53711 l -1.20312,0.42969 c -0.21485,-0.21484 -0.37956,-0.45117 -0.49414,-0.70899 -0.11459,-0.27212 -0.17188,-0.55142 -0.17188,-0.83789 0,-0.68749 0.27214,-1.28189 0.81641,-1.7832 0.55859,-0.50129 1.23177,-0.75194 2.01953,-0.75195 0.65885,1e-5 1.23893,0.13608 1.74023,0.4082 0.51562,0.27215 0.85937,0.63738 1.03125,1.0957 0.57291,0.67319 1.20312,1.20314 1.89063,1.58985 0.68749,0.3724 1.37499,0.5586 2.0625,0.55859 0.2578,10e-6 0.47981,-0.1289 0.66601,-0.38672 0.18619,-0.2578 0.27929,-0.56574 0.2793,-0.92383 -1e-5,-0.30077 -0.0788,-0.5729 -0.23633,-0.8164 -0.15756,-0.24348 -0.36524,-0.40103 -0.62304,-0.47266 h -2.92188 v -1.26758 h 8.76563 c 0.85935,10e-6 1.58982,0.26499 2.1914,0.79493 0.60155,0.51563 0.90233,1.13868 0.90235,1.86914 -2e-5,0.70183 -0.25067,1.30339 -0.75196,1.80468 -0.50132,0.50131 -1.10288,0.75196 -1.80468,0.75196 -0.68752,0 -1.28192,-0.25065 -1.78321,-0.75196 -0.48699,-0.50129 -0.73048,-1.10285 -0.73047,-1.80468 -1e-5,-0.32942 0.0501,-0.61588 0.15039,-0.85938 0.10025,-0.2578 0.23632,-0.43684 0.40821,-0.53711 l -0.043,-0.0859 -0.92383,0.0859 h -1.39648 c 0.11457,0.18621 0.2005,0.39389 0.25781,0.62305 0.0573,0.21485 0.0859,0.43686 0.0859,0.66601 -2e-5,0.7448 -0.24351,1.38217 -0.73047,1.91211 -0.48699,0.52996 -1.07423,0.79493 -1.76172,0.79493 -0.65887,0 -1.31772,-0.17187 -1.97656,-0.51563 -0.65887,-0.35807 -1.25327,-0.85221 -1.78321,-1.48242 h -0.10742 c -0.0716,0.47266 -0.30795,0.91667 -0.70898,1.33203 -0.40105,0.40105 -0.90951,0.70899 -1.52539,0.92383 -0.63022,0.22917 -1.13152,0.52995 -1.50391,0.90234 -0.3724,0.35808 -0.5586,0.72331 -0.55859,1.09571 -1e-5,0.47265 0.16471,0.8737 0.49414,1.20312 0.32942,0.31511 0.73046,0.47266 1.20312,0.47266 0.64453,0 1.1888,-0.27214 1.63281,-0.81641 0.45833,-0.54427 0.6875,-1.20312 0.6875,-1.97656 h 1.00977 c -1e-5,0.77344 0.222,1.43229 0.66602,1.97656 0.444,0.54427 0.98111,0.81641 1.61132,0.81641 0.47265,0 0.87369,-0.15755 1.20313,-0.47266 0.32941,-0.32942 0.49413,-0.73047 0.49414,-1.20312 -1e-5,-0.30078 -0.043,-0.5944 -0.12891,-0.88086 -0.0716,-0.28646 -0.17188,-0.55143 -0.30078,-0.79493 h 1.48242 c 0.11457,0.34376 0.20051,0.6517 0.25782,0.92383 0.0573,0.27214 0.0859,0.52279 0.0859,0.75196 -1e-5,0.85937 -0.30079,1.58984 -0.90234,2.1914 -0.60157,0.60156 -1.33204,0.90235 -2.19141,0.90235 -0.57292,0 -1.10287,-0.13607 -1.58984,-0.40821 -0.47266,-0.27213 -0.84506,-0.63737 -1.11719,-1.0957 h -0.19336 c -0.25782,0.45833 -0.63021,0.82357 -1.11718,1.0957 -0.48699,0.27214 -1.01694,0.40821 -1.58985,0.40821 -0.85938,0 -1.58984,-0.30079 -2.1914,-0.90235 -0.60157,-0.60156 -0.90235,-1.33203 -0.90235,-2.1914 v 0 m 14.63086,-4.85547 c -1e-5,0.40105 0.13605,0.73763 0.4082,1.00976 0.27212,0.25782 0.60155,0.38673 0.98829,0.38672 0.3867,1e-5 0.71612,-0.1289 0.98828,-0.38672 0.28644,-0.27213 0.42967,-0.60871 0.42968,-1.00976 -1e-5,-0.38671 -0.14324,-0.71614 -0.42968,-0.98828 -0.27216,-0.27213 -0.60158,-0.4082 -0.98828,-0.40821 -0.38674,10e-6 -0.71617,0.13608 -0.98829,0.40821 -0.27215,0.27214 -0.40821,0.60157 -0.4082,0.98828 v 0" />
      <path
         id="path3162"
         style="font-size:22px"
         d="m 158.04102,504.88153 c 1e-5,0.22916 0.15756,0.42252 0.47265,0.58007 0.31512,0.15755 0.70183,0.23633 1.16016,0.23633 0.68751,0 1.27475,-0.0645 1.76172,-0.19336 0.48698,-0.12891 0.84506,-0.31511 1.07422,-0.55859 v -0.12891 c -0.22916,-0.24349 -0.58724,-0.43685 -1.07422,-0.58007 -0.5013,-0.14324 -1.08854,-0.21485 -1.76172,-0.21485 -0.45833,0 -0.84504,0.0859 -1.16016,0.25781 -0.31509,0.17187 -0.47264,0.37239 -0.47265,0.60157 v 0 m -2.49219,-3.39453 c 1e-5,-0.68751 0.25782,-1.28191 0.77344,-1.78321 0.50131,-0.48698 1.10287,-0.73047 1.80468,-0.73047 0.34376,0 0.66603,0.0859 0.9668,0.25782 0.30079,0.18619 0.55144,0.43684 0.75195,0.75195 h 0.12891 c 0.20053,-0.31511 0.45834,-0.56576 0.77344,-0.75195 0.30079,-0.17188 0.61589,-0.25782 0.94531,-0.25782 0.65886,0 1.2461,0.20768 1.76172,0.62305 0.51563,0.42969 0.8737,0.97396 1.07422,1.63281 h 1.20312 v -2.53515 h 0.92383 v 2.53515 h 0.88086 v 1.09571 h -2.68555 v 0.58007 c 1e-5,0.32943 -0.0501,0.65885 -0.15039,0.98829 -0.11458,0.32942 -0.27929,0.65884 -0.49414,0.98828 v 0.15039 c 0.21485,0.31509 0.37956,0.67317 0.49414,1.07422 0.11459,0.41535 0.17188,0.84504 0.17188,1.28906 h -1.13868 c 10e-6,-0.37241 -0.0215,-0.69467 -0.0645,-0.9668 -0.0573,-0.27214 -0.1289,-0.47266 -0.21484,-0.60156 -0.40104,0.40103 -0.93099,0.71614 -1.58985,0.94531 -0.65884,0.22916 -1.38931,0.34374 -2.1914,0.34375 -0.80208,-1e-5 -1.48957,-0.22201 -2.0625,-0.66601 -0.57291,-0.4297 -0.85936,-0.95249 -0.85938,-1.56836 2e-5,-0.63022 0.28647,-1.16733 0.85938,-1.61133 0.57293,-0.42969 1.26042,-0.64454 2.0625,-0.64453 0.77344,-1e-5 1.48243,0.11458 2.12695,0.34375 0.63022,0.22916 1.153,0.55142 1.56836,0.96679 0.11459,-0.14323 0.20769,-0.30794 0.2793,-0.49414 0.0573,-0.1862 0.0859,-0.36524 0.0859,-0.53711 1e-5,-0.6875 -0.20051,-1.2819 -0.60156,-1.7832 -0.40103,-0.48698 -0.88085,-0.73047 -1.43945,-0.73047 -0.34374,0 -0.65169,0.12891 -0.92383,0.38672 -0.27213,0.27213 -0.43684,0.60872 -0.49414,1.00977 h -0.9668 c -0.0573,-0.40105 -0.19335,-0.73764 -0.4082,-1.00977 -0.22916,-0.25781 -0.48697,-0.38672 -0.77344,-0.38672 -0.31509,0 -0.58723,0.10026 -0.8164,0.30078 -0.22916,0.21484 -0.34374,0.47982 -0.34375,0.79493 1e-5,0.14322 0.0286,0.27213 0.0859,0.38671 0.0573,0.11458 0.12892,0.20052 0.21485,0.25782 l -0.79492,0.90234 c -0.28645,-0.17188 -0.50845,-0.39388 -0.66602,-0.66602 -0.17186,-0.27213 -0.2578,-0.56575 -0.25781,-0.88085 v 0" />
      <path
         id="path3164"
         style="font-size:22px"
         d="m 177.44141,496.97528 c 0.67316,0 1.23892,-0.36524 1.69726,-1.09571 0.47265,-0.74478 0.70898,-1.63997 0.70899,-2.68554 -1e-5,-1.14583 -0.45119,-2.11979 -1.35352,-2.92188 -0.90235,-0.8164 -1.99089,-1.2246 -3.26562,-1.22461 h -1.91211 c -0.85938,10e-6 -1.58985,-0.30793 -2.19141,-0.92383 -0.60156,-0.63019 -0.90234,-1.37498 -0.90234,-2.23437 h 1.11718 c 0,0.57293 0.20052,1.05991 0.60157,1.46094 0.40103,0.40105 0.87369,0.60157 1.41796,0.60156 0.20052,10e-6 0.41536,-0.0644 0.64454,-0.19336 0.24348,-0.1289 0.48697,-0.31509 0.73046,-0.55859 l 3.54493,-3.37305 0.70898,0.70898 -3.37305,3.33008 c 1.57552,0.0859 2.90755,0.64454 3.9961,1.67578 1.08853,1.01694 1.6328,2.23438 1.63281,3.65235 -10e-6,1.43229 -0.37241,2.6569 -1.11719,3.67382 -0.73048,1.01693 -1.62566,1.5254 -2.68554,1.5254 -0.80209,0 -1.50392,-0.24349 -2.10547,-0.73047 -0.60157,-0.5013 -0.9668,-1.12435 -1.09571,-1.86914 -0.10026,-0.54427 -0.32227,-0.99544 -0.66601,-1.35352 -0.34376,-0.37239 -0.73764,-0.55859 -1.18164,-0.55859 -0.38672,0 -0.72331,0.20052 -1.00977,0.60156 -0.27214,0.38672 -0.4082,0.85222 -0.4082,1.39648 0,0.21485 0.0716,0.50131 0.21484,0.85938 0.14323,0.34375 0.35091,0.75911 0.62305,1.24609 l -1.24609,0.45117 c -0.32943,-0.55859 -0.58008,-1.05273 -0.75196,-1.48242 -0.17187,-0.44401 -0.25781,-0.80208 -0.25781,-1.07422 0,-0.93098 0.2793,-1.7259 0.83789,-2.38476 0.55859,-0.65885 1.22461,-0.98828 1.99805,-0.98828 0.77343,0 1.43945,0.24349 1.99804,0.73047 0.57292,0.48698 0.89518,1.0957 0.9668,1.82617 0.043,0.54427 0.26497,1.0026 0.66602,1.375 0.40103,0.35807 0.87369,0.53711 1.41797,0.53711 v 0" />
      <path
         id="path3166"
         style="font-size:22px"
         d="m 185.82031,495.85809 c 0,0.38672 0.13607,0.72331 0.40821,1.00976 0.27213,0.27214 0.60872,0.40821 1.00976,0.40821 0.38672,0 0.70898,-0.13607 0.9668,-0.40821 0.27213,-0.28645 0.4082,-0.62304 0.4082,-1.00976 0,-0.40104 -0.13607,-0.73047 -0.4082,-0.98828 -0.25782,-0.27213 -0.58008,-0.4082 -0.9668,-0.40821 -0.40104,1e-5 -0.73763,0.13608 -1.00976,0.40821 -0.27214,0.25781 -0.40821,0.58724 -0.40821,0.98828 v 0 m -1.13867,0 c 0,-0.6875 0.25065,-1.27474 0.75195,-1.76172 0.5013,-0.5013 1.10287,-0.75195 1.80469,-0.75195 0.58724,0 1.11718,0.20052 1.58984,0.60156 0.47266,0.38672 0.78776,0.89519 0.94532,1.52539 0.11458,0.44401 0.37955,0.80925 0.79492,1.0957 0.41536,0.27214 0.88801,0.40821 1.41797,0.40821 0.67317,0 1.23892,-0.35807 1.69726,-1.07422 0.45833,-0.71614 0.68749,-1.58268 0.6875,-2.59961 -1e-5,-1.1888 -0.39389,-2.19856 -1.18164,-3.0293 -0.77344,-0.84504 -1.71875,-1.26757 -2.83593,-1.26758 h -1.5254 c -0.83073,10e-6 -1.54687,-0.30077 -2.14843,-0.90234 -0.60157,-0.61587 -0.90235,-1.3535 -0.90235,-2.21289 h 1.11719 c 0,0.57293 0.20052,1.05991 0.60156,1.46094 0.40104,0.40105 0.8737,0.60157 1.41797,0.60156 0.20052,10e-6 0.41536,-0.0644 0.64453,-0.19336 0.24349,-0.1289 0.48698,-0.31509 0.73047,-0.55859 l 3.54492,-3.37305 0.70899,0.70898 -3.39453,3.37305 c 1.33202,0.18621 2.43488,0.79493 3.30859,1.82617 0.88801,1.01694 1.33202,2.20574 1.33203,3.56641 l -0.043,0.66601 c 0.3151,0.90235 0.82356,1.63282 1.52539,2.19141 0.71614,0.54427 1.49673,0.81641 2.3418,0.81641 0.78775,0 1.45376,-0.35807 1.99805,-1.07422 0.54425,-0.71614 0.81639,-1.58268 0.8164,-2.59961 -10e-6,-1.10286 -0.34376,-2.04101 -1.03125,-2.81445 -0.67319,-0.78776 -1.48243,-1.18164 -2.42773,-1.18165 l 0.32227,-1.39648 c 1.31769,0.11459 2.42771,0.69467 3.33007,1.74023 0.90233,1.04559 1.3535,2.27735 1.35352,3.69532 -2e-5,1.38932 -0.44403,2.57812 -1.33203,3.5664 -0.87372,0.98829 -1.93361,1.48243 -3.17969,1.48243 -0.81642,0 -1.58986,-0.23633 -2.32031,-0.70899 -0.73048,-0.48698 -1.31056,-1.14583 -1.74024,-1.97656 -0.28647,0.80208 -0.7448,1.45378 -1.375,1.95508 -0.63021,0.48698 -1.31055,0.73047 -2.04101,0.73047 -0.50131,0 -0.97397,-0.12891 -1.41797,-0.38672 -0.42969,-0.27214 -0.77344,-0.63021 -1.03125,-1.07422 l -0.0645,0.043 c -0.15756,0.41536 -0.44402,0.75911 -0.85938,1.03125 -0.40104,0.25781 -0.85938,0.38672 -1.375,0.38672 -0.70182,0 -1.30339,-0.25066 -1.80469,-0.75196 -0.5013,-0.5013 -0.75195,-1.0957 -0.75195,-1.7832 v 0" />
      <path
         id="path3168"
         style="font-size:22px"
         d="m 215.87695,490.25067 c -1e-5,0.38672 0.13606,0.71615 0.40821,0.98828 0.27212,0.27214 0.60155,0.40821 0.98828,0.4082 0.3867,10e-6 0.71613,-0.13606 0.98828,-0.4082 0.28644,-0.27213 0.42967,-0.60156 0.42969,-0.98828 -2e-5,-0.38671 -0.14325,-0.71614 -0.42969,-0.98828 -0.27215,-0.28645 -0.60158,-0.42968 -0.98828,-0.42969 -0.38673,1e-5 -0.71616,0.14324 -0.98828,0.42969 -0.27215,0.27214 -0.40822,0.60157 -0.40821,0.98828 v 0 m -8.91601,-2.81446 h 9.77539 c 0.85936,2e-5 1.58983,0.27215 2.1914,0.81641 0.60155,0.54428 0.90233,1.2103 0.90235,1.99805 -2e-5,0.70183 -0.25067,1.30339 -0.75196,1.80468 -0.50131,0.48699 -1.10287,0.73048 -1.80468,0.73047 -0.70184,10e-6 -1.29624,-0.24348 -1.78321,-0.73047 -0.48699,-0.50129 -0.73047,-1.10285 -0.73046,-1.80468 -1e-5,-0.22916 0.0501,-0.46549 0.15039,-0.70899 0.10025,-0.24348 0.24348,-0.47981 0.42968,-0.70898 l -0.0645,-0.0859 -0.9668,0.0859 h -3.65234 l -0.73047,-0.0859 -0.0644,0.0859 c 0.54426,0.38673 0.96679,0.98113 1.26758,1.7832 0.30077,0.78777 0.45116,1.69727 0.45117,2.72852 -1e-5,1.38932 -0.42253,2.57812 -1.26758,3.5664 -0.84506,0.98829 -1.86914,1.48243 -3.07227,1.48243 -0.98828,0 -1.85481,-0.31511 -2.59961,-0.94532 -0.75911,-0.6302 -1.2246,-1.42512 -1.39648,-2.38476 v -1.48242 c 0.17188,0.98828 0.63737,1.80469 1.39648,2.44921 0.75912,0.63021 1.62565,0.94532 2.59961,0.94532 0.85938,0 1.58984,-0.35091 2.19141,-1.05274 0.60156,-0.71614 0.90234,-1.57551 0.90234,-2.57812 0,-1.27474 -0.32943,-2.36328 -0.98828,-3.26563 -0.65886,-0.90233 -1.45378,-1.3535 -2.38476,-1.35351 v -1.28907 0" />
      <path
         id="path3170"
         style="font-size:22px"
         d="m 223.58984,490.52996 c 0,0.40105 0.13607,0.73764 0.40821,1.00977 0.27213,0.25782 0.60156,0.38672 0.98828,0.38672 0.38671,0 0.71614,-0.1289 0.98828,-0.38672 0.27213,-0.27213 0.4082,-0.60872 0.4082,-1.00977 0,-0.38671 -0.13607,-0.71613 -0.4082,-0.98828 -0.27214,-0.27212 -0.60157,-0.40819 -0.98828,-0.4082 -0.38672,10e-6 -0.71615,0.13608 -0.98828,0.4082 -0.27214,0.27215 -0.40821,0.60157 -0.40821,0.98828 v 0 m 3.09375,6.44532 c 1.14583,0 2.13411,-0.4082 2.96485,-1.22461 0.83072,-0.81641 1.24608,-1.80469 1.24609,-2.96485 -1e-5,-0.8164 -0.21485,-1.54686 -0.64453,-2.1914 -0.4297,-0.64453 -0.98829,-1.0957 -1.67578,-1.35352 l 0.47265,-1.375 c 0.97395,0.35808 1.75455,0.98829 2.3418,1.89063 0.60155,0.90235 0.90233,1.91211 0.90235,3.02929 -2e-5,1.54688 -0.55145,2.87175 -1.6543,3.97461 -1.08855,1.08855 -2.40626,1.63282 -3.95313,1.63282 -1.5612,0 -2.89323,-0.54427 -3.99609,-1.63282 -1.10287,-1.10286 -1.6543,-2.42773 -1.6543,-3.97461 0,-1.33202 0.38672,-2.46353 1.16016,-3.39453 0.77343,-0.93098 1.70442,-1.39647 2.79297,-1.39648 0.70182,1e-5 1.30338,0.25066 1.80469,0.75195 0.50129,0.50131 0.75194,1.09571 0.75195,1.7832 -1e-5,0.68751 -0.25066,1.28191 -0.75195,1.78321 -0.50131,0.48698 -1.10287,0.73047 -1.80469,0.73047 -0.57292,0 -1.07422,-0.16471 -1.50391,-0.49414 -0.42969,-0.34375 -0.6875,-0.77344 -0.77344,-1.28907 h -0.0859 c -0.0573,0.14324 -0.10027,0.34376 -0.12891,0.60157 -0.0286,0.25781 -0.043,0.56576 -0.043,0.92382 0,1.16016 0.4082,2.14844 1.22461,2.96485 0.83073,0.81641 1.83333,1.22461 3.00781,1.22461 v 0" />
      <path
         id="path3172"
         style="font-size:22px"
         d="m 234.67578,495.85809 c 0,0.38672 0.13607,0.72331 0.4082,1.00976 0.27214,0.27214 0.60873,0.40821 1.00977,0.40821 0.38672,0 0.70898,-0.13607 0.9668,-0.40821 0.27213,-0.28645 0.4082,-0.62304 0.4082,-1.00976 0,-0.40104 -0.13607,-0.73047 -0.4082,-0.98828 -0.25782,-0.27213 -0.58008,-0.4082 -0.9668,-0.40821 -0.40104,1e-5 -0.73763,0.13608 -1.00977,0.40821 -0.27213,0.25781 -0.4082,0.58724 -0.4082,0.98828 v 0 m -1.13867,0 c 0,-0.6875 0.25065,-1.27474 0.75195,-1.76172 0.5013,-0.5013 1.10286,-0.75195 1.80469,-0.75195 0.58724,0 1.11718,0.20052 1.58984,0.60156 0.47265,0.38672 0.78776,0.89519 0.94532,1.52539 0.11457,0.44401 0.37955,0.80925 0.79492,1.0957 0.41536,0.27214 0.88801,0.40821 1.41797,0.40821 0.67317,0 1.23892,-0.35807 1.69726,-1.07422 0.45833,-0.71614 0.68749,-1.58268 0.6875,-2.59961 -1e-5,-1.1888 -0.39389,-2.19856 -1.18164,-3.0293 -0.77344,-0.84504 -1.71876,-1.26757 -2.83594,-1.26758 h -1.52539 c -0.83073,10e-6 -1.54687,-0.30077 -2.14843,-0.90234 -0.60157,-0.61587 -0.90235,-1.3535 -0.90235,-2.21289 H 235.75 c 0,0.57293 0.20052,1.05991 0.60156,1.46094 0.40104,0.40105 0.8737,0.60157 1.41797,0.60156 0.20052,10e-6 0.41536,-0.0644 0.64453,-0.19336 0.24349,-0.1289 0.48698,-0.31509 0.73047,-0.55859 l 3.54492,-3.37305 0.70899,0.70898 -3.39453,3.37305 c 1.33202,0.18621 2.43488,0.79493 3.30859,1.82617 0.88801,1.01694 1.33202,2.20574 1.33203,3.56641 l -0.043,0.66601 c 0.31509,0.90235 0.82356,1.63282 1.52539,2.19141 0.71614,0.54427 1.49673,0.81641 2.3418,0.81641 0.78774,0 1.45376,-0.35807 1.99805,-1.07422 0.54425,-0.71614 0.81638,-1.58268 0.8164,-2.59961 -2e-5,-1.10286 -0.34376,-2.04101 -1.03125,-2.81445 -0.67319,-0.78776 -1.48243,-1.18164 -2.42773,-1.18165 l 0.32226,-1.39648 c 1.3177,0.11459 2.42772,0.69467 3.33008,1.74023 0.90233,1.04559 1.3535,2.27735 1.35352,3.69532 -2e-5,1.38932 -0.44403,2.57812 -1.33203,3.5664 -0.87372,0.98829 -1.93361,1.48243 -3.17969,1.48243 -0.81642,0 -1.58986,-0.23633 -2.32031,-0.70899 -0.73048,-0.48698 -1.31056,-1.14583 -1.74024,-1.97656 -0.28647,0.80208 -0.7448,1.45378 -1.375,1.95508 -0.63022,0.48698 -1.31055,0.73047 -2.04101,0.73047 -0.50131,0 -0.97397,-0.12891 -1.41797,-0.38672 -0.4297,-0.27214 -0.77344,-0.63021 -1.03125,-1.07422 l -0.0645,0.043 c -0.15755,0.41536 -0.44401,0.75911 -0.85937,1.03125 -0.40105,0.25781 -0.85938,0.38672 -1.375,0.38672 -0.70183,0 -1.30339,-0.25066 -1.80469,-0.75196 -0.5013,-0.5013 -0.75195,-1.0957 -0.75195,-1.7832 v 0" />
      <path
         id="path3174"
         style="font-size:22px"
         d="m 252.09961,495.34246 0.30078,-1.76171 c 0.25781,1.0026 0.75912,1.81901 1.50391,2.44921 0.74479,0.63021 1.57552,0.94532 2.49218,0.94532 0.77344,0 1.43229,-0.35807 1.97657,-1.07422 0.54426,-0.71614 0.8164,-1.58268 0.8164,-2.59961 0,-1.10286 -0.33659,-2.04101 -1.00976,-2.81445 -0.67318,-0.78776 -1.48959,-1.18164 -2.44922,-1.18165 l 0.32226,-1.39648 c 1.30339,1e-5 2.40625,0.52996 3.3086,1.58984 0.91666,1.05991 1.37499,2.34181 1.375,3.84571 -1e-5,1.38932 -0.43686,2.57812 -1.31055,3.5664 -0.8737,0.98829 -1.94076,1.48243 -3.20117,1.48243 -0.97396,0 -1.84766,-0.2793 -2.62109,-0.8379 -0.75912,-0.57291 -1.26042,-1.31054 -1.50391,-2.21289 v 0" />
      <path
         id="path3176"
         style="font-size:22px"
         d="m 264.79687,490.52996 c 0,0.40105 0.13607,0.73764 0.40821,1.00977 0.27213,0.25782 0.60156,0.38672 0.98828,0.38672 0.38671,0 0.71614,-0.1289 0.98828,-0.38672 0.27213,-0.27213 0.4082,-0.60872 0.4082,-1.00977 0,-0.38671 -0.13607,-0.71613 -0.4082,-0.98828 -0.27214,-0.27212 -0.60157,-0.40819 -0.98828,-0.4082 -0.38672,10e-6 -0.71615,0.13608 -0.98828,0.4082 -0.27214,0.27215 -0.40821,0.60157 -0.40821,0.98828 v 0 m 3.09375,6.44532 c 1.14583,0 2.13411,-0.4082 2.96485,-1.22461 0.83072,-0.81641 1.24608,-1.80469 1.24609,-2.96485 -1e-5,-0.8164 -0.21485,-1.54686 -0.64453,-2.1914 -0.4297,-0.64453 -0.98829,-1.0957 -1.67578,-1.35352 l 0.47266,-1.375 c 0.97394,0.35808 1.75454,0.98829 2.34179,1.89063 0.60155,0.90235 0.90233,1.91211 0.90235,3.02929 -2e-5,1.54688 -0.55145,2.87175 -1.6543,3.97461 -1.08855,1.08855 -2.40626,1.63282 -3.95313,1.63282 -1.5612,0 -2.89323,-0.54427 -3.99609,-1.63282 -1.10286,-1.10286 -1.6543,-2.42773 -1.6543,-3.97461 0,-1.33202 0.38672,-2.46353 1.16016,-3.39453 0.77344,-0.93098 1.70442,-1.39647 2.79297,-1.39648 0.70182,1e-5 1.30338,0.25066 1.80469,0.75195 0.50129,0.50131 0.75194,1.09571 0.75195,1.7832 -10e-6,0.68751 -0.25066,1.28191 -0.75195,1.78321 -0.50131,0.48698 -1.10287,0.73047 -1.80469,0.73047 -0.57292,0 -1.07422,-0.16471 -1.50391,-0.49414 -0.42969,-0.34375 -0.6875,-0.77344 -0.77343,-1.28907 h -0.0859 c -0.0573,0.14324 -0.10026,0.34376 -0.12891,0.60157 -0.0286,0.25781 -0.043,0.56576 -0.043,0.92382 0,1.16016 0.4082,2.14844 1.22461,2.96485 0.83073,0.81641 1.83333,1.22461 3.00781,1.22461 v 0" />
      <path
         id="path3178"
         style="font-size:22px"
         d="m 272.76758,495.34246 0.30078,-1.76171 c 0.25781,1.0026 0.75911,1.81901 1.50391,2.44921 0.74479,0.63021 1.57551,0.94532 2.49218,0.94532 0.77344,0 1.43229,-0.35807 1.97657,-1.07422 0.54426,-0.71614 0.8164,-1.58268 0.8164,-2.59961 0,-1.10286 -0.33659,-2.04101 -1.00976,-2.81445 -0.67318,-0.78776 -1.48959,-1.18164 -2.44922,-1.18165 l 0.32226,-1.39648 c 1.30338,1e-5 2.40625,0.52996 3.3086,1.58984 0.91666,1.05991 1.37499,2.34181 1.375,3.84571 -10e-6,1.38932 -0.43686,2.57812 -1.31055,3.5664 -0.8737,0.98829 -1.94076,1.48243 -3.20117,1.48243 -0.97396,0 -1.84766,-0.2793 -2.6211,-0.8379 -0.75911,-0.57291 -1.26041,-1.31054 -1.5039,-2.21289 v 0" />
    </g>
  </g>
</svg>
