<?xml version="1.0" encoding="UTF-8" standalone="no"?>
<svg
   xmlns:dc="http://purl.org/dc/elements/1.1/"
   xmlns:cc="http://creativecommons.org/ns#"
   xmlns:rdf="http://www.w3.org/1999/02/22-rdf-syntax-ns#"
   xmlns:svg="http://www.w3.org/2000/svg"
   xmlns="http://www.w3.org/2000/svg"
   xml:space="preserve"
   id="svg1325"
   viewBox="0 0 409.9584 48.196503"
   height="48.196503"
   width="409.9584"
   version="1.0"><metadata
   id="metadata36"><rdf:RDF><cc:Work
       rdf:about=""><dc:format>image/svg+xml</dc:format><dc:type
         rdf:resource="http://purl.org/dc/dcmitype/StillImage" /></cc:Work></rdf:RDF></metadata>
<defs
   id="defs3" />

<g
   id="g3126"
   transform="translate(-0.02082469,-460.30285)">
	
</g>

<g
   id="g2427"
   transform="matrix(1.0181786,0,0,1.0181786,-5.3963466,-471.28636)"><g
     id="g27">
	<path
   id="path29"
   d="m 96.517,507.984 c 0.35,0.324 0.35,1.465 0,1.79 -2.92,-0.055 -4.615,-0.108 -7.535,-0.108 -2.979,0 -4.731,0.055 -7.593,0.108 -0.351,-0.325 -0.351,-1.466 0,-1.79 4.089,-0.163 5.082,-0.435 5.082,-4.938 v -21.752 c 0,-4.502 -0.993,-4.773 -5.082,-4.937 -0.351,-0.325 -0.351,-1.466 0,-1.79 2.92,0.055 4.614,0.107 7.535,0.107 2.979,0 4.731,-0.054 7.593,-0.107 0.35,0.324 0.35,1.465 0,1.79 -4.089,0.162 -5.082,0.435 -5.082,4.937 v 21.752 c 0,4.505 0.993,4.775 5.082,4.938 z" />
	<path
   id="path31"
   d="m 115.265,507.984 c 0.351,0.324 0.351,1.465 0,1.79 -2.921,-0.055 -4.615,-0.108 -7.535,-0.108 -2.979,0 -4.731,0.055 -7.593,0.108 -0.351,-0.325 -0.351,-1.466 0,-1.79 4.089,-0.163 5.082,-0.435 5.082,-4.938 v -21.752 c 0,-4.502 -0.993,-4.773 -5.082,-4.937 -0.351,-0.325 -0.351,-1.466 0,-1.79 2.92,0.055 4.614,0.107 7.535,0.107 2.979,0 4.731,-0.054 7.594,-0.107 0.351,0.324 0.351,1.465 0,1.79 -4.089,0.162 -5.082,0.435 -5.082,4.937 v 9.531 c 2.044,-0.163 3.265,-0.961 4.439,-2.101 l 9.813,-9.547 c 2.81,-2.896 0.473,-2.637 -1.636,-2.82 -0.35,-0.325 -0.35,-1.466 0,-1.79 2.746,0.055 4.264,0.107 6.601,0.107 2.337,0 2.804,-0.054 5.549,-0.107 0.351,0.324 0.351,1.465 0,1.79 -2.336,0.271 -4.906,0.38 -7.593,3.037 l -8.177,8.19 c -1.91,1.915 -2.162,2.278 -2.162,2.658 0,0.435 0.175,0.813 0.701,1.355 l 12.792,14.104 c 1.962,2.257 4.095,2.138 5.14,2.278 0.351,0.324 0.351,1.465 0,1.789 -2.746,-0.054 -3.622,-0.107 -5.899,-0.107 -1.752,0 -2.746,0.055 -3.914,0.107 -0.234,0 -0.292,-0.162 -0.292,-0.324 0,-0.987 -0.006,-2.432 -1.168,-3.743 l -9.521,-10.74 c -1.168,-1.395 -2.71,-2.002 -4.673,-2.056 v 10.138 c -10e-4,4.508 0.992,4.778 5.081,4.941 z" />
	<path
   id="path33"
   d="m 154.63,507.984 c 0.351,0.324 0.351,1.465 0,1.79 -2.921,-0.055 -4.615,-0.108 -7.535,-0.108 -2.979,0 -4.731,0.055 -7.593,0.108 -0.351,-0.325 -0.351,-1.466 0,-1.79 4.089,-0.163 5.082,-0.435 5.082,-4.938 v -21.752 c 0,-4.502 -0.993,-4.773 -5.082,-4.937 -0.351,-0.325 -0.351,-1.466 0,-1.79 2.92,0.055 4.614,0.107 7.535,0.107 2.979,0 4.731,-0.054 7.594,-0.107 0.351,0.324 0.351,1.465 0,1.79 -4.089,0.162 -5.082,0.435 -5.082,4.937 v 21.752 c -0.001,4.505 0.992,4.775 5.081,4.938 z" />
	<path
   id="path35"
   d="m 168.822,507.984 c 0.351,0.324 0.351,1.465 0,1.79 -2.161,-0.055 -5.082,-0.108 -7.477,-0.108 -2.278,0 -3.037,0.055 -5.199,0.108 -0.35,-0.325 -0.35,-1.466 0,-1.79 2.541,-0.163 4.299,-0.499 5.841,-3.853 l 12.984,-28.224 c 0.666,-1.453 1.11,-1.938 1.969,-1.938 0.818,0 1.15,0.581 1.577,1.628 l 11.974,29.4 c 1.081,2.794 2.991,2.794 5.257,2.983 0.351,0.324 0.351,1.465 0,1.79 -2.161,-0.055 -4.264,-0.108 -6.659,-0.108 -2.278,0 -5.491,0.055 -7.652,0.108 -0.351,-0.325 -0.351,-1.466 0,-1.79 2.78,-0.186 5.193,0.011 4.322,-2.225 l -3.563,-9.168 h -12.149 c -1.402,0 -1.752,0.217 -2.044,0.923 l -3.212,7.865 c -0.91,2.235 1.835,2.469 4.031,2.609 z m 12.442,-13.67 -5.666,-14.483 h -0.117 l -5.853,13.762 c -0.246,0.586 0.175,0.723 1.472,0.723 z" />
	<path
   id="path37"
   d="m 212.568,507.984 c 0.351,0.324 0.351,1.465 0,1.79 -2.922,-0.055 -4.614,-0.108 -7.535,-0.108 -2.979,0 -4.731,0.055 -7.593,0.108 -0.351,-0.325 -0.351,-1.466 0,-1.79 4.089,-0.163 5.082,-0.435 5.082,-4.938 v -21.752 c 0,-4.502 -0.993,-4.773 -5.082,-4.937 -0.351,-0.325 -0.351,-1.466 0,-1.79 2.92,0.055 4.614,0.107 7.535,0.107 2.979,0 4.731,-0.054 7.593,-0.107 0.352,0.324 0.352,1.465 0,1.79 -4.088,0.162 -5.082,0.435 -5.082,4.937 v 21.752 c 0,4.505 0.993,4.775 5.082,4.938 z" />
	<path
   id="path39"
   d="m 242.473,476.359 c -0.352,-0.325 -0.352,-1.466 0,-1.79 2.92,0.055 3.971,0.107 6.482,0.107 2.57,0 3.68,-0.054 6.542,-0.107 0.351,0.324 0.351,1.465 0,1.79 -4.089,0.38 -5.081,0.705 -5.081,5.532 v 26.636 c 0,1.029 -0.525,1.681 -1.344,1.681 -0.936,0 -1.694,-0.487 -2.338,-1.302 l -20.385,-23.922 c -0.992,-1.193 -1.636,-1.79 -1.985,-1.79 -0.468,0 -0.468,0.813 -0.468,2.657 v 16.6 c 0,4.937 0.994,5.152 5.082,5.533 0.351,0.324 0.351,1.465 0,1.79 -2.92,-0.055 -3.973,-0.108 -6.483,-0.108 -2.57,0 -3.681,0.055 -6.542,0.108 -0.352,-0.325 -0.352,-1.466 0,-1.79 4.089,-0.381 5.082,-0.705 5.082,-5.533 v -22.62 c -0.352,-1.41 -2.104,-3.309 -4.614,-3.472 -0.351,-0.325 -0.351,-1.466 0,-1.79 l 7.886,0.107 20.034,23.978 c 1.694,2.007 2.337,2.982 2.804,2.982 0.41,0 0.41,-0.597 0.41,-1.627 v -18.118 c 0,-4.935 -0.994,-5.152 -5.082,-5.532 z" />
	<path
   id="path41"
   d="m 278.566,486.395 c 0.351,-0.324 1.576,-0.324 1.928,0 -0.059,1.629 -0.117,2.821 -0.117,4.665 0,1.846 0.059,2.875 0.117,4.774 -0.352,0.325 -1.577,0.325 -1.928,0 -0.176,-2.441 -0.352,-3.689 -5.315,-3.689 h -5.315 v 13.073 c 0,1.465 0.817,2.333 2.104,2.333 h 7.943 c 4.438,0 6.483,-3.201 7.651,-7.105 0.767,-0.174 1.437,-0.049 2.044,0.271 -0.467,2.768 -1.343,6.347 -2.16,9.06 0,0 -4.674,-0.108 -7.478,-0.108 h -12.558 c 0,0 -4.731,0.055 -7.594,0.108 -0.352,-0.325 -0.352,-1.466 0,-1.79 4.088,-0.163 5.082,-0.435 5.082,-4.938 v -21.752 c 0,-4.502 -0.994,-4.772 -5.082,-4.937 -0.352,-0.325 -0.352,-1.466 0,-1.79 2.92,0.055 7.534,0.107 7.534,0.107 h 14.896 c 1.402,0 1.869,-0.054 2.861,-0.217 0.176,0 0.233,0.055 0.233,0.163 0.116,0.434 0.993,5.642 1.285,7.865 -0.572,0.255 -1.203,0.368 -1.929,0.271 -1.285,-3.743 -2.22,-5.913 -6.601,-5.913 h -6.133 c -1.401,0 -2.103,1.085 -2.103,2.387 v 10.851 h 5.314 c 4.971,0 5.146,-0.706 5.321,-3.689 z" />
	<path
   id="path43"
   d="m 305.607,507.984 c 0.352,0.324 0.352,1.465 0,1.79 -2.92,-0.055 -4.613,-0.108 -7.534,-0.108 -2.979,0 -4.731,0.055 -7.595,0.108 -0.35,-0.325 -0.35,-1.466 0,-1.79 4.09,-0.163 5.082,-0.435 5.082,-4.938 v -21.752 c 0,-4.502 -0.992,-4.773 -5.082,-4.937 -0.35,-0.325 -0.35,-1.466 0,-1.79 2.922,0.055 4.615,0.107 7.535,0.107 2.979,0 4.731,-0.054 7.594,-0.107 0.352,0.324 0.352,1.465 0,1.79 -4.088,0.162 -5.082,0.435 -5.082,4.937 v 21.752 c 0,4.505 0.995,4.775 5.082,4.938 z" />
	<path
   id="path45"
   d="m 330.813,482.435 c -0.526,0.381 -1.228,0.315 -1.898,0.326 -1.169,-3.58 -2.979,-6.942 -8.65,-6.942 -3.732,0 -6.396,2.767 -6.396,6.074 0,5.316 7.921,7.227 10.775,8.354 4.213,1.671 8.01,4.274 8.01,9.438 0,5.533 -5.644,10.523 -12.698,10.523 -5.182,0 -6.813,-1.247 -10.491,-1.247 -0.701,-2.658 -0.935,-4.068 -1.168,-8.245 0.562,-0.276 1.18,-0.38 1.898,-0.163 1.285,5.397 4.801,7.703 10.257,7.703 4.661,0 7.295,-2.278 7.295,-6.672 0,-6.228 -5.934,-7.248 -9.614,-8.734 -4.525,-1.826 -8.435,-4.441 -8.435,-9.491 0,-5.75 5.783,-9.386 11.122,-9.386 5.7,0 5.571,1.031 8.947,1.465 0.606,2.875 0.839,4.393 1.046,6.997 z" />
	<path
   id="path47"
   d="m 361.152,507.984 c 0.351,0.324 0.351,1.465 0,1.79 -2.92,-0.055 -4.965,-0.108 -8.119,-0.108 -3.212,0 -5.315,0.055 -8.178,0.108 -0.351,-0.325 -0.351,-1.466 0,-1.79 4.674,-0.163 5.666,-0.435 5.666,-4.938 v -23.054 c 0,-1.683 -1.169,-3.2 -3.329,-3.2 h -4.614 c -3.213,0 -3.972,0.705 -5.142,5.044 -0.729,0.012 -1.406,-0.049 -1.984,-0.271 0.7,-2.875 1.051,-5.696 1.285,-8.354 0.911,-0.086 1.354,0.065 1.811,0.218 0,0.325 0,1.247 1.228,1.247 h 25.407 c 1.228,0 1.285,-0.922 1.285,-1.247 0.584,-0.163 1.168,-0.212 1.753,-0.218 0,2.658 0.292,5.588 0.76,8.354 -0.666,0.304 -1.326,0.255 -1.986,0.271 -0.992,-4.177 -1.401,-5.044 -4.614,-5.044 h -3.621 c -2.103,0 -3.271,1.519 -3.271,3.362 v 22.892 c -0.003,4.505 0.99,4.775 5.663,4.938 z" />
	<path
   id="path49"
   d="m 389.479,510.208 c -10.046,0 -18.281,-6.672 -18.281,-17.358 0,-10.632 7.477,-18.877 17.932,-18.877 10.223,0 18.809,7.106 18.809,17.848 -0.001,10.847 -7.302,18.387 -18.46,18.387 z m -12.674,-18.28 c 0,10.415 6.834,16.438 13.845,16.438 6.657,0 11.682,-5.806 11.682,-15.516 0,-11.281 -6.017,-17.031 -13.96,-17.031 -5.317,-0.002 -11.567,4.717 -11.567,16.109 z" />
</g><path
     id="path3263"
     transform="translate(3.3,0.542)"
     d="m 76.742,463.131 c 0,0.268 -0.089,0.511 -0.267,0.732 -0.155,0.222 -0.333,0.333 -0.533,0.333 -1.64,0.153 -2.982,0.687 -4.024,1.596 -1.042,0.888 -2.118,2.595 -3.226,5.123 l -16.965,38.219 c -0.111,0.355 -0.421,0.532 -0.931,0.532 -0.399,0 -0.71,-0.177 -0.932,-0.532 l -9.513,-19.891 -10.944,19.891 c -0.222,0.355 -0.532,0.532 -0.931,0.532 -0.488,0 -0.81,-0.177 -0.965,-0.532 L 10.846,470.915 c -1.042,-2.373 -2.14,-4.024 -3.293,-4.956 -1.153,-0.954 -2.761,-1.541 -4.824,-1.763 -0.177,0 -0.343,-0.089 -0.499,-0.268 -0.152,-0.2 -0.23,-0.421 -0.23,-0.664 0,-0.621 0.177,-0.932 0.532,-0.932 1.486,0 3.038,0.066 4.657,0.2 1.508,0.133 2.927,0.199 4.258,0.198 1.353,10e-4 2.949,-0.065 4.79,-0.198 1.929,-0.134 3.637,-0.2 5.123,-0.2 0.354,0 0.532,0.311 0.532,0.932 0,0.62 -0.111,0.933 -0.333,0.933 -1.486,0.109 -2.661,0.486 -3.526,1.13 -0.843,0.644 -1.264,1.486 -1.264,2.528 0,0.531 0.177,1.196 0.532,1.995 l 13.771,31.102 7.816,-14.77 -7.284,-15.268 c -1.308,-2.728 -2.384,-4.479 -3.227,-5.256 -0.843,-0.798 -2.118,-1.286 -3.825,-1.463 -0.155,0 -0.311,-0.09 -0.466,-0.268 -0.133,-0.2 -0.2,-0.422 -0.199,-0.665 0,-0.621 0.155,-0.932 0.465,-0.932 1.486,0 2.85,0.066 4.092,0.2 1.197,0.133 2.472,0.198 3.825,0.198 1.331,0 2.739,-0.066 4.225,-0.198 1.53,-0.134 3.038,-0.2 4.523,-0.2 0.355,0 0.533,0.311 0.533,0.932 0,0.62 -0.111,0.933 -0.333,0.933 -2.971,0.197 -4.457,1.042 -4.457,2.526 0,0.665 0.344,1.696 1.031,3.095 l 4.822,9.778 4.791,-8.947 c 0.665,-1.265 0.998,-2.328 0.998,-3.192 0,-2.04 -1.486,-3.127 -4.458,-3.26 -0.266,0 -0.398,-0.313 -0.398,-0.933 0,-0.222 0.066,-0.433 0.2,-0.633 0.132,-0.199 0.266,-0.299 0.398,-0.299 1.065,0 2.372,0.066 3.925,0.2 1.486,0.133 2.706,0.198 3.659,0.198 0.687,0 1.696,-0.056 3.027,-0.165 1.685,-0.156 3.093,-0.233 4.225,-0.233 0.266,0 0.398,0.267 0.398,0.798 0,0.71 -0.244,1.065 -0.731,1.065 -1.729,0.177 -3.127,0.652 -4.192,1.43 -1.042,0.776 -2.35,2.539 -3.925,5.289 l -6.386,11.808 8.648,17.63 12.773,-29.703 c 0.443,-1.086 0.665,-2.084 0.665,-2.994 0,-2.173 -1.486,-3.325 -4.457,-3.458 -0.267,0 -0.4,-0.313 -0.4,-0.933 0,-0.621 0.2,-0.932 0.6,-0.932 1.086,0 2.372,0.066 3.858,0.2 1.375,0.133 2.528,0.198 3.459,0.198 0.976,0 2.106,-0.066 3.393,-0.198 1.331,-0.134 2.529,-0.2 3.593,-0.2 0.31,0.003 0.466,0.27 0.466,0.801" /></g>
</svg>
