<?xml version="1.0" encoding="UTF-8" standalone="no"?>
<svg
   xmlns:dc="http://purl.org/dc/elements/1.1/"
   xmlns:cc="http://creativecommons.org/ns#"
   xmlns:rdf="http://www.w3.org/1999/02/22-rdf-syntax-ns#"
   xmlns:svg="http://www.w3.org/2000/svg"
   xmlns="http://www.w3.org/2000/svg"
   version="1.1"
   width="257.11621"
   height="73.159302"
   id="svg3027">
  <defs
     id="defs22" />
  <metadata
     id="metadata3032">
    <rdf:RDF>
      <cc:Work
         rdf:about="">
        <dc:format>image/svg+xml</dc:format>
        <dc:type
           rdf:resource="http://purl.org/dc/dcmitype/StillImage" />
        <dc:title />
      </cc:Work>
    </rdf:RDF>
  </metadata>
  <path
     d="m 214.715,49.2851 q 0,-4.6868 3.0025,-7.909 3.0025,-3.2954 7.1767,-3.2954 h 19.04 v -9.3004 h -33.32 v -4.3939 h 46.502 v 4.3939 h -8.2751 v 44.378 h -4.9065 v -30.244 h -19.04 q -2.1969,0 -3.808,1.904 -1.5378,1.8308 -1.5378,4.4671 0,4.6868 3.2954,10.033 3.3686,5.3459 9.3736,10.399 l -2.9292,3.4419 q -6.8837,-5.8585 -10.765,-12.083 -3.808,-6.2247 -3.808,-11.79 z m -23.58,-20.505 v -4.3939 h 7.909 L 181.395,2.9292 184.7636,0 l 19.113,24.386 h 8.7145 v 4.3939 h -8.3484 v 44.378 h -4.8333 v -44.378 h -8.2751 z m -57.413,0 v -4.3939 h 59.391 v 4.3939 h -8.3484 v 44.378 h -4.8333 v -15.598 l -19.992,7.7625 -1.9772,-4.3206 21.969,-7.8358 V 49.285 h -25.704 q -2.0505,2.0505 -4.5403,1.904 -1.0252,0 -1.5378,-0.14646 -0.58585,-0.14646 -0.87878,-0.29293 l 13.621,19.992 -3.8813,2.4166 -20.944,-31.196 3.8813,-3.4419 q 1.7576,3.808 3.8812,6.0782 2.1237,2.1969 3.8813,2.1969 1.904,0 3.1489,-1.3914 1.2449,-1.3914 1.2449,-3.4419 v -13.182 h -18.381 z m 22.921,16.111 h 23.288 V 28.7801 H 157.01 v 11.644 q 0,2.856 -0.36615,4.4671 z M 78.798,28.7801 v -4.3939 h 56.827 v 4.3939 h -25.777 v 13.182 q 1.6111,-2.7096 4.3206,-4.2474 2.7096,-1.6111 5.9317,-1.6111 4.6868,0 7.909,3.8812 3.2954,3.808 3.2954,9.3004 0,4.6868 -2.4166,9.3004 -2.4166,4.5403 -6.8105,8.2019 l -4.3939,-2.9292 q 4.101,-2.856 6.4444,-6.7373 2.3434,-3.8812 2.3434,-7.8357 0,-3.4419 -1.904,-5.8585 -1.8308,-2.4166 -4.4671,-2.4166 -3.3686,0 -6.2979,2.5631 -2.856,2.5631 -3.9545,6.664 v 22.921 h -4.8333 v -14.646 q -1.7576,2.0505 -4.3206,3.2222 -2.4899,1.1717 -5.4191,1.1717 -5.2726,0 -9.0074,-3.6616 -3.6616,-3.7348 -3.6616,-9.0074 0,-5.8585 4.2474,-9.9594 4.3206,-4.1742 10.326,-4.1742 1.7576,0 3.0025,0.29292 1.3182,0.2197 1.904,0.65908 l -0.95201,4.9065 q -0.87877,-0.51262 -1.904,-0.73232 -0.95201,-0.21969 -2.0505,-0.21969 -3.9545,0 -6.8837,2.7096 -2.856,2.7096 -2.856,6.5176 0,3.2222 2.2702,5.5656 2.3434,2.2702 5.5656,2.2702 2.7828,0 5.4191,-1.6843 2.6363,-1.7576 4.3206,-4.6868 v -22.921 h -26.217 z m -19.48,0 v -4.3939 h 8.2751 q -0.65908,-0.87877 -1.0985,-2.4899 -0.36615,-1.6111 -0.36615,-3.808 0,-5.8585 4.5403,-9.9594 4.6136,-4.1742 11.058,-4.1742 7.6893,0 15.086,5.1994 7.4696,5.1994 12.669,14.28 h -5.7853 q -4.101,-7.0302 -9.9594,-11.058 -5.8585,-4.101 -12.01,-4.101 -4.4671,0 -7.616,2.9292 -3.1489,2.856 -3.1489,6.8837 0,2.1969 0.36616,3.808 0.43938,1.6111 1.0985,2.4899 h 8.3484 v 4.3939 h -8.3484 v 44.378 h -4.8333 v -44.378 h -8.2751 z m -39.838,0 v -4.3939 h 41.742 v 4.3939 h -8.3484 v 44.378 h -4.8333 v -15.598 q -1.9772,2.3434 -4.6868,3.6616 -2.6363,1.2449 -5.5656,1.2449 -6.0782,0 -10.399,-3.8812 -4.2474,-3.8813 -4.2474,-9.3004 0,-5.4923 4.2474,-9.3004 4.3206,-3.8812 10.399,-3.8812 1.7576,0 3.3686,0.51262 1.6111,0.43938 3.0025,1.4646 l -2.4899,3.8813 q -0.87878,-0.65908 -1.8308,-1.0252 -0.95201,-0.43939 -2.0505,-0.43939 -4.0277,0 -6.8837,2.5631 -2.856,2.5631 -2.856,6.2247 0,3.3686 2.856,5.8585 2.856,2.4166 6.8837,2.4166 2.856,0 5.5656,-1.904 2.7096,-1.9772 4.6868,-5.4191 v -21.457 h -28.56 z m -19.48,0 V 24.3862 H 8.2751 Q 7.61602,23.50743 7.1766,21.8963 6.81044,20.2852 6.81044,18.0883 q 0,-5.8585 4.5403,-9.9594 4.6136,-4.1742 11.058,-4.1742 7.6893,0 15.086,5.1994 7.4696,5.1994 12.669,14.28 h -5.7853 q -4.101,-7.0302 -9.9594,-11.058 -5.8585,-4.101 -12.01,-4.101 -4.4671,0 -7.616,2.9292 -3.1489,2.856 -3.1489,6.8837 0,2.1969 0.36616,3.808 0.43939,1.6111 1.0985,2.4899 h 8.3484 v 4.3939 h -8.3484 v 44.378 H 8.2755 V 28.7798 H 4e-4 Z"
     id="path4163" />
</svg>
