<?xml version="1.0" encoding="UTF-8" standalone="no"?>
<svg
   xmlns:dc="http://purl.org/dc/elements/1.1/"
   xmlns:cc="http://creativecommons.org/ns#"
   xmlns:rdf="http://www.w3.org/1999/02/22-rdf-syntax-ns#"
   xmlns:svg="http://www.w3.org/2000/svg"
   xmlns="http://www.w3.org/2000/svg"
   height="511.30887"
   width="409.98108"
   xml:space="preserve"
   viewBox="0 0 409.98108 511.30887"
   y="0px"
   x="0px"
   id="svg1325"
   version="1.1"><metadata
   id="metadata41"><rdf:RDF><cc:Work
       rdf:about=""><dc:format>image/svg+xml</dc:format><dc:type
         rdf:resource="http://purl.org/dc/dcmitype/StillImage" /></cc:Work></rdf:RDF></metadata>
<style
   id="style2"
   type="text/css">
	.st0{fill:#608AB4;}
	.st1{fill:#375493;}
	.st2{fill:#D6DDE3;}
	.st3{fill:#7BBCE5;}
	.st4{fill:#FFFFFF;}
	.st5{fill:#294584;}
	.st6{fill:#E0E9EA;}
	.st7{fill:#4D8AC0;}
	.st8{fill:#236798;}
</style>
<defs
   id="defs9">
	
	
		
	
		
	
		
	
		
	
		
</defs>

<g
   transform="translate(0.0376785,0.0174668)"
   id="g3126">
	<g
   transform="matrix(1.005595,0,0,1.000506,-0.942714,-0.217568)"
   id="g2492">
		<path
   d="m 203.5,0.2 c -67.9,0.5 -128,36 -164.7,90.2 h 332 c -37,-54.6 -97.6,-90.2 -166,-90.2 -0.4,0 -0.9,0 -1.3,0 z"
   class="st0"
   id="path1334" />
		<path
   d="M 27,110 C 10.4,141.1 0.9,176.9 0.9,215.1 0.9,333.7 92.3,430 204.8,430 c 112.5,0 203.8,-96.3 203.8,-214.9 0,-38.2 -9.4,-74 -26,-105.1 z"
   class="st1"
   id="path2488" />
		<path
   d="M 38.8,90.4 C 34.5,96.7 30.6,103.2 27,110 H 382.6 C 379,103.2 375,96.7 370.8,90.4 Z"
   class="st2"
   id="path2361" />
		<path
   d="m 291.9,24.3 c -0.8,0 -1.8,0.2 -2.7,0.5 -9.1,14.6 -9.1,62.8 -8.9,73.3 0,0 0,0 0.1,0 13.4,3 31.2,-0.4 31.8,-13.4 1,-17 2.1,-33.6 -6.9,-44.2 -8.2,3.8 -6.7,-11.5 -10,-14.9 -0.9,-0.9 -2.1,-1.3 -3.4,-1.3 z"
   class="st3"
   id="path2219" />
		<path
   d="m 289.2,24.8 c -4.8,1.5 -10.6,5.8 -13.5,7.3 -2.5,0.3 -7.2,0.1 -10.6,1 -7.5,1.9 -14.2,6.5 -18.2,13.7 C 241.8,32 231,50.2 218.1,60.6 211,55.2 196.6,44.4 183.4,37.5 c -10.6,5.4 -21.7,23.6 -28.3,25.2 -6.9,1.3 -16.5,0.5 -20.5,5.4 -6.7,6.9 -8.7,14.9 -10,22.3 15.7,5.6 32.1,5.7 47.8,3.6 8.9,-2.1 15.2,0.9 24.4,0.5 27.8,1.2 57.9,-2.2 83.4,3.6 -0.1,-10.4 -0.1,-58.7 9,-73.3 z"
   class="st4"
   id="path2230" />
		<path
   d="m 196.3,53.9 c 3.3,10.1 6.2,20.2 5.1,30.3 -1.2,6.3 1.5,5.8 6.4,3.3 4.9,-2.7 7.5,-5.6 14.6,-8 5.6,-1.5 1.6,-5.7 -1,-8.5 -7.9,-7.4 -16.5,-12.2 -25.1,-17.1 z"
   class="st3"
   id="path2221" />
		<path
   d="m 224.8,110 c 5.9,77.8 58.1,87.3 91,71.6 -16.4,-16.3 -10.5,-49.4 7.1,-49.8 32.5,-0.8 23.2,59.8 23.2,89.3 17.7,-3.6 16.6,-70.7 12.8,-111.1 z"
   class="st5"
   id="path2364" />
		
			<path
   d="m 56.7,110 c 0.6,6.7 1.3,13.4 1.9,20.1 4.3,7.9 7.5,15.7 6.6,23.6 8.5,-2.1 13.5,-3.2 18.1,5.5 20,12.4 38.9,13.9 57.6,12.1 3.8,45.1 2.7,81.5 1.1,135.4 11.3,18.8 22.7,36.7 34,55.5 6.5,11.4 17.9,15.1 26.9,1.5 7.7,-3.5 15.3,-6.9 23,-10.4 0,3.8 0,7.7 0,11.5 11.8,3 23.4,7.5 18.1,19.8 -4.1,7.9 -1.8,11.5 9.8,6.2 10.2,-5 16.6,2.7 21.9,4.1 -7.6,-8.1 -1.1,-24.1 -0.8,-40.6 10.9,-1 23.4,-10.9 34.4,-11.9 22.5,-21.8 26.4,-29.9 26.3,-58.1 2.3,-7.3 5.5,-9.2 3.8,-21.9 1.3,-7.9 3.1,-18.1 4.3,-26 0.9,-5.1 1.7,-10.2 2.6,-15.2 -0.1,0 -0.1,0 -0.2,0 0,-29.4 9.2,-90 -23.2,-89.3 -17.5,0.4 -23.5,33.5 -7.1,49.8 -3.8,1.8 -7.9,3.3 -12.1,4.4 1.3,7.7 -4.2,15.5 -11.5,15.9 -7.2,-0.6 -17.9,6.5 -24.7,23 -10.8,22.8 -20.6,3 -24.6,-3.2 -5.1,-6.7 1.2,-13 -12.7,-8.9 -9.1,2.8 -20.8,4.7 -23.5,-9.1 -11.7,-11.9 -22.9,-22.3 -34.6,-34.2 -4.7,-5.6 -0.8,-10.1 -0.8,-12.1 0,0 0,-0.1 0,-0.2 0,0 0,0 0,0 0,0 0,-0.1 0,-0.1 0,0 0,-0.1 0,-0.1 0,0 0,-0.1 -0.1,-0.1 0,0 0,-0.1 0,-0.1 0,0 0,0 0,0 0,0 -0.1,-0.1 -0.1,-0.1 0,0 -0.1,-0.1 -0.1,-0.1 0,0 0,0 -0.1,0 -0.1,0 -0.1,0 -0.2,-0.1 -4.6,-2.9 -10.1,0.6 -16.1,3.1 -15.7,2.9 -21.9,0.1 -23.6,-8.2 0.1,-13.8 -7.6,-12.3 -20.3,-10.4 -36.4,5.2 -42.3,-7.7 -52.9,-31.1 z"
   class="st6"
   id="path2370" />
		<path
   d="m 57.8,110 c 10.6,23.4 16.5,36.3 52.9,31.1 12.6,-1.9 20.4,-3.3 20.3,10.4 1.7,8.3 7.9,11.1 23.6,8.2 6,-2.5 11.6,-6 16.1,-3.1 0.1,0 0.1,0 0.2,0.1 0,0 0,0 0.1,0 0,0 0.1,0.1 0.1,0.1 0,0 0.1,0.1 0.1,0.1 0,0 0,0 0,0 0,0 0,0.1 0,0.1 0,0 0,0.1 0.1,0.1 0,0 0,0.1 0,0.1 0,0 0,0.1 0,0.1 0,0 0,0 0,0 0,0 0,0.1 0,0.2 0,2 -3.9,6.5 0.8,12.1 11.7,11.9 22.9,22.3 34.6,34.2 2.8,13.8 14.4,12 23.5,9.1 13.9,-4.1 7.7,2.2 12.7,8.9 3.9,6.1 13.8,25.9 24.6,3.2 6.8,-16.5 17.4,-23.7 24.7,-23 7.3,-0.3 12.8,-8.2 11.5,-15.9 -32.3,8.2 -73.7,-7.3 -78.9,-76 z"
   class="st7"
   id="path2383" />
		<path
   d="m 166.9,199.4 c -10.5,0.7 -5,35.8 -3.9,52.4 1.6,16.4 5.2,12.5 16.6,5.4 5.3,10.7 2.1,16.6 -5.4,23.5 -5.5,5.2 -8.7,13 -3.9,22 1.5,2.4 2.7,3.5 4.4,7.3 1.1,2.3 2.3,4.6 3.4,6.9 1.3,5.1 -0.2,8.2 -2.4,10.9 -2,2.9 -2.4,5.9 0.2,14 1.4,4.7 -2.5,10.3 3.6,15.3 2.7,2.1 5.4,3.7 8.1,4.9 -2.4,-6.9 -2.4,-16.9 -1.3,-25.4 0.8,-8.1 1.3,-13.1 8.7,-18.6 6.4,-3.3 4.6,-20.7 5.2,-31 0.1,0.1 0.2,0.1 0.2,0.2 0,0 0,-0.1 0,-0.2 13.7,-2.9 6.1,-13.9 1.9,-24.4 l -33.6,-62.9 c -0.7,-0.2 -1.3,-0.3 -1.8,-0.3 0.1,0 0.1,0 0,0 z"
   class="st2"
   id="path2398" />
		<path
   d="m 168.9,199.6 33.6,62.9 c 4.2,10.6 11.9,21.5 -1.9,24.4 1.2,7.4 10.3,13.8 20.4,12.9 10.5,-0.7 18.2,7.2 21.6,15.1 0.5,-8.8 1.5,-17.4 3.7,-26 1.4,-4.2 9.1,-8 2.7,-13.7 -25.9,-28.5 -50.9,-50.9 -78.9,-75.2 -0.4,-0.1 -0.8,-0.3 -1.2,-0.4 z"
   class="st0"
   id="path2404" />
		<path
   d="m 200.4,286.9 c -0.5,10.3 1.2,27.7 -5.2,31 -7.4,5.5 -7.9,10.5 -8.7,18.6 -1.2,8.6 -1.1,18.5 1.3,25.4 2.4,1 4.9,1.7 7.6,2.2 4.4,0.4 7.2,1.5 16.6,-0.2 8.2,-0.9 13.1,-5 22.5,-6.4 5.1,-1 8.6,-3 8.3,-10.8 -0.4,-10.7 -0.7,-21.3 -0.2,-31.8 -3.5,-7.9 -11.1,-15.8 -21.6,-15.1 -10,0.9 -19,-5.4 -20.4,-12.7 0,0 0,0 0,0 0,0 0,0 0,0 0,0 -0.1,-0.1 -0.2,-0.2 z"
   class="st8"
   id="path2407" />
		<path
   d="m 338.5,276.5 c -0.9,2.4 -2,4.5 -2.9,7.6 0,28.2 -3.8,36.3 -26.3,58.1 -0.2,0.1 -6.6,15.1 -12.1,19.1 -9.2,6.8 -8.6,13 -12.1,20.4 -2.5,3.8 -5.9,4.4 -8.4,3.7 -1.5,-1.2 -3.1,-1.8 -4.7,-3.7 -0.1,3 0.1,5.8 0.9,8.3 0,0.1 0.1,0.1 0.1,0.2 0,0 0,0 0,0 0.4,0.9 0.8,1.8 1.3,2.7 0,0 0,0.1 0.1,0.1 0,0 0,0 0,0 0.4,0.6 0.8,1.1 1.3,1.7 -0.1,0 -0.3,-0.1 -0.4,-0.1 9.4,15.1 22.8,19.8 39.9,13.9 9.2,-4 14.6,-7.7 20.3,-12 5,-4.7 10.9,-13.6 1.6,-14.2 -1.3,-0.4 -2.1,-0.7 -2.4,-1.1 0,0 -0.1,0 -0.1,-0.1 0,0 -0.1,-0.1 -0.1,-0.2 0,-0.1 -0.1,-0.2 -0.1,-0.2 0,0 0,0 0,-0.1 0,0 0,-0.1 0,-0.1 0,0 0,-0.1 0,-0.1 0,-1.3 2.6,-3.3 0.6,-7.2 -1.3,-6 4.3,-11.6 8.4,-13.1 -2.8,-6.1 -5.6,-12.2 -8.4,-18.3 0.2,-4 8.1,-6.1 6.8,-13.6 2.1,-18.7 5.2,-46.7 -3.3,-51.7 z"
   class="st0"
   id="path2460" />
		<path
   d="m 288,202.3 c -6.8,1.8 -14.9,9.1 -20.5,22.6 -2.5,5.3 -5,8.3 -7.4,9.7 0.2,23.2 5.8,39.8 17.2,48.9 -3.4,13.5 -6.8,32 -0.6,43.2 -10.4,-3.3 -6.1,17.6 -9.2,26.4 -5.2,14.6 -9.8,14 -14.6,15.3 4.4,5.1 10.2,10.5 18.8,13.7 0,0 0,0 0,0.1 0,0.1 0.1,0.2 0.1,0.3 0.6,1 3.5,2 4.9,3.1 2.5,0.7 5.9,0.1 8.4,-3.7 3.4,-7.4 2.8,-13.6 12.1,-20.4 5.3,-3.8 11.6,-18.3 12.1,-19.1 -18.2,-10.2 -26.9,-29.8 -23.9,-48.6 0.8,-5.2 4.2,-11 -0.3,-19.4 -5.5,-23.1 -2.1,-49.8 2.9,-72.1 z"
   class="st8"
   id="path2468" />
	</g>
</g>
<g
   transform="translate(-10.170933,-10.191145)"
   id="layer2">
	<g
   id="text3347">
		<path
   d="m 101.9,465.5 c 0,0.3 -0.1,0.6 -0.3,0.9 -0.2,0.3 -0.4,0.4 -0.6,0.4 -2,0.2 -3.6,0.8 -4.8,1.9 -1.3,1.1 -2.5,3.1 -3.9,6.2 l -20.4,46 c -0.1,0.4 -0.5,0.6 -1.1,0.6 -0.5,0 -0.9,-0.2 -1.1,-0.6 L 58.3,497 45,520.9 c -0.3,0.4 -0.6,0.6 -1.1,0.6 -0.6,0 -1,-0.2 -1.2,-0.6 l -20,-46 c -1.3,-2.9 -2.6,-4.8 -4,-6 -1.4,-1.1 -3.3,-1.9 -5.8,-2.1 -0.2,0 -0.4,-0.1 -0.6,-0.3 -0.2,-0.2 -0.3,-0.5 -0.3,-0.8 0,-0.7 0.2,-1.1 0.6,-1.1 1.8,0 3.7,0.1 5.6,0.2 1.8,0.2 3.5,0.2 5.1,0.2 1.6,0 3.5,-0.1 5.8,-0.2 2.3,-0.2 4.4,-0.2 6.2,-0.2 0.4,0 0.6,0.4 0.6,1.1 0,0.7 -0.1,1.1 -0.4,1.1 -1.8,0.1 -3.2,0.6 -4.2,1.4 -1,0.8 -1.5,1.8 -1.5,3 0,0.6 0.2,1.4 0.6,2.4 L 47,511 56.4,493.2 47.6,474.8 c -1.6,-3.3 -2.9,-5.4 -3.9,-6.3 -1,-1 -2.5,-1.5 -4.6,-1.8 -0.2,0 -0.4,-0.1 -0.6,-0.3 -0.2,-0.2 -0.2,-0.5 -0.2,-0.8 0,-0.7 0.2,-1.1 0.6,-1.1 1.8,0 3.4,0.1 4.9,0.2 1.4,0.2 3,0.2 4.6,0.2 1.6,0 3.3,-0.1 5.1,-0.2 1.8,-0.2 3.7,-0.2 5.4,-0.2 0.4,0 0.6,0.4 0.6,1.1 0,0.7 -0.1,1.1 -0.4,1.1 -3.6,0.2 -5.4,1.3 -5.4,3 0,0.8 0.4,2 1.2,3.7 l 5.8,11.8 5.8,-10.8 c 0.8,-1.5 1.2,-2.8 1.2,-3.8 0,-2.5 -1.8,-3.8 -5.4,-3.9 -0.3,0 -0.5,-0.4 -0.5,-1.1 0,-0.3 0.1,-0.5 0.2,-0.8 0.2,-0.2 0.3,-0.4 0.5,-0.4 1.3,0 2.9,0.1 4.7,0.2 1.8,0.2 3.3,0.2 4.4,0.2 0.8,0 2,-0.1 3.6,-0.2 2,-0.2 3.7,-0.3 5.1,-0.3 0.3,0 0.5,0.3 0.5,1 0,0.9 -0.3,1.3 -0.9,1.3 -2.1,0.2 -3.8,0.8 -5,1.7 -1.3,0.9 -2.8,3.1 -4.7,6.4 l -7.7,14.2 10.4,21.2 15.4,-35.7 c 0.5,-1.3 0.8,-2.5 0.8,-3.6 0,-2.6 -1.8,-4 -5.4,-4.2 -0.3,0 -0.5,-0.4 -0.5,-1.1 0,-0.7 0.2,-1.1 0.7,-1.1 1.3,0 2.9,0.1 4.6,0.2 1.7,0.2 3,0.2 4.2,0.2 1.2,0 2.5,-0.1 4.1,-0.2 1.6,-0.2 3,-0.2 4.3,-0.2 0.7,0.2 0.8,0.5 0.8,1.1"
   id="path3263" />
		<path
   d="m 113.4,519.3 c 0,0.5 -0.1,0.8 -0.4,0.8 -1.3,0 -2.7,-0.1 -4.5,-0.2 -1.6,-0.1 -3,-0.2 -4.2,-0.2 -1.1,0 -2.5,0.1 -4.2,0.2 -1.7,0.1 -3.2,0.2 -4.5,0.2 -0.3,0 -0.4,-0.3 -0.4,-0.8 0,-0.5 0.1,-0.7 0.4,-0.8 2.3,-0.3 3.8,-0.7 4.6,-1.3 0.8,-0.6 1.2,-1.7 1.2,-3.5 v -26.3 c 0,-1.3 -0.2,-2.2 -0.5,-2.7 -0.3,-0.5 -0.9,-1 -1.7,-1.3 -0.8,-0.3 -2,-0.6 -3.6,-0.8 -0.3,0 -0.4,-0.3 -0.4,-0.8 0,-0.5 0.1,-0.8 0.4,-0.8 1.3,0 2.8,0.1 4.5,0.2 1.6,0.1 3,0.2 4.2,0.2 1.1,0 2.5,-0.1 4.2,-0.2 1.7,-0.1 3.2,-0.2 4.5,-0.2 0.3,0 0.4,0.3 0.4,0.8 0,0.5 -0.1,0.8 -0.4,0.8 -1.6,0.2 -2.8,0.4 -3.6,0.8 -0.8,0.3 -1.4,0.7 -1.7,1.2 -0.3,0.5 -0.5,1.4 -0.5,2.8 v 26.3 c 0,1.3 0.2,2.2 0.5,2.7 0.3,0.5 0.9,0.9 1.7,1.3 0.8,0.3 2,0.5 3.6,0.7 0.2,0.2 0.4,0.4 0.4,0.9"
   id="path3265" />
		<path
   d="m 160.7,519.3 c 0,0.5 -0.1,0.8 -0.4,0.8 -1.3,0 -2.7,-0.1 -4.5,-0.2 -1.7,-0.1 -3.1,-0.2 -4.2,-0.2 -1.1,0 -2.6,0.1 -4.6,0.2 -2,0.1 -3.7,0.2 -4.9,0.2 -0.3,0 -0.4,-0.3 -0.4,-0.8 0,-0.5 0.1,-0.7 0.4,-0.8 2.5,-0.3 3.8,-0.9 3.8,-1.8 0,-0.5 -0.4,-1.2 -1.2,-2 l -11.1,-11.3 c -0.6,-0.6 -1.1,-1 -1.6,-1.2 -0.4,-0.2 -1,-0.3 -1.8,-0.3 v 11.9 c 0,1.3 0.2,2.2 0.5,2.7 0.3,0.5 0.9,0.9 1.7,1.3 0.8,0.3 2,0.5 3.6,0.7 0.3,0 0.5,0.3 0.5,0.8 0,0.5 -0.1,0.8 -0.4,0.8 -1.3,0 -2.7,-0.1 -4.5,-0.2 -1.7,-0.1 -3.1,-0.2 -4.2,-0.2 -1.1,0 -2.5,0.1 -4.1,0.2 -1.7,0.1 -3.2,0.2 -4.5,0.2 -0.3,0 -0.4,-0.3 -0.4,-0.8 0,-0.5 0.1,-0.7 0.4,-0.8 2.3,-0.3 3.8,-0.7 4.6,-1.3 0.8,-0.6 1.2,-1.7 1.2,-3.5 v -26.3 c 0,-1.3 -0.2,-2.2 -0.5,-2.7 -0.3,-0.5 -0.9,-1 -1.7,-1.3 -0.8,-0.3 -2,-0.6 -3.6,-0.8 -0.3,0 -0.4,-0.3 -0.4,-0.8 0,-0.5 0.1,-0.8 0.4,-0.8 1.3,0 2.7,0.1 4.5,0.2 1.6,0.1 3,0.2 4.1,0.2 1.1,0 2.5,-0.1 4.2,-0.2 1.7,-0.1 3.2,-0.2 4.5,-0.2 0.3,0 0.4,0.3 0.4,0.8 0,0.5 -0.1,0.8 -0.4,0.8 -1.6,0.2 -2.8,0.4 -3.6,0.8 -0.8,0.3 -1.4,0.7 -1.7,1.3 -0.3,0.5 -0.5,1.4 -0.5,2.7 v 12.7 c 0.7,0 1.3,-0.1 1.8,-0.3 0.4,-0.2 1,-0.6 1.6,-1.2 L 146,486.5 c 1,-1 1.5,-1.6 1.5,-2.1 0,-0.5 -0.2,-0.9 -0.7,-1.1 -0.5,-0.3 -1.4,-0.5 -2.9,-0.7 -0.3,0 -0.4,-0.3 -0.4,-0.8 0,-0.5 0.2,-0.8 0.5,-0.8 0.9,0 2,0.1 3.5,0.2 1.5,0.1 2.8,0.2 3.8,0.2 1,0 2.1,-0.1 3.4,-0.2 1,-0.1 1.9,-0.1 2.6,-0.1 0.3,0 0.4,0.3 0.4,0.8 0,0.5 -0.1,0.8 -0.4,0.8 -1.8,0.2 -3.2,0.6 -4.2,1.1 -1,0.5 -2.3,1.4 -3.7,2.8 l -12.8,12.2 15.9,16.1 c 1.1,1.2 2.2,2 3.2,2.5 1.1,0.5 2.7,0.9 4.8,1.1 0.1,0.1 0.2,0.3 0.2,0.8"
   id="path3267" />
		<path
   d="m 182.3,519.3 c 0,0.5 -0.1,0.8 -0.4,0.8 -1.3,0 -2.7,-0.1 -4.5,-0.2 -1.6,-0.1 -3,-0.2 -4.2,-0.2 -1.1,0 -2.5,0.1 -4.2,0.2 -1.7,0.1 -3.2,0.2 -4.5,0.2 -0.3,0 -0.4,-0.3 -0.4,-0.8 0,-0.5 0.1,-0.7 0.4,-0.8 2.3,-0.3 3.8,-0.7 4.6,-1.3 0.8,-0.6 1.2,-1.7 1.2,-3.5 v -26.3 c 0,-1.3 -0.2,-2.2 -0.5,-2.7 -0.3,-0.5 -0.9,-1 -1.7,-1.3 -0.8,-0.3 -2,-0.6 -3.6,-0.8 -0.3,0 -0.4,-0.3 -0.4,-0.8 0,-0.5 0.1,-0.8 0.4,-0.8 1.3,0 2.8,0.1 4.5,0.2 1.6,0.1 3,0.2 4.2,0.2 1.1,0 2.5,-0.1 4.2,-0.2 1.7,-0.1 3.2,-0.2 4.5,-0.2 0.3,0 0.4,0.3 0.4,0.8 0,0.5 -0.1,0.8 -0.4,0.8 -1.6,0.2 -2.8,0.4 -3.6,0.8 -0.8,0.3 -1.4,0.7 -1.7,1.2 -0.3,0.5 -0.5,1.4 -0.5,2.8 v 26.3 c 0,1.3 0.2,2.2 0.5,2.7 0.3,0.5 0.9,0.9 1.7,1.3 0.8,0.3 2,0.5 3.6,0.7 0.2,0.2 0.4,0.4 0.4,0.9"
   id="path3269" />
		<path
   d="m 211.9,508.8 c 0,3.7 -1.1,6.7 -3.3,8.9 -2.2,2.2 -5.2,3.3 -8.9,3.3 -1.7,0 -3.6,-0.3 -6,-0.9 -2.1,-0.6 -3.8,-0.8 -5.2,-0.8 -0.1,-3.2 -0.3,-6.3 -0.7,-9.5 0,-0.3 0.3,-0.4 0.8,-0.4 0.4,0 0.6,0.1 0.7,0.4 1,3.5 2.3,5.9 3.9,7.3 1.6,1.4 3.8,2.1 6.6,2.1 2.3,0 4,-0.7 5.2,-2 1.3,-1.3 1.9,-3.1 1.9,-5.5 0,-1.5 -0.5,-2.9 -1.6,-4.2 -1.1,-1.3 -3.4,-3 -6.9,-5 -4.1,-2.3 -6.7,-4.3 -8,-5.9 -1.3,-1.6 -1.9,-3.4 -1.9,-5.4 0,-3 1.1,-5.6 3.4,-7.7 2.3,-2.1 5.1,-3.2 8.6,-3.2 1.3,0 2.8,0.2 4.5,0.5 1.6,0.3 3,0.5 4.1,0.5 0.2,3.3 0.5,6.2 0.9,8.7 0,0.3 -0.2,0.4 -0.7,0.4 -0.5,0 -0.8,-0.1 -0.9,-0.4 -0.6,-2.8 -1.5,-4.8 -2.8,-6 -1.3,-1.2 -3,-1.8 -5.2,-1.8 -2.1,0 -3.8,0.6 -5,1.8 -1.2,1.2 -1.8,2.9 -1.8,5 0,1.3 0.5,2.6 1.5,3.8 1,1.2 3.3,2.8 6.7,4.8 4.1,2.4 6.8,4.4 8,6 1.4,1.5 2.1,3.3 2.1,5.2"
   id="path3271" />
		<path
   d="m 257.7,500.8 c 0,5.9 -1.9,10.8 -5.7,14.5 -3.8,3.8 -8.8,5.6 -14.9,5.6 -6.1,0 -11.1,-1.9 -14.9,-5.6 -3.8,-3.8 -5.7,-8.6 -5.7,-14.5 0,-5.9 1.9,-10.8 5.7,-14.7 3.8,-3.9 8.8,-5.8 14.9,-5.8 6.1,0 11.1,1.9 14.9,5.8 3.8,3.9 5.7,8.8 5.7,14.7 m -6.1,0 c 0,-5.5 -1.3,-10 -4,-13.5 -2.7,-3.5 -6.1,-5.2 -10.5,-5.2 -4.3,0 -7.8,1.7 -10.5,5.2 -2.6,3.5 -3.9,8 -3.9,13.5 0,5.5 1.3,9.9 3.9,13.3 2.6,3.4 6.1,5.1 10.5,5.1 4.4,0 7.9,-1.7 10.5,-5.1 2.6,-3.4 4,-7.8 4,-13.3"
   id="path3273" />
		<path
   d="m 303.3,481.9 c 0,0.5 -0.1,0.8 -0.4,0.8 -2.4,0.3 -3.9,0.7 -4.7,1.3 -0.8,0.6 -1.2,1.7 -1.2,3.4 V 505 c 0,5 -1.2,8.9 -3.6,11.7 -2.4,2.8 -5.8,4.2 -10.2,4.2 -5,0 -8.9,-1.3 -11.7,-4 -2.8,-2.7 -4.2,-6.4 -4.2,-11 v -18.5 c 0,-1.3 -0.2,-2.2 -0.5,-2.7 -0.3,-0.5 -0.9,-1 -1.7,-1.3 -0.8,-0.3 -2,-0.6 -3.6,-0.8 -0.3,0 -0.4,-0.3 -0.4,-0.8 0,-0.5 0.1,-0.8 0.4,-0.8 1.3,0 2.7,0.1 4.5,0.2 1.6,0.1 3,0.2 4.2,0.2 1.1,0 2.5,-0.1 4.2,-0.2 1.7,-0.1 3.2,-0.2 4.5,-0.2 0.3,0 0.4,0.3 0.4,0.8 0,0.5 -0.1,0.8 -0.4,0.8 -1.6,0.2 -2.8,0.4 -3.6,0.8 -0.8,0.3 -1.4,0.7 -1.7,1.3 -0.3,0.5 -0.5,1.4 -0.5,2.7 v 17.7 c 0,4.6 0.9,8 2.6,10.1 1.7,2.1 4.6,3.2 8.5,3.2 7.4,0 11.1,-4.7 11.1,-14 v -17 c 0,-1.7 -0.4,-2.9 -1.3,-3.5 -0.8,-0.6 -2.4,-1 -4.7,-1.3 -0.3,0 -0.4,-0.3 -0.4,-0.8 0,-0.5 0.1,-0.8 0.4,-0.8 0.9,0 2,0.1 3.4,0.2 1.4,0.1 2.6,0.2 3.5,0.2 0.9,0 2,-0.1 3.4,-0.2 1.4,-0.1 2.5,-0.2 3.5,-0.2 0.1,0.1 0.2,0.4 0.2,0.9"
   id="path3275" />
		<path
   d="m 344.6,519.3 c 0,0.5 -0.1,0.8 -0.4,0.8 -0.7,0 -1.8,-0.1 -3.4,-0.2 -1.1,-0.1 -1.9,-0.1 -2.3,-0.1 -0.5,0 -1.4,0.1 -2.5,0.2 -1.2,0.1 -2,0.2 -2.5,0.2 L 325,506.4 c -1.2,-1.9 -2.2,-3.1 -2.9,-3.7 -0.7,-0.5 -2.2,-0.8 -4.4,-0.8 v 12 c 0,1.3 0.2,2.2 0.5,2.7 0.3,0.5 0.9,0.9 1.7,1.3 0.8,0.3 2,0.5 3.6,0.7 0.3,0 0.5,0.3 0.5,0.8 0,0.5 -0.1,0.8 -0.4,0.8 -1.3,0 -2.7,-0.1 -4.5,-0.2 -1.7,-0.1 -3.1,-0.2 -4.2,-0.2 -1.1,0 -2.5,0.1 -4.2,0.2 -1.7,0.1 -3.2,0.2 -4.5,0.2 -0.3,0 -0.4,-0.3 -0.4,-0.8 0,-0.5 0.1,-0.7 0.4,-0.8 1.5,-0.2 2.7,-0.4 3.6,-0.7 0.8,-0.3 1.4,-0.7 1.7,-1.3 0.3,-0.5 0.5,-1.4 0.5,-2.7 v -26.3 c 0,-1.3 -0.2,-2.2 -0.5,-2.7 -0.3,-0.5 -0.9,-1 -1.7,-1.3 -0.8,-0.3 -2,-0.6 -3.6,-0.8 -0.3,0 -0.4,-0.3 -0.4,-0.8 0,-0.5 0.1,-0.8 0.4,-0.8 1.3,0 2.7,0.1 4.5,0.2 1.6,0.1 3,0.2 4.2,0.2 1.1,0 2.5,-0.1 4.2,-0.2 1.7,-0.1 3.2,-0.2 4.5,-0.2 4.2,0 7.4,0.9 9.7,2.7 2.3,1.8 3.4,4.2 3.4,7.4 0,2 -0.8,3.9 -2.4,5.6 -1.6,1.7 -3.7,3 -6.4,4 l 9,13.8 c 0.7,1.2 1.7,2.1 2.9,2.7 1.2,0.6 2.7,1 4.6,1.2 0,0 0.2,0.2 0.2,0.7 m -14.3,-28.1 c 0,-5.5 -2.4,-8.2 -7.1,-8.2 -1.6,0 -2.8,0.1 -3.6,0.4 -0.8,0.2 -1.3,0.6 -1.6,1.2 -0.3,0.5 -0.4,1.5 -0.4,2.9 V 500 c 1.1,0.1 2.4,0.2 4.1,0.2 3,0 5.2,-0.7 6.6,-2.1 1.3,-1.5 2,-3.8 2,-6.9"
   id="path3277" />
		<path
   d="m 380.6,509.7 c -0.7,3 -1.3,6.2 -2,9.5 -1.1,0 -3,0.3 -5.8,0.8 -3.6,0.7 -6.2,1 -8,1 -4.3,0 -8,-0.8 -11.2,-2.5 -3.2,-1.7 -5.7,-4.1 -7.5,-7.2 -1.8,-3.1 -2.7,-6.6 -2.7,-10.4 0,-3.8 0.9,-7.2 2.8,-10.4 1.9,-3.2 4.5,-5.7 7.8,-7.4 3.3,-1.8 7.1,-2.7 11.2,-2.7 1.8,0 4.1,0.2 7.1,0.6 2.3,0.3 4,0.4 5,0.4 0.2,2.6 0.7,5.8 1.3,9.5 0,0.3 -0.3,0.4 -0.9,0.4 -0.4,0 -0.6,-0.1 -0.7,-0.4 -0.7,-2.5 -2.1,-4.6 -4.3,-6.3 -2.2,-1.6 -4.8,-2.5 -7.7,-2.5 -4.4,0 -8.1,1.8 -11.1,5.4 -3,3.6 -4.5,8.1 -4.5,13.3 0,5.1 1.5,9.4 4.4,13 2.9,3.6 6.6,5.3 10.8,5.3 6.7,0 11.4,-3.2 14.2,-9.5 0.1,-0.3 0.4,-0.4 0.8,-0.4 0.8,0.1 1,0.2 1,0.5"
   id="path3279" />
		<path
   d="m 417.9,510.8 c -1.5,3.2 -2.7,6.3 -3.7,9.2 -7,-0.2 -12,-0.3 -15,-0.3 -2.9,0 -8,0.1 -15,0.3 -0.3,0 -0.4,-0.3 -0.4,-0.8 0,-0.5 0.1,-0.7 0.4,-0.8 1.5,-0.2 2.7,-0.4 3.6,-0.7 0.8,-0.3 1.4,-0.7 1.7,-1.3 0.3,-0.5 0.5,-1.4 0.5,-2.7 v -26.3 c 0,-1.3 -0.2,-2.2 -0.5,-2.7 -0.3,-0.5 -0.9,-1 -1.7,-1.3 -0.8,-0.3 -2,-0.6 -3.6,-0.8 -0.3,0 -0.4,-0.3 -0.4,-0.8 0,-0.5 0.1,-0.8 0.4,-0.8 4.7,0.2 9.5,0.3 14.4,0.3 5,0 9.8,-0.1 14.5,-0.3 0.4,2.9 1.1,5.7 1.9,8.6 0,0.4 -0.3,0.6 -1,0.6 -0.3,0 -0.5,-0.1 -0.6,-0.4 -1.4,-4.4 -4.3,-6.6 -8.8,-6.6 h -5.7 c -2.2,0 -3.2,1.1 -3.2,3.4 v 12.5 h 7.1 c 1.9,0 3.1,-0.4 3.8,-1.3 0.7,-0.9 1.1,-2.4 1.4,-4.6 0,-0.3 0.3,-0.4 0.8,-0.4 0.5,0 0.8,0.1 0.8,0.4 0,0.9 -0.1,2.1 -0.2,3.5 -0.1,1.4 -0.2,2.5 -0.2,3.3 0,0.9 0.1,2 0.2,3.4 0.1,1.5 0.2,2.7 0.2,3.6 0,0.3 -0.3,0.4 -0.8,0.4 -0.5,0 -0.8,-0.1 -0.8,-0.4 -0.3,-2.3 -0.8,-3.9 -1.5,-4.8 -0.7,-0.9 -1.9,-1.4 -3.7,-1.4 h -7.1 v 13.8 c 0,2.2 1.1,3.3 3.2,3.3 h 6.1 c 2.2,0 4.4,-0.7 6.6,-2.2 2.2,-1.5 3.8,-3.3 4.8,-5.4 0.1,-0.2 0.2,-0.3 0.5,-0.3 0.3,0 0.5,0.1 0.7,0.2 0.2,0.3 0.3,0.4 0.3,0.6"
   id="path3281" />
	</g>
</g>
</svg>
