<?xml version="1.0" encoding="UTF-8" standalone="no"?>
<svg
   xmlns:dc="http://purl.org/dc/elements/1.1/"
   xmlns:cc="http://creativecommons.org/ns#"
   xmlns:rdf="http://www.w3.org/1999/02/22-rdf-syntax-ns#"
   xmlns:svg="http://www.w3.org/2000/svg"
   xmlns="http://www.w3.org/2000/svg"
   version="1.0"
   height="57.963779"
   width="345.83398"
   id="svg1325">
  <metadata
     id="metadata1330">
    <rdf:RDF>
      <cc:Work
         rdf:about="">
        <dc:format>image/svg+xml</dc:format>
        <dc:type
           rdf:resource="http://purl.org/dc/dcmitype/StillImage" />
        <dc:title />
      </cc:Work>
    </rdf:RDF>
  </metadata>
  <defs
     id="defs1328" />
  <g
     transform="translate(-6.0452623,-442.79976)"
     id="g3738">
    <g
       id="text3061"
       style="font-style:normal;font-weight:normal;line-height:0%;font-family:sans-serif;letter-spacing:0px;word-spacing:0px;fill:#000000;fill-opacity:1;stroke:none"
       aria-label="W">
      <path
         id="path4643"
         style="font-style:normal;font-variant:normal;font-weight:bold;font-stretch:normal;font-size:86.6667px;line-height:1.25;font-family:'Linux Libertine Display G';-inkscape-font-specification:'Linux Libertine Display G Bold'"
         d="m 78.789401,450.45699 q 0.380859,-1.39648 0.126953,-2.36979 -0.211589,-0.97331 -1.184896,-1.60807 -0.930989,-0.63477 -2.073568,-0.97331 -1.142578,-0.33854 -2.58138,-0.42318 -0.380859,-0.38086 -0.380859,-0.9733 0,-0.63477 0.380859,-1.01563 1.692709,0.0423 5.035808,0.25391 3.385416,0.16927 4.527994,0.16927 1.142578,0 3.51237,-0.16927 2.412109,-0.21159 4.020182,-0.25391 0.380859,0.38086 0.380859,1.01563 0,0.59244 -0.380859,0.9733 -3.300781,0.16927 -5.374349,1.98894 -2.073567,1.77734 -2.962239,4.40104 L 64.78224,498.44527 q -0.634766,2.03125 -2.369792,2.03125 -0.930989,0 -1.777344,-0.55013 -0.804036,-0.50781 -1.142578,-1.56575 L 49.336277,467.59566 q -0.761719,-2.41211 -1.227214,-2.41211 -0.507812,0 -1.184896,2.15821 l -12.060546,31.01888 q -0.719401,2.11588 -2.158203,2.11588 -1.057943,0 -1.988932,-0.59245 -0.93099,-0.55013 -1.227214,-1.52343 L 13.704767,451.21871 q -1.142578,-3.42773 -2.708333,-4.65495 -1.5657551,-1.26953 -4.5703123,-1.48112 -0.3808594,-0.38086 -0.3808594,-0.9733 0,-0.63477 0.3808594,-1.01563 1.5234374,0.0423 3.9778643,0.25391 2.496745,0.16927 4.358724,0.16927 1.946615,0 5.501302,-0.16927 3.554687,-0.21159 4.443359,-0.25391 0.38086,0.38086 0.38086,1.01563 0,0.59244 -0.38086,0.9733 -2.412109,0.12696 -3.554687,1.35417 -1.142578,1.22721 -0.423177,3.42773 l 12.991536,39.94792 0.55013,2.07357 0.846354,-2.07357 10.917969,-28.69141 q 0.16927,-0.50781 0.16927,-2.1582 0,-0.93099 -0.846354,-3.55469 l -1.311849,-4.02018 q -0.296224,-0.97331 -0.846354,-1.9043 -0.55013,-0.9733 -1.438802,-1.94661 -0.888672,-1.01562 -2.242838,-1.69271 -1.354167,-0.67708 -3.004558,-0.76172 -0.380859,-0.38086 -0.380859,-0.9733 0,-0.63477 0.380859,-1.01563 1.523438,0.0423 4.316407,0.25391 2.792968,0.16927 4.61263,0.16927 1.861979,0 5.374348,-0.16927 3.554688,-0.21159 5.374349,-0.25391 0.38086,0.38086 0.38086,1.01563 0,0.59244 -0.38086,0.9733 -2.750651,0.25391 -4.316406,1.73503 -1.565755,1.4388 -0.55013,4.57031 l 12.483724,38.59375 0.592447,1.81966 0.634766,-1.81966 z" />
    </g>
    <g
       id="text3065"
       style="font-style:normal;font-weight:normal;line-height:0%;font-family:sans-serif;letter-spacing:0px;word-spacing:0px;fill:#000000;fill-opacity:1;stroke:none"
       aria-label="IKITEK">
      <path
         id="path4646"
         style="font-style:normal;font-variant:normal;font-weight:normal;font-stretch:normal;font-size:60px;line-height:1.25;font-family:'Linux Libertine Display G';-inkscape-font-specification:'Linux Libertine Display G';letter-spacing:3px"
         d="m 94.469604,493.93735 q 0.05859,1.93359 0.234375,2.95898 0.205079,0.9961 0.878907,1.58203 0.673828,0.55664 1.49414,0.70313 0.820313,0.11719 2.607422,0.20508 0.263672,0.26367 0.263672,0.70312 0,0.41016 -0.263672,0.67383 -1.289062,-0.0293 -3.691406,-0.17578 -2.402344,-0.11719 -4.042969,-0.11719 -1.669922,0 -4.130859,0.11719 -2.431641,0.14648 -3.66211,0.17578 -0.263671,-0.26367 -0.263671,-0.67383 0,-0.43945 0.263671,-0.70312 1.78711,-0.0879 2.607422,-0.20508 0.820313,-0.14649 1.494141,-0.70313 0.673828,-0.58593 0.849609,-1.58203 0.205078,-1.02539 0.263672,-2.95898 0.175781,-7.47071 0.175781,-12.71485 0,-5.44922 -0.175781,-12.91992 -0.05859,-1.93359 -0.263672,-2.92969 -0.175781,-1.02539 -0.849609,-1.58203 -0.673828,-0.58593 -1.494141,-0.70312 -0.820312,-0.14649 -2.607422,-0.23438 -0.263671,-0.26367 -0.263671,-0.67383 0,-0.43945 0.263671,-0.70312 1.289063,0.0293 3.691407,0.17578 2.402343,0.11719 4.042968,0.11719 1.669922,0 4.101563,-0.11719 2.460937,-0.14648 3.691406,-0.17578 0.263672,0.26367 0.263672,0.70312 0,0.41016 -0.263672,0.67383 -1.201172,0.0586 -1.845703,0.11719 -0.644531,0.0586 -1.318359,0.26367 -0.673828,0.20508 -0.966797,0.52735 -0.292969,0.32226 -0.585938,0.96679 -0.263672,0.61524 -0.380859,1.46485 -0.08789,0.79101 -0.117188,2.10937 -0.175781,6.76758 -0.175781,12.97852 0,5.24414 0.175781,12.65625 z" />
      <path
         id="path4648"
         style="font-style:normal;font-variant:normal;font-weight:normal;font-stretch:normal;font-size:60px;line-height:1.25;font-family:'Linux Libertine Display G';-inkscape-font-specification:'Linux Libertine Display G';letter-spacing:3px"
         d="m 117.06921,493.93735 q 0.0586,1.93359 0.23438,2.95898 0.20508,0.9961 0.87891,1.58203 0.67382,0.55664 1.49414,0.70313 0.82031,0.11719 2.60742,0.20508 0.26367,0.26367 0.26367,0.70312 0,0.41016 -0.26367,0.67383 -1.28906,-0.0293 -3.72071,-0.17578 -2.40234,-0.11719 -4.01367,-0.11719 -1.66992,0 -4.13086,0.11719 -2.43164,0.14648 -3.66211,0.17578 -0.26367,-0.26367 -0.26367,-0.67383 0,-0.43945 0.26367,-0.70312 0.87891,-0.0293 1.40625,-0.0586 0.55664,-0.0586 1.14258,-0.14648 0.58594,-0.11719 0.87891,-0.26367 0.32226,-0.17579 0.64453,-0.43946 0.35156,-0.29297 0.49805,-0.64453 0.17578,-0.38086 0.32226,-0.9668 0.14649,-0.58593 0.17578,-1.25976 0.0586,-0.70313 0.0879,-1.66992 0.23438,-9.96094 0.23438,-12.71485 0,-2.95898 -0.23438,-12.91992 -0.0293,-0.9668 -0.0879,-1.64062 -0.0293,-0.70313 -0.17578,-1.28907 -0.14648,-0.58593 -0.32226,-0.9375 -0.14649,-0.38086 -0.49805,-0.64453 -0.32227,-0.29297 -0.64453,-0.43945 -0.29297,-0.17578 -0.87891,-0.26367 -0.58594,-0.11719 -1.14258,-0.14649 -0.52734,-0.0586 -1.40625,-0.0879 -0.26367,-0.26367 -0.26367,-0.67383 0,-0.43945 0.26367,-0.70312 1.28907,0.0293 3.66211,0.17578 2.40235,0.11719 4.01368,0.11719 1.66992,0 4.13085,-0.11719 2.49024,-0.14648 3.72071,-0.17578 0.26367,0.26367 0.26367,0.70312 0,0.41016 -0.26367,0.67383 -1.78711,0.0879 -2.60742,0.23438 -0.82032,0.11719 -1.49414,0.70312 -0.67383,0.55664 -0.87891,1.58203 -0.17578,0.9961 -0.23438,2.92969 -0.17578,6.85547 -0.17578,11.66016 3.25196,-0.26367 5.44922,-2.66602 l 9.60938,-10.54687 q 0.8789,-0.9668 0.99609,-1.69922 0.11719,-0.76172 -0.41016,-1.20117 -0.52734,-0.43946 -1.25976,-0.67383 -0.70313,-0.26367 -1.61133,-0.32227 -0.26367,-0.26367 -0.26367,-0.67383 0,-0.43945 0.26367,-0.70312 1.28906,0.0293 3.54492,0.17578 2.28516,0.11719 3.54492,0.11719 1.25977,0 3.10547,-0.11719 1.84571,-0.14648 3.19336,-0.17578 0.26367,0.26367 0.26367,0.70312 0,0.41016 -0.26367,0.67383 -4.83398,0.58594 -8.17383,4.13086 l -8.81836,9.05274 q -0.96679,0.99609 -1.46484,1.64062 -0.46875,0.61524 -0.55664,0.84961 -0.0586,0.20508 -0.0586,0.46875 0,0.64453 0.76172,1.49414 l 13.15429,15.58594 q 2.19727,2.72461 5.88867,3.31055 0.26368,0.26367 0.26368,0.70312 0,0.41016 -0.26368,0.67383 -1.31836,-0.0293 -3.39843,-0.17578 -2.05078,-0.11719 -3.28125,-0.11719 -0.9961,0 -1.72852,0.11719 -0.70312,0.14648 -1.14258,0.17578 -0.29297,0 -0.29297,-0.35156 -0.23437,-1.81641 -2.16796,-4.33594 l -9.4336,-11.86524 q -0.9375,-1.17187 -2.40234,-1.8457 -1.46485,-0.67383 -3.04688,-0.73242 0,5.09766 0.17578,12.30469 z" />
      <path
         id="path4650"
         style="font-style:normal;font-variant:normal;font-weight:normal;font-stretch:normal;font-size:60px;line-height:1.25;font-family:'Linux Libertine Display G';-inkscape-font-specification:'Linux Libertine Display G';letter-spacing:3px"
         d="m 161.05554,493.93735 q 0.0586,1.93359 0.23438,2.95898 0.20508,0.9961 0.8789,1.58203 0.67383,0.55664 1.49414,0.70313 0.82032,0.11719 2.60743,0.20508 0.26367,0.26367 0.26367,0.70312 0,0.41016 -0.26367,0.67383 -1.28907,-0.0293 -3.69141,-0.17578 -2.40234,-0.11719 -4.04297,-0.11719 -1.66992,0 -4.13086,0.11719 -2.43164,0.14648 -3.66211,0.17578 -0.26367,-0.26367 -0.26367,-0.67383 0,-0.43945 0.26367,-0.70312 1.78711,-0.0879 2.60742,-0.20508 0.82032,-0.14649 1.49414,-0.70313 0.67383,-0.58593 0.84961,-1.58203 0.20508,-1.02539 0.26368,-2.95898 0.17578,-7.47071 0.17578,-12.71485 0,-5.44922 -0.17578,-12.91992 -0.0586,-1.93359 -0.26368,-2.92969 -0.17578,-1.02539 -0.84961,-1.58203 -0.67382,-0.58593 -1.49414,-0.70312 -0.82031,-0.14649 -2.60742,-0.23438 -0.26367,-0.26367 -0.26367,-0.67383 0,-0.43945 0.26367,-0.70312 1.28906,0.0293 3.69141,0.17578 2.40234,0.11719 4.04297,0.11719 1.66992,0 4.10156,-0.11719 2.46094,-0.14648 3.69141,-0.17578 0.26367,0.26367 0.26367,0.70312 0,0.41016 -0.26367,0.67383 -1.20118,0.0586 -1.84571,0.11719 -0.64453,0.0586 -1.31836,0.26367 -0.67382,0.20508 -0.96679,0.52735 -0.29297,0.32226 -0.58594,0.96679 -0.26367,0.61524 -0.38086,1.46485 -0.0879,0.79101 -0.11719,2.10937 -0.17578,6.76758 -0.17578,12.97852 0,5.24414 0.17578,12.65625 z" />
      <path
         id="path4652"
         style="font-style:normal;font-variant:normal;font-weight:normal;font-stretch:normal;font-size:60px;line-height:1.25;font-family:'Linux Libertine Display G';-inkscape-font-specification:'Linux Libertine Display G';letter-spacing:3px"
         d="m 188.92859,468.30258 q -0.0586,-2.8125 -0.67383,-3.80859 -0.58594,-0.9961 -2.22656,-0.9961 h -3.51563 q -6.21093,0 -7.93945,6.97266 -0.70312,0 -1.43555,-0.29297 1.14258,-4.89258 1.49414,-8.87695 0,-0.17578 0.26368,-0.17578 8.3789,0.64453 13.97461,0.64453 h 5.15625 q 5.91796,0 13.44726,-0.64453 0.0586,0 0.11719,0.0879 0.0586,0.0586 0.0586,0.0879 0.0879,4.18945 0.76172,8.70117 -0.64453,0.29297 -1.43555,0.29297 -1.49414,-6.79688 -8.32031,-6.79688 h -1.93359 q -1.61133,0 -2.16797,0.9668 -0.55664,0.9375 -0.64453,3.83789 -0.11719,4.04297 -0.11719,12.97852 0,7.67578 0.11719,12.65625 0.0293,1.25976 0.14648,2.13867 0.14649,0.84961 0.49805,1.46484 0.35156,0.58594 0.73242,0.9375 0.38086,0.32227 1.14258,0.52735 0.76172,0.20507 1.43555,0.26367 0.67382,0.0586 1.90429,0.11719 0.26367,0.26367 0.26367,0.70312 0,0.41016 -0.26367,0.67383 -1.20117,-0.0293 -3.86718,-0.17578 -2.63672,-0.11719 -4.45313,-0.11719 -1.8457,0 -4.57031,0.11719 -2.69531,0.14648 -3.83789,0.17578 -0.26367,-0.26367 -0.26367,-0.67383 0,-0.43945 0.26367,-0.70312 1.23047,-0.0586 1.90429,-0.11719 0.67383,-0.0586 1.43555,-0.26367 0.76172,-0.20508 1.14258,-0.52735 0.38086,-0.35156 0.73242,-0.9375 0.35156,-0.61523 0.49805,-1.46484 0.14648,-0.87891 0.17578,-2.13867 0.11719,-5.00977 0.11719,-12.71485 0,-8.29101 -0.11719,-12.91992 z" />
      <path
         id="path4654"
         style="font-style:normal;font-variant:normal;font-weight:normal;font-stretch:normal;font-size:60px;line-height:1.25;font-family:'Linux Libertine Display G';-inkscape-font-specification:'Linux Libertine Display G';letter-spacing:3px"
         d="m 231.47937,479.05453 q 1.66992,0 2.51953,-0.14648 0.9375,-0.11719 1.55274,-0.29297 0.61523,-0.20508 0.8789,-0.76172 0.29297,-0.55664 0.38086,-1.11328 0.11719,-0.55664 0.17578,-1.69922 0.26367,-0.26367 0.64453,-0.26367 0.41016,0 0.67383,0.26367 -0.0293,0.58594 -0.14648,2.31446 -0.0879,1.69921 -0.0879,2.84179 0,0.9668 0.0879,2.34375 0.11719,1.37696 0.14648,2.34375 -0.26367,0.26367 -0.67383,0.26367 -0.38086,0 -0.64453,-0.26367 -0.0586,-0.96679 -0.14648,-1.46484 -0.0879,-0.49805 -0.41016,-1.08399 -0.29297,-0.58593 -0.8789,-0.8496 -0.55664,-0.26368 -1.55274,-0.46875 -0.9375,-0.17579 -2.51953,-0.17579 l -7.03125,-0.0586 q -0.0586,10.51758 0.11719,15.55664 0.0293,1.20117 0.61523,1.9043 0.61524,0.67383 1.61133,0.67383 h 9.3457 q 5.53711,0 7.93946,-8.64258 0.67382,-0.0879 0.79101,-0.0586 0.11719,0.0293 0.64453,0.35157 -0.84961,5.5957 -2.16797,10.19531 -4.80468,-0.29297 -7.67578,-0.29297 h -13.33007 q -0.90821,0 -3.69141,0.11719 -2.7832,0.14648 -4.21875,0.17578 -0.26367,-0.26367 -0.26367,-0.67383 0,-0.43945 0.26367,-0.70312 1.20117,-0.0586 1.8457,-0.11719 0.64453,-0.0586 1.28906,-0.26367 0.67383,-0.20508 0.9668,-0.52735 0.29297,-0.32226 0.55664,-0.9375 0.26367,-0.64453 0.35156,-1.46484 0.0879,-0.84961 0.14649,-2.13867 0.11719,-4.92188 0.11719,-12.71485 0,-7.99804 -0.11719,-12.91992 -0.0586,-1.28906 -0.14649,-2.10937 -0.0879,-0.84961 -0.35156,-1.46485 -0.26367,-0.64453 -0.55664,-0.96679 -0.29297,-0.32227 -0.9668,-0.52735 -0.64453,-0.20508 -1.28906,-0.26367 -0.64453,-0.0586 -1.8457,-0.11719 -0.26367,-0.26367 -0.26367,-0.67383 0,-0.43945 0.26367,-0.70312 1.49414,0.0293 4.18945,0.17578 2.69531,0.11719 3.60352,0.11719 h 17.51953 q 0.64453,0 1.11328,-0.0586 0.46875,-0.0586 1.05469,-0.17578 0.61523,-0.14648 0.84961,-0.17578 0.23437,0 0.23437,0.17578 0.0879,0.38086 0.58594,3.7793 0.52734,3.36914 0.73242,5.09766 -0.79101,0.41015 -1.43555,0.29297 -1.14257,-3.57422 -1.875,-4.7754 -1.69921,-2.49023 -4.86328,-2.54882 h -9.3457 q -1.02539,0 -1.61133,0.76172 -0.55664,0.73242 -0.61523,1.875 -0.0879,2.19726 -0.11719,5.47851 -0.0293,3.25195 -0.0293,5.41992 l 0.0293,2.19727 z" />
      <path
         id="path4656"
         style="font-style:normal;font-variant:normal;font-weight:normal;font-stretch:normal;font-size:60px;line-height:1.25;font-family:'Linux Libertine Display G';-inkscape-font-specification:'Linux Libertine Display G';letter-spacing:3px"
         d="m 261.72546,493.93735 q 0.0586,1.93359 0.23438,2.95898 0.20508,0.9961 0.87891,1.58203 0.67382,0.55664 1.49414,0.70313 0.82031,0.11719 2.60742,0.20508 0.26367,0.26367 0.26367,0.70312 0,0.41016 -0.26367,0.67383 -1.28906,-0.0293 -3.72071,-0.17578 -2.40234,-0.11719 -4.01367,-0.11719 -1.66992,0 -4.13086,0.11719 -2.43164,0.14648 -3.66211,0.17578 -0.26367,-0.26367 -0.26367,-0.67383 0,-0.43945 0.26367,-0.70312 0.87891,-0.0293 1.40625,-0.0586 0.55664,-0.0586 1.14258,-0.14648 0.58594,-0.11719 0.87891,-0.26367 0.32226,-0.17579 0.64453,-0.43946 0.35156,-0.29297 0.49805,-0.64453 0.17578,-0.38086 0.32226,-0.9668 0.14649,-0.58593 0.17578,-1.25976 0.0586,-0.70313 0.0879,-1.66992 0.23438,-9.96094 0.23438,-12.71485 0,-2.95898 -0.23438,-12.91992 -0.0293,-0.9668 -0.0879,-1.64062 -0.0293,-0.70313 -0.17578,-1.28907 -0.14648,-0.58593 -0.32226,-0.9375 -0.14649,-0.38086 -0.49805,-0.64453 -0.32227,-0.29297 -0.64453,-0.43945 -0.29297,-0.17578 -0.87891,-0.26367 -0.58594,-0.11719 -1.14258,-0.14649 -0.52734,-0.0586 -1.40625,-0.0879 -0.26367,-0.26367 -0.26367,-0.67383 0,-0.43945 0.26367,-0.70312 1.28907,0.0293 3.66211,0.17578 2.40235,0.11719 4.01368,0.11719 1.66992,0 4.13085,-0.11719 2.49024,-0.14648 3.72071,-0.17578 0.26367,0.26367 0.26367,0.70312 0,0.41016 -0.26367,0.67383 -1.78711,0.0879 -2.60742,0.23438 -0.82032,0.11719 -1.49414,0.70312 -0.67383,0.55664 -0.87891,1.58203 -0.17578,0.9961 -0.23438,2.92969 -0.17578,6.85547 -0.17578,11.66016 3.25196,-0.26367 5.44922,-2.66602 l 9.60938,-10.54687 q 0.8789,-0.9668 0.99609,-1.69922 0.11719,-0.76172 -0.41016,-1.20117 -0.52734,-0.43946 -1.25976,-0.67383 -0.70313,-0.26367 -1.61133,-0.32227 -0.26367,-0.26367 -0.26367,-0.67383 0,-0.43945 0.26367,-0.70312 1.28906,0.0293 3.54492,0.17578 2.28516,0.11719 3.54492,0.11719 1.25977,0 3.10547,-0.11719 1.84571,-0.14648 3.19336,-0.17578 0.26367,0.26367 0.26367,0.70312 0,0.41016 -0.26367,0.67383 -4.83398,0.58594 -8.17383,4.13086 l -8.81836,9.05274 q -0.96679,0.99609 -1.46484,1.64062 -0.46875,0.61524 -0.55664,0.84961 -0.0586,0.20508 -0.0586,0.46875 0,0.64453 0.76172,1.49414 l 13.15429,15.58594 q 2.19727,2.72461 5.88867,3.31055 0.26368,0.26367 0.26368,0.70312 0,0.41016 -0.26368,0.67383 -1.31836,-0.0293 -3.39843,-0.17578 -2.05078,-0.11719 -3.28125,-0.11719 -0.9961,0 -1.72852,0.11719 -0.70312,0.14648 -1.14258,0.17578 -0.29297,0 -0.29297,-0.35156 -0.23437,-1.81641 -2.16796,-4.33594 l -9.4336,-11.86524 q -0.9375,-1.17187 -2.40234,-1.8457 -1.46485,-0.67383 -3.04688,-0.73242 0,5.09766 0.17578,12.30469 z" />
    </g>
    <g
       id="text3061-3"
       style="font-style:normal;font-weight:normal;line-height:0%;font-family:sans-serif;letter-spacing:0px;word-spacing:0px;fill:#000000;fill-opacity:1;stroke:none"
       aria-label="A">
      <path
         id="path4659"
         style="font-style:normal;font-variant:normal;font-weight:bold;font-stretch:normal;font-size:86.6667px;line-height:1.25;font-family:'Linux Libertine Display G';-inkscape-font-specification:'Linux Libertine Display G Bold'"
         d="m 314.08954,475.76525 h 15.48828 l -8.33659,-24.03646 h -0.25391 l -9.0983,22.42839 q -0.29623,0.7194 0.2539,1.18489 0.59245,0.42318 1.94662,0.42318 z m -9.81771,18.11198 q -0.38086,0.76172 -0.29622,1.39648 0.12695,0.59245 0.29622,1.01563 0.16927,0.42317 0.7194,0.76172 0.59245,0.33854 1.10026,0.55013 0.50781,0.21158 1.26953,0.33854 0.80404,0.12695 1.4388,0.21159 0.63477,0.0846 1.43881,0.12695 0.38086,0.38086 0.38086,1.01562 0,0.59245 -0.38086,0.97331 -1.26953,-0.0423 -4.31641,-0.2539 -3.04687,-0.16928 -5.03581,-0.16928 -1.86198,0 -4.57031,0.16928 -2.66601,0.21158 -4.02018,0.2539 -0.38086,-0.38086 -0.38086,-0.97331 0,-0.63476 0.38086,-1.01562 3.17383,-0.21159 5.12044,-1.48112 1.98893,-1.26953 3.55469,-4.90885 l 20.10091,-47.35352 q 1.52344,0 4.52799,-1.73502 l 18.11198,50.4427 q 0.4655,1.26953 1.10026,2.20052 0.67709,0.88867 1.31185,1.39649 0.63477,0.50781 1.65039,0.84635 1.05795,0.29623 1.73503,0.38086 0.7194,0.0846 1.98893,0.21159 0.38086,0.38086 0.38086,1.01562 0,0.59245 -0.38086,0.97331 -1.14258,-0.0423 -4.82422,-0.2539 -3.63932,-0.16928 -5.67057,-0.16928 -1.94661,0 -6.13607,0.16928 -4.14713,0.21158 -5.20508,0.2539 -0.38086,-0.38086 -0.38086,-0.97331 0,-0.63476 0.38086,-1.01562 4.14714,-0.29622 5.16276,-0.67708 2.07357,-0.76172 1.26954,-3.13151 l -5.50131,-15.95378 h -18.06966 q -1.4388,0 -2.07356,0.4655 -0.59245,0.46549 -0.97331,1.4388 z" />
    </g>
  </g>
</svg>
