<?xml version="1.0" encoding="UTF-8" standalone="no"?>
<svg
   xmlns:dc="http://purl.org/dc/elements/1.1/"
   xmlns:cc="http://creativecommons.org/ns#"
   xmlns:rdf="http://www.w3.org/1999/02/22-rdf-syntax-ns#"
   xmlns:svg="http://www.w3.org/2000/svg"
   xmlns="http://www.w3.org/2000/svg"
   xml:space="preserve"
   id="svg1325"
   viewBox="0 0 391.03003 54"
   height="54"
   width="391.03003"
   version="1.0"><metadata
   id="metadata23"><rdf:RDF><cc:Work
       rdf:about=""><dc:format>image/svg+xml</dc:format><dc:type
         rdf:resource="http://purl.org/dc/dcmitype/StillImage" /></cc:Work></rdf:RDF></metadata>
<defs
   id="defs3" />

<g
   id="g3126"
   transform="translate(-9.4850175,-454.43838)">
	
</g>


<path
   id="path29"
   d="m 91.800904,51.37895 c 0.39416,0.36497 0.39416,1.64517 0,2.01014 -3.279129,-0.0606 -5.18147,-0.12128 -8.461718,-0.12128 -3.345382,0 -5.312857,0.0618 -8.526848,0.12128 -0.393046,-0.36497 -0.393046,-1.64517 0,-2.01014 4.591898,-0.18305 5.707025,-0.48738 5.707025,-5.5442 V 24.14873 c -0.491869,0.15161 -0.826519,0.42562 -1.147694,0.79171 L 61.457764,45.65171 c -0.768123,0.90737 -1.423948,1.40036 -1.876513,2.84453 0.466041,2.51549 1.928171,2.74009 5.522855,2.88046 0.393046,0.36497 0.393046,1.64518 0,2.01015 -3.279124,-0.0606 -5.182589,-0.12128 -8.461714,-0.12128 -3.345381,0 -5.312856,0.0618 -8.526848,0.12128 -0.394169,-0.36497 -0.394169,-1.64518 0,-2.01015 4.591898,-0.18305 5.707025,-0.48738 5.707025,-5.54419 V 21.40527 c 0,-5.05569 -1.115127,-5.36002 -5.707025,-5.54419 -0.394169,-0.36497 -0.394169,-1.64518 0,-2.01015 3.279125,0.0618 5.181467,0.12129 8.461715,0.12129 3.345381,0 5.312856,-0.0607 8.526847,-0.12129 0.393046,0.36497 0.393046,1.64518 0,2.01015 -4.591897,0.18305 -5.707025,0.4885 -5.707025,5.54419 v 21.68715 c 0.302084,-0.0191 0.681654,-0.22572 1.16117,-0.67043 l 18.02508,-20.83367 c 0.741173,-0.86582 1.350955,-1.9686 1.731648,-2.95458 -0.485131,-2.41218 -1.96186,-2.63228 -5.503764,-2.77266 -0.393046,-0.36497 -0.393046,-1.64518 0,-2.01015 3.279125,0.0618 5.182589,0.12129 8.461714,0.12129 3.345382,0 5.312857,-0.0607 8.526845,-0.12129 0.39417,0.36497 0.39417,1.64518 0,2.01015 -4.591895,0.18305 -5.707022,0.4885 -5.707022,5.54419 v 24.42724 c 0.0022,5.06018 1.117373,5.36339 5.708152,5.54644 z m 4.39088,0.73218 c 0,-0.30433 0.19652,-0.4885 0.4593,-0.4885 l 1.77095,-0.12128 c 2.754686,-0.18866 3.541906,-0.85347 3.541906,-2.55816 V 18.30246 c 0,-1.8271 -0.98374,-2.37512 -3.541906,-2.55817 l -1.70582,-0.12128 c -0.26165,0 -0.52443,-0.18305 -0.52443,-0.48738 v -1.1578 l 0.13139,-0.12128 c 3.27912,0.0618 5.247716,0.12128 8.526846,0.12128 3.27912,0 5.18146,-0.0606 8.39658,-0.12128 l 0.13139,0.12128 v 1.1578 c 0,0.30433 -0.19653,0.48738 -0.52444,0.48738 l -1.70582,0.12128 c -2.6233,0.18866 -3.60816,0.85347 -3.60816,2.55817 v 12.67067 c 2.36165,0 5.31286,-0.0618 6.88729,-0.91299 3.86982,-1.94951 4.78842,-5.84852 5.37911,-9.25903 0.65583,-3.77661 2.49303,-7.18825 7.6745,-7.18825 3.47677,0 4.65703,1.76646 4.65703,3.16683 0,1.76646 -1.50929,2.43688 -2.88608,2.43688 -0.85234,0 -1.77095,-0.30433 -2.42677,-0.91299 -0.72209,-0.67042 -1.24652,-0.97475 -2.09887,-0.97475 -1.96747,0 -2.42004,2.01015 -2.75469,3.77661 -0.72208,3.7766 -2.09886,9.01534 -7.08493,10.72229 v 0.30432 c 4.52677,0 7.08493,2.61994 8.85588,6.88392 3.41726,8.22364 6.7559,12.36635 9.05241,12.54939 l 1.04999,0.0606 c 0.32792,0 0.52444,0.18305 0.52444,0.4885 v 1.15668 l -0.0663,0.12128 -5.18146,-0.0606 c -5.11634,-0.0618 -7.47798,-4.99505 -10.2978,-11.69592 -2.56491,-6.09221 -3.80469,-8.10236 -11.28266,-8.10236 v 15.41189 c 0,1.82823 0.98373,2.36951 3.60816,2.55817 l 1.70582,0.12128 c 0.26277,0 0.52443,0.18305 0.52443,0.4885 v 1.15668 l -0.13139,0.12128 c -3.14886,-0.12128 -5.0512,-0.12128 -8.33032,-0.12128 -3.27913,0 -5.379116,0 -8.591986,0.12128 l -0.13138,-0.12128 v -1.15893 z m 85.924296,-0.73218 c 0.39417,0.36497 0.39417,1.64517 0,2.01014 -3.27912,-0.0606 -5.18146,-0.12128 -8.46171,-0.12128 -3.34538,0 -5.31286,0.0618 -8.52797,0.12128 -0.39417,-0.36497 -0.39417,-1.64517 0,-2.01014 4.5919,-0.18305 5.70702,-0.48738 5.70702,-5.5442 V 24.14873 c -0.49187,0.15161 -0.82652,0.42562 -1.14769,0.79171 l -17.91391,20.71127 c -0.76812,0.90737 -1.42394,1.40036 -1.87651,2.84453 0.46604,2.51549 1.92817,2.74009 5.52286,2.88046 0.39417,0.36497 0.39417,1.64518 0,2.01015 -3.28025,-0.0606 -5.18259,-0.12128 -8.46172,-0.12128 -3.34538,0 -5.31285,0.0618 -8.52685,0.12128 -0.39416,-0.36497 -0.39416,-1.64518 0,-2.01015 4.5919,-0.18305 5.70703,-0.48738 5.70703,-5.54419 V 21.40527 c 0,-5.05569 -1.11513,-5.36002 -5.70703,-5.54419 -0.39416,-0.36497 -0.39416,-1.64518 0,-2.01015 3.27913,0.0618 5.18147,0.12129 8.46172,0.12129 3.34538,0 5.31285,-0.0607 8.52797,-0.12129 0.39417,0.36497 0.39417,1.64518 0,2.01015 -4.5919,0.18305 -5.70703,0.4885 -5.70703,5.54419 v 21.68715 c 0.30209,-0.0191 0.68166,-0.22572 1.16117,-0.67043 l 18.02508,-20.83367 c 0.74118,-0.86582 1.35096,-1.9686 1.73165,-2.95458 -0.48513,-2.41218 -1.96186,-2.63228 -5.50376,-2.77266 -0.39417,-0.36497 -0.39417,-1.64518 0,-2.01015 3.28025,0.0618 5.18259,0.12129 8.46171,0.12129 3.34538,0 5.31286,-0.0607 8.52685,-0.12129 0.39417,0.36497 0.39417,1.64518 0,2.01015 -4.5919,0.18305 -5.70702,0.4885 -5.70702,5.54419 v 24.42724 c 0.001,5.06018 1.11625,5.36339 5.70814,5.54644 z m 48.14138,0 c 0.39304,0.36497 0.39304,1.64517 0,2.01014 -3.28025,-0.0606 -5.18259,-0.12128 -8.46172,-0.12128 -3.34538,0 -5.31286,0.0618 -8.52797,0.12128 -0.39417,-0.36497 -0.39417,-1.64517 0,-2.01014 4.5919,-0.18305 5.70703,-0.48738 5.70703,-5.5442 V 24.14873 c -0.49187,0.15161 -0.82652,0.42562 -1.1477,0.79171 l -17.9139,20.71127 c -0.767,0.90737 -1.42395,1.40036 -1.87539,2.84453 0.46491,2.51549 1.92817,2.74009 5.52285,2.88046 0.39417,0.36497 0.39417,1.64518 0,2.01015 -3.28025,-0.0606 -5.18146,-0.12128 -8.46171,-0.12128 -3.34538,0 -5.31286,0.0618 -8.52685,0.12128 -0.39417,-0.36497 -0.39417,-1.64518 0,-2.01015 4.59077,-0.18305 5.70702,-0.48738 5.70702,-5.54419 V 21.40527 c 0,-5.05569 -1.11512,-5.36002 -5.70702,-5.54419 -0.39417,-0.36497 -0.39417,-1.64518 0,-2.01015 3.27912,0.0618 5.18259,0.12129 8.46171,0.12129 3.34539,0 5.31286,-0.0607 8.52797,-0.12129 0.39417,0.36497 0.39417,1.64518 0,2.01015 -4.59189,0.18305 -5.70702,0.4885 -5.70702,5.54419 v 21.68715 c 0.30208,-0.0191 0.68165,-0.22572 1.16117,-0.67043 l 18.02508,-20.83367 c 0.74117,-0.86582 1.35095,-1.9686 1.73165,-2.95458 -0.48513,-2.41218 -1.96074,-2.63228 -5.50264,-2.77266 -0.39417,-0.36497 -0.39417,-1.64518 0,-2.01015 3.28024,0.0618 5.18146,0.12129 8.46171,0.12129 3.34538,0 5.31286,-0.0607 8.52797,-0.12129 0.39305,0.36497 0.39305,1.64518 0,2.01015 -4.5919,0.18305 -5.70702,0.4885 -5.70702,5.54419 v 24.42724 c -0.002,5.06018 1.11288,5.36339 5.70478,5.54644 z m 6.68739,-7.55322 c 1.83608,0 2.81982,1.58341 3.67329,3.16795 1.63957,2.86249 4.98495,4.812 10.10128,4.812 6.49424,0 10.36406,-3.71597 10.36406,-9.25903 0,-4.44704 -2.4279,-8.95583 -10.36406,-8.95583 -2.16512,0 -4.06634,0.36609 -5.83729,0.36609 -0.78722,0 -1.90234,-0.30433 -1.90234,-1.52277 0,-1.21844 1.11512,-1.46213 1.90234,-1.46213 1.77095,0 4.13259,0.36497 5.90355,0.36497 6.95242,0 8.72449,-4.20334 8.72449,-8.40557 0,-4.2651 -2.55817,-7.67562 -8.19894,-7.67562 -7.47797,0 -11.28266,4.38527 -12.98735,9.74641 l -1.9686,-0.12128 1.57443,-9.74641 c 4.65591,-0.42674 8.98615,-1.94951 13.90596,-1.94951 9.11754,0 13.44778,4.32575 13.44778,9.3208 0,5.11746 -4.0012,8.10236 -8.5931,9.3208 v 0.36497 c 6.1652,0.91299 10.42919,5.11746 10.42919,10.29443 0,7.97996 -8.00242,11.514 -16.33274,11.514 -6.55937,0 -11.01427,-1.46887 -12.98736,-3.10731 -1.76421,-1.46887 -3.01747,-2.61993 -3.01747,-4.63008 -0.001,-1.46213 0.85011,-2.43688 2.16288,-2.43688 z M 287.71064,13.8543 c 12.20015,0 14.10361,5.30051 14.10361,9.38144 0,3.30833 -2.9456,6.4336 -6.23258,7.97996 v 0.12128 c 5.70702,1.52277 10.10127,4.87377 10.10127,10.72117 0,5.23873 -3.47677,11.33094 -16.52926,11.33094 -5.83841,0 -6.75701,-0.12128 -9.57684,-0.12128 -3.34538,0 -5.31285,0.0618 -8.52797,0.12128 -0.39304,-0.36497 -0.39304,-1.64517 0,-2.01014 4.5919,-0.18305 5.70703,-0.48738 5.70703,-5.5442 V 21.40752 c 0,-5.05569 -1.11513,-5.36002 -5.70703,-5.54419 -0.39304,-0.36497 -0.39304,-1.64518 0,-2.01015 3.28025,0.0618 5.18259,0.12128 8.46172,0.12128 2.82094,0.002 5.90467,-0.12016 8.20005,-0.12016 z m -5.37911,17.11883 h 4.85356 c 5.44537,0 9.31518,-1.82822 9.31518,-7.0052 0,-6.21349 -4.78954,-8.04059 -8.46171,-8.04059 -5.70703,0 -5.70703,0.60866 -5.70703,2.61881 z m 0,16.32488 c 0,2.01015 0.85347,4.08206 5.44537,4.08206 9.96989,0 11.8071,-3.71597 11.8071,-8.163 0,-5.48243 -3.73843,-10.17427 -12.7257,-10.17427 h -4.52564 v 14.25521 z m 48.99597,6.57846 c -11.28154,0 -20.53047,-7.49257 -20.53047,-19.49282 0,-11.93961 8.39658,-21.19865 20.13855,-21.19865 11.47918,0 21.12115,7.97995 21.12115,20.04197 -0.001,12.18217 -8.19893,20.6495 -20.72923,20.6495 z M 317.09475,33.34825 c 0,11.69592 7.6745,18.45855 15.54664,18.45855 7.47686,0 13.11875,-6.51894 13.11875,-17.42315 0,-12.66955 -6.75702,-19.12674 -15.67691,-19.12674 -5.96981,-10e-4 -12.98848,5.29826 -12.98848,18.09134 z M 20.904422,0.20214 c 15.040178,0 17.384977,7.03552 17.384977,12.45281 0,4.39088 -3.63062,8.5392 -7.682361,10.59315 v 0.16283 c 7.03552,2.02138 12.452814,6.46841 12.452814,14.23163 0,6.95354 -4.285322,15.04018 -20.37774,15.04018 -7.196107,0 -8.329202,-0.16171 -11.805973,-0.16171 -4.1236122,0 -6.5503892,0.0808 -10.5122909,0.16171 -0.4851308,-0.48514 -0.4851308,-2.18197 0,-2.66822 5.6609827,-0.24257 7.0355197,-0.64685 7.0355197,-7.35894 V 10.2293 c 0,-6.7121 -1.374537,-7.11638 -7.0355197,-7.35894 -0.4851308,-0.48513 -0.4851308,-2.18309 0,-2.66822 4.0427567,0.0808 6.3875557,0.16171 10.4314359,0.16171 3.479017,0 7.279208,-0.16171 10.109138,-0.16171 z m -6.630121,22.72254 h 5.98328 c 6.712099,0 11.482552,-2.42566 11.482552,-9.29834 0,-8.24835 -5.902425,-10.67401 -10.431436,-10.67401 -7.034396,0 -7.034396,0.80856 -7.034396,3.47678 z m 0,21.6703 c 0,2.66822 1.051116,5.41729 6.710976,5.41729 12.291104,0 14.555047,-4.93329 14.555047,-10.83459 0,-7.27696 -4.608742,-13.50393 -15.687019,-13.50393 H 14.274301 Z M 351.40765,3.07249 c -0.48513,-0.48513 -0.48513,-2.18308 0,-2.66822 4.045,0.0809 6.38868,0.16172 10.43143,0.16172 3.23533,0 8.97717,-0.56599 11.07828,-0.56599 14.96045,0 18.11267,8.65262 18.11267,13.42307 0,6.87381 -4.44591,16.49558 -19.16266,16.49558 -2.82993,0 -4.77046,-0.24257 -6.54927,-0.80856 v 13.74538 c 0,6.7121 1.9394,7.03552 8.24722,7.35894 0.48513,0.48625 0.48513,2.18309 0,2.66822 -4.04275,-0.0797 -7.11525,-0.16171 -11.64426,-0.16171 -4.12361,0 -6.54927,0.0808 -10.51229,0.16171 -0.48513,-0.48513 -0.48513,-2.18197 0,-2.66822 5.66098,-0.24257 7.03664,-0.64684 7.03664,-7.35894 V 10.43143 c -10e-4,-6.71209 -1.37678,-7.11637 -7.03776,-7.35894 z M 365.3181,26.7653 c 0.88828,0.24256 4.12361,0.40427 6.14611,0.40427 7.84295,0 12.04854,-3.55763 12.04854,-12.2911 0,-10.26973 -5.58013,-12.1294 -11.16025,-12.1294 -5.82157,0 -7.0344,2.83106 -7.0344,5.17473 z" />
</svg>
