<?xml version="1.0" encoding="UTF-8" standalone="no"?>
<svg
   xmlns:dc="http://purl.org/dc/elements/1.1/"
   xmlns:cc="http://creativecommons.org/ns#"
   xmlns:rdf="http://www.w3.org/1999/02/22-rdf-syntax-ns#"
   xmlns:svg="http://www.w3.org/2000/svg"
   xmlns="http://www.w3.org/2000/svg"
   xml:space="preserve"
   enable-background="new 0 0 410 513"
   viewBox="0 0 287.59991 54.504002"
   height="54.504002"
   width="287.59991"
   y="0px"
   x="0px"
   id="svg1325"
   version="1.1"><metadata
   id="metadata42"><rdf:RDF><cc:Work
       rdf:about=""><dc:format>image/svg+xml</dc:format><dc:type
         rdf:resource="http://purl.org/dc/dcmitype/StillImage" /></cc:Work></rdf:RDF></metadata>
<defs
   id="defs7">
	
	
		
	
		
	
		
	
		
	
		
</defs>

<g
   transform="translate(-60.409031,-452.87737)"
   id="g3126">
	
</g>
<g
   transform="translate(-60.409,-454.586)"
   id="g38">
	<path
   id="path26"
   d="m 157.257,506.42 c 0.436,0.372 0.436,1.677 0,2.049 -3.634,-0.062 -5.743,-0.124 -9.377,-0.124 -3.707,0 -5.888,0.063 -9.45,0.124 -0.437,-0.372 -0.437,-1.677 0,-2.049 5.088,-0.187 6.324,-0.497 6.324,-5.651 v -24.904 c 0,-5.154 -1.236,-5.465 -6.324,-5.651 -0.437,-0.372 -0.437,-1.677 0,-2.049 3.634,0.062 5.743,0.124 9.377,0.124 3.707,0 5.888,-0.063 9.45,-0.124 0.436,0.372 0.436,1.677 0,2.049 -5.088,0.187 -6.324,0.497 -6.324,5.651 v 24.904 c 0,5.154 1.236,5.464 6.324,5.651 z" />
	<path
   id="path28"
   d="m 180.589,506.42 c 0.437,0.372 0.437,1.677 0,2.049 -3.635,-0.062 -5.743,-0.124 -9.377,-0.124 -3.707,0 -5.888,0.063 -9.45,0.124 -0.437,-0.372 -0.437,-1.677 0,-2.049 5.088,-0.187 6.324,-0.497 6.324,-5.651 v -24.904 c 0,-5.154 -1.236,-5.465 -6.324,-5.651 -0.437,-0.372 -0.437,-1.677 0,-2.049 3.634,0.062 5.743,0.124 9.377,0.124 3.708,0 5.888,-0.063 9.45,-0.124 0.437,0.372 0.437,1.677 0,2.049 -5.088,0.187 -6.324,0.497 -6.324,5.651 v 10.912 c 2.544,-0.187 4.063,-1.1 5.525,-2.403 l 12.212,-10.931 c 3.496,-3.316 0.589,-3.018 -2.036,-3.229 -0.436,-0.372 -0.436,-1.677 0,-2.049 3.417,0.062 5.307,0.124 8.214,0.124 2.907,0 3.489,-0.063 6.906,-0.124 0.436,0.372 0.436,1.677 0,2.049 -2.908,0.311 -6.106,0.436 -9.45,3.479 l -10.177,9.377 c -2.377,2.192 -2.69,2.608 -2.69,3.043 0,0.497 0.218,0.932 0.873,1.553 l 15.92,16.147 c 2.442,2.583 5.096,2.446 6.397,2.608 0.436,0.372 0.436,1.677 0,2.049 -3.417,-0.062 -4.507,-0.124 -7.342,-0.124 -2.181,0 -3.417,0.063 -4.87,0.124 -0.291,0 -0.364,-0.187 -0.364,-0.372 0,-1.131 -0.007,-2.782 -1.454,-4.285 L 180.08,491.516 c -1.454,-1.596 -3.373,-2.292 -5.815,-2.354 v 11.607 c 0,5.154 1.235,5.464 6.324,5.651 z" />
	<path
   id="path30"
   d="m 229.579,506.42 c 0.436,0.372 0.436,1.677 0,2.049 -3.635,-0.062 -5.743,-0.124 -9.378,-0.124 -3.707,0 -5.888,0.063 -9.45,0.124 -0.436,-0.372 -0.436,-1.677 0,-2.049 5.089,-0.187 6.324,-0.497 6.324,-5.651 v -24.904 c 0,-5.154 -1.235,-5.465 -6.324,-5.651 -0.436,-0.372 -0.436,-1.677 0,-2.049 3.635,0.062 5.743,0.124 9.378,0.124 3.707,0 5.888,-0.063 9.45,-0.124 0.436,0.372 0.436,1.677 0,2.049 -5.089,0.187 -6.324,0.497 -6.324,5.651 v 24.904 c 0,5.154 1.235,5.464 6.324,5.651 z" />
	<path
   id="path32"
   d="m 265.268,468.164 c 3.417,0.062 6.252,0.124 7.924,0.124 1.672,0 3.489,-0.063 6.396,-0.124 0.437,0.372 0.437,1.677 0,2.049 -4.798,0.497 -5.75,2.839 -7.146,5.776 l -15.025,31.672 c -0.422,0.889 -0.945,1.429 -1.745,1.429 -0.727,0 -1.235,-0.459 -1.672,-1.429 l -14.356,-31.797 c -2.072,-4.533 -2.362,-5.341 -6.506,-5.651 -0.437,-0.372 -0.509,-1.677 -0.073,-2.049 3.417,0.062 4.652,0.124 7.561,0.124 2.835,0 5.379,-0.063 8.796,-0.124 0.436,0.372 0.436,1.677 0,2.049 -4.943,0.436 -5.365,1.273 -3.679,4.969 l 11.565,25.276 h 0.335 l 11.478,-24.903 c 1.556,-3.379 1.526,-5.031 -3.853,-5.342 -0.437,-0.372 -0.437,-1.677 0,-2.049 z" />
	<path
   id="path34"
   d="m 302.045,506.42 c 0.436,0.372 0.436,1.677 0,2.049 -3.635,-0.062 -5.743,-0.124 -9.378,-0.124 -3.707,0 -5.888,0.063 -9.45,0.124 -0.436,-0.372 -0.436,-1.677 0,-2.049 5.089,-0.187 6.324,-0.497 6.324,-5.651 v -24.904 c 0,-5.154 -1.235,-5.465 -6.324,-5.651 -0.436,-0.372 -0.436,-1.677 0,-2.049 3.635,0.062 5.743,0.124 9.378,0.124 3.707,0 5.888,-0.063 9.45,-0.124 0.436,0.372 0.436,1.677 0,2.049 -5.089,0.187 -6.324,0.497 -6.324,5.651 v 24.904 c 0,5.154 1.235,5.464 6.324,5.651 z" />
	<path
   id="path36"
   d="m 325.231,506.42 c 0.436,0.372 0.436,1.677 0,2.049 -3.635,-0.062 -5.743,-0.124 -9.378,-0.124 -3.707,0 -5.888,0.063 -9.45,0.124 -0.436,-0.372 -0.436,-1.677 0,-2.049 5.089,-0.187 6.325,-0.497 6.325,-5.651 v -24.904 c 0,-5.154 -1.236,-5.465 -6.325,-5.651 -0.436,-0.372 -0.436,-1.677 0,-2.049 3.635,0.062 5.743,0.124 9.378,0.124 2.762,0 7.27,-0.435 9.087,-0.435 4.579,0 9.086,0.187 12.575,2.98 2.617,2.112 3.853,4.658 3.853,7.764 0,6.521 -6.542,9.75 -9.668,10.619 l 9.159,13.042 c 1.891,2.695 3.708,4.782 6.979,4.782 0.291,0.496 0.327,1.062 0.073,1.49 -0.728,0.311 -1.963,0.435 -3.054,0.435 -4.361,0 -7.509,-2.633 -9.595,-5.527 l -7.778,-10.806 c -1.04,-1.447 -2.399,-2.36 -8.505,-2.36 v 10.496 c 0,5.154 1.236,5.464 6.324,5.651 z m -6.324,-32.481 v 14.222 h 3.489 c 7.051,0 12.212,-1.739 12.212,-9.502 0,-7.328 -5.233,-8.694 -9.668,-8.694 -5.161,0 -6.033,2.174 -6.033,3.974 z" />
</g>
<path
   d="m 84.822,0.906 c 0,0.303 -0.102,0.58 -0.302,0.831 C 84.344,1.989 84.142,2.115 83.916,2.115 82.054,2.29 80.532,2.894 79.349,3.926 78.166,4.935 76.945,6.871 75.688,9.74 L 56.434,53.114 c -0.125,0.402 -0.479,0.604 -1.057,0.604 -0.453,0 -0.806,-0.201 -1.058,-0.604 L 43.524,30.54 31.105,53.114 c -0.252,0.402 -0.604,0.604 -1.057,0.604 -0.554,0 -0.918,-0.201 -1.095,-0.604 L 10.041,9.74 C 8.858,7.048 7.612,5.174 6.304,4.116 4.995,3.033 3.17,2.367 0.83,2.115 0.629,2.115 0.441,2.014 0.264,1.812 0.088,1.585 0,1.333 0,1.058 0,0.353 0.201,0 0.604,0 2.29,0 4.052,0.075 5.889,0.227 7.599,0.378 9.211,0.455 10.721,0.454 12.256,0.455 14.068,0.379 16.157,0.227 18.346,0.076 20.284,0 21.97,0 c 0.402,0 0.604,0.353 0.604,1.058 0,0.703 -0.126,1.057 -0.377,1.057 -1.687,0.126 -3.02,0.554 -4.001,1.282 -0.957,0.73 -1.435,1.687 -1.435,2.87 0,0.604 0.201,1.358 0.604,2.265 L 32.993,43.827 41.864,27.066 33.597,9.74 C 32.113,6.644 30.892,4.656 29.935,3.776 28.979,2.87 27.532,2.316 25.594,2.115 25.418,2.115 25.241,2.013 25.065,1.812 24.915,1.585 24.838,1.333 24.839,1.058 24.839,0.353 25.016,0 25.367,0 c 1.686,0 3.234,0.075 4.644,0.227 1.359,0.151 2.806,0.227 4.34,0.227 1.51,0 3.108,-0.076 4.794,-0.227 C 40.881,0.076 42.593,0 44.279,0 c 0.403,0 0.604,0.353 0.604,1.058 0,0.703 -0.126,1.057 -0.378,1.057 -3.371,0.225 -5.058,1.184 -5.058,2.869 0,0.754 0.39,1.925 1.171,3.511 L 46.091,19.593 51.528,9.438 C 52.283,8.004 52.66,6.796 52.66,5.815 52.66,3.5 50.974,2.267 47.601,2.116 c -0.301,0 -0.452,-0.354 -0.452,-1.057 0,-0.252 0.076,-0.491 0.227,-0.719 0.15,-0.226 0.302,-0.339 0.453,-0.339 1.208,0 2.692,0.075 4.454,0.227 1.687,0.151 3.07,0.227 4.152,0.227 0.78,0 1.924,-0.063 3.435,-0.188 1.912,-0.178 3.51,-0.266 4.794,-0.266 0.301,0 0.452,0.303 0.452,0.905 0,0.806 -0.277,1.209 -0.83,1.209 -1.963,0.201 -3.548,0.742 -4.757,1.622 -1.182,0.882 -2.667,2.883 -4.454,6.003 l -7.248,13.4 9.814,20.007 14.497,-33.71 C 72.641,8.206 72.892,7.072 72.892,6.04 72.892,3.574 71.205,2.267 67.834,2.115 67.531,2.115 67.38,1.761 67.38,1.058 67.38,0.353 67.607,0 68.061,0 c 1.233,0 2.692,0.075 4.378,0.227 1.56,0.151 2.869,0.227 3.925,0.227 1.107,0 2.391,-0.076 3.85,-0.227 C 81.724,0.076 83.084,0 84.291,0 c 0.354,0.001 0.531,0.304 0.531,0.906"
   id="path3263" />
</svg>
