<?xml version="1.0" encoding="UTF-8" standalone="no"?>
<svg
   xmlns:dc="http://purl.org/dc/elements/1.1/"
   xmlns:cc="http://creativecommons.org/ns#"
   xmlns:rdf="http://www.w3.org/1999/02/22-rdf-syntax-ns#"
   xmlns:svg="http://www.w3.org/2000/svg"
   xmlns="http://www.w3.org/2000/svg"
   xmlns:xlink="http://www.w3.org/1999/xlink"
   version="1.0"
   height="184.04364"
   width="379.38376"
   id="svg1325">
  <metadata
     id="metadata1330">
    <rdf:RDF>
      <cc:Work
         rdf:about="">
        <dc:format>image/svg+xml</dc:format>
        <dc:type
           rdf:resource="http://purl.org/dc/dcmitype/StillImage" />
        <dc:title />
      </cc:Work>
    </rdf:RDF>
  </metadata>
  <defs
     id="defs1328">
    <linearGradient
       id="linearGradient2719">
      <stop
         id="stop2721"
         offset="0"
         style="stop-color:#c8c8c8;stop-opacity:1;" />
      <stop
         id="stop2723"
         offset="1"
         style="stop-color:#5a5a5a;stop-opacity:1;" />
    </linearGradient>
    <linearGradient
       id="linearGradient2725">
      <stop
         id="stop2727"
         offset="0"
         style="stop-color:#ffffff;stop-opacity:1;" />
      <stop
         style="stop-color:#ffffff;stop-opacity:1;"
         offset="0.23517746"
         id="stop2729" />
      <stop
         style="stop-color:#eaeaea;stop-opacity:1;"
         offset="0.33212763"
         id="stop2731" />
      <stop
         style="stop-color:#c9c9c9;stop-opacity:1;"
         offset="0.67733651"
         id="stop2733" />
      <stop
         style="stop-color:#c9c9c9;stop-opacity:1;"
         offset="0.70174891"
         id="stop2735" />
      <stop
         id="stop2737"
         offset="0.88718456"
         style="stop-color:#919191;stop-opacity:1;" />
      <stop
         style="stop-color:#636363;stop-opacity:1;"
         offset="1"
         id="stop2739" />
    </linearGradient>
    <radialGradient
       r="58.789555"
       fy="53.200474"
       fx="28.507341"
       cy="53.200474"
       cx="28.507341"
       gradientTransform="matrix(-0.0213845,1.8805954,-2.0825927,-0.02368066,141.64261,-8.0321785)"
       gradientUnits="userSpaceOnUse"
       id="radialGradient2741"
       xlink:href="#linearGradient22714" />
    <radialGradient
       gradientUnits="userSpaceOnUse"
       gradientTransform="matrix(-0.01133842,1.1681586,-1.0210899,-0.00991093,172.24669,-42.1967)"
       r="71.078377"
       fy="103.19434"
       fx="74.607216"
       cy="103.19434"
       cx="74.607216"
       id="radialGradient2745"
       xlink:href="#linearGradient3414" />
    <radialGradient
       xlink:href="#linearGradient22714"
       id="radialGradient2614"
       gradientUnits="userSpaceOnUse"
       gradientTransform="matrix(-0.05135655,1.7043346,-1.7358385,-0.05230537,83.393731,3.9516267)"
       cx="24.557663"
       cy="56.273899"
       fx="24.557663"
       fy="56.273899"
       r="58.789555" />
    <radialGradient
       xlink:href="#linearGradient22714"
       id="radialGradient2569"
       gradientUnits="userSpaceOnUse"
       gradientTransform="matrix(-0.05135655,1.7043346,-1.7358385,-0.05230537,83.393731,3.9516267)"
       cx="24.557663"
       cy="56.273899"
       fx="24.557663"
       fy="56.273899"
       r="58.789555" />
    <radialGradient
       xlink:href="#linearGradient3414"
       id="radialGradient2528"
       gradientUnits="userSpaceOnUse"
       gradientTransform="matrix(-0.01322417,1.3624414,-1.1909129,-0.01155927,193.05543,-45.325481)"
       cx="74.607216"
       cy="103.19434"
       fx="74.607216"
       fy="103.19434"
       r="71.078377" />
    <radialGradient
       xlink:href="#linearGradient22714"
       id="radialGradient2526"
       gradientUnits="userSpaceOnUse"
       gradientTransform="matrix(-0.05989794,1.9877917,-2.0245352,-0.06100456,144.46834,2.0004126)"
       cx="24.557663"
       cy="56.273899"
       fx="24.557663"
       fy="56.273899"
       r="58.789555" />
    <radialGradient
       xlink:href="#linearGradient3414"
       id="radialGradient2586"
       gradientUnits="userSpaceOnUse"
       gradientTransform="matrix(-0.01322417,1.3624414,-1.1909129,-0.01155927,193.05543,-45.325481)"
       cx="74.607216"
       cy="103.19434"
       fx="74.607216"
       fy="103.19434"
       r="71.078377" />
    <radialGradient
       xlink:href="#linearGradient22714"
       id="radialGradient2584"
       gradientUnits="userSpaceOnUse"
       gradientTransform="matrix(-0.05989794,1.9877917,-2.0245352,-0.06100456,144.46834,2.0004126)"
       cx="24.557663"
       cy="56.273899"
       fx="24.557663"
       fy="56.273899"
       r="58.789555" />
    <linearGradient
       id="linearGradient22714">
      <stop
         style="stop-color:#ffffff;stop-opacity:1;"
         offset="0"
         id="stop3358" />
      <stop
         id="stop3422"
         offset="0.23517746"
         style="stop-color:#ffffff;stop-opacity:1;" />
      <stop
         id="stop2552"
         offset="0.33212763"
         style="stop-color:#eaeaea;stop-opacity:1;" />
      <stop
         id="stop2548"
         offset="0.67733651"
         style="stop-color:#c9c9c9;stop-opacity:1;" />
      <stop
         id="stop3360"
         offset="0.70174891"
         style="stop-color:#c9c9c9;stop-opacity:1;" />
      <stop
         style="stop-color:#919191;stop-opacity:1;"
         offset="0.88718456"
         id="stop2550" />
      <stop
         id="stop5321"
         offset="1"
         style="stop-color:#636363;stop-opacity:1;" />
    </linearGradient>
    <linearGradient
       id="linearGradient3414">
      <stop
         style="stop-color:#c8c8c8;stop-opacity:1;"
         offset="0"
         id="stop3416" />
      <stop
         style="stop-color:#5a5a5a;stop-opacity:1;"
         offset="1"
         id="stop3418" />
    </linearGradient>
  </defs>
  <g
     transform="translate(-51.973789,-437.32406)"
     id="g3126">
    <g
       transform="translate(17.324589)"
       id="text3054"
       style="font-style:normal;font-weight:normal;font-size:40px;line-height:125%;font-family:Sans;letter-spacing:0px;word-spacing:0px;fill:#000000;fill-opacity:1;stroke:none">
      <path
         id="path3059"
         style="font-variant:normal;font-stretch:normal;font-size:144px;font-family:Ramaraja;-inkscape-font-specification:Ramaraja"
         d="m 114.3292,514.50806 c -8e-5,9.72803 -1.92008,17.66402 -5.76,23.808 -4.86407,8.19201 -11.648062,12.288 -20.352,12.288 -8.576045,0 -15.040038,-3.51999 -19.392,-10.56 -1.792032,3.20001 -4.09603,5.76001 -6.912,7.68 -2.816024,1.92001 -6.144021,2.88 -9.984,2.88 -4.864012,0 -8.960008,-1.91999 -12.288,-5.76 -3.328001,-3.83999 -4.992,-8.25598 -4.992,-13.248 0,-4.73597 1.599999,-8.70397 4.8,-11.904 3.327992,-3.19996 7.359988,-4.79996 12.096,-4.8 5.375978,4e-5 9.407974,1.21604 12.096,3.648 2.815969,2.30403 5.119966,4.99203 6.912,8.064 3.839961,2.81603 8.063956,4.22402 12.672,4.224 7.167945,2e-5 12.863939,-2.36797 17.088,-7.104 4.35193,-4.73596 6.52793,-10.55996 6.528,-17.472 -7e-5,-9.85594 -3.13607,-17.72793 -9.408,-23.616 -6.272056,-5.88792 -14.400048,-9.21592 -24.384,-9.984 1.151961,3.71208 1.279961,6.84808 0.384,9.408 -0.896037,2.56007 -2.432036,4.54407 -4.608,5.952 -2.176032,1.40807 -4.800029,2.24007 -7.872,2.496 -2.944023,0.25606 -5.69602,-0.0639 -8.256,-0.96 -3.584014,-1.53593 -5.952012,-3.77593 -7.104,-6.72 -1.152009,-2.94392 -1.216009,-5.88792 -0.192,-8.832 1.151989,-2.94392 3.391986,-5.50391 6.72,-7.68 3.45598,-2.17591 7.935975,-3.26391 13.44,-3.264 7.679962,0.12809 14.527955,1.53609 20.544,4.224 6.015943,2.68809 11.071938,6.33608 15.168,10.944 4.22393,4.48007 7.42393,9.85607 9.6,16.128 2.30392,6.27205 3.45592,12.99205 3.456,20.16 m -46.272,-36.48 c -3.3e-5,-1.66392 -0.384033,-3.51992 -1.152,-5.568 -2.816029,-1.15192 -5.312027,-0.83192 -7.488,0.96 -2.048022,1.66408 -3.264021,3.71208 -3.648,6.144 -0.25602,2.30407 0.575979,3.90407 2.496,4.8 2.047975,0.89607 3.967973,0.96007 5.76,0.192 2.431969,-1.02393 3.775967,-3.19993 4.032,-6.528 m -5.76,48.192 c -1.792025,-4.22397 -5.248022,-6.27196 -10.368,-6.144 -3.072014,4e-5 -5.312012,0.70403 -6.72,2.112 -1.408009,1.28003 -2.112008,2.68803 -2.112,4.224 -8e-6,1.53603 0.703991,2.94403 2.112,4.224 1.407988,1.15202 3.519986,1.72802 6.336,1.728 2.431981,2e-5 4.735979,-0.57598 6.912,-1.728 2.303974,-1.15197 3.583973,-2.62397 3.84,-4.416" />
      <path
         id="path3061"
         style="font-variant:normal;font-stretch:normal;font-size:144px;font-family:Ramaraja;-inkscape-font-specification:Ramaraja"
         d="m 154.71745,455.75606 c 0.12797,0.3841 -0.064,0.7041 -0.576,0.96 -0.38403,0.2561 -0.96003,0.5121 -1.728,0.768 -0.76803,0.1281 -1.53603,0.3201 -2.304,0.576 -0.76803,0.1281 -1.21602,0.1281 -1.344,0 -2.56002,-2.0479 -3.84002,-5.2479 -3.84,-9.6 -2e-5,-3.32789 1.34398,-6.01589 4.032,-8.064 2.81597,-2.04788 6.01597,-3.07188 9.6,-3.072 3.07196,1.2e-4 5.95196,0.96012 8.64,2.88 2.68795,1.92011 4.09595,4.41611 4.224,7.488 0.38395,2.68811 0.12795,4.2881 -0.768,4.8 -0.89605,0.3841 -2.30404,0.5761 -4.224,0.576 -4e-5,-1.5359 -0.76804,-2.87989 -2.304,-4.032 -1.53604,-1.27989 -3.07204,-1.91989 -4.608,-1.92 -3.71203,1.1e-4 -5.76003,0.83211 -6.144,2.496 -0.38403,1.6641 0.064,3.7121 1.344,6.144 m 4.608,24.768 c -1.28003,0.76807 -3.07203,1.66407 -5.376,2.688 -2.30403,0.89607 -4.35203,1.34407 -6.144,1.344 -2.04802,7e-5 -4.03202,-0.31993 -5.952,-0.96 -1.92002,-0.63993 -3.71201,-1.47193 -5.376,-2.496 -1.66401,-1.02392 -3.00801,-2.36792 -4.032,-4.032 -0.89601,-1.66392 -1.34401,-3.71192 -1.344,-6.144 -1e-5,-7.16791 4.15999,-12.0319 12.48,-14.592 3.58398,-1.1519 7.55197,-1.3439 11.904,-0.576 4.35196,0.6401 8.12796,1.9841 11.328,4.032 2.81595,1.79209 4.92795,4.22409 6.336,7.296 1.53595,2.94409 2.30395,5.56808 2.304,7.872 -5e-5,7.68007 -3.64805,13.18407 -10.944,16.512 -4.35204,1.79206 -8.51203,2.81606 -12.48,3.072 -3.96802,0.12806 -8.12802,-0.38394 -12.48,-1.536 -3.32801,-0.89594 -6.46401,-1.98394 -9.408,-3.264 -2.944,-1.40793 -4.416,-2.94393 -4.416,-4.608 0,-1.91993 1.024,-2.87993 3.072,-2.88 0.384,7e-5 1.72799,0.57607 4.032,1.728 2.43199,1.15207 5.05599,2.17607 7.872,3.072 3.32798,0.89607 6.65598,1.34407 9.984,1.344 3.32797,7e-5 6.52797,-0.83193 9.6,-2.496 1.91996,-0.89593 3.51996,-2.23993 4.8,-4.032 1.27996,-1.79192 1.91996,-4.03192 1.92,-6.72 -4e-5,-1.79192 -0.25604,-3.83992 -0.768,-6.144 -0.38404,1.79208 -0.89604,3.58408 -1.536,5.376 -0.64004,1.79208 -2.43204,3.84008 -5.376,6.144 m -11.52,-12.48 c -1.40802,0.76809 -2.49602,1.72809 -3.264,2.88 -0.64002,1.15208 -0.96002,2.30408 -0.96,3.456 -2e-5,1.02408 0.38398,1.92008 1.152,2.688 0.89598,0.76808 2.30398,0.96008 4.224,0.576 3.07197,-0.76792 5.18397,-2.43192 6.336,-4.992 1.15197,-2.55991 1.53597,-4.60791 1.152,-6.144 -3.58403,9e-5 -6.46403,0.51209 -8.64,1.536 m 32.64,63.552 c -6e-5,3.58402 -0.96006,6.59202 -2.88,9.024 -1.79205,2.30401 -4.09605,4.22401 -6.912,5.76 -2.81604,1.53601 -5.82404,2.62401 -9.024,3.264 -3.20003,0.64001 -6.27203,0.96 -9.216,0.96 -9.60002,0 -16.96001,-1.91999 -22.08,-5.76 -4.992,-3.96799 -7.168,-11.00798 -6.528,-21.12 h 4.992 c 0.63999,5.88803 8.06399,8.83202 22.272,8.832 12.92796,2e-5 19.39195,-2.11197 19.392,-6.336 -5e-5,-1.53597 -1.47204,-2.75197 -4.416,-3.648 -2.81604,-0.89597 -6.20804,-1.59997 -10.176,-2.112 -3.96803,-0.63996 -7.87202,-1.21596 -11.712,-1.728 -3.71202,-0.51196 -6.59201,-1.08796 -8.64,-1.728 -3.32801,-1.27996 -6.14401,-2.81596 -8.448,-4.608 -2.176,-1.79196 -3.264,-4.35195 -3.264,-7.68 0,-3.07195 0.96,-5.63194 2.88,-7.68 2.048,-2.04794 4.54399,-3.71194 7.488,-4.992 2.94399,-1.27994 6.01598,-2.17593 9.216,-2.688 3.19998,-0.63993 6.07997,-0.95993 8.64,-0.96 5.50397,7e-5 10.81596,1.21607 15.936,3.648 6.14395,2.94406 9.98395,6.91206 11.52,11.904 0.25594,1.28005 0.12794,2.30405 -0.384,3.072 -0.38405,0.64005 -1.02405,1.02405 -1.92,1.152 -0.76805,0.12805 -1.66405,0.0641 -2.688,-0.192 -0.89605,-0.38395 -1.60005,-0.95995 -2.112,-1.728 -2.43205,-2.81595 -5.95204,-4.86395 -10.56,-6.144 -4.60803,-1.27994 -9.21603,-1.79194 -13.824,-1.536 -4.48002,0.12806 -8.38402,0.89606 -11.712,2.304 -3.32801,1.40805 -4.99201,3.32805 -4.992,5.76 -1e-5,1.92005 1.91999,3.39205 5.76,4.416 3.96798,1.02404 8.38398,1.98404 13.248,2.88 2.81597,0.51204 5.95197,0.96004 9.408,1.344 3.45596,0.38404 6.71996,1.21604 9.792,2.496 3.19995,1.15204 5.82395,2.75204 7.872,4.8 2.04794,2.04803 3.07194,5.05603 3.072,9.024" />
      <path
         id="path3063"
         style="font-variant:normal;font-stretch:normal;font-size:144px;font-family:Ramaraja;-inkscape-font-specification:Ramaraja"
         d="m 266.78845,512.20406 c -8e-5,9.08803 -2.17607,17.34403 -6.528,24.768 -2.43207,4.22401 -5.44006,7.55201 -9.024,9.984 -3.45606,2.43201 -7.36005,3.648 -11.712,3.648 -2.81605,0 -5.44004,-0.83199 -7.872,-2.496 -2.30404,-1.66399 -4.41604,-3.83999 -6.336,-6.528 l -7.872,-14.592 c -1.40803,-2.55997 -3.13602,-4.54397 -5.184,-5.952 -2.04802,-1.40796 -4.03202,-2.11196 -5.952,-2.112 -1.79201,-0.12796 -3.39201,0.38404 -4.8,1.536 -1.28001,1.15203 -1.92001,2.94403 -1.92,5.376 -1e-5,2.81603 2.17599,6.40002 6.528,10.752 4.35198,4.35201 6.52798,6.33601 6.528,5.952 -2e-5,3.32801 -1.40802,5.76001 -4.224,7.296 -2.68802,1.408 -5.37601,1.28 -8.064,-0.384 -6.784,-4.35199 -10.176,-10.68798 -10.176,-19.008 0,-4.86397 1.408,-8.95997 4.224,-12.288 2.94399,-3.32796 6.84799,-4.99196 11.712,-4.992 2.68798,4e-5 5.24798,0.89604 7.68,2.688 2.55997,1.66404 5.05597,3.52004 7.488,5.568 2.43197,2.04803 4.86396,3.96803 7.296,5.76 2.55996,1.66403 5.24796,2.49603 8.064,2.496 6.39995,3e-5 11.19994,-1.91997 14.4,-5.76 3.32794,-3.96796 5.37593,-8.70396 6.144,-14.208 0.76793,-5.50395 0.38393,-11.26394 -1.152,-17.28 -1.53606,-6.01593 -3.77606,-11.00793 -6.72,-14.976 -3.32806,-4.47992 -7.42405,-7.55191 -12.288,-9.216 -4.73604,-1.66391 -10.11204,-2.43191 -16.128,-2.304 -5.63202,0.38409 -8.44802,-1.02391 -8.448,-4.224 -2e-5,-2.6879 2.75198,-4.0319 8.256,-4.032 5.88796,10e-5 11.58396,0.9601 17.088,2.88 5.50395,1.79209 10.81594,6.01609 15.936,12.672 8.70393,11.26407 13.05592,24.25606 13.056,38.976 m 21.312,-33.984 c 5.6319,2.04808 9.59989,4.80007 11.904,8.256 2.30389,3.32807 3.45589,6.97606 3.456,10.944 -1.1e-4,3.84005 -1.40811,7.16805 -4.224,9.984 -2.68811,2.68805 -5.9521,4.03204 -9.792,4.032 -2.4321,4e-5 -4.60809,-0.57596 -6.528,-1.728 -1.79209,-1.15195 -3.13609,-2.62395 -4.032,-4.416 -0.89609,-1.79195 -1.21609,-3.71195 -0.96,-5.76 0.25591,-2.04794 1.27991,-4.09594 3.072,-6.144 -1.28009,-0.12794 -3.58409,-0.19194 -6.912,-0.192 -3.20008,-0.12794 -6.59208,-0.19194 -10.176,-0.192 -3.58407,6e-5 -7.04007,0.0641 -10.368,0.192 -3.20006,6e-5 -5.24806,0.0641 -6.144,0.192 -3.71205,0.89606 -6.52805,2.24006 -8.448,4.032 -1.79205,1.66406 -3.58404,3.64805 -5.376,5.952 -3.58404,-6.65594 -10.62403,-9.98394 -21.12,-9.984 -9.72801,6e-5 -14.59201,1.60006 -14.592,4.8 -10e-6,1.02406 0.44799,1.85606 1.344,2.496 1.02399,0.51205 2.11199,0.89605 3.264,1.152 1.27999,0.25605 2.49599,0.44805 3.648,0.576 1.15198,5e-5 2.04798,5e-5 2.688,0 3.32798,0.38405 5.05598,1.28005 5.184,2.688 0.12798,1.28005 -1.21602,1.92005 -4.032,1.92 -2.43202,5e-5 -4.80001,-0.19195 -7.104,-0.576 -2.30401,-0.38395 -4.41601,-1.02395 -6.336,-1.92 -1.92,-0.89595 -3.456,-2.17595 -4.608,-3.84 -1.152,-1.66394 -1.728,-3.90394 -1.728,-6.72 0,-3.19994 0.64,-5.88793 1.92,-8.064 1.408,-2.17593 3.136,-3.90393 5.184,-5.184 2.04799,-1.27992 4.41599,-2.17592 7.104,-2.688 2.68798,-0.63992 5.37598,-0.95992 8.064,-0.96 8.06397,8e-5 15.03996,2.36808 20.928,7.104 3.83995,-2.94393 7.99995,-4.79992 12.48,-5.568 4.47994,-0.76792 8.89594,-1.47192 13.248,-2.112 7.80792,-1.02392 17.47191,-0.44792 28.992,1.728 m 1.344,28.032 c 1.6639,5e-5 2.7519,-0.70395 3.264,-2.112 0.6399,-1.40795 0.7679,-2.87995 0.384,-4.416 -0.2561,-1.53594 -0.9601,-2.81594 -2.112,-3.84 -1.1521,-1.15194 -2.4961,-1.53594 -4.032,-1.152 -0.7681,0.25606 -1.34409,1.02406 -1.728,2.304 -0.25609,1.15206 -0.32009,2.43206 -0.192,3.84 0.12791,1.40805 0.57591,2.68805 1.344,3.84 0.7679,1.02405 1.7919,1.53605 3.072,1.536 m -2.112,-28.224 c -1.6641,0.51208 -2.94409,0.76808 -3.84,0.768 -0.76809,8e-5 -2.11209,-0.44792 -4.032,-1.344 -1.92009,-1.91992 -3.00809,-3.96792 -3.264,-6.144 -0.25609,-2.17591 0.0639,-4.22391 0.96,-6.144 1.02391,-1.91991 2.55991,-3.51991 4.608,-4.8 2.04791,-1.2799 4.3519,-1.9199 6.912,-1.92 3.8399,1e-4 6.7839,1.2161 8.832,3.648 2.04789,2.30409 3.45589,4.41609 4.224,6.336 0.12789,0.51209 0.0639,1.15209 -0.192,1.92 -0.25611,0.64008 -0.64011,1.15208 -1.152,1.536 -0.38411,0.38408 -0.96011,0.57608 -1.728,0.576 -0.76811,8e-5 -1.47211,-0.38392 -2.112,-1.152 -0.89611,-1.02391 -1.8561,-1.98391 -2.88,-2.88 -0.8961,-0.89591 -2.3041,-1.15191 -4.224,-0.768 -1.6641,0.38409 -2.8801,1.15209 -3.648,2.304 -0.64009,1.02408 -1.02409,2.11208 -1.152,3.264 -0.12809,1.15208 0.0639,2.24008 0.576,3.264 0.5119,1.02408 1.2159,1.53608 2.112,1.536" />
      <path
         id="path3065"
         style="font-variant:normal;font-stretch:normal;font-size:144px;font-family:Ramaraja;-inkscape-font-specification:Ramaraja"
         d="m 373.1827,450.76406 c 2.04794,1e-4 3.64794,0.3201 4.8,0.96 1.15193,0.5121 1.98393,1.1521 2.496,1.92 0.51193,0.7681 0.76793,1.6001 0.768,2.496 0.12793,0.7681 0.19193,1.4721 0.192,2.112 -7e-5,1.0241 -7e-5,2.1121 0,3.264 -7e-5,1.02409 -0.19207,1.98409 -0.576,2.88 -0.38407,0.89609 -1.21607,1.66409 -2.496,2.304 -1.15206,0.51209 -2.88006,0.76809 -5.184,0.768 h -34.368 c -3.07202,9e-5 -4.60802,1.08809 -4.608,3.264 -2e-5,2.17608 1.53598,3.26408 4.608,3.264 h 16.704 c 3.32795,8e-5 5.05595,1.08808 5.184,3.264 -5e-5,1.28008 -0.38405,2.17608 -1.152,2.688 -0.64005,0.38408 -1.98404,0.57608 -4.032,0.576 -3.71204,0.12807 -6.91204,0.0641 -9.6,-0.192 -2.56003,-0.25592 -5.12003,-0.31992 -7.68,-0.192 -2.94402,8e-5 -4.28802,1.34407 -4.032,4.032 0.38398,1.40807 1.72798,2.24007 4.032,2.496 h 18.816 c 1.79195,0.25607 3.07195,0.51207 3.84,0.768 0.89595,0.12807 1.34395,0.89607 1.344,2.304 -5e-5,1.53606 -0.44805,2.56006 -1.344,3.072 -0.76805,0.38406 -2.04805,0.57606 -3.84,0.576 -1.92004,6e-5 -4.73604,6e-5 -8.448,0 -3.71203,-0.12794 -6.97603,-0.19194 -9.792,-0.192 -4.22402,0.38406 -7.36002,-0.12794 -9.408,-1.536 -2.04801,-1.40793 -3.39201,-3.07193 -4.032,-4.992 -0.51201,-1.91993 -0.44801,-3.83993 0.192,-5.76 0.63999,-1.91992 1.66399,-3.13592 3.072,-3.648 -1.92001,-0.63992 -3.45601,-1.98392 -4.608,-4.032 -1.02401,-2.17592 -1.53601,-4.47991 -1.536,-6.912 0.25599,-5.50391 2.17599,-9.4719 5.76,-11.904 3.71198,-2.4319 8.06398,-3.6479 13.056,-3.648 h 31.872 m 7.104,68.16 c -7e-5,9.98403 -3.07206,17.79202 -9.216,23.424 -6.01605,5.50401 -13.95204,8.256 -23.808,8.256 -4.86403,0 -9.34402,-0.70399 -13.44,-2.112 -3.96802,-1.40799 -7.55201,-3.39199 -10.752,-5.952 -3.20001,-2.55998 -5.696,-5.75998 -7.488,-9.6 -1.664,-3.83997 -2.496,-8.25597 -2.496,-13.248 0,-4.47996 0.832,-8.63996 2.496,-12.48 1.792,-3.96795 4.15999,-7.35994 7.104,-10.176 3.07199,-2.94394 6.59198,-5.24794 10.56,-6.912 3.96798,-1.66393 8.25597,-2.49593 12.864,-2.496 4.09596,7e-5 8.19196,0.83207 12.288,2.496 4.09595,1.53606 7.74395,3.71206 10.944,6.528 3.19994,2.81606 5.82394,6.14405 7.872,9.984 2.04793,3.71205 3.07193,7.80804 3.072,12.288 m -10.56,-5.76 c -6e-5,-3.19995 -0.70406,-5.95195 -2.112,-8.256 -1.28005,-2.43195 -3.07205,-4.47994 -5.376,-6.144 -2.17605,-1.66394 -4.67204,-2.94394 -7.488,-3.84 -2.81604,-1.02394 -5.63204,-1.53594 -8.448,-1.536 -3.07203,6e-5 -6.01603,0.51206 -8.832,1.536 -2.81602,0.89606 -5.31202,2.24006 -7.488,4.032 -2.17601,1.66405 -3.96801,3.77605 -5.376,6.336 -1.40801,2.56005 -2.17601,5.44004 -2.304,8.64 -0.38401,3.45604 0.064,6.40004 1.344,8.832 1.27999,2.43203 3.00799,4.35203 5.184,5.76 2.17598,1.40803 4.67198,2.43202 7.488,3.072 2.94397,0.64002 5.95197,0.96002 9.024,0.96 3.32796,2e-5 6.46396,-0.25598 9.408,-0.768 2.94396,-0.63998 5.56795,-1.66397 7.872,-3.072 2.30395,-1.53597 4.03195,-3.51997 5.184,-5.952 1.27994,-2.55996 1.91994,-5.75996 1.92,-9.6" />
      <path
         id="path3067"
         style="font-variant:normal;font-stretch:normal;font-size:144px;font-family:Ramaraja;-inkscape-font-specification:Ramaraja"
         d="m 414.03295,545.03606 c -2e-5,2.94401 -0.12802,6.208 -0.384,9.792 -0.25602,3.584 -1.02402,7.03999 -2.304,10.368 -1.28002,3.32799 -3.00802,6.14398 -5.184,8.448 -2.04801,2.30398 -4.99201,3.45598 -8.832,3.456 -3.2,-2e-5 -5.76,-1.28002 -7.68,-3.84 -0.256,-0.12802 -1.664,-2.43202 -4.224,-6.912 -1.91999,-3.45601 -4.03199,-5.18401 -6.336,-5.184 -2.43199,-10e-6 -3.64798,1.15199 -3.648,3.456 2e-5,1.66399 1.28001,3.96799 3.84,6.912 0.51201,1.15198 0.76801,1.85598 0.768,2.112 1e-5,0.76798 -0.19199,1.47198 -0.576,2.112 -0.38399,0.76798 -1.21599,1.34398 -2.496,1.728 h -1.152 c -0.76798,-2e-5 -1.47198,-0.25602 -2.112,-0.768 -1.66398,-1.66402 -2.81598,-3.39202 -3.456,-5.184 -0.63998,-1.66401 -0.95998,-3.39201 -0.96,-5.184 2e-5,-2.68801 0.83202,-5.05601 2.496,-7.104 1.53602,-1.92 3.64802,-2.88 6.336,-2.88 2.43201,0 5.56801,2.048 9.408,6.144 3.584,3.71199 6.656,5.56799 9.216,5.568 8.44799,-10e-6 12.67198,-7.68 12.672,-23.04 -2e-5,-11.39198 -1.92002,-20.79997 -5.76,-28.224 -3.84001,-7.42395 -8.448,-11.83995 -13.824,-13.248 -1.536,-0.25595 -2.432,-0.70395 -2.688,-1.344 -0.384,-0.63995 -0.576,-1.53595 -0.576,-2.688 0,-0.89594 0.512,-1.66394 1.536,-2.304 0.896,-0.63994 1.984,-0.83194 3.264,-0.576 4.096,0.89606 7.67999,3.07206 10.752,6.528 3.07199,3.32805 5.43998,7.36005 7.104,12.096 1.66398,4.73604 2.87998,9.72803 3.648,14.976 0.76798,5.12002 1.15198,10.04802 1.152,14.784" />
    </g>
    <g
       transform="translate(14.437157,4.3311472)"
       id="text3069"
       style="font-style:normal;font-weight:normal;font-size:40px;line-height:125%;font-family:Sans;letter-spacing:0px;word-spacing:0px;fill:#000000;fill-opacity:1;stroke:none">
      <path
         id="path3074"
         style="font-variant:normal;font-stretch:normal;font-family:Ramaraja;-inkscape-font-specification:Ramaraja"
         d="m 56.48112,584.28821 c -1.5e-5,2.63113 -1.528902,3.94668 -4.586667,3.94667 h -2.4 c -0.462229,10e-6 -0.800007,-0.0711 -1.013333,-0.21333 -0.21334,-0.17777 -0.320007,-0.37332 -0.32,-0.58667 -7e-6,-0.21332 0.10666,-0.40887 0.32,-0.58667 0.248882,-0.21331 0.586659,-0.31998 1.013333,-0.32 h 2.346667 c 0.604434,2e-5 1.066655,-0.12442 1.386666,-0.37333 0.319989,-0.28443 0.479989,-0.60443 0.48,-0.96 -1.1e-5,-0.35554 -0.160011,-0.65776 -0.48,-0.90667 -0.284455,-0.28442 -0.746677,-0.42664 -1.386666,-0.42666 l -8.64,0.0533 c -0.675556,2e-5 -1.066667,-0.15998 -1.173334,-0.48 -0.106666,-0.35554 -0.16,-0.87109 -0.16,-1.54667 0,-1.06664 0.01778,-1.65331 0.05333,-1.76 0.106666,-0.39108 0.266666,-0.58664 0.48,-0.58666 0.248888,-0.0355 0.515554,-0.0533 0.8,-0.0533 h 7.04 c 0.853324,3e-5 1.653323,0.0711 2.4,0.21334 0.78221,0.14224 1.457765,0.39113 2.026666,0.74666 0.568876,0.32003 1.01332,0.80002 1.333334,1.44 0.319985,0.60447 0.479985,1.40447 0.48,2.4 m -4.053334,-4.58666 c -0.426676,0.0711 -0.764454,0.12446 -1.013333,0.16 -0.248898,0.0356 -0.640009,-0.0889 -1.173333,-0.37334 -0.497786,-0.49775 -0.78223,-1.04886 -0.853334,-1.65333 -0.07112,-0.60442 0.03555,-1.17331 0.32,-1.70667 0.284437,-0.5333 0.693325,-0.97775 1.226667,-1.33333 0.568879,-0.35553 1.226656,-0.5333 1.973333,-0.53333 1.066655,3e-5 1.866654,0.3378 2.4,1.01333 0.568875,0.64003 0.942208,1.22669 1.12,1.76 0.03554,0.14225 0.01776,0.32003 -0.05333,0.53333 -0.07113,0.17781 -0.177792,0.32003 -0.32,0.42667 -0.106681,0.10669 -0.266681,0.16002 -0.48,0.16 -0.177791,2e-5 -0.355569,-0.10664 -0.533333,-0.32 -0.248902,-0.28442 -0.515568,-0.55109 -0.8,-0.8 -0.248901,-0.24886 -0.622234,-0.33775 -1.12,-0.26667 -0.462233,0.14225 -0.800011,0.37336 -1.013334,0.69334 -0.213343,0.28447 -0.337787,0.58669 -0.373333,0.90666 -10e-6,0.32003 0.05332,0.60447 0.16,0.85334 0.106657,0.24891 0.284434,0.40891 0.533333,0.48 m 7.2,6.56 c 0.995537,0.10668 1.919981,0.39112 2.773334,0.85333 0.853312,0.46224 1.599978,1.08446 2.24,1.86667 0.639976,0.78223 1.102198,1.72445 1.386666,2.82666 0.28442,1.06668 0.391087,2.29335 0.32,3.68 -0.106691,0.92445 -0.320024,1.90223 -0.64,2.93334 -0.284468,0.99556 -0.711134,1.92 -1.28,2.77333 -0.533355,0.81778 -1.226688,1.49333 -2.08,2.02667 -0.817797,0.53333 -1.777796,0.8 -2.88,0.8 -1.422238,0 -2.577792,-0.46223 -3.466666,-1.38667 -0.888902,-0.92444 -1.671124,-1.93778 -2.346667,-3.04 -0.640011,-1.10222 -1.244455,-2.09777 -1.813333,-2.98667 -0.533343,-0.92443 -1.173342,-1.36888 -1.92,-1.33333 -0.604452,0.0711 -1.066674,0.23112 -1.386667,0.48 -0.320006,0.2489 -0.533339,0.5689 -0.64,0.96 -0.106673,0.35556 -0.0889,0.74667 0.05333,1.17333 0.142216,0.39112 0.373327,0.80001 0.693334,1.22667 0.284437,0.28445 0.604437,0.56889 0.96,0.85333 0.355547,0.28445 0.675547,0.56889 0.96,0.85334 0.319991,0.28444 0.533324,0.58666 0.64,0.90666 0.142212,0.32 0.124435,0.64 -0.05333,0.96 -0.213342,0.39111 -0.515564,0.67556 -0.906666,0.85334 -0.391119,0.17777 -0.78223,0.26666 -1.173334,0.26666 -0.604451,0 -1.155561,-0.16 -1.653333,-0.48 -0.497783,-0.32 -0.942227,-0.72889 -1.333333,-1.22666 -0.391115,-0.53334 -0.693337,-1.08445 -0.906667,-1.65334 -0.213336,-0.56888 -0.320003,-1.13777 -0.32,-1.70666 -3e-6,-1.56444 0.355552,-2.75555 1.066667,-3.57334 0.711106,-0.85332 1.564439,-1.36888 2.56,-1.54666 1.031103,-0.17777 2.062213,-0.0355 3.093333,0.42666 1.066656,0.46223 1.937766,1.17334 2.613333,2.13334 0.675543,0.96 1.49332,1.68889 2.453334,2.18666 0.959984,0.49779 1.759983,0.74667 2.4,0.74667 1.137759,0 2.097758,-0.24888 2.88,-0.74667 0.782201,-0.49777 1.368867,-1.10221 1.76,-1.81333 0.426644,-0.7111 0.675533,-1.49333 0.746666,-2.34667 0.07109,-0.88888 -0.05335,-1.70665 -0.373333,-2.45333 -0.284466,-0.78221 -0.782244,-1.43999 -1.493333,-1.97333 -0.675576,-0.56888 -1.546686,-0.92443 -2.613334,-1.06667 -0.782239,-0.10665 -1.297794,-0.24887 -1.546666,-0.42667 -0.248905,-0.17776 -0.37335,-0.47998 -0.373334,-0.90666 -1.6e-5,-0.35554 0.124429,-0.63999 0.373334,-0.85334 0.284427,-0.21331 0.693316,-0.3022 1.226666,-0.26666" />
      <path
         id="path3076"
         style="font-variant:normal;font-stretch:normal;font-family:Ramaraja;-inkscape-font-specification:Ramaraja"
         d="m 71.586745,600.60821 c 0.53333,0.60445 1.084441,1.28 1.653333,2.02667 0.568884,0.71111 1.048884,1.44 1.44,2.18667 0.391105,0.78222 0.657772,1.61777 0.8,2.50666 0.177771,0.92444 0.10666,1.90222 -0.213333,2.93334 -0.248895,0.81777 -0.586672,1.52888 -1.013334,2.13333 -0.391115,0.63999 -1.048893,1.11999 -1.973333,1.44 -0.675558,0.28443 -1.386668,0.30221 -2.133333,0.0533 -0.746667,-0.2489 -1.368889,-0.7289 -1.866667,-1.44 -0.319999,0.53333 -0.728887,0.94221 -1.226667,1.22667 -0.497775,0.31999 -1.084441,0.47999 -1.76,0.48 -0.853328,-10e-6 -1.528883,-0.32001 -2.026666,-0.96 -0.533327,-0.64001 -0.799994,-1.44001 -0.8,-2.4 6e-6,-0.81778 0.266673,-1.47556 0.8,-1.97333 0.497783,-0.46223 1.066671,-0.76445 1.706666,-0.90667 0.604448,-0.10667 1.22667,-0.0533 1.866667,0.16 0.640002,0.24888 1.084446,0.65777 1.333333,1.22667 0.391112,1.20888 1.208889,1.81332 2.453334,1.81333 0.78222,-1e-5 1.439997,-0.33779 1.973333,-1.01333 0.533329,-0.67557 0.799996,-1.40445 0.8,-2.18667 -4e-6,-0.46223 -0.03556,-0.90667 -0.106667,-1.33333 -0.07112,-0.42667 -0.231115,-0.8889 -0.48,-1.38667 -0.213336,-0.46222 -0.533336,-1.01333 -0.96,-1.65333 -0.391113,-0.64 -0.960001,-1.40445 -1.706666,-2.29334 -0.924445,-1.03111 -1.582222,-2.20444 -1.973334,-3.52 -0.426665,-1.3511 -0.604442,-2.68443 -0.533333,-4 0.106668,-1.42221 0.533334,-2.59554 1.28,-3.52 0.711111,-0.95998 1.813332,-1.43998 3.306667,-1.44 1.24444,2e-5 2.257772,0.46224 3.04,1.38667 0.782215,0.8889 1.173326,1.93779 1.173333,3.14667 -7e-6,0.96001 -0.302229,1.79556 -0.906667,2.50666 -0.60445,0.67557 -1.404449,1.01334 -2.4,1.01334 -0.462225,0.10667 -0.906669,0.0711 -1.333333,-0.10667 -0.391113,-0.21333 -0.586669,-0.60444 -0.586667,-1.17333 -2e-6,-0.39111 0.195554,-0.67555 0.586667,-0.85334 0.391108,-0.17777 0.746663,-0.26665 1.066667,-0.26666 0.639995,10e-6 1.084439,-0.21333 1.333333,-0.64 0.284439,-0.42666 0.391106,-0.94222 0.32,-1.54667 -0.03556,-0.60443 -0.248894,-1.08443 -0.64,-1.44 -0.391115,-0.3911 -0.888893,-0.58665 -1.493333,-0.58667 -1.208891,2e-5 -2.062224,0.37335 -2.56,1.12 -0.497778,0.74668 -0.746667,1.60001 -0.746667,2.56 0,1.56446 0.266667,2.88001 0.8,3.94667 0.533332,1.03112 1.10222,1.95556 1.706667,2.77333 m -4.586667,9.6 c -0.213331,-0.28445 -0.46222,-0.51556 -0.746667,-0.69333 -0.319996,-0.14223 -0.604441,-0.21334 -0.853333,-0.21333 -0.28444,-10e-6 -0.515551,0.0889 -0.693333,0.26666 -0.213329,0.17777 -0.319996,0.39111 -0.32,0.64 4e-6,0.42666 0.124449,0.69333 0.373333,0.8 0.213338,0.14222 0.497782,0.19555 0.853333,0.16 0.320004,-10e-6 0.622226,-0.10667 0.906667,-0.32 0.248891,-0.17778 0.408891,-0.39112 0.48,-0.64" />
      <path
         id="path3078"
         style="font-variant:normal;font-stretch:normal;font-family:Ramaraja;-inkscape-font-specification:Ramaraja"
         d="m 109.75195,589.99488 c 0.10664,1.45779 -0.19558,2.56001 -0.90666,3.30667 -0.67559,0.71112 -1.47559,1.10223 -2.4,1.17333 -1.0667,0.0711 -1.88447,-0.10666 -2.45334,-0.53333 -0.53336,-0.42666 -0.90669,-0.94222 -1.12,-1.54667 -0.21336,-0.60443 -0.28447,-1.17332 -0.21333,-1.70667 0.0711,-0.56887 0.19553,-0.95998 0.37333,-1.17333 H 86.65862 c -0.355564,1e-5 -0.728897,-0.14221 -1.12,-0.42667 -0.355563,-0.31998 -0.533341,-0.76443 -0.533334,-1.33333 -7e-6,-0.81776 0.142215,-1.38665 0.426667,-1.70667 0.319992,-0.31998 0.942214,-0.47998 1.866667,-0.48 l 15.89333,-0.0533 c 0.7822,2e-5 1.54664,0.0711 2.29334,0.21333 0.78219,0.14224 1.47552,0.37335 2.08,0.69334 0.60441,0.32001 1.10219,0.78223 1.49333,1.38666 0.39108,0.60446 0.62219,1.33335 0.69333,2.18667 m -2.18666,1.12 c -3e-5,-0.49777 -0.17781,-0.88888 -0.53334,-1.17333 -0.35558,-0.31999 -0.76447,-0.47999 -1.22666,-0.48 -0.4267,10e-6 -0.81781,0.12445 -1.17334,0.37333 -0.35558,0.2489 -0.53336,0.67557 -0.53333,1.28 -3e-5,0.46223 0.15997,0.83557 0.48,1.12 0.35553,0.2489 0.74664,0.39112 1.17333,0.42667 0.4622,1e-5 0.87109,-0.10666 1.22667,-0.32 0.39108,-0.24888 0.58664,-0.65777 0.58667,-1.22667 m -8.480004,-0.58667 c 1.173314,0.99557 1.991084,2.25779 2.453334,3.78667 0.49775,1.5289 0.60442,3.02223 0.32,4.48 -0.28447,1.42222 -0.94225,2.64889 -1.973334,3.68 -1.031132,1.03111 -2.47113,1.54667 -4.32,1.54667 -1.031127,0 -2.008904,-0.23112 -2.933333,-0.69334 -0.924458,-0.46222 -1.635569,-1.20888 -2.133333,-2.24 -1.066679,1.95556 -2.613344,2.93334 -4.64,2.93334 -1.635562,0 -2.880005,-0.42667 -3.733334,-1.28 -0.853336,-0.85334 -1.351114,-1.84889 -1.493333,-2.98667 -0.142225,-1.17333 0.07111,-2.36444 0.64,-3.57333 0.60444,-1.20888 1.528884,-2.16888 2.773333,-2.88 -0.426672,0.17778 -0.99556,0.42667 -1.706666,0.74666 -0.67556,0.28446 -1.351115,0.49779 -2.026667,0.64 -0.640002,0.10668 -1.226668,0.0711 -1.76,-0.10666 -0.497778,-0.17777 -0.746667,-0.65777 -0.746667,-1.44 0,-1.3511 0.711111,-2.02666 2.133334,-2.02667 h 6.72 v 1.6 c -0.497786,0.39112 -1.013341,0.80001 -1.546667,1.22667 -0.53334,0.42667 -0.960006,0.92445 -1.28,1.49333 -0.462228,0.8889 -0.497783,1.72445 -0.106667,2.50667 0.426661,0.78222 1.173327,1.17333 2.24,1.17333 1.066658,0 1.955546,-0.37333 2.666667,-1.12 0.746655,-0.74666 1.137766,-1.56444 1.173333,-2.45333 -1.2e-5,-0.53333 0.231099,-0.8 0.693334,-0.8 0.462209,-0.0355 0.728875,0.23112 0.8,0.8 0.355541,0.88889 0.888874,1.70667 1.6,2.45333 0.711095,0.74667 1.564428,1.12 2.56,1.12 1.20887,0 2.115536,-0.26666 2.72,-0.8 0.639979,-0.53333 1.013312,-1.17333 1.12,-1.92 0.1422,-0.78222 0.05331,-1.59999 -0.266667,-2.45333 -0.284465,-0.85333 -0.782243,-1.63555 -1.493333,-2.34667 -0.497797,-0.49777 -1.120019,-0.88888 -1.866667,-1.17333 -0.711128,-0.31999 -1.440016,-0.5511 -2.186667,-0.69334 -0.746681,-0.14221 -1.457792,-0.21332 -2.133333,-0.21333 -0.675568,10e-6 -1.173346,10e-6 -1.493333,0 -0.17779,10e-6 -0.320012,-0.0178 -0.426667,-0.0533 -0.177789,1e-5 -0.337789,-0.28443 -0.48,-0.85334 -0.142233,-0.31998 0.355544,-0.47998 1.493333,-0.48 1.777764,2e-5 3.413318,0.19557 4.906667,0.58667 1.52887,0.35557 2.773313,0.96001 3.733333,1.81333" />
      <path
         id="path3080"
         style="font-variant:normal;font-stretch:normal;font-family:Ramaraja;-inkscape-font-specification:Ramaraja"
         d="m 112.94424,613.19488 c 0.14223,0.14221 0.28445,0.3911 0.42667,0.74667 0.17778,0.35554 0.28444,0.69332 0.32,1.01333 0.0356,0.35554 0,0.65776 -0.10667,0.90667 -0.10666,0.28443 -0.37333,0.42665 -0.8,0.42666 -0.46222,-1e-5 -0.72888,-0.14223 -0.8,-0.42666 -0.10666,-0.24891 -0.10666,-0.55113 0,-0.90667 0.0711,-0.32001 0.21334,-0.64001 0.42667,-0.96 0.21333,-0.32001 0.39111,-0.58668 0.53333,-0.8 m 9.33334,-10.45333 c 0.0711,2.34666 -0.14223,4.49777 -0.64,6.45333 -0.8889,3.55555 -2.57779,5.33332 -5.06667,5.33333 -0.99556,0.0356 -1.79556,-0.12445 -2.4,-0.48 -0.60444,-0.32001 -1.01333,-0.76445 -1.22667,-1.33333 -0.21333,0.53332 -0.65777,0.95999 -1.33333,1.28 -0.67555,0.35554 -1.38666,0.53332 -2.13333,0.53333 -1.42222,0.0356 -2.4,-0.32001 -2.93334,-1.06666 -0.3911,-0.5689 -0.58666,-1.22668 -0.58666,-1.97334 -0.0355,-0.74667 0.0711,-1.38667 0.32,-1.92 0.24889,-0.49778 0.55111,-0.87111 0.90666,-1.12 0.32001,-0.21334 0.60445,-0.37334 0.85334,-0.48 -0.0711,0.0356 -0.23111,0.0711 -0.48,0.10667 -0.28444,0.0355 -0.58666,0.0889 -0.90667,0.16 -0.31999,0.0711 -0.58666,0.10666 -0.8,0.10667 -0.21332,0.0356 -0.33777,0.0533 -0.37333,0.0533 -0.42666,-10e-6 -0.63999,-0.37334 -0.64,-1.12 1e-5,-0.85334 0.37334,-1.28 1.12,-1.28 0.28445,0 0.72889,0.0711 1.33333,0.21333 0.5689,0.17778 1.13778,0.37333 1.70667,0.58667 0.53333,0.21333 1.01333,0.46222 1.44,0.74667 0.42667,0.31999 0.64,0.60444 0.64,0.85333 0,0.28444 -0.40889,0.44444 -1.22667,0.48 -1.17333,0.10666 -1.79555,0.60444 -1.86667,1.49333 1e-5,0.71111 0.62223,1.06666 1.86667,1.06667 0.71111,0.0355 1.35111,-0.10668 1.92,-0.42667 0.53334,-0.32 0.88889,-0.83556 1.06667,-1.54666 h 0.64 c 0.35555,1.31554 1.24444,1.97332 2.66666,1.97333 0.88889,-10e-6 1.6,-0.33779 2.13334,-1.01333 0.56888,-0.67557 1.01332,-1.5289 1.33333,-2.56 0.35555,-1.03112 0.58666,-2.06223 0.69333,-3.09334 0.10666,-0.99555 0.16,-1.83111 0.16,-2.50666 0,-1.49333 -0.17778,-2.86222 -0.53333,-4.10667 -0.32001,-1.24444 -0.81778,-2.41777 -1.49333,-3.52 -0.67556,-1.10221 -1.5289,-1.9911 -2.56,-2.66667 -0.99556,-0.67554 -1.99111,-1.01332 -2.98667,-1.01333 -1.13778,1e-5 -1.70666,-0.31999 -1.70667,-0.96 1e-5,-0.85332 0.56889,-1.27999 1.70667,-1.28 1.52889,1e-5 2.91555,0.48001 4.16,1.44 1.24444,0.92446 2.25777,2.11557 3.04,3.57333 0.81777,1.45779 1.38666,2.88001 1.70667,4.26667 0.31999,1.38667 0.47999,2.96889 0.48,4.74667" />
      <path
         id="path3082"
         style="font-variant:normal;font-stretch:normal;font-family:Ramaraja;-inkscape-font-specification:Ramaraja"
         d="m 155.01674,593.99488 c -2e-5,2.70223 -0.53335,4.90667 -1.6,6.61333 -1.35113,2.27556 -3.23557,3.41334 -5.65333,3.41334 -2.38223,0 -4.17779,-0.97778 -5.38667,-2.93334 -0.49778,0.88889 -1.13778,1.6 -1.92,2.13334 -0.78222,0.53333 -1.70667,0.8 -2.77333,0.8 -1.35111,0 -2.48889,-0.53334 -3.41333,-1.6 -0.92445,-1.06667 -1.38667,-2.29333 -1.38667,-3.68 0,-1.31555 0.44445,-2.41777 1.33333,-3.30667 0.92445,-0.88888 2.04445,-1.33332 3.36,-1.33333 1.49333,10e-6 2.61333,0.33778 3.36,1.01333 0.78222,0.64001 1.42222,1.38667 1.92,2.24 1.06666,0.78223 2.23999,1.17334 3.52,1.17333 1.9911,1e-5 3.57332,-0.65777 4.74667,-1.97333 1.20887,-1.31555 1.81331,-2.93332 1.81333,-4.85333 -2e-5,-2.73777 -0.87113,-4.92443 -2.61333,-6.56 -1.74224,-1.63554 -4.00001,-2.55998 -6.77333,-2.77334 0.31999,1.03113 0.35554,1.90224 0.10666,2.61334 -0.24889,0.71112 -0.67556,1.26224 -1.28,1.65333 -0.60445,0.39113 -1.33334,0.62224 -2.18666,0.69333 -0.81779,0.0711 -1.58223,-0.0178 -2.29334,-0.26666 -0.99555,-0.42665 -1.65333,-1.04888 -1.97333,-1.86667 -0.32,-0.81776 -0.33778,-1.63554 -0.0533,-2.45333 0.31999,-0.81776 0.94222,-1.52887 1.86666,-2.13334 0.96,-0.60442 2.20444,-0.90664 3.73334,-0.90666 2.13332,0.0356 4.03554,0.42669 5.70666,1.17333 1.6711,0.74669 3.07554,1.76002 4.21334,3.04 1.17331,1.24446 2.0622,2.73779 2.66666,4.48 0.63998,1.74223 0.95998,3.6089 0.96,5.6 m -12.85333,-10.13333 c -1e-5,-0.46221 -0.10667,-0.97776 -0.32,-1.54667 -0.78223,-0.31998 -1.47556,-0.23109 -2.08,0.26667 -0.56889,0.46224 -0.90667,1.03113 -1.01333,1.70666 -0.0711,0.64002 0.15999,1.08447 0.69333,1.33334 0.56888,0.2489 1.10222,0.26668 1.6,0.0533 0.67555,-0.28443 1.04888,-0.88887 1.12,-1.81333 m -1.6,13.38666 c -0.49778,-1.17332 -1.45778,-1.74221 -2.88,-1.70666 -0.85334,0 -1.47556,0.19556 -1.86667,0.58666 -0.39111,0.35557 -0.58666,0.74668 -0.58666,1.17334 0,0.42667 0.19555,0.81778 0.58666,1.17333 0.39111,0.32 0.97778,0.48 1.76,0.48 0.67555,0 1.31555,-0.16 1.92,-0.48 0.64,-0.32 0.99555,-0.72888 1.06667,-1.22667" />
      <path
         id="path3084"
         style="font-variant:normal;font-stretch:normal;font-family:Ramaraja;-inkscape-font-specification:Ramaraja"
         d="m 188.58237,589.99488 c 0.0711,1.45779 -0.24892,2.56001 -0.96,3.30667 -0.67559,0.71112 -1.47558,1.10223 -2.4,1.17333 -1.06669,0.0711 -1.88447,-0.10666 -2.45333,-0.53333 -0.53336,-0.42666 -0.90669,-0.94222 -1.12,-1.54667 -0.17781,-0.60443 -0.24892,-1.17332 -0.21334,-1.70667 0.0711,-0.56887 0.21331,-0.95998 0.42667,-1.17333 h -10.13333 c -0.39113,1e-5 -0.76446,-0.14221 -1.12,-0.42667 -0.35557,-0.31998 -0.53335,-0.76443 -0.53334,-1.33333 -1e-5,-0.81776 0.14221,-1.38665 0.42667,-1.70667 0.31999,-0.31998 0.94221,-0.47998 1.86667,-0.48 l 9.6,-0.0533 c 0.78219,2e-5 1.54664,0.0711 2.29333,0.21333 0.78219,0.14224 1.47553,0.37335 2.08,0.69334 0.60441,0.32001 1.10219,0.78223 1.49333,1.38666 0.39108,0.60446 0.63997,1.33335 0.74667,2.18667 m -2.24,1.12 c -3e-5,-0.49777 -0.17781,-0.88888 -0.53333,-1.17333 -0.32003,-0.31999 -0.71114,-0.47999 -1.17334,-0.48 -0.42669,10e-6 -0.83558,0.12445 -1.22666,0.37333 -0.35558,0.2489 -0.53336,0.67557 -0.53334,1.28 -2e-5,0.46223 0.17776,0.83557 0.53334,1.12 0.35553,0.2489 0.74664,0.39112 1.17333,0.42667 0.42664,1e-5 0.81775,-0.10666 1.17333,-0.32 0.39109,-0.24888 0.58664,-0.65777 0.58667,-1.22667 m -7.57333,4.10667 c 0.56886,0.74667 0.88886,1.61778 0.96,2.61333 0.0711,0.99556 -0.12447,1.95556 -0.58667,2.88 -0.42669,0.92445 -1.08447,1.70667 -1.97333,2.34667 -0.85336,0.64 -1.9378,0.96 -3.25334,0.96 -0.78223,0 -1.44001,-0.0711 -1.97333,-0.21334 -0.53335,-0.17778 -0.97779,-0.40889 -1.33333,-0.69333 -0.35557,-0.28444 -0.67557,-0.58667 -0.96,-0.90667 -0.28446,-0.32 -0.5689,-0.64 -0.85334,-0.96 -0.49779,0.78223 -1.15556,1.44 -1.97333,1.97334 -0.81779,0.53333 -2.04445,0.8 -3.68,0.8 -1.77778,0 -3.14667,-0.46223 -4.10667,-1.38667 -0.92444,-0.92444 -1.38666,-2.25778 -1.38666,-4 0,-1.03111 0.19555,-1.84888 0.58666,-2.45333 0.39111,-0.60444 0.90667,-1.06666 1.54667,-1.38667 0.64,-0.35555 1.35111,-0.63999 2.13333,-0.85333 0.81778,-0.24888 1.63555,-0.51555 2.45334,-0.8 0.95999,-0.31999 1.59999,-0.7111 1.92,-1.17334 0.35554,-0.46221 0.46221,-0.8711 0.32,-1.22666 -0.14223,-0.3911 -0.49779,-0.72888 -1.06667,-1.01334 -0.53334,-0.28443 -1.2089,-0.42665 -2.02667,-0.42666 -0.78222,1e-5 -1.58222,0.19557 -2.4,0.58666 -0.81778,0.35557 -1.29778,0.97779 -1.44,1.86667 -0.21333,0.74668 -0.56889,1.12001 -1.06666,1.12 -0.64,10e-6 -0.96,-0.5511 -0.96,-1.65333 0,-1.45777 0.55111,-2.57777 1.65333,-3.36 1.10222,-0.81777 2.4,-1.22665 3.89333,-1.22667 1.49333,2e-5 2.63111,0.28446 3.41334,0.85333 0.78221,0.56891 1.5111,1.38668 2.18666,2.45334 0.53332,0.78223 1.1911,1.38667 1.97334,1.81333 0.81776,0.42668 1.59998,0.71112 2.34666,0.85333 0.78221,0.10668 1.45776,0.0711 2.02667,-0.10666 0.56887,-0.17777 0.90665,-0.47999 1.01333,-0.90667 0.10665,-0.46221 -0.0356,-0.92443 -0.42666,-1.38667 -0.39113,-0.46221 -1.04891,-0.69332 -1.97334,-0.69333 -0.74668,10e-6 -1.28001,-0.0178 -1.6,-0.0533 -0.32001,-0.0355 -0.53334,-0.24888 -0.64,-0.64 -0.10668,-0.3911 0.0355,-0.63999 0.42667,-0.74667 0.3911,-0.10665 0.8711,-0.10665 1.44,0 1.67109,0.14224 2.91554,0.60446 3.73333,1.38667 0.85332,0.74668 1.29776,1.54668 1.33334,2.4 0.0355,0.81778 -0.26669,1.58223 -0.90667,2.29333 -0.64002,0.67556 -1.6178,1.01334 -2.93333,1.01333 -1.03113,0.0356 -2.11557,-0.17777 -3.25334,-0.64 -1.13779,-0.49777 -2.1689,-1.40443 -3.09333,-2.72 -0.17779,0.92446 -0.69334,1.56446 -1.54667,1.92 -0.81778,0.35557 -1.70667,0.65779 -2.66666,0.90667 -0.92445,0.21334 -1.77779,0.48001 -2.56,0.8 -0.74667,0.32001 -1.12001,0.8889 -1.12,1.70667 -1e-5,0.71111 0.30222,1.22667 0.90666,1.54666 0.64,0.28445 1.29778,0.42667 1.97334,0.42667 1.06666,0 2.07999,-0.24888 3.04,-0.74667 0.99554,-0.49777 1.59999,-1.22666 1.81333,-2.18666 0.24888,-0.92444 0.56888,-1.31555 0.96,-1.17334 0.42665,0.10668 0.69332,0.49779 0.8,1.17334 0.14221,1.03111 0.63999,1.77778 1.49333,2.24 0.88888,0.46222 1.74221,0.69333 2.56,0.69333 0.56888,0 1.08443,-0.0711 1.54667,-0.21333 0.49776,-0.17778 0.92443,-0.42667 1.28,-0.74667 0.35554,-0.35555 0.58665,-0.76444 0.69333,-1.22667 0.10665,-0.46221 0.0533,-0.95999 -0.16,-1.49333 l 1.49334,-0.21333" />
      <path
         id="path3086"
         style="font-variant:normal;font-stretch:normal;font-family:Ramaraja;-inkscape-font-specification:Ramaraja"
         d="m 175.08855,610.10323 c -0.10666,1.06666 -0.5511,2.20444 -1.33333,3.41333 0.96001,1.31555 1.44001,2.18666 1.44,2.61334 1e-5,0.60443 -0.35555,0.90665 -1.06667,0.90666 -0.31999,-10e-6 -0.5511,-0.0889 -0.69333,-0.26666 -0.14222,-0.17779 -0.24888,-0.4089 -0.32,-0.69334 -0.0711,-0.28445 -0.12444,-0.58667 -0.16,-0.90666 -0.0711,-0.28446 -0.14221,-0.53335 -0.21334,-0.74667 -1.49332,1.31555 -3.32443,1.97332 -5.49333,1.97333 -0.95998,-10e-6 -1.84887,-0.28445 -2.66667,-0.85333 -0.81775,-0.53334 -1.22664,-1.26223 -1.22666,-2.18667 2e-5,-1.92 1.51113,-2.88 4.53333,-2.88 1.5289,0 3.00446,0.51555 4.42667,1.54667 1.10223,-0.64001 1.65334,-1.36889 1.65333,-2.18667 1e-5,-0.60444 -0.24888,-1.06667 -0.74667,-1.38666 -0.53332,-0.32001 -1.08443,-0.48001 -1.65333,-0.48 -0.46221,-1e-5 -0.97776,0.14222 -1.54667,0.42666 -0.35554,0.10667 -0.58665,0.24889 -0.69333,0.42667 -0.14221,0.17777 -0.26665,0.37333 -0.37333,0.58667 -0.0711,0.35555 -0.19554,0.53333 -0.37334,0.53333 -0.24887,0 -0.39109,-0.16 -0.42666,-0.48 -0.0355,-0.35556 -0.21332,-0.72889 -0.53334,-1.12 -0.35554,-0.35556 -0.92442,-0.48 -1.70666,-0.37333 -1.59998,-1e-5 -2.43554,0.42666 -2.50667,1.28 2e-5,0.28444 -0.0355,0.46221 -0.10667,0.53333 -0.10664,0.0711 -0.26664,0.10666 -0.48,0.10667 -0.31998,-10e-6 -0.47998,-0.39112 -0.48,-1.17334 2e-5,-0.81778 0.32002,-1.56444 0.96,-2.24 0.60447,-0.64 1.31558,-0.96 2.13334,-0.96 1.17335,0 2.24001,0.58667 3.2,1.76 0.5689,-1.17333 1.65334,-1.76 3.25333,-1.76 1.74223,0 2.79112,0.97778 3.14667,2.93334 h 1.97333 c -0.14222,-0.28445 -0.26666,-0.58667 -0.37333,-0.90667 -0.10666,-0.32 -0.17777,-0.55111 -0.21334,-0.69333 -0.24888,-0.81778 0.14223,-1.22667 1.17334,-1.22667 0.96,0 1.31556,0.40889 1.06666,1.22667 1e-5,0.10666 -0.0533,0.30222 -0.16,0.58666 -0.14221,0.28445 -0.33777,0.62222 -0.58666,1.01334 h 1.44 c 0.42667,-10e-6 0.64,0.26666 0.64,0.8 0,0.56888 -0.21333,0.85333 -0.64,0.85333 h -4.26667 m -3.84,2.56 c -0.95999,-0.81778 -2.1511,-1.22667 -3.57333,-1.22667 -1.70665,0 -2.55998,0.30222 -2.56,0.90667 2e-5,0.53333 0.87113,0.79999 2.61333,0.8 1.56446,-10e-6 2.73779,-0.16001 3.52,-0.48" />
      <path
         id="path3088"
         style="font-variant:normal;font-stretch:normal;font-family:Ramaraja;-inkscape-font-specification:Ramaraja"
         d="m 209.66383,581.19488 c -1.38669,0.92447 -2.79113,1.88446 -4.21334,2.88 -1.42223,0.96002 -2.86223,1.84891 -4.32,2.66667 -0.24889,0.10668 -0.46223,0.23112 -0.64,0.37333 -0.17778,0.14224 -0.39111,0.2489 -0.64,0.32 -0.14223,0.10668 -0.37334,0.14224 -0.69333,0.10667 -0.32001,-0.0711 -0.55112,-0.14221 -0.69333,-0.21334 -0.49779,-0.17776 -1.08445,-0.39109 -1.76,-0.64 -0.67556,-0.28442 -1.31556,-0.58665 -1.92,-0.90666 -0.60445,-0.35554 -1.12,-0.74665 -1.54667,-1.17334 -0.42667,-0.42664 -0.64,-0.88887 -0.64,-1.38666 0,-0.56887 0.21333,-1.06665 0.64,-1.49334 0.42667,-0.42664 0.97778,-0.60442 1.65333,-0.53333 0.49778,0.0711 0.94222,0.26669 1.33334,0.58667 0.42666,0.32002 0.81777,0.71113 1.17333,1.17333 0.39111,0.42669 0.72888,0.85335 1.01333,1.28 0.32,0.42668 0.62222,0.80002 0.90667,1.12 0.78222,-0.67554 1.49333,-1.31554 2.13333,-1.92 0.63999,-0.63998 1.27999,-1.2622 1.92,-1.86667 0.67555,-0.60442 1.3511,-1.22664 2.02667,-1.86666 0.7111,-0.63998 1.49332,-1.36887 2.34667,-2.18667 0.67554,-0.56886 1.29776,-0.79997 1.86666,-0.69333 0.60443,0.0711 1.10221,0.30224 1.49334,0.69333 0.53331,0.74669 0.58664,1.42225 0.16,2.02667 -0.39113,0.60446 -0.92447,1.15557 -1.6,1.65333 m -6.93334,4.96 c 1.84888,0.0711 3.48443,0.44446 4.90667,1.12 1.45776,0.64001 2.61332,1.51113 3.46667,2.61333 0.88887,1.06668 1.43998,2.38224 1.65333,3.94667 0.24887,1.5289 0.0711,3.23556 -0.53333,5.12 -0.46224,1.42222 -1.19113,2.63111 -2.18667,3.62667 -0.99557,0.96 -2.24001,1.44 -3.73333,1.44 -1.2089,0 -2.18668,-0.24889 -2.93334,-0.74667 -0.71112,-0.53333 -1.33334,-1.13778 -1.86666,-1.81333 -0.32001,-0.46222 -0.69334,-1.10222 -1.12,-1.92 -0.42668,-0.81778 -0.92445,-1.56444 -1.49334,-2.24 -0.56889,-0.71111 -1.17333,-1.26222 -1.81333,-1.65334 -0.64,-0.3911 -1.33334,-0.3911 -2.08,0 -0.60445,0.32001 -0.92445,0.8889 -0.96,1.70667 0,0.78223 0.46222,1.56445 1.38667,2.34667 0.60444,0.53333 1.1911,1.01333 1.76,1.44 0.56888,0.39111 0.74666,0.96 0.53333,1.70666 -0.24889,0.64 -0.71112,1.01334 -1.38667,1.12 -0.64,0.0711 -1.33333,-0.0711 -2.08,-0.42666 -0.71111,-0.35556 -1.35111,-0.94223 -1.92,-1.76 -0.56888,-0.81778 -0.85333,-1.77778 -0.85333,-2.88 0,-1.35111 0.26667,-2.38222 0.8,-3.09334 0.56889,-0.74666 1.28,-1.26221 2.13333,-1.54666 1.03111,-0.31999 2.11556,-0.26666 3.25334,0.16 1.13777,0.39112 2.13332,0.99556 2.98666,1.81333 1.03111,1.13778 1.91999,1.90223 2.66667,2.29333 0.78221,0.39112 1.59999,0.55112 2.45333,0.48 1.31554,-0.0355 2.36443,-0.47999 3.14667,-1.33333 0.81776,-0.85333 1.27998,-1.84888 1.38667,-2.98667 0.1422,-1.17332 -0.0711,-2.32888 -0.64,-3.46666 -0.56891,-1.13777 -1.52891,-1.97332 -2.88,-2.50667 -0.92446,-0.42665 -1.95557,-0.7111 -3.09334,-0.85333 -1.10223,-0.14221 -2.18667,-0.2311 -3.25333,-0.26667 -0.39112,-0.0355 -0.74667,-0.0533 -1.06667,-0.0533 -0.32,1e-5 -0.58667,-0.0533 -0.8,-0.16 -0.42667,-0.17777 -0.60445,-0.33777 -0.53333,-0.48 0.10666,-0.17777 0.30222,-0.33776 0.58667,-0.48 0.28444,-0.14221 0.58666,-0.24888 0.90666,-0.32 0.35555,-0.0711 0.60444,-0.10665 0.74667,-0.10667 0.46221,2e-5 0.88888,0.0178 1.28,0.0533 0.3911,2e-5 0.78221,0.0356 1.17333,0.10667" />
      <path
         id="path3090"
         style="font-variant:normal;font-stretch:normal;font-family:Ramaraja;-inkscape-font-specification:Ramaraja"
         d="m 242.24945,581.51488 c -1.5289,1.03113 -3.07557,2.04446 -4.64,3.04 -1.5289,0.99557 -3.09334,1.93779 -4.69333,2.82667 -0.71112,0.35557 -1.26223,0.51557 -1.65333,0.48 -0.35557,-0.0711 -0.7289,-0.2311 -1.12,-0.48 -0.46223,-0.28443 -0.99556,-0.5511 -1.6,-0.8 -0.5689,-0.28443 -1.10223,-0.56888 -1.6,-0.85334 -0.46223,-0.31998 -0.87112,-0.65776 -1.22667,-1.01333 -0.35556,-0.35554 -0.53334,-0.72887 -0.53333,-1.12 -1e-5,-0.56887 0.21333,-1.08442 0.64,-1.54667 0.46222,-0.4622 1.01333,-0.63998 1.65333,-0.53333 0.49777,0.0711 0.96,0.26669 1.38667,0.58667 0.42666,0.32002 0.79999,0.69335 1.12,1.12 0.35555,0.42668 0.67555,0.87113 0.96,1.33333 0.31999,0.46224 0.62221,0.85335 0.90666,1.17333 0.78222,-0.74665 1.5111,-1.4222 2.18667,-2.02666 0.67554,-0.63998 1.31554,-1.26221 1.92,-1.86667 0.63999,-0.60442 1.29776,-1.20887 1.97333,-1.81333 0.7111,-0.63998 1.5111,-1.35109 2.4,-2.13334 0.63999,-0.63997 1.26221,-0.90664 1.86667,-0.8 0.63998,0.0711 1.11998,0.33781 1.44,0.8 0.56887,0.74669 0.65776,1.42225 0.26667,2.02667 -0.39113,0.60447 -0.94225,1.1378 -1.65334,1.6 m 2.93334,14.34667 c -3e-5,2.24 -0.60447,4.10667 -1.81334,5.6 -1.2089,1.49333 -2.9689,2.34666 -5.28,2.56 -0.28446,0 -0.67557,-0.0356 -1.17333,-0.10667 -0.49779,-0.0711 -1.01335,-0.19556 -1.54667,-0.37333 -0.53334,-0.17778 -1.03112,-0.44445 -1.49333,-0.8 -0.46223,-0.39111 -0.78223,-0.88889 -0.96,-1.49334 -0.10668,0.56889 -0.33779,1.03111 -0.69333,1.38667 -0.35557,0.35556 -0.74668,0.64 -1.17334,0.85333 -0.42667,0.21334 -0.87111,0.35556 -1.33333,0.42667 -0.46223,0.0711 -0.88889,0.10667 -1.28,0.10667 -1.45778,-0.10667 -2.61334,-0.64 -3.46667,-1.6 -0.81778,-0.99556 -1.22666,-2.25778 -1.22666,-3.78667 0,-1.38666 0.42666,-2.48888 1.28,-3.30667 0.88888,-0.81777 2.02666,-1.22665 3.41333,-1.22666 1.20888,10e-6 2.22222,0.26667 3.04,0.8 0.85332,0.53334 1.43999,1.31556 1.76,2.34666 0.24888,0.67556 0.79999,1.13779 1.65333,1.38667 0.85332,0.24889 1.68888,0.37334 2.50667,0.37333 0.74665,1e-5 1.47554,-0.0889 2.18667,-0.26666 0.71109,-0.21333 1.33331,-0.53333 1.86666,-0.96 0.53332,-0.42666 0.94221,-0.92444 1.22667,-1.49334 0.28442,-0.60443 0.39109,-1.31554 0.32,-2.13333 -0.0711,-0.95999 -0.44446,-1.8311 -1.12,-2.61333 -0.64002,-0.78221 -1.47557,-1.43999 -2.50667,-1.97334 -1.03112,-0.56887 -2.22223,-0.99554 -3.57333,-1.28 -1.35112,-0.31998 -2.75557,-0.47998 -4.21333,-0.48 -0.42668,2e-5 -0.64001,-0.0533 -0.64,-0.16 -1e-5,-0.1422 0.0533,-0.31998 0.16,-0.53333 0.0711,-0.24887 0.49777,-0.37332 1.28,-0.37333 2.45332,1e-5 4.49776,0.19557 6.13333,0.58666 1.67109,0.39113 2.98665,0.9778 3.94667,1.76 0.95998,0.74668 1.65331,1.6889 2.08,2.82667 0.42664,1.13779 0.63997,2.45334 0.64,3.94667 m -16.64,3.25333 c 0.95999,0 1.63555,-0.17777 2.02666,-0.53333 0.42666,-0.39111 0.62222,-0.8 0.58667,-1.22667 -0.0356,-0.46222 -0.30223,-0.8711 -0.8,-1.22667 -0.49778,-0.3911 -1.13778,-0.58666 -1.92,-0.58666 -0.78223,0 -1.38667,0.19556 -1.81333,0.58666 -0.42667,0.35557 -0.65778,0.76445 -0.69334,1.22667 -0.0356,0.42667 0.16,0.83556 0.58667,1.22667 0.42666,0.35556 1.10222,0.53333 2.02667,0.53333 m 52.90666,-8.69333 c 0.0355,1.38667 -0.32005,2.4889 -1.06666,3.30666 -0.74673,0.81779 -1.68895,1.22668 -2.82667,1.22667 -0.71116,10e-6 -1.35116,-0.15999 -1.92,-0.48 -0.53338,-0.31999 -0.96005,-0.72888 -1.28,-1.22667 -0.32005,-0.49776 -0.48005,-1.04887 -0.48,-1.65333 0.0355,-0.60443 0.30217,-1.17332 0.8,-1.70667 h -11.89333 c -0.49782,2e-5 -0.81782,-0.12443 -0.96,-0.37333 -0.14226,-0.24888 -0.21337,-0.63999 -0.21334,-1.17333 -3e-5,-0.74665 0.0889,-1.20888 0.26667,-1.38667 0.17774,-0.17776 0.65774,-0.26665 1.44,-0.26667 h 12.42667 c 3.69772,2e-5 5.59994,1.24446 5.70666,3.73334 m -2.18666,1.28 c -0.0712,-1.06666 -0.90672,-1.68888 -2.50667,-1.86667 -0.46228,0.32001 -0.74672,0.65779 -0.85333,1.01333 -0.0712,0.32001 -0.10672,0.60446 -0.10667,0.85334 -5e-5,0.39112 0.17773,0.74667 0.53333,1.06666 0.35551,0.28446 0.72884,0.42668 1.12,0.42667 0.60439,10e-6 1.06661,-0.14221 1.38667,-0.42667 0.3555,-0.31999 0.49772,-0.67554 0.42667,-1.06666 m -6.77334,4.48 c -0.0356,1.10222 -0.24893,2.13333 -0.64,3.09333 -0.39116,0.92445 -0.92449,1.74222 -1.6,2.45333 -0.64004,0.71111 -1.44004,1.28 -2.4,1.70667 -0.92448,0.39111 -1.97337,0.58667 -3.14666,0.58667 -0.96004,0 -1.81338,-0.12445 -2.56,-0.37334 -0.74671,-0.28444 -1.40449,-0.64 -1.97334,-1.06666 -0.53337,-0.46222 -0.97781,-0.97778 -1.33333,-1.54667 -0.35559,-0.56889 -0.5867,-1.13777 -0.69333,-1.70667 -0.1067,-0.56888 -0.21337,-1.06666 -0.32,-1.49333 -0.1067,-0.46222 -0.19559,-0.88888 -0.26667,-1.28 0.17774,10e-6 0.3733,0.0356 0.58667,0.10667 0.2133,0.0711 0.44441,0.10667 0.69333,0.10666 0.28441,0.71112 0.87107,1.22667 1.76,1.54667 0.88885,0.28445 2.25774,0.42667 4.10667,0.42667 1.91995,0 3.37773,-0.39111 4.37333,-1.17334 1.03106,-0.81777 1.54662,-1.84888 1.54667,-3.09333 -5e-5,-0.63999 -0.0712,-1.22666 -0.21334,-1.76 -0.14227,-0.53332 -0.53338,-1.08443 -1.17333,-1.65333 -0.74671,-0.60444 -1.61782,-0.94221 -2.61333,-1.01334 -0.9956,-0.10665 -2.06227,-0.15998 -3.2,-0.16 -1.13782,2e-5 -1.70671,-0.24887 -1.70667,-0.74666 -4e-5,-0.85332 0.65774,-1.27999 1.97333,-1.28 1.63552,1e-5 3.05774,0.12446 4.26667,0.37333 1.20884,0.2489 2.27551,0.96001 3.2,2.13333 0.56884,0.81779 0.94217,1.70668 1.12,2.66667 0.17773,0.92445 0.24884,1.97334 0.21333,3.14667 m -13.6,-0.0533 c -0.0356,1.10223 -0.24892,2.13334 -0.64,3.09334 -0.39114,0.96 -0.94225,1.79555 -1.65333,2.50666 -0.67559,0.71111 -1.49336,1.28 -2.45333,1.70667 -0.92448,0.39111 -1.97337,0.58667 -3.14667,0.58667 -0.96003,0 -1.84891,-0.14223 -2.66667,-0.42667 -0.78224,-0.28444 -1.47558,-0.65778 -2.08,-1.12 -0.60446,-0.46222 -1.10224,-0.97778 -1.49333,-1.54667 -0.39113,-0.56888 -0.64002,-1.13777 -0.74667,-1.70666 -0.10668,-0.53333 -0.21335,-0.99555 -0.32,-1.38667 -0.0711,-0.39111 -0.14224,-0.78222 -0.21333,-1.17333 0.17776,0 0.42665,0.0178 0.74667,0.0533 0.31998,0.0356 0.60442,0.0533 0.85333,0.0533 0.28442,0.71112 0.87109,1.22667 1.76,1.54667 0.92442,0.28445 2.31109,0.42667 4.16,0.42667 1.91997,0 3.37775,-0.39111 4.37333,-1.17334 0.99553,-0.81777 1.4933,-1.84888 1.49334,-3.09333 -4e-5,-0.63999 -0.1067,-1.27999 -0.32,-1.92 -0.17781,-0.67554 -0.56892,-1.29777 -1.17334,-1.86667 -0.74669,-0.71109 -1.60003,-1.20887 -2.56,-1.49333 -0.92447,-0.28443 -1.95558,-0.42665 -3.09333,-0.42667 -1.10225,2e-5 -1.65336,-0.24887 -1.65333,-0.74666 -3e-5,-0.85332 0.65775,-1.27999 1.97333,-1.28 1.63553,10e-6 3.03997,0.32001 4.21333,0.96 1.20886,0.60446 2.27553,1.49334 3.2,2.66666 0.56886,0.81779 0.95997,1.6889 1.17334,2.61334 0.21329,0.92445 0.30218,1.97334 0.26666,3.14666" />
      <path
         id="path3092"
         style="font-variant:normal;font-stretch:normal;font-family:Ramaraja;-inkscape-font-specification:Ramaraja"
         d="m 306.64008,594.52821 c -2e-5,3.05779 -1.15558,5.47556 -3.46667,7.25334 -1.03113,0.85333 -2.22224,1.47555 -3.57333,1.86666 -1.31557,0.39111 -2.72001,0.58667 -4.21334,0.58667 -3.30667,0 -5.99111,-0.87111 -8.05333,-2.61333 -2.24,-1.81333 -3.36,-4.33778 -3.36,-7.57334 0,-2.13332 0.62222,-3.83998 1.86667,-5.12 0.71111,-0.74665 1.59999,-1.29776 2.66666,-1.65333 1.10222,-0.3911 2.16889,-0.53332 3.2,-0.42667 1.06666,0.0711 1.97333,0.40891 2.72,1.01334 0.74666,0.5689 1.11999,1.42223 1.12,2.56 -10e-6,1.06667 -0.4089,1.99112 -1.22666,2.77333 -0.81779,0.74668 -1.81334,1.12001 -2.98667,1.12 -0.67556,10e-6 -1.29778,-0.14221 -1.86667,-0.42667 -0.56889,-0.28443 -1.03111,-0.65776 -1.38666,-1.12 -0.32001,-0.46221 -0.51556,-0.97776 -0.58667,-1.54666 -0.0711,-0.60444 0.0356,-1.24443 0.32,-1.92 -1.31556,1.13779 -1.92,2.36445 -1.81333,3.68 0.10666,1.95556 0.90666,3.46667 2.4,4.53333 1.49333,1.06667 3.69777,1.6 6.61333,1.6 2.55999,0 4.62221,-0.32 6.18667,-0.96 1.56442,-0.67555 2.57776,-1.52888 3.04,-2.56 0.49776,-1.06666 0.60442,-2.09777 0.32,-3.09333 -0.24891,-0.99555 -0.8178,-1.8311 -1.70667,-2.50667 -0.88891,-0.67554 -1.93779,-0.95999 -3.14667,-0.85333 -0.49779,0.0711 -0.94223,0.0178 -1.33333,-0.16 -0.35557,-0.17777 -0.53335,-0.53332 -0.53333,-1.06667 -2e-5,-0.78221 0.58665,-1.17332 1.76,-1.17333 1.99109,1e-5 3.67998,0.80001 5.06666,2.4 1.31554,1.70668 1.97332,3.50223 1.97334,5.38666 m -14.24,-3.94666 c -10e-6,-0.7111 -0.17779,-1.26221 -0.53334,-1.65334 -0.32,-0.39109 -0.72889,-0.58665 -1.22666,-0.58666 -0.42667,10e-6 -0.80001,0.17779 -1.12,0.53333 -0.32001,0.35557 -0.48001,0.92446 -0.48,1.70667 -10e-6,0.60445 0.17777,1.06667 0.53333,1.38666 0.35555,0.32001 0.72888,0.48001 1.12,0.48 0.42666,10e-6 0.81777,-0.14221 1.17333,-0.42666 0.35555,-0.31999 0.53333,-0.79999 0.53334,-1.44" />
      <path
         id="path3094"
         style="font-variant:normal;font-stretch:normal;font-family:Ramaraja;-inkscape-font-specification:Ramaraja"
         d="m 327.79633,581.51488 c -1.52891,1.03113 -3.07557,2.04446 -4.64,3.04 -1.5289,0.99557 -3.09335,1.93779 -4.69334,2.82667 -0.71111,0.35557 -1.26223,0.51557 -1.65333,0.48 -0.35556,-0.0711 -0.72889,-0.2311 -1.12,-0.48 -0.46223,-0.28443 -0.99556,-0.5511 -1.6,-0.8 -0.56889,-0.28443 -1.10222,-0.56888 -1.6,-0.85334 -0.46222,-0.31998 -0.87111,-0.65776 -1.22667,-1.01333 -0.35555,-0.35554 -0.53333,-0.72887 -0.53333,-1.12 0,-0.56887 0.21333,-1.08442 0.64,-1.54667 0.46222,-0.4622 1.01333,-0.63998 1.65333,-0.53333 0.49778,0.0711 0.96,0.26669 1.38667,0.58667 0.42666,0.32002 0.8,0.69335 1.12,1.12 0.35555,0.42668 0.67555,0.87113 0.96,1.33333 0.31999,0.46224 0.62222,0.85335 0.90667,1.17333 0.78221,-0.74665 1.5111,-1.4222 2.18666,-2.02666 0.67555,-0.63998 1.31555,-1.26221 1.92,-1.86667 0.63999,-0.60442 1.29777,-1.20887 1.97334,-1.81333 0.71109,-0.63998 1.51109,-1.35109 2.4,-2.13334 0.63998,-0.63997 1.2622,-0.90664 1.86666,-0.8 0.63999,0.0711 1.11999,0.33781 1.44,0.8 0.56887,0.74669 0.65776,1.42225 0.26667,2.02667 -0.39113,0.60447 -0.94224,1.1378 -1.65333,1.6 m 2.93333,14.34667 c -2e-5,2.24 -0.60446,4.10667 -1.81333,5.6 -1.20891,1.49333 -2.96891,2.34666 -5.28,2.56 -0.28446,0 -0.67557,-0.0356 -1.17334,-0.10667 -0.49779,-0.0711 -1.01334,-0.19556 -1.54666,-0.37333 -0.53335,-0.17778 -1.03112,-0.44445 -1.49334,-0.8 -0.46223,-0.39111 -0.78223,-0.88889 -0.96,-1.49334 -0.10667,0.56889 -0.33778,1.03111 -0.69333,1.38667 -0.35556,0.35556 -0.74667,0.64 -1.17333,0.85333 -0.42668,0.21334 -0.87112,0.35556 -1.33334,0.42667 -0.46222,0.0711 -0.88889,0.10667 -1.28,0.10667 -1.45778,-0.10667 -2.61333,-0.64 -3.46666,-1.6 -0.81778,-0.99556 -1.22667,-2.25778 -1.22667,-3.78667 0,-1.38666 0.42667,-2.48888 1.28,-3.30667 0.88889,-0.81777 2.02666,-1.22665 3.41333,-1.22666 1.20889,10e-6 2.22222,0.26667 3.04,0.8 0.85333,0.53334 1.44,1.31556 1.76,2.34666 0.24888,0.67556 0.79999,1.13779 1.65334,1.38667 0.85332,0.24889 1.68887,0.37334 2.50666,0.37333 0.74666,1e-5 1.47555,-0.0889 2.18667,-0.26666 0.7111,-0.21333 1.33332,-0.53333 1.86667,-0.96 0.53331,-0.42666 0.9422,-0.92444 1.22666,-1.49334 0.28443,-0.60443 0.3911,-1.31554 0.32,-2.13333 -0.0711,-0.95999 -0.44446,-1.8311 -1.12,-2.61333 -0.64001,-0.78221 -1.47557,-1.43999 -2.50666,-1.97334 -1.03113,-0.56887 -2.22224,-0.99554 -3.57334,-1.28 -1.35112,-0.31998 -2.75556,-0.47998 -4.21333,-0.48 -0.42667,2e-5 -0.64001,-0.0533 -0.64,-0.16 -1e-5,-0.1422 0.0533,-0.31998 0.16,-0.53333 0.0711,-0.24887 0.49777,-0.37332 1.28,-0.37333 2.45332,1e-5 4.49777,0.19557 6.13333,0.58666 1.6711,0.39113 2.98665,0.9778 3.94667,1.76 0.95998,0.74668 1.65331,1.6889 2.08,2.82667 0.42665,1.13779 0.63998,2.45334 0.64,3.94667 m -16.64,3.25333 c 0.96,0 1.63555,-0.17777 2.02667,-0.53333 0.42666,-0.39111 0.62221,-0.8 0.58666,-1.22667 -0.0356,-0.46222 -0.30222,-0.8711 -0.8,-1.22667 -0.49778,-0.3911 -1.13778,-0.58666 -1.92,-0.58666 -0.78222,0 -1.38667,0.19556 -1.81333,0.58666 -0.42667,0.35557 -0.65778,0.76445 -0.69333,1.22667 -0.0356,0.42667 0.16,0.83556 0.58666,1.22667 0.42667,0.35556 1.10222,0.53333 2.02667,0.53333 m 41.28,-3.04 c -4e-5,0.96001 -0.14227,1.92 -0.42667,2.88 -0.24893,0.92445 -0.65782,1.77778 -1.22666,2.56 -0.53338,0.74667 -1.22671,1.35111 -2.08,1.81333 -0.81782,0.46222 -1.76004,0.69334 -2.82667,0.69334 -1.52893,0 -2.84448,-0.39112 -3.94667,-1.17334 -1.0667,-0.81777 -1.84892,-1.88444 -2.34666,-3.2 -0.39115,1.31556 -1.19115,2.38223 -2.4,3.2 -1.17336,0.78222 -2.41781,1.17334 -3.73334,1.17334 -0.96002,0 -1.86669,-0.17778 -2.72,-0.53334 -0.8178,-0.39111 -1.54668,-0.88889 -2.18666,-1.49333 -0.60447,-0.64 -1.12002,-1.31555 -1.54667,-2.02667 -0.39113,-0.7111 -0.58669,-1.54666 -0.58667,-2.50666 l 0.32,-1.38667 c 0.10665,-0.21333 0.2311,-0.44444 0.37334,-0.69333 0.1422,-0.24888 0.31998,-0.53333 0.53333,-0.85334 0.0355,0.21334 0.0533,0.42668 0.0533,0.64 v 1.06667 c 0.0711,0.53334 0.26665,0.99556 0.58667,1.38667 0.31998,0.35556 0.69331,0.64 1.12,0.85333 0.4622,0.17778 0.99553,0.33778 1.6,0.48 0.63998,0.10667 1.22664,0.16 1.76,0.16 0.63997,0 1.27997,-0.12444 1.92,-0.37333 0.67553,-0.28444 1.26219,-0.62222 1.76,-1.01334 0.49775,-0.42666 0.90664,-0.92444 1.22667,-1.49333 0.35552,-0.56888 0.5333,-1.20888 0.53333,-1.92 -3e-5,-0.81777 -0.2667,-1.54666 -0.8,-2.18667 -0.49781,-0.67554 -1.10225,-1.20887 -1.81333,-1.6 -0.71114,-0.42665 -1.49336,-0.71109 -2.34667,-0.85333 -0.8178,-0.17776 -1.54669,-0.2311 -2.18667,-0.16 -0.28446,0.0711 -0.53335,0.0356 -0.74666,-0.10667 -0.21336,-0.17776 -0.37336,-0.37332 -0.48,-0.58666 -0.10669,-0.21332 -0.19558,-0.42666 -0.26667,-0.64 -0.0711,-0.21332 -0.10669,-0.3911 -0.10667,-0.53334 -2e-5,-0.49776 0.12443,-0.81776 0.37334,-0.96 0.28442,-0.17776 0.7822,-0.26665 1.49333,-0.26666 1.06664,10e-6 2.18664,0.2489 3.36,0.74666 1.17331,0.4978 2.18664,1.20891 3.04,2.13334 0.63997,0.71112 1.08441,1.44001 1.33333,2.18666 0.28442,0.74668 0.49775,1.47557 0.64,2.18667 0.17775,0.71112 0.31997,1.38667 0.42667,2.02667 0.14219,0.64 0.3733,1.20889 0.69333,1.70666 0.35553,0.49779 0.8533,0.90667 1.49334,1.22667 0.67552,0.32 1.61774,0.48 2.82666,0.48 1.38663,0 2.63107,-0.46222 3.73334,-1.38667 1.10218,-0.92444 1.65329,-2.06221 1.65333,-3.41333 -4e-5,-0.81777 -0.24893,-1.54666 -0.74667,-2.18667 -0.46226,-0.67554 -1.0667,-1.20887 -1.81333,-1.6 -0.71115,-0.42665 -1.47559,-0.71109 -2.29333,-0.85333 -0.81782,-0.17776 -1.58226,-0.2311 -2.29334,-0.16 -0.53337,0.10668 -0.94225,-0.0711 -1.22666,-0.53333 -0.28448,-0.49777 -0.4267,-0.94221 -0.42667,-1.33334 -3e-5,-0.81776 0.67552,-1.22665 2.02667,-1.22666 1.27996,10e-6 2.45329,0.26668 3.52,0.8 1.10218,0.53335 2.02662,1.24446 2.77333,2.13333 0.78218,0.85335 1.36885,1.86668 1.76,3.04 0.42662,1.13779 0.63996,2.36445 0.64,3.68" />
      <path
         id="path3096"
         style="font-variant:normal;font-stretch:normal;font-family:Ramaraja;-inkscape-font-specification:Ramaraja"
         d="m 380.54633,594.52821 c -2e-5,3.05779 -1.15558,5.47556 -3.46667,7.25334 -1.03113,0.85333 -2.20446,1.44 -3.52,1.76 -1.28001,0.32 -2.68446,0.48 -4.21333,0.48 -3.27112,0 -5.97334,-0.8 -8.10667,-2.4 -2.24,-1.81333 -3.36,-4.33778 -3.36,-7.57334 0,-2.13332 0.62222,-3.83998 1.86667,-5.12 0.71111,-0.74665 1.59999,-1.29776 2.66666,-1.65333 1.10222,-0.3911 2.16889,-0.53332 3.2,-0.42667 1.06666,0.0711 1.97333,0.40891 2.72,1.01334 0.74666,0.5689 1.11999,1.42223 1.12,2.56 -10e-6,1.06667 -0.4089,1.99112 -1.22666,2.77333 -0.81779,0.74668 -1.81334,1.12001 -2.98667,1.12 -0.67556,10e-6 -1.29778,-0.14221 -1.86667,-0.42667 -0.56889,-0.28443 -1.03111,-0.65776 -1.38666,-1.12 -0.32001,-0.46221 -0.51556,-0.97776 -0.58667,-1.54666 -0.0711,-0.60444 0.0356,-1.24443 0.32,-1.92 -1.31556,1.13779 -1.92,2.36445 -1.81333,3.68 0.10666,1.95556 0.90666,3.46667 2.4,4.53333 1.49333,1.06667 3.69777,1.6 6.61333,1.6 2.55999,0 4.62221,-0.32 6.18667,-0.96 1.56442,-0.67555 2.57776,-1.52888 3.04,-2.56 0.49776,-1.06666 0.60442,-2.09777 0.32,-3.09333 -0.24891,-0.99555 -0.8178,-1.8311 -1.70667,-2.50667 -0.88891,-0.67554 -1.93779,-0.95999 -3.14667,-0.85333 -0.49779,0.0711 -0.94223,0.0178 -1.33333,-0.16 -0.35557,-0.17777 -0.53335,-0.53332 -0.53333,-1.06667 -2e-5,-0.78221 0.58665,-1.17332 1.76,-1.17333 1.99109,1e-5 3.67998,0.80001 5.06666,2.4 1.31554,1.70668 1.97332,3.50223 1.97334,5.38666 m -14.24,-3.94666 c -10e-6,-0.7111 -0.17779,-1.26221 -0.53334,-1.65334 -0.32,-0.39109 -0.72889,-0.58665 -1.22666,-0.58666 -0.42667,10e-6 -0.80001,0.17779 -1.12,0.53333 -0.32001,0.35557 -0.48001,0.92446 -0.48,1.70667 -10e-6,0.60445 0.17777,1.06667 0.53333,1.38666 0.35555,0.32001 0.72888,0.48001 1.12,0.48 0.42666,10e-6 0.81777,-0.14221 1.17333,-0.42666 0.35555,-0.31999 0.53333,-0.79999 0.53334,-1.44 m 26.56,9.22666 c -0.4267,1.20889 -1.24448,2.22223 -2.45334,3.04 -1.20892,0.78222 -2.45336,1.17334 -3.73333,1.17334 -0.96003,0 -1.86669,-0.17778 -2.72,-0.53334 -0.8178,-0.39111 -1.54669,-0.88889 -2.18667,-1.49333 -0.60446,-0.64 -1.12002,-1.31555 -1.54666,-2.02667 -0.42669,-0.7111 -0.64002,-1.54666 -0.64,-2.50666 l 0.37333,-1.38667 c 0.0711,-0.21333 0.17776,-0.44444 0.32,-0.69333 0.1422,-0.24888 0.23109,-0.55111 0.26667,-0.90667 0.10664,0.2489 0.17775,0.51556 0.21333,0.8 l 0.16,0.64 c 0.1422,0.60445 0.39109,1.13778 0.74667,1.6 0.39109,0.46223 0.81775,0.8 1.28,1.01333 0.46219,0.21334 0.94219,0.37334 1.44,0.48 0.49775,0.0711 1.03108,0.10667 1.6,0.10667 0.63997,0 1.27997,-0.12444 1.92,-0.37333 0.63997,-0.28444 1.20886,-0.62222 1.70666,-1.01334 0.53331,-0.42666 0.95997,-0.92444 1.28,-1.49333 0.31997,-0.56888 0.47997,-1.20888 0.48,-1.92 -3e-5,-0.81777 -0.21336,-1.56443 -0.64,-2.24 -0.42669,-0.67554 -1.04892,-1.24443 -1.86666,-1.70667 -0.78225,-0.49776 -1.58225,-0.81776 -2.4,-0.96 -0.81781,-0.17776 -1.56447,-0.23109 -2.24,-0.16 -0.24892,0.0356 -0.48003,-0.0178 -0.69334,-0.16 -0.21335,-0.17776 -0.39113,-0.31998 -0.53333,-0.42666 -0.10669,-0.10666 -0.19558,-0.26666 -0.26667,-0.48 -0.0711,-0.21332 -0.10669,-0.3911 -0.10666,-0.53334 -3e-5,-0.49776 0.1422,-0.81776 0.42666,-0.96 0.28442,-0.17776 0.7822,-0.26665 1.49334,-0.26666 1.03108,10e-6 2.1333,0.2489 3.30666,0.74666 1.20886,0.4978 2.22219,1.20891 3.04,2.13334 0.63997,0.71112 1.11997,1.44001 1.44,2.18666 0.35553,0.74668 0.60441,1.47557 0.74667,2.18667 0.17774,0.67556 0.28441,1.26223 0.32,1.76 0.0355,0.46223 0.0355,1.06667 0,1.81333 -3e-5,0.71112 -0.17781,1.56445 -0.53333,2.56" />
    </g>
  </g>
</svg>
