<?xml version="1.0" encoding="UTF-8" standalone="no"?>
<svg
   xmlns:dc="http://purl.org/dc/elements/1.1/"
   xmlns:cc="http://creativecommons.org/ns#"
   xmlns:rdf="http://www.w3.org/1999/02/22-rdf-syntax-ns#"
   xmlns:svg="http://www.w3.org/2000/svg"
   xmlns="http://www.w3.org/2000/svg"
   xmlns:xlink="http://www.w3.org/1999/xlink"
   id="svg1325"
   height="2230.1655"
   width="2279.7734"
   version="1.0">
  <defs
     id="defs5578">
    <clipPath
       id="clipPath5484">
      <rect
         style="fill:none;stroke:#892900;stroke-width:1;stroke-linejoin:round;stroke-miterlimit:4;stroke-dasharray:2, 1;stroke-dashoffset:0.5;stroke-opacity:1"
         id="rect5486"
         y="447.36218"
         x="308.57144"
         height="76.428566"
         width="277.85715" />
    </clipPath>
    <clipPath
       id="clipPath5480">
      <rect
         style="fill:none;stroke:#892900;stroke-width:1;stroke-linejoin:round;stroke-miterlimit:4;stroke-dasharray:2, 1;stroke-dashoffset:0.5;stroke-opacity:1"
         id="rect5482"
         y="447.36218"
         x="308.57144"
         height="76.428566"
         width="277.85715" />
    </clipPath>
    <clipPath
       id="clipPath5476">
      <rect
         style="fill:none;stroke:#892900;stroke-width:1;stroke-linejoin:round;stroke-miterlimit:4;stroke-dasharray:2, 1;stroke-dashoffset:0.5;stroke-opacity:1"
         id="rect5478"
         y="447.36218"
         x="308.57144"
         height="76.428566"
         width="277.85715" />
    </clipPath>
    <clipPath
       id="clipPath5472">
      <rect
         style="fill:none;stroke:#892900;stroke-width:1;stroke-linejoin:round;stroke-miterlimit:4;stroke-dasharray:2, 1;stroke-dashoffset:0.5;stroke-opacity:1"
         id="rect5474"
         y="447.36218"
         x="308.57144"
         height="76.428566"
         width="277.85715" />
    </clipPath>
    <clipPath
       id="clipPath5468">
      <rect
         style="fill:none;stroke:#892900;stroke-width:1;stroke-linejoin:round;stroke-miterlimit:4;stroke-dasharray:2, 1;stroke-dashoffset:0.5;stroke-opacity:1"
         id="rect5470"
         y="447.36218"
         x="308.57144"
         height="76.428566"
         width="277.85715" />
    </clipPath>
    <clipPath
       id="clipPath5464">
      <rect
         style="fill:none;stroke:#892900;stroke-width:1;stroke-linejoin:round;stroke-miterlimit:4;stroke-dasharray:2, 1;stroke-dashoffset:0.5;stroke-opacity:1"
         id="rect5466"
         y="447.36218"
         x="308.57144"
         height="76.428566"
         width="277.85715" />
    </clipPath>
    <clipPath
       id="clipPath5460">
      <rect
         style="fill:none;stroke:#892900;stroke-width:1;stroke-linejoin:round;stroke-miterlimit:4;stroke-dasharray:2, 1;stroke-dashoffset:0.5;stroke-opacity:1"
         id="rect5462"
         y="447.36218"
         x="308.57144"
         height="76.428566"
         width="277.85715" />
    </clipPath>
    <clipPath
       id="clipPath5456">
      <rect
         style="fill:none;stroke:#892900;stroke-width:1;stroke-linejoin:round;stroke-miterlimit:4;stroke-dasharray:2, 1;stroke-dashoffset:0.5;stroke-opacity:1"
         id="rect5458"
         y="447.36218"
         x="308.57144"
         height="76.428566"
         width="277.85715" />
    </clipPath>
    <clipPath
       id="clipPath5452">
      <rect
         style="fill:none;stroke:#892900;stroke-width:1;stroke-linejoin:round;stroke-miterlimit:4;stroke-dasharray:2, 1;stroke-dashoffset:0.5;stroke-opacity:1"
         id="rect5454"
         y="447.36218"
         x="308.57144"
         height="76.428566"
         width="277.85715" />
    </clipPath>
    <clipPath
       id="clipPath5448">
      <rect
         style="fill:none;stroke:#892900;stroke-width:1;stroke-linejoin:round;stroke-miterlimit:4;stroke-dasharray:2, 1;stroke-dashoffset:0.5;stroke-opacity:1"
         id="rect5450"
         y="447.36218"
         x="308.57144"
         height="76.428566"
         width="277.85715" />
    </clipPath>
    <clipPath
       id="clipPath5444">
      <rect
         style="fill:none;stroke:#892900;stroke-width:1;stroke-linejoin:round;stroke-miterlimit:4;stroke-dasharray:2, 1;stroke-dashoffset:0.5;stroke-opacity:1"
         id="rect5446"
         y="447.36218"
         x="308.57144"
         height="76.428566"
         width="277.85715" />
    </clipPath>
    <clipPath
       id="clipPath5440">
      <rect
         style="fill:none;stroke:#892900;stroke-width:1;stroke-linejoin:round;stroke-miterlimit:4;stroke-dasharray:2, 1;stroke-dashoffset:0.5;stroke-opacity:1"
         id="rect5442"
         transform="rotate(90)"
         y="447.36218"
         x="308.57144"
         height="76.428566"
         width="277.85715" />
    </clipPath>
    <clipPath
       id="clipPath5436">
      <rect
         style="fill:none;stroke:#892900;stroke-width:1;stroke-linejoin:round;stroke-miterlimit:4;stroke-dasharray:2, 1;stroke-dashoffset:0.5;stroke-opacity:1"
         id="rect5438"
         y="447.36218"
         x="308.57144"
         height="76.428566"
         width="277.85715" />
    </clipPath>
    <clipPath
       id="clipPath5432">
      <rect
         style="fill:none;stroke:#892900;stroke-width:1;stroke-linejoin:round;stroke-miterlimit:4;stroke-dasharray:2, 1;stroke-dashoffset:0.5;stroke-opacity:1"
         id="rect5434"
         y="447.36218"
         x="308.57144"
         height="76.428566"
         width="277.85715" />
    </clipPath>
    <clipPath
       id="clipPath5428">
      <rect
         style="fill:none;stroke:#892900;stroke-width:1;stroke-linejoin:round;stroke-miterlimit:4;stroke-dasharray:2, 1;stroke-dashoffset:0.5;stroke-opacity:1"
         id="rect5430"
         y="447.36218"
         x="308.57144"
         height="76.428566"
         width="277.85715" />
    </clipPath>
    <clipPath
       id="clipPath5424">
      <rect
         style="fill:none;stroke:#892900;stroke-width:1;stroke-linejoin:round;stroke-miterlimit:4;stroke-dasharray:2, 1;stroke-dashoffset:0.5;stroke-opacity:1"
         id="rect5426"
         y="447.36218"
         x="308.57144"
         height="76.428566"
         width="277.85715" />
    </clipPath>
  </defs>
  <metadata
     id="metadata1330">
    <rdf:RDF>
      <cc:Work
         rdf:about="">
        <dc:format>image/svg+xml</dc:format>
        <dc:type
           rdf:resource="http://purl.org/dc/dcmitype/StillImage" />
        <dc:title />
      </cc:Work>
    </rdf:RDF>
  </metadata>
  <rect
     style="display:inline;fill:#236798;fill-opacity:1;stroke:#236798;stroke-width:1;stroke-linejoin:round;stroke-miterlimit:4;stroke-dasharray:2, 1;stroke-dashoffset:0.5;stroke-opacity:1"
     id="rect3155"
     clip-path="url(#clipPath5440)"
     transform="matrix(0,-1.5425373,1.5425373,0,1006.7354,110.27413)"
     y="1313.1982"
     x="-1468.5449"
     height="282.84271"
     width="307.08636" />
  <path
     id="path2997"
     d="m 1969.5595,892.56263 -5.1279,-5.12783 c 0,0 -5.9167,-2.76116 -1.5778,-7.49456 4.339,-4.73339 7.889,-5.91674 10.2557,-7.49454 2.3667,-1.57779 6.3112,-1.18335 7.4946,0.7889 1.1833,1.97225 3.55,6.70564 3.55,6.70564 0,0 0,1.18336 1.9723,-0.39444 1.9722,-1.5778 2.7611,-3.1556 4.7334,-3.55005 1.9722,-0.39445 7.1001,-1.5778 10.2557,-1.18335 3.1556,0.39445 12.2279,1.18335 14.5946,1.5778 2.3667,0.39445 10.2557,3.1556 11.0446,6.70564 0.7889,3.55005 1.5778,7.889 -3.1556,11.04459 -4.7334,3.1556 -13.8057,9.07235 -13.8057,9.07235 0,0 -2.7612,3.55004 0.3944,3.1556 3.1556,-0.39445 5.5223,1.18334 7.889,1.97225 2.3667,0.78889 5.5223,4.33894 5.5223,4.33894 0,0 2.7612,3.55005 2.7612,1.18336 0,-2.3667 -0.3945,-6.31121 0,-9.07236 0.3944,-2.76113 2.3667,-8.28344 3.55,-13.80573 1.1834,-5.5223 2.3667,-9.07234 5.1278,-11.0446 2.7612,-1.97224 6.3112,-2.36669 7.889,-1.97224 1.5778,0.39444 5.1279,2.76114 5.1279,2.76114 l -2.3667,11.83349 -2.3667,-2.36669 c 0,0 -4.7334,-1.97226 -5.5223,0.39446 -0.7889,2.36668 -3.55,10.25567 -3.9445,13.80573 -0.3944,3.55004 0,14.59464 0,14.59464 0,0 3.5501,0.39445 3.5501,1.97225 0,1.57778 1.5777,3.9445 0,5.12785 -1.5779,1.18335 -1.1834,3.94448 -3.1556,2.76113 -1.9723,-1.18335 -5.5223,-5.52228 -7.4946,-6.3112 -1.9722,-0.78888 -14.5946,-5.12784 -16.5669,-5.91673 -1.9722,-0.7889 -4.7334,-1.97224 -9.4668,-5.12784 -4.7334,-3.1556 -6.3112,-3.55006 -5.9167,-6.70566 0.3944,-3.1556 5.5223,-5.91673 7.889,-7.10009 2.3667,-1.18335 9.0723,-3.94448 11.0446,-5.91674 1.9722,-1.97226 3.1556,-5.12785 3.1556,-5.12785 0,0 -1.9723,-3.55005 -4.7334,-3.15559 -2.7612,0.39444 -9.4668,2.36669 -9.4668,2.36669 0,0 -1.1834,3.55005 -2.3667,0.7889 -1.1834,-2.76115 -0.7889,1.18335 -2.7612,2.76115 -1.9722,1.5778 -5.9167,4.73339 -7.889,9.86124 -1.9722,5.12785 -5.5223,14.20019 -5.5223,17.35579 0,3.1556 -0.7889,3.1556 -0.3944,4.73339 0.3944,1.57781 3.9445,0.78891 3.1556,3.1556 -0.7889,2.3667 -1.1834,3.9445 -3.1556,3.15559 -1.9723,-0.78889 -7.1001,-4.33893 -8.2835,-6.31119 -1.1833,-1.97224 -1.5778,-2.76113 -1.5778,-2.76113 0,0 0.3945,-2.36671 3.1556,-7.889 2.7612,-5.52229 5.1279,-7.49455 5.1279,-11.0446 0,-3.55005 -1.9723,-7.1001 -1.9723,-8.28345 0,-1.18334 -0.7889,-4.73339 -2.3667,-5.52229 -1.5778,-0.78889 -5.5223,0.7889 -6.7056,2.36669 -1.1834,1.5778 -1.5778,4.33895 -1.5778,4.33895 z"
     style="fill:#000000;fill-opacity:1;stroke:#1d2d54;stroke-width:1.462;stroke-linecap:butt;stroke-linejoin:miter;stroke-miterlimit:4;stroke-dasharray:none;stroke-opacity:1" />
  <path
     id="path3767"
     d="m 2003.0877,924.51306 c 6.3112,0 10.2557,1.57781 11.8335,3.15559 1.5778,1.57781 3.9445,4.73341 1.5778,4.73341 -2.3667,0 -6.3112,-3.1556 -9.8612,-2.76114 -3.5501,0.39443 -5.9168,1.5778 -5.9168,1.5778 l -1.5778,-1.97226 z"
     style="fill:#000000;fill-opacity:1;stroke:#1d2d54;stroke-width:1.462;stroke-linecap:butt;stroke-linejoin:miter;stroke-miterlimit:4;stroke-dasharray:none;stroke-opacity:1" />
  <path
     id="path3769"
     d="m 1988.8875,873.62905 c 0,0 -3.55,-2.76114 -5.9167,-5.12784 -2.3667,-2.3667 -4.339,-7.1001 -4.339,-7.1001 0,0 1.9723,-0.39445 4.339,-2.3667 2.3667,-1.97224 3.55,-5.52229 8.6779,-8.67789 5.1278,-3.1556 9.4668,-3.1556 11.8335,-3.1556 2.3667,0 12.2279,3.9445 12.2279,3.9445 0,0 7.889,5.91675 9.8613,7.88899 1.9722,1.97225 4.3389,7.889 7.4945,7.889 3.1556,0 5.5223,0 5.5223,0 0,0 -4.7334,3.9445 -7.1001,3.1556 -2.3667,-0.7889 -5.5223,-5.12786 -8.2834,-7.1001 -2.7612,-1.97225 -8.6779,-6.70564 -11.8335,-6.70564 -3.1556,0 -14.2002,1.18334 -16.1725,3.55004 -1.9722,2.3667 -5.5223,7.49454 -5.5223,7.49454 z"
     style="fill:#000000;fill-opacity:1;stroke:#1d2d54;stroke-width:1.462;stroke-linecap:butt;stroke-linejoin:miter;stroke-miterlimit:4;stroke-dasharray:none;stroke-opacity:1" />
  <path
     id="path3771"
     d="m 2046.0827,893.35153 c 0,0 3.1556,-3.55005 5.1279,-3.55005 1.9722,0 4.3389,-1.5778 5.1278,0.78892 0.7889,2.36668 1.1834,7.49453 0,12.22793 -1.1833,4.73339 -3.9445,12.62239 -6.3112,13.80574 -2.3667,1.18336 -3.1556,2.76115 -3.1556,2.76115 0,0 -0.7889,2.76115 1.1834,3.9445 1.9722,1.18334 4.3389,4.33893 6.7056,5.52228 2.3667,1.18335 4.339,3.94452 5.1279,1.57782 0.7889,-2.3667 0.7889,-11.83349 1.1833,-15.77799 0.3945,-3.9445 2.7612,-13.01686 4.339,-16.17245 1.5778,-3.1556 3.9445,-7.88898 6.3112,-7.88898 2.3667,0 5.5223,-1.18336 5.5223,-1.18336 0,0 3.9445,-4.33894 5.5223,-4.33894 1.5778,0 3.9445,-2.3667 5.5223,0 1.5778,2.3667 -1.5778,7.49453 -3.9445,7.88898 -2.3667,0.39445 -11.4391,6.3112 -13.4113,7.88899 -1.9723,1.5778 -3.5501,3.9445 -3.5501,5.12786 0,1.18335 1.9723,7.10009 3.9445,7.889 1.9723,0.7889 6.7057,6.31119 8.6779,6.31119 1.9723,0 9.0724,3.55004 12.228,3.55004 3.1556,0 1.9722,3.1556 6.3112,5.5223 4.3389,2.3667 6.3111,5.12784 5.5222,1.97226 -0.7889,-3.1556 -3.9444,-6.3112 -3.9444,-6.3112 0,0 3.55,-6.70566 4.3389,-9.4668 0.7889,-2.76115 2.3667,-7.49455 2.3667,-9.07234 0,-1.57781 0,-6.3112 0,-6.3112 0,0 1.1833,-2.3667 3.55,0 2.3667,2.36669 5.9168,5.91675 5.1279,8.67789 -0.7889,2.76116 1.1833,4.33895 -1.1834,5.12786 -2.3667,0.7889 -6.3112,1.57779 -5.9167,3.9445 0.3944,2.36669 0,3.55003 2.7611,3.55003 2.7612,0 5.9168,0.39446 8.6779,-1.57779 2.7612,-1.97224 4.339,-1.57781 5.1279,-6.3112 0.7889,-4.7334 0.7889,-9.86124 -1.1834,-11.8335 -1.9722,-1.97224 -7.889,-9.46679 -10.2557,-10.65013 -2.3667,-1.18336 -7.1001,-4.33895 -9.0723,-3.9445 -1.9722,0.39446 -6.7056,4.7334 -7.1001,5.91674 -0.3944,1.18335 2.7612,7.88899 0.7889,14.98909 -1.9722,7.10009 -0.7889,12.22795 -7.4945,7.49455 -6.7057,-4.73339 -13.0169,-7.889 -7.889,-13.01685 5.1278,-5.12784 10.6501,-2.76114 12.2279,-4.73339 1.5778,-1.97224 4.7334,-3.1556 3.1556,-7.10008 -1.5778,-3.94451 -2.7611,-9.07236 -5.5223,-11.43906 -2.7611,-2.36669 -7.4945,-3.55004 -11.0446,-3.15559 -3.55,0.39445 -5.5223,2.76115 -5.5223,2.76115 0,0 0,-3.1556 -2.7611,-2.3667 -2.7612,0.7889 -7.4946,4.33894 -7.4946,4.33894 l -1.5778,1.97226 c 0,0 -1.1833,-1.97226 -2.7611,-4.33896 -1.5778,-2.36669 -3.9445,-7.49453 -9.0724,-2.76114 -5.1278,4.7334 -9.0723,6.3112 -9.0723,6.3112 z"
     style="fill:#000000;fill-opacity:1;stroke:#1d2d54;stroke-width:1.462;stroke-linecap:butt;stroke-linejoin:miter;stroke-miterlimit:4;stroke-dasharray:none;stroke-opacity:1" />
  <path
     id="path3773"
     d="m 2056.3384,868.10675 c 0,0 0.3945,-7.49454 4.339,-11.43903 3.9445,-3.9445 12.2279,-6.70564 17.7502,-5.91675 5.5223,0.78888 12.6224,3.55005 17.7503,8.6779 5.1278,5.12784 8.2834,7.49454 11.8334,8.28344 3.5501,0.7889 6.3112,-0.39446 6.3112,-0.39446 0,0 -1.5778,4.7334 -4.3389,5.12785 -2.7612,0.39445 -10.2557,1.5778 -13.8057,-2.36669 -3.5501,-3.9445 -7.889,-5.91675 -9.8613,-7.49455 -1.9722,-1.5778 -8.2834,-3.55005 -11.0446,-2.76115 -2.7611,0.7889 -8.6779,3.1556 -8.2834,7.889 0.3944,4.73339 0.7889,8.28344 0.7889,8.28344 0,0 -2.3667,0 -5.1279,-2.3667 -2.7611,-2.3667 -6.3112,-5.5223 -6.3112,-5.5223 z"
     style="fill:#000000;fill-opacity:1;stroke:#1d2d54;stroke-width:1.462;stroke-linecap:butt;stroke-linejoin:miter;stroke-miterlimit:4;stroke-dasharray:none;stroke-opacity:1" />
  <path
     id="path3775"
     d="m 2121.4226,888.61814 c 0,0 10.2557,3.1556 13.0169,6.31119 2.7611,3.1556 3.9445,5.5223 7.4945,13.01684 3.5501,7.49455 4.339,10.65016 8.2835,11.43905 3.9445,0.7889 9.4668,3.15558 13.4113,0 3.9445,-3.1556 6.7056,-10.2557 5.9167,-11.8335 -0.7889,-1.57779 1.1834,0 -6.3112,0.39445 -7.4945,0.39446 -13.0168,0.39446 -13.0168,0.39446 0,0 -3.9445,-1.97225 -1.9723,-4.7334 1.9723,-2.76116 4.339,-6.70563 4.339,-9.86123 0,-3.1556 -2.3667,-8.28346 -5.9168,-6.70566 -3.55,1.5778 -8.2834,6.31119 -8.2834,6.31119 0,0 -5.5223,-2.76113 -6.3112,-4.33895 -0.7889,-1.57778 -3.9445,-7.49454 -3.9445,-7.49454 0,0 5.5223,-0.7889 10.6501,-1.5778 5.1279,-0.7889 13.4113,-2.76114 14.9891,-2.36669 1.5778,0.39445 2.7612,1.57779 2.7612,1.57779 0,0 -0.7889,0 3.9445,0 4.7334,0 8.6779,2.76116 10.2557,0.39446 1.5778,-2.3667 1.1833,-6.70565 -2.3667,-8.28345 -3.5501,-1.5778 -16.9614,-8.67789 -20.5114,-10.65014 -3.5501,-1.97224 -9.8613,-5.12784 -11.8335,-6.70564 -1.9723,-1.5778 -9.0724,-5.12785 -9.0724,-8.6779 0,-3.55004 1.9723,-7.10009 3.5501,-7.10009 1.5778,0 5.9167,4.33895 3.9445,5.5223 -1.9723,1.18334 -1.5778,0.7889 1.1833,3.55004 2.7612,2.76116 16.1725,9.86125 22.4837,12.22795 6.3112,2.36669 22.0891,9.86124 22.0891,12.22793 0,2.3667 4.7334,5.91675 0.7889,10.65014 -3.9444,4.7334 -11.8334,7.1001 -14.989,5.5223 -3.1556,-1.5778 -5.9168,-3.55004 -5.9168,-3.55004 0,0 1.5778,1.57779 -0.3944,7.10008 -1.9723,5.52232 -5.9168,9.86125 0.7889,10.65016 6.7056,0.78889 12.2279,-3.94451 12.2279,-3.94451 0,0 2.7612,-0.39445 3.5501,4.33894 0.7889,4.73341 1.9722,11.43906 -0.7889,14.98909 -2.7612,3.55006 -5.9168,9.07236 -9.4668,11.0446 -3.5501,1.97226 -12.6224,3.1556 -14.5947,1.57779 -1.9722,-1.57779 -9.8612,-7.88898 -11.8335,-9.86123 -1.9722,-1.97226 -5.9167,-9.07235 -7.889,-12.6224 -1.9722,-3.55005 -3.9445,-7.88899 -5.5223,-10.25569 -1.5778,-2.3667 -4.7334,-8.67789 -4.7334,-8.67789 z"
     style="fill:#000000;fill-opacity:1;stroke:#1d2d54;stroke-width:1.462;stroke-linecap:butt;stroke-linejoin:miter;stroke-miterlimit:4;stroke-dasharray:none;stroke-opacity:1" />
  <path
     id="path3777"
     d="m 2202.6793,907.94617 c 2.3667,8.28345 4.3389,12.62239 -1.9723,20.11695 -6.3112,7.49454 -11.8335,8.67788 -11.439,6.70564 0.3944,-1.97224 5.9167,-6.70564 6.7056,-11.0446 0.7889,-4.33894 1.5778,-9.07233 -2.7611,-12.62239 -4.339,-3.55005 -7.1001,-5.91673 -8.2835,-11.04459 -1.1833,-5.12785 1.1834,-12.62238 5.1279,-15.77798 3.9445,-3.1556 7.4945,-7.1001 13.0168,-5.12786 5.5223,1.97226 4.339,8.28346 4.339,11.43906 0,3.1556 -6.3112,5.91673 -9.0724,7.10008 -2.7611,1.18336 -2.7611,3.94449 -0.7889,5.5223 1.9723,1.57779 5.1279,4.73339 5.1279,4.73339 z"
     style="fill:#000000;fill-opacity:1;stroke:#1d2d54;stroke-width:1.462;stroke-linecap:butt;stroke-linejoin:miter;stroke-miterlimit:4;stroke-dasharray:none;stroke-opacity:1" />
  <path
     id="path3779"
     d="m 2214.5128,883.88474 c 4.3389,-3.1556 5.0882,-4.43466 11.7938,-5.22356 6.7057,-0.7889 8.3231,-0.69318 8.7176,-1.48208 0.3944,-0.7889 0.7889,-0.39445 1.5777,1.97224 0.789,2.3667 3.1556,7.1001 3.1556,7.1001 0,0 -4.3389,2.3667 -5.5222,7.10009 -1.1834,4.7334 -0.4423,2.17528 1.5299,4.14753 1.9722,1.97225 4.7813,4.53038 6.7535,3.34701 1.9722,-1.18334 4.7334,-0.39444 6.3112,1.97226 1.5778,2.36671 2.7611,2.36671 4.3389,-3.1556 1.5778,-5.5223 3.5501,-9.86125 3.1556,-11.43905 -0.3944,-1.57779 -3.9445,3.1556 -6.3112,1.18336 -2.3667,-1.97224 -5.9167,-2.3667 -6.3112,-4.7334 -0.3944,-2.3667 0,-1.97224 4.339,-3.9445 4.3389,-1.97224 7.889,-4.33894 10.6501,-0.39444 5.3135,3.318 3.9419,1.1866 7.889,-0.7889 3.9437,-1.97382 3.1556,-3.9445 6.3112,-2.76115 3.1556,1.18335 3.1556,4.73339 3.9445,8.28345 0.7889,3.55004 2.3667,5.5223 2.3667,5.5223 0,0 -5.1278,-4.73341 -8.6779,-3.1556 -3.55,1.57778 -5.1278,3.55004 -5.1278,3.55004 0,0 0.7889,2.36669 -1.1834,5.91676 -1.9722,3.55003 -4.7334,11.83347 -6.3112,14.59463 -1.5778,2.76113 -3.3668,9.28358 -1.789,10.86138 1.5778,1.5778 5.3391,4.52215 5.3391,4.52215 0,0 1.6933,2.39474 -1.8567,3.97254 -3.5501,1.5778 -6.7057,-0.32678 -9.4668,-2.69347 -2.7612,-2.36671 -5.2434,-10.3514 -3.6656,-12.71811 1.5778,-2.3667 1.3665,-4.73339 1.3665,-4.73339 0,0 -0.302,-2.72554 -3.5698,-3.55005 -3.3443,-0.84381 -5.5963,3.0578 -7.6778,6.70565 -3.4745,6.08909 -5.4554,10.18863 -9.6103,5.55032 -4.482,-5.00336 -10.6782,-8.98484 -11.0726,-10.56264 -0.3945,-1.57781 -0.992,-0.50998 8.4748,-1.69333 3.4649,6.55888 10.6176,4.10009 6.3112,-1.97224 -3.9258,-5.53565 -5.5223,-1.03979 -6.3112,-4.19539 -0.7889,-3.1556 -3.6936,-3.18364 -0.1436,-8.31148 3.5501,-5.12785 5.6659,-9.00466 0.5381,-4.66572 -5.1279,4.33894 -3.3669,6.6578 -6.9169,2.7133 -3.5501,-3.9445 -3.3388,-6.84101 -3.3388,-6.84101 z"
     style="fill:#000000;fill-opacity:1;stroke:#1d2d54;stroke-width:1.462;stroke-linecap:butt;stroke-linejoin:miter;stroke-miterlimit:4;stroke-dasharray:none;stroke-opacity:1" />
  <g
     transform="translate(1445.0848,347.34423)"
     id="layer1" />
  <flowRoot
     transform="translate(1445.0848,347.34423)"
     style="font-style:normal;font-variant:normal;font-weight:normal;font-stretch:normal;line-height:0.01%;font-family:'Arial Unicode MS';-inkscape-font-specification:'Arial Unicode MS';letter-spacing:0px;word-spacing:0px;fill:#000000;fill-opacity:1;stroke:none"
     id="flowRoot3882"
     xml:space="preserve"><flowRegion
       id="flowRegion3884"><rect
         y="176.82928"
         x="538.71948"
         height="106.0061"
         width="305.85364"
         id="rect3886" /></flowRegion><flowPara
       style="font-size:40px;line-height:1.25"
       id="flowPara3888"> </flowPara></flowRoot>
  <image
     style="fill:#000000;fill-opacity:1"
     width="1132.4746"
     height="454.40985"
     xlink:href="file:///G:/canono_cam/wiki_uts_kalpurush.jpg"
     id="image3925"
     x="1054.9399"
     y="1775.7557" />
  <rect
     y="332.59845"
     x="1420.5085"
     height="629.15253"
     width="508.72882"
     id="rect3930"
     style="fill:none;stroke:none" />
  <rect
     y="315.39508"
     x="1425.4238"
     height="670.93219"
     width="496.44067"
     id="rect3932"
     style="fill:none;stroke:none" />
  <flowRoot
     transform="translate(1425.4238,315.39508)"
     style="font-style:normal;font-variant:normal;font-weight:normal;font-stretch:normal;line-height:0.01%;font-family:'Arial Unicode MS';-inkscape-font-specification:'Arial Unicode MS';letter-spacing:0px;word-spacing:0px;fill:#000000;fill-opacity:1;stroke:none;stroke-width:1px;stroke-linecap:butt;stroke-linejoin:miter;stroke-opacity:1"
     id="flowRoot3936"
     xml:space="preserve"><flowRegion
       id="flowRegion3938"><rect
         y="-351.4407"
         x="-1425.4237"
         height="422.71185"
         width="1243.5593"
         id="rect3940" /></flowRegion><flowPara
       style="font-size:40px;line-height:1.25"
       id="flowPara3942"> </flowPara></flowRoot>
  <path
     id="path3952"
     d="m 1842.788,1130.9073 0.4256,-60.4259 h 10.2128 l -6.383,-6.383 h -60.8515 c 0,0 3.8298,5.5319 7.6597,7.6596 3.8298,2.1277 14.0426,3.8298 17.0213,6.8085 2.9788,2.9788 5.9575,9.3618 3.8298,11.915 -2.1276,2.5532 -7.6596,9.7873 -7.6596,9.7873 0,0 -5.1064,3.8298 -8.9362,-5.1064 l -3.4043,1.2766 c 0,0 3.8298,8.5107 7.6596,10.2128 3.8299,1.7021 4.6809,2.9788 8.5107,1.2766 3.8298,-1.7021 6.8086,-8.5107 8.5107,-10.2128 1.7022,-1.7021 4.6809,-6.8086 5.9575,-7.6596 1.2766,-0.8511 3.4043,-0.8511 6.383,1.7021 2.9788,2.5532 4.6809,7.2341 5.1064,8.9362 0.4256,1.7022 0.4256,23.83 0.4256,23.83 z"
     style="fill:#000000;fill-opacity:1;stroke:#000000;stroke-width:1.2;stroke-linecap:butt;stroke-linejoin:miter;stroke-miterlimit:4;stroke-dasharray:none;stroke-opacity:1" />
  <path
     id="path3954"
     d="m 1810.4474,1070.0558 c 27.2342,0 26.3831,0.4256 26.3831,0.4256 l 0.4256,19.149 c 0,0 -2.5532,-2.9787 -6.383,-5.9575 -3.8299,-2.9787 -5.532,-2.9787 -8.9363,-0.4255 -3.4042,2.5532 -2.1276,4.2554 -4.2553,-1.2766 -2.1277,-5.5319 -3.4043,-8.5107 -7.2341,-11.915 z"
     style="fill:#fcffff;fill-opacity:1;stroke:#000000;stroke-width:1.2;stroke-linecap:butt;stroke-linejoin:miter;stroke-miterlimit:4;stroke-dasharray:none;stroke-opacity:1" />
  <path
     id="path3958"
     d="m 1789.1707,1126.2264 c 0,-7.6596 2.5532,-8.9362 -2.1277,-14.0426 -4.6809,-5.1065 -5.5319,-7.2341 -16.5958,-12.7661 -11.0639,-5.5319 -18.298,-4.6809 -19.1491,-13.1915 -0.8511,-8.5107 3.8298,-12.3406 3.8298,-12.3406 0,0 0,4.6809 2.5532,8.0852 2.5532,3.4043 5.1064,5.9575 9.7873,6.383 4.6809,0.4256 5.1064,0 9.3618,-3.4042 4.2553,-3.4043 1.7021,-6.8086 2.5532,-8.5107 0.851,-1.7022 -4.6809,-14.8937 -14.0427,-14.0427 -9.3617,0.8511 -10.2128,1.2766 -15.3192,7.6596 -5.4802,6.8503 -5.5319,21.2768 0.4255,26.3832 5.9575,5.1064 20.8512,11.4894 24.2555,13.1916 3.4043,1.7021 9.3618,6.383 9.7873,8.5106 0.4255,2.1277 1.7021,2.1277 0.8511,4.2554 -0.8511,2.1277 3.8298,3.8298 3.8298,3.8298 z"
     style="fill:#000000;fill-opacity:1;stroke:#000000;stroke-width:1.2;stroke-linecap:butt;stroke-linejoin:miter;stroke-miterlimit:4;stroke-dasharray:none;stroke-opacity:1" />
  <path
     id="path3960"
     d="m 1761.5109,1071.758 c 6.8086,-3.8298 12.3405,0 11.915,5.1064 -0.4255,5.1064 -6.383,4.2553 -9.7873,2.1277 -3.4043,-2.1277 -2.1277,-8.0852 -2.1277,-7.2341 z"
     style="fill:#ffffff;fill-opacity:1;stroke:#000000;stroke-width:1.2;stroke-linecap:butt;stroke-linejoin:miter;stroke-miterlimit:4;stroke-dasharray:none;stroke-opacity:1" />
  <path
     id="path3962"
     d="m 1711.2979,1070.0558 v 20.4257 c 0,0 0,5.1064 4.6809,2.5532 4.6808,-2.5532 7.6596,-3.8298 8.0851,-6.8085 0.4255,-2.9788 0,-4.2554 1.7021,-3.8299 1.7022,0.4256 5.532,2.1277 6.8086,3.8299 1.2766,1.7021 4.2553,9.7873 4.2553,12.3405 0,2.5532 2.1277,9.3617 -2.5532,15.3192 -4.6808,5.9575 -13.1915,9.7873 -15.7447,9.7873 -2.5532,0 -12.3405,-1.2766 -16.1704,-5.1064 -3.8298,-3.8298 -8.5106,-7.6596 -11.4894,-19.1491 -2.9787,-11.4894 -3.8298,-20.4256 -3.4043,-22.5533 0.4256,-2.1277 3.4043,0.4255 3.4043,0.4255 0,0 -1.7021,9.3618 2.1277,17.4469 3.8298,8.0852 9.6707,15.0937 16.1703,18.298 7.3417,3.6195 14.517,3.0764 18.7235,-2.1276 4.1785,-5.1695 4.6809,-3.4043 4.6809,-10.2129 0,-6.8085 -2.5532,-9.7873 -2.5532,-9.7873 0,0 -2.9788,5.1065 -8.9362,8.0852 -5.9575,2.9787 -9.3618,3.8298 -13.1916,-1.2766 -3.8298,-5.1064 -2.9787,-27.6598 -2.9787,-27.6598 h -26.8087 l 0.4255,-5.9574 h 47.2343 c 0,0 5.1065,2.9787 2.5532,-2.1277 -2.5532,-5.1064 -1.7021,-5.9575 -13.6171,-5.9575 -11.9149,0 -17.8724,0.8511 -24.2554,-2.9787 -6.383,-3.8298 -6.383,-2.9788 -7.2341,-9.3618 -0.7874,-5.9052 2.5532,-7.2341 2.5532,-7.2341 0,0 -1.2766,2.1277 0.4255,6.8086 1.7022,4.6809 10.2129,5.5319 16.5959,5.5319 6.383,0 11.0639,-1.7021 15.7448,-0.851 4.6808,0.851 9.3617,2.5532 11.0639,5.5319 1.7021,2.9788 3.4042,9.7873 3.4042,9.7873 l -1.2766,1.2766 6.8086,-0.4255 5.5319,5.9574 z"
     style="fill:#000000;fill-opacity:1;stroke:#000000;stroke-width:1.2;stroke-linecap:butt;stroke-linejoin:miter;stroke-miterlimit:4;stroke-dasharray:none;stroke-opacity:1" />
  <path
     id="path3964"
     d="m 1529.1691,1128.7796 v -59.1493 l 46.3833,0.8511 -0.4256,4.2553 c 0,0 -35.7134,15.1332 -34.4683,17.8725 2.1277,4.6809 1.9992,8.7778 6.3831,9.3617 12.1433,1.6174 30.57,15.5247 32.7661,28.5108 1.3388,7.9166 2.1277,-60.4259 2.1277,-60.4259 h 5.5319 v -6.383 h -59.5748 c 0,0 -2.8232,-1.9506 0,-10.2128 3.9209,-11.4746 10.2726,-8.7655 15.7448,-9.7873 6.3824,-1.1917 10.2128,-0.4255 17.0214,3.4043 4.466,2.5121 13.6171,11.4894 13.6171,11.4894 l -9.7873,-14.4681 c 0,0 -7.6596,-7.6597 -16.5959,-8.0852 -8.9362,-0.4255 -18.7235,2.9787 -22.9788,7.2341 -4.2554,4.2553 -8.5107,12.3405 -5.532,15.7448 2.9788,3.4042 3.8298,5.5319 3.8298,5.5319 h -14.0426 l 5.1064,5.5319 h 8.5107 l -0.4255,54.4685 z"
     style="fill:#000000;fill-opacity:1;stroke:#000000;stroke-width:1.2;stroke-linecap:butt;stroke-linejoin:miter;stroke-miterlimit:4;stroke-dasharray:none;stroke-opacity:1" />
  <path
     id="path3964-1"
     d="m 1655.9784,1070.1803 h 17.4469 l -0.4255,-6.383 H 1601.51 c 0,0 -5.9575,-3.8299 0,-10.2129 5.9575,-6.383 10.2128,-9.7873 15.7448,-9.7873 5.5319,0 16.5958,0 20.4256,3.4043 3.8298,3.4043 11.0639,8.9362 11.0639,8.9362 l -4.2553,-6.8085 c 0,0 -14.0427,-12.7661 -22.9789,-13.1916 -8.9362,-0.4255 -18.7235,2.9788 -22.9789,7.2341 -4.2553,4.2553 -8.5106,12.3405 -5.5319,15.7448 2.9787,3.4042 3.8298,5.5319 3.8298,5.5319 h -14.0426 l 5.1064,5.532 h 8.5107 l -0.4256,54.4684 6.8086,4.2553 v -59.1493 l 46.3832,0.8511 -0.4255,4.2553 c 0,0 -35.7134,15.1332 -34.4683,17.8725 2.1277,4.6809 1.9992,8.7779 6.383,9.3618 12.1434,1.6173 30.57,15.5246 32.7662,28.5108 1.3388,7.9165 0.8511,-48.0854 0.8511,-48.0854 0,0 1.2766,-0.1245 2.9787,-0.1245 1.7021,0 3.4043,1.2766 7.2341,3.4043 3.8298,2.1277 3.8298,3.4043 5.9575,10.2129 2.1276,6.8085 -0.8511,5.1064 -0.8511,5.1064 l -1.2766,-2.9788 c 0,0 -3.8298,-1.7021 -5.9575,-2.1276 -2.1277,-0.4256 -3.8298,4.6808 -4.2553,8.0851 -0.4256,3.4043 7.234,6.8086 10.2128,5.1064 2.9787,-1.7021 7.6596,-6.8085 6.8085,-11.9149 -0.851,-5.1065 -5.9574,-16.5959 -14.4681,-21.2768 -4.5514,-2.5032 -5.532,-0.851 -5.532,-0.851 0,0 0.4256,0 0.8511,-4.982 z"
     style="fill:#000000;fill-opacity:1;stroke:#000000;stroke-width:1.2;stroke-linecap:butt;stroke-linejoin:miter;stroke-miterlimit:4;stroke-dasharray:none;stroke-opacity:1" />
  <path
     id="path3984"
     d="m 1648.7443,1081.9708 -1.2766,31.4896 c 0,0 -9.3618,-12.3405 -12.766,-14.4682 -3.4043,-2.1277 -8.9363,-5.1064 -8.9363,-5.1064 0,0 5.9575,-3.4043 11.0639,-6.383 5.1065,-2.9788 11.915,-5.532 11.915,-5.532 z"
     style="fill:#ffffff;fill-opacity:1;stroke:#000000;stroke-width:1.2;stroke-linecap:butt;stroke-linejoin:miter;stroke-miterlimit:4;stroke-dasharray:none;stroke-opacity:1" />
  <path
     id="path3984-7"
     d="m 1575.5524,1082.3963 -1.2766,31.4896 c 0,0 -9.3618,-12.3405 -12.7661,-14.4682 -3.4042,-2.1276 -8.9362,-5.1064 -8.9362,-5.1064 0,0 5.9575,-3.4043 11.0639,-6.383 5.1064,-2.9787 11.915,-5.532 11.915,-5.532 z"
     style="fill:#ffffff;fill-opacity:1;stroke:#000000;stroke-width:1.2;stroke-linecap:butt;stroke-linejoin:miter;stroke-miterlimit:4;stroke-dasharray:none;stroke-opacity:1" />
  <path
     id="path4004"
     d="m 1550.7628,1112.8951 c 0,0 12.2881,4.9152 17.2034,11.0593 4.9153,6.144 -2.4576,-1.2288 -11.0593,-2.4576 -8.6017,-1.2289 -8.6017,-1.2289 -8.6017,-1.2289 z"
     style="fill:#000000;fill-opacity:1;stroke:#000000;stroke-width:1px;stroke-linecap:butt;stroke-linejoin:miter;stroke-opacity:1" />
  <image
     width="319"
     height="128"
     xlink:href="file:///G:/canono_cam/wiki_uts_kalpurush.jpg"
     id="image4014"
     x="1017.7035"
     y="511.90353" />
  <path
     id="path4019"
     d="m 985.75434,964.20861 v -64 h 159.49996 159.5 v 64 63.99999 h -159.5 -159.49996 z m 81.99996,7.89301 v -23.89301 h 6 6 v 22.4433 c 0,22.05864 0.038,22.46997 2.2225,24 4.74,3.31998 4.7775,3.14357 4.7775,-22.4433 v -24 h 16.5 c 10.6681,0 16.5,0.36454 16.5,1.03138 0,0.56727 -0.7875,1.29427 -1.75,1.61556 -8.9732,2.9954 -25.25,12.51668 -25.25,14.7703 0,1.85367 6.9508,9.58276 8.6178,9.58276 5.0258,0 14.5575,8.32377 19.8256,17.3131 4.9897,8.51439 5.5566,7.00319 5.5566,-14.8131 0,-12.94837 0.3527,-19.5 1.0497,-19.5 3.6138,0 8.4926,4.48484 10.3343,9.5 0.5893,1.60462 0.4856,1.75289 -0.5247,0.75 -3.2268,-3.20314 -9.8593,0.32859 -9.8593,5.25 0,4.88038 6.0141,7.96679 11.4552,5.87882 2.3293,-0.89384 4.5448,-5.70102 4.5448,-9.86128 0,-8.64675 -8.1655,-19.49133 -14.6909,-19.51095 -1.2051,-0.004 -2.4691,-0.45659 -2.8091,-1.00659 -0.4043,-0.65428 6.4897,-1 19.941,-1 h 20.559 v 10.07692 c 0,9.80432 0.079,10.156 2.9231,13 1.6077,1.60769 3.8801,2.92308 5.0497,2.92308 2.8539,0 7,-2.24558 9.9226,-5.37417 2.81,-3.00811 4.1046,-2.59862 4.1046,1.29833 0,7.92729 -11.2354,13.59107 -18.9979,9.57689 -5.7713,-2.98443 -9.2388,-9.2129 -11.9702,-21.50105 -1.4038,-6.31552 -2.0117,-7.55047 -3.8495,-7.81955 -2.6867,-0.3934 -2.8171,1.67123 -0.7318,11.58452 4.2525,20.21554 11.5258,29.23822 23.5494,29.21346 9.7146,-0.02 16.2642,-5.57561 18.0771,-15.33368 1.5684,-8.442 -3.2184,-19.64475 -8.3941,-19.64475 -1.2278,0 -3.7333,1.74394 -5.8809,4.09339 -2.058,2.25136 -4.3178,3.90274 -5.0219,3.66974 -0.856,-0.28327 -1.3769,-2.96484 -1.5722,-8.09338 l -0.2921,-7.66975 h 13.0421 c 13.9608,0 14.7716,-0.34701 11.0985,-4.75 -1.0324,-1.2375 -2.7462,-2.25 -3.8085,-2.25 -1.3708,0 -2.2627,-1.10576 -3.0729,-3.80989 -0.6278,-2.09543 -2.3092,-4.90793 -3.7365,-6.25 -2.4238,-2.279 -3.4978,-2.47312 -16.2668,-2.94011 -7.5195,-0.275 -14.2796,-0.89208 -15.0225,-1.37128 -0.8788,-0.56683 -1.1469,-1.89047 -0.7674,-3.78806 0.4132,-2.06614 0.1473,-3.08412 -0.912,-3.49059 -4.3325,-1.66256 -6.1639,7.22664 -2.4591,11.93647 3.4021,4.32509 9.7213,6.07448 19.6948,5.45225 9.248,-0.57696 13.2944,0.25876 13.2944,2.74571 0,1.36175 -5.6423,1.50489 -50.25,1.27475 l -50.25,-0.25925 -0.3033,-3.11619 c -0.2429,-2.49475 0.3553,-3.67166 3,-5.90154 8.8604,-7.47099 17.5599,-7.31716 29.6934,0.52506 3.3976,2.19597 6.6122,3.99267 7.1437,3.99267 2.3005,0 0.6152,-3.14229 -3.7838,-7.05494 -10.2469,-9.11421 -24.3983,-12.4721 -33.6623,-7.9875 -8.7567,4.23904 -12.8325,11.97934 -9.5438,18.12433 1.0247,1.91466 0.5435,1.94553 -26.25,1.68426 l -27.2939,-0.26615 -0.3033,-3.11619 c -0.2429,-2.49475 0.3553,-3.67166 3,-5.90154 8.8604,-7.47099 17.5599,-7.31716 29.6934,0.52506 3.3976,2.19597 6.6122,3.99267 7.1437,3.99267 2.3005,0 0.6152,-3.14229 -3.7838,-7.05494 -10.2469,-9.11421 -24.3983,-12.4721 -33.6623,-7.9875 -8.7468,4.23423 -12.8325,11.97939 -9.5525,18.10818 0.9527,1.78018 0.6739,1.93426 -3.5,1.93426 -5.1134,0 -5.6892,1.14269 -2.3609,4.68555 1.4275,1.51945 3.3167,2.31445 5.5,2.31445 h 3.3257 v 22.4433 c 0,22.05864 0.038,22.46997 2.2225,24 4.74,3.31998 4.7775,3.14357 4.7775,-22.4433 v -24 h 17.5 c 9.625,0 17.5,0.36148 17.5,0.80329 0,0.44181 -3.4875,2.2396 -7.75,3.99509 -9.5351,3.92698 -20.25,10.62729 -20.25,12.66286 0,1.96149 5.1783,9.45143 6.5685,9.50081 0.5877,0.0209 3.425,0.73775 6.3051,1.59305 6.2316,1.85059 11.2867,6.52336 15.8998,14.69728 2.2652,4.01383 3.6558,5.52017 4.7191,5.11214 1.2852,-0.49317 1.5075,-4.10271 1.5075,-24.47151 z m -45.75,18.95803 c -0.9235,-0.92428 -1.25,-6.94493 -1.25,-23.05104 v -21.8 h -3.3775 c -1.8577,0 -3.9357,-0.67253 -4.6179,-1.49452 -1.0986,-1.32376 8.7985,-1.5237 86.6275,-1.75 l 87.8679,-0.25548 0.3104,-2.68738 c 0.5381,-4.65897 -2.8245,-5.89951 -15.4647,-5.70531 -11.4184,0.17543 -15.3108,-0.83714 -18.4185,-4.79137 -1.3302,-1.69252 -1.2977,-1.71399 0.4782,-0.31594 1.4646,1.15308 4.8182,1.5 14.5,1.5 8.2849,0 13.347,0.43038 14.7934,1.25774 3.1422,1.79748 5.3012,5.24486 5.3012,8.46477 0,2.25784 0.4449,2.77749 2.3776,2.77749 1.3076,0 2.9377,0.675 3.6224,1.5 1.095,1.3193 -0.2154,1.5 -10.8775,1.5 h -12.1225 v 9.37755 c 0,7.07926 0.3645,9.68002 1.487,10.61167 2.3355,1.93821 6.1337,0.36553 9.6326,-3.9884 3.363,-4.18479 4.6624,-4.14528 6.9947,0.21267 0.8833,1.65048 0.7833,1.73949 -0.8255,0.73475 -1.5587,-0.97341 -2.5135,-0.4603 -6.4281,3.45427 -5.1427,5.14269 -8.4115,5.85467 -11.4557,2.49519 -1.559,-1.72049 -1.9669,-3.9907 -2.246,-12.5 l -0.341,-10.3977 h -22.409 -22.409 v 3 c 0,2.35756 0.439,3 2.0497,3 2.8624,0 6.9989,2.31276 9.9503,5.56335 l 2.5,2.75337 -3,-2.10441 c -1.65,-1.15743 -4.6875,-2.40377 -6.75,-2.76965 l -3.75,-0.66524 -0.01,18.86129 -0,18.86129 -2.4299,-4 c -1.3365,-2.2 -2.0092,-4.15 -1.4949,-4.33333 0.5196,-0.18533 0.9348,-6.56822 0.9348,-14.375 v -14.04167 l -3.1545,0.6309 c -4.0102,0.80205 -16.8455,8.67201 -16.8455,10.32884 0,0.68728 1.6875,2.12162 3.75,3.18741 2.0625,1.0658 5.775,4.06827 8.25,6.67217 l 4.5,4.73436 -4.8941,-3.65212 c -2.6918,-2.00866 -6.6052,-4.11284 -8.6964,-4.67594 -2.2971,-0.61856 -4.7991,-2.29765 -6.3207,-4.24178 l -2.5184,-3.21795 6.7148,-4.24567 c 3.6932,-2.33513 9.5273,-5.25968 12.9648,-6.49901 5.9272,-2.13694 6.25,-2.42165 6.25,-5.51227 v -3.25894 h -18.5 -18.5 v 23.12245 c 0,20.4399 -0.174,22.97801 -1.5,21.87755 -1.2497,-1.03715 -1.5,-4.89568 -1.5,-23.12245 v -21.87755 h -8.5 -8.5 v 22.22251 c 0,21.13813 -0.082,22.10491 -1.6879,19.81264 -1.1971,-1.70908 -1.3425,-2.52501 -0.5,-2.80584 1.6198,-0.53994 1.6785,-27.80806 0.062,-28.80712 -1.6154,-0.9984 -20.302,8.71782 -20.6804,10.75294 -0.2003,1.07677 0.8704,2.23872 2.9974,3.25293 1.8199,0.86778 4.6589,2.69978 6.3089,4.0711 l 3,2.49331 -4.5,-1.97427 c -2.475,-1.08585 -5.4896,-1.98416 -6.6991,-1.99624 -1.3258,-0.0132 -3.2696,-1.42545 -4.8946,-3.55597 -2.6166,-3.43045 -2.64,-3.57754 -0.8009,-5.01997 2.6578,-2.08455 23.5691,-12.44602 25.1183,-12.44602 0.7514,0 1.2763,-1.23367 1.2763,-3 v -3 h -19.9816 -19.9815 l -0.2685,23.05104 c -0.2147,18.4415 -0.5184,22.80087 -1.5184,21.8 z m 150.3926,-2.84803 c -3.4806,-1.08107 -6.0376,-3.27602 -9.789,-8.40305 -3.5784,-4.89065 -3.7495,-6.81821 -0.2344,-2.64077 3.7576,4.46576 7.4591,6.04081 14.1963,6.04081 8.2763,0 13.2473,-3.80112 15.0393,-11.5 l 0.9311,-4 0.107,3.93428 c 0.2955,10.85582 -10.4189,19.62232 -20.2503,16.56873 z m -115.1426,-12.06714 c -1.65,-1.7626 -4.9427,-4.45754 -7.3172,-5.98876 l -4.3172,-2.78403 4.3172,-2.50847 c 5.9584,-3.46205 9.7266,-5.07855 10.3607,-4.44451 0.2942,0.29425 0.4048,4.67398 0.2457,9.73274 l -0.2892,9.19775 z m 60.2399,-0.20279 c -0.968,-1.48146 -4.0458,-4.23288 -6.8396,-6.11428 l -5.0794,-3.42072 6.6412,-3.71401 c 3.6527,-2.04271 6.8607,-3.49463 7.1288,-3.2265 0.2682,0.26814 0.3574,4.69087 0.1983,9.82829 -0.2882,9.30943 -0.2951,9.33173 -2.0493,6.64722 z m 14.9151,0.43818 c -4.8008,-5.30486 1.6208,-7.98552 8.2656,-3.45044 0.7237,0.49387 -4.2074,5.27918 -5.4399,5.27918 -0.6439,0 -1.9154,-0.82293 -2.8257,-1.82874 z m -114.6447,-39.65886 c -2.1623,-2.60543 1.314,-8.22121 7.4153,-11.97885 3.9807,-2.45166 5.9948,-3.02519 10.5,-2.98995 3.0659,0.024 6.397,0.51148 7.4023,1.08333 1.4245,0.8103 0.5418,1.04157 -4,1.04805 -8.9632,0.0128 -17.4004,5.21043 -19.1643,11.80592 -0.6754,2.52548 -0.8457,2.60704 -2.1533,1.0315 z m 61,0 c -2.1623,-2.60543 1.314,-8.22121 7.4153,-11.97885 3.9807,-2.45166 5.9948,-3.02519 10.5,-2.98995 3.0659,0.024 6.397,0.51148 7.4023,1.08333 1.4245,0.8103 0.5418,1.04157 -4,1.04805 -8.9632,0.0128 -17.4004,5.21043 -19.1643,11.80592 -0.6754,2.52548 -0.8457,2.60704 -2.1533,1.0315 z m 201.9897,35.9876 v -24.5 h 4 c 4.5653,0 5.0526,-1.25067 1.8257,-4.68555 -2.1639,-2.30339 -2.2977,-2.31445 -28,-2.31445 -28.9623,0 -29.1002,0.0412 -21.6025,6.45901 2.5067,2.14567 6.4694,4.24419 9.75,5.16327 9.6575,2.70567 11.2796,6.92258 5.4155,14.07893 -3.4536,4.21466 -3.6939,4.33253 -5.5,2.69801 -1.0388,-0.94006 -1.8887,-2.34745 -1.8887,-3.12753 0,-1.90402 -3.0093,-1.21523 -4.3928,1.00546 -1.5533,2.49331 2.0769,8.64572 6.5666,11.12895 4.8938,2.70673 8.1835,1.5878 12.1176,-4.1215 6.1477,-8.92185 8.0929,-10.68447 10.4181,-9.44008 3.1622,1.69236 4.5536,6.67955 4.8149,17.25868 0.2439,9.87752 1.9592,14.8968 5.0906,14.8968 1.1423,0 1.385,-4.29311 1.385,-24.5 z m -3.1877,18.5 c -0.3782,-0.825 -0.84,-6.01106 -1.0263,-11.52457 -0.4232,-12.53095 -2.3869,-16.80595 -7.9361,-17.27692 -3.8166,-0.32393 -5.8005,1.42083 -12.1647,10.69817 -2.9808,4.34524 -5.697,5.16942 -8.9352,2.71127 -2.3976,-1.82007 -2.1945,-2.60795 0.6722,-2.60795 1.6516,0 3.7176,-1.51126 6.4936,-4.75 2.2392,-2.6125 4.0742,-5.26002 4.0778,-5.88337 0,-0.62335 0.7939,-1.3943 1.7564,-1.71321 0.9625,-0.31892 2.7268,-1.30254 3.9206,-2.18583 2.0638,-1.52709 2.3646,-1.43063 6.1212,1.96321 2.1728,1.96306 4.4586,3.5692 5.0794,3.5692 0.7548,0 1.1288,-2.98205 1.1288,-9 v -9 h -12.5 c -13.6937,0 -14.423,0.38338 -9.8361,5.17101 l 2.6638,2.78045 -3.8753,-1.97573 c -2.1314,-1.08665 -4.473,-1.97573 -5.2036,-1.97573 -1.9265,0 -8.6616,-3.58762 -10.1881,-5.42691 -1.181,-1.42303 0.8884,-1.57309 21.6944,-1.57309 19.2245,0 23.2044,0.24623 24.2449,1.5 1.0611,1.27854 0.7867,1.5 -1.8591,1.5 h -3.104 l -0.2684,23.25 c -0.1477,12.7875 -0.5779,22.575 -0.9562,21.75 z m -6.673,-34.03327 c -2.557,-2.13019 -7.6069,-2.63719 -8.6971,-0.87317 -0.5401,0.87398 -5.4422,-6.05784 -5.4422,-7.69563 0,-0.21886 3.825,-0.39793 8.5,-0.39793 h 8.5 v 5.5 c 0,3.025 -0.1125,5.48503 -0.25,5.46673 -0.1375,-0.0183 -1.3123,-0.9183 -2.6107,-2 z m -212.1393,35.96108 c 0,-4.64011 -15.3492,-15.9786 -18.0179,-13.30988 -2.0387,2.03866 -0.036,6.20905 3.5493,7.39242 1.8356,0.60579 5.2748,2.82076 7.6428,4.92215 4.4189,3.92142 6.8258,4.27239 6.8258,0.99531 z m -13.25,-8.22723 c -1.5125,-0.59767 -2.75,-1.46135 -2.75,-1.9193 0,-0.45795 1.35,-0.13453 3,0.71872 1.65,0.85325 3,1.7648 3,2.02568 0,0.26088 -0.1125,0.42645 -0.25,0.36794 -0.1375,-0.0585 -1.4875,-0.59538 -3,-1.19304 z m 191.9288,8.69404 c 0.9735,-2.53688 -1.4973,-11.46786 -4.1261,-14.91446 -1.4334,-1.87923 -6.4553,-5.27453 -12.5085,-8.45696 -11.0232,-5.79532 -15.0442,-9.5639 -15.0442,-14.09993 0,-3.75522 1.2523,-3.74247 2.6753,0.0272 1.4222,3.76803 6.7731,7.04095 11.519,7.04575 5.1073,0.005 8.7703,-3.3129 9.4774,-8.58507 2.0926,-15.60123 -20.6866,-20.02413 -28.3466,-5.50391 -2.7074,5.13202 -2.9449,9.67343 -0.7773,14.86119 2.4395,5.83863 5.1507,8.03661 17.6754,14.32972 12.2356,6.14778 15.4822,9.10399 14.2528,12.97769 -1.0862,3.42222 3.9228,5.65455 5.2028,2.31875 z m -7.1788,-12.0207 c -1.1,-0.85936 -6.6232,-3.78883 -12.2739,-6.50993 -12.479,-6.00928 -16.3059,-10.23148 -16.1009,-17.76403 l 0.1252,-4.59996 0.6927,4.25524 c 0.9165,5.62942 4.7178,9.49306 14.0569,14.2874 9.2544,4.75083 12.6748,7.048 14.6118,9.81347 1.7713,2.52894 1.5779,2.61905 -1.1118,0.51781 z m -16.6392,-23.34065 c -1.2984,-1.0817 -1.8248,-1.9817 -1.1698,-2 0.6551,-0.0183 1.4691,0.41673 1.809,0.96673 0.9391,1.51937 6.7776,1.19434 9.2151,-0.51301 1.2306,-0.86188 2.3333,-2.90603 2.5625,-4.75 0.3942,-3.17102 0.4056,-3.16056 0.5624,0.51301 0.2976,6.97397 -7.4214,10.4134 -12.9792,5.78327 z m 0.6729,-4.99603 c -2.5536,-2.82178 -1.2942,-5.03724 2.8635,-5.03724 3.139,0 6.6028,2.03096 6.6028,3.87143 0,3.31469 -6.7673,4.14812 -9.4663,1.16581 z m -11.5337,-1.64994 c 0,-1.81334 6.5774,-7.4057 9.7957,-8.32869 4.0662,-1.16616 9.3282,0.26217 11.7779,3.197 1.0303,1.23441 1.2328,1.68189 0.4499,0.99439 -0.8213,-0.72124 -4.128,-1.25 -7.8171,-1.25 -5.4212,0 -6.4685,0.28652 -6.8862,1.88382 -0.3484,1.33225 -1.0968,1.72585 -2.556,1.34427 -1.3204,-0.3453 -2.5494,0.12536 -3.4137,1.3073 -0.7428,1.01578 -1.3505,1.39914 -1.3505,0.85191 z"
     style="fill:#000000" />
  <path
     id="path4017"
     d="m 1645.8494,900.0452 c -5.695,-10.05 -13.9753,-17.83537 -21.6968,-20.40006 -4.3266,-1.43706 -7.4473,-3.57308 -10.0839,-6.90204 l -3.8183,-4.82093 8.0731,-5.25976 c 4.4401,-2.89288 11.971,-6.9001 16.7352,-8.90494 6.2621,-2.63516 8.7741,-4.36864 9.066,-6.25619 0.3951,-2.5552 -0.071,-2.61102 -21.7971,-2.61102 h -22.201 v 30.54672 30.54672 l -3.159,-2.96773 -3.159,-2.96774 v -27.57898 -27.57899 h -9.4541 -9.4542 l -0.3387,29.88589 -0.3388,29.88589 -5.6862,-8.70672 c -6.3211,-9.67885 -14.1106,-15.44451 -22.3607,-16.55108 -4.0579,-0.54428 -5.5109,-1.57246 -8.2554,-5.84155 -1.832,-2.84955 -3.0951,-5.5624 -2.807,-6.02855 1.0749,-1.73918 17.9377,-11.11152 26.4733,-14.7138 5.196,-2.19288 9.0137,-4.59876 9.2537,-5.83152 0.3693,-1.89661 -1.9108,-2.09856 -23.6925,-2.09856 h -24.1011 v 30.54672 30.54672 l -3.159,-2.96773 -3.159,-2.96774 v -27.57898 -27.57899 h -4.2024 c -2.8487,0 -5.1582,-1.01756 -7.17,-3.159 l -2.9678,-3.15901 h 8.0383 8.0383 l -3.3954,-3.54405 c -1.8675,-1.94922 -3.3933,-4.65017 -3.3907,-6.00211 0.01,-4.04122 4.6035,-10.34055 10.2837,-14.09581 4.5723,-3.02283 6.6061,-3.52547 14.2648,-3.52547 10.8608,0 20.1488,4.04234 29.4231,12.80561 4.7049,4.4456 5.0526,5.00095 1.5689,2.50544 -17.7331,-12.70266 -35.6,-12.9899 -45.9093,-0.73809 -3.6052,4.28458 -4.0221,6.39032 -2.0099,10.15035 1.2481,2.33208 3.0258,2.44413 38.7763,2.44413 h 37.4682 l -3.3954,-3.54405 c -1.8675,-1.94922 -3.3933,-4.65017 -3.3907,-6.00211 0.01,-4.04122 4.6035,-10.34055 10.2837,-14.09581 4.5723,-3.02283 6.6062,-3.52547 14.2648,-3.52547 10.8609,0 20.1488,4.04234 29.4232,12.80561 4.7048,4.4456 5.0526,5.00095 1.5688,2.50544 -17.7331,-12.70266 -35.6,-12.9899 -45.9092,-0.73809 -3.6053,4.28458 -4.0222,6.39032 -2.0099,10.15035 1.267,2.3674 3.3313,2.44413 65.747,2.44413 58.8075,0 64.509,-0.18284 65.2417,-2.09222 0.5152,-1.34255 -0.2428,-2.93895 -2.1154,-4.45531 -2.5112,-2.03341 -4.8764,-2.32609 -16.9535,-2.09778 -11.0752,0.20935 -14.885,-0.18195 -18.0651,-1.85549 -7.3318,-3.85834 -9.9266,-10.36049 -6.1767,-15.47743 1.672,-2.28151 1.7823,-2.14418 1.5795,1.96635 -0.1911,3.87306 0.3285,4.69625 4.2046,6.66126 3.6991,1.87531 6.3043,2.10818 15.9247,1.42349 13.2141,-0.94044 19.3302,0.49422 23.2272,5.4484 1.4008,1.78087 2.547,4.86711 2.547,6.85834 0,2.94699 0.5466,3.62039 2.9387,3.62039 1.6163,0 4.2742,1.42156 5.9065,3.15901 l 2.9677,3.159 h -16.6471 -16.6471 v 10.5859 c 0,15.34475 3.562,17.12338 12.4042,6.19387 4.6582,-5.75788 6.9244,-5.06131 11.2884,3.46976 5.3982,10.55303 2.4322,24.69136 -6.3138,30.09668 -16.4919,10.1926 -32.3939,-0.15901 -38.6857,-25.18305 -3.794,-15.08925 -4.3415,-20.17385 -2.0789,-19.30561 1.0668,0.40935 1.9046,2.28038 1.9046,4.25336 0,5.86261 4.7916,19.47357 8.8067,25.0163 4.6059,6.35828 9.5897,9.09887 16.5464,9.09887 10.5792,0 20.2995,-9.30741 18.2497,-17.47456 -1.6069,-6.40229 -2.869,-6.49986 -8.6966,-0.67226 -4.3919,4.39184 -6.4028,5.5108 -9.9039,5.5108 -7.4781,0 -9.1372,-3.17622 -9.6382,-18.4515 l -0.4309,-13.13856 h -27.0524 c -25.5945,0 -27.0525,0.1275 -27.0525,2.36571 0,1.75919 1.2224,2.56117 4.7678,3.12811 4.7773,0.76392 12.3486,7.18166 15.1341,12.82842 5.0241,10.18457 1.3676,21.9527 -6.8582,22.07285 -3.8928,0.0569 -8.1357,-5.65541 -6.8347,-9.20162 1.1747,-3.20188 8.0062,-4.49048 10.9322,-2.06211 1.4801,1.22838 1.8129,1.00077 1.8129,-1.24014 0,-6.59943 -6.9475,-14.20159 -14.19,-15.52722 l -3.4493,-0.63134 -0.3415,25.40782 -0.3415,25.40783 z m -74.7856,-25.46028 c 0,-13.32859 -0.3016,-15.79503 -1.9315,-15.79503 -1.958,0 -15.2436,6.35776 -20.5472,9.83281 -2.892,1.89492 -2.888,1.90154 3.3087,5.44065 3.4124,1.94888 8.6951,6.39178 11.7394,9.87311 3.0444,3.48134 5.9616,6.3553 6.4829,6.38658 0.5212,0.0313 0.9477,-7.05086 0.9477,-15.73812 z m 72.8252,-16.67991 c -0.63,-0.63004 -13.6096,5.90127 -18.9793,9.55033 l -3.6479,2.47905 5.0516,2.57716 c 2.7784,1.41743 7.8317,5.6344 11.2296,9.37105 l 6.1779,6.79389 0.3562,-15.11364 c 0.1959,-8.3125 0.1113,-15.35853 -0.1881,-15.65784 z m 198.6653,45.56087 c -1.5718,-1.77289 -2.1937,-5.5859 -2.5478,-15.62253 -0.5644,-15.998 -3.1372,-22.10365 -9.314,-22.10365 -3.0967,0 -4.7463,1.41516 -10.2478,8.79144 -3.6063,4.8353 -7.5998,9.16012 -8.8744,9.61072 -3.8507,1.36127 -8.8437,-1.22824 -12.4767,-6.47068 -2.8877,-4.16697 -3.1749,-5.27471 -1.7974,-6.93441 1.4402,-1.73532 1.8364,-1.50647 3.262,1.88415 2.3244,5.52805 5.6964,4.91949 11.7076,-2.11293 3.9906,-4.66863 4.9446,-6.66839 4.3705,-9.16111 -1.4611,-6.34427 -4.0028,-8.68204 -11.8261,-10.87714 -5.1355,-1.44096 -9.3812,-3.72216 -12.9687,-6.96807 l -5.3335,-4.82576 31.6857,-0.0518 31.6856,-0.0518 2.9678,3.15901 2.9677,3.159 h -5.2522 -5.2522 l -0.3384,30.46047 c -0.3154,28.39739 -0.4792,30.30163 -2.4177,28.11515 z m -2.3432,-48.4668 v -10.10882 h -14.6624 -14.6623 l 3.8007,4.32875 c 2.0904,2.38082 4.1815,6.06277 4.647,8.1821 l 0.8464,3.85336 3.553,-2.62684 c 4.2509,-3.14287 7.073,-2.51059 12.0689,2.70401 1.9898,2.07694 3.7958,3.77626 4.0133,3.77626 0.2174,0 0.3954,-4.54897 0.3954,-10.10882 z m -282.3322,44.1304 c -2.7245,-2.03148 -6.843,-4.37679 -9.1522,-5.2118 -4.1435,-1.49831 -6.0639,-6.06494 -2.5505,-6.06494 4.4729,0 19.1995,12.42733 17.1524,14.47441 -0.2728,0.27275 -2.7251,-1.1662 -5.4497,-3.19767 z m 228.9477,0.39294 c 0.8117,-5.53018 -3.675,-9.76512 -17.1239,-16.16305 -20.3793,-9.69494 -24.2618,-13.91936 -24.2618,-26.39849 0,-6.27523 0.4772,-7.53714 4.5587,-12.05493 11.0566,-12.23831 29.5585,-7.87889 29.5585,6.96454 0,7.47059 -3.1261,11.05483 -9.642,11.05483 -7.0484,0 -10.4207,-2.20053 -13.2808,-8.6661 -2.7462,-6.20841 -4.1079,-6.84806 -6.2112,-2.91789 -3.921,7.32637 2.4257,15.64536 17.7616,23.28144 11.7235,5.83739 15.0203,8.36304 18.6317,14.27358 3.1719,5.19132 3.9136,14.11962 1.173,14.11962 -1.1124,0 -1.504,-1.17562 -1.1638,-3.49355 z m -13.8676,-43.96318 c 3.3111,-2.31922 3.6218,-5.88424 0.7619,-8.74412 -1.4754,-1.47538 -3.8522,-1.94133 -8.5175,-1.66975 -7.9816,0.46463 -9.0505,3.06968 -3.5263,8.59393 4.2437,4.24367 7.1518,4.71278 11.2819,1.81994 z"
     style="fill:#000000;fill-opacity:1;fill-rule:nonzero;stroke-width:0.1;stroke-miterlimit:4;stroke-dasharray:none" />
</svg>
