<?xml version="1.0" encoding="UTF-8" standalone="no"?>
<svg xmlns="http://www.w3.org/2000/svg" width="385" height="30" version="1.0">
	<path style="line-height:150%;text-align:center" d="M16.225 9.804c0-1.018-.128-1.941-.382-2.77-.255-.828-.609-1.538-1.063-2.132a4.75 4.75 0 00-1.616-1.37 4.386 4.386 0 00-2.028-.479c-.749 0-1.457.165-2.126.494a6.99 6.99 0 00-1.856 1.347A10.13 10.13 0 005.62 6.892c-.454.764-.84 1.58-1.16 2.448a16.21 16.21 0 00-.733 2.701c-.17.933-.255 1.854-.255 2.762 0 1.037.133 1.968.397 2.791s.624 1.522 1.078 2.096c.454.573.99 1.015 1.609 1.324a4.41 4.41 0 002.005.464 4.69 4.69 0 002.126-.501 6.974 6.974 0 001.856-1.37c.568-.579 1.08-1.25 1.534-2.013a14.75 14.75 0 001.16-2.447c.319-.868.563-1.759.733-2.672.17-.913.255-1.803.255-2.671zm3.487 0a15.652 15.652 0 01-1.347 6.316c-.44.988-.983 1.903-1.632 2.746a11.436 11.436 0 01-2.237 2.208 10.222 10.222 0 01-2.814 1.474c-1.033.354-2.148.532-3.345.532-1.228 0-2.35-.202-3.368-.607a7.584 7.584 0 01-2.634-1.728A7.847 7.847 0 01.614 18.05C.204 17.003 0 15.835 0 14.548a14.334 14.334 0 011.46-6.301 13.633 13.633 0 011.72-2.68 11.75 11.75 0 012.276-2.125 10.649 10.649 0 012.769-1.406 9.859 9.859 0 013.18-.51c1.267 0 2.415.218 3.443.652 1.027.434 1.9 1.025 2.619 1.773a7.833 7.833 0 011.661 2.635c.39 1.007.584 2.08.584 3.218zm11.734 3.427c0-.449-.047-.905-.142-1.37a4.909 4.909 0 00-.434-1.264 2.81 2.81 0 00-.74-.928 1.65 1.65 0 00-1.063-.36 2.7 2.7 0 00-1.108.248c-.37.164-.706.349-1.01.553a7.472 7.472 0 00-.786.6c-.22.194-.37.32-.45.38l-1.825 9.505c.09.05.217.127.382.232.164.105.356.207.576.307.22.1.454.187.703.262.25.075.51.112.779.112.558 0 1.072-.125 1.541-.374.47-.25.893-.586 1.272-1.01.38-.425.714-.916 1.003-1.475.29-.558.529-1.145.719-1.758.19-.614.334-1.235.434-1.864.1-.628.15-1.227.15-1.796zm3.039-.12a10.539 10.539 0 01-1.16 4.79 10.44 10.44 0 01-1.355 2.02 9.232 9.232 0 01-1.766 1.602 8.36 8.36 0 01-2.11 1.055 7.431 7.431 0 01-2.38.382c-.46 0-.873-.065-1.242-.195-.37-.13-.679-.25-.928-.359l-.973 4.924c-.04.17-.018.307.067.412.085.105.262.172.531.202l1.931.165v1.152h-7.723V28.11l1.602-.165c.429-.03.673-.235.733-.614l3.457-17.766-2.574-.284v-.883l4.64-.958h1.197l-.374 1.9c.26-.169.556-.364.89-.583.335-.22.692-.427 1.07-.621a8.07 8.07 0 011.19-.494 4.065 4.065 0 011.265-.202c.779 0 1.425.167 1.939.501.514.334.923.771 1.227 1.31.304.539.521 1.147.651 1.826.13.678.195 1.357.195 2.035zm17.197 8.861c-.13.05-.357.127-.68.232-.325.105-.687.215-1.086.33-.4.114-.808.214-1.227.299a5.67 5.67 0 01-1.108.127c-.18 0-.426-.018-.74-.053a3.154 3.154 0 01-.906-.239 1.703 1.703 0 01-.704-.546c-.18-.24-.224-.564-.134-.973l1.87-9.415c.07-.409.073-.748.008-1.017a1.5 1.5 0 00-.314-.651 1.165 1.165 0 00-.502-.345 1.668 1.668 0 00-.539-.097c-.25 0-.556.072-.92.217a8.266 8.266 0 00-1.153.576 11.203 11.203 0 00-2.342 1.871l-2.11 10.298h-2.86L38.9 9.564l-2.574-.284v-.883l4.625-.958h1.227l-.569 2.858c.34-.339.729-.68 1.168-1.025a9.897 9.897 0 011.407-.92 8.974 8.974 0 011.549-.659 5.15 5.15 0 011.564-.254c1.117 0 1.913.31 2.387.928.474.618.591 1.616.352 2.993l-1.632 8.651c-.05.29-.027.52.068.689.094.17.22.3.374.389.154.09.317.147.486.172.17.025.3.037.39.037.279 0 .583-.04.912-.12.33-.08.669-.174 1.018-.284zm11.45-11.405c.01-.05-.027-.165-.112-.344a5.819 5.819 0 00-.307-.562 3.556 3.556 0 00-.382-.516c-.134-.15-.247-.224-.336-.224-.779 0-1.475.127-2.088.381a5.235 5.235 0 00-1.61 1.033c-.458.434-.85.935-1.174 1.504a9.435 9.435 0 00-.786 1.781c-.2.619-.344 1.243-.434 1.871a12.7 12.7 0 00-.135 1.796c0 .43.035.858.105 1.287.07.43.192.819.367 1.168.174.35.414.634.718.853.304.22.696.33 1.175.33.36 0 .718-.08 1.078-.24a6.5 6.5 0 001.003-.554c.309-.21.578-.419.808-.629.23-.21.399-.369.509-.479zm4.505 11.195l-.658.277c-.32.135-.676.27-1.07.404a16.66 16.66 0 01-1.198.36 4.289 4.289 0 01-1.055.157 2.83 2.83 0 01-.935-.135 1.522 1.522 0 01-.63-.404 1.86 1.86 0 01-.38-.659 3.743 3.743 0 01-.18-.898c-.23.22-.5.452-.809.696a7.78 7.78 0 01-1.025.681c-.374.21-.773.382-1.197.517a4.35 4.35 0 01-1.325.202c-.599 0-1.125-.085-1.579-.255a3.826 3.826 0 01-1.175-.68 3.783 3.783 0 01-.816-.988 6.074 6.074 0 01-.516-1.168 6.584 6.584 0 01-.27-1.227 9.843 9.843 0 01-.074-1.175 11.569 11.569 0 011.01-4.707c.334-.744.751-1.44 1.25-2.088a8.542 8.542 0 011.729-1.692 8.101 8.101 0 012.185-1.13c.803-.274 1.684-.411 2.642-.411.279 0 .556.032.83.097a4.509 4.509 0 011.43.606c.2.13.369.265.509.404l.449-.733h2.095c-.05.12-.105.262-.165.427l-.18.5c-.06.17-.112.33-.156.48-.045.15-.073.264-.083.344a78.634 78.634 0 00-.71 3.053c-.145.679-.295 1.39-.45 2.133a80.955 80.955 0 00-.71 3.877c-.08.514-.12.885-.12 1.115 0 .539.114.908.344 1.107.23.2.554.3.973.3.1 0 .247-.023.441-.067a11.9 11.9 0 00.606-.158 80.75 80.75 0 01.973-.269zM80.285 9.504c0 .36-.065.646-.195.86a1.22 1.22 0 01-.554.487 2.75 2.75 0 01-.86.217 10.97 10.97 0 01-1.13.053l-.734-1.467c-.379.16-.786.436-1.22.83a10.44 10.44 0 00-1.234 1.348c-.39.504-.729 1.022-1.018 1.556-.29.534-.48 1.026-.569 1.475l-1.601 7.723h-2.844L70.96 9.564l-2.574-.284v-.883l4.625-.958h1.227l-.644 3.098c.629-.968 1.342-1.726 2.14-2.275.799-.549 1.662-.823 2.59-.823.37 0 .678.067.928.202s.451.307.606.516c.155.21.265.434.33.674.064.24.097.464.097.673zm18.993 3.697c0-.688-.08-1.27-.24-1.744-.159-.473-.353-.86-.583-1.16-.23-.299-.471-.513-.726-.643-.254-.13-.471-.195-.651-.195-.25 0-.524.04-.823.12-.3.08-.606.192-.92.337a8.964 8.964 0 00-.936.501c-.31.19-.594.394-.853.614l-1.707 9.28c.1.15.235.294.405.434a3.521 3.521 0 001.302.659c.26.07.529.104.808.104.469 0 .915-.12 1.34-.36a4.635 4.635 0 001.182-.972c.364-.41.696-.888.995-1.437.3-.549.552-1.13.756-1.744a13.25 13.25 0 00.48-1.9 10.95 10.95 0 00.171-1.894zm3.039-.12c0 .639-.07 1.325-.21 2.058-.14.734-.357 1.465-.651 2.193a11.355 11.355 0 01-1.13 2.11 8.281 8.281 0 01-1.646 1.797 7.91 7.91 0 01-2.2 1.25c-.829.314-1.762.47-2.8.47a9.362 9.362 0 01-2.566-.358 8.513 8.513 0 01-2.343-1.063L92.393 2.11l-2.739-.269V.913L94.444 0h1.197L93.89 9.28c.28-.25.586-.487.92-.711.335-.225.681-.42 1.04-.584a6.82 6.82 0 011.108-.397c.38-.1.754-.15 1.123-.15.788 0 1.452.175 1.99.525.54.349.976.798 1.31 1.347.334.548.574 1.155.719 1.818.144.664.217 1.315.217 1.953zm23.334-2.544c0 .559-.138 1.073-.412 1.542a4.732 4.732 0 01-1.108 1.272 8.169 8.169 0 01-1.601 1.01c-.604.295-1.24.544-1.908.749a18.06 18.06 0 01-2.021.493c-.678.125-1.322.202-1.93.232-.02.1-.046.212-.076.337l-.09.382c-.03.13-.057.257-.082.382a1.673 1.673 0 00-.037.321c0 .679.027 1.26.082 1.744.055.484.182.883.382 1.197.2.315.491.547.876.696.384.15.91.225 1.579.225.688 0 1.446-.25 2.275-.748.828-.5 1.796-1.243 2.903-2.23v1.93c-.28.28-.626.586-1.04.92a9.766 9.766 0 01-1.422.944 9.287 9.287 0 01-1.744.733 6.695 6.695 0 01-1.99.292c-.599 0-1.135-.03-1.61-.09a3.416 3.416 0 01-1.256-.397 2.81 2.81 0 01-.936-.868c-.26-.374-.464-.875-.614-1.504-.339.48-.716.896-1.13 1.25a7.218 7.218 0 01-1.294.89c-.45.24-.9.42-1.355.54a5.16 5.16 0 01-1.31.179c-.598 0-1.125-.085-1.579-.255a3.826 3.826 0 01-1.174-.68 3.783 3.783 0 01-.816-.988 6.073 6.073 0 01-.517-1.168 6.584 6.584 0 01-.269-1.227 9.84 9.84 0 01-.075-1.175c0-.788.085-1.584.255-2.387.17-.804.421-1.577.756-2.32.334-.744.75-1.44 1.25-2.088a8.542 8.542 0 011.728-1.692 8.101 8.101 0 012.185-1.13c.804-.274 1.684-.411 2.642-.411a2.721 2.721 0 011.37.352c.184.104.351.222.5.351.15.13.295.265.435.404l.494-.733h2.05a6.09 6.09 0 00-.104.314c-.04.13-.085.27-.135.42l-.135.433c-.04.14-.08.26-.12.36A10.167 10.167 0 01119.641 8a5.413 5.413 0 012.328-.531c.708 0 1.297.117 1.766.351.469.235.846.517 1.13.846.284.33.486.669.606 1.018.12.35.18.634.18.853zm-12.049-1.616c-.778 0-1.474.127-2.088.381a5.235 5.235 0 00-1.609 1.033 6.47 6.47 0 00-1.175 1.504 9.435 9.435 0 00-.786 1.781c-.2.619-.344 1.243-.434 1.871-.09.629-.134 1.228-.134 1.796 0 .43.034.858.104 1.287.07.43.192.819.367 1.168.175.35.414.634.718.853.305.22.696.33 1.175.33.3 0 .622-.066.966-.195a5.91 5.91 0 00.995-.487 6.46 6.46 0 00.868-.628 3.98 3.98 0 00.599-.621l1.571-8.397zm9.355 1.586c0-.4-.15-.743-.45-1.033-.299-.289-.713-.434-1.242-.434-.33 0-.658.085-.988.255a4.03 4.03 0 00-.943.688c-.299.29-.583.624-.853 1.003-.27.38-.516.778-.74 1.197a10.295 10.295 0 00-.951 2.5c.429-.04.88-.122 1.355-.247.473-.125.94-.282 1.399-.471.459-.19.896-.407 1.31-.652a5.766 5.766 0 001.085-.815c.31-.3.556-.616.74-.95.185-.335.278-.682.278-1.04zm18.514 11.375a11.77 11.77 0 01-1.916.733c-.349.1-.69.183-1.025.248a4.619 4.619 0 01-.86.097c-.25 0-.495-.043-.734-.127a3.564 3.564 0 01-1.721-1.325 9.108 9.108 0 01-.472-.816 58.535 58.535 0 01-1.145-2.35c-.2-.434-.391-.853-.576-1.257-.185-.404-.354-.78-.509-1.13-.154-.35-.287-.633-.396-.853l-1.407 1.257-1.258 6.227h-2.814L130.71 2.11l-2.695-.269V.913L132.76 0h1.227l-2.843 14.249 4.954-5.119c.29-.3.554-.556.793-.77.24-.215.472-.39.696-.525.225-.134.452-.234.681-.299a2.74 2.74 0 01.748-.097c.34 0 .637.05.891.15.254.1.464.229.629.389.164.16.287.339.366.538.08.2.115.395.105.584 0 .35-.162.711-.486 1.085-.325.374-.846.686-1.564.936l-1.048-1.108c-.28.22-.581.464-.906.734-.324.269-.65.543-.98.823-.33.28-.644.554-.943.823-.3.27-.569.509-.808.718.13.26.272.584.426.973.155.39.32.806.494 1.25.175.444.365.898.57 1.362.204.464.42.906.65 1.325.23.429.472.84.726 1.234.254.395.516.744.786 1.048.27.304.544.546.823.726.28.18.554.27.823.27.11 0 .245-.013.404-.038.16-.025.33-.057.51-.097.179-.04.356-.09.53-.15.175-.06.327-.12.457-.18zm16.45-.03c-.19.11-.452.23-.787.36a13.31 13.31 0 01-2.275.636c-.404.074-.77.112-1.1.112-.578 0-1.008-.097-1.287-.292-.28-.195-.471-.419-.576-.673a1.821 1.821 0 01-.142-.771c.01-.26.015-.45.015-.57-.809.77-1.654 1.345-2.537 1.73a7.106 7.106 0 01-2.867.576c-.708 0-1.287-.125-1.736-.374-.449-.25-.788-.564-1.018-.943a3.023 3.023 0 01-.419-1.243 4.133 4.133 0 01.045-1.272l1.99-9.564-2.573-.284v-.883l4.624-.958h1.258l-2.44 11.69c-.06.259-.047.506.037.74.085.235.21.44.375.614.164.174.351.314.56.419.21.105.415.157.615.157.369 0 .74-.052 1.115-.157a6.64 6.64 0 001.115-.427 8.34 8.34 0 002.006-1.377l2.32-11.285h2.858l-2.455 11.794c-.07.32-.07.586 0 .801a1.266 1.266 0 00.816.83c.185.06.362.09.531.09.2 0 .464-.03.794-.09.329-.06.708-.214 1.137-.463zm12.647-12.348c0 .36-.065.646-.195.86a1.22 1.22 0 01-.554.487 2.75 2.75 0 01-.86.217 10.97 10.97 0 01-1.13.053l-.734-1.467c-.379.16-.786.437-1.22.83a10.44 10.44 0 00-1.234 1.348 11.56 11.56 0 00-1.018 1.556c-.29.534-.48 1.026-.569 1.475l-1.602 7.723h-2.843l2.634-13.022-2.574-.284v-.883l4.624-.958h1.228l-.644 3.098c.629-.968 1.342-1.726 2.14-2.275.799-.549 1.662-.823 2.59-.823.369 0 .678.067.928.202s.451.307.606.516c.155.21.264.434.33.674.064.24.097.464.097.673zm21.448-7.603c0 .489-.18.866-.54 1.13-.358.264-.822.436-1.391.516l-2.395-1.93c-.22.18-.424.439-.613.778-.19.34-.365.723-.524 1.152-.16.43-.307.886-.442 1.37-.135.484-.252.953-.352 1.407-.1.454-.184.878-.254 1.272s-.125.72-.165.98h3.742v1.527h-4.026l-.157 1.197c-.075.57-.167 1.228-.277 1.976l-.352 2.402c-.125.853-.25 1.677-.374 2.47-.125.793-.247 1.524-.367 2.193-.12.668-.224 1.192-.314 1.571a13.376 13.376 0 01-1.444 3.517 14.01 14.01 0 01-1.108 1.617 9.095 9.095 0 01-1.287 1.332c-.454.38-.928.679-1.422.898-.494.22-.995.33-1.504.33-.39 0-.711-.066-.966-.195a1.773 1.773 0 01-.59-.457 1.678 1.678 0 01-.293-.509 1.304 1.304 0 01-.082-.366c0-.39.075-.691.224-.906.15-.214.34-.406.57-.576l3.127.808c.27-.33.517-.733.741-1.212.225-.48.43-1.008.614-1.587.185-.578.352-1.2.501-1.863.15-.664.285-1.35.404-2.058.26-1.447.5-3.06.719-4.842.22-1.781.484-3.68.793-5.695l-2.365.24.03-1.198 2.664-.883c.1-.539.237-1.12.412-1.744.175-.623.392-1.242.651-1.856.26-.613.566-1.205.92-1.773.355-.57.761-1.07 1.22-1.505.46-.434.976-.78 1.55-1.04A4.58 4.58 0 01189.202 0c.519 0 .958.065 1.317.195.36.13.649.292.868.486.22.195.38.402.479.621.1.22.15.42.15.599zm10.896 8.022c-.12.12-.294.34-.524.659-.23.32-.466.678-.71 1.078-.245.399-.485.81-.72 1.234-.234.424-.42.796-.56 1.115a85.52 85.52 0 00-.771 1.782 92.09 92.09 0 01-.988 2.252 77.632 77.632 0 01-1.19 2.5c-.43.863-.888 1.708-1.377 2.537a39.46 39.46 0 01-1.534 2.387 15.592 15.592 0 01-1.729 2.095 8.606 8.606 0 01-1.923 1.482 4.273 4.273 0 01-2.103.561c-.559 0-1.023-.07-1.392-.21-.37-.139-.664-.311-.883-.516a1.695 1.695 0 01-.457-.658 1.892 1.892 0 01-.127-.636c0-.23.052-.452.157-.666.105-.215.252-.404.442-.569.19-.165.414-.297.673-.397.26-.1.54-.16.838-.18l1.782 1.782c.319-.03.633-.157.942-.382.31-.224.637-.561.98-1.01a18.63 18.63 0 001.13-1.691c.41-.679.874-1.492 1.393-2.44-.02-.12-.07-.387-.15-.8l-.292-1.513a259.5 259.5 0 00-.389-1.968c-.145-.718-.297-1.447-.456-2.185-.16-.718-.327-1.44-.502-2.163a50.504 50.504 0 00-.509-1.953 25.387 25.387 0 00-.441-1.422c-.13-.369-.23-.559-.3-.569l-2.783-.21v-.762l.419-.135c.2-.07.419-.142.658-.217l.764-.24a19.75 19.75 0 011.414-.389c.195-.045.337-.067.427-.067.329 0 .618.077.868.232.25.154.471.376.666.666.194.29.374.636.538 1.04.165.404.322.86.472 1.37.26.908.529 2.033.808 3.375.28 1.342.569 2.836.868 4.482l4.67-11.165h.883l2.545.838v.703zm13.276-.419c0 .36-.065.646-.195.86-.13.215-.314.378-.553.487a2.75 2.75 0 01-.861.217 10.97 10.97 0 01-1.13.053l-.733-1.467c-.38.16-.786.437-1.22.83-.434.395-.846.844-1.235 1.348-.39.504-.729 1.022-1.018 1.556-.29.534-.479 1.026-.569 1.475l-1.601 7.723h-2.844l2.634-13.022-2.574-.284v-.883l4.625-.958h1.227l-.643 3.098c.628-.968 1.342-1.726 2.14-2.275.798-.549 1.661-.823 2.59-.823.368 0 .678.067.927.202.25.135.452.307.606.516.155.21.265.434.33.674.064.24.097.464.097.673zm7.02 12.199c-.12.05-.34.144-.659.284a14.425 14.425 0 01-2.477.808 5.95 5.95 0 01-1.34.165c-.528 0-.948-.09-1.257-.27a1.727 1.727 0 01-.688-.703 2.38 2.38 0 01-.255-.973 4.2 4.2 0 01.075-1.063l1.96-10.387-2.634-.284v-.883l4.625-.958h1.258l-2.32 12.258a1.418 1.418 0 00.231 1.1c.105.145.24.26.404.344.165.085.352.128.562.128.18 0 .391-.033.636-.098a10.3 10.3 0 00.733-.224c.245-.085.472-.167.681-.247.21-.08.364-.135.464-.165zm-.135-18.77c0 .23-.042.447-.127.652a1.685 1.685 0 01-.935.928c-.23.094-.495.142-.794.142-.629 0-1.103-.167-1.422-.502a1.7 1.7 0 01-.479-1.22c0-.199.043-.398.127-.598.085-.2.21-.382.375-.546.164-.165.366-.3.606-.404.24-.105.514-.158.823-.158a1.87 1.87 0 011.347.54c.16.159.28.341.36.545.079.205.119.412.119.622zm12.752 6.571c0 .36-.065.646-.194.86-.13.215-.315.378-.554.487a2.75 2.75 0 01-.86.217 10.97 10.97 0 01-1.13.053l-.734-1.467c-.38.16-.786.437-1.22.83-.434.395-.846.844-1.235 1.348a11.53 11.53 0 00-1.018 1.556c-.29.534-.479 1.026-.568 1.475l-1.602 7.723h-2.844L226.5 9.564l-2.574-.284v-.883l4.625-.958h1.227l-.643 3.098c.628-.968 1.342-1.726 2.14-2.275.798-.549 1.661-.823 2.59-.823.369 0 .678.067.927.202.25.135.452.307.607.516.154.21.264.434.329.674.065.24.097.464.097.673zm19.398 3.757c0-.728-.07-1.372-.21-1.93-.14-.56-.33-1.028-.569-1.408a2.604 2.604 0 00-.86-.868 2.08 2.08 0 00-1.085-.3c-.669 0-1.29.243-1.864.727-.573.484-1.07 1.117-1.489 1.9-.42.784-.748 1.667-.988 2.65-.24.983-.359 1.973-.359 2.97 0 .76.07 1.423.21 1.992.14.568.334 1.045.583 1.429.25.384.539.671.868.86.33.19.689.285 1.078.285.479 0 .93-.122 1.355-.367a4.281 4.281 0 001.152-.988c.344-.414.651-.895.92-1.444.27-.549.5-1.13.689-1.744a13.055 13.055 0 00.569-3.763zm3.098.135c0 .828-.092 1.639-.277 2.432a10.67 10.67 0 01-.793 2.253 9.987 9.987 0 01-1.242 1.953 8.507 8.507 0 01-1.632 1.541 7.6 7.6 0 01-1.968 1.018 6.834 6.834 0 01-2.245.367c-.838 0-1.597-.135-2.275-.404a4.667 4.667 0 01-1.721-1.16 5.211 5.211 0 01-1.086-1.826c-.254-.714-.381-1.514-.381-2.402 0-.829.09-1.644.27-2.448.179-.803.436-1.564.77-2.282.334-.719.74-1.385 1.22-1.998a8.279 8.279 0 011.624-1.587 7.484 7.484 0 011.975-1.04 6.822 6.822 0 012.268-.374 6.4 6.4 0 012.103.344c.663.23 1.247.589 1.751 1.078.504.489.903 1.107 1.197 1.856.295.748.442 1.641.442 2.679zm12.124-.165a6.83 6.83 0 00-.143-1.37 4.909 4.909 0 00-.434-1.264 2.81 2.81 0 00-.74-.928 1.65 1.65 0 00-1.063-.36 2.7 2.7 0 00-1.108.248c-.37.164-.706.349-1.01.553a7.472 7.472 0 00-.786.6 8.93 8.93 0 01-.449.38l-1.826 9.505c.09.05.217.127.382.232.164.105.356.207.576.307.22.1.454.187.703.262.25.075.51.112.779.112.558 0 1.072-.125 1.541-.374.47-.25.893-.586 1.273-1.01a7.075 7.075 0 001.002-1.475c.29-.558.53-1.145.719-1.758.19-.614.334-1.235.434-1.864.1-.628.15-1.227.15-1.796zm3.038-.12a10.54 10.54 0 01-1.16 4.79 10.44 10.44 0 01-1.355 2.02 9.232 9.232 0 01-1.766 1.602 8.36 8.36 0 01-2.11 1.055 7.431 7.431 0 01-2.38.382 3.72 3.72 0 01-1.242-.195c-.37-.13-.679-.25-.928-.359l-.973 4.924c-.04.17-.018.307.067.412.085.105.262.172.532.202l1.93.165v1.152h-7.723V28.11l1.602-.165c.429-.03.673-.234.733-.614l3.458-17.766-2.575-.284v-.883l4.64-.958h1.197l-.374 1.9c.26-.169.557-.364.89-.583.335-.22.692-.427 1.071-.621a8.07 8.07 0 011.19-.494 4.065 4.065 0 011.265-.202c.778 0 1.424.167 1.938.501.514.334.923.771 1.227 1.31.305.539.522 1.147.651 1.826.13.678.195 1.357.195 2.035zm9.115 8.592c-.12.05-.34.144-.659.284a14.425 14.425 0 01-2.477.808 5.95 5.95 0 01-1.34.165c-.528 0-.947-.09-1.257-.27a1.727 1.727 0 01-.688-.703 2.38 2.38 0 01-.254-.973c-.02-.36.005-.713.074-1.063l1.961-10.387-2.634-.284v-.883l4.625-.958h1.257l-2.32 12.258c-.04.21-.037.41.007.599.045.19.12.356.225.501.104.145.239.26.404.344a1.2 1.2 0 00.56.128c.18 0 .393-.033.637-.098a10.3 10.3 0 00.733-.224c.245-.085.472-.167.681-.247.21-.08.365-.135.464-.165zm-.135-18.77c0 .23-.042.447-.127.652a1.685 1.685 0 01-.935.928c-.23.094-.494.142-.794.142-.628 0-1.102-.167-1.422-.502a1.7 1.7 0 01-.479-1.22c0-.199.043-.398.128-.598.084-.2.21-.382.374-.546.165-.165.367-.3.606-.404.24-.105.514-.158.823-.158.29 0 .547.05.771.15.225.1.417.23.576.39.16.159.28.341.36.545.08.205.12.412.12.622zm16.36 19.04c-.13.049-.357.126-.681.231-.325.105-.686.215-1.086.33a16.16 16.16 0 01-1.227.299 5.67 5.67 0 01-1.107.127 7.36 7.36 0 01-.741-.052 3.154 3.154 0 01-.906-.24 1.703 1.703 0 01-.703-.546c-.18-.24-.225-.564-.135-.973l1.87-9.415c.07-.409.073-.748.008-1.017a1.5 1.5 0 00-.314-.651 1.165 1.165 0 00-.502-.345 1.668 1.668 0 00-.539-.097c-.25 0-.556.072-.92.217a8.266 8.266 0 00-1.153.576 11.203 11.203 0 00-2.342 1.871l-2.11 10.298h-2.86l2.665-13.022-2.574-.284v-.883l4.625-.958h1.227l-.569 2.859c.34-.34.728-.681 1.168-1.026a9.896 9.896 0 011.406-.92 8.974 8.974 0 011.55-.659 5.15 5.15 0 011.564-.254c1.117 0 1.913.31 2.387.928.474.618.591 1.616.352 2.993l-1.632 8.651c-.05.29-.027.52.068.689.094.17.22.3.374.389.154.09.317.147.486.172.17.025.3.037.39.037.279 0 .583-.04.912-.12.33-.079.669-.174 1.018-.284zm16.224 0c-.13.049-.357.126-.68.231-.325.105-.687.215-1.086.33-.4.114-.808.214-1.227.299a5.67 5.67 0 01-1.108.127c-.18 0-.426-.018-.74-.052a3.154 3.154 0 01-.906-.24 1.703 1.703 0 01-.704-.546c-.18-.24-.224-.564-.134-.973l1.87-9.415c.07-.409.073-.748.007-1.017a1.5 1.5 0 00-.314-.651 1.165 1.165 0 00-.501-.345 1.668 1.668 0 00-.54-.097c-.249 0-.555.072-.92.217a8.266 8.266 0 00-1.152.576 11.203 11.203 0 00-2.342 1.871l-2.11 10.298h-2.86l2.665-13.022-2.575-.284v-.883l4.625-.958h1.227l-.568 2.859c.339-.34.728-.681 1.167-1.026a9.896 9.896 0 011.407-.92 8.974 8.974 0 011.55-.659 5.15 5.15 0 011.563-.254c1.118 0 1.914.31 2.388.928.473.618.59 1.616.351 2.993l-1.631 8.651c-.05.29-.028.52.067.689.095.17.22.3.374.389.155.09.317.147.487.172.17.025.3.037.389.037.28 0 .584-.04.913-.12.33-.079.669-.174 1.018-.284zm25.055-.15c-.13.05-.356.134-.68.254-.325.12-.687.247-1.086.381-.399.135-.808.252-1.227.352-.42.1-.788.15-1.108.15-.19 0-.429-.027-.718-.082a2.63 2.63 0 01-.816-.3 1.607 1.607 0 01-.606-.606c-.15-.26-.185-.599-.105-1.018l1.871-9.04c.09-.4.082-.753-.022-1.063a2.114 2.114 0 00-.442-.77 1.965 1.965 0 00-.628-.464c-.23-.105-.43-.158-.6-.158-.239 0-.53.06-.875.18-.344.12-.708.284-1.092.494-.384.21-.771.461-1.16.756a9.57 9.57 0 00-1.093.965l-2.245 10.732h-2.814l4.221-20.476-2.724-.269V.913l4.79-.913h1.227l-2.066 9.893a6.74 6.74 0 011.1-.957 8.62 8.62 0 011.362-.786 7.97 7.97 0 011.512-.524 6.674 6.674 0 011.55-.187c.558 0 1.052.087 1.481.262.43.174.776.434 1.04.778.265.344.434.776.51 1.295.074.519.037 1.122-.113 1.81l-1.691 8.248c-.06.29-.045.531.044.726.09.194.212.349.367.464a1.658 1.658 0 00.876.307c.28 0 .583-.07.913-.21.329-.14.668-.264 1.018-.374zm10.103-11.316c0-.2-.04-.397-.12-.591a1.69 1.69 0 00-.329-.516 1.651 1.651 0 00-1.212-.509c-.34 0-.664.09-.973.269-.31.18-.606.42-.89.718-.285.3-.55.644-.794 1.033-.244.39-.464.798-.658 1.228-.195.429-.367.863-.517 1.302-.15.439-.269.853-.359 1.242a8.61 8.61 0 002.013-.449 8.439 8.439 0 001.894-.92 5.601 5.601 0 001.4-1.28c.363-.48.545-.988.545-1.527zm2.724.03c0 .559-.13 1.073-.389 1.542a4.59 4.59 0 01-1.055 1.272 7.684 7.684 0 01-1.542 1.01c-.583.295-1.197.544-1.84.749-.644.204-1.3.369-1.969.493-.668.125-1.307.202-1.916.232a12.325 12.325 0 00-.12 1.422c0 .56.068 1.073.203 1.542.135.469.33.876.584 1.22.254.344.56.613.92.808a2.5 2.5 0 001.212.292c.689 0 1.447-.25 2.275-.748.829-.5 1.806-1.243 2.934-2.23v1.93c-.29.28-.644.586-1.063.92-.419.335-.895.65-1.43.944a9.286 9.286 0 01-1.743.733 6.695 6.695 0 01-1.99.292c-.31 0-.646-.03-1.01-.09a4.644 4.644 0 01-1.086-.322 4.486 4.486 0 01-1.04-.636 3.965 3.965 0 01-.883-1.025 5.608 5.608 0 01-.614-1.482c-.154-.574-.232-1.25-.232-2.028 0-.808.098-1.614.292-2.417.195-.803.47-1.572.823-2.305.355-.733.781-1.417 1.28-2.05a9.52 9.52 0 011.646-1.647 7.612 7.612 0 011.924-1.093 5.822 5.822 0 012.118-.396c.708 0 1.3.117 1.773.351.474.235.856.517 1.145.846.29.33.494.669.614 1.018.12.35.18.634.18.853zm8.637 11.166c-.12.05-.34.144-.659.284a14.686 14.686 0 01-2.477.808 5.95 5.95 0 01-1.34.165c-.529 0-.948-.09-1.257-.27a1.727 1.727 0 01-.688-.703 2.38 2.38 0 01-.255-.973 4.2 4.2 0 01.075-1.063l1.96-10.387-2.634-.284v-.883l4.625-.958h1.258l-2.32 12.258a1.418 1.418 0 00.231 1.1c.105.145.24.26.404.344.165.085.352.128.562.128.18 0 .391-.033.636-.098a10.3 10.3 0 00.733-.224c.244-.085.471-.167.681-.247.21-.08.364-.135.464-.165zm-.135-18.77c0 .23-.043.447-.127.652a1.685 1.685 0 01-.935.928c-.23.094-.495.142-.794.142-.629 0-1.103-.167-1.422-.502a1.7 1.7 0 01-.479-1.22c0-.199.042-.399.127-.598.085-.2.21-.382.374-.546.165-.165.367-.3.607-.405.24-.104.514-.157.823-.157a1.87 1.87 0 011.347.54c.16.159.28.34.36.545.079.205.119.412.119.622zm23.903 18.86c-.26.11-.552.231-.876.366a18.17 18.17 0 01-1.003.382c-.344.12-.686.22-1.025.3a4.243 4.243 0 01-2.088-.023 2.352 2.352 0 01-.838-.412 1.473 1.473 0 01-.48-.673c-.094-.27-.106-.58-.036-.928l1.69-8.188c.1-.508.136-.952.106-1.332-.03-.379-.108-.693-.232-.943a1.426 1.426 0 00-.464-.56 1.015 1.015 0 00-.577-.188c-.469 0-.925.105-1.37.314a6.69 6.69 0 00-1.219.741 7.49 7.49 0 00-.958.868c-.27.295-.454.532-.554.711l-2.155 10.358h-2.844l2.05-9.998c.07-.33.103-.671.098-1.026a3.238 3.238 0 00-.15-.965 1.7 1.7 0 00-.441-.719c-.2-.19-.464-.284-.793-.284-.36 0-.741.105-1.145.314-.405.21-.794.46-1.168.749-.374.29-.713.586-1.018.89a9.144 9.144 0 00-.68.741l-2.156 10.298h-2.814l2.634-13.022-2.544-.284v-.883l4.595-.958h1.257l-.584 2.829c.38-.36.784-.711 1.213-1.056a9.932 9.932 0 011.332-.905c.459-.26.923-.47 1.392-.629a4.26 4.26 0 011.377-.24c.509 0 .93.096 1.265.285.334.19.603.427.808.711.204.284.354.591.449.92.095.33.162.634.202.914a11.741 11.741 0 012.634-1.969 8.164 8.164 0 011.49-.628c.503-.155.99-.232 1.459-.232.509 0 .955.092 1.34.277.383.184.693.446.927.785.235.34.384.749.45 1.228.064.479.037 1.013-.083 1.601l-1.721 8.277a1.414 1.414 0 00.292 1.213c.124.15.277.266.456.351.18.085.37.128.569.128.25 0 .539-.06.868-.18a54.4 54.4 0 011.063-.374z" font-family="Charis SIL" font-size="30.653" font-style="italic" font-weight="400" text-anchor="middle"/>
</svg>
