<?xml version="1.0" encoding="UTF-8" standalone="no"?>
<!DOCTYPE svg PUBLIC "-//W3C//DTD SVG 1.1//EN" "http://www.w3.org/Graphics/SVG/1.1/DTD/svg11.dtd">
<!-- Created with Inkscape (http://www.inkscape.org/) by Marsupilami -->
<svg
    xmlns:svg="http://www.w3.org/2000/svg"
    xmlns="http://www.w3.org/2000/svg"
    xmlns:xlink="http://www.w3.org/1999/xlink"
    version="1.1"
    width="1000"
    height="900"
    id="svg5200"
    style="fill-opacity:1;">
  <metadata id="metadata5202"></metadata>
  <defs id="defs5204">
    <linearGradient
        x1="0"
        y1="35"
        x2="0"
        y2="322"
        id="a"
        gradientUnits="userSpaceOnUse">
      <stop
          id="stop5207"
          style="stop-color:#006699;stop-opacity:1;"
          offset="0"
      />
      <stop
          id="stop5209"
          style="stop-color:#0080ce;stop-opacity:1;"
          offset="1"
      />
    </linearGradient>
    <linearGradient
        y1="339"
        y2="757"
        id="b"
        xlink:href="#a"
    />
  </defs>
  <path
      d="M 329,88 C 372,53 416,35 484,35 431,56 395,89 368,114 352,106 341,99 329,88 z m 342,0 C 628,53 584,35 516,35 c 53,21 89,54 116,79 16,-8 27,-15 39,-26 z m -180,56 c -36,0 -68,-8 -105,-23 37,-34 65,-53 105,-71 z m 18,0 c 36,0 68,-8 105,-23 C 577,87 549,68 509,50 z M 357,128 c -16,-8 -30,-17 -43,-28 -25,23 -46,45 -61,73 17,15 31,25 52,35 14,-29 29,-54 52,-80 z m 286,0 c 16,-8 30,-17 43,-28 25,23 46,45 61,73 -17,15 -31,25 -52,35 -14,-29 -29,-54 -52,-80 z m -152,34 c -39,0 -83,-11 -118,-26 -24,26 -41,53 -53,80 59,29 113,42 171,42 z m 18,0 c 39,0 83,-11 118,-26 24,26 41,53 53,80 -59,29 -113,42 -171,42 z m -266,27 c 17,15 34,26 55,38 -10,22 -16,50 -20,77 -21,-11 -42,-24 -61,-38 5,-29 14,-55 26,-77 z m 514,0 c -17,15 -34,26 -55,38 10,22 16,50 20,77 21,-11 42,-24 61,-38 -5,-29 -14,-55 -26,-77 z m -266,133 -166,0 c -11,-4 -20,-6 -31,-11 4,-31 10,-52 19,-77 55,29 113,42 178,42 z m 18,0 166,0 c 11,-4 20,-6 31,-11 -4,-31 -10,-52 -19,-77 -55,29 -113,42 -178,42 z m -299,0 c 0,-13 1,-24 3,-37 23,16 34,22 63,37 z m 580,0 c 0,-13 -1,-24 -3,-37 -23,16 -34,22 -63,37 z"
      id="path5212"
      style="fill:url(#a);"
  />
  <g
      id="g5214"
      style="fill:url(#b);">
    <rect
        width="936"
        height="31"
        x="32"
        y="339"
        id="rect5216"
    />
    <rect
        width="125"
        height="322"
        x="64"
        y="387"
        id="rect5218"
    />
    <rect
        width="125"
        height="322"
        x="313"
        y="387"
        id="rect5220"
    />
    <rect
        width="125"
        height="322"
        x="562"
        y="387"
        id="rect5222"
    />
    <rect
        width="125"
        height="322"
        x="811"
        y="387"
        id="rect5224"
    />
    <rect
        width="936"
        height="31"
        x="32"
        y="726"
        id="rect5226"
    />
  </g>
  <path
      d="m 222.54561,775.00002 -25.00379,42.99997 34.17185,49 -24.17033,0 -30.00456,-43 0,43 -19.16957,0 0,-91.99997 19.16957,0 0,40.99997 24.17034,-40.99997 z"
      id="path3128-0"
      style="fill:#696969;fill-opacity:1;"
  />
  <path
      d="m 259.21784,775.00002 0,91.99997 -19.16957,0 0,-91.99997 z"
      id="path3126-8"
      style="fill:#696969;fill-opacity:1;"
  />
  <path
      d="m 349.2315,775.00002 -35.83877,92.99997 -8.3346,0 -36.67223,-92.99997 20.83649,0 20.00304,51.99997 19.16957,-51.99997 z"
      id="path3124-8"
      style="fill:#696969;fill-opacity:1;"
  />
  <path
      d="m 414.24136,849.99999 0,17 -56.67527,0 0,-91.99997 55.84181,0 0,16.99997 -36.67223,0 0,19 35.00531,0 0,17 -35.00531,0 0,22 z"
      id="path3122-5"
      style="fill:#696969;fill-opacity:1;"
  />
  <path
      d="m 428.41017,775.00002 0,91.99997 19.16958,0 0,-38 5.83422,0 c 2.50038,0 5.00076,2 6.66768,4 2.50038,2 5.00075,8 8.33459,16 3.33384,9 5.00076,15 6.66768,18 l 20.8365,0 c -3.33384,-8 -6.66768,-17 -10.00152,-26 -3.33384,-9 -7.50114,-15 -10.83498,-17 8.3346,-5 12.5019,-13 12.5019,-23 0,-7 -1.66692,-13 -6.66768,-18 -4.1673,-5.99997 -10.83498,-7.99997 -18.33611,-7.99997 l -34.17186,0 z m 19.16958,16.99997 10.00152,0 c 7.50113,0 10.83497,3 10.83497,10 0,4 -0.83346,6 -2.50038,8 -2.50038,2 -5.00075,3 -8.33459,3 l -10.00152,0 0,-21 z"
      id="path3120-0"
      style="fill:#696969;fill-opacity:1;"
  />
  <path
      d="m 555.92952,798.99999 c -9.16806,-6 -15.83574,-8 -23.33687,-8 -7.50114,0 -11.66844,3 -11.66844,8 0,6 4.1673,8 10.83498,10 10.00151,3 18.33611,8 23.33687,16 2.50038,4 4.1673,9 4.1673,16 0,7 -2.50038,13 -6.66768,18 -4.1673,5 -13.33536,9 -22.50341,9 -9.16806,0 -20.00304,-3 -27.50418,-9 l 0,-20 c 9.16806,6 18.33612,12 25.83726,12 7.50113,0 10.83497,-3 11.66843,-9 0,-6 -4.1673,-10 -10.83497,-12 -6.66768,-2 -18.33612,-6 -23.33688,-14 -2.50038,-4 -4.1673,-10 -4.1673,-17 0,-6 2.50038,-13 7.50114,-18 5.00076,-4.99997 11.66844,-6.99997 20.8365,-6.99997 8.33459,0 16.66919,1 25.83725,6.99997 z"
      id="path3116-9"
      style="fill:#696969;fill-opacity:1;"
  />
  <path
      d="m 590.93483,775.00002 0,91.99997 -19.16958,0 0,-91.99997 z"
      id="path3114-6"
      style="fill:#696969;fill-opacity:1;"
  />
  <path
      d="m 679.28152,775.00002 0,16.99997 -28.33763,0 0,75 -19.16957,0 0,-75 -27.50418,0 0,-16.99997 z"
      id="path3112-3"
      style="fill:#696969;fill-opacity:1;"
  />
  <path
      d="m 964.57145,799.00001 c -9.16806,-6 -15.83573,-8 -23.33687,-8 -7.50114,0 -11.66844,3 -11.66844,8 0,6 4.1673,8 10.83498,10 10.00152,3 18.33611,8 23.33687,16 2.50038,4 4.1673,9 4.1673,16 0,7 -2.50038,13 -6.66768,18 -4.1673,5 -13.33535,9 -22.50341,9 -9.16806,0 -20.00304,-3 -27.50417,-9 l 0,-20 c 9.16805,6 18.33611,12 25.83725,12 7.50114,0 10.83498,-3 11.66844,-9 0,-6 -4.1673,-10 -10.83498,-12 -6.66768,-2 -18.33612,-6 -23.33687,-14 -2.50038,-4 -4.1673,-10 -4.1673,-17 0,-6 2.50038,-13 7.50114,-18 5.00075,-5 11.66843,-7.00001 20.83649,-7.00001 8.3346,0 16.66919,1.00001 25.83725,7.00001 z"
      id="path3116-1"
      style="fill:#696969;fill-opacity:1;"
  />
  <path
      d="m 122.01576,774.50003 0,91.99996 19.16958,0 0,-91.99996 z"
      id="path3126-4"
      style="fill:#696969;fill-opacity:1;"
  />
  <path
      d="m 32.002109,774.50003 35.838771,92.99996 8.334597,0 36.672233,-92.99996 -20.836497,0 -20.003035,51.99996 -19.169574,-51.99996 z"
      id="path3124-7"
      style="fill:#696969;fill-opacity:1;"
  />
  <g
      transform="matrix(1,0,0,1.0846386,0,-70.178662)"
      id="g4950"
      style="fill-opacity:1;">
    <path
        d="m 862.60812,777.95311 -34.27603,86.0938 19.22158,0 4.7924,-12.4688 27.11353,0 4.55794,12.4688 19.01338,0 -32.76547,-86.0938 -7.65733,0 z m 3.64639,37.5938 7.50114,20.4687 -15.393,0 7.89186,-20.4687 z"
        id="path3815-9"
        style="fill:#696969;fill-opacity:1;fill-rule:evenodd;"
    />
    <path
        d="m 832.69884,779.22601 0,15.6458 -26.08029,0 0,69.0254 -17.64251,0 0,-69.0254 -25.31318,0 0,-15.6458 z"
        id="path3074-0"
        style="fill:#696969;fill-opacity:1;"
    />
  </g>
  <path
      d="m 750.21385,850.00001 0,17 -56.67526,0 0,-92 55.8418,0 0,17 -36.67223,0 0,19 35.00531,0 0,17 -35.00531,0 0,22 z"
      id="path3122-8"
      style="fill:#696969;fill-opacity:1;"
  />
</svg>
