<?xml version="1.0" encoding="UTF-8" standalone="no"?>
<svg
   xmlns:dc="http://purl.org/dc/elements/1.1/"
   xmlns:cc="http://creativecommons.org/ns#"
   xmlns:rdf="http://www.w3.org/1999/02/22-rdf-syntax-ns#"
   xmlns:svg="http://www.w3.org/2000/svg"
   xmlns="http://www.w3.org/2000/svg"
   xmlns:xlink="http://www.w3.org/1999/xlink"
   xmlns:sodipodi="http://sodipodi.sourceforge.net/DTD/sodipodi-0.dtd"
   xmlns:inkscape="http://www.inkscape.org/namespaces/inkscape"
   height="900"
   width="1e3"
   version="1.1"
   id="svg3406"
   inkscape:version="0.91 r13725"
   sodipodi:docname="Wikiversity-logo-eo.svg">
  <sodipodi:namedview
     pagecolor="#ffffff"
     bordercolor="#666666"
     borderopacity="1"
     objecttolerance="10"
     gridtolerance="10"
     guidetolerance="10"
     inkscape:pageopacity="0"
     inkscape:pageshadow="2"
     inkscape:window-width="1920"
     inkscape:window-height="1014"
     id="namedview3436"
     showgrid="false"
     inkscape:zoom="0.45444445"
     inkscape:cx="133.67472"
     inkscape:cy="539.4548"
     inkscape:window-x="0"
     inkscape:window-y="27"
     inkscape:window-maximized="1"
     inkscape:current-layer="svg3406" />
  <metadata
     id="metadata3408">
    <!--
  <rdf:RDF xmlns:rdf="http://www.w3.org/1999/02/22-rdf-syntax-ns#" xmlns:cc="http://web.resource.org/cc/" xmlns:dc="http://purl.org/dc/elements/1.1/">
   <rdf:Description about="http://commons.wikimedia.org/image/Wikiversity-logo.svg">
     dc:title="Wikiversity logo (trademark)"
     dc:publisher="Wikimedia Foundation"
     dc:copyright="Copyright (c)2006 Wikimedia Foundation"
     dc:date="2007-09-20"
     dc:format="image/svg+xml"
     dc:language="en">
    <dc:subject>
     <rdf:Bag>
      <rdf:li>Wikiversity</rdf:li>
      <rdf:li>logo</rdf:li>
      <rdf:li>trademark</rdf:li>
      <rdf:li>Copyright (C) 2006 Wikimedia Foundation</rdf:li>
     </rdf:Bag>
    </dc:subject>
   </rdf:Description>
  </rdf:RDF>
 -->
    <rdf:RDF>
      <cc:Work
         rdf:about="">
        <dc:format>image/svg+xml</dc:format>
        <dc:type
           rdf:resource="http://purl.org/dc/dcmitype/StillImage" />
        <dc:title />
      </cc:Work>
    </rdf:RDF>
  </metadata>
  <defs
     id="defs3410">
    <linearGradient
       id="a"
       y2="322"
       gradientUnits="userSpaceOnUse"
       y1="35"
       x2="0">
      <stop
         stop-color="#069"
         offset="0"
         id="stop3413" />
      <stop
         stop-color="#0080CE"
         offset="1"
         id="stop3415" />
    </linearGradient>
    <linearGradient
       id="b"
       y1="339"
       xlink:href="#a"
       y2="757" />
  </defs>
  <path
     d="m329 88c43-35 87-53 155-53-53 21-89 54-116 79-16-8-27-15-39-26zm342 0c-43-35-87-53-155-53 53 21 89 54 116 79 16-8 27-15 39-26zm-180 56c-36 0-68-8-105-23 37-34 65-53 105-71zm18 0c36 0 68-8 105-23-37-34-65-53-105-71zm-152-16c-16-8-30-17-43-28-25 23-46 45-61 73 17 15 31 25 52 35 14-29 29-54 52-80zm286 0c16-8 30-17 43-28 25 23 46 45 61 73-17 15-31 25-52 35-14-29-29-54-52-80zm-152 34c-39 0-83-11-118-26-24 26-41 53-53 80 59 29 113 42 171 42zm18 0c39 0 83-11 118-26 24 26 41 53 53 80-59 29-113 42-171 42zm-266 27c17 15 34 26 55 38-10 22-16 50-20 77-21-11-42-24-61-38 5-29 14-55 26-77zm514 0c-17 15-34 26-55 38 10 22 16 50 20 77 21-11 42-24 61-38-5-29-14-55-26-77zm-266 133h-166c-11-4-20-6-31-11 4-31 10-52 19-77 55 29 113 42 178 42zm18 0h166c11-4 20-6 31-11-4-31-10-52-19-77-55 29-113 42-178 42zm-299 0c0-13 1-24 3-37 23 16 34 22 63 37zm580 0c0-13-1-24-3-37-23 16-34 22-63 37z"
     fill="url(#a)"
     id="path3418" />
  <g
     fill="url(#b)"
     id="g3420">
    <rect
       y="339"
       x="32"
       height="31"
       width="936"
       id="rect3422" />
    <rect
       y="387"
       x="64"
       height="322"
       width="125"
       id="rect3424" />
    <rect
       y="387"
       x="313"
       height="322"
       width="125"
       id="rect3426" />
    <rect
       y="387"
       x="562"
       height="322"
       width="125"
       id="rect3428" />
    <rect
       y="387"
       x="811"
       height="322"
       width="125"
       id="rect3430" />
    <rect
       y="726"
       x="32"
       height="31"
       width="936"
       id="rect3432" />
  </g>
  <g
     style="font-style:normal;font-variant:normal;font-weight:bold;font-stretch:normal;font-size:125.49613953px;line-height:125%;font-family:'Liberation Sans';-inkscape-font-specification:'Liberation Sans, Bold';text-align:start;letter-spacing:0px;word-spacing:0px;writing-mode:lr-tb;text-anchor:start;fill:#696969;fill-opacity:1;stroke:none;stroke-width:1px;stroke-linecap:butt;stroke-linejoin:miter;stroke-opacity:1"
     id="text3438">
    <path
       d="m 82.247478,865.77448 -18.321946,0 L 32,779.4346 l 18.873443,0 17.77045,55.45606 q 0.857883,2.75748 1.65449,5.63752 0.796606,2.88004 1.470658,5.26986 0.735329,2.81876 1.40938,5.39241 0.612774,-2.51237 1.286826,-5.26986 0.612774,-2.32854 1.40938,-5.20858 0.857884,-2.94131 1.715768,-5.82135 l 17.709172,-55.45606 18.689613,0 -31.741702,86.33988 z"
       style=""
       id="path3413" />
    <path
       d="m 123.36462,865.77448 0,-86.33988 18.07684,0 0,86.33988 -18.07684,0 z"
       style=""
       id="path3415" />
    <path
       d="m 217.91567,865.77448 -31.00637,-39.64649 -10.66227,8.1499 0,31.49659 -18.07684,0 0,-86.33988 18.07684,0 0,39.15627 38.91116,-39.15627 21.07943,0 -36.88901,36.52134 39.8916,49.81854 -21.32454,0 z"
       style=""
       id="path3417" />
    <path
       d="m 248.86076,865.77448 0,-86.33988 18.07684,0 0,86.33988 -18.07684,0 z"
       style=""
       id="path3419" />
    <path
       d="m 326.37669,865.77448 -18.32195,0 -31.92553,-86.33988 18.87344,0 17.77045,55.45606 q 0.85789,2.75748 1.65449,5.63752 0.79661,2.88004 1.47066,5.26986 0.73533,2.81876 1.40938,5.39241 0.61278,-2.51237 1.28683,-5.26986 0.61277,-2.32854 1.40938,-5.20858 0.85788,-2.94131 1.71577,-5.82135 l 17.70917,-55.45606 18.68961,0 -31.7417,86.33988 z"
       style=""
       id="path3421" />
    <path
       d="m 367.49382,865.77448 0,-86.33988 67.89537,0 0,13.97125 -49.81854,0 0,21.69221 46.08062,0 0,13.97125 -46.08062,0 0,22.73392 52.33091,0 0,13.97125 -70.40774,0 z"
       style=""
       id="path3423" />
    <path
       d="m 510.63787,865.77448 -20.03772,-32.78342 -21.20198,0 0,32.78342 -18.07684,0 0,-86.33988 43.1393,0 q 8.08862,0 14.0938,1.83832 6.06647,1.77705 10.11078,5.14731 4.04431,3.30898 6.00518,8.08862 2.02216,4.71836 2.02216,10.66226 0,4.84092 -1.47066,8.88523 -1.40938,3.98303 -3.98303,7.10818 -2.51237,3.12515 -6.00519,5.26986 -3.49281,2.08343 -7.5984,3.06387 l 23.3467,36.27623 -20.3441,0 z m -2.14471,-59.86804 q 0,-6.31157 -4.16687,-9.37544 -4.10558,-3.06387 -11.76526,-3.06387 l -23.16286,0 0,25.4914 23.65308,0 q 4.04431,0 6.92435,-0.91916 2.94131,-0.98044 4.77964,-2.6962 1.8996,-1.77705 2.81876,-4.16687 0.91916,-2.38982 0.91916,-5.26986 z"
       style=""
       id="path3425" />
    <path
       d="m 612.41963,840.89585 q 0,5.88263 -2.14471,10.72354 -2.14471,4.77964 -6.67924,8.21118 -4.47325,3.43153 -11.52015,5.33113 -6.98563,1.83832 -16.66746,1.83832 -8.57883,0 -15.13552,-1.53193 -6.55668,-1.53194 -11.27504,-4.53453 -4.65708,-3.00259 -7.5984,-7.41457 -2.88004,-4.47325 -4.16686,-10.23333 l 17.46406,-2.88003 q 0.73533,2.88003 2.14471,5.26985 1.40938,2.38982 3.86047,4.16687 2.51238,1.71577 6.18902,2.6962 3.73793,0.91917 9.00778,0.91917 9.19161,0 14.03253,-2.75749 4.90219,-2.81876 4.90219,-8.76267 0,-3.55409 -1.96087,-5.82135 -1.96088,-2.26727 -5.20858,-3.73792 -3.24771,-1.47066 -7.47585,-2.4511 -4.22814,-0.98044 -8.82395,-1.8996 -3.67664,-0.85788 -7.35329,-1.77705 -3.67664,-0.91916 -7.0469,-2.20598 -3.30898,-1.28683 -6.18902,-3.06387 -2.88003,-1.77705 -5.02474,-4.3507 -2.08344,-2.63493 -3.30898,-6.12774 -1.16428,-3.49281 -1.16428,-8.21117 0,-6.43413 2.57366,-11.02994 2.57365,-4.5958 7.10818,-7.47584 4.5958,-2.94132 10.90738,-4.28942 6.31157,-1.3481 13.78741,-1.3481 8.45629,0 14.46147,1.3481 6.06647,1.28682 10.11078,3.98303 4.10558,2.69621 6.43412,6.80179 2.38982,4.04431 3.49282,9.498 l -17.52534,2.38982 q -1.34811,-5.57624 -5.51497,-8.395 -4.10559,-2.81876 -11.82654,-2.81876 -4.77964,0 -7.96606,0.85788 -3.12515,0.79661 -5.02475,2.20599 -1.83833,1.40938 -2.63493,3.30898 -0.79661,1.83832 -0.79661,3.92175 0,3.18643 1.53194,5.26986 1.53193,2.02215 4.28942,3.43153 2.75748,1.34811 6.55668,2.32854 3.86048,0.91917 8.45628,1.8996 4.04431,0.85789 8.02734,1.83833 3.98303,0.91916 7.5984,2.20598 3.61537,1.28683 6.74052,3.12515 3.12515,1.83832 5.39241,4.53453 2.32854,2.63493 3.61537,6.31157 1.3481,3.67665 1.3481,8.7014 z"
       style=""
       id="path3427" />
    <path
       d="m 625.83937,865.77448 0,-86.33988 18.07683,0 0,86.33988 -18.07683,0 z"
       style=""
       id="path3429" />
    <path
       d="m 699.61741,793.40585 0,72.36863 -18.07684,0 0,-72.36863 -27.88122,0 0,-13.97125 73.90055,0 0,13.97125 -27.94249,0 z"
       style=""
       id="path3431" />
    <path
       d="m 789.08242,865.77448 -7.65967,-22.05987 -32.90597,0 -7.65968,22.05987 -18.07683,0 31.49658,-86.33988 21.32454,0 31.37404,86.33988 -17.89301,0 z m -20.22154,-60.48081 q -0.73533,-2.14471 -1.47066,-4.28942 -0.67405,-2.20599 -1.22555,-3.98303 -0.49022,-1.83832 -0.85788,-3.00259 -0.30639,-1.16428 -0.36767,-1.28683 -0.0613,0.18383 -0.36766,1.3481 -0.30639,1.16427 -0.85788,2.94132 -0.49022,1.77704 -1.22555,3.98303 -0.67405,2.14471 -1.40938,4.28942 l -8.51756,24.81735 24.81735,0 -8.51756,-24.81735 z"
       style=""
       id="path3433" />
    <path
       d="m 848.39896,793.40585 0,72.36863 -18.07684,0 0,-72.36863 -27.88122,0 0,-13.97125 73.90056,0 0,13.97125 -27.9425,0 z"
       style=""
       id="path3435" />
    <path
       d="m 967.88989,822.20624 q 0,10.11077 -3.0026,18.38322 -3.00259,8.27245 -8.64011,14.15508 -5.63752,5.88263 -13.78742,9.06906 -8.08862,3.18642 -18.32195,3.18642 -10.8461,0 -18.99599,-3.30898 -8.08862,-3.37025 -13.54231,-9.31416 -5.45369,-6.00519 -8.21117,-14.21636 -2.69621,-8.21118 -2.69621,-17.95428 0,-10.11078 2.81876,-18.26067 2.88004,-8.1499 8.39501,-13.8487 5.57624,-5.76008 13.66486,-8.82395 8.14989,-3.12514 18.68961,-3.12514 10.53971,0 18.62833,3.12514 8.1499,3.12515 13.66487,8.88523 5.57624,5.76008 8.45628,13.90997 2.88004,8.08862 2.88004,18.13812 z m -18.4445,0 q 0,-6.8018 -1.65449,-12.25549 -1.59322,-5.51496 -4.77964,-9.43672 -3.18643,-3.92175 -7.90479,-6.00518 -4.65708,-2.14471 -10.8461,-2.14471 -6.31157,0 -11.09121,2.14471 -4.71836,2.08343 -7.90479,6.00518 -3.18642,3.92176 -4.77964,9.43672 -1.59321,5.45369 -1.59321,12.25549 0,6.74051 1.59321,12.37803 1.65449,5.57625 4.84092,9.62056 3.18642,4.04431 7.90478,6.31157 4.71837,2.26726 10.90738,2.26726 6.61796,0 11.3976,-2.26726 4.77964,-2.32854 7.84351,-6.37285 3.12515,-4.10559 4.59581,-9.68183 1.47066,-5.63752 1.47066,-12.25548 z"
       style=""
       id="path3437" />
  </g>
</svg>
