<?xml version="1.0" encoding="UTF-8" standalone="no"?>
<!-- Created with Inkscape (http://www.inkscape.org/) -->
<svg
   xmlns:svg="http://www.w3.org/2000/svg"
   xmlns="http://www.w3.org/2000/svg"
   xmlns:xlink="http://www.w3.org/1999/xlink"
   version="1.0"
   width="1000"
   height="900"
   id="svg2">
  <defs
     id="defs4">
    <linearGradient
       id="linearGradient12883">
      <stop
         style="stop-color:#006699;stop-opacity:1"
         offset="0"
         id="stop12901" />
      <stop
         style="stop-color:#0080ce;stop-opacity:1"
         offset="1"
         id="stop12899" />
    </linearGradient>
    <linearGradient
       id="linearGradient11986">
      <stop
         style="stop-color:#006699;stop-opacity:1"
         offset="0"
         id="stop11988" />
      <stop
         style="stop-color:#0080ce;stop-opacity:1"
         offset="1"
         id="stop11994" />
    </linearGradient>
    <linearGradient
       x1="841.33612"
       y1="-495.88998"
       x2="841.33612"
       y2="-206.74072"
       id="linearGradient11992"
       xlink:href="#linearGradient11986"
       gradientUnits="userSpaceOnUse"
       gradientTransform="translate(-1.986317,2.90308)" />
    <linearGradient
       x1="481.77298"
       y1="357.21149"
       x2="481.83102"
       y2="775.58453"
       id="linearGradient12889"
       xlink:href="#linearGradient12883"
       gradientUnits="userSpaceOnUse"
       gradientTransform="translate(358.8773,-544.052)" />
    <linearGradient
       x1="481.77298"
       y1="357.21149"
       x2="481.83102"
       y2="775.58453"
       id="linearGradient2602"
       xlink:href="#linearGradient12883"
       gradientUnits="userSpaceOnUse"
       gradientTransform="translate(358.8773,-544.052)" />
    <linearGradient
       x1="841.33612"
       y1="-495.88998"
       x2="841.33612"
       y2="-206.74072"
       id="linearGradient2600"
       xlink:href="#linearGradient11986"
       gradientUnits="userSpaceOnUse"
       gradientTransform="translate(-1.986317,2.90308)" />
    <linearGradient
       id="linearGradient2594">
      <stop
         style="stop-color:#006699;stop-opacity:1"
         offset="0"
         id="stop2596" />
      <stop
         style="stop-color:#0080ce;stop-opacity:1"
         offset="1"
         id="stop2598" />
    </linearGradient>
    <linearGradient
       id="linearGradient2588">
      <stop
         style="stop-color:#006699;stop-opacity:1"
         offset="0"
         id="stop2590" />
      <stop
         style="stop-color:#0080ce;stop-opacity:1"
         offset="1"
         id="stop2592" />
    </linearGradient>
  </defs>
  <g
     id="layer1">
    <g
       transform="translate(-346.8859,548.1061)"
       id="g1897">
      <g
         transform="translate(-4.690103,-396.3137)"
         id="g3044">
        <rect
           width="996.5199"
           height="154.90248"
           rx="4.9906316"
           ry="3.4761877"
           x="351.28348"
           y="-331.83124"
           style="fill:#f9f9f9;fill-opacity:1;fill-rule:evenodd;stroke:#000000;stroke-width:1.33808613;stroke-linecap:round;stroke-linejoin:round;stroke-miterlimit:4;stroke-dasharray:none;stroke-dashoffset:0;stroke-opacity:1"
           id="rect3752" />
        <path
           d="M 385.96977,-269.84282 C 385.97605,-263.30396 380.65978,-257.99984 374.09965,-257.99984 C 367.53953,-257.99984 362.22326,-263.30396 362.22954,-269.84282 C 362.22326,-276.38169 367.53953,-281.6858 374.09965,-281.6858 C 380.65978,-281.6858 385.97605,-276.38169 385.96977,-269.84282 L 385.96977,-269.84282 z "
           style="fill:#006699;fill-opacity:1;fill-rule:evenodd;stroke:none;stroke-width:1.60000002;stroke-linecap:round;stroke-linejoin:round;stroke-miterlimit:4;stroke-dasharray:none;stroke-dashoffset:0;stroke-opacity:1"
           id="path3654" />
        <path
           d="M 385.96977,-235.66082 C 385.97605,-229.12196 380.65978,-223.81784 374.09965,-223.81784 C 367.53953,-223.81784 362.22326,-229.12196 362.22954,-235.66082 C 362.22326,-242.19969 367.53953,-247.5038 374.09965,-247.5038 C 380.65978,-247.5038 385.97605,-242.19969 385.96977,-235.66082 L 385.96977,-235.66082 z "
           style="fill:#0080ce;fill-opacity:1;fill-rule:evenodd;stroke:none;stroke-width:1.60000002;stroke-linecap:round;stroke-linejoin:round;stroke-miterlimit:4;stroke-dasharray:none;stroke-dashoffset:0;stroke-opacity:1"
           id="path3656" />
        <path
           d="M 385.63697,-200.57112 C 385.64325,-194.03226 380.32698,-188.72814 373.76685,-188.72814 C 367.20673,-188.72814 361.89046,-194.03226 361.89674,-200.57112 C 361.89046,-207.10999 367.20673,-212.4141 373.76685,-212.4141 C 380.32698,-212.4141 385.64325,-207.10999 385.63697,-200.57112 L 385.63697,-200.57112 z "
           style="fill:#696969;fill-opacity:1;fill-rule:evenodd;stroke:none;stroke-width:1.60000002;stroke-linecap:round;stroke-linejoin:round;stroke-miterlimit:4;stroke-dasharray:none;stroke-dashoffset:0;stroke-opacity:1"
           id="path3732" />
        <g
           transform="translate(-1.486565,62.43574)"
           id="g2098">
          <text
             x="396.12988"
             y="-322.97687"
             transform="scale(1.00179,0.998214)"
             style="font-size:26.49099159px;font-style:normal;font-variant:normal;font-weight:normal;font-stretch:normal;text-align:start;line-height:129.99999523%;text-anchor:start;fill:#000000;fill-opacity:1;stroke:none;stroke-width:1px;stroke-linecap:butt;stroke-linejoin:miter;stroke-opacity:1;font-family:Arial"
             id="text3736"
             xml:space="preserve"><tspan
               x="396.12988"
               y="-322.97687"
               id="tspan4818">Darkest blue   - #006699</tspan><tspan
               x="396.12988"
               y="-288.53857"
               id="tspan3742" /></text>
          <text
             x="396.12988"
             y="-322.97687"
             transform="scale(1.00179,0.998214)"
             style="font-size:26.49099159px;font-style:normal;font-variant:normal;font-weight:normal;font-stretch:normal;text-align:start;line-height:129.99999523%;text-anchor:start;fill:#000000;fill-opacity:1;stroke:none;stroke-width:1px;stroke-linecap:butt;stroke-linejoin:miter;stroke-opacity:1;font-family:Arial"
             id="text2077"
             xml:space="preserve"><tspan
               x="396.12988"
               y="-288.53857"
               id="tspan2079">Brightest blue - #0080CE </tspan><tspan
               x="396.12988"
               y="-254.1003"
               id="tspan3744" /></text>
          <text
             x="396.12988"
             y="-322.97687"
             transform="scale(1.00179,0.998214)"
             style="font-size:26.49099159px;font-style:normal;font-variant:normal;font-weight:normal;font-stretch:normal;text-align:start;line-height:129.99999523%;text-anchor:start;fill:#000000;fill-opacity:1;stroke:none;stroke-width:1px;stroke-linecap:butt;stroke-linejoin:miter;stroke-opacity:1;font-family:Arial"
             id="text2086"
             xml:space="preserve"><tspan
               x="396.12988"
               y="-254.1003"
               id="tspan2088">Font                - #484848</tspan><tspan
               x="396.12988"
               y="-219.66203"
               id="tspan3746" /></text>
        </g>
        <text
           x="363.46851"
           y="-293.87469"
           style="font-size:12px;font-style:normal;font-weight:normal;fill:#000000;fill-opacity:1;stroke:none;stroke-width:1px;stroke-linecap:butt;stroke-linejoin:miter;stroke-opacity:1;font-family:Bitstream Vera Sans"
           id="text2008"
           xml:space="preserve"><tspan
             x="363.46851"
             y="-293.87469"
             style="font-size:36px;font-family:Arial"
             id="tspan2010">Wikiversity Logo</tspan></text>
      </g>
      <g
         transform="translate(8.143448,-22.39447)"
         id="g11095">
        <g
           transform="translate(354.1028,-543.1468)"
           id="g3040">
          <path
             d="M 97.274473,839.533 L 68.869685,900.21083 L 59.020223,900.21083 L 18.656587,805.95453 L 42.910834,805.95453 L 64.539378,857.37956 L 88.142971,805.95453 L 106.54087,805.95453 L 130.14446,857.37956 L 151.63857,805.95453 L 175.89282,805.95453 L 135.66362,900.21083 L 125.81453,900.21083 L 97.274566,839.533 L 97.274473,839.533 z M 209.81741,805.95453 L 209.81741,899.00593 L 186.93169,899.00593 L 186.93169,805.95453 L 209.81741,805.95453 z M 308.08953,805.95453 L 278.18142,849.64988 L 318.72446,899.00593 L 290.07268,899.00593 L 253.72515,855.37882 L 253.72515,899.00593 L 230.84018,899.00593 L 230.84018,805.95453 L 253.72515,805.95453 L 253.72515,847.85383 L 282.89315,805.95453 L 308.08953,805.95453 z M 351.45955,805.95453 L 351.45955,899.00593 L 328.5742,899.00593 L 328.5742,805.95453 L 351.45955,805.95453 z M 459.17821,805.95453 L 416.72809,900.21083 L 406.78878,900.21083 L 362.3637,805.95453 L 387.26861,805.95453 L 411.52285,859.03913 L 434.54264,805.95453 L 459.1783,805.95453 L 459.17821,805.95453 z M 537.3928,881.95523 L 537.3928,899.00593 L 469.70095,899.00593 L 469.70095,805.95453 L 536.47253,805.95453 L 536.47253,823.00523 L 492.56442,823.00523 L 492.56442,842.53394 L 534.45336,842.53394 L 534.45336,859.58464 L 492.56442,859.58464 L 492.56442,881.95523 L 537.39289,881.95523 L 537.3928,881.95523 z M 554.89268,805.95453 L 595.90744,805.95453 C 604.81466,805.95453 612.03917,808.56865 617.60357,813.77507 C 623.16799,819.00372 625.94964,825.32413 625.94964,832.73531 C 625.94964,842.98866 620.69978,850.58187 610.17707,855.51532 C 614.8212,857.60693 619.21911,863.31324 623.34739,872.63425 C 627.49796,881.95527 631.4918,890.75337 635.35084,899.00597 L 610.17707,899.00597 C 608.69638,895.93679 606.09335,890.09401 602.39142,881.478 C 598.68949,872.88422 595.50377,867.33704 592.85579,864.90457 C 590.2082,862.47177 587.35896,861.24425 584.35224,861.24425 L 577.77841,861.24425 L 577.77841,899.00597 L 554.89269,899.00597 L 554.89269,805.95457 L 554.89268,805.95453 z M 577.7784,823.00523 L 577.7784,844.19352 L 589.87206,844.19352 C 593.73109,844.19352 596.78236,843.26117 599.02588,841.4199 C 601.29206,839.57823 602.414,836.96411 602.414,833.53111 C 602.414,826.52904 598.06103,823.00521 589.33315,823.00521 L 577.77834,823.00521 L 577.7784,823.00523 z M 708.31511,811.95602 L 708.31511,830.14375 C 696.13226,824.59654 686.43958,821.8003 679.21507,821.8003 C 675.08679,821.8003 671.8112,822.50491 669.38795,823.91453 C 666.9424,825.30115 665.73096,827.16542 665.73096,829.46175 C 665.73096,831.25779 666.60556,832.93997 668.35588,834.5313 C 670.10583,836.12262 674.39083,838.19162 681.16704,840.7379 C 687.96556,843.26117 693.39512,845.60312 697.47854,847.78559 C 701.56189,849.96806 705.06178,853.03723 708.02353,856.97012 C 710.9853,860.92601 712.466,865.92733 712.466,871.9748 C 712.466,880.56819 709.23535,887.43416 702.77368,892.54935 C 696.31162,897.6419 687.78583,900.2108 677.24075,900.2108 C 665.84262,900.2108 654.80366,897.20986 644.10162,891.20798 L 644.10162,871.15634 C 650.24948,875.33956 655.67905,878.38573 660.41312,880.29563 C 665.1475,882.20515 670.1504,883.1601 675.46819,883.1601 C 684.44263,883.1601 688.93009,880.29563 688.93009,874.56631 C 688.93009,872.61117 688.03283,870.7699 686.23757,869.0421 C 684.44268,867.29167 680.11274,865.20006 673.24701,862.69902 C 666.40393,860.22099 660.97396,857.90204 656.95786,855.78781 C 652.94173,853.65096 649.48639,850.6044 646.56992,846.64889 C 643.65309,842.693 642.19467,837.64606 642.19467,831.46209 C 642.19467,823.48245 645.38076,817.02588 651.7303,812.11549 C 658.07982,807.20464 666.58335,804.74922 677.24089,804.74922 C 687.04539,804.74922 697.41098,807.1594 708.31513,811.95601 L 708.31511,811.95602 z M 750.98987,805.95452 L 750.98987,899.00592 L 728.10452,899.00592 L 728.10452,805.95452 L 750.98987,805.95452 z M 855.02841,805.95452 L 855.02841,823.00522 L 821.77747,823.00522 L 821.77747,899.00592 L 798.89175,899.00592 L 798.89175,823.00522 L 765.64118,823.00522 L 765.64118,805.95452 L 855.02841,805.95452 z M 922.6753,805.95452 L 963.41999,899.00592 L 938.82966,899.00592 L 931.2683,880.61386 L 890.18717,880.61386 L 883.36636,899.00592 L 859.11212,899.00592 L 896.1103,805.95452 L 922.67531,805.95452 L 922.6753,805.95452 z M 924.51512,864.38161 L 909.70667,828.21123 L 896.24514,864.38161 L 924.51512,864.38161 z M 889.94016,777.03607 L 912.15214,777.03607 L 922.13678,796.95161 L 912.15214,796.95161 L 889.94016,777.03607 z "
             style="fill:#696969;fill-opacity:1;fill-rule:evenodd"
             id="path3268" />
        </g>
        <path
           d="M 372.97989,216.09401 L 372.97989,200.65551 L 840.76637,200.65551 L 1308.5528,200.65551 L 1308.5528,216.09401 L 1308.5528,231.53251 L 840.50446,231.4503 L 372.97989,231.53251 L 372.97989,216.09401 z M 403.74083,22.35114 L 403.74083,-138.98117 L 466.26675,-138.98117 L 528.79265,-138.98117 L 528.79265,22.35114 L 528.79265,183.68345 L 466.26675,183.68345 L 403.74083,183.68345 L 403.74083,22.35114 z M 652.30064,22.35114 L 652.30064,-138.98117 L 714.82656,-138.98117 L 777.35248,-138.98117 L 777.35248,22.35114 L 777.35248,183.68345 L 714.82656,183.68345 L 652.30064,183.68345 L 652.30064,22.35114 z M 900.86047,22.35114 L 900.86047,-138.98117 L 963.38638,-138.98117 L 1025.9123,-138.98117 L 1025.9123,22.35114 L 1025.9123,183.68345 L 963.38638,183.68345 L 900.86047,183.68345 L 900.86047,22.35114 z M 1149.4203,22.35114 L 1149.4203,-138.98117 L 1211.9462,-138.98117 L 1274.4721,-138.98117 L 1274.4721,22.35114 L 1274.4721,183.68345 L 1211.9462,183.68345 L 1149.4203,183.68345 L 1149.4203,22.35114 z M 372.86384,-171.40201 L 372.86384,-186.84051 L 840.65032,-186.84051 L 1308.4368,-186.84051 L 1308.4368,-171.40201 L 1308.4368,-155.96352 L 840.65032,-155.96352 L 372.86384,-155.96352 L 372.86384,-171.40201 z "
           style="fill:url(#linearGradient12889);fill-opacity:1"
           id="path4531" />
        <path
           d="M 550.16292,-216.38115 C 550.53092,-223.26166 551.10892,-231.5504 551.44892,-234.80058 L 552.06692,-240.71 L 560.68292,-235.13442 C 576.18492,-225.10229 587.07492,-218.6967 601.29892,-211.24196 L 615.29892,-203.90468 L 582.39592,-203.88792 L 549.49392,-203.87115 L 550.16292,-216.38115 z M 651.29892,-209.71541 C 635.38692,-216.29146 632.79892,-217.57018 632.79892,-218.85557 C 632.79892,-221.53885 637.33992,-243.06787 640.28992,-254.37115 C 643.09592,-265.12154 651.28692,-290.67293 652.23592,-291.63743 C 652.37992,-291.78389 659.42792,-288.79301 667.89792,-284.99103 C 696.25892,-272.26072 732.27293,-261.30884 763.29893,-255.97909 C 778.55393,-253.35857 802.45793,-250.8737 812.51993,-250.86246 C 816.79792,-250.85768 822.66092,-250.57 825.54872,-250.22317 L 830.79872,-249.59257 L 830.79872,-226.73186 L 830.79872,-203.87115 L 748.04893,-203.90032 L 665.29892,-203.92948 L 651.29892,-209.71541 z M 847.79872,-226.71511 L 847.79872,-249.59257 L 853.04872,-250.22317 C 855.93623,-250.57 861.79903,-250.85768 866.07713,-250.86246 C 876.13972,-250.8737 900.04383,-253.35857 915.29872,-255.97909 C 946.32473,-261.30884 982.33803,-272.26072 1010.6991,-284.99103 C 1019.1693,-288.79301 1026.2174,-291.78389 1026.3615,-291.63743 C 1026.5057,-291.49098 1028.489,-285.97115 1030.7688,-279.37115 C 1038.5089,-256.96447 1047.0985,-219.77093 1045.0143,-217.68679 C 1044.479,-217.15143 1037.5739,-213.9364 1029.6698,-210.54228 L 1015.2987,-204.37115 L 931.54872,-204.1044 L 847.79872,-203.83765 L 847.79872,-226.71511 z M 1077.2987,-211.24196 C 1091.5228,-218.6967 1102.412,-225.10229 1117.9147,-235.13442 L 1126.5306,-240.71 L 1127.1483,-234.80058 C 1127.488,-231.5504 1128.0669,-223.26166 1128.4347,-216.38115 L 1129.1035,-203.87115 L 1096.2011,-203.88792 L 1063.2987,-203.90468 L 1077.2987,-211.24196 z M 600.88392,-233.92736 C 586.18092,-242.15848 555.79692,-261.56945 555.80092,-262.72861 C 555.80692,-264.09782 560.84992,-281.95995 564.59392,-293.87115 C 568.82692,-307.33586 573.94492,-320.24796 579.10692,-330.48861 L 582.34292,-336.90777 L 590.32092,-330.77111 C 599.41292,-323.77766 619.87192,-310.14306 630.42092,-304.0475 L 637.54292,-299.93204 L 634.20292,-291.03855 C 627.61392,-273.4965 617.79892,-235.66199 617.79892,-227.80501 C 617.79892,-226.74139 617.23092,-225.87115 616.53692,-225.87115 C 615.84292,-225.87115 608.79892,-229.49645 600.88392,-233.92736 z M 1060.7987,-227.80501 C 1060.7987,-235.66199 1050.9836,-273.4965 1044.3945,-291.03855 L 1041.054,-299.93204 L 1048.1764,-304.0475 C 1058.7255,-310.14306 1079.1849,-323.77766 1088.2764,-330.77111 L 1096.254,-336.90777 L 1099.4902,-330.48861 C 1104.6529,-320.24796 1109.7704,-307.33586 1114.0031,-293.87115 C 1117.7475,-281.95995 1122.7908,-264.09782 1122.7962,-262.72861 C 1122.8044,-260.62976 1065.5275,-225.87115 1062.0606,-225.87115 C 1061.3666,-225.87115 1060.7987,-226.74139 1060.7987,-227.80501 z M 805.79892,-269.52151 C 759.61593,-273.87973 727.54293,-281.10194 692.29892,-295.07951 C 683.76692,-298.46311 661.05392,-308.56349 659.93392,-309.47173 C 658.59392,-310.55801 680.81492,-348.86771 691.19592,-363.37116 C 695.95392,-370.01843 711.74393,-389.87116 712.27293,-389.87116 C 712.40993,-389.87116 715.40493,-388.56397 718.92893,-386.96629 C 742.24093,-376.39578 780.35593,-366.99867 806.33492,-365.4163 C 811.81493,-365.08253 819.56092,-364.55993 823.54892,-364.25498 L 830.79872,-363.70052 L 830.79872,-316.28583 L 830.79872,-268.87115 L 820.04892,-269.03119 C 814.13593,-269.11921 807.72393,-269.33985 805.79892,-269.52151 z M 847.79872,-316.12917 L 847.79872,-363.70052 L 855.04872,-364.25498 C 859.03623,-364.55993 866.78222,-365.08253 872.26213,-365.4163 C 898.24142,-366.99867 936.35602,-376.39578 959.66883,-386.96629 C 963.19243,-388.56397 966.18732,-389.87116 966.32423,-389.87116 C 966.85303,-389.87116 982.64312,-370.01843 987.40123,-363.37116 C 997.78279,-348.86771 1020.003,-310.55801 1018.6637,-309.47173 C 1018.4629,-309.30893 1013.3487,-306.89643 1007.2987,-304.11061 C 961.18043,-282.8747 912.88263,-271.13941 863.54872,-269.18256 L 847.79872,-268.55783 L 847.79872,-316.12917 z M 636.12592,-322.79021 C 625.12492,-329.40678 614.23492,-336.76242 602.81592,-345.28985 C 597.59992,-349.18458 592.90692,-352.67247 592.38692,-353.04073 C 591.37692,-353.75537 598.44592,-365.03585 607.43892,-377.06219 C 616.32392,-388.94337 639.45492,-413.98461 648.85192,-421.89489 L 653.40492,-425.72769 L 665.00092,-417.43735 C 671.37892,-412.87766 681.07492,-406.54691 686.54692,-403.369 L 696.49692,-397.591 L 688.24092,-387.32767 C 674.73392,-370.53775 659.44792,-346.48227 649.66392,-326.62115 C 647.29292,-321.80865 645.11592,-317.87201 644.82592,-317.87306 C 644.53592,-317.87411 640.62092,-320.08683 636.12592,-322.79021 z M 1028.9339,-326.62115 C 1019.1496,-346.48227 1003.8631,-370.53775 990.35683,-387.32767 L 982.10073,-397.591 L 992.05023,-403.369 C 997.52239,-406.54691 1007.218,-412.87766 1013.5961,-417.43735 L 1025.1925,-425.72769 L 1029.7456,-421.89489 C 1039.1425,-413.98461 1062.2734,-388.94337 1071.1583,-377.06219 C 1080.1517,-365.03585 1087.2201,-353.75537 1086.2104,-353.04073 C 1085.6901,-352.67247 1080.9971,-349.18337 1075.7815,-345.28716 C 1061.785,-334.83129 1035.7607,-317.87115 1033.7134,-317.87115 C 1033.4554,-317.87115 1031.3047,-321.80865 1028.9339,-326.62115 z M 804.79892,-384.00166 C 782.72693,-386.24717 755.62693,-392.75154 735.42993,-400.65123 L 725.56093,-404.51126 L 735.42993,-413.66194 C 760.39693,-436.81223 790.91293,-457.62844 819.50493,-471.01346 C 825.21183,-473.68519 830.08773,-475.87115 830.34002,-475.87115 C 830.59233,-475.87115 830.79872,-454.94616 830.79872,-429.37116 L 830.79872,-382.87116 L 822.04892,-383.00404 C 817.23593,-383.07712 809.47393,-383.52605 804.79892,-384.00166 z M 847.79872,-429.37116 C 847.79872,-454.94616 848.00512,-475.87115 848.25743,-475.87115 C 848.50973,-475.87115 853.38563,-473.68519 859.09273,-471.01346 C 887.68482,-457.62844 918.20042,-436.81223 943.16753,-413.66194 L 953.03632,-404.51126 L 943.16753,-400.65123 C 916.67302,-390.28833 879.73653,-382.87116 854.62502,-382.87116 L 847.79872,-382.87116 L 847.79872,-429.37116 z M 699.78792,-417.64935 C 689.77992,-423.26349 669.79892,-436.81825 669.79892,-437.9938 C 669.79892,-438.92622 681.84092,-447.18207 689.29892,-451.36209 C 692.04892,-452.90352 699.01692,-456.80039 704.78292,-460.0218 C 716.63093,-466.64137 734.50693,-474.42842 746.68493,-478.2755 C 769.79593,-485.57604 798.19692,-491.37294 815.79892,-492.38171 L 826.29872,-492.9835 L 810.29892,-485.08822 C 776.19993,-468.26223 748.81393,-449.34076 721.62793,-423.82506 C 715.20893,-417.80041 709.58393,-412.87219 709.12793,-412.87344 C 708.67193,-412.8747 704.46892,-415.02386 699.78792,-417.64935 z M 957.79872,-423.01192 C 931.68603,-447.98327 902.57473,-468.17456 868.29872,-485.08822 L 852.29872,-492.9835 L 862.79872,-492.38171 C 880.39992,-491.37294 908.80183,-485.57604 931.91222,-478.2755 C 944.09033,-474.42842 961.96603,-466.64137 973.81473,-460.0218 C 979.58092,-456.80039 986.54872,-452.90352 989.29872,-451.36209 C 996.80119,-447.15679 1008.7987,-438.9239 1008.7987,-437.98086 C 1008.7987,-435.96497 972.14533,-412.76121 969.21343,-412.92101 C 968.71033,-412.94844 963.57373,-417.48934 957.79872,-423.01192 z "
           style="opacity:1;fill:url(#linearGradient11992);fill-opacity:1"
           id="path11092" />
      </g>
      <g
         id="layer2" />
    </g>
  </g>
</svg>
