<?xml version="1.0" encoding="UTF-8"?>
<!DOCTYPE svg PUBLIC "-//W3C//DTD SVG 1.1//EN" "http://www.w3.org/Graphics/SVG/1.1/DTD/svg11.dtd">
<!-- Creator: CorelDRAW -->
<svg xmlns="http://www.w3.org/2000/svg" xml:space="preserve" width="4200px" height="3600px" style="shape-rendering:geometricPrecision; text-rendering:geometricPrecision; image-rendering:optimizeQuality; fill-rule:evenodd; clip-rule:evenodd"
viewBox="0 0 4200 3780"
 xmlns:xlink="http://www.w3.org/1999/xlink">
 <defs>
  <style type="text/css">
   <![CDATA[
    .fil7 {fill:dimgray;fill-rule:nonzero}
    .fil6 {fill:url(#id0);fill-rule:nonzero}
    .fil1 {fill:url(#id1);fill-rule:nonzero}
    .fil2 {fill:url(#id2);fill-rule:nonzero}
    .fil0 {fill:url(#id3);fill-rule:nonzero}
    .fil3 {fill:url(#id4);fill-rule:nonzero}
    .fil4 {fill:url(#id5);fill-rule:nonzero}
    .fil5 {fill:url(#id6);fill-rule:nonzero}
   ]]>
  </style>
  <linearGradient id="id0" gradientUnits="userSpaceOnUse" x1="2097.9" y1="3047.1" x2="2097.9" y2="3177.3">
   <stop offset="0" style="stop-color:#195687"/>
   <stop offset="1" style="stop-color:#316DAC"/>
  </linearGradient>
  <linearGradient id="id1" gradientUnits="userSpaceOnUse" xlink:href="#id0" x1="2097.9" y1="1421.7" x2="2097.9" y2="1551.9">
  </linearGradient>
  <linearGradient id="id2" gradientUnits="userSpaceOnUse" xlink:href="#id0" x1="529.2" y1="1623.3" x2="529.2" y2="2975.7">
  </linearGradient>
  <linearGradient id="id3" gradientUnits="userSpaceOnUse" xlink:href="#id0" x1="2097.9" y1="144.9" x2="2097.9" y2="1350.3">
  </linearGradient>
  <linearGradient id="id4" gradientUnits="userSpaceOnUse" xlink:href="#id0" x1="1575" y1="1623.3" x2="1575" y2="2975.7">
  </linearGradient>
  <linearGradient id="id5" gradientUnits="userSpaceOnUse" xlink:href="#id0" x1="2620.8" y1="1623.3" x2="2620.8" y2="2975.7">
  </linearGradient>
  <linearGradient id="id6" gradientUnits="userSpaceOnUse" xlink:href="#id0" x1="3666.6" y1="1623.3" x2="3666.6" y2="2975.7">
  </linearGradient>
 </defs>
 <g id="svg2">
  <metadata id="CorelCorpID_0Corel-Layer"/>
  <path class="fil0" d="M1379.7 367.5c180.6,-147 365.399,-222.6 651,-222.6 -222.6,88.1996 -373.8,226.8 -487.2,331.8 -67.2007,-33.5998 -113.4,-62.9992 -163.8,-109.2zm1436.4 0l0 0c-180.601,-147 -365.401,-222.6 -651.001,-222.6 222.6,88.1996 373.8,226.8 487.2,331.8 67.2007,-33.5998 113.4,-62.9992 163.801,-109.2zm-755.999 235.201l0 0c-151.2,0 -285.6,-33.6009 -441.001,-96.6002 155.4,-142.801 272.999,-222.6 441.001,-298.2l0 394.8zm75.5988 0l0 0c151.2,0 285.6,-33.6009 440.999,-96.6002 -155.399,-142.801 -272.999,-222.6 -440.999,-298.2l0 394.8zm-638.4 -67.2007l0 0c-67.1995,-33.5998 -126,-71.3998 -180.6,-117.6 -105.001,96.6002 -193.2,189 -256.201,306.6 71.401,63.0004 130.201,105.001 218.401,147 58.8002,-121.799 121.799,-226.8 218.4,-336zm1201.2 0l0 0c67.1995,-33.5998 126,-71.3998 180.6,-117.6 105.001,96.6002 193.2,189 256.201,306.6 -71.401,63.0004 -130.2,105.001 -218.401,147 -58.8002,-121.799 -121.799,-226.8 -218.4,-336zm-638.399 142.801l0 0c-163.801,0 -348.601,-46.2006 -495.601,-109.201 -100.8,109.201 -172.2,222.601 -222.6,336.001 247.799,121.799 474.599,176.399 718.2,176.399l0 -403.199zm75.5988 0l0 0c163.8,0 348.6,-46.2006 495.599,-109.201 100.8,109.201 172.2,222.601 222.601,336.001 -247.8,121.799 -474.6,176.399 -718.2,176.399l0 -403.199zm-1117.2 113.4l0 0c71.3998,62.9992 142.8,109.2 230.999,159.599 -41.9991,92.3999 -67.1995,210 -83.9994,323.4 -88.1996,-46.1994 -176.4,-100.8 -256.201,-159.599 21.0001,-121.801 58.8002,-231 109.201,-323.4zm2158.8 0l0 0c-71.3998,62.9992 -142.8,109.2 -230.999,159.599 41.9991,92.3999 67.1995,210 83.9994,323.4 88.2008,-46.1994 176.4,-100.8 256.201,-159.599 -21.0001,-121.801 -58.8002,-231 -109.201,-323.4zm-1117.2 558.6l0 0 -697.201 0c-46.1994,-16.7999 -83.9994,-25.2004 -130.2,-46.2006 16.7999,-130.2 42.0003,-218.4 79.8003,-323.399 231,121.799 474.6,176.399 747.601,176.399l0 193.2zm75.5988 0l0 0 697.2 0c46.1994,-16.7999 83.9994,-25.2004 130.2,-46.2006 -16.7999,-130.2 -42.0003,-218.4 -79.8003,-323.399 -231,121.799 -474.6,176.399 -747.6,176.399l0 193.2zm-1255.8 0l0 0c0,-54.5999 4.20027,-100.8 12.5996,-155.4 96.6002,67.2007 142.801,92.3999 264.6,155.4l-277.2 0zm2436 0l0 0c0,-54.5999 -4.20027,-100.8 -12.5996,-155.4 -96.6002,67.2007 -142.801,92.3999 -264.6,155.4l277.2 0z"/>
  <g id="_88444368">
   <polygon id="_88444752" class="fil1" points="132.3,1421.7 4063.5,1421.7 4063.5,1551.9 132.3,1551.9 "/>
   <polygon id="_88444488" class="fil2" points="266.699,1623.3 791.7,1623.3 791.7,2975.7 266.699,2975.7 "/>
   <polygon id="_88444416" class="fil3" points="1312.5,1623.3 1837.5,1623.3 1837.5,2975.7 1312.5,2975.7 "/>
   <polygon id="_88444992" class="fil4" points="2358.3,1623.3 2883.3,1623.3 2883.3,2975.7 2358.3,2975.7 "/>
   <polygon id="_88445064" class="fil5" points="3404.1,1623.3 3929.1,1623.3 3929.1,2975.7 3404.1,2975.7 "/>
   <polygon id="_88445136" class="fil6" points="132.3,3047.1 4063.5,3047.1 4063.5,3177.3 132.3,3177.3 "/>
  </g>
  <path class="fil7" d="M485.122 3388.31l-127.441 250.987 -44.2504 0 -181.131 -389.841 108.856 0 97.055 212.691 105.907 -212.691 82.6005 0 105.904 212.691 96.4668 -212.691 108.856 0 -180.54 389.841 -44.2516 0 -128.031 -250.987zm505.634 -138.854l0 0 0 384.879 -102.662 0 0 -384.879 102.662 0zm441.617 0l0 0 -134.225 180.732 182.016 204.147 -128.62 0 -163.138 -180.458 0 180.458 -102.66 0 0 -384.879 102.66 0 0 173.291 130.981 -173.291 112.986 0zm194.409 0l0 0 0 384.879 -102.662 0 0 -384.879 102.662 0zm314.175 -4.95865l0 0c70.2116,0 127.051,19.8346 170.51,59.505 43.4647,39.4906 65.1982,85.5019 65.1982,138.03 0,53.2629 -22.0288,99.4587 -66.0804,138.579 -44.0528,39.1215 -100.597,58.6859 -169.627,58.6859 -69.8163,0 -126.652,-19.4703 -170.51,-58.4109 -43.8575,-38.9358 -65.7851,-85.2221 -65.7851,-138.854 0,-52.7129 21.73,-98.8146 65.1946,-138.305 43.6611,-39.4846 100.693,-59.23 171.1,-59.23zm0 314.902l0 0c38.9406,0 70.3092,-10.7471 94.1072,-32.2342 23.7967,-21.6728 35.6951,-50.052 35.6951,-85.1328 0,-35.2653 -11.8984,-63.6398 -35.6951,-85.1316 -23.7979,-21.4883 -55.1666,-32.2342 -94.1072,-32.2342 -39.1358,0 -70.7021,10.7459 -94.6917,32.2342 -23.7979,21.4918 -35.6963,49.8663 -35.6963,85.1316 0,35.0808 11.8984,63.46 35.6963,85.1328 23.9896,21.4871 55.5559,32.2342 94.6917,32.2342zm314.179 -309.943l0 0 183.787 0c41.6919,0 74.8286,11.296 99.4135,33.8867 24.5849,22.5919 36.8773,49.3138 36.8773,80.1694 0,31.9592 -12.1936,59.33 -36.5821,82.1016 -24.1908,22.7753 -57.2286,34.1653 -99.1218,34.1653l-81.7159 0 0 154.556 -102.658 0 0 -384.879zm102.658 70.5271l0 0 0 89.2664 47.7911 0c42.6765,0 64.0172,-14.8771 64.0172,-44.6338 0,-16.7142 -5.70512,-28.2851 -17.1106,-34.7117 -11.4067,-6.6159 -30.877,-9.92087 -58.4109,-9.92087l-36.2868 0zm395.895 -70.5271l0 0 0 384.879 -102.662 0 0 -384.879 102.662 0zm375.244 24.7944l0 0 0 75.2143c-54.6737,-22.961 -98.2372,-34.4415 -130.688,-34.4415 -18.4857,0 -33.2354,2.94066 -44.2516,8.81842 -10.8162,5.69322 -16.2225,13.3139 -16.2225,22.8657 0,7.3469 3.93358,14.3271 11.8007,20.9394 7.86598,6.61113 27.0422,15.151 57.5239,25.6219 30.4829,10.4673 54.8713,20.2049 73.1594,29.203 18.2893,8.99938 34.0236,21.6728 47.2018,38.0215 13.3711,16.3451 20.0608,37.0095 20.0608,61.9873 0,35.6308 -14.5569,64.0088 -43.6611,85.1328 -28.9126,21.1228 -67.065,31.6842 -114.463,31.6842 -51.1342,0 -100.693,-12.3984 -148.677,-37.1964l0 -82.9267c27.5303,17.2642 51.9176,29.8483 73.1594,37.7429 21.2383,7.89931 43.7599,11.8496 67.5567,11.8496 40.3145,0 60.4741,-11.8496 60.4741,-35.5404 0,-8.08385 -4.0324,-15.7046 -12.096,-22.8705 -8.06361,-7.16117 -27.5339,-15.8843 -58.4097,-26.1719 -30.6805,-10.2828 -55.0678,-19.8346 -73.1606,-28.653 -17.8988,-8.81365 -33.4355,-21.3942 -46.6089,-37.7429 -12.9818,-16.3439 -19.4703,-37.2833 -19.4703,-62.8159 0,-33.0581 14.2569,-59.6943 42.7753,-79.8979 28.5137,-20.3846 66.6697,-30.5769 114.457,-30.5769 44.0552,0 90.5665,9.9173 139.54,29.7531zm456.955 -24.7944l0 0 0 70.5271 -149.268 0 0 314.352 -102.662 0 0 -314.352 -149.273 0 0 -70.5271 401.203 0zm241.902 -4.95865l0 0c70.2104,0 127.05,19.8346 170.514,59.505 43.4647,39.4906 65.1946,85.5019 65.1946,138.03 0,53.2629 -22.0252,99.4587 -66.0804,138.579 -44.0552,39.1215 -100.596,58.6859 -169.629,58.6859 -69.8163,0 -126.652,-19.4703 -170.51,-58.4109 -43.8587,-38.9358 -65.7851,-85.2221 -65.7851,-138.854 0,-52.7129 21.73,-98.8146 65.1934,-138.305 43.6611,-39.4846 100.693,-59.23 171.101,-59.23zm0 314.902l0 0c38.9406,0 70.3092,-10.7471 94.106,-32.2342 23.7979,-21.6728 35.6963,-50.052 35.6963,-85.1328 0,-35.2653 -11.8984,-63.6398 -35.6963,-85.1316 -23.7967,-21.4883 -55.1654,-32.2342 -94.106,-32.2342 -39.137,0 -70.7033,10.7459 -94.6929,32.2342 -23.7967,21.4918 -35.6963,49.8663 -35.6963,85.1316 0,35.0808 11.8996,63.46 35.6963,85.1328 23.9896,21.4871 55.5559,32.2342 94.6929,32.2342z"/>
 </g>
</svg>
