<?xml version="1.0" encoding="UTF-8" standalone="no"?>
<svg
   xmlns:dc="http://purl.org/dc/elements/1.1/"
   xmlns:cc="http://creativecommons.org/ns#"
   xmlns:rdf="http://www.w3.org/1999/02/22-rdf-syntax-ns#"
   xmlns:svg="http://www.w3.org/2000/svg"
   xmlns="http://www.w3.org/2000/svg"
   xmlns:sodipodi="http://sodipodi.sourceforge.net/DTD/sodipodi-0.dtd"
   xmlns:inkscape="http://www.inkscape.org/namespaces/inkscape"
   version="1.1"
   id="Wikimedia_Logo"
   viewBox="-400 -525 821.98004 762.78993"
   width="626.27051"
   height="581.17328"
   inkscape:version="0.91 r13725"
   sodipodi:docname="Wikiversity_logo_2017_hi.svg">
  <metadata
     id="metadata4368">
    <rdf:RDF>
      <cc:Work
         rdf:about="">
        <dc:format>image/svg+xml</dc:format>
        <dc:type
           rdf:resource="http://purl.org/dc/dcmitype/StillImage" />
        <dc:title />
      </cc:Work>
    </rdf:RDF>
  </metadata>
  <sodipodi:namedview
     pagecolor="#ffffff"
     bordercolor="#666666"
     borderopacity="1"
     objecttolerance="10"
     gridtolerance="10"
     guidetolerance="10"
     inkscape:pageopacity="0"
     inkscape:pageshadow="2"
     inkscape:window-width="1920"
     inkscape:window-height="1018"
     id="namedview4366"
     showgrid="true"
     inkscape:zoom="0.70710678"
     inkscape:cx="-113.55068"
     inkscape:cy="192.05523"
     inkscape:current-layer="text4337"
     fit-margin-left="20"
     fit-margin-top="25"
     fit-margin-bottom="20"
     fit-margin-right="20"
     showguides="false"
     inkscape:guide-bbox="true"
     inkscape:window-x="-8"
     inkscape:window-y="-8"
     inkscape:window-maximized="1">
    <sodipodi:guide
       position="795.72743,116.93833"
       orientation="1,0"
       id="guide4187" />
    <sodipodi:guide
       position="26.253792,116.87168"
       orientation="1,0"
       id="guide4189" />
    <sodipodi:guide
       position="743.5238,117.05523"
       orientation="0,1"
       id="guide4218" />
    <sodipodi:guide
       position="734.01429,103.07504"
       orientation="0,1"
       id="guide4226" />
    <sodipodi:guide
       position="767.99574,96.999613"
       orientation="0,1"
       id="guide4242" />
    <inkscape:grid
       type="xygrid"
       id="grid8107" />
  </sodipodi:namedview>
  <defs
     id="defs4288" />
  <defs
     id="defs4315" />
  <g
     inkscape:label="logo_main"
     id="g4308"
     inkscape:groupmode="layer"
     transform="translate(-4.515954,-39.185557)"
     style="display:inline" />
  <g
     inkscape:groupmode="layer"
     id="layer1"
     inkscape:label="Wikiversity_text_en"
     style="display:inline"
     transform="translate(-6.5587085,-1.4432364)">
    <g
       style="font-style:normal;font-variant:normal;font-weight:bold;font-stretch:normal;font-size:111.18132019px;line-height:125%;font-family:'Gill Sans MT Pro';-inkscape-font-specification:'Gill Sans MT Pro, Bold';text-align:start;letter-spacing:0px;word-spacing:0px;writing-mode:lr-tb;text-anchor:start;fill:#666666;fill-opacity:1;stroke:none;stroke-width:1px;stroke-linecap:butt;stroke-linejoin:miter;stroke-opacity:1"
       id="text4337">
      <path
         style="display:inline;fill:#006499;fill-opacity:1"
         d="m 17.575658,-490.74426 c -8.8364065,1.55756 -18.1942304,8.05701 -27.3266721,20.32324 -7.7721139,10.43912 -15.1690369,24.75743 -21.7177689,42.23071 l 97.614636,0 c -6.626302,-17.61827 -14.07999,-32.04271 -21.845961,-42.5127 -9.075479,-12.23552 -18.286618,-18.61745 -26.724234,-20.04126 z m 30.500244,2.78906 c 2.564612,2.71602 5.050501,5.69176 7.449462,8.92603 9.622332,12.97277 18.137072,30.17039 25.491207,50.83886 l 67.619389,0 C 120.7239,-459.19867 86.087375,-480.46358 48.075902,-487.9552 Z m -61.36963,0.0666 c -37.886313,7.54676 -72.407795,28.77807 -100.242212,59.69824 l 67.186175,0 c 7.271763,-20.53299 15.743071,-37.62447 25.388674,-50.57997 2.46267,-3.30774 5.02177,-6.34883 7.667363,-9.11828 z m -50.264659,2.97107 a 262.50001,262.5 0 0 0 -96.599503,56.72717 l 28.17517,0 c 19.50824,-24.05803 42.684198,-43.4504 68.424333,-56.72717 z m 163.178111,0.49218 c 25.354856,13.26201 48.193156,32.47793 67.457886,56.23499 l 28.28796,0 a 262.50001,262.5 0 0 0 -95.745846,-56.23498 z m -273.981834,70.21363 a 262.50001,262.5 0 0 0 -49.45204,76.29419 l 43.50477,0 c 9.16921,-28.10657 22.00248,-53.85931 37.77282,-76.29419 l -31.82555,0 z m 49.19824,0 c -16.83538,21.92231 -30.62123,47.71959 -40.43628,76.29419 l 98.360607,0 c 3.931056,-28.31842 9.481435,-53.98894 16.308838,-76.29419 l -74.233165,0 z m 88.875744,0 c -6.984036,21.84611 -12.71743,47.59286 -16.795893,76.29419 l 141.093761,0 c -4.159208,-28.68111 -9.984254,-54.43156 -17.021486,-76.29419 l -107.276382,0 z m 121.931771,0 c 6.880388,22.31222 12.514518,47.98848 16.524165,76.29419 l 98.52979,0 c -9.81493,-28.57495 -23.60107,-54.37141 -40.43628,-76.29419 l -74.617675,0 z m 91.990365,0 c 15.77029,22.43465 28.60098,48.18801 37.77026,76.29419 l 43.79444,0 a 262.50001,262.5 0 0 0 -49.89294,-76.29419 l -31.67176,0 z m -406.94169,90.27282 a 262.50001,262.5 0 0 0 -15.64233,88.50916 l 48.62402,0 c 0,-30.95228 4.1638,-60.74036 11.81764,-88.50916 l -44.79933,0 z m 59.29578,0 c -7.96406,27.53161 -12.33545,57.33011 -12.33545,88.50916 l 108.373553,0 c 0,-31.28435 1.747791,-60.99591 4.960332,-88.50916 l -100.998435,0 z m 115.08731,0 c -3.270396,27.38189 -5.070569,57.14133 -5.070569,88.50916 l 155.087781,0 c 0,-31.33956 -1.854221,-61.10382 -5.201293,-88.50916 l -144.815919,0 z m 158.90222,0 c 3.28713,27.53234 5.09362,57.24865 5.09362,88.50916 l 108.37355,0 c 0,-31.1788 -4.37161,-60.97738 -12.33545,-88.50916 l -101.13172,0 z m 115.62818,0 c 7.65402,27.76887 11.81763,57.55679 11.81763,88.50916 l 48.62659,0 a 262.50001,262.5 0 0 0 -15.71667,-88.50916 l -44.72755,0 z m -586.79521,102.4878 0,25.48353 769.47625,0 0,-25.48353 -769.47625,0 z m 26.3064,39.45959 0,264.712275 102.76209,0 0,-264.712275 -102.76209,0 z m 204.70131,0 0,264.712275 102.762099,0 0,-264.712275 -102.762099,0 z m 204.701317,0 0,264.712275 102.759523,0 0,-264.712275 -102.759523,0 z m 204.698733,0 0,264.712275 102.76209,0 0,-264.712275 -102.76209,0 z m -640.40776,278.688355 0,25.483525 769.47625,0 0,-25.483525 -769.47625,0 z"
         id="rect4310"
         inkscape:connector-curvature="0" />
      <g
         style="font-style:normal;font-variant:normal;font-weight:normal;font-stretch:normal;font-size:101.02700043px;line-height:125%;font-family:sans-serif;-inkscape-font-specification:'sans-serif, Normal';text-align:start;letter-spacing:0px;word-spacing:0px;writing-mode:lr-tb;text-anchor:start;fill:#666666;fill-opacity:1;stroke:none;stroke-width:1px;stroke-linecap:butt;stroke-linejoin:miter;stroke-opacity:1"
         id="text8085">
        <path
           d="m -174.88601,146.91472 0,0 z m 46.71512,14.15759 -2.91045,5.62358 q -30.23904,-24.86212 -52.38802,-25.35541 -6.36352,0 -10.5072,2.21983 -5.17961,2.81179 -5.17961,8.68201 0,4.93296 4.14368,7.25145 l 19.3372,0 0,7.89273 -14.94686,0 0,57.22233 -8.68201,0 0,-57.22233 -11.49379,0 0,-7.89273 5.08094,0 q -1.6772,-3.65039 -1.6772,-7.69542 0,-9.42195 6.80748,-14.25625 6.01821,-4.29168 15.78547,-4.29168 14.79888,0 31.1763,9.22464 10.06324,5.82089 25.45407,18.59725 z m -46.71512,59.29417 0,0 z"
           style="font-style:normal;font-variant:normal;font-weight:normal;font-stretch:normal;font-family:Mangal;-inkscape-font-specification:Mangal;fill:#666666;fill-opacity:1"
           id="path8078" />
        <path
           d="m -115.09855,167.3865 -15.04552,0 0,57.22233 -8.68201,0 0,-14.74955 q -2.07184,1.57855 -4.14369,2.61447 -2.07184,1.03592 -4.19301,1.6772 -2.12117,0.59196 -4.29168,0.83861 -2.12117,0.24664 -4.29167,0.24664 -3.9957,0 -7.4981,-1.52921 -3.5024,-1.52922 -6.06754,-4.14369 -2.56514,-2.6638 -4.04502,-6.1662 -1.47989,-3.55173 -1.47989,-7.59675 0,-4.14369 1.62787,-7.54743 1.62788,-3.45307 4.489,-5.91955 2.86111,-2.46648 6.75815,-3.79838 3.94637,-1.38123 8.53402,-1.38123 2.51581,0 4.68631,0.39464 2.21983,0.39463 4.04503,0.98659 1.87452,0.54262 3.35441,1.18391 1.47989,0.64128 2.51581,1.18391 l 0,-13.51631 -40.40094,0 0,-7.89273 64.12847,0 0,7.89273 z m -23.72753,21.26105 q -1.3319,-0.73994 -3.05844,-1.47988 -1.72653,-0.73995 -3.65039,-1.38123 -1.87452,-0.64129 -3.8477,-1.03592 -1.97319,-0.39464 -3.74905,-0.39464 -4.78497,0 -7.54743,1.3319 -2.76246,1.3319 -4.19302,3.20642 -1.38122,1.87453 -1.77586,3.89704 -0.34531,2.02251 -0.34531,3.45307 0,2.41715 0.93726,4.53832 0.93727,2.07185 2.56514,3.65039 1.62788,1.52922 3.84771,2.41715 2.21983,0.88794 4.73564,0.88794 3.30508,0 6.01821,-0.88794 2.76246,-0.93726 4.8343,-2.12117 2.07184,-1.23324 3.40374,-2.41715 1.3319,-1.23324 1.8252,-1.82519 l 0,-11.83911 z"
           style="font-style:normal;font-variant:normal;font-weight:normal;font-stretch:normal;font-family:Mangal;-inkscape-font-specification:Mangal;fill:#666666;fill-opacity:1"
           id="path8080" />
        <path
           d="m -89.052526,146.91472 0,0 z m 48.047021,14.20692 -3.009105,5.91955 q -15.58815,-12.28306 -21.557031,-16.62407 -13.664296,-9.37262 -23.480885,-9.37262 -7.448768,0 -12.529714,3.5024 -5.47559,3.74905 -5.47559,9.86592 0,3.20642 2.76246,5.08095 l 20.767758,0 0,7.89273 -14.946865,0 0,57.22233 -8.682013,0 0,-57.22233 -11.49379,0 0,-7.89273 4.68631,0 q -1.18391,-2.91045 -1.18391,-5.72224 0,-9.32329 8.09005,-15.3415 7.448772,-5.47558 17.31469,-5.47558 12.727034,0 25.700717,9.76726 5.574243,4.04502 23.036918,18.39993 z m -48.047021,59.24484 0,0 z"
           style="font-style:normal;font-variant:normal;font-weight:normal;font-stretch:normal;font-family:Mangal;-inkscape-font-specification:Mangal;fill:#666666;fill-opacity:1"
           id="path8082" />
        <path
           d="m -4.5016078,159.49377 0,7.89273 -38.7237282,0 0,20.96508 q 1.825195,-1.57855 3.453071,-2.6638 1.627877,-1.08525 3.206424,-1.77587 1.627876,-0.69061 3.255753,-0.98659 1.677206,-0.29598 3.55173,-0.29598 3.60106,0 6.511506,1.23324 2.959775,1.18391 4.982289,3.40375 2.022513,2.21983 3.107764,5.37692 1.13458,3.10777 1.13458,6.95547 0,2.61447 -0.641284,5.22894 -0.591955,2.56514 -1.677206,5.03162 -1.035922,2.41715 -2.46648,4.58765 -1.381228,2.1705 -2.910446,3.84771 l -5.376925,-6.6595 q 0.937262,-0.98659 1.874524,-2.46648 0.937263,-1.52921 1.677206,-3.15709 0.739944,-1.67721 1.183911,-3.40374 0.493295,-1.72654 0.493295,-3.1571 0,-2.5158 -0.887932,-4.24234 -0.887933,-1.77587 -2.219832,-2.86112 -1.282569,-1.08525 -2.762457,-1.52921 -1.430558,-0.4933 -2.565138,-0.4933 -2.022514,0 -3.65039,0.59196 -1.627877,0.54262 -3.157094,1.57854 -1.479888,0.98659 -2.959775,2.41715 -1.479888,1.38123 -3.157094,3.05844 l 0,26.63798 -8.682008,0 0,-20.96508 q -1.18391,0.8386 -2.861116,1.87452 -1.677206,0.9866 -3.65039,1.87453 -1.923854,0.8386 -4.094356,1.43056 -2.170502,0.54262 -4.341004,0.54262 -4.834299,0 -8.139382,-1.47989 -3.255753,-1.47988 -5.278266,-3.79837 -2.022513,-2.31849 -2.910446,-5.13028 -0.887933,-2.81179 -0.887933,-5.47559 0,-3.45307 1.28257,-6.31418 1.331899,-2.86112 3.699719,-4.93296 2.36782,-2.07184 5.672903,-3.20643 3.305082,-1.18391 7.25145,-1.18391 2.663797,0 4.834299,0.44397 2.219832,0.44397 3.995697,1.03592 1.775865,0.59196 3.107764,1.23324 1.381229,0.64129 2.318491,1.03592 l 0,-14.20692 -35.171998,0 0,-7.89273 82.5777342,0 z m -47.4057362,30.83099 q -0.887932,-0.4933 -2.219831,-1.28257 -1.28257,-0.78927 -3.058435,-1.47989 -1.775865,-0.73994 -3.995697,-1.23324 -2.219831,-0.54262 -4.982288,-0.54262 -9.372622,0 -9.372622,7.15279 0,4.14368 2.36782,6.31419 2.41715,2.12117 6.314187,2.12117 1.923854,0 4.045027,-0.78927 2.170502,-0.78928 4.143685,-1.87453 2.022514,-1.13458 3.798379,-2.36782 1.775865,-1.28257 2.959775,-2.1705 l 0,-3.84771 z"
           style="font-style:normal;font-variant:normal;font-weight:normal;font-stretch:normal;font-family:Mangal;-inkscape-font-specification:Mangal;fill:#666666;fill-opacity:1"
           id="path8084" />
        <path
           d="m 56.17379,167.3865 -15.045525,0 0,57.22233 -8.682008,0 0,-14.74955 q -2.071843,1.57855 -4.143686,2.61447 -2.071842,1.03592 -4.193015,1.6772 -2.121172,0.59196 -4.291674,0.83861 -2.121172,0.24664 -4.291674,0.24664 -3.995697,0 -7.4980981,-1.52921 -3.5024009,-1.52922 -6.0675395,-4.14369 -2.56513873,-2.6638 -4.0450264,-6.1662 -1.4798877,-3.55173 -1.4798877,-7.59675 0,-4.14369 1.6278764,-7.54743 1.62787651,-3.45307 4.4889927,-5.91955 2.8611163,-2.46648 6.7581539,-3.79838 3.9463667,-1.38123 8.5340187,-1.38123 2.515809,0 4.686311,0.39464 2.219832,0.39463 4.045027,0.98659 1.874524,0.54262 3.354412,1.18391 1.479888,0.64128 2.515809,1.18391 l 0,-13.51631 -40.4009342,0 0,-7.89273 64.1284672,0 0,7.89273 z m -23.727533,21.26105 q -1.331899,-0.73994 -3.058435,-1.47988 -1.726535,-0.73995 -3.650389,-1.38123 -1.874525,-0.64129 -3.847708,-1.03592 -1.973184,-0.39464 -3.749049,-0.39464 -4.78497,0 -7.547427,1.3319 -2.7624574,1.3319 -4.1930155,3.20642 -1.3812286,1.87453 -1.7758653,3.89704 -0.3453071,2.02251 -0.3453071,3.45307 0,2.41715 0.9372622,4.53832 0.9372622,2.07185 2.5651387,3.65039 1.6278765,1.52922 3.847708,2.41715 2.219832,0.88794 4.735641,0.88794 3.305082,0 6.01821,-0.88794 2.762457,-0.93726 4.834299,-2.12117 2.071843,-1.23324 3.403742,-2.41715 1.331899,-1.23324 1.825195,-1.82519 l 0,-11.83911 z"
           style="font-style:normal;font-variant:normal;font-weight:normal;font-stretch:normal;font-family:Mangal;-inkscape-font-specification:Mangal;fill:#666666;fill-opacity:1"
           id="path8086" />
        <path
           d="m 101.16238,146.91472 0,0 z m 48.24433,14.60156 -3.30508,5.13028 q -19.04122,-13.02301 -28.85781,-17.51201 -17.11737,-8.09005 -32.014902,-8.09005 -7.843405,0 -13.318989,2.56514 -7.300779,3.40374 -7.300779,10.5072 0,3.74905 3.5024,5.37693 l 19.633177,0 0,7.89273 -14.946865,0 0,57.22233 -8.682008,0 0,-57.22233 -11.493795,0 0,-7.89273 5.080948,0 q -1.331899,-2.71313 -1.331899,-6.26486 0,-10.55653 9.323293,-16.03212 7.646086,-4.48899 18.942562,-4.48899 29.400437,0 64.769747,28.80848 z m -48.24433,58.8502 0,0 z"
           style="font-style:normal;font-variant:normal;font-weight:normal;font-stretch:normal;font-family:Mangal;-inkscape-font-specification:Mangal;fill:#666666;fill-opacity:1"
           id="path8088" />
        <path
           d="m 161.54181,167.3865 -15.04553,0 0,57.22233 -8.682,0 0,-27.13128 -25.84871,0 q -1.92385,5.27827 -7.4981,6.46218 l 17.36402,20.52111 -6.70882,5.6729 -29.005803,-34.23474 6.758153,-5.6729 5.376926,6.41285 q 0.246648,0.29598 1.085251,0.29598 6.856813,0 6.856813,-15.58815 l 0,-13.96028 -22.000997,0 0,-7.89273 77.348797,0 0,7.89273 z m -40.3516,52.97998 0,0 z m 0,-57.27165 0,0 z m 16.62407,26.48999 0,-22.19832 -22.93826,0 0,13.96028 q 0,5.22893 -0.44397,8.23804 l 23.38223,0 z m 4.341,-26.48999 0,0 z m 0,57.27165 0,0 z"
           style="font-style:normal;font-variant:normal;font-weight:normal;font-stretch:normal;font-family:Mangal;-inkscape-font-specification:Mangal;fill:#666666;fill-opacity:1"
           id="path8090" />
        <path
           d="m 145.35862,159.98706 -3.25575,7.20212 q -7.54743,-3.69972 -12.52972,-8.82999 -6.36352,-6.56084 -6.36352,-13.56564 0,-6.90614 4.39034,-11.0005 4.341,-4.09436 11.64178,-4.09436 2.56514,0 4.48899,0.54263 l 0,7.30078 q -1.82519,-0.88793 -4.14368,-0.88793 -8.63268,0 -8.63268,8.43536 0,7.25145 14.40424,14.89753 z m -3.20642,3.10777 0,0 z"
           style="font-style:normal;font-variant:normal;font-weight:normal;font-stretch:normal;font-family:Mangal;-inkscape-font-specification:Mangal;fill:#666666;fill-opacity:1"
           id="path8092" />
        <path
           d="m 219.5534,167.3865 -20.81709,0 0,18.64659 -8.73134,0 q -18.69591,0 -18.69591,13.71362 0,7.10346 5.03162,11.64179 4.88363,4.341 12.18441,4.341 8.38603,0 16.47608,-7.30078 l 6.1662,6.1662 q -9.37262,9.61927 -23.03692,9.61927 -10.26055,0 -17.80798,-6.75815 -7.74475,-6.90615 -7.74475,-16.72274 0,-11.78977 7.30078,-17.65999 6.41285,-5.17961 17.46268,-5.17961 l 2.71312,0 0,-10.5072 -32.06423,0 0,-7.89273 61.56333,0 0,7.89273 z m -25.15809,-4.29167 0,0 z m -7.30078,0 0,0 z m 1.3319,56.28506 0,0 z m -1.3319,0.98659 0,0 z m 0,10.26056 0,0 z"
           style="font-style:normal;font-variant:normal;font-weight:normal;font-stretch:normal;font-family:Mangal;-inkscape-font-specification:Mangal;fill:#666666;fill-opacity:1"
           id="path8094" />
        <path
           d="m 199.03229,146.91472 0,0 z m 46.86311,20.47178 -14.9962,0 0,57.22233 -8.682,0 0,-57.22233 -6.21553,0 0,-7.89273 2.46648,0 q -5.47559,-8.3367 -8.13939,-11.34581 -5.96888,-6.75815 -11.3458,-6.75815 -7.89274,0 -7.89274,6.41284 0,4.78497 6.6595,14.55223 l -6.56084,4.04503 q -8.53402,-11.04983 -8.53402,-18.89323 0,-6.56084 4.489,-10.55654 4.29167,-3.79837 10.90184,-3.79837 9.81658,0 18.15329,9.07664 3.05843,3.35441 12.03642,17.26536 l 17.65999,0 0,7.89273 z m -46.86311,52.97998 0,0 z m 26.8353,-67.13757 0,0 z"
           style="font-style:normal;font-variant:normal;font-weight:normal;font-stretch:normal;font-family:Mangal;-inkscape-font-specification:Mangal;fill:#666666;fill-opacity:1"
           id="path8096" />
      </g>
    </g>
  </g>
</svg>
