<?xml version="1.0" encoding="UTF-8" standalone="no"?>
<svg xmlns="http://www.w3.org/2000/svg" width="146" height="49">
	<g font-family="FMBF Wien" font-size="52" font-weight="700" letter-spacing="0" word-spacing="0" style="line-height:125%;-inkscape-font-specification:'FMBF Wien Bold';text-align:start">
		<path d="M21.049 16.326a5430 5430 0 002.92-1.93 49.434 49.434 0 003.148-2.285 55.006 55.006 0 003.047-2.539 28.469 28.469 0 002.64-2.742c.78-.93 1.431-1.87 1.956-2.818.524-.965.838-1.921.94-2.87 0-.27-.085-.473-.255-.609a.811.811 0 00-.558-.203c-.796 0-1.735.44-2.819 1.32-1.066.864-2.209 2.04-3.427 3.53-1.22 1.472-2.48 3.174-3.784 5.103a143.032 143.032 0 00-3.808 6.043M8.125 24.273c.118-.186.212-.389.28-.609.084-.22.126-.432.126-.635 0-.524-.152-.956-.457-1.295-.288-.355-.685-.533-1.193-.533-.203 0-.423.034-.66.102a1.577 1.577 0 00-.635.355l-.33-.28A32.31 32.31 0 007.668 19.5a34.403 34.403 0 004.646-4.748c.694-.88 1.295-1.76 1.803-2.64.525-.88.931-1.736 1.219-2.565.305-.846.457-1.659.457-2.438 0-.321-.042-.634-.127-.94a2.216 2.216 0 00-.38-.837 1.604 1.604 0 00-.737-.584c-.322-.135-.711-.203-1.168-.203-.88 0-1.82.178-2.818.533A15.7 15.7 0 007.617 6.5 18.794 18.794 0 004.85 8.582a17.467 17.467 0 00-2.286 2.488A13.617 13.617 0 00.99 13.762c-.39.914-.584 1.786-.584 2.615 0 .355.06.652.178.889s.262.44.432.609c.186.17.397.288.634.355.237.068.474.102.711.102s.483-.025.737-.076.541-.153.863-.305a9.672 9.672 0 001.041-.584 9.6 9.6 0 001.244-.99c.17-.119.449-.356.838-.711.406-.372.846-.812 1.32-1.32.491-.508.974-1.058 1.448-1.65a12.09 12.09 0 001.193-1.778h.355a15.538 15.538 0 01-1.193 1.777 26.858 26.858 0 01-1.396 1.625c-.457.508-.88.948-1.27 1.32-.39.373-.66.627-.812.762-.915.813-1.778 1.388-2.59 1.727-.813.322-1.43.482-1.854.482a2.425 2.425 0 01-1.625-.584c-.44-.406-.66-.956-.66-1.65 0-.83.203-1.71.61-2.64.406-.949.956-1.88 1.65-2.794a20.215 20.215 0 012.386-2.615A21.215 21.215 0 017.49 6.144a15.484 15.484 0 012.996-1.498c1.016-.372 1.98-.558 2.895-.558.745 0 1.362.118 1.853.355.491.237.872.55 1.143.94.288.372.482.795.584 1.27.118.456.178.896.178 1.32 0 .761-.17 1.548-.508 2.36a11.374 11.374 0 01-1.32 2.362 23.3 23.3 0 01-1.905 2.31 33.12 33.12 0 01-2.209 2.159 64.115 64.115 0 01-2.183 1.854 24.814 24.814 0 01-1.905 1.447c.203.118.407.203.61.254.203.034.398.05.584.05.203 0 .398.009.584.026.203.017.38.076.533.178.186.084.33.27.432.558.101.271.287.61.558 1.016l1.88-1.092c.862-.542 1.844-1.1 2.944-1.676a59.208 59.208 0 003.428-2.006 63.078 63.078 0 012.87-4.748 70.745 70.745 0 013.046-4.24 53.042 53.042 0 013.047-3.58 36.145 36.145 0 012.844-2.793c.914-.779 1.743-1.37 2.488-1.777C33.702.212 34.345 0 34.887 0c.474 0 .804.16.99.482.186.305.28.652.28 1.041-.238 1.372-.839 2.751-1.803 4.14-.965 1.37-2.167 2.724-3.606 4.062a45.892 45.892 0 01-4.799 3.859 101.405 101.405 0 01-5.383 3.53 449.121 449.121 0 00-2.564 4.417A280.79 280.79 0 0115.438 26a984.56 984.56 0 01-2.59 4.342 117.41 117.41 0 01-2.514 4.088 49.975 49.975 0 012.31-1.803 33.71 33.71 0 012.87-1.904 21.672 21.672 0 013.097-1.498c1.05-.407 2.032-.61 2.946-.61.93 0 1.675.119 2.234.356.576.22 1.024.533 1.346.94.338.388.575.837.71 1.345.153.49.271 1.007.356 1.549.102.524.203 1.032.305 1.523.101.491.254.94.457 1.346.22.39.533.694.94.914.406.237.964.355 1.675.355.39 0 .956-.144 1.701-.431.762-.288 1.558-.703 2.387-1.244a18.57 18.57 0 002.463-2.006 11.09 11.09 0 002.057-2.59l.177.152c.034.051.076.102.127.153a21.208 21.208 0 01-2.717 3.224c-.406.39-.854.77-1.345 1.143-.474.372-.982.702-1.524.99a9.48 9.48 0 01-1.65.736 5.425 5.425 0 01-1.727.28c-.965 0-1.752-.119-2.361-.356-.61-.237-1.1-.55-1.473-.94a3.89 3.89 0 01-.838-1.32 13.004 13.004 0 01-.457-1.523 60.624 60.624 0 01-.33-1.498 5.713 5.713 0 00-.431-1.346 2.26 2.26 0 00-.737-.94c-.321-.236-.753-.355-1.295-.355-1.015 0-2.107.246-3.275.737a24.875 24.875 0 00-3.402 1.752 35.127 35.127 0 00-3.022 2.107A60.697 60.697 0 009.7 35.42c-.152.186-.296.38-.431.584l-.407.61H6.906c.88-1.287 1.778-2.65 2.692-4.089a306.36 306.36 0 002.818-4.494 1800.588 1800.588 0 015.79-9.496 116.67 116.67 0 01-3.073 1.752 923.99 923.99 0 01-2.819 1.524c-.44.237-.82.448-1.142.634-.322.17-.61.33-.863.483-.254.135-.491.27-.711.406a5.89 5.89 0 00-.66.457l-.66.635-.153-.153m29.453 8.582c.271-.338.516-.66.736-.964.237-.305.483-.635.737-.99.254-.356.533-.754.838-1.194.304-.44.668-.973 1.091-1.6l6.729-9.953a3.52 3.52 0 01.355-.355c.119-.119.22-.178.305-.178a.95.95 0 01.229.025h.381c-.525.796-1.135 1.727-1.829 2.793a878.37 878.37 0 01-2.26 3.454 2368.97 2368.97 0 00-2.513 3.859c-.88 1.337-1.769 2.691-2.666 4.062a1388.872 1388.872 0 00-4.773 7.262A306.84 306.84 0 0032.88 42.2c-.643.982-1.202 1.845-1.676 2.59a29.755 29.755 0 00-1.092 1.828c-.27.491-.406.796-.406.914 0 .119.05.178.152.178.085 0 .187-.05.305-.152.119-.085.22-.195.305-.33.355-.542.787-1.194 1.295-1.956.49-.761 1.04-1.6 1.65-2.513a937.99 937.99 0 011.904-2.87 245.597 245.597 0 014.215-6.017c.728-.999 1.43-1.938 2.108-2.818.474-.593.905-1.024 1.295-1.295.406-.288.761-.432 1.066-.432.338 0 .635.127.889.381.27.254.406.66.406 1.219 0 .304-.136.677-.406 1.117-.271.44-.567.889-.889 1.346-.305.44-.593.871-.863 1.295-.271.423-.407.778-.407 1.066 0 .152.034.305.102.457.068.152.22.229.457.229.288 0 .618-.119.99-.356.39-.254.779-.559 1.168-.914.39-.372.762-.762 1.117-1.168.373-.423.703-.804.99-1.143.085 0 .128.034.128.102 0 .085-.043.17-.127.254-.17.22-.432.533-.787.94a17.8 17.8 0 01-1.118 1.167c-.406.373-.82.703-1.244.99-.423.271-.787.407-1.092.407-.44 0-.778-.136-1.015-.406a1.548 1.548 0 01-.356-1.016c0-.372.136-.779.407-1.219.27-.44.567-.88.888-1.32.322-.44.618-.863.889-1.27.27-.406.406-.77.406-1.091a.744.744 0 00-.178-.457.478.478 0 00-.431-.254c-.17 0-.423.101-.762.304-.338.203-.72.576-1.143 1.118-.744.947-1.54 2.005-2.386 3.173a323.282 323.282 0 00-2.489 3.555 352.712 352.712 0 00-2.437 3.555l-2.082 3.123-1.498 2.285c-.406.61-.643.956-.711 1.04a1.645 1.645 0 01-.457.407c-.152.102-.347.153-.584.153-.254 0-.432-.077-.533-.229a.844.844 0 01-.178-.533c0-.153.17-.525.508-1.117.338-.576.889-1.456 1.65-2.641a549.56 549.56 0 012.996-4.596c1.236-1.879 2.751-4.198 4.545-6.957h-.05a5.025 5.025 0 01-.33.407 4.03 4.03 0 00-.407.482v-.356"/>
		<path d="M53.371 28.564c-.101.153-.262.398-.482.737-.203.321-.449.702-.737 1.142-.27.424-.567.889-.888 1.397l-.914 1.473c-.305.473-.593.93-.864 1.37-.27.424-.499.788-.685 1.092 0 .085.186.127.558.127a2.91 2.91 0 001.32-.304c.407-.22.788-.483 1.143-.787.356-.305.686-.635.99-.99.305-.356.584-.678.838-.966v.356c-.795 1.016-1.557 1.786-2.285 2.31a3.885 3.885 0 01-2.361.788h-.28a1.79 1.79 0 01-.228-.077c-.186.305-.482.788-.889 1.448a185.57 185.57 0 01-1.396 2.285 267.91 267.91 0 01-1.676 2.666c-.592.93-1.168 1.82-1.726 2.666a79.583 79.583 0 01-1.524 2.234c-.457.66-.812 1.126-1.066 1.397a.455.455 0 01-.254.127 1.853 1.853 0 01-.305.025c-.084 0-.144-.025-.178-.076a.273.273 0 01-.05-.152.42.42 0 01.05-.178 397.932 397.932 0 002.311-3.504c.71-1.1 1.405-2.167 2.082-3.2l1.98-3.02a108.67 108.67 0 011.93-2.92c-.39-.255-.584-.55-.584-.89 0-.287.11-.55.33-.787.203-.237.491-.355.864-.355.084 0 .186.017.304.05.136.035.229.094.28.179.169-.254.389-.601.66-1.041a261.163 261.163 0 001.752-2.819c.287-.457.507-.804.66-1.04l-.026-.026c-.186.084-.499.296-.94.635a32.243 32.243 0 00-2.691 2.31c-.406.406-.693.728-.863.965v-.356c.373-.457.787-.905 1.244-1.345a31 31 0 011.422-1.244c.491-.39.965-.745 1.422-1.067.457-.338.863-.635 1.219-.888a481.94 481.94 0 013.225-4.85c.897-1.32 1.667-2.378 2.31-3.174.66-.812 1.219-1.388 1.676-1.726.457-.356.88-.534 1.27-.534.186 0 .372.06.558.178.186.119.28.33.28.635 0 .22-.018.474-.052.762-.033.27-.135.6-.304.99-.17.372-.44.804-.813 1.295-.355.49-.863 1.066-1.523 1.726a36.761 36.761 0 01-2.463 2.21c-.982.812-2.192 1.726-3.63 2.741m7.87-10.181c-.558 0-1.439.795-2.64 2.386-1.185 1.575-2.776 3.928-4.774 7.06l.026.024c1.76-1.286 3.165-2.412 4.214-3.376 1.05-.982 1.845-1.829 2.387-2.54.559-.727.914-1.337 1.066-1.828.17-.49.254-.905.254-1.244 0-.237-.067-.372-.203-.406a.994.994 0 00-.33-.076"/>
		<path d="M53.625 32.855c.27-.338.516-.66.736-.964.237-.305.483-.635.737-.99.254-.356.533-.754.838-1.194.304-.44.668-.973 1.091-1.6l6.729-9.953a3.52 3.52 0 01.355-.355c.119-.119.22-.178.305-.178a.95.95 0 01.229.025h.38c-.524.796-1.134 1.727-1.828 2.793a878.37 878.37 0 01-2.26 3.454 2368.97 2368.97 0 00-2.513 3.859c-.88 1.337-1.77 2.691-2.666 4.062a1388.872 1388.872 0 00-4.774 7.262 306.84 306.84 0 00-2.056 3.123c-.643.982-1.202 1.845-1.676 2.59a29.755 29.755 0 00-1.092 1.828c-.27.491-.406.796-.406.914 0 .119.05.178.152.178.085 0 .186-.05.305-.152.118-.085.22-.195.305-.33.355-.542.787-1.194 1.295-1.956.49-.761 1.04-1.6 1.65-2.513.592-.897 1.227-1.854 1.904-2.87a245.597 245.597 0 014.215-6.017c.728-.999 1.43-1.938 2.108-2.818.473-.593.905-1.024 1.294-1.295.407-.288.762-.432 1.067-.432.338 0 .635.127.889.381.27.254.406.66.406 1.219 0 .304-.136.677-.406 1.117-.271.44-.568.889-.89 1.346-.304.44-.592.871-.862 1.295-.271.423-.407.778-.407 1.066 0 .152.034.305.102.457.068.152.22.229.457.229.288 0 .618-.119.99-.356.39-.254.779-.559 1.168-.914.39-.372.762-.762 1.117-1.168.373-.423.703-.804.99-1.143.085 0 .127.034.127.102 0 .085-.042.17-.126.254-.17.22-.432.533-.788.94a17.8 17.8 0 01-1.117 1.167c-.406.373-.82.703-1.244.99-.423.271-.787.407-1.092.407-.44 0-.778-.136-1.015-.406a1.548 1.548 0 01-.356-1.016c0-.372.136-.779.406-1.219.271-.44.567-.88.89-1.32.32-.44.617-.863.888-1.27.27-.406.406-.77.406-1.091a.744.744 0 00-.178-.457.478.478 0 00-.431-.254c-.17 0-.424.101-.762.304-.339.203-.72.576-1.143 1.118-.744.947-1.54 2.005-2.386 3.173a323.282 323.282 0 00-2.489 3.555 352.712 352.712 0 00-2.437 3.555l-2.082 3.123-1.498 2.285c-.406.61-.643.956-.711 1.04a1.645 1.645 0 01-.457.407 1.03 1.03 0 01-.584.153c-.254 0-.432-.077-.533-.229a.844.844 0 01-.178-.533c0-.153.17-.525.508-1.117.338-.576.888-1.456 1.65-2.641a549.56 549.56 0 012.996-4.596c1.236-1.879 2.75-4.198 4.545-6.957h-.05a5.025 5.025 0 01-.33.407 3.938 3.938 0 00-.407.482v-.356"/>
		<path d="M69.418 28.564c-.102.153-.262.398-.482.737-.204.321-.449.702-.737 1.142-.27.424-.567.889-.888 1.397l-.915 1.473c-.304.473-.592.93-.863 1.37-.27.424-.5.788-.685 1.092 0 .085.186.127.558.127a2.91 2.91 0 001.32-.304c.407-.22.788-.483 1.143-.787.356-.305.686-.635.99-.99.305-.356.584-.678.838-.966v.356c-.795 1.016-1.557 1.786-2.285 2.31a3.885 3.885 0 01-2.361.788h-.28a1.79 1.79 0 01-.228-.077c-.186.305-.482.788-.889 1.448a185.57 185.57 0 01-1.396 2.285c-.525.846-1.084 1.735-1.676 2.666-.592.93-1.168 1.82-1.727 2.666a79.583 79.583 0 01-1.523 2.234c-.457.66-.812 1.126-1.066 1.397a.455.455 0 01-.254.127 1.853 1.853 0 01-.305.025c-.085 0-.144-.025-.178-.076a.273.273 0 01-.05-.152c0-.051.016-.11.05-.178a397.932 397.932 0 002.31-3.504c.712-1.1 1.406-2.167 2.083-3.2l1.98-3.02a108.67 108.67 0 011.93-2.92c-.39-.255-.584-.55-.584-.89 0-.287.11-.55.33-.787.203-.237.491-.355.863-.355.085 0 .187.017.305.05.136.035.229.094.28.179.169-.254.389-.601.66-1.041a261.163 261.163 0 001.752-2.819c.287-.457.507-.804.66-1.04l-.026-.026c-.186.084-.5.296-.94.635a32.243 32.243 0 00-2.691 2.31c-.406.406-.694.728-.863.965v-.356c.373-.457.787-.905 1.244-1.345a31 31 0 011.422-1.244c.491-.39.965-.745 1.422-1.067.457-.338.863-.635 1.219-.888 1.27-1.93 2.344-3.547 3.224-4.85.898-1.32 1.668-2.378 2.31-3.174.661-.812 1.22-1.388 1.677-1.726.457-.356.88-.534 1.27-.534.185 0 .372.06.558.178.186.119.28.33.28.635 0 .22-.018.474-.052.762-.034.27-.135.6-.304.99-.17.372-.44.804-.813 1.295-.355.49-.863 1.066-1.523 1.726a37.013 37.013 0 01-2.463 2.21c-.982.812-2.192 1.726-3.631 2.741m7.871-10.181c-.559 0-1.439.795-2.64 2.386-1.185 1.575-2.777 3.928-4.774 7.06l.025.024c1.76-1.286 3.166-2.412 4.215-3.376 1.05-.982 1.845-1.829 2.387-2.54.559-.727.914-1.337 1.066-1.828.17-.49.254-.905.254-1.244 0-.237-.067-.372-.203-.406a.994.994 0 00-.33-.076"/>
		<path d="M83.535 33.21a17.8 17.8 0 01-.61.737c-.304.356-.668.72-1.091 1.092a8.301 8.301 0 01-1.396.99c-.491.288-.974.432-1.448.432-.457 0-.804-.144-1.04-.432-.238-.287-.356-.66-.356-1.117 0-.254.008-.44.025-.558a1.68 1.68 0 01.076-.229l-.05-.05c-.305.304-.593.6-.864.888-.27.27-.55.516-.838.736-.27.22-.55.398-.838.533a2.065 2.065 0 01-.888.204.673.673 0 01-.33-.102 1.708 1.708 0 01-.356-.28 2.983 2.983 0 01-.279-.456 1.85 1.85 0 01-.102-.635c0-.186.017-.347.051-.483.034-.135.068-.253.102-.355l-.61.61a8.926 8.926 0 01-.812.761 5.21 5.21 0 01-.94.66c-.321.186-.634.28-.939.28a.965.965 0 01-.813-.407c-.22-.287-.33-.668-.33-1.142 0-.271.11-.652.33-1.143.22-.49.55-1.058.99-1.701l1.372-1.955c.067-.119.144-.22.228-.305.085-.135.153-.22.203-.254a.707.707 0 01.305-.05h.584c-.305.389-.61.804-.914 1.244-.288.44-.567.871-.838 1.295-.406.643-.77 1.27-1.092 1.878-.321.593-.482 1.126-.482 1.6 0 .237.06.415.178.533a.64.64 0 00.431.153c.271 0 .61-.144 1.016-.432.406-.288.846-.686 1.32-1.193.474-.508.965-1.11 1.473-1.803a78.48 78.48 0 001.879-2.717c.288-.423.592-.635.914-.635.203 0 .355.017.457.051l.05.025c-.287.39-.6.813-.939 1.27-.321.44-.66.914-1.015 1.422a17.47 17.47 0 00-1.092 1.879c-.305.626-.457 1.134-.457 1.523 0 .406.211.61.635.61.49 0 1.184-.44 2.082-1.32.457-.44.998-1.05 1.625-1.829a59.234 59.234 0 002.183-2.844c.17-.22.33-.397.483-.533.152-.152.296-.228.431-.228.203 0 .305.152.305.457-1.253 1.608-2.09 2.818-2.514 3.63-.39.813-.584 1.397-.584 1.753 0 .22.026.397.076.533.051.118.11.211.178.28.068.05.136.084.203.1.085.018.153.026.203.026.44 0 .898-.144 1.371-.432a7.8 7.8 0 001.346-.99 13.997 13.997 0 001.752-1.93v.356m.051-.356c.372-.457.736-.897 1.092-1.32.355-.423.702-.795 1.04-1.117a6.79 6.79 0 01.991-.762c.322-.203.618-.304.889-.304.067 0 .16.016.279.05a.93.93 0 01.38.203c.12.102.22.254.306.458.101.203.152.473.152.812 0 .152-.034.339-.102.559-.067.22-.144.397-.228.533l.025.025.965-.914c.339-.321.669-.61.99-.863a5.38 5.38 0 011.016-.61 2.253 2.253 0 011.015-.253c.068 0 .153.016.254.05a.655.655 0 01.33.153.7.7 0 01.28.304c.084.136.127.322.127.559 0 .474-.237 1.117-.711 1.93a33.596 33.596 0 01-1.752 2.742c-.711.999-1.473 2.057-2.285 3.174a115.02 115.02 0 00-2.285 3.25 31.534 31.534 0 00-1.778 2.92c-.457.914-.685 1.667-.685 2.26 0 .456.093.812.279 1.066.186.254.39.44.61.558.22.119.422.187.609.204.203.016.321.025.355.025.542 0 1.126-.186 1.752-.559a9.643 9.643 0 001.879-1.447 16.785 16.785 0 001.777-1.98 19.93 19.93 0 001.498-2.159c.44-.71.787-1.37 1.041-1.98.271-.61.407-1.092.407-1.447a1.8 1.8 0 00-.153-.762c-.101-.22-.321-.33-.66-.33-.575 0-1.185.178-1.828.533-.626.372-1.227.813-1.803 1.32a14.432 14.432 0 00-1.498 1.575c-.423.541-.728.981-.914 1.32a4.551 4.551 0 01-.28.457c-.067.135-.118.203-.151.203-.034 0-.051-.042-.051-.127 0-.254.093-.567.28-.94.202-.372.473-.77.812-1.193a13.21 13.21 0 012.538-2.412 9.392 9.392 0 011.473-.838c.508-.203.99-.304 1.448-.304.237 0 .423.05.558.152.152.118.262.254.33.406.085.17.136.339.153.508.033.186.05.339.05.457 0 .39-.127.897-.38 1.523a16.196 16.196 0 01-1.016 2.032 18.623 18.623 0 01-1.498 2.183 16.108 16.108 0 01-1.828 2.006 10.176 10.176 0 01-1.98 1.447c-.678.373-1.33.559-1.956.56-.474 0-.863-.103-1.168-.306a2.543 2.543 0 01-.736-.736c-.17-.27-.288-.55-.356-.838a3.176 3.176 0 01-.101-.685c0-.474.135-1.041.406-1.702.27-.66.618-1.38 1.041-2.158.44-.761.94-1.557 1.498-2.386.559-.83 1.126-1.66 1.701-2.489.593-.812 1.168-1.608 1.727-2.386a48.21 48.21 0 001.498-2.133c.44-.644.795-1.21 1.066-1.701.271-.491.407-.864.407-1.118a.99.99 0 00-.051-.355c-.034-.102-.119-.152-.254-.152-.237 0-.576.135-1.016.406-.423.254-.922.643-1.498 1.168a20.722 20.722 0 00-1.879 1.93 29.386 29.386 0 00-2.082 2.665c-.321.525-.635.788-.94.788a.345.345 0 01-.253-.102c-.05-.05-.076-.178-.076-.38 1.168-1.423 2.023-2.6 2.564-3.53.559-.931.838-1.6.838-2.006 0-.423-.068-.686-.203-.787-.135-.102-.262-.152-.38-.152-.221 0-.475.101-.763.304-.287.186-.6.449-.94.787a18.39 18.39 0 00-1.09 1.143c-.373.44-.746.897-1.118 1.371v-.355"/>
		<path d="M98.033 43.342c-.135.237-.254.355-.355.355-.051 0-.076-.067-.076-.203v-.101c.101-.474.38-1.016.837-1.625a11.38 11.38 0 011.6-1.676c.61-.525 1.236-.974 1.879-1.346.643-.355 1.193-.533 1.65-.533.17 0 .347.017.534.05.186.051.355.136.507.255.17.135.305.313.407.533.101.237.152.541.152.914 0 .372-.144.846-.432 1.422-.27.575-.651 1.185-1.142 1.828a17.044 17.044 0 01-1.676 1.93 13.906 13.906 0 01-2.006 1.751c-.71.525-1.447.948-2.209 1.27-.745.322-1.473.482-2.183.482-.474 0-.88-.067-1.22-.203a2.047 2.047 0 01-.812-.558 1.944 1.944 0 01-.457-.813 2.804 2.804 0 01-.152-.94c0-.676.211-1.463.635-2.36.406-.898.914-1.837 1.523-2.819a90.495 90.495 0 011.98-2.97 81.366 81.366 0 001.88-2.819l-.051-.05a6.643 6.643 0 01-1.22.964c-.44.254-.939.38-1.497.38-.491 0-.889-.143-1.193-.43-.305-.288-.458-.627-.458-1.016 0-.644.085-1.151.254-1.524a7 7 0 01.584-1.015l-.05-.026a3.408 3.408 0 00-.381.457 2.269 2.269 0 01-.229.305v-.33a48.717 48.717 0 011.6-1.93 34.71 34.71 0 011.32-1.472l.66-.026c.186 0 .28.026.28.076 0 .051-.17.263-.508.635-.322.372-.686.838-1.092 1.397a13.207 13.207 0 00-1.117 1.777c-.322.643-.483 1.261-.483 1.853 0 .407.093.678.28.813.186.135.364.203.533.203.61 0 1.252-.254 1.93-.762.694-.524 1.413-1.286 2.158-2.285a54.384 54.384 0 001.93-2.793 791.173 791.173 0 002.31-3.63 652.66 652.66 0 012.844-4.419 180.152 180.152 0 013.504-5.103l.914.076c-.627.931-1.33 1.98-2.108 3.148-.761 1.152-1.565 2.37-2.412 3.657-.846 1.27-1.718 2.59-2.615 3.96a858.708 858.708 0 01-2.691 4.089c-.88 1.337-1.752 2.657-2.616 3.96a458.753 458.753 0 01-2.412 3.631c-1.015 1.524-1.836 2.853-2.463 3.987-.643 1.134-.965 1.972-.965 2.513 0 .525.094.931.28 1.22.17.304.372.524.61.66.236.152.473.245.71.279.237.033.415.05.533.05.644 0 1.32-.16 2.032-.482.71-.322 1.404-.736 2.082-1.244a15.728 15.728 0 001.98-1.727 16.075 16.075 0 001.625-1.879 10.77 10.77 0 001.117-1.777c.288-.559.432-1.007.432-1.346 0-.49-.085-.863-.254-1.117-.17-.237-.508-.355-1.016-.355-.49 0-1.015.194-1.574.584-.558.406-1.1.871-1.625 1.396a23.837 23.837 0 00-1.396 1.625c-.407.542-.72.948-.94 1.219"/>
		<path d="M119.488 33.21c-.101.136-.304.382-.61.737-.304.356-.668.72-1.09 1.092a8.301 8.301 0 01-1.397.99c-.491.288-.974.432-1.448.432-.457 0-.804-.144-1.04-.432-.238-.287-.356-.66-.356-1.117 0-.254.008-.44.025-.558a1.86 1.86 0 01.076-.229l-.05-.05a40.9 40.9 0 00-.864.888c-.27.27-.55.516-.837.736a4.08 4.08 0 01-.838.533 2.065 2.065 0 01-.89.204.673.673 0 01-.33-.102 1.708 1.708 0 01-.355-.28 2.982 2.982 0 01-.279-.456 1.85 1.85 0 01-.101-.635c0-.186.016-.347.05-.483.034-.135.068-.253.102-.355l-.61.61a8.928 8.928 0 01-.812.761c-.288.254-.6.474-.94.66-.321.186-.634.28-.939.28a.965.965 0 01-.812-.407c-.22-.287-.33-.668-.33-1.142 0-.271.11-.652.33-1.143.22-.49.55-1.058.99-1.701l1.37-1.955c.069-.119.145-.22.23-.305.084-.135.152-.22.203-.254a.706.706 0 01.304-.05h.584a26.3 26.3 0 00-.914 1.244c-.288.44-.567.871-.838 1.295-.406.643-.77 1.27-1.091 1.878-.322.593-.483 1.126-.483 1.6 0 .237.06.415.178.533a.64.64 0 00.431.153c.271 0 .61-.144 1.016-.432.406-.288.846-.686 1.32-1.193.474-.508.965-1.11 1.473-1.803.508-.694 1.134-1.6 1.879-2.717.288-.423.592-.635.914-.635.203 0 .355.017.457.051l.05.025c-.287.39-.6.813-.939 1.27-.321.44-.66.914-1.015 1.422a17.47 17.47 0 00-1.092 1.879c-.305.626-.457 1.134-.457 1.523 0 .406.212.61.635.61.49 0 1.185-.44 2.082-1.32.457-.44.998-1.05 1.625-1.829a59.234 59.234 0 002.183-2.844c.17-.22.33-.397.483-.533.152-.152.296-.228.431-.228.204 0 .305.152.305.457-1.253 1.608-2.09 2.818-2.514 3.63-.389.813-.584 1.397-.584 1.753 0 .22.026.397.077.533.05.118.11.211.177.28.068.05.136.084.203.1.085.018.153.026.204.026.44 0 .897-.144 1.37-.432.492-.287.94-.617 1.346-.99a13.996 13.996 0 001.752-1.93v.356"/>
		<path d="M118.6 35.928c0 .186.067.313.203.38.135.051.338.077.61.077.304 0 .727-.119 1.269-.356.558-.254 1.168-.643 1.828-1.168.66-.524 1.345-1.201 2.056-2.03.711-.847 1.388-1.871 2.032-3.073-.424.017-.914.144-1.473.38-.542.238-1.109.542-1.701.915-.593.355-1.177.761-1.752 1.218-.576.44-1.092.89-1.549 1.346a7.33 7.33 0 00-1.092 1.295c-.288.406-.431.745-.431 1.016m16.63-18.256c0-.22-.05-.381-.152-.483-.101-.101-.347-.152-.736-.152-.491 0-.931.178-1.32.533-.373.339-.737.813-1.092 1.422-.339.61-.669 1.337-.99 2.184-.305.846-.627 1.769-.965 2.767a13.44 13.44 0 001.98-1.6 18.218 18.218 0 001.676-1.853c.49-.61.88-1.168 1.168-1.676.288-.507.431-.888.431-1.142m-6.347 14.726c0-.49-.042-.897-.127-1.218-.085-.339-.195-.61-.33-.813a1.22 1.22 0 00-.457-.431 1.221 1.221 0 00-.508-.178 21.109 21.109 0 01-2.057 2.869 16.445 16.445 0 01-2.209 2.158c-.728.593-1.438 1.05-2.133 1.371-.677.305-1.294.457-1.853.457-.288 0-.5-.067-.635-.203a.579.579 0 01-.228-.482c0-.457.135-.931.406-1.422.254-.491.6-.973 1.041-1.447a9.96 9.96 0 011.523-1.371c.576-.44 1.177-.821 1.803-1.143a11.282 11.282 0 011.854-.762c.626-.203 1.21-.304 1.752-.304.169-.339.321-.66.457-.965.152-.322.296-.66.431-1.016.136-.355.271-.736.407-1.143.152-.406.321-.871.507-1.396-.846.694-1.692 1.405-2.539 2.133a78.424 78.424 0 00-2.437 2.133 91.89 91.89 0 00-2.21 2.082 30.232 30.232 0 00-1.802 1.904v-.356c.863-.964 2.031-2.15 3.504-3.554 1.49-1.405 3.343-2.954 5.56-4.647.271-.795.593-1.659.965-2.59.373-.93.787-1.785 1.244-2.564.474-.796 1.008-1.456 1.6-1.98.593-.525 1.261-.788 2.006-.788.372 0 .652.094.838.28a.846.846 0 01.305.685c0 .271-.127.66-.381 1.168-.237.491-.601 1.041-1.092 1.65-.474.61-1.075 1.253-1.803 1.93a17.095 17.095 0 01-2.463 1.88 247.77 247.77 0 00-.635 1.751c-.169.457-.33.872-.482 1.244a19.537 19.537 0 01-1.117 2.21c.457.067.863.338 1.219.812.355.474.533 1.202.533 2.183 0 .187-.026.44-.076.762a6.79 6.79 0 00-.051.635c0 .152.025.254.076.305.068.033.144.05.229.05.152 0 .389-.101.71-.304.339-.22.703-.593 1.092-1.117v.355a5.594 5.594 0 01-1.6 1.422c-.626.355-1.32.702-2.081 1.04l-.178-.177c.203-.152.39-.338.559-.558a3.5 3.5 0 00.457-.762 4.245 4.245 0 00.406-1.778"/>
		<path d="M137.16 28.564c-.101.153-.262.398-.482.737a88.07 88.07 0 01-.737 1.142c-.27.424-.567.889-.888 1.397l-.914 1.473c-.305.473-.593.93-.864 1.37-.27.424-.499.788-.685 1.092 0 .085.186.127.558.127a2.91 2.91 0 001.32-.304c.407-.22.788-.483 1.143-.787.356-.305.686-.635.99-.99.305-.356.585-.678.838-.966v.356c-.795 1.016-1.557 1.786-2.285 2.31a3.885 3.885 0 01-2.361.788h-.28a1.79 1.79 0 01-.228-.077c-.186.305-.482.788-.889 1.448A184.37 184.37 0 01130 39.965a269.04 269.04 0 01-1.676 2.666c-.592.93-1.168 1.82-1.726 2.666a79.58 79.58 0 01-1.524 2.234c-.457.66-.812 1.126-1.066 1.397a.455.455 0 01-.254.127 1.853 1.853 0 01-.305.025c-.084 0-.144-.025-.178-.076a.273.273 0 01-.05-.152.42.42 0 01.05-.178 397.926 397.926 0 002.311-3.504c.711-1.1 1.405-2.167 2.082-3.2l1.98-3.02a108.7 108.7 0 011.93-2.92c-.39-.255-.584-.55-.584-.89 0-.287.11-.55.33-.787.203-.237.491-.355.864-.355.084 0 .186.017.304.05.136.035.229.094.28.179.169-.254.389-.601.66-1.041a261.66 261.66 0 001.752-2.819c.287-.457.507-.804.66-1.04l-.026-.026c-.186.084-.499.296-.939.635a32.24 32.24 0 00-2.691 2.31c-.407.406-.694.728-.864.965v-.356a15.21 15.21 0 011.244-1.345 31 31 0 011.422-1.244c.491-.39.965-.745 1.422-1.067.457-.338.863-.635 1.219-.888a495.86 495.86 0 013.225-4.85c.897-1.32 1.667-2.378 2.31-3.174.66-.812 1.219-1.388 1.676-1.726.457-.356.88-.534 1.27-.534.186 0 .372.06.558.178.186.119.28.33.28.635 0 .22-.018.474-.051.762-.034.27-.136.6-.305.99-.17.372-.44.804-.813 1.295-.355.49-.863 1.066-1.523 1.726a36.761 36.761 0 01-2.463 2.21c-.982.812-2.192 1.726-3.63 2.741m7.87-10.181c-.558 0-1.439.795-2.64 2.386-1.185 1.575-2.776 3.928-4.774 7.06l.026.024c1.76-1.286 3.165-2.412 4.214-3.376 1.05-.982 1.845-1.829 2.387-2.54.559-.727.914-1.337 1.067-1.828.169-.49.253-.905.253-1.244 0-.237-.067-.372-.203-.406a.994.994 0 00-.33-.076"/>
	</g>
</svg>
