<svg xmlns="http://www.w3.org/2000/svg" width="371" height="104" fill-rule="evenodd" clip-rule="evenodd" image-rendering="optimizeQuality" shape-rendering="geometricPrecision" text-rendering="geometricPrecision" viewBox="0 0 371 104">
	<path fill="#5e686e" fill-rule="nonzero" d="M9.986 8.392H6.91c-.528 0-.854.209-.983.628l-3.044 9.068c-.193.535.016.793.628.773h6.024c.419.02.693-.141.822-.483l.708-1.885c.161-.463.02-.692-.418-.692H7.683c-.568-.02-.801-.322-.693-.902.109-.657.435-.995.983-1.015h5.524c.367 0 .472.221.323.66l-.886 2.674c-.226.632-.612 1.788-1.16 3.463-.084.302-.274.447-.564.435H1.063C.354 21.128 0 20.878 0 20.375c0-.149.032-.322.097-.515l2.206-6.427 2.19-6.378c.15-.463.512-.693 1.08-.693h4.751c.407 0 .56.318.451.95-.116.721-.382 1.08-.789 1.08zM5.548 2.384l1.015.322c.117.076.213.028.29-.145l.434-1.015c.065-.213-.02-.322-.257-.322H5.339c-.343 0-.516-.21-.516-.628 0-.399.181-.596.548-.596h3.35c.43.044.596.21.5.5l-1.5 3.816c-.096.277-.354.338-.773.177l-1.98-.822c-.194-.064-.29-.221-.29-.467 0-.237.092-.455.273-.66.181-.205.383-.258.596-.161zm9.977 3.962h5.187c.567.02.801.222.692.596l-.064.226-4.462 13.288c-.084.438-.447.66-1.079.66-.334 0-.608-.08-.83-.242-.22-.16-.285-.386-.2-.676l3.768-11.21c.15-.42-.048-.629-.596-.629h-2.867c-.567-.02-.801-.354-.692-.998.108-.677.487-1.015 1.143-1.015zm8.166 0h5.187c.568.02.801.222.692.596l-.064.226-4.462 13.288c-.084.438-.447.66-1.079.66-.334 0-.608-.08-.83-.242-.22-.16-.285-.386-.2-.676l3.768-11.21c.15-.42-.048-.629-.596-.629H23.24c-.567-.02-.8-.354-.692-.998.109-.677.487-1.015 1.143-1.015zm-2.457-3.962l1.015.322c.117.076.213.028.29-.145l.435-1.015c.064-.213-.02-.322-.258-.322h-1.691c-.342 0-.515-.21-.515-.628 0-.399.18-.596.547-.596h3.35c.431.044.596.21.5.5l-1.498 3.817c-.097.277-.355.338-.773.177l-1.982-.822c-.193-.064-.29-.221-.29-.467 0-.237.093-.455.274-.66.181-.205.383-.258.596-.161zM45.917 6.99l-3.495 11.388c-.419 1.333-1.2 2.166-2.344 2.504-1.143.339-2.355.31-3.632-.088-.213-.065-.821-.375-1.82-.934a.75.75 0 01-.08.128.291.291 0 01-.049.081 2.06 2.06 0 00-.193.226 2.7 2.7 0 01-1.981.82c-.773 0-1.422-.26-1.949-.788-.528-.528-.79-1.176-.79-1.95 0-.74.262-1.376.79-1.908.527-.531 1.176-.797 1.949-.797.419-.02.978.165 1.675.564l2.416-7.184c.149-.439.06-.66-.274-.66H32.5c-.45 0-.592-.37-.419-1.112.161-.624.5-.934 1.015-.934h5.557c.495 0 .66.21.5.628l-3.56 10.534c1.32.922 2.267 1.373 2.834 1.353 1.031-.012 1.708-.503 2.03-1.482l3.35-10.405c.149-.419.532-.628 1.144-.628.753 0 1.075.213.966.644zm-13.61 10.47a.99.99 0 00-.717.29.936.936 0 000 1.369c.197.193.439.29.717.29.29 0 .535-.097.733-.29a.936.936 0 000-1.37 1.008 1.008 0 00-.733-.29zm4.098 9.551l1.305-2.85.129-.275-.29-.177h-2.11c-.322 0-.483-.225-.483-.676 0-.451.157-.677.467-.677h3.608c.728.032.962.322.692.87L38 27.124c-.109.302-.383.45-.822.45-.656 0-.914-.189-.773-.563zm20.463-16.944h4.59c.633 0 .923.23.87.692l-2.754 9.761c-.129.399-.487.596-1.08.596-.849 0-1.207-.197-1.078-.596l2.464-8.166c.109-.342-.097-.512-.612-.5h-2.98l-2.722 8.537c-.149.463-.483.705-.998.725h-5.622c-.612 0-.918-.197-.918-.596 0-.109.02-.238.065-.387l2.673-7.956c.065-.214-.012-.323-.225-.323H46.56c-.42 0-.576-.293-.467-.885.108-.6.37-.902.789-.902h3.898c.483 0 .66.21.531.628l-2.496 7.586c-.11.375.036.564.435.564h2.335c.205 0 .342-.15.419-.451L55.918 6.7c.076-.237.43-.354 1.063-.354.729 0 1.047.157.95.467zm17.129 0h4.59c.632 0 .922.23.87.692l-2.754 9.761c-.13.399-.488.596-1.08.596-.85 0-1.208-.197-1.079-.596l2.465-8.166c.108-.342-.097-.512-.612-.5h-2.98l-2.722 8.537c-.15.463-.483.705-.999.725h-5.621c-.612 0-.918-.197-.918-.596 0-.109.02-.238.064-.387l2.674-7.956c.064-.214-.012-.323-.225-.323h-1.982c-.418 0-.575-.293-.467-.885.109-.6.37-.902.79-.902h3.897c.484 0 .66.21.532.628l-2.497 7.586c-.108.375.037.564.435.564h2.336c.205 0 .342-.15.418-.451L73.046 6.7c.077-.237.431-.354 1.063-.354.73 0 1.047.157.95.467zm7.078-3.721h7.135c.193 0 .375.093.54.282.165.19.205.39.12.604l-3.769 11.146c-.084.334.081.5.5.5h6.571c.399 0 .544.398.435 1.191-.108.676-.35 1.027-.725 1.047h-8.89c-.665 0-.886-.358-.66-1.08l3.865-11.322c.064-.214.004-.322-.178-.322h-5.202c-.419 0-.576-.367-.467-1.096.109-.632.35-.95.725-.95zm12.65 8.311h3.528c.226 0 .387.117.483.354.097.246.06.431-.112.548l-1.675 1.095c-.13.097-.101.161.08.194.419.129.838.366 1.256.708.302.278.496.608.58.983.141.374.08.966-.177 1.772-.246.547-.833 1.107-1.756 1.675-.632.354-.95.648-.95.886 0 .149.145.225.435.225.56.065 1.18-.036 1.868-.306.194-.173.37-.177.532-.016l.193.338c.161.213.133.423-.08.628-1.224.451-2.267.645-3.125.58-.922-.129-1.385-.568-1.385-1.32 0-.472.527-1.076 1.586-1.805 1.06-.728 1.587-1.502 1.587-2.319a.665.665 0 00-.226-.5c-.567-.547-1.324-.776-2.27-.692-.343.044-.516-.173-.516-.644 0-.161.064-.274.193-.338l1.32-.79c.142-.084.142-.165 0-.241h-1.368c-.206 0-.306-.157-.306-.467.032-.367.133-.548.306-.548z"/>
</svg>
