<?xml version="1.0" encoding="UTF-8" standalone="no"?>
<svg
	xmlns="http://www.w3.org/2000/svg"
	xmlns:dc="http://purl.org/dc/elements/1.1/"
	xmlns:cc="http://creativecommons.org/ns#"
	xmlns:rdf="http://www.w3.org/1999/02/22-rdf-syntax-ns#"
	xmlns:svg="http://www.w3.org/2000/svg"
	xmlns:xlink="http://www.w3.org/1999/xlink"
	xmlns:sodipodi="http://sodipodi.sourceforge.net/DTD/sodipodi-0.dtd"
	xmlns:inkscape="http://www.inkscape.org/namespaces/inkscape"
	version="1.1"
	viewBox="0 0 135 155">
	<svg xmlns:svg="http://www.w3.org/2000/svg" xmlns:xlink="http://www.w3.org/1999/xlink" version="1.1" width="135" height="155" viewBox="0 0 135 155" id="svg3857" xml:space="preserve" xmlns:svgjs="http://svgjs.com/svgjs"><defs id="defs4850">
	
		<radialGradient cx="-145.4702" cy="87.823196" r="68.686401" id="SVGID_1_" gradientUnits="userSpaceOnUse" gradientTransform="matrix(1,0,0,-1,192.3999,143.0996)">
		<stop id="stop3922" offset="0" style="stop-color:#ffffff;stop-opacity:1"></stop>
		<stop id="stop3924" offset="0.4835" style="stop-color:#eaeaeb;stop-opacity:1"></stop>
		<stop id="stop3926" offset="0.94510001" style="stop-color:#a9abae;stop-opacity:1"></stop>
		<stop id="stop3928" offset="1" style="stop-color:#999b9e;stop-opacity:1"></stop>
	</radialGradient>
	
	
	<linearGradient x1="66.232399" y1="24.481001" x2="112.7331" y2="97.232101" id="SVGID_2_" gradientUnits="userSpaceOnUse">
		<stop id="stop3935" offset="0" style="stop-color:#8a8a8a;stop-opacity:1"></stop>
		<stop id="stop3937" offset="0.56870002" style="stop-color:#606060;stop-opacity:1"></stop>
		<stop id="stop3939" offset="0.59140003" style="stop-color:#ffffff;stop-opacity:1"></stop>
		<stop id="stop3941" offset="0.61159998" style="stop-color:#585858;stop-opacity:1"></stop>
		<stop id="stop3943" offset="1" style="stop-color:#303030;stop-opacity:1"></stop>
	</linearGradient>
	
	
	<linearGradient x1="54.715801" y1="65.136703" x2="83.798798" y2="65.136703" id="SVGID_5_" gradientUnits="userSpaceOnUse">
		<stop id="stop3964" offset="0" style="stop-color:#231f20;stop-opacity:1"></stop>
		<stop id="stop3966" offset="1" style="stop-color:#474747;stop-opacity:1"></stop>
	</linearGradient>
	
	
	
	
	
	
	
	
	
		<linearGradient x1="-123.5898" y1="119.8076" x2="-94.069099" y2="29.9035" id="SVGID_6_" gradientUnits="userSpaceOnUse" gradientTransform="matrix(1,0,0,-1,192.3999,143.0996)">
		<stop id="stop3997" offset="0" style="stop-color:#ffffff;stop-opacity:1"></stop>
		<stop id="stop3999" offset="0.0094" style="stop-color:#fcfcfc;stop-opacity:1"></stop>
		<stop id="stop4001" offset="0.0655" style="stop-color:#eeeeee;stop-opacity:1"></stop>
		<stop id="stop4003" offset="0.13420001" style="stop-color:#e5e5e5;stop-opacity:1"></stop>
		<stop id="stop4005" offset="0.25150001" style="stop-color:#e3e3e3;stop-opacity:1"></stop>
		<stop id="stop4007" offset="0.33570001" style="stop-color:#8a8a8a;stop-opacity:1"></stop>
		<stop id="stop4009" offset="0.44220001" style="stop-color:#b8b8b8;stop-opacity:1"></stop>
		<stop id="stop4011" offset="1" style="stop-color:#3b3b3b;stop-opacity:1"></stop>
	</linearGradient>
	
	<linearGradient x1="70.421898" y1="26.876499" x2="119.5471" y2="87.626701" id="SVGID_7_" gradientUnits="userSpaceOnUse">
		<stop id="stop4016" offset="0" style="stop-color:#eff0f0;stop-opacity:1"></stop>
		<stop id="stop4018" offset="0.59140003" style="stop-color:#f0f1f2;stop-opacity:1"></stop>
		<stop id="stop4020" offset="0.59899998" style="stop-color:#787878;stop-opacity:1"></stop>
		<stop id="stop4022" offset="0.64560002" style="stop-color:#eeeff0;stop-opacity:1"></stop>
		<stop id="stop4024" offset="1" style="stop-color:#d8d9db;stop-opacity:1"></stop>
	</linearGradient>
	
	
		<linearGradient x1="-117.166" y1="122.1328" x2="-87.569702" y2="31.998501" id="SVGID_8_" gradientUnits="userSpaceOnUse" gradientTransform="matrix(1,0,0,-1,192.3999,143.0996)">
		<stop id="stop4029" offset="0" style="stop-color:#ffffff;stop-opacity:1"></stop>
		<stop id="stop4031" offset="1" style="stop-color:#e4e5e6;stop-opacity:1"></stop>
	</linearGradient>
	
	<linearGradient x1="54.653301" y1="25.2764" x2="79.683601" y2="106.3903" id="SVGID_9_" gradientUnits="userSpaceOnUse">
		<stop id="stop4036" offset="0" style="stop-color:#ffffff;stop-opacity:1"></stop>
		<stop id="stop4038" offset="0.74730003" style="stop-color:#f9f9f9;stop-opacity:1"></stop>
		<stop id="stop4040" offset="1" style="stop-color:#d5d7d8;stop-opacity:1"></stop>
	</linearGradient>
	
	
	
	
	
		<linearGradient x1="-115.3369" y1="119.6328" x2="-134.85719" y2="24.6462" id="SVGID_10_" gradientUnits="userSpaceOnUse" gradientTransform="matrix(1,0,0,-1,192.3999,143.0996)">
		<stop id="stop4061" offset="0" style="stop-color:#ffffff;stop-opacity:1"></stop>
		<stop id="stop4063" offset="1" style="stop-color:#e4e5e6;stop-opacity:1"></stop>
	</linearGradient>
	
	<linearGradient x1="32.519001" y1="33.077099" x2="37.2481" y2="92.496101" id="SVGID_11_" gradientUnits="userSpaceOnUse">
		<stop id="stop4068" offset="0.2198" style="stop-color:#989a9c;stop-opacity:1"></stop>
		<stop id="stop4070" offset="0.2527" style="stop-color:#ffffff;stop-opacity:1"></stop>
	</linearGradient>
	
	
		<linearGradient x1="-152.6201" y1="126.8398" x2="-171.9462" y2="32.797901" id="SVGID_12_" gradientUnits="userSpaceOnUse" gradientTransform="matrix(1,0,0,-1,192.3999,143.0996)">
		<stop id="stop4075" offset="0" style="stop-color:#ffffff;stop-opacity:1"></stop>
		<stop id="stop4077" offset="1" style="stop-color:#e4e5e6;stop-opacity:1"></stop>
	</linearGradient>
	
	
		<linearGradient x1="-130.1348" y1="35.625" x2="-130.14281" y2="35.585701" id="SVGID_13_" gradientUnits="userSpaceOnUse" gradientTransform="matrix(1,0,0,-1,192.3999,143.0996)">
		<stop id="stop4082" offset="0" style="stop-color:#ffffff;stop-opacity:1"></stop>
		<stop id="stop4084" offset="1" style="stop-color:#e4e5e6;stop-opacity:1"></stop>
	</linearGradient>
	
	
	
	
		<linearGradient x1="-121.1382" y1="120.3223" x2="-140.54491" y2="25.888" id="SVGID_14_" gradientUnits="userSpaceOnUse" gradientTransform="matrix(1,0,0,-1,192.3999,143.0996)">
		<stop id="stop4093" offset="0" style="stop-color:#ffffff;stop-opacity:1"></stop>
		<stop id="stop4095" offset="1" style="stop-color:#e4e5e6;stop-opacity:1"></stop>
	</linearGradient>
	
	
		<linearGradient x1="-135.58591" y1="123.3525" x2="-155.006" y2="28.8524" id="SVGID_15_" gradientUnits="userSpaceOnUse" gradientTransform="matrix(1,0,0,-1,192.3999,143.0996)">
		<stop id="stop4100" offset="0" style="stop-color:#ffffff;stop-opacity:1"></stop>
		<stop id="stop4102" offset="1" style="stop-color:#e4e5e6;stop-opacity:1"></stop>
	</linearGradient>
	
	
		<linearGradient x1="-127.4014" y1="121.9365" x2="-146.8837" y2="27.1346" id="SVGID_16_" gradientUnits="userSpaceOnUse" gradientTransform="matrix(1,0,0,-1,192.3999,143.0996)">
		<stop id="stop4107" offset="0" style="stop-color:#ffffff;stop-opacity:1"></stop>
		<stop id="stop4109" offset="1" style="stop-color:#e4e5e6;stop-opacity:1"></stop>
	</linearGradient>
	
	
		<linearGradient x1="-118.4946" y1="124.0039" x2="-138.85201" y2="24.9438" id="SVGID_17_" gradientUnits="userSpaceOnUse" gradientTransform="matrix(1,0,0,-1,192.3999,143.0996)">
		<stop id="stop4114" offset="0" style="stop-color:#ffffff;stop-opacity:1"></stop>
		<stop id="stop4116" offset="1" style="stop-color:#e4e5e6;stop-opacity:1"></stop>
	</linearGradient>
	
	
		<linearGradient x1="-115.3716" y1="119.1758" x2="-134.7878" y2="24.695299" id="SVGID_18_" gradientUnits="userSpaceOnUse" gradientTransform="matrix(1,0,0,-1,192.3999,143.0996)">
		<stop id="stop4121" offset="0" style="stop-color:#ffffff;stop-opacity:1"></stop>
		<stop id="stop4123" offset="1" style="stop-color:#e4e5e6;stop-opacity:1"></stop>
	</linearGradient>
	
	
	
	
	
	
	
	
	
	
	
	
		<linearGradient x1="-175.4424" y1="83.6045" x2="-75.6362" y2="83.6045" id="SVGID_21_" gradientUnits="userSpaceOnUse" gradientTransform="matrix(1,0,0,-1,192.3999,143.0996)">
		<stop id="stop4198" offset="0" style="stop-color:#555555;stop-opacity:1"></stop>
		<stop id="stop4200" offset="1" style="stop-color:#231f20;stop-opacity:1"></stop>
	</linearGradient>
	
	
		<linearGradient x1="-175.14211" y1="104.0801" x2="-83.541" y2="104.0801" id="SVGID_22_" gradientUnits="userSpaceOnUse" gradientTransform="matrix(1,0,0,-1,192.3999,143.0996)">
		<stop id="stop4205" offset="0" style="stop-color:#a0a0a0;stop-opacity:1"></stop>
		<stop id="stop4207" offset="0.0769" style="stop-color:#656767;stop-opacity:1"></stop>
		<stop id="stop4209" offset="1" style="stop-color:#717375;stop-opacity:1"></stop>
	</linearGradient>
	
	
	
	
	
	
	
		<linearGradient x1="-172.3853" y1="78.209" x2="-172.3853" y2="78.209" id="SVGID_23_" gradientUnits="userSpaceOnUse" gradientTransform="matrix(1,0,0,-1,192.3999,143.0996)">
		<stop id="stop4224" offset="0" style="stop-color:#ffffff;stop-opacity:1"></stop>
		<stop id="stop4226" offset="0.078" style="stop-color:#f4f4f4;stop-opacity:1"></stop>
		<stop id="stop4228" offset="0.38069999" style="stop-color:#cecece;stop-opacity:1"></stop>
		<stop id="stop4230" offset="0.53960001" style="stop-color:#bfbfbf;stop-opacity:1"></stop>
		<stop id="stop4232" offset="0.83569998" style="stop-color:#7c7c7c;stop-opacity:1"></stop>
		<stop id="stop4234" offset="0.89960003" style="stop-color:#a8a8a8;stop-opacity:1"></stop>
		<stop id="stop4236" offset="0.90930003" style="stop-color:#9a9a9a;stop-opacity:1"></stop>
		<stop id="stop4238" offset="0.93269998" style="stop-color:#7d7d7d;stop-opacity:1"></stop>
		<stop id="stop4240" offset="0.9558" style="stop-color:#686868;stop-opacity:1"></stop>
		<stop id="stop4242" offset="0.97850001" style="stop-color:#5b5b5b;stop-opacity:1"></stop>
		<stop id="stop4244" offset="1" style="stop-color:#575757;stop-opacity:1"></stop>
	</linearGradient>
	
	
		<linearGradient x1="-175.7173" y1="78.449203" x2="-67.153198" y2="90.476799" id="SVGID_24_" gradientUnits="userSpaceOnUse" gradientTransform="matrix(1,0,0,-1,192.3999,143.0996)">
		<stop id="stop4249" offset="0" style="stop-color:#ffffff;stop-opacity:1"></stop>
		<stop id="stop4251" offset="0.078" style="stop-color:#f4f4f4;stop-opacity:1"></stop>
		<stop id="stop4253" offset="0.38069999" style="stop-color:#cecece;stop-opacity:1"></stop>
		<stop id="stop4255" offset="0.53960001" style="stop-color:#bfbfbf;stop-opacity:1"></stop>
		<stop id="stop4257" offset="0.83569998" style="stop-color:#7c7c7c;stop-opacity:1"></stop>
		<stop id="stop4259" offset="0.89960003" style="stop-color:#a8a8a8;stop-opacity:1"></stop>
		<stop id="stop4261" offset="0.90930003" style="stop-color:#9a9a9a;stop-opacity:1"></stop>
		<stop id="stop4263" offset="0.93269998" style="stop-color:#7d7d7d;stop-opacity:1"></stop>
		<stop id="stop4265" offset="0.9558" style="stop-color:#686868;stop-opacity:1"></stop>
		<stop id="stop4267" offset="0.97850001" style="stop-color:#5b5b5b;stop-opacity:1"></stop>
		<stop id="stop4269" offset="1" style="stop-color:#575757;stop-opacity:1"></stop>
	</linearGradient>
	
	
		<linearGradient x1="-176.1851" y1="78.4795" x2="-52.131699" y2="92.223099" id="SVGID_25_" gradientUnits="userSpaceOnUse" gradientTransform="matrix(1,0,0,-1,192.3999,143.0996)">
		<stop id="stop4274" offset="0" style="stop-color:#ffffff;stop-opacity:1"></stop>
		<stop id="stop4276" offset="0.078" style="stop-color:#f4f4f4;stop-opacity:1"></stop>
		<stop id="stop4278" offset="0.38069999" style="stop-color:#cecece;stop-opacity:1"></stop>
		<stop id="stop4280" offset="0.53960001" style="stop-color:#bfbfbf;stop-opacity:1"></stop>
		<stop id="stop4282" offset="0.83569998" style="stop-color:#7c7c7c;stop-opacity:1"></stop>
		<stop id="stop4284" offset="0.89960003" style="stop-color:#a8a8a8;stop-opacity:1"></stop>
		<stop id="stop4286" offset="0.90930003" style="stop-color:#9a9a9a;stop-opacity:1"></stop>
		<stop id="stop4288" offset="0.93269998" style="stop-color:#7d7d7d;stop-opacity:1"></stop>
		<stop id="stop4290" offset="0.9558" style="stop-color:#686868;stop-opacity:1"></stop>
		<stop id="stop4292" offset="0.97850001" style="stop-color:#5b5b5b;stop-opacity:1"></stop>
		<stop id="stop4294" offset="1" style="stop-color:#575757;stop-opacity:1"></stop>
	</linearGradient>
	
	<linearGradient x1="21.2129" y1="71.326698" x2="117.1948" y2="51.952599" id="SVGID_26_" gradientUnits="userSpaceOnUse">
		<stop id="stop4299" offset="0" style="stop-color:#ededee;stop-opacity:1"></stop>
		<stop id="stop4301" offset="0.41760001" style="stop-color:#ffffff;stop-opacity:1"></stop>
		<stop id="stop4303" offset="0.62639999" style="stop-color:#f8f9f9;stop-opacity:1"></stop>
		<stop id="stop4305" offset="1" style="stop-color:#bfc0c2;stop-opacity:1"></stop>
	</linearGradient>
	
	
	
	
	<linearGradient x1="23.471201" y1="30.732401" x2="27.9561" y2="30.732401" id="SVGID_27_" gradientUnits="userSpaceOnUse">
		<stop id="stop4316" offset="0" style="stop-color:#e2e3e4;stop-opacity:1"></stop>
		<stop id="stop4318" offset="0.50550002" style="stop-color:#ffffff;stop-opacity:1"></stop>
	</linearGradient>
	
	
	
	
	
	
	
	
	
	
	
	
	
	
	
	
	
	
	
	
	
	
	
	
	
	
	
	
	
	
	
	
	
	
	
	
	
	
	
	
	
	
	
	
	
	
	
	
	
	
	
	
	
	
	
	
	
	
	
	
	
	
	
	
	
	
	
	
	
	
	
	
	
	
	
	
	
	
	
	
	
	
	
	
	
	
	
	
	
	
	
	
	
	
	
	
	
	
	
	
	
	
	
	
	
	
	
	
	
	
	
	
	
	
	
	
	
	
	
	
	
	
	
	
	
	
	
	
	
	
	
	
	
	
	
	
	
	
	
	
	
	
	
	
	
	
	
	
	
	
	
	
	
	
	
	
	
	
	
	
	
	
	
	
	
	
	
	
	
	
	
	
	
	
	
	
	
	
	<linearGradient x1="22.5742" y1="49.7188" x2="111.5455" y2="29.204" id="SVGID_34_" gradientUnits="userSpaceOnUse">
		<stop id="stop4743" offset="0" style="stop-color:#ffffff;stop-opacity:1"></stop>
		<stop id="stop4745" offset="0.65380001" style="stop-color:#ffffff;stop-opacity:1"></stop>
		<stop id="stop4747" offset="1" style="stop-color:#cbccce;stop-opacity:1"></stop>
	</linearGradient>
	
	
	
	
	
	
	
	
		<linearGradient x1="-158.8101" y1="107.0898" x2="-126.4229" y2="107.0898" id="SVGID_35_" gradientUnits="userSpaceOnUse" gradientTransform="matrix(1,0,0,-1,192.3999,143.0996)">
		<stop id="stop4770" offset="0" style="stop-color:#696969;stop-opacity:1"></stop>
		<stop id="stop4772" offset="0.37020001" style="stop-color:#2e2e2e;stop-opacity:1"></stop>
		<stop id="stop4774" offset="0.45539999" style="stop-color:#424242;stop-opacity:1"></stop>
		<stop id="stop4776" offset="0.60140002" style="stop-color:#303030;stop-opacity:1"></stop>
		<stop id="stop4778" offset="0.6947" style="stop-color:#4a4a4a;stop-opacity:1"></stop>
		<stop id="stop4780" offset="1" style="stop-color:#666666;stop-opacity:1"></stop>
	</linearGradient>
	
	
		<linearGradient x1="-158.4185" y1="107.8965" x2="-126.5454" y2="107.8965" id="SVGID_36_" gradientUnits="userSpaceOnUse" gradientTransform="matrix(1,0,0,-1,192.3999,143.0996)">
		<stop id="stop4785" offset="0" style="stop-color:#525252;stop-opacity:1"></stop>
		<stop id="stop4787" offset="0.1856" style="stop-color:#333333;stop-opacity:1"></stop>
		<stop id="stop4789" offset="0.354" style="stop-color:#aeaeae;stop-opacity:1"></stop>
		<stop id="stop4791" offset="0.4199" style="stop-color:#adadad;stop-opacity:1"></stop>
		<stop id="stop4793" offset="0.4276" style="stop-color:#9d9d9d;stop-opacity:1"></stop>
		<stop id="stop4795" offset="0.44330001" style="stop-color:#818181;stop-opacity:1"></stop>
		<stop id="stop4797" offset="0.46110001" style="stop-color:#6a6a6a;stop-opacity:1"></stop>
		<stop id="stop4799" offset="0.48140001" style="stop-color:#585858;stop-opacity:1"></stop>
		<stop id="stop4801" offset="0.50599998" style="stop-color:#4c4c4c;stop-opacity:1"></stop>
		<stop id="stop4803" offset="0.53899997" style="stop-color:#444444;stop-opacity:1"></stop>
		<stop id="stop4805" offset="0.61659998" style="stop-color:#424242;stop-opacity:1"></stop>
		<stop id="stop4807" offset="0.66839999" style="stop-color:#454545;stop-opacity:1"></stop>
		<stop id="stop4809" offset="1" style="stop-color:#bdbdbd;stop-opacity:1"></stop>
	</linearGradient>
	
	
		<linearGradient x1="-153.1255" y1="97.627899" x2="-154.15421" y2="104.4332" id="SVGID_37_" gradientUnits="userSpaceOnUse" gradientTransform="matrix(1,0,0,-1,192.3999,143.0996)">
		<stop id="stop4814" offset="0" style="stop-color:#969696;stop-opacity:1"></stop>
		<stop id="stop4816" offset="1" style="stop-color:#000000;stop-opacity:1"></stop>
	</linearGradient>
	
	
	
	<linearGradient x1="38.737301" y1="46.373001" x2="39.487301" y2="38.790001" id="SVGID_38_" gradientUnits="userSpaceOnUse">
		<stop id="stop4825" offset="0" style="stop-color:#333333;stop-opacity:1"></stop>
		<stop id="stop4827" offset="0.43099999" style="stop-color:#000000;stop-opacity:1"></stop>
		<stop id="stop4829" offset="1" style="stop-color:#2e2e2e;stop-opacity:1"></stop>
	</linearGradient>
	
	
	
	
	
		<radialGradient cx="-138.2334" cy="106.5996" r="72.751701" id="SVGID_39_" gradientUnits="userSpaceOnUse" gradientTransform="matrix(1,0,0,-1,192.3999,143.0996)">
		<stop id="stop4840" offset="0" style="stop-color:#000000;stop-opacity:0"></stop>
		<stop id="stop4842" offset="0.80220002" style="stop-color:#000000;stop-opacity:0.08"></stop>
		<stop id="stop4844" offset="1" style="stop-color:#000000;stop-opacity:0.3882353"></stop>
	</radialGradient>
	
<radialGradient cx="-138.2334" cy="106.5996" r="72.751701" id="radialGradient5007" xlink:href="#SVGID_39_" gradientUnits="userSpaceOnUse" gradientTransform="matrix(1,0,0,-1,192.3999,143.0996)"></radialGradient><linearGradient x1="38.737301" y1="46.373001" x2="39.487301" y2="38.790001" id="linearGradient5013" xlink:href="#SVGID_38_" gradientUnits="userSpaceOnUse"></linearGradient><linearGradient x1="-153.1255" y1="97.627899" x2="-154.15421" y2="104.4332" id="linearGradient5018" xlink:href="#SVGID_37_" gradientUnits="userSpaceOnUse" gradientTransform="matrix(1,0,0,-1,192.3999,143.0996)"></linearGradient><linearGradient x1="-158.4185" y1="107.8965" x2="-126.5454" y2="107.8965" id="linearGradient5021" xlink:href="#SVGID_36_" gradientUnits="userSpaceOnUse" gradientTransform="matrix(1,0,0,-1,192.3999,143.0996)"></linearGradient><linearGradient x1="-158.8101" y1="107.0898" x2="-126.4229" y2="107.0898" id="linearGradient5024" xlink:href="#SVGID_35_" gradientUnits="userSpaceOnUse" gradientTransform="matrix(1,0,0,-1,192.3999,143.0996)"></linearGradient><linearGradient x1="22.5742" y1="49.7188" x2="111.5455" y2="29.204" id="linearGradient5036" xlink:href="#SVGID_34_" gradientUnits="userSpaceOnUse"></linearGradient><linearGradient x1="23.471201" y1="30.732401" x2="27.9561" y2="30.732401" id="linearGradient5252" xlink:href="#SVGID_27_" gradientUnits="userSpaceOnUse"></linearGradient><linearGradient x1="21.2129" y1="71.326698" x2="117.1948" y2="51.952599" id="linearGradient5258" xlink:href="#SVGID_26_" gradientUnits="userSpaceOnUse"></linearGradient><linearGradient x1="-176.1851" y1="78.4795" x2="-52.131699" y2="92.223099" id="linearGradient5261" xlink:href="#SVGID_25_" gradientUnits="userSpaceOnUse" gradientTransform="matrix(1,0,0,-1,192.3999,143.0996)"></linearGradient><linearGradient x1="-175.7173" y1="78.449203" x2="-67.153198" y2="90.476799" id="linearGradient5264" xlink:href="#SVGID_24_" gradientUnits="userSpaceOnUse" gradientTransform="matrix(1,0,0,-1,192.3999,143.0996)"></linearGradient><linearGradient x1="-172.3853" y1="78.209" x2="-172.3853" y2="78.209" id="linearGradient5267" xlink:href="#SVGID_23_" gradientUnits="userSpaceOnUse" gradientTransform="matrix(1,0,0,-1,192.3999,143.0996)"></linearGradient><linearGradient x1="-175.14211" y1="104.0801" x2="-83.541" y2="104.0801" id="linearGradient5275" xlink:href="#SVGID_22_" gradientUnits="userSpaceOnUse" gradientTransform="matrix(1,0,0,-1,192.3999,143.0996)"></linearGradient><linearGradient x1="-175.4424" y1="83.6045" x2="-75.6362" y2="83.6045" id="linearGradient5278" xlink:href="#SVGID_21_" gradientUnits="userSpaceOnUse" gradientTransform="matrix(1,0,0,-1,192.3999,143.0996)"></linearGradient><linearGradient x1="-115.3716" y1="119.1758" x2="-134.7878" y2="24.695299" id="linearGradient5317" xlink:href="#SVGID_18_" gradientUnits="userSpaceOnUse" gradientTransform="matrix(1,0,0,-1,192.3999,143.0996)"></linearGradient><linearGradient x1="-118.4946" y1="124.0039" x2="-138.85201" y2="24.9438" id="linearGradient5320" xlink:href="#SVGID_17_" gradientUnits="userSpaceOnUse" gradientTransform="matrix(1,0,0,-1,192.3999,143.0996)"></linearGradient><linearGradient x1="-127.4014" y1="121.9365" x2="-146.8837" y2="27.1346" id="linearGradient5323" xlink:href="#SVGID_16_" gradientUnits="userSpaceOnUse" gradientTransform="matrix(1,0,0,-1,192.3999,143.0996)"></linearGradient><linearGradient x1="-135.58591" y1="123.3525" x2="-155.006" y2="28.8524" id="linearGradient5326" xlink:href="#SVGID_15_" gradientUnits="userSpaceOnUse" gradientTransform="matrix(1,0,0,-1,192.3999,143.0996)"></linearGradient><linearGradient x1="-121.1382" y1="120.3223" x2="-140.54491" y2="25.888" id="linearGradient5329" xlink:href="#SVGID_14_" gradientUnits="userSpaceOnUse" gradientTransform="matrix(1,0,0,-1,192.3999,143.0996)"></linearGradient><linearGradient x1="-130.1348" y1="35.625" x2="-130.14281" y2="35.585701" id="linearGradient5334" xlink:href="#SVGID_13_" gradientUnits="userSpaceOnUse" gradientTransform="matrix(1,0,0,-1,192.3999,143.0996)"></linearGradient><linearGradient x1="-152.6201" y1="126.8398" x2="-171.9462" y2="32.797901" id="linearGradient5337" xlink:href="#SVGID_12_" gradientUnits="userSpaceOnUse" gradientTransform="matrix(1,0,0,-1,192.3999,143.0996)"></linearGradient><linearGradient x1="32.519001" y1="33.077099" x2="37.2481" y2="92.496101" id="linearGradient5340" xlink:href="#SVGID_11_" gradientUnits="userSpaceOnUse"></linearGradient><linearGradient x1="-115.3369" y1="119.6328" x2="-134.85719" y2="24.6462" id="linearGradient5343" xlink:href="#SVGID_10_" gradientUnits="userSpaceOnUse" gradientTransform="matrix(1,0,0,-1,192.3999,143.0996)"></linearGradient><linearGradient x1="54.653301" y1="25.2764" x2="79.683601" y2="106.3903" id="linearGradient5354" xlink:href="#SVGID_9_" gradientUnits="userSpaceOnUse"></linearGradient><linearGradient x1="-117.166" y1="122.1328" x2="-87.569702" y2="31.998501" id="linearGradient5357" xlink:href="#SVGID_8_" gradientUnits="userSpaceOnUse" gradientTransform="matrix(1,0,0,-1,192.3999,143.0996)"></linearGradient><linearGradient x1="70.421898" y1="26.876499" x2="119.5471" y2="87.626701" id="linearGradient5360" xlink:href="#SVGID_7_" gradientUnits="userSpaceOnUse"></linearGradient><linearGradient x1="-123.5898" y1="119.8076" x2="-94.069099" y2="29.9035" id="linearGradient5363" xlink:href="#SVGID_6_" gradientUnits="userSpaceOnUse" gradientTransform="matrix(1,0,0,-1,192.3999,143.0996)"></linearGradient><linearGradient x1="54.715801" y1="65.136703" x2="83.798798" y2="65.136703" id="linearGradient5379" xlink:href="#SVGID_5_" gradientUnits="userSpaceOnUse"></linearGradient><linearGradient x1="66.232399" y1="24.481001" x2="112.7331" y2="97.232101" id="linearGradient5391" xlink:href="#SVGID_2_" gradientUnits="userSpaceOnUse"></linearGradient><radialGradient cx="-145.4702" cy="87.823196" r="68.686401" id="radialGradient5395" xlink:href="#SVGID_1_" gradientUnits="userSpaceOnUse" gradientTransform="matrix(1,0,0,-1,192.3999,143.0996)"></radialGradient>
	
	

		
		
		
		
		
		
		
		
		
		
		
	</defs><path d="m 18.173274,118.93086 c 0,0 -0.347067,-0.74039 -0.465279,-0.98653 -0.788705,-1.64056 -0.771683,-1.7279 -1.568899,-1.83806 -0.223183,-0.0308 -0.338557,-0.0605 -0.338557,-0.17666 l 0,-0.51907 0.06714,-0.0506 c 1.440285,-0.002 4.645229,-0.002 4.645229,-0.002 l 0.122939,0.0427 0,0.51708 c 0,0.1181 -0.08039,0.17864 -0.243988,0.17864 l -0.336666,0.0506 c -0.85112,0.0695 -0.712104,0.4347 -0.146582,1.61674 l 5.368682,11.52762 0.183463,0.0526 4.766278,-11.87101 c 0.165495,-0.47838 0.139961,-0.8178 -0.07281,-1.01729 -0.213726,-0.19453 -0.36409,-0.30965 -0.916373,-0.33347 l -0.447312,-0.0238 c -0.05485,0 -0.106862,-0.0208 -0.156985,-0.0596 -0.04917,-0.0367 -0.07471,-0.0854 -0.07471,-0.14391 l 0,-0.49425 0.06809,-0.0506 c 1.34288,0 5.384758,0 5.384758,0 l 0.05485,0.0506 0,0.49425 c 0,0.13398 -0.07281,0.20147 -0.216563,0.20147 -0.705485,0.0328 -1.228451,0.19354 -1.567008,0.48036 -0.339503,0.28881 -0.604296,0.6868 -0.794379,1.20388 0,0 -4.383273,10.52918 -5.883137,14.02866 -0.574034,1.1473 -1.13861,1.0421 -1.635098,-0.0328 -1.04877,-2.26681 -4.002159,-9.14369 -4.002159,-9.14369 l -1.79492,-3.70193 z" id="path3898"></path><path d="m 26.77527,115.35198 c 0,0 -3.029045,-0.01 -4.377599,0 l -0.06714,0.0506 0,0.49227 c 0,0.0605 0.02459,0.10818 0.07377,0.1449 0.05013,0.0387 0.101188,0.0586 0.156039,0.0586 l 0.216563,0.0248 c 0.551337,0.0238 0.804781,0.17567 0.880437,0.27095 0.13145,0.16872 0.196704,0.35133 -0.121994,1.0808 l -5.655226,11.83727 -0.148473,-0.0407 c 0,0 -4.050389,-8.96306 -5.223045,-11.96133 -0.121994,-0.31064 -0.176844,-0.5409 -0.176844,-0.68282 0,-0.30469 0.261956,-0.46944 0.785869,-0.49227 l 0.610915,-0.0268 c 0.161713,0 0.243989,-0.0655 0.243989,-0.20147 l 0,-0.49227 -0.05485,-0.0506 c 0,0 -4.8513888,-0.006 -5.85382,0 l -0.054849,0.0506 0,0.51708 c 0,0.0933 0.1125371,0.15086 0.3385569,0.17666 0.6156441,0.0347 1.0203994,0.13796 1.2152114,0.30965 0.1938665,0.17369 0.3990812,0.61236 0.6714407,1.29618 1.472439,3.71186 4.600781,10.33565 6.124287,14.10806 0.4388,1.03019 0.990137,1.18998 1.659685,-0.0318 1.159416,-2.25689 4.302889,-9.14865 4.302889,-9.14865 l 2.475816,-4.85917 c 0.288435,-0.51311 0.566468,-0.97064 0.707376,-1.18402 0.258174,-0.39005 0.402864,-0.46349 1.108348,-0.49823 0.143746,0 0.216564,-0.0675 0.216564,-0.20346 l 0,-0.49226 -0.0539,-0.0526 z" id="path3900"></path><path d="m 20.800401,126.66821 c -0.01891,0.0655 0.17779,0.29079 0.23926,0.31064 l 0.146582,-0.0973 c 0.06052,0.0198 0.191974,-0.0407 0.210888,-0.10421 l 0.02553,-0.26202 -0.263848,-1.29419 c -0.04823,-0.0665 -0.08512,-0.0179 -0.101188,0.0427 l -0.257228,1.40436 z" id="path3902" style="fill:#ffffff"></path><path d="m 35.985343,130.7185 c 0,0.5677 0.245879,0.90316 1.032693,0.98057 l 0.516346,0.0526 c 0.07377,0 0.147528,0.0506 0.147528,0.15384 l 0,0.54189 -0.02459,0.0526 c 0,0 -1.868683,-0.0526 -2.630909,-0.0526 -0.688462,0 -2.606321,0.0526 -2.606321,0.0526 l -0.04917,-0.0526 0,-0.54189 c 0,-0.10322 0.07377,-0.15384 0.172116,-0.15384 l 0.491758,-0.0526 c 0.811403,-0.0774 1.057282,-0.49028 1.057282,-0.98057 l 0,-8.59286 c 0,-0.56671 -0.296001,-0.72352 -1.057282,-0.79894 l -0.491758,-0.0536 c -0.09835,0 -0.172116,-0.0238 -0.172116,-0.10322 l 0,-0.59449 0.02459,-0.0516 c 0,0 1.942447,0.0516 2.704673,0.0516 0.663874,0 2.557145,-0.0516 2.557145,-0.0516 l 0.02459,0.0516 0,0.5677 c 0,0.0774 -0.04917,0.12902 -0.147528,0.12902 l -0.516346,0.0526 c -0.762226,0.0764 -1.032693,0.28385 -1.032693,0.80093 l 0,8.59286 z" id="path3904"></path><path d="m 43.241621,130.7185 c 0,0.5677 0.319643,0.85155 1.032693,0.98057 l 0.270467,0.0526 c 0.07377,0.0248 0.147529,0.0506 0.147529,0.15384 l 0,0.54189 -0.02459,0.0526 c 0,0 -1.54904,-0.0526 -2.286678,-0.0526 -0.688462,0 -2.704673,0.0526 -2.704673,0.0526 l -0.04917,-0.0526 0,-0.54189 c 0,-0.10322 0.07377,-0.15384 0.172115,-0.15384 l 0.49176,-0.0526 c 0.737638,-0.0774 1.057281,-0.49028 1.057281,-0.98057 l 0,-8.59286 c 0,-0.56671 -0.270467,-0.72352 -1.057281,-0.79894 l -0.49176,-0.0536 c -0.09835,0 -0.172115,-0.0238 -0.172115,-0.10322 l 0,-0.59449 0.02459,-0.0516 c 0,0 2.016211,0.0516 2.778436,0.0516 0.689409,0 2.237503,-0.0516 2.237503,-0.0516 l 0.02459,0.0516 0,0.5677 c 0,0.0774 -0.04917,0.10321 -0.147528,0.12902 l -0.270467,0.0526 c -0.762226,0.15383 -1.032693,0.28385 -1.032693,0.80093 l 0,3.89646 c 0.811402,0 1.278572,-0.43768 2.360442,-1.65148 0.983517,-1.13638 1.745744,-2.08916 1.745744,-2.58044 0,-0.20743 -0.221292,-0.43867 -0.713051,-0.51708 -0.09835,-0.0248 -0.147528,-0.0516 -0.147528,-0.12902 l 0,-0.59449 0.02459,-0.0248 c 0,0 1.991623,0.0516 2.704673,0.0516 0.639287,0 1.721156,-0.0516 1.721156,-0.0516 l 0.07377,0.0248 0,0.59449 c 0,0.0774 -0.07377,0.12902 -0.196703,0.12902 -0.958929,0.0774 -1.622804,0.12902 -2.507969,1.187 l -2.114563,2.55365 c -0.417995,0.46547 -0.565522,0.74832 -0.565522,0.95575 0,0.15483 0.09835,0.28286 0.221291,0.43768 l 3.712778,4.6964 c 0.295056,0.36027 0.885166,0.51609 1.376925,0.61832 l 0.122939,0.0248 c 0.07377,0.0258 0.172116,0.0774 0.172116,0.15483 l 0,0.54189 -0.07377,0.0258 c 0,0 -1.30316,-0.0258 -1.991623,-0.0258 -0.614698,0 -1.499863,0.0258 -1.499863,0.0258 l -0.02459,-0.0258 0,-0.30965 c 0,-0.33645 -0.02459,-0.61832 -0.368819,-1.03119 l -2.729262,-3.562 c -0.368819,-0.51708 -0.762226,-0.64411 -1.30316,-0.64411 l 0,3.82202 0,0 z" id="path3906"></path><path d="m 56.497356,130.7185 c 0,0.5677 0.245879,0.90316 1.032693,0.98057 l 0.516346,0.0526 c 0.07377,0 0.147528,0.0506 0.147528,0.15384 l 0,0.54189 -0.02459,0.0526 c 0,0 -1.868683,-0.0526 -2.630909,-0.0526 -0.688462,0 -2.606321,0.0526 -2.606321,0.0526 l -0.04917,-0.0526 0,-0.54189 c 0,-0.10322 0.07377,-0.15384 0.172115,-0.15384 l 0.491759,-0.0526 c 0.811402,-0.0774 1.057281,-0.49028 1.057281,-0.98057 l 0,-8.59286 c 0,-0.56671 -0.295055,-0.72352 -1.057281,-0.79894 l -0.491759,-0.0536 c -0.09835,0 -0.172115,-0.0238 -0.172115,-0.10322 l 0,-0.59449 0.02459,-0.0516 c 0,0 1.942447,0.0516 2.704672,0.0516 0.663875,0 2.557146,-0.0516 2.557146,-0.0516 l 0.02459,0.0516 0,0.5677 c 0,0.0774 -0.04917,0.12902 -0.147528,0.12902 l -0.516346,0.0526 c -0.762226,0.0764 -1.032693,0.28385 -1.032693,0.80093 l 0,8.59286 z" id="path3908"></path><path d="m 61.810241,122.17626 c 0,-0.79994 -0.319643,-0.82575 -1.475277,-0.90316 -0.147527,0 -0.172115,-0.0764 -0.172115,-0.12902 l 0,-0.5935 0.04917,-0.0258 c 0.36882,0 1.819507,0.0516 2.532558,0.0516 0.688462,0 1.671979,-0.0516 2.581733,-0.0516 3.489595,0 4.128881,1.80532 4.128881,3.14913 0,1.54926 -0.713049,3.97388 -4.202645,3.97388 -0.614699,0 -1.106457,-0.0526 -1.549986,-0.25804 l 0,3.4558 c 0,0.5677 0.295056,0.69771 1.082815,0.82574 l 0.492705,0.0774 c 0.09835,0.0258 0.172115,0.0526 0.172115,0.15483 l 0,0.54189 -0.02364,0.0516 c 0,0 -1.967035,-0.0516 -2.729261,-0.0516 -0.688463,0 -2.532557,0.0516 -2.532557,0.0516 l -0.02459,-0.0516 0,-0.54189 c 0,-0.10322 0.04917,-0.12902 0.147528,-0.15483 l 0.516346,-0.0774 c 0.762226,-0.10322 1.008105,-0.33546 1.008105,-0.82574 l -0.0019,-8.66928 0,0 z m 1.893271,4.49095 c 0.491759,0.20743 1.106457,0.23224 1.598216,0.23224 1.476221,0 2.186434,-0.93094 2.186434,-2.91589 0,-2.21918 -0.958929,-2.70947 -2.309373,-2.70947 -1.181167,0 -1.476223,0.23224 -1.476223,0.90316 l 9.46e-4,4.48996 0,0 z" id="path3910"></path><path d="m 73.689996,132.4474 c -0.737637,0 -2.43326,0.0526 -2.43326,0.0526 l -0.02553,-0.0526 0,-0.5677 c 0,-0.0506 0.02553,-0.12803 0.147527,-0.12803 l 0.566469,-0.0526 c 0.763172,-0.0774 0.984463,-0.5935 0.984463,-1.1086 l 0,-8.51545 c 0,-0.59548 -0.296001,-0.69771 -0.984463,-0.74832 l -0.566469,-0.0536 c -0.147527,-0.0238 -0.147527,-0.0764 -0.147527,-0.10322 l 0,-0.59449 0.02553,-0.0516 c 0,0 1.916914,0.0516 2.654553,0.0516 l 3.614426,0 c 0.737637,0 2.484327,-0.0516 2.484327,-0.0516 l 0.05013,0.0516 c 0.02364,1.10959 0.195758,2.11795 0.368819,3.09752 l -0.613752,0.10322 c -0.269522,-0.95576 -0.736693,-2.3224 -2.310321,-2.3224 l -1.967035,0 c -0.46717,0 -0.71305,0.18063 -0.71305,0.61832 l 0,3.74263 1.84315,0 c 0.689408,0 0.860578,-0.30966 0.959875,-0.82575 l 0.146582,-0.54189 c 0,-0.0774 0.05013,-0.13001 0.147527,-0.13001 l 0.417049,0 c 0.05013,0 0.05013,0.0268 0.05013,0.0774 -0.05013,0.5677 -0.147528,1.29121 -0.147528,1.91052 0,0.64412 0.09835,1.187 0.147528,1.7805 l -0.05013,0.0526 -0.417049,0 c -0.121994,0 -0.173061,-0.0526 -0.173061,-0.13001 l -0.122939,-0.5667 c -0.09835,-0.51709 -0.319643,-0.80093 -0.960821,-0.80093 l -1.842204,0 0,3.94906 c 0,0.48929 0.268576,0.97958 0.71305,0.97958 l 2.335854,0 c 1.253985,0 1.943393,-0.82574 2.237502,-2.16857 l 0.613753,0.0774 -0.492704,2.96651 -0.04917,0.0516 c 0,0 -1.450689,-0.0516 -2.188327,-0.0516 l -4.302889,0.003 0,0 z" id="path3912"></path><path d="m 82.936952,131.75167 0.565523,-0.0526 c 0.738583,-0.0774 0.984462,-0.30965 0.984462,-1.1086 l 0,-8.51545 c 0,-0.6729 -0.174006,-0.6729 -0.984462,-0.74832 l -0.539043,-0.0536 c -0.09835,0 -0.174008,-0.0516 -0.174008,-0.12902 l 0,-0.5677 0.02364,-0.0516 c 0,0 2.164684,0.0516 2.608214,0.0516 0.465279,0 2.606321,-0.0516 3.245607,-0.0516 4.106185,0 6.123342,2.68366 6.123342,6.11565 0,4.51676 -3.049851,5.8566 -5.778166,5.8566 -1.967035,0 -2.826666,-0.0516 -3.588892,-0.0516 -0.738585,0 -2.607267,0.0516 -2.607267,0.0516 l -0.02459,-0.0516 0,-0.54189 c -0.0019,-0.0744 0.04823,-0.15185 0.145636,-0.15185 z m 5.484056,0 c 2.703727,0 4.23007,-1.05699 4.23007,-4.67159 0,-2.68266 -0.566469,-5.80698 -4.697241,-5.80698 -0.95893,0 -1.573628,0.15483 -1.573628,0.80192 l 0,8.51545 c 0,0.72054 0.17117,1.1612 2.040799,1.1612 z" id="path3914"></path><path d="m 100.59487,130.7185 c 0,0.5677 0.24588,0.90316 1.03269,0.98057 l 0.51635,0.0526 c 0.0738,0 0.14753,0.0506 0.14753,0.15384 l 0,0.54189 -0.0246,0.0526 c 0,0 -1.86868,-0.0526 -2.629958,-0.0526 -0.689412,0 -2.606324,0.0526 -2.606324,0.0526 l -0.05013,-0.0526 0,-0.54189 c 0,-0.10322 0.07377,-0.15384 0.172116,-0.15384 l 0.492704,-0.0526 c 0.810456,-0.0774 1.057282,-0.49028 1.057282,-0.98057 l 0,-8.59286 c 0,-0.56671 -0.296002,-0.72352 -1.057282,-0.79894 l -0.492704,-0.0536 c -0.09835,0 -0.172116,-0.0238 -0.172116,-0.10322 l 0,-0.59449 0.02459,-0.0516 c 0,0 1.942442,0.0516 2.70278,0.0516 0.663872,0 2.558092,-0.0516 2.558092,-0.0516 l 0.0236,0.0516 0,0.5677 c 0,0.0774 -0.0502,0.12902 -0.14753,0.12902 l -0.51634,0.0526 c -0.76223,0.0764 -1.0327,0.28385 -1.0327,0.80093 l 0.002,8.59286 0,0 z" id="path3916"></path><g transform="matrix(0.96802924,0,0,1.0159215,0.1326157,0)" id="text3978" style="font-size:25.61952972px;font-style:normal;font-variant:normal;font-weight:800;font-stretch:normal;text-align:start;line-height:125%;writing-mode:lr-tb;text-anchor:start;fill:#000000;fill-opacity:1;stroke:none;font-family:Arial Black;-inkscape-font-specification:Arial Black"><path d="m 123.5296,109.41394 c -0.40992,-0.17934 -0.64049,-0.20496 -0.99917,0 -0.7942,0.87106 -1.63965,1.76775 -2.58757,2.48509 0.0512,0.23058 0.1281,0.38429 0.35867,0.53801 0.97355,-0.43553 1.79337,-0.87106 2.74129,-1.56279 0.84545,0.64049 1.71651,1.10164 2.71567,1.56279 0.23058,-0.0769 0.33306,-0.28181 0.40992,-0.53801 -0.92231,-0.69173 -1.87023,-1.56279 -2.63881,-2.48509 m -0.89669,4.71399 c 3.48425,0 6.12307,2.71568 6.12307,8.04453 0,4.58589 -2.20328,7.32719 -5.12391,7.32719 -3.07434,0 -6.07183,-2.84377 -6.07183,-7.76272 0,-5.38009 2.7413,-7.609 5.07267,-7.609 m 8.58254,7.55776 c 0,-5.07266 -3.76607,-8.42882 -8.24948,-8.42882 -4.5859,0 -7.8652,3.89417 -7.8652,8.91559 0,5.04705 3.61236,8.19825 8.01891,8.19825 4.89333,0 8.09577,-3.56112 8.09577,-8.68502" id="path4903" style="font-family:Linux Libertine O;-inkscape-font-specification:Linux Libertine O"></path></g><g transform="matrix(1.0500854,0,0,1,-6.8324557,0)" id="text3993" style="font-size:19.01114655px;font-style:normal;font-variant:normal;font-weight:800;font-stretch:normal;text-align:start;line-height:125%;writing-mode:lr-tb;text-anchor:start;fill:#000000;fill-opacity:1;stroke:none;font-family:Arial Black;-inkscape-font-specification:Arial Black"><path d="m 110.10128,122.82725 c 0,-1.57792 0.32319,-1.67298 1.46386,-1.73001 0.11407,-0.11407 0.11407,-0.5133 0,-0.62737 -0.93154,0.019 -1.38781,0.038 -2.28134,0.038 -1.0266,0 -1.69199,-0.019 -2.64255,-0.038 -0.11406,0.11407 -0.11406,0.5133 0,0.62737 1.52089,0.057 1.84409,0.15209 1.84409,1.73001 l 0,8.40293 c 0,3.422 -0.98858,3.95432 -1.61595,3.95432 -0.26616,0 -0.53231,-0.15209 -0.66539,-0.3422 -0.19011,-0.24715 -0.26616,-0.64638 -0.8555,-0.64638 -0.26616,0 -0.83649,0.39923 -0.83649,0.81748 0,0.6844 1.00759,1.0266 1.42583,1.0266 0.8555,0 1.44485,-0.15209 2.22431,-0.81748 0.81747,-0.70341 1.93913,-1.692 1.93913,-4.41059 l 0,-7.98468" id="path4900" style="fill:#000000;font-family:Linux Libertine O;-inkscape-font-specification:Linux Libertine O"></path></g><g transform="matrix(0.79299685,0,0,0.79299685,-13.713698,27.400658)" id="text4813" style="font-size:16.02971268px;font-style:normal;font-variant:normal;font-weight:800;font-stretch:normal;text-align:start;line-height:125%;writing-mode:lr-tb;text-anchor:start;fill:#000000;fill-opacity:1;stroke:none;font-family:Arial Black;-inkscape-font-specification:Arial Black"><path d="m 45.914172,141.52875 -2.548724,7.30955 -0.03206,0 -2.308279,-7.13322 c -0.288535,-0.84957 0.288535,-0.91369 0.833545,-0.96178 0.09618,-0.0962 0.09618,-0.43281 0,-0.52898 -0.753396,0.016 -1.314437,0.0321 -1.955625,0.0321 -0.625158,0 -0.961783,-0.016 -1.602971,-0.0321 -0.09618,0.0962 -0.09618,0.4328 0,0.52898 0.849574,0.0481 1.250318,0.56104 1.394585,0.96178 l 0.240446,0.73737 c 0.04809,0.19235 0.08015,0.30456 0.08015,0.44883 0,0.20838 -0.04809,0.41677 -0.112208,0.60913 l -2.019744,5.30583 -0.03206,0 -2.404457,-7.38969 c -0.192356,-0.56104 0.240446,-0.64119 0.801486,-0.67325 0.09618,-0.0962 0.09618,-0.43281 0,-0.52898 -0.52898,0.016 -1.1862,0.0321 -1.811358,0.0321 -0.641188,0 -0.849575,-0.016 -1.490763,-0.0321 -0.09618,0.0962 -0.09618,0.4328 0,0.52898 0.721336,0.0481 0.897664,0.0802 1.186199,0.92972 l 2.917407,8.72016 c 0.08015,0.25648 0.256476,0.38472 0.496921,0.38472 0.224416,0 0.368684,-0.1603 0.448832,-0.38472 l 2.22813,-5.73863 c 0.06412,-0.19236 0.144268,-0.40075 0.224416,-0.40075 0.06412,0 0.144268,0.24045 0.224416,0.44884 l 1.875477,5.69054 c 0.09618,0.27251 0.288535,0.38472 0.496921,0.38472 0.224416,0 0.352654,-0.12824 0.432802,-0.36869 l 3.157853,-8.6881 c 0.192357,-0.56104 0.496922,-0.92972 1.378556,-0.97781 0.09618,-0.0962 0.09618,-0.43281 0,-0.52898 -0.593099,0.016 -0.977813,0.0321 -1.394585,0.0321 -0.416772,0 -1.122081,-0.016 -1.763269,-0.0321 -0.09618,0.0962 -0.09618,0.4328 0,0.52898 0.657218,0.0481 1.282377,0.11221 1.057961,0.78545" id="path4819" style="fill:#000000;font-family:Linux Libertine O;-inkscape-font-specification:Linux Libertine O"></path><path d="m 51.718932,139.8296 c -0.06412,-0.016 -0.160297,-0.0321 -0.240445,-0.0321 -0.54501,0 -0.913694,0.27251 -1.041932,0.36869 l -0.03206,0.17632 1.827387,1.74724 c 0.256475,0.24045 0.368684,0.3206 0.464862,0.3206 0.128238,0 0.240446,-0.0962 0.240446,-0.17633 0,-0.11221 -0.01603,-0.22442 -0.09618,-0.38471 l -1.12208,-2.01975 m -2.933437,7.46985 c 0,1.63503 1.106052,3.44639 3.36624,3.44639 2.388425,0 3.398299,-1.98769 3.398299,-3.59066 0,-1.66709 -0.881637,-3.60668 -3.36624,-3.60668 -2.164009,0 -3.398299,1.71518 -3.398299,3.75095 m 3.221972,-3.22197 c 1.378554,0 2.164012,1.23429 2.164012,3.59065 0,2.11592 -0.977814,2.54873 -1.731209,2.54873 -1.667089,0 -2.27622,-2.05181 -2.27622,-3.28609 0,-1.39459 0.496923,-2.85329 1.843417,-2.85329" id="path4821" style="fill:#000000;font-family:Linux Libertine O;-inkscape-font-specification:Linux Libertine O"></path><path d="m 57.728572,148.62992 c 0,1.33046 -0.176328,1.41061 -1.154139,1.4587 -0.09618,0.0962 -0.09618,0.4328 0,0.52898 0.673247,-0.016 1.090021,-0.0321 1.795328,-0.0321 0.689277,0 1.090021,0.016 1.779298,0.0321 0.09618,-0.0962 0.09618,-0.4328 0,-0.52898 -0.977812,-0.0481 -1.154139,-0.12824 -1.154139,-1.4587 l 0,-7.3897 c 0,-1.04193 0.06412,-1.68312 0.06412,-1.68312 0,-0.11221 -0.06412,-0.1603 -0.208386,-0.1603 -0.400742,0.1603 -1.602972,0.38471 -2.24416,0.4328 -0.03206,0.12824 0,0.38472 0.09618,0.48089 0.833544,0.0481 1.025901,-0.032 1.025901,1.31444 l 0,7.00499" id="path4823" style="fill:#000000;font-family:Linux Libertine O;-inkscape-font-specification:Linux Libertine O"></path><path d="m 63.381802,144.8469 c -0.04809,0.0641 -0.160297,0.22442 -0.160297,0 0,-0.48089 0.08015,-1.21825 0.08015,-1.21825 0,-0.0802 -0.06412,-0.12824 -0.192356,-0.12824 -0.448832,0.17632 -1.106051,0.32059 -2.2121,0.46486 -0.03206,0.0962 0,0.35265 0.03206,0.44883 0.865604,0.0802 1.041931,0.1603 1.041931,1.09002 l 0,3.1258 c 0,1.31443 -0.160298,1.37855 -1.12208,1.4587 -0.09618,0.0962 -0.09618,0.4328 0,0.52898 0.657218,-0.016 1.073992,-0.0321 1.763269,-0.0321 0.625158,0 0.913694,0.016 1.586941,0.0321 0.09618,-0.0962 0.09618,-0.4328 0,-0.52898 -0.817514,-0.0802 -0.961782,-0.14427 -0.961782,-1.4587 l 0,-2.62888 c 0,-0.33662 0.144267,-0.52898 0.272505,-0.67324 0.609128,-0.5931 1.234288,-0.94576 1.859446,-0.94576 0.320594,0 0.657219,0.20839 0.849575,0.57707 0.160297,0.3206 0.192357,0.7534 0.192357,1.23429 l 0,2.43652 c 0,1.31443 -0.160298,1.37855 -0.993842,1.4587 -0.08015,0.0962 -0.08015,0.4328 0,0.52898 0.673247,-0.016 0.993842,-0.0321 1.63503,-0.0321 0.657218,0 1.009873,0.016 1.69915,0.0321 0.08015,-0.0962 0.08015,-0.4328 0,-0.52898 -0.897663,-0.0802 -1.073991,-0.14427 -1.073991,-1.4587 l 0,-2.38843 c 0,-0.88163 -0.06412,-1.65106 -0.432802,-2.14798 -0.272505,-0.35266 -0.769427,-0.54501 -1.330466,-0.54501 -0.785456,0 -1.554883,0.20838 -2.532695,1.2984" id="path4825" style="fill:#000000;font-family:Linux Libertine O;-inkscape-font-specification:Linux Libertine O"></path><path d="m 73.306698,140.00593 c -0.176327,-0.0481 -0.352654,-0.0321 -0.512951,0 -0.464861,0.73737 -1.202229,1.60297 -1.779298,2.24416 0.09618,0.14427 0.208386,0.24045 0.352653,0.27251 0.625158,-0.35266 1.15414,-0.81752 1.66709,-1.33047 0.480891,0.49692 1.041932,0.94575 1.651061,1.33047 0.144267,-0.016 0.288535,-0.1603 0.368683,-0.27251 -0.577069,-0.64119 -1.282377,-1.49076 -1.747238,-2.24416 m -3.638745,7.29352 c 0,1.63503 1.106052,3.44639 3.366239,3.44639 2.388425,0 3.3983,-1.98769 3.3983,-3.59066 0,-1.66709 -0.881637,-3.60668 -3.36624,-3.60668 -2.164009,0 -3.398299,1.71518 -3.398299,3.75095 m 3.221972,-3.22197 c 1.378554,0 2.164011,1.23429 2.164011,3.59065 0,2.11592 -0.977813,2.54873 -1.731209,2.54873 -1.667088,0 -2.276219,-2.05181 -2.276219,-3.28609 0,-1.39459 0.496923,-2.85329 1.843417,-2.85329" id="path4827" style="fill:#000000;font-family:Linux Libertine O;-inkscape-font-specification:Linux Libertine O"></path><path d="m 83.083319,146.06516 c 0.304564,-1.81135 1.426645,-1.95562 1.811357,-1.95562 0.609129,0 1.330467,0.33662 1.330467,1.68312 0,0.14426 -0.06412,0.22441 -0.240446,0.22441 l -2.901378,0.0481 m 4.199785,3.02962 c -0.593099,0.60913 -1.057962,0.8656 -1.987685,0.8656 -0.577069,0 -1.250318,-0.33662 -1.747238,-1.15414 -0.320594,-0.52898 -0.512951,-1.26635 -0.512951,-2.19607 l 4.263903,0.0321 c 0.192357,0 0.304565,-0.0962 0.304565,-0.2725 0,-1.3465 -0.480894,-2.78917 -2.709022,-2.78917 -1.394583,0 -3.205942,1.33046 -3.205942,3.76698 0,0.89766 0.224416,1.76327 0.753396,2.3724 0.54501,0.64118 1.298408,1.0259 2.452546,1.0259 1.218257,0 2.083864,-0.56104 2.725052,-1.39459 -0.04809,-0.16029 -0.144268,-0.24044 -0.336624,-0.25647" id="path4829" style="fill:#000000;font-family:Linux Libertine O;-inkscape-font-specification:Linux Libertine O"></path><path d="m 91.214642,144.8469 c -0.04809,0.0641 -0.160297,0.22442 -0.160297,0 0,-0.48089 0.08015,-1.21825 0.08015,-1.21825 0,-0.0802 -0.06412,-0.12824 -0.192356,-0.12824 -0.448832,0.17632 -1.106051,0.32059 -2.2121,0.46486 -0.03206,0.0962 0,0.35265 0.03206,0.44883 0.865604,0.0802 1.041931,0.1603 1.041931,1.09002 l 0,3.1258 c 0,1.31443 -0.160298,1.37855 -1.12208,1.4587 -0.09618,0.0962 -0.09618,0.4328 0,0.52898 0.657218,-0.016 1.073992,-0.0321 1.763269,-0.0321 0.625158,0 0.913694,0.016 1.586941,0.0321 0.09618,-0.0962 0.09618,-0.4328 0,-0.52898 -0.817514,-0.0802 -0.961782,-0.14427 -0.961782,-1.4587 l 0,-2.62888 c 0,-0.33662 0.144267,-0.52898 0.272505,-0.67324 0.609128,-0.5931 1.234288,-0.94576 1.859446,-0.94576 0.320594,0 0.657219,0.20839 0.849575,0.57707 0.160297,0.3206 0.192357,0.7534 0.192357,1.23429 l 0,2.43652 c 0,1.31443 -0.160298,1.37855 -0.993842,1.4587 -0.08015,0.0962 -0.08015,0.4328 0,0.52898 0.673247,-0.016 0.993842,-0.0321 1.63503,-0.0321 0.657218,0 1.009873,0.016 1.69915,0.0321 0.08015,-0.0962 0.08015,-0.4328 0,-0.52898 -0.897663,-0.0802 -1.073991,-0.14427 -1.073991,-1.4587 l 0,-2.38843 c 0,-0.88163 -0.06412,-1.65106 -0.432802,-2.14798 -0.272505,-0.35266 -0.769427,-0.54501 -1.330466,-0.54501 -0.785456,0 -1.554884,0.20838 -2.532695,1.2984" id="path4832" style="fill:#000000;font-family:Linux Libertine O;-inkscape-font-specification:Linux Libertine O"></path><path d="m 103.2234,149.12684 c -0.0641,-0.14427 -0.19236,-0.20839 -0.33662,-0.22442 -0.54501,0.70531 -1.23429,1.05796 -1.92357,1.05796 -1.170167,0 -2.147981,-1.1862 -2.147981,-3.06167 0,-1.76327 0.769427,-2.82123 1.827391,-2.82123 0.94575,0 1.07399,0.56104 1.13811,1.12208 0.0481,0.4328 0.2725,0.57707 0.60913,0.57707 0.33662,0 0.78545,-0.20839 0.78545,-0.70531 0,-0.88163 -0.91369,-1.52282 -2.45255,-1.52282 -1.586935,0 -3.286086,1.42664 -3.286086,3.70286 0,2.06783 1.154141,3.49448 3.173886,3.49448 0.96178,0 1.81136,-0.30457 2.61284,-1.619" id="path4834" style="fill:#000000;font-family:Linux Libertine O;-inkscape-font-specification:Linux Libertine O"></path><path d="m 106.9716,153.15029 c 0.24044,-0.4328 0.44883,-0.89766 0.65722,-1.37855 1.28237,-3.0777 1.98768,-4.7448 2.83725,-6.54012 0.22442,-0.46486 0.70531,-0.97782 1.29841,-1.0259 0.0962,-0.0962 0.0962,-0.43281 0,-0.52899 -0.40074,0.016 -0.68928,0.0321 -1.13811,0.0321 -0.56104,0 -0.8656,-0.016 -1.4587,-0.0321 -0.0962,0.0962 -0.0962,0.43281 0,0.52899 0.49692,0.0481 1.00987,0.14426 0.76942,0.72133 l -1.60297,3.67081 c -0.11221,0.2725 -0.24044,0.30456 -0.38471,-0.016 l -1.41062,-3.33418 c -0.28853,-0.67325 -0.46486,-0.96179 0.51296,-1.04193 0.0962,-0.0962 0.0962,-0.43281 0,-0.52899 -0.5931,0.016 -1.23429,0.0321 -1.81136,0.0321 -0.54501,0 -0.97781,-0.016 -1.29841,-0.0321 -0.0962,0.0962 -0.0962,0.43281 0,0.52899 0.70531,0.0641 0.83355,0.19235 1.26635,1.20222 l 1.81136,4.21582 c 0.14426,0.33662 0.38471,1.05796 0.22441,1.50679 -0.17632,0.54501 -0.38471,0.97781 -0.62516,1.47473 -0.17632,0.3206 -0.40074,0.46487 -0.80148,0.46487 -0.22442,0 -0.28854,-0.0481 -0.46486,-0.0481 -0.46487,0 -0.70531,0.48089 -0.70531,0.68927 0,0.33663 0.32059,0.5931 0.7534,0.5931 0.33662,0 0.97781,-0.12823 1.55488,-1.15414 l 0.016,0" id="path4836" style="fill:#000000;font-family:Linux Libertine O;-inkscape-font-specification:Linux Libertine O"></path><path d="m 113.34391,148.62992 c 0,1.33046 -0.17632,1.39458 -1.07399,1.4587 -0.0962,0.0962 -0.0962,0.4328 0,0.52898 0.67325,-0.016 1.04194,-0.0321 1.71518,-0.0321 0.56104,0 0.76943,0.016 1.45871,0.0321 0.0962,-0.0962 0.0962,-0.4328 0,-0.52898 -0.65722,-0.0641 -0.83355,-0.12824 -0.83355,-1.4587 l 0,-1.44268 c 0.36868,0.016 0.5931,0.12824 0.91369,0.57707 l 1.17017,1.65106 c 0.3206,0.46486 0.36869,0.65722 0.36869,0.86561 l 0,0.25647 c 0,0.0481 0.016,0.0802 0.0641,0.0802 0.32059,-0.016 0.62516,-0.0321 1.10605,-0.0321 0.49692,0 0.83354,0.016 1.31443,0.0321 0.0962,-0.0962 0.0962,-0.4328 0,-0.52898 -0.54501,-0.0641 -1.0259,-0.12824 -1.37855,-0.67325 l -1.87548,-2.77314 c -0.0481,-0.0641 -0.0802,-0.14427 -0.0802,-0.22441 0,-0.0641 0.016,-0.11221 0.0641,-0.1603 l 1.21826,-1.3465 c 0.46486,-0.48089 0.96178,-0.67325 1.76327,-0.7053 0.0962,-0.0962 0.0962,-0.43281 0,-0.52899 -0.5931,0.016 -0.81752,0.0321 -1.39459,0.0321 -0.60913,0 -0.88163,-0.016 -1.47473,-0.0321 -0.0962,0.0962 -0.0962,0.43281 0,0.52899 0.96178,0.0481 0.44883,0.65721 0.28853,0.81751 -0.84957,0.92972 -1.65106,1.63503 -2.06783,1.76327 l 0,-5.54628 c 0,-1.04193 0.0641,-1.68312 0.0641,-1.68312 0,-0.11221 -0.0641,-0.1603 -0.20839,-0.1603 -0.40074,0.1603 -1.60297,0.38471 -2.24416,0.4328 -0.0321,0.12824 0,0.38472 0.0962,0.48089 0.83355,0.0481 1.0259,-0.032 1.0259,1.31444 l 0,7.00499" id="path4838" style="fill:#000000;font-family:Linux Libertine O;-inkscape-font-specification:Linux Libertine O"></path><path d="m 121.22126,148.62992 c 0,1.33046 -0.17633,1.41061 -1.15414,1.4587 -0.0962,0.0962 -0.0962,0.4328 0,0.52898 0.67325,-0.016 1.09002,-0.0321 1.79533,-0.0321 0.68927,0 1.09002,0.016 1.7793,0.0321 0.0962,-0.0962 0.0962,-0.4328 0,-0.52898 -0.97782,-0.0481 -1.15414,-0.12824 -1.15414,-1.4587 l 0,-7.3897 c 0,-1.04193 0.0641,-1.68312 0.0641,-1.68312 0,-0.11221 -0.0641,-0.1603 -0.20839,-0.1603 -0.40074,0.1603 -1.60297,0.38471 -2.24416,0.4328 -0.0321,0.12824 0,0.38472 0.0962,0.48089 0.83354,0.0481 1.0259,-0.032 1.0259,1.31444 l 0,7.00499" id="path4840" style="fill:#000000;font-family:Linux Libertine O;-inkscape-font-specification:Linux Libertine O"></path><path d="m 124.58224,147.29945 c 0,1.63503 1.10605,3.44639 3.36624,3.44639 2.38842,0 3.3983,-1.98769 3.3983,-3.59066 0,-1.66709 -0.88164,-3.60668 -3.36624,-3.60668 -2.16401,0 -3.3983,1.71518 -3.3983,3.75095 m 3.22197,-3.22197 c 1.37856,0 2.16401,1.23429 2.16401,3.59065 0,2.11592 -0.97781,2.54873 -1.73121,2.54873 -1.66708,0 -2.27621,-2.05181 -2.27621,-3.28609 0,-1.39459 0.49692,-2.85329 1.84341,-2.85329" id="path4842" style="fill:#000000;font-family:Linux Libertine O;-inkscape-font-specification:Linux Libertine O"></path><path d="m 134.8077,145.21559 c 0.49692,-0.51295 1.13811,-0.92973 1.619,-0.92973 1.0259,0 1.90754,1.15414 1.90754,2.9655 0,1.31444 -0.46487,2.94947 -2.26019,2.94947 -0.28854,0 -0.84958,-0.0802 -1.13811,-0.33663 -0.33663,-0.28853 -0.38472,-0.36868 -0.38472,-0.96178 l 0,-2.98153 c 0,-0.33662 0.0481,-0.48089 0.25648,-0.7053 m -0.12824,-0.52898 c -0.0641,0.0641 -0.1603,0.0801 -0.1603,-0.0481 0,-0.57707 0.0641,-1.0259 0.0641,-1.0259 0,-0.0641 -0.0802,-0.11221 -0.20838,-0.11221 -0.44884,0.17632 -1.05797,0.32059 -2.16402,0.46486 -0.032,0.0962 0,0.35265 0.0321,0.44883 0.86561,0.0802 1.04194,0.17633 1.04194,1.09002 l 0,6.84469 c 0,1.33046 -0.17633,1.41061 -1.15414,1.4587 -0.0962,0.0962 -0.0962,0.43281 0,0.52898 0.67324,-0.016 1.09002,-0.0321 1.79532,-0.0321 0.7534,0 1.25032,0.016 1.9396,0.0321 0.0962,-0.0962 0.0962,-0.4328 0,-0.52898 -1.13811,-0.0641 -1.31444,-0.12824 -1.31444,-1.4587 l 0,-1.73121 c 0,-0.20839 0.0481,-0.17633 0.22442,-0.11221 0.38471,0.1603 0.88163,0.24045 1.39458,0.24045 0.89767,0 1.69915,-0.27251 2.35637,-0.89767 0.7534,-0.73736 1.1862,-1.73121 1.1862,-3.02961 0,-1.69915 -1.20223,-3.27006 -2.83726,-3.27006 -0.5931,0 -1.47473,0.40074 -2.19607,1.13811" id="path4844" style="fill:#000000;font-family:Linux Libertine O;-inkscape-font-specification:Linux Libertine O"></path><path d="m 142.44335,146.06516 c 0.30457,-1.81135 1.42665,-1.95562 1.81136,-1.95562 0.60913,0 1.33047,0.33662 1.33047,1.68312 0,0.14426 -0.0641,0.22441 -0.24045,0.22441 l -2.90138,0.0481 m 4.19979,3.02962 c -0.5931,0.60913 -1.05796,0.8656 -1.98769,0.8656 -0.57706,0 -1.25031,-0.33662 -1.74723,-1.15414 -0.3206,-0.52898 -0.51296,-1.26635 -0.51296,-2.19607 l 4.26391,0.0321 c 0.19235,0 0.30456,-0.0962 0.30456,-0.2725 0,-1.3465 -0.48089,-2.78917 -2.70902,-2.78917 -1.39458,0 -3.20594,1.33046 -3.20594,3.76698 0,0.89766 0.22442,1.76327 0.7534,2.3724 0.545,0.64118 1.2984,1.0259 2.45254,1.0259 1.21826,0 2.08386,-0.56104 2.72505,-1.39459 -0.0481,-0.16029 -0.14427,-0.24044 -0.33662,-0.25647" id="path4847" style="fill:#000000;font-family:Linux Libertine O;-inkscape-font-specification:Linux Libertine O"></path><path d="m 153.24938,148.59786 c 0,0.30456 -0.0321,0.4328 -0.25648,0.62516 -0.5931,0.51295 -1.10605,0.76942 -1.50679,0.76942 -0.8656,0 -1.76327,-0.94575 -1.76327,-2.94947 0,-1.15413 0.22442,-1.79532 0.46486,-2.13195 0.49692,-0.75339 1.17017,-0.80148 1.49077,-0.80148 0.57707,0 0.97781,0.20838 1.2984,0.57707 0.22442,0.25647 0.27251,0.36868 0.27251,0.8656 l 0,3.04565 m -0.17633,1.1862 c 0.0641,-0.0641 0.19236,-0.0962 0.19236,0.016 0,0.38472 0.17633,0.94576 0.17633,0.94576 0.12823,0.0481 0.17632,0.0321 0.30456,0 0.35265,-0.28854 0.96178,-0.52898 1.93959,-0.64119 0.0962,-0.0962 0.0962,-0.33662 0,-0.4328 -1.0259,-0.0802 -1.17016,-0.38472 -1.17016,-1.17017 l 0,-7.26146 c 0,-1.04193 0.0641,-1.68312 0.0641,-1.68312 0,-0.11221 -0.0641,-0.1603 -0.20838,-0.1603 -0.40074,0.1603 -1.60297,0.38471 -2.24416,0.4328 -0.0321,0.12824 0,0.38472 0.0962,0.48089 0.83354,0.0481 1.0259,-0.032 1.0259,1.31444 l 0,2.0518 c 0,0.11221 -0.0321,0.14427 -0.14427,0.14427 -0.0641,0 -0.72134,-0.2725 -1.25032,-0.2725 -1.05796,0 -1.76327,0.35265 -2.40445,0.96178 -0.68928,0.68928 -1.10605,1.63503 -1.10605,2.82123 0,1.97165 0.99384,3.41433 2.72505,3.41433 0.62516,0 1.21826,-0.3206 2.00371,-0.96178" id="path4849" style="fill:#000000;font-family:Linux Libertine O;-inkscape-font-specification:Linux Libertine O"></path><path d="m 157.27058,140.98374 c 0,0.41677 0.38472,0.83355 0.76943,0.83355 0.44883,0 0.83354,-0.41677 0.83354,-0.76943 0,-0.38471 -0.33662,-0.83354 -0.76942,-0.83354 -0.38472,0 -0.83355,0.38471 -0.83355,0.76942 m 1.45871,7.64618 0,-3.18992 c 0,-0.80148 0.0641,-1.82738 0.0641,-1.82738 0,-0.0641 -0.0801,-0.11221 -0.20838,-0.11221 -0.46486,0.17632 -1.09002,0.32059 -2.19607,0.46486 -0.0321,0.0962 0,0.35265 0.0321,0.44883 0.8656,0.0962 1.04193,0.17633 1.04193,1.09002 l 0,3.1258 c 0,1.33046 -0.17633,1.37855 -1.15414,1.4587 -0.0962,0.0962 -0.0962,0.4328 0,0.52898 0.67325,-0.016 1.09002,-0.0321 1.79533,-0.0321 0.68927,0 1.09002,0.016 1.77929,0.0321 0.0962,-0.0962 0.0962,-0.4328 0,-0.52898 -0.97781,-0.0641 -1.15413,-0.12824 -1.15413,-1.4587" id="path4851" style="fill:#000000;font-family:Linux Libertine O;-inkscape-font-specification:Linux Libertine O"></path><path d="m 161.76667,140.98374 c 0,0.41677 0.38471,0.83355 0.76943,0.83355 0.44883,0 0.83354,-0.41677 0.83354,-0.76943 0,-0.38471 -0.33662,-0.83354 -0.76942,-0.83354 -0.38472,0 -0.83355,0.38471 -0.83355,0.76942 m 0.22442,4.52038 0,3.86316 c 0,2.11592 -0.0641,4.08758 -0.86561,4.08758 -0.17632,0 -0.38471,-0.0641 -0.49692,-0.17633 -0.1603,-0.16029 -0.35265,-0.41677 -0.70531,-0.41677 -0.17632,0 -0.51295,0.32059 -0.51295,0.60913 0,0.46486 0.57707,0.68928 0.88164,0.68928 0.33662,0 1.17017,-0.0481 1.76327,-0.54501 0.75339,-0.60913 1.20222,-1.76327 1.20222,-4.79289 l 0,-3.38227 c 0,-0.80148 0.0641,-1.82738 0.0641,-1.82738 0,-0.0641 -0.0802,-0.11221 -0.20838,-0.11221 -0.44883,0.17632 -1.09002,0.32059 -2.19607,0.46486 -0.0321,0.0962 0,0.35265 0.0321,0.44883 0.8656,0.0802 1.04193,0.17633 1.04193,1.09002" id="path4853" style="fill:#000000;font-family:Linux Libertine O;-inkscape-font-specification:Linux Libertine O"></path><path d="m 168.8275,140.00593 c -0.17633,-0.0481 -0.35265,-0.0321 -0.51295,0 -0.46486,0.73737 -1.20223,1.60297 -1.7793,2.24416 0.0962,0.14427 0.20839,0.24045 0.35265,0.27251 0.62516,-0.35266 1.15414,-0.81752 1.66709,-1.33047 0.48089,0.49692 1.04194,0.94575 1.65106,1.33047 0.14427,-0.016 0.28854,-0.1603 0.36869,-0.27251 -0.57707,-0.64119 -1.28238,-1.49076 -1.74724,-2.24416 m -3.63875,7.29352 c 0,1.63503 1.10606,3.44639 3.36624,3.44639 2.38843,0 3.3983,-1.98769 3.3983,-3.59066 0,-1.66709 -0.88163,-3.60668 -3.36624,-3.60668 -2.16401,0 -3.3983,1.71518 -3.3983,3.75095 m 3.22198,-3.22197 c 1.37855,0 2.16401,1.23429 2.16401,3.59065 0,2.11592 -0.97782,2.54873 -1.73121,2.54873 -1.66709,0 -2.27622,-2.05181 -2.27622,-3.28609 0,-1.39459 0.49692,-2.85329 1.84342,-2.85329" id="path4855" style="fill:#000000;font-family:Linux Libertine O;-inkscape-font-specification:Linux Libertine O"></path></g></svg>
</svg>