<?xml version="1.0" encoding="UTF-8" standalone="no"?>
<svg
	xmlns="http://www.w3.org/2000/svg"
	xmlns:dc="http://purl.org/dc/elements/1.1/"
	xmlns:cc="http://creativecommons.org/ns#"
	xmlns:rdf="http://www.w3.org/1999/02/22-rdf-syntax-ns#"
	xmlns:svg="http://www.w3.org/2000/svg"
	xmlns:xlink="http://www.w3.org/1999/xlink"
	xmlns:sodipodi="http://sodipodi.sourceforge.net/DTD/sodipodi-0.dtd"
	xmlns:inkscape="http://www.inkscape.org/namespaces/inkscape"
	version="1.1"
	viewBox="0 0 0 0">
	<svg version="1.1" id="svg3857" xmlns:inkscape="http://www.inkscape.org/namespaces/inkscape" xmlns:sodipodi="http://sodipodi.sourceforge.net/DTD/sodipodi-0.dtd" xmlns:svg="http://www.w3.org/2000/svg" xmlns:rdf="http://www.w3.org/1999/02/22-rdf-syntax-ns#" xmlns:cc="http://creativecommons.org/ns#" xmlns:dc="http://purl.org/dc/elements/1.1/" inkscape:version="0.47 r22583" sodipodi:docname="Wikipedia-logo.svg" xmlns:xlink="http://www.w3.org/1999/xlink" x="0px" y="0px" viewBox="0 0 612 792" enable-background="new 0 0 612 792" xml:space="preserve" xmlns:svgjs="http://svgjs.com/svgjs">
<defs>
	
	
		<inkscape:perspective inkscape:vp_y="0 : 1000 : 0" id="perspective4854" inkscape:vp_x="0 : 77.5 : 1" inkscape:vp_z="135 : 77.5 : 1" sodipodi:type="inkscape:persp3d" inkscape:persp3d-origin="67.5 : 51.666667 : 1">
		</inkscape:perspective>
	
		<inkscape:perspective inkscape:vp_y="0 : 1000 : 0" id="perspective10537" inkscape:vp_x="0 : 0.5 : 1" inkscape:vp_z="1 : 0.5 : 1" sodipodi:type="inkscape:persp3d" inkscape:persp3d-origin="0.5 : 0.33333333 : 1">
		</inkscape:perspective>
</defs>
<sodipodi:namedview objecttolerance="10" pagecolor="#ffffff" inkscape:zoom="5.6568543" inkscape:cy="145.31128" id="namedview4848" showgrid="false" showguides="true" guidetolerance="10" gridtolerance="10" bordercolor="#666666" borderopacity="1" inkscape:cx="92.577797" inkscape:guide-bbox="true" inkscape:pageopacity="0" inkscape:window-height="730" inkscape:window-y="24" inkscape:pageshadow="2" inkscape:window-x="32" inkscape:window-width="1198" inkscape:current-layer="svg3857" inkscape:window-maximized="0">
	<sodipodi:guide id="globe_top" orientation="0,1" position="0,140"></sodipodi:guide>
	<sodipodi:guide id="globe_left" orientation="1,0" position="16,0"></sodipodi:guide>
	<sodipodi:guide id="globe_right" orientation="1,0" position="119,0"></sodipodi:guide>
	<sodipodi:guide id="globe_bottom" orientation="0,1" position="0,47"></sodipodi:guide>
	<sodipodi:guide id="wordmark_top" orientation="0,1" position="8,40"></sodipodi:guide>
	<sodipodi:guide id="wordmark_bottom" orientation="0,1" position="8,22.5"></sodipodi:guide>
	<sodipodi:guide id="subtitle_top" orientation="0,1" position="0,17"></sodipodi:guide>
	<sodipodi:guide id="subtitle_bottom" orientation="0,1" position="0,8"></sodipodi:guide>
	<sodipodi:guide id="wordmark_left" orientation="1,0" position="8,40"></sodipodi:guide>
	<sodipodi:guide id="wordmark_right" orientation="1,0" position="127,40"></sodipodi:guide>
</sodipodi:namedview>

<g>
	<path d="M126.4,554.9c-8.4,0.6-19,1-28.8,1l-0.2-0.2l2.1-4.9c11.2,0,22.8-0.4,30.9-1l0.1,0.4L126.4,554.9z"></path>
	<path d="M142,612.5v10.2h-6.6c-0.4,5-2.7,11.3-6,16.3c-6.1,9.3-15,13.6-19.2,13.6c-7.2,0-15.3-3.3-22.9-8l1.4-2.6
		c3.1,1.7,6.9,2.9,11.7,2.9c8,0,15.3-4,22.1-11c3.8-3.9,6.4-7.1,7.5-11.1H126c-16.2,0-24.5-5.2-24.5-16.3c0-5.4,1.8-9.6,4.1-12.8
		c3-4.4,7.2-7.6,12.3-7.6c7.3,0,14.9,10.3,17.1,26.6H142z M124,600.9c-2.5-2.9-5.5-4.5-8.4-4.5c-4.5,0-9,3.8-9,7
		c0,4.1,3.7,6.4,8.7,7.9c4.4,1.2,9.2,1.2,14.3,1.2C128.7,608.1,126.7,603.9,124,600.9z"></path>
	<path d="M143.4,612.5c6.8,0,12.2-0.2,15.7-1.5c2.8-1,4.5-2.1,4.5-3.5c0-3.7-3.8-11.5-8-19.7c1.9-3.4,3.9-6.4,6-9h0.4
		c3.7,6.4,8,16.4,8,24.3c0,6-2.4,10.6-5.6,14.8c-3.6,3.6-9.2,4.8-21.4,4.8h-1c-4.4,0-5.6-3.2-5.6-5.3c0-1.9,1.3-4.9,5.6-4.9H143.4z
		 M151.2,654.5c-3.3-3.1-6.1-5.7-9.3-8.3c2.1-2.9,4.3-5.5,6.3-7.6c3.3,2.5,6,5.2,9.1,8.5C155,650.4,153.4,652.4,151.2,654.5z
		 M166.6,653.5c-3.3-3.1-6.1-5.7-9.3-8.3c2.1-2.9,4.3-5.5,6.3-7.6c3.3,2.5,6,5.2,9.1,8.5C170.4,649.3,168.8,651.4,166.6,653.5z"></path>
	<path d="M238.4,622.7h-1.5c-7.2,0-13.1-3-16.2-13h-0.4c-0.6,3-2.3,5.6-5.7,7.6c-5.3,3.2-10.7,5.3-16,5.3c-8.9,0-13.8-5.4-13.8-14.7
		c0-2,0.1-3.9,0.2-5.9l3.1-0.2c0.3,6.6,3.6,10.7,11.2,10.7c4.2,0,9.2-1.8,13-4c2.9-1.7,5.2-4.1,5.2-6c0-5.4-2.9-16-6.6-29.6
		c1.8-2.8,3.6-5.7,5.7-8.2l0.5,0.3c2.9,11.5,5.4,23.7,7.6,35.4c1.4,7.9,6.6,12,12.6,12h1.4V622.7z"></path>
	<path d="M240.2,612.5c6.1,0,12.5-2.5,13.7-7l2.3-8.6l5.5-4l0.5,0.6c-1.1,4.1-1.8,7.5-1.8,9.2c0,2.8,0.7,5.1,2.6,6.6
		c2.5,2.1,5.7,3.2,9.9,3.2h1.4v10.2h-1.8c-7.8,0-13.7-2.1-16.4-8.1h-0.3c-2.7,5.3-9,8.1-15.8,8.1h-1.5c-4.4,0-5.6-3.2-5.6-5.3
		c0-1.9,1.3-4.9,5.6-4.9H240.2z M268.8,572.9c-1,2-2,3.8-3.1,5.4c-8,1.3-14.9,3.3-20.7,6l-0.2-0.2l1.9-3.3c0.7-0.9,2.3-2.1,3.7-2.6
		v-0.2c-3.7-1.1-6.2-3.5-6.2-6.9c0-2.1,1.5-4.9,3.7-7c2.6-2.5,6.4-4.5,9.6-4.5c3.2,0,5,1.8,5,3.9c0,2.1-1.3,3.7-2.5,5.2h-0.2
		c-0.9-1.8-1.7-2.9-2.5-3.1c-0.6-0.2-1.5-0.2-2.5-0.2c-2.8,0-5.6,1.6-5.6,2.8c0,3.8,6.7,5.1,11.4,5.1c2.7,0,5.4-0.2,8.1-0.3V572.9z"></path>
	<path d="M276.1,612.5c6.1,0,12.5-2.5,13.7-7l2.3-8.6l5.5-4l0.5,0.6c-1.1,4.1-1.8,7.5-1.8,9.2c0,2.8,0.7,5.1,2.6,6.6
		c2.5,2.1,5.7,3.2,9.9,3.2h1.4v10.2h-1.8c-7.8,0-13.7-2.1-16.4-8.1h-0.3c-2.7,5.3-9,8.1-15.8,8.1h-1.5c-4.4,0-5.6-3.2-5.6-5.3
		c0-1.9,1.3-4.9,5.6-4.9H276.1z M285.1,654.5c-3.3-3.1-6.1-5.7-9.3-8.3c2.1-2.9,4.3-5.5,6.3-7.6c3.3,2.5,6,5.2,9.1,8.5
		C288.9,650.4,287.3,652.4,285.1,654.5z M300.4,653.5c-3.3-3.1-6.1-5.7-9.3-8.3c2.1-2.9,4.3-5.5,6.3-7.6c3.3,2.5,6,5.2,9.1,8.5
		C304.2,649.3,302.7,651.4,300.4,653.5z"></path>
	<path d="M312,612.5c6.1,0,12.5-2.5,13.7-7l2.3-8.6l5.5-4l0.5,0.6c-1.1,4.1-1.8,7.5-1.8,9.2c0,2.8,0.7,5.1,2.6,6.6
		c2.5,2.1,5.7,3.2,9.9,3.2h1.4v10.2h-1.8c-7.8,0-13.7-2.1-16.4-8.1h-0.3c-2.7,5.3-9,8.1-15.8,8.1h-1.5c-4.4,0-5.6-3.2-5.6-5.3
		c0-1.9,1.3-4.9,5.6-4.9H312z M319.7,650.8c-3.3-3.1-6.1-5.7-9.3-8.3c2.1-2.9,4.3-5.5,6.3-7.6c3.3,2.5,6,5.2,9.1,8.5
		C323.5,646.6,321.9,648.7,319.7,650.8z M330.8,666.6c-3.3-3.1-6.1-5.7-9.3-8.3c2.1-2.9,4.3-5.5,6.3-7.6c3.3,2.5,6,5.2,9.1,8.5
		C334.7,662.5,333.1,664.5,330.8,666.6z M335.1,649.7c-3.3-3.1-6.1-5.7-9.3-8.3c2.1-2.9,4.3-5.5,6.3-7.6c3.3,2.5,6,5.2,9.1,8.5
		C338.9,645.6,337.3,647.6,335.1,649.7z"></path>
	<path d="M347.9,612.5c6.1,0,12.5-2.5,13.7-7l2.3-8.6l5.5-4l0.5,0.6c-1.1,4.1-1.8,7.5-1.8,9.2c0,2.8,0.7,5.1,2.6,6.6
		c2.5,2.1,5.7,3.2,9.9,3.2h1.4v10.2h-1.8c-7.8,0-13.7-2.1-16.4-8.1h-0.3c-2.7,5.3-9,8.1-15.8,8.1h-1.5c-4.4,0-5.6-3.2-5.6-5.3
		c0-1.9,1.3-4.9,5.6-4.9H347.9z M356.9,654.5c-3.3-3.1-6.1-5.7-9.3-8.3c2.1-2.9,4.3-5.5,6.3-7.6c3.3,2.5,6,5.2,9.1,8.5
		C360.7,650.4,359.1,652.4,356.9,654.5z M372.2,653.5c-3.3-3.1-6.1-5.7-9.3-8.3c2.1-2.9,4.3-5.5,6.3-7.6c3.3,2.5,6,5.2,9.1,8.5
		C376,649.3,374.4,651.4,372.2,653.5z"></path>
	<path d="M443.3,622.7h-1.6c-9.7,0-15-5.4-20.6-12.9c-2.6-3.4-5.1-6.7-7-8.8h-0.3c-0.1,12.4-7.1,21.7-29.6,21.7H382
		c-4.4,0-5.6-3.2-5.6-5.3c0-1.9,1.3-4.9,5.6-4.9h3.2c6.4,0,14.1-1.1,19.3-4.6c1.6-1,3.9-2.8,3.9-3.9c0-1.7-0.7-3.5-1.6-5.4
		c-3.3-7.2-11.1-15.7-19.7-24.2c-2.1-2.2-3.9-4.1-5-5.4c-0.2-1.4-0.6-2.9-0.6-4.4c0-2.2,0.8-4.5,2.1-6.8c0.6-1.1,1.8-2.2,2.9-2.9
		c8.3-5.3,27.1-11.8,48.9-18.6l0.3,0.5c-1.7,3.3-3.7,6.6-6.1,9.8c-4.8,1.2-11.6,3.5-18.2,5.9c-9.6,3.6-18.5,7.2-24.1,10.1v0.2
		c4.3,2.8,8.9,4.8,12.3,6.2l-2.4,4c8.5,7.7,18.5,18.9,29.4,31.5c4.5,5.3,9,8.1,15.4,8.1h1.4V622.7z"></path>
	<path d="M445,612.5c6.1,0,12.5-2.5,13.7-7l2.3-8.6l5.5-4l0.5,0.6c-1.1,4.1-1.8,7.5-1.8,9.2c0,2.8,0.7,5.1,2.6,6.6
		c2.5,2.1,5.7,3.2,9.9,3.2h1.4v10.2h-1.8c-7.8,0-13.7-2.1-16.4-8.1h-0.3c-2.7,5.3-9,8.1-15.8,8.1h-1.5c-4.4,0-5.6-3.2-5.6-5.3
		c0-1.9,1.3-4.9,5.6-4.9H445z M454,654.5c-3.3-3.1-6.1-5.7-9.3-8.3c2.1-2.9,4.3-5.5,6.3-7.6c3.3,2.5,6,5.2,9.1,8.5
		C457.9,650.4,456.3,652.4,454,654.5z M469.4,653.5c-3.3-3.1-6.1-5.7-9.3-8.3c2.1-2.9,4.3-5.5,6.3-7.6c3.3,2.5,6,5.2,9.1,8.5
		C473.2,649.3,471.6,651.4,469.4,653.5z"></path>
	<path d="M485.9,612.5c6.8,0,12.8-0.2,17.4-1.6c5.1-1.5,9.4-4.5,9.4-6.6c0-0.6,0-1.2-0.2-1.8c-2.9,0.3-6.1,0.3-9,0.3
		c-9.2,0-16.3-2.5-19.1-8.6c-0.7-1.7-1.2-3.6-1.2-5.7c0-5.9,2.1-11.7,6-15.7c3.2-3.3,6.7-5.3,10.3-5.3c6.4,0,11.6,6.1,15.2,15.8
		c2,5.3,3.3,11.3,3.3,18.9c0,5.1-1.2,9.4-3.9,12.6c-5,5.7-14.2,7.9-28.4,7.9h-6.4c-4.4,0-5.6-3.2-5.6-5.3c0-1.9,1.3-4.9,5.6-4.9
		H485.9z M490.1,563.3c-3.3-3.1-6.1-5.7-9.3-8.3c2.1-2.9,4.3-5.5,6.3-7.6c3.3,2.5,6,5.2,9.1,8.5
		C493.9,559.1,492.3,561.2,490.1,563.3z M494.4,546.3c-3.3-3.1-6.1-5.7-9.3-8.3c2.1-2.9,4.3-5.5,6.3-7.6c3.3,2.5,6,5.2,9.1,8.5
		C498.2,542.2,496.6,544.3,494.4,546.3z M497.7,578c-5.3,0-9.6,4.1-9.6,7.1c0,6.4,10.5,8.4,23.1,8.4
		C509.6,585.9,504.1,578,497.7,578z M505.5,562.2c-3.3-3.1-6.1-5.7-9.3-8.3c2.1-2.9,4.3-5.5,6.3-7.6c3.3,2.5,6,5.2,9.1,8.5
		C509.3,558.1,507.7,560.2,505.5,562.2z"></path>
</g>
<g>
	<path d="M148.3,709.5c0.1,2.8,1.3,5,5.4,5c2.6,0,4.7-0.8,7.1-2.1c0.4-0.2,0.7-0.5,0.7-0.8c0-1.8-1.1-4.1-3.1-6.2
		c-1.9-2-4.4-3.8-6.7-4.9c-0.8-0.4-1-0.8-1-1.2c0-0.8,0.9-2.5,1.7-3.7l0.3,0c2.6,1.6,5.6,4.1,7.8,6.8c2,2.5,3.2,5,3.2,7.8
		c0,2-0.5,4-1.4,5.7c-2.9,1.7-6,3-9.1,3c-3.7,0-6.3-2.1-6.3-6.9c0-0.5,0-1.3,0.2-2.4H148.3z"></path>
	<path d="M169.9,718.9c0.3-2.1,0.4-4.4,0.4-6.5v-3.2c0-6-0.7-14.7-1.2-20.3c0.9-1.2,2.2-2.6,3.2-3.5l0.3,0.1
		c0.7,7.1,0.9,15.4,0.9,23c0,2-0.1,4-0.2,5.4c-0.1,1.8-1,3.2-2.9,5.3L169.9,718.9z"></path>
	<path d="M186.8,701.5l2.3,4.4c0.9,1.6,1.6,3.4,1.6,6.2v3.6c0,2.9-1.6,6-4.1,9.1c-2,2.1-3.8,3-5.4,3c-2.4,0-5.2-0.9-8.4-2.5l0.4-1.1
		c1,0.3,2.2,0.6,3.6,0.6c4.6,0,9.3-4,11.5-8.8c0.3-0.6,0.4-1.1,0.4-1.4c0-0.6-0.3-1.2-0.5-1.7c-1.2-2.6-2.5-5-3.9-7.2
		c0.8-1.4,1.5-2.7,2.3-4.1L186.8,701.5z M183.8,690.1c1.3,1,2.6,2.2,3.9,3.5c-0.7,1.2-1.6,2.3-2.7,3.2c-1.3-1.2-2.6-2.3-3.9-3.4
		C182,692.3,182.9,691.2,183.8,690.1z"></path>
	<path d="M205.2,718.3h-0.4c-2.6,0-4.3-0.5-5.6-1.9c-2-2-2-4.4-2-9.2c0-6.2-0.4-12.7-0.9-19.7c1.1-1.2,2.1-2.3,3.1-3l0.2,0.1
		c0.5,7.2,0.5,15.6,0.5,23.7v1.9c0,2.1,1.2,3,2.5,3.5c0.8,0.3,1.7,0.4,2.1,0.4h0.5V718.3z"></path>
	<path d="M205.7,714.2c2.8,0,5-0.1,6.4-0.6c1.1-0.4,1.9-0.9,1.9-1.4c0-1.5-1.6-4.7-3.3-8.1c0.8-1.4,1.6-2.6,2.5-3.7h0.2
		c1.5,2.6,3.3,6.7,3.3,10c0,2.5-1,4.4-2.3,6.1c-1.5,1.5-3.8,2-8.8,2h-0.4c-1.8,0-2.3-1.3-2.3-2.2c0-0.8,0.5-2,2.3-2H205.7z
		 M216.3,693.3c-0.4,0.8-0.8,1.6-1.3,2.2c-3.3,0.5-6.1,1.4-8.5,2.5l-0.1-0.1l0.8-1.4c0.3-0.4,0.9-0.9,1.5-1.1v-0.1
		c-1.5-0.5-2.6-1.4-2.6-2.8c0-0.9,0.6-2,1.5-2.9c1.1-1,2.6-1.9,4-1.9c1.3,0,2.1,0.8,2.1,1.6c0,0.8-0.5,1.5-1,2.1h-0.1
		c-0.4-0.7-0.7-1.2-1-1.3c-0.2-0.1-0.6-0.1-1-0.1c-1.1,0-2.3,0.7-2.3,1.1c0,1.6,2.7,2.1,4.7,2.1
		C214.1,693.3,215.2,693.3,216.3,693.3L216.3,693.3z"></path>
	<path d="M238,719.3c-1,0-3-0.2-4.4-0.4l-0.2-0.5c3.3-1,6.6-2.1,10.3-4c-1.5-1.5-1.6-3.8-1.6-5.7c0-2,0.6-4,2.1-6
		c0.9-1.2,1.9-2.3,3.2-3c0.1-1,0.3-2.2,0.6-3.3h0.3c3.1,3,7.7,5.9,11.5,8.8c2.8,2.2,4,4.1,4,7c0,3.2-2,6.1-6.5,6.1
		c-2.7,0-6.3-0.8-9.6-1.9C244,718.4,240.1,719.3,238,719.3z M252.6,708.7c0-2.7-2-5.3-3.4-5.3c-2.5,0-5.4,3.5-5.4,5.2
		c0,1,1.6,2.9,4.1,3.8C249.5,711.8,252.6,710,252.6,708.7z M258.3,714.7c1.8,0,3.5-0.6,3.5-1.5c0-2.1-2.9-4.4-7-7.1
		c-0.3,2.6-0.9,5-2.5,7.5C254,714.2,255.9,714.7,258.3,714.7z"></path>
	<path d="M265.2,679.1c3-3.4,4.5-5.6,4.9-6.9l0.6-0.3c0.2,1.1,1.9,3.2,5.7,6.4l-0.8,3.2h-0.3c-2.7-2.7-4.4-4.6-5-5.8h-0.1
		c-0.7,1.4-2.1,3.3-4.4,5.9C265.6,680.8,265.3,679.9,265.2,679.1z"></path>
	<path d="M278.2,718.3h-0.4c-2.6,0-4.3-0.5-5.6-1.9c-2-2-2-4.4-2-9.2c0-6.2-0.4-12.7-0.9-19.7c1.1-1.2,2.1-2.3,3.1-3l0.2,0.1
		c0.5,7.2,0.5,15.6,0.5,23.7v1.9c0,2.1,1.2,3,2.5,3.5c0.8,0.3,1.7,0.4,2.1,0.4h0.5V718.3z"></path>
	<path d="M279,714.2c2.4,0,4.3-1.7,5.5-5.8c0.4-1.3,1.2-2.6,2.4-4c1.2-1.1,2.6-1.9,4.1-1.9c4,0,6.3,5.5,6.9,11.2
		c-0.7,3-1.9,4.2-3.5,4.2c-3.2,0-6.5-1.5-9.7-3.9h-0.2c-0.9,2.9-2.7,4.3-5.7,4.3h-0.6c-1.8,0-2.3-1.3-2.3-2.2c0-0.8,0.5-2,2.3-2H279
		z M290.4,712.9c1.2,0.5,2.6,0.9,3.9,0.9c0.5,0,0.9-0.1,1-0.4c-0.9-4.9-3.1-7.1-5.2-7.1c-1.9,0-3.4,1-4.4,3.2
		C286.8,711,288.4,712,290.4,712.9z"></path>
	<path d="M314.8,690.5c-3.4,0.3-7.8,0.4-11.8,0.4l-0.1-0.1l0.9-2c4.6,0,9.4-0.2,12.7-0.4l0,0.2L314.8,690.5z"></path>
	<path d="M321.2,714.2v4.2h-2.7c-0.2,2.1-1.1,4.6-2.5,6.7c-2.5,3.8-6.2,5.6-7.9,5.6c-3,0-6.3-1.4-9.4-3.3l0.6-1.1
		c1.3,0.7,2.8,1.2,4.8,1.2c3.3,0,6.3-1.6,9.1-4.5c1.6-1.6,2.6-2.9,3.1-4.6h-1.6c-6.7,0-10.1-2.1-10.1-6.7c0-2.2,0.7-3.9,1.7-5.3
		c1.2-1.8,3-3.1,5-3.1c3,0,6.1,4.2,7,10.9H321.2z M313.8,709.4c-1-1.2-2.3-1.8-3.5-1.8c-1.8,0-3.7,1.6-3.7,2.9
		c0,1.7,1.5,2.6,3.6,3.2c1.8,0.5,3.8,0.5,5.9,0.5C315.7,712.3,314.9,710.6,313.8,709.4z"></path>
	<path d="M321.8,714.2c2.8,0,5-0.1,6.4-0.6c1.1-0.4,1.9-0.9,1.9-1.4c0-1.5-1.6-4.7-3.3-8.1c0.8-1.4,1.6-2.6,2.5-3.7h0.2
		c1.5,2.6,3.3,6.7,3.3,10c0,2.5-1,4.4-2.3,6.1c-1.5,1.5-3.8,2-8.8,2h-0.4c-1.8,0-2.3-1.3-2.3-2.2c0-0.8,0.5-2,2.3-2H321.8z
		 M326.3,689.8c1.3,1,2.7,2.2,3.9,3.5c-0.7,1.2-1.6,2.3-2.7,3.2c-1.3-1.2-2.6-2.3-3.9-3.4C324.6,692,325.4,690.8,326.3,689.8z"></path>
	<path d="M373.1,718.3c-0.3,2.1-0.7,3.9-1.2,5.2c-1.7,3.8-6.4,6.4-11,6.4c-6.3,0-9.5-4.3-9.5-10c0-3.5,1.1-6.8,2.6-9.2l1.1,0.6
		c-0.9,2.1-1.6,4.2-1.6,6.1c0,5.4,3.7,7.9,8,7.9c5.1,0,9.7-3.9,9.7-6.9c0-2.1-1.3-5.5-3.4-8.7c0.6-1.1,1.2-2.1,2.2-3.5h0.1
		c1.2,2.4,2,4.4,2.7,6.2c0.5,1.1,0.9,1.6,2.1,1.6c1,0,1.9-0.5,2.5-0.9c0.6-0.4,1.4-1.3,1.9-2.6l0.9-2.4l2.2-1l0.1,0.2
		c-0.7,2.3-1,3.7-1,4.8c0,1.4,1,2,2.3,2c2.5,0,3.5-2.4,4-4.4l0.6-2.3l2.4-1.4l0.1,0.2c-0.4,1.5-0.8,3.3-0.8,4.5
		c0,2.6,2.6,3.4,5.7,3.4h0.7v4.2h-0.8c-4.1,0-6.2-1.2-7.1-3.1h-0.2c-1.8,2.2-3.8,3.1-5.7,3.1c-1.4,0-3-0.4-3.5-2.7H379
		c-1.1,1.7-2.8,2.7-5.2,2.7H373.1z"></path>
	<path d="M397.2,714.2c2.5,0,5.1-1,5.6-2.9l0.9-3.5l2.3-1.6l0.2,0.2c-0.5,1.7-0.7,3.1-0.7,3.8c0,1.1,0.3,2.1,1.1,2.7
		c1,0.9,2.3,1.3,4.1,1.3h0.6v4.2h-0.8c-3.2,0-5.6-0.9-6.7-3.3h-0.1c-1.1,2.2-3.7,3.3-6.5,3.3h-0.6c-1.8,0-2.3-1.3-2.3-2.2
		c0-0.8,0.5-2,2.3-2H397.2z M400.9,731.4c-1.3-1.3-2.5-2.3-3.8-3.4c0.9-1.2,1.8-2.3,2.6-3.1c1.3,1,2.5,2.1,3.7,3.5
		C402.5,729.7,401.8,730.6,400.9,731.4z M407.2,731c-1.3-1.3-2.5-2.3-3.8-3.4c0.9-1.2,1.8-2.3,2.6-3.1c1.3,1,2.5,2.1,3.7,3.5
		C408.8,729.3,408.1,730.1,407.2,731z"></path>
	<path d="M411.8,714.2c2.8,0,5-0.1,6.4-0.6c1.1-0.4,1.9-0.9,1.9-1.4c0-1.5-1.6-4.7-3.3-8.1c0.8-1.4,1.6-2.6,2.5-3.7h0.2
		c1.5,2.6,3.3,6.7,3.3,10c0,2.5-1,4.4-2.3,6.1c-1.5,1.5-3.8,2-8.8,2h-0.4c-1.8,0-2.3-1.3-2.3-2.2c0-0.8,0.5-2,2.3-2H411.8z
		 M416.3,689.8c1.3,1,2.7,2.2,3.9,3.5c-0.7,1.2-1.6,2.3-2.7,3.2c-1.3-1.2-2.6-2.3-3.9-3.4C414.6,692,415.4,690.8,416.3,689.8z"></path>
	<path d="M439.6,688.9c-3.4,0.3-7.8,0.4-11.8,0.4l-0.1-0.1l0.9-2c4.6,0,9.4-0.2,12.7-0.4l0,0.2L439.6,688.9z"></path>
	<path d="M436.5,714.9c-3.8,0-7.1-1.8-7.1-6.2c0-2.2,0.8-4,2.1-5.6c1.5-1.6,3.1-2.7,4.7-2.7c1.9,0,3.7,1.3,4.9,3.7
		c1.2,2.3,2.1,5.4,2.1,9c0,3-0.8,5.9-2.5,8.6c-2.9,4.4-5.7,6.2-8.4,6.2c-3,0-6.1-1-9.4-3.2l0.5-1c1.6,0.8,3.2,1.1,4.8,1.1
		c3.3,0,6.6-1.7,9.6-5c1.5-1.6,2.8-3.5,3.1-5.5C439.4,714.7,438,714.9,436.5,714.9z M435,704.5c-1.5,0-3.7,1.7-3.7,2.9
		c0,2,2.9,3.5,5.6,3.5c1.2,0,2.5-0.1,3.7-0.4C439.8,707.2,437.9,704.5,435,704.5z"></path>
	<path d="M450.2,709.5c0.1,2.8,1.3,5,5.4,5c2.6,0,4.7-0.8,7.1-2.1c0.4-0.2,0.7-0.5,0.7-0.8c0-1.8-1.1-4.1-3.1-6.2
		c-1.9-2-4.4-3.8-6.7-4.9c-0.8-0.4-1-0.8-1-1.2c0-0.8,0.9-2.5,1.7-3.7l0.3,0c2.6,1.6,5.6,4.1,7.8,6.8c2,2.5,3.2,5,3.2,7.8
		c0,2-0.5,4-1.4,5.7c-2.9,1.7-6,3-9.1,3c-3.7,0-6.3-2.1-6.3-6.9c0-0.5,0-1.3,0.2-2.4H450.2z"></path>
</g>
</svg>
</svg>