<?xml version="1.0" encoding="UTF-8" standalone="no"?>
<svg version="1.1" xmlns:dc="http://purl.org/dc/elements/1.1/" xmlns:cc="http://creativecommons.org/ns#" xmlns:rdf="http://www.w3.org/1999/02/22-rdf-syntax-ns#" xmlns:svg="http://www.w3.org/2000/svg" xmlns:sodipodi="http://sodipodi.sourceforge.net/DTD/sodipodi-0.dtd" xmlns:inkscape="http://www.inkscape.org/namespaces/inkscape" xmlns="http://www.w3.org/2000/svg" xmlns:xlink="http://www.w3.org/1999/xlink" x="0px" y="0px" width="135px" height="155px" viewBox="0 0 135 155" enable-background="new 0 0 135 155" xml:space="preserve">
<defs>
	
	
		<inkscape:perspective inkscape:persp3d-origin="67.5 : 51.666667 : 1" id="perspective4854" inkscape:vp_z="135 : 77.5 : 1" inkscape:vp_y="0 : 1000 : 0" inkscape:vp_x="0 : 77.5 : 1" sodipodi:type="inkscape:persp3d">
		</inkscape:perspective>
	
		<inkscape:perspective inkscape:persp3d-origin="0.5 : 0.33333333 : 1" id="perspective10537" inkscape:vp_z="1 : 0.5 : 1" inkscape:vp_y="0 : 1000 : 0" inkscape:vp_x="0 : 0.5 : 1" sodipodi:type="inkscape:persp3d">
		</inkscape:perspective>
	
		<inkscape:perspective inkscape:persp3d-origin="0.5 : 0.33333333 : 1" id="perspective13111" inkscape:vp_z="1 : 0.5 : 1" inkscape:vp_y="0 : 1000 : 0" inkscape:vp_x="0 : 0.5 : 1" sodipodi:type="inkscape:persp3d">
		</inkscape:perspective>
</defs>
<sodipodi:namedview inkscape:guide-bbox="true" inkscape:current-layer="svg3857" inkscape:window-y="24" inkscape:window-x="32" inkscape:window-height="730" inkscape:window-width="1198" inkscape:pageshadow="2" inkscape:pageopacity="0" id="namedview4848" showguides="true" inkscape:cy="9" inkscape:cx="61" inkscape:zoom="7.3030303" showgrid="false" guidetolerance="10" gridtolerance="10" objecttolerance="10" borderopacity="1" bordercolor="#666666" pagecolor="#ffffff" inkscape:window-maximized="0">
	<sodipodi:guide id="globe_top" position="0,140" orientation="0,1"></sodipodi:guide>
	<sodipodi:guide id="globe_left" position="16,0" orientation="1,0"></sodipodi:guide>
	<sodipodi:guide id="globe_right" position="119,0" orientation="1,0"></sodipodi:guide>
	<sodipodi:guide id="globe_bottom" position="0,47" orientation="0,1"></sodipodi:guide>
	<sodipodi:guide id="wordmark_top" position="8,40" orientation="0,1"></sodipodi:guide>
	<sodipodi:guide id="wordmark_bottom" position="8,22.5" orientation="0,1"></sodipodi:guide>
	<sodipodi:guide id="subtitle_top" position="0,17" orientation="0,1"></sodipodi:guide>
	<sodipodi:guide id="subtitle_bottom" position="0,8" orientation="0,1"></sodipodi:guide>
	<sodipodi:guide id="wordmark_left" position="8,40" orientation="1,0"></sodipodi:guide>
	<sodipodi:guide id="wordmark_right" position="127,40" orientation="1,0"></sodipodi:guide>
</sodipodi:namedview>
<g id="Die_freie_Enzyklopädie">
	<path d="M13.598,138.688c2.496,0,4.485,1.99,4.485,4.408c0,3.197-2.418,4.029-4.251,4.029c-1.339,0-1.885-0.025-2.366-0.025
		c-0.663,0-1.053,0.014-1.69,0.025c-0.078-0.078-0.078-0.352,0-0.43c0.91-0.039,1.131-0.104,1.131-1.184v-5.213
		c0-1.078-0.221-1.145-1.131-1.183c-0.078-0.078-0.078-0.353,0-0.431c0.65,0.015,1.027,0.026,1.677,0.026
		C11.959,138.715,12.766,138.688,13.598,138.688z M13.428,146.684c1.833,0,3.406-0.648,3.406-3.274c0-2.002-0.923-4.277-3.731-4.277
		c-0.637,0-1.092,0.183-1.092,0.638v6.252C12.011,146.438,12.154,146.684,13.428,146.684z"></path>
	<path d="M23.997,146.1c-0.52,0.676-1.222,1.131-2.21,1.131c-0.936,0-1.547-0.313-1.989-0.832c-0.429-0.494-0.611-1.195-0.611-1.924
		c0-1.977,1.469-3.056,2.6-3.056c1.807,0,2.197,1.17,2.197,2.263c0,0.144-0.091,0.221-0.247,0.221l-3.458-0.025
		c0,0.754,0.156,1.352,0.416,1.781c0.403,0.662,0.949,0.936,1.417,0.936c0.754,0,1.131-0.207,1.612-0.701
		C23.88,145.904,23.958,145.969,23.997,146.1z M22.671,143.395c0.143-0.002,0.195-0.063,0.195-0.182
		c0-1.092-0.585-1.365-1.079-1.365c-0.312,0-1.222,0.117-1.469,1.586L22.671,143.395z"></path>
	<path d="M31.069,146.697c0.078,0.078,0.078,0.351,0,0.429c-0.559-0.013-0.936-0.026-1.534-0.026c-0.533,0-0.819,0.014-1.365,0.026
		c-0.078-0.078-0.078-0.351,0-0.429c0.702-0.053,0.845-0.104,0.845-1.184v-3.484h-0.897c-0.052,0-0.065-0.014-0.065-0.077v-0.169
		c0-0.104,0.065-0.262,0.299-0.262h0.663v-0.52c0-2.027,1.209-2.979,2.301-2.979c0.494,0,0.832,0.039,1.17,0.273
		c0.273,0.208,0.416,0.441,0.416,0.663c0,0.261-0.313,0.533-0.533,0.533c-0.273,0-0.416-0.183-0.52-0.416
		c-0.182-0.455-0.39-0.611-0.78-0.611c-0.429,0-1.027,0.312-1.027,2.313v0.74h1.404c0.065,0,0.104,0.026,0.104,0.078v0.26
		c0,0.117-0.182,0.17-0.299,0.17h-1.209v3.484C30.042,146.594,30.185,146.645,31.069,146.697z"></path>
	<path d="M32.252,142.096c-0.052-0.078-0.052-0.287-0.026-0.365c0.897-0.115,1.417-0.232,1.781-0.377
		c0.104,0,0.169,0.039,0.169,0.092c0,0-0.065,0.623-0.065,1.039c0,0.065,0.039,0.132,0.117-0.012c0.299-0.508,0.832-1.08,1.443-1.08
		c0.546,0,0.78,0.377,0.78,0.625c0,0.324-0.299,0.649-0.611,0.649c-0.273,0-0.403-0.247-0.533-0.377
		c-0.078-0.078-0.182-0.091-0.273-0.091c-0.156,0-0.455,0.429-0.598,0.637c-0.156,0.234-0.312,0.533-0.312,0.871v1.807
		c0,1.079,0.156,1.118,1.066,1.184c0.078,0.078,0.078,0.352,0,0.43c-0.559-0.014-1.04-0.025-1.573-0.025
		c-0.521,0-0.937,0.014-1.482,0.025c-0.078-0.078-0.078-0.352,0-0.43c0.806-0.053,0.962-0.104,0.962-1.184v-2.535
		C33.097,142.264,32.954,142.16,32.252,142.096z"></path>
	<path d="M41.82,146.1c-0.52,0.676-1.222,1.131-2.21,1.131c-0.936,0-1.547-0.313-1.989-0.832c-0.429-0.494-0.611-1.195-0.611-1.924
		c0-1.977,1.469-3.056,2.6-3.056c1.807,0,2.197,1.17,2.197,2.263c0,0.144-0.091,0.221-0.247,0.221l-3.458-0.025
		c0,0.754,0.156,1.352,0.416,1.781c0.403,0.662,0.949,0.936,1.417,0.936c0.754,0,1.131-0.207,1.612-0.701
		C41.703,145.904,41.781,145.969,41.82,146.1z M40.494,143.395c0.143-0.002,0.195-0.063,0.195-0.182
		c0-1.092-0.585-1.365-1.079-1.365c-0.312,0-1.222,0.117-1.469,1.586L40.494,143.395z"></path>
	<path d="M45.629,146.697c0.078,0.078,0.078,0.351,0,0.429c-0.559-0.013-0.884-0.026-1.443-0.026c-0.572,0-0.91,0.014-1.456,0.026
		c-0.078-0.078-0.078-0.351,0-0.429c0.793-0.065,0.936-0.104,0.936-1.184v-2.535c0-0.74-0.137-0.817-0.845-0.885
		c-0.026-0.078-0.052-0.285-0.026-0.363c0.897-0.117,1.41-0.233,1.781-0.377c0.104,0,0.169,0.039,0.169,0.09
		c0,0-0.052,0.832-0.052,1.479v2.591C44.693,146.594,44.836,146.645,45.629,146.697z M44.186,138.688
		c0.351,0,0.624,0.365,0.624,0.676c0,0.275-0.312,0.625-0.676,0.625c-0.312,0-0.624-0.338-0.624-0.676
		C43.51,139.001,43.874,138.688,44.186,138.688z"></path>
	<path d="M51.154,146.1c-0.52,0.676-1.222,1.131-2.21,1.131c-0.936,0-1.547-0.313-1.989-0.832c-0.429-0.494-0.611-1.195-0.611-1.924
		c0-1.977,1.469-3.056,2.6-3.056c1.807,0,2.197,1.17,2.197,2.263c0,0.144-0.091,0.221-0.247,0.221l-3.458-0.025
		c0,0.754,0.156,1.352,0.416,1.781c0.403,0.662,0.949,0.936,1.417,0.936c0.754,0,1.131-0.207,1.612-0.701
		C51.037,145.904,51.115,145.969,51.154,146.1z M49.828,143.395c0.143-0.002,0.195-0.063,0.195-0.182
		c0-1.092-0.585-1.365-1.079-1.365c-0.312,0-1.222,0.117-1.469,1.586L49.828,143.395z"></path>
	<path d="M59.656,141.521c0.078-0.078,0.351-0.078,0.429,0c-0.013,0.392-0.026,0.678-0.026,1.119s0.013,0.688,0.026,1.145
		c-0.078,0.078-0.351,0.078-0.429,0c-0.039-0.585-0.078-0.885-1.183-0.885H57.29v3.134c0,0.351,0.182,0.56,0.468,0.56h1.768
		c0.988,0,1.443-0.768,1.703-1.703c0.17-0.041,0.32-0.013,0.455,0.064c-0.104,0.663-0.299,1.521-0.481,2.171
		c0,0-1.04-0.026-1.664-0.026h-2.795c0,0-1.053,0.014-1.69,0.026c-0.078-0.078-0.078-0.351,0-0.429
		c0.91-0.039,1.131-0.104,1.131-1.184V140.3c0-1.079-0.221-1.146-1.131-1.183c-0.078-0.078-0.078-0.352,0-0.43
		c0.65,0.014,1.677,0.025,1.677,0.025h3.315c0.312,0,0.416-0.013,0.637-0.052c0.039,0,0.052,0.013,0.052,0.039
		c0.026,0.104,0.221,1.353,0.286,1.885c-0.127,0.062-0.268,0.088-0.429,0.063c-0.286-0.896-0.494-1.416-1.469-1.416h-1.365
		c-0.312,0-0.468,0.261-0.468,0.572v2.6h1.183C59.578,142.406,59.617,142.238,59.656,141.521z"></path>
	<path d="M66.507,141.393c0.455,0,0.858,0.156,1.079,0.442c0.299,0.403,0.351,1.026,0.351,1.742v1.937
		c0,1.066,0.144,1.118,0.872,1.184c0.064,0.078,0.064,0.352,0,0.43c-0.56-0.014-0.846-0.025-1.378-0.025
		c-0.52,0-0.78,0.014-1.326,0.025c-0.065-0.078-0.065-0.352,0-0.43c0.676-0.064,0.806-0.116,0.806-1.184v-1.976
		c0-0.392-0.026-0.741-0.156-1.001c-0.156-0.299-0.429-0.469-0.689-0.469c-0.507,0-1.014,0.285-1.508,0.768
		c-0.104,0.117-0.221,0.271-0.221,0.546v2.132c0,1.066,0.117,1.118,0.78,1.185c0.078,0.077,0.078,0.351,0,0.429
		c-0.546-0.014-0.78-0.025-1.287-0.025c-0.559,0-0.897,0.014-1.43,0.025c-0.078-0.078-0.078-0.352,0-0.429
		c0.78-0.065,0.91-0.117,0.91-1.185v-2.535c0-0.754-0.143-0.817-0.845-0.883c-0.026-0.078-0.052-0.287-0.026-0.365
		c0.897-0.115,1.43-0.232,1.794-0.377c0.104,0,0.156,0.039,0.156,0.104c0,0-0.065,0.599-0.065,0.987c0,0.183,0.091,0.053,0.13,0
		C65.246,141.563,65.87,141.393,66.507,141.393z"></path>
	<path d="M70.459,141.521h2.639c0.377,0,0.793-0.09,0.858-0.09c0.091,0,0.155,0.039,0.155,0.09c0,0.054-0.064,0.209-0.286,0.547
		l-3.12,4.59h1.729c0.754,0,0.976-0.352,1.287-1.04l0.17-0.377c0.155,0,0.305,0.043,0.389,0.091
		c-0.221,0.754-0.35,1.365-0.416,1.768h-4.055c-0.195,0-0.3-0.063-0.3-0.154c0-0.065,0.013-0.104,0.117-0.262l3.196-4.719h-1.793
		c-0.389,0-0.793,0.273-1.053,1.223c-0.149,0.033-0.313,0.01-0.429-0.039c0.104-0.637,0.183-1.131,0.194-1.717
		c0-0.031,0.047-0.078,0.078-0.078C70.049,141.398,70.041,141.521,70.459,141.521z"></path>
	<path d="M75.982,150.116c-0.351,0-0.61-0.208-0.61-0.481c0-0.169,0.194-0.559,0.571-0.559c0.145,0,0.195,0.039,0.377,0.039
		c0.326,0,0.508-0.117,0.65-0.377c0.194-0.403,0.354-0.762,0.508-1.196c0.129-0.364-0.069-0.961-0.183-1.222l-1.471-3.42
		c-0.356-0.828-0.459-0.924-1.025-0.976c-0.077-0.077-0.077-0.351,0-0.429c0.261,0.013,0.61,0.025,1.054,0.025
		c0.467,0,0.987-0.014,1.469-0.025c0.078,0.078,0.078,0.352,0,0.429c-0.797,0.063-0.66,0.298-0.426,0.845l1.151,2.705
		c0.111,0.258,0.22,0.223,0.312,0.014l1.289-2.979c0.205-0.471-0.213-0.546-0.623-0.585c-0.078-0.077-0.078-0.351,0-0.429
		c0.48,0.013,0.729,0.025,1.184,0.025c0.363,0,0.598-0.014,0.923-0.025c0.078,0.078,0.078,0.352,0,0.429
		c-0.481,0.039-0.87,0.455-1.054,0.832c-0.688,1.456-1.256,2.798-2.301,5.306c-0.16,0.385-0.33,0.756-0.533,1.117
		C76.775,150.012,76.257,150.116,75.982,150.116z"></path>
	<path d="M82.404,139.833c0-1.093-0.155-1.026-0.832-1.065c-0.077-0.078-0.104-0.287-0.077-0.391
		c0.521-0.039,1.495-0.223,1.819-0.352c0.117,0,0.17,0.039,0.17,0.129c0,0-0.053,0.521-0.053,1.365v4.492
		c0.346-0.101,0.993-0.677,1.678-1.424c0.137-0.137,0.553-0.624-0.233-0.663c-0.078-0.077-0.078-0.351,0-0.429
		c0.479,0.014,0.701,0.025,1.194,0.025c0.47,0,0.65-0.014,1.132-0.025c0.077,0.078,0.077,0.352,0,0.429
		c-0.649,0.026-1.044,0.173-1.431,0.572l-0.987,1.092c-0.039,0.039-0.052,0.078-0.052,0.13c0,0.065,0.025,0.131,0.064,0.184
		l1.521,2.248c0.297,0.439,0.676,0.494,1.117,0.547c0.078,0.078,0.078,0.351,0,0.429c-0.39-0.013-0.662-0.026-1.065-0.026
		c-0.39,0-0.638,0.014-0.896,0.026c-0.039,0-0.053-0.026-0.053-0.065v-0.207c0-0.17-0.039-0.324-0.3-0.701l-0.948-1.34
		c-0.254-0.367-0.432-0.463-0.74-0.469v1.17c0,1.08,0.143,1.131,0.676,1.185c0.078,0.077,0.078,0.351,0,0.429
		c-0.56-0.014-0.729-0.025-1.184-0.025c-0.546,0-0.846,0.014-1.392,0.025c-0.078-0.078-0.078-0.352,0-0.429
		c0.729-0.054,0.87-0.104,0.87-1.185V139.833z"></path>
	<path d="M88.788,139.833c0-1.093-0.155-1.026-0.832-1.065c-0.078-0.078-0.104-0.287-0.078-0.391
		c0.521-0.039,1.495-0.223,1.819-0.352c0.117,0,0.17,0.039,0.17,0.129c0,0-0.053,0.521-0.053,1.365v5.994
		c0,1.078,0.144,1.145,0.937,1.184c0.078,0.078,0.078,0.351,0,0.429c-0.56-0.013-0.884-0.026-1.442-0.026
		c-0.572,0-0.91,0.014-1.455,0.026c-0.078-0.078-0.078-0.351,0-0.429c0.793-0.039,0.936-0.104,0.936-1.184L88.788,139.833
		L88.788,139.833z"></path>
	<path d="M94.273,141.393c2.016,0,2.73,1.573,2.73,2.926c0,1.301-0.818,2.912-2.757,2.912c-1.833,0-2.729-1.469-2.729-2.795
		C91.52,142.784,92.52,141.393,94.273,141.393z M92.637,144.137c0,1,0.493,2.664,1.846,2.664c0.611,0,1.404-0.351,1.404-2.066
		c0-1.91-0.638-2.912-1.756-2.912C93.039,141.822,92.637,143.005,92.637,144.137z"></path>
	<path d="M101.488,141.393c1.326,0,2.302,1.274,2.302,2.652c0,1.053-0.351,1.859-0.962,2.457c-0.533,0.507-1.184,0.729-1.911,0.729
		c-0.41,0-0.813-0.072-1.131-0.201c-0.134-0.055-0.183-0.071-0.183,0.098v1.404c0,1.078,0.144,1.131,1.065,1.183
		c0.078,0.078,0.078,0.353,0,0.431c-0.56-0.015-0.962-0.026-1.571-0.026c-0.572,0-0.91,0.013-1.457,0.026
		c-0.078-0.078-0.078-0.353,0-0.431c0.793-0.039,0.937-0.104,0.937-1.183v-5.553c0-0.74-0.144-0.817-0.845-0.883
		c-0.026-0.078-0.053-0.287-0.026-0.365c0.897-0.115,1.392-0.232,1.755-0.377c0.104,0,0.169,0.039,0.169,0.092
		c0,0-0.052,0.363-0.052,0.832c0,0.093,0.09,0.08,0.13,0.039C100.293,141.719,101.008,141.393,101.488,141.393z M99.604,143.316
		v2.418c0,0.47,0.051,0.545,0.313,0.779c0.234,0.209,0.689,0.273,0.923,0.273c1.456,0,1.833-1.326,1.833-2.393
		c0-1.47-0.715-2.404-1.547-2.404c-0.379,0-0.91,0.338-1.313,0.754C99.646,142.916,99.604,143.044,99.604,143.316z"></path>
	<path d="M108.066,146.477l-0.26,0.207c-0.572,0.442-0.818,0.547-1.416,0.547c-0.91,0-1.64-0.377-1.64-1.403
		c0-0.884,0.897-1.573,2.146-1.886l1.119-0.272c0.039-0.013,0.077-0.065,0.077-0.155c0-1.47-0.61-1.689-1.054-1.689
		c-0.494,0-1.079,0.143-1.079,0.546c0,0.144,0.015,0.221,0.026,0.26c0.025,0.052,0.039,0.144,0.039,0.233
		c0,0.17-0.195,0.43-0.572,0.43c-0.299,0-0.455-0.145-0.455-0.455c0-0.701,1.079-1.443,2.146-1.443c0.948,0,1.963,0.353,1.963,2.197
		v1.938c0,0.599,0.013,1.104,0.52,1.104c0.273,0,0.328-0.208,0.402-0.208c0.053,0,0.17,0.131,0.17,0.221
		c0,0.065-0.469,0.586-1.104,0.586c-0.695,0-0.925-0.48-1.002-0.754h-0.027V146.477z M105.975,139.001
		c0.338,0,0.61,0.286,0.61,0.624s-0.272,0.609-0.61,0.609s-0.611-0.271-0.611-0.609S105.637,139.001,105.975,139.001z
		 M107.066,144.344c-0.961,0.256-1.235,0.846-1.235,1.432c0,0.402,0.286,0.922,0.937,0.922c0.363,0,0.807-0.285,1.145-0.559
		c0.104-0.078,0.184-0.17,0.184-0.339v-1.729L107.066,144.344z M108.171,139.001c0.339,0,0.611,0.286,0.611,0.624
		s-0.272,0.609-0.611,0.609c-0.338,0-0.61-0.271-0.61-0.609S107.833,139.001,108.171,139.001z"></path>
	<path d="M112.941,147.23c-1.403,0-2.209-1.172-2.209-2.771c0-0.962,0.338-1.729,0.896-2.288c0.521-0.494,1.093-0.779,1.95-0.779
		c0.429,0,0.962,0.221,1.014,0.221c0.092,0,0.117-0.025,0.117-0.116v-1.664c0-1.093-0.156-1.026-0.832-1.065
		c-0.078-0.078-0.104-0.287-0.078-0.391c0.521-0.039,1.495-0.223,1.82-0.352c0.117,0,0.169,0.039,0.169,0.129
		c0,0-0.052,0.521-0.052,1.365v5.891c0,0.637,0.117,0.884,0.949,0.949c0.078,0.076,0.078,0.271,0,0.351
		c-0.793,0.091-1.287,0.286-1.574,0.521c-0.104,0.025-0.144,0.039-0.246,0c0,0-0.145-0.455-0.145-0.768
		c0-0.091-0.093-0.066-0.154-0.018C113.93,146.971,113.449,147.23,112.941,147.23z M114.71,143.018c0-0.401-0.039-0.494-0.222-0.701
		c-0.26-0.299-0.584-0.469-1.053-0.469c-0.261,0-0.807,0.039-1.209,0.65c-0.194,0.271-0.377,0.793-0.377,1.729
		c0,1.625,0.729,2.394,1.43,2.394c0.326,0,0.742-0.208,1.223-0.624c0.184-0.159,0.208-0.26,0.208-0.508V143.018z"></path>
	<path d="M120.092,146.697c0.078,0.078,0.078,0.351,0,0.429c-0.559-0.013-0.884-0.026-1.441-0.026c-0.572,0-0.91,0.014-1.457,0.026
		c-0.077-0.078-0.077-0.351,0-0.429c0.793-0.065,0.937-0.104,0.937-1.184v-2.535c0-0.74-0.137-0.817-0.845-0.885
		c-0.026-0.078-0.053-0.285-0.026-0.363c0.897-0.117,1.411-0.233,1.781-0.377c0.104,0,0.169,0.039,0.169,0.09
		c0,0-0.052,0.832-0.052,1.479v2.591C119.156,146.594,119.299,146.645,120.092,146.697z M118.648,138.688
		c0.352,0,0.625,0.365,0.625,0.676c0,0.275-0.313,0.625-0.678,0.625c-0.312,0-0.623-0.338-0.623-0.676
		C117.973,139.001,118.337,138.688,118.648,138.688z"></path>
	<path d="M125.617,146.1c-0.521,0.676-1.223,1.131-2.21,1.131c-0.937,0-1.548-0.313-1.989-0.832
		c-0.43-0.494-0.611-1.195-0.611-1.924c0-1.977,1.471-3.056,2.602-3.056c1.807,0,2.197,1.17,2.197,2.263
		c0,0.144-0.092,0.221-0.248,0.221l-3.459-0.025c0,0.754,0.156,1.352,0.416,1.781c0.403,0.662,0.949,0.936,1.418,0.936
		c0.754,0,1.131-0.207,1.611-0.701C125.5,145.904,125.578,145.969,125.617,146.1z M124.291,143.395
		c0.143-0.002,0.195-0.063,0.195-0.182c0-1.092-0.586-1.365-1.079-1.365c-0.313,0-1.224,0.117-1.47,1.586L124.291,143.395z"></path>
</g>
<g id="Wikipedia">
	<path id="path3898" d="M18.757,118.893c0,0-0.367-0.746-0.492-0.994c-0.834-1.651-0.816-1.739-1.659-1.852
		c-0.236-0.031-0.358-0.061-0.358-0.178v-0.523l0.071-0.051c1.523-0.002,4.912-0.002,4.912-0.002l0.13,0.043v0.521
		c0,0.119-0.085,0.18-0.258,0.18l-0.356,0.051c-0.9,0.07-0.753,0.438-0.155,1.629l5.677,11.615l0.194,0.053l5.04-11.961
		c0.175-0.482,0.148-0.824-0.077-1.025c-0.226-0.194-0.385-0.312-0.969-0.336l-0.473-0.022c-0.058,0-0.113-0.021-0.166-0.062
		c-0.052-0.037-0.079-0.086-0.079-0.145v-0.498l0.072-0.051c1.42,0,5.694,0,5.694,0l0.058,0.051v0.498
		c0,0.135-0.077,0.203-0.229,0.203c-0.746,0.033-1.299,0.195-1.657,0.484c-0.359,0.291-0.639,0.69-0.84,1.213
		c0,0-4.635,10.609-6.221,14.135c-0.607,1.156-1.204,1.05-1.729-0.033c-1.109-2.283-4.232-9.213-4.232-9.213L18.757,118.893z"></path>
	<path id="path3900" d="M27.853,115.287c0,0-3.203-0.01-4.629,0l-0.071,0.051v0.496c0,0.061,0.026,0.109,0.078,0.146
		c0.053,0.039,0.107,0.059,0.165,0.059l0.229,0.025c0.583,0.022,0.851,0.177,0.931,0.271c0.139,0.17,0.208,0.354-0.129,1.089
		l-5.98,11.929l-0.157-0.041c0,0-4.283-9.031-5.523-12.054c-0.129-0.313-0.187-0.545-0.187-0.688c0-0.307,0.277-0.473,0.831-0.495
		l0.646-0.027c0.171,0,0.258-0.065,0.258-0.202v-0.496l-0.058-0.052c0,0-5.13-0.006-6.19,0l-0.058,0.052v0.521
		c0,0.094,0.119,0.151,0.358,0.178c0.651,0.035,1.079,0.14,1.285,0.313c0.205,0.175,0.422,0.617,0.71,1.306
		c1.557,3.739,4.865,10.414,6.476,14.215c0.464,1.038,1.047,1.199,1.755-0.032c1.226-2.272,4.55-9.218,4.55-9.218l2.618-4.896
		c0.305-0.518,0.599-0.979,0.748-1.193c0.273-0.393,0.426-0.467,1.172-0.502c0.152,0,0.229-0.068,0.229-0.205v-0.496L27.853,115.287
		z"></path>
	<path id="path3902" fill="#FFFFFF" d="M21.535,126.689c-0.02,0.064,0.188,0.293,0.253,0.313l0.155-0.098
		c0.064,0.02,0.203-0.041,0.223-0.105l0.027-0.264l-0.279-1.305c-0.051-0.066-0.09-0.019-0.107,0.043L21.535,126.689z"></path>
	<path id="path3904" d="M37.592,130.77c0,0.572,0.26,0.91,1.092,0.988l0.546,0.053c0.078,0,0.156,0.051,0.156,0.155v0.546
		l-0.026,0.053c0,0-1.976-0.053-2.782-0.053c-0.728,0-2.756,0.053-2.756,0.053l-0.052-0.053v-0.546c0-0.104,0.078-0.155,0.182-0.155
		l0.52-0.053c0.858-0.078,1.118-0.494,1.118-0.988v-8.658c0-0.569-0.313-0.729-1.118-0.805l-0.52-0.054
		c-0.104,0-0.182-0.024-0.182-0.104v-0.599l0.026-0.052c0,0,2.054,0.052,2.86,0.052c0.702,0,2.704-0.052,2.704-0.052l0.026,0.052
		v0.572c0,0.078-0.052,0.13-0.156,0.13l-0.546,0.053c-0.806,0.077-1.092,0.286-1.092,0.807V130.77z"></path>
	<path id="path3906" d="M45.265,130.77c0,0.572,0.338,0.858,1.092,0.988l0.286,0.053c0.078,0.025,0.156,0.051,0.156,0.155v0.546
		l-0.026,0.053c0,0-1.638-0.053-2.418-0.053c-0.728,0-2.86,0.053-2.86,0.053l-0.052-0.053v-0.546c0-0.104,0.078-0.155,0.182-0.155
		l0.52-0.053c0.78-0.078,1.118-0.494,1.118-0.988v-8.658c0-0.569-0.286-0.729-1.118-0.805l-0.52-0.054
		c-0.104,0-0.182-0.024-0.182-0.104v-0.599l0.026-0.052c0,0,2.132,0.052,2.938,0.052c0.729,0,2.366-0.052,2.366-0.052l0.026,0.052
		v0.572c0,0.078-0.052,0.104-0.156,0.13l-0.286,0.053c-0.806,0.155-1.092,0.286-1.092,0.807v3.928c0.858,0,1.352-0.439,2.496-1.664
		c1.04-1.146,1.846-2.104,1.846-2.602c0-0.209-0.234-0.44-0.754-0.521c-0.104-0.024-0.156-0.052-0.156-0.13v-0.6l0.026-0.024
		c0,0,2.106,0.052,2.86,0.052c0.676,0,1.82-0.052,1.82-0.052l0.078,0.024v0.6c0,0.078-0.078,0.13-0.208,0.13
		c-1.014,0.078-1.716,0.13-2.652,1.196l-2.236,2.572c-0.442,0.47-0.598,0.754-0.598,0.963c0,0.156,0.104,0.285,0.234,0.44
		l3.926,4.731c0.312,0.363,0.936,0.521,1.456,0.623l0.13,0.025c0.078,0.025,0.182,0.077,0.182,0.155v0.546l-0.078,0.025
		c0,0-1.378-0.025-2.106-0.025c-0.65,0-1.586,0.025-1.586,0.025l-0.026-0.025v-0.313c0-0.338-0.026-0.623-0.39-1.039l-2.886-3.588
		c-0.39-0.521-0.806-0.649-1.378-0.649V130.77L45.265,130.77z"></path>
	<path id="path3908" d="M59.282,130.77c0,0.572,0.26,0.91,1.092,0.988l0.546,0.053c0.078,0,0.156,0.051,0.156,0.155v0.546
		l-0.026,0.053c0,0-1.976-0.053-2.782-0.053c-0.728,0-2.756,0.053-2.756,0.053l-0.052-0.053v-0.546c0-0.104,0.078-0.155,0.182-0.155
		l0.52-0.053c0.858-0.078,1.118-0.494,1.118-0.988v-8.658c0-0.569-0.312-0.729-1.118-0.805l-0.52-0.054
		c-0.104,0-0.182-0.024-0.182-0.104v-0.599l0.026-0.052c0,0,2.054,0.052,2.86,0.052c0.702,0,2.704-0.052,2.704-0.052l0.026,0.052
		v0.572c0,0.078-0.052,0.13-0.156,0.13l-0.546,0.053c-0.806,0.077-1.092,0.286-1.092,0.807V130.77z"></path>
	<path id="path3910" d="M64.9,122.163c0-0.806-0.338-0.832-1.56-0.91c-0.156,0-0.182-0.077-0.182-0.13v-0.598l0.052-0.026
		c0.39,0,1.924,0.052,2.678,0.052c0.728,0,1.768-0.052,2.73-0.052c3.69,0,4.366,1.819,4.366,3.173c0,1.561-0.754,4.004-4.444,4.004
		c-0.65,0-1.17-0.053-1.639-0.26v3.482c0,0.572,0.312,0.703,1.145,0.832l0.521,0.078c0.104,0.024,0.184,0.053,0.184,0.154v0.546
		l-0.023,0.054c0,0-2.082-0.054-2.888-0.054c-0.728,0-2.678,0.054-2.678,0.054l-0.026-0.054v-0.546c0-0.104,0.052-0.13,0.156-0.154
		l0.546-0.078c0.806-0.104,1.066-0.338,1.066-0.832L64.9,122.163L64.9,122.163z M66.902,126.688c0.52,0.209,1.17,0.234,1.69,0.234
		c1.561,0,2.313-0.938,2.313-2.938c0-2.236-1.014-2.73-2.441-2.73c-1.249,0-1.561,0.234-1.561,0.91V126.688L66.902,126.688z"></path>
	<path id="path3912" d="M77.462,132.512c-0.78,0-2.573,0.053-2.573,0.053l-0.027-0.053v-0.572c0-0.051,0.027-0.129,0.156-0.129
		l0.601-0.053c0.807-0.078,1.041-0.598,1.041-1.117v-8.58c0-0.6-0.313-0.703-1.041-0.754l-0.601-0.054
		c-0.156-0.024-0.156-0.077-0.156-0.104v-0.599l0.027-0.052c0,0,2.027,0.052,2.807,0.052h3.822c0.78,0,2.627-0.052,2.627-0.052
		l0.053,0.052c0.025,1.118,0.207,2.134,0.392,3.121l-0.647,0.104c-0.285-0.963-0.779-2.34-2.443-2.34h-2.08
		c-0.494,0-0.754,0.182-0.754,0.623v3.771h1.949c0.729,0,0.91-0.312,1.015-0.832l0.155-0.546c0-0.078,0.053-0.131,0.156-0.131h0.439
		c0.055,0,0.055,0.027,0.055,0.078c-0.055,0.572-0.156,1.301-0.156,1.924c0,0.65,0.104,1.197,0.156,1.795l-0.055,0.053h-0.439
		c-0.129,0-0.185-0.053-0.185-0.131l-0.13-0.57c-0.104-0.521-0.338-0.808-1.018-0.808H78.66v3.979c0,0.491,0.283,0.985,0.754,0.985
		h2.47c1.326,0,2.056-0.832,2.366-2.187l0.648,0.078l-0.521,2.989l-0.052,0.052c0,0-1.534-0.052-2.313-0.052L77.462,132.512
		L77.462,132.512L77.462,132.512z"></path>
	<path id="path3914" d="M87.24,131.811l0.598-0.053c0.781-0.078,1.041-0.313,1.041-1.117v-8.58c0-0.678-0.184-0.678-1.041-0.754
		l-0.57-0.054c-0.104,0-0.184-0.052-0.184-0.13v-0.572l0.025-0.052c0,0,2.289,0.052,2.758,0.052c0.492,0,2.756-0.052,3.432-0.052
		c4.342,0,6.475,2.704,6.475,6.162c0,4.551-3.225,5.901-6.108,5.901c-2.08,0-2.989-0.053-3.795-0.053
		c-0.781,0-2.759,0.053-2.759,0.053l-0.024-0.053v-0.547C87.084,131.889,87.137,131.811,87.24,131.811z M93.039,131.811
		c2.859,0,4.473-1.063,4.473-4.707c0-2.703-0.599-5.851-4.967-5.851c-1.014,0-1.664,0.156-1.664,0.808v8.58
		C90.881,131.367,91.063,131.811,93.039,131.811z"></path>
	<path id="path3916" d="M105.912,130.77c0,0.572,0.26,0.91,1.092,0.988l0.546,0.053c0.078,0,0.156,0.051,0.156,0.155v0.546
		l-0.026,0.053c0,0-1.976-0.053-2.781-0.053c-0.729,0-2.756,0.053-2.756,0.053l-0.053-0.053v-0.546c0-0.104,0.078-0.155,0.182-0.155
		l0.521-0.053c0.857-0.078,1.118-0.494,1.118-0.988v-8.658c0-0.569-0.313-0.729-1.118-0.805l-0.521-0.054
		c-0.104,0-0.182-0.024-0.182-0.104v-0.599l0.026-0.052c0,0,2.054,0.052,2.858,0.052c0.7,0,2.705-0.052,2.705-0.052l0.023,0.052
		v0.572c0,0.078-0.055,0.13-0.156,0.13l-0.546,0.053c-0.808,0.077-1.092,0.286-1.092,0.807L105.912,130.77L105.912,130.77
		L105.912,130.77z"></path>
	<path id="path3918" d="M113.922,131.758l0.754,0.053c0.104,0,0.208,0.078,0.208,0.207v0.494l-0.052,0.053
		c0,0-2.834-0.053-3.458-0.053c-0.677,0-2.341,0.053-2.341,0.053l-0.053-0.053v-0.494c0-0.129,0.078-0.207,0.209-0.207
		c1.145-0.078,1.793-0.287,2.521-1.951l5.771-13.521c0.285-0.676,0.494-0.937,0.887-0.937c0.361,0,0.492,0.261,0.699,0.781
		l5.33,14.092c0.365,1.015,0.887,1.404,1.926,1.508l0.285,0.025c0.131,0,0.262,0.078,0.262,0.209v0.491l-0.078,0.054
		c0,0-2.002-0.054-3.018-0.054c-0.91,0-3.459,0.054-3.459,0.054l-0.023-0.054v-0.491c0-0.131,0.052-0.209,0.186-0.209l0.728-0.054
		c0.987-0.075,1.353-0.392,1.092-1.116l-1.586-4.396h-5.41c-0.624,0-0.78,0.104-0.909,0.439l-1.509,3.771
		C112.622,131.107,112.96,131.68,113.922,131.758z M120.292,125.152l-2.522-6.941h-0.052l-2.6,6.604
		c-0.104,0.263,0.077,0.338,0.649,0.338H120.292L120.292,125.152z"></path>
</g>

</svg>

