<?xml version="1.0" encoding="UTF-8" standalone="no"?>
<!-- Generator: Adobe Illustrator 15.1.0, SVG Export Plug-In . SVG Version: 6.00 Build 0)  -->

<svg version="1.1" id="svg3857" inkscape:version="0.47 r22583" xmlns:inkscape="http://www.inkscape.org/namespaces/inkscape" sodipodi:docname="Wikipedia-logo.svg" xmlns:sodipodi="http://sodipodi.sourceforge.net/DTD/sodipodi-0.dtd" xmlns:svg="http://www.w3.org/2000/svg" xmlns:rdf="http://www.w3.org/1999/02/22-rdf-syntax-ns#" xmlns:cc="http://creativecommons.org/ns#" xmlns:dc="http://purl.org/dc/elements/1.1/" xmlns="http://www.w3.org/2000/svg" xmlns:xlink="http://www.w3.org/1999/xlink" x="0px" y="0px" width="135px" height="155px" viewBox="0 0 135 155" enable-background="new 0 0 135 155" xml:space="preserve">
<defs>
	
	
		<inkscape:perspective id="perspective4854" sodipodi:type="inkscape:persp3d" inkscape:vp_z="135 : 77.5 : 1" inkscape:vp_y="0 : 1000 : 0" inkscape:vp_x="0 : 77.5 : 1" inkscape:persp3d-origin="67.5 : 51.666667 : 1">
		</inkscape:perspective>
	
		<inkscape:perspective id="perspective10537" sodipodi:type="inkscape:persp3d" inkscape:vp_z="1 : 0.5 : 1" inkscape:vp_y="0 : 1000 : 0" inkscape:vp_x="0 : 0.5 : 1" inkscape:persp3d-origin="0.5 : 0.33333333 : 1">
		</inkscape:perspective>
</defs>
<sodipodi:namedview id="namedview4848" showgrid="false" pagecolor="#ffffff" objecttolerance="10" guidetolerance="10" inkscape:cy="145.31128" inkscape:guide-bbox="true" showguides="true" inkscape:zoom="5.6568543" inkscape:pageopacity="0" gridtolerance="10" inkscape:window-height="730" bordercolor="#666666" inkscape:window-y="24" borderopacity="1" inkscape:pageshadow="2" inkscape:window-x="32" inkscape:window-width="1198" inkscape:cx="92.577797" inkscape:current-layer="svg3857" inkscape:window-maximized="0">
	<sodipodi:guide id="globe_top" orientation="0,1" position="0,140"></sodipodi:guide>
	<sodipodi:guide id="globe_left" orientation="1,0" position="16,0"></sodipodi:guide>
	<sodipodi:guide id="globe_right" orientation="1,0" position="119,0"></sodipodi:guide>
	<sodipodi:guide id="globe_bottom" orientation="0,1" position="0,47"></sodipodi:guide>
	<sodipodi:guide id="wordmark_top" orientation="0,1" position="8,40"></sodipodi:guide>
	<sodipodi:guide id="wordmark_bottom" orientation="0,1" position="8,22.5"></sodipodi:guide>
	<sodipodi:guide id="subtitle_top" orientation="0,1" position="0,17"></sodipodi:guide>
	<sodipodi:guide id="subtitle_bottom" orientation="0,1" position="0,8"></sodipodi:guide>
	<sodipodi:guide id="wordmark_left" orientation="1,0" position="8,40"></sodipodi:guide>
	<sodipodi:guide id="wordmark_right" orientation="1,0" position="127,40"></sodipodi:guide>
</sodipodi:namedview>
<g id="The_Free_Encyclopedia">
	<path id="path3861" d="M17.767,142.329c0,0.183,0.083,0.048,0.127,0c0.793-0.884,1.416-1.054,2.054-1.054
		c0.455,0,0.861,0.156,1.079,0.44c0.303,0.396,0.351,1.027,0.351,1.742v1.938c0,1.064,0.143,1.119,0.871,1.184
		c0.065,0.078,0.065,0.352,0,0.43c-0.559-0.014-0.845-0.025-1.378-0.025c-0.52,0-0.78,0.014-1.326,0.025
		c-0.065-0.078-0.065-0.352,0-0.43c0.676-0.064,0.806-0.117,0.806-1.184v-1.978c0-0.39-0.026-0.743-0.156-1.001
		c-0.151-0.298-0.424-0.468-0.689-0.468c-0.512,0-1.014,0.28-1.508,0.767c-0.104,0.113-0.221,0.273-0.221,0.549v2.131
		c0,1.08,0.117,1.131,0.777,1.184c0.078,0.078,0.078,0.352,0,0.43c-0.547-0.014-0.777-0.025-1.285-0.025
		c-0.559,0-0.892,0.014-1.427,0.025c-0.078-0.078-0.078-0.352,0-0.43c0.754-0.053,0.907-0.104,0.907-1.184v-5.683
		c0-0.299,0-0.598-0.91-0.598h-1.651c-0.468,0-0.598,0.233-0.598,0.676v5.604c0,1.08,0.221,1.145,1.261,1.184
		c0.078,0.078,0.078,0.352,0,0.43c-0.65-0.014-1.105-0.025-1.807-0.025c-0.715,0-1.183,0.014-1.82,0.025
		c-0.078-0.078-0.078-0.352,0-0.43c1.04-0.039,1.261-0.104,1.261-1.184v-5.644c0-0.401-0.13-0.637-0.598-0.637h-1.092
		c-0.715,0-0.884,0.155-1.144,1.194l-0.39-0.063c0.156-0.688,0.234-1.365,0.286-2.002l0.351,0.052c0,0.078,0,0.301,0.273,0.301
		h5.174c1.099,0,1.261-0.099,2.314-0.688c0.104,0,0.156,0.039,0.156,0.13c0,0-0.037,0.455-0.039,1.3L17.767,142.329z"></path>
	<path id="path3863" d="M27.684,145.982c-0.52,0.676-1.222,1.131-2.21,1.131c-0.936,0-1.547-0.312-1.989-0.832
		c-0.429-0.494-0.611-1.196-0.611-1.924c0-1.979,1.469-3.058,2.6-3.058c1.807,0,2.197,1.173,2.197,2.265
		c0,0.143-0.091,0.221-0.247,0.221l-3.458-0.025c0,0.754,0.156,1.352,0.416,1.78c0.403,0.663,0.949,0.937,1.417,0.937
		c0.754,0,1.131-0.207,1.612-0.701C27.567,145.787,27.645,145.854,27.684,145.982z M26.358,143.277
		c0.143-0.002,0.195-0.064,0.195-0.183c0-1.093-0.585-1.364-1.079-1.364c-0.312,0-1.222,0.117-1.469,1.586L26.358,143.277z"></path>
	<path id="path3865" d="M33.089,142.784v2.612c0,1.08,0.221,1.145,1.131,1.184c0.078,0.078,0.078,0.352,0,0.43
		c-0.65-0.014-1.027-0.025-1.677-0.025c-0.663,0-1.053,0.014-1.69,0.025c-0.078-0.078-0.078-0.352,0-0.43
		c0.91-0.039,1.131-0.104,1.131-1.184v-5.213c0-1.078-0.221-1.146-1.131-1.185c-0.078-0.078-0.078-0.353,0-0.431
		c0.65,0.015,1.677,0.025,1.677,0.025h3.319c0.308,0,0.384-0.008,0.611-0.052c0.031,0,0.046,0.009,0.052,0.039
		c0.018,0.099,0.214,1.353,0.282,1.885l-0.403,0.065c-0.286-0.897-0.494-1.417-1.469-1.417h-1.365c-0.312,0-0.468,0.13-0.468,0.442
		v2.729h1.209c1.105,0,1.144-0.169,1.183-0.885c0.078-0.077,0.351-0.077,0.429,0c-0.013,0.391-0.026,0.677-0.026,1.119
		c0,0.439,0.013,0.688,0.026,1.144c-0.078,0.078-0.351,0.078-0.429,0c-0.039-0.585-0.078-0.884-1.183-0.884h-1.209V142.784z"></path>
	<path id="path3867" d="M37.327,141.979c-0.052-0.078-0.052-0.285-0.026-0.362c0.897-0.117,1.417-0.234,1.781-0.377
		c0.104,0,0.169,0.038,0.169,0.091c0,0-0.065,0.624-0.065,1.04c0,0.063,0.039,0.13,0.117-0.015c0.299-0.506,0.832-1.078,1.443-1.078
		c0.546,0,0.78,0.375,0.78,0.623c0,0.326-0.299,0.649-0.611,0.649c-0.273,0-0.403-0.247-0.533-0.377
		c-0.078-0.077-0.182-0.091-0.273-0.091c-0.156,0-0.455,0.43-0.598,0.637c-0.156,0.234-0.312,0.533-0.312,0.871v1.809
		c0,1.078,0.156,1.117,1.066,1.184c0.078,0.078,0.078,0.354,0,0.43c-0.559-0.014-1.04-0.025-1.573-0.025
		c-0.52,0-0.936,0.014-1.482,0.025c-0.078-0.076-0.078-0.352,0-0.43c0.806-0.053,0.962-0.104,0.962-1.184v-2.534
		C38.172,142.146,38.029,142.043,37.327,141.979z"></path>
	<path id="path3869" d="M46.843,145.982c-0.52,0.676-1.222,1.131-2.21,1.131c-0.936,0-1.547-0.312-1.989-0.832
		c-0.429-0.494-0.611-1.196-0.611-1.924c0-1.979,1.469-3.058,2.6-3.058c1.807,0,2.197,1.173,2.197,2.265
		c0,0.143-0.091,0.221-0.247,0.221l-3.458-0.025c0,0.754,0.156,1.352,0.416,1.78c0.403,0.663,0.949,0.937,1.417,0.937
		c0.754,0,1.131-0.207,1.612-0.701C46.726,145.787,46.804,145.854,46.843,145.982z M45.517,143.277
		c0.143-0.002,0.195-0.064,0.195-0.183c0-1.093-0.585-1.364-1.079-1.364c-0.312,0-1.222,0.117-1.469,1.586L45.517,143.277z"></path>
	<path id="path3871" d="M52.693,145.982c-0.52,0.676-1.222,1.131-2.21,1.131c-0.936,0-1.547-0.312-1.989-0.832
		c-0.429-0.494-0.611-1.196-0.611-1.924c0-1.979,1.469-3.058,2.6-3.058c1.807,0,2.197,1.173,2.197,2.265
		c0,0.143-0.091,0.221-0.247,0.221l-3.458-0.025c0,0.754,0.156,1.352,0.416,1.78c0.403,0.663,0.949,0.937,1.417,0.937
		c0.754,0,1.131-0.207,1.612-0.701C52.576,145.787,52.654,145.854,52.693,145.982z M51.367,143.277
		c0.143-0.002,0.195-0.064,0.195-0.183c0-1.093-0.585-1.364-1.079-1.364c-0.312,0-1.222,0.117-1.469,1.586L51.367,143.277z"></path>
	<path id="path3873" d="M60.465,141.406c0.078-0.078,0.351-0.078,0.429,0c-0.013,0.39-0.026,0.676-0.026,1.117
		c0,0.44,0.013,0.688,0.026,1.145c-0.078,0.078-0.351,0.078-0.429,0c-0.039-0.585-0.078-0.884-1.183-0.884h-1.183v3.133
		c0,0.353,0.182,0.56,0.468,0.56h1.768c0.988,0,1.443-0.768,1.703-1.703c0.17-0.041,0.32-0.012,0.455,0.064
		c-0.104,0.663-0.299,1.521-0.481,2.172c0,0-1.04-0.025-1.664-0.025h-2.795c0,0-1.053,0.014-1.69,0.025
		c-0.078-0.078-0.078-0.352,0-0.43c0.91-0.039,1.131-0.104,1.131-1.184v-5.213c0-1.078-0.221-1.146-1.131-1.185
		c-0.078-0.078-0.078-0.353,0-0.431c0.65,0.015,1.677,0.025,1.677,0.025h3.315c0.312,0,0.416-0.013,0.637-0.052
		c0.039,0,0.052,0.013,0.052,0.039c0.026,0.104,0.221,1.353,0.286,1.885c-0.127,0.062-0.268,0.089-0.429,0.065
		c-0.286-0.897-0.494-1.417-1.469-1.417h-1.365c-0.312,0-0.468,0.26-0.468,0.571v2.601h1.183
		C60.387,142.29,60.426,142.121,60.465,141.406z"></path>
	<path id="path3875" d="M67.264,141.275c0.455,0,0.857,0.156,1.078,0.44c0.301,0.403,0.352,1.027,0.352,1.742v1.938
		c0,1.064,0.145,1.119,0.871,1.184c0.064,0.078,0.064,0.352,0,0.43c-0.559-0.014-0.846-0.025-1.377-0.025
		c-0.521,0-0.779,0.014-1.327,0.025c-0.065-0.078-0.065-0.352,0-0.43c0.676-0.064,0.806-0.117,0.806-1.184v-1.978
		c0-0.39-0.026-0.74-0.156-1.001c-0.156-0.299-0.429-0.468-0.689-0.468c-0.507,0-1.014,0.284-1.508,0.767
		c-0.104,0.117-0.221,0.273-0.221,0.549v2.131c0,1.064,0.117,1.119,0.78,1.184c0.078,0.078,0.078,0.352,0,0.43
		c-0.546-0.014-0.78-0.025-1.287-0.025c-0.559,0-0.897,0.014-1.43,0.025c-0.078-0.078-0.078-0.352,0-0.43
		c0.78-0.064,0.91-0.117,0.91-1.184v-2.535c0-0.754-0.143-0.818-0.845-0.883c-0.026-0.078-0.052-0.287-0.026-0.364
		c0.897-0.117,1.43-0.234,1.794-0.378c0.104,0,0.156,0.039,0.156,0.104c0,0-0.065,0.6-0.065,0.988c0,0.183,0.091,0.052,0.13,0
		C66.002,141.445,66.626,141.275,67.264,141.275L67.264,141.275z"></path>
	<path id="path3877" d="M72.789,147.113c-1.639,0-2.574-1.157-2.574-2.834c0-1.846,1.379-3.004,2.666-3.004
		c1.248,0,1.988,0.521,1.988,1.234c0,0.402-0.363,0.571-0.637,0.571c-0.274,0-0.453-0.117-0.494-0.468
		c-0.053-0.455-0.156-0.91-0.924-0.91c-0.857,0-1.482,0.857-1.482,2.288c0,1.521,0.795,2.481,1.742,2.481
		c0.561,0,1.119-0.285,1.561-0.856c0.117,0.013,0.221,0.063,0.273,0.183C74.258,146.866,73.568,147.113,72.789,147.113
		L72.789,147.113z"></path>
	<path id="path3879" d="M76.625,150c-0.352,0-0.611-0.209-0.611-0.48c0-0.17,0.195-0.561,0.572-0.561
		c0.143,0,0.193,0.039,0.377,0.039c0.324,0,0.506-0.116,0.648-0.377c0.195-0.402,0.354-0.762,0.508-1.195
		c0.131-0.363-0.068-0.961-0.182-1.223l-1.473-3.419c-0.354-0.828-0.459-0.923-1.023-0.976c-0.078-0.078-0.078-0.353,0-0.431
		c0.26,0.015,0.609,0.024,1.053,0.024c0.469,0,0.988-0.012,1.469-0.024c0.078,0.078,0.078,0.353,0,0.431
		c-0.797,0.062-0.66,0.297-0.426,0.846l1.152,2.703c0.109,0.259,0.221,0.224,0.311,0.014l1.291-2.977
		c0.203-0.473-0.215-0.547-0.625-0.586c-0.078-0.078-0.078-0.353,0-0.431c0.48,0.015,0.729,0.024,1.184,0.024
		c0.363,0,0.6-0.012,0.922-0.024c0.078,0.078,0.078,0.353,0,0.431c-0.479,0.039-0.869,0.455-1.053,0.832
		c-0.688,1.455-1.256,2.797-2.301,5.305c-0.16,0.385-0.33,0.757-0.533,1.117C77.418,149.896,76.896,150,76.625,150z"></path>
	<path id="path3881" d="M84.826,147.113c-1.637,0-2.572-1.157-2.572-2.834c0-1.846,1.377-3.004,2.664-3.004
		c1.248,0,1.988,0.521,1.988,1.234c0,0.402-0.363,0.571-0.637,0.571c-0.271,0-0.453-0.117-0.494-0.468
		c-0.051-0.455-0.154-0.91-0.922-0.91c-0.859,0-1.482,0.857-1.482,2.288c0,1.521,0.793,2.481,1.742,2.481
		c0.559,0,1.117-0.285,1.561-0.856c0.117,0.013,0.221,0.063,0.271,0.183C86.297,146.866,85.607,147.113,84.826,147.113
		L84.826,147.113z"></path>
	<path id="path3883" d="M88.455,139.716c0-1.092-0.156-1.026-0.832-1.065c-0.078-0.076-0.105-0.284-0.078-0.391
		c0.52-0.039,1.494-0.221,1.82-0.351c0.115,0,0.168,0.039,0.168,0.13c0,0-0.053,0.52-0.053,1.365v5.992
		c0,1.08,0.145,1.145,0.938,1.184c0.078,0.078,0.078,0.352,0,0.43c-0.561-0.014-0.885-0.025-1.443-0.025
		c-0.572,0-0.91,0.014-1.457,0.025c-0.078-0.078-0.078-0.352,0-0.43c0.793-0.039,0.938-0.104,0.938-1.184L88.455,139.716
		L88.455,139.716z"></path>
	<path id="path3885" d="M93.887,141.275c2.016,0,2.73,1.574,2.73,2.926c0,1.3-0.818,2.912-2.756,2.912
		c-1.834,0-2.73-1.469-2.73-2.795C91.131,142.667,92.133,141.275,93.887,141.275z M92.25,144.02c0,1.002,0.494,2.666,1.846,2.666
		c0.611,0,1.404-0.353,1.404-2.066c0-1.911-0.637-2.912-1.756-2.912C92.652,141.705,92.25,142.889,92.25,144.02z"></path>
	<path id="path3887" d="M101.051,141.275c1.326,0,2.301,1.272,2.301,2.651c0,1.054-0.352,1.858-0.963,2.457
		c-0.533,0.509-1.182,0.729-1.91,0.729c-0.41,0-0.812-0.072-1.131-0.201c-0.133-0.055-0.182-0.071-0.182,0.098v1.403
		c0,1.079,0.143,1.132,1.064,1.185c0.078,0.077,0.078,0.352,0,0.428C99.672,150.014,99.27,150,98.658,150
		c-0.572,0-0.91,0.014-1.455,0.025c-0.078-0.078-0.078-0.353,0-0.431c0.793-0.038,0.936-0.104,0.936-1.184v-5.552
		c0-0.74-0.143-0.818-0.846-0.885c-0.025-0.078-0.053-0.285-0.025-0.363c0.896-0.116,1.404-0.233,1.77-0.377
		c0.104,0,0.17,0.039,0.17,0.092c0,0-0.055,0.363-0.055,0.832c0,0.093,0.076,0.081,0.117,0.039
		C99.854,141.602,100.568,141.275,101.051,141.275L101.051,141.275z M99.166,143.2v2.418c0,0.47,0.051,0.545,0.311,0.778
		c0.234,0.209,0.689,0.273,0.924,0.273c1.455,0,1.832-1.326,1.832-2.395c0-1.469-0.715-2.403-1.547-2.403
		c-0.379,0-0.91,0.338-1.312,0.754C99.207,142.8,99.166,142.928,99.166,143.2z"></path>
	<path id="path3889" d="M109.176,145.982c-0.52,0.676-1.223,1.131-2.211,1.131c-0.936,0-1.547-0.312-1.988-0.832
		c-0.43-0.494-0.609-1.196-0.609-1.924c0-1.979,1.469-3.058,2.6-3.058c1.811,0,2.197,1.173,2.197,2.265
		c0,0.143-0.09,0.221-0.246,0.221l-3.459-0.025c0,0.754,0.154,1.352,0.416,1.78c0.402,0.663,0.949,0.937,1.418,0.937
		c0.754,0,1.131-0.207,1.609-0.701C109.059,145.787,109.137,145.854,109.176,145.982z M107.85,143.277
		c0.145-0.002,0.195-0.064,0.195-0.183c0-1.093-0.586-1.364-1.08-1.364c-0.311,0-1.221,0.117-1.469,1.586L107.85,143.277z"></path>
	<path id="path3891" d="M112.426,147.113c-1.404,0-2.211-1.17-2.211-2.771c0-0.963,0.338-1.729,0.898-2.286
		c0.52-0.494,1.092-0.781,1.949-0.781c0.43,0,0.963,0.222,1.014,0.222c0.092,0,0.117-0.026,0.117-0.117v-1.664
		c0-1.092-0.156-1.026-0.832-1.065c-0.078-0.076-0.104-0.284-0.078-0.391c0.52-0.039,1.482-0.221,1.807-0.351
		c0.117,0,0.17,0.039,0.17,0.13c0,0-0.053,0.52-0.053,1.365v5.889c0,0.639,0.117,0.885,0.949,0.949c0.078,0.078,0.078,0.273,0,0.352
		c-0.793,0.092-1.377,0.285-1.664,0.521c-0.104,0.025-0.195,0.037-0.299,0c0,0,0.014-0.639,0.014-0.768
		c0-0.092-0.094-0.067-0.156-0.019C113.414,146.854,112.934,147.113,112.426,147.113L112.426,147.113z M114.193,142.9
		c0-0.402-0.039-0.493-0.221-0.701c-0.262-0.299-0.586-0.469-1.055-0.469c-0.26,0-0.809,0.039-1.209,0.648
		c-0.193,0.271-0.377,0.793-0.377,1.729c0,1.625,0.729,2.393,1.432,2.393c0.322,0,0.738-0.208,1.223-0.624
		c0.184-0.158,0.207-0.26,0.207-0.507V142.9z"></path>
	<path id="path3893" d="M119.51,146.58c0.078,0.078,0.078,0.352,0,0.43c-0.559-0.014-0.885-0.025-1.443-0.025
		c-0.57,0-0.908,0.014-1.457,0.025c-0.074-0.078-0.074-0.352,0-0.43c0.793-0.064,0.938-0.104,0.938-1.184v-2.535
		c0-0.74-0.137-0.816-0.846-0.883c-0.025-0.078-0.054-0.287-0.025-0.364c0.896-0.117,1.41-0.234,1.781-0.378
		c0.104,0,0.168,0.039,0.168,0.092c0,0-0.051,0.832-0.051,1.479v2.592C118.574,146.477,118.717,146.527,119.51,146.58L119.51,146.58
		z M118.066,138.572c0.352,0,0.623,0.363,0.623,0.676c0,0.273-0.312,0.624-0.676,0.624c-0.312,0-0.623-0.338-0.623-0.677
		C117.391,138.884,117.754,138.572,118.066,138.572z"></path>
	<path id="path3895" d="M123.475,146.359l-0.26,0.207c-0.572,0.441-0.82,0.547-1.418,0.547c-0.91,0-1.639-0.377-1.639-1.404
		c0-0.884,0.898-1.572,2.146-1.885l1.115-0.273c0.039-0.013,0.078-0.064,0.078-0.154c0-1.471-0.609-1.689-1.055-1.689
		c-0.492,0-1.078,0.145-1.078,0.546c0,0.146,0.014,0.224,0.025,0.263c0.025,0.051,0.039,0.143,0.039,0.231
		c0,0.169-0.195,0.429-0.572,0.429c-0.299,0-0.455-0.143-0.455-0.455c0-0.699,1.078-1.441,2.146-1.441
		c0.949,0,1.965,0.352,1.965,2.197v1.938c0,0.6,0.014,1.105,0.52,1.105c0.273,0,0.328-0.209,0.404-0.209
		c0.051,0,0.168,0.131,0.168,0.222c0,0.063-0.467,0.585-1.104,0.585c-0.694,0-0.924-0.48-1.002-0.754h-0.024V146.359z
		 M122.473,144.229c-0.959,0.254-1.234,0.846-1.234,1.431c0,0.401,0.285,0.923,0.938,0.923c0.363,0,0.809-0.286,1.146-0.561
		c0.104-0.078,0.182-0.168,0.182-0.338v-1.729L122.473,144.229z"></path>
</g>
<g id="Wikipedia">
	<path id="path3898" d="M18.757,118.893c0,0-0.367-0.746-0.492-0.994c-0.834-1.652-0.816-1.74-1.659-1.852
		c-0.236-0.031-0.358-0.061-0.358-0.178v-0.523l0.071-0.051c1.523-0.002,4.912-0.002,4.912-0.002l0.13,0.043v0.521
		c0,0.119-0.085,0.18-0.258,0.18l-0.356,0.051c-0.9,0.07-0.753,0.438-0.155,1.629l5.677,11.615l0.194,0.053l5.04-11.961
		c0.175-0.482,0.148-0.824-0.077-1.025c-0.226-0.195-0.385-0.312-0.969-0.336l-0.473-0.023c-0.058,0-0.113-0.021-0.166-0.061
		c-0.052-0.037-0.079-0.086-0.079-0.145v-0.498l0.072-0.051c1.42,0,5.694,0,5.694,0l0.058,0.051v0.498
		c0,0.135-0.077,0.203-0.229,0.203c-0.746,0.033-1.299,0.195-1.657,0.484c-0.359,0.291-0.639,0.691-0.84,1.213
		c0,0-4.635,10.608-6.221,14.135c-0.607,1.156-1.204,1.05-1.729-0.033c-1.109-2.284-4.232-9.213-4.232-9.213L18.757,118.893z"></path>
	<path id="path3900" d="M27.853,115.287c0,0-3.203-0.01-4.629,0l-0.071,0.051v0.496c0,0.061,0.026,0.109,0.078,0.146
		c0.053,0.039,0.107,0.059,0.165,0.059l0.229,0.025c0.583,0.023,0.851,0.177,0.931,0.272c0.139,0.17,0.208,0.354-0.129,1.089
		l-5.98,11.928l-0.157-0.041c0,0-4.283-9.031-5.523-12.053c-0.129-0.312-0.187-0.545-0.187-0.688c0-0.307,0.277-0.473,0.831-0.496
		l0.646-0.027c0.171,0,0.258-0.066,0.258-0.203v-0.496l-0.058-0.051c0,0-5.13-0.006-6.19,0l-0.058,0.051v0.521
		c0,0.094,0.119,0.152,0.358,0.178c0.651,0.035,1.079,0.139,1.285,0.312c0.205,0.175,0.422,0.617,0.71,1.306
		c1.557,3.74,4.865,10.414,6.476,14.215c0.464,1.038,1.047,1.199,1.755-0.032c1.226-2.273,4.55-9.218,4.55-9.218l2.618-4.896
		c0.305-0.518,0.599-0.979,0.748-1.193c0.273-0.393,0.426-0.467,1.172-0.502c0.152,0,0.229-0.068,0.229-0.205v-0.496L27.853,115.287
		z"></path>
	<path id="path3904" d="M37.592,130.77c0,0.572,0.26,0.91,1.092,0.988l0.546,0.053c0.078,0,0.156,0.051,0.156,0.155v0.546
		l-0.026,0.053c0,0-1.976-0.053-2.782-0.053c-0.728,0-2.756,0.053-2.756,0.053l-0.052-0.053v-0.546c0-0.104,0.078-0.155,0.182-0.155
		l0.52-0.053c0.858-0.078,1.118-0.494,1.118-0.988v-8.658c0-0.57-0.313-0.729-1.118-0.805l-0.52-0.054
		c-0.104,0-0.182-0.024-0.182-0.104v-0.599l0.026-0.052c0,0,2.054,0.052,2.86,0.052c0.702,0,2.704-0.052,2.704-0.052l0.026,0.052
		v0.572c0,0.078-0.052,0.13-0.156,0.13l-0.546,0.053c-0.806,0.077-1.092,0.286-1.092,0.807V130.77z"></path>
	<path id="path3906" d="M45.265,130.77c0,0.572,0.338,0.858,1.092,0.988l0.286,0.053c0.078,0.025,0.156,0.051,0.156,0.155v0.546
		l-0.026,0.053c0,0-1.638-0.053-2.418-0.053c-0.728,0-2.86,0.053-2.86,0.053l-0.052-0.053v-0.546c0-0.104,0.078-0.155,0.182-0.155
		l0.52-0.053c0.78-0.078,1.118-0.494,1.118-0.988v-8.658c0-0.57-0.286-0.729-1.118-0.805l-0.52-0.054
		c-0.104,0-0.182-0.024-0.182-0.104v-0.599l0.026-0.052c0,0,2.132,0.052,2.938,0.052c0.729,0,2.366-0.052,2.366-0.052l0.026,0.052
		v0.572c0,0.078-0.052,0.104-0.156,0.13l-0.286,0.053c-0.806,0.155-1.092,0.286-1.092,0.807v3.927c0.858,0,1.352-0.44,2.496-1.664
		c1.04-1.146,1.846-2.104,1.846-2.601c0-0.209-0.234-0.441-0.754-0.521c-0.104-0.024-0.156-0.052-0.156-0.13v-0.6l0.026-0.024
		c0,0,2.106,0.052,2.86,0.052c0.676,0,1.82-0.052,1.82-0.052l0.078,0.024v0.6c0,0.078-0.078,0.13-0.208,0.13
		c-1.014,0.078-1.716,0.13-2.652,1.196l-2.236,2.572c-0.442,0.47-0.598,0.754-0.598,0.963c0,0.156,0.104,0.285,0.234,0.441
		l3.926,4.732c0.312,0.363,0.936,0.52,1.456,0.623l0.13,0.025c0.078,0.025,0.182,0.077,0.182,0.155v0.546l-0.078,0.026
		c0,0-1.378-0.026-2.106-0.026c-0.65,0-1.586,0.026-1.586,0.026l-0.026-0.026v-0.312c0-0.339-0.026-0.623-0.39-1.039l-2.886-3.589
		c-0.39-0.521-0.806-0.649-1.378-0.649V130.77L45.265,130.77z"></path>
	<path id="path3908" d="M59.282,130.77c0,0.572,0.26,0.91,1.092,0.988l0.546,0.053c0.078,0,0.156,0.051,0.156,0.155v0.546
		l-0.026,0.053c0,0-1.976-0.053-2.782-0.053c-0.728,0-2.756,0.053-2.756,0.053l-0.052-0.053v-0.546c0-0.104,0.078-0.155,0.182-0.155
		l0.52-0.053c0.858-0.078,1.118-0.494,1.118-0.988v-8.658c0-0.57-0.312-0.729-1.118-0.805l-0.52-0.054
		c-0.104,0-0.182-0.024-0.182-0.104v-0.599l0.026-0.052c0,0,2.054,0.052,2.86,0.052c0.702,0,2.704-0.052,2.704-0.052l0.026,0.052
		v0.572c0,0.078-0.052,0.13-0.156,0.13l-0.546,0.053c-0.806,0.077-1.092,0.286-1.092,0.807V130.77z"></path>
	<path id="path3910" d="M64.9,122.163c0-0.806-0.338-0.832-1.56-0.91c-0.156,0-0.182-0.077-0.182-0.13v-0.598l0.052-0.026
		c0.39,0,1.924,0.052,2.678,0.052c0.728,0,1.768-0.052,2.73-0.052c3.69,0,4.366,1.819,4.366,3.173c0,1.561-0.754,4.004-4.444,4.004
		c-0.65,0-1.17-0.053-1.639-0.26v3.482c0,0.571,0.312,0.703,1.145,0.832l0.521,0.078c0.104,0.025,0.183,0.053,0.183,0.155v0.546
		l-0.024,0.053c0,0-2.081-0.053-2.887-0.053c-0.728,0-2.678,0.053-2.678,0.053l-0.026-0.053v-0.546c0-0.104,0.052-0.13,0.156-0.155
		l0.546-0.078c0.806-0.104,1.066-0.338,1.066-0.832L64.9,122.163L64.9,122.163L64.9,122.163z M66.902,126.688
		c0.52,0.209,1.17,0.234,1.69,0.234c1.561,0,2.312-0.938,2.312-2.938c0-2.236-1.014-2.73-2.442-2.73
		c-1.249,0-1.561,0.234-1.561,0.91L66.902,126.688L66.902,126.688z"></path>
	<path id="path3912" d="M77.462,132.512c-0.78,0-2.573,0.053-2.573,0.053l-0.027-0.053v-0.572c0-0.051,0.027-0.129,0.156-0.129
		l0.6-0.053c0.807-0.078,1.041-0.598,1.041-1.117v-8.58c0-0.6-0.312-0.703-1.041-0.754l-0.6-0.054
		c-0.156-0.024-0.156-0.077-0.156-0.104v-0.599l0.027-0.052c0,0,2.027,0.052,2.807,0.052h3.822c0.78,0,2.627-0.052,2.627-0.052
		l0.054,0.052c0.024,1.118,0.206,2.134,0.39,3.121l-0.648,0.104c-0.285-0.963-0.779-2.34-2.443-2.34h-2.08
		c-0.494,0-0.754,0.182-0.754,0.623v3.771h1.949c0.729,0,0.91-0.312,1.015-0.832l0.155-0.546c0-0.078,0.053-0.131,0.156-0.131h0.44
		c0.054,0,0.054,0.027,0.054,0.078c-0.054,0.571-0.156,1.301-0.156,1.925c0,0.649,0.104,1.196,0.156,1.794l-0.054,0.053h-0.44
		c-0.129,0-0.184-0.053-0.184-0.131l-0.13-0.571c-0.104-0.521-0.338-0.807-1.017-0.807H78.66v3.979c0,0.492,0.283,0.986,0.754,0.986
		h2.47c1.326,0,2.056-0.832,2.366-2.186l0.648,0.078l-0.521,2.989l-0.052,0.052c0,0-1.534-0.052-2.314-0.052L77.462,132.512
		L77.462,132.512L77.462,132.512z"></path>
	<path id="path3914" d="M87.24,131.811l0.598-0.053c0.781-0.078,1.041-0.312,1.041-1.117v-8.58c0-0.678-0.184-0.678-1.041-0.754
		l-0.57-0.054c-0.104,0-0.184-0.052-0.184-0.13v-0.572l0.025-0.052c0,0,2.289,0.052,2.758,0.052c0.492,0,2.756-0.052,3.432-0.052
		c4.342,0,6.475,2.704,6.475,6.162c0,4.551-3.225,5.901-6.109,5.901c-2.08,0-2.989-0.053-3.795-0.053
		c-0.781,0-2.758,0.053-2.758,0.053l-0.025-0.053v-0.546C87.084,131.889,87.137,131.811,87.24,131.811z M93.039,131.811
		c2.859,0,4.473-1.064,4.473-4.707c0-2.703-0.599-5.851-4.967-5.851c-1.014,0-1.664,0.156-1.664,0.808v8.58
		C90.881,131.367,91.062,131.811,93.039,131.811z"></path>
	<path id="path3916" d="M105.912,130.77c0,0.572,0.26,0.91,1.092,0.988l0.546,0.053c0.078,0,0.156,0.051,0.156,0.155v0.546
		l-0.026,0.053c0,0-1.976-0.053-2.781-0.053c-0.729,0-2.756,0.053-2.756,0.053l-0.053-0.053v-0.546c0-0.104,0.078-0.155,0.182-0.155
		l0.521-0.053c0.857-0.078,1.118-0.494,1.118-0.988v-8.658c0-0.57-0.313-0.729-1.118-0.805l-0.521-0.054
		c-0.104,0-0.182-0.024-0.182-0.104v-0.599l0.026-0.052c0,0,2.054,0.052,2.858,0.052c0.701,0,2.705-0.052,2.705-0.052l0.024,0.052
		v0.572c0,0.078-0.054,0.13-0.156,0.13l-0.546,0.053c-0.807,0.077-1.092,0.286-1.092,0.807L105.912,130.77L105.912,130.77
		L105.912,130.77z"></path>
	<path id="path3918" d="M113.922,131.758l0.754,0.053c0.104,0,0.208,0.078,0.208,0.207v0.494l-0.052,0.053
		c0,0-2.834-0.053-3.458-0.053c-0.677,0-2.341,0.053-2.341,0.053l-0.053-0.053v-0.494c0-0.129,0.078-0.207,0.209-0.207
		c1.145-0.078,1.793-0.287,2.521-1.951l5.771-13.521c0.285-0.676,0.494-0.937,0.886-0.937c0.362,0,0.493,0.261,0.7,0.781
		l5.33,14.092c0.365,1.015,0.886,1.404,1.926,1.508l0.285,0.025c0.131,0,0.261,0.077,0.261,0.209v0.492l-0.078,0.053
		c0,0-2.002-0.053-3.017-0.053c-0.91,0-3.459,0.053-3.459,0.053l-0.024-0.053v-0.492c0-0.132,0.052-0.209,0.185-0.209l0.728-0.053
		c0.987-0.077,1.353-0.391,1.092-1.117l-1.586-4.396H115.3c-0.624,0-0.78,0.104-0.909,0.44l-1.509,3.771
		C112.622,131.107,112.96,131.68,113.922,131.758z M120.292,125.152l-2.522-6.941h-0.052l-2.6,6.604
		c-0.104,0.262,0.077,0.338,0.649,0.338H120.292L120.292,125.152z"></path>
</g>

</svg>

