<?xml version="1.0" encoding="UTF-8" standalone="no"?>
<svg
	xmlns="http://www.w3.org/2000/svg"
	xmlns:dc="http://purl.org/dc/elements/1.1/"
	xmlns:cc="http://creativecommons.org/ns#"
	xmlns:rdf="http://www.w3.org/1999/02/22-rdf-syntax-ns#"
	xmlns:svg="http://www.w3.org/2000/svg"
	xmlns:xlink="http://www.w3.org/1999/xlink"
	xmlns:sodipodi="http://sodipodi.sourceforge.net/DTD/sodipodi-0.dtd"
	xmlns:inkscape="http://www.inkscape.org/namespaces/inkscape"
	version="1.1"
	viewBox="0 0 135px 155px">
	<svg xmlns:dc="http://purl.org/dc/elements/1.1/" xmlns:cc="http://creativecommons.org/ns#" xmlns:rdf="http://www.w3.org/1999/02/22-rdf-syntax-ns#" xmlns:svg="http://www.w3.org/2000/svg" xmlns:xlink="http://www.w3.org/1999/xlink" xmlns:sodipodi="http://sodipodi.sourceforge.net/DTD/sodipodi-0.dtd" xmlns:inkscape="http://www.inkscape.org/namespaces/inkscape" version="1.1" x="0px" y="0px" width="135px" height="155px" viewBox="0 0 135 155" enable-background="new 0 0 135 155" xml:space="preserve" id="svg3857" inkscape:version="0.47 r22583" sodipodi:docname="Wikipedia-logo-v2-arz.svg" xmlns:svgjs="http://svgjs.com/svgjs"><metadata id="metadata4852"><rdf:RDF><cc:Work rdf:about=""><dc:format>image/svg+xml</dc:format><dc:type rdf:resource="http://purl.org/dc/dcmitype/StillImage"></dc:type><dc:title></dc:title></cc:Work></rdf:RDF></metadata><defs id="defs4850"><inkscape:perspective sodipodi:type="inkscape:persp3d" inkscape:vp_x="0 : 77.5 : 1" inkscape:vp_y="0 : 1000 : 0" inkscape:vp_z="135 : 77.5 : 1" inkscape:persp3d-origin="67.5 : 51.666667 : 1" id="perspective4854"></inkscape:perspective>
	
		<radialGradient gradientUnits="userSpaceOnUse" gradientTransform="matrix(1,0,0,-1,192.3999,143.0996)" r="68.686401" cy="87.823196" cx="-145.4702" id="SVGID_1_">
		<stop id="stop3922" offset="0" style="stop-color:#FFFFFF"></stop>
		<stop id="stop3924" offset="0.4835" style="stop-color:#EAEAEB"></stop>
		<stop id="stop3926" offset="0.9451" style="stop-color:#A9ABAE"></stop>
		<stop id="stop3928" offset="1" style="stop-color:#999B9E"></stop>
	</radialGradient>
	
	
	<linearGradient y2="97.232101" x2="112.7331" y1="24.481001" x1="66.232399" gradientUnits="userSpaceOnUse" id="SVGID_2_">
		<stop id="stop3935" offset="0" style="stop-color:#8A8A8A"></stop>
		<stop id="stop3937" offset="0.5687" style="stop-color:#606060"></stop>
		<stop id="stop3939" offset="0.5914" style="stop-color:#FFFFFF"></stop>
		<stop id="stop3941" offset="0.6116" style="stop-color:#585858"></stop>
		<stop id="stop3943" offset="1" style="stop-color:#303030"></stop>
	</linearGradient>
	
	
	<linearGradient y2="65.136703" x2="83.798798" y1="65.136703" x1="54.715801" gradientUnits="userSpaceOnUse" id="SVGID_5_">
		<stop id="stop3964" offset="0" style="stop-color:#231F20"></stop>
		<stop id="stop3966" offset="1" style="stop-color:#474747"></stop>
	</linearGradient>
	
	
	
	
	
	
	
	
	
		<linearGradient gradientTransform="matrix(1,0,0,-1,192.3999,143.0996)" y2="29.9035" x2="-94.069099" y1="119.8076" x1="-123.5898" gradientUnits="userSpaceOnUse" id="SVGID_6_">
		<stop id="stop3997" offset="0" style="stop-color:#FFFFFF"></stop>
		<stop id="stop3999" offset="0.0094" style="stop-color:#FCFCFC"></stop>
		<stop id="stop4001" offset="0.0655" style="stop-color:#EEEEEE"></stop>
		<stop id="stop4003" offset="0.1342" style="stop-color:#E5E5E5"></stop>
		<stop id="stop4005" offset="0.2515" style="stop-color:#E3E3E3"></stop>
		<stop id="stop4007" offset="0.3357" style="stop-color:#8A8A8A"></stop>
		<stop id="stop4009" offset="0.4422" style="stop-color:#B8B8B8"></stop>
		<stop id="stop4011" offset="1" style="stop-color:#3B3B3B"></stop>
	</linearGradient>
	
	<linearGradient y2="87.626701" x2="119.5471" y1="26.876499" x1="70.421898" gradientUnits="userSpaceOnUse" id="SVGID_7_">
		<stop id="stop4016" offset="0" style="stop-color:#EFF0F0"></stop>
		<stop id="stop4018" offset="0.5914" style="stop-color:#F0F1F2"></stop>
		<stop id="stop4020" offset="0.599" style="stop-color:#787878"></stop>
		<stop id="stop4022" offset="0.6456" style="stop-color:#EEEFF0"></stop>
		<stop id="stop4024" offset="1" style="stop-color:#D8D9DB"></stop>
	</linearGradient>
	
	
		<linearGradient gradientTransform="matrix(1,0,0,-1,192.3999,143.0996)" y2="31.998501" x2="-87.569702" y1="122.1328" x1="-117.166" gradientUnits="userSpaceOnUse" id="SVGID_8_">
		<stop id="stop4029" offset="0" style="stop-color:#FFFFFF"></stop>
		<stop id="stop4031" offset="1" style="stop-color:#E4E5E6"></stop>
	</linearGradient>
	
	<linearGradient y2="106.3903" x2="79.683601" y1="25.2764" x1="54.653301" gradientUnits="userSpaceOnUse" id="SVGID_9_">
		<stop id="stop4036" offset="0" style="stop-color:#FFFFFF"></stop>
		<stop id="stop4038" offset="0.7473" style="stop-color:#F9F9F9"></stop>
		<stop id="stop4040" offset="1" style="stop-color:#D5D7D8"></stop>
	</linearGradient>
	
	
	
	
	
		<linearGradient gradientTransform="matrix(1,0,0,-1,192.3999,143.0996)" y2="24.6462" x2="-134.85719" y1="119.6328" x1="-115.3369" gradientUnits="userSpaceOnUse" id="SVGID_10_">
		<stop id="stop4061" offset="0" style="stop-color:#FFFFFF"></stop>
		<stop id="stop4063" offset="1" style="stop-color:#E4E5E6"></stop>
	</linearGradient>
	
	<linearGradient y2="92.496101" x2="37.2481" y1="33.077099" x1="32.519001" gradientUnits="userSpaceOnUse" id="SVGID_11_">
		<stop id="stop4068" offset="0.2198" style="stop-color:#989A9C"></stop>
		<stop id="stop4070" offset="0.2527" style="stop-color:#FFFFFF"></stop>
	</linearGradient>
	
	
		<linearGradient gradientTransform="matrix(1,0,0,-1,192.3999,143.0996)" y2="32.797901" x2="-171.9462" y1="126.8398" x1="-152.6201" gradientUnits="userSpaceOnUse" id="SVGID_12_">
		<stop id="stop4075" offset="0" style="stop-color:#FFFFFF"></stop>
		<stop id="stop4077" offset="1" style="stop-color:#E4E5E6"></stop>
	</linearGradient>
	
	
		<linearGradient gradientTransform="matrix(1,0,0,-1,192.3999,143.0996)" y2="35.585701" x2="-130.14281" y1="35.625" x1="-130.1348" gradientUnits="userSpaceOnUse" id="SVGID_13_">
		<stop id="stop4082" offset="0" style="stop-color:#FFFFFF"></stop>
		<stop id="stop4084" offset="1" style="stop-color:#E4E5E6"></stop>
	</linearGradient>
	
	
	
	
		<linearGradient gradientTransform="matrix(1,0,0,-1,192.3999,143.0996)" y2="25.888" x2="-140.54491" y1="120.3223" x1="-121.1382" gradientUnits="userSpaceOnUse" id="SVGID_14_">
		<stop id="stop4093" offset="0" style="stop-color:#FFFFFF"></stop>
		<stop id="stop4095" offset="1" style="stop-color:#E4E5E6"></stop>
	</linearGradient>
	
	
		<linearGradient gradientTransform="matrix(1,0,0,-1,192.3999,143.0996)" y2="28.8524" x2="-155.006" y1="123.3525" x1="-135.58591" gradientUnits="userSpaceOnUse" id="SVGID_15_">
		<stop id="stop4100" offset="0" style="stop-color:#FFFFFF"></stop>
		<stop id="stop4102" offset="1" style="stop-color:#E4E5E6"></stop>
	</linearGradient>
	
	
		<linearGradient gradientTransform="matrix(1,0,0,-1,192.3999,143.0996)" y2="27.1346" x2="-146.8837" y1="121.9365" x1="-127.4014" gradientUnits="userSpaceOnUse" id="SVGID_16_">
		<stop id="stop4107" offset="0" style="stop-color:#FFFFFF"></stop>
		<stop id="stop4109" offset="1" style="stop-color:#E4E5E6"></stop>
	</linearGradient>
	
	
		<linearGradient gradientTransform="matrix(1,0,0,-1,192.3999,143.0996)" y2="24.9438" x2="-138.85201" y1="124.0039" x1="-118.4946" gradientUnits="userSpaceOnUse" id="SVGID_17_">
		<stop id="stop4114" offset="0" style="stop-color:#FFFFFF"></stop>
		<stop id="stop4116" offset="1" style="stop-color:#E4E5E6"></stop>
	</linearGradient>
	
	
		<linearGradient gradientTransform="matrix(1,0,0,-1,192.3999,143.0996)" y2="24.695299" x2="-134.7878" y1="119.1758" x1="-115.3716" gradientUnits="userSpaceOnUse" id="SVGID_18_">
		<stop id="stop4121" offset="0" style="stop-color:#FFFFFF"></stop>
		<stop id="stop4123" offset="1" style="stop-color:#E4E5E6"></stop>
	</linearGradient>
	
	
	
	
	
	
	
	
	
	
	
	
		<linearGradient gradientTransform="matrix(1,0,0,-1,192.3999,143.0996)" y2="83.6045" x2="-75.6362" y1="83.6045" x1="-175.4424" gradientUnits="userSpaceOnUse" id="SVGID_21_">
		<stop id="stop4198" offset="0" style="stop-color:#555555"></stop>
		<stop id="stop4200" offset="1" style="stop-color:#231F20"></stop>
	</linearGradient>
	
	
		<linearGradient gradientTransform="matrix(1,0,0,-1,192.3999,143.0996)" y2="104.0801" x2="-83.541" y1="104.0801" x1="-175.14211" gradientUnits="userSpaceOnUse" id="SVGID_22_">
		<stop id="stop4205" offset="0" style="stop-color:#A0A0A0"></stop>
		<stop id="stop4207" offset="0.0769" style="stop-color:#656767"></stop>
		<stop id="stop4209" offset="1" style="stop-color:#717375"></stop>
	</linearGradient>
	
	
	
	
	
	
	
		<linearGradient gradientTransform="matrix(1,0,0,-1,192.3999,143.0996)" y2="78.209" x2="-172.3853" y1="78.209" x1="-172.3853" gradientUnits="userSpaceOnUse" id="SVGID_23_">
		<stop id="stop4224" offset="0" style="stop-color:#FFFFFF"></stop>
		<stop id="stop4226" offset="0.078" style="stop-color:#F4F4F4"></stop>
		<stop id="stop4228" offset="0.3807" style="stop-color:#CECECE"></stop>
		<stop id="stop4230" offset="0.5396" style="stop-color:#BFBFBF"></stop>
		<stop id="stop4232" offset="0.8357" style="stop-color:#7C7C7C"></stop>
		<stop id="stop4234" offset="0.8996" style="stop-color:#A8A8A8"></stop>
		<stop id="stop4236" offset="0.9093" style="stop-color:#9A9A9A"></stop>
		<stop id="stop4238" offset="0.9327" style="stop-color:#7D7D7D"></stop>
		<stop id="stop4240" offset="0.9558" style="stop-color:#686868"></stop>
		<stop id="stop4242" offset="0.9785" style="stop-color:#5B5B5B"></stop>
		<stop id="stop4244" offset="1" style="stop-color:#575757"></stop>
	</linearGradient>
	
	
		<linearGradient gradientTransform="matrix(1,0,0,-1,192.3999,143.0996)" y2="90.476799" x2="-67.153198" y1="78.449203" x1="-175.7173" gradientUnits="userSpaceOnUse" id="SVGID_24_">
		<stop id="stop4249" offset="0" style="stop-color:#FFFFFF"></stop>
		<stop id="stop4251" offset="0.078" style="stop-color:#F4F4F4"></stop>
		<stop id="stop4253" offset="0.3807" style="stop-color:#CECECE"></stop>
		<stop id="stop4255" offset="0.5396" style="stop-color:#BFBFBF"></stop>
		<stop id="stop4257" offset="0.8357" style="stop-color:#7C7C7C"></stop>
		<stop id="stop4259" offset="0.8996" style="stop-color:#A8A8A8"></stop>
		<stop id="stop4261" offset="0.9093" style="stop-color:#9A9A9A"></stop>
		<stop id="stop4263" offset="0.9327" style="stop-color:#7D7D7D"></stop>
		<stop id="stop4265" offset="0.9558" style="stop-color:#686868"></stop>
		<stop id="stop4267" offset="0.9785" style="stop-color:#5B5B5B"></stop>
		<stop id="stop4269" offset="1" style="stop-color:#575757"></stop>
	</linearGradient>
	
	
		<linearGradient gradientTransform="matrix(1,0,0,-1,192.3999,143.0996)" y2="92.223099" x2="-52.131699" y1="78.4795" x1="-176.1851" gradientUnits="userSpaceOnUse" id="SVGID_25_">
		<stop id="stop4274" offset="0" style="stop-color:#FFFFFF"></stop>
		<stop id="stop4276" offset="0.078" style="stop-color:#F4F4F4"></stop>
		<stop id="stop4278" offset="0.3807" style="stop-color:#CECECE"></stop>
		<stop id="stop4280" offset="0.5396" style="stop-color:#BFBFBF"></stop>
		<stop id="stop4282" offset="0.8357" style="stop-color:#7C7C7C"></stop>
		<stop id="stop4284" offset="0.8996" style="stop-color:#A8A8A8"></stop>
		<stop id="stop4286" offset="0.9093" style="stop-color:#9A9A9A"></stop>
		<stop id="stop4288" offset="0.9327" style="stop-color:#7D7D7D"></stop>
		<stop id="stop4290" offset="0.9558" style="stop-color:#686868"></stop>
		<stop id="stop4292" offset="0.9785" style="stop-color:#5B5B5B"></stop>
		<stop id="stop4294" offset="1" style="stop-color:#575757"></stop>
	</linearGradient>
	
	<linearGradient y2="51.952599" x2="117.1948" y1="71.326698" x1="21.2129" gradientUnits="userSpaceOnUse" id="SVGID_26_">
		<stop id="stop4299" offset="0" style="stop-color:#EDEDEE"></stop>
		<stop id="stop4301" offset="0.4176" style="stop-color:#FFFFFF"></stop>
		<stop id="stop4303" offset="0.6264" style="stop-color:#F8F9F9"></stop>
		<stop id="stop4305" offset="1" style="stop-color:#BFC0C2"></stop>
	</linearGradient>
	
	
	
	
	<linearGradient y2="30.732401" x2="27.9561" y1="30.732401" x1="23.471201" gradientUnits="userSpaceOnUse" id="SVGID_27_">
		<stop id="stop4316" offset="0" style="stop-color:#E2E3E4"></stop>
		<stop id="stop4318" offset="0.5055" style="stop-color:#FFFFFF"></stop>
	</linearGradient>
	
	
	
	
	
	
	
	
	
	
	
	
	
	
	
	
	
	
	
	
	
	
	
	
	
	
	
	
	
	
	
	
	
	
	
	
	
	
	
	
	
	
	
	
	
	
	
	
	
	
	
	
	
	
	
	
	
	
	
	
	
	
	
	
	
	
	
	
	
	
	
	
	
	
	
	
	
	
	
	
	
	
	
	
	
	
	
	
	
	
	
	
	
	
	
	
	
	
	
	
	
	
	
	
	
	
	
	
	
	
	
	
	
	
	
	
	
	
	
	
	
	
	
	
	
	
	
	
	
	
	
	
	
	
	
	
	
	
	
	
	
	
	
	
	
	
	
	
	
	
	
	
	
	
	
	
	
	
	
	
	
	
	
	
	
	
	
	
	
	
	
	
	
	
	
	
	
	
	<linearGradient y2="29.204" x2="111.5455" y1="49.7188" x1="22.5742" gradientUnits="userSpaceOnUse" id="SVGID_34_">
		<stop id="stop4743" offset="0" style="stop-color:#FFFFFF"></stop>
		<stop id="stop4745" offset="0.6538" style="stop-color:#FFFFFF"></stop>
		<stop id="stop4747" offset="1" style="stop-color:#CBCCCE"></stop>
	</linearGradient>
	
	
	
	
	
	
	
	
		<linearGradient gradientTransform="matrix(1,0,0,-1,192.3999,143.0996)" y2="107.0898" x2="-126.4229" y1="107.0898" x1="-158.8101" gradientUnits="userSpaceOnUse" id="SVGID_35_">
		<stop id="stop4770" offset="0" style="stop-color:#696969"></stop>
		<stop id="stop4772" offset="0.3702" style="stop-color:#2E2E2E"></stop>
		<stop id="stop4774" offset="0.4554" style="stop-color:#424242"></stop>
		<stop id="stop4776" offset="0.6014" style="stop-color:#303030"></stop>
		<stop id="stop4778" offset="0.6947" style="stop-color:#4A4A4A"></stop>
		<stop id="stop4780" offset="1" style="stop-color:#666666"></stop>
	</linearGradient>
	
	
		<linearGradient gradientTransform="matrix(1,0,0,-1,192.3999,143.0996)" y2="107.8965" x2="-126.5454" y1="107.8965" x1="-158.4185" gradientUnits="userSpaceOnUse" id="SVGID_36_">
		<stop id="stop4785" offset="0" style="stop-color:#525252"></stop>
		<stop id="stop4787" offset="0.1856" style="stop-color:#333333"></stop>
		<stop id="stop4789" offset="0.354" style="stop-color:#AEAEAE"></stop>
		<stop id="stop4791" offset="0.4199" style="stop-color:#ADADAD"></stop>
		<stop id="stop4793" offset="0.4276" style="stop-color:#9D9D9D"></stop>
		<stop id="stop4795" offset="0.4433" style="stop-color:#818181"></stop>
		<stop id="stop4797" offset="0.4611" style="stop-color:#6A6A6A"></stop>
		<stop id="stop4799" offset="0.4814" style="stop-color:#585858"></stop>
		<stop id="stop4801" offset="0.506" style="stop-color:#4C4C4C"></stop>
		<stop id="stop4803" offset="0.539" style="stop-color:#444444"></stop>
		<stop id="stop4805" offset="0.6166" style="stop-color:#424242"></stop>
		<stop id="stop4807" offset="0.6684" style="stop-color:#454545"></stop>
		<stop id="stop4809" offset="1" style="stop-color:#BDBDBD"></stop>
	</linearGradient>
	
	
		<linearGradient gradientTransform="matrix(1,0,0,-1,192.3999,143.0996)" y2="104.4332" x2="-154.15421" y1="97.627899" x1="-153.1255" gradientUnits="userSpaceOnUse" id="SVGID_37_">
		<stop id="stop4814" offset="0" style="stop-color:#969696"></stop>
		<stop id="stop4816" offset="1" style="stop-color:#000000"></stop>
	</linearGradient>
	
	
	
	<linearGradient y2="38.790001" x2="39.487301" y1="46.373001" x1="38.737301" gradientUnits="userSpaceOnUse" id="SVGID_38_">
		<stop id="stop4825" offset="0" style="stop-color:#333333"></stop>
		<stop id="stop4827" offset="0.431" style="stop-color:#000000"></stop>
		<stop id="stop4829" offset="1" style="stop-color:#2E2E2E"></stop>
	</linearGradient>
	
	
	
	
	
		<radialGradient gradientUnits="userSpaceOnUse" gradientTransform="matrix(1,0,0,-1,192.3999,143.0996)" r="72.751701" cy="106.5996" cx="-138.2334" id="SVGID_39_">
		<stop id="stop4840" offset="0" style="stop-color:#000000;stop-opacity:0"></stop>
		<stop id="stop4842" offset="0.80220002" style="stop-color:#000000;stop-opacity:0.08"></stop>
		<stop id="stop4844" offset="1" style="stop-color:#000000;stop-opacity:0.3882353"></stop>
	</radialGradient>
	
<radialGradient inkscape:collect="always" xlink:href="#SVGID_39_" id="radialGradient5007" gradientUnits="userSpaceOnUse" gradientTransform="matrix(1,0,0,-1,192.3999,143.0996)" cx="-138.2334" cy="106.5996" r="72.751701"></radialGradient><linearGradient inkscape:collect="always" xlink:href="#SVGID_38_" id="linearGradient5013" gradientUnits="userSpaceOnUse" x1="38.737301" y1="46.373001" x2="39.487301" y2="38.790001"></linearGradient><linearGradient inkscape:collect="always" xlink:href="#SVGID_37_" id="linearGradient5018" gradientUnits="userSpaceOnUse" gradientTransform="matrix(1,0,0,-1,192.3999,143.0996)" x1="-153.1255" y1="97.627899" x2="-154.15421" y2="104.4332"></linearGradient><linearGradient inkscape:collect="always" xlink:href="#SVGID_36_" id="linearGradient5021" gradientUnits="userSpaceOnUse" gradientTransform="matrix(1,0,0,-1,192.3999,143.0996)" x1="-158.4185" y1="107.8965" x2="-126.5454" y2="107.8965"></linearGradient><linearGradient inkscape:collect="always" xlink:href="#SVGID_35_" id="linearGradient5024" gradientUnits="userSpaceOnUse" gradientTransform="matrix(1,0,0,-1,192.3999,143.0996)" x1="-158.8101" y1="107.0898" x2="-126.4229" y2="107.0898"></linearGradient><linearGradient inkscape:collect="always" xlink:href="#SVGID_34_" id="linearGradient5036" gradientUnits="userSpaceOnUse" x1="22.5742" y1="49.7188" x2="111.5455" y2="29.204"></linearGradient><linearGradient inkscape:collect="always" xlink:href="#SVGID_27_" id="linearGradient5252" gradientUnits="userSpaceOnUse" x1="23.471201" y1="30.732401" x2="27.9561" y2="30.732401"></linearGradient><linearGradient inkscape:collect="always" xlink:href="#SVGID_26_" id="linearGradient5258" gradientUnits="userSpaceOnUse" x1="21.2129" y1="71.326698" x2="117.1948" y2="51.952599"></linearGradient><linearGradient inkscape:collect="always" xlink:href="#SVGID_25_" id="linearGradient5261" gradientUnits="userSpaceOnUse" gradientTransform="matrix(1,0,0,-1,192.3999,143.0996)" x1="-176.1851" y1="78.4795" x2="-52.131699" y2="92.223099"></linearGradient><linearGradient inkscape:collect="always" xlink:href="#SVGID_24_" id="linearGradient5264" gradientUnits="userSpaceOnUse" gradientTransform="matrix(1,0,0,-1,192.3999,143.0996)" x1="-175.7173" y1="78.449203" x2="-67.153198" y2="90.476799"></linearGradient><linearGradient inkscape:collect="always" xlink:href="#SVGID_23_" id="linearGradient5267" gradientUnits="userSpaceOnUse" gradientTransform="matrix(1,0,0,-1,192.3999,143.0996)" x1="-172.3853" y1="78.209" x2="-172.3853" y2="78.209"></linearGradient><linearGradient inkscape:collect="always" xlink:href="#SVGID_22_" id="linearGradient5275" gradientUnits="userSpaceOnUse" gradientTransform="matrix(1,0,0,-1,192.3999,143.0996)" x1="-175.14211" y1="104.0801" x2="-83.541" y2="104.0801"></linearGradient><linearGradient inkscape:collect="always" xlink:href="#SVGID_21_" id="linearGradient5278" gradientUnits="userSpaceOnUse" gradientTransform="matrix(1,0,0,-1,192.3999,143.0996)" x1="-175.4424" y1="83.6045" x2="-75.6362" y2="83.6045"></linearGradient><linearGradient inkscape:collect="always" xlink:href="#SVGID_18_" id="linearGradient5317" gradientUnits="userSpaceOnUse" gradientTransform="matrix(1,0,0,-1,192.3999,143.0996)" x1="-115.3716" y1="119.1758" x2="-134.7878" y2="24.695299"></linearGradient><linearGradient inkscape:collect="always" xlink:href="#SVGID_17_" id="linearGradient5320" gradientUnits="userSpaceOnUse" gradientTransform="matrix(1,0,0,-1,192.3999,143.0996)" x1="-118.4946" y1="124.0039" x2="-138.85201" y2="24.9438"></linearGradient><linearGradient inkscape:collect="always" xlink:href="#SVGID_16_" id="linearGradient5323" gradientUnits="userSpaceOnUse" gradientTransform="matrix(1,0,0,-1,192.3999,143.0996)" x1="-127.4014" y1="121.9365" x2="-146.8837" y2="27.1346"></linearGradient><linearGradient inkscape:collect="always" xlink:href="#SVGID_15_" id="linearGradient5326" gradientUnits="userSpaceOnUse" gradientTransform="matrix(1,0,0,-1,192.3999,143.0996)" x1="-135.58591" y1="123.3525" x2="-155.006" y2="28.8524"></linearGradient><linearGradient inkscape:collect="always" xlink:href="#SVGID_14_" id="linearGradient5329" gradientUnits="userSpaceOnUse" gradientTransform="matrix(1,0,0,-1,192.3999,143.0996)" x1="-121.1382" y1="120.3223" x2="-140.54491" y2="25.888"></linearGradient><linearGradient inkscape:collect="always" xlink:href="#SVGID_13_" id="linearGradient5334" gradientUnits="userSpaceOnUse" gradientTransform="matrix(1,0,0,-1,192.3999,143.0996)" x1="-130.1348" y1="35.625" x2="-130.14281" y2="35.585701"></linearGradient><linearGradient inkscape:collect="always" xlink:href="#SVGID_12_" id="linearGradient5337" gradientUnits="userSpaceOnUse" gradientTransform="matrix(1,0,0,-1,192.3999,143.0996)" x1="-152.6201" y1="126.8398" x2="-171.9462" y2="32.797901"></linearGradient><linearGradient inkscape:collect="always" xlink:href="#SVGID_11_" id="linearGradient5340" gradientUnits="userSpaceOnUse" x1="32.519001" y1="33.077099" x2="37.2481" y2="92.496101"></linearGradient><linearGradient inkscape:collect="always" xlink:href="#SVGID_10_" id="linearGradient5343" gradientUnits="userSpaceOnUse" gradientTransform="matrix(1,0,0,-1,192.3999,143.0996)" x1="-115.3369" y1="119.6328" x2="-134.85719" y2="24.6462"></linearGradient><linearGradient inkscape:collect="always" xlink:href="#SVGID_9_" id="linearGradient5354" gradientUnits="userSpaceOnUse" x1="54.653301" y1="25.2764" x2="79.683601" y2="106.3903"></linearGradient><linearGradient inkscape:collect="always" xlink:href="#SVGID_8_" id="linearGradient5357" gradientUnits="userSpaceOnUse" gradientTransform="matrix(1,0,0,-1,192.3999,143.0996)" x1="-117.166" y1="122.1328" x2="-87.569702" y2="31.998501"></linearGradient><linearGradient inkscape:collect="always" xlink:href="#SVGID_7_" id="linearGradient5360" gradientUnits="userSpaceOnUse" x1="70.421898" y1="26.876499" x2="119.5471" y2="87.626701"></linearGradient><linearGradient inkscape:collect="always" xlink:href="#SVGID_6_" id="linearGradient5363" gradientUnits="userSpaceOnUse" gradientTransform="matrix(1,0,0,-1,192.3999,143.0996)" x1="-123.5898" y1="119.8076" x2="-94.069099" y2="29.9035"></linearGradient><linearGradient inkscape:collect="always" xlink:href="#SVGID_5_" id="linearGradient5379" gradientUnits="userSpaceOnUse" x1="54.715801" y1="65.136703" x2="83.798798" y2="65.136703"></linearGradient><linearGradient inkscape:collect="always" xlink:href="#SVGID_2_" id="linearGradient5391" gradientUnits="userSpaceOnUse" x1="66.232399" y1="24.481001" x2="112.7331" y2="97.232101"></linearGradient><radialGradient inkscape:collect="always" xlink:href="#SVGID_1_" id="radialGradient5395" gradientUnits="userSpaceOnUse" gradientTransform="matrix(1,0,0,-1,192.3999,143.0996)" cx="-145.4702" cy="87.823196" r="68.686401"></radialGradient>
	
	
<inkscape:perspective id="perspective10537" inkscape:persp3d-origin="0.5 : 0.33333333 : 1" inkscape:vp_z="1 : 0.5 : 1" inkscape:vp_y="0 : 1000 : 0" inkscape:vp_x="0 : 0.5 : 1" sodipodi:type="inkscape:persp3d"></inkscape:perspective><inkscape:perspective id="perspective13111" inkscape:persp3d-origin="0.5 : 0.33333333 : 1" inkscape:vp_z="1 : 0.5 : 1" inkscape:vp_y="0 : 1000 : 0" inkscape:vp_x="0 : 0.5 : 1" sodipodi:type="inkscape:persp3d"></inkscape:perspective><inkscape:perspective id="perspective4911" inkscape:persp3d-origin="0.5 : 0.33333333 : 1" inkscape:vp_z="1 : 0.5 : 1" inkscape:vp_y="0 : 1000 : 0" inkscape:vp_x="0 : 0.5 : 1" sodipodi:type="inkscape:persp3d"></inkscape:perspective><inkscape:perspective id="perspective9216" inkscape:persp3d-origin="0.5 : 0.33333333 : 1" inkscape:vp_z="1 : 0.5 : 1" inkscape:vp_y="0 : 1000 : 0" inkscape:vp_x="0 : 0.5 : 1" sodipodi:type="inkscape:persp3d"></inkscape:perspective><inkscape:perspective id="perspective9333" inkscape:persp3d-origin="0.5 : 0.33333333 : 1" inkscape:vp_z="1 : 0.5 : 1" inkscape:vp_y="0 : 1000 : 0" inkscape:vp_x="0 : 0.5 : 1" sodipodi:type="inkscape:persp3d"></inkscape:perspective></defs><sodipodi:namedview pagecolor="#ffffff" bordercolor="#666666" borderopacity="1" objecttolerance="10" gridtolerance="10" guidetolerance="10" inkscape:pageopacity="0" inkscape:pageshadow="2" inkscape:window-width="1198" inkscape:window-height="730" id="namedview4848" showgrid="false" inkscape:zoom="2" inkscape:cx="43" inkscape:cy="63.5" inkscape:window-x="7" inkscape:window-y="42" inkscape:window-maximized="0" inkscape:current-layer="svg3857" showguides="true" inkscape:guide-bbox="true"><sodipodi:guide orientation="0,1" position="0,140" id="globe_top"></sodipodi:guide><sodipodi:guide orientation="1,0" position="16,0" id="globe_left"></sodipodi:guide><sodipodi:guide orientation="1,0" position="119,0" id="globe_right"></sodipodi:guide><sodipodi:guide id="globe_bottom" position="0,47" orientation="0,1"></sodipodi:guide><sodipodi:guide orientation="0,1" position="8,40" id="wordmark_top"></sodipodi:guide><sodipodi:guide orientation="0,1" position="8,22.5" id="wordmark_bottom"></sodipodi:guide><sodipodi:guide orientation="0,1" position="0,17" id="subtitle_top"></sodipodi:guide><sodipodi:guide orientation="0,1" position="0,8" id="subtitle_bottom"></sodipodi:guide><sodipodi:guide orientation="1,0" position="8,40" id="wordmark_left"></sodipodi:guide><sodipodi:guide orientation="1,0" position="127,40" id="wordmark_right"></sodipodi:guide></sodipodi:namedview><g id="text3416" style="font-size:13px;font-style:normal;font-variant:normal;font-weight:normal;font-stretch:normal;text-align:start;line-height:125%;writing-mode:lr-tb;text-anchor:start;fill:#000000;fill-opacity:1;stroke:none;font-family:FreeFarsi;-inkscape-font-specification:FreeFarsi"><path d="m 98.562256,143.96582 c 0.203123,0.48243 0.376626,1.14259 0.520508,1.98047 0.139646,0.95639 0.262367,1.90642 0.368164,2.8501 0.0804,0.61784 0.120603,1.11507 0.120605,1.4917 l -0.01904,0.46972 -0.787109,1.00928 c 0.03385,-0.22428 0.05078,-0.4803 0.05078,-0.76807 -1e-6,-0.24544 -0.03174,-0.73844 -0.09522,-1.479 -0.139649,-1.37532 -0.241212,-2.21956 -0.304687,-2.53272 -0.06771,-0.33007 -0.207358,-0.93733 -0.418946,-1.82177 l 0.564942,-1.19971" id="path3486"></path><path d="m 96.70874,150.104 -0.01904,0.46338 -0.04443,0.26026 c -0.0085,0.0212 -0.01481,0.0402 -0.01904,0.0571 -0.06348,0.13541 -0.139651,0.23909 -0.228516,0.31103 -0.135419,0.11003 -0.311037,0.16504 -0.526855,0.16504 l -0.856934,0 -0.825195,-0.006 0,-1.11719 0.939453,0 0.361816,0 c 0.139647,1e-5 0.251789,-0.0487 0.336426,-0.14599 0.03808,-0.055 0.05713,-0.15023 0.05713,-0.28565 -2e-6,-0.0677 -0.0042,-0.14599 -0.01269,-0.23486 -0.06771,-0.67708 -0.107912,-1.07486 -0.120606,-1.19336 -0.03809,-0.32584 -0.114259,-0.79133 -0.228515,-1.39648 -0.131187,-0.69824 -0.25814,-1.3055 -0.38086,-1.82178 l 0.564942,-1.19971 c 0.334308,1.03256 0.638995,1.81332 0.914062,2.34229 l -0.291992,0.34912 c 0.08886,0.68555 0.143878,1.10873 0.165039,1.26953 0.05924,0.52051 0.10156,0.87175 0.126953,1.05371 0.05924,0.72787 0.08886,1.1045 0.08887,1.12988" id="path3488"></path><path d="m 89.440674,151.35449 -0.983887,0 -0.0063,0 0,-1.11719 0.97754,0 c 0.211587,1e-5 0.539549,-0.20312 0.983886,-0.60937 0.09733,-0.0931 0.186196,-0.18196 0.266602,-0.2666 0.270831,-0.3597 0.581865,-0.6665 0.933105,-0.92041 0.12695,-0.0931 0.27083,-0.13965 0.431641,-0.13965 0.02539,0 0.04655,0.002 0.06348,0.006 0.148109,0 0.272946,0.0381 0.374512,0.11425 0.207353,0.15659 0.361812,0.36394 0.463379,0.62208 l 0.05078,0.15869 c 0.02539,0.32585 0.03808,0.67285 0.03809,1.04101 l 0.387207,-0.006 0.0063,0 0.761719,0 0,1.11719 -1.066407,0 -0.374511,0.0127 c -0.0931,0.0127 -0.177739,0.055 -0.253907,0.12695 -0.126957,0.15658 -0.357588,0.26872 -0.691894,0.33643 -0.186201,0 -0.359704,-0.0465 -0.520508,-0.13965 -0.228518,-0.1862 -0.347008,-0.28564 -0.355469,-0.29834 -0.03386,-0.0296 -0.06771,-0.0635 -0.101562,-0.10156 -0.126955,-0.14388 -0.230634,-0.25179 -0.311035,-0.32373 -0.334312,0.20735 -0.647463,0.33431 -0.939453,0.38085 -0.05078,0.004 -0.09522,0.006 -0.133301,0.006 m 2.132812,-0.64111 c 0.0804,0.0846 0.20947,0.16504 0.387207,0.24121 0.05924,0.0212 0.101559,0.0317 0.126953,0.0317 0.139645,-0.0762 0.222165,-0.25179 0.247559,-0.52686 l 0,-0.17138 0,-0.35547 c -0.0127,-0.11849 -0.04655,-0.23486 -0.101562,-0.34912 -0.08887,-0.16504 -0.245447,-0.26025 -0.469727,-0.28565 l -0.177734,0 c -0.02539,0.004 -0.05078,0.0106 -0.07617,0.019 -0.181969,0.0466 -0.319502,0.19255 -0.412598,0.43799 -0.01693,0.055 -0.03174,0.11215 -0.04443,0.17139 -3e-6,0.22005 0.141761,0.45703 0.425292,0.71094 0.03385,0.0296 0.06559,0.055 0.09521,0.0762" id="path3490"></path><path d="m 87.403076,150.2373 c -0.07194,-0.27929 -0.154463,-0.50992 -0.247558,-0.69189 -0.105798,-0.28776 -0.236983,-0.4803 -0.393555,-0.57764 -0.05078,-0.0296 -0.09945,-0.0444 -0.145996,-0.0444 -0.194664,0.0212 -0.344892,0.13119 -0.450684,0.33008 -0.02962,0.055 -0.05078,0.11214 -0.06348,0.17138 -0.06348,0.17774 -0.09522,0.33009 -0.09521,0.45704 -2e-6,0.0423 0.0021,0.0889 0.0063,0.13964 0.0804,0.14389 0.215818,0.21583 0.40625,0.21582 0.01269,1e-5 0.02327,1e-5 0.03174,0 l 0.952148,0 m -0.825195,-2.25341 0.203125,0.019 c 0.05078,0.0127 0.09521,0.0275 0.133301,0.0444 0.253903,0.12696 0.45068,0.29835 0.590332,0.51416 0.220048,0.30046 0.378739,0.6115 0.476074,0.93311 0.0677,0.30469 0.107906,0.55225 0.120605,0.74267 l 0.342774,0 c -5e-6,1e-5 -5e-6,0.3724 0,1.11719 -0.207361,0 -0.31104,0 -0.311035,0 -0.03386,0.39356 -0.124842,0.79769 -0.27295,1.2124 -0.02963,0.0762 -0.05713,0.13754 -0.08252,0.18409 -0.220056,0.39778 -0.43376,0.7067 -0.641113,0.92675 -0.194665,0.19467 -0.43376,0.38086 -0.717286,0.5586 l -0.209472,0.11426 c -0.169273,0.0677 -0.374514,0.10156 -0.615723,0.10156 -0.236981,0 -0.484539,-0.0402 -0.742676,-0.12061 -0.232748,-0.0635 -0.56071,-0.18196 -0.983886,-0.35547 l 0.139648,-0.34912 1.047363,0 0.285645,-0.0127 c 0.07194,-0.008 0.15869,-0.0296 0.260254,-0.0635 0.198891,-0.0719 0.427406,-0.19254 0.685547,-0.36182 0.283526,-0.20735 0.505693,-0.40201 0.666504,-0.58398 0.131181,-0.1735 0.245439,-0.36816 0.342773,-0.58398 0.07617,-0.20313 0.124834,-0.42529 0.145996,-0.66651 l -0.59668,-0.0254 -0.533203,-0.0698 c -0.07617,-0.0127 -0.137535,-0.0275 -0.184082,-0.0444 -0.173504,-0.0592 -0.353355,-0.17561 -0.539551,-0.34912 -0.06348,-0.055 -0.110027,-0.10579 -0.139648,-0.15234 -0.114259,-0.17773 -0.17562,-0.39567 -0.184082,-0.65381 l 0.02539,-0.31738 c 0.03808,-0.2666 0.08463,-0.47607 0.139648,-0.62842 0.05924,-0.18619 0.173501,-0.39567 0.342774,-0.62842 0.02539,-0.0339 0.04866,-0.0635 0.06982,-0.0889 0.118487,-0.12694 0.236977,-0.22639 0.355468,-0.29834 0.131183,-0.0719 0.258136,-0.11002 0.38086,-0.11425" id="path3492"></path><path d="m 79.176514,150.2373 c 0.389319,1e-5 0.63053,-0.0169 0.723632,-0.0508 0.173499,-0.0677 0.287757,-0.15445 0.342774,-0.26025 0.02539,-0.055 0.0677,-0.24332 0.126953,-0.56494 l 0.04443,-0.34278 c 0.02115,-0.15233 0.09944,-0.22851 0.234863,-0.22851 0.122716,0 0.20312,0.0487 0.241211,0.146 0.0085,0.0169 0.01269,0.036 0.01269,0.0571 -5e-6,0.0889 0.01692,0.21583 0.05078,0.38086 0.02115,0.13119 0.05289,0.25391 0.09521,0.36817 0.03808,0.1058 0.08675,0.19043 0.145996,0.2539 0.139643,0.14812 0.266596,0.22852 0.38086,0.24121 l 0.710937,0 c 0.215814,-0.0169 0.359694,-0.0719 0.431641,-0.16503 0.01269,-0.0169 0.02115,-0.0339 0.02539,-0.0508 -6e-6,-0.22428 -0.09734,-0.49934 -0.291992,-0.82519 -0.101569,-0.16927 -0.226406,-0.34489 -0.374511,-0.52686 l 0.425293,-1.04736 c 0.368157,0.69402 0.575513,1.11296 0.62207,1.25684 0.06347,0.25814 0.09521,0.49512 0.09521,0.71093 l -0.02539,0.31104 -0.0063,0.0444 c -0.04656,0.35547 -0.154466,0.6792 -0.32373,0.97119 l -0.08887,0.1333 c -0.156582,0.17351 -0.323737,0.27507 -0.501465,0.30469 -0.07195,0 -0.308925,0 -0.710938,0 -0.105799,0 -0.232752,-0.0529 -0.380859,-0.15869 -0.08041,-0.055 -0.158696,-0.12483 -0.234863,-0.20947 -0.04232,-0.0508 -0.09945,-0.14811 -0.171387,-0.29199 -0.08464,0.15657 -0.165044,0.2666 -0.241211,0.33007 -0.105799,0.10157 -0.230636,0.17774 -0.374512,0.22852 -0.143884,0.0508 -0.31527,0.0846 -0.51416,0.10156 l -0.43164,0 c -0.105798,0 -0.224287,-0.0317 -0.355469,-0.0952 -0.0085,-0.004 -0.01693,-0.008 -0.02539,-0.0127 -0.177737,-0.10579 -0.296226,-0.18831 -0.355469,-0.24756 -0.05078,-0.0508 -0.11426,-0.13541 -0.190429,-0.2539 -0.173505,0.19889 -0.279299,0.31315 -0.317383,0.34277 -0.07194,0.055 -0.1862,0.11849 -0.342773,0.19043 -0.110028,0.0508 -0.315269,0.0762 -0.615723,0.0762 l -0.03174,0 -1.047364,0 0,-1.11719 1.079102,0 c 0.24121,1e-5 0.406248,-0.0254 0.495117,-0.0762 0.07617,-0.0465 0.141763,-0.1079 0.196777,-0.18408 0.07194,-0.0973 0.120604,-0.25602 0.145997,-0.47607 0.0042,-0.0254 0.0063,-0.0487 0.0063,-0.0698 l 0,-0.3999 0,-0.006 c 0.01269,-0.0677 0.06982,-0.12483 0.171387,-0.17138 0.02539,-0.0127 0.04866,-0.019 0.06982,-0.019 l 0.139649,0.019 c 0.08886,0.0254 0.139646,0.0571 0.152343,0.0952 l 0.02539,0.48877 c -3e-6,0.13542 0.0402,0.27507 0.120605,0.41895 0.06347,0.10579 0.120603,0.17773 0.171387,0.21582 0.143877,0.10579 0.300453,0.16081 0.469727,0.16503" id="path3494"></path><path d="m 74.885498,150.2373 c -0.07194,-0.27929 -0.154463,-0.50992 -0.247559,-0.69189 -0.105797,-0.28776 -0.236982,-0.4803 -0.393554,-0.57764 -0.05078,-0.0296 -0.09945,-0.0444 -0.145996,-0.0444 -0.194664,0.0212 -0.344892,0.13119 -0.450684,0.33008 -0.02962,0.055 -0.05078,0.11214 -0.06348,0.17138 -0.06348,0.17774 -0.09522,0.33009 -0.09521,0.45704 -2e-6,0.0423 0.0021,0.0889 0.0063,0.13964 0.0804,0.14389 0.215818,0.21583 0.40625,0.21582 0.01269,1e-5 0.02327,1e-5 0.03174,0 l 0.952148,0 m -0.825195,-2.25341 0.203125,0.019 c 0.05078,0.0127 0.09521,0.0275 0.133301,0.0444 0.253902,0.12696 0.45068,0.29835 0.590332,0.51416 0.220048,0.30046 0.378739,0.6115 0.476074,0.93311 0.0677,0.30469 0.107906,0.55225 0.120605,0.74267 l 0.342774,0 c -5e-6,1e-5 -5e-6,0.3724 0,1.11719 -0.207361,0 -0.31104,0 -0.311035,0 -0.03386,0.39356 -0.124842,0.79769 -0.27295,1.2124 -0.02963,0.0762 -0.05713,0.13754 -0.08252,0.18409 -0.220056,0.39778 -0.43376,0.7067 -0.641114,0.92675 -0.194664,0.19467 -0.433759,0.38086 -0.717285,0.5586 l -0.209472,0.11426 c -0.169273,0.0677 -0.374514,0.10156 -0.615723,0.10156 -0.236981,0 -0.484539,-0.0402 -0.742676,-0.12061 -0.232748,-0.0635 -0.56071,-0.18196 -0.983886,-0.35547 l 0.139648,-0.34912 1.047363,0 0.285645,-0.0127 c 0.07194,-0.008 0.15869,-0.0296 0.260254,-0.0635 0.198891,-0.0719 0.427406,-0.19254 0.685547,-0.36182 0.283525,-0.20735 0.505693,-0.40201 0.666503,-0.58398 0.131182,-0.1735 0.24544,-0.36816 0.342774,-0.58398 0.07617,-0.20313 0.124834,-0.42529 0.145996,-0.66651 l -0.59668,-0.0254 -0.533203,-0.0698 c -0.07617,-0.0127 -0.137535,-0.0275 -0.184082,-0.0444 -0.173505,-0.0592 -0.353355,-0.17561 -0.539551,-0.34912 -0.06348,-0.055 -0.110027,-0.10579 -0.139648,-0.15234 -0.114259,-0.17773 -0.17562,-0.39567 -0.184082,-0.65381 l 0.02539,-0.31738 c 0.03808,-0.2666 0.08463,-0.47607 0.139648,-0.62842 0.05924,-0.18619 0.173501,-0.39567 0.342773,-0.62842 0.02539,-0.0339 0.04866,-0.0635 0.06983,-0.0889 0.118487,-0.12694 0.236977,-0.22639 0.355468,-0.29834 0.131183,-0.0719 0.258136,-0.11002 0.38086,-0.11425" id="path3496"></path><path d="m 64.862549,151.35449 0.361816,0 1.034668,0 c 0.791339,0 1.305499,-0.0127 1.542481,-0.0381 0.06347,-0.008 0.131181,-0.0169 0.203125,-0.0254 l 1.809082,-0.2793 c 0.06347,-0.0127 0.122716,-0.0254 0.177734,-0.0381 l 0.698242,-1.18066 c -1.096033,0.18197 -2.035485,0.27295 -2.818359,0.27295 -0.296227,0 -0.545901,-0.0889 -0.749024,-0.2666 l -0.228515,-0.22217 c -0.135419,-0.18196 -0.203127,-0.37874 -0.203125,-0.59033 -2e-6,-0.0465 0.0042,-0.0952 0.01269,-0.146 0.03385,-0.20735 0.129067,-0.41259 0.285645,-0.61572 0.114255,-0.1608 0.249672,-0.28141 0.40625,-0.36182 0.224281,-0.11848 0.448564,-0.17773 0.672851,-0.17773 0.03385,0 0.06559,0.002 0.09521,0.006 0.27083,0.0423 0.552242,0.14601 0.844238,0.31104 0.29622,0.16504 0.490881,0.27084 0.583985,0.31738 -0.181971,-0.51627 -0.296229,-0.82096 -0.342774,-0.91406 -0.0254,-0.0465 -0.05079,-0.091 -0.07617,-0.1333 -0.06771,-0.10579 -0.156579,-0.20735 -0.266601,-0.30469 -0.08887,-0.0889 -0.224288,-0.15445 -0.40625,-0.19678 -0.05079,-0.0127 -0.0931,-0.019 -0.126953,-0.019 -0.296227,1e-5 -0.514163,0.0233 -0.653809,0.0698 l -0.03174,0.0127 c -0.07618,0.0296 -0.188317,0.0846 -0.336426,0.16504 -0.321617,0.17351 -0.641115,0.45492 -0.958496,0.84424 -0.258139,0.31315 -0.444337,0.63054 -0.558594,0.95215 -0.08464,0.23275 -0.126954,0.45703 -0.126953,0.67285 -1e-6,0.17774 0.03597,0.32585 0.10791,0.44433 0.03385,0.0508 0.0804,0.10157 0.139649,0.15235 0.07617,0.0592 0.154458,0.10791 0.234863,0.14599 -0.110027,0.0169 -0.300457,0.0254 -0.571289,0.0254 l -0.355469,0 -0.399902,0 0,1.11719" id="path3498"></path><path d="m 62.444092,147.30469 c -0.368167,0.10157 -0.634768,0.19255 -0.799805,0.27295 -0.287762,0.13542 -0.52051,0.2793 -0.698242,0.43164 -0.0127,0.0127 -0.02539,0.0233 -0.03809,0.0317 -0.105796,0.11003 -0.165041,0.18197 -0.177734,0.21582 l -0.01904,0.0952 0,0.0317 c 0.01693,0.0677 0.08252,0.12061 0.196777,0.15869 0.215818,0.0635 0.47184,0.11215 0.768066,0.146 0.236977,0.0254 0.444333,0.0381 0.622071,0.0381 0.09733,1e-5 0.215817,-0.004 0.355468,-0.0127 l -0.209472,-1.40918 m -0.209473,-0.86328 0.641113,-0.29834 c 0.05924,-0.0254 0.112139,-0.0444 0.158692,-0.0571 0.02962,0.22006 0.08886,0.59457 0.177734,1.12353 0.110022,0.76596 0.194657,1.26531 0.253906,1.49805 0.194657,0.84636 0.306799,1.30974 0.336426,1.39014 l 0.01904,0.0508 c 0.04654,0.055 0.133296,0.0846 0.260254,0.0889 l 0.774414,0 0,1.11719 -0.799805,0 -0.349121,0 c -0.194665,0 -0.327966,-0.0465 -0.399902,-0.13965 -0.105798,-0.14387 -0.236983,-0.56917 -0.393555,-1.27588 -0.07617,-0.33007 -0.131188,-0.5607 -0.165039,-0.69189 -0.05925,0.0719 -0.186201,0.19043 -0.380859,0.35547 l -0.03174,0.019 c -0.232751,0.20736 -0.408369,0.34489 -0.526856,0.4126 -0.169273,0.10157 -0.321617,0.15235 -0.457031,0.15234 l -0.06982,-0.006 c -0.308921,-0.0339 -0.512046,-0.10368 -0.609375,-0.20948 -0.165041,-0.15234 -0.347007,-0.42105 -0.545899,-0.80615 -0.135417,-0.27083 -0.224284,-0.50358 -0.266601,-0.69824 0.101561,-0.23698 0.268716,-0.47184 0.501465,-0.70459 0.169269,-0.18619 0.467609,-0.43375 0.895019,-0.74268 0.0931,-0.0677 0.167153,-0.11848 0.222168,-0.15234 0.215818,-0.15234 0.467608,-0.2941 0.755371,-0.42529 m 0.114258,-1.92334 0.863281,0.60937 -0.558594,0.71094 -0.863281,-0.55859 0.558594,-0.76172 m -1.536133,0 0.863281,0.60937 -0.558593,0.71094 -0.863282,-0.55859 0.558594,-0.76172" id="path3500"></path><path d="m 53.823975,143.96582 c 0.203123,0.48243 0.376626,1.14259 0.520507,1.98047 0.139647,0.95639 0.262368,1.90642 0.368164,2.8501 0.0804,0.61784 0.120604,1.11507 0.120606,1.4917 l -0.01904,0.46972 -0.787109,1.00928 c 0.03385,-0.22428 0.05078,-0.4803 0.05078,-0.76807 -2e-6,-0.24544 -0.03174,-0.73844 -0.09521,-1.479 -0.13965,-1.37532 -0.241212,-2.21956 -0.304687,-2.53272 -0.06771,-0.33007 -0.207358,-0.93733 -0.418946,-1.82177 l 0.564942,-1.19971" id="path3502"></path><path d="m 51.970459,150.104 -0.01904,0.46338 -0.04443,0.26026 c -0.0085,0.0212 -0.01481,0.0402 -0.01904,0.0571 -0.06348,0.13541 -0.13965,0.23909 -0.228515,0.31103 -0.135419,0.11003 -0.311037,0.16504 -0.526856,0.16504 l -0.856933,0 -0.825196,-0.006 0,-1.11719 0.939454,0 0.361816,0 c 0.139647,1e-5 0.251789,-0.0487 0.336426,-0.14599 0.03808,-0.055 0.05713,-0.15023 0.05713,-0.28565 -2e-6,-0.0677 -0.0042,-0.14599 -0.0127,-0.23486 -0.06771,-0.67708 -0.107911,-1.07486 -0.120605,-1.19336 -0.03809,-0.32584 -0.114259,-0.79133 -0.228516,-1.39648 -0.131186,-0.69824 -0.258139,-1.3055 -0.380859,-1.82178 l 0.564941,-1.19971 c 0.334308,1.03256 0.638996,1.81332 0.914063,2.34229 l -0.291992,0.34912 c 0.08887,0.68555 0.143878,1.10873 0.165039,1.26953 0.05924,0.52051 0.10156,0.87175 0.126953,1.05371 0.05924,0.72787 0.08886,1.1045 0.08887,1.12988" id="path3504"></path><path d="m 47.381104,150.2373 -0.971192,-1.02832 -0.539551,-0.54589 -0.203125,-0.17774 c -0.156578,-0.13118 -0.368166,-0.2137 -0.634765,-0.24756 l -0.196778,-0.006 c -0.241212,0.0296 -0.624187,0.14176 -1.148925,0.33642 0.368163,-0.56705 0.638996,-0.90559 0.8125,-1.01562 0.186196,-0.13541 0.3999,-0.21793 0.641113,-0.24756 0.02539,-0.004 0.04866,-0.006 0.06982,-0.006 l 0.260254,0.006 c 0.258135,0.0296 0.469724,0.11215 0.634766,0.24756 0.181962,0.14811 0.706702,0.68766 1.574218,1.61865 l 0.165039,0.18408 0.825196,0.88232 0.51416,0 0.253906,0 0,1.11719 -6.436523,0 0,-1.11719 4.379883,0" id="path3506"></path><path d="m 43.007568,150.2373 -0.272949,0 c -0.03809,1e-5 -0.08676,-0.0677 -0.145996,-0.20312 -0.0127,-0.0339 -0.02328,-0.0592 -0.03174,-0.0762 -0.07618,-0.1862 -0.243331,-0.49935 -0.501465,-0.93946 -0.0085,-0.0169 -0.01693,-0.0317 -0.02539,-0.0444 -0.236982,-0.36393 -0.374515,-0.56917 -0.412597,-0.61572 -0.05078,-0.0635 -0.09522,-0.11002 -0.133301,-0.13965 l -0.577637,0.9458 0.761719,1.2124 0.05078,0.0952 c 0.139645,0.2666 0.220049,0.53744 0.241211,0.8125 l 0,0.0762 -0.0063,0.146 c -0.03809,0.22428 -0.137536,0.45703 -0.298339,0.69824 -0.01693,0.0212 -0.03174,0.0402 -0.04443,0.0571 -0.249677,0.37663 -0.501468,0.65381 -0.755371,0.83154 -0.211591,0.19889 -0.486656,0.35335 -0.825195,0.46338 l -0.228516,0.0508 c -0.228517,0.0254 -0.478191,0.0381 -0.749023,0.0381 l -0.507813,-0.006 c -0.06771,0.22005 -0.101562,0.33219 -0.101562,0.33642 0,0 0.302571,0.10791 0.907714,0.32373 0.126952,0.0423 0.217935,0.0677 0.27295,0.0762 0.118488,0.0296 0.285643,0.0444 0.501464,0.0444 0.351235,0 0.605141,-0.0444 0.761719,-0.1333 0.186195,-0.0973 0.410479,-0.26872 0.672852,-0.51416 0.06771,-0.055 0.118486,-0.10368 0.152343,-0.146 0.131182,-0.13118 0.3068,-0.38932 0.526856,-0.77441 0.02116,-0.0381 0.0402,-0.0719 0.05713,-0.10156 0.08886,-0.16081 0.175614,-0.36605 0.260254,-0.61573 0.08463,-0.24967 0.143876,-0.50992 0.177734,-0.78076 l 0.272949,0 0,-1.11719" id="path3508"></path><path d="m 36.9646,144.68311 1.034668,0.72998 -0.666504,0.85693 -1.041016,-0.67285 0.672852,-0.91406 m -1.904297,0.0952 1.034668,0.72998 -0.666504,0.85693 -1.041016,-0.67285 0.672852,-0.91406 m 1.320312,2.67871 c 0.334308,0.38933 0.577634,0.69402 0.729981,0.91406 l 0.02539,0.0317 c 0.12695,0.13966 0.27083,0.36605 0.431641,0.6792 0.02539,0.0466 0.04443,0.0846 0.05713,0.11426 0.0931,0.18197 0.150224,0.4528 0.171387,0.8125 l 0,0.0825 c -4e-6,0.32162 -0.101566,0.61996 -0.304688,0.89502 -0.30469,0.25814 -0.645348,0.38721 -1.021973,0.38721 -0.600913,0 -1.019858,-0.0804 -1.256836,-0.24122 -0.139649,-0.10579 -0.26237,-0.25813 -0.368164,-0.45703 -0.04655,-0.11848 -0.06982,-0.24544 -0.06982,-0.38086 0,-0.36816 0.211588,-0.90982 0.634766,-1.625 l 0.272949,-0.46338 -0.08887,-0.1206 0.583984,-0.80615 0.203125,0.17773 m -0.564941,1.25684 c -0.09733,0.11426 -0.188315,0.2391 -0.272949,0.37451 -0.114259,0.18197 -0.181968,0.30892 -0.203125,0.38086 l -0.01904,0.0698 -0.02539,0.18408 0.02539,0.15235 0.05078,0.0952 c 0.0085,0.008 0.01693,0.0169 0.02539,0.0254 0.156574,0.12273 0.32796,0.19678 0.51416,0.22217 0.02539,0.004 0.05078,0.006 0.07617,0.006 l 0.710937,0 c 0.241208,0 0.431638,-0.0571 0.571289,-0.17139 0.04655,-0.0339 0.07617,-0.0698 0.08887,-0.10791 -3e-6,-0.0508 -0.03174,-0.14176 -0.09521,-0.27295 -0.04655,-0.10579 -0.11426,-0.21793 -0.203125,-0.33642 -0.334312,-0.38509 -0.68978,-0.65804 -1.066406,-0.81885 l -0.177734,0.19678" id="path3510"></path></g><g transform="scale(1.0588689,0.94440396)" id="text3373" style="font-size:36.46885681px;font-style:normal;font-variant:normal;font-weight:normal;font-stretch:normal;text-align:start;line-height:125%;writing-mode:lr-tb;text-anchor:start;fill:#000000;fill-opacity:1;stroke:none;font-family:FreeFarsi;-inkscape-font-specification:FreeFarsi"><path d="m 111.38296,136.8548 c -0.0712,-0.48672 -0.32054,-1.25242 -0.7479,-2.29711 -0.65293,-1.00905 -1.22276,-1.51359 -1.70947,-1.5136 -0.53422,0.2137 -0.92598,0.5639 -1.17527,1.05062 -0.0238,0.0594 -0.0475,0.11279 -0.0712,0.16026 -0.10685,0.45112 -0.16027,0.86069 -0.16026,1.22869 l 0.0178,0.44517 c 0.0593,0.61732 0.27303,1.04469 0.64105,1.28211 0.0237,0.0238 0.0534,0.0416 0.089,0.0534 0.3324,0.0831 0.70634,0.12466 1.12185,0.12465 0.84286,10e-6 1.50766,-0.17806 1.99439,-0.53421 m -2.5108,-6.28589 c 0.47485,1e-5 0.83099,0.0594 1.06843,0.17807 0.60543,0.30867 1.15151,0.78946 1.63825,1.44237 0.5342,0.67668 1.02093,1.54923 1.46018,2.61764 0.2849,0.64106 0.52233,1.4958 0.71228,2.56422 l 0.0356,0.28491 0.0534,1.17526 -0.089,1.38896 -0.0534,0.5164 c -0.14247,0.92597 -0.43925,1.90536 -0.89036,2.93816 -0.37989,0.92597 -0.98533,1.88162 -1.81632,2.86694 -0.42737,0.56983 -1.03875,1.0981 -1.83412,1.58483 l -0.56983,0.30272 c -0.47486,0.18994 -1.05062,0.28491 -1.72728,0.28491 -0.55796,0 -1.25244,-0.11278 -2.08343,-0.33833 -0.43924,-0.0831 -1.29992,-0.39176 -2.58202,-0.92597 -0.0594,-0.0237 -0.11872,-0.0475 -0.17807,-0.0712 l 0.39175,-0.90816 3.38334,-0.0178 0.14246,0 c 0.13058,0 0.39769,-0.0653 0.80132,-0.19588 0.66479,-0.23743 1.38301,-0.6648 2.15465,-1.28211 0.30865,-0.2493 0.82505,-0.78351 1.54922,-1.60264 0.62917,-0.79537 1.1159,-1.51359 1.46017,-2.15465 0.20181,-0.47485 0.30271,-0.83693 0.30272,-1.08623 -10e-6,-0.23742 -0.0594,-0.48672 -0.17807,-0.7479 -0.56983,0.37989 -1.46018,0.5639 -2.67105,0.55202 -0.45112,1e-5 -0.82507,-0.0237 -1.12185,-0.0712 -0.61732,-0.0356 -1.19901,-0.29677 -1.74509,-0.78351 -0.10685,-0.0831 -0.20182,-0.17806 -0.28491,-0.28491 -0.32053,-0.39175 -0.54609,-0.97938 -0.67667,-1.7629 -0.0356,-0.18993 -0.0534,-0.35613 -0.0534,-0.4986 l -0.0356,-0.73009 c 0.0237,-0.72414 0.10684,-1.36519 0.2493,-1.92316 0.10684,-0.54607 0.42143,-1.14557 0.94378,-1.79851 0.1187,-0.15431 0.23742,-0.2849 0.35614,-0.39176 0.23742,-0.28489 0.59356,-0.56981 1.06842,-0.85474 0.32052,-0.17805 0.59356,-0.26709 0.81912,-0.2671" id="path3403"></path><path d="m 91.652739,140.06007 4.487378,0 c 0.759763,1e-5 1.388945,-0.11871 1.887549,-0.35614 0.510462,-0.24929 0.955638,-0.56982 1.335529,-0.96158 0.344262,-0.36801 0.575753,-0.82505 0.694475,-1.37114 0.0712,-0.32052 0.10683,-0.68853 0.10684,-1.10404 -1e-5,-0.16619 -0.006,-0.3502 -0.0178,-0.55202 -0.0238,-0.93783 -0.160276,-1.88754 -0.409567,-2.84913 -0.18995,-0.74788 -0.445184,-1.43642 -0.765703,-2.06562 -0.36802,-0.70039 -0.706353,-1.24648 -1.015003,-1.63825 l -1.193072,2.93817 c 0.04748,0.0475 0.314585,0.59358 0.801317,1.63825 0.462977,0.98533 0.730083,1.61451 0.801318,1.88754 l 0.05342,0.4986 -0.03561,0.21369 c -0.20182,0.39176 -0.931909,0.58764 -2.190268,0.58763 l -4.5408,0 0,3.13404 m 6.143435,5.98317 2.421756,1.63825 -1.567017,1.99439 -2.42176,-1.56702 1.567021,-2.06562 m -4.309308,0 2.42176,1.63825 -1.567022,1.99439 -2.42176,-1.56702 1.567022,-2.06562" id="path3405"></path><path d="m 87.557118,140.06007 4.077817,0 0,-3.13404 -1.175266,0 c -0.332411,1e-5 -0.706359,-0.24929 -1.121845,-0.7479 l -0.267106,-0.32052 c -1.12779,-1.42456 -1.851943,-2.30897 -2.172461,-2.65326 -0.819133,-0.87846 -1.70355,-1.69759 -2.653252,-2.45737 l -3.917553,-3.16966 -0.427369,-0.37395 10.096602,-4.46957 0,-2.49299 -7.674842,3.31212 c -0.949714,0.43926 -1.780709,0.84289 -2.492988,1.21088 -1.163396,0.80727 -1.834128,1.59672 -2.012198,2.36834 l -0.05342,0.87254 0.08903,1.15746 c 0.02374,0.14247 0.05342,0.32055 0.08904,0.53421 l 1.905355,1.4958 c 0.320524,0.22557 0.646987,0.41551 0.979388,0.56982 l 1.068424,0 c 1.09216,0.7954 2.000319,1.55516 2.72448,2.27931 0.02374,0.0238 0.04748,0.0475 0.07123,0.0712 0.866602,0.83101 1.341456,1.44832 1.424565,1.85194 l 0.01781,0.33833 c -0.07124,0.41551 -0.462992,0.62326 -1.175266,0.62325 l -7.478965,0 0,3.13404 10.078795,0" id="path3407"></path><path d="m 74.18401,140.06007 c -0.403633,1e-5 -1.472056,1e-5 -3.20527,0 l -4.255887,0 0,-3.13404 4.149044,0 2.635445,0 0,-0.51641 c -0.05936,-0.64104 -0.178077,-1.17525 -0.356141,-1.60263 L 71.8869,132.15374 c 0.07122,-0.27303 0.445171,-1.24055 1.121845,-2.90255 0.01187,-0.0356 0.02374,-0.0653 0.03561,-0.089 0.427362,0.49862 0.920024,1.44239 1.477986,2.83132 l 0.30272,0.87255 c 0.154319,0.53422 0.320518,1.22276 0.498597,2.06562 l 0.249299,1.35333 c 0.01186,0.0712 0.02967,0.12466 0.05342,0.16027 0.118705,0.32053 0.409553,0.4808 0.872546,0.48079 l 0.979388,0 0,3.13404 -2.030004,0 -0.01781,0 -1.246495,0 m -1.317722,5.98317 2.42176,1.63825 -1.567021,1.99439 -2.42176,-1.56702 1.567021,-2.06562 m -4.309308,0 2.42176,1.63825 -1.567021,1.99439 -2.42176,-1.56702 1.567021,-2.06562" id="path3409"></path><path d="m 63.428548,140.06007 c -0.403634,1e-5 -1.472056,1e-5 -3.205271,0 l -4.255887,0 0,-3.13404 4.149045,0 2.635445,0 0,-0.51641 c -0.05936,-0.64104 -0.178078,-1.17525 -0.356142,-1.60263 l -1.264301,-2.65325 c 0.07122,-0.27303 0.445171,-1.24055 1.121845,-2.90255 0.01187,-0.0356 0.02374,-0.0653 0.03561,-0.089 0.427363,0.49862 0.920024,1.44239 1.477986,2.83132 l 0.30272,0.87255 c 0.154319,0.53422 0.320519,1.22276 0.498598,2.06562 l 0.249298,1.35333 c 0.01186,0.0712 0.02967,0.12466 0.05342,0.16027 0.118704,0.32053 0.409553,0.4808 0.872545,0.48079 l 0.979389,0 0,3.13404 -2.030005,0 -0.01781,0 -1.246494,0 m -1.299916,3.36554 2.42176,1.63825 -1.567021,2.06561 -2.42176,-1.56702 1.567021,-2.13684 m -1.638249,3.08062 2.42176,1.63825 -1.567021,2.10123 -2.42176,-1.60264 1.567021,-2.13684 m -2.688866,-3.09843 2.42176,1.63825 -1.567021,2.06562 -2.42176,-1.56702 1.567021,-2.13685" id="path3411"></path><path d="m 52.673085,140.06007 c -0.403634,1e-5 -1.472056,1e-5 -3.20527,0 l -4.255888,0 0,-3.13404 4.149045,0 2.635445,0 0,-0.51641 c -0.05936,-0.64104 -0.178077,-1.17525 -0.356141,-1.60263 l -1.264301,-2.65325 c 0.07122,-0.27303 0.44517,-1.24055 1.121844,-2.90255 0.01187,-0.0356 0.02374,-0.0653 0.03561,-0.089 0.427363,0.49862 0.920024,1.44239 1.477986,2.83132 l 0.30272,0.87255 c 0.15432,0.53422 0.320519,1.22276 0.498598,2.06562 l 0.249299,1.35333 c 0.01186,0.0712 0.02967,0.12466 0.05342,0.16027 0.118705,0.32053 0.409553,0.4808 0.872546,0.48079 l 0.979388,0 0,3.13404 -2.030005,0 -0.01781,0 -1.246494,0 m -1.317722,5.98317 2.42176,1.63825 -1.567021,1.99439 -2.42176,-1.56702 1.567021,-2.06562 m -4.309309,0 2.421761,1.63825 -1.567022,1.99439 -2.42176,-1.56702 1.567021,-2.06562" id="path3413"></path><path d="m 45.229731,140.06007 0,-3.13404 -0.890353,0 c -0.106856,1e-5 -0.255248,-0.29084 -0.445176,-0.87255 -0.0475,-0.13057 -0.08311,-0.25522 -0.106843,-0.37395 l -0.801317,-2.33272 c -0.213697,-0.56981 -0.427382,-1.06841 -0.641055,-1.49579 -0.831006,-1.65011 -1.935043,-3.27648 -3.312112,-4.87914 -0.296793,-0.33238 -0.587641,-0.64697 -0.872546,-0.94377 -0.28492,0.75979 -0.646997,1.79259 -1.086231,3.09843 1.127773,0.78352 2.225874,1.89943 3.294306,3.34772 0.557944,0.85476 1.032799,1.69169 1.424565,2.5108 0.18993,0.53422 0.284901,0.87849 0.284913,1.03281 l -0.05342,0.32053 -0.160263,0.2671 c -0.237438,0.2137 -0.694486,0.32054 -1.371144,0.32053 l -0.284913,0 -5.342117,0 c -0.474859,1e-5 -0.813193,-0.0712 -1.015003,-0.21369 -0.166202,-0.1187 -0.296787,-0.23741 -0.391755,-0.35614 -0.07123,-0.0831 -0.130588,-0.27303 -0.178071,-0.56982 -0.02374,-0.095 -0.03562,-0.33833 -0.03561,-0.73009 -0.213687,0.23744 -0.356143,0.40364 -0.427369,0.4986 -0.142458,0.22556 -0.225558,0.44518 -0.249299,0.65886 l -0.03561,0.92596 0.01781,0.30272 c 0.05936,0.43925 0.166197,0.83694 0.320527,1.19308 0.178068,0.4155 0.385817,0.71822 0.623247,0.90816 0.403624,0.34427 0.8488,0.51641 1.33553,0.5164 l 10.399322,0" id="path3415"></path><path d="m 20.4245,140.06007 4.487378,0 c 0.759763,1e-5 1.388945,-0.11871 1.887549,-0.35614 0.510462,-0.24929 0.955638,-0.56982 1.335529,-0.96158 0.344262,-0.36801 0.575753,-0.82505 0.694475,-1.37114 0.07122,-0.32052 0.106834,-0.68853 0.106843,-1.10404 -9e-6,-0.16619 -0.0059,-0.3502 -0.01781,-0.55202 -0.02375,-0.93783 -0.160272,-1.88754 -0.409563,-2.84913 -0.18995,-0.74788 -0.445184,-1.43642 -0.765703,-2.06562 -0.36802,-0.70039 -0.706354,-1.24648 -1.015003,-1.63825 l -1.193073,2.93817 c 0.04748,0.0475 0.314586,0.59358 0.801318,1.63825 0.462977,0.98533 0.730083,1.61451 0.801318,1.88754 l 0.05342,0.4986 -0.03561,0.21369 c -0.20182,0.39176 -0.931909,0.58764 -2.190268,0.58763 l -4.5408,0 0,3.13404 m 6.143435,5.98317 2.42176,1.63825 -1.567021,1.99439 -2.42176,-1.56702 1.567021,-2.06562 m -4.309308,0 2.42176,1.63825 -1.567022,1.99439 -2.42176,-1.56702 1.567022,-2.06562" id="path3417"></path><path d="m 17.860283,135.53708 -0.338334,-2.65325 c -0.04749,-0.49859 -0.207755,-1.89941 -0.480791,-4.20247 -0.118719,-1.00905 -0.373953,-2.5642 -0.765703,-4.66545 -0.39176,-2.06559 -0.759772,-3.51984 -1.104038,-4.36273 -0.04749,-0.10681 -0.09497,-0.21366 -0.142456,-0.32053 l -1.656057,3.38335 c 0.344268,0.67669 0.563888,1.24651 0.658861,1.70947 -2e-6,0.0356 0.0059,0.0772 0.01781,0.12465 l 0.658862,3.61484 c 0.03561,0.2137 0.06529,0.42738 0.08903,0.64105 0.20181,1.62639 0.344266,2.93224 0.427369,3.91755 0.11871,1.51955 0.261167,2.92037 0.42737,4.20247 0.05935,0.45112 0.178066,0.94378 0.356141,1.47798 0.106838,0.34428 0.332394,0.70636 0.676668,1.08624 l 0.08904,0.089 c 0.356136,0.30866 0.836926,0.46893 1.442372,0.48079 l 0.783511,0 c -7e-6,1e-5 0.462976,1e-5 1.38895,0 l 0,-3.13404 -1.353336,0 -0.498598,0 c -0.249305,1e-5 -0.457054,-0.37394 -0.623247,-1.12185 -0.02375,-0.0831 -0.04156,-0.17212 -0.05342,-0.2671" id="path3419"></path></g></svg>
</svg>