<?xml version="1.0" encoding="UTF-8" standalone="no"?>
<svg
	xmlns="http://www.w3.org/2000/svg"
	xmlns:dc="http://purl.org/dc/elements/1.1/"
	xmlns:cc="http://creativecommons.org/ns#"
	xmlns:rdf="http://www.w3.org/1999/02/22-rdf-syntax-ns#"
	xmlns:svg="http://www.w3.org/2000/svg"
	xmlns:xlink="http://www.w3.org/1999/xlink"
	xmlns:sodipodi="http://sodipodi.sourceforge.net/DTD/sodipodi-0.dtd"
	xmlns:inkscape="http://www.inkscape.org/namespaces/inkscape"
	version="1.1"
	viewBox="0 0 135px 155px">
	<svg xmlns:dc="http://purl.org/dc/elements/1.1/" xmlns:cc="http://creativecommons.org/ns#" xmlns:rdf="http://www.w3.org/1999/02/22-rdf-syntax-ns#" xmlns:svg="http://www.w3.org/2000/svg" xmlns:sodipodi="http://sodipodi.sourceforge.net/DTD/sodipodi-0.dtd" xmlns:inkscape="http://www.inkscape.org/namespaces/inkscape" version="1.1" id="svg3857" inkscape:version="0.46" sodipodi:docname="Wikipedia-logo-v2-gv-v2.svg" x="0px" y="0px" width="135px" height="155px" viewBox="0 0 135 155" enable-background="new 0 0 135 155" xml:space="preserve" sodipodi:version="0.32" inkscape:output_extension="org.inkscape.output.svg.inkscape" xmlns:xlink="http://www.w3.org/1999/xlink" xmlns:svgjs="http://svgjs.com/svgjs"><metadata id="metadata698"><rdf:RDF><cc:Work rdf:about=""><dc:format>image/svg+xml</dc:format><dc:type rdf:resource="http://purl.org/dc/dcmitype/StillImage"></dc:type></cc:Work></rdf:RDF></metadata><defs id="defs3"></defs><sodipodi:namedview id="namedview4848" showgrid="false" pagecolor="#ffffff" objecttolerance="10" guidetolerance="10" inkscape:cy="7.4687207" inkscape:guide-bbox="true" showguides="true" inkscape:zoom="3.6960535" inkscape:pageopacity="0" gridtolerance="10" inkscape:window-height="723" bordercolor="#666666" inkscape:window-y="24" borderopacity="1" inkscape:pageshadow="2" inkscape:window-x="0" inkscape:window-width="1024" inkscape:cx="67.439" inkscape:current-layer="svg3857" inkscape:window-maximized="0">
	<sodipodi:guide id="globe_top" orientation="0,1" position="0,140"></sodipodi:guide>
	<sodipodi:guide id="globe_left" orientation="1,0" position="16,0"></sodipodi:guide>
	<sodipodi:guide id="globe_right" orientation="1,0" position="119,0"></sodipodi:guide>
	<sodipodi:guide id="globe_bottom" orientation="0,1" position="0,47"></sodipodi:guide>
	<sodipodi:guide id="wordmark_top" orientation="0,1" position="8,40"></sodipodi:guide>
	<sodipodi:guide id="wordmark_bottom" orientation="0,1" position="8,22.5"></sodipodi:guide>
	<sodipodi:guide id="subtitle_top" orientation="0,1" position="0,17"></sodipodi:guide>
	<sodipodi:guide id="subtitle_bottom" orientation="0,1" position="0,8"></sodipodi:guide>
	<sodipodi:guide id="wordmark_left" orientation="1,0" position="8,40"></sodipodi:guide>
	<sodipodi:guide id="wordmark_right" orientation="1,0" position="127,40"></sodipodi:guide>
</sodipodi:namedview><g id="Wikipedia">
	<path id="path3898" d="M18.757,118.893c0,0-0.367-0.746-0.492-0.994c-0.834-1.652-0.816-1.74-1.659-1.852   c-0.236-0.031-0.358-0.061-0.358-0.178v-0.523l0.071-0.051c1.523-0.002,4.912-0.002,4.912-0.002l0.13,0.043v0.521   c0,0.119-0.085,0.18-0.258,0.18l-0.356,0.051c-0.9,0.07-0.753,0.438-0.155,1.629l5.677,11.615l0.194,0.053l5.04-11.961   c0.175-0.482,0.148-0.824-0.077-1.025c-0.226-0.195-0.385-0.312-0.969-0.336l-0.473-0.023c-0.058,0-0.113-0.021-0.166-0.061   c-0.052-0.037-0.079-0.086-0.079-0.145v-0.498l0.072-0.051c1.42,0,5.694,0,5.694,0l0.058,0.051v0.498   c0,0.135-0.077,0.203-0.229,0.203c-0.746,0.033-1.299,0.195-1.657,0.484c-0.359,0.291-0.639,0.691-0.84,1.213   c0,0-4.635,10.608-6.221,14.135c-0.607,1.156-1.204,1.05-1.729-0.033c-1.109-2.284-4.232-9.213-4.232-9.213L18.757,118.893z"></path>
	<path id="path3900" d="M27.853,115.287c0,0-3.203-0.01-4.629,0l-0.071,0.051v0.496c0,0.061,0.026,0.109,0.078,0.146   c0.053,0.039,0.107,0.059,0.165,0.059l0.229,0.025c0.583,0.023,0.851,0.177,0.931,0.272c0.139,0.17,0.208,0.354-0.129,1.089   l-5.98,11.928l-0.157-0.041c0,0-4.283-9.031-5.523-12.053c-0.129-0.312-0.187-0.545-0.187-0.688c0-0.307,0.277-0.473,0.831-0.496   l0.646-0.027c0.171,0,0.258-0.066,0.258-0.203v-0.496l-0.058-0.051c0,0-5.13-0.006-6.19,0l-0.058,0.051v0.521   c0,0.094,0.119,0.152,0.358,0.178c0.651,0.035,1.079,0.139,1.285,0.312c0.205,0.175,0.422,0.617,0.71,1.306   c1.557,3.74,4.865,10.414,6.476,14.215c0.464,1.038,1.047,1.199,1.755-0.032c1.226-2.273,4.55-9.218,4.55-9.218l2.618-4.896   c0.305-0.518,0.599-0.979,0.748-1.193c0.273-0.393,0.426-0.467,1.172-0.502c0.152,0,0.229-0.068,0.229-0.205v-0.496L27.853,115.287   z"></path>
	<path id="path3904" d="M37.592,130.77c0,0.572,0.26,0.91,1.092,0.988l0.546,0.053c0.078,0,0.156,0.051,0.156,0.155v0.546   l-0.026,0.053c0,0-1.976-0.053-2.782-0.053c-0.728,0-2.756,0.053-2.756,0.053l-0.052-0.053v-0.546c0-0.104,0.078-0.155,0.182-0.155   l0.52-0.053c0.858-0.078,1.118-0.494,1.118-0.988v-8.658c0-0.57-0.313-0.729-1.118-0.805l-0.52-0.054   c-0.104,0-0.182-0.024-0.182-0.104v-0.599l0.026-0.052c0,0,2.054,0.052,2.86,0.052c0.702,0,2.704-0.052,2.704-0.052l0.026,0.052   v0.572c0,0.078-0.052,0.13-0.156,0.13l-0.546,0.053c-0.806,0.077-1.092,0.286-1.092,0.807V130.77z"></path>
	<path id="path3906" d="M45.265,130.77c0,0.572,0.338,0.858,1.092,0.988l0.286,0.053c0.078,0.025,0.156,0.051,0.156,0.155v0.546   l-0.026,0.053c0,0-1.638-0.053-2.418-0.053c-0.728,0-2.86,0.053-2.86,0.053l-0.052-0.053v-0.546c0-0.104,0.078-0.155,0.182-0.155   l0.52-0.053c0.78-0.078,1.118-0.494,1.118-0.988v-8.658c0-0.57-0.286-0.729-1.118-0.805l-0.52-0.054   c-0.104,0-0.182-0.024-0.182-0.104v-0.599l0.026-0.052c0,0,2.132,0.052,2.938,0.052c0.729,0,2.366-0.052,2.366-0.052l0.026,0.052   v0.572c0,0.078-0.052,0.104-0.156,0.13l-0.286,0.053c-0.806,0.155-1.092,0.286-1.092,0.807v3.927c0.858,0,1.352-0.44,2.496-1.664   c1.04-1.146,1.846-2.104,1.846-2.601c0-0.209-0.234-0.441-0.754-0.521c-0.104-0.024-0.156-0.052-0.156-0.13v-0.6l0.026-0.024   c0,0,2.106,0.052,2.86,0.052c0.676,0,1.82-0.052,1.82-0.052l0.078,0.024v0.6c0,0.078-0.078,0.13-0.208,0.13   c-1.014,0.078-1.716,0.13-2.652,1.196l-2.236,2.572c-0.442,0.47-0.598,0.754-0.598,0.963c0,0.156,0.104,0.285,0.234,0.441   l3.926,4.732c0.312,0.363,0.936,0.52,1.456,0.623l0.13,0.025c0.078,0.025,0.182,0.077,0.182,0.155v0.546l-0.078,0.026   c0,0-1.378-0.026-2.106-0.026c-0.65,0-1.586,0.026-1.586,0.026l-0.026-0.026v-0.312c0-0.339-0.026-0.623-0.39-1.039l-2.886-3.589   c-0.39-0.521-0.806-0.649-1.378-0.649V130.77L45.265,130.77z"></path>
	<path id="path3908" d="M59.282,130.77c0,0.572,0.26,0.91,1.092,0.988l0.546,0.053c0.078,0,0.156,0.051,0.156,0.155v0.546   l-0.026,0.053c0,0-1.976-0.053-2.782-0.053c-0.728,0-2.756,0.053-2.756,0.053l-0.052-0.053v-0.546c0-0.104,0.078-0.155,0.182-0.155   l0.52-0.053c0.858-0.078,1.118-0.494,1.118-0.988v-8.658c0-0.57-0.312-0.729-1.118-0.805l-0.52-0.054   c-0.104,0-0.182-0.024-0.182-0.104v-0.599l0.026-0.052c0,0,2.054,0.052,2.86,0.052c0.702,0,2.704-0.052,2.704-0.052l0.026,0.052   v0.572c0,0.078-0.052,0.13-0.156,0.13l-0.546,0.053c-0.806,0.077-1.092,0.286-1.092,0.807V130.77z"></path>
	<path id="path3910" d="M64.9,122.163c0-0.806-0.338-0.832-1.56-0.91c-0.156,0-0.182-0.077-0.182-0.13v-0.598l0.052-0.026   c0.39,0,1.924,0.052,2.678,0.052c0.728,0,1.768-0.052,2.73-0.052c3.69,0,4.366,1.819,4.366,3.173c0,1.561-0.754,4.004-4.444,4.004   c-0.65,0-1.17-0.053-1.639-0.26v3.482c0,0.571,0.312,0.703,1.145,0.832l0.521,0.078c0.104,0.025,0.183,0.053,0.183,0.155v0.546   l-0.024,0.053c0,0-2.081-0.053-2.887-0.053c-0.728,0-2.678,0.053-2.678,0.053l-0.026-0.053v-0.546c0-0.104,0.052-0.13,0.156-0.155   l0.546-0.078c0.806-0.104,1.066-0.338,1.066-0.832L64.9,122.163L64.9,122.163L64.9,122.163z M66.902,126.688   c0.52,0.209,1.17,0.234,1.69,0.234c1.561,0,2.312-0.938,2.312-2.938c0-2.236-1.014-2.73-2.442-2.73   c-1.249,0-1.561,0.234-1.561,0.91L66.902,126.688L66.902,126.688z"></path>
	<path id="path3912" d="M77.462,132.512c-0.78,0-2.573,0.053-2.573,0.053l-0.027-0.053v-0.572c0-0.051,0.027-0.129,0.156-0.129   l0.6-0.053c0.807-0.078,1.041-0.598,1.041-1.117v-8.58c0-0.6-0.312-0.703-1.041-0.754l-0.6-0.054   c-0.156-0.024-0.156-0.077-0.156-0.104v-0.599l0.027-0.052c0,0,2.027,0.052,2.807,0.052h3.822c0.78,0,2.627-0.052,2.627-0.052   l0.054,0.052c0.024,1.118,0.206,2.134,0.39,3.121l-0.648,0.104c-0.285-0.963-0.779-2.34-2.443-2.34h-2.08   c-0.494,0-0.754,0.182-0.754,0.623v3.771h1.949c0.729,0,0.91-0.312,1.015-0.832l0.155-0.546c0-0.078,0.053-0.131,0.156-0.131h0.44   c0.054,0,0.054,0.027,0.054,0.078c-0.054,0.571-0.156,1.301-0.156,1.925c0,0.649,0.104,1.196,0.156,1.794l-0.054,0.053h-0.44   c-0.129,0-0.184-0.053-0.184-0.131l-0.13-0.571c-0.104-0.521-0.338-0.807-1.017-0.807H78.66v3.979c0,0.492,0.283,0.986,0.754,0.986   h2.47c1.326,0,2.056-0.832,2.366-2.186l0.648,0.078l-0.521,2.989l-0.052,0.052c0,0-1.534-0.052-2.314-0.052L77.462,132.512   L77.462,132.512L77.462,132.512z"></path>
	<path id="path3914" d="M87.24,131.811l0.598-0.053c0.781-0.078,1.041-0.312,1.041-1.117v-8.58c0-0.678-0.184-0.678-1.041-0.754   l-0.57-0.054c-0.104,0-0.184-0.052-0.184-0.13v-0.572l0.025-0.052c0,0,2.289,0.052,2.758,0.052c0.492,0,2.756-0.052,3.432-0.052   c4.342,0,6.475,2.704,6.475,6.162c0,4.551-3.225,5.901-6.109,5.901c-2.08,0-2.989-0.053-3.795-0.053   c-0.781,0-2.758,0.053-2.758,0.053l-0.025-0.053v-0.546C87.084,131.889,87.137,131.811,87.24,131.811z M93.039,131.811   c2.859,0,4.473-1.064,4.473-4.707c0-2.703-0.599-5.851-4.967-5.851c-1.014,0-1.664,0.156-1.664,0.808v8.58   C90.881,131.367,91.062,131.811,93.039,131.811z"></path>
	<path id="path3916" d="M105.912,130.77c0,0.572,0.26,0.91,1.092,0.988l0.546,0.053c0.078,0,0.156,0.051,0.156,0.155v0.546   l-0.026,0.053c0,0-1.976-0.053-2.781-0.053c-0.729,0-2.756,0.053-2.756,0.053l-0.053-0.053v-0.546c0-0.104,0.078-0.155,0.182-0.155   l0.521-0.053c0.857-0.078,1.118-0.494,1.118-0.988v-8.658c0-0.57-0.313-0.729-1.118-0.805l-0.521-0.054   c-0.104,0-0.182-0.024-0.182-0.104v-0.599l0.026-0.052c0,0,2.054,0.052,2.858,0.052c0.701,0,2.705-0.052,2.705-0.052l0.024,0.052   v0.572c0,0.078-0.054,0.13-0.156,0.13l-0.546,0.053c-0.807,0.077-1.092,0.286-1.092,0.807L105.912,130.77L105.912,130.77   L105.912,130.77z"></path>
	<path id="path3918" d="M113.922,131.758l0.754,0.053c0.104,0,0.208,0.078,0.208,0.207v0.494l-0.052,0.053   c0,0-2.834-0.053-3.458-0.053c-0.677,0-2.341,0.053-2.341,0.053l-0.053-0.053v-0.494c0-0.129,0.078-0.207,0.209-0.207   c1.145-0.078,1.793-0.287,2.521-1.951l5.771-13.521c0.285-0.676,0.494-0.937,0.886-0.937c0.362,0,0.493,0.261,0.7,0.781   l5.33,14.092c0.365,1.015,0.886,1.404,1.926,1.508l0.285,0.025c0.131,0,0.261,0.077,0.261,0.209v0.492l-0.078,0.053   c0,0-2.002-0.053-3.017-0.053c-0.91,0-3.459,0.053-3.459,0.053l-0.024-0.053v-0.492c0-0.132,0.052-0.209,0.185-0.209l0.728-0.053   c0.987-0.077,1.353-0.391,1.092-1.117l-1.586-4.396H115.3c-0.624,0-0.78,0.104-0.909,0.44l-1.509,3.771   C112.622,131.107,112.96,131.68,113.922,131.758z M120.292,125.152l-2.522-6.941h-0.052l-2.6,6.604   c-0.104,0.262,0.077,0.338,0.649,0.338H120.292L120.292,125.152z"></path>
</g><path transform="translate(-114.6758,-19.538681)" d="M 136.74019,166.46723 C 136.71476,166.40103 136.71788,166.20379 136.74499,166.16302 C 136.75734,166.14442 136.90272,166.12162 137.07081,166.11192 C 137.72016,166.07432 137.92037,165.92692 137.9975,165.42979 C 138.01802,165.29755 138.02671,164.76446 138.02093,163.99313 C 138.01173,162.76772 138.01163,162.76663 137.93938,162.63015 C 137.80326,162.37319 136.01383,159.36767 135.8641,159.14452 C 135.7819,159.02201 135.66261,158.87127 135.59902,158.80956 C 135.46437,158.67888 135.22687,158.59329 134.99895,158.59329 C 134.84946,158.59329 134.84352,158.59029 134.80953,158.48695 C 134.79023,158.42845 134.78342,158.33968 134.79441,158.28966 L 134.81439,158.19876 L 136.20894,158.19876 L 137.60349,158.19876 L 137.63466,158.28076 C 137.65354,158.33046 137.65582,158.40521 137.64046,158.47046 L 137.61509,158.57817 L 137.29742,158.59717 C 137.1227,158.60767 136.96316,158.61787 136.94288,158.61997 C 136.87247,158.62697 136.84205,158.73279 136.87936,158.84075 C 136.92378,158.9693 138.65275,162.01939 138.72272,162.09263 C 138.7802,162.15283 138.84593,162.14053 138.8953,162.06053 C 138.91312,162.03163 139.29375,161.31963 139.74116,160.4783 C 140.60691,158.85028 140.65779,158.73005 140.51368,158.65292 C 140.47515,158.63232 140.31987,158.60872 140.1686,158.60052 C 140.01734,158.59252 139.87651,158.57202 139.85564,158.55542 C 139.81366,158.52202 139.8047,158.29662 139.84295,158.23635 C 139.86197,158.20635 140.11121,158.19975 140.98611,158.20605 L 142.10495,158.21405 L 142.12735,158.29785 C 142.13967,158.34395 142.13715,158.42736 142.12175,158.48323 L 142.0937,158.58482 L 141.8587,158.60272 C 141.72945,158.61272 141.57152,158.63592 141.50773,158.65462 C 141.35612,158.69902 141.17875,158.86197 141.05022,159.07496 C 140.89347,159.33469 139.20924,162.38532 139.14596,162.52411 C 139.09513,162.63559 139.09055,162.75362 139.08994,163.96786 C 139.08953,164.79624 139.10164,165.35712 139.12239,165.46934 C 139.20758,165.93019 139.41104,166.07412 140.0302,166.11153 C 140.18879,166.12153 140.33562,166.14243 140.35649,166.15893 C 140.37736,166.17543 140.39443,166.24083 140.39443,166.30416 C 140.39443,166.53445 140.56005,166.5154 138.55811,166.5154 C 136.94523,166.5154 136.75673,166.5104 136.74022,166.4674 L 136.74019,166.46723 z M 148.06972,166.60724 C 147.12026,166.48662 146.43911,165.96075 146.10275,165.08868 C 145.79894,164.30101 145.82793,163.24853 146.17506,162.46362 C 146.43491,161.87605 147.01783,161.30989 147.62137,161.05889 C 148.13384,160.84577 148.74069,160.81569 149.35644,160.97289 C 149.70679,161.06229 149.90738,161.16472 150.12969,161.36757 C 150.37825,161.59438 150.49879,161.88635 150.4575,162.16164 C 150.38917,162.61731 149.65476,162.80476 149.45457,162.41763 C 149.42882,162.36783 149.38734,162.21 149.36238,162.06686 C 149.28678,161.63335 149.12867,161.40084 148.85375,161.31889 C 148.78356,161.29799 148.59637,161.28059 148.43778,161.28039 C 148.17526,161.27996 148.13082,161.28839 147.94161,161.37809 C 147.38936,161.63905 147.05925,162.26989 146.98298,163.20999 C 146.91814,164.00926 147.07305,164.75226 147.40938,165.25512 C 147.85474,165.92098 148.50635,166.16696 149.22695,165.94123 C 149.51607,165.85063 149.78038,165.68088 150.04698,165.41447 C 150.26284,165.19878 150.28941,165.18127 150.3601,165.20814 C 150.51722,165.26784 150.51421,165.3345 150.34338,165.57832 C 150.115,165.90426 149.76669,166.23645 149.51416,166.36915 C 149.10779,166.58269 148.5719,166.67101 148.06973,166.60721 L 148.06973,166.60721 L 148.06972,166.60724 z M 151.08108,166.49501 C 151.05578,166.46971 151.05447,166.2333 151.07928,166.16868 C 151.09237,166.13458 151.13795,166.12068 151.23664,166.12068 C 151.40827,166.12068 151.69154,166.04318 151.77796,165.9725 C 151.87318,165.8947 151.93346,165.75999 151.97097,165.54126 C 151.99423,165.40564 152.00165,164.33061 151.99547,161.99276 C 151.98697,158.76923 151.98435,158.63366 151.92865,158.50598 C 151.85697,158.34166 151.71358,158.26973 151.39951,158.24054 C 151.28014,158.22944 151.16879,158.20384 151.15206,158.18374 C 151.13533,158.16354 151.1132,158.08554 151.10288,158.01024 L 151.08412,157.8734 L 151.30771,157.8518 C 151.61384,157.8222 152.29076,157.69661 152.63632,157.60534 C 152.79334,157.56384 152.94601,157.53764 152.97558,157.54694 C 153.02594,157.56294 153.02853,157.62764 153.01651,158.57188 C 152.98178,161.30059 152.97934,161.92349 153.00322,161.96212 C 153.02286,161.99392 153.09645,161.94002 153.3071,161.73953 C 153.64537,161.41762 153.84808,161.26534 154.11996,161.1289 C 154.42275,160.97694 154.73159,160.89818 155.09771,160.87954 C 155.78137,160.84474 156.20614,161.05789 156.4372,161.55166 C 156.61018,161.9213 156.62012,162.0339 156.64358,163.88979 C 156.66249,165.3855 156.67129,165.60573 156.71688,165.7246 C 156.74538,165.7989 156.79224,165.88624 156.82101,165.91871 C 156.90309,166.01131 157.11184,166.0908 157.32536,166.11074 C 157.5372,166.13054 157.55548,166.14944 157.55537,166.34833 C 157.55528,166.5237 157.617,166.51657 156.17323,166.508 L 154.83972,166.5 L 154.83002,166.38148 C 154.81178,166.15866 154.83242,166.13159 155.03686,166.11022 C 155.2295,166.09012 155.41158,166.01422 155.4989,165.91764 C 155.52757,165.88594 155.57254,165.77605 155.59882,165.67346 C 155.63997,165.51284 155.64527,165.26644 155.63698,163.89916 C 155.62848,162.50053 155.6212,162.29313 155.57567,162.15824 C 155.46396,161.8273 155.24949,161.6081 154.9622,161.53126 C 154.78253,161.48326 154.4256,161.53326 154.14388,161.64607 C 153.71311,161.81852 153.19939,162.22564 153.0747,162.49339 L 153.00398,162.64525 L 153.00369,164.04347 C 153.00339,165.44 153.01898,165.70251 153.11308,165.88445 C 153.17066,165.9958 153.36625,166.09169 153.57637,166.11159 C 153.76943,166.12989 153.8229,166.17529 153.8229,166.3212 C 153.8229,166.52967 153.92598,166.51518 152.44368,166.51518 C 151.70538,166.51518 151.0922,166.50618 151.08107,166.49498 L 151.08108,166.49501 z M 158.06992,166.43326 C 158.05101,166.38356 158.04875,166.30889 158.06412,166.24356 C 158.08944,166.13627 158.09035,166.13576 158.29304,166.11561 C 158.55488,166.08961 158.77427,166.01611 158.85887,165.92602 C 159.01993,165.75458 159.02531,165.69267 159.03645,163.88277 C 159.04709,162.15444 159.03535,161.92739 158.92781,161.78236 C 158.84659,161.67282 158.68783,161.60241 158.42931,161.56127 C 158.21001,161.52637 158.19774,161.52017 158.18093,161.43616 C 158.15487,161.30586 158.1594,161.20358 158.19124,161.20358 C 158.31435,161.20358 159.37547,161.00178 159.58443,160.93862 C 159.72929,160.89482 159.89562,160.85802 159.95405,160.85682 L 160.06028,160.85482 L 160.05698,161.09764 C 160.01311,164.30796 160.01046,164.95924 160.03986,165.29374 C 160.0781,165.72872 160.13956,165.89899 160.29167,165.99138 C 160.40706,166.06148 160.65642,166.12095 160.83471,166.12095 C 160.96815,166.12095 161.0164,166.17615 161.0164,166.32894 C 161.0164,166.52922 161.12465,166.51554 159.54031,166.51554 L 158.10107,166.51554 L 158.0699,166.43354 L 158.0699,166.43354 L 158.06992,166.43326 z M 159.29233,159.38989 C 158.79758,159.12455 158.76713,158.55795 159.23326,158.29063 C 159.50065,158.13728 159.75607,158.1751 159.95077,158.39685 C 160.20011,158.68082 160.19813,158.97081 159.94507,159.23094 C 159.75284,159.42856 159.4857,159.49361 159.2923,159.38989 L 159.29233,159.38989 z M 163.87771,166.60436 C 163.55623,166.56256 163.31962,166.49052 163.01976,166.34323 C 162.78008,166.2255 162.68725,166.15738 162.46905,165.93918 C 162.23655,165.70669 162.18744,165.63713 162.03867,165.3296 C 161.81781,164.87306 161.74433,164.57586 161.72311,164.05325 C 161.66729,162.67848 162.25464,161.6192 163.36293,161.09582 C 163.73137,160.92182 163.91981,160.88455 164.41589,160.88752 C 164.91539,160.89052 165.2574,160.95642 165.58523,161.11289 C 166.22261,161.41709 166.49133,162.09363 166.11653,162.45053 C 165.86618,162.68894 165.44184,162.68269 165.28168,162.43823 C 165.25657,162.39993 165.2148,162.24646 165.18883,162.09719 C 165.09998,161.58656 164.96031,161.40028 164.59629,161.30692 C 164.14433,161.191 163.66277,161.33652 163.35335,161.68243 C 162.93305,162.15233 162.7161,163.02858 162.80435,163.89981 C 162.85192,164.36941 162.93336,164.67951 163.09954,165.02365 C 163.34319,165.52824 163.80171,165.91342 164.26068,165.99908 C 164.81227,166.10202 165.33721,165.91668 165.83082,165.44482 L 166.11181,165.17619 L 166.20203,165.22289 C 166.25165,165.24859 166.29835,165.28689 166.30581,165.30809 C 166.32726,165.36909 166.03001,165.77921 165.79463,166.0133 C 165.29344,166.51176 164.66219,166.70639 163.87771,166.60435 L 163.87771,166.60435 L 163.87771,166.60436 z M 166.88791,166.41064 C 166.87712,166.35314 166.88101,166.26774 166.89661,166.22094 C 166.92262,166.14274 166.94066,166.13424 167.11974,166.11611 C 167.36683,166.09111 167.55247,166.01671 167.64634,165.90516 C 167.8,165.72255 167.80021,165.71741 167.80021,162.11415 C 167.80021,159.02267 167.79611,158.74698 167.7478,158.59103 C 167.71897,158.49793 167.66823,158.39728 167.63504,158.36724 C 167.56431,158.30324 167.27825,158.2302 167.09558,158.22952 C 166.94662,158.22897 166.90481,158.17742 166.90481,157.99422 L 166.90481,157.8768 L 167.21592,157.8382 C 167.6104,157.7893 168.21996,157.67017 168.50915,157.58552 C 168.78158,157.50582 168.8364,157.52602 168.82361,157.70155 C 168.81891,157.76635 168.8075,159.0861 168.79829,160.63445 C 168.77899,163.88019 168.73929,163.55517 169.12423,163.30283 C 169.41105,163.11481 169.83418,162.73635 170.2647,162.28279 C 170.57208,161.95895 170.72921,161.73374 170.72921,161.61701 C 170.72921,161.53341 170.62047,161.44758 170.47122,161.41335 C 170.38775,161.39425 170.29954,161.36875 170.27521,161.35685 C 170.21558,161.32755 170.17937,161.17557 170.20723,161.07141 L 170.22989,160.98671 L 171.38979,160.98171 C 172.67467,160.97571 172.58071,160.95931 172.58071,161.1902 C 172.58071,161.34776 172.53158,161.38608 172.32957,161.38608 C 172.15358,161.38608 171.77403,161.48458 171.58958,161.5781 C 171.35113,161.69902 171.18511,161.85369 170.62353,162.47811 C 170.00066,163.1707 170.01272,163.13898 170.23988,163.48695 C 170.7803,164.31478 171.69989,165.64341 171.81464,165.76216 C 171.98151,165.93485 172.21717,166.0454 172.52058,166.0933 C 172.77104,166.1328 172.82353,166.1724 172.82353,166.32165 C 172.82353,166.52797 172.88918,166.51563 171.79152,166.51563 L 170.79635,166.51563 L 170.78542,166.28039 C 170.77094,165.96881 170.73109,165.89602 170.03513,164.91017 C 169.31286,163.88703 169.24839,163.82259 168.89726,163.77289 L 168.7802,163.75629 L 168.79424,164.67306 C 168.80967,165.6805 168.8317,165.82628 168.99083,165.97393 C 169.08356,166.05993 169.23751,166.121 169.36182,166.121 C 169.47191,166.121 169.51512,166.1733 169.51512,166.30671 C 169.51512,166.53229 169.62084,166.51559 168.19292,166.51559 L 166.90757,166.51559 L 166.88795,166.41098 L 166.88795,166.41098 L 166.88791,166.41064 z M 173.17591,166.46753 C 173.14464,166.38603 173.15528,166.22595 173.19531,166.17558 C 173.22088,166.14338 173.3062,166.12218 173.45695,166.11058 C 173.77423,166.08608 173.93948,165.99823 174.03758,165.80202 L 174.11346,165.65025 L 174.11346,162.12938 C 174.11346,158.13425 174.13248,158.43285 173.8707,158.31706 C 173.79449,158.28336 173.63635,158.24776 173.51928,158.23796 C 173.3677,158.22526 173.29931,158.20616 173.2817,158.17156 C 173.24272,158.09496 173.22,157.94094 173.24282,157.90808 C 173.25425,157.89168 173.43989,157.85338 173.65536,157.82298 C 174.06907,157.76468 174.59407,157.65934 174.90992,157.57121 C 175.16885,157.49891 175.17858,157.51191 175.16008,157.90388 C 175.15198,158.07445 175.14544,159.8667 175.14544,161.88665 C 175.14544,165.8328 175.14094,165.7171 175.30163,165.90807 C 175.40906,166.03574 175.55747,166.09249 175.83648,166.11258 C 176.10018,166.13158 176.11526,166.14718 176.09606,166.38169 L 176.08636,166.50021 L 174.6404,166.50821 C 173.34156,166.51521 173.19254,166.51121 173.17589,166.46781 L 173.17589,166.46781 L 173.17591,166.46753 z M 176.66643,166.46753 C 176.63517,166.38603 176.64581,166.22594 176.68583,166.17562 C 176.71053,166.14462 176.79633,166.12162 176.93162,166.11002 C 177.05222,166.09962 177.2064,166.06142 177.29891,166.01912 C 177.43148,165.95842 177.47063,165.92122 177.53117,165.7982 L 177.60398,165.65027 L 177.60398,163.7836 C 177.60398,161.99994 177.60138,161.91267 177.54601,161.82115 C 177.46473,161.68685 177.30625,161.6076 177.02566,161.56095 L 176.78447,161.52085 L 176.77537,161.36391 C 176.76627,161.20755 176.76667,161.20692 176.86643,161.19065 C 176.92153,161.18165 177.14416,161.14595 177.36118,161.11125 C 177.5782,161.07655 177.91284,161.00642 178.10482,160.95532 C 178.56625,160.8325 178.60316,160.82696 178.64222,160.87472 C 178.66583,160.90362 178.66707,161.07161 178.64652,161.45914 C 178.63067,161.75828 178.62211,162.80999 178.62749,163.79627 C 178.63639,165.42015 178.6423,165.60227 178.69053,165.72459 C 178.71983,165.79889 178.76734,165.88623 178.79611,165.9187 C 178.88334,166.0171 179.09902,166.09444 179.33635,166.11239 C 179.56063,166.12939 179.56135,166.12969 179.5893,166.23094 C 179.60472,166.28674 179.60725,166.37019 179.5949,166.41628 L 179.57249,166.50008 L 178.1287,166.50808 C 176.83186,166.51508 176.68303,166.51108 176.66638,166.46768 L 176.66638,166.46768 L 176.66643,166.46753 z M 177.86259,159.37485 C 177.61431,159.248 177.44554,158.93104 177.49932,158.69258 C 177.52939,158.55925 177.65562,158.39772 177.80911,158.29615 C 177.91301,158.22735 177.96661,158.21385 178.1353,158.21385 C 178.30936,158.21385 178.35244,158.22555 178.44796,158.29835 C 178.57079,158.39205 178.69522,158.58747 178.72591,158.73489 C 178.79163,159.05058 178.42796,159.44312 178.06977,159.44312 C 178.02935,159.44312 177.93611,159.41242 177.86259,159.37482 L 177.86259,159.37485 z M 179.88873,169.44136 C 179.87993,169.40636 179.87713,169.32443 179.88243,169.25924 L 179.89213,169.14073 L 180.10349,169.11743 C 180.41833,169.08263 180.54561,169.03973 180.65357,168.93174 C 180.83824,168.74707 180.83076,168.89014 180.84071,165.34964 C 180.85061,161.83327 180.85256,161.88051 180.68897,161.72682 C 180.59858,161.64192 180.4105,161.57628 180.18406,161.55067 L 180.00418,161.53027 L 179.98369,161.39362 C 179.97242,161.31842 179.97529,161.24491 179.98999,161.23018 C 180.00472,161.21548 180.22145,161.16978 180.47162,161.12875 C 180.97774,161.04565 181.18749,161.00012 181.5257,160.89972 C 181.65201,160.86222 181.77682,160.83982 181.80305,160.84982 C 181.84479,160.86582 181.8482,160.92682 181.83041,161.33937 C 181.81026,161.80669 181.81063,161.81062 181.8749,161.81062 C 181.9117,161.81062 182.02837,161.73022 182.14484,161.62473 C 182.52295,161.28207 182.9421,161.04102 183.35863,160.9267 C 183.88546,160.78211 184.55065,160.958 185.06226,161.37726 C 185.38761,161.64386 185.72243,162.17859 185.87619,162.67716 C 185.95525,162.93352 185.96005,162.98219 185.96121,163.5407 C 185.96231,164.06806 185.95461,164.16213 185.89088,164.40371 C 185.63163,165.38586 184.98403,166.15719 184.17201,166.45102 C 183.81667,166.5796 183.58778,166.61694 183.15502,166.61694 C 182.73999,166.61694 182.49972,166.58064 182.15616,166.46604 C 182.03249,166.42474 181.91297,166.39804 181.89058,166.40664 C 181.83757,166.42694 181.83139,168.33615 181.88348,168.58528 C 181.95692,168.93619 182.10186,169.03963 182.60902,169.10312 L 182.92732,169.14302 L 182.93703,169.2604 C 182.94233,169.325 182.93953,169.40641 182.93072,169.44139 C 182.91479,169.50489 182.91228,169.50499 181.40967,169.50499 C 179.90706,169.50499 179.90455,169.5049 179.88861,169.44139 L 179.88861,169.44139 L 179.88873,169.44136 z M 183.50144,166.16622 C 183.9552,166.07012 184.33145,165.80572 184.53649,165.43896 C 184.76312,165.03356 184.91548,164.4155 184.91548,163.90155 C 184.91548,163.00795 184.67932,162.27466 184.25245,161.84287 C 183.98586,161.5732 183.77375,161.47103 183.4434,161.45317 C 183.25174,161.44277 183.16347,161.45313 183.02445,161.50217 C 182.66271,161.62982 182.03265,162.12001 181.91323,162.36671 C 181.85159,162.49404 181.84992,162.53792 181.85057,164.01315 C 181.85118,165.41383 181.85547,165.53798 181.90652,165.65018 C 181.97039,165.7904 182.15703,165.96887 182.33447,166.0594 C 182.62191,166.20604 183.1048,166.25023 183.50144,166.1662 L 183.50144,166.16622 z M 188.21015,166.60292 C 187.67961,166.52562 187.24193,166.23277 187.10334,165.86236 C 186.82334,165.11397 187.07161,164.44366 187.81104,163.95166 C 188.26612,163.64886 188.65006,163.50323 189.57457,163.28274 C 189.89175,163.20704 190.182,163.13204 190.21956,163.11596 C 190.28263,163.08896 190.28785,163.06726 190.28785,162.83206 C 190.28785,162.52872 190.22166,162.12345 190.13239,161.88028 C 190.04823,161.65102 189.78862,161.38745 189.5754,161.31479 C 189.29564,161.21949 188.74197,161.27229 188.43799,161.42331 C 188.36202,161.46101 188.26794,161.53973 188.22893,161.59816 C 188.16631,161.69196 188.15989,161.72928 188.1741,161.91686 C 188.1829,162.03372 188.19911,162.17226 188.21001,162.22472 C 188.25669,162.44941 188.03027,162.68076 187.73374,162.71136 C 187.41071,162.74466 187.2364,162.59807 187.2405,162.29642 C 187.2479,161.75484 187.87806,161.18019 188.70889,160.95747 C 189.04373,160.86767 189.57789,160.84747 189.87393,160.91337 C 190.14492,160.97367 190.52108,161.15267 190.70155,161.30722 C 190.94986,161.51987 191.12461,161.88363 191.21771,162.38161 C 191.25697,162.59164 191.27085,162.95139 191.28584,164.1478 L 191.30466,165.65024 L 191.38054,165.80201 C 191.47761,165.99615 191.60561,166.06802 191.82544,166.05183 C 191.91452,166.04483 192.01774,166.01513 192.06493,165.98183 C 192.11054,165.94973 192.16729,165.90973 192.19104,165.89303 C 192.22295,165.87063 192.24956,165.88133 192.29301,165.93433 C 192.37665,166.03624 192.36703,166.0832 192.23799,166.2028 C 191.92526,166.49268 191.64715,166.61121 191.2743,166.61352 C 190.83137,166.61652 190.53757,166.43303 190.35879,166.04251 C 190.31733,165.95191 190.27776,165.87785 190.27086,165.87785 C 190.26396,165.87785 190.11494,165.9868 189.9397,166.11998 C 189.76447,166.25315 189.53607,166.40503 189.43216,166.45748 C 189.12196,166.61407 188.66218,166.66879 188.21015,166.60292 L 188.21015,166.60292 L 188.21015,166.60292 z M 189.30954,166.05966 C 189.54574,165.97666 189.92441,165.74326 190.12351,165.55798 L 190.28785,165.40506 L 190.28785,164.45771 C 190.28785,163.76062 190.27855,163.51036 190.25273,163.51036 C 190.19235,163.51036 189.31163,163.74816 189.07915,163.82723 C 188.6203,163.98329 188.32857,164.22286 188.16182,164.58052 C 187.85662,165.23513 188.08822,165.91187 188.67918,166.09228 C 188.8279,166.13768 189.13238,166.12188 189.30955,166.05968 L 189.30954,166.05966 z M 192.76493,166.46753 C 192.73367,166.38603 192.74431,166.22594 192.78434,166.17562 C 192.80914,166.14442 192.89537,166.12162 193.03327,166.10972 C 193.3411,166.08312 193.54145,165.97722 193.63207,165.79322 L 193.70251,165.65023 L 193.70251,163.79874 C 193.70251,162.08197 193.6986,161.93932 193.64828,161.83839 C 193.57614,161.69357 193.4178,161.60973 193.12418,161.56091 L 192.88299,161.52081 L 192.87389,161.36387 C 192.86479,161.20751 192.86519,161.20688 192.96495,161.19061 C 193.02005,161.18161 193.24268,161.14591 193.4597,161.11121 C 193.67672,161.07651 194.01136,161.00638 194.20334,160.95528 C 194.66477,160.83246 194.70168,160.82692 194.74074,160.87468 C 194.76435,160.90358 194.76559,161.07157 194.74504,161.4591 C 194.72919,161.75824 194.72063,162.80995 194.72601,163.79623 C 194.73491,165.42011 194.74082,165.60223 194.78905,165.72455 C 194.81835,165.79885 194.86586,165.88619 194.89463,165.91866 C 194.98186,166.01706 195.19753,166.0944 195.43487,166.11235 C 195.65914,166.12935 195.65986,166.12965 195.68782,166.2309 C 195.70324,166.2867 195.70577,166.37015 195.69342,166.41624 L 195.67101,166.50004 L 194.22722,166.50804 C 192.93038,166.51504 192.78155,166.51104 192.7649,166.46764 L 192.7649,166.46764 L 192.76493,166.46753 z M 193.97352,159.38569 C 193.72842,159.27437 193.54252,158.93779 193.59576,158.70174 C 193.62775,158.55991 193.75072,158.39998 193.90761,158.29615 C 194.01151,158.22735 194.06511,158.21385 194.23381,158.21385 C 194.40786,158.21385 194.45094,158.22555 194.54646,158.29835 C 194.66929,158.39205 194.79372,158.58747 194.82441,158.73489 C 194.87208,158.96391 194.69742,159.24778 194.4331,159.37086 C 194.24834,159.45686 194.13815,159.46046 193.97352,159.38566 L 193.97352,159.38566 L 193.97352,159.38569 z M 200.57032,166.64371 C 200.53968,166.63671 200.50548,166.58591 200.48822,166.52072 C 200.42407,166.27847 200.39664,166.13101 200.39593,166.0245 C 200.39495,165.87696 200.36932,165.81714 200.3071,165.81714 C 200.27892,165.81714 200.11989,165.91941 199.95371,166.0444 C 199.5656,166.33631 199.17678,166.53354 198.86661,166.59582 C 198.48871,166.67172 198.02737,166.59382 197.61727,166.38581 C 196.84478,165.99336 196.36643,164.92029 196.43019,163.72283 C 196.50453,162.32676 197.30694,161.27208 198.54737,160.94004 C 198.83614,160.86274 199.49028,160.86904 199.77297,160.95184 C 200.20397,161.07809 200.26547,161.09185 200.31463,161.07298 C 200.36008,161.05558 200.36478,160.94934 200.36421,159.95249 C 200.3634,158.54982 200.33927,158.41474 200.06896,158.30035 C 200.01475,158.27735 199.86857,158.25005 199.74414,158.23945 C 199.52666,158.22105 199.51666,158.21675 199.48608,158.12907 C 199.46858,158.07887 199.45427,158.00064 199.45427,157.95521 C 199.45427,157.87481 199.46027,157.87201 199.67433,157.85132 C 199.97729,157.82202 200.65538,157.69608 200.99939,157.60521 C 201.15642,157.56371 201.30666,157.53671 201.33327,157.54511 C 201.37727,157.55911 201.38074,157.90193 201.37164,161.33211 C 201.36424,164.1239 201.37082,165.14566 201.39701,165.26502 C 201.46212,165.56185 201.69427,165.72516 202.11947,165.77327 C 202.28306,165.79177 202.30717,165.80327 202.33143,165.87389 C 202.34769,165.92129 202.34771,165.98645 202.33145,166.03448 C 202.30798,166.10378 202.28164,166.11828 202.14639,166.13589 C 201.65855,166.19949 201.12134,166.36976 200.86725,166.54125 C 200.72991,166.63395 200.65139,166.661 200.57032,166.64361 L 200.57032,166.64361 L 200.57032,166.64371 z M 199.33956,165.96493 C 199.74281,165.79599 200.27997,165.37543 200.33576,165.18498 C 200.35771,165.11008 200.36534,164.58092 200.35904,163.57107 C 200.34984,162.10163 200.34824,162.06595 200.28452,161.94701 C 200.19842,161.78627 199.92629,161.53188 199.74011,161.43808 C 199.35329,161.24322 198.7777,161.2496 198.37866,161.45318 C 198.22644,161.53088 197.93791,161.82176 197.82928,162.00711 C 197.6191,162.36576 197.51208,162.90881 197.51208,163.61659 C 197.51208,164.59454 197.70884,165.248 198.13291,165.67837 C 198.31134,165.85946 198.50982,165.98205 198.70707,166.03301 C 198.85611,166.07151 199.16433,166.03801 199.33956,165.96491 L 199.33956,165.96491 L 199.33956,165.96493 z M 205.87736,166.47731 C 205.87116,166.45641 205.85873,166.41651 205.84978,166.38851 C 205.84088,166.36051 205.84648,166.29081 205.86226,166.23355 C 205.8907,166.13055 205.89321,166.12925 206.09689,166.11217 C 206.46428,166.08137 206.65928,165.95827 206.74601,165.70238 C 206.79692,165.55218 206.82025,159.05497 206.77104,158.72986 C 206.7182,158.3807 206.59098,158.27422 206.18575,158.23996 C 205.9625,158.22106 205.95305,158.21706 205.92238,158.12913 C 205.90488,158.07893 205.89057,158.0007 205.89057,157.95527 C 205.89057,157.87487 205.89657,157.87207 206.11062,157.85138 C 206.41359,157.82208 207.09168,157.69614 207.43569,157.60527 C 207.85173,157.49538 207.84492,157.48955 207.82239,157.9364 C 207.81217,158.13909 207.79482,159.12586 207.78382,160.12922 C 207.76861,161.51796 207.7724,161.9588 207.7997,161.97567 C 207.8218,161.98937 207.94956,161.88847 208.13247,161.71286 C 208.4819,161.37747 208.78616,161.16704 209.09512,161.04707 C 209.82121,160.76512 210.55158,160.82038 210.9833,161.18992 C 211.15286,161.33506 211.30567,161.65606 211.37279,162.00809 C 211.41605,162.23503 211.42824,162.56019 211.44501,163.93529 C 211.45914,165.094 211.47616,165.62331 211.50181,165.70238 C 211.58283,165.95204 211.77671,166.07822 212.13005,166.11121 C 212.33601,166.13041 212.35485,166.15031 212.35474,166.34831 C 212.35465,166.52367 212.41621,166.51655 210.97452,166.50798 L 209.64293,166.49998 L 209.61909,166.40798 C 209.60598,166.35738 209.60609,166.27542 209.61933,166.22586 C 209.64155,166.14266 209.65715,166.13406 209.82173,166.11334 C 210.0989,166.07854 210.26188,165.98283 210.35236,165.80189 L 210.42824,165.65012 L 210.42824,163.99592 C 210.42824,162.34739 210.42799,162.34102 210.35826,162.13919 C 210.2771,161.90433 210.10205,161.68717 209.91834,161.59345 C 209.4866,161.37319 208.7117,161.62715 208.11634,162.1841 C 207.781,162.49777 207.79872,162.38432 207.80903,164.15241 C 207.81773,165.64583 207.81943,165.6837 207.88368,165.82273 C 207.96395,165.99643 208.11716,166.08502 208.3894,166.11517 C 208.55374,166.13337 208.57856,166.14497 208.60305,166.21467 C 208.61829,166.25807 208.6214,166.34341 208.60995,166.40437 L 208.58916,166.51521 L 207.23891,166.51521 C 206.18497,166.51521 205.88617,166.50721 205.87734,166.47731 L 205.87736,166.47731 z M 215.14805,166.60571 C 214.47222,166.51201 214.01668,166.27488 213.60732,165.80367 C 213.05192,165.16436 212.85698,164.05715 213.11805,163.02477 C 213.25397,162.48728 213.4372,162.14007 213.77609,161.77781 C 214.17811,161.34808 214.68056,161.04211 215.14805,160.94235 C 215.43859,160.88035 215.97289,160.90205 216.31661,160.98975 C 216.87424,161.1321 217.19879,161.37778 217.43604,161.83714 C 217.61547,162.18455 217.69632,162.48167 217.71846,162.87496 L 217.73656,163.1957 L 217.64886,163.2657 L 217.56116,163.3357 L 215.80353,163.3142 L 214.0459,163.2927 L 214.06498,163.62609 C 214.11038,164.41959 214.35445,165.06109 214.77938,165.50376 C 215.19322,165.93488 215.6601,166.09025 216.27259,166.00069 C 216.69647,165.93869 217.00484,165.788 217.35349,165.47241 C 217.49136,165.34762 217.51923,165.33419 217.58688,165.35991 C 217.71064,165.40691 217.74265,165.4988 217.67058,165.60003 C 217.58518,165.72 217.21547,166.06401 217.04861,166.17882 C 216.8366,166.32469 216.49646,166.47661 216.22965,166.54461 C 215.95173,166.61541 215.43115,166.64475 215.14816,166.60551 L 215.14805,166.60571 z M 215.90086,162.86041 C 216.37356,162.85041 216.56035,162.83671 216.59541,162.80761 C 216.66301,162.75151 216.63251,162.26272 216.54381,161.9799 C 216.48921,161.806 216.44821,161.74008 216.30599,161.59784 C 216.07038,161.36223 215.86665,161.28569 215.51231,161.29966 C 215.28301,161.30866 215.22506,161.32386 214.99121,161.43625 C 214.6813,161.58514 214.53123,161.72753 214.38118,162.01506 C 214.28193,162.20525 214.15117,162.57465 214.10258,162.80211 L 214.08206,162.89821 L 214.66819,162.88581 C 214.99056,162.87881 215.54528,162.86761 215.9009,162.86041 L 215.9009,162.86041 L 215.90086,162.86041 z M 219.47326,169.45455 C 219.16248,169.33805 219.04742,169.09074 219.18196,168.8284 C 219.32081,168.55764 219.48977,168.48337 219.90882,168.5089 C 220.5165,168.5459 220.60076,168.4598 221.05728,167.33476 C 221.26897,166.81308 221.28824,166.63357 221.17819,166.20822 C 221.08099,165.83263 219.43833,161.99925 219.26127,161.73488 C 219.11986,161.52374 218.9616,161.42269 218.72924,161.39517 C 218.64344,161.38497 218.55375,161.35727 218.53,161.33347 C 218.4835,161.28697 218.4721,161.09157 218.5122,161.02845 C 218.5312,160.99855 218.81598,160.98835 219.78787,160.98295 C 221.03557,160.97595 221.03913,160.97595 221.05504,161.03955 C 221.06404,161.07455 221.06664,161.15623 221.06104,161.22111 C 221.05034,161.35103 221.04674,161.35318 220.72951,161.4154 C 220.63601,161.4337 220.52859,161.4775 220.49088,161.5126 C 220.35528,161.63893 220.39338,161.75746 221.10868,163.43445 C 221.47183,164.28583 221.79058,165.00632 221.81702,165.03554 C 221.88332,165.10884 221.96695,165.10204 222.02145,165.01884 C 222.04665,164.98044 222.36311,164.26677 222.72477,163.43293 C 223.43865,161.78698 223.46964,161.69174 223.33505,161.55714 C 223.25735,161.47944 222.99893,161.38605 222.85939,161.38522 C 222.81649,161.38497 222.76389,161.37362 222.74241,161.36002 C 222.69071,161.32722 222.66371,161.14585 222.69731,161.05665 L 222.72411,160.98555 L 223.76824,160.98652 L 224.81236,160.98749 L 224.83876,161.05759 C 224.87206,161.14599 224.84476,161.32732 224.79336,161.35999 C 224.77186,161.37359 224.72706,161.38499 224.69366,161.38519 C 224.66026,161.38547 224.54877,161.42549 224.44589,161.47419 C 224.19637,161.59223 223.92894,161.86861 223.77265,162.16996 C 223.48529,162.72404 222.80503,164.27268 221.91062,166.40896 C 221.09965,168.34594 220.87852,168.77595 220.50723,169.13798 C 220.22686,169.41136 219.74851,169.55776 219.47305,169.4545 L 219.47326,169.45455 z M 225.28341,166.43326 C 225.26451,166.38356 225.26221,166.30886 225.27741,166.24356 L 225.30281,166.13584 L 225.51421,166.11674 C 225.96257,166.07614 226.12493,165.97478 226.21647,165.6782 C 226.26747,165.51295 226.27197,165.35786 226.27197,163.75321 L 226.27197,162.00795 L 226.20187,161.8656 C 226.11757,161.69448 225.96954,161.61136 225.65911,161.56087 C 225.54546,161.54237 225.44244,161.51247 225.43018,161.49447 C 225.40018,161.45037 225.40068,161.20365 225.43076,161.20365 C 225.44386,161.20365 225.66581,161.16905 225.92399,161.12675 C 226.34389,161.05795 226.72851,160.97213 227.09444,160.86558 C 227.30911,160.80308 227.32508,160.82548 227.29751,161.15003 C 227.26311,161.55497 227.26731,162.00067 227.30551,162.01355 C 227.32311,162.01955 227.41578,161.90922 227.51134,161.76854 C 227.7013,161.48888 228.0177,161.17136 228.23094,161.0464 C 228.69891,160.77215 229.22881,160.83349 229.46936,161.18976 C 229.56136,161.32604 229.5698,161.3567 229.55856,161.51443 C 229.53676,161.81865 229.27258,162.08544 228.98922,162.08935 C 228.84194,162.09135 228.74184,162.03155 228.57064,161.83916 C 228.43359,161.68516 228.27628,161.61042 228.16177,161.64492 C 228.00921,161.69092 227.61214,162.16865 227.43524,162.51909 C 227.27673,162.8331 227.25942,162.99345 227.25884,164.15323 C 227.25812,165.59477 227.29934,165.83388 227.57545,165.98875 C 227.70278,166.06015 227.9862,166.12074 228.19306,166.12074 C 228.33358,166.12074 228.38135,166.17354 228.38135,166.32873 C 228.38135,166.5293 228.49759,166.51533 226.82938,166.51533 L 225.31426,166.51533 L 225.28306,166.43333 L 225.28306,166.43333 L 225.28341,166.43326 z" id="subline" style="fill:#000000;fill-opacity:1;fill-rule:nonzero;stroke:none"></path></svg>
</svg>