<?xml version="1.0" encoding="UTF-8" standalone="no"?>
<!-- Created with Inkscape (http://www.inkscape.org/) -->
<svg xmlns:svg="http://www.w3.org/2000/svg" xmlns="http://www.w3.org/2000/svg" version="1.0" width="135" height="155" viewBox="0 0 135 155" id="svg3857" xml:space="preserve">
<defs id="defs3"></defs>

<g transform="matrix(1.0019273,0,0,1.1255909,-0.1478241,-21.944922)" id="g6053"><path d="M 8.1795644,150.02303 C 8.1670874,149.97553 8.1650614,149.89773 8.1750644,149.8502 L 8.1932484,149.7638 L 8.3973851,149.7468 C 8.7863269,149.7144 8.9525535,149.62228 9.0479121,149.38626 L 9.1048551,149.24531 L 9.1048551,146.3813 C 9.1048551,143.66936 9.1024451,143.50946 9.0593931,143.36993 C 8.9797671,143.11185 8.8076328,143.00852 8.3903728,142.96831 C 8.1954933,142.94951 8.1942578,142.94891 8.1736312,142.86921 C 8.1622212,142.82511 8.1622422,142.75286 8.1736762,142.70872 L 8.1944662,142.62852 L 9.5492491,142.62252 C 10.616712,142.61752 10.908216,142.62272 10.92376,142.64722 C 10.94664,142.68322 10.94991,142.82749 10.92956,142.90329 C 10.91734,142.94879 10.89107,142.95749 10.72356,142.97149 C 10.207837,143.01449 10.062344,143.14992 10.004021,143.64121 C 9.973865,143.89524 9.976391,148.82804 10.006821,149.09766 C 10.040981,149.40042 10.114554,149.5498 10.271305,149.63469 C 10.396453,149.70249 10.614222,149.75194 10.787426,149.75194 C 10.866656,149.75194 10.899526,149.76384 10.918685,149.79974 C 10.949215,149.85674 10.951835,150.02275 10.922985,150.06833 C 10.906485,150.09433 10.635968,150.10163 9.5523676,150.10533 L 8.2023022,150.11033 L 8.1796162,150.02393 L 8.1795644,150.02303 z" id="path6003" style="fill:#000000;fill-opacity:1;fill-rule:nonzero;stroke:none"></path><path d="M 11.376193,150.09691 C 11.351503,150.05691 11.341153,149.9012 11.358983,149.83786 C 11.378243,149.76946 11.390933,149.76236 11.525327,149.74546 C 11.748344,149.71746 11.896442,149.65896 11.976953,149.56731 C 12.114038,149.41118 12.117003,149.36986 12.117003,147.61574 C 12.117003,146.01214 12.116961,146.01081 12.062433,145.89271 C 12.016263,145.79271 11.987433,145.76516 11.875139,145.71375 C 11.802139,145.68035 11.674538,145.64595 11.591578,145.63725 L 11.440743,145.62145 L 11.423963,145.48717 C 11.414763,145.41327 11.416863,145.34418 11.428763,145.33354 C 11.440643,145.32294 11.572572,145.29524 11.721946,145.27204 C 12.069397,145.21814 12.459687,145.12723 12.704119,145.0432 C 12.978752,144.9488 12.981421,144.9527 12.946416,145.39822 C 12.912046,145.83571 12.912226,146.01586 12.947059,146.03739 C 12.962839,146.04739 13.001499,146.01859 13.037089,145.97099 C 13.177183,145.78334 13.62876,145.3628 13.795995,145.26424 C 14.126279,145.06959 14.50072,144.98635 14.840428,145.03206 C 15.221851,145.08336 15.478261,145.25706 15.625758,145.56398 C 15.803007,145.93279 15.832748,146.25864 15.832985,147.83439 C 15.833183,149.11494 15.845165,149.31135 15.934486,149.49737 C 15.996606,149.62673 16.169054,149.71891 16.392477,149.74217 C 16.519563,149.75537 16.547094,149.76667 16.558796,149.81027 C 16.576486,149.87617 16.576846,149.99569 16.559549,150.06004 C 16.546509,150.10854 16.527339,150.10934 15.455018,150.10484 L 14.363757,150.09984 L 14.363757,149.93155 L 14.363757,149.76326 L 14.437827,149.75626 C 14.590171,149.74116 14.773592,149.67356 14.854138,149.60281 C 15.00456,149.47074 15.005692,149.45737 15.005692,147.81312 C 15.005692,146.16034 15.006992,146.17433 14.832367,145.90799 C 14.678761,145.67367 14.503694,145.58759 14.227774,145.61072 C 13.916791,145.63682 13.618264,145.79922 13.27152,146.13101 C 13.135634,146.26104 13.045481,146.37173 12.999932,146.46448 L 12.931752,146.60332 L 12.923652,147.67732 C 12.911392,149.30527 12.943972,149.54817 13.190985,149.67049 C 13.252095,149.70079 13.363196,149.73419 13.437883,149.74479 C 13.568522,149.76339 13.574531,149.76759 13.596188,149.85496 C 13.609748,149.90966 13.609748,149.97655 13.596188,150.02308 L 13.573678,150.10038 L 12.478794,150.10438 C 11.876608,150.10638 11.380426,150.10338 11.376168,150.09638 L 11.376168,150.09638 L 11.376193,150.09691 z" id="path6005" style="fill:#000000;fill-opacity:1;fill-rule:nonzero;stroke:none"></path><path d="M 18.215383,150.17818 C 18.174643,150.17218 18.022938,150.14088 17.878256,150.10798 C 17.680825,150.06298 17.578585,150.05188 17.46844,150.06338 L 17.321682,150.07868 L 17.305872,149.98298 C 17.297172,149.93038 17.289942,149.78738 17.289792,149.66529 C 17.289643,149.54319 17.276742,149.23379 17.261122,148.97772 C 17.228992,148.45097 17.225552,148.46258 17.410844,148.47352 L 17.519825,148.47952 L 17.602185,148.79928 C 17.784625,149.50759 18.003094,149.75875 18.499762,149.83114 C 18.979163,149.90104 19.439037,149.66797 19.548386,149.29975 C 19.591086,149.15597 19.597326,148.84347 19.560176,148.7097 C 19.482206,148.42896 19.234303,148.225 18.563919,147.89002 C 18.033909,147.62519 17.801303,147.46363 17.645721,147.25229 C 17.463439,147.00467 17.388277,146.74283 17.388277,146.35543 C 17.388277,145.89487 17.566883,145.55878 17.951156,145.29621 C 18.27454,145.07526 18.644992,144.99352 19.1221,145.03785 C 19.344891,145.05855 20.16932,145.21568 20.196208,145.24257 C 20.199808,145.24657 20.185888,145.51987 20.165328,145.85084 C 20.139598,146.26501 20.118458,146.45863 20.097528,146.47192 C 20.048908,146.50282 19.862015,146.49492 19.840895,146.46112 C 19.830295,146.44412 19.796995,146.33311 19.766895,146.21437 C 19.702145,145.95894 19.585636,145.72867 19.469593,145.62679 C 19.051316,145.25954 18.429935,145.32098 18.190696,145.75325 C 18.120816,145.87952 18.116666,145.90243 18.117356,146.15867 C 18.117961,146.38366 18.127256,146.45012 18.171376,146.546 C 18.28152,146.78524 18.510185,146.94843 19.083506,147.19695 C 19.511618,147.38253 19.714757,147.51037 19.944593,147.73882 C 20.228637,148.02115 20.358215,148.33441 20.358215,148.73875 C 20.358215,149.13797 20.205946,149.5296 19.965171,149.74966 C 19.798637,149.90186 19.454615,150.07542 19.180514,150.14551 C 19.024823,150.18531 18.914672,150.19471 18.637339,150.19171 C 18.446005,150.18971 18.256127,150.18371 18.215389,150.17771 L 18.215383,150.17818 z" id="path6007" style="fill:#000000;fill-opacity:1;fill-rule:nonzero;stroke:none"></path><path d="M 21.978906,150.15874 C 21.502247,150.02566 21.237745,149.7439 21.144602,149.26999 C 21.052022,148.79898 21.188212,148.3665 21.541753,148.00877 C 21.922084,147.62393 22.294162,147.44232 23.208314,147.19534 C 23.506713,147.11474 23.753757,147.03483 23.772518,147.01288 C 23.798218,146.98278 23.802728,146.90859 23.792128,146.68991 C 23.764568,146.12117 23.65656,145.77672 23.444995,145.58284 C 23.253976,145.4078 23.14529,145.37222 22.851634,145.38861 C 22.464381,145.41021 22.25115,145.49535 22.126225,145.67822 C 22.070945,145.75912 22.068585,145.77742 22.084975,145.9986 C 22.094575,146.1276 22.103495,146.27355 22.104885,146.32294 C 22.109885,146.50034 21.888576,146.68808 21.672979,146.68937 C 21.254014,146.69137 21.191466,146.19535 21.550798,145.71948 C 21.750669,145.45479 22.187458,145.18434 22.578721,145.08302 C 22.822371,145.01992 23.255921,145.00742 23.455208,145.05782 C 23.795752,145.14392 24.110703,145.34626 24.26602,145.57885 C 24.385767,145.75817 24.455852,145.9366 24.523038,146.23317 C 24.569048,146.43627 24.574898,146.5743 24.591088,147.83801 C 24.610498,149.35302 24.618608,149.44001 24.753619,149.58093 C 24.889546,149.72281 25.133697,149.73099 25.266564,149.59813 C 25.346074,149.51863 25.383432,149.52173 25.443052,149.61273 C 25.495462,149.69273 25.475702,149.72815 25.272857,149.9179 C 25.083571,150.09497 24.907972,150.17167 24.650703,150.18965 C 24.282428,150.21535 24.049926,150.07624 23.881918,149.7295 C 23.831858,149.62618 23.788448,149.53788 23.785458,149.53327 C 23.782458,149.52827 23.659714,149.62637 23.512682,149.75042 C 23.341151,149.89513 23.17086,150.01313 23.037485,150.07969 L 22.829619,150.18344 L 22.46962,150.18944 C 22.211653,150.19344 22.072573,150.18544 21.978908,150.15884 L 21.978908,150.15884 L 21.978906,150.15874 z M 22.972101,149.70473 C 23.220309,149.61753 23.671002,149.28644 23.757661,149.1277 C 23.796401,149.0567 23.800871,148.96217 23.800871,148.21323 L 23.800871,147.3779 L 23.746391,147.3952 C 23.716431,147.4052 23.494443,147.4719 23.25309,147.54444 C 22.743033,147.69781 22.510654,147.80685 22.330301,147.97742 C 22.063747,148.22951 21.910863,148.68473 21.970098,149.04994 C 22.056188,149.58074 22.499906,149.87071 22.972101,149.70474 L 22.972101,149.70474 L 22.972101,149.70473 z" id="path6009" style="fill:#000000;fill-opacity:1;fill-rule:nonzero;stroke:none"></path><path d="M 26.505828,152.75292 C 26.16182,152.62517 26.097858,152.31218 26.357114,152.02521 C 26.466739,151.90387 26.598696,151.86658 26.801613,151.89961 C 27.056554,151.94111 27.272419,151.87491 27.391621,151.71859 C 27.460801,151.62789 27.617533,151.26642 27.794869,150.78859 C 27.904227,150.49392 27.90948,150.46793 27.909668,150.22055 C 27.909824,150.01633 27.896108,149.91152 27.845058,149.72676 C 27.773908,149.46925 26.490962,146.14223 26.371729,145.90603 C 26.232738,145.63069 26.089538,145.51621 25.848388,145.48765 C 25.734116,145.47415 25.724928,145.46765 25.699747,145.38364 C 25.683147,145.32824 25.680937,145.26306 25.693947,145.21281 L 25.714997,145.13161 L 26.732836,145.12661 C 27.859683,145.12161 27.775907,145.10791 27.775907,145.29471 C 27.775907,145.44362 27.756927,145.47988 27.678987,145.47988 C 27.571204,145.47988 27.35774,145.55238 27.302295,145.60784 C 27.200482,145.70965 27.237245,145.83361 27.813486,147.33162 C 28.108621,148.09885 28.367059,148.74603 28.387794,148.7698 C 28.439564,148.8291 28.508346,148.824 28.551582,148.7575 C 28.631162,148.63511 29.660867,145.95764 29.671864,145.84451 C 29.679964,145.76071 29.671277,145.7094 29.641004,145.6632 C 29.589054,145.5839 29.43067,145.51138 29.254311,145.4861 C 29.127048,145.4679 29.120558,145.4633 29.098987,145.37621 C 29.085277,145.32091 29.085487,145.25394 29.099532,145.20496 L 29.122592,145.12456 L 29.973843,145.12656 L 30.825093,145.12856 L 30.846573,145.20336 C 30.858883,145.24626 30.858643,145.318 30.845993,145.37148 C 30.825903,145.45638 30.813603,145.46738 30.707881,145.49434 C 30.456964,145.55834 30.184849,145.79611 30.03089,146.08587 C 29.873902,146.38132 29.310362,147.77929 28.702581,149.381 C 27.999857,151.23291 27.916282,151.44579 27.77422,151.74574 C 27.597362,152.11915 27.449946,152.34401 27.271153,152.51311 C 27.037441,152.73414 26.72176,152.83302 26.505814,152.75282 L 26.505814,152.75282 L 26.505828,152.75292 z" id="path6011" style="fill:#000000;fill-opacity:1;fill-rule:nonzero;stroke:none"></path><path d="M 31.137302,150.07241 C 31.117082,150.02191 31.118572,149.84766 31.139702,149.79465 C 31.151922,149.76395 31.184442,149.75145 31.251956,149.75145 C 31.401983,149.75145 31.599384,149.68135 31.691137,149.59556 C 31.752927,149.53776 31.786767,149.4743 31.818678,149.35641 C 31.859018,149.20735 31.862108,148.98064 31.862108,146.17143 C 31.862108,142.92682 31.862618,142.94075 31.738319,142.79303 C 31.672329,142.71463 31.563153,142.67614 31.335544,142.65114 C 31.161441,142.63204 31.133759,142.60074 31.133759,142.42307 L 31.133759,142.33197 L 31.547313,142.26467 C 31.774767,142.22767 32.109897,142.15667 32.292046,142.10694 C 32.67666,142.00192 32.705269,142.00672 32.694846,142.17464 C 32.691146,142.23414 32.681876,143.42543 32.674236,144.82199 L 32.660346,147.36119 L 32.717986,147.34309 C 32.843442,147.30359 33.085965,147.11183 33.369797,146.82769 C 34.002973,146.19382 34.29237,145.78966 34.222645,145.63663 C 34.191735,145.56873 34.085767,145.5116 33.95103,145.49006 C 33.86103,145.47566 33.846723,145.46386 33.822798,145.38398 C 33.805758,145.32708 33.803828,145.26338 33.817598,145.21043 L 33.839278,145.12673 L 34.781425,145.12473 C 35.703674,145.12273 35.723852,145.12373 35.736844,145.17183 C 35.758434,145.25213 35.752674,145.38141 35.725234,145.43269 C 35.706474,145.46769 35.673284,145.48049 35.600487,145.48049 C 35.454845,145.48049 35.163919,145.55179 35.022444,145.62208 C 34.776999,145.7441 34.64597,145.8713 34.183428,146.43659 L 33.723312,146.99891 L 33.733682,147.11002 C 33.742382,147.20312 33.846409,147.38887 34.376789,148.25809 C 34.724796,148.82843 35.061728,149.35496 35.125528,149.42816 C 35.261985,149.58473 35.409691,149.66009 35.704355,149.72348 C 35.902472,149.76608 35.909683,149.77008 35.930278,149.8496 C 35.941978,149.8948 35.942478,149.97007 35.931378,150.01697 L 35.911208,150.10227 L 35.10882,150.10155 L 34.306431,150.10082 L 34.293651,149.89274 C 34.282501,149.71125 34.267581,149.65819 34.176899,149.47753 C 34.040493,149.2058 33.265258,147.99765 33.122792,147.83479 C 33.011573,147.70765 32.8578,147.62853 32.721885,147.62853 L 32.664555,147.62853 L 32.664757,148.30133 C 32.665116,149.49375 32.723607,149.68742 33.100364,149.74367 C 33.152624,149.75167 33.209273,149.77527 33.226247,149.79657 C 33.260927,149.84017 33.267247,150.01857 33.235847,150.06806 C 33.219577,150.09376 33.002752,150.10136 32.183762,150.10506 C 31.286862,150.10906 31.150231,150.10495 31.137339,150.07276 L 31.137302,150.07241 z" id="path6013" style="fill:#000000;fill-opacity:1;fill-rule:nonzero;stroke:none"></path><path d="M 37.256802,150.15788 C 36.721985,150.01076 36.445626,149.66094 36.402388,149.07634 C 36.356728,148.45906 36.744162,147.91089 37.491355,147.53557 C 37.731895,147.41474 37.995181,147.32638 38.577705,147.17099 C 38.825968,147.10479 39.036853,147.03509 39.055498,147.01314 C 39.081288,146.98274 39.085598,146.90898 39.074468,146.68828 C 39.038448,145.97435 38.879478,145.6138 38.524029,145.43989 C 38.397929,145.37819 38.375467,145.37519 38.138262,145.38839 C 37.747348,145.41019 37.534702,145.4947 37.409084,145.67819 C 37.353314,145.75969 37.351224,145.77659 37.367964,146.01091 C 37.394264,146.37915 37.390894,146.41203 37.316854,146.50909 C 37.193263,146.67113 36.949636,146.7339 36.771819,146.64952 C 36.652703,146.59302 36.603805,146.48925 36.60465,146.29485 C 36.60665,145.82662 37.107935,145.31353 37.759761,145.11245 C 38.389991,144.91803 39.024364,145.03855 39.420054,145.42788 C 39.609218,145.61401 39.717407,145.83974 39.80598,146.23312 C 39.85164,146.43593 39.85754,146.57713 39.87345,147.8503 C 39.893,149.41439 39.8967,149.45 40.054925,149.595 C 40.102555,149.6386 40.179536,149.6815 40.225997,149.6902 C 40.345174,149.7126 40.50786,149.6631 40.555792,149.58995 C 40.602792,149.51825 40.642552,149.51315 40.693445,149.57245 C 40.782155,149.67574 40.772735,149.70295 40.584335,149.88772 C 40.373976,150.09403 40.209544,150.17032 39.933682,150.1896 C 39.565406,150.2153 39.332904,150.07619 39.164896,149.72945 C 39.114836,149.62613 39.071426,149.53783 39.068426,149.53322 C 39.065426,149.52822 38.942682,149.62632 38.79565,149.75037 C 38.62412,149.89508 38.453828,150.01308 38.320453,150.07964 L 38.112588,150.18339 L 37.752588,150.18939 C 37.491795,150.19339 37.355167,150.18539 37.256795,150.15799 L 37.256802,150.15788 z M 38.232012,149.71315 C 38.477485,149.62985 38.958177,149.28288 39.040273,149.1298 C 39.079453,149.0568 39.083843,148.9643 39.083843,148.21323 C 39.083843,147.42908 39.081243,147.37871 39.040633,147.39117 C 39.016873,147.39817 38.791883,147.46667 38.540665,147.54274 C 37.978287,147.71303 37.816696,147.78859 37.61857,147.97393 C 37.156959,148.40574 37.107505,149.21385 37.52045,149.57734 C 37.703721,149.73866 37.993798,149.79403 38.23201,149.71315 L 38.23201,149.71315 L 38.232012,149.71315 z" id="path6015" style="fill:#000000;fill-opacity:1;fill-rule:nonzero;stroke:none"></path><path d="M 41.022153,150.06786 C 40.989693,150.00716 40.994953,149.84117 41.030753,149.79615 C 41.050903,149.77085 41.120963,149.75225 41.232622,149.74255 C 41.439088,149.72475 41.60894,149.64655 41.682436,149.53554 C 41.711596,149.49154 41.747726,149.38503 41.762716,149.29896 C 41.798566,149.09312 41.801126,143.22484 41.765416,143.03673 C 41.751936,142.96563 41.726936,142.87801 41.709866,142.84201 C 41.666156,142.74981 41.498642,142.67345 41.295453,142.65304 C 41.172251,142.64064 41.11627,142.62394 41.101369,142.59504 C 41.068509,142.53124 41.048189,142.38431 41.068169,142.35499 C 41.078169,142.34039 41.243419,142.30389 41.435481,142.27389 C 41.627543,142.24389 41.933079,142.18019 42.11445,142.13221 C 42.567364,142.0125 42.595436,142.00876 42.622968,142.06431 C 42.636458,142.09151 42.637138,142.24955 42.624668,142.45562 C 42.613158,142.64574 42.606768,144.25674 42.610458,146.03564 C 42.616858,149.10221 42.619558,149.27697 42.662648,149.40424 C 42.740148,149.63304 42.869006,149.71499 43.197263,149.74424 C 43.285533,149.75224 43.365909,149.77084 43.375885,149.78584 C 43.385885,149.80084 43.394025,149.86874 43.394025,149.93661 C 43.394025,150.00451 43.385825,150.07117 43.375885,150.08475 C 43.364235,150.10065 42.943633,150.10945 42.201064,150.10945 C 41.14193,150.10945 41.042505,150.10545 41.022127,150.06785 L 41.022127,150.06785 L 41.022153,150.06786 z" id="path6017" style="fill:#000000;fill-opacity:1;fill-rule:nonzero;stroke:none"></path><path d="M 45.715647,150.14956 C 45.160561,150.02816 44.730562,149.72109 44.421683,149.22551 C 44.038039,148.60998 43.91857,147.91529 44.053562,147.08495 C 44.178756,146.31487 44.60358,145.62387 45.150617,145.30051 C 45.836321,144.89519 46.869504,144.95511 47.505656,145.4371 C 47.849985,145.69798 48.133985,146.18672 48.302213,146.80791 C 48.363173,147.03301 48.367213,147.08165 48.367213,147.59109 C 48.367213,148.1009 48.363213,148.14905 48.302033,148.37498 C 48.163401,148.88697 47.883035,149.39092 47.577139,149.67795 C 47.374434,149.86815 47.102905,150.01721 46.788434,150.11092 C 46.488184,150.20042 46.024434,150.21709 45.715647,150.14952 L 45.715647,150.14956 z M 46.753809,149.7764 C 47.310185,149.49697 47.502341,149.01816 47.502018,147.91206 C 47.501588,146.43607 47.095953,145.56204 46.33831,145.40457 C 45.981231,145.33037 45.587825,145.45147 45.358814,145.70624 C 45.084232,146.01164 44.910685,146.57968 44.884123,147.25997 C 44.858383,147.91913 44.964983,148.48048 45.210047,148.97625 C 45.515439,149.59407 45.901452,149.86411 46.445187,149.8403 C 46.588447,149.8343 46.674567,149.8162 46.753809,149.7764 L 46.753809,149.7764 z" id="path6019" style="fill:#000000;fill-opacity:1;fill-rule:nonzero;stroke:none"></path><path d="M 49.675015,150.15773 C 49.629795,150.11253 49.617985,150.08313 49.632885,150.0528 C 49.665095,149.9873 49.674415,143.43961 49.642685,143.16591 C 49.597495,142.77601 49.531709,142.70559 49.167811,142.65754 C 48.986894,142.63364 48.975171,142.62834 48.950932,142.55874 C 48.936842,142.51834 48.925312,142.44944 48.925312,142.40569 C 48.925312,142.32639 48.925737,142.32609 49.079623,142.30939 C 49.304178,142.28499 49.913393,142.1595 50.181739,142.08236 C 50.468337,141.99996 50.494968,142.01016 50.488727,142.19923 C 50.471087,142.73371 50.452657,145.41708 50.466137,145.48891 C 50.475437,145.53841 50.494107,145.57881 50.507667,145.57881 C 50.521227,145.57881 50.620283,145.50721 50.727779,145.41973 C 50.939379,145.24749 51.203624,145.10928 51.418976,145.0582 C 51.768127,144.9754 52.209018,145.0502 52.554706,145.25104 C 52.779154,145.38141 53.132942,145.74263 53.263329,145.97454 C 53.492018,146.38129 53.606478,146.90286 53.582856,147.43055 C 53.552336,148.11222 53.35631,148.74533 53.036261,149.19587 C 52.914693,149.367 52.54775,149.72786 52.373812,149.84733 C 52.206821,149.96204 51.880881,150.10897 51.688986,150.15604 C 51.484263,150.20624 51.064128,150.20744 50.856059,150.15804 C 50.669203,150.11404 50.582804,150.07224 50.416759,149.94563 C 50.235749,149.80764 50.198857,149.81558 50.001738,150.03493 C 49.901309,150.1467 49.816021,150.2201 49.786589,150.2201 C 49.759769,150.2201 49.709559,150.1918 49.675004,150.1573 L 49.675004,150.1573 L 49.675015,150.15773 z M 51.578608,149.78767 C 52.035819,149.66858 52.381135,149.2749 52.563269,148.66509 C 52.787907,147.91298 52.763901,146.97128 52.504029,146.34107 C 52.239886,145.70052 51.797137,145.41407 51.26446,145.53909 C 50.947014,145.61359 50.631269,145.8284 50.52654,146.04108 L 50.46843,146.15908 L 50.46123,147.71174 L 50.45403,149.26439 L 50.51353,149.35359 C 50.614611,149.50516 50.832815,149.70619 50.962275,149.76701 C 51.111359,149.83701 51.35735,149.84531 51.578657,149.78761 L 51.578608,149.78767 z" id="path6021" style="fill:#000000;fill-opacity:1;fill-rule:nonzero;stroke:none"></path><path d="M 55.976732,150.15855 C 55.340397,150.0318 54.81962,149.5672 54.57382,148.90696 C 54.305633,148.1866 54.33964,147.17298 54.65726,146.41987 C 54.888401,145.87181 55.402805,145.35629 55.918251,145.15615 C 56.260529,145.02324 56.643148,145.0129 57.078115,145.12485 C 57.454271,145.22165 57.781768,145.47183 57.948765,145.79001 C 58.122085,146.12024 58.227049,146.55651 58.227049,146.94668 C 58.227049,147.10555 58.220149,147.13227 58.165619,147.18347 L 58.104189,147.24117 L 56.668347,147.22427 L 55.232504,147.20747 L 55.249414,147.4857 C 55.298704,148.29666 55.508153,148.85591 55.918559,149.27241 C 56.065625,149.42166 56.160223,149.49403 56.288906,149.55573 C 56.44633,149.63123 56.48594,149.63943 56.733322,149.64793 C 57.219414,149.66453 57.500692,149.55793 57.84866,149.22524 L 58.050477,149.0323 L 58.124667,149.0707 C 58.240018,149.1303 58.244069,149.19091 58.142007,149.32995 C 58.017982,149.49891 57.668594,149.822 57.503096,149.92078 C 57.318619,150.03089 57.100156,150.11736 56.898392,150.16012 C 56.693535,150.20352 56.198117,150.20272 55.976733,150.15912 L 55.976733,150.15912 L 55.976732,150.15855 z M 57.264148,146.77924 C 57.324618,146.75104 57.325848,146.74494 57.324608,146.47945 C 57.322508,146.0406 57.199652,145.73215 56.957581,145.55831 C 56.800269,145.44533 56.668981,145.40604 56.448795,145.40604 C 56.27078,145.40604 56.240876,145.41404 56.035632,145.51681 C 55.892036,145.58871 55.77895,145.666 55.713452,145.73706 C 55.541916,145.92315 55.405011,146.23992 55.303267,146.68615 L 55.267527,146.84288 L 56.234975,146.82548 C 56.8858,146.81378 57.222624,146.79868 57.264147,146.77928 L 57.264148,146.77924 z" id="path6023" style="fill:#000000;fill-opacity:1;fill-rule:nonzero;stroke:none"></path><path d="M 60.697885,150.16902 C 60.05544,150.04297 59.540962,149.60761 59.288047,148.97599 C 58.975602,148.19569 59.011834,147.12507 59.376987,146.34792 C 59.515964,146.05214 59.656048,145.85712 59.887394,145.63737 C 60.375956,145.17328 60.829548,144.99694 61.374997,145.05905 C 62.020077,145.13255 62.414765,145.36544 62.634985,145.80265 C 62.808652,146.14744 62.88444,146.43673 62.909835,146.85177 C 62.925265,147.10396 62.925115,147.10488 62.857115,147.17288 L 62.788915,147.24108 L 61.359779,147.22428 L 59.930642,147.20748 L 59.930642,147.37947 C 59.930642,147.63139 59.995532,148.08436 60.067527,148.33507 C 60.23319,148.91191 60.586639,149.37359 61.016992,149.57527 C 61.131213,149.62877 61.196231,149.64037 61.42625,149.64827 C 61.898469,149.66447 62.193458,149.55237 62.539063,149.22518 C 62.718518,149.05531 62.748859,149.03553 62.793429,149.05938 C 62.821259,149.07428 62.861689,149.11338 62.883269,149.14638 C 62.921099,149.20408 62.918549,149.21138 62.812169,149.34921 C 62.492067,149.76394 62.038246,150.06485 61.589382,150.15998 C 61.407982,150.19838 60.875398,150.20378 60.69788,150.16898 L 60.69788,150.16898 L 60.697885,150.16902 z M 61.955207,146.77912 C 62.015917,146.75062 62.016867,146.74572 62.013067,146.47932 C 62.005967,145.98105 61.854552,145.67034 61.531737,145.49153 C 61.410083,145.42413 61.380249,145.41843 61.152789,145.41843 C 60.920416,145.41843 60.895868,145.42343 60.73551,145.50393 C 60.362906,145.69084 60.17754,145.95726 60.030164,146.51772 C 59.989184,146.67358 59.955584,146.81053 59.955494,146.82206 C 59.955247,146.85496 61.881593,146.81406 61.955209,146.77916 L 61.955207,146.77912 z" id="path6025" style="fill:#000000;fill-opacity:1;fill-rule:nonzero;stroke:none"></path><path d="M 67.107425,150.20203 C 67.082545,150.15963 67.016425,149.81981 67.001219,149.65616 C 66.986379,149.49652 66.979749,149.47986 66.931049,149.47986 C 66.900529,149.47986 66.803291,149.54456 66.706214,149.62952 C 66.485747,149.82241 66.133311,150.05656 65.957321,150.12706 C 65.841431,150.17346 65.771399,150.18246 65.522881,150.18296 C 65.274534,150.18343 65.196849,150.17396 65.042672,150.12326 C 64.25793,149.86628 63.782251,148.96979 63.782251,147.74781 C 63.782251,146.92191 64.032624,146.22285 64.515068,145.70175 C 65.08781,145.08312 65.855536,144.87671 66.618488,145.1362 C 66.880088,145.2252 66.956053,145.2287 66.976362,145.153 C 67.000032,145.0647 66.992642,143.49429 66.967262,143.21231 C 66.953592,143.06067 66.926312,142.92007 66.900192,142.86665 C 66.842362,142.74837 66.696303,142.67554 66.471666,142.65298 C 66.277406,142.63348 66.251268,142.60618 66.251268,142.4231 L 66.251268,142.332 L 66.664822,142.2647 C 66.892277,142.2277 67.227407,142.1567 67.409555,142.10697 C 67.649189,142.04157 67.751561,142.02337 67.779902,142.04137 C 67.813452,142.06267 67.817302,142.11187 67.806722,142.38436 C 67.799922,142.55934 67.794382,144.11352 67.794382,145.8381 L 67.794382,148.97371 L 67.859762,149.11316 C 67.941802,149.28815 68.063991,149.36551 68.353018,149.42544 C 68.538128,149.46384 68.561174,149.47484 68.58256,149.5357 C 68.59757,149.5784 68.59775,149.6277 68.583027,149.66957 C 68.561427,149.73097 68.539667,149.73977 68.286456,149.78955 C 68.13616,149.81905 67.952849,149.86265 67.879097,149.88645 C 67.722304,149.93695 67.397107,150.10483 67.323686,150.17311 C 67.273866,150.21941 67.129047,150.23881 67.107466,150.20201 L 67.107466,150.20201 L 67.107425,150.20203 z M 66.088765,149.62662 C 66.370672,149.52114 66.840488,149.1549 66.933164,148.96838 C 66.976914,148.88028 66.979574,148.79619 66.979574,147.50467 L 66.979574,146.13439 L 66.911814,145.99643 C 66.677811,145.51994 66.124895,145.29415 65.593797,145.45819 C 65.320932,145.54249 65.163227,145.67384 64.962942,145.98372 C 64.665725,146.44358 64.564896,147.56653 64.743125,148.43187 C 64.868004,149.03818 65.189495,149.50929 65.572251,149.64686 C 65.697375,149.69186 65.939861,149.68236 66.088755,149.62666 L 66.088755,149.62666 L 66.088765,149.62662 z" id="path6027" style="fill:#000000;fill-opacity:1;fill-rule:nonzero;stroke:none"></path><path d="M 68.829918,150.06007 C 68.810648,149.98837 68.813728,149.81765 68.834818,149.78602 C 68.844818,149.77112 68.915028,149.75262 68.990887,149.74502 C 69.321223,149.71182 69.476031,149.60718 69.535119,149.37709 C 69.562909,149.26888 69.568959,148.68679 69.568959,146.12206 L 69.568959,142.9988 L 69.514369,142.88056 C 69.448779,142.7385 69.337011,142.67981 69.082863,142.65398 C 68.992043,142.64498 68.906029,142.62308 68.891721,142.60588 C 68.877411,142.58868 68.862841,142.52098 68.859331,142.45548 L 68.852931,142.33642 L 69.260312,142.26802 C 69.619142,142.20772 69.890368,142.14582 70.237952,142.04482 C 70.428995,141.98932 70.42986,141.99142 70.412156,142.47477 C 70.399896,142.8095 70.384266,145.79555 70.393806,145.98015 C 70.397906,146.06015 70.456986,146.02335 70.605566,145.84794 C 71.120061,145.24066 71.758666,144.94661 72.375548,145.03293 C 72.857702,145.10043 73.135584,145.36379 73.261154,145.87235 C 73.339494,146.18964 73.358634,146.5793 73.358914,147.86275 C 73.359193,149.13946 73.371234,149.33539 73.460154,149.50968 C 73.521724,149.63037 73.697812,149.71915 73.922157,149.74259 C 74.072051,149.75829 74.074075,149.75949 74.090138,149.84512 C 74.099038,149.89282 74.096538,149.96997 74.084438,150.01664 L 74.062478,150.10154 L 72.976341,150.10125 L 71.890203,150.10097 L 71.873233,150.01887 C 71.863933,149.97367 71.864233,149.89795 71.873991,149.85054 C 71.890951,149.76804 71.897531,149.76344 72.02654,149.74507 C 72.204615,149.71967 72.370996,149.63467 72.436527,149.53569 C 72.532867,149.39017 72.544098,149.20994 72.543193,147.82375 C 72.54227,146.4107 72.531363,146.25234 72.418305,146.01107 C 72.341445,145.84704 72.163656,145.67206 72.035049,145.63387 C 71.671294,145.52585 71.16209,145.72267 70.709228,146.14628 C 70.623788,146.22618 70.521154,146.35068 70.48114,146.42292 L 70.40839,146.55425 L 70.40129,147.83812 C 70.39409,149.14817 70.40459,149.35574 70.48717,149.52421 C 70.54407,149.64034 70.685909,149.7205 70.872198,149.74181 C 70.972985,149.75331 71.022064,149.77121 71.038854,149.80261 C 71.067954,149.85701 71.069484,150.02353 71.041254,150.068 C 71.024794,150.0939 70.801367,150.1014 69.931854,150.105 C 68.862004,150.109 68.84283,150.109 68.829791,150.0602 L 68.829918,150.06007 z" id="path6029" style="fill:#000000;fill-opacity:1;fill-rule:nonzero;stroke:none"></path><path d="M 74.516358,150.05229 C 74.488358,149.97869 74.488738,149.89359 74.517458,149.81815 C 74.537598,149.76515 74.560398,149.75625 74.713225,149.74115 C 74.824781,149.73015 74.932843,149.70045 75.01757,149.65755 C 75.296329,149.51628 75.316978,149.35431 75.303182,147.41716 C 75.296282,146.44202 75.285072,146.0345 75.263492,145.96851 C 75.199132,145.77172 75.053048,145.6767 74.753909,145.63704 C 74.686009,145.62804 74.622298,145.60844 74.612321,145.59364 C 74.602321,145.57874 74.594011,145.50974 74.593801,145.44035 L 74.593423,145.31413 L 74.732322,145.29783 C 75.011426,145.26503 75.501754,145.15848 75.785429,145.06899 C 76.037682,144.98939 76.080862,144.98199 76.110971,145.01269 C 76.140201,145.04249 76.141821,145.13412 76.121221,145.59209 C 76.107761,145.89127 76.100681,146.83566 76.105471,147.69072 C 76.112871,149.01202 76.119991,149.26499 76.152871,149.37602 C 76.221671,149.60836 76.374744,149.71306 76.688258,149.7422 L 76.864889,149.7586 L 76.889079,149.8484 C 76.904619,149.9061 76.904819,149.96881 76.889622,150.02385 L 76.865982,150.10945 L 75.702061,150.10945 L 74.53814,150.10945 L 74.5164,150.05225 L 74.5164,150.05225 L 74.516358,150.05229 z" id="path6031" style="fill:#000000;fill-opacity:1;fill-rule:nonzero;stroke:none"></path><path d="M 75.574175,143.71699 C 75.282043,143.63249 75.092786,143.21831 75.225736,142.95436 C 75.360283,142.68723 75.667444,142.54464 75.876,142.65248 C 76.03809,142.73628 76.199014,143.00747 76.197677,143.19453 C 76.197378,143.23623 76.176877,143.31482 76.152117,143.36914 C 76.031146,143.63451 75.7903,143.77947 75.574177,143.71699 L 75.574175,143.71699 z" id="path6033" style="fill:#000000;fill-opacity:1;fill-rule:nonzero;stroke:none"></path><path d="M 78.04144,152.75378 C 77.715793,152.63251 77.658948,152.26957 77.924075,152.00444 C 78.031718,151.8968 78.154601,151.86687 78.356499,151.89913 C 78.638475,151.94413 78.862573,151.86033 78.975515,151.66765 C 79.054015,151.5337 79.223671,151.12809 79.35877,150.75138 C 79.45537,150.48201 79.465077,150.4338 79.465616,150.22055 C 79.466068,150.04173 79.450516,149.9284 79.400146,149.74358 C 79.330636,149.48849 78.080654,146.23393 77.938103,145.93687 C 77.820211,145.6912 77.729306,145.59178 77.567086,145.53108 C 77.492156,145.50308 77.397661,145.48008 77.357097,145.48008 C 77.300647,145.48008 77.277697,145.46528 77.259267,145.41678 C 77.230097,145.34008 77.228467,145.20796 77.256167,145.16433 C 77.286457,145.11663 79.302985,145.10743 79.32122,145.15533 C 79.34534,145.21823 79.33365,145.39717 79.30297,145.43477 C 79.286,145.45557 79.200002,145.48527 79.111871,145.50087 C 79.023741,145.51637 78.923747,145.55017 78.889663,145.57587 C 78.833403,145.61827 78.827963,145.63827 78.830653,145.79231 C 78.833453,145.95093 78.866913,146.04809 79.344237,147.28221 C 79.970085,148.90033 79.932501,148.81366 80.008394,148.81366 C 80.041444,148.81366 80.080034,148.79976 80.094144,148.78276 C 80.148514,148.71726 81.213404,145.9564 81.224998,145.8509 C 81.232298,145.7844 81.224336,145.71504 81.205118,145.67807 C 81.163918,145.59887 80.987165,145.51307 80.820698,145.49154 C 80.673084,145.47244 80.642186,145.43764 80.642775,145.29083 C 80.643474,145.11689 80.597755,145.1255 81.529185,145.12395 C 82.45993,145.12195 82.395372,145.10965 82.395372,145.29538 C 82.395372,145.43753 82.376122,145.48055 82.312492,145.48057 C 82.214482,145.48061 81.964209,145.61998 81.842929,145.74207 C 81.776719,145.80877 81.684973,145.91934 81.63904,145.9879 C 81.486935,146.21493 80.884025,147.71063 79.962555,150.14692 C 79.354735,151.75395 79.175479,152.13773 78.883451,152.45725 C 78.650673,152.71195 78.279495,152.84286 78.04146,152.75422 L 78.04146,152.75422 L 78.04144,152.75378 z" id="path6035" style="fill:#000000;fill-opacity:1;fill-rule:nonzero;stroke:none"></path><path d="M 83.758375,150.15874 C 83.281716,150.02566 83.017214,149.7439 82.924071,149.26999 C 82.831501,148.79898 82.967681,148.3665 83.321222,148.00877 C 83.701553,147.62393 84.07363,147.44232 84.987783,147.19534 C 85.286182,147.11474 85.533226,147.03483 85.551987,147.01288 C 85.577697,146.98278 85.582197,146.90859 85.571607,146.68991 C 85.544047,146.12117 85.436039,145.77672 85.224474,145.58284 C 85.033455,145.4078 84.924769,145.37222 84.631113,145.38861 C 84.24386,145.41021 84.030628,145.49535 83.905704,145.67822 C 83.850424,145.75912 83.848064,145.77742 83.864454,145.9986 C 83.874054,146.1276 83.882974,146.27355 83.884364,146.32294 C 83.889364,146.50034 83.668055,146.68808 83.452458,146.68937 C 83.033493,146.69137 82.970945,146.19535 83.330277,145.71948 C 83.530148,145.45479 83.966937,145.18434 84.3582,145.08302 C 84.60185,145.01992 85.0354,145.00742 85.234687,145.05782 C 85.575231,145.14392 85.890182,145.34626 86.045499,145.57885 C 86.165245,145.75817 86.235331,145.9366 86.302517,146.23317 C 86.348527,146.43627 86.354377,146.5743 86.370567,147.83801 C 86.389977,149.35302 86.398087,149.44001 86.533098,149.58093 C 86.669025,149.72281 86.913176,149.73099 87.046043,149.59813 C 87.125553,149.51863 87.162911,149.52173 87.222531,149.61273 C 87.274941,149.69273 87.255181,149.72815 87.052336,149.9179 C 86.86305,150.09497 86.687451,150.17167 86.430182,150.18965 C 86.061907,150.21535 85.829405,150.07624 85.661397,149.7295 C 85.611337,149.62618 85.567927,149.53788 85.564937,149.53327 C 85.561937,149.52827 85.439193,149.62637 85.292161,149.75042 C 85.12063,149.89513 84.950339,150.01313 84.816964,150.07969 L 84.609098,150.18344 L 84.249099,150.18944 C 83.991132,150.19344 83.852052,150.18544 83.758387,150.15884 L 83.758387,150.15884 L 83.758375,150.15874 z M 84.75157,149.70473 C 84.999778,149.61753 85.450471,149.28644 85.53713,149.1277 C 85.57587,149.0567 85.58034,148.96217 85.58034,148.21323 L 85.58034,147.3779 L 85.52586,147.3952 C 85.4959,147.4052 85.273912,147.4719 85.032559,147.54444 C 84.522502,147.69781 84.290123,147.80685 84.10977,147.97742 C 83.843216,148.22951 83.690332,148.68473 83.749567,149.04994 C 83.835657,149.58074 84.279375,149.87071 84.75157,149.70474 L 84.75157,149.70474 L 84.75157,149.70473 z" id="path6037" style="fill:#000000;fill-opacity:1;fill-rule:nonzero;stroke:none"></path><path d="M 89.954857,150.09916 C 89.929987,150.07436 89.947257,149.8514 89.975417,149.83328 C 89.992387,149.82238 90.081234,149.80058 90.172845,149.78478 C 90.506275,149.72748 90.793378,149.53362 91.076377,149.17474 C 91.240302,148.96687 92.729711,146.70737 92.776276,146.59592 C 92.856746,146.40332 92.854456,146.39881 91.956688,144.98139 C 91.498237,144.25758 91.069535,143.59244 91.004017,143.5033 C 90.771976,143.18761 90.524729,142.99642 90.259053,142.92724 C 90.180803,142.90684 90.105813,142.88344 90.092397,142.87514 C 90.078977,142.86714 90.068007,142.80514 90.068007,142.73807 L 90.068007,142.61608 L 91.253116,142.61608 L 92.438226,142.61608 L 92.438226,142.75041 C 92.438226,142.82431 92.427826,142.89118 92.415106,142.89904 C 92.402386,142.90704 92.283931,142.92354 92.151862,142.93604 C 91.848326,142.96474 91.795871,143.00274 91.842944,143.15988 C 91.873764,143.26273 93.243016,145.52885 93.323786,145.61067 C 93.351016,145.63827 93.383816,145.64857 93.411126,145.63807 C 93.456686,145.62057 94.839052,143.56712 94.961006,143.33576 C 95.003346,143.25546 95.030656,143.1654 95.030656,143.10612 C 95.030656,143.01922 95.021956,143.00506 94.950416,142.9761 C 94.906286,142.9582 94.783105,142.9366 94.676687,142.9281 C 94.570269,142.9191 94.473053,142.9064 94.460651,142.8987 C 94.448251,142.8907 94.438101,142.8243 94.438101,142.75042 L 94.438101,142.61609 L 95.476304,142.61609 L 96.514507,142.61609 L 96.507107,142.75805 L 96.499707,142.90002 L 96.29724,142.93082 C 95.979695,142.97902 95.840931,143.04239 95.642098,143.22986 C 95.496534,143.36711 95.335348,143.59283 94.654073,144.61348 C 94.206327,145.28427 93.824576,145.86999 93.805737,145.91508 C 93.753787,146.03942 93.763077,146.19779 93.829627,146.3221 C 93.861607,146.3818 94.307357,147.06381 94.820183,147.83761 C 95.577529,148.98035 95.785644,149.27726 95.92863,149.419 C 96.140463,149.62897 96.281861,149.71446 96.51547,149.77379 C 96.712213,149.82379 96.740572,149.85379 96.729488,150.0006 L 96.721888,150.10095 L 95.512088,150.10139 L 94.302289,150.10183 L 94.302289,149.95752 L 94.302289,149.81321 L 94.536842,149.78061 C 94.829806,149.73991 94.893273,149.70401 94.874686,149.58945 C 94.866386,149.53835 94.55209,149.01835 94.059136,148.24011 C 93.209331,146.89851 93.185707,146.86793 93.081729,146.9751 C 93.022999,147.0356 91.611764,149.18123 91.531949,149.33134 C 91.453249,149.47934 91.460769,149.64052 91.549379,149.70505 C 91.583329,149.72975 91.699986,149.76455 91.808621,149.78235 L 92.00614,149.81465 L 92.00614,149.95873 L 92.00614,150.10282 L 90.985649,150.10582 C 90.424379,150.10782 89.960519,150.10482 89.95485,150.09882 L 89.95485,150.09882 L 89.954857,150.09916 z" id="path6039" style="fill:#000000;fill-opacity:1;fill-rule:nonzero;stroke:none"></path><path d="M 98.931632,150.14763 C 98.27654,150.00791 97.83664,149.65567 97.511821,149.01075 C 97.319448,148.6288 97.230736,148.28288 97.211059,147.83799 C 97.160549,146.69593 97.673314,145.63983 98.467787,145.24961 C 98.72091,145.12529 98.892237,145.0754 99.194707,145.03792 C 99.571863,144.99122 100.06724,145.08112 100.43771,145.26351 C 101.01702,145.54874 101.45735,146.28956 101.5758,147.17827 C 101.6114,147.44536 101.5922,147.99542 101.5386,148.24136 C 101.37979,148.97063 100.97768,149.61376 100.50406,149.89599 C 100.05508,150.16355 99.455883,150.25944 98.931642,150.14763 L 98.931632,150.14763 z M 99.999737,149.75619 C 100.20393,149.65567 100.41666,149.43501 100.50973,149.22719 C 100.65165,148.91031 100.71231,148.52342 100.71246,147.9342 C 100.71259,147.44185 100.68036,147.10172 100.59896,146.73613 C 100.39535,145.82174 99.91578,145.34163 99.252599,145.38825 C 98.681291,145.42845 98.340781,145.82001 98.152942,146.65288 C 98.099342,146.89054 98.076542,147.68351 98.115632,147.95081 C 98.243504,148.82534 98.598314,149.48539 99.063855,149.71479 C 99.282249,149.82241 99.409115,149.84957 99.652212,149.84075 C 99.806362,149.83475 99.871562,149.81925 99.999738,149.75615 L 99.999738,149.75615 L 99.999737,149.75619 z" id="path6041" style="fill:#000000;fill-opacity:1;fill-rule:nonzero;stroke:none"></path><path d="M 102.30206,150.07657 C 102.28306,150.02707 102.28766,149.81704 102.30806,149.78594 C 102.31806,149.77094 102.39286,149.75284 102.47434,149.74564 C 102.81753,149.71524 102.97005,149.61453 103.04612,149.36799 C 103.08822,149.23139 103.09162,149.10545 103.09162,147.6405 C 103.09162,146.1655 103.08862,146.05252 103.04622,145.94265 C 103.02012,145.87495 102.96722,145.79933 102.92181,145.76469 C 102.84061,145.70279 102.6017,145.62828 102.48418,145.62828 C 102.40578,145.62828 102.38798,145.59198 102.38798,145.43214 L 102.38798,145.31411 L 102.52995,145.29761 C 102.79454,145.26691 103.38675,145.1374 103.62944,145.05717 C 103.95608,144.9492 103.95398,144.94694 103.91976,145.36832 C 103.90566,145.54239 103.89406,145.76734 103.89406,145.86821 C 103.89406,146.02745 103.90006,146.05054 103.93596,146.04353 C 103.95906,146.03953 104.01736,145.96803 104.06558,145.88554 C 104.34474,145.40827 104.69692,145.1026 105.0421,145.03797 C 105.54264,144.94427 105.92517,145.40095 105.70256,145.82648 C 105.58758,146.04626 105.39562,146.15727 105.21078,146.11088 C 105.17188,146.10088 105.06653,146.01448 104.96705,145.91035 C 104.80186,145.73748 104.78575,145.72702 104.68478,145.72702 C 104.59238,145.72702 104.56511,145.74022 104.4856,145.82382 C 104.35032,145.96603 104.11756,146.32957 104.02592,146.54177 C 103.98192,146.64362 103.93432,146.79916 103.92018,146.88743 C 103.88658,147.0969 103.88618,148.86317 103.91975,149.13075 C 103.95125,149.3819 104.00035,149.51045 104.09544,149.59044 C 104.18384,149.66484 104.3643,149.72083 104.58248,149.74162 C 104.6864,149.75162 104.75705,149.77132 104.77669,149.79602 C 104.81149,149.83992 104.81769,150.01822 104.78569,150.06806 C 104.75489,150.11666 102.32003,150.12496 102.30145,150.07606 L 102.30145,150.07606 L 102.30206,150.07657 z" id="path6043" style="fill:#000000;fill-opacity:1;fill-rule:nonzero;stroke:none"></path><path d="M 107.39103,150.15961 C 107.16524,150.07911 107.01129,149.88107 106.93156,149.5685 C 106.88366,149.38091 106.88176,149.29777 106.88176,147.46369 L 106.88176,145.55418 L 106.55011,145.55418 C 106.17343,145.55418 106.17031,145.55218 106.20133,145.34549 C 106.22963,145.15685 106.27213,145.13446 106.60203,145.13446 L 106.88824,145.13446 L 106.87924,144.42582 L 106.87024,143.71718 L 107.21589,143.53755 C 107.40601,143.43875 107.58519,143.35766 107.61408,143.35735 C 107.70988,143.35635 107.71789,143.39835 107.69618,143.78886 C 107.68488,143.99255 107.67488,144.37846 107.67408,144.64643 L 107.67308,145.13365 L 108.33353,145.14065 L 108.99398,145.14765 L 108.99398,145.31975 C 108.99398,145.55955 109.01038,145.55422 108.27047,145.55467 L 107.6704,145.55503 L 107.6794,147.33887 C 107.6874,148.84833 107.6944,149.1444 107.7267,149.26372 C 107.8039,149.54964 107.90657,149.61987 108.1888,149.57984 C 108.40545,149.54914 108.60031,149.47661 108.76582,149.36515 C 108.91594,149.26405 109.00043,149.27215 109.04244,149.39155 C 109.06614,149.45885 109.05724,149.47155 108.84318,149.67665 C 108.59565,149.91381 108.30304,150.08628 108.02738,150.15751 C 107.84259,150.20521 107.52201,150.20671 107.39216,150.16051 L 107.39216,150.16051 L 107.39103,150.15961 z" id="path6045" style="fill:#000000;fill-opacity:1;fill-rule:nonzero;stroke:none"></path><path d="M 110.47411,150.15046 C 109.90243,149.97869 109.64,149.6117 109.64147,148.98606 C 109.64247,148.50952 109.84548,148.13797 110.28554,147.80658 C 110.65148,147.53102 110.96958,147.39754 111.77657,147.18095 C 112.03793,147.11075 112.26566,147.04247 112.28263,147.02912 C 112.30283,147.01322 112.31353,146.93512 112.31353,146.80352 C 112.31353,146.42697 112.24023,146.0146 112.13762,145.81342 C 112.06282,145.66688 111.87812,145.49007 111.73581,145.42885 C 111.62562,145.38145 111.5802,145.37645 111.3632,145.38775 C 111.00426,145.40645 110.77345,145.49516 110.64849,145.66238 C 110.59589,145.73278 110.58959,145.8418 110.61359,146.26212 C 110.62059,146.3869 110.61293,146.42719 110.57069,146.48432 C 110.35087,146.78133 109.91658,146.745 109.84834,146.42392 C 109.74651,145.94477 110.28052,145.33108 110.9895,145.11246 C 111.38135,144.99163 111.8333,144.99223 112.15883,145.11446 C 112.33701,145.18116 112.63887,145.38599 112.73179,145.50332 C 112.82849,145.6254 112.93845,145.84933 112.99006,146.02928 C 113.08716,146.36767 113.10336,146.61461 113.10351,147.75556 C 113.10371,149.206 113.13191,149.46987 113.30213,149.61309 C 113.43777,149.72723 113.67714,149.71682 113.79471,149.59169 C 113.87151,149.50999 113.90877,149.51349 113.95719,149.60709 C 114.00999,149.70923 113.97939,149.76667 113.78582,149.9284 C 113.55208,150.12371 113.3718,150.19555 113.11431,150.19601 C 112.88031,150.19643 112.72199,150.13791 112.58419,150.00013 C 112.46976,149.88571 112.33828,149.66837 112.33828,149.59366 C 112.33828,149.51236 112.28088,149.53476 112.11027,149.68286 C 111.85309,149.90612 111.7012,150.0121 111.50802,150.10308 C 111.34397,150.18038 111.32646,150.18318 110.98034,150.18918 C 110.69342,150.19418 110.59292,150.18618 110.4742,150.15088 L 110.4742,150.15088 L 110.47411,150.15046 z M 111.49221,149.7021 C 111.72572,149.62 112.20539,149.27165 112.27787,149.13147 C 112.32687,149.03667 112.33147,147.36906 112.28287,147.38777 C 112.26587,147.39477 112.0437,147.46197 111.7891,147.53823 C 111.5345,147.61443 111.25006,147.7152 111.15701,147.76206 C 110.71658,147.98385 110.48669,148.36675 110.48669,148.87851 C 110.48669,149.14172 110.53899,149.31623 110.66892,149.48683 C 110.84817,149.72215 111.18495,149.81018 111.49245,149.7021 L 111.49221,149.7021 z" id="path6047" style="fill:#000000;fill-opacity:1;fill-rule:nonzero;stroke:none"></path><path d="M 117.89929,150.15669 C 117.59192,150.08229 117.32166,149.88412 117.18502,149.63294 C 117.0518,149.38805 117.00545,148.94761 117.08199,148.65378 C 117.22069,148.12125 117.78834,147.61556 118.52557,147.36777 C 118.60027,147.34267 118.88905,147.26029 119.16732,147.18471 C 119.78396,147.01722 119.74631,147.05844 119.70889,146.5918 C 119.65519,145.92262 119.5062,145.60323 119.17108,145.43924 C 118.95552,145.33375 118.40246,145.39164 118.17261,145.54374 C 118.0287,145.63894 117.97039,145.78877 117.99621,145.99693 C 118.03181,146.28429 118.02451,146.42391 117.97001,146.49597 C 117.84112,146.66643 117.5852,146.73657 117.41449,146.64822 C 117.1524,146.51258 117.20248,146.01941 117.51389,145.66918 C 117.87464,145.26349 118.41511,145.03101 119.00696,145.02694 C 119.31629,145.02494 119.47627,145.06264 119.73783,145.19954 C 120.16182,145.42151 120.35516,145.72795 120.46787,146.3566 C 120.49967,146.53396 120.51117,146.8529 120.52457,147.93675 C 120.53927,149.11608 120.54697,149.31155 120.58337,149.42295 C 120.67137,149.69258 120.97122,149.78301 121.17728,149.60209 C 121.22288,149.56199 121.27238,149.52919 121.28728,149.52919 C 121.33508,149.52919 121.39588,149.64866 121.38008,149.71152 C 121.35768,149.80082 121.10169,150.02119 120.9204,150.10727 C 120.7743,150.17667 120.73778,150.18347 120.51302,150.18347 C 120.29234,150.18345 120.25267,150.17647 120.13941,150.11667 C 120.06971,150.07997 119.97815,150.00622 119.93591,149.95289 C 119.85741,149.85379 119.73596,149.61569 119.73553,149.56011 C 119.73508,149.50251 119.68933,149.52891 119.50056,149.6955 C 119.23048,149.93387 118.99247,150.08816 118.80598,150.14576 C 118.60934,150.20646 118.12888,150.21226 117.89921,150.15666 L 117.89921,150.15666 L 117.89929,150.15669 z M 118.9984,149.65982 C 119.16458,149.58152 119.50612,149.33698 119.61579,149.21782 C 119.72436,149.09985 119.73508,149.00522 119.73523,148.16346 C 119.73536,147.42685 119.73223,147.3787 119.69213,147.39071 C 119.66833,147.39771 119.45449,147.46051 119.21685,147.53006 C 118.4721,147.74817 118.21548,147.90889 118.03443,148.27062 C 117.81858,148.70188 117.83253,149.13734 118.07333,149.48614 C 118.25263,149.74581 118.65543,149.82144 118.99834,149.65982 L 118.9984,149.65982 z" id="path6049" style="fill:#000000;fill-opacity:1;fill-rule:nonzero;stroke:none"></path><path d="M 121.60936,150.06786 C 121.57686,150.00716 121.58216,149.84118 121.61836,149.79611 C 121.63646,149.77331 121.70546,149.75141 121.78501,149.74311 C 122.0754,149.71291 122.21762,149.63172 122.28784,149.45623 C 122.30934,149.40243 122.33834,149.23848 122.35224,149.09197 C 122.38434,148.75385 122.38484,143.56719 122.35284,143.21227 C 122.33914,143.06063 122.31194,142.92003 122.28574,142.86661 C 122.22794,142.74833 122.08185,142.6755 121.85721,142.65294 C 121.66295,142.63344 121.63681,142.60614 121.63681,142.42306 L 121.63681,142.33196 L 122.05037,142.26466 C 122.27782,142.22766 122.61295,142.15666 122.7951,142.10693 C 123.17354,142.00359 123.20836,142.00833 123.19844,142.16233 C 123.19544,142.21503 123.18544,143.10525 123.17724,144.14068 C 123.16584,145.5676 123.16924,146.02328 123.19104,146.02328 C 123.20684,146.02328 123.34263,145.89556 123.4927,145.73946 C 123.80563,145.41395 124.02652,145.25613 124.32738,145.14312 C 124.753,144.98325 125.17668,144.97949 125.50455,145.13272 C 125.82118,145.28066 125.9841,145.539 126.0844,146.05219 C 126.0991,146.12759 126.1181,146.83786 126.1287,147.71457 C 126.1487,149.36349 126.1544,149.43255 126.28137,149.57067 C 126.36197,149.65827 126.51319,149.72209 126.68789,149.74216 C 126.76829,149.75116 126.84224,149.77116 126.85221,149.78606 C 126.86221,149.80096 126.87031,149.86876 126.87031,149.93663 C 126.87031,150.00453 126.86231,150.07119 126.85221,150.08477 C 126.84061,150.10057 126.44752,150.10947 125.76007,150.10947 C 125.07262,150.10947 124.67953,150.10047 124.66792,150.08477 C 124.64432,150.05267 124.64432,149.82083 124.66792,149.78757 C 124.67792,149.77347 124.76082,149.74947 124.85227,149.73427 C 125.19017,149.67807 125.27185,149.56703 125.31724,149.10222 C 125.36014,148.66281 125.33414,146.4846 125.28344,146.2666 C 125.21414,145.96891 125.06294,145.75169 124.85492,145.65099 C 124.62393,145.53917 124.18714,145.63649 123.8178,145.88199 C 123.58169,146.03896 123.31195,146.30654 123.23982,146.45533 L 123.18002,146.57878 L 123.17302,147.78858 C 123.16302,149.3903 123.18582,149.56047 123.42136,149.67451 C 123.48256,149.70411 123.59224,149.73521 123.6651,149.74371 C 123.738,149.75171 123.80572,149.77121 123.8157,149.78611 C 123.8257,149.80101 123.8338,149.86871 123.8338,149.93665 C 123.8338,150.00455 123.8258,150.07121 123.8157,150.08479 C 123.8041,150.10059 123.40813,150.10949 122.71494,150.10949 C 121.72525,150.10949 121.63042,150.10549 121.61008,150.06789 L 121.61008,150.06789 L 121.60936,150.06786 z" id="path6051" style="fill:#000000;fill-opacity:1;fill-rule:nonzero;stroke:none"></path></g>
<g id="Wikipedia">
	<path d="M 18.757,118.893 C 18.757,118.893 18.39,118.147 18.265,117.899 C 17.431,116.247 17.449,116.159 16.606,116.047 C 16.37,116.016 16.248,115.986 16.248,115.869 L 16.248,115.346 L 16.319,115.295 C 17.842,115.293 21.231,115.293 21.231,115.293 L 21.361,115.336 L 21.361,115.857 C 21.361,115.976 21.276,116.037 21.103,116.037 L 20.747,116.088 C 19.847,116.158 19.994,116.526 20.592,117.717 L 26.269,129.332 L 26.463,129.385 L 31.503,117.424 C 31.678,116.942 31.651,116.6 31.426,116.399 C 31.2,116.204 31.041,116.087 30.457,116.063 L 29.984,116.04 C 29.926,116.04 29.871,116.019 29.818,115.979 C 29.766,115.942 29.739,115.893 29.739,115.834 L 29.739,115.336 L 29.811,115.285 C 31.231,115.285 35.505,115.285 35.505,115.285 L 35.563,115.336 L 35.563,115.834 C 35.563,115.969 35.486,116.037 35.334,116.037 C 34.588,116.07 34.035,116.232 33.677,116.521 C 33.318,116.812 33.038,117.212 32.837,117.734 C 32.837,117.734 28.202,128.342 26.616,131.869 C 26.009,133.025 25.412,132.919 24.887,131.836 C 23.778,129.552 20.655,122.623 20.655,122.623 L 18.757,118.893 z" id="path3898"></path>
	<path d="M 27.853,115.287 C 27.853,115.287 24.65,115.277 23.224,115.287 L 23.153,115.338 L 23.153,115.834 C 23.153,115.895 23.179,115.943 23.231,115.98 C 23.284,116.019 23.338,116.039 23.396,116.039 L 23.625,116.064 C 24.208,116.087 24.476,116.241 24.556,116.336 C 24.695,116.506 24.764,116.69 24.427,117.425 L 18.447,129.353 L 18.29,129.312 C 18.29,129.312 14.007,120.281 12.767,117.259 C 12.638,116.947 12.58,116.714 12.58,116.571 C 12.58,116.264 12.857,116.098 13.411,116.075 L 14.057,116.048 C 14.228,116.048 14.315,115.982 14.315,115.845 L 14.315,115.349 L 14.257,115.298 C 14.257,115.298 9.127,115.292 8.067,115.298 L 8.009,115.349 L 8.009,115.87 C 8.009,115.964 8.128,116.022 8.367,116.048 C 9.018,116.083 9.446,116.187 9.652,116.36 C 9.857,116.535 10.074,116.977 10.362,117.666 C 11.919,121.406 15.227,128.08 16.838,131.881 C 17.302,132.919 17.885,133.08 18.593,131.849 C 19.819,129.576 23.143,122.631 23.143,122.631 L 25.761,117.735 C 26.066,117.217 26.36,116.756 26.509,116.542 C 26.782,116.149 26.935,116.075 27.681,116.04 C 27.833,116.04 27.91,115.972 27.91,115.835 L 27.91,115.339 L 27.853,115.287 z" id="path3900"></path>
	<path d="M 37.592,130.77 C 37.592,131.342 37.852,131.68 38.684,131.758 L 39.23,131.811 C 39.308,131.811 39.386,131.862 39.386,131.966 L 39.386,132.512 L 39.36,132.565 C 39.36,132.565 37.384,132.512 36.578,132.512 C 35.85,132.512 33.822,132.565 33.822,132.565 L 33.77,132.512 L 33.77,131.966 C 33.77,131.862 33.848,131.811 33.952,131.811 L 34.472,131.758 C 35.33,131.68 35.59,131.264 35.59,130.77 L 35.59,122.112 C 35.59,121.542 35.277,121.383 34.472,121.307 L 33.952,121.253 C 33.848,121.253 33.77,121.229 33.77,121.149 L 33.77,120.55 L 33.796,120.498 C 33.796,120.498 35.85,120.55 36.656,120.55 C 37.358,120.55 39.36,120.498 39.36,120.498 L 39.386,120.55 L 39.386,121.122 C 39.386,121.2 39.334,121.252 39.23,121.252 L 38.684,121.305 C 37.878,121.382 37.592,121.591 37.592,122.112 L 37.592,130.77 z" id="path3904"></path>
	<path d="M 45.265,130.77 C 45.265,131.342 45.603,131.628 46.357,131.758 L 46.643,131.811 C 46.721,131.836 46.799,131.862 46.799,131.966 L 46.799,132.512 L 46.773,132.565 C 46.773,132.565 45.135,132.512 44.355,132.512 C 43.627,132.512 41.495,132.565 41.495,132.565 L 41.443,132.512 L 41.443,131.966 C 41.443,131.862 41.521,131.811 41.625,131.811 L 42.145,131.758 C 42.925,131.68 43.263,131.264 43.263,130.77 L 43.263,122.112 C 43.263,121.542 42.977,121.383 42.145,121.307 L 41.625,121.253 C 41.521,121.253 41.443,121.229 41.443,121.149 L 41.443,120.55 L 41.469,120.498 C 41.469,120.498 43.601,120.55 44.407,120.55 C 45.136,120.55 46.773,120.498 46.773,120.498 L 46.799,120.55 L 46.799,121.122 C 46.799,121.2 46.747,121.226 46.643,121.252 L 46.357,121.305 C 45.551,121.46 45.265,121.591 45.265,122.112 L 45.265,126.039 C 46.123,126.039 46.617,125.599 47.761,124.375 C 48.801,123.229 49.607,122.271 49.607,121.774 C 49.607,121.565 49.373,121.333 48.853,121.253 C 48.749,121.229 48.697,121.201 48.697,121.123 L 48.697,120.523 L 48.723,120.499 C 48.723,120.499 50.829,120.551 51.583,120.551 C 52.259,120.551 53.403,120.499 53.403,120.499 L 53.481,120.523 L 53.481,121.123 C 53.481,121.201 53.403,121.253 53.273,121.253 C 52.259,121.331 51.557,121.383 50.621,122.449 L 48.385,125.021 C 47.943,125.491 47.787,125.775 47.787,125.984 C 47.787,126.14 47.891,126.269 48.021,126.425 L 51.947,131.157 C 52.259,131.52 52.883,131.677 53.403,131.78 L 53.533,131.805 C 53.611,131.83 53.715,131.882 53.715,131.96 L 53.715,132.506 L 53.637,132.532 C 53.637,132.532 52.259,132.506 51.531,132.506 C 50.881,132.506 49.945,132.532 49.945,132.532 L 49.919,132.506 L 49.919,132.194 C 49.919,131.855 49.893,131.571 49.529,131.155 L 46.643,127.566 C 46.253,127.045 45.837,126.917 45.265,126.917 L 45.265,130.77 L 45.265,130.77 z" id="path3906"></path>
	<path d="M 59.282,130.77 C 59.282,131.342 59.542,131.68 60.374,131.758 L 60.92,131.811 C 60.998,131.811 61.076,131.862 61.076,131.966 L 61.076,132.512 L 61.05,132.565 C 61.05,132.565 59.074,132.512 58.268,132.512 C 57.54,132.512 55.512,132.565 55.512,132.565 L 55.46,132.512 L 55.46,131.966 C 55.46,131.862 55.538,131.811 55.642,131.811 L 56.162,131.758 C 57.02,131.68 57.28,131.264 57.28,130.77 L 57.28,122.112 C 57.28,121.542 56.968,121.383 56.162,121.307 L 55.642,121.253 C 55.538,121.253 55.46,121.229 55.46,121.149 L 55.46,120.55 L 55.486,120.498 C 55.486,120.498 57.54,120.55 58.346,120.55 C 59.048,120.55 61.05,120.498 61.05,120.498 L 61.076,120.55 L 61.076,121.122 C 61.076,121.2 61.024,121.252 60.92,121.252 L 60.374,121.305 C 59.568,121.382 59.282,121.591 59.282,122.112 L 59.282,130.77 z" id="path3908"></path>
	<path d="M 64.9,122.163 C 64.9,121.357 64.562,121.331 63.34,121.253 C 63.184,121.253 63.158,121.176 63.158,121.123 L 63.158,120.525 L 63.21,120.499 C 63.6,120.499 65.134,120.551 65.888,120.551 C 66.616,120.551 67.656,120.499 68.618,120.499 C 72.308,120.499 72.984,122.318 72.984,123.672 C 72.984,125.233 72.23,127.676 68.54,127.676 C 67.89,127.676 67.37,127.623 66.901,127.416 L 66.901,130.898 C 66.901,131.469 67.213,131.601 68.046,131.73 L 68.567,131.808 C 68.671,131.833 68.75,131.861 68.75,131.963 L 68.75,132.509 L 68.726,132.562 C 68.726,132.562 66.645,132.509 65.839,132.509 C 65.111,132.509 63.161,132.562 63.161,132.562 L 63.135,132.509 L 63.135,131.963 C 63.135,131.859 63.187,131.833 63.291,131.808 L 63.837,131.73 C 64.643,131.626 64.903,131.392 64.903,130.898 L 64.9,122.163 L 64.9,122.163 L 64.9,122.163 z M 66.902,126.688 C 67.422,126.897 68.072,126.922 68.592,126.922 C 70.153,126.922 70.904,125.984 70.904,123.984 C 70.904,121.748 69.89,121.254 68.462,121.254 C 67.213,121.254 66.901,121.488 66.901,122.164 L 66.902,126.688 L 66.902,126.688 z" id="path3910"></path>
	<path d="M 77.462,132.512 C 76.682,132.512 74.889,132.565 74.889,132.565 L 74.862,132.512 L 74.862,131.94 C 74.862,131.889 74.889,131.811 75.018,131.811 L 75.618,131.758 C 76.425,131.68 76.659,131.16 76.659,130.641 L 76.659,122.061 C 76.659,121.461 76.347,121.358 75.618,121.307 L 75.018,121.253 C 74.862,121.229 74.862,121.176 74.862,121.149 L 74.862,120.55 L 74.889,120.498 C 74.889,120.498 76.916,120.55 77.696,120.55 L 81.518,120.55 C 82.298,120.55 84.145,120.498 84.145,120.498 L 84.199,120.55 C 84.223,121.668 84.405,122.684 84.589,123.671 L 83.941,123.775 C 83.656,122.812 83.162,121.435 81.498,121.435 L 79.418,121.435 C 78.924,121.435 78.664,121.617 78.664,122.058 L 78.664,125.829 L 80.613,125.829 C 81.342,125.829 81.523,125.517 81.628,124.997 L 81.783,124.451 C 81.783,124.373 81.836,124.32 81.939,124.32 L 82.379,124.32 C 82.433,124.32 82.433,124.347 82.433,124.398 C 82.379,124.969 82.277,125.699 82.277,126.323 C 82.277,126.972 82.381,127.519 82.433,128.117 L 82.379,128.17 L 81.939,128.17 C 81.81,128.17 81.755,128.117 81.755,128.039 L 81.625,127.468 C 81.521,126.947 81.287,126.661 80.608,126.661 L 78.66,126.661 L 78.66,130.64 C 78.66,131.132 78.943,131.626 79.414,131.626 L 81.884,131.626 C 83.21,131.626 83.94,130.794 84.25,129.44 L 84.898,129.518 L 84.377,132.507 L 84.325,132.559 C 84.325,132.559 82.791,132.507 82.011,132.507 L 77.462,132.512 L 77.462,132.512 L 77.462,132.512 z" id="path3912"></path>
	<path d="M 87.24,131.811 L 87.838,131.758 C 88.619,131.68 88.879,131.446 88.879,130.641 L 88.879,122.061 C 88.879,121.383 88.695,121.383 87.838,121.307 L 87.268,121.253 C 87.164,121.253 87.084,121.201 87.084,121.123 L 87.084,120.551 L 87.109,120.499 C 87.109,120.499 89.398,120.551 89.867,120.551 C 90.359,120.551 92.623,120.499 93.299,120.499 C 97.641,120.499 99.774,123.203 99.774,126.661 C 99.774,131.212 96.549,132.562 93.665,132.562 C 91.585,132.562 90.676,132.509 89.87,132.509 C 89.089,132.509 87.112,132.562 87.112,132.562 L 87.087,132.509 L 87.087,131.963 C 87.084,131.889 87.137,131.811 87.24,131.811 z M 93.039,131.811 C 95.898,131.811 97.512,130.747 97.512,127.104 C 97.512,124.401 96.913,121.253 92.545,121.253 C 91.531,121.253 90.881,121.409 90.881,122.061 L 90.881,130.641 C 90.881,131.367 91.062,131.811 93.039,131.811 z" id="path3914"></path>
	<path d="M 105.912,130.77 C 105.912,131.342 106.172,131.68 107.004,131.758 L 107.55,131.811 C 107.628,131.811 107.706,131.862 107.706,131.966 L 107.706,132.512 L 107.68,132.565 C 107.68,132.565 105.704,132.512 104.899,132.512 C 104.17,132.512 102.143,132.565 102.143,132.565 L 102.09,132.512 L 102.09,131.966 C 102.09,131.862 102.168,131.811 102.272,131.811 L 102.793,131.758 C 103.65,131.68 103.911,131.264 103.911,130.77 L 103.911,122.112 C 103.911,121.542 103.598,121.383 102.793,121.307 L 102.272,121.253 C 102.168,121.253 102.09,121.229 102.09,121.149 L 102.09,120.55 L 102.116,120.498 C 102.116,120.498 104.17,120.55 104.974,120.55 C 105.675,120.55 107.679,120.498 107.679,120.498 L 107.703,120.55 L 107.703,121.122 C 107.703,121.2 107.649,121.252 107.547,121.252 L 107.001,121.305 C 106.194,121.382 105.909,121.591 105.909,122.112 L 105.912,130.77 L 105.912,130.77 L 105.912,130.77 z" id="path3916"></path>
	<path d="M 113.922,131.758 L 114.676,131.811 C 114.78,131.811 114.884,131.889 114.884,132.018 L 114.884,132.512 L 114.832,132.565 C 114.832,132.565 111.998,132.512 111.374,132.512 C 110.697,132.512 109.033,132.565 109.033,132.565 L 108.98,132.512 L 108.98,132.018 C 108.98,131.889 109.058,131.811 109.189,131.811 C 110.334,131.733 110.982,131.524 111.71,129.86 L 117.481,116.339 C 117.766,115.663 117.975,115.402 118.367,115.402 C 118.729,115.402 118.86,115.663 119.067,116.183 L 124.397,130.275 C 124.762,131.29 125.283,131.679 126.323,131.783 L 126.608,131.808 C 126.739,131.808 126.869,131.885 126.869,132.017 L 126.869,132.509 L 126.791,132.562 C 126.791,132.562 124.789,132.509 123.774,132.509 C 122.864,132.509 120.315,132.562 120.315,132.562 L 120.291,132.509 L 120.291,132.017 C 120.291,131.885 120.343,131.808 120.476,131.808 L 121.204,131.755 C 122.191,131.678 122.557,131.364 122.296,130.638 L 120.71,126.242 L 115.3,126.242 C 114.676,126.242 114.52,126.346 114.391,126.682 L 112.882,130.453 C 112.622,131.107 112.96,131.68 113.922,131.758 z M 120.292,125.152 L 117.77,118.211 L 117.718,118.211 L 115.118,124.815 C 115.014,125.077 115.195,125.153 115.767,125.153 L 120.292,125.153 L 120.292,125.152 z" id="path3918"></path>
</g>

<g transform="translate(165.1882,-79.679453)" id="grid">
</g></svg>
