<?xml version="1.0" encoding="UTF-8" standalone="no"?>
<!-- Generator: Adobe Illustrator 13.0.2, SVG Export Plug-In . SVG Version: 6.00 Build 14948)  -->

<svg xmlns:dc="http://purl.org/dc/elements/1.1/" xmlns:cc="http://creativecommons.org/ns#" xmlns:rdf="http://www.w3.org/1999/02/22-rdf-syntax-ns#" xmlns:svg="http://www.w3.org/2000/svg" xmlns="http://www.w3.org/2000/svg" xmlns:xlink="http://www.w3.org/1999/xlink" xmlns:sodipodi="http://sodipodi.sourceforge.net/DTD/sodipodi-0.dtd" xmlns:inkscape="http://www.inkscape.org/namespaces/inkscape" version="1.1" x="0px" y="0px" width="135px" height="155px" viewBox="0 0 135 155" enable-background="new 0 0 135 155" xml:space="preserve" id="svg3857" inkscape:version="0.47 r22583" sodipodi:docname="Wikipedia-logo-v2-tg.svg"><metadata id="metadata4852"><rdf:rdf><cc:work rdf:about=""><dc:format>image/svg+xml</dc:format><dc:type rdf:resource="http://purl.org/dc/dcmitype/StillImage"></dc:type><dc:title></dc:title></cc:work></rdf:rdf></metadata><defs id="defs4850"><inkscape:perspective sodipodi:type="inkscape:persp3d" inkscape:vp_x="0 : 77.5 : 1" inkscape:vp_y="0 : 1000 : 0" inkscape:vp_z="135 : 77.5 : 1" inkscape:persp3d-origin="67.5 : 51.666667 : 1" id="perspective4854"></inkscape:perspective>
	
		<radialGradient gradientUnits="userSpaceOnUse" gradientTransform="matrix(1,0,0,-1,192.3999,143.0996)" r="68.686401" cy="87.823196" cx="-145.4702" id="SVGID_1_">
		<stop id="stop3922" style="stop-color:#FFFFFF" offset="0"></stop>
		<stop id="stop3924" style="stop-color:#EAEAEB" offset="0.4835"></stop>
		<stop id="stop3926" style="stop-color:#A9ABAE" offset="0.9451"></stop>
		<stop id="stop3928" style="stop-color:#999B9E" offset="1"></stop>
	</radialGradient>
	
	
	<linearGradient y2="97.232101" x2="112.7331" y1="24.481001" x1="66.232399" gradientUnits="userSpaceOnUse" id="SVGID_2_">
		<stop id="stop3935" style="stop-color:#8A8A8A" offset="0"></stop>
		<stop id="stop3937" style="stop-color:#606060" offset="0.5687"></stop>
		<stop id="stop3939" style="stop-color:#FFFFFF" offset="0.5914"></stop>
		<stop id="stop3941" style="stop-color:#585858" offset="0.6116"></stop>
		<stop id="stop3943" style="stop-color:#303030" offset="1"></stop>
	</linearGradient>
	
	
	<linearGradient y2="65.136703" x2="83.798798" y1="65.136703" x1="54.715801" gradientUnits="userSpaceOnUse" id="SVGID_5_">
		<stop id="stop3964" style="stop-color:#231F20" offset="0"></stop>
		<stop id="stop3966" style="stop-color:#474747" offset="1"></stop>
	</linearGradient>
	
	
	
	
	
	
	
	
	
		<linearGradient gradientTransform="matrix(1,0,0,-1,192.3999,143.0996)" y2="29.9035" x2="-94.069099" y1="119.8076" x1="-123.5898" gradientUnits="userSpaceOnUse" id="SVGID_6_">
		<stop id="stop3997" style="stop-color:#FFFFFF" offset="0"></stop>
		<stop id="stop3999" style="stop-color:#FCFCFC" offset="0.0094"></stop>
		<stop id="stop4001" style="stop-color:#EEEEEE" offset="0.0655"></stop>
		<stop id="stop4003" style="stop-color:#E5E5E5" offset="0.1342"></stop>
		<stop id="stop4005" style="stop-color:#E3E3E3" offset="0.2515"></stop>
		<stop id="stop4007" style="stop-color:#8A8A8A" offset="0.3357"></stop>
		<stop id="stop4009" style="stop-color:#B8B8B8" offset="0.4422"></stop>
		<stop id="stop4011" style="stop-color:#3B3B3B" offset="1"></stop>
	</linearGradient>
	
	<linearGradient y2="87.626701" x2="119.5471" y1="26.876499" x1="70.421898" gradientUnits="userSpaceOnUse" id="SVGID_7_">
		<stop id="stop4016" style="stop-color:#EFF0F0" offset="0"></stop>
		<stop id="stop4018" style="stop-color:#F0F1F2" offset="0.5914"></stop>
		<stop id="stop4020" style="stop-color:#787878" offset="0.599"></stop>
		<stop id="stop4022" style="stop-color:#EEEFF0" offset="0.6456"></stop>
		<stop id="stop4024" style="stop-color:#D8D9DB" offset="1"></stop>
	</linearGradient>
	
	
		<linearGradient gradientTransform="matrix(1,0,0,-1,192.3999,143.0996)" y2="31.998501" x2="-87.569702" y1="122.1328" x1="-117.166" gradientUnits="userSpaceOnUse" id="SVGID_8_">
		<stop id="stop4029" style="stop-color:#FFFFFF" offset="0"></stop>
		<stop id="stop4031" style="stop-color:#E4E5E6" offset="1"></stop>
	</linearGradient>
	
	<linearGradient y2="106.3903" x2="79.683601" y1="25.2764" x1="54.653301" gradientUnits="userSpaceOnUse" id="SVGID_9_">
		<stop id="stop4036" style="stop-color:#FFFFFF" offset="0"></stop>
		<stop id="stop4038" style="stop-color:#F9F9F9" offset="0.7473"></stop>
		<stop id="stop4040" style="stop-color:#D5D7D8" offset="1"></stop>
	</linearGradient>
	
	
	
	
	
		<linearGradient gradientTransform="matrix(1,0,0,-1,192.3999,143.0996)" y2="24.6462" x2="-134.85719" y1="119.6328" x1="-115.3369" gradientUnits="userSpaceOnUse" id="SVGID_10_">
		<stop id="stop4061" style="stop-color:#FFFFFF" offset="0"></stop>
		<stop id="stop4063" style="stop-color:#E4E5E6" offset="1"></stop>
	</linearGradient>
	
	<linearGradient y2="92.496101" x2="37.2481" y1="33.077099" x1="32.519001" gradientUnits="userSpaceOnUse" id="SVGID_11_">
		<stop id="stop4068" style="stop-color:#989A9C" offset="0.2198"></stop>
		<stop id="stop4070" style="stop-color:#FFFFFF" offset="0.2527"></stop>
	</linearGradient>
	
	
		<linearGradient gradientTransform="matrix(1,0,0,-1,192.3999,143.0996)" y2="32.797901" x2="-171.9462" y1="126.8398" x1="-152.6201" gradientUnits="userSpaceOnUse" id="SVGID_12_">
		<stop id="stop4075" style="stop-color:#FFFFFF" offset="0"></stop>
		<stop id="stop4077" style="stop-color:#E4E5E6" offset="1"></stop>
	</linearGradient>
	
	
		<linearGradient gradientTransform="matrix(1,0,0,-1,192.3999,143.0996)" y2="35.585701" x2="-130.14281" y1="35.625" x1="-130.1348" gradientUnits="userSpaceOnUse" id="SVGID_13_">
		<stop id="stop4082" style="stop-color:#FFFFFF" offset="0"></stop>
		<stop id="stop4084" style="stop-color:#E4E5E6" offset="1"></stop>
	</linearGradient>
	
	
	
	
		<linearGradient gradientTransform="matrix(1,0,0,-1,192.3999,143.0996)" y2="25.888" x2="-140.54491" y1="120.3223" x1="-121.1382" gradientUnits="userSpaceOnUse" id="SVGID_14_">
		<stop id="stop4093" style="stop-color:#FFFFFF" offset="0"></stop>
		<stop id="stop4095" style="stop-color:#E4E5E6" offset="1"></stop>
	</linearGradient>
	
	
		<linearGradient gradientTransform="matrix(1,0,0,-1,192.3999,143.0996)" y2="28.8524" x2="-155.006" y1="123.3525" x1="-135.58591" gradientUnits="userSpaceOnUse" id="SVGID_15_">
		<stop id="stop4100" style="stop-color:#FFFFFF" offset="0"></stop>
		<stop id="stop4102" style="stop-color:#E4E5E6" offset="1"></stop>
	</linearGradient>
	
	
		<linearGradient gradientTransform="matrix(1,0,0,-1,192.3999,143.0996)" y2="27.1346" x2="-146.8837" y1="121.9365" x1="-127.4014" gradientUnits="userSpaceOnUse" id="SVGID_16_">
		<stop id="stop4107" style="stop-color:#FFFFFF" offset="0"></stop>
		<stop id="stop4109" style="stop-color:#E4E5E6" offset="1"></stop>
	</linearGradient>
	
	
		<linearGradient gradientTransform="matrix(1,0,0,-1,192.3999,143.0996)" y2="24.9438" x2="-138.85201" y1="124.0039" x1="-118.4946" gradientUnits="userSpaceOnUse" id="SVGID_17_">
		<stop id="stop4114" style="stop-color:#FFFFFF" offset="0"></stop>
		<stop id="stop4116" style="stop-color:#E4E5E6" offset="1"></stop>
	</linearGradient>
	
	
		<linearGradient gradientTransform="matrix(1,0,0,-1,192.3999,143.0996)" y2="24.695299" x2="-134.7878" y1="119.1758" x1="-115.3716" gradientUnits="userSpaceOnUse" id="SVGID_18_">
		<stop id="stop4121" style="stop-color:#FFFFFF" offset="0"></stop>
		<stop id="stop4123" style="stop-color:#E4E5E6" offset="1"></stop>
	</linearGradient>
	
	
	
	
	
	
	
	
	
	
	
	
		<linearGradient gradientTransform="matrix(1,0,0,-1,192.3999,143.0996)" y2="83.6045" x2="-75.6362" y1="83.6045" x1="-175.4424" gradientUnits="userSpaceOnUse" id="SVGID_21_">
		<stop id="stop4198" style="stop-color:#555555" offset="0"></stop>
		<stop id="stop4200" style="stop-color:#231F20" offset="1"></stop>
	</linearGradient>
	
	
		<linearGradient gradientTransform="matrix(1,0,0,-1,192.3999,143.0996)" y2="104.0801" x2="-83.541" y1="104.0801" x1="-175.14211" gradientUnits="userSpaceOnUse" id="SVGID_22_">
		<stop id="stop4205" style="stop-color:#A0A0A0" offset="0"></stop>
		<stop id="stop4207" style="stop-color:#656767" offset="0.0769"></stop>
		<stop id="stop4209" style="stop-color:#717375" offset="1"></stop>
	</linearGradient>
	
	
	
	
	
	
	
		<linearGradient gradientTransform="matrix(1,0,0,-1,192.3999,143.0996)" y2="78.209" x2="-172.3853" y1="78.209" x1="-172.3853" gradientUnits="userSpaceOnUse" id="SVGID_23_">
		<stop id="stop4224" style="stop-color:#FFFFFF" offset="0"></stop>
		<stop id="stop4226" style="stop-color:#F4F4F4" offset="0.078"></stop>
		<stop id="stop4228" style="stop-color:#CECECE" offset="0.3807"></stop>
		<stop id="stop4230" style="stop-color:#BFBFBF" offset="0.5396"></stop>
		<stop id="stop4232" style="stop-color:#7C7C7C" offset="0.8357"></stop>
		<stop id="stop4234" style="stop-color:#A8A8A8" offset="0.8996"></stop>
		<stop id="stop4236" style="stop-color:#9A9A9A" offset="0.9093"></stop>
		<stop id="stop4238" style="stop-color:#7D7D7D" offset="0.9327"></stop>
		<stop id="stop4240" style="stop-color:#686868" offset="0.9558"></stop>
		<stop id="stop4242" style="stop-color:#5B5B5B" offset="0.9785"></stop>
		<stop id="stop4244" style="stop-color:#575757" offset="1"></stop>
	</linearGradient>
	
	
		<linearGradient gradientTransform="matrix(1,0,0,-1,192.3999,143.0996)" y2="90.476799" x2="-67.153198" y1="78.449203" x1="-175.7173" gradientUnits="userSpaceOnUse" id="SVGID_24_">
		<stop id="stop4249" style="stop-color:#FFFFFF" offset="0"></stop>
		<stop id="stop4251" style="stop-color:#F4F4F4" offset="0.078"></stop>
		<stop id="stop4253" style="stop-color:#CECECE" offset="0.3807"></stop>
		<stop id="stop4255" style="stop-color:#BFBFBF" offset="0.5396"></stop>
		<stop id="stop4257" style="stop-color:#7C7C7C" offset="0.8357"></stop>
		<stop id="stop4259" style="stop-color:#A8A8A8" offset="0.8996"></stop>
		<stop id="stop4261" style="stop-color:#9A9A9A" offset="0.9093"></stop>
		<stop id="stop4263" style="stop-color:#7D7D7D" offset="0.9327"></stop>
		<stop id="stop4265" style="stop-color:#686868" offset="0.9558"></stop>
		<stop id="stop4267" style="stop-color:#5B5B5B" offset="0.9785"></stop>
		<stop id="stop4269" style="stop-color:#575757" offset="1"></stop>
	</linearGradient>
	
	
		<linearGradient gradientTransform="matrix(1,0,0,-1,192.3999,143.0996)" y2="92.223099" x2="-52.131699" y1="78.4795" x1="-176.1851" gradientUnits="userSpaceOnUse" id="SVGID_25_">
		<stop id="stop4274" style="stop-color:#FFFFFF" offset="0"></stop>
		<stop id="stop4276" style="stop-color:#F4F4F4" offset="0.078"></stop>
		<stop id="stop4278" style="stop-color:#CECECE" offset="0.3807"></stop>
		<stop id="stop4280" style="stop-color:#BFBFBF" offset="0.5396"></stop>
		<stop id="stop4282" style="stop-color:#7C7C7C" offset="0.8357"></stop>
		<stop id="stop4284" style="stop-color:#A8A8A8" offset="0.8996"></stop>
		<stop id="stop4286" style="stop-color:#9A9A9A" offset="0.9093"></stop>
		<stop id="stop4288" style="stop-color:#7D7D7D" offset="0.9327"></stop>
		<stop id="stop4290" style="stop-color:#686868" offset="0.9558"></stop>
		<stop id="stop4292" style="stop-color:#5B5B5B" offset="0.9785"></stop>
		<stop id="stop4294" style="stop-color:#575757" offset="1"></stop>
	</linearGradient>
	
	<linearGradient y2="51.952599" x2="117.1948" y1="71.326698" x1="21.2129" gradientUnits="userSpaceOnUse" id="SVGID_26_">
		<stop id="stop4299" style="stop-color:#EDEDEE" offset="0"></stop>
		<stop id="stop4301" style="stop-color:#FFFFFF" offset="0.4176"></stop>
		<stop id="stop4303" style="stop-color:#F8F9F9" offset="0.6264"></stop>
		<stop id="stop4305" style="stop-color:#BFC0C2" offset="1"></stop>
	</linearGradient>
	
	
	
	
	<linearGradient y2="30.732401" x2="27.9561" y1="30.732401" x1="23.471201" gradientUnits="userSpaceOnUse" id="SVGID_27_">
		<stop id="stop4316" style="stop-color:#E2E3E4" offset="0"></stop>
		<stop id="stop4318" style="stop-color:#FFFFFF" offset="0.5055"></stop>
	</linearGradient>
	
	
	
	
	
	
	
	
	
	
	
	
	
	
	
	
	
	
	
	
	
	
	
	
	
	
	
	
	
	
	
	
	
	
	
	
	
	
	
	
	
	
	
	
	
	
	
	
	
	
	
	
	
	
	
	
	
	
	
	
	
	
	
	
	
	
	
	
	
	
	
	
	
	
	
	
	
	
	
	
	
	
	
	
	
	
	
	
	
	
	
	
	
	
	
	
	
	
	
	
	
	
	
	
	
	
	
	
	
	
	
	
	
	
	
	
	
	
	
	
	
	
	
	
	
	
	
	
	
	
	
	
	
	
	
	
	
	
	
	
	
	
	
	
	
	
	
	
	
	
	
	
	
	
	
	
	
	
	
	
	
	
	
	
	
	
	
	
	
	
	
	
	
	
	
	
	
	
	<linearGradient y2="29.204" x2="111.5455" y1="49.7188" x1="22.5742" gradientUnits="userSpaceOnUse" id="SVGID_34_">
		<stop id="stop4743" style="stop-color:#FFFFFF" offset="0"></stop>
		<stop id="stop4745" style="stop-color:#FFFFFF" offset="0.6538"></stop>
		<stop id="stop4747" style="stop-color:#CBCCCE" offset="1"></stop>
	</linearGradient>
	
	
	
	
	
	
	
	
		<linearGradient gradientTransform="matrix(1,0,0,-1,192.3999,143.0996)" y2="107.0898" x2="-126.4229" y1="107.0898" x1="-158.8101" gradientUnits="userSpaceOnUse" id="SVGID_35_">
		<stop id="stop4770" style="stop-color:#696969" offset="0"></stop>
		<stop id="stop4772" style="stop-color:#2E2E2E" offset="0.3702"></stop>
		<stop id="stop4774" style="stop-color:#424242" offset="0.4554"></stop>
		<stop id="stop4776" style="stop-color:#303030" offset="0.6014"></stop>
		<stop id="stop4778" style="stop-color:#4A4A4A" offset="0.6947"></stop>
		<stop id="stop4780" style="stop-color:#666666" offset="1"></stop>
	</linearGradient>
	
	
		<linearGradient gradientTransform="matrix(1,0,0,-1,192.3999,143.0996)" y2="107.8965" x2="-126.5454" y1="107.8965" x1="-158.4185" gradientUnits="userSpaceOnUse" id="SVGID_36_">
		<stop id="stop4785" style="stop-color:#525252" offset="0"></stop>
		<stop id="stop4787" style="stop-color:#333333" offset="0.1856"></stop>
		<stop id="stop4789" style="stop-color:#AEAEAE" offset="0.354"></stop>
		<stop id="stop4791" style="stop-color:#ADADAD" offset="0.4199"></stop>
		<stop id="stop4793" style="stop-color:#9D9D9D" offset="0.4276"></stop>
		<stop id="stop4795" style="stop-color:#818181" offset="0.4433"></stop>
		<stop id="stop4797" style="stop-color:#6A6A6A" offset="0.4611"></stop>
		<stop id="stop4799" style="stop-color:#585858" offset="0.4814"></stop>
		<stop id="stop4801" style="stop-color:#4C4C4C" offset="0.506"></stop>
		<stop id="stop4803" style="stop-color:#444444" offset="0.539"></stop>
		<stop id="stop4805" style="stop-color:#424242" offset="0.6166"></stop>
		<stop id="stop4807" style="stop-color:#454545" offset="0.6684"></stop>
		<stop id="stop4809" style="stop-color:#BDBDBD" offset="1"></stop>
	</linearGradient>
	
	
		<linearGradient gradientTransform="matrix(1,0,0,-1,192.3999,143.0996)" y2="104.4332" x2="-154.15421" y1="97.627899" x1="-153.1255" gradientUnits="userSpaceOnUse" id="SVGID_37_">
		<stop id="stop4814" style="stop-color:#969696" offset="0"></stop>
		<stop id="stop4816" style="stop-color:#000000" offset="1"></stop>
	</linearGradient>
	
	
	
	<linearGradient y2="38.790001" x2="39.487301" y1="46.373001" x1="38.737301" gradientUnits="userSpaceOnUse" id="SVGID_38_">
		<stop id="stop4825" style="stop-color:#333333" offset="0"></stop>
		<stop id="stop4827" style="stop-color:#000000" offset="0.431"></stop>
		<stop id="stop4829" style="stop-color:#2E2E2E" offset="1"></stop>
	</linearGradient>
	
	
	
	
	
		<radialGradient gradientUnits="userSpaceOnUse" gradientTransform="matrix(1,0,0,-1,192.3999,143.0996)" r="72.751701" cy="106.5996" cx="-138.2334" id="SVGID_39_">
		<stop id="stop4840" style="stop-color:#000000;stop-opacity:0;" offset="0"></stop>
		<stop id="stop4842" style="stop-color:#000000;stop-opacity:0.08;" offset="0.80220002"></stop>
		<stop id="stop4844" style="stop-color:#000000;stop-opacity:0.3882353;" offset="1"></stop>
	</radialGradient>
	
<radialGradient inkscape:collect="always" xlink:href="#SVGID_39_" id="radialGradient5007" gradientUnits="userSpaceOnUse" gradientTransform="matrix(1,0,0,-1,192.3999,143.0996)" cx="-138.2334" cy="106.5996" r="72.751701"></radialGradient><linearGradient inkscape:collect="always" xlink:href="#SVGID_38_" id="linearGradient5013" gradientUnits="userSpaceOnUse" x1="38.737301" y1="46.373001" x2="39.487301" y2="38.790001"></linearGradient><linearGradient inkscape:collect="always" xlink:href="#SVGID_37_" id="linearGradient5018" gradientUnits="userSpaceOnUse" gradientTransform="matrix(1,0,0,-1,192.3999,143.0996)" x1="-153.1255" y1="97.627899" x2="-154.15421" y2="104.4332"></linearGradient><linearGradient inkscape:collect="always" xlink:href="#SVGID_36_" id="linearGradient5021" gradientUnits="userSpaceOnUse" gradientTransform="matrix(1,0,0,-1,192.3999,143.0996)" x1="-158.4185" y1="107.8965" x2="-126.5454" y2="107.8965"></linearGradient><linearGradient inkscape:collect="always" xlink:href="#SVGID_35_" id="linearGradient5024" gradientUnits="userSpaceOnUse" gradientTransform="matrix(1,0,0,-1,192.3999,143.0996)" x1="-158.8101" y1="107.0898" x2="-126.4229" y2="107.0898"></linearGradient><linearGradient inkscape:collect="always" xlink:href="#SVGID_34_" id="linearGradient5036" gradientUnits="userSpaceOnUse" x1="22.5742" y1="49.7188" x2="111.5455" y2="29.204"></linearGradient><linearGradient inkscape:collect="always" xlink:href="#SVGID_27_" id="linearGradient5252" gradientUnits="userSpaceOnUse" x1="23.471201" y1="30.732401" x2="27.9561" y2="30.732401"></linearGradient><linearGradient inkscape:collect="always" xlink:href="#SVGID_26_" id="linearGradient5258" gradientUnits="userSpaceOnUse" x1="21.2129" y1="71.326698" x2="117.1948" y2="51.952599"></linearGradient><linearGradient inkscape:collect="always" xlink:href="#SVGID_25_" id="linearGradient5261" gradientUnits="userSpaceOnUse" gradientTransform="matrix(1,0,0,-1,192.3999,143.0996)" x1="-176.1851" y1="78.4795" x2="-52.131699" y2="92.223099"></linearGradient><linearGradient inkscape:collect="always" xlink:href="#SVGID_24_" id="linearGradient5264" gradientUnits="userSpaceOnUse" gradientTransform="matrix(1,0,0,-1,192.3999,143.0996)" x1="-175.7173" y1="78.449203" x2="-67.153198" y2="90.476799"></linearGradient><linearGradient inkscape:collect="always" xlink:href="#SVGID_23_" id="linearGradient5267" gradientUnits="userSpaceOnUse" gradientTransform="matrix(1,0,0,-1,192.3999,143.0996)" x1="-172.3853" y1="78.209" x2="-172.3853" y2="78.209"></linearGradient><linearGradient inkscape:collect="always" xlink:href="#SVGID_22_" id="linearGradient5275" gradientUnits="userSpaceOnUse" gradientTransform="matrix(1,0,0,-1,192.3999,143.0996)" x1="-175.14211" y1="104.0801" x2="-83.541" y2="104.0801"></linearGradient><linearGradient inkscape:collect="always" xlink:href="#SVGID_21_" id="linearGradient5278" gradientUnits="userSpaceOnUse" gradientTransform="matrix(1,0,0,-1,192.3999,143.0996)" x1="-175.4424" y1="83.6045" x2="-75.6362" y2="83.6045"></linearGradient><linearGradient inkscape:collect="always" xlink:href="#SVGID_18_" id="linearGradient5317" gradientUnits="userSpaceOnUse" gradientTransform="matrix(1,0,0,-1,192.3999,143.0996)" x1="-115.3716" y1="119.1758" x2="-134.7878" y2="24.695299"></linearGradient><linearGradient inkscape:collect="always" xlink:href="#SVGID_17_" id="linearGradient5320" gradientUnits="userSpaceOnUse" gradientTransform="matrix(1,0,0,-1,192.3999,143.0996)" x1="-118.4946" y1="124.0039" x2="-138.85201" y2="24.9438"></linearGradient><linearGradient inkscape:collect="always" xlink:href="#SVGID_16_" id="linearGradient5323" gradientUnits="userSpaceOnUse" gradientTransform="matrix(1,0,0,-1,192.3999,143.0996)" x1="-127.4014" y1="121.9365" x2="-146.8837" y2="27.1346"></linearGradient><linearGradient inkscape:collect="always" xlink:href="#SVGID_15_" id="linearGradient5326" gradientUnits="userSpaceOnUse" gradientTransform="matrix(1,0,0,-1,192.3999,143.0996)" x1="-135.58591" y1="123.3525" x2="-155.006" y2="28.8524"></linearGradient><linearGradient inkscape:collect="always" xlink:href="#SVGID_14_" id="linearGradient5329" gradientUnits="userSpaceOnUse" gradientTransform="matrix(1,0,0,-1,192.3999,143.0996)" x1="-121.1382" y1="120.3223" x2="-140.54491" y2="25.888"></linearGradient><linearGradient inkscape:collect="always" xlink:href="#SVGID_13_" id="linearGradient5334" gradientUnits="userSpaceOnUse" gradientTransform="matrix(1,0,0,-1,192.3999,143.0996)" x1="-130.1348" y1="35.625" x2="-130.14281" y2="35.585701"></linearGradient><linearGradient inkscape:collect="always" xlink:href="#SVGID_12_" id="linearGradient5337" gradientUnits="userSpaceOnUse" gradientTransform="matrix(1,0,0,-1,192.3999,143.0996)" x1="-152.6201" y1="126.8398" x2="-171.9462" y2="32.797901"></linearGradient><linearGradient inkscape:collect="always" xlink:href="#SVGID_11_" id="linearGradient5340" gradientUnits="userSpaceOnUse" x1="32.519001" y1="33.077099" x2="37.2481" y2="92.496101"></linearGradient><linearGradient inkscape:collect="always" xlink:href="#SVGID_10_" id="linearGradient5343" gradientUnits="userSpaceOnUse" gradientTransform="matrix(1,0,0,-1,192.3999,143.0996)" x1="-115.3369" y1="119.6328" x2="-134.85719" y2="24.6462"></linearGradient><linearGradient inkscape:collect="always" xlink:href="#SVGID_9_" id="linearGradient5354" gradientUnits="userSpaceOnUse" x1="54.653301" y1="25.2764" x2="79.683601" y2="106.3903"></linearGradient><linearGradient inkscape:collect="always" xlink:href="#SVGID_8_" id="linearGradient5357" gradientUnits="userSpaceOnUse" gradientTransform="matrix(1,0,0,-1,192.3999,143.0996)" x1="-117.166" y1="122.1328" x2="-87.569702" y2="31.998501"></linearGradient><linearGradient inkscape:collect="always" xlink:href="#SVGID_7_" id="linearGradient5360" gradientUnits="userSpaceOnUse" x1="70.421898" y1="26.876499" x2="119.5471" y2="87.626701"></linearGradient><linearGradient inkscape:collect="always" xlink:href="#SVGID_6_" id="linearGradient5363" gradientUnits="userSpaceOnUse" gradientTransform="matrix(1,0,0,-1,192.3999,143.0996)" x1="-123.5898" y1="119.8076" x2="-94.069099" y2="29.9035"></linearGradient><linearGradient inkscape:collect="always" xlink:href="#SVGID_5_" id="linearGradient5379" gradientUnits="userSpaceOnUse" x1="54.715801" y1="65.136703" x2="83.798798" y2="65.136703"></linearGradient><linearGradient inkscape:collect="always" xlink:href="#SVGID_2_" id="linearGradient5391" gradientUnits="userSpaceOnUse" x1="66.232399" y1="24.481001" x2="112.7331" y2="97.232101"></linearGradient><radialGradient inkscape:collect="always" xlink:href="#SVGID_1_" id="radialGradient5395" gradientUnits="userSpaceOnUse" gradientTransform="matrix(1,0,0,-1,192.3999,143.0996)" cx="-145.4702" cy="87.823196" r="68.686401"></radialGradient>
	
	
<inkscape:perspective id="perspective10537" inkscape:persp3d-origin="0.5 : 0.33333333 : 1" inkscape:vp_z="1 : 0.5 : 1" inkscape:vp_y="0 : 1000 : 0" inkscape:vp_x="0 : 0.5 : 1" sodipodi:type="inkscape:persp3d"></inkscape:perspective><inkscape:perspective id="perspective13111" inkscape:persp3d-origin="0.5 : 0.33333333 : 1" inkscape:vp_z="1 : 0.5 : 1" inkscape:vp_y="0 : 1000 : 0" inkscape:vp_x="0 : 0.5 : 1" sodipodi:type="inkscape:persp3d"></inkscape:perspective><inkscape:perspective id="perspective18648" inkscape:persp3d-origin="0.5 : 0.33333333 : 1" inkscape:vp_z="1 : 0.5 : 1" inkscape:vp_y="0 : 1000 : 0" inkscape:vp_x="0 : 0.5 : 1" sodipodi:type="inkscape:persp3d"></inkscape:perspective><inkscape:perspective id="perspective3580" inkscape:persp3d-origin="0.5 : 0.33333333 : 1" inkscape:vp_z="1 : 0.5 : 1" inkscape:vp_y="0 : 1000 : 0" inkscape:vp_x="0 : 0.5 : 1" sodipodi:type="inkscape:persp3d"></inkscape:perspective></defs><sodipodi:namedview pagecolor="#ffffff" bordercolor="#666666" borderopacity="1" objecttolerance="10" gridtolerance="10" guidetolerance="10" inkscape:pageopacity="0" inkscape:pageshadow="2" inkscape:window-width="1198" inkscape:window-height="730" id="namedview4848" showgrid="false" inkscape:zoom="3.4269184" inkscape:cx="142.5283" inkscape:cy="30.570544" inkscape:window-x="28" inkscape:window-y="37" inkscape:window-maximized="0" inkscape:current-layer="svg3857" showguides="true" inkscape:guide-bbox="true"><sodipodi:guide orientation="0,1" position="0,140" id="globe_top"></sodipodi:guide><sodipodi:guide orientation="1,0" position="16,0" id="globe_left"></sodipodi:guide><sodipodi:guide orientation="1,0" position="119,0" id="globe_right"></sodipodi:guide><sodipodi:guide id="globe_bottom" position="0,47" orientation="0,1"></sodipodi:guide><sodipodi:guide orientation="0,1" position="8,40" id="wordmark_top"></sodipodi:guide><sodipodi:guide orientation="0,1" position="8,22.5" id="wordmark_bottom"></sodipodi:guide><sodipodi:guide orientation="0,1" position="100.38173,8.170606" id="subtitle_bottom"></sodipodi:guide><sodipodi:guide orientation="1,0" position="8,40" id="wordmark_left"></sodipodi:guide><sodipodi:guide orientation="1,0" position="127,40" id="wordmark_right"></sodipodi:guide></sodipodi:namedview><g style="font-size:27px;font-style:normal;font-variant:normal;font-weight:normal;font-stretch:normal;text-align:start;line-height:125%;letter-spacing:-1;writing-mode:lr-tb;text-anchor:start;fill:#000000;fill-opacity:1;stroke:none;font-family:Linux Libertine O C;-inkscape-font-specification:Linux Libertine O C" id="text3827" transform="translate(-4.56004,0)"><path d="m 18.667,132.77 c 5.534994,0 6.777,-3.429 6.777,-8.235 l 0,-7.425 c 0,-0.756 0.378001,-1.161 1.485,-1.242 l 0.702,-0.054 c 0.135,0 0.216,-0.081 0.216,-0.216 l 0,-0.513 -0.054,-0.054 c 0,0 -1.998001,0.054 -2.97,0.054 -1.052999,0 -2.97,-0.054 -2.97,-0.054 l -0.054,0.054 0,0.513 c 0,0.135 0.108,0.216 0.216,0.216 l 0.729,0.054 c 1.079999,0.081 1.458,0.405 1.458,1.242 l 0,7.911 c 0,3.024 -0.405005,6.642 -4.968,6.642 -1.295999,0 -2.403001,-0.567 -3.213,-1.35 -1.430999,-1.431 -1.431,-3.321 -1.431,-5.076 l 0,-8.181 c 0,-0.756 0.378001,-1.107 1.485,-1.188 l 0.702,-0.054 c 0.135,0 0.216,-0.081 0.216,-0.216 l 0,-0.513 -0.054,-0.054 c 0,0 -2.511001,0.054 -3.483,0.054 -1.052999,0 -3.402,-0.054 -3.402,-0.054 l -0.054,0.054 0,0.513 c 0,0.135 0.108,0.216 0.216,0.216 l 0.729,0.054 c 1.052999,0.081 1.458,0.351 1.458,1.188 l 0,9.072 c 0,5.50799 3.834002,6.642 6.264,6.642" id="path3836"></path><path d="m 30.457219,121.7 c 0,-0.54 0.297001,-0.756 1.134,-0.837 l 0.567,-0.054 c 0.108,0 0.162,-0.054 0.162,-0.135 l 0,-0.594 -0.027,-0.054 c 0,0 -2.079001,0.054 -2.808,0.054 -0.836999,0 -2.97,-0.054 -2.97,-0.054 l -0.027,0.054 0,0.621 c 0,0.081 0.081,0.108 0.189,0.108 l 0.54,0.054 c 0.836999,0.081 1.161,0.243 1.161,0.837 l 0,8.991 c 0,0.513 -0.270001,0.945 -1.161,1.026 l -0.54,0.054 c -0.108,0 -0.189,0.054 -0.189,0.162 l 0,0.567 0.054,0.054 c 0,0 2.106001,-0.054 2.862,-0.054 0.836999,0 2.889,0.054 2.889,0.054 l 0.027,-0.054 0,-0.567 c 0,-0.108 -0.081,-0.162 -0.162,-0.162 l -0.567,-0.054 c -0.863999,-0.081 -1.134,-0.432 -1.134,-1.026 l 0,-8.991" id="path3838"></path><path d="m 38.817234,132.77 c 2.105998,0 3.402002,-0.783 4.671,-2.484 l -0.54,-0.432 c -1.241998,1.458 -2.187001,1.998 -3.996,1.998 -3.266996,0 -4.239,-2.997 -4.239,-5.67 0,-4.536 2.106002,-5.589 4.131,-5.589 2.348998,0 3.537001,1.296 3.861,3.186 l 0.702,-0.081 c -0.161999,-1.107 -0.297,-2.241 -0.324,-3.456 -1.025999,0 -2.241002,-0.432 -4.401,-0.432 -3.563996,0 -6.318,2.7 -6.318,6.642 0,3.105 2.295005,6.318 6.453,6.318" id="path3840"></path><path d="m 51.106297,132.77 c 2.105998,0 3.402001,-0.783 4.671,-2.484 l -0.54,-0.432 c -1.241999,1.458 -2.187002,1.998 -3.996,1.998 -3.266997,0 -4.239,-2.997 -4.239,-5.67 0,-4.536 2.106002,-5.589 4.131,-5.589 2.348998,0 3.537,1.296 3.861,3.186 l 0.702,-0.081 c -0.162,-1.107 -0.297,-2.241 -0.324,-3.456 -1.025999,0 -2.241002,-0.432 -4.401,-0.432 -3.563997,0 -6.318,2.7 -6.318,6.642 0,3.105 2.295004,6.318 6.453,6.318" id="path3842"></path><path d="m 67.067359,130.853 c 0,0.54 -0.351,0.783 -1.161,0.864 l -0.54,0.054 c -0.108,0 -0.162,0.081 -0.162,0.162 l 0,0.567 0.027,0.054 c 0,0 2.052001,-0.054 2.808,-0.054 0.81,0 2.943,0.054 2.943,0.054 l 0.054,-0.054 0,-0.567 c 0,-0.081 -0.081,-0.162 -0.189,-0.162 l -0.54,-0.054 c -0.863999,-0.081 -1.161,-0.27 -1.161,-0.864 l 0,-9.207 c 0,-0.54 0.270001,-0.702 1.161,-0.783 l 0.54,-0.054 c 0.108,0 0.162,-0.054 0.162,-0.162 l 0,-0.567 -0.027,-0.054 c 0,0 -2.16,0.054 -2.916,0.054 -0.836999,0 -2.835,-0.054 -2.835,-0.054 l -0.054,0.054 0,0.567 c 0,0.108 0.081,0.162 0.189,0.162 l 0.54,0.054 c 0.81,0.081 1.161,0.189 1.161,0.783 l 0,4.077 -6.291,0 0,-4.077 c 0,-0.54 0.324001,-0.702 1.134,-0.783 l 0.567,-0.054 c 0.108,0 0.162,-0.054 0.162,-0.162 l 0,-0.567 -0.027,-0.054 c 0,0 -2.16,0.054 -2.889,0.054 -0.836999,0 -2.862,-0.054 -2.862,-0.054 l -0.054,0.054 0,0.567 c 0,0.108 0.081,0.162 0.189,0.162 l 0.54,0.054 c 0.864,0.081 1.161,0.189 1.161,0.783 l 0,9.207 c 0,0.54 -0.243001,0.783 -1.161,0.864 l -0.54,0.054 c -0.108,0 -0.189,0.081 -0.189,0.162 l 0,0.567 0.054,0.054 c 0,0 2.106001,-0.054 2.862,-0.054 0.81,0 2.889,0.054 2.889,0.054 l 0.027,-0.054 0,-0.567 c 0,-0.081 -0.081,-0.162 -0.162,-0.162 l -0.567,-0.054 c -0.836999,-0.081 -1.134,-0.27 -1.134,-0.864 l 0,-4.293 6.291,0 0,4.293" id="path3844"></path><path d="m 75.702141,121.7 c 0,-0.54 0.297,-0.756 1.134,-0.837 l 0.567,-0.054 c 0.108,0 0.162,-0.054 0.162,-0.135 l 0,-0.594 -0.027,-0.054 c 0,0 -2.079001,0.054 -2.808,0.054 -0.837,0 -2.97,-0.054 -2.97,-0.054 l -0.027,0.054 0,0.621 c 0,0.081 0.081,0.108 0.189,0.108 l 0.54,0.054 c 0.836999,0.081 1.161,0.243 1.161,0.837 l 0,8.991 c 0,0.513 -0.270001,0.945 -1.161,1.026 l -0.54,0.054 c -0.108,0 -0.189,0.054 -0.189,0.162 l 0,0.567 0.054,0.054 c 0,0 2.106,-0.054 2.862,-0.054 0.836999,0 2.889,0.054 2.889,0.054 l 0.027,-0.054 0,-0.567 c 0,-0.108 -0.081,-0.162 -0.162,-0.162 l -0.567,-0.054 c -0.864,-0.081 -1.134,-0.432 -1.134,-1.026 l 0,-8.991" id="path3846"></path><path d="m 82.189156,121.754 c 0,-0.702 0.324002,-0.945 1.62,-0.945 1.484999,0 2.538,0.513 2.538,2.835 0,2.079 -0.783001,3.051 -2.403,3.051 -0.539999,0 -1.215,-0.027 -1.755,-0.243 l 0,-4.698 m -2.079,9.072 c 0,0.513 -0.270001,0.756 -1.107,0.864 l -0.567,0.081 c -0.108,0.027 -0.162,0.054 -0.162,0.162 l 0,0.567 0.027,0.054 c 0,0 2.025001,-0.054 2.781,-0.054 0.836999,0 2.997,0.054 2.997,0.054 l 0.027,-0.054 0,-0.567 c 0,-0.108 -0.081,-0.135 -0.189,-0.162 l -0.54,-0.081 c -0.863999,-0.135 -1.188,-0.27 -1.188,-0.864 l 0,-3.618 c 0.486,0.216 1.026001,0.27 1.701,0.27 3.833996,0 4.617,-2.538 4.617,-4.158 0,-1.404 -0.702004,-3.294 -4.536,-3.294 -0.998999,0 -2.079001,0.054 -2.835,0.054 -0.782999,0 -2.376,-0.054 -2.781,-0.054 l -0.054,0.027 0,0.621 c 0,0.054 0.027,0.135 0.189,0.135 1.268999,0.081 1.62,0.108 1.62,0.945 l 0,9.072" id="path3848"></path><path d="m 98.726922,120.08 -5.022,0 -1.944,0 -2.7,-0.054 -0.027,0.054 0,0.594 c 0,0.027 0,0.081 0.162,0.108 l 0.621,0.054 c 0.755999,0.054 1.08,0.216 1.08,0.837 l 0,9.207 c 0,0.54 -0.243001,0.756 -1.08,0.837 l -0.621,0.054 c -0.135,0 -0.162,0.081 -0.162,0.135 l 0,0.594 0.027,0.054 2.673,-0.054 7.128,0 c 0.054,-0.864 0.243,-1.971 0.567,-3.294 l -0.675,-0.081 c -0.432,1.377 -1.026002,2.457 -2.673,2.457 l -2.322,0 c -0.486,0 -0.783,-0.135 -0.783,-0.648 l 0,-4.509 2.025,0 c 0.701999,0 0.945,0.297 1.053,0.837 l 0.135,0.594 c 0,0.081 0.054,0.135 0.189,0.135 l 0.459,0 0.054,-0.054 c -0.054,-0.621 -0.162,-1.188 -0.162,-1.863 0,-0.648 0.108,-1.404 0.162,-1.998 0,-0.054 0,-0.081 -0.054,-0.081 l -0.459,0 c -0.108,0 -0.162,0.054 -0.162,0.135 l -0.162,0.567 c -0.108,0.54 -0.297001,0.864 -1.053,0.864 l -2.025,0 0,-3.996 c 0,-0.459 0.27,-0.567 0.783,-0.567 l 2.16,0 c 1.727998,0 2.241,1.431 2.511,2.403 l 0.675,-0.081 c -0.189,-1.026 -0.351,-2.079 -0.378,-3.24 m -4.374,-5.994 c -0.108,-0.027 -0.27,-0.054 -0.405,-0.054 -0.917999,0 -1.539,0.459 -1.755,0.621 l -0.054,0.297 3.078,2.943 c 0.431999,0.405 0.621,0.54 0.783,0.54 0.216,0 0.405,-0.162 0.405,-0.297 0,-0.189 -0.027,-0.378 -0.162,-0.648 l -1.89,-3.402" id="path3850"></path><path d="m 100.2683,131.933 0,0.567 0.027,0.054 c 0,0 2.052,-0.054 2.862,-0.054 0.837,0 1.782,0.054 3.942,0.054 2.99699,0 6.345,-1.404 6.345,-6.129 0,-3.591 -2.21401,-6.399 -6.723,-6.399 -0.702,0 -3.051,0.054 -3.564,0.054 -0.486,0 -2.862,-0.054 -2.862,-0.054 l -0.027,0.054 0,0.594 c 0,0.081 0.081,0.135 0.189,0.135 l 0.594,0.054 c 0.891,0.081 1.08,0.081 1.08,0.783 l 0,8.91 c 0,0.837 -0.27,1.08 -1.08,1.161 l -0.621,0.054 c -0.108,0 -0.162,0.081 -0.162,0.162 m 3.942,-1.377 0,-8.91 c 0,-0.675 0.675,-0.837 1.728,-0.837 4.53599,0 5.157,3.267 5.157,6.075 0,3.78 -1.67401,4.887 -4.644,4.887 -2.052,0 -2.241,-0.459 -2.241,-1.215" id="path3852"></path><path d="m 118.37206,121.7 c 0,-0.54 0.297,-0.756 1.134,-0.837 l 0.567,-0.054 c 0.108,0 0.162,-0.054 0.162,-0.135 l 0,-0.594 -0.027,-0.054 c 0,0 -2.079,0.054 -2.808,0.054 -0.837,0 -2.97,-0.054 -2.97,-0.054 l -0.027,0.054 0,0.621 c 0,0.081 0.081,0.108 0.189,0.108 l 0.54,0.054 c 0.837,0.081 1.161,0.243 1.161,0.837 l 0,8.991 c 0,0.513 -0.27,0.945 -1.161,1.026 l -0.54,0.054 c -0.108,0 -0.189,0.054 -0.189,0.162 l 0,0.567 0.054,0.054 c 0,0 2.106,-0.054 2.862,-0.054 0.837,0 2.889,0.054 2.889,0.054 l 0.027,-0.054 0,-0.567 c 0,-0.108 -0.081,-0.162 -0.162,-0.162 l -0.567,-0.054 c -0.864,-0.081 -1.134,-0.432 -1.134,-1.026 l 0,-8.991" id="path3854"></path><path d="m 132.09508,115.058 c 0,-0.054 -0.027,-0.081 -0.108,-0.081 -0.459,0.081 -0.621,0.108 -1.269,0.108 l -6.804,0 c -0.729,0 -3.456,-0.027 -3.456,-0.027 l -0.054,0.027 0,0.54 c 0,0.081 0.027,0.189 0.216,0.189 l 0.81,0.054 c 1.026,0.081 1.377,0.324 1.377,1.161 l 0,13.527 c 0,0.756 -0.324,1.08 -1.377,1.161 l -0.81,0.054 c -0.162,0 -0.216,0.108 -0.216,0.189 l 0,0.54 0.054,0.054 3.456,-0.054 5.751,0 c 1.296,0 3.456,0.054 3.456,0.054 l 0.999,-4.509 -0.837,-0.135 c -0.54,1.944 -1.593,3.537 -3.645,3.537 l -3.672,0 c -0.594,0 -0.972,-0.162 -0.972,-0.891 l 0,-6.777 3.429,0 c 0.918,0 1.296,0.243 1.35,1.026 l 0.054,0.702 c 0,0.081 0.081,0.189 0.216,0.189 l 0.621,0 0.081,-0.081 c 0,0 -0.108,-1.539 -0.108,-2.457 0,-0.891 0.108,-2.322 0.108,-2.322 0,-0.054 -0.027,-0.108 -0.108,-0.108 l -0.594,0 c -0.108,0 -0.189,0.108 -0.189,0.216 l -0.081,0.675 c -0.081,0.756 -0.405,1.134 -1.35,1.134 l -3.429,0 0,-5.724 c 0,-0.648 0.324,-0.864 0.972,-0.864 l 2.835,0 c 2.025,0 2.511,1.08 3.105,2.943 l 0.783,-0.135 c -0.135,-1.107 -0.54,-3.699 -0.594,-3.915" id="path3856"></path></g><g style="font-size:13px;font-style:normal;font-variant:normal;font-weight:normal;font-stretch:normal;text-align:start;line-height:125%;letter-spacing:-0.15000001;writing-mode:lr-tb;text-anchor:start;fill:#000000;fill-opacity:1;stroke:none;font-family:Linux Libertine O;-inkscape-font-specification:Linux Libertine O" id="text3831"><path d="m 8.7366081,141.29139 0.351,-0.052 c 0,0 0.429,-2.145 0.429,-2.353 0,-0.208 -0.1170004,-0.429 -0.455,-0.429 -0.3899996,0 -0.663,0.364 -0.663,0.65 0,0.117 0.338,2.184 0.338,2.184" style="" id="path3904"></path><path d="m 12.806733,143.15039 c -0.299,0 -0.39,-0.026 -0.338,-0.169 l 1.313,-3.302 0.026,0 1.261,3.471 -2.262,0 m -1.404,2.652 0.715,-1.885 c 0.065,-0.169 0.143,-0.221 0.455,-0.221 l 2.704,0 0.793,2.197 c 0.182,0.546 -0.351001,0.494 -0.962,0.533 -0.078,0.078 -0.078,0.351 0,0.429 0.481,-0.013 1.196001,-0.026 1.703,-0.026 0.533,0 1.001001,0.013 1.482,0.026 0.078,-0.078 0.078,-0.351 0,-0.429 -0.506999,-0.039 -0.936,-0.039 -1.17,-0.715 l -2.665,-7.046 c -0.104,-0.247 -0.169,-0.39 -0.351,-0.39 -0.195,0 -0.299,0.117 -0.442,0.468 l -2.886,6.76 c -0.351,0.806 -0.741,0.884 -1.2999999,0.923 -0.078,0.078 -0.078,0.351 0,0.429 0.4809995,-0.013 0.6500009,-0.026 1.1569999,-0.026 0.533,0 1.183001,0.013 1.664,0.026 0.078,-0.078 0.078,-0.351 0,-0.429 -0.493999,-0.026 -1.105,-0.078 -0.897,-0.624" style="" id="path3906"></path><path d="m 22.403796,141.29139 0.351,-0.052 c 0,0 0.429,-2.145 0.429,-2.353 0,-0.208 -0.117001,-0.429 -0.455,-0.429 -0.39,0 -0.663,0.364 -0.663,0.65 0,0.117 0.338,2.184 0.338,2.184" style="" id="path3908"></path><path d="m 26.081686,142.17539 c -0.039,0.052 -0.13,0.182 -0.13,0 0,-0.39 0.065,-0.988 0.065,-0.988 0,-0.065 -0.052,-0.104 -0.156,-0.104 -0.364,0.143 -0.897001,0.26 -1.794,0.377 -0.026,0.078 0,0.286 0.026,0.364 0.701999,0.065 0.845,0.13 0.845,0.884 l 0,2.535 c 0,1.066 -0.130001,1.118 -0.91,1.183 -0.078,0.078 -0.078,0.351 0,0.429 0.532999,-0.013 0.871,-0.026 1.43,-0.026 0.506999,0 0.741,0.013 1.287,0.026 0.078,-0.078 0.078,-0.351 0,-0.429 -0.663,-0.065 -0.78,-0.117 -0.78,-1.183 l 0,-2.132 c 0,-0.273 0.117,-0.429 0.221,-0.546 0.493999,-0.481 1.001,-0.767 1.508,-0.767 0.26,0 0.533,0.169 0.689,0.468 0.13,0.26 0.156,0.611 0.156,1.001 l 0,1.976 c 0,1.066 -0.130001,1.118 -0.806,1.183 -0.065,0.078 -0.065,0.351 0,0.429 0.545999,-0.013 0.806,-0.026 1.326,-0.026 0.532999,0 0.819,0.013 1.378,0.026 0.065,-0.078 0.065,-0.351 0,-0.429 -0.727999,-0.065 -0.871,-0.117 -0.871,-1.183 l 0,-1.937 c 0,-0.715 -0.052,-1.339 -0.351,-1.742 -0.221,-0.286 -0.624001,-0.442 -1.079,-0.442 -0.637,0 -1.261001,0.169 -2.054,1.053" style="" id="path3910"></path><path d="m 34.643717,143.20239 c 0,1.209 -0.611,1.456 -1.092,1.456 -1.091998,0 -1.209,-0.923 -1.209,-1.755 0,-0.91 0.325001,-1.378 1.04,-1.378 0.819,0 1.261,0.598 1.261,1.677 m -2.431,3.757 c 0.143,0.039 0.351001,0.065 0.52,0.065 0.403,0 0.767001,-0.039 0.949,-0.039 0.65,0 1.196001,0.013 1.573,0.221 0.507,0.286 0.663,0.468 0.663,0.806 0,0.936 -1.378001,1.43 -2.548,1.43 -0.467999,0 -1.56,-0.377 -1.56,-1.261 0,-0.442 0.026,-0.767 0.403,-1.222 m 4.056,-5.161 c 0.247,0 0.481,-0.234 0.481,-0.494 0,-0.273 -0.247,-0.481 -0.598,-0.481 -0.337999,0 -0.962,0.221 -1.3,0.663 -0.155999,-0.104 -0.585,-0.364 -1.352,-0.364 -1.156998,0 -2.223,0.78 -2.223,1.976 0,0.702 0.312001,1.105 0.676,1.456 -0.363999,0.312 -0.572,0.871 -0.572,1.313 0,0.468 0.260001,0.832 0.598,1.001 -0.701999,0.416 -1.066,1.014 -1.066,1.573 0,1.131 1.066001,1.482 2.067,1.482 1.754999,0 3.653,-0.845 3.653,-2.249 0,-0.416 -0.195,-0.741 -0.572,-1.053 -0.506999,-0.416 -1.417,-0.429 -1.898,-0.429 -0.233999,0 -0.559,0.026 -0.871,0.065 -0.194999,0.013 -0.325,0.026 -0.39,0.026 -0.376999,0 -0.832,-0.182 -0.832,-0.741 0,-0.26 0.078,-0.533 0.234,-0.754 0.312,0.182 0.676001,0.273 1.183,0.273 1.143999,0 2.197,-0.715 2.197,-1.989 0,-0.611 -0.182,-0.962 -0.559,-1.352 0.091,-0.13 0.351001,-0.312 0.52,-0.312 0.091,0 0.182001,0.039 0.26,0.156 0.052,0.104 0.221001,0.234 0.364,0.234" style="" id="path3912"></path><path d="m 38.255593,143.16339 c 0.247,-1.469 1.157,-1.586 1.469,-1.586 0.493999,0 1.079,0.273 1.079,1.365 0,0.117 -0.052,0.182 -0.195,0.182 l -2.353,0.039 m 3.406,2.457 c -0.481,0.494 -0.858001,0.702 -1.612,0.702 -0.468,0 -1.014001,-0.273 -1.417,-0.936 -0.26,-0.429 -0.416,-1.027 -0.416,-1.781 l 3.458,0.026 c 0.156,0 0.247,-0.078 0.247,-0.221 0,-1.092 -0.390002,-2.262 -2.197,-2.262 -1.130999,0 -2.6,1.079 -2.6,3.055 0,0.728 0.182,1.43 0.611,1.924 0.441999,0.52 1.053001,0.832 1.989,0.832 0.987999,0 1.69,-0.455 2.21,-1.131 -0.039,-0.13 -0.117,-0.195 -0.273,-0.208" style="" id="path3914"></path><path d="m 47.583609,145.64639 c -0.052,-0.117 -0.156,-0.169 -0.273,-0.182 -0.442,0.572 -1.001001,0.858 -1.56,0.858 -0.948999,0 -1.742,-0.962 -1.742,-2.483 0,-1.43 0.624001,-2.288 1.482,-2.288 0.766999,0 0.871,0.455 0.923,0.91 0.039,0.351 0.221,0.468 0.494,0.468 0.273,0 0.637,-0.169 0.637,-0.572 0,-0.715 -0.741001,-1.235 -1.989,-1.235 -1.286999,0 -2.665,1.157 -2.665,3.003 0,1.677 0.936001,2.834 2.574,2.834 0.779999,0 1.469,-0.247 2.119,-1.313" style="" id="path3916"></path><path d="m 49.004373,145.24339 c 0,1.079 -0.143001,1.144 -0.936,1.183 -0.078,0.078 -0.078,0.351 0,0.429 0.545999,-0.013 0.884001,-0.026 1.456,-0.026 0.558999,0 0.884,0.013 1.443,0.026 0.078,-0.078 0.078,-0.351 0,-0.429 -0.792999,-0.039 -0.936,-0.104 -0.936,-1.183 l 0,-5.993 c 0,-0.845 0.052,-1.365 0.052,-1.365 0,-0.091 -0.052,-0.13 -0.169,-0.13 -0.325,0.13 -1.300001,0.312 -1.82,0.351 -0.026,0.104 0,0.312 0.078,0.39 0.675999,0.039 0.832,-0.026 0.832,1.066 l 0,5.681" style="" id="path3918"></path><path d="m 51.58011,144.16439 c 0,1.326 0.897001,2.795 2.73,2.795 1.936998,0 2.756,-1.612 2.756,-2.912 0,-1.352 -0.715002,-2.925 -2.73,-2.925 -1.754999,0 -2.756,1.391 -2.756,3.042 m 2.613,-2.613 c 1.117998,0 1.755,1.001 1.755,2.912 0,1.716 -0.793001,2.067 -1.404,2.067 -1.351999,0 -1.846,-1.664 -1.846,-2.665 0,-1.131 0.403001,-2.314 1.495,-2.314" style="" id="path3920"></path><path d="m 59.722889,142.47439 c 0.403,-0.416 0.923001,-0.754 1.313,-0.754 0.831999,0 1.547,0.936 1.547,2.405 0,1.066 -0.377001,2.392 -1.833,2.392 -0.233999,0 -0.689,-0.065 -0.923,-0.273 -0.272999,-0.234 -0.312,-0.299 -0.312,-0.78 l 0,-2.418 c 0,-0.273 0.039,-0.39 0.208,-0.572 m -0.104,-0.429 c -0.052,0.052 -0.13,0.065 -0.13,-0.039 0,-0.468 0.052,-0.832 0.052,-0.832 0,-0.052 -0.065,-0.091 -0.169,-0.091 -0.363999,0.143 -0.858001,0.26 -1.755,0.377 -0.026,0.078 0,0.286 0.026,0.364 0.702,0.065 0.845,0.143 0.845,0.884 l 0,5.551 c 0,1.079 -0.143,1.144 -0.936,1.183 -0.078,0.078 -0.078,0.351 0,0.429 0.546,-0.013 0.884001,-0.026 1.456,-0.026 0.611,0 1.014001,0.013 1.573,0.026 0.078,-0.078 0.078,-0.351 0,-0.429 -0.922999,-0.052 -1.066,-0.104 -1.066,-1.183 l 0,-1.404 c 0,-0.169 0.039,-0.143 0.182,-0.091 0.312,0.13 0.715001,0.195 1.131,0.195 0.728,0 1.378001,-0.221 1.911,-0.728 0.611,-0.598 0.962,-1.404 0.962,-2.457 0,-1.378 -0.975001,-2.652 -2.301,-2.652 -0.480999,0 -1.196,0.325 -1.781,0.923" style="" id="path3922"></path><path d="m 65.765357,143.16339 c 0.246999,-1.469 1.157,-1.586 1.469,-1.586 0.493999,0 1.079,0.273 1.079,1.365 0,0.117 -0.052,0.182 -0.195,0.182 l -2.353,0.039 m 3.406,2.457 c -0.481,0.494 -0.858001,0.702 -1.612,0.702 -0.468,0 -1.014001,-0.273 -1.417,-0.936 -0.26,-0.429 -0.416,-1.027 -0.416,-1.781 l 3.458,0.026 c 0.155999,0 0.247,-0.078 0.247,-0.221 0,-1.092 -0.390002,-2.262 -2.197,-2.262 -1.130999,0 -2.6,1.079 -2.6,3.055 0,0.728 0.182,1.43 0.611,1.924 0.441999,0.52 1.053,0.832 1.989,0.832 0.987999,0 1.69,-0.455 2.21,-1.131 -0.039,-0.13 -0.117001,-0.195 -0.273,-0.208" style="" id="path3924"></path><path d="m 74.378984,145.21739 c 0,0.247 -0.026,0.351 -0.208,0.507 -0.481,0.416 -0.897,0.624 -1.222,0.624 -0.701999,0 -1.43,-0.767 -1.43,-2.392 0,-0.936 0.182,-1.456 0.377,-1.729 0.402999,-0.611 0.949,-0.65 1.209,-0.65 0.467999,0 0.793,0.169 1.053,0.468 0.182,0.208 0.221,0.299 0.221,0.702 l 0,2.47 m -0.143,0.962 c 0.052,-0.052 0.156,-0.078 0.156,0.013 0,0.312 0.143,0.767 0.143,0.767 0.104,0.039 0.143,0.026 0.247,0 0.286,-0.234 0.780001,-0.429 1.573,-0.52 0.078,-0.078 0.078,-0.273 0,-0.351 -0.831999,-0.065 -0.949,-0.312 -0.949,-0.949 l 0,-5.889 c 0,-0.845 0.052,-1.365 0.052,-1.365 0,-0.091 -0.052,-0.13 -0.169,-0.13 -0.325,0.13 -1.300001,0.312 -1.82,0.351 -0.026,0.104 0,0.312 0.078,0.39 0.675999,0.039 0.832,-0.026 0.832,1.066 l 0,1.664 c 0,0.091 -0.026,0.117 -0.117,0.117 -0.052,0 -0.585001,-0.221 -1.014,-0.221 -0.857999,0 -1.430001,0.286 -1.95,0.78 -0.559,0.559 -0.897,1.326 -0.897,2.288 0,1.599 0.806001,2.769 2.21,2.769 0.506999,0 0.988,-0.26 1.625,-0.78" style="" id="path3926"></path><path d="m 77.490158,139.04239 c 0,0.338 0.312,0.676 0.624,0.676 0.364,0 0.676,-0.338 0.676,-0.624 0,-0.312 -0.273,-0.676 -0.624,-0.676 -0.312,0 -0.676,0.312 -0.676,0.624 m 1.183,6.201 0,-2.587 c 0,-0.65 0.052,-1.482 0.052,-1.482 0,-0.052 -0.065,-0.091 -0.169,-0.091 -0.377,0.143 -0.884001,0.26 -1.781,0.377 -0.026,0.078 0,0.286 0.026,0.364 0.701999,0.078 0.845,0.143 0.845,0.884 l 0,2.535 c 0,1.079 -0.143001,1.118 -0.936,1.183 -0.078,0.078 -0.078,0.351 0,0.429 0.545999,-0.013 0.884001,-0.026 1.456,-0.026 0.558999,0 0.884001,0.013 1.443,0.026 0.078,-0.078 0.078,-0.351 0,-0.429 -0.792999,-0.052 -0.936,-0.104 -0.936,-1.183" style="" id="path3928"></path><path d="m 80.986453,139.04239 c 0,0.338 0.312001,0.676 0.624,0.676 0.364,0 0.676,-0.338 0.676,-0.624 0,-0.312 -0.273,-0.676 -0.624,-0.676 -0.311999,0 -0.676,0.312 -0.676,0.624 m 0.182,3.666 0,3.133 c 0,1.716 -0.052,3.315 -0.702,3.315 -0.143,0 -0.312,-0.052 -0.403,-0.143 -0.13,-0.13 -0.286,-0.338 -0.572,-0.338 -0.143,0 -0.416,0.26 -0.416,0.494 0,0.377 0.468001,0.559 0.715,0.559 0.273,0 0.949001,-0.039 1.43,-0.442 0.611,-0.494 0.975,-1.43 0.975,-3.887 l 0,-2.743 c 0,-0.65 0.052,-1.482 0.052,-1.482 0,-0.052 -0.065,-0.091 -0.169,-0.091 -0.363999,0.143 -0.884001,0.26 -1.781,0.377 -0.026,0.078 0,0.286 0.026,0.364 0.702,0.065 0.845,0.143 0.845,0.884" style="" id="path3931"></path><path d="m 84.690749,143.16339 c 0.246999,-1.469 1.157,-1.586 1.469,-1.586 0.493999,0 1.079,0.273 1.079,1.365 0,0.117 -0.052,0.182 -0.195,0.182 l -2.353,0.039 m 3.406,2.457 c -0.481,0.494 -0.858001,0.702 -1.612,0.702 -0.468,0 -1.014001,-0.273 -1.417,-0.936 -0.26,-0.429 -0.416,-1.027 -0.416,-1.781 l 3.458,0.026 c 0.156,0 0.247,-0.078 0.247,-0.221 0,-1.092 -0.390002,-2.262 -2.197,-2.262 -1.130999,0 -2.6,1.079 -2.6,3.055 0,0.728 0.182,1.43 0.611,1.924 0.441999,0.52 1.053001,0.832 1.989,0.832 0.987999,0 1.69,-0.455 2.21,-1.131 -0.039,-0.13 -0.117,-0.195 -0.273,-0.208" style="" id="path3933"></path><path d="m 93.078199,145.24339 c 0,1.079 -0.143001,1.144 -0.936,1.183 -0.078,0.078 -0.078,0.351 0,0.429 0.545999,-0.013 0.884,-0.026 1.456,-0.026 0.558999,0 0.884,0.013 1.443,0.026 0.078,-0.078 0.078,-0.351 0,-0.429 -0.792999,-0.039 -0.936,-0.104 -0.936,-1.183 l 0,-5.993 c 0,-0.845 0.052,-1.365 0.052,-1.365 0,-0.091 -0.052,-0.13 -0.169,-0.13 -0.325,0.13 -1.300001,0.312 -1.82,0.351 -0.026,0.104 0,0.312 0.078,0.39 0.675999,0.039 0.832,-0.026 0.832,1.066 l 0,5.681" style="" id="path3935"></path><path d="m 96.407939,138.10639 c -0.052,-0.013 -0.13,-0.026 -0.195,-0.026 -0.441999,0 -0.741,0.221 -0.845,0.299 l -0.026,0.143 1.482,1.417 c 0.208,0.195 0.299,0.26 0.377,0.26 0.104,0 0.195,-0.078 0.195,-0.143 0,-0.091 -0.013,-0.182 -0.078,-0.312 l -0.91,-1.638 m 1.066,7.137 0,-2.587 c 0,-0.65 0.052,-1.482 0.052,-1.482 0,-0.052 -0.065,-0.091 -0.169,-0.091 -0.376999,0.143 -0.884001,0.26 -1.781,0.377 -0.026,0.078 0,0.286 0.026,0.364 0.702,0.078 0.845,0.143 0.845,0.884 l 0,2.535 c 0,1.079 -0.143001,1.118 -0.936,1.183 -0.078,0.078 -0.078,0.351 0,0.429 0.546,-0.013 0.884001,-0.026 1.456,-0.026 0.559,0 0.884001,0.013 1.443,0.026 0.078,-0.078 0.078,-0.351 0,-0.429 -0.792999,-0.052 -0.936,-0.104 -0.936,-1.183" style="" id="path3937"></path><path d="m 100.76223,142.11039 c 0.338,-0.299 0.728,-0.416 1.105,-0.416 0.793,0 1.443,0.962 1.443,2.223 0,1.482 -0.598,2.6 -1.833,2.6 -0.40299,0 -0.676,-0.286 -0.936,-0.611 l 0,-3.25 c 0,-0.273 0.052,-0.39 0.221,-0.546 m -0.091,-0.403 c -0.091,0.078 -0.13,0.052 -0.13,-0.065 l 0,-2.392 c 0,-0.845 0.052,-1.365 0.052,-1.365 0,-0.091 -0.052,-0.13 -0.169,-0.13 -0.325,0.13 -1.299996,0.312 -1.819995,0.351 -0.026,0.104 0,0.312 0.078,0.39 0.675999,0.039 0.832,-0.026 0.832,1.066 l 0,6.344 c 0,0.507 -0.013,0.741 -0.052,0.923 0.065,0.104 0.13,0.156 0.286,0.156 0.078,-0.065 0.208,-0.195 0.298995,-0.312 0.143,-0.156 0.221,-0.156 0.364,-0.026 0.286,0.247 0.67601,0.312 1.144,0.312 1.326,0 2.873,-1.209 2.873,-3.276 0,-1.586 -1.17,-2.561 -2.301,-2.561 -0.55899,0 -1.053,0.221 -1.456,0.585" style="" id="path3939"></path><path d="m 107.01067,142.11039 c 0.338,-0.299 0.728,-0.416 1.105,-0.416 0.793,0 1.443,0.962 1.443,2.223 0,1.482 -0.598,2.6 -1.833,2.6 -0.403,0 -0.676,-0.286 -0.936,-0.611 l 0,-3.25 c 0,-0.273 0.052,-0.39 0.221,-0.546 m -0.091,-0.403 c -0.091,0.078 -0.13,0.052 -0.13,-0.065 l 0,-2.392 c 0,-0.845 0.052,-1.365 0.052,-1.365 0,-0.091 -0.052,-0.13 -0.169,-0.13 -0.325,0.13 -1.3,0.312 -1.82,0.351 -0.026,0.104 0,0.312 0.078,0.39 0.676,0.039 0.832,-0.026 0.832,1.066 l 0,6.344 c 0,0.507 -0.013,0.741 -0.052,0.923 0.065,0.104 0.13,0.156 0.286,0.156 0.078,-0.065 0.208,-0.195 0.299,-0.312 0.143,-0.156 0.221,-0.156 0.364,-0.026 0.286,0.247 0.676,0.312 1.144,0.312 1.326,0 2.873,-1.209 2.873,-3.276 0,-1.586 -1.17,-2.561 -2.301,-2.561 -0.559,0 -1.053,0.221 -1.456,0.585" style="" id="path3941"></path><path d="m 112.68528,143.16339 c 0.247,-1.469 1.157,-1.586 1.469,-1.586 0.494,0 1.079,0.273 1.079,1.365 0,0.117 -0.052,0.182 -0.195,0.182 l -2.353,0.039 m 3.406,2.457 c -0.481,0.494 -0.858,0.702 -1.612,0.702 -0.468,0 -1.014,-0.273 -1.417,-0.936 -0.26,-0.429 -0.416,-1.027 -0.416,-1.781 l 3.458,0.026 c 0.156,0 0.247,-0.078 0.247,-0.221 0,-1.092 -0.39,-2.262 -2.197,-2.262 -1.131,0 -2.6,1.079 -2.6,3.055 0,0.728 0.182,1.43 0.611,1.924 0.442,0.52 1.053,0.832 1.989,0.832 0.988,0 1.69,-0.455 2.21,-1.131 -0.039,-0.13 -0.117,-0.195 -0.273,-0.208" style="" id="path3943"></path><path d="m 118.03773,142.70839 0,2.535 c 0,1.079 -0.156,1.131 -0.962,1.183 -0.078,0.078 -0.078,0.351 0,0.429 0.546,-0.013 0.962,-0.026 1.482,-0.026 0.533,0 1.014,0.013 1.573,0.026 0.078,-0.078 0.078,-0.351 0,-0.429 -0.91,-0.065 -1.066,-0.104 -1.066,-1.183 l 0,-1.807 c 0,-0.338 0.156,-0.637 0.312,-0.871 0.143,-0.208 0.442,-0.637 0.598,-0.637 0.091,0 0.195,0.013 0.273,0.091 0.13,0.13 0.26,0.377 0.533,0.377 0.312,0 0.611,-0.325 0.611,-0.65 0,-0.247 -0.234,-0.624 -0.78,-0.624 -0.611,0 -1.144,0.572 -1.443,1.079 -0.078,0.143 -0.117,0.078 -0.117,0.013 0,-0.416 0.065,-1.04 0.065,-1.04 0,-0.052 -0.065,-0.091 -0.169,-0.091 -0.364,0.143 -0.884,0.26 -1.781,0.377 -0.026,0.078 -0.026,0.286 0.026,0.364 0.702,0.065 0.845,0.169 0.845,0.884" style="" id="path3946"></path><path d="m 122.92239,143.16339 c 0.247,-1.469 1.157,-1.586 1.469,-1.586 0.494,0 1.079,0.273 1.079,1.365 0,0.117 -0.052,0.182 -0.195,0.182 l -2.353,0.039 m 3.406,2.457 c -0.481,0.494 -0.858,0.702 -1.612,0.702 -0.468,0 -1.014,-0.273 -1.417,-0.936 -0.26,-0.429 -0.416,-1.027 -0.416,-1.781 l 3.458,0.026 c 0.156,0 0.247,-0.078 0.247,-0.221 0,-1.092 -0.39,-2.262 -2.197,-2.262 -1.131,0 -2.6,1.079 -2.6,3.055 0,0.728 0.182,1.43 0.611,1.924 0.442,0.52 1.053,0.832 1.989,0.832 0.988,0 1.69,-0.455 2.21,-1.131 -0.039,-0.13 -0.117,-0.195 -0.273,-0.208" style="" id="path3948"></path></g></svg>
