<?xml version="1.0" encoding="UTF-8" standalone="no"?>
<!-- Generator: Adobe Illustrator 15.1.0, SVG Export Plug-In . SVG Version: 6.00 Build 0)  -->
<svg xmlns:dc="http://purl.org/dc/elements/1.1/" xmlns:cc="http://creativecommons.org/ns#" xmlns:rdf="http://www.w3.org/1999/02/22-rdf-syntax-ns#" xmlns:svg="http://www.w3.org/2000/svg" xmlns="http://www.w3.org/2000/svg" xmlns:sodipodi="http://sodipodi.sourceforge.net/DTD/sodipodi-0.dtd" xmlns:inkscape="http://www.inkscape.org/namespaces/inkscape" version="1.1" id="svg3857" inkscape:version="0.46" sodipodi:docname="Wikipedia-logo-v2-ur.svg" x="0px" y="0px" width="135px" height="155px" viewBox="0 0 135 155" enable-background="new 0 0 135 155" xml:space="preserve" sodipodi:version="0.32" inkscape:output_extension="org.inkscape.output.svg.inkscape"><metadata id="metadata698"><rdf:rdf><cc:work rdf:about=""><dc:format>image/svg+xml</dc:format><dc:type rdf:resource="http://purl.org/dc/dcmitype/StillImage"></dc:type></cc:work></rdf:rdf></metadata><defs id="defs3"></defs><sodipodi:namedview id="namedview4848" showgrid="false" pagecolor="#ffffff" objecttolerance="10" guidetolerance="10" inkscape:cy="2.8040791" inkscape:guide-bbox="true" showguides="true" inkscape:zoom="3.2129032" inkscape:pageopacity="0" gridtolerance="10" inkscape:window-height="723" bordercolor="#666666" inkscape:window-y="24" borderopacity="1" inkscape:pageshadow="2" inkscape:window-x="0" inkscape:window-width="1024" inkscape:cx="67.440883" inkscape:current-layer="svg3857" inkscape:window-maximized="0">
	<sodipodi:guide id="globe_top" orientation="0,1" position="0,140"></sodipodi:guide>
	<sodipodi:guide id="globe_left" orientation="1,0" position="16,0"></sodipodi:guide>
	<sodipodi:guide id="globe_right" orientation="1,0" position="119,0"></sodipodi:guide>
	<sodipodi:guide id="globe_bottom" orientation="0,1" position="0,47"></sodipodi:guide>
	
	
	<sodipodi:guide id="subtitle_top" orientation="0,1" position="0,16.5"></sodipodi:guide>
	
	<sodipodi:guide id="wordmark_left" orientation="1,0" position="8,40"></sodipodi:guide>
	<sodipodi:guide id="wordmark_right" orientation="1,0" position="127,40"></sodipodi:guide>
<sodipodi:guide orientation="0,1" position="0,43.5" id="guide3075"></sodipodi:guide><sodipodi:guide orientation="0,1" position="0,14.75" id="guide3081"></sodipodi:guide><sodipodi:guide orientation="0,1" position="0,0.5" id="guide3083"></sodipodi:guide></sodipodi:namedview><path transform="matrix(1.8903511,0,0,1.8903511,-33.488736,-113.11447)" style="font-size:13px;font-style:normal;font-variant:normal;font-weight:normal;font-stretch:normal;fill:#000000;fill-opacity:1;stroke:none;stroke-width:1px;stroke-linecap:butt;stroke-linejoin:miter;stroke-opacity:1;font-family:Sans;-inkscape-font-specification:Sans" d="M 70.540783,126.82011 C 70.68043,126.99785 70.803151,127.13538 70.908947,127.23271 C 71.018971,127.33004 71.126881,127.39564 71.232677,127.42949 C 71.338469,127.45911 71.448495,127.46123 71.562756,127.43584 C 71.677011,127.41045 71.810311,127.36601 71.962658,127.30254 C 71.882251,127.15866 71.789153,127.02747 71.683361,126.90898 C 71.577564,126.78626 71.461191,126.69528 71.33424,126.63603 C 71.211516,126.57679 71.082448,126.55775 70.947033,126.5789 C 70.815846,126.60006 70.68043,126.68047 70.540783,126.82011 M 69.912365,127.48662 C 69.933523,127.31312 69.973725,127.12269 70.03297,126.91533 C 70.092214,126.70797 70.170502,126.50697 70.267834,126.3123 C 70.365163,126.11341 70.479421,125.93356 70.610607,125.77275 C 70.74179,125.60771 70.887786,125.48711 71.048595,125.41093 C 71.213632,125.33477 71.393482,125.31361 71.588146,125.34746 C 71.787037,125.37708 71.998625,125.48499 72.222912,125.67119 C 72.400643,125.84893 72.533943,126.06263 72.622814,126.3123 C 72.711678,126.56198 72.764575,126.82435 72.781506,127.09941 C 72.802661,127.37448 72.792081,127.65166 72.749767,127.93095 C 72.707446,128.21025 72.641854,128.46839 72.55299,128.70537 C 72.493742,128.85771 72.421802,129.02698 72.33717,129.21318 C 72.252531,129.39938 72.157316,129.58769 72.051525,129.77812 C 71.94996,129.96855 71.837818,130.15475 71.715099,130.33672 C 71.592375,130.52291 71.463307,130.69007 71.327892,130.83818 C 71.192473,130.98629 71.048593,131.10901 70.896252,131.20634 C 70.748138,131.3079 70.595794,131.37138 70.43922,131.39677 C 70.24879,131.40524 70.054128,131.42005 69.855236,131.44121 C 69.660574,131.4666 69.463797,131.48564 69.264904,131.49834 C 69.070243,131.51103 68.875581,131.51103 68.68092,131.49834 C 68.486259,131.48987 68.293713,131.4539 68.103283,131.39043 C 67.972099,131.34811 67.91497,131.31002 67.931896,131.27617 C 67.944593,131.24654 68.008069,131.22539 68.122326,131.21269 C 68.524345,131.15768 68.89674,131.07093 69.239513,130.95244 C 69.586518,130.83818 69.899669,130.70488 70.178967,130.55254 C 70.462494,130.40442 70.714284,130.24573 70.934338,130.07646 C 71.158619,129.90719 71.351165,129.74215 71.511974,129.58134 C 71.672779,129.42477 71.801848,129.27666 71.899181,129.13701 C 72.000741,129.00159 72.070565,128.88945 72.108654,128.80058 C 72.150969,128.71595 72.178475,128.61439 72.191174,128.4959 C 72.208097,128.37317 72.212329,128.25468 72.203869,128.14043 C 72.199634,128.02194 72.182707,127.91826 72.153088,127.82939 C 72.127694,127.74053 72.095956,127.68551 72.057873,127.66435 C 72.032479,127.7236 72.000741,127.80823 71.962658,127.91826 C 71.928801,128.02829 71.875904,128.13831 71.803967,128.24834 C 71.736255,128.35836 71.645272,128.45569 71.531017,128.54033 C 71.416757,128.62073 71.268645,128.66305 71.086681,128.66728 C 70.938567,128.66728 70.792572,128.63343 70.648693,128.56572 C 70.509043,128.49378 70.384206,128.4028 70.274181,128.29277 C 70.164154,128.18274 70.075287,128.05791 70.00758,127.91826 C 69.944102,127.77438 69.912364,127.6305 69.912365,127.48662 M 64.205822,131.09843 C 64.121187,131.03496 64.100028,130.96302 64.142345,130.88261 C 64.24814,130.73873 64.351819,130.59485 64.453381,130.45097 C 64.554943,130.31132 64.658622,130.16956 64.764416,130.02568 C 64.79827,129.98759 64.825776,129.97067 64.846935,129.9749 C 64.872326,129.97913 64.899832,129.99183 64.929455,130.01299 C 65.001395,130.068 65.075451,130.12724 65.151623,130.19072 C 65.232026,130.25419 65.310314,130.31344 65.386486,130.36845 C 65.462657,130.4277 65.534597,130.47848 65.602306,130.5208 C 65.674246,130.56735 65.735606,130.59908 65.786388,130.61601 C 65.832937,130.63294 65.860443,130.63717 65.868908,130.62871 C 65.87737,130.62024 65.900645,130.59274 65.938732,130.54619 C 65.981049,130.49964 66.042409,130.42558 66.122814,130.32402 C 66.207448,130.22246 66.325938,130.08069 66.478283,129.89873 C 66.512135,129.86487 66.539642,129.85218 66.560802,129.86064 C 66.586191,129.87334 66.60735,129.88603 66.624279,129.89873 C 66.827402,130.06377 66.983977,130.19072 67.094006,130.27959 C 67.208261,130.36845 67.29078,130.43404 67.341564,130.47636 C 67.396575,130.51868 67.428313,130.54407 67.436779,130.55254 C 67.449472,130.561 67.457935,130.56735 67.46217,130.57158 C 67.487558,130.5885 67.502369,130.60966 67.506603,130.63506 C 67.515064,130.66044 67.508716,130.68583 67.48756,130.71123 C 67.381763,130.84664 67.275969,130.97994 67.170177,131.11113 C 67.068613,131.24654 66.96705,131.38196 66.86549,131.51738 C 66.827402,131.56393 66.795664,131.58509 66.770275,131.58086 C 66.744883,131.57662 66.719492,131.56604 66.694103,131.54912 C 66.545989,131.45602 66.408457,131.35234 66.281506,131.23808 C 66.154551,131.12805 66.023366,131.00533 65.887951,130.86992 C 65.777924,131.00533 65.67213,131.14075 65.570568,131.27617 C 65.469005,131.41158 65.365327,131.54488 65.259533,131.67607 C 65.217215,131.72685 65.162202,131.73954 65.094494,131.71416 C 65.031017,131.68876 64.97812,131.66126 64.935802,131.63164 C 64.859631,131.58932 64.794038,131.54912 64.739025,131.51103 C 64.684012,131.47718 64.628999,131.43909 64.573986,131.39677 C 64.518973,131.35869 64.46396,131.31425 64.408947,131.26347 C 64.349703,131.21692 64.281994,131.16191 64.205822,131.09843 M 66.014904,127.34062 C 66.019135,127.17558 65.99586,127.00843 65.94508,126.83916 C 65.898529,126.66989 65.839284,126.50273 65.767345,126.33769 C 65.695404,126.16842 65.619233,126.00339 65.53883,125.84258 C 65.462657,125.67754 65.399181,125.51885 65.3484,125.3665 C 65.310314,125.29456 65.310314,125.22262 65.3484,125.15068 C 65.42034,124.98565 65.494395,124.82272 65.570568,124.66191 C 65.646739,124.49688 65.720795,124.32972 65.792736,124.16045 C 65.80543,124.13083 65.824473,124.11813 65.849865,124.12236 C 65.875254,124.1266 65.892182,124.13929 65.900646,124.16045 C 65.951426,124.26624 66.019135,124.41647 66.103771,124.61113 C 66.192637,124.80156 66.277272,125.01315 66.357677,125.2459 C 66.442311,125.47441 66.514251,125.71139 66.573498,125.95683 C 66.632741,126.20228 66.660247,126.43079 66.656017,126.64238 C 66.656015,126.80742 66.641204,126.95976 66.611584,127.09941 C 66.58196,127.23483 66.539642,127.37236 66.484631,127.51201 C 66.429616,127.65166 66.364024,127.79977 66.287853,127.95634 C 66.21168,128.11292 66.127045,128.29277 66.033947,128.4959 C 65.94931,128.53821 65.8414,128.57418 65.710217,128.60381 C 65.583263,128.63343 65.449962,128.6567 65.310314,128.67363 C 65.170665,128.69056 65.033133,128.70325 64.897717,128.71172 C 64.766532,128.71595 64.652274,128.71595 64.554943,128.71172 L 64.554943,127.44218 C 64.652274,127.44219 64.766532,127.44219 64.897717,127.44218 C 65.028901,127.43795 65.162202,127.43161 65.297619,127.42314 C 65.433035,127.41468 65.56422,127.4041 65.691174,127.3914 C 65.818126,127.37871 65.926036,127.36178 66.014904,127.34062 M 58.270763,127.44218 C 58.588146,127.43795 58.905529,127.43372 59.222912,127.42949 C 59.540294,127.42103 59.842865,127.40833 60.130627,127.3914 C 60.418385,127.37448 60.682871,127.34909 60.924084,127.31523 C 61.165292,127.28138 61.370533,127.23483 61.539806,127.17558 C 61.472095,127.00208 61.374764,126.82223 61.247814,126.63603 C 61.12509,126.44984 60.985442,126.26364 60.828869,126.07744 C 60.672291,125.89124 60.50302,125.70716 60.321056,125.52519 C 60.14332,125.34323 59.96347,125.16761 59.781506,124.99834 C 59.60377,124.82484 59.428152,124.6598 59.25465,124.50322 C 59.085379,124.34665 58.930919,124.20277 58.791271,124.07158 C 58.774344,124.18584 58.759533,124.27894 58.746838,124.35088 C 58.734142,124.42282 58.708751,124.46302 58.670666,124.47148 C 58.624116,124.48418 58.56064,124.44609 58.480236,124.35722 C 58.404064,124.26836 58.327892,124.16045 58.25172,124.03349 C 58.171317,123.90654 58.101493,123.77536 58.042248,123.63994 C 57.978772,123.50453 57.940686,123.39873 57.92799,123.32256 C 57.919527,123.25485 57.930106,123.16387 57.959728,123.04961 C 57.989351,122.93112 58.027437,122.81263 58.073986,122.69414 C 58.120536,122.57565 58.171317,122.46774 58.22633,122.37041 C 58.277111,122.27308 58.325777,122.20749 58.372326,122.17363 C 58.431571,122.13978 58.497163,122.1017 58.569103,122.05937 C 58.641043,122.01283 58.746837,121.95358 58.886486,121.88164 C 59.026134,121.8097 59.212332,121.72084 59.44508,121.61504 C 59.677826,121.50502 59.982513,121.37383 60.359142,121.22148 C 60.735768,121.06491 61.199146,120.88083 61.749279,120.66924 C 62.299405,120.45765 62.961677,120.2101 63.736095,119.92656 C 63.786871,119.90118 63.824957,119.89695 63.850353,119.91386 C 63.875738,119.92657 63.865159,119.96254 63.818615,120.02177 C 63.793219,120.04717 63.740322,120.1043 63.659924,120.19316 C 63.579515,120.28204 63.492764,120.37514 63.39967,120.47246 C 63.310798,120.5698 63.228278,120.65655 63.152111,120.73271 C 63.075935,120.80889 63.029385,120.84698 63.012463,120.84697 C 62.678149,121.00355 62.367114,121.14532 62.079357,121.27226 C 61.791593,121.39499 61.493254,121.52406 61.184338,121.65947 C 60.879648,121.79066 60.545338,121.93666 60.181408,122.09746 C 59.821706,122.25404 59.398529,122.44447 58.911877,122.66875 C 59.254649,122.99883 59.546641,123.28024 59.787853,123.51299 C 60.033294,123.74574 60.242767,123.94675 60.416271,124.11601 C 60.589772,124.28106 60.735768,124.42494 60.854259,124.54765 C 60.976978,124.66615 61.087004,124.77617 61.184338,124.87773 C 61.285897,124.9793 61.381112,125.08298 61.469982,125.18877 C 61.563078,125.29033 61.666756,125.40882 61.781017,125.54424 C 61.899503,125.67542 62.03492,125.83411 62.187267,126.02031 C 62.343839,126.20228 62.534268,126.42445 62.758556,126.68681 C 62.974372,126.93649 63.236742,127.12269 63.545666,127.24541 C 63.85458,127.3639 64.169846,127.42314 64.491467,127.42314 L 64.75172,127.42314 L 64.872326,127.42314 C 64.94426,127.42314 64.982345,127.42526 64.986584,127.42949 C 64.986577,127.4845 64.984461,127.56914 64.980236,127.6834 C 64.98023,127.79342 64.978114,127.91191 64.973888,128.03886 C 64.973882,128.16582 64.971766,128.28854 64.967541,128.40703 C 64.967534,128.52129 64.967534,128.61015 64.967541,128.67363 C 64.832118,128.69902 64.700933,128.71172 64.573986,128.71172 C 64.404709,128.71172 64.229091,128.7096 64.047131,128.70537 C 63.865159,128.70114 63.687425,128.67998 63.513927,128.64189 C 63.344652,128.60381 63.183845,128.54456 63.031506,128.46416 C 62.883389,128.38375 62.756436,128.26738 62.650646,128.11504 C 62.536384,127.96269 62.424243,127.80823 62.31422,127.65166 C 62.204191,127.49508 62.092049,127.33639 61.977795,127.17558 C 61.931242,127.35332 61.861418,127.53317 61.768322,127.71513 C 61.67522,127.89287 61.550383,128.07907 61.39381,128.27373 C 61.338794,128.3372 61.24358,128.39222 61.108166,128.43877 C 60.976978,128.48532 60.822519,128.52552 60.644787,128.55937 C 60.46705,128.58899 60.274505,128.61439 60.06715,128.63554 C 59.864024,128.6567 59.665131,128.67363 59.47047,128.68633 C 59.275808,128.69479 59.093842,128.70114 58.924572,128.70537 C 58.759533,128.7096 58.624116,128.71172 58.518322,128.71172 L 58.25172,128.71172 C 58.255952,128.49166 58.260184,128.28008 58.264416,128.07695 C 58.264416,127.87383 58.266532,127.66224 58.270763,127.44218 M 54.220959,130.86992 C 54.136323,130.80644 54.115165,130.7345 54.157482,130.6541 C 54.263276,130.51022 54.366955,130.36634 54.468517,130.22246 C 54.570079,130.08281 54.673758,129.94104 54.779552,129.79716 C 54.813406,129.75908 54.840913,129.74215 54.862072,129.74638 C 54.887462,129.75061 54.914968,129.76331 54.944592,129.78447 C 55.016531,129.83948 55.090587,129.89873 55.166759,129.9622 C 55.247162,130.02568 55.32545,130.08492 55.401623,130.13994 C 55.477793,130.19918 55.549733,130.24996 55.617443,130.29228 C 55.689382,130.33883 55.750742,130.37057 55.801525,130.3875 C 55.848073,130.40442 55.875579,130.40865 55.884045,130.40019 C 55.892507,130.39173 55.915781,130.36422 55.953869,130.31767 C 55.996185,130.27112 56.057545,130.19707 56.137951,130.0955 C 56.222584,129.99394 56.341074,129.85218 56.49342,129.67021 C 56.527272,129.63636 56.554778,129.62366 56.575939,129.63213 C 56.601327,129.64482 56.622486,129.65752 56.639416,129.67021 C 56.842538,129.83525 56.999113,129.9622 57.109142,130.05107 C 57.223397,130.13994 57.305917,130.20553 57.356701,130.24785 C 57.411711,130.29016 57.443449,130.31556 57.451916,130.32402 C 57.464608,130.33248 57.473071,130.33883 57.477306,130.34306 C 57.502694,130.35999 57.517505,130.38115 57.52174,130.40654 C 57.5302,130.43193 57.523853,130.45732 57.502697,130.48271 C 57.3969,130.61813 57.291105,130.75143 57.185314,130.88261 C 57.083749,131.01803 56.982186,131.15345 56.880627,131.28886 C 56.842538,131.33541 56.8108,131.35657 56.785412,131.35234 C 56.760019,131.34811 56.734628,131.33753 56.70924,131.3206 C 56.561126,131.2275 56.423593,131.12382 56.296642,131.00957 C 56.169687,130.89954 56.038502,130.77682 55.903088,130.6414 C 55.79306,130.77682 55.687266,130.91223 55.585705,131.04765 C 55.484141,131.18307 55.380463,131.31637 55.27467,131.44756 C 55.232351,131.49833 55.177338,131.51103 55.109631,131.48564 C 55.046153,131.46025 54.993256,131.43274 54.950939,131.40312 C 54.874767,131.3608 54.809174,131.3206 54.754162,131.28252 C 54.699148,131.24866 54.644135,131.21057 54.589123,131.16826 C 54.534109,131.13017 54.476981,131.08574 54.417736,131.03496 C 54.362723,130.98841 54.297131,130.93339 54.220959,130.86992 M 56.360119,127.32158 C 56.245859,127.54163 56.101979,127.74053 55.928478,127.91826 C 55.759206,128.09176 55.570892,128.23987 55.363537,128.36259 C 55.160411,128.48108 54.940359,128.57207 54.703381,128.63554 C 54.470633,128.69902 54.233654,128.72864 53.992443,128.72441 L 53.992443,127.42314 C 54.077079,127.43161 54.149019,127.43584 54.208263,127.43584 C 54.267508,127.43161 54.320405,127.42949 54.366955,127.42949 C 54.574311,127.42949 54.788015,127.39564 55.008068,127.32793 C 55.232351,127.26022 55.446055,127.17347 55.649181,127.06767 C 55.856536,126.95765 56.049082,126.83493 56.226818,126.69951 C 56.408782,126.55986 56.563242,126.42021 56.690197,126.28056 C 56.72828,126.23825 56.757903,126.22344 56.779064,126.23613 C 56.80022,126.24883 56.8108,126.27422 56.810802,126.3123 C 56.793873,126.5112 56.831959,126.67624 56.92506,126.80742 C 57.018156,126.93437 57.136646,127.03805 57.280529,127.11845 C 57.428638,127.19886 57.589445,127.26022 57.762951,127.30254 C 57.93645,127.34062 58.093025,127.37236 58.232677,127.39775 C 58.304613,127.41045 58.380785,127.41891 58.461193,127.42314 C 58.541592,127.42737 58.624112,127.42949 58.708752,127.42949 C 58.708747,127.4845 58.706631,127.56914 58.702404,127.6834 C 58.7024,127.79342 58.700284,127.91191 58.696056,128.03886 C 58.696052,128.16582 58.693936,128.28854 58.689709,128.40703 C 58.689704,128.52129 58.689704,128.61015 58.689709,128.67363 C 58.300382,128.72441 58.031665,128.72864 57.883556,128.68633 C 57.701587,128.66517 57.521737,128.62496 57.344006,128.56572 C 57.1705,128.50224 57.013925,128.41761 56.874279,128.31181 C 56.734628,128.20179 56.618254,128.06637 56.525158,127.90556 C 56.432057,127.74053 56.377044,127.54586 56.360119,127.32158 M 50.050549,130.6541 C 49.965913,130.59062 49.944754,130.51868 49.987072,130.43828 C 50.092866,130.2944 50.196544,130.15052 50.298107,130.00664 C 50.399669,129.86276 50.503347,129.72099 50.609142,129.58134 C 50.642996,129.54326 50.670502,129.52421 50.691662,129.52422 C 50.717052,129.52845 50.744558,129.54114 50.774181,129.5623 C 50.846121,129.62155 50.920176,129.68291 50.996349,129.74638 C 51.076752,129.80986 51.15504,129.8691 51.231213,129.92412 C 51.307383,129.98336 51.379323,130.03414 51.447033,130.07646 C 51.518971,130.12301 51.580332,130.15475 51.631115,130.17168 C 51.677663,130.1886 51.705169,130.19283 51.713634,130.18437 C 51.722096,130.17591 51.745371,130.14628 51.783459,130.0955 C 51.825775,130.04895 51.887135,129.9749 51.967541,129.87334 C 52.052174,129.776 52.170664,129.63636 52.323009,129.45439 C 52.356861,129.4163 52.384368,129.40149 52.405529,129.40996 C 52.430917,129.42265 52.452076,129.43746 52.469006,129.45439 C 52.621347,129.57711 52.746184,129.67867 52.843517,129.75908 C 52.945077,129.83948 53.02548,129.90296 53.084728,129.94951 C 53.148202,130.00029 53.194751,130.03626 53.224377,130.05742 C 53.253996,130.08281 53.275155,130.09974 53.287853,130.1082 C 53.296313,130.1082 53.309009,130.11878 53.325939,130.13994 C 53.347095,130.1611 53.357674,130.18225 53.357677,130.20341 C 53.357674,130.2288 53.349211,130.24996 53.332287,130.26689 C 53.226489,130.40231 53.120695,130.53561 53.014904,130.66679 C 52.913339,130.80221 52.80966,130.93762 52.703869,131.07304 C 52.670012,131.11536 52.64039,131.1344 52.615002,131.13017 C 52.589608,131.12594 52.564218,131.11748 52.53883,131.10478 C 52.390715,131.01168 52.253183,130.908 52.126232,130.79375 C 51.999277,130.68372 51.868092,130.561 51.732677,130.42558 C 51.62265,130.55677 51.516856,130.69007 51.415295,130.82549 C 51.313731,130.9609 51.210053,131.09632 51.104259,131.23174 C 51.061941,131.28251 51.006928,131.29309 50.93922,131.26347 C 50.875743,131.23808 50.822846,131.21269 50.780529,131.1873 C 50.704356,131.14498 50.638764,131.10478 50.583752,131.0667 C 50.528738,131.03284 50.473725,130.99475 50.418713,130.95244 C 50.363699,130.91435 50.30657,130.86992 50.247326,130.81914 C 50.192313,130.77259 50.12672,130.71757 50.050549,130.6541 M 51.123302,131.96172 C 51.14446,131.93209 51.182546,131.88131 51.23756,131.80937 C 51.296804,131.74166 51.358164,131.66972 51.421642,131.59355 C 51.485117,131.51738 51.544362,131.44332 51.599377,131.37138 C 51.65862,131.30367 51.698822,131.25712 51.719982,131.23174 C 51.753835,131.18942 51.783457,131.16826 51.808849,131.16826 C 51.83847,131.17249 51.86386,131.18518 51.885021,131.20634 C 52.037363,131.33753 52.191822,131.46236 52.3484,131.58086 C 52.504973,131.69934 52.631926,131.81148 52.729259,131.91728 C 52.754647,131.93844 52.765227,131.95748 52.760998,131.97441 C 52.756763,131.99557 52.744068,132.01884 52.722912,132.04424 C 52.62981,132.18388 52.53248,132.31295 52.43092,132.43144 C 52.329355,132.55416 52.229908,132.68323 52.13258,132.81865 C 52.086028,133.18681 52.028899,133.1995 51.961193,132.85674 C 51.906178,132.82711 51.836354,132.78056 51.75172,132.71709 C 51.671315,132.65361 51.588796,132.5859 51.504162,132.51396 C 51.419525,132.44202 51.341237,132.37008 51.269299,132.29814 C 51.197357,132.23043 51.14446,132.1733 51.110607,132.12675 C 51.089447,132.0929 51.080984,132.06539 51.085217,132.04424 C 51.089447,132.02307 51.102142,131.99557 51.123302,131.96172 M 52.094494,127.32158 C 51.980234,127.54163 51.836354,127.74053 51.662853,127.91826 C 51.493581,128.09176 51.305267,128.23987 51.097912,128.36259 C 50.894786,128.48108 50.674734,128.57207 50.437756,128.63554 C 50.205008,128.69902 49.968029,128.72864 49.726818,128.72441 L 49.726818,127.42314 C 49.811454,127.43161 49.883394,127.43584 49.942638,127.43584 C 50.001883,127.43161 50.05478,127.42949 50.10133,127.42949 C 50.308686,127.42949 50.52239,127.39564 50.742443,127.32793 C 50.966726,127.26022 51.18043,127.17347 51.383556,127.06767 C 51.590911,126.95765 51.783457,126.83493 51.961193,126.69951 C 52.143157,126.55986 52.297617,126.42021 52.424572,126.28056 C 52.462655,126.23825 52.492278,126.22344 52.513439,126.23613 C 52.534595,126.24883 52.545175,126.27422 52.545177,126.3123 C 52.528248,126.5112 52.566334,126.67624 52.659435,126.80742 C 52.752531,126.93437 52.871021,127.03805 53.014904,127.11845 C 53.163013,127.19886 53.32382,127.26022 53.497326,127.30254 C 53.670825,127.34062 53.8274,127.37236 53.967052,127.39775 C 54.038988,127.41045 54.11516,127.41891 54.195568,127.42314 C 54.275967,127.42737 54.358487,127.42949 54.443127,127.42949 C 54.443122,127.4845 54.441006,127.56914 54.436779,127.6834 C 54.436775,127.79342 54.434659,127.91191 54.430431,128.03886 C 54.430427,128.16582 54.428311,128.28854 54.424084,128.40703 C 54.424079,128.52129 54.424079,128.61015 54.424084,128.67363 C 54.034757,128.72441 53.76604,128.72864 53.617931,128.68633 C 53.435962,128.66517 53.256112,128.62496 53.078381,128.56572 C 52.904875,128.50224 52.7483,128.41761 52.608654,128.31181 C 52.469003,128.20179 52.352629,128.06637 52.259533,127.90556 C 52.166432,127.74053 52.111419,127.54586 52.094494,127.32158 M 45.689709,130.86992 C 45.605073,130.80644 45.583915,130.7345 45.626232,130.6541 C 45.732026,130.51022 45.835705,130.36634 45.937267,130.22246 C 46.038829,130.08281 46.142508,129.94104 46.248302,129.79716 C 46.282156,129.75908 46.309663,129.74215 46.330822,129.74638 C 46.356212,129.75061 46.383718,129.76331 46.413342,129.78447 C 46.485281,129.83948 46.559337,129.89873 46.635509,129.9622 C 46.715912,130.02568 46.7942,130.08492 46.870373,130.13994 C 46.946543,130.19918 47.018483,130.24996 47.086193,130.29228 C 47.158132,130.33883 47.219492,130.37057 47.270275,130.3875 C 47.316823,130.40442 47.344329,130.40865 47.352795,130.40019 C 47.361257,130.39173 47.384531,130.36422 47.422619,130.31767 C 47.464935,130.27112 47.526295,130.19707 47.606701,130.0955 C 47.691334,129.99394 47.809824,129.85218 47.96217,129.67021 C 47.996022,129.63636 48.023528,129.62366 48.044689,129.63213 C 48.070077,129.64482 48.091236,129.65752 48.108166,129.67021 C 48.311288,129.83525 48.467863,129.9622 48.577892,130.05107 C 48.692147,130.13994 48.774667,130.20553 48.825451,130.24785 C 48.880461,130.29016 48.912199,130.31556 48.920666,130.32402 C 48.933358,130.33248 48.941821,130.33883 48.946056,130.34306 C 48.971444,130.35999 48.986255,130.38115 48.99049,130.40654 C 48.99895,130.43193 48.992603,130.45732 48.971447,130.48271 C 48.86565,130.61813 48.759855,130.75143 48.654064,130.88261 C 48.552499,131.01803 48.450936,131.15345 48.349377,131.28886 C 48.311288,131.33541 48.27955,131.35657 48.254162,131.35234 C 48.228769,131.34811 48.203378,131.33753 48.17799,131.3206 C 48.029876,131.2275 47.892343,131.12382 47.765392,131.00957 C 47.638437,130.89954 47.507252,130.77682 47.371838,130.6414 C 47.26181,130.77682 47.156016,130.91223 47.054455,131.04765 C 46.952891,131.18307 46.849213,131.31637 46.74342,131.44756 C 46.701101,131.49833 46.646088,131.51103 46.578381,131.48564 C 46.514903,131.46025 46.462006,131.43274 46.419689,131.40312 C 46.343517,131.3608 46.277924,131.3206 46.222912,131.28252 C 46.167898,131.24866 46.112885,131.21057 46.057873,131.16826 C 46.002859,131.13017 45.945731,131.08574 45.886486,131.03496 C 45.831473,130.98841 45.765881,130.93339 45.689709,130.86992 M 47.828869,127.32158 C 47.714609,127.54163 47.570729,127.74053 47.397228,127.91826 C 47.227956,128.09176 47.039642,128.23987 46.832287,128.36259 C 46.629161,128.48108 46.409109,128.57207 46.172131,128.63554 C 45.939383,128.69902 45.702404,128.72864 45.461193,128.72441 L 45.461193,127.42314 C 45.545829,127.43161 45.617769,127.43584 45.677013,127.43584 C 45.736258,127.43161 45.789155,127.42949 45.835705,127.42949 C 46.043061,127.42949 46.256765,127.39564 46.476818,127.32793 C 46.701101,127.26022 46.914805,127.17347 47.117931,127.06767 C 47.325286,126.95765 47.517832,126.83493 47.695568,126.69951 C 47.877532,126.55986 48.031992,126.42021 48.158947,126.28056 C 48.19703,126.23825 48.226653,126.22344 48.247814,126.23613 C 48.26897,126.24883 48.27955,126.27422 48.279552,126.3123 C 48.262623,126.5112 48.300709,126.67624 48.39381,126.80742 C 48.486906,126.93437 48.605396,127.03805 48.749279,127.11845 C 48.897388,127.19886 49.058195,127.26022 49.231701,127.30254 C 49.4052,127.34062 49.561775,127.37236 49.701427,127.39775 C 49.773363,127.41045 49.849535,127.41891 49.929943,127.42314 C 50.010342,127.42737 50.092862,127.42949 50.177502,127.42949 C 50.177497,127.4845 50.175381,127.56914 50.171154,127.6834 C 50.17115,127.79342 50.169034,127.91191 50.164806,128.03886 C 50.164802,128.16582 50.162686,128.28854 50.158459,128.40703 C 50.158454,128.52129 50.158454,128.61015 50.158459,128.67363 C 49.769132,128.72441 49.500415,128.72864 49.352306,128.68633 C 49.170337,128.66517 48.990487,128.62496 48.812756,128.56572 C 48.63925,128.50224 48.482675,128.41761 48.343029,128.31181 C 48.203378,128.20179 48.087004,128.06637 47.993908,127.90556 C 47.900807,127.74053 47.845794,127.54586 47.828869,127.32158 M 42.909435,121.01836 C 42.824796,121.01836 42.740161,121.03741 42.655529,121.07549 C 42.575122,121.10935 42.496834,121.15378 42.420666,121.20879 C 42.344491,121.25957 42.272551,121.3167 42.204845,121.38017 C 42.137134,121.43942 42.077889,121.49444 42.027111,121.54521 C 42.086353,121.54099 42.162525,121.54099 42.255627,121.54521 C 42.348723,121.54522 42.452401,121.5431 42.566662,121.53886 C 42.680916,121.53041 42.801522,121.51348 42.928478,121.48808 C 43.059659,121.4627 43.190844,121.41827 43.322033,121.35478 C 43.296638,121.24053 43.239509,121.1559 43.150646,121.10088 C 43.066007,121.04164 42.985603,121.01413 42.909435,121.01836 M 41.798595,121.50713 C 41.857838,121.43096 41.914966,121.34844 41.969982,121.25957 C 42.024992,121.16648 42.069426,121.07338 42.103283,120.98027 C 42.10328,120.75176 42.099048,120.52748 42.090588,120.30742 C 42.082121,120.08738 42.082121,119.86309 42.090588,119.63457 C 42.056731,119.57533 42.018645,119.52455 41.97633,119.48222 C 41.938241,119.43992 41.919198,119.3849 41.919201,119.31718 C 41.961516,119.24102 42.003834,119.16485 42.046154,119.08867 C 42.092701,119.01251 42.13925,118.93845 42.185802,118.8665 C 42.198495,118.85382 42.215422,118.84112 42.236584,118.82841 C 42.25774,118.81573 42.274667,118.82208 42.287365,118.84746 C 42.312753,118.9448 42.361418,119.03578 42.433361,119.12041 C 42.50953,119.20505 42.587817,119.28546 42.668224,119.36162 C 42.630135,119.47165 42.587817,119.56898 42.541271,119.65361 C 42.49895,119.73825 42.456633,119.80808 42.414318,119.86308 C 42.418547,120.06622 42.418547,120.23126 42.414318,120.3582 C 42.410083,120.48093 42.403735,120.57826 42.395275,120.65019 C 42.386808,120.71791 42.378345,120.76657 42.369884,120.79619 C 42.36565,120.82582 42.363534,120.84698 42.363537,120.85966 C 42.465096,120.77081 42.577238,120.68405 42.699963,120.59941 C 42.826912,120.51478 42.962329,120.47247 43.106213,120.47246 C 43.309334,120.47247 43.472257,120.53594 43.594982,120.66289 C 43.717699,120.78985 43.774828,120.95489 43.766369,121.158 C 43.724047,121.21726 43.66057,121.30824 43.575939,121.43095 C 43.4913,121.55368 43.391853,121.66582 43.277599,121.76738 C 43.171801,121.83086 43.051196,121.88376 42.915783,121.92607 C 42.784594,121.9684 42.647062,122.00225 42.503185,122.02763 C 42.363534,122.05303 42.223885,122.07207 42.08424,122.08476 C 41.944589,122.09323 41.81552,122.09746 41.697033,122.09746 C 41.646249,122.09746 41.606047,122.09535 41.576427,122.09111 C 41.546803,122.08689 41.506601,122.07419 41.455822,122.05302 C 41.405039,122.02764 41.330983,121.98744 41.233654,121.93242 C 41.136321,121.87741 40.994557,121.79912 40.808361,121.69756 C 40.753347,121.67217 40.730072,121.65101 40.738537,121.63408 C 40.751231,121.61716 40.785085,121.60658 40.840099,121.60234 C 40.928965,121.59388 41.022064,121.59177 41.119396,121.59599 C 41.220957,121.596 41.316171,121.596 41.405041,121.59599 C 41.498137,121.596 41.578541,121.59177 41.646252,121.5833 C 41.718189,121.57061 41.76897,121.54522 41.798595,121.50713 M 43.525158,126.80107 C 43.508227,126.83493 43.484952,126.89206 43.455334,126.97246 C 43.429939,127.04863 43.387621,127.18828 43.328381,127.3914 C 43.273364,127.55644 43.190844,127.70244 43.080822,127.82939 C 42.975024,127.95635 42.850187,128.06637 42.70631,128.15947 C 42.566659,128.25257 42.414315,128.33297 42.249279,128.40068 C 42.084237,128.46416 41.917082,128.51705 41.747814,128.55937 C 41.578541,128.59746 41.411386,128.62496 41.246349,128.64189 C 41.081308,128.65882 40.931081,128.66728 40.795666,128.66728 C 40.626394,128.66728 40.469818,128.63978 40.325939,128.58476 C 40.18629,128.52975 40.065684,128.45358 39.964123,128.35625 C 39.866791,128.25468 39.792735,128.1362 39.741955,128.00078 C 39.691173,127.86113 39.67213,127.7109 39.684826,127.55009 C 39.689057,127.48662 39.693289,127.41468 39.697521,127.33427 C 39.705984,127.25387 39.712332,127.17135 39.716564,127.08672 C 39.725027,127.00208 39.731375,126.91956 39.735607,126.83916 C 39.74407,126.75452 39.752534,126.68047 39.760998,126.61699 C 39.79062,126.4985 39.828706,126.43926 39.875256,126.43925 C 39.9345,126.43926 39.95989,126.50697 39.951427,126.64238 C 39.947195,126.73548 39.949311,126.81165 39.957775,126.8709 C 39.97047,126.93014 39.989513,126.98092 40.014904,127.02324 C 40.040294,127.06556 40.069916,127.10364 40.103771,127.1375 C 40.141856,127.16712 40.182058,127.20098 40.224377,127.23906 C 40.279389,127.28561 40.342865,127.3237 40.414806,127.35332 C 40.490977,127.37871 40.569265,127.39987 40.64967,127.41679 C 40.734304,127.42949 40.818939,127.43795 40.903576,127.44218 C 40.98821,127.44642 41.068613,127.44853 41.144787,127.44853 C 41.220957,127.44853 41.328867,127.44007 41.468517,127.42314 C 41.608163,127.40622 41.756275,127.38083 41.912853,127.34697 C 42.073658,127.31312 42.236581,127.2708 42.401623,127.22002 C 42.566659,127.16501 42.71477,127.10364 42.845959,127.03593 C 42.97714,126.964 43.082934,126.88359 43.163342,126.79472 C 43.243741,126.70586 43.279711,126.60641 43.271252,126.49638 C 43.262784,126.42868 43.252205,126.34827 43.239513,126.25517 C 43.231046,126.16208 43.199308,126.03089 43.144299,125.86162 C 43.089282,125.68812 43.00253,125.46172 42.884045,125.18242 C 42.769783,124.89889 42.604744,124.53073 42.388927,124.07793 L 42.623791,122.96074 C 42.632251,122.93535 42.64283,122.91843 42.655529,122.90996 C 42.672453,122.9015 42.687264,122.90996 42.699963,122.93535 C 42.759204,123.07077 42.824796,123.20619 42.89674,123.3416 C 42.968676,123.47279 43.042732,123.61244 43.118908,123.76054 C 43.267016,124.01869 43.410896,124.29798 43.550549,124.59843 C 43.690193,124.89889 43.798103,125.21416 43.874279,125.54424 C 43.916592,125.74736 43.963141,125.95049 44.013927,126.15361 C 44.068936,126.35251 44.142992,126.5387 44.236095,126.7122 C 44.329189,126.88148 44.449795,127.02747 44.597912,127.15019 C 44.746018,127.27292 44.938564,127.35543 45.175549,127.39775 C 45.234787,127.41045 45.283453,127.41891 45.321545,127.42314 C 45.363856,127.42737 45.410406,127.42949 45.461193,127.42949 L 45.594494,127.42949 L 45.892834,127.42949 L 45.892834,127.89922 L 45.892834,128.22929 C 45.892827,128.32239 45.890711,128.4028 45.886486,128.4705 C 45.882248,128.53821 45.8759,128.60381 45.867443,128.66728 C 45.795496,128.67998 45.729904,128.69056 45.670666,128.69902 C 45.615646,128.70748 45.558517,128.71172 45.499279,128.71172 C 45.334234,128.71172 45.175543,128.70325 45.023205,128.68633 C 44.875087,128.6694 44.735439,128.63766 44.604259,128.59111 C 44.473069,128.54456 44.352464,128.48108 44.242443,128.40068 C 44.132412,128.32028 44.035082,128.2166 43.950451,128.08965 C 43.81503,127.88229 43.715583,127.66435 43.652111,127.43584 C 43.592862,127.20732 43.550544,126.99573 43.525158,126.80107 M 36.326916,131.09843 C 36.242281,131.03496 36.221122,130.96302 36.263439,130.88261 C 36.369234,130.73873 36.472912,130.59485 36.574474,130.45097 C 36.676037,130.31132 36.779715,130.16956 36.885509,130.02568 C 36.919364,129.98759 36.94687,129.97067 36.968029,129.9749 C 36.99342,129.97913 37.020926,129.99183 37.050549,130.01299 C 37.122488,130.068 37.196544,130.12724 37.272717,130.19072 C 37.35312,130.25419 37.431407,130.31344 37.50758,130.36845 C 37.583751,130.4277 37.655691,130.47848 37.7234,130.5208 C 37.795339,130.56735 37.8567,130.59908 37.907482,130.61601 C 37.954031,130.63294 37.981537,130.63717 37.990002,130.62871 C 37.998464,130.62024 38.021739,130.59274 38.059826,130.54619 C 38.102142,130.49964 38.163503,130.42558 38.243908,130.32402 C 38.328542,130.22246 38.447031,130.08069 38.599377,129.89873 C 38.633229,129.86487 38.660736,129.85218 38.681896,129.86064 C 38.707285,129.87334 38.728444,129.88603 38.745373,129.89873 C 38.948496,130.06377 39.105071,130.19072 39.215099,130.27959 C 39.329355,130.36845 39.411874,130.43404 39.462658,130.47636 C 39.517668,130.51868 39.549407,130.54407 39.557873,130.55254 C 39.570565,130.561 39.579029,130.56735 39.583263,130.57158 C 39.608651,130.5885 39.623462,130.60966 39.627697,130.63506 C 39.636158,130.66044 39.62981,130.68583 39.608654,130.71123 C 39.502857,130.84664 39.397063,130.97994 39.291271,131.11113 C 39.189706,131.24654 39.088144,131.38196 38.986584,131.51738 C 38.948496,131.56393 38.916757,131.58509 38.891369,131.58086 C 38.865976,131.57662 38.840586,131.56604 38.815197,131.54912 C 38.667083,131.45602 38.529551,131.35234 38.402599,131.23808 C 38.275645,131.12805 38.14446,131.00533 38.009045,130.86992 C 37.899018,131.00533 37.793223,131.14075 37.691662,131.27617 C 37.590099,131.41158 37.48642,131.54488 37.380627,131.67607 C 37.338309,131.72685 37.283296,131.73954 37.215588,131.71416 C 37.152111,131.68876 37.099214,131.66126 37.056896,131.63164 C 36.980724,131.58932 36.915132,131.54912 36.860119,131.51103 C 36.805106,131.47718 36.750093,131.43909 36.69508,131.39677 C 36.640067,131.35869 36.585054,131.31425 36.530041,131.26347 C 36.470796,131.21692 36.403088,131.16191 36.326916,131.09843 M 38.135998,127.34062 C 38.140228,127.17558 38.116954,127.00843 38.066174,126.83916 C 38.019623,126.66989 37.960378,126.50273 37.888439,126.33769 C 37.816498,126.16842 37.740326,126.00339 37.659924,125.84258 C 37.583751,125.67754 37.520274,125.51885 37.469494,125.3665 C 37.431407,125.29456 37.431407,125.22262 37.469494,125.15068 C 37.541433,124.98565 37.615489,124.82272 37.691662,124.66191 C 37.767833,124.49688 37.841889,124.32972 37.91383,124.16045 C 37.926524,124.13083 37.945567,124.11813 37.970959,124.12236 C 37.996348,124.1266 38.013275,124.13929 38.02174,124.16045 C 38.07252,124.26624 38.140228,124.41647 38.224865,124.61113 C 38.313731,124.80156 38.398366,125.01315 38.478771,125.2459 C 38.563405,125.47441 38.635345,125.71139 38.694592,125.95683 C 38.753834,126.20228 38.781341,126.43079 38.777111,126.64238 C 38.777109,126.80742 38.762298,126.95976 38.732677,127.09941 C 38.703053,127.23483 38.660736,127.37236 38.605724,127.51201 C 38.55071,127.65166 38.485117,127.79977 38.408947,127.95634 C 38.332774,128.11292 38.248138,128.29277 38.155041,128.4959 C 38.070404,128.53821 37.962494,128.57418 37.83131,128.60381 C 37.704356,128.63343 37.571056,128.6567 37.431408,128.67363 C 37.291759,128.69056 37.154227,128.70325 37.01881,128.71172 C 36.887625,128.71595 36.773368,128.71595 36.676037,128.71172 L 36.676037,127.44218 C 36.773368,127.44219 36.887625,127.44219 37.01881,127.44218 C 37.149995,127.43795 37.283296,127.43161 37.418713,127.42314 C 37.554129,127.41468 37.685313,127.4041 37.812267,127.3914 C 37.939219,127.37871 38.047129,127.36178 38.135998,127.34062 M 35.146252,125.69658 C 35.209726,126.2848 35.400156,126.72279 35.717541,127.01054 C 36.039153,127.29407 36.506763,127.43372 37.120373,127.42949 C 37.120369,127.4845 37.118253,127.56914 37.114025,127.6834 C 37.114021,127.79342 37.111906,127.91191 37.107677,128.03886 C 37.107674,128.16582 37.105558,128.28854 37.10133,128.40703 C 37.101326,128.52129 37.101326,128.61015 37.10133,128.67363 C 36.796639,128.72864 36.500415,128.72864 36.212658,128.67363 C 35.924895,128.61439 35.666757,128.50013 35.438244,128.33086 C 35.209726,128.16159 35.021413,127.93519 34.873302,127.65166 C 34.725189,127.36813 34.638438,127.02959 34.613049,126.63603 C 34.52418,125.80661 34.435313,124.99199 34.346447,124.19218 C 34.257579,123.38815 34.160248,122.56931 34.054455,121.73564 L 34.517834,120.56767 C 34.538991,120.50844 34.555919,120.48516 34.568615,120.49785 C 34.581309,120.51055 34.589773,120.53594 34.594006,120.57402 C 34.661713,121.00144 34.718842,121.42885 34.765392,121.85625 C 34.816172,122.28366 34.860606,122.71107 34.898693,123.13847 C 34.941009,123.56166 34.981211,123.98695 35.019299,124.41435 C 35.057383,124.84177 35.099701,125.26917 35.146252,125.69658" id="Wikipedia"></path><path style="font-size:13px;font-style:normal;font-variant:normal;font-weight:normal;font-stretch:normal;fill:#000000;fill-opacity:1;stroke:none;stroke-width:1px;stroke-linecap:butt;stroke-linejoin:miter;stroke-opacity:1;font-family:Sans;-inkscape-font-specification:Sans" d="M 65.524677,179.95526 C 65.465431,179.98912 65.423114,180.00605 65.397724,180.00604 C 65.351174,180.00605 65.330015,179.98489 65.334247,179.94257 C 65.338478,179.89602 65.363869,179.84736 65.410419,179.79657 C 65.664324,179.50459 65.930926,179.27184 66.210224,179.09833 C 66.489519,178.92483 66.787859,178.83385 67.105243,178.82538 C 67.19834,178.82539 67.291439,178.83597 67.38454,178.85712 C 67.477636,178.87828 67.570735,178.90156 67.663837,178.92694 C 67.756933,178.94811 67.850032,178.96927 67.943134,178.99042 C 68.03623,179.01159 68.131444,179.02216 68.228778,179.02216 C 68.393814,179.02216 68.554621,178.99677 68.7112,178.94598 C 68.867772,178.89521 69.015884,178.83174 69.155536,178.75555 C 69.29518,178.67516 69.422133,178.58629 69.536396,178.48895 C 69.65488,178.39163 69.754327,178.29642 69.834735,178.20331 C 69.90667,178.11868 69.957452,178.07848 69.987079,178.0827 C 70.016696,178.08271 70.006117,178.13773 69.955341,178.24774 C 69.862237,178.44241 69.735284,178.63496 69.574482,178.82538 C 69.417901,179.01159 69.240167,179.18086 69.041278,179.33319 C 68.842381,179.48131 68.630793,179.60192 68.406513,179.69501 C 68.186457,179.78811 67.966406,179.83466 67.746357,179.83466 C 67.627864,179.83466 67.519954,179.82197 67.422626,179.79657 C 67.329525,179.77119 67.238542,179.7458 67.149677,179.7204 C 67.060807,179.69078 66.974056,179.66328 66.889423,179.63788 C 66.809017,179.6125 66.722266,179.5998 66.629169,179.59979 C 66.413347,179.5998 66.214454,179.63577 66.032489,179.7077 C 65.850522,179.77965 65.681252,179.86217 65.524677,179.95526 M 66.743427,182.18329 C 66.768816,182.05211 66.798438,181.91246 66.832294,181.76434 C 66.870378,181.61201 66.908464,181.46601 66.946552,181.32635 C 66.984636,181.18671 67.024837,181.05976 67.067157,180.9455 C 67.109473,180.83125 67.149675,180.74238 67.187763,180.67889 C 67.238542,180.59427 67.268164,180.56888 67.27663,180.60272 C 67.285091,180.63658 67.289323,180.68737 67.289325,180.75507 C 67.289323,180.84394 67.289323,180.92646 67.289325,181.00262 C 67.293555,181.0788 67.295671,181.15498 67.295673,181.23114 C 67.299902,181.30732 67.30625,181.38772 67.314716,181.47235 C 67.323177,181.55276 67.333756,181.64163 67.346454,181.73895 C 67.376074,181.98017 67.405696,182.2637 67.435321,182.58954 C 67.469173,182.91539 67.500911,183.25393 67.530536,183.60516 C 67.564388,183.95217 67.59401,184.29918 67.619403,184.64618 C 67.649023,184.98896 67.674414,185.29999 67.695575,185.57928 C 67.716731,185.85858 67.733658,186.08922 67.746357,186.27118 C 67.759049,186.45315 67.765397,186.55683 67.7654,186.58221 C 67.769628,186.9927 67.742122,187.37356 67.68288,187.72479 C 67.627864,188.07603 67.532649,188.3913 67.397235,188.67059 C 67.380306,188.69598 67.365495,188.70022 67.352802,188.68329 C 67.344336,188.67059 67.337988,188.6452 67.333759,188.60712 C 67.304134,188.32359 67.278743,188.05064 67.257587,187.78827 C 67.236426,187.5259 67.215267,187.27411 67.19411,187.0329 C 67.160254,186.62242 67.122168,186.2077 67.079853,185.78876 C 67.041765,185.36558 67.001563,184.94875 66.959247,184.53827 C 66.921159,184.12356 66.883073,183.71943 66.844989,183.32587 C 66.806901,182.92809 66.773047,182.54723 66.743427,182.18329 M 62.8904,183.19257 C 62.911557,183.16295 62.949643,183.11428 63.004657,183.04657 C 63.059669,182.97463 63.118914,182.90058 63.182392,182.8244 C 63.245867,182.744 63.307227,182.66995 63.366474,182.60223 C 63.425717,182.53453 63.468034,182.48798 63.493427,182.46259 C 63.527279,182.42027 63.556902,182.40123 63.582294,182.40546 C 63.607683,182.40546 63.633073,182.41604 63.658466,182.43719 C 63.810808,182.56839 63.963151,182.69322 64.115497,182.81171 C 64.27207,182.9302 64.401139,183.04234 64.502704,183.14813 C 64.52386,183.1693 64.532324,183.19046 64.528095,183.21161 C 64.52386,183.22854 64.511165,183.2497 64.490009,183.27509 C 64.396907,183.41051 64.299577,183.53958 64.198017,183.66229 C 64.096452,183.78502 63.997005,183.91197 63.899677,184.04315 C 63.857357,184.11933 63.800228,184.13414 63.72829,184.08759 C 63.673275,184.05797 63.603451,184.01142 63.518818,183.94794 C 63.438412,183.88446 63.355893,183.81676 63.271259,183.74481 C 63.190854,183.67288 63.114682,183.60305 63.042743,183.53534 C 62.970802,183.4634 62.917905,183.40416 62.884052,183.3576 C 62.85866,183.32376 62.848081,183.29625 62.852314,183.27509 C 62.856544,183.25393 62.869239,183.22643 62.8904,183.19257 M 60.281513,190.08612 C 60.548115,190.0565 60.861266,189.98667 61.220966,189.87665 C 61.576435,189.77085 61.938251,189.62062 62.306415,189.42596 C 62.674578,189.23553 63.023699,188.99855 63.353778,188.71503 C 63.688086,188.4315 63.963151,188.09719 64.178974,187.7121 C 64.217057,187.57245 64.210709,187.42222 64.159931,187.26141 C 64.113379,187.09638 64.049902,186.9398 63.969501,186.79169 C 63.889095,186.63934 63.806576,186.50181 63.721943,186.37909 C 63.637305,186.25637 63.57806,186.16327 63.544208,186.09979 C 63.535743,186.09979 63.533627,186.08922 63.53786,186.06805 C 63.546322,186.0469 63.561133,186.00246 63.582294,185.93475 C 63.603451,185.86282 63.635189,185.76125 63.677509,185.63007 C 63.724056,185.49465 63.783301,185.3148 63.855243,185.09052 C 63.867936,185.04397 63.882748,185.01435 63.899677,185.00165 C 63.920833,184.98896 63.941992,184.98684 63.963153,184.9953 C 63.98431,184.99954 64.005469,185.01011 64.02663,185.02704 C 64.052018,185.04397 64.075293,185.0609 64.096454,185.07782 C 64.337662,185.36981 64.506933,185.66604 64.604267,185.96649 C 64.701594,186.26695 64.743912,186.56952 64.73122,186.87421 C 64.718521,187.1789 64.659277,187.48358 64.553485,187.78827 C 64.45192,188.08872 64.320735,188.38283 64.159931,188.67059 C 64.062598,188.8441 63.956803,189.02183 63.842548,189.2038 C 63.73252,189.38576 63.607683,189.55292 63.468036,189.70526 C 63.328386,189.86184 63.173927,189.99302 63.004657,190.09882 C 62.835385,190.20461 62.647072,190.26597 62.439716,190.2829 C 62.025002,190.32521 61.648375,190.35272 61.309833,190.36542 C 60.971292,190.37811 60.626403,190.35484 60.275165,190.29559 C 60.127055,190.24904 60.057231,190.20884 60.065693,190.17499 C 60.069926,190.14113 60.141866,190.11151 60.281513,190.08612 M 60.091083,181.49139 C 60.116473,181.36022 60.146095,181.22057 60.17995,181.07245 C 60.218035,180.92011 60.256121,180.77412 60.294208,180.63446 C 60.332293,180.49482 60.372495,180.36787 60.414814,180.2536 C 60.45713,180.13935 60.497332,180.05048 60.535419,179.987 C 60.548113,179.96585 60.560808,179.94469 60.573505,179.92352 C 60.586199,179.90237 60.607358,179.88968 60.636982,179.88544 C 60.63698,180.00817 60.634864,180.12031 60.630634,180.22186 C 60.630633,180.32343 60.630633,180.43769 60.630634,180.56464 C 60.715268,181.36022 60.787208,182.05423 60.846454,182.64667 C 60.905697,183.23912 60.954363,183.74905 60.99245,184.17645 C 61.034766,184.60387 61.06862,184.95933 61.094013,185.24286 C 61.119402,185.52639 61.136329,185.75702 61.144794,185.93475 C 61.157488,186.10826 61.165951,186.23944 61.170185,186.32831 C 61.174415,186.41718 61.176531,186.48277 61.176532,186.52509 L 61.176532,186.59491 C 61.180762,186.96731 61.153256,187.32701 61.094013,187.67401 C 61.038998,188.02102 60.943783,188.33417 60.808368,188.61346 C 60.79144,188.63885 60.776629,188.64309 60.763935,188.62616 C 60.75547,188.61346 60.749122,188.58807 60.744892,188.54999 C 60.681414,187.87714 60.628517,187.28046 60.5862,186.75995 C 60.548113,186.23944 60.507911,185.7676 60.465595,185.34442 C 60.410581,184.81969 60.361915,184.36477 60.319599,183.97968 C 60.281512,183.59459 60.247658,183.26451 60.218036,182.98944 C 60.192645,182.71438 60.171486,182.4901 60.15456,182.31659 C 60.137632,182.13886 60.124937,181.9971 60.116474,181.8913 C 60.108009,181.78128 60.101662,181.70087 60.097431,181.65009 C 60.093198,181.59931 60.091082,181.56122 60.091083,181.53583 L 60.091083,181.49139 M 54.759052,188.40399 C 54.763283,188.37437 54.769631,188.33628 54.778095,188.28973 C 54.786558,188.24318 54.797137,188.17971 54.809833,188.0993 C 54.82676,188.01467 54.845803,187.90887 54.866962,187.78192 C 54.892352,187.65074 54.921974,187.4857 54.955829,187.2868 C 55.544044,187.24026 56.117449,187.19371 56.676044,187.14716 C 57.234635,187.09638 57.808039,187.04771 58.396259,187.00116 C 58.362401,186.83612 58.317967,186.65627 58.262958,186.46161 C 58.207941,186.26272 58.142349,186.06806 58.066181,185.87762 C 57.990005,185.6872 57.90537,185.51158 57.812275,185.35077 C 57.719172,185.18573 57.619726,185.05666 57.513935,184.96356 C 57.492773,184.95087 57.477961,184.94875 57.469501,184.95721 C 57.461034,184.96145 57.452571,184.96991 57.44411,184.9826 C 57.435644,184.99107 57.425064,185.00165 57.412372,185.01434 C 57.399674,185.02704 57.378515,185.03339 57.348896,185.03339 C 57.238867,185.03339 57.122493,184.98684 56.999775,184.89374 C 56.881282,184.80064 56.771256,184.6885 56.669696,184.55731 C 56.568132,184.42613 56.48138,184.29071 56.409443,184.15106 C 56.341732,184.01142 56.305762,183.89293 56.301532,183.79559 C 56.322689,183.63479 56.352312,183.47187 56.3904,183.30682 C 56.428483,183.13756 56.479265,182.96194 56.542743,182.77997 C 56.555436,182.74189 56.582943,182.72708 56.625263,182.73553 C 56.667578,182.73977 56.714128,182.7567 56.764911,182.78632 C 56.81569,182.81171 56.866471,182.84133 56.917255,182.87518 C 56.968034,182.90904 57.006119,182.93443 57.031513,182.95135 C 57.285416,183.12063 57.522395,183.32799 57.74245,183.57343 C 57.966731,183.81464 58.163508,184.08124 58.332782,184.37323 C 58.502049,184.66099 58.63535,184.96357 58.732685,185.28094 C 58.830011,185.59833 58.878676,185.9136 58.878681,186.22675 C 58.878676,186.31138 58.868097,186.41718 58.846943,186.54413 C 58.825779,186.67108 58.798273,186.8065 58.764423,186.95038 C 58.730564,187.09426 58.692478,187.24026 58.650165,187.38837 C 58.607843,187.53225 58.565525,187.66343 58.523212,187.78192 C 58.48089,187.90041 58.438572,187.99986 58.396259,188.08026 C 58.358169,188.15643 58.326431,188.19875 58.301044,188.20721 C 58.288345,188.21145 58.184666,188.22203 57.990009,188.23895 C 57.799576,188.25588 57.549902,188.27915 57.240985,188.30878 C 56.936295,188.3384 56.591406,188.37225 56.206318,188.41034 C 55.821225,188.45266 55.431902,188.49921 55.038349,188.54999 C 55.008726,188.55422 54.974872,188.55634 54.936786,188.55634 C 54.902931,188.56057 54.871193,188.55845 54.841571,188.54999 C 54.811949,188.54576 54.788674,188.53094 54.771747,188.50555 C 54.75482,188.4844 54.750588,188.45054 54.759052,188.40399 M 48.106708,188.40399 C 48.110939,188.37437 48.117287,188.33628 48.125751,188.28973 C 48.134214,188.24318 48.144794,188.17971 48.157489,188.0993 C 48.174416,188.01467 48.193459,187.90887 48.214618,187.78192 C 48.240008,187.65074 48.269631,187.4857 48.303485,187.2868 C 48.8917,187.24026 49.465105,187.19371 50.0237,187.14716 C 50.582291,187.09638 51.155696,187.04771 51.743915,187.00116 C 51.710057,186.83612 51.665623,186.65627 51.610614,186.46161 C 51.555597,186.26272 51.490005,186.06806 51.413837,185.87762 C 51.337661,185.6872 51.253026,185.51158 51.159931,185.35077 C 51.066828,185.18573 50.967382,185.05666 50.861591,184.96356 C 50.840429,184.95087 50.825618,184.94875 50.817157,184.95721 C 50.808691,184.96145 50.800227,184.96991 50.791767,184.9826 C 50.7833,184.99107 50.772721,185.00165 50.760028,185.01434 C 50.74733,185.02704 50.726171,185.03339 50.696552,185.03339 C 50.586523,185.03339 50.470149,184.98684 50.347431,184.89374 C 50.228939,184.80064 50.118913,184.6885 50.017353,184.55731 C 49.915788,184.42613 49.829037,184.29071 49.757099,184.15106 C 49.689388,184.01142 49.653418,183.89293 49.649189,183.79559 C 49.670345,183.63479 49.699968,183.47187 49.738056,183.30682 C 49.77614,183.13756 49.826921,182.96194 49.8904,182.77997 C 49.903093,182.74189 49.930599,182.72708 49.972919,182.73553 C 50.015234,182.73977 50.061784,182.7567 50.112568,182.78632 C 50.163346,182.81171 50.214127,182.84133 50.264911,182.87518 C 50.31569,182.90904 50.353776,182.93443 50.379169,182.95135 C 50.633072,183.12063 50.870051,183.32799 51.090107,183.57343 C 51.314387,183.81464 51.511164,184.08124 51.680439,184.37323 C 51.849705,184.66099 51.983006,184.96357 52.080341,185.28094 C 52.177667,185.59833 52.226332,185.9136 52.226337,186.22675 C 52.226332,186.31138 52.215753,186.41718 52.194599,186.54413 C 52.173435,186.67108 52.145929,186.8065 52.112079,186.95038 C 52.078221,187.09426 52.040135,187.24026 51.997821,187.38837 C 51.955499,187.53225 51.913182,187.66343 51.870868,187.78192 C 51.828546,187.90041 51.786229,187.99986 51.743915,188.08026 C 51.705825,188.15643 51.674087,188.19875 51.6487,188.20721 C 51.636001,188.21145 51.532323,188.22203 51.337665,188.23895 C 51.147232,188.25588 50.897558,188.27915 50.588642,188.30878 C 50.283952,188.3384 49.939063,188.37225 49.553974,188.41034 C 49.168881,188.45266 48.779559,188.49921 48.386005,188.54999 C 48.356382,188.55422 48.322528,188.55634 48.284443,188.55634 C 48.250588,188.56057 48.218849,188.55845 48.189228,188.54999 C 48.159605,188.54576 48.13633,188.53094 48.119403,188.50555 C 48.102476,188.4844 48.098244,188.45054 48.106708,188.40399 M 46.100849,181.49139 C 46.126239,181.36022 46.155861,181.22057 46.189716,181.07245 C 46.227801,180.92011 46.265887,180.77412 46.303974,180.63446 C 46.342059,180.49482 46.38226,180.36787 46.424579,180.2536 C 46.466896,180.13935 46.507098,180.05048 46.545185,179.987 C 46.557879,179.96585 46.570574,179.94469 46.583271,179.92352 C 46.595965,179.90237 46.617124,179.88968 46.646747,179.88544 C 46.646746,180.00817 46.64463,180.12031 46.6404,180.22186 C 46.640398,180.32343 46.640398,180.43769 46.6404,180.56464 C 46.725034,181.36022 46.796974,182.05423 46.85622,182.64667 C 46.915463,183.23912 46.964128,183.74905 47.002216,184.17645 C 47.044532,184.60387 47.078386,184.95933 47.103778,185.24286 C 47.129167,185.52639 47.146094,185.75702 47.15456,185.93475 C 47.167253,186.10826 47.175717,186.23944 47.17995,186.32831 C 47.18418,186.41718 47.186296,186.48277 47.186298,186.52509 L 47.186298,186.59491 C 47.190528,186.96731 47.163021,187.32701 47.103778,187.67401 C 47.048764,188.02102 46.953549,188.33417 46.818134,188.61346 C 46.801205,188.63885 46.786394,188.64309 46.7737,188.62616 C 46.765235,188.61346 46.758888,188.58807 46.754657,188.54999 C 46.691179,187.87714 46.638282,187.28046 46.595966,186.75995 C 46.557879,186.23944 46.517677,185.7676 46.47536,185.34442 C 46.420346,184.81969 46.371681,184.36477 46.329364,183.97968 C 46.291277,183.59459 46.257423,183.26451 46.227802,182.98944 C 46.20241,182.71438 46.181252,182.4901 46.164325,182.31659 C 46.147397,182.13886 46.134702,181.9971 46.126239,181.8913 C 46.117775,181.78128 46.111427,181.70087 46.107196,181.65009 C 46.102964,181.59931 46.100848,181.56122 46.100849,181.53583 L 46.100849,181.49139 M 42.812763,182.06903 C 42.842385,181.98863 42.874124,181.89977 42.907978,181.80243 C 42.9376,181.7051 42.971454,181.60777 43.00954,181.51044 C 43.047626,181.41311 43.089944,181.32001 43.136493,181.23114 C 43.187274,181.14228 43.244403,181.06611 43.30788,181.00262 C 43.371356,180.94762 43.443296,180.90107 43.5237,180.86298 C 43.604103,180.82067 43.688739,180.79316 43.777607,180.78046 C 43.866473,180.76354 43.95534,180.76354 44.044208,180.78046 C 44.133074,180.79739 44.21771,180.83336 44.298114,180.88837 C 44.298113,180.91376 44.28965,180.95185 44.272724,181.00262 C 44.255795,181.05341 44.234637,181.10843 44.209247,181.16766 C 44.188087,181.22692 44.164812,181.28404 44.139423,181.33905 C 44.114031,181.39407 44.090757,181.44062 44.069599,181.4787 C 44.02728,181.52949 43.987078,181.53583 43.948993,181.49774 C 43.885516,181.44697 43.817808,181.41523 43.745868,181.40253 C 43.673928,181.38984 43.601987,181.39407 43.530048,181.41522 C 43.462339,181.43216 43.396747,181.46178 43.333271,181.50409 C 43.274026,181.54218 43.219013,181.58873 43.168232,181.64374 C 43.185158,181.71992 43.229592,181.78551 43.301532,181.84052 C 43.377704,181.8913 43.460223,181.9315 43.549091,181.96112 C 43.642189,181.99075 43.733172,182.01191 43.82204,182.0246 C 43.915138,182.0373 43.987078,182.04365 44.03786,182.04364 C 44.177508,182.03518 44.317156,182.00768 44.456806,181.96112 C 44.600684,181.91458 44.736101,181.86591 44.863056,181.81512 C 44.922299,181.79397 44.939226,181.80667 44.913837,181.85321 C 44.863054,181.94208 44.810157,182.02884 44.755146,182.11346 C 44.704363,182.19387 44.643002,182.28697 44.571064,182.39276 C 44.42295,182.44355 44.268491,182.49221 44.107685,182.53876 C 43.951108,182.58531 43.798765,182.64033 43.650653,182.7038 C 43.502541,182.76305 43.362893,182.8371 43.231708,182.92596 C 43.100523,183.01484 42.988381,183.12486 42.895282,183.25604 C 42.886819,183.27297 42.874124,183.28355 42.857196,183.28778 C 42.836038,183.28779 42.82969,183.27509 42.838153,183.24969 C 42.855081,183.12698 42.888935,183.01484 42.939716,182.91327 C 42.990497,182.80748 43.047626,182.69745 43.111103,182.58319 C 43.119566,182.5705 43.11745,182.55569 43.104755,182.53876 C 43.028583,182.48375 42.958759,182.42027 42.895282,182.34833 C 42.831806,182.27216 42.804299,182.17906 42.812763,182.06903 M 44.240985,186.86151 C 44.245216,186.69647 44.221941,186.52932 44.171161,186.36005 C 44.124611,186.19078 44.065366,186.02362 43.993427,185.85858 C 43.921486,185.68931 43.845314,185.52427 43.764911,185.36346 C 43.688739,185.19843 43.625262,185.03974 43.574482,184.88739 C 43.536395,184.81545 43.536395,184.74351 43.574482,184.67157 C 43.646421,184.50653 43.720477,184.34361 43.79665,184.1828 C 43.872821,184.01777 43.946876,183.85061 44.018818,183.68134 C 44.031512,183.65172 44.050555,183.63902 44.075946,183.64325 C 44.101336,183.64749 44.118263,183.66018 44.126728,183.68134 C 44.177508,183.78713 44.245216,183.93736 44.329853,184.13202 C 44.418718,184.32245 44.503354,184.53404 44.583759,184.76678 C 44.668393,184.9953 44.740333,185.23228 44.799579,185.47772 C 44.858822,185.72317 44.886329,185.95168 44.882099,186.16327 C 44.882097,186.32831 44.867286,186.48065 44.837665,186.6203 C 44.808041,186.75572 44.765723,186.89325 44.710712,187.0329 C 44.655697,187.17255 44.590105,187.32066 44.513935,187.47723 C 44.437761,187.63381 44.353126,187.81366 44.260028,188.01678 C 44.175392,188.0591 44.067482,188.09507 43.936298,188.12469 C 43.809344,188.15432 43.676043,188.17759 43.536396,188.19452 C 43.396747,188.21145 43.259214,188.22414 43.123798,188.2326 C 42.992613,188.23684 42.878355,188.23684 42.781025,188.2326 L 42.781025,186.96307 C 42.878355,186.96308 42.992613,186.96308 43.123798,186.96307 C 43.254983,186.95884 43.388283,186.9525 43.5237,186.94403 C 43.659116,186.93557 43.790301,186.92499 43.917255,186.91229 C 44.044207,186.8996 44.152117,186.88267 44.240985,186.86151 M 42.216083,188.20721 C 42.161067,188.38918 42.095475,188.56903 42.019306,188.74677 C 41.947363,188.9245 41.862728,189.10223 41.7654,189.27997 C 41.668066,189.45347 41.562272,189.6312 41.448017,189.81317 C 41.337989,189.99514 41.213151,190.16229 41.073505,190.31464 C 40.933855,190.47121 40.779395,190.60239 40.610126,190.70819 C 40.440854,190.81398 40.25254,190.87534 40.045185,190.89227 C 39.630471,190.93459 39.253844,190.96209 38.915302,190.97479 C 38.576761,190.98749 38.231872,190.96421 37.880634,190.90497 C 37.732523,190.85842 37.662699,190.81821 37.671161,190.78436 C 37.675395,190.75051 37.747335,190.72088 37.886982,190.6955 C 38.064717,190.67433 38.26361,190.63625 38.483661,190.58124 C 38.703714,190.53045 38.932229,190.46063 39.169208,190.37177 C 39.406187,190.2829 39.647398,190.17499 39.892841,190.04803 C 40.138283,189.92108 40.375262,189.77508 40.603778,189.61005 C 40.832292,189.44501 41.045997,189.25881 41.244892,189.05145 C 41.443783,188.8441 41.617285,188.61346 41.7654,188.35956 C 41.786556,188.3257 41.807715,188.2855 41.828876,188.23895 C 41.850032,188.1924 41.85638,188.1522 41.847919,188.11835 C 41.716732,188.04641 41.591895,187.97024 41.473407,187.88983 C 41.354916,187.8052 41.251237,187.7121 41.162372,187.61053 C 41.077735,187.50474 41.014258,187.38837 40.971943,187.26141 C 40.929623,187.13446 40.916928,186.99058 40.933857,186.82977 C 41.001563,186.57587 41.052344,186.38121 41.0862,186.24579 C 41.120053,186.11037 41.147559,186.01516 41.16872,185.96014 C 41.177181,185.9136 41.191993,185.88186 41.213153,185.86493 C 41.23431,185.84377 41.263933,185.86916 41.302021,185.9411 C 41.386654,186.14423 41.49668,186.31138 41.632099,186.44257 C 41.767513,186.56952 41.917741,186.67108 42.082782,186.74725 C 42.25205,186.81919 42.434016,186.86998 42.628681,186.8996 C 42.823339,186.92922 43.022232,186.94615 43.22536,186.95038 L 43.19997,188.20721 C 43.153416,188.21568 43.087824,188.22203 43.003193,188.22626 C 42.918553,188.23049 42.82757,188.2326 42.730243,188.2326 C 42.637141,188.2326 42.544042,188.23049 42.450946,188.22626 C 42.357844,188.22203 42.279557,188.21568 42.216083,188.20721 M 35.487568,182.40546 C 35.402932,182.34199 35.381773,182.27005 35.424091,182.18964 C 35.529885,182.04576 35.633563,181.904 35.735126,181.76434 C 35.836688,181.62047 35.940366,181.47659 36.046161,181.3327 C 36.080014,181.29462 36.107521,181.2777 36.128681,181.28192 C 36.15407,181.28616 36.181577,181.29886 36.2112,181.32001 C 36.283139,181.37926 36.357195,181.44062 36.433368,181.50409 C 36.51377,181.56757 36.592058,181.62893 36.668232,181.68817 C 36.744402,181.74319 36.816342,181.79397 36.884052,181.84052 C 36.95599,181.88284 37.017351,181.91246 37.068134,181.92938 C 37.114681,181.94208 37.142188,181.9442 37.150653,181.93573 C 37.159115,181.92727 37.182389,181.89977 37.220478,181.85321 C 37.262793,181.80667 37.324154,181.73261 37.40456,181.63104 C 37.489192,181.52949 37.607682,181.38772 37.760028,181.20575 C 37.79388,181.1719 37.821386,181.16132 37.842548,181.17401 C 37.867936,181.18248 37.889094,181.19306 37.906025,181.20575 C 38.109146,181.3708 38.265722,181.49775 38.375751,181.58661 C 38.490005,181.67548 38.572525,181.74108 38.62331,181.78339 C 38.678319,181.82571 38.710057,181.8511 38.718525,181.85956 C 38.731216,181.86803 38.73968,181.87438 38.743915,181.8786 C 38.769302,181.89553 38.784113,181.91669 38.788349,181.94208 C 38.796808,181.96747 38.790461,181.99287 38.769306,182.01825 C 38.663508,182.15367 38.557714,182.28909 38.451923,182.4245 C 38.350357,182.55569 38.248795,182.68899 38.147235,182.8244 C 38.109146,182.87096 38.077408,182.89212 38.052021,182.88788 C 38.026627,182.88365 38.001236,182.87307 37.975849,182.85614 C 37.827734,182.76305 37.690201,182.66148 37.563251,182.55145 C 37.436295,182.4372 37.305111,182.31236 37.169696,182.17694 C 37.059668,182.31236 36.953874,182.44778 36.852314,182.58319 C 36.750749,182.71861 36.647071,182.85191 36.541278,182.98309 C 36.498959,183.03388 36.443946,183.04658 36.376239,183.02118 C 36.312761,182.99579 36.259864,182.96829 36.217548,182.93866 C 36.141375,182.89635 36.075782,182.85826 36.020771,182.8244 C 35.965757,182.78632 35.910744,182.74824 35.855732,182.71014 C 35.800718,182.66783 35.743589,182.6234 35.684345,182.57684 C 35.629331,182.52607 35.563739,182.46894 35.487568,182.40546 M 35.944599,186.11884 C 35.944598,186.29657 35.980568,186.44257 36.052509,186.55682 C 36.124448,186.67108 36.217547,186.75995 36.331806,186.82343 C 36.450294,186.8869 36.581479,186.93134 36.72536,186.95673 C 36.869239,186.98212 37.013119,186.99481 37.157001,186.99481 C 37.195085,186.99481 37.269141,186.98635 37.379169,186.96942 C 37.489192,186.9525 37.599218,186.93134 37.709247,186.90594 C 37.823502,186.88056 37.922949,186.85305 38.007587,186.82343 C 38.096451,186.78957 38.138769,186.75572 38.13454,186.72186 C 38.113378,186.56952 38.058365,186.40237 37.969501,186.2204 C 37.880631,186.03843 37.772721,185.86705 37.645771,185.70624 C 37.518815,185.54543 37.377051,185.41213 37.220478,185.30634 C 37.068132,185.19631 36.915788,185.1413 36.763446,185.1413 C 36.661882,185.1413 36.56032,185.17515 36.458759,185.24286 C 36.361427,185.30634 36.274675,185.38674 36.198505,185.48407 C 36.122332,185.5814 36.060971,185.6872 36.014423,185.80145 C 35.967872,185.91571 35.944598,186.02151 35.944599,186.11884 M 35.297138,186.96942 C 35.314064,186.85093 35.345803,186.69436 35.392353,186.49969 C 35.443133,186.3008 35.50661,186.0871 35.582782,185.85858 C 35.663185,185.63007 35.756284,185.39944 35.862079,185.16669 C 35.972104,184.93394 36.09271,184.72447 36.223896,184.53827 C 36.355079,184.35208 36.496843,184.20185 36.649189,184.08759 C 36.805762,183.9691 36.970801,183.91197 37.144306,183.9162 C 37.27972,183.90774 37.415137,183.93736 37.550556,184.00507 C 37.690201,184.07278 37.821386,184.16588 37.94411,184.28436 C 38.066829,184.40286 38.181086,184.54039 38.286884,184.69696 C 38.392675,184.84931 38.483658,185.008 38.559833,185.17303 C 38.636001,185.33808 38.695246,185.50312 38.737568,185.66815 C 38.779881,185.82896 38.798924,185.97707 38.794696,186.11249 C 38.790461,186.12942 38.779881,186.16116 38.762958,186.2077 C 38.750259,186.25002 38.722752,186.32408 38.680439,186.42987 C 38.642349,186.53567 38.583104,186.67955 38.502704,186.86151 C 38.426529,187.04348 38.322851,187.27834 38.191669,187.5661 C 38.102799,187.67613 37.994889,187.77346 37.867939,187.85809 C 37.740983,187.9385 37.609798,188.00621 37.474384,188.06122 C 37.338965,188.11623 37.205664,188.15855 37.074482,188.18817 C 36.943295,188.21356 36.829037,188.22626 36.731708,188.22626 C 36.541277,188.22626 36.359311,188.20087 36.18581,188.15009 C 36.016538,188.0993 35.864194,188.02313 35.728778,187.92157 C 35.597593,187.81578 35.491799,187.68671 35.411396,187.53436 C 35.335223,187.37779 35.297137,187.19371 35.297138,186.98212 L 35.297138,186.96942 M 31.678974,181.49139 C 31.704364,181.36022 31.733986,181.22057 31.767841,181.07245 C 31.805926,180.92011 31.844012,180.77412 31.882099,180.63446 C 31.920184,180.49482 31.960385,180.36787 32.002704,180.2536 C 32.045021,180.13935 32.085223,180.05048 32.12331,179.987 C 32.136004,179.96585 32.148699,179.94469 32.161396,179.92352 C 32.17409,179.90237 32.195249,179.88968 32.224872,179.88544 C 32.224871,180.00817 32.222755,180.12031 32.218525,180.22186 C 32.218523,180.32343 32.218523,180.43769 32.218525,180.56464 C 32.303159,181.36022 32.375099,182.05423 32.434345,182.64667 C 32.493588,183.23912 32.542253,183.74905 32.580341,184.17645 C 32.622657,184.60387 32.656511,184.95933 32.681903,185.24286 C 32.707292,185.52639 32.724219,185.75702 32.732685,185.93475 C 32.745378,186.10826 32.753842,186.23944 32.758075,186.32831 C 32.762305,186.41718 32.764421,186.48277 32.764423,186.52509 L 32.764423,186.59491 C 32.768653,186.96731 32.741146,187.32701 32.681903,187.67401 C 32.626889,188.02102 32.531674,188.33417 32.396259,188.61346 C 32.37933,188.63885 32.364519,188.64309 32.351825,188.62616 C 32.34336,188.61346 32.337013,188.58807 32.332782,188.54999 C 32.269304,187.87714 32.216407,187.28046 32.174091,186.75995 C 32.136004,186.23944 32.095802,185.7676 32.053485,185.34442 C 31.998471,184.81969 31.949806,184.36477 31.907489,183.97968 C 31.869402,183.59459 31.835548,183.26451 31.805927,182.98944 C 31.780535,182.71438 31.759377,182.4901 31.74245,182.31659 C 31.725522,182.13886 31.712827,181.9971 31.704364,181.8913 C 31.6959,181.78128 31.689552,181.70087 31.685321,181.65009 C 31.681089,181.59931 31.678973,181.56122 31.678974,181.53583 L 31.678974,181.49139 M 28.35915,186.94403 C 28.376077,186.9398 28.416279,186.93557 28.479755,186.93134 C 28.543232,186.9271 28.617288,186.92499 28.701923,186.92499 C 28.786558,186.92076 28.875425,186.91653 28.968525,186.91229 C 29.061623,186.90383 29.148374,186.89748 29.228778,186.89325 C 29.309181,186.88479 29.374774,186.87421 29.425556,186.86151 C 29.476336,186.84882 29.501727,186.83401 29.501728,186.81708 C 29.459409,186.16962 29.408628,185.54543 29.349384,184.94452 C 29.290138,184.34361 29.230894,183.73212 29.17165,183.11005 C 29.158954,183.00849 29.152606,182.91962 29.152607,182.84344 C 29.152606,182.72073 29.158954,182.61705 29.17165,182.53241 C 29.184344,182.44355 29.194924,182.35468 29.203388,182.26581 C 29.190692,182.22773 29.158954,182.18329 29.108173,182.13251 C 29.061623,182.0775 29.012958,182.02037 28.962177,181.96112 C 28.911395,181.89765 28.864846,181.83206 28.822528,181.76434 C 28.780211,181.69241 28.759052,181.61835 28.759052,181.54218 C 28.750588,181.45755 28.769631,181.36022 28.816181,181.25018 C 28.866962,181.14016 28.926206,181.03014 28.993915,180.9201 C 29.061623,180.81009 29.131447,180.70429 29.203388,180.60272 C 29.275327,180.49694 29.33034,180.40807 29.368427,180.33612 C 29.423439,180.26842 29.465757,180.23457 29.49538,180.23456 C 29.525001,180.23457 29.539813,180.25784 29.539814,180.30438 C 29.539813,180.32132 29.537697,180.33613 29.533466,180.34882 C 29.533465,180.36152 29.531349,180.37633 29.527118,180.39325 C 29.497495,180.52867 29.514422,180.6514 29.5779,180.76141 C 29.641375,180.86722 29.723894,180.96455 29.825458,181.05341 C 29.927019,181.14228 30.034929,181.2248 30.149189,181.30096 C 30.267677,181.37714 30.365007,181.44908 30.441181,181.51678 C 30.453874,181.53795 30.441179,181.58662 30.403095,181.66278 C 30.365007,181.73473 30.316342,181.82148 30.257099,181.92303 C 30.197852,182.0246 30.13226,182.13463 30.060321,182.25311 C 29.992612,182.36738 29.933367,182.4774 29.882587,182.58319 C 29.907976,183.25182 29.946062,183.91409 29.996845,184.57001 C 30.051856,185.22593 30.079363,185.89032 30.079364,186.56317 C 30.062436,186.69013 30.030698,186.82343 29.98415,186.96307 C 29.937599,187.10272 29.884702,187.23814 29.825458,187.36932 C 29.770444,187.49628 29.713315,187.61477 29.654071,187.72479 C 29.599057,187.83482 29.554624,187.92369 29.520771,187.99139 C 29.436134,188.04218 29.353615,188.08449 29.273212,188.11835 C 29.192808,188.1522 29.106057,188.17971 29.012958,188.20087 C 28.924091,188.21779 28.82676,188.22837 28.720966,188.2326 C 28.615172,188.23684 28.494566,188.23472 28.35915,188.22626 L 28.35915,186.94403 M 25.318622,186.00458 C 25.238215,185.94957 25.155695,185.92206 25.071064,185.92206 C 24.935644,185.92206 24.804459,185.95803 24.677509,186.02997 C 24.550553,186.10191 24.425716,186.17385 24.302997,186.24579 C 24.383398,186.3135 24.49554,186.38121 24.639423,186.44891 C 24.787532,186.51662 24.946223,186.58222 25.115497,186.64569 C 25.284764,186.70494 25.456151,186.75995 25.629657,186.81073 C 25.803156,186.85728 25.959731,186.89748 26.099384,186.93134 C 26.078221,186.86786 26.033787,186.79592 25.966083,186.71552 C 25.902602,186.63088 25.830662,186.54625 25.750263,186.46161 C 25.669855,186.37274 25.589452,186.28811 25.509052,186.2077 C 25.432876,186.1273 25.3694,186.05959 25.318622,186.00458 M 28.38454,188.2453 C 28.156018,188.25376 27.948661,188.24107 27.76247,188.20721 C 27.576266,188.17336 27.406995,188.12258 27.254657,188.05487 C 27.10654,187.98293 26.971123,187.89406 26.848407,187.78827 C 26.725681,187.68248 26.611423,187.56187 26.505634,187.42645 C 26.467543,187.48147 26.425225,187.55341 26.378681,187.64227 C 26.336358,187.73114 26.285577,187.81789 26.226337,187.90253 C 26.171319,187.98293 26.107843,188.05275 26.035907,188.112 C 25.963963,188.17124 25.881443,188.20087 25.788349,188.20087 C 25.589452,188.15009 25.388443,188.10142 25.185321,188.05487 C 24.986425,188.00409 24.789648,187.94696 24.594989,187.88348 C 24.404557,187.82001 24.218359,187.74595 24.036396,187.66132 C 23.854427,187.57245 23.680925,187.46242 23.515888,187.33124 C 23.511654,187.32701 23.494727,187.34817 23.465107,187.39471 C 23.435482,187.43703 23.388933,187.49416 23.325458,187.5661 C 23.26198,187.63381 23.177345,187.70787 23.071552,187.78827 C 22.965756,187.86867 22.834571,187.94484 22.677997,188.01678 C 22.525653,188.08449 22.343687,188.14162 22.132099,188.18817 C 21.92051,188.23049 21.677183,188.24953 21.402118,188.2453 C 21.389423,188.18606 21.383076,188.12046 21.383075,188.04852 C 21.378844,187.97658 21.376728,187.88348 21.376728,187.76923 L 21.376728,187.49628 L 21.376728,186.96942 C 21.38096,186.96519 21.404234,186.96308 21.446552,186.96307 L 21.529071,186.96307 L 21.713153,186.96307 C 21.814716,186.96308 21.928973,186.96096 22.055927,186.95673 C 22.187111,186.9525 22.330991,186.93557 22.487568,186.90594 C 22.644142,186.87632 22.811297,186.83189 22.989032,186.77264 C 23.170997,186.70917 23.361426,186.6203 23.560321,186.50604 C 23.890397,186.0871 24.173926,185.73163 24.410907,185.43964 C 24.652115,185.14765 24.874283,184.94452 25.077411,184.83026 C 25.280533,184.71601 25.47731,184.70331 25.667743,184.79218 C 25.8624,184.88105 26.076105,185.09898 26.308857,185.44598 C 26.486586,185.6872 26.662204,185.90513 26.835712,186.09979 C 27.009209,186.29022 27.193291,186.45315 27.387958,186.58856 C 27.531832,186.69013 27.68206,186.7663 27.838642,186.81708 C 27.999443,186.86363 28.16025,186.8996 28.321064,186.92499 C 28.392997,186.93768 28.469169,186.94615 28.549579,186.95038 C 28.629976,186.95461 28.712495,186.95673 28.797138,186.95673 C 28.797131,187.01174 28.795015,187.09638 28.79079,187.21063 C 28.790783,187.32066 28.788667,187.43915 28.784443,187.5661 C 28.784435,187.69305 28.782319,187.81578 28.778095,187.93427 C 28.778088,188.04852 28.778088,188.13739 28.778095,188.20087 C 28.710379,188.21356 28.642671,188.22414 28.57497,188.2326 C 28.511486,188.23684 28.44801,188.24107 28.38454,188.2453 M 21.808368,186.95038 C 21.808363,187.00539 21.806247,187.09003 21.802021,187.20428 C 21.802015,187.31431 21.7999,187.4328 21.795673,187.55975 C 21.795668,187.68671 21.793552,187.80943 21.789325,187.92792 C 21.78932,188.04218 21.78932,188.13104 21.789325,188.19452 C 21.653904,188.21991 21.522719,188.2326 21.395771,188.2326 C 21.14186,188.2326 20.909113,188.21568 20.697528,188.18182 C 20.490168,188.14797 20.295506,188.09084 20.113544,188.01044 C 19.935806,187.9258 19.76442,187.81789 19.599384,187.68671 C 19.438574,187.55129 19.277767,187.38202 19.116962,187.17889 C 18.981543,187.35663 18.801693,187.51532 18.577411,187.65497 C 18.357357,187.79039 18.118263,187.90253 17.860126,187.99139 C 17.601987,188.08026 17.337502,188.14585 17.066669,188.18817 C 16.800067,188.22626 16.552509,188.23895 16.323993,188.22626 L 16.323993,186.95038 C 16.505959,186.93768 16.694273,186.92287 16.888935,186.90594 C 17.083596,186.88479 17.276141,186.85516 17.466571,186.81708 C 17.661232,186.77899 17.849545,186.7261 18.031513,186.65839 C 18.213477,186.59068 18.380632,186.50181 18.532978,186.39178 C 18.317156,186.1802 18.086524,186.04478 17.841083,185.98553 C 17.595639,185.92629 17.35866,185.91783 17.130146,185.96014 C 17.096291,185.96861 17.075132,185.96226 17.066669,185.9411 C 17.058205,185.91571 17.053973,185.89032 17.053974,185.86493 L 17.053974,185.80145 C 17.058205,185.77606 17.066669,185.7274 17.079364,185.65546 C 17.092059,185.58352 17.104754,185.50735 17.11745,185.42694 C 17.130145,185.34654 17.14284,185.27037 17.155536,185.19843 C 17.168231,185.12649 17.176694,185.07782 17.180927,185.05243 C 17.206317,184.89586 17.280373,184.77525 17.403095,184.69061 C 17.530047,184.60598 17.673927,184.54462 17.834735,184.50653 C 17.999773,184.46422 18.166928,184.44094 18.3362,184.43671 C 18.505469,184.42825 18.647233,184.42402 18.761493,184.42401 C 18.833431,184.42402 18.922298,184.42613 19.028095,184.43036 C 19.138118,184.43036 19.254492,184.43671 19.377216,184.4494 C 19.499934,184.45787 19.62054,184.47691 19.739032,184.50653 C 19.86175,184.53193 19.971776,184.57001 20.06911,184.62079 C 20.166438,184.67157 20.244725,184.73717 20.303974,184.81757 C 20.367447,184.89797 20.399185,184.99742 20.399189,185.11591 C 20.399185,185.35289 20.348404,185.57294 20.246845,185.77606 C 20.145279,185.97919 20.035253,186.17173 19.916767,186.3537 C 19.997167,186.45526 20.090266,186.5399 20.196064,186.6076 C 20.301854,186.67531 20.41188,186.73244 20.526142,186.77899 C 20.644627,186.82131 20.765233,186.85516 20.887958,186.88055 C 21.014907,186.90595 21.137628,186.9271 21.256122,186.94403 L 21.541767,186.94403 L 21.675068,186.94403 L 21.738544,186.94403 C 21.780857,186.94403 21.804131,186.94615 21.808368,186.95038 M 14.794208,185.21747 C 14.857683,185.80569 15.048112,186.24367 15.365497,186.53143 C 15.687109,186.81496 16.154719,186.95461 16.768329,186.95038 C 16.768326,187.00539 16.76621,187.09003 16.761982,187.20428 C 16.761978,187.31431 16.759862,187.4328 16.755634,187.55975 C 16.75563,187.68671 16.753514,187.80943 16.749286,187.92792 C 16.749283,188.04218 16.749283,188.13104 16.749286,188.19452 C 16.444595,188.24953 16.148372,188.24953 15.860614,188.19452 C 15.572851,188.13527 15.314714,188.02102 15.0862,187.85175 C 14.857683,187.68248 14.669369,187.45608 14.521259,187.17255 C 14.373146,186.88902 14.286394,186.55048 14.261005,186.15692 C 14.172137,185.3275 14.08327,184.51288 13.994403,183.71307 C 13.905535,182.90904 13.808205,182.0902 13.702411,181.25653 L 14.16579,180.08856 C 14.186948,180.02933 14.203875,180.00605 14.216571,180.01874 C 14.229266,180.03144 14.237729,180.05683 14.241962,180.09491 C 14.309669,180.52233 14.366798,180.94973 14.413349,181.37714 C 14.464129,181.80455 14.508562,182.23196 14.54665,182.65936 C 14.588966,183.08255 14.629168,183.50784 14.667255,183.93524 C 14.705339,184.36265 14.747657,184.79006 14.794208,185.21747 M 8.5354191,190.08612 C 8.8020217,190.0565 9.1151725,189.98667 9.4748722,189.87665 C 9.830341,189.77085 10.192157,189.62062 10.560321,189.42596 C 10.928484,189.23553 11.277605,188.99855 11.607685,188.71503 C 11.941993,188.4315 12.217057,188.09719 12.43288,187.7121 C 12.470963,187.57245 12.464616,187.42222 12.413837,187.26141 C 12.367285,187.09638 12.303809,186.9398 12.223407,186.79169 C 12.143001,186.63934 12.060482,186.50181 11.975849,186.37909 C 11.891211,186.25637 11.831967,186.16327 11.798114,186.09979 C 11.789649,186.09979 11.787533,186.08922 11.791767,186.06805 C 11.800228,186.0469 11.81504,186.00246 11.8362,185.93475 C 11.857357,185.86282 11.889095,185.76125 11.931415,185.63007 C 11.977963,185.49465 12.037207,185.3148 12.10915,185.09052 C 12.121843,185.04397 12.136654,185.01435 12.153583,185.00165 C 12.17474,184.98896 12.195899,184.98684 12.21706,184.9953 C 12.238216,184.99954 12.259375,185.01011 12.280536,185.02704 C 12.305924,185.04397 12.329199,185.0609 12.35036,185.07782 C 12.591569,185.36981 12.760839,185.66604 12.858173,185.96649 C 12.955501,186.26695 12.997818,186.56952 12.985126,186.87421 C 12.972428,187.1789 12.913183,187.48358 12.807392,187.78827 C 12.705826,188.08872 12.574642,188.38283 12.413837,188.67059 C 12.316504,188.8441 12.21071,189.02183 12.096454,189.2038 C 11.986426,189.38576 11.861589,189.55292 11.721943,189.70526 C 11.582292,189.86184 11.427833,189.99302 11.258564,190.09882 C 11.089292,190.20461 10.900978,190.26597 10.693622,190.2829 C 10.278908,190.32521 9.902281,190.35272 9.5637394,190.36542 C 9.2251984,190.37811 8.8803094,190.35484 8.5290714,190.29559 C 8.380961,190.24904 8.3111368,190.20884 8.3195988,190.17499 C 8.3238321,190.14113 8.3957721,190.11151 8.5354191,190.08612 M 6.561298,180.80585 C 6.5824498,180.77623 6.6205357,180.72757 6.6755558,180.65985 C 6.7305616,180.58792 6.7898064,180.51386 6.8532902,180.43768 C 6.9167594,180.35729 6.97812,180.28323 7.0373722,180.21552 C 7.0966095,180.14781 7.1389271,180.10127 7.1643253,180.07587 C 7.1981719,180.03356 7.2277942,180.01451 7.2531925,180.01874 C 7.2785754,180.01875 7.303966,180.02933 7.3293644,180.05048 C 7.4817002,180.18167 7.6340438,180.30651 7.7863956,180.42499 C 7.9429628,180.54349 8.0720317,180.65563 8.1736027,180.76141 C 8.1947529,180.78258 8.2032164,180.80374 8.1989933,180.82489 C 8.1947529,180.84182 8.1820576,180.86298 8.1609074,180.88837 C 8.0677999,181.02379 7.9704693,181.15286 7.8689152,181.27557 C 7.7673445,181.3983 7.6678979,181.52525 7.5705753,181.65643 C 7.5282496,181.73261 7.4711208,181.74742 7.3991886,181.70087 C 7.3441678,181.67125 7.2743437,181.6247 7.189716,181.56122 C 7.1093048,181.49775 7.0267853,181.43004 6.9421574,181.35809 C 6.8617464,181.28616 6.7855746,181.21634 6.7136417,181.14862 C 6.6416945,181.07669 6.5887975,181.01744 6.5549503,180.97089 C 6.5295527,180.93704 6.5189733,180.90953 6.523212,180.88837 C 6.5274368,180.86722 6.5401321,180.83971 6.561298,180.80585 M 7.4626652,183.87811 C 7.4034125,183.87812 7.3441678,183.89081 7.2849308,183.9162 C 7.2256783,183.93736 7.1706654,183.96487 7.1198917,183.99872 C 7.0733347,184.02834 7.033133,184.05797 6.9992863,184.08759 C 6.9696565,184.11721 6.9506135,184.13837 6.9421574,184.15106 C 6.9167594,184.18069 6.9273388,184.22301 6.9738956,184.27802 C 7.0246694,184.33303 7.0881459,184.38593 7.1643253,184.43671 C 7.2404895,184.48749 7.3166613,184.53193 7.392841,184.57001 C 7.4690049,184.60387 7.521902,184.61656 7.5515324,184.60809 C 7.6276962,184.6081 7.7165633,184.58905 7.8181339,184.55096 C 7.9239198,184.50865 8.0127869,184.47056 8.0847355,184.43671 C 8.0804952,184.37747 8.0572205,184.3161 8.0149113,184.25262 C 7.9725851,184.18492 7.9218039,184.12356 7.8625675,184.06854 C 7.8033145,184.01353 7.7377221,183.9691 7.6657902,183.93524 C 7.593842,183.89716 7.5261338,183.87812 7.4626652,183.87811 M 0.010516733,186.49335 C 0.0062845156,186.26483 0.027443349,186.0342 0.073993295,185.80145 C 0.12054221,185.56871 0.19036636,185.34442 0.28346595,185.1286 C 0.35117349,184.97626 0.41253411,184.84719 0.46754798,184.74139 C 0.52679181,184.63137 0.56910947,184.5679 0.59450111,184.55096 C 0.62412244,184.52981 0.63258597,184.56578 0.61989173,184.65887 C 0.61142714,184.74775 0.57545712,184.9149 0.51198158,185.16034 C 0.44004059,185.49888 0.43792471,185.79088 0.50563392,186.03632 C 0.57334124,186.27753 0.68759894,186.48489 0.84840736,186.65839 C 1.013445,186.82766 1.2144539,186.96519 1.4514347,187.07098 C 1.6926435,187.17255 1.9465495,187.25295 2.2131535,187.31219 C 2.4839839,187.37144 2.7590487,187.41164 3.0383488,187.4328 C 3.3176419,187.44973 3.5778955,187.45819 3.8191105,187.45819 C 4.0984028,187.45819 4.3925106,187.44761 4.7014347,187.42645 C 5.0145803,187.40529 5.327731,187.37567 5.6408878,187.33759 C 5.9582642,187.29527 6.2692991,187.24449 6.5739933,187.18524 C 6.8829052,187.126 7.1727813,187.05829 7.4436222,186.98212 C 7.7144474,186.90595 7.9620057,186.82131 8.186298,186.72821 C 8.410573,186.63088 8.5967707,186.5272 8.7448917,186.41718 C 8.7448825,186.3537 8.7343031,186.25637 8.7131535,186.12518 C 8.6962172,185.994 8.6708266,185.85858 8.6369816,185.71893 C 8.6073501,185.57929 8.5692642,185.45022 8.5227238,185.33173 C 8.4761654,185.20901 8.4275001,185.1286 8.3767277,185.09052 C 8.3005471,185.21324 8.2243753,185.32115 8.148212,185.41425 C 8.0720317,185.50735 7.9916281,185.58563 7.9070011,185.64911 C 7.8265892,185.70836 7.7377221,185.75279 7.6403995,185.78241 C 7.5430608,185.81203 7.430919,185.82685 7.3039738,185.82684 C 7.1643177,185.82685 7.0310171,185.79934 6.9040714,185.74432 C 6.7771111,185.68931 6.6649693,185.61526 6.5676456,185.52216 C 6.470308,185.42483 6.3920203,185.31269 6.3327824,185.18573 C 6.2777626,185.05878 6.2502561,184.92336 6.2502628,184.77948 C 6.2502561,184.58482 6.288342,184.39862 6.3645206,184.22089 C 6.4406856,184.04316 6.5147415,183.86331 6.5866886,183.68134 C 6.6374628,183.56285 6.7030552,183.44225 6.783466,183.31952 C 6.8680941,183.1968 6.9633088,183.08678 7.0691105,182.98944 C 7.1791289,182.89212 7.2976184,182.81383 7.4245792,182.75458 C 7.5515244,182.69111 7.6827091,182.6636 7.8181339,182.67206 C 7.9916281,182.68053 8.1545511,182.74189 8.3069035,182.85614 C 8.4592383,182.96617 8.5967707,183.10794 8.7195011,183.28143 C 8.8464449,183.45071 8.9564709,183.64325 9.0495792,183.85907 C 9.1426686,184.07066 9.2188404,184.28225 9.2780949,184.49384 C 9.3415616,184.70543 9.3859952,184.90855 9.4113956,185.10321 C 9.4367764,185.29364 9.443124,185.45233 9.4304386,185.57928 C 9.4346605,185.70624 9.4177334,185.8734 9.3796574,186.08075 C 9.3415616,186.28388 9.2844328,186.49123 9.2082706,186.70282 C 9.136321,186.91018 9.0474539,187.10061 8.9416691,187.27411 C 8.8400973,187.44761 8.7300714,187.5661 8.611591,187.62958 C 7.9471945,187.96389 7.2743437,188.21779 6.5930363,188.3913 C 5.9117148,188.5648 5.1986621,188.67482 4.4538761,188.72137 C 4.1661111,188.73407 3.859308,188.74042 3.533466,188.74042 C 3.2626289,188.74042 2.9875641,188.72984 2.7082706,188.70868 C 2.4332027,188.68752 2.1666014,188.64732 1.908466,188.58807 C 1.6503258,188.52883 1.4069993,188.44631 1.1784855,188.34052 C 0.95420023,188.23472 0.7553072,188.0993 0.5818058,187.93427 C 0.41253411,187.76923 0.27711758,187.56822 0.1755558,187.33124 C 0.073992781,187.09426 0.018979815,186.81496 0.010516733,186.49335" id="tagline" transform="matrix(1.1051049,0,0,1.1051049,28.832405,-56.550905)"></path></svg>
