<?xml version="1.0" encoding="UTF-8" standalone="no"?>
<!-- Generator: Adobe Illustrator 13.0.2, SVG Export Plug-In . SVG Version: 6.00 Build 14948)  -->
<svg xmlns:dc="http://purl.org/dc/elements/1.1/" xmlns:cc="http://creativecommons.org/ns#" xmlns:rdf="http://www.w3.org/1999/02/22-rdf-syntax-ns#" xmlns:svg="http://www.w3.org/2000/svg" xmlns="http://www.w3.org/2000/svg" xmlns:xlink="http://www.w3.org/1999/xlink" xmlns:sodipodi="http://sodipodi.sourceforge.net/DTD/sodipodi-0.dtd" xmlns:inkscape="http://www.inkscape.org/namespaces/inkscape" version="1.1" x="0px" y="0px" width="135px" height="155px" viewBox="0 0 135 155" enable-background="new 0 0 135 155" xml:space="preserve" id="svg3857" inkscape:version="0.46" sodipodi:docname="Wikipedia-logo-v2-tn.svg" sodipodi:version="0.32" inkscape:output_extension="org.inkscape.output.svg.inkscape" inkscape:export-filename="C:\Documents and Settings\Phoenix\Desktop\sebx wiki pix\Wikipedia-logo-v2-tn.png" inkscape:export-xdpi="90" inkscape:export-ydpi="90"><metadata id="metadata4852"><rdf:rdf><cc:work rdf:about=""><dc:format>image/svg+xml</dc:format><dc:type rdf:resource="http://purl.org/dc/dcmitype/StillImage"></dc:type></cc:work></rdf:rdf></metadata><defs id="defs4850"><inkscape:perspective sodipodi:type="inkscape:persp3d" inkscape:vp_x="0 : 77.5 : 1" inkscape:vp_y="0 : 1000 : 0" inkscape:vp_z="135 : 77.5 : 1" inkscape:persp3d-origin="67.5 : 51.666667 : 1" id="perspective4854"></inkscape:perspective>
	
		<radialGradient gradientUnits="userSpaceOnUse" gradientTransform="matrix(1,0,0,-1,192.3999,143.0996)" r="68.686401" cy="87.823196" cx="-145.4702" id="SVGID_1_">
		<stop id="stop3922" style="stop-color:#FFFFFF" offset="0"></stop>
		<stop id="stop3924" style="stop-color:#EAEAEB" offset="0.4835"></stop>
		<stop id="stop3926" style="stop-color:#A9ABAE" offset="0.9451"></stop>
		<stop id="stop3928" style="stop-color:#999B9E" offset="1"></stop>
	</radialGradient>
	
	
	<linearGradient y2="97.232101" x2="112.7331" y1="24.481001" x1="66.232399" gradientUnits="userSpaceOnUse" id="SVGID_2_">
		<stop id="stop3935" style="stop-color:#8A8A8A" offset="0"></stop>
		<stop id="stop3937" style="stop-color:#606060" offset="0.5687"></stop>
		<stop id="stop3939" style="stop-color:#FFFFFF" offset="0.5914"></stop>
		<stop id="stop3941" style="stop-color:#585858" offset="0.6116"></stop>
		<stop id="stop3943" style="stop-color:#303030" offset="1"></stop>
	</linearGradient>
	
	
	<linearGradient y2="65.136703" x2="83.798798" y1="65.136703" x1="54.715801" gradientUnits="userSpaceOnUse" id="SVGID_5_">
		<stop id="stop3964" style="stop-color:#231F20" offset="0"></stop>
		<stop id="stop3966" style="stop-color:#474747" offset="1"></stop>
	</linearGradient>
	
	
	
	
	
	
	
	
	
		<linearGradient gradientTransform="matrix(1,0,0,-1,192.3999,143.0996)" y2="29.9035" x2="-94.069099" y1="119.8076" x1="-123.5898" gradientUnits="userSpaceOnUse" id="SVGID_6_">
		<stop id="stop3997" style="stop-color:#FFFFFF" offset="0"></stop>
		<stop id="stop3999" style="stop-color:#FCFCFC" offset="0.0094"></stop>
		<stop id="stop4001" style="stop-color:#EEEEEE" offset="0.0655"></stop>
		<stop id="stop4003" style="stop-color:#E5E5E5" offset="0.1342"></stop>
		<stop id="stop4005" style="stop-color:#E3E3E3" offset="0.2515"></stop>
		<stop id="stop4007" style="stop-color:#8A8A8A" offset="0.3357"></stop>
		<stop id="stop4009" style="stop-color:#B8B8B8" offset="0.4422"></stop>
		<stop id="stop4011" style="stop-color:#3B3B3B" offset="1"></stop>
	</linearGradient>
	
	<linearGradient y2="87.626701" x2="119.5471" y1="26.876499" x1="70.421898" gradientUnits="userSpaceOnUse" id="SVGID_7_">
		<stop id="stop4016" style="stop-color:#EFF0F0" offset="0"></stop>
		<stop id="stop4018" style="stop-color:#F0F1F2" offset="0.5914"></stop>
		<stop id="stop4020" style="stop-color:#787878" offset="0.599"></stop>
		<stop id="stop4022" style="stop-color:#EEEFF0" offset="0.6456"></stop>
		<stop id="stop4024" style="stop-color:#D8D9DB" offset="1"></stop>
	</linearGradient>
	
	
		<linearGradient gradientTransform="matrix(1,0,0,-1,192.3999,143.0996)" y2="31.998501" x2="-87.569702" y1="122.1328" x1="-117.166" gradientUnits="userSpaceOnUse" id="SVGID_8_">
		<stop id="stop4029" style="stop-color:#FFFFFF" offset="0"></stop>
		<stop id="stop4031" style="stop-color:#E4E5E6" offset="1"></stop>
	</linearGradient>
	
	<linearGradient y2="106.3903" x2="79.683601" y1="25.2764" x1="54.653301" gradientUnits="userSpaceOnUse" id="SVGID_9_">
		<stop id="stop4036" style="stop-color:#FFFFFF" offset="0"></stop>
		<stop id="stop4038" style="stop-color:#F9F9F9" offset="0.7473"></stop>
		<stop id="stop4040" style="stop-color:#D5D7D8" offset="1"></stop>
	</linearGradient>
	
	
	
	
	
		<linearGradient gradientTransform="matrix(1,0,0,-1,192.3999,143.0996)" y2="24.6462" x2="-134.85719" y1="119.6328" x1="-115.3369" gradientUnits="userSpaceOnUse" id="SVGID_10_">
		<stop id="stop4061" style="stop-color:#FFFFFF" offset="0"></stop>
		<stop id="stop4063" style="stop-color:#E4E5E6" offset="1"></stop>
	</linearGradient>
	
	<linearGradient y2="92.496101" x2="37.2481" y1="33.077099" x1="32.519001" gradientUnits="userSpaceOnUse" id="SVGID_11_">
		<stop id="stop4068" style="stop-color:#989A9C" offset="0.2198"></stop>
		<stop id="stop4070" style="stop-color:#FFFFFF" offset="0.2527"></stop>
	</linearGradient>
	
	
		<linearGradient gradientTransform="matrix(1,0,0,-1,192.3999,143.0996)" y2="32.797901" x2="-171.9462" y1="126.8398" x1="-152.6201" gradientUnits="userSpaceOnUse" id="SVGID_12_">
		<stop id="stop4075" style="stop-color:#FFFFFF" offset="0"></stop>
		<stop id="stop4077" style="stop-color:#E4E5E6" offset="1"></stop>
	</linearGradient>
	
	
		<linearGradient gradientTransform="matrix(1,0,0,-1,192.3999,143.0996)" y2="35.585701" x2="-130.14281" y1="35.625" x1="-130.1348" gradientUnits="userSpaceOnUse" id="SVGID_13_">
		<stop id="stop4082" style="stop-color:#FFFFFF" offset="0"></stop>
		<stop id="stop4084" style="stop-color:#E4E5E6" offset="1"></stop>
	</linearGradient>
	
	
	
	
		<linearGradient gradientTransform="matrix(1,0,0,-1,192.3999,143.0996)" y2="25.888" x2="-140.54491" y1="120.3223" x1="-121.1382" gradientUnits="userSpaceOnUse" id="SVGID_14_">
		<stop id="stop4093" style="stop-color:#FFFFFF" offset="0"></stop>
		<stop id="stop4095" style="stop-color:#E4E5E6" offset="1"></stop>
	</linearGradient>
	
	
		<linearGradient gradientTransform="matrix(1,0,0,-1,192.3999,143.0996)" y2="28.8524" x2="-155.006" y1="123.3525" x1="-135.58591" gradientUnits="userSpaceOnUse" id="SVGID_15_">
		<stop id="stop4100" style="stop-color:#FFFFFF" offset="0"></stop>
		<stop id="stop4102" style="stop-color:#E4E5E6" offset="1"></stop>
	</linearGradient>
	
	
		<linearGradient gradientTransform="matrix(1,0,0,-1,192.3999,143.0996)" y2="27.1346" x2="-146.8837" y1="121.9365" x1="-127.4014" gradientUnits="userSpaceOnUse" id="SVGID_16_">
		<stop id="stop4107" style="stop-color:#FFFFFF" offset="0"></stop>
		<stop id="stop4109" style="stop-color:#E4E5E6" offset="1"></stop>
	</linearGradient>
	
	
		<linearGradient gradientTransform="matrix(1,0,0,-1,192.3999,143.0996)" y2="24.9438" x2="-138.85201" y1="124.0039" x1="-118.4946" gradientUnits="userSpaceOnUse" id="SVGID_17_">
		<stop id="stop4114" style="stop-color:#FFFFFF" offset="0"></stop>
		<stop id="stop4116" style="stop-color:#E4E5E6" offset="1"></stop>
	</linearGradient>
	
	
		<linearGradient gradientTransform="matrix(1,0,0,-1,192.3999,143.0996)" y2="24.695299" x2="-134.7878" y1="119.1758" x1="-115.3716" gradientUnits="userSpaceOnUse" id="SVGID_18_">
		<stop id="stop4121" style="stop-color:#FFFFFF" offset="0"></stop>
		<stop id="stop4123" style="stop-color:#E4E5E6" offset="1"></stop>
	</linearGradient>
	
	
	
	
	
	
	
	
	
	
	
	
		<linearGradient gradientTransform="matrix(1,0,0,-1,192.3999,143.0996)" y2="83.6045" x2="-75.6362" y1="83.6045" x1="-175.4424" gradientUnits="userSpaceOnUse" id="SVGID_21_">
		<stop id="stop4198" style="stop-color:#555555" offset="0"></stop>
		<stop id="stop4200" style="stop-color:#231F20" offset="1"></stop>
	</linearGradient>
	
	
		<linearGradient gradientTransform="matrix(1,0,0,-1,192.3999,143.0996)" y2="104.0801" x2="-83.541" y1="104.0801" x1="-175.14211" gradientUnits="userSpaceOnUse" id="SVGID_22_">
		<stop id="stop4205" style="stop-color:#A0A0A0" offset="0"></stop>
		<stop id="stop4207" style="stop-color:#656767" offset="0.0769"></stop>
		<stop id="stop4209" style="stop-color:#717375" offset="1"></stop>
	</linearGradient>
	
	
	
	
	
	
	
		<linearGradient gradientTransform="matrix(1,0,0,-1,192.3999,143.0996)" y2="78.209" x2="-172.3853" y1="78.209" x1="-172.3853" gradientUnits="userSpaceOnUse" id="SVGID_23_">
		<stop id="stop4224" style="stop-color:#FFFFFF" offset="0"></stop>
		<stop id="stop4226" style="stop-color:#F4F4F4" offset="0.078"></stop>
		<stop id="stop4228" style="stop-color:#CECECE" offset="0.3807"></stop>
		<stop id="stop4230" style="stop-color:#BFBFBF" offset="0.5396"></stop>
		<stop id="stop4232" style="stop-color:#7C7C7C" offset="0.8357"></stop>
		<stop id="stop4234" style="stop-color:#A8A8A8" offset="0.8996"></stop>
		<stop id="stop4236" style="stop-color:#9A9A9A" offset="0.9093"></stop>
		<stop id="stop4238" style="stop-color:#7D7D7D" offset="0.9327"></stop>
		<stop id="stop4240" style="stop-color:#686868" offset="0.9558"></stop>
		<stop id="stop4242" style="stop-color:#5B5B5B" offset="0.9785"></stop>
		<stop id="stop4244" style="stop-color:#575757" offset="1"></stop>
	</linearGradient>
	
	
		<linearGradient gradientTransform="matrix(1,0,0,-1,192.3999,143.0996)" y2="90.476799" x2="-67.153198" y1="78.449203" x1="-175.7173" gradientUnits="userSpaceOnUse" id="SVGID_24_">
		<stop id="stop4249" style="stop-color:#FFFFFF" offset="0"></stop>
		<stop id="stop4251" style="stop-color:#F4F4F4" offset="0.078"></stop>
		<stop id="stop4253" style="stop-color:#CECECE" offset="0.3807"></stop>
		<stop id="stop4255" style="stop-color:#BFBFBF" offset="0.5396"></stop>
		<stop id="stop4257" style="stop-color:#7C7C7C" offset="0.8357"></stop>
		<stop id="stop4259" style="stop-color:#A8A8A8" offset="0.8996"></stop>
		<stop id="stop4261" style="stop-color:#9A9A9A" offset="0.9093"></stop>
		<stop id="stop4263" style="stop-color:#7D7D7D" offset="0.9327"></stop>
		<stop id="stop4265" style="stop-color:#686868" offset="0.9558"></stop>
		<stop id="stop4267" style="stop-color:#5B5B5B" offset="0.9785"></stop>
		<stop id="stop4269" style="stop-color:#575757" offset="1"></stop>
	</linearGradient>
	
	
		<linearGradient gradientTransform="matrix(1,0,0,-1,192.3999,143.0996)" y2="92.223099" x2="-52.131699" y1="78.4795" x1="-176.1851" gradientUnits="userSpaceOnUse" id="SVGID_25_">
		<stop id="stop4274" style="stop-color:#FFFFFF" offset="0"></stop>
		<stop id="stop4276" style="stop-color:#F4F4F4" offset="0.078"></stop>
		<stop id="stop4278" style="stop-color:#CECECE" offset="0.3807"></stop>
		<stop id="stop4280" style="stop-color:#BFBFBF" offset="0.5396"></stop>
		<stop id="stop4282" style="stop-color:#7C7C7C" offset="0.8357"></stop>
		<stop id="stop4284" style="stop-color:#A8A8A8" offset="0.8996"></stop>
		<stop id="stop4286" style="stop-color:#9A9A9A" offset="0.9093"></stop>
		<stop id="stop4288" style="stop-color:#7D7D7D" offset="0.9327"></stop>
		<stop id="stop4290" style="stop-color:#686868" offset="0.9558"></stop>
		<stop id="stop4292" style="stop-color:#5B5B5B" offset="0.9785"></stop>
		<stop id="stop4294" style="stop-color:#575757" offset="1"></stop>
	</linearGradient>
	
	<linearGradient y2="51.952599" x2="117.1948" y1="71.326698" x1="21.2129" gradientUnits="userSpaceOnUse" id="SVGID_26_">
		<stop id="stop4299" style="stop-color:#EDEDEE" offset="0"></stop>
		<stop id="stop4301" style="stop-color:#FFFFFF" offset="0.4176"></stop>
		<stop id="stop4303" style="stop-color:#F8F9F9" offset="0.6264"></stop>
		<stop id="stop4305" style="stop-color:#BFC0C2" offset="1"></stop>
	</linearGradient>
	
	
	
	
	<linearGradient y2="30.732401" x2="27.9561" y1="30.732401" x1="23.471201" gradientUnits="userSpaceOnUse" id="SVGID_27_">
		<stop id="stop4316" style="stop-color:#E2E3E4" offset="0"></stop>
		<stop id="stop4318" style="stop-color:#FFFFFF" offset="0.5055"></stop>
	</linearGradient>
	
	
	
	
	
	
	
	
	
	
	
	
	
	
	
	
	
	
	
	
	
	
	
	
	
	
	
	
	
	
	
	
	
	
	
	
	
	
	
	
	
	
	
	
	
	
	
	
	
	
	
	
	
	
	
	
	
	
	
	
	
	
	
	
	
	
	
	
	
	
	
	
	
	
	
	
	
	
	
	
	
	
	
	
	
	
	
	
	
	
	
	
	
	
	
	
	
	
	
	
	
	
	
	
	
	
	
	
	
	
	
	
	
	
	
	
	
	
	
	
	
	
	
	
	
	
	
	
	
	
	
	
	
	
	
	
	
	
	
	
	
	
	
	
	
	
	
	
	
	
	
	
	
	
	
	
	
	
	
	
	
	
	
	
	
	
	
	
	
	
	
	
	
	
	
	
	
	
	<linearGradient y2="29.204" x2="111.5455" y1="49.7188" x1="22.5742" gradientUnits="userSpaceOnUse" id="SVGID_34_">
		<stop id="stop4743" style="stop-color:#FFFFFF" offset="0"></stop>
		<stop id="stop4745" style="stop-color:#FFFFFF" offset="0.6538"></stop>
		<stop id="stop4747" style="stop-color:#CBCCCE" offset="1"></stop>
	</linearGradient>
	
	
	
	
	
	
	
	
		<linearGradient gradientTransform="matrix(1,0,0,-1,192.3999,143.0996)" y2="107.0898" x2="-126.4229" y1="107.0898" x1="-158.8101" gradientUnits="userSpaceOnUse" id="SVGID_35_">
		<stop id="stop4770" style="stop-color:#696969" offset="0"></stop>
		<stop id="stop4772" style="stop-color:#2E2E2E" offset="0.3702"></stop>
		<stop id="stop4774" style="stop-color:#424242" offset="0.4554"></stop>
		<stop id="stop4776" style="stop-color:#303030" offset="0.6014"></stop>
		<stop id="stop4778" style="stop-color:#4A4A4A" offset="0.6947"></stop>
		<stop id="stop4780" style="stop-color:#666666" offset="1"></stop>
	</linearGradient>
	
	
		<linearGradient gradientTransform="matrix(1,0,0,-1,192.3999,143.0996)" y2="107.8965" x2="-126.5454" y1="107.8965" x1="-158.4185" gradientUnits="userSpaceOnUse" id="SVGID_36_">
		<stop id="stop4785" style="stop-color:#525252" offset="0"></stop>
		<stop id="stop4787" style="stop-color:#333333" offset="0.1856"></stop>
		<stop id="stop4789" style="stop-color:#AEAEAE" offset="0.354"></stop>
		<stop id="stop4791" style="stop-color:#ADADAD" offset="0.4199"></stop>
		<stop id="stop4793" style="stop-color:#9D9D9D" offset="0.4276"></stop>
		<stop id="stop4795" style="stop-color:#818181" offset="0.4433"></stop>
		<stop id="stop4797" style="stop-color:#6A6A6A" offset="0.4611"></stop>
		<stop id="stop4799" style="stop-color:#585858" offset="0.4814"></stop>
		<stop id="stop4801" style="stop-color:#4C4C4C" offset="0.506"></stop>
		<stop id="stop4803" style="stop-color:#444444" offset="0.539"></stop>
		<stop id="stop4805" style="stop-color:#424242" offset="0.6166"></stop>
		<stop id="stop4807" style="stop-color:#454545" offset="0.6684"></stop>
		<stop id="stop4809" style="stop-color:#BDBDBD" offset="1"></stop>
	</linearGradient>
	
	
		<linearGradient gradientTransform="matrix(1,0,0,-1,192.3999,143.0996)" y2="104.4332" x2="-154.15421" y1="97.627899" x1="-153.1255" gradientUnits="userSpaceOnUse" id="SVGID_37_">
		<stop id="stop4814" style="stop-color:#969696" offset="0"></stop>
		<stop id="stop4816" style="stop-color:#000000" offset="1"></stop>
	</linearGradient>
	
	
	
	<linearGradient y2="38.790001" x2="39.487301" y1="46.373001" x1="38.737301" gradientUnits="userSpaceOnUse" id="SVGID_38_">
		<stop id="stop4825" style="stop-color:#333333" offset="0"></stop>
		<stop id="stop4827" style="stop-color:#000000" offset="0.431"></stop>
		<stop id="stop4829" style="stop-color:#2E2E2E" offset="1"></stop>
	</linearGradient>
	
	
	
	
	
		<radialGradient gradientUnits="userSpaceOnUse" gradientTransform="matrix(1,0,0,-1,192.3999,143.0996)" r="72.751701" cy="106.5996" cx="-138.2334" id="SVGID_39_">
		<stop id="stop4840" style="stop-color:#000000;stop-opacity:0;" offset="0"></stop>
		<stop id="stop4842" style="stop-color:#000000;stop-opacity:0.08;" offset="0.80220002"></stop>
		<stop id="stop4844" style="stop-color:#000000;stop-opacity:0.3882353;" offset="1"></stop>
	</radialGradient>
	
<radialGradient inkscape:collect="always" xlink:href="#SVGID_39_" id="radialGradient5007" gradientUnits="userSpaceOnUse" gradientTransform="matrix(1,0,0,-1,192.3999,143.0996)" cx="-138.2334" cy="106.5996" r="72.751701"></radialGradient><linearGradient inkscape:collect="always" xlink:href="#SVGID_38_" id="linearGradient5013" gradientUnits="userSpaceOnUse" x1="38.737301" y1="46.373001" x2="39.487301" y2="38.790001"></linearGradient><linearGradient inkscape:collect="always" xlink:href="#SVGID_37_" id="linearGradient5018" gradientUnits="userSpaceOnUse" gradientTransform="matrix(1,0,0,-1,192.3999,143.0996)" x1="-153.1255" y1="97.627899" x2="-154.15421" y2="104.4332"></linearGradient><linearGradient inkscape:collect="always" xlink:href="#SVGID_36_" id="linearGradient5021" gradientUnits="userSpaceOnUse" gradientTransform="matrix(1,0,0,-1,192.3999,143.0996)" x1="-158.4185" y1="107.8965" x2="-126.5454" y2="107.8965"></linearGradient><linearGradient inkscape:collect="always" xlink:href="#SVGID_35_" id="linearGradient5024" gradientUnits="userSpaceOnUse" gradientTransform="matrix(1,0,0,-1,192.3999,143.0996)" x1="-158.8101" y1="107.0898" x2="-126.4229" y2="107.0898"></linearGradient><linearGradient inkscape:collect="always" xlink:href="#SVGID_34_" id="linearGradient5036" gradientUnits="userSpaceOnUse" x1="22.5742" y1="49.7188" x2="111.5455" y2="29.204"></linearGradient><linearGradient inkscape:collect="always" xlink:href="#SVGID_27_" id="linearGradient5252" gradientUnits="userSpaceOnUse" x1="23.471201" y1="30.732401" x2="27.9561" y2="30.732401"></linearGradient><linearGradient inkscape:collect="always" xlink:href="#SVGID_26_" id="linearGradient5258" gradientUnits="userSpaceOnUse" x1="21.2129" y1="71.326698" x2="117.1948" y2="51.952599"></linearGradient><linearGradient inkscape:collect="always" xlink:href="#SVGID_25_" id="linearGradient5261" gradientUnits="userSpaceOnUse" gradientTransform="matrix(1,0,0,-1,192.3999,143.0996)" x1="-176.1851" y1="78.4795" x2="-52.131699" y2="92.223099"></linearGradient><linearGradient inkscape:collect="always" xlink:href="#SVGID_24_" id="linearGradient5264" gradientUnits="userSpaceOnUse" gradientTransform="matrix(1,0,0,-1,192.3999,143.0996)" x1="-175.7173" y1="78.449203" x2="-67.153198" y2="90.476799"></linearGradient><linearGradient inkscape:collect="always" xlink:href="#SVGID_23_" id="linearGradient5267" gradientUnits="userSpaceOnUse" gradientTransform="matrix(1,0,0,-1,192.3999,143.0996)" x1="-172.3853" y1="78.209" x2="-172.3853" y2="78.209"></linearGradient><linearGradient inkscape:collect="always" xlink:href="#SVGID_22_" id="linearGradient5275" gradientUnits="userSpaceOnUse" gradientTransform="matrix(1,0,0,-1,192.3999,143.0996)" x1="-175.14211" y1="104.0801" x2="-83.541" y2="104.0801"></linearGradient><linearGradient inkscape:collect="always" xlink:href="#SVGID_21_" id="linearGradient5278" gradientUnits="userSpaceOnUse" gradientTransform="matrix(1,0,0,-1,192.3999,143.0996)" x1="-175.4424" y1="83.6045" x2="-75.6362" y2="83.6045"></linearGradient><linearGradient inkscape:collect="always" xlink:href="#SVGID_18_" id="linearGradient5317" gradientUnits="userSpaceOnUse" gradientTransform="matrix(1,0,0,-1,192.3999,143.0996)" x1="-115.3716" y1="119.1758" x2="-134.7878" y2="24.695299"></linearGradient><linearGradient inkscape:collect="always" xlink:href="#SVGID_17_" id="linearGradient5320" gradientUnits="userSpaceOnUse" gradientTransform="matrix(1,0,0,-1,192.3999,143.0996)" x1="-118.4946" y1="124.0039" x2="-138.85201" y2="24.9438"></linearGradient><linearGradient inkscape:collect="always" xlink:href="#SVGID_16_" id="linearGradient5323" gradientUnits="userSpaceOnUse" gradientTransform="matrix(1,0,0,-1,192.3999,143.0996)" x1="-127.4014" y1="121.9365" x2="-146.8837" y2="27.1346"></linearGradient><linearGradient inkscape:collect="always" xlink:href="#SVGID_15_" id="linearGradient5326" gradientUnits="userSpaceOnUse" gradientTransform="matrix(1,0,0,-1,192.3999,143.0996)" x1="-135.58591" y1="123.3525" x2="-155.006" y2="28.8524"></linearGradient><linearGradient inkscape:collect="always" xlink:href="#SVGID_14_" id="linearGradient5329" gradientUnits="userSpaceOnUse" gradientTransform="matrix(1,0,0,-1,192.3999,143.0996)" x1="-121.1382" y1="120.3223" x2="-140.54491" y2="25.888"></linearGradient><linearGradient inkscape:collect="always" xlink:href="#SVGID_13_" id="linearGradient5334" gradientUnits="userSpaceOnUse" gradientTransform="matrix(1,0,0,-1,192.3999,143.0996)" x1="-130.1348" y1="35.625" x2="-130.14281" y2="35.585701"></linearGradient><linearGradient inkscape:collect="always" xlink:href="#SVGID_12_" id="linearGradient5337" gradientUnits="userSpaceOnUse" gradientTransform="matrix(1,0,0,-1,192.3999,143.0996)" x1="-152.6201" y1="126.8398" x2="-171.9462" y2="32.797901"></linearGradient><linearGradient inkscape:collect="always" xlink:href="#SVGID_11_" id="linearGradient5340" gradientUnits="userSpaceOnUse" x1="32.519001" y1="33.077099" x2="37.2481" y2="92.496101"></linearGradient><linearGradient inkscape:collect="always" xlink:href="#SVGID_10_" id="linearGradient5343" gradientUnits="userSpaceOnUse" gradientTransform="matrix(1,0,0,-1,192.3999,143.0996)" x1="-115.3369" y1="119.6328" x2="-134.85719" y2="24.6462"></linearGradient><linearGradient inkscape:collect="always" xlink:href="#SVGID_9_" id="linearGradient5354" gradientUnits="userSpaceOnUse" x1="54.653301" y1="25.2764" x2="79.683601" y2="106.3903"></linearGradient><linearGradient inkscape:collect="always" xlink:href="#SVGID_8_" id="linearGradient5357" gradientUnits="userSpaceOnUse" gradientTransform="matrix(1,0,0,-1,192.3999,143.0996)" x1="-117.166" y1="122.1328" x2="-87.569702" y2="31.998501"></linearGradient><linearGradient inkscape:collect="always" xlink:href="#SVGID_7_" id="linearGradient5360" gradientUnits="userSpaceOnUse" x1="70.421898" y1="26.876499" x2="119.5471" y2="87.626701"></linearGradient><linearGradient inkscape:collect="always" xlink:href="#SVGID_6_" id="linearGradient5363" gradientUnits="userSpaceOnUse" gradientTransform="matrix(1,0,0,-1,192.3999,143.0996)" x1="-123.5898" y1="119.8076" x2="-94.069099" y2="29.9035"></linearGradient><linearGradient inkscape:collect="always" xlink:href="#SVGID_5_" id="linearGradient5379" gradientUnits="userSpaceOnUse" x1="54.715801" y1="65.136703" x2="83.798798" y2="65.136703"></linearGradient><linearGradient inkscape:collect="always" xlink:href="#SVGID_2_" id="linearGradient5391" gradientUnits="userSpaceOnUse" x1="66.232399" y1="24.481001" x2="112.7331" y2="97.232101"></linearGradient><radialGradient inkscape:collect="always" xlink:href="#SVGID_1_" id="radialGradient5395" gradientUnits="userSpaceOnUse" gradientTransform="matrix(1,0,0,-1,192.3999,143.0996)" cx="-145.4702" cy="87.823196" r="68.686401"></radialGradient>
	
	
<inkscape:perspective id="perspective10537" inkscape:persp3d-origin="0.5 : 0.33333333 : 1" inkscape:vp_z="1 : 0.5 : 1" inkscape:vp_y="0 : 1000 : 0" inkscape:vp_x="0 : 0.5 : 1" sodipodi:type="inkscape:persp3d"></inkscape:perspective></defs><sodipodi:namedview pagecolor="#ffffff" bordercolor="#666666" borderopacity="1" objecttolerance="10" gridtolerance="10" guidetolerance="10" inkscape:pageopacity="0" inkscape:pageshadow="2" inkscape:window-width="1198" inkscape:window-height="730" id="namedview4848" showgrid="false" inkscape:zoom="4" inkscape:cx="92.577797" inkscape:cy="50.458467" inkscape:window-x="32" inkscape:window-y="24" inkscape:window-maximized="0" inkscape:current-layer="svg3857" showguides="true" inkscape:guide-bbox="true"><sodipodi:guide orientation="0,1" position="0,140" id="globe_top"></sodipodi:guide><sodipodi:guide orientation="1,0" position="16,0" id="globe_left"></sodipodi:guide><sodipodi:guide orientation="1,0" position="119,0" id="globe_right"></sodipodi:guide><sodipodi:guide id="globe_bottom" position="0,47" orientation="0,1"></sodipodi:guide><sodipodi:guide orientation="0,1" position="8,40" id="wordmark_top"></sodipodi:guide><sodipodi:guide orientation="0,1" position="8,22.5" id="wordmark_bottom"></sodipodi:guide><sodipodi:guide orientation="0,1" position="0,17" id="subtitle_top"></sodipodi:guide><sodipodi:guide orientation="0,1" position="0,8" id="subtitle_bottom"></sodipodi:guide><sodipodi:guide orientation="1,0" position="8,40" id="wordmark_left"></sodipodi:guide><sodipodi:guide orientation="1,0" position="127,40" id="wordmark_right"></sodipodi:guide></sodipodi:namedview><g id="Wikipedia">
		<path id="path3898" d="m 18.757,118.893 c 0,0 -0.367,-0.746 -0.492,-0.994 -0.834,-1.653 -0.816,-1.741 -1.659,-1.852 -0.236,-0.031 -0.358,-0.061 -0.358,-0.178 v -0.523 l 0.071,-0.051 c 1.523,-0.002 4.912,-0.002 4.912,-0.002 l 0.13,0.043 v 0.521 c 0,0.119 -0.085,0.18 -0.258,0.18 l -0.356,0.051 c -0.9,0.07 -0.753,0.438 -0.155,1.629 l 5.677,11.615 0.194,0.053 5.04,-11.961 c 0.175,-0.482 0.148,-0.824 -0.077,-1.025 -0.226,-0.196 -0.385,-0.312 -0.969,-0.336 l -0.473,-0.024 c -0.058,0 -0.113,-0.021 -0.166,-0.06 -0.052,-0.037 -0.079,-0.086 -0.079,-0.145 v -0.498 l 0.072,-0.051 c 1.42,0 5.694,0 5.694,0 l 0.058,0.051 v 0.498 c 0,0.135 -0.077,0.203 -0.229,0.203 -0.746,0.033 -1.299,0.195 -1.657,0.484 -0.359,0.291 -0.639,0.692 -0.84,1.213 0,0 -4.635,10.609 -6.221,14.135 -0.607,1.156 -1.204,1.05 -1.729,-0.033 -1.109,-2.284 -4.232,-9.213 -4.232,-9.213 l -1.898,-3.73 z"></path>
		<path id="path3900" d="m 27.853,115.287 c 0,0 -3.203,-0.01 -4.629,0 l -0.071,0.051 v 0.496 c 0,0.061 0.026,0.109 0.078,0.146 0.053,0.039 0.107,0.059 0.165,0.059 l 0.229,0.025 c 0.583,0.024 0.851,0.177 0.931,0.273 0.139,0.17 0.208,0.354 -0.129,1.089 l -5.98,11.927 -0.157,-0.041 c 0,0 -4.283,-9.031 -5.523,-12.052 -0.129,-0.313 -0.187,-0.545 -0.187,-0.688 0,-0.307 0.277,-0.473 0.831,-0.496 l 0.646,-0.027 c 0.171,0 0.258,-0.066 0.258,-0.203 v -0.496 l -0.058,-0.051 c 0,0 -5.13,-0.006 -6.19,0 l -0.058,0.051 v 0.521 c 0,0.094 0.119,0.152 0.358,0.178 0.651,0.035 1.079,0.139 1.285,0.312 0.205,0.175 0.422,0.617 0.71,1.306 1.557,3.74 4.865,10.414 6.476,14.215 0.464,1.038 1.047,1.199 1.755,-0.032 1.226,-2.274 4.55,-9.218 4.55,-9.218 l 2.618,-4.896 c 0.305,-0.517 0.599,-0.978 0.748,-1.193 0.273,-0.393 0.426,-0.467 1.172,-0.502 0.152,0 0.229,-0.068 0.229,-0.205 v -0.496 l -0.057,-0.053 z"></path>
		<path style="fill:#ffffff" id="path3902" d="m 21.535,126.689 c -0.02,0.066 0.188,0.293 0.253,0.313 l 0.155,-0.098 c 0.064,0.02 0.203,-0.041 0.223,-0.105 l 0.027,-0.264 -0.279,-1.304 c -0.051,-0.067 -0.09,-0.018 -0.107,0.043 l -0.272,1.415 z"></path>
		<path id="path3904" d="m 37.592,130.77 c 0,0.572 0.26,0.91 1.092,0.988 l 0.546,0.053 c 0.078,0 0.156,0.051 0.156,0.155 v 0.546 l -0.026,0.053 c 0,0 -1.976,-0.053 -2.782,-0.053 -0.728,0 -2.756,0.053 -2.756,0.053 l -0.052,-0.053 v -0.546 c 0,-0.104 0.078,-0.155 0.182,-0.155 l 0.52,-0.053 c 0.858,-0.078 1.118,-0.494 1.118,-0.988 v -8.658 c 0,-0.571 -0.313,-0.729 -1.118,-0.805 l -0.52,-0.054 c -0.104,0 -0.182,-0.024 -0.182,-0.104 v -0.599 l 0.026,-0.052 c 0,0 2.054,0.052 2.86,0.052 0.702,0 2.704,-0.052 2.704,-0.052 l 0.026,0.052 v 0.572 c 0,0.078 -0.052,0.13 -0.156,0.13 l -0.546,0.053 c -0.806,0.077 -1.092,0.286 -1.092,0.807 v 8.658 z"></path>
		<path id="path3906" d="m 45.265,130.77 c 0,0.572 0.338,0.858 1.092,0.988 l 0.286,0.053 c 0.078,0.025 0.156,0.051 0.156,0.155 v 0.546 l -0.026,0.053 c 0,0 -1.638,-0.053 -2.418,-0.053 -0.728,0 -2.86,0.053 -2.86,0.053 l -0.052,-0.053 v -0.546 c 0,-0.104 0.078,-0.155 0.182,-0.155 l 0.52,-0.053 c 0.78,-0.078 1.118,-0.494 1.118,-0.988 v -8.658 c 0,-0.571 -0.286,-0.729 -1.118,-0.805 l -0.52,-0.054 c -0.104,0 -0.182,-0.024 -0.182,-0.104 v -0.599 l 0.026,-0.052 c 0,0 2.132,0.052 2.938,0.052 0.729,0 2.366,-0.052 2.366,-0.052 l 0.026,0.052 v 0.572 c 0,0.078 -0.052,0.104 -0.156,0.13 l -0.286,0.053 c -0.806,0.155 -1.092,0.286 -1.092,0.807 v 3.926 c 0.858,0 1.352,-0.441 2.496,-1.664 1.04,-1.145 1.846,-2.105 1.846,-2.6 0,-0.209 -0.234,-0.442 -0.754,-0.521 -0.104,-0.025 -0.156,-0.052 -0.156,-0.13 v -0.599 l 0.026,-0.025 c 0,0 2.106,0.052 2.86,0.052 0.676,0 1.82,-0.052 1.82,-0.052 l 0.078,0.025 v 0.599 c 0,0.078 -0.078,0.13 -0.208,0.13 -1.014,0.078 -1.716,0.13 -2.652,1.196 l -2.236,2.573 c -0.442,0.469 -0.598,0.754 -0.598,0.963 0,0.156 0.104,0.285 0.234,0.441 l 3.926,4.732 c 0.312,0.363 0.936,0.52 1.456,0.623 l 0.13,0.025 c 0.078,0.026 0.182,0.078 0.182,0.156 v 0.546 l -0.078,0.026 c 0,0 -1.378,-0.026 -2.106,-0.026 -0.65,0 -1.586,0.026 -1.586,0.026 l -0.026,-0.026 v -0.312 c 0,-0.339 -0.026,-0.623 -0.39,-1.039 l -2.886,-3.589 c -0.39,-0.521 -0.806,-0.649 -1.378,-0.649 v 3.851 l 0,0 z"></path>
		<path id="path3908" d="m 59.282,130.77 c 0,0.572 0.26,0.91 1.092,0.988 l 0.546,0.053 c 0.078,0 0.156,0.051 0.156,0.155 v 0.546 l -0.026,0.053 c 0,0 -1.976,-0.053 -2.782,-0.053 -0.728,0 -2.756,0.053 -2.756,0.053 l -0.052,-0.053 v -0.546 c 0,-0.104 0.078,-0.155 0.182,-0.155 l 0.52,-0.053 c 0.858,-0.078 1.118,-0.494 1.118,-0.988 v -8.658 c 0,-0.571 -0.312,-0.729 -1.118,-0.805 l -0.52,-0.054 c -0.104,0 -0.182,-0.024 -0.182,-0.104 v -0.599 l 0.026,-0.052 c 0,0 2.054,0.052 2.86,0.052 0.702,0 2.704,-0.052 2.704,-0.052 l 0.026,0.052 v 0.572 c 0,0.078 -0.052,0.13 -0.156,0.13 l -0.546,0.053 c -0.806,0.077 -1.092,0.286 -1.092,0.807 v 8.658 z"></path>
		<path id="path3910" d="m 64.9,122.163 c 0,-0.806 -0.338,-0.832 -1.56,-0.91 -0.156,0 -0.182,-0.077 -0.182,-0.13 v -0.598 l 0.052,-0.026 c 0.39,0 1.924,0.052 2.678,0.052 0.728,0 1.768,-0.052 2.73,-0.052 3.69,0 4.366,1.819 4.366,3.173 0,1.561 -0.754,4.004 -4.444,4.004 -0.65,0 -1.17,-0.053 -1.639,-0.26 v 3.482 c 0,0.572 0.312,0.703 1.145,0.832 l 0.521,0.078 c 0.104,0.026 0.182,0.053 0.182,0.156 v 0.546 l -0.025,0.052 c 0,0 -2.08,-0.052 -2.886,-0.052 -0.728,0 -2.678,0.052 -2.678,0.052 l -0.026,-0.052 v -0.546 c 0,-0.104 0.052,-0.13 0.156,-0.156 l 0.546,-0.078 c 0.806,-0.104 1.066,-0.338 1.066,-0.832 l -0.002,-8.735 0,0 z m 2.002,4.525 c 0.52,0.209 1.17,0.234 1.69,0.234 1.561,0 2.312,-0.938 2.312,-2.938 0,-2.236 -1.014,-2.73 -2.442,-2.73 -1.249,0 -1.561,0.234 -1.561,0.91 l 0.001,4.524 0,0 z"></path>
		<path id="path3912" d="m 77.462,132.512 c -0.78,0 -2.573,0.053 -2.573,0.053 l -0.027,-0.053 v -0.572 c 0,-0.051 0.027,-0.129 0.156,-0.129 l 0.599,-0.053 c 0.807,-0.078 1.041,-0.598 1.041,-1.117 v -8.58 c 0,-0.6 -0.313,-0.703 -1.041,-0.754 l -0.599,-0.054 c -0.156,-0.024 -0.156,-0.077 -0.156,-0.104 v -0.599 l 0.027,-0.052 c 0,0 2.027,0.052 2.807,0.052 h 3.822 c 0.78,0 2.627,-0.052 2.627,-0.052 l 0.053,0.052 c 0.025,1.118 0.207,2.134 0.39,3.121 l -0.649,0.104 c -0.285,-0.963 -0.779,-2.34 -2.443,-2.34 h -2.08 c -0.494,0 -0.754,0.182 -0.754,0.623 v 3.771 h 1.949 c 0.729,0 0.91,-0.312 1.015,-0.832 l 0.155,-0.546 c 0,-0.078 0.053,-0.131 0.156,-0.131 h 0.441 c 0.053,0 0.053,0.027 0.053,0.078 -0.053,0.572 -0.156,1.301 -0.156,1.925 0,0.649 0.104,1.196 0.156,1.794 l -0.053,0.053 h -0.441 c -0.129,0 -0.183,-0.053 -0.183,-0.131 l -0.13,-0.571 c -0.104,-0.521 -0.338,-0.807 -1.016,-0.807 H 78.66 v 3.979 c 0,0.493 0.284,0.987 0.754,0.987 h 2.47 c 1.326,0 2.055,-0.832 2.366,-2.185 l 0.649,0.078 -0.521,2.989 -0.052,0.052 c 0,0 -1.534,-0.052 -2.314,-0.052 l -4.55,0.003 0,0 z"></path>
		<path id="path3914" d="m 87.24,131.811 0.598,-0.053 c 0.781,-0.078 1.041,-0.312 1.041,-1.117 v -8.58 c 0,-0.678 -0.184,-0.678 -1.041,-0.754 l -0.57,-0.054 c -0.104,0 -0.184,-0.052 -0.184,-0.13 v -0.572 l 0.025,-0.052 c 0,0 2.289,0.052 2.758,0.052 0.492,0 2.756,-0.052 3.432,-0.052 4.342,0 6.475,2.704 6.475,6.162 0,4.551 -3.225,5.901 -6.11,5.901 -2.08,0 -2.989,-0.052 -3.795,-0.052 -0.781,0 -2.757,0.052 -2.757,0.052 l -0.026,-0.052 v -0.546 c -0.002,-0.075 0.051,-0.153 0.154,-0.153 z m 5.799,0 c 2.859,0 4.473,-1.065 4.473,-4.707 0,-2.703 -0.599,-5.851 -4.967,-5.851 -1.014,0 -1.664,0.156 -1.664,0.808 v 8.58 c 0,0.726 0.181,1.17 2.158,1.17 z"></path>
		<path id="path3916" d="m 105.912,130.77 c 0,0.572 0.26,0.91 1.092,0.988 l 0.546,0.053 c 0.078,0 0.156,0.051 0.156,0.155 v 0.546 l -0.026,0.053 c 0,0 -1.976,-0.053 -2.781,-0.053 -0.729,0 -2.756,0.053 -2.756,0.053 l -0.053,-0.053 v -0.546 c 0,-0.104 0.078,-0.155 0.182,-0.155 l 0.521,-0.053 c 0.857,-0.078 1.118,-0.494 1.118,-0.988 v -8.658 c 0,-0.571 -0.313,-0.729 -1.118,-0.805 l -0.521,-0.054 c -0.104,0 -0.182,-0.024 -0.182,-0.104 v -0.599 l 0.026,-0.052 c 0,0 2.054,0.052 2.858,0.052 0.702,0 2.705,-0.052 2.705,-0.052 l 0.025,0.052 v 0.572 c 0,0.078 -0.053,0.13 -0.156,0.13 l -0.546,0.053 c -0.806,0.077 -1.092,0.286 -1.092,0.807 l 0.002,8.658 0,0 z"></path>
		<path id="path3918" d="m 113.922,131.758 0.754,0.053 c 0.104,0 0.208,0.078 0.208,0.207 v 0.494 l -0.052,0.053 c 0,0 -2.834,-0.053 -3.458,-0.053 -0.677,0 -2.341,0.053 -2.341,0.053 l -0.053,-0.053 v -0.494 c 0,-0.129 0.078,-0.207 0.209,-0.207 1.145,-0.078 1.793,-0.287 2.521,-1.951 l 5.771,-13.521 c 0.285,-0.676 0.494,-0.937 0.885,-0.937 0.363,0 0.494,0.261 0.701,0.781 l 5.33,14.092 c 0.365,1.015 0.885,1.404 1.925,1.508 l 0.286,0.025 c 0.13,0 0.26,0.078 0.26,0.209 v 0.493 l -0.078,0.052 c 0,0 -2.002,-0.052 -3.016,-0.052 -0.91,0 -3.459,0.052 -3.459,0.052 l -0.025,-0.052 v -0.493 c 0,-0.131 0.052,-0.209 0.184,-0.209 l 0.728,-0.052 c 0.987,-0.077 1.353,-0.391 1.092,-1.118 l -1.586,-4.395 H 115.3 c -0.624,0 -0.78,0.104 -0.909,0.441 l -1.509,3.771 c -0.26,0.652 0.078,1.225 1.04,1.303 z m 6.37,-6.606 -2.522,-6.941 h -0.052 l -2.6,6.604 c -0.104,0.261 0.077,0.338 0.649,0.338 h 4.525 z"></path>
	</g><path transform="matrix(1.1778175,0,0,1.2681719,202.86402,-71.704969)" style="font-size:10px;font-style:normal;font-variant:normal;font-weight:normal;font-stretch:normal;text-align:justify;line-height:100%;writing-mode:lr-tb;text-anchor:start;fill:#000000;fill-opacity:1;stroke:none;stroke-width:1px;stroke-linecap:butt;stroke-linejoin:miter;stroke-opacity:1;font-family:Linux Libertine O;-inkscape-font-specification:Linux Libertine O" d="M -162.77004,168.73251 L -163.68002,168.73251 L -163.68002,166.73254 C -163.68003,166.60921 -163.65003,166.50588 -163.59002,166.42254 C -163.53003,166.33922 -163.44003,166.29588 -163.32003,166.29254 L -162.27004,166.29254 C -161.90859,166.29484 -161.65401,166.39026 -161.5063,166.57879 C -161.3586,166.76733 -161.23652,167.03525 -161.14006,167.38253 C -161.01706,167.39837 -160.90706,167.3817 -160.81006,167.33253 C -160.83986,167.09775 -160.88027,166.81483 -160.93131,166.48379 C -160.98235,166.15276 -161.01527,165.95235 -161.03006,165.88255 C -161.0284,165.86256 -161.04173,165.85256 -161.07006,165.85255 C -161.14985,165.86735 -161.22277,165.87776 -161.2888,165.8838 C -161.35485,165.88985 -161.44526,165.89276 -161.56005,165.89255 L -164.11002,165.89255 C -164.13252,165.89235 -164.28502,165.89026 -164.56751,165.8863 C -164.85001,165.88235 -165.12751,165.87776 -165.4,165.87255 C -165.43,165.9088 -165.445,165.9638 -165.445,166.03755 C -165.445,166.1113 -165.43,166.1663 -165.4,166.20254 C -165.05751,166.20172 -164.82501,166.25338 -164.70251,166.35754 C -164.58001,166.46171 -164.52251,166.71338 -164.53001,167.11253 L -164.53001,171.12248 C -164.52251,171.52164 -164.58001,171.77331 -164.70251,171.87747 C -164.82501,171.98164 -165.05751,172.0333 -165.4,172.03247 C -165.43,172.06872 -165.445,172.12372 -165.445,172.19747 C -165.445,172.27122 -165.43,172.32622 -165.4,172.36247 C -165.13146,172.35726 -164.85355,172.35267 -164.56626,172.34872 C -164.27898,172.34476 -164.12356,172.34267 -164.10002,172.34247 L -161.95005,172.34247 C -161.68672,172.3433 -161.41339,172.34663 -161.13006,172.35247 C -160.84673,172.3583 -160.6934,172.36163 -160.67006,172.36247 C -160.5984,172.10601 -160.52924,171.82893 -160.46256,171.53123 C -160.3959,171.23352 -160.34174,170.95394 -160.30007,170.69249 C -160.40324,170.63032 -160.5199,170.61366 -160.65006,170.64249 C -160.74465,171.01207 -160.89298,171.3204 -161.09506,171.56748 C -161.29714,171.81456 -161.58547,171.94289 -161.96005,171.95247 L -163.32003,171.95247 C -163.43128,171.95143 -163.51878,171.91351 -163.58252,171.83872 C -163.64628,171.76393 -163.67878,171.65852 -163.68002,171.52248 L -163.68002,169.11251 L -162.77004,169.11251 C -162.36213,169.11272 -162.10796,169.1698 -162.00755,169.28376 C -161.90713,169.39771 -161.85797,169.5673 -161.86005,169.7925 C -161.8238,169.8225 -161.7688,169.8375 -161.69505,169.8375 C -161.6213,169.8375 -161.5663,169.8225 -161.53005,169.7925 C -161.53526,169.62396 -161.53985,169.47605 -161.5438,169.34875 C -161.54776,169.22147 -161.54985,169.07605 -161.55005,168.91251 C -161.54985,168.74668 -161.54776,168.59835 -161.5438,168.46752 C -161.53985,168.33669 -161.53526,168.19836 -161.53005,168.05252 C -161.5663,168.02253 -161.6213,168.00753 -161.69505,168.00752 C -161.7688,168.00753 -161.8238,168.02253 -161.86005,168.05252 C -161.85797,168.32148 -161.90713,168.50356 -162.00755,168.59876 C -162.10796,168.69397 -162.36213,168.73856 -162.77004,168.73251 L -162.77004,168.73251 z M -158.17174,168.76251 C -158.18904,168.78877 -158.20945,168.81126 -158.23299,168.83001 C -158.25654,168.84876 -158.26945,168.82626 -158.27174,168.76251 C -158.26966,168.5996 -158.26133,168.43544 -158.24674,168.27002 C -158.23216,168.10461 -158.22383,168.01544 -158.22174,168.00252 C -158.22174,167.95086 -158.26174,167.92419 -158.34174,167.92252 C -158.47861,167.97711 -158.65736,168.02794 -158.87798,168.07502 C -159.09861,168.12211 -159.37985,168.16794 -159.72172,168.21252 C -159.73089,168.24669 -159.73256,168.29336 -159.72672,168.35252 C -159.72089,168.41169 -159.71256,168.45835 -159.70172,168.49252 C -159.43839,168.50648 -159.26256,168.55356 -159.17423,168.63376 C -159.0859,168.71397 -159.04507,168.89356 -159.05173,169.17251 L -159.05173,171.12248 C -159.0434,171.51602 -159.08507,171.76393 -159.17673,171.86622 C -159.2684,171.96851 -159.46006,172.02393 -159.75172,172.03247 C -159.78172,172.06872 -159.79672,172.12372 -159.79672,172.19747 C -159.79672,172.27122 -159.78172,172.32622 -159.75172,172.36247 C -159.55339,172.35726 -159.37256,172.35267 -159.20923,172.34872 C -159.0459,172.34476 -158.86007,172.34267 -158.65174,172.34247 C -158.46612,172.34267 -158.30487,172.34476 -158.16799,172.34872 C -158.03112,172.35267 -157.86237,172.35726 -157.66175,172.36247 C -157.63175,172.32622 -157.61675,172.27122 -157.61675,172.19747 C -157.61675,172.12372 -157.63175,172.06872 -157.66175,172.03247 C -157.90987,172.02393 -158.07362,171.96851 -158.15299,171.86622 C -158.23237,171.76393 -158.26862,171.51602 -158.26174,171.12248 L -158.26174,169.4825 C -158.25966,169.37876 -158.24133,169.29376 -158.20674,169.22751 C -158.17216,169.16126 -158.13383,169.10626 -158.09174,169.06251 C -157.90154,168.87606 -157.70946,168.73147 -157.5155,168.62876 C -157.32155,168.52606 -157.12697,168.47398 -156.93176,168.47252 C -156.82968,168.47314 -156.73135,168.50439 -156.63676,168.56626 C -156.54218,168.62814 -156.46385,168.71689 -156.40177,168.83251 C -156.35302,168.93335 -156.32052,169.04918 -156.30427,169.18001 C -156.28802,169.31084 -156.28052,169.45167 -156.28177,169.6025 L -156.28177,171.12248 C -156.2751,171.51602 -156.31344,171.76393 -156.39677,171.86622 C -156.4801,171.96851 -156.64843,172.02393 -156.90176,172.03247 C -156.92676,172.06872 -156.93926,172.12372 -156.93926,172.19747 C -156.93926,172.27122 -156.92676,172.32622 -156.90176,172.36247 C -156.70051,172.35726 -156.52802,172.35267 -156.38427,172.34872 C -156.24052,172.34476 -156.07302,172.34267 -155.88177,172.34247 C -155.68511,172.34267 -155.51095,172.34476 -155.35928,172.34872 C -155.20762,172.35267 -155.02845,172.35726 -154.82179,172.36247 C -154.79679,172.32622 -154.78429,172.27122 -154.78429,172.19747 C -154.78429,172.12372 -154.79679,172.06872 -154.82179,172.03247 C -155.0947,172.02393 -155.27637,171.96851 -155.36678,171.86622 C -155.4572,171.76393 -155.49886,171.51602 -155.49178,171.12248 L -155.49178,169.6325 C -155.48866,169.35542 -155.50491,169.10209 -155.54053,168.87251 C -155.57616,168.64293 -155.6499,168.4496 -155.76177,168.29252 C -155.84886,168.18211 -155.96469,168.09794 -156.10927,168.04002 C -156.25385,167.98211 -156.41469,167.95294 -156.59176,167.95252 C -156.83385,167.94378 -157.08218,167.99378 -157.33675,168.10252 C -157.59134,168.21127 -157.86967,168.43127 -158.17174,168.76251 L -158.17174,168.76251 z M -154.18016,170.96248 C -154.15975,171.20811 -154.14308,171.44685 -154.13016,171.67872 C -154.11725,171.9106 -154.11058,172.13184 -154.11016,172.34247 C -154.05912,172.33247 -154.01121,172.32497 -153.96642,172.31997 C -153.92162,172.31497 -153.88621,172.31247 -153.86017,172.31247 C -153.82558,172.31205 -153.79225,172.31288 -153.76017,172.31497 C -153.72809,172.31705 -153.69475,172.32288 -153.66017,172.33247 C -153.52726,172.36767 -153.38809,172.39476 -153.24267,172.41371 C -153.09726,172.43267 -152.9331,172.44226 -152.75018,172.44246 C -152.43894,172.45184 -152.10394,172.36559 -151.74519,172.18372 C -151.38645,172.00185 -151.19145,171.6681 -151.1602,171.18248 C -151.16658,170.84424 -151.27683,170.56899 -151.49095,170.35674 C -151.70507,170.1445 -151.98482,169.97575 -152.33019,169.8505 C -152.63435,169.74646 -152.87601,169.63204 -153.05518,169.50725 C -153.23434,169.38247 -153.32601,169.18755 -153.33017,168.92251 C -153.32226,168.71647 -153.24809,168.55856 -153.10768,168.44877 C -152.96726,168.33898 -152.8081,168.28356 -152.63018,168.28252 C -152.50331,168.26815 -152.33706,168.3169 -152.13144,168.42877 C -151.92582,168.54064 -151.78207,168.80189 -151.70019,169.21251 C -151.66436,169.24209 -151.61103,169.25543 -151.5402,169.25251 C -151.46937,169.24959 -151.41603,169.23293 -151.3802,169.20251 C -151.37833,169.02147 -151.36958,168.84106 -151.35395,168.66126 C -151.33833,168.48148 -151.32708,168.30856 -151.3202,168.14252 C -151.47791,168.11273 -151.66999,168.07482 -151.89644,168.02877 C -152.1229,167.98273 -152.36748,167.95732 -152.63018,167.95252 C -153.01268,167.95919 -153.34017,168.06586 -153.61267,168.27252 C -153.88517,168.47919 -154.02767,168.74585 -154.04016,169.07251 C -154.04246,169.42855 -153.95537,169.70646 -153.77892,169.90625 C -153.60246,170.10604 -153.32288,170.28145 -152.94018,170.43249 C -152.53544,170.59695 -152.26194,170.74953 -152.11969,170.89023 C -151.97744,171.03094 -151.91094,171.20502 -151.92019,171.41248 C -151.93249,171.65602 -152.0279,171.83393 -152.20644,171.94622 C -152.38498,172.05851 -152.57289,172.11393 -152.77018,172.11247 C -152.96414,172.10934 -153.11872,172.08309 -153.23392,172.03372 C -153.34913,171.98435 -153.43122,171.9306 -153.48017,171.87247 C -153.59767,171.74914 -153.68517,171.59831 -153.74267,171.41998 C -153.80017,171.24165 -153.84267,171.08582 -153.87017,170.95248 C -153.90558,170.9229 -153.95725,170.90957 -154.02516,170.91248 C -154.09308,170.9154 -154.14475,170.93207 -154.18016,170.96248 L -154.18016,170.96248 z M -147.90207,170.0125 L -147.90207,171.34248 C -147.90291,171.40644 -147.91624,171.45852 -147.94207,171.49873 C -147.9679,171.53893 -148.00124,171.57352 -148.04207,171.60248 C -148.17499,171.71227 -148.31915,171.81018 -148.47456,171.89622 C -148.62998,171.98226 -148.77914,172.02768 -148.92206,172.03247 C -149.1708,172.02226 -149.3533,171.94268 -149.46955,171.79372 C -149.5858,171.64477 -149.6433,171.48769 -149.64205,171.32248 C -149.64859,171.09202 -149.58251,170.87694 -149.4438,170.67724 C -149.30509,170.47753 -149.05451,170.32595 -148.69206,170.22249 L -147.90207,170.0125 z M -147.90207,171.86247 C -147.87711,171.97851 -147.80803,172.10143 -147.69482,172.23122 C -147.58162,172.36101 -147.39404,172.43142 -147.13208,172.44246 C -146.88229,172.42684 -146.67938,172.35809 -146.52334,172.23622 C -146.3673,172.11434 -146.28689,172.03309 -146.28209,171.99247 C -146.28501,171.95476 -146.30168,171.91768 -146.33209,171.88122 C -146.36251,171.84476 -146.38918,171.82518 -146.41209,171.82247 C -146.43726,171.82914 -146.46993,171.85581 -146.51009,171.90247 C -146.55026,171.94914 -146.62092,171.9758 -146.72208,171.98247 C -146.90938,171.9758 -147.02479,171.89164 -147.06833,171.72997 C -147.11187,171.56831 -147.12979,171.36915 -147.12208,171.13248 L -147.12208,169.6425 C -147.13937,168.95085 -147.29979,168.49169 -147.60332,168.26502 C -147.90686,168.03836 -148.24978,167.93419 -148.63206,167.95252 C -149.05956,167.96503 -149.43705,168.08252 -149.76455,168.30502 C -150.09204,168.52752 -150.26454,168.78002 -150.28204,169.06251 C -150.28183,169.18209 -150.25225,169.27043 -150.19329,169.3275 C -150.13433,169.38459 -150.04725,169.41292 -149.93204,169.4125 C -149.78684,169.40688 -149.67726,169.36813 -149.6033,169.29625 C -149.52934,169.22438 -149.49226,169.15313 -149.49205,169.08251 C -149.49205,169.04689 -149.49455,169.01314 -149.49955,168.98126 C -149.50455,168.94939 -149.51205,168.92314 -149.52205,168.90251 C -149.52726,168.88793 -149.53184,168.8646 -149.5358,168.83251 C -149.53976,168.80043 -149.54184,168.7571 -149.54205,168.70251 C -149.53122,168.54939 -149.44038,168.44064 -149.26955,168.37627 C -149.09872,168.3119 -148.91289,168.28065 -148.71206,168.28252 C -148.52956,168.26606 -148.35207,168.34148 -148.17957,168.50877 C -148.00707,168.67606 -147.91457,169.03397 -147.90207,169.5825 C -147.9027,169.6175 -147.90895,169.645 -147.92082,169.665 C -147.9327,169.685 -147.94645,169.6975 -147.96207,169.7025 L -148.82206,169.9125 C -149.3108,170.03541 -149.7058,170.22208 -150.00704,170.47249 C -150.30829,170.7229 -150.46329,171.01957 -150.47204,171.36248 C -150.46329,171.7531 -150.34079,172.03184 -150.10454,172.19872 C -149.86829,172.36559 -149.5708,172.44684 -149.21205,172.44246 C -148.99289,172.44621 -148.80873,172.41871 -148.65956,172.35997 C -148.5104,172.30122 -148.33123,172.18872 -148.12207,172.02247 L -147.92207,171.86247 L -147.90207,171.86247 z M -145.02173,169.5225 C -144.90653,168.9773 -144.72445,168.63273 -144.47549,168.48877 C -144.22654,168.34481 -144.03196,168.28273 -143.89175,168.30252 C -143.69092,168.29377 -143.50509,168.36377 -143.33426,168.51252 C -143.16343,168.66127 -143.0726,168.94126 -143.06176,169.3525 C -143.06114,169.39759 -143.07239,169.43192 -143.09551,169.4555 C -143.11864,169.47909 -143.15739,169.49142 -143.21176,169.4925 L -145.02173,169.5225 z M -142.40177,171.41248 C -142.57906,171.60123 -142.75948,171.73872 -142.94301,171.82497 C -143.12655,171.91122 -143.35947,171.95372 -143.64175,171.95247 C -143.82529,171.95435 -144.01321,171.8981 -144.2055,171.78372 C -144.39779,171.66935 -144.5732,171.4856 -144.73174,171.23248 C -144.83257,171.06727 -144.9109,170.87019 -144.96674,170.64124 C -145.02257,170.41228 -145.0509,170.1527 -145.05173,169.8625 L -142.39177,169.8825 C -142.33136,169.88229 -142.28469,169.86771 -142.25177,169.83875 C -142.21886,169.80979 -142.20219,169.76771 -142.20177,169.7125 C -142.18532,169.27251 -142.29323,168.87751 -142.52552,168.52751 C -142.75781,168.17752 -143.21322,167.99253 -143.89175,167.97252 C -144.3557,167.97544 -144.79778,168.17711 -145.21798,168.57751 C -145.63819,168.97793 -145.86277,169.55959 -145.89172,170.32249 C -145.89277,170.60541 -145.85568,170.87457 -145.78047,171.12998 C -145.70527,171.3854 -145.58569,171.60956 -145.42173,171.80247 C -145.25423,172.00414 -145.04674,172.1608 -144.79924,172.27247 C -144.55174,172.38413 -144.24925,172.4408 -143.89175,172.44246 C -143.51342,172.43871 -143.18509,172.35872 -142.90676,172.20247 C -142.62844,172.04622 -142.39011,171.83622 -142.19177,171.57248 C -142.20615,171.52269 -142.2299,171.48477 -142.26302,171.45873 C -142.29615,171.43269 -142.3424,171.41727 -142.40177,171.41248 L -142.40177,171.41248 z M -140.92907,171.12248 C -140.92199,171.52102 -140.96366,171.77143 -141.05407,171.87372 C -141.14449,171.97601 -141.32615,172.02893 -141.59906,172.03247 C -141.62906,172.06872 -141.64406,172.12372 -141.64406,172.19747 C -141.64406,172.27122 -141.62906,172.32622 -141.59906,172.36247 C -141.39698,172.35726 -141.21865,172.35267 -141.06407,172.34872 C -140.90949,172.34476 -140.73116,172.34267 -140.52908,172.34247 C -140.36492,172.34267 -140.22325,172.34476 -140.10408,172.34872 C -139.98492,172.35267 -139.82326,172.35726 -139.61909,172.36247 C -139.58909,172.32622 -139.57409,172.27122 -139.57409,172.19747 C -139.57409,172.12372 -139.58909,172.06872 -139.61909,172.03247 C -139.82013,172.02893 -139.95805,171.97601 -140.03284,171.87372 C -140.10763,171.77143 -140.14304,171.52102 -140.13908,171.12248 L -140.13908,170.22249 C -140.0234,170.22162 -139.92303,170.24687 -139.83796,170.29824 C -139.7529,170.34962 -139.66328,170.44437 -139.56909,170.58249 L -138.8391,171.61248 C -138.74202,171.75372 -138.67869,171.86372 -138.6491,171.94247 C -138.61952,172.02122 -138.60619,172.09122 -138.6091,172.15247 L -138.6091,172.31247 C -138.61077,172.34413 -138.59744,172.3608 -138.5691,172.36247 C -138.47161,172.35726 -138.36911,172.35267 -138.26161,172.34872 C -138.15411,172.34476 -138.02661,172.34267 -137.87911,172.34247 C -137.72808,172.34267 -137.59016,172.34476 -137.46537,172.34872 C -137.34058,172.35267 -137.20517,172.35726 -137.05912,172.36247 C -137.02913,172.32622 -137.01413,172.27122 -137.01412,172.19747 C -137.01413,172.12372 -137.02913,172.06872 -137.05912,172.03247 C -137.22946,172.0186 -137.38679,171.98585 -137.53112,171.93422 C -137.67545,171.8826 -137.80478,171.77535 -137.91911,171.61248 L -139.0891,169.8825 C -139.12077,169.84083 -139.13743,169.79417 -139.1391,169.7425 C -139.14077,169.70417 -139.12743,169.67084 -139.0991,169.6425 L -138.33911,168.80251 C -138.19459,168.65112 -138.03664,168.54191 -137.86524,168.47489 C -137.69385,168.40787 -137.48514,168.37042 -137.23912,168.36252 C -137.20913,168.32627 -137.19413,168.27127 -137.19412,168.19752 C -137.19413,168.12377 -137.20913,168.06877 -137.23912,168.03252 C -137.41475,168.03773 -137.561,168.04232 -137.67787,168.04627 C -137.79474,168.05023 -137.93849,168.05232 -138.10911,168.05252 C -138.29057,168.05232 -138.44515,168.05023 -138.57285,168.04627 C -138.70056,168.04232 -138.85264,168.03773 -139.0291,168.03252 C -139.0591,168.06877 -139.0741,168.12377 -139.0741,168.19752 C -139.0741,168.27127 -139.0591,168.32627 -139.0291,168.36252 C -138.75035,168.39033 -138.63161,168.46596 -138.67285,168.58939 C -138.71411,168.71283 -138.77285,168.8072 -138.8491,168.87251 C -139.11635,169.16488 -139.36385,169.40963 -139.59159,169.60675 C -139.81934,169.80388 -140.00184,169.92412 -140.13908,169.9675 L -140.13908,166.51254 C -140.13742,166.18443 -140.13075,165.92818 -140.11908,165.7438 C -140.10742,165.55943 -140.10075,165.46569 -140.09908,165.46255 C -140.09742,165.39423 -140.14075,165.3609 -140.22908,165.36256 C -140.37179,165.41569 -140.58637,165.46944 -140.87282,165.5238 C -141.15928,165.57818 -141.41136,165.61443 -141.62906,165.63255 C -141.63906,165.67631 -141.63906,165.72881 -141.62906,165.79005 C -141.61906,165.85131 -141.59907,165.89881 -141.56907,165.93255 C -141.3149,165.92735 -141.14324,165.96276 -141.05407,166.0388 C -140.96491,166.11484 -140.92324,166.35276 -140.92907,166.75254 L -140.92907,171.12248 z M -136.01486,171.12248 C -136.00673,171.52164 -136.05048,171.77331 -136.1461,171.87747 C -136.24173,171.98164 -136.43798,172.0333 -136.73485,172.03247 C -136.76485,172.06872 -136.77985,172.12372 -136.77985,172.19747 C -136.77985,172.27122 -136.76485,172.32622 -136.73485,172.36247 C -136.53193,172.35726 -136.34777,172.35267 -136.18235,172.34872 C -136.01694,172.34476 -135.82778,172.34267 -135.61486,172.34247 C -135.40737,172.34267 -135.22237,172.34476 -135.05987,172.34872 C -134.89737,172.35267 -134.71238,172.35726 -134.50488,172.36247 C -134.47488,172.32622 -134.45988,172.27122 -134.45988,172.19747 C -134.45988,172.12372 -134.47488,172.06872 -134.50488,172.03247 C -134.80175,172.0333 -134.998,171.98164 -135.09362,171.87747 C -135.18924,171.77331 -135.23299,171.52164 -135.22487,171.12248 L -135.22487,166.51254 C -135.2232,166.18443 -135.21653,165.92818 -135.20487,165.7438 C -135.1932,165.55943 -135.18654,165.46569 -135.18487,165.46255 C -135.1832,165.39423 -135.22653,165.3609 -135.31486,165.36256 C -135.45757,165.41569 -135.67215,165.46944 -135.95861,165.5238 C -136.24506,165.57818 -136.49714,165.61443 -136.71485,165.63255 C -136.72485,165.67631 -136.72485,165.72881 -136.71485,165.79005 C -136.70485,165.85131 -136.68485,165.89881 -136.65485,165.93255 C -136.40068,165.92735 -136.22902,165.96276 -136.13985,166.0388 C -136.05069,166.11484 -136.00902,166.35276 -136.01486,166.75254 L -136.01486,171.12248 z M -133.91813,170.29249 C -133.91876,170.82832 -133.74501,171.31415 -133.39689,171.74997 C -133.04877,172.1858 -132.52252,172.41663 -131.81816,172.44246 C -131.07796,172.41163 -130.53839,172.1633 -130.19943,171.69747 C -129.86048,171.23165 -129.6934,170.73332 -129.69818,170.20249 C -129.68881,169.65375 -129.84506,169.14876 -130.16693,168.68751 C -130.4888,168.22627 -131.03255,167.98128 -131.79816,167.95252 C -132.47711,167.97065 -132.99919,168.2019 -133.36439,168.64626 C -133.72959,169.09064 -133.91417,169.63938 -133.91813,170.29249 L -133.91813,170.29249 z M -131.90816,168.28252 C -131.47566,168.28398 -131.14317,168.47356 -130.91067,168.85126 C -130.67818,169.22897 -130.56068,169.78604 -130.55817,170.52249 C -130.5738,171.16623 -130.69505,171.59623 -130.92192,171.81247 C -131.14879,172.02872 -131.38754,172.12872 -131.63816,172.11247 C -131.9831,172.10142 -132.25988,171.9813 -132.46852,171.7521 C -132.67716,171.52291 -132.82802,171.25094 -132.92111,170.93619 C -133.01419,170.62144 -133.05987,170.33021 -133.05814,170.0625 C -133.06273,169.60771 -132.97606,169.2023 -132.79814,168.84626 C -132.62023,168.49023 -132.32357,168.30231 -131.90816,168.28252 L -131.90816,168.28252 z M -127.53909,168.99251 C -127.37963,168.82835 -127.20905,168.69168 -127.02734,168.58251 C -126.84564,168.47335 -126.67956,168.41669 -126.5291,168.41252 C -126.19952,168.41898 -125.92119,168.58606 -125.69411,168.91376 C -125.46703,169.24147 -125.3487,169.69104 -125.33911,170.26249 C -125.32787,170.69791 -125.42287,171.10707 -125.62411,171.48998 C -125.82536,171.87289 -126.20036,172.07705 -126.7491,172.10247 C -126.84618,172.10374 -126.96451,172.0887 -127.10409,172.05734 C -127.24367,172.02599 -127.36201,171.9707 -127.45909,171.89147 C -127.55702,171.81033 -127.62215,171.73312 -127.65446,171.65985 C -127.68677,171.58658 -127.70165,171.46412 -127.69908,171.29248 L -127.69908,169.4325 C -127.70042,169.33055 -127.68975,169.24747 -127.66708,169.18326 C -127.64442,169.11905 -127.60175,169.05547 -127.53909,168.99251 L -127.53909,168.99251 z M -127.61908,168.66251 C -127.63681,168.6797 -127.65736,168.68758 -127.68071,168.68614 C -127.70406,168.6847 -127.71686,168.66683 -127.71908,168.63251 C -127.71742,168.44835 -127.71075,168.29669 -127.69908,168.17752 C -127.68742,168.05836 -127.68075,167.99669 -127.67908,167.99252 C -127.6795,167.97211 -127.69117,167.95544 -127.71408,167.94252 C -127.737,167.92961 -127.76867,167.92294 -127.80908,167.92252 C -127.94471,167.97711 -128.11845,168.02794 -128.33033,168.07502 C -128.5422,168.12211 -128.81844,168.16794 -129.15906,168.21252 C -129.16823,168.24669 -129.1699,168.29336 -129.16406,168.35252 C -129.15823,168.41169 -129.1499,168.45835 -129.13906,168.49252 C -128.87573,168.5071 -128.6999,168.55543 -128.61157,168.63751 C -128.52324,168.7196 -128.48241,168.89793 -128.48907,169.17251 L -128.48907,173.44245 C -128.48095,173.84161 -128.5247,174.09327 -128.62032,174.19744 C -128.71595,174.30161 -128.91219,174.35327 -129.20906,174.35244 C -129.23906,174.38869 -129.25406,174.44369 -129.25406,174.51744 C -129.25406,174.59118 -129.23906,174.64618 -129.20906,174.68244 C -129.00615,174.67722 -128.82199,174.67264 -128.65657,174.66869 C -128.49116,174.66473 -128.30199,174.66264 -128.08908,174.66244 C -127.85992,174.66264 -127.65325,174.66473 -127.46909,174.66869 C -127.28492,174.67264 -127.08826,174.67723 -126.87909,174.68244 C -126.8491,174.64618 -126.8341,174.59118 -126.83409,174.51744 C -126.8341,174.44369 -126.8491,174.38869 -126.87909,174.35244 C -127.22388,174.3489 -127.4493,174.29598 -127.55534,174.19369 C -127.66138,174.0914 -127.70929,173.84099 -127.69908,173.44245 L -127.69908,172.36247 C -127.69963,172.29984 -127.68904,172.26584 -127.66733,172.26047 C -127.64563,172.25509 -127.60954,172.26409 -127.55908,172.28747 C -127.4354,172.33724 -127.29928,172.37544 -127.15072,172.40209 C -127.00216,172.42874 -126.84828,172.44219 -126.6891,172.44246 C -126.40848,172.44351 -126.14473,172.39892 -125.89786,172.30872 C -125.65099,172.21851 -125.42474,172.07643 -125.21911,171.88247 C -124.98266,171.6531 -124.80058,171.38185 -124.67287,171.06873 C -124.54517,170.75561 -124.48059,170.39687 -124.47912,169.9925 C -124.48913,169.44376 -124.65663,168.97126 -124.98162,168.57501 C -125.30662,168.17877 -125.72911,167.97128 -126.2491,167.95252 C -126.43994,167.95336 -126.65827,168.01419 -126.90409,168.13502 C -127.14993,168.25586 -127.38826,168.43169 -127.61908,168.66251 L -127.61908,168.66251 z M -123.19376,166.35254 C -123.18876,166.48796 -123.13876,166.60713 -123.04376,166.71004 C -122.94877,166.81296 -122.83877,166.86712 -122.71377,166.87254 C -122.5696,166.86573 -122.44794,166.8121 -122.34877,166.71166 C -122.24961,166.61123 -122.19794,166.50486 -122.19377,166.39254 C -122.1969,166.26588 -122.24315,166.14922 -122.33252,166.04255 C -122.4219,165.93589 -122.53565,165.87922 -122.67377,165.87255 C -122.80043,165.87756 -122.9171,165.92755 -123.02376,166.02255 C -123.13043,166.11755 -123.1871,166.22755 -123.19376,166.35254 L -123.19376,166.35254 z M -122.28377,171.12248 L -122.28377,169.12951 C -122.28211,168.8647 -122.27544,168.61308 -122.26377,168.37464 C -122.25211,168.13621 -122.24544,168.00884 -122.24377,167.99252 C -122.24419,167.97211 -122.25586,167.95544 -122.27877,167.94252 C -122.30169,167.92961 -122.33336,167.92294 -122.37377,167.92252 C -122.51242,167.97711 -122.69012,168.02794 -122.90689,168.07502 C -123.12366,168.12211 -123.40261,168.16794 -123.74375,168.21252 C -123.75292,168.24669 -123.75459,168.29336 -123.74875,168.35252 C -123.74292,168.41169 -123.73459,168.45835 -123.72375,168.49252 C -123.45824,168.50754 -123.28178,168.556 -123.19439,168.63789 C -123.10699,168.71979 -123.06679,168.89799 -123.07376,169.17251 L -123.07376,171.12248 C -123.06564,171.52039 -123.10939,171.76956 -123.20501,171.86997 C -123.30064,171.97039 -123.49688,172.02455 -123.79375,172.03247 C -123.82375,172.06872 -123.83875,172.12372 -123.83875,172.19747 C -123.83875,172.27122 -123.82375,172.32622 -123.79375,172.36247 C -123.59084,172.35726 -123.40668,172.35267 -123.24126,172.34872 C -123.07585,172.34476 -122.88668,172.34267 -122.67377,172.34247 C -122.46627,172.34267 -122.28128,172.34476 -122.11878,172.34872 C -121.95628,172.35267 -121.77128,172.35726 -121.56378,172.36247 C -121.53379,172.32622 -121.51879,172.27122 -121.51878,172.19747 C -121.51879,172.12372 -121.53379,172.06872 -121.56378,172.03247 C -121.86066,172.02893 -122.0569,171.97601 -122.15253,171.87372 C -122.24815,171.77143 -122.2919,171.52102 -122.28377,171.12248 L -122.28377,171.12248 z M -117.92895,171.10248 C -117.92681,171.19423 -117.93585,171.26773 -117.95608,171.32298 C -117.97631,171.37823 -118.0206,171.43473 -118.08895,171.49248 C -118.27437,171.65248 -118.44603,171.77247 -118.60394,171.85247 C -118.76186,171.93247 -118.90352,171.97247 -119.02894,171.97247 C -119.31102,171.97393 -119.56185,171.82351 -119.78143,171.52123 C -120.00101,171.21894 -120.11684,170.75603 -120.12892,170.13249 C -120.12622,169.77521 -120.09663,169.4898 -120.04017,169.27626 C -119.98372,169.06272 -119.91663,168.90481 -119.83893,168.80251 C -119.67705,168.57606 -119.50831,168.43398 -119.33268,168.37627 C -119.15706,168.31856 -119.01581,168.29398 -118.90894,168.30252 C -118.73019,168.30315 -118.5752,168.3344 -118.44394,168.39627 C -118.3127,168.45814 -118.1977,168.54689 -118.09895,168.66251 C -118.03062,168.73564 -117.98479,168.80689 -117.96145,168.87626 C -117.93812,168.94564 -117.92729,169.05439 -117.92895,169.20251 L -117.92895,171.10248 z M -118.03895,171.83947 C -118.01295,171.81858 -117.98695,171.80712 -117.96095,171.8051 C -117.93495,171.80308 -117.92095,171.81887 -117.91895,171.85247 C -117.91437,171.98205 -117.89604,172.11039 -117.86395,172.23747 C -117.83187,172.36455 -117.81354,172.43288 -117.80895,172.44246 C -117.77104,172.45684 -117.73937,172.46309 -117.71395,172.46121 C -117.68854,172.45934 -117.65687,172.45309 -117.61895,172.44246 C -117.51042,172.35142 -117.3575,172.27101 -117.16021,172.20122 C -116.96293,172.13143 -116.71251,172.07851 -116.40897,172.04247 C -116.37898,172.00872 -116.36398,171.96372 -116.36397,171.90747 C -116.36398,171.85122 -116.37898,171.80622 -116.40897,171.77247 C -116.71939,171.75081 -116.92105,171.68414 -117.01396,171.57248 C -117.10688,171.46081 -117.14855,171.28415 -117.13896,171.04248 L -117.13896,166.51254 C -117.1373,166.18443 -117.13063,165.92818 -117.11896,165.7438 C -117.1073,165.55943 -117.10063,165.46569 -117.09896,165.46255 C -117.0973,165.39423 -117.14063,165.3609 -117.22896,165.36256 C -117.37167,165.41569 -117.58625,165.46944 -117.8727,165.5238 C -118.15916,165.57818 -118.41124,165.61443 -118.62894,165.63255 C -118.63894,165.67631 -118.63894,165.72881 -118.62894,165.79005 C -118.61894,165.85131 -118.59894,165.89881 -118.56894,165.93255 C -118.31478,165.92735 -118.14312,165.96276 -118.05395,166.0388 C -117.96479,166.11484 -117.92312,166.35276 -117.92895,166.75254 L -117.92895,168.03252 C -117.92833,168.0669 -117.93458,168.09065 -117.9477,168.10377 C -117.96083,168.1169 -117.98458,168.12315 -118.01895,168.12252 C -118.04833,168.11544 -118.14208,168.08711 -118.3002,168.03752 C -118.45832,167.98794 -118.62457,167.95961 -118.79894,167.95252 C -119.12519,167.95378 -119.40768,168.00628 -119.64643,168.11002 C -119.88518,168.21377 -120.10267,168.36127 -120.29892,168.55251 C -120.51579,168.76772 -120.68454,169.0223 -120.80516,169.31625 C -120.92579,169.61021 -120.98704,169.94229 -120.98891,170.31249 C -120.98558,170.93936 -120.83725,171.4481 -120.54392,171.83872 C -120.25059,172.22934 -119.83226,172.43059 -119.28893,172.44246 C -119.09685,172.44253 -118.90102,172.3924 -118.70144,172.29209 C -118.50186,172.19178 -118.28103,172.04091 -118.03895,171.83947 L -118.03895,171.83947 z M -115.42032,166.35254 C -115.41532,166.48796 -115.36533,166.60713 -115.27033,166.71004 C -115.17533,166.81296 -115.06533,166.86712 -114.94033,166.87254 C -114.79617,166.86573 -114.6745,166.8121 -114.57534,166.71166 C -114.47617,166.61123 -114.42451,166.50486 -114.42034,166.39254 C -114.42346,166.26588 -114.46971,166.14922 -114.55909,166.04255 C -114.64846,165.93589 -114.76221,165.87922 -114.90033,165.87255 C -115.027,165.87756 -115.14366,165.92755 -115.25033,166.02255 C -115.35699,166.11755 -115.41366,166.22755 -115.42032,166.35254 L -115.42032,166.35254 z M -114.51034,171.12248 L -114.51034,169.12951 C -114.50867,168.8647 -114.502,168.61308 -114.49034,168.37464 C -114.47867,168.13621 -114.472,168.00884 -114.47034,167.99252 C -114.47075,167.97211 -114.48242,167.95544 -114.50534,167.94252 C -114.52825,167.92961 -114.55992,167.92294 -114.60033,167.92252 C -114.73898,167.97711 -114.91669,168.02794 -115.13345,168.07502 C -115.35022,168.12211 -115.62918,168.16794 -115.97032,168.21252 C -115.97948,168.24669 -115.98115,168.29336 -115.97532,168.35252 C -115.96948,168.41169 -115.96115,168.45835 -115.95032,168.49252 C -115.6848,168.50754 -115.50834,168.556 -115.42095,168.63789 C -115.33356,168.71979 -115.29335,168.89799 -115.30033,169.17251 L -115.30033,171.12248 C -115.2922,171.52039 -115.33595,171.76956 -115.43157,171.86997 C -115.5272,171.97039 -115.72345,172.02455 -116.02032,172.03247 C -116.05032,172.06872 -116.06532,172.12372 -116.06532,172.19747 C -116.06532,172.27122 -116.05032,172.32622 -116.02032,172.36247 C -115.8174,172.35726 -115.63324,172.35267 -115.46782,172.34872 C -115.30241,172.34476 -115.11325,172.34267 -114.90033,172.34247 C -114.69284,172.34267 -114.50784,172.34476 -114.34534,172.34872 C -114.18284,172.35267 -113.99784,172.35726 -113.79035,172.36247 C -113.76035,172.32622 -113.74535,172.27122 -113.74535,172.19747 C -113.74535,172.12372 -113.76035,172.06872 -113.79035,172.03247 C -114.08722,172.02893 -114.28347,171.97601 -114.37909,171.87372 C -114.47471,171.77143 -114.51846,171.52102 -114.51034,171.12248 L -114.51034,171.12248 z M -110.67551,170.0125 L -110.67551,171.34248 C -110.67634,171.40644 -110.68968,171.45852 -110.71551,171.49873 C -110.74134,171.53893 -110.77467,171.57352 -110.8155,171.60248 C -110.94842,171.71227 -111.09259,171.81018 -111.248,171.89622 C -111.40342,171.98226 -111.55258,172.02768 -111.69549,172.03247 C -111.94424,172.02226 -112.12674,171.94268 -112.24299,171.79372 C -112.35924,171.64477 -112.41674,171.48769 -112.41548,171.32248 C -112.42203,171.09202 -112.35594,170.87694 -112.21724,170.67724 C -112.07853,170.47753 -111.82795,170.32595 -111.4655,170.22249 L -110.67551,170.0125 z M -110.67551,171.86247 C -110.65055,171.97851 -110.58147,172.10143 -110.46826,172.23122 C -110.35506,172.36101 -110.16747,172.43142 -109.90552,172.44246 C -109.65573,172.42684 -109.45282,172.35809 -109.29677,172.23622 C -109.14074,172.11434 -109.06032,172.03309 -109.05553,171.99247 C -109.05845,171.95476 -109.07511,171.91768 -109.10553,171.88122 C -109.13595,171.84476 -109.16261,171.82518 -109.18553,171.82247 C -109.2107,171.82914 -109.24336,171.85581 -109.28352,171.90247 C -109.3237,171.94914 -109.39436,171.9758 -109.49552,171.98247 C -109.68281,171.9758 -109.79823,171.89164 -109.84177,171.72997 C -109.88531,171.56831 -109.90323,171.36915 -109.89552,171.13248 L -109.89552,169.6425 C -109.91281,168.95085 -110.07323,168.49169 -110.37676,168.26502 C -110.6803,168.03836 -111.02321,167.93419 -111.4055,167.95252 C -111.83299,167.96503 -112.21049,168.08252 -112.53798,168.30502 C -112.86548,168.52752 -113.03798,168.78002 -113.05548,169.06251 C -113.05527,169.18209 -113.02569,169.27043 -112.96673,169.3275 C -112.90777,169.38459 -112.82069,169.41292 -112.70548,169.4125 C -112.56027,169.40688 -112.45069,169.36813 -112.37673,169.29625 C -112.30278,169.22438 -112.2657,169.15313 -112.26549,169.08251 C -112.26549,169.04689 -112.26799,169.01314 -112.27299,168.98126 C -112.27799,168.94939 -112.28549,168.92314 -112.29549,168.90251 C -112.3007,168.88793 -112.30528,168.8646 -112.30924,168.83251 C -112.3132,168.80043 -112.31528,168.7571 -112.31549,168.70251 C -112.30465,168.54939 -112.21382,168.44064 -112.04299,168.37627 C -111.87216,168.3119 -111.68633,168.28065 -111.4855,168.28252 C -111.303,168.26606 -111.1255,168.34148 -110.953,168.50877 C -110.78051,168.67606 -110.68801,169.03397 -110.67551,169.5825 C -110.67613,169.6175 -110.68238,169.645 -110.69426,169.665 C -110.70613,169.685 -110.71988,169.6975 -110.73551,169.7025 L -111.59549,169.9125 C -112.08424,170.03541 -112.47923,170.22208 -112.78048,170.47249 C -113.08173,170.7229 -113.23672,171.01957 -113.24547,171.36248 C -113.23672,171.7531 -113.11423,172.03184 -112.87798,172.19872 C -112.64173,172.36559 -112.34424,172.44684 -111.98549,172.44246 C -111.76633,172.44621 -111.58216,172.41871 -111.433,172.35997 C -111.28383,172.30122 -111.10467,172.18872 -110.8955,172.02247 L -110.69551,171.86247 L -110.67551,171.86247 z M -104.45518,173.94245 C -104.30202,173.66478 -104.16536,173.37812 -104.04519,173.08246 C -103.65282,172.13853 -103.32358,171.35742 -103.05745,170.73911 C -102.79133,170.12081 -102.53059,169.54194 -102.27521,169.00251 C -102.20334,168.85085 -102.09709,168.71168 -101.95647,168.58501 C -101.81585,168.45835 -101.6521,168.38419 -101.46522,168.36252 C -101.43523,168.32627 -101.42023,168.27127 -101.42022,168.19752 C -101.42023,168.12377 -101.43523,168.06877 -101.46522,168.03252 C -101.58668,168.03773 -101.70127,168.04232 -101.80897,168.04627 C -101.91668,168.05023 -102.03876,168.05232 -102.17521,168.05252 C -102.34313,168.05232 -102.4923,168.05023 -102.62271,168.04627 C -102.75313,168.04232 -102.90729,168.03773 -103.0852,168.03252 C -103.1152,168.06877 -103.1302,168.12377 -103.1302,168.19752 C -103.1302,168.27127 -103.1152,168.32627 -103.0852,168.36252 C -102.91714,168.37177 -102.77802,168.40527 -102.66783,168.46302 C -102.55765,168.52077 -102.53677,168.63727 -102.60521,168.81251 L -103.59719,171.10248 C -103.63247,171.18488 -103.67043,171.22809 -103.71107,171.23211 C -103.75172,171.23613 -103.79342,171.18959 -103.83619,171.09248 L -104.72318,169.01251 C -104.82658,168.80381 -104.87103,168.64873 -104.85655,168.54726 C -104.84208,168.44581 -104.68829,168.38423 -104.39518,168.36252 C -104.36519,168.32627 -104.35019,168.27127 -104.35018,168.19752 C -104.35019,168.12377 -104.36519,168.06877 -104.39518,168.03252 C -104.58164,168.03773 -104.77122,168.04232 -104.96393,168.04627 C -105.15663,168.05023 -105.34372,168.05232 -105.52517,168.05252 C -105.86517,168.05086 -106.13516,168.04419 -106.33516,168.03252 C -106.36516,168.06877 -106.38016,168.12377 -106.38016,168.19752 C -106.38016,168.27127 -106.36516,168.32627 -106.33516,168.36252 C -106.12866,168.37146 -105.97691,168.42183 -105.87992,168.51364 C -105.78292,168.60546 -105.67167,168.80508 -105.54617,169.11251 L -104.41518,171.74247 C -104.36504,171.85208 -104.31833,171.99887 -104.27506,172.18284 C -104.23179,172.36682 -104.23183,172.53336 -104.27519,172.68246 C -104.33412,172.84754 -104.39525,173.00387 -104.45856,173.15146 C -104.52187,173.29904 -104.59075,173.44937 -104.66518,173.60245 C -104.71852,173.70203 -104.78435,173.77536 -104.86268,173.82245 C -104.94101,173.86953 -105.04184,173.89286 -105.16517,173.89245 C -105.23163,173.89119 -105.28372,173.88619 -105.32142,173.87745 C -105.35913,173.86869 -105.40371,173.86369 -105.45517,173.86245 C -105.60038,173.87224 -105.70996,173.92765 -105.78392,174.02869 C -105.85787,174.12973 -105.89496,174.21765 -105.89516,174.29244 C -105.89246,174.39973 -105.84787,174.48764 -105.76142,174.55619 C -105.67496,174.62473 -105.56288,174.66014 -105.42517,174.66244 C -105.31538,174.67243 -105.17247,174.63243 -104.99643,174.54244 C -104.82039,174.45244 -104.63997,174.25244 -104.45518,173.94245 L -104.45518,173.94245 z M -98.409881,170.0125 L -98.409881,171.34248 C -98.410718,171.40644 -98.424051,171.45852 -98.449881,171.49873 C -98.475717,171.53893 -98.50905,171.57352 -98.54988,171.60248 C -98.682798,171.71227 -98.826962,171.81018 -98.982374,171.89622 C -99.137791,171.98226 -99.286956,172.02768 -99.429868,172.03247 C -99.678617,172.02226 -99.861114,171.94268 -99.977361,171.79372 C -100.09361,171.64477 -100.15111,171.48769 -100.14986,171.32248 C -100.1564,171.09202 -100.09032,170.87694 -99.951612,170.67724 C -99.812907,170.47753 -99.562327,170.32595 -99.199871,170.22249 L -98.409881,170.0125 z M -98.409881,171.86247 C -98.384927,171.97851 -98.315844,172.10143 -98.202634,172.23122 C -98.08943,172.36101 -97.90185,172.43142 -97.639891,172.44246 C -97.390107,172.42684 -97.187193,172.35809 -97.031149,172.23622 C -96.875114,172.11434 -96.794698,172.03309 -96.789902,171.99247 C -96.792823,171.95476 -96.80949,171.91768 -96.839902,171.88122 C -96.870323,171.84476 -96.896989,171.82518 -96.919901,171.82247 C -96.945071,171.82914 -96.977738,171.85581 -97.017899,171.90247 C -97.05807,171.94914 -97.128736,171.9758 -97.229897,171.98247 C -97.41719,171.9758 -97.532605,171.89164 -97.576142,171.72997 C -97.619687,171.56831 -97.637604,171.36915 -97.629892,171.13248 L -97.629892,169.6425 C -97.647187,168.95085 -97.807601,168.49169 -98.111136,168.26502 C -98.414676,168.03836 -98.757588,167.93419 -99.139872,167.95252 C -99.567368,167.96503 -99.944863,168.08252 -100.27236,168.30502 C -100.59985,168.52752 -100.77235,168.78002 -100.78985,169.06251 C -100.78964,169.18209 -100.76006,169.27043 -100.7011,169.3275 C -100.64215,169.38459 -100.55506,169.41292 -100.43986,169.4125 C -100.29465,169.40688 -100.18507,169.36813 -100.11111,169.29625 C -100.03715,169.22438 -100.00007,169.15313 -99.999861,169.08251 C -99.999862,169.04689 -100.00236,169.01314 -100.00736,168.98126 C -100.01236,168.94939 -100.01986,168.92314 -100.02986,168.90251 C -100.03507,168.88793 -100.03965,168.8646 -100.04361,168.83251 C -100.04757,168.80043 -100.04965,168.7571 -100.04986,168.70251 C -100.03903,168.54939 -99.948196,168.44064 -99.777364,168.37627 C -99.606534,168.3119 -99.420704,168.28065 -99.219871,168.28252 C -99.037376,168.26606 -98.859878,168.34148 -98.687378,168.50877 C -98.514883,168.67606 -98.422384,169.03397 -98.409881,169.5825 C -98.410509,169.6175 -98.416759,169.645 -98.428631,169.665 C -98.440509,169.685 -98.454259,169.6975 -98.469881,169.7025 L -99.32987,169.9125 C -99.818615,170.03541 -100.21361,170.22208 -100.51485,170.47249 C -100.8161,170.7229 -100.9711,171.01957 -100.97985,171.36248 C -100.9711,171.7531 -100.8486,172.03184 -100.61235,172.19872 C -100.37611,172.36559 -100.07861,172.44684 -99.719865,172.44246 C -99.500703,172.44621 -99.316539,172.41871 -99.167372,172.35997 C -99.018209,172.30122 -98.839045,172.18872 -98.629879,172.02247 L -98.429881,171.86247 L -98.409881,171.86247 z M -92.369556,169.06251 C -92.173123,168.86862 -91.99225,168.72191 -91.826938,168.62239 C -91.66163,168.52287 -91.502507,168.47292 -91.349569,168.47252 C -91.155824,168.46856 -90.998327,168.53648 -90.877075,168.67626 C -90.75583,168.81606 -90.693331,169.05147 -90.689577,169.3825 L -90.689577,171.12248 C -90.681664,171.51664 -90.717497,171.76581 -90.797076,171.86997 C -90.876662,171.97414 -91.047493,172.0283 -91.309569,172.03247 C -91.334572,172.06872 -91.347072,172.12372 -91.347069,172.19747 C -91.347072,172.27122 -91.334572,172.32622 -91.309569,172.36247 C -91.108325,172.35726 -90.935828,172.35267 -90.792076,172.34872 C -90.648331,172.34476 -90.480834,172.34267 -90.289582,172.34247 C -90.096256,172.34267 -89.935425,172.34476 -89.807089,172.34872 C -89.678762,172.35267 -89.512931,172.35726 -89.309595,172.36247 C -89.284601,172.32622 -89.272101,172.27122 -89.272096,172.19747 C -89.2721,172.12372 -89.2846,172.06872 -89.309595,172.03247 C -89.55293,172.0283 -89.713761,171.97414 -89.792089,171.86997 C -89.870426,171.76581 -89.906259,171.51664 -89.899588,171.12248 L -89.899588,169.5325 C -89.899384,169.46209 -89.8998,169.39292 -89.900838,169.325 C -89.901884,169.25709 -89.9048,169.19293 -89.909587,169.13251 C -89.67147,168.87314 -89.450223,168.69689 -89.245846,168.60376 C -89.041479,168.51064 -88.842732,168.46689 -88.649604,168.47252 C -88.457529,168.46773 -88.306697,168.53231 -88.19711,168.66626 C -88.087534,168.80022 -88.031701,169.0323 -88.029612,169.3625 L -88.029612,171.12248 C -88.022951,171.51664 -88.061284,171.76581 -88.14461,171.86997 C -88.227949,171.97414 -88.39628,172.0283 -88.649604,172.03247 C -88.674609,172.06872 -88.687109,172.12372 -88.687103,172.19747 C -88.687109,172.27122 -88.674609,172.32622 -88.649604,172.36247 C -88.448362,172.35726 -88.275864,172.35267 -88.13211,172.34872 C -87.988368,172.34476 -87.820871,172.34267 -87.629617,172.34247 C -87.43421,172.34267 -87.265045,172.34476 -87.122123,172.34872 C -86.979216,172.35267 -86.805051,172.35726 -86.59963,172.36247 C -86.574638,172.32622 -86.562138,172.27122 -86.56213,172.19747 C -86.562138,172.12372 -86.574638,172.06872 -86.59963,172.03247 C -86.866926,172.0283 -87.04234,171.97414 -87.125873,171.86997 C -87.209421,171.76581 -87.247337,171.51664 -87.239622,171.12248 L -87.239622,169.5425 C -87.228379,169.08689 -87.293378,168.71064 -87.434619,168.41377 C -87.575874,168.1169 -87.86087,167.96315 -88.289608,167.95252 C -88.547298,167.9489 -88.81117,168.00315 -89.081223,168.11527 C -89.351287,168.2274 -89.617408,168.41915 -89.879588,168.69051 C -89.89605,168.70972 -89.915633,168.72381 -89.938337,168.73276 C -89.961049,168.74172 -89.978132,168.72631 -89.989586,168.68651 C -90.040319,168.47656 -90.153859,168.30298 -90.330207,168.16577 C -90.506563,168.02857 -90.726351,167.95748 -90.989573,167.95252 C -91.276656,167.95753 -91.537486,168.03503 -91.772064,168.18502 C -92.006646,168.33502 -92.232476,168.52752 -92.449555,168.76251 C -92.468952,168.78702 -92.48966,168.80901 -92.511679,168.82851 C -92.533701,168.84801 -92.545659,168.82601 -92.547553,168.76251 C -92.545555,168.5996 -92.537555,168.43544 -92.523554,168.27002 C -92.509556,168.10461 -92.501556,168.01544 -92.499554,168.00252 C -92.499556,167.95086 -92.539555,167.92419 -92.619552,167.92252 C -92.758615,167.97711 -92.937987,168.02794 -93.157671,168.07502 C -93.377356,168.12211 -93.657977,168.16794 -93.999535,168.21252 C -94.008702,168.24669 -94.010368,168.29336 -94.004535,168.35252 C -93.998702,168.41169 -93.990369,168.45835 -93.979535,168.49252 C -93.714018,168.50691 -93.537562,168.55412 -93.450167,168.63414 C -93.362773,168.71416 -93.322565,168.89362 -93.329543,169.17251 L -93.329543,171.12248 C -93.323503,171.51664 -93.368086,171.76581 -93.463292,171.86997 C -93.5585,171.97414 -93.74058,172.0283 -94.009535,172.03247 C -94.039535,172.06872 -94.054534,172.12372 -94.054534,172.19747 C -94.054534,172.27122 -94.039534,172.32622 -94.009535,172.36247 C -93.812038,172.35726 -93.63454,172.35267 -93.477042,172.34872 C -93.319545,172.34476 -93.137047,172.34267 -92.929549,172.34247 C -92.744073,172.34267 -92.583284,172.34476 -92.44718,172.34872 C -92.31108,172.35267 -92.14254,172.35726 -91.941561,172.36247 C -91.911564,172.32622 -91.896564,172.27122 -91.896562,172.19747 C -91.896564,172.12372 -91.911564,172.06872 -91.941561,172.03247 C -92.188727,172.02393 -92.351891,171.96851 -92.431055,171.86622 C -92.510223,171.76393 -92.546389,171.51602 -92.539554,171.12248 L -92.539554,169.4825 C -92.537472,169.37857 -92.519139,169.2932 -92.484554,169.22638 C -92.449973,169.15957 -92.41164,169.10495 -92.369556,169.06251 L -92.369556,169.06251 z M -83.5466,170.0125 L -83.5466,171.34248 C -83.547436,171.40644 -83.56077,171.45852 -83.5866,171.49873 C -83.612436,171.53893 -83.645768,171.57352 -83.686598,171.60248 C -83.819516,171.71227 -83.963681,171.81018 -84.119093,171.89622 C -84.27451,171.98226 -84.423674,172.02768 -84.566587,172.03247 C -84.815336,172.02226 -84.997833,171.94268 -85.11408,171.79372 C -85.23033,171.64477 -85.287829,171.48769 -85.286578,171.32248 C -85.293121,171.09202 -85.227038,170.87694 -85.08833,170.67724 C -84.949625,170.47753 -84.699045,170.32595 -84.33659,170.22249 L -83.5466,170.0125 z M -83.5466,171.86247 C -83.521645,171.97851 -83.452563,172.10143 -83.339353,172.23122 C -83.226149,172.36101 -83.038568,172.43142 -82.77661,172.44246 C -82.526826,172.42684 -82.323912,172.35809 -82.167868,172.23622 C -82.011833,172.11434 -81.931417,172.03309 -81.926621,171.99247 C -81.929542,171.95476 -81.946209,171.91768 -81.97662,171.88122 C -82.007041,171.84476 -82.033708,171.82518 -82.056619,171.82247 C -82.08179,171.82914 -82.114456,171.85581 -82.154618,171.90247 C -82.194789,171.94914 -82.265454,171.9758 -82.366615,171.98247 C -82.553909,171.9758 -82.669324,171.89164 -82.712861,171.72997 C -82.756406,171.56831 -82.774322,171.36915 -82.76661,171.13248 L -82.76661,169.6425 C -82.783905,168.95085 -82.94432,168.49169 -83.247854,168.26502 C -83.551395,168.03836 -83.894307,167.93419 -84.276591,167.95252 C -84.704087,167.96503 -85.081582,168.08252 -85.409077,168.30502 C -85.736573,168.52752 -85.909071,168.78002 -85.92657,169.06251 C -85.926362,169.18209 -85.896779,169.27043 -85.837821,169.3275 C -85.778864,169.38459 -85.691782,169.41292 -85.576574,169.4125 C -85.431369,169.40688 -85.321787,169.36813 -85.247828,169.29625 C -85.173872,169.22438 -85.13679,169.15313 -85.13658,169.08251 C -85.136581,169.04689 -85.139081,169.01314 -85.14408,168.98126 C -85.149081,168.94939 -85.156581,168.92314 -85.166579,168.90251 C -85.171789,168.88793 -85.176372,168.8646 -85.180329,168.83251 C -85.184289,168.80043 -85.186372,168.7571 -85.186579,168.70251 C -85.175747,168.54939 -85.084915,168.44064 -84.914083,168.37627 C -84.743253,168.3119 -84.557422,168.28065 -84.35659,168.28252 C -84.174095,168.26606 -83.996597,168.34148 -83.824097,168.50877 C -83.651602,168.67606 -83.559103,169.03397 -83.5466,169.5825 C -83.547228,169.6175 -83.553478,169.645 -83.56535,169.665 C -83.577228,169.685 -83.590978,169.6975 -83.606599,169.7025 L -84.466588,169.9125 C -84.955334,170.03541 -85.350328,170.22208 -85.651573,170.47249 C -85.95282,170.7229 -86.107818,171.01957 -86.116567,171.36248 C -86.107818,171.7531 -85.985319,172.03184 -85.749072,172.19872 C -85.512826,172.36559 -85.21533,172.44684 -84.856583,172.44246 C -84.637422,172.44621 -84.453257,172.41871 -84.304091,172.35997 C -84.154928,172.30122 -83.975764,172.18872 -83.766597,172.02247 L -83.5666,171.86247 L -83.5466,171.86247 z M -80.236272,169.4835 C -80.23419,169.37909 -80.215857,169.29342 -80.181272,169.22651 C -80.146691,169.15959 -80.108358,169.10493 -80.066274,169.06251 C -79.87382,168.87474 -79.672239,168.72979 -79.461532,168.62764 C -79.250829,168.5255 -79.045748,168.47379 -78.846289,168.47252 C -78.742211,168.47321 -78.642879,168.50458 -78.548293,168.56664 C -78.453715,168.62871 -78.376382,168.71733 -78.316296,168.83251 C -78.26755,168.93247 -78.235051,169.04805 -78.218797,169.17926 C -78.202551,169.31047 -78.195052,169.45155 -78.196298,169.6025 L -78.196298,171.12248 C -78.189635,171.51602 -78.227968,171.76393 -78.311296,171.86622 C -78.394632,171.96851 -78.562963,172.02393 -78.81629,172.03247 C -78.841293,172.06872 -78.853792,172.12372 -78.853789,172.19747 C -78.853792,172.27122 -78.841292,172.32622 -78.81629,172.36247 C -78.615046,172.35726 -78.442548,172.35267 -78.298796,172.34872 C -78.155052,172.34476 -77.987554,172.34267 -77.796303,172.34247 C -77.599643,172.34267 -77.425479,172.34476 -77.27381,172.34872 C -77.12215,172.35267 -76.942986,172.35726 -76.736317,172.36247 C -76.711322,172.32622 -76.698822,172.27122 -76.698817,172.19747 C -76.698822,172.12372 -76.711322,172.06872 -76.736317,172.03247 C -77.009235,172.02393 -77.190899,171.96851 -77.28131,171.86622 C -77.37173,171.76393 -77.413396,171.51602 -77.406308,171.12248 L -77.406308,169.6325 C -77.403,169.35511 -77.418875,169.10116 -77.453932,168.87064 C -77.488999,168.64012 -77.563123,168.44742 -77.676304,168.29252 C -77.762516,168.18211 -77.878098,168.09794 -78.02305,168.04002 C -78.16801,167.98211 -78.329091,167.95294 -78.506294,167.95252 C -78.751315,167.94378 -79.00977,167.99378 -79.281659,168.10252 C -79.553554,168.21127 -79.841758,168.43127 -80.146273,168.76251 C -80.165232,168.78745 -80.185816,168.80958 -80.208022,168.82889 C -80.230232,168.8482 -80.242315,168.82608 -80.244271,168.76251 L -80.236272,166.51254 C -80.233732,166.18443 -80.226815,165.92818 -80.215522,165.7438 C -80.204232,165.55943 -80.197815,165.46569 -80.196272,165.46255 C -80.194607,165.39423 -80.23794,165.3609 -80.32627,165.36256 C -80.468978,165.41569 -80.683559,165.46944 -80.970012,165.5238 C -81.256468,165.57818 -81.508547,165.61443 -81.726252,165.63255 C -81.736252,165.67631 -81.736252,165.72881 -81.726252,165.79005 C -81.716253,165.85131 -81.696253,165.89881 -81.666253,165.93255 C -81.41209,165.92735 -81.240426,165.96276 -81.15126,166.0388 C -81.062095,166.11484 -81.020429,166.35276 -81.026261,166.75254 L -81.026261,171.12248 C -81.019096,171.52102 -81.062928,171.77143 -81.15776,171.87372 C -81.252593,171.97601 -81.441423,172.02893 -81.724252,172.03247 C -81.754252,172.06872 -81.769252,172.12372 -81.769252,172.19747 C -81.769252,172.27122 -81.754252,172.32622 -81.724252,172.36247 C -81.52513,172.35726 -81.344383,172.35267 -81.182009,172.34872 C -81.019637,172.34476 -80.83439,172.34267 -80.626266,172.34247 C -80.440791,172.34267 -80.280002,172.34476 -80.143898,172.34872 C -80.007797,172.35267 -79.839258,172.35726 -79.638279,172.36247 C -79.608282,172.32622 -79.593282,172.27122 -79.59328,172.19747 C -79.593282,172.12372 -79.608282,172.06872 -79.638279,172.03247 C -79.885445,172.02893 -80.048609,171.97601 -80.127773,171.87372 C -80.206941,171.77143 -80.243107,171.52102 -80.236272,171.12248 L -80.236272,169.4835 z M -73.663788,170.0125 L -73.663788,171.34248 C -73.664624,171.40644 -73.677957,171.45852 -73.703787,171.49873 C -73.729623,171.53893 -73.762956,171.57352 -73.803786,171.60248 C -73.936704,171.71227 -74.080869,171.81018 -74.236281,171.89622 C -74.391697,171.98226 -74.540862,172.02768 -74.683775,172.03247 C -74.932523,172.02226 -75.115021,171.94268 -75.231268,171.79372 C -75.347517,171.64477 -75.405017,171.48769 -75.403765,171.32248 C -75.410308,171.09202 -75.344226,170.87694 -75.205518,170.67724 C -75.066813,170.47753 -74.816233,170.32595 -74.453778,170.22249 L -73.663788,170.0125 z M -73.663788,171.86247 C -73.638833,171.97851 -73.56975,172.10143 -73.45654,172.23122 C -73.343337,172.36101 -73.155756,172.43142 -72.893798,172.44246 C -72.644013,172.42684 -72.441099,172.35809 -72.285056,172.23622 C -72.12902,172.11434 -72.048605,172.03309 -72.043809,171.99247 C -72.04673,171.95476 -72.063396,171.91768 -72.093808,171.88122 C -72.124229,171.84476 -72.150895,171.82518 -72.173807,171.82247 C -72.198978,171.82914 -72.231644,171.85581 -72.271806,171.90247 C -72.311976,171.94914 -72.382642,171.9758 -72.483803,171.98247 C -72.671096,171.9758 -72.786511,171.89164 -72.830049,171.72997 C -72.873594,171.56831 -72.89151,171.36915 -72.883798,171.13248 L -72.883798,169.6425 C -72.901093,168.95085 -73.061507,168.49169 -73.365042,168.26502 C -73.668583,168.03836 -74.011494,167.93419 -74.393778,167.95252 C -74.821275,167.96503 -75.19877,168.08252 -75.526264,168.30502 C -75.853761,168.52752 -76.026258,168.78002 -76.043757,169.06251 C -76.043549,169.18209 -76.013966,169.27043 -75.955008,169.3275 C -75.896051,169.38459 -75.808969,169.41292 -75.693762,169.4125 C -75.548556,169.40688 -75.438974,169.36813 -75.365016,169.29625 C -75.29106,169.22438 -75.253977,169.15313 -75.253767,169.08251 C -75.253769,169.04689 -75.256269,169.01314 -75.261267,168.98126 C -75.266268,168.94939 -75.273768,168.92314 -75.283767,168.90251 C -75.288977,168.88793 -75.29356,168.8646 -75.297517,168.83251 C -75.301476,168.80043 -75.30356,168.7571 -75.303767,168.70251 C -75.292935,168.54939 -75.202103,168.44064 -75.03127,168.37627 C -74.860441,168.3119 -74.67461,168.28065 -74.473777,168.28252 C -74.291282,168.26606 -74.113785,168.34148 -73.941284,168.50877 C -73.768789,168.67606 -73.676291,169.03397 -73.663788,169.5825 C -73.664416,169.6175 -73.670665,169.645 -73.682537,169.665 C -73.694415,169.685 -73.708165,169.6975 -73.723787,169.7025 L -74.583776,169.9125 C -75.072521,170.03541 -75.467516,170.22208 -75.768761,170.47249 C -76.070007,170.7229 -76.225005,171.01957 -76.233755,171.36248 C -76.225005,171.7531 -76.102507,172.03184 -75.866259,172.19872 C -75.630013,172.36559 -75.332517,172.44684 -74.973771,172.44246 C -74.754609,172.44621 -74.570445,172.41871 -74.421278,172.35997 C -74.272116,172.30122 -74.092951,172.18872 -73.883785,172.02247 L -73.683787,171.86247 L -73.663788,171.86247 z M -71.07345,171.12248 C -71.065326,171.52164 -71.109075,171.77331 -71.204698,171.87747 C -71.300323,171.98164 -71.49657,172.0333 -71.79344,172.03247 C -71.82344,172.06872 -71.83844,172.12372 -71.83844,172.19747 C -71.83844,172.27122 -71.82344,172.32622 -71.79344,172.36247 C -71.590527,172.35726 -71.406363,172.35267 -71.240948,172.34872 C -71.075534,172.34476 -70.88637,172.34267 -70.673455,172.34247 C -70.465959,172.34267 -70.280962,172.34476 -70.118462,172.34872 C -69.955966,172.35267 -69.770969,172.35726 -69.563469,172.36247 C -69.533472,172.32622 -69.518473,172.27122 -69.51847,172.19747 C -69.518472,172.12372 -69.533472,172.06872 -69.563469,172.03247 C -69.860343,172.0333 -70.05659,171.98164 -70.152212,171.87747 C -70.247837,171.77331 -70.291587,171.52164 -70.28346,171.12248 L -70.28346,166.51254 C -70.281795,166.18443 -70.275128,165.92818 -70.26346,165.7438 C -70.251796,165.55943 -70.245129,165.46569 -70.24346,165.46255 C -70.241795,165.39423 -70.285128,165.3609 -70.373459,165.36256 C -70.516167,165.41569 -70.730747,165.46944 -71.017201,165.5238 C -71.303656,165.57818 -71.555736,165.61443 -71.773441,165.63255 C -71.783441,165.67631 -71.783441,165.72881 -71.773441,165.79005 C -71.763441,165.85131 -71.743441,165.89881 -71.713441,165.93255 C -71.459279,165.92735 -71.287614,165.96276 -71.198448,166.0388 C -71.109284,166.11484 -71.067618,166.35276 -71.07345,166.75254 L -71.07345,171.12248 z M -66.456756,170.0125 L -66.456756,171.34248 C -66.457593,171.40644 -66.470926,171.45852 -66.496756,171.49873 C -66.522592,171.53893 -66.555925,171.57352 -66.596755,171.60248 C -66.729673,171.71227 -66.873837,171.81018 -67.029249,171.89622 C -67.184666,171.98226 -67.333831,172.02768 -67.476743,172.03247 C -67.725492,172.02226 -67.907989,171.94268 -68.024236,171.79372 C -68.140486,171.64477 -68.197985,171.48769 -68.196734,171.32248 C -68.203277,171.09202 -68.137194,170.87694 -67.998487,170.67724 C -67.859782,170.47753 -67.609202,170.32595 -67.246746,170.22249 L -66.456756,170.0125 z M -66.456756,171.86247 C -66.431802,171.97851 -66.362719,172.10143 -66.249509,172.23122 C -66.136305,172.36101 -65.948725,172.43142 -65.686766,172.44246 C -65.436982,172.42684 -65.234068,172.35809 -65.078024,172.23622 C -64.921989,172.11434 -64.841573,172.03309 -64.836777,171.99247 C -64.839698,171.95476 -64.856365,171.91768 -64.886777,171.88122 C -64.917198,171.84476 -64.943864,171.82518 -64.966776,171.82247 C -64.991946,171.82914 -65.024613,171.85581 -65.064774,171.90247 C -65.104945,171.94914 -65.175611,171.9758 -65.276772,171.98247 C -65.464065,171.9758 -65.57948,171.89164 -65.623017,171.72997 C -65.666562,171.56831 -65.684479,171.36915 -65.676767,171.13248 L -65.676767,169.6425 C -65.694062,168.95085 -65.854476,168.49169 -66.158011,168.26502 C -66.461551,168.03836 -66.804463,167.93419 -67.186747,167.95252 C -67.614243,167.96503 -67.991738,168.08252 -68.319233,168.30502 C -68.646729,168.52752 -68.819227,168.78002 -68.836726,169.06251 C -68.836518,169.18209 -68.806935,169.27043 -68.747977,169.3275 C -68.68902,169.38459 -68.601938,169.41292 -68.48673,169.4125 C -68.341525,169.40688 -68.231943,169.36813 -68.157985,169.29625 C -68.084029,169.22438 -68.046946,169.15313 -68.046736,169.08251 C -68.046737,169.04689 -68.049237,169.01314 -68.054236,168.98126 C -68.059237,168.94939 -68.066737,168.92314 -68.076736,168.90251 C -68.081945,168.88793 -68.086529,168.8646 -68.090486,168.83251 C -68.094445,168.80043 -68.096528,168.7571 -68.096735,168.70251 C -68.085904,168.54939 -67.995071,168.44064 -67.824239,168.37627 C -67.653409,168.3119 -67.467579,168.28065 -67.266746,168.28252 C -67.084251,168.26606 -66.906753,168.34148 -66.734253,168.50877 C -66.561758,168.67606 -66.469259,169.03397 -66.456756,169.5825 C -66.457384,169.6175 -66.463634,169.645 -66.475506,169.665 C -66.487384,169.685 -66.501134,169.6975 -66.516756,169.7025 L -67.376745,169.9125 C -67.86549,170.03541 -68.260485,170.22208 -68.56173,170.47249 C -68.862976,170.7229 -69.017974,171.01957 -69.026723,171.36248 C -69.017974,171.7531 -68.895475,172.03184 -68.659228,172.19872 C -68.422982,172.36559 -68.125486,172.44684 -67.76674,172.44246 C -67.547578,172.44621 -67.363414,172.41871 -67.214247,172.35997 C -67.065084,172.30122 -66.88592,172.18872 -66.676754,172.02247 L -66.476756,171.86247 L -66.456756,171.86247 z" id="flowRoot5316"></path></svg>
