<?xml version="1.0" encoding="UTF-8" standalone="no"?>
<svg
	xmlns="http://www.w3.org/2000/svg"
	xmlns:dc="http://purl.org/dc/elements/1.1/"
	xmlns:cc="http://creativecommons.org/ns#"
	xmlns:rdf="http://www.w3.org/1999/02/22-rdf-syntax-ns#"
	xmlns:svg="http://www.w3.org/2000/svg"
	xmlns:xlink="http://www.w3.org/1999/xlink"
	xmlns:sodipodi="http://sodipodi.sourceforge.net/DTD/sodipodi-0.dtd"
	xmlns:inkscape="http://www.inkscape.org/namespaces/inkscape"
	version="1.1"
	viewBox="0 0 135 155">
	<svg xmlns:svg="http://www.w3.org/2000/svg" version="1.1" width="135" height="155" viewBox="0 0 135 155" id="svg3857" xml:space="preserve" xmlns:xlink="http://www.w3.org/1999/xlink" xmlns:svgjs="http://svgjs.com/svgjs">
<defs id="defs3"></defs>

<g transform="matrix(1.0707917,0,0,1.2178271,-4.7466062,-36.973505)" id="g5574"><path d="M 8.0882792,151.04484 C 8.0807792,151.02534 8.0782382,150.95904 8.0826392,150.89771 L 8.0906392,150.78612 L 8.3448607,150.75452 C 8.7508085,150.70402 8.90112,150.60002 8.975058,150.31852 C 9.01721,150.15803 9.039515,145.73486 9.000344,145.30394 C 8.958696,144.84576 8.8742791,144.72477 8.5415992,144.64646 C 8.4623132,144.62776 8.3325186,144.61236 8.2531676,144.61216 C 8.1454516,144.61186 8.1049606,144.60156 8.0933742,144.57136 C 8.0719302,144.51546 8.0745902,144.34886 8.0974242,144.31778 C 8.1096862,144.30108 8.8573884,144.29218 10.251048,144.29218 C 11.42521,144.29218 12.431542,144.28618 12.487341,144.27958 L 12.588795,144.26698 L 12.631375,144.52249 C 12.719985,145.05427 12.817015,145.78715 12.800936,145.80323 C 12.776676,145.82753 12.573856,145.86153 12.537249,145.84753 C 12.520139,145.84053 12.469559,145.72995 12.424857,145.60083 C 12.204668,144.96489 11.985334,144.76382 11.453726,144.71056 C 11.308906,144.69606 10.951117,144.68806 10.658639,144.69276 C 10.053506,144.70276 10.032461,144.70906 9.9250733,144.91918 C 9.8679773,145.03092 9.8675473,145.04022 9.8675473,146.16407 L 9.8675473,147.29638 L 10.487546,147.29618 C 11.384414,147.2959 11.56899,147.25618 11.676159,147.04046 C 11.707659,146.97706 11.740679,146.85049 11.749529,146.75922 C 11.767449,146.57457 11.802019,146.52914 11.924178,146.52975 C 12.072728,146.5305 12.067523,146.49375 12.060237,147.48984 L 12.053537,148.40855 L 11.966907,148.41655 C 11.793623,148.43305 11.768157,148.41255 11.75278,148.24287 C 11.73614,148.05935 11.654,147.87796 11.555923,147.80812 C 11.406855,147.70198 11.227818,147.67962 10.526933,147.67962 L 9.8675633,147.67962 L 9.8675633,149.0227 C 9.8675633,150.49352 9.8655233,150.47231 10.019451,150.60183 L 10.101591,150.67093 L 10.975298,150.67063 C 11.923519,150.6703 11.999217,150.66163 12.245749,150.52759 C 12.518658,150.37906 12.794916,149.97531 12.948015,149.50124 C 13.014995,149.29384 13.017535,149.29031 13.099886,149.29031 C 13.145946,149.29031 13.220162,149.30301 13.264801,149.31861 C 13.340861,149.34511 13.344941,149.35271 13.329751,149.44005 C 13.286011,149.69132 13.105275,150.53698 13.042099,150.78598 L 12.970739,151.06722 L 10.53634,151.07422 C 8.476745,151.08022 8.0998388,151.07522 8.0882958,151.04522 L 8.0882958,151.04522 L 8.0882792,151.04484 z" id="path5520" style="fill:#000000;fill-opacity:1;fill-rule:nonzero;stroke:none"></path><path d="M 13.894342,151.00344 C 13.885042,150.96124 13.884842,150.89321 13.893862,150.85222 C 13.908712,150.78462 13.922512,150.77612 14.042903,150.76102 C 14.443224,150.71072 14.571793,150.6132 14.622266,150.32172 C 14.643836,150.19715 14.650126,149.74298 14.644156,148.74076 C 14.636656,147.47573 14.631426,147.32661 14.592346,147.25528 C 14.529416,147.14039 14.438577,147.09139 14.204265,147.04595 C 14.090053,147.02375 13.988155,146.99335 13.977824,146.97835 C 13.967494,146.96335 13.958864,146.90425 13.958644,146.84699 L 13.958253,146.74294 L 14.194747,146.71184 C 14.514067,146.66984 15.022484,146.56414 15.201041,146.50271 C 15.370302,146.44451 15.456063,146.43911 15.473882,146.48551 C 15.480882,146.50361 15.476982,146.61006 15.465182,146.722 C 15.437282,146.98832 15.435402,147.39852 15.462082,147.39852 C 15.473622,147.39852 15.603051,147.2803 15.749711,147.1358 C 16.258835,146.6342 16.650381,146.45892 17.204908,146.48438 C 17.844609,146.51378 18.13304,146.78571 18.255802,147.47522 C 18.274182,147.57847 18.291452,148.15942 18.301392,149.00924 C 18.317192,150.36015 18.318102,150.37851 18.374922,150.49381 C 18.446732,150.63953 18.565295,150.70979 18.803634,150.74787 C 18.901104,150.76347 18.989896,150.78987 19.000941,150.80677 C 19.011991,150.82357 19.018031,150.88907 19.014361,150.95237 L 19.007661,151.06742 L 17.930399,151.07442 L 16.853138,151.08142 L 16.841458,151.00182 C 16.815118,150.82237 16.875478,150.74849 17.048435,150.74849 C 17.086945,150.74849 17.177159,150.71929 17.248912,150.68349 C 17.493309,150.5617 17.510982,150.4497 17.510982,149.02273 C 17.510982,147.59608 17.488472,147.44793 17.233057,147.1934 C 17.046573,147.00756 16.919376,146.96747 16.657727,147.01205 C 16.461501,147.04545 16.229163,147.14338 16.036027,147.27401 C 15.822821,147.41821 15.595992,147.63043 15.523776,147.75328 L 15.453856,147.87222 L 15.445956,148.9716 C 15.435946,150.37189 15.457826,150.55389 15.65024,150.6709 C 15.69363,150.6973 15.805066,150.7321 15.897875,150.7483 C 16.082686,150.7805 16.1048,150.7987 16.105382,150.91903 C 16.106221,151.09258 16.186392,151.08091 14.992907,151.08091 L 13.911079,151.08091 L 13.894229,151.00421 L 13.894342,151.00344 z" id="path5522" style="fill:#000000;fill-opacity:1;fill-rule:nonzero;stroke:none"></path><path d="M 20.701144,151.15557 C 20.438819,151.09107 20.25603,150.91775 20.164433,150.64657 C 20.108663,150.48146 20.107833,150.45683 20.099983,148.72235 L 20.091983,146.96537 L 19.767153,146.95837 L 19.442323,146.95137 L 19.443323,146.81871 C 19.444923,146.60392 19.481663,146.58065 19.818849,146.58065 L 20.097973,146.58065 L 20.091973,145.95056 L 20.085973,145.32048 L 20.147633,145.27778 C 20.264751,145.19668 20.801908,144.96462 20.850678,144.9741 C 20.897878,144.9831 20.899238,145.0117 20.889458,145.78214 L 20.879318,146.58067 L 21.536241,146.58067 L 22.193163,146.58067 L 22.185563,146.73982 C 22.174813,146.96453 22.178663,146.96334 21.468468,146.9638 L 20.88682,146.96417 L 20.88682,148.4869 C 20.88682,149.46456 20.89687,150.07544 20.91491,150.19349 C 20.947,150.40354 21.018699,150.5511 21.108572,150.59205 C 21.262011,150.66195 21.620451,150.59405 21.904965,150.44011 C 22.008052,150.38451 22.106986,150.33901 22.12482,150.33901 C 22.16736,150.33901 22.24187,150.42231 22.24187,150.46993 C 22.24187,150.54963 21.875392,150.85349 21.630297,150.97708 C 21.330031,151.12849 20.914759,151.2084 20.701065,151.15588 L 20.701144,151.15557 z" id="path5524" style="fill:#000000;fill-opacity:1;fill-rule:nonzero;stroke:none"></path><path d="M 24.023157,151.15628 C 23.896512,151.14408 23.683668,151.10978 23.550169,151.07998 C 23.374665,151.04078 23.267452,151.03038 23.163044,151.04238 L 23.018645,151.05898 L 23.002975,150.78193 C 22.994375,150.62955 22.975275,150.31037 22.960575,150.07264 C 22.930635,149.58863 22.929655,149.59194 23.100308,149.60336 C 23.218447,149.61136 23.221157,149.61556 23.307317,149.92962 C 23.395747,150.25196 23.471835,150.41241 23.604542,150.55638 C 23.803214,150.77192 24.09819,150.87012 24.463874,150.84246 C 24.720781,150.82306 24.999534,150.69155 25.111495,150.53699 C 25.25961,150.33252 25.300082,150.05358 25.216651,149.81223 C 25.131321,149.56539 24.949422,149.40962 24.49631,149.19539 C 23.849862,148.88974 23.684888,148.80227 23.543888,148.69041 C 23.263683,148.46811 23.126174,148.21005 23.09446,147.84696 C 23.05781,147.42739 23.15561,147.15258 23.434394,146.89179 C 23.882616,146.4725 24.411743,146.39002 25.415136,146.58302 L 25.858076,146.66822 L 25.841516,146.87356 C 25.832416,146.9865 25.817826,147.22847 25.809106,147.41127 C 25.800406,147.59408 25.781916,147.75803 25.768046,147.7756 C 25.735316,147.8171 25.532365,147.8171 25.50136,147.7756 C 25.48822,147.758 25.46218,147.6804 25.4435,147.60303 C 25.35438,147.23418 25.193623,147.02218 24.899397,146.8855 C 24.738367,146.8107 24.68767,146.7993 24.518653,146.8003 C 23.962652,146.8033 23.657544,147.2605 23.844766,147.80996 C 23.920746,148.03296 24.204068,148.23398 24.726266,148.4354 C 25.617275,148.77907 26.007105,149.20406 26.00875,149.83354 C 26.01015,150.35319 25.770483,150.73557 25.307621,150.95237 C 24.900413,151.14309 24.517996,151.20381 24.023164,151.15629 L 24.023164,151.15629 L 24.023157,151.15628 z" id="path5526" style="fill:#000000;fill-opacity:1;fill-rule:nonzero;stroke:none"></path><path d="M 26.659548,151.03996 C 26.638118,150.98406 26.640588,150.84373 26.663648,150.80749 C 26.674068,150.79109 26.766737,150.76609 26.86959,150.75179 C 27.115064,150.71779 27.282748,150.63419 27.339331,150.51765 C 27.363221,150.46845 27.394781,150.35338 27.409451,150.26198 C 27.444481,150.04373 27.445541,147.60709 27.410651,147.42115 C 27.364921,147.17713 27.247411,147.08348 26.924192,147.03345 L 26.746153,147.00585 L 26.746153,146.87467 L 26.746153,146.74348 L 26.982648,146.71078 C 27.302658,146.66658 27.766732,146.56807 27.963742,146.50251 C 28.052682,146.47291 28.150633,146.45241 28.181416,146.45691 L 28.237386,146.46491 L 28.239586,148.42078 L 28.241786,150.37665 L 28.299316,150.49339 C 28.374036,150.64501 28.496137,150.71334 28.756259,150.7491 C 28.867031,150.7643 28.966987,150.7858 28.978384,150.7969 C 28.989784,150.8079 28.995534,150.8732 28.991164,150.94199 L 28.983264,151.067 L 27.829194,151.074 C 26.793431,151.08 26.673524,151.076 26.659507,151.04 L 26.659507,151.04 L 26.659548,151.03996 z" id="path5528" style="fill:#000000;fill-opacity:1;fill-rule:nonzero;stroke:none"></path><path d="M 27.628257,145.2618 C 27.586067,145.2399 27.524147,145.1968 27.490647,145.1661 C 27.415377,145.0971 27.309061,144.8768 27.309481,144.79068 C 27.310354,144.61176 27.516113,144.36834 27.717476,144.30801 C 28.045801,144.20961 28.407378,144.6224 28.281927,144.95236 C 28.245147,145.04916 28.10385,145.19739 27.996025,145.25239 C 27.87875,145.31219 27.732387,145.31599 27.628257,145.26139 L 27.628257,145.2618 z" id="path5530" style="fill:#000000;fill-opacity:1;fill-rule:nonzero;stroke:none"></path><path d="M 29.344088,151.03999 C 29.322708,150.98429 29.325088,150.84369 29.347988,150.80814 C 29.358318,150.79214 29.451524,150.76594 29.55511,150.74994 C 29.844736,150.70514 29.942102,150.63699 30.012351,150.4297 C 30.052421,150.31147 30.056881,150.0722 30.064301,147.64141 C 30.069601,145.91567 30.063201,144.9128 30.046081,144.78401 C 30.000131,144.43771 29.92137,144.36074 29.584983,144.33338 L 29.392342,144.31768 L 29.357822,144.20858 C 29.338832,144.14858 29.329022,144.08456 29.336012,144.06633 C 29.343912,144.04563 29.443585,144.02093 29.600638,144.00053 C 29.921228,143.95893 30.415032,143.85999 30.642087,143.79177 C 30.758669,143.75677 30.826595,143.74747 30.843435,143.76437 C 30.859985,143.78087 30.867205,144.62896 30.864135,146.19512 L 30.859435,148.60046 L 30.931255,148.56926 C 31.163117,148.46859 31.567193,148.12529 32.003924,147.65794 C 32.288459,147.35345 32.39472,147.19466 32.395908,147.07217 C 32.396616,146.99917 32.272866,146.92035 32.122206,146.89776 C 31.999564,146.87936 31.9777,146.84096 31.992011,146.66915 L 32.000211,146.57105 L 32.92673,146.56905 C 33.937966,146.56705 33.879381,146.55785 33.879381,146.72074 C 33.879381,146.8623 33.859181,146.88688 33.742419,146.88737 C 33.576545,146.88806 33.298253,146.95557 33.122803,147.03767 C 32.916476,147.13417 32.809295,147.23424 32.302646,147.80303 C 31.978059,148.16743 31.885159,148.28736 31.885159,148.34197 C 31.885159,148.42417 32.03442,148.6637 32.746735,149.72471 C 33.117234,150.27658 33.282584,150.50106 33.363349,150.56181 C 33.477254,150.64751 33.650299,150.70904 33.878857,150.74517 C 33.951147,150.75657 34.022674,150.77837 34.037807,150.79347 C 34.071817,150.82747 34.074197,151.02316 34.041007,151.05635 C 34.026387,151.07095 33.70637,151.07795 33.238554,151.07385 L 32.460423,151.06685 L 32.445953,150.8751 C 32.435413,150.73549 32.411863,150.6451 32.359333,150.54272 C 32.258449,150.34609 31.407768,149.12573 31.287863,149.00562 C 31.198023,148.91562 31.005797,148.82974 30.894246,148.82974 C 30.864326,148.82974 30.860036,148.95618 30.867626,149.61592 C 30.875626,150.30937 30.882206,150.41496 30.923616,150.5111 C 30.982666,150.64818 31.070153,150.71091 31.261471,150.75335 L 31.41217,150.78675 L 31.41217,150.92678 L 31.41217,151.06681 L 30.385946,151.07381 C 29.466778,151.07981 29.358092,151.07581 29.344093,151.03971 L 29.344093,151.03971 L 29.344088,151.03999 z" id="path5532" style="fill:#000000;fill-opacity:1;fill-rule:nonzero;stroke:none"></path><path d="M 34.377985,151.00369 C 34.368685,150.96139 34.368385,150.89368 34.377219,150.85328 C 34.392779,150.78248 34.401049,150.77878 34.608297,150.75207 C 35.000455,150.70147 35.109196,150.59595 35.159657,150.21718 C 35.175817,150.0959 35.183037,149.5136 35.178277,148.7152 C 35.170677,147.44032 35.169277,147.40862 35.115137,147.29146 C 35.047777,147.14568 34.935036,147.08051 34.676372,147.03779 C 34.500693,147.00879 34.497106,147.00659 34.481044,146.92101 C 34.451234,146.76213 34.469374,146.7468 34.729658,146.71082 C 35.051197,146.66642 35.528624,146.56517 35.708176,146.5034 C 35.870244,146.4476 35.964452,146.4389 35.988303,146.4775 C 35.996803,146.4912 35.990503,146.6994 35.974273,146.94006 C 35.936833,147.49566 35.952363,147.52004 36.152323,147.2195 C 36.286957,147.01715 36.561307,146.73206 36.71731,146.63241 C 37.243039,146.29659 37.907113,146.57261 37.787921,147.07745 C 37.749721,147.23923 37.562666,147.43739 37.423494,147.46349 C 37.275684,147.49119 37.20098,147.45649 37.020236,147.27862 C 36.86732,147.12773 36.839305,147.11053 36.742389,147.10799 C 36.642979,147.10499 36.624234,147.11599 36.501086,147.2486 C 36.330739,147.43162 36.138679,147.72034 36.054428,147.92007 L 35.988648,148.07599 L 35.988648,149.20094 C 35.988648,150.22936 35.992648,150.33628 36.035378,150.44701 C 36.061078,150.51361 36.113818,150.5907 36.152563,150.61829 C 36.230883,150.67409 36.445686,150.73412 36.678953,150.76547 L 36.832354,150.78607 L 36.832354,150.92669 L 36.832354,151.06731 L 35.613618,151.07431 L 34.394882,151.08131 L 34.377982,151.00441 L 34.377982,151.00441 L 34.377985,151.00369 z" id="path5534" style="fill:#000000;fill-opacity:1;fill-rule:nonzero;stroke:none"></path><path d="M 40.331203,151.15523 C 39.695384,151.08153 39.231325,150.83845 38.908567,150.41012 C 38.718089,150.15733 38.573949,149.87582 38.482973,149.5789 C 38.419623,149.37216 38.414123,149.31893 38.413513,148.90695 C 38.412955,148.52883 38.421613,148.42456 38.469403,148.23377 C 38.734403,147.17593 39.423372,146.55588 40.410393,146.48696 C 40.983146,146.44696 41.605609,146.63276 41.971417,146.95291 C 42.280875,147.22374 42.556826,147.74665 42.672047,148.28056 C 42.726667,148.53367 42.713887,149.15836 42.648757,149.41829 C 42.515943,149.94839 42.227582,150.43899 41.879986,150.72623 C 41.50851,151.0332 40.850527,151.21545 40.331191,151.15523 L 40.331191,151.15523 L 40.331203,151.15523 z M 41.163722,150.75382 C 41.677352,150.50096 41.879234,149.95523 41.842151,148.91987 C 41.803991,147.85429 41.518336,147.18031 40.997204,146.92625 C 40.429663,146.64956 39.805363,146.84115 39.534761,147.37505 C 39.349595,147.74038 39.26547,148.13406 39.264775,148.6385 C 39.263675,149.45242 39.501511,150.12289 39.937239,150.53402 C 40.179416,150.76252 40.434152,150.85404 40.792578,150.8413 C 40.965344,150.8353 41.028933,150.8202 41.163722,150.7538 L 41.163722,150.75382 z" id="path5536" style="fill:#000000;fill-opacity:1;fill-rule:nonzero;stroke:none"></path><path d="M 43.21777,153.48773 C 43.19983,153.44103 43.20132,153.29189 43.22027,153.24264 C 43.23113,153.21434 43.26916,153.20224 43.346847,153.20224 C 43.695794,153.20224 43.887643,153.07599 43.949509,152.80564 C 43.977949,152.68137 43.984539,152.16155 43.984539,150.04472 C 43.984539,147.57996 43.981939,147.43025 43.937809,147.31577 C 43.875449,147.15416 43.783975,147.09444 43.523408,147.04525 L 43.308601,147.00475 L 43.291941,146.89368 C 43.282741,146.83258 43.283241,146.77463 43.293041,146.76486 C 43.302841,146.75486 43.496909,146.71616 43.724367,146.67826 C 43.951826,146.64046 44.241474,146.5779 44.36803,146.53931 C 44.494587,146.50071 44.638401,146.46831 44.687617,146.46721 L 44.777097,146.46521 L 44.767397,146.8551 C 44.758097,147.22746 44.759897,147.245 44.807357,147.245 C 44.834677,147.245 44.890817,147.2094 44.932122,147.1659 C 45.285282,146.7941 45.902606,146.47795 46.275443,146.47795 C 46.771022,146.47795 47.282129,146.74129 47.600436,147.16063 C 47.899374,147.55446 48.060568,148.016 48.080817,148.53609 C 48.114677,149.40572 47.792052,150.1974 47.19973,150.69819 C 46.633599,151.17684 45.776443,151.30162 44.976655,151.02182 C 44.889535,150.99132 44.809003,150.97562 44.797687,150.98692 C 44.765507,151.01902 44.757907,152.31663 44.788287,152.59585 C 44.824667,152.93052 44.877807,153.03317 45.057175,153.11529 C 45.149465,153.15749 45.262245,153.18279 45.407102,153.19369 C 45.524663,153.20269 45.629302,153.22239 45.639634,153.23789 C 45.649964,153.25329 45.658414,153.31199 45.658414,153.36823 C 45.658414,153.42453 45.649914,153.48201 45.639634,153.49607 C 45.627574,153.51247 45.192959,153.52167 44.425878,153.52167 C 43.454346,153.52167 43.228463,153.51567 43.21784,153.48757 L 43.21784,153.48757 L 43.21777,153.48773 z M 46.152404,150.78422 C 46.655108,150.66217 46.935495,150.34801 47.131927,149.68674 C 47.224447,149.37529 47.247582,148.73904 47.180897,148.34021 C 47.073739,147.69936 46.784343,147.22111 46.385082,147.02507 C 46.254763,146.96107 46.20501,146.95107 46.017071,146.95107 C 45.824155,146.95107 45.779698,146.96107 45.621154,147.03567 C 45.321152,147.17772 44.967525,147.47086 44.845231,147.67888 L 44.777071,147.79481 L 44.777071,148.99645 C 44.777071,149.65736 44.786471,150.24256 44.797951,150.2969 C 44.824131,150.42075 45.012909,150.62823 45.172851,150.70894 C 45.275223,150.76054 45.437237,150.80454 45.633562,150.83401 C 45.731822,150.84871 45.987917,150.82401 46.152403,150.78421 L 46.152403,150.78421 L 46.152404,150.78422 z" id="path5538" style="fill:#000000;fill-opacity:1;fill-rule:nonzero;stroke:none"></path><path d="M 48.793916,151.03996 C 48.772486,150.98406 48.774956,150.84373 48.798016,150.80749 C 48.808436,150.79109 48.901105,150.76609 49.003958,150.75179 C 49.251291,150.71749 49.416932,150.63437 49.475196,150.51524 C 49.499916,150.46474 49.531196,150.33815 49.544716,150.23401 C 49.577176,149.98394 49.577816,147.63445 49.545479,147.43697 C 49.503329,147.17955 49.389242,147.08463 49.060889,147.03381 L 48.885137,147.00661 L 48.874307,146.90214 C 48.868307,146.84464 48.867507,146.78616 48.872507,146.7721 C 48.877407,146.758 49.076329,146.7147 49.314451,146.6757 C 49.552573,146.6368 49.848626,146.57435 49.972348,146.53698 C 50.096069,146.49958 50.23623,146.46818 50.283815,146.46718 L 50.370335,146.46518 L 50.373335,148.42105 C 50.376335,150.36982 50.376535,150.37735 50.431675,150.49674 C 50.501305,150.64742 50.619246,150.71205 50.893326,150.74972 C 51.002694,150.76472 51.101502,150.78612 51.112899,150.79712 C 51.124299,150.80812 51.130049,150.87342 51.125679,150.94221 L 51.117779,151.06722 L 49.963709,151.07422 C 48.927946,151.08022 48.808039,151.07622 48.794022,151.04022 L 48.794022,151.04022 L 48.793916,151.03996 z" id="path5540" style="fill:#000000;fill-opacity:1;fill-rule:nonzero;stroke:none"></path><path d="M 49.762625,145.26653 C 49.596997,145.19423 49.443623,144.95535 49.443181,144.76897 C 49.442797,144.60754 49.663847,144.35559 49.849792,144.30552 C 50.129746,144.23012 50.439341,144.50051 50.440006,144.82097 C 50.440216,144.92143 50.403156,145.00289 50.307855,145.11143 C 50.159694,145.28018 49.938231,145.34318 49.762625,145.26653 L 49.762625,145.26653 z" id="path5542" style="fill:#000000;fill-opacity:1;fill-rule:nonzero;stroke:none"></path><path d="M 53.231069,151.15595 C 52.607529,151.07105 52.151974,150.68649 51.898971,150.03149 C 51.768458,149.69361 51.73128,149.45563 51.73128,148.95808 C 51.73128,148.61223 51.74208,148.46423 51.77884,148.30613 C 51.980623,147.43831 52.600725,146.7508 53.368488,146.54367 C 53.452348,146.52107 53.637962,146.49537 53.780954,146.48657 C 54.066353,146.46907 54.233459,146.49257 54.575707,146.59805 C 54.746441,146.65075 54.794041,146.65705 54.824985,146.63135 C 54.857565,146.60435 54.863235,146.47066 54.863235,145.72916 C 54.863235,144.74982 54.844665,144.56357 54.736184,144.45509 C 54.654324,144.37319 54.516468,144.33074 54.332088,144.33055 C 54.210911,144.33042 54.194699,144.32355 54.172294,144.26485 C 54.158584,144.22875 54.147364,144.16159 54.147364,144.11554 L 54.147364,144.03184 L 54.388255,144.00224 C 54.686926,143.96554 55.224842,143.85767 55.4388,143.79159 C 55.52713,143.76429 55.614967,143.74799 55.633997,143.75529 C 55.662887,143.76639 55.667257,144.27933 55.660477,146.86216 C 55.651377,150.31446 55.643877,150.15332 55.821568,150.30933 C 55.915248,150.39153 56.088315,150.45432 56.29837,150.48219 C 56.40193,150.49589 56.426152,150.50929 56.438733,150.55939 C 56.468183,150.67674 56.430733,150.74418 56.326744,150.7613 C 55.82781,150.8434 55.495292,150.94846 55.274826,151.09366 C 55.199416,151.14336 55.107516,151.18246 55.066261,151.18246 C 54.999281,151.18246 54.988921,151.17016 54.953515,151.04823 C 54.932075,150.97443 54.904165,150.8314 54.891505,150.73044 C 54.878845,150.62948 54.861185,150.53507 54.852265,150.52063 C 54.827395,150.48043 54.766135,150.51263 54.543661,150.68457 C 54.023366,151.08597 53.66418,151.21498 53.231086,151.156 L 53.231086,151.156 L 53.231069,151.15595 z M 54.10824,150.59848 C 54.44415,150.44129 54.789772,150.15188 54.838255,149.98721 C 54.857655,149.92131 54.863985,149.50722 54.858475,148.66406 C 54.849375,147.27317 54.865575,147.37971 54.6266,147.13578 C 54.191054,146.69114 53.43069,146.70984 53.009248,147.17558 C 52.751948,147.4599 52.627432,147.82695 52.589413,148.41316 C 52.513933,149.57694 52.83918,150.42495 53.450982,150.6595 C 53.613646,150.7219 53.901784,150.6951 54.108243,150.5985 L 54.108243,150.5985 L 54.10824,150.59848 z" id="path5544" style="fill:#000000;fill-opacity:1;fill-rule:nonzero;stroke:none"></path><path d="M 56.801183,151.03996 C 56.779753,150.98406 56.782223,150.84373 56.805283,150.80749 C 56.815703,150.79109 56.908372,150.76609 57.011225,150.75179 C 57.256808,150.71779 57.424258,150.63424 57.481524,150.51721 C 57.505724,150.46771 57.537134,150.34695 57.551324,150.24876 C 57.585454,150.01257 57.586314,147.60247 57.552324,147.42115 C 57.506694,147.17764 57.38897,147.08346 57.068151,147.03381 L 56.892399,147.00661 L 56.881569,146.90214 C 56.875569,146.84464 56.874769,146.78616 56.879769,146.7721 C 56.884669,146.758 57.083591,146.7147 57.321713,146.6757 C 57.559835,146.6368 57.855889,146.57435 57.97961,146.53698 C 58.103332,146.49958 58.243613,146.46818 58.291347,146.46718 L 58.378137,146.46518 L 58.380837,148.42105 C 58.383537,150.3701 58.383737,150.37734 58.438907,150.49674 C 58.508537,150.64742 58.626478,150.71205 58.900559,150.74972 C 59.009927,150.76472 59.108734,150.78612 59.120131,150.79712 C 59.131531,150.80812 59.137281,150.87342 59.132911,150.94221 L 59.125011,151.06722 L 57.970942,151.07422 C 56.935179,151.08022 56.815271,151.07622 56.801254,151.04022 L 56.801254,151.04022 L 56.801183,151.03996 z" id="path5546" style="fill:#000000;fill-opacity:1;fill-rule:nonzero;stroke:none"></path><path d="M 57.769892,145.26653 C 57.604264,145.19423 57.45089,144.95535 57.450448,144.76897 C 57.450065,144.60754 57.671114,144.35559 57.857059,144.30552 C 58.062194,144.25032 58.285904,144.37092 58.394546,144.59533 C 58.486096,144.78444 58.462096,144.94404 58.317326,145.10893 C 58.163607,145.284 57.950497,145.34536 57.769895,145.26653 L 57.769892,145.26653 z" id="path5548" style="fill:#000000;fill-opacity:1;fill-rule:nonzero;stroke:none"></path><path d="M 60.254585,153.47333 C 60.090629,153.41253 59.981433,153.27871 59.981433,153.13853 C 59.981433,153.05343 60.059253,152.90125 60.148204,152.8123 C 60.244744,152.7158 60.352192,152.69267 60.628326,152.70915 C 60.922168,152.72665 61.060129,152.67755 61.179355,152.51297 C 61.257655,152.40488 61.520931,151.80725 61.615915,151.52198 C 61.684115,151.31714 61.684545,151.06065 61.617115,150.79661 C 61.573535,150.62593 60.411953,147.81247 60.202472,147.37021 C 60.051698,147.0519 59.90332,146.92529 59.645217,146.89473 C 59.537666,146.88203 59.512887,146.86883 59.491169,146.81303 C 59.475569,146.77293 59.473859,146.71265 59.486869,146.66126 L 59.508439,146.57596 L 60.511466,146.57096 C 61.608152,146.56596 61.541012,146.55606 61.541012,146.72065 C 61.541012,146.84438 61.517772,146.88683 61.450052,146.88683 C 61.327552,146.88683 61.136743,146.94253 61.080926,146.99448 C 60.96663,147.10096 61.003866,147.22053 61.576261,148.58506 C 61.86484,149.273 62.122422,149.85733 62.148666,149.88357 C 62.203936,149.93887 62.270168,149.92337 62.311903,149.84537 C 62.416192,149.6505 63.387162,147.31359 63.398801,147.22945 C 63.407201,147.16835 63.400501,147.10067 63.382601,147.06725 C 63.343751,146.99465 63.178791,146.92106 63.00274,146.89776 C 62.887608,146.88256 62.862508,146.86946 62.840552,146.81296 C 62.824822,146.77256 62.823082,146.71123 62.836152,146.65755 L 62.857722,146.56885 L 63.694751,146.56802 C 64.607992,146.56711 64.557924,146.55802 64.557924,146.72059 C 64.557924,146.8385 64.535134,146.88677 64.479444,146.88677 C 64.28908,146.88677 63.948907,147.12633 63.791955,147.37092 C 63.606098,147.66055 62.99755,149.06244 62.027065,151.43662 C 61.455203,152.83563 61.217222,153.22064 60.805162,153.41347 C 60.607315,153.50607 60.403343,153.52808 60.25459,153.47297 L 60.25459,153.47297 L 60.254585,153.47333 z" id="path5550" style="fill:#000000;fill-opacity:1;fill-rule:nonzero;stroke:none"></path><path d="M 66.052666,151.15734 C 65.867114,151.13114 65.641641,151.05466 65.492509,150.96726 C 65.108327,150.74212 64.939454,150.15064 65.120897,149.66569 C 65.239011,149.35 65.55287,149.04442 65.989665,148.81983 C 66.288596,148.66612 66.49981,148.59459 67.097726,148.44457 C 67.38058,148.37357 67.628206,148.30208 67.648005,148.28565 C 67.676855,148.26165 67.681125,148.19475 67.669515,147.94858 C 67.646135,147.4528 67.533971,147.13332 67.325874,146.96978 C 67.130788,146.81647 67.072371,146.79811 66.795022,146.80294 C 66.356826,146.81094 66.050616,146.94668 65.991727,147.15996 C 65.975187,147.21986 65.976597,147.32146 65.996027,147.46638 C 66.022277,147.66257 66.020507,147.69159 65.977447,147.77155 C 65.842832,148.02152 65.403337,148.05887 65.285186,147.83035 C 65.252986,147.76805 65.245256,147.7066 65.254746,147.58836 C 65.277516,147.30466 65.468017,147.0467 65.830998,146.80804 C 66.151563,146.59726 66.45638,146.50503 66.897326,146.48539 C 67.246021,146.46989 67.429747,146.50359 67.69185,146.6313 C 68.015868,146.78916 68.186398,146.96982 68.302467,147.27819 C 68.441035,147.64633 68.448904,147.73106 68.469155,149.0731 C 68.482465,149.95485 68.497575,150.35791 68.520205,150.43403 C 68.602885,150.71219 68.91055,150.79942 69.13697,150.6089 C 69.22503,150.5348 69.245895,150.5396 69.301436,150.6471 C 69.340056,150.7218 69.339596,150.7228 69.205376,150.85125 C 68.942889,151.10253 68.599972,151.21054 68.278327,151.14324 C 68.184687,151.12364 68.06857,151.08324 68.020277,151.05334 C 67.916662,150.98934 67.738422,150.75003 67.715043,150.64359 C 67.706043,150.60249 67.685153,150.56899 67.668693,150.56919 C 67.652233,150.5694 67.538321,150.64899 67.415555,150.746 C 67.149072,150.95662 66.970768,151.06132 66.786591,151.11534 C 66.616037,151.16534 66.255784,151.18594 66.052699,151.15734 L 66.052699,151.15734 L 66.052666,151.15734 z M 67.010074,150.65571 C 67.233508,150.55158 67.483233,150.37873 67.596328,150.24993 L 67.677088,150.15793 L 67.677088,149.39181 C 67.677088,148.88088 67.668288,148.62569 67.650628,148.62569 C 67.559948,148.62569 66.659808,148.89983 66.503203,148.97514 C 66.266258,149.08908 66.088679,149.26259 65.987314,149.4792 C 65.717637,150.05549 65.934944,150.64018 66.458663,150.74743 C 66.624915,150.78143 66.804153,150.75143 67.010078,150.65573 L 67.010078,150.65573 L 67.010074,150.65571 z" id="path5552" style="fill:#000000;fill-opacity:1;fill-rule:nonzero;stroke:none"></path><path d="M 74.085231,151.15653 C 73.797156,151.12103 73.660003,151.08133 73.405617,150.95955 C 72.878253,150.70713 72.494219,150.16153 72.383748,149.50777 C 72.333768,149.21197 72.324928,148.96845 72.354278,148.69581 C 72.439878,147.90079 72.705471,147.37321 73.232305,146.95169 C 73.487757,146.7473 73.716606,146.62534 73.980777,146.55279 C 74.157791,146.50419 74.225596,146.49879 74.503747,146.51129 C 75.209043,146.54309 75.621441,146.76343 75.867599,147.24003 C 76.015886,147.52715 76.085612,147.78019 76.105739,148.10428 C 76.120909,148.34849 76.118659,148.36581 76.064789,148.41968 L 76.007789,148.47668 L 74.591021,148.46768 L 73.174253,148.45868 L 73.17447,148.57373 C 73.174838,148.76851 73.22464,149.13749 73.279641,149.3529 C 73.42549,149.92414 73.770964,150.38149 74.210544,150.58528 C 74.341577,150.64608 74.402857,150.65738 74.644367,150.66538 C 75.128796,150.68158 75.436281,150.57158 75.760839,150.26598 C 75.931986,150.10483 75.932231,150.1047 76.007429,150.14359 C 76.118002,150.20079 76.125915,150.2521 76.040709,150.35949 C 75.934405,150.49348 75.687364,150.72291 75.543672,150.82109 C 75.151878,151.0888 74.589699,151.21776 74.085226,151.15564 L 74.085231,151.15653 z M 74.729746,148.0974 C 75.079067,148.0842 75.181437,148.0722 75.212569,148.0411 C 75.303229,147.9504 75.198349,147.34886 75.055416,147.13973 C 74.914502,146.93355 74.591858,146.79436 74.307721,146.81716 C 74.106824,146.83326 73.81331,146.96695 73.651723,147.1159 C 73.48197,147.27237 73.309756,147.63484 73.228946,148.00574 L 73.205276,148.1144 L 73.745856,148.11432 C 74.043175,148.11427 74.485927,148.10632 74.72975,148.09742 L 74.72975,148.09742 L 74.729746,148.0974 z" id="path5554" style="fill:#000000;fill-opacity:1;fill-rule:nonzero;stroke:none"></path><path d="M 76.791993,151.00344 C 76.782693,150.96124 76.782393,150.89353 76.791355,150.85294 C 76.806705,150.78304 76.817735,150.77764 76.999283,150.75062 C 77.314388,150.70372 77.418142,150.62253 77.482174,150.37259 C 77.516744,150.23767 77.521284,150.01682 77.515074,148.7753 C 77.508474,147.45317 77.504134,147.32776 77.462594,147.25173 C 77.397814,147.13318 77.320559,147.09208 77.075544,147.04582 C 76.842659,147.00182 76.831449,146.99162 76.830693,146.82127 L 76.830344,146.74257 L 77.073899,146.71067 C 77.392731,146.66897 77.876133,146.56814 78.076072,146.50165 C 78.287523,146.43135 78.352709,146.44095 78.347998,146.54195 C 78.345998,146.58415 78.335658,146.7941 78.324958,147.00854 C 78.314258,147.22299 78.314458,147.39844 78.325411,147.39844 C 78.336361,147.39844 78.457684,147.2906 78.595013,147.15878 C 79.10873,146.66571 79.478228,146.47803 79.935292,146.47803 C 80.240454,146.47803 80.563662,146.62421 80.745049,146.84426 C 80.821509,146.93706 80.945928,147.18125 80.946371,147.23945 C 80.947067,147.33055 81.034021,147.29255 81.212213,147.12325 C 81.653489,146.70408 82.156556,146.47869 82.651956,146.47821 C 83.143629,146.47773 83.448343,146.65334 83.603131,147.02637 C 83.758842,147.40163 83.764223,147.46022 83.782875,148.98359 C 83.800805,150.44806 83.803885,150.48469 83.919781,150.61284 C 83.980871,150.68044 84.132103,150.73818 84.308675,150.76145 C 84.378985,150.77045 84.444962,150.79155 84.455293,150.80775 C 84.480393,150.84715 84.479263,151.008 84.453593,151.04842 C 84.437543,151.07372 84.207198,151.07922 83.388399,151.07402 L 82.343678,151.06702 L 82.324878,150.99672 C 82.314538,150.95802 82.314528,150.89477 82.324862,150.8561 C 82.341852,150.7925 82.361902,150.782 82.534822,150.74645 C 82.784337,150.69515 82.876118,150.62868 82.93264,150.4585 C 82.97143,150.34169 82.97792,150.17531 82.98617,149.08559 C 82.99778,147.5512 82.97667,147.36109 82.772546,147.1593 C 82.641551,147.02982 82.564235,147.00342 82.314445,147.00286 C 81.900647,147.00194 81.525983,147.17758 81.188548,147.53067 L 81.034194,147.69219 L 81.047934,149.04724 C 81.061244,150.36048 81.063344,150.40592 81.116084,150.51994 C 81.179204,150.65642 81.308463,150.73206 81.526717,150.76025 C 81.646954,150.77575 81.660926,150.78435 81.675758,150.85185 C 81.684758,150.89285 81.684558,150.96088 81.675278,151.00307 L 81.658428,151.07977 L 80.62703,151.07977 L 79.595631,151.07977 L 79.578781,151.00307 C 79.569481,150.96087 79.569181,150.89315 79.57815,150.85255 C 79.59337,150.78325 79.6053,150.77715 79.772531,150.75229 C 80.246348,150.68199 80.265299,150.60547 80.250485,148.82301 C 80.241085,147.69349 80.238205,147.63364 80.185325,147.47483 C 80.076459,147.1479 79.888164,147.0052 79.563393,147.00352 C 79.385396,147.0026 79.350959,147.01152 79.154322,147.10961 C 78.920054,147.22646 78.551267,147.52672 78.436211,147.69428 C 78.314391,147.87169 78.308769,147.94257 78.318614,149.17685 C 78.327114,150.24074 78.331484,150.33588 78.378024,150.46556 C 78.440594,150.63991 78.53142,150.70561 78.766478,150.74654 C 78.954931,150.77934 78.976986,150.79724 78.977569,150.91789 C 78.978407,151.09137 79.057209,151.07977 77.877878,151.07977 L 76.808833,151.07977 L 76.791983,151.00307 L 76.791993,151.00344 z" id="path5556" style="fill:#000000;fill-opacity:1;fill-rule:nonzero;stroke:none"></path><path d="M 86.692147,151.15422 C 86.007589,151.07172 85.465552,150.68044 85.188177,150.06871 C 84.81597,149.24782 84.944579,148.04533 85.480145,147.33884 C 85.653499,147.11016 86.014526,146.81272 86.27459,146.68433 C 86.579456,146.53382 86.775198,146.49518 87.146605,146.51219 C 87.865452,146.54509 88.283714,146.78174 88.532519,147.29623 C 88.665877,147.572 88.718257,147.77925 88.736791,148.10449 C 88.750671,148.34799 88.748201,148.36638 88.694551,148.42004 L 88.637571,148.47704 L 87.220951,148.46804 L 85.804332,148.45904 L 85.804338,148.52664 C 85.804366,148.84186 85.902648,149.37736 86.011518,149.65553 C 86.158358,150.03069 86.50634,150.4272 86.818506,150.57505 C 86.988611,150.65565 87.002287,150.65785 87.338361,150.65785 C 87.829826,150.65785 88.056651,150.57285 88.429764,150.24879 C 88.510714,150.17849 88.594518,150.12487 88.616,150.12965 C 88.6715,150.14195 88.744543,150.21205 88.744543,150.25302 C 88.744543,150.30622 88.365793,150.69086 88.207637,150.79825 C 87.76679,151.0976 87.243752,151.2203 86.69215,151.15378 L 86.69215,151.15378 L 86.692147,151.15422 z M 87.822758,148.06398 C 87.868338,148.03958 87.875218,148.01158 87.874888,147.85141 C 87.874164,147.49847 87.754674,147.16461 87.576519,147.01776 C 87.395205,146.86831 87.272831,146.82606 87.016931,146.82458 C 86.794196,146.82358 86.776254,146.82758 86.565038,146.93219 C 86.215137,147.10551 86.035259,147.36083 85.895716,147.88226 L 85.831436,148.12245 L 86.800844,148.10725 C 87.427794,148.09725 87.7888,148.08215 87.822758,148.06395 L 87.822758,148.06395 L 87.822758,148.06398 z" id="path5558" style="fill:#000000;fill-opacity:1;fill-rule:nonzero;stroke:none"></path><path d="M 89.433158,151.01178 C 89.406658,150.94208 89.422108,150.8098 89.459428,150.78673 C 89.470788,150.77973 89.556648,150.76313 89.650243,150.74983 C 89.906389,150.71353 90.04299,150.63759 90.109089,150.49467 C 90.162649,150.37885 90.163499,150.35341 90.163499,148.86856 C 90.163499,147.22408 90.165199,147.24412 90.017783,147.13916 C 89.976013,147.10946 89.847896,147.06786 89.728814,147.04536 C 89.498264,147.00186 89.487074,146.99146 89.486324,146.82014 C 89.485978,146.74114 89.487624,146.74014 89.645768,146.72254 C 89.930122,146.69084 90.473514,146.58256 90.687035,146.51511 C 90.801491,146.47891 90.920353,146.45291 90.951172,146.45731 C 91.014552,146.46631 91.012172,146.42101 90.980742,147.02137 C 90.965952,147.30376 90.968522,147.39848 90.990942,147.39848 C 91.007412,147.39848 91.098348,147.31608 91.193017,147.2153 C 91.417169,146.97674 91.693847,146.7575 91.894759,146.65923 C 92.351081,146.43604 92.906518,146.41736 93.277171,146.61273 C 93.456047,146.70703 93.560548,146.8211 93.656209,147.02655 C 93.796932,147.32877 93.813109,147.50985 93.83219,148.99641 C 93.84415,149.92814 93.85907,150.38076 93.87994,150.44524 C 93.93675,150.62071 94.073637,150.70177 94.420393,150.76526 L 94.535445,150.78636 L 94.535445,150.92686 L 94.535445,151.06737 L 93.461633,151.06737 L 92.387821,151.06737 L 92.387821,150.92675 L 92.387821,150.78613 L 92.554006,150.75333 C 92.875494,150.68983 92.962508,150.60149 93.012778,150.2876 C 93.046538,150.07676 93.047628,147.98391 93.014078,147.75207 C 92.957158,147.35853 92.786135,147.10971 92.513503,147.02377 C 92.390293,146.98497 92.349945,146.98337 92.188564,147.01087 C 91.872965,147.06467 91.514558,147.26491 91.228605,147.54725 C 90.971347,147.80126 90.982778,147.73737 90.973875,148.97094 C 90.962195,150.58937 90.982175,150.66505 91.443318,150.75027 C 91.611432,150.78137 91.632619,150.80007 91.633191,150.91833 C 91.634029,151.09183 91.713121,151.08021 90.530836,151.08021 L 89.459126,151.08021 L 89.433136,151.01181 L 89.433136,151.01181 L 89.433158,151.01178 z" id="path5560" style="fill:#000000;fill-opacity:1;fill-rule:nonzero;stroke:none"></path><path d="M 96.817783,151.15528 C 96.14069,151.07418 95.598086,150.69023 95.320546,150.0958 C 94.981861,149.37042 95.03571,148.28632 95.446088,147.56837 C 95.6819,147.15582 96.195815,146.72758 96.630966,146.58103 C 97.000289,146.45665 97.605079,146.49203 98.016065,146.66213 C 98.500209,146.86248 98.818191,147.40919 98.855274,148.10498 L 98.870444,148.38963 L 98.803724,148.43333 C 98.742394,148.47353 98.623298,148.47633 97.328893,148.46833 L 95.920784,148.45933 L 95.937074,148.70221 C 95.959034,149.02979 96.038039,149.41586 96.130259,149.6463 C 96.290645,150.04707 96.610904,150.41405 96.938292,150.57222 C 97.093387,150.64712 97.140312,150.65712 97.380263,150.66602 C 97.702661,150.67792 97.89847,150.64532 98.116985,150.54302 C 98.271435,150.47072 98.539542,150.27735 98.640888,150.16511 C 98.668048,150.13501 98.706868,150.11911 98.735108,150.12651 C 98.807918,150.14551 98.869762,150.22621 98.852713,150.27997 C 98.832963,150.34217 98.52696,150.65235 98.36459,150.77473 C 97.965026,151.07588 97.372643,151.22155 96.81779,151.15509 L 96.81779,151.15509 L 96.817783,151.15528 z M 97.961209,148.05851 C 97.993759,148.03151 97.998129,147.98131 97.986369,147.76969 C 97.964719,147.38018 97.862024,147.13788 97.654698,146.98718 C 97.471763,146.8542 97.387022,146.8278 97.13553,146.82543 C 96.912272,146.82343 96.895404,146.82743 96.685078,146.93148 C 96.455016,147.04543 96.337438,147.15227 96.218247,147.35565 C 96.140617,147.48812 96.007947,147.86169 95.982895,148.01835 L 95.966215,148.12269 L 96.944019,148.10699 C 97.681194,148.09509 97.931516,148.08319 97.961215,148.05859 L 97.961215,148.05859 L 97.961209,148.05851 z" id="path5562" style="fill:#000000;fill-opacity:1;fill-rule:nonzero;stroke:none"></path><path d="M 99.551758,151.01178 C 99.525258,150.94208 99.540708,150.8098 99.578028,150.78673 C 99.589388,150.77973 99.675258,150.76313 99.768843,150.74983 C 100.02499,150.71353 100.16159,150.63759 100.22769,150.49467 C 100.28129,150.37882 100.28209,150.35366 100.28209,148.85578 C 100.28209,147.44841 100.27909,147.32834 100.23679,147.25169 C 100.17199,147.13314 100.09476,147.09204 99.849738,147.04578 C 99.616601,147.00178 99.605637,146.99168 99.604886,146.82012 C 99.604541,146.74112 99.606186,146.74012 99.764331,146.72252 C 100.04869,146.69082 100.59208,146.58254 100.8056,146.51509 C 100.92006,146.47889 101.03892,146.45289 101.06974,146.45729 C 101.13334,146.46629 101.13124,146.42669 101.09984,147.02135 C 101.08674,147.26948 101.08864,147.39846 101.10584,147.39846 C 101.11994,147.39846 101.24531,147.28487 101.38447,147.14603 C 101.83004,146.70149 102.20378,146.51235 102.6915,146.48458 C 102.96729,146.46888 103.19043,146.50598 103.37519,146.59817 C 103.66614,146.74339 103.80941,146.97684 103.90469,147.46098 C 103.91869,147.53208 103.93849,148.21149 103.94869,148.97083 C 103.96279,150.01597 103.97549,150.37319 104.00109,150.44093 C 104.07209,150.62888 104.19787,150.70477 104.53929,150.76576 L 104.65434,150.78626 L 104.65434,150.92676 L 104.65434,151.06727 L 103.58053,151.06727 L 102.50672,151.06727 L 102.50672,150.92665 L 102.50672,150.78603 L 102.6729,150.75323 C 102.99522,150.68953 103.08438,150.60397 103.13142,150.31306 C 103.17292,150.0565 103.16562,147.92016 103.12242,147.67806 C 103.06082,147.33278 102.89073,147.10509 102.63392,147.02414 C 102.3461,146.93344 101.91438,147.08134 101.50321,147.4116 C 101.26643,147.60178 101.1527,147.74865 101.11475,147.91323 C 101.08165,148.05671 101.08095,150.00573 101.11393,150.25953 C 101.15763,150.59616 101.2447,150.69145 101.56225,150.75013 C 101.73036,150.78123 101.75155,150.79993 101.75212,150.91819 C 101.75296,151.09169 101.83202,151.08007 100.64977,151.08007 L 99.578055,151.08007 L 99.552065,151.01167 L 99.552065,151.01167 L 99.551758,151.01178 z" id="path5564" style="fill:#000000;fill-opacity:1;fill-rule:nonzero;stroke:none"></path><path d="M 106.25199,153.52523 C 105.73982,153.4056 105.42476,153.19783 105.27755,152.88261 C 105.19235,152.70021 105.14369,152.42298 105.16807,152.25914 C 105.22697,151.86305 105.47586,151.49336 105.87487,151.20912 C 105.99201,151.12572 106.02547,151.08014 105.96967,151.08014 C 105.91157,151.08014 105.69455,150.84334 105.62792,150.70727 C 105.449,150.34186 105.55122,149.76919 105.86602,149.37272 L 105.97327,149.23766 L 105.83307,149.06877 C 105.56202,148.7422 105.45943,148.46965 105.45943,148.07602 C 105.45943,147.34158 105.89247,146.79236 106.66198,146.55083 C 106.82575,146.49943 106.90542,146.49103 107.22355,146.49133 C 107.63667,146.49174 107.76278,146.51833 108.08783,146.67347 L 108.27458,146.76257 L 108.43349,146.61393 C 108.71234,146.35309 109.1501,146.18983 109.41278,146.2487 C 109.62533,146.2963 109.75468,146.43256 109.75468,146.60878 C 109.75468,146.72527 109.64571,146.89793 109.54076,146.94773 C 109.37545,147.02613 109.29285,146.99913 109.1131,146.80769 C 109.018,146.70636 108.97942,146.68261 108.91024,146.68261 C 108.80131,146.68261 108.63461,146.76311 108.54087,146.86093 L 108.46787,146.93713 L 108.58731,147.08915 C 108.8318,147.40036 108.93028,147.72844 108.90346,148.14245 C 108.84536,149.03855 108.15516,149.62529 107.15962,149.6248 C 106.82765,149.62464 106.5548,149.5717 106.3517,149.46811 C 106.2474,149.41491 106.2413,149.41451 106.20903,149.45811 C 106.15213,149.53591 106.07913,149.7563 106.06031,149.90698 C 106.01811,150.24483 106.14861,150.49018 106.42656,150.59548 C 106.58558,150.65568 106.76211,150.65528 107.41529,150.59348 C 107.90253,150.54708 108.52768,150.60348 108.84164,150.7218 C 109.1794,150.84931 109.49394,151.14423 109.60297,151.43565 C 109.67277,151.62209 109.67267,151.90395 109.60277,152.13018 C 109.44457,152.64237 108.90761,153.09396 108.16111,153.34265 C 107.69807,153.4969 107.44597,153.53775 106.89116,153.54841 C 106.54405,153.55541 106.34989,153.54802 106.25199,153.52511 L 106.252,153.52511 L 106.25199,153.52523 z M 107.88452,153.11235 C 108.54393,152.94319 108.92312,152.68524 109.06629,152.30845 C 109.12959,152.14184 109.12949,151.91876 109.06597,151.77893 C 109.00857,151.65245 108.79548,151.47636 108.55902,151.35995 C 108.25379,151.20969 108.04736,151.19445 106.63549,151.21799 C 106.54409,151.21999 106.39879,151.21199 106.31261,151.20069 L 106.15591,151.18059 L 106.05781,151.32832 C 105.93197,151.51791 105.87199,151.70232 105.85224,151.96041 C 105.80694,152.55243 106.06017,152.90404 106.6951,153.1307 C 106.89709,153.2028 106.91557,153.2048 107.26184,153.1928 C 107.53486,153.1828 107.68257,153.1642 107.88448,153.1124 L 107.88448,153.1124 L 107.88452,153.11235 z M 107.59063,149.26391 C 107.96107,149.08978 108.10214,148.77638 108.10229,148.12716 C 108.10245,147.46251 107.92917,147.07165 107.54312,146.86584 C 107.42592,146.80334 107.39077,146.79764 107.1207,146.79764 C 106.85499,146.79763 106.81367,146.80364 106.69908,146.86294 C 106.54925,146.93994 106.43171,147.08438 106.3523,147.28897 C 106.3035,147.41479 106.2932,147.50013 106.2833,147.86223 C 106.2616,148.66015 106.41588,149.07179 106.80021,149.24141 C 107.04918,149.35129 107.38433,149.36081 107.59058,149.26391 L 107.59058,149.26391 L 107.59063,149.26391 z" id="path5566" style="fill:#000000;fill-opacity:1;fill-rule:nonzero;stroke:none"></path><path d="M 111.36773,151.15746 C 111.00883,151.11116 110.67352,150.92956 110.53026,150.70396 C 110.38874,150.4811 110.32236,150.14629 110.3689,149.89021 C 110.4595,149.39197 110.89932,148.95866 111.59503,148.68236 C 111.71649,148.63416 112.06898,148.53081 112.37834,148.45279 C 112.71603,148.36759 112.95436,148.29465 112.97472,148.27018 C 113.00002,148.23968 113.00452,148.17458 112.99242,148.01211 C 112.94252,147.34174 112.80668,147.03604 112.48375,146.86752 C 112.36846,146.80732 112.32518,146.79942 112.12265,146.80162 C 111.87829,146.80462 111.61211,146.85952 111.48439,146.93413 C 111.44179,146.95903 111.37993,147.01903 111.3469,147.06746 C 111.2917,147.14846 111.2882,147.17209 111.3041,147.3601 C 111.3319,147.68933 111.3293,147.72811 111.2743,147.80187 C 111.1899,147.91518 111.06769,147.97201 110.90666,147.9729 C 110.73008,147.97389 110.64234,147.9299 110.58662,147.81249 C 110.49622,147.62207 110.58862,147.32204 110.8117,147.07742 C 111.15049,146.70674 111.71447,146.47804 112.28981,146.47804 C 112.58595,146.47804 112.74248,146.51234 112.99407,146.63243 C 113.27396,146.76601 113.44122,146.92104 113.55372,147.15118 C 113.74446,147.54139 113.77054,147.76852 113.77139,149.04752 C 113.77179,149.64825 113.78349,150.16671 113.79879,150.26195 C 113.85089,150.58635 113.95558,150.70389 114.19257,150.70389 C 114.3148,150.70389 114.35037,150.69219 114.43554,150.62369 L 114.53534,150.54349 L 114.58824,150.61069 C 114.61734,150.64759 114.64104,150.69009 114.64104,150.70509 C 114.64104,150.75249 114.37976,150.97977 114.24918,151.04595 C 113.97161,151.1866 113.6241,151.20038 113.38828,151.08005 C 113.26281,151.01605 113.09525,150.82384 113.04094,150.68164 C 113.01724,150.61954 112.98624,150.5687 112.97214,150.5687 C 112.95804,150.5687 112.87043,150.6298 112.77747,150.70443 C 112.40869,151.00059 112.22826,151.09783 111.9581,151.14603 C 111.74999,151.18313 111.59122,151.18623 111.36774,151.15733 L 111.36774,151.15733 L 111.36773,151.15746 z M 112.21922,150.70691 C 112.36408,150.65901 112.75536,150.4074 112.88205,150.28071 C 112.93125,150.23141 112.97905,150.15388 112.98817,150.10833 C 112.99717,150.06283 113.00477,149.71055 113.00477,149.32561 C 113.00477,148.78084 112.99777,148.62571 112.97267,148.62571 C 112.87427,148.62571 111.97508,148.89574 111.81742,148.97262 C 111.41405,149.16931 111.18935,149.52303 111.18968,149.96078 C 111.18986,150.19244 111.21938,150.30127 111.32446,150.45754 C 111.51084,150.73474 111.84967,150.82917 112.21928,150.70691 L 112.21928,150.70691 L 112.21922,150.70691 z" id="path5568" style="fill:#000000;fill-opacity:1;fill-rule:nonzero;stroke:none"></path><path d="M 114.93273,151.045 C 114.92473,151.0254 114.92263,150.9591 114.92673,150.89771 L 114.93473,150.78612 L 115.11791,150.75582 C 115.48661,150.69482 115.588,150.58751 115.63753,150.20607 C 115.66973,149.95789 115.67013,147.63338 115.63799,147.43702 C 115.59589,147.17972 115.48173,147.08468 115.15393,147.03394 L 114.97871,147.00684 L 114.96511,146.90553 C 114.95811,146.84983 114.95611,146.79125 114.96311,146.7754 C 114.96911,146.7596 115.16684,146.7151 115.40213,146.6766 C 115.63741,146.6381 115.95915,146.57066 116.11709,146.52668 C 116.27503,146.48268 116.42318,146.45398 116.44633,146.46288 C 116.48233,146.47668 116.48613,146.50768 116.47293,146.67672 C 116.43453,147.16886 116.42973,147.33675 116.45303,147.3712 C 116.47263,147.4002 116.52263,147.3622 116.6935,147.1906 C 117.21983,146.6607 117.6329,146.45659 118.12259,146.48444 C 118.57425,146.51014 118.91236,146.76175 119.05407,147.17764 C 119.07627,147.24284 119.10637,147.29627 119.12077,147.29627 C 119.13527,147.29627 119.22057,147.22747 119.31047,147.14342 C 119.76688,146.71647 120.19995,146.51335 120.71317,146.48553 C 121.01661,146.46903 121.23427,146.51473 121.41984,146.63383 C 121.62091,146.76285 121.72499,146.93659 121.83203,147.32184 C 121.88203,147.50165 121.88633,147.60195 121.90193,148.93256 C 121.91683,150.2016 121.92333,150.36435 121.96383,150.47293 C 122.03043,150.65143 122.10284,150.69302 122.47731,150.76769 L 122.57958,150.78809 L 122.57958,150.92775 L 122.57958,151.06741 L 121.51855,151.06741 L 120.45752,151.06741 L 120.44952,150.98081 C 120.43372,150.8158 120.45852,150.77818 120.59212,150.76063 C 120.86161,150.72533 120.99183,150.64366 121.06086,150.46661 C 121.11656,150.32384 121.12686,147.78437 121.07286,147.5244 C 121.02526,147.2956 120.93417,147.1548 120.77628,147.06621 C 120.67778,147.01091 120.63129,147.00241 120.43226,147.00321 C 120.04392,147.00521 119.732,147.14442 119.35721,147.4846 L 119.16385,147.66011 L 119.17285,149.01862 C 119.18185,150.45743 119.18395,150.48145 119.30485,150.61634 C 119.36895,150.68794 119.43843,150.71719 119.62728,150.75225 C 119.70458,150.76665 119.77635,150.79165 119.78669,150.80785 C 119.81179,150.84725 119.81069,151.00813 119.78469,151.04856 C 119.76869,151.07386 119.54305,151.07936 118.74323,151.07416 L 117.72225,151.06716 L 117.72225,150.92665 L 117.72225,150.78615 L 117.8373,150.76535 C 118.05234,150.72645 118.14167,150.69515 118.21613,150.63251 C 118.35649,150.51442 118.36142,150.45798 118.36142,148.97066 C 118.36142,147.69546 118.35842,147.60657 118.31142,147.46221 C 118.24162,147.24802 118.05558,147.06103 117.8673,147.01586 C 117.52973,146.93486 117.19321,147.08096 116.7541,147.49924 C 116.43872,147.79964 116.45787,147.6978 116.45721,149.07806 C 116.45685,149.83561 116.46621,150.30584 116.48451,150.38911 C 116.53231,150.61191 116.63787,150.69802 116.93527,150.75673 L 117.08305,150.78593 L 117.08305,150.92655 L 117.08305,151.06717 L 116.01494,151.07417 C 115.11978,151.08017 114.9446,151.07506 114.93312,151.04517 L 114.93273,151.045 z" id="path5570" style="fill:#000000;fill-opacity:1;fill-rule:nonzero;stroke:none"></path><path d="M 124.85501,151.1577 C 123.99396,151.0608 123.39086,150.5258 123.17939,149.67124 C 123.04447,149.12604 123.10449,148.34758 123.32108,147.83294 C 123.53047,147.33545 123.9461,146.90216 124.4352,146.67146 C 124.70009,146.54651 124.8893,146.5036 125.17358,146.50399 C 125.75889,146.5048 126.28834,146.71421 126.50642,147.03117 C 126.73489,147.36325 126.86154,147.76376 126.86184,148.15515 C 126.86199,148.35236 126.85484,148.39445 126.81284,148.43224 C 126.76704,148.47364 126.66538,148.47614 125.35193,148.46814 L 123.94025,148.45914 L 123.95525,148.76594 C 123.99985,149.67668 124.4341,150.40073 125.06964,150.62407 C 125.2694,150.69427 125.77824,150.68007 126.00555,150.59807 C 126.18355,150.53377 126.4482,150.36 126.5904,150.21403 C 126.69227,150.10945 126.72876,150.10398 126.8173,150.18003 C 126.8946,150.24643 126.8678,150.30447 126.66389,150.51306 C 126.33946,150.84493 125.95333,151.06146 125.56759,151.12784 C 125.33559,151.16774 125.05188,151.17954 124.85503,151.15734 L 124.85501,151.1577 z M 125.50268,148.09741 C 126.05307,148.07651 126.0389,148.08741 125.99541,147.71868 C 125.94321,147.27587 125.8032,147.03778 125.51059,146.89408 C 125.38542,146.83258 125.33593,146.82328 125.13625,146.82328 C 124.92125,146.82328 124.89293,146.82928 124.70486,146.92168 C 124.44152,147.05034 124.30066,147.19342 124.17687,147.45796 C 124.09587,147.63114 123.97295,148.01422 123.97295,148.0937 C 123.97295,148.1186 124.88545,148.1209 125.50268,148.0977 L 125.50268,148.09741 z" id="path5572" style="fill:#000000;fill-opacity:1;fill-rule:nonzero;stroke:none"></path></g>
<g id="Wikipedia">
	<path d="M 18.757,118.893 C 18.757,118.893 18.39,118.147 18.265,117.899 C 17.431,116.247 17.449,116.159 16.606,116.047 C 16.37,116.016 16.248,115.986 16.248,115.869 L 16.248,115.346 L 16.319,115.295 C 17.842,115.293 21.231,115.293 21.231,115.293 L 21.361,115.336 L 21.361,115.857 C 21.361,115.976 21.276,116.037 21.103,116.037 L 20.747,116.088 C 19.847,116.158 19.994,116.526 20.592,117.717 L 26.269,129.332 L 26.463,129.385 L 31.503,117.424 C 31.678,116.942 31.651,116.6 31.426,116.399 C 31.2,116.204 31.041,116.087 30.457,116.063 L 29.984,116.04 C 29.926,116.04 29.871,116.019 29.818,115.979 C 29.766,115.942 29.739,115.893 29.739,115.834 L 29.739,115.336 L 29.811,115.285 C 31.231,115.285 35.505,115.285 35.505,115.285 L 35.563,115.336 L 35.563,115.834 C 35.563,115.969 35.486,116.037 35.334,116.037 C 34.588,116.07 34.035,116.232 33.677,116.521 C 33.318,116.812 33.038,117.212 32.837,117.734 C 32.837,117.734 28.202,128.342 26.616,131.869 C 26.009,133.025 25.412,132.919 24.887,131.836 C 23.778,129.552 20.655,122.623 20.655,122.623 L 18.757,118.893 z" id="path3898"></path>
	<path d="M 27.853,115.287 C 27.853,115.287 24.65,115.277 23.224,115.287 L 23.153,115.338 L 23.153,115.834 C 23.153,115.895 23.179,115.943 23.231,115.98 C 23.284,116.019 23.338,116.039 23.396,116.039 L 23.625,116.064 C 24.208,116.087 24.476,116.241 24.556,116.336 C 24.695,116.506 24.764,116.69 24.427,117.425 L 18.447,129.353 L 18.29,129.312 C 18.29,129.312 14.007,120.281 12.767,117.259 C 12.638,116.947 12.58,116.714 12.58,116.571 C 12.58,116.264 12.857,116.098 13.411,116.075 L 14.057,116.048 C 14.228,116.048 14.315,115.982 14.315,115.845 L 14.315,115.349 L 14.257,115.298 C 14.257,115.298 9.127,115.292 8.067,115.298 L 8.009,115.349 L 8.009,115.87 C 8.009,115.964 8.128,116.022 8.367,116.048 C 9.018,116.083 9.446,116.187 9.652,116.36 C 9.857,116.535 10.074,116.977 10.362,117.666 C 11.919,121.406 15.227,128.08 16.838,131.881 C 17.302,132.919 17.885,133.08 18.593,131.849 C 19.819,129.576 23.143,122.631 23.143,122.631 L 25.761,117.735 C 26.066,117.217 26.36,116.756 26.509,116.542 C 26.782,116.149 26.935,116.075 27.681,116.04 C 27.833,116.04 27.91,115.972 27.91,115.835 L 27.91,115.339 L 27.853,115.287 z" id="path3900"></path>
	<path d="M 37.592,130.77 C 37.592,131.342 37.852,131.68 38.684,131.758 L 39.23,131.811 C 39.308,131.811 39.386,131.862 39.386,131.966 L 39.386,132.512 L 39.36,132.565 C 39.36,132.565 37.384,132.512 36.578,132.512 C 35.85,132.512 33.822,132.565 33.822,132.565 L 33.77,132.512 L 33.77,131.966 C 33.77,131.862 33.848,131.811 33.952,131.811 L 34.472,131.758 C 35.33,131.68 35.59,131.264 35.59,130.77 L 35.59,122.112 C 35.59,121.542 35.277,121.383 34.472,121.307 L 33.952,121.253 C 33.848,121.253 33.77,121.229 33.77,121.149 L 33.77,120.55 L 33.796,120.498 C 33.796,120.498 35.85,120.55 36.656,120.55 C 37.358,120.55 39.36,120.498 39.36,120.498 L 39.386,120.55 L 39.386,121.122 C 39.386,121.2 39.334,121.252 39.23,121.252 L 38.684,121.305 C 37.878,121.382 37.592,121.591 37.592,122.112 L 37.592,130.77 z" id="path3904"></path>
	<path d="M 45.265,130.77 C 45.265,131.342 45.603,131.628 46.357,131.758 L 46.643,131.811 C 46.721,131.836 46.799,131.862 46.799,131.966 L 46.799,132.512 L 46.773,132.565 C 46.773,132.565 45.135,132.512 44.355,132.512 C 43.627,132.512 41.495,132.565 41.495,132.565 L 41.443,132.512 L 41.443,131.966 C 41.443,131.862 41.521,131.811 41.625,131.811 L 42.145,131.758 C 42.925,131.68 43.263,131.264 43.263,130.77 L 43.263,122.112 C 43.263,121.542 42.977,121.383 42.145,121.307 L 41.625,121.253 C 41.521,121.253 41.443,121.229 41.443,121.149 L 41.443,120.55 L 41.469,120.498 C 41.469,120.498 43.601,120.55 44.407,120.55 C 45.136,120.55 46.773,120.498 46.773,120.498 L 46.799,120.55 L 46.799,121.122 C 46.799,121.2 46.747,121.226 46.643,121.252 L 46.357,121.305 C 45.551,121.46 45.265,121.591 45.265,122.112 L 45.265,126.039 C 46.123,126.039 46.617,125.599 47.761,124.375 C 48.801,123.229 49.607,122.271 49.607,121.774 C 49.607,121.565 49.373,121.333 48.853,121.253 C 48.749,121.229 48.697,121.201 48.697,121.123 L 48.697,120.523 L 48.723,120.499 C 48.723,120.499 50.829,120.551 51.583,120.551 C 52.259,120.551 53.403,120.499 53.403,120.499 L 53.481,120.523 L 53.481,121.123 C 53.481,121.201 53.403,121.253 53.273,121.253 C 52.259,121.331 51.557,121.383 50.621,122.449 L 48.385,125.021 C 47.943,125.491 47.787,125.775 47.787,125.984 C 47.787,126.14 47.891,126.269 48.021,126.425 L 51.947,131.157 C 52.259,131.52 52.883,131.677 53.403,131.78 L 53.533,131.805 C 53.611,131.83 53.715,131.882 53.715,131.96 L 53.715,132.506 L 53.637,132.532 C 53.637,132.532 52.259,132.506 51.531,132.506 C 50.881,132.506 49.945,132.532 49.945,132.532 L 49.919,132.506 L 49.919,132.194 C 49.919,131.855 49.893,131.571 49.529,131.155 L 46.643,127.566 C 46.253,127.045 45.837,126.917 45.265,126.917 L 45.265,130.77 L 45.265,130.77 z" id="path3906"></path>
	<path d="M 59.282,130.77 C 59.282,131.342 59.542,131.68 60.374,131.758 L 60.92,131.811 C 60.998,131.811 61.076,131.862 61.076,131.966 L 61.076,132.512 L 61.05,132.565 C 61.05,132.565 59.074,132.512 58.268,132.512 C 57.54,132.512 55.512,132.565 55.512,132.565 L 55.46,132.512 L 55.46,131.966 C 55.46,131.862 55.538,131.811 55.642,131.811 L 56.162,131.758 C 57.02,131.68 57.28,131.264 57.28,130.77 L 57.28,122.112 C 57.28,121.542 56.968,121.383 56.162,121.307 L 55.642,121.253 C 55.538,121.253 55.46,121.229 55.46,121.149 L 55.46,120.55 L 55.486,120.498 C 55.486,120.498 57.54,120.55 58.346,120.55 C 59.048,120.55 61.05,120.498 61.05,120.498 L 61.076,120.55 L 61.076,121.122 C 61.076,121.2 61.024,121.252 60.92,121.252 L 60.374,121.305 C 59.568,121.382 59.282,121.591 59.282,122.112 L 59.282,130.77 z" id="path3908"></path>
	<path d="M 64.9,122.163 C 64.9,121.357 64.562,121.331 63.34,121.253 C 63.184,121.253 63.158,121.176 63.158,121.123 L 63.158,120.525 L 63.21,120.499 C 63.6,120.499 65.134,120.551 65.888,120.551 C 66.616,120.551 67.656,120.499 68.618,120.499 C 72.308,120.499 72.984,122.318 72.984,123.672 C 72.984,125.233 72.23,127.676 68.54,127.676 C 67.89,127.676 67.37,127.623 66.901,127.416 L 66.901,130.898 C 66.901,131.469 67.213,131.601 68.046,131.73 L 68.567,131.808 C 68.671,131.833 68.75,131.861 68.75,131.963 L 68.75,132.509 L 68.726,132.562 C 68.726,132.562 66.645,132.509 65.839,132.509 C 65.111,132.509 63.161,132.562 63.161,132.562 L 63.135,132.509 L 63.135,131.963 C 63.135,131.859 63.187,131.833 63.291,131.808 L 63.837,131.73 C 64.643,131.626 64.903,131.392 64.903,130.898 L 64.9,122.163 L 64.9,122.163 L 64.9,122.163 z M 66.902,126.688 C 67.422,126.897 68.072,126.922 68.592,126.922 C 70.153,126.922 70.904,125.984 70.904,123.984 C 70.904,121.748 69.89,121.254 68.462,121.254 C 67.213,121.254 66.901,121.488 66.901,122.164 L 66.902,126.688 L 66.902,126.688 z" id="path3910"></path>
	<path d="M 77.462,132.512 C 76.682,132.512 74.889,132.565 74.889,132.565 L 74.862,132.512 L 74.862,131.94 C 74.862,131.889 74.889,131.811 75.018,131.811 L 75.618,131.758 C 76.425,131.68 76.659,131.16 76.659,130.641 L 76.659,122.061 C 76.659,121.461 76.347,121.358 75.618,121.307 L 75.018,121.253 C 74.862,121.229 74.862,121.176 74.862,121.149 L 74.862,120.55 L 74.889,120.498 C 74.889,120.498 76.916,120.55 77.696,120.55 L 81.518,120.55 C 82.298,120.55 84.145,120.498 84.145,120.498 L 84.199,120.55 C 84.223,121.668 84.405,122.684 84.589,123.671 L 83.941,123.775 C 83.656,122.812 83.162,121.435 81.498,121.435 L 79.418,121.435 C 78.924,121.435 78.664,121.617 78.664,122.058 L 78.664,125.829 L 80.613,125.829 C 81.342,125.829 81.523,125.517 81.628,124.997 L 81.783,124.451 C 81.783,124.373 81.836,124.32 81.939,124.32 L 82.379,124.32 C 82.433,124.32 82.433,124.347 82.433,124.398 C 82.379,124.969 82.277,125.699 82.277,126.323 C 82.277,126.972 82.381,127.519 82.433,128.117 L 82.379,128.17 L 81.939,128.17 C 81.81,128.17 81.755,128.117 81.755,128.039 L 81.625,127.468 C 81.521,126.947 81.287,126.661 80.608,126.661 L 78.66,126.661 L 78.66,130.64 C 78.66,131.132 78.943,131.626 79.414,131.626 L 81.884,131.626 C 83.21,131.626 83.94,130.794 84.25,129.44 L 84.898,129.518 L 84.377,132.507 L 84.325,132.559 C 84.325,132.559 82.791,132.507 82.011,132.507 L 77.462,132.512 L 77.462,132.512 L 77.462,132.512 z" id="path3912"></path>
	<path d="M 87.24,131.811 L 87.838,131.758 C 88.619,131.68 88.879,131.446 88.879,130.641 L 88.879,122.061 C 88.879,121.383 88.695,121.383 87.838,121.307 L 87.268,121.253 C 87.164,121.253 87.084,121.201 87.084,121.123 L 87.084,120.551 L 87.109,120.499 C 87.109,120.499 89.398,120.551 89.867,120.551 C 90.359,120.551 92.623,120.499 93.299,120.499 C 97.641,120.499 99.774,123.203 99.774,126.661 C 99.774,131.212 96.549,132.562 93.665,132.562 C 91.585,132.562 90.676,132.509 89.87,132.509 C 89.089,132.509 87.112,132.562 87.112,132.562 L 87.087,132.509 L 87.087,131.963 C 87.084,131.889 87.137,131.811 87.24,131.811 z M 93.039,131.811 C 95.898,131.811 97.512,130.747 97.512,127.104 C 97.512,124.401 96.913,121.253 92.545,121.253 C 91.531,121.253 90.881,121.409 90.881,122.061 L 90.881,130.641 C 90.881,131.367 91.062,131.811 93.039,131.811 z" id="path3914"></path>
	<path d="M 105.912,130.77 C 105.912,131.342 106.172,131.68 107.004,131.758 L 107.55,131.811 C 107.628,131.811 107.706,131.862 107.706,131.966 L 107.706,132.512 L 107.68,132.565 C 107.68,132.565 105.704,132.512 104.899,132.512 C 104.17,132.512 102.143,132.565 102.143,132.565 L 102.09,132.512 L 102.09,131.966 C 102.09,131.862 102.168,131.811 102.272,131.811 L 102.793,131.758 C 103.65,131.68 103.911,131.264 103.911,130.77 L 103.911,122.112 C 103.911,121.542 103.598,121.383 102.793,121.307 L 102.272,121.253 C 102.168,121.253 102.09,121.229 102.09,121.149 L 102.09,120.55 L 102.116,120.498 C 102.116,120.498 104.17,120.55 104.974,120.55 C 105.675,120.55 107.679,120.498 107.679,120.498 L 107.703,120.55 L 107.703,121.122 C 107.703,121.2 107.649,121.252 107.547,121.252 L 107.001,121.305 C 106.194,121.382 105.909,121.591 105.909,122.112 L 105.912,130.77 L 105.912,130.77 L 105.912,130.77 z" id="path3916"></path>
	<path d="M 113.922,131.758 L 114.676,131.811 C 114.78,131.811 114.884,131.889 114.884,132.018 L 114.884,132.512 L 114.832,132.565 C 114.832,132.565 111.998,132.512 111.374,132.512 C 110.697,132.512 109.033,132.565 109.033,132.565 L 108.98,132.512 L 108.98,132.018 C 108.98,131.889 109.058,131.811 109.189,131.811 C 110.334,131.733 110.982,131.524 111.71,129.86 L 117.481,116.339 C 117.766,115.663 117.975,115.402 118.367,115.402 C 118.729,115.402 118.86,115.663 119.067,116.183 L 124.397,130.275 C 124.762,131.29 125.283,131.679 126.323,131.783 L 126.608,131.808 C 126.739,131.808 126.869,131.885 126.869,132.017 L 126.869,132.509 L 126.791,132.562 C 126.791,132.562 124.789,132.509 123.774,132.509 C 122.864,132.509 120.315,132.562 120.315,132.562 L 120.291,132.509 L 120.291,132.017 C 120.291,131.885 120.343,131.808 120.476,131.808 L 121.204,131.755 C 122.191,131.678 122.557,131.364 122.296,130.638 L 120.71,126.242 L 115.3,126.242 C 114.676,126.242 114.52,126.346 114.391,126.682 L 112.882,130.453 C 112.622,131.107 112.96,131.68 113.922,131.758 z M 120.292,125.152 L 117.77,118.211 L 117.718,118.211 L 115.118,124.815 C 115.014,125.077 115.195,125.153 115.767,125.153 L 120.292,125.153 L 120.292,125.152 z" id="path3918"></path>
</g>

<g transform="translate(164.5659,-67.362559)" id="grid">
</g></svg>
</svg>