<?xml version="1.0" encoding="UTF-8" standalone="no"?>
<svg id="svg3857" width="135px" height="155px" enable-background="new 0 0 135 155" version="1.1" viewBox="0 0 135 155" xml:space="preserve" xmlns="http://www.w3.org/2000/svg" xmlns:cc="http://creativecommons.org/ns#" xmlns:dc="http://purl.org/dc/elements/1.1/" xmlns:rdf="http://www.w3.org/1999/02/22-rdf-syntax-ns#"><metadata id="metadata698"><rdf:rdf><cc:work rdf:about=""><dc:format>image/svg+xml</dc:format><dc:type rdf:resource="http://purl.org/dc/dcmitype/StillImage"></dc:type><dc:title></dc:title></cc:work></rdf:rdf></metadata><g id="Wikipedia"><path id="path3898" d="m18.757 118.89s-0.367-0.746-0.492-0.994c-0.834-1.652-0.816-1.74-1.659-1.852-0.236-0.031-0.358-0.061-0.358-0.178v-0.523l0.071-0.051c1.523-2e-3 4.912-2e-3 4.912-2e-3l0.13 0.043v0.521c0 0.119-0.085 0.18-0.258 0.18l-0.356 0.051c-0.9 0.07-0.753 0.438-0.155 1.629l5.677 11.615 0.194 0.053 5.04-11.961c0.175-0.482 0.148-0.824-0.077-1.025-0.226-0.195-0.385-0.312-0.969-0.336l-0.473-0.023c-0.058 0-0.113-0.021-0.166-0.061-0.052-0.037-0.079-0.086-0.079-0.145v-0.498l0.072-0.051h5.694l0.058 0.051v0.498c0 0.135-0.077 0.203-0.229 0.203-0.746 0.033-1.299 0.195-1.657 0.484-0.359 0.291-0.639 0.691-0.84 1.213 0 0-4.635 10.608-6.221 14.135-0.607 1.156-1.204 1.05-1.729-0.033-1.109-2.284-4.232-9.213-4.232-9.213l-1.898-3.73z"></path><path id="path3900" d="m27.853 115.29s-3.203-0.01-4.629 0l-0.071 0.051v0.496c0 0.061 0.026 0.109 0.078 0.146 0.053 0.039 0.107 0.059 0.165 0.059l0.229 0.025c0.583 0.023 0.851 0.177 0.931 0.272 0.139 0.17 0.208 0.354-0.129 1.089l-5.98 11.928-0.157-0.041s-4.283-9.031-5.523-12.053c-0.129-0.312-0.187-0.545-0.187-0.688 0-0.307 0.277-0.473 0.831-0.496l0.646-0.027c0.171 0 0.258-0.066 0.258-0.203v-0.496l-0.058-0.051s-5.13-6e-3 -6.19 0l-0.058 0.051v0.521c0 0.094 0.119 0.152 0.358 0.178 0.651 0.035 1.079 0.139 1.285 0.312 0.205 0.175 0.422 0.617 0.71 1.306 1.557 3.74 4.865 10.414 6.476 14.215 0.464 1.038 1.047 1.199 1.755-0.032 1.226-2.273 4.55-9.218 4.55-9.218l2.618-4.896c0.305-0.518 0.599-0.979 0.748-1.193 0.273-0.393 0.426-0.467 1.172-0.502 0.152 0 0.229-0.068 0.229-0.205v-0.496l-0.057-0.052z"></path><path id="path3904" d="m37.592 130.77c0 0.572 0.26 0.91 1.092 0.988l0.546 0.053c0.078 0 0.156 0.051 0.156 0.155v0.546l-0.026 0.053s-1.976-0.053-2.782-0.053c-0.728 0-2.756 0.053-2.756 0.053l-0.052-0.053v-0.546c0-0.104 0.078-0.155 0.182-0.155l0.52-0.053c0.858-0.078 1.118-0.494 1.118-0.988v-8.658c0-0.57-0.313-0.729-1.118-0.805l-0.52-0.054c-0.104 0-0.182-0.024-0.182-0.104v-0.599l0.026-0.052s2.054 0.052 2.86 0.052c0.702 0 2.704-0.052 2.704-0.052l0.026 0.052v0.572c0 0.078-0.052 0.13-0.156 0.13l-0.546 0.053c-0.806 0.077-1.092 0.286-1.092 0.807v8.658z"></path><path id="path3906" d="m45.265 130.77c0 0.572 0.338 0.858 1.092 0.988l0.286 0.053c0.078 0.025 0.156 0.051 0.156 0.155v0.546l-0.026 0.053s-1.638-0.053-2.418-0.053c-0.728 0-2.86 0.053-2.86 0.053l-0.052-0.053v-0.546c0-0.104 0.078-0.155 0.182-0.155l0.52-0.053c0.78-0.078 1.118-0.494 1.118-0.988v-8.658c0-0.57-0.286-0.729-1.118-0.805l-0.52-0.054c-0.104 0-0.182-0.024-0.182-0.104v-0.599l0.026-0.052s2.132 0.052 2.938 0.052c0.729 0 2.366-0.052 2.366-0.052l0.026 0.052v0.572c0 0.078-0.052 0.104-0.156 0.13l-0.286 0.053c-0.806 0.155-1.092 0.286-1.092 0.807v3.927c0.858 0 1.352-0.44 2.496-1.664 1.04-1.146 1.846-2.104 1.846-2.601 0-0.209-0.234-0.441-0.754-0.521-0.104-0.024-0.156-0.052-0.156-0.13v-0.6l0.026-0.024s2.106 0.052 2.86 0.052c0.676 0 1.82-0.052 1.82-0.052l0.078 0.024v0.6c0 0.078-0.078 0.13-0.208 0.13-1.014 0.078-1.716 0.13-2.652 1.196l-2.236 2.572c-0.442 0.47-0.598 0.754-0.598 0.963 0 0.156 0.104 0.285 0.234 0.441l3.926 4.732c0.312 0.363 0.936 0.52 1.456 0.623l0.13 0.025c0.078 0.025 0.182 0.077 0.182 0.155v0.546l-0.078 0.026s-1.378-0.026-2.106-0.026c-0.65 0-1.586 0.026-1.586 0.026l-0.026-0.026v-0.312c0-0.339-0.026-0.623-0.39-1.039l-2.886-3.589c-0.39-0.521-0.806-0.649-1.378-0.649v3.853z"></path><path id="path3908" d="m59.282 130.77c0 0.572 0.26 0.91 1.092 0.988l0.546 0.053c0.078 0 0.156 0.051 0.156 0.155v0.546l-0.026 0.053s-1.976-0.053-2.782-0.053c-0.728 0-2.756 0.053-2.756 0.053l-0.052-0.053v-0.546c0-0.104 0.078-0.155 0.182-0.155l0.52-0.053c0.858-0.078 1.118-0.494 1.118-0.988v-8.658c0-0.57-0.312-0.729-1.118-0.805l-0.52-0.054c-0.104 0-0.182-0.024-0.182-0.104v-0.599l0.026-0.052s2.054 0.052 2.86 0.052c0.702 0 2.704-0.052 2.704-0.052l0.026 0.052v0.572c0 0.078-0.052 0.13-0.156 0.13l-0.546 0.053c-0.806 0.077-1.092 0.286-1.092 0.807v8.658z"></path><path id="path3910" d="m64.9 122.16c0-0.806-0.338-0.832-1.56-0.91-0.156 0-0.182-0.077-0.182-0.13v-0.598l0.052-0.026c0.39 0 1.924 0.052 2.678 0.052 0.728 0 1.768-0.052 2.73-0.052 3.69 0 4.366 1.819 4.366 3.173 0 1.561-0.754 4.004-4.444 4.004-0.65 0-1.17-0.053-1.639-0.26v3.482c0 0.571 0.312 0.703 1.145 0.832l0.521 0.078c0.104 0.025 0.183 0.053 0.183 0.155v0.546l-0.024 0.053s-2.081-0.053-2.887-0.053c-0.728 0-2.678 0.053-2.678 0.053l-0.026-0.053v-0.546c0-0.104 0.052-0.13 0.156-0.155l0.546-0.078c0.806-0.104 1.066-0.338 1.066-0.832l-3e-3 -8.735zm2.002 4.525c0.52 0.209 1.17 0.234 1.69 0.234 1.561 0 2.312-0.938 2.312-2.938 0-2.236-1.014-2.73-2.442-2.73-1.249 0-1.561 0.234-1.561 0.91l1e-3 4.524z"></path><path id="path3912" d="m77.462 132.51c-0.78 0-2.573 0.053-2.573 0.053l-0.027-0.053v-0.572c0-0.051 0.027-0.129 0.156-0.129l0.6-0.053c0.807-0.078 1.041-0.598 1.041-1.117v-8.58c0-0.6-0.312-0.703-1.041-0.754l-0.6-0.054c-0.156-0.024-0.156-0.077-0.156-0.104v-0.599l0.027-0.052s2.027 0.052 2.807 0.052h3.822c0.78 0 2.627-0.052 2.627-0.052l0.054 0.052c0.024 1.118 0.206 2.134 0.39 3.121l-0.648 0.104c-0.285-0.963-0.779-2.34-2.443-2.34h-2.08c-0.494 0-0.754 0.182-0.754 0.623v3.771h1.949c0.729 0 0.91-0.312 1.015-0.832l0.155-0.546c0-0.078 0.053-0.131 0.156-0.131h0.44c0.054 0 0.054 0.027 0.054 0.078-0.054 0.571-0.156 1.301-0.156 1.925 0 0.649 0.104 1.196 0.156 1.794l-0.054 0.053h-0.44c-0.129 0-0.184-0.053-0.184-0.131l-0.13-0.571c-0.104-0.521-0.338-0.807-1.017-0.807h-1.948v3.979c0 0.492 0.283 0.986 0.754 0.986h2.47c1.326 0 2.056-0.832 2.366-2.186l0.648 0.078-0.521 2.989-0.052 0.052s-1.534-0.052-2.314-0.052l-4.549 5e-3z"></path><path id="path3914" d="m87.24 131.81 0.598-0.053c0.781-0.078 1.041-0.312 1.041-1.117v-8.58c0-0.678-0.184-0.678-1.041-0.754l-0.57-0.054c-0.104 0-0.184-0.052-0.184-0.13v-0.572l0.025-0.052s2.289 0.052 2.758 0.052c0.492 0 2.756-0.052 3.432-0.052 4.342 0 6.475 2.704 6.475 6.162 0 4.551-3.225 5.901-6.109 5.901-2.08 0-2.989-0.053-3.795-0.053-0.781 0-2.758 0.053-2.758 0.053l-0.025-0.053v-0.546c-3e-3 -0.074 0.05-0.152 0.153-0.152zm5.799 0c2.859 0 4.473-1.064 4.473-4.707 0-2.703-0.599-5.851-4.967-5.851-1.014 0-1.664 0.156-1.664 0.808v8.58c0 0.726 0.181 1.17 2.158 1.17z"></path><path id="path3916" d="m105.91 130.77c0 0.572 0.26 0.91 1.092 0.988l0.546 0.053c0.078 0 0.156 0.051 0.156 0.155v0.546l-0.026 0.053s-1.976-0.053-2.781-0.053c-0.729 0-2.756 0.053-2.756 0.053l-0.053-0.053v-0.546c0-0.104 0.078-0.155 0.182-0.155l0.521-0.053c0.857-0.078 1.118-0.494 1.118-0.988v-8.658c0-0.57-0.313-0.729-1.118-0.805l-0.521-0.054c-0.104 0-0.182-0.024-0.182-0.104v-0.599l0.026-0.052s2.054 0.052 2.858 0.052c0.701 0 2.705-0.052 2.705-0.052l0.024 0.052v0.572c0 0.078-0.054 0.13-0.156 0.13l-0.546 0.053c-0.807 0.077-1.092 0.286-1.092 0.807l3e-3 8.658z"></path><path id="path3918" d="m113.92 131.76 0.754 0.053c0.104 0 0.208 0.078 0.208 0.207v0.494l-0.052 0.053s-2.834-0.053-3.458-0.053c-0.677 0-2.341 0.053-2.341 0.053l-0.053-0.053v-0.494c0-0.129 0.078-0.207 0.209-0.207 1.145-0.078 1.793-0.287 2.521-1.951l5.771-13.521c0.285-0.676 0.494-0.937 0.886-0.937 0.362 0 0.493 0.261 0.7 0.781l5.33 14.092c0.365 1.015 0.886 1.404 1.926 1.508l0.285 0.025c0.131 0 0.261 0.077 0.261 0.209v0.492l-0.078 0.053s-2.002-0.053-3.017-0.053c-0.91 0-3.459 0.053-3.459 0.053l-0.024-0.053v-0.492c0-0.132 0.052-0.209 0.185-0.209l0.728-0.053c0.987-0.077 1.353-0.391 1.092-1.117l-1.586-4.396h-5.41c-0.624 0-0.78 0.104-0.909 0.44l-1.509 3.771c-0.26 0.654 0.078 1.227 1.04 1.305zm6.37-6.606-2.522-6.941h-0.052l-2.6 6.604c-0.104 0.262 0.077 0.338 0.649 0.338h4.525v-1e-3z"></path></g><g id="text702" transform="translate(0 -36.423)" stroke-width=".27401px" aria-label="Ko maanditorde wellitiinde"><path id="path704" d="m9.9345 181.45v-2.0387c0.3617 0.011 0.67956 0.13153 0.90973 0.40554l1.7208 2.1702c0.21921 0.28497 0.37266 0.58091 0.39458 0.75628 0 0.0329 0.01096 0.0658 0.0548 0.0658 0.21921-0.011 0.35074-0.0219 0.59187-0.0219 0.37266 0 0.74532 0.011 1.107 0.0219 0.06576-0.0658 0.06576-0.29594 0-0.3617-0.31786-0.0219-0.63571-0.0548-0.96453-0.46034l-2.4004-2.8498c-0.08768-0.0986-0.14249-0.18633-0.14249-0.27402 0-0.0767 0.01096-0.15345 0.38362-0.53707l1.6112-1.655c0.50419-0.53706 0.94261-0.58091 1.381-0.61379 0.06576-0.0658 0.06576-0.29593 0-0.3617-0.33978 0.011-0.69052 0.0219-1.0413 0.0219-0.40554 0-0.833-0.011-1.2385-0.0219-0.06576 0.0658-0.06576 0.29594 0 0.3617 0.39458 0.0438 0.76724 0.0877 0.3069 0.56995l-1.8085 1.9291c-0.24113 0.2521-0.48226 0.39459-0.86589 0.42747v-1.9291c0-0.90973 0.18633-0.96454 0.95357-0.99742 0.06576-0.0658 0.06576-0.29593 0-0.3617-0.50419 0.011-1.0303 0.0219-1.4249 0.0219-0.42746 0-0.92069-0.011-1.4139-0.0219-0.065763 0.0658-0.065763 0.29594 0 0.3617 0.76724 0.0329 0.95357 0.0877 0.95357 0.99742v4.3952c0 0.90973-0.18633 0.96453-0.95357 0.99741-0.065763 0.0658-0.065763 0.29594 0 0.3617 0.49323-0.011 0.99741-0.0219 1.4249-0.0219 0.4165 0 0.92069 0.011 1.4139 0.0219 0.06576-0.0658 0.06576-0.29594 0-0.3617-0.76724-0.0329-0.95357-0.0877-0.95357-0.99741z"></path><path id="path706" d="m15.025 180.54c0 1.118 0.74532 2.3565 2.3017 2.3565 0.70148 0 1.2276-0.24113 1.6002-0.61379 0.49323-0.4713 0.7234-1.1618 0.7234-1.8414 0-1.1399-0.62475-2.4661-2.3017-2.4661-0.7234 0-1.3262 0.29594-1.7208 0.76724-0.39458 0.47131-0.60283 1.107-0.60283 1.7975zm2.1592-2.1812c0.94261 0 1.5235 0.85493 1.5235 2.4332 0 1.381-0.71244 1.7208-1.2276 1.7208-1.1399 0-1.5126-1.381-1.5126-2.225 0-0.95357 0.23017-1.9291 1.2166-1.9291z"></path><path id="path708" d="m23.876 178.86c-0.02192-0.31786-0.04384-0.71244-0.08769-0.833-0.03288-0.0438-0.04384-0.0877-0.13153-0.0877-0.3069 0.12057-0.59187 0.21921-1.3482 0.31786-0.02192 0.0658 0 0.24113 0.02192 0.3069 0.59187 0.0548 0.71244 0.1096 0.71244 0.74531v2.1373c0 0.89876-0.14249 0.95357-0.74532 0.99741-0.06576 0.0658-0.06576 0.29594 0 0.3617 0.32882-0.011 0.74532-0.0219 1.1837-0.0219s0.76724 0.011 1.0961 0.0219c0.06576-0.0658 0.06576-0.29594 0-0.3617-0.54803-0.0548-0.6686-0.0986-0.6686-0.99741v-1.7975c0-0.23017 0.09865-0.3617 0.18633-0.46034 0.42746-0.4165 0.84396-0.64668 1.1837-0.64668 0.4165 0 0.7234 0.26306 0.7234 0.99742v1.9071c0 0.89876-0.08769 0.95357-0.67956 0.99741-0.0548 0.0658-0.0548 0.29594 0 0.3617 0.27401-0.011 0.67956-0.0219 1.118-0.0219s0.80012 0.011 1.0741 0.0219c0.0548-0.0658 0.0548-0.29594 0-0.3617-0.54803-0.0438-0.64667-0.0986-0.64667-0.99741v-1.7427c0-0.15345 0-0.3069-0.01096-0.43843 0.52611-0.58091 1.0193-0.7234 1.4468-0.7234 0.4165 0 0.65764 0.24114 0.65764 0.9755v1.9291c0 0.89876-0.10961 0.95357-0.67956 0.99741-0.0548 0.0658-0.0548 0.29594 0 0.3617 0.27402-0.011 0.67956-0.0219 1.118-0.0219 0.43842 0 0.82204 0.011 1.1289 0.0219 0.0548-0.0658 0.0548-0.29594 0-0.3617-0.60283-0.0438-0.70148-0.0986-0.70148-0.99741v-1.7318c0-0.9755-0.16441-1.7427-1.1289-1.7427-0.56995 0-1.2385 0.20825-1.8085 0.81109-0.03288 0.0329-0.09865 0.0877-0.12057 0-0.1096-0.44939-0.52611-0.81109-1.0961-0.81109-0.63571 0-1.2166 0.38362-1.666 0.88781-0.0548 0.0658-0.13153 0.13153-0.13153 0z"></path><path id="path710" d="m33.842 180.23v1.4468c0 0.14249-0.06576 0.21921-0.15345 0.28497-0.28498 0.23018-0.65764 0.48227-0.96453 0.48227-0.54803 0-0.78916-0.43842-0.78916-0.7782 0-0.49323 0.23017-0.99741 1.0413-1.2057zm0 2.0277c0.06576 0.33978 0.17537 0.63571 0.73436 0.63571 0.4165 0 0.81108-0.18633 1.0413-0.40554-0.02192-0.13152-0.06576-0.21921-0.18633-0.29593-0.08769 0.0767-0.27402 0.17537-0.40554 0.17537-0.31786 0-0.32882-0.42747-0.32882-0.93165v-1.6112c0-1.5564-0.85492-1.8523-1.655-1.8523-0.89877 0-1.8085 0.59188-1.8085 1.2166 0 0.26305 0.13153 0.39458 0.38362 0.39458 0.31786 0 0.51515-0.23017 0.51515-0.37266 0-0.0767-0.01096-0.15345-0.03288-0.19729-0.01096-0.0329-0.02192-0.0987-0.02192-0.21921 0-0.33978 0.46034-0.46035 0.87685-0.46035 0.37266 0 0.88781 0.18633 0.88781 1.4249 0 0.0767-0.03288 0.12056-0.06576 0.13153l-0.94261 0.23017c-1.0522 0.26305-1.8085 0.84396-1.8085 1.5893 0 0.89877 0.61379 1.1837 1.381 1.1837 0.37266 0 0.71244-0.0877 1.1947-0.46034l0.21921-0.17537z"></path><path id="path712" d="m38.821 180.23v1.4468c0 0.14249-0.06576 0.21921-0.15345 0.28497-0.28498 0.23018-0.65764 0.48227-0.96453 0.48227-0.54803 0-0.78916-0.43842-0.78916-0.7782 0-0.49323 0.23017-0.99741 1.0413-1.2057zm0 2.0277c0.06576 0.33978 0.17537 0.63571 0.73436 0.63571 0.4165 0 0.81108-0.18633 1.0413-0.40554-0.02192-0.13152-0.06576-0.21921-0.18633-0.29593-0.08768 0.0767-0.27402 0.17537-0.40554 0.17537-0.31786 0-0.32882-0.42747-0.32882-0.93165v-1.6112c0-1.5564-0.85492-1.8523-1.655-1.8523-0.89877 0-1.8085 0.59188-1.8085 1.2166 0 0.26305 0.13153 0.39458 0.38362 0.39458 0.31786 0 0.51515-0.23017 0.51515-0.37266 0-0.0767-0.01096-0.15345-0.03288-0.19729-0.01096-0.0329-0.02192-0.0987-0.02192-0.21921 0-0.33978 0.46034-0.46035 0.87685-0.46035 0.37266 0 0.88781 0.18633 0.88781 1.4249 0 0.0767-0.03288 0.12056-0.06576 0.13153l-0.94261 0.23017c-1.0522 0.26305-1.8085 0.84396-1.8085 1.5893 0 0.89877 0.61379 1.1837 1.381 1.1837 0.37266 0 0.71244-0.0877 1.1947-0.46034l0.21921-0.17537z"></path><path id="path714" d="m42.605 178.86c-0.07672 0.0767-0.13153 0.10961-0.13153 0-0.01096-0.29593-0.04384-0.71244-0.08769-0.833-0.03288-0.0438-0.04384-0.0877-0.13153-0.0877-0.3069 0.12057-0.59187 0.21921-1.3482 0.31786-0.02192 0.0658 0 0.24113 0.02192 0.3069 0.59187 0.0548 0.71244 0.1096 0.71244 0.74531v2.1373c0 0.89876-0.10961 0.94261-0.76724 0.99741-0.06576 0.0658-0.06576 0.29594 0 0.3617 0.32882-0.011 0.76724-0.0219 1.2057-0.0219s0.76724 0.011 1.0961 0.0219c0.06576-0.0658 0.06576-0.29594 0-0.3617-0.55899-0.0548-0.6686-0.0986-0.6686-0.99741v-1.7975c0-0.23017 0.09864-0.3617 0.18633-0.46034 0.4165-0.40554 0.90973-0.64668 1.3372-0.64668 0.21921 0 0.44938 0.14249 0.58091 0.39458 0.10961 0.21922 0.13153 0.51515 0.13153 0.84397v1.666c0 0.89876-0.10961 0.94261-0.67956 0.99741-0.0548 0.0658-0.0548 0.29594 0 0.3617 0.32882-0.011 0.67956-0.0219 1.118-0.0219s0.833 0.011 1.1618 0.0219c0.0548-0.0658 0.0548-0.29594 0-0.3617-0.61379-0.0548-0.73436-0.0986-0.73436-0.99741v-1.6331c0-0.60283-0.04384-1.1289-0.29594-1.4687-0.18633-0.24113-0.52611-0.37266-0.90973-0.37266-0.53707 0-1.1509 0.14249-1.7975 0.88781z"></path><path id="path716" d="m50.29 181.43c0 0.20825-0.02192 0.29593-0.17537 0.42746-0.40554 0.35074-0.75628 0.52611-1.0303 0.52611-0.59187 0-1.2057-0.64668-1.2057-2.0168 0-0.78916 0.15345-1.2276 0.31786-1.4578 0.33978-0.51514 0.80012-0.54803 1.0193-0.54803 0.39458 0 0.6686 0.14249 0.88781 0.39458 0.15345 0.17537 0.18633 0.2521 0.18633 0.59188zm-0.12057 0.81108c0.04384-0.0438 0.15345-0.0658 0.16441 0.011 0.02192 0.27401 0.12057 0.64667 0.12057 0.64667 0.08769 0.0329 0.14249 0.0329 0.20825 0 0.24113-0.19729 0.62475-0.3617 1.2933-0.43842 0.06576-0.0658 0.06576-0.23017 0-0.29593-0.70148-0.0548-0.80012-0.26306-0.80012-0.80013v-4.9651c0-0.71244 0.04384-1.1509 0.04384-1.1509 0-0.0767-0.04384-0.10961-0.14249-0.10961-0.27401 0.10961-1.0961 0.26306-1.5345 0.29594-0.02192 0.0877 0 0.26305 0.06576 0.32882 0.56995 0.0329 0.70148-0.0219 0.70148 0.89876v1.403c0 0.0767-0.02192 0.0986-0.09865 0.0986-0.04384 0-0.49323-0.18633-0.85492-0.18633-0.7234 0-1.2057 0.24114-1.6441 0.65764-0.4713 0.4713-0.75628 1.118-0.75628 1.9291 0 1.3482 0.67956 2.3346 1.8633 2.3346 0.42746 0 0.833-0.21921 1.3701-0.65763z"></path><path id="path718" d="m53.009 176.22c0 0.28498 0.26305 0.56995 0.52611 0.56995 0.3069 0 0.56995-0.28497 0.56995-0.52611 0-0.26305-0.23017-0.56995-0.52611-0.56995-0.26305 0-0.56995 0.26306-0.56995 0.52611zm0.99741 5.2282v-2.1812c0-0.54803 0.04384-1.2495 0.04384-1.2495 0-0.0439-0.0548-0.0767-0.14249-0.0767-0.31786 0.12057-0.74532 0.21921-1.5016 0.31786-0.02192 0.0658 0 0.24113 0.02192 0.3069 0.59187 0.0658 0.71244 0.12056 0.71244 0.74531v2.1373c0 0.90973-0.12057 0.94261-0.78916 0.99741-0.06576 0.0658-0.06576 0.29594 0 0.3617 0.3617-0.011 0.78916-0.0219 1.2276-0.0219 0.43842 0 0.85493 0.011 1.2166 0.0219 0.06576-0.0658 0.06576-0.29594 0-0.3617-0.6686-0.0438-0.78916-0.0877-0.78916-0.99741z"></path><path id="path720" d="m55.439 178.09c-0.15345 0-0.19729 0.13153-0.19729 0.21921v0.14249c0 0.0548 0.01096 0.0658 0.0548 0.0658h0.64667v3.2991c0 0.7782 0.33978 1.0851 0.84396 1.0851 0.50419 0 1.0522-0.24113 1.4797-0.72339-0.02192-0.10961-0.08769-0.17537-0.19729-0.18633-0.28498 0.21921-0.61379 0.30689-0.89877 0.30689-0.29594 0-0.3617-0.32882-0.3617-1.0084v-2.773h1.1399c0.10961 0 0.26305-0.0438 0.26305-0.14249v-0.21921c0-0.0438-0.03288-0.0658-0.08769-0.0658h-1.3153v-0.42746c0-0.71244 0.04384-1.1509 0.04384-1.1509 0-0.0658-0.03288-0.0877-0.08769-0.0877-0.0548 0-0.14249 0.0438-0.24113 0.0986-0.13153 0.0658-0.24113 0.1096-0.37266 0.15344-0.13153 0.0329-0.24113 0.0767-0.24113 0.14249 0 0.13153 0.03288 0.0548 0.03288 1.2714z"></path><path id="path722" d="m58.855 180.54c0 1.118 0.74532 2.3565 2.3017 2.3565 0.70148 0 1.2276-0.24113 1.6002-0.61379 0.49323-0.4713 0.7234-1.1618 0.7234-1.8414 0-1.1399-0.62475-2.4661-2.3017-2.4661-0.7234 0-1.3262 0.29594-1.7208 0.76724-0.39458 0.47131-0.60283 1.107-0.60283 1.7975zm2.1592-2.1812c0.94261 0 1.5235 0.85493 1.5235 2.4332 0 1.381-0.71244 1.7208-1.2276 1.7208-1.1399 0-1.5126-1.381-1.5126-2.225 0-0.95357 0.23017-1.9291 1.2166-1.9291z"></path><path id="path724" d="m65.827 178.86c-0.02192-0.43842-0.04384-0.71244-0.08768-0.833-0.03288-0.0438-0.04384-0.0877-0.13153-0.0877-0.3069 0.12057-0.59187 0.21921-1.3482 0.31786-0.02192 0.0658 0 0.24113 0.02192 0.3069 0.59187 0.0548 0.71244 0.1096 0.71244 0.74531v2.1373c0 0.90973-0.13153 0.95357-0.81108 0.99741-0.06576 0.0658-0.06576 0.29594 0 0.3617 0.38362-0.011 0.81108-0.0219 1.2495-0.0219 0.43842 0 0.94261 0.011 1.3262 0.0219 0.06576-0.0658 0.06576-0.29594 0-0.3617-0.76724-0.0548-0.89877-0.0877-0.89877-0.99741v-1.5235c0-0.28498 0.13153-0.53707 0.26305-0.73436 0.12057-0.17537 0.37266-0.53707 0.50419-0.53707 0.09865 0 0.19729 0.0329 0.27401 0.14249 0.08768 0.1096 0.20825 0.25209 0.40554 0.25209 0.26305 0 0.51515-0.27401 0.51515-0.54803 0-0.20825-0.19729-0.52611-0.65764-0.52611-0.51515 0-0.96453 0.48227-1.2166 0.90973-0.06576 0.12057-0.12057 0.0329-0.12057-0.0219z"></path><path id="path726" d="m71.631 181.43c0 0.20825-0.02192 0.29593-0.17537 0.42746-0.40554 0.35074-0.75628 0.52611-1.0303 0.52611-0.59187 0-1.2057-0.64668-1.2057-2.0168 0-0.78916 0.15345-1.2276 0.31786-1.4578 0.33978-0.51514 0.80012-0.54803 1.0193-0.54803 0.39458 0 0.6686 0.14249 0.88781 0.39458 0.15345 0.17537 0.18633 0.2521 0.18633 0.59188zm-0.12057 0.81108c0.04384-0.0438 0.15345-0.0658 0.16441 0.011 0.02192 0.27401 0.12057 0.64667 0.12057 0.64667 0.08768 0.0329 0.14249 0.0329 0.20825 0 0.24113-0.19729 0.62475-0.3617 1.2933-0.43842 0.06576-0.0658 0.06576-0.23017 0-0.29593-0.70148-0.0548-0.80012-0.26306-0.80012-0.80013v-4.9651c0-0.71244 0.04384-1.1509 0.04384-1.1509 0-0.0767-0.04384-0.10961-0.14249-0.10961-0.27402 0.10961-1.0961 0.26306-1.5345 0.29594-0.02192 0.0877 0 0.26305 0.06576 0.32882 0.56995 0.0329 0.70148-0.0219 0.70148 0.89876v1.403c0 0.0767-0.02192 0.0986-0.09864 0.0986-0.04384 0-0.49323-0.18633-0.85492-0.18633-0.7234 0-1.2057 0.24114-1.6441 0.65764-0.4713 0.4713-0.75628 1.118-0.75628 1.9291 0 1.3482 0.67956 2.3346 1.8633 2.3346 0.42746 0 0.833-0.21921 1.3701-0.65763z"></path><path id="path728" d="m74.722 179.7c0.20825-1.2385 0.97549-1.3372 1.2385-1.3372 0.4165 0 0.90973 0.23018 0.90973 1.1509 0 0.0987-0.04384 0.15345-0.16441 0.15345zm2.8717 2.0716c-0.40554 0.41651-0.7234 0.59188-1.3591 0.59188-0.39458 0-0.85492-0.23018-1.1947-0.78917-0.21921-0.3617-0.35074-0.86588-0.35074-1.5016l2.9155 0.0219c0.13153 0 0.20825-0.0658 0.20825-0.18633 0-0.92069-0.32882-1.9071-1.8523-1.9071-0.95357 0-2.1921 0.90972-2.1921 2.5757 0 0.61379 0.15345 1.2057 0.51515 1.6222 0.37266 0.43842 0.88781 0.70147 1.677 0.70147 0.833 0 1.4249-0.38362 1.8633-0.95357-0.03288-0.1096-0.09865-0.16441-0.23017-0.17537z"></path><path id="path730" d="m82.405 178.43c0.06576-0.0658 0.06576-0.29594 0-0.3617-0.32882 0.011-0.71244 0.0219-1.107 0.0219-0.4165 0-0.71244-0.011-0.99741-0.0219-0.06576 0.0658-0.06576 0.29593 0 0.3617 0.51515 0.0548 0.63571 0.16441 0.86589 0.73436l1.4358 3.5403c0.06576 0.15345 0.15345 0.21921 0.26305 0.21921 0.09865 0 0.18633-0.0658 0.26305-0.24113l1.107-2.6963 1.1289 2.7182c0.06576 0.15345 0.15345 0.21921 0.26305 0.21921 0.09864 0 0.18633-0.0658 0.25209-0.23017l1.4249-3.4745c0.18633-0.43842 0.37266-0.75628 0.93165-0.78916 0.06576-0.0658 0.06576-0.29594 0-0.3617-0.21921 0.011-0.46034 0.0219-0.78916 0.0219-0.32882 0-0.78916-0.011-1.118-0.0219-0.06576 0.0658-0.06576 0.29593 0 0.3617 0.82204 0.0438 0.70148 0.3617 0.54803 0.74532l-0.90973 2.2798c-0.10961 0.27401-0.15345 0.27401-0.25209 0.0438l-0.94261-2.4004c-0.19729-0.51514-0.17537-0.62475 0.40554-0.66859 0.06576-0.0658 0.06576-0.29594 0-0.3617-0.32882 0.011-0.76724 0.0219-1.0961 0.0219-0.27402 0-0.63571-0.011-0.96453-0.0219-0.06576 0.0658-0.06576 0.29593 0 0.3617 0.51515 0.0548 0.63571 0.37266 0.833 0.85492l0.07672 0.17537-0.76724 1.94c-0.14249 0.3617-0.17537 0.38362-0.31786 0.0219l-0.87685-2.2579c-0.19729-0.52611-0.18633-0.70148 0.33978-0.73436z"></path><path id="path732" d="m89.6 179.7c0.20825-1.2385 0.97549-1.3372 1.2385-1.3372 0.4165 0 0.90973 0.23018 0.90973 1.1509 0 0.0987-0.04384 0.15345-0.16441 0.15345zm2.8717 2.0716c-0.40554 0.41651-0.7234 0.59188-1.3591 0.59188-0.39458 0-0.85492-0.23018-1.1947-0.78917-0.21921-0.3617-0.35074-0.86588-0.35074-1.5016l2.9155 0.0219c0.13153 0 0.20825-0.0658 0.20825-0.18633 0-0.92069-0.32882-1.9071-1.8523-1.9071-0.95357 0-2.1921 0.90972-2.1921 2.5757 0 0.61379 0.15345 1.2057 0.51515 1.6222 0.37266 0.43842 0.88781 0.70147 1.677 0.70147 0.833 0 1.4249-0.38362 1.8633-0.95357-0.03288-0.1096-0.09865-0.16441-0.23017-0.17537z"></path><path id="path734" d="m94.154 181.45c0 0.90973-0.12057 0.96453-0.78916 0.99741-0.06576 0.0658-0.06576 0.29594 0 0.3617 0.38362-0.011 0.78916-0.0219 1.2276-0.0219s0.85492 0.011 1.2166 0.0219c0.06576-0.0658 0.06576-0.29594 0-0.3617-0.6686-0.0329-0.78916-0.0877-0.78916-0.99741v-5.0528c0-0.71244 0.04384-1.1509 0.04384-1.1509 0-0.0767-0.04384-0.10961-0.14249-0.10961-0.27401 0.10961-1.0961 0.26306-1.5345 0.29594-0.02192 0.0877 0 0.26305 0.06576 0.32882 0.63571 0.0438 0.70148 0.0767 0.70148 0.89876z"></path><path id="path736" d="m97.014 181.45c0 0.90973-0.12057 0.96453-0.78916 0.99741-0.06576 0.0658-0.06576 0.29594 0 0.3617 0.38362-0.011 0.78916-0.0219 1.2276-0.0219s0.85492 0.011 1.2166 0.0219c0.06576-0.0658 0.06576-0.29594 0-0.3617-0.6686-0.0329-0.78916-0.0877-0.78916-0.99741v-5.0528c0-0.71244 0.04384-1.1509 0.04384-1.1509 0-0.0767-0.04384-0.10961-0.14249-0.10961-0.27401 0.10961-1.0961 0.26306-1.5345 0.29594-0.02192 0.0877 0 0.26305 0.06576 0.32882 0.63571 0.0438 0.70148 0.0767 0.70148 0.89876z"></path><path id="path738" d="m99.818 176.22c0 0.28498 0.26305 0.56995 0.52611 0.56995 0.30689 0 0.56995-0.28497 0.56995-0.52611 0-0.26305-0.23018-0.56995-0.52611-0.56995-0.26305 0-0.56995 0.26306-0.56995 0.52611zm0.99741 5.2282v-2.1812c0-0.54803 0.0438-1.2495 0.0438-1.2495 0-0.0439-0.0548-0.0767-0.14248-0.0767-0.31786 0.12057-0.74532 0.21921-1.5016 0.31786-0.02192 0.0658 0 0.24113 0.02192 0.3069 0.59187 0.0658 0.71244 0.12056 0.71244 0.74531v2.1373c0 0.90973-0.12057 0.94261-0.78916 0.99741-0.06576 0.0658-0.06576 0.29594 0 0.3617 0.3617-0.011 0.78916-0.0219 1.2276-0.0219 0.43842 0 0.85492 0.011 1.2166 0.0219 0.0658-0.0658 0.0658-0.29594 0-0.3617-0.66859-0.0438-0.78916-0.0877-0.78916-0.99741z"></path><path id="path740" d="m102.25 178.09c-0.15345 0-0.19729 0.13153-0.19729 0.21921v0.14249c0 0.0548 0.011 0.0658 0.0548 0.0658h0.64667v3.2991c0 0.7782 0.33978 1.0851 0.84397 1.0851 0.50418 0 1.0522-0.24113 1.4797-0.72339-0.0219-0.10961-0.0877-0.17537-0.19729-0.18633-0.28498 0.21921-0.6138 0.30689-0.89877 0.30689-0.29594 0-0.3617-0.32882-0.3617-1.0084v-2.773h1.1399c0.10961 0 0.26305-0.0438 0.26305-0.14249v-0.21921c0-0.0438-0.0329-0.0658-0.0877-0.0658h-1.3153v-0.42746c0-0.71244 0.0438-1.1509 0.0438-1.1509 0-0.0658-0.0329-0.0877-0.0877-0.0877s-0.14249 0.0438-0.24114 0.0986c-0.13152 0.0658-0.24113 0.1096-0.37266 0.15344-0.13152 0.0329-0.24113 0.0767-0.24113 0.14249 0 0.13153 0.0329 0.0548 0.0329 1.2714z"></path><path id="path742" d="m106.2 176.22c0 0.28498 0.26305 0.56995 0.52611 0.56995 0.30689 0 0.56995-0.28497 0.56995-0.52611 0-0.26305-0.23017-0.56995-0.52611-0.56995-0.26305 0-0.56995 0.26306-0.56995 0.52611zm0.99741 5.2282v-2.1812c0-0.54803 0.0439-1.2495 0.0439-1.2495 0-0.0439-0.0548-0.0767-0.14249-0.0767-0.31786 0.12057-0.74532 0.21921-1.5016 0.31786-0.0219 0.0658 0 0.24113 0.0219 0.3069 0.59187 0.0658 0.71244 0.12056 0.71244 0.74531v2.1373c0 0.90973-0.12057 0.94261-0.78916 0.99741-0.0658 0.0658-0.0658 0.29594 0 0.3617 0.36169-0.011 0.78916-0.0219 1.2276-0.0219s0.85493 0.011 1.2166 0.0219c0.0658-0.0658 0.0658-0.29594 0-0.3617-0.66859-0.0438-0.78916-0.0877-0.78916-0.99741z"></path><path id="path744" d="m109.15 176.22c0 0.28498 0.26306 0.56995 0.52611 0.56995 0.3069 0 0.56995-0.28497 0.56995-0.52611 0-0.26305-0.23017-0.56995-0.52611-0.56995-0.26305 0-0.56995 0.26306-0.56995 0.52611zm0.99742 5.2282v-2.1812c0-0.54803 0.0438-1.2495 0.0438-1.2495 0-0.0439-0.0548-0.0767-0.14249-0.0767-0.31786 0.12057-0.74532 0.21921-1.5016 0.31786-0.0219 0.0658 0 0.24113 0.0219 0.3069 0.59187 0.0658 0.71244 0.12056 0.71244 0.74531v2.1373c0 0.90973-0.12057 0.94261-0.78916 0.99741-0.0658 0.0658-0.0658 0.29594 0 0.3617 0.3617-0.011 0.78916-0.0219 1.2276-0.0219 0.43843 0 0.85493 0.011 1.2166 0.0219 0.0658-0.0658 0.0658-0.29594 0-0.3617-0.6686-0.0438-0.78916-0.0877-0.78916-0.99741z"></path><path id="path746" d="m113.12 178.86c-0.0767 0.0767-0.13152 0.10961-0.13152 0-0.011-0.29593-0.0439-0.71244-0.0877-0.833-0.0329-0.0438-0.0438-0.0877-0.13153-0.0877-0.30689 0.12057-0.59187 0.21921-1.3482 0.31786-0.0219 0.0658 0 0.24113 0.0219 0.3069 0.59188 0.0548 0.71244 0.1096 0.71244 0.74531v2.1373c0 0.89876-0.1096 0.94261-0.76724 0.99741-0.0658 0.0658-0.0658 0.29594 0 0.3617 0.32882-0.011 0.76724-0.0219 1.2057-0.0219 0.43842 0 0.76724 0.011 1.096 0.0219 0.0658-0.0658 0.0658-0.29594 0-0.3617-0.55899-0.0548-0.66859-0.0986-0.66859-0.99741v-1.7975c0-0.23017 0.0986-0.3617 0.18633-0.46034 0.4165-0.40554 0.90973-0.64668 1.3372-0.64668 0.21921 0 0.44938 0.14249 0.58091 0.39458 0.10961 0.21922 0.13153 0.51515 0.13153 0.84397v1.666c0 0.89876-0.10961 0.94261-0.67956 0.99741-0.0548 0.0658-0.0548 0.29594 0 0.3617 0.32882-0.011 0.67956-0.0219 1.118-0.0219s0.833 0.011 1.1618 0.0219c0.0548-0.0658 0.0548-0.29594 0-0.3617-0.61379-0.0548-0.73436-0.0986-0.73436-0.99741v-1.6331c0-0.60283-0.0438-1.1289-0.29593-1.4687-0.18633-0.24113-0.52611-0.37266-0.90973-0.37266-0.53707 0-1.1509 0.14249-1.7975 0.88781z"></path><path id="path748" d="m120.81 181.43c0 0.20825-0.0219 0.29593-0.17537 0.42746-0.40554 0.35074-0.75628 0.52611-1.0303 0.52611-0.59187 0-1.2057-0.64668-1.2057-2.0168 0-0.78916 0.15344-1.2276 0.31785-1.4578 0.33978-0.51514 0.80013-0.54803 1.0193-0.54803 0.39458 0 0.66859 0.14249 0.8878 0.39458 0.15345 0.17537 0.18633 0.2521 0.18633 0.59188zm-0.12056 0.81108c0.0438-0.0438 0.15345-0.0658 0.16441 0.011 0.0219 0.27401 0.12056 0.64667 0.12056 0.64667 0.0877 0.0329 0.14249 0.0329 0.20825 0 0.24114-0.19729 0.62476-0.3617 1.2934-0.43842 0.0658-0.0658 0.0658-0.23017 0-0.29593-0.70148-0.0548-0.80012-0.26306-0.80012-0.80013v-4.9651c0-0.71244 0.0438-1.1509 0.0438-1.1509 0-0.0767-0.0438-0.10961-0.14249-0.10961-0.27401 0.10961-1.096 0.26306-1.5345 0.29594-0.0219 0.0877 0 0.26305 0.0658 0.32882 0.56995 0.0329 0.70147-0.0219 0.70147 0.89876v1.403c0 0.0767-0.0219 0.0986-0.0986 0.0986-0.0438 0-0.49323-0.18633-0.85493-0.18633-0.72339 0-1.2057 0.24114-1.6441 0.65764-0.47131 0.4713-0.75628 1.118-0.75628 1.9291 0 1.3482 0.67955 2.3346 1.8633 2.3346 0.42746 0 0.833-0.21921 1.3701-0.65763z"></path><path id="path750" d="m123.9 179.7c0.20825-1.2385 0.97549-1.3372 1.2385-1.3372 0.4165 0 0.90973 0.23018 0.90973 1.1509 0 0.0987-0.0438 0.15345-0.16441 0.15345zm2.8717 2.0716c-0.40554 0.41651-0.7234 0.59188-1.3591 0.59188-0.39458 0-0.85493-0.23018-1.1947-0.78917-0.21921-0.3617-0.35073-0.86588-0.35073-1.5016l2.9155 0.0219c0.13153 0 0.20825-0.0658 0.20825-0.18633 0-0.92069-0.32882-1.9071-1.8523-1.9071-0.95357 0-2.1921 0.90972-2.1921 2.5757 0 0.61379 0.15344 1.2057 0.51514 1.6222 0.37266 0.43842 0.88781 0.70147 1.677 0.70147 0.83301 0 1.4249-0.38362 1.8633-0.95357-0.0329-0.1096-0.0986-0.16441-0.23017-0.17537z"></path></g></svg>

