<?xml version="1.0" encoding="UTF-8" standalone="no"?>
<!-- Created with Inkscape (http://www.inkscape.org/) -->
<svg xmlns:svg="http://www.w3.org/2000/svg" xmlns="http://www.w3.org/2000/svg" version="1.0" width="135" height="155" viewBox="0 0 135 155" id="svg3857" xml:space="preserve">
<defs id="defs3"></defs>

<g transform="translate(2.0008084e-2,-4.0088534)" id="g4671"><path d="M 8.0862109,150.93958 C 8.0591639,150.86198 8.0595149,150.76289 8.0871157,150.68371 L 8.1089997,150.62091 L 8.320636,150.60621 C 8.9175074,150.56481 9.1490429,150.44469 9.2477761,150.12503 C 9.3275761,149.86666 9.3340471,149.57455 9.3261211,146.58877 C 9.3191011,143.94397 9.3158441,143.72322 9.2817181,143.57896 C 9.2138421,143.29202 9.1127233,143.1614 8.8941751,143.07836 C 8.7661273,143.02976 8.4376788,142.97729 8.2597787,142.97712 C 8.1691547,142.97703 8.1247412,142.96712 8.105297,142.94412 C 8.067166,142.89822 8.057215,142.68753 8.090311,142.62691 L 8.117125,142.57781 L 11.033528,142.57381 C 12.637551,142.57181 13.98378,142.56221 14.02515,142.55351 L 14.10037,142.53761 L 14.1446,142.7731 C 14.20654,143.10287 14.37298,144.16386 14.388579,144.32842 L 14.401539,144.46509 L 14.310659,144.48819 C 14.010939,144.56449 13.995344,144.55659 13.897581,144.27876 C 13.791857,143.97831 13.663342,143.72535 13.521395,143.53831 C 13.393468,143.36974 13.265879,143.27126 13.087464,143.20338 C 12.845188,143.11118 12.722598,143.10193 11.753021,143.10242 C 10.723488,143.10293 10.731442,143.10186 10.604021,143.25644 C 10.471689,143.41699 10.473083,143.39926 10.473083,144.92226 L 10.473083,146.3019 L 11.412351,146.2929 C 12.412832,146.2829 12.531215,146.2722 12.71523,146.17061 C 12.861821,146.08961 12.960755,145.87073 12.979167,145.58655 C 12.990197,145.41633 12.994837,145.40113 13.041147,145.38352 C 13.104647,145.35942 13.3387,145.35922 13.376739,145.38333 C 13.400679,145.39853 13.405569,145.59225 13.405879,146.53763 C 13.4063,147.83756 13.426889,147.71798 13.202753,147.71767 C 13.026827,147.71744 12.984723,147.68997 12.984723,147.57543 C 12.984723,147.37172 12.884204,147.09263 12.773783,146.98976 C 12.704863,146.92556 12.553225,146.86236 12.377305,146.82454 C 12.259986,146.79934 12.034985,146.79004 11.350084,146.78204 L 10.473088,146.77184 L 10.473088,148.4208 C 10.473088,150.20692 10.471588,150.1824 10.586252,150.33267 C 10.617182,150.37317 10.686102,150.42787 10.73941,150.45414 C 10.83587,150.50164 10.841215,150.50194 11.832692,150.50834 C 12.907893,150.51534 13.132132,150.50234 13.398913,150.41774 C 13.823658,150.28301 14.146219,149.96379 14.416871,149.41034 C 14.473171,149.29522 14.54925,149.10943 14.585947,148.99747 L 14.652667,148.79391 L 14.732077,148.78331 C 14.822817,148.77111 15.050428,148.81271 15.085569,148.84781 C 15.103099,148.86531 15.089169,148.97335 15.030759,149.2715 C 14.962009,149.62271 14.715334,150.6493 14.638325,150.90473 L 14.610765,150.99613 L 11.358979,150.99813 L 8.1071931,151.00013 L 8.0862141,150.93993 L 8.0862109,150.93958 z" id="path4700" style="fill:#000000;fill-opacity:1;fill-rule:nonzero;stroke:#000000;stroke-width:0.0062272;stroke-linecap:butt;stroke-linejoin:miter;stroke-miterlimit:3;stroke-dasharray:none;stroke-opacity:1"></path><path d="M 16.346172,150.96218 C 16.320532,150.91428 16.332132,150.66645 16.361392,150.63719 C 16.372502,150.62609 16.473529,150.60669 16.585907,150.59419 C 17.006729,150.54729 17.202232,150.43578 17.270702,150.20366 C 17.341722,149.96289 17.348032,149.77649 17.341422,148.11447 C 17.335422,146.60884 17.331922,146.4657 17.298032,146.36538 C 17.220462,146.13549 17.074926,146.04621 16.689425,145.99202 C 16.419977,145.95412 16.425032,145.95892 16.423212,145.73819 L 16.422274,145.62445 L 16.816663,145.56775 C 17.352095,145.49075 17.822478,145.39702 18.108478,145.31033 C 18.472979,145.19985 18.475944,145.20289 18.435198,145.64574 C 18.399928,146.02907 18.395138,146.41446 18.425398,146.43317 C 18.436838,146.44017 18.575162,146.3217 18.732781,146.16974 C 19.257645,145.66372 19.667164,145.42995 20.22086,145.32027 C 20.452141,145.27447 20.991385,145.28467 21.188892,145.33867 C 21.656768,145.46651 21.923244,145.72243 22.076046,146.19067 C 22.192032,146.5461 22.206635,146.77526 22.222448,148.4881 C 22.236658,150.02712 22.237358,150.04652 22.283478,150.18622 C 22.368298,150.44311 22.538633,150.54821 22.944882,150.59435 C 23.075141,150.60915 23.134259,150.62515 23.152829,150.65045 C 23.179159,150.68645 23.187819,150.88091 23.166609,150.95989 L 23.155009,151.00309 L 21.723502,151.00109 C 20.474883,151.00009 20.289481,150.99509 20.272314,150.96829 C 20.246154,150.92689 20.246514,150.70597 20.272808,150.65683 C 20.286808,150.63063 20.325878,150.61393 20.392163,150.60553 C 20.794047,150.55503 20.94922,150.48213 21.042582,150.30009 C 21.064182,150.25799 21.096482,150.13879 21.114342,150.03528 C 21.142322,149.87315 21.145692,149.64067 21.138692,148.35788 C 21.129692,146.71378 21.130192,146.72023 20.995246,146.44317 C 20.912896,146.27411 20.739579,146.09965 20.573734,146.01888 C 20.341556,145.9058 19.988107,145.92438 19.611882,146.06948 C 19.195316,146.23012 18.609807,146.67543 18.491878,146.9213 C 18.467048,146.9731 18.437248,147.06542 18.425658,147.12652 C 18.398128,147.27166 18.398348,149.64584 18.425916,149.90963 C 18.479136,150.41899 18.610718,150.54811 19.134708,150.60515 C 19.243026,150.61695 19.254278,150.62315 19.27482,150.68205 C 19.30296,150.76275 19.30334,150.86129 19.275804,150.94028 L 19.254454,151.00158 L 17.811204,151.00207 C 16.398499,151.00255 16.367493,151.0017 16.346169,150.96187 L 16.346169,150.96187 L 16.346172,150.96218 z" id="path4702" style="fill:#000000;fill-opacity:1;fill-rule:nonzero;stroke:#000000;stroke-width:0.0062272;stroke-linecap:butt;stroke-linejoin:miter;stroke-miterlimit:3;stroke-dasharray:none;stroke-opacity:1"></path><path d="M 25.967511,151.11 C 25.769489,151.0889 25.585506,151.00365 25.439211,150.86529 C 25.303021,150.73649 25.213672,150.57381 25.15277,150.34379 C 25.10674,150.16994 25.1066,150.16369 25.09955,148.03707 L 25.09245,145.90467 L 24.662644,145.89867 L 24.232837,145.89267 L 24.227237,145.73699 C 24.222737,145.61183 24.229637,145.56833 24.262477,145.51512 C 24.319237,145.42302 24.403514,145.40512 24.779793,145.40499 L 25.098462,145.40487 L 25.091462,144.62363 L 25.084462,143.8424 L 25.131642,143.8111 C 25.157592,143.7939 25.376975,143.69412 25.619166,143.58943 C 26.003835,143.42315 26.068009,143.40129 26.12671,143.41655 C 26.17078,143.42805 26.19792,143.44995 26.20556,143.48045 C 26.21196,143.50595 26.20746,143.6622 26.19566,143.82761 C 26.1838,143.99302 26.17401,144.41559 26.1739,144.76664 L 26.173695,145.40493 L 27.005352,145.40493 C 27.53894,145.40493 27.8514,145.41293 27.87716,145.42643 C 27.91167,145.44493 27.91731,145.47103 27.91731,145.61244 C 27.91731,145.89903 27.90318,145.90312 26.911767,145.90312 L 26.173695,145.90312 L 26.174106,147.8076 C 26.174355,148.9603 26.182706,149.76944 26.195216,149.85739 C 26.231336,150.11097 26.273026,150.22165 26.368307,150.31693 C 26.478127,150.42675 26.554691,150.44237 26.832241,150.41153 C 27.097165,150.38213 27.386201,150.28822 27.600121,150.16201 C 27.688951,150.10961 27.779628,150.06951 27.801626,150.07291 C 27.868616,150.08331 27.932443,150.13611 27.96082,150.20463 L 27.98777,150.26973 L 27.822806,150.42356 C 27.297061,150.91384 26.588925,151.17556 25.967527,151.10924 L 25.967527,151.10924 L 25.967511,151.11 z" id="path4704" style="fill:#000000;fill-opacity:1;fill-rule:nonzero;stroke:#000000;stroke-width:0.0062272;stroke-linecap:butt;stroke-linejoin:miter;stroke-miterlimit:3;stroke-dasharray:none;stroke-opacity:1"></path><path d="M 31.001737,151.11412 C 30.708532,151.09802 30.420291,151.05782 30.151603,150.9956 C 29.994341,150.9592 29.733981,150.9504 29.574671,150.976 L 29.476071,150.9919 L 29.476071,150.81241 C 29.476071,150.59955 29.440681,149.93962 29.406321,149.51155 C 29.381871,149.20702 29.381901,149.2065 29.427101,149.18591 C 29.510491,149.14791 29.614053,149.13841 29.69794,149.16101 L 29.78112,149.18341 L 29.82902,149.36509 C 29.964869,149.88039 30.084542,150.13805 30.290085,150.35778 C 30.433758,150.51136 30.618302,150.61275 30.857015,150.66923 C 31.065546,150.71853 31.499745,150.71903 31.676355,150.67019 C 32.128117,150.54513 32.388549,150.30851 32.462755,149.9557 C 32.527685,149.64699 32.456755,149.37432 32.253867,149.15229 C 32.068752,148.94974 31.76341,148.77835 31.126286,148.51934 C 30.507317,148.26772 30.226833,148.10527 29.971399,147.85043 C 29.81839,147.69778 29.690892,147.47074 29.630114,147.24271 C 29.578784,147.05012 29.567364,146.64942 29.608514,146.48506 C 29.666264,146.2544 29.779287,146.05675 29.953189,145.8823 C 30.372994,145.46118 30.982454,145.25401 31.697113,145.28952 C 32.080656,145.30862 32.401488,145.35642 33.184388,145.51118 L 33.291301,145.53228 L 33.282401,145.65059 C 33.277501,145.71569 33.259771,145.9497 33.242951,146.17067 C 33.226131,146.39163 33.212361,146.64584 33.212361,146.73557 C 33.212361,146.88319 33.207961,146.9012 33.165661,146.92483 C 33.097701,146.96283 32.847564,146.96013 32.811641,146.92083 C 32.795921,146.90373 32.762011,146.81029 32.736271,146.71325 C 32.640961,146.35388 32.469046,146.06568 32.271911,145.93479 C 32.212451,145.89529 32.079809,145.82891 31.977147,145.78723 C 31.561647,145.61855 31.087919,145.68609 30.786663,145.95694 C 30.634624,146.09364 30.55125,146.2724 30.538739,146.48852 C 30.504239,147.08446 30.808707,147.3767 31.84238,147.7398 C 32.55229,147.98917 33.076213,148.34405 33.301113,148.72788 C 33.583284,149.20946 33.559821,149.84921 33.242483,150.32656 C 33.106646,150.53089 32.950595,150.66066 32.683054,150.79177 C 32.116888,151.06922 31.686647,151.15168 31.001711,151.114 L 31.001711,151.114 L 31.001737,151.11412 z" id="path4706" style="fill:#000000;fill-opacity:1;fill-rule:nonzero;stroke:#000000;stroke-width:0.0062272;stroke-linecap:butt;stroke-linejoin:miter;stroke-miterlimit:3;stroke-dasharray:none;stroke-opacity:1"></path><g transform="translate(0.800012,0)" id="g4746"><path d="M 34.052072,150.95306 C 34.026032,150.88456 34.028562,150.73186 34.056772,150.66998 C 34.077232,150.62508 34.097842,150.61678 34.217642,150.60518 C 34.531107,150.57498 34.760713,150.51298 34.853672,150.4336 C 34.923552,150.3739 34.981462,150.27931 35.021726,150.15905 C 35.057396,150.05249 35.060416,149.92866 35.067006,148.30127 C 35.074506,146.45296 35.072606,146.41084 34.977356,146.24525 C 34.895276,146.10262 34.673764,146.01172 34.320553,145.97572 C 34.162019,145.95952 34.158597,145.95472 34.158127,145.74777 L 34.157844,145.62289 L 34.562604,145.56469 C 35.068919,145.49199 35.483839,145.40855 35.817508,145.31247 C 36.04096,145.24817 36.08417,145.24137 36.13586,145.26277 L 36.19567,145.28757 L 36.1783,145.6735 C 36.1687,145.88577 36.16093,146.94681 36.16093,148.03138 C 36.16093,150.18827 36.15723,150.11854 36.281951,150.33131 C 36.373191,150.487 36.587718,150.57062 36.987528,150.60633 C 37.174294,150.62303 37.188663,150.63903 37.1881,150.82978 C 37.18755,151.01608 37.340258,150.99951 35.609647,151.00103 L 34.070876,151.00203 L 34.052086,150.95263 L 34.052086,150.95263 L 34.052072,150.95306 z" id="path4708" style="fill:#000000;fill-opacity:1;fill-rule:nonzero;stroke:#000000;stroke-width:0.0062272;stroke-linecap:butt;stroke-linejoin:miter;stroke-miterlimit:3;stroke-dasharray:none;stroke-opacity:1"></path><path d="M 35.400826,143.82148 C 35.036626,143.68516 34.829396,143.28559 34.968934,142.98874 C 35.026404,142.86647 35.209219,142.697 35.356511,142.62944 C 35.681408,142.48041 36.043491,142.63444 36.206794,142.99114 C 36.311357,143.21954 36.256284,143.45549 36.055147,143.6409 C 35.872447,143.8093 35.58226,143.88939 35.400826,143.82148 z" id="path4710" style="fill:#000000;fill-opacity:1;fill-rule:nonzero;stroke:#000000;stroke-width:0.0062272;stroke-linecap:butt;stroke-linejoin:miter;stroke-miterlimit:3;stroke-dasharray:none;stroke-opacity:1"></path></g><path d="M 41.693981,151.11289 C 40.959283,151.05999 40.40025,150.81942 39.968261,150.37021 C 39.619418,150.00746 39.406357,149.58716 39.28777,149.02781 C 39.22389,148.7265 39.20842,148.17317 39.25498,147.85503 C 39.360819,147.13184 39.618044,146.58913 40.065832,146.14425 C 40.388115,145.82405 40.814525,145.55177 41.185712,145.42915 C 41.522835,145.31779 41.691501,145.29205 42.079402,145.29278 C 43.293868,145.29478 44.103241,145.77942 44.103241,146.50391 C 44.103241,146.84171 43.841581,147.06625 43.44794,147.06625 C 43.127299,147.06625 42.985172,146.93434 42.939743,146.59459 C 42.866703,146.04834 42.677224,145.80539 42.26233,145.72601 C 41.308336,145.54348 40.590696,146.20659 40.418102,147.4301 C 40.361342,147.83245 40.378942,148.40253 40.460002,148.78738 C 40.641401,149.64861 41.15695,150.27194 41.837873,150.45331 C 42.050989,150.51011 42.392529,150.51411 42.619089,150.46231 C 43.041147,150.36621 43.435912,150.13145 43.755261,149.78652 L 43.886898,149.64434 L 43.967388,149.67204 C 44.011658,149.68724 44.07127,149.72314 44.099854,149.75174 L 44.151824,149.80374 L 44.093324,149.89314 C 43.901822,150.18579 43.531182,150.58429 43.307774,150.73775 C 43.14552,150.8492 42.831965,150.98768 42.620275,151.04138 C 42.438444,151.08748 42.062778,151.13868 41.957839,151.13158 C 41.933359,151.12958 41.814623,151.12148 41.693975,151.11278 L 41.693975,151.11278 L 41.693981,151.11289 z" id="path4712" style="fill:#000000;fill-opacity:1;fill-rule:nonzero;stroke:#000000;stroke-width:0.0062272;stroke-linecap:butt;stroke-linejoin:miter;stroke-miterlimit:3;stroke-dasharray:none;stroke-opacity:1"></path><path d="M 45.307823,150.96615 C 45.283013,150.91975 45.282643,150.73736 45.307227,150.67269 C 45.324737,150.62659 45.342617,150.62149 45.561504,150.59959 C 46.078832,150.54789 46.225436,150.43622 46.296056,150.04011 C 46.338056,149.80449 46.338756,143.33544 46.296799,143.10028 C 46.258739,142.88696 46.201529,142.7808 46.095443,142.72668 C 45.982306,142.66898 45.766788,142.62496 45.595037,142.62452 C 45.467107,142.62419 45.452385,142.61952 45.419388,142.56922 C 45.398248,142.53692 45.379908,142.4598 45.374978,142.38241 C 45.367978,142.2726 45.372078,142.25056 45.399348,142.25056 C 45.417368,142.25056 45.579583,142.23166 45.75983,142.20866 C 46.193931,142.15316 46.716628,142.05657 47.011252,141.97752 C 47.340626,141.88912 47.347933,141.88832 47.403812,141.93352 L 47.452312,141.97282 L 47.428972,142.33994 C 47.397642,142.83282 47.396462,149.82042 47.427672,150.01282 C 47.494952,150.42753 47.646501,150.54726 48.170376,150.59962 C 48.389259,150.62152 48.407139,150.62662 48.424653,150.67272 C 48.447203,150.73202 48.447033,150.9002 48.424372,150.95828 C 48.408382,150.99928 48.388302,150.99978 46.86771,151.00118 C 45.421211,151.00218 45.326063,151.00032 45.307814,150.96618 L 45.307814,150.96618 L 45.307823,150.96615 z" id="path4714" style="fill:#000000;fill-opacity:1;fill-rule:nonzero;stroke:#000000;stroke-width:0.0062272;stroke-linecap:butt;stroke-linejoin:miter;stroke-miterlimit:3;stroke-dasharray:none;stroke-opacity:1"></path><path d="M 52.368033,151.10927 C 51.813444,151.07107 51.294295,150.90675 50.900966,150.64504 C 50.358337,150.28398 49.902373,149.56968 49.758792,148.85573 C 49.708502,148.60568 49.710052,148.00914 49.761692,147.7201 C 49.878487,147.06692 50.170358,146.48529 50.594348,146.06081 C 51.342034,145.31227 52.608535,145.08131 53.768063,145.48204 C 54.284331,145.66047 54.640413,145.93386 54.940133,146.38195 C 55.177551,146.73689 55.351269,147.15087 55.43398,147.55882 C 55.48703,147.82047 55.48686,148.56173 55.433698,148.80353 C 55.347118,149.19731 55.184352,149.58026 54.956131,149.92713 C 54.710356,150.30067 54.477869,150.52988 54.151261,150.72063 C 53.671414,151.00087 52.980278,151.1515 52.367996,151.10927 L 52.367996,151.10927 L 52.368033,151.10927 z M 53.188219,150.67795 C 53.53421,150.58945 53.863975,150.34435 54.039876,150.04492 C 54.116026,149.9153 54.229396,149.54876 54.271005,149.29766 C 54.328635,148.94986 54.323285,148.07726 54.261105,147.67741 C 54.106519,146.68397 53.717392,146.05786 53.100362,145.80975 C 52.663651,145.63414 52.105679,145.67024 51.728156,145.89855 C 51.427878,146.08012 51.226058,146.35987 51.065434,146.8172 C 50.756085,147.69798 50.827013,148.78631 51.24842,149.62499 C 51.40443,149.93548 51.696202,150.29072 51.919366,150.4419 C 52.262469,150.67432 52.806685,150.77558 53.188255,150.67799 L 53.188255,150.67799 L 53.188219,150.67795 z" id="path9416" style="fill:#000000;fill-opacity:1;fill-rule:nonzero;stroke:#000000;stroke-width:0.0062272;stroke-linecap:butt;stroke-linejoin:miter;stroke-miterlimit:3;stroke-dasharray:none;stroke-opacity:1"></path><path d="M 56.645126,153.99952 C 56.619046,153.95082 56.621716,153.74577 56.649226,153.68543 C 56.670696,153.63833 56.684896,153.63473 56.893125,153.62383 C 57.364239,153.59913 57.543178,153.47411 57.627441,153.1108 C 57.648311,153.0208 57.653921,152.30626 57.653921,149.73774 C 57.653921,146.61421 57.652321,146.47394 57.615231,146.36101 C 57.537911,146.1255 57.341193,146.01616 56.927387,145.97866 C 56.757696,145.96326 56.764478,145.97066 56.740934,145.77309 C 56.734134,145.71599 56.736134,145.65817 56.745434,145.64456 C 56.754734,145.63086 56.92861,145.59576 57.134484,145.56586 C 57.730603,145.47946 58.068875,145.40662 58.563263,145.25826 C 58.666079,145.22736 58.756052,145.27096 58.750322,145.34876 C 58.702692,145.99597 58.695822,146.16315 58.715592,146.19469 C 58.756722,146.26029 58.820624,146.24729 58.924721,146.15219 C 59.387962,145.72867 59.854292,145.46301 60.359447,145.33486 C 60.590937,145.27616 60.813055,145.27076 61.081337,145.31726 C 61.60653,145.40836 62.010911,145.62266 62.373655,146.0021 C 62.775696,146.42264 63.018797,146.91521 63.115923,147.50607 C 63.161543,147.7836 63.143783,148.40944 63.082033,148.69986 C 62.944505,149.34675 62.679942,149.8416 62.232316,150.2892 C 61.685525,150.83595 61.091159,151.08462 60.265901,151.11188 C 59.771738,151.12818 59.362809,151.07248 58.986593,150.93769 C 58.810055,150.87439 58.758681,150.87959 58.741066,150.96239 C 58.719386,151.06429 58.721566,152.58302 58.743766,152.83357 C 58.766936,153.09523 58.819556,153.28819 58.894562,153.38654 C 58.997511,153.52151 59.245688,153.60303 59.615495,153.62333 C 59.798058,153.63333 59.86008,153.64423 59.879185,153.66943 C 59.920495,153.72393 59.931815,153.8618 59.902285,153.95076 L 59.874955,154.03306 L 58.269405,154.03377 C 56.784988,154.03444 56.662444,154.03177 56.645145,153.99957 L 56.645126,153.99952 z M 60.280249,150.68108 C 60.853575,150.60988 61.277379,150.38279 61.529239,150.01191 C 61.692748,149.77113 61.858526,149.36033 61.930954,149.01645 C 62.042155,148.48849 61.996674,147.69321 61.824758,147.15949 C 61.702527,146.78001 61.445269,146.38354 61.186153,146.17531 C 60.860494,145.9136 60.453165,145.80924 60.102439,145.89766 C 59.787715,145.97706 59.324735,146.26503 59.001438,146.5826 C 58.711097,146.8678 58.733284,146.71237 58.733284,148.46114 C 58.733284,150.1524 58.726084,150.08059 58.916269,150.28329 C 59.12383,150.50449 59.35308,150.61453 59.727534,150.6727 C 59.943548,150.7063 60.063008,150.7081 60.280249,150.6807 L 60.280249,150.68108 z" id="path4718" style="fill:#000000;fill-opacity:1;fill-rule:nonzero;stroke:#000000;stroke-width:0.0062272;stroke-linecap:butt;stroke-linejoin:miter;stroke-miterlimit:3;stroke-dasharray:none;stroke-opacity:1"></path><path d="M 67.037715,151.10575 C 66.486053,151.02755 66.179074,150.92298 65.818875,150.69074 C 65.634365,150.57178 65.368586,150.31671 65.21666,150.11279 C 64.626171,149.32022 64.551723,147.94073 65.04391,146.91182 C 65.220696,146.54225 65.395458,146.31 65.694313,146.04744 C 66.290632,145.52356 66.947185,145.27382 67.61892,145.31535 C 68.406867,145.36405 68.953697,145.58276 69.270317,145.97577 C 69.395886,146.13164 69.564175,146.45612 69.639582,146.68775 C 69.720382,146.93596 69.75202,147.1371 69.754697,147.41968 L 69.756897,147.65479 L 69.685507,147.71869 L 69.614117,147.78259 L 67.729131,147.76769 L 65.844145,147.75279 L 65.844162,147.86308 C 65.844191,148.04599 65.884732,148.41768 65.927742,148.62939 C 66.043926,149.20128 66.280843,149.64767 66.662813,150.01438 C 66.862094,150.2057 67.061488,150.33011 67.313157,150.42017 C 67.493662,150.48477 67.495899,150.48497 67.899122,150.48287 C 68.368554,150.48087 68.508198,150.45297 68.822823,150.30124 C 69.014424,150.20884 69.286216,150.01717 69.413289,149.88485 C 69.458859,149.83735 69.504059,149.81035 69.537833,149.81045 C 69.609133,149.81056 69.721205,149.88145 69.750006,149.94465 C 69.771366,149.99155 69.762796,150.00805 69.651326,150.13504 C 69.333688,150.49684 68.864349,150.81648 68.432337,150.96524 C 68.127009,151.07037 67.936043,151.09963 67.504733,151.10735 C 67.28211,151.11135 67.071942,151.11035 67.037693,151.10535 L 67.037693,151.10535 L 67.037715,151.10575 z M 67.662443,147.30283 C 68.558322,147.28723 68.544369,147.28913 68.587372,147.17605 C 68.614022,147.10595 68.573862,146.70905 68.520062,146.51068 C 68.435522,146.19901 68.276252,145.99307 68.010011,145.85116 C 67.836268,145.75856 67.674143,145.72117 67.446311,145.72117 C 67.201492,145.72117 67.054947,145.75847 66.779362,145.89104 C 66.610493,145.97224 66.534333,146.02356 66.43511,146.12291 C 66.21883,146.33947 66.061921,146.65365 65.935992,147.12229 C 65.908382,147.22504 65.885762,147.31378 65.885722,147.31949 C 65.885649,147.33039 66.296971,147.32649 67.662445,147.30279 L 67.662443,147.30283 z" id="path4720" style="fill:#000000;fill-opacity:1;fill-rule:nonzero;stroke:#000000;stroke-width:0.0062272;stroke-linecap:butt;stroke-linejoin:miter;stroke-miterlimit:3;stroke-dasharray:none;stroke-opacity:1"></path><path d="M 75.784357,151.14178 C 75.730587,151.12698 75.633894,150.76546 75.610099,150.49032 C 75.588269,150.23788 75.555699,150.23613 75.239936,150.47032 C 74.622314,150.92848 74.168557,151.11767 73.690455,151.11637 C 72.666066,151.11337 71.901015,150.54243 71.564551,149.52927 C 71.425549,149.11071 71.377248,148.73883 71.394274,148.21824 C 71.411854,147.68083 71.493834,147.34646 71.719997,146.88977 C 72.113456,146.09527 72.872811,145.50839 73.718506,145.34519 C 74.228519,145.24679 74.628243,145.26909 75.172985,145.42619 C 75.477941,145.51419 75.552356,145.51639 75.571987,145.43819 C 75.578287,145.41299 75.580087,144.88393 75.575887,144.26251 C 75.567687,143.05115 75.562907,142.99368 75.455436,142.81979 C 75.384806,142.70551 75.122143,142.62463 74.820445,142.62426 C 74.697148,142.62411 74.692063,142.62226 74.66137,142.55666 C 74.62245,142.47386 74.59837,142.31086 74.6203,142.27866 C 74.6292,142.26566 74.762554,142.23976 74.916677,142.22116 C 75.340485,142.16996 75.895066,142.07067 76.216695,141.98828 C 76.610538,141.88739 76.602696,141.88838 76.658127,141.93328 L 76.706297,141.97228 L 76.680627,142.27229 C 76.644427,142.69537 76.625657,149.31606 76.659927,149.5736 C 76.673057,149.6723 76.702927,149.79749 76.726297,149.85181 C 76.782137,149.98162 76.914541,150.10088 77.066749,150.15846 C 77.201777,150.20956 77.456507,150.26103 77.579867,150.26216 C 77.650817,150.26281 77.661967,150.27016 77.690523,150.33886 C 77.727393,150.42716 77.714613,150.53269 77.661433,150.57912 C 77.641673,150.59632 77.564803,150.61682 77.490591,150.62452 C 76.971953,150.67862 76.364088,150.87017 76.068714,151.07246 C 75.987094,151.12836 75.853709,151.16086 75.784393,151.14176 L 75.784393,151.14176 L 75.784357,151.14178 z M 74.439228,150.46091 C 74.732306,150.36032 75.185545,150.07581 75.417615,149.84674 C 75.515855,149.74974 75.53851,149.71321 75.559178,149.61827 C 75.577228,149.53537 75.582018,149.10984 75.577138,148.02108 L 75.570538,146.53694 L 75.512148,146.41803 C 75.441078,146.27331 75.199855,146.02549 75.034324,145.92714 C 74.605983,145.67267 73.943748,145.65085 73.497397,145.87654 C 73.263798,145.99465 72.951461,146.30855 72.831362,146.54591 C 72.652348,146.89972 72.570972,147.31123 72.556063,147.93808 C 72.543743,148.45628 72.574633,148.77929 72.674335,149.17485 C 72.84521,149.85275 73.271,150.35637 73.795784,150.5013 C 73.960524,150.5468 74.240206,150.5293 74.439261,150.4609 L 74.439261,150.4609 L 74.439228,150.46091 z" id="path4722" style="fill:#000000;fill-opacity:1;fill-rule:nonzero;stroke:#000000;stroke-width:0.0062272;stroke-linecap:butt;stroke-linejoin:miter;stroke-miterlimit:3;stroke-dasharray:none;stroke-opacity:1"></path><g transform="translate(1.0999996,0)" id="g4750"><path d="M 77.575706,150.96984 C 77.556296,150.93354 77.546456,150.84517 77.551166,150.74945 C 77.556766,150.63582 77.587116,150.61802 77.813763,150.59542 C 78.237592,150.55322 78.448456,150.43569 78.516894,150.20368 C 78.587894,149.963 78.594214,149.77614 78.587964,148.10411 L 78.581764,146.45391 L 78.534034,146.3358 C 78.506844,146.2685 78.455644,146.19078 78.41503,146.15512 C 78.32918,146.07972 78.138623,146.01782 77.892135,145.98522 C 77.791935,145.97192 77.703844,145.95152 77.696378,145.93972 C 77.674798,145.90562 77.653888,145.70066 77.667578,145.6575 C 77.677878,145.625 77.714928,145.614 77.881808,145.5934 C 78.436469,145.525 79.006051,145.4127 79.372767,145.2994 C 79.563399,145.2405 79.588057,145.2372 79.642612,145.2635 C 79.713942,145.2979 79.710942,145.2017 79.673552,146.25678 C 79.635222,147.33828 79.651372,149.88454 79.697802,150.07912 C 79.783832,150.43968 79.938653,150.54761 80.443741,150.59911 C 80.664294,150.62161 80.666044,150.62221 80.68764,150.68411 C 80.71526,150.76331 80.71539,150.86222 80.68797,150.94087 L 80.66655,151.00227 L 79.129807,151.00227 C 77.757043,151.00227 77.59121,150.99927 77.575688,150.96977 L 77.575687,150.96977 L 77.575706,150.96984 z" id="path4724" style="fill:#000000;fill-opacity:1;fill-rule:nonzero;stroke:#000000;stroke-width:0.0062272;stroke-linecap:butt;stroke-linejoin:miter;stroke-miterlimit:3;stroke-dasharray:none;stroke-opacity:1"></path><path d="M 78.945041,143.83074 C 78.826172,143.79154 78.720239,143.72202 78.626512,143.62182 C 78.301547,143.2744 78.401438,142.85671 78.861773,142.63809 C 79.045039,142.55109 79.21802,142.54889 79.386829,142.63109 C 79.594227,142.73256 79.753065,142.96279 79.770792,143.18762 C 79.794922,143.49368 79.480509,143.81323 79.130847,143.83802 C 79.057197,143.84302 78.973582,143.84002 78.945041,143.83002 L 78.945041,143.83074 z" id="path4726" style="fill:#000000;fill-opacity:1;fill-rule:nonzero;stroke:#000000;stroke-width:0.0062272;stroke-linecap:butt;stroke-linejoin:miter;stroke-miterlimit:3;stroke-dasharray:none;stroke-opacity:1"></path></g><path d="M 84.447067,151.114 C 84.091362,151.0796 83.781948,150.97795 83.536598,150.81484 C 83.357015,150.69545 83.262421,150.58803 83.169351,150.3978 C 83.061788,150.17794 83.027197,150.01905 83.027002,149.74394 C 83.02685,149.53066 83.033602,149.48618 83.090052,149.32635 C 83.239684,148.90298 83.593594,148.54752 84.163413,148.24831 C 84.581182,148.02893 84.855653,147.94053 85.80667,147.71905 C 86.359241,147.59036 86.477461,147.55651 86.509909,147.51768 C 86.545109,147.47558 86.547629,147.44678 86.535749,147.22193 C 86.491929,146.39307 86.310339,146.00664 85.859684,145.78326 C 85.711459,145.70976 85.694859,145.70636 85.454872,145.69946 C 84.890577,145.68326 84.426686,145.83996 84.319134,146.08311 C 84.272214,146.18917 84.273314,146.40326 84.321834,146.61562 C 84.358244,146.77486 84.328834,146.87415 84.210217,146.9928 C 84.093523,147.10949 83.949919,147.15934 83.730758,147.15922 C 83.587383,147.15914 83.551301,147.15122 83.468096,147.10262 C 83.325616,147.01912 83.276521,146.90653 83.288954,146.69176 C 83.296754,146.55666 83.311694,146.50104 83.373804,146.37536 C 83.63114,145.85468 84.372346,145.42037 85.189183,145.31164 C 85.760832,145.23554 86.208424,145.29954 86.647311,145.52004 C 87.096022,145.7455 87.316321,146.01822 87.465474,146.53292 C 87.57762,146.91991 87.587213,147.06542 87.601898,148.60231 C 87.616248,150.10436 87.618328,150.13569 87.716301,150.32514 C 87.783041,150.45421 87.963809,150.5404 88.162526,150.53791 C 88.305358,150.53591 88.376711,150.50891 88.47765,150.41771 C 88.52135,150.37821 88.57012,150.34591 88.58603,150.34591 C 88.62568,150.34591 88.743801,150.48394 88.743801,150.53027 C 88.743801,150.60767 88.454913,150.85267 88.229719,150.96625 C 87.873816,151.14574 87.384432,151.16246 87.047698,151.00665 C 86.893992,150.93555 86.704719,150.73027 86.611787,150.53394 C 86.568537,150.44254 86.525687,150.36756 86.516577,150.36725 C 86.507477,150.36694 86.407032,150.43705 86.293395,150.52315 C 85.835819,150.86968 85.557383,151.01906 85.256572,151.07942 C 85.057017,151.11942 84.673096,151.13592 84.447036,151.11402 L 84.447036,151.11402 L 84.447067,151.114 z M 85.335318,150.58306 C 85.713595,150.50576 86.426618,150.06504 86.515485,149.85358 C 86.555035,149.75948 86.557055,147.9587 86.517585,147.95902 C 86.450495,147.95956 85.2682,148.27432 85.121215,148.33077 C 84.768533,148.46623 84.508276,148.66013 84.352709,148.90332 C 84.156397,149.2102 84.083781,149.6279 84.174701,149.92723 C 84.287033,150.29706 84.566906,150.53704 84.949914,150.59195 C 85.140691,150.61935 85.16008,150.61885 85.335293,150.58295 L 85.335318,150.58306 z" id="path4728" style="fill:#000000;fill-opacity:1;fill-rule:nonzero;stroke:#000000;stroke-width:0.0062272;stroke-linecap:butt;stroke-linejoin:miter;stroke-miterlimit:3;stroke-dasharray:none;stroke-opacity:1"></path><path d="M 93.012648,150.96053 C 92.983708,150.90643 92.983808,150.71925 93.012805,150.66507 C 93.032065,150.62907 93.069225,150.61967 93.270048,150.59957 C 93.745729,150.55217 93.894917,150.45131 93.986169,150.11567 C 94.019709,149.9923 94.022829,149.7427 94.029089,146.68222 C 94.035989,143.32854 94.032789,143.1576 93.959299,142.9313 C 93.895979,142.73624 93.726804,142.65241 93.351861,142.63031 L 93.136676,142.61761 L 93.106706,142.54591 C 93.067346,142.45171 93.047536,142.28051 93.074086,142.2641 C 93.085476,142.2571 93.187045,142.2414 93.299786,142.2293 C 93.655598,142.1911 94.37444,142.06449 94.671629,141.98757 C 95.067877,141.88502 95.060154,141.88585 95.113991,141.93967 C 95.153921,141.97957 95.158431,142.00017 95.147421,142.09221 C 95.103301,142.46112 95.090691,143.61377 95.097551,146.65105 C 95.104251,149.60542 95.108441,149.95516 95.138811,150.079 C 95.228351,150.44405 95.376963,150.55098 95.860498,150.5983 L 96.108128,150.6225 L 96.129728,150.6844 C 96.157208,150.7632 96.157278,150.86221 96.129894,150.94072 L 96.108474,151.00212 L 94.571731,151.00212 C 93.053063,151.00212 93.034724,151.00163 93.012631,150.96032 L 93.01264,150.96032 L 93.012648,150.96053 z" id="path4730" style="fill:#000000;fill-opacity:1;fill-rule:nonzero;stroke:#000000;stroke-width:0.0062272;stroke-linecap:butt;stroke-linejoin:miter;stroke-miterlimit:3;stroke-dasharray:none;stroke-opacity:1"></path><g transform="translate(1.5,0)" id="g4754"><path d="M 95.830883,150.96607 C 95.802563,150.91317 95.807183,150.6916 95.837483,150.65195 C 95.856163,150.62745 95.924203,150.61135 96.08031,150.59455 C 96.615632,150.53695 96.767349,150.40448 96.82884,149.9411 C 96.85697,149.72911 96.85511,146.62727 96.82674,146.47391 C 96.76575,146.14399 96.600055,146.03248 96.087336,145.9763 C 95.946677,145.9609 95.948174,145.9625 95.924819,145.79687 C 95.901279,145.6299 95.910099,145.62152 96.139058,145.59329 C 96.69372,145.52489 97.263301,145.41259 97.630017,145.29929 C 97.820611,145.24039 97.845319,145.23709 97.899862,145.26339 C 97.971402,145.29779 97.968582,145.20389 97.930852,146.29821 C 97.893182,147.39072 97.909442,149.85757 97.955712,150.06892 C 98.036352,150.43729 98.19056,150.54697 98.700991,150.59902 C 98.921544,150.62152 98.923294,150.62212 98.944889,150.68402 C 98.972509,150.76322 98.972639,150.86213 98.945219,150.94078 L 98.923799,151.00218 L 97.387056,151.00218 C 95.946238,151.00218 95.849102,151.00018 95.830921,150.96598 L 95.83092,150.96598 L 95.830883,150.96607 z" id="path4732" style="fill:#000000;fill-opacity:1;fill-rule:nonzero;stroke:#000000;stroke-width:0.0062272;stroke-linecap:butt;stroke-linejoin:miter;stroke-miterlimit:3;stroke-dasharray:none;stroke-opacity:1"></path><path d="M 97.202233,143.8307 C 97.08354,143.7916 96.977464,143.72205 96.883705,143.62182 C 96.55874,143.2744 96.658631,142.85671 97.118966,142.63809 C 97.378485,142.51483 97.657041,142.57049 97.844001,142.78285 C 98.027788,142.99164 98.077511,143.21756 97.984425,143.42089 C 97.879005,143.65115 97.628282,143.82629 97.383971,143.84033 C 97.312561,143.84433 97.230774,143.84009 97.202233,143.83033 L 97.202233,143.8307 z" id="path4734" style="fill:#000000;fill-opacity:1;fill-rule:nonzero;stroke:#000000;stroke-width:0.0062272;stroke-linecap:butt;stroke-linejoin:miter;stroke-miterlimit:3;stroke-dasharray:none;stroke-opacity:1"></path></g><path d="M 102.34664,151.12614 C 102.31234,151.11094 102.26414,151.07624 102.23933,151.04914 C 102.19743,151.00314 102.19593,150.99194 102.21853,150.88563 C 102.25583,150.71044 102.25313,143.29102 102.21553,143.09338 C 102.15043,142.74907 102.0224,142.65698 101.57207,142.63044 C 101.36032,142.61794 101.35787,142.61724 101.3259,142.55534 C 101.3081,142.52104 101.2888,142.43942 101.2828,142.37407 L 101.272,142.25524 L 101.4044,142.24104 C 101.94724,142.18294 102.70717,142.04804 103.0467,141.94943 C 103.24595,141.89153 103.32504,141.89653 103.35249,141.96873 C 103.36149,141.99353 103.36049,142.10677 103.34949,142.22037 C 103.32699,142.4541 103.29999,145.77264 103.31989,145.85219 C 103.34039,145.93399 103.40269,145.91579 103.5943,145.77199 C 104.5585,145.04835 105.77991,145.13615 106.66732,145.9929 C 106.96518,146.28046 107.13151,146.54617 107.26546,146.94842 C 107.39191,147.32817 107.43857,147.72875 107.40125,148.11439 C 107.29167,149.24691 106.82642,150.05658 105.95784,150.62633 C 105.44603,150.96206 104.94389,151.11575 104.35843,151.11587 C 103.81845,151.11597 103.51737,151.03457 103.18855,150.7997 C 103.00779,150.67056 102.97962,150.67861 102.70642,150.93739 C 102.57986,151.05726 102.46102,151.15497 102.44233,151.15453 C 102.42363,151.15408 102.38033,151.14123 102.34603,151.12603 L 102.34664,151.12614 z M 104.80638,150.63669 C 105.16195,150.54989 105.48233,150.34203 105.70369,150.05443 C 106.08222,149.56262 106.28739,148.78322 106.25258,147.96919 C 106.23178,147.48367 106.15528,147.15054 105.98063,146.78602 C 105.74251,146.28899 105.39132,145.96766 104.98046,145.87089 C 104.87414,145.84589 104.779,145.83999 104.60918,145.84809 C 104.17767,145.86869 103.82046,146.01248 103.52836,146.28305 C 103.30538,146.48959 103.32309,146.31795 103.31637,148.33794 L 103.31037,150.09746 L 103.51411,150.2995 C 103.84918,150.63177 104.01699,150.70549 104.40147,150.68931 C 104.52825,150.68431 104.70827,150.66051 104.80624,150.63661 L 104.80624,150.63661 L 104.80638,150.63669 z" id="path4736" style="fill:#000000;fill-opacity:1;fill-rule:nonzero;stroke:#000000;stroke-width:0.0062272;stroke-linecap:butt;stroke-linejoin:miter;stroke-miterlimit:3;stroke-dasharray:none;stroke-opacity:1"></path><path d="M 111.40682,151.11167 C 110.55438,151.05947 109.89507,150.72157 109.44226,150.10493 C 108.74453,149.15479 108.80046,147.45143 109.56273,146.43577 C 109.86565,146.03215 110.43509,145.61788 110.9294,145.4415 C 111.3719,145.28361 111.91227,145.27263 112.50696,145.4095 C 113.04492,145.53327 113.41064,145.7832 113.64859,146.1897 C 113.86675,146.56238 113.96752,146.90976 113.98525,147.35031 L 113.99715,147.6447 L 113.93045,147.7114 L 113.86375,147.7781 L 111.97623,147.7676 L 110.08871,147.7571 L 110.08871,147.94675 C 110.08871,148.57038 110.27665,149.21822 110.58379,149.6533 C 110.86791,150.05579 111.17251,150.2938 111.57286,150.42616 C 111.80774,150.50386 112.00567,150.52176 112.31151,150.49306 C 112.84047,150.44346 113.16538,150.30383 113.57488,149.94996 C 113.66638,149.87096 113.75773,149.80628 113.77792,149.80632 C 113.83012,149.80643 113.94269,149.87912 113.97016,149.93046 C 114.00616,149.99766 113.98276,150.03662 113.78526,150.2381 C 113.13925,150.89716 112.39093,151.17201 111.4068,151.1117 L 111.4068,151.1117 L 111.40682,151.11167 z M 112.14036,147.29769 C 112.74785,147.28419 112.74945,147.28409 112.78902,147.23519 C 112.88762,147.1134 112.79002,146.47398 112.63215,146.20404 C 112.51537,146.00477 112.22929,145.80852 111.96513,145.74647 C 111.75489,145.69707 111.45477,145.71507 111.25114,145.78937 C 110.75456,145.97037 110.50429,146.21211 110.30817,146.70017 C 110.23377,146.88547 110.13029,147.23341 110.13026,147.29866 C 110.13024,147.33626 110.40695,147.33616 112.14036,147.29773 L 112.14036,147.29773 L 112.14036,147.29769 z" id="path9430" style="fill:#000000;fill-opacity:1;fill-rule:nonzero;stroke:#000000;stroke-width:0.0062272;stroke-linecap:butt;stroke-linejoin:miter;stroke-miterlimit:3;stroke-dasharray:none;stroke-opacity:1"></path><path d="M 115.40272,150.96599 C 115.37792,150.91959 115.37772,150.73718 115.40238,150.67225 C 115.41998,150.62585 115.43768,150.62065 115.64628,150.59935 C 115.89737,150.57375 116.09721,150.51905 116.20535,150.44629 C 116.29315,150.38729 116.38992,150.19962 116.42309,150.0242 C 116.45489,149.85588 116.47389,146.91951 116.44509,146.63138 C 116.40019,146.18354 116.2552,146.05122 115.73632,145.98468 C 115.59629,145.96668 115.54825,145.95258 115.54117,145.92718 C 115.51387,145.82938 115.50677,145.75489 115.51857,145.69197 L 115.53167,145.62187 L 115.94012,145.56447 C 116.45706,145.49187 116.89901,145.40297 117.20545,145.31008 C 117.4159,145.24628 117.45268,145.24058 117.50674,145.26298 L 117.56834,145.28848 L 117.55614,145.45609 C 117.51404,146.03336 117.49624,146.38128 117.50734,146.41027 C 117.53474,146.48157 117.59494,146.44197 117.70154,146.28257 C 117.97109,145.87944 118.32296,145.55375 118.64835,145.40621 C 118.72285,145.37241 118.86534,145.32881 118.96502,145.30921 C 119.4,145.22371 119.79791,145.39741 119.94254,145.7359 C 119.98524,145.8358 119.96964,146.03318 119.90984,146.15051 C 119.79456,146.37649 119.56545,146.53359 119.35121,146.53357 C 119.18619,146.53355 119.09481,146.48317 118.90183,146.28578 C 118.7789,146.16004 118.7142,146.10999 118.65274,146.09308 C 118.47291,146.04358 118.38709,146.07818 118.20178,146.2746 C 117.88258,146.61301 117.59131,147.09579 117.54334,147.36595 C 117.51434,147.52932 117.51414,149.76806 117.54308,149.95162 C 117.61828,150.42778 117.79158,150.54617 118.50079,150.60573 C 118.65546,150.61873 118.66086,150.62103 118.68242,150.68283 C 118.71052,150.76343 118.71072,150.86188 118.68309,150.94128 L 118.66159,151.00308 L 117.04189,151.00265 C 115.52383,151.00224 115.42098,150.99965 115.40285,150.96605 L 115.40272,150.96599 z" id="path9432" style="fill:#000000;fill-opacity:1;fill-rule:nonzero;stroke:#000000;stroke-width:0.0062272;stroke-linecap:butt;stroke-linejoin:miter;stroke-miterlimit:3;stroke-dasharray:none;stroke-opacity:1"></path><g transform="translate(2.2998093,0)" id="g4758"><path d="M 120.29516,151.1131 C 119.89554,151.0752 119.50062,150.92559 119.27263,150.72579 C 119.03807,150.52023 118.90416,150.21473 118.88257,149.8359 C 118.84177,149.12007 119.32623,148.53019 120.29462,148.11657 C 120.61967,147.97773 120.91165,147.89268 121.65797,147.71942 C 122.04179,147.63032 122.346,147.54936 122.36372,147.5316 C 122.38822,147.5071 122.39392,147.4521 122.39032,147.27508 C 122.38132,146.80786 122.27471,146.34876 122.12294,146.1201 C 122.04014,145.99535 121.85093,145.84228 121.67869,145.76071 C 121.57014,145.70931 121.54818,145.70671 121.23241,145.70761 C 120.86752,145.70861 120.64253,145.74891 120.42378,145.85243 C 120.18826,145.96385 120.0912,146.16112 120.14194,146.42527 C 120.19474,146.70012 120.19894,146.74354 120.17984,146.81275 C 120.15184,146.91398 120.01463,147.05349 119.88786,147.10952 C 119.73396,147.17752 119.46387,147.17942 119.34002,147.11352 C 119.11008,146.99085 119.07048,146.70572 119.23545,146.3607 C 119.31275,146.19898 119.6018,145.89773 119.8105,145.76131 C 120.01024,145.63075 120.33613,145.47798 120.54223,145.41829 C 120.89638,145.31571 121.06131,145.29363 121.47108,145.29393 C 121.81983,145.29418 121.8736,145.29893 122.05656,145.34863 C 122.28811,145.41113 122.55264,145.52959 122.73047,145.65035 C 122.99649,145.83101 123.19382,146.11726 123.30602,146.48527 C 123.42512,146.8759 123.42663,146.898 123.44286,148.47798 C 123.45536,149.69143 123.46336,149.96441 123.49016,150.07629 C 123.53486,150.26312 123.55526,150.30986 123.62874,150.39357 C 123.79472,150.58262 124.18403,150.58652 124.3548,150.40057 C 124.4164,150.33357 124.46051,150.33137 124.51622,150.39257 C 124.62614,150.51326 124.62215,150.55357 124.48772,150.68025 C 124.05134,151.09154 123.47536,151.22368 122.95978,151.03078 C 122.75681,150.95488 122.48703,150.66184 122.42285,150.44762 C 122.40945,150.40302 122.38835,150.36692 122.37595,150.36742 C 122.36345,150.36783 122.22252,150.46612 122.06269,150.58593 C 121.71409,150.84716 121.35755,151.03381 121.11823,151.08035 C 120.91258,151.12035 120.53138,151.13555 120.29511,151.11305 L 120.29511,151.11305 L 120.29516,151.1131 z M 121.3255,150.5495 C 121.58012,150.4721 122.06388,150.18482 122.26273,149.99303 C 122.32483,149.93313 122.36772,149.86984 122.38229,149.81659 C 122.41379,149.70148 122.41419,147.95881 122.38272,147.95881 C 122.33102,147.95881 121.18261,148.25703 121.04749,148.30556 C 120.47653,148.51063 120.15423,148.83093 120.02918,149.31759 C 119.98738,149.48016 119.98808,149.78785 120.03018,149.93218 C 120.18687,150.46472 120.73882,150.72785 121.32512,150.5495 L 121.32512,150.5495 L 121.3255,150.5495 z" id="path4742" style="fill:#000000;fill-opacity:1;fill-rule:nonzero;stroke:#000000;stroke-width:0.0062272;stroke-linecap:butt;stroke-linejoin:miter;stroke-miterlimit:3;stroke-dasharray:none;stroke-opacity:1"></path><path d="M 121.84326,144.15415 C 121.76766,144.12835 121.564,144.0181 121.3866,143.90686 C 120.93146,143.62149 120.64095,143.51669 120.37979,143.54364 C 120.13555,143.56884 119.99082,143.6963 119.87998,143.98379 C 119.80928,144.16723 119.78578,144.18749 119.66067,144.17338 C 119.53503,144.15918 119.47845,144.12828 119.47845,144.07388 C 119.47845,144.05008 119.51155,143.93162 119.55205,143.81072 C 119.78549,143.11308 120.17079,142.78417 120.67247,142.85427 C 120.90745,142.88707 121.04326,142.95237 121.45546,143.23049 C 121.74112,143.42325 121.89018,143.48872 122.11614,143.52067 C 122.49642,143.57447 122.69676,143.42357 122.87243,142.95109 C 122.90703,142.85789 122.91333,142.85249 122.9856,142.85249 C 123.0277,142.85249 123.10632,142.86759 123.16035,142.88599 C 123.27462,142.92489 123.27434,142.91469 123.16935,143.23652 C 123.03128,143.6612 122.77462,143.99137 122.48662,144.11482 C 122.26211,144.21102 122.0482,144.22413 121.84293,144.15412 L 121.84326,144.15415 z" id="path4744" style="fill:#000000;fill-opacity:1;fill-rule:nonzero;stroke:#000000;stroke-width:0.0062272;stroke-linecap:butt;stroke-linejoin:miter;stroke-miterlimit:3;stroke-dasharray:none;stroke-opacity:1"></path></g></g>
<g id="Wikipedia">
	<path d="M 18.757,118.893 C 18.757,118.893 18.39,118.147 18.265,117.899 C 17.431,116.247 17.449,116.159 16.606,116.047 C 16.37,116.016 16.248,115.986 16.248,115.869 L 16.248,115.346 L 16.319,115.295 C 17.842,115.293 21.231,115.293 21.231,115.293 L 21.361,115.336 L 21.361,115.857 C 21.361,115.976 21.276,116.037 21.103,116.037 L 20.747,116.088 C 19.847,116.158 19.994,116.526 20.592,117.717 L 26.269,129.332 L 26.463,129.385 L 31.503,117.424 C 31.678,116.942 31.651,116.6 31.426,116.399 C 31.2,116.204 31.041,116.087 30.457,116.063 L 29.984,116.04 C 29.926,116.04 29.871,116.019 29.818,115.979 C 29.766,115.942 29.739,115.893 29.739,115.834 L 29.739,115.336 L 29.811,115.285 C 31.231,115.285 35.505,115.285 35.505,115.285 L 35.563,115.336 L 35.563,115.834 C 35.563,115.969 35.486,116.037 35.334,116.037 C 34.588,116.07 34.035,116.232 33.677,116.521 C 33.318,116.812 33.038,117.212 32.837,117.734 C 32.837,117.734 28.202,128.342 26.616,131.869 C 26.009,133.025 25.412,132.919 24.887,131.836 C 23.778,129.552 20.655,122.623 20.655,122.623 L 18.757,118.893 z" id="path3898"></path>
	<path d="M 27.853,115.287 C 27.853,115.287 24.65,115.277 23.224,115.287 L 23.153,115.338 L 23.153,115.834 C 23.153,115.895 23.179,115.943 23.231,115.98 C 23.284,116.019 23.338,116.039 23.396,116.039 L 23.625,116.064 C 24.208,116.087 24.476,116.241 24.556,116.336 C 24.695,116.506 24.764,116.69 24.427,117.425 L 18.447,129.353 L 18.29,129.312 C 18.29,129.312 14.007,120.281 12.767,117.259 C 12.638,116.947 12.58,116.714 12.58,116.571 C 12.58,116.264 12.857,116.098 13.411,116.075 L 14.057,116.048 C 14.228,116.048 14.315,115.982 14.315,115.845 L 14.315,115.349 L 14.257,115.298 C 14.257,115.298 9.127,115.292 8.067,115.298 L 8.009,115.349 L 8.009,115.87 C 8.009,115.964 8.128,116.022 8.367,116.048 C 9.018,116.083 9.446,116.187 9.652,116.36 C 9.857,116.535 10.074,116.977 10.362,117.666 C 11.919,121.406 15.227,128.08 16.838,131.881 C 17.302,132.919 17.885,133.08 18.593,131.849 C 19.819,129.576 23.143,122.631 23.143,122.631 L 25.761,117.735 C 26.066,117.217 26.36,116.756 26.509,116.542 C 26.782,116.149 26.935,116.075 27.681,116.04 C 27.833,116.04 27.91,115.972 27.91,115.835 L 27.91,115.339 L 27.853,115.287 z" id="path3900"></path>
	<path d="M 37.592,130.77 C 37.592,131.342 37.852,131.68 38.684,131.758 L 39.23,131.811 C 39.308,131.811 39.386,131.862 39.386,131.966 L 39.386,132.512 L 39.36,132.565 C 39.36,132.565 37.384,132.512 36.578,132.512 C 35.85,132.512 33.822,132.565 33.822,132.565 L 33.77,132.512 L 33.77,131.966 C 33.77,131.862 33.848,131.811 33.952,131.811 L 34.472,131.758 C 35.33,131.68 35.59,131.264 35.59,130.77 L 35.59,122.112 C 35.59,121.542 35.277,121.383 34.472,121.307 L 33.952,121.253 C 33.848,121.253 33.77,121.229 33.77,121.149 L 33.77,120.55 L 33.796,120.498 C 33.796,120.498 35.85,120.55 36.656,120.55 C 37.358,120.55 39.36,120.498 39.36,120.498 L 39.386,120.55 L 39.386,121.122 C 39.386,121.2 39.334,121.252 39.23,121.252 L 38.684,121.305 C 37.878,121.382 37.592,121.591 37.592,122.112 L 37.592,130.77 z" id="path3904"></path>
	<path d="M 45.265,130.77 C 45.265,131.342 45.603,131.628 46.357,131.758 L 46.643,131.811 C 46.721,131.836 46.799,131.862 46.799,131.966 L 46.799,132.512 L 46.773,132.565 C 46.773,132.565 45.135,132.512 44.355,132.512 C 43.627,132.512 41.495,132.565 41.495,132.565 L 41.443,132.512 L 41.443,131.966 C 41.443,131.862 41.521,131.811 41.625,131.811 L 42.145,131.758 C 42.925,131.68 43.263,131.264 43.263,130.77 L 43.263,122.112 C 43.263,121.542 42.977,121.383 42.145,121.307 L 41.625,121.253 C 41.521,121.253 41.443,121.229 41.443,121.149 L 41.443,120.55 L 41.469,120.498 C 41.469,120.498 43.601,120.55 44.407,120.55 C 45.136,120.55 46.773,120.498 46.773,120.498 L 46.799,120.55 L 46.799,121.122 C 46.799,121.2 46.747,121.226 46.643,121.252 L 46.357,121.305 C 45.551,121.46 45.265,121.591 45.265,122.112 L 45.265,126.039 C 46.123,126.039 46.617,125.599 47.761,124.375 C 48.801,123.229 49.607,122.271 49.607,121.774 C 49.607,121.565 49.373,121.333 48.853,121.253 C 48.749,121.229 48.697,121.201 48.697,121.123 L 48.697,120.523 L 48.723,120.499 C 48.723,120.499 50.829,120.551 51.583,120.551 C 52.259,120.551 53.403,120.499 53.403,120.499 L 53.481,120.523 L 53.481,121.123 C 53.481,121.201 53.403,121.253 53.273,121.253 C 52.259,121.331 51.557,121.383 50.621,122.449 L 48.385,125.021 C 47.943,125.491 47.787,125.775 47.787,125.984 C 47.787,126.14 47.891,126.269 48.021,126.425 L 51.947,131.157 C 52.259,131.52 52.883,131.677 53.403,131.78 L 53.533,131.805 C 53.611,131.83 53.715,131.882 53.715,131.96 L 53.715,132.506 L 53.637,132.532 C 53.637,132.532 52.259,132.506 51.531,132.506 C 50.881,132.506 49.945,132.532 49.945,132.532 L 49.919,132.506 L 49.919,132.194 C 49.919,131.855 49.893,131.571 49.529,131.155 L 46.643,127.566 C 46.253,127.045 45.837,126.917 45.265,126.917 L 45.265,130.77 L 45.265,130.77 z" id="path3906"></path>
	<path d="M 59.282,130.77 C 59.282,131.342 59.542,131.68 60.374,131.758 L 60.92,131.811 C 60.998,131.811 61.076,131.862 61.076,131.966 L 61.076,132.512 L 61.05,132.565 C 61.05,132.565 59.074,132.512 58.268,132.512 C 57.54,132.512 55.512,132.565 55.512,132.565 L 55.46,132.512 L 55.46,131.966 C 55.46,131.862 55.538,131.811 55.642,131.811 L 56.162,131.758 C 57.02,131.68 57.28,131.264 57.28,130.77 L 57.28,122.112 C 57.28,121.542 56.968,121.383 56.162,121.307 L 55.642,121.253 C 55.538,121.253 55.46,121.229 55.46,121.149 L 55.46,120.55 L 55.486,120.498 C 55.486,120.498 57.54,120.55 58.346,120.55 C 59.048,120.55 61.05,120.498 61.05,120.498 L 61.076,120.55 L 61.076,121.122 C 61.076,121.2 61.024,121.252 60.92,121.252 L 60.374,121.305 C 59.568,121.382 59.282,121.591 59.282,122.112 L 59.282,130.77 z" id="path3908"></path>
	<path d="M 64.9,122.163 C 64.9,121.357 64.562,121.331 63.34,121.253 C 63.184,121.253 63.158,121.176 63.158,121.123 L 63.158,120.525 L 63.21,120.499 C 63.6,120.499 65.134,120.551 65.888,120.551 C 66.616,120.551 67.656,120.499 68.618,120.499 C 72.308,120.499 72.984,122.318 72.984,123.672 C 72.984,125.233 72.23,127.676 68.54,127.676 C 67.89,127.676 67.37,127.623 66.901,127.416 L 66.901,130.898 C 66.901,131.469 67.213,131.601 68.046,131.73 L 68.567,131.808 C 68.671,131.833 68.75,131.861 68.75,131.963 L 68.75,132.509 L 68.726,132.562 C 68.726,132.562 66.645,132.509 65.839,132.509 C 65.111,132.509 63.161,132.562 63.161,132.562 L 63.135,132.509 L 63.135,131.963 C 63.135,131.859 63.187,131.833 63.291,131.808 L 63.837,131.73 C 64.643,131.626 64.903,131.392 64.903,130.898 L 64.9,122.163 L 64.9,122.163 L 64.9,122.163 z M 66.902,126.688 C 67.422,126.897 68.072,126.922 68.592,126.922 C 70.153,126.922 70.904,125.984 70.904,123.984 C 70.904,121.748 69.89,121.254 68.462,121.254 C 67.213,121.254 66.901,121.488 66.901,122.164 L 66.902,126.688 L 66.902,126.688 z" id="path3910"></path>
	<path d="M 77.462,132.512 C 76.682,132.512 74.889,132.565 74.889,132.565 L 74.862,132.512 L 74.862,131.94 C 74.862,131.889 74.889,131.811 75.018,131.811 L 75.618,131.758 C 76.425,131.68 76.659,131.16 76.659,130.641 L 76.659,122.061 C 76.659,121.461 76.347,121.358 75.618,121.307 L 75.018,121.253 C 74.862,121.229 74.862,121.176 74.862,121.149 L 74.862,120.55 L 74.889,120.498 C 74.889,120.498 76.916,120.55 77.696,120.55 L 81.518,120.55 C 82.298,120.55 84.145,120.498 84.145,120.498 L 84.199,120.55 C 84.223,121.668 84.405,122.684 84.589,123.671 L 83.941,123.775 C 83.656,122.812 83.162,121.435 81.498,121.435 L 79.418,121.435 C 78.924,121.435 78.664,121.617 78.664,122.058 L 78.664,125.829 L 80.613,125.829 C 81.342,125.829 81.523,125.517 81.628,124.997 L 81.783,124.451 C 81.783,124.373 81.836,124.32 81.939,124.32 L 82.379,124.32 C 82.433,124.32 82.433,124.347 82.433,124.398 C 82.379,124.969 82.277,125.699 82.277,126.323 C 82.277,126.972 82.381,127.519 82.433,128.117 L 82.379,128.17 L 81.939,128.17 C 81.81,128.17 81.755,128.117 81.755,128.039 L 81.625,127.468 C 81.521,126.947 81.287,126.661 80.608,126.661 L 78.66,126.661 L 78.66,130.64 C 78.66,131.132 78.943,131.626 79.414,131.626 L 81.884,131.626 C 83.21,131.626 83.94,130.794 84.25,129.44 L 84.898,129.518 L 84.377,132.507 L 84.325,132.559 C 84.325,132.559 82.791,132.507 82.011,132.507 L 77.462,132.512 L 77.462,132.512 L 77.462,132.512 z" id="path3912"></path>
	<path d="M 87.24,131.811 L 87.838,131.758 C 88.619,131.68 88.879,131.446 88.879,130.641 L 88.879,122.061 C 88.879,121.383 88.695,121.383 87.838,121.307 L 87.268,121.253 C 87.164,121.253 87.084,121.201 87.084,121.123 L 87.084,120.551 L 87.109,120.499 C 87.109,120.499 89.398,120.551 89.867,120.551 C 90.359,120.551 92.623,120.499 93.299,120.499 C 97.641,120.499 99.774,123.203 99.774,126.661 C 99.774,131.212 96.549,132.562 93.665,132.562 C 91.585,132.562 90.676,132.509 89.87,132.509 C 89.089,132.509 87.112,132.562 87.112,132.562 L 87.087,132.509 L 87.087,131.963 C 87.084,131.889 87.137,131.811 87.24,131.811 z M 93.039,131.811 C 95.898,131.811 97.512,130.747 97.512,127.104 C 97.512,124.401 96.913,121.253 92.545,121.253 C 91.531,121.253 90.881,121.409 90.881,122.061 L 90.881,130.641 C 90.881,131.367 91.062,131.811 93.039,131.811 z" id="path3914"></path>
	<path d="M 105.912,130.77 C 105.912,131.342 106.172,131.68 107.004,131.758 L 107.55,131.811 C 107.628,131.811 107.706,131.862 107.706,131.966 L 107.706,132.512 L 107.68,132.565 C 107.68,132.565 105.704,132.512 104.899,132.512 C 104.17,132.512 102.143,132.565 102.143,132.565 L 102.09,132.512 L 102.09,131.966 C 102.09,131.862 102.168,131.811 102.272,131.811 L 102.793,131.758 C 103.65,131.68 103.911,131.264 103.911,130.77 L 103.911,122.112 C 103.911,121.542 103.598,121.383 102.793,121.307 L 102.272,121.253 C 102.168,121.253 102.09,121.229 102.09,121.149 L 102.09,120.55 L 102.116,120.498 C 102.116,120.498 104.17,120.55 104.974,120.55 C 105.675,120.55 107.679,120.498 107.679,120.498 L 107.703,120.55 L 107.703,121.122 C 107.703,121.2 107.649,121.252 107.547,121.252 L 107.001,121.305 C 106.194,121.382 105.909,121.591 105.909,122.112 L 105.912,130.77 L 105.912,130.77 L 105.912,130.77 z" id="path3916"></path>
	<path d="M 113.922,131.758 L 114.676,131.811 C 114.78,131.811 114.884,131.889 114.884,132.018 L 114.884,132.512 L 114.832,132.565 C 114.832,132.565 111.998,132.512 111.374,132.512 C 110.697,132.512 109.033,132.565 109.033,132.565 L 108.98,132.512 L 108.98,132.018 C 108.98,131.889 109.058,131.811 109.189,131.811 C 110.334,131.733 110.982,131.524 111.71,129.86 L 117.481,116.339 C 117.766,115.663 117.975,115.402 118.367,115.402 C 118.729,115.402 118.86,115.663 119.067,116.183 L 124.397,130.275 C 124.762,131.29 125.283,131.679 126.323,131.783 L 126.608,131.808 C 126.739,131.808 126.869,131.885 126.869,132.017 L 126.869,132.509 L 126.791,132.562 C 126.791,132.562 124.789,132.509 123.774,132.509 C 122.864,132.509 120.315,132.562 120.315,132.562 L 120.291,132.509 L 120.291,132.017 C 120.291,131.885 120.343,131.808 120.476,131.808 L 121.204,131.755 C 122.191,131.678 122.557,131.364 122.296,130.638 L 120.71,126.242 L 115.3,126.242 C 114.676,126.242 114.52,126.346 114.391,126.682 L 112.882,130.453 C 112.622,131.107 112.96,131.68 113.922,131.758 z M 120.292,125.152 L 117.77,118.211 L 117.718,118.211 L 115.118,124.815 C 115.014,125.077 115.195,125.153 115.767,125.153 L 120.292,125.153 L 120.292,125.152 z" id="path3918"></path>
</g>

<g transform="translate(149.30698,7.8114625)" id="grid">
</g></svg>
