<?xml version="1.0" encoding="UTF-8" standalone="no"?>
<svg
	xmlns="http://www.w3.org/2000/svg"
	xmlns:dc="http://purl.org/dc/elements/1.1/"
	xmlns:cc="http://creativecommons.org/ns#"
	xmlns:rdf="http://www.w3.org/1999/02/22-rdf-syntax-ns#"
	xmlns:svg="http://www.w3.org/2000/svg"
	xmlns:xlink="http://www.w3.org/1999/xlink"
	xmlns:sodipodi="http://sodipodi.sourceforge.net/DTD/sodipodi-0.dtd"
	xmlns:inkscape="http://www.inkscape.org/namespaces/inkscape"
	version="1.1"
	viewBox="0 0 135px 155px">
	<svg xmlns:dc="http://purl.org/dc/elements/1.1/" xmlns:cc="http://creativecommons.org/ns#" xmlns:rdf="http://www.w3.org/1999/02/22-rdf-syntax-ns#" xmlns:svg="http://www.w3.org/2000/svg" xmlns:sodipodi="http://sodipodi.sourceforge.net/DTD/sodipodi-0.dtd" xmlns:inkscape="http://www.inkscape.org/namespaces/inkscape" version="1.1" id="svg3857" inkscape:version="0.46" sodipodi:docname="Wikipedia-logo-v2-eml.svg" x="0px" y="0px" width="135px" height="155px" viewBox="0 0 135 155" enable-background="new 0 0 135 155" xml:space="preserve" sodipodi:version="0.32" inkscape:output_extension="org.inkscape.output.svg.inkscape" xmlns:xlink="http://www.w3.org/1999/xlink" xmlns:svgjs="http://svgjs.com/svgjs"><metadata id="metadata698"><rdf:RDF><cc:Work rdf:about=""><dc:format>image/svg+xml</dc:format><dc:type rdf:resource="http://purl.org/dc/dcmitype/StillImage"></dc:type></cc:Work></rdf:RDF></metadata><defs id="defs3"></defs><sodipodi:namedview id="namedview4848" showgrid="false" pagecolor="#ffffff" objecttolerance="10" guidetolerance="10" inkscape:cy="77.5" inkscape:guide-bbox="true" showguides="true" inkscape:zoom="3.1870968" inkscape:pageopacity="0" gridtolerance="10" inkscape:window-height="719" bordercolor="#666666" inkscape:window-y="23" borderopacity="1" inkscape:pageshadow="2" inkscape:window-x="0" inkscape:window-width="1022" inkscape:cx="67.5" inkscape:current-layer="svg3857" inkscape:window-maximized="0">
	<sodipodi:guide id="globe_top" orientation="0,1" position="0,140"></sodipodi:guide>
	<sodipodi:guide id="globe_left" orientation="1,0" position="16,0"></sodipodi:guide>
	<sodipodi:guide id="globe_right" orientation="1,0" position="119,0"></sodipodi:guide>
	<sodipodi:guide id="globe_bottom" orientation="0,1" position="0,47"></sodipodi:guide>
	<sodipodi:guide id="wordmark_top" orientation="0,1" position="8,40"></sodipodi:guide>
	<sodipodi:guide id="wordmark_bottom" orientation="0,1" position="8,22.5"></sodipodi:guide>
	<sodipodi:guide id="subtitle_top" orientation="0,1" position="0,17"></sodipodi:guide>
	<sodipodi:guide id="subtitle_bottom" orientation="0,1" position="0,8"></sodipodi:guide>
	<sodipodi:guide id="wordmark_left" orientation="1,0" position="8,40"></sodipodi:guide>
	<sodipodi:guide id="wordmark_right" orientation="1,0" position="127,40"></sodipodi:guide>
</sodipodi:namedview><g id="Wikipedia">
	<path id="path3898" d="M18.757,118.893c0,0-0.367-0.746-0.492-0.994c-0.834-1.652-0.816-1.74-1.659-1.852   c-0.236-0.031-0.358-0.061-0.358-0.178v-0.523l0.071-0.051c1.523-0.002,4.912-0.002,4.912-0.002l0.13,0.043v0.521   c0,0.119-0.085,0.18-0.258,0.18l-0.356,0.051c-0.9,0.07-0.753,0.438-0.155,1.629l5.677,11.615l0.194,0.053l5.04-11.961   c0.175-0.482,0.148-0.824-0.077-1.025c-0.226-0.195-0.385-0.312-0.969-0.336l-0.473-0.023c-0.058,0-0.113-0.021-0.166-0.061   c-0.052-0.037-0.079-0.086-0.079-0.145v-0.498l0.072-0.051c1.42,0,5.694,0,5.694,0l0.058,0.051v0.498   c0,0.135-0.077,0.203-0.229,0.203c-0.746,0.033-1.299,0.195-1.657,0.484c-0.359,0.291-0.639,0.691-0.84,1.213   c0,0-4.635,10.608-6.221,14.135c-0.607,1.156-1.204,1.05-1.729-0.033c-1.109-2.284-4.232-9.213-4.232-9.213L18.757,118.893z"></path>
	<path id="path3900" d="M27.853,115.287c0,0-3.203-0.01-4.629,0l-0.071,0.051v0.496c0,0.061,0.026,0.109,0.078,0.146   c0.053,0.039,0.107,0.059,0.165,0.059l0.229,0.025c0.583,0.023,0.851,0.177,0.931,0.272c0.139,0.17,0.208,0.354-0.129,1.089   l-5.98,11.928l-0.157-0.041c0,0-4.283-9.031-5.523-12.053c-0.129-0.312-0.187-0.545-0.187-0.688c0-0.307,0.277-0.473,0.831-0.496   l0.646-0.027c0.171,0,0.258-0.066,0.258-0.203v-0.496l-0.058-0.051c0,0-5.13-0.006-6.19,0l-0.058,0.051v0.521   c0,0.094,0.119,0.152,0.358,0.178c0.651,0.035,1.079,0.139,1.285,0.312c0.205,0.175,0.422,0.617,0.71,1.306   c1.557,3.74,4.865,10.414,6.476,14.215c0.464,1.038,1.047,1.199,1.755-0.032c1.226-2.273,4.55-9.218,4.55-9.218l2.618-4.896   c0.305-0.518,0.599-0.979,0.748-1.193c0.273-0.393,0.426-0.467,1.172-0.502c0.152,0,0.229-0.068,0.229-0.205v-0.496L27.853,115.287   z"></path>
	<path id="path3904" d="M37.592,130.77c0,0.572,0.26,0.91,1.092,0.988l0.546,0.053c0.078,0,0.156,0.051,0.156,0.155v0.546   l-0.026,0.053c0,0-1.976-0.053-2.782-0.053c-0.728,0-2.756,0.053-2.756,0.053l-0.052-0.053v-0.546c0-0.104,0.078-0.155,0.182-0.155   l0.52-0.053c0.858-0.078,1.118-0.494,1.118-0.988v-8.658c0-0.57-0.313-0.729-1.118-0.805l-0.52-0.054   c-0.104,0-0.182-0.024-0.182-0.104v-0.599l0.026-0.052c0,0,2.054,0.052,2.86,0.052c0.702,0,2.704-0.052,2.704-0.052l0.026,0.052   v0.572c0,0.078-0.052,0.13-0.156,0.13l-0.546,0.053c-0.806,0.077-1.092,0.286-1.092,0.807V130.77z"></path>
	<path id="path3906" d="M45.265,130.77c0,0.572,0.338,0.858,1.092,0.988l0.286,0.053c0.078,0.025,0.156,0.051,0.156,0.155v0.546   l-0.026,0.053c0,0-1.638-0.053-2.418-0.053c-0.728,0-2.86,0.053-2.86,0.053l-0.052-0.053v-0.546c0-0.104,0.078-0.155,0.182-0.155   l0.52-0.053c0.78-0.078,1.118-0.494,1.118-0.988v-8.658c0-0.57-0.286-0.729-1.118-0.805l-0.52-0.054   c-0.104,0-0.182-0.024-0.182-0.104v-0.599l0.026-0.052c0,0,2.132,0.052,2.938,0.052c0.729,0,2.366-0.052,2.366-0.052l0.026,0.052   v0.572c0,0.078-0.052,0.104-0.156,0.13l-0.286,0.053c-0.806,0.155-1.092,0.286-1.092,0.807v3.927c0.858,0,1.352-0.44,2.496-1.664   c1.04-1.146,1.846-2.104,1.846-2.601c0-0.209-0.234-0.441-0.754-0.521c-0.104-0.024-0.156-0.052-0.156-0.13v-0.6l0.026-0.024   c0,0,2.106,0.052,2.86,0.052c0.676,0,1.82-0.052,1.82-0.052l0.078,0.024v0.6c0,0.078-0.078,0.13-0.208,0.13   c-1.014,0.078-1.716,0.13-2.652,1.196l-2.236,2.572c-0.442,0.47-0.598,0.754-0.598,0.963c0,0.156,0.104,0.285,0.234,0.441   l3.926,4.732c0.312,0.363,0.936,0.52,1.456,0.623l0.13,0.025c0.078,0.025,0.182,0.077,0.182,0.155v0.546l-0.078,0.026   c0,0-1.378-0.026-2.106-0.026c-0.65,0-1.586,0.026-1.586,0.026l-0.026-0.026v-0.312c0-0.339-0.026-0.623-0.39-1.039l-2.886-3.589   c-0.39-0.521-0.806-0.649-1.378-0.649V130.77L45.265,130.77z"></path>
	<path id="path3908" d="M59.282,130.77c0,0.572,0.26,0.91,1.092,0.988l0.546,0.053c0.078,0,0.156,0.051,0.156,0.155v0.546   l-0.026,0.053c0,0-1.976-0.053-2.782-0.053c-0.728,0-2.756,0.053-2.756,0.053l-0.052-0.053v-0.546c0-0.104,0.078-0.155,0.182-0.155   l0.52-0.053c0.858-0.078,1.118-0.494,1.118-0.988v-8.658c0-0.57-0.312-0.729-1.118-0.805l-0.52-0.054   c-0.104,0-0.182-0.024-0.182-0.104v-0.599l0.026-0.052c0,0,2.054,0.052,2.86,0.052c0.702,0,2.704-0.052,2.704-0.052l0.026,0.052   v0.572c0,0.078-0.052,0.13-0.156,0.13l-0.546,0.053c-0.806,0.077-1.092,0.286-1.092,0.807V130.77z"></path>
	<path id="path3910" d="M64.9,122.163c0-0.806-0.338-0.832-1.56-0.91c-0.156,0-0.182-0.077-0.182-0.13v-0.598l0.052-0.026   c0.39,0,1.924,0.052,2.678,0.052c0.728,0,1.768-0.052,2.73-0.052c3.69,0,4.366,1.819,4.366,3.173c0,1.561-0.754,4.004-4.444,4.004   c-0.65,0-1.17-0.053-1.639-0.26v3.482c0,0.571,0.312,0.703,1.145,0.832l0.521,0.078c0.104,0.025,0.183,0.053,0.183,0.155v0.546   l-0.024,0.053c0,0-2.081-0.053-2.887-0.053c-0.728,0-2.678,0.053-2.678,0.053l-0.026-0.053v-0.546c0-0.104,0.052-0.13,0.156-0.155   l0.546-0.078c0.806-0.104,1.066-0.338,1.066-0.832L64.9,122.163L64.9,122.163L64.9,122.163z M66.902,126.688   c0.52,0.209,1.17,0.234,1.69,0.234c1.561,0,2.312-0.938,2.312-2.938c0-2.236-1.014-2.73-2.442-2.73   c-1.249,0-1.561,0.234-1.561,0.91L66.902,126.688L66.902,126.688z"></path>
	<path id="path3912" d="M77.462,132.512c-0.78,0-2.573,0.053-2.573,0.053l-0.027-0.053v-0.572c0-0.051,0.027-0.129,0.156-0.129   l0.6-0.053c0.807-0.078,1.041-0.598,1.041-1.117v-8.58c0-0.6-0.312-0.703-1.041-0.754l-0.6-0.054   c-0.156-0.024-0.156-0.077-0.156-0.104v-0.599l0.027-0.052c0,0,2.027,0.052,2.807,0.052h3.822c0.78,0,2.627-0.052,2.627-0.052   l0.054,0.052c0.024,1.118,0.206,2.134,0.39,3.121l-0.648,0.104c-0.285-0.963-0.779-2.34-2.443-2.34h-2.08   c-0.494,0-0.754,0.182-0.754,0.623v3.771h1.949c0.729,0,0.91-0.312,1.015-0.832l0.155-0.546c0-0.078,0.053-0.131,0.156-0.131h0.44   c0.054,0,0.054,0.027,0.054,0.078c-0.054,0.571-0.156,1.301-0.156,1.925c0,0.649,0.104,1.196,0.156,1.794l-0.054,0.053h-0.44   c-0.129,0-0.184-0.053-0.184-0.131l-0.13-0.571c-0.104-0.521-0.338-0.807-1.017-0.807H78.66v3.979c0,0.492,0.283,0.986,0.754,0.986   h2.47c1.326,0,2.056-0.832,2.366-2.186l0.648,0.078l-0.521,2.989l-0.052,0.052c0,0-1.534-0.052-2.314-0.052L77.462,132.512   L77.462,132.512L77.462,132.512z"></path>
	<path id="path3914" d="M87.24,131.811l0.598-0.053c0.781-0.078,1.041-0.312,1.041-1.117v-8.58c0-0.678-0.184-0.678-1.041-0.754   l-0.57-0.054c-0.104,0-0.184-0.052-0.184-0.13v-0.572l0.025-0.052c0,0,2.289,0.052,2.758,0.052c0.492,0,2.756-0.052,3.432-0.052   c4.342,0,6.475,2.704,6.475,6.162c0,4.551-3.225,5.901-6.109,5.901c-2.08,0-2.989-0.053-3.795-0.053   c-0.781,0-2.758,0.053-2.758,0.053l-0.025-0.053v-0.546C87.084,131.889,87.137,131.811,87.24,131.811z M93.039,131.811   c2.859,0,4.473-1.064,4.473-4.707c0-2.703-0.599-5.851-4.967-5.851c-1.014,0-1.664,0.156-1.664,0.808v8.58   C90.881,131.367,91.062,131.811,93.039,131.811z"></path>
	<path id="path3916" d="M105.912,130.77c0,0.572,0.26,0.91,1.092,0.988l0.546,0.053c0.078,0,0.156,0.051,0.156,0.155v0.546   l-0.026,0.053c0,0-1.976-0.053-2.781-0.053c-0.729,0-2.756,0.053-2.756,0.053l-0.053-0.053v-0.546c0-0.104,0.078-0.155,0.182-0.155   l0.521-0.053c0.857-0.078,1.118-0.494,1.118-0.988v-8.658c0-0.57-0.313-0.729-1.118-0.805l-0.521-0.054   c-0.104,0-0.182-0.024-0.182-0.104v-0.599l0.026-0.052c0,0,2.054,0.052,2.858,0.052c0.701,0,2.705-0.052,2.705-0.052l0.024,0.052   v0.572c0,0.078-0.054,0.13-0.156,0.13l-0.546,0.053c-0.807,0.077-1.092,0.286-1.092,0.807L105.912,130.77L105.912,130.77   L105.912,130.77z"></path>
	<path id="path3918" d="M113.922,131.758l0.754,0.053c0.104,0,0.208,0.078,0.208,0.207v0.494l-0.052,0.053   c0,0-2.834-0.053-3.458-0.053c-0.677,0-2.341,0.053-2.341,0.053l-0.053-0.053v-0.494c0-0.129,0.078-0.207,0.209-0.207   c1.145-0.078,1.793-0.287,2.521-1.951l5.771-13.521c0.285-0.676,0.494-0.937,0.886-0.937c0.362,0,0.493,0.261,0.7,0.781   l5.33,14.092c0.365,1.015,0.886,1.404,1.926,1.508l0.285,0.025c0.131,0,0.261,0.077,0.261,0.209v0.492l-0.078,0.053   c0,0-2.002-0.053-3.017-0.053c-0.91,0-3.459,0.053-3.459,0.053l-0.024-0.053v-0.492c0-0.132,0.052-0.209,0.185-0.209l0.728-0.053   c0.987-0.077,1.353-0.391,1.092-1.117l-1.586-4.396H115.3c-0.624,0-0.78,0.104-0.909,0.44l-1.509,3.771   C112.622,131.107,112.96,131.68,113.922,131.758z M120.292,125.152l-2.522-6.941h-0.052l-2.6,6.604   c-0.104,0.262,0.077,0.338,0.649,0.338H120.292L120.292,125.152z"></path>
</g><path transform="matrix(0.326368,0,0,0.326368,-1.5403101,89.636152)" d="M 45.571296,175.39474 L 54.051296,175.39474 C 55.171295,175.39474 58.851296,175.47474 58.851296,175.47474 C 59.251295,173.47475 59.651296,170.87474 59.891296,168.79474 C 59.491296,168.63475 59.051295,168.55474 58.571296,168.59474 C 57.771296,171.47474 56.691293,173.83474 53.651296,173.83474 L 49.131296,173.83474 C 47.971297,173.83474 47.251296,173.07474 47.251296,171.83474 L 47.251296,154.47474 C 47.251296,151.15475 47.931298,150.95474 50.731296,150.83474 C 50.971295,150.59475 50.971295,149.75474 50.731296,149.51474 C 48.771298,149.55474 47.571294,149.59474 45.531296,149.59474 C 43.531298,149.59474 42.371294,149.55474 40.371296,149.51474 C 40.131296,149.75474 40.131296,150.59475 40.371296,150.83474 C 43.171293,150.95474 43.851296,151.15475 43.851296,154.47474 L 43.851296,170.51474 C 43.851296,173.83474 43.171293,174.03474 40.371296,174.15474 C 40.131296,174.39474 40.131296,175.23475 40.371296,175.47474 C 42.331294,175.43474 45.571296,175.39474 45.571296,175.39474 M 65.866921,147.47474 C 64.626922,147.47474 63.746921,148.31475 63.746921,149.43474 C 63.746921,150.71474 64.786921,151.07474 65.506921,151.19474 C 66.26692,151.27474 66.946921,151.51475 66.946921,152.43474 C 66.946921,153.27474 65.506919,155.11475 63.426921,155.63474 C 63.426921,156.03474 63.506921,156.31475 63.786921,156.59474 C 66.186918,156.15475 68.506921,154.23474 68.506921,151.43474 C 68.506921,149.03475 67.466919,147.47474 65.866921,147.47474 M 75.432546,164.11474 C 76.192545,159.59475 78.992547,159.23474 79.952546,159.23474 C 81.472544,159.23474 83.272546,160.07475 83.272546,163.43474 C 83.272546,163.79474 83.112545,163.99474 82.672546,163.99474 L 75.432546,164.11474 M 85.912546,171.67474 C 84.432547,173.19474 83.272543,173.83474 80.952546,173.83474 C 79.512547,173.83474 77.832544,172.99474 76.592546,170.95474 C 75.792546,169.63475 75.312546,167.79474 75.312546,165.47474 L 85.952546,165.55474 C 86.432545,165.55474 86.712546,165.31474 86.712546,164.87474 C 86.712546,161.51475 85.51254,157.91474 79.952546,157.91474 C 76.472549,157.91474 71.952546,161.23475 71.952546,167.31474 C 71.952546,169.55474 72.512547,171.71475 73.832546,173.23474 C 75.192544,174.83474 77.072549,175.79474 79.952546,175.79474 C 82.992543,175.79474 85.152547,174.39474 86.752546,172.31474 C 86.632546,171.91475 86.392545,171.71474 85.912546,171.67474 M 95.723171,161.07474 C 95.603171,161.23474 95.323171,161.63474 95.323171,161.07474 C 95.323171,159.87475 95.523171,158.03474 95.523171,158.03474 C 95.523171,157.83475 95.36317,157.71474 95.043171,157.71474 C 93.923172,158.15474 92.283168,158.51475 89.523171,158.87474 C 89.443171,159.11474 89.523171,159.75475 89.603171,159.99474 C 91.763168,160.19474 92.203171,160.39475 92.203171,162.71474 L 92.203171,170.51474 C 92.203171,173.79474 91.803168,173.95475 89.403171,174.15474 C 89.163171,174.39474 89.163171,175.23475 89.403171,175.47474 C 91.043169,175.43474 92.083172,175.39474 93.803171,175.39474 C 95.363169,175.39474 96.083172,175.43474 97.763171,175.47474 C 98.00317,175.23475 98.00317,174.39474 97.763171,174.15474 C 95.723173,173.95475 95.363171,173.79474 95.363171,170.51474 L 95.363171,163.95474 C 95.363171,163.11475 95.723171,162.63474 96.043171,162.27474 C 97.563169,160.79475 99.123172,159.91474 100.68317,159.91474 C 101.48317,159.91474 102.32317,160.43475 102.80317,161.35474 C 103.20317,162.15474 103.28317,163.23475 103.28317,164.43474 L 103.28317,170.51474 C 103.28317,173.79474 102.88317,173.95475 100.80317,174.15474 C 100.60317,174.39474 100.60317,175.23475 100.80317,175.47474 C 102.48317,175.43474 103.28317,175.39474 104.88317,175.39474 C 106.52317,175.39474 107.40317,175.43474 109.12317,175.47474 C 109.32317,175.23475 109.32317,174.39474 109.12317,174.15474 C 106.88317,173.95475 106.44317,173.79474 106.44317,170.51474 L 106.44317,164.55474 C 106.44317,162.35475 106.28317,160.43474 105.36317,159.19474 C 104.68317,158.31475 103.44317,157.83474 102.04317,157.83474 C 100.08317,157.83474 98.163168,158.35475 95.723171,161.07474 M 125.68942,171.75474 C 125.52942,171.39475 125.20942,171.23474 124.84942,171.19474 C 123.48942,172.95474 121.76942,173.83474 120.04942,173.83474 C 117.12942,173.83474 114.68942,170.87474 114.68942,166.19474 C 114.68942,161.79475 116.60942,159.15474 119.24942,159.15474 C 121.60942,159.15474 121.92942,160.55475 122.08942,161.95474 C 122.20942,163.03474 122.76942,163.39474 123.60942,163.39474 C 124.44942,163.39474 125.56942,162.87474 125.56942,161.63474 C 125.56942,159.43475 123.28942,157.83474 119.44942,157.83474 C 115.48942,157.83474 111.24942,161.39475 111.24942,167.07474 C 111.24942,172.23474 114.12943,175.79474 119.16942,175.79474 C 121.56942,175.79474 123.68942,175.03474 125.68942,171.75474 M 130.32255,151.43474 C 130.32255,152.47474 131.28255,153.51474 132.24255,153.51474 C 133.36254,153.51474 134.32255,152.47474 134.32255,151.59474 C 134.32255,150.63475 133.48254,149.51474 132.40255,149.51474 C 131.44255,149.51474 130.32255,150.47475 130.32255,151.43474 M 133.96255,170.51474 L 133.96255,162.55474 C 133.96255,160.55475 134.12255,157.99474 134.12255,157.99474 C 134.12255,157.83475 133.92255,157.71474 133.60255,157.71474 C 132.44255,158.15474 130.88254,158.51475 128.12255,158.87474 C 128.04255,159.11474 128.12255,159.75475 128.20255,159.99474 C 130.36254,160.23474 130.80255,160.43475 130.80255,162.71474 L 130.80255,170.51474 C 130.80255,173.83474 130.36254,173.95475 127.92255,174.15474 C 127.68255,174.39474 127.68255,175.23475 127.92255,175.47474 C 129.60254,175.43474 130.64255,175.39474 132.40255,175.39474 C 134.12254,175.39474 135.12255,175.43474 136.84255,175.47474 C 137.08255,175.23475 137.08255,174.39474 136.84255,174.15474 C 134.40255,173.99475 133.96255,173.83474 133.96255,170.51474 M 153.50192,171.75474 C 153.34192,171.39475 153.02192,171.23474 152.66192,171.19474 C 151.30192,172.95474 149.58192,173.83474 147.86192,173.83474 C 144.94192,173.83474 142.50192,170.87474 142.50192,166.19474 C 142.50192,161.79475 144.42192,159.15474 147.06192,159.15474 C 149.42192,159.15474 149.74192,160.55475 149.90192,161.95474 C 150.02192,163.03474 150.58192,163.39474 151.42192,163.39474 C 152.26192,163.39474 153.38192,162.87474 153.38192,161.63474 C 153.38192,159.43475 151.10192,157.83474 147.26192,157.83474 C 143.30192,157.83474 139.06192,161.39475 139.06192,167.07474 C 139.06192,172.23474 141.94193,175.79474 146.98192,175.79474 C 149.38192,175.79474 151.50192,175.03474 153.50192,171.75474 M 158.33505,170.51474 C 158.33505,173.83474 157.89504,174.03474 155.45505,174.15474 C 155.21505,174.39474 155.21505,175.23475 155.45505,175.47474 C 157.13504,175.43474 158.17505,175.39474 159.93505,175.39474 C 161.65504,175.39474 162.65505,175.43474 164.37505,175.47474 C 164.61505,175.23475 164.61505,174.39474 164.37505,174.15474 C 161.93505,174.03474 161.49505,173.83474 161.49505,170.51474 L 161.49505,152.07474 C 161.49505,149.47475 161.65505,147.87474 161.65505,147.87474 C 161.65505,147.59475 161.49505,147.47474 161.13505,147.47474 C 160.13505,147.87474 157.13504,148.43474 155.53505,148.55474 C 155.45505,148.87474 155.53505,149.51475 155.77505,149.75474 C 157.85504,149.87474 158.33505,149.67475 158.33505,153.03474 L 158.33505,170.51474 M 166.72192,167.19474 C 166.72192,171.27474 169.48193,175.79474 175.12192,175.79474 C 181.08191,175.79474 183.60192,170.83474 183.60192,166.83474 C 183.60192,162.67475 181.40191,157.83474 175.20192,157.83474 C 169.80193,157.83474 166.72192,162.11475 166.72192,167.19474 M 174.76192,159.15474 C 178.20192,159.15474 180.16192,162.23475 180.16192,168.11474 C 180.16192,173.39474 177.72192,174.47474 175.84192,174.47474 C 171.68192,174.47474 170.16192,169.35474 170.16192,166.27474 C 170.16192,162.79475 171.40192,159.15474 174.76192,159.15474 M 192.23817,161.99474 C 193.47817,160.71475 195.07817,159.67474 196.27817,159.67474 C 198.83817,159.67474 201.03817,162.55475 201.03817,167.07474 C 201.03817,170.35474 199.87817,174.43474 195.39817,174.43474 C 194.67817,174.43474 193.27817,174.23474 192.55817,173.59474 C 191.71817,172.87475 191.59817,172.67474 191.59817,171.19474 L 191.59817,163.75474 C 191.59817,162.91475 191.71817,162.55474 192.23817,161.99474 M 191.91817,160.67474 C 191.75817,160.83474 191.51817,160.87474 191.51817,160.55474 C 191.51817,159.11475 191.67817,157.99474 191.67817,157.99474 C 191.67817,157.83475 191.47817,157.71474 191.15817,157.71474 C 190.03817,158.15474 188.51817,158.51475 185.75817,158.87474 C 185.67817,159.11474 185.75817,159.75475 185.83817,159.99474 C 187.99817,160.19474 188.43817,160.43475 188.43817,162.71474 L 188.43817,179.79474 C 188.43817,183.11474 187.99817,183.31474 185.55817,183.43474 C 185.31817,183.67474 185.31817,184.51475 185.55817,184.75474 C 187.23817,184.71474 188.27817,184.67474 190.03817,184.67474 C 191.91817,184.67474 193.15817,184.71474 194.87817,184.75474 C 195.11817,184.51475 195.11817,183.67474 194.87817,183.43474 C 192.03817,183.27475 191.59817,183.11474 191.59817,179.79474 L 191.59817,175.47474 C 191.59817,174.95475 191.71817,175.03475 192.15817,175.19474 C 193.11817,175.59474 194.35817,175.79474 195.63817,175.79474 C 197.87817,175.79474 199.87817,175.11474 201.51817,173.55474 C 203.39817,171.71475 204.47817,169.23474 204.47817,165.99474 C 204.47817,161.75475 201.47817,157.83474 197.39817,157.83474 C 195.91817,157.83474 193.71817,158.83475 191.91817,160.67474 M 211.29192,164.11474 C 212.05192,159.59475 214.85192,159.23474 215.81192,159.23474 C 217.33192,159.23474 219.13192,160.07475 219.13192,163.43474 C 219.13192,163.79474 218.97192,163.99474 218.53192,163.99474 L 211.29192,164.11474 M 221.77192,171.67474 C 220.29192,173.19474 219.13192,173.83474 216.81192,173.83474 C 215.37192,173.83474 213.69192,172.99474 212.45192,170.95474 C 211.65192,169.63475 211.17192,167.79474 211.17192,165.47474 L 221.81192,165.55474 C 222.29192,165.55474 222.57192,165.31474 222.57192,164.87474 C 222.57192,161.51475 221.37192,157.91474 215.81192,157.91474 C 212.33192,157.91474 207.81192,161.23475 207.81192,167.31474 C 207.81192,169.55474 208.37192,171.71475 209.69192,173.23474 C 211.05192,174.83474 212.93192,175.79474 215.81192,175.79474 C 218.85192,175.79474 221.01192,174.39474 222.61192,172.31474 C 222.49192,171.91475 222.25192,171.71474 221.77192,171.67474 M 238.25692,170.43474 C 238.25692,171.19474 238.17692,171.51475 237.61692,171.99474 C 236.13692,173.27474 234.85692,173.91474 233.85692,173.91474 C 231.69692,173.91474 229.45692,171.55474 229.45692,166.55474 C 229.45692,163.67475 230.01692,162.07474 230.61692,161.23474 C 231.85692,159.35475 233.53692,159.23474 234.33692,159.23474 C 235.77692,159.23474 236.77692,159.75475 237.57692,160.67474 C 238.13692,161.31474 238.25692,161.59475 238.25692,162.83474 L 238.25692,170.43474 M 237.81692,173.39474 C 237.97692,173.23475 238.29692,173.15475 238.29692,173.43474 C 238.29692,174.39474 238.73692,175.79474 238.73692,175.79474 C 239.05692,175.91474 239.17692,175.87474 239.49692,175.79474 C 240.37692,175.07475 241.89692,174.47474 244.33692,174.19474 C 244.57692,173.95475 244.57692,173.35474 244.33692,173.11474 C 241.77692,172.91475 241.41692,172.15474 241.41692,170.19474 L 241.41692,152.07474 C 241.41692,149.47475 241.57692,147.87474 241.57692,147.87474 C 241.57692,147.59475 241.41692,147.47474 241.05692,147.47474 C 240.05692,147.87474 237.05692,148.43474 235.45692,148.55474 C 235.37692,148.87474 235.45692,149.51475 235.69692,149.75474 C 237.77692,149.87474 238.25692,149.67475 238.25692,153.03474 L 238.25692,158.15474 C 238.25692,158.43474 238.17692,158.51474 237.89692,158.51474 C 237.73692,158.51474 236.09692,157.83474 234.77692,157.83474 C 232.13692,157.83474 230.37692,158.71475 228.77692,160.23474 C 227.05692,161.95474 226.01692,164.31475 226.01692,167.27474 C 226.01692,172.19474 228.49692,175.79474 232.81692,175.79474 C 234.37692,175.79474 235.85692,174.99474 237.81692,173.39474 M 255.4913,148.55474 L 252.4513,153.31474 C 252.1313,153.83474 252.0113,153.99475 252.0113,154.43474 C 252.0113,154.71474 252.2913,154.95474 252.5713,154.95474 C 252.8513,154.95474 253.1713,154.79474 253.7713,154.19474 L 258.3713,149.83474 L 258.2513,149.39474 C 257.3313,148.51475 256.2913,148.47474 256.0513,148.47474 C 255.8513,148.47474 255.6113,148.51474 255.4913,148.55474 M 249.6513,164.11474 C 250.41129,159.59475 253.2113,159.23474 254.1713,159.23474 C 255.69129,159.23474 257.4913,160.07475 257.4913,163.43474 C 257.4913,163.79474 257.3313,163.99474 256.8913,163.99474 L 249.6513,164.11474 M 260.1313,171.67474 C 258.6513,173.19474 257.49129,173.83474 255.1713,173.83474 C 253.7313,173.83474 252.05129,172.99474 250.8113,170.95474 C 250.0113,169.63475 249.5313,167.79474 249.5313,165.47474 L 260.1713,165.55474 C 260.6513,165.55474 260.9313,165.31474 260.9313,164.87474 C 260.9313,161.51475 259.73129,157.91474 254.1713,157.91474 C 250.6913,157.91474 246.1713,161.23475 246.1713,167.31474 C 246.1713,169.55474 246.7313,171.71475 248.0513,173.23474 C 249.41129,174.83474 251.2913,175.79474 254.1713,175.79474 C 257.21129,175.79474 259.3713,174.39474 260.9713,172.31474 C 260.8513,171.91475 260.6113,171.71474 260.1313,171.67474 M 266.18192,151.43474 C 266.18192,152.47474 267.14192,153.51474 268.10192,153.51474 C 269.22192,153.51474 270.18192,152.47474 270.18192,151.59474 C 270.18192,150.63475 269.34192,149.51474 268.26192,149.51474 C 267.30192,149.51474 266.18192,150.47475 266.18192,151.43474 M 269.82192,170.51474 L 269.82192,162.55474 C 269.82192,160.55475 269.98192,157.99474 269.98192,157.99474 C 269.98192,157.83475 269.78192,157.71474 269.46192,157.71474 C 268.30192,158.15474 266.74192,158.51475 263.98192,158.87474 C 263.90192,159.11474 263.98192,159.75475 264.06192,159.99474 C 266.22192,160.23474 266.66192,160.43475 266.66192,162.71474 L 266.66192,170.51474 C 266.66192,173.83474 266.22192,173.95475 263.78192,174.15474 C 263.54192,174.39474 263.54192,175.23475 263.78192,175.47474 C 265.46192,175.43474 266.50192,175.39474 268.26192,175.39474 C 269.98192,175.39474 270.98192,175.43474 272.70192,175.47474 C 272.94192,175.23475 272.94192,174.39474 272.70192,174.15474 C 270.26192,173.99475 269.82192,173.83474 269.82192,170.51474 M 285.1613,166.07474 L 285.1613,171.39474 C 285.1613,171.91474 284.9213,172.19475 284.6013,172.43474 C 283.5613,173.27474 282.20129,174.15474 281.0813,174.15474 C 279.0813,174.15474 278.2013,172.55474 278.2013,171.31474 C 278.2013,169.51475 279.0413,167.71474 282.0013,166.91474 L 285.1613,166.07474 M 285.1613,173.47474 C 285.4013,174.31474 286.0813,175.79474 288.2413,175.79474 C 290.20129,175.79474 291.6413,174.19474 291.6413,173.99474 C 291.6413,173.71475 291.2813,173.31474 291.1213,173.31474 C 290.8813,173.31474 290.72129,173.95474 289.8813,173.95474 C 288.3213,173.95474 288.2813,172.39474 288.2813,170.55474 L 288.2813,164.59474 C 288.2813,158.91475 285.16129,157.83474 282.2413,157.83474 C 278.9613,157.83474 275.6413,160.11475 275.6413,162.27474 C 275.6413,163.23474 276.1213,163.67474 277.0413,163.67474 C 278.20129,163.67474 278.8013,162.87474 278.8013,162.35474 C 278.8013,162.07475 278.7613,161.79474 278.6813,161.63474 C 278.6413,161.51474 278.6013,161.27474 278.6013,160.83474 C 278.6013,159.59475 280.4013,159.15474 281.9213,159.15474 C 283.28129,159.15474 285.1613,159.83475 285.1613,164.35474 C 285.1613,164.63474 285.0413,164.79474 284.9213,164.83474 L 281.4813,165.67474 C 277.6413,166.63474 274.8813,168.75475 274.8813,171.47474 C 274.8813,174.63474 277.1213,175.79474 279.9213,175.79474 C 281.76129,175.79474 282.5213,175.47474 284.2813,174.11474 L 285.0813,173.47474 L 285.1613,173.47474 M 305.52255,170.51474 C 305.52255,173.83474 305.08254,174.03474 302.64255,174.15474 C 302.40255,174.39474 302.40255,175.23475 302.64255,175.47474 C 304.32254,175.43474 305.36255,175.39474 307.12255,175.39474 C 308.84254,175.39474 309.84255,175.43474 311.56255,175.47474 C 311.80255,175.23475 311.80255,174.39474 311.56255,174.15474 C 309.12255,174.03474 308.68255,173.83474 308.68255,170.51474 L 308.68255,152.07474 C 308.68255,149.47475 308.84255,147.87474 308.84255,147.87474 C 308.84255,147.59475 308.68255,147.47474 308.32255,147.47474 C 307.32255,147.87474 304.32254,148.43474 302.72255,148.55474 C 302.64255,148.87474 302.72255,149.51475 302.96255,149.75474 C 305.04254,149.87474 305.52255,149.67475 305.52255,153.03474 L 305.52255,170.51474 M 323.06942,148.55474 L 320.02942,153.31474 C 319.70942,153.83474 319.58942,153.99475 319.58942,154.43474 C 319.58942,154.71474 319.86942,154.95474 320.14942,154.95474 C 320.42942,154.95474 320.74942,154.79474 321.34942,154.19474 L 325.94942,149.83474 L 325.82942,149.39474 C 324.90942,148.51475 323.86942,148.47474 323.62942,148.47474 C 323.42942,148.47474 323.18942,148.51474 323.06942,148.55474 M 317.22942,164.11474 C 317.98942,159.59475 320.78942,159.23474 321.74942,159.23474 C 323.26942,159.23474 325.06942,160.07475 325.06942,163.43474 C 325.06942,163.79474 324.90942,163.99474 324.46942,163.99474 L 317.22942,164.11474 M 327.70942,171.67474 C 326.22942,173.19474 325.06942,173.83474 322.74942,173.83474 C 321.30942,173.83474 319.62942,172.99474 318.38942,170.95474 C 317.58942,169.63475 317.10942,167.79474 317.10942,165.47474 L 327.74942,165.55474 C 328.22942,165.55474 328.50942,165.31474 328.50942,164.87474 C 328.50942,161.51475 327.30942,157.91474 321.74942,157.91474 C 318.26942,157.91474 313.74942,161.23475 313.74942,167.31474 C 313.74942,169.55474 314.30942,171.71475 315.62942,173.23474 C 316.98942,174.83474 318.86942,175.79474 321.74942,175.79474 C 324.78942,175.79474 326.94942,174.39474 328.54942,172.31474 C 328.42942,171.91475 328.18942,171.71474 327.70942,171.67474 M 337.12005,160.87474 C 338.16004,159.95475 339.36005,159.59474 340.52005,159.59474 C 342.96004,159.59474 344.96005,162.55475 344.96005,166.43474 C 344.96005,170.99474 343.12004,174.43474 339.32005,174.43474 C 338.08005,174.43474 337.24004,173.55474 336.44005,172.55474 L 336.44005,162.55474 C 336.44005,161.71475 336.60005,161.35474 337.12005,160.87474 M 336.84005,159.63474 C 336.56005,159.87474 336.44005,159.79474 336.44005,159.43474 L 336.44005,152.07474 C 336.44005,149.47475 336.60005,147.87474 336.60005,147.87474 C 336.60005,147.59475 336.44005,147.47474 336.08005,147.47474 C 335.08005,147.87474 332.08004,148.43474 330.48005,148.55474 C 330.40005,148.87474 330.48005,149.51475 330.72005,149.75474 C 332.80004,149.87474 333.28005,149.67475 333.28005,153.03474 L 333.28005,172.55474 C 333.28005,174.11474 333.24005,174.83475 333.12005,175.39474 C 333.32005,175.71474 333.52005,175.87474 334.00005,175.87474 C 334.24005,175.67475 334.64005,175.27474 334.92005,174.91474 C 335.36005,174.43475 335.60005,174.43475 336.04005,174.83474 C 336.92004,175.59474 338.12005,175.79474 339.56005,175.79474 C 343.64004,175.79474 348.40005,172.07474 348.40005,165.71474 C 348.40005,160.83475 344.80004,157.83474 341.32005,157.83474 C 339.60005,157.83474 338.08004,158.51475 336.84005,159.63474 M 353.84755,162.71474 L 353.84755,170.51474 C 353.84755,173.83474 353.36754,173.99475 350.88755,174.15474 C 350.64755,174.39474 350.64755,175.23475 350.88755,175.47474 C 352.56754,175.43474 353.84755,175.39474 355.44755,175.39474 C 357.08754,175.39474 358.56755,175.43474 360.28755,175.47474 C 360.52755,175.23475 360.52755,174.39474 360.28755,174.15474 C 357.48755,173.95475 357.00755,173.83474 357.00755,170.51474 L 357.00755,164.95474 C 357.00755,163.91475 357.48755,162.99474 357.96755,162.27474 C 358.40755,161.63475 359.32755,160.31474 359.80755,160.31474 C 360.08755,160.31474 360.40755,160.35475 360.64755,160.59474 C 361.04755,160.99474 361.44755,161.75474 362.28755,161.75474 C 363.24754,161.75474 364.16755,160.75474 364.16755,159.75474 C 364.16755,158.99475 363.44754,157.83474 361.76755,157.83474 C 359.88755,157.83474 358.24754,159.59475 357.32755,161.15474 C 357.08755,161.59474 356.96755,161.39474 356.96755,161.19474 C 356.96755,159.91475 357.16755,157.99474 357.16755,157.99474 C 357.16755,157.83475 356.96755,157.71474 356.64755,157.71474 C 355.52755,158.15474 353.92754,158.51475 351.16755,158.87474 C 351.08755,159.11474 351.08755,159.75475 351.24755,159.99474 C 353.40754,160.19474 353.84755,160.51475 353.84755,162.71474 M 376.4113,166.07474 L 376.4113,171.39474 C 376.4113,171.91474 376.1713,172.19475 375.8513,172.43474 C 374.8113,173.27474 373.45129,174.15474 372.3313,174.15474 C 370.3313,174.15474 369.4513,172.55474 369.4513,171.31474 C 369.4513,169.51475 370.2913,167.71474 373.2513,166.91474 L 376.4113,166.07474 M 376.4113,173.47474 C 376.6513,174.31474 377.3313,175.79474 379.4913,175.79474 C 381.45129,175.79474 382.8913,174.19474 382.8913,173.99474 C 382.8913,173.71475 382.5313,173.31474 382.3713,173.31474 C 382.1313,173.31474 381.97129,173.95474 381.1313,173.95474 C 379.5713,173.95474 379.5313,172.39474 379.5313,170.55474 L 379.5313,164.59474 C 379.5313,158.91475 376.41129,157.83474 373.4913,157.83474 C 370.2113,157.83474 366.8913,160.11475 366.8913,162.27474 C 366.8913,163.23474 367.3713,163.67474 368.2913,163.67474 C 369.45129,163.67474 370.0513,162.87474 370.0513,162.35474 C 370.0513,162.07475 370.0113,161.79474 369.9313,161.63474 C 369.8913,161.51474 369.8513,161.27474 369.8513,160.83474 C 369.8513,159.59475 371.6513,159.15474 373.1713,159.15474 C 374.53129,159.15474 376.4113,159.83475 376.4113,164.35474 C 376.4113,164.63474 376.2913,164.79474 376.1713,164.83474 L 372.7313,165.67474 C 368.8913,166.63474 366.1313,168.75475 366.1313,171.47474 C 366.1313,174.63474 368.3713,175.79474 371.1713,175.79474 C 373.01129,175.79474 373.7713,175.47474 375.5313,174.11474 L 376.3313,173.47474 L 376.4113,173.47474" id="subline" style="font-size:40px;font-style:normal;font-variant:normal;font-weight:normal;font-stretch:normal;fill:#000000;fill-opacity:1;stroke:none;stroke-width:1px;stroke-linecap:butt;stroke-linejoin:miter;stroke-opacity:1;font-family:Sans;-inkscape-font-specification:Sans"></path></svg>
</svg>