<?xml version="1.0" encoding="UTF-8" standalone="no"?>
<!-- Created with Inkscape (http://www.inkscape.org/) -->
<svg xmlns:svg="http://www.w3.org/2000/svg" xmlns="http://www.w3.org/2000/svg" version="1.0" width="135" height="155" viewBox="0 0 135 155" id="svg3857" xml:space="preserve"><defs id="defs3"></defs><g id="Wikipedia">
	<path d="M 18.757,118.893 C 18.757,118.893 18.39,118.147 18.265,117.899 C 17.431,116.247 17.449,116.159 16.606,116.047 C 16.37,116.016 16.248,115.986 16.248,115.869 L 16.248,115.346 L 16.319,115.295 C 17.842,115.293 21.231,115.293 21.231,115.293 L 21.361,115.336 L 21.361,115.857 C 21.361,115.976 21.276,116.037 21.103,116.037 L 20.747,116.088 C 19.847,116.158 19.994,116.526 20.592,117.717 L 26.269,129.332 L 26.463,129.385 L 31.503,117.424 C 31.678,116.942 31.651,116.6 31.426,116.399 C 31.2,116.204 31.041,116.087 30.457,116.063 L 29.984,116.04 C 29.926,116.04 29.871,116.019 29.818,115.979 C 29.766,115.942 29.739,115.893 29.739,115.834 L 29.739,115.336 L 29.811,115.285 C 31.231,115.285 35.505,115.285 35.505,115.285 L 35.563,115.336 L 35.563,115.834 C 35.563,115.969 35.486,116.037 35.334,116.037 C 34.588,116.07 34.035,116.232 33.677,116.521 C 33.318,116.812 33.038,117.212 32.837,117.734 C 32.837,117.734 28.202,128.342 26.616,131.869 C 26.009,133.025 25.412,132.919 24.887,131.836 C 23.778,129.552 20.655,122.623 20.655,122.623 L 18.757,118.893 z" id="path3898"></path>
	<path d="M 27.853,115.287 C 27.853,115.287 24.65,115.277 23.224,115.287 L 23.153,115.338 L 23.153,115.834 C 23.153,115.895 23.179,115.943 23.231,115.98 C 23.284,116.019 23.338,116.039 23.396,116.039 L 23.625,116.064 C 24.208,116.087 24.476,116.241 24.556,116.336 C 24.695,116.506 24.764,116.69 24.427,117.425 L 18.447,129.353 L 18.29,129.312 C 18.29,129.312 14.007,120.281 12.767,117.259 C 12.638,116.947 12.58,116.714 12.58,116.571 C 12.58,116.264 12.857,116.098 13.411,116.075 L 14.057,116.048 C 14.228,116.048 14.315,115.982 14.315,115.845 L 14.315,115.349 L 14.257,115.298 C 14.257,115.298 9.127,115.292 8.067,115.298 L 8.009,115.349 L 8.009,115.87 C 8.009,115.964 8.128,116.022 8.367,116.048 C 9.018,116.083 9.446,116.187 9.652,116.36 C 9.857,116.535 10.074,116.977 10.362,117.666 C 11.919,121.406 15.227,128.08 16.838,131.881 C 17.302,132.919 17.885,133.08 18.593,131.849 C 19.819,129.576 23.143,122.631 23.143,122.631 L 25.761,117.735 C 26.066,117.217 26.36,116.756 26.509,116.542 C 26.782,116.149 26.935,116.075 27.681,116.04 C 27.833,116.04 27.91,115.972 27.91,115.835 L 27.91,115.339 L 27.853,115.287 z" id="path3900"></path>
	<path d="M 37.592,130.77 C 37.592,131.342 37.852,131.68 38.684,131.758 L 39.23,131.811 C 39.308,131.811 39.386,131.862 39.386,131.966 L 39.386,132.512 L 39.36,132.565 C 39.36,132.565 37.384,132.512 36.578,132.512 C 35.85,132.512 33.822,132.565 33.822,132.565 L 33.77,132.512 L 33.77,131.966 C 33.77,131.862 33.848,131.811 33.952,131.811 L 34.472,131.758 C 35.33,131.68 35.59,131.264 35.59,130.77 L 35.59,122.112 C 35.59,121.542 35.277,121.383 34.472,121.307 L 33.952,121.253 C 33.848,121.253 33.77,121.229 33.77,121.149 L 33.77,120.55 L 33.796,120.498 C 33.796,120.498 35.85,120.55 36.656,120.55 C 37.358,120.55 39.36,120.498 39.36,120.498 L 39.386,120.55 L 39.386,121.122 C 39.386,121.2 39.334,121.252 39.23,121.252 L 38.684,121.305 C 37.878,121.382 37.592,121.591 37.592,122.112 L 37.592,130.77 z" id="path3904"></path>
	<path d="M 45.265,130.77 C 45.265,131.342 45.603,131.628 46.357,131.758 L 46.643,131.811 C 46.721,131.836 46.799,131.862 46.799,131.966 L 46.799,132.512 L 46.773,132.565 C 46.773,132.565 45.135,132.512 44.355,132.512 C 43.627,132.512 41.495,132.565 41.495,132.565 L 41.443,132.512 L 41.443,131.966 C 41.443,131.862 41.521,131.811 41.625,131.811 L 42.145,131.758 C 42.925,131.68 43.263,131.264 43.263,130.77 L 43.263,122.112 C 43.263,121.542 42.977,121.383 42.145,121.307 L 41.625,121.253 C 41.521,121.253 41.443,121.229 41.443,121.149 L 41.443,120.55 L 41.469,120.498 C 41.469,120.498 43.601,120.55 44.407,120.55 C 45.136,120.55 46.773,120.498 46.773,120.498 L 46.799,120.55 L 46.799,121.122 C 46.799,121.2 46.747,121.226 46.643,121.252 L 46.357,121.305 C 45.551,121.46 45.265,121.591 45.265,122.112 L 45.265,126.039 C 46.123,126.039 46.617,125.599 47.761,124.375 C 48.801,123.229 49.607,122.271 49.607,121.774 C 49.607,121.565 49.373,121.333 48.853,121.253 C 48.749,121.229 48.697,121.201 48.697,121.123 L 48.697,120.523 L 48.723,120.499 C 48.723,120.499 50.829,120.551 51.583,120.551 C 52.259,120.551 53.403,120.499 53.403,120.499 L 53.481,120.523 L 53.481,121.123 C 53.481,121.201 53.403,121.253 53.273,121.253 C 52.259,121.331 51.557,121.383 50.621,122.449 L 48.385,125.021 C 47.943,125.491 47.787,125.775 47.787,125.984 C 47.787,126.14 47.891,126.269 48.021,126.425 L 51.947,131.157 C 52.259,131.52 52.883,131.677 53.403,131.78 L 53.533,131.805 C 53.611,131.83 53.715,131.882 53.715,131.96 L 53.715,132.506 L 53.637,132.532 C 53.637,132.532 52.259,132.506 51.531,132.506 C 50.881,132.506 49.945,132.532 49.945,132.532 L 49.919,132.506 L 49.919,132.194 C 49.919,131.855 49.893,131.571 49.529,131.155 L 46.643,127.566 C 46.253,127.045 45.837,126.917 45.265,126.917 L 45.265,130.77 L 45.265,130.77 z" id="path3906"></path>
	<path d="M 59.282,130.77 C 59.282,131.342 59.542,131.68 60.374,131.758 L 60.92,131.811 C 60.998,131.811 61.076,131.862 61.076,131.966 L 61.076,132.512 L 61.05,132.565 C 61.05,132.565 59.074,132.512 58.268,132.512 C 57.54,132.512 55.512,132.565 55.512,132.565 L 55.46,132.512 L 55.46,131.966 C 55.46,131.862 55.538,131.811 55.642,131.811 L 56.162,131.758 C 57.02,131.68 57.28,131.264 57.28,130.77 L 57.28,122.112 C 57.28,121.542 56.968,121.383 56.162,121.307 L 55.642,121.253 C 55.538,121.253 55.46,121.229 55.46,121.149 L 55.46,120.55 L 55.486,120.498 C 55.486,120.498 57.54,120.55 58.346,120.55 C 59.048,120.55 61.05,120.498 61.05,120.498 L 61.076,120.55 L 61.076,121.122 C 61.076,121.2 61.024,121.252 60.92,121.252 L 60.374,121.305 C 59.568,121.382 59.282,121.591 59.282,122.112 L 59.282,130.77 z" id="path3908"></path>
	<path d="M 64.9,122.163 C 64.9,121.357 64.562,121.331 63.34,121.253 C 63.184,121.253 63.158,121.176 63.158,121.123 L 63.158,120.525 L 63.21,120.499 C 63.6,120.499 65.134,120.551 65.888,120.551 C 66.616,120.551 67.656,120.499 68.618,120.499 C 72.308,120.499 72.984,122.318 72.984,123.672 C 72.984,125.233 72.23,127.676 68.54,127.676 C 67.89,127.676 67.37,127.623 66.901,127.416 L 66.901,130.898 C 66.901,131.469 67.213,131.601 68.046,131.73 L 68.567,131.808 C 68.671,131.833 68.75,131.861 68.75,131.963 L 68.75,132.509 L 68.726,132.562 C 68.726,132.562 66.645,132.509 65.839,132.509 C 65.111,132.509 63.161,132.562 63.161,132.562 L 63.135,132.509 L 63.135,131.963 C 63.135,131.859 63.187,131.833 63.291,131.808 L 63.837,131.73 C 64.643,131.626 64.903,131.392 64.903,130.898 L 64.9,122.163 L 64.9,122.163 L 64.9,122.163 z M 66.902,126.688 C 67.422,126.897 68.072,126.922 68.592,126.922 C 70.153,126.922 70.904,125.984 70.904,123.984 C 70.904,121.748 69.89,121.254 68.462,121.254 C 67.213,121.254 66.901,121.488 66.901,122.164 L 66.902,126.688 L 66.902,126.688 z" id="path3910"></path>
	<path d="M 77.462,132.512 C 76.682,132.512 74.889,132.565 74.889,132.565 L 74.862,132.512 L 74.862,131.94 C 74.862,131.889 74.889,131.811 75.018,131.811 L 75.618,131.758 C 76.425,131.68 76.659,131.16 76.659,130.641 L 76.659,122.061 C 76.659,121.461 76.347,121.358 75.618,121.307 L 75.018,121.253 C 74.862,121.229 74.862,121.176 74.862,121.149 L 74.862,120.55 L 74.889,120.498 C 74.889,120.498 76.916,120.55 77.696,120.55 L 81.518,120.55 C 82.298,120.55 84.145,120.498 84.145,120.498 L 84.199,120.55 C 84.223,121.668 84.405,122.684 84.589,123.671 L 83.941,123.775 C 83.656,122.812 83.162,121.435 81.498,121.435 L 79.418,121.435 C 78.924,121.435 78.664,121.617 78.664,122.058 L 78.664,125.829 L 80.613,125.829 C 81.342,125.829 81.523,125.517 81.628,124.997 L 81.783,124.451 C 81.783,124.373 81.836,124.32 81.939,124.32 L 82.379,124.32 C 82.433,124.32 82.433,124.347 82.433,124.398 C 82.379,124.969 82.277,125.699 82.277,126.323 C 82.277,126.972 82.381,127.519 82.433,128.117 L 82.379,128.17 L 81.939,128.17 C 81.81,128.17 81.755,128.117 81.755,128.039 L 81.625,127.468 C 81.521,126.947 81.287,126.661 80.608,126.661 L 78.66,126.661 L 78.66,130.64 C 78.66,131.132 78.943,131.626 79.414,131.626 L 81.884,131.626 C 83.21,131.626 83.94,130.794 84.25,129.44 L 84.898,129.518 L 84.377,132.507 L 84.325,132.559 C 84.325,132.559 82.791,132.507 82.011,132.507 L 77.462,132.512 L 77.462,132.512 L 77.462,132.512 z" id="path3912"></path>
	<path d="M 87.24,131.811 L 87.838,131.758 C 88.619,131.68 88.879,131.446 88.879,130.641 L 88.879,122.061 C 88.879,121.383 88.695,121.383 87.838,121.307 L 87.268,121.253 C 87.164,121.253 87.084,121.201 87.084,121.123 L 87.084,120.551 L 87.109,120.499 C 87.109,120.499 89.398,120.551 89.867,120.551 C 90.359,120.551 92.623,120.499 93.299,120.499 C 97.641,120.499 99.774,123.203 99.774,126.661 C 99.774,131.212 96.549,132.562 93.665,132.562 C 91.585,132.562 90.676,132.509 89.87,132.509 C 89.089,132.509 87.112,132.562 87.112,132.562 L 87.087,132.509 L 87.087,131.963 C 87.084,131.889 87.137,131.811 87.24,131.811 z M 93.039,131.811 C 95.898,131.811 97.512,130.747 97.512,127.104 C 97.512,124.401 96.913,121.253 92.545,121.253 C 91.531,121.253 90.881,121.409 90.881,122.061 L 90.881,130.641 C 90.881,131.367 91.062,131.811 93.039,131.811 z" id="path3914"></path>
	<path d="M 105.912,130.77 C 105.912,131.342 106.172,131.68 107.004,131.758 L 107.55,131.811 C 107.628,131.811 107.706,131.862 107.706,131.966 L 107.706,132.512 L 107.68,132.565 C 107.68,132.565 105.704,132.512 104.899,132.512 C 104.17,132.512 102.143,132.565 102.143,132.565 L 102.09,132.512 L 102.09,131.966 C 102.09,131.862 102.168,131.811 102.272,131.811 L 102.793,131.758 C 103.65,131.68 103.911,131.264 103.911,130.77 L 103.911,122.112 C 103.911,121.542 103.598,121.383 102.793,121.307 L 102.272,121.253 C 102.168,121.253 102.09,121.229 102.09,121.149 L 102.09,120.55 L 102.116,120.498 C 102.116,120.498 104.17,120.55 104.974,120.55 C 105.675,120.55 107.679,120.498 107.679,120.498 L 107.703,120.55 L 107.703,121.122 C 107.703,121.2 107.649,121.252 107.547,121.252 L 107.001,121.305 C 106.194,121.382 105.909,121.591 105.909,122.112 L 105.912,130.77 L 105.912,130.77 L 105.912,130.77 z" id="path3916"></path>
	<path d="M 113.922,131.758 L 114.676,131.811 C 114.78,131.811 114.884,131.889 114.884,132.018 L 114.884,132.512 L 114.832,132.565 C 114.832,132.565 111.998,132.512 111.374,132.512 C 110.697,132.512 109.033,132.565 109.033,132.565 L 108.98,132.512 L 108.98,132.018 C 108.98,131.889 109.058,131.811 109.189,131.811 C 110.334,131.733 110.982,131.524 111.71,129.86 L 117.481,116.339 C 117.766,115.663 117.975,115.402 118.367,115.402 C 118.729,115.402 118.86,115.663 119.067,116.183 L 124.397,130.275 C 124.762,131.29 125.283,131.679 126.323,131.783 L 126.608,131.808 C 126.739,131.808 126.869,131.885 126.869,132.017 L 126.869,132.509 L 126.791,132.562 C 126.791,132.562 124.789,132.509 123.774,132.509 C 122.864,132.509 120.315,132.562 120.315,132.562 L 120.291,132.509 L 120.291,132.017 C 120.291,131.885 120.343,131.808 120.476,131.808 L 121.204,131.755 C 122.191,131.678 122.557,131.364 122.296,130.638 L 120.71,126.242 L 115.3,126.242 C 114.676,126.242 114.52,126.346 114.391,126.682 L 112.882,130.453 C 112.622,131.107 112.96,131.68 113.922,131.758 z M 120.292,125.152 L 117.77,118.211 L 117.718,118.211 L 115.118,124.815 C 115.014,125.077 115.195,125.153 115.767,125.153 L 120.292,125.153 L 120.292,125.152 z" id="path3918"></path>
</g><path d="M 100.40778,168.59564 L 87.303778,168.59564 L 87.303778,139.79564 C 87.303778,136.33964 89.031781,133.45964 92.487778,133.45964 L 107.60778,133.45964 C 118.40777,133.45964 120.71178,139.21965 123.87978,149.15564 C 125.60778,149.44364 127.19178,149.15563 128.63178,148.43564 C 127.91178,142.53164 125.75178,128.70763 125.46378,127.55564 C 125.46378,127.26764 125.31978,127.12364 124.88778,127.12364 C 122.43978,127.55564 121.28777,127.69964 117.83178,127.69964 L 81.111778,127.69964 C 81.111778,127.69964 69.73577,127.55564 62.535778,127.41164 C 61.671778,128.27563 61.671778,131.29964 62.535778,132.16364 C 72.615767,132.59564 75.063778,133.31565 75.063778,145.26764 L 75.063778,203.01164 C 75.063778,214.96362 72.615767,215.68364 62.535778,216.11564 C 61.671778,216.97963 61.671778,220.00364 62.535778,220.86764 C 69.59177,220.72364 81.255778,220.57964 81.255778,220.57964 L 112.21578,220.57964 C 119.12777,220.57964 130.64778,220.86764 130.64778,220.86764 C 132.66378,213.66764 134.82378,204.16363 135.97578,196.81964 C 134.39178,196.09964 132.80778,195.66764 130.93578,196.09964 C 128.05578,206.46763 123.01577,214.96364 112.07178,214.96364 L 92.487778,214.96364 C 89.319781,214.96364 87.303778,212.65963 87.303778,208.77164 L 87.303778,174.06764 L 100.40778,174.06764 C 112.64777,174.06764 113.07978,177.37964 113.51178,183.85964 C 114.37578,184.72363 117.39978,184.72363 118.26378,183.85964 C 118.11978,178.81964 117.97578,176.08363 117.97578,171.18764 C 117.97578,166.29164 118.11978,163.12363 118.26378,158.80364 C 117.39978,157.93964 114.37578,157.93964 113.51178,158.80364 C 113.07978,166.72363 112.64777,168.59564 100.40778,168.59564 M 164.62303,169.02764 C 164.19103,169.60364 163.18303,171.04363 163.18303,169.02764 C 163.18303,164.70764 163.90303,158.08364 163.90303,158.08364 C 163.90303,157.36364 163.32703,156.93164 162.17503,156.93164 C 158.14303,158.51563 152.23902,159.81164 142.30303,161.10764 C 142.01503,161.97163 142.30303,164.27564 142.59103,165.13964 C 150.36702,165.85963 151.95103,166.57964 151.95103,174.93164 L 151.95103,203.01164 C 151.95103,214.81962 150.51102,215.39564 141.87103,216.11564 C 141.00703,216.97963 141.00703,220.00364 141.87103,220.86764 C 147.77502,220.72364 151.51903,220.57964 157.71103,220.57964 C 163.32702,220.57964 165.91903,220.72364 171.96703,220.86764 C 172.83103,220.00364 172.83103,216.97963 171.96703,216.11564 C 164.62303,215.39564 163.32703,214.81962 163.32703,203.01164 L 163.32703,179.39564 C 163.32703,176.37164 164.62303,174.64363 165.77503,173.34764 C 171.24702,168.01964 176.86303,164.85164 182.47903,164.85164 C 185.35902,164.85164 188.38303,166.72364 190.11103,170.03564 C 191.55103,172.91563 191.83903,176.80364 191.83903,181.12364 L 191.83903,203.01164 C 191.83903,214.81962 190.39902,215.39564 182.91103,216.11564 C 182.19103,216.97963 182.19103,220.00364 182.91103,220.86764 C 188.95902,220.72364 191.83903,220.57964 197.59903,220.57964 C 203.50302,220.57964 206.67103,220.72364 212.86303,220.86764 C 213.58303,220.00364 213.58303,216.97963 212.86303,216.11564 C 204.79904,215.39564 203.21503,214.81962 203.21503,203.01164 L 203.21503,181.55564 C 203.21503,173.63564 202.63902,166.72363 199.32703,162.25964 C 196.87903,159.09164 192.41502,157.36364 187.37503,157.36364 C 180.31903,157.36364 173.40702,159.23565 164.62303,169.02764 M 270.50153,207.47564 C 269.92553,206.17964 268.77353,205.60364 267.47753,205.45964 C 262.58153,211.79563 256.38952,214.96364 250.19753,214.96364 C 239.68554,214.96364 230.90153,204.30762 230.90153,187.45964 C 230.90153,171.61965 237.81354,162.11564 247.31753,162.11564 C 255.81352,162.11564 256.96553,167.15564 257.54153,172.19564 C 257.97353,176.08363 259.98953,177.37964 263.01353,177.37964 C 266.03752,177.37964 270.06953,175.50763 270.06953,171.04364 C 270.06953,163.12364 261.86151,157.36364 248.03753,157.36364 C 233.78154,157.36364 218.51753,170.17966 218.51753,190.62764 C 218.51753,209.20362 228.88555,222.01964 247.02953,222.01964 C 255.66952,222.01964 263.30153,219.28362 270.50153,207.47564 M 302.17278,243.61964 C 304.33278,239.73164 306.20478,235.55563 308.07678,231.23564 C 319.59677,203.58766 325.93279,188.61162 333.56478,172.48364 C 335.58078,168.30764 339.90078,163.69964 345.22878,163.26764 C 346.09278,162.40364 346.09278,159.37963 345.22878,158.51564 C 341.62878,158.65964 339.03677,158.80364 335.00478,158.80364 C 329.96478,158.80364 327.22877,158.65964 321.90078,158.51564 C 321.03678,159.37963 321.03678,162.40364 321.90078,163.26764 C 326.36477,163.69964 330.97278,164.56364 328.81278,169.74764 L 314.41278,202.72364 C 313.40478,205.17163 312.25278,205.45963 310.95678,202.57964 L 298.28478,172.62764 C 295.69278,166.57964 294.10879,163.98763 302.89278,163.26764 C 303.75678,162.40364 303.75678,159.37963 302.89278,158.51564 C 297.56478,158.65964 291.80477,158.80364 286.62078,158.80364 C 281.72478,158.80364 277.83677,158.65964 274.95678,158.51564 C 274.09278,159.37963 274.09278,162.40364 274.95678,163.26764 C 281.29277,163.84364 282.44478,164.99564 286.33278,174.06764 L 302.60478,211.93964 C 303.90078,214.96363 306.06078,221.44364 304.62078,225.47564 C 303.03678,230.37163 301.16478,234.25964 299.00478,238.72364 C 297.42078,241.60363 295.40477,242.89964 291.80478,242.89964 C 289.78878,242.89964 289.21278,242.46764 287.62878,242.46764 C 283.45278,242.46764 281.29278,246.78764 281.29278,248.65964 C 281.29278,251.68363 284.17278,253.98764 288.06078,253.98764 C 291.08477,253.98764 296.84478,252.83563 302.02878,243.61964 L 302.17278,243.61964 M 401.22028,207.47564 C 400.64428,206.17964 399.49228,205.60364 398.19628,205.45964 C 393.30028,211.79563 387.10827,214.96364 380.91628,214.96364 C 370.40429,214.96364 361.62028,204.30762 361.62028,187.45964 C 361.62028,171.61965 368.53229,162.11564 378.03628,162.11564 C 386.53227,162.11564 387.68428,167.15564 388.26028,172.19564 C 388.69228,176.08363 390.70828,177.37964 393.73228,177.37964 C 396.75627,177.37964 400.78828,175.50763 400.78828,171.04364 C 400.78828,163.12364 392.58026,157.36364 378.75628,157.36364 C 364.50029,157.36364 349.23628,170.17966 349.23628,190.62764 C 349.23628,209.20362 359.6043,222.01964 377.74828,222.01964 C 386.38827,222.01964 394.02028,219.28362 401.22028,207.47564 M 416.61953,203.01164 C 416.61953,214.96362 415.03552,215.68364 406.25153,216.11564 C 405.38753,216.97963 405.38753,220.00364 406.25153,220.86764 C 412.29952,220.72364 416.04353,220.57964 422.37953,220.57964 C 428.57152,220.57964 432.17153,220.72364 438.36353,220.86764 C 439.22753,220.00364 439.22753,216.97963 438.36353,216.11564 C 429.57954,215.68364 427.99553,214.96362 427.99553,203.01164 L 427.99553,136.62764 C 427.99553,127.26764 428.57153,121.50764 428.57153,121.50764 C 428.57153,120.49964 427.99553,120.06764 426.69953,120.06764 C 423.09953,121.50763 412.29952,123.52364 406.53953,123.95564 C 406.25153,125.10763 406.53953,127.41164 407.40353,128.27564 C 414.89152,128.70764 416.61953,127.98765 416.61953,140.08364 L 416.61953,203.01164 M 444.81228,191.05964 C 444.81228,205.74762 454.7483,222.01964 475.05228,222.01964 C 496.50826,222.01964 505.58028,204.16362 505.58028,189.76364 C 505.58028,174.78765 497.66026,157.36364 475.34028,157.36364 C 455.9003,157.36364 444.81228,172.77165 444.81228,191.05964 M 473.75628,162.11564 C 486.14027,162.11564 493.19628,173.20366 493.19628,194.37164 C 493.19628,213.37962 484.41227,217.26764 477.64428,217.26764 C 462.66829,217.26764 457.19628,198.83562 457.19628,187.74764 C 457.19628,175.21965 461.66029,162.11564 473.75628,162.11564 M 534.67078,172.33964 C 539.13477,167.73164 544.89478,163.98764 549.21478,163.98764 C 558.43077,163.98764 566.35078,174.35565 566.35078,190.62764 C 566.35078,202.43562 562.17476,217.12364 546.04678,217.12364 C 543.45478,217.12364 538.41477,216.40363 535.82278,214.09964 C 532.79878,211.50764 532.36678,210.78763 532.36678,205.45964 L 532.36678,178.67564 C 532.36678,175.65164 532.79878,174.35563 534.67078,172.33964 M 533.51878,167.58764 C 532.94278,168.16364 532.07878,168.30763 532.07878,167.15564 C 532.07878,161.97164 532.65478,157.93964 532.65478,157.93964 C 532.65478,157.36364 531.93478,156.93164 530.78278,156.93164 C 526.75078,158.51563 521.27877,159.81164 511.34278,161.10764 C 511.05478,161.97163 511.34278,164.27564 511.63078,165.13964 C 519.40677,165.85963 520.99078,166.72364 520.99078,174.93164 L 520.99078,236.41964 C 520.99078,248.37162 519.40677,249.09164 510.62278,249.52364 C 509.75878,250.38763 509.75878,253.41164 510.62278,254.27564 C 516.67077,254.13164 520.41478,253.98764 526.75078,253.98764 C 533.51877,253.98764 537.98278,254.13164 544.17478,254.27564 C 545.03878,253.41164 545.03878,250.38763 544.17478,249.52364 C 533.95079,248.94764 532.36678,248.37162 532.36678,236.41964 L 532.36678,220.86764 C 532.36678,218.99564 532.79878,219.28364 534.38278,219.85964 C 537.83877,221.29963 542.30278,222.01964 546.91078,222.01964 C 554.97477,222.01964 562.17478,219.57163 568.07878,213.95564 C 574.84677,207.33164 578.73478,198.40362 578.73478,186.73964 C 578.73478,171.47565 567.93476,157.36364 553.24678,157.36364 C 547.91878,157.36364 539.99877,160.96364 533.51878,167.58764 M 601.26428,179.97164 C 604.00027,163.69965 614.08028,162.40364 617.53628,162.40364 C 623.00827,162.40364 629.48828,165.42765 629.48828,177.52364 C 629.48828,178.81963 628.91228,179.53964 627.32828,179.53964 L 601.26428,179.97164 M 638.99228,207.18764 C 633.66428,212.65963 629.48827,214.96364 621.13628,214.96364 C 615.95228,214.96364 609.90427,211.93963 605.44028,204.59564 C 602.56028,199.84364 600.83228,193.21963 600.83228,184.86764 L 639.13628,185.15564 C 640.86428,185.15564 641.87228,184.29163 641.87228,182.70764 C 641.87228,170.61165 637.55226,157.65164 617.53628,157.65164 C 605.00829,157.65164 588.73628,169.60366 588.73628,191.49164 C 588.73628,199.55563 590.75228,207.33164 595.50428,212.80364 C 600.40027,218.56363 607.16829,222.01964 617.53628,222.01964 C 628.48027,222.01964 636.25628,216.97963 642.01628,209.49164 C 641.58428,208.05164 640.72028,207.33164 638.99228,207.18764 M 696.33828,202.72364 C 696.33828,205.45963 696.05028,206.61164 694.03428,208.33964 C 688.70628,212.94763 684.09827,215.25164 680.49828,215.25164 C 672.72229,215.25164 664.65828,206.75562 664.65828,188.75564 C 664.65828,178.38765 666.67428,172.62763 668.83428,169.60364 C 673.29827,162.83564 679.34628,162.40364 682.22628,162.40364 C 687.41027,162.40364 691.01028,164.27564 693.89028,167.58764 C 695.90628,169.89163 696.33828,170.89964 696.33828,175.36364 L 696.33828,202.72364 M 694.75428,213.37964 C 695.33028,212.80364 696.48228,212.51564 696.48228,213.52364 C 696.48228,216.97963 698.06628,222.01964 698.06628,222.01964 C 699.21828,222.45164 699.65028,222.30764 700.80228,222.01964 C 703.97027,219.42764 709.44229,217.26763 718.22628,216.25964 C 719.09028,215.39564 719.09028,213.23563 718.22628,212.37164 C 709.01029,211.65164 707.71428,208.91563 707.71428,201.85964 L 707.71428,136.62764 C 707.71428,127.26764 708.29028,121.50764 708.29028,121.50764 C 708.29028,120.49964 707.71428,120.06764 706.41828,120.06764 C 702.81828,121.50763 692.01827,123.52364 686.25828,123.95564 C 685.97028,125.10763 686.25828,127.41164 687.12228,128.27564 C 694.61027,128.70764 696.33828,127.98765 696.33828,140.08364 L 696.33828,158.51564 C 696.33828,159.52363 696.05028,159.81164 695.04228,159.81164 C 694.46628,159.81164 688.56227,157.36364 683.81028,157.36364 C 674.30629,157.36364 667.97027,160.53164 662.21028,166.00364 C 656.01828,172.19563 652.27428,180.69165 652.27428,191.34764 C 652.27428,209.05962 661.20229,222.01964 676.75428,222.01964 C 682.37027,222.01964 687.69828,219.13963 694.75428,213.37964 M 730.46203,134.32364 C 730.46203,138.06763 733.91803,141.81164 737.37403,141.81164 C 741.40602,141.81164 744.86203,138.06763 744.86203,134.89964 C 744.86203,131.44364 741.83802,127.41164 737.95003,127.41164 C 734.49403,127.41164 730.46203,130.86764 730.46203,134.32364 M 743.56603,203.01164 L 743.56603,174.35564 C 743.56603,167.15564 744.14203,157.93964 744.14203,157.93964 C 744.14203,157.36364 743.42203,156.93164 742.27003,156.93164 C 738.09403,158.51563 732.47802,159.81164 722.54203,161.10764 C 722.25403,161.97163 722.54203,164.27564 722.83003,165.13964 C 730.60602,166.00363 732.19003,166.72364 732.19003,174.93164 L 732.19003,203.01164 C 732.19003,214.96362 730.60602,215.39564 721.82203,216.11564 C 720.95803,216.97963 720.95803,220.00364 721.82203,220.86764 C 727.87002,220.72364 731.61403,220.57964 737.95003,220.57964 C 744.14202,220.57964 747.74203,220.72364 753.93403,220.86764 C 754.79803,220.00364 754.79803,216.97963 753.93403,216.11564 C 745.15004,215.53964 743.56603,214.96362 743.56603,203.01164 M 796.78778,187.02764 L 796.78778,206.17964 C 796.78778,208.05163 795.92378,209.05964 794.77178,209.92364 C 791.02778,212.94763 786.13177,216.11564 782.09978,216.11564 C 774.89978,216.11564 771.73178,210.35563 771.73178,205.89164 C 771.73178,199.41164 774.75579,192.93163 785.41178,190.05164 L 796.78778,187.02764 M 796.78778,213.66764 C 797.65178,216.69163 800.09979,222.01964 807.87578,222.01964 C 814.93177,222.01964 820.11578,216.25963 820.11578,215.53964 C 820.11578,214.53164 818.81978,213.09164 818.24378,213.09164 C 817.37978,213.09164 816.80377,215.39564 813.77978,215.39564 C 808.16378,215.39564 808.01978,209.77963 808.01978,203.15564 L 808.01978,181.69964 C 808.01978,161.25166 796.78777,157.36364 786.27578,157.36364 C 774.46779,157.36364 762.51578,165.57164 762.51578,173.34764 C 762.51578,176.80363 764.24378,178.38764 767.55578,178.38764 C 771.73177,178.38764 773.89178,175.50763 773.89178,173.63564 C 773.89178,172.62764 773.74778,171.61964 773.45978,171.04364 C 773.31578,170.61164 773.17178,169.74763 773.17178,168.16364 C 773.17178,163.69964 779.65178,162.11564 785.12378,162.11564 C 790.01977,162.11564 796.78778,164.56365 796.78778,180.83564 C 796.78778,181.84363 796.35578,182.41964 795.92378,182.56364 L 783.53978,185.58764 C 769.71579,189.04363 759.77978,196.67565 759.77978,206.46764 C 759.77978,217.84362 767.84379,222.01964 777.92378,222.01964 C 784.54777,222.01964 787.28378,220.86763 793.61978,215.97164 L 796.49978,213.66764 L 796.78778,213.66764 M 859.32028,200.70764 C 859.89628,207.76363 860.32828,214.53164 860.32828,220.57964 C 861.76828,220.29164 863.20828,220.14764 863.92828,220.14764 C 864.93628,220.14764 865.80028,220.14764 866.80828,220.43564 C 870.69627,221.44363 874.58428,222.01964 879.91228,222.01964 C 887.97627,222.01964 902.80828,218.13162 902.80828,203.87564 C 902.80828,194.08365 895.60827,188.46763 885.96028,184.72364 C 877.32029,181.41164 871.56028,179.25163 871.56028,171.33164 C 871.56028,165.42764 876.74428,162.11564 881.64028,162.11564 C 884.80827,162.11564 893.16028,163.26765 895.03228,175.50764 C 895.89628,176.37163 898.77628,176.22763 899.64028,175.36364 C 899.64028,170.17964 900.36028,164.85163 900.50428,160.09964 C 896.04028,159.37964 889.12827,157.36364 881.64028,157.36364 C 870.98429,157.36364 861.33628,164.27564 861.33628,173.49164 C 861.33628,184.00363 866.08829,188.46764 877.17628,193.07564 C 888.98427,198.11563 891.86428,200.99564 891.86428,207.18764 C 891.86428,214.24363 884.95227,217.26764 879.62428,217.26764 C 874.00828,217.26764 870.84028,215.39563 869.40028,213.81164 C 865.94428,210.49964 864.64828,204.16363 863.78428,200.56364 C 862.92028,199.69964 860.18428,199.84364 859.32028,200.70764 M 947.72528,187.02764 L 947.72528,206.17964 C 947.72528,208.05163 946.86128,209.05964 945.70928,209.92364 C 941.96528,212.94763 937.06927,216.11564 933.03728,216.11564 C 925.83728,216.11564 922.66928,210.35563 922.66928,205.89164 C 922.66928,199.41164 925.69329,192.93163 936.34928,190.05164 L 947.72528,187.02764 M 947.72528,213.66764 C 948.58928,216.69163 951.03729,222.01964 958.81328,222.01964 C 965.86927,222.01964 971.05328,216.25963 971.05328,215.53964 C 971.05328,214.53164 969.75728,213.09164 969.18128,213.09164 C 968.31728,213.09164 967.74127,215.39564 964.71728,215.39564 C 959.10128,215.39564 958.95728,209.77963 958.95728,203.15564 L 958.95728,181.69964 C 958.95728,161.25166 947.72527,157.36364 937.21328,157.36364 C 925.40529,157.36364 913.45328,165.57164 913.45328,173.34764 C 913.45328,176.80363 915.18128,178.38764 918.49328,178.38764 C 922.66927,178.38764 924.82928,175.50763 924.82928,173.63564 C 924.82928,172.62764 924.68528,171.61964 924.39728,171.04364 C 924.25328,170.61164 924.10928,169.74763 924.10928,168.16364 C 924.10928,163.69964 930.58928,162.11564 936.06128,162.11564 C 940.95727,162.11564 947.72528,164.56365 947.72528,180.83564 C 947.72528,181.84363 947.29328,182.41964 946.86128,182.56364 L 934.47728,185.58764 C 920.65329,189.04363 910.71728,196.67565 910.71728,206.46764 C 910.71728,217.84362 918.78129,222.01964 928.86128,222.01964 C 935.48527,222.01964 938.22128,220.86763 944.55728,215.97164 L 947.43728,213.66764 L 947.72528,213.66764 M 996.70578,173.34764 C 1002.3218,167.87564 1006.9298,164.85164 1011.3938,164.85164 C 1016.8658,164.85164 1020.8978,168.30765 1020.8978,177.95564 L 1020.8978,203.01164 C 1020.8978,214.81962 1019.7458,215.53964 1011.9698,216.11564 C 1011.2498,216.97963 1011.2498,220.00364 1011.9698,220.86764 C 1018.0178,220.72364 1020.8978,220.57964 1026.6578,220.57964 C 1032.5618,220.57964 1034.5778,220.72364 1040.7698,220.86764 C 1041.4898,220.00364 1041.4898,216.97963 1040.7698,216.11564 C 1033.5698,215.53964 1032.2738,214.81962 1032.2738,203.01164 L 1032.2738,180.11564 C 1032.2738,178.09964 1032.2738,176.08363 1032.1298,174.35564 C 1039.0418,166.72364 1044.6578,164.85164 1050.2738,164.85164 C 1055.7458,164.85164 1059.2018,168.01965 1059.2018,177.66764 L 1059.2018,203.01164 C 1059.2018,214.81962 1057.7618,215.53964 1050.2738,216.11564 C 1049.5538,216.97963 1049.5538,220.00364 1050.2738,220.86764 C 1056.3218,220.72364 1059.2018,220.57964 1064.9618,220.57964 C 1070.8658,220.57964 1073.6018,220.72364 1079.7938,220.86764 C 1080.5138,220.00364 1080.5138,216.97963 1079.7938,216.11564 C 1071.8738,215.53964 1070.5778,214.81962 1070.5778,203.01164 L 1070.5778,180.25964 C 1070.5778,167.44365 1068.1298,157.36364 1055.4578,157.36364 C 1047.9698,157.36364 1040.0498,160.09964 1032.5618,168.01964 C 1032.1298,168.45164 1031.2658,169.17163 1030.9778,168.01964 C 1029.5378,162.11564 1024.0658,157.36364 1016.5778,157.36364 C 1008.2258,157.36364 1001.8898,162.40364 995.55378,169.02764 C 994.97778,169.60364 994.11378,171.04363 994.11378,169.02764 C 994.11378,164.70764 994.83378,158.08364 994.83378,158.08364 C 994.83378,157.36364 994.25778,156.93164 993.10578,156.93164 C 988.92978,158.51563 983.16977,159.81164 973.23378,161.10764 C 972.94578,161.97163 973.23378,164.27564 973.52178,165.13964 C 981.29777,166.00363 982.88178,166.57964 982.88178,174.93164 L 982.88178,203.01164 C 982.88178,214.81962 981.00977,215.53964 973.08978,216.11564 C 972.22578,216.97963 972.22578,220.00364 973.08978,220.86764 C 978.99377,220.72364 982.44978,220.57964 988.64178,220.57964 C 994.25777,220.57964 996.70578,220.72364 1002.7538,220.86764 C 1003.6178,220.00364 1003.6178,216.97963 1002.7538,216.11564 C 995.55378,215.39564 994.25778,214.81962 994.25778,203.01164 L 994.25778,179.39564 C 994.25778,176.37164 995.55378,174.64363 996.70578,173.34764 M 1121.7565,187.02764 L 1121.7565,206.17964 C 1121.7565,208.05163 1120.8925,209.05964 1119.7405,209.92364 C 1115.9965,212.94763 1111.1005,216.11564 1107.0685,216.11564 C 1099.8685,216.11564 1096.7005,210.35563 1096.7005,205.89164 C 1096.7005,199.41164 1099.7245,192.93163 1110.3805,190.05164 L 1121.7565,187.02764 M 1121.7565,213.66764 C 1122.6205,216.69163 1125.0685,222.01964 1132.8445,222.01964 C 1139.9005,222.01964 1145.0845,216.25963 1145.0845,215.53964 C 1145.0845,214.53164 1143.7885,213.09164 1143.2125,213.09164 C 1142.3485,213.09164 1141.7725,215.39564 1138.7485,215.39564 C 1133.1325,215.39564 1132.9885,209.77963 1132.9885,203.15564 L 1132.9885,181.69964 C 1132.9885,161.25166 1121.7565,157.36364 1111.2445,157.36364 C 1099.4365,157.36364 1087.4845,165.57164 1087.4845,173.34764 C 1087.4845,176.80363 1089.2125,178.38764 1092.5245,178.38764 C 1096.7005,178.38764 1098.8605,175.50763 1098.8605,173.63564 C 1098.8605,172.62764 1098.7165,171.61964 1098.4285,171.04364 C 1098.2845,170.61164 1098.1405,169.74763 1098.1405,168.16364 C 1098.1405,163.69964 1104.6205,162.11564 1110.0925,162.11564 C 1114.9885,162.11564 1121.7565,164.56365 1121.7565,180.83564 C 1121.7565,181.84363 1121.3245,182.41964 1120.8925,182.56364 L 1108.5085,185.58764 C 1094.6845,189.04363 1084.7485,196.67565 1084.7485,206.46764 C 1084.7485,217.84362 1092.8125,222.01964 1102.8925,222.01964 C 1109.5165,222.01964 1112.2525,220.86763 1118.5885,215.97164 L 1121.4685,213.66764 L 1121.7565,213.66764 M 1167.425,179.53964 C 1167.425,176.37164 1168.721,174.64363 1169.873,173.34764 C 1175.345,168.01964 1181.681,164.85164 1187.441,164.85164 C 1190.321,164.85164 1193.345,166.86764 1195.073,170.03564 C 1196.513,172.91563 1196.801,176.80364 1196.801,181.12364 L 1196.801,203.01164 C 1196.801,214.81962 1195.361,215.39564 1187.873,216.11564 C 1187.153,216.97963 1187.153,220.00364 1187.873,220.86764 C 1193.921,220.72364 1196.801,220.57964 1202.561,220.57964 C 1208.465,220.57964 1211.633,220.72364 1217.825,220.86764 C 1218.545,220.00364 1218.545,216.97963 1217.825,216.11564 C 1209.761,215.39564 1208.177,214.81962 1208.177,203.01164 L 1208.177,181.55564 C 1208.177,173.63564 1207.601,166.72363 1204.289,162.25964 C 1201.841,159.09164 1197.377,157.36364 1192.337,157.36364 C 1185.137,157.36364 1177.505,159.23565 1168.721,169.02764 C 1168.145,169.60364 1167.281,171.04363 1167.281,169.02764 L 1167.425,136.62764 C 1167.425,127.26764 1168.001,121.50764 1168.001,121.50764 C 1168.001,120.49964 1167.425,120.06764 1166.129,120.06764 C 1162.529,121.50763 1151.729,123.52364 1145.969,123.95564 C 1145.681,125.10763 1145.969,127.41164 1146.833,128.27564 C 1154.321,128.70764 1156.049,127.98765 1156.049,140.08364 L 1156.049,203.01164 C 1156.049,214.96362 1154.321,215.53964 1145.969,216.11564 C 1145.105,216.97963 1145.105,220.00364 1145.969,220.86764 C 1151.873,220.72364 1155.617,220.57964 1161.809,220.57964 C 1167.425,220.57964 1169.873,220.72364 1175.921,220.86764 C 1176.785,220.00364 1176.785,216.97963 1175.921,216.11564 C 1168.721,215.53964 1167.425,214.96362 1167.425,203.01164 L 1167.425,179.53964 M 1241.925,179.53964 C 1241.925,176.37164 1243.221,174.64363 1244.373,173.34764 C 1249.845,168.01964 1256.181,164.85164 1261.941,164.85164 C 1264.821,164.85164 1267.845,166.86764 1269.573,170.03564 C 1271.013,172.91563 1271.301,176.80364 1271.301,181.12364 L 1271.301,203.01164 C 1271.301,214.81962 1269.861,215.39564 1262.373,216.11564 C 1261.653,216.97963 1261.653,220.00364 1262.373,220.86764 C 1268.421,220.72364 1271.301,220.57964 1277.061,220.57964 C 1282.965,220.57964 1286.133,220.72364 1292.325,220.86764 C 1293.045,220.00364 1293.045,216.97963 1292.325,216.11564 C 1284.261,215.39564 1282.677,214.81962 1282.677,203.01164 L 1282.677,181.55564 C 1282.677,173.63564 1282.101,166.72363 1278.789,162.25964 C 1276.341,159.09164 1271.877,157.36364 1266.837,157.36364 C 1259.637,157.36364 1252.005,159.23565 1243.221,169.02764 C 1242.645,169.60364 1241.781,171.04363 1241.781,169.02764 L 1241.925,136.62764 C 1241.925,127.26764 1242.501,121.50764 1242.501,121.50764 C 1242.501,120.49964 1241.925,120.06764 1240.629,120.06764 C 1237.029,121.50763 1226.229,123.52364 1220.469,123.95564 C 1220.181,125.10763 1220.469,127.41164 1221.333,128.27564 C 1228.821,128.70764 1230.549,127.98765 1230.549,140.08364 L 1230.549,203.01164 C 1230.549,214.96362 1228.821,215.53964 1220.469,216.11564 C 1219.605,216.97963 1219.605,220.00364 1220.469,220.86764 C 1226.373,220.72364 1230.117,220.57964 1236.309,220.57964 C 1241.925,220.57964 1244.373,220.72364 1250.421,220.86764 C 1251.285,220.00364 1251.285,216.97963 1250.421,216.11564 C 1243.221,215.53964 1241.925,214.96362 1241.925,203.01164 L 1241.925,179.53964 M 1334.569,187.02764 L 1334.569,206.17964 C 1334.569,208.05163 1333.705,209.05964 1332.553,209.92364 C 1328.809,212.94763 1323.913,216.11564 1319.881,216.11564 C 1312.681,216.11564 1309.513,210.35563 1309.513,205.89164 C 1309.513,199.41164 1312.537,192.93163 1323.193,190.05164 L 1334.569,187.02764 M 1334.569,213.66764 C 1335.433,216.69163 1337.881,222.01964 1345.657,222.01964 C 1352.713,222.01964 1357.897,216.25963 1357.897,215.53964 C 1357.897,214.53164 1356.601,213.09164 1356.025,213.09164 C 1355.161,213.09164 1354.585,215.39564 1351.561,215.39564 C 1345.945,215.39564 1345.801,209.77963 1345.801,203.15564 L 1345.801,181.69964 C 1345.801,161.25166 1334.569,157.36364 1324.057,157.36364 C 1312.249,157.36364 1300.297,165.57164 1300.297,173.34764 C 1300.297,176.80363 1302.025,178.38764 1305.337,178.38764 C 1309.513,178.38764 1311.673,175.50763 1311.673,173.63564 C 1311.673,172.62764 1311.529,171.61964 1311.241,171.04364 C 1311.097,170.61164 1310.953,169.74763 1310.953,168.16364 C 1310.953,163.69964 1317.433,162.11564 1322.905,162.11564 C 1327.801,162.11564 1334.569,164.56365 1334.569,180.83564 C 1334.569,181.84363 1334.137,182.41964 1333.705,182.56364 L 1321.321,185.58764 C 1307.497,189.04363 1297.561,196.67565 1297.561,206.46764 C 1297.561,217.84362 1305.625,222.01964 1315.705,222.01964 C 1322.329,222.01964 1325.065,220.86763 1331.401,215.97164 L 1334.281,213.66764 L 1334.569,213.66764 M 1369.8695,203.01164 C 1369.8695,214.96362 1368.2855,215.68364 1359.5015,216.11564 C 1358.6375,216.97963 1358.6375,220.00364 1359.5015,220.86764 C 1365.5495,220.72364 1369.2935,220.57964 1375.6295,220.57964 C 1381.8215,220.57964 1385.4215,220.72364 1391.6135,220.86764 C 1392.4775,220.00364 1392.4775,216.97963 1391.6135,216.11564 C 1382.8295,215.68364 1381.2455,214.96362 1381.2455,203.01164 L 1381.2455,136.62764 C 1381.2455,127.26764 1381.8215,121.50764 1381.8215,121.50764 C 1381.8215,120.49964 1381.2455,120.06764 1379.9495,120.06764 C 1376.3495,121.50763 1365.5495,123.52364 1359.7895,123.95564 C 1359.5015,125.10763 1359.7895,127.41164 1360.6535,128.27564 C 1368.1415,128.70764 1369.8695,127.98765 1369.8695,140.08364 L 1369.8695,203.01164 M 1434.3503,187.02764 L 1434.3503,206.17964 C 1434.3503,208.05163 1433.4863,209.05964 1432.3343,209.92364 C 1428.5903,212.94763 1423.6943,216.11564 1419.6623,216.11564 C 1412.4623,216.11564 1409.2943,210.35563 1409.2943,205.89164 C 1409.2943,199.41164 1412.3183,192.93163 1422.9743,190.05164 L 1434.3503,187.02764 M 1434.3503,213.66764 C 1435.2143,216.69163 1437.6623,222.01964 1445.4383,222.01964 C 1452.4943,222.01964 1457.6783,216.25963 1457.6783,215.53964 C 1457.6783,214.53164 1456.3823,213.09164 1455.8063,213.09164 C 1454.9423,213.09164 1454.3663,215.39564 1451.3423,215.39564 C 1445.7263,215.39564 1445.5823,209.77963 1445.5823,203.15564 L 1445.5823,181.69964 C 1445.5823,161.25166 1434.3503,157.36364 1423.8383,157.36364 C 1412.0303,157.36364 1400.0783,165.57164 1400.0783,173.34764 C 1400.0783,176.80363 1401.8063,178.38764 1405.1183,178.38764 C 1409.2943,178.38764 1411.4543,175.50763 1411.4543,173.63564 C 1411.4543,172.62764 1411.3103,171.61964 1411.0223,171.04364 C 1410.8783,170.61164 1410.7343,169.74763 1410.7343,168.16364 C 1410.7343,163.69964 1417.2143,162.11564 1422.6863,162.11564 C 1427.5823,162.11564 1434.3503,164.56365 1434.3503,180.83564 C 1434.3503,181.84363 1433.9183,182.41964 1433.4863,182.56364 L 1421.1023,185.58764 C 1407.2783,189.04363 1397.3423,196.67565 1397.3423,206.46764 C 1397.3423,217.84362 1405.4063,222.01964 1415.4863,222.01964 C 1422.1103,222.01964 1424.8463,220.86763 1431.1823,215.97164 L 1434.0623,213.66764 L 1434.3503,213.66764" transform="matrix(8.5255722e-2,0,0,8.5255722e-2,2.7241485,128.07155)" id="text3100" style="font-size:144px;font-style:normal;font-variant:normal;font-weight:bold;font-stretch:normal;letter-spacing:-2;fill:#000000;fill-opacity:1;stroke:none;stroke-width:1px;stroke-linecap:butt;stroke-linejoin:miter;stroke-opacity:1"></path></svg>
