<?xml version="1.0" encoding="UTF-8" standalone="no"?>
<svg
	xmlns="http://www.w3.org/2000/svg"
	xmlns:dc="http://purl.org/dc/elements/1.1/"
	xmlns:cc="http://creativecommons.org/ns#"
	xmlns:rdf="http://www.w3.org/1999/02/22-rdf-syntax-ns#"
	xmlns:svg="http://www.w3.org/2000/svg"
	xmlns:xlink="http://www.w3.org/1999/xlink"
	xmlns:sodipodi="http://sodipodi.sourceforge.net/DTD/sodipodi-0.dtd"
	xmlns:inkscape="http://www.inkscape.org/namespaces/inkscape"
	version="1.1"
	viewBox="0 0 135px 155px">
	<svg xmlns:dc="http://purl.org/dc/elements/1.1/" xmlns:cc="http://creativecommons.org/ns#" xmlns:rdf="http://www.w3.org/1999/02/22-rdf-syntax-ns#" xmlns:svg="http://www.w3.org/2000/svg" xmlns:xlink="http://www.w3.org/1999/xlink" xmlns:sodipodi="http://sodipodi.sourceforge.net/DTD/sodipodi-0.dtd" xmlns:inkscape="http://www.inkscape.org/namespaces/inkscape" version="1.1" x="0px" y="0px" width="135px" height="155px" viewBox="0 0 135 155" enable-background="new 0 0 135 155" xml:space="preserve" id="svg3857" inkscape:version="0.48.1 r9760" sodipodi:docname="Wikipedia-logo-v2-en.svg" xmlns:svgjs="http://svgjs.com/svgjs"><metadata id="metadata4852"><rdf:RDF><cc:Work rdf:about=""><dc:format>image/svg+xml</dc:format><dc:type rdf:resource="http://purl.org/dc/dcmitype/StillImage"></dc:type><dc:title></dc:title></cc:Work></rdf:RDF></metadata><defs id="defs4850"><inkscape:perspective sodipodi:type="inkscape:persp3d" inkscape:vp_x="0 : 77.5 : 1" inkscape:vp_y="0 : 1000 : 0" inkscape:vp_z="135 : 77.5 : 1" inkscape:persp3d-origin="67.5 : 51.666667 : 1" id="perspective4854"></inkscape:perspective>
	
		<radialGradient gradientUnits="userSpaceOnUse" gradientTransform="matrix(1,0,0,-1,192.3999,143.0996)" r="68.686401" cy="87.823196" cx="-145.4702" id="SVGID_1_">
		<stop id="stop3922" offset="0" style="stop-color:#FFFFFF"></stop>
		<stop id="stop3924" offset="0.4835" style="stop-color:#EAEAEB"></stop>
		<stop id="stop3926" offset="0.9451" style="stop-color:#A9ABAE"></stop>
		<stop id="stop3928" offset="1" style="stop-color:#999B9E"></stop>
	</radialGradient>
	
	
	<linearGradient y2="97.232101" x2="112.7331" y1="24.481001" x1="66.232399" gradientUnits="userSpaceOnUse" id="SVGID_2_">
		<stop id="stop3935" offset="0" style="stop-color:#8A8A8A"></stop>
		<stop id="stop3937" offset="0.5687" style="stop-color:#606060"></stop>
		<stop id="stop3939" offset="0.5914" style="stop-color:#FFFFFF"></stop>
		<stop id="stop3941" offset="0.6116" style="stop-color:#585858"></stop>
		<stop id="stop3943" offset="1" style="stop-color:#303030"></stop>
	</linearGradient>
	
	
	<linearGradient y2="65.136703" x2="83.798798" y1="65.136703" x1="54.715801" gradientUnits="userSpaceOnUse" id="SVGID_5_">
		<stop id="stop3964" offset="0" style="stop-color:#231F20"></stop>
		<stop id="stop3966" offset="1" style="stop-color:#474747"></stop>
	</linearGradient>
	
	
	
	
	
	
	
	
	
		<linearGradient gradientTransform="matrix(1,0,0,-1,192.3999,143.0996)" y2="29.9035" x2="-94.069099" y1="119.8076" x1="-123.5898" gradientUnits="userSpaceOnUse" id="SVGID_6_">
		<stop id="stop3997" offset="0" style="stop-color:#FFFFFF"></stop>
		<stop id="stop3999" offset="0.0094" style="stop-color:#FCFCFC"></stop>
		<stop id="stop4001" offset="0.0655" style="stop-color:#EEEEEE"></stop>
		<stop id="stop4003" offset="0.1342" style="stop-color:#E5E5E5"></stop>
		<stop id="stop4005" offset="0.2515" style="stop-color:#E3E3E3"></stop>
		<stop id="stop4007" offset="0.3357" style="stop-color:#8A8A8A"></stop>
		<stop id="stop4009" offset="0.4422" style="stop-color:#B8B8B8"></stop>
		<stop id="stop4011" offset="1" style="stop-color:#3B3B3B"></stop>
	</linearGradient>
	
	<linearGradient y2="87.626701" x2="119.5471" y1="26.876499" x1="70.421898" gradientUnits="userSpaceOnUse" id="SVGID_7_">
		<stop id="stop4016" offset="0" style="stop-color:#EFF0F0"></stop>
		<stop id="stop4018" offset="0.5914" style="stop-color:#F0F1F2"></stop>
		<stop id="stop4020" offset="0.599" style="stop-color:#787878"></stop>
		<stop id="stop4022" offset="0.6456" style="stop-color:#EEEFF0"></stop>
		<stop id="stop4024" offset="1" style="stop-color:#D8D9DB"></stop>
	</linearGradient>
	
	
		<linearGradient gradientTransform="matrix(1,0,0,-1,192.3999,143.0996)" y2="31.998501" x2="-87.569702" y1="122.1328" x1="-117.166" gradientUnits="userSpaceOnUse" id="SVGID_8_">
		<stop id="stop4029" offset="0" style="stop-color:#FFFFFF"></stop>
		<stop id="stop4031" offset="1" style="stop-color:#E4E5E6"></stop>
	</linearGradient>
	
	<linearGradient y2="106.3903" x2="79.683601" y1="25.2764" x1="54.653301" gradientUnits="userSpaceOnUse" id="SVGID_9_">
		<stop id="stop4036" offset="0" style="stop-color:#FFFFFF"></stop>
		<stop id="stop4038" offset="0.7473" style="stop-color:#F9F9F9"></stop>
		<stop id="stop4040" offset="1" style="stop-color:#D5D7D8"></stop>
	</linearGradient>
	
	
	
	
	
		<linearGradient gradientTransform="matrix(1,0,0,-1,192.3999,143.0996)" y2="24.6462" x2="-134.85719" y1="119.6328" x1="-115.3369" gradientUnits="userSpaceOnUse" id="SVGID_10_">
		<stop id="stop4061" offset="0" style="stop-color:#FFFFFF"></stop>
		<stop id="stop4063" offset="1" style="stop-color:#E4E5E6"></stop>
	</linearGradient>
	
	<linearGradient y2="92.496101" x2="37.2481" y1="33.077099" x1="32.519001" gradientUnits="userSpaceOnUse" id="SVGID_11_">
		<stop id="stop4068" offset="0.2198" style="stop-color:#989A9C"></stop>
		<stop id="stop4070" offset="0.2527" style="stop-color:#FFFFFF"></stop>
	</linearGradient>
	
	
		<linearGradient gradientTransform="matrix(1,0,0,-1,192.3999,143.0996)" y2="32.797901" x2="-171.9462" y1="126.8398" x1="-152.6201" gradientUnits="userSpaceOnUse" id="SVGID_12_">
		<stop id="stop4075" offset="0" style="stop-color:#FFFFFF"></stop>
		<stop id="stop4077" offset="1" style="stop-color:#E4E5E6"></stop>
	</linearGradient>
	
	
		<linearGradient gradientTransform="matrix(1,0,0,-1,192.3999,143.0996)" y2="35.585701" x2="-130.14281" y1="35.625" x1="-130.1348" gradientUnits="userSpaceOnUse" id="SVGID_13_">
		<stop id="stop4082" offset="0" style="stop-color:#FFFFFF"></stop>
		<stop id="stop4084" offset="1" style="stop-color:#E4E5E6"></stop>
	</linearGradient>
	
	
	
	
		<linearGradient gradientTransform="matrix(1,0,0,-1,192.3999,143.0996)" y2="25.888" x2="-140.54491" y1="120.3223" x1="-121.1382" gradientUnits="userSpaceOnUse" id="SVGID_14_">
		<stop id="stop4093" offset="0" style="stop-color:#FFFFFF"></stop>
		<stop id="stop4095" offset="1" style="stop-color:#E4E5E6"></stop>
	</linearGradient>
	
	
		<linearGradient gradientTransform="matrix(1,0,0,-1,192.3999,143.0996)" y2="28.8524" x2="-155.006" y1="123.3525" x1="-135.58591" gradientUnits="userSpaceOnUse" id="SVGID_15_">
		<stop id="stop4100" offset="0" style="stop-color:#FFFFFF"></stop>
		<stop id="stop4102" offset="1" style="stop-color:#E4E5E6"></stop>
	</linearGradient>
	
	
		<linearGradient gradientTransform="matrix(1,0,0,-1,192.3999,143.0996)" y2="27.1346" x2="-146.8837" y1="121.9365" x1="-127.4014" gradientUnits="userSpaceOnUse" id="SVGID_16_">
		<stop id="stop4107" offset="0" style="stop-color:#FFFFFF"></stop>
		<stop id="stop4109" offset="1" style="stop-color:#E4E5E6"></stop>
	</linearGradient>
	
	
		<linearGradient gradientTransform="matrix(1,0,0,-1,192.3999,143.0996)" y2="24.9438" x2="-138.85201" y1="124.0039" x1="-118.4946" gradientUnits="userSpaceOnUse" id="SVGID_17_">
		<stop id="stop4114" offset="0" style="stop-color:#FFFFFF"></stop>
		<stop id="stop4116" offset="1" style="stop-color:#E4E5E6"></stop>
	</linearGradient>
	
	
		<linearGradient gradientTransform="matrix(1,0,0,-1,192.3999,143.0996)" y2="24.695299" x2="-134.7878" y1="119.1758" x1="-115.3716" gradientUnits="userSpaceOnUse" id="SVGID_18_">
		<stop id="stop4121" offset="0" style="stop-color:#FFFFFF"></stop>
		<stop id="stop4123" offset="1" style="stop-color:#E4E5E6"></stop>
	</linearGradient>
	
	
	
	
	
	
	
	
	
	
	
	
		<linearGradient gradientTransform="matrix(1,0,0,-1,192.3999,143.0996)" y2="83.6045" x2="-75.6362" y1="83.6045" x1="-175.4424" gradientUnits="userSpaceOnUse" id="SVGID_21_">
		<stop id="stop4198" offset="0" style="stop-color:#555555"></stop>
		<stop id="stop4200" offset="1" style="stop-color:#231F20"></stop>
	</linearGradient>
	
	
		<linearGradient gradientTransform="matrix(1,0,0,-1,192.3999,143.0996)" y2="104.0801" x2="-83.541" y1="104.0801" x1="-175.14211" gradientUnits="userSpaceOnUse" id="SVGID_22_">
		<stop id="stop4205" offset="0" style="stop-color:#A0A0A0"></stop>
		<stop id="stop4207" offset="0.0769" style="stop-color:#656767"></stop>
		<stop id="stop4209" offset="1" style="stop-color:#717375"></stop>
	</linearGradient>
	
	
	
	
	
	
	
		<linearGradient gradientTransform="matrix(1,0,0,-1,192.3999,143.0996)" y2="78.209" x2="-172.3853" y1="78.209" x1="-172.3853" gradientUnits="userSpaceOnUse" id="SVGID_23_">
		<stop id="stop4224" offset="0" style="stop-color:#FFFFFF"></stop>
		<stop id="stop4226" offset="0.078" style="stop-color:#F4F4F4"></stop>
		<stop id="stop4228" offset="0.3807" style="stop-color:#CECECE"></stop>
		<stop id="stop4230" offset="0.5396" style="stop-color:#BFBFBF"></stop>
		<stop id="stop4232" offset="0.8357" style="stop-color:#7C7C7C"></stop>
		<stop id="stop4234" offset="0.8996" style="stop-color:#A8A8A8"></stop>
		<stop id="stop4236" offset="0.9093" style="stop-color:#9A9A9A"></stop>
		<stop id="stop4238" offset="0.9327" style="stop-color:#7D7D7D"></stop>
		<stop id="stop4240" offset="0.9558" style="stop-color:#686868"></stop>
		<stop id="stop4242" offset="0.9785" style="stop-color:#5B5B5B"></stop>
		<stop id="stop4244" offset="1" style="stop-color:#575757"></stop>
	</linearGradient>
	
	
		<linearGradient gradientTransform="matrix(1,0,0,-1,192.3999,143.0996)" y2="90.476799" x2="-67.153198" y1="78.449203" x1="-175.7173" gradientUnits="userSpaceOnUse" id="SVGID_24_">
		<stop id="stop4249" offset="0" style="stop-color:#FFFFFF"></stop>
		<stop id="stop4251" offset="0.078" style="stop-color:#F4F4F4"></stop>
		<stop id="stop4253" offset="0.3807" style="stop-color:#CECECE"></stop>
		<stop id="stop4255" offset="0.5396" style="stop-color:#BFBFBF"></stop>
		<stop id="stop4257" offset="0.8357" style="stop-color:#7C7C7C"></stop>
		<stop id="stop4259" offset="0.8996" style="stop-color:#A8A8A8"></stop>
		<stop id="stop4261" offset="0.9093" style="stop-color:#9A9A9A"></stop>
		<stop id="stop4263" offset="0.9327" style="stop-color:#7D7D7D"></stop>
		<stop id="stop4265" offset="0.9558" style="stop-color:#686868"></stop>
		<stop id="stop4267" offset="0.9785" style="stop-color:#5B5B5B"></stop>
		<stop id="stop4269" offset="1" style="stop-color:#575757"></stop>
	</linearGradient>
	
	
		<linearGradient gradientTransform="matrix(1,0,0,-1,192.3999,143.0996)" y2="92.223099" x2="-52.131699" y1="78.4795" x1="-176.1851" gradientUnits="userSpaceOnUse" id="SVGID_25_">
		<stop id="stop4274" offset="0" style="stop-color:#FFFFFF"></stop>
		<stop id="stop4276" offset="0.078" style="stop-color:#F4F4F4"></stop>
		<stop id="stop4278" offset="0.3807" style="stop-color:#CECECE"></stop>
		<stop id="stop4280" offset="0.5396" style="stop-color:#BFBFBF"></stop>
		<stop id="stop4282" offset="0.8357" style="stop-color:#7C7C7C"></stop>
		<stop id="stop4284" offset="0.8996" style="stop-color:#A8A8A8"></stop>
		<stop id="stop4286" offset="0.9093" style="stop-color:#9A9A9A"></stop>
		<stop id="stop4288" offset="0.9327" style="stop-color:#7D7D7D"></stop>
		<stop id="stop4290" offset="0.9558" style="stop-color:#686868"></stop>
		<stop id="stop4292" offset="0.9785" style="stop-color:#5B5B5B"></stop>
		<stop id="stop4294" offset="1" style="stop-color:#575757"></stop>
	</linearGradient>
	
	<linearGradient y2="51.952599" x2="117.1948" y1="71.326698" x1="21.2129" gradientUnits="userSpaceOnUse" id="SVGID_26_">
		<stop id="stop4299" offset="0" style="stop-color:#EDEDEE"></stop>
		<stop id="stop4301" offset="0.4176" style="stop-color:#FFFFFF"></stop>
		<stop id="stop4303" offset="0.6264" style="stop-color:#F8F9F9"></stop>
		<stop id="stop4305" offset="1" style="stop-color:#BFC0C2"></stop>
	</linearGradient>
	
	
	
	
	<linearGradient y2="30.732401" x2="27.9561" y1="30.732401" x1="23.471201" gradientUnits="userSpaceOnUse" id="SVGID_27_">
		<stop id="stop4316" offset="0" style="stop-color:#E2E3E4"></stop>
		<stop id="stop4318" offset="0.5055" style="stop-color:#FFFFFF"></stop>
	</linearGradient>
	
	
	
	
	
	
	
	
	
	
	
	
	
	
	
	
	
	
	
	
	
	
	
	
	
	
	
	
	
	
	
	
	
	
	
	
	
	
	
	
	
	
	
	
	
	
	
	
	
	
	
	
	
	
	
	
	
	
	
	
	
	
	
	
	
	
	
	
	
	
	
	
	
	
	
	
	
	
	
	
	
	
	
	
	
	
	
	
	
	
	
	
	
	
	
	
	
	
	
	
	
	
	
	
	
	
	
	
	
	
	
	
	
	
	
	
	
	
	
	
	
	
	
	
	
	
	
	
	
	
	
	
	
	
	
	
	
	
	
	
	
	
	
	
	
	
	
	
	
	
	
	
	
	
	
	
	
	
	
	
	
	
	
	
	
	
	
	
	
	
	
	
	
	
	
	
	
	
	<linearGradient y2="29.204" x2="111.5455" y1="49.7188" x1="22.5742" gradientUnits="userSpaceOnUse" id="SVGID_34_">
		<stop id="stop4743" offset="0" style="stop-color:#FFFFFF"></stop>
		<stop id="stop4745" offset="0.6538" style="stop-color:#FFFFFF"></stop>
		<stop id="stop4747" offset="1" style="stop-color:#CBCCCE"></stop>
	</linearGradient>
	
	
	
	
	
	
	
	
		<linearGradient gradientTransform="matrix(1,0,0,-1,192.3999,143.0996)" y2="107.0898" x2="-126.4229" y1="107.0898" x1="-158.8101" gradientUnits="userSpaceOnUse" id="SVGID_35_">
		<stop id="stop4770" offset="0" style="stop-color:#696969"></stop>
		<stop id="stop4772" offset="0.3702" style="stop-color:#2E2E2E"></stop>
		<stop id="stop4774" offset="0.4554" style="stop-color:#424242"></stop>
		<stop id="stop4776" offset="0.6014" style="stop-color:#303030"></stop>
		<stop id="stop4778" offset="0.6947" style="stop-color:#4A4A4A"></stop>
		<stop id="stop4780" offset="1" style="stop-color:#666666"></stop>
	</linearGradient>
	
	
		<linearGradient gradientTransform="matrix(1,0,0,-1,192.3999,143.0996)" y2="107.8965" x2="-126.5454" y1="107.8965" x1="-158.4185" gradientUnits="userSpaceOnUse" id="SVGID_36_">
		<stop id="stop4785" offset="0" style="stop-color:#525252"></stop>
		<stop id="stop4787" offset="0.1856" style="stop-color:#333333"></stop>
		<stop id="stop4789" offset="0.354" style="stop-color:#AEAEAE"></stop>
		<stop id="stop4791" offset="0.4199" style="stop-color:#ADADAD"></stop>
		<stop id="stop4793" offset="0.4276" style="stop-color:#9D9D9D"></stop>
		<stop id="stop4795" offset="0.4433" style="stop-color:#818181"></stop>
		<stop id="stop4797" offset="0.4611" style="stop-color:#6A6A6A"></stop>
		<stop id="stop4799" offset="0.4814" style="stop-color:#585858"></stop>
		<stop id="stop4801" offset="0.506" style="stop-color:#4C4C4C"></stop>
		<stop id="stop4803" offset="0.539" style="stop-color:#444444"></stop>
		<stop id="stop4805" offset="0.6166" style="stop-color:#424242"></stop>
		<stop id="stop4807" offset="0.6684" style="stop-color:#454545"></stop>
		<stop id="stop4809" offset="1" style="stop-color:#BDBDBD"></stop>
	</linearGradient>
	
	
		<linearGradient gradientTransform="matrix(1,0,0,-1,192.3999,143.0996)" y2="104.4332" x2="-154.15421" y1="97.627899" x1="-153.1255" gradientUnits="userSpaceOnUse" id="SVGID_37_">
		<stop id="stop4814" offset="0" style="stop-color:#969696"></stop>
		<stop id="stop4816" offset="1" style="stop-color:#000000"></stop>
	</linearGradient>
	
	
	
	<linearGradient y2="38.790001" x2="39.487301" y1="46.373001" x1="38.737301" gradientUnits="userSpaceOnUse" id="SVGID_38_">
		<stop id="stop4825" offset="0" style="stop-color:#333333"></stop>
		<stop id="stop4827" offset="0.431" style="stop-color:#000000"></stop>
		<stop id="stop4829" offset="1" style="stop-color:#2E2E2E"></stop>
	</linearGradient>
	
	
	
	
	
		<radialGradient gradientUnits="userSpaceOnUse" gradientTransform="matrix(1,0,0,-1,192.3999,143.0996)" r="72.751701" cy="106.5996" cx="-138.2334" id="SVGID_39_">
		<stop id="stop4840" offset="0" style="stop-color:#000000;stop-opacity:0"></stop>
		<stop id="stop4842" offset="0.80220002" style="stop-color:#000000;stop-opacity:0.08"></stop>
		<stop id="stop4844" offset="1" style="stop-color:#000000;stop-opacity:0.3882353"></stop>
	</radialGradient>
	
<radialGradient inkscape:collect="always" xlink:href="#SVGID_39_" id="radialGradient5007" gradientUnits="userSpaceOnUse" gradientTransform="matrix(1,0,0,-1,192.3999,143.0996)" cx="-138.2334" cy="106.5996" r="72.751701"></radialGradient><linearGradient inkscape:collect="always" xlink:href="#SVGID_38_" id="linearGradient5013" gradientUnits="userSpaceOnUse" x1="38.737301" y1="46.373001" x2="39.487301" y2="38.790001"></linearGradient><linearGradient inkscape:collect="always" xlink:href="#SVGID_37_" id="linearGradient5018" gradientUnits="userSpaceOnUse" gradientTransform="matrix(1,0,0,-1,192.3999,143.0996)" x1="-153.1255" y1="97.627899" x2="-154.15421" y2="104.4332"></linearGradient><linearGradient inkscape:collect="always" xlink:href="#SVGID_36_" id="linearGradient5021" gradientUnits="userSpaceOnUse" gradientTransform="matrix(1,0,0,-1,192.3999,143.0996)" x1="-158.4185" y1="107.8965" x2="-126.5454" y2="107.8965"></linearGradient><linearGradient inkscape:collect="always" xlink:href="#SVGID_35_" id="linearGradient5024" gradientUnits="userSpaceOnUse" gradientTransform="matrix(1,0,0,-1,192.3999,143.0996)" x1="-158.8101" y1="107.0898" x2="-126.4229" y2="107.0898"></linearGradient><linearGradient inkscape:collect="always" xlink:href="#SVGID_34_" id="linearGradient5036" gradientUnits="userSpaceOnUse" x1="22.5742" y1="49.7188" x2="111.5455" y2="29.204"></linearGradient><linearGradient inkscape:collect="always" xlink:href="#SVGID_27_" id="linearGradient5252" gradientUnits="userSpaceOnUse" x1="23.471201" y1="30.732401" x2="27.9561" y2="30.732401"></linearGradient><linearGradient inkscape:collect="always" xlink:href="#SVGID_26_" id="linearGradient5258" gradientUnits="userSpaceOnUse" x1="21.2129" y1="71.326698" x2="117.1948" y2="51.952599"></linearGradient><linearGradient inkscape:collect="always" xlink:href="#SVGID_25_" id="linearGradient5261" gradientUnits="userSpaceOnUse" gradientTransform="matrix(1,0,0,-1,192.3999,143.0996)" x1="-176.1851" y1="78.4795" x2="-52.131699" y2="92.223099"></linearGradient><linearGradient inkscape:collect="always" xlink:href="#SVGID_24_" id="linearGradient5264" gradientUnits="userSpaceOnUse" gradientTransform="matrix(1,0,0,-1,192.3999,143.0996)" x1="-175.7173" y1="78.449203" x2="-67.153198" y2="90.476799"></linearGradient><linearGradient inkscape:collect="always" xlink:href="#SVGID_23_" id="linearGradient5267" gradientUnits="userSpaceOnUse" gradientTransform="matrix(1,0,0,-1,192.3999,143.0996)" x1="-172.3853" y1="78.209" x2="-172.3853" y2="78.209"></linearGradient><linearGradient inkscape:collect="always" xlink:href="#SVGID_22_" id="linearGradient5275" gradientUnits="userSpaceOnUse" gradientTransform="matrix(1,0,0,-1,192.3999,143.0996)" x1="-175.14211" y1="104.0801" x2="-83.541" y2="104.0801"></linearGradient><linearGradient inkscape:collect="always" xlink:href="#SVGID_21_" id="linearGradient5278" gradientUnits="userSpaceOnUse" gradientTransform="matrix(1,0,0,-1,192.3999,143.0996)" x1="-175.4424" y1="83.6045" x2="-75.6362" y2="83.6045"></linearGradient><linearGradient inkscape:collect="always" xlink:href="#SVGID_18_" id="linearGradient5317" gradientUnits="userSpaceOnUse" gradientTransform="matrix(1,0,0,-1,192.3999,143.0996)" x1="-115.3716" y1="119.1758" x2="-134.7878" y2="24.695299"></linearGradient><linearGradient inkscape:collect="always" xlink:href="#SVGID_17_" id="linearGradient5320" gradientUnits="userSpaceOnUse" gradientTransform="matrix(1,0,0,-1,192.3999,143.0996)" x1="-118.4946" y1="124.0039" x2="-138.85201" y2="24.9438"></linearGradient><linearGradient inkscape:collect="always" xlink:href="#SVGID_16_" id="linearGradient5323" gradientUnits="userSpaceOnUse" gradientTransform="matrix(1,0,0,-1,192.3999,143.0996)" x1="-127.4014" y1="121.9365" x2="-146.8837" y2="27.1346"></linearGradient><linearGradient inkscape:collect="always" xlink:href="#SVGID_15_" id="linearGradient5326" gradientUnits="userSpaceOnUse" gradientTransform="matrix(1,0,0,-1,192.3999,143.0996)" x1="-135.58591" y1="123.3525" x2="-155.006" y2="28.8524"></linearGradient><linearGradient inkscape:collect="always" xlink:href="#SVGID_14_" id="linearGradient5329" gradientUnits="userSpaceOnUse" gradientTransform="matrix(1,0,0,-1,192.3999,143.0996)" x1="-121.1382" y1="120.3223" x2="-140.54491" y2="25.888"></linearGradient><linearGradient inkscape:collect="always" xlink:href="#SVGID_13_" id="linearGradient5334" gradientUnits="userSpaceOnUse" gradientTransform="matrix(1,0,0,-1,192.3999,143.0996)" x1="-130.1348" y1="35.625" x2="-130.14281" y2="35.585701"></linearGradient><linearGradient inkscape:collect="always" xlink:href="#SVGID_12_" id="linearGradient5337" gradientUnits="userSpaceOnUse" gradientTransform="matrix(1,0,0,-1,192.3999,143.0996)" x1="-152.6201" y1="126.8398" x2="-171.9462" y2="32.797901"></linearGradient><linearGradient inkscape:collect="always" xlink:href="#SVGID_11_" id="linearGradient5340" gradientUnits="userSpaceOnUse" x1="32.519001" y1="33.077099" x2="37.2481" y2="92.496101"></linearGradient><linearGradient inkscape:collect="always" xlink:href="#SVGID_10_" id="linearGradient5343" gradientUnits="userSpaceOnUse" gradientTransform="matrix(1,0,0,-1,192.3999,143.0996)" x1="-115.3369" y1="119.6328" x2="-134.85719" y2="24.6462"></linearGradient><linearGradient inkscape:collect="always" xlink:href="#SVGID_9_" id="linearGradient5354" gradientUnits="userSpaceOnUse" x1="54.653301" y1="25.2764" x2="79.683601" y2="106.3903"></linearGradient><linearGradient inkscape:collect="always" xlink:href="#SVGID_8_" id="linearGradient5357" gradientUnits="userSpaceOnUse" gradientTransform="matrix(1,0,0,-1,192.3999,143.0996)" x1="-117.166" y1="122.1328" x2="-87.569702" y2="31.998501"></linearGradient><linearGradient inkscape:collect="always" xlink:href="#SVGID_7_" id="linearGradient5360" gradientUnits="userSpaceOnUse" x1="70.421898" y1="26.876499" x2="119.5471" y2="87.626701"></linearGradient><linearGradient inkscape:collect="always" xlink:href="#SVGID_6_" id="linearGradient5363" gradientUnits="userSpaceOnUse" gradientTransform="matrix(1,0,0,-1,192.3999,143.0996)" x1="-123.5898" y1="119.8076" x2="-94.069099" y2="29.9035"></linearGradient><linearGradient inkscape:collect="always" xlink:href="#SVGID_5_" id="linearGradient5379" gradientUnits="userSpaceOnUse" x1="54.715801" y1="65.136703" x2="83.798798" y2="65.136703"></linearGradient><linearGradient inkscape:collect="always" xlink:href="#SVGID_2_" id="linearGradient5391" gradientUnits="userSpaceOnUse" x1="66.232399" y1="24.481001" x2="112.7331" y2="97.232101"></linearGradient><radialGradient inkscape:collect="always" xlink:href="#SVGID_1_" id="radialGradient5395" gradientUnits="userSpaceOnUse" gradientTransform="matrix(1,0,0,-1,192.3999,143.0996)" cx="-145.4702" cy="87.823196" r="68.686401"></radialGradient>
	
	
<inkscape:perspective id="perspective10537" inkscape:persp3d-origin="0.5 : 0.33333333 : 1" inkscape:vp_z="1 : 0.5 : 1" inkscape:vp_y="0 : 1000 : 0" inkscape:vp_x="0 : 0.5 : 1" sodipodi:type="inkscape:persp3d"></inkscape:perspective></defs><sodipodi:namedview pagecolor="#ffffff" bordercolor="#666666" borderopacity="1" objecttolerance="10" gridtolerance="10" guidetolerance="10" inkscape:pageopacity="0" inkscape:pageshadow="2" inkscape:window-width="1366" inkscape:window-height="744" id="namedview4848" showgrid="false" inkscape:zoom="5.6568543" inkscape:cx="70.834264" inkscape:cy="39.245264" inkscape:window-x="0" inkscape:window-y="24" inkscape:window-maximized="1" inkscape:current-layer="svg3857" showguides="true" inkscape:guide-bbox="true"><sodipodi:guide orientation="0,1" position="0,140" id="globe_top"></sodipodi:guide><sodipodi:guide orientation="1,0" position="16,0" id="globe_left"></sodipodi:guide><sodipodi:guide orientation="1,0" position="119,0" id="globe_right"></sodipodi:guide><sodipodi:guide id="globe_bottom" position="0,47" orientation="0,1"></sodipodi:guide><sodipodi:guide orientation="0,1" position="8,40" id="wordmark_top"></sodipodi:guide><sodipodi:guide orientation="0,1" position="8,22.5" id="wordmark_bottom"></sodipodi:guide><sodipodi:guide orientation="0,1" position="0,17" id="subtitle_top"></sodipodi:guide><sodipodi:guide orientation="0,1" position="0,8" id="subtitle_bottom"></sodipodi:guide><sodipodi:guide orientation="1,0" position="8,40" id="wordmark_left"></sodipodi:guide><sodipodi:guide orientation="1,0" position="127,40" id="wordmark_right"></sodipodi:guide></sodipodi:namedview><g id="Wikipedia">
		<path id="path3898" d="m 18.757,118.893 c 0,0 -0.367,-0.746 -0.492,-0.994 -0.834,-1.653 -0.816,-1.741 -1.659,-1.852 -0.236,-0.031 -0.358,-0.061 -0.358,-0.178 v -0.523 l 0.071,-0.051 c 1.523,-0.002 4.912,-0.002 4.912,-0.002 l 0.13,0.043 v 0.521 c 0,0.119 -0.085,0.18 -0.258,0.18 l -0.356,0.051 c -0.9,0.07 -0.753,0.438 -0.155,1.629 l 5.677,11.615 0.194,0.053 5.04,-11.961 c 0.175,-0.482 0.148,-0.824 -0.077,-1.025 -0.226,-0.196 -0.385,-0.312 -0.969,-0.336 l -0.473,-0.024 c -0.058,0 -0.113,-0.021 -0.166,-0.06 -0.052,-0.037 -0.079,-0.086 -0.079,-0.145 v -0.498 l 0.072,-0.051 c 1.42,0 5.694,0 5.694,0 l 0.058,0.051 v 0.498 c 0,0.135 -0.077,0.203 -0.229,0.203 -0.746,0.033 -1.299,0.195 -1.657,0.484 -0.359,0.291 -0.639,0.692 -0.84,1.213 0,0 -4.635,10.609 -6.221,14.135 -0.607,1.156 -1.204,1.05 -1.729,-0.033 -1.109,-2.284 -4.232,-9.213 -4.232,-9.213 l -1.898,-3.73 z"></path>
		<path id="path3900" d="m 27.853,115.287 c 0,0 -3.203,-0.01 -4.629,0 l -0.071,0.051 v 0.496 c 0,0.061 0.026,0.109 0.078,0.146 0.053,0.039 0.107,0.059 0.165,0.059 l 0.229,0.025 c 0.583,0.024 0.851,0.177 0.931,0.273 0.139,0.17 0.208,0.354 -0.129,1.089 l -5.98,11.927 -0.157,-0.041 c 0,0 -4.283,-9.031 -5.523,-12.052 -0.129,-0.313 -0.187,-0.545 -0.187,-0.688 0,-0.307 0.277,-0.473 0.831,-0.496 l 0.646,-0.027 c 0.171,0 0.258,-0.066 0.258,-0.203 v -0.496 l -0.058,-0.051 c 0,0 -5.13,-0.006 -6.19,0 l -0.058,0.051 v 0.521 c 0,0.094 0.119,0.152 0.358,0.178 0.651,0.035 1.079,0.139 1.285,0.312 0.205,0.175 0.422,0.617 0.71,1.306 1.557,3.74 4.865,10.414 6.476,14.215 0.464,1.038 1.047,1.199 1.755,-0.032 1.226,-2.274 4.55,-9.218 4.55,-9.218 l 2.618,-4.896 c 0.305,-0.517 0.599,-0.978 0.748,-1.193 0.273,-0.393 0.426,-0.467 1.172,-0.502 0.152,0 0.229,-0.068 0.229,-0.205 v -0.496 l -0.057,-0.053 z"></path>
		<path id="path3902" d="m 21.535,126.689 c -0.02,0.066 0.188,0.293 0.253,0.313 l 0.155,-0.098 c 0.064,0.02 0.203,-0.041 0.223,-0.105 l 0.027,-0.264 -0.279,-1.304 c -0.051,-0.067 -0.09,-0.018 -0.107,0.043 l -0.272,1.415 z" style="fill:#ffffff"></path>
		<path id="path3904" d="m 37.592,130.77 c 0,0.572 0.26,0.91 1.092,0.988 l 0.546,0.053 c 0.078,0 0.156,0.051 0.156,0.155 v 0.546 l -0.026,0.053 c 0,0 -1.976,-0.053 -2.782,-0.053 -0.728,0 -2.756,0.053 -2.756,0.053 l -0.052,-0.053 v -0.546 c 0,-0.104 0.078,-0.155 0.182,-0.155 l 0.52,-0.053 c 0.858,-0.078 1.118,-0.494 1.118,-0.988 v -8.658 c 0,-0.571 -0.313,-0.729 -1.118,-0.805 l -0.52,-0.054 c -0.104,0 -0.182,-0.024 -0.182,-0.104 v -0.599 l 0.026,-0.052 c 0,0 2.054,0.052 2.86,0.052 0.702,0 2.704,-0.052 2.704,-0.052 l 0.026,0.052 v 0.572 c 0,0.078 -0.052,0.13 -0.156,0.13 l -0.546,0.053 c -0.806,0.077 -1.092,0.286 -1.092,0.807 v 8.658 z"></path>
		<path id="path3906" d="m 45.265,130.77 c 0,0.572 0.338,0.858 1.092,0.988 l 0.286,0.053 c 0.078,0.025 0.156,0.051 0.156,0.155 v 0.546 l -0.026,0.053 c 0,0 -1.638,-0.053 -2.418,-0.053 -0.728,0 -2.86,0.053 -2.86,0.053 l -0.052,-0.053 v -0.546 c 0,-0.104 0.078,-0.155 0.182,-0.155 l 0.52,-0.053 c 0.78,-0.078 1.118,-0.494 1.118,-0.988 v -8.658 c 0,-0.571 -0.286,-0.729 -1.118,-0.805 l -0.52,-0.054 c -0.104,0 -0.182,-0.024 -0.182,-0.104 v -0.599 l 0.026,-0.052 c 0,0 2.132,0.052 2.938,0.052 0.729,0 2.366,-0.052 2.366,-0.052 l 0.026,0.052 v 0.572 c 0,0.078 -0.052,0.104 -0.156,0.13 l -0.286,0.053 c -0.806,0.155 -1.092,0.286 -1.092,0.807 v 3.926 c 0.858,0 1.352,-0.441 2.496,-1.664 1.04,-1.145 1.846,-2.105 1.846,-2.6 0,-0.209 -0.234,-0.442 -0.754,-0.521 -0.104,-0.025 -0.156,-0.052 -0.156,-0.13 v -0.599 l 0.026,-0.025 c 0,0 2.106,0.052 2.86,0.052 0.676,0 1.82,-0.052 1.82,-0.052 l 0.078,0.025 v 0.599 c 0,0.078 -0.078,0.13 -0.208,0.13 -1.014,0.078 -1.716,0.13 -2.652,1.196 l -2.236,2.573 c -0.442,0.469 -0.598,0.754 -0.598,0.963 0,0.156 0.104,0.285 0.234,0.441 l 3.926,4.732 c 0.312,0.363 0.936,0.52 1.456,0.623 l 0.13,0.025 c 0.078,0.026 0.182,0.078 0.182,0.156 v 0.546 l -0.078,0.026 c 0,0 -1.378,-0.026 -2.106,-0.026 -0.65,0 -1.586,0.026 -1.586,0.026 l -0.026,-0.026 v -0.312 c 0,-0.339 -0.026,-0.623 -0.39,-1.039 l -2.886,-3.589 c -0.39,-0.521 -0.806,-0.649 -1.378,-0.649 v 3.851 l 0,0 z"></path>
		<path id="path3908" d="m 59.282,130.77 c 0,0.572 0.26,0.91 1.092,0.988 l 0.546,0.053 c 0.078,0 0.156,0.051 0.156,0.155 v 0.546 l -0.026,0.053 c 0,0 -1.976,-0.053 -2.782,-0.053 -0.728,0 -2.756,0.053 -2.756,0.053 l -0.052,-0.053 v -0.546 c 0,-0.104 0.078,-0.155 0.182,-0.155 l 0.52,-0.053 c 0.858,-0.078 1.118,-0.494 1.118,-0.988 v -8.658 c 0,-0.571 -0.312,-0.729 -1.118,-0.805 l -0.52,-0.054 c -0.104,0 -0.182,-0.024 -0.182,-0.104 v -0.599 l 0.026,-0.052 c 0,0 2.054,0.052 2.86,0.052 0.702,0 2.704,-0.052 2.704,-0.052 l 0.026,0.052 v 0.572 c 0,0.078 -0.052,0.13 -0.156,0.13 l -0.546,0.053 c -0.806,0.077 -1.092,0.286 -1.092,0.807 v 8.658 z"></path>
		<path id="path3910" d="m 64.9,122.163 c 0,-0.806 -0.338,-0.832 -1.56,-0.91 -0.156,0 -0.182,-0.077 -0.182,-0.13 v -0.598 l 0.052,-0.026 c 0.39,0 1.924,0.052 2.678,0.052 0.728,0 1.768,-0.052 2.73,-0.052 3.69,0 4.366,1.819 4.366,3.173 0,1.561 -0.754,4.004 -4.444,4.004 -0.65,0 -1.17,-0.053 -1.639,-0.26 v 3.482 c 0,0.572 0.312,0.703 1.145,0.832 l 0.521,0.078 c 0.104,0.026 0.182,0.053 0.182,0.156 v 0.546 l -0.025,0.052 c 0,0 -2.08,-0.052 -2.886,-0.052 -0.728,0 -2.678,0.052 -2.678,0.052 l -0.026,-0.052 v -0.546 c 0,-0.104 0.052,-0.13 0.156,-0.156 l 0.546,-0.078 c 0.806,-0.104 1.066,-0.338 1.066,-0.832 l -0.002,-8.735 0,0 z m 2.002,4.525 c 0.52,0.209 1.17,0.234 1.69,0.234 1.561,0 2.312,-0.938 2.312,-2.938 0,-2.236 -1.014,-2.73 -2.442,-2.73 -1.249,0 -1.561,0.234 -1.561,0.91 l 0.001,4.524 0,0 z"></path>
		<path id="path3912" d="m 77.462,132.512 c -0.78,0 -2.573,0.053 -2.573,0.053 l -0.027,-0.053 v -0.572 c 0,-0.051 0.027,-0.129 0.156,-0.129 l 0.599,-0.053 c 0.807,-0.078 1.041,-0.598 1.041,-1.117 v -8.58 c 0,-0.6 -0.313,-0.703 -1.041,-0.754 l -0.599,-0.054 c -0.156,-0.024 -0.156,-0.077 -0.156,-0.104 v -0.599 l 0.027,-0.052 c 0,0 2.027,0.052 2.807,0.052 h 3.822 c 0.78,0 2.627,-0.052 2.627,-0.052 l 0.053,0.052 c 0.025,1.118 0.207,2.134 0.39,3.121 l -0.649,0.104 c -0.285,-0.963 -0.779,-2.34 -2.443,-2.34 h -2.08 c -0.494,0 -0.754,0.182 -0.754,0.623 v 3.771 h 1.949 c 0.729,0 0.91,-0.312 1.015,-0.832 l 0.155,-0.546 c 0,-0.078 0.053,-0.131 0.156,-0.131 h 0.441 c 0.053,0 0.053,0.027 0.053,0.078 -0.053,0.572 -0.156,1.301 -0.156,1.925 0,0.649 0.104,1.196 0.156,1.794 l -0.053,0.053 h -0.441 c -0.129,0 -0.183,-0.053 -0.183,-0.131 l -0.13,-0.571 c -0.104,-0.521 -0.338,-0.807 -1.016,-0.807 H 78.66 v 3.979 c 0,0.493 0.284,0.987 0.754,0.987 h 2.47 c 1.326,0 2.055,-0.832 2.366,-2.185 l 0.649,0.078 -0.521,2.989 -0.052,0.052 c 0,0 -1.534,-0.052 -2.314,-0.052 l -4.55,0.003 0,0 z"></path>
		<path id="path3914" d="m 87.24,131.811 0.598,-0.053 c 0.781,-0.078 1.041,-0.312 1.041,-1.117 v -8.58 c 0,-0.678 -0.184,-0.678 -1.041,-0.754 l -0.57,-0.054 c -0.104,0 -0.184,-0.052 -0.184,-0.13 v -0.572 l 0.025,-0.052 c 0,0 2.289,0.052 2.758,0.052 0.492,0 2.756,-0.052 3.432,-0.052 4.342,0 6.475,2.704 6.475,6.162 0,4.551 -3.225,5.901 -6.11,5.901 -2.08,0 -2.989,-0.052 -3.795,-0.052 -0.781,0 -2.757,0.052 -2.757,0.052 l -0.026,-0.052 v -0.546 c -0.002,-0.075 0.051,-0.153 0.154,-0.153 z m 5.799,0 c 2.859,0 4.473,-1.065 4.473,-4.707 0,-2.703 -0.599,-5.851 -4.967,-5.851 -1.014,0 -1.664,0.156 -1.664,0.808 v 8.58 c 0,0.726 0.181,1.17 2.158,1.17 z"></path>
		<path id="path3916" d="m 105.912,130.77 c 0,0.572 0.26,0.91 1.092,0.988 l 0.546,0.053 c 0.078,0 0.156,0.051 0.156,0.155 v 0.546 l -0.026,0.053 c 0,0 -1.976,-0.053 -2.781,-0.053 -0.729,0 -2.756,0.053 -2.756,0.053 l -0.053,-0.053 v -0.546 c 0,-0.104 0.078,-0.155 0.182,-0.155 l 0.521,-0.053 c 0.857,-0.078 1.118,-0.494 1.118,-0.988 v -8.658 c 0,-0.571 -0.313,-0.729 -1.118,-0.805 l -0.521,-0.054 c -0.104,0 -0.182,-0.024 -0.182,-0.104 v -0.599 l 0.026,-0.052 c 0,0 2.054,0.052 2.858,0.052 0.702,0 2.705,-0.052 2.705,-0.052 l 0.025,0.052 v 0.572 c 0,0.078 -0.053,0.13 -0.156,0.13 l -0.546,0.053 c -0.806,0.077 -1.092,0.286 -1.092,0.807 l 0.002,8.658 0,0 z"></path>
		<path id="path3918" d="m 113.922,131.758 0.754,0.053 c 0.104,0 0.208,0.078 0.208,0.207 v 0.494 l -0.052,0.053 c 0,0 -2.834,-0.053 -3.458,-0.053 -0.677,0 -2.341,0.053 -2.341,0.053 l -0.053,-0.053 v -0.494 c 0,-0.129 0.078,-0.207 0.209,-0.207 1.145,-0.078 1.793,-0.287 2.521,-1.951 l 5.771,-13.521 c 0.285,-0.676 0.494,-0.937 0.885,-0.937 0.363,0 0.494,0.261 0.701,0.781 l 5.33,14.092 c 0.365,1.015 0.885,1.404 1.925,1.508 l 0.286,0.025 c 0.13,0 0.26,0.078 0.26,0.209 v 0.493 l -0.078,0.052 c 0,0 -2.002,-0.052 -3.016,-0.052 -0.91,0 -3.459,0.052 -3.459,0.052 l -0.025,-0.052 v -0.493 c 0,-0.131 0.052,-0.209 0.184,-0.209 l 0.728,-0.052 c 0.987,-0.077 1.353,-0.391 1.092,-1.118 l -1.586,-4.395 H 115.3 c -0.624,0 -0.78,0.104 -0.909,0.441 l -1.509,3.771 c -0.26,0.652 0.078,1.225 1.04,1.303 z m 6.37,-6.606 -2.522,-6.941 h -0.052 l -2.6,6.604 c -0.104,0.261 0.077,0.338 0.649,0.338 h 4.525 z"></path>
	</g><g id="Ek_muft_encyclopedia" inkscape:label="#Ek_muft_encyclopedia" style="font-size:13px;font-style:normal;font-variant:normal;font-weight:normal;font-stretch:normal;text-align:center;line-height:125%;letter-spacing:0px;word-spacing:0px;text-anchor:middle;fill:#000000;fill-opacity:1;stroke:none;font-family:Linux Libertine O;-inkscape-font-specification:Linux Libertine O"><path d="m 17.463307,138.602 c 0,-0.026 -0.013,-0.039 -0.052,-0.039 -0.221,0.039 -0.299001,0.052 -0.611,0.052 l -3.289,0 c -0.507,0 -1.040001,-0.013 -1.651,-0.026 l -0.026,0.026 0,0.26 c 0,0.039 0.013,0.091 0.104,0.091 l 0.39,0.026 c 0.493999,0.039 0.663,0.182 0.663,0.585 l 0,6.487 c 0,0.364 -0.156001,0.52 -0.663,0.559 l -0.39,0.026 c -0.078,0 -0.104,0.052 -0.104,0.091 l 0,0.26 0.026,0.026 c 0.610999,-0.013 1.144,-0.026 1.651,-0.026 l 2.782,0 c 0.623999,0 1.664,0.026 1.664,0.026 l 0.481,-2.171 -0.403,-0.065 c -0.26,0.936 -0.767001,1.703 -1.755,1.703 l -1.768,0 c -0.286,0 -0.468,-0.078 -0.468,-0.429 l 0,-3.263 1.651,0 c 0.441999,0 0.611,0.117 0.65,0.494 l 0.039,0.325 c 0,0.039 0.026,0.104 0.091,0.104 l 0.286,0 0.052,-0.039 c -0.039,-0.52 -0.052,-0.871 -0.052,-1.131 0,-0.26 0.013,-0.65 0.052,-1.17 l -0.052,-0.052 -0.286,0 c -0.052,0 -0.091,0.052 -0.091,0.104 l -0.039,0.325 c -0.039,0.364 -0.195001,0.546 -0.65,0.546 l -1.651,0 0,-2.73 c 0,-0.312 0.156,-0.442 0.468,-0.442 l 1.365,0 c 0.974999,0 1.209,0.52 1.495,1.417 l 0.377,-0.065 c -0.065,-0.533 -0.26,-1.781 -0.286,-1.885" id="path3568"></path><path d="m 19.957072,139.681 0,6.383 c 0,0.377 -0.13,0.52 -0.559,0.559 l -0.247,0.026 c -0.065,0.013 -0.091,0.039 -0.091,0.104 l 0,0.247 0.026,0.026 c 0.65,-0.013 0.832001,-0.026 1.339,-0.026 0.533,0 0.663001,0.013 1.17,0.026 l 0.026,-0.026 0,-0.247 c 0,-0.065 -0.052,-0.104 -0.104,-0.104 -0.337999,-0.039 -0.585,-0.091 -0.585,-0.585 l 0,-1.82 c 0.325,0 0.507,0.091 0.767,0.468 l 0.949,1.339 c 0.26,0.377 0.299,0.533 0.299,0.702 l 0,0.247 0.039,0.026 c 0.26,-0.013 0.481001,-0.026 0.871,-0.026 0.403,0 0.715001,0.013 1.105,0.026 l 0.026,-0.026 0,-0.247 c 0,-0.065 -0.026,-0.091 -0.117,-0.104 l -0.091,-0.013 c -0.324999,-0.052 -0.741,-0.234 -0.975,-0.585 l -1.521,-2.249 c -0.039,-0.052 -0.065,-0.117 -0.065,-0.182 0,-0.052 0.013,-0.091 0.052,-0.13 l 0.988,-1.092 c 0.325,-0.338 0.897001,-0.559 1.248,-0.611 l 0.091,-0.013 c 0.065,-0.013 0.143,-0.039 0.143,-0.104 l 0,-0.247 -0.052,-0.026 c -0.480999,0.013 -0.663,0.026 -1.131,0.026 -0.493999,0 -0.676,-0.013 -1.157,-0.026 0,0.013 -0.039,0.026 -0.039,0.026 l 0,0.247 c 0,0.052 0.039,0.104 0.104,0.104 0.779999,0.039 0.312,0.572 0.169,0.715 -0.701999,0.767 -1.365,1.352 -1.703,1.43 l 0,-4.498 c 0,-0.845 0.039,-1.365 0.039,-1.365 0,-0.091 -0.052,-0.13 -0.169,-0.13 -0.324999,0.13 -1.235,0.299 -1.755,0.338 l 0.026,0.312 c 0,0.039 0.039,0.065 0.078,0.065 l 0.416,0.026 c 0.26,0 0.39,0.169 0.39,1.014" id="path3570"></path><path d="m 30.584775,141.293 c 0,-0.026 -0.026,-0.039 -0.052,-0.039 -0.376999,0.143 -0.871001,0.26 -1.794,0.403 l 0.026,0.312 0.559,0.052 c 0.182,0.026 0.286,0.156 0.286,0.806 l 0,3.237 c 0,0.377 -0.117,0.507 -0.559,0.559 l -0.247,0.026 c -0.065,0.013 -0.104,0.039 -0.104,0.104 l 0,0.247 0.026,0.026 c 0.52,-0.013 0.845001,-0.026 1.352,-0.026 0.533,0 0.806001,0.013 1.326,0.026 l 0.026,-0.026 0,-0.247 c 0,-0.065 -0.052,-0.091 -0.104,-0.104 l -0.182,-0.026 c -0.363999,-0.052 -0.559,-0.182 -0.559,-0.559 l 0,-3.224 c 0.611,-0.637 1.092001,-0.923 1.547,-0.923 0.494,0 0.858,0.312 0.858,1.183 l 0,2.964 c 0,0.377 -0.169,0.507 -0.546,0.559 l -0.195,0.026 c -0.065,0.013 -0.104,0.039 -0.104,0.104 l 0,0.247 0.026,0.026 c 0.52,-0.013 0.780001,-0.026 1.287,-0.026 0.533,0 0.806001,0.013 1.326,0.026 l 0.026,-0.026 0,-0.247 c 0,-0.065 -0.052,-0.091 -0.117,-0.104 l -0.156,-0.026 c -0.376999,-0.065 -0.572,-0.182 -0.572,-0.559 l 0,-2.717 c 0,-0.182 0,-0.364 -0.013,-0.52 0.624,-0.689 1.079001,-0.91 1.586,-0.91 0.494,0 0.858,0.286 0.858,1.157 l 0,2.99 c 0,0.377 -0.221,0.507 -0.559,0.559 l -0.182,0.026 c -0.065,0.013 -0.104,0.039 -0.104,0.104 l 0,0.247 0.026,0.026 c 0.52,-0.013 0.780001,-0.026 1.287,-0.026 0.52,0 0.871001,0.013 1.391,0.026 l 0.026,-0.026 0,-0.247 c 0,-0.065 -0.052,-0.104 -0.104,-0.104 l -0.247,-0.026 c -0.428999,-0.039 -0.559,-0.182 -0.559,-0.559 l 0,-2.704 c 0,-1.157 -0.221001,-2.067 -1.365,-2.067 -0.701999,0 -1.391,0.299 -2.132,1.079 -0.091,-0.585 -0.546,-1.079 -1.274,-1.079 -0.805999,0 -1.404,0.442 -2.015,1.092 l -0.039,0 0.039,-1.092" id="path3572"></path><path d="m 43.029025,142.424 0,3.224 c -0.272999,0.325 -0.884,0.897 -1.482,0.897 -0.389999,0 -0.988,-0.208 -0.988,-1.365 l 0,-2.496 c 0,-0.39 0.039,-1.261 0.039,-1.261 0,-0.026 -0.026,-0.026 -0.052,-0.026 -0.065,0.013 -0.26,0.026 -0.455,0.026 -0.415999,0 -0.806,-0.013 -1.287,-0.026 l -0.039,0.026 0,0.325 0.039,0.026 0.208,0.026 c 0.455,0.052 0.572,0.195 0.572,0.624 l 0,2.938 c 0,0.897 0.338002,1.768 1.625,1.768 0.533,0 1.092001,-0.182 1.82,-0.962 l 0.026,0 -0.026,0.988 0.299,0 c 0.286,-0.234 0.858001,-0.403 1.664,-0.546 l -0.039,-0.299 -0.624,-0.065 c -0.272999,-0.026 -0.325,-0.104 -0.325,-0.754 l 0,-2.808 c 0,-0.39 0.039,-1.261 0.039,-1.261 0,-0.026 -0.026,-0.026 -0.052,-0.026 -0.065,0.013 -0.26,0.026 -0.455,0.026 -0.415999,0 -0.806,-0.013 -1.287,-0.026 l -0.039,0.026 0,0.325 0.039,0.026 0.208,0.026 c 0.455,0.052 0.572,0.195 0.572,0.624" id="path3574"></path><path d="m 46.364541,140.799 0,0.624 -0.663,0 c -0.234,0 -0.299,0.156 -0.299,0.26 l 0,0.169 c 0,0.065 0.013,0.078 0.065,0.078 l 0.897,0 0,4.134 c 0,0.377 -0.065,0.507 -0.559,0.559 l -0.247,0.026 c -0.065,0.013 -0.104,0.039 -0.104,0.104 l 0,0.247 0.026,0.026 c 0,0 0.819,-0.026 1.352,-0.026 0.610999,0 1.573,0.026 1.573,0.026 l 0.026,-0.026 0,-0.247 c 0,-0.065 -0.052,-0.104 -0.104,-0.104 l -0.429,-0.026 c -0.416,-0.026 -0.559,-0.182 -0.559,-0.559 l 0,-4.134 2.574,0 0,3.939 c 0,0.923 0.403001,1.287 1.001,1.287 0.649999,0 1.196,-0.377 1.534,-0.884 -0.039,-0.104 -0.104,-0.169 -0.208,-0.195 -0.195,0.169 -0.559,0.364 -0.923,0.364 -0.351,0 -0.429,-0.39 -0.429,-1.196 l 0,-3.315 1.222,0 c 0.13,0 0.312,-0.052 0.312,-0.169 l 0,-0.26 c 0,-0.052 -0.039,-0.078 -0.104,-0.078 l -1.43,0 0,-2.015 -0.754,0.26 0,0.247 c 0,1.027 -0.117001,1.508 -1.131,1.508 l -1.664,0 0,-0.585 c 0,-1.56 0.234001,-2.47 0.923,-2.47 0.312,0 0.403,0.247 0.455,0.507 0.065,0.351 0.247,0.533 0.598,0.533 0.338,0 0.455,-0.273 0.455,-0.494 0,-0.221 -0.143,-0.429 -0.338,-0.598 -0.26,-0.234 -0.546001,-0.39 -1.079,-0.39 -0.870999,0 -1.989,0.819 -1.989,2.873" id="path3576"></path><path d="m 57.404385,143.269 c 0.233999,-1.469 1.196,-1.534 1.495,-1.534 0.467999,0 1.079,0.26 1.079,1.352 0,0.117 -0.052,0.182 -0.182,0.182 l -2.392,0 m 3.432,2.496 c -0.455,0.494 -0.910001,0.728 -1.625,0.728 -0.728,0 -1.846,-0.78 -1.846,-2.717 l 3.419,0 c 0.143,0 0.234,-0.078 0.234,-0.221 0,-1.092 -0.403002,-2.262 -2.119,-2.262 -1.234999,0 -2.574,1.144 -2.574,3.12 0,1.495 0.793001,2.717 2.574,2.717 0.935999,0 1.703,-0.481 2.197,-1.157 -0.039,-0.13 -0.117,-0.195 -0.26,-0.208" id="path3578"></path><path d="m 63.601932,141.293 c 0,-0.026 -0.026,-0.039 -0.052,-0.039 -0.364,0.143 -0.884001,0.26 -1.794,0.403 l 0.026,0.312 0.559,0.052 c 0.181999,0.026 0.286,0.156 0.286,0.806 l 0,3.237 c 0,0.377 -0.130001,0.52 -0.559,0.559 l -0.247,0.026 c -0.065,0.013 -0.104,0.039 -0.104,0.104 l 0,0.247 0.026,0.026 c 0.519999,-0.013 0.845,-0.026 1.352,-0.026 0.532999,0 0.806,0.013 1.326,0.026 l 0.026,-0.026 0,-0.247 c 0,-0.065 -0.039,-0.091 -0.104,-0.104 l -0.182,-0.026 c -0.429,-0.065 -0.559,-0.182 -0.559,-0.559 l 0,-3.146 c 0.662999,-0.78 1.157,-1.001 1.729,-1.001 0.688999,0 0.845,0.429 0.845,1.339 l 0,2.808 c 0,0.377 -0.143001,0.494 -0.559,0.559 l -0.182,0.026 c -0.065,0.013 -0.104,0.039 -0.104,0.104 l 0,0.247 0.026,0.026 c 0.519999,-0.013 0.78,-0.026 1.287,-0.026 0.532999,0 0.871,0.013 1.391,0.026 l 0.026,-0.026 0,-0.247 c 0,-0.065 -0.052,-0.091 -0.117,-0.104 l -0.247,-0.026 c -0.403,-0.039 -0.546,-0.182 -0.546,-0.559 l 0,-2.717 c 0,-1.157 -0.260002,-2.054 -1.43,-2.054 -0.663,0 -1.287001,0.182 -2.119,1.157 l -0.039,0 0.039,-1.157" id="path3580"></path><path d="m 73.396619,145.817 c -0.052,-0.117 -0.156,-0.169 -0.273,-0.182 -0.403,0.585 -1.001,0.923 -1.56,0.923 -1.000999,0 -1.729,-1.027 -1.729,-2.548 0,-1.43 0.663001,-2.275 1.521,-2.275 0.766999,0 0.871,0.559 0.923,0.988 0.039,0.325 0.195,0.455 0.468,0.455 0.273,0 0.611,-0.182 0.611,-0.559 0,-0.689 -0.689001,-1.326 -1.937,-1.326 -1.403999,0 -2.691,1.157 -2.691,3.003 0,1.677 0.910002,2.834 2.548,2.834 0.779999,0 1.469001,-0.247 2.119,-1.313" id="path3582"></path><path d="m 76.296432,141.67 0,-0.234 -0.026,-0.039 c -0.481,0.013 -0.949001,0.026 -1.417,0.026 -0.442,0 -0.832001,-0.013 -1.092,-0.026 l -0.026,0.026 0,0.26 c 0,0.052 0.052,0.078 0.13,0.091 0.428999,0.039 0.585,0.143 0.793,0.637 l 1.638,3.809 c 0.103999,0.26 0.221,0.611 0.221,0.741 0,0.117 -0.026,0.247 -0.104,0.403 -0.325,0.793 -0.806001,1.937 -1.001,1.937 -0.13,0 -0.221001,-0.091 -0.351,-0.221 -0.078,-0.104 -0.208001,-0.182 -0.403,-0.182 -0.208,0 -0.494,0.117 -0.494,0.507 0,0.468 0.507,0.611 0.754,0.611 0.922999,0 1.417,-1.118 1.807,-2.054 1.039999,-2.509 1.612,-3.848 2.301,-5.304 0.181999,-0.377 0.442,-0.845 0.923,-0.884 0.091,-0.013 0.143,-0.039 0.143,-0.104 l 0,-0.247 -0.039,-0.026 c -0.325,0.013 -0.533001,0.026 -0.897,0.026 -0.455,0 -0.741001,-0.013 -1.222,-0.026 l -0.026,0.039 0,0.247 c 0,0.065 0.065,0.091 0.13,0.091 0.402999,0.039 0.792999,0.117 0.507,0.637 l -1.443,3.302 -1.43,-3.354 c -0.195,-0.442 -0.013,-0.546 0.481,-0.585 0.065,0 0.143,-0.039 0.143,-0.104" id="path3584"></path><path d="m 85.279432,145.817 c -0.052,-0.117 -0.156001,-0.169 -0.273,-0.182 -0.403,0.585 -1.001001,0.923 -1.56,0.923 -1.000999,0 -1.729,-1.027 -1.729,-2.548 0,-1.43 0.663,-2.275 1.521,-2.275 0.766999,0 0.871,0.559 0.923,0.988 0.039,0.325 0.195,0.455 0.468,0.455 0.272999,0 0.611,-0.182 0.611,-0.559 0,-0.689 -0.689002,-1.326 -1.937,-1.326 -1.403999,0 -2.691,1.157 -2.691,3.003 0,1.677 0.910001,2.834 2.548,2.834 0.779999,0 1.469,-0.247 2.119,-1.313" id="path3586"></path><path d="m 86.749244,146.064 c 0,0.377 -0.13,0.52 -0.559,0.559 l -0.312,0.026 c -0.065,0 -0.091,0.039 -0.091,0.104 l 0,0.247 0.013,0.026 c 0.649999,-0.013 0.910001,-0.026 1.417,-0.026 0.533,0 0.793001,0.013 1.443,0.026 l 0.026,-0.026 0,-0.247 c 0,-0.065 -0.052,-0.104 -0.104,-0.104 l -0.312,-0.026 c -0.428999,-0.039 -0.546,-0.182 -0.546,-0.559 l 0,-6.643 c 0,-0.845 0.039,-1.365 0.039,-1.365 0,-0.091 -0.052,-0.13 -0.169,-0.13 -0.325,0.13 -1.222,0.299 -1.755,0.338 l 0.026,0.312 c 0,0.039 0.039,0.065 0.078,0.065 l 0.416,0.026 c 0.26,0 0.39,0.169 0.39,1.014 l 0,6.383" id="path3588"></path><path d="m 89.359197,144.335 c 0,1.326 0.923002,2.795 2.665,2.795 1.845998,0 2.691,-1.612 2.691,-2.912 0,-1.352 -0.741002,-2.925 -2.665,-2.925 -1.728998,0 -2.691,1.261 -2.691,3.042 m 2.548,-2.613 c 1.065999,0 1.703,1.001 1.703,2.912 0,1.716 -0.78,2.067 -1.365,2.067 -1.286999,0 -1.781,-1.664 -1.781,-2.665 0,-1.131 0.403001,-2.314 1.443,-2.314" id="path3590"></path><path d="m 97.203072,142.957 c 0.286,-0.689 0.910001,-1.066 1.352,-1.066 0.792999,0 1.468998,0.936 1.468998,2.405 0,1.066 -0.350999,2.392 -1.741998,2.392 -0.208,0 -0.624,-0.026 -1.079,-0.559 l 0,-3.172 m -0.975,-0.13 0,6.266 c 0,0.364 -0.143,0.507 -0.559,0.546 l -0.247,0.026 c -0.065,0.013 -0.104,0.039 -0.104,0.104 l 0,0.247 0.026,0.026 c 0.481,-0.013 0.884001,-0.026 1.352,-0.026 0.494,0 0.910001,0.013 1.391,0.026 l 0.026,-0.026 0,-0.247 c 0,-0.065 -0.052,-0.091 -0.117,-0.104 l -0.247,-0.026 c -0.402999,-0.039 -0.546,-0.182 -0.546,-0.546 l 0,-2.249 c 0.338,0.182 0.689001,0.286 1.157,0.286 0.689,0 1.313001,-0.221 1.819998,-0.728 0.585,-0.598 0.91,-1.404 0.91,-2.457 0,-1.378 -0.923,-2.652 -2.183998,-2.652 -0.415999,0 -1.105,0.13 -1.703,1.04 l -0.039,0 0.039,-1.04 c 0,-0.026 -0.026,-0.039 -0.052,-0.039 -0.376999,0.143 -0.871001,0.26 -1.794,0.403 l 0.026,0.312 0.559,0.052 c 0.182,0.026 0.286,0.156 0.286,0.806" id="path3592"></path><path d="m 103.18368,143.269 c 0.234,-1.469 1.196,-1.534 1.495,-1.534 0.468,0 1.079,0.26 1.079,1.352 0,0.117 -0.052,0.182 -0.182,0.182 l -2.392,0 m 3.432,2.496 c -0.455,0.494 -0.91,0.728 -1.625,0.728 -0.728,0 -1.846,-0.78 -1.846,-2.717 l 3.419,0 c 0.143,0 0.234,-0.078 0.234,-0.221 0,-1.092 -0.403,-2.262 -2.119,-2.262 -1.235,0 -2.574,1.144 -2.574,3.12 0,1.495 0.793,2.717 2.574,2.717 0.936,0 1.703,-0.481 2.197,-1.157 -0.039,-0.13 -0.117,-0.195 -0.26,-0.208" id="path3594"></path><path d="m 111.7584,145.778 c -0.585,0.468 -1.092,0.741 -1.43,0.741 -0.702,0 -1.417,-0.767 -1.417,-2.392 0,-0.936 0.169,-1.456 0.364,-1.729 0.403,-0.611 0.949,-0.65 1.209,-0.65 0.611,0 0.962,0.273 1.274,0.767 l 0,3.263 m 0.975,-6.357 c 0,-0.845 0.039,-1.365 0.039,-1.365 0,-0.091 -0.052,-0.13 -0.169,-0.13 -0.325,0.13 -1.222,0.299 -1.755,0.338 l 0.026,0.312 c 0,0.039 0.039,0.065 0.078,0.065 l 0.416,0.026 c 0.26,0 0.39,0.169 0.39,1.014 l 0,1.898 c -0.299,-0.169 -0.871,-0.286 -1.131,-0.286 -0.858,0 -1.43,0.286 -1.95,0.78 -0.559,0.559 -0.871,1.326 -0.871,2.288 0,1.599 0.78,2.769 2.184,2.769 0.52,0 1.17,-0.416 1.768,-0.897 l 0.026,0.013 -0.026,0.91 0.299,0 c 0.286,-0.234 0.858,-0.403 1.664,-0.546 l -0.039,-0.299 -0.624,-0.065 c -0.273,-0.026 -0.325,-0.104 -0.325,-0.754 l 0,-6.071" id="path3596"></path><path d="m 114.96818,139.59 c 0,0.338 0.286,0.624 0.624,0.624 0.338,0 0.624,-0.286 0.624,-0.624 0,-0.338 -0.286,-0.624 -0.624,-0.624 -0.338,0 -0.624,0.286 -0.624,0.624 m 1.222,1.703 c 0,-0.026 -0.026,-0.039 -0.052,-0.039 -0.364,0.143 -0.91,0.26 -1.833,0.403 l 0.026,0.312 0.559,0.052 c 0.182,0.026 0.286,0.156 0.286,0.806 l 0,3.237 c 0,0.377 -0.117,0.507 -0.559,0.559 l -0.247,0.026 c -0.065,0.013 -0.104,0.039 -0.104,0.104 l 0,0.247 0.026,0.026 c 0.52,-0.013 0.884,-0.026 1.352,-0.026 0.494,0 0.871,0.013 1.391,0.026 l 0.026,-0.026 0,-0.247 c 0,-0.065 -0.052,-0.091 -0.117,-0.104 l -0.247,-0.026 c -0.403,-0.039 -0.546,-0.182 -0.546,-0.559 l 0,-3.237 c 0,-0.65 0.039,-1.534 0.039,-1.534" id="path3598"></path><path d="m 121.1117,143.971 0,1.729 c 0,0.169 -0.078,0.26 -0.182,0.338 -0.338,0.273 -0.78,0.559 -1.144,0.559 -0.65,0 -0.962,-0.52 -0.962,-0.923 0,-0.585 0.299,-1.17 1.261,-1.43 l 1.027,-0.273 m 0,2.405 c 0.078,0.273 0.286,0.754 0.975,0.754 0.637,0 1.079,-0.52 1.079,-0.585 0,-0.091 -0.091,-0.195 -0.143,-0.195 -0.078,0 -0.117,0.208 -0.429,0.208 -0.507,0 -0.52,-0.533 -0.52,-1.131 l 0,-1.937 c 0,-1.846 -0.962,-2.197 -1.911,-2.197 -1.066,0 -2.145,0.741 -2.145,1.443 0,0.312 0.156,0.455 0.455,0.455 0.377,0 0.572,-0.26 0.572,-0.429 0,-0.091 -0.013,-0.182 -0.039,-0.234 -0.013,-0.039 -0.026,-0.117 -0.026,-0.26 0,-0.403 0.585,-0.585 1.079,-0.585 0.442,0 1.053,0.26 1.053,1.729 0,0.091 -0.039,0.143 -0.078,0.156 l -1.118,0.273 c -1.248,0.312 -2.119,1.001 -2.119,1.885 0,1.027 0.702,1.404 1.612,1.404 0.598,0 0.845,-0.104 1.417,-0.546 l 0.26,-0.208 0.026,0" id="path3600"></path></g></svg>
</svg>