<?xml version="1.0" encoding="UTF-8" standalone="no"?>
<svg
	xmlns="http://www.w3.org/2000/svg"
	xmlns:dc="http://purl.org/dc/elements/1.1/"
	xmlns:cc="http://creativecommons.org/ns#"
	xmlns:rdf="http://www.w3.org/1999/02/22-rdf-syntax-ns#"
	xmlns:svg="http://www.w3.org/2000/svg"
	xmlns:xlink="http://www.w3.org/1999/xlink"
	xmlns:sodipodi="http://sodipodi.sourceforge.net/DTD/sodipodi-0.dtd"
	xmlns:inkscape="http://www.inkscape.org/namespaces/inkscape"
	version="1.1"
	viewBox="0 0 135px 155px">
	<svg xmlns:dc="http://purl.org/dc/elements/1.1/" xmlns:cc="http://creativecommons.org/ns#" xmlns:rdf="http://www.w3.org/1999/02/22-rdf-syntax-ns#" xmlns:svg="http://www.w3.org/2000/svg" xmlns:xlink="http://www.w3.org/1999/xlink" xmlns:sodipodi="http://sodipodi.sourceforge.net/DTD/sodipodi-0.dtd" xmlns:inkscape="http://www.inkscape.org/namespaces/inkscape" version="1.1" x="0px" y="0px" width="135px" height="155px" viewBox="0 0 135 155" enable-background="new 0 0 135 155" xml:space="preserve" id="svg3857" inkscape:version="0.47 r22583" sodipodi:docname="Wikipedia-logo-v2-de.svg" xmlns:svgjs="http://svgjs.com/svgjs"><metadata id="metadata4852"><rdf:RDF><cc:Work rdf:about=""><dc:format>image/svg+xml</dc:format><dc:type rdf:resource="http://purl.org/dc/dcmitype/StillImage"></dc:type><dc:title></dc:title></cc:Work></rdf:RDF></metadata><defs id="defs4850"><inkscape:perspective sodipodi:type="inkscape:persp3d" inkscape:vp_x="0 : 77.5 : 1" inkscape:vp_y="0 : 1000 : 0" inkscape:vp_z="135 : 77.5 : 1" inkscape:persp3d-origin="67.5 : 51.666667 : 1" id="perspective4854"></inkscape:perspective>
	
		<radialGradient gradientUnits="userSpaceOnUse" gradientTransform="matrix(1,0,0,-1,192.3999,143.0996)" r="68.686401" cy="87.823196" cx="-145.4702" id="SVGID_1_">
		<stop id="stop3922" offset="0" style="stop-color:#FFFFFF"></stop>
		<stop id="stop3924" offset="0.4835" style="stop-color:#EAEAEB"></stop>
		<stop id="stop3926" offset="0.9451" style="stop-color:#A9ABAE"></stop>
		<stop id="stop3928" offset="1" style="stop-color:#999B9E"></stop>
	</radialGradient>
	
	
	<linearGradient y2="97.232101" x2="112.7331" y1="24.481001" x1="66.232399" gradientUnits="userSpaceOnUse" id="SVGID_2_">
		<stop id="stop3935" offset="0" style="stop-color:#8A8A8A"></stop>
		<stop id="stop3937" offset="0.5687" style="stop-color:#606060"></stop>
		<stop id="stop3939" offset="0.5914" style="stop-color:#FFFFFF"></stop>
		<stop id="stop3941" offset="0.6116" style="stop-color:#585858"></stop>
		<stop id="stop3943" offset="1" style="stop-color:#303030"></stop>
	</linearGradient>
	
	
	<linearGradient y2="65.136703" x2="83.798798" y1="65.136703" x1="54.715801" gradientUnits="userSpaceOnUse" id="SVGID_5_">
		<stop id="stop3964" offset="0" style="stop-color:#231F20"></stop>
		<stop id="stop3966" offset="1" style="stop-color:#474747"></stop>
	</linearGradient>
	
	
	
	
	
	
	
	
	
		<linearGradient gradientTransform="matrix(1,0,0,-1,192.3999,143.0996)" y2="29.9035" x2="-94.069099" y1="119.8076" x1="-123.5898" gradientUnits="userSpaceOnUse" id="SVGID_6_">
		<stop id="stop3997" offset="0" style="stop-color:#FFFFFF"></stop>
		<stop id="stop3999" offset="0.0094" style="stop-color:#FCFCFC"></stop>
		<stop id="stop4001" offset="0.0655" style="stop-color:#EEEEEE"></stop>
		<stop id="stop4003" offset="0.1342" style="stop-color:#E5E5E5"></stop>
		<stop id="stop4005" offset="0.2515" style="stop-color:#E3E3E3"></stop>
		<stop id="stop4007" offset="0.3357" style="stop-color:#8A8A8A"></stop>
		<stop id="stop4009" offset="0.4422" style="stop-color:#B8B8B8"></stop>
		<stop id="stop4011" offset="1" style="stop-color:#3B3B3B"></stop>
	</linearGradient>
	
	<linearGradient y2="87.626701" x2="119.5471" y1="26.876499" x1="70.421898" gradientUnits="userSpaceOnUse" id="SVGID_7_">
		<stop id="stop4016" offset="0" style="stop-color:#EFF0F0"></stop>
		<stop id="stop4018" offset="0.5914" style="stop-color:#F0F1F2"></stop>
		<stop id="stop4020" offset="0.599" style="stop-color:#787878"></stop>
		<stop id="stop4022" offset="0.6456" style="stop-color:#EEEFF0"></stop>
		<stop id="stop4024" offset="1" style="stop-color:#D8D9DB"></stop>
	</linearGradient>
	
	
		<linearGradient gradientTransform="matrix(1,0,0,-1,192.3999,143.0996)" y2="31.998501" x2="-87.569702" y1="122.1328" x1="-117.166" gradientUnits="userSpaceOnUse" id="SVGID_8_">
		<stop id="stop4029" offset="0" style="stop-color:#FFFFFF"></stop>
		<stop id="stop4031" offset="1" style="stop-color:#E4E5E6"></stop>
	</linearGradient>
	
	<linearGradient y2="106.3903" x2="79.683601" y1="25.2764" x1="54.653301" gradientUnits="userSpaceOnUse" id="SVGID_9_">
		<stop id="stop4036" offset="0" style="stop-color:#FFFFFF"></stop>
		<stop id="stop4038" offset="0.7473" style="stop-color:#F9F9F9"></stop>
		<stop id="stop4040" offset="1" style="stop-color:#D5D7D8"></stop>
	</linearGradient>
	
	
	
	
	
		<linearGradient gradientTransform="matrix(1,0,0,-1,192.3999,143.0996)" y2="24.6462" x2="-134.85719" y1="119.6328" x1="-115.3369" gradientUnits="userSpaceOnUse" id="SVGID_10_">
		<stop id="stop4061" offset="0" style="stop-color:#FFFFFF"></stop>
		<stop id="stop4063" offset="1" style="stop-color:#E4E5E6"></stop>
	</linearGradient>
	
	<linearGradient y2="92.496101" x2="37.2481" y1="33.077099" x1="32.519001" gradientUnits="userSpaceOnUse" id="SVGID_11_">
		<stop id="stop4068" offset="0.2198" style="stop-color:#989A9C"></stop>
		<stop id="stop4070" offset="0.2527" style="stop-color:#FFFFFF"></stop>
	</linearGradient>
	
	
		<linearGradient gradientTransform="matrix(1,0,0,-1,192.3999,143.0996)" y2="32.797901" x2="-171.9462" y1="126.8398" x1="-152.6201" gradientUnits="userSpaceOnUse" id="SVGID_12_">
		<stop id="stop4075" offset="0" style="stop-color:#FFFFFF"></stop>
		<stop id="stop4077" offset="1" style="stop-color:#E4E5E6"></stop>
	</linearGradient>
	
	
		<linearGradient gradientTransform="matrix(1,0,0,-1,192.3999,143.0996)" y2="35.585701" x2="-130.14281" y1="35.625" x1="-130.1348" gradientUnits="userSpaceOnUse" id="SVGID_13_">
		<stop id="stop4082" offset="0" style="stop-color:#FFFFFF"></stop>
		<stop id="stop4084" offset="1" style="stop-color:#E4E5E6"></stop>
	</linearGradient>
	
	
	
	
		<linearGradient gradientTransform="matrix(1,0,0,-1,192.3999,143.0996)" y2="25.888" x2="-140.54491" y1="120.3223" x1="-121.1382" gradientUnits="userSpaceOnUse" id="SVGID_14_">
		<stop id="stop4093" offset="0" style="stop-color:#FFFFFF"></stop>
		<stop id="stop4095" offset="1" style="stop-color:#E4E5E6"></stop>
	</linearGradient>
	
	
		<linearGradient gradientTransform="matrix(1,0,0,-1,192.3999,143.0996)" y2="28.8524" x2="-155.006" y1="123.3525" x1="-135.58591" gradientUnits="userSpaceOnUse" id="SVGID_15_">
		<stop id="stop4100" offset="0" style="stop-color:#FFFFFF"></stop>
		<stop id="stop4102" offset="1" style="stop-color:#E4E5E6"></stop>
	</linearGradient>
	
	
		<linearGradient gradientTransform="matrix(1,0,0,-1,192.3999,143.0996)" y2="27.1346" x2="-146.8837" y1="121.9365" x1="-127.4014" gradientUnits="userSpaceOnUse" id="SVGID_16_">
		<stop id="stop4107" offset="0" style="stop-color:#FFFFFF"></stop>
		<stop id="stop4109" offset="1" style="stop-color:#E4E5E6"></stop>
	</linearGradient>
	
	
		<linearGradient gradientTransform="matrix(1,0,0,-1,192.3999,143.0996)" y2="24.9438" x2="-138.85201" y1="124.0039" x1="-118.4946" gradientUnits="userSpaceOnUse" id="SVGID_17_">
		<stop id="stop4114" offset="0" style="stop-color:#FFFFFF"></stop>
		<stop id="stop4116" offset="1" style="stop-color:#E4E5E6"></stop>
	</linearGradient>
	
	
		<linearGradient gradientTransform="matrix(1,0,0,-1,192.3999,143.0996)" y2="24.695299" x2="-134.7878" y1="119.1758" x1="-115.3716" gradientUnits="userSpaceOnUse" id="SVGID_18_">
		<stop id="stop4121" offset="0" style="stop-color:#FFFFFF"></stop>
		<stop id="stop4123" offset="1" style="stop-color:#E4E5E6"></stop>
	</linearGradient>
	
	
	
	
	
	
	
	
	
	
	
	
		<linearGradient gradientTransform="matrix(1,0,0,-1,192.3999,143.0996)" y2="83.6045" x2="-75.6362" y1="83.6045" x1="-175.4424" gradientUnits="userSpaceOnUse" id="SVGID_21_">
		<stop id="stop4198" offset="0" style="stop-color:#555555"></stop>
		<stop id="stop4200" offset="1" style="stop-color:#231F20"></stop>
	</linearGradient>
	
	
		<linearGradient gradientTransform="matrix(1,0,0,-1,192.3999,143.0996)" y2="104.0801" x2="-83.541" y1="104.0801" x1="-175.14211" gradientUnits="userSpaceOnUse" id="SVGID_22_">
		<stop id="stop4205" offset="0" style="stop-color:#A0A0A0"></stop>
		<stop id="stop4207" offset="0.0769" style="stop-color:#656767"></stop>
		<stop id="stop4209" offset="1" style="stop-color:#717375"></stop>
	</linearGradient>
	
	
	
	
	
	
	
		<linearGradient gradientTransform="matrix(1,0,0,-1,192.3999,143.0996)" y2="78.209" x2="-172.3853" y1="78.209" x1="-172.3853" gradientUnits="userSpaceOnUse" id="SVGID_23_">
		<stop id="stop4224" offset="0" style="stop-color:#FFFFFF"></stop>
		<stop id="stop4226" offset="0.078" style="stop-color:#F4F4F4"></stop>
		<stop id="stop4228" offset="0.3807" style="stop-color:#CECECE"></stop>
		<stop id="stop4230" offset="0.5396" style="stop-color:#BFBFBF"></stop>
		<stop id="stop4232" offset="0.8357" style="stop-color:#7C7C7C"></stop>
		<stop id="stop4234" offset="0.8996" style="stop-color:#A8A8A8"></stop>
		<stop id="stop4236" offset="0.9093" style="stop-color:#9A9A9A"></stop>
		<stop id="stop4238" offset="0.9327" style="stop-color:#7D7D7D"></stop>
		<stop id="stop4240" offset="0.9558" style="stop-color:#686868"></stop>
		<stop id="stop4242" offset="0.9785" style="stop-color:#5B5B5B"></stop>
		<stop id="stop4244" offset="1" style="stop-color:#575757"></stop>
	</linearGradient>
	
	
		<linearGradient gradientTransform="matrix(1,0,0,-1,192.3999,143.0996)" y2="90.476799" x2="-67.153198" y1="78.449203" x1="-175.7173" gradientUnits="userSpaceOnUse" id="SVGID_24_">
		<stop id="stop4249" offset="0" style="stop-color:#FFFFFF"></stop>
		<stop id="stop4251" offset="0.078" style="stop-color:#F4F4F4"></stop>
		<stop id="stop4253" offset="0.3807" style="stop-color:#CECECE"></stop>
		<stop id="stop4255" offset="0.5396" style="stop-color:#BFBFBF"></stop>
		<stop id="stop4257" offset="0.8357" style="stop-color:#7C7C7C"></stop>
		<stop id="stop4259" offset="0.8996" style="stop-color:#A8A8A8"></stop>
		<stop id="stop4261" offset="0.9093" style="stop-color:#9A9A9A"></stop>
		<stop id="stop4263" offset="0.9327" style="stop-color:#7D7D7D"></stop>
		<stop id="stop4265" offset="0.9558" style="stop-color:#686868"></stop>
		<stop id="stop4267" offset="0.9785" style="stop-color:#5B5B5B"></stop>
		<stop id="stop4269" offset="1" style="stop-color:#575757"></stop>
	</linearGradient>
	
	
		<linearGradient gradientTransform="matrix(1,0,0,-1,192.3999,143.0996)" y2="92.223099" x2="-52.131699" y1="78.4795" x1="-176.1851" gradientUnits="userSpaceOnUse" id="SVGID_25_">
		<stop id="stop4274" offset="0" style="stop-color:#FFFFFF"></stop>
		<stop id="stop4276" offset="0.078" style="stop-color:#F4F4F4"></stop>
		<stop id="stop4278" offset="0.3807" style="stop-color:#CECECE"></stop>
		<stop id="stop4280" offset="0.5396" style="stop-color:#BFBFBF"></stop>
		<stop id="stop4282" offset="0.8357" style="stop-color:#7C7C7C"></stop>
		<stop id="stop4284" offset="0.8996" style="stop-color:#A8A8A8"></stop>
		<stop id="stop4286" offset="0.9093" style="stop-color:#9A9A9A"></stop>
		<stop id="stop4288" offset="0.9327" style="stop-color:#7D7D7D"></stop>
		<stop id="stop4290" offset="0.9558" style="stop-color:#686868"></stop>
		<stop id="stop4292" offset="0.9785" style="stop-color:#5B5B5B"></stop>
		<stop id="stop4294" offset="1" style="stop-color:#575757"></stop>
	</linearGradient>
	
	<linearGradient y2="51.952599" x2="117.1948" y1="71.326698" x1="21.2129" gradientUnits="userSpaceOnUse" id="SVGID_26_">
		<stop id="stop4299" offset="0" style="stop-color:#EDEDEE"></stop>
		<stop id="stop4301" offset="0.4176" style="stop-color:#FFFFFF"></stop>
		<stop id="stop4303" offset="0.6264" style="stop-color:#F8F9F9"></stop>
		<stop id="stop4305" offset="1" style="stop-color:#BFC0C2"></stop>
	</linearGradient>
	
	
	
	
	<linearGradient y2="30.732401" x2="27.9561" y1="30.732401" x1="23.471201" gradientUnits="userSpaceOnUse" id="SVGID_27_">
		<stop id="stop4316" offset="0" style="stop-color:#E2E3E4"></stop>
		<stop id="stop4318" offset="0.5055" style="stop-color:#FFFFFF"></stop>
	</linearGradient>
	
	
	
	
	
	
	
	
	
	
	
	
	
	
	
	
	
	
	
	
	
	
	
	
	
	
	
	
	
	
	
	
	
	
	
	
	
	
	
	
	
	
	
	
	
	
	
	
	
	
	
	
	
	
	
	
	
	
	
	
	
	
	
	
	
	
	
	
	
	
	
	
	
	
	
	
	
	
	
	
	
	
	
	
	
	
	
	
	
	
	
	
	
	
	
	
	
	
	
	
	
	
	
	
	
	
	
	
	
	
	
	
	
	
	
	
	
	
	
	
	
	
	
	
	
	
	
	
	
	
	
	
	
	
	
	
	
	
	
	
	
	
	
	
	
	
	
	
	
	
	
	
	
	
	
	
	
	
	
	
	
	
	
	
	
	
	
	
	
	
	
	
	
	
	
	
	
	
	<linearGradient y2="29.204" x2="111.5455" y1="49.7188" x1="22.5742" gradientUnits="userSpaceOnUse" id="SVGID_34_">
		<stop id="stop4743" offset="0" style="stop-color:#FFFFFF"></stop>
		<stop id="stop4745" offset="0.6538" style="stop-color:#FFFFFF"></stop>
		<stop id="stop4747" offset="1" style="stop-color:#CBCCCE"></stop>
	</linearGradient>
	
	
	
	
	
	
	
	
		<linearGradient gradientTransform="matrix(1,0,0,-1,192.3999,143.0996)" y2="107.0898" x2="-126.4229" y1="107.0898" x1="-158.8101" gradientUnits="userSpaceOnUse" id="SVGID_35_">
		<stop id="stop4770" offset="0" style="stop-color:#696969"></stop>
		<stop id="stop4772" offset="0.3702" style="stop-color:#2E2E2E"></stop>
		<stop id="stop4774" offset="0.4554" style="stop-color:#424242"></stop>
		<stop id="stop4776" offset="0.6014" style="stop-color:#303030"></stop>
		<stop id="stop4778" offset="0.6947" style="stop-color:#4A4A4A"></stop>
		<stop id="stop4780" offset="1" style="stop-color:#666666"></stop>
	</linearGradient>
	
	
		<linearGradient gradientTransform="matrix(1,0,0,-1,192.3999,143.0996)" y2="107.8965" x2="-126.5454" y1="107.8965" x1="-158.4185" gradientUnits="userSpaceOnUse" id="SVGID_36_">
		<stop id="stop4785" offset="0" style="stop-color:#525252"></stop>
		<stop id="stop4787" offset="0.1856" style="stop-color:#333333"></stop>
		<stop id="stop4789" offset="0.354" style="stop-color:#AEAEAE"></stop>
		<stop id="stop4791" offset="0.4199" style="stop-color:#ADADAD"></stop>
		<stop id="stop4793" offset="0.4276" style="stop-color:#9D9D9D"></stop>
		<stop id="stop4795" offset="0.4433" style="stop-color:#818181"></stop>
		<stop id="stop4797" offset="0.4611" style="stop-color:#6A6A6A"></stop>
		<stop id="stop4799" offset="0.4814" style="stop-color:#585858"></stop>
		<stop id="stop4801" offset="0.506" style="stop-color:#4C4C4C"></stop>
		<stop id="stop4803" offset="0.539" style="stop-color:#444444"></stop>
		<stop id="stop4805" offset="0.6166" style="stop-color:#424242"></stop>
		<stop id="stop4807" offset="0.6684" style="stop-color:#454545"></stop>
		<stop id="stop4809" offset="1" style="stop-color:#BDBDBD"></stop>
	</linearGradient>
	
	
		<linearGradient gradientTransform="matrix(1,0,0,-1,192.3999,143.0996)" y2="104.4332" x2="-154.15421" y1="97.627899" x1="-153.1255" gradientUnits="userSpaceOnUse" id="SVGID_37_">
		<stop id="stop4814" offset="0" style="stop-color:#969696"></stop>
		<stop id="stop4816" offset="1" style="stop-color:#000000"></stop>
	</linearGradient>
	
	
	
	<linearGradient y2="38.790001" x2="39.487301" y1="46.373001" x1="38.737301" gradientUnits="userSpaceOnUse" id="SVGID_38_">
		<stop id="stop4825" offset="0" style="stop-color:#333333"></stop>
		<stop id="stop4827" offset="0.431" style="stop-color:#000000"></stop>
		<stop id="stop4829" offset="1" style="stop-color:#2E2E2E"></stop>
	</linearGradient>
	
	
	
	
	
		<radialGradient gradientUnits="userSpaceOnUse" gradientTransform="matrix(1,0,0,-1,192.3999,143.0996)" r="72.751701" cy="106.5996" cx="-138.2334" id="SVGID_39_">
		<stop id="stop4840" offset="0" style="stop-color:#000000;stop-opacity:0"></stop>
		<stop id="stop4842" offset="0.80220002" style="stop-color:#000000;stop-opacity:0.08"></stop>
		<stop id="stop4844" offset="1" style="stop-color:#000000;stop-opacity:0.3882353"></stop>
	</radialGradient>
	
<radialGradient inkscape:collect="always" xlink:href="#SVGID_39_" id="radialGradient5007" gradientUnits="userSpaceOnUse" gradientTransform="matrix(1,0,0,-1,192.3999,143.0996)" cx="-138.2334" cy="106.5996" r="72.751701"></radialGradient><linearGradient inkscape:collect="always" xlink:href="#SVGID_38_" id="linearGradient5013" gradientUnits="userSpaceOnUse" x1="38.737301" y1="46.373001" x2="39.487301" y2="38.790001"></linearGradient><linearGradient inkscape:collect="always" xlink:href="#SVGID_37_" id="linearGradient5018" gradientUnits="userSpaceOnUse" gradientTransform="matrix(1,0,0,-1,192.3999,143.0996)" x1="-153.1255" y1="97.627899" x2="-154.15421" y2="104.4332"></linearGradient><linearGradient inkscape:collect="always" xlink:href="#SVGID_36_" id="linearGradient5021" gradientUnits="userSpaceOnUse" gradientTransform="matrix(1,0,0,-1,192.3999,143.0996)" x1="-158.4185" y1="107.8965" x2="-126.5454" y2="107.8965"></linearGradient><linearGradient inkscape:collect="always" xlink:href="#SVGID_35_" id="linearGradient5024" gradientUnits="userSpaceOnUse" gradientTransform="matrix(1,0,0,-1,192.3999,143.0996)" x1="-158.8101" y1="107.0898" x2="-126.4229" y2="107.0898"></linearGradient><linearGradient inkscape:collect="always" xlink:href="#SVGID_34_" id="linearGradient5036" gradientUnits="userSpaceOnUse" x1="22.5742" y1="49.7188" x2="111.5455" y2="29.204"></linearGradient><linearGradient inkscape:collect="always" xlink:href="#SVGID_27_" id="linearGradient5252" gradientUnits="userSpaceOnUse" x1="23.471201" y1="30.732401" x2="27.9561" y2="30.732401"></linearGradient><linearGradient inkscape:collect="always" xlink:href="#SVGID_26_" id="linearGradient5258" gradientUnits="userSpaceOnUse" x1="21.2129" y1="71.326698" x2="117.1948" y2="51.952599"></linearGradient><linearGradient inkscape:collect="always" xlink:href="#SVGID_25_" id="linearGradient5261" gradientUnits="userSpaceOnUse" gradientTransform="matrix(1,0,0,-1,192.3999,143.0996)" x1="-176.1851" y1="78.4795" x2="-52.131699" y2="92.223099"></linearGradient><linearGradient inkscape:collect="always" xlink:href="#SVGID_24_" id="linearGradient5264" gradientUnits="userSpaceOnUse" gradientTransform="matrix(1,0,0,-1,192.3999,143.0996)" x1="-175.7173" y1="78.449203" x2="-67.153198" y2="90.476799"></linearGradient><linearGradient inkscape:collect="always" xlink:href="#SVGID_23_" id="linearGradient5267" gradientUnits="userSpaceOnUse" gradientTransform="matrix(1,0,0,-1,192.3999,143.0996)" x1="-172.3853" y1="78.209" x2="-172.3853" y2="78.209"></linearGradient><linearGradient inkscape:collect="always" xlink:href="#SVGID_22_" id="linearGradient5275" gradientUnits="userSpaceOnUse" gradientTransform="matrix(1,0,0,-1,192.3999,143.0996)" x1="-175.14211" y1="104.0801" x2="-83.541" y2="104.0801"></linearGradient><linearGradient inkscape:collect="always" xlink:href="#SVGID_21_" id="linearGradient5278" gradientUnits="userSpaceOnUse" gradientTransform="matrix(1,0,0,-1,192.3999,143.0996)" x1="-175.4424" y1="83.6045" x2="-75.6362" y2="83.6045"></linearGradient><linearGradient inkscape:collect="always" xlink:href="#SVGID_18_" id="linearGradient5317" gradientUnits="userSpaceOnUse" gradientTransform="matrix(1,0,0,-1,192.3999,143.0996)" x1="-115.3716" y1="119.1758" x2="-134.7878" y2="24.695299"></linearGradient><linearGradient inkscape:collect="always" xlink:href="#SVGID_17_" id="linearGradient5320" gradientUnits="userSpaceOnUse" gradientTransform="matrix(1,0,0,-1,192.3999,143.0996)" x1="-118.4946" y1="124.0039" x2="-138.85201" y2="24.9438"></linearGradient><linearGradient inkscape:collect="always" xlink:href="#SVGID_16_" id="linearGradient5323" gradientUnits="userSpaceOnUse" gradientTransform="matrix(1,0,0,-1,192.3999,143.0996)" x1="-127.4014" y1="121.9365" x2="-146.8837" y2="27.1346"></linearGradient><linearGradient inkscape:collect="always" xlink:href="#SVGID_15_" id="linearGradient5326" gradientUnits="userSpaceOnUse" gradientTransform="matrix(1,0,0,-1,192.3999,143.0996)" x1="-135.58591" y1="123.3525" x2="-155.006" y2="28.8524"></linearGradient><linearGradient inkscape:collect="always" xlink:href="#SVGID_14_" id="linearGradient5329" gradientUnits="userSpaceOnUse" gradientTransform="matrix(1,0,0,-1,192.3999,143.0996)" x1="-121.1382" y1="120.3223" x2="-140.54491" y2="25.888"></linearGradient><linearGradient inkscape:collect="always" xlink:href="#SVGID_13_" id="linearGradient5334" gradientUnits="userSpaceOnUse" gradientTransform="matrix(1,0,0,-1,192.3999,143.0996)" x1="-130.1348" y1="35.625" x2="-130.14281" y2="35.585701"></linearGradient><linearGradient inkscape:collect="always" xlink:href="#SVGID_12_" id="linearGradient5337" gradientUnits="userSpaceOnUse" gradientTransform="matrix(1,0,0,-1,192.3999,143.0996)" x1="-152.6201" y1="126.8398" x2="-171.9462" y2="32.797901"></linearGradient><linearGradient inkscape:collect="always" xlink:href="#SVGID_11_" id="linearGradient5340" gradientUnits="userSpaceOnUse" x1="32.519001" y1="33.077099" x2="37.2481" y2="92.496101"></linearGradient><linearGradient inkscape:collect="always" xlink:href="#SVGID_10_" id="linearGradient5343" gradientUnits="userSpaceOnUse" gradientTransform="matrix(1,0,0,-1,192.3999,143.0996)" x1="-115.3369" y1="119.6328" x2="-134.85719" y2="24.6462"></linearGradient><linearGradient inkscape:collect="always" xlink:href="#SVGID_9_" id="linearGradient5354" gradientUnits="userSpaceOnUse" x1="54.653301" y1="25.2764" x2="79.683601" y2="106.3903"></linearGradient><linearGradient inkscape:collect="always" xlink:href="#SVGID_8_" id="linearGradient5357" gradientUnits="userSpaceOnUse" gradientTransform="matrix(1,0,0,-1,192.3999,143.0996)" x1="-117.166" y1="122.1328" x2="-87.569702" y2="31.998501"></linearGradient><linearGradient inkscape:collect="always" xlink:href="#SVGID_7_" id="linearGradient5360" gradientUnits="userSpaceOnUse" x1="70.421898" y1="26.876499" x2="119.5471" y2="87.626701"></linearGradient><linearGradient inkscape:collect="always" xlink:href="#SVGID_6_" id="linearGradient5363" gradientUnits="userSpaceOnUse" gradientTransform="matrix(1,0,0,-1,192.3999,143.0996)" x1="-123.5898" y1="119.8076" x2="-94.069099" y2="29.9035"></linearGradient><linearGradient inkscape:collect="always" xlink:href="#SVGID_5_" id="linearGradient5379" gradientUnits="userSpaceOnUse" x1="54.715801" y1="65.136703" x2="83.798798" y2="65.136703"></linearGradient><linearGradient inkscape:collect="always" xlink:href="#SVGID_2_" id="linearGradient5391" gradientUnits="userSpaceOnUse" x1="66.232399" y1="24.481001" x2="112.7331" y2="97.232101"></linearGradient><radialGradient inkscape:collect="always" xlink:href="#SVGID_1_" id="radialGradient5395" gradientUnits="userSpaceOnUse" gradientTransform="matrix(1,0,0,-1,192.3999,143.0996)" cx="-145.4702" cy="87.823196" r="68.686401"></radialGradient>
	
	
<inkscape:perspective id="perspective10537" inkscape:persp3d-origin="0.5 : 0.33333333 : 1" inkscape:vp_z="1 : 0.5 : 1" inkscape:vp_y="0 : 1000 : 0" inkscape:vp_x="0 : 0.5 : 1" sodipodi:type="inkscape:persp3d"></inkscape:perspective><inkscape:perspective id="perspective13111" inkscape:persp3d-origin="0.5 : 0.33333333 : 1" inkscape:vp_z="1 : 0.5 : 1" inkscape:vp_y="0 : 1000 : 0" inkscape:vp_x="0 : 0.5 : 1" sodipodi:type="inkscape:persp3d"></inkscape:perspective><inkscape:perspective id="perspective36724" inkscape:persp3d-origin="0.5 : 0.33333333 : 1" inkscape:vp_z="1 : 0.5 : 1" inkscape:vp_y="0 : 1000 : 0" inkscape:vp_x="0 : 0.5 : 1" sodipodi:type="inkscape:persp3d"></inkscape:perspective><inkscape:perspective id="perspective38742" inkscape:persp3d-origin="0.5 : 0.33333333 : 1" inkscape:vp_z="1 : 0.5 : 1" inkscape:vp_y="0 : 1000 : 0" inkscape:vp_x="0 : 0.5 : 1" sodipodi:type="inkscape:persp3d"></inkscape:perspective><inkscape:perspective id="perspective40892" inkscape:persp3d-origin="0.5 : 0.33333333 : 1" inkscape:vp_z="1 : 0.5 : 1" inkscape:vp_y="0 : 1000 : 0" inkscape:vp_x="0 : 0.5 : 1" sodipodi:type="inkscape:persp3d"></inkscape:perspective><inkscape:perspective id="perspective42881" inkscape:persp3d-origin="0.5 : 0.33333333 : 1" inkscape:vp_z="1 : 0.5 : 1" inkscape:vp_y="0 : 1000 : 0" inkscape:vp_x="0 : 0.5 : 1" sodipodi:type="inkscape:persp3d"></inkscape:perspective><inkscape:perspective id="perspective42938" inkscape:persp3d-origin="0.5 : 0.33333333 : 1" inkscape:vp_z="1 : 0.5 : 1" inkscape:vp_y="0 : 1000 : 0" inkscape:vp_x="0 : 0.5 : 1" sodipodi:type="inkscape:persp3d"></inkscape:perspective><inkscape:perspective id="perspective43620" inkscape:persp3d-origin="0.5 : 0.33333333 : 1" inkscape:vp_z="1 : 0.5 : 1" inkscape:vp_y="0 : 1000 : 0" inkscape:vp_x="0 : 0.5 : 1" sodipodi:type="inkscape:persp3d"></inkscape:perspective></defs><sodipodi:namedview pagecolor="#ffffff" bordercolor="#666666" borderopacity="1" objecttolerance="10" gridtolerance="10" guidetolerance="10" inkscape:pageopacity="0" inkscape:pageshadow="2" inkscape:window-width="1198" inkscape:window-height="657" id="namedview4848" showgrid="false" inkscape:zoom="2.8284271" inkscape:cx="17.505357" inkscape:cy="-4.6195347" inkscape:window-x="87" inkscape:window-y="76" inkscape:window-maximized="0" inkscape:current-layer="svg3857" showguides="true" inkscape:guide-bbox="true"><sodipodi:guide orientation="0,1" position="0,140" id="globe_top"></sodipodi:guide><sodipodi:guide orientation="1,0" position="16,0" id="globe_left"></sodipodi:guide><sodipodi:guide orientation="1,0" position="119,0" id="globe_right"></sodipodi:guide><sodipodi:guide id="globe_bottom" position="0,47" orientation="0,1"></sodipodi:guide><sodipodi:guide orientation="0,1" position="8,40" id="wordmark_top"></sodipodi:guide><sodipodi:guide orientation="0,1" position="8,22.5" id="wordmark_bottom"></sodipodi:guide><sodipodi:guide orientation="0,1" position="0,17" id="subtitle_top"></sodipodi:guide><sodipodi:guide orientation="0,1" position="0,8" id="subtitle_bottom"></sodipodi:guide><sodipodi:guide orientation="1,0" position="8,40" id="wordmark_left"></sodipodi:guide><sodipodi:guide orientation="1,0" position="127,40" id="wordmark_right"></sodipodi:guide></sodipodi:namedview><g transform="translate(1.4500192e-6,-4.13045)" id="descriptor_1_" style="font-size:13px;font-style:normal;font-weight:normal;fill:#000000;fill-opacity:1;stroke:none;font-family:Linux Libertine O"><path d="m 12.228227,143.5901 c -0.02356,-0.21097 0.02356,-0.35776 0.141374,-0.44037 0.117808,-0.0826 0.447678,-0.12214 0.989612,-0.11863 0.388366,-0.0114 0.75886,0.10888 1.111485,0.36075 0.352616,0.25188 0.541113,0.70362 0.565493,1.35523 -0.0095,0.54573 -0.182273,0.93301 -0.518368,1.16186 -0.336104,0.22886 -0.77864,0.3399 -1.327608,0.33312 l -0.961988,0 z m 0,3.09396 0.896989,0 c 0.884255,0.0173 1.527204,0.23291 1.92885,0.64674 0.401635,0.41383 0.59934,0.9219 0.593117,1.52423 0.02599,0.48776 -0.117004,0.89672 -0.428994,1.22686 -0.312001,0.33014 -0.948992,0.50184 -1.910976,0.51512 -0.443081,-0.009 -0.73666,-0.10102 -0.880738,-0.27463 -0.144084,-0.1736 -0.210167,-0.37239 -0.198248,-0.59636 z m -0.558992,-4.06895 c -0.313623,-2.6e-4 -0.593119,-0.003 -0.83849,-0.008 -0.245373,-0.005 -0.524869,-0.0111 -0.8384889,-0.0179 -0.039,0.0471 -0.0585,0.11863 -0.058499,0.2145 -10e-8,0.0959 0.0195,0.16738 0.058499,0.21449 0.4452439,-0.001 0.7474899,0.0661 0.9067379,0.2015 0.159247,0.13542 0.233996,0.46258 0.224248,0.98149 l 0,5.21293 c 0.0097,0.51891 -0.065,0.84607 -0.224248,0.98149 -0.159249,0.13541 -0.461495,0.20258 -0.9067379,0.2015 -0.039,0.0471 -0.0585,0.11862 -0.058499,0.21449 -10e-8,0.0959 0.0195,0.16738 0.058499,0.2145 0.3076619,-0.007 0.5860749,-0.0127 0.8352389,-0.0179 0.249162,-0.005 0.534075,-0.008 0.854739,-0.008 0.251328,0.001 0.492908,0.005 0.724741,0.013 0.231828,0.008 0.622906,0.0119 1.173235,0.013 1.268291,-0.0309 2.137654,-0.29412 2.608091,-0.78974 0.470424,-0.49562 0.693046,-1.03836 0.667867,-1.62823 -0.01274,-0.62101 -0.205026,-1.11771 -0.576868,-1.49011 -0.371855,-0.37238 -0.84689,-0.63834 -1.425106,-0.79786 l 0,-0.026 c 0.336392,-0.17129 0.623634,-0.40816 0.861726,-0.7106 0.23808,-0.30243 0.362499,-0.63322 0.373258,-0.99238 0.03466,-0.46446 -0.128922,-0.907 -0.490744,-1.32761 -0.361834,-0.42059 -1.129907,-0.64537 -2.30422,-0.67436 -0.231834,10e-4 -0.489664,0.005 -0.773491,0.013 -0.283832,0.008 -0.567661,0.0119 -0.851488,0.013 z" id="path4667"></path><path d="m 20.209797,142.27711 -0.982788,1.54698 c -0.05224,0.0789 -0.09011,0.14214 -0.113586,0.1898 -0.02348,0.0477 -0.03502,0.10574 -0.03461,0.1742 0.0019,0.0469 0.02085,0.0864 0.05687,0.11862 0.03602,0.0322 0.07773,0.049 0.125124,0.0504 0.04387,0.002 0.09587,-0.0149 0.155998,-0.0504 0.06012,-0.0355 0.138121,-0.10101 0.233997,-0.19662 l 1.494981,-1.41698 -0.039,-0.143 c -0.155406,-0.13757 -0.301546,-0.22316 -0.43842,-0.25675 -0.13688,-0.0336 -0.229071,-0.0477 -0.276571,-0.0422 -0.03359,2.8e-4 -0.06717,0.003 -0.100748,0.008 -0.03359,0.005 -0.06067,0.0111 -0.08125,0.0179 z m 0.636991,5.69393 0,1.72898 c -0.0011,0.0831 -0.01842,0.15085 -0.052,0.20312 -0.03359,0.0523 -0.07692,0.0972 -0.129998,0.13487 -0.172793,0.14273 -0.360208,0.27002 -0.562243,0.38187 -0.202042,0.11186 -0.395956,0.1709 -0.581742,0.17713 -0.323374,-0.0133 -0.56062,-0.11673 -0.711741,-0.31038 -0.151125,-0.19364 -0.225874,-0.39784 -0.224247,-0.61261 -0.0085,-0.29959 0.0774,-0.5792 0.257721,-0.83882 0.180317,-0.25961 0.506071,-0.45667 0.977263,-0.59116 z m 0,2.40497 c 0.03244,0.15085 0.122249,0.31064 0.269422,0.47937 0.147165,0.16872 0.39102,0.26026 0.731566,0.27462 0.324719,-0.0203 0.588507,-0.10969 0.791364,-0.26812 0.202846,-0.15844 0.307386,-0.26406 0.313621,-0.31687 -0.0038,-0.049 -0.02546,-0.0972 -0.065,-0.14463 -0.03955,-0.0474 -0.07421,-0.0729 -0.103998,-0.0764 -0.03272,0.009 -0.07519,0.0433 -0.127399,0.104 -0.05222,0.0607 -0.144087,0.0953 -0.275596,0.104 -0.243481,-0.009 -0.393521,-0.11809 -0.45012,-0.32825 -0.05661,-0.21016 -0.0799,-0.46908 -0.06987,-0.77674 l 0,-1.93697 c -0.02248,-0.89916 -0.231022,-1.49606 -0.625617,-1.79073 -0.394603,-0.29466 -0.840388,-0.43007 -1.337357,-0.40625 -0.555746,0.0163 -1.046489,0.16901 -1.472232,0.45825 -0.425745,0.28925 -0.649992,0.61749 -0.672741,0.98473 2.71e-4,0.15547 0.03873,0.2703 0.115374,0.3445 0.07664,0.0742 0.189851,0.11104 0.33962,0.1105 0.188767,-0.007 0.331224,-0.0577 0.42737,-0.15112 0.09614,-0.0934 0.14435,-0.18606 0.144623,-0.27788 -2e-6,-0.0463 -0.0033,-0.0902 -0.0098,-0.13162 -0.0065,-0.0414 -0.01625,-0.0756 -0.02925,-0.10237 -0.0068,-0.019 -0.01273,-0.0493 -0.01788,-0.091 -0.0051,-0.0417 -0.0079,-0.098 -0.0081,-0.169 0.01408,-0.19905 0.132163,-0.34043 0.354245,-0.42412 0.222079,-0.0837 0.463659,-0.1243 0.724741,-0.12187 0.237244,-0.0214 0.467991,0.0767 0.692241,0.29412 0.224243,0.21748 0.344492,0.68277 0.360745,1.39586 -8.16e-4,0.0455 -0.0089,0.0813 -0.02437,0.10724 -0.01544,0.026 -0.03332,0.0423 -0.05362,0.0487 l -1.117985,0.273 c -0.635369,0.15979 -1.148862,0.40246 -1.54048,0.72799 -0.391621,0.32554 -0.593118,0.7112 -0.604493,1.15699 0.01138,0.5078 0.170623,0.87017 0.477745,1.08711 0.307119,0.21693 0.693864,0.32256 1.160234,0.31687 0.284911,0.005 0.524324,-0.0309 0.718241,-0.10725 0.193911,-0.0764 0.426825,-0.22262 0.698741,-0.43874 l 0.259997,-0.208 z" id="path4669"></path><path d="m 27.803177,149.81702 c -0.02682,-0.058 -0.06419,-0.10129 -0.112123,-0.13 -0.04794,-0.0287 -0.101567,-0.046 -0.160873,-0.052 -0.22344,0.28599 -0.468811,0.50049 -0.736116,0.64349 -0.267313,0.143 -0.541934,0.2145 -0.823864,0.2145 -0.487768,-0.008 -0.896721,-0.2321 -1.22686,-0.67112 -0.330143,-0.43901 -0.501849,-1.04296 -0.515118,-1.81185 0.0081,-0.72095 0.147872,-1.28102 0.419245,-1.68023 0.271369,-0.3992 0.625614,-0.60178 1.062736,-0.60774 0.370763,0.009 0.613968,0.10427 0.729616,0.28437 0.11564,0.18011 0.180098,0.38864 0.193372,0.62562 0.02115,0.17306 0.07439,0.29493 0.159736,0.36562 0.08533,0.0707 0.196753,0.10481 0.334258,0.10237 0.145972,10e-4 0.286262,-0.0436 0.420869,-0.13487 0.134598,-0.0913 0.206638,-0.23698 0.216123,-0.43712 -0.0049,-0.36426 -0.180378,-0.65947 -0.526494,-0.88562 -0.346125,-0.22613 -0.833618,-0.34259 -1.462481,-0.34937 -0.674098,0.01 -1.279131,0.27951 -1.815102,0.80924 -0.535973,0.52975 -0.81926,1.26099 -0.849863,2.19372 0.0049,0.85177 0.229121,1.53372 0.672741,2.04585 0.443618,0.51214 1.077359,0.77485 1.901226,0.78812 0.388908,0.0119 0.758319,-0.0737 1.108235,-0.25675 0.349908,-0.18308 0.68682,-0.53516 1.010737,-1.05623 z" id="path4671"></path><path d="m 29.959982,147.28335 c 0.0027,-0.13574 0.02654,-0.2471 0.0715,-0.3341 0.04496,-0.087 0.09479,-0.15805 0.149498,-0.2132 0.25019,-0.24409 0.512245,-0.43253 0.786165,-0.56533 0.273914,-0.13278 0.540519,-0.2 0.799815,-0.20166 0.135302,9e-4 0.264434,0.0417 0.387395,0.12237 0.122952,0.0807 0.223484,0.19589 0.301596,0.34563 0.06337,0.12995 0.105619,0.2802 0.126748,0.45077 0.02112,0.17057 0.03087,0.35398 0.02925,0.55022 l 0,1.97597 c 0.0087,0.5116 -0.04117,0.83389 -0.149498,0.96686 -0.108337,0.13298 -0.327167,0.20502 -0.656492,0.21613 -0.0325,0.0471 -0.04875,0.11862 -0.04875,0.21449 -4e-6,0.0959 0.01625,0.16738 0.04875,0.2145 0.261618,-0.007 0.485864,-0.0127 0.672742,-0.0179 0.186867,-0.005 0.404614,-0.008 0.653241,-0.008 0.255658,2.7e-4 0.482071,0.003 0.679241,0.008 0.197158,0.005 0.430072,0.0111 0.698742,0.0179 0.03249,-0.0471 0.04874,-0.11862 0.04875,-0.2145 -7e-6,-0.0959 -0.01626,-0.16737 -0.04875,-0.21449 -0.354794,-0.0111 -0.590957,-0.0832 -0.708492,-0.21613 -0.117546,-0.13297 -0.171712,-0.45526 -0.162497,-0.96686 l 0,-1.93697 c 0.0043,-0.36061 -0.01634,-0.69075 -0.06191,-0.99043 -0.04559,-0.29967 -0.141948,-0.55019 -0.289084,-0.75155 -0.112075,-0.14354 -0.262331,-0.25295 -0.450769,-0.32825 -0.188448,-0.0753 -0.397854,-0.1132 -0.628217,-0.11375 -0.318527,-0.0114 -0.654518,0.0536 -1.007975,0.195 -0.353463,0.14138 -0.728128,0.42738 -1.123997,0.85799 -0.02465,0.0324 -0.05141,0.0612 -0.08028,0.0863 -0.02887,0.0251 -0.04458,-0.004 -0.04712,-0.0863 l 0.0104,-2.92496 c 0.0033,-0.42655 0.01229,-0.75967 0.02698,-0.99936 0.01468,-0.23968 0.02302,-0.36155 0.02502,-0.36562 0.0022,-0.0888 -0.05417,-0.13216 -0.168997,-0.13 -0.185521,0.0691 -0.464475,0.13894 -0.836865,0.20962 -0.372392,0.0707 -0.700096,0.11782 -0.983112,0.14137 -0.013,0.0569 -0.013,0.12513 0,0.20475 0.013,0.0796 0.039,0.14138 0.078,0.18525 0.330412,-0.007 0.553575,0.0393 0.669491,0.13812 0.115914,0.0989 0.17008,0.40815 0.162498,0.92786 l 0,5.68093 c 0.0093,0.5181 -0.04767,0.84364 -0.170948,0.97661 -0.123282,0.13298 -0.368762,0.20177 -0.73644,0.20638 -0.039,0.0471 -0.0585,0.11862 -0.0585,0.21449 0,0.0959 0.0195,0.16738 0.0585,0.2145 0.258858,-0.007 0.49383,-0.0127 0.704916,-0.0179 0.211083,-0.005 0.451905,-0.008 0.722466,-0.008 0.241117,2.7e-4 0.450144,0.003 0.627079,0.008 0.17693,0.005 0.396032,0.0111 0.657304,0.0179 0.039,-0.0471 0.0585,-0.11862 0.0585,-0.2145 -3e-6,-0.0959 -0.0195,-0.16737 -0.0585,-0.21449 -0.321315,-0.005 -0.533429,-0.0734 -0.636342,-0.20638 -0.102918,-0.13297 -0.149934,-0.45851 -0.141048,-0.97661 z" id="path4673"></path><path d="m 38.363245,149.41402 c 0.0092,0.5181 -0.04496,0.84364 -0.162498,0.97661 -0.117541,0.13298 -0.353705,0.20177 -0.708491,0.20638 -0.039,0.0471 -0.0585,0.11862 -0.0585,0.21449 0,0.0959 0.0195,0.16738 0.0585,0.2145 0.262704,-0.007 0.494534,-0.0127 0.695491,-0.0179 0.200955,-0.005 0.432785,-0.008 0.695491,-0.008 0.213412,2.7e-4 0.397576,0.003 0.552493,0.008 0.154912,0.005 0.365076,0.0111 0.630492,0.0179 0.039,-0.0471 0.0585,-0.11862 0.0585,-0.2145 -3e-6,-0.0959 -0.0195,-0.16737 -0.0585,-0.21449 -0.261353,-0.005 -0.440643,-0.0734 -0.537868,-0.20638 -0.09723,-0.13297 -0.143272,-0.45851 -0.138123,-0.97661 l 0,-1.16998 c 0.150389,-0.001 0.280875,0.0317 0.391457,0.0985 0.110577,0.0668 0.227088,0.18996 0.349533,0.36952 l 0.948988,1.33898 c 0.126203,0.18363 0.208535,0.32662 0.246997,0.429 0.03845,0.10237 0.05579,0.19337 0.052,0.27299 l 0,0.208 c -0.0022,0.0412 0.01516,0.0628 0.052,0.065 0.126745,-0.007 0.259993,-0.0127 0.399745,-0.0179 0.139744,-0.005 0.305491,-0.008 0.497244,-0.008 0.196346,2.7e-4 0.375635,0.003 0.537868,0.008 0.162221,0.005 0.33826,0.0111 0.528118,0.0179 0.03899,-0.0471 0.05849,-0.11862 0.0585,-0.2145 -6e-6,-0.0959 -0.01951,-0.16737 -0.0585,-0.21449 -0.221436,-0.018 -0.425967,-0.0606 -0.613592,-0.12773 -0.187637,-0.0671 -0.355768,-0.20653 -0.504393,-0.41827 l -1.520981,-2.24897 c -0.04117,-0.0542 -0.06284,-0.11483 -0.065,-0.182 -0.0022,-0.0498 0.01516,-0.0932 0.052,-0.12999 l 0.987988,-1.09199 c 0.187869,-0.19681 0.393212,-0.33878 0.616029,-0.42591 0.222807,-0.0871 0.494124,-0.13581 0.813952,-0.14608 0.03899,-0.0471 0.05849,-0.11862 0.0585,-0.2145 -6e-6,-0.0959 -0.01951,-0.16737 -0.0585,-0.2145 -0.228315,0.007 -0.418437,0.0127 -0.570368,0.0179 -0.15194,0.005 -0.338813,0.008 -0.560617,0.008 -0.235898,-2.6e-4 -0.436854,-0.003 -0.602868,-0.008 -0.166022,-0.005 -0.363728,-0.0111 -0.593117,-0.0179 -0.039,0.0471 -0.0585,0.11863 -0.0585,0.2145 -4e-6,0.0959 0.0195,0.16738 0.0585,0.2145 0.362366,0.0362 0.516739,0.13447 0.463119,0.29493 -0.05363,0.16047 -0.130002,0.28316 -0.229122,0.36806 -0.347424,0.38008 -0.66917,0.69826 -0.965238,0.95451 -0.296073,0.25626 -0.53332,0.41259 -0.71174,0.46897 l 0,-4.49144 c 0.0022,-0.42655 0.01083,-0.75967 0.026,-0.99936 0.01516,-0.23968 0.02383,-0.36155 0.026,-0.36562 0.0022,-0.0888 -0.05417,-0.13216 -0.168998,-0.13 -0.18552,0.0691 -0.464475,0.13894 -0.836864,0.20962 -0.372392,0.0707 -0.700096,0.11782 -0.983112,0.14137 -0.013,0.0569 -0.013,0.12513 0,0.20475 0.013,0.0796 0.039,0.14138 0.078,0.18525 0.330411,-0.007 0.553575,0.0393 0.669491,0.13812 0.115914,0.0989 0.17008,0.40815 0.162498,0.92786 z" id="path4675"></path><path d="m 45.337717,147.28335 c 0.0027,-0.13574 0.02654,-0.2471 0.0715,-0.3341 0.04496,-0.087 0.09479,-0.15805 0.149498,-0.2132 0.25019,-0.24409 0.512245,-0.43253 0.786165,-0.56533 0.273914,-0.13278 0.540519,-0.2 0.799815,-0.20166 0.135302,9e-4 0.264434,0.0417 0.387395,0.12237 0.122952,0.0807 0.223484,0.19589 0.301596,0.34563 0.06337,0.12995 0.105619,0.2802 0.126748,0.45077 0.02112,0.17057 0.03087,0.35398 0.02925,0.55022 l 0,1.97597 c 0.0087,0.5116 -0.04117,0.83389 -0.149498,0.96686 -0.108337,0.13298 -0.327167,0.20502 -0.656492,0.21613 -0.0325,0.0471 -0.04875,0.11862 -0.04875,0.21449 -4e-6,0.0959 0.01625,0.16738 0.04875,0.2145 0.261618,-0.007 0.485865,-0.0127 0.672742,-0.0179 0.186868,-0.005 0.404615,-0.008 0.653241,-0.008 0.255658,2.7e-4 0.482071,0.003 0.679241,0.008 0.197158,0.005 0.430072,0.0111 0.698742,0.0179 0.03249,-0.0471 0.04874,-0.11862 0.04875,-0.2145 -7e-6,-0.0959 -0.01626,-0.16737 -0.04875,-0.21449 -0.354794,-0.0111 -0.590957,-0.0832 -0.708491,-0.21613 -0.117547,-0.13297 -0.171712,-0.45526 -0.162498,-0.96686 l 0,-1.93697 c 0.0043,-0.36061 -0.01634,-0.69075 -0.06191,-0.99043 -0.04559,-0.29967 -0.141948,-0.55019 -0.289084,-0.75155 -0.112075,-0.14354 -0.262331,-0.25295 -0.450769,-0.32825 -0.188448,-0.0753 -0.397854,-0.1132 -0.628217,-0.11375 -0.318527,-0.0114 -0.654518,0.0536 -1.007975,0.195 -0.353463,0.14138 -0.728128,0.42738 -1.123997,0.85799 -0.02465,0.0324 -0.05141,0.0612 -0.08027,0.0863 -0.02887,0.0251 -0.04458,-0.004 -0.04713,-0.0863 l 0.0104,-2.92496 c 0.0033,-0.42655 0.01229,-0.75967 0.02698,-0.99936 0.01468,-0.23968 0.02302,-0.36155 0.02502,-0.36562 0.0022,-0.0888 -0.05417,-0.13216 -0.168998,-0.13 -0.185521,0.0691 -0.464475,0.13894 -0.836865,0.20962 -0.372392,0.0707 -0.700095,0.11782 -0.983112,0.14137 -0.013,0.0569 -0.013,0.12513 0,0.20475 0.013,0.0796 0.039,0.14138 0.078,0.18525 0.330412,-0.007 0.553575,0.0393 0.669491,0.13812 0.115914,0.0989 0.17008,0.40815 0.162498,0.92786 l 0,5.68093 c 0.0093,0.5181 -0.04767,0.84364 -0.170947,0.97661 -0.123283,0.13298 -0.368763,0.20177 -0.736441,0.20638 -0.039,0.0471 -0.0585,0.11862 -0.0585,0.21449 0,0.0959 0.0195,0.16738 0.0585,0.2145 0.258859,-0.007 0.49383,-0.0127 0.704916,-0.0179 0.211084,-0.005 0.451905,-0.008 0.722466,-0.008 0.241118,2.7e-4 0.450144,0.003 0.627079,0.008 0.176931,0.005 0.396032,0.0111 0.657304,0.0179 0.039,-0.0471 0.0585,-0.11862 0.0585,-0.2145 -3e-6,-0.0959 -0.0195,-0.16737 -0.0585,-0.21449 -0.321315,-0.005 -0.533429,-0.0734 -0.636342,-0.20638 -0.102918,-0.13297 -0.149933,-0.45851 -0.141048,-0.97661 z" id="path4677"></path><path d="m 50.255986,148.33503 c -8.13e-4,0.69658 0.225059,1.32816 0.677616,1.89473 0.452556,0.56658 1.136671,0.86666 2.052349,0.90024 0.962254,-0.0401 1.663703,-0.36291 2.104348,-0.96849 0.440634,-0.60557 0.657839,-1.2534 0.651616,-1.94347 0.01218,-0.71337 -0.19094,-1.36986 -0.609367,-1.96948 -0.418437,-0.59961 -1.125302,-0.91811 -2.120597,-0.95549 -0.882638,0.0236 -1.561337,0.32419 -2.0361,0.90187 -0.474765,0.57768 -0.71472,1.29105 -0.719865,2.14009 z m 2.612966,-2.61296 c 0.56224,0.002 0.994484,0.24835 1.296734,0.73936 0.302241,0.49102 0.454989,1.21522 0.458244,2.1726 -0.02032,0.83687 -0.17794,1.39586 -0.472869,1.67698 -0.294938,0.28112 -0.605309,0.41112 -0.931113,0.38999 -0.448417,-0.0144 -0.808239,-0.17052 -1.079468,-0.46847 -0.271233,-0.29795 -0.467354,-0.65152 -0.588363,-1.06069 -0.121012,-0.40917 -0.180394,-0.78777 -0.178145,-1.1358 -0.006,-0.59122 0.106705,-1.11825 0.337995,-1.58111 0.231287,-0.46284 0.616948,-0.70713 1.156985,-0.73286 z" id="path4679"></path><path d="m 59.732727,147.97104 0,1.72898 c -0.0011,0.0831 -0.01842,0.15085 -0.052,0.20312 -0.03359,0.0523 -0.07692,0.0972 -0.129998,0.13487 -0.172793,0.14273 -0.360207,0.27002 -0.562243,0.38187 -0.202042,0.11186 -0.395956,0.1709 -0.581742,0.17713 -0.323373,-0.0133 -0.56062,-0.11673 -0.711741,-0.31038 -0.151125,-0.19364 -0.225874,-0.39784 -0.224247,-0.61261 -0.0085,-0.29959 0.0774,-0.5792 0.257721,-0.83882 0.180317,-0.25961 0.506071,-0.45667 0.977263,-0.59116 z m 0,2.40497 c 0.03244,0.15085 0.122248,0.31064 0.269421,0.47937 0.147165,0.16872 0.39102,0.26026 0.731566,0.27462 0.324719,-0.0203 0.588507,-0.10969 0.791364,-0.26812 0.202846,-0.15844 0.307387,-0.26406 0.313622,-0.31687 -0.0038,-0.049 -0.02546,-0.0972 -0.065,-0.14463 -0.03955,-0.0474 -0.07421,-0.0729 -0.103998,-0.0764 -0.03272,0.009 -0.07519,0.0433 -0.127399,0.104 -0.05222,0.0607 -0.144087,0.0953 -0.275596,0.104 -0.243481,-0.009 -0.393521,-0.11809 -0.45012,-0.32825 -0.05661,-0.21016 -0.0799,-0.46908 -0.06987,-0.77674 l 0,-1.93697 c -0.02248,-0.89916 -0.231023,-1.49606 -0.625618,-1.79073 -0.394603,-0.29466 -0.840388,-0.43007 -1.337357,-0.40625 -0.555745,0.0163 -1.046489,0.16901 -1.472232,0.45825 -0.425745,0.28925 -0.649992,0.61749 -0.672741,0.98473 2.71e-4,0.15547 0.03873,0.2703 0.115374,0.3445 0.07664,0.0742 0.189851,0.11104 0.339621,0.1105 0.188767,-0.007 0.331223,-0.0577 0.427369,-0.15112 0.09614,-0.0934 0.144351,-0.18606 0.144623,-0.27788 -1e-6,-0.0463 -0.0033,-0.0902 -0.0098,-0.13162 -0.0065,-0.0414 -0.01625,-0.0756 -0.02925,-0.10237 -0.0068,-0.019 -0.01273,-0.0493 -0.01787,-0.091 -0.0051,-0.0417 -0.0079,-0.098 -0.0081,-0.169 0.01408,-0.19905 0.132163,-0.34043 0.354246,-0.42412 0.222078,-0.0837 0.463658,-0.1243 0.72474,-0.12187 0.237244,-0.0214 0.467991,0.0767 0.692241,0.29412 0.224244,0.21748 0.344492,0.68277 0.360746,1.39586 -8.16e-4,0.0455 -0.0089,0.0813 -0.02437,0.10724 -0.01544,0.026 -0.03332,0.0423 -0.05362,0.0487 l -1.117986,0.273 c -0.635369,0.15979 -1.148862,0.40246 -1.54048,0.72799 -0.391621,0.32554 -0.593118,0.7112 -0.604492,1.15699 0.01137,0.5078 0.170622,0.87017 0.477744,1.08711 0.30712,0.21693 0.693864,0.32256 1.160235,0.31687 0.28491,0.005 0.524323,-0.0309 0.71824,-0.10725 0.193911,-0.0764 0.426825,-0.22262 0.698741,-0.43874 l 0.259997,-0.208 z" id="path4681"></path><path d="m 64.974174,145.42307 c -0.08937,0.004 -0.151124,0.0347 -0.185248,0.091 -0.03413,0.0563 -0.05038,0.11267 -0.04875,0.169 l 0,0.169 c -5.42e-4,0.0317 0.0038,0.0528 0.013,0.0634 0.0092,0.0106 0.02654,0.0154 0.052,0.0146 l 0.76699,0 0,3.91294 c 0.0043,0.45744 0.09641,0.78731 0.276247,0.98962 0.179829,0.20231 0.421409,0.30143 0.72474,0.29737 0.303056,0 0.606927,-0.0715 0.911614,-0.2145 0.30468,-0.143 0.585801,-0.35749 0.843364,-0.64349 -0.026,-0.13411 -0.104003,-0.20778 -0.233997,-0.221 -0.171168,0.12892 -0.348833,0.22208 -0.532993,0.2795 -0.184167,0.0574 -0.361832,0.0856 -0.532993,0.0845 -0.171438,5.4e-4 -0.286812,-0.098 -0.346121,-0.29575 -0.05931,-0.1977 -0.08694,-0.49778 -0.08287,-0.90024 l 0,-3.28895 1.351983,0 c 0.06987,2.7e-4 0.138119,-0.0133 0.204747,-0.0406 0.06662,-0.0274 0.10237,-0.0701 0.107249,-0.12837 l 0,-0.26 c -0.0022,-0.052 -0.03684,-0.078 -0.103999,-0.078 l -1.55998,0 0,-0.50699 c 0.0022,-0.42655 0.01083,-0.75967 0.026,-0.99936 0.01516,-0.23968 0.02383,-0.36155 0.026,-0.36562 0.0022,-0.0888 -0.05417,-0.13216 -0.168997,-0.13 l -0.753991,0.34189 c -0.0422,0.0222 -0.08325,0.0444 -0.123174,0.0665 -0.03992,0.0221 -0.05953,0.055 -0.05882,0.0986 0.01303,0.12456 0.02077,0.27585 0.02324,0.45386 0.0025,0.17802 0.0034,0.52463 0.0028,1.03982 z" id="path4683-2"></path><path d="m 68.711457,148.33503 c -8.13e-4,0.69658 0.225059,1.32816 0.677616,1.89473 0.452556,0.56658 1.136671,0.86666 2.052349,0.90024 0.962254,-0.0401 1.663703,-0.36291 2.104348,-0.96849 0.440634,-0.60557 0.65784,-1.2534 0.651616,-1.94347 0.01218,-0.71337 -0.19094,-1.36986 -0.609367,-1.96948 -0.418437,-0.59961 -1.125302,-0.91811 -2.120597,-0.95549 -0.882637,0.0236 -1.561337,0.32419 -2.036099,0.90187 -0.474766,0.57768 -0.714721,1.29105 -0.719866,2.14009 z m 2.612966,-2.61296 c 0.56224,0.002 0.994484,0.24835 1.296734,0.73936 0.302241,0.49102 0.454989,1.21522 0.458244,2.1726 -0.02032,0.83687 -0.17794,1.39586 -0.472869,1.67698 -0.294938,0.28112 -0.605309,0.41112 -0.931113,0.38999 -0.448417,-0.0144 -0.808239,-0.17052 -1.079468,-0.46847 -0.271233,-0.29795 -0.467354,-0.65152 -0.588363,-1.06069 -0.121012,-0.40917 -0.180394,-0.78777 -0.178145,-1.1358 -0.006,-0.59122 0.106705,-1.11825 0.337995,-1.58111 0.231287,-0.46284 0.616948,-0.70713 1.156985,-0.73286 z" id="path4685"></path><path d="m 76.927214,142.27711 c -0.02682,-0.007 -0.05769,-0.0127 -0.09262,-0.0179 -0.03494,-0.005 -0.06906,-0.008 -0.102374,-0.008 -0.222082,0.008 -0.405163,0.0477 -0.549243,0.12025 -0.144083,0.0726 -0.242665,0.13217 -0.295746,0.17875 l -0.026,0.143 1.481981,1.41698 c 0.101829,0.0961 0.180911,0.16386 0.237246,0.20312 0.05633,0.0393 0.102912,0.0582 0.139749,0.0569 0.05362,-0.002 0.09912,-0.0176 0.136498,-0.0471 0.03737,-0.0295 0.05687,-0.0615 0.0585,-0.0959 8.09e-4,-0.0447 -0.0041,-0.0918 -0.01462,-0.14138 -0.01057,-0.0496 -0.03169,-0.10643 -0.06337,-0.17062 z m 1.260984,5.69393 0,1.72898 c -0.0011,0.0831 -0.01842,0.15085 -0.052,0.20312 -0.03359,0.0523 -0.07692,0.0972 -0.129998,0.13487 -0.172793,0.14273 -0.360207,0.27002 -0.562243,0.38187 -0.202042,0.11186 -0.395956,0.1709 -0.581742,0.17713 -0.323373,-0.0133 -0.56062,-0.11673 -0.711741,-0.31038 -0.151125,-0.19364 -0.225874,-0.39784 -0.224247,-0.61261 -0.0085,-0.29959 0.0774,-0.5792 0.257721,-0.83882 0.180317,-0.25961 0.506071,-0.45667 0.977263,-0.59116 z m 0,2.40497 c 0.03244,0.15085 0.122248,0.31064 0.269421,0.47937 0.147165,0.16872 0.39102,0.26026 0.731566,0.27462 0.32472,-0.0203 0.588507,-0.10969 0.791364,-0.26812 0.202846,-0.15844 0.307387,-0.26406 0.313622,-0.31687 -0.0038,-0.049 -0.02546,-0.0972 -0.065,-0.14463 -0.03955,-0.0474 -0.07421,-0.0729 -0.103998,-0.0764 -0.03272,0.009 -0.07519,0.0433 -0.127399,0.104 -0.05222,0.0607 -0.144087,0.0953 -0.275596,0.104 -0.243481,-0.009 -0.393521,-0.11809 -0.45012,-0.32825 -0.05661,-0.21016 -0.0799,-0.46908 -0.06987,-0.77674 l 0,-1.93697 c -0.02248,-0.89916 -0.231023,-1.49606 -0.625618,-1.79073 -0.394603,-0.29466 -0.840388,-0.43007 -1.337357,-0.40625 -0.555745,0.0163 -1.046489,0.16901 -1.472232,0.45825 -0.425745,0.28925 -0.649992,0.61749 -0.67274,0.98473 2.7e-4,0.15547 0.03873,0.2703 0.115373,0.3445 0.07664,0.0742 0.189851,0.11104 0.339621,0.1105 0.188767,-0.007 0.331223,-0.0577 0.427369,-0.15112 0.09614,-0.0934 0.144351,-0.18606 0.144623,-0.27788 -1e-6,-0.0463 -0.0033,-0.0902 -0.0097,-0.13162 -0.0065,-0.0414 -0.01625,-0.0756 -0.02925,-0.10237 -0.0068,-0.019 -0.01273,-0.0493 -0.01787,-0.091 -0.0051,-0.0417 -0.0079,-0.098 -0.0081,-0.169 0.01408,-0.19905 0.132163,-0.34043 0.354246,-0.42412 0.222078,-0.0837 0.463658,-0.1243 0.72474,-0.12187 0.237244,-0.0214 0.467991,0.0767 0.692241,0.29412 0.224244,0.21748 0.344492,0.68277 0.360746,1.39586 -8.16e-4,0.0455 -0.0089,0.0813 -0.02438,0.10724 -0.01544,0.026 -0.03332,0.0423 -0.05362,0.0487 l -1.117986,0.273 c -0.635369,0.15979 -1.148862,0.40246 -1.54048,0.72799 -0.391621,0.32554 -0.593118,0.7112 -0.604492,1.15699 0.01137,0.5078 0.170622,0.87017 0.477744,1.08711 0.30712,0.21693 0.693864,0.32256 1.160235,0.31687 0.28491,0.005 0.524323,-0.0309 0.71824,-0.10725 0.193911,-0.0764 0.426825,-0.22262 0.698741,-0.43874 l 0.259997,-0.208 z" id="path4687"></path><path d="m 82.362616,146.34606 c -0.02248,0.0341 -0.04902,0.0634 -0.07962,0.0877 -0.03061,0.0244 -0.0474,-0.005 -0.05037,-0.0877 0.0027,-0.21178 0.01354,-0.4252 0.0325,-0.64024 0.01896,-0.21504 0.02979,-0.33095 0.0325,-0.34775 -2e-6,-0.0672 -0.052,-0.10182 -0.155998,-0.104 -0.177937,0.071 -0.410309,0.13705 -0.697116,0.19825 -0.28681,0.0612 -0.65243,0.1208 -1.096861,0.17875 -0.01192,0.0444 -0.01408,0.10509 -0.0065,0.182 0.0076,0.0769 0.01842,0.13758 0.0325,0.18199 0.342328,0.0181 0.570908,0.0794 0.685741,0.18363 0.11483,0.10427 0.167913,0.33773 0.159248,0.70036 l 0,2.53497 c 0.01083,0.5116 -0.04333,0.83389 -0.162498,0.96686 -0.119166,0.13298 -0.36833,0.20502 -0.74749,0.21613 -0.039,0.0471 -0.0585,0.11862 -0.0585,0.21449 0,0.0959 0.0195,0.16738 0.0585,0.2145 0.257829,-0.007 0.492909,-0.0127 0.70524,-0.0179 0.21233,-0.005 0.45391,-0.008 0.724741,-0.008 0.241307,2.7e-4 0.450929,0.003 0.628867,0.008 0.177933,0.005 0.397305,0.0111 0.658117,0.0179 0.039,-0.0471 0.05849,-0.11862 0.0585,-0.2145 -3e-6,-0.0959 -0.0195,-0.16737 -0.0585,-0.21449 -0.322562,-0.0111 -0.535434,-0.0832 -0.638617,-0.21613 -0.103189,-0.13297 -0.150313,-0.45526 -0.141373,-0.96686 l 0,-2.13197 c 0.0027,-0.13487 0.02654,-0.24537 0.0715,-0.3315 0.04496,-0.0861 0.09479,-0.15762 0.149499,-0.2145 0.247265,-0.24238 0.49697,-0.43034 0.749115,-0.56386 0.252139,-0.13352 0.505094,-0.20122 0.758865,-0.20313 0.132703,8.2e-4 0.260534,0.0414 0.383495,0.12188 0.122952,0.0804 0.224784,0.19581 0.305496,0.34612 0.06337,0.13109 0.105619,0.28167 0.126749,0.45174 0.02112,0.17009 0.03087,0.35317 0.02925,0.54925 l 0,1.97597 c 0.0087,0.5116 -0.04117,0.83389 -0.149498,0.96686 -0.108336,0.13298 -0.327167,0.20502 -0.656491,0.21613 -0.0325,0.0471 -0.04875,0.11862 -0.04875,0.21449 -3e-6,0.0959 0.01625,0.16738 0.04875,0.2145 0.261617,-0.007 0.485864,-0.0127 0.672741,-0.0179 0.186868,-0.005 0.404615,-0.008 0.653242,-0.008 0.255657,2.7e-4 0.482071,0.003 0.679241,0.008 0.197158,0.005 0.430071,0.0111 0.698741,0.0179 0.03249,-0.0471 0.04874,-0.11862 0.04875,-0.2145 -6e-6,-0.0959 -0.01626,-0.16737 -0.04875,-0.21449 -0.354794,-0.0111 -0.590957,-0.0832 -0.708491,-0.21613 -0.117546,-0.13297 -0.171712,-0.45526 -0.162498,-0.96686 l 0,-1.93697 c 0.0041,-0.3602 -0.01707,-0.68953 -0.06337,-0.98799 -0.04632,-0.29845 -0.142191,-0.54978 -0.287621,-0.75399 -0.113213,-0.14354 -0.263794,-0.25295 -0.451744,-0.32825 -0.187961,-0.0753 -0.397042,-0.1132 -0.627242,-0.11375 -0.314709,-0.0114 -0.637538,0.0536 -0.968488,0.195 -0.330957,0.14138 -0.692786,0.42738 -1.085486,0.85799 z" id="path4689"></path><path d="m 90.036674,145.42307 c -0.08937,0.004 -0.151124,0.0347 -0.185248,0.091 -0.03413,0.0563 -0.05038,0.11267 -0.04875,0.169 l 0,0.169 c -5.42e-4,0.0317 0.0038,0.0528 0.013,0.0634 0.0092,0.0106 0.02654,0.0154 0.052,0.0146 l 0.76699,0 0,3.91294 c 0.0043,0.45744 0.09641,0.78731 0.276247,0.98962 0.179829,0.20231 0.421409,0.30143 0.72474,0.29737 0.303056,0 0.606927,-0.0715 0.911614,-0.2145 0.30468,-0.143 0.585801,-0.35749 0.843364,-0.64349 -0.026,-0.13411 -0.104003,-0.20778 -0.233997,-0.221 -0.171168,0.12892 -0.348833,0.22208 -0.532993,0.2795 -0.184167,0.0574 -0.361832,0.0856 -0.532993,0.0845 -0.171438,5.4e-4 -0.286812,-0.098 -0.346121,-0.29575 -0.05931,-0.1977 -0.08694,-0.49778 -0.08287,-0.90024 l 0,-3.28895 1.351983,0 c 0.06987,2.7e-4 0.138119,-0.0133 0.204747,-0.0406 0.06662,-0.0274 0.10237,-0.0701 0.107249,-0.12837 l 0,-0.26 c -0.0022,-0.052 -0.03684,-0.078 -0.103999,-0.078 l -1.55998,0 0,-0.50699 c 0.0022,-0.42655 0.01083,-0.75967 0.026,-0.99936 0.01516,-0.23968 0.02383,-0.36155 0.026,-0.36562 0.0022,-0.0888 -0.05417,-0.13216 -0.168997,-0.13 l -0.753991,0.34189 c -0.0422,0.0222 -0.08325,0.0444 -0.123174,0.0665 -0.03992,0.0221 -0.05953,0.055 -0.05882,0.0986 0.01303,0.12456 0.02077,0.27585 0.02324,0.45386 0.0025,0.17802 0.0034,0.52463 0.0028,1.03982 z" id="path4691"></path><path d="m 95.411936,147.28335 c 0.0027,-0.13574 0.02654,-0.2471 0.0715,-0.3341 0.04496,-0.087 0.09479,-0.15805 0.149498,-0.2132 0.25019,-0.24409 0.512245,-0.43253 0.786165,-0.56533 0.273914,-0.13278 0.540518,-0.2 0.799815,-0.20166 0.135302,9e-4 0.264433,0.0417 0.387394,0.12237 0.122953,0.0807 0.223485,0.19589 0.301597,0.34563 0.06337,0.12995 0.105619,0.2802 0.126748,0.45077 0.02112,0.17057 0.03087,0.35398 0.02925,0.55022 l 0,1.97597 c 0.0087,0.5116 -0.04117,0.83389 -0.149498,0.96686 -0.108337,0.13298 -0.327167,0.20502 -0.656492,0.21613 -0.0325,0.0471 -0.04875,0.11862 -0.04875,0.21449 -4e-6,0.0959 0.01625,0.16738 0.04875,0.2145 0.261617,-0.007 0.485864,-0.0127 0.672742,-0.0179 0.186867,-0.005 0.404614,-0.008 0.653241,-0.008 0.255658,2.7e-4 0.482071,0.003 0.679241,0.008 0.197158,0.005 0.430072,0.0111 0.698741,0.0179 0.03249,-0.0471 0.04874,-0.11862 0.04875,-0.2145 -1e-5,-0.0959 -0.01626,-0.16737 -0.04875,-0.21449 -0.354793,-0.0111 -0.590957,-0.0832 -0.708491,-0.21613 -0.117546,-0.13297 -0.171712,-0.45526 -0.162497,-0.96686 l 0,-1.93697 c 0.0043,-0.36061 -0.01634,-0.69075 -0.06191,-0.99043 -0.04559,-0.29967 -0.141948,-0.55019 -0.289084,-0.75155 -0.112075,-0.14354 -0.262331,-0.25295 -0.450769,-0.32825 -0.188448,-0.0753 -0.397854,-0.1132 -0.628217,-0.11375 -0.318527,-0.0114 -0.654518,0.0536 -1.007975,0.195 -0.353463,0.14138 -0.728128,0.42738 -1.123998,0.85799 -0.02465,0.0324 -0.05141,0.0612 -0.08027,0.0863 -0.02887,0.0251 -0.04458,-0.004 -0.04712,-0.0863 l 0.0104,-2.92496 c 0.0033,-0.42655 0.01229,-0.75967 0.02697,-0.99936 0.01468,-0.23968 0.02302,-0.36155 0.02502,-0.36562 0.0022,-0.0888 -0.05417,-0.13216 -0.168998,-0.13 -0.18552,0.0691 -0.464475,0.13894 -0.836864,0.20962 -0.372392,0.0707 -0.700096,0.11782 -0.983112,0.14137 -0.013,0.0569 -0.013,0.12513 0,0.20475 0.013,0.0796 0.039,0.14138 0.078,0.18525 0.330412,-0.007 0.553575,0.0393 0.669491,0.13812 0.115914,0.0989 0.17008,0.40815 0.162498,0.92786 l 0,5.68093 c 0.0093,0.5181 -0.04767,0.84364 -0.170948,0.97661 -0.123283,0.13298 -0.368762,0.20177 -0.73644,0.20638 -0.039,0.0471 -0.0585,0.11862 -0.0585,0.21449 -1e-6,0.0959 0.0195,0.16738 0.0585,0.2145 0.258858,-0.007 0.49383,-0.0127 0.704916,-0.0179 0.211083,-0.005 0.451905,-0.008 0.722466,-0.008 0.241117,2.7e-4 0.450144,0.003 0.627079,0.008 0.17693,0.005 0.396031,0.0111 0.657304,0.0179 0.039,-0.0471 0.0585,-0.11862 0.0585,-0.2145 -3e-6,-0.0959 -0.0195,-0.16737 -0.0585,-0.21449 -0.321315,-0.005 -0.533429,-0.0734 -0.636342,-0.20638 -0.102918,-0.13297 -0.149934,-0.45851 -0.141048,-0.97661 z" id="path4693"></path><path d="m 102.61818,151.13 c 0.25187,8e-5 0.51511,-0.0651 0.78974,-0.19549 0.27462,-0.1304 0.57036,-0.32654 0.88724,-0.5884 0.0338,-0.0272 0.0676,-0.0421 0.1014,-0.0447 0.0338,-0.003 0.052,0.0179 0.0546,0.0616 0.006,0.16447 0.0298,0.33017 0.0715,0.49708 0.0417,0.16691 0.0655,0.25688 0.0715,0.26991 0.0473,0.0184 0.0883,0.0271 0.12301,0.0258 0.0347,-0.001 0.0761,-0.01 0.12399,-0.0258 0.1411,-0.11835 0.33989,-0.22289 0.59637,-0.31362 0.25647,-0.0907 0.58201,-0.15952 0.97661,-0.20637 0.039,-0.0439 0.0585,-0.10238 0.0585,-0.1755 -1e-5,-0.0731 -0.0195,-0.13163 -0.0585,-0.1755 -0.40354,-0.0282 -0.66571,-0.11483 -0.78649,-0.26 -0.1208,-0.14516 -0.17496,-0.37482 -0.1625,-0.68899 l 0,-2.49597 c 5.9e-4,-0.13546 0.005,-0.30424 0.013,-0.50634 0.008,-0.20209 0.0163,-0.38517 0.0247,-0.54924 0.30197,-0.0589 0.52123,-0.17831 0.65779,-0.35815 0.13655,-0.17982 0.20372,-0.3629 0.2015,-0.54924 -0.003,-0.31497 -0.078,-0.58201 -0.22425,-0.80112 -0.14625,-0.21909 -0.3445,-0.33338 -0.59474,-0.34287 -0.18986,0.002 -0.33665,0.0471 -0.44037,0.1365 -0.10373,0.0894 -0.15627,0.21288 -0.15762,0.3705 -0.002,0.13623 0.0471,0.26027 0.14625,0.37212 0.0991,0.11186 0.25836,0.17415 0.47774,0.18687 0.12268,0.008 0.21205,0.0374 0.26812,0.0877 0.0561,0.0504 0.0837,0.11213 0.0829,0.18525 -0.007,0.0756 -0.0647,0.14869 -0.17388,0.21937 -0.10915,0.0707 -0.22885,0.11457 -0.35912,0.13162 l 0,0.004 c -0.0429,0.006 -0.10303,0.0112 -0.18037,0.0154 -0.0774,0.004 -0.16023,0.006 -0.24862,0.007 -0.20719,-2.6e-4 -0.42006,-0.003 -0.63862,-0.008 -0.21856,-0.005 -0.44768,-0.0111 -0.68736,-0.0179 -0.039,0.0471 -0.0585,0.11863 -0.0585,0.2145 -1e-5,0.0959 0.0195,0.16738 0.0585,0.2145 0.31226,0.007 0.52621,0.0804 0.64186,0.21937 0.11564,0.13894 0.17035,0.41681 0.16413,0.83361 l 0,2.50897 c 0.003,0.11928 -0.009,0.21482 -0.0353,0.28665 -0.0263,0.0718 -0.0839,0.14527 -0.17273,0.22034 -0.24104,0.208 -0.46421,0.364 -0.66949,0.468 -0.2053,0.104 -0.38946,0.156 -0.5525,0.156 -0.21395,0.0165 -0.43603,-0.062 -0.66624,-0.23563 -0.23021,-0.1736 -0.35479,-0.54138 -0.37374,-1.10336 l 0,-2.36597 c 0.002,-0.22635 0.0108,-0.49805 0.026,-0.81509 0.0152,-0.31702 0.0238,-0.49122 0.026,-0.52259 -2.8e-4,-0.0209 -0.009,-0.0392 -0.0276,-0.0548 -0.0181,-0.0156 -0.0436,-0.0237 -0.0764,-0.0245 -0.0352,0.007 -0.0948,0.0127 -0.17875,0.0179 -0.084,0.005 -0.17604,0.008 -0.27625,0.008 -0.20718,-2.6e-4 -0.42005,-0.003 -0.63861,-0.008 -0.21856,-0.005 -0.44769,-0.0111 -0.68737,-0.0179 -0.039,0.0471 -0.0585,0.11863 -0.0585,0.2145 0,0.0959 0.0195,0.16738 0.0585,0.2145 0.30658,0.0133 0.51891,0.0875 0.63699,0.22262 0.11808,0.13515 0.17442,0.4076 0.169,0.81736 l 0,2.49597 c -0.0106,0.4661 0.10806,0.87289 0.35587,1.22036 0.24781,0.34747 0.68818,0.53001 1.32111,0.54762 z" id="path4695"></path><path d="m 111.72343,146.73605 c 0.25536,-0.25205 0.4905,-0.44277 0.7054,-0.57215 0.2149,-0.12937 0.42176,-0.19432 0.62058,-0.19484 0.25187,-0.005 0.45662,0.0831 0.61424,0.26488 0.15762,0.18173 0.23887,0.48777 0.24375,0.91811 l 0,2.26197 c 0.0103,0.51241 -0.0363,0.83632 -0.13975,0.97174 -0.10346,0.13541 -0.32554,0.20583 -0.66624,0.21125 -0.0325,0.0471 -0.0487,0.11862 -0.0487,0.21449 0,0.0959 0.0162,0.16738 0.0487,0.2145 0.26162,-0.007 0.48587,-0.0127 0.67274,-0.0179 0.18687,-0.005 0.40462,-0.008 0.65324,-0.008 0.25133,2.7e-4 0.46041,0.003 0.62725,0.008 0.16682,0.005 0.3824,0.0111 0.64674,0.0179 0.0325,-0.0471 0.0487,-0.11862 0.0487,-0.2145 -1e-5,-0.0959 -0.0163,-0.16737 -0.0487,-0.21449 -0.31634,-0.005 -0.52542,-0.0758 -0.62724,-0.21125 -0.10184,-0.13542 -0.14842,-0.45933 -0.13975,-0.97174 l 0,-2.06697 c 2.6e-4,-0.0915 -2.8e-4,-0.18146 -0.002,-0.26975 -0.001,-0.0883 -0.005,-0.1717 -0.0114,-0.25025 0.30955,-0.33717 0.59717,-0.5663 0.86286,-0.68736 0.26568,-0.12106 0.52405,-0.17793 0.77512,-0.17063 0.24969,-0.006 0.44577,0.0777 0.58824,0.25188 0.14245,0.17414 0.21503,0.47585 0.21775,0.90511 l 0,2.28797 c 0.009,0.51241 -0.0412,0.83632 -0.1495,0.97174 -0.10834,0.13541 -0.32717,0.20583 -0.65649,0.21125 -0.0325,0.0471 -0.0488,0.11862 -0.0487,0.21449 -1e-5,0.0959 0.0162,0.16738 0.0487,0.2145 0.26161,-0.007 0.48586,-0.0127 0.67274,-0.0179 0.18686,-0.005 0.40461,-0.008 0.65324,-0.008 0.25403,2.7e-4 0.47394,0.003 0.65974,0.008 0.18578,0.005 0.41219,0.0111 0.67924,0.0179 0.0325,-0.0471 0.0487,-0.11862 0.0487,-0.2145 -1e-5,-0.0959 -0.0163,-0.16737 -0.0487,-0.21449 -0.34748,-0.005 -0.57552,-0.0758 -0.68411,-0.21125 -0.10862,-0.13542 -0.15791,-0.45933 -0.14788,-0.97174 l 0,-2.05397 c 0.0146,-0.5923 -0.0699,-1.08142 -0.25349,-1.46736 -0.18364,-0.38593 -0.55413,-0.5858 -1.11149,-0.59962 -0.335,-0.005 -0.67803,0.0658 -1.0291,0.21158 -0.35108,0.14576 -0.69704,0.39503 -1.03787,0.74781 -0.0214,0.025 -0.0469,0.0433 -0.0764,0.0549 -0.0295,0.0117 -0.0517,-0.008 -0.0666,-0.0601 -0.066,-0.27294 -0.21356,-0.49859 -0.44281,-0.67697 -0.22926,-0.17836 -0.51499,-0.27077 -0.85717,-0.27722 -0.37321,0.007 -0.71229,0.10726 -1.01724,0.30225 -0.30496,0.195 -0.59854,0.44525 -0.88074,0.75074 -0.0252,0.0319 -0.0521,0.0605 -0.0808,0.0858 -0.0286,0.0254 -0.0442,-0.003 -0.0466,-0.0858 0.003,-0.21178 0.013,-0.4252 0.0312,-0.64024 0.0182,-0.21504 0.0286,-0.33095 0.0312,-0.34775 0,-0.0672 -0.052,-0.10182 -0.156,-0.104 -0.18078,0.071 -0.41396,0.13705 -0.69955,0.19825 -0.28559,0.0612 -0.6504,0.1208 -1.09442,0.17875 -0.0119,0.0444 -0.0141,0.10509 -0.007,0.182 0.008,0.0769 0.0184,0.13758 0.0325,0.18199 0.34517,0.0187 0.57456,0.0801 0.68817,0.18411 0.11362,0.10403 0.16589,0.33733 0.15682,0.69988 l 0,2.53497 c 0.008,0.51241 -0.0501,0.83632 -0.17388,0.97174 -0.12377,0.13541 -0.36047,0.20583 -0.71011,0.21125 -0.039,0.0471 -0.0585,0.11862 -0.0585,0.21449 0,0.0959 0.0195,0.16738 0.0585,0.2145 0.25674,-0.007 0.48749,-0.0127 0.69224,-0.0179 0.20474,-0.005 0.44199,-0.008 0.71174,-0.008 0.24112,2.7e-4 0.45014,0.003 0.62708,0.008 0.17693,0.005 0.39603,0.0111 0.6573,0.0179 0.039,-0.0471 0.0585,-0.11862 0.0585,-0.2145 0,-0.0959 -0.0195,-0.16737 -0.0585,-0.21449 -0.32131,-0.0111 -0.53343,-0.0832 -0.63634,-0.21613 -0.10292,-0.13297 -0.14993,-0.45526 -0.14105,-0.96686 l 0,-2.13197 c 0.003,-0.13512 0.0265,-0.2461 0.0715,-0.33296 0.045,-0.0868 0.0948,-0.15786 0.1495,-0.21304 z" id="path4697"></path><path d="m 123.09027,143.2131 c 0.006,-0.12809 -0.0582,-0.28138 -0.19337,-0.45987 -0.13515,-0.17847 -0.37836,-0.27651 -0.72962,-0.29412 -0.2795,0.013 -0.51024,0.10076 -0.69224,0.26325 -0.182,0.1625 -0.27625,0.32175 -0.28275,0.47774 -8.1e-4,0.0829 0.0268,0.16088 0.0829,0.234 0.0561,0.0731 0.14543,0.11213 0.26812,0.117 0.0631,-0.002 0.12539,-0.0301 0.18687,-0.0829 0.0615,-0.0528 0.0945,-0.11618 0.0991,-0.19012 -10e-4,-0.0523 -0.008,-0.0972 -0.0211,-0.13487 -0.0127,-0.0376 -0.023,-0.0663 -0.0309,-0.0861 -0.007,-0.0125 -0.0127,-0.0265 -0.0179,-0.0422 -0.005,-0.0157 -0.008,-0.0363 -0.008,-0.0617 -0.002,-0.0344 0.0187,-0.0663 0.0634,-0.0959 0.0447,-0.0295 0.12756,-0.0452 0.24862,-0.0471 0.13514,-8.1e-4 0.2321,0.0333 0.29087,0.10237 0.0588,0.0691 0.0875,0.17794 0.0861,0.32662 -5.5e-4,0.078 -0.0157,0.15601 -0.0455,0.234 -0.0298,0.078 -0.071,0.156 -0.1235,0.23399 -0.0753,0.10861 -0.14571,0.23915 -0.21125,0.39162 -0.0655,0.15249 -0.10346,0.33828 -0.11375,0.55737 l 0.364,0 c 0.0133,-0.16682 0.0517,-0.3109 0.11537,-0.43224 0.0636,-0.12133 0.15085,-0.23291 0.26162,-0.33475 0.10779,-0.10291 0.20096,-0.20907 0.2795,-0.31849 0.0785,-0.10941 0.1197,-0.22858 0.1235,-0.3575 z m -3.52296,5.12193 c -8.1e-4,0.69658 0.22506,1.32816 0.67762,1.89473 0.45256,0.56658 1.13667,0.86666 2.05235,0.90024 0.96225,-0.0401 1.6637,-0.36291 2.10435,-0.96849 0.44063,-0.60557 0.65784,-1.2534 0.65161,-1.94347 0.002,-0.40137 -0.0632,-0.79949 -0.19678,-1.19436 -0.13361,-0.39487 -0.34967,-0.74164 -0.6482,-1.04032 0.2712,-0.0529 0.48147,-0.17714 0.63081,-0.3726 0.14933,-0.19546 0.22506,-0.44868 0.22717,-0.75968 -0.004,-0.31497 -0.0807,-0.58201 -0.23074,-0.80112 -0.15005,-0.21909 -0.35046,-0.33338 -0.60125,-0.34287 -0.18985,0.002 -0.33664,0.0471 -0.44036,0.1365 -0.10374,0.0894 -0.15628,0.21288 -0.15763,0.3705 -0.002,0.13569 0.0471,0.26081 0.14625,0.37537 0.0991,0.11456 0.25837,0.18444 0.47774,0.20962 0.0948,0.0133 0.1782,0.0452 0.25025,0.0959 0.072,0.0507 0.10995,0.11836 0.11375,0.20313 -0.0198,0.21504 -0.11673,0.35696 -0.29087,0.42574 -0.17415,0.0688 -0.30686,0.10021 -0.39812,0.0942 -0.0858,6.5e-4 -0.1677,-0.003 -0.2457,-0.0117 -0.18368,-0.0989 -0.38897,-0.17568 -0.61587,-0.23026 -0.2269,-0.0546 -0.47704,-0.0823 -0.75041,-0.083 -0.88264,0.0236 -1.56134,0.32419 -2.0361,0.90187 -0.47477,0.57768 -0.71472,1.29105 -0.71987,2.14009 z m 2.61297,-2.61296 c 0.56224,0.002 0.99448,0.24835 1.29673,0.73936 0.30225,0.49102 0.45499,1.21522 0.45825,2.1726 -0.0203,0.83687 -0.17794,1.39586 -0.47287,1.67698 -0.29494,0.28112 -0.60531,0.41112 -0.93111,0.38999 -0.44842,-0.0144 -0.80824,-0.17052 -1.07947,-0.46847 -0.27123,-0.29795 -0.46735,-0.65152 -0.58836,-1.06069 -0.12102,-0.40917 -0.1804,-0.78777 -0.17815,-1.1358 -0.006,-0.59122 0.10671,-1.11825 0.338,-1.58111 0.23128,-0.46284 0.61694,-0.70713 1.15698,-0.73286 z" id="path4699"></path></g><g transform="translate(-0.03886624,-4.13045)" id="Wikipedia"><g id="g4902"><path d="m 22.754,119.008 c 0.936,0.026 1.416,0.054 1.997,0.054 0.582,0 1.214,-0.027 1.846,-0.054 0.151,0.161 0.151,0.729 0,0.891 -1.315,0.216 -1.864,1.244 -2.486,2.51 l -1.848,3.755 3.234,7.15 h 0.116 l 4.802,-11.094 c 0.599,-1.461 0.556,-2.187 -1.087,-2.321 -0.152,-0.162 -0.152,-0.729 0,-0.891 1.188,0.026 1.921,0.054 2.503,0.054 0.582,0 1.214,-0.027 2.225,-0.054 0.152,0.161 0.152,0.729 0,0.891 -1.669,0.216 -1.959,1.247 -2.485,2.51 l -5.985,13.767 c -0.177,0.405 -0.329,0.621 -0.606,0.621 -0.253,0 -0.448,-0.219 -0.582,-0.621 l -3.401,-7.836 -3.729,7.836 c -0.151,0.405 -0.329,0.621 -0.607,0.621 -0.252,0 -0.43,-0.216 -0.581,-0.621 l -5.5,-13.82 C 9.809,120.439 9.758,120.035 8.317,119.9 8.165,119.738 8.14,119.171 8.292,119.009 c 1.188,0.026 1.618,0.054 2.629,0.054 0.986,0 1.618,-0.027 2.807,-0.054 0.152,0.161 0.152,0.729 0,0.891 -1.593,0.188 -1.661,0.615 -1.026,2.159 l 4.629,11.256 h 0.116 l 2.824,-6.133 -2.131,-4.826 c -0.847,-1.917 -1.049,-2.294 -2.137,-2.456 -0.151,-0.162 -0.177,-0.729 -0.025,-0.891 0.809,0.026 1.239,0.054 2.25,0.054 0.986,0 1.391,-0.027 2.301,-0.054 0.152,0.161 0.152,0.729 0,0.891 -1.062,0.162 -0.961,0.62 -0.268,2.159 l 1.244,2.727 0.111,0.121 1.34,-2.686 c 0.781,-1.565 0.885,-2.159 -0.202,-2.321 -0.152,-0.164 -0.152,-0.731 0,-0.892 z" id="path4906-7"></path><path d="m 37.362,133.179 c 0,2.24 0.278,2.349 1.82,2.456 0.152,0.162 0.152,0.729 0,0.891 -1.087,-0.026 -1.719,-0.054 -2.806,-0.054 -1.113,0 -1.77,0.027 -2.832,0.054 -0.151,-0.162 -0.151,-0.729 0,-0.891 1.542,-0.135 1.821,-0.216 1.821,-2.456 v -5.831 c 0,-2.24 -0.278,-2.348 -1.821,-2.456 -0.151,-0.162 -0.151,-0.729 0,-0.891 1.087,0.027 1.719,0.054 2.807,0.054 1.112,0 1.77,-0.026 2.832,-0.054 0.152,0.162 0.152,0.729 0,0.891 -1.542,0.135 -1.82,0.216 -1.82,2.456 v 5.831 z" id="path4908-7"></path><path d="m 41.583,124.892 c -0.151,-0.162 -0.151,-0.729 0,-0.891 1.062,0.027 1.719,0.054 2.832,0.054 0.936,0 1.34,-0.026 2.427,-0.054 0.151,0.162 0.151,0.729 0,0.891 -1.214,0.135 -1.441,0.216 -1.441,2.456 v 2.402 c 0.834,0 1.575,-0.426 2.655,-1.728 1.947,-2.348 2.2,-3.05 0.936,-3.131 -0.152,-0.162 -0.152,-0.729 0,-0.891 1.087,0.027 2.048,0.054 2.781,0.054 0.657,0 1.087,-0.026 1.77,-0.054 0.151,0.162 0.151,0.729 0,0.891 -1.011,0.054 -1.939,0.191 -2.706,1.134 l -2.174,2.672 c -0.43,0.486 -0.582,0.783 -0.582,0.999 0,0.162 0.101,0.297 0.228,0.459 l 3.742,4.697 c 0.331,0.41 0.936,0.701 1.618,0.782 0.151,0.162 0.151,0.702 0,0.864 0,0 -1.239,-0.027 -1.947,-0.027 -0.658,0 -1.29,0.027 -1.568,0.054 v -0.378 c 0,-0.351 -0.025,-0.647 -0.379,-1.079 l -2.806,-3.726 c -0.379,-0.54 -1.012,-0.675 -1.568,-0.675 v 2.511 c 0,2.24 0.228,2.321 1.441,2.456 0.151,0.162 0.151,0.729 0,0.891 -1.087,-0.026 -1.492,-0.054 -2.427,-0.054 -1.113,0 -1.77,0.027 -2.832,0.054 -0.151,-0.162 -0.151,-0.729 0,-0.891 1.542,-0.135 1.82,-0.216 1.82,-2.456 v -5.831 c 0,-2.24 -0.278,-2.321 -1.82,-2.455 z" id="path4910-6"></path><path d="m 59.405,133.179 c 0,2.24 0.278,2.349 1.82,2.456 0.152,0.162 0.152,0.729 0,0.891 -1.087,-0.026 -1.719,-0.054 -2.806,-0.054 -1.113,0 -1.77,0.027 -2.832,0.054 -0.151,-0.162 -0.151,-0.729 0,-0.891 1.542,-0.135 1.82,-0.216 1.82,-2.456 v -5.831 c 0,-2.24 -0.278,-2.348 -1.82,-2.456 -0.151,-0.162 -0.151,-0.729 0,-0.891 1.087,0.027 1.719,0.054 2.807,0.054 1.112,0 1.77,-0.026 2.832,-0.054 0.152,0.162 0.152,0.729 0,0.891 -1.542,0.135 -1.82,0.216 -1.82,2.456 v 5.831 z" id="path4912-7"></path><path d="m 69.34,135.635 c 0.151,0.162 0.151,0.729 0,0.891 -1.088,-0.026 -1.72,-0.054 -2.807,-0.054 -1.112,0 -1.77,0.027 -2.832,0.054 -0.152,-0.162 -0.152,-0.729 0,-0.891 1.542,-0.135 1.82,-0.216 1.82,-2.456 v -5.831 c 0,-2.24 -0.278,-2.348 -1.82,-2.456 -0.152,-0.162 -0.152,-0.729 0,-0.891 1.087,0.027 1.719,0.054 2.806,0.054 0.683,0 1.745,-0.054 2.68,-0.054 3.59,0 4.35,1.89 4.35,3.293 0,1.62 -1.037,4.211 -4.426,4.211 -0.632,0 -1.137,-0.107 -1.592,-0.324 v 1.998 c 0,2.24 0.278,2.348 1.821,2.456 z m -1.821,-5.318 c 0.505,0.216 1.137,0.297 1.643,0.297 1.518,0 2.175,-1.05 2.175,-2.996 0,-1.893 -0.81,-2.727 -2.301,-2.727 -1.214,0 -1.517,0.351 -1.517,1.215 v 4.211 z" id="path4914-5"></path><path d="m 79.273,130.398 v 4.049 c 0,0.513 0.354,1.188 0.809,1.188 h 2.1 c 1.592,0 2.326,-1.35 2.73,-2.942 0.277,-0.081 0.48,-0.026 0.707,0.108 -0.177,1.134 -0.455,2.618 -0.758,3.725 0,0 -1.669,-0.054 -2.68,-0.054 h -3.895 c 0,0 -1.77,0.027 -2.832,0.054 -0.151,-0.162 -0.151,-0.729 0,-0.891 1.543,-0.135 1.82,-0.216 1.82,-2.456 v -5.831 c 0,-2.24 -0.277,-2.348 -1.82,-2.456 -0.151,-0.162 -0.151,-0.729 0,-0.891 1.088,0.027 2.807,0.054 2.807,0.054 h 5.234 c 0.506,0 0.682,-0.054 1.036,-0.107 0.051,0 0.076,0.026 0.076,0.081 0.05,0.188 0.354,2.294 0.455,3.212 -0.202,0.107 -0.43,0.162 -0.683,0.135 -0.455,-1.538 -0.784,-2.43 -2.352,-2.43 H 80.08 c -0.48,0 -0.809,0.297 -0.809,0.756 v 3.833 h 1.441 c 1.77,-0.026 1.693,-0.297 1.744,-1.512 0.127,-0.135 0.582,-0.135 0.708,0 -0.025,0.675 -0.05,1.161 -0.05,1.917 0,0.756 0.024,1.188 0.05,1.971 -0.126,0.135 -0.581,0.135 -0.708,0 -0.051,-0.999 0.051,-1.512 -1.744,-1.512 h -1.439 z" id="path4916-1"></path><path d="m 93.986,124.001 c 4.222,0 6.295,2.808 6.295,6.397 0,4.724 -3.135,6.127 -5.941,6.127 -2.023,0 -2.934,-0.054 -3.691,-0.054 -1.113,0 -1.77,0.027 -2.832,0.054 -0.152,-0.162 -0.152,-0.729 0,-0.891 1.543,-0.135 1.82,-0.216 1.82,-2.456 v -5.831 c 0,-2.24 -0.277,-2.348 -1.82,-2.456 -0.152,-0.162 -0.152,-0.729 0,-0.891 1.087,0.027 1.719,0.054 2.807,0.054 0.48,0.001 2.704,-0.053 3.362,-0.053 z m -0.254,11.634 c 2.781,0 4.35,-0.999 4.35,-4.777 0,-2.808 -0.582,-5.966 -4.83,-5.966 -0.986,0 -1.617,0.162 -1.617,0.837 v 8.691 c 0,0.756 0.176,1.215 2.097,1.215 z" id="path4918-3"></path><path d="m 106.119,133.179 c 0,2.24 0.277,2.349 1.82,2.456 0.151,0.162 0.151,0.729 0,0.891 -1.088,-0.026 -1.72,-0.054 -2.807,-0.054 -1.113,0 -1.77,0.027 -2.832,0.054 -0.151,-0.162 -0.151,-0.729 0,-0.891 1.543,-0.135 1.82,-0.216 1.82,-2.456 v -5.831 c 0,-2.24 -0.277,-2.348 -1.82,-2.456 -0.151,-0.162 -0.151,-0.729 0,-0.891 1.088,0.027 1.719,0.054 2.807,0.054 1.112,0 1.77,-0.026 2.832,-0.054 0.151,0.162 0.151,0.729 0,0.891 -1.543,0.135 -1.82,0.216 -1.82,2.456 v 5.831 z" id="path4920-2"></path><path d="m 115.117,135.635 c 0.152,0.162 0.152,0.729 0,0.891 -0.936,-0.026 -2.199,-0.054 -3.236,-0.054 -0.985,0 -1.314,0.027 -2.25,0.054 -0.151,-0.162 -0.151,-0.729 0,-0.891 1.1,-0.081 1.861,-0.248 2.529,-1.916 l 5.62,-14.045 c 0.288,-0.724 0.479,-0.964 0.853,-0.964 0.354,0 0.498,0.289 0.682,0.811 l 5.184,14.63 c 0.468,1.39 1.295,1.39 2.275,1.484 0.152,0.162 0.152,0.729 0,0.891 -0.936,-0.026 -1.846,-0.054 -2.883,-0.054 -0.985,0 -2.376,0.027 -3.312,0.054 -0.151,-0.162 -0.151,-0.729 0,-0.891 1.204,-0.092 2.247,0.006 1.871,-1.106 l -1.542,-4.562 h -5.26 c -0.606,0 -0.758,0.107 -0.885,0.459 l -1.391,3.913 c -0.393,1.109 0.795,1.225 1.745,1.296 z m 5.386,-6.802 -2.452,-7.207 H 118 l -2.533,6.848 c -0.106,0.292 0.076,0.359 0.637,0.359 h 4.399 z" id="path4922-9"></path></g></g></svg>
</svg>