<?xml version="1.0" encoding="UTF-8" standalone="no"?>
<!-- Generator: Adobe Illustrator 15.1.0, SVG Export Plug-In . SVG Version: 6.00 Build 0)  -->
<svg xmlns:dc="http://purl.org/dc/elements/1.1/" xmlns:cc="http://creativecommons.org/ns#" xmlns:rdf="http://www.w3.org/1999/02/22-rdf-syntax-ns#" xmlns:svg="http://www.w3.org/2000/svg" xmlns="http://www.w3.org/2000/svg" xmlns:xlink="http://www.w3.org/1999/xlink" xmlns:sodipodi="http://sodipodi.sourceforge.net/DTD/sodipodi-0.dtd" xmlns:inkscape="http://www.inkscape.org/namespaces/inkscape" version="1.1" id="svg3857" inkscape:version="0.46" sodipodi:docname="Wikipedia-logo-v2-tet-v2.svg" x="0px" y="0px" width="135px" height="155px" viewBox="0 0 135 155" enable-background="new 0 0 135 155" xml:space="preserve" sodipodi:version="0.32" inkscape:output_extension="org.inkscape.output.svg.inkscape"><metadata id="metadata698"><rdf:rdf><cc:work rdf:about=""><dc:format>image/svg+xml</dc:format><dc:type rdf:resource="http://purl.org/dc/dcmitype/StillImage"></dc:type></cc:work></rdf:rdf></metadata><defs id="defs3"><radialGradient r="68.686401" cy="87.823196" cx="-145.4702" gradientTransform="matrix(1,0,0,-1,192.3999,143.0996)" gradientUnits="userSpaceOnUse" id="radialGradient5395" xlink:href="#SVGID_1_" inkscape:collect="always"></radialGradient><linearGradient y2="97.232101" x2="112.7331" y1="24.481001" x1="66.232399" gradientUnits="userSpaceOnUse" id="linearGradient5391" xlink:href="#SVGID_2_" inkscape:collect="always"></linearGradient><linearGradient y2="65.136703" x2="83.798798" y1="65.136703" x1="54.715801" gradientUnits="userSpaceOnUse" id="linearGradient5379" xlink:href="#SVGID_5_" inkscape:collect="always"></linearGradient><linearGradient y2="29.9035" x2="-94.069099" y1="119.8076" x1="-123.5898" gradientTransform="matrix(1,0,0,-1,192.3999,143.0996)" gradientUnits="userSpaceOnUse" id="linearGradient5363" xlink:href="#SVGID_6_" inkscape:collect="always"></linearGradient><linearGradient y2="87.626701" x2="119.5471" y1="26.876499" x1="70.421898" gradientUnits="userSpaceOnUse" id="linearGradient5360" xlink:href="#SVGID_7_" inkscape:collect="always"></linearGradient><linearGradient y2="31.998501" x2="-87.569702" y1="122.1328" x1="-117.166" gradientTransform="matrix(1,0,0,-1,192.3999,143.0996)" gradientUnits="userSpaceOnUse" id="linearGradient5357" xlink:href="#SVGID_8_" inkscape:collect="always"></linearGradient><linearGradient y2="106.3903" x2="79.683601" y1="25.2764" x1="54.653301" gradientUnits="userSpaceOnUse" id="linearGradient5354" xlink:href="#SVGID_9_" inkscape:collect="always"></linearGradient><linearGradient y2="24.6462" x2="-134.85719" y1="119.6328" x1="-115.3369" gradientTransform="matrix(1,0,0,-1,192.3999,143.0996)" gradientUnits="userSpaceOnUse" id="linearGradient5343" xlink:href="#SVGID_10_" inkscape:collect="always"></linearGradient><linearGradient y2="92.496101" x2="37.2481" y1="33.077099" x1="32.519001" gradientUnits="userSpaceOnUse" id="linearGradient5340" xlink:href="#SVGID_11_" inkscape:collect="always"></linearGradient><linearGradient y2="32.797901" x2="-171.9462" y1="126.8398" x1="-152.6201" gradientTransform="matrix(1,0,0,-1,192.3999,143.0996)" gradientUnits="userSpaceOnUse" id="linearGradient5337" xlink:href="#SVGID_12_" inkscape:collect="always"></linearGradient><linearGradient y2="35.585701" x2="-130.14281" y1="35.625" x1="-130.1348" gradientTransform="matrix(1,0,0,-1,192.3999,143.0996)" gradientUnits="userSpaceOnUse" id="linearGradient5334" xlink:href="#SVGID_13_" inkscape:collect="always"></linearGradient><linearGradient y2="25.888" x2="-140.54491" y1="120.3223" x1="-121.1382" gradientTransform="matrix(1,0,0,-1,192.3999,143.0996)" gradientUnits="userSpaceOnUse" id="linearGradient5329" xlink:href="#SVGID_14_" inkscape:collect="always"></linearGradient><linearGradient y2="28.8524" x2="-155.006" y1="123.3525" x1="-135.58591" gradientTransform="matrix(1,0,0,-1,192.3999,143.0996)" gradientUnits="userSpaceOnUse" id="linearGradient5326" xlink:href="#SVGID_15_" inkscape:collect="always"></linearGradient><linearGradient y2="27.1346" x2="-146.8837" y1="121.9365" x1="-127.4014" gradientTransform="matrix(1,0,0,-1,192.3999,143.0996)" gradientUnits="userSpaceOnUse" id="linearGradient5323" xlink:href="#SVGID_16_" inkscape:collect="always"></linearGradient><linearGradient y2="24.9438" x2="-138.85201" y1="124.0039" x1="-118.4946" gradientTransform="matrix(1,0,0,-1,192.3999,143.0996)" gradientUnits="userSpaceOnUse" id="linearGradient5320" xlink:href="#SVGID_17_" inkscape:collect="always"></linearGradient><linearGradient y2="24.695299" x2="-134.7878" y1="119.1758" x1="-115.3716" gradientTransform="matrix(1,0,0,-1,192.3999,143.0996)" gradientUnits="userSpaceOnUse" id="linearGradient5317" xlink:href="#SVGID_18_" inkscape:collect="always"></linearGradient><linearGradient y2="83.6045" x2="-75.6362" y1="83.6045" x1="-175.4424" gradientTransform="matrix(1,0,0,-1,192.3999,143.0996)" gradientUnits="userSpaceOnUse" id="linearGradient5278" xlink:href="#SVGID_21_" inkscape:collect="always"></linearGradient><linearGradient y2="104.0801" x2="-83.541" y1="104.0801" x1="-175.14211" gradientTransform="matrix(1,0,0,-1,192.3999,143.0996)" gradientUnits="userSpaceOnUse" id="linearGradient5275" xlink:href="#SVGID_22_" inkscape:collect="always"></linearGradient><linearGradient y2="78.209" x2="-172.3853" y1="78.209" x1="-172.3853" gradientTransform="matrix(1,0,0,-1,192.3999,143.0996)" gradientUnits="userSpaceOnUse" id="linearGradient5267" xlink:href="#SVGID_23_" inkscape:collect="always"></linearGradient><linearGradient y2="90.476799" x2="-67.153198" y1="78.449203" x1="-175.7173" gradientTransform="matrix(1,0,0,-1,192.3999,143.0996)" gradientUnits="userSpaceOnUse" id="linearGradient5264" xlink:href="#SVGID_24_" inkscape:collect="always"></linearGradient><linearGradient y2="92.223099" x2="-52.131699" y1="78.4795" x1="-176.1851" gradientTransform="matrix(1,0,0,-1,192.3999,143.0996)" gradientUnits="userSpaceOnUse" id="linearGradient5261" xlink:href="#SVGID_25_" inkscape:collect="always"></linearGradient><linearGradient y2="51.952599" x2="117.1948" y1="71.326698" x1="21.2129" gradientUnits="userSpaceOnUse" id="linearGradient5258" xlink:href="#SVGID_26_" inkscape:collect="always"></linearGradient><linearGradient y2="30.732401" x2="27.9561" y1="30.732401" x1="23.471201" gradientUnits="userSpaceOnUse" id="linearGradient5252" xlink:href="#SVGID_27_" inkscape:collect="always"></linearGradient><linearGradient y2="29.204" x2="111.5455" y1="49.7188" x1="22.5742" gradientUnits="userSpaceOnUse" id="linearGradient5036" xlink:href="#SVGID_34_" inkscape:collect="always"></linearGradient><linearGradient y2="107.0898" x2="-126.4229" y1="107.0898" x1="-158.8101" gradientTransform="matrix(1,0,0,-1,192.3999,143.0996)" gradientUnits="userSpaceOnUse" id="linearGradient5024" xlink:href="#SVGID_35_" inkscape:collect="always"></linearGradient><linearGradient y2="107.8965" x2="-126.5454" y1="107.8965" x1="-158.4185" gradientTransform="matrix(1,0,0,-1,192.3999,143.0996)" gradientUnits="userSpaceOnUse" id="linearGradient5021" xlink:href="#SVGID_36_" inkscape:collect="always"></linearGradient><linearGradient y2="104.4332" x2="-154.15421" y1="97.627899" x1="-153.1255" gradientTransform="matrix(1,0,0,-1,192.3999,143.0996)" gradientUnits="userSpaceOnUse" id="linearGradient5018" xlink:href="#SVGID_37_" inkscape:collect="always"></linearGradient><linearGradient y2="38.790001" x2="39.487301" y1="46.373001" x1="38.737301" gradientUnits="userSpaceOnUse" id="linearGradient5013" xlink:href="#SVGID_38_" inkscape:collect="always"></linearGradient><radialGradient r="72.751701" cy="106.5996" cx="-138.2334" gradientTransform="matrix(1,0,0,-1,192.3999,143.0996)" gradientUnits="userSpaceOnUse" id="radialGradient5007" xlink:href="#SVGID_39_" inkscape:collect="always"></radialGradient><radialGradient id="SVGID_39_" cx="-138.2334" cy="106.5996" r="72.751701" gradientTransform="matrix(1,0,0,-1,192.3999,143.0996)" gradientUnits="userSpaceOnUse">
		<stop offset="0" style="stop-color:#000000;stop-opacity:0;" id="stop4840"></stop>
		<stop offset="0.80220002" style="stop-color:#000000;stop-opacity:0.08;" id="stop4842"></stop>
		<stop offset="1" style="stop-color:#000000;stop-opacity:0.3882353;" id="stop4844"></stop>
	</radialGradient><linearGradient id="SVGID_38_" gradientUnits="userSpaceOnUse" x1="38.737301" y1="46.373001" x2="39.487301" y2="38.790001">
		<stop offset="0" style="stop-color:#333333" id="stop4825"></stop>
		<stop offset="0.431" style="stop-color:#000000" id="stop4827"></stop>
		<stop offset="1" style="stop-color:#2E2E2E" id="stop4829"></stop>
	</linearGradient><linearGradient id="SVGID_37_" gradientUnits="userSpaceOnUse" x1="-153.1255" y1="97.627899" x2="-154.15421" y2="104.4332" gradientTransform="matrix(1,0,0,-1,192.3999,143.0996)">
		<stop offset="0" style="stop-color:#969696" id="stop4814"></stop>
		<stop offset="1" style="stop-color:#000000" id="stop4816"></stop>
	</linearGradient><linearGradient id="SVGID_36_" gradientUnits="userSpaceOnUse" x1="-158.4185" y1="107.8965" x2="-126.5454" y2="107.8965" gradientTransform="matrix(1,0,0,-1,192.3999,143.0996)">
		<stop offset="0" style="stop-color:#525252" id="stop4785"></stop>
		<stop offset="0.1856" style="stop-color:#333333" id="stop4787"></stop>
		<stop offset="0.354" style="stop-color:#AEAEAE" id="stop4789"></stop>
		<stop offset="0.4199" style="stop-color:#ADADAD" id="stop4791"></stop>
		<stop offset="0.4276" style="stop-color:#9D9D9D" id="stop4793"></stop>
		<stop offset="0.4433" style="stop-color:#818181" id="stop4795"></stop>
		<stop offset="0.4611" style="stop-color:#6A6A6A" id="stop4797"></stop>
		<stop offset="0.4814" style="stop-color:#585858" id="stop4799"></stop>
		<stop offset="0.506" style="stop-color:#4C4C4C" id="stop4801"></stop>
		<stop offset="0.539" style="stop-color:#444444" id="stop4803"></stop>
		<stop offset="0.6166" style="stop-color:#424242" id="stop4805"></stop>
		<stop offset="0.6684" style="stop-color:#454545" id="stop4807"></stop>
		<stop offset="1" style="stop-color:#BDBDBD" id="stop4809"></stop>
	</linearGradient><linearGradient id="SVGID_35_" gradientUnits="userSpaceOnUse" x1="-158.8101" y1="107.0898" x2="-126.4229" y2="107.0898" gradientTransform="matrix(1,0,0,-1,192.3999,143.0996)">
		<stop offset="0" style="stop-color:#696969" id="stop4770"></stop>
		<stop offset="0.3702" style="stop-color:#2E2E2E" id="stop4772"></stop>
		<stop offset="0.4554" style="stop-color:#424242" id="stop4774"></stop>
		<stop offset="0.6014" style="stop-color:#303030" id="stop4776"></stop>
		<stop offset="0.6947" style="stop-color:#4A4A4A" id="stop4778"></stop>
		<stop offset="1" style="stop-color:#666666" id="stop4780"></stop>
	</linearGradient><linearGradient id="SVGID_34_" gradientUnits="userSpaceOnUse" x1="22.5742" y1="49.7188" x2="111.5455" y2="29.204">
		<stop offset="0" style="stop-color:#FFFFFF" id="stop4743"></stop>
		<stop offset="0.6538" style="stop-color:#FFFFFF" id="stop4745"></stop>
		<stop offset="1" style="stop-color:#CBCCCE" id="stop4747"></stop>
	</linearGradient><linearGradient id="SVGID_27_" gradientUnits="userSpaceOnUse" x1="23.471201" y1="30.732401" x2="27.9561" y2="30.732401">
		<stop offset="0" style="stop-color:#E2E3E4" id="stop4316"></stop>
		<stop offset="0.5055" style="stop-color:#FFFFFF" id="stop4318"></stop>
	</linearGradient><linearGradient id="SVGID_26_" gradientUnits="userSpaceOnUse" x1="21.2129" y1="71.326698" x2="117.1948" y2="51.952599">
		<stop offset="0" style="stop-color:#EDEDEE" id="stop4299"></stop>
		<stop offset="0.4176" style="stop-color:#FFFFFF" id="stop4301"></stop>
		<stop offset="0.6264" style="stop-color:#F8F9F9" id="stop4303"></stop>
		<stop offset="1" style="stop-color:#BFC0C2" id="stop4305"></stop>
	</linearGradient><linearGradient id="SVGID_25_" gradientUnits="userSpaceOnUse" x1="-176.1851" y1="78.4795" x2="-52.131699" y2="92.223099" gradientTransform="matrix(1,0,0,-1,192.3999,143.0996)">
		<stop offset="0" style="stop-color:#FFFFFF" id="stop4274"></stop>
		<stop offset="0.078" style="stop-color:#F4F4F4" id="stop4276"></stop>
		<stop offset="0.3807" style="stop-color:#CECECE" id="stop4278"></stop>
		<stop offset="0.5396" style="stop-color:#BFBFBF" id="stop4280"></stop>
		<stop offset="0.8357" style="stop-color:#7C7C7C" id="stop4282"></stop>
		<stop offset="0.8996" style="stop-color:#A8A8A8" id="stop4284"></stop>
		<stop offset="0.9093" style="stop-color:#9A9A9A" id="stop4286"></stop>
		<stop offset="0.9327" style="stop-color:#7D7D7D" id="stop4288"></stop>
		<stop offset="0.9558" style="stop-color:#686868" id="stop4290"></stop>
		<stop offset="0.9785" style="stop-color:#5B5B5B" id="stop4292"></stop>
		<stop offset="1" style="stop-color:#575757" id="stop4294"></stop>
	</linearGradient><linearGradient id="SVGID_24_" gradientUnits="userSpaceOnUse" x1="-175.7173" y1="78.449203" x2="-67.153198" y2="90.476799" gradientTransform="matrix(1,0,0,-1,192.3999,143.0996)">
		<stop offset="0" style="stop-color:#FFFFFF" id="stop4249"></stop>
		<stop offset="0.078" style="stop-color:#F4F4F4" id="stop4251"></stop>
		<stop offset="0.3807" style="stop-color:#CECECE" id="stop4253"></stop>
		<stop offset="0.5396" style="stop-color:#BFBFBF" id="stop4255"></stop>
		<stop offset="0.8357" style="stop-color:#7C7C7C" id="stop4257"></stop>
		<stop offset="0.8996" style="stop-color:#A8A8A8" id="stop4259"></stop>
		<stop offset="0.9093" style="stop-color:#9A9A9A" id="stop4261"></stop>
		<stop offset="0.9327" style="stop-color:#7D7D7D" id="stop4263"></stop>
		<stop offset="0.9558" style="stop-color:#686868" id="stop4265"></stop>
		<stop offset="0.9785" style="stop-color:#5B5B5B" id="stop4267"></stop>
		<stop offset="1" style="stop-color:#575757" id="stop4269"></stop>
	</linearGradient><linearGradient id="SVGID_23_" gradientUnits="userSpaceOnUse" x1="-172.3853" y1="78.209" x2="-172.3853" y2="78.209" gradientTransform="matrix(1,0,0,-1,192.3999,143.0996)">
		<stop offset="0" style="stop-color:#FFFFFF" id="stop4224"></stop>
		<stop offset="0.078" style="stop-color:#F4F4F4" id="stop4226"></stop>
		<stop offset="0.3807" style="stop-color:#CECECE" id="stop4228"></stop>
		<stop offset="0.5396" style="stop-color:#BFBFBF" id="stop4230"></stop>
		<stop offset="0.8357" style="stop-color:#7C7C7C" id="stop4232"></stop>
		<stop offset="0.8996" style="stop-color:#A8A8A8" id="stop4234"></stop>
		<stop offset="0.9093" style="stop-color:#9A9A9A" id="stop4236"></stop>
		<stop offset="0.9327" style="stop-color:#7D7D7D" id="stop4238"></stop>
		<stop offset="0.9558" style="stop-color:#686868" id="stop4240"></stop>
		<stop offset="0.9785" style="stop-color:#5B5B5B" id="stop4242"></stop>
		<stop offset="1" style="stop-color:#575757" id="stop4244"></stop>
	</linearGradient><linearGradient id="SVGID_22_" gradientUnits="userSpaceOnUse" x1="-175.14211" y1="104.0801" x2="-83.541" y2="104.0801" gradientTransform="matrix(1,0,0,-1,192.3999,143.0996)">
		<stop offset="0" style="stop-color:#A0A0A0" id="stop4205"></stop>
		<stop offset="0.0769" style="stop-color:#656767" id="stop4207"></stop>
		<stop offset="1" style="stop-color:#717375" id="stop4209"></stop>
	</linearGradient><linearGradient id="SVGID_21_" gradientUnits="userSpaceOnUse" x1="-175.4424" y1="83.6045" x2="-75.6362" y2="83.6045" gradientTransform="matrix(1,0,0,-1,192.3999,143.0996)">
		<stop offset="0" style="stop-color:#555555" id="stop4198"></stop>
		<stop offset="1" style="stop-color:#231F20" id="stop4200"></stop>
	</linearGradient><linearGradient id="SVGID_18_" gradientUnits="userSpaceOnUse" x1="-115.3716" y1="119.1758" x2="-134.7878" y2="24.695299" gradientTransform="matrix(1,0,0,-1,192.3999,143.0996)">
		<stop offset="0" style="stop-color:#FFFFFF" id="stop4121"></stop>
		<stop offset="1" style="stop-color:#E4E5E6" id="stop4123"></stop>
	</linearGradient><linearGradient id="SVGID_17_" gradientUnits="userSpaceOnUse" x1="-118.4946" y1="124.0039" x2="-138.85201" y2="24.9438" gradientTransform="matrix(1,0,0,-1,192.3999,143.0996)">
		<stop offset="0" style="stop-color:#FFFFFF" id="stop4114"></stop>
		<stop offset="1" style="stop-color:#E4E5E6" id="stop4116"></stop>
	</linearGradient><linearGradient id="SVGID_16_" gradientUnits="userSpaceOnUse" x1="-127.4014" y1="121.9365" x2="-146.8837" y2="27.1346" gradientTransform="matrix(1,0,0,-1,192.3999,143.0996)">
		<stop offset="0" style="stop-color:#FFFFFF" id="stop4107"></stop>
		<stop offset="1" style="stop-color:#E4E5E6" id="stop4109"></stop>
	</linearGradient><linearGradient id="SVGID_15_" gradientUnits="userSpaceOnUse" x1="-135.58591" y1="123.3525" x2="-155.006" y2="28.8524" gradientTransform="matrix(1,0,0,-1,192.3999,143.0996)">
		<stop offset="0" style="stop-color:#FFFFFF" id="stop4100"></stop>
		<stop offset="1" style="stop-color:#E4E5E6" id="stop4102"></stop>
	</linearGradient><linearGradient id="SVGID_14_" gradientUnits="userSpaceOnUse" x1="-121.1382" y1="120.3223" x2="-140.54491" y2="25.888" gradientTransform="matrix(1,0,0,-1,192.3999,143.0996)">
		<stop offset="0" style="stop-color:#FFFFFF" id="stop4093"></stop>
		<stop offset="1" style="stop-color:#E4E5E6" id="stop4095"></stop>
	</linearGradient><linearGradient id="SVGID_13_" gradientUnits="userSpaceOnUse" x1="-130.1348" y1="35.625" x2="-130.14281" y2="35.585701" gradientTransform="matrix(1,0,0,-1,192.3999,143.0996)">
		<stop offset="0" style="stop-color:#FFFFFF" id="stop4082"></stop>
		<stop offset="1" style="stop-color:#E4E5E6" id="stop4084"></stop>
	</linearGradient><linearGradient id="SVGID_12_" gradientUnits="userSpaceOnUse" x1="-152.6201" y1="126.8398" x2="-171.9462" y2="32.797901" gradientTransform="matrix(1,0,0,-1,192.3999,143.0996)">
		<stop offset="0" style="stop-color:#FFFFFF" id="stop4075"></stop>
		<stop offset="1" style="stop-color:#E4E5E6" id="stop4077"></stop>
	</linearGradient><linearGradient id="SVGID_11_" gradientUnits="userSpaceOnUse" x1="32.519001" y1="33.077099" x2="37.2481" y2="92.496101">
		<stop offset="0.2198" style="stop-color:#989A9C" id="stop4068"></stop>
		<stop offset="0.2527" style="stop-color:#FFFFFF" id="stop4070"></stop>
	</linearGradient><linearGradient id="SVGID_10_" gradientUnits="userSpaceOnUse" x1="-115.3369" y1="119.6328" x2="-134.85719" y2="24.6462" gradientTransform="matrix(1,0,0,-1,192.3999,143.0996)">
		<stop offset="0" style="stop-color:#FFFFFF" id="stop4061"></stop>
		<stop offset="1" style="stop-color:#E4E5E6" id="stop4063"></stop>
	</linearGradient><linearGradient id="SVGID_9_" gradientUnits="userSpaceOnUse" x1="54.653301" y1="25.2764" x2="79.683601" y2="106.3903">
		<stop offset="0" style="stop-color:#FFFFFF" id="stop4036"></stop>
		<stop offset="0.7473" style="stop-color:#F9F9F9" id="stop4038"></stop>
		<stop offset="1" style="stop-color:#D5D7D8" id="stop4040"></stop>
	</linearGradient><linearGradient id="SVGID_8_" gradientUnits="userSpaceOnUse" x1="-117.166" y1="122.1328" x2="-87.569702" y2="31.998501" gradientTransform="matrix(1,0,0,-1,192.3999,143.0996)">
		<stop offset="0" style="stop-color:#FFFFFF" id="stop4029"></stop>
		<stop offset="1" style="stop-color:#E4E5E6" id="stop4031"></stop>
	</linearGradient><linearGradient id="SVGID_7_" gradientUnits="userSpaceOnUse" x1="70.421898" y1="26.876499" x2="119.5471" y2="87.626701">
		<stop offset="0" style="stop-color:#EFF0F0" id="stop4016"></stop>
		<stop offset="0.5914" style="stop-color:#F0F1F2" id="stop4018"></stop>
		<stop offset="0.599" style="stop-color:#787878" id="stop4020"></stop>
		<stop offset="0.6456" style="stop-color:#EEEFF0" id="stop4022"></stop>
		<stop offset="1" style="stop-color:#D8D9DB" id="stop4024"></stop>
	</linearGradient><linearGradient id="SVGID_6_" gradientUnits="userSpaceOnUse" x1="-123.5898" y1="119.8076" x2="-94.069099" y2="29.9035" gradientTransform="matrix(1,0,0,-1,192.3999,143.0996)">
		<stop offset="0" style="stop-color:#FFFFFF" id="stop3997"></stop>
		<stop offset="0.0094" style="stop-color:#FCFCFC" id="stop3999"></stop>
		<stop offset="0.0655" style="stop-color:#EEEEEE" id="stop4001"></stop>
		<stop offset="0.1342" style="stop-color:#E5E5E5" id="stop4003"></stop>
		<stop offset="0.2515" style="stop-color:#E3E3E3" id="stop4005"></stop>
		<stop offset="0.3357" style="stop-color:#8A8A8A" id="stop4007"></stop>
		<stop offset="0.4422" style="stop-color:#B8B8B8" id="stop4009"></stop>
		<stop offset="1" style="stop-color:#3B3B3B" id="stop4011"></stop>
	</linearGradient><linearGradient id="SVGID_5_" gradientUnits="userSpaceOnUse" x1="54.715801" y1="65.136703" x2="83.798798" y2="65.136703">
		<stop offset="0" style="stop-color:#231F20" id="stop3964"></stop>
		<stop offset="1" style="stop-color:#474747" id="stop3966"></stop>
	</linearGradient><linearGradient id="SVGID_2_" gradientUnits="userSpaceOnUse" x1="66.232399" y1="24.481001" x2="112.7331" y2="97.232101">
		<stop offset="0" style="stop-color:#8A8A8A" id="stop3935"></stop>
		<stop offset="0.5687" style="stop-color:#606060" id="stop3937"></stop>
		<stop offset="0.5914" style="stop-color:#FFFFFF" id="stop3939"></stop>
		<stop offset="0.6116" style="stop-color:#585858" id="stop3941"></stop>
		<stop offset="1" style="stop-color:#303030" id="stop3943"></stop>
	</linearGradient><radialGradient id="SVGID_1_" cx="-145.4702" cy="87.823196" r="68.686401" gradientTransform="matrix(1,0,0,-1,192.3999,143.0996)" gradientUnits="userSpaceOnUse">
		<stop offset="0" style="stop-color:#FFFFFF" id="stop3922"></stop>
		<stop offset="0.4835" style="stop-color:#EAEAEB" id="stop3924"></stop>
		<stop offset="0.9451" style="stop-color:#A9ABAE" id="stop3926"></stop>
		<stop offset="1" style="stop-color:#999B9E" id="stop3928"></stop>
	</radialGradient></defs><sodipodi:namedview id="namedview4848" showgrid="false" pagecolor="#ffffff" objecttolerance="10" guidetolerance="10" inkscape:cy="19.424381" inkscape:guide-bbox="true" showguides="true" inkscape:zoom="4.5320112" inkscape:pageopacity="0" gridtolerance="10" inkscape:window-height="723" bordercolor="#666666" inkscape:window-y="24" borderopacity="1" inkscape:pageshadow="2" inkscape:window-x="0" inkscape:window-width="1024" inkscape:cx="78.684196" inkscape:current-layer="svg3857" inkscape:window-maximized="0">
	<sodipodi:guide id="globe_top" orientation="0,1" position="0,140"></sodipodi:guide>
	<sodipodi:guide id="globe_left" orientation="1,0" position="16,0"></sodipodi:guide>
	<sodipodi:guide id="globe_right" orientation="1,0" position="119,0"></sodipodi:guide>
	<sodipodi:guide id="globe_bottom" orientation="0,1" position="0,47"></sodipodi:guide>
	<sodipodi:guide id="wordmark_top" orientation="0,1" position="8,40"></sodipodi:guide>
	<sodipodi:guide id="wordmark_bottom" orientation="0,1" position="8,22.5"></sodipodi:guide>
	<sodipodi:guide id="subtitle_top" orientation="0,1" position="0,17"></sodipodi:guide>
	<sodipodi:guide id="subtitle_bottom" orientation="0,1" position="0,8"></sodipodi:guide>
	<sodipodi:guide id="wordmark_left" orientation="1,0" position="8,40"></sodipodi:guide>
	<sodipodi:guide id="wordmark_right" orientation="1,0" position="127,40"></sodipodi:guide>
</sodipodi:namedview><path transform="matrix(8.822153e-2,0,0,8.822153e-2,16.751223,126.43491)" style="font-size:144px;font-style:normal;font-variant:normal;font-weight:normal;font-stretch:normal;fill:#000000;fill-opacity:1;stroke:none;stroke-width:1px;stroke-linecap:butt;stroke-linejoin:miter;stroke-opacity:1;font-family:Linux Libertine Capitals;-inkscape-font-specification:Linux Libertine Capitals" d="M 91.823278,179.61752 L 78.719278,179.61752 L 78.719278,150.81752 C 78.719278,147.36152 80.447282,144.48152 83.903278,144.48152 L 99.023278,144.48152 C 109.82327,144.48152 112.12728,150.24153 115.29528,160.17752 C 117.02328,160.46552 118.60728,160.17752 120.04728,159.45752 C 119.32728,153.55352 117.16728,139.72952 116.87928,138.57752 C 116.87928,138.28952 116.73528,138.14552 116.30328,138.14552 C 113.85528,138.57752 112.70327,138.72152 109.24728,138.72152 L 72.527278,138.72152 C 72.527278,138.72152 61.151271,138.57752 53.951278,138.43352 C 53.087279,139.29752 53.087279,142.32152 53.951278,143.18552 C 64.031268,143.61752 66.479278,144.33753 66.479278,156.28952 L 66.479278,214.03352 C 66.479278,225.9855 64.031268,226.70552 53.951278,227.13752 C 53.087279,228.00152 53.087279,231.02552 53.951278,231.88952 C 61.007271,231.74552 72.671278,231.60152 72.671278,231.60152 L 103.63128,231.60152 C 110.54327,231.60152 122.06328,231.88952 122.06328,231.88952 C 124.07928,224.68952 126.23928,215.18551 127.39128,207.84152 C 125.80728,207.12152 124.22328,206.68952 122.35128,207.12152 C 119.47128,217.48951 114.43127,225.98552 103.48728,225.98552 L 83.903278,225.98552 C 80.735281,225.98552 78.719278,223.68151 78.719278,219.79352 L 78.719278,185.08952 L 91.823278,185.08952 C 104.06327,185.08952 104.49528,188.40152 104.92728,194.88152 C 105.79128,195.74552 108.81528,195.74552 109.67928,194.88152 C 109.53528,189.84152 109.39128,187.10551 109.39128,182.20952 C 109.39128,177.31352 109.53528,174.14551 109.67928,169.82552 C 108.81528,168.96152 105.79128,168.96152 104.92728,169.82552 C 104.49528,177.74551 104.06327,179.61752 91.823278,179.61752 M 158.03853,180.04952 C 157.60653,180.62552 156.59853,182.06551 156.59853,180.04952 C 156.59853,175.72952 157.31853,169.10552 157.31853,169.10552 C 157.31853,168.38552 156.74253,167.95352 155.59053,167.95352 C 151.55853,169.53752 145.65452,170.83352 135.71853,172.12952 C 135.43053,172.99352 135.71853,175.29752 136.00653,176.16152 C 143.78252,176.88152 145.36653,177.60153 145.36653,185.95352 L 145.36653,214.03352 C 145.36653,225.8415 143.92652,226.41752 135.28653,227.13752 C 134.42253,228.00152 134.42253,231.02552 135.28653,231.88952 C 141.19052,231.74552 144.93453,231.60152 151.12653,231.60152 C 156.74252,231.60152 159.33453,231.74552 165.38253,231.88952 C 166.24653,231.02552 166.24653,228.00152 165.38253,227.13752 C 158.03854,226.41752 156.74253,225.8415 156.74253,214.03352 L 156.74253,190.41752 C 156.74253,187.39352 158.03853,185.66552 159.19053,184.36952 C 164.66252,179.04152 170.27853,175.87352 175.89453,175.87352 C 178.77453,175.87352 181.79853,177.74552 183.52653,181.05752 C 184.96653,183.93751 185.25453,187.82552 185.25453,192.14552 L 185.25453,214.03352 C 185.25453,225.8415 183.81452,226.41752 176.32653,227.13752 C 175.60653,228.00152 175.60653,231.02552 176.32653,231.88952 C 182.37452,231.74552 185.25453,231.60152 191.01453,231.60152 C 196.91852,231.60152 200.08653,231.74552 206.27853,231.88952 C 206.99853,231.02552 206.99853,228.00152 206.27853,227.13752 C 198.21454,226.41752 196.63053,225.8415 196.63053,214.03352 L 196.63053,192.57752 C 196.63053,184.65752 196.05452,177.74551 192.74253,173.28152 C 190.29453,170.11352 185.83052,168.38552 180.79053,168.38552 C 173.73454,168.38552 166.82252,170.25753 158.03853,180.04952 M 215.51703,211.72952 C 216.09303,218.78551 216.52503,225.55352 216.52503,231.60152 C 217.96503,231.31352 219.40503,231.16952 220.12503,231.16952 C 221.13303,231.16952 221.99703,231.16952 223.00503,231.45752 C 226.89302,232.46552 230.78103,233.04152 236.10903,233.04152 C 244.17302,233.04152 259.00503,229.1535 259.00503,214.89752 C 259.00503,205.10553 251.80502,199.48951 242.15703,195.74552 C 233.51704,192.43352 227.75703,190.27351 227.75703,182.35352 C 227.75703,176.44952 232.94103,173.13752 237.83703,173.13752 C 241.00502,173.13752 249.35703,174.28953 251.22903,186.52952 C 252.09303,187.39352 254.97303,187.24952 255.83703,186.38552 C 255.83703,181.20152 256.55703,175.87351 256.70103,171.12152 C 252.23703,170.40152 245.32502,168.38552 237.83703,168.38552 C 227.18104,168.38552 217.53303,175.29753 217.53303,184.51352 C 217.53303,195.02551 222.28504,199.48952 233.37303,204.09752 C 245.18102,209.13751 248.06103,212.01752 248.06103,218.20952 C 248.06103,225.26551 241.14902,228.28952 235.82103,228.28952 C 230.20503,228.28952 227.03703,226.41752 225.59703,224.83352 C 222.14103,221.52152 220.84503,215.18551 219.98103,211.58552 C 219.11703,210.72152 216.38103,210.86552 215.51703,211.72952 M 276.69003,145.34552 C 276.69003,149.08951 280.14603,152.83352 283.60203,152.83352 C 287.63402,152.83352 291.09003,149.08951 291.09003,145.92152 C 291.09003,142.46552 288.06602,138.43352 284.17803,138.43352 C 280.72203,138.43352 276.69003,141.88952 276.69003,145.34552 M 289.79403,214.03352 L 289.79403,185.37752 C 289.79403,178.17752 290.37003,168.96152 290.37003,168.96152 C 290.37003,168.38552 289.65003,167.95352 288.49803,167.95352 C 284.32203,169.53752 278.70602,170.83352 268.77003,172.12952 C 268.48203,172.99352 268.77003,175.29752 269.05803,176.16152 C 276.83402,177.02552 278.41803,177.74552 278.41803,185.95352 L 278.41803,214.03352 C 278.41803,225.9855 276.83402,226.41752 268.05003,227.13752 C 267.18603,228.00152 267.18603,231.02552 268.05003,231.88952 C 274.09802,231.74552 277.84203,231.60152 284.17803,231.60152 C 290.37002,231.60152 293.97003,231.74552 300.16203,231.88952 C 301.02603,231.02552 301.02603,228.00152 300.16203,227.13752 C 291.37804,226.56152 289.79403,225.9855 289.79403,214.03352 M 315.20778,214.03352 C 315.20778,225.9855 313.62377,226.56152 305.55978,227.13752 C 304.69578,228.00152 304.69578,231.02552 305.55978,231.88952 C 311.60777,231.74552 314.91978,231.60152 320.96778,231.60152 C 326.00777,231.60152 327.87978,231.74552 334.07178,231.88952 C 334.93578,231.02552 334.93578,228.00152 334.07178,227.13752 C 328.16778,226.56152 326.58378,225.9855 326.58378,214.03352 L 326.58378,201.07352 C 329.89577,201.21752 331.91178,202.22552 334.79178,206.25752 L 345.30378,221.08952 C 348.18378,225.26551 348.61578,226.99352 348.61578,228.86552 L 348.61578,231.16952 C 348.61578,231.60152 348.75978,231.88952 349.19178,231.88952 C 352.07178,231.74552 354.80778,231.60152 359.12778,231.60152 C 363.59177,231.60152 366.61578,231.74552 370.93578,231.88952 C 371.79978,231.02552 371.79978,228.00152 370.93578,227.13752 C 366.03978,226.56152 361.71977,225.98551 358.55178,221.08952 L 341.70378,196.17752 C 341.27178,195.60152 340.98378,194.88152 340.98378,194.16152 C 340.98378,193.58552 341.12778,193.15352 341.55978,192.72152 L 352.50378,180.62552 C 356.67977,176.30552 361.14379,174.57752 368.34378,174.28952 C 369.20778,173.42552 369.20778,170.40152 368.34378,169.53752 C 363.01578,169.68152 360.99977,169.82552 355.81578,169.82552 C 350.34378,169.82552 347.89577,169.68152 342.56778,169.53752 C 341.70378,170.40152 341.70378,173.42552 342.56778,174.28952 C 351.20777,174.72152 346.59978,180.19352 345.15978,181.63352 C 337.52779,189.98551 330.32777,196.32152 326.58378,197.47352 L 326.58378,147.64952 C 326.58378,138.28953 327.15978,132.52952 327.15978,132.52952 C 327.15978,131.52152 326.58378,131.08952 325.28778,131.08952 C 321.68778,132.52952 310.88777,134.54552 305.12778,134.97752 C 304.83978,136.12952 305.12778,138.43352 305.99178,139.29752 C 313.47977,139.72952 315.20778,139.00953 315.20778,151.10552 L 315.20778,214.03352 M 385.97253,214.03352 C 385.97253,225.9855 384.38852,226.70552 375.60453,227.13752 C 374.74053,228.00152 374.74053,231.02552 375.60453,231.88952 C 381.65252,231.74552 385.39653,231.60152 391.73253,231.60152 C 397.92452,231.60152 401.52453,231.74552 407.71653,231.88952 C 408.58053,231.02552 408.58053,228.00152 407.71653,227.13752 C 398.93254,226.70552 397.34853,225.9855 397.34853,214.03352 L 397.34853,147.64952 C 397.34853,138.28953 397.92453,132.52952 397.92453,132.52952 C 397.92453,131.52152 397.34853,131.08952 396.05253,131.08952 C 392.45253,132.52952 381.65252,134.54552 375.89253,134.97752 C 375.60453,136.12952 375.89253,138.43352 376.75653,139.29752 C 384.24452,139.72952 385.97253,139.00953 385.97253,151.10552 L 385.97253,214.03352 M 416.16528,202.08152 C 416.16528,216.7695 426.1013,233.04152 446.40528,233.04152 C 467.86126,233.04152 476.93328,215.1855 476.93328,200.78552 C 476.93328,185.80953 469.01326,168.38552 446.69328,168.38552 C 427.2533,168.38552 416.16528,183.79354 416.16528,202.08152 M 445.10928,173.13752 C 457.49327,173.13752 464.54928,184.22554 464.54928,205.39352 C 464.54928,224.4015 455.76527,228.28952 448.99728,228.28952 C 434.02129,228.28952 428.54928,209.85751 428.54928,198.76952 C 428.54928,186.24153 433.01329,173.13752 445.10928,173.13752 M 508.02378,183.36152 C 512.48777,178.75352 518.24778,175.00952 522.56778,175.00952 C 531.78377,175.00952 539.70378,185.37753 539.70378,201.64952 C 539.70378,213.4575 535.52776,228.14552 519.39978,228.14552 C 516.80778,228.14552 511.76778,227.42551 509.17578,225.12152 C 506.15178,222.52952 505.71978,221.80951 505.71978,216.48152 L 505.71978,189.69752 C 505.71978,186.67352 506.15178,185.37751 508.02378,183.36152 M 506.87178,178.60952 C 506.29578,179.18552 505.43178,179.32952 505.43178,178.17752 C 505.43178,172.99352 506.00778,168.96152 506.00778,168.96152 C 506.00778,168.38552 505.28778,167.95352 504.13578,167.95352 C 500.10378,169.53752 494.63177,170.83352 484.69578,172.12952 C 484.40778,172.99352 484.69578,175.29752 484.98378,176.16152 C 492.75977,176.88152 494.34378,177.74552 494.34378,185.95352 L 494.34378,247.44152 C 494.34378,259.3935 492.75977,260.11352 483.97578,260.54552 C 483.11178,261.40952 483.11178,264.43352 483.97578,265.29752 C 490.02377,265.15352 493.76778,265.00952 500.10378,265.00952 C 506.87177,265.00952 511.33578,265.15352 517.52778,265.29752 C 518.39178,264.43352 518.39178,261.40952 517.52778,260.54552 C 507.30379,259.96952 505.71978,259.3935 505.71978,247.44152 L 505.71978,231.88952 C 505.71978,230.01752 506.15178,230.30552 507.73578,230.88152 C 511.19177,232.32152 515.65578,233.04152 520.26378,233.04152 C 528.32777,233.04152 535.52778,230.59351 541.43178,224.97752 C 548.19977,218.35352 552.08778,209.42551 552.08778,197.76152 C 552.08778,182.49753 541.28776,168.38552 526.59978,168.38552 C 521.27178,168.38552 513.35177,171.98552 506.87178,178.60952 M 597.36003,134.97752 L 586.41603,152.11352 C 585.26403,153.98551 584.83203,154.56152 584.83203,156.14552 C 584.83203,157.15352 585.84003,158.01752 586.84803,158.01752 C 587.85603,158.01752 589.00803,157.44151 591.16803,155.28152 L 607.72803,139.58552 L 607.29603,138.00152 C 603.98403,134.83352 600.24003,134.68952 599.37603,134.68952 C 598.65603,134.68952 597.79203,134.83352 597.36003,134.97752 M 576.33603,190.99352 C 579.07203,174.72153 589.15203,173.42552 592.60803,173.42552 C 598.08002,173.42552 604.56003,176.44953 604.56003,188.54552 C 604.56003,189.84152 603.98403,190.56152 602.40003,190.56152 L 576.33603,190.99352 M 614.06403,218.20952 C 608.73603,223.68151 604.56002,225.98552 596.20803,225.98552 C 591.02403,225.98552 584.97602,222.96151 580.51203,215.61752 C 577.63203,210.86552 575.90403,204.24151 575.90403,195.88952 L 614.20803,196.17752 C 615.93603,196.17752 616.94403,195.31352 616.94403,193.72952 C 616.94403,181.63353 612.62401,168.67352 592.60803,168.67352 C 580.08004,168.67352 563.80803,180.62554 563.80803,202.51352 C 563.80803,210.57751 565.82403,218.35352 570.57603,223.82552 C 575.47202,229.58551 582.24004,233.04152 592.60803,233.04152 C 603.55202,233.04152 611.32803,228.00151 617.08803,220.51352 C 616.65603,219.07352 615.79203,218.35352 614.06403,218.20952 M 673.41003,213.74552 C 673.41003,216.48151 673.12203,217.63352 671.10603,219.36152 C 665.77803,223.96951 661.17002,226.27352 657.57003,226.27352 C 649.79404,226.27352 641.73003,217.7775 641.73003,199.77752 C 641.73003,189.40953 643.74603,183.64951 645.90603,180.62552 C 650.37002,173.85752 656.41803,173.42552 659.29803,173.42552 C 664.48202,173.42552 668.08203,175.29752 670.96203,178.60952 C 672.97803,180.91351 673.41003,181.92152 673.41003,186.38552 L 673.41003,213.74552 M 671.82603,224.40152 C 672.40203,223.82552 673.55403,223.53752 673.55403,224.54552 C 673.55403,228.00151 675.13803,233.04152 675.13803,233.04152 C 676.29003,233.47352 676.72203,233.32952 677.87403,233.04152 C 681.04202,230.44952 686.51404,228.28952 695.29803,227.28152 C 696.16203,226.41752 696.16203,224.25752 695.29803,223.39352 C 686.08204,222.67352 684.78603,219.93751 684.78603,212.88152 L 684.78603,147.64952 C 684.78603,138.28953 685.36203,132.52952 685.36203,132.52952 C 685.36203,131.52152 684.78603,131.08952 683.49003,131.08952 C 679.89003,132.52952 669.09002,134.54552 663.33003,134.97752 C 663.04203,136.12952 663.33003,138.43352 664.19403,139.29752 C 671.68202,139.72952 673.41003,139.00953 673.41003,151.10552 L 673.41003,169.53752 C 673.41003,170.54552 673.12203,170.83352 672.11403,170.83352 C 671.53803,170.83352 665.63402,168.38552 660.88203,168.38552 C 651.37804,168.38552 645.04202,171.55352 639.28203,177.02552 C 633.09003,183.21751 629.34603,191.71353 629.34603,202.36952 C 629.34603,220.0815 638.27404,233.04152 653.82603,233.04152 C 659.44202,233.04152 664.77004,230.16151 671.82603,224.40152 M 709.53378,145.34552 C 709.53378,149.08951 712.98978,152.83352 716.44578,152.83352 C 720.47777,152.83352 723.93378,149.08951 723.93378,145.92152 C 723.93378,142.46552 720.90977,138.43352 717.02178,138.43352 C 713.56578,138.43352 709.53378,141.88952 709.53378,145.34552 M 722.63778,214.03352 L 722.63778,185.37752 C 722.63778,178.17752 723.21378,168.96152 723.21378,168.96152 C 723.21378,168.38552 722.49378,167.95352 721.34178,167.95352 C 717.16578,169.53752 711.54977,170.83352 701.61378,172.12952 C 701.32578,172.99352 701.61378,175.29752 701.90178,176.16152 C 709.67777,177.02552 711.26178,177.74552 711.26178,185.95352 L 711.26178,214.03352 C 711.26178,225.9855 709.67777,226.41752 700.89378,227.13752 C 700.02978,228.00152 700.02978,231.02552 700.89378,231.88952 C 706.94177,231.74552 710.68578,231.60152 717.02178,231.60152 C 723.21377,231.60152 726.81378,231.74552 733.00578,231.88952 C 733.86978,231.02552 733.86978,228.00152 733.00578,227.13752 C 724.22179,226.56152 722.63778,225.9855 722.63778,214.03352 M 777.85953,198.04952 L 777.85953,217.20152 C 777.85953,219.07351 776.99553,220.08152 775.84353,220.94552 C 772.09953,223.96951 767.20352,227.13752 763.17153,227.13752 C 755.97154,227.13752 752.80353,221.37751 752.80353,216.91352 C 752.80353,210.43352 755.82754,203.95351 766.48353,201.07352 L 777.85953,198.04952 M 777.85953,224.68952 C 778.72353,227.71351 781.17154,233.04152 788.94753,233.04152 C 796.00352,233.04152 801.18753,227.28152 801.18753,226.56152 C 801.18753,225.55352 799.89153,224.11352 799.31553,224.11352 C 798.45153,224.11352 797.87553,226.41752 794.85153,226.41752 C 789.23553,226.41752 789.09153,220.80151 789.09153,214.17752 L 789.09153,192.72152 C 789.09153,172.27354 777.85952,168.38552 767.34753,168.38552 C 755.53954,168.38552 743.58753,176.59352 743.58753,184.36952 C 743.58753,187.82551 745.31553,189.40952 748.62753,189.40952 C 752.80352,189.40952 754.96353,186.52951 754.96353,184.65752 C 754.96353,183.64952 754.81953,182.64152 754.53153,182.06552 C 754.38753,181.63352 754.24353,180.76952 754.24353,179.18552 C 754.24353,174.72152 760.72353,173.13752 766.19553,173.13752 C 771.09152,173.13752 777.85953,175.58553 777.85953,191.85752 C 777.85953,192.86552 777.42753,193.44152 776.99553,193.58552 L 764.61153,196.60952 C 750.78754,200.06551 740.85153,207.69753 740.85153,217.48952 C 740.85153,228.86551 748.91554,233.04152 758.99553,233.04152 C 765.61952,233.04152 768.35553,231.88951 774.69153,226.99352 L 777.57153,224.68952 L 777.85953,224.68952 M 851.16003,214.03352 C 851.16003,225.9855 849.57602,226.70552 840.79203,227.13752 C 839.92803,228.00152 839.92803,231.02552 840.79203,231.88952 C 846.84002,231.74552 850.58403,231.60152 856.92003,231.60152 C 863.11202,231.60152 866.71203,231.74552 872.90403,231.88952 C 873.76803,231.02552 873.76803,228.00152 872.90403,227.13752 C 864.12004,226.70552 862.53603,225.9855 862.53603,214.03352 L 862.53603,147.64952 C 862.53603,138.28953 863.11203,132.52952 863.11203,132.52952 C 863.11203,131.52152 862.53603,131.08952 861.24003,131.08952 C 857.64003,132.52952 846.84002,134.54552 841.08003,134.97752 C 840.79203,136.12952 841.08003,138.43352 841.94403,139.29752 C 849.43202,139.72952 851.16003,139.00953 851.16003,151.10552 L 851.16003,214.03352 M 888.40878,145.34552 C 888.40878,149.08951 891.86478,152.83352 895.32078,152.83352 C 899.35277,152.83352 902.80878,149.08951 902.80878,145.92152 C 902.80878,142.46552 899.78477,138.43352 895.89678,138.43352 C 892.44078,138.43352 888.40878,141.88952 888.40878,145.34552 M 901.51278,214.03352 L 901.51278,185.37752 C 901.51278,178.17752 902.08878,168.96152 902.08878,168.96152 C 902.08878,168.38552 901.36878,167.95352 900.21678,167.95352 C 896.04078,169.53752 890.42477,170.83352 880.48878,172.12952 C 880.20078,172.99352 880.48878,175.29752 880.77678,176.16152 C 888.55277,177.02552 890.13678,177.74552 890.13678,185.95352 L 890.13678,214.03352 C 890.13678,225.9855 888.55277,226.41752 879.76878,227.13752 C 878.90478,228.00152 878.90478,231.02552 879.76878,231.88952 C 885.81677,231.74552 889.56078,231.60152 895.89678,231.60152 C 902.08877,231.60152 905.68878,231.74552 911.88078,231.88952 C 912.74478,231.02552 912.74478,228.00152 911.88078,227.13752 C 903.09679,226.56152 901.51278,225.9855 901.51278,214.03352 M 961.34253,174.28952 C 969.11852,174.86552 969.83853,176.73752 966.81453,183.93752 L 955.29453,212.16152 C 952.84653,217.92151 952.12653,217.77751 949.96653,211.72952 L 939.45453,183.93752 C 937.00653,177.02552 934.99054,175.15352 944.06253,174.28952 C 944.92653,173.42552 944.92653,170.40152 944.06253,169.53752 C 938.73453,169.68152 934.70252,169.82552 928.79853,169.82552 C 923.75853,169.82552 921.45452,169.68152 916.12653,169.53752 C 915.26253,170.40152 915.26253,173.42552 916.12653,174.28952 C 924.33452,175.29752 924.76653,177.60152 927.64653,184.80152 L 946.07853,230.30552 C 946.94253,232.46551 947.80653,233.32952 949.67853,233.32952 C 951.11853,233.32952 951.98253,232.46551 953.13453,230.01752 L 972.28653,184.94552 C 975.02253,178.75352 976.60654,175.00952 984.67053,174.28952 C 985.53453,173.42552 985.53453,170.40152 984.67053,169.53752 C 981.50253,169.68152 978.91052,169.82552 975.16653,169.82552 C 969.83853,169.82552 966.67052,169.68152 961.34253,169.53752 C 960.47853,170.40152 960.47853,173.42552 961.34253,174.28952 M 1000.6613,185.95352 L 1000.6613,214.03352 C 1000.6613,225.9855 998.93327,226.56152 990.00528,227.13752 C 989.14128,228.00152 989.14128,231.02552 990.00528,231.88952 C 996.05327,231.74552 1000.6613,231.60152 1006.4213,231.60152 C 1012.3253,231.60152 1017.6533,231.74552 1023.8453,231.88952 C 1024.7093,231.02552 1024.7093,228.00152 1023.8453,227.13752 C 1013.7653,226.41752 1012.0373,225.9855 1012.0373,214.03352 L 1012.0373,194.01752 C 1012.0373,190.27352 1013.7653,186.96151 1015.4933,184.36952 C 1017.0773,182.06552 1020.3893,177.31352 1022.1173,177.31352 C 1023.1253,177.31352 1024.2773,177.45752 1025.1413,178.32152 C 1026.5813,179.76152 1028.0213,182.49752 1031.0453,182.49752 C 1034.5013,182.49752 1037.8133,178.89751 1037.8133,175.29752 C 1037.8133,172.56152 1035.2213,168.38552 1029.1733,168.38552 C 1022.4053,168.38552 1016.5013,174.72152 1013.1893,180.33752 C 1012.3253,181.92152 1011.8933,181.20152 1011.8933,180.48152 C 1011.8933,175.87352 1012.6133,168.96152 1012.6133,168.96152 C 1012.6133,168.38552 1011.8933,167.95352 1010.7413,167.95352 C 1006.7093,169.53752 1000.9493,170.83352 991.01328,172.12952 C 990.72528,172.99352 990.72528,175.29752 991.30128,176.16152 C 999.07727,176.88152 1000.6613,178.03352 1000.6613,185.95352 M 1056.4298,190.99352 C 1059.1658,174.72153 1069.2458,173.42552 1072.7018,173.42552 C 1078.1738,173.42552 1084.6538,176.44953 1084.6538,188.54552 C 1084.6538,189.84152 1084.0778,190.56152 1082.4938,190.56152 L 1056.4298,190.99352 M 1094.1578,218.20952 C 1088.8298,223.68151 1084.6538,225.98552 1076.3018,225.98552 C 1071.1178,225.98552 1065.0698,222.96151 1060.6058,215.61752 C 1057.7258,210.86552 1055.9978,204.24151 1055.9978,195.88952 L 1094.3018,196.17752 C 1096.0298,196.17752 1097.0378,195.31352 1097.0378,193.72952 C 1097.0378,181.63353 1092.7178,168.67352 1072.7018,168.67352 C 1060.1738,168.67352 1043.9018,180.62554 1043.9018,202.51352 C 1043.9018,210.57751 1045.9178,218.35352 1050.6698,223.82552 C 1055.5658,229.58551 1062.3338,233.04152 1072.7018,233.04152 C 1083.6458,233.04152 1091.4218,228.00151 1097.1818,220.51352 C 1096.7498,219.07352 1095.8858,218.35352 1094.1578,218.20952" id="subline"></path><g id="Wikipedia"><path id="path3898" d="M 18.757,118.893 C 18.757,118.893 18.39,118.147 18.265,117.899 C 17.431,116.247 17.449,116.159 16.606,116.047 C 16.37,116.016 16.248,115.986 16.248,115.869 L 16.248,115.346 L 16.319,115.295 C 17.842,115.293 21.231,115.293 21.231,115.293 L 21.361,115.336 L 21.361,115.857 C 21.361,115.976 21.276,116.037 21.103,116.037 L 20.747,116.088 C 19.847,116.158 19.994,116.526 20.592,117.717 L 26.269,129.332 L 26.463,129.385 L 31.503,117.424 C 31.678,116.942 31.651,116.6 31.426,116.399 C 31.2,116.204 31.041,116.087 30.457,116.063 L 29.984,116.04 C 29.926,116.04 29.871,116.019 29.818,115.979 C 29.766,115.942 29.739,115.893 29.739,115.834 L 29.739,115.336 L 29.811,115.285 C 31.231,115.285 35.505,115.285 35.505,115.285 L 35.563,115.336 L 35.563,115.834 C 35.563,115.969 35.486,116.037 35.334,116.037 C 34.588,116.07 34.035,116.232 33.677,116.521 C 33.318,116.812 33.038,117.212 32.837,117.734 C 32.837,117.734 28.202,128.342 26.616,131.869 C 26.009,133.025 25.412,132.919 24.887,131.836 C 23.778,129.552 20.655,122.623 20.655,122.623 L 18.757,118.893 z"></path><path id="path3900" d="M 27.853,115.287 C 27.853,115.287 24.65,115.277 23.224,115.287 L 23.153,115.338 L 23.153,115.834 C 23.153,115.895 23.179,115.943 23.231,115.98 C 23.284,116.019 23.338,116.039 23.396,116.039 L 23.625,116.064 C 24.208,116.087 24.476,116.241 24.556,116.336 C 24.695,116.506 24.764,116.69 24.427,117.425 L 18.447,129.353 L 18.29,129.312 C 18.29,129.312 14.007,120.281 12.767,117.259 C 12.638,116.947 12.58,116.714 12.58,116.571 C 12.58,116.264 12.857,116.098 13.411,116.075 L 14.057,116.048 C 14.228,116.048 14.315,115.982 14.315,115.845 L 14.315,115.349 L 14.257,115.298 C 14.257,115.298 9.127,115.292 8.067,115.298 L 8.009,115.349 L 8.009,115.87 C 8.009,115.964 8.128,116.022 8.367,116.048 C 9.018,116.083 9.446,116.187 9.652,116.36 C 9.857,116.535 10.074,116.977 10.362,117.666 C 11.919,121.406 15.227,128.08 16.838,131.881 C 17.302,132.919 17.885,133.08 18.593,131.849 C 19.819,129.576 23.143,122.631 23.143,122.631 L 25.761,117.735 C 26.066,117.217 26.36,116.756 26.509,116.542 C 26.782,116.149 26.935,116.075 27.681,116.04 C 27.833,116.04 27.91,115.972 27.91,115.835 L 27.91,115.339 L 27.853,115.287 z"></path><path id="path3904" d="M 37.592,130.77 C 37.592,131.342 37.852,131.68 38.684,131.758 L 39.23,131.811 C 39.308,131.811 39.386,131.862 39.386,131.966 L 39.386,132.512 L 39.36,132.565 C 39.36,132.565 37.384,132.512 36.578,132.512 C 35.85,132.512 33.822,132.565 33.822,132.565 L 33.77,132.512 L 33.77,131.966 C 33.77,131.862 33.848,131.811 33.952,131.811 L 34.472,131.758 C 35.33,131.68 35.59,131.264 35.59,130.77 L 35.59,122.112 C 35.59,121.542 35.277,121.383 34.472,121.307 L 33.952,121.253 C 33.848,121.253 33.77,121.229 33.77,121.149 L 33.77,120.55 L 33.796,120.498 C 33.796,120.498 35.85,120.55 36.656,120.55 C 37.358,120.55 39.36,120.498 39.36,120.498 L 39.386,120.55 L 39.386,121.122 C 39.386,121.2 39.334,121.252 39.23,121.252 L 38.684,121.305 C 37.878,121.382 37.592,121.591 37.592,122.112 L 37.592,130.77 z"></path><path id="path3906" d="M 45.265,130.77 C 45.265,131.342 45.603,131.628 46.357,131.758 L 46.643,131.811 C 46.721,131.836 46.799,131.862 46.799,131.966 L 46.799,132.512 L 46.773,132.565 C 46.773,132.565 45.135,132.512 44.355,132.512 C 43.627,132.512 41.495,132.565 41.495,132.565 L 41.443,132.512 L 41.443,131.966 C 41.443,131.862 41.521,131.811 41.625,131.811 L 42.145,131.758 C 42.925,131.68 43.263,131.264 43.263,130.77 L 43.263,122.112 C 43.263,121.542 42.977,121.383 42.145,121.307 L 41.625,121.253 C 41.521,121.253 41.443,121.229 41.443,121.149 L 41.443,120.55 L 41.469,120.498 C 41.469,120.498 43.601,120.55 44.407,120.55 C 45.136,120.55 46.773,120.498 46.773,120.498 L 46.799,120.55 L 46.799,121.122 C 46.799,121.2 46.747,121.226 46.643,121.252 L 46.357,121.305 C 45.551,121.46 45.265,121.591 45.265,122.112 L 45.265,126.039 C 46.123,126.039 46.617,125.599 47.761,124.375 C 48.801,123.229 49.607,122.271 49.607,121.774 C 49.607,121.565 49.373,121.333 48.853,121.253 C 48.749,121.229 48.697,121.201 48.697,121.123 L 48.697,120.523 L 48.723,120.499 C 48.723,120.499 50.829,120.551 51.583,120.551 C 52.259,120.551 53.403,120.499 53.403,120.499 L 53.481,120.523 L 53.481,121.123 C 53.481,121.201 53.403,121.253 53.273,121.253 C 52.259,121.331 51.557,121.383 50.621,122.449 L 48.385,125.021 C 47.943,125.491 47.787,125.775 47.787,125.984 C 47.787,126.14 47.891,126.269 48.021,126.425 L 51.947,131.157 C 52.259,131.52 52.883,131.677 53.403,131.78 L 53.533,131.805 C 53.611,131.83 53.715,131.882 53.715,131.96 L 53.715,132.506 L 53.637,132.532 C 53.637,132.532 52.259,132.506 51.531,132.506 C 50.881,132.506 49.945,132.532 49.945,132.532 L 49.919,132.506 L 49.919,132.194 C 49.919,131.855 49.893,131.571 49.529,131.155 L 46.643,127.566 C 46.253,127.045 45.837,126.917 45.265,126.917 L 45.265,130.77 L 45.265,130.77 z"></path><path id="path3908" d="M 59.282,130.77 C 59.282,131.342 59.542,131.68 60.374,131.758 L 60.92,131.811 C 60.998,131.811 61.076,131.862 61.076,131.966 L 61.076,132.512 L 61.05,132.565 C 61.05,132.565 59.074,132.512 58.268,132.512 C 57.54,132.512 55.512,132.565 55.512,132.565 L 55.46,132.512 L 55.46,131.966 C 55.46,131.862 55.538,131.811 55.642,131.811 L 56.162,131.758 C 57.02,131.68 57.28,131.264 57.28,130.77 L 57.28,122.112 C 57.28,121.542 56.968,121.383 56.162,121.307 L 55.642,121.253 C 55.538,121.253 55.46,121.229 55.46,121.149 L 55.46,120.55 L 55.486,120.498 C 55.486,120.498 57.54,120.55 58.346,120.55 C 59.048,120.55 61.05,120.498 61.05,120.498 L 61.076,120.55 L 61.076,121.122 C 61.076,121.2 61.024,121.252 60.92,121.252 L 60.374,121.305 C 59.568,121.382 59.282,121.591 59.282,122.112 L 59.282,130.77 z"></path><path id="path3910" d="M 64.9,122.163 C 64.9,121.357 64.562,121.331 63.34,121.253 C 63.184,121.253 63.158,121.176 63.158,121.123 L 63.158,120.525 L 63.21,120.499 C 63.6,120.499 65.134,120.551 65.888,120.551 C 66.616,120.551 67.656,120.499 68.618,120.499 C 72.308,120.499 72.984,122.318 72.984,123.672 C 72.984,125.233 72.23,127.676 68.54,127.676 C 67.89,127.676 67.37,127.623 66.901,127.416 L 66.901,130.898 C 66.901,131.469 67.213,131.601 68.046,131.73 L 68.567,131.808 C 68.671,131.833 68.75,131.861 68.75,131.963 L 68.75,132.509 L 68.726,132.562 C 68.726,132.562 66.645,132.509 65.839,132.509 C 65.111,132.509 63.161,132.562 63.161,132.562 L 63.135,132.509 L 63.135,131.963 C 63.135,131.859 63.187,131.833 63.291,131.808 L 63.837,131.73 C 64.643,131.626 64.903,131.392 64.903,130.898 L 64.9,122.163 L 64.9,122.163 L 64.9,122.163 z M 66.902,126.688 C 67.422,126.897 68.072,126.922 68.592,126.922 C 70.153,126.922 70.904,125.984 70.904,123.984 C 70.904,121.748 69.89,121.254 68.462,121.254 C 67.213,121.254 66.901,121.488 66.901,122.164 L 66.902,126.688 L 66.902,126.688 z"></path><path id="path3914" d="M 87.24,131.811 L 87.838,131.758 C 88.619,131.68 88.879,131.446 88.879,130.641 L 88.879,122.061 C 88.879,121.383 88.695,121.383 87.838,121.307 L 87.268,121.253 C 87.164,121.253 87.084,121.201 87.084,121.123 L 87.084,120.551 L 87.109,120.499 C 87.109,120.499 89.398,120.551 89.867,120.551 C 90.359,120.551 92.623,120.499 93.299,120.499 C 97.641,120.499 99.774,123.203 99.774,126.661 C 99.774,131.212 96.549,132.562 93.665,132.562 C 91.585,132.562 90.676,132.509 89.87,132.509 C 89.089,132.509 87.112,132.562 87.112,132.562 L 87.087,132.509 L 87.087,131.963 C 87.084,131.889 87.137,131.811 87.24,131.811 z M 93.039,131.811 C 95.898,131.811 97.512,130.747 97.512,127.104 C 97.512,124.401 96.913,121.253 92.545,121.253 C 91.531,121.253 90.881,121.409 90.881,122.061 L 90.881,130.641 C 90.881,131.367 91.062,131.811 93.039,131.811 z"></path><path id="path3916" d="M 105.912,130.77 C 105.912,131.342 106.172,131.68 107.004,131.758 L 107.55,131.811 C 107.628,131.811 107.706,131.862 107.706,131.966 L 107.706,132.512 L 107.68,132.565 C 107.68,132.565 105.704,132.512 104.899,132.512 C 104.17,132.512 102.143,132.565 102.143,132.565 L 102.09,132.512 L 102.09,131.966 C 102.09,131.862 102.168,131.811 102.272,131.811 L 102.793,131.758 C 103.65,131.68 103.911,131.264 103.911,130.77 L 103.911,122.112 C 103.911,121.542 103.598,121.383 102.793,121.307 L 102.272,121.253 C 102.168,121.253 102.09,121.229 102.09,121.149 L 102.09,120.55 L 102.116,120.498 C 102.116,120.498 104.17,120.55 104.974,120.55 C 105.675,120.55 107.679,120.498 107.679,120.498 L 107.703,120.55 L 107.703,121.122 C 107.703,121.2 107.649,121.252 107.547,121.252 L 107.001,121.305 C 106.194,121.382 105.909,121.591 105.909,122.112 L 105.912,130.77 L 105.912,130.77 L 105.912,130.77 z"></path><path id="path3918" d="M 113.922,131.758 L 114.676,131.811 C 114.78,131.811 114.884,131.889 114.884,132.018 L 114.884,132.512 L 114.832,132.565 C 114.832,132.565 111.998,132.512 111.374,132.512 C 110.697,132.512 109.033,132.565 109.033,132.565 L 108.98,132.512 L 108.98,132.018 C 108.98,131.889 109.058,131.811 109.189,131.811 C 110.334,131.733 110.982,131.524 111.71,129.86 L 117.481,116.339 C 117.766,115.663 117.975,115.402 118.367,115.402 C 118.729,115.402 118.86,115.663 119.067,116.183 L 124.397,130.275 C 124.762,131.29 125.283,131.679 126.323,131.783 L 126.608,131.808 C 126.739,131.808 126.869,131.885 126.869,132.017 L 126.869,132.509 L 126.791,132.562 C 126.791,132.562 124.789,132.509 123.774,132.509 C 122.864,132.509 120.315,132.562 120.315,132.562 L 120.291,132.509 L 120.291,132.017 C 120.291,131.885 120.343,131.808 120.476,131.808 L 121.204,131.755 C 122.191,131.678 122.557,131.364 122.296,130.638 L 120.71,126.242 L 115.3,126.242 C 114.676,126.242 114.52,126.346 114.391,126.682 L 112.882,130.453 C 112.622,131.107 112.96,131.68 113.922,131.758 z M 120.292,125.152 L 117.77,118.211 L 117.718,118.211 L 115.118,124.815 C 115.014,125.077 115.195,125.153 115.767,125.153 L 120.292,125.153 L 120.292,125.152 z"></path><path d="M 77.462,132.512 C 76.682,132.512 74.889,132.565 74.889,132.565 L 74.862,132.512 L 74.862,131.94 C 74.862,131.889 74.889,131.811 75.018,131.811 L 75.618,131.758 C 76.425,131.68 76.659,131.16 76.659,130.641 L 76.659,122.061 C 76.659,121.461 76.347,121.358 75.618,121.307 L 75.018,121.253 C 74.862,121.229 74.862,121.176 74.862,121.149 L 74.862,120.55 L 74.889,120.498 C 74.889,120.498 76.916,120.55 77.696,120.55 L 81.518,120.55 C 82.298,120.55 84.145,120.498 84.145,120.498 L 84.199,120.55 C 84.223,121.668 84.405,122.684 84.589,123.671 L 83.941,123.775 C 83.656,122.812 83.162,121.435 81.498,121.435 L 79.418,121.435 C 78.924,121.435 78.664,121.617 78.664,122.058 L 78.664,125.829 L 80.613,125.829 C 81.342,125.829 81.523,125.517 81.628,124.997 L 81.783,124.451 C 81.783,124.373 81.836,124.32 81.939,124.32 L 82.379,124.32 C 82.433,124.32 82.433,124.347 82.433,124.398 C 82.379,124.969 82.277,125.699 82.277,126.323 C 82.277,126.972 82.381,127.519 82.433,128.117 L 82.379,128.17 L 81.939,128.17 C 81.81,128.17 81.755,128.117 81.755,128.039 L 81.625,127.468 C 81.521,126.947 81.287,126.661 80.608,126.661 L 78.66,126.661 L 78.66,130.64 C 78.66,131.132 78.943,131.626 79.414,131.626 L 81.884,131.626 C 83.21,131.626 83.94,130.794 84.25,129.44 L 84.898,129.518 L 84.377,132.507 L 84.325,132.559 C 84.325,132.559 82.791,132.507 82.011,132.507 L 77.462,132.512 L 77.462,132.512 L 77.462,132.512 zM 81.758696,117.17405 L 79.197955,118.77075 C 79.067589,118.852 78.982404,118.92162 78.942396,118.97962 C 78.90238,119.03766 78.884312,119.098 78.888188,119.16065 C 78.889475,119.23723 78.917871,119.30222 78.973373,119.3556 C 79.02887,119.40897 79.103729,119.43682 79.197955,119.43914 C 79.288299,119.44031 79.40188,119.42407 79.538699,119.39041 C 79.675507,119.35677 79.851042,119.29875 80.065302,119.21635 L 83.039067,118.13949 C 82.776445,117.74343 82.349655,117.42162 81.758696,117.17405 L 81.758696,117.17405 z" id="path3912"></path></g></svg>
