<?xml version="1.0" encoding="UTF-8" standalone="no"?>
<svg
	xmlns="http://www.w3.org/2000/svg"
	xmlns:dc="http://purl.org/dc/elements/1.1/"
	xmlns:cc="http://creativecommons.org/ns#"
	xmlns:rdf="http://www.w3.org/1999/02/22-rdf-syntax-ns#"
	xmlns:svg="http://www.w3.org/2000/svg"
	xmlns:xlink="http://www.w3.org/1999/xlink"
	xmlns:sodipodi="http://sodipodi.sourceforge.net/DTD/sodipodi-0.dtd"
	xmlns:inkscape="http://www.inkscape.org/namespaces/inkscape"
	version="1.1"
	viewBox="0 0 135 155">
	<svg xmlns:svg="http://www.w3.org/2000/svg" version="1.1" width="135" height="155" viewBox="0 0 135 155" id="svg3857" xml:space="preserve" xmlns:xlink="http://www.w3.org/1999/xlink" xmlns:svgjs="http://svgjs.com/svgjs">
<defs id="defs3"></defs>

<g transform="translate(0.2466462,-3.9761309)" id="g5100"><path d="M 11.788567,153.15467 C 11.435371,153.04048 11.237655,152.88376 11.163564,152.65926 C 11.063924,152.35735 11.439587,151.95579 11.778249,152.00221 C 11.958022,152.02681 12.037755,152.08761 12.181094,152.30927 C 12.429626,152.69357 12.831929,152.78069 13.148763,152.51883 C 13.407959,152.30461 13.577316,152.01722 13.674739,151.62626 C 13.819424,151.04565 13.821035,151.00195 13.832881,147.33667 C 13.840781,144.89647 13.834381,143.83088 13.811031,143.6963 C 13.729191,143.22448 13.530763,143.08277 12.903903,143.04847 C 12.570567,143.03027 12.531827,143.00767 12.532581,142.83248 C 12.533445,142.63173 12.41751,142.64431 14.260525,142.64491 L 15.935908,142.64545 L 15.959918,142.73805 C 15.973118,142.78905 15.972698,142.87419 15.958969,142.92736 L 15.934009,143.02406 L 15.695287,143.04196 C 15.419668,143.06266 15.153381,143.16806 15.075123,143.2875 C 14.92478,143.51695 14.929707,143.40654 14.909703,146.99464 C 14.889373,150.64103 14.895643,150.50899 14.714767,151.09906 C 14.618497,151.41313 14.532863,151.58477 14.324174,151.88196 C 13.862471,152.53947 13.191437,153.04999 12.636222,153.16616 C 12.353957,153.22526 11.991591,153.22036 11.78857,153.15466 L 11.78857,153.15466 L 11.788567,153.15467 z" id="path5050" style="fill:#000000;fill-opacity:1;fill-rule:nonzero;stroke:none"></path><path d="M 18.088264,151.09886 C 17.481498,151.02486 17.109363,150.78517 16.883146,150.32282 C 16.685822,149.91951 16.688386,149.94631 16.667163,148.06536 C 16.654353,146.92989 16.636683,146.32274 16.614573,146.25864 C 16.531033,146.01639 16.376609,145.90579 16.043225,145.84943 C 15.862416,145.81883 15.850013,145.81153 15.826744,145.72175 C 15.813164,145.66935 15.812894,145.5847 15.826132,145.53361 L 15.850202,145.44071 L 16.756424,145.44371 C 17.254847,145.44571 17.669908,145.44771 17.678784,145.44771 C 17.687684,145.44783 17.689354,146.33581 17.682584,147.421 C 17.671544,149.18316 17.675584,149.42042 17.720204,149.64074 C 17.808304,150.07551 17.949685,150.27968 18.272394,150.43815 C 18.704392,150.65029 19.247256,150.49955 19.837853,150.00355 C 20.183616,149.71316 20.159607,149.83909 20.170127,148.26065 C 20.179327,146.87968 20.156697,146.38417 20.075557,146.19048 C 19.993977,145.99573 19.806975,145.87714 19.531561,145.84551 C 19.436091,145.83451 19.348148,145.81091 19.33613,145.79291 C 19.31112,145.75551 19.30583,145.53197 19.32853,145.47268 C 19.34081,145.44068 19.518314,145.43458 20.256983,145.44098 C 20.759283,145.44498 21.179466,145.45868 21.190723,145.47068 C 21.201983,145.48268 21.198523,145.73927 21.183023,146.04089 C 21.167553,146.3425 21.158793,147.29946 21.163543,148.16745 L 21.172143,149.74562 L 21.248393,149.89433 C 21.303313,150.00145 21.360934,150.06319 21.454404,150.11509 C 21.596316,150.19389 21.859918,150.26491 22.013097,150.26564 C 22.091647,150.26602 22.116614,150.28194 22.142115,150.34794 C 22.184445,150.45744 22.141818,150.57201 22.049005,150.59827 C 22.008405,150.60977 21.823509,150.64697 21.638133,150.68097 C 21.257654,150.75077 20.932748,150.86703 20.676737,151.02504 C 20.552007,151.10204 20.475927,151.12979 20.407956,151.12314 C 20.321526,151.11514 20.309686,151.10074 20.273934,150.96512 C 20.252364,150.88332 20.217854,150.70278 20.197244,150.5639 C 20.151044,150.25258 20.119544,150.23834 19.883533,150.42207 C 19.186325,150.96486 18.649363,151.16725 18.088177,151.09876 L 18.088177,151.09876 L 18.088264,151.09886 z" id="path5052" style="fill:#000000;fill-opacity:1;fill-rule:nonzero;stroke:none"></path><path d="M 25.953969,150.96179 C 25.946869,150.94319 25.945169,150.86269 25.950169,150.78299 L 25.959369,150.63806 L 26.193774,150.59946 C 26.633581,150.52706 26.742922,150.41655 26.805955,149.98049 C 26.823165,149.86143 26.835835,148.96827 26.836175,147.8497 L 26.836765,145.92389 L 26.36089,145.92389 L 25.885015,145.92389 L 25.885015,145.77322 C 25.885015,145.48878 25.960135,145.44802 26.484297,145.44802 L 26.836765,145.44802 L 26.836765,145.04752 C 26.836765,143.87647 27.146927,143.03527 27.775655,142.50113 C 28.020191,142.29338 28.238934,142.16543 28.517483,142.06721 C 28.7379,141.98951 28.78749,141.98341 29.201268,141.98381 C 29.8141,141.98435 30.081197,142.06701 30.383277,142.34956 C 30.579446,142.53306 30.68466,142.7409 30.66585,142.90778 C 30.64004,143.1368 30.415445,143.36223 30.187499,143.38792 C 29.952363,143.41442 29.795107,143.28101 29.615584,142.9027 C 29.506205,142.6722 29.388046,142.53256 29.23529,142.45326 C 29.112387,142.38946 28.750696,142.36666 28.608018,142.41376 C 28.447168,142.46686 28.183869,142.74376 28.083252,142.96567 C 27.916841,143.33268 27.819781,144.09341 27.818717,145.03903 L 27.818257,145.44799 L 28.529637,145.44799 C 28.920895,145.44799 29.262187,145.45599 29.288062,145.46609 C 29.322612,145.47939 29.334982,145.52479 29.334652,145.63711 C 29.333816,145.91791 29.316102,145.92391 28.487728,145.92391 L 27.814892,145.92391 L 27.825252,147.96869 C 27.834752,149.84226 27.840102,150.027 27.889222,150.17516 C 27.918712,150.26406 27.981042,150.37256 28.027754,150.4162 C 28.124454,150.5065 28.36388,150.57929 28.66018,150.60839 C 28.843652,150.62639 28.865537,150.63569 28.893468,150.70749 C 28.912328,150.75599 28.914558,150.82712 28.899168,150.89082 L 28.874078,150.99492 L 27.420492,150.99527 C 26.360609,150.99552 25.963386,150.98627 25.953911,150.96177 L 25.953969,150.96179 z" id="path5054" style="fill:#000000;fill-opacity:1;fill-rule:nonzero;stroke:none"></path><path d="M 29.915612,150.9558 C 29.892902,150.8966 29.897802,150.70277 29.923012,150.66338 C 29.935032,150.64458 30.025167,150.62018 30.123316,150.60908 C 30.581557,150.55728 30.761249,150.45087 30.844481,150.18193 C 30.891671,150.02946 30.896611,149.84709 30.896611,148.2587 C 30.896611,146.63021 30.892711,146.49377 30.842241,146.36301 C 30.812341,146.28551 30.752111,146.19667 30.708402,146.16558 C 30.605382,146.09228 30.337055,146.01317 30.191531,146.01317 C 30.094781,146.01317 30.072546,146.00087 30.046764,145.93307 C 30.030014,145.88897 30.020304,145.81218 30.025194,145.76234 L 30.034094,145.67174 L 30.584325,145.57914 C 30.886951,145.52824 31.268395,145.44896 31.431977,145.40298 C 31.595559,145.35698 31.776243,145.31818 31.833496,145.31678 L 31.937594,145.31378 L 31.922744,145.62607 C 31.898504,146.13576 31.904944,146.46761 31.939284,146.47915 C 31.956574,146.48515 32.047763,146.37629 32.141932,146.23766 C 32.460294,145.76898 32.882518,145.43681 33.263843,145.35503 C 33.978155,145.20183 34.487243,145.8512 34.0405,146.34569 C 33.883933,146.51899 33.784454,146.56053 33.547938,146.55137 C 33.485268,146.54937 33.405988,146.49287 33.24571,146.3374 C 32.880222,145.98301 32.754338,146.0115 32.364662,146.53681 C 32.10459,146.8874 31.96427,147.18123 31.920731,147.4664 C 31.898371,147.61282 31.891591,148.06783 31.900311,148.83454 C 31.914951,150.121 31.929281,150.22547 32.115053,150.40068 C 32.230457,150.50952 32.368397,150.55448 32.717673,150.59711 C 32.861166,150.61461 32.988402,150.64431 33.000421,150.66301 C 33.012441,150.68171 33.022271,150.75061 33.022271,150.81606 C 33.022271,150.88146 33.012471,150.94915 33.000421,150.96642 C 32.985551,150.98782 32.491643,150.99742 31.454782,150.99662 C 30.205663,150.99564 29.928223,150.98862 29.915624,150.95542 L 29.915624,150.95542 L 29.915612,150.9558 z" id="path5056" style="fill:#000000;fill-opacity:1;fill-rule:nonzero;stroke:none"></path><path d="M 36.187384,151.0993 C 35.461485,150.99756 35.038565,150.6481 34.926558,150.05749 C 34.783741,149.30442 35.185518,148.66541 36.084793,148.21537 C 36.457393,148.02891 36.710334,147.94594 37.499369,147.7514 C 37.948972,147.64054 38.166103,147.57369 38.193348,147.53772 C 38.223108,147.49842 38.228308,147.4186 38.214208,147.21771 C 38.161218,146.4628 38.02045,146.10556 37.687648,145.88144 C 37.464698,145.7313 37.280702,145.6973 36.92009,145.73961 C 36.424201,145.79781 36.156444,145.93757 36.091692,146.17208 C 36.070362,146.24938 36.071112,146.36248 36.094192,146.54514 C 36.120752,146.7556 36.119412,146.8263 36.087392,146.90368 C 36.010692,147.08885 35.709237,147.21495 35.448919,147.17076 C 35.305274,147.14636 35.176379,147.01297 35.147447,146.85875 C 35.121907,146.72263 35.196187,146.4429 35.302648,146.27426 C 35.488508,145.97984 35.919879,145.66487 36.357913,145.50375 C 37.438282,145.10635 38.543301,145.40231 38.940243,146.19538 C 39.168461,146.65134 39.208884,147.01864 39.209874,148.64533 C 39.21046,149.60731 39.220324,149.94021 39.252774,150.09332 C 39.330524,150.46016 39.446026,150.54962 39.82572,150.53711 C 39.88768,150.53511 39.95934,150.50061 40.029265,150.43921 C 40.150443,150.33281 40.213904,150.34511 40.263606,150.48451 C 40.297206,150.57881 40.238836,150.65211 39.972626,150.8501 C 39.657942,151.08414 39.212171,151.1645 38.835689,151.05505 C 38.619579,150.99225 38.392914,150.77425 38.286572,150.52698 C 38.246242,150.43318 38.206552,150.35645 38.198372,150.35643 C 38.190172,150.35641 38.056354,150.45643 37.900951,150.57857 C 37.591347,150.82202 37.316181,150.97925 37.076461,151.04967 C 36.880669,151.10717 36.425297,151.13257 36.187446,151.09927 L 36.187446,151.09927 L 36.187384,151.0993 z M 37.284595,150.51932 C 37.638507,150.37855 38.086719,150.05658 38.175958,149.87901 C 38.222038,149.78731 38.227968,149.67304 38.228008,148.87583 C 38.228037,148.18478 38.219608,147.97613 38.191558,147.97613 C 38.171488,147.97613 37.900457,148.04433 37.589279,148.12762 C 36.660528,148.37631 36.307212,148.58502 36.094572,149.01058 C 35.856514,149.48701 35.894327,149.99378 36.192572,150.32389 C 36.45326,150.61244 36.865144,150.68615 37.284605,150.51932 L 37.284605,150.51932 L 37.284595,150.51932 z" id="path5058" style="fill:#000000;fill-opacity:1;fill-rule:nonzero;stroke:none"></path><path d="M 38.090352,144.10877 C 38.039152,144.09297 37.942246,144.02507 37.875001,143.95779 C 37.667165,143.74996 37.640657,143.48429 37.801801,143.22413 C 38.04419,142.8328 38.598179,142.86693 38.807043,143.28603 C 38.902273,143.47712 38.902253,143.61191 38.806999,143.80308 C 38.677092,144.06376 38.369671,144.19488 38.090357,144.10873 L 38.090355,144.10873 L 38.090352,144.10877 z" id="path5060" style="fill:#000000;fill-opacity:1;fill-rule:nonzero;stroke:none"></path><path d="M 35.87842,144.09197 C 35.470816,143.91542 35.378815,143.40696 35.701692,143.11526 C 35.845885,142.98499 35.930177,142.9497 36.097121,142.9497 C 36.481382,142.9497 36.774875,143.3647 36.652612,143.73516 C 36.547431,144.05386 36.180674,144.22289 35.87842,144.09197 L 35.87842,144.09197 z" id="path5062" style="fill:#000000;fill-opacity:1;fill-rule:nonzero;stroke:none"></path><path d="M 41.964407,143.85776 C 41.623212,143.73614 41.434591,143.3117 41.588056,143.01088 C 41.714258,142.7635 42.059785,142.58673 42.293575,142.64994 C 42.534093,142.71494 42.777591,143.02663 42.778316,143.27039 C 42.779029,143.50992 42.559415,143.77786 42.298972,143.8552 C 42.113798,143.9102 42.111554,143.9102 41.964407,143.8582 L 41.964407,143.8582 L 41.964407,143.85776 z" id="path5064" style="fill:#000000;fill-opacity:1;fill-rule:nonzero;stroke:none"></path><path d="M 40.706668,150.97223 C 40.681988,150.93233 40.689778,150.67759 40.716468,150.65169 C 40.730098,150.63849 40.844048,150.61349 40.969686,150.59629 C 41.255787,150.55699 41.419973,150.49224 41.51249,150.38229 C 41.654354,150.2137 41.663261,150.08561 41.663261,148.21409 L 41.663261,146.47417 L 41.588901,146.32546 C 41.496791,146.14123 41.33949,146.05423 41.038787,146.02117 L 40.830708,145.99827 L 40.804428,145.87362 C 40.767368,145.69781 40.789748,145.66334 40.955145,145.64155 C 41.323229,145.59305 41.962368,145.46777 42.262965,145.38519 C 42.445582,145.33499 42.619574,145.29879 42.649613,145.30469 C 42.700753,145.31469 42.703283,145.34759 42.689363,145.82042 C 42.681163,146.09819 42.674493,147.14187 42.674493,148.13972 C 42.674493,150.05927 42.683493,150.20498 42.812878,150.36941 C 42.905898,150.48766 43.078573,150.56032 43.363265,150.601 C 43.615614,150.6371 43.623359,150.6405 43.645955,150.72823 C 43.658735,150.77783 43.658565,150.85812 43.645575,150.90668 L 43.621965,150.99498 L 42.171795,150.99573 C 41.374202,150.99614 40.714888,150.98553 40.706654,150.97223 L 40.706655,150.97223 L 40.706668,150.97223 z" id="path5066" style="fill:#000000;fill-opacity:1;fill-rule:nonzero;stroke:none"></path><path d="M 46.564123,151.09805 C 46.228752,151.06425 45.905422,150.9705 45.620668,150.8246 C 45.434145,150.729 45.317825,150.63859 45.09573,150.41649 C 44.852969,150.17372 44.789667,150.08911 44.671334,149.84925 C 44.335026,149.16755 44.267033,148.33064 44.47824,147.47251 C 44.61393,146.9212 44.855418,146.49519 45.24114,146.12668 C 45.645653,145.74021 46.005175,145.53145 46.467696,145.41448 C 46.927175,145.29828 47.666047,145.38178 48.129249,145.60218 C 48.688023,145.86809 49.08021,146.60092 49.094034,147.40496 C 49.101634,147.84843 49.295592,147.80999 47.172226,147.7859 L 45.394343,147.7657 L 45.412023,148.01218 C 45.468303,148.79698 45.618288,149.28396 45.945942,149.74576 C 46.302917,150.24889 46.75352,150.50233 47.293241,150.50356 C 47.892356,150.50456 48.282049,150.35779 48.704946,149.97055 C 48.895123,149.79642 48.980934,149.78551 49.07164,149.92395 C 49.11829,149.99515 49.11573,150.00165 48.97535,150.16648 C 48.702329,150.48717 48.251671,150.80881 47.881781,150.94699 C 47.511793,151.0852 47.008637,151.14287 46.564123,151.09803 L 46.564123,151.09803 L 46.564123,151.09805 z M 47.960561,147.27102 C 48.052811,147.18752 48.015341,146.71536 47.889841,146.37994 C 47.736246,145.96943 47.321261,145.72096 46.840772,145.75182 C 46.674232,145.76252 46.575791,145.79082 46.369876,145.88736 C 46.049258,146.03763 45.866103,146.21568 45.716649,146.5224 C 45.617299,146.72628 45.455399,147.21919 45.455399,147.31776 C 45.455399,147.35516 45.620317,147.35806 46.681643,147.33976 C 47.745144,147.32146 47.914878,147.31236 47.960557,147.27096 L 47.960557,147.27096 L 47.960561,147.27102 z" id="path5068" style="fill:#000000;fill-opacity:1;fill-rule:nonzero;stroke:none"></path><path d="M 53.00549,150.95535 C 52.98292,150.89655 52.98795,150.70261 53.01309,150.66351 C 53.02511,150.64481 53.142013,150.61971 53.272879,150.60771 C 53.747309,150.56431 53.969613,150.45101 54.074898,150.19897 C 54.171108,149.96865 54.183426,149.51754 54.173408,146.5914 C 54.163508,143.71098 54.163508,143.70792 54.097998,143.51308 C 54.030438,143.31203 53.962601,143.22705 53.808248,143.15011 C 53.678149,143.08531 53.430934,143.03892 53.215122,143.03892 C 53.070509,143.03892 53.022228,143.02792 53.008391,142.99192 C 52.986431,142.93472 52.984581,142.73167 53.005491,142.67706 C 53.018021,142.64436 53.482952,142.63916 55.659981,142.64696 C 57.191962,142.65196 58.371997,142.64496 58.472605,142.62876 C 58.637973,142.60236 58.647124,142.60426 58.671868,142.66936 C 58.692828,142.72446 58.898195,144.02088 58.945813,144.39864 C 58.956393,144.48254 58.947013,144.49804 58.869503,144.52505 C 58.820903,144.54195 58.732241,144.55585 58.672469,144.55585 C 58.564076,144.55585 58.563617,144.5553 58.496375,144.34652 C 58.388773,144.01243 58.171739,143.60757 58.01763,143.45346 C 57.93131,143.36716 57.812992,143.28864 57.702674,143.24448 C 57.530992,143.17578 57.498131,143.17348 56.544487,143.16498 C 55.598472,143.15698 55.559438,143.15798 55.464603,143.21718 C 55.408513,143.25198 55.341664,143.33227 55.30911,143.40398 C 55.25541,143.52228 55.25197,143.61366 55.25135,144.938 L 55.250697,146.34622 L 56.150398,146.33312 C 56.900663,146.32222 57.076957,146.31132 57.211801,146.26792 C 57.485067,146.17992 57.578939,146.03156 57.624888,145.61507 C 57.644478,145.43747 57.647338,145.43271 57.74904,145.40819 C 57.81285,145.39279 57.883911,145.39509 57.932641,145.41419 L 58.012141,145.44509 L 58.012141,146.56913 C 58.012141,147.3966 58.002941,147.69901 57.977251,147.71535 C 57.935891,147.74165 57.789539,147.74455 57.700972,147.72035 C 57.648432,147.70625 57.634902,147.67315 57.619052,147.52 C 57.594142,147.27934 57.469302,147.02856 57.336767,146.95295 C 57.142125,146.84192 56.927612,146.81518 56.076043,146.79581 L 55.250698,146.77701 L 55.250698,148.45577 L 55.250698,150.13454 L 55.317618,150.26724 C 55.4397,150.50934 55.428145,150.50746 56.722936,150.49621 C 57.736695,150.48721 57.86846,150.48071 58.00185,150.43111 C 58.51318,150.24087 58.874986,149.79111 59.127477,149.03186 L 59.196717,148.82366 L 59.324632,148.81466 C 59.394982,148.80966 59.490246,148.82066 59.536322,148.84006 C 59.632212,148.87976 59.635622,148.81576 59.501202,149.49973 C 59.425442,149.88523 59.276694,150.52473 59.181014,150.87626 L 59.148634,150.99523 L 56.084664,150.99523 C 53.56057,150.99523 53.018016,150.98823 53.005495,150.95563 L 53.00549,150.95535 z" id="path5070" style="fill:#000000;fill-opacity:1;fill-rule:nonzero;stroke:none"></path><path d="M 60.322617,150.95678 C 60.299537,150.89668 60.304257,150.70307 60.329817,150.66296 C 60.341917,150.64396 60.458547,150.61356 60.588993,150.59536 C 60.857791,150.55796 61.061073,150.4718 61.130526,150.3658 C 61.247503,150.18727 61.257707,150.01812 61.258189,148.24952 C 61.258509,147.07714 61.248139,146.50331 61.224959,146.41127 C 61.206429,146.33767 61.153909,146.24012 61.108258,146.19446 C 61.015538,146.10176 60.744423,146.01312 60.553505,146.01312 C 60.415274,146.01312 60.396127,145.98602 60.396127,145.79069 L 60.396127,145.66235 L 60.656372,145.62655 C 61.082974,145.56795 61.520366,145.4809 61.875491,145.38393 C 62.05935,145.33373 62.229996,145.30043 62.254704,145.30993 C 62.307854,145.33033 62.309844,145.41907 62.269504,145.96849 C 62.242134,146.34129 62.248604,146.45924 62.296424,146.45924 C 62.308814,146.45924 62.451788,146.32801 62.614148,146.16761 C 63.036562,145.75031 63.343403,145.55316 63.787492,145.41371 C 63.973057,145.35541 64.073726,145.34391 64.396457,145.34391 C 64.730689,145.34391 64.810152,145.35391 64.982612,145.41591 C 65.467969,145.59101 65.706825,145.94023 65.810737,146.62665 C 65.832767,146.77218 65.853257,147.47982 65.864877,148.4966 L 65.883567,150.13242 L 65.957927,150.28113 C 66.047657,150.46059 66.195668,150.54502 66.505797,150.59365 C 66.619006,150.61145 66.722732,150.63275 66.736299,150.64115 C 66.766719,150.65995 66.768259,150.92366 66.738199,150.96681 C 66.723399,150.98811 66.285164,150.99771 65.379169,150.99661 L 64.04199,150.99461 L 64.02468,150.90541 C 64.01518,150.85631 64.01468,150.77622 64.02368,150.72739 C 64.03923,150.64269 64.05134,150.63629 64.285878,150.58762 C 64.421118,150.55962 64.571792,150.50812 64.62071,150.4733 C 64.846988,150.31218 64.863991,150.15286 64.849735,148.32729 C 64.840135,147.09922 64.829955,146.80405 64.792905,146.68202 C 64.653068,146.22137 64.373199,145.98273 63.973623,145.98343 C 63.622392,145.98404 63.308615,146.09884 62.939093,146.36191 C 62.610341,146.59596 62.428426,146.77498 62.343999,146.94755 L 62.266399,147.10616 L 62.277399,148.61913 C 62.289479,150.27991 62.290399,150.28867 62.468362,150.44493 C 62.568676,150.53303 62.682349,150.57285 62.930621,150.60693 C 63.063082,150.62513 63.071974,150.63213 63.090923,150.73313 C 63.101953,150.79193 63.098823,150.8747 63.083923,150.91703 L 63.056863,150.99403 L 61.697638,150.99603 C 60.568277,150.99703 60.335749,150.99103 60.322664,150.95673 L 60.322617,150.95678 z" id="path5072" style="fill:#000000;fill-opacity:1;fill-rule:nonzero;stroke:none"></path><path d="M 67.500336,150.9232 C 67.438156,150.8728 67.433906,150.8562 67.463236,150.77841 C 67.481446,150.73011 68.227605,149.61136 69.121363,148.29239 C 70.015121,146.97341 70.746377,145.88754 70.746377,145.87934 C 70.746377,145.87134 70.313782,145.86444 69.785054,145.86444 C 68.648863,145.86444 68.625094,145.86844 68.366074,146.12991 C 68.193754,146.30357 68.032913,146.59478 67.93364,146.91285 C 67.87739,147.09307 67.87215,147.09647 67.668061,147.08527 C 67.47423,147.07467 67.480128,147.09947 67.553596,146.6032 C 67.590296,146.35528 67.635406,145.97052 67.653843,145.74819 C 67.672273,145.52586 67.699733,145.33125 67.714853,145.31572 C 67.732103,145.29802 67.800563,145.31472 67.898528,145.36012 L 68.054707,145.43272 L 69.666002,145.44172 C 70.988488,145.44872 71.331484,145.44224 71.579609,145.40512 C 71.877496,145.36062 71.995546,145.37342 71.995546,145.45032 C 71.995546,145.54442 71.665108,146.05195 70.234838,148.15496 C 69.361501,149.43908 68.636233,150.50723 68.623132,150.52861 C 68.603642,150.56041 68.796052,150.56581 69.680279,150.55831 L 70.761245,150.54931 L 70.930853,150.46601 C 71.18618,150.34063 71.345332,150.14223 71.583058,149.65298 C 71.695419,149.42174 71.78735,149.21581 71.78735,149.19537 C 71.78735,149.16837 71.82433,149.16327 71.92239,149.17667 C 72.181097,149.21217 72.178228,149.20357 72.067028,149.6099 C 71.975828,149.94319 71.867416,150.40839 71.787475,150.8095 L 71.753395,150.98052 L 69.661975,150.98052 C 67.646628,150.98052 67.568,150.97852 67.50034,150.92362 L 67.500336,150.9232 z" id="path5074" style="fill:#000000;fill-opacity:1;fill-rule:nonzero;stroke:none"></path><path d="M 73.586753,153.92937 C 73.268853,153.77856 73.208781,153.49382 73.432879,153.20001 C 73.563018,153.02939 73.683529,152.99203 74.030368,153.01477 C 74.599445,153.05207 74.752962,152.94557 75.034107,152.31849 C 75.338131,151.64036 75.415897,151.39944 75.415897,151.1357 C 75.415897,150.9977 75.391087,150.80542 75.355297,150.66596 C 75.297157,150.43946 73.726535,146.72783 73.531365,146.35572 C 73.352941,146.01553 73.096475,145.83469 72.792455,145.83469 C 72.684163,145.83469 72.633931,145.72181 72.669798,145.55906 L 72.694488,145.44701 L 73.958531,145.44501 L 75.222574,145.44301 L 75.249184,145.53501 C 75.264914,145.58941 75.264794,145.66541 75.248892,145.72085 C 75.223252,145.81025 75.210572,145.81695 74.978881,145.86317 C 74.455804,145.96756 74.45043,145.93227 75.288883,147.89655 C 75.650624,148.744 75.968028,149.47008 75.994225,149.51006 C 76.047465,149.59136 76.093865,149.60066 76.16951,149.54536 C 76.22552,149.50436 77.543294,146.49225 77.582336,146.31594 C 77.595596,146.25604 77.594786,146.16264 77.580536,146.10838 C 77.559476,146.02818 77.525876,145.9964 77.401511,145.93878 C 77.317311,145.89978 77.17701,145.85898 77.089743,145.84798 C 76.913538,145.82598 76.872986,145.78348 76.873734,145.62155 C 76.874588,145.43694 76.828724,145.44459 77.969103,145.43891 C 79.123814,145.43291 79.044804,145.41861 79.044003,145.6369 C 79.043405,145.79926 79.026863,145.81889 78.854572,145.86158 C 78.558648,145.93488 78.326369,146.10628 78.110701,146.41041 C 77.887492,146.72517 77.27356,148.09534 76.051315,151.00653 C 75.732843,151.76508 75.397749,152.53431 75.306662,152.71594 C 74.86766,153.59128 74.46898,153.95633 73.928801,153.97757 C 73.757811,153.98457 73.67796,153.97357 73.586766,153.92987 L 73.586753,153.92937 z" id="path5076" style="fill:#000000;fill-opacity:1;fill-rule:nonzero;stroke:none"></path><path d="M 79.395581,150.92214 C 79.377881,150.87664 79.376101,150.8045 79.391081,150.74215 C 79.416051,150.63856 79.417331,150.63787 79.654111,150.59931 C 80.060787,150.53311 80.197362,150.42285 80.262706,150.10809 C 80.284856,150.00141 80.292296,148.88562 80.286736,146.50369 C 80.278836,143.12164 80.277536,143.05146 80.219206,142.93483 C 80.140336,142.77709 79.99919,142.71043 79.70076,142.68997 C 79.489798,142.67547 79.463407,142.66687 79.433968,142.60227 C 79.415998,142.56287 79.401298,142.4846 79.401298,142.42843 C 79.401298,142.31429 79.405598,142.31223 79.713591,142.27971 C 80.011738,142.24821 80.679281,142.12052 80.959275,142.04141 C 81.220584,141.96761 81.31648,141.96631 81.342378,142.03641 C 81.349678,142.05621 81.344178,142.24123 81.330088,142.4475 C 81.315998,142.65378 81.307888,143.9758 81.312068,145.38534 L 81.319668,147.94813 L 81.468379,147.87323 C 81.732566,147.74017 82.022178,147.49885 82.57489,146.95123 C 82.956787,146.57285 83.134041,146.37537 83.176516,146.28097 C 83.292611,146.02293 83.247236,145.93802 82.953749,145.86414 C 82.766099,145.81694 82.747183,145.80494 82.725078,145.71964 C 82.711828,145.66844 82.711588,145.5857 82.724554,145.53566 L 82.748134,145.44466 L 83.914768,145.43866 C 84.86283,145.43366 85.08425,145.44066 85.096602,145.47256 C 85.119332,145.53176 85.114062,145.75536 85.089002,145.79294 C 85.076982,145.81094 84.961916,145.83514 84.833296,145.84654 C 84.512462,145.87504 84.16789,145.98982 83.944413,146.14265 C 83.822532,146.22595 83.561292,146.48679 83.185958,146.89981 C 82.655169,147.48388 82.613452,147.53796 82.613848,147.64134 C 82.614217,147.73784 82.722689,147.91313 83.419001,148.94254 C 83.8616,149.59687 84.266273,150.17719 84.318275,150.23213 C 84.504667,150.42909 84.726503,150.52811 85.127571,150.59339 C 85.222791,150.60889 85.311524,150.63859 85.324748,150.65949 C 85.354788,150.70679 85.356338,150.92431 85.326948,150.96718 C 85.312098,150.98888 84.989466,150.99838 84.3199,150.99688 L 83.334704,150.99488 L 83.317844,150.77203 C 83.304794,150.5995 83.278544,150.50549 83.201586,150.35564 C 83.059739,150.07946 81.957358,148.54002 81.812879,148.41635 C 81.68845,148.30984 81.522874,148.24373 81.380557,148.24373 L 81.299667,148.24373 L 81.311177,149.17317 C 81.326547,150.41462 81.349997,150.48269 81.799937,150.59239 C 81.972133,150.63439 82.00322,150.65219 82.021068,150.71889 C 82.032488,150.76159 82.032708,150.84117 82.021553,150.89571 L 82.001273,150.99491 L 80.713161,150.99691 L 79.425048,150.99891 L 79.395498,150.92301 L 79.395498,150.92301 L 79.395581,150.92214 z" id="path5078" style="fill:#000000;fill-opacity:1;fill-rule:nonzero;stroke:none"></path><path d="M 85.705909,150.95581 C 85.683179,150.89661 85.688099,150.70254 85.713309,150.66483 C 85.725329,150.64683 85.853501,150.61703 85.99814,150.59863 C 86.433092,150.54323 86.574492,150.42362 86.642984,150.05311 C 86.663024,149.94471 86.670694,148.71978 86.665334,146.48578 C 86.657534,143.23353 86.654704,143.07791 86.601364,142.95583 C 86.526214,142.78382 86.380462,142.71062 86.070919,142.6894 C 85.815137,142.6719 85.802942,142.6629 85.767464,142.46637 C 85.742464,142.32789 85.768864,142.31471 86.16642,142.26729 C 86.510999,142.22619 87.120795,142.10576 87.394496,142.02475 C 87.50558,141.99185 87.619344,141.97225 87.647304,141.98105 C 87.694994,141.99615 87.697524,142.24116 87.688154,145.93094 C 87.677734,150.03314 87.680754,150.14849 87.80291,150.3494 C 87.88297,150.48105 88.061625,150.56096 88.361137,150.59909 C 88.503596,150.61719 88.629986,150.64679 88.642005,150.66479 C 88.667705,150.70329 88.670815,150.85042 88.647705,150.9363 C 88.631695,150.9959 88.613435,150.9966 87.176379,150.9962 C 85.983948,150.99587 85.718493,150.9882 85.705891,150.9557 L 85.705891,150.9557 L 85.705909,150.95581 z" id="path5080" style="fill:#000000;fill-opacity:1;fill-rule:nonzero;stroke:none"></path><path d="M 91.835411,151.09437 C 90.82963,150.99587 90.150385,150.52819 89.694815,149.62053 C 89.50641,149.24515 89.432823,148.94023 89.415978,148.46509 C 89.379168,147.42688 89.706451,146.57278 90.376273,145.95901 C 90.880529,145.49695 91.713481,145.25998 92.489888,145.35771 C 93.285398,145.45784 93.866568,145.76885 94.242432,146.29558 C 94.903179,147.22153 95.023686,148.5436 94.540206,149.56243 C 94.137077,150.41195 93.576065,150.86669 92.723823,151.03474 C 92.34854,151.10874 92.131148,151.12334 91.835411,151.09434 L 91.835411,151.09437 z M 92.858398,150.61904 C 93.088145,150.5123 93.332441,150.30162 93.44429,150.11378 C 93.792259,149.52939 93.849868,148.15511 93.570055,147.11361 C 93.4184,146.54913 93.073752,146.07725 92.668632,145.87941 C 92.174385,145.63805 91.568417,145.69213 91.16222,146.01384 C 90.916829,146.20819 90.685784,146.67018 90.561031,147.21594 C 90.467851,147.6236 90.469071,148.38336 90.563631,148.80698 C 90.708454,149.45603 90.933313,149.91564 91.276748,150.26457 C 91.601494,150.59451 91.917703,150.71656 92.412306,150.70286 C 92.642016,150.69686 92.725448,150.68086 92.858438,150.61906 L 92.858438,150.61906 L 92.858398,150.61904 z" id="path5082" style="fill:#000000;fill-opacity:1;fill-rule:nonzero;stroke:none"></path><path d="M 95.462081,153.96169 C 95.438751,153.90089 95.443151,153.70707 95.468681,153.66886 C 95.480701,153.65096 95.574098,153.62766 95.676233,153.61726 C 96.098675,153.57416 96.290442,153.46603 96.371317,153.22525 C 96.423067,153.07118 96.448067,146.61667 96.397637,146.42941 C 96.332077,146.18592 96.142424,146.05836 95.793028,146.02275 C 95.692085,146.01245 95.599663,145.98935 95.587645,145.97135 C 95.575625,145.95345 95.565585,145.87655 95.565335,145.80051 L 95.56488,145.6623 L 95.825124,145.6264 C 96.235992,145.5698 96.788672,145.4553 97.042339,145.37429 C 97.43988,145.24734 97.467455,145.26256 97.432075,145.58946 C 97.395155,145.93058 97.412805,146.26312 97.468375,146.2736 C 97.492915,146.2786 97.613368,146.1929 97.736054,146.08392 C 98.138603,145.72645 98.603286,145.46528 99.005479,145.37047 C 99.554354,145.24107 100.24953,145.45567 100.72745,145.90197 C 101.10851,146.25783 101.40037,146.76649 101.52917,147.29921 C 101.6413,147.763 101.60617,148.56131 101.45167,149.06162 C 101.21079,149.84151 100.66973,150.50876 100.01134,150.83788 C 99.636254,151.02538 99.237901,151.10917 98.732427,151.10686 C 98.328488,151.10486 98.046493,151.06026 97.716904,150.94555 C 97.412669,150.83969 97.433297,150.75893 97.444168,152.01334 C 97.452568,152.9884 97.459408,153.11935 97.507048,153.2251 C 97.62003,153.47593 97.755881,153.54781 98.226812,153.60593 L 98.524234,153.64263 L 98.524234,153.82071 L 98.524234,153.99879 L 97.001189,154.00079 C 95.715526,154.00279 95.475633,153.99679 95.462031,153.96119 L 95.462081,153.96169 z M 99.178612,150.63453 C 99.454061,150.56403 99.726128,150.41641 99.898514,150.24403 C 100.18888,149.95366 100.44026,149.31319 100.50196,148.70654 C 100.56046,148.13175 100.45296,147.34523 100.25523,146.90021 C 99.92042,146.1468 99.25488,145.75194 98.658124,145.95264 C 98.551796,145.98844 98.36442,146.07986 98.241733,146.15587 C 97.9443,146.34017 97.545097,146.72454 97.483604,146.88585 C 97.442354,146.99405 97.437534,147.20157 97.445014,148.54614 L 97.453614,150.08277 L 97.543984,150.21132 C 97.84232,150.63569 98.504607,150.80715 99.178658,150.63453 L 99.178612,150.63453 z" id="path5084" style="fill:#000000;fill-opacity:1;fill-rule:nonzero;stroke:none"></path><path d="M 103.89051,151.1015 C 103.43842,151.0382 103.02263,150.8269 102.84666,150.57115 C 102.69339,150.34838 102.63699,150.164 102.62145,149.83502 C 102.60955,149.58333 102.61745,149.50787 102.67245,149.34427 C 102.76075,149.08182 102.8778,148.90719 103.11652,148.68199 C 103.56382,148.26003 104.0216,148.05247 105.12524,147.77122 C 106.0237,147.54225 105.95068,147.6041 105.91173,147.10506 C 105.85383,146.36338 105.69071,146.02757 105.28424,145.8134 C 105.14105,145.738 105.10064,145.7309 104.82966,145.7336 C 104.36602,145.7386 103.9936,145.85957 103.8508,146.05248 C 103.7826,146.14458 103.7715,146.35176 103.8173,146.67453 C 103.839,146.82761 103.8342,146.8559 103.7705,146.95008 C 103.6752,147.09088 103.49114,147.17737 103.2868,147.17737 C 103.08489,147.17737 102.9633,147.11657 102.90044,146.98405 C 102.75682,146.6814 102.95034,146.22737 103.36428,145.89606 C 103.60159,145.7061 104.01836,145.49835 104.32405,145.41763 C 104.66815,145.32683 105.21261,145.30577 105.50978,145.37193 C 105.9891,145.47857 106.44344,145.78589 106.62046,146.12319 C 106.87333,146.60506 106.90001,146.82198 106.92515,148.6008 C 106.93905,149.58376 106.95795,150.13744 106.98005,150.20309 C 107.05875,150.43764 107.1918,150.53674 107.43065,150.53859 C 107.5824,150.53959 107.67209,150.50589 107.78161,150.40617 L 107.84851,150.34517 L 107.92281,150.41507 C 107.96371,150.45347 107.99721,150.50827 107.99721,150.5367 C 107.99721,150.5935 107.78297,150.7952 107.59569,150.91476 C 107.17978,151.18028 106.55851,151.16543 106.25171,150.88266 C 106.11077,150.75275 105.94576,150.49697 105.94528,150.40767 C 105.94513,150.37907 105.93388,150.35567 105.92038,150.35567 C 105.90688,150.35567 105.77921,150.44717 105.63676,150.55903 C 105.3045,150.81992 105.05492,150.96729 104.82388,151.03905 C 104.61366,151.10435 104.1376,151.13625 103.89056,151.10165 L 103.89051,151.1015 z M 104.99892,150.52075 C 105.21558,150.43415 105.56254,150.21663 105.7462,150.05238 C 105.84992,149.95958 105.89694,149.8914 105.91651,149.80528 C 105.93141,149.73988 105.94381,149.30003 105.94421,148.82791 L 105.94492,147.96951 L 105.84772,147.98771 C 105.53295,148.04671 104.62132,148.32018 104.43925,148.41014 C 104.05817,148.59843 103.84452,148.83919 103.71289,149.22865 C 103.62569,149.48665 103.63969,149.88862 103.74279,150.0878 C 103.85333,150.30133 103.94162,150.39974 104.09997,150.48593 C 104.37774,150.63711 104.67877,150.64877 104.99889,150.52073 L 104.99889,150.52073 L 104.99892,150.52075 z" id="path5086" style="fill:#000000;fill-opacity:1;fill-rule:nonzero;stroke:none"></path><path d="M 105.7504,144.08348 C 105.30836,143.88269 105.29966,143.23733 105.736,143.01662 C 105.87563,142.94602 106.06739,142.92992 106.19425,142.97812 C 106.34714,143.03622 106.50818,143.21672 106.55699,143.38464 C 106.59889,143.52871 106.59899,143.56006 106.55796,143.70113 C 106.45611,144.05147 106.07605,144.23142 105.75037,144.08348 L 105.7504,144.08348 z" id="path5088" style="fill:#000000;fill-opacity:1;fill-rule:nonzero;stroke:none"></path><path d="M 103.64183,144.11952 C 103.42446,144.05772 103.20868,143.7713 103.20868,143.54455 C 103.20868,143.3842 103.33853,143.14931 103.48224,143.04973 C 103.5874,142.97683 103.63365,142.96453 103.80315,142.96453 C 103.9682,142.96453 104.02128,142.97783 104.12177,143.04433 C 104.26341,143.13803 104.39837,143.3821 104.39837,143.54451 C 104.39837,143.70031 104.26841,143.93981 104.13292,144.03371 C 104.01763,144.11361 103.77205,144.15649 103.64183,144.11951 L 103.64183,144.11951 L 103.64183,144.11952 z" id="path5090" style="fill:#000000;fill-opacity:1;fill-rule:nonzero;stroke:none"></path><path d="M 110.50575,151.09836 C 109.5708,150.98663 108.93609,150.35985 108.66512,149.28071 C 108.58502,148.96185 108.5539,148.18445 108.60672,147.82323 C 108.76075,146.76982 109.45249,145.86298 110.37536,145.50463 C 110.88645,145.30617 111.50046,145.28083 112.01338,145.43703 C 112.1606,145.48183 112.33459,145.51943 112.40003,145.52053 L 112.519,145.52253 L 112.519,144.36259 C 112.519,143.12995 112.5045,142.97378 112.37735,142.83776 C 112.29795,142.75286 112.06423,142.68215 111.86291,142.68215 C 111.68108,142.68215 111.64869,142.65295 111.62301,142.46557 L 111.60431,142.32935 L 111.70473,142.31375 C 111.75993,142.30475 111.91892,142.28315 112.05796,142.26475 C 112.40254,142.21925 113.00793,142.09779 113.27134,142.02135 C 113.59346,141.92785 113.5802,141.89051 113.54291,142.78683 C 113.49751,143.87754 113.51971,149.65021 113.56991,149.79879 C 113.65591,150.05368 113.89255,150.20599 114.27431,150.25221 C 114.37221,150.26411 114.46897,150.28711 114.48942,150.30351 C 114.53062,150.33641 114.53882,150.49852 114.50232,150.5561 C 114.48942,150.5764 114.36,150.6137 114.21463,150.639 C 113.84872,150.7028 113.74134,150.7288 113.49131,150.81434 C 113.27682,150.88774 112.96787,151.04671 112.93429,151.10104 C 112.92529,151.11644 112.86489,151.12894 112.80122,151.12894 C 112.69272,151.12894 112.68345,151.12194 112.65445,151.01741 C 112.61915,150.89019 112.57405,150.64443 112.54802,150.43744 C 112.53452,150.32996 112.51792,150.29616 112.47862,150.29616 C 112.45022,150.29616 112.30047,150.39116 112.14585,150.50721 C 111.48483,151.00341 111.04304,151.16269 110.50579,151.0985 L 110.50579,151.0985 L 110.50575,151.09836 z M 111.43513,150.46593 C 111.67581,150.38393 111.90334,150.24823 112.20686,150.00585 C 112.5585,149.72504 112.53809,149.84948 112.52773,148.05024 L 112.51873,146.53364 L 112.43803,146.39632 C 112.3286,146.21017 112.04813,145.95957 111.85196,145.87266 C 111.49859,145.7161 111.05441,145.71381 110.6465,145.86666 C 110.34727,145.97862 110.00916,146.35003 109.86313,146.72719 C 109.55149,147.53206 109.59144,148.96131 109.94553,149.67545 C 110.29004,150.37025 110.84773,150.66633 111.43489,150.46616 L 111.43513,150.46593 z" id="path5092" style="fill:#000000;fill-opacity:1;fill-rule:nonzero;stroke:none"></path><path d="M 114.97019,150.9456 C 114.93139,150.8731 114.93659,150.73246 114.98019,150.6735 C 115.00569,150.6391 115.0924,150.6138 115.25531,150.5934 C 115.57878,150.5529 115.74153,150.46747 115.8289,150.29229 C 115.93722,150.07511 115.96064,149.61218 115.9466,147.96573 C 115.9331,146.38784 115.9279,146.33365 115.77432,146.1902 C 115.68182,146.1038 115.40411,146.01313 115.2321,146.01313 C 115.1038,146.01313 115.06198,145.95583 115.06198,145.78022 L 115.06198,145.66236 L 115.32223,145.62716 C 115.71611,145.57386 116.42296,145.42848 116.62067,145.36008 C 116.82257,145.29028 116.91602,145.28368 116.95808,145.33648 C 116.97758,145.36098 116.97838,145.55163 116.96008,145.89415 C 116.91928,146.66782 116.94338,150.04287 116.99068,150.18527 C 117.07798,150.4481 117.26452,150.56051 117.69395,150.60903 C 117.79205,150.62013 117.88223,150.64453 117.89425,150.66333 C 117.90625,150.68213 117.91615,150.75103 117.91615,150.81646 C 117.91615,150.88186 117.90615,150.94937 117.89425,150.96641 C 117.87955,150.98721 117.39836,150.99721 116.4348,150.99691 C 115.10955,150.99644 114.99507,150.99291 114.97,150.94561 L 114.97,150.94561 L 114.97019,150.9456 z" id="path5094" style="fill:#000000;fill-opacity:1;fill-rule:nonzero;stroke:none"></path><path d="M 116.24048,143.85873 C 116.00064,143.77123 115.80011,143.49364 115.79634,143.24396 C 115.79234,143.00413 116.03605,142.72635 116.31571,142.65105 C 116.734,142.53841 117.17953,143.06203 117.00296,143.45875 C 116.86292,143.7734 116.51165,143.95767 116.24048,143.85873 L 116.24048,143.85873 z" id="path5096" style="fill:#000000;fill-opacity:1;fill-rule:nonzero;stroke:none"></path><path d="M 120.84681,151.09743 C 120.05464,151.01833 119.45869,150.67034 119.05402,150.05045 C 118.41641,149.07373 118.50985,147.33666 119.2504,146.3998 C 119.58041,145.9823 120.11243,145.60751 120.60887,145.44277 C 120.7923,145.38187 120.87014,145.37407 121.2632,145.37727 C 121.61758,145.38027 121.75826,145.39397 121.94727,145.44467 C 122.54496,145.60507 122.86728,145.85554 123.10182,146.34187 C 123.28082,146.71304 123.33073,146.91001 123.351,147.32537 C 123.3672,147.6571 123.3651,147.67364 123.2997,147.73906 L 123.2316,147.80716 L 121.44789,147.78646 L 119.66419,147.76576 L 119.68489,148.07176 C 119.74319,148.93249 119.99992,149.58508 120.45374,150.02627 C 120.80406,150.36685 121.13086,150.50466 121.58605,150.5038 C 122.11325,150.5028 122.5131,150.36045 122.89545,150.03763 C 123.1841,149.79394 123.16752,149.80268 123.25349,149.84869 C 123.41568,149.93549 123.38441,150.03249 123.10376,150.31314 C 122.49808,150.91883 121.73019,151.1857 120.8468,151.09753 L 120.84681,151.09743 z M 121.4566,147.33178 C 122.10298,147.31408 122.18594,147.30618 122.23471,147.25738 C 122.30221,147.18988 122.30441,147.05922 122.24371,146.71254 C 122.16371,146.25373 121.99058,146.00384 121.6383,145.83866 C 121.49411,145.77106 121.43196,145.76026 121.18581,145.76026 C 120.90515,145.76026 120.89579,145.76226 120.61574,145.9016 C 120.27576,146.07038 120.13646,146.21284 119.96899,146.56302 C 119.86119,146.78843 119.73124,147.19198 119.73124,147.30131 C 119.73124,147.34641 119.78214,147.35151 120.23204,147.35151 C 120.50748,147.35151 121.05842,147.34251 121.45636,147.33171 L 121.4566,147.33178 z" id="path5098" style="fill:#000000;fill-opacity:1;fill-rule:nonzero;stroke:none"></path></g>
<g id="Wikipedia">
	<path d="M 18.757,118.893 C 18.757,118.893 18.39,118.147 18.265,117.899 C 17.431,116.247 17.449,116.159 16.606,116.047 C 16.37,116.016 16.248,115.986 16.248,115.869 L 16.248,115.346 L 16.319,115.295 C 17.842,115.293 21.231,115.293 21.231,115.293 L 21.361,115.336 L 21.361,115.857 C 21.361,115.976 21.276,116.037 21.103,116.037 L 20.747,116.088 C 19.847,116.158 19.994,116.526 20.592,117.717 L 26.269,129.332 L 26.463,129.385 L 31.503,117.424 C 31.678,116.942 31.651,116.6 31.426,116.399 C 31.2,116.204 31.041,116.087 30.457,116.063 L 29.984,116.04 C 29.926,116.04 29.871,116.019 29.818,115.979 C 29.766,115.942 29.739,115.893 29.739,115.834 L 29.739,115.336 L 29.811,115.285 C 31.231,115.285 35.505,115.285 35.505,115.285 L 35.563,115.336 L 35.563,115.834 C 35.563,115.969 35.486,116.037 35.334,116.037 C 34.588,116.07 34.035,116.232 33.677,116.521 C 33.318,116.812 33.038,117.212 32.837,117.734 C 32.837,117.734 28.202,128.342 26.616,131.869 C 26.009,133.025 25.412,132.919 24.887,131.836 C 23.778,129.552 20.655,122.623 20.655,122.623 L 18.757,118.893 z" id="path3898"></path>
	<path d="M 27.853,115.287 C 27.853,115.287 24.65,115.277 23.224,115.287 L 23.153,115.338 L 23.153,115.834 C 23.153,115.895 23.179,115.943 23.231,115.98 C 23.284,116.019 23.338,116.039 23.396,116.039 L 23.625,116.064 C 24.208,116.087 24.476,116.241 24.556,116.336 C 24.695,116.506 24.764,116.69 24.427,117.425 L 18.447,129.353 L 18.29,129.312 C 18.29,129.312 14.007,120.281 12.767,117.259 C 12.638,116.947 12.58,116.714 12.58,116.571 C 12.58,116.264 12.857,116.098 13.411,116.075 L 14.057,116.048 C 14.228,116.048 14.315,115.982 14.315,115.845 L 14.315,115.349 L 14.257,115.298 C 14.257,115.298 9.127,115.292 8.067,115.298 L 8.009,115.349 L 8.009,115.87 C 8.009,115.964 8.128,116.022 8.367,116.048 C 9.018,116.083 9.446,116.187 9.652,116.36 C 9.857,116.535 10.074,116.977 10.362,117.666 C 11.919,121.406 15.227,128.08 16.838,131.881 C 17.302,132.919 17.885,133.08 18.593,131.849 C 19.819,129.576 23.143,122.631 23.143,122.631 L 25.761,117.735 C 26.066,117.217 26.36,116.756 26.509,116.542 C 26.782,116.149 26.935,116.075 27.681,116.04 C 27.833,116.04 27.91,115.972 27.91,115.835 L 27.91,115.339 L 27.853,115.287 z" id="path3900"></path>
	<path d="M 37.592,130.77 C 37.592,131.342 37.852,131.68 38.684,131.758 L 39.23,131.811 C 39.308,131.811 39.386,131.862 39.386,131.966 L 39.386,132.512 L 39.36,132.565 C 39.36,132.565 37.384,132.512 36.578,132.512 C 35.85,132.512 33.822,132.565 33.822,132.565 L 33.77,132.512 L 33.77,131.966 C 33.77,131.862 33.848,131.811 33.952,131.811 L 34.472,131.758 C 35.33,131.68 35.59,131.264 35.59,130.77 L 35.59,122.112 C 35.59,121.542 35.277,121.383 34.472,121.307 L 33.952,121.253 C 33.848,121.253 33.77,121.229 33.77,121.149 L 33.77,120.55 L 33.796,120.498 C 33.796,120.498 35.85,120.55 36.656,120.55 C 37.358,120.55 39.36,120.498 39.36,120.498 L 39.386,120.55 L 39.386,121.122 C 39.386,121.2 39.334,121.252 39.23,121.252 L 38.684,121.305 C 37.878,121.382 37.592,121.591 37.592,122.112 L 37.592,130.77 z" id="path3904"></path>
	<path d="M 45.265,130.77 C 45.265,131.342 45.603,131.628 46.357,131.758 L 46.643,131.811 C 46.721,131.836 46.799,131.862 46.799,131.966 L 46.799,132.512 L 46.773,132.565 C 46.773,132.565 45.135,132.512 44.355,132.512 C 43.627,132.512 41.495,132.565 41.495,132.565 L 41.443,132.512 L 41.443,131.966 C 41.443,131.862 41.521,131.811 41.625,131.811 L 42.145,131.758 C 42.925,131.68 43.263,131.264 43.263,130.77 L 43.263,122.112 C 43.263,121.542 42.977,121.383 42.145,121.307 L 41.625,121.253 C 41.521,121.253 41.443,121.229 41.443,121.149 L 41.443,120.55 L 41.469,120.498 C 41.469,120.498 43.601,120.55 44.407,120.55 C 45.136,120.55 46.773,120.498 46.773,120.498 L 46.799,120.55 L 46.799,121.122 C 46.799,121.2 46.747,121.226 46.643,121.252 L 46.357,121.305 C 45.551,121.46 45.265,121.591 45.265,122.112 L 45.265,126.039 C 46.123,126.039 46.617,125.599 47.761,124.375 C 48.801,123.229 49.607,122.271 49.607,121.774 C 49.607,121.565 49.373,121.333 48.853,121.253 C 48.749,121.229 48.697,121.201 48.697,121.123 L 48.697,120.523 L 48.723,120.499 C 48.723,120.499 50.829,120.551 51.583,120.551 C 52.259,120.551 53.403,120.499 53.403,120.499 L 53.481,120.523 L 53.481,121.123 C 53.481,121.201 53.403,121.253 53.273,121.253 C 52.259,121.331 51.557,121.383 50.621,122.449 L 48.385,125.021 C 47.943,125.491 47.787,125.775 47.787,125.984 C 47.787,126.14 47.891,126.269 48.021,126.425 L 51.947,131.157 C 52.259,131.52 52.883,131.677 53.403,131.78 L 53.533,131.805 C 53.611,131.83 53.715,131.882 53.715,131.96 L 53.715,132.506 L 53.637,132.532 C 53.637,132.532 52.259,132.506 51.531,132.506 C 50.881,132.506 49.945,132.532 49.945,132.532 L 49.919,132.506 L 49.919,132.194 C 49.919,131.855 49.893,131.571 49.529,131.155 L 46.643,127.566 C 46.253,127.045 45.837,126.917 45.265,126.917 L 45.265,130.77 L 45.265,130.77 z" id="path3906"></path>
	<path d="M 59.282,130.77 C 59.282,131.342 59.542,131.68 60.374,131.758 L 60.92,131.811 C 60.998,131.811 61.076,131.862 61.076,131.966 L 61.076,132.512 L 61.05,132.565 C 61.05,132.565 59.074,132.512 58.268,132.512 C 57.54,132.512 55.512,132.565 55.512,132.565 L 55.46,132.512 L 55.46,131.966 C 55.46,131.862 55.538,131.811 55.642,131.811 L 56.162,131.758 C 57.02,131.68 57.28,131.264 57.28,130.77 L 57.28,122.112 C 57.28,121.542 56.968,121.383 56.162,121.307 L 55.642,121.253 C 55.538,121.253 55.46,121.229 55.46,121.149 L 55.46,120.55 L 55.486,120.498 C 55.486,120.498 57.54,120.55 58.346,120.55 C 59.048,120.55 61.05,120.498 61.05,120.498 L 61.076,120.55 L 61.076,121.122 C 61.076,121.2 61.024,121.252 60.92,121.252 L 60.374,121.305 C 59.568,121.382 59.282,121.591 59.282,122.112 L 59.282,130.77 z" id="path3908"></path>
	<path d="M 64.9,122.163 C 64.9,121.357 64.562,121.331 63.34,121.253 C 63.184,121.253 63.158,121.176 63.158,121.123 L 63.158,120.525 L 63.21,120.499 C 63.6,120.499 65.134,120.551 65.888,120.551 C 66.616,120.551 67.656,120.499 68.618,120.499 C 72.308,120.499 72.984,122.318 72.984,123.672 C 72.984,125.233 72.23,127.676 68.54,127.676 C 67.89,127.676 67.37,127.623 66.901,127.416 L 66.901,130.898 C 66.901,131.469 67.213,131.601 68.046,131.73 L 68.567,131.808 C 68.671,131.833 68.75,131.861 68.75,131.963 L 68.75,132.509 L 68.726,132.562 C 68.726,132.562 66.645,132.509 65.839,132.509 C 65.111,132.509 63.161,132.562 63.161,132.562 L 63.135,132.509 L 63.135,131.963 C 63.135,131.859 63.187,131.833 63.291,131.808 L 63.837,131.73 C 64.643,131.626 64.903,131.392 64.903,130.898 L 64.9,122.163 L 64.9,122.163 L 64.9,122.163 z M 66.902,126.688 C 67.422,126.897 68.072,126.922 68.592,126.922 C 70.153,126.922 70.904,125.984 70.904,123.984 C 70.904,121.748 69.89,121.254 68.462,121.254 C 67.213,121.254 66.901,121.488 66.901,122.164 L 66.902,126.688 L 66.902,126.688 z" id="path3910"></path>
	<path d="M 77.462,132.512 C 76.682,132.512 74.889,132.565 74.889,132.565 L 74.862,132.512 L 74.862,131.94 C 74.862,131.889 74.889,131.811 75.018,131.811 L 75.618,131.758 C 76.425,131.68 76.659,131.16 76.659,130.641 L 76.659,122.061 C 76.659,121.461 76.347,121.358 75.618,121.307 L 75.018,121.253 C 74.862,121.229 74.862,121.176 74.862,121.149 L 74.862,120.55 L 74.889,120.498 C 74.889,120.498 76.916,120.55 77.696,120.55 L 81.518,120.55 C 82.298,120.55 84.145,120.498 84.145,120.498 L 84.199,120.55 C 84.223,121.668 84.405,122.684 84.589,123.671 L 83.941,123.775 C 83.656,122.812 83.162,121.435 81.498,121.435 L 79.418,121.435 C 78.924,121.435 78.664,121.617 78.664,122.058 L 78.664,125.829 L 80.613,125.829 C 81.342,125.829 81.523,125.517 81.628,124.997 L 81.783,124.451 C 81.783,124.373 81.836,124.32 81.939,124.32 L 82.379,124.32 C 82.433,124.32 82.433,124.347 82.433,124.398 C 82.379,124.969 82.277,125.699 82.277,126.323 C 82.277,126.972 82.381,127.519 82.433,128.117 L 82.379,128.17 L 81.939,128.17 C 81.81,128.17 81.755,128.117 81.755,128.039 L 81.625,127.468 C 81.521,126.947 81.287,126.661 80.608,126.661 L 78.66,126.661 L 78.66,130.64 C 78.66,131.132 78.943,131.626 79.414,131.626 L 81.884,131.626 C 83.21,131.626 83.94,130.794 84.25,129.44 L 84.898,129.518 L 84.377,132.507 L 84.325,132.559 C 84.325,132.559 82.791,132.507 82.011,132.507 L 77.462,132.512 L 77.462,132.512 L 77.462,132.512 z" id="path3912"></path>
	<path d="M 87.24,131.811 L 87.838,131.758 C 88.619,131.68 88.879,131.446 88.879,130.641 L 88.879,122.061 C 88.879,121.383 88.695,121.383 87.838,121.307 L 87.268,121.253 C 87.164,121.253 87.084,121.201 87.084,121.123 L 87.084,120.551 L 87.109,120.499 C 87.109,120.499 89.398,120.551 89.867,120.551 C 90.359,120.551 92.623,120.499 93.299,120.499 C 97.641,120.499 99.774,123.203 99.774,126.661 C 99.774,131.212 96.549,132.562 93.665,132.562 C 91.585,132.562 90.676,132.509 89.87,132.509 C 89.089,132.509 87.112,132.562 87.112,132.562 L 87.087,132.509 L 87.087,131.963 C 87.084,131.889 87.137,131.811 87.24,131.811 z M 93.039,131.811 C 95.898,131.811 97.512,130.747 97.512,127.104 C 97.512,124.401 96.913,121.253 92.545,121.253 C 91.531,121.253 90.881,121.409 90.881,122.061 L 90.881,130.641 C 90.881,131.367 91.062,131.811 93.039,131.811 z" id="path3914"></path>
	<path d="M 105.912,130.77 C 105.912,131.342 106.172,131.68 107.004,131.758 L 107.55,131.811 C 107.628,131.811 107.706,131.862 107.706,131.966 L 107.706,132.512 L 107.68,132.565 C 107.68,132.565 105.704,132.512 104.899,132.512 C 104.17,132.512 102.143,132.565 102.143,132.565 L 102.09,132.512 L 102.09,131.966 C 102.09,131.862 102.168,131.811 102.272,131.811 L 102.793,131.758 C 103.65,131.68 103.911,131.264 103.911,130.77 L 103.911,122.112 C 103.911,121.542 103.598,121.383 102.793,121.307 L 102.272,121.253 C 102.168,121.253 102.09,121.229 102.09,121.149 L 102.09,120.55 L 102.116,120.498 C 102.116,120.498 104.17,120.55 104.974,120.55 C 105.675,120.55 107.679,120.498 107.679,120.498 L 107.703,120.55 L 107.703,121.122 C 107.703,121.2 107.649,121.252 107.547,121.252 L 107.001,121.305 C 106.194,121.382 105.909,121.591 105.909,122.112 L 105.912,130.77 L 105.912,130.77 L 105.912,130.77 z" id="path3916"></path>
	<path d="M 113.922,131.758 L 114.676,131.811 C 114.78,131.811 114.884,131.889 114.884,132.018 L 114.884,132.512 L 114.832,132.565 C 114.832,132.565 111.998,132.512 111.374,132.512 C 110.697,132.512 109.033,132.565 109.033,132.565 L 108.98,132.512 L 108.98,132.018 C 108.98,131.889 109.058,131.811 109.189,131.811 C 110.334,131.733 110.982,131.524 111.71,129.86 L 117.481,116.339 C 117.766,115.663 117.975,115.402 118.367,115.402 C 118.729,115.402 118.86,115.663 119.067,116.183 L 124.397,130.275 C 124.762,131.29 125.283,131.679 126.323,131.783 L 126.608,131.808 C 126.739,131.808 126.869,131.885 126.869,132.017 L 126.869,132.509 L 126.791,132.562 C 126.791,132.562 124.789,132.509 123.774,132.509 C 122.864,132.509 120.315,132.562 120.315,132.562 L 120.291,132.509 L 120.291,132.017 C 120.291,131.885 120.343,131.808 120.476,131.808 L 121.204,131.755 C 122.191,131.678 122.557,131.364 122.296,130.638 L 120.71,126.242 L 115.3,126.242 C 114.676,126.242 114.52,126.346 114.391,126.682 L 112.882,130.453 C 112.622,131.107 112.96,131.68 113.922,131.758 z M 120.292,125.152 L 117.77,118.211 L 117.718,118.211 L 115.118,124.815 C 115.014,125.077 115.195,125.153 115.767,125.153 L 120.292,125.153 L 120.292,125.152 z" id="path3918"></path>
</g>

<g transform="translate(163.19523,-47.391088)" id="grid">
</g></svg>
</svg>