<?xml version="1.0" encoding="UTF-8" standalone="no"?>
<!-- Created with Inkscape (http://www.inkscape.org/) -->

<svg xmlns:svg="http://www.w3.org/2000/svg" xmlns="http://www.w3.org/2000/svg" xmlns:xlink="http://www.w3.org/1999/xlink" version="1.1" width="135" height="155" viewBox="0 0 135 155" id="svg3857" xml:space="preserve"><defs id="defs4850">
	
		<radialGradient cx="-145.4702" cy="87.823196" r="68.686401" id="SVGID_1_" gradientUnits="userSpaceOnUse" gradientTransform="matrix(1,0,0,-1,192.3999,143.0996)">
		<stop id="stop3922" style="stop-color:#ffffff;stop-opacity:1" offset="0"></stop>
		<stop id="stop3924" style="stop-color:#eaeaeb;stop-opacity:1" offset="0.4835"></stop>
		<stop id="stop3926" style="stop-color:#a9abae;stop-opacity:1" offset="0.94510001"></stop>
		<stop id="stop3928" style="stop-color:#999b9e;stop-opacity:1" offset="1"></stop>
	</radialGradient>
	
	
	<linearGradient x1="66.232399" y1="24.481001" x2="112.7331" y2="97.232101" id="SVGID_2_" gradientUnits="userSpaceOnUse">
		<stop id="stop3935" style="stop-color:#8a8a8a;stop-opacity:1" offset="0"></stop>
		<stop id="stop3937" style="stop-color:#606060;stop-opacity:1" offset="0.56870002"></stop>
		<stop id="stop3939" style="stop-color:#ffffff;stop-opacity:1" offset="0.59140003"></stop>
		<stop id="stop3941" style="stop-color:#585858;stop-opacity:1" offset="0.61159998"></stop>
		<stop id="stop3943" style="stop-color:#303030;stop-opacity:1" offset="1"></stop>
	</linearGradient>
	
	
	<linearGradient x1="54.715801" y1="65.136703" x2="83.798798" y2="65.136703" id="SVGID_5_" gradientUnits="userSpaceOnUse">
		<stop id="stop3964" style="stop-color:#231f20;stop-opacity:1" offset="0"></stop>
		<stop id="stop3966" style="stop-color:#474747;stop-opacity:1" offset="1"></stop>
	</linearGradient>
	
	
	
	
	
	
	
	
	
		<linearGradient x1="-123.5898" y1="119.8076" x2="-94.069099" y2="29.9035" id="SVGID_6_" gradientUnits="userSpaceOnUse" gradientTransform="matrix(1,0,0,-1,192.3999,143.0996)">
		<stop id="stop3997" style="stop-color:#ffffff;stop-opacity:1" offset="0"></stop>
		<stop id="stop3999" style="stop-color:#fcfcfc;stop-opacity:1" offset="0.0094"></stop>
		<stop id="stop4001" style="stop-color:#eeeeee;stop-opacity:1" offset="0.0655"></stop>
		<stop id="stop4003" style="stop-color:#e5e5e5;stop-opacity:1" offset="0.13420001"></stop>
		<stop id="stop4005" style="stop-color:#e3e3e3;stop-opacity:1" offset="0.25150001"></stop>
		<stop id="stop4007" style="stop-color:#8a8a8a;stop-opacity:1" offset="0.33570001"></stop>
		<stop id="stop4009" style="stop-color:#b8b8b8;stop-opacity:1" offset="0.44220001"></stop>
		<stop id="stop4011" style="stop-color:#3b3b3b;stop-opacity:1" offset="1"></stop>
	</linearGradient>
	
	<linearGradient x1="70.421898" y1="26.876499" x2="119.5471" y2="87.626701" id="SVGID_7_" gradientUnits="userSpaceOnUse">
		<stop id="stop4016" style="stop-color:#eff0f0;stop-opacity:1" offset="0"></stop>
		<stop id="stop4018" style="stop-color:#f0f1f2;stop-opacity:1" offset="0.59140003"></stop>
		<stop id="stop4020" style="stop-color:#787878;stop-opacity:1" offset="0.59899998"></stop>
		<stop id="stop4022" style="stop-color:#eeeff0;stop-opacity:1" offset="0.64560002"></stop>
		<stop id="stop4024" style="stop-color:#d8d9db;stop-opacity:1" offset="1"></stop>
	</linearGradient>
	
	
		<linearGradient x1="-117.166" y1="122.1328" x2="-87.569702" y2="31.998501" id="SVGID_8_" gradientUnits="userSpaceOnUse" gradientTransform="matrix(1,0,0,-1,192.3999,143.0996)">
		<stop id="stop4029" style="stop-color:#ffffff;stop-opacity:1" offset="0"></stop>
		<stop id="stop4031" style="stop-color:#e4e5e6;stop-opacity:1" offset="1"></stop>
	</linearGradient>
	
	<linearGradient x1="54.653301" y1="25.2764" x2="79.683601" y2="106.3903" id="SVGID_9_" gradientUnits="userSpaceOnUse">
		<stop id="stop4036" style="stop-color:#ffffff;stop-opacity:1" offset="0"></stop>
		<stop id="stop4038" style="stop-color:#f9f9f9;stop-opacity:1" offset="0.74730003"></stop>
		<stop id="stop4040" style="stop-color:#d5d7d8;stop-opacity:1" offset="1"></stop>
	</linearGradient>
	
	
	
	
	
		<linearGradient x1="-115.3369" y1="119.6328" x2="-134.85719" y2="24.6462" id="SVGID_10_" gradientUnits="userSpaceOnUse" gradientTransform="matrix(1,0,0,-1,192.3999,143.0996)">
		<stop id="stop4061" style="stop-color:#ffffff;stop-opacity:1" offset="0"></stop>
		<stop id="stop4063" style="stop-color:#e4e5e6;stop-opacity:1" offset="1"></stop>
	</linearGradient>
	
	<linearGradient x1="32.519001" y1="33.077099" x2="37.2481" y2="92.496101" id="SVGID_11_" gradientUnits="userSpaceOnUse">
		<stop id="stop4068" style="stop-color:#989a9c;stop-opacity:1" offset="0.2198"></stop>
		<stop id="stop4070" style="stop-color:#ffffff;stop-opacity:1" offset="0.2527"></stop>
	</linearGradient>
	
	
		<linearGradient x1="-152.6201" y1="126.8398" x2="-171.9462" y2="32.797901" id="SVGID_12_" gradientUnits="userSpaceOnUse" gradientTransform="matrix(1,0,0,-1,192.3999,143.0996)">
		<stop id="stop4075" style="stop-color:#ffffff;stop-opacity:1" offset="0"></stop>
		<stop id="stop4077" style="stop-color:#e4e5e6;stop-opacity:1" offset="1"></stop>
	</linearGradient>
	
	
		<linearGradient x1="-130.1348" y1="35.625" x2="-130.14281" y2="35.585701" id="SVGID_13_" gradientUnits="userSpaceOnUse" gradientTransform="matrix(1,0,0,-1,192.3999,143.0996)">
		<stop id="stop4082" style="stop-color:#ffffff;stop-opacity:1" offset="0"></stop>
		<stop id="stop4084" style="stop-color:#e4e5e6;stop-opacity:1" offset="1"></stop>
	</linearGradient>
	
	
	
	
		<linearGradient x1="-121.1382" y1="120.3223" x2="-140.54491" y2="25.888" id="SVGID_14_" gradientUnits="userSpaceOnUse" gradientTransform="matrix(1,0,0,-1,192.3999,143.0996)">
		<stop id="stop4093" style="stop-color:#ffffff;stop-opacity:1" offset="0"></stop>
		<stop id="stop4095" style="stop-color:#e4e5e6;stop-opacity:1" offset="1"></stop>
	</linearGradient>
	
	
		<linearGradient x1="-135.58591" y1="123.3525" x2="-155.006" y2="28.8524" id="SVGID_15_" gradientUnits="userSpaceOnUse" gradientTransform="matrix(1,0,0,-1,192.3999,143.0996)">
		<stop id="stop4100" style="stop-color:#ffffff;stop-opacity:1" offset="0"></stop>
		<stop id="stop4102" style="stop-color:#e4e5e6;stop-opacity:1" offset="1"></stop>
	</linearGradient>
	
	
		<linearGradient x1="-127.4014" y1="121.9365" x2="-146.8837" y2="27.1346" id="SVGID_16_" gradientUnits="userSpaceOnUse" gradientTransform="matrix(1,0,0,-1,192.3999,143.0996)">
		<stop id="stop4107" style="stop-color:#ffffff;stop-opacity:1" offset="0"></stop>
		<stop id="stop4109" style="stop-color:#e4e5e6;stop-opacity:1" offset="1"></stop>
	</linearGradient>
	
	
		<linearGradient x1="-118.4946" y1="124.0039" x2="-138.85201" y2="24.9438" id="SVGID_17_" gradientUnits="userSpaceOnUse" gradientTransform="matrix(1,0,0,-1,192.3999,143.0996)">
		<stop id="stop4114" style="stop-color:#ffffff;stop-opacity:1" offset="0"></stop>
		<stop id="stop4116" style="stop-color:#e4e5e6;stop-opacity:1" offset="1"></stop>
	</linearGradient>
	
	
		<linearGradient x1="-115.3716" y1="119.1758" x2="-134.7878" y2="24.695299" id="SVGID_18_" gradientUnits="userSpaceOnUse" gradientTransform="matrix(1,0,0,-1,192.3999,143.0996)">
		<stop id="stop4121" style="stop-color:#ffffff;stop-opacity:1" offset="0"></stop>
		<stop id="stop4123" style="stop-color:#e4e5e6;stop-opacity:1" offset="1"></stop>
	</linearGradient>
	
	
	
	
	
	
	
	
	
	
	
	
		<linearGradient x1="-175.4424" y1="83.6045" x2="-75.6362" y2="83.6045" id="SVGID_21_" gradientUnits="userSpaceOnUse" gradientTransform="matrix(1,0,0,-1,192.3999,143.0996)">
		<stop id="stop4198" style="stop-color:#555555;stop-opacity:1" offset="0"></stop>
		<stop id="stop4200" style="stop-color:#231f20;stop-opacity:1" offset="1"></stop>
	</linearGradient>
	
	
		<linearGradient x1="-175.14211" y1="104.0801" x2="-83.541" y2="104.0801" id="SVGID_22_" gradientUnits="userSpaceOnUse" gradientTransform="matrix(1,0,0,-1,192.3999,143.0996)">
		<stop id="stop4205" style="stop-color:#a0a0a0;stop-opacity:1" offset="0"></stop>
		<stop id="stop4207" style="stop-color:#656767;stop-opacity:1" offset="0.0769"></stop>
		<stop id="stop4209" style="stop-color:#717375;stop-opacity:1" offset="1"></stop>
	</linearGradient>
	
	
	
	
	
	
	
		<linearGradient x1="-172.3853" y1="78.209" x2="-172.3853" y2="78.209" id="SVGID_23_" gradientUnits="userSpaceOnUse" gradientTransform="matrix(1,0,0,-1,192.3999,143.0996)">
		<stop id="stop4224" style="stop-color:#ffffff;stop-opacity:1" offset="0"></stop>
		<stop id="stop4226" style="stop-color:#f4f4f4;stop-opacity:1" offset="0.078"></stop>
		<stop id="stop4228" style="stop-color:#cecece;stop-opacity:1" offset="0.38069999"></stop>
		<stop id="stop4230" style="stop-color:#bfbfbf;stop-opacity:1" offset="0.53960001"></stop>
		<stop id="stop4232" style="stop-color:#7c7c7c;stop-opacity:1" offset="0.83569998"></stop>
		<stop id="stop4234" style="stop-color:#a8a8a8;stop-opacity:1" offset="0.89960003"></stop>
		<stop id="stop4236" style="stop-color:#9a9a9a;stop-opacity:1" offset="0.90930003"></stop>
		<stop id="stop4238" style="stop-color:#7d7d7d;stop-opacity:1" offset="0.93269998"></stop>
		<stop id="stop4240" style="stop-color:#686868;stop-opacity:1" offset="0.9558"></stop>
		<stop id="stop4242" style="stop-color:#5b5b5b;stop-opacity:1" offset="0.97850001"></stop>
		<stop id="stop4244" style="stop-color:#575757;stop-opacity:1" offset="1"></stop>
	</linearGradient>
	
	
		<linearGradient x1="-175.7173" y1="78.449203" x2="-67.153198" y2="90.476799" id="SVGID_24_" gradientUnits="userSpaceOnUse" gradientTransform="matrix(1,0,0,-1,192.3999,143.0996)">
		<stop id="stop4249" style="stop-color:#ffffff;stop-opacity:1" offset="0"></stop>
		<stop id="stop4251" style="stop-color:#f4f4f4;stop-opacity:1" offset="0.078"></stop>
		<stop id="stop4253" style="stop-color:#cecece;stop-opacity:1" offset="0.38069999"></stop>
		<stop id="stop4255" style="stop-color:#bfbfbf;stop-opacity:1" offset="0.53960001"></stop>
		<stop id="stop4257" style="stop-color:#7c7c7c;stop-opacity:1" offset="0.83569998"></stop>
		<stop id="stop4259" style="stop-color:#a8a8a8;stop-opacity:1" offset="0.89960003"></stop>
		<stop id="stop4261" style="stop-color:#9a9a9a;stop-opacity:1" offset="0.90930003"></stop>
		<stop id="stop4263" style="stop-color:#7d7d7d;stop-opacity:1" offset="0.93269998"></stop>
		<stop id="stop4265" style="stop-color:#686868;stop-opacity:1" offset="0.9558"></stop>
		<stop id="stop4267" style="stop-color:#5b5b5b;stop-opacity:1" offset="0.97850001"></stop>
		<stop id="stop4269" style="stop-color:#575757;stop-opacity:1" offset="1"></stop>
	</linearGradient>
	
	
		<linearGradient x1="-176.1851" y1="78.4795" x2="-52.131699" y2="92.223099" id="SVGID_25_" gradientUnits="userSpaceOnUse" gradientTransform="matrix(1,0,0,-1,192.3999,143.0996)">
		<stop id="stop4274" style="stop-color:#ffffff;stop-opacity:1" offset="0"></stop>
		<stop id="stop4276" style="stop-color:#f4f4f4;stop-opacity:1" offset="0.078"></stop>
		<stop id="stop4278" style="stop-color:#cecece;stop-opacity:1" offset="0.38069999"></stop>
		<stop id="stop4280" style="stop-color:#bfbfbf;stop-opacity:1" offset="0.53960001"></stop>
		<stop id="stop4282" style="stop-color:#7c7c7c;stop-opacity:1" offset="0.83569998"></stop>
		<stop id="stop4284" style="stop-color:#a8a8a8;stop-opacity:1" offset="0.89960003"></stop>
		<stop id="stop4286" style="stop-color:#9a9a9a;stop-opacity:1" offset="0.90930003"></stop>
		<stop id="stop4288" style="stop-color:#7d7d7d;stop-opacity:1" offset="0.93269998"></stop>
		<stop id="stop4290" style="stop-color:#686868;stop-opacity:1" offset="0.9558"></stop>
		<stop id="stop4292" style="stop-color:#5b5b5b;stop-opacity:1" offset="0.97850001"></stop>
		<stop id="stop4294" style="stop-color:#575757;stop-opacity:1" offset="1"></stop>
	</linearGradient>
	
	<linearGradient x1="21.2129" y1="71.326698" x2="117.1948" y2="51.952599" id="SVGID_26_" gradientUnits="userSpaceOnUse">
		<stop id="stop4299" style="stop-color:#ededee;stop-opacity:1" offset="0"></stop>
		<stop id="stop4301" style="stop-color:#ffffff;stop-opacity:1" offset="0.41760001"></stop>
		<stop id="stop4303" style="stop-color:#f8f9f9;stop-opacity:1" offset="0.62639999"></stop>
		<stop id="stop4305" style="stop-color:#bfc0c2;stop-opacity:1" offset="1"></stop>
	</linearGradient>
	
	
	
	
	<linearGradient x1="23.471201" y1="30.732401" x2="27.9561" y2="30.732401" id="SVGID_27_" gradientUnits="userSpaceOnUse">
		<stop id="stop4316" style="stop-color:#e2e3e4;stop-opacity:1" offset="0"></stop>
		<stop id="stop4318" style="stop-color:#ffffff;stop-opacity:1" offset="0.50550002"></stop>
	</linearGradient>
	
	
	
	
	
	
	
	
	
	
	
	
	
	
	
	
	
	
	
	
	
	
	
	
	
	
	
	
	
	
	
	
	
	
	
	
	
	
	
	
	
	
	
	
	
	
	
	
	
	
	
	
	
	
	
	
	
	
	
	
	
	
	
	
	
	
	
	
	
	
	
	
	
	
	
	
	
	
	
	
	
	
	
	
	
	
	
	
	
	
	
	
	
	
	
	
	
	
	
	
	
	
	
	
	
	
	
	
	
	
	
	
	
	
	
	
	
	
	
	
	
	
	
	
	
	
	
	
	
	
	
	
	
	
	
	
	
	
	
	
	
	
	
	
	
	
	
	
	
	
	
	
	
	
	
	
	
	
	
	
	
	
	
	
	
	
	
	
	
	
	
	
	
	
	
	
	
	
	<linearGradient x1="22.5742" y1="49.7188" x2="111.5455" y2="29.204" id="SVGID_34_" gradientUnits="userSpaceOnUse">
		<stop id="stop4743" style="stop-color:#ffffff;stop-opacity:1" offset="0"></stop>
		<stop id="stop4745" style="stop-color:#ffffff;stop-opacity:1" offset="0.65380001"></stop>
		<stop id="stop4747" style="stop-color:#cbccce;stop-opacity:1" offset="1"></stop>
	</linearGradient>
	
	
	
	
	
	
	
	
		<linearGradient x1="-158.8101" y1="107.0898" x2="-126.4229" y2="107.0898" id="SVGID_35_" gradientUnits="userSpaceOnUse" gradientTransform="matrix(1,0,0,-1,192.3999,143.0996)">
		<stop id="stop4770" style="stop-color:#696969;stop-opacity:1" offset="0"></stop>
		<stop id="stop4772" style="stop-color:#2e2e2e;stop-opacity:1" offset="0.37020001"></stop>
		<stop id="stop4774" style="stop-color:#424242;stop-opacity:1" offset="0.45539999"></stop>
		<stop id="stop4776" style="stop-color:#303030;stop-opacity:1" offset="0.60140002"></stop>
		<stop id="stop4778" style="stop-color:#4a4a4a;stop-opacity:1" offset="0.6947"></stop>
		<stop id="stop4780" style="stop-color:#666666;stop-opacity:1" offset="1"></stop>
	</linearGradient>
	
	
		<linearGradient x1="-158.4185" y1="107.8965" x2="-126.5454" y2="107.8965" id="SVGID_36_" gradientUnits="userSpaceOnUse" gradientTransform="matrix(1,0,0,-1,192.3999,143.0996)">
		<stop id="stop4785" style="stop-color:#525252;stop-opacity:1" offset="0"></stop>
		<stop id="stop4787" style="stop-color:#333333;stop-opacity:1" offset="0.1856"></stop>
		<stop id="stop4789" style="stop-color:#aeaeae;stop-opacity:1" offset="0.354"></stop>
		<stop id="stop4791" style="stop-color:#adadad;stop-opacity:1" offset="0.4199"></stop>
		<stop id="stop4793" style="stop-color:#9d9d9d;stop-opacity:1" offset="0.4276"></stop>
		<stop id="stop4795" style="stop-color:#818181;stop-opacity:1" offset="0.44330001"></stop>
		<stop id="stop4797" style="stop-color:#6a6a6a;stop-opacity:1" offset="0.46110001"></stop>
		<stop id="stop4799" style="stop-color:#585858;stop-opacity:1" offset="0.48140001"></stop>
		<stop id="stop4801" style="stop-color:#4c4c4c;stop-opacity:1" offset="0.50599998"></stop>
		<stop id="stop4803" style="stop-color:#444444;stop-opacity:1" offset="0.53899997"></stop>
		<stop id="stop4805" style="stop-color:#424242;stop-opacity:1" offset="0.61659998"></stop>
		<stop id="stop4807" style="stop-color:#454545;stop-opacity:1" offset="0.66839999"></stop>
		<stop id="stop4809" style="stop-color:#bdbdbd;stop-opacity:1" offset="1"></stop>
	</linearGradient>
	
	
		<linearGradient x1="-153.1255" y1="97.627899" x2="-154.15421" y2="104.4332" id="SVGID_37_" gradientUnits="userSpaceOnUse" gradientTransform="matrix(1,0,0,-1,192.3999,143.0996)">
		<stop id="stop4814" style="stop-color:#969696;stop-opacity:1" offset="0"></stop>
		<stop id="stop4816" style="stop-color:#000000;stop-opacity:1" offset="1"></stop>
	</linearGradient>
	
	
	
	<linearGradient x1="38.737301" y1="46.373001" x2="39.487301" y2="38.790001" id="SVGID_38_" gradientUnits="userSpaceOnUse">
		<stop id="stop4825" style="stop-color:#333333;stop-opacity:1" offset="0"></stop>
		<stop id="stop4827" style="stop-color:#000000;stop-opacity:1" offset="0.43099999"></stop>
		<stop id="stop4829" style="stop-color:#2e2e2e;stop-opacity:1" offset="1"></stop>
	</linearGradient>
	
	
	
	
	
		<radialGradient cx="-138.2334" cy="106.5996" r="72.751701" id="SVGID_39_" gradientUnits="userSpaceOnUse" gradientTransform="matrix(1,0,0,-1,192.3999,143.0996)">
		<stop id="stop4840" style="stop-color:#000000;stop-opacity:0" offset="0"></stop>
		<stop id="stop4842" style="stop-color:#000000;stop-opacity:0.08" offset="0.80220002"></stop>
		<stop id="stop4844" style="stop-color:#000000;stop-opacity:0.3882353" offset="1"></stop>
	</radialGradient>
	
<radialGradient cx="-138.2334" cy="106.5996" r="72.751701" id="radialGradient5007" xlink:href="#SVGID_39_" gradientUnits="userSpaceOnUse" gradientTransform="matrix(1,0,0,-1,192.3999,143.0996)"></radialGradient><linearGradient x1="38.737301" y1="46.373001" x2="39.487301" y2="38.790001" id="linearGradient5013" xlink:href="#SVGID_38_" gradientUnits="userSpaceOnUse"></linearGradient><linearGradient x1="-153.1255" y1="97.627899" x2="-154.15421" y2="104.4332" id="linearGradient5018" xlink:href="#SVGID_37_" gradientUnits="userSpaceOnUse" gradientTransform="matrix(1,0,0,-1,192.3999,143.0996)"></linearGradient><linearGradient x1="-158.4185" y1="107.8965" x2="-126.5454" y2="107.8965" id="linearGradient5021" xlink:href="#SVGID_36_" gradientUnits="userSpaceOnUse" gradientTransform="matrix(1,0,0,-1,192.3999,143.0996)"></linearGradient><linearGradient x1="-158.8101" y1="107.0898" x2="-126.4229" y2="107.0898" id="linearGradient5024" xlink:href="#SVGID_35_" gradientUnits="userSpaceOnUse" gradientTransform="matrix(1,0,0,-1,192.3999,143.0996)"></linearGradient><linearGradient x1="22.5742" y1="49.7188" x2="111.5455" y2="29.204" id="linearGradient5036" xlink:href="#SVGID_34_" gradientUnits="userSpaceOnUse"></linearGradient><linearGradient x1="23.471201" y1="30.732401" x2="27.9561" y2="30.732401" id="linearGradient5252" xlink:href="#SVGID_27_" gradientUnits="userSpaceOnUse"></linearGradient><linearGradient x1="21.2129" y1="71.326698" x2="117.1948" y2="51.952599" id="linearGradient5258" xlink:href="#SVGID_26_" gradientUnits="userSpaceOnUse"></linearGradient><linearGradient x1="-176.1851" y1="78.4795" x2="-52.131699" y2="92.223099" id="linearGradient5261" xlink:href="#SVGID_25_" gradientUnits="userSpaceOnUse" gradientTransform="matrix(1,0,0,-1,192.3999,143.0996)"></linearGradient><linearGradient x1="-175.7173" y1="78.449203" x2="-67.153198" y2="90.476799" id="linearGradient5264" xlink:href="#SVGID_24_" gradientUnits="userSpaceOnUse" gradientTransform="matrix(1,0,0,-1,192.3999,143.0996)"></linearGradient><linearGradient x1="-172.3853" y1="78.209" x2="-172.3853" y2="78.209" id="linearGradient5267" xlink:href="#SVGID_23_" gradientUnits="userSpaceOnUse" gradientTransform="matrix(1,0,0,-1,192.3999,143.0996)"></linearGradient><linearGradient x1="-175.14211" y1="104.0801" x2="-83.541" y2="104.0801" id="linearGradient5275" xlink:href="#SVGID_22_" gradientUnits="userSpaceOnUse" gradientTransform="matrix(1,0,0,-1,192.3999,143.0996)"></linearGradient><linearGradient x1="-175.4424" y1="83.6045" x2="-75.6362" y2="83.6045" id="linearGradient5278" xlink:href="#SVGID_21_" gradientUnits="userSpaceOnUse" gradientTransform="matrix(1,0,0,-1,192.3999,143.0996)"></linearGradient><linearGradient x1="-115.3716" y1="119.1758" x2="-134.7878" y2="24.695299" id="linearGradient5317" xlink:href="#SVGID_18_" gradientUnits="userSpaceOnUse" gradientTransform="matrix(1,0,0,-1,192.3999,143.0996)"></linearGradient><linearGradient x1="-118.4946" y1="124.0039" x2="-138.85201" y2="24.9438" id="linearGradient5320" xlink:href="#SVGID_17_" gradientUnits="userSpaceOnUse" gradientTransform="matrix(1,0,0,-1,192.3999,143.0996)"></linearGradient><linearGradient x1="-127.4014" y1="121.9365" x2="-146.8837" y2="27.1346" id="linearGradient5323" xlink:href="#SVGID_16_" gradientUnits="userSpaceOnUse" gradientTransform="matrix(1,0,0,-1,192.3999,143.0996)"></linearGradient><linearGradient x1="-135.58591" y1="123.3525" x2="-155.006" y2="28.8524" id="linearGradient5326" xlink:href="#SVGID_15_" gradientUnits="userSpaceOnUse" gradientTransform="matrix(1,0,0,-1,192.3999,143.0996)"></linearGradient><linearGradient x1="-121.1382" y1="120.3223" x2="-140.54491" y2="25.888" id="linearGradient5329" xlink:href="#SVGID_14_" gradientUnits="userSpaceOnUse" gradientTransform="matrix(1,0,0,-1,192.3999,143.0996)"></linearGradient><linearGradient x1="-130.1348" y1="35.625" x2="-130.14281" y2="35.585701" id="linearGradient5334" xlink:href="#SVGID_13_" gradientUnits="userSpaceOnUse" gradientTransform="matrix(1,0,0,-1,192.3999,143.0996)"></linearGradient><linearGradient x1="-152.6201" y1="126.8398" x2="-171.9462" y2="32.797901" id="linearGradient5337" xlink:href="#SVGID_12_" gradientUnits="userSpaceOnUse" gradientTransform="matrix(1,0,0,-1,192.3999,143.0996)"></linearGradient><linearGradient x1="32.519001" y1="33.077099" x2="37.2481" y2="92.496101" id="linearGradient5340" xlink:href="#SVGID_11_" gradientUnits="userSpaceOnUse"></linearGradient><linearGradient x1="-115.3369" y1="119.6328" x2="-134.85719" y2="24.6462" id="linearGradient5343" xlink:href="#SVGID_10_" gradientUnits="userSpaceOnUse" gradientTransform="matrix(1,0,0,-1,192.3999,143.0996)"></linearGradient><linearGradient x1="54.653301" y1="25.2764" x2="79.683601" y2="106.3903" id="linearGradient5354" xlink:href="#SVGID_9_" gradientUnits="userSpaceOnUse"></linearGradient><linearGradient x1="-117.166" y1="122.1328" x2="-87.569702" y2="31.998501" id="linearGradient5357" xlink:href="#SVGID_8_" gradientUnits="userSpaceOnUse" gradientTransform="matrix(1,0,0,-1,192.3999,143.0996)"></linearGradient><linearGradient x1="70.421898" y1="26.876499" x2="119.5471" y2="87.626701" id="linearGradient5360" xlink:href="#SVGID_7_" gradientUnits="userSpaceOnUse"></linearGradient><linearGradient x1="-123.5898" y1="119.8076" x2="-94.069099" y2="29.9035" id="linearGradient5363" xlink:href="#SVGID_6_" gradientUnits="userSpaceOnUse" gradientTransform="matrix(1,0,0,-1,192.3999,143.0996)"></linearGradient><linearGradient x1="54.715801" y1="65.136703" x2="83.798798" y2="65.136703" id="linearGradient5379" xlink:href="#SVGID_5_" gradientUnits="userSpaceOnUse"></linearGradient><linearGradient x1="66.232399" y1="24.481001" x2="112.7331" y2="97.232101" id="linearGradient5391" xlink:href="#SVGID_2_" gradientUnits="userSpaceOnUse"></linearGradient><radialGradient cx="-145.4702" cy="87.823196" r="68.686401" id="radialGradient5395" xlink:href="#SVGID_1_" gradientUnits="userSpaceOnUse" gradientTransform="matrix(1,0,0,-1,192.3999,143.0996)"></radialGradient>
	
	
</defs><g transform="translate(0.3095625,-5.8087293)" id="g4940"><path d="m 22.821,144.73 c 0.438,0.33 0.821,0.508 1.149,0.533 0.328,0.025 0.917,-0.017 1.768,-0.127 0.85,-0.11 1.605,-0.207 2.266,-0.292 0.66,-0.085 1.203,-0.152 1.628,-0.203 0.425,-0.051 0.667,-0.116 0.726,-0.196 0.059,-0.081 0.109,-0.161 0.151,-0.242 0.042,-0.08 0.162,-0.063 0.36,0.051 0.197,0.115 0.391,0.252 0.581,0.413 0.19,0.161 0.334,0.283 0.436,0.368 0.102,0.085 0.116,0.169 0.044,0.254 -0.071,0.085 -0.187,0.138 -0.347,0.158 -0.16,0.021 -0.257,0.092 -0.29,0.21 -0.034,0.118 -0.131,0.377 -0.291,0.774 -0.16,0.397 -0.406,0.897 -0.738,1.498 -0.333,0.601 -0.726,1.162 -1.181,1.682 -0.455,0.521 -0.97,0.999 -1.546,1.436 -0.577,0.436 -1.155,0.791 -1.736,1.066 -0.581,0.274 -1.191,0.497 -1.831,0.666 -0.21,-0.025 -0.244,-0.085 -0.101,-0.178 0.539,-0.22 1.071,-0.472 1.597,-0.756 0.526,-0.283 1.066,-0.649 1.622,-1.098 0.556,-0.449 1.037,-0.934 1.445,-1.453 0.408,-0.521 0.749,-1.059 1.023,-1.613 0.273,-0.554 0.46,-1.02 0.562,-1.396 0.101,-0.376 0.16,-0.776 0.177,-1.199 -0.825,-0.025 -1.553,0.004 -2.184,0.089 -0.631,0.085 -1.326,0.203 -2.083,0.355 -0.757,0.152 -1.195,0.283 -1.313,0.394 -0.118,0.111 -0.225,0.178 -0.322,0.203 -0.097,0.025 -0.188,0.021 -0.271,-0.013 -0.083,-0.034 -0.236,-0.078 -0.455,-0.134 -0.219,-0.055 -0.394,-0.162 -0.524,-0.323 -0.13,-0.161 -0.296,-0.406 -0.499,-0.736 -0.059,-0.194 0,-0.258 0.177,-0.191 z" id="path2051-3"></path><path d="m 35.083,143.639 c 0.286,0.017 0.511,0.051 0.675,0.102 0.164,0.051 0.33,0.118 0.499,0.203 0.169,0.085 0.303,0.156 0.404,0.216 0.101,0.06 0.147,0.129 0.139,0.21 -0.008,0.08 -0.044,0.129 -0.107,0.146 -0.063,0.017 -0.13,0.083 -0.202,0.196 -0.072,0.115 -0.12,0.531 -0.146,1.251 -0.025,0.72 -0.021,1.318 0.013,1.796 0.034,0.479 0.063,0.87 0.088,1.175 0.025,0.305 -0.059,0.544 -0.252,0.718 -0.194,0.173 -0.337,0.24 -0.429,0.203 -0.093,-0.039 -0.143,-0.152 -0.151,-0.344 -0.009,-0.189 0,-0.393 0.025,-0.609 0.025,-0.215 0.038,-0.563 0.038,-1.041 0,-0.478 0,-1.11 0,-1.897 0,-0.787 -0.013,-1.244 -0.038,-1.371 -0.025,-0.127 -0.074,-0.267 -0.145,-0.419 -0.072,-0.152 -0.217,-0.25 -0.436,-0.292 -0.109,-0.078 -0.101,-0.158 0.025,-0.243 z m 4.432,-0.838 c 0.345,0.034 0.61,0.085 0.795,0.152 0.185,0.067 0.36,0.174 0.524,0.317 0.164,0.143 0.288,0.256 0.373,0.337 0.084,0.08 0.122,0.162 0.113,0.247 -0.009,0.085 -0.063,0.146 -0.164,0.185 -0.101,0.037 -0.185,0.266 -0.252,0.686 -0.067,0.418 -0.114,0.931 -0.139,1.535 -0.025,0.605 -0.038,1.264 -0.038,1.975 0,0.711 -0.149,1.354 -0.448,1.93 -0.299,0.576 -0.688,1.086 -1.167,1.529 -0.48,0.445 -0.949,0.792 -1.408,1.041 -0.459,0.25 -1.012,0.502 -1.66,0.756 -0.202,0.06 -0.249,0.017 -0.139,-0.127 0.64,-0.339 1.17,-0.66 1.591,-0.965 0.421,-0.305 0.821,-0.673 1.199,-1.104 0.379,-0.432 0.68,-0.901 0.903,-1.409 0.223,-0.508 0.36,-1.104 0.41,-1.79 0.051,-0.686 0.082,-1.527 0.095,-2.526 0.013,-0.999 0.015,-1.574 0.006,-1.727 -0.009,-0.153 -0.042,-0.303 -0.101,-0.451 -0.059,-0.147 -0.248,-0.269 -0.568,-0.361 -0.11,-0.145 -0.086,-0.221 0.075,-0.23 z" id="path2053-1"></path><path d="m 45.62,147.485 c 0.177,0.237 0.427,0.379 0.751,0.425 0.324,0.047 1.033,0.032 2.127,-0.044 1.094,-0.076 2.127,-0.14 3.1,-0.19 0.973,-0.05 1.502,-0.087 1.591,-0.107 0.088,-0.021 0.195,-0.064 0.322,-0.127 0.126,-0.064 0.246,-0.125 0.36,-0.185 0.113,-0.06 0.368,0.049 0.764,0.323 0.396,0.275 0.53,0.457 0.404,0.547 -0.126,0.088 -0.444,0.099 -0.953,0.031 -0.509,-0.068 -1.294,-0.089 -2.354,-0.063 -1.06,0.025 -2.058,0.105 -2.992,0.241 -0.935,0.136 -1.446,0.263 -1.534,0.381 -0.088,0.118 -0.188,0.18 -0.296,0.184 -0.11,0.005 -0.217,-0.027 -0.322,-0.095 -0.105,-0.067 -0.275,-0.163 -0.511,-0.286 -0.236,-0.122 -0.463,-0.421 -0.682,-0.895 0.006,-0.144 0.082,-0.19 0.225,-0.14 z" id="path2055-6"></path><path d="m 61.128,145.873 c 0.387,-0.956 0.631,-1.845 0.732,-2.666 0.008,-0.034 0.013,-0.067 0.013,-0.102 h -4.481 l -0.316,-0.317 h 9.948 l 0.492,-0.698 0.644,0.508 c 0.455,0.339 0.455,0.508 0,0.508 h -5.517 c -0.311,0.931 -0.804,1.854 -1.477,2.768 h 4.621 l 0.392,-0.546 0.164,0.127 c 0.438,0.339 0.661,0.559 0.669,0.66 0.008,0.076 -0.059,0.144 -0.202,0.203 -0.059,0.034 -0.139,0.067 -0.24,0.102 -0.008,2.336 -0.008,4.625 0,6.868 0.008,0.44 -0.055,0.694 -0.189,0.762 h -0.013 c -0.042,0.017 -0.101,0.025 -0.177,0.025 -0.261,0 -0.392,-0.156 -0.392,-0.47 l 0.013,-0.597 v -0.013 h -5.858 v 0.229 c 0,0.448 -0.076,0.702 -0.227,0.762 h -0.013 c -0.042,0.017 -0.093,0.025 -0.151,0.025 -0.261,0 -0.387,-0.156 -0.379,-0.47 0.025,-2.675 0.021,-5.412 -0.013,-8.214 l 1.086,0.546 h 0.871 z m -1.187,3.377 h 5.883 l -0.025,-3.072 h -5.845 c -0.008,0.803 -0.013,1.828 -0.013,3.072 z m 0,3.428 h 5.871 c 0.008,-0.771 0.013,-1.807 0.013,-3.11 h -5.883 v 3.11 z" id="path2057-8"></path><path d="m 74.352,147.028 c 0.943,0.584 1.646,1.278 2.109,2.082 0.102,0.169 0.146,0.296 0.139,0.381 -0.025,0.237 -0.139,0.355 -0.342,0.355 -0.361,-0.009 -0.627,-0.237 -0.795,-0.686 l -0.328,-0.952 c -0.15,-0.237 -0.412,-0.517 -0.783,-0.838 v 1.46 c 0,0.889 0.006,2.353 0.014,4.393 0,0.432 -0.059,0.682 -0.178,0.749 -0.059,0.034 -0.121,0.047 -0.189,0.038 -0.26,-0.034 -0.391,-0.19 -0.391,-0.47 0.008,-1.523 0.012,-3.165 0.012,-4.926 -0.521,1.354 -1.383,2.501 -2.588,3.44 l -0.213,-0.165 c 1.631,-1.676 2.541,-3.622 2.727,-5.84 h -2.424 l -0.303,-0.355 h 2.801 c -0.008,-0.511 -0.012,-1.327 -0.012,-2.45 -0.799,0.116 -1.621,0.196 -2.461,0.241 l -0.115,-0.241 c 2.693,-0.338 4.355,-0.706 4.988,-1.104 0.277,0.213 0.416,0.382 0.416,0.51 -0.025,0.11 -0.127,0.187 -0.303,0.229 -0.354,0.102 -0.943,0.195 -1.768,0.28 0,1.163 -0.004,2.009 -0.014,2.535 h 0.871 l 0.492,-0.711 0.658,0.508 c 0.209,0.16 0.314,0.285 0.314,0.375 0,0.122 -0.105,0.184 -0.314,0.184 h -2.021 v 0.978 z m 2.601,3.466 -0.252,-0.381 3.66,-0.927 -0.012,-7.046 c 0.74,0.178 1.111,0.359 1.111,0.546 -0.01,0.085 -0.123,0.194 -0.342,0.33 0,1.761 0,3.758 0,5.992 l 0.656,-0.165 0.316,-0.787 0.744,0.33 c 0.277,0.127 0.416,0.232 0.416,0.317 0,0.152 -0.096,0.254 -0.289,0.305 l -1.844,0.444 v 3.758 c 0,0.533 -0.123,0.8 -0.365,0.8 H 80.74 c -0.262,0 -0.391,-0.156 -0.391,-0.47 l 0.012,-3.91 -3.408,0.864 z m 0.037,-4.557 c 0.994,0.457 1.658,0.931 1.996,1.422 0.117,0.169 0.176,0.309 0.176,0.419 0,0.127 -0.066,0.203 -0.201,0.229 -0.051,0.009 -0.102,0.013 -0.152,0.013 -0.227,0 -0.43,-0.14 -0.605,-0.419 l -0.367,-0.584 c -0.15,-0.237 -0.459,-0.504 -0.92,-0.8 l 0.073,-0.28 z m 0.543,-3.022 c 0.809,0.372 1.465,0.851 1.971,1.435 l 0.025,0.013 c 0.107,0.178 0.158,0.309 0.15,0.394 -0.033,0.229 -0.16,0.343 -0.379,0.343 -0.27,0 -0.445,-0.093 -0.529,-0.279 l -0.393,-0.838 c -0.117,-0.254 -0.441,-0.524 -0.971,-0.813 l 0.126,-0.255 z" id="path2059-9"></path><path d="m 90.965,143.283 v -1.155 c 0.725,0.182 1.09,0.363 1.1,0.545 0,0.096 -0.109,0.212 -0.328,0.351 v 0.26 h 3.85 l 0.492,-0.711 0.656,0.508 c 0.229,0.185 0.342,0.324 0.342,0.418 0,0.094 -0.113,0.141 -0.342,0.141 h -4.998 v 1.155 h 2.209 l 0.379,-0.546 c 0.471,0.339 0.748,0.6 0.832,0.784 -0.059,0.15 -0.209,0.251 -0.453,0.301 -0.01,0.059 -0.014,0.13 -0.014,0.213 l 0.039,1.267 c 0,0.288 -0.102,0.457 -0.305,0.508 H 94.4 c -0.27,0 -0.404,-0.182 -0.404,-0.546 h -2.26 v 1.181 l 3.004,0.038 0.354,-0.559 c 0.496,0.33 0.773,0.597 0.834,0.8 -0.01,0.093 -0.16,0.19 -0.455,0.292 l -0.014,0.965 h 0.594 l 0.492,-0.724 0.645,0.508 c 0.219,0.178 0.328,0.313 0.328,0.406 0,0.093 -0.109,0.148 -0.328,0.165 h -1.73 v 1.587 c 0,0.448 -0.084,0.682 -0.252,0.698 -0.346,-0.017 -0.518,-0.212 -0.518,-0.584 0,-0.067 0.004,-0.14 0.014,-0.216 h -2.967 v 1.371 c 0,0.804 -0.346,1.235 -1.035,1.295 -0.094,-0.423 -0.662,-0.753 -1.705,-0.99 0,-0.152 0.029,-0.245 0.088,-0.279 l 1.389,0.254 c 0.068,0.009 0.127,0.013 0.178,0.013 0.209,0 0.314,-0.098 0.314,-0.292 v -1.371 H 87.04 l -0.314,-0.381 4.24,0.013 v -1.13 l -5.441,0.013 -0.303,-0.368 5.744,0.013 v -1.155 l -3.926,0.013 -0.314,-0.368 4.24,0.013 v -1.181 l -2.359,-0.038 0.012,0.089 c 0,0.279 -0.092,0.436 -0.277,0.47 -0.043,0.009 -0.08,0.013 -0.113,0.013 -0.236,0 -0.354,-0.174 -0.354,-0.521 l 0.025,-1.231 c 0,-0.517 -0.014,-0.969 -0.039,-1.358 l 1.111,0.546 h 2.008 v -1.155 h -5.051 l -0.303,-0.355 5.339,0.007 z m 0,3.136 v -1.257 H 88.58 c 0,0.254 0,0.484 0,0.691 0,0.208 0,0.396 0,0.565 h 2.385 z m 0.771,-1.257 v 1.257 h 2.26 c 0.016,-0.245 0.025,-0.474 0.025,-0.686 0,-0.212 -0.01,-0.402 -0.025,-0.571 h -2.26 z m 0,3.187 v 1.143 h 3.004 v -1.143 h -3.004 z m 0,1.498 v 1.117 h 3.004 v -1.117 h -3.004 z" id="path2061-6"></path><path d="m 106.43,144.553 c 0,-0.339 -0.008,-1.134 -0.025,-2.387 0.75,0.178 1.123,0.359 1.123,0.546 -0.049,0.144 -0.164,0.258 -0.34,0.343 l -0.025,1.46 v 0.038 h 1.768 l 0.379,-0.546 0.164,0.114 c 0.445,0.313 0.668,0.539 0.668,0.679 v 0.013 c -0.066,0.132 -0.213,0.223 -0.441,0.273 -0.016,0.574 -0.025,1.093 -0.025,1.558 0,0.945 0.014,2.085 0.039,3.419 h 0.58 l 0.492,-0.698 0.656,0.508 c 0.211,0.16 0.316,0.285 0.316,0.376 0,0.164 -0.105,0.246 -0.316,0.246 h -11.4 l -0.303,-0.432 h 1.553 c 0.01,-0.817 0.014,-1.579 0.014,-2.287 0,-1.138 -0.014,-2.394 -0.039,-3.769 l 1.1,0.546 h 1.426 l -0.012,-2.425 v -0.013 c 0.74,0.181 1.111,0.361 1.111,0.542 0,0.095 -0.119,0.21 -0.354,0.348 0,0.68 -0.01,1.195 -0.025,1.548 h 1.916 z m -3.219,6.297 c 0.682,0.144 1.002,0.317 0.959,0.521 -0.051,0.093 -0.193,0.194 -0.43,0.305 -0.857,0.939 -2.031,1.718 -3.521,2.336 l -0.252,-0.14 c 1.758,-0.932 2.84,-1.939 3.244,-3.022 z m -1.174,-3.707 h 1.768 c 0,-0.821 -0.006,-1.54 -0.014,-2.158 h -1.742 c -0.008,0.702 -0.012,1.421 -0.012,2.158 z m 1.754,0.419 h -1.754 c 0,0.948 0.004,1.781 0.012,2.501 h 1.73 c 0.008,-0.677 0.012,-1.511 0.012,-2.501 z m 0.721,-0.419 h 1.918 v -2.158 h -1.918 v 2.158 z m 1.918,0.419 h -1.918 l 0.037,2.501 h 1.869 l 0.012,-2.501 z m 0.732,-0.419 h 1.805 c 0,-0.034 -0.008,-0.753 -0.025,-2.158 h -1.779 v 2.158 z m 1.805,0.419 h -1.805 l 0.025,2.476 v 0.025 h 1.754 c 0.018,-1.439 0.026,-2.273 0.026,-2.501 z m -1.692,3.516 0.215,-0.19 c 1.48,0.897 2.504,1.621 3.068,2.171 0.344,0.347 0.514,0.597 0.504,0.749 -0.008,0.127 -0.096,0.194 -0.264,0.203 -0.354,-0.076 -0.771,-0.372 -1.25,-0.889 l -0.82,-0.889 c -0.439,-0.457 -0.921,-0.841 -1.453,-1.155 z" id="path2063-4"></path></g><g transform="translate(-0.77526015,-4.8322793)" id="g4914"><path d="m 13.958,118.816 c 0.716,0.072 1.239,0.187 1.568,0.344 0.329,0.158 0.645,0.287 0.945,0.387 0.301,0.101 0.455,0.226 0.462,0.376 0.007,0.15 -0.079,0.279 -0.258,0.387 -0.179,0.107 -0.294,0.272 -0.344,0.494 -0.05,0.223 -0.097,1.063 -0.14,2.524 1.575,-0.229 2.789,-0.379 3.642,-0.451 0.852,-0.071 1.314,-0.186 1.386,-0.344 0.071,-0.157 0.179,-0.258 0.322,-0.301 0.143,-0.043 0.408,0.083 0.795,0.376 0.387,0.294 0.755,0.556 1.106,0.784 0.351,0.229 0.465,0.43 0.344,0.602 -0.122,0.172 -0.308,0.29 -0.559,0.354 -0.251,0.064 -0.434,0.233 -0.548,0.505 -0.115,0.272 -0.297,0.874 -0.548,1.805 -0.251,0.932 -0.666,1.959 -1.246,3.083 -0.58,1.125 -1.379,2.217 -2.396,3.276 -1.017,1.061 -2.07,1.898 -3.158,2.514 -1.089,0.615 -2.12,1.081 -3.094,1.396 -0.215,-0.043 -0.258,-0.144 -0.129,-0.301 0.831,-0.401 1.744,-0.927 2.739,-1.579 0.995,-0.651 1.937,-1.493 2.825,-2.524 0.888,-1.031 1.572,-2.084 2.052,-3.158 0.479,-1.074 0.831,-2.123 1.053,-3.147 0.222,-1.023 0.347,-1.966 0.376,-2.825 -1.519,0.058 -3.141,0.219 -4.866,0.483 -1.726,0.266 -2.965,0.494 -3.717,0.688 -0.752,0.194 -1.235,0.305 -1.45,0.333 -0.172,0.244 -0.269,0.741 -0.29,1.493 -0.021,0.752 -0.029,1.437 -0.021,2.052 0.007,0.616 0.028,1.057 0.064,1.321 0.036,0.266 -0.036,0.523 -0.215,0.773 -0.179,0.251 -0.43,0.244 -0.752,-0.021 -0.322,-0.265 -0.455,-0.587 -0.397,-0.967 0.057,-0.379 0.107,-0.752 0.15,-1.117 0.043,-0.365 0.05,-0.952 0.021,-1.762 -0.029,-0.809 -0.043,-1.3 -0.043,-1.472 0,-0.172 -0.018,-0.376 -0.054,-0.612 -0.036,-0.236 -0.107,-0.479 -0.215,-0.73 -0.107,-0.25 -0.276,-0.44 -0.505,-0.569 -0.072,-0.172 -0.021,-0.286 0.15,-0.344 0.401,0.115 0.745,0.255 1.031,0.419 0.286,0.165 0.608,0.348 0.967,0.548 1.403,-0.1 2.757,-0.243 4.061,-0.43 0.028,-1.833 -0.05,-2.982 -0.236,-3.448 -0.187,-0.465 -0.509,-0.741 -0.967,-0.827 -0.141,-0.13 -0.112,-0.259 0.089,-0.388 z" id="path2070"></path><path d="m 32.081,123.564 c -0.187,-0.186 -0.136,-0.308 0.15,-0.365 0.501,0 0.92,0.101 1.257,0.301 0.336,0.201 0.691,0.423 1.063,0.666 0.372,0.244 0.526,0.438 0.462,0.58 -0.064,0.144 -0.222,0.24 -0.473,0.29 -0.251,0.051 -0.458,0.158 -0.623,0.322 -0.165,0.165 -0.455,0.483 -0.87,0.956 -0.416,0.473 -0.853,0.902 -1.311,1.289 -0.458,0.387 -0.759,0.638 -0.902,0.752 0.602,0.201 0.963,0.365 1.085,0.494 0.122,0.129 0.165,0.236 0.129,0.322 -0.036,0.086 -0.122,0.147 -0.258,0.183 -0.136,0.036 -0.236,0.269 -0.301,0.698 -0.065,0.429 -0.097,1.021 -0.097,1.772 0,0.751 -0.007,1.568 -0.021,2.449 -0.015,0.881 -0.011,1.429 0.011,1.644 0.022,0.215 0.021,0.519 0,0.913 -0.021,0.394 -0.147,0.565 -0.376,0.516 -0.229,-0.051 -0.405,-0.161 -0.526,-0.333 -0.122,-0.172 -0.236,-0.376 -0.344,-0.612 -0.108,-0.236 -0.133,-0.423 -0.075,-0.559 0.057,-0.137 0.097,-0.293 0.118,-0.473 0.021,-0.179 0.068,-0.591 0.14,-1.235 0.071,-0.645 0.114,-1.59 0.129,-2.836 0.014,-1.246 -0.064,-2.063 -0.236,-2.449 -0.43,0.33 -0.945,0.702 -1.547,1.117 -0.602,0.416 -1.357,0.856 -2.267,1.321 -0.91,0.466 -1.873,0.863 -2.89,1.192 -0.144,-0.043 -0.179,-0.121 -0.107,-0.236 0.959,-0.458 1.844,-0.938 2.653,-1.439 0.809,-0.501 1.547,-1.01 2.213,-1.525 0.666,-0.515 1.335,-1.099 2.009,-1.751 0.673,-0.651 1.199,-1.26 1.579,-1.826 0.379,-0.565 0.616,-0.945 0.709,-1.139 0.093,-0.193 0.107,-0.4 0.043,-0.623 -0.064,-0.221 -0.24,-0.346 -0.526,-0.376 z" id="path2072"></path><path d="m 42.169,118.924 c 0.43,-0.143 0.909,-0.161 1.439,-0.054 0.53,0.107 1.01,0.201 1.439,0.279 0.43,0.079 0.659,0.197 0.688,0.354 0.028,0.158 -0.05,0.319 -0.236,0.483 -0.187,0.165 -0.265,0.423 -0.236,0.773 0.028,0.352 0.179,1.171 0.451,2.46 2.163,-0.486 3.412,-0.798 3.749,-0.935 0.336,-0.136 0.583,-0.236 0.741,-0.301 0.157,-0.064 0.351,-0.078 0.58,-0.043 0.229,0.036 0.526,0.18 0.892,0.43 0.365,0.251 0.544,0.444 0.537,0.58 -0.007,0.137 -0.312,0.197 -0.913,0.183 -0.602,-0.014 -1.332,0.043 -2.191,0.172 -0.859,0.129 -1.551,0.244 -2.073,0.344 -0.523,0.101 -0.92,0.18 -1.192,0.236 0.329,1.49 0.709,3.029 1.139,4.619 2.879,-0.544 4.508,-0.938 4.888,-1.182 0.379,-0.243 0.662,-0.383 0.849,-0.419 0.186,-0.035 0.519,0.036 0.999,0.215 0.479,0.18 0.795,0.344 0.945,0.494 0.15,0.15 0.222,0.287 0.215,0.408 -0.007,0.122 -0.405,0.183 -1.192,0.183 -0.788,0 -1.905,0.111 -3.352,0.333 -1.447,0.223 -2.514,0.405 -3.201,0.548 0.501,1.791 0.888,3.137 1.16,4.039 0.272,0.902 0.487,1.555 0.645,1.955 0.157,0.401 0.258,0.78 0.301,1.139 0.043,0.357 0.021,0.608 -0.064,0.752 -0.086,0.143 -0.24,0.183 -0.462,0.118 -0.222,-0.064 -0.487,-0.226 -0.795,-0.483 -0.308,-0.258 -0.483,-0.483 -0.526,-0.677 -0.043,-0.194 -0.09,-0.451 -0.14,-0.773 -0.05,-0.322 -0.172,-0.952 -0.365,-1.891 -0.193,-0.938 -0.477,-2.245 -0.849,-3.921 -0.444,0.129 -1.017,0.326 -1.719,0.591 -0.702,0.266 -1.4,0.541 -2.095,0.827 -0.695,0.287 -1.121,0.483 -1.278,0.591 -0.158,0.107 -0.301,0.169 -0.43,0.183 -0.129,0.015 -0.337,-0.028 -0.623,-0.129 -0.287,-0.1 -0.541,-0.271 -0.763,-0.516 -0.222,-0.243 -0.444,-0.494 -0.666,-0.752 -0.222,-0.258 -0.297,-0.645 -0.226,-1.16 0.186,-0.215 0.329,-0.186 0.43,0.086 -0.072,0.344 0.104,0.623 0.526,0.838 0.422,0.215 1.11,0.229 2.063,0.043 0.952,-0.186 1.869,-0.404 2.75,-0.655 0.881,-0.25 1.515,-0.426 1.901,-0.526 -0.373,-1.59 -0.752,-3.129 -1.139,-4.619 -0.201,0.058 -0.563,0.158 -1.085,0.301 -0.523,0.144 -1.078,0.312 -1.665,0.505 -0.587,0.193 -1.014,0.319 -1.278,0.376 -0.265,0.058 -0.559,0.015 -0.881,-0.129 -0.322,-0.143 -0.584,-0.304 -0.784,-0.483 -0.201,-0.179 -0.401,-0.512 -0.602,-0.999 0.028,-0.344 0.179,-0.379 0.451,-0.107 0.157,0.373 0.465,0.595 0.924,0.666 0.458,0.072 1.25,-0.021 2.374,-0.279 1.124,-0.258 1.908,-0.437 2.353,-0.537 -0.344,-1.317 -0.595,-2.216 -0.752,-2.696 -0.158,-0.479 -0.38,-0.855 -0.666,-1.128 -0.287,-0.271 -0.616,-0.365 -0.988,-0.279 -0.174,-0.144 -0.174,-0.288 -0.002,-0.431 z" id="path2074"></path><path d="m 64.992,122.598 c 0.63,0 1.274,0.427 1.934,1.278 0.659,0.853 1.475,1.729 2.449,2.632 0.974,0.902 2.026,1.783 3.158,2.643 1.131,0.859 1.815,1.34 2.052,1.439 0.236,0.101 0.458,0.208 0.666,0.322 0.208,0.115 0.411,0.344 0.612,0.688 0.2,0.344 0.322,0.652 0.365,0.924 0.043,0.272 -0.004,0.455 -0.14,0.548 -0.136,0.094 -0.315,0.118 -0.537,0.075 -0.222,-0.043 -0.608,-0.29 -1.16,-0.741 -0.552,-0.451 -0.949,-0.784 -1.192,-0.999 -0.244,-0.215 -0.855,-0.741 -1.837,-1.579 -0.982,-0.838 -1.897,-1.758 -2.75,-2.761 -0.853,-1.002 -1.583,-1.93 -2.191,-2.782 -0.609,-0.852 -1.085,-1.278 -1.429,-1.278 -0.258,0 -0.53,0.229 -0.816,0.688 -0.287,0.459 -0.663,1.046 -1.128,1.762 -0.466,0.717 -1.035,1.482 -1.708,2.299 -0.673,0.816 -1.006,1.325 -0.999,1.525 0.007,0.201 -0.054,0.362 -0.183,0.483 -0.129,0.122 -0.283,0.147 -0.462,0.075 -0.179,-0.071 -0.408,-0.153 -0.688,-0.247 -0.279,-0.093 -0.552,-0.239 -0.816,-0.44 -0.265,-0.2 -0.641,-0.637 -1.128,-1.311 -0.086,-0.271 0,-0.379 0.258,-0.322 0.372,0.301 0.662,0.487 0.87,0.559 0.208,0.072 0.473,0.032 0.795,-0.118 0.322,-0.15 0.827,-0.519 1.515,-1.106 0.688,-0.587 1.311,-1.214 1.869,-1.88 0.558,-0.666 1.002,-1.228 1.332,-1.687 0.329,-0.46 0.759,-0.689 1.289,-0.689 z m 6.317,-0.387 c 0,-0.501 0.186,-0.938 0.559,-1.311 0.372,-0.372 0.823,-0.559 1.354,-0.559 0.516,0 0.963,0.187 1.343,0.559 0.38,0.373 0.569,0.81 0.569,1.311 0,0.516 -0.189,0.956 -0.569,1.321 -0.38,0.365 -0.827,0.548 -1.343,0.548 -0.53,0 -0.981,-0.183 -1.354,-0.548 -0.374,-0.365 -0.559,-0.805 -0.559,-1.321 z m 0.515,0.043 c 0,0.387 0.136,0.72 0.408,0.999 0.271,0.279 0.608,0.419 1.01,0.419 0.372,0 0.709,-0.14 1.01,-0.419 0.301,-0.279 0.451,-0.612 0.451,-0.999 0,-0.4 -0.15,-0.755 -0.451,-1.063 -0.301,-0.308 -0.638,-0.462 -1.01,-0.462 -0.401,0 -0.738,0.154 -1.01,0.462 -0.272,0.308 -0.408,0.663 -0.408,1.063 z" id="path2076"></path><path d="m 93.272,124.639 c 0.329,-0.229 1.132,0.072 2.406,0.902 0.344,0.287 0.286,0.487 -0.172,0.602 -0.773,0 -1.583,-0.046 -2.428,-0.14 -0.845,-0.093 -1.575,-0.125 -2.191,-0.097 -0.616,0.029 -1.354,0.094 -2.213,0.193 -0.859,0.101 -1.418,0.172 -1.676,0.215 0.129,0.043 0.29,0.115 0.483,0.215 0.193,0.101 0.408,0.236 0.645,0.408 0.237,0.172 0.434,0.322 0.591,0.451 0.157,0.129 0.183,0.262 0.075,0.397 -0.107,0.137 -0.24,0.212 -0.397,0.226 -0.157,0.015 -0.315,0.301 -0.473,0.859 -0.158,0.558 -0.408,1.275 -0.752,2.148 -0.344,0.874 -0.859,1.719 -1.547,2.535 -0.688,0.816 -1.425,1.479 -2.213,1.987 -0.788,0.508 -1.525,0.862 -2.213,1.063 -0.187,-0.029 -0.222,-0.107 -0.107,-0.236 0.53,-0.258 1.135,-0.659 1.815,-1.203 0.68,-0.544 1.296,-1.217 1.848,-2.02 0.551,-0.802 0.963,-1.611 1.235,-2.428 0.272,-0.817 0.444,-1.496 0.516,-2.041 0.071,-0.544 0.114,-1.01 0.129,-1.396 0.015,-0.386 -0.222,-0.658 -0.709,-0.816 -0.573,0.086 -1.157,0.197 -1.751,0.333 -0.595,0.137 -1.218,0.287 -1.869,0.451 -0.652,0.165 -1.11,0.337 -1.375,0.516 -0.266,0.18 -0.477,0.276 -0.634,0.29 -0.157,0.015 -0.286,-0.028 -0.387,-0.129 -0.101,-0.1 -0.286,-0.218 -0.559,-0.354 -0.272,-0.136 -0.537,-0.354 -0.795,-0.655 -0.258,-0.301 -0.473,-0.651 -0.645,-1.053 0.015,-0.344 0.136,-0.43 0.365,-0.258 0.215,0.373 0.573,0.634 1.074,0.784 0.501,0.15 1.21,0.165 2.127,0.043 0.917,-0.121 2.284,-0.318 4.104,-0.591 1.819,-0.271 3.44,-0.494 4.866,-0.666 1.427,-0.17 2.369,-0.349 2.827,-0.535 z m -12.267,-3.846 c 0.501,0.344 0.888,0.545 1.16,0.602 0.272,0.058 1.146,-0.007 2.621,-0.193 1.476,-0.186 2.596,-0.387 3.362,-0.602 0.766,-0.215 1.253,-0.376 1.461,-0.483 0.207,-0.107 0.565,-0.024 1.074,0.247 0.508,0.272 0.748,0.491 0.72,0.655 -0.028,0.165 -0.208,0.262 -0.537,0.29 -0.329,0.029 -0.698,0.032 -1.106,0.011 -0.408,-0.021 -1.186,0.054 -2.331,0.226 -1.145,0.172 -2.013,0.348 -2.6,0.526 -0.587,0.18 -0.995,0.337 -1.225,0.473 -0.229,0.137 -0.434,0.215 -0.612,0.236 -0.18,0.021 -0.438,-0.054 -0.773,-0.226 -0.337,-0.172 -0.834,-0.68 -1.493,-1.525 -0.086,-0.186 0.006,-0.265 0.279,-0.237 z m 11.279,-1.697 c 0.53,0.201 0.963,0.387 1.3,0.559 0.336,0.172 0.637,0.38 0.902,0.623 0.265,0.244 0.437,0.494 0.516,0.752 0.078,0.258 0.018,0.48 -0.183,0.666 -0.2,0.187 -0.376,0.279 -0.526,0.279 -0.15,0 -0.275,-0.104 -0.376,-0.312 -0.101,-0.207 -0.222,-0.447 -0.365,-0.72 -0.144,-0.271 -0.305,-0.519 -0.483,-0.741 -0.18,-0.222 -0.477,-0.512 -0.892,-0.87 -0.114,-0.157 -0.079,-0.236 0.107,-0.236 z m 2.063,-1.289 c 0.544,0.158 0.988,0.309 1.332,0.451 0.344,0.144 0.659,0.319 0.945,0.526 0.286,0.208 0.479,0.438 0.58,0.688 0.101,0.251 0.061,0.48 -0.118,0.688 -0.18,0.208 -0.344,0.315 -0.494,0.322 -0.15,0.008 -0.287,-0.086 -0.408,-0.279 -0.122,-0.193 -0.262,-0.415 -0.419,-0.666 -0.157,-0.25 -0.337,-0.479 -0.537,-0.688 -0.2,-0.207 -0.522,-0.469 -0.967,-0.784 -0.129,-0.143 -0.101,-0.229 0.086,-0.258 z" id="path2078"></path><path d="m 104.681,123.564 c -0.187,-0.186 -0.136,-0.308 0.15,-0.365 0.501,0 0.92,0.101 1.257,0.301 0.336,0.201 0.691,0.423 1.063,0.666 0.372,0.244 0.526,0.438 0.462,0.58 -0.064,0.144 -0.223,0.24 -0.473,0.29 -0.251,0.051 -0.459,0.158 -0.623,0.322 -0.165,0.165 -0.455,0.483 -0.87,0.956 -0.415,0.473 -0.853,0.902 -1.311,1.289 -0.458,0.387 -0.759,0.638 -0.902,0.752 0.602,0.201 0.963,0.365 1.085,0.494 0.121,0.129 0.164,0.236 0.129,0.322 -0.036,0.086 -0.122,0.147 -0.258,0.183 -0.137,0.036 -0.236,0.269 -0.301,0.698 -0.065,0.429 -0.097,1.021 -0.097,1.772 0,0.751 -0.007,1.568 -0.021,2.449 -0.014,0.881 -0.011,1.429 0.011,1.644 0.022,0.215 0.021,0.519 0,0.913 -0.021,0.394 -0.146,0.565 -0.376,0.516 -0.229,-0.051 -0.405,-0.161 -0.526,-0.333 -0.122,-0.172 -0.236,-0.376 -0.344,-0.612 -0.108,-0.236 -0.133,-0.423 -0.075,-0.559 0.058,-0.137 0.097,-0.293 0.118,-0.473 0.021,-0.179 0.068,-0.591 0.14,-1.235 0.072,-0.644 0.114,-1.59 0.129,-2.836 0.015,-1.246 -0.064,-2.063 -0.236,-2.449 -0.43,0.33 -0.945,0.702 -1.547,1.117 -0.602,0.416 -1.357,0.856 -2.267,1.321 -0.91,0.466 -1.873,0.863 -2.89,1.192 -0.144,-0.043 -0.179,-0.121 -0.107,-0.236 0.96,-0.458 1.844,-0.938 2.653,-1.439 0.809,-0.501 1.547,-1.01 2.213,-1.525 0.666,-0.515 1.336,-1.099 2.009,-1.751 0.673,-0.651 1.199,-1.26 1.579,-1.826 0.379,-0.565 0.615,-0.945 0.709,-1.139 0.093,-0.193 0.107,-0.4 0.043,-0.623 -0.064,-0.221 -0.24,-0.346 -0.526,-0.376 z" id="path2080"></path><path d="m 117.133,124.51 c 0.873,0.129 1.568,0.38 2.084,0.752 0.516,0.373 0.773,0.638 0.773,0.795 0,0.158 -0.068,0.312 -0.205,0.462 -0.136,0.15 -0.246,0.455 -0.332,0.913 0.516,-0.4 1.145,-0.924 1.891,-1.568 0.744,-0.645 1.467,-1.36 2.17,-2.148 0.701,-0.787 1.123,-1.335 1.268,-1.644 0.143,-0.308 0.203,-0.483 0.182,-0.526 -0.021,-0.043 -0.387,-0.071 -1.096,-0.086 -0.709,-0.014 -1.744,0.062 -3.104,0.226 -1.361,0.165 -2.582,0.376 -3.664,0.634 -1.081,0.258 -1.848,0.494 -2.299,0.709 -0.451,0.215 -0.759,0.397 -0.924,0.548 -0.164,0.15 -0.34,0.236 -0.525,0.258 -0.188,0.021 -0.355,-0.028 -0.506,-0.15 -0.15,-0.121 -0.336,-0.239 -0.559,-0.354 -0.222,-0.114 -0.512,-0.34 -0.869,-0.677 -0.359,-0.336 -0.617,-0.913 -0.773,-1.729 0.057,-0.215 0.172,-0.243 0.344,-0.086 0.271,0.43 0.562,0.73 0.869,0.902 0.309,0.172 0.648,0.266 1.021,0.279 0.371,0.015 0.816,-0.007 1.332,-0.064 0.516,-0.057 1.464,-0.175 2.846,-0.354 1.383,-0.179 2.475,-0.322 3.277,-0.43 0.801,-0.107 1.754,-0.207 2.857,-0.301 1.102,-0.093 1.693,-0.183 1.771,-0.269 0.079,-0.086 0.168,-0.179 0.27,-0.279 0.1,-0.1 0.347,-0.032 0.74,0.204 0.395,0.236 0.73,0.483 1.01,0.741 0.28,0.258 0.487,0.44 0.623,0.548 0.137,0.107 0.15,0.244 0.043,0.408 -0.107,0.165 -0.311,0.244 -0.611,0.236 -0.301,-0.007 -0.58,0.115 -0.838,0.365 -0.258,0.251 -0.789,0.717 -1.59,1.396 -0.803,0.681 -1.691,1.357 -2.664,2.03 -0.975,0.674 -1.834,1.211 -2.578,1.611 -0.102,0.674 -0.283,1.443 -0.549,2.31 -0.265,0.867 -0.641,1.729 -1.127,2.589 -0.488,0.859 -1.047,1.604 -1.676,2.234 -0.631,0.631 -1.512,1.296 -2.643,1.998 -0.344,0.186 -0.416,0.114 -0.215,-0.215 0.93,-0.788 1.676,-1.496 2.234,-2.127 0.559,-0.63 1.031,-1.354 1.418,-2.17 0.387,-0.816 0.688,-1.668 0.902,-2.557 0.215,-0.888 0.361,-1.769 0.439,-2.643 0.079,-0.873 0.043,-1.468 -0.107,-1.783 -0.15,-0.314 -0.482,-0.529 -0.998,-0.645 -0.17,-0.142 -0.143,-0.257 0.088,-0.343 z" id="path2082"></path></g></svg>
