<?xml version="1.0" encoding="UTF-8" standalone="no"?>
<svg xmlns:dc="http://purl.org/dc/elements/1.1/" xmlns:cc="http://creativecommons.org/ns#" xmlns:rdf="http://www.w3.org/1999/02/22-rdf-syntax-ns#" xmlns:svg="http://www.w3.org/2000/svg" xmlns="http://www.w3.org/2000/svg" xmlns:sodipodi="http://sodipodi.sourceforge.net/DTD/sodipodi-0.dtd" xmlns:inkscape="http://www.inkscape.org/namespaces/inkscape" version="1.1" id="svg3857" inkscape:version="0.46" sodipodi:docname="Wikipedia-logo-v2-udm.svg" x="0px" y="0px" width="135px" height="155px" viewBox="0 0 135 155" enable-background="new 0 0 135 155" xml:space="preserve" sodipodi:version="0.32" inkscape:output_extension="org.inkscape.output.svg.inkscape"><metadata id="metadata714"><rdf:rdf><cc:work rdf:about=""><dc:format>image/svg+xml</dc:format><dc:type rdf:resource="http://purl.org/dc/dcmitype/StillImage"></dc:type></cc:work></rdf:rdf></metadata>
<defs id="defs3"></defs>
<sodipodi:namedview id="namedview4848" showguides="true" inkscape:cy="77.5" inkscape:cx="67.5" inkscape:zoom="3.2129032" showgrid="false" guidetolerance="10" gridtolerance="10" objecttolerance="10" borderopacity="1" bordercolor="#666666" pagecolor="#ffffff" inkscape:window-maximized="0" inkscape:guide-bbox="true" inkscape:current-layer="svg3857" inkscape:window-y="24" inkscape:window-x="0" inkscape:window-height="723" inkscape:window-width="1024" inkscape:pageshadow="2" inkscape:pageopacity="0">
	<sodipodi:guide id="globe_top" position="0,140" orientation="0,1"></sodipodi:guide>
	<sodipodi:guide id="globe_left" position="16,0" orientation="1,0"></sodipodi:guide>
	<sodipodi:guide id="globe_right" position="119,0" orientation="1,0"></sodipodi:guide>
	<sodipodi:guide id="globe_bottom" position="0,47" orientation="0,1"></sodipodi:guide>
	<sodipodi:guide id="wordmark_top" position="8,40" orientation="0,1"></sodipodi:guide>
	<sodipodi:guide id="wordmark_bottom" position="8,22.5" orientation="0,1"></sodipodi:guide>
	<sodipodi:guide id="subtitle_top" position="0,17" orientation="0,1"></sodipodi:guide>
	<sodipodi:guide id="subtitle_bottom" position="0,8" orientation="0,1"></sodipodi:guide>
	<sodipodi:guide id="wordmark_left" position="8,40" orientation="1,0"></sodipodi:guide>
	<sodipodi:guide id="wordmark_right" position="127,40" orientation="1,0"></sodipodi:guide>
</sodipodi:namedview>


<g id="ВИКИПЕДИЯ_x0D__1_">
	<g id="g694">
		<path d="M9.441,115.123c5.021,0,5.804,2.382,5.804,4.218c0,1.487-1.212,2.895-2.564,3.59v0.055    c2.349,0.686,4.157,2.19,4.157,4.822c0,2.354-1.431,5.096-6.802,5.096c-2.402,0-2.78-0.057-3.941-0.057    c-1.376,0-2.186,0.028-3.509,0.057c-0.162-0.165-0.162-0.741,0-0.906c1.89-0.081,2.348-0.218,2.348-2.491V118.52    c0-2.273-0.458-2.411-2.348-2.493c-0.162-0.163-0.162-0.739,0-0.903c1.35,0.026,2.132,0.055,3.482,0.055    C7.228,115.178,8.496,115.123,9.441,115.123z M7.228,122.821h1.998c2.24,0,3.833-0.823,3.833-3.148    c0-2.796-1.971-3.617-3.482-3.617c-2.349,0-2.349,0.272-2.349,1.177V122.821z M7.228,130.161c0,0.905,0.351,1.836,2.241,1.836    c4.103,0,4.858-1.669,4.858-3.671c0-2.464-1.539-4.574-5.236-4.574H7.228V130.161z" id="path696"></path>
		<path d="M31.819,132.245c0.121,0.114,0.121,0.525,0,0.642c-1.013-0.02-1.6-0.04-2.612-0.04c-1.033,0-1.64,0.021-2.632,0.04    c-0.122-0.116-0.122-0.527,0-0.642c1.417-0.06,1.762-0.155,1.762-1.771v-6.925c-0.152,0.049-0.255,0.137-0.354,0.252l-5.53,6.615    c-0.237,0.291-0.439,0.447-0.579,0.909c0.144,0.804,0.595,0.873,1.705,0.92c0.122,0.116,0.122,0.525,0,0.642    c-1.013-0.021-1.6-0.04-2.612-0.04c-1.033,0-1.64,0.021-2.632,0.04c-0.121-0.116-0.121-0.525,0-0.642    c1.417-0.059,1.762-0.155,1.762-1.771v-7.801c0-1.613-0.344-1.713-1.762-1.771c-0.121-0.115-0.121-0.525,0-0.64    c1.013,0.019,1.6,0.037,2.612,0.037c1.033,0,1.64-0.02,2.632-0.037c0.122,0.114,0.122,0.524,0,0.64    c-1.417,0.059-1.762,0.157-1.762,1.771v6.924c0.093-0.005,0.21-0.071,0.358-0.213l5.564-6.653    c0.229-0.276,0.417-0.629,0.534-0.944c-0.15-0.77-0.605-0.84-1.699-0.884c-0.122-0.116-0.122-0.526,0-0.642    c1.013,0.02,1.6,0.039,2.612,0.039c1.032,0,1.64-0.021,2.632-0.039c0.121,0.115,0.121,0.525,0,0.642    c-1.417,0.058-1.762,0.155-1.762,1.771v7.8C30.057,132.09,30.401,132.188,31.819,132.245z" id="path698"></path>
		<path d="M33.175,132.477c0-0.097,0.061-0.154,0.142-0.154l0.546-0.037c0.851-0.062,1.094-0.274,1.094-0.817v-9.785    c0-0.584-0.304-0.759-1.094-0.818l-0.526-0.038c-0.081,0-0.162-0.059-0.162-0.154v-0.37l0.041-0.037    c1.013,0.019,1.62,0.037,2.632,0.037c1.013,0,1.6-0.02,2.592-0.037l0.041,0.037v0.37c0,0.098-0.061,0.154-0.162,0.154    l-0.526,0.038c-0.81,0.062-1.114,0.273-1.114,0.818v4.045c0.729,0,1.64-0.019,2.126-0.291c1.194-0.623,1.478-1.867,1.66-2.956    c0.203-1.204,0.77-2.296,2.369-2.296c1.073,0,1.438,0.563,1.438,1.011c0,0.564-0.465,0.779-0.891,0.779    c-0.263,0-0.547-0.097-0.75-0.292c-0.223-0.215-0.385-0.312-0.648-0.312c-0.607,0-0.747,0.643-0.85,1.205    c-0.223,1.207-0.648,2.878-2.187,3.424v0.098c1.397,0,2.187,0.835,2.733,2.199c1.055,2.624,2.086,3.948,2.794,4.006l0.324,0.02    c0.102,0,0.162,0.058,0.162,0.153v0.37l-0.02,0.04l-1.6-0.021c-1.58-0.02-2.309-1.596-3.179-3.735    c-0.792-1.943-1.174-2.586-3.483-2.586v4.922c0,0.581,0.304,0.755,1.114,0.817l0.526,0.036c0.081,0,0.162,0.06,0.162,0.155v0.371    l-0.041,0.039c-0.972-0.039-1.559-0.039-2.571-0.039c-1.013,0-1.661,0-2.653,0.039l-0.041-0.039v-0.369H33.175z" id="path700"></path>
		<path d="M59.701,132.245c0.121,0.114,0.121,0.525,0,0.642c-1.012-0.02-1.6-0.04-2.611-0.04c-1.033,0-1.641,0.021-2.632,0.04    c-0.122-0.116-0.122-0.527,0-0.642c1.417-0.06,1.762-0.155,1.762-1.771v-6.925c-0.151,0.049-0.255,0.137-0.354,0.252l-5.529,6.615    c-0.237,0.291-0.439,0.447-0.579,0.909c0.144,0.804,0.595,0.873,1.705,0.92c0.122,0.116,0.122,0.525,0,0.642    c-1.013-0.021-1.601-0.04-2.612-0.04c-1.033,0-1.64,0.021-2.632,0.04c-0.122-0.116-0.122-0.525,0-0.642    c1.417-0.059,1.762-0.155,1.762-1.771v-7.801c0-1.613-0.344-1.713-1.762-1.771c-0.122-0.115-0.122-0.525,0-0.64    c1.013,0.019,1.6,0.037,2.612,0.037c1.033,0,1.64-0.02,2.632-0.037c0.122,0.114,0.122,0.524,0,0.64    c-1.417,0.059-1.763,0.157-1.763,1.771v6.924c0.094-0.005,0.211-0.071,0.359-0.213l5.563-6.653    c0.229-0.276,0.417-0.629,0.534-0.944c-0.15-0.77-0.605-0.84-1.699-0.884c-0.122-0.116-0.122-0.526,0-0.642    c1.013,0.02,1.6,0.039,2.611,0.039c1.033,0,1.641-0.021,2.633-0.039c0.121,0.115,0.121,0.525,0,0.642    c-1.418,0.058-1.762,0.155-1.762,1.771v7.8C57.939,132.09,58.283,132.188,59.701,132.245z" id="path702"></path>
		<path d="M74.058,120.265c0.121,0.114,0.121,0.524,0,0.64c-1.418,0.059-1.762,0.156-1.762,1.771v7.801    c0,1.615,0.344,1.712,1.762,1.771c0.121,0.116,0.121,0.525,0,0.642c-0.992-0.021-1.6-0.04-2.633-0.04    c-1.012,0-1.6,0.021-2.611,0.04c-0.121-0.116-0.121-0.525,0-0.642c1.417-0.059,1.762-0.155,1.762-1.771v-7.956    c0-1.205-0.445-1.438-0.932-1.438h-3.989c-0.485,0-0.932,0.231-0.932,1.438v7.956c0,1.615,0.344,1.712,1.762,1.771    c0.123,0.116,0.123,0.525,0,0.642c-1.012-0.021-1.6-0.04-2.611-0.04c-1.033,0-1.641,0.021-2.633,0.04    c-0.121-0.116-0.121-0.525,0-0.642c1.418-0.059,1.762-0.155,1.762-1.771v-7.801c0-1.613-0.344-1.713-1.762-1.771    c-0.121-0.115-0.121-0.525,0-0.64c1.013,0.019,2.146,0.037,2.613,0.037h7.592C71.992,120.302,73.046,120.282,74.058,120.265z" id="path704"></path>
		<path d="M82.866,124.502c0.122-0.116,0.547-0.116,0.669,0c-0.021,0.586-0.041,1.011-0.041,1.674c0,0.66,0.021,1.029,0.041,1.713    c-0.122,0.113-0.547,0.113-0.669,0c-0.061-0.876-0.121-1.326-1.842-1.326h-1.844v4.688c0,0.526,0.283,0.838,0.729,0.838h2.755    c1.538,0,2.248-1.149,2.651-2.549c0.267-0.063,0.498-0.021,0.709,0.097c-0.162,0.992-0.466,2.276-0.749,3.249    c0,0-1.62-0.04-2.592-0.04h-4.354c0,0-1.641,0.021-2.633,0.04c-0.121-0.116-0.121-0.526,0-0.643    c1.418-0.058,1.762-0.154,1.762-1.77v-7.801c0-1.614-0.344-1.712-1.762-1.771c-0.121-0.115-0.121-0.525,0-0.64    c1.014,0.019,2.612,0.037,2.612,0.037h5.163c0.486,0,0.648-0.02,0.992-0.078c0.062,0,0.08,0.021,0.08,0.06    c0.041,0.155,0.346,2.021,0.445,2.818c-0.197,0.094-0.417,0.134-0.668,0.1c-0.445-1.342-0.77-2.12-2.288-2.12h-2.126    c-0.484,0-0.729,0.388-0.729,0.854v3.89h1.843C82.745,125.824,82.806,125.573,82.866,124.502z" id="path706"></path>
		<path d="M91.027,126.992c0.444-2.217,0.688-4.22,0.688-5.446c0-0.408-0.183-0.609-0.709-0.66l-0.607-0.06    c-0.102,0-0.161-0.038-0.161-0.117v-0.407l0.04-0.037c0,0,1.417,0.037,2.023,0.037h5.285c0.607,0,2.207-0.037,2.207-0.037    l0.041,0.037v0.37c0,0.116-0.08,0.148-0.162,0.154l-0.588,0.038c-0.65,0.043-0.748,0.292-0.748,0.994v9.472    c0,0.719,0.455,0.934,0.811,0.992c0.439,0.073,0.595,0.138,0.607,0.37l0.142,2.878c-0.547,0-0.547,0.021-0.547,0.021    c-0.243-1.089-0.972-2.743-2.593-2.743h-5.871c-1.682,0-2.207,1.732-2.43,2.743l-0.548-0.021l0.142-2.878    c0.014-0.232,0.226-0.341,0.427-0.37c0.396-0.059,0.719-0.106,1.012-0.389C90.018,131.427,90.38,130.026,91.027,126.992z     M93.376,121.079c-0.545,0-0.748,0.273-0.789,0.759c-0.164,1.964-0.485,3.986-0.729,5.31c-0.445,2.275-0.951,4.202-0.951,4.609    c0,0.233,0.264,0.332,0.547,0.332h4.434c0.486,0,0.729-0.06,0.729-0.779v-9.474c0-0.603-0.122-0.757-0.749-0.757H93.376    L93.376,121.079z" id="path708"></path>
		<path d="M115.326,132.245c0.122,0.114,0.122,0.525,0,0.642c-1.013-0.02-1.6-0.04-2.612-0.04c-1.031,0-1.64,0.021-2.631,0.04    c-0.121-0.116-0.121-0.527,0-0.642c1.416-0.06,1.762-0.155,1.762-1.771v-6.925c-0.152,0.049-0.256,0.137-0.354,0.252l-5.53,6.615    c-0.235,0.291-0.438,0.447-0.578,0.909c0.145,0.804,0.596,0.873,1.705,0.92c0.121,0.116,0.121,0.525,0,0.642    c-1.013-0.021-1.601-0.04-2.611-0.04c-1.033,0-1.641,0.021-2.633,0.04c-0.121-0.116-0.121-0.525,0-0.642    c1.418-0.059,1.762-0.155,1.762-1.771v-7.801c0-1.613-0.344-1.713-1.762-1.771c-0.121-0.115-0.121-0.525,0-0.64    c1.013,0.019,1.6,0.037,2.611,0.037c1.032,0,1.641-0.02,2.633-0.037c0.121,0.114,0.121,0.524,0,0.64    c-1.418,0.059-1.763,0.157-1.763,1.771v6.924c0.095-0.005,0.211-0.071,0.358-0.213l5.564-6.653    c0.229-0.276,0.416-0.629,0.534-0.944c-0.149-0.77-0.604-0.84-1.698-0.884c-0.121-0.116-0.121-0.526,0-0.642    c1.012,0.02,1.6,0.039,2.611,0.039c1.032,0,1.641-0.021,2.632-0.039c0.122,0.115,0.122,0.525,0,0.642    c-1.417,0.058-1.762,0.155-1.762,1.771v7.8C113.564,132.09,113.909,132.188,115.326,132.245z" id="path710"></path>
		<path d="M116.4,132.326c0-0.137,0.081-0.218,0.188-0.218l0.242-0.028c0.864-0.108,2.203-1.6,3.592-5.261    c0.674-1.78,1.483-2.466,2.213-2.903v-0.081c-1.836-0.274-4.021-1.644-4.021-4.439c0-1.891,0.917-4.246,5.938-4.246    c0.945,0,2.537,0.027,3.429,0.027c0.837,0,3.455-0.027,3.455-0.027v0.575c0,0.109-0.054,0.189-0.188,0.189l-0.811,0.057    c-1.135,0.082-1.432,0.275-1.432,1.205v13.67c0,0.823,0.353,1.124,1.459,1.205l0.729,0.058c0.107,0,0.216,0.081,0.216,0.218v0.521    l-0.054,0.057c0,0-2.35-0.057-3.401-0.057c-0.972,0-3.481,0.057-3.481,0.057l-0.055-0.057v-0.521c0-0.137,0.082-0.218,0.217-0.218    l0.701-0.058c1.135-0.086,1.484-0.437,1.484-1.205v-6.875c-2.861,0-3.4,0.794-4.534,3.7c-1.161,2.971-2.159,5.174-4.075,5.204    l-1.781,0.025l-0.027-0.055L116.4,132.326L116.4,132.326z M124.714,122.931h2.105v-5.834c0-0.907-0.107-0.988-2.456-0.988    c-1.512,0-3.563,0.438-3.563,2.985C120.8,121.998,122.474,122.931,124.714,122.931z" id="path712"></path>
	</g>
</g>
<path transform="matrix(9.3597665e-2,0,0,9.3597665e-2,4.1627652,123.79158)" style="font-size:144px;font-style:normal;font-variant:normal;font-weight:normal;font-stretch:normal;fill:#000000;fill-opacity:1;stroke:none;stroke-width:1px;stroke-linecap:butt;stroke-linejoin:miter;stroke-opacity:1;font-family:Linux Libertine Capitals;-inkscape-font-specification:Linux Libertine Capitals" d="M 55.113243,247.98459 C 86.073212,247.98459 104.64925,226.38456 109.97724,199.74459 C 116.02524,169.64862 102.34522,151.79259 78.441243,151.79259 C 60.153261,151.79259 53.097235,157.84059 44.889243,158.27259 C 42.729245,166.04858 40.13724,173.10459 37.257243,180.59259 L 41.433243,181.16859 C 47.625237,168.7846 58.137263,157.12059 78.009243,157.12059 C 89.385232,157.12059 103.78524,167.77662 97.737243,198.44859 L 97.593243,198.59259 C 89.673251,193.69659 80.601241,191.96859 78.729243,191.96859 C 69.657252,191.96859 62.313235,197.44059 53.817243,197.44059 C 48.345249,197.44059 46.473242,195.13659 45.321243,195.13659 C 44.745244,195.13659 44.025243,195.71259 43.737243,196.86459 C 43.017244,200.46458 51.225252,204.64059 59.721243,204.64059 C 69.369233,204.64059 74.553251,200.03259 82.905243,200.03259 C 88.377238,200.03259 92.265247,201.04059 96.585243,203.20059 C 90.681249,225.95256 76.857222,242.94459 55.545243,242.94459 C 44.601254,242.94459 39.849242,238.04858 38.985243,232.28859 C 38.121244,226.96059 36.825239,223.07259 32.649243,223.07259 C 29.049247,223.07259 27.177242,225.80859 26.601243,228.68859 C 24.441245,239.34458 41.145257,247.98459 55.113243,247.98459 M 139.36674,201.76059 C 144.11874,194.12859 152.03875,189.95259 156.93474,189.95259 C 165.71873,189.95259 170.18274,199.1686 166.72674,216.59259 C 164.13475,228.97657 158.66273,243.08859 143.25474,243.08859 C 140.95075,243.08859 136.19874,242.80058 132.31074,236.89659 L 139.36674,201.76059 M 142.82274,184.76859 L 142.53474,184.48059 C 142.53474,184.48059 139.22274,184.76859 137.20674,184.76859 C 132.16675,184.76859 122.37474,184.48059 122.37474,184.48059 L 122.08674,184.76859 L 121.51074,187.50459 C 121.36674,188.22459 121.65474,188.65659 122.37474,188.65659 L 125.11074,188.94459 C 129.71874,189.52059 130.87074,191.24859 130.00674,195.28059 L 115.17474,269.44059 C 114.45474,273.47258 112.00674,275.34459 107.68674,275.77659 L 104.95074,276.06459 C 104.23074,276.20859 103.65474,276.49659 103.51074,277.21659 L 103.07874,279.95259 L 103.22274,280.24059 C 103.22274,280.24059 113.15875,279.95259 118.19874,279.95259 C 123.81474,279.95259 133.60674,280.24059 133.60674,280.24059 L 134.03874,279.95259 L 134.47074,277.21659 C 134.61474,276.49659 134.18274,276.20859 133.46274,276.06459 L 130.72674,275.77659 C 126.26275,275.34459 125.11074,273.47258 125.83074,269.44059 L 130.72674,244.81659 C 134.18274,246.83258 137.92675,247.98459 143.11074,247.98459 C 150.59874,247.98459 157.07875,245.53658 163.84674,239.92059 C 171.62274,233.29659 177.09475,224.36857 179.39874,212.70459 C 182.42274,197.4406 176.08673,183.32859 162.11874,183.32859 C 157.51075,183.32859 149.44673,184.7686 140.80674,194.84859 L 140.37474,194.84859 L 142.82274,184.76859 M 211.21599,184.76859 C 205.024,184.76859 195.51999,184.48059 195.51999,184.48059 L 195.08799,184.76859 L 194.36799,187.93659 C 194.36799,188.51259 194.51199,188.65659 195.08799,188.65659 L 199.40799,188.94459 C 204.59199,189.37659 204.87999,190.52859 203.58399,196.57659 L 195.80799,235.45659 C 194.79999,240.49658 194.07999,242.08059 188.75199,242.36859 L 184.14399,242.65659 C 183.71199,242.80059 183.42399,242.94459 183.27999,243.37659 L 182.70399,246.54459 L 182.84799,246.83259 C 188.60799,246.68859 192.64,246.54459 198.83199,246.54459 C 203.43999,246.54459 204.736,246.68859 210.49599,246.83259 L 210.63999,246.54459 L 211.21599,243.52059 C 211.35999,242.94459 211.07199,242.80059 210.49599,242.65659 C 205.744,242.22459 205.59999,240.64058 206.31999,237.18459 L 206.31999,236.89659 L 243.18399,201.18459 L 236.41599,235.16859 C 235.40799,240.20858 234.39999,242.08059 229.07199,242.36859 L 224.46399,242.65659 C 224.03199,242.80059 223.74399,242.94459 223.59999,243.37659 L 223.02399,246.54459 L 223.31199,246.83259 C 229.07199,246.68859 232.96,246.54459 239.15199,246.54459 C 245.63199,246.54459 249.952,246.68859 255.71199,246.83259 L 255.85599,246.54459 L 256.43199,243.52059 C 256.57599,242.94459 256.28799,242.80059 255.71199,242.65659 L 251.53599,242.36859 C 246.496,242.08059 246.06399,240.49658 247.21599,235.16859 L 254.99199,196.43259 C 256.14399,190.38459 256.72,189.37659 262.19199,188.94459 L 266.51199,188.65659 C 267.08799,188.65659 267.51999,188.36859 267.66399,187.79259 L 268.23999,184.76859 L 268.09599,184.48059 C 268.09599,184.48059 258.01599,184.76859 251.53599,184.76859 C 247.504,184.76859 241.02399,184.48059 241.02399,184.48059 L 240.73599,184.76859 L 240.01599,187.93659 C 240.01599,188.51259 240.15999,188.65659 240.59199,188.65659 C 245.48799,189.08859 245.05599,191.53659 244.47999,194.99259 L 207.61599,230.70459 L 214.52799,196.43259 C 215.67999,190.52859 216.256,189.37659 221.87199,188.94459 L 226.19199,188.65659 C 226.76799,188.65659 227.19999,188.36859 227.34399,187.79259 L 227.91999,184.76859 L 227.63199,184.48059 C 227.63199,184.48059 217.55199,184.76859 211.21599,184.76859 M 265.67274,246.54459 L 265.96074,246.83259 C 265.96074,246.83259 275.75275,246.54459 280.79274,246.54459 C 286.40874,246.54459 294.76074,246.83259 294.76074,246.83259 L 295.04874,246.54459 L 295.62474,243.80859 C 295.76874,243.08859 295.19274,242.80059 294.61674,242.65659 C 291.59275,242.22459 287.41674,241.36058 288.42474,236.60859 L 292.45674,216.44859 C 303.11273,217.16859 305.27274,222.35259 306.42474,230.27259 C 307.28874,236.60858 309.73675,246.54459 316.93674,246.68859 L 327.30474,246.83259 L 327.73674,246.54459 L 328.31274,243.95259 C 328.45674,242.94459 327.44874,242.65659 326.87274,242.65659 L 325.86474,242.51259 C 320.82475,241.79259 317.36874,229.26458 316.21674,223.79259 C 314.63274,216.73659 310.02474,213.56859 302.24874,213.56859 L 302.39274,212.99259 C 308.00874,211.40859 312.32875,206.51258 315.64074,200.75259 C 318.08874,196.28859 321.40074,193.12059 322.84074,193.12059 C 324.13674,193.12059 325.14474,193.55259 325.86474,194.12859 C 326.72874,194.84859 327.88074,195.42459 329.60874,195.42459 C 332.63274,195.42459 335.65674,192.83258 336.23274,189.95259 C 336.80874,186.49659 335.94474,183.47259 330.04074,183.47259 C 323.12875,183.47259 316.93674,191.24859 312.90474,198.01659 C 308.15275,205.93658 303.11273,211.40859 293.46474,211.40859 L 296.77674,194.99259 C 297.78474,189.80859 300.95275,189.08859 305.12874,188.65659 C 305.70474,188.65659 306.42474,187.93659 306.56874,187.21659 L 307.14474,184.76859 L 306.85674,184.48059 C 306.85674,184.48059 298.79274,184.76859 293.17674,184.76859 C 288.13675,184.76859 278.34474,184.48059 278.34474,184.48059 L 278.05674,184.76859 L 277.48074,187.50459 C 277.33674,188.22459 277.76874,188.51259 278.34474,188.65659 L 281.08074,188.94459 C 285.54474,189.37659 286.69674,191.24859 285.83274,195.28059 L 277.62474,236.32059 C 276.90474,240.35258 275.60874,241.79259 270.42474,242.36859 L 267.54474,242.65659 C 266.82474,242.80059 266.39274,243.08859 266.24874,243.80859 L 265.67274,246.54459 M 339.24774,217.02459 C 336.36775,231.71257 342.99176,247.98459 363.29574,247.98459 C 384.75172,247.98459 397.42375,230.12857 400.30374,215.72859 C 403.32774,200.7526 398.86372,183.32859 376.54374,183.32859 C 357.10376,183.32859 342.84774,198.7366 339.24774,217.02459 M 373.95174,188.08059 C 386.33573,188.08059 391.23174,199.16861 386.91174,220.33659 C 383.16775,239.34457 373.66374,243.23259 366.89574,243.23259 C 351.91976,243.23259 350.04775,224.80058 352.35174,213.71259 C 354.79974,201.1846 361.85576,188.08059 373.95174,188.08059 M 443.34624,234.73659 C 441.90624,242.36858 450.97826,247.98459 464.08224,247.98459 C 478.33823,247.98459 494.75425,237.90456 499.36224,214.72059 C 502.81824,197.2966 497.49022,183.32859 478.33824,183.32859 C 471.57025,183.32859 465.23424,185.63259 458.03424,186.06459 C 456.45024,191.53658 454.86624,196.43259 451.98624,203.34459 L 455.44224,203.92059 C 459.76224,194.7046 465.66625,187.79259 476.32224,187.79259 C 489.13823,187.79259 490.86624,200.1766 488.27424,213.42459 L 487.84224,213.71259 C 484.53025,211.40859 480.93024,209.68059 476.75424,209.68059 C 470.56225,209.68059 465.95424,213.71259 460.91424,213.71259 C 459.04224,213.71259 457.45824,212.84859 456.45024,212.84859 C 455.58624,212.84859 455.01024,214.28859 454.86624,214.86459 C 454.43424,216.88058 460.62625,219.47259 466.81824,219.47259 C 473.29824,219.47259 476.46625,216.30459 481.93824,216.30459 C 483.81024,216.30459 485.53824,216.88059 487.12224,217.60059 C 483.66625,234.73657 475.60223,243.23259 463.50624,243.23259 C 457.74625,243.23259 454.43424,239.77658 453.57024,235.88859 C 452.27424,231.42459 450.83424,230.56059 448.38624,230.56059 C 445.79425,230.56059 443.92224,232.43259 443.34624,234.73659 M 555.47049,235.45659 C 554.46249,240.92858 553.45449,242.08059 548.27049,242.36859 L 544.38249,242.65659 C 543.95049,242.80059 543.66249,242.94459 543.51849,243.37659 L 542.94249,246.54459 L 543.08649,246.83259 C 547.40649,246.68859 553.4545,246.54459 558.63849,246.54459 C 563.96649,246.54459 569.1505,246.68859 573.47049,246.83259 L 573.75849,246.54459 L 574.33449,243.52059 C 574.47849,242.94459 574.19049,242.80059 573.61449,242.65659 L 570.87849,242.36859 C 565.9825,241.93659 565.11849,241.21658 566.27049,235.45659 L 574.33449,195.71259 C 575.48649,189.80859 576.4945,189.52059 581.53449,188.94459 L 584.41449,188.65659 C 584.99049,188.65659 585.42249,188.36859 585.56649,187.79259 L 586.14249,184.76859 L 585.99849,184.48059 C 581.6785,184.62459 576.35049,184.76859 571.02249,184.76859 C 565.8385,184.76859 559.93449,184.62459 555.61449,184.48059 L 555.32649,184.76859 L 554.60649,187.93659 C 554.60649,188.51259 554.75049,188.65659 555.18249,188.65659 L 558.92649,188.94459 C 563.39049,189.37659 564.54249,190.24059 563.53449,195.71259 L 560.36649,211.12059 L 530.84649,211.12059 L 534.01449,195.71259 C 535.16649,189.80859 536.1745,189.52059 541.21449,188.94459 L 544.09449,188.65659 C 544.67049,188.65659 545.10249,188.36859 545.24649,187.79259 L 545.82249,184.76859 L 545.67849,184.48059 C 541.3585,184.62459 535.88649,184.76859 530.55849,184.76859 C 525.3745,184.76859 519.61449,184.62459 515.29449,184.48059 L 515.00649,184.76859 L 514.28649,187.93659 C 514.28649,188.51259 514.43049,188.65659 514.86249,188.65659 L 518.60649,188.94459 C 523.07049,189.37659 524.22249,190.24059 523.21449,195.71259 L 515.15049,235.45659 C 514.14249,240.92858 513.13449,242.08059 507.95049,242.36859 L 504.06249,242.65659 C 503.63049,242.80059 503.34249,242.94459 503.19849,243.37659 L 502.62249,246.54459 L 502.76649,246.83259 C 507.08649,246.68859 512.9905,246.54459 518.17449,246.54459 C 523.50249,246.54459 528.8305,246.68859 533.15049,246.83259 L 533.43849,246.54459 L 534.01449,243.52059 C 534.15849,242.94459 533.87049,242.80059 533.29449,242.65659 L 530.55849,242.36859 C 525.6625,241.93659 524.79849,241.21658 525.95049,235.45659 L 529.83849,216.01659 L 559.35849,216.01659 L 555.47049,235.45659 M 642.53874,195.85659 L 635.05074,233.87259 C 634.04274,238.76858 633.17874,240.92859 627.85074,240.92859 L 610.57074,240.92859 C 605.53075,240.92859 605.09874,239.20058 606.25074,233.87259 L 613.88274,195.71259 C 615.03474,189.80859 615.89875,189.52059 620.93874,188.94459 L 623.96274,188.65659 C 624.53874,188.65659 624.97074,188.36859 625.11474,187.79259 L 625.69074,184.76859 L 625.40274,184.48059 C 625.40274,184.48059 616.18674,184.76859 610.42674,184.76859 C 604.37875,184.76859 595.01874,184.48059 595.01874,184.48059 L 594.87474,184.76859 L 594.15474,187.93659 C 594.15474,188.51259 594.29874,188.65659 594.87474,188.65659 L 598.61874,188.94459 C 603.37074,189.37659 604.09074,190.24059 603.08274,195.71259 L 595.01874,236.03259 C 593.86674,241.64858 593.00274,241.79259 587.96274,242.36859 L 585.37074,242.65659 C 584.93874,242.80059 584.65074,242.94459 584.50674,243.52059 L 583.93074,246.54459 L 584.21874,246.83259 C 584.21874,246.83259 593.29075,246.54459 597.61074,246.54459 L 632.60274,246.54459 C 643.97873,246.54459 645.99474,258.06459 646.13874,265.12059 L 649.73874,264.97659 L 652.76274,245.82459 C 653.05074,243.37659 651.61074,243.08859 649.16274,242.65659 C 646.71475,242.22459 644.55474,239.92058 645.41874,235.60059 L 653.33874,195.85659 C 654.63474,189.95259 655.64275,189.37659 660.68274,188.94459 L 664.28274,188.65659 C 664.85874,188.65659 665.29074,188.36859 665.29074,187.93659 L 666.01074,184.76859 L 665.72274,184.48059 C 665.72274,184.48059 656.21874,184.76859 650.17074,184.76859 C 644.41075,184.76859 635.48274,184.48059 635.48274,184.48059 L 635.33874,184.76859 L 634.61874,187.93659 C 634.61874,188.51259 634.76274,188.65659 635.19474,188.65659 L 638.21874,188.94459 C 642.97074,189.52059 643.69074,190.24059 642.53874,195.85659 M 691.02849,184.76859 C 684.8365,184.76859 675.33249,184.48059 675.33249,184.48059 L 674.90049,184.76859 L 674.18049,187.93659 C 674.18049,188.51259 674.32449,188.65659 674.90049,188.65659 L 679.22049,188.94459 C 684.40449,189.37659 684.69249,190.52859 683.39649,196.57659 L 675.62049,235.45659 C 674.61249,240.49658 673.89249,242.08059 668.56449,242.36859 L 663.95649,242.65659 C 663.52449,242.80059 663.23649,242.94459 663.09249,243.37659 L 662.51649,246.54459 L 662.66049,246.83259 C 668.42049,246.68859 672.4525,246.54459 678.64449,246.54459 C 683.25249,246.54459 684.5485,246.68859 690.30849,246.83259 L 690.45249,246.54459 L 691.02849,243.52059 C 691.17249,242.94459 690.88449,242.80059 690.30849,242.65659 C 685.5565,242.22459 685.41249,240.64058 686.13249,237.18459 L 686.13249,236.89659 L 722.99649,201.18459 L 716.22849,235.16859 C 715.22049,240.20858 714.21249,242.08059 708.88449,242.36859 L 704.27649,242.65659 C 703.84449,242.80059 703.55649,242.94459 703.41249,243.37659 L 702.83649,246.54459 L 703.12449,246.83259 C 708.88449,246.68859 712.7725,246.54459 718.96449,246.54459 C 725.44449,246.54459 729.7645,246.68859 735.52449,246.83259 L 735.66849,246.54459 L 736.24449,243.52059 C 736.38849,242.94459 736.10049,242.80059 735.52449,242.65659 L 731.34849,242.36859 C 726.3085,242.08059 725.87649,240.49658 727.02849,235.16859 L 734.80449,196.43259 C 735.95649,190.38459 736.5325,189.37659 742.00449,188.94459 L 746.32449,188.65659 C 746.90049,188.65659 747.33249,188.36859 747.47649,187.79259 L 748.05249,184.76859 L 747.90849,184.48059 C 747.90849,184.48059 737.82849,184.76859 731.34849,184.76859 C 727.3165,184.76859 720.83649,184.48059 720.83649,184.48059 L 720.54849,184.76859 L 719.82849,187.93659 C 719.82849,188.51259 719.97249,188.65659 720.40449,188.65659 C 725.30049,189.08859 724.86849,191.53659 724.29249,194.99259 L 687.42849,230.70459 L 694.34049,196.43259 C 695.49249,190.52859 696.0685,189.37659 701.68449,188.94459 L 706.00449,188.65659 C 706.58049,188.65659 707.01249,188.36859 707.15649,187.79259 L 707.73249,184.76859 L 707.44449,184.48059 C 707.44449,184.48059 697.36449,184.76859 691.02849,184.76859 M 745.48524,246.54459 L 745.77324,246.83259 C 745.77324,246.83259 755.56525,246.54459 760.60524,246.54459 C 766.22124,246.54459 774.57324,246.83259 774.57324,246.83259 L 774.86124,246.54459 L 775.43724,243.80859 C 775.58124,243.08859 775.00524,242.80059 774.42924,242.65659 C 771.40525,242.22459 767.22924,241.36058 768.23724,236.60859 L 772.26924,216.44859 C 782.92523,217.16859 785.08524,222.35259 786.23724,230.27259 C 787.10124,236.60858 789.54925,246.54459 796.74924,246.68859 L 807.11724,246.83259 L 807.54924,246.54459 L 808.12524,243.95259 C 808.26924,242.94459 807.26124,242.65659 806.68524,242.65659 L 805.67724,242.51259 C 800.63725,241.79259 797.18124,229.26458 796.02924,223.79259 C 794.44524,216.73659 789.83724,213.56859 782.06124,213.56859 L 782.20524,212.99259 C 787.82124,211.40859 792.14125,206.51258 795.45324,200.75259 C 797.90124,196.28859 801.21324,193.12059 802.65324,193.12059 C 803.94924,193.12059 804.95724,193.55259 805.67724,194.12859 C 806.54124,194.84859 807.69324,195.42459 809.42124,195.42459 C 812.44524,195.42459 815.46924,192.83258 816.04524,189.95259 C 816.62124,186.49659 815.75724,183.47259 809.85324,183.47259 C 802.94125,183.47259 796.74924,191.24859 792.71724,198.01659 C 787.96525,205.93658 782.92523,211.40859 773.27724,211.40859 L 776.58924,194.99259 C 777.59724,189.80859 780.76525,189.08859 784.94124,188.65659 C 785.51724,188.65659 786.23724,187.93659 786.38124,187.21659 L 786.95724,184.76859 L 786.66924,184.48059 C 786.66924,184.48059 778.60524,184.76859 772.98924,184.76859 C 767.94925,184.76859 758.15724,184.48059 758.15724,184.48059 L 757.86924,184.76859 L 757.29324,187.50459 C 757.14924,188.22459 757.58124,188.51259 758.15724,188.65659 L 760.89324,188.94459 C 765.35724,189.37659 766.50924,191.24859 765.64524,195.28059 L 757.43724,236.32059 C 756.71724,240.35258 755.42124,241.79259 750.23724,242.36859 L 747.35724,242.65659 C 746.63724,242.80059 746.20524,243.08859 746.06124,243.80859 L 745.48524,246.54459 M 811.37424,239.92059 C 810.51024,244.38458 813.53425,248.27259 819.87024,248.27259 C 826.78224,248.27259 831.39025,244.67258 836.14224,236.75259 C 840.17424,229.84059 843.91824,215.15258 845.79024,205.36059 C 848.09424,194.1286 849.24625,190.38459 854.71824,190.38459 L 861.19824,190.38459 C 866.38224,190.38459 866.52624,192.40059 865.51824,197.29659 L 857.88624,235.88859 C 857.02224,240.06458 855.58224,241.79259 850.39824,242.36859 L 847.51824,242.65659 C 846.79824,242.80059 846.36624,243.08859 846.22224,243.80859 L 845.64624,246.54459 L 845.93424,246.83259 C 845.93424,246.83259 855.72625,246.54459 860.91024,246.54459 C 866.52624,246.54459 876.31824,246.83259 876.31824,246.83259 L 876.60624,246.54459 L 877.18224,243.80859 C 877.32624,243.08859 876.75024,242.65659 876.17424,242.65659 L 873.58224,242.36859 C 868.97425,241.93659 867.82224,240.06458 868.68624,235.88859 L 876.75024,195.71259 C 877.75824,190.24059 878.33425,189.37659 883.95024,188.94459 L 887.98224,188.65659 C 888.84624,188.65659 889.27824,188.36859 889.42224,187.64859 L 889.99824,184.76859 L 889.56624,184.48059 C 889.56624,184.48059 879.77424,184.76859 873.58224,184.76859 L 848.52624,184.76859 C 842.76625,184.76859 833.69424,184.48059 833.69424,184.48059 L 833.26224,184.76859 L 832.83024,187.07259 C 832.54224,188.36858 833.11825,188.51259 835.42224,188.65659 C 843.48623,189.23259 843.48624,191.2486 840.46224,206.36859 C 837.43825,221.48857 834.70224,229.40859 831.67824,235.31259 C 828.79825,240.49658 826.20624,242.36859 823.90224,242.36859 C 822.17424,242.36859 821.74224,241.21658 821.88624,239.34459 C 822.03024,236.75259 821.88624,233.87259 817.99824,233.87259 C 814.54225,233.87259 812.09424,236.75259 811.37424,239.92059 M 893.59149,217.02459 C 890.7115,231.71257 897.33551,247.98459 917.63949,247.98459 C 939.09547,247.98459 951.7675,230.12857 954.64749,215.72859 C 957.67149,200.7526 953.20747,183.32859 930.88749,183.32859 C 911.44751,183.32859 897.19149,198.7366 893.59149,217.02459 M 928.29549,188.08059 C 940.67948,188.08059 945.57549,199.16861 941.25549,220.33659 C 937.5115,239.34457 928.00749,243.23259 921.23949,243.23259 C 906.26351,243.23259 904.3915,224.80058 906.69549,213.71259 C 909.14349,201.1846 916.19951,188.08059 928.29549,188.08059 M 979.68999,196.00059 L 971.76999,235.60059 C 970.76199,240.64058 969.60999,242.08059 964.56999,242.36859 L 960.10599,242.65659 C 959.52999,242.80059 959.24199,242.94459 959.09799,243.37659 L 958.52199,246.54459 L 958.80999,246.83259 C 958.80999,246.83259 968.602,246.54459 974.93799,246.54459 C 980.98599,246.54459 990.63399,246.83259 990.63399,246.83259 L 990.77799,246.54459 L 991.35399,243.52059 C 991.49799,242.94459 991.20999,242.80059 990.77799,242.65659 L 987.03399,242.36859 C 982.138,242.08059 981.56199,241.07258 982.56999,235.60059 L 990.48999,196.00059 C 991.49799,190.96059 994.522,190.38459 997.54599,190.38459 L 1014.97,190.38459 C 1017.85,190.38459 1020.874,190.67259 1019.722,196.00059 L 1011.802,235.60059 C 1010.794,240.64058 1009.642,242.08059 1004.602,242.36859 L 1000.57,242.65659 C 1000.138,242.80059 999.84999,242.94459 999.70599,243.37659 L 999.12999,246.54459 L 999.27399,246.83259 C 999.27399,246.83259 1008.922,246.54459 1015.114,246.54459 C 1021.306,246.54459 1031.242,246.83259 1031.242,246.83259 L 1031.386,246.54459 L 1031.962,243.52059 C 1032.106,242.94459 1031.818,242.80059 1031.242,242.65659 L 1027.066,242.36859 C 1022.026,242.08059 1021.45,241.07258 1022.458,235.60059 L 1030.378,195.85659 C 1031.674,189.95259 1032.106,189.37659 1037.722,188.94459 L 1042.042,188.65659 C 1042.618,188.65659 1043.05,188.36859 1043.194,187.79259 L 1043.77,184.76859 L 1043.626,184.48059 C 1043.626,184.48059 1033.546,184.76859 1027.066,184.76859 L 987.17799,184.76859 C 980.986,184.76859 971.33799,184.48059 971.33799,184.48059 L 971.04999,184.76859 L 970.32999,187.93659 C 970.32999,188.51259 970.47399,188.65659 970.90599,188.65659 L 975.22599,188.94459 C 980.12199,189.37659 980.98599,189.95259 979.68999,196.00059 M 1061.5472,205.93659 C 1067.5952,189.6646 1077.9632,188.36859 1081.4192,188.36859 C 1086.8912,188.36859 1092.7952,191.3926 1090.3472,203.48859 C 1090.0592,204.78458 1089.3392,205.50459 1087.7552,205.50459 L 1061.5472,205.93659 M 1093.9472,233.15259 C 1087.4672,238.62458 1082.8592,240.92859 1074.5072,240.92859 C 1069.3232,240.92859 1063.8512,237.90458 1060.8272,230.56059 C 1058.9552,225.80859 1058.5232,219.18458 1060.2512,210.83259 L 1098.4112,211.12059 C 1100.1392,211.12059 1101.2912,210.25658 1101.7232,208.67259 C 1104.0272,196.5766 1102.2992,183.61659 1082.2832,183.61659 C 1069.7553,183.61659 1051.1792,195.56861 1046.7152,217.45659 C 1045.1312,225.52058 1045.5632,233.29659 1049.3072,238.76859 C 1053.0512,244.52858 1059.0993,247.98459 1069.4672,247.98459 C 1080.4112,247.98459 1089.1953,242.94458 1096.3952,235.45659 C 1096.2512,234.01659 1095.5312,233.29659 1093.9472,233.15259 M 1099.7455,264.97659 L 1103.4895,265.12059 C 1105.7935,259.79259 1112.1295,246.54459 1124.2255,246.54459 L 1147.5535,246.54459 C 1159.5055,246.54459 1161.0895,259.21659 1161.0895,264.97659 L 1164.6895,264.97659 L 1167.7135,245.68059 C 1168.1455,243.66459 1167.2815,243.23259 1164.6895,242.65659 C 1162.3855,242.22459 1159.3615,240.92858 1160.3695,235.60059 L 1168.4335,195.71259 C 1169.2975,190.81659 1171.0255,189.66459 1176.3535,188.94459 L 1178.8015,188.65659 C 1179.2335,188.65659 1179.9535,188.22459 1180.0975,187.64859 L 1180.6735,184.76859 L 1180.5295,184.48059 C 1180.5295,184.48059 1170.0175,184.76859 1165.2655,184.76859 L 1137.9055,184.76859 C 1135.4575,184.76859 1124.2255,184.48059 1124.2255,184.48059 L 1123.7935,184.76859 L 1123.0735,187.93659 C 1123.0735,188.51259 1123.3615,188.65659 1123.9375,188.65659 L 1127.8255,188.94459 C 1132.7215,189.37659 1133.0095,192.25659 1132.7215,193.98459 C 1129.2655,211.12057 1123.9375,224.2246 1118.8975,236.46459 C 1117.3135,240.35258 1112.9935,242.22459 1109.1055,242.65659 C 1107.0895,242.94459 1105.2175,243.23259 1104.4975,245.82459 L 1099.7455,264.97659 M 1123.2175,239.20059 C 1123.7935,236.75259 1129.2655,226.81655 1137.9055,193.98459 C 1138.0495,193.40859 1139.3455,190.24059 1142.6575,190.24059 L 1152.8815,190.24059 C 1158.2095,190.24059 1158.2095,192.40059 1157.2015,197.29659 L 1150.0015,233.87259 C 1148.9935,238.62458 1148.1295,240.92859 1142.8015,240.92859 L 1125.6655,240.92859 C 1124.2255,240.92859 1122.9295,240.78458 1123.2175,239.20059 M 1205.9972,184.76859 C 1199.8052,184.76859 1190.3012,184.48059 1190.3012,184.48059 L 1189.8692,184.76859 L 1189.1492,187.93659 C 1189.1492,188.51259 1189.2932,188.65659 1189.8692,188.65659 L 1194.1892,188.94459 C 1199.3732,189.37659 1199.6612,190.52859 1198.3652,196.57659 L 1190.5892,235.45659 C 1189.5812,240.49658 1188.8612,242.08059 1183.5332,242.36859 L 1178.9252,242.65659 C 1178.4932,242.80059 1178.2052,242.94459 1178.0612,243.37659 L 1177.4852,246.54459 L 1177.6292,246.83259 C 1183.3892,246.68859 1187.4212,246.54459 1193.6132,246.54459 C 1198.2212,246.54459 1199.5172,246.68859 1205.2772,246.83259 L 1205.4212,246.54459 L 1205.9972,243.52059 C 1206.1412,242.94459 1205.8532,242.80059 1205.2772,242.65659 C 1200.5252,242.22459 1200.3812,240.64058 1201.1012,237.18459 L 1201.1012,236.89659 L 1237.9652,201.18459 L 1231.1972,235.16859 C 1230.1892,240.20858 1229.1812,242.08059 1223.8532,242.36859 L 1219.2452,242.65659 C 1218.8132,242.80059 1218.5252,242.94459 1218.3812,243.37659 L 1217.8052,246.54459 L 1218.0932,246.83259 C 1223.8532,246.68859 1227.7412,246.54459 1233.9332,246.54459 C 1240.4132,246.54459 1244.7332,246.68859 1250.4932,246.83259 L 1250.6372,246.54459 L 1251.2132,243.52059 C 1251.3572,242.94459 1251.0692,242.80059 1250.4932,242.65659 L 1246.3172,242.36859 C 1241.2772,242.08059 1240.8452,240.49658 1241.9972,235.16859 L 1249.7732,196.43259 C 1250.9252,190.38459 1251.5012,189.37659 1256.9732,188.94459 L 1261.2932,188.65659 C 1261.8692,188.65659 1262.3012,188.36859 1262.4452,187.79259 L 1263.0212,184.76859 L 1262.8772,184.48059 C 1262.8772,184.48059 1252.7972,184.76859 1246.3172,184.76859 C 1242.2852,184.76859 1235.8052,184.48059 1235.8052,184.48059 L 1235.5172,184.76859 L 1234.7972,187.93659 C 1234.7972,188.51259 1234.9412,188.65659 1235.3732,188.65659 C 1240.2692,189.08859 1239.8372,191.53659 1239.2612,194.99259 L 1202.3972,230.70459 L 1209.3092,196.43259 C 1210.4612,190.52859 1211.0372,189.37659 1216.6532,188.94459 L 1220.9732,188.65659 C 1221.5492,188.65659 1221.9812,188.36859 1222.1252,187.79259 L 1222.7012,184.76859 L 1222.4132,184.48059 C 1222.4132,184.48059 1212.3332,184.76859 1205.9972,184.76859 M 1257.862,246.54459 L 1258.294,246.83259 L 1267.366,246.68859 C 1271.974,246.54459 1277.878,240.78458 1281.91,233.72859 C 1287.238,224.3686 1292.422,218.32059 1298.182,218.32059 L 1301.782,218.32059 L 1298.326,235.45659 C 1297.318,241.07258 1296.742,242.22459 1291.99,242.51259 L 1289.686,242.65659 C 1289.11,242.65659 1288.822,243.08859 1288.678,243.66459 L 1288.102,246.83259 C 1288.102,246.83259 1296.31,246.54459 1301.494,246.54459 C 1306.534,246.54459 1314.598,246.83259 1314.598,246.83259 L 1315.174,243.95259 C 1315.174,243.66459 1315.03,242.65659 1313.878,242.65659 L 1310.854,242.51259 C 1308.55,242.36859 1308.406,239.20058 1309.126,235.45659 L 1317.622,193.26459 C 1318.198,190.24059 1319.494,189.08859 1322.086,188.94459 L 1325.686,188.65659 C 1325.974,188.65659 1326.262,188.51259 1326.262,188.22459 L 1326.982,184.76859 L 1326.694,184.48059 C 1326.694,184.48059 1319.062,184.76859 1314.166,184.76859 C 1309.558,184.76859 1313.302,184.48059 1302.358,184.48059 C 1277.734,184.48059 1273.846,197.72859 1272.982,201.90459 C 1270.966,212.12858 1280.47,217.16859 1288.39,217.16859 L 1288.246,217.60059 C 1284.07,218.32059 1278.598,221.77659 1274.998,227.68059 C 1271.686,233.00858 1265.206,242.08059 1261.318,242.51259 L 1260.022,242.65659 C 1259.446,242.65659 1258.582,242.80059 1258.438,243.80859 L 1257.862,246.54459 M 1284.07,200.32059 C 1285.51,193.55259 1288.678,188.65659 1301.062,188.65659 C 1306.678,188.65659 1307.686,189.23259 1306.678,193.84059 L 1302.79,213.42459 L 1293.142,213.42459 C 1284.934,213.42459 1282.63,207.52058 1284.07,200.32059" id="text2888"></path></svg>
