<?xml version="1.0" encoding="UTF-8" standalone="no"?>
<!-- Created with Inkscape (http://www.inkscape.org/) -->
<svg xmlns:dc="http://purl.org/dc/elements/1.1/" xmlns:cc="http://creativecommons.org/ns#" xmlns:rdf="http://www.w3.org/1999/02/22-rdf-syntax-ns#" xmlns:svg="http://www.w3.org/2000/svg" xmlns="http://www.w3.org/2000/svg" xmlns:sodipodi="http://sodipodi.sourceforge.net/DTD/sodipodi-0.dtd" xmlns:inkscape="http://www.inkscape.org/namespaces/inkscape" version="1.0" width="135" height="155" viewBox="0 0 135 155" id="svg3857" xml:space="preserve" sodipodi:version="0.32" inkscape:version="0.46" sodipodi:docname="Wikipedia-logo-v2-om.svg" inkscape:output_extension="org.inkscape.output.svg.inkscape"><metadata id="metadata501"><rdf:rdf><cc:work rdf:about=""><dc:format>image/svg+xml</dc:format><dc:type rdf:resource="http://purl.org/dc/dcmitype/StillImage"></dc:type></cc:work></rdf:rdf></metadata><sodipodi:namedview inkscape:window-height="723" inkscape:window-width="1024" inkscape:pageshadow="2" inkscape:pageopacity="0.0" guidetolerance="10.0" gridtolerance="10.0" objecttolerance="10.0" borderopacity="1.0" bordercolor="#666666" pagecolor="#ffffff" id="base" showgrid="false" showguides="true" inkscape:guide-bbox="true" inkscape:zoom="3.6994185" inkscape:cx="80.60598" inkscape:cy="42.687605" inkscape:window-x="0" inkscape:window-y="24" inkscape:current-layer="svg3857"><inkscape:grid type="xygrid" id="grid2947"></inkscape:grid></sodipodi:namedview>
<defs id="defs3"></defs>


<g id="Wikipedia">
	<path d="M 18.757,118.893 C 18.757,118.893 18.39,118.147 18.265,117.899 C 17.431,116.247 17.449,116.159 16.606,116.047 C 16.37,116.016 16.248,115.986 16.248,115.869 L 16.248,115.346 L 16.319,115.295 C 17.842,115.293 21.231,115.293 21.231,115.293 L 21.361,115.336 L 21.361,115.857 C 21.361,115.976 21.276,116.037 21.103,116.037 L 20.747,116.088 C 19.847,116.158 19.994,116.526 20.592,117.717 L 26.269,129.332 L 26.463,129.385 L 31.503,117.424 C 31.678,116.942 31.651,116.6 31.426,116.399 C 31.2,116.204 31.041,116.087 30.457,116.063 L 29.984,116.04 C 29.926,116.04 29.871,116.019 29.818,115.979 C 29.766,115.942 29.739,115.893 29.739,115.834 L 29.739,115.336 L 29.811,115.285 C 31.231,115.285 35.505,115.285 35.505,115.285 L 35.563,115.336 L 35.563,115.834 C 35.563,115.969 35.486,116.037 35.334,116.037 C 34.588,116.07 34.035,116.232 33.677,116.521 C 33.318,116.812 33.038,117.212 32.837,117.734 C 32.837,117.734 28.202,128.342 26.616,131.869 C 26.009,133.025 25.412,132.919 24.887,131.836 C 23.778,129.552 20.655,122.623 20.655,122.623 L 18.757,118.893 z" id="path3898"></path>
	<path d="M 27.853,115.287 C 27.853,115.287 24.65,115.277 23.224,115.287 L 23.153,115.338 L 23.153,115.834 C 23.153,115.895 23.179,115.943 23.231,115.98 C 23.284,116.019 23.338,116.039 23.396,116.039 L 23.625,116.064 C 24.208,116.087 24.476,116.241 24.556,116.336 C 24.695,116.506 24.764,116.69 24.427,117.425 L 18.447,129.353 L 18.29,129.312 C 18.29,129.312 14.007,120.281 12.767,117.259 C 12.638,116.947 12.58,116.714 12.58,116.571 C 12.58,116.264 12.857,116.098 13.411,116.075 L 14.057,116.048 C 14.228,116.048 14.315,115.982 14.315,115.845 L 14.315,115.349 L 14.257,115.298 C 14.257,115.298 9.127,115.292 8.067,115.298 L 8.009,115.349 L 8.009,115.87 C 8.009,115.964 8.128,116.022 8.367,116.048 C 9.018,116.083 9.446,116.187 9.652,116.36 C 9.857,116.535 10.074,116.977 10.362,117.666 C 11.919,121.406 15.227,128.08 16.838,131.881 C 17.302,132.919 17.885,133.08 18.593,131.849 C 19.819,129.576 23.143,122.631 23.143,122.631 L 25.761,117.735 C 26.066,117.217 26.36,116.756 26.509,116.542 C 26.782,116.149 26.935,116.075 27.681,116.04 C 27.833,116.04 27.91,115.972 27.91,115.835 L 27.91,115.339 L 27.853,115.287 z" id="path3900"></path>
	<path d="M 37.592,130.77 C 37.592,131.342 37.852,131.68 38.684,131.758 L 39.23,131.811 C 39.308,131.811 39.386,131.862 39.386,131.966 L 39.386,132.512 L 39.36,132.565 C 39.36,132.565 37.384,132.512 36.578,132.512 C 35.85,132.512 33.822,132.565 33.822,132.565 L 33.77,132.512 L 33.77,131.966 C 33.77,131.862 33.848,131.811 33.952,131.811 L 34.472,131.758 C 35.33,131.68 35.59,131.264 35.59,130.77 L 35.59,122.112 C 35.59,121.542 35.277,121.383 34.472,121.307 L 33.952,121.253 C 33.848,121.253 33.77,121.229 33.77,121.149 L 33.77,120.55 L 33.796,120.498 C 33.796,120.498 35.85,120.55 36.656,120.55 C 37.358,120.55 39.36,120.498 39.36,120.498 L 39.386,120.55 L 39.386,121.122 C 39.386,121.2 39.334,121.252 39.23,121.252 L 38.684,121.305 C 37.878,121.382 37.592,121.591 37.592,122.112 L 37.592,130.77 z" id="path3904"></path>
	<path d="M 45.265,130.77 C 45.265,131.342 45.603,131.628 46.357,131.758 L 46.643,131.811 C 46.721,131.836 46.799,131.862 46.799,131.966 L 46.799,132.512 L 46.773,132.565 C 46.773,132.565 45.135,132.512 44.355,132.512 C 43.627,132.512 41.495,132.565 41.495,132.565 L 41.443,132.512 L 41.443,131.966 C 41.443,131.862 41.521,131.811 41.625,131.811 L 42.145,131.758 C 42.925,131.68 43.263,131.264 43.263,130.77 L 43.263,122.112 C 43.263,121.542 42.977,121.383 42.145,121.307 L 41.625,121.253 C 41.521,121.253 41.443,121.229 41.443,121.149 L 41.443,120.55 L 41.469,120.498 C 41.469,120.498 43.601,120.55 44.407,120.55 C 45.136,120.55 46.773,120.498 46.773,120.498 L 46.799,120.55 L 46.799,121.122 C 46.799,121.2 46.747,121.226 46.643,121.252 L 46.357,121.305 C 45.551,121.46 45.265,121.591 45.265,122.112 L 45.265,126.039 C 46.123,126.039 46.617,125.599 47.761,124.375 C 48.801,123.229 49.607,122.271 49.607,121.774 C 49.607,121.565 49.373,121.333 48.853,121.253 C 48.749,121.229 48.697,121.201 48.697,121.123 L 48.697,120.523 L 48.723,120.499 C 48.723,120.499 50.829,120.551 51.583,120.551 C 52.259,120.551 53.403,120.499 53.403,120.499 L 53.481,120.523 L 53.481,121.123 C 53.481,121.201 53.403,121.253 53.273,121.253 C 52.259,121.331 51.557,121.383 50.621,122.449 L 48.385,125.021 C 47.943,125.491 47.787,125.775 47.787,125.984 C 47.787,126.14 47.891,126.269 48.021,126.425 L 51.947,131.157 C 52.259,131.52 52.883,131.677 53.403,131.78 L 53.533,131.805 C 53.611,131.83 53.715,131.882 53.715,131.96 L 53.715,132.506 L 53.637,132.532 C 53.637,132.532 52.259,132.506 51.531,132.506 C 50.881,132.506 49.945,132.532 49.945,132.532 L 49.919,132.506 L 49.919,132.194 C 49.919,131.855 49.893,131.571 49.529,131.155 L 46.643,127.566 C 46.253,127.045 45.837,126.917 45.265,126.917 L 45.265,130.77 L 45.265,130.77 z" id="path3906"></path>
	<path d="M 59.282,130.77 C 59.282,131.342 59.542,131.68 60.374,131.758 L 60.92,131.811 C 60.998,131.811 61.076,131.862 61.076,131.966 L 61.076,132.512 L 61.05,132.565 C 61.05,132.565 59.074,132.512 58.268,132.512 C 57.54,132.512 55.512,132.565 55.512,132.565 L 55.46,132.512 L 55.46,131.966 C 55.46,131.862 55.538,131.811 55.642,131.811 L 56.162,131.758 C 57.02,131.68 57.28,131.264 57.28,130.77 L 57.28,122.112 C 57.28,121.542 56.968,121.383 56.162,121.307 L 55.642,121.253 C 55.538,121.253 55.46,121.229 55.46,121.149 L 55.46,120.55 L 55.486,120.498 C 55.486,120.498 57.54,120.55 58.346,120.55 C 59.048,120.55 61.05,120.498 61.05,120.498 L 61.076,120.55 L 61.076,121.122 C 61.076,121.2 61.024,121.252 60.92,121.252 L 60.374,121.305 C 59.568,121.382 59.282,121.591 59.282,122.112 L 59.282,130.77 z" id="path3908"></path>
	<path d="M 64.9,122.163 C 64.9,121.357 64.562,121.331 63.34,121.253 C 63.184,121.253 63.158,121.176 63.158,121.123 L 63.158,120.525 L 63.21,120.499 C 63.6,120.499 65.134,120.551 65.888,120.551 C 66.616,120.551 67.656,120.499 68.618,120.499 C 72.308,120.499 72.984,122.318 72.984,123.672 C 72.984,125.233 72.23,127.676 68.54,127.676 C 67.89,127.676 67.37,127.623 66.901,127.416 L 66.901,130.898 C 66.901,131.469 67.213,131.601 68.046,131.73 L 68.567,131.808 C 68.671,131.833 68.75,131.861 68.75,131.963 L 68.75,132.509 L 68.726,132.562 C 68.726,132.562 66.645,132.509 65.839,132.509 C 65.111,132.509 63.161,132.562 63.161,132.562 L 63.135,132.509 L 63.135,131.963 C 63.135,131.859 63.187,131.833 63.291,131.808 L 63.837,131.73 C 64.643,131.626 64.903,131.392 64.903,130.898 L 64.9,122.163 L 64.9,122.163 L 64.9,122.163 z M 66.902,126.688 C 67.422,126.897 68.072,126.922 68.592,126.922 C 70.153,126.922 70.904,125.984 70.904,123.984 C 70.904,121.748 69.89,121.254 68.462,121.254 C 67.213,121.254 66.901,121.488 66.901,122.164 L 66.902,126.688 L 66.902,126.688 z" id="path3910"></path>
	<path d="M 77.462,132.512 C 76.682,132.512 74.889,132.565 74.889,132.565 L 74.862,132.512 L 74.862,131.94 C 74.862,131.889 74.889,131.811 75.018,131.811 L 75.618,131.758 C 76.425,131.68 76.659,131.16 76.659,130.641 L 76.659,122.061 C 76.659,121.461 76.347,121.358 75.618,121.307 L 75.018,121.253 C 74.862,121.229 74.862,121.176 74.862,121.149 L 74.862,120.55 L 74.889,120.498 C 74.889,120.498 76.916,120.55 77.696,120.55 L 81.518,120.55 C 82.298,120.55 84.145,120.498 84.145,120.498 L 84.199,120.55 C 84.223,121.668 84.405,122.684 84.589,123.671 L 83.941,123.775 C 83.656,122.812 83.162,121.435 81.498,121.435 L 79.418,121.435 C 78.924,121.435 78.664,121.617 78.664,122.058 L 78.664,125.829 L 80.613,125.829 C 81.342,125.829 81.523,125.517 81.628,124.997 L 81.783,124.451 C 81.783,124.373 81.836,124.32 81.939,124.32 L 82.379,124.32 C 82.433,124.32 82.433,124.347 82.433,124.398 C 82.379,124.969 82.277,125.699 82.277,126.323 C 82.277,126.972 82.381,127.519 82.433,128.117 L 82.379,128.17 L 81.939,128.17 C 81.81,128.17 81.755,128.117 81.755,128.039 L 81.625,127.468 C 81.521,126.947 81.287,126.661 80.608,126.661 L 78.66,126.661 L 78.66,130.64 C 78.66,131.132 78.943,131.626 79.414,131.626 L 81.884,131.626 C 83.21,131.626 83.94,130.794 84.25,129.44 L 84.898,129.518 L 84.377,132.507 L 84.325,132.559 C 84.325,132.559 82.791,132.507 82.011,132.507 L 77.462,132.512 L 77.462,132.512 L 77.462,132.512 z" id="path3912"></path>
	<path d="M 87.24,131.811 L 87.838,131.758 C 88.619,131.68 88.879,131.446 88.879,130.641 L 88.879,122.061 C 88.879,121.383 88.695,121.383 87.838,121.307 L 87.268,121.253 C 87.164,121.253 87.084,121.201 87.084,121.123 L 87.084,120.551 L 87.109,120.499 C 87.109,120.499 89.398,120.551 89.867,120.551 C 90.359,120.551 92.623,120.499 93.299,120.499 C 97.641,120.499 99.774,123.203 99.774,126.661 C 99.774,131.212 96.549,132.562 93.665,132.562 C 91.585,132.562 90.676,132.509 89.87,132.509 C 89.089,132.509 87.112,132.562 87.112,132.562 L 87.087,132.509 L 87.087,131.963 C 87.084,131.889 87.137,131.811 87.24,131.811 z M 93.039,131.811 C 95.898,131.811 97.512,130.747 97.512,127.104 C 97.512,124.401 96.913,121.253 92.545,121.253 C 91.531,121.253 90.881,121.409 90.881,122.061 L 90.881,130.641 C 90.881,131.367 91.062,131.811 93.039,131.811 z" id="path3914"></path>
	<path d="M 105.912,130.77 C 105.912,131.342 106.172,131.68 107.004,131.758 L 107.55,131.811 C 107.628,131.811 107.706,131.862 107.706,131.966 L 107.706,132.512 L 107.68,132.565 C 107.68,132.565 105.704,132.512 104.899,132.512 C 104.17,132.512 102.143,132.565 102.143,132.565 L 102.09,132.512 L 102.09,131.966 C 102.09,131.862 102.168,131.811 102.272,131.811 L 102.793,131.758 C 103.65,131.68 103.911,131.264 103.911,130.77 L 103.911,122.112 C 103.911,121.542 103.598,121.383 102.793,121.307 L 102.272,121.253 C 102.168,121.253 102.09,121.229 102.09,121.149 L 102.09,120.55 L 102.116,120.498 C 102.116,120.498 104.17,120.55 104.974,120.55 C 105.675,120.55 107.679,120.498 107.679,120.498 L 107.703,120.55 L 107.703,121.122 C 107.703,121.2 107.649,121.252 107.547,121.252 L 107.001,121.305 C 106.194,121.382 105.909,121.591 105.909,122.112 L 105.912,130.77 L 105.912,130.77 L 105.912,130.77 z" id="path3916"></path>
	<path d="M 113.922,131.758 L 114.676,131.811 C 114.78,131.811 114.884,131.889 114.884,132.018 L 114.884,132.512 L 114.832,132.565 C 114.832,132.565 111.998,132.512 111.374,132.512 C 110.697,132.512 109.033,132.565 109.033,132.565 L 108.98,132.512 L 108.98,132.018 C 108.98,131.889 109.058,131.811 109.189,131.811 C 110.334,131.733 110.982,131.524 111.71,129.86 L 117.481,116.339 C 117.766,115.663 117.975,115.402 118.367,115.402 C 118.729,115.402 118.86,115.663 119.067,116.183 L 124.397,130.275 C 124.762,131.29 125.283,131.679 126.323,131.783 L 126.608,131.808 C 126.739,131.808 126.869,131.885 126.869,132.017 L 126.869,132.509 L 126.791,132.562 C 126.791,132.562 124.789,132.509 123.774,132.509 C 122.864,132.509 120.315,132.562 120.315,132.562 L 120.291,132.509 L 120.291,132.017 C 120.291,131.885 120.343,131.808 120.476,131.808 L 121.204,131.755 C 122.191,131.678 122.557,131.364 122.296,130.638 L 120.71,126.242 L 115.3,126.242 C 114.676,126.242 114.52,126.346 114.391,126.682 L 112.882,130.453 C 112.622,131.107 112.96,131.68 113.922,131.758 z M 120.292,125.152 L 117.77,118.211 L 117.718,118.211 L 115.118,124.815 C 115.014,125.077 115.195,125.153 115.767,125.153 L 120.292,125.153 L 120.292,125.152 z" id="path3918"></path>
</g>

<path id="path2898" style="font-size:144px;font-style:normal;font-variant:normal;font-weight:bold;font-stretch:normal;fill:#000000;fill-opacity:1;stroke:none;stroke-width:1px;stroke-linecap:butt;stroke-linejoin:miter;stroke-opacity:1;font-family:Gill Sans;-inkscape-font-specification:Gill Sans Bold" d="M 87.47519,138.65625 C 87.398952,138.73249 87.398954,138.98626 87.47519,139.0625 C 88.364598,139.10061 88.56894,139.16416 88.56894,140.21875 L 88.56894,145.3125 C 88.568942,146.36707 88.3646,146.43063 87.47519,146.46875 C 87.398952,146.54499 87.398954,146.83002 87.47519,146.90625 C 88.097775,146.89355 88.452192,146.875 89.10019,146.875 C 89.646541,146.87499 89.844369,146.90625 90.97519,146.90625 C 93.503655,146.90625 94.16269,145.62396 94.16269,144.53125 C 94.162687,143.31149 93.330601,142.59889 92.22519,142.28125 C 92.860487,141.96361 93.41269,141.29257 93.41269,140.59375 C 93.412689,139.74245 93.05723,138.65625 90.69394,138.65625 C 90.249238,138.65625 89.646543,138.65625 89.10019,138.65625 C 88.4649,138.65625 88.110483,138.66896 87.47519,138.65625 z M 90.10019,139.09375 C 90.255638,139.07529 90.480088,139.09375 90.75644,139.09375 C 91.46797,139.09375 92.38144,139.454 92.38144,140.75 C 92.381439,141.82999 91.654776,142.21875 90.60019,142.21875 L 89.63144,142.21875 L 89.63144,139.625 C 89.631439,139.31053 89.633845,139.14914 90.10019,139.09375 z M 89.63144,142.65625 L 90.53769,142.65625 C 92.278396,142.65625 92.97519,143.63773 92.97519,144.78125 C 92.97519,145.70878 92.625231,146.46875 90.69394,146.46875 C 89.804528,146.46875 89.63144,146.04429 89.63144,145.625 L 89.63144,142.65625 z M 115.94394,141.28125 C 114.90206,141.28124 113.85019,142.00138 113.85019,142.6875 C 113.85019,142.99244 113.99545,143.15625 114.28769,143.15625 C 114.65615,143.15625 114.85019,142.88392 114.85019,142.71875 C 114.85019,142.62981 114.84435,142.55083 114.81894,142.5 C 114.80623,142.46187 114.78769,142.38977 114.78769,142.25 C 114.78769,141.85611 115.36737,141.71875 115.85019,141.71875 C 116.28218,141.71875 116.88144,141.93924 116.88144,143.375 C 116.88144,143.46393 116.82581,143.4873 116.78769,143.5 L 115.69394,143.78125 C 114.47417,144.08619 113.60019,144.761 113.60019,145.625 C 113.60019,146.62876 114.33578,147 115.22519,147 C 115.80965,146.99999 116.04113,146.90075 116.60019,146.46875 L 116.85019,146.25 L 116.88144,146.25 C 116.95767,146.51683 117.16407,147 117.85019,147 C 118.47277,146.99999 118.94394,146.50103 118.94394,146.4375 C 118.94394,146.34856 118.80727,146.21875 118.75644,146.21875 C 118.68021,146.21875 118.64826,146.40625 118.38144,146.40625 C 117.88591,146.40625 117.88144,145.92822 117.88144,145.34375 L 117.88144,143.4375 C 117.88144,141.63326 116.87146,141.28125 115.94394,141.28125 z M 116.88144,143.90625 L 116.88144,145.59375 C 116.88144,145.75892 116.79558,145.86126 116.69394,145.9375 C 116.36358,146.20431 115.92469,146.46875 115.56894,146.46875 C 114.93364,146.46875 114.66269,145.95638 114.66269,145.5625 C 114.66269,144.99074 114.94121,144.44161 115.88144,144.1875 L 116.88144,143.90625 z M 121.75644,141.28125 C 120.71456,141.28124 119.66269,142.00138 119.66269,142.6875 C 119.66269,142.99244 119.80795,143.15625 120.10019,143.15625 C 120.46865,143.15625 120.66269,142.88392 120.66269,142.71875 C 120.66269,142.62981 120.65685,142.55083 120.63144,142.5 C 120.61873,142.46187 120.60019,142.38977 120.60019,142.25 C 120.60019,141.85611 121.17987,141.71875 121.66269,141.71875 C 122.09468,141.71875 122.69394,141.93924 122.69394,143.375 C 122.69394,143.46393 122.63831,143.4873 122.60019,143.5 L 121.50644,143.78125 C 120.28667,144.08619 119.41269,144.761 119.41269,145.625 C 119.41269,146.62876 120.11703,147 121.00644,147 C 121.5909,146.99999 121.85363,146.90075 122.41269,146.46875 L 122.66269,146.25 L 122.69394,146.25 C 122.77017,146.51683 122.97657,147 123.66269,147 C 124.28527,146.99999 124.72519,146.50103 124.72519,146.4375 C 124.72519,146.34856 124.61977,146.21875 124.56894,146.21875 C 124.49271,146.21875 124.46076,146.40625 124.19394,146.40625 C 123.69841,146.40625 123.66269,145.92822 123.66269,145.34375 L 123.66269,143.4375 C 123.66269,141.63326 122.68396,141.28125 121.75644,141.28125 z M 122.69394,143.90625 L 122.69394,145.59375 C 122.69394,145.75892 122.60808,145.86126 122.50644,145.9375 C 122.17608,146.20431 121.7372,146.46875 121.38144,146.46875 C 120.74615,146.46875 120.47519,145.95638 120.47519,145.5625 C 120.47519,144.99074 120.75371,144.44161 121.69394,144.1875 L 122.69394,143.90625 z M 81.03769,141.28125 C 79.995812,141.28124 78.94394,142.00138 78.94394,142.6875 C 78.943939,142.99244 79.089206,143.15625 79.38144,143.15625 C 79.749912,143.15625 79.94394,142.88392 79.94394,142.71875 C 79.943941,142.62981 79.938101,142.55083 79.91269,142.5 C 79.899985,142.46187 79.88144,142.38977 79.88144,142.25 C 79.881442,141.85611 80.461118,141.71875 80.94394,141.71875 C 81.375941,141.71875 81.94394,141.93924 81.94394,143.375 C 81.943942,143.46393 81.919558,143.4873 81.88144,143.5 L 80.78769,143.78125 C 79.567928,144.08619 78.69394,144.761 78.69394,145.625 C 78.693937,146.62876 79.398279,147 80.28769,147 C 80.87216,146.99999 81.134882,146.90075 81.69394,146.46875 L 81.94394,146.25 C 82.020177,146.51683 82.257824,147 82.94394,147 C 83.566527,146.99999 84.00644,146.50103 84.00644,146.4375 C 84.006437,146.34856 83.901014,146.21875 83.85019,146.21875 C 83.773951,146.21875 83.710764,146.40625 83.44394,146.40625 C 82.948409,146.40625 82.94394,145.92822 82.94394,145.34375 L 82.94394,143.4375 C 82.943942,141.63326 81.965218,141.28125 81.03769,141.28125 z M 81.94394,143.90625 L 81.94394,145.59375 C 81.943942,145.75892 81.889337,145.86126 81.78769,145.9375 C 81.457338,146.20431 81.018455,146.46875 80.66269,146.46875 C 80.027398,146.46875 79.75644,145.95638 79.75644,145.5625 C 79.756443,144.99074 80.003706,144.44161 80.94394,144.1875 L 81.94394,143.90625 z M 73.63144,138 C 73.313795,138.12707 72.358425,138.30563 71.85019,138.34375 C 71.824781,138.4454 71.867705,138.64251 71.94394,138.71875 C 72.604643,138.75687 72.75644,138.68271 72.75644,139.75 L 72.75644,141.375 C 72.756442,141.46395 72.720381,141.5 72.63144,141.5 C 72.580615,141.50001 72.050734,141.28125 71.63144,141.28125 C 70.792851,141.28124 70.233425,141.57967 69.72519,142.0625 C 69.178839,142.60884 68.85019,143.34102 68.85019,144.28125 C 68.850191,145.84407 69.634208,147 71.00644,147 C 71.501968,146.99999 71.977603,146.72698 72.60019,146.21875 C 72.651014,146.16793 72.75644,146.16106 72.75644,146.25 C 72.756437,146.55494 72.88144,147 72.88144,147 C 72.983085,147.03811 73.029793,147.02541 73.13144,147 C 73.41097,146.77129 73.887632,146.58894 74.66269,146.5 C 74.738922,146.42376 74.738925,146.23248 74.66269,146.15625 C 73.849512,146.09273 73.75644,145.84134 73.75644,145.21875 L 73.75644,139.46875 C 73.756437,138.64288 73.78769,138.125 73.78769,138.125 C 73.787691,138.03607 73.745793,138 73.63144,138 z M 71.50644,141.71875 C 71.963848,141.71875 72.283574,141.89527 72.53769,142.1875 C 72.715569,142.39079 72.75644,142.48112 72.75644,142.875 L 72.75644,145.28125 C 72.756442,145.52266 72.715572,145.62878 72.53769,145.78125 C 72.067575,146.18784 71.667837,146.40625 71.35019,146.40625 C 70.664074,146.40626 69.94394,145.65074 69.94394,144.0625 C 69.943938,143.14769 70.128352,142.64183 70.31894,142.375 C 70.712821,141.77782 71.252324,141.71875 71.50644,141.71875 z M 65.60019,141.3125 C 64.49478,141.31249 63.06894,142.38121 63.06894,144.3125 C 63.068941,145.02402 63.243397,145.70467 63.66269,146.1875 C 64.094691,146.69572 64.685367,147 65.60019,147 C 66.565835,146.99999 67.279456,146.53571 67.78769,145.875 C 67.74957,145.74795 67.65891,145.7002 67.50644,145.6875 C 67.036325,146.17031 66.68088,146.375 65.94394,146.375 C 65.48653,146.37499 64.931572,146.11675 64.53769,145.46875 C 64.283575,145.04946 64.13144,144.45569 64.13144,143.71875 L 67.50644,143.75 C 67.658911,143.74999 67.75644,143.67101 67.75644,143.53125 C 67.756439,142.46396 67.366304,141.3125 65.60019,141.3125 z M 65.60019,141.71875 C 66.083013,141.71875 66.66269,141.9952 66.66269,143.0625 C 66.662689,143.17685 66.614955,143.25 66.47519,143.25 L 64.16269,143.28125 C 64.404101,141.84548 65.295249,141.71875 65.60019,141.71875 z M 57.78769,141.25 C 57.431924,141.38976 56.945644,141.51064 56.06894,141.625 C 56.043527,141.70123 56.074779,141.89252 56.10019,141.96875 C 56.786308,142.03228 56.91269,142.11952 56.91269,142.84375 L 56.91269,148.25 C 56.912691,149.30458 56.781498,149.36814 56.00644,149.40625 C 55.930204,149.48248 55.930205,149.76751 56.00644,149.84375 C 56.540086,149.83104 56.853633,149.8125 57.41269,149.8125 C 58.009866,149.81249 58.428838,149.83104 58.97519,149.84375 C 59.051425,149.76751 59.051425,149.48249 58.97519,149.40625 C 58.073074,149.35542 57.91269,149.30458 57.91269,148.25 L 57.91269,146.90625 C 57.91269,146.74108 57.960426,146.76168 58.10019,146.8125 C 58.405129,146.93956 58.787353,147 59.19394,147 C 59.905471,146.99999 60.548,146.77678 61.06894,146.28125 C 61.666114,145.69678 62.00644,144.90418 62.00644,143.875 C 62.006438,142.52818 61.052438,141.28125 59.75644,141.28125 C 59.286325,141.28124 58.609455,141.60303 58.03769,142.1875 C 57.986867,142.23832 57.88144,142.2579 57.88144,142.15625 C 57.881441,141.69884 57.94394,141.34375 57.94394,141.34375 C 57.943938,141.29292 57.889337,141.25 57.78769,141.25 z M 59.41269,141.875 C 60.225864,141.87501 60.91269,142.78299 60.91269,144.21875 C 60.912691,145.26063 60.554497,146.5625 59.13144,146.5625 C 58.902735,146.5625 58.453896,146.48454 58.22519,146.28125 C 57.958369,146.05254 57.91269,146.00136 57.91269,145.53125 L 57.91269,143.15625 C 57.91269,142.88943 57.966264,142.80289 58.13144,142.625 C 58.525323,142.21841 59.031515,141.875 59.41269,141.875 z M 52.72519,141.28125 C 51.009899,141.28124 50.00644,142.63635 50.00644,144.25 C 50.006441,145.546 50.902414,147 52.69394,147 C 54.587116,146.99999 55.38144,145.42683 55.38144,144.15625 C 55.381438,142.83484 54.694599,141.28125 52.72519,141.28125 z M 52.56894,141.71875 C 53.661643,141.71875 54.28769,142.69474 54.28769,144.5625 C 54.287691,146.23967 53.509866,146.5625 52.91269,146.5625 C 51.591282,146.5625 51.10019,144.9471 51.10019,143.96875 C 51.100191,142.86334 51.501647,141.71875 52.56894,141.71875 z M 75.930318,139.25601 C 75.930318,139.58637 76.235259,139.91672 76.5402,139.91672 C 76.895964,139.91672 77.200905,139.58637 77.200905,139.30684 C 77.200905,139.0019 76.934082,138.64613 76.591023,138.64613 C 76.286083,138.64613 75.930318,138.95107 75.930318,139.25601 M 77.086552,145.31672 L 77.086552,142.78825 C 77.086552,142.15295 77.137376,141.33978 77.137376,141.33978 C 77.137376,141.28895 77.073846,141.25084 76.972199,141.25084 C 76.60373,141.3906 76.108199,141.50495 75.231494,141.61931 C 75.206083,141.69554 75.231494,141.89884 75.256906,141.97507 C 75.943023,142.05131 76.082788,142.11484 76.082788,142.83907 L 76.082788,145.31672 C 76.082788,146.3713 75.943023,146.40942 75.167965,146.47295 C 75.09173,146.54919 75.09173,146.81601 75.167965,146.89224 C 75.701612,146.87954 76.031965,146.86683 76.591023,146.86683 C 77.137376,146.86683 77.455023,146.87954 78.001375,146.89224 C 78.07761,146.81601 78.07761,146.54919 78.001375,146.47295 C 77.226318,146.42213 77.086552,146.3713 77.086552,145.31672 M 95.832878,139.25601 C 95.832878,139.58637 96.13782,139.91672 96.44276,139.91672 C 96.798524,139.91672 97.103465,139.58637 97.103465,139.30684 C 97.103465,139.0019 96.836642,138.64613 96.493583,138.64613 C 96.188643,138.64613 95.832878,138.95107 95.832878,139.25601 M 96.989112,145.31672 L 96.989112,142.78825 C 96.989112,142.15295 97.039936,141.33978 97.039936,141.33978 C 97.039936,141.28895 96.976406,141.25084 96.874759,141.25084 C 96.50629,141.3906 96.010759,141.50495 95.134055,141.61931 C 95.108643,141.69554 95.134055,141.89884 95.159466,141.97507 C 95.845583,142.05131 95.985348,142.11484 95.985348,142.83907 L 95.985348,145.31672 C 95.985348,146.3713 95.845583,146.40942 95.070525,146.47295 C 94.99429,146.54919 94.99429,146.81601 95.070525,146.89224 C 95.604172,146.87954 95.934526,146.86683 96.493583,146.86683 C 97.039936,146.86683 97.357583,146.87954 97.903935,146.89224 C 97.98017,146.81601 97.98017,146.54919 97.903935,146.47295 C 97.128878,146.42213 96.989112,146.3713 96.989112,145.31672 M 99.345853,145.31672 C 99.345853,146.3713 99.206088,146.43483 98.43103,146.47295 C 98.354795,146.54919 98.354795,146.81601 98.43103,146.89224 C 98.964677,146.87954 99.295031,146.86683 99.854088,146.86683 C 100.40044,146.86683 100.71809,146.87954 101.26444,146.89224 C 101.34068,146.81601 101.34068,146.54919 101.26444,146.47295 C 100.48938,146.43483 100.34962,146.3713 100.34962,145.31672 L 100.34962,139.45931 C 100.34962,138.63343 100.40044,138.12519 100.40044,138.12519 C 100.40044,138.03625 100.34962,137.99813 100.23527,137.99813 C 99.917619,138.12519 98.964677,138.30307 98.456442,138.34119 C 98.43103,138.44284 98.456442,138.64613 98.532677,138.72237 C 99.193383,138.76049 99.345853,138.69696 99.345853,139.76425 L 99.345853,145.31672 M 102.69604,145.31672 C 102.69604,146.3713 102.55627,146.43483 101.78121,146.47295 C 101.70498,146.54919 101.70498,146.81601 101.78121,146.89224 C 102.31486,146.87954 102.64521,146.86683 103.20427,146.86683 C 103.75062,146.86683 104.06827,146.87954 104.61462,146.89224 C 104.69086,146.81601 104.69086,146.54919 104.61462,146.47295 C 103.83956,146.43483 103.6998,146.3713 103.6998,145.31672 L 103.6998,139.45931 C 103.6998,138.63343 103.75062,138.12519 103.75062,138.12519 C 103.75062,138.03625 103.6998,137.99813 103.58545,137.99813 C 103.2678,138.12519 102.31486,138.30307 101.80662,138.34119 C 101.78121,138.44284 101.80662,138.64613 101.88286,138.72237 C 102.54356,138.76049 102.69604,138.69696 102.69604,139.76425 L 102.69604,145.31672 M 105.98269,139.25601 C 105.98269,139.58637 106.28763,139.91672 106.59257,139.91672 C 106.94833,139.91672 107.25327,139.58637 107.25327,139.30684 C 107.25327,139.0019 106.98645,138.64613 106.64339,138.64613 C 106.33845,138.64613 105.98269,138.95107 105.98269,139.25601 M 107.13892,145.31672 L 107.13892,142.78825 C 107.13892,142.15295 107.18975,141.33978 107.18975,141.33978 C 107.18975,141.28895 107.12622,141.25084 107.02457,141.25084 C 106.6561,141.3906 106.16057,141.50495 105.28386,141.61931 C 105.25845,141.69554 105.28386,141.89884 105.30928,141.97507 C 105.99539,142.05131 106.13516,142.11484 106.13516,142.83907 L 106.13516,145.31672 C 106.13516,146.3713 105.99539,146.40942 105.22033,146.47295 C 105.1441,146.54919 105.1441,146.81601 105.22033,146.89224 C 105.75398,146.87954 106.08434,146.86683 106.64339,146.86683 C 107.18975,146.86683 107.50739,146.87954 108.05374,146.89224 C 108.12998,146.81601 108.12998,146.54919 108.05374,146.47295 C 107.27869,146.42213 107.13892,146.3713 107.13892,145.31672 M 108.89849,145.11342 C 108.94931,145.73601 108.98743,146.33319 108.98743,146.86683 C 109.11449,146.84142 109.24155,146.82872 109.30508,146.82872 C 109.39402,146.82872 109.47026,146.82872 109.5592,146.85413 C 109.90225,146.94307 110.24531,146.99389 110.71543,146.99389 C 111.42695,146.99389 112.73566,146.65083 112.73566,145.39295 C 112.73566,144.52895 112.10036,144.03342 111.24908,143.70307 C 110.48673,143.41084 109.97849,143.22025 109.97849,142.52142 C 109.97849,142.00048 110.4359,141.70825 110.8679,141.70825 C 111.14742,141.70825 111.88437,141.8099 112.04955,142.88989 C 112.12578,142.96613 112.3799,142.95342 112.45614,142.87719 C 112.45614,142.41978 112.51967,141.94966 112.53237,141.53037 C 112.13849,141.46684 111.5286,141.28895 110.8679,141.28895 C 109.92767,141.28895 109.07637,141.89884 109.07637,142.71201 C 109.07637,143.63954 109.49567,144.03342 110.47402,144.44001 C 111.51589,144.88472 111.77002,145.13883 111.77002,145.68519 C 111.77002,146.30777 111.16013,146.5746 110.69002,146.5746 C 110.19449,146.5746 109.91496,146.40942 109.7879,146.26966 C 109.48296,145.97742 109.36861,145.41836 109.29237,145.10072 C 109.21614,145.02448 108.97473,145.03719 108.89849,145.11342 M 18.75828,142.28001 L 17.602046,142.28001 L 17.602046,139.73884 C 17.602046,139.4339 17.754517,139.17978 18.059457,139.17978 L 19.393574,139.17978 C 20.346514,139.17978 20.549809,139.68801 20.829338,140.56472 C 20.981808,140.59013 21.121573,140.56472 21.248632,140.50119 C 21.185102,139.98025 20.994514,138.76048 20.969102,138.65884 C 20.969102,138.63343 20.956396,138.62072 20.918279,138.62072 C 20.702279,138.65884 20.600632,138.67154 20.295691,138.67154 L 17.055693,138.67154 C 17.055693,138.67154 16.051929,138.65884 15.416636,138.64613 C 15.3404,138.72237 15.3404,138.98919 15.416636,139.06543 C 16.306046,139.10354 16.522047,139.16707 16.522047,140.22166 L 16.522047,145.31672 C 16.522047,146.3713 16.306046,146.43483 15.416636,146.47295 C 15.3404,146.54919 15.3404,146.81601 15.416636,146.89224 C 16.039223,146.87954 17.068399,146.86683 17.068399,146.86683 L 19.800162,146.86683 C 20.410043,146.86683 21.426514,146.89224 21.426514,146.89224 C 21.604396,146.25695 21.794984,145.41836 21.896631,144.77036 C 21.756867,144.70683 21.617102,144.66872 21.451926,144.70683 C 21.197808,145.62166 20.753102,146.3713 19.787456,146.3713 L 18.059457,146.3713 C 17.779928,146.3713 17.602046,146.16801 17.602046,145.82495 L 17.602046,142.76284 L 18.75828,142.76284 C 19.838278,142.76284 19.876397,143.05507 19.914515,143.62683 C 19.99075,143.70307 20.257574,143.70307 20.333809,143.62683 C 20.321103,143.18213 20.308397,142.94072 20.308397,142.50872 C 20.308397,142.07672 20.321103,141.79719 20.333809,141.41601 C 20.257574,141.33978 19.99075,141.33978 19.914515,141.41601 C 19.876397,142.11484 19.838278,142.28001 18.75828,142.28001 M 24.600798,142.31813 C 24.562681,142.36895 24.473739,142.49601 24.473739,142.31813 C 24.473739,141.93695 24.537269,141.35248 24.537269,141.35248 C 24.537269,141.28895 24.486445,141.25084 24.384798,141.25084 C 24.029035,141.3906 23.508092,141.50495 22.631388,141.61931 C 22.605976,141.69554 22.631388,141.89884 22.6568,141.97507 C 23.342916,142.0386 23.482681,142.10213 23.482681,142.83907 L 23.482681,145.31672 C 23.482681,146.3586 23.355622,146.40942 22.59327,146.47295 C 22.517035,146.54919 22.517035,146.81601 22.59327,146.89224 C 23.114211,146.87954 23.444565,146.86683 23.990916,146.86683 C 24.486445,146.86683 24.715152,146.87954 25.248798,146.89224 C 25.325033,146.81601 25.325033,146.54919 25.248798,146.47295 C 24.600799,146.40942 24.486445,146.3586 24.486445,145.31672 L 24.486445,143.23295 C 24.486445,142.96613 24.600798,142.81366 24.702445,142.69931 C 25.185268,142.22919 25.680798,141.94966 26.176327,141.94966 C 26.430444,141.94966 26.697267,142.11484 26.849738,142.40707 C 26.976797,142.66119 27.002208,143.00425 27.002208,143.38542 L 27.002208,145.31672 C 27.002208,146.3586 26.87515,146.40942 26.214444,146.47295 C 26.150915,146.54919 26.150915,146.81601 26.214444,146.89224 C 26.748091,146.87954 27.002209,146.86683 27.510443,146.86683 C 28.031384,146.86683 28.310914,146.87954 28.857266,146.89224 C 28.920795,146.81601 28.920795,146.54919 28.857266,146.47295 C 28.145738,146.40942 28.005972,146.3586 28.005972,145.31672 L 28.005972,143.42354 C 28.005972,142.72472 27.955149,142.11484 27.662914,141.72095 C 27.446915,141.44142 27.053032,141.28895 26.608326,141.28895 C 25.985739,141.28895 25.375856,141.45413 24.600798,142.31813 M 34.119483,145.7106 C 34.06866,145.59625 33.967013,145.54542 33.85266,145.53272 C 33.420661,146.09177 32.874307,146.3713 32.327955,146.3713 C 31.400427,146.3713 30.625368,145.43107 30.625368,143.94448 C 30.625368,142.54684 31.235251,141.70825 32.073837,141.70825 C 32.823483,141.70825 32.925131,142.15295 32.975954,142.59766 C 33.014072,142.94072 33.191955,143.05507 33.458778,143.05507 C 33.725601,143.05507 34.081365,142.88989 34.081365,142.49601 C 34.081365,141.79719 33.35713,141.28895 32.137367,141.28895 C 30.879487,141.28895 29.532663,142.41978 29.532663,144.22401 C 29.532663,145.86307 30.447487,146.99389 32.048426,146.99389 C 32.810777,146.99389 33.48419,146.75248 34.119483,145.7106 M 37.090474,148.89977 C 37.281062,148.55671 37.446238,148.18824 37.611415,147.80707 C 38.627884,145.36754 39.186944,144.04613 39.860354,142.62307 C 40.038236,142.2546 40.419414,141.84801 40.88953,141.80989 C 40.965765,141.73366 40.965765,141.46684 40.88953,141.3906 C 40.571884,141.40331 40.343177,141.41601 39.987413,141.41601 C 39.542708,141.41601 39.301296,141.40331 38.831178,141.3906 C 38.754943,141.46684 38.754943,141.73366 38.831178,141.80989 C 39.22506,141.84801 39.631648,141.92425 39.44106,142.38166 L 38.170473,145.2913 C 38.081532,145.5073 37.979885,145.53272 37.865532,145.2786 L 36.747415,142.63578 C 36.51871,142.10213 36.378946,141.87342 37.154003,141.80989 C 37.230238,141.73366 37.230238,141.46684 37.154003,141.3906 C 36.683887,141.40331 36.175651,141.41601 35.718239,141.41601 C 35.28624,141.41601 34.943181,141.40331 34.689064,141.3906 C 34.612828,141.46684 34.612828,141.73366 34.689064,141.80989 C 35.248122,141.86072 35.34977,141.96237 35.692828,142.76284 L 37.128591,146.10448 C 37.242944,146.3713 37.433532,146.94307 37.306474,147.29883 C 37.166709,147.73083 37.001533,148.07389 36.810944,148.46777 C 36.67118,148.72189 36.493298,148.83624 36.175651,148.83624 C 35.997769,148.83624 35.946945,148.79813 35.80718,148.79813 C 35.438711,148.79813 35.248122,149.1793 35.248122,149.34448 C 35.248122,149.6113 35.50224,149.8146 35.845298,149.8146 C 36.112121,149.8146 36.620357,149.71295 37.077768,148.89977 L 37.090474,148.89977 M 47.355998,145.31672 C 47.355998,146.3713 47.216233,146.43483 46.441176,146.47295 C 46.36494,146.54919 46.36494,146.81601 46.441176,146.89224 C 46.974822,146.87954 47.305176,146.86683 47.864233,146.86683 C 48.410586,146.86683 48.728234,146.87954 49.274585,146.89224 C 49.350821,146.81601 49.350821,146.54919 49.274585,146.47295 C 48.499528,146.43483 48.359763,146.3713 48.359763,145.31672 L 48.359763,139.45931 C 48.359763,138.63343 48.410586,138.12519 48.410586,138.12519 C 48.410586,138.03625 48.359763,137.99813 48.24541,137.99813 C 47.927764,138.12519 46.974822,138.30307 46.466587,138.34119 C 46.441176,138.44284 46.466587,138.64613 46.542823,138.72237 C 47.203528,138.76049 47.355998,138.69696 47.355998,139.76425 L 47.355998,145.31672 M 45.84982,145.71071 C 45.798997,145.59636 45.69735,145.54553 45.582997,145.53283 C 45.150998,146.09188 44.604644,146.37141 44.058292,146.37141 C 43.130764,146.37141 42.355705,145.43118 42.355705,143.94459 C 42.355705,142.54695 42.965588,141.70836 43.804174,141.70836 C 44.55382,141.70836 44.655468,142.15306 44.706291,142.59777 C 44.744409,142.94083 44.922292,143.05518 45.189115,143.05518 C 45.455938,143.05518 45.811702,142.89 45.811702,142.49612 C 45.811702,141.7973 45.087467,141.28906 43.867704,141.28906 C 42.609824,141.28906 41.263,142.41989 41.263,144.22412 C 41.263,145.86318 42.177824,146.994 43.778763,146.994 C 44.541114,146.994 45.214527,146.75259 45.84982,145.71071" transform="translate(-2.5423255,0)"></path></svg>
