<?xml version="1.0" encoding="UTF-8" standalone="no"?>
<svg
	xmlns="http://www.w3.org/2000/svg"
	xmlns:dc="http://purl.org/dc/elements/1.1/"
	xmlns:cc="http://creativecommons.org/ns#"
	xmlns:rdf="http://www.w3.org/1999/02/22-rdf-syntax-ns#"
	xmlns:svg="http://www.w3.org/2000/svg"
	xmlns:xlink="http://www.w3.org/1999/xlink"
	xmlns:sodipodi="http://sodipodi.sourceforge.net/DTD/sodipodi-0.dtd"
	xmlns:inkscape="http://www.inkscape.org/namespaces/inkscape"
	version="1.1"
	viewBox="0 0 0 0">
	<svg version="1.1" id="svg3857" sodipodi:docname="Wikipedia-logo.svg" inkscape:version="0.47 r22583" xmlns:dc="http://purl.org/dc/elements/1.1/" xmlns:cc="http://creativecommons.org/ns#" xmlns:sodipodi="http://sodipodi.sourceforge.net/DTD/sodipodi-0.dtd" xmlns:inkscape="http://www.inkscape.org/namespaces/inkscape" xmlns:svg="http://www.w3.org/2000/svg" xmlns:rdf="http://www.w3.org/1999/02/22-rdf-syntax-ns#" xmlns:xlink="http://www.w3.org/1999/xlink" x="0px" y="0px" viewBox="0 0 135 155" enable-background="new 0 0 135 155" xml:space="preserve" xmlns:svgjs="http://svgjs.com/svgjs">
<defs>
	
	
		<inkscape:perspective inkscape:persp3d-origin="67.5 : 51.666667 : 1" sodipodi:type="inkscape:persp3d" inkscape:vp_z="135 : 77.5 : 1" id="perspective4854" inkscape:vp_x="0 : 77.5 : 1" inkscape:vp_y="0 : 1000 : 0">
		</inkscape:perspective>
	
		<inkscape:perspective inkscape:persp3d-origin="0.5 : 0.33333333 : 1" sodipodi:type="inkscape:persp3d" inkscape:vp_z="1 : 0.5 : 1" id="perspective10537" inkscape:vp_x="0 : 0.5 : 1" inkscape:vp_y="0 : 1000 : 0">
		</inkscape:perspective>
</defs>
<sodipodi:namedview inkscape:guide-bbox="true" inkscape:cx="92.577797" id="namedview4848" borderopacity="1" bordercolor="#666666" gridtolerance="10" inkscape:zoom="5.6568543" guidetolerance="10" showguides="true" objecttolerance="10" pagecolor="#ffffff" inkscape:cy="145.31128" showgrid="false" inkscape:window-maximized="0" inkscape:current-layer="svg3857" inkscape:window-width="1198" inkscape:window-x="32" inkscape:pageshadow="2" inkscape:window-y="24" inkscape:window-height="730" inkscape:pageopacity="0">
	<sodipodi:guide position="0,140" orientation="0,1" id="globe_top"></sodipodi:guide>
	<sodipodi:guide position="16,0" orientation="1,0" id="globe_left"></sodipodi:guide>
	<sodipodi:guide position="119,0" orientation="1,0" id="globe_right"></sodipodi:guide>
	<sodipodi:guide position="0,47" orientation="0,1" id="globe_bottom"></sodipodi:guide>
	<sodipodi:guide position="8,40" orientation="0,1" id="wordmark_top"></sodipodi:guide>
	<sodipodi:guide position="8,22.5" orientation="0,1" id="wordmark_bottom"></sodipodi:guide>
	<sodipodi:guide position="0,17" orientation="0,1" id="subtitle_top"></sodipodi:guide>
	<sodipodi:guide position="0,8" orientation="0,1" id="subtitle_bottom"></sodipodi:guide>
	<sodipodi:guide position="8,40" orientation="1,0" id="wordmark_left"></sodipodi:guide>
	<sodipodi:guide position="127,40" orientation="1,0" id="wordmark_right"></sodipodi:guide>
</sodipodi:namedview>

<g>
	<path d="M30.4,126.9h-0.2c-1.4,0-2.3-0.3-3-1c-1.1-1.1-1.1-2.3-1.1-4.9c0-3.3-0.2-6.8-0.5-10.6c0.6-0.7,1.1-1.2,1.7-1.6l0.1,0.1
		c0.3,3.8,0.3,8.4,0.3,12.7v1c0,1.1,0.6,1.6,1.3,1.9c0.4,0.2,0.9,0.2,1.1,0.2h0.2V126.9z"></path>
	<path d="M30.7,124.7c1.5,0,2.7-0.1,3.5-0.3c0.6-0.2,1-0.5,1-0.8c0-0.8-0.8-2.5-1.8-4.3c0.4-0.8,0.9-1.4,1.3-2h0.1
		c0.8,1.4,1.8,3.6,1.8,5.4c0,1.3-0.5,2.3-1.2,3.3c-0.8,0.8-2,1.1-4.7,1.1h-0.2c-1,0-1.2-0.7-1.2-1.2c0-0.4,0.3-1.1,1.2-1.1H30.7z
		 M32.4,134c-0.7-0.7-1.4-1.2-2.1-1.8c0.5-0.6,0.9-1.2,1.4-1.7c0.7,0.6,1.3,1.1,2,1.9C33.3,133,32.9,133.5,32.4,134z M35.8,133.7
		c-0.7-0.7-1.4-1.2-2.1-1.8c0.5-0.6,0.9-1.2,1.4-1.7c0.7,0.6,1.3,1.1,2,1.9C36.7,132.8,36.3,133.3,35.8,133.7z"></path>
	<path d="M51.7,126.9h-0.3c-1.6,0-2.9-0.7-3.6-2.9h-0.1c-0.1,0.7-0.5,1.2-1.3,1.7c-1.2,0.7-2.4,1.2-3.5,1.2c-2,0-3.1-1.2-3.1-3.3
		c0-0.4,0-0.9,0.1-1.3l0.7-0.1c0.1,1.5,0.8,2.4,2.5,2.4c0.9,0,2-0.4,2.9-0.9c0.7-0.4,1.1-0.9,1.1-1.3c0-1.2-0.6-3.5-1.5-6.5
		c0.4-0.6,0.8-1.2,1.2-1.8l0.1,0.1c0.7,2.5,1.2,5.2,1.7,7.8c0.3,1.7,1.5,2.7,2.8,2.7h0.3V126.9z"></path>
	<path d="M52,124.7c1.5,0,2.7-0.1,3.5-0.3c0.6-0.2,1-0.5,1-0.8c0-0.8-0.8-2.5-1.8-4.3c0.4-0.8,0.9-1.4,1.3-2h0.1
		c0.8,1.4,1.8,3.6,1.8,5.4c0,1.3-0.5,2.3-1.2,3.3c-0.8,0.8-2,1.1-4.7,1.1h-0.2c-1,0-1.2-0.7-1.2-1.2c0-0.4,0.3-1.1,1.2-1.1H52z
		 M53.8,133.1c-0.7-0.7-1.4-1.2-2.1-1.8c0.5-0.6,0.9-1.2,1.4-1.7c0.7,0.6,1.3,1.1,2,1.9C54.6,132.2,54.3,132.7,53.8,133.1z
		 M56.2,136.6c-0.7-0.7-1.4-1.2-2.1-1.8c0.5-0.6,0.9-1.2,1.4-1.7c0.7,0.6,1.3,1.1,2,1.9C57.1,135.7,56.7,136.2,56.2,136.6z
		 M57.2,132.9c-0.7-0.7-1.4-1.2-2.1-1.8c0.5-0.6,0.9-1.2,1.4-1.7c0.7,0.6,1.3,1.1,2,1.9C58,132,57.7,132.4,57.2,132.9z"></path>
	<path d="M77.3,124.7v2.3h-1c0.1,0.5,0.1,0.9,0.1,1.3c0,0.6-0.6,1.8-0.8,2.2c-2.3,2-5.6,3.3-8.2,3.3c-2.3,0-3.8-0.8-4.8-1.9
		c-1.1-1.2-1.5-2.9-1.5-4.9c0-1.8,0.7-4.1,1.7-5.8l0.7,0.3c-0.7,1.8-1.1,3.2-1.1,4.4c0,1.5,0.5,2.9,1.4,3.8c1.1,1.1,2.6,1.7,4.3,1.7
		c1.6,0,3.5-0.5,5.6-1.5c0.8-0.4,1.4-0.9,1.6-1.2c-0.4-0.8-2.3-1.6-5.1-1.6l-0.1-0.2l1.2-2H77.3z"></path>
	<path d="M90.8,126.9h-0.4c-2.1,0-3.3-1.2-4.6-2.8c-0.6-0.8-1.1-1.5-1.5-2h-0.1c0,2.7-1.6,4.8-6.5,4.8h-0.5c-1,0-1.2-0.7-1.2-1.2
		c0-0.4,0.3-1.1,1.2-1.1H78c1.4,0,3.1-0.2,4.3-1c0.4-0.2,0.9-0.6,0.9-0.9c0-0.4-0.2-0.8-0.4-1.2c-0.7-1.6-2.5-3.5-4.3-5.3
		c-0.5-0.5-0.9-0.9-1.1-1.2c-0.1-0.3-0.1-0.6-0.1-1c0-0.5,0.2-1,0.5-1.5c0.1-0.2,0.4-0.5,0.6-0.7c1.8-1.2,6-2.6,10.8-4.1l0.1,0.1
		c-0.4,0.7-0.8,1.5-1.4,2.2c-1.1,0.3-2.6,0.8-4,1.3c-2.1,0.8-4.1,1.6-5.3,2.2v0.1c0.9,0.6,2,1.1,2.7,1.4l-0.5,0.9
		c1.9,1.7,4.1,4.2,6.5,7c1,1.2,2,1.8,3.4,1.8h0.3V126.9z"></path>
	<path d="M91.1,124.7c1.5,0,2.7-0.1,3.5-0.3c0.6-0.2,1-0.5,1-0.8c0-0.8-0.8-2.5-1.8-4.3c0.4-0.8,0.9-1.4,1.3-2h0.1
		c0.8,1.4,1.8,3.6,1.8,5.4c0,1.3-0.5,2.3-1.2,3.3c-0.8,0.8-2,1.1-4.7,1.1h-0.2c-1,0-1.2-0.7-1.2-1.2c0-0.4,0.3-1.1,1.2-1.1H91.1z
		 M92.9,134c-0.7-0.7-1.4-1.2-2.1-1.8c0.5-0.6,0.9-1.2,1.4-1.7c0.7,0.6,1.3,1.1,2,1.9C93.7,133,93.4,133.5,92.9,134z M96.3,133.7
		c-0.7-0.7-1.4-1.2-2.1-1.8c0.5-0.6,0.9-1.2,1.4-1.7c0.7,0.6,1.3,1.1,2,1.9C97.1,132.8,96.8,133.3,96.3,133.7z"></path>
	<path d="M106,125.1c-2.1,0-3.8-1-3.8-3.3c0-1.2,0.4-2.1,1.1-3c0.8-0.9,1.7-1.5,2.5-1.5c1,0,2,0.7,2.7,2c0.7,1.2,1.1,2.9,1.1,4.8
		c0,1.6-0.4,3.2-1.3,4.6c-1.6,2.4-3.1,3.3-4.5,3.3c-1.6,0-3.3-0.5-5-1.7l0.3-0.6c0.9,0.4,1.7,0.6,2.6,0.6c1.8,0,3.6-0.9,5.2-2.7
		c0.8-0.9,1.5-1.9,1.7-2.9C107.5,125,106.8,125.1,106,125.1z M105.2,119.5c-0.8,0-2,0.9-2,1.6c0,1.1,1.5,1.9,3,1.9
		c0.7,0,1.4-0.1,2-0.2C107.7,120.9,106.7,119.5,105.2,119.5z"></path>
</g>
<g>
	<path d="M47.1,148.1h-0.2c-1,0-1.5-0.5-2-1.3c-0.3-0.3-0.5-0.7-0.7-0.9h0c-0.1,0.7-0.3,1.1-0.6,1.3c-0.7,0.5-2,0.9-3.5,0.9
		c-2,0-3.2-0.8-3.2-2.5c0-0.5,0.1-0.9,0.3-1.4l0.3,0.1c-0.1,0.3-0.1,0.5-0.1,0.8c0,1.3,1,1.9,2.9,1.9c1.1,0,2.7-0.3,3.4-1
		c0-0.2,0-0.3-0.1-0.5c-0.3-0.7-1.1-1.5-1.9-2.4c-0.2-0.2-0.4-0.4-0.5-0.5c0-0.1-0.1-0.3-0.1-0.4c0-0.2,0.1-0.4,0.2-0.7
		c0.1-0.1,0.2-0.2,0.3-0.3c0.8-0.5,2.7-1.2,4.8-1.8l0,0c-0.2,0.3-0.4,0.6-0.6,1c-0.5,0.1-1.1,0.3-1.8,0.6c-0.9,0.4-1.8,0.7-2.4,1v0
		c0.4,0.3,0.9,0.5,1.2,0.6l-0.2,0.4c0.8,0.8,1.8,1.9,2.9,3.1c0.4,0.5,0.9,0.8,1.5,0.8h0.1V148.1z"></path>
	<path d="M47.3,147.1c0.6,0,1.2-0.2,1.3-0.7l0.2-0.8l0.5-0.4l0,0.1c-0.1,0.4-0.2,0.7-0.2,0.9c0,0.3,0.1,0.5,0.3,0.6
		c0.3,0.2,0.6,0.3,1,0.3h0.1v1h-0.2c-0.8,0-1.3-0.2-1.6-0.8h0c-0.3,0.5-0.9,0.8-1.6,0.8h-0.1c-0.4,0-0.5-0.3-0.5-0.5
		c0-0.2,0.1-0.5,0.5-0.5H47.3z M48.1,151.2c-0.3-0.3-0.6-0.6-0.9-0.8c0.2-0.3,0.4-0.5,0.6-0.7c0.3,0.3,0.6,0.5,0.9,0.8
		C48.5,150.8,48.4,151,48.1,151.2z M49.6,151.1c-0.3-0.3-0.6-0.6-0.9-0.8c0.2-0.3,0.4-0.5,0.6-0.7c0.3,0.3,0.6,0.5,0.9,0.8
		C50,150.7,49.9,150.9,49.6,151.1z"></path>
	<path d="M50.8,147.1c0.3,0,0.7-0.1,0.9-0.2c0.2-0.1,0.4-0.4,0.4-0.9c0-1.6-0.1-3-0.2-4.8l0-0.4l0.7-0.7l0,0
		c0.1,1.8,0.2,3.8,0.2,6.1c0,0.4,0.3,0.9,1.2,0.9H54v1h-0.2c-0.7,0-1.3-0.3-1.5-0.8h0c-0.2,0.4-0.8,0.8-1.5,0.8h-0.1
		c-0.4,0-0.5-0.3-0.5-0.5c0-0.2,0.1-0.5,0.5-0.5H50.8z"></path>
	<path d="M60,148.1h-0.2c-1,0-1.5-0.5-2-1.3c-0.3-0.3-0.5-0.7-0.7-0.9h0c0,1.2-0.7,2.1-2.9,2.1H54c-0.4,0-0.5-0.3-0.5-0.5
		c0-0.2,0.1-0.5,0.5-0.5h0.3c0.6,0,1.4-0.1,1.9-0.5c0.2-0.1,0.4-0.3,0.4-0.4c0-0.2-0.1-0.3-0.2-0.5c-0.3-0.7-1.1-1.5-1.9-2.4
		c-0.2-0.2-0.4-0.4-0.5-0.5c0-0.1-0.1-0.3-0.1-0.4c0-0.2,0.1-0.4,0.2-0.7c0.1-0.1,0.2-0.2,0.3-0.3c0.8-0.5,2.7-1.2,4.8-1.8l0,0
		c-0.2,0.3-0.4,0.6-0.6,1c-0.5,0.1-1.1,0.3-1.8,0.6c-0.9,0.4-1.8,0.7-2.4,1v0c0.4,0.3,0.9,0.5,1.2,0.6l-0.2,0.4
		c0.8,0.8,1.8,1.9,2.9,3.1c0.4,0.5,0.9,0.8,1.5,0.8H60V148.1z"></path>
	<path d="M60.2,147.1c0.6,0,1.2-0.2,1.3-0.7l0.2-0.8l0.5-0.4l0,0.1c-0.1,0.4-0.2,0.7-0.2,0.9c0,0.3,0.1,0.5,0.3,0.6
		c0.3,0.2,0.6,0.3,1,0.3h0.1v1h-0.2c-0.8,0-1.3-0.2-1.6-0.8h0c-0.3,0.5-0.9,0.8-1.6,0.8H60c-0.4,0-0.5-0.3-0.5-0.5
		c0-0.2,0.1-0.5,0.5-0.5H60.2z M61,151.2c-0.3-0.3-0.6-0.6-0.9-0.8c0.2-0.3,0.4-0.5,0.6-0.7c0.3,0.3,0.6,0.5,0.9,0.8
		C61.4,150.8,61.3,151,61,151.2z M62.5,151.1c-0.3-0.3-0.6-0.6-0.9-0.8c0.2-0.3,0.4-0.5,0.6-0.7c0.3,0.3,0.6,0.5,0.9,0.8
		C62.9,150.7,62.8,150.9,62.5,151.1z"></path>
	<path d="M63.7,147.1c0.3,0,0.7-0.1,0.9-0.2c0.2-0.1,0.4-0.4,0.4-0.9c0-1.6-0.1-3-0.2-4.8l0-0.4l0.7-0.7l0,0
		c0.1,1.8,0.2,3.8,0.2,6.1c0,0.4,0.3,0.9,1.2,0.9h0.1v1h-0.2c-0.7,0-1.3-0.3-1.5-0.8h0c-0.2,0.4-0.8,0.8-1.5,0.8h-0.1
		c-0.4,0-0.5-0.3-0.5-0.5c0-0.2,0.1-0.5,0.5-0.5H63.7z"></path>
	<path d="M67,147.1c0.6,0,1.2-0.2,1.3-0.7l0.2-0.8l0.5-0.4l0,0.1c-0.1,0.4-0.2,0.7-0.2,0.9c0,0.3,0.1,0.5,0.3,0.6
		c0.3,0.2,0.6,0.3,1,0.3h0.1v1h-0.2c-0.8,0-1.3-0.2-1.6-0.8h0c-0.3,0.5-0.9,0.8-1.6,0.8h-0.1c-0.4,0-0.5-0.3-0.5-0.5
		c0-0.2,0.1-0.5,0.5-0.5H67z M67.9,151.2c-0.3-0.3-0.6-0.6-0.9-0.8c0.2-0.3,0.4-0.5,0.6-0.7c0.3,0.3,0.6,0.5,0.9,0.8
		C68.3,150.8,68.1,151,67.9,151.2z M69.4,151.1c-0.3-0.3-0.6-0.6-0.9-0.8c0.2-0.3,0.4-0.5,0.6-0.7c0.3,0.3,0.6,0.5,0.9,0.8
		C69.8,150.7,69.6,150.9,69.4,151.1z"></path>
	<path d="M70.5,147.1c0.7,0,1.2,0,1.5-0.1c0.3-0.1,0.4-0.2,0.4-0.3c0-0.4-0.4-1.1-0.8-1.9c0.2-0.3,0.4-0.6,0.6-0.9h0
		c0.4,0.6,0.8,1.6,0.8,2.4c0,0.6-0.2,1-0.5,1.5c-0.4,0.4-0.9,0.5-2.1,0.5h-0.1c-0.4,0-0.5-0.3-0.5-0.5c0-0.2,0.1-0.5,0.5-0.5H70.5z
		 M72,149.6c0.3,0.2,0.6,0.5,0.9,0.8c-0.2,0.3-0.4,0.5-0.6,0.8c-0.3-0.3-0.6-0.5-0.9-0.8C71.6,150.1,71.8,149.8,72,149.6z"></path>
	<path d="M84.5,148.1c0,0.3,0,0.6-0.1,1c-0.1,0.3-0.3,0.6-0.6,0.9c-0.8,0.7-1.9,1.3-3.3,1.3c-1.5,0-3-1-3-3c0-0.8,0.2-1.6,0.5-2.2
		l0.3,0.1c-0.2,0.5-0.3,0.9-0.3,1.3c0,1.6,1,2.6,2.4,2.6c0.7,0,1.5-0.2,2.5-0.8c0.5-0.4,1-0.7,1-0.9c0-0.1,0-0.2-0.1-0.3h-0.4
		c-1.5,0-2.4-0.5-2.4-1.6c0-0.5,0.2-0.9,0.4-1.3c0.3-0.4,0.7-0.8,1.2-0.8c0.7,0,1.5,1,1.7,2.6h0.7v1H84.5z M81.7,143.5
		c-0.3-0.3-0.6-0.6-0.9-0.8c0.2-0.3,0.4-0.5,0.6-0.7c0.3,0.3,0.6,0.5,0.9,0.8C82.1,143.1,81.9,143.3,81.7,143.5z M83.3,146
		c-0.3-0.3-0.5-0.4-0.8-0.4c-0.4,0-0.9,0.4-0.9,0.7c0,0.4,0.4,0.6,0.9,0.8c0.4,0.1,0.9,0.1,1.4,0.1C83.8,146.7,83.6,146.3,83.3,146z
		 M83.2,143.4c-0.3-0.3-0.6-0.6-0.9-0.8c0.2-0.3,0.4-0.5,0.6-0.7c0.3,0.3,0.6,0.5,0.9,0.8C83.6,143,83.4,143.2,83.2,143.4z"></path>
	<path d="M85.3,147.1c0.6,0,1.2-0.2,1.3-0.7l0.2-0.8l0.5-0.4l0,0.1c-0.1,0.4-0.2,0.7-0.2,0.9c0,0.3,0.1,0.5,0.3,0.6
		c0.3,0.2,0.6,0.3,1,0.3h0.1v1h-0.2c-0.8,0-1.3-0.2-1.6-0.8h0c-0.3,0.5-0.9,0.8-1.6,0.8h-0.1c-0.4,0-0.5-0.3-0.5-0.5
		c0-0.2,0.1-0.5,0.5-0.5H85.3z M86.2,151.2c-0.3-0.3-0.6-0.6-0.9-0.8c0.2-0.3,0.4-0.5,0.6-0.7c0.3,0.3,0.6,0.5,0.9,0.8
		C86.5,150.8,86.4,151,86.2,151.2z M87.7,151.1c-0.3-0.3-0.6-0.6-0.9-0.8c0.2-0.3,0.4-0.5,0.6-0.7c0.3,0.3,0.6,0.5,0.9,0.8
		C88,150.7,87.9,150.9,87.7,151.1z"></path>
	<path d="M89.1,147.1c1.3,0,2.6-0.4,4.2-1.4l0,0c-0.9-0.3-1.7-0.5-2.5-0.5c-0.4,0-0.8,0.1-1,0.4l0.1,0.4l-0.2,0.7h-0.1l-0.4-1
		c0.1-0.9,0.8-1.4,1.7-1.4c0.5,0,1.3,0.2,2.6,0.7c0.4,0.1,0.8,0.2,1.3,0.3l0.6,0l0,0l-0.4,0.8c-0.7,0-1.1,0.1-1.4,0.3l-1.3,0.9
		c-1,0.7-2.2,1-3.4,1h-0.4c-0.4,0-0.5-0.3-0.5-0.5c0-0.2,0.1-0.5,0.5-0.5H89.1z M91.2,150.5c-0.3-0.3-0.6-0.6-0.9-0.8
		c0.2-0.3,0.4-0.5,0.6-0.7c0.3,0.3,0.6,0.5,0.9,0.8C91.5,150.1,91.4,150.3,91.2,150.5z M92.3,152c-0.3-0.3-0.6-0.6-0.9-0.8
		c0.2-0.3,0.4-0.5,0.6-0.7c0.3,0.3,0.6,0.5,0.9,0.8C92.6,151.6,92.5,151.8,92.3,152z M92.7,150.4c-0.3-0.3-0.6-0.6-0.9-0.8
		c0.2-0.3,0.4-0.5,0.6-0.7c0.3,0.3,0.6,0.5,0.9,0.8C93,150,92.9,150.2,92.7,150.4z"></path>
	<path d="M98.8,138.6c-0.1,0.2-0.1,0.4-0.2,0.6c-0.3,0.3-0.7,0.4-1.1,0.4c-0.5,0-1.1-0.1-1.4-0.1c-0.1,0-0.3,0.3-0.4,0.6h-0.1
		l-0.3-0.5c0-0.4,0.2-0.9,0.7-0.9c0.5,0,1.1,0.2,1.7,0.2c0.2,0,0.4,0,0.6-0.1C98.5,138.8,98.6,138.7,98.8,138.6L98.8,138.6z
		 M96.7,148.2c0.1-0.5,0.1-1,0.1-1.6v-0.8c0-1.4-0.2-3.5-0.3-4.9c0.2-0.3,0.5-0.6,0.8-0.8l0.1,0c0.2,1.7,0.2,3.7,0.2,5.5
		c0,0.5,0,0.9-0.1,1.3c0,0.4-0.2,0.8-0.7,1.3L96.7,148.2z"></path>
</g>
</svg>
</svg>