<?xml version="1.0" encoding="UTF-8" standalone="no"?>
<svg
	xmlns="http://www.w3.org/2000/svg"
	xmlns:dc="http://purl.org/dc/elements/1.1/"
	xmlns:cc="http://creativecommons.org/ns#"
	xmlns:rdf="http://www.w3.org/1999/02/22-rdf-syntax-ns#"
	xmlns:svg="http://www.w3.org/2000/svg"
	xmlns:xlink="http://www.w3.org/1999/xlink"
	xmlns:sodipodi="http://sodipodi.sourceforge.net/DTD/sodipodi-0.dtd"
	xmlns:inkscape="http://www.inkscape.org/namespaces/inkscape"
	version="1.1"
	viewBox="0 0 135px 155px">
	<svg xmlns:dc="http://purl.org/dc/elements/1.1/" xmlns:cc="http://creativecommons.org/ns#" xmlns:rdf="http://www.w3.org/1999/02/22-rdf-syntax-ns#" xmlns:svg="http://www.w3.org/2000/svg" xmlns:sodipodi="http://sodipodi.sourceforge.net/DTD/sodipodi-0.dtd" xmlns:inkscape="http://www.inkscape.org/namespaces/inkscape" version="1.1" id="svg3857" inkscape:version="0.46" sodipodi:docname="Wikipedia-logo-v2-sn.svg" x="0px" y="0px" width="135px" height="155px" viewBox="0 0 135 155" enable-background="new 0 0 135 155" xml:space="preserve" sodipodi:version="0.32" inkscape:output_extension="org.inkscape.output.svg.inkscape" xmlns:xlink="http://www.w3.org/1999/xlink" xmlns:svgjs="http://svgjs.com/svgjs"><metadata id="metadata698"><rdf:RDF><cc:Work rdf:about=""><dc:format>image/svg+xml</dc:format><dc:type rdf:resource="http://purl.org/dc/dcmitype/StillImage"></dc:type></cc:Work></rdf:RDF></metadata><defs id="defs3"></defs><sodipodi:namedview id="namedview4848" showgrid="false" pagecolor="#ffffff" objecttolerance="10" guidetolerance="10" inkscape:cy="77.5" inkscape:guide-bbox="true" showguides="true" inkscape:zoom="3.2129032" inkscape:pageopacity="0" gridtolerance="10" inkscape:window-height="723" bordercolor="#666666" inkscape:window-y="24" borderopacity="1" inkscape:pageshadow="2" inkscape:window-x="0" inkscape:window-width="1024" inkscape:cx="67.5" inkscape:current-layer="svg3857" inkscape:window-maximized="0">
	<sodipodi:guide id="globe_top" orientation="0,1" position="0,140"></sodipodi:guide>
	<sodipodi:guide id="globe_left" orientation="1,0" position="16,0"></sodipodi:guide>
	<sodipodi:guide id="globe_right" orientation="1,0" position="119,0"></sodipodi:guide>
	<sodipodi:guide id="globe_bottom" orientation="0,1" position="0,47"></sodipodi:guide>
	<sodipodi:guide id="wordmark_top" orientation="0,1" position="76.481949,39.979201"></sodipodi:guide>
	<sodipodi:guide id="wordmark_bottom" orientation="0,1" position="8,22.5"></sodipodi:guide>
	<sodipodi:guide id="subtitle_top" orientation="0,1" position="0,17"></sodipodi:guide>
	<sodipodi:guide id="subtitle_bottom" orientation="0,1" position="0,8"></sodipodi:guide>
	<sodipodi:guide id="wordmark_left" orientation="1,0" position="8,40"></sodipodi:guide>
	<sodipodi:guide id="wordmark_right" orientation="1,0" position="127,40"></sodipodi:guide>
<sodipodi:guide orientation="0,1" position="107.39062,34.503906" id="guide7132"></sodipodi:guide></sodipodi:namedview><path transform="matrix(7.4778268e-2,0,0,7.4778268e-2,3.823109,133.3181)" d="M 19.113022,169.57432 L 19.113022,100.31032 C 19.113022,95.270326 24.153029,93.254321 31.209022,93.254321 C 62.312991,93.254321 72.537022,118.45434 72.537022,140.63032 C 72.537022,169.71829 55.113002,176.91832 34.809022,176.91832 C 20.697036,176.91832 19.113022,174.18232 19.113022,169.57432 M 12.921022,88.646321 C 5.7210293,88.646321 1.5450149,88.502321 -5.6549779,88.358321 C -6.518977,89.222321 -6.518977,92.246322 -5.6549779,93.110321 C 4.4250121,93.542321 6.8730221,94.262333 6.8730221,106.21432 L 6.8730221,163.95832 C 6.8730221,175.91031 4.4250121,176.63032 -5.6549779,177.06232 C -6.518977,177.92632 -6.518977,180.95032 -5.6549779,181.81432 C 1.4010151,181.67032 5.7210295,181.52632 13.065022,181.52632 C 18.393017,181.52632 24.441037,181.81432 39.273022,181.81432 C 59.577002,181.81432 86.361022,172.59829 86.361022,137.17432 C 86.361022,110.39035 64.328994,88.358321 36.681022,88.358321 C 27.465031,88.358321 18.537017,88.646321 12.921022,88.646321 M 120.82577,182.96632 C 126.44177,182.96632 132.34578,180.08632 139.40177,174.32632 C 139.97777,173.75032 141.12977,173.46232 141.12977,174.47032 C 141.12977,177.92632 142.71377,182.96632 142.71377,182.96632 C 143.72177,183.39832 144.29777,183.39832 145.44977,182.96632 C 148.61777,180.37432 154.08978,178.21432 162.87377,177.20632 C 163.73777,176.34232 163.73777,174.18232 162.87377,173.31832 C 153.65778,172.59832 152.36177,169.86231 152.36177,162.80632 L 152.36177,135.15832 C 152.36177,130.83833 152.93777,120.47032 152.93777,120.47032 C 152.93777,119.89432 152.50577,119.46232 151.78577,119.46232 C 151.06577,119.60632 148.90577,119.75032 146.74577,119.75032 C 142.13778,119.75032 137.38577,119.60632 132.05777,119.46232 C 131.19377,120.32632 131.19377,123.35032 132.05777,124.21432 C 139.11377,124.64632 140.98577,126.37433 140.98577,135.87832 L 140.98577,163.67032 C 140.98577,166.40632 140.69777,167.55832 138.68177,169.28632 C 133.35378,173.89432 128.74577,176.19832 125.14577,176.19832 C 120.82578,176.19832 113.62577,174.18231 113.62577,161.36632 L 113.62577,135.15832 C 113.62577,130.83833 114.20177,120.47032 114.20177,120.47032 C 114.20177,119.89432 113.76977,119.46232 113.04977,119.46232 C 112.32977,119.60632 110.16977,119.75032 108.00977,119.75032 C 103.40178,119.75032 98.649767,119.60632 93.321772,119.46232 C 92.457773,120.32632 92.457773,123.35032 93.321772,124.21432 C 100.23377,124.79032 102.24977,126.37433 102.24977,135.73432 L 102.24977,163.38232 C 102.24977,173.31831 106.56979,182.96632 120.82577,182.96632 M 176.63402,135.87832 L 176.63402,163.95832 C 176.63402,175.91031 174.90601,176.48632 165.97802,177.06232 C 165.11402,177.92632 165.11402,180.95032 165.97802,181.81432 C 172.02602,181.67032 176.63403,181.52632 182.39402,181.52632 C 188.29802,181.52632 193.62603,181.67032 199.81802,181.81432 C 200.68202,180.95032 200.68202,177.92632 199.81802,177.06232 C 189.73803,176.34232 188.01002,175.91031 188.01002,163.95832 L 188.01002,143.94232 C 188.01002,140.19833 189.73802,136.88632 191.46602,134.29432 C 193.05002,131.99032 196.36202,127.23832 198.09002,127.23832 C 199.09802,127.23832 200.25002,127.38232 201.11402,128.24632 C 202.55402,129.68632 203.99403,132.42232 207.01802,132.42232 C 210.47402,132.42232 213.78602,128.82232 213.78602,125.22232 C 213.78602,122.48632 211.19402,118.31032 205.14602,118.31032 C 198.37803,118.31032 192.47402,124.64633 189.16202,130.26232 C 188.29802,131.84632 187.86602,131.12632 187.86602,130.40632 C 187.86602,125.79833 188.58602,118.88632 188.58602,118.88632 C 188.58602,118.31032 187.86602,117.87832 186.71402,117.87832 C 182.68203,119.46232 176.92201,120.75832 166.98602,122.05432 C 166.69802,122.91832 166.69802,125.22232 167.27402,126.08632 C 175.05001,126.80632 176.63402,127.95833 176.63402,135.87832 M 254.86352,147.97432 L 254.86352,167.12632 C 254.86352,168.99832 253.99952,170.00632 252.84752,170.87032 C 249.10353,173.89432 244.20752,177.06232 240.17552,177.06232 C 232.97553,177.06232 229.80752,171.30232 229.80752,166.83832 C 229.80752,160.35833 232.83153,153.87832 243.48752,150.99832 L 254.86352,147.97432 M 254.86352,174.61432 C 255.72752,177.63832 258.17553,182.96632 265.95152,182.96632 C 273.00752,182.96632 278.19152,177.20632 278.19152,176.48632 C 278.19152,175.47832 276.89552,174.03832 276.31952,174.03832 C 275.45552,174.03832 274.87952,176.34232 271.85552,176.34232 C 266.23953,176.34232 266.09552,170.72631 266.09552,164.10232 L 266.09552,142.64632 C 266.09552,122.19834 254.86351,118.31032 244.35152,118.31032 C 232.54353,118.31032 220.59152,126.51833 220.59152,134.29432 C 220.59152,137.75032 222.31953,139.33432 225.63152,139.33432 C 229.80752,139.33432 231.96752,136.45432 231.96752,134.58232 C 231.96752,133.57432 231.82352,132.56632 231.53552,131.99032 C 231.39152,131.55832 231.24752,130.69432 231.24752,129.11032 C 231.24752,124.64633 237.72753,123.06232 243.19952,123.06232 C 248.09552,123.06232 254.86352,125.51034 254.86352,141.78232 C 254.86352,142.79032 254.43152,143.36632 253.99952,143.51032 L 241.61552,146.53432 C 227.79154,149.99032 217.85552,157.62233 217.85552,167.41432 C 217.85552,178.79031 225.91953,182.96632 235.99952,182.96632 C 242.62352,182.96632 245.35953,181.81432 251.69552,176.91832 L 254.57552,174.61432 L 254.86352,174.61432 M 315.88402,135.87832 L 315.88402,163.95832 C 315.88402,175.91031 314.15601,176.48632 305.22802,177.06232 C 304.36402,177.92632 304.36402,180.95032 305.22802,181.81432 C 311.27602,181.67032 315.88403,181.52632 321.64402,181.52632 C 327.54802,181.52632 332.87603,181.67032 339.06802,181.81432 C 339.93202,180.95032 339.93202,177.92632 339.06802,177.06232 C 328.98803,176.34232 327.26002,175.91031 327.26002,163.95832 L 327.26002,143.94232 C 327.26002,140.19833 328.98802,136.88632 330.71602,134.29432 C 332.30002,131.99032 335.61202,127.23832 337.34002,127.23832 C 338.34802,127.23832 339.50002,127.38232 340.36402,128.24632 C 341.80402,129.68632 343.24403,132.42232 346.26802,132.42232 C 349.72402,132.42232 353.03602,128.82232 353.03602,125.22232 C 353.03602,122.48632 350.44402,118.31032 344.39602,118.31032 C 337.62803,118.31032 331.72402,124.64633 328.41202,130.26232 C 327.54802,131.84632 327.11602,131.12632 327.11602,130.40632 C 327.11602,125.79833 327.83602,118.88632 327.83602,118.88632 C 327.83602,118.31032 327.11602,117.87832 325.96402,117.87832 C 321.93203,119.46232 316.17201,120.75832 306.23602,122.05432 C 305.94802,122.91832 305.94802,125.22232 306.52402,126.08632 C 314.30001,126.80632 315.88402,127.95833 315.88402,135.87832 M 368.65252,140.91832 C 371.38852,124.64634 381.46853,123.35032 384.92452,123.35032 C 390.39652,123.35032 396.87652,126.37433 396.87652,138.47032 C 396.87652,139.76632 396.30052,140.48632 394.71652,140.48632 L 368.65252,140.91832 M 406.38052,168.13432 C 401.05253,173.60632 396.87651,175.91032 388.52452,175.91032 C 383.34053,175.91032 377.29252,172.88631 372.82852,165.54232 C 369.94853,160.79033 368.22052,154.16631 368.22052,145.81432 L 406.52452,146.10232 C 408.25252,146.10232 409.26052,145.23832 409.26052,143.65432 C 409.26052,131.55833 404.9405,118.59832 384.92452,118.59832 C 372.39653,118.59832 356.12452,130.55034 356.12452,152.43832 C 356.12452,160.50231 358.14053,168.27833 362.89252,173.75032 C 367.78852,179.51032 374.55653,182.96632 384.92452,182.96632 C 395.86851,182.96632 403.64453,177.92631 409.40452,170.43832 C 408.97252,168.99832 408.10852,168.27832 406.38052,168.13432 M 451.37077,92.534321 C 460.15476,92.534321 470.52277,95.702338 470.52277,112.69432 C 470.52277,130.6943 460.29876,134.72632 446.33077,134.72632 L 439.41877,134.72632 L 439.41877,101.75032 C 439.41877,97.574326 441.14678,92.534321 451.37077,92.534321 M 439.41877,163.95832 L 439.41877,139.62232 C 451.51476,139.62232 454.10677,141.78232 456.26677,145.09432 L 471.67477,170.15032 C 475.70677,176.91831 482.04278,182.96632 490.68277,182.96632 C 492.84277,182.96632 495.29077,182.67832 496.73077,181.95832 C 497.16277,181.09432 497.16277,179.65432 496.58677,178.50232 C 490.10678,178.50232 486.50677,173.75032 482.76277,167.41432 L 464.61877,137.17432 C 470.81077,135.15832 483.77077,127.67031 483.77077,112.55032 C 483.77077,105.35033 481.32277,99.446317 476.13877,94.550321 C 469.22678,88.070328 460.29876,87.638321 451.22677,87.638321 C 447.62678,87.638321 438.69877,88.646321 433.22677,88.646321 C 426.02678,88.646321 421.85076,88.502321 414.65077,88.358321 C 413.78677,89.222321 413.78677,92.246322 414.65077,93.110321 C 424.73076,93.542321 427.17877,94.262333 427.17877,106.21432 L 427.17877,163.95832 C 427.17877,175.91031 424.73076,176.63032 414.65077,177.06232 C 413.78677,177.92632 413.78677,180.95032 414.65077,181.81432 C 421.70677,181.67032 426.02678,181.52632 433.37077,181.52632 C 440.57076,181.52632 444.74678,181.67032 451.94677,181.81432 C 452.81077,180.95032 452.81077,177.92632 451.94677,177.06232 C 441.86678,176.63032 439.41877,175.91031 439.41877,163.95832 M 525.10702,182.96632 C 530.72302,182.96632 536.62703,180.08632 543.68302,174.32632 C 544.25902,173.75032 545.41102,173.46232 545.41102,174.47032 C 545.41102,177.92632 546.99502,182.96632 546.99502,182.96632 C 548.00302,183.39832 548.57902,183.39832 549.73102,182.96632 C 552.89902,180.37432 558.37103,178.21432 567.15502,177.20632 C 568.01902,176.34232 568.01902,174.18232 567.15502,173.31832 C 557.93903,172.59832 556.64302,169.86231 556.64302,162.80632 L 556.64302,135.15832 C 556.64302,130.83833 557.21902,120.47032 557.21902,120.47032 C 557.21902,119.89432 556.78702,119.46232 556.06702,119.46232 C 555.34702,119.60632 553.18702,119.75032 551.02702,119.75032 C 546.41903,119.75032 541.66702,119.60632 536.33902,119.46232 C 535.47502,120.32632 535.47502,123.35032 536.33902,124.21432 C 543.39502,124.64632 545.26702,126.37433 545.26702,135.87832 L 545.26702,163.67032 C 545.26702,166.40632 544.97902,167.55832 542.96302,169.28632 C 537.63503,173.89432 533.02702,176.19832 529.42702,176.19832 C 525.10703,176.19832 517.90702,174.18231 517.90702,161.36632 L 517.90702,135.15832 C 517.90702,130.83833 518.48302,120.47032 518.48302,120.47032 C 518.48302,119.89432 518.05102,119.46232 517.33102,119.46232 C 516.61102,119.60632 514.45102,119.75032 512.29102,119.75032 C 507.68303,119.75032 502.93102,119.60632 497.60302,119.46232 C 496.73902,120.32632 496.73902,123.35032 497.60302,124.21432 C 504.51502,124.79032 506.53102,126.37433 506.53102,135.73432 L 506.53102,163.38232 C 506.53102,173.31831 510.85104,182.96632 525.10702,182.96632 M 575.29927,117.87832 C 574.86727,117.87832 574.43527,118.45432 574.43527,118.74232 C 574.29127,125.22231 573.42727,130.69433 572.27527,137.75032 C 573.42727,138.32632 575.29927,138.61432 577.02727,138.18232 C 579.90727,127.67033 584.37128,124.64632 588.69127,124.64632 L 608.56327,124.64632 L 573.13927,176.91832 C 571.98727,178.64632 571.84327,179.07832 571.84327,179.79832 C 571.84327,180.80632 572.99527,181.52632 575.15527,181.52632 L 620.08327,181.52632 C 620.80327,177.06233 622.24327,170.29431 624.69127,161.94232 C 623.68327,161.51032 622.09927,160.93432 620.37127,160.93432 L 618.49927,165.11032 C 615.04328,172.74231 612.59526,176.63032 604.24327,176.63032 L 585.09127,176.63032 L 619.65127,125.79832 C 622.09927,122.05433 622.81927,120.32632 622.81927,119.75032 C 622.81927,119.17432 622.09927,118.74232 621.09127,118.74232 C 620.37127,118.74232 615.76327,119.75032 611.58727,119.75032 L 582.35527,119.75032 C 577.60328,119.75032 577.74727,118.45432 575.29927,117.87832 M 637.50652,95.270321 C 637.50652,99.014318 640.96253,102.75832 644.41852,102.75832 C 648.45052,102.75832 651.90652,99.014318 651.90652,95.846321 C 651.90652,92.390325 648.88252,88.358321 644.99452,88.358321 C 641.53853,88.358321 637.50652,91.814325 637.50652,95.270321 M 650.61052,163.95832 L 650.61052,135.30232 C 650.61052,128.10233 651.18652,118.88632 651.18652,118.88632 C 651.18652,118.31032 650.46652,117.87832 649.31452,117.87832 C 645.13853,119.46232 639.52251,120.75832 629.58652,122.05432 C 629.29852,122.91832 629.58652,125.22232 629.87452,126.08632 C 637.65051,126.95032 639.23452,127.67033 639.23452,135.87832 L 639.23452,163.95832 C 639.23452,175.91031 637.65051,176.34232 628.86652,177.06232 C 628.00252,177.92632 628.00252,180.95032 628.86652,181.81432 C 634.91452,181.67032 638.65853,181.52632 644.99452,181.52632 C 651.18652,181.52632 654.78653,181.67032 660.97852,181.81432 C 661.84252,180.95032 661.84252,177.92632 660.97852,177.06232 C 652.19453,176.48632 650.61052,175.91031 650.61052,163.95832 M 707.44027,124.21432 C 715.21626,124.79032 715.93627,126.66233 712.91227,133.86232 L 701.39227,162.08632 C 698.94427,167.84632 698.22427,167.70232 696.06427,161.65432 L 685.55227,133.86232 C 683.10427,126.95033 681.08828,125.07832 690.16027,124.21432 C 691.02427,123.35032 691.02427,120.32632 690.16027,119.46232 C 684.83228,119.60632 680.80027,119.75032 674.89627,119.75032 C 669.85628,119.75032 667.55227,119.60632 662.22427,119.46232 C 661.36027,120.32632 661.36027,123.35032 662.22427,124.21432 C 670.43226,125.22232 670.86428,127.52633 673.74427,134.72632 L 692.17627,180.23032 C 693.04027,182.39032 693.90427,183.25432 695.77627,183.25432 C 697.21627,183.25432 698.08027,182.39032 699.23227,179.94232 L 718.38427,134.87032 C 721.12027,128.67833 722.70428,124.93432 730.76827,124.21432 C 731.63227,123.35032 731.63227,120.32632 730.76827,119.46232 C 727.60028,119.60632 725.00827,119.75032 721.26427,119.75032 C 715.93628,119.75032 712.76827,119.60632 707.44027,119.46232 C 706.57627,120.32632 706.57627,123.35032 707.44027,124.21432 M 733.85677,152.00632 C 733.85677,166.69431 743.79279,182.96632 764.09677,182.96632 C 785.55275,182.96632 794.62477,165.11031 794.62477,150.71032 C 794.62477,135.73434 786.70475,118.31032 764.38477,118.31032 C 744.94479,118.31032 733.85677,133.71834 733.85677,152.00632 M 762.80077,123.06232 C 775.18476,123.06232 782.24077,134.15034 782.24077,155.31832 C 782.24077,174.3263 773.45677,178.21432 766.68877,178.21432 C 751.71279,178.21432 746.24077,159.78231 746.24077,148.69432 C 746.24077,136.16633 750.70478,123.06232 762.80077,123.06232 M 862.68327,92.534321 C 871.46726,92.534321 881.83527,95.702338 881.83527,112.69432 C 881.83527,130.6943 871.61126,134.72632 857.64327,134.72632 L 850.73127,134.72632 L 850.73127,101.75032 C 850.73127,97.574326 852.45928,92.534321 862.68327,92.534321 M 850.73127,163.95832 L 850.73127,139.62232 C 862.82726,139.62232 865.41927,141.78232 867.57927,145.09432 L 882.98727,170.15032 C 887.01927,176.91831 893.35528,182.96632 901.99527,182.96632 C 904.15527,182.96632 906.60327,182.67832 908.04327,181.95832 C 908.47527,181.09432 908.47527,179.65432 907.89927,178.50232 C 901.41928,178.50232 897.81927,173.75032 894.07527,167.41432 L 875.93127,137.17432 C 882.12327,135.15832 895.08327,127.67031 895.08327,112.55032 C 895.08327,105.35033 892.63527,99.446317 887.45127,94.550321 C 880.53928,88.070328 871.61126,87.638321 862.53927,87.638321 C 858.93928,87.638321 850.01127,88.646321 844.53927,88.646321 C 837.33928,88.646321 833.16326,88.502321 825.96327,88.358321 C 825.09927,89.222321 825.09927,92.246322 825.96327,93.110321 C 836.04326,93.542321 838.49127,94.262333 838.49127,106.21432 L 838.49127,163.95832 C 838.49127,175.91031 836.04326,176.63032 825.96327,177.06232 C 825.09927,177.92632 825.09927,180.95032 825.96327,181.81432 C 833.01927,181.67032 837.33928,181.52632 844.68327,181.52632 C 851.88326,181.52632 856.05928,181.67032 863.25927,181.81432 C 864.12327,180.95032 864.12327,177.92632 863.25927,177.06232 C 853.17928,176.63032 850.73127,175.91031 850.73127,163.95832 M 947.36352,147.97432 L 947.36352,167.12632 C 947.36352,168.99832 946.49952,170.00632 945.34752,170.87032 C 941.60353,173.89432 936.70752,177.06232 932.67552,177.06232 C 925.47553,177.06232 922.30752,171.30232 922.30752,166.83832 C 922.30752,160.35833 925.33153,153.87832 935.98752,150.99832 L 947.36352,147.97432 M 947.36352,174.61432 C 948.22752,177.63832 950.67553,182.96632 958.45152,182.96632 C 965.50752,182.96632 970.69152,177.20632 970.69152,176.48632 C 970.69152,175.47832 969.39552,174.03832 968.81952,174.03832 C 967.95552,174.03832 967.37952,176.34232 964.35552,176.34232 C 958.73953,176.34232 958.59552,170.72631 958.59552,164.10232 L 958.59552,142.64632 C 958.59552,122.19834 947.36351,118.31032 936.85152,118.31032 C 925.04353,118.31032 913.09152,126.51833 913.09152,134.29432 C 913.09152,137.75032 914.81953,139.33432 918.13152,139.33432 C 922.30752,139.33432 924.46752,136.45432 924.46752,134.58232 C 924.46752,133.57432 924.32352,132.56632 924.03552,131.99032 C 923.89152,131.55832 923.74752,130.69432 923.74752,129.11032 C 923.74752,124.64633 930.22753,123.06232 935.69952,123.06232 C 940.59552,123.06232 947.36352,125.51034 947.36352,141.78232 C 947.36352,142.79032 946.93152,143.36632 946.49952,143.51032 L 934.11552,146.53432 C 920.29154,149.99032 910.35552,157.62233 910.35552,167.41432 C 910.35552,178.79031 918.41953,182.96632 928.49952,182.96632 C 935.12352,182.96632 937.85953,181.81432 944.19552,176.91832 L 947.07552,174.61432 L 947.36352,174.61432 M 980.36802,163.95832 C 980.36802,175.91031 978.78401,176.48632 970.72002,177.06232 C 969.85602,177.92632 969.85602,180.95032 970.72002,181.81432 C 976.76802,181.67032 980.08003,181.52632 986.12802,181.52632 C 991.16802,181.52632 993.04003,181.67032 999.23202,181.81432 C 1000.096,180.95032 1000.096,177.92632 999.23202,177.06232 C 993.32803,176.48632 991.74402,175.91031 991.74402,163.95832 L 991.74402,150.99832 C 995.05602,151.14232 997.07203,152.15033 999.95202,156.18232 L 1010.464,171.01432 C 1013.344,175.19032 1013.776,176.91832 1013.776,178.79032 L 1013.776,181.09432 C 1013.776,181.52632 1013.92,181.81432 1014.352,181.81432 C 1017.232,181.67032 1019.968,181.52632 1024.288,181.52632 C 1028.752,181.52632 1031.776,181.67032 1036.096,181.81432 C 1036.96,180.95032 1036.96,177.92632 1036.096,177.06232 C 1031.2,176.48632 1026.88,175.91032 1023.712,171.01432 L 1006.864,146.10232 C 1006.432,145.52632 1006.144,144.80632 1006.144,144.08632 C 1006.144,143.51032 1006.288,143.07832 1006.72,142.64632 L 1017.664,130.55032 C 1021.84,126.23033 1026.304,124.50232 1033.504,124.21432 C 1034.368,123.35032 1034.368,120.32632 1033.504,119.46232 C 1028.176,119.60632 1026.16,119.75032 1020.976,119.75032 C 1015.504,119.75032 1013.056,119.60632 1007.728,119.46232 C 1006.864,120.32632 1006.864,123.35032 1007.728,124.21432 C 1016.368,124.64632 1011.76,130.11832 1010.32,131.55832 C 1002.688,139.91031 995.48802,146.24632 991.74402,147.39832 L 991.74402,97.574321 C 991.74402,88.214331 992.32002,82.454321 992.32002,82.454321 C 992.32002,81.446322 991.74402,81.014321 990.44802,81.014321 C 986.84803,82.45432 976.04802,84.470322 970.28802,84.902321 C 970.00002,86.05432 970.28802,88.358322 971.15202,89.222321 C 978.64001,89.654321 980.36802,88.934334 980.36802,101.03032 L 980.36802,163.95832 M 1075.801,147.97432 L 1075.801,167.12632 C 1075.801,168.99832 1074.937,170.00632 1073.785,170.87032 C 1070.041,173.89432 1065.145,177.06232 1061.113,177.06232 C 1053.913,177.06232 1050.745,171.30232 1050.745,166.83832 C 1050.745,160.35833 1053.769,153.87832 1064.425,150.99832 L 1075.801,147.97432 M 1075.801,174.61432 C 1076.665,177.63832 1079.113,182.96632 1086.889,182.96632 C 1093.945,182.96632 1099.129,177.20632 1099.129,176.48632 C 1099.129,175.47832 1097.833,174.03832 1097.257,174.03832 C 1096.393,174.03832 1095.817,176.34232 1092.793,176.34232 C 1087.177,176.34232 1087.033,170.72631 1087.033,164.10232 L 1087.033,142.64632 C 1087.033,122.19834 1075.801,118.31032 1065.289,118.31032 C 1053.481,118.31032 1041.529,126.51833 1041.529,134.29432 C 1041.529,137.75032 1043.257,139.33432 1046.569,139.33432 C 1050.745,139.33432 1052.905,136.45432 1052.905,134.58232 C 1052.905,133.57432 1052.761,132.56632 1052.473,131.99032 C 1052.329,131.55832 1052.185,130.69432 1052.185,129.11032 C 1052.185,124.64633 1058.665,123.06232 1064.137,123.06232 C 1069.033,123.06232 1075.801,125.51034 1075.801,141.78232 C 1075.801,142.79032 1075.369,143.36632 1074.937,143.51032 L 1062.553,146.53432 C 1048.729,149.99032 1038.793,157.62233 1038.793,167.41432 C 1038.793,178.79031 1046.857,182.96632 1056.937,182.96632 C 1063.561,182.96632 1066.297,181.81432 1072.633,176.91832 L 1075.513,174.61432 L 1075.801,174.61432 M 1103.3335,161.65432 C 1103.9095,168.71031 1104.3415,175.47833 1104.3415,181.52632 C 1105.7815,181.23832 1107.2215,181.09432 1107.9415,181.09432 C 1108.9495,181.09432 1109.8135,181.09432 1110.8215,181.38232 C 1114.7095,182.39032 1118.5975,182.96632 1123.9255,182.96632 C 1131.9895,182.96632 1146.8215,179.07831 1146.8215,164.82232 C 1146.8215,155.03033 1139.6215,149.41432 1129.9735,145.67032 C 1121.3335,142.35832 1115.5735,140.19831 1115.5735,132.27832 C 1115.5735,126.37433 1120.7575,123.06232 1125.6535,123.06232 C 1128.8215,123.06232 1137.1735,124.21433 1139.0455,136.45432 C 1139.9095,137.31832 1142.7895,137.17432 1143.6535,136.31032 C 1143.6535,131.12633 1144.3735,125.79832 1144.5175,121.04632 C 1140.0535,120.32632 1133.1415,118.31032 1125.6535,118.31032 C 1114.9975,118.31032 1105.3495,125.22233 1105.3495,134.43832 C 1105.3495,144.95031 1110.1015,149.41433 1121.1895,154.02232 C 1132.9975,159.06232 1135.8775,161.94233 1135.8775,168.13432 C 1135.8775,175.19031 1128.9655,178.21432 1123.6375,178.21432 C 1118.0215,178.21432 1114.8535,176.34232 1113.4135,174.75832 C 1109.9575,171.44632 1108.6615,165.11032 1107.7975,161.51032 C 1106.9335,160.64632 1104.1975,160.79032 1103.3335,161.65432 M 1179.7945,182.96632 C 1185.4105,182.96632 1191.3145,180.08632 1198.3705,174.32632 C 1198.9465,173.75032 1200.0985,173.46232 1200.0985,174.47032 C 1200.0985,177.92632 1201.6825,182.96632 1201.6825,182.96632 C 1202.6905,183.39832 1203.2665,183.39832 1204.4185,182.96632 C 1207.5865,180.37432 1213.0585,178.21432 1221.8425,177.20632 C 1222.7065,176.34232 1222.7065,174.18232 1221.8425,173.31832 C 1212.6265,172.59832 1211.3305,169.86231 1211.3305,162.80632 L 1211.3305,135.15832 C 1211.3305,130.83833 1211.9065,120.47032 1211.9065,120.47032 C 1211.9065,119.89432 1211.4745,119.46232 1210.7545,119.46232 C 1210.0345,119.60632 1207.8745,119.75032 1205.7145,119.75032 C 1201.1065,119.75032 1196.3545,119.60632 1191.0265,119.46232 C 1190.1625,120.32632 1190.1625,123.35032 1191.0265,124.21432 C 1198.0825,124.64632 1199.9545,126.37433 1199.9545,135.87832 L 1199.9545,163.67032 C 1199.9545,166.40632 1199.6665,167.55832 1197.6505,169.28632 C 1192.3225,173.89432 1187.7145,176.19832 1184.1145,176.19832 C 1179.7945,176.19832 1172.5945,174.18231 1172.5945,161.36632 L 1172.5945,135.15832 C 1172.5945,130.83833 1173.1705,120.47032 1173.1705,120.47032 C 1173.1705,119.89432 1172.7385,119.46232 1172.0185,119.46232 C 1171.2985,119.60632 1169.1385,119.75032 1166.9785,119.75032 C 1162.3705,119.75032 1157.6185,119.60632 1152.2905,119.46232 C 1151.4265,120.32632 1151.4265,123.35032 1152.2905,124.21432 C 1159.2025,124.79032 1161.2185,126.37433 1161.2185,135.73432 L 1161.2185,163.38232 C 1161.2185,173.31831 1165.5385,182.96632 1179.7945,182.96632 M 1247.6988,129.97432 C 1247.2668,130.55032 1246.2588,131.99032 1246.2588,129.97432 C 1246.2588,125.65433 1246.9788,119.03032 1246.9788,119.03032 C 1246.9788,118.31032 1246.4028,117.87832 1245.2508,117.87832 C 1241.2188,119.46232 1235.3148,120.75832 1225.3788,122.05432 C 1225.0908,122.91832 1225.3788,125.22232 1225.6668,126.08632 C 1233.4428,126.80632 1235.0268,127.52633 1235.0268,135.87832 L 1235.0268,163.95832 C 1235.0268,175.76631 1233.5868,176.34232 1224.9468,177.06232 C 1224.0828,177.92632 1224.0828,180.95032 1224.9468,181.81432 C 1230.8508,181.67032 1234.5948,181.52632 1240.7868,181.52632 C 1246.4028,181.52632 1248.9948,181.67032 1255.0428,181.81432 C 1255.9068,180.95032 1255.9068,177.92632 1255.0428,177.06232 C 1247.6988,176.34232 1246.4028,175.76631 1246.4028,163.95832 L 1246.4028,140.34232 C 1246.4028,137.31832 1247.6988,135.59032 1248.8508,134.29432 C 1254.3228,128.96633 1259.9388,125.79832 1265.5548,125.79832 C 1268.4348,125.79832 1271.4588,127.67032 1273.1868,130.98232 C 1274.6268,133.86232 1274.9148,137.75033 1274.9148,142.07032 L 1274.9148,163.95832 C 1274.9148,175.76631 1273.4748,176.34232 1265.9868,177.06232 C 1265.2668,177.92632 1265.2668,180.95032 1265.9868,181.81432 C 1272.0348,181.67032 1274.9148,181.52632 1280.6748,181.52632 C 1286.5788,181.52632 1289.7468,181.67032 1295.9388,181.81432 C 1296.6588,180.95032 1296.6588,177.92632 1295.9388,177.06232 C 1287.8748,176.34232 1286.2908,175.76631 1286.2908,163.95832 L 1286.2908,142.50232 C 1286.2908,134.58233 1285.7148,127.67032 1282.4028,123.20632 C 1279.9548,120.03832 1275.4908,118.31032 1270.4508,118.31032 C 1263.3948,118.31032 1256.4828,120.18233 1247.6988,129.97432 M 1341.2013,141.35032 C 1341.2013,154.74231 1334.4333,157.47832 1329.1053,157.47832 C 1317.0093,157.47832 1315.7133,147.25431 1315.7133,138.03832 C 1315.7133,127.95833 1319.3133,122.77432 1327.2333,122.77432 C 1336.3053,122.77432 1341.2013,129.39833 1341.2013,141.35032 M 1314.2733,182.96632 C 1315.8573,183.39832 1318.1613,183.68632 1320.0333,183.68632 C 1324.4973,183.68632 1328.5293,183.25432 1330.5453,183.25432 C 1337.7453,183.25432 1343.7933,183.39832 1347.9693,185.70232 C 1353.5853,188.87032 1355.3133,190.88633 1355.3133,194.63032 C 1355.3133,204.99831 1340.0493,210.47032 1327.0893,210.47032 C 1321.9053,210.47032 1309.8093,206.29431 1309.8093,196.50232 C 1309.8093,191.60633 1310.0973,188.00632 1314.2733,182.96632 M 1359.2013,125.79832 C 1361.9373,125.79832 1364.5293,123.20632 1364.5293,120.32632 C 1364.5293,117.30232 1361.7933,114.99832 1357.9053,114.99832 C 1354.1613,114.99832 1347.2493,117.44633 1343.5053,122.34232 C 1341.7773,121.19032 1337.0253,118.31032 1328.5293,118.31032 C 1315.7133,118.31032 1303.9053,126.95033 1303.9053,140.19832 C 1303.9053,147.97431 1307.3613,152.43833 1311.3933,156.32632 C 1307.3613,159.78232 1305.0573,165.97433 1305.0573,170.87032 C 1305.0573,176.05432 1307.9373,180.08632 1311.6813,181.95832 C 1303.9053,186.56632 1299.8733,193.19033 1299.8733,199.38232 C 1299.8733,211.91031 1311.6813,215.79832 1322.7693,215.79832 C 1342.2093,215.79832 1363.2333,206.43831 1363.2333,190.88632 C 1363.2333,186.27833 1361.0733,182.67832 1356.8973,179.22232 C 1351.2813,174.61433 1341.2013,174.47032 1335.8733,174.47032 C 1333.2813,174.47032 1329.6813,174.75832 1326.2253,175.19032 C 1324.0653,175.33432 1322.6253,175.47832 1321.9053,175.47832 C 1317.7293,175.47832 1312.6893,173.46232 1312.6893,167.27032 C 1312.6893,164.39032 1313.5533,161.36632 1315.2813,158.91832 C 1318.7373,160.93432 1322.7693,161.94232 1328.3853,161.94232 C 1341.0573,161.94232 1352.7213,154.02231 1352.7213,139.91032 C 1352.7213,133.14233 1350.7053,129.25432 1346.5293,124.93432 C 1347.5373,123.49432 1350.4173,121.47832 1352.2893,121.47832 C 1353.2973,121.47832 1354.3053,121.91032 1355.1693,123.20632 C 1355.7453,124.35832 1357.6173,125.79832 1359.2013,125.79832 M 1395.5133,182.96632 C 1401.1293,182.96632 1407.0333,180.08632 1414.0893,174.32632 C 1414.6653,173.75032 1415.8173,173.46232 1415.8173,174.47032 C 1415.8173,177.92632 1417.4013,182.96632 1417.4013,182.96632 C 1418.4093,183.39832 1418.9853,183.39832 1420.1373,182.96632 C 1423.3053,180.37432 1428.7773,178.21432 1437.5613,177.20632 C 1438.4253,176.34232 1438.4253,174.18232 1437.5613,173.31832 C 1428.3453,172.59832 1427.0493,169.86231 1427.0493,162.80632 L 1427.0493,135.15832 C 1427.0493,130.83833 1427.6253,120.47032 1427.6253,120.47032 C 1427.6253,119.89432 1427.1933,119.46232 1426.4733,119.46232 C 1425.7533,119.60632 1423.5933,119.75032 1421.4333,119.75032 C 1416.8253,119.75032 1412.0733,119.60632 1406.7453,119.46232 C 1405.8813,120.32632 1405.8813,123.35032 1406.7453,124.21432 C 1413.8013,124.64632 1415.6733,126.37433 1415.6733,135.87832 L 1415.6733,163.67032 C 1415.6733,166.40632 1415.3853,167.55832 1413.3693,169.28632 C 1408.0413,173.89432 1403.4333,176.19832 1399.8333,176.19832 C 1395.5133,176.19832 1388.3133,174.18231 1388.3133,161.36632 L 1388.3133,135.15832 C 1388.3133,130.83833 1388.8893,120.47032 1388.8893,120.47032 C 1388.8893,119.89432 1388.4573,119.46232 1387.7373,119.46232 C 1387.0173,119.60632 1384.8573,119.75032 1382.6973,119.75032 C 1378.0893,119.75032 1373.3373,119.60632 1368.0093,119.46232 C 1367.1453,120.32632 1367.1453,123.35032 1368.0093,124.21432 C 1374.9213,124.79032 1376.9373,126.37433 1376.9373,135.73432 L 1376.9373,163.38232 C 1376.9373,173.31831 1381.2573,182.96632 1395.5133,182.96632 M 1463.4175,129.97432 C 1462.9855,130.55032 1461.9775,131.99032 1461.9775,129.97432 C 1461.9775,125.65433 1462.6975,119.03032 1462.6975,119.03032 C 1462.6975,118.31032 1462.1215,117.87832 1460.9695,117.87832 C 1456.9375,119.46232 1451.0335,120.75832 1441.0975,122.05432 C 1440.8095,122.91832 1441.0975,125.22232 1441.3855,126.08632 C 1449.1615,126.80632 1450.7455,127.52633 1450.7455,135.87832 L 1450.7455,163.95832 C 1450.7455,175.76631 1449.3055,176.34232 1440.6655,177.06232 C 1439.8015,177.92632 1439.8015,180.95032 1440.6655,181.81432 C 1446.5695,181.67032 1450.3135,181.52632 1456.5055,181.52632 C 1462.1215,181.52632 1464.7135,181.67032 1470.7615,181.81432 C 1471.6255,180.95032 1471.6255,177.92632 1470.7615,177.06232 C 1463.4175,176.34232 1462.1215,175.76631 1462.1215,163.95832 L 1462.1215,140.34232 C 1462.1215,137.31832 1463.4175,135.59032 1464.5695,134.29432 C 1470.0415,128.96633 1475.6575,125.79832 1481.2735,125.79832 C 1484.1535,125.79832 1487.1775,127.67032 1488.9055,130.98232 C 1490.3455,133.86232 1490.6335,137.75033 1490.6335,142.07032 L 1490.6335,163.95832 C 1490.6335,175.76631 1489.1935,176.34232 1481.7055,177.06232 C 1480.9855,177.92632 1480.9855,180.95032 1481.7055,181.81432 C 1487.7535,181.67032 1490.6335,181.52632 1496.3935,181.52632 C 1502.2975,181.52632 1505.4655,181.67032 1511.6575,181.81432 C 1512.3775,180.95032 1512.3775,177.92632 1511.6575,177.06232 C 1503.5935,176.34232 1502.0095,175.76631 1502.0095,163.95832 L 1502.0095,142.50232 C 1502.0095,134.58233 1501.4335,127.67032 1498.1215,123.20632 C 1495.6735,120.03832 1491.2095,118.31032 1486.1695,118.31032 C 1479.1135,118.31032 1472.2015,120.18233 1463.4175,129.97432 M 1542.232,182.96632 C 1547.848,182.96632 1553.752,180.08632 1560.808,174.32632 C 1561.384,173.75032 1562.536,173.46232 1562.536,174.47032 C 1562.536,177.92632 1564.12,182.96632 1564.12,182.96632 C 1565.128,183.39832 1565.704,183.39832 1566.856,182.96632 C 1570.024,180.37432 1575.496,178.21432 1584.28,177.20632 C 1585.144,176.34232 1585.144,174.18232 1584.28,173.31832 C 1575.064,172.59832 1573.768,169.86231 1573.768,162.80632 L 1573.768,135.15832 C 1573.768,130.83833 1574.344,120.47032 1574.344,120.47032 C 1574.344,119.89432 1573.912,119.46232 1573.192,119.46232 C 1572.472,119.60632 1570.312,119.75032 1568.152,119.75032 C 1563.544,119.75032 1558.792,119.60632 1553.464,119.46232 C 1552.6,120.32632 1552.6,123.35032 1553.464,124.21432 C 1560.52,124.64632 1562.392,126.37433 1562.392,135.87832 L 1562.392,163.67032 C 1562.392,166.40632 1562.104,167.55832 1560.088,169.28632 C 1554.76,173.89432 1550.152,176.19832 1546.552,176.19832 C 1542.232,176.19832 1535.032,174.18231 1535.032,161.36632 L 1535.032,135.15832 C 1535.032,130.83833 1535.608,120.47032 1535.608,120.47032 C 1535.608,119.89432 1535.176,119.46232 1534.456,119.46232 C 1533.736,119.60632 1531.576,119.75032 1529.416,119.75032 C 1524.808,119.75032 1520.056,119.60632 1514.728,119.46232 C 1513.864,120.32632 1513.864,123.35032 1514.728,124.21432 C 1521.64,124.79032 1523.656,126.37433 1523.656,135.73432 L 1523.656,163.38232 C 1523.656,173.31831 1527.976,182.96632 1542.232,182.96632 M 1596.0243,163.95832 C 1596.0243,175.91031 1594.4403,176.48632 1586.3763,177.06232 C 1585.5123,177.92632 1585.5123,180.95032 1586.3763,181.81432 C 1592.4243,181.67032 1595.7363,181.52632 1601.7843,181.52632 C 1606.8243,181.52632 1608.6963,181.67032 1614.8883,181.81432 C 1615.7523,180.95032 1615.7523,177.92632 1614.8883,177.06232 C 1608.9843,176.48632 1607.4003,175.91031 1607.4003,163.95832 L 1607.4003,150.99832 C 1610.7123,151.14232 1612.7283,152.15033 1615.6083,156.18232 L 1626.1203,171.01432 C 1629.0003,175.19032 1629.4323,176.91832 1629.4323,178.79032 L 1629.4323,181.09432 C 1629.4323,181.52632 1629.5763,181.81432 1630.0083,181.81432 C 1632.8883,181.67032 1635.6243,181.52632 1639.9443,181.52632 C 1644.4083,181.52632 1647.4323,181.67032 1651.7523,181.81432 C 1652.6163,180.95032 1652.6163,177.92632 1651.7523,177.06232 C 1646.8563,176.48632 1642.5363,175.91032 1639.3683,171.01432 L 1622.5203,146.10232 C 1622.0883,145.52632 1621.8003,144.80632 1621.8003,144.08632 C 1621.8003,143.51032 1621.9443,143.07832 1622.3763,142.64632 L 1633.3203,130.55032 C 1637.4963,126.23033 1641.9603,124.50232 1649.1603,124.21432 C 1650.0243,123.35032 1650.0243,120.32632 1649.1603,119.46232 C 1643.8323,119.60632 1641.8163,119.75032 1636.6323,119.75032 C 1631.1603,119.75032 1628.7123,119.60632 1623.3843,119.46232 C 1622.5203,120.32632 1622.5203,123.35032 1623.3843,124.21432 C 1632.0243,124.64632 1627.4163,130.11832 1625.9763,131.55832 C 1618.3443,139.91031 1611.1443,146.24632 1607.4003,147.39832 L 1607.4003,97.574321 C 1607.4003,88.214331 1607.9763,82.454321 1607.9763,82.454321 C 1607.9763,81.446322 1607.4003,81.014321 1606.1043,81.014321 C 1602.5043,82.45432 1591.7043,84.470322 1585.9443,84.902321 C 1585.6563,86.05432 1585.9443,88.358322 1586.8083,89.222321 C 1594.2963,89.654321 1596.0243,88.934334 1596.0243,101.03032 L 1596.0243,163.95832 M 1691.4573,147.97432 L 1691.4573,167.12632 C 1691.4573,168.99832 1690.5933,170.00632 1689.4413,170.87032 C 1685.6973,173.89432 1680.8013,177.06232 1676.7693,177.06232 C 1669.5693,177.06232 1666.4013,171.30232 1666.4013,166.83832 C 1666.4013,160.35833 1669.4253,153.87832 1680.0813,150.99832 L 1691.4573,147.97432 M 1691.4573,174.61432 C 1692.3213,177.63832 1694.7693,182.96632 1702.5453,182.96632 C 1709.6013,182.96632 1714.7853,177.20632 1714.7853,176.48632 C 1714.7853,175.47832 1713.4893,174.03832 1712.9133,174.03832 C 1712.0493,174.03832 1711.4733,176.34232 1708.4493,176.34232 C 1702.8333,176.34232 1702.6893,170.72631 1702.6893,164.10232 L 1702.6893,142.64632 C 1702.6893,122.19834 1691.4573,118.31032 1680.9453,118.31032 C 1669.1373,118.31032 1657.1853,126.51833 1657.1853,134.29432 C 1657.1853,137.75032 1658.9133,139.33432 1662.2253,139.33432 C 1666.4013,139.33432 1668.5613,136.45432 1668.5613,134.58232 C 1668.5613,133.57432 1668.4173,132.56632 1668.1293,131.99032 C 1667.9853,131.55832 1667.8413,130.69432 1667.8413,129.11032 C 1667.8413,124.64633 1674.3213,123.06232 1679.7933,123.06232 C 1684.6893,123.06232 1691.4573,125.51034 1691.4573,141.78232 C 1691.4573,142.79032 1691.0253,143.36632 1690.5933,143.51032 L 1678.2093,146.53432 C 1664.3853,149.99032 1654.4493,157.62233 1654.4493,167.41432 C 1654.4493,178.79031 1662.5133,182.96632 1672.5933,182.96632 C 1679.2173,182.96632 1681.9533,181.81432 1688.2893,176.91832 L 1691.1693,174.61432 L 1691.4573,174.61432" id="tagline" style="font-size:144px;font-style:normal;font-variant:normal;font-weight:normal;font-stretch:normal;letter-spacing:-3;word-spacing:-7;fill:#000000;fill-opacity:1;stroke:none;stroke-width:1px;stroke-linecap:butt;stroke-linejoin:miter;stroke-opacity:1;font-family:Linux Libertine O;-inkscape-font-specification:Linux Libertine O"></path><g id="Wikipedia"><path transform="translate(-4.859,0)" id="path3898" d="M 18.757,118.893 C 18.757,118.893 18.39,118.147 18.265,117.899 C 17.431,116.247 17.449,116.159 16.606,116.047 C 16.37,116.016 16.248,115.986 16.248,115.869 L 16.248,115.346 L 16.319,115.295 C 17.842,115.293 21.231,115.293 21.231,115.293 L 21.361,115.336 L 21.361,115.857 C 21.361,115.976 21.276,116.037 21.103,116.037 L 20.747,116.088 C 19.847,116.158 19.994,116.526 20.592,117.717 L 26.269,129.332 L 26.463,129.385 L 31.503,117.424 C 31.678,116.942 31.651,116.6 31.426,116.399 C 31.2,116.204 31.041,116.087 30.457,116.063 L 29.984,116.04 C 29.926,116.04 29.871,116.019 29.818,115.979 C 29.766,115.942 29.739,115.893 29.739,115.834 L 29.739,115.336 L 29.811,115.285 C 31.231,115.285 35.505,115.285 35.505,115.285 L 35.563,115.336 L 35.563,115.834 C 35.563,115.969 35.486,116.037 35.334,116.037 C 34.588,116.07 34.035,116.232 33.677,116.521 C 33.318,116.812 33.038,117.212 32.837,117.734 C 32.837,117.734 28.202,128.342 26.616,131.869 C 26.009,133.025 25.412,132.919 24.887,131.836 C 23.778,129.552 20.655,122.623 20.655,122.623 L 18.757,118.893 z"></path><path transform="translate(-4.859,0)" id="path3900" d="M 27.853,115.287 C 27.853,115.287 24.65,115.277 23.224,115.287 L 23.153,115.338 L 23.153,115.834 C 23.153,115.895 23.179,115.943 23.231,115.98 C 23.284,116.019 23.338,116.039 23.396,116.039 L 23.625,116.064 C 24.208,116.087 24.476,116.241 24.556,116.336 C 24.695,116.506 24.764,116.69 24.427,117.425 L 18.447,129.353 L 18.29,129.312 C 18.29,129.312 14.007,120.281 12.767,117.259 C 12.638,116.947 12.58,116.714 12.58,116.571 C 12.58,116.264 12.857,116.098 13.411,116.075 L 14.057,116.048 C 14.228,116.048 14.315,115.982 14.315,115.845 L 14.315,115.349 L 14.257,115.298 C 14.257,115.298 9.127,115.292 8.067,115.298 L 8.009,115.349 L 8.009,115.87 C 8.009,115.964 8.128,116.022 8.367,116.048 C 9.018,116.083 9.446,116.187 9.652,116.36 C 9.857,116.535 10.074,116.977 10.362,117.666 C 11.919,121.406 15.227,128.08 16.838,131.881 C 17.302,132.919 17.885,133.08 18.593,131.849 C 19.819,129.576 23.143,122.631 23.143,122.631 L 25.761,117.735 C 26.066,117.217 26.36,116.756 26.509,116.542 C 26.782,116.149 26.935,116.075 27.681,116.04 C 27.833,116.04 27.91,115.972 27.91,115.835 L 27.91,115.339 L 27.853,115.287 z"></path><path transform="translate(-5.869,-2.4414063e-6)" id="path3904" d="M 37.592,130.77 C 37.592,131.342 37.852,131.68 38.684,131.758 L 39.23,131.811 C 39.308,131.811 39.386,131.862 39.386,131.966 L 39.386,132.512 L 39.36,132.565 C 39.36,132.565 37.384,132.512 36.578,132.512 C 35.85,132.512 33.822,132.565 33.822,132.565 L 33.77,132.512 L 33.77,131.966 C 33.77,131.862 33.848,131.811 33.952,131.811 L 34.472,131.758 C 35.33,131.68 35.59,131.264 35.59,130.77 L 35.59,122.112 C 35.59,121.542 35.277,121.383 34.472,121.307 L 33.952,121.253 C 33.848,121.253 33.77,121.229 33.77,121.149 L 33.77,120.55 L 33.796,120.498 C 33.796,120.498 35.85,120.55 36.656,120.55 C 37.358,120.55 39.36,120.498 39.36,120.498 L 39.386,120.55 L 39.386,121.122 C 39.386,121.2 39.334,121.252 39.23,121.252 L 38.684,121.305 C 37.878,121.382 37.592,121.591 37.592,122.112 L 37.592,130.77 z"></path><path transform="translate(-7.282,-2.4414063e-6)" id="path3906" d="M 45.265,130.77 C 45.265,131.342 45.603,131.628 46.357,131.758 L 46.643,131.811 C 46.721,131.836 46.799,131.862 46.799,131.966 L 46.799,132.512 L 46.773,132.565 C 46.773,132.565 45.135,132.512 44.355,132.512 C 43.627,132.512 41.495,132.565 41.495,132.565 L 41.443,132.512 L 41.443,131.966 C 41.443,131.862 41.521,131.811 41.625,131.811 L 42.145,131.758 C 42.925,131.68 43.263,131.264 43.263,130.77 L 43.263,122.112 C 43.263,121.542 42.977,121.383 42.145,121.307 L 41.625,121.253 C 41.521,121.253 41.443,121.229 41.443,121.149 L 41.443,120.55 L 41.469,120.498 C 41.469,120.498 43.601,120.55 44.407,120.55 C 45.136,120.55 46.773,120.498 46.773,120.498 L 46.799,120.55 L 46.799,121.122 C 46.799,121.2 46.747,121.226 46.643,121.252 L 46.357,121.305 C 45.551,121.46 45.265,121.591 45.265,122.112 L 45.265,126.039 C 46.123,126.039 46.617,125.599 47.761,124.375 C 48.801,123.229 49.607,122.271 49.607,121.774 C 49.607,121.565 49.373,121.333 48.853,121.253 C 48.749,121.229 48.697,121.201 48.697,121.123 L 48.697,120.523 L 48.723,120.499 C 48.723,120.499 50.829,120.551 51.583,120.551 C 52.259,120.551 53.403,120.499 53.403,120.499 L 53.481,120.523 L 53.481,121.123 C 53.481,121.201 53.403,121.253 53.273,121.253 C 52.259,121.331 51.557,121.383 50.621,122.449 L 48.385,125.021 C 47.943,125.491 47.787,125.775 47.787,125.984 C 47.787,126.14 47.891,126.269 48.021,126.425 L 51.947,131.157 C 52.259,131.52 52.883,131.677 53.403,131.78 L 53.533,131.805 C 53.611,131.83 53.715,131.882 53.715,131.96 L 53.715,132.506 L 53.637,132.532 C 53.637,132.532 52.259,132.506 51.531,132.506 C 50.881,132.506 49.945,132.532 49.945,132.532 L 49.919,132.506 L 49.919,132.194 C 49.919,131.855 49.893,131.571 49.529,131.155 L 46.643,127.566 C 46.253,127.045 45.837,126.917 45.265,126.917 L 45.265,130.77 L 45.265,130.77 z"></path><path transform="translate(-8.382,-2.4414063e-6)" id="path3908" d="M 59.282,130.77 C 59.282,131.342 59.542,131.68 60.374,131.758 L 60.92,131.811 C 60.998,131.811 61.076,131.862 61.076,131.966 L 61.076,132.512 L 61.05,132.565 C 61.05,132.565 59.074,132.512 58.268,132.512 C 57.54,132.512 55.512,132.565 55.512,132.565 L 55.46,132.512 L 55.46,131.966 C 55.46,131.862 55.538,131.811 55.642,131.811 L 56.162,131.758 C 57.02,131.68 57.28,131.264 57.28,130.77 L 57.28,122.112 C 57.28,121.542 56.968,121.383 56.162,121.307 L 55.642,121.253 C 55.538,121.253 55.46,121.229 55.46,121.149 L 55.46,120.55 L 55.486,120.498 C 55.486,120.498 57.54,120.55 58.346,120.55 C 59.048,120.55 61.05,120.498 61.05,120.498 L 61.076,120.55 L 61.076,121.122 C 61.076,121.2 61.024,121.252 60.92,121.252 L 60.374,121.305 C 59.568,121.382 59.282,121.591 59.282,122.112 L 59.282,130.77 z"></path><path transform="translate(-9.794,-2.4414063e-6)" id="path3910" d="M 64.9,122.163 C 64.9,121.357 64.562,121.331 63.34,121.253 C 63.184,121.253 63.158,121.176 63.158,121.123 L 63.158,120.525 L 63.21,120.499 C 63.6,120.499 65.134,120.551 65.888,120.551 C 66.616,120.551 67.656,120.499 68.618,120.499 C 72.308,120.499 72.984,122.318 72.984,123.672 C 72.984,125.233 72.23,127.676 68.54,127.676 C 67.89,127.676 67.37,127.623 66.901,127.416 L 66.901,130.898 C 66.901,131.469 67.213,131.601 68.046,131.73 L 68.567,131.808 C 68.671,131.833 68.75,131.861 68.75,131.963 L 68.75,132.509 L 68.726,132.562 C 68.726,132.562 66.645,132.509 65.839,132.509 C 65.111,132.509 63.161,132.562 63.161,132.562 L 63.135,132.509 L 63.135,131.963 C 63.135,131.859 63.187,131.833 63.291,131.808 L 63.837,131.73 C 64.643,131.626 64.903,131.392 64.903,130.898 L 64.9,122.163 L 64.9,122.163 L 64.9,122.163 z M 66.902,126.688 C 67.422,126.897 68.072,126.922 68.592,126.922 C 70.153,126.922 70.904,125.984 70.904,123.984 C 70.904,121.748 69.89,121.254 68.462,121.254 C 67.213,121.254 66.901,121.488 66.901,122.164 L 66.902,126.688 L 66.902,126.688 z"></path><path transform="translate(-17.104,2.9975586e-3)" id="path3914" d="M 87.24,131.811 L 87.838,131.758 C 88.619,131.68 88.879,131.446 88.879,130.641 L 88.879,122.061 C 88.879,121.383 88.695,121.383 87.838,121.307 L 87.268,121.253 C 87.164,121.253 87.084,121.201 87.084,121.123 L 87.084,120.551 L 87.109,120.499 C 87.109,120.499 89.398,120.551 89.867,120.551 C 90.359,120.551 92.623,120.499 93.299,120.499 C 97.641,120.499 99.774,123.203 99.774,126.661 C 99.774,131.212 96.549,132.562 93.665,132.562 C 91.585,132.562 90.676,132.509 89.87,132.509 C 89.089,132.509 87.112,132.562 87.112,132.562 L 87.087,132.509 L 87.087,131.963 C 87.084,131.889 87.137,131.811 87.24,131.811 z M 93.039,131.811 C 95.898,131.811 97.512,130.747 97.512,127.104 C 97.512,124.401 96.913,121.253 92.545,121.253 C 91.531,121.253 90.881,121.409 90.881,122.061 L 90.881,130.641 C 90.881,131.367 91.062,131.811 93.039,131.811 z"></path><path transform="translate(-4.459,-2.4414063e-6)" id="path3916" d="M 105.912,130.77 C 105.912,131.342 106.172,131.68 107.004,131.758 L 107.55,131.811 C 107.628,131.811 107.706,131.862 107.706,131.966 L 107.706,132.512 L 107.68,132.565 C 107.68,132.565 105.704,132.512 104.899,132.512 C 104.17,132.512 102.143,132.565 102.143,132.565 L 102.09,132.512 L 102.09,131.966 C 102.09,131.862 102.168,131.811 102.272,131.811 L 102.793,131.758 C 103.65,131.68 103.911,131.264 103.911,130.77 L 103.911,122.112 C 103.911,121.542 103.598,121.383 102.793,121.307 L 102.272,121.253 C 102.168,121.253 102.09,121.229 102.09,121.149 L 102.09,120.55 L 102.116,120.498 C 102.116,120.498 104.17,120.55 104.974,120.55 C 105.675,120.55 107.679,120.498 107.679,120.498 L 107.703,120.55 L 107.703,121.122 C 107.703,121.2 107.649,121.252 107.547,121.252 L 107.001,121.305 C 106.194,121.382 105.909,121.591 105.909,122.112 L 105.912,130.77 L 105.912,130.77 L 105.912,130.77 z"></path><path transform="translate(4.981,-2.4414063e-6)" id="path3918" d="M 113.922,131.758 L 114.676,131.811 C 114.78,131.811 114.884,131.889 114.884,132.018 L 114.884,132.512 L 114.832,132.565 C 114.832,132.565 111.998,132.512 111.374,132.512 C 110.697,132.512 109.033,132.565 109.033,132.565 L 108.98,132.512 L 108.98,132.018 C 108.98,131.889 109.058,131.811 109.189,131.811 C 110.334,131.733 110.982,131.524 111.71,129.86 L 117.481,116.339 C 117.766,115.663 117.975,115.402 118.367,115.402 C 118.729,115.402 118.86,115.663 119.067,116.183 L 124.397,130.275 C 124.762,131.29 125.283,131.679 126.323,131.783 L 126.608,131.808 C 126.739,131.808 126.869,131.885 126.869,132.017 L 126.869,132.509 L 126.791,132.562 C 126.791,132.562 124.789,132.509 123.774,132.509 C 122.864,132.509 120.315,132.562 120.315,132.562 L 120.291,132.509 L 120.291,132.017 C 120.291,131.885 120.343,131.808 120.476,131.808 L 121.204,131.755 C 122.191,131.678 122.557,131.364 122.296,130.638 L 120.71,126.242 L 115.3,126.242 C 114.676,126.242 114.52,126.346 114.391,126.682 L 112.882,130.453 C 112.622,131.107 112.96,131.68 113.922,131.758 z M 120.292,125.152 L 117.77,118.211 L 117.718,118.211 L 115.118,124.815 C 115.014,125.077 115.195,125.153 115.767,125.153 L 120.292,125.153 L 120.292,125.152 z"></path><path transform="matrix(1.0867964,0,0,1.0867964,-2.0798044,-58.47943)" id="path6529" d="M 105.10801,167.07826 C 105.42751,166.5016 105.52103,166.10416 105.38856,165.88595 C 105.26386,165.65997 104.87422,165.5197 104.21963,165.46514 C 104.14169,165.38722 104.10273,165.25474 104.10274,165.0677 C 104.10273,164.87289 104.14169,164.74431 104.21963,164.68196 C 105.40413,164.71314 106.17173,164.72873 106.52242,164.72871 C 106.87308,164.72873 107.3991,164.71314 108.10047,164.68196 C 108.17838,164.74431 108.21735,164.87289 108.21736,165.0677 C 108.21735,165.25474 108.17838,165.38722 108.10047,165.46514 C 107.91343,165.48073 107.74588,165.50801 107.59783,165.54696 C 107.44975,165.57814 107.31338,165.63269 107.1887,165.71061 C 107.0718,165.78855 106.97439,165.85479 106.89647,165.90933 C 106.81853,165.9561 106.73281,166.04571 106.63931,166.17818 C 106.54578,166.31067 106.47955,166.40808 106.44059,166.47041 C 106.40162,166.53277 106.32758,166.65745 106.21849,166.84447 C 106.11718,167.03151 106.04704,167.16399 106.00809,167.24191 L 103.91571,170.9474 L 103.91571,172.81768 C 103.9157,173.77621 104.00922,174.36846 104.19625,174.59445 C 104.39107,174.81265 104.87032,174.94903 105.63403,175.00358 C 105.69637,175.08151 105.72754,175.21788 105.72755,175.4127 C 105.72754,175.59973 105.69637,175.72442 105.63403,175.78676 C 104.26248,175.75559 103.378,175.74 102.98057,175.74 C 102.53637,175.74 101.64409,175.75559 100.30373,175.78676 C 100.2258,175.72442 100.18293,175.59973 100.17515,175.4127 C 100.17514,175.21788 100.218,175.08151 100.30373,175.00358 C 101.06742,174.94123 101.54278,174.80096 101.72982,174.58276 C 101.92463,174.36457 102.02204,173.77621 102.02205,172.81768 L 102.02205,171.05261 L 99.684196,167.21853 C 99.606265,167.09385 99.489373,166.90293 99.333518,166.64575 C 99.185452,166.3886 99.084145,166.22495 99.029597,166.15481 C 98.975046,166.08468 98.877635,165.98727 98.737366,165.86257 C 98.597093,165.7301 98.43734,165.64049 98.258106,165.59372 C 98.086662,165.54697 97.864567,165.50411 97.591818,165.46514 C 97.529475,165.38722 97.498304,165.25474 97.498304,165.0677 C 97.498304,164.87289 97.529475,164.74431 97.591818,164.68196 C 98.776328,164.71314 99.477683,164.72873 99.695885,164.72871 C 100.21021,164.72873 101.05573,164.71314 102.23246,164.68196 C 102.29479,164.74431 102.32596,164.87289 102.32597,165.0677 C 102.33376,165.25474 102.30259,165.38722 102.23246,165.46514 C 101.53889,165.52749 101.17262,165.68335 101.13366,165.93271 C 101.0947,166.18209 101.27004,166.56394 101.65968,167.07826 L 103.43645,170.02395 L 103.48321,170.02395 L 105.10801,167.07826" style="font-size:144px;font-style:normal;font-variant:normal;font-weight:normal;font-stretch:normal;fill:#000000;fill-opacity:1;stroke:none;stroke-width:1px;stroke-linecap:butt;stroke-linejoin:miter;stroke-opacity:1;font-family:Linux Libertine Capitals;-inkscape-font-specification:Linux Libertine Capitals"></path><path transform="translate(-38.359,-2.4414063e-6)" id="path7906" d="M 105.912,130.77 C 105.912,131.342 106.172,131.68 107.004,131.758 L 107.55,131.811 C 107.628,131.811 107.706,131.862 107.706,131.966 L 107.706,132.512 L 107.68,132.565 C 107.68,132.565 105.704,132.512 104.899,132.512 C 104.17,132.512 102.143,132.565 102.143,132.565 L 102.09,132.512 L 102.09,131.966 C 102.09,131.862 102.168,131.811 102.272,131.811 L 102.793,131.758 C 103.65,131.68 103.911,131.264 103.911,130.77 L 103.911,122.112 C 103.911,121.542 103.598,121.383 102.793,121.307 L 102.272,121.253 C 102.168,121.253 102.09,121.229 102.09,121.149 L 102.09,120.55 L 102.116,120.498 C 102.116,120.498 104.17,120.55 104.974,120.55 C 105.675,120.55 107.679,120.498 107.679,120.498 L 107.703,120.55 L 107.703,121.122 C 107.703,121.2 107.649,121.252 107.547,121.252 L 107.001,121.305 C 106.194,121.382 105.909,121.591 105.909,122.112 L 105.912,130.77 L 105.912,130.77 L 105.912,130.77 z"></path><path id="text7908" d="M 102.25505,127.33319 L 102.25505,158.41132 C 102.25498,164.17695 102.81748,167.73945 103.94255,169.09882 C 105.11435,170.41132 107.99716,171.23163 112.59099,171.55975 C 112.96591,172.02851 113.15341,172.84882 113.15349,174.02069 C 113.20028,175.14569 113.01278,175.89569 112.59099,176.27069 C 104.34092,176.08319 99.020609,175.98944 96.630053,175.98944 C 93.958114,175.98944 88.590932,176.08319 80.52849,176.27069 C 80.05969,175.89569 79.825315,175.14569 79.825365,174.02069 C 79.825315,172.84882 80.05969,172.02851 80.52849,171.55975 C 85.122185,171.18476 87.981557,170.34101 89.106615,169.0285 C 90.27843,167.71601 90.864367,164.17695 90.864428,158.41132 L 90.864428,144.41913 L 57.606615,144.41913 L 57.606615,158.41132 C 57.606588,164.17695 58.169087,167.73945 59.294115,169.09882 C 60.46596,170.41132 63.372207,171.23163 68.012865,171.55975 C 68.387827,172.02851 68.575327,172.84882 68.575365,174.02069 C 68.575327,175.14569 68.387827,175.89569 68.012865,176.27069 C 59.762836,176.08319 54.419091,175.98944 51.981615,175.98944 C 49.309721,175.98944 43.942539,176.08319 35.880053,176.27069 C 35.411297,175.89569 35.176923,175.14569 35.176928,174.02069 C 35.176923,172.84882 35.411297,172.02851 35.880053,171.55975 C 40.473792,171.18476 43.333164,170.34101 44.458178,169.0285 C 45.630037,167.71601 46.215974,164.17695 46.21599,158.41132 L 46.21599,127.33319 C 46.215974,121.56762 45.630037,118.02856 44.458178,116.716 C 43.333164,115.35669 40.473792,114.51294 35.880053,114.18475 C 35.411297,113.71607 35.176923,112.91919 35.176928,111.79413 C 35.176923,110.62232 35.411297,109.84888 35.880053,109.47382 C 44.130039,109.66138 49.450346,109.75513 51.84099,109.75507 C 54.512841,109.75513 59.90346,109.66138 68.012865,109.47382 C 68.387827,109.84888 68.575327,110.62232 68.575365,111.79413 C 68.575327,112.91919 68.387827,113.71607 68.012865,114.18475 C 63.419082,114.55981 60.536272,115.40356 59.364428,116.716 C 58.192525,118.02856 57.606588,121.56762 57.606615,127.33319 L 57.606615,139.70819 L 90.864428,139.70819 L 90.864428,127.33319 C 90.864367,121.56762 90.27843,118.02856 89.106615,116.716 C 87.981557,115.35669 85.122185,114.51294 80.52849,114.18475 C 80.05969,113.71607 79.825315,112.91919 79.825365,111.79413 C 79.825315,110.62232 80.05969,109.84888 80.52849,109.47382 C 88.778432,109.66138 94.098739,109.75513 96.489428,109.75507 C 99.161234,109.75513 104.52842,109.66138 112.59099,109.47382 C 112.96591,109.84888 113.15341,110.62232 113.15349,111.79413 C 113.20028,112.91919 113.01278,113.71607 112.59099,114.18475 C 107.99716,114.55981 105.11435,115.40356 103.94255,116.716 C 102.81748,118.02856 102.25498,121.56762 102.25505,127.33319" transform="matrix(0.1807013,0,0,0.1807013,76.544483,100.71266)" style="font-size:144px;font-style:normal;font-variant:normal;font-weight:normal;font-stretch:normal;fill:#000000;fill-opacity:1;stroke:none;stroke-width:1px;stroke-linecap:butt;stroke-linejoin:miter;stroke-opacity:1;font-family:Linux Libertine O;-inkscape-font-specification:Linux Libertine O"></path></g></svg>
</svg>