<?xml version="1.0" encoding="UTF-8" standalone="no"?>
<svg
	xmlns="http://www.w3.org/2000/svg"
	xmlns:dc="http://purl.org/dc/elements/1.1/"
	xmlns:cc="http://creativecommons.org/ns#"
	xmlns:rdf="http://www.w3.org/1999/02/22-rdf-syntax-ns#"
	xmlns:svg="http://www.w3.org/2000/svg"
	xmlns:xlink="http://www.w3.org/1999/xlink"
	xmlns:sodipodi="http://sodipodi.sourceforge.net/DTD/sodipodi-0.dtd"
	xmlns:inkscape="http://www.inkscape.org/namespaces/inkscape"
	version="1.1"
	viewBox="0 0 135px 155px">
	<svg xmlns:dc="http://purl.org/dc/elements/1.1/" xmlns:cc="http://creativecommons.org/ns#" xmlns:rdf="http://www.w3.org/1999/02/22-rdf-syntax-ns#" xmlns:svg="http://www.w3.org/2000/svg" xmlns:xlink="http://www.w3.org/1999/xlink" xmlns:sodipodi="http://sodipodi.sourceforge.net/DTD/sodipodi-0.dtd" xmlns:inkscape="http://www.inkscape.org/namespaces/inkscape" version="1.1" x="0px" y="0px" width="135px" height="155px" viewBox="0 0 135 155" enable-background="new 0 0 135 155" xml:space="preserve" id="svg3857" inkscape:version="0.47 r22583" sodipodi:docname="Wikipedia-logo-v2-sk.svg" xmlns:svgjs="http://svgjs.com/svgjs"><metadata id="metadata4852"><rdf:RDF><cc:Work rdf:about=""><dc:format>image/svg+xml</dc:format><dc:type rdf:resource="http://purl.org/dc/dcmitype/StillImage"></dc:type><dc:title></dc:title></cc:Work></rdf:RDF></metadata><defs id="defs4850"><inkscape:perspective sodipodi:type="inkscape:persp3d" inkscape:vp_x="0 : 77.5 : 1" inkscape:vp_y="0 : 1000 : 0" inkscape:vp_z="135 : 77.5 : 1" inkscape:persp3d-origin="67.5 : 51.666667 : 1" id="perspective4854"></inkscape:perspective>
	
		<radialGradient gradientUnits="userSpaceOnUse" gradientTransform="matrix(1,0,0,-1,192.3999,143.0996)" r="68.686401" cy="87.823196" cx="-145.4702" id="SVGID_1_">
		<stop id="stop3922" offset="0" style="stop-color:#FFFFFF"></stop>
		<stop id="stop3924" offset="0.4835" style="stop-color:#EAEAEB"></stop>
		<stop id="stop3926" offset="0.9451" style="stop-color:#A9ABAE"></stop>
		<stop id="stop3928" offset="1" style="stop-color:#999B9E"></stop>
	</radialGradient>
	
	
	<linearGradient y2="97.232101" x2="112.7331" y1="24.481001" x1="66.232399" gradientUnits="userSpaceOnUse" id="SVGID_2_">
		<stop id="stop3935" offset="0" style="stop-color:#8A8A8A"></stop>
		<stop id="stop3937" offset="0.5687" style="stop-color:#606060"></stop>
		<stop id="stop3939" offset="0.5914" style="stop-color:#FFFFFF"></stop>
		<stop id="stop3941" offset="0.6116" style="stop-color:#585858"></stop>
		<stop id="stop3943" offset="1" style="stop-color:#303030"></stop>
	</linearGradient>
	
	
	<linearGradient y2="65.136703" x2="83.798798" y1="65.136703" x1="54.715801" gradientUnits="userSpaceOnUse" id="SVGID_5_">
		<stop id="stop3964" offset="0" style="stop-color:#231F20"></stop>
		<stop id="stop3966" offset="1" style="stop-color:#474747"></stop>
	</linearGradient>
	
	
	
	
	
	
	
	
	
		<linearGradient gradientTransform="matrix(1,0,0,-1,192.3999,143.0996)" y2="29.9035" x2="-94.069099" y1="119.8076" x1="-123.5898" gradientUnits="userSpaceOnUse" id="SVGID_6_">
		<stop id="stop3997" offset="0" style="stop-color:#FFFFFF"></stop>
		<stop id="stop3999" offset="0.0094" style="stop-color:#FCFCFC"></stop>
		<stop id="stop4001" offset="0.0655" style="stop-color:#EEEEEE"></stop>
		<stop id="stop4003" offset="0.1342" style="stop-color:#E5E5E5"></stop>
		<stop id="stop4005" offset="0.2515" style="stop-color:#E3E3E3"></stop>
		<stop id="stop4007" offset="0.3357" style="stop-color:#8A8A8A"></stop>
		<stop id="stop4009" offset="0.4422" style="stop-color:#B8B8B8"></stop>
		<stop id="stop4011" offset="1" style="stop-color:#3B3B3B"></stop>
	</linearGradient>
	
	<linearGradient y2="87.626701" x2="119.5471" y1="26.876499" x1="70.421898" gradientUnits="userSpaceOnUse" id="SVGID_7_">
		<stop id="stop4016" offset="0" style="stop-color:#EFF0F0"></stop>
		<stop id="stop4018" offset="0.5914" style="stop-color:#F0F1F2"></stop>
		<stop id="stop4020" offset="0.599" style="stop-color:#787878"></stop>
		<stop id="stop4022" offset="0.6456" style="stop-color:#EEEFF0"></stop>
		<stop id="stop4024" offset="1" style="stop-color:#D8D9DB"></stop>
	</linearGradient>
	
	
		<linearGradient gradientTransform="matrix(1,0,0,-1,192.3999,143.0996)" y2="31.998501" x2="-87.569702" y1="122.1328" x1="-117.166" gradientUnits="userSpaceOnUse" id="SVGID_8_">
		<stop id="stop4029" offset="0" style="stop-color:#FFFFFF"></stop>
		<stop id="stop4031" offset="1" style="stop-color:#E4E5E6"></stop>
	</linearGradient>
	
	<linearGradient y2="106.3903" x2="79.683601" y1="25.2764" x1="54.653301" gradientUnits="userSpaceOnUse" id="SVGID_9_">
		<stop id="stop4036" offset="0" style="stop-color:#FFFFFF"></stop>
		<stop id="stop4038" offset="0.7473" style="stop-color:#F9F9F9"></stop>
		<stop id="stop4040" offset="1" style="stop-color:#D5D7D8"></stop>
	</linearGradient>
	
	
	
	
	
		<linearGradient gradientTransform="matrix(1,0,0,-1,192.3999,143.0996)" y2="24.6462" x2="-134.85719" y1="119.6328" x1="-115.3369" gradientUnits="userSpaceOnUse" id="SVGID_10_">
		<stop id="stop4061" offset="0" style="stop-color:#FFFFFF"></stop>
		<stop id="stop4063" offset="1" style="stop-color:#E4E5E6"></stop>
	</linearGradient>
	
	<linearGradient y2="92.496101" x2="37.2481" y1="33.077099" x1="32.519001" gradientUnits="userSpaceOnUse" id="SVGID_11_">
		<stop id="stop4068" offset="0.2198" style="stop-color:#989A9C"></stop>
		<stop id="stop4070" offset="0.2527" style="stop-color:#FFFFFF"></stop>
	</linearGradient>
	
	
		<linearGradient gradientTransform="matrix(1,0,0,-1,192.3999,143.0996)" y2="32.797901" x2="-171.9462" y1="126.8398" x1="-152.6201" gradientUnits="userSpaceOnUse" id="SVGID_12_">
		<stop id="stop4075" offset="0" style="stop-color:#FFFFFF"></stop>
		<stop id="stop4077" offset="1" style="stop-color:#E4E5E6"></stop>
	</linearGradient>
	
	
		<linearGradient gradientTransform="matrix(1,0,0,-1,192.3999,143.0996)" y2="35.585701" x2="-130.14281" y1="35.625" x1="-130.1348" gradientUnits="userSpaceOnUse" id="SVGID_13_">
		<stop id="stop4082" offset="0" style="stop-color:#FFFFFF"></stop>
		<stop id="stop4084" offset="1" style="stop-color:#E4E5E6"></stop>
	</linearGradient>
	
	
	
	
		<linearGradient gradientTransform="matrix(1,0,0,-1,192.3999,143.0996)" y2="25.888" x2="-140.54491" y1="120.3223" x1="-121.1382" gradientUnits="userSpaceOnUse" id="SVGID_14_">
		<stop id="stop4093" offset="0" style="stop-color:#FFFFFF"></stop>
		<stop id="stop4095" offset="1" style="stop-color:#E4E5E6"></stop>
	</linearGradient>
	
	
		<linearGradient gradientTransform="matrix(1,0,0,-1,192.3999,143.0996)" y2="28.8524" x2="-155.006" y1="123.3525" x1="-135.58591" gradientUnits="userSpaceOnUse" id="SVGID_15_">
		<stop id="stop4100" offset="0" style="stop-color:#FFFFFF"></stop>
		<stop id="stop4102" offset="1" style="stop-color:#E4E5E6"></stop>
	</linearGradient>
	
	
		<linearGradient gradientTransform="matrix(1,0,0,-1,192.3999,143.0996)" y2="27.1346" x2="-146.8837" y1="121.9365" x1="-127.4014" gradientUnits="userSpaceOnUse" id="SVGID_16_">
		<stop id="stop4107" offset="0" style="stop-color:#FFFFFF"></stop>
		<stop id="stop4109" offset="1" style="stop-color:#E4E5E6"></stop>
	</linearGradient>
	
	
		<linearGradient gradientTransform="matrix(1,0,0,-1,192.3999,143.0996)" y2="24.9438" x2="-138.85201" y1="124.0039" x1="-118.4946" gradientUnits="userSpaceOnUse" id="SVGID_17_">
		<stop id="stop4114" offset="0" style="stop-color:#FFFFFF"></stop>
		<stop id="stop4116" offset="1" style="stop-color:#E4E5E6"></stop>
	</linearGradient>
	
	
		<linearGradient gradientTransform="matrix(1,0,0,-1,192.3999,143.0996)" y2="24.695299" x2="-134.7878" y1="119.1758" x1="-115.3716" gradientUnits="userSpaceOnUse" id="SVGID_18_">
		<stop id="stop4121" offset="0" style="stop-color:#FFFFFF"></stop>
		<stop id="stop4123" offset="1" style="stop-color:#E4E5E6"></stop>
	</linearGradient>
	
	
	
	
	
	
	
	
	
	
	
	
		<linearGradient gradientTransform="matrix(1,0,0,-1,192.3999,143.0996)" y2="83.6045" x2="-75.6362" y1="83.6045" x1="-175.4424" gradientUnits="userSpaceOnUse" id="SVGID_21_">
		<stop id="stop4198" offset="0" style="stop-color:#555555"></stop>
		<stop id="stop4200" offset="1" style="stop-color:#231F20"></stop>
	</linearGradient>
	
	
		<linearGradient gradientTransform="matrix(1,0,0,-1,192.3999,143.0996)" y2="104.0801" x2="-83.541" y1="104.0801" x1="-175.14211" gradientUnits="userSpaceOnUse" id="SVGID_22_">
		<stop id="stop4205" offset="0" style="stop-color:#A0A0A0"></stop>
		<stop id="stop4207" offset="0.0769" style="stop-color:#656767"></stop>
		<stop id="stop4209" offset="1" style="stop-color:#717375"></stop>
	</linearGradient>
	
	
	
	
	
	
	
		<linearGradient gradientTransform="matrix(1,0,0,-1,192.3999,143.0996)" y2="78.209" x2="-172.3853" y1="78.209" x1="-172.3853" gradientUnits="userSpaceOnUse" id="SVGID_23_">
		<stop id="stop4224" offset="0" style="stop-color:#FFFFFF"></stop>
		<stop id="stop4226" offset="0.078" style="stop-color:#F4F4F4"></stop>
		<stop id="stop4228" offset="0.3807" style="stop-color:#CECECE"></stop>
		<stop id="stop4230" offset="0.5396" style="stop-color:#BFBFBF"></stop>
		<stop id="stop4232" offset="0.8357" style="stop-color:#7C7C7C"></stop>
		<stop id="stop4234" offset="0.8996" style="stop-color:#A8A8A8"></stop>
		<stop id="stop4236" offset="0.9093" style="stop-color:#9A9A9A"></stop>
		<stop id="stop4238" offset="0.9327" style="stop-color:#7D7D7D"></stop>
		<stop id="stop4240" offset="0.9558" style="stop-color:#686868"></stop>
		<stop id="stop4242" offset="0.9785" style="stop-color:#5B5B5B"></stop>
		<stop id="stop4244" offset="1" style="stop-color:#575757"></stop>
	</linearGradient>
	
	
		<linearGradient gradientTransform="matrix(1,0,0,-1,192.3999,143.0996)" y2="90.476799" x2="-67.153198" y1="78.449203" x1="-175.7173" gradientUnits="userSpaceOnUse" id="SVGID_24_">
		<stop id="stop4249" offset="0" style="stop-color:#FFFFFF"></stop>
		<stop id="stop4251" offset="0.078" style="stop-color:#F4F4F4"></stop>
		<stop id="stop4253" offset="0.3807" style="stop-color:#CECECE"></stop>
		<stop id="stop4255" offset="0.5396" style="stop-color:#BFBFBF"></stop>
		<stop id="stop4257" offset="0.8357" style="stop-color:#7C7C7C"></stop>
		<stop id="stop4259" offset="0.8996" style="stop-color:#A8A8A8"></stop>
		<stop id="stop4261" offset="0.9093" style="stop-color:#9A9A9A"></stop>
		<stop id="stop4263" offset="0.9327" style="stop-color:#7D7D7D"></stop>
		<stop id="stop4265" offset="0.9558" style="stop-color:#686868"></stop>
		<stop id="stop4267" offset="0.9785" style="stop-color:#5B5B5B"></stop>
		<stop id="stop4269" offset="1" style="stop-color:#575757"></stop>
	</linearGradient>
	
	
		<linearGradient gradientTransform="matrix(1,0,0,-1,192.3999,143.0996)" y2="92.223099" x2="-52.131699" y1="78.4795" x1="-176.1851" gradientUnits="userSpaceOnUse" id="SVGID_25_">
		<stop id="stop4274" offset="0" style="stop-color:#FFFFFF"></stop>
		<stop id="stop4276" offset="0.078" style="stop-color:#F4F4F4"></stop>
		<stop id="stop4278" offset="0.3807" style="stop-color:#CECECE"></stop>
		<stop id="stop4280" offset="0.5396" style="stop-color:#BFBFBF"></stop>
		<stop id="stop4282" offset="0.8357" style="stop-color:#7C7C7C"></stop>
		<stop id="stop4284" offset="0.8996" style="stop-color:#A8A8A8"></stop>
		<stop id="stop4286" offset="0.9093" style="stop-color:#9A9A9A"></stop>
		<stop id="stop4288" offset="0.9327" style="stop-color:#7D7D7D"></stop>
		<stop id="stop4290" offset="0.9558" style="stop-color:#686868"></stop>
		<stop id="stop4292" offset="0.9785" style="stop-color:#5B5B5B"></stop>
		<stop id="stop4294" offset="1" style="stop-color:#575757"></stop>
	</linearGradient>
	
	<linearGradient y2="51.952599" x2="117.1948" y1="71.326698" x1="21.2129" gradientUnits="userSpaceOnUse" id="SVGID_26_">
		<stop id="stop4299" offset="0" style="stop-color:#EDEDEE"></stop>
		<stop id="stop4301" offset="0.4176" style="stop-color:#FFFFFF"></stop>
		<stop id="stop4303" offset="0.6264" style="stop-color:#F8F9F9"></stop>
		<stop id="stop4305" offset="1" style="stop-color:#BFC0C2"></stop>
	</linearGradient>
	
	
	
	
	<linearGradient y2="30.732401" x2="27.9561" y1="30.732401" x1="23.471201" gradientUnits="userSpaceOnUse" id="SVGID_27_">
		<stop id="stop4316" offset="0" style="stop-color:#E2E3E4"></stop>
		<stop id="stop4318" offset="0.5055" style="stop-color:#FFFFFF"></stop>
	</linearGradient>
	
	
	
	
	
	
	
	
	
	
	
	
	
	
	
	
	
	
	
	
	
	
	
	
	
	
	
	
	
	
	
	
	
	
	
	
	
	
	
	
	
	
	
	
	
	
	
	
	
	
	
	
	
	
	
	
	
	
	
	
	
	
	
	
	
	
	
	
	
	
	
	
	
	
	
	
	
	
	
	
	
	
	
	
	
	
	
	
	
	
	
	
	
	
	
	
	
	
	
	
	
	
	
	
	
	
	
	
	
	
	
	
	
	
	
	
	
	
	
	
	
	
	
	
	
	
	
	
	
	
	
	
	
	
	
	
	
	
	
	
	
	
	
	
	
	
	
	
	
	
	
	
	
	
	
	
	
	
	
	
	
	
	
	
	
	
	
	
	
	
	
	
	
	
	
	
	
	
	<linearGradient y2="29.204" x2="111.5455" y1="49.7188" x1="22.5742" gradientUnits="userSpaceOnUse" id="SVGID_34_">
		<stop id="stop4743" offset="0" style="stop-color:#FFFFFF"></stop>
		<stop id="stop4745" offset="0.6538" style="stop-color:#FFFFFF"></stop>
		<stop id="stop4747" offset="1" style="stop-color:#CBCCCE"></stop>
	</linearGradient>
	
	
	
	
	
	
	
	
		<linearGradient gradientTransform="matrix(1,0,0,-1,192.3999,143.0996)" y2="107.0898" x2="-126.4229" y1="107.0898" x1="-158.8101" gradientUnits="userSpaceOnUse" id="SVGID_35_">
		<stop id="stop4770" offset="0" style="stop-color:#696969"></stop>
		<stop id="stop4772" offset="0.3702" style="stop-color:#2E2E2E"></stop>
		<stop id="stop4774" offset="0.4554" style="stop-color:#424242"></stop>
		<stop id="stop4776" offset="0.6014" style="stop-color:#303030"></stop>
		<stop id="stop4778" offset="0.6947" style="stop-color:#4A4A4A"></stop>
		<stop id="stop4780" offset="1" style="stop-color:#666666"></stop>
	</linearGradient>
	
	
		<linearGradient gradientTransform="matrix(1,0,0,-1,192.3999,143.0996)" y2="107.8965" x2="-126.5454" y1="107.8965" x1="-158.4185" gradientUnits="userSpaceOnUse" id="SVGID_36_">
		<stop id="stop4785" offset="0" style="stop-color:#525252"></stop>
		<stop id="stop4787" offset="0.1856" style="stop-color:#333333"></stop>
		<stop id="stop4789" offset="0.354" style="stop-color:#AEAEAE"></stop>
		<stop id="stop4791" offset="0.4199" style="stop-color:#ADADAD"></stop>
		<stop id="stop4793" offset="0.4276" style="stop-color:#9D9D9D"></stop>
		<stop id="stop4795" offset="0.4433" style="stop-color:#818181"></stop>
		<stop id="stop4797" offset="0.4611" style="stop-color:#6A6A6A"></stop>
		<stop id="stop4799" offset="0.4814" style="stop-color:#585858"></stop>
		<stop id="stop4801" offset="0.506" style="stop-color:#4C4C4C"></stop>
		<stop id="stop4803" offset="0.539" style="stop-color:#444444"></stop>
		<stop id="stop4805" offset="0.6166" style="stop-color:#424242"></stop>
		<stop id="stop4807" offset="0.6684" style="stop-color:#454545"></stop>
		<stop id="stop4809" offset="1" style="stop-color:#BDBDBD"></stop>
	</linearGradient>
	
	
		<linearGradient gradientTransform="matrix(1,0,0,-1,192.3999,143.0996)" y2="104.4332" x2="-154.15421" y1="97.627899" x1="-153.1255" gradientUnits="userSpaceOnUse" id="SVGID_37_">
		<stop id="stop4814" offset="0" style="stop-color:#969696"></stop>
		<stop id="stop4816" offset="1" style="stop-color:#000000"></stop>
	</linearGradient>
	
	
	
	<linearGradient y2="38.790001" x2="39.487301" y1="46.373001" x1="38.737301" gradientUnits="userSpaceOnUse" id="SVGID_38_">
		<stop id="stop4825" offset="0" style="stop-color:#333333"></stop>
		<stop id="stop4827" offset="0.431" style="stop-color:#000000"></stop>
		<stop id="stop4829" offset="1" style="stop-color:#2E2E2E"></stop>
	</linearGradient>
	
	
	
	
	
		<radialGradient gradientUnits="userSpaceOnUse" gradientTransform="matrix(1,0,0,-1,192.3999,143.0996)" r="72.751701" cy="106.5996" cx="-138.2334" id="SVGID_39_">
		<stop id="stop4840" offset="0" style="stop-color:#000000;stop-opacity:0"></stop>
		<stop id="stop4842" offset="0.80220002" style="stop-color:#000000;stop-opacity:0.08"></stop>
		<stop id="stop4844" offset="1" style="stop-color:#000000;stop-opacity:0.3882353"></stop>
	</radialGradient>
	
<radialGradient inkscape:collect="always" xlink:href="#SVGID_39_" id="radialGradient5007" gradientUnits="userSpaceOnUse" gradientTransform="matrix(1,0,0,-1,192.3999,143.0996)" cx="-138.2334" cy="106.5996" r="72.751701"></radialGradient><linearGradient inkscape:collect="always" xlink:href="#SVGID_38_" id="linearGradient5013" gradientUnits="userSpaceOnUse" x1="38.737301" y1="46.373001" x2="39.487301" y2="38.790001"></linearGradient><linearGradient inkscape:collect="always" xlink:href="#SVGID_37_" id="linearGradient5018" gradientUnits="userSpaceOnUse" gradientTransform="matrix(1,0,0,-1,192.3999,143.0996)" x1="-153.1255" y1="97.627899" x2="-154.15421" y2="104.4332"></linearGradient><linearGradient inkscape:collect="always" xlink:href="#SVGID_36_" id="linearGradient5021" gradientUnits="userSpaceOnUse" gradientTransform="matrix(1,0,0,-1,192.3999,143.0996)" x1="-158.4185" y1="107.8965" x2="-126.5454" y2="107.8965"></linearGradient><linearGradient inkscape:collect="always" xlink:href="#SVGID_35_" id="linearGradient5024" gradientUnits="userSpaceOnUse" gradientTransform="matrix(1,0,0,-1,192.3999,143.0996)" x1="-158.8101" y1="107.0898" x2="-126.4229" y2="107.0898"></linearGradient><linearGradient inkscape:collect="always" xlink:href="#SVGID_34_" id="linearGradient5036" gradientUnits="userSpaceOnUse" x1="22.5742" y1="49.7188" x2="111.5455" y2="29.204"></linearGradient><linearGradient inkscape:collect="always" xlink:href="#SVGID_27_" id="linearGradient5252" gradientUnits="userSpaceOnUse" x1="23.471201" y1="30.732401" x2="27.9561" y2="30.732401"></linearGradient><linearGradient inkscape:collect="always" xlink:href="#SVGID_26_" id="linearGradient5258" gradientUnits="userSpaceOnUse" x1="21.2129" y1="71.326698" x2="117.1948" y2="51.952599"></linearGradient><linearGradient inkscape:collect="always" xlink:href="#SVGID_25_" id="linearGradient5261" gradientUnits="userSpaceOnUse" gradientTransform="matrix(1,0,0,-1,192.3999,143.0996)" x1="-176.1851" y1="78.4795" x2="-52.131699" y2="92.223099"></linearGradient><linearGradient inkscape:collect="always" xlink:href="#SVGID_24_" id="linearGradient5264" gradientUnits="userSpaceOnUse" gradientTransform="matrix(1,0,0,-1,192.3999,143.0996)" x1="-175.7173" y1="78.449203" x2="-67.153198" y2="90.476799"></linearGradient><linearGradient inkscape:collect="always" xlink:href="#SVGID_23_" id="linearGradient5267" gradientUnits="userSpaceOnUse" gradientTransform="matrix(1,0,0,-1,192.3999,143.0996)" x1="-172.3853" y1="78.209" x2="-172.3853" y2="78.209"></linearGradient><linearGradient inkscape:collect="always" xlink:href="#SVGID_22_" id="linearGradient5275" gradientUnits="userSpaceOnUse" gradientTransform="matrix(1,0,0,-1,192.3999,143.0996)" x1="-175.14211" y1="104.0801" x2="-83.541" y2="104.0801"></linearGradient><linearGradient inkscape:collect="always" xlink:href="#SVGID_21_" id="linearGradient5278" gradientUnits="userSpaceOnUse" gradientTransform="matrix(1,0,0,-1,192.3999,143.0996)" x1="-175.4424" y1="83.6045" x2="-75.6362" y2="83.6045"></linearGradient><linearGradient inkscape:collect="always" xlink:href="#SVGID_18_" id="linearGradient5317" gradientUnits="userSpaceOnUse" gradientTransform="matrix(1,0,0,-1,192.3999,143.0996)" x1="-115.3716" y1="119.1758" x2="-134.7878" y2="24.695299"></linearGradient><linearGradient inkscape:collect="always" xlink:href="#SVGID_17_" id="linearGradient5320" gradientUnits="userSpaceOnUse" gradientTransform="matrix(1,0,0,-1,192.3999,143.0996)" x1="-118.4946" y1="124.0039" x2="-138.85201" y2="24.9438"></linearGradient><linearGradient inkscape:collect="always" xlink:href="#SVGID_16_" id="linearGradient5323" gradientUnits="userSpaceOnUse" gradientTransform="matrix(1,0,0,-1,192.3999,143.0996)" x1="-127.4014" y1="121.9365" x2="-146.8837" y2="27.1346"></linearGradient><linearGradient inkscape:collect="always" xlink:href="#SVGID_15_" id="linearGradient5326" gradientUnits="userSpaceOnUse" gradientTransform="matrix(1,0,0,-1,192.3999,143.0996)" x1="-135.58591" y1="123.3525" x2="-155.006" y2="28.8524"></linearGradient><linearGradient inkscape:collect="always" xlink:href="#SVGID_14_" id="linearGradient5329" gradientUnits="userSpaceOnUse" gradientTransform="matrix(1,0,0,-1,192.3999,143.0996)" x1="-121.1382" y1="120.3223" x2="-140.54491" y2="25.888"></linearGradient><linearGradient inkscape:collect="always" xlink:href="#SVGID_13_" id="linearGradient5334" gradientUnits="userSpaceOnUse" gradientTransform="matrix(1,0,0,-1,192.3999,143.0996)" x1="-130.1348" y1="35.625" x2="-130.14281" y2="35.585701"></linearGradient><linearGradient inkscape:collect="always" xlink:href="#SVGID_12_" id="linearGradient5337" gradientUnits="userSpaceOnUse" gradientTransform="matrix(1,0,0,-1,192.3999,143.0996)" x1="-152.6201" y1="126.8398" x2="-171.9462" y2="32.797901"></linearGradient><linearGradient inkscape:collect="always" xlink:href="#SVGID_11_" id="linearGradient5340" gradientUnits="userSpaceOnUse" x1="32.519001" y1="33.077099" x2="37.2481" y2="92.496101"></linearGradient><linearGradient inkscape:collect="always" xlink:href="#SVGID_10_" id="linearGradient5343" gradientUnits="userSpaceOnUse" gradientTransform="matrix(1,0,0,-1,192.3999,143.0996)" x1="-115.3369" y1="119.6328" x2="-134.85719" y2="24.6462"></linearGradient><linearGradient inkscape:collect="always" xlink:href="#SVGID_9_" id="linearGradient5354" gradientUnits="userSpaceOnUse" x1="54.653301" y1="25.2764" x2="79.683601" y2="106.3903"></linearGradient><linearGradient inkscape:collect="always" xlink:href="#SVGID_8_" id="linearGradient5357" gradientUnits="userSpaceOnUse" gradientTransform="matrix(1,0,0,-1,192.3999,143.0996)" x1="-117.166" y1="122.1328" x2="-87.569702" y2="31.998501"></linearGradient><linearGradient inkscape:collect="always" xlink:href="#SVGID_7_" id="linearGradient5360" gradientUnits="userSpaceOnUse" x1="70.421898" y1="26.876499" x2="119.5471" y2="87.626701"></linearGradient><linearGradient inkscape:collect="always" xlink:href="#SVGID_6_" id="linearGradient5363" gradientUnits="userSpaceOnUse" gradientTransform="matrix(1,0,0,-1,192.3999,143.0996)" x1="-123.5898" y1="119.8076" x2="-94.069099" y2="29.9035"></linearGradient><linearGradient inkscape:collect="always" xlink:href="#SVGID_5_" id="linearGradient5379" gradientUnits="userSpaceOnUse" x1="54.715801" y1="65.136703" x2="83.798798" y2="65.136703"></linearGradient><linearGradient inkscape:collect="always" xlink:href="#SVGID_2_" id="linearGradient5391" gradientUnits="userSpaceOnUse" x1="66.232399" y1="24.481001" x2="112.7331" y2="97.232101"></linearGradient><radialGradient inkscape:collect="always" xlink:href="#SVGID_1_" id="radialGradient5395" gradientUnits="userSpaceOnUse" gradientTransform="matrix(1,0,0,-1,192.3999,143.0996)" cx="-145.4702" cy="87.823196" r="68.686401"></radialGradient>
	
	
<inkscape:perspective id="perspective10537" inkscape:persp3d-origin="0.5 : 0.33333333 : 1" inkscape:vp_z="1 : 0.5 : 1" inkscape:vp_y="0 : 1000 : 0" inkscape:vp_x="0 : 0.5 : 1" sodipodi:type="inkscape:persp3d"></inkscape:perspective><inkscape:perspective id="perspective13111" inkscape:persp3d-origin="0.5 : 0.33333333 : 1" inkscape:vp_z="1 : 0.5 : 1" inkscape:vp_y="0 : 1000 : 0" inkscape:vp_x="0 : 0.5 : 1" sodipodi:type="inkscape:persp3d"></inkscape:perspective><inkscape:perspective id="perspective36724" inkscape:persp3d-origin="0.5 : 0.33333333 : 1" inkscape:vp_z="1 : 0.5 : 1" inkscape:vp_y="0 : 1000 : 0" inkscape:vp_x="0 : 0.5 : 1" sodipodi:type="inkscape:persp3d"></inkscape:perspective><inkscape:perspective id="perspective38742" inkscape:persp3d-origin="0.5 : 0.33333333 : 1" inkscape:vp_z="1 : 0.5 : 1" inkscape:vp_y="0 : 1000 : 0" inkscape:vp_x="0 : 0.5 : 1" sodipodi:type="inkscape:persp3d"></inkscape:perspective></defs><sodipodi:namedview pagecolor="#ffffff" bordercolor="#666666" borderopacity="1" objecttolerance="10" gridtolerance="10" guidetolerance="10" inkscape:pageopacity="0" inkscape:pageshadow="2" inkscape:window-width="1198" inkscape:window-height="657" id="namedview4848" showgrid="false" inkscape:zoom="2.8284271" inkscape:cx="17.505357" inkscape:cy="-4.6195347" inkscape:window-x="87" inkscape:window-y="76" inkscape:window-maximized="0" inkscape:current-layer="svg3857" showguides="true" inkscape:guide-bbox="true"><sodipodi:guide orientation="0,1" position="0,140" id="globe_top"></sodipodi:guide><sodipodi:guide orientation="1,0" position="16,0" id="globe_left"></sodipodi:guide><sodipodi:guide orientation="1,0" position="119,0" id="globe_right"></sodipodi:guide><sodipodi:guide id="globe_bottom" position="0,47" orientation="0,1"></sodipodi:guide><sodipodi:guide orientation="0,1" position="8,40" id="wordmark_top"></sodipodi:guide><sodipodi:guide orientation="0,1" position="8,22.5" id="wordmark_bottom"></sodipodi:guide><sodipodi:guide orientation="0,1" position="0,17" id="subtitle_top"></sodipodi:guide><sodipodi:guide orientation="0,1" position="0,8" id="subtitle_bottom"></sodipodi:guide><sodipodi:guide orientation="1,0" position="8,40" id="wordmark_left"></sodipodi:guide><sodipodi:guide orientation="1,0" position="127,40" id="wordmark_right"></sodipodi:guide></sodipodi:namedview><g transform="translate(0.05363376,-3.521)" id="Wikipedia"><path id="path2096" d="m 22.59,119.008 c 0.936,0.026 1.416,0.054 1.997,0.054 0.582,0 1.214,-0.027 1.846,-0.054 0.151,0.161 0.151,0.729 0,0.891 -1.315,0.216 -1.864,1.244 -2.486,2.51 l -1.848,3.755 3.234,7.15 h 0.116 l 4.802,-11.094 c 0.599,-1.461 0.556,-2.187 -1.087,-2.321 -0.152,-0.162 -0.152,-0.729 0,-0.891 1.188,0.026 1.921,0.054 2.503,0.054 0.582,0 1.214,-0.027 2.225,-0.054 0.152,0.161 0.152,0.729 0,0.891 -1.669,0.216 -1.959,1.247 -2.485,2.51 l -5.985,13.767 c -0.177,0.405 -0.329,0.621 -0.606,0.621 -0.253,0 -0.448,-0.219 -0.582,-0.621 l -3.401,-7.836 -3.729,7.836 c -0.151,0.405 -0.329,0.621 -0.607,0.621 -0.252,0 -0.43,-0.216 -0.581,-0.621 l -5.5,-13.82 c -0.771,-1.917 -0.822,-2.321 -2.263,-2.456 -0.152,-0.162 -0.177,-0.729 -0.025,-0.891 1.188,0.026 1.618,0.054 2.629,0.054 0.986,0 1.618,-0.027 2.807,-0.054 0.152,0.161 0.152,0.729 0,0.891 -1.593,0.188 -1.661,0.615 -1.026,2.159 l 4.629,11.256 h 0.116 l 2.824,-6.133 -2.131,-4.826 c -0.847,-1.917 -1.049,-2.294 -2.137,-2.456 -0.151,-0.162 -0.177,-0.729 -0.025,-0.891 0.809,0.026 1.239,0.054 2.25,0.054 0.986,0 1.391,-0.027 2.301,-0.054 0.152,0.161 0.152,0.729 0,0.891 -1.062,0.162 -0.961,0.62 -0.268,2.159 l 1.244,2.727 0.111,0.121 1.34,-2.686 c 0.781,-1.565 0.885,-2.159 -0.202,-2.321 -0.152,-0.164 -0.152,-0.731 0,-0.892 z"></path><path id="path2098" d="m 37.216,133.179 c 0,2.24 0.278,2.349 1.82,2.456 0.152,0.162 0.152,0.729 0,0.891 -1.087,-0.026 -1.719,-0.054 -2.806,-0.054 -1.113,0 -1.77,0.027 -2.832,0.054 -0.151,-0.162 -0.151,-0.729 0,-0.891 1.542,-0.135 1.82,-0.216 1.82,-2.456 v -5.831 c 0,-2.24 -0.278,-2.348 -1.82,-2.456 -0.151,-0.162 -0.151,-0.729 0,-0.891 1.087,0.027 1.719,0.054 2.807,0.054 1.112,0 1.77,-0.026 2.832,-0.054 0.152,0.162 0.152,0.729 0,0.891 -1.542,0.135 -1.82,0.216 -1.82,2.456 v 5.831 z"></path><path id="path2100" d="m 41.455,124.892 c -0.151,-0.162 -0.151,-0.729 0,-0.891 1.062,0.027 1.719,0.054 2.832,0.054 0.936,0 1.34,-0.026 2.427,-0.054 0.151,0.162 0.151,0.729 0,0.891 -1.214,0.135 -1.441,0.216 -1.441,2.456 v 2.402 c 0.834,0 1.575,-0.426 2.655,-1.728 1.947,-2.348 2.2,-3.05 0.936,-3.131 -0.152,-0.162 -0.152,-0.729 0,-0.891 1.087,0.027 2.048,0.054 2.781,0.054 0.657,0 1.087,-0.026 1.77,-0.054 0.151,0.162 0.151,0.729 0,0.891 -1.011,0.054 -1.939,0.191 -2.706,1.134 l -2.174,2.672 c -0.43,0.486 -0.582,0.783 -0.582,0.999 0,0.162 0.101,0.297 0.228,0.459 l 3.742,4.697 c 0.331,0.41 0.936,0.701 1.618,0.782 0.151,0.162 0.151,0.702 0,0.864 0,0 -1.239,-0.027 -1.947,-0.027 -0.658,0 -1.29,0.027 -1.568,0.054 v -0.378 c 0,-0.351 -0.025,-0.647 -0.379,-1.079 l -2.806,-3.726 c -0.379,-0.54 -1.012,-0.675 -1.568,-0.675 v 2.511 c 0,2.24 0.228,2.321 1.441,2.456 0.151,0.162 0.151,0.729 0,0.891 -1.087,-0.026 -1.492,-0.054 -2.427,-0.054 -1.113,0 -1.77,0.027 -2.832,0.054 -0.151,-0.162 -0.151,-0.729 0,-0.891 1.542,-0.135 1.821,-0.216 1.821,-2.456 v -5.831 c -0.001,-2.24 -0.279,-2.321 -1.821,-2.455 z"></path><path id="path2102" d="m 59.294,133.179 c 0,2.24 0.278,2.349 1.82,2.456 0.152,0.162 0.152,0.729 0,0.891 -1.087,-0.026 -1.719,-0.054 -2.806,-0.054 -1.113,0 -1.77,0.027 -2.832,0.054 -0.151,-0.162 -0.151,-0.729 0,-0.891 1.542,-0.135 1.821,-0.216 1.821,-2.456 v -5.831 c 0,-2.24 -0.278,-2.348 -1.821,-2.456 -0.151,-0.162 -0.151,-0.729 0,-0.891 1.087,0.027 1.719,0.054 2.807,0.054 1.112,0 1.77,-0.026 2.832,-0.054 0.152,0.162 0.152,0.729 0,0.891 -1.542,0.135 -1.82,0.216 -1.82,2.456 v 5.831 z"></path><path id="path2104" d="m 69.246,135.635 c 0.152,0.162 0.152,0.729 0,0.891 -1.087,-0.026 -1.719,-0.054 -2.806,-0.054 -1.112,0 -1.77,0.027 -2.832,0.054 -0.152,-0.162 -0.152,-0.729 0,-0.891 1.542,-0.135 1.82,-0.216 1.82,-2.456 v -5.831 c 0,-2.24 -0.278,-2.348 -1.82,-2.456 -0.152,-0.162 -0.152,-0.729 0,-0.891 1.087,0.027 1.719,0.054 2.806,0.054 0.683,0 1.745,-0.054 2.68,-0.054 3.591,0 4.349,1.89 4.349,3.293 0,1.62 -1.036,4.211 -4.424,4.211 -0.633,0 -1.138,-0.107 -1.593,-0.324 v 1.998 c 0,2.24 0.278,2.348 1.82,2.456 z m -1.82,-5.318 c 0.505,0.216 1.138,0.297 1.643,0.297 1.517,0 2.175,-1.05 2.175,-2.996 0,-1.893 -0.809,-2.727 -2.301,-2.727 -1.214,0 -1.517,0.351 -1.517,1.215 v 4.211 z"></path><path id="path2106" d="m 79.198,130.398 v 4.049 c 0,0.513 0.354,1.188 0.81,1.188 h 2.098 c 1.594,0 2.326,-1.35 2.73,-2.942 0.279,-0.081 0.48,-0.026 0.709,0.108 -0.178,1.134 -0.455,2.618 -0.759,3.725 0,0 -1.669,-0.054 -2.681,-0.054 h -3.894 c 0,0 -1.77,0.027 -2.831,0.054 -0.152,-0.162 -0.152,-0.729 0,-0.891 1.542,-0.135 1.82,-0.216 1.82,-2.456 v -5.831 c 0,-2.24 -0.278,-2.348 -1.82,-2.456 -0.152,-0.162 -0.152,-0.729 0,-0.891 1.087,0.027 2.807,0.054 2.807,0.054 h 5.232 c 0.506,0 0.684,-0.054 1.037,-0.107 0.051,0 0.076,0.026 0.076,0.081 0.051,0.188 0.354,2.294 0.455,3.212 -0.202,0.107 -0.43,0.162 -0.683,0.135 -0.455,-1.538 -0.784,-2.43 -2.352,-2.43 h -1.946 c -0.48,0 -0.81,0.297 -0.81,0.756 v 3.833 h 1.44 c 1.771,-0.026 1.695,-0.297 1.745,-1.512 0.126,-0.135 0.581,-0.135 0.708,0 -0.025,0.675 -0.051,1.161 -0.051,1.917 0,0.756 0.025,1.188 0.051,1.971 -0.127,0.135 -0.582,0.135 -0.708,0 -0.05,-0.999 0.051,-1.512 -1.745,-1.512 h -1.438 z m 2.15,-11.877 c 0.162,0 0.809,0.027 1.391,0.621 l 0.076,0.297 -2.908,2.942 c -0.379,0.404 -0.582,0.513 -0.759,0.513 -0.177,0 -0.354,-0.162 -0.354,-0.352 0,-0.302 0.084,-0.41 0.289,-0.756 l 1.911,-3.212 c 0.075,-0.025 0.227,-0.053 0.354,-0.053 z"></path><path id="path2108" d="m 93.929,124.001 c 4.222,0 6.296,2.808 6.296,6.397 0,4.724 -3.136,6.127 -5.942,6.127 -2.022,0 -2.933,-0.054 -3.691,-0.054 -1.112,0 -1.77,0.027 -2.831,0.054 -0.152,-0.162 -0.152,-0.729 0,-0.891 1.542,-0.135 1.82,-0.216 1.82,-2.456 v -5.831 c 0,-2.24 -0.278,-2.348 -1.82,-2.456 -0.152,-0.162 -0.152,-0.729 0,-0.891 1.087,0.027 1.719,0.054 2.807,0.054 0.478,0.001 2.703,-0.053 3.361,-0.053 z m -0.253,11.634 c 2.781,0 4.349,-0.999 4.349,-4.777 0,-2.808 -0.581,-5.966 -4.829,-5.966 -0.986,0 -1.618,0.162 -1.618,0.837 v 8.691 c -0.001,0.756 0.176,1.215 2.098,1.215 z"></path><path id="path2110" d="m 106.079,133.179 c 0,2.24 0.278,2.349 1.82,2.456 0.151,0.162 0.151,0.729 0,0.891 -1.087,-0.026 -1.72,-0.054 -2.806,-0.054 -1.113,0 -1.771,0.027 -2.832,0.054 -0.152,-0.162 -0.152,-0.729 0,-0.891 1.542,-0.135 1.82,-0.216 1.82,-2.456 v -5.831 c 0,-2.24 -0.278,-2.348 -1.82,-2.456 -0.152,-0.162 -0.152,-0.729 0,-0.891 1.087,0.027 1.719,0.054 2.807,0.054 1.111,0 1.77,-0.026 2.831,-0.054 0.151,0.162 0.151,0.729 0,0.891 -1.542,0.135 -1.82,0.216 -1.82,2.456 v 5.831 z"></path><path id="path2112" d="m 115.096,135.635 c 0.152,0.162 0.152,0.729 0,0.891 -0.936,-0.026 -2.199,-0.054 -3.236,-0.054 -0.985,0 -1.314,0.027 -2.25,0.054 -0.151,-0.162 -0.151,-0.729 0,-0.891 1.1,-0.081 1.861,-0.248 2.529,-1.916 l 5.62,-14.045 c 0.288,-0.724 0.479,-0.964 0.853,-0.964 0.354,0 0.498,0.289 0.682,0.811 l 5.184,14.63 c 0.468,1.39 1.295,1.39 2.275,1.484 0.152,0.162 0.152,0.729 0,0.891 -0.936,-0.026 -1.846,-0.054 -2.883,-0.054 -0.985,0 -2.376,0.027 -3.312,0.054 -0.151,-0.162 -0.151,-0.729 0,-0.891 1.204,-0.092 2.247,0.006 1.871,-1.106 l -1.542,-4.562 h -5.26 c -0.606,0 -0.758,0.107 -0.885,0.459 l -1.391,3.913 c -0.394,1.109 0.795,1.225 1.745,1.296 z m 5.385,-6.802 -2.452,-7.207 h -0.051 l -2.533,6.848 c -0.106,0.292 0.076,0.359 0.637,0.359 h 4.399 z"></path></g><g id="text3979" style="font-size:13px;font-style:normal;font-variant:normal;font-weight:normal;font-stretch:normal;text-align:start;line-height:125%;letter-spacing:-0.2;writing-mode:lr-tb;text-anchor:start;fill:#000000;fill-opacity:1;stroke:none;font-family:Linux Libertine O;-inkscape-font-specification:Linux Libertine O"><path d="m 13.382554,138.797 c -0.753999,-0.104 -0.715001,-0.351 -1.989,-0.351 -1.182999,0 -2.4699997,0.871 -2.4699997,2.249 0,1.222 0.858001,1.846 1.8719997,2.275 0.818999,0.364 2.145,0.611 2.145,2.093 0,1.053 -0.598001,1.599 -1.625,1.599 -1.221998,0 -2.002,-0.546 -2.2879997,-1.846 -0.1559998,-0.052 -0.2990001,-0.026 -0.416,0.039 0.052,1.001 0.1040002,1.339 0.26,1.976 0.8189992,0 1.1700007,0.299 2.3269997,0.299 1.572999,0 2.834,-1.196 2.834,-2.522 0,-1.235 -0.845001,-1.859 -1.794,-2.262 -0.623999,-0.26 -2.3919997,-0.728 -2.3919997,-2.002 0,-0.793 0.5980007,-1.456 1.4169997,-1.456 1.273999,0 1.677001,0.806 1.937,1.664 0.143,0 0.299,0.013 0.416,-0.078 -0.039,-0.624 -0.091,-0.988 -0.234,-1.677" id="path3985"></path><path d="m 15.59243,145.414 c 0,1.079 -0.143001,1.144 -0.936,1.183 -0.078,0.078 -0.078,0.351 0,0.429 0.545999,-0.013 0.884,-0.026 1.456,-0.026 0.558999,0 0.884,0.013 1.443,0.026 0.078,-0.078 0.078,-0.351 0,-0.429 -0.793,-0.039 -0.936,-0.104 -0.936,-1.183 l 0,-5.993 c 0,-0.845 0.052,-1.365 0.052,-1.365 0,-0.091 -0.052,-0.13 -0.169,-0.13 -0.325,0.13 -1.300001,0.312 -1.82,0.351 -0.026,0.104 0,0.312 0.078,0.39 0.675999,0.039 0.832,-0.026 0.832,1.066 l 0,5.681" id="path3987"></path><path d="m 18.118164,144.335 c 0,1.326 0.897002,2.795 2.73,2.795 1.936998,0 2.756,-1.612 2.756,-2.912 0,-1.352 -0.715002,-2.925 -2.73,-2.925 -1.754998,0 -2.756,1.391 -2.756,3.042 m 2.613,-2.613 c 1.117999,0 1.755,1.001 1.755,2.912 0,1.716 -0.793001,2.067 -1.404,2.067 -1.351999,0 -1.846,-1.664 -1.846,-2.665 0,-1.131 0.403001,-2.314 1.495,-2.314" id="path3989"></path><path d="m 26.197945,142.281 c 0.337999,-0.299 0.728,-0.416 1.105,-0.416 0.792999,0 1.443,0.962 1.443,2.223 0,1.482 -0.598002,2.6 -1.833,2.6 -0.403,0 -0.676001,-0.286 -0.936,-0.611 l 0,-3.25 c 0,-0.273 0.052,-0.39 0.221,-0.546 m -0.091,-0.403 c -0.091,0.078 -0.13,0.052 -0.13,-0.065 l 0,-2.392 c 0,-0.845 0.052,-1.365 0.052,-1.365 0,-0.091 -0.052,-0.13 -0.169,-0.13 -0.325,0.13 -1.300001,0.312 -1.82,0.351 -0.026,0.104 0,0.312 0.078,0.39 0.675999,0.039 0.832,-0.026 0.832,1.066 l 0,6.344 c 0,0.507 -0.013,0.741 -0.052,0.923 0.065,0.104 0.13,0.156 0.286,0.156 0.078,-0.065 0.208,-0.195 0.299,-0.312 0.142999,-0.156 0.221,-0.156 0.364,-0.026 0.285999,0.247 0.676,0.312 1.144,0.312 1.325998,0 2.873,-1.209 2.873,-3.276 0,-1.586 -1.170002,-2.561 -2.301,-2.561 -0.559,0 -1.053001,0.221 -1.456,0.585" id="path3991"></path><path d="m 30.743555,144.335 c 0,1.326 0.897002,2.795 2.73,2.795 1.936998,0 2.756,-1.612 2.756,-2.912 0,-1.352 -0.715002,-2.925 -2.73,-2.925 -1.754998,0 -2.756,1.391 -2.756,3.042 m 2.613,-2.613 c 1.117999,0 1.755,1.001 1.755,2.912 0,1.716 -0.793001,2.067 -1.404,2.067 -1.351999,0 -1.846,-1.664 -1.846,-2.665 0,-1.131 0.403001,-2.314 1.495,-2.314" id="path3993"></path><path d="m 41.122507,145.388 c 0,0.247 -0.026,0.351 -0.208,0.507 -0.480999,0.416 -0.897,0.624 -1.222,0.624 -0.701999,0 -1.43,-0.767 -1.43,-2.392 0,-0.936 0.182001,-1.456 0.377,-1.729 0.403,-0.611 0.949001,-0.65 1.209,-0.65 0.468,0 0.793001,0.169 1.053,0.468 0.182,0.208 0.221,0.299 0.221,0.702 l 0,2.47 m -0.143,0.962 c 0.052,-0.052 0.156,-0.078 0.156,0.013 0,0.312 0.143,0.767 0.143,0.767 0.104,0.039 0.143001,0.026 0.247,0 0.286,-0.234 0.780001,-0.429 1.573,-0.52 0.078,-0.078 0.078,-0.273 0,-0.351 -0.831999,-0.065 -0.949,-0.312 -0.949,-0.949 l 0,-5.889 c 0,-0.845 0.052,-1.365 0.052,-1.365 0,-0.091 -0.052,-0.13 -0.169,-0.13 -0.324999,0.13 -1.3,0.312 -1.82,0.351 -0.026,0.104 10e-7,0.312 0.078,0.39 0.676,0.039 0.832,-0.026 0.832,1.066 l 0,1.664 c 0,0.091 -0.026,0.117 -0.117,0.117 -0.052,0 -0.585,-0.221 -1.014,-0.221 -0.857999,0 -1.43,0.286 -1.95,0.78 -0.558999,0.559 -0.897,1.326 -0.897,2.288 0,1.599 0.806002,2.769 2.21,2.769 0.507,0 0.988001,-0.26 1.625,-0.78" id="path3995"></path><path d="m 45.405679,142.346 c -0.039,0.052 -0.13,0.182 -0.13,0 0,-0.39 0.065,-0.988 0.065,-0.988 0,-0.065 -0.052,-0.104 -0.156,-0.104 -0.364,0.143 -0.897001,0.26 -1.794,0.377 -0.026,0.078 0,0.286 0.026,0.364 0.701999,0.065 0.845,0.13 0.845,0.884 l 0,2.535 c 0,1.066 -0.130001,1.118 -0.91,1.183 -0.078,0.078 -0.078,0.351 0,0.429 0.532999,-0.013 0.871,-0.026 1.43,-0.026 0.506999,0 0.741,0.013 1.287,0.026 0.078,-0.078 0.078,-0.351 0,-0.429 -0.663,-0.065 -0.78,-0.117 -0.78,-1.183 l 0,-2.132 c 0,-0.273 0.117,-0.429 0.221,-0.546 0.493999,-0.481 1.001,-0.767 1.508,-0.767 0.259999,0 0.533,0.169 0.689,0.468 0.129999,0.26 0.156,0.611 0.156,1.001 l 0,1.976 c 0,1.066 -0.130001,1.118 -0.806,1.183 -0.065,0.078 -0.065,0.351 0,0.429 0.545999,-0.013 0.806,-0.026 1.326,-0.026 0.532999,0 0.819,0.013 1.378,0.026 0.065,-0.078 0.065,-0.351 0,-0.429 -0.728,-0.065 -0.871,-0.117 -0.871,-1.183 l 0,-1.937 c 0,-0.715 -0.052,-1.339 -0.351,-1.742 -0.221,-0.286 -0.624001,-0.442 -1.079,-0.442 -0.637,0 -1.261001,0.169 -2.054,1.053" id="path3997"></path><path d="m 52.942709,138.277 -0.988,1.547 c -0.104,0.169 -0.143,0.221 -0.143,0.364 0,0.091 0.091,0.169 0.182,0.169 0.091,0 0.195,-0.052 0.39,-0.247 l 1.495,-1.417 -0.039,-0.143 c -0.299,-0.286 -0.637,-0.299 -0.715,-0.299 -0.065,0 -0.143,0.013 -0.182,0.026 m 0.637,5.694 0,1.729 c 0,0.169 -0.078,0.26 -0.182,0.338 -0.338,0.273 -0.78,0.559 -1.144,0.559 -0.649999,0 -0.936,-0.52 -0.936,-0.923 0,-0.585 0.273001,-1.17 1.235,-1.43 l 1.027,-0.273 m 0,2.405 c 0.078,0.273 0.299001,0.754 1.001,0.754 0.636999,0 1.105,-0.52 1.105,-0.585 0,-0.091 -0.117,-0.221 -0.169,-0.221 -0.078,0 -0.13,0.208 -0.403,0.208 -0.506999,0 -0.52,-0.507 -0.52,-1.105 l 0,-1.937 c 0,-1.846 -1.014001,-2.197 -1.963,-2.197 -1.065999,0 -2.145,0.741 -2.145,1.443 0,0.312 0.156,0.455 0.455,0.455 0.377,0 0.572,-0.26 0.572,-0.429 0,-0.091 -0.013,-0.182 -0.039,-0.234 -0.013,-0.039 -0.026,-0.117 -0.026,-0.26 0,-0.403 0.585001,-0.546 1.079,-0.546 0.442,0 1.053,0.221 1.053,1.69 0,0.091 -0.039,0.143 -0.078,0.156 l -1.118,0.273 c -1.247999,0.312 -2.145,1.001 -2.145,1.885 0,1.027 0.728001,1.404 1.638,1.404 0.597999,0 0.845001,-0.104 1.417,-0.546 l 0.26,-0.208 0.026,0" id="path3999"></path><path d="m 60.174118,143.334 c 0.246999,-1.469 1.157,-1.586 1.469,-1.586 0.493999,0 1.079,0.273 1.079,1.365 0,0.117 -0.052,0.182 -0.195,0.182 l -2.353,0.039 m 3.406,2.457 c -0.481,0.494 -0.858001,0.702 -1.612,0.702 -0.468,0 -1.014001,-0.273 -1.417,-0.936 -0.26,-0.429 -0.416,-1.027 -0.416,-1.781 l 3.458,0.026 c 0.155999,0 0.247,-0.078 0.247,-0.221 0,-1.092 -0.390002,-2.262 -2.197,-2.262 -1.130999,0 -2.6,1.079 -2.6,3.055 0,0.728 0.182,1.43 0.611,1.924 0.441999,0.52 1.053001,0.832 1.989,0.832 0.987999,0 1.69,-0.455 2.21,-1.131 -0.039,-0.13 -0.117001,-0.195 -0.273,-0.208" id="path4001"></path><path d="m 66.56857,142.346 c -0.039,0.052 -0.13,0.182 -0.13,0 0,-0.39 0.065,-0.988 0.065,-0.988 0,-0.065 -0.052,-0.104 -0.156,-0.104 -0.364,0.143 -0.897001,0.26 -1.794,0.377 -0.026,0.078 0,0.286 0.026,0.364 0.701999,0.065 0.845,0.13 0.845,0.884 l 0,2.535 c 0,1.066 -0.130001,1.118 -0.91,1.183 -0.078,0.078 -0.078,0.351 0,0.429 0.532999,-0.013 0.871,-0.026 1.43,-0.026 0.506999,0 0.741,0.013 1.287,0.026 0.078,-0.078 0.078,-0.351 0,-0.429 -0.662999,-0.065 -0.78,-0.117 -0.78,-1.183 l 0,-2.132 c 0,-0.273 0.117,-0.429 0.221,-0.546 0.493999,-0.481 1.001,-0.767 1.508,-0.767 0.26,0 0.533,0.169 0.689,0.468 0.13,0.26 0.156,0.611 0.156,1.001 l 0,1.976 c 0,1.066 -0.130001,1.118 -0.806,1.183 -0.065,0.078 -0.065,0.351 0,0.429 0.545999,-0.013 0.806,-0.026 1.326,-0.026 0.532999,0 0.819,0.013 1.378,0.026 0.065,-0.078 0.065,-0.351 0,-0.429 -0.727999,-0.065 -0.871,-0.117 -0.871,-1.183 l 0,-1.937 c 0,-0.715 -0.052,-1.339 -0.351,-1.742 -0.221,-0.286 -0.624001,-0.442 -1.079,-0.442 -0.636999,0 -1.261001,0.169 -2.054,1.053" id="path4003"></path><path d="m 76.1076,145.817 c -0.052,-0.117 -0.156,-0.169 -0.273,-0.182 -0.441999,0.572 -1.001,0.858 -1.56,0.858 -0.948999,0 -1.742,-0.962 -1.742,-2.483 0,-1.43 0.624001,-2.288 1.482,-2.288 0.767,0 0.871,0.455 0.923,0.91 0.039,0.351 0.221001,0.468 0.494,0.468 0.273,0 0.637,-0.169 0.637,-0.572 0,-0.715 -0.741001,-1.235 -1.989,-1.235 -1.286998,0 -2.665,1.157 -2.665,3.003 0,1.677 0.936002,2.834 2.574,2.834 0.78,0 1.469001,-0.247 2.119,-1.313" id="path4005"></path><path d="m 78.947365,149.08 c 0.195,-0.351 0.364,-0.728 0.533,-1.118 1.039999,-2.496 1.612001,-3.848 2.301,-5.304 0.182,-0.377 0.572001,-0.793 1.053,-0.832 0.078,-0.078 0.078,-0.351 0,-0.429 -0.324999,0.013 -0.559,0.026 -0.923,0.026 -0.454999,0 -0.702,-0.013 -1.183,-0.026 -0.078,0.078 -0.078,0.351 0,0.429 0.403,0.039 0.819,0.117 0.624,0.585 l -1.3,2.977 c -0.091,0.221 -0.195,0.247 -0.312,-0.013 l -1.144,-2.704 c -0.233999,-0.546 -0.376999,-0.78 0.416,-0.845 0.078,-0.078 0.078,-0.351 0,-0.429 -0.480999,0.013 -1.001,0.026 -1.469,0.026 -0.441999,0 -0.793,-0.013 -1.053,-0.026 -0.078,0.078 -0.078,0.351 0,0.429 0.572,0.052 0.676001,0.156 1.027,0.975 l 1.469,3.419 c 0.117,0.273 0.312,0.858 0.182,1.222 -0.143,0.442 -0.312,0.793 -0.507,1.196 -0.143,0.26 -0.325,0.377 -0.65,0.377 -0.182,0 -0.234,-0.039 -0.377,-0.039 -0.376999,0 -0.572,0.39 -0.572,0.559 0,0.273 0.260001,0.481 0.611,0.481 0.273,0 0.793001,-0.104 1.261,-0.936 l 0.013,0" id="path4007"></path><path d="m 83.915275,145.414 c 0,1.079 -0.143001,1.131 -0.871,1.183 -0.078,0.078 -0.078,0.351 0,0.429 0.545999,-0.013 0.845,-0.026 1.391,-0.026 0.454999,0 0.624,0.013 1.183,0.026 0.078,-0.078 0.078,-0.351 0,-0.429 -0.533,-0.052 -0.676,-0.104 -0.676,-1.183 l 0,-1.17 c 0.298999,0.013 0.481,0.104 0.741,0.468 l 0.949,1.339 c 0.259999,0.377 0.299,0.533 0.299,0.702 l 0,0.208 c 0,0.039 0.013,0.065 0.052,0.065 0.259999,-0.013 0.507,-0.026 0.897,-0.026 0.402999,0 0.676,0.013 1.066,0.026 0.078,-0.078 0.078,-0.351 0,-0.429 -0.442,-0.052 -0.832001,-0.104 -1.118,-0.546 l -1.521,-2.249 c -0.039,-0.052 -0.065,-0.117 -0.065,-0.182 0,-0.052 0.013,-0.091 0.052,-0.13 l 0.988,-1.092 c 0.376999,-0.39 0.78,-0.546 1.43,-0.572 0.078,-0.078 0.078,-0.351 0,-0.429 -0.481,0.013 -0.663001,0.026 -1.131,0.026 -0.494,0 -0.715001,-0.013 -1.196,-0.026 -0.078,0.078 -0.078,0.351 0,0.429 0.779999,0.039 0.363999,0.533 0.234,0.663 -0.689,0.754 -1.339001,1.326 -1.677,1.43 l 0,-4.498 c 0,-0.845 0.052,-1.365 0.052,-1.365 0,-0.091 -0.052,-0.13 -0.169,-0.13 -0.325,0.13 -1.300001,0.312 -1.82,0.351 -0.026,0.104 0,0.312 0.078,0.39 0.675999,0.039 0.832,-0.026 0.832,1.066 l 0,5.681" id="path4009"></path><path d="m 90.103754,145.414 c 0,1.079 -0.143,1.144 -0.936,1.183 -0.078,0.078 -0.078,0.351 0,0.429 0.546,-0.013 0.884001,-0.026 1.456,-0.026 0.559,0 0.884001,0.013 1.443,0.026 0.078,-0.078 0.078,-0.351 0,-0.429 -0.792999,-0.039 -0.936,-0.104 -0.936,-1.183 l 0,-5.993 c 0,-0.845 0.052,-1.365 0.052,-1.365 0,-0.091 -0.052,-0.13 -0.169,-0.13 -0.324999,0.13 -1.3,0.312 -1.82,0.351 -0.026,0.104 0,0.312 0.078,0.39 0.676,0.039 0.832,-0.026 0.832,1.066 l 0,5.681" id="path4011"></path><path d="m 92.629492,144.335 c 0,1.326 0.897002,2.795 2.73,2.795 1.936998,0 2.756,-1.612 2.756,-2.912 0,-1.352 -0.715002,-2.925 -2.73,-2.925 -1.754998,0 -2.756,1.391 -2.756,3.042 m 2.613,-2.613 c 1.117999,0 1.755,1.001 1.755,2.912 0,1.716 -0.793001,2.067 -1.404,2.067 -1.351999,0 -1.846,-1.664 -1.846,-2.665 0,-1.131 0.403001,-2.314 1.495,-2.314" id="path4014"></path><path d="m 100.72228,142.645 c 0.403,-0.416 0.923,-0.754 1.313,-0.754 0.832,0 1.547,0.936 1.547,2.405 0,1.066 -0.37701,2.392 -1.833,2.392 -0.234,0 -0.689,-0.065 -0.923,-0.273 -0.273,-0.234 -0.312,-0.299 -0.312,-0.78 l 0,-2.418 c 0,-0.273 0.039,-0.39 0.208,-0.572 m -0.104,-0.429 c -0.052,0.052 -0.13,0.065 -0.13,-0.039 0,-0.468 0.052,-0.832 0.052,-0.832 0,-0.052 -0.065,-0.091 -0.169,-0.091 -0.364,0.143 -0.858005,0.26 -1.755004,0.377 -0.026,0.078 0,0.286 0.026,0.364 0.701999,0.065 0.845,0.143 0.845,0.884 l 0,5.551 c 0,1.079 -0.143001,1.144 -0.936,1.183 -0.078,0.078 -0.078,0.351 0,0.429 0.546,-0.013 0.884001,-0.026 1.456004,-0.026 0.611,0 1.014,0.013 1.573,0.026 0.078,-0.078 0.078,-0.351 0,-0.429 -0.923,-0.052 -1.066,-0.104 -1.066,-1.183 l 0,-1.404 c 0,-0.169 0.039,-0.143 0.182,-0.091 0.312,0.13 0.715,0.195 1.131,0.195 0.728,0 1.378,-0.221 1.911,-0.728 0.611,-0.598 0.962,-1.404 0.962,-2.457 0,-1.378 -0.97501,-2.652 -2.301,-2.652 -0.481,0 -1.196,0.325 -1.781,0.923" id="path4016"></path><path d="m 108.58735,138.277 -0.988,1.547 c -0.104,0.169 -0.143,0.221 -0.143,0.364 0,0.091 0.091,0.169 0.182,0.169 0.091,0 0.195,-0.052 0.39,-0.247 l 1.495,-1.417 -0.039,-0.143 c -0.299,-0.286 -0.637,-0.299 -0.715,-0.299 -0.065,0 -0.143,0.013 -0.182,0.026 m -1.898,5.057 c 0.247,-1.469 1.157,-1.586 1.469,-1.586 0.494,0 1.079,0.273 1.079,1.365 0,0.117 -0.052,0.182 -0.195,0.182 l -2.353,0.039 m 3.406,2.457 c -0.481,0.494 -0.858,0.702 -1.612,0.702 -0.468,0 -1.014,-0.273 -1.417,-0.936 -0.26,-0.429 -0.416,-1.027 -0.416,-1.781 l 3.458,0.026 c 0.156,0 0.247,-0.078 0.247,-0.221 0,-1.092 -0.39,-2.262 -2.197,-2.262 -1.131,0 -2.6,1.079 -2.6,3.055 0,0.728 0.182,1.43 0.611,1.924 0.442,0.52 1.053,0.832 1.989,0.832 0.988,0 1.69,-0.455 2.21,-1.131 -0.039,-0.13 -0.117,-0.195 -0.273,-0.208" id="path4018"></path><path d="m 115.25298,145.388 c 0,0.247 -0.026,0.351 -0.208,0.507 -0.481,0.416 -0.897,0.624 -1.222,0.624 -0.702,0 -1.43,-0.767 -1.43,-2.392 0,-0.936 0.182,-1.456 0.377,-1.729 0.403,-0.611 0.949,-0.65 1.209,-0.65 0.468,0 0.793,0.169 1.053,0.468 0.182,0.208 0.221,0.299 0.221,0.702 l 0,2.47 m -0.143,0.962 c 0.052,-0.052 0.156,-0.078 0.156,0.013 0,0.312 0.143,0.767 0.143,0.767 0.104,0.039 0.143,0.026 0.247,0 0.286,-0.234 0.78,-0.429 1.573,-0.52 0.078,-0.078 0.078,-0.273 0,-0.351 -0.832,-0.065 -0.949,-0.312 -0.949,-0.949 l 0,-5.889 c 0,-0.845 0.052,-1.365 0.052,-1.365 0,-0.091 -0.052,-0.13 -0.169,-0.13 -0.325,0.13 -1.3,0.312 -1.82,0.351 -0.026,0.104 0,0.312 0.078,0.39 0.676,0.039 0.832,-0.026 0.832,1.066 l 0,1.664 c 0,0.091 -0.026,0.117 -0.117,0.117 -0.052,0 -0.585,-0.221 -1.014,-0.221 -0.858,0 -1.43,0.286 -1.95,0.78 -0.559,0.559 -0.897,1.326 -0.897,2.288 0,1.599 0.806,2.769 2.21,2.769 0.507,0 0.988,-0.26 1.625,-0.78" id="path4020"></path><path d="m 118.31415,139.213 c 0,0.338 0.312,0.676 0.624,0.676 0.36399,0 0.676,-0.338 0.676,-0.624 0,-0.312 -0.27301,-0.676 -0.624,-0.676 -0.312,0 -0.676,0.312 -0.676,0.624 m 1.183,6.201 0,-2.587 c 0,-0.65 0.052,-1.482 0.052,-1.482 0,-0.052 -0.065,-0.091 -0.169,-0.091 -0.377,0.143 -0.88401,0.26 -1.781,0.377 -0.026,0.078 0,0.286 0.026,0.364 0.70199,0.078 0.845,0.143 0.845,0.884 l 0,2.535 c 0,1.079 -0.14301,1.118 -0.936,1.183 -0.078,0.078 -0.078,0.351 0,0.429 0.54599,-0.013 0.884,-0.026 1.456,-0.026 0.55899,0 0.884,0.013 1.443,0.026 0.078,-0.078 0.078,-0.351 0,-0.429 -0.793,-0.052 -0.936,-0.104 -0.936,-1.183" id="path4022"></path><path d="m 124.28244,143.971 0,1.729 c 0,0.169 -0.078,0.26 -0.182,0.338 -0.33799,0.273 -0.78,0.559 -1.144,0.559 -0.64999,0 -0.936,-0.52 -0.936,-0.923 0,-0.585 0.27301,-1.17 1.235,-1.43 l 1.027,-0.273 m 0,2.405 c 0.078,0.273 0.29901,0.754 1.001,0.754 0.637,0 1.105,-0.52 1.105,-0.585 0,-0.091 -0.117,-0.221 -0.169,-0.221 -0.078,0 -0.13,0.208 -0.403,0.208 -0.50699,0 -0.52,-0.507 -0.52,-1.105 l 0,-1.937 c 0,-1.846 -1.014,-2.197 -1.963,-2.197 -1.06599,0 -2.145,0.741 -2.145,1.443 0,0.312 0.15601,0.455 0.455,0.455 0.377,0 0.572,-0.26 0.572,-0.429 0,-0.091 -0.013,-0.182 -0.039,-0.234 -0.013,-0.039 -0.026,-0.117 -0.026,-0.26 0,-0.403 0.58501,-0.546 1.079,-0.546 0.442,0 1.053,0.221 1.053,1.69 0,0.091 -0.039,0.143 -0.078,0.156 l -1.118,0.273 c -1.24799,0.312 -2.145,1.001 -2.145,1.885 0,1.027 0.72801,1.404 1.638,1.404 0.598,0 0.84501,-0.104 1.417,-0.546 l 0.26,-0.208 0.026,0" id="path4024"></path></g></svg>
</svg>