<?xml version="1.0" encoding="UTF-8" standalone="no"?>
<!-- Generator: Adobe Illustrator 15.1.0, SVG Export Plug-In . SVG Version: 6.00 Build 0)  -->
<svg xmlns:dc="http://purl.org/dc/elements/1.1/" xmlns:cc="http://creativecommons.org/ns#" xmlns:rdf="http://www.w3.org/1999/02/22-rdf-syntax-ns#" xmlns:svg="http://www.w3.org/2000/svg" xmlns="http://www.w3.org/2000/svg" xmlns:sodipodi="http://sodipodi.sourceforge.net/DTD/sodipodi-0.dtd" xmlns:inkscape="http://www.inkscape.org/namespaces/inkscape" version="1.1" id="svg3857" inkscape:version="0.46" sodipodi:docname="Wikipedia-logo-v2-ig-v2.svg" x="0px" y="0px" width="135px" height="155px" viewBox="0 0 135 155" enable-background="new 0 0 135 155" xml:space="preserve" sodipodi:version="0.32" inkscape:output_extension="org.inkscape.output.svg.inkscape"><metadata id="metadata698"><rdf:rdf><cc:work rdf:about=""><dc:format>image/svg+xml</dc:format><dc:type rdf:resource="http://purl.org/dc/dcmitype/StillImage"></dc:type></cc:work></rdf:rdf></metadata><defs id="defs3"></defs><sodipodi:namedview id="namedview4848" showgrid="false" pagecolor="#ffffff" objecttolerance="10" guidetolerance="10" inkscape:cy="45.475975" inkscape:guide-bbox="true" showguides="true" inkscape:zoom="2.6147005" inkscape:pageopacity="0" gridtolerance="10" inkscape:window-height="723" bordercolor="#666666" inkscape:window-y="24" borderopacity="1" inkscape:pageshadow="2" inkscape:window-x="0" inkscape:window-width="1024" inkscape:cx="71.404719" inkscape:current-layer="svg3857" inkscape:window-maximized="0">
	<sodipodi:guide id="globe_top" orientation="0,1" position="0,140"></sodipodi:guide>
	<sodipodi:guide id="globe_left" orientation="1,0" position="16,0"></sodipodi:guide>
	<sodipodi:guide id="globe_right" orientation="1,0" position="119,0"></sodipodi:guide>
	<sodipodi:guide id="globe_bottom" orientation="0,1" position="0,47"></sodipodi:guide>
	<sodipodi:guide id="wordmark_top" orientation="0,1" position="8,40"></sodipodi:guide>
	<sodipodi:guide id="wordmark_bottom" orientation="0,1" position="8,22.5"></sodipodi:guide>
	<sodipodi:guide id="subtitle_top" orientation="0,1" position="0,17"></sodipodi:guide>
	<sodipodi:guide id="subtitle_bottom" orientation="0,1" position="0,8"></sodipodi:guide>
	<sodipodi:guide id="wordmark_left" orientation="1,0" position="8,40"></sodipodi:guide>
	<sodipodi:guide id="wordmark_right" orientation="1,0" position="127,40"></sodipodi:guide>
</sodipodi:namedview><g id="Wikipedia">
	<path id="path3898" d="M18.757,118.893c0,0-0.367-0.746-0.492-0.994c-0.834-1.652-0.816-1.74-1.659-1.852   c-0.236-0.031-0.358-0.061-0.358-0.178v-0.523l0.071-0.051c1.523-0.002,4.912-0.002,4.912-0.002l0.13,0.043v0.521   c0,0.119-0.085,0.18-0.258,0.18l-0.356,0.051c-0.9,0.07-0.753,0.438-0.155,1.629l5.677,11.615l0.194,0.053l5.04-11.961   c0.175-0.482,0.148-0.824-0.077-1.025c-0.226-0.195-0.385-0.312-0.969-0.336l-0.473-0.023c-0.058,0-0.113-0.021-0.166-0.061   c-0.052-0.037-0.079-0.086-0.079-0.145v-0.498l0.072-0.051c1.42,0,5.694,0,5.694,0l0.058,0.051v0.498   c0,0.135-0.077,0.203-0.229,0.203c-0.746,0.033-1.299,0.195-1.657,0.484c-0.359,0.291-0.639,0.691-0.84,1.213   c0,0-4.635,10.608-6.221,14.135c-0.607,1.156-1.204,1.05-1.729-0.033c-1.109-2.284-4.232-9.213-4.232-9.213L18.757,118.893z"></path>
	<path id="path3900" d="M27.853,115.287c0,0-3.203-0.01-4.629,0l-0.071,0.051v0.496c0,0.061,0.026,0.109,0.078,0.146   c0.053,0.039,0.107,0.059,0.165,0.059l0.229,0.025c0.583,0.023,0.851,0.177,0.931,0.272c0.139,0.17,0.208,0.354-0.129,1.089   l-5.98,11.928l-0.157-0.041c0,0-4.283-9.031-5.523-12.053c-0.129-0.312-0.187-0.545-0.187-0.688c0-0.307,0.277-0.473,0.831-0.496   l0.646-0.027c0.171,0,0.258-0.066,0.258-0.203v-0.496l-0.058-0.051c0,0-5.13-0.006-6.19,0l-0.058,0.051v0.521   c0,0.094,0.119,0.152,0.358,0.178c0.651,0.035,1.079,0.139,1.285,0.312c0.205,0.175,0.422,0.617,0.71,1.306   c1.557,3.74,4.865,10.414,6.476,14.215c0.464,1.038,1.047,1.199,1.755-0.032c1.226-2.273,4.55-9.218,4.55-9.218l2.618-4.896   c0.305-0.518,0.599-0.979,0.748-1.193c0.273-0.393,0.426-0.467,1.172-0.502c0.152,0,0.229-0.068,0.229-0.205v-0.496L27.853,115.287   z"></path>
	<path id="path3904" d="M37.592,130.77c0,0.572,0.26,0.91,1.092,0.988l0.546,0.053c0.078,0,0.156,0.051,0.156,0.155v0.546   l-0.026,0.053c0,0-1.976-0.053-2.782-0.053c-0.728,0-2.756,0.053-2.756,0.053l-0.052-0.053v-0.546c0-0.104,0.078-0.155,0.182-0.155   l0.52-0.053c0.858-0.078,1.118-0.494,1.118-0.988v-8.658c0-0.57-0.313-0.729-1.118-0.805l-0.52-0.054   c-0.104,0-0.182-0.024-0.182-0.104v-0.599l0.026-0.052c0,0,2.054,0.052,2.86,0.052c0.702,0,2.704-0.052,2.704-0.052l0.026,0.052   v0.572c0,0.078-0.052,0.13-0.156,0.13l-0.546,0.053c-0.806,0.077-1.092,0.286-1.092,0.807V130.77z"></path>
	<path id="path3906" d="M45.265,130.77c0,0.572,0.338,0.858,1.092,0.988l0.286,0.053c0.078,0.025,0.156,0.051,0.156,0.155v0.546   l-0.026,0.053c0,0-1.638-0.053-2.418-0.053c-0.728,0-2.86,0.053-2.86,0.053l-0.052-0.053v-0.546c0-0.104,0.078-0.155,0.182-0.155   l0.52-0.053c0.78-0.078,1.118-0.494,1.118-0.988v-8.658c0-0.57-0.286-0.729-1.118-0.805l-0.52-0.054   c-0.104,0-0.182-0.024-0.182-0.104v-0.599l0.026-0.052c0,0,2.132,0.052,2.938,0.052c0.729,0,2.366-0.052,2.366-0.052l0.026,0.052   v0.572c0,0.078-0.052,0.104-0.156,0.13l-0.286,0.053c-0.806,0.155-1.092,0.286-1.092,0.807v3.927c0.858,0,1.352-0.44,2.496-1.664   c1.04-1.146,1.846-2.104,1.846-2.601c0-0.209-0.234-0.441-0.754-0.521c-0.104-0.024-0.156-0.052-0.156-0.13v-0.6l0.026-0.024   c0,0,2.106,0.052,2.86,0.052c0.676,0,1.82-0.052,1.82-0.052l0.078,0.024v0.6c0,0.078-0.078,0.13-0.208,0.13   c-1.014,0.078-1.716,0.13-2.652,1.196l-2.236,2.572c-0.442,0.47-0.598,0.754-0.598,0.963c0,0.156,0.104,0.285,0.234,0.441   l3.926,4.732c0.312,0.363,0.936,0.52,1.456,0.623l0.13,0.025c0.078,0.025,0.182,0.077,0.182,0.155v0.546l-0.078,0.026   c0,0-1.378-0.026-2.106-0.026c-0.65,0-1.586,0.026-1.586,0.026l-0.026-0.026v-0.312c0-0.339-0.026-0.623-0.39-1.039l-2.886-3.589   c-0.39-0.521-0.806-0.649-1.378-0.649V130.77L45.265,130.77z"></path>
	<path id="path3908" d="M59.282,130.77c0,0.572,0.26,0.91,1.092,0.988l0.546,0.053c0.078,0,0.156,0.051,0.156,0.155v0.546   l-0.026,0.053c0,0-1.976-0.053-2.782-0.053c-0.728,0-2.756,0.053-2.756,0.053l-0.052-0.053v-0.546c0-0.104,0.078-0.155,0.182-0.155   l0.52-0.053c0.858-0.078,1.118-0.494,1.118-0.988v-8.658c0-0.57-0.312-0.729-1.118-0.805l-0.52-0.054   c-0.104,0-0.182-0.024-0.182-0.104v-0.599l0.026-0.052c0,0,2.054,0.052,2.86,0.052c0.702,0,2.704-0.052,2.704-0.052l0.026,0.052   v0.572c0,0.078-0.052,0.13-0.156,0.13l-0.546,0.053c-0.806,0.077-1.092,0.286-1.092,0.807V130.77z"></path>
	<path id="path3910" d="M64.9,122.163c0-0.806-0.338-0.832-1.56-0.91c-0.156,0-0.182-0.077-0.182-0.13v-0.598l0.052-0.026   c0.39,0,1.924,0.052,2.678,0.052c0.728,0,1.768-0.052,2.73-0.052c3.69,0,4.366,1.819,4.366,3.173c0,1.561-0.754,4.004-4.444,4.004   c-0.65,0-1.17-0.053-1.639-0.26v3.482c0,0.571,0.312,0.703,1.145,0.832l0.521,0.078c0.104,0.025,0.183,0.053,0.183,0.155v0.546   l-0.024,0.053c0,0-2.081-0.053-2.887-0.053c-0.728,0-2.678,0.053-2.678,0.053l-0.026-0.053v-0.546c0-0.104,0.052-0.13,0.156-0.155   l0.546-0.078c0.806-0.104,1.066-0.338,1.066-0.832L64.9,122.163L64.9,122.163L64.9,122.163z M66.902,126.688   c0.52,0.209,1.17,0.234,1.69,0.234c1.561,0,2.312-0.938,2.312-2.938c0-2.236-1.014-2.73-2.442-2.73   c-1.249,0-1.561,0.234-1.561,0.91L66.902,126.688L66.902,126.688z"></path>
	<path id="path3912" d="M77.462,132.512c-0.78,0-2.573,0.053-2.573,0.053l-0.027-0.053v-0.572c0-0.051,0.027-0.129,0.156-0.129   l0.6-0.053c0.807-0.078,1.041-0.598,1.041-1.117v-8.58c0-0.6-0.312-0.703-1.041-0.754l-0.6-0.054   c-0.156-0.024-0.156-0.077-0.156-0.104v-0.599l0.027-0.052c0,0,2.027,0.052,2.807,0.052h3.822c0.78,0,2.627-0.052,2.627-0.052   l0.054,0.052c0.024,1.118,0.206,2.134,0.39,3.121l-0.648,0.104c-0.285-0.963-0.779-2.34-2.443-2.34h-2.08   c-0.494,0-0.754,0.182-0.754,0.623v3.771h1.949c0.729,0,0.91-0.312,1.015-0.832l0.155-0.546c0-0.078,0.053-0.131,0.156-0.131h0.44   c0.054,0,0.054,0.027,0.054,0.078c-0.054,0.571-0.156,1.301-0.156,1.925c0,0.649,0.104,1.196,0.156,1.794l-0.054,0.053h-0.44   c-0.129,0-0.184-0.053-0.184-0.131l-0.13-0.571c-0.104-0.521-0.338-0.807-1.017-0.807H78.66v3.979c0,0.492,0.283,0.986,0.754,0.986   h2.47c1.326,0,2.056-0.832,2.366-2.186l0.648,0.078l-0.521,2.989l-0.052,0.052c0,0-1.534-0.052-2.314-0.052L77.462,132.512   L77.462,132.512L77.462,132.512z"></path>
	<path id="path3914" d="M87.24,131.811l0.598-0.053c0.781-0.078,1.041-0.312,1.041-1.117v-8.58c0-0.678-0.184-0.678-1.041-0.754   l-0.57-0.054c-0.104,0-0.184-0.052-0.184-0.13v-0.572l0.025-0.052c0,0,2.289,0.052,2.758,0.052c0.492,0,2.756-0.052,3.432-0.052   c4.342,0,6.475,2.704,6.475,6.162c0,4.551-3.225,5.901-6.109,5.901c-2.08,0-2.989-0.053-3.795-0.053   c-0.781,0-2.758,0.053-2.758,0.053l-0.025-0.053v-0.546C87.084,131.889,87.137,131.811,87.24,131.811z M93.039,131.811   c2.859,0,4.473-1.064,4.473-4.707c0-2.703-0.599-5.851-4.967-5.851c-1.014,0-1.664,0.156-1.664,0.808v8.58   C90.881,131.367,91.062,131.811,93.039,131.811z"></path>
	<path id="path3916" d="M105.912,130.77c0,0.572,0.26,0.91,1.092,0.988l0.546,0.053c0.078,0,0.156,0.051,0.156,0.155v0.546   l-0.026,0.053c0,0-1.976-0.053-2.781-0.053c-0.729,0-2.756,0.053-2.756,0.053l-0.053-0.053v-0.546c0-0.104,0.078-0.155,0.182-0.155   l0.521-0.053c0.857-0.078,1.118-0.494,1.118-0.988v-8.658c0-0.57-0.313-0.729-1.118-0.805l-0.521-0.054   c-0.104,0-0.182-0.024-0.182-0.104v-0.599l0.026-0.052c0,0,2.054,0.052,2.858,0.052c0.701,0,2.705-0.052,2.705-0.052l0.024,0.052   v0.572c0,0.078-0.054,0.13-0.156,0.13l-0.546,0.053c-0.807,0.077-1.092,0.286-1.092,0.807L105.912,130.77L105.912,130.77   L105.912,130.77z"></path>
	<path id="path3918" d="M113.922,131.758l0.754,0.053c0.104,0,0.208,0.078,0.208,0.207v0.494l-0.052,0.053   c0,0-2.834-0.053-3.458-0.053c-0.677,0-2.341,0.053-2.341,0.053l-0.053-0.053v-0.494c0-0.129,0.078-0.207,0.209-0.207   c1.145-0.078,1.793-0.287,2.521-1.951l5.771-13.521c0.285-0.676,0.494-0.937,0.886-0.937c0.362,0,0.493,0.261,0.7,0.781   l5.33,14.092c0.365,1.015,0.886,1.404,1.926,1.508l0.285,0.025c0.131,0,0.261,0.077,0.261,0.209v0.492l-0.078,0.053   c0,0-2.002-0.053-3.017-0.053c-0.91,0-3.459,0.053-3.459,0.053l-0.024-0.053v-0.492c0-0.132,0.052-0.209,0.185-0.209l0.728-0.053   c0.987-0.077,1.353-0.391,1.092-1.117l-1.586-4.396H115.3c-0.624,0-0.78,0.104-0.909,0.44l-1.509,3.771   C112.622,131.107,112.96,131.68,113.922,131.758z M120.292,125.152l-2.522-6.941h-0.052l-2.6,6.604   c-0.104,0.262,0.077,0.338,0.649,0.338H120.292L120.292,125.152z"></path>
</g><path d="M 10.268098,151.15466 C 10.229083,151.14154 10.162017,151.10423 10.11907,151.07172 C 10.076121,151.0392 9.0789288,149.67094 7.9030862,148.03123 C 6.7272446,146.3915 5.7297676,145.01818 5.6864708,144.9794 C 5.6431736,144.94061 5.5924186,144.90889 5.5736807,144.90889 C 5.4669401,144.90889 5.4677236,144.88995 5.4677236,147.4709 C 5.4677236,149.75646 5.4712178,149.95421 5.5145289,150.1219 C 5.5402714,150.2215 5.5943963,150.347 5.6348067,150.40067 C 5.7278953,150.52428 5.9373707,150.61596 6.2218895,150.65759 C 6.3515215,150.67653 6.4497346,150.70585 6.4694855,150.73141 C 6.5035701,150.77545 6.5118983,150.9031 6.4871066,151.00135 C 6.4728403,151.05782 6.4607178,151.05839 5.2032058,151.05714 C 3.8038792,151.05599 3.8844472,151.06626 3.8836369,150.87977 C 3.8829451,150.72032 3.9153517,150.6894 4.1047917,150.66874 C 4.3203972,150.64524 4.560408,150.56663 4.6698903,150.48363 C 4.7811316,150.39932 4.8683492,150.18752 4.9028968,149.91783 C 4.9211471,149.77535 4.9307411,148.73172 4.9305739,146.90711 L 4.9303181,144.11445 L 4.8664566,143.96845 C 4.7901445,143.79399 4.5952867,143.56474 4.442054,143.46915 C 4.3811004,143.43116 4.2569478,143.37868 4.1661594,143.35271 L 4.0010898,143.30537 L 3.9942944,143.15235 C 3.9905643,143.06815 3.9967167,142.9844 4.0079754,142.96613 C 4.0234239,142.94103 4.2147782,142.93704 4.7877011,142.94948 L 5.5469547,142.96602 L 7.6418082,145.94901 C 8.7939781,147.58964 9.7811323,148.99274 9.8354834,149.06699 C 9.9535019,149.22821 10.050167,149.25097 10.08318,149.12529 C 10.094263,149.08307 10.10332,147.94469 10.10332,146.59545 C 10.10332,144.33693 10.099569,144.12543 10.056491,143.92999 C 9.9734447,143.55358 9.8020215,143.41645 9.3281261,143.3474 C 9.2073786,143.32983 9.0998191,143.30073 9.0891039,143.28282 C 9.0668738,143.24563 9.0620934,143.03648 9.0822441,142.9807 C 9.0931661,142.95035 9.330616,142.94431 10.372094,142.94762 L 11.648563,142.95218 L 11.670311,143.05965 C 11.683537,143.12502 11.681501,143.19639 11.665059,143.24186 C 11.642496,143.30438 11.617619,143.31933 11.512366,143.33348 C 11.276351,143.36519 11.050832,143.43194 10.934457,143.5045 C 10.796229,143.59075 10.710287,143.76512 10.66798,144.04525 C 10.65007,144.16383 10.640541,145.36917 10.640412,147.53335 C 10.640308,149.35215 10.633231,150.87763 10.624613,150.9233 C 10.589628,151.10949 10.433904,151.21079 10.268092,151.15522 L 10.268092,151.15522 L 10.268098,151.15466 z M 11.591763,153.8058 C 11.400101,153.73529 11.281432,153.6297 11.228703,153.48274 C 11.172625,153.32642 11.191178,153.20796 11.295372,153.05715 C 11.470987,152.80296 11.664673,152.81021 11.936759,153.08111 C 12.18794,153.33122 12.3595,153.38383 12.550777,153.26939 C 12.816164,153.11063 12.930812,152.6598 12.996747,151.51572 C 13.011324,151.26272 13.023308,150.08894 13.023372,148.90731 C 13.023504,146.60633 13.022193,146.58211 12.892268,146.40624 C 12.83157,146.3241 12.631773,146.24575 12.42171,146.2217 L 12.277084,146.20516 L 12.269259,146.04574 C 12.260256,145.86322 12.23526,145.88019 12.591366,145.82744 C 12.905924,145.7809 13.388671,145.66886 13.617088,145.58949 C 13.737764,145.54762 13.845867,145.52594 13.883934,145.5361 L 13.947923,145.55321 L 13.928351,145.85131 C 13.91759,146.01527 13.899336,147.24708 13.887782,148.58867 C 13.86597,151.12206 13.856741,151.33301 13.740888,151.94784 C 13.594294,152.72577 13.313813,153.24954 12.884336,153.54738 C 12.681369,153.68814 12.49966,153.75893 12.197141,153.81507 C 11.903439,153.86961 11.759149,153.86744 11.591762,153.80594 L 11.591762,153.80594 L 11.591763,153.8058 z M 13.219921,144.11244 C 13.034017,144.00976 12.867158,143.74363 12.866614,143.54897 C 12.865896,143.29207 13.096383,143.01713 13.371494,142.9467 C 13.641184,142.87768 13.966332,143.22338 13.966332,143.57917 C 13.966332,143.71804 13.931861,143.80036 13.816909,143.93607 C 13.646079,144.13775 13.39825,144.21096 13.219921,144.11244 L 13.219921,144.11244 z M 15.142612,151.00943 C 15.111507,150.9476 15.112171,150.84066 15.14422,150.75092 C 15.164874,150.69308 15.187179,150.67939 15.260785,150.67939 C 15.500646,150.67939 15.792002,150.56508 15.868379,150.44101 C 15.974234,150.26905 15.982156,150.12344 15.981384,148.3656 C 15.980604,146.58783 15.978169,146.54885 15.861031,146.40832 C 15.78716,146.31967 15.609676,146.24679 15.422665,146.22821 C 15.236844,146.20972 15.224507,146.19501 15.223795,145.9913 C 15.223388,145.87479 15.197492,145.88611 15.625423,145.81496 C 15.979699,145.75598 16.3496,145.66901 16.593393,145.58726 C 16.705872,145.5495 16.817405,145.52269 16.841245,145.5276 C 16.88115,145.53558 16.884666,145.71988 16.885545,147.85009 C 16.886426,149.99396 16.889939,150.17437 16.933124,150.30927 C 16.963832,150.4051 17.008903,150.47852 17.065094,150.52414 C 17.163372,150.60389 17.409799,150.67941 17.572008,150.67941 C 17.655376,150.67941 17.690268,150.69299 17.71055,150.73337 C 17.741655,150.79521 17.7462,150.98581 17.717624,151.02934 C 17.704612,151.04919 17.288718,151.05844 16.432459,151.05787 C 15.26623,151.05712 15.16465,151.0533 15.142609,151.00949 L 15.142612,151.00943 z M 16.188333,144.10143 C 15.960942,143.96982 15.823258,143.66121 15.881702,143.41416 C 15.950257,143.12437 16.293852,142.88895 16.543715,142.96057 C 16.794167,143.03233 17.019337,143.42155 16.954662,143.67087 C 16.85944,144.03794 16.463229,144.26055 16.188333,144.10143 L 16.188333,144.10143 z M 18.112349,151.02011 C 18.091898,150.96341 18.096154,150.75401 18.118459,150.71851 C 18.12907,150.70162 18.219984,150.67995 18.320541,150.67013 C 18.685731,150.63477 18.828408,150.48501 18.882973,150.08003 C 18.918697,149.81486 18.918569,143.76475 18.882833,143.50153 C 18.831428,143.12293 18.730204,143.02181 18.373824,142.99313 C 18.265644,142.984 18.164907,142.96164 18.149963,142.94247 C 18.135022,142.9233 18.115997,142.84652 18.107679,142.77178 L 18.092566,142.63594 L 18.350843,142.60296 C 18.707936,142.55733 19.271191,142.43764 19.516694,142.35508 C 19.679885,142.30021 19.732892,142.29256 19.776691,142.31755 C 19.825363,142.34527 19.829833,142.36546 19.81547,142.4929 C 19.806574,142.57208 19.792608,143.86437 19.784505,145.36458 L 19.769788,148.09225 L 19.831108,148.0724 C 20.057402,147.99927 20.510753,147.59132 21.038617,146.98569 C 21.38533,146.5879 21.475318,146.4431 21.476339,146.28138 C 21.4768,146.20825 21.460155,146.1795 21.391792,146.13515 C 21.344974,146.10481 21.250533,146.07195 21.181914,146.06225 C 21.040721,146.04217 21.02239,146.00897 21.036506,145.79871 L 21.044759,145.67549 L 22.079259,145.67549 L 23.113759,145.67549 L 23.122012,145.79871 C 23.13675,146.01821 23.117403,146.05176 22.975746,146.05231 C 22.650163,146.05346 22.223708,146.22336 21.989525,146.44492 C 21.918569,146.512 21.650456,146.82307 21.393707,147.13607 C 20.872105,147.77195 20.870482,147.77553 20.999357,148.00549 C 21.310852,148.56131 22.351787,150.21576 22.472283,150.34654 C 22.634685,150.5228 22.798146,150.6027 23.109419,150.65797 C 23.212627,150.67634 23.305729,150.70429 23.316311,150.72015 C 23.341275,150.75769 23.341275,150.99117 23.316311,151.02946 C 23.303396,151.04931 23.011676,151.05844 22.428734,151.0573 L 21.560397,151.05615 L 21.55,150.84707 C 21.543033,150.70724 21.519056,150.5884 21.477447,150.48823 C 21.398645,150.29851 20.434583,148.78321 20.289247,148.62062 C 20.161451,148.47766 20.009853,148.39537 19.872695,148.39451 L 19.774482,148.39389 L 19.774697,149.09779 C 19.775096,150.40419 19.839244,150.61078 20.264487,150.67526 C 20.382901,150.69317 20.391315,150.70013 20.414384,150.79933 C 20.42968,150.86504 20.429476,150.93269 20.413831,150.98003 L 20.388836,151.05568 L 19.257502,151.05682 C 18.316677,151.05796 18.123824,151.05225 18.112249,151.01997 L 18.112349,151.02011 z M 26.07324,151.16283 C 25.659551,151.11845 25.241935,150.96939 24.950999,150.76226 C 24.498736,150.44028 24.135055,149.85231 23.978134,149.1894 C 23.769267,148.30705 23.964329,147.22968 24.463055,146.51109 C 25.034862,145.68721 26.03628,145.36597 27.054127,145.67993 C 27.501615,145.81796 27.841763,146.05146 28.078679,146.38323 C 28.248571,146.62115 28.475856,147.11391 28.559995,147.42676 C 28.96613,148.93681 28.28083,150.61904 27.094644,151.02382 C 26.792716,151.12684 26.327724,151.19013 26.07324,151.16283 L 26.07324,151.16283 z M 26.933186,150.68566 C 27.490398,150.4081 27.709577,149.84236 27.709951,148.68067 C 27.710462,147.0971 27.27664,146.15883 26.45749,145.97182 C 25.90116,145.84483 25.391366,146.11615 25.143645,146.67107 C 24.814028,147.40945 24.760238,148.3768 24.998998,149.27246 C 25.123986,149.74132 25.423387,150.28139 25.672815,150.48789 C 26.035154,150.78787 26.561999,150.87054 26.933186,150.68566 L 26.933186,150.68566 z M 30.845934,151.15261 C 30.612999,151.09008 30.397734,150.90452 30.313201,150.69335 C 30.190535,150.38693 30.190662,150.3893 30.178959,148.20533 L 30.167865,146.13546 L 29.816345,146.13546 L 29.464826,146.13546 L 29.464826,145.9682 C 29.464826,145.71098 29.49622,145.68943 29.870768,145.68943 L 30.171951,145.68943 L 30.171951,144.92075 L 30.171951,144.15209 L 30.57994,143.94388 C 30.987092,143.73609 31.071325,143.71505 31.093488,143.81562 C 31.099276,143.84197 31.095846,143.98893 31.085878,144.14226 C 31.07591,144.29558 31.06651,144.70642 31.065063,145.05523 L 31.06249,145.68943 L 31.779908,145.68943 C 32.577076,145.68943 32.529122,145.677 32.529122,145.88376 C 32.529122,145.94662 32.508757,146.0167 32.479088,146.05571 C 32.42914,146.12143 32.427972,146.12154 31.745772,146.12976 L 31.062486,146.13774 L 31.063399,147.98327 C 31.064349,149.90197 31.07535,150.12843 31.177837,150.33939 C 31.20131,150.38765 31.258011,150.44789 31.303839,150.47309 C 31.470415,150.56482 31.926199,150.46739 32.22456,150.27585 C 32.398796,150.16416 32.450219,150.15564 32.511964,150.22828 C 32.580958,150.30939 32.563316,150.38054 32.443998,150.50218 C 32.160133,150.79157 31.863486,150.9827 31.526292,151.09346 C 31.319098,151.16146 30.98734,151.19021 30.84601,151.15222 L 30.84601,151.15222 L 30.845934,151.15261 z M 34.296855,151.15328 C 33.831032,151.07866 33.469551,150.83555 33.325043,150.49957 C 33.010225,149.76762 33.248524,149.03576 33.969263,148.52105 C 34.336922,148.25848 34.643328,148.13459 35.492121,147.90532 C 35.875114,147.80184 36.062062,147.73872 36.086476,147.70458 C 36.113894,147.66624 36.118256,147.58822 36.105448,147.36578 C 36.061813,146.60794 35.912505,146.24291 35.561515,146.03593 C 35.431428,145.95926 35.405509,145.95436 35.134924,145.95538 C 34.684559,145.95767 34.378527,146.08069 34.269719,146.30466 C 34.223748,146.39924 34.219825,146.64625 34.26168,146.81272 C 34.298702,146.96005 34.279473,147.05133 34.186651,147.16872 C 34.046201,147.34639 33.785214,147.4112 33.604698,147.31322 C 33.461983,147.23575 33.414269,147.14419 33.414269,146.94779 C 33.414269,146.4187 33.993195,145.84436 34.742095,145.63048 C 34.906669,145.58348 35.030267,145.57024 35.318272,145.56864 C 35.648736,145.56636 35.705611,145.57435 35.894449,145.64109 C 36.1377,145.72746 36.471738,145.95052 36.582997,146.10081 C 36.771692,146.3557 36.897789,146.7427 36.953091,147.23668 C 36.969083,147.37956 36.981216,148.01754 36.981248,148.71867 C 36.981353,150.31529 37.001924,150.45107 37.262453,150.57374 C 37.42669,150.65109 37.578415,150.63101 37.701796,150.51578 C 37.814183,150.41071 37.827694,150.40934 37.881859,150.4973 C 37.951733,150.61082 37.932836,150.66677 37.773566,150.81814 C 37.403996,151.16939 36.93898,151.26186 36.541752,151.06311 C 36.405782,150.99512 36.210128,150.74799 36.163948,150.58598 C 36.147099,150.52688 36.118298,150.47246 36.099927,150.4649 C 36.081566,150.45691 35.980672,150.52491 35.875728,150.6148 C 35.56887,150.8778 35.499405,150.92763 35.298764,151.02867 C 35.026457,151.16581 34.659726,151.21144 34.296857,151.15335 L 34.296855,151.15328 z M 35.338012,150.5752 C 35.649509,150.42005 36.003462,150.13543 36.07946,149.979 C 36.109825,149.91648 36.117049,149.72967 36.117049,149.0063 C 36.117049,148.16665 36.114155,148.11188 36.071217,148.12551 C 36.046008,148.1335 35.807354,148.20366 35.540872,148.28142 C 35.269712,148.3606 34.961369,148.47094 34.84064,148.53214 C 34.364293,148.77357 34.118417,149.18493 34.115039,149.74609 C 34.113646,149.97571 34.121042,150.0137 34.199608,150.18368 C 34.301358,150.40371 34.473662,150.57819 34.64804,150.63775 C 34.843955,150.70473 35.130172,150.67871 35.338015,150.57523 L 35.338015,150.57523 L 35.338012,150.5752 z M 43.299669,142.20957 C 43.235026,142.13359 43.245015,142.00282 43.321288,141.92654 C 43.357023,141.89083 43.707635,141.6144 44.100437,141.31231 L 44.814619,140.76304 L 44.944008,140.83582 C 45.094442,140.92036 45.492805,141.32157 45.476872,141.37244 C 45.467118,141.40348 43.909198,142.11522 43.624863,142.21848 C 43.469142,142.27507 43.352583,142.27188 43.299667,142.20936 L 43.299669,142.20957 z M 40.914033,151 C 40.889563,150.90302 40.898041,150.7753 40.931975,150.72986 C 40.955213,150.69871 41.029674,150.68149 41.188463,150.67053 C 41.438348,150.65331 41.673847,150.57299 41.755917,150.47703 C 41.944378,150.25674 41.944906,150.24709 41.945721,147.01358 C 41.946179,145.1973 41.936717,144.10467 41.919493,143.98893 C 41.880328,143.72554 41.788291,143.54012 41.658032,143.46219 C 41.546976,143.39579 41.226692,143.32254 41.039787,143.32086 C 40.922367,143.3198 40.899903,143.28606 40.899994,143.11081 C 40.900084,142.93819 40.730115,142.94935 43.299417,142.95329 C 44.593719,142.95557 45.703176,142.94644 45.764875,142.93286 C 45.857043,142.91313 45.88103,142.91689 45.899326,142.95408 C 45.917987,142.99196 45.978085,143.39963 46.136118,144.5604 C 46.154436,144.69497 46.151424,144.7339 46.120673,144.75955 C 46.0708,144.80119 45.848297,144.83633 45.823803,144.80655 C 45.813406,144.79389 45.766556,144.66425 45.719802,144.51859 C 45.546243,143.9779 45.356407,143.68653 45.096943,143.56258 C 44.860308,143.44952 44.643248,143.42706 43.880985,143.43665 C 43.07455,143.44692 43.058296,143.45125 42.953396,143.69107 L 42.890168,143.83561 L 42.889911,145.18067 L 42.889655,146.52574 L 43.642614,146.52531 C 44.63893,146.52472 44.769467,146.49279 44.899541,146.21722 C 44.936938,146.13804 44.964517,146.01428 44.975449,145.87667 C 44.994625,145.63517 45.008441,145.62115 45.209957,145.63871 L 45.312222,145.64783 L 45.319081,146.74713 C 45.324441,147.60805 45.318773,147.85126 45.292896,147.86875 C 45.251469,147.8967 45.060105,147.89807 45.021591,147.87103 C 45.005781,147.85963 44.985106,147.76904 44.975641,147.66935 C 44.953325,147.43438 44.845847,147.20103 44.726582,147.12862 C 44.555148,147.02457 44.366323,146.99949 43.615634,146.98132 L 42.888064,146.96375 L 42.895459,148.61982 L 42.902855,150.2759 L 42.964314,150.38109 C 43.0826,150.5836 43.07634,150.58251 44.133782,150.58251 C 45.14488,150.58251 45.21535,150.57453 45.492038,150.42404 C 45.819681,150.24613 46.162069,149.70068 46.320013,149.10503 C 46.362169,148.94604 46.368782,148.93731 46.453807,148.9285 C 46.503005,148.92394 46.587866,148.93307 46.642397,148.95087 C 46.756995,148.98737 46.758368,148.90911 46.630649,149.6208 C 46.563263,149.99629 46.4237,150.65415 46.346771,150.95889 L 46.32214,151.05644 L 43.625175,151.05644 C 40.950363,151.05644 40.928094,151.05598 40.914131,151.00065 L 40.914131,151.00065 L 40.914033,151 z M 51.182817,151.1676 C 51.136953,151.11877 51.070957,150.82723 51.045481,150.56094 C 51.031043,150.40999 51.018674,150.37277 50.982982,150.37277 C 50.958511,150.37277 50.844988,150.45115 50.730715,150.54701 C 50.169731,151.01746 49.854233,151.16794 49.437131,151.164 C 48.722968,151.15716 48.190162,150.78344 47.852477,150.05218 C 47.612232,149.53193 47.537141,149.10158 47.558367,148.36664 C 47.569149,147.99334 47.584455,147.85381 47.638809,147.63309 C 47.710365,147.34255 47.884321,146.92275 48.024625,146.70197 C 48.358065,146.1773 48.871411,145.77698 49.392796,145.63504 C 49.83273,145.51529 50.182013,145.53145 50.686602,145.69506 C 50.915044,145.7691 50.960189,145.77629 50.996758,145.744 C 51.035409,145.70989 51.038528,145.59647 51.028956,144.57576 C 51.01931,143.54614 51.013832,143.43165 50.967604,143.29201 C 50.922501,143.15575 50.902693,143.13121 50.789684,143.07159 C 50.703208,143.02595 50.600993,143.00028 50.470251,142.99138 C 50.284163,142.97872 50.277097,142.97552 50.250402,142.89406 C 50.235236,142.84774 50.222824,142.77012 50.222824,142.72156 L 50.222824,142.63325 L 50.491269,142.59983 C 50.825446,142.55818 51.475337,142.4179 51.677872,142.34373 C 51.834207,142.28646 51.910106,142.29022 51.933914,142.35628 C 51.941417,142.37704 51.937022,142.58665 51.924053,142.82215 C 51.88939,143.45636 51.892069,149.63918 51.927054,149.81298 C 51.992287,150.13677 52.179181,150.28328 52.59803,150.33901 C 52.735934,150.35738 52.749938,150.36571 52.77061,150.44261 C 52.784148,150.49292 52.782679,150.55533 52.766966,150.5994 C 52.743246,150.66568 52.720652,150.67572 52.525313,150.70607 C 52.122666,150.76871 51.641495,150.94744 51.441273,151.10868 C 51.332085,151.19664 51.231482,151.21958 51.182765,151.16767 L 51.182765,151.16767 L 51.182817,151.1676 z M 50.099179,150.52575 C 50.306421,150.43882 50.50056,150.3096 50.724789,150.1095 C 51.047099,149.82187 51.021617,149.98116 51.021617,148.25411 C 51.021617,146.53264 51.036548,146.6392 50.753036,146.33742 C 50.510834,146.07962 50.246175,145.9682 49.876017,145.9682 C 49.523112,145.9682 49.225719,146.10753 48.98716,146.38466 C 48.723259,146.6912 48.578706,147.09754 48.521872,147.69255 C 48.414912,148.8123 48.620224,149.77964 49.066657,150.25947 C 49.389409,150.60636 49.710096,150.68906 50.099179,150.52575 L 50.099179,150.52575 L 50.099179,150.52575 z M 55.195592,151.1542 C 54.337825,151.03815 53.719188,150.50012 53.446795,149.63326 C 53.159828,148.72003 53.273534,147.55221 53.724578,146.78032 C 54.020878,146.27324 54.548994,145.82961 55.053595,145.66392 C 55.640392,145.47124 56.507563,145.64863 56.902876,146.04222 C 57.232399,146.3703 57.451227,146.98647 57.451227,147.58624 C 57.451227,147.85084 57.44844,147.86451 57.38519,147.90861 C 57.325146,147.95049 57.177837,147.95357 55.762061,147.9425 L 54.204972,147.93029 L 54.219517,148.18282 C 54.250632,148.72312 54.349918,149.18101 54.510021,149.52256 C 54.713793,149.95726 54.988757,150.27281 55.3114,150.44218 C 55.561537,150.57351 55.769761,150.60754 56.093768,150.57008 C 56.514224,150.52148 56.790888,150.38352 57.117727,150.05955 C 57.262077,149.91647 57.272085,149.91137 57.344826,149.94393 C 57.492797,150.0101 57.490594,150.06619 57.331964,150.27089 C 57.002931,150.69548 56.535869,151.00677 56.068035,151.11324 C 55.843445,151.16436 55.418122,151.18432 55.195595,151.1542 L 55.195595,151.1542 L 55.195592,151.1542 z M 56.344637,147.48453 C 56.477551,147.46731 56.508753,147.41893 56.507478,147.23146 C 56.504691,146.82541 56.364057,146.39641 56.175876,146.22009 C 55.972694,146.02973 55.851054,145.98342 55.552462,145.98273 C 55.298152,145.98215 55.283934,145.98501 55.06177,146.09914 C 54.797752,146.23416 54.647854,146.38207 54.523645,146.63012 C 54.432849,146.81144 54.299667,147.22168 54.269869,147.41182 L 54.251144,147.5313 L 55.24227,147.5151 C 55.787391,147.50597 56.283455,147.49239 56.344636,147.48452 L 56.344637,147.48453 z M 55.040157,144.59203 C 54.959533,144.54833 54.936874,144.46435 54.974399,144.34818 C 54.991849,144.2941 55.217132,143.88387 55.475023,143.43644 L 55.943915,142.62295 L 56.090538,142.62295 C 56.274351,142.62295 56.433645,142.68068 56.593507,142.80531 C 56.678097,142.87126 56.717909,142.92236 56.717909,142.96503 C 56.717909,143.00929 56.585155,143.16727 56.266134,143.50249 C 55.501939,144.30549 55.214355,144.59169 55.155276,144.608 C 55.124086,144.61713 55.072273,144.60914 55.040155,144.59203 L 55.040157,144.59203 z M 58.224507,151.01971 C 58.20142,150.95571 58.209116,150.79047 58.237841,150.73334 C 58.257038,150.69512 58.292837,150.67937 58.360524,150.67937 C 58.530964,150.67937 58.761271,150.59335 58.853504,150.49512 C 59.015646,150.32254 59.022765,150.23145 59.021465,148.34615 C 59.020286,146.58934 59.017714,146.54865 58.900704,146.40831 C 58.826832,146.31966 58.649348,146.24678 58.462337,146.22819 C 58.27626,146.20971 58.264174,146.19522 58.263467,145.9896 C 58.263055,145.86978 58.219017,145.88749 58.734109,145.8002 C 59.044155,145.74761 59.414533,145.65693 59.775437,145.54513 C 59.947647,145.49174 59.949695,145.49915 59.918372,146.06229 C 59.89357,146.5082 59.897085,146.66509 59.931888,146.66509 C 59.938855,146.66509 60.052409,146.5479 60.184184,146.40465 C 60.4623,146.10233 60.801144,145.82546 61.028471,145.71479 C 61.785894,145.34606 62.585279,145.65935 62.795185,146.40722 C 62.814724,146.47682 62.844318,146.52571 62.866945,146.52571 C 62.888124,146.52571 62.987555,146.44322 63.08791,146.34249 C 63.45646,145.97242 63.769089,145.77169 64.16907,145.64831 C 64.733489,145.47421 65.258124,145.55248 65.54033,145.85286 C 65.715673,146.0395 65.822207,146.3098 65.898902,146.76266 C 65.928303,146.93628 65.936878,147.28513 65.937596,148.33772 C 65.938625,149.85554 65.957243,150.20504 66.047323,150.39816 C 66.122309,150.55891 66.272927,150.64536 66.520921,150.67002 C 66.693768,150.68713 66.695429,150.68816 66.71178,150.78091 C 66.720891,150.83237 66.720998,150.91577 66.71211,150.96621 L 66.695947,151.05793 L 65.52577,151.05683 L 64.355593,151.05571 L 64.333535,150.96512 C 64.321401,150.91527 64.321401,150.83375 64.333522,150.78393 C 64.354401,150.69813 64.363683,150.6922 64.509815,150.67269 C 64.735649,150.64257 64.824791,150.60366 64.912605,150.49722 C 65.055087,150.32449 65.055746,150.31647 65.065917,148.6324 C 65.074063,147.28529 65.069668,147.04269 65.03329,146.84827 C 64.982999,146.57912 64.890515,146.40544 64.735778,146.2896 C 64.630877,146.21099 64.604058,146.20449 64.354861,146.1957 C 64.119932,146.18772 64.061144,146.19551 63.87931,146.2605 C 63.598354,146.3609 63.40759,146.49002 63.142287,146.75938 L 62.918958,146.98614 L 62.922602,148.51913 C 62.92496,149.51538 62.936515,150.10886 62.955508,150.21419 C 63.008789,150.5097 63.152592,150.64335 63.447963,150.67186 C 63.601472,150.68669 63.605135,150.68897 63.621309,150.7807 C 63.63042,150.83227 63.630634,150.91547 63.621762,150.96561 L 63.605695,151.05677 L 62.459947,151.0562 L 61.314201,151.05563 L 61.305948,150.93241 C 61.291135,150.71181 61.306403,150.68905 61.480452,150.67226 C 61.686855,150.65229 61.863079,150.56615 61.927325,150.45369 C 62.02661,150.27991 62.037348,150.06684 62.028335,148.44912 C 62.020511,147.04028 62.015441,146.88825 61.97186,146.74864 C 61.904216,146.53191 61.804977,146.38741 61.656805,146.28989 C 61.496357,146.18436 61.231488,146.16005 61.004823,146.23023 C 60.727623,146.31602 60.150528,146.80236 59.997786,147.07892 L 59.926155,147.20863 L 59.918545,148.60248 C 59.910506,150.06021 59.922832,150.28321 60.020209,150.45373 C 60.082408,150.56257 60.246612,150.64556 60.454658,150.67324 C 60.601833,150.69286 60.605673,150.6956 60.628214,150.79701 C 60.641858,150.85839 60.641386,150.9323 60.627034,150.97804 L 60.602843,151.05528 L 59.420557,151.05642 C 58.442601,151.05745 58.23589,151.05071 58.224497,151.01945 L 58.224497,151.01945 L 58.224507,151.01971 z M 69.252297,151.16406 C 69.048453,151.13748 68.742592,151.06378 68.615026,151.01068 C 68.319025,150.88737 67.952688,150.58592 67.737362,150.28848 C 67.642943,150.15806 67.49763,149.85304 67.431877,149.64725 C 67.314019,149.27843 67.276483,149.00282 67.280103,148.53289 C 67.28782,147.52901 67.5893,146.7369 68.164049,146.21029 C 68.517693,145.88627 68.846931,145.69878 69.201762,145.61932 C 69.4338,145.56741 69.615972,145.5673 69.937843,145.61891 C 70.603458,145.7257 70.938776,145.9631 71.189866,146.50528 C 71.362947,146.87902 71.428725,147.15528 71.434566,147.53302 C 71.438639,147.79418 71.432959,147.83685 71.386773,147.89173 L 71.334392,147.95402 L 69.769548,147.9425 L 68.204703,147.93098 L 68.204859,148.1413 C 68.205044,148.39547 68.262031,148.80771 68.335395,149.08553 C 68.544754,149.87839 69.062245,150.46138 69.652443,150.56928 C 69.85011,150.60544 70.20973,150.57384 70.444487,150.49957 C 70.620617,150.44389 70.866042,150.28225 71.070905,150.087 C 71.163405,149.99881 71.262621,149.92672 71.291385,149.92672 C 71.338428,149.92672 71.452245,150.04443 71.452245,150.09309 C 71.452245,150.13542 71.04855,150.57188 70.895026,150.6955 C 70.684772,150.86479 70.3672,151.02656 70.106906,151.09698 C 69.905644,151.1514 69.437136,151.18813 69.252298,151.16406 L 69.252298,151.16406 L 69.252297,151.16406 z M 70.311687,147.4852 C 70.466427,147.46409 70.48328,147.43728 70.482766,147.21228 C 70.481799,146.79008 70.365689,146.43162 70.165266,146.23207 C 69.963436,146.03112 69.838408,145.98214 69.52729,145.98214 C 69.279417,145.98214 69.25455,145.98784 69.062945,146.08505 C 68.796125,146.22066 68.628128,146.3915 68.496252,146.66131 C 68.402423,146.85329 68.298099,147.17632 68.244776,147.44003 L 68.226191,147.53198 L 69.217208,147.51567 C 69.762268,147.50654 70.254782,147.49297 70.311686,147.48532 L 70.311686,147.48532 L 70.311687,147.4852 z M 69.013311,144.59127 C 68.961348,144.56331 68.951412,144.5373 68.952934,144.43364 C 68.954542,144.3232 69.008209,144.21598 69.437447,143.46484 L 69.920132,142.62016 L 70.116556,142.63043 C 70.323809,142.64183 70.458551,142.69648 70.607532,142.82991 C 70.760247,142.96669 70.773645,142.9464 69.975828,143.78692 C 69.520054,144.26709 69.20723,144.57544 69.156916,144.59411 C 69.09655,144.61647 69.059422,144.61567 69.013305,144.59068 L 69.013311,144.59127 z M 76.028585,151.16989 C 75.989495,151.12825 75.918672,150.80022 75.891102,150.53306 C 75.87004,150.32892 75.832215,150.32524 75.62527,150.50716 C 75.062922,151.00153 74.599162,151.21303 74.17599,151.16811 C 73.711425,151.11882 73.391591,150.96292 73.08911,150.63839 C 72.773024,150.29927 72.579547,149.89919 72.468587,149.35524 C 72.402851,149.03302 72.377619,148.35444 72.419036,148.0231 C 72.537006,147.07949 73.008263,146.29539 73.7188,145.86049 C 73.968738,145.7075 74.242771,145.61568 74.5696,145.57541 C 74.900361,145.53468 75.126646,145.56263 75.530475,145.69417 C 75.750775,145.76593 75.805179,145.77506 75.838205,145.74585 C 75.872955,145.71516 75.878185,145.57188 75.877285,144.67541 C 75.875677,143.10469 75.852943,143.03423 75.333547,142.99242 C 75.143158,142.97713 75.138209,142.97473 75.102713,142.88438 C 75.082766,142.83349 75.066441,142.75664 75.066441,142.71348 L 75.066441,142.63499 L 75.334888,142.60076 C 75.671477,142.55786 76.310449,142.42049 76.526867,142.34441 C 76.65125,142.30072 76.703421,142.29387 76.742718,142.31623 C 76.792238,142.34441 76.793674,142.36461 76.77512,142.77002 C 76.764402,143.00337 76.755698,144.67456 76.755698,146.48378 C 76.755698,149.58955 76.758378,149.78137 76.803224,149.91832 C 76.883559,150.16347 77.074358,150.28985 77.436945,150.33807 C 77.575308,150.35643 77.595333,150.36727 77.617847,150.43538 C 77.634021,150.48433 77.634117,150.53943 77.618109,150.58788 C 77.597819,150.64926 77.57068,150.66808 77.475556,150.68633 C 76.892249,150.79894 76.603388,150.89719 76.356012,151.06738 C 76.171022,151.19465 76.07904,151.2234 76.028595,151.16972 L 76.028587,151.16972 L 76.028585,151.16989 z M 74.961685,150.52331 C 75.124975,150.45406 75.232837,150.38577 75.448835,150.21471 C 75.72207,149.99834 75.844597,149.84663 75.864776,149.6997 C 75.873994,149.63296 75.877799,148.9385 75.873351,148.15654 L 75.865205,146.73482 L 75.787743,146.58597 C 75.69206,146.4021 75.46374,146.17559 75.287108,146.08929 C 74.947485,145.92337 74.463271,145.93426 74.135211,146.11519 C 73.882535,146.25456 73.616803,146.629 73.497657,147.01357 C 73.388158,147.36701 73.354297,147.66094 73.354751,148.2541 C 73.355496,149.22876 73.521633,149.82465 73.914159,150.26054 C 74.214209,150.59375 74.579366,150.68534 74.961651,150.5233 L 74.961651,150.5233 L 74.961685,150.52331 z M 80.031962,151.15134 C 79.593092,151.08688 79.268881,150.94436 78.963007,150.68162 C 78.518797,150.30005 78.242758,149.71654 78.157871,148.97965 C 78.120881,148.65856 78.123625,148.45349 78.169918,148.07754 C 78.26781,147.28264 78.550192,146.66047 79.008891,146.229 C 79.557572,145.7129 80.050743,145.52744 80.677296,145.60156 C 81.1964,145.66294 81.571994,145.83466 81.827616,146.12735 C 81.965226,146.28492 82.166072,146.70056 82.228926,146.95783 C 82.285777,147.19055 82.331373,147.6431 82.310118,147.76371 C 82.274908,147.96347 82.346443,147.9559 80.618254,147.94265 L 79.073493,147.93078 L 79.073647,148.15516 C 79.074487,149.37489 79.697115,150.42124 80.508796,150.56696 C 80.643654,150.59115 80.756153,150.59183 80.944193,150.56924 C 81.362419,150.51962 81.618404,150.39573 81.938811,150.08791 C 82.031258,149.99915 82.130652,149.92644 82.159685,149.92644 C 82.232624,149.92644 82.3269,150.05784 82.296829,150.11759 C 82.247256,150.21605 81.935774,150.55285 81.772739,150.68422 C 81.549067,150.86446 81.233396,151.028 80.975694,151.09715 C 80.731348,151.16275 80.284789,151.18819 80.031962,151.151 L 80.031962,151.151 L 80.031962,151.15134 z M 81.188255,147.48456 C 81.260411,147.47543 81.308719,147.45181 81.325752,147.41793 C 81.392549,147.28507 81.322644,146.73096 81.207528,146.48047 C 81.128811,146.30922 80.949696,146.12556 80.780434,146.04255 C 80.680871,145.99372 80.608674,145.98242 80.394252,145.98231 C 80.13711,145.98213 80.124989,145.98459 79.908738,146.09903 C 79.663163,146.22847 79.503598,146.3808 79.387088,146.59703 C 79.308093,146.74364 79.143926,147.24208 79.114044,147.42605 L 79.096852,147.53193 L 80.086932,147.5155 C 80.631477,147.50637 81.127071,147.49257 81.188252,147.48458 L 81.188255,147.48456 z M 89.236693,151.15135 C 88.753178,151.09465 88.204137,150.90372 87.813612,150.65648 C 86.695513,149.94858 86.093314,148.71777 86.092628,147.13904 C 86.092058,145.8254 86.512909,144.64145 87.271437,143.82277 C 87.881717,143.16409 88.679035,142.81447 89.577161,142.81174 C 90.528535,142.80831 91.376029,143.16588 92.053063,143.85483 C 92.669792,144.4824 93.001324,145.17604 93.169765,146.19122 C 93.221996,146.50604 93.214054,147.50051 93.156614,147.83596 C 92.910165,149.27538 92.238216,150.29801 91.197876,150.81694 C 90.653468,151.08849 89.857717,151.22418 89.236689,151.15135 L 89.236689,151.15135 L 89.236693,151.15135 z M 90.292213,150.71785 C 91.193972,150.50162 91.849975,149.59249 92.067742,148.2572 C 92.17335,147.60961 92.171593,146.68188 92.063454,145.99939 C 91.837925,144.57609 91.159544,143.62625 90.138962,143.3048 C 89.824473,143.20577 89.283508,143.17792 89.027186,143.24764 C 88.679752,143.3421 88.413798,143.51464 88.088576,143.85658 C 87.637352,144.33099 87.366117,144.97136 87.235365,145.87095 C 87.014492,147.39056 87.271036,148.81075 87.923886,149.68247 C 88.349189,150.25036 88.875826,150.61327 89.448022,150.73273 C 89.646957,150.77426 90.089516,150.7665 90.292224,150.7179 L 90.292224,150.7179 L 90.292213,150.71785 z M 93.913612,151.00133 C 93.890793,150.91098 93.89612,150.79197 93.925595,150.73334 C 93.945006,150.69466 93.980624,150.67937 94.051042,150.67937 C 94.191961,150.67937 94.44169,150.60465 94.533554,150.53506 C 94.576813,150.50232 94.637244,150.41784 94.667839,150.34742 C 94.722395,150.22187 94.723607,150.18589 94.73112,148.4705 C 94.736265,147.29237 94.72962,146.6855 94.710787,146.61099 C 94.652233,146.3795 94.482156,146.2586 94.171691,146.22774 C 93.990968,146.20983 93.978121,146.1942 93.977411,145.99129 C 93.977003,145.87415 93.950819,145.8853 94.396092,145.81308 C 94.760773,145.75398 95.094683,145.67543 95.357084,145.58715 C 95.475104,145.54745 95.590998,145.5228 95.614627,145.5325 C 95.653149,145.54825 95.655336,145.59251 95.635753,145.96121 C 95.609107,146.46289 95.608453,146.62674 95.632966,146.65283 C 95.643256,146.66424 95.772858,146.54103 95.920913,146.38005 C 96.213869,146.06145 96.396054,145.90859 96.636734,145.77939 C 97.239732,145.45571 97.977524,145.48712 98.357623,145.85264 C 98.522975,146.01165 98.624247,146.22928 98.709755,146.60934 C 98.743025,146.7572 98.753969,147.09581 98.769242,148.44923 C 98.785781,149.91507 98.793273,150.12573 98.833714,150.26124 C 98.858881,150.34555 98.904884,150.44449 98.935946,150.48106 C 99.017481,150.57713 99.185543,150.64915 99.376278,150.66986 C 99.467653,150.68013 99.551062,150.70169 99.561646,150.71846 C 99.586609,150.75816 99.586609,150.9912 99.561646,151.02935 C 99.548612,151.04932 99.163051,151.05822 98.366043,151.05719 L 97.189681,151.05605 L 97.165425,150.97858 C 97.151063,150.93272 97.150559,150.85884 97.164246,150.79738 C 97.186326,150.69789 97.19279,150.69287 97.31983,150.67628 C 97.636108,150.63487 97.77723,150.53246 97.846575,150.29397 C 97.887969,150.15161 97.892482,149.98536 97.892482,148.60285 C 97.892482,146.95185 97.888945,146.9028 97.748812,146.61043 C 97.48827,146.06682 96.86605,146.05 96.204788,146.56867 C 95.962489,146.75872 95.796657,146.931 95.713035,147.07953 L 95.64015,147.20899 L 95.632647,148.58891 C 95.62493,149.99797 95.63672,150.23434 95.723764,150.42232 C 95.783123,150.55048 95.947966,150.64431 96.163976,150.67291 C 96.318849,150.69344 96.321467,150.69527 96.345555,150.79899 C 96.36085,150.86482 96.360646,150.93255 96.345025,150.97983 L 96.320051,151.05536 L 95.124067,151.0565 C 93.940236,151.05764 93.927936,151.05756 93.913674,151.00105 L 93.913674,151.00104 L 93.913612,151.00133 z M 100.83262,153.94114 C 100.46158,153.82222 100.38244,153.41949 100.67271,153.1274 C 100.79212,153.00724 100.87279,152.98816 101.1715,153.00946 C 101.65282,153.04381 101.7767,152.9409 102.03911,152.28891 C 102.28959,151.66655 102.35781,151.4358 102.35781,151.21095 C 102.35781,150.97375 102.30612,150.70291 102.20532,150.41198 C 102.07409,150.03324 100.79782,146.77146 100.69972,146.56411 C 100.5369,146.21996 100.4011,146.10448 100.1061,146.05929 C 99.968407,146.03818 99.962474,146.03373 99.940298,145.93389 C 99.926686,145.87262 99.9272,145.79876 99.941584,145.75293 L 99.96584,145.67547 L 101.07185,145.6709 L 102.17786,145.66634 L 102.20449,145.74016 C 102.2206,145.78488 102.22252,145.85726 102.20942,145.92364 L 102.18767,146.03328 L 101.99327,146.06808 C 101.88635,146.08725 101.76849,146.12718 101.73137,146.15696 C 101.67084,146.20545 101.66402,146.22929 101.66536,146.3888 C 101.66676,146.55536 101.70375,146.66177 102.25045,148.07196 C 102.57143,148.8999 102.8525,149.59927 102.87503,149.6261 C 102.9313,149.69307 103.00389,149.68725 103.0498,149.61218 C 103.07092,149.57773 103.35401,148.87111 103.67895,148.042 C 104.28129,146.50513 104.31697,146.39199 104.24462,146.24811 C 104.21107,146.18137 103.99907,146.08685 103.82907,146.06285 C 103.73678,146.04984 103.6834,146.02702 103.66645,145.99325 C 103.63686,145.93438 103.63354,145.74427 103.66109,145.69875 C 103.68735,145.65574 105.50495,145.65757 105.53286,145.70103 C 105.56073,145.74405 105.55719,145.93492 105.5275,145.99416 C 105.51346,146.022 105.45815,146.0536 105.40455,146.06433 C 105.12322,146.12046 104.79733,146.42306 104.61661,146.79583 C 104.3768,147.29054 103.7614,148.83462 102.93011,151.02739 C 102.07349,153.28699 101.83405,153.70436 101.27417,153.91382 C 101.12308,153.9704 100.95678,153.98044 100.83263,153.94063 L 100.83263,153.94063 L 100.83262,153.94114 z M 108.35529,151.16338 C 108.31928,151.15767 108.20307,151.13953 108.09704,151.12287 C 107.35361,151.00597 106.78376,150.54507 106.42866,149.77345 C 106.2333,149.3489 106.17637,149.0929 106.16214,148.57474 C 106.15356,148.24357 106.16107,148.06311 106.1914,147.87402 C 106.41245,146.51719 107.21108,145.6702 108.3684,145.56515 C 108.93523,145.5137 109.64551,145.72834 110.04456,146.07164 C 110.45385,146.42378 110.79903,147.1485 110.89694,147.86127 C 110.94625,148.22055 110.91688,148.81997 110.83328,149.16015 C 110.75053,149.49689 110.50896,150.02978 110.31771,150.29764 C 109.9804,150.77006 109.43058,151.0725 108.76556,151.15143 C 108.51383,151.18132 108.47676,151.18235 108.35528,151.16341 L 108.35528,151.16341 L 108.35529,151.16338 z M 109.03801,150.74645 C 109.11626,150.72203 109.22151,150.6756 109.27193,150.64331 C 109.77801,150.31966 109.96287,149.79514 109.96171,148.68617 C 109.9614,148.39485 109.94692,148.04987 109.92955,147.91954 C 109.77972,146.79453 109.37769,146.13642 108.74703,145.98374 C 108.43115,145.9073 108.16569,145.94152 107.87969,146.09577 C 107.44084,146.33248 107.14726,147.04682 107.10727,147.97524 C 107.06472,148.96346 107.35198,149.89882 107.85491,150.40944 C 108.16922,150.72856 108.65364,150.8665 109.03797,150.74634 L 109.03801,150.74645 z M 107.86497,144.59964 C 107.77354,144.56359 107.74708,144.48167 107.78715,144.35803 C 107.80623,144.29905 108.03248,143.88444 108.28988,143.43682 L 108.75787,142.62295 L 108.90687,142.62295 C 109.08446,142.62295 109.23053,142.67361 109.3899,142.79026 C 109.55621,142.91207 109.5672,142.98809 109.43899,143.12974 C 109.10556,143.49812 108.01792,144.59487 107.97385,144.60714 C 107.94491,144.61512 107.89593,144.6117 107.86499,144.59915 L 107.86497,144.59964 z M 112.42942,151.18506 C 112.39738,151.1748 112.34743,151.14559 112.31853,151.11912 C 112.27362,151.07793 112.2688,151.05181 112.2852,150.93792 C 112.29591,150.86479 112.30438,149.14896 112.30438,147.12508 C 112.30438,143.51502 112.30339,143.44241 112.25197,143.29199 C 112.20567,143.15649 112.18476,143.13087 112.07242,143.07157 C 111.98593,143.02594 111.88374,143.00027 111.75299,142.99137 C 111.5669,142.97871 111.55984,142.97551 111.53314,142.89405 C 111.51792,142.84773 111.50559,142.7701 111.50559,142.72155 L 111.50559,142.63324 L 111.77403,142.59981 C 112.10821,142.55817 112.7581,142.41789 112.96064,142.34372 C 113.11745,142.28633 113.19288,142.29021 113.21692,142.35684 C 113.22442,142.37795 113.22013,142.58131 113.20727,142.80878 C 113.19419,143.03625 113.18315,143.87821 113.18273,144.67981 C 113.1821,145.95295 113.18701,146.1393 113.22142,146.15337 C 113.24554,146.16364 113.32475,146.11379 113.42438,146.02671 C 113.61186,145.86302 113.91543,145.68748 114.12397,145.6222 C 114.4544,145.51872 114.86744,145.54348 115.23019,145.6886 C 115.53919,145.81215 115.96892,146.17602 116.1647,146.47988 C 116.59897,147.15383 116.70061,148.11367 116.44063,149.08523 C 116.35852,149.39195 116.15811,149.83497 116.00204,150.05468 C 115.76466,150.38882 115.37913,150.73474 115.04143,150.9166 C 114.37449,151.27575 113.54452,151.25607 113.10397,150.87062 C 112.95503,150.74033 112.89119,150.75916 112.67511,150.99691 C 112.52124,151.16622 112.47754,151.1997 112.42958,151.18508 L 112.42958,151.18508 L 112.42942,151.18506 z M 114.39431,150.72153 C 115.01471,150.54953 115.42164,149.97072 115.58025,149.03468 C 115.64295,148.66447 115.64391,147.93467 115.58239,147.60256 C 115.34242,146.31392 114.56495,145.76771 113.67735,146.26418 C 113.46285,146.38415 113.25085,146.6119 113.21083,146.76535 C 113.19186,146.83791 113.18243,147.42873 113.18232,148.53813 L 113.18217,150.20205 L 113.37331,150.41153 C 113.62136,150.68338 113.77302,150.7624 114.04748,150.76277 C 114.15609,150.76291 114.31233,150.74441 114.39468,150.72159 L 114.39468,150.72159 L 114.39431,150.72153 z M 121.27144,151.19027 C 121.22524,151.17749 121.15615,150.88763 121.1229,150.56737 C 121.09825,150.33002 121.0617,150.32427 120.83207,150.52174 C 120.23446,151.03569 119.77529,151.2234 119.28083,151.1559 C 118.73159,151.08095 118.42711,150.86747 118.22339,150.41461 C 118.04259,150.01268 118.04671,150.05896 118.02758,148.21232 C 118.00861,146.38099 118.01011,146.39826 117.85094,146.22879 C 117.7608,146.13284 117.55789,146.05186 117.40775,146.05186 C 117.33069,146.05186 117.31879,146.04045 117.29144,145.9437 C 117.27086,145.87057 117.26914,145.80959 117.28608,145.75553 L 117.31116,145.67556 L 118.12082,145.67556 L 118.93048,145.67556 L 118.93048,147.66877 C 118.93048,149.85655 118.93128,149.86941 119.08631,150.16742 C 119.14687,150.2839 119.21086,150.35856 119.31474,150.43408 C 119.74928,150.74998 120.20288,150.64212 120.84628,150.06988 C 121.10721,149.83781 121.09114,149.96035 121.09114,148.20255 C 121.09114,147.21332 121.0815,146.61828 121.06295,146.5282 C 121.00625,146.24675 120.82822,146.08703 120.54023,146.05924 C 120.39094,146.04486 120.38347,146.04042 120.36082,145.95314 C 120.34785,145.90305 120.34528,145.82011 120.35546,145.76883 L 120.37347,145.67561 L 121.18423,145.67554 C 121.63015,145.67549 122.00088,145.68352 122.00808,145.69368 C 122.01559,145.70394 122.01344,145.87308 122.0038,146.0701 C 121.99415,146.26712 121.98558,147.17558 121.98418,148.08891 C 121.98204,149.50915 121.9874,149.77044 122.02191,149.89416 C 122.09522,150.15688 122.2945,150.2973 122.6494,150.33629 C 122.82545,150.35568 122.84502,150.37325 122.84502,150.5123 C 122.84502,150.56592 122.83645,150.62354 122.82573,150.64028 C 122.81501,150.65705 122.71509,150.68614 122.60339,150.70508 C 122.16464,150.77935 121.72924,150.94337 121.48573,151.12616 C 121.40824,151.18434 121.33196,151.20716 121.27136,151.19039 L 121.27144,151.19027 z M 123.25233,151.01933 C 123.23208,150.96319 123.23658,150.75378 123.25876,150.7184 C 123.26948,150.70152 123.37018,150.68041 123.48284,150.67163 C 123.86601,150.64151 124.01716,150.50121 124.07498,150.12182 C 124.11304,149.87242 124.11304,143.70948 124.07506,143.45928 C 124.02383,143.12184 123.91366,143.02111 123.56529,142.99307 C 123.34197,142.97504 123.31724,142.95223 123.309,142.75636 L 123.30471,142.64211 L 123.62792,142.59191 C 124.04229,142.52756 124.44283,142.44113 124.71215,142.35779 C 125.03371,142.2583 125.02494,142.24404 125.00078,142.82617 C 124.98985,143.09002 124.98084,144.82381 124.98084,146.67903 C 124.98084,149.83434 124.98406,150.06383 125.02768,150.23299 C 125.10496,150.53099 125.25133,150.63931 125.62512,150.67499 C 125.81393,150.69302 125.81743,150.69473 125.84138,150.78395 C 125.85639,150.83985 125.85639,150.90926 125.84133,150.96516 L 125.81689,151.05574 L 124.54165,151.05644 C 123.4916,151.05702 123.26401,151.05074 123.25277,151.01936 L 123.25233,151.01933 z M 127.54693,151.15328 C 127.08111,151.07866 126.71963,150.83555 126.57512,150.49957 C 126.2603,149.76762 126.4986,149.03576 127.21933,148.52105 C 127.587,148.25848 127.89341,148.13459 128.7422,147.90532 C 129.12519,147.80184 129.31214,147.73872 129.33655,147.70458 C 129.36399,147.66624 129.36838,147.58822 129.35552,147.36578 C 129.3119,146.60794 129.16258,146.24291 128.81159,146.03593 C 128.6815,145.95926 128.65558,145.95436 128.385,145.95538 C 127.93463,145.95767 127.6286,146.08069 127.51979,146.30466 C 127.47424,146.39832 127.46985,146.64712 127.51015,146.81947 C 127.54584,146.97035 127.52858,147.05193 127.43619,147.16872 C 127.29574,147.34639 127.03475,147.4112 126.85423,147.31322 C 126.71152,147.23575 126.66381,147.14419 126.66381,146.94779 C 126.66381,146.4187 127.24273,145.84436 127.99163,145.63048 C 128.15621,145.58348 128.27981,145.57024 128.56781,145.56864 C 128.89827,145.56636 128.95515,145.57435 129.14399,145.64109 C 129.38724,145.72746 129.72128,145.95052 129.83253,146.10081 C 130.02123,146.3557 130.14732,146.7427 130.20263,147.23668 C 130.2186,147.37956 130.23071,148.01754 130.23082,148.71867 C 130.23093,150.31529 130.25151,150.45107 130.51203,150.57374 C 130.67858,150.65212 130.83589,150.63113 130.94807,150.51533 C 131.04957,150.41059 131.07645,150.40797 131.13144,150.4973 C 131.20132,150.61082 131.18246,150.66663 131.02314,150.81709 C 130.64952,151.16998 130.18881,151.26199 129.79133,151.06311 C 129.65536,150.99512 129.4597,150.74799 129.41353,150.58598 C 129.3967,150.52688 129.36787,150.47246 129.34954,150.4649 C 129.33121,150.45691 129.23029,150.52537 129.12534,150.61604 C 128.86671,150.8394 128.71496,150.94664 128.52151,151.04285 C 128.27496,151.16545 127.8927,151.20878 127.54647,151.15329 L 127.54647,151.15329 L 127.54693,151.15328 z M 128.58809,150.5752 C 128.89959,150.42005 129.25353,150.13543 129.32954,149.979 C 129.35987,149.91648 129.36716,149.72967 129.36716,149.0063 C 129.36716,148.16665 129.36394,148.11188 129.32128,148.12551 C 129.2961,148.1335 129.05742,148.20366 128.79094,148.28142 C 128.51978,148.3606 128.21143,148.47094 128.0907,148.53214 C 127.61417,148.77366 127.36784,149.18589 127.36563,149.74553 C 127.36476,149.96437 127.37421,150.01888 127.44034,150.17207 C 127.53177,150.38427 127.72129,150.57745 127.89686,150.63736 C 128.09415,150.70467 128.3797,150.679 128.58811,150.57518 L 128.58811,150.57518 L 128.58809,150.5752 z" style="fill:#000000;fill-opacity:1;fill-rule:nonzero;stroke:none" id="subline" transform="matrix(0.9348576,0,0,0.9348576,4.3424597,5.6768023)"></path></svg>
