<?xml version="1.0" encoding="UTF-8" standalone="no"?>
<svg
	xmlns="http://www.w3.org/2000/svg"
	xmlns:dc="http://purl.org/dc/elements/1.1/"
	xmlns:cc="http://creativecommons.org/ns#"
	xmlns:rdf="http://www.w3.org/1999/02/22-rdf-syntax-ns#"
	xmlns:svg="http://www.w3.org/2000/svg"
	xmlns:xlink="http://www.w3.org/1999/xlink"
	xmlns:sodipodi="http://sodipodi.sourceforge.net/DTD/sodipodi-0.dtd"
	xmlns:inkscape="http://www.inkscape.org/namespaces/inkscape"
	version="1.1"
	viewBox="0 0 135px 155px">
	<svg xmlns:dc="http://purl.org/dc/elements/1.1/" xmlns:cc="http://creativecommons.org/ns#" xmlns:rdf="http://www.w3.org/1999/02/22-rdf-syntax-ns#" xmlns:svg="http://www.w3.org/2000/svg" xmlns:xlink="http://www.w3.org/1999/xlink" xmlns:sodipodi="http://sodipodi.sourceforge.net/DTD/sodipodi-0.dtd" xmlns:inkscape="http://www.inkscape.org/namespaces/inkscape" version="1.1" x="0px" y="0px" width="135px" height="155px" viewBox="0 0 135 155" enable-background="new 0 0 135 155" xml:space="preserve" id="svg3857" inkscape:version="0.47 r22583" sodipodi:docname="Wikipedia-logo-v2-fr.svg" xmlns:svgjs="http://svgjs.com/svgjs"><metadata id="metadata4852"><rdf:RDF><cc:Work rdf:about=""><dc:format>image/svg+xml</dc:format><dc:type rdf:resource="http://purl.org/dc/dcmitype/StillImage"></dc:type><dc:title></dc:title></cc:Work></rdf:RDF></metadata><defs id="defs4850"><inkscape:perspective sodipodi:type="inkscape:persp3d" inkscape:vp_x="0 : 77.5 : 1" inkscape:vp_y="0 : 1000 : 0" inkscape:vp_z="135 : 77.5 : 1" inkscape:persp3d-origin="67.5 : 51.666667 : 1" id="perspective4854"></inkscape:perspective>
	
		<radialGradient gradientUnits="userSpaceOnUse" gradientTransform="matrix(1,0,0,-1,192.3999,143.0996)" r="68.686401" cy="87.823196" cx="-145.4702" id="SVGID_1_">
		<stop id="stop3922" offset="0" style="stop-color:#FFFFFF"></stop>
		<stop id="stop3924" offset="0.4835" style="stop-color:#EAEAEB"></stop>
		<stop id="stop3926" offset="0.9451" style="stop-color:#A9ABAE"></stop>
		<stop id="stop3928" offset="1" style="stop-color:#999B9E"></stop>
	</radialGradient>
	
	
	<linearGradient y2="97.232101" x2="112.7331" y1="24.481001" x1="66.232399" gradientUnits="userSpaceOnUse" id="SVGID_2_">
		<stop id="stop3935" offset="0" style="stop-color:#8A8A8A"></stop>
		<stop id="stop3937" offset="0.5687" style="stop-color:#606060"></stop>
		<stop id="stop3939" offset="0.5914" style="stop-color:#FFFFFF"></stop>
		<stop id="stop3941" offset="0.6116" style="stop-color:#585858"></stop>
		<stop id="stop3943" offset="1" style="stop-color:#303030"></stop>
	</linearGradient>
	
	
	<linearGradient y2="65.136703" x2="83.798798" y1="65.136703" x1="54.715801" gradientUnits="userSpaceOnUse" id="SVGID_5_">
		<stop id="stop3964" offset="0" style="stop-color:#231F20"></stop>
		<stop id="stop3966" offset="1" style="stop-color:#474747"></stop>
	</linearGradient>
	
	
	
	
	
	
	
	
	
		<linearGradient gradientTransform="matrix(1,0,0,-1,192.3999,143.0996)" y2="29.9035" x2="-94.069099" y1="119.8076" x1="-123.5898" gradientUnits="userSpaceOnUse" id="SVGID_6_">
		<stop id="stop3997" offset="0" style="stop-color:#FFFFFF"></stop>
		<stop id="stop3999" offset="0.0094" style="stop-color:#FCFCFC"></stop>
		<stop id="stop4001" offset="0.0655" style="stop-color:#EEEEEE"></stop>
		<stop id="stop4003" offset="0.1342" style="stop-color:#E5E5E5"></stop>
		<stop id="stop4005" offset="0.2515" style="stop-color:#E3E3E3"></stop>
		<stop id="stop4007" offset="0.3357" style="stop-color:#8A8A8A"></stop>
		<stop id="stop4009" offset="0.4422" style="stop-color:#B8B8B8"></stop>
		<stop id="stop4011" offset="1" style="stop-color:#3B3B3B"></stop>
	</linearGradient>
	
	<linearGradient y2="87.626701" x2="119.5471" y1="26.876499" x1="70.421898" gradientUnits="userSpaceOnUse" id="SVGID_7_">
		<stop id="stop4016" offset="0" style="stop-color:#EFF0F0"></stop>
		<stop id="stop4018" offset="0.5914" style="stop-color:#F0F1F2"></stop>
		<stop id="stop4020" offset="0.599" style="stop-color:#787878"></stop>
		<stop id="stop4022" offset="0.6456" style="stop-color:#EEEFF0"></stop>
		<stop id="stop4024" offset="1" style="stop-color:#D8D9DB"></stop>
	</linearGradient>
	
	
		<linearGradient gradientTransform="matrix(1,0,0,-1,192.3999,143.0996)" y2="31.998501" x2="-87.569702" y1="122.1328" x1="-117.166" gradientUnits="userSpaceOnUse" id="SVGID_8_">
		<stop id="stop4029" offset="0" style="stop-color:#FFFFFF"></stop>
		<stop id="stop4031" offset="1" style="stop-color:#E4E5E6"></stop>
	</linearGradient>
	
	<linearGradient y2="106.3903" x2="79.683601" y1="25.2764" x1="54.653301" gradientUnits="userSpaceOnUse" id="SVGID_9_">
		<stop id="stop4036" offset="0" style="stop-color:#FFFFFF"></stop>
		<stop id="stop4038" offset="0.7473" style="stop-color:#F9F9F9"></stop>
		<stop id="stop4040" offset="1" style="stop-color:#D5D7D8"></stop>
	</linearGradient>
	
	
	
	
	
		<linearGradient gradientTransform="matrix(1,0,0,-1,192.3999,143.0996)" y2="24.6462" x2="-134.85719" y1="119.6328" x1="-115.3369" gradientUnits="userSpaceOnUse" id="SVGID_10_">
		<stop id="stop4061" offset="0" style="stop-color:#FFFFFF"></stop>
		<stop id="stop4063" offset="1" style="stop-color:#E4E5E6"></stop>
	</linearGradient>
	
	<linearGradient y2="92.496101" x2="37.2481" y1="33.077099" x1="32.519001" gradientUnits="userSpaceOnUse" id="SVGID_11_">
		<stop id="stop4068" offset="0.2198" style="stop-color:#989A9C"></stop>
		<stop id="stop4070" offset="0.2527" style="stop-color:#FFFFFF"></stop>
	</linearGradient>
	
	
		<linearGradient gradientTransform="matrix(1,0,0,-1,192.3999,143.0996)" y2="32.797901" x2="-171.9462" y1="126.8398" x1="-152.6201" gradientUnits="userSpaceOnUse" id="SVGID_12_">
		<stop id="stop4075" offset="0" style="stop-color:#FFFFFF"></stop>
		<stop id="stop4077" offset="1" style="stop-color:#E4E5E6"></stop>
	</linearGradient>
	
	
		<linearGradient gradientTransform="matrix(1,0,0,-1,192.3999,143.0996)" y2="35.585701" x2="-130.14281" y1="35.625" x1="-130.1348" gradientUnits="userSpaceOnUse" id="SVGID_13_">
		<stop id="stop4082" offset="0" style="stop-color:#FFFFFF"></stop>
		<stop id="stop4084" offset="1" style="stop-color:#E4E5E6"></stop>
	</linearGradient>
	
	
	
	
		<linearGradient gradientTransform="matrix(1,0,0,-1,192.3999,143.0996)" y2="25.888" x2="-140.54491" y1="120.3223" x1="-121.1382" gradientUnits="userSpaceOnUse" id="SVGID_14_">
		<stop id="stop4093" offset="0" style="stop-color:#FFFFFF"></stop>
		<stop id="stop4095" offset="1" style="stop-color:#E4E5E6"></stop>
	</linearGradient>
	
	
		<linearGradient gradientTransform="matrix(1,0,0,-1,192.3999,143.0996)" y2="28.8524" x2="-155.006" y1="123.3525" x1="-135.58591" gradientUnits="userSpaceOnUse" id="SVGID_15_">
		<stop id="stop4100" offset="0" style="stop-color:#FFFFFF"></stop>
		<stop id="stop4102" offset="1" style="stop-color:#E4E5E6"></stop>
	</linearGradient>
	
	
		<linearGradient gradientTransform="matrix(1,0,0,-1,192.3999,143.0996)" y2="27.1346" x2="-146.8837" y1="121.9365" x1="-127.4014" gradientUnits="userSpaceOnUse" id="SVGID_16_">
		<stop id="stop4107" offset="0" style="stop-color:#FFFFFF"></stop>
		<stop id="stop4109" offset="1" style="stop-color:#E4E5E6"></stop>
	</linearGradient>
	
	
		<linearGradient gradientTransform="matrix(1,0,0,-1,192.3999,143.0996)" y2="24.9438" x2="-138.85201" y1="124.0039" x1="-118.4946" gradientUnits="userSpaceOnUse" id="SVGID_17_">
		<stop id="stop4114" offset="0" style="stop-color:#FFFFFF"></stop>
		<stop id="stop4116" offset="1" style="stop-color:#E4E5E6"></stop>
	</linearGradient>
	
	
		<linearGradient gradientTransform="matrix(1,0,0,-1,192.3999,143.0996)" y2="24.695299" x2="-134.7878" y1="119.1758" x1="-115.3716" gradientUnits="userSpaceOnUse" id="SVGID_18_">
		<stop id="stop4121" offset="0" style="stop-color:#FFFFFF"></stop>
		<stop id="stop4123" offset="1" style="stop-color:#E4E5E6"></stop>
	</linearGradient>
	
	
	
	
	
	
	
	
	
	
	
	
		<linearGradient gradientTransform="matrix(1,0,0,-1,192.3999,143.0996)" y2="83.6045" x2="-75.6362" y1="83.6045" x1="-175.4424" gradientUnits="userSpaceOnUse" id="SVGID_21_">
		<stop id="stop4198" offset="0" style="stop-color:#555555"></stop>
		<stop id="stop4200" offset="1" style="stop-color:#231F20"></stop>
	</linearGradient>
	
	
		<linearGradient gradientTransform="matrix(1,0,0,-1,192.3999,143.0996)" y2="104.0801" x2="-83.541" y1="104.0801" x1="-175.14211" gradientUnits="userSpaceOnUse" id="SVGID_22_">
		<stop id="stop4205" offset="0" style="stop-color:#A0A0A0"></stop>
		<stop id="stop4207" offset="0.0769" style="stop-color:#656767"></stop>
		<stop id="stop4209" offset="1" style="stop-color:#717375"></stop>
	</linearGradient>
	
	
	
	
	
	
	
		<linearGradient gradientTransform="matrix(1,0,0,-1,192.3999,143.0996)" y2="78.209" x2="-172.3853" y1="78.209" x1="-172.3853" gradientUnits="userSpaceOnUse" id="SVGID_23_">
		<stop id="stop4224" offset="0" style="stop-color:#FFFFFF"></stop>
		<stop id="stop4226" offset="0.078" style="stop-color:#F4F4F4"></stop>
		<stop id="stop4228" offset="0.3807" style="stop-color:#CECECE"></stop>
		<stop id="stop4230" offset="0.5396" style="stop-color:#BFBFBF"></stop>
		<stop id="stop4232" offset="0.8357" style="stop-color:#7C7C7C"></stop>
		<stop id="stop4234" offset="0.8996" style="stop-color:#A8A8A8"></stop>
		<stop id="stop4236" offset="0.9093" style="stop-color:#9A9A9A"></stop>
		<stop id="stop4238" offset="0.9327" style="stop-color:#7D7D7D"></stop>
		<stop id="stop4240" offset="0.9558" style="stop-color:#686868"></stop>
		<stop id="stop4242" offset="0.9785" style="stop-color:#5B5B5B"></stop>
		<stop id="stop4244" offset="1" style="stop-color:#575757"></stop>
	</linearGradient>
	
	
		<linearGradient gradientTransform="matrix(1,0,0,-1,192.3999,143.0996)" y2="90.476799" x2="-67.153198" y1="78.449203" x1="-175.7173" gradientUnits="userSpaceOnUse" id="SVGID_24_">
		<stop id="stop4249" offset="0" style="stop-color:#FFFFFF"></stop>
		<stop id="stop4251" offset="0.078" style="stop-color:#F4F4F4"></stop>
		<stop id="stop4253" offset="0.3807" style="stop-color:#CECECE"></stop>
		<stop id="stop4255" offset="0.5396" style="stop-color:#BFBFBF"></stop>
		<stop id="stop4257" offset="0.8357" style="stop-color:#7C7C7C"></stop>
		<stop id="stop4259" offset="0.8996" style="stop-color:#A8A8A8"></stop>
		<stop id="stop4261" offset="0.9093" style="stop-color:#9A9A9A"></stop>
		<stop id="stop4263" offset="0.9327" style="stop-color:#7D7D7D"></stop>
		<stop id="stop4265" offset="0.9558" style="stop-color:#686868"></stop>
		<stop id="stop4267" offset="0.9785" style="stop-color:#5B5B5B"></stop>
		<stop id="stop4269" offset="1" style="stop-color:#575757"></stop>
	</linearGradient>
	
	
		<linearGradient gradientTransform="matrix(1,0,0,-1,192.3999,143.0996)" y2="92.223099" x2="-52.131699" y1="78.4795" x1="-176.1851" gradientUnits="userSpaceOnUse" id="SVGID_25_">
		<stop id="stop4274" offset="0" style="stop-color:#FFFFFF"></stop>
		<stop id="stop4276" offset="0.078" style="stop-color:#F4F4F4"></stop>
		<stop id="stop4278" offset="0.3807" style="stop-color:#CECECE"></stop>
		<stop id="stop4280" offset="0.5396" style="stop-color:#BFBFBF"></stop>
		<stop id="stop4282" offset="0.8357" style="stop-color:#7C7C7C"></stop>
		<stop id="stop4284" offset="0.8996" style="stop-color:#A8A8A8"></stop>
		<stop id="stop4286" offset="0.9093" style="stop-color:#9A9A9A"></stop>
		<stop id="stop4288" offset="0.9327" style="stop-color:#7D7D7D"></stop>
		<stop id="stop4290" offset="0.9558" style="stop-color:#686868"></stop>
		<stop id="stop4292" offset="0.9785" style="stop-color:#5B5B5B"></stop>
		<stop id="stop4294" offset="1" style="stop-color:#575757"></stop>
	</linearGradient>
	
	<linearGradient y2="51.952599" x2="117.1948" y1="71.326698" x1="21.2129" gradientUnits="userSpaceOnUse" id="SVGID_26_">
		<stop id="stop4299" offset="0" style="stop-color:#EDEDEE"></stop>
		<stop id="stop4301" offset="0.4176" style="stop-color:#FFFFFF"></stop>
		<stop id="stop4303" offset="0.6264" style="stop-color:#F8F9F9"></stop>
		<stop id="stop4305" offset="1" style="stop-color:#BFC0C2"></stop>
	</linearGradient>
	
	
	
	
	<linearGradient y2="30.732401" x2="27.9561" y1="30.732401" x1="23.471201" gradientUnits="userSpaceOnUse" id="SVGID_27_">
		<stop id="stop4316" offset="0" style="stop-color:#E2E3E4"></stop>
		<stop id="stop4318" offset="0.5055" style="stop-color:#FFFFFF"></stop>
	</linearGradient>
	
	
	
	
	
	
	
	
	
	
	
	
	
	
	
	
	
	
	
	
	
	
	
	
	
	
	
	
	
	
	
	
	
	
	
	
	
	
	
	
	
	
	
	
	
	
	
	
	
	
	
	
	
	
	
	
	
	
	
	
	
	
	
	
	
	
	
	
	
	
	
	
	
	
	
	
	
	
	
	
	
	
	
	
	
	
	
	
	
	
	
	
	
	
	
	
	
	
	
	
	
	
	
	
	
	
	
	
	
	
	
	
	
	
	
	
	
	
	
	
	
	
	
	
	
	
	
	
	
	
	
	
	
	
	
	
	
	
	
	
	
	
	
	
	
	
	
	
	
	
	
	
	
	
	
	
	
	
	
	
	
	
	
	
	
	
	
	
	
	
	
	
	
	
	
	
	
	
	<linearGradient y2="29.204" x2="111.5455" y1="49.7188" x1="22.5742" gradientUnits="userSpaceOnUse" id="SVGID_34_">
		<stop id="stop4743" offset="0" style="stop-color:#FFFFFF"></stop>
		<stop id="stop4745" offset="0.6538" style="stop-color:#FFFFFF"></stop>
		<stop id="stop4747" offset="1" style="stop-color:#CBCCCE"></stop>
	</linearGradient>
	
	
	
	
	
	
	
	
		<linearGradient gradientTransform="matrix(1,0,0,-1,192.3999,143.0996)" y2="107.0898" x2="-126.4229" y1="107.0898" x1="-158.8101" gradientUnits="userSpaceOnUse" id="SVGID_35_">
		<stop id="stop4770" offset="0" style="stop-color:#696969"></stop>
		<stop id="stop4772" offset="0.3702" style="stop-color:#2E2E2E"></stop>
		<stop id="stop4774" offset="0.4554" style="stop-color:#424242"></stop>
		<stop id="stop4776" offset="0.6014" style="stop-color:#303030"></stop>
		<stop id="stop4778" offset="0.6947" style="stop-color:#4A4A4A"></stop>
		<stop id="stop4780" offset="1" style="stop-color:#666666"></stop>
	</linearGradient>
	
	
		<linearGradient gradientTransform="matrix(1,0,0,-1,192.3999,143.0996)" y2="107.8965" x2="-126.5454" y1="107.8965" x1="-158.4185" gradientUnits="userSpaceOnUse" id="SVGID_36_">
		<stop id="stop4785" offset="0" style="stop-color:#525252"></stop>
		<stop id="stop4787" offset="0.1856" style="stop-color:#333333"></stop>
		<stop id="stop4789" offset="0.354" style="stop-color:#AEAEAE"></stop>
		<stop id="stop4791" offset="0.4199" style="stop-color:#ADADAD"></stop>
		<stop id="stop4793" offset="0.4276" style="stop-color:#9D9D9D"></stop>
		<stop id="stop4795" offset="0.4433" style="stop-color:#818181"></stop>
		<stop id="stop4797" offset="0.4611" style="stop-color:#6A6A6A"></stop>
		<stop id="stop4799" offset="0.4814" style="stop-color:#585858"></stop>
		<stop id="stop4801" offset="0.506" style="stop-color:#4C4C4C"></stop>
		<stop id="stop4803" offset="0.539" style="stop-color:#444444"></stop>
		<stop id="stop4805" offset="0.6166" style="stop-color:#424242"></stop>
		<stop id="stop4807" offset="0.6684" style="stop-color:#454545"></stop>
		<stop id="stop4809" offset="1" style="stop-color:#BDBDBD"></stop>
	</linearGradient>
	
	
		<linearGradient gradientTransform="matrix(1,0,0,-1,192.3999,143.0996)" y2="104.4332" x2="-154.15421" y1="97.627899" x1="-153.1255" gradientUnits="userSpaceOnUse" id="SVGID_37_">
		<stop id="stop4814" offset="0" style="stop-color:#969696"></stop>
		<stop id="stop4816" offset="1" style="stop-color:#000000"></stop>
	</linearGradient>
	
	
	
	<linearGradient y2="38.790001" x2="39.487301" y1="46.373001" x1="38.737301" gradientUnits="userSpaceOnUse" id="SVGID_38_">
		<stop id="stop4825" offset="0" style="stop-color:#333333"></stop>
		<stop id="stop4827" offset="0.431" style="stop-color:#000000"></stop>
		<stop id="stop4829" offset="1" style="stop-color:#2E2E2E"></stop>
	</linearGradient>
	
	
	
	
	
		<radialGradient gradientUnits="userSpaceOnUse" gradientTransform="matrix(1,0,0,-1,192.3999,143.0996)" r="72.751701" cy="106.5996" cx="-138.2334" id="SVGID_39_">
		<stop id="stop4840" offset="0" style="stop-color:#000000;stop-opacity:0"></stop>
		<stop id="stop4842" offset="0.80220002" style="stop-color:#000000;stop-opacity:0.08"></stop>
		<stop id="stop4844" offset="1" style="stop-color:#000000;stop-opacity:0.3882353"></stop>
	</radialGradient>
	
<radialGradient inkscape:collect="always" xlink:href="#SVGID_39_" id="radialGradient5007" gradientUnits="userSpaceOnUse" gradientTransform="matrix(1,0,0,-1,192.3999,143.0996)" cx="-138.2334" cy="106.5996" r="72.751701"></radialGradient><linearGradient inkscape:collect="always" xlink:href="#SVGID_38_" id="linearGradient5013" gradientUnits="userSpaceOnUse" x1="38.737301" y1="46.373001" x2="39.487301" y2="38.790001"></linearGradient><linearGradient inkscape:collect="always" xlink:href="#SVGID_37_" id="linearGradient5018" gradientUnits="userSpaceOnUse" gradientTransform="matrix(1,0,0,-1,192.3999,143.0996)" x1="-153.1255" y1="97.627899" x2="-154.15421" y2="104.4332"></linearGradient><linearGradient inkscape:collect="always" xlink:href="#SVGID_36_" id="linearGradient5021" gradientUnits="userSpaceOnUse" gradientTransform="matrix(1,0,0,-1,192.3999,143.0996)" x1="-158.4185" y1="107.8965" x2="-126.5454" y2="107.8965"></linearGradient><linearGradient inkscape:collect="always" xlink:href="#SVGID_35_" id="linearGradient5024" gradientUnits="userSpaceOnUse" gradientTransform="matrix(1,0,0,-1,192.3999,143.0996)" x1="-158.8101" y1="107.0898" x2="-126.4229" y2="107.0898"></linearGradient><linearGradient inkscape:collect="always" xlink:href="#SVGID_34_" id="linearGradient5036" gradientUnits="userSpaceOnUse" x1="22.5742" y1="49.7188" x2="111.5455" y2="29.204"></linearGradient><linearGradient inkscape:collect="always" xlink:href="#SVGID_27_" id="linearGradient5252" gradientUnits="userSpaceOnUse" x1="23.471201" y1="30.732401" x2="27.9561" y2="30.732401"></linearGradient><linearGradient inkscape:collect="always" xlink:href="#SVGID_26_" id="linearGradient5258" gradientUnits="userSpaceOnUse" x1="21.2129" y1="71.326698" x2="117.1948" y2="51.952599"></linearGradient><linearGradient inkscape:collect="always" xlink:href="#SVGID_25_" id="linearGradient5261" gradientUnits="userSpaceOnUse" gradientTransform="matrix(1,0,0,-1,192.3999,143.0996)" x1="-176.1851" y1="78.4795" x2="-52.131699" y2="92.223099"></linearGradient><linearGradient inkscape:collect="always" xlink:href="#SVGID_24_" id="linearGradient5264" gradientUnits="userSpaceOnUse" gradientTransform="matrix(1,0,0,-1,192.3999,143.0996)" x1="-175.7173" y1="78.449203" x2="-67.153198" y2="90.476799"></linearGradient><linearGradient inkscape:collect="always" xlink:href="#SVGID_23_" id="linearGradient5267" gradientUnits="userSpaceOnUse" gradientTransform="matrix(1,0,0,-1,192.3999,143.0996)" x1="-172.3853" y1="78.209" x2="-172.3853" y2="78.209"></linearGradient><linearGradient inkscape:collect="always" xlink:href="#SVGID_22_" id="linearGradient5275" gradientUnits="userSpaceOnUse" gradientTransform="matrix(1,0,0,-1,192.3999,143.0996)" x1="-175.14211" y1="104.0801" x2="-83.541" y2="104.0801"></linearGradient><linearGradient inkscape:collect="always" xlink:href="#SVGID_21_" id="linearGradient5278" gradientUnits="userSpaceOnUse" gradientTransform="matrix(1,0,0,-1,192.3999,143.0996)" x1="-175.4424" y1="83.6045" x2="-75.6362" y2="83.6045"></linearGradient><linearGradient inkscape:collect="always" xlink:href="#SVGID_18_" id="linearGradient5317" gradientUnits="userSpaceOnUse" gradientTransform="matrix(1,0,0,-1,192.3999,143.0996)" x1="-115.3716" y1="119.1758" x2="-134.7878" y2="24.695299"></linearGradient><linearGradient inkscape:collect="always" xlink:href="#SVGID_17_" id="linearGradient5320" gradientUnits="userSpaceOnUse" gradientTransform="matrix(1,0,0,-1,192.3999,143.0996)" x1="-118.4946" y1="124.0039" x2="-138.85201" y2="24.9438"></linearGradient><linearGradient inkscape:collect="always" xlink:href="#SVGID_16_" id="linearGradient5323" gradientUnits="userSpaceOnUse" gradientTransform="matrix(1,0,0,-1,192.3999,143.0996)" x1="-127.4014" y1="121.9365" x2="-146.8837" y2="27.1346"></linearGradient><linearGradient inkscape:collect="always" xlink:href="#SVGID_15_" id="linearGradient5326" gradientUnits="userSpaceOnUse" gradientTransform="matrix(1,0,0,-1,192.3999,143.0996)" x1="-135.58591" y1="123.3525" x2="-155.006" y2="28.8524"></linearGradient><linearGradient inkscape:collect="always" xlink:href="#SVGID_14_" id="linearGradient5329" gradientUnits="userSpaceOnUse" gradientTransform="matrix(1,0,0,-1,192.3999,143.0996)" x1="-121.1382" y1="120.3223" x2="-140.54491" y2="25.888"></linearGradient><linearGradient inkscape:collect="always" xlink:href="#SVGID_13_" id="linearGradient5334" gradientUnits="userSpaceOnUse" gradientTransform="matrix(1,0,0,-1,192.3999,143.0996)" x1="-130.1348" y1="35.625" x2="-130.14281" y2="35.585701"></linearGradient><linearGradient inkscape:collect="always" xlink:href="#SVGID_12_" id="linearGradient5337" gradientUnits="userSpaceOnUse" gradientTransform="matrix(1,0,0,-1,192.3999,143.0996)" x1="-152.6201" y1="126.8398" x2="-171.9462" y2="32.797901"></linearGradient><linearGradient inkscape:collect="always" xlink:href="#SVGID_11_" id="linearGradient5340" gradientUnits="userSpaceOnUse" x1="32.519001" y1="33.077099" x2="37.2481" y2="92.496101"></linearGradient><linearGradient inkscape:collect="always" xlink:href="#SVGID_10_" id="linearGradient5343" gradientUnits="userSpaceOnUse" gradientTransform="matrix(1,0,0,-1,192.3999,143.0996)" x1="-115.3369" y1="119.6328" x2="-134.85719" y2="24.6462"></linearGradient><linearGradient inkscape:collect="always" xlink:href="#SVGID_9_" id="linearGradient5354" gradientUnits="userSpaceOnUse" x1="54.653301" y1="25.2764" x2="79.683601" y2="106.3903"></linearGradient><linearGradient inkscape:collect="always" xlink:href="#SVGID_8_" id="linearGradient5357" gradientUnits="userSpaceOnUse" gradientTransform="matrix(1,0,0,-1,192.3999,143.0996)" x1="-117.166" y1="122.1328" x2="-87.569702" y2="31.998501"></linearGradient><linearGradient inkscape:collect="always" xlink:href="#SVGID_7_" id="linearGradient5360" gradientUnits="userSpaceOnUse" x1="70.421898" y1="26.876499" x2="119.5471" y2="87.626701"></linearGradient><linearGradient inkscape:collect="always" xlink:href="#SVGID_6_" id="linearGradient5363" gradientUnits="userSpaceOnUse" gradientTransform="matrix(1,0,0,-1,192.3999,143.0996)" x1="-123.5898" y1="119.8076" x2="-94.069099" y2="29.9035"></linearGradient><linearGradient inkscape:collect="always" xlink:href="#SVGID_5_" id="linearGradient5379" gradientUnits="userSpaceOnUse" x1="54.715801" y1="65.136703" x2="83.798798" y2="65.136703"></linearGradient><linearGradient inkscape:collect="always" xlink:href="#SVGID_2_" id="linearGradient5391" gradientUnits="userSpaceOnUse" x1="66.232399" y1="24.481001" x2="112.7331" y2="97.232101"></linearGradient><radialGradient inkscape:collect="always" xlink:href="#SVGID_1_" id="radialGradient5395" gradientUnits="userSpaceOnUse" gradientTransform="matrix(1,0,0,-1,192.3999,143.0996)" cx="-145.4702" cy="87.823196" r="68.686401"></radialGradient>
	
	
<inkscape:perspective id="perspective10537" inkscape:persp3d-origin="0.5 : 0.33333333 : 1" inkscape:vp_z="1 : 0.5 : 1" inkscape:vp_y="0 : 1000 : 0" inkscape:vp_x="0 : 0.5 : 1" sodipodi:type="inkscape:persp3d"></inkscape:perspective><inkscape:perspective id="perspective13111" inkscape:persp3d-origin="0.5 : 0.33333333 : 1" inkscape:vp_z="1 : 0.5 : 1" inkscape:vp_y="0 : 1000 : 0" inkscape:vp_x="0 : 0.5 : 1" sodipodi:type="inkscape:persp3d"></inkscape:perspective></defs><sodipodi:namedview pagecolor="#ffffff" bordercolor="#666666" borderopacity="1" objecttolerance="10" gridtolerance="10" guidetolerance="10" inkscape:pageopacity="0" inkscape:pageshadow="2" inkscape:window-width="1198" inkscape:window-height="730" id="namedview4848" showgrid="false" inkscape:zoom="23.096251" inkscape:cx="80.805195" inkscape:cy="31.391234" inkscape:window-x="1" inkscape:window-y="33" inkscape:window-maximized="0" inkscape:current-layer="svg3857" showguides="true" inkscape:guide-bbox="true"><sodipodi:guide orientation="0,1" position="0,140" id="globe_top"></sodipodi:guide><sodipodi:guide orientation="1,0" position="16,0" id="globe_left"></sodipodi:guide><sodipodi:guide orientation="1,0" position="119,0" id="globe_right"></sodipodi:guide><sodipodi:guide id="globe_bottom" position="0,47" orientation="0,1"></sodipodi:guide><sodipodi:guide orientation="0,1" position="8,40" id="wordmark_top"></sodipodi:guide><sodipodi:guide orientation="0,1" position="8,22.5" id="wordmark_bottom"></sodipodi:guide><sodipodi:guide orientation="0,1" position="0,17" id="subtitle_top"></sodipodi:guide><sodipodi:guide orientation="0,1" position="0,8" id="subtitle_bottom"></sodipodi:guide><sodipodi:guide orientation="1,0" position="8,40" id="wordmark_left"></sodipodi:guide><sodipodi:guide orientation="1,0" position="127,40" id="wordmark_right"></sodipodi:guide></sodipodi:namedview><g id="Wikipedia">
		<path id="path3898" d="m 18.757,118.893 c 0,0 -0.367,-0.746 -0.492,-0.994 -0.834,-1.653 -0.816,-1.741 -1.659,-1.852 -0.236,-0.031 -0.358,-0.061 -0.358,-0.178 v -0.523 l 0.071,-0.051 c 1.523,-0.002 4.912,-0.002 4.912,-0.002 l 0.13,0.043 v 0.521 c 0,0.119 -0.085,0.18 -0.258,0.18 l -0.356,0.051 c -0.9,0.07 -0.753,0.438 -0.155,1.629 l 5.677,11.615 0.194,0.053 5.04,-11.961 c 0.175,-0.482 0.148,-0.824 -0.077,-1.025 -0.226,-0.196 -0.385,-0.312 -0.969,-0.336 l -0.473,-0.024 c -0.058,0 -0.113,-0.021 -0.166,-0.06 -0.052,-0.037 -0.079,-0.086 -0.079,-0.145 v -0.498 l 0.072,-0.051 c 1.42,0 5.694,0 5.694,0 l 0.058,0.051 v 0.498 c 0,0.135 -0.077,0.203 -0.229,0.203 -0.746,0.033 -1.299,0.195 -1.657,0.484 -0.359,0.291 -0.639,0.692 -0.84,1.213 0,0 -4.635,10.609 -6.221,14.135 -0.607,1.156 -1.204,1.05 -1.729,-0.033 -1.109,-2.284 -4.232,-9.213 -4.232,-9.213 l -1.898,-3.73 z"></path>
		<path id="path3900" d="m 27.853,115.287 c 0,0 -3.203,-0.01 -4.629,0 l -0.071,0.051 v 0.496 c 0,0.061 0.026,0.109 0.078,0.146 0.053,0.039 0.107,0.059 0.165,0.059 l 0.229,0.025 c 0.583,0.024 0.851,0.177 0.931,0.273 0.139,0.17 0.208,0.354 -0.129,1.089 l -5.98,11.927 -0.157,-0.041 c 0,0 -4.283,-9.031 -5.523,-12.052 -0.129,-0.313 -0.187,-0.545 -0.187,-0.688 0,-0.307 0.277,-0.473 0.831,-0.496 l 0.646,-0.027 c 0.171,0 0.258,-0.066 0.258,-0.203 v -0.496 l -0.058,-0.051 c 0,0 -5.13,-0.006 -6.19,0 l -0.058,0.051 v 0.521 c 0,0.094 0.119,0.152 0.358,0.178 0.651,0.035 1.079,0.139 1.285,0.312 0.205,0.175 0.422,0.617 0.71,1.306 1.557,3.74 4.865,10.414 6.476,14.215 0.464,1.038 1.047,1.199 1.755,-0.032 1.226,-2.274 4.55,-9.218 4.55,-9.218 l 2.618,-4.896 c 0.305,-0.517 0.599,-0.978 0.748,-1.193 0.273,-0.393 0.426,-0.467 1.172,-0.502 0.152,0 0.229,-0.068 0.229,-0.205 v -0.496 l -0.057,-0.053 z"></path>
		<path id="path3902" d="m 21.535,126.689 c -0.02,0.066 0.188,0.293 0.253,0.313 l 0.155,-0.098 c 0.064,0.02 0.203,-0.041 0.223,-0.105 l 0.027,-0.264 -0.279,-1.304 c -0.051,-0.067 -0.09,-0.018 -0.107,0.043 l -0.272,1.415 z" style="fill:#ffffff"></path>
		<path id="path3904" d="m 37.592,130.77 c 0,0.572 0.26,0.91 1.092,0.988 l 0.546,0.053 c 0.078,0 0.156,0.051 0.156,0.155 v 0.546 l -0.026,0.053 c 0,0 -1.976,-0.053 -2.782,-0.053 -0.728,0 -2.756,0.053 -2.756,0.053 l -0.052,-0.053 v -0.546 c 0,-0.104 0.078,-0.155 0.182,-0.155 l 0.52,-0.053 c 0.858,-0.078 1.118,-0.494 1.118,-0.988 v -8.658 c 0,-0.571 -0.313,-0.729 -1.118,-0.805 l -0.52,-0.054 c -0.104,0 -0.182,-0.024 -0.182,-0.104 v -0.599 l 0.026,-0.052 c 0,0 2.054,0.052 2.86,0.052 0.702,0 2.704,-0.052 2.704,-0.052 l 0.026,0.052 v 0.572 c 0,0.078 -0.052,0.13 -0.156,0.13 l -0.546,0.053 c -0.806,0.077 -1.092,0.286 -1.092,0.807 v 8.658 z"></path>
		<path id="path3906" d="m 45.265,130.77 c 0,0.572 0.338,0.858 1.092,0.988 l 0.286,0.053 c 0.078,0.025 0.156,0.051 0.156,0.155 v 0.546 l -0.026,0.053 c 0,0 -1.638,-0.053 -2.418,-0.053 -0.728,0 -2.86,0.053 -2.86,0.053 l -0.052,-0.053 v -0.546 c 0,-0.104 0.078,-0.155 0.182,-0.155 l 0.52,-0.053 c 0.78,-0.078 1.118,-0.494 1.118,-0.988 v -8.658 c 0,-0.571 -0.286,-0.729 -1.118,-0.805 l -0.52,-0.054 c -0.104,0 -0.182,-0.024 -0.182,-0.104 v -0.599 l 0.026,-0.052 c 0,0 2.132,0.052 2.938,0.052 0.729,0 2.366,-0.052 2.366,-0.052 l 0.026,0.052 v 0.572 c 0,0.078 -0.052,0.104 -0.156,0.13 l -0.286,0.053 c -0.806,0.155 -1.092,0.286 -1.092,0.807 v 3.926 c 0.858,0 1.352,-0.441 2.496,-1.664 1.04,-1.145 1.846,-2.105 1.846,-2.6 0,-0.209 -0.234,-0.442 -0.754,-0.521 -0.104,-0.025 -0.156,-0.052 -0.156,-0.13 v -0.599 l 0.026,-0.025 c 0,0 2.106,0.052 2.86,0.052 0.676,0 1.82,-0.052 1.82,-0.052 l 0.078,0.025 v 0.599 c 0,0.078 -0.078,0.13 -0.208,0.13 -1.014,0.078 -1.716,0.13 -2.652,1.196 l -2.236,2.573 c -0.442,0.469 -0.598,0.754 -0.598,0.963 0,0.156 0.104,0.285 0.234,0.441 l 3.926,4.732 c 0.312,0.363 0.936,0.52 1.456,0.623 l 0.13,0.025 c 0.078,0.026 0.182,0.078 0.182,0.156 v 0.546 l -0.078,0.026 c 0,0 -1.378,-0.026 -2.106,-0.026 -0.65,0 -1.586,0.026 -1.586,0.026 l -0.026,-0.026 v -0.312 c 0,-0.339 -0.026,-0.623 -0.39,-1.039 l -2.886,-3.589 c -0.39,-0.521 -0.806,-0.649 -1.378,-0.649 v 3.851 l 0,0 z"></path>
		<path id="path3908" d="m 59.282,130.77 c 0,0.572 0.26,0.91 1.092,0.988 l 0.546,0.053 c 0.078,0 0.156,0.051 0.156,0.155 v 0.546 l -0.026,0.053 c 0,0 -1.976,-0.053 -2.782,-0.053 -0.728,0 -2.756,0.053 -2.756,0.053 l -0.052,-0.053 v -0.546 c 0,-0.104 0.078,-0.155 0.182,-0.155 l 0.52,-0.053 c 0.858,-0.078 1.118,-0.494 1.118,-0.988 v -8.658 c 0,-0.571 -0.312,-0.729 -1.118,-0.805 l -0.52,-0.054 c -0.104,0 -0.182,-0.024 -0.182,-0.104 v -0.599 l 0.026,-0.052 c 0,0 2.054,0.052 2.86,0.052 0.702,0 2.704,-0.052 2.704,-0.052 l 0.026,0.052 v 0.572 c 0,0.078 -0.052,0.13 -0.156,0.13 l -0.546,0.053 c -0.806,0.077 -1.092,0.286 -1.092,0.807 v 8.658 z"></path>
		<path id="path3910" d="m 64.9,122.163 c 0,-0.806 -0.338,-0.832 -1.56,-0.91 -0.156,0 -0.182,-0.077 -0.182,-0.13 v -0.598 l 0.052,-0.026 c 0.39,0 1.924,0.052 2.678,0.052 0.728,0 1.768,-0.052 2.73,-0.052 3.69,0 4.366,1.819 4.366,3.173 0,1.561 -0.754,4.004 -4.444,4.004 -0.65,0 -1.17,-0.053 -1.639,-0.26 v 3.482 c 0,0.572 0.312,0.703 1.145,0.832 l 0.521,0.078 c 0.104,0.026 0.182,0.053 0.182,0.156 v 0.546 l -0.025,0.052 c 0,0 -2.08,-0.052 -2.886,-0.052 -0.728,0 -2.678,0.052 -2.678,0.052 l -0.026,-0.052 v -0.546 c 0,-0.104 0.052,-0.13 0.156,-0.156 l 0.546,-0.078 c 0.806,-0.104 1.066,-0.338 1.066,-0.832 l -0.002,-8.735 0,0 z m 2.002,4.525 c 0.52,0.209 1.17,0.234 1.69,0.234 1.561,0 2.312,-0.938 2.312,-2.938 0,-2.236 -1.014,-2.73 -2.442,-2.73 -1.249,0 -1.561,0.234 -1.561,0.91 l 0.001,4.524 0,0 z"></path>
		<path d="m 84.235435,120.55 -4.836,0 -1.872,0 -2.6,-0.052 -0.026,0.052 0,0.572 c 0,0.026 0,0.078 0.156,0.104 l 0.598,0.052 c 0.727999,0.052 1.04,0.208 1.04,0.806 l 0,8.866 c 0,0.52 -0.234001,0.728 -1.04,0.806 l -0.598,0.052 c -0.13,0 -0.156,0.078 -0.156,0.13 l 0,0.572 0.026,0.052 2.574,-0.052 6.864,0 c 0.052,-0.832 0.234,-1.898 0.546,-3.172 l -0.65,-0.078 c -0.415999,1.326 -0.988001,2.366 -2.574,2.366 l -2.236,0 c -0.467999,0 -0.754,-0.13 -0.754,-0.624 l 0,-4.342 1.95,0 c 0.675999,0 0.91,0.286 1.014,0.806 l 0.13,0.572 c 0,0.078 0.052,0.13 0.182,0.13 l 0.442,0 0.052,-0.052 c -0.052,-0.598 -0.156,-1.144 -0.156,-1.794 0,-0.624 0.104,-1.352 0.156,-1.924 0,-0.052 0,-0.078 -0.052,-0.078 l -0.442,0 c -0.104,0 -0.156,0.052 -0.156,0.13 l -0.156,0.546 c -0.104,0.52 -0.286001,0.832 -1.014,0.832 l -1.95,0 0,-3.848 c 0,-0.442 0.260001,-0.546 0.754,-0.546 l 2.08,0 c 1.663998,0 2.158,1.378 2.418,2.314 l 0.65,-0.078 c -0.182,-0.988 -0.338,-2.002 -0.364,-3.12" id="path15072" sodipodi:nodetypes="cccccccccccccccccccccccccccccsscccccccccccc"></path>
		<path id="path3914" d="m 87.24,131.811 0.598,-0.053 c 0.781,-0.078 1.041,-0.312 1.041,-1.117 v -8.58 c 0,-0.678 -0.184,-0.678 -1.041,-0.754 l -0.57,-0.054 c -0.104,0 -0.184,-0.052 -0.184,-0.13 v -0.572 l 0.025,-0.052 c 0,0 2.289,0.052 2.758,0.052 0.492,0 2.756,-0.052 3.432,-0.052 4.342,0 6.475,2.704 6.475,6.162 0,4.551 -3.225,5.901 -6.11,5.901 -2.08,0 -2.989,-0.052 -3.795,-0.052 -0.781,0 -2.757,0.052 -2.757,0.052 l -0.026,-0.052 v -0.546 c -0.002,-0.075 0.051,-0.153 0.154,-0.153 z m 5.799,0 c 2.859,0 4.473,-1.065 4.473,-4.707 0,-2.703 -0.599,-5.851 -4.967,-5.851 -1.014,0 -1.664,0.156 -1.664,0.808 v 8.58 c 0,0.726 0.181,1.17 2.158,1.17 z"></path>
		<path id="path3916" d="m 105.912,130.77 c 0,0.572 0.26,0.91 1.092,0.988 l 0.546,0.053 c 0.078,0 0.156,0.051 0.156,0.155 v 0.546 l -0.026,0.053 c 0,0 -1.976,-0.053 -2.781,-0.053 -0.729,0 -2.756,0.053 -2.756,0.053 l -0.053,-0.053 v -0.546 c 0,-0.104 0.078,-0.155 0.182,-0.155 l 0.521,-0.053 c 0.857,-0.078 1.118,-0.494 1.118,-0.988 v -8.658 c 0,-0.571 -0.313,-0.729 -1.118,-0.805 l -0.521,-0.054 c -0.104,0 -0.182,-0.024 -0.182,-0.104 v -0.599 l 0.026,-0.052 c 0,0 2.054,0.052 2.858,0.052 0.702,0 2.705,-0.052 2.705,-0.052 l 0.025,0.052 v 0.572 c 0,0.078 -0.053,0.13 -0.156,0.13 l -0.546,0.053 c -0.806,0.077 -1.092,0.286 -1.092,0.807 l 0.002,8.658 0,0 z"></path>
		<path id="path3918" d="m 113.922,131.758 0.754,0.053 c 0.104,0 0.208,0.078 0.208,0.207 v 0.494 l -0.052,0.053 c 0,0 -2.834,-0.053 -3.458,-0.053 -0.677,0 -2.341,0.053 -2.341,0.053 l -0.053,-0.053 v -0.494 c 0,-0.129 0.078,-0.207 0.209,-0.207 1.145,-0.078 1.793,-0.287 2.521,-1.951 l 5.771,-13.521 c 0.285,-0.676 0.494,-0.937 0.885,-0.937 0.363,0 0.494,0.261 0.701,0.781 l 5.33,14.092 c 0.365,1.015 0.885,1.404 1.925,1.508 l 0.286,0.025 c 0.13,0 0.26,0.078 0.26,0.209 v 0.493 l -0.078,0.052 c 0,0 -2.002,-0.052 -3.016,-0.052 -0.91,0 -3.459,0.052 -3.459,0.052 l -0.025,-0.052 v -0.493 c 0,-0.131 0.052,-0.209 0.184,-0.209 l 0.728,-0.052 c 0.987,-0.077 1.353,-0.391 1.092,-1.118 l -1.586,-4.395 H 115.3 c -0.624,0 -0.78,0.104 -0.909,0.441 l -1.509,3.771 c -0.26,0.652 0.078,1.225 1.04,1.303 z m 6.37,-6.606 -2.522,-6.941 h -0.052 l -2.6,6.604 c -0.104,0.261 0.077,0.338 0.649,0.338 h 4.525 z"></path>
	</g><g transform="scale(1.0184038,0.98192877)" id="The_Free_Encyclopedia" style="font-size:13.23925018px;font-style:normal;font-variant:normal;font-weight:normal;font-stretch:normal;letter-spacing:0.40736154;fill:#000000;fill-opacity:1;stroke:none;font-family:Linux Libertine O;-inkscape-font-specification:Linux Libertine O"><path d="m 19.660146,142.22518 -1.972648,6.03709 -0.02648,0 -1.906452,-5.89146 c -0.18535,-0.55605 -0.05296,-0.79436 0.291263,-0.82084 l 0.383938,-0.0265 c 0.05296,0 0.119154,-0.0265 0.119154,-0.0927 l 0,-0.26478 -0.02648,-0.0265 c -0.622244,0.0132 -1.085619,0.0265 -1.615188,0.0265 -0.516331,0 -0.834074,-0.0132 -1.363643,-0.0265 l -0.02648,0.0265 0,0.26478 c 0,0.053 0.0662,0.0927 0.158871,0.0927 0.70168,0.0397 0.873791,0.51633 0.979705,0.84731 l 0.198589,0.609 c 0.05296,0.1324 0.0662,0.25155 0.0662,0.3707 0,0.17211 -0.03972,0.34422 -0.09268,0.50309 l -1.403361,4.3822 -0.02648,0 -1.985888,-6.1033 c -0.05296,-0.14563 -0.07944,-0.25154 -0.07944,-0.34422 0,-0.17211 0.119153,-0.23831 0.370699,-0.25154 l 0.291263,-0.0132 c 0.07944,0 0.119154,-0.0397 0.119154,-0.10592 l 0,-0.25154 -0.02648,-0.0265 c -0.622244,0.0132 -0.992944,0.0265 -1.509274,0.0265 -0.52957,0 -0.7546381,-0.0132 -1.2842076,-0.0265 l -0.026478,0.0265 0,0.26478 c 0,0.053 0.066196,0.0794 0.158871,0.0927 0.5957666,0.0397 0.6619636,0.11915 0.9002696,0.82083 l 2.409543,7.20215 c 0.0662,0.21183 0.211829,0.31774 0.410417,0.31774 0.18535,0 0.317742,-0.13239 0.370699,-0.31774 l 1.575471,-4.73965 c 0.05296,-0.15887 0.119153,-0.33098 0.18535,-0.33098 0.05296,0 0.119153,0.18535 0.185349,0.3707 l 1.548992,4.69993 c 0.07944,0.22507 0.238307,0.31774 0.410417,0.31774 0.185349,0 0.291264,-0.10591 0.35746,-0.3045 l 2.47574,-7.17567 c 0.15887,-0.46338 0.397178,-0.82084 1.125336,-0.86055 0.0662,0 0.105914,-0.0397 0.105914,-0.10592 l 0,-0.25154 -0.02648,-0.0265 c -0.489851,0.0132 -0.87379,0.0265 -1.218011,0.0265 -0.34422,0 -0.926748,-0.0132 -1.456317,-0.0265 l -0.02648,0.0265 0,0.25154 c 0,0.0662 0.05296,0.10592 0.105914,0.10592 l 0.211828,0.0132 c 0.489852,0.0265 0.754637,0.17211 0.582527,0.68844" id="path15188"></path><path d="m 21.735654,146.99131 c 0,1.3504 0.939988,2.84644 2.714046,2.84644 1.879972,0 2.740525,-1.64167 2.740525,-2.9656 0,-1.37688 -0.754639,-2.97883 -2.714046,-2.97883 -1.760819,0 -2.740525,1.28421 -2.740525,3.09799 m 2.594893,-2.66109 c 1.085617,0 1.734342,1.01942 1.734342,2.96559 0,1.74758 -0.794356,2.10504 -1.390122,2.10504 -1.310684,0 -1.813777,-1.69463 -1.813777,-2.71405 0,-1.15181 0.410418,-2.35658 1.469557,-2.35658" id="path15190"></path><path d="m 29.336892,148.75213 c 0,0.38393 -0.132393,0.52957 -0.569287,0.56928 l -0.317742,0.0265 c -0.0662,0 -0.09267,0.0397 -0.09267,0.10592 l 0,0.25154 0.01324,0.0265 c 0.661962,-0.0132 0.926748,-0.0265 1.443078,-0.0265 0.542809,0 0.807595,0.0132 1.469557,0.0265 l 0.02648,-0.0265 0,-0.25154 c 0,-0.0662 -0.05296,-0.10592 -0.105914,-0.10592 l -0.317742,-0.0265 c -0.436895,-0.0397 -0.556049,-0.18535 -0.556049,-0.56928 l 0,-6.76526 c 0,-0.86055 0.03972,-1.39012 0.03972,-1.39012 0,-0.0927 -0.05296,-0.13239 -0.17211,-0.13239 -0.330981,0.13239 -1.24449,0.3045 -1.787299,0.34422 l 0.02648,0.31774 c 0,0.0397 0.03972,0.0662 0.07944,0.0662 l 0.423656,0.0265 c 0.264785,0 0.397177,0.17211 0.397177,1.03266 l 0,6.50048" id="path15192"></path><path d="m 34.123343,143.89332 c 0,-0.0265 -0.02648,-0.0397 -0.05296,-0.0397 -0.370698,0.14564 -0.90027,0.26479 -1.827016,0.41042 l 0.02648,0.31774 0.569288,0.053 c 0.185349,0.0265 0.291263,0.15887 0.291263,0.82083 l 0,3.29658 c 0,0.38393 -0.132392,0.52957 -0.569287,0.56928 l -0.251546,0.0265 c -0.0662,0.0132 -0.105914,0.0397 -0.105914,0.10592 l 0,0.25154 0.02648,0.0265 c 0.52957,-0.0132 0.860552,-0.0265 1.376882,-0.0265 0.542809,0 0.820835,0.0132 1.350404,0.0265 l 0.02648,-0.0265 0,-0.25154 c 0,-0.0662 -0.03972,-0.0927 -0.105915,-0.10592 l -0.185349,-0.0265 c -0.436895,-0.0662 -0.569288,-0.18535 -0.569288,-0.56928 l 0,-3.2039 c 0.675201,-0.79436 1.178294,-1.01942 1.760821,-1.01942 0.701679,0 0.860551,0.43689 0.860551,1.36364 l 0,2.85968 c 0,0.38393 -0.145632,0.50309 -0.569288,0.56928 l -0.185349,0.0265 c -0.0662,0.0132 -0.105914,0.0397 -0.105914,0.10592 l 0,0.25154 0.02648,0.0265 c 0.529569,-0.0132 0.794356,-0.0265 1.310686,-0.0265 0.542808,0 0.88703,0.0132 1.4166,0.0265 l 0.02648,-0.0265 0,-0.25154 c 0,-0.0662 -0.05296,-0.0927 -0.119153,-0.10592 l -0.251546,-0.0265 c -0.410416,-0.0397 -0.556048,-0.18535 -0.556048,-0.56928 l 0,-2.76701 c 0,-1.17829 -0.264787,-2.0918 -1.456318,-2.0918 -0.675201,0 -1.310687,0.18535 -2.157998,1.1783 l -0.03972,0 0.03972,-1.1783" id="path15194"></path><path d="m 43.115532,146.62061 0,1.76082 c 0,0.17211 -0.07944,0.26478 -0.18535,0.34422 -0.34422,0.27802 -0.794355,0.56929 -1.165054,0.56929 -0.661962,0 -0.979704,-0.52957 -0.979704,-0.93999 0,-0.59577 0.304503,-1.19153 1.284207,-1.45632 l 1.045901,-0.27802 m 0,2.44926 c 0.07943,0.27802 0.291264,0.76788 0.992943,0.76788 0.648723,0 1.098858,-0.52957 1.098858,-0.59577 0,-0.0927 -0.09267,-0.19859 -0.145632,-0.19859 -0.07943,0 -0.119153,0.21183 -0.436895,0.21183 -0.51633,0 -0.52957,-0.54281 -0.52957,-1.15182 l 0,-1.97264 c 0,-1.87998 -0.979705,-2.23744 -1.94617,-2.23744 -1.085617,0 -2.184476,0.75464 -2.184476,1.46956 0,0.31774 0.158871,0.46337 0.463374,0.46337 0.383938,0 0.582527,-0.26478 0.582527,-0.43689 0,-0.0927 -0.01324,-0.18535 -0.03972,-0.23831 -0.01324,-0.0397 -0.02648,-0.11915 -0.02648,-0.26478 0,-0.41042 0.595766,-0.59577 1.098857,-0.59577 0.450134,0 1.07238,0.26479 1.07238,1.76082 0,0.0927 -0.03972,0.14563 -0.07944,0.15887 l -1.138575,0.27802 c -1.270967,0.31775 -2.157998,1.01943 -2.157998,1.9197 0,1.0459 0.71492,1.42984 1.641667,1.42984 0.609005,0 0.860552,-0.10592 1.443078,-0.55605 l 0.264785,-0.21183 0.02648,0" id="path15196"></path><path d="m 50.909616,145.90569 c 0.238306,-1.49604 1.218011,-1.56223 1.522513,-1.56223 0.476613,0 1.098858,0.26478 1.098858,1.37688 0,0.11915 -0.05296,0.18535 -0.185349,0.18535 l -2.436022,0 m 3.495162,2.54193 c -0.463374,0.5031 -0.926749,0.7414 -1.654907,0.7414 -0.741397,0 -1.879973,-0.79435 -1.879973,-2.767 l 3.481923,0 c 0.145631,0 0.238306,-0.0794 0.238306,-0.22507 0,-1.11209 -0.410418,-2.30363 -2.157998,-2.30363 -1.257727,0 -2.621371,1.16506 -2.621371,3.17742 0,1.52251 0.807596,2.76701 2.621371,2.76701 0.953225,0 1.734343,-0.48986 2.237434,-1.1783 -0.03972,-0.13239 -0.119154,-0.19859 -0.264785,-0.21183" id="path15198"></path><path d="m 57.628583,143.89332 c 0,-0.0265 -0.02648,-0.0397 -0.05296,-0.0397 -0.370699,0.14564 -0.90027,0.26479 -1.827017,0.41042 l 0.02648,0.31774 0.569287,0.053 c 0.18535,0.0265 0.291264,0.15887 0.291264,0.82083 l 0,3.29658 c 0,0.38393 -0.132393,0.52957 -0.569288,0.56928 l -0.251546,0.0265 c -0.0662,0.0132 -0.105914,0.0397 -0.105914,0.10592 l 0,0.25154 0.02648,0.0265 c 0.529569,-0.0132 0.860552,-0.0265 1.376882,-0.0265 0.542809,0 0.820834,0.0132 1.350403,0.0265 l 0.02648,-0.0265 0,-0.25154 c 0,-0.0662 -0.03972,-0.0927 -0.105914,-0.10592 l -0.18535,-0.0265 c -0.436894,-0.0662 -0.569287,-0.18535 -0.569287,-0.56928 l 0,-3.2039 c 0.675201,-0.79436 1.178294,-1.01942 1.76082,-1.01942 0.70168,0 0.860551,0.43689 0.860551,1.36364 l 0,2.85968 c 0,0.38393 -0.145632,0.50309 -0.569287,0.56928 l -0.18535,0.0265 c -0.0662,0.0132 -0.105914,0.0397 -0.105914,0.10592 l 0,0.25154 0.02648,0.0265 c 0.529569,-0.0132 0.794355,-0.0265 1.310685,-0.0265 0.542809,0 0.887031,0.0132 1.4166,0.0265 l 0.02648,-0.0265 0,-0.25154 c 0,-0.0662 -0.05296,-0.0927 -0.119154,-0.10592 l -0.251545,-0.0265 c -0.410417,-0.0397 -0.556049,-0.18535 -0.556049,-0.56928 l 0,-2.76701 c 0,-1.17829 -0.264786,-2.0918 -1.456317,-2.0918 -0.675202,0 -1.310687,0.18535 -2.157998,1.1783 l -0.03972,0 0.03972,-1.1783" id="path15200"></path><path d="m 68.010891,148.50058 c -0.05296,-0.11915 -0.158872,-0.17211 -0.278025,-0.18535 -0.410416,0.59577 -1.019423,0.93999 -1.58871,0.93999 -1.019421,0 -1.76082,-1.0459 -1.76082,-2.59489 0,-1.45632 0.675203,-2.31687 1.548992,-2.31687 0.781115,0 0.88703,0.56928 0.939987,1.00618 0.03972,0.33098 0.198589,0.46337 0.476613,0.46337 0.278024,0 0.622245,-0.18535 0.622245,-0.56928 0,-0.70168 -0.701682,-1.35041 -1.972648,-1.35041 -1.429838,0 -2.740525,1.1783 -2.740525,3.05827 0,1.70786 0.926749,2.88616 2.594893,2.88616 0.794354,0 1.496036,-0.25155 2.157998,-1.33717" id="path15202"></path><path d="m 71.371434,144.27726 0,-0.23831 -0.02648,-0.0397 c -0.489852,0.0132 -0.966466,0.0265 -1.443079,0.0265 -0.450134,0 -0.847312,-0.0132 -1.112097,-0.0265 l -0.02648,0.0265 0,0.26479 c 0,0.053 0.05296,0.0794 0.132392,0.0927 0.436895,0.0397 0.595767,0.14564 0.807594,0.64873 l 1.668146,3.8791 c 0.105914,0.26478 0.225067,0.62224 0.225067,0.75464 0,0.11915 -0.02648,0.25154 -0.105914,0.41041 -0.330981,0.8076 -0.820833,1.97265 -1.019422,1.97265 -0.132392,0 -0.225067,-0.0927 -0.35746,-0.22507 -0.07943,-0.10591 -0.211828,-0.18535 -0.410417,-0.18535 -0.211827,0 -0.503091,0.11916 -0.503091,0.51633 0,0.47662 0.516331,0.62225 0.767877,0.62225 0.939985,0 1.443078,-1.13858 1.840255,-2.0918 1.059139,-2.55518 1.641668,-3.91882 2.343348,-5.40162 0.185349,-0.38393 0.450135,-0.86055 0.939986,-0.90027 0.09267,-0.0132 0.145632,-0.0397 0.145632,-0.10591 l 0,-0.25155 -0.03972,-0.0265 c -0.330981,0.0132 -0.542809,0.0265 -0.913508,0.0265 -0.463373,0 -0.754638,-0.0132 -1.244489,-0.0265 l -0.02648,0.0397 0,0.25155 c 0,0.0662 0.0662,0.0927 0.132393,0.0927 0.410416,0.0397 0.807594,0.11916 0.51633,0.64873 l -1.469556,3.36277 -1.456318,-3.41573 c -0.198589,-0.45013 -0.01324,-0.55605 0.489852,-0.59577 0.0662,0 0.145632,-0.0397 0.145632,-0.10591" id="path15204"></path><path d="m 76.927003,142.25165 0,6.50048 c 0,0.38393 -0.132393,0.52957 -0.569288,0.56928 l -0.251546,0.0265 c -0.0662,0.0132 -0.09267,0.0397 -0.09267,0.10592 l 0,0.25154 0.02648,0.0265 c 0.661962,-0.0132 0.847312,-0.0265 1.363643,-0.0265 0.542808,0 0.675202,0.0132 1.191532,0.0265 l 0.02648,-0.0265 0,-0.25154 c 0,-0.0662 -0.05296,-0.10592 -0.105914,-0.10592 -0.344221,-0.0397 -0.595767,-0.0927 -0.595767,-0.59576 l 0,-1.8535 c 0.330981,0 0.516331,0.0927 0.781116,0.47661 l 0.966465,1.36365 c 0.264785,0.38394 0.304503,0.54281 0.304503,0.71492 l 0,0.25154 0.03972,0.0265 c 0.264785,-0.0132 0.489853,-0.0265 0.88703,-0.0265 0.410416,0 0.728159,0.0132 1.125336,0.0265 l 0.02648,-0.0265 0,-0.25154 c 0,-0.0662 -0.02648,-0.0927 -0.119153,-0.10592 l -0.09267,-0.0132 c -0.330981,-0.053 -0.754637,-0.2383 -0.992943,-0.59576 l -1.548993,-2.29039 c -0.03972,-0.053 -0.0662,-0.11916 -0.0662,-0.18535 0,-0.053 0.01324,-0.0927 0.05296,-0.13239 l 1.006183,-1.1121 c 0.330981,-0.34422 0.913509,-0.56929 1.270968,-0.62225 l 0.09267,-0.0132 c 0.0662,-0.0132 0.145632,-0.0397 0.145632,-0.10591 l 0,-0.25155 -0.05296,-0.0265 c -0.489852,0.0132 -0.675203,0.0265 -1.151815,0.0265 -0.503091,0 -0.688442,-0.0132 -1.178293,-0.0265 0,0.0132 -0.03972,0.0265 -0.03972,0.0265 l 0,0.25155 c 0,0.053 0.03972,0.10591 0.105914,0.10591 0.794354,0.0397 0.317742,0.58253 0.17211,0.72816 -0.714919,0.78112 -1.390121,1.37689 -1.734342,1.45632 l 0,-4.58078 c 0,-0.86055 0.03972,-1.39012 0.03972,-1.39012 0,-0.0927 -0.05296,-0.13239 -0.17211,-0.13239 -0.330981,0.13239 -1.257729,0.3045 -1.787299,0.34422 l 0.02648,0.31774 c 0,0.0397 0.03972,0.0662 0.07943,0.0662 l 0.423656,0.0265 c 0.264785,0 0.397178,0.17211 0.397178,1.03266" id="path15206"></path><path d="m 83.762223,148.75213 c 0,0.38393 -0.132393,0.52957 -0.569287,0.56928 l -0.317742,0.0265 c -0.0662,0 -0.09267,0.0397 -0.09267,0.10592 l 0,0.25154 0.01324,0.0265 c 0.661962,-0.0132 0.926748,-0.0265 1.443078,-0.0265 0.542809,0 0.807595,0.0132 1.469557,0.0265 l 0.02648,-0.0265 0,-0.25154 c 0,-0.0662 -0.05296,-0.10592 -0.105914,-0.10592 l -0.317742,-0.0265 c -0.436895,-0.0397 -0.556049,-0.18535 -0.556049,-0.56928 l 0,-6.76526 c 0,-0.86055 0.03972,-1.39012 0.03972,-1.39012 0,-0.0927 -0.05296,-0.13239 -0.17211,-0.13239 -0.330981,0.13239 -1.24449,0.3045 -1.787299,0.34422 l 0.02648,0.31774 c 0,0.0397 0.03972,0.0662 0.07944,0.0662 l 0.423656,0.0265 c 0.264785,0 0.397177,0.17211 0.397177,1.03266 l 0,6.50048" id="path15208"></path><path d="m 86.827574,146.99131 c 0,1.3504 0.939988,2.84644 2.714046,2.84644 1.879972,0 2.740525,-1.64167 2.740525,-2.9656 0,-1.37688 -0.754639,-2.97883 -2.714046,-2.97883 -1.760819,0 -2.740525,1.28421 -2.740525,3.09799 m 2.594893,-2.66109 c 1.085617,0 1.734342,1.01942 1.734342,2.96559 0,1.74758 -0.794356,2.10504 -1.390122,2.10504 -1.310684,0 -1.813777,-1.69463 -1.813777,-2.71405 0,-1.15181 0.410418,-2.35658 1.469557,-2.35658" id="path15210"></path><path d="m 95.223166,145.58795 c 0.291263,-0.70168 0.926748,-1.08562 1.376882,-1.08562 0.807594,0 1.496036,0.95322 1.496036,2.44926 0,1.08562 -0.357462,2.43602 -1.77406,2.43602 -0.211828,0 -0.635484,-0.0265 -1.098858,-0.56929 l 0,-3.23037 m -0.992943,-0.1324 0,6.38132 c 0,0.3707 -0.145633,0.51633 -0.569288,0.55605 l -0.251546,0.0265 c -0.0662,0.0132 -0.105914,0.0397 -0.105914,0.10591 l 0,0.25155 0.02648,0.0265 c 0.489852,-0.0132 0.90027,-0.0265 1.376883,-0.0265 0.503091,0 0.926748,0.0132 1.416599,0.0265 l 0.02648,-0.0265 0,-0.25155 c 0,-0.0662 -0.05296,-0.0927 -0.119153,-0.10591 l -0.251546,-0.0265 c -0.410417,-0.0397 -0.556049,-0.18535 -0.556049,-0.55605 l 0,-2.29039 c 0.34422,0.18535 0.701681,0.29127 1.178294,0.29127 0.701679,0 1.337164,-0.22507 1.853495,-0.7414 0.595765,-0.60901 0.926747,-1.42984 0.926747,-2.50222 0,-1.40336 -0.939988,-2.70081 -2.224194,-2.70081 -0.423656,0 -1.125337,0.1324 -1.734342,1.05914 l -0.03972,0 0.03972,-1.05914 c 0,-0.0265 -0.02648,-0.0397 -0.05296,-0.0397 -0.383938,0.14564 -0.88703,0.26479 -1.827016,0.41042 l 0.02648,0.31774 0.569288,0.053 c 0.185349,0.0265 0.291264,0.15887 0.291264,0.82083" id="path15212"></path><path d="m 101.7212,145.90569 c 0.23831,-1.49604 1.21802,-1.56223 1.52252,-1.56223 0.47661,0 1.09886,0.26478 1.09886,1.37688 0,0.11915 -0.053,0.18535 -0.18535,0.18535 l -2.43603,0 m 3.49517,2.54193 c -0.46338,0.5031 -0.92675,0.7414 -1.65491,0.7414 -0.7414,0 -1.87997,-0.79435 -1.87997,-2.767 l 3.48192,0 c 0.14563,0 0.23831,-0.0794 0.23831,-0.22507 0,-1.11209 -0.41042,-2.30363 -2.158,-2.30363 -1.25773,0 -2.62137,1.16506 -2.62137,3.17742 0,1.52251 0.80759,2.76701 2.62137,2.76701 0.95322,0 1.73434,-0.48986 2.23743,-1.1783 -0.0397,-0.13239 -0.11915,-0.19859 -0.26478,-0.21183" id="path15214"></path><path d="m 110.86109,148.46086 c -0.59576,0.47662 -1.11209,0.75464 -1.45631,0.75464 -0.71492,0 -1.44308,-0.78112 -1.44308,-2.43602 0,-0.95323 0.17211,-1.4828 0.3707,-1.76082 0.41041,-0.62225 0.96646,-0.66196 1.23125,-0.66196 0.62224,0 0.9797,0.27802 1.29744,0.78111 l 0,3.32305 m 0.99295,-6.47399 c 0,-0.86055 0.0397,-1.39012 0.0397,-1.39012 0,-0.0927 -0.053,-0.13239 -0.17211,-0.13239 -0.33099,0.13239 -1.24449,0.3045 -1.7873,0.34422 l 0.0265,0.31774 c 0,0.0397 0.0397,0.0662 0.0794,0.0662 l 0.42366,0.0265 c 0.26478,0 0.39717,0.17211 0.39717,1.03266 l 0,1.93294 c -0.3045,-0.17211 -0.88703,-0.29127 -1.15181,-0.29127 -0.87379,0 -1.45632,0.29127 -1.98589,0.79436 -0.56929,0.56928 -0.88703,1.3504 -0.88703,2.3301 0,1.62843 0.79436,2.81997 2.2242,2.81997 0.52957,0 1.19153,-0.42366 1.80053,-0.91351 l 0.0265,0.0132 -0.0265,0.92674 0.30451,0 c 0.29126,-0.2383 0.87379,-0.41041 1.69462,-0.55604 l -0.0397,-0.30451 -0.63548,-0.0662 c -0.27802,-0.0265 -0.33098,-0.10592 -0.33098,-0.76788 l 0,-6.18273" id="path15216"></path><path d="m 114.5373,142.15898 c 0,0.34422 0.29127,0.63548 0.63549,0.63548 0.34422,0 0.63548,-0.29126 0.63548,-0.63548 0,-0.34422 -0.29126,-0.63548 -0.63548,-0.63548 -0.34422,0 -0.63549,0.29126 -0.63549,0.63548 m 1.24449,1.73434 c 0,-0.0265 -0.0265,-0.0397 -0.0529,-0.0397 -0.3707,0.14564 -0.92675,0.26479 -1.86674,0.41042 l 0.0265,0.31774 0.56929,0.053 c 0.18535,0.0265 0.29126,0.15887 0.29126,0.82083 l 0,3.29658 c 0,0.38393 -0.11915,0.51633 -0.56929,0.56928 l -0.25154,0.0265 c -0.0662,0.0132 -0.10592,0.0397 -0.10592,0.10592 l 0,0.25154 0.0265,0.0265 c 0.52957,-0.0132 0.90027,-0.0265 1.37688,-0.0265 0.5031,0 0.88704,0.0132 1.4166,0.0265 l 0.0265,-0.0265 0,-0.25154 c 0,-0.0662 -0.0529,-0.0927 -0.11915,-0.10592 l -0.25155,-0.0265 c -0.41041,-0.0397 -0.55604,-0.18535 -0.55604,-0.56928 l 0,-3.29658 c 0,-0.66196 0.0397,-1.56223 0.0397,-1.56223" id="path15218"></path><path d="m 121.20125,146.62061 0,1.76082 c 0,0.17211 -0.0794,0.26478 -0.18535,0.34422 -0.34422,0.27802 -0.79436,0.56929 -1.16506,0.56929 -0.66196,0 -0.9797,-0.52957 -0.9797,-0.93999 0,-0.59577 0.3045,-1.19153 1.28421,-1.45632 l 1.0459,-0.27802 m 0,2.44926 c 0.0794,0.27802 0.29126,0.76788 0.99294,0.76788 0.64872,0 1.09886,-0.52957 1.09886,-0.59577 0,-0.0927 -0.0927,-0.19859 -0.14563,-0.19859 -0.0794,0 -0.11916,0.21183 -0.4369,0.21183 -0.51633,0 -0.52957,-0.54281 -0.52957,-1.15182 l 0,-1.97264 c 0,-1.87998 -0.9797,-2.23744 -1.94617,-2.23744 -1.08561,0 -2.18447,0.75464 -2.18447,1.46956 0,0.31774 0.15887,0.46337 0.46337,0.46337 0.38394,0 0.58253,-0.26478 0.58253,-0.43689 0,-0.0927 -0.0132,-0.18535 -0.0397,-0.23831 -0.0132,-0.0397 -0.0265,-0.11915 -0.0265,-0.26478 0,-0.41042 0.59577,-0.59577 1.09886,-0.59577 0.45013,0 1.07238,0.26479 1.07238,1.76082 0,0.0927 -0.0397,0.14563 -0.0794,0.15887 l -1.13857,0.27802 c -1.27097,0.31775 -2.158,1.01943 -2.158,1.9197 0,1.0459 0.71492,1.42984 1.64167,1.42984 0.609,0 0.86055,-0.10592 1.44307,-0.55605 l 0.26479,-0.21183 0.0265,0" id="path15220"></path></g></svg>
</svg>