<?xml version="1.0" encoding="UTF-8" standalone="no"?>
<svg
	xmlns="http://www.w3.org/2000/svg"
	xmlns:dc="http://purl.org/dc/elements/1.1/"
	xmlns:cc="http://creativecommons.org/ns#"
	xmlns:rdf="http://www.w3.org/1999/02/22-rdf-syntax-ns#"
	xmlns:svg="http://www.w3.org/2000/svg"
	xmlns:xlink="http://www.w3.org/1999/xlink"
	xmlns:sodipodi="http://sodipodi.sourceforge.net/DTD/sodipodi-0.dtd"
	xmlns:inkscape="http://www.inkscape.org/namespaces/inkscape"
	version="1.1"
	viewBox="0 0 135px 155px">
	<svg xmlns:dc="http://purl.org/dc/elements/1.1/" xmlns:cc="http://creativecommons.org/ns#" xmlns:rdf="http://www.w3.org/1999/02/22-rdf-syntax-ns#" xmlns:svg="http://www.w3.org/2000/svg" xmlns:sodipodi="http://sodipodi.sourceforge.net/DTD/sodipodi-0.dtd" xmlns:inkscape="http://www.inkscape.org/namespaces/inkscape" version="1.1" id="svg3857" inkscape:version="0.46" sodipodi:docname="Wikipedia-logo-v2-ug-Tehreer.svg" x="0px" y="0px" width="135px" height="155px" viewBox="0 0 135 155" enable-background="new 0 0 135 155" xml:space="preserve" sodipodi:version="0.32" inkscape:output_extension="org.inkscape.output.svg.inkscape" xmlns:xlink="http://www.w3.org/1999/xlink" xmlns:svgjs="http://svgjs.com/svgjs"><metadata id="metadata698"><rdf:RDF><cc:Work rdf:about=""><dc:format>image/svg+xml</dc:format><dc:type rdf:resource="http://purl.org/dc/dcmitype/StillImage"></dc:type></cc:Work></rdf:RDF></metadata><defs id="defs3"></defs><sodipodi:namedview id="namedview4848" showgrid="false" pagecolor="#ffffff" objecttolerance="10" guidetolerance="10" inkscape:cy="77.5" inkscape:guide-bbox="true" showguides="true" inkscape:zoom="3.2129032" inkscape:pageopacity="0" gridtolerance="10" inkscape:window-height="723" bordercolor="#666666" inkscape:window-y="24" borderopacity="1" inkscape:pageshadow="2" inkscape:window-x="0" inkscape:window-width="1024" inkscape:cx="67.247307" inkscape:current-layer="svg3857" inkscape:window-maximized="0">
	<sodipodi:guide id="globe_top" orientation="0,1" position="0,140"></sodipodi:guide>
	<sodipodi:guide id="globe_left" orientation="1,0" position="16,0"></sodipodi:guide>
	<sodipodi:guide id="globe_right" orientation="1,0" position="119,0"></sodipodi:guide>
	<sodipodi:guide id="globe_bottom" orientation="0,1" position="0,47"></sodipodi:guide>
	
	
	<sodipodi:guide id="subtitle_top" orientation="0,1" position="0,16.5"></sodipodi:guide>
	
	<sodipodi:guide id="wordmark_left" orientation="1,0" position="8,40"></sodipodi:guide>
	<sodipodi:guide id="wordmark_right" orientation="1,0" position="127,40"></sodipodi:guide>
<sodipodi:guide orientation="0,1" position="0,43.5" id="guide3075"></sodipodi:guide><sodipodi:guide orientation="0,1" position="0,14.75" id="guide3081"></sodipodi:guide><sodipodi:guide orientation="0,1" position="49.487952,0" id="guide3083"></sodipodi:guide></sodipodi:namedview><path transform="matrix(9.7524574e-2,0,0,9.7524574e-2,19.256813,130.35879)" d="M 1019.771,133.00078 L 1018.1538,139.61015 L 1008.6616,145.09453 L 1012.8804,146.0789 L 1015.9038,146.0789 L 1019.6304,145.72734 L 1023.7788,144.74297 L 1029.2632,142.84453 L 1027.7866,147.62578 L 1026.0288,149.38359 L 1017.521,153.9539 L 998.32568,165.90703 L 1000.0132,159.22734 L 1008.6616,152.75859 L 1005.2866,152.05547 L 1003.3882,150.71953 L 1004.9351,142.28203 L 1011.4038,137.28984 L 1019.771,133.00078 M 1006.6929,203.24297 L 998.32568,203.24297 L 998.32568,191.57109 L 1007.1147,191.57109 C 1009.0835,191.5711 1011.5444,190.0711 1014.4976,187.07109 C 1012.9507,184.68048 1012.1772,183.22736 1012.1772,182.71172 C 1012.1772,176.89924 1013.4429,172.63362 1015.9741,169.91484 C 1017.3335,169.82112 1018.0366,169.868 1018.0835,170.05547 C 1019.3022,173.85237 1021.81,178.44612 1025.6069,183.83672 C 1022.2319,196.77422 1015.9272,203.24297 1006.6929,203.24297 M 1000.1538,191.57109 L 1000.1538,203.24297 L 996.70849,203.24297 C 992.81781,203.24297 990.00531,202.37578 988.27099,200.6414 C 988.13031,205.84453 987.73188,209.19608 987.07568,210.69609 C 985.29438,215.57108 977.41939,223.0242 963.45068,233.05547 C 951.87254,241.39918 943.01317,246.2273 936.87255,247.53984 C 936.87255,244.82105 937.55224,241.21168 938.91162,236.71172 C 941.77098,235.68043 948.77879,231.7195 959.93505,224.8289 C 960.40378,224.54763 965.56002,220.49295 975.4038,212.66484 C 979.20063,209.71171 980.98188,206.2664 980.74755,202.3289 L 964.01318,206.54765 C 963.40378,204.81328 963.09909,202.39922 963.09912,199.30547 C 963.09909,192.74298 964.17721,186.50861 966.33349,180.60234 C 968.91158,173.94612 971.98189,170.618 975.54443,170.61797 C 979.66938,170.618 983.95844,175.91487 988.41162,186.50859 C 990.05219,189.8836 992.81781,191.5711 996.70849,191.57109 L 1000.1538,191.57109 M 969.07568,195.08672 C 974.41939,194.24297 976.88032,193.42266 976.45849,192.62578 C 974.02095,188.36017 972.26314,185.8758 971.18505,185.17265 L 969.07568,195.08672 M 855.23974,203.24297 L 843.91943,203.24297 L 843.91943,191.57109 L 853.3413,191.14922 L 861.91943,188.12578 L 873.0288,182.00859 C 867.35691,179.89924 863.65379,178.25862 861.91943,177.08672 C 857.46629,174.32112 853.10692,171.81331 848.8413,169.56328 L 856.01318,156.27422 C 874.8569,164.52425 889.50532,168.41488 899.95849,167.94609 C 911.34905,167.38363 921.91935,164.92269 931.66943,160.56328 C 926.65372,166.56331 923.1381,170.54769 921.12255,172.5164 L 885.61474,190.5164 L 866.77099,197.47734 C 859.08348,201.03984 855.23973,202.96172 855.23974,203.24297 M 900.16943,213.22734 C 900.16937,213.22733 903.05218,216.13358 908.81787,221.94609 L 899.81787,231.36797 L 891.66162,222.71953 L 900.16943,213.22734 M 881.18505,213.08672 C 881.18502,213.08671 884.06783,215.99295 889.83349,221.80547 L 880.83349,231.22734 L 872.67724,222.5789 L 881.18505,213.08672 M 890.53662,228.83672 C 890.53657,228.83669 893.41938,231.74294 899.18505,237.55547 L 890.18505,246.97734 L 882.0288,238.3289 L 890.53662,228.83672 M 828.09912,155.00859 L 822.9663,151.28203 C 817.48189,157.70395 812.9819,160.91488 809.4663,160.91484 C 808.76315,160.91488 807.21628,160.46957 804.82568,159.5789 C 807.02878,158.21957 809.25534,156.6727 811.50537,154.93828 C 813.80221,153.20395 816.21627,151.21177 818.74755,148.96172 C 816.82564,146.80552 815.86471,145.09459 815.86474,143.8289 C 815.86471,142.75084 816.05221,141.6024 816.42724,140.38359 C 816.8022,139.11803 817.34127,137.87584 818.04443,136.65703 C 818.74752,135.39147 819.56783,134.33678 820.50537,133.49297 C 821.44283,132.60241 822.47407,132.1571 823.59912,132.15703 C 826.59907,132.1571 828.09907,134.2196 828.09912,138.34453 C 828.09907,140.92272 827.41938,143.54771 826.06005,146.21953 C 826.38813,146.36021 826.78657,146.64146 827.25537,147.06328 C 827.72407,147.43833 828.19282,147.90708 828.66162,148.46953 L 828.09912,155.00859 M 823.5288,142.42265 C 823.52876,142.04771 823.43501,141.69615 823.24755,141.36797 C 823.10689,141.0399 822.94282,140.78209 822.75537,140.59453 C 822.6147,140.36022 822.35689,140.17272 821.98193,140.03203 C 821.65376,139.84459 821.27876,139.75084 820.85693,139.75078 C 820.34126,139.75084 820.08345,139.98522 820.08349,140.4539 C 820.08345,141.57896 821.1147,142.77428 823.17724,144.03984 C 823.41157,143.71178 823.52876,143.38365 823.5288,143.05547 C 823.52876,142.7274 823.52876,142.51646 823.5288,142.42265 M 845.4663,191.57109 L 845.4663,203.24297 L 842.02099,203.24297 C 838.13031,203.24297 835.31781,202.37578 833.58349,200.6414 C 833.44281,205.84453 833.04438,209.19608 832.38818,210.69609 C 830.60688,215.57108 822.73189,223.0242 808.76318,233.05547 C 797.18504,241.39918 788.32567,246.2273 782.18505,247.53984 C 782.18505,244.82105 782.86474,241.21168 784.22412,236.71172 C 787.08348,235.68043 794.09129,231.7195 805.24755,224.8289 C 805.71628,224.54763 810.87252,220.49295 820.7163,212.66484 C 824.51313,209.71171 826.29438,206.2664 826.06005,202.3289 L 809.32568,206.54765 C 808.71628,204.81328 808.41159,202.39922 808.41162,199.30547 C 808.41159,192.74298 809.48971,186.50861 811.64599,180.60234 C 814.22408,173.94612 817.29439,170.618 820.85693,170.61797 C 824.98188,170.618 829.27094,175.91487 833.72412,186.50859 C 835.36469,189.8836 838.13031,191.5711 842.02099,191.57109 L 845.4663,191.57109 M 814.38818,195.08672 C 819.73189,194.24297 822.19282,193.42266 821.77099,192.62578 C 819.33345,188.36017 817.57564,185.8758 816.49755,185.17265 L 814.38818,195.08672 M 757.85693,152.96953 L 762.00537,154.79765 C 762.00531,155.68833 763.17718,158.24301 765.52099,162.46172 C 768.42717,167.85238 770.53655,172.42268 771.84912,176.17265 C 774.19279,182.59455 775.43498,189.06329 775.57568,195.5789 C 773.46623,205.98515 767.4428,215.12577 757.50537,223.00078 C 754.17719,225.39138 749.81782,227.47732 744.42724,229.25859 C 738.70845,231.18044 733.36471,232.14137 728.39599,232.1414 C 720.61472,232.14137 715.10691,230.05544 711.87255,225.88359 C 706.48192,219.0867 703.78661,211.79764 703.78662,204.0164 C 703.78661,197.12578 705.98974,189.74298 710.39599,181.86797 L 714.19287,184.96172 C 712.50535,189.03985 711.66161,192.81329 711.66162,196.28203 C 711.66161,203.87578 715.55223,210.50858 723.33349,216.18047 C 726.75534,217.63358 730.24752,218.36014 733.81005,218.36015 C 743.88814,218.36014 755.04437,213.06327 767.2788,202.46953 C 767.41936,199.93828 766.92718,196.98516 765.80224,193.61015 C 764.72405,190.23517 764.18499,187.98517 764.18505,186.86015 C 761.37249,189.20392 758.30218,190.37579 754.97412,190.37578 C 754.45844,190.37579 751.31782,189.20392 745.55224,186.86015 C 745.45845,175.51643 749.56001,164.21957 757.85693,152.96953 M 755.04443,170.12578 L 753.42724,175.25859 C 756.14594,176.89924 757.88031,177.71955 758.63037,177.71953 C 759.00531,177.71955 759.19281,177.48518 759.19287,177.0164 C 759.19281,176.12581 757.81,173.82893 755.04443,170.12578 M 768.82568,129.2039 C 768.82561,129.20398 771.70842,132.11022 777.47412,137.92265 L 768.47412,147.34453 L 760.31787,138.69609 L 768.82568,129.2039 M 749.8413,129.13359 C 749.84125,129.13366 752.72406,132.03991 758.48974,137.85234 L 749.48974,147.27422 L 741.33349,138.62578 L 749.8413,129.13359 M 634.17724,133.00078 L 632.56005,139.61015 L 623.06787,145.09453 L 627.28662,146.0789 L 630.31005,146.0789 L 634.03662,145.72734 L 638.18505,144.74297 L 643.66943,142.84453 L 642.19287,147.62578 L 640.43505,149.38359 L 631.92724,153.9539 L 612.73193,165.90703 L 614.41943,159.22734 L 623.06787,152.75859 L 619.69287,152.05547 L 617.79443,150.71953 L 619.3413,142.28203 L 625.81005,137.28984 L 634.17724,133.00078 M 621.09912,203.24297 L 612.73193,203.24297 L 612.73193,191.57109 L 621.52099,191.57109 C 623.48973,191.5711 625.95067,190.0711 628.9038,187.07109 C 627.35692,184.68048 626.58348,183.22736 626.58349,182.71172 C 626.58348,176.89924 627.8491,172.63362 630.38037,169.91484 C 631.73972,169.82112 632.44285,169.868 632.48974,170.05547 C 633.70847,173.85237 636.21628,178.44612 640.01318,183.83672 C 636.63816,196.77422 630.33347,203.24297 621.09912,203.24297 M 591.14599,174.83672 C 595.92722,174.13362 598.41159,174.29768 598.59912,175.3289 C 599.39597,178.5633 600.49753,181.98517 601.9038,185.59453 C 603.3569,189.20392 604.78659,191.1961 606.19287,191.57109 L 612.94287,191.57109 L 612.94287,203.24297 L 606.61474,203.24297 C 606.05221,203.24297 604.57565,202.65703 602.18505,201.48515 C 598.71628,199.65703 596.5366,197.80547 595.64599,195.93047 L 594.45068,197.2664 C 594.26316,198.15703 592.9741,199.44609 590.58349,201.13359 C 588.4741,202.53984 587.32567,203.24297 587.13818,203.24297 L 575.04443,203.24297 L 575.04443,191.57109 L 583.76318,191.57109 C 584.88817,191.5711 587.3491,185.99298 591.14599,174.83672 M 584.95849,209.14922 C 584.95848,209.14921 587.84129,212.05546 593.60693,217.86797 L 584.60693,227.28984 L 576.45068,218.6414 L 584.95849,209.14922 M 584.95849,228.55547 C 584.95848,228.55544 587.84129,231.46169 593.60693,237.27422 L 584.60693,246.69609 L 576.45068,238.04765 L 584.95849,228.55547 M 554.30224,174.83672 C 559.08347,174.13362 561.56784,174.29768 561.75537,175.3289 C 562.55222,178.5633 563.65378,181.98517 565.06005,185.59453 C 566.51315,189.20392 567.94284,191.1961 569.34912,191.57109 L 576.09912,191.57109 L 576.09912,203.24297 L 569.77099,203.24297 C 569.20846,203.24297 567.7319,202.65703 565.3413,201.48515 C 561.87253,199.65703 559.69285,197.80547 558.80224,195.93047 L 557.60693,197.2664 C 557.41941,198.15703 556.13035,199.44609 553.73974,201.13359 C 551.63035,202.53984 550.48192,203.24297 550.29443,203.24297 L 538.20068,203.24297 L 538.20068,191.57109 L 546.91943,191.57109 C 548.04442,191.5711 550.50535,185.99298 554.30224,174.83672 M 551.98193,139.53984 C 551.98192,139.5399 554.86473,142.44615 560.63037,148.25859 L 551.63037,157.68047 L 543.47412,149.03203 L 551.98193,139.53984 M 517.17724,174.83672 C 521.95847,174.13362 524.44284,174.29768 524.63037,175.3289 C 525.42722,178.5633 526.52878,181.98517 527.93505,185.59453 C 529.38815,189.20392 530.81784,191.1961 532.22412,191.57109 L 538.97412,191.57109 L 538.97412,203.24297 L 532.64599,203.24297 C 532.08346,203.24297 530.6069,202.65703 528.2163,201.48515 C 524.74753,199.65703 522.56785,197.80547 521.67724,195.93047 L 520.48193,197.2664 C 520.29441,198.15703 519.00535,199.44609 516.61474,201.13359 C 514.50535,202.53984 513.35692,203.24297 513.16943,203.24297 L 501.07568,203.24297 L 501.07568,191.57109 L 509.79443,191.57109 C 510.91942,191.5711 513.38035,185.99298 517.17724,174.83672 M 459.16943,181.72734 C 460.62251,181.72736 461.34907,181.82111 461.34912,182.00859 C 461.63032,183.74299 461.93501,184.79767 462.26318,185.17265 C 465.35688,189.86017 470.41937,191.7586 477.45068,190.86797 C 480.45061,190.96173 483.07561,189.43829 485.32568,186.29765 L 491.0913,179.61797 L 493.20068,186.93047 L 498.4038,191.57109 L 502.06005,191.57109 L 502.06005,203.24297 L 498.47412,203.24297 C 496.41154,203.24297 494.41935,202.39922 492.49755,200.71172 L 486.52099,195.08672 C 485.20842,200.80547 481.55218,203.66484 475.55224,203.66484 C 471.28656,203.66484 465.84907,201.53203 459.23974,197.2664 C 458.81782,198.67266 456.82564,200.21953 453.26318,201.90703 C 450.63814,203.2664 447.80221,203.94609 444.75537,203.94609 C 440.81784,203.94609 437.20847,202.77422 433.92724,200.43047 C 432.38035,202.49297 429.8491,203.54765 426.33349,203.59453 C 424.41161,203.59453 423.23973,203.59453 422.81787,203.59453 L 419.79443,203.24297 L 415.29443,203.24297 L 415.29443,191.57109 L 419.86474,191.57109 C 423.75536,192.22735 425.98192,192.22735 426.54443,191.57109 C 429.68504,188.57111 431.74754,185.03205 432.73193,180.9539 C 434.23191,188.26642 439.06003,191.92266 447.2163,191.92265 C 450.96627,191.92266 453.59127,190.98517 455.0913,189.11015 C 456.63814,187.18829 457.99751,184.72736 459.16943,181.72734 M 394.27099,174.83672 C 399.05222,174.13362 401.53659,174.29768 401.72412,175.3289 C 402.52097,178.5633 403.62253,181.98517 405.0288,185.59453 C 406.4819,189.20392 407.91159,191.1961 409.31787,191.57109 L 416.06787,191.57109 L 416.06787,203.24297 L 409.73974,203.24297 C 409.17721,203.24297 407.70065,202.65703 405.31005,201.48515 C 401.84128,199.65703 399.6616,197.80547 398.77099,195.93047 L 397.57568,197.2664 C 397.38816,198.15703 396.0991,199.44609 393.70849,201.13359 C 391.5991,202.53984 390.45067,203.24297 390.26318,203.24297 L 378.16943,203.24297 L 378.16943,191.57109 L 386.88818,191.57109 C 388.01317,191.5711 390.4741,185.99298 394.27099,174.83672 M 340.9038,194.10234 C 333.63816,198.22735 326.56004,201.27422 319.66943,203.24297 L 308.98193,203.24297 L 308.98193,191.57109 L 311.58349,191.57109 C 317.63036,191.10235 322.64598,189.20392 326.63037,185.87578 C 325.92723,183.71955 323.37254,179.61799 318.9663,173.57109 C 314.93505,168.03988 312.31005,163.49301 311.0913,159.93047 C 311.37255,155.99301 312.80224,151.53989 315.38037,146.57109 C 318.47411,140.00865 320.37254,135.67272 321.07568,133.56328 C 327.12254,132.11022 336.33346,128.47742 348.70849,122.66484 C 362.25531,116.5243 370.80999,111.55556 374.37255,107.75859 C 375.30999,107.75869 375.77874,108.32119 375.7788,109.44609 C 375.77874,110.85243 374.84124,113.40712 372.9663,117.11015 L 369.38037,124.28203 C 363.33344,127.79773 358.34126,130.49304 354.4038,132.36797 C 348.87251,135.08678 337.20065,140.24303 319.38818,147.83672 C 320.93504,153.46177 324.33348,160.00082 329.58349,167.4539 C 334.78659,175.61018 338.9819,181.07111 342.16943,183.83672 C 348.12252,188.99298 355.7397,191.5711 365.02099,191.57109 L 380.34912,191.57109 L 380.34912,203.24297 L 365.02099,203.24297 C 361.45844,203.24297 356.25532,202.30547 349.41162,200.43047 C 346.3647,199.68047 343.52877,197.5711 340.9038,194.10234 M 295.48193,188.75859 C 295.62253,190.6336 298.22409,191.5711 303.28662,191.57109 L 309.75537,191.57109 L 309.75537,203.24297 L 303.35693,203.24297 C 301.15378,203.24297 298.22409,200.31328 294.56787,194.4539 C 295.17722,195.29766 293.7241,197.05547 290.20849,199.72734 C 288.00535,201.46172 285.09911,202.63359 281.48974,203.24297 L 274.66943,203.24297 L 274.66943,191.57109 L 281.70068,191.57109 C 283.10692,191.5711 284.65379,190.70392 286.3413,188.96953 C 286.81004,188.54767 287.04442,178.68049 287.04443,159.36797 C 287.04442,137.71178 285.07567,123.97742 281.13818,118.16484 C 284.88817,111.41493 287.48973,105.83681 288.94287,101.43047 C 293.44285,104.38369 296.32566,108.46181 297.5913,113.66484 C 298.38816,116.3368 298.78659,120.60242 298.78662,126.46172 C 298.78659,131.43054 298.06003,139.09459 296.60693,149.4539 C 295.15378,159.81332 294.42722,168.03988 294.42724,174.13359 C 294.42722,178.91487 294.77878,183.78986 295.48193,188.75859 M 276.49755,191.57109 L 276.49755,203.24297 L 273.05224,203.24297 C 269.16156,203.24297 266.34906,202.37578 264.61474,200.6414 C 264.47406,205.84453 264.07563,209.19608 263.41943,210.69609 C 261.63813,215.57108 253.76314,223.0242 239.79443,233.05547 C 228.21629,241.39918 219.35692,246.2273 213.2163,247.53984 C 213.2163,244.82105 213.89599,241.21168 215.25537,236.71172 C 218.11473,235.68043 225.12254,231.7195 236.2788,224.8289 C 236.74753,224.54763 241.90377,220.49295 251.74755,212.66484 C 255.54438,209.71171 257.32563,206.2664 257.0913,202.3289 L 240.35693,206.54765 C 239.74753,204.81328 239.44284,202.39922 239.44287,199.30547 C 239.44284,192.74298 240.52096,186.50861 242.67724,180.60234 C 245.25533,173.94612 248.32564,170.618 251.88818,170.61797 C 256.01313,170.618 260.30219,175.91487 264.75537,186.50859 C 266.39594,189.8836 269.16156,191.5711 273.05224,191.57109 L 276.49755,191.57109 M 245.41943,195.08672 C 250.76314,194.24297 253.22407,193.42266 252.80224,192.62578 C 250.3647,188.36017 248.60689,185.8758 247.5288,185.17265 L 245.41943,195.08672 M 178.69287,203.24297 L 170.32568,203.24297 L 170.32568,191.57109 L 179.11474,191.57109 C 181.08348,191.5711 183.54442,190.0711 186.49755,187.07109 C 184.95067,184.68048 184.17723,183.22736 184.17724,182.71172 C 184.17723,176.89924 185.44285,172.63362 187.97412,169.91484 C 189.33347,169.82112 190.0366,169.868 190.08349,170.05547 C 191.30222,173.85237 193.81003,178.44612 197.60693,183.83672 C 194.23191,196.77422 187.92722,203.24297 178.69287,203.24297 M 188.88818,224.96953 C 188.88816,224.96951 191.77097,227.87575 197.53662,233.68828 L 188.53662,243.11015 L 180.38037,234.46172 L 188.88818,224.96953 M 198.52099,209.36015 C 198.52096,209.36015 201.40377,212.26639 207.16943,218.0789 L 198.16943,227.50078 L 190.01318,218.85234 L 198.52099,209.36015 M 179.53662,209.28984 C 179.53661,209.28983 182.41942,212.19608 188.18505,218.00859 L 179.18505,227.43047 L 171.0288,218.78203 L 179.53662,209.28984 M 148.73974,174.83672 C 153.52097,174.13362 156.00534,174.29768 156.19287,175.3289 C 156.98972,178.5633 158.09128,181.98517 159.49755,185.59453 C 160.95065,189.20392 162.38034,191.1961 163.78662,191.57109 L 170.53662,191.57109 L 170.53662,203.24297 L 164.20849,203.24297 C 163.64596,203.24297 162.1694,202.65703 159.7788,201.48515 C 156.31003,199.65703 154.13035,197.80547 153.23974,195.93047 L 152.04443,197.2664 C 151.85691,198.15703 150.56785,199.44609 148.17724,201.13359 C 146.06785,202.53984 144.91942,203.24297 144.73193,203.24297 L 132.63818,203.24297 L 132.63818,191.57109 L 141.35693,191.57109 C 142.48192,191.5711 144.94285,185.99298 148.73974,174.83672 M 142.55224,209.14922 C 142.55223,209.14921 145.43504,212.05546 151.20068,217.86797 L 142.20068,227.28984 L 134.04443,218.6414 L 142.55224,209.14922 M 142.55224,228.55547 C 142.55223,228.55544 145.43504,231.46169 151.20068,237.27422 L 142.20068,246.69609 L 134.04443,238.04765 L 142.55224,228.55547 M 106.13037,136.72734 C 107.20845,136.63366 108.68501,139.58678 110.56005,145.58672 C 112.34126,151.49302 114.75532,161.73519 117.80224,176.31328 C 120.14594,183.76642 123.38031,188.85236 127.50537,191.57109 L 133.83349,191.57109 L 133.83349,203.24297 L 127.57568,203.24297 C 123.63812,203.24297 120.26313,201.25078 117.45068,197.2664 C 116.27876,195.67266 114.56782,192.22735 112.31787,186.93047 C 108.47408,194.33672 105.40377,198.25078 103.10693,198.67265 C 100.90377,199.14141 94.645965,201.03984 84.333492,204.36797 C 78.849106,205.96171 74.583485,208.5164 71.536617,212.03203 C 70.786614,211.18827 70.411614,209.99296 70.411617,208.44609 C 70.411614,207.32109 70.645989,205.72734 71.114742,203.66484 C 71.770988,201.18047 72.145988,199.53984 72.239742,198.74297 C 77.911607,193.96172 83.536601,191.21954 89.114742,190.5164 C 99.61471,188.87579 106.38814,186.76642 109.43505,184.18828 C 109.66939,176.6883 106.57564,164.87582 100.1538,148.75078 L 106.13037,136.72734 M 46.505367,203.24297 L 38.13818,203.24297 L 38.13818,191.57109 L 46.927242,191.57109 C 48.895982,191.5711 51.356917,190.0711 54.310055,187.07109 C 52.763165,184.68048 51.989728,183.22736 51.989742,182.71172 C 51.989728,176.89924 53.255352,172.63362 55.786617,169.91484 C 57.145973,169.82112 57.849098,169.868 57.895992,170.05547 C 59.114721,173.85237 61.622531,178.44612 65.41943,183.83672 C 62.044406,196.77422 55.739725,203.24297 46.505367,203.24297 M 17.395992,174.83672 C 22.177221,174.13362 24.661594,174.29768 24.849117,175.3289 C 25.645968,178.5633 26.747529,181.98517 28.153805,185.59453 C 29.606901,189.20392 31.036588,191.1961 32.442867,191.57109 L 39.192867,191.57109 L 39.192867,203.24297 L 32.864742,203.24297 C 32.302211,203.24297 30.82565,202.65703 28.435055,201.48515 C 24.966281,199.65703 22.786596,197.80547 21.895992,195.93047 L 20.70068,197.2664 C 20.513161,198.15703 19.224099,199.44609 16.833492,201.13359 C 14.724104,202.53984 13.575667,203.24297 13.38818,203.24297 L 1.2944298,203.24297 L 1.2944298,191.57109 L 10.01318,191.57109 C 11.13817,191.5711 13.599105,185.99298 17.395992,174.83672 M 29.208492,211.82109 C 29.208464,211.82108 32.091274,214.72733 37.85693,220.53984 L 28.85693,229.96172 L 20.70068,221.31328 L 29.208492,211.82109 M 10.224117,211.75078 C 10.224108,211.75077 13.106918,214.65702 18.872555,220.46953 L 9.8725548,229.8914 L 1.7163048,221.24297 L 10.224117,211.75078 M -13.04932,191.28984 C -15.955596,196.0711 -20.408717,198.46172 -26.408695,198.46172 C -28.846208,198.46172 -31.236831,197.99297 -33.58057,197.05547 C -37.799324,195.36797 -39.908697,191.99298 -39.908695,186.93047 C -39.908697,184.07111 -39.205573,181.25861 -37.79932,178.49297 C -31.846205,177.18049 -26.760273,174.60237 -22.541508,170.75859 C -17.760282,166.63363 -15.369659,161.99301 -15.369633,156.83672 C -15.369659,156.32114 -15.393097,155.78208 -15.439945,155.21953 C -12.11185,156.01645 -10.447789,159.90707 -10.447758,166.8914 L -10.447758,169.77422 C -10.447789,169.77425 -10.471227,170.68831 -10.51807,172.5164 C -10.518102,178.32893 -9.9321648,182.36017 -8.7602577,184.61015 C -6.5102932,188.31329 -4.5415452,190.6336 -2.8540077,191.57109 L 3.5444298,191.57109 L 3.5444298,203.24297 L -4.3305702,203.24297 C -4.4243578,203.24297 -5.6899815,202.49297 -8.1274452,200.99297 C -11.408726,198.93047 -13.049349,195.6961 -13.04932,191.28984 M -29.221195,186.50859 C -26.97121,187.77423 -25.002462,188.40704 -23.314945,188.40703 C -21.393091,188.40704 -19.752467,187.68048 -18.39307,186.22734 C -17.50247,184.91486 -17.057158,183.2508 -17.057133,181.23515 C -17.057158,180.0633 -17.22122,178.82112 -17.54932,177.50859 C -18.486844,180.08674 -22.377465,183.08674 -29.221195,186.50859" id="tagline" style="font-size:144px;font-style:normal;font-variant:normal;font-weight:normal;font-stretch:normal;fill:#000000;fill-opacity:1;stroke:none;stroke-width:1px;stroke-linecap:butt;stroke-linejoin:miter;stroke-opacity:1;font-family:Linux Libertine O;-inkscape-font-specification:Linux Libertine O"></path><path transform="matrix(0.1874955,0,0,0.1874955,30.169274,107.69473)" d="M 398.6137,77.111252 C 405.45741,85.314407 409.34803,92.2519 410.28558,97.923752 C 410.28553,98.767519 410.28553,99.705018 410.28558,100.73625 C 410.28553,113.29875 409.67616,120.98625 408.45745,123.79875 C 403.11366,135.23623 397.95742,143.18154 392.9887,147.63469 C 382.44181,156.21277 374.23869,161.76746 368.37933,164.29875 C 368.66057,160.78308 369.5512,156.09559 371.0512,150.23625 C 383.80118,143.81435 393.10586,133.29092 398.96527,118.66594 C 399.38711,115.71281 398.98867,113.60344 397.76995,112.33781 L 395.66058,112.54875 C 394.2543,113.11125 392.66055,113.3925 390.87933,113.3925 C 388.16055,113.3925 385.30118,112.71282 382.3012,111.35344 C 382.53556,105.96282 384.59806,100.10346 388.4887,93.775314 L 398.6137,77.111252 M 394.53558,91.595627 C 391.16055,96.095647 389.47305,99.095644 389.47308,100.59563 C 389.47305,101.81439 391.93399,102.33002 396.85589,102.1425 C 398.02773,100.97064 398.61367,99.751893 398.6137,98.486252 C 398.61367,96.705021 397.2543,94.408148 394.53558,91.595627 M 407.89495,48.212814 C 407.89491,48.212882 410.77772,51.119129 416.54339,56.931564 L 407.54339,66.353439 L 399.38714,57.705002 L 407.89495,48.212814 M 388.91058,48.142502 C 388.91055,48.142569 391.79336,51.048817 397.55902,56.861252 L 388.55902,66.283127 L 380.40277,57.634689 L 388.91058,48.142502 M 398.40277,30.986252 C 398.40273,30.986337 401.28554,33.892584 407.0512,39.705002 L 398.0512,49.126877 L 389.89495,40.478439 L 398.40277,30.986252 M 343.98089,115.78313 L 335.6137,115.78313 L 335.6137,104.11125 L 344.40277,104.11125 C 346.3715,104.11126 348.83244,102.61127 351.78558,99.611252 C 350.23869,97.220645 349.46525,95.767522 349.46527,95.251877 C 349.46525,89.439403 350.73088,85.173782 353.26214,82.455002 C 354.6215,82.361285 355.32462,82.40816 355.37152,82.595627 C 356.59024,86.392531 359.09805,90.986277 362.89495,96.376877 C 359.51993,109.31438 353.21525,115.78313 343.98089,115.78313 M 298.34808,106.6425 C 291.08243,110.76751 284.00431,113.81438 277.1137,115.78313 L 266.4262,115.78313 L 266.4262,104.11125 L 269.02777,104.11125 C 275.07463,103.64251 280.09025,101.74408 284.07464,98.415939 C 283.3715,96.259709 280.81681,92.15815 276.41058,86.111252 C 272.37932,80.580037 269.75432,76.033167 268.53558,72.470627 C 268.81683,68.533174 270.24651,64.080054 272.82464,59.111252 C 275.91838,52.548815 277.81682,48.212882 278.51995,46.103439 C 284.56681,44.650385 293.77774,41.017577 306.15277,35.205002 C 319.69959,29.064464 328.25427,24.095719 331.81683,20.298752 C 332.75426,20.298847 333.22301,20.861347 333.22308,21.986252 C 333.22301,23.392594 332.28551,25.947279 330.41058,29.650314 L 326.82464,36.822189 C 320.77771,40.33789 315.78553,43.0332 311.84808,44.908127 C 306.31679,47.626945 294.64492,52.78319 276.83245,60.376877 C 278.37932,66.001927 281.77775,72.540983 287.02777,79.994064 C 292.23086,88.150342 296.42617,93.611274 299.6137,96.376877 C 305.56679,101.53314 313.18397,104.11126 322.46527,104.11125 L 337.79339,104.11125 L 337.79339,115.78313 L 322.46527,115.78313 C 318.90271,115.78313 313.69959,114.84563 306.85589,112.97063 C 303.80898,112.22063 300.97304,110.11126 298.34808,106.6425 M 245.40277,87.376877 C 250.18399,86.673781 252.66837,86.837843 252.85589,87.869064 C 253.65274,91.103464 254.7543,94.525336 256.16058,98.134689 C 257.61367,101.74408 259.04336,103.73626 260.44964,104.11125 L 267.19964,104.11125 L 267.19964,115.78313 L 260.87152,115.78313 C 260.30898,115.78313 258.83242,115.19719 256.44183,114.02531 C 252.97305,112.19719 250.79337,110.34563 249.90277,108.47063 L 248.70745,109.80656 C 248.51993,110.69719 247.23087,111.98626 244.84027,113.67375 C 242.73088,115.08 241.58244,115.78313 241.39495,115.78313 L 229.3012,115.78313 L 229.3012,104.11125 L 238.01995,104.11125 C 239.14494,104.11126 241.60588,98.533144 245.40277,87.376877 M 207.99652,87.376877 C 212.77774,86.673781 215.26212,86.837843 215.44964,87.869064 C 216.24649,91.103464 217.34805,94.525336 218.75433,98.134689 C 220.20742,101.74408 221.63711,103.73626 223.04339,104.11125 L 229.79339,104.11125 L 229.79339,115.78313 L 223.46527,115.78313 C 222.90273,115.78313 221.42617,115.19719 219.03558,114.02531 C 215.5668,112.19719 213.38712,110.34563 212.49652,108.47063 L 211.3012,109.80656 C 211.11368,110.69719 209.82462,111.98626 207.43402,113.67375 C 205.32463,115.08 204.17619,115.78313 203.9887,115.78313 L 191.89495,115.78313 L 191.89495,104.11125 L 200.6137,104.11125 C 201.73869,104.11126 204.19963,98.533144 207.99652,87.376877 M 210.38714,137.29875 C 210.38712,137.29873 213.26993,140.20498 219.03558,146.0175 L 210.03558,155.43938 L 201.87933,146.79094 L 210.38714,137.29875 M 220.01995,121.68938 C 220.01992,121.68937 222.90273,124.59562 228.66839,130.40813 L 219.66839,139.83 L 211.51214,131.18156 L 220.01995,121.68938 M 201.03558,121.61906 C 201.03557,121.61906 203.91838,124.52531 209.68402,130.33781 L 200.68402,139.75969 L 192.52777,131.11125 L 201.03558,121.61906 M 170.30902,87.376877 C 175.09024,86.673781 177.57462,86.837843 177.76214,87.869064 C 178.55899,91.103464 179.66055,94.525336 181.06683,98.134689 C 182.51992,101.74408 183.94961,103.73626 185.35589,104.11125 L 192.10589,104.11125 L 192.10589,115.78313 L 185.77777,115.78313 C 185.21523,115.78313 183.73867,115.19719 181.34808,114.02531 C 177.8793,112.19719 175.69962,110.34563 174.80902,108.47063 L 173.6137,109.80656 C 173.42618,110.69719 172.13712,111.98626 169.74652,113.67375 C 167.63713,115.08 166.48869,115.78313 166.3012,115.78313 L 154.20745,115.78313 L 154.20745,104.11125 L 162.9262,104.11125 C 164.05119,104.11126 166.51213,98.533144 170.30902,87.376877 M 164.12152,121.68938 C 164.12151,121.68937 167.00431,124.59562 172.76995,130.40813 L 163.76995,139.83 L 155.6137,131.18156 L 164.12152,121.68938 M 164.12152,141.09563 C 164.12151,141.0956 167.00431,144.00185 172.76995,149.81438 L 163.76995,159.23625 L 155.6137,150.58781 L 164.12152,141.09563 M 127.69964,49.267502 C 128.77773,49.173818 130.25429,52.12694 132.12933,58.126877 C 133.91053,64.033179 136.32459,74.275356 139.37152,88.853439 C 141.71521,96.306584 144.94958,101.39252 149.07464,104.11125 L 155.40277,104.11125 L 155.40277,115.78313 L 149.14495,115.78313 C 145.2074,115.78313 141.8324,113.79094 139.01995,109.80656 C 137.84803,108.21282 136.13709,104.76751 133.88714,99.470627 C 130.04335,106.87689 126.97304,110.79094 124.6762,111.21281 C 122.47304,111.68157 116.21524,113.58 105.90277,116.90813 C 100.41838,118.50187 96.152758,121.05656 93.10589,124.57219 C 92.355887,123.72843 91.980887,122.53312 91.98089,120.98625 C 91.980887,119.86125 92.215262,118.2675 92.684015,116.205 C 93.340261,113.72063 93.715261,112.08001 93.809015,111.28313 C 99.48088,106.50189 105.10587,103.7597 110.68402,103.05656 C 121.18398,101.41595 127.95741,99.306581 131.00433,96.728439 C 131.23866,89.228466 128.14491,77.415978 121.72308,61.290939 L 127.69964,49.267502 M 68.07464,115.78313 L 59.707453,115.78313 L 59.707453,104.11125 L 68.496515,104.11125 C 70.465255,104.11126 72.92619,102.61127 75.879328,99.611252 C 74.332438,97.220645 73.559001,95.767522 73.559015,95.251877 C 73.559001,89.439403 74.824625,85.173782 77.35589,82.455002 C 78.715246,82.361285 79.418371,82.40816 79.465265,82.595627 C 80.683994,86.392531 83.191804,90.986277 86.988703,96.376877 C 83.613679,109.31438 77.308998,115.78313 68.07464,115.78313 M 38.965265,87.376877 C 43.746494,86.673781 46.230867,86.837843 46.41839,87.869064 C 47.215241,91.103464 48.316802,94.525336 49.723078,98.134689 C 51.176174,101.74408 52.605861,103.73626 54.01214,104.11125 L 60.76214,104.11125 L 60.76214,115.78313 L 54.434015,115.78313 C 53.871484,115.78313 52.394923,115.19719 50.004328,114.02531 C 46.535554,112.19719 44.355869,110.34563 43.465265,108.47063 L 42.269953,109.80656 C 42.082434,110.69719 40.793372,111.98626 38.402765,113.67375 C 36.293377,115.08 35.14494,115.78313 34.957453,115.78313 L 22.863703,115.78313 L 22.863703,104.11125 L 31.582453,104.11125 C 32.707443,104.11126 35.168378,98.533144 38.965265,87.376877 M 50.777765,124.36125 C 50.777737,124.36124 53.660547,127.26749 59.426203,133.08 L 50.426203,142.50188 L 42.269953,133.85344 L 50.777765,124.36125 M 31.79339,124.29094 C 31.793381,124.29093 34.676191,127.19718 40.441828,133.00969 L 31.441828,142.43156 L 23.285578,133.78313 L 31.79339,124.29094 M 8.5199528,103.83 C 5.6136767,108.61126 1.1605562,111.00188 -4.8394222,111.00188 C -7.2769354,111.00188 -9.667558,110.53313 -12.011297,109.59563 C -16.230051,107.90813 -18.339424,104.53314 -18.339422,99.470627 C -18.339424,96.611271 -17.6363,93.798774 -16.230047,91.033127 C -10.276932,89.720653 -5.191,87.14253 -0.97223473,83.298752 C 3.808991,79.173788 6.1996136,74.533168 6.1996403,69.376877 C 6.1996136,68.861299 6.1761761,68.322237 6.1293278,67.759689 C 9.4574229,68.556612 11.121484,72.447233 11.121515,79.431564 L 11.121515,82.314377 C 11.121484,82.31441 11.098046,83.228472 11.051203,85.056564 C 11.051171,90.869089 11.637108,94.900335 12.809015,97.150314 C 15.05898,100.85345 17.027728,103.17376 18.715265,104.11125 L 25.113703,104.11125 L 25.113703,115.78313 L 17.238703,115.78313 C 17.144915,115.78313 15.879291,115.03313 13.441828,113.53313 C 10.160547,111.47063 8.5199238,108.23626 8.5199528,103.83 M -7.6519222,99.048752 C -5.4019373,100.31439 -3.4331892,100.9472 -1.7456722,100.94719 C 0.17618215,100.9472 1.8168055,100.22064 3.1762028,98.767502 C 4.0668033,97.45502 4.5121153,95.790959 4.5121403,93.775314 C 4.5121153,92.603463 4.348053,91.361276 4.0199528,90.048752 C 3.0824292,92.6269 -0.80819187,95.626897 -7.6519222,99.048752" id="Wikipedia" style="font-size:144px;font-style:normal;font-variant:normal;font-weight:normal;font-stretch:normal;fill:#000000;fill-opacity:1;stroke:none;stroke-width:1px;stroke-linecap:butt;stroke-linejoin:miter;stroke-opacity:1;font-family:Linux Libertine O;-inkscape-font-specification:Linux Libertine O"></path></svg>
</svg>