<?xml version="1.0" encoding="UTF-8" standalone="no"?>
<!-- Generator: Adobe Illustrator 15.1.0, SVG Export Plug-In . SVG Version: 6.00 Build 0)  -->
<svg xmlns:dc="http://purl.org/dc/elements/1.1/" xmlns:cc="http://creativecommons.org/ns#" xmlns:rdf="http://www.w3.org/1999/02/22-rdf-syntax-ns#" xmlns:svg="http://www.w3.org/2000/svg" xmlns="http://www.w3.org/2000/svg" xmlns:sodipodi="http://sodipodi.sourceforge.net/DTD/sodipodi-0.dtd" xmlns:inkscape="http://www.inkscape.org/namespaces/inkscape" version="1.1" id="svg3857" inkscape:version="0.46" sodipodi:docname="Wikipedia-logo-v2-zea-v2.svg" x="0px" y="0px" width="135px" height="155px" viewBox="0 0 135 155" enable-background="new 0 0 135 155" xml:space="preserve" sodipodi:version="0.32" inkscape:output_extension="org.inkscape.output.svg.inkscape"><metadata id="metadata698"><rdf:rdf><cc:work rdf:about=""><dc:format>image/svg+xml</dc:format><dc:type rdf:resource="http://purl.org/dc/dcmitype/StillImage"></dc:type></cc:work></rdf:rdf></metadata><defs id="defs3"></defs><sodipodi:namedview id="namedview4848" showgrid="false" pagecolor="#ffffff" objecttolerance="10" guidetolerance="10" inkscape:cy="43.843926" inkscape:guide-bbox="true" showguides="true" inkscape:zoom="5.2319703" inkscape:pageopacity="0" gridtolerance="10" inkscape:window-height="723" bordercolor="#666666" inkscape:window-y="24" borderopacity="1" inkscape:pageshadow="2" inkscape:window-x="0" inkscape:window-width="1024" inkscape:cx="67.343119" inkscape:current-layer="svg3857" inkscape:window-maximized="0">
	<sodipodi:guide id="globe_top" orientation="0,1" position="0,140"></sodipodi:guide>
	<sodipodi:guide id="globe_left" orientation="1,0" position="16,0"></sodipodi:guide>
	<sodipodi:guide id="globe_right" orientation="1,0" position="119,0"></sodipodi:guide>
	<sodipodi:guide id="globe_bottom" orientation="0,1" position="0,47"></sodipodi:guide>
	<sodipodi:guide id="wordmark_top" orientation="0,1" position="8,40"></sodipodi:guide>
	<sodipodi:guide id="wordmark_bottom" orientation="0,1" position="8,22.5"></sodipodi:guide>
	<sodipodi:guide id="subtitle_top" orientation="0,1" position="0,17"></sodipodi:guide>
	<sodipodi:guide id="subtitle_bottom" orientation="0,1" position="0,8"></sodipodi:guide>
	<sodipodi:guide id="wordmark_left" orientation="1,0" position="8,40"></sodipodi:guide>
	<sodipodi:guide id="wordmark_right" orientation="1,0" position="127,40"></sodipodi:guide>
</sodipodi:namedview><g id="Wikipedia">
	<path id="path3898" d="M18.757,118.893c0,0-0.367-0.746-0.492-0.994c-0.834-1.652-0.816-1.74-1.659-1.852   c-0.236-0.031-0.358-0.061-0.358-0.178v-0.523l0.071-0.051c1.523-0.002,4.912-0.002,4.912-0.002l0.13,0.043v0.521   c0,0.119-0.085,0.18-0.258,0.18l-0.356,0.051c-0.9,0.07-0.753,0.438-0.155,1.629l5.677,11.615l0.194,0.053l5.04-11.961   c0.175-0.482,0.148-0.824-0.077-1.025c-0.226-0.195-0.385-0.312-0.969-0.336l-0.473-0.023c-0.058,0-0.113-0.021-0.166-0.061   c-0.052-0.037-0.079-0.086-0.079-0.145v-0.498l0.072-0.051c1.42,0,5.694,0,5.694,0l0.058,0.051v0.498   c0,0.135-0.077,0.203-0.229,0.203c-0.746,0.033-1.299,0.195-1.657,0.484c-0.359,0.291-0.639,0.691-0.84,1.213   c0,0-4.635,10.608-6.221,14.135c-0.607,1.156-1.204,1.05-1.729-0.033c-1.109-2.284-4.232-9.213-4.232-9.213L18.757,118.893z"></path>
	<path id="path3900" d="M27.853,115.287c0,0-3.203-0.01-4.629,0l-0.071,0.051v0.496c0,0.061,0.026,0.109,0.078,0.146   c0.053,0.039,0.107,0.059,0.165,0.059l0.229,0.025c0.583,0.023,0.851,0.177,0.931,0.272c0.139,0.17,0.208,0.354-0.129,1.089   l-5.98,11.928l-0.157-0.041c0,0-4.283-9.031-5.523-12.053c-0.129-0.312-0.187-0.545-0.187-0.688c0-0.307,0.277-0.473,0.831-0.496   l0.646-0.027c0.171,0,0.258-0.066,0.258-0.203v-0.496l-0.058-0.051c0,0-5.13-0.006-6.19,0l-0.058,0.051v0.521   c0,0.094,0.119,0.152,0.358,0.178c0.651,0.035,1.079,0.139,1.285,0.312c0.205,0.175,0.422,0.617,0.71,1.306   c1.557,3.74,4.865,10.414,6.476,14.215c0.464,1.038,1.047,1.199,1.755-0.032c1.226-2.273,4.55-9.218,4.55-9.218l2.618-4.896   c0.305-0.518,0.599-0.979,0.748-1.193c0.273-0.393,0.426-0.467,1.172-0.502c0.152,0,0.229-0.068,0.229-0.205v-0.496L27.853,115.287   z"></path>
	<path id="path3904" d="M37.592,130.77c0,0.572,0.26,0.91,1.092,0.988l0.546,0.053c0.078,0,0.156,0.051,0.156,0.155v0.546   l-0.026,0.053c0,0-1.976-0.053-2.782-0.053c-0.728,0-2.756,0.053-2.756,0.053l-0.052-0.053v-0.546c0-0.104,0.078-0.155,0.182-0.155   l0.52-0.053c0.858-0.078,1.118-0.494,1.118-0.988v-8.658c0-0.57-0.313-0.729-1.118-0.805l-0.52-0.054   c-0.104,0-0.182-0.024-0.182-0.104v-0.599l0.026-0.052c0,0,2.054,0.052,2.86,0.052c0.702,0,2.704-0.052,2.704-0.052l0.026,0.052   v0.572c0,0.078-0.052,0.13-0.156,0.13l-0.546,0.053c-0.806,0.077-1.092,0.286-1.092,0.807V130.77z"></path>
	<path id="path3906" d="M45.265,130.77c0,0.572,0.338,0.858,1.092,0.988l0.286,0.053c0.078,0.025,0.156,0.051,0.156,0.155v0.546   l-0.026,0.053c0,0-1.638-0.053-2.418-0.053c-0.728,0-2.86,0.053-2.86,0.053l-0.052-0.053v-0.546c0-0.104,0.078-0.155,0.182-0.155   l0.52-0.053c0.78-0.078,1.118-0.494,1.118-0.988v-8.658c0-0.57-0.286-0.729-1.118-0.805l-0.52-0.054   c-0.104,0-0.182-0.024-0.182-0.104v-0.599l0.026-0.052c0,0,2.132,0.052,2.938,0.052c0.729,0,2.366-0.052,2.366-0.052l0.026,0.052   v0.572c0,0.078-0.052,0.104-0.156,0.13l-0.286,0.053c-0.806,0.155-1.092,0.286-1.092,0.807v3.927c0.858,0,1.352-0.44,2.496-1.664   c1.04-1.146,1.846-2.104,1.846-2.601c0-0.209-0.234-0.441-0.754-0.521c-0.104-0.024-0.156-0.052-0.156-0.13v-0.6l0.026-0.024   c0,0,2.106,0.052,2.86,0.052c0.676,0,1.82-0.052,1.82-0.052l0.078,0.024v0.6c0,0.078-0.078,0.13-0.208,0.13   c-1.014,0.078-1.716,0.13-2.652,1.196l-2.236,2.572c-0.442,0.47-0.598,0.754-0.598,0.963c0,0.156,0.104,0.285,0.234,0.441   l3.926,4.732c0.312,0.363,0.936,0.52,1.456,0.623l0.13,0.025c0.078,0.025,0.182,0.077,0.182,0.155v0.546l-0.078,0.026   c0,0-1.378-0.026-2.106-0.026c-0.65,0-1.586,0.026-1.586,0.026l-0.026-0.026v-0.312c0-0.339-0.026-0.623-0.39-1.039l-2.886-3.589   c-0.39-0.521-0.806-0.649-1.378-0.649V130.77L45.265,130.77z"></path>
	<path id="path3908" d="M59.282,130.77c0,0.572,0.26,0.91,1.092,0.988l0.546,0.053c0.078,0,0.156,0.051,0.156,0.155v0.546   l-0.026,0.053c0,0-1.976-0.053-2.782-0.053c-0.728,0-2.756,0.053-2.756,0.053l-0.052-0.053v-0.546c0-0.104,0.078-0.155,0.182-0.155   l0.52-0.053c0.858-0.078,1.118-0.494,1.118-0.988v-8.658c0-0.57-0.312-0.729-1.118-0.805l-0.52-0.054   c-0.104,0-0.182-0.024-0.182-0.104v-0.599l0.026-0.052c0,0,2.054,0.052,2.86,0.052c0.702,0,2.704-0.052,2.704-0.052l0.026,0.052   v0.572c0,0.078-0.052,0.13-0.156,0.13l-0.546,0.053c-0.806,0.077-1.092,0.286-1.092,0.807V130.77z"></path>
	<path id="path3910" d="M64.9,122.163c0-0.806-0.338-0.832-1.56-0.91c-0.156,0-0.182-0.077-0.182-0.13v-0.598l0.052-0.026   c0.39,0,1.924,0.052,2.678,0.052c0.728,0,1.768-0.052,2.73-0.052c3.69,0,4.366,1.819,4.366,3.173c0,1.561-0.754,4.004-4.444,4.004   c-0.65,0-1.17-0.053-1.639-0.26v3.482c0,0.571,0.312,0.703,1.145,0.832l0.521,0.078c0.104,0.025,0.183,0.053,0.183,0.155v0.546   l-0.024,0.053c0,0-2.081-0.053-2.887-0.053c-0.728,0-2.678,0.053-2.678,0.053l-0.026-0.053v-0.546c0-0.104,0.052-0.13,0.156-0.155   l0.546-0.078c0.806-0.104,1.066-0.338,1.066-0.832L64.9,122.163L64.9,122.163L64.9,122.163z M66.902,126.688   c0.52,0.209,1.17,0.234,1.69,0.234c1.561,0,2.312-0.938,2.312-2.938c0-2.236-1.014-2.73-2.442-2.73   c-1.249,0-1.561,0.234-1.561,0.91L66.902,126.688L66.902,126.688z"></path>
	<path id="path3912" d="M77.462,132.512c-0.78,0-2.573,0.053-2.573,0.053l-0.027-0.053v-0.572c0-0.051,0.027-0.129,0.156-0.129   l0.6-0.053c0.807-0.078,1.041-0.598,1.041-1.117v-8.58c0-0.6-0.312-0.703-1.041-0.754l-0.6-0.054   c-0.156-0.024-0.156-0.077-0.156-0.104v-0.599l0.027-0.052c0,0,2.027,0.052,2.807,0.052h3.822c0.78,0,2.627-0.052,2.627-0.052   l0.054,0.052c0.024,1.118,0.206,2.134,0.39,3.121l-0.648,0.104c-0.285-0.963-0.779-2.34-2.443-2.34h-2.08   c-0.494,0-0.754,0.182-0.754,0.623v3.771h1.949c0.729,0,0.91-0.312,1.015-0.832l0.155-0.546c0-0.078,0.053-0.131,0.156-0.131h0.44   c0.054,0,0.054,0.027,0.054,0.078c-0.054,0.571-0.156,1.301-0.156,1.925c0,0.649,0.104,1.196,0.156,1.794l-0.054,0.053h-0.44   c-0.129,0-0.184-0.053-0.184-0.131l-0.13-0.571c-0.104-0.521-0.338-0.807-1.017-0.807H78.66v3.979c0,0.492,0.283,0.986,0.754,0.986   h2.47c1.326,0,2.056-0.832,2.366-2.186l0.648,0.078l-0.521,2.989l-0.052,0.052c0,0-1.534-0.052-2.314-0.052L77.462,132.512   L77.462,132.512L77.462,132.512z"></path>
	<path id="path3914" d="M87.24,131.811l0.598-0.053c0.781-0.078,1.041-0.312,1.041-1.117v-8.58c0-0.678-0.184-0.678-1.041-0.754   l-0.57-0.054c-0.104,0-0.184-0.052-0.184-0.13v-0.572l0.025-0.052c0,0,2.289,0.052,2.758,0.052c0.492,0,2.756-0.052,3.432-0.052   c4.342,0,6.475,2.704,6.475,6.162c0,4.551-3.225,5.901-6.109,5.901c-2.08,0-2.989-0.053-3.795-0.053   c-0.781,0-2.758,0.053-2.758,0.053l-0.025-0.053v-0.546C87.084,131.889,87.137,131.811,87.24,131.811z M93.039,131.811   c2.859,0,4.473-1.064,4.473-4.707c0-2.703-0.599-5.851-4.967-5.851c-1.014,0-1.664,0.156-1.664,0.808v8.58   C90.881,131.367,91.062,131.811,93.039,131.811z"></path>
	<path id="path3916" d="M105.912,130.77c0,0.572,0.26,0.91,1.092,0.988l0.546,0.053c0.078,0,0.156,0.051,0.156,0.155v0.546   l-0.026,0.053c0,0-1.976-0.053-2.781-0.053c-0.729,0-2.756,0.053-2.756,0.053l-0.053-0.053v-0.546c0-0.104,0.078-0.155,0.182-0.155   l0.521-0.053c0.857-0.078,1.118-0.494,1.118-0.988v-8.658c0-0.57-0.313-0.729-1.118-0.805l-0.521-0.054   c-0.104,0-0.182-0.024-0.182-0.104v-0.599l0.026-0.052c0,0,2.054,0.052,2.858,0.052c0.701,0,2.705-0.052,2.705-0.052l0.024,0.052   v0.572c0,0.078-0.054,0.13-0.156,0.13l-0.546,0.053c-0.807,0.077-1.092,0.286-1.092,0.807L105.912,130.77L105.912,130.77   L105.912,130.77z"></path>
	<path id="path3918" d="M113.922,131.758l0.754,0.053c0.104,0,0.208,0.078,0.208,0.207v0.494l-0.052,0.053   c0,0-2.834-0.053-3.458-0.053c-0.677,0-2.341,0.053-2.341,0.053l-0.053-0.053v-0.494c0-0.129,0.078-0.207,0.209-0.207   c1.145-0.078,1.793-0.287,2.521-1.951l5.771-13.521c0.285-0.676,0.494-0.937,0.886-0.937c0.362,0,0.493,0.261,0.7,0.781   l5.33,14.092c0.365,1.015,0.886,1.404,1.926,1.508l0.285,0.025c0.131,0,0.261,0.077,0.261,0.209v0.492l-0.078,0.053   c0,0-2.002-0.053-3.017-0.053c-0.91,0-3.459,0.053-3.459,0.053l-0.024-0.053v-0.492c0-0.132,0.052-0.209,0.185-0.209l0.728-0.053   c0.987-0.077,1.353-0.391,1.092-1.117l-1.586-4.396H115.3c-0.624,0-0.78,0.104-0.909,0.44l-1.509,3.771   C112.622,131.107,112.96,131.68,113.922,131.758z M120.292,125.152l-2.522-6.941h-0.052l-2.6,6.604   c-0.104,0.262,0.077,0.338,0.649,0.338H120.292L120.292,125.152z"></path>
</g><path d="M 8.2255608,150.93537 C 8.1928248,150.84937 8.1932638,150.77789 8.2270708,150.68897 C 8.2517508,150.62407 8.2750168,150.61607 8.4949099,150.59667 C 9.1057358,150.54287 9.303102,150.40182 9.3845857,149.96103 C 9.4286527,149.72265 9.4286527,143.71135 9.3845857,143.47297 C 9.3439937,143.25339 9.2670789,143.10443 9.1486053,143.01595 C 9.0198364,142.91975 8.8948708,142.884 8.5444529,142.84298 L 8.2455575,142.80798 L 8.2186115,142.71388 C 8.2024885,142.65758 8.2020705,142.58388 8.2175715,142.53041 L 8.2434765,142.44101 L 10.270367,142.43101 C 11.443837,142.42601 12.419175,142.43301 12.586814,142.44961 C 14.101135,142.59668 15.400325,143.42521 16.144621,144.71851 C 16.752021,145.77393 16.887712,147.16755 16.505491,148.42482 C 16.331948,148.99567 16.098085,149.37716 15.643706,149.83063 C 15.189959,150.28347 14.773871,150.53553 14.150416,150.73525 C 13.308744,151.00486 13.142635,151.01723 10.476857,151.00886 L 8.2510754,151.00186 L 8.2255594,150.93486 L 8.2255608,150.93537 z M 13.15145,150.48771 C 13.873326,150.31537 14.43724,150.00376 14.810535,149.57093 C 15.114319,149.21869 15.358158,148.55424 15.439585,147.85679 C 15.484345,147.4734 15.462115,146.52173 15.400765,146.19527 C 15.200954,145.13191 14.854613,144.40996 14.261847,143.82119 C 13.600589,143.16438 12.759054,142.85177 11.651471,142.85149 C 11.079739,142.85135 10.725674,142.98182 10.590893,143.24231 C 10.531293,143.3575 10.530963,143.37672 10.530963,146.74805 L 10.530963,150.13797 L 10.608683,150.25541 C 10.781588,150.51669 11.110607,150.5844 12.138,150.57014 C 12.77444,150.56114 12.878686,150.55284 13.151446,150.48774 L 13.151446,150.48774 L 13.15145,150.48771 z M 20.115268,151.10161 C 19.518901,151.04561 19.041092,150.84102 18.652027,150.47501 C 18.166288,150.01807 17.923205,149.48177 17.842586,148.68922 C 17.766576,147.94196 17.97758,147.01785 18.353562,146.45138 C 18.713566,145.90898 19.417091,145.40344 20.000789,145.26772 C 20.281964,145.20232 20.748824,145.20922 21.116516,145.28412 C 21.809445,145.42533 22.135942,145.65971 22.41295,146.21481 C 22.581921,146.5534 22.636164,146.74001 22.682228,147.14117 C 22.721108,147.4798 22.701268,147.61236 22.601968,147.67743 C 22.535068,147.72123 22.374221,147.72373 20.721208,147.70663 L 18.913609,147.68783 L 18.913609,147.86913 C 18.913609,148.52438 19.123842,149.24481 19.447352,149.69817 C 19.816778,150.21587 20.310438,150.49597 20.852478,150.49543 C 21.445232,150.49483 21.853332,150.33941 22.269745,149.95567 C 22.460116,149.78024 22.464254,149.7782 22.553626,149.81578 C 22.603506,149.83678 22.658998,149.88138 22.676938,149.91488 C 22.704918,149.96718 22.694138,149.99468 22.601038,150.10826 C 22.32864,150.44068 21.862582,150.78491 21.491371,150.92786 C 21.082981,151.08512 20.595469,151.14667 20.115268,151.10159 L 20.115268,151.10161 z M 20.847591,147.23489 C 21.356878,147.22089 21.501957,147.20829 21.535286,147.17489 C 21.633156,147.07699 21.553416,146.46752 21.402542,146.16029 C 21.309732,145.97131 21.163695,145.82927 20.95498,145.72499 C 20.801026,145.64809 20.70408,145.62939 20.446692,145.62699 C 20.092493,145.62399 19.690901,145.80282 19.448833,146.07206 C 19.258499,146.28375 19.035821,146.79191 18.963104,147.18051 L 18.946794,147.26771 L 19.574464,147.25971 C 19.919683,147.25571 20.49259,147.24421 20.847591,147.23441 L 20.847591,147.23441 L 20.847591,147.23489 z M 29.630701,151.06756 C 29.544841,150.97326 29.587601,151.07456 28.626339,148.6859 C 28.139303,147.47559 27.687646,146.37844 27.622657,146.24779 C 27.557667,146.11714 27.459961,145.97115 27.405531,145.92336 C 27.304534,145.83466 26.986089,145.71802 26.84504,145.71802 C 26.80213,145.71802 26.75138,145.70242 26.732267,145.68322 C 26.697737,145.64872 26.684017,145.41041 26.712317,145.33667 C 26.724367,145.30527 26.967889,145.29877 28.021392,145.30157 L 29.315668,145.30457 L 29.339218,145.38797 C 29.371118,145.50098 29.340918,145.65329 29.280558,145.68422 C 29.253378,145.69812 29.163615,145.71712 29.081095,145.72642 C 28.998575,145.73542 28.878047,145.77032 28.813256,145.80342 C 28.7024,145.86002 28.695453,145.87102 28.695453,145.99113 C 28.695453,146.13647 28.680273,146.09284 29.388778,147.98369 C 29.679759,148.76026 29.946194,149.43782 29.980856,149.48938 C 30.082992,149.64132 30.148306,149.62758 30.251144,149.43248 C 30.299824,149.34018 30.610074,148.60658 30.940593,147.80234 C 31.47082,146.51215 31.543211,146.31695 31.555769,146.14349 C 31.568559,145.96684 31.563169,145.93961 31.502579,145.87512 C 31.429259,145.79712 31.201892,145.71754 31.052146,145.71754 C 30.922727,145.71754 30.867122,145.65234 30.867122,145.50067 C 30.867122,145.28173 30.781202,145.29708 31.972276,145.3033 C 32.820932,145.3073 33.05291,145.3169 33.071833,145.3467 C 33.103163,145.3961 33.102743,145.60523 33.071216,145.65497 C 33.057686,145.67627 32.953189,145.71157 32.839001,145.73337 C 32.457922,145.80597 32.23988,145.98086 32.04645,146.36903 C 32.00677,146.44863 31.560898,147.48454 31.055621,148.67099 C 30.550344,149.85745 30.117283,150.86728 30.093264,150.91505 C 30.011654,151.07738 29.940184,151.13222 29.810243,151.13222 C 29.722473,151.13222 29.674026,151.11462 29.630698,151.06702 L 29.630698,151.06702 L 29.630701,151.06756 z M 33.499228,150.95364 C 33.461438,150.88304 33.467208,150.71702 33.509318,150.66315 C 33.532978,150.63285 33.630745,150.60585 33.791635,150.58495 C 34.126753,150.54155 34.318681,150.44619 34.396268,150.2846 C 34.428468,150.2175 34.468378,150.07798 34.484948,149.97447 C 34.526778,149.71322 34.525938,146.55121 34.483986,146.3556 C 34.426726,146.08861 34.234104,145.94169 33.890689,145.90308 C 33.637388,145.87458 33.617899,145.85858 33.617899,145.67855 L 33.617899,145.52532 L 33.900216,145.48892 C 34.324145,145.43422 34.871918,145.32167 35.188948,145.22406 C 35.417453,145.15366 35.483234,145.14336 35.532982,145.16996 C 35.588972,145.19996 35.592792,145.21886 35.575612,145.38079 C 35.565232,145.47869 35.548552,145.73591 35.538542,145.95248 C 35.514552,146.47186 35.536342,146.48754 35.776123,146.12334 C 35.992556,145.7946 36.35,145.45511 36.6204,145.32147 C 36.834002,145.21591 36.855751,145.21124 37.134495,145.21124 C 37.362936,145.21124 37.447356,145.22284 37.526897,145.26524 C 37.669965,145.34144 37.783269,145.45332 37.851227,145.5855 C 38.011579,145.89738 37.758697,146.37425 37.402274,146.43208 C 37.195901,146.46558 37.101303,146.42408 36.896988,146.20885 C 36.700743,146.00241 36.596038,145.95158 36.445065,145.98947 C 36.290451,146.02827 35.86858,146.55797 35.688695,146.93915 C 35.535583,147.2636 35.522447,147.42118 35.536317,148.7671 C 35.547037,149.80752 35.555197,149.98101 35.600177,150.12454 C 35.695207,150.42778 35.864573,150.5291 36.373529,150.58717 C 36.678304,150.62197 36.686453,150.62827 36.686342,150.82865 C 36.686255,151.00736 36.777742,150.99759 35.07976,151.00009 C 33.65067,151.00209 33.523207,150.99809 33.499211,150.95359 L 33.499211,150.95359 L 33.499228,150.95364 z M 38.478974,150.93537 C 38.446184,150.84907 38.446724,150.77784 38.480874,150.68806 C 38.504304,150.62646 38.532464,150.61336 38.676324,150.59706 C 39.105031,150.54866 39.311995,150.43888 39.398192,150.21414 C 39.447232,150.08628 39.451942,149.93778 39.460332,148.25599 C 39.468132,146.68189 39.463332,146.41541 39.424662,146.28228 C 39.353132,146.03621 39.201456,145.94267 38.794283,145.89354 C 38.703013,145.88254 38.620778,145.86594 38.611533,145.85674 C 38.602333,145.84774 38.587443,145.76934 38.578533,145.68309 L 38.562343,145.52625 L 38.848147,145.48965 C 39.291712,145.43275 39.860026,145.31636 40.154726,145.22198 C 40.343795,145.16138 40.437066,145.14428 40.471615,145.16358 C 40.517065,145.18898 40.519995,145.35883 40.512445,147.53394 C 40.503845,150.01363 40.509445,150.13893 40.63658,150.33109 C 40.72226,150.46054 40.915112,150.54631 41.217044,150.58923 C 41.47406,150.62573 41.476106,150.62673 41.500188,150.72014 C 41.513528,150.77194 41.513758,150.85549 41.500698,150.9059 L 41.476948,150.9976 L 39.99071,150.9996 L 38.504471,151.0016 L 38.478981,150.9346 L 38.478974,150.93537 z M 39.740891,143.6674 C 39.512124,143.56013 39.322765,143.27699 39.322317,143.04153 C 39.321718,142.72625 39.752437,142.37706 40.074762,142.43152 C 40.39338,142.48532 40.664687,142.88075 40.595004,143.18971 C 40.512684,143.55469 40.051079,143.81286 39.740891,143.6674 L 39.740891,143.6674 z M 44.492058,151.09998 C 43.23044,150.97878 42.412684,150.12678 42.244534,148.75835 C 42.168784,148.14192 42.300034,147.334 42.567327,146.77124 C 42.890877,146.09005 43.63617,145.46681 44.34763,145.28249 C 44.748496,145.17863 45.403881,145.21619 45.845134,145.36819 C 46.304949,145.52666 46.606628,145.7894 46.814905,146.2128 C 46.989697,146.56813 47.055621,146.82984 47.074064,147.24164 C 47.089184,147.57929 47.087264,147.59509 47.023414,147.65895 L 46.957044,147.72535 L 45.133186,147.70665 L 43.309327,147.68795 L 43.327537,148.05667 C 43.388047,149.28156 43.975257,150.19618 44.86646,150.45363 C 45.004287,150.49343 45.107415,150.50033 45.373183,150.48763 C 45.922196,150.46133 46.249217,150.3269 46.674095,149.95276 C 46.857298,149.79144 46.914744,149.77357 47.017898,149.84582 C 47.112618,149.91212 47.097748,149.97796 46.946478,150.1617 C 46.64952,150.52241 46.078941,150.89281 45.630885,151.01573 C 45.442585,151.06743 44.922009,151.13732 44.79476,151.12804 C 44.77087,151.12604 44.634656,151.11364 44.492057,151.09994 L 44.492057,151.09994 L 44.492058,151.09998 z M 45.25413,147.23486 C 46.019951,147.21286 45.999302,147.22366 45.969669,146.85849 C 45.920629,146.25411 45.735726,145.91535 45.35257,145.72789 C 45.170418,145.63879 44.856183,145.59956 44.635506,145.63839 C 44.418562,145.67659 44.03838,145.87088 43.889734,146.01953 C 43.685386,146.22388 43.438111,146.76148 43.362095,147.16669 L 43.343175,147.26756 L 43.989342,147.26056 C 44.344734,147.25656 44.913891,147.24506 45.254134,147.23536 L 45.25413,147.23486 z M 50.455578,151.10121 C 49.869851,151.04711 49.384504,150.84189 49.005606,150.48804 C 48.624411,150.13204 48.419793,149.78677 48.283886,149.27018 C 48.046197,148.36673 48.181247,147.31871 48.635141,146.54435 C 48.792818,146.27535 49.201193,145.84941 49.482125,145.66093 C 49.734676,145.49149 50.102871,145.32312 50.342871,145.26731 C 50.75656,145.17111 51.493083,145.23911 51.921089,145.41304 C 52.149638,145.50594 52.41379,145.6957 52.541514,145.85881 C 52.676029,146.0306 52.886985,146.46386 52.945257,146.68803 C 53.006067,146.92194 53.057248,147.40667 53.034147,147.52983 C 52.995597,147.73534 53.082137,147.72761 51.057115,147.70659 L 49.245108,147.68779 L 49.262878,148.01315 C 49.311608,148.90533 49.575258,149.55438 50.083236,150.03272 C 50.419605,150.34946 50.770716,150.4959 51.192791,150.49548 C 51.785545,150.49488 52.193645,150.33946 52.610058,149.95572 C 52.800429,149.78029 52.804567,149.77825 52.893939,149.81583 C 52.943819,149.83683 52.999577,149.88183 53.017841,149.91601 C 53.047291,149.97101 53.031991,149.99981 52.882733,150.16977 C 52.692814,150.38609 52.377013,150.64679 52.142006,150.78125 C 51.686391,151.04192 51.073312,151.15824 50.455579,151.10122 L 50.455578,151.10121 z M 51.187901,147.23489 C 51.697188,147.22089 51.842268,147.20829 51.875596,147.17489 C 51.971886,147.07859 51.891356,146.46151 51.743237,146.16063 C 51.576654,145.82225 51.243541,145.63238 50.807922,145.62749 C 50.619879,145.62549 50.531416,145.63999 50.376318,145.69889 C 49.993415,145.8443 49.806461,145.99501 49.616947,146.31104 C 49.522157,146.46911 49.342311,146.96738 49.303129,147.18048 L 49.287109,147.26768 L 49.914779,147.25968 C 50.259997,147.25568 50.832904,147.24418 51.187905,147.23438 L 51.187905,147.23438 L 51.187901,147.23489 z M 49.466463,143.95288 C 49.318382,143.91768 49.18834,143.8272 49.095067,143.69437 C 49.017267,143.58357 49.007797,143.54707 49.007797,143.35801 C 49.007797,143.16848 49.017197,143.13259 49.095947,143.02039 C 49.217513,142.84726 49.398335,142.75134 49.601383,142.75229 C 49.831824,142.75329 50.02872,142.87802 50.145776,143.09693 C 50.207466,143.2123 50.207466,143.50397 50.145776,143.61934 C 50.011591,143.87029 49.720516,144.0132 49.466458,143.95288 L 49.466463,143.95288 z M 51.672963,143.93819 C 51.390666,143.86249 51.186073,143.5333 51.248906,143.25579 C 51.301716,143.02255 51.477595,142.82198 51.67816,142.76629 C 51.817652,142.72759 51.871078,142.72789 52.006952,142.76829 C 52.52071,142.92222 52.594544,143.65299 52.120524,143.89237 C 51.972072,143.96737 51.834987,143.98127 51.672963,143.93787 L 51.672963,143.93819 z M 59.702991,151.09998 C 58.566608,150.99081 57.768298,150.27623 57.513785,149.1404 C 57.358784,148.44866 57.438305,147.56754 57.715914,146.90069 C 58.02885,146.14898 58.78901,145.48189 59.56041,145.28201 C 59.956411,145.17941 60.615799,145.21651 61.048746,145.36571 C 61.515785,145.52667 61.773292,145.74618 61.996754,146.17384 C 62.19777,146.55854 62.265666,146.81007 62.284996,147.24167 C 62.300116,147.57932 62.298196,147.59512 62.234346,147.65898 L 62.167976,147.72538 L 60.348468,147.70668 L 58.528961,147.68798 L 58.529077,147.94083 C 58.52914,148.0799 58.548577,148.31318 58.572267,148.45925 C 58.73471,149.46082 59.25036,150.1746 59.992323,150.42495 C 60.205961,150.49705 60.248339,150.50165 60.570331,150.48795 C 61.119176,150.46465 61.489649,150.31138 61.906542,149.93517 C 62.069489,149.78813 62.1468,149.77012 62.235277,149.85857 C 62.319017,149.94237 62.308977,149.98023 62.155647,150.15923 C 61.810464,150.56221 61.311715,150.88674 60.837757,151.01677 C 60.652667,151.06757 60.131801,151.13715 60.005695,151.12796 C 59.981805,151.12596 59.84559,151.11356 59.702992,151.09986 L 59.702993,151.09986 L 59.702991,151.09998 z M 60.465062,147.23486 C 61.228628,147.21286 61.210331,147.22226 61.179427,146.86802 C 61.152887,146.56378 61.069491,146.243 60.980128,146.10144 C 60.785001,145.79234 60.473696,145.63092 60.06529,145.62708 C 59.84663,145.62508 59.785319,145.63608 59.604416,145.71238 C 59.21554,145.87576 59.050509,146.01339 58.868518,146.32608 C 58.790308,146.46045 58.604926,146.9864 58.572461,147.16601 L 58.554101,147.26758 L 59.200269,147.26058 C 59.555661,147.25658 60.124817,147.24508 60.46506,147.23538 L 60.465062,147.23486 z M 63.187951,150.95364 C 63.150181,150.88304 63.155931,150.71718 63.198051,150.66222 C 63.221521,150.63162 63.314374,150.60412 63.462158,150.58412 C 63.709229,150.55062 63.900235,150.47886 63.979089,150.38989 C 64.006539,150.35889 64.051989,150.27559 64.080092,150.20471 C 64.126582,150.08747 64.132062,149.914 64.140862,148.2806 C 64.147762,147.00509 64.140929,146.44125 64.117332,146.33301 C 64.057352,146.05783 63.903987,145.9488 63.498998,145.89345 C 63.389808,145.87855 63.29454,145.86035 63.287293,145.85315 C 63.280093,145.84615 63.266833,145.76935 63.257923,145.68313 L 63.241733,145.52629 L 63.527538,145.49009 C 63.933096,145.43869 64.615667,145.29918 64.898007,145.20999 C 65.24179,145.10139 65.232415,145.08353 65.185863,145.75823 C 65.157403,146.17075 65.156633,146.30562 65.182563,146.33159 C 65.208523,146.35759 65.279833,146.30129 65.485711,146.09238 C 66.114618,145.4542 66.572207,145.22983 67.297755,145.20385 C 67.658183,145.19095 67.699833,145.19485 67.921902,145.26745 C 68.341711,145.40401 68.569062,145.63503 68.703991,146.06216 C 68.830747,146.46341 68.844412,146.66204 68.865581,148.41097 C 68.879671,149.57485 68.896181,150.10833 68.920441,150.1836 C 68.997321,150.42212 69.158333,150.52673 69.539159,150.58559 C 69.654683,150.60349 69.758775,150.63289 69.770475,150.65099 C 69.794845,150.68879 69.799955,150.90626 69.777875,150.96391 C 69.765815,150.99531 69.507541,151.00191 68.383037,150.99961 L 67.002996,150.99661 L 66.977026,150.92701 C 66.962746,150.88871 66.959036,150.80356 66.968826,150.7377 L 66.986566,150.61795 L 67.192186,150.58745 C 67.458709,150.54785 67.643351,150.45288 67.712438,150.31976 C 67.8175,150.11731 67.827118,149.93211 67.818001,148.2871 C 67.809201,146.69744 67.808701,146.68675 67.741871,146.50137 C 67.586846,146.07155 67.319912,145.85772 66.936386,145.85613 C 66.470836,145.85413 65.956774,146.10545 65.475306,146.57024 C 65.169596,146.86536 65.184686,146.7581 65.194621,148.56536 C 65.203021,150.09365 65.204811,150.13697 65.264741,150.26655 C 65.348351,150.44731 65.462563,150.52054 65.746921,150.5757 C 65.877887,150.6011 65.994615,150.6358 66.006315,150.6528 C 66.036025,150.696 66.032935,150.90692 66.001915,150.95597 C 65.980485,150.98977 65.746198,150.99707 64.595156,150.99937 C 63.328286,151.00237 63.211945,150.99837 63.188004,150.95347 L 63.188004,150.95347 L 63.187951,150.95364 z M 72.775107,151.10259 C 71.747574,150.9964 71.006355,150.40593 70.670979,149.42639 C 70.432515,148.7299 70.430629,147.85865 70.665979,147.13684 C 70.899196,146.4217 71.412996,145.81742 72.079871,145.47395 C 72.519761,145.24738 72.684115,145.21115 73.267309,145.21221 C 73.688197,145.21296 73.815722,145.22371 74.020154,145.27541 C 74.336803,145.35551 74.541754,145.448 74.760357,145.60933 C 75.192042,145.92793 75.338981,146.49519 75.068689,146.79966 C 74.980899,146.89856 74.741954,146.99148 74.574686,146.99179 C 74.269472,146.99235 74.131748,146.84939 74.078967,146.47723 C 74.019357,146.05694 73.864059,145.78995 73.615144,145.67985 C 73.410955,145.58955 73.008202,145.57852 72.752222,145.65625 C 72.210064,145.82093 71.824062,146.35144 71.674953,147.13683 C 71.516947,147.96907 71.610993,148.84395 71.927078,149.48223 C 72.103398,149.83828 72.453638,150.20697 72.746108,150.3444 C 73.410213,150.65645 74.160372,150.47925 74.76909,149.86654 C 75.006069,149.62801 75.013134,149.6235 75.095947,149.6578 C 75.255211,149.7238 75.254592,149.77928 75.091947,150.01452 C 74.80647,150.42748 74.488061,150.72431 74.145286,150.89705 C 73.798431,151.07184 73.259606,151.15266 72.77504,151.10258 L 72.775107,151.10259 z M 76.785455,154.00378 C 76.601792,153.91648 76.504208,153.79358 76.489739,153.63148 C 76.472769,153.44141 76.610569,153.20917 76.799933,153.10867 C 76.922548,153.04357 76.948695,153.04067 77.243239,153.05937 C 77.898046,153.10097 78.002426,153.00147 78.45263,151.90622 C 78.53073,151.71623 78.608788,151.50818 78.626097,151.4439 C 78.678337,151.24991 78.660527,150.91144 78.583057,150.62596 C 78.512997,150.36778 76.841168,146.43753 76.694991,146.18736 C 76.527797,145.90123 76.34197,145.76163 76.083377,145.72791 C 76.007677,145.71791 75.924664,145.69921 75.898898,145.68601 C 75.837058,145.65441 75.811638,145.51699 75.845178,145.39558 L 75.872118,145.29808 L 77.161906,145.29808 L 78.451694,145.29808 L 78.475924,145.38588 C 78.508694,145.50458 78.483124,145.65629 78.425284,145.6858 C 78.399284,145.6991 78.317473,145.7178 78.243474,145.7275 C 78.02941,145.7554 77.881207,145.8269 77.842209,145.921 C 77.796849,146.03051 77.840509,146.23565 77.97123,146.52707 C 78.02522,146.64744 78.323652,147.34302 78.634412,148.0728 C 78.945172,148.80259 79.220135,149.43129 79.245441,149.46991 C 79.300481,149.55391 79.378843,149.56011 79.446044,149.48591 C 79.473034,149.45611 79.802878,148.72314 80.179021,147.85716 C 80.938444,146.10876 80.965726,146.02385 80.813482,145.88276 C 80.738512,145.81326 80.462372,145.71801 80.335954,145.71801 C 80.202595,145.71801 80.158785,145.66821 80.158785,145.51667 C 80.158785,145.43887 80.165485,145.35792 80.173575,145.33671 C 80.185575,145.30541 80.391493,145.29911 81.264257,145.30321 C 82.476709,145.30921 82.407727,145.29421 82.380657,145.53472 C 82.372657,145.60522 82.360127,145.66907 82.352707,145.67648 C 82.345307,145.68348 82.264397,145.70948 82.172959,145.73328 C 81.941031,145.79368 81.791295,145.88919 81.571443,146.11692 C 81.432699,146.26063 81.343097,146.39063 81.237114,146.602 C 80.895568,147.28315 80.210678,148.84769 79.285435,151.06035 C 78.999081,151.74515 78.681541,152.47562 78.579792,152.68362 C 78.107843,153.64841 77.70396,154.02997 77.132923,154.05055 C 76.952485,154.05655 76.875675,154.04655 76.785456,154.00385 L 76.785456,154.00385 L 76.785455,154.00378 z M 85.319506,151.10242 C 84.760756,151.04512 84.244148,150.82437 83.886193,150.49008 C 83.626464,150.24752 83.502525,150.08296 83.353201,149.78241 C 82.914536,148.89949 82.920922,147.60921 83.368341,146.7246 C 83.664747,146.13855 84.257484,145.59202 84.840553,145.36717 C 85.224168,145.21923 85.422501,145.18936 85.913101,145.20563 C 86.598042,145.22833 87.0681,145.3852 87.400017,145.7018 C 87.742371,146.02835 87.840464,146.47321 87.634037,146.76311 C 87.489367,146.96628 87.042389,147.06248 86.833847,146.93532 C 86.707393,146.85822 86.655507,146.74487 86.6057,146.43692 C 86.502438,145.79847 86.22241,145.5724 85.58019,145.60901 C 85.360603,145.62151 85.286289,145.63951 85.123281,145.71924 C 84.459802,146.04394 84.085395,146.9667 84.142762,148.13581 C 84.195012,149.20062 84.610746,150.01213 85.269511,150.33522 C 85.9341,150.66116 86.685776,150.48752 87.309063,149.86405 C 87.566716,149.60633 87.598068,149.59557 87.718331,149.72358 L 87.780911,149.79018 L 87.6376,149.99821 C 87.424466,150.3076 87.267604,150.48257 87.046868,150.65712 C 86.585777,151.02174 86.001392,151.17239 85.319514,151.10241 L 85.319506,151.10242 z M 88.428532,150.94732 C 88.407182,150.88002 88.408162,150.67941 88.430032,150.64406 C 88.438732,150.62986 88.534058,150.60956 88.641777,150.59886 C 88.890197,150.57416 89.108522,150.51106 89.193083,150.43957 C 89.307992,150.34247 89.373256,150.14372 89.404983,149.79432 C 89.423863,149.5864 89.430923,148.29506 89.424413,146.23925 C 89.413123,142.67168 89.418913,142.78145 89.233996,142.61625 C 89.138206,142.53065 88.929568,142.47502 88.704425,142.47502 C 88.56653,142.47502 88.557586,142.47002 88.517639,142.3746 C 88.494559,142.3194 88.475679,142.23666 88.475679,142.19079 L 88.475679,142.10739 L 88.844863,142.05849 C 89.278493,142.00109 89.859102,141.8877 90.129269,141.80775 C 90.365188,141.73795 90.435238,141.73675 90.468562,141.80175 C 90.483402,141.83075 90.484622,141.98876 90.471362,142.17094 C 90.458662,142.34612 90.447672,144.15077 90.446942,146.18128 C 90.445542,150.12061 90.446959,150.16406 90.584614,150.35089 C 90.676764,150.47595 90.853799,150.55253 91.12964,150.58664 C 91.415324,150.62194 91.458303,150.65154 91.45761,150.81247 C 91.456768,151.00838 91.55485,150.9964 89.925878,150.99954 C 88.495367,151.00254 88.445394,151.00054 88.428495,150.94734 L 88.428495,150.94734 L 88.428532,150.94732 z M 94.845894,151.11272 C 93.66758,151.00689 92.959216,150.53238 92.484941,149.53118 C 92.306687,149.15488 92.237725,148.85551 92.220197,148.38193 C 92.171837,147.07531 92.773629,145.93702 93.76006,145.46928 C 94.205757,145.25794 94.430239,145.21247 95.019627,145.21419 C 95.473231,145.21519 95.556704,145.22419 95.815906,145.29259 C 96.156124,145.38289 96.56061,145.57621 96.789707,145.75791 C 97.20786,146.08955 97.599953,146.81821 97.728769,147.50305 C 97.803819,147.90206 97.775069,148.65526 97.671569,149.00132 C 97.412475,149.86764 96.950038,150.48413 96.322644,150.79961 C 95.920234,151.00196 95.23355,151.14757 94.845895,151.11276 L 94.845894,151.11272 z M 95.773052,150.59443 C 96.032083,150.47168 96.290486,150.22632 96.404371,149.99498 C 96.685064,149.42482 96.749112,148.27412 96.553235,147.32047 C 96.324067,146.20473 95.746752,145.60387 94.90265,145.60254 C 94.495662,145.6019 94.169291,145.73137 93.924359,145.99063 C 93.742273,146.18336 93.646742,146.35085 93.525638,146.68969 C 93.378784,147.10057 93.329044,147.42149 93.330671,147.9476 C 93.333671,148.90309 93.620875,149.72347 94.136482,150.24898 C 94.465878,150.5847 94.765062,150.70004 95.280228,150.68989 C 95.553172,150.68489 95.603566,150.67479 95.773052,150.59439 L 95.773052,150.59439 L 95.773052,150.59443 z M 98.419785,154.00482 C 98.401465,153.95712 98.399225,153.88203 98.413985,153.8111 L 98.438095,153.69528 L 98.681096,153.67518 C 98.861361,153.66028 98.965655,153.63408 99.085066,153.57383 C 99.266508,153.48233 99.330568,153.3861 99.378552,153.13308 C 99.397372,153.03388 99.407962,151.7982 99.407962,149.70075 C 99.407962,146.85614 99.402162,146.40398 99.364052,146.27564 C 99.292942,146.03619 99.138335,145.94225 98.735298,145.89362 C 98.644028,145.88262 98.562346,145.86662 98.553777,145.85802 C 98.545177,145.84902 98.535187,145.77252 98.531507,145.68707 L 98.524807,145.5317 L 98.684063,145.5076 C 99.416573,145.39655 99.990772,145.27348 100.21657,145.17914 C 100.27317,145.15554 100.34899,145.14364 100.38519,145.15274 L 100.45099,145.16924 L 100.43169,145.66086 L 100.41239,146.15247 L 100.47819,146.15247 C 100.51789,146.15247 100.61297,146.08857 100.71782,145.99154 C 101.08664,145.65008 101.61214,145.34248 101.99869,145.2418 C 102.58155,145.08998 103.31835,145.305 103.81452,145.7718 C 104.09723,146.03776 104.26292,146.26599 104.43124,146.62132 C 104.61578,147.01089 104.68053,147.29749 104.69866,147.80497 C 104.77126,149.83781 103.3687,151.28349 101.49754,151.10445 C 101.17303,151.07345 101.07546,151.05245 100.73015,150.93981 C 100.58403,150.89211 100.49321,150.87571 100.47519,150.89371 C 100.45779,150.91111 100.45089,151.34253 100.45709,152.03345 C 100.46609,153.01976 100.47289,153.16067 100.51919,153.28233 C 100.61429,153.53198 100.82581,153.63891 101.29014,153.67204 C 101.42551,153.68204 101.54584,153.70394 101.55754,153.72144 C 101.58554,153.76334 101.58494,154.00422 101.55673,154.0486 C 101.54003,154.0749 101.16026,154.0833 99.992202,154.0831 L 98.449751,154.08284 L 98.419841,154.00494 L 98.419842,154.00493 L 98.419785,154.00482 z M 102.23114,150.62655 C 102.72587,150.49879 103.05094,150.2304 103.27312,149.76626 C 103.52898,149.23177 103.62612,148.72759 103.59562,148.09237 C 103.54212,146.97786 103.16011,146.20097 102.51029,145.88508 C 102.33323,145.79898 102.29508,145.79158 102.02845,145.79098 C 101.75178,145.79041 101.72895,145.79498 101.51542,145.89961 C 101.10911,146.09819 100.589,146.54258 100.49246,146.77364 C 100.45746,146.85744 100.45036,147.13119 100.45056,148.4027 C 100.45067,149.41135 100.46136,149.96948 100.48216,150.0441 C 100.52396,150.19449 100.75693,150.43725 100.95053,150.53204 C 101.28715,150.69687 101.80958,150.73541 102.23121,150.62654 L 102.23114,150.62655 z M 108.02849,151.10037 C 107.11638,151.01247 106.42236,150.54121 106.05066,149.75732 C 105.66112,148.9358 105.65929,147.8034 106.04566,146.89229 C 106.36363,146.14321 107.11986,145.47911 107.87878,145.28249 C 108.40253,145.14679 109.17063,145.23929 109.68508,145.49996 C 110.22918,145.77568 110.6134,146.53811 110.6134,147.34207 C 110.6134,147.56797 110.6054,147.60793 110.5508,147.66273 L 110.4882,147.72533 L 108.66869,147.70663 L 106.84919,147.68793 L 106.8493,147.9263 C 106.84937,148.05741 106.8694,148.28846 106.8939,148.43975 C 106.9842,148.99903 107.13923,149.38554 107.42436,149.76261 C 107.69729,150.12354 107.99875,150.33724 108.39919,150.45365 C 108.53578,150.49335 108.63869,150.50025 108.90439,150.48755 C 109.45174,150.46135 109.81891,150.30932 110.2199,149.94284 C 110.38538,149.79159 110.4462,149.77366 110.54911,149.84574 C 110.6593,149.92294 110.62891,150.00522 110.40354,150.23964 C 110.03635,150.62161 109.59522,150.89683 109.15786,151.01682 C 108.97291,151.06752 108.45203,151.13715 108.32597,151.12796 C 108.30207,151.12596 108.16807,151.11376 108.02817,151.10026 L 108.02817,151.10026 L 108.02849,151.10037 z M 108.42764,147.23943 C 109.40892,147.22533 109.4123,147.22503 109.46625,147.15933 C 109.51305,147.10233 109.51785,147.06273 109.50155,146.86614 C 109.44925,146.23523 109.27933,145.92122 108.88616,145.72887 C 108.70192,145.63877 108.38887,145.59934 108.16706,145.63837 C 107.9442,145.67757 107.57184,145.86979 107.4197,146.02411 C 107.20865,146.23819 106.96891,146.7632 106.89561,147.17185 L 106.87631,147.27929 L 107.15972,147.26639 C 107.3156,147.25939 107.88616,147.24719 108.42763,147.23939 L 108.42764,147.23943 z M 113.72373,151.10316 C 112.70285,150.99555 112.01662,150.26379 111.78278,149.03343 C 111.72188,148.71324 111.71488,147.9979 111.76948,147.68699 C 111.99587,146.39802 112.92709,145.41359 114.09879,145.22458 C 114.45378,145.16728 114.94282,145.20148 115.30462,145.30888 C 115.70995,145.42919 115.7599,145.42815 115.78415,145.29888 C 115.79455,145.24358 115.79705,144.69957 115.79015,144.08999 C 115.77535,142.86114 115.76065,142.74932 115.59502,142.60998 C 115.49952,142.52968 115.28807,142.47493 115.07305,142.47493 C 114.91037,142.47493 114.88117,142.44313 114.8526,142.23466 L 114.8352,142.10787 L 115.21941,142.05707 C 115.61625,142.00467 116.25428,141.87832 116.57293,141.78911 C 116.79678,141.72641 116.85909,141.75171 116.84462,141.89937 C 116.83962,141.95317 116.82882,143.70155 116.82132,145.78473 C 116.80902,149.17845 116.81232,149.5887 116.85342,149.7298 C 116.93952,150.02598 117.14074,150.16884 117.56269,150.23337 C 117.68161,150.25157 117.78891,150.28217 117.80113,150.30137 C 117.83083,150.34807 117.82943,150.50046 117.79913,150.54859 C 117.78523,150.57049 117.634,150.61109 117.44977,150.64259 C 116.92944,150.73139 116.59334,150.84665 116.30128,151.03654 C 116.20328,151.10024 116.11834,151.13264 116.04903,151.13264 C 115.95073,151.13264 115.9426,151.12564 115.91112,151.00958 C 115.86552,150.84174 115.7998,150.46988 115.79856,150.37256 C 115.79762,150.29786 115.77396,150.27996 115.69045,150.29046 C 115.67135,150.29246 115.52121,150.39609 115.35679,150.51988 C 114.71376,151.00398 114.27414,151.16106 113.72445,151.10312 L 113.72445,151.10312 L 113.72373,151.10316 z M 114.85895,150.36755 C 115.17558,150.21036 115.61824,149.87652 115.71376,149.72287 L 115.78236,149.61254 L 115.78236,148.03446 L 115.78236,146.45638 L 115.71066,146.31606 C 115.63036,146.15874 115.33003,145.86273 115.16608,145.77923 C 114.96653,145.67759 114.75142,145.63115 114.48016,145.63115 C 113.99957,145.63115 113.70959,145.75002 113.40657,146.07123 C 112.98174,146.52158 112.81737,147.15531 112.85232,148.2082 C 112.88472,149.18293 113.08946,149.77148 113.54204,150.19049 C 113.82855,150.45574 114.02213,150.52999 114.37732,150.51083 C 114.56315,150.50083 114.63135,150.48053 114.85893,150.36755 L 114.85893,150.36755 L 114.85895,150.36755 z M 118.28354,150.93537 C 118.25074,150.84907 118.25124,150.77784 118.28554,150.68806 C 118.30894,150.62646 118.33714,150.61336 118.48099,150.59706 C 118.9097,150.54866 119.11666,150.43888 119.20286,150.21414 C 119.25186,150.08628 119.25666,149.93778 119.26496,148.25599 C 119.27296,146.68189 119.26796,146.41541 119.22926,146.28228 C 119.15776,146.03621 119.00605,145.94267 118.59888,145.89354 C 118.50758,145.88254 118.42537,145.86594 118.41613,145.85674 C 118.40713,145.84774 118.39203,145.76934 118.38313,145.68309 L 118.36693,145.52625 L 118.65273,145.48965 C 119.09629,145.43275 119.66461,145.31636 119.95931,145.22198 C 120.14838,145.16138 120.24165,145.14428 120.2762,145.16358 C 120.3217,145.18898 120.3246,145.35883 120.317,147.53394 C 120.308,150.01363 120.314,150.13893 120.44114,150.33109 C 120.52684,150.46054 120.71967,150.54631 121.0216,150.58923 C 121.27862,150.62573 121.28066,150.62673 121.30475,150.72014 C 121.31805,150.77194 121.31835,150.85549 121.30526,150.9059 L 121.28146,150.9976 L 119.79522,150.9996 L 118.30898,151.0016 L 118.28348,150.9346 L 118.28354,150.93537 z M 124.30153,151.10037 C 123.58218,151.03107 123.02828,150.74303 122.60968,150.22061 C 121.96535,149.41648 121.84291,148.01407 122.31908,146.89229 C 122.63705,146.14321 123.39328,145.47911 124.1522,145.28249 C 124.55307,145.17863 125.20845,145.21619 125.6497,145.36819 C 126.10952,145.52666 126.4112,145.7894 126.61947,146.2128 C 126.79427,146.56813 126.86019,146.82984 126.87863,147.24164 C 126.89373,147.57929 126.89183,147.59509 126.82793,147.65895 L 126.76153,147.72535 L 124.93767,147.70665 L 123.11381,147.68795 L 123.13201,148.05667 C 123.19251,149.28156 123.77973,150.19618 124.67093,150.45363 C 124.80876,150.49343 124.91189,150.50033 125.17765,150.48763 C 125.72667,150.46133 126.05369,150.3269 126.47857,149.95276 C 126.66177,149.79144 126.71921,149.77357 126.82237,149.84582 C 126.93256,149.92302 126.90217,150.0053 126.67679,150.23972 C 126.30961,150.62169 125.86848,150.89691 125.43112,151.0169 C 125.24617,151.0676 124.72529,151.13723 124.59923,151.12804 C 124.57533,151.12604 124.44133,151.11384 124.30143,151.10034 L 124.30143,151.10034 L 124.30153,151.10037 z M 125.0587,147.23486 C 125.82452,147.21286 125.80387,147.22366 125.77424,146.85849 C 125.72494,146.25132 125.5427,145.91652 125.1593,145.72894 C 124.97494,145.63874 124.66195,145.59934 124.44008,145.63844 C 124.22313,145.67664 123.84295,145.87093 123.6943,146.01958 C 123.48996,146.22393 123.24268,146.76153 123.16666,147.16674 L 123.14776,147.26761 L 123.79393,147.26061 C 124.14932,147.25661 124.71848,147.24511 125.05872,147.23541 L 125.0587,147.23486 z M 119.54546,143.6674 C 119.31669,143.56013 119.12733,143.27699 119.12689,143.04153 C 119.12629,142.72625 119.55701,142.37706 119.87933,142.43152 C 120.19795,142.48532 120.46926,142.88075 120.39957,143.18971 C 120.31727,143.55469 119.85565,143.81286 119.54546,143.6674 L 119.54546,143.6674 z" style="fill:#000000;fill-opacity:1;fill-rule:nonzero;stroke:none" id="subline" transform="matrix(0.9600853,0,0,0.9600853,2.6520998,1.9056185)"></path></svg>
