<?xml version="1.0" encoding="UTF-8" standalone="no"?>
<svg
	xmlns="http://www.w3.org/2000/svg"
	xmlns:dc="http://purl.org/dc/elements/1.1/"
	xmlns:cc="http://creativecommons.org/ns#"
	xmlns:rdf="http://www.w3.org/1999/02/22-rdf-syntax-ns#"
	xmlns:svg="http://www.w3.org/2000/svg"
	xmlns:xlink="http://www.w3.org/1999/xlink"
	xmlns:sodipodi="http://sodipodi.sourceforge.net/DTD/sodipodi-0.dtd"
	xmlns:inkscape="http://www.inkscape.org/namespaces/inkscape"
	version="1.1"
	viewBox="0 0 135 155">
	<svg xmlns:svg="http://www.w3.org/2000/svg" version="1.1" width="135" height="155" viewBox="0 0 135 155" id="svg3857" xml:space="preserve" xmlns:xlink="http://www.w3.org/1999/xlink" xmlns:svgjs="http://svgjs.com/svgjs">
<defs id="defs3"></defs>




<path d="M 203.09656,62.966141 C 202.72147,62.310008 202.72147,61.700634 203.09656,61.138016 C 203.65897,60.669385 204.40897,60.763135 205.34656,61.419266 C 215.28396,67.513128 220.39333,72.528748 220.67469,76.466141 C 220.86208,78.341242 220.20583,80.59124 218.70594,83.216141 C 217.58083,85.372485 216.45583,86.403734 215.33094,86.309891 C 214.29958,86.216234 213.73708,85.278735 213.64344,83.497391 C 212.33084,76.372494 208.81521,69.528751 203.09656,62.966141 M 230.94031,175.46614 L 232.90906,175.18489 C 233.37769,174.71615 233.94019,174.15365 234.59656,173.49739 L 238.81531,167.59114 C 239.47143,166.7474 240.22143,166.7474 241.06531,167.59114 C 247.72143,173.4974 251.00267,177.15364 250.90906,178.55989 C 250.72142,179.30989 250.0183,179.73177 248.79969,179.82552 L 231.22156,179.82552 L 182.14344,179.82552 C 182.33087,181.98176 182.47149,184.18489 182.56531,186.43489 C 182.47149,187.55988 180.31524,189.52863 176.09656,192.34114 C 174.784,193.18488 174.17462,192.62238 174.26844,190.65364 C 174.92462,178.18489 175.25275,167.6849 175.25281,159.15364 L 175.25281,101.35677 C 175.06525,101.54434 174.92462,101.82559 174.83094,102.20052 C 171.17463,108.95059 166.39338,116.26308 160.48719,124.13802 C 159.54964,125.16932 158.75276,125.4037 158.09656,124.84114 C 157.44027,124.18495 157.44027,123.38807 158.09656,122.45052 C 164.94026,112.88808 170.94025,101.30997 176.09656,87.716141 C 181.15899,74.216246 183.73711,65.216255 183.83094,60.716141 C 184.01836,59.122511 184.86211,58.794387 186.36219,59.731766 C 190.01836,61.700634 192.54961,63.153757 193.95594,64.091141 C 195.1746,64.747506 195.7371,65.35688 195.64344,65.919266 C 195.5496,66.481879 195.08085,66.716254 194.23719,66.622391 C 193.39336,66.528754 192.50273,66.950629 191.56531,67.888016 C 190.44023,69.013127 187.34649,75.622495 182.28406,87.716141 L 229.25281,87.716141 L 231.22156,87.434891 C 231.69019,86.966234 232.25269,86.403734 232.90906,85.747391 L 237.12781,79.841141 C 237.78394,78.997492 238.53394,78.997492 239.37781,79.841141 C 246.03393,85.747485 249.31517,89.403731 249.22156,90.809891 C 249.03392,91.559979 248.3308,91.981854 247.11219,92.075516 L 229.53406,92.075516 L 214.62781,92.075516 L 214.62781,114.71614 L 223.62781,114.71614 L 225.59656,114.43489 C 226.0652,113.96621 226.6277,113.40371 227.28406,112.74739 L 231.50281,106.84114 C 232.15894,105.99746 232.90894,105.99746 233.75281,106.84114 C 240.40893,112.74746 243.69018,116.4037 243.59656,117.80989 C 243.40893,118.55995 242.70581,118.98183 241.48719,119.07552 L 223.90906,119.07552 L 214.62781,119.07552 L 214.62781,143.96614 L 224.19031,143.96614 L 226.15906,143.68489 C 226.6277,143.21618 227.1902,142.65368 227.84656,141.99739 L 232.06531,136.09114 C 232.72144,135.24744 233.47144,135.24744 234.31531,136.09114 C 240.97143,141.99743 244.25268,145.65367 244.15906,147.05989 C 243.97143,147.80992 243.26831,148.2318 242.04969,148.32552 L 224.47156,148.32552 L 214.62781,148.32552 L 214.62781,175.46614 L 230.94031,175.46614 M 182.00281,159.15364 C 182.00274,165.15366 182.04962,170.59115 182.14344,175.46614 L 207.87781,175.46614 L 207.87781,148.32552 L 182.00281,148.32552 L 182.00281,159.15364 M 182.00281,143.96614 L 207.87781,143.96614 L 207.87781,119.07552 L 182.00281,119.07552 L 182.00281,143.96614 M 182.00281,114.71614 L 207.87781,114.71614 L 207.87781,92.075516 L 182.00281,92.075516 L 182.00281,114.71614 M 130.25281,139.74739 C 130.34654,140.21618 130.86217,140.26306 131.79969,139.88802 C 139.11216,136.79431 147.87778,134.12244 158.09656,131.87239 C 159.59651,131.59119 160.39339,131.87244 160.48719,132.71614 C 160.76839,133.65369 160.29964,134.26306 159.08094,134.54427 C 147.36215,138.38806 136.58091,143.40368 126.73719,149.59114 C 126.08092,150.05992 125.5653,150.01305 125.19031,149.45052 C 123.8778,147.38805 122.33093,145.6068 120.54969,144.10677 C 119.70593,143.3568 119.70593,142.7943 120.54969,142.41927 C 121.20593,141.8568 121.95593,141.43493 122.79969,141.15364 C 129.17467,136.27868 136.90904,124.6537 146.00281,106.27864 C 138.12779,108.34121 130.76842,111.24746 123.92469,114.99739 C 123.36218,115.46621 122.9403,115.41933 122.65906,114.85677 C 122.0028,113.91933 121.39343,113.16933 120.83094,112.60677 C 118.86218,110.16934 118.06531,108.90371 118.44031,108.80989 C 125.7528,103.27872 132.69029,88.559982 139.25281,64.653641 C 139.34653,63.716257 139.72153,63.294382 140.37781,63.388016 C 143.94028,64.606881 146.8934,65.82563 149.23719,67.044266 C 149.8934,67.419378 150.22152,67.794378 150.22156,68.169266 C 150.22152,68.638127 149.8934,69.013127 149.23719,69.294266 C 146.8934,70.138125 143.19028,76.04437 138.12781,87.013016 C 135.31529,93.106852 132.22154,98.731847 128.84656,103.88802 C 128.0028,105.01309 127.72155,105.76309 128.00281,106.13802 C 128.09655,106.41934 128.47155,106.51309 129.12781,106.41927 C 134.37779,104.63809 140.56528,103.41934 147.69031,102.76302 C 149.84652,98.263097 151.81527,93.716227 153.59656,89.122391 C 153.87777,88.091232 154.34652,87.716233 155.00281,87.997391 C 158.65902,89.684981 161.65901,91.372479 164.00281,93.059891 C 164.75276,93.528727 165.08088,93.950602 164.98719,94.325516 C 164.79963,94.888101 164.37776,95.216225 163.72156,95.309891 C 160.81526,96.153724 155.28402,103.09122 147.12781,116.12239 C 142.25278,123.62245 137.14341,130.51307 131.79969,136.79427 C 130.48717,138.20056 129.97154,139.18493 130.25281,139.74739 M 121.95594,170.82552 C 129.54967,169.04428 144.03403,164.35678 165.40906,156.76302 C 166.62776,156.20054 167.37776,156.34116 167.65906,157.18489 C 168.03401,158.21616 167.51838,159.05991 166.11219,159.71614 C 154.29964,165.71615 144.54965,170.40365 136.86219,173.77864 C 133.11217,175.27865 130.67467,176.91927 129.54969,178.70052 C 128.98717,179.54427 128.51842,180.01302 128.14344,180.10677 C 127.76842,180.10677 127.39342,179.77864 127.01844,179.12239 C 125.70592,176.77864 124.01842,174.85677 121.95594,173.35677 C 120.83093,172.41927 120.26843,171.8099 120.26844,171.52864 C 120.45593,171.15365 121.01843,170.91927 121.95594,170.82552 M 355.81531,129.34114 L 372.69031,129.34114 C 373.81519,129.34119 374.56519,129.15369 374.94031,128.77864 C 375.40894,128.30994 376.06519,127.60682 376.90906,126.66927 L 380.56531,121.46614 C 381.22144,120.62245 381.97144,120.62245 382.81531,121.46614 C 385.72143,124.0912 388.5808,126.85682 391.39344,129.76302 C 392.3308,130.70056 392.75267,131.59119 392.65906,132.43489 C 392.47143,133.18494 391.7683,133.60681 390.54969,133.70052 L 348.92469,133.70052 C 351.83084,137.54431 354.87771,140.63805 358.06531,142.98177 C 363.22145,146.9193 369.5027,150.34117 376.90906,153.24739 C 383.09643,155.68491 388.48705,157.23179 393.08094,157.88802 C 393.54955,157.88804 394.25267,157.93491 395.19031,158.02864 C 395.65892,158.12241 395.8933,158.49741 395.89344,159.15364 C 395.8933,159.80991 395.61205,160.18491 395.04969,160.27864 C 393.36205,161.02866 391.7683,161.87241 390.26844,162.80989 C 388.29955,164.21616 387.17456,165.38803 386.89344,166.32552 C 386.61206,166.98178 385.90893,167.02865 384.78406,166.46614 C 375.69019,161.96616 368.04957,157.27866 361.86219,152.40364 C 355.76834,147.52867 350.33084,141.43493 345.54969,134.12239 C 345.45585,133.93494 345.3621,133.79431 345.26844,133.70052 L 311.51844,133.70052 C 305.04964,141.95055 297.83089,148.7943 289.86219,154.23177 C 282.73716,159.10679 273.92467,163.93491 263.42469,168.71614 C 262.01843,169.27865 261.12781,169.13803 260.75281,168.29427 C 260.09656,167.07553 260.37781,166.1849 261.59656,165.62239 C 271.15905,160.93491 278.75279,156.48179 284.37781,152.26302 C 292.06528,146.45055 298.34652,140.26306 303.22156,133.70052 L 276.78406,133.70052 C 274.25279,133.70056 271.39342,134.02869 268.20594,134.68489 C 267.73717,134.77869 267.45593,134.68494 267.36219,134.40364 C 266.14343,132.52869 265.0653,130.84119 264.12781,129.34114 C 263.5653,128.40369 263.89343,128.07557 265.11219,128.35677 C 270.83092,128.91932 274.01842,129.24744 274.67469,129.34114 L 299.56531,129.34114 L 299.56531,80.263016 L 282.40906,80.263016 C 279.87779,80.263115 277.01842,80.59124 273.83094,81.247391 C 273.36217,81.341239 273.08092,81.247489 272.98719,80.966141 C 271.76842,79.091241 270.6903,77.403743 269.75281,75.903641 C 269.1903,74.966246 269.51842,74.638121 270.73719,74.919266 C 276.45592,75.48187 279.64341,75.809995 280.29969,75.903641 L 299.56531,75.903641 L 299.56531,72.106766 C 299.47152,68.450627 299.28402,65.16938 299.00281,62.263016 C 298.90902,60.763135 299.33089,60.15376 300.26844,60.434891 C 305.33089,62.028759 308.89338,63.388132 310.95594,64.513016 C 311.79963,64.981881 311.79963,65.497505 310.95594,66.059891 C 308.89338,67.560003 307.67464,68.497502 307.29969,68.872391 C 306.64339,69.528751 306.31526,70.606875 306.31531,72.106766 L 306.31531,75.903641 L 349.06531,75.903641 L 349.06531,71.544266 C 348.97147,67.888128 348.78397,64.606881 348.50281,61.700516 C 348.40897,60.200635 348.83084,59.591261 349.76844,59.872391 C 354.83084,61.466259 358.39333,62.825633 360.45594,63.950516 C 361.29958,64.419381 361.29958,64.935006 360.45594,65.497391 C 358.39333,66.997504 357.17459,67.935003 356.79969,68.309891 C 356.14334,68.966252 355.81521,70.044376 355.81531,71.544266 L 355.81531,75.903641 L 364.81531,75.903641 C 365.9402,75.903745 366.6902,75.716245 367.06531,75.341141 C 367.53395,74.872496 368.1902,74.169371 369.03406,73.231766 L 372.69031,68.028641 C 373.34644,67.185003 374.09644,67.185003 374.94031,68.028641 C 377.84644,70.65375 380.70581,73.419372 383.51844,76.325516 C 384.45581,77.263118 384.87768,78.153742 384.78406,78.997391 C 384.59643,79.747491 383.89331,80.169365 382.67469,80.263016 L 355.81531,80.263016 L 355.81531,129.34114 M 349.06531,116.26302 L 306.31531,116.26302 L 306.31531,129.34114 L 349.06531,129.34114 L 349.06531,116.26302 M 349.06531,98.263016 L 306.31531,98.263016 L 306.31531,111.90364 L 349.06531,111.90364 L 349.06531,98.263016 M 349.06531,80.263016 L 306.31531,80.263016 L 306.31531,93.903641 L 349.06531,93.903641 L 349.06531,80.263016 M 284.65906,187.13802 C 282.12779,187.13801 279.26841,187.46613 276.08094,188.12239 C 275.61217,188.21613 275.33092,188.12238 275.23719,187.84114 C 274.01842,185.96613 272.94029,184.27864 272.00281,182.77864 C 271.4403,181.84114 271.76842,181.51301 272.98719,181.79427 C 278.70591,182.35676 281.89341,182.68489 282.54969,182.77864 L 323.19031,182.77864 L 323.19031,163.51302 L 305.47156,163.51302 C 302.94026,163.51303 300.08089,163.84116 296.89344,164.49739 C 296.42465,164.59116 296.1434,164.49741 296.04969,164.21614 C 294.8309,162.34116 293.75277,160.65366 292.81531,159.15364 C 292.25278,158.21616 292.5809,157.88804 293.79969,158.16927 C 299.51839,158.73179 302.70589,159.05991 303.36219,159.15364 L 323.19031,159.15364 L 323.19031,148.60677 C 323.09649,144.95055 322.90899,141.6693 322.62781,138.76302 C 322.534,137.26306 322.95587,136.65368 323.89344,136.93489 C 328.95586,138.52868 332.51836,139.88806 334.58094,141.01302 C 335.42461,141.4818 335.42461,141.99743 334.58094,142.55989 C 332.51836,144.05993 331.29961,144.99743 330.92469,145.37239 C 330.26836,146.02867 329.94024,147.1068 329.94031,148.60677 L 329.94031,159.15364 L 343.44031,159.15364 C 344.56522,159.15366 345.31522,159.01304 345.69031,158.73177 C 346.25272,158.35679 346.8621,157.74741 347.51844,156.90364 L 350.89344,151.98177 C 351.64334,151.13804 352.34647,151.13804 353.00281,151.98177 C 355.72146,154.41929 358.39333,156.95054 361.01844,159.57552 C 362.04958,160.70053 362.51833,161.59116 362.42469,162.24739 C 362.23708,162.99741 361.53396,163.41928 360.31531,163.51302 L 329.94031,163.51302 L 329.94031,182.77864 L 365.94031,182.77864 C 367.0652,182.77864 367.8152,182.59114 368.19031,182.21614 C 368.65895,181.74739 369.3152,181.04426 370.15906,180.10677 L 373.81531,174.90364 C 374.47144,174.0599 375.22144,174.0599 376.06531,174.90364 C 378.97144,177.52864 381.83081,180.29427 384.64344,183.20052 C 385.58081,184.13801 386.00268,185.02864 385.90906,185.87239 C 385.72143,186.62238 385.01831,187.04426 383.79969,187.13802 L 284.65906,187.13802 M 515.56531,70.841141 C 516.69019,70.84125 517.44019,70.65375 517.81531,70.278641 C 518.28394,69.810001 518.94019,69.106876 519.78406,68.169266 L 523.44031,62.966141 C 524.09644,62.122508 524.84644,62.122508 525.69031,62.966141 C 528.59643,65.591255 531.45581,68.356877 534.26844,71.263016 C 535.2058,72.200623 535.62768,73.091247 535.53406,73.934891 C 535.34643,74.684996 534.6433,75.10687 533.42469,75.200516 L 474.78406,75.200516 C 472.25274,82.513113 468.54962,90.99748 463.67469,100.65364 L 501.08094,100.65364 C 502.20583,100.65372 503.09646,100.3256 503.75281,99.669266 L 507.26844,96.013016 C 507.73708,95.35685 508.39333,95.309975 509.23719,95.872391 C 512.14332,98.028723 514.6277,99.997471 516.69031,101.77864 C 517.34644,102.43497 517.39332,102.90372 516.83094,103.18489 C 514.11207,105.15372 512.61207,106.27871 512.33094,106.55989 C 511.86207,106.84121 511.6277,107.12246 511.62781,107.40364 L 511.62781,161.96614 C 511.4402,168.71615 511.6277,177.05989 512.19031,186.99739 C 512.28395,187.74738 512.0027,188.16926 511.34656,188.26302 C 509.47145,189.20051 507.64333,189.99738 505.86219,190.65364 C 505.20583,190.93488 504.87771,190.37238 504.87781,188.96614 L 504.87781,178.13802 L 439.62781,178.13802 L 439.62781,187.55989 C 439.62777,188.30988 439.34652,188.73176 438.78406,188.82552 C 436.90902,189.57551 435.0809,190.37238 433.29969,191.21614 C 432.4559,191.49738 432.0809,190.93488 432.17469,189.52864 C 432.54965,183.62239 432.78403,173.77865 432.87781,159.99739 L 432.87781,108.80989 C 432.78403,105.43497 432.54965,101.59122 432.17469,97.278641 C 431.98715,96.153724 432.0809,95.54435 432.45594,95.450516 C 432.73715,95.35685 433.2059,95.6381 433.86219,96.294266 C 434.98715,97.513098 436.67465,98.966222 438.92469,100.65364 L 460.15906,100.65364 C 460.159,100.55997 460.20588,100.46622 460.29969,100.37239 C 463.58087,90.71623 465.784,82.325613 466.90906,75.200516 L 421.90906,75.200516 C 419.37779,75.20062 416.51842,75.528745 413.33094,76.184891 C 412.86217,76.278744 412.58092,76.184994 412.48719,75.903641 C 411.26843,74.028747 410.1903,72.341248 409.25281,70.841141 C 408.6903,69.903751 409.01843,69.575626 410.23719,69.856766 C 415.95592,70.419375 419.14342,70.7475 419.79969,70.841141 L 515.56531,70.841141 M 504.87781,142.13802 L 439.62781,142.13802 L 439.62781,173.77864 L 504.87781,173.77864 L 504.87781,142.13802 M 504.87781,105.01302 L 439.62781,105.01302 L 439.62781,137.77864 L 504.87781,137.77864 L 504.87781,105.01302 M 653.94031,141.15364 L 653.94031,79.981766 C 653.84645,72.481873 653.61208,66.481879 653.23719,61.981766 C 653.14333,60.294385 653.5652,59.638136 654.50281,60.013016 C 659.7527,61.700634 663.36207,63.106882 665.33094,64.231766 C 666.36206,64.981881 666.40894,65.54438 665.47156,65.919266 C 662.56519,67.513128 661.06519,68.497502 660.97156,68.872391 C 660.78394,69.247501 660.69019,72.950623 660.69031,79.981766 L 660.69031,139.74739 L 662.37781,139.32552 C 664.62769,138.95056 665.89331,138.43493 666.17469,137.77864 L 669.54969,129.90364 C 670.11206,128.49744 671.00268,128.26307 672.22156,129.20052 C 675.50268,131.35681 678.59643,133.70056 681.50281,136.23177 C 682.53392,137.26306 683.09642,138.10681 683.19031,138.76302 C 683.19017,139.04431 682.29955,139.37243 680.51844,139.74739 L 660.69031,143.96614 L 660.69031,158.59114 C 660.69019,170.3099 660.87769,180.15364 661.25281,188.12239 C 661.25269,188.96613 660.92457,189.43488 660.26844,189.52864 L 654.08094,192.05989 C 653.23708,192.24738 652.86208,191.59113 652.95594,190.09114 C 653.51833,177.62239 653.84645,167.1224 653.94031,158.59114 L 653.94031,145.37239 L 614.00281,153.95052 C 611.47149,154.51304 608.75275,155.54429 605.84656,157.04427 C 605.4715,157.32554 605.14338,157.32554 604.86219,157.04427 C 603.36213,155.45054 602.04963,154.09117 600.92469,152.96614 C 600.08088,152.12242 600.22151,151.65367 601.34656,151.55989 C 607.25275,150.90367 610.95587,150.43492 612.45594,150.15364 L 653.94031,141.15364 M 622.86219,78.716141 C 622.39336,78.059993 622.34648,77.450618 622.72156,76.888016 C 623.09648,76.419369 623.84648,76.513119 624.97156,77.169266 C 630.78397,80.356865 635.14335,83.497487 638.04969,86.591141 C 640.01834,88.466232 641.04959,90.294355 641.14344,92.075516 C 641.42459,94.044352 640.86209,96.341224 639.45594,98.966141 C 638.23709,101.12247 637.15897,102.20059 636.22156,102.20052 C 635.28397,102.10684 634.6746,101.16934 634.39344,99.388016 C 633.5496,95.0756 632.14335,91.325604 630.17469,88.138016 C 628.39335,85.23186 625.95585,82.091238 622.86219,78.716141 M 619.90906,113.02864 C 619.53399,112.37246 619.53399,111.76308 619.90906,111.20052 C 620.28399,110.73183 621.03398,110.82558 622.15906,111.48177 C 628.06523,114.85683 632.47147,118.13808 635.37781,121.32552 C 637.34647,123.29432 638.37772,125.16932 638.47156,126.95052 C 638.75272,128.91932 638.14334,131.21619 636.64344,133.84114 C 635.51835,135.99743 634.39335,137.07556 633.26844,137.07552 C 632.2371,136.98181 631.6746,136.04431 631.58094,134.26302 C 630.7371,129.76307 629.33085,125.91932 627.36219,122.73177 C 625.58086,119.73183 623.09648,116.49745 619.90906,113.02864 M 588.69031,158.59114 C 588.69027,170.3099 588.87777,180.15364 589.25281,188.12239 C 589.25277,188.96613 588.92464,189.43488 588.26844,189.52864 L 582.08094,192.05989 C 581.23715,192.24738 580.86215,191.59113 580.95594,190.09114 C 581.5184,177.62239 581.84652,167.1224 581.94031,158.59114 L 581.94031,124.84114 C 582.87777,120.7162 583.7684,116.63808 584.61219,112.60677 C 584.7059,112.13808 584.56527,111.85683 584.19031,111.76302 C 583.62777,111.66933 583.29965,111.80996 583.20594,112.18489 C 582.36215,115.74745 581.37777,119.4037 580.25281,123.15364 C 578.09653,127.37244 575.8934,131.45056 573.64344,135.38802 C 567.64341,145.2318 560.51842,155.12242 552.26844,165.05989 C 551.42468,165.9974 550.67468,166.13803 550.01844,165.48177 C 549.45593,164.91928 549.64343,164.07553 550.58094,162.95052 C 555.45593,155.82554 560.33092,147.99742 565.20594,139.46614 C 571.29966,128.59119 576.0809,118.23183 579.54969,108.38802 L 563.09656,108.38802 C 560.5653,108.38809 557.70592,108.71621 554.51844,109.37239 C 554.04968,109.46621 553.76843,109.37246 553.67469,109.09114 C 552.45593,107.21621 551.3778,105.52872 550.44031,104.02864 C 549.87781,103.09122 550.20593,102.76309 551.42469,103.04427 C 557.14342,103.60684 560.33092,103.93497 560.98719,104.02864 L 581.94031,104.02864 L 581.94031,76.466141 C 572.84653,78.622492 564.22154,80.263115 556.06531,81.388016 C 554.47155,81.669364 553.6278,81.341239 553.53406,80.403641 C 553.4403,79.372491 553.95593,78.809992 555.08094,78.716141 C 568.01841,75.341245 578.3309,72.200623 586.01844,69.294266 C 592.58089,66.669379 598.01838,64.044382 602.33094,61.419266 C 603.45588,60.763135 604.20588,60.763135 604.58094,61.419266 C 606.45587,64.231881 608.70587,66.810004 611.33094,69.153641 C 612.17462,69.903751 612.45587,70.56 612.17469,71.122391 C 611.89337,71.591249 611.14337,71.638124 609.92469,71.263016 C 607.76837,70.981875 605.659,70.981875 603.59656,71.263016 C 600.12776,71.731874 595.15901,72.856873 588.69031,74.638016 L 588.69031,104.02864 L 597.12781,104.02864 C 598.25276,104.02872 599.00276,103.88809 599.37781,103.60677 C 599.94026,103.23184 600.54963,102.62247 601.20594,101.77864 L 604.58094,96.856766 C 605.33088,96.0131 606.034,96.0131 606.69031,96.856766 C 609.409,99.294346 612.08087,101.82559 614.70594,104.45052 C 615.73711,105.57559 616.20586,106.46621 616.11219,107.12239 C 615.92461,107.87246 615.22149,108.29434 614.00281,108.38802 L 588.69031,108.38802 L 588.69031,121.18489 C 589.06527,121.2787 589.39339,121.37245 589.67469,121.46614 C 597.26838,124.18495 603.2215,126.99744 607.53406,129.90364 C 610.62775,132.05994 612.36212,133.88806 612.73719,135.38802 C 613.20587,137.63806 612.97149,139.51306 612.03406,141.01302 C 611.00274,142.70055 610.20587,143.59118 609.64344,143.68489 C 609.08087,143.77868 608.23712,142.93493 607.11219,141.15364 C 604.39338,137.30993 601.58088,134.07556 598.67469,131.45052 C 595.20589,128.35682 591.87776,125.96619 588.69031,124.27864 L 588.69031,158.59114" transform="matrix(0.1310351,0,0,0.1310351,14.985021,107.24532)" id="text3071" style="font-size:144px;font-style:normal;font-variant:normal;font-weight:bold;font-stretch:normal;fill:#000000;fill-opacity:1;stroke:none;stroke-width:1px;stroke-linecap:butt;stroke-linejoin:miter;stroke-opacity:1;font-family:Gill Sans;-inkscape-font-specification:Gill Sans Bold"></path><text x="22.317204" y="230.32056" transform="matrix(6.6805846e-2,0,0,6.6805846e-2,31.737681,130.76773)" id="text3076" xml:space="preserve" svgjs:data="{&quot;leading&quot;:&quot;1.3&quot;}" style="font-size:144px;font-style:normal;font-variant:normal;font-weight:bold;font-stretch:normal;fill:#000000;fill-opacity:1;stroke:none;stroke-width:1px;stroke-linecap:butt;stroke-linejoin:miter;stroke-opacity:1;font-family:Gill Sans;-inkscape-font-specification:Gill Sans Bold"><tspan x="22.317204" y="230.32056" id="tspan3078" svgjs:data="{&quot;leading&quot;:&quot;1.3&quot;}" style="font-style:normal;font-variant:normal;font-weight:normal;font-stretch:normal;font-family:Linux Libertine O;-inkscape-font-specification:Linux Libertine O">自由个百科全书</tspan></text>
</svg>
</svg>