<?xml version="1.0" encoding="UTF-8" standalone="no"?>
<!-- Generator: Adobe Illustrator 14.0.0, SVG Export Plug-In . SVG Version: 6.00 Build 43363)  -->

<svg version="1.1" id="svg3857" xmlns:dc="http://purl.org/dc/elements/1.1/" xmlns:cc="http://creativecommons.org/ns#" xmlns:rdf="http://www.w3.org/1999/02/22-rdf-syntax-ns#" xmlns:svg="http://www.w3.org/2000/svg" xmlns:sodipodi="http://sodipodi.sourceforge.net/DTD/sodipodi-0.dtd" xmlns:inkscape="http://www.inkscape.org/namespaces/inkscape" inkscape:version="0.47 r22583" sodipodi:docname="Wikipedia-logo-v2-cy.svg" xmlns="http://www.w3.org/2000/svg" xmlns:xlink="http://www.w3.org/1999/xlink" x="0px" y="0px" width="135px" height="155px" viewBox="0 0 135 155" enable-background="new 0 0 135 155" xml:space="preserve">
<defs>
	
	
		<inkscape:perspective id="perspective4854" sodipodi:type="inkscape:persp3d" inkscape:vp_z="135 : 77.5 : 1" inkscape:vp_y="0 : 1000 : 0" inkscape:vp_x="0 : 77.5 : 1" inkscape:persp3d-origin="67.5 : 51.666667 : 1">
		</inkscape:perspective>
	
		<inkscape:perspective id="perspective10537" sodipodi:type="inkscape:persp3d" inkscape:vp_z="1 : 0.5 : 1" inkscape:vp_y="0 : 1000 : 0" inkscape:vp_x="0 : 0.5 : 1" inkscape:persp3d-origin="0.5 : 0.33333333 : 1">
		</inkscape:perspective>
	
		<inkscape:perspective id="perspective13111" sodipodi:type="inkscape:persp3d" inkscape:vp_z="1 : 0.5 : 1" inkscape:vp_y="0 : 1000 : 0" inkscape:vp_x="0 : 0.5 : 1" inkscape:persp3d-origin="0.5 : 0.33333333 : 1">
		</inkscape:perspective>
	
		<inkscape:perspective id="perspective25145" sodipodi:type="inkscape:persp3d" inkscape:vp_z="1 : 0.5 : 1" inkscape:vp_y="0 : 1000 : 0" inkscape:vp_x="0 : 0.5 : 1" inkscape:persp3d-origin="0.5 : 0.33333333 : 1">
		</inkscape:perspective>
	
		<inkscape:perspective id="perspective27112" sodipodi:type="inkscape:persp3d" inkscape:vp_z="1 : 0.5 : 1" inkscape:vp_y="0 : 1000 : 0" inkscape:vp_x="0 : 0.5 : 1" inkscape:persp3d-origin="0.5 : 0.33333333 : 1">
		</inkscape:perspective>
	
		<inkscape:perspective id="perspective30578" sodipodi:type="inkscape:persp3d" inkscape:vp_z="1 : 0.5 : 1" inkscape:vp_y="0 : 1000 : 0" inkscape:vp_x="0 : 0.5 : 1" inkscape:persp3d-origin="0.5 : 0.33333333 : 1">
		</inkscape:perspective>
</defs>
<sodipodi:namedview id="namedview4848" showguides="true" inkscape:cy="9.5" inkscape:cx="67.75" inkscape:zoom="5.7380952" showgrid="false" guidetolerance="10" gridtolerance="10" objecttolerance="10" borderopacity="1" bordercolor="#666666" pagecolor="#ffffff" inkscape:window-height="730" inkscape:window-width="1198" inkscape:pageshadow="2" inkscape:pageopacity="0" inkscape:window-maximized="0" inkscape:guide-bbox="true" inkscape:current-layer="svg3857" inkscape:window-y="24" inkscape:window-x="22">
	<sodipodi:guide id="globe_top" position="0,140" orientation="0,1"></sodipodi:guide>
	<sodipodi:guide id="globe_left" position="16,0" orientation="1,0"></sodipodi:guide>
	<sodipodi:guide id="globe_right" position="119,0" orientation="1,0"></sodipodi:guide>
	<sodipodi:guide id="globe_bottom" position="0,47" orientation="0,1"></sodipodi:guide>
	<sodipodi:guide id="wordmark_top" position="8,40" orientation="0,1"></sodipodi:guide>
	<sodipodi:guide id="wordmark_bottom" position="8,22.5" orientation="0,1"></sodipodi:guide>
	<sodipodi:guide id="subtitle_top" position="0,17" orientation="0,1"></sodipodi:guide>
	<sodipodi:guide id="subtitle_bottom" position="0,8" orientation="0,1"></sodipodi:guide>
	<sodipodi:guide id="wordmark_left" position="8,40" orientation="1,0"></sodipodi:guide>
	<sodipodi:guide id="wordmark_right" position="127,40" orientation="1,0"></sodipodi:guide>
</sodipodi:namedview>

<g id="text4664" transform="translate(-2.485e-5,-4.53121)">
	<g id="g4689">
		<path id="path24459" d="M20.813,121.745l-4.212,11.826h-0.108l-4.266-12.015c-0.16-0.395-0.158-0.674,0.007-0.838
			c0.164-0.164,0.558-0.281,1.181-0.351l0.459-0.054c0.068-0.012,0.121-0.035,0.159-0.068c0.038-0.031,0.057-0.082,0.057-0.148
			v-0.512l-0.054-0.055c-0.069,0.002-0.464,0.012-1.185,0.027c-0.721,0.016-1.352,0.024-1.894,0.027
			c-0.592-0.002-1.25-0.012-1.974-0.027c-0.724-0.016-1.119-0.025-1.185-0.027l-0.054,0.055v0.512
			c0.002,0.068,0.025,0.121,0.067,0.159c0.043,0.038,0.092,0.058,0.148,0.058c0.675,0.059,1.142,0.212,1.401,0.463
			c0.259,0.25,0.477,0.654,0.651,1.211l5.238,14.715c0.14,0.41,0.347,0.617,0.621,0.621c0.147,0,0.271-0.054,0.375-0.158
			c0.103-0.105,0.194-0.26,0.273-0.463l5.481-14.607c0.169-0.494,0.418-0.902,0.746-1.225c0.328-0.322,0.854-0.508,1.576-0.557
			c0.14-0.004,0.211-0.076,0.216-0.217v-0.512l-0.054-0.055c-0.044,0.002-0.34,0.012-0.888,0.027s-1.079,0.024-1.596,0.027
			c-0.584-0.002-1.211-0.012-1.88-0.027s-1.032-0.025-1.09-0.027l-0.054,0.055v0.512c0.002,0.068,0.025,0.121,0.067,0.159
			c0.043,0.038,0.092,0.058,0.148,0.058l0.432,0.027c0.51,0.018,0.88,0.13,1.11,0.337S20.991,121.241,20.813,121.745L20.813,121.745
			z"></path>
		<path id="path24477" d="M115.727,129.359c-0.295,0.002-0.496-0.023-0.602-0.074c-0.105-0.053-0.131-0.145-0.074-0.277l2.7-6.857
			h0.054l2.619,7.209H115.727z M112.729,134.867l1.566-3.915c0.059-0.173,0.151-0.293,0.28-0.36
			c0.129-0.068,0.351-0.102,0.665-0.099h5.615l1.647,4.563c0.135,0.373,0.108,0.651-0.081,0.833s-0.54,0.291-1.053,0.327
			l-0.756,0.055c-0.131,0.004-0.193,0.076-0.189,0.215V137l0.027,0.055c0.026-0.002,0.268-0.006,0.721-0.015
			c0.454-0.009,0.961-0.017,1.52-0.026c0.559-0.009,1.009-0.014,1.351-0.014c0.591,0.002,1.245,0.012,1.961,0.027
			s1.106,0.024,1.171,0.027l0.081-0.055v-0.514c-0.003-0.067-0.03-0.12-0.085-0.158c-0.053-0.037-0.115-0.057-0.186-0.057
			l-0.297-0.027c-0.531-0.047-0.953-0.189-1.262-0.429c-0.31-0.239-0.555-0.618-0.736-1.138l-5.535-14.633
			c-0.101-0.271-0.201-0.473-0.303-0.607c-0.102-0.136-0.243-0.203-0.426-0.203c-0.197-0.003-0.363,0.07-0.5,0.223
			c-0.135,0.152-0.275,0.402-0.418,0.749l-5.994,14.04c-0.365,0.836-0.748,1.379-1.146,1.63c-0.4,0.251-0.891,0.384-1.473,0.396
			c-0.139,0.004-0.211,0.076-0.215,0.215V137l0.053,0.055c0.059-0.002,0.375-0.012,0.953-0.027c0.576-0.016,1.069-0.025,1.478-0.027
			c0.249,0,0.655,0.005,1.219,0.014c0.564,0.01,1.093,0.018,1.585,0.026s0.755,0.013,0.787,0.015l0.055-0.055v-0.514
			c-0.002-0.067-0.025-0.12-0.068-0.158c-0.043-0.037-0.092-0.057-0.148-0.057l-0.783-0.055c-0.498-0.049-0.837-0.2-1.016-0.452
			C112.615,135.513,112.594,135.213,112.729,134.867L112.729,134.867z"></path>
		<path id="path4693" d="M102.697,139.319c0.143,0,0.272-0.024,0.391-0.074c0.117-0.044,0.24-0.146,0.371-0.306
			c0.136-0.154,0.247-0.369,0.334-0.641c0.092-0.266,0.166-0.643,0.223-1.132c0.061-0.482,0.092-1.052,0.092-1.707v-8.989
			c0-0.439-0.096-0.725-0.287-0.854c-0.186-0.131-0.538-0.211-1.058-0.242l-0.38-0.018c-0.118,0-0.177-0.053-0.177-0.158v-0.455
			l0.037-0.037c1.188,0.025,2.063,0.037,2.626,0.037c0.822,0,1.827-0.012,3.015-0.037l0.046,0.037v0.455
			c0,0.105-0.053,0.158-0.157,0.158l-0.325,0.018c-0.383,0.02-0.648,0.09-0.797,0.214s-0.223,0.325-0.223,0.603v8.852
			c0,1.138-0.168,2.065-0.502,2.783c-0.327,0.717-0.795,1.316-1.4,1.799c-0.371,0.311-0.813,0.526-1.326,0.65
			c-0.508,0.123-0.947,0.186-1.318,0.186s-0.705-0.035-1.002-0.103s-0.55-0.198-0.76-0.39c-0.217-0.186-0.325-0.42-0.325-0.705
			c0-0.254,0.111-0.471,0.334-0.649c0.216-0.179,0.427-0.269,0.631-0.269c0.241,0,0.452,0.037,0.631,0.111
			c0.186,0.074,0.318,0.15,0.399,0.231c0.086,0.087,0.182,0.201,0.287,0.343C102.219,139.224,102.426,139.319,102.697,139.319
			 M98.025,135.553c0,0.278,0.076,0.488,0.231,0.631c0.161,0.137,0.43,0.204,0.808,0.204h0.269c0.099,0,0.148,0.06,0.148,0.177V137
			l-0.037,0.037c-1.269-0.025-2.128-0.037-2.579-0.037l-2.588,0.037L94.24,137v-0.436c0-0.117,0.049-0.177,0.148-0.177h0.269
			c0.384,0,0.652-0.062,0.808-0.186c0.16-0.13,0.24-0.347,0.24-0.649v-9.361c0-0.303-0.08-0.516-0.24-0.64
			c-0.155-0.13-0.424-0.194-0.808-0.194h-0.269c-0.037,0-0.072-0.016-0.103-0.047s-0.046-0.068-0.046-0.111v-0.455l0.037-0.037
			c1.23,0.025,2.094,0.037,2.588,0.037l2.579-0.037l0.037,0.037v0.455c0,0.105-0.05,0.158-0.148,0.158h-0.269
			c-0.378,0-0.646,0.07-0.808,0.213c-0.155,0.137-0.231,0.344-0.231,0.621V135.553 M82.869,135.571c0,0.198,0.033,0.341,0.102,0.427
			c0.074,0.086,0.223,0.148,0.445,0.186c0.229,0.037,0.597,0.056,1.104,0.056c0.52,0,0.99-0.04,1.41-0.12
			c0.428-0.08,0.842-0.227,1.244-0.437c0.401-0.216,0.738-0.495,1.011-0.835c0.278-0.34,0.498-0.785,0.659-1.336
			c0.166-0.551,0.25-1.188,0.25-1.911c0-0.6-0.056-1.179-0.167-1.735c-0.104-0.563-0.284-1.113-0.538-1.65
			c-0.254-0.539-0.568-1.006-0.946-1.401c-0.378-0.401-0.856-0.724-1.438-0.965c-0.581-0.241-1.233-0.362-1.957-0.362
			c-0.402,0-0.699,0.044-0.891,0.131c-0.191,0.08-0.287,0.26-0.287,0.537V135.571 M79.121,137l-0.037-0.037v-0.418
			c0-0.117,0.049-0.176,0.148-0.176h0.269c0.384,0,0.652-0.062,0.808-0.186c0.16-0.13,0.24-0.346,0.24-0.649v-9.343
			c0-0.303-0.08-0.516-0.24-0.64c-0.155-0.13-0.424-0.194-0.808-0.194h-0.269c-0.037,0-0.072-0.016-0.103-0.047
			s-0.046-0.068-0.046-0.111v-0.436l0.037-0.037h5.621c1.262,0,2.419,0.287,3.471,0.862c1.057,0.575,1.886,1.354,2.486,2.338
			c0.605,0.978,0.908,2.044,0.908,3.2c0,0.897-0.139,1.698-0.417,2.403c-0.272,0.698-0.624,1.262-1.058,1.688
			s-0.946,0.779-1.54,1.058c-0.587,0.272-1.166,0.461-1.735,0.565c-0.568,0.105-1.159,0.158-1.771,0.158H79.121 M58.16,126.396v4.49
			c0.26,0.037,0.575,0.055,0.946,0.055c0.81,0,1.438-0.229,1.883-0.686c0.452-0.458,0.677-1.166,0.677-2.125
			c0-1.85-0.792-2.773-2.375-2.773c-0.464,0-0.77,0.08-0.918,0.24C58.231,125.76,58.16,126.025,58.16,126.396 M55.84,135.311v-8.952
			c0-0.625-0.216-0.947-0.649-0.965l-0.603-0.037c-0.142,0-0.213-0.053-0.213-0.158v-0.455l0.037-0.037
			c0.34,0,1.125-0.021,2.356-0.064c1.237-0.043,2.131-0.064,2.681-0.064c0.612,0,1.166,0.053,1.661,0.157
			c0.501,0.099,0.916,0.238,1.243,0.417c0.328,0.174,0.609,0.369,0.844,0.585c0.235,0.21,0.415,0.442,0.538,0.696
			s0.213,0.491,0.269,0.714c0.056,0.217,0.083,0.437,0.083,0.659c0,0.383-0.049,0.751-0.148,1.104
			c-0.093,0.353-0.26,0.702-0.501,1.049c-0.235,0.346-0.535,0.646-0.9,0.899c-0.359,0.254-0.826,0.458-1.401,0.612
			c-0.569,0.154-1.215,0.232-1.939,0.232c-0.452,0-0.798-0.021-1.039-0.064v3.674c0,0.346,0.09,0.596,0.269,0.75
			c0.179,0.155,0.467,0.252,0.863,0.289l0.362,0.036c0.105,0.024,0.158,0.083,0.158,0.177V137l-0.037,0.037
			C58.834,137.012,57.909,137,57,137c-0.786,0-1.648,0.012-2.588,0.037L54.375,137v-0.436c0-0.08,0.049-0.14,0.148-0.177
			l0.269-0.037c0.402-0.056,0.677-0.155,0.826-0.297S55.84,135.664,55.84,135.311 M50.166,135.553c0,0.278,0.077,0.488,0.232,0.631
			c0.161,0.137,0.43,0.204,0.807,0.204h0.269c0.099,0,0.148,0.06,0.148,0.177V137l-0.037,0.037
			c-1.268-0.025-2.127-0.037-2.579-0.037l-2.588,0.037L46.38,137v-0.436c0-0.117,0.049-0.177,0.148-0.177h0.269
			c0.383,0,0.652-0.062,0.807-0.186c0.161-0.13,0.241-0.347,0.241-0.649v-9.361c0-0.303-0.081-0.516-0.241-0.64
			c-0.155-0.13-0.424-0.194-0.807-0.194h-0.269c-0.037,0-0.071-0.016-0.102-0.047s-0.046-0.068-0.046-0.111v-0.455l0.037-0.037
			c1.231,0.025,2.094,0.037,2.588,0.037l2.579-0.037l0.037,0.037v0.455c0,0.105-0.049,0.158-0.148,0.158h-0.269
			c-0.377,0-0.646,0.07-0.807,0.213c-0.155,0.137-0.232,0.344-0.232,0.621V135.553 M35.418,135.553c0,0.278,0.077,0.488,0.232,0.631
			c0.161,0.137,0.43,0.204,0.807,0.204h0.269c0.099,0,0.148,0.06,0.148,0.177V137l-0.037,0.037C35.569,137.012,34.71,137,34.258,137
			l-2.588,0.037L31.632,137v-0.436c0-0.117,0.049-0.177,0.148-0.177h0.269c0.383,0,0.652-0.062,0.807-0.186
			c0.161-0.13,0.241-0.347,0.241-0.649v-9.361c0-0.303-0.081-0.516-0.241-0.64c-0.155-0.13-0.424-0.194-0.807-0.194h-0.269
			c-0.037,0-0.071-0.016-0.102-0.047s-0.046-0.068-0.046-0.111v-0.455l0.037-0.037c1.231,0.025,2.094,0.037,2.588,0.037l2.561-0.037
			l0.037,0.037v0.455c0,0.105-0.043,0.158-0.13,0.158h-0.288c-0.377,0-0.643,0.067-0.798,0.203
			c-0.148,0.137-0.223,0.348-0.223,0.631v3.813l3.952-3.702c0.074-0.074,0.146-0.157,0.213-0.25s0.121-0.191,0.158-0.297
			c0.043-0.105,0.037-0.191-0.019-0.26s-0.167-0.102-0.334-0.102c-0.507,0-0.761-0.078-0.761-0.232v-0.398l0.074-0.057
			c1.2,0.025,2.047,0.037,2.542,0.037l2.227-0.037l0.093,0.057v0.398c0,0.137-0.188,0.213-0.566,0.232
			c-0.668,0.105-1.392,0.528-2.171,1.271l-2.941,2.663c-0.408,0.377-0.643,0.648-0.705,0.816c-0.062,0.166,0.003,0.355,0.195,0.565
			l4.537,4.824c0.513,0.544,0.9,0.816,1.16,0.816h0.343c0.093,0,0.161,0.009,0.204,0.028c0.049,0.018,0.077,0.043,0.083,0.074
			c0.012,0.03,0.019,0.074,0.019,0.129V137l-0.065,0.037C42.493,137.012,41.67,137,41.188,137l-1.503,0.037l-0.074-0.074v-0.492
			c0-0.148-0.003-0.256-0.009-0.324s-0.031-0.148-0.074-0.241c-0.043-0.093-0.111-0.183-0.204-0.269l-3.906-4.222V135.553
			 M27.423,135.553c0,0.278,0.077,0.488,0.232,0.631c0.161,0.137,0.43,0.204,0.807,0.204h0.269c0.099,0,0.148,0.06,0.148,0.177V137
			l-0.037,0.037c-1.268-0.025-2.127-0.037-2.579-0.037l-2.588,0.037L23.638,137v-0.436c0-0.117,0.049-0.177,0.148-0.177h0.269
			c0.383,0,0.652-0.062,0.807-0.186c0.161-0.13,0.241-0.347,0.241-0.649v-9.361c0-0.303-0.081-0.516-0.241-0.64
			c-0.155-0.13-0.424-0.194-0.807-0.194h-0.269c-0.037,0-0.071-0.016-0.102-0.047s-0.046-0.068-0.046-0.111v-0.455l0.037-0.037
			c1.231,0.025,2.094,0.037,2.588,0.037l2.579-0.037l0.037,0.037v0.455c0,0.105-0.049,0.158-0.148,0.158h-0.269
			c-0.377,0-0.646,0.07-0.807,0.213c-0.155,0.137-0.232,0.344-0.232,0.621V135.553 M74.283,123.131h-5.205
			c-0.191,0-0.287-0.115-0.287-0.344c0-0.123,0.049-0.254,0.148-0.39c0.099-0.142,0.207-0.214,0.324-0.214h5.242
			c0.18,0,0.27,0.105,0.27,0.316c0,0.136-0.053,0.275-0.158,0.417C74.518,123.059,74.406,123.131,74.283,123.131 M66.963,137
			l-0.056-0.037v-0.418c0-0.117,0.052-0.176,0.158-0.176h0.26c0.383,0,0.652-0.062,0.808-0.186c0.16-0.13,0.24-0.346,0.24-0.649
			v-9.343c0-0.303-0.08-0.516-0.24-0.64c-0.155-0.13-0.424-0.194-0.808-0.194h-0.26c-0.043,0-0.081-0.016-0.111-0.047
			c-0.031-0.031-0.046-0.068-0.046-0.111v-0.436l0.056-0.037h8.86c0.074,1.088,0.207,2.115,0.399,3.08l-0.762,0.166
			c-0.068-0.24-0.133-0.447-0.194-0.621c-0.056-0.18-0.143-0.387-0.26-0.621c-0.118-0.235-0.245-0.428-0.38-0.576
			c-0.131-0.154-0.301-0.283-0.511-0.389c-0.204-0.111-0.427-0.168-0.668-0.168h-2.478c-0.173,0-0.26,0.186-0.26,0.557v3.906h2.144
			c0.111,0,0.204-0.027,0.278-0.084c0.08-0.061,0.145-0.166,0.195-0.314c0.049-0.148,0.083-0.281,0.102-0.399
			c0.024-0.118,0.056-0.3,0.093-0.548c0-0.043,0.028-0.086,0.083-0.129c0.063-0.05,0.137-0.074,0.223-0.074h0.399l0.111,0.186
			c-0.087,0.711-0.13,1.299-0.13,1.762c0,0.428,0.043,1.018,0.13,1.772l-0.111,0.167h-0.399c-0.092,0-0.166-0.019-0.223-0.056
			c-0.055-0.044-0.083-0.087-0.083-0.13c-0.037-0.248-0.068-0.43-0.093-0.547c-0.019-0.124-0.053-0.26-0.102-0.408
			c-0.051-0.148-0.115-0.251-0.195-0.307c-0.074-0.063-0.167-0.093-0.278-0.093h-2.144v4.713c0,0.21,0.021,0.355,0.065,0.437
			c0.043,0.08,0.108,0.12,0.194,0.12h2.914c0.494,0,0.914-0.231,1.262-0.696c0.352-0.47,0.615-1.082,0.788-1.836l0.816,0.194
			c-0.223,1.188-0.394,2.257-0.511,3.21H66.963"></path>
	</g>
</g>
<g id="text4694" transform="translate(-0.04445265,-3.92282)">
	<path id="path4699" d="M11.073,143.593v2.646h0.965c1.244,0,1.866-0.497,1.866-1.492c0-0.313-0.053-0.586-0.159-0.818
		c-0.105-0.236-0.248-0.416-0.425-0.539c-0.173-0.123-0.353-0.212-0.54-0.268c-0.186-0.059-0.378-0.088-0.578-0.088
		c-0.19,0-0.349,0.004-0.476,0.012c-0.127,0.004-0.232,0.02-0.317,0.045c-0.084,0.021-0.15,0.043-0.197,0.063
		c-0.042,0.017-0.074,0.053-0.095,0.108c-0.021,0.051-0.034,0.097-0.038,0.139C11.076,143.44,11.074,143.503,11.073,143.593
		 M11.074,146.684v3.301c0,0.224,0.07,0.381,0.209,0.47c0.144,0.084,0.434,0.127,0.87,0.127c0.478,0,0.878-0.043,1.2-0.127
		c0.321-0.089,0.565-0.216,0.73-0.381c0.165-0.17,0.279-0.35,0.343-0.539c0.063-0.195,0.095-0.422,0.095-0.68
		c0-0.301-0.051-0.578-0.152-0.832c-0.102-0.258-0.252-0.486-0.451-0.686c-0.199-0.203-0.466-0.361-0.8-0.476
		c-0.334-0.118-0.717-0.178-1.149-0.178H11.074 M8.865,150.753c0-0.068,0.029-0.102,0.089-0.102l0.394-0.025
		c0.283-0.021,0.465-0.063,0.546-0.121c0.084-0.063,0.127-0.205,0.127-0.426v-6.544c0-0.216-0.042-0.355-0.127-0.419
		c-0.081-0.063-0.263-0.105-0.546-0.127l-0.394-0.025c-0.06,0-0.089-0.029-0.089-0.089v-0.261l0.025-0.025
		c0.813,0.018,1.362,0.025,1.65,0.025c0.178,0,0.446-0.004,0.806-0.012c0.364-0.008,0.62-0.014,0.768-0.014
		c1.862,0,2.793,0.667,2.793,2c0,0.338-0.117,0.664-0.349,0.978c-0.233,0.313-0.519,0.556-0.857,0.729v0.025
		c0.605,0.174,1.085,0.451,1.441,0.832c0.355,0.377,0.533,0.861,0.533,1.453c0,0.237-0.03,0.466-0.089,0.686
		c-0.06,0.217-0.167,0.432-0.324,0.648c-0.157,0.215-0.355,0.401-0.597,0.559c-0.237,0.156-0.55,0.283-0.939,0.381
		c-0.385,0.097-0.828,0.146-1.327,0.146c-0.44,0-0.83-0.004-1.168-0.013C10.894,151.005,10.663,151,10.54,151
		c-0.288,0-0.838,0.009-1.65,0.025L8.864,151L8.865,150.753"></path>
	<path id="path4701" d="M18.472,150.067v-3.238c0-0.305-0.023-0.512-0.07-0.621c-0.046-0.11-0.118-0.172-0.216-0.185l-0.559-0.058
		l-0.032-0.311c0.838-0.127,1.437-0.26,1.796-0.4c0.034,0,0.051,0.014,0.051,0.039l-0.038,1.168h0.038
		c0.525-0.779,1.033-1.168,1.523-1.168c0.487,0,0.73,0.199,0.73,0.596c0,0.17-0.051,0.303-0.152,0.4s-0.239,0.146-0.413,0.146
		c-0.203,0-0.378-0.078-0.527-0.235c-0.08-0.076-0.167-0.114-0.26-0.114c-0.076,0-0.182,0.06-0.317,0.178
		c-0.135,0.119-0.277,0.283-0.425,0.495c-0.105,0.136-0.159,0.288-0.159,0.457v2.851c0,0.189,0.042,0.328,0.127,0.412
		c0.085,0.084,0.229,0.133,0.432,0.146l0.381,0.025c0.076,0,0.114,0.033,0.114,0.102V151l-0.025,0.025
		c-0.643-0.017-1.155-0.025-1.536-0.025c-0.258,0-0.708,0.009-1.352,0.025L17.57,151v-0.247c0-0.055,0.032-0.09,0.095-0.102
		l0.248-0.025c0.212-0.021,0.358-0.072,0.438-0.152C18.432,150.389,18.472,150.253,18.472,150.067"></path>
	<path id="path4703" d="M25.807,144.005h-2.863c-0.093,0-0.14-0.065-0.14-0.197c0-0.08,0.025-0.162,0.076-0.247
		c0.055-0.085,0.112-0.127,0.171-0.127h2.869c0.055,0,0.098,0.019,0.127,0.058c0.03,0.037,0.044,0.08,0.044,0.127
		c0,0.084-0.029,0.171-0.089,0.26C25.949,143.962,25.883,144.005,25.807,144.005 M25.172,145.294
		c-0.029,0.588-0.044,1.1-0.044,1.535v3.238c0,0.186,0.041,0.321,0.121,0.406c0.085,0.08,0.229,0.131,0.432,0.152l0.241,0.025
		c0.081,0.012,0.121,0.046,0.121,0.102V151l-0.025,0.025c-0.694-0.017-1.157-0.025-1.39-0.025c-0.207,0-0.658,0.009-1.352,0.025
		L23.249,151v-0.247c0-0.055,0.034-0.09,0.102-0.102l0.248-0.025c0.22-0.029,0.368-0.083,0.444-0.159
		c0.076-0.081,0.114-0.214,0.114-0.399v-3.238c0-0.309-0.023-0.516-0.069-0.621c-0.042-0.11-0.115-0.172-0.216-0.185l-0.559-0.058
		l-0.025-0.311c0.872-0.131,1.481-0.264,1.829-0.4C25.153,145.255,25.172,145.269,25.172,145.294"></path>
	<path id="path4705-9" d="M31.491,145.776c-0.029,0-0.055-0.008-0.076-0.025c-0.017-0.021-0.025-0.045-0.025-0.07v-0.26l0.025-0.025
		c0.644,0.017,1.06,0.025,1.25,0.025c0.123,0,0.417-0.008,0.882-0.025l0.025,0.025v0.234c0,0.063-0.046,0.104-0.14,0.121
		c-0.207,0.021-0.383,0.08-0.527,0.178c-0.144,0.098-0.264,0.262-0.362,0.494l-1.79,4.406c-0.089,0.203-0.192,0.305-0.311,0.305
		c-0.084,0-0.15-0.021-0.197-0.064c-0.046-0.037-0.091-0.107-0.133-0.209l-1.765-4.488c-0.084-0.215-0.192-0.365-0.324-0.45
		c-0.131-0.085-0.3-0.142-0.508-0.171c-0.089-0.018-0.133-0.049-0.133-0.096v-0.26l0.039-0.025c0.643,0.017,1.021,0.025,1.136,0.025
		c0.229,0,0.66-0.008,1.295-0.025l0.058,0.025v0.247c0,0.071-0.041,0.108-0.121,0.108l-0.222,0.025
		c-0.187,0.021-0.294,0.084-0.324,0.189c-0.025,0.106,0,0.233,0.076,0.381l1.124,2.832l0.216,0.603l0.222-0.559l1.155-2.851
		c0.102-0.254,0.121-0.414,0.058-0.482C32.031,145.844,31.83,145.798,31.491,145.776"></path>
	<path id="path4707" d="M38.439,147.972l-1.028,0.273c-0.838,0.229-1.257,0.705-1.257,1.428c0,0.233,0.085,0.447,0.254,0.642
		c0.169,0.19,0.404,0.286,0.705,0.286c0.296,0,0.677-0.189,1.143-0.565c0.123-0.085,0.184-0.196,0.184-0.337V147.972
		 M38.439,150.378h-0.025l-0.26,0.203c-0.288,0.225-0.522,0.371-0.705,0.438c-0.178,0.072-0.415,0.108-0.711,0.108
		c-0.491,0-0.882-0.112-1.174-0.337c-0.292-0.224-0.438-0.579-0.438-1.066c0-0.432,0.193-0.813,0.578-1.143
		c0.39-0.334,0.904-0.582,1.542-0.742l1.117-0.273c0.051-0.016,0.076-0.066,0.076-0.152c0-0.283-0.023-0.531-0.07-0.742
		c-0.046-0.216-0.104-0.385-0.171-0.508c-0.067-0.123-0.152-0.221-0.254-0.292c-0.097-0.076-0.19-0.127-0.279-0.152
		c-0.084-0.025-0.178-0.038-0.279-0.038c-0.279,0-0.529,0.051-0.749,0.152c-0.22,0.102-0.33,0.248-0.33,0.438
		c0,0.119,0.009,0.203,0.025,0.254c0.025,0.056,0.038,0.134,0.039,0.235c0,0.102-0.053,0.198-0.159,0.292
		c-0.102,0.094-0.239,0.14-0.412,0.14c-0.301,0-0.451-0.152-0.451-0.457c0-0.229,0.104-0.455,0.312-0.679
		c0.207-0.225,0.478-0.406,0.813-0.547c0.334-0.144,0.672-0.215,1.016-0.215c0.207,0,0.396,0.017,0.564,0.051
		c0.174,0.033,0.347,0.1,0.521,0.196c0.174,0.093,0.317,0.218,0.432,0.374c0.119,0.157,0.214,0.371,0.286,0.642
		c0.076,0.267,0.114,0.577,0.114,0.933v1.937c0,0.122,0,0.222,0,0.298c0.004,0.072,0.01,0.159,0.019,0.261
		c0.013,0.097,0.03,0.176,0.051,0.235c0.021,0.055,0.049,0.111,0.083,0.171c0.038,0.06,0.087,0.102,0.146,0.127
		c0.063,0.025,0.136,0.038,0.216,0.038c0.093,0,0.169-0.018,0.229-0.051c0.06-0.033,0.104-0.068,0.133-0.102
		c0.03-0.033,0.053-0.051,0.07-0.051c0.025,0,0.055,0.021,0.089,0.063c0.038,0.042,0.057,0.085,0.057,0.127
		c0,0.017-0.017,0.046-0.051,0.089c-0.034,0.043-0.084,0.092-0.152,0.146c-0.063,0.055-0.137,0.109-0.222,0.164
		c-0.084,0.051-0.186,0.094-0.305,0.127c-0.114,0.039-0.23,0.058-0.349,0.058C38.905,151.127,38.579,150.878,38.439,150.378"></path>
	<path id="path4709" d="M47.294,147.268h2.387c0.123,0,0.184-0.06,0.184-0.178c0-0.259-0.034-0.479-0.102-0.667
		c-0.063-0.186-0.152-0.325-0.267-0.418c-0.11-0.098-0.224-0.166-0.343-0.203c-0.114-0.043-0.237-0.064-0.368-0.064
		c-0.084,0-0.169,0.006-0.254,0.02c-0.08,0.008-0.19,0.043-0.33,0.102c-0.14,0.055-0.264,0.133-0.375,0.234
		c-0.105,0.102-0.211,0.254-0.317,0.457C47.409,146.753,47.337,146.993,47.294,147.268 M50.722,149.763
		c0.136,0.012,0.222,0.082,0.26,0.209c-0.258,0.355-0.575,0.637-0.952,0.844c-0.376,0.208-0.791,0.312-1.244,0.312
		c-0.846,0-1.487-0.254-1.923-0.762c-0.432-0.508-0.647-1.159-0.647-1.955c0-0.474,0.076-0.911,0.229-1.313s0.352-0.732,0.597-0.99
		c0.246-0.258,0.519-0.457,0.819-0.598c0.305-0.143,0.614-0.215,0.927-0.215c0.33,0,0.622,0.044,0.876,0.133s0.457,0.205,0.609,0.35
		c0.157,0.139,0.284,0.311,0.381,0.514c0.098,0.203,0.163,0.406,0.197,0.609c0.038,0.203,0.057,0.422,0.057,0.654
		c0,0.148-0.078,0.222-0.235,0.222H47.25c0,0.372,0.041,0.716,0.121,1.028c0.085,0.309,0.19,0.564,0.317,0.768
		c0.131,0.203,0.279,0.377,0.444,0.521c0.169,0.139,0.334,0.24,0.495,0.305c0.161,0.063,0.317,0.095,0.47,0.095
		c0.352,0,0.652-0.058,0.901-0.171C50.249,150.202,50.49,150.017,50.722,149.763"></path>
	<path id="path4711" d="M54.49,145.294l-0.038,1.154h0.038c0.385-0.452,0.741-0.757,1.066-0.914c0.33-0.16,0.682-0.24,1.054-0.24
		c0.283,0,0.52,0.051,0.711,0.152c0.194,0.102,0.342,0.252,0.444,0.45c0.101,0.194,0.171,0.409,0.209,0.642
		c0.042,0.229,0.063,0.499,0.063,0.813v2.717c0,0.186,0.041,0.321,0.121,0.406c0.08,0.08,0.222,0.131,0.425,0.152l0.248,0.025
		c0.076,0.017,0.114,0.051,0.114,0.102V151l-0.025,0.025C58.227,151.009,57.763,151,57.53,151c-0.165,0-0.594,0.009-1.288,0.025
		L56.216,151v-0.247c0-0.055,0.036-0.09,0.108-0.102l0.178-0.025c0.216-0.034,0.362-0.09,0.438-0.166
		c0.081-0.08,0.121-0.211,0.121-0.393v-2.813c0-0.482-0.059-0.825-0.178-1.028c-0.114-0.208-0.336-0.312-0.667-0.312
		c-0.3,0-0.584,0.074-0.851,0.223s-0.559,0.408-0.876,0.781v3.148c0,0.186,0.038,0.316,0.114,0.393
		c0.081,0.076,0.229,0.132,0.444,0.166l0.184,0.025c0.068,0.012,0.102,0.046,0.102,0.102V151l-0.025,0.025
		c-0.694-0.017-1.136-0.025-1.327-0.025c-0.207,0-0.658,0.009-1.352,0.025L52.605,151v-0.247c0-0.055,0.034-0.09,0.102-0.102
		l0.248-0.025c0.216-0.021,0.362-0.072,0.438-0.152c0.081-0.08,0.121-0.217,0.121-0.406v-3.238c0-0.309-0.023-0.516-0.07-0.621
		c-0.042-0.11-0.114-0.172-0.216-0.185l-0.559-0.058l-0.025-0.311c0.83-0.127,1.428-0.26,1.796-0.4
		C54.473,145.255,54.49,145.269,54.49,145.294"></path>
	<path id="path4713" d="M65.284,149.819c-0.207,0.343-0.432,0.613-0.673,0.813c-0.237,0.199-0.467,0.33-0.691,0.394
		c-0.22,0.067-0.472,0.102-0.756,0.102c-0.804,0-1.43-0.259-1.879-0.774c-0.444-0.516-0.666-1.201-0.666-2.057
		c0-0.449,0.074-0.863,0.222-1.244c0.148-0.381,0.347-0.698,0.597-0.952c0.25-0.254,0.536-0.45,0.857-0.591
		c0.326-0.143,0.664-0.215,1.016-0.215c0.596,0,1.068,0.131,1.415,0.393c0.347,0.259,0.521,0.57,0.521,0.934
		c0,0.174-0.063,0.311-0.19,0.412c-0.127,0.098-0.267,0.146-0.419,0.146c-0.279,0-0.436-0.152-0.47-0.457
		c-0.017-0.135-0.038-0.248-0.063-0.336c-0.025-0.094-0.07-0.195-0.133-0.305c-0.06-0.115-0.15-0.199-0.273-0.254
		c-0.123-0.06-0.275-0.09-0.457-0.09c-0.44,0-0.804,0.205-1.092,0.616c-0.283,0.406-0.425,0.958-0.425,1.657
		c0,0.753,0.161,1.366,0.482,1.84c0.326,0.471,0.74,0.705,1.244,0.705c0.283,0,0.564-0.08,0.844-0.241
		c0.279-0.165,0.519-0.392,0.718-0.679C65.147,149.652,65.238,149.714,65.284,149.819"></path>
	<path id="path4715" d="M67.82,144.03c-0.123-0.123-0.184-0.269-0.184-0.438c0-0.17,0.061-0.316,0.184-0.438
		c0.123-0.127,0.269-0.19,0.439-0.19c0.168,0,0.314,0.062,0.438,0.184c0.127,0.123,0.189,0.271,0.189,0.445
		c0,0.169-0.063,0.314-0.189,0.438c-0.123,0.123-0.27,0.184-0.438,0.184C68.089,144.214,67.943,144.153,67.82,144.03
		 M68.861,145.294c-0.029,0.588-0.044,1.1-0.043,1.535v3.238c0,0.186,0.039,0.321,0.119,0.406c0.086,0.08,0.229,0.131,0.432,0.152
		l0.242,0.025c0.08,0.012,0.121,0.046,0.121,0.102V151l-0.025,0.025c-0.695-0.017-1.158-0.025-1.391-0.025
		c-0.207,0-0.658,0.009-1.352,0.025L66.938,151v-0.247c0-0.055,0.034-0.09,0.102-0.102l0.247-0.025
		c0.22-0.029,0.368-0.083,0.444-0.159c0.076-0.081,0.114-0.214,0.114-0.399v-3.238c0-0.309-0.023-0.516-0.07-0.621
		c-0.042-0.11-0.114-0.172-0.216-0.185l-0.559-0.058l-0.025-0.311c0.872-0.131,1.481-0.264,1.828-0.4
		C68.842,145.255,68.861,145.269,68.861,145.294"></path>
	<path id="path4717" d="M72.14,143.681c0-0.401-0.029-0.67-0.088-0.806c-0.061-0.14-0.16-0.21-0.299-0.21l-0.42-0.025
		c-0.051,0-0.076-0.021-0.076-0.063l-0.025-0.312c0.268-0.021,0.584-0.067,0.953-0.14c0.372-0.072,0.639-0.14,0.799-0.203
		c0.115,0,0.172,0.045,0.172,0.133c-0.025,0.348-0.038,0.803-0.038,1.365v4.5c0.339-0.084,0.905-0.563,1.701-1.434
		c0.051-0.051,0.098-0.106,0.14-0.166c0.047-0.063,0.087-0.137,0.121-0.222c0.033-0.085,0.015-0.157-0.058-0.216
		c-0.067-0.063-0.192-0.1-0.374-0.107c-0.068,0-0.102-0.037-0.102-0.108v-0.247c0.025-0.008,0.037-0.018,0.037-0.025
		c0.645,0.017,1.031,0.025,1.162,0.025c0.11,0,0.486-0.008,1.131-0.025l0.051,0.025v0.247c-0.001,0.056-0.049,0.091-0.146,0.108
		l-0.09,0.012c-0.193,0.03-0.414,0.1-0.66,0.21c-0.24,0.11-0.438,0.243-0.59,0.399l-0.984,1.092
		c-0.033,0.035-0.051,0.078-0.051,0.134c0,0.063,0.021,0.122,0.064,0.178l1.518,2.247c0.109,0.165,0.253,0.297,0.432,0.394
		c0.177,0.097,0.359,0.163,0.545,0.196l0.09,0.014c0.08,0.012,0.119,0.046,0.119,0.102V151l-0.025,0.025
		c-0.523-0.017-0.893-0.025-1.104-0.025c-0.237,0-0.529,0.009-0.877,0.025L75.13,151v-0.247c0-0.178-0.1-0.413-0.299-0.705
		l-0.945-1.333c-0.127-0.187-0.246-0.312-0.355-0.374c-0.105-0.064-0.244-0.096-0.412-0.096v1.822c0,0.22,0.046,0.367,0.139,0.443
		c0.094,0.072,0.242,0.119,0.445,0.141c0.066,0,0.102,0.033,0.102,0.102V151l-0.025,0.025c-0.678-0.017-1.066-0.025-1.168-0.025
		c-0.03,0-0.477,0.009-1.34,0.025L71.246,151v-0.247c0-0.055,0.029-0.09,0.088-0.102l0.248-0.025
		c0.217-0.021,0.361-0.072,0.438-0.152c0.081-0.08,0.121-0.217,0.121-0.406V143.681"></path>
	<path id="path4719" d="M79.457,150.067v-6.387c0-0.401-0.031-0.67-0.096-0.806c-0.059-0.14-0.158-0.21-0.299-0.21l-0.412-0.025
		c-0.055,0-0.082-0.021-0.082-0.063l-0.025-0.312c0.271-0.021,0.59-0.065,0.959-0.134c0.367-0.071,0.635-0.141,0.799-0.209
		c0.11,0,0.166,0.045,0.166,0.133c-0.025,0.348-0.039,0.803-0.039,1.365v6.646c0,0.189,0.038,0.325,0.115,0.406
		c0.076,0.08,0.219,0.131,0.432,0.152l0.311,0.025c0.072,0,0.107,0.033,0.107,0.102V151l-0.025,0.025
		c-0.871-0.017-1.354-0.025-1.447-0.025c-0.08,0-0.553,0.009-1.416,0.025L78.492,151v-0.247c0-0.068,0.029-0.102,0.088-0.102
		l0.312-0.025c0.216-0.021,0.364-0.072,0.444-0.152S79.457,150.257,79.457,150.067"></path>
	<path id="path4721" d="M83.066,148.334c0-0.909,0.236-1.644,0.711-2.202c0.473-0.559,1.133-0.838,1.98-0.838
		c0.371,0,0.711,0.059,1.016,0.178c0.304,0.113,0.556,0.268,0.754,0.463c0.203,0.19,0.373,0.414,0.508,0.673
		c0.141,0.254,0.24,0.517,0.299,0.787c0.06,0.271,0.089,0.546,0.09,0.825c-0.001,0.338-0.059,0.676-0.172,1.01
		c-0.11,0.33-0.271,0.639-0.482,0.926c-0.207,0.289-0.489,0.523-0.844,0.705c-0.356,0.178-0.754,0.267-1.193,0.267
		c-0.42,0-0.803-0.083-1.15-0.247c-0.346-0.166-0.627-0.383-0.844-0.654c-0.215-0.271-0.383-0.568-0.502-0.895
		C83.123,149.005,83.066,148.673,83.066,148.334 M85.611,145.726c-0.33,0-0.607,0.118-0.832,0.355
		c-0.225,0.232-0.383,0.516-0.477,0.85c-0.088,0.335-0.133,0.703-0.133,1.105c0,0.211,0.02,0.434,0.057,0.666
		c0.043,0.229,0.111,0.463,0.203,0.705c0.094,0.24,0.206,0.457,0.338,0.646c0.131,0.191,0.297,0.348,0.5,0.471
		c0.208,0.118,0.435,0.178,0.68,0.178c0.165,0,0.32-0.027,0.463-0.083c0.148-0.06,0.293-0.159,0.432-0.298
		c0.145-0.145,0.259-0.359,0.344-0.648c0.084-0.287,0.127-0.635,0.127-1.041c0-0.943-0.148-1.662-0.445-2.158
		C86.572,145.976,86.152,145.726,85.611,145.726"></path>
	<path id="path4723" d="M91.904,146.956v3.174c0.318,0.373,0.678,0.559,1.08,0.559c0.266,0,0.504-0.049,0.711-0.146
		c0.211-0.102,0.381-0.23,0.508-0.388c0.127-0.156,0.23-0.342,0.311-0.559c0.085-0.215,0.143-0.43,0.172-0.641
		s0.045-0.432,0.045-0.66c-0.001-0.715-0.145-1.295-0.432-1.739c-0.284-0.444-0.631-0.667-1.041-0.667
		c-0.238,0-0.49,0.098-0.756,0.293C92.239,146.372,92.041,146.631,91.904,146.956 M90.933,146.829c0-0.305-0.023-0.512-0.07-0.621
		c-0.046-0.11-0.117-0.172-0.215-0.185l-0.559-0.058l-0.025-0.311c0.809-0.123,1.404-0.256,1.789-0.4
		c0.035,0,0.051,0.014,0.051,0.039l-0.037,1.041h0.037c0.457-0.694,1.027-1.041,1.709-1.041c0.406,0,0.777,0.125,1.117,0.374
		c0.338,0.249,0.6,0.577,0.787,0.983c0.186,0.406,0.279,0.838,0.279,1.295c0,1.021-0.305,1.84-0.914,2.457
		c-0.479,0.482-1.084,0.724-1.816,0.724c-0.418,0-0.807-0.095-1.162-0.286v2.254c0,0.182,0.041,0.313,0.121,0.394
		c0.085,0.085,0.227,0.136,0.426,0.152l0.248,0.025c0.08,0.013,0.119,0.046,0.119,0.102v0.247l-0.025,0.025
		c-0.643-0.016-1.105-0.025-1.389-0.025c-0.268,0-0.719,0.009-1.354,0.025l-0.031-0.025v-0.247c0-0.055,0.036-0.089,0.107-0.102
		l0.248-0.025c0.207-0.017,0.352-0.067,0.432-0.152c0.085-0.081,0.127-0.212,0.127-0.394V146.829"></path>
	<path id="path4725" d="M101.779,144.005h-3.174c-0.055,0-0.098-0.02-0.127-0.057c-0.029-0.043-0.045-0.09-0.045-0.141
		c0-0.08,0.029-0.162,0.09-0.247c0.063-0.085,0.129-0.127,0.195-0.127h3.188c0.059,0,0.104,0.019,0.133,0.058
		c0.034,0.037,0.051,0.08,0.051,0.127c0,0.08-0.033,0.164-0.102,0.254C101.924,143.96,101.855,144.005,101.779,144.005
		 M98.789,147.268h2.387c0.123,0,0.184-0.06,0.184-0.178c0-0.259-0.033-0.479-0.102-0.667c-0.063-0.186-0.152-0.325-0.266-0.418
		c-0.11-0.098-0.225-0.166-0.344-0.203c-0.113-0.043-0.236-0.064-0.367-0.064c-0.085,0-0.17,0.006-0.254,0.02
		c-0.08,0.008-0.191,0.043-0.33,0.102c-0.141,0.055-0.265,0.133-0.375,0.234c-0.105,0.102-0.211,0.254-0.316,0.457
		C98.904,146.753,98.832,146.993,98.789,147.268 M102.216,149.763c0.136,0.012,0.223,0.082,0.26,0.209
		c-0.258,0.355-0.574,0.637-0.951,0.844c-0.377,0.208-0.791,0.312-1.244,0.312c-0.847,0-1.488-0.254-1.924-0.762
		c-0.432-0.508-0.646-1.159-0.646-1.955c0-0.474,0.076-0.911,0.229-1.313s0.351-0.732,0.596-0.99
		c0.246-0.258,0.519-0.457,0.818-0.598c0.305-0.143,0.614-0.215,0.928-0.215c0.33,0,0.621,0.044,0.875,0.133s0.457,0.205,0.609,0.35
		c0.157,0.139,0.284,0.311,0.381,0.514c0.098,0.203,0.164,0.406,0.197,0.609c0.039,0.203,0.057,0.422,0.057,0.654
		c0,0.148-0.078,0.222-0.234,0.222h-3.422c0,0.372,0.041,0.716,0.121,1.028c0.085,0.309,0.19,0.564,0.317,0.768
		c0.132,0.203,0.279,0.377,0.444,0.521c0.17,0.139,0.334,0.24,0.495,0.305c0.161,0.063,0.317,0.095,0.47,0.095
		c0.352,0,0.652-0.058,0.901-0.171C101.743,150.202,101.984,150.017,102.216,149.763"></path>
	<path id="path4727-9" d="M108.283,149.774v-3.262c-0.166-0.258-0.346-0.449-0.541-0.572c-0.193-0.127-0.438-0.189-0.729-0.189
		c-0.521,0-0.925,0.215-1.212,0.646c-0.242,0.348-0.362,0.924-0.361,1.727c-0.001,0.762,0.139,1.353,0.418,1.771
		c0.283,0.414,0.615,0.622,0.996,0.622C107.193,150.518,107.668,150.27,108.283,149.774 M109.259,143.421v6.068
		c0,0.322,0.02,0.525,0.057,0.609c0.039,0.084,0.127,0.133,0.268,0.146l0.628,0.063l0.038,0.305
		c-0.842,0.148-1.396,0.33-1.663,0.547h-0.305l0.032-0.914l-0.032-0.014c-0.736,0.598-1.324,0.896-1.765,0.896
		c-0.686,0-1.221-0.256-1.605-0.769c-0.385-0.512-0.578-1.178-0.578-1.999c0-0.944,0.29-1.706,0.869-2.285
		c0.275-0.263,0.565-0.457,0.87-0.584c0.31-0.132,0.669-0.196,1.079-0.196c0.145,0,0.332,0.027,0.564,0.082
		c0.238,0.055,0.426,0.123,0.565,0.203v-1.898c0-0.401-0.029-0.67-0.089-0.806c-0.059-0.14-0.158-0.21-0.299-0.21l-0.418-0.025
		c-0.051,0-0.076-0.021-0.076-0.063l-0.025-0.312c0.271-0.021,0.59-0.065,0.958-0.134c0.368-0.071,0.635-0.141,0.8-0.209
		c0.11,0,0.165,0.045,0.165,0.133C109.272,142.403,109.259,142.858,109.259,143.421"></path>
	<path id="path4729" d="M112.677,144.03c-0.122-0.123-0.184-0.269-0.184-0.438c0-0.17,0.062-0.316,0.184-0.438
		c0.123-0.127,0.27-0.19,0.439-0.19c0.168,0,0.314,0.062,0.438,0.184c0.127,0.123,0.189,0.271,0.189,0.445
		c0,0.169-0.063,0.314-0.189,0.438c-0.123,0.123-0.27,0.184-0.438,0.184C112.947,144.214,112.8,144.153,112.677,144.03
		 M113.718,145.294c-0.029,0.588-0.043,1.1-0.043,1.535v3.238c0,0.186,0.039,0.321,0.12,0.406c0.085,0.08,0.229,0.131,0.432,0.152
		l0.241,0.025c0.08,0.012,0.121,0.046,0.121,0.102V151l-0.025,0.025c-0.695-0.017-1.158-0.025-1.391-0.025
		c-0.207,0-0.658,0.009-1.352,0.025L111.796,151v-0.247c0-0.055,0.033-0.09,0.102-0.102l0.247-0.025
		c0.22-0.029,0.368-0.083,0.444-0.159c0.076-0.081,0.114-0.214,0.114-0.399v-3.238c0-0.309-0.023-0.516-0.069-0.621
		c-0.043-0.11-0.115-0.172-0.217-0.185l-0.559-0.058l-0.025-0.311c0.872-0.131,1.481-0.264,1.828-0.4
		C113.701,145.255,113.719,145.269,113.718,145.294"></path>
	<path id="path4731" d="M117.328,144.03c-0.123-0.123-0.184-0.269-0.184-0.438c0-0.17,0.061-0.316,0.184-0.438
		c0.123-0.127,0.27-0.19,0.438-0.19c0.17,0,0.316,0.063,0.438,0.19c0.123,0.122,0.185,0.269,0.185,0.438
		c0,0.169-0.062,0.314-0.185,0.438c-0.122,0.123-0.269,0.184-0.438,0.184C117.597,144.214,117.451,144.153,117.328,144.03
		 M118.363,145.294c-0.025,0.762-0.039,1.273-0.039,1.535v2.742c0,2.087-0.314,3.387-0.945,3.898
		c-0.148,0.123-0.307,0.215-0.477,0.279c-0.168,0.067-0.298,0.105-0.387,0.113c-0.084,0.008-0.192,0.014-0.324,0.014
		c-0.143,0-0.291-0.053-0.443-0.159c-0.152-0.102-0.229-0.241-0.229-0.419c0-0.105,0.044-0.197,0.133-0.273
		c0.09-0.076,0.174-0.113,0.254-0.113c0.105,0,0.199,0.017,0.279,0.051c0.08,0.033,0.138,0.064,0.172,0.095
		c0.033,0.034,0.074,0.081,0.12,0.14c0.098,0.14,0.196,0.209,0.298,0.209c0.072,0,0.137-0.027,0.191-0.082
		c0.055-0.051,0.102-0.135,0.139-0.254c0.043-0.119,0.079-0.236,0.108-0.355c0.03-0.119,0.054-0.279,0.069-0.482
		c0.018-0.199,0.03-0.37,0.039-0.514c0.012-0.145,0.021-0.339,0.025-0.584c0.004-0.246,0.006-0.434,0.006-0.565s0-0.317,0-0.559
		v-3.181c0-0.313-0.023-0.521-0.07-0.628c-0.042-0.11-0.116-0.169-0.222-0.178l-0.559-0.058l-0.025-0.311
		c0.858-0.131,1.47-0.264,1.835-0.4C118.345,145.255,118.363,145.269,118.363,145.294"></path>
	<path id="path4733" d="M124.167,147.972l-1.027,0.273c-0.838,0.229-1.258,0.705-1.258,1.428c0,0.233,0.085,0.447,0.254,0.642
		c0.17,0.19,0.404,0.286,0.705,0.286c0.296,0,0.677-0.189,1.143-0.565c0.123-0.085,0.184-0.196,0.184-0.337V147.972
		 M124.167,150.378h-0.025l-0.26,0.203c-0.288,0.225-0.523,0.371-0.705,0.438c-0.178,0.072-0.414,0.108-0.711,0.108
		c-0.49,0-0.883-0.112-1.174-0.337c-0.293-0.224-0.438-0.579-0.438-1.066c0-0.432,0.192-0.813,0.577-1.143
		c0.391-0.334,0.904-0.582,1.543-0.742l1.117-0.273c0.051-0.016,0.076-0.066,0.076-0.152c0-0.283-0.023-0.531-0.069-0.742
		c-0.047-0.216-0.104-0.385-0.171-0.508c-0.068-0.123-0.152-0.221-0.254-0.292c-0.098-0.076-0.191-0.127-0.279-0.152
		c-0.086-0.025-0.178-0.038-0.279-0.038c-0.279,0-0.529,0.051-0.75,0.152c-0.22,0.102-0.33,0.248-0.33,0.438
		c0,0.119,0.008,0.203,0.025,0.254c0.025,0.056,0.039,0.134,0.039,0.235s-0.054,0.198-0.159,0.292
		c-0.102,0.094-0.239,0.14-0.413,0.14c-0.301,0-0.45-0.152-0.45-0.457c0-0.229,0.104-0.455,0.312-0.679
		c0.207-0.225,0.478-0.406,0.813-0.547c0.334-0.144,0.672-0.215,1.016-0.215c0.207,0,0.395,0.017,0.564,0.051
		c0.174,0.033,0.347,0.1,0.521,0.196c0.173,0.093,0.317,0.218,0.432,0.374c0.118,0.157,0.214,0.371,0.286,0.642
		c0.076,0.267,0.113,0.577,0.113,0.933v1.937c0,0.122,0,0.222,0,0.298c0.004,0.072,0.011,0.159,0.02,0.261
		c0.013,0.097,0.029,0.176,0.051,0.235c0.021,0.055,0.049,0.111,0.082,0.171c0.039,0.06,0.087,0.102,0.146,0.127
		c0.063,0.025,0.135,0.038,0.215,0.038c0.094,0,0.17-0.018,0.229-0.051s0.104-0.068,0.134-0.102
		c0.029-0.033,0.053-0.051,0.068-0.051c0.025,0,0.056,0.021,0.09,0.063c0.038,0.042,0.057,0.085,0.057,0.127
		c0,0.017-0.017,0.046-0.051,0.089c-0.033,0.043-0.084,0.092-0.152,0.146c-0.063,0.055-0.137,0.109-0.223,0.164
		c-0.084,0.051-0.186,0.094-0.305,0.127c-0.113,0.039-0.23,0.058-0.349,0.058C124.633,151.127,124.307,150.878,124.167,150.378"></path>
</g>
<path d="M38.855,140.081h-3.174c-0.055,0-0.098-0.02-0.127-0.057c-0.029-0.043-0.045-0.09-0.045-0.141
	c0-0.08,0.029-0.162,0.09-0.247c0.063-0.085,0.129-0.127,0.195-0.127h3.188c0.059,0,0.104,0.019,0.133,0.058
	c0.034,0.037,0.051,0.08,0.051,0.127c0,0.08-0.033,0.164-0.102,0.254C39.001,140.036,38.932,140.081,38.855,140.081"></path>
</svg>

