<?xml version="1.0" encoding="UTF-8" standalone="no"?>
<!-- Generator: Adobe Illustrator 15.1.0, SVG Export Plug-In . SVG Version: 6.00 Build 0)  -->
<svg xmlns:dc="http://purl.org/dc/elements/1.1/" xmlns:cc="http://creativecommons.org/ns#" xmlns:rdf="http://www.w3.org/1999/02/22-rdf-syntax-ns#" xmlns:svg="http://www.w3.org/2000/svg" xmlns="http://www.w3.org/2000/svg" xmlns:sodipodi="http://sodipodi.sourceforge.net/DTD/sodipodi-0.dtd" xmlns:inkscape="http://www.inkscape.org/namespaces/inkscape" version="1.1" id="svg3857" inkscape:version="0.46" sodipodi:docname="Wikipedia-logo-v2-pnb-Tehreer.svg" x="0px" y="0px" width="135px" height="155px" viewBox="0 0 135 155" enable-background="new 0 0 135 155" xml:space="preserve" sodipodi:version="0.32" inkscape:output_extension="org.inkscape.output.svg.inkscape"><metadata id="metadata698"><rdf:rdf><cc:work rdf:about=""><dc:format>image/svg+xml</dc:format><dc:type rdf:resource="http://purl.org/dc/dcmitype/StillImage"></dc:type></cc:work></rdf:rdf></metadata><defs id="defs3"><inkscape:perspective sodipodi:type="inkscape:persp3d" inkscape:vp_x="0 : 77.5 : 1" inkscape:vp_y="0 : 1000 : 0" inkscape:vp_z="135 : 77.5 : 1" inkscape:persp3d-origin="67.5 : 51.666667 : 1" id="perspective502"></inkscape:perspective></defs><sodipodi:namedview id="namedview4848" showgrid="false" pagecolor="#ffffff" objecttolerance="10" guidetolerance="10" inkscape:cy="9.254012" inkscape:guide-bbox="true" showguides="true" inkscape:zoom="2.8284271" inkscape:pageopacity="0" gridtolerance="10" inkscape:window-height="723" bordercolor="#666666" inkscape:window-y="24" borderopacity="1" inkscape:pageshadow="2" inkscape:window-x="0" inkscape:window-width="1024" inkscape:cx="120.90192" inkscape:current-layer="svg3857" inkscape:window-maximized="0">
	<sodipodi:guide id="globe_top" orientation="0,1" position="0,140"></sodipodi:guide>
	<sodipodi:guide id="globe_left" orientation="1,0" position="16,0"></sodipodi:guide>
	<sodipodi:guide id="globe_right" orientation="1,0" position="119,0"></sodipodi:guide>
	<sodipodi:guide id="globe_bottom" orientation="0,1" position="0,47"></sodipodi:guide>
	
	
	<sodipodi:guide id="subtitle_top" orientation="0,1" position="0,16.5"></sodipodi:guide>
	
	<sodipodi:guide id="wordmark_left" orientation="1,0" position="8,40"></sodipodi:guide>
	<sodipodi:guide id="wordmark_right" orientation="1,0" position="127,40"></sodipodi:guide>
<sodipodi:guide orientation="0,1" position="0,43.5" id="guide3075"></sodipodi:guide><sodipodi:guide orientation="0,1" position="0,14.75" id="guide3081"></sodipodi:guide><sodipodi:guide orientation="0,1" position="0,0.5" id="guide3083"></sodipodi:guide></sodipodi:namedview><path transform="matrix(8.3442251e-2,0,0,8.3442251e-2,34.519547,137.63921)" style="font-size:144px;font-style:normal;font-variant:normal;font-weight:normal;font-stretch:normal;fill:#000000;fill-opacity:1;stroke:none;stroke-width:1px;stroke-linecap:butt;stroke-linejoin:miter;stroke-opacity:1;font-family:Linux Libertine O;-inkscape-font-specification:Linux Libertine O" d="M 772.82696,54.127899 L 767.69415,50.401337 C 762.20976,56.823216 757.70977,60.034151 754.19415,60.034149 C 753.49102,60.034151 751.94415,59.588838 749.55353,58.698212 C 751.75665,57.338841 753.98321,55.791967 756.23321,54.057587 C 758.53008,52.323221 760.94414,50.331035 763.4754,48.081024 C 761.55351,45.92479 760.59258,44.213854 760.59259,42.948212 C 760.59258,41.870106 760.78008,40.72167 761.15509,39.502899 C 761.53007,38.237297 762.06914,36.995111 762.77228,35.776337 C 763.47539,34.510739 764.2957,33.456052 765.23321,32.612274 C 766.1707,31.721679 767.20194,31.276367 768.32696,31.276337 C 771.32694,31.276367 772.82694,33.338865 772.82696,37.463837 C 772.82694,40.041983 772.14725,42.66698 770.7879,45.338837 C 771.116,45.479478 771.51444,45.760727 771.98321,46.182587 C 772.45194,46.557601 772.92069,47.026351 773.38946,47.588837 L 772.82696,54.127899 M 768.25665,41.541962 C 768.25663,41.166982 768.16288,40.81542 767.9754,40.487274 C 767.83476,40.15917 767.67069,39.901358 767.48321,39.713837 C 767.34257,39.479484 767.08476,39.291984 766.70978,39.151337 C 766.38163,38.963859 766.00663,38.870109 765.58478,38.870087 C 765.06913,38.870109 764.81132,39.104484 764.81134,39.573212 C 764.81132,40.698232 765.84257,41.893544 767.90509,43.159149 C 768.13944,42.831043 768.25663,42.502918 768.25665,42.174774 C 768.25663,41.846669 768.25663,41.635731 768.25665,41.541962 M 748.56915,146.09665 C 753.95977,145.62791 758.81133,143.72948 763.12384,140.40134 C 762.32695,138.24511 759.74882,134.14355 755.38946,128.09665 C 751.40508,122.56543 748.80352,118.01856 747.58478,114.45602 C 747.67852,110.51857 749.06134,106.06545 751.73321,101.09665 C 754.82695,94.534212 756.70195,90.198279 757.35821,88.088837 C 763.49882,86.635783 772.78006,83.002974 785.20196,77.190399 C 798.70191,71.049861 807.16284,66.081116 810.58478,62.284149 C 811.61596,62.284245 812.13158,62.846744 812.13165,63.971649 C 812.13158,65.377992 811.19409,67.932677 809.31915,71.635712 L 805.73321,78.807587 C 799.68628,82.323287 794.62379,85.018597 790.54571,86.893524 C 785.20192,89.612342 773.62381,94.768587 755.81134,102.36227 C 757.96758,109.76857 761.27226,116.30763 765.7254,121.97946 C 772.616,130.97949 777.18631,136.27636 779.43634,137.87009 C 779.29568,139.69823 778.78006,143.28416 777.88946,148.6279 C 770.62381,152.7529 763.5457,155.79978 756.65509,157.76852 L 745.96759,157.76852 L 745.96759,146.09665 L 748.56915,146.09665 M 744.3504,157.76852 C 742.47537,157.76852 740.85819,157.95602 739.49884,158.33102 C 739.49881,159.6904 738.20975,162.08102 735.63165,165.5029 L 729.93634,173.3779 C 723.37383,173.04976 719.50664,172.67476 718.33478,172.2529 C 715.70977,171.08101 714.39727,168.03414 714.39728,163.11227 C 714.39727,161.70602 714.56134,159.92477 714.88946,157.76852 L 712.78009,157.76852 L 712.78009,146.09665 L 715.31134,146.09665 C 715.92071,141.59667 716.24883,139.34667 716.29571,139.34665 L 718.33478,133.01852 C 718.94414,131.2373 719.81133,128.94043 720.93634,126.1279 C 721.78008,124.53418 723.65508,120.45606 726.56134,113.89352 C 733.35819,119.00294 737.34256,125.02637 738.51446,131.96384 C 739.96756,141.6201 741.63162,146.33104 743.50665,146.09665 C 743.78787,146.09666 744.53787,146.09666 745.75665,146.09665 L 747.09259,146.09665 L 747.09259,157.76852 L 744.3504,157.76852 M 726.28009,144.40915 C 729.28007,146.04979 730.78007,146.37791 730.78009,145.39352 C 730.78007,137.28417 729.9832,132.94824 728.38946,132.38571 L 726.28009,144.40915 M 729.93634,162.6904 C 730.31132,161.28415 729.28007,159.73727 726.84259,158.04977 C 724.5457,156.45603 722.78789,155.77634 721.56915,156.01071 C 720.86602,156.71384 720.51446,157.41696 720.51446,158.12009 C 720.51446,159.57321 721.45195,160.74508 723.32696,161.63571 C 725.20195,162.52633 727.40507,162.87789 729.93634,162.6904 M 689.29571,137.16696 C 692.06129,130.27636 693.4441,120.24512 693.44415,107.07321 C 693.4441,96.667023 691.1941,85.721721 686.69415,74.237274 C 686.55348,73.815483 686.48317,73.417046 686.48321,73.041962 C 686.48317,71.401423 687.88941,66.854553 690.70196,59.401337 C 692.24878,60.198309 693.8191,61.58112 695.4129,63.549774 C 695.55347,64.393618 696.58472,69.924862 698.50665,80.143524 C 699.95971,88.159219 700.6394,93.948275 700.54571,97.510712 C 700.21753,107.30764 700.03003,112.53419 699.98321,113.1904 C 699.46753,116.98731 700.21753,122.68262 702.23321,130.27634 C 702.23315,132.76074 703.61596,135.71386 706.38165,139.13571 C 708.91283,142.27635 711.37377,144.59666 713.76446,146.09665 L 716.85821,146.09665 L 716.85821,157.76852 L 714.04571,157.76852 C 703.12377,157.76852 697.31128,150.45603 696.60821,135.83102 C 695.34253,146.47166 690.6316,156.15134 682.4754,164.87009 C 676.89724,170.8232 668.41287,177.40913 657.02228,184.6279 C 656.83476,179.84663 657.79569,174.66694 659.90509,169.08884 C 670.49881,161.91696 677.83474,155.33103 681.9129,149.33102 C 685.3816,145.01854 687.84254,140.96385 689.29571,137.16696 M 686.9754,151.4404 C 685.9441,151.39353 682.28786,147.83103 676.00665,140.7529 C 673.75662,138.08104 671.64724,135.47948 669.67853,132.94821 C 667.10037,129.76074 663.91288,124.08887 660.11603,115.93259 C 656.08476,107.54201 653.6707,101.40139 652.87384,97.510712 C 651.56133,94.323275 650.20195,92.002965 648.79571,90.549774 C 647.24883,88.862343 644.90508,87.456094 641.76446,86.331024 C 641.90509,81.174851 643.05352,75.971731 645.20978,70.721649 C 653.64726,72.877984 659.10819,78.737353 661.59259,88.299774 C 665.34256,103.39358 671.90506,115.90919 681.28009,125.84665 C 684.28004,130.53418 686.95192,134.30761 689.29571,137.16696 L 686.9754,151.4404 M 575.95196,60.174774 C 578.90507,63.549868 580.52226,69.831112 580.80353,79.018524 C 580.80351,79.768602 580.66288,85.862346 580.38165,97.299774 C 580.19413,110.00295 580.12382,116.47169 580.17071,116.70602 C 579.51445,137.00292 579.74882,147.94822 580.87384,149.54196 L 571.17071,158.12009 C 568.68633,156.29196 567.5379,150.03416 567.7254,139.34665 C 567.81915,136.01855 568.1004,127.90918 568.56915,115.01852 C 568.89727,105.7842 569.10821,97.112335 569.20196,89.002899 C 569.57696,80.518601 568.68633,74.40142 566.53009,70.651337 C 570.46758,66.198303 573.6082,62.706119 575.95196,60.174774 M 539.45978,157.76852 L 531.09259,157.76852 L 531.09259,146.09665 L 539.88165,146.09665 C 541.85039,146.09666 544.31133,144.59666 547.26446,141.59665 C 545.71757,139.20604 544.94414,137.75292 544.94415,137.23727 C 544.94414,131.4248 546.20976,127.15918 548.74103,124.4404 C 550.10038,124.34668 550.80351,124.39356 550.8504,124.58102 C 552.06913,128.37793 554.57694,132.97167 558.37384,138.36227 C 554.99881,151.29978 548.69413,157.76852 539.45978,157.76852 M 544.45196,91.112274 C 544.45195,91.112341 547.33476,94.018588 553.1004,99.831024 L 544.1004,109.2529 L 535.94415,100.60446 L 544.45196,91.112274 M 489.18634,136.2529 C 490.63942,136.25292 491.36598,136.34667 491.36603,136.53415 C 491.64723,138.26854 491.95192,139.32323 492.28009,139.69821 C 495.37379,144.38573 500.43628,146.28416 507.46759,145.39352 C 510.46752,145.48729 513.09252,143.96385 515.34259,140.82321 L 521.10821,134.14352 L 523.21759,141.45602 L 528.42071,146.09665 L 532.07696,146.09665 L 532.07696,157.76852 L 528.49103,157.76852 C 526.42844,157.76852 524.43626,156.92478 522.51446,155.23727 L 516.5379,149.61227 C 515.22533,155.33103 511.56908,158.1904 505.56915,158.1904 C 501.30347,158.1904 495.86598,156.05759 489.25665,151.79196 C 488.83473,153.19822 486.84255,154.74509 483.28009,156.43259 C 480.65505,157.79196 477.81912,158.47165 474.77228,158.47165 C 470.83475,158.47165 467.22538,157.29977 463.94415,154.95602 C 462.39726,157.01852 459.86601,158.07321 456.3504,158.12009 C 454.42852,158.12009 453.25664,158.12009 452.83478,158.12009 L 449.81134,157.76852 L 445.31134,157.76852 L 445.31134,146.09665 L 449.88165,146.09665 C 453.77227,146.75291 455.99883,146.75291 456.56134,146.09665 C 459.70195,143.09666 461.76445,139.5576 462.74884,135.47946 C 464.24882,142.79198 469.07694,146.44822 477.23321,146.44821 C 480.98318,146.44822 483.60818,145.51072 485.10821,143.63571 C 486.65505,141.71385 488.01442,139.25292 489.18634,136.2529 M 446.01446,146.09665 L 446.01446,157.76852 L 443.9754,157.76852 C 436.24101,157.76852 431.17851,156.66696 428.7879,154.46384 C 424.28789,150.10447 422.0379,143.77635 422.0379,135.47946 C 422.0379,132.05761 422.0379,126.05762 422.0379,117.47946 C 422.0379,108.90139 422.0379,102.24514 422.0379,97.510712 C 422.0379,79.838915 421.42852,69.502987 420.20978,66.502899 L 430.82696,58.698212 C 432.70195,63.432681 433.85039,70.627986 434.27228,80.284149 C 434.97538,89.987342 435.11601,97.018585 434.69415,101.3779 C 434.41288,105.73733 434.2957,112.48732 434.34259,121.6279 C 434.57695,132.26855 435.11601,138.59667 435.95978,140.61227 C 436.99101,143.23729 437.99882,144.71385 438.98321,145.04196 C 441.42069,145.7451 443.08475,146.09666 443.9754,146.09665 L 446.01446,146.09665 M 407.4129,87.526337 L 405.79571,94.135712 L 396.30353,99.620087 L 400.52228,100.60446 L 403.54571,100.60446 L 407.27228,100.2529 L 411.42071,99.268524 L 416.90509,97.370087 L 415.42853,102.15134 L 413.67071,103.90915 L 405.1629,108.47946 L 385.96759,120.43259 L 387.65509,113.7529 L 396.30353,107.28415 L 392.92853,106.58102 L 391.03009,105.24509 L 392.57696,96.807587 L 399.04571,91.815399 L 407.4129,87.526337 M 394.33478,157.76852 L 385.96759,157.76852 L 385.96759,146.09665 L 394.75665,146.09665 C 396.72539,146.09666 399.18633,144.59666 402.13946,141.59665 C 400.59257,139.20604 399.81914,137.75292 399.81915,137.23727 C 399.81914,131.4248 401.08476,127.15918 403.61603,124.4404 C 404.97538,124.34668 405.67851,124.39356 405.7254,124.58102 C 406.94413,128.37793 409.45194,132.97167 413.24884,138.36227 C 409.87381,151.29978 403.56913,157.76852 394.33478,157.76852 M 365.2254,129.36227 C 370.00663,128.65918 372.491,128.82324 372.67853,129.85446 C 373.47538,133.08886 374.57694,136.51073 375.98321,140.12009 C 377.43631,143.72948 378.866,145.72166 380.27228,146.09665 L 387.02228,146.09665 L 387.02228,157.76852 L 380.69415,157.76852 C 380.13162,157.76852 378.65506,157.18259 376.26446,156.01071 C 372.79569,154.18259 370.616,152.33103 369.7254,150.45602 L 368.53009,151.79196 C 368.34257,152.68259 367.05351,153.97165 364.6629,155.65915 C 362.55351,157.0654 361.40508,157.76852 361.21759,157.76852 L 349.12384,157.76852 L 349.12384,146.09665 L 357.84259,146.09665 C 358.96758,146.09666 361.42851,140.51854 365.2254,129.36227 M 377.0379,166.34665 C 377.03787,166.34664 379.92068,169.25289 385.68634,175.0654 L 376.68634,184.48727 L 368.53009,175.83884 L 377.0379,166.34665 M 358.05353,166.27634 C 358.05352,166.27633 360.93633,169.18258 366.70196,174.99509 L 357.70196,184.41696 L 349.54571,175.76852 L 358.05353,166.27634 M 311.29571,148.6279 C 304.03006,152.7529 296.95195,155.79978 290.06134,157.76852 L 279.37384,157.76852 L 279.37384,146.09665 L 281.9754,146.09665 C 288.02227,145.62791 293.03789,143.72948 297.02228,140.40134 C 296.31913,138.24511 293.76445,134.14355 289.35821,128.09665 C 285.32696,122.56543 282.70196,118.01856 281.48321,114.45602 C 281.76446,110.51857 283.19415,106.06545 285.77228,101.09665 C 288.86602,94.534212 290.76445,90.198279 291.46759,88.088837 C 297.51445,86.635783 306.72537,83.002974 319.1004,77.190399 C 332.64722,71.049861 341.2019,66.081116 344.76446,62.284149 C 345.7019,62.284245 346.17065,62.846744 346.17071,63.971649 C 346.17065,65.377992 345.23315,67.932677 343.35821,71.635712 L 339.77228,78.807587 C 333.72535,82.323287 328.73316,85.018597 324.79571,86.893524 C 319.26442,89.612342 307.59256,94.768587 289.78009,102.36227 C 291.32695,107.98732 294.72539,114.52638 299.9754,121.97946 C 305.1785,130.13574 309.37381,135.59667 312.56134,138.36227 C 318.51442,143.51854 326.1316,146.09666 335.4129,146.09665 L 350.74103,146.09665 L 350.74103,157.76852 L 335.4129,157.76852 C 331.85035,157.76852 326.64723,156.83103 319.80353,154.95602 C 316.75661,154.20603 313.92068,152.09665 311.29571,148.6279 M 265.87384,143.28415 C 266.01444,145.15916 268.616,146.09666 273.67853,146.09665 L 280.14728,146.09665 L 280.14728,157.76852 L 273.74884,157.76852 C 271.54569,157.76852 268.616,154.83884 264.95978,148.97946 C 265.56913,149.82322 264.11601,151.58103 260.6004,154.2529 C 258.39726,155.98728 255.49102,157.15915 251.88165,157.76852 L 245.06134,157.76852 L 245.06134,146.09665 L 252.09259,146.09665 C 253.49883,146.09666 255.0457,145.22947 256.73321,143.49509 C 257.20195,143.07323 257.43633,133.20605 257.43634,113.89352 C 257.43633,92.23734 255.46758,78.502978 251.53009,72.690399 C 255.28008,65.940491 257.88164,60.362372 259.33478,55.956024 C 263.83476,58.909248 266.71757,62.987369 267.98321,68.190399 C 268.78006,70.862361 269.1785,75.127982 269.17853,80.987274 C 269.1785,85.956096 268.45194,93.620151 266.99884,103.97946 C 265.54569,114.33888 264.81913,122.56543 264.81915,128.65915 C 264.81913,133.44042 265.17069,138.31542 265.87384,143.28415 M 246.88946,146.09665 L 246.88946,157.76852 L 243.44415,157.76852 C 239.55347,157.76852 236.74097,156.90134 235.00665,155.16696 C 234.86597,160.37008 234.46753,163.72164 233.81134,165.22165 C 232.03004,170.09664 224.15504,177.54975 210.18634,187.58102 C 198.6082,195.92474 189.74883,200.75286 183.60821,202.0654 C 183.60821,199.34661 184.2879,195.73724 185.64728,191.23727 C 188.50664,190.20599 195.51445,186.24506 206.67071,179.35446 C 207.13944,179.07319 212.29568,175.01851 222.13946,167.1904 C 225.93629,164.23727 227.71754,160.79196 227.48321,156.85446 L 210.74884,161.07321 C 210.13943,159.33884 209.83475,156.92478 209.83478,153.83102 C 209.83475,147.26853 210.91287,141.03417 213.06915,135.1279 C 215.64724,128.47168 218.71755,125.14356 222.28009,125.14352 C 226.40504,125.14356 230.6941,130.44043 235.14728,141.03415 C 236.78784,144.40916 239.55347,146.09666 243.44415,146.09665 L 246.88946,146.09665 M 215.81134,149.61227 C 221.15505,148.76853 223.61598,147.94822 223.19415,147.15134 C 220.75661,142.88573 218.9988,140.40135 217.92071,139.69821 L 215.81134,149.61227 M 149.08478,157.76852 L 140.71759,157.76852 L 140.71759,146.09665 L 149.50665,146.09665 C 151.47539,146.09666 153.93633,144.59666 156.88946,141.59665 C 155.34257,139.20604 154.56914,137.75292 154.56915,137.23727 C 154.56914,131.4248 155.83476,127.15918 158.36603,124.4404 C 159.72538,124.34668 160.42851,124.39356 160.4754,124.58102 C 161.69413,128.37793 164.20194,132.97167 167.99884,138.36227 C 164.62381,151.29978 158.31913,157.76852 149.08478,157.76852 M 159.28009,179.49509 C 159.28007,179.49506 162.16288,182.40131 167.92853,188.21384 L 158.92853,197.63571 L 150.77228,188.98727 L 159.28009,179.49509 M 168.9129,163.88571 C 168.91287,163.88571 171.79568,166.79195 177.56134,172.60446 L 168.56134,182.02634 L 160.40509,173.3779 L 168.9129,163.88571 M 149.92853,163.8154 C 149.92852,163.81539 152.81133,166.72164 158.57696,172.53415 L 149.57696,181.95602 L 141.42071,173.30759 L 149.92853,163.8154 M 119.9754,129.36227 C 124.75663,128.65918 127.241,128.82324 127.42853,129.85446 C 128.22538,133.08886 129.32694,136.51073 130.73321,140.12009 C 132.18631,143.72948 133.616,145.72166 135.02228,146.09665 L 141.77228,146.09665 L 141.77228,157.76852 L 135.44415,157.76852 C 134.88162,157.76852 133.40506,157.18259 131.01446,156.01071 C 127.54569,154.18259 125.366,152.33103 124.4754,150.45602 L 123.28009,151.79196 C 123.09257,152.68259 121.80351,153.97165 119.4129,155.65915 C 117.30351,157.0654 116.15508,157.76852 115.96759,157.76852 L 103.87384,157.76852 L 103.87384,146.09665 L 112.59259,146.09665 C 113.71758,146.09666 116.17851,140.51854 119.9754,129.36227 M 131.7879,166.34665 C 131.78787,166.34664 134.67068,169.25289 140.43634,175.0654 L 131.43634,184.48727 L 123.28009,175.83884 L 131.7879,166.34665 M 112.80353,166.27634 C 112.80352,166.27633 115.68633,169.18258 121.45196,174.99509 L 112.45196,184.41696 L 104.29571,175.76852 L 112.80353,166.27634 M 74.905088,45.268524 L 75.116026,45.268524 C 77.365989,47.753009 78.490988,50.963943 78.491026,54.901337 C 78.490988,55.932689 78.420675,57.456124 78.280088,59.471649 C 78.139426,61.440495 78.069113,62.870182 78.069151,63.760712 C 78.069113,66.338928 78.3738,68.588926 78.983213,70.510712 C 80.436298,69.3858 82.147234,67.768614 84.116026,65.659149 C 85.194106,64.627992 86.061293,64.112368 86.717588,64.112274 C 87.092542,64.112368 89.764414,65.518616 94.733213,68.331024 C 93.561285,73.721733 89.975351,77.143605 83.975401,78.596649 C 82.100359,79.299853 78.608175,80.049852 73.498838,80.846649 C 66.186313,79.346728 62.530066,77.682667 62.530088,75.854462 C 62.530066,75.713919 62.553504,75.596731 62.600401,75.502899 C 63.209753,75.690481 66.139438,75.784231 71.389463,75.784149 C 72.045682,75.268607 72.373806,73.252984 72.373838,69.737274 C 72.373806,65.940491 72.350369,62.190495 72.303526,58.487274 C 72.303494,54.737377 71.998807,52.39363 71.389463,51.456024 C 74.811304,48.878008 75.983178,46.81551 74.905088,45.268524 M 83.975401,70.299774 C 82.147234,72.596734 80.78786,74.284233 79.897276,75.362274 C 83.178483,74.565482 85.639418,73.674858 87.280088,72.690399 C 86.295667,71.70611 85.194106,70.909236 83.975401,70.299774 M 79.053526,91.252899 C 80.131611,91.159216 81.608172,94.112338 83.483213,100.11227 C 85.264418,106.01858 87.678479,116.26075 90.725401,130.83884 C 93.069098,138.29198 96.30347,143.37791 100.42853,146.09665 L 106.75665,146.09665 L 106.75665,157.76852 L 100.49884,157.76852 C 96.561282,157.76852 93.186286,155.77634 90.373838,151.79196 C 89.201915,150.19822 87.490979,146.75291 85.241026,141.45602 C 81.397235,148.86228 78.326925,152.77634 76.030088,153.19821 C 73.82693,153.66697 67.569124,155.5654 57.256651,158.89352 C 51.772264,160.48727 47.506644,163.04196 44.459776,166.55759 C 43.709773,165.71383 43.334773,164.51852 43.334776,162.97165 C 43.334773,161.84665 43.569148,160.2529 44.037901,158.1904 C 44.694147,155.70603 45.069146,154.0654 45.162901,153.26852 C 50.834765,148.48728 56.45976,145.7451 62.037901,145.04196 C 72.537869,143.40135 79.311299,141.29198 82.358213,138.71384 C 82.592546,131.21386 79.498799,119.40138 73.076963,103.27634 L 79.053526,91.252899 M 11.834776,157.76852 L 3.4675884,157.76852 L 3.4675884,146.09665 L 12.256651,146.09665 C 14.22539,146.09666 16.686325,144.59666 19.639463,141.59665 C 18.092574,139.20604 17.319137,137.75292 17.319151,137.23727 C 17.319137,131.4248 18.584761,127.15918 21.116026,124.4404 C 22.475382,124.34668 23.178506,124.39356 23.225401,124.58102 C 24.44413,128.37793 26.95194,132.97167 30.748838,138.36227 C 27.373815,151.29978 21.069133,157.76852 11.834776,157.76852 M 31.381651,165.43259 C 31.381623,165.43258 34.264433,168.33883 40.030088,174.15134 L 31.030088,183.57321 L 22.873838,174.92477 L 31.381651,165.43259 M 12.397276,165.36227 C 12.397267,165.36227 15.280077,168.26851 21.045713,174.08102 L 12.045713,183.5029 L 3.8894634,174.85446 L 12.397276,165.36227 M 4.1707134,146.09665 L 4.1707134,157.76852 L 2.1316509,157.76852 C -5.602742,157.76852 -10.665237,156.66696 -13.055849,154.46384 C -17.555855,150.10447 -19.805853,143.77635 -19.805849,135.47946 C -19.805853,132.05761 -19.805853,126.05762 -19.805849,117.47946 C -19.805853,108.90139 -19.805853,102.24514 -19.805849,97.510712 C -19.805853,79.838915 -20.415227,69.502987 -21.633974,66.502899 L -11.016787,58.698212 C -9.141801,63.432681 -7.9933646,70.627986 -7.5714741,80.284149 C -6.8683657,89.987342 -6.7277409,97.018585 -7.1495991,101.3779 C -7.4308652,105.73733 -7.5480526,112.48732 -7.5011616,121.6279 C -7.2668028,132.26855 -6.7277409,138.59667 -5.8839741,140.61227 C -4.8527428,143.23729 -3.8449313,144.71385 -2.8605366,145.04196 C -0.42305968,145.7451 1.2410012,146.09666 2.1316509,146.09665 L 4.1707134,146.09665" id="tagline"></path><path transform="matrix(0.1680553,0,0,0.1680553,44.201048,108.17557)" style="font-size:144px;font-style:normal;font-variant:normal;font-weight:normal;font-stretch:normal;fill:#000000;fill-opacity:1;stroke:none;stroke-width:1px;stroke-linecap:butt;stroke-linejoin:miter;stroke-opacity:1;font-family:Linux Libertine O;-inkscape-font-specification:Linux Libertine O" d="M 302.92376,93.255676 C 309.76747,101.45883 313.65809,108.39633 314.59563,114.06818 C 314.59559,114.91194 314.59559,115.84944 314.59563,116.88068 C 314.59559,129.44318 313.98622,137.13067 312.76751,139.94318 C 307.42372,151.38066 302.26748,159.32596 297.29876,163.77911 C 286.75187,172.3572 278.54875,177.91188 272.68938,180.44318 C 272.97063,176.92751 273.86126,172.24001 275.36126,166.38068 C 288.11124,159.95877 297.41592,149.43535 303.27532,134.81036 C 303.69716,131.85724 303.29873,129.74787 302.08001,128.48224 L 299.97063,128.69318 C 298.56436,129.25568 296.97061,129.53693 295.18938,129.53693 C 292.47061,129.53693 289.61124,128.85724 286.61126,127.49786 C 286.84562,122.10725 288.90812,116.24788 292.79876,109.91974 L 302.92376,93.255676 M 298.84563,107.74005 C 295.47061,112.24007 293.78311,115.24007 293.78313,116.74005 C 293.78311,117.95882 296.24405,118.47444 301.16595,118.28693 C 302.33779,117.11507 302.92373,115.89632 302.92376,114.63068 C 302.92373,112.84945 301.56435,110.55257 298.84563,107.74005 M 201.8847,120.60724 C 207.27531,120.1385 212.12687,118.24007 216.43938,114.91193 C 215.64249,112.7557 213.06437,108.65414 208.70501,102.60724 C 204.72063,97.076024 202.11907,92.529154 200.90032,88.966614 C 200.99407,85.029161 202.37688,80.57604 205.04876,75.607239 C 208.1425,69.044802 210.0175,64.708869 210.67376,62.599426 C 216.81437,61.146372 226.09561,57.513564 238.51751,51.700989 C 252.01746,45.56045 260.47839,40.591705 263.90032,36.794739 C 264.93151,36.794834 265.44713,37.357334 265.4472,38.482239 C 265.44713,39.888581 264.50963,42.443266 262.6347,46.146301 L 259.04876,53.318176 C 253.00183,56.833877 247.93934,59.529187 243.86126,61.404114 C 238.51747,64.122932 226.93936,69.279177 209.12688,76.872864 C 211.28312,84.279162 214.58781,90.818218 219.04095,96.490051 C 225.93155,105.49008 230.50185,110.78695 232.75188,112.38068 C 232.61123,114.20882 232.0956,117.79475 231.20501,123.13849 C 223.93936,127.26349 216.86124,130.31037 209.97063,132.27911 L 199.28313,132.27911 L 199.28313,120.60724 L 201.8847,120.60724 M 178.54095,103.87286 C 183.32218,103.16977 185.80655,103.33383 185.99407,104.36505 C 186.79092,107.59945 187.89248,111.02132 189.29876,114.63068 C 190.75186,118.24007 192.18154,120.23225 193.58782,120.60724 L 200.33782,120.60724 L 200.33782,132.27911 L 194.0097,132.27911 C 193.44717,132.27911 191.9706,131.69318 189.58001,130.5213 C 186.11124,128.69318 183.93155,126.84162 183.04095,124.96661 L 181.84563,126.30255 C 181.65812,127.19318 180.36905,128.48224 177.97845,130.16974 C 175.86906,131.57599 174.72062,132.27911 174.53313,132.27911 L 162.43938,132.27911 L 162.43938,120.60724 L 171.15813,120.60724 C 172.28312,120.60725 174.74406,115.02913 178.54095,103.87286 M 190.35345,140.85724 C 190.35342,140.85723 193.23623,143.76348 199.00188,149.57599 L 190.00188,158.99786 L 181.84563,150.34943 L 190.35345,140.85724 M 171.36907,140.78693 C 171.36906,140.78692 174.25187,143.69316 180.01751,149.50568 L 171.01751,158.92755 L 162.86126,150.27911 L 171.36907,140.78693 M 141.1347,103.87286 C 145.91593,103.16977 148.4003,103.33383 148.58782,104.36505 C 149.38467,107.59945 150.48623,111.02132 151.89251,114.63068 C 153.34561,118.24007 154.77529,120.23225 156.18157,120.60724 L 162.93157,120.60724 L 162.93157,132.27911 L 156.60345,132.27911 C 156.04092,132.27911 154.56435,131.69318 152.17376,130.5213 C 148.70499,128.69318 146.5253,126.84162 145.6347,124.96661 L 144.43938,126.30255 C 144.25187,127.19318 142.9628,128.48224 140.5722,130.16974 C 138.46281,131.57599 137.31437,132.27911 137.12688,132.27911 L 125.03313,132.27911 L 125.03313,120.60724 L 133.75188,120.60724 C 134.87687,120.60725 137.33781,115.02913 141.1347,103.87286 M 143.52532,153.79474 C 143.5253,153.79472 146.40811,156.70096 152.17376,162.51349 L 143.17376,171.93536 L 135.01751,163.28693 L 143.52532,153.79474 M 153.15813,138.18536 C 153.15811,138.18536 156.04092,141.0916 161.80657,146.90411 L 152.80657,156.32599 L 144.65032,147.67755 L 153.15813,138.18536 M 134.17376,138.11505 C 134.17375,138.11505 137.05656,141.02129 142.8222,146.8338 L 133.8222,156.25568 L 125.66595,147.60724 L 134.17376,138.11505 M 104.29095,103.87286 C 109.07218,103.16977 111.55655,103.33383 111.74407,104.36505 C 112.54092,107.59945 113.64248,111.02132 115.04876,114.63068 C 116.50186,118.24007 117.93154,120.23225 119.33782,120.60724 L 126.08782,120.60724 L 126.08782,132.27911 L 119.7597,132.27911 C 119.19717,132.27911 117.7206,131.69318 115.33001,130.5213 C 111.86124,128.69318 109.68155,126.84162 108.79095,124.96661 L 107.59563,126.30255 C 107.40812,127.19318 106.11905,128.48224 103.72845,130.16974 C 101.61906,131.57599 100.47062,132.27911 100.28313,132.27911 L 88.189384,132.27911 L 88.189384,120.60724 L 96.908134,120.60724 C 98.033125,120.60725 100.49406,115.02913 104.29095,103.87286 M 116.10345,140.85724 C 116.10342,140.85723 118.98623,143.76348 124.75188,149.57599 L 115.75188,158.99786 L 107.59563,150.34943 L 116.10345,140.85724 M 97.119072,140.78693 C 97.119063,140.78692 100.00187,143.69316 105.76751,149.50568 L 96.767509,158.92755 L 88.611259,150.27911 L 97.119072,140.78693 M 59.220634,19.779114 L 59.431572,19.779114 C 61.681535,22.263599 62.806534,25.474533 62.806572,29.411926 C 62.806534,30.443278 62.736221,31.966714 62.595634,33.982239 C 62.454972,35.951085 62.384659,37.380771 62.384697,38.271301 C 62.384659,40.849518 62.689346,43.099515 63.298759,45.021301 C 64.751844,43.89639 66.46278,42.279204 68.431572,40.169739 C 69.509652,39.138582 70.376839,38.622957 71.033134,38.622864 C 71.408088,38.622957 74.07996,40.029206 79.048759,42.841614 C 77.876831,48.232323 74.290897,51.654194 68.290947,53.107239 C 66.415905,53.810442 62.923721,54.560441 57.814384,55.357239 C 50.501859,53.857317 46.845612,52.193256 46.845634,50.365051 C 46.845612,50.224508 46.86905,50.107321 46.915947,50.013489 C 47.525299,50.201071 50.454984,50.294821 55.705009,50.294739 C 56.361228,49.779196 56.689352,47.763573 56.689384,44.247864 C 56.689352,40.451081 56.665915,36.701084 56.619072,32.997864 C 56.61904,29.247967 56.314353,26.904219 55.705009,25.966614 C 59.12685,23.388598 60.298724,21.3261 59.220634,19.779114 M 68.290947,44.810364 C 66.46278,47.107324 65.103406,48.794822 64.212822,49.872864 C 67.494029,49.076072 69.954964,48.185448 71.595634,47.200989 C 70.611213,46.2167 69.509652,45.419826 68.290947,44.810364 M 63.369072,65.763489 C 64.447157,65.669805 65.923718,68.622927 67.798759,74.622864 C 69.579965,80.529166 71.994025,90.771343 75.040947,105.34943 C 77.384644,112.80257 80.619016,117.8885 84.744072,120.60724 L 91.072197,120.60724 L 91.072197,132.27911 L 84.814384,132.27911 C 80.876828,132.27911 77.501832,130.28693 74.689384,126.30255 C 73.517461,124.70881 71.806525,121.2635 69.556572,115.96661 C 65.712781,123.37287 62.642471,127.28693 60.345634,127.7088 C 58.142476,128.17756 51.88467,130.07599 41.572197,133.40411 C 36.08781,134.99786 31.82219,137.55255 28.775322,141.06818 C 28.025319,140.22442 27.650319,139.02911 27.650322,137.48224 C 27.650319,136.35723 27.884694,134.76349 28.353447,132.70099 C 29.009693,130.21662 29.384692,128.57599 29.478447,127.77911 C 35.150311,122.99787 40.775306,120.25569 46.353447,119.55255 C 56.853415,117.91194 63.626845,115.80257 66.673759,113.22443 C 66.908092,105.72445 63.814345,93.911965 57.392509,77.786926 L 63.369072,65.763489 M -3.849678,132.27911 L -12.216866,132.27911 L -12.216866,120.60724 L -3.427803,120.60724 C -1.4590638,120.60725 1.0018712,119.10725 3.9550095,116.10724 C 2.4081198,113.71663 1.6346831,112.26351 1.634697,111.74786 C 1.6346831,105.93539 2.9003068,101.66977 5.431572,98.950989 C 6.790928,98.857272 7.4940522,98.904147 7.540947,99.091614 C 8.759676,102.88852 11.267486,107.48226 15.064384,112.87286 C 11.689361,125.81037 5.3846794,132.27911 -3.849678,132.27911 M 15.697197,139.94318 C 15.697169,139.94317 18.579979,142.84942 24.345634,148.66193 L 15.345634,158.0838 L 7.1893845,149.43536 L 15.697197,139.94318 M -3.287178,139.87286 C -3.287187,139.87286 -0.40437735,142.7791 5.3612595,148.59161 L -3.6387405,158.01349 L -11.794991,149.36505 L -3.287178,139.87286 M -11.513741,120.60724 L -11.513741,132.27911 L -13.552803,132.27911 C -21.287196,132.27911 -26.349691,131.17755 -28.740303,128.97443 C -33.240309,124.61506 -35.490307,118.28694 -35.490303,109.99005 C -35.490307,106.5682 -35.490307,100.56821 -35.490303,91.990051 C -35.490307,83.411975 -35.490307,76.755732 -35.490303,72.021301 C -35.490307,54.349504 -36.099681,44.013577 -37.318428,41.013489 L -26.701241,33.208801 C -24.826255,37.943271 -23.677819,45.138576 -23.255928,54.794739 C -22.55282,64.497932 -22.412195,71.529175 -22.834053,75.888489 C -23.115319,80.247916 -23.232507,86.997909 -23.185616,96.138489 C -22.951257,106.77914 -22.412195,113.10726 -21.568428,115.12286 C -20.537197,117.74788 -19.529385,119.22444 -18.544991,119.55255 C -16.107514,120.25569 -14.443453,120.60725 -13.552803,120.60724 L -11.513741,120.60724" id="Wikipedia"></path></svg>
