<?xml version="1.0" encoding="UTF-8" standalone="no"?>
<!-- Created with Inkscape (http://www.inkscape.org/) -->
<svg xmlns:svg="http://www.w3.org/2000/svg" xmlns="http://www.w3.org/2000/svg" version="1.0" width="135" height="155" viewBox="0 0 135 155" id="svg3857" xml:space="preserve">
<defs id="defs3"></defs>


<g id="Wikipedia">
	<path d="M 18.757,118.893 C 18.757,118.893 18.39,118.147 18.265,117.899 C 17.431,116.247 17.449,116.159 16.606,116.047 C 16.37,116.016 16.248,115.986 16.248,115.869 L 16.248,115.346 L 16.319,115.295 C 17.842,115.293 21.231,115.293 21.231,115.293 L 21.361,115.336 L 21.361,115.857 C 21.361,115.976 21.276,116.037 21.103,116.037 L 20.747,116.088 C 19.847,116.158 19.994,116.526 20.592,117.717 L 26.269,129.332 L 26.463,129.385 L 31.503,117.424 C 31.678,116.942 31.651,116.6 31.426,116.399 C 31.2,116.204 31.041,116.087 30.457,116.063 L 29.984,116.04 C 29.926,116.04 29.871,116.019 29.818,115.979 C 29.766,115.942 29.739,115.893 29.739,115.834 L 29.739,115.336 L 29.811,115.285 C 31.231,115.285 35.505,115.285 35.505,115.285 L 35.563,115.336 L 35.563,115.834 C 35.563,115.969 35.486,116.037 35.334,116.037 C 34.588,116.07 34.035,116.232 33.677,116.521 C 33.318,116.812 33.038,117.212 32.837,117.734 C 32.837,117.734 28.202,128.342 26.616,131.869 C 26.009,133.025 25.412,132.919 24.887,131.836 C 23.778,129.552 20.655,122.623 20.655,122.623 L 18.757,118.893 z" id="path3898"></path>
	<path d="M 27.853,115.287 C 27.853,115.287 24.65,115.277 23.224,115.287 L 23.153,115.338 L 23.153,115.834 C 23.153,115.895 23.179,115.943 23.231,115.98 C 23.284,116.019 23.338,116.039 23.396,116.039 L 23.625,116.064 C 24.208,116.087 24.476,116.241 24.556,116.336 C 24.695,116.506 24.764,116.69 24.427,117.425 L 18.447,129.353 L 18.29,129.312 C 18.29,129.312 14.007,120.281 12.767,117.259 C 12.638,116.947 12.58,116.714 12.58,116.571 C 12.58,116.264 12.857,116.098 13.411,116.075 L 14.057,116.048 C 14.228,116.048 14.315,115.982 14.315,115.845 L 14.315,115.349 L 14.257,115.298 C 14.257,115.298 9.127,115.292 8.067,115.298 L 8.009,115.349 L 8.009,115.87 C 8.009,115.964 8.128,116.022 8.367,116.048 C 9.018,116.083 9.446,116.187 9.652,116.36 C 9.857,116.535 10.074,116.977 10.362,117.666 C 11.919,121.406 15.227,128.08 16.838,131.881 C 17.302,132.919 17.885,133.08 18.593,131.849 C 19.819,129.576 23.143,122.631 23.143,122.631 L 25.761,117.735 C 26.066,117.217 26.36,116.756 26.509,116.542 C 26.782,116.149 26.935,116.075 27.681,116.04 C 27.833,116.04 27.91,115.972 27.91,115.835 L 27.91,115.339 L 27.853,115.287 z" id="path3900"></path>
	<path d="M 37.592,130.77 C 37.592,131.342 37.852,131.68 38.684,131.758 L 39.23,131.811 C 39.308,131.811 39.386,131.862 39.386,131.966 L 39.386,132.512 L 39.36,132.565 C 39.36,132.565 37.384,132.512 36.578,132.512 C 35.85,132.512 33.822,132.565 33.822,132.565 L 33.77,132.512 L 33.77,131.966 C 33.77,131.862 33.848,131.811 33.952,131.811 L 34.472,131.758 C 35.33,131.68 35.59,131.264 35.59,130.77 L 35.59,122.112 C 35.59,121.542 35.277,121.383 34.472,121.307 L 33.952,121.253 C 33.848,121.253 33.77,121.229 33.77,121.149 L 33.77,120.55 L 33.796,120.498 C 33.796,120.498 35.85,120.55 36.656,120.55 C 37.358,120.55 39.36,120.498 39.36,120.498 L 39.386,120.55 L 39.386,121.122 C 39.386,121.2 39.334,121.252 39.23,121.252 L 38.684,121.305 C 37.878,121.382 37.592,121.591 37.592,122.112 L 37.592,130.77 z" id="path3904"></path>
	<path d="M 45.265,130.77 C 45.265,131.342 45.603,131.628 46.357,131.758 L 46.643,131.811 C 46.721,131.836 46.799,131.862 46.799,131.966 L 46.799,132.512 L 46.773,132.565 C 46.773,132.565 45.135,132.512 44.355,132.512 C 43.627,132.512 41.495,132.565 41.495,132.565 L 41.443,132.512 L 41.443,131.966 C 41.443,131.862 41.521,131.811 41.625,131.811 L 42.145,131.758 C 42.925,131.68 43.263,131.264 43.263,130.77 L 43.263,122.112 C 43.263,121.542 42.977,121.383 42.145,121.307 L 41.625,121.253 C 41.521,121.253 41.443,121.229 41.443,121.149 L 41.443,120.55 L 41.469,120.498 C 41.469,120.498 43.601,120.55 44.407,120.55 C 45.136,120.55 46.773,120.498 46.773,120.498 L 46.799,120.55 L 46.799,121.122 C 46.799,121.2 46.747,121.226 46.643,121.252 L 46.357,121.305 C 45.551,121.46 45.265,121.591 45.265,122.112 L 45.265,126.039 C 46.123,126.039 46.617,125.599 47.761,124.375 C 48.801,123.229 49.607,122.271 49.607,121.774 C 49.607,121.565 49.373,121.333 48.853,121.253 C 48.749,121.229 48.697,121.201 48.697,121.123 L 48.697,120.523 L 48.723,120.499 C 48.723,120.499 50.829,120.551 51.583,120.551 C 52.259,120.551 53.403,120.499 53.403,120.499 L 53.481,120.523 L 53.481,121.123 C 53.481,121.201 53.403,121.253 53.273,121.253 C 52.259,121.331 51.557,121.383 50.621,122.449 L 48.385,125.021 C 47.943,125.491 47.787,125.775 47.787,125.984 C 47.787,126.14 47.891,126.269 48.021,126.425 L 51.947,131.157 C 52.259,131.52 52.883,131.677 53.403,131.78 L 53.533,131.805 C 53.611,131.83 53.715,131.882 53.715,131.96 L 53.715,132.506 L 53.637,132.532 C 53.637,132.532 52.259,132.506 51.531,132.506 C 50.881,132.506 49.945,132.532 49.945,132.532 L 49.919,132.506 L 49.919,132.194 C 49.919,131.855 49.893,131.571 49.529,131.155 L 46.643,127.566 C 46.253,127.045 45.837,126.917 45.265,126.917 L 45.265,130.77 L 45.265,130.77 z" id="path3906"></path>
	<path d="M 59.282,130.77 C 59.282,131.342 59.542,131.68 60.374,131.758 L 60.92,131.811 C 60.998,131.811 61.076,131.862 61.076,131.966 L 61.076,132.512 L 61.05,132.565 C 61.05,132.565 59.074,132.512 58.268,132.512 C 57.54,132.512 55.512,132.565 55.512,132.565 L 55.46,132.512 L 55.46,131.966 C 55.46,131.862 55.538,131.811 55.642,131.811 L 56.162,131.758 C 57.02,131.68 57.28,131.264 57.28,130.77 L 57.28,122.112 C 57.28,121.542 56.968,121.383 56.162,121.307 L 55.642,121.253 C 55.538,121.253 55.46,121.229 55.46,121.149 L 55.46,120.55 L 55.486,120.498 C 55.486,120.498 57.54,120.55 58.346,120.55 C 59.048,120.55 61.05,120.498 61.05,120.498 L 61.076,120.55 L 61.076,121.122 C 61.076,121.2 61.024,121.252 60.92,121.252 L 60.374,121.305 C 59.568,121.382 59.282,121.591 59.282,122.112 L 59.282,130.77 z" id="path3908"></path>
	<path d="M 64.9,122.163 C 64.9,121.357 64.562,121.331 63.34,121.253 C 63.184,121.253 63.158,121.176 63.158,121.123 L 63.158,120.525 L 63.21,120.499 C 63.6,120.499 65.134,120.551 65.888,120.551 C 66.616,120.551 67.656,120.499 68.618,120.499 C 72.308,120.499 72.984,122.318 72.984,123.672 C 72.984,125.233 72.23,127.676 68.54,127.676 C 67.89,127.676 67.37,127.623 66.901,127.416 L 66.901,130.898 C 66.901,131.469 67.213,131.601 68.046,131.73 L 68.567,131.808 C 68.671,131.833 68.75,131.861 68.75,131.963 L 68.75,132.509 L 68.726,132.562 C 68.726,132.562 66.645,132.509 65.839,132.509 C 65.111,132.509 63.161,132.562 63.161,132.562 L 63.135,132.509 L 63.135,131.963 C 63.135,131.859 63.187,131.833 63.291,131.808 L 63.837,131.73 C 64.643,131.626 64.903,131.392 64.903,130.898 L 64.9,122.163 L 64.9,122.163 L 64.9,122.163 z M 66.902,126.688 C 67.422,126.897 68.072,126.922 68.592,126.922 C 70.153,126.922 70.904,125.984 70.904,123.984 C 70.904,121.748 69.89,121.254 68.462,121.254 C 67.213,121.254 66.901,121.488 66.901,122.164 L 66.902,126.688 L 66.902,126.688 z" id="path3910"></path>
	<path d="M 77.462,132.512 C 76.682,132.512 74.889,132.565 74.889,132.565 L 74.862,132.512 L 74.862,131.94 C 74.862,131.889 74.889,131.811 75.018,131.811 L 75.618,131.758 C 76.425,131.68 76.659,131.16 76.659,130.641 L 76.659,122.061 C 76.659,121.461 76.347,121.358 75.618,121.307 L 75.018,121.253 C 74.862,121.229 74.862,121.176 74.862,121.149 L 74.862,120.55 L 74.889,120.498 C 74.889,120.498 76.916,120.55 77.696,120.55 L 81.518,120.55 C 82.298,120.55 84.145,120.498 84.145,120.498 L 84.199,120.55 C 84.223,121.668 84.405,122.684 84.589,123.671 L 83.941,123.775 C 83.656,122.812 83.162,121.435 81.498,121.435 L 79.418,121.435 C 78.924,121.435 78.664,121.617 78.664,122.058 L 78.664,125.829 L 80.613,125.829 C 81.342,125.829 81.523,125.517 81.628,124.997 L 81.783,124.451 C 81.783,124.373 81.836,124.32 81.939,124.32 L 82.379,124.32 C 82.433,124.32 82.433,124.347 82.433,124.398 C 82.379,124.969 82.277,125.699 82.277,126.323 C 82.277,126.972 82.381,127.519 82.433,128.117 L 82.379,128.17 L 81.939,128.17 C 81.81,128.17 81.755,128.117 81.755,128.039 L 81.625,127.468 C 81.521,126.947 81.287,126.661 80.608,126.661 L 78.66,126.661 L 78.66,130.64 C 78.66,131.132 78.943,131.626 79.414,131.626 L 81.884,131.626 C 83.21,131.626 83.94,130.794 84.25,129.44 L 84.898,129.518 L 84.377,132.507 L 84.325,132.559 C 84.325,132.559 82.791,132.507 82.011,132.507 L 77.462,132.512 L 77.462,132.512 L 77.462,132.512 z" id="path3912"></path>
	<path d="M 87.24,131.811 L 87.838,131.758 C 88.619,131.68 88.879,131.446 88.879,130.641 L 88.879,122.061 C 88.879,121.383 88.695,121.383 87.838,121.307 L 87.268,121.253 C 87.164,121.253 87.084,121.201 87.084,121.123 L 87.084,120.551 L 87.109,120.499 C 87.109,120.499 89.398,120.551 89.867,120.551 C 90.359,120.551 92.623,120.499 93.299,120.499 C 97.641,120.499 99.774,123.203 99.774,126.661 C 99.774,131.212 96.549,132.562 93.665,132.562 C 91.585,132.562 90.676,132.509 89.87,132.509 C 89.089,132.509 87.112,132.562 87.112,132.562 L 87.087,132.509 L 87.087,131.963 C 87.084,131.889 87.137,131.811 87.24,131.811 z M 93.039,131.811 C 95.898,131.811 97.512,130.747 97.512,127.104 C 97.512,124.401 96.913,121.253 92.545,121.253 C 91.531,121.253 90.881,121.409 90.881,122.061 L 90.881,130.641 C 90.881,131.367 91.062,131.811 93.039,131.811 z" id="path3914"></path>
	<path d="M 105.912,130.77 C 105.912,131.342 106.172,131.68 107.004,131.758 L 107.55,131.811 C 107.628,131.811 107.706,131.862 107.706,131.966 L 107.706,132.512 L 107.68,132.565 C 107.68,132.565 105.704,132.512 104.899,132.512 C 104.17,132.512 102.143,132.565 102.143,132.565 L 102.09,132.512 L 102.09,131.966 C 102.09,131.862 102.168,131.811 102.272,131.811 L 102.793,131.758 C 103.65,131.68 103.911,131.264 103.911,130.77 L 103.911,122.112 C 103.911,121.542 103.598,121.383 102.793,121.307 L 102.272,121.253 C 102.168,121.253 102.09,121.229 102.09,121.149 L 102.09,120.55 L 102.116,120.498 C 102.116,120.498 104.17,120.55 104.974,120.55 C 105.675,120.55 107.679,120.498 107.679,120.498 L 107.703,120.55 L 107.703,121.122 C 107.703,121.2 107.649,121.252 107.547,121.252 L 107.001,121.305 C 106.194,121.382 105.909,121.591 105.909,122.112 L 105.912,130.77 L 105.912,130.77 L 105.912,130.77 z" id="path3916"></path>
	<path d="M 113.922,131.758 L 114.676,131.811 C 114.78,131.811 114.884,131.889 114.884,132.018 L 114.884,132.512 L 114.832,132.565 C 114.832,132.565 111.998,132.512 111.374,132.512 C 110.697,132.512 109.033,132.565 109.033,132.565 L 108.98,132.512 L 108.98,132.018 C 108.98,131.889 109.058,131.811 109.189,131.811 C 110.334,131.733 110.982,131.524 111.71,129.86 L 117.481,116.339 C 117.766,115.663 117.975,115.402 118.367,115.402 C 118.729,115.402 118.86,115.663 119.067,116.183 L 124.397,130.275 C 124.762,131.29 125.283,131.679 126.323,131.783 L 126.608,131.808 C 126.739,131.808 126.869,131.885 126.869,132.017 L 126.869,132.509 L 126.791,132.562 C 126.791,132.562 124.789,132.509 123.774,132.509 C 122.864,132.509 120.315,132.562 120.315,132.562 L 120.291,132.509 L 120.291,132.017 C 120.291,131.885 120.343,131.808 120.476,131.808 L 121.204,131.755 C 122.191,131.678 122.557,131.364 122.296,130.638 L 120.71,126.242 L 115.3,126.242 C 114.676,126.242 114.52,126.346 114.391,126.682 L 112.882,130.453 C 112.622,131.107 112.96,131.68 113.922,131.758 z M 120.292,125.152 L 117.77,118.211 L 117.718,118.211 L 115.118,124.815 C 115.014,125.077 115.195,125.153 115.767,125.153 L 120.292,125.153 L 120.292,125.152 z" id="path3918"></path>
</g>

<path d="M 44.202437,183.91372 L 44.202437,123.14572 C 44.202437,118.24972 47.082442,114.21772 52.266437,114.21772 L 61.194437,114.21772 C 69.114429,114.21772 70.122439,116.52173 72.570437,127.60972 C 74.154435,127.60972 75.738439,127.75372 77.466437,126.88972 C 76.314438,119.54573 75.594437,111.76971 75.594437,104.71372 C 74.154438,104.85772 72.714435,104.85772 71.274437,105.28972 C 71.274437,106.15372 71.130434,108.60172 68.106437,108.60172 L 5.4664368,108.60172 C 2.4424399,108.60172 2.4424368,106.15372 2.4424368,105.28972 C 1.290438,105.00172 0.13843467,104.56972 -2.0215632,104.71372 C -2.5975626,111.76971 -3.4615649,119.25773 -5.1895632,126.88972 C -3.8935645,127.60972 -2.1655613,127.75372 -0.29356317,127.60972 C 2.5864339,116.08973 4.4584447,114.21772 12.378437,114.21772 L 23.754437,114.21772 C 29.082432,114.21772 31.962437,118.24972 31.962437,122.71372 L 31.962437,183.91372 C 31.962437,195.86571 29.514425,196.58572 17.994437,197.01772 C 17.130438,197.88172 17.130438,200.90572 17.994437,201.76972 C 25.05043,201.62572 30.234445,201.48172 38.154437,201.48172 C 45.930429,201.48172 50.970444,201.62572 58.170437,201.76972 C 59.034436,200.90572 59.034436,197.88172 58.170437,197.01772 C 46.650448,196.58572 44.202437,195.86571 44.202437,183.91372 M 84.314687,160.87372 C 87.050684,144.60174 97.13069,143.30572 100.58669,143.30572 C 106.05868,143.30572 112.53869,146.32973 112.53869,158.42572 C 112.53869,159.72172 111.96269,160.44172 110.37869,160.44172 L 84.314687,160.87372 M 122.04269,188.08972 C 116.71469,193.56171 112.53868,195.86572 104.18669,195.86572 C 99.002692,195.86572 92.954682,192.84171 88.490687,185.49772 C 85.61069,180.74572 83.882687,174.12171 83.882687,165.76972 L 122.18669,166.05772 C 123.91469,166.05772 124.92269,165.19372 124.92269,163.60972 C 124.92269,151.51373 120.60267,138.55372 100.58669,138.55372 C 88.058699,138.55372 71.786687,150.50574 71.786687,172.39372 C 71.786687,180.45771 73.802692,188.23373 78.554687,193.70572 C 83.450682,199.46571 90.218697,202.92172 100.58669,202.92172 C 111.53068,202.92172 119.30669,197.88171 125.06669,190.39372 C 124.63469,188.95372 123.77069,188.23372 122.04269,188.08972 M 256.19294,184.77772 C 256.91294,196.44171 256.48093,196.58572 247.12094,197.01772 C 246.25694,197.88172 246.25694,200.90572 247.12094,201.76972 C 253.88893,201.62572 258.20894,201.48172 262.52894,201.48172 C 266.84893,201.48172 273.32894,201.62572 278.22494,201.76972 C 279.08894,200.90572 279.08894,197.88172 278.22494,197.01772 C 268.43295,196.58572 268.00094,196.00971 267.13694,184.05772 L 262.81694,123.43372 C 262.24094,115.65773 262.96095,113.64172 272.75294,113.06572 C 273.61694,112.20172 273.61694,109.17772 272.75294,108.31372 L 253.88894,108.60172 L 223.36094,181.60972 C 222.78494,183.04972 222.35294,183.62572 222.06494,183.62572 C 221.63294,183.62572 221.48894,183.04972 220.91294,181.75372 L 191.39294,108.60172 L 170.51294,108.31372 C 169.64894,109.17772 169.64894,112.20172 170.51294,113.06572 C 180.44893,113.64172 181.31294,113.92973 180.30494,124.72972 L 174.40094,184.05772 C 173.68094,192.69771 171.95293,196.29772 163.74494,197.01772 C 162.88094,197.88172 162.88094,200.90572 163.74494,201.76972 C 168.06493,201.62572 172.67294,201.48172 176.12894,201.48172 C 179.58493,201.48172 185.34494,201.62572 189.66494,201.76972 C 190.52894,200.90572 190.52894,197.88172 189.66494,197.01772 C 180.16095,196.29772 179.29694,191.97771 180.16094,183.76972 L 185.63294,126.02572 L 185.92094,126.02572 L 215.72894,200.76172 C 216.01694,201.91372 217.02494,202.34572 217.88894,202.34572 C 218.75294,202.34572 219.32894,201.91372 219.90494,200.76172 L 252.30494,124.58572 L 252.59294,124.58572 L 256.19294,184.77772 M 325.17044,126.88972 C 327.04243,126.88972 328.62644,123.86572 328.62644,122.13772 C 328.62644,121.27372 328.05044,119.68972 326.61044,119.68972 L 294.21044,119.68972 C 292.62644,119.68972 291.04244,122.56972 291.04244,124.29772 C 291.04244,125.30572 291.61844,126.88972 292.91444,126.88972 L 325.17044,126.88972 M 320.99444,167.92972 L 320.99444,187.08172 C 320.99444,188.95372 320.13044,189.96172 318.97844,190.82572 C 315.23444,193.84972 310.33843,197.01772 306.30644,197.01772 C 299.10644,197.01772 295.93844,191.25772 295.93844,186.79372 C 295.93844,180.31373 298.96245,173.83372 309.61844,170.95372 L 320.99444,167.92972 M 320.99444,194.56972 C 321.85844,197.59372 324.30644,202.92172 332.08244,202.92172 C 339.13843,202.92172 344.32244,197.16172 344.32244,196.44172 C 344.32244,195.43372 343.02644,193.99372 342.45044,193.99372 C 341.58644,193.99372 341.01043,196.29772 337.98644,196.29772 C 332.37044,196.29772 332.22644,190.68171 332.22644,184.05772 L 332.22644,162.60172 C 332.22644,142.15374 320.99443,138.26572 310.48244,138.26572 C 298.67445,138.26572 286.72244,146.47373 286.72244,154.24972 C 286.72244,157.70572 288.45044,159.28972 291.76244,159.28972 C 295.93843,159.28972 298.09844,156.40972 298.09844,154.53772 C 298.09844,153.52972 297.95444,152.52172 297.66644,151.94572 C 297.52244,151.51372 297.37844,150.64972 297.37844,149.06572 C 297.37844,144.60172 303.85844,143.01772 309.33044,143.01772 C 314.22643,143.01772 320.99444,145.46574 320.99444,161.73772 C 320.99444,162.74572 320.56244,163.32172 320.13044,163.46572 L 307.74644,166.48972 C 293.92245,169.94572 283.98644,177.57773 283.98644,187.36972 C 283.98644,198.74571 292.05045,202.92172 302.13044,202.92172 C 308.75443,202.92172 311.49044,201.76972 317.82644,196.87372 L 320.70644,194.56972 L 320.99444,194.56972 M 347.80694,139.70572 C 345.79094,139.70572 345.21494,141.43372 345.21494,142.58572 L 345.21494,144.45772 C 345.21494,145.17772 345.35894,145.32172 345.93494,145.32172 L 354.43094,145.32172 L 354.43094,188.66572 C 354.43094,198.88971 358.89494,202.92172 365.51894,202.92172 C 372.14293,202.92172 379.34294,199.75371 384.95894,193.41772 C 384.67094,191.97772 383.80694,191.11372 382.36694,190.96972 C 378.62294,193.84972 374.30293,195.00172 370.55894,195.00172 C 366.67094,195.00172 365.80694,190.68171 365.80694,181.75372 L 365.80694,145.32172 L 380.78294,145.32172 C 382.22294,145.32172 384.23894,144.74572 384.23894,143.44972 L 384.23894,140.56972 C 384.23894,139.99372 383.80694,139.70572 383.08694,139.70572 L 365.80694,139.70572 L 365.80694,134.08972 C 365.80694,124.72973 366.38294,118.96972 366.38294,118.96972 C 366.38294,117.96172 365.80694,117.52972 364.51094,117.52972 L 356.15894,121.41772 C 355.29494,121.84972 353.99894,122.13772 354.14294,123.14572 C 354.43094,126.45772 354.43094,127.75373 354.43094,139.70572 L 347.80694,139.70572 M 430.54544,126.88972 C 432.41743,126.88972 434.00144,123.86572 434.00144,122.13772 C 434.00144,121.27372 433.42544,119.68972 431.98544,119.68972 L 399.58544,119.68972 C 398.00144,119.68972 396.41744,122.56972 396.41744,124.29772 C 396.41744,125.30572 396.99344,126.88972 398.28944,126.88972 L 430.54544,126.88972 M 426.36944,167.92972 L 426.36944,187.08172 C 426.36944,188.95372 425.50544,189.96172 424.35344,190.82572 C 420.60944,193.84972 415.71343,197.01772 411.68144,197.01772 C 404.48144,197.01772 401.31344,191.25772 401.31344,186.79372 C 401.31344,180.31373 404.33745,173.83372 414.99344,170.95372 L 426.36944,167.92972 M 426.36944,194.56972 C 427.23344,197.59372 429.68144,202.92172 437.45744,202.92172 C 444.51343,202.92172 449.69744,197.16172 449.69744,196.44172 C 449.69744,195.43372 448.40144,193.99372 447.82544,193.99372 C 446.96144,193.99372 446.38543,196.29772 443.36144,196.29772 C 437.74544,196.29772 437.60144,190.68171 437.60144,184.05772 L 437.60144,162.60172 C 437.60144,142.15374 426.36943,138.26572 415.85744,138.26572 C 404.04945,138.26572 392.09744,146.47373 392.09744,154.24972 C 392.09744,157.70572 393.82544,159.28972 397.13744,159.28972 C 401.31343,159.28972 403.47344,156.40972 403.47344,154.53772 C 403.47344,153.52972 403.32944,152.52172 403.04144,151.94572 C 402.89744,151.51372 402.75344,150.64972 402.75344,149.06572 C 402.75344,144.60172 409.23344,143.01772 414.70544,143.01772 C 419.60143,143.01772 426.36944,145.46574 426.36944,161.73772 C 426.36944,162.74572 425.93744,163.32172 425.50544,163.46572 L 413.12144,166.48972 C 399.29745,169.94572 389.36144,177.57773 389.36144,187.36972 C 389.36144,198.74571 397.42545,202.92172 407.50544,202.92172 C 414.12943,202.92172 416.86544,201.76972 423.20144,196.87372 L 426.08144,194.56972 L 426.36944,194.56972 M 472.18994,153.24172 C 476.65393,148.63372 482.41394,144.88972 486.73394,144.88972 C 495.94993,144.88972 503.86994,155.25774 503.86994,171.52972 C 503.86994,183.33771 499.69392,198.02572 483.56594,198.02572 C 480.97394,198.02572 475.93393,197.30572 473.34194,195.00172 C 470.31794,192.40972 469.88594,191.68971 469.88594,186.36172 L 469.88594,159.57772 C 469.88594,156.55372 470.31794,155.25772 472.18994,153.24172 M 471.03794,148.48972 C 470.46194,149.06572 469.59794,149.20972 469.59794,148.05772 C 469.59794,142.87373 470.17394,138.84172 470.17394,138.84172 C 470.17394,138.26572 469.45394,137.83372 468.30194,137.83372 C 464.26994,139.41772 458.79793,140.71372 448.86194,142.00972 C 448.57394,142.87372 448.86194,145.17772 449.14994,146.04172 C 456.92593,146.76172 458.50994,147.62573 458.50994,155.83372 L 458.50994,217.32172 C 458.50994,229.27371 456.92593,229.99372 448.14194,230.42572 C 447.27794,231.28972 447.27794,234.31372 448.14194,235.17772 C 454.18993,235.03372 457.93394,234.88972 464.26994,234.88972 C 471.03793,234.88972 475.50194,235.03372 481.69394,235.17772 C 482.55794,234.31372 482.55794,231.28972 481.69394,230.42572 C 471.46995,229.84972 469.88594,229.27371 469.88594,217.32172 L 469.88594,201.76972 C 469.88594,199.89772 470.31794,200.18572 471.90194,200.76172 C 475.35793,202.20172 479.82194,202.92172 484.42994,202.92172 C 492.49393,202.92172 499.69394,200.47371 505.59794,194.85772 C 512.36593,188.23373 516.25394,179.30571 516.25394,167.64172 C 516.25394,152.37774 505.45392,138.26572 490.76594,138.26572 C 485.43794,138.26572 477.51793,141.86573 471.03794,148.48972 M 550.05044,202.92172 C 555.66643,202.92172 561.57044,200.04171 568.62644,194.28172 C 569.20244,193.70572 570.35444,193.41772 570.35444,194.42572 C 570.35444,197.88172 571.93844,202.92172 571.93844,202.92172 C 572.94644,203.35372 573.52244,203.35372 574.67444,202.92172 C 577.84243,200.32972 583.31445,198.16972 592.09844,197.16172 C 592.96244,196.29772 592.96244,194.13772 592.09844,193.27372 C 582.88245,192.55372 581.58644,189.81771 581.58644,182.76172 L 581.58644,155.11372 C 581.58644,150.79372 582.16244,140.42572 582.16244,140.42572 C 582.16244,139.84972 581.73044,139.41772 581.01044,139.41772 C 580.29044,139.56172 578.13043,139.70572 575.97044,139.70572 C 571.36244,139.70572 566.61043,139.56172 561.28244,139.41772 C 560.41844,140.28172 560.41844,143.30572 561.28244,144.16972 C 568.33843,144.60172 570.21044,146.32973 570.21044,155.83372 L 570.21044,183.62572 C 570.21044,186.36172 569.92243,187.51372 567.90644,189.24172 C 562.57844,193.84972 557.97043,196.15372 554.37044,196.15372 C 550.05044,196.15372 542.85044,194.13771 542.85044,181.32172 L 542.85044,155.11372 C 542.85044,150.79372 543.42644,140.42572 543.42644,140.42572 C 543.42644,139.84972 542.99444,139.41772 542.27444,139.41772 C 541.55444,139.56172 539.39443,139.70572 537.23444,139.70572 C 532.62644,139.70572 527.87443,139.56172 522.54644,139.41772 C 521.68244,140.28172 521.68244,143.30572 522.54644,144.16972 C 529.45843,144.74572 531.47444,146.32973 531.47444,155.68972 L 531.47444,183.33772 C 531.47444,193.27371 535.79445,202.92172 550.05044,202.92172 M 617.95469,149.92972 C 617.52269,150.50572 616.51469,151.94572 616.51469,149.92972 C 616.51469,145.60972 617.23469,138.98572 617.23469,138.98572 C 617.23469,138.26572 616.65869,137.83372 615.50669,137.83372 C 611.47469,139.41772 605.57068,140.71372 595.63469,142.00972 C 595.34669,142.87372 595.63469,145.17772 595.92269,146.04172 C 603.69868,146.76172 605.28269,147.48173 605.28269,155.83372 L 605.28269,183.91372 C 605.28269,195.72171 603.84268,196.29772 595.20269,197.01772 C 594.33869,197.88172 594.33869,200.90572 595.20269,201.76972 C 601.10668,201.62572 604.85069,201.48172 611.04269,201.48172 C 616.65868,201.48172 619.25069,201.62572 625.29869,201.76972 C 626.16269,200.90572 626.16269,197.88172 625.29869,197.01772 C 617.95469,196.29772 616.65869,195.72171 616.65869,183.91372 L 616.65869,160.29772 C 616.65869,157.27372 617.95469,155.54572 619.10669,154.24972 C 624.57868,148.92173 630.19469,145.75372 635.81069,145.75372 C 638.69068,145.75372 641.71469,147.62572 643.44269,150.93772 C 644.88269,153.81772 645.17069,157.70572 645.17069,162.02572 L 645.17069,183.91372 C 645.17069,195.72171 643.73068,196.29772 636.24269,197.01772 C 635.52269,197.88172 635.52269,200.90572 636.24269,201.76972 C 642.29068,201.62572 645.17069,201.48172 650.93069,201.48172 C 656.83468,201.48172 660.00269,201.62572 666.19469,201.76972 C 666.91469,200.90572 666.91469,197.88172 666.19469,197.01772 C 658.13069,196.29772 656.54669,195.72171 656.54669,183.91372 L 656.54669,162.45772 C 656.54669,154.53773 655.97068,147.62572 652.65869,143.16172 C 650.21069,139.99372 645.74668,138.26572 640.70669,138.26572 C 633.65069,138.26572 626.73868,140.13773 617.95469,149.92972 M 683.37719,160.87372 C 686.11318,144.60174 696.19319,143.30572 699.64919,143.30572 C 705.12118,143.30572 711.60119,146.32973 711.60119,158.42572 C 711.60119,159.72172 711.02519,160.44172 709.44119,160.44172 L 683.37719,160.87372 M 721.10519,188.08972 C 715.77719,193.56171 711.60118,195.86572 703.24919,195.86572 C 698.06519,195.86572 692.01718,192.84171 687.55319,185.49772 C 684.67319,180.74572 682.94519,174.12171 682.94519,165.76972 L 721.24919,166.05772 C 722.97719,166.05772 723.98519,165.19372 723.98519,163.60972 C 723.98519,151.51373 719.66517,138.55372 699.64919,138.55372 C 687.1212,138.55372 670.84919,150.50574 670.84919,172.39372 C 670.84919,180.45771 672.86519,188.23373 677.61719,193.70572 C 682.51318,199.46571 689.2812,202.92172 699.64919,202.92172 C 710.59318,202.92172 718.36919,197.88171 724.12919,190.39372 C 723.69719,188.95372 722.83319,188.23372 721.10519,188.08972 M 753.42344,149.92972 C 752.99144,150.50572 751.98344,151.94572 751.98344,149.92972 C 751.98344,145.60972 752.70344,138.98572 752.70344,138.98572 C 752.70344,138.26572 752.12744,137.83372 750.97544,137.83372 C 746.94344,139.41772 741.03943,140.71372 731.10344,142.00972 C 730.81544,142.87372 731.10344,145.17772 731.39144,146.04172 C 739.16743,146.76172 740.75144,147.48173 740.75144,155.83372 L 740.75144,183.91372 C 740.75144,195.72171 739.31143,196.29772 730.67144,197.01772 C 729.80744,197.88172 729.80744,200.90572 730.67144,201.76972 C 736.57543,201.62572 740.31944,201.48172 746.51144,201.48172 C 752.12743,201.48172 754.71944,201.62572 760.76744,201.76972 C 761.63144,200.90572 761.63144,197.88172 760.76744,197.01772 C 753.42344,196.29772 752.12744,195.72171 752.12744,183.91372 L 752.12744,160.29772 C 752.12744,157.27372 753.42344,155.54572 754.57544,154.24972 C 760.04743,148.92173 765.66344,145.75372 771.27944,145.75372 C 774.15943,145.75372 777.18344,147.62572 778.91144,150.93772 C 780.35144,153.81772 780.63944,157.70572 780.63944,162.02572 L 780.63944,183.91372 C 780.63944,195.72171 779.19943,196.29772 771.71144,197.01772 C 770.99144,197.88172 770.99144,200.90572 771.71144,201.76972 C 777.75943,201.62572 780.63944,201.48172 786.39944,201.48172 C 792.30343,201.48172 795.47144,201.62572 801.66344,201.76972 C 802.38344,200.90572 802.38344,197.88172 801.66344,197.01772 C 793.59944,196.29772 792.01544,195.72171 792.01544,183.91372 L 792.01544,162.45772 C 792.01544,154.53773 791.43943,147.62572 788.12744,143.16172 C 785.67944,139.99372 781.21543,138.26572 776.17544,138.26572 C 769.11944,138.26572 762.20743,140.13773 753.42344,149.92972 M 846.92594,161.30572 C 846.92594,174.69771 840.15793,177.43372 834.82994,177.43372 C 822.73395,177.43372 821.43794,167.20971 821.43794,157.99372 C 821.43794,147.91373 825.03794,142.72972 832.95794,142.72972 C 842.02993,142.72972 846.92594,149.35373 846.92594,161.30572 M 819.99794,202.92172 C 821.58194,203.35372 823.88594,203.64172 825.75794,203.64172 C 830.22193,203.64172 834.25394,203.20972 836.26994,203.20972 C 843.46993,203.20972 849.51794,203.35372 853.69394,205.65772 C 859.30993,208.82572 861.03794,210.84172 861.03794,214.58572 C 861.03794,224.95371 845.77392,230.42572 832.81394,230.42572 C 827.62994,230.42572 815.53394,226.24971 815.53394,216.45772 C 815.53394,211.56172 815.82194,207.96171 819.99794,202.92172 M 864.92594,145.75372 C 867.66193,145.75372 870.25394,143.16172 870.25394,140.28172 C 870.25394,137.25772 867.51793,134.95372 863.62994,134.95372 C 859.88594,134.95372 852.97393,137.40172 849.22994,142.29772 C 847.50194,141.14572 842.74993,138.26572 834.25394,138.26572 C 821.43795,138.26572 809.62994,146.90573 809.62994,160.15372 C 809.62994,167.92971 813.08594,172.39372 817.11794,176.28172 C 813.08594,179.73772 810.78194,185.92972 810.78194,190.82572 C 810.78194,196.00971 813.66194,200.04172 817.40594,201.91372 C 809.62994,206.52172 805.59794,213.14573 805.59794,219.33772 C 805.59794,231.86571 817.40595,235.75372 828.49394,235.75372 C 847.93392,235.75372 868.95794,226.3937 868.95794,210.84172 C 868.95794,206.23372 866.79793,202.63372 862.62194,199.17772 C 857.00594,194.56972 846.92593,194.42572 841.59794,194.42572 C 839.00594,194.42572 835.40593,194.71372 831.94994,195.14572 C 829.78994,195.28972 828.34994,195.43372 827.62994,195.43372 C 823.45394,195.43372 818.41394,193.41771 818.41394,187.22572 C 818.41394,184.34572 819.27794,181.32172 821.00594,178.87372 C 824.46193,180.88972 828.49394,181.89772 834.10994,181.89772 C 846.78192,181.89772 858.44594,173.97771 858.44594,159.86572 C 858.44594,153.09773 856.42993,149.20972 852.25394,144.88972 C 853.26194,143.44972 856.14194,141.43372 858.01394,141.43372 C 859.02194,141.43372 860.02994,141.86572 860.89394,143.16172 C 861.46994,144.31372 863.34194,145.75372 864.92594,145.75372 M 911.33819,167.92972 L 911.33819,187.08172 C 911.33819,188.95372 910.47419,189.96172 909.32219,190.82572 C 905.57819,193.84972 900.68218,197.01772 896.65019,197.01772 C 889.45019,197.01772 886.28219,191.25772 886.28219,186.79372 C 886.28219,180.31373 889.3062,173.83372 899.96219,170.95372 L 911.33819,167.92972 M 911.33819,194.56972 C 912.20219,197.59372 914.65019,202.92172 922.42619,202.92172 C 929.48218,202.92172 934.66619,197.16172 934.66619,196.44172 C 934.66619,195.43372 933.37019,193.99372 932.79419,193.99372 C 931.93019,193.99372 931.35418,196.29772 928.33019,196.29772 C 922.71419,196.29772 922.57019,190.68171 922.57019,184.05772 L 922.57019,162.60172 C 922.57019,142.15374 911.33818,138.26572 900.82619,138.26572 C 889.0182,138.26572 877.06619,146.47373 877.06619,154.24972 C 877.06619,157.70572 878.79419,159.28972 882.10619,159.28972 C 886.28218,159.28972 888.44219,156.40972 888.44219,154.53772 C 888.44219,153.52972 888.29819,152.52172 888.01019,151.94572 C 887.86619,151.51372 887.72219,150.64972 887.72219,149.06572 C 887.72219,144.60172 894.20219,143.01772 899.67419,143.01772 C 904.57018,143.01772 911.33819,145.46574 911.33819,161.73772 C 911.33819,162.74572 910.90619,163.32172 910.47419,163.46572 L 898.09019,166.48972 C 884.2662,169.94572 874.33019,177.57773 874.33019,187.36972 C 874.33019,198.74571 882.3942,202.92172 892.47419,202.92172 C 899.09818,202.92172 901.83419,201.76972 908.17019,196.87372 L 911.05019,194.56972 L 911.33819,194.56972 M 1082.3187,120.12172 L 1059.4227,185.78572 L 1059.1347,185.78572 L 1038.3987,121.70572 C 1035.8067,114.07373 1040.9907,113.49772 1045.8867,113.06572 C 1046.7507,112.20172 1046.7507,109.17772 1045.8867,108.31372 C 1039.1187,108.45772 1034.0787,108.60172 1028.3187,108.60172 C 1022.7027,108.60172 1019.6787,108.45772 1013.9187,108.31372 C 1013.0547,109.17772 1013.0547,112.20172 1013.9187,113.06572 C 1021.5507,113.49772 1025.1507,118.10572 1026.4467,121.70572 L 1028.6067,128.32972 C 1029.0387,130.05772 1029.3267,131.06572 1029.3267,132.36172 C 1029.3267,134.23372 1028.8947,136.10572 1028.3187,137.83372 L 1010.1747,185.49772 L 1009.8867,185.49772 L 988.28669,119.11372 C 986.55869,114.07373 990.44669,113.35372 995.48669,113.06572 C 996.35069,112.20172 996.35069,109.17772 995.48669,108.31372 C 990.73469,108.45772 984.83068,108.60172 979.21469,108.60172 C 973.45469,108.60172 971.58268,108.45772 965.82269,108.31372 C 964.95869,109.17772 964.95869,112.20172 965.82269,113.06572 C 972.30268,113.49772 973.88669,113.78573 976.47869,121.41772 L 1002.6867,199.75372 C 1003.4067,202.05772 1004.9907,203.20972 1007.1507,203.20972 C 1009.1667,203.20972 1010.4627,201.76972 1011.1827,199.75372 L 1031.1987,148.20172 C 1031.7747,146.47372 1032.4947,144.60172 1033.2147,144.60172 C 1033.7907,144.60172 1034.5107,146.76172 1035.2307,148.63372 L 1052.0787,199.75372 C 1052.9427,202.20172 1054.6707,203.20972 1056.5427,203.20972 C 1058.5587,203.20972 1059.7107,202.05772 1060.4307,199.89772 L 1088.7987,121.84972 C 1090.5267,116.80973 1093.2627,113.49772 1101.1827,113.06572 C 1102.0467,112.20172 1102.0467,109.17772 1101.1827,108.31372 C 1095.8547,108.45772 1092.3987,108.60172 1088.6547,108.60172 C 1084.9107,108.60172 1078.5747,108.45772 1072.8147,108.31372 C 1071.9507,109.17772 1071.9507,112.20172 1072.8147,113.06572 C 1078.7187,113.49772 1084.3347,114.07373 1082.3187,120.12172 M 1145.5767,126.88972 C 1147.4487,126.88972 1149.0327,123.86572 1149.0327,122.13772 C 1149.0327,121.27372 1148.4567,119.68972 1147.0167,119.68972 L 1114.6167,119.68972 C 1113.0327,119.68972 1111.4487,122.56972 1111.4487,124.29772 C 1111.4487,125.30572 1112.0247,126.88972 1113.3207,126.88972 L 1145.5767,126.88972 M 1141.4007,167.92972 L 1141.4007,187.08172 C 1141.4007,188.95372 1140.5367,189.96172 1139.3847,190.82572 C 1135.6407,193.84972 1130.7447,197.01772 1126.7127,197.01772 C 1119.5127,197.01772 1116.3447,191.25772 1116.3447,186.79372 C 1116.3447,180.31373 1119.3687,173.83372 1130.0247,170.95372 L 1141.4007,167.92972 M 1141.4007,194.56972 C 1142.2647,197.59372 1144.7127,202.92172 1152.4887,202.92172 C 1159.5447,202.92172 1164.7287,197.16172 1164.7287,196.44172 C 1164.7287,195.43372 1163.4327,193.99372 1162.8567,193.99372 C 1161.9927,193.99372 1161.4167,196.29772 1158.3927,196.29772 C 1152.7767,196.29772 1152.6327,190.68171 1152.6327,184.05772 L 1152.6327,162.60172 C 1152.6327,142.15374 1141.4007,138.26572 1130.8887,138.26572 C 1119.0807,138.26572 1107.1287,146.47373 1107.1287,154.24972 C 1107.1287,157.70572 1108.8567,159.28972 1112.1687,159.28972 C 1116.3447,159.28972 1118.5047,156.40972 1118.5047,154.53772 C 1118.5047,153.52972 1118.3607,152.52172 1118.0727,151.94572 C 1117.9287,151.51372 1117.7847,150.64972 1117.7847,149.06572 C 1117.7847,144.60172 1124.2647,143.01772 1129.7367,143.01772 C 1134.6327,143.01772 1141.4007,145.46574 1141.4007,161.73772 C 1141.4007,162.74572 1140.9687,163.32172 1140.5367,163.46572 L 1128.1527,166.48972 C 1114.3287,169.94572 1104.3927,177.57773 1104.3927,187.36972 C 1104.3927,198.74571 1112.4567,202.92172 1122.5367,202.92172 C 1129.1607,202.92172 1131.8967,201.76972 1138.2327,196.87372 L 1141.1127,194.56972 L 1141.4007,194.56972 M 1168.2132,139.70572 C 1166.1972,139.70572 1165.6212,141.43372 1165.6212,142.58572 L 1165.6212,144.45772 C 1165.6212,145.17772 1165.7652,145.32172 1166.3412,145.32172 L 1174.8372,145.32172 L 1174.8372,188.66572 C 1174.8372,198.88971 1179.3012,202.92172 1185.9252,202.92172 C 1192.5492,202.92172 1199.7492,199.75371 1205.3652,193.41772 C 1205.0772,191.97772 1204.2132,191.11372 1202.7732,190.96972 C 1199.0292,193.84972 1194.7092,195.00172 1190.9652,195.00172 C 1187.0772,195.00172 1186.2132,190.68171 1186.2132,181.75372 L 1186.2132,145.32172 L 1201.1892,145.32172 C 1202.6292,145.32172 1204.6452,144.74572 1204.6452,143.44972 L 1204.6452,140.56972 C 1204.6452,139.99372 1204.2132,139.70572 1203.4932,139.70572 L 1186.2132,139.70572 L 1186.2132,134.08972 C 1186.2132,124.72973 1186.7892,118.96972 1186.7892,118.96972 C 1186.7892,117.96172 1186.2132,117.52972 1184.9172,117.52972 L 1176.5652,121.41772 C 1175.7012,121.84972 1174.4052,122.13772 1174.5492,123.14572 C 1174.8372,126.45772 1174.8372,127.75373 1174.8372,139.70572 L 1168.2132,139.70572 M 1222.4397,160.87372 C 1225.1757,144.60174 1235.2557,143.30572 1238.7117,143.30572 C 1244.1837,143.30572 1250.6637,146.32973 1250.6637,158.42572 C 1250.6637,159.72172 1250.0877,160.44172 1248.5037,160.44172 L 1222.4397,160.87372 M 1260.1677,188.08972 C 1254.8397,193.56171 1250.6637,195.86572 1242.3117,195.86572 C 1237.1277,195.86572 1231.0797,192.84171 1226.6157,185.49772 C 1223.7357,180.74572 1222.0077,174.12171 1222.0077,165.76972 L 1260.3117,166.05772 C 1262.0397,166.05772 1263.0477,165.19372 1263.0477,163.60972 C 1263.0477,151.51373 1258.7277,138.55372 1238.7117,138.55372 C 1226.1837,138.55372 1209.9117,150.50574 1209.9117,172.39372 C 1209.9117,180.45771 1211.9277,188.23373 1216.6797,193.70572 C 1221.5757,199.46571 1228.3437,202.92172 1238.7117,202.92172 C 1249.6557,202.92172 1257.4317,197.88171 1263.1917,190.39372 C 1262.7597,188.95372 1261.8957,188.23372 1260.1677,188.08972 M 1309.0257,167.92972 L 1309.0257,187.08172 C 1309.0257,188.95372 1308.1617,189.96172 1307.0097,190.82572 C 1303.2657,193.84972 1298.3697,197.01772 1294.3377,197.01772 C 1287.1377,197.01772 1283.9697,191.25772 1283.9697,186.79372 C 1283.9697,180.31373 1286.9937,173.83372 1297.6497,170.95372 L 1309.0257,167.92972 M 1309.0257,194.56972 C 1309.8897,197.59372 1312.3377,202.92172 1320.1137,202.92172 C 1327.1697,202.92172 1332.3537,197.16172 1332.3537,196.44172 C 1332.3537,195.43372 1331.0577,193.99372 1330.4817,193.99372 C 1329.6177,193.99372 1329.0417,196.29772 1326.0177,196.29772 C 1320.4017,196.29772 1320.2577,190.68171 1320.2577,184.05772 L 1320.2577,162.60172 C 1320.2577,142.15374 1309.0257,138.26572 1298.5137,138.26572 C 1286.7057,138.26572 1274.7537,146.47373 1274.7537,154.24972 C 1274.7537,157.70572 1276.4817,159.28972 1279.7937,159.28972 C 1283.9697,159.28972 1286.1297,156.40972 1286.1297,154.53772 C 1286.1297,153.52972 1285.9857,152.52172 1285.6977,151.94572 C 1285.5537,151.51372 1285.4097,150.64972 1285.4097,149.06572 C 1285.4097,144.60172 1291.8897,143.01772 1297.3617,143.01772 C 1302.2577,143.01772 1309.0257,145.46574 1309.0257,161.73772 C 1309.0257,162.74572 1308.5937,163.32172 1308.1617,163.46572 L 1295.7777,166.48972 C 1281.9537,169.94572 1272.0177,177.57773 1272.0177,187.36972 C 1272.0177,198.74571 1280.0817,202.92172 1290.1617,202.92172 C 1296.7857,202.92172 1299.5217,201.76972 1305.8577,196.87372 L 1308.7377,194.56972 L 1309.0257,194.56972" transform="matrix(8.8960769e-2,0,0,8.8960769e-2,8.4672289,128.92716)" id="text3071" style="font-size:144px;font-style:normal;font-variant:normal;font-weight:300;font-stretch:normal;letter-spacing:-3;fill:#000000;fill-opacity:1;stroke:none;stroke-width:1px;stroke-linecap:butt;stroke-linejoin:miter;stroke-opacity:1"></path></svg>
