<?xml version="1.0" encoding="UTF-8" standalone="no"?>
<svg
	xmlns="http://www.w3.org/2000/svg"
	xmlns:dc="http://purl.org/dc/elements/1.1/"
	xmlns:cc="http://creativecommons.org/ns#"
	xmlns:rdf="http://www.w3.org/1999/02/22-rdf-syntax-ns#"
	xmlns:svg="http://www.w3.org/2000/svg"
	xmlns:xlink="http://www.w3.org/1999/xlink"
	xmlns:sodipodi="http://sodipodi.sourceforge.net/DTD/sodipodi-0.dtd"
	xmlns:inkscape="http://www.inkscape.org/namespaces/inkscape"
	version="1.1"
	viewBox="0 0 135px 155px">
	<svg xmlns:dc="http://purl.org/dc/elements/1.1/" xmlns:cc="http://creativecommons.org/ns#" xmlns:rdf="http://www.w3.org/1999/02/22-rdf-syntax-ns#" xmlns:svg="http://www.w3.org/2000/svg" xmlns:sodipodi="http://sodipodi.sourceforge.net/DTD/sodipodi-0.dtd" xmlns:inkscape="http://www.inkscape.org/namespaces/inkscape" version="1.1" id="svg3857" inkscape:version="0.46" sodipodi:docname="Wikipedia-logo-v2-ee.svg" x="0px" y="0px" width="135px" height="155px" viewBox="0 0 135 155" enable-background="new 0 0 135 155" xml:space="preserve" sodipodi:version="0.32" inkscape:output_extension="org.inkscape.output.svg.inkscape" xmlns:xlink="http://www.w3.org/1999/xlink" xmlns:svgjs="http://svgjs.com/svgjs"><metadata id="metadata698"><rdf:RDF><cc:Work rdf:about=""><dc:format>image/svg+xml</dc:format><dc:type rdf:resource="http://purl.org/dc/dcmitype/StillImage"></dc:type></cc:Work></rdf:RDF></metadata><defs id="defs3"></defs><sodipodi:namedview id="namedview4848" showgrid="false" pagecolor="#ffffff" objecttolerance="10" guidetolerance="10" inkscape:cy="68.158523" inkscape:guide-bbox="true" showguides="true" inkscape:zoom="2.6237333" inkscape:pageopacity="0" gridtolerance="10" inkscape:window-height="723" bordercolor="#666666" inkscape:window-y="24" borderopacity="1" inkscape:pageshadow="2" inkscape:window-x="0" inkscape:window-width="1024" inkscape:cx="102.0671" inkscape:current-layer="svg3857" inkscape:window-maximized="0">
	<sodipodi:guide id="globe_top" orientation="0,1" position="0,140"></sodipodi:guide>
	<sodipodi:guide id="globe_left" orientation="1,0" position="16,0"></sodipodi:guide>
	<sodipodi:guide id="globe_right" orientation="1,0" position="119,0"></sodipodi:guide>
	<sodipodi:guide id="globe_bottom" orientation="0,1" position="0,47"></sodipodi:guide>
	<sodipodi:guide id="wordmark_top" orientation="0,1" position="8,40"></sodipodi:guide>
	<sodipodi:guide id="wordmark_bottom" orientation="0,1" position="8,22.5"></sodipodi:guide>
	<sodipodi:guide id="subtitle_top" orientation="0,1" position="0,17"></sodipodi:guide>
	<sodipodi:guide id="subtitle_bottom" orientation="0,1" position="0,8"></sodipodi:guide>
	<sodipodi:guide id="wordmark_left" orientation="1,0" position="8,40"></sodipodi:guide>
	<sodipodi:guide id="wordmark_right" orientation="1,0" position="127,40"></sodipodi:guide>
</sodipodi:namedview><path transform="matrix(7.4337222e-2,0,0,7.4337222e-2,3.090812,130.90413)" d="M 84.056479,141.36223 L 84.056479,189.45823 C 84.056479,192.19422 84.056478,193.77823 83.048479,193.77823 C 81.89648,193.77823 80.312475,191.18622 76.136479,185.85823 L 26.744479,122.21023 L 7.3044793,121.92223 C 6.4404802,122.78622 6.4404802,125.81023 7.3044793,126.67423 C 13.496473,127.10622 17.81648,132.14623 18.680479,135.89023 L 18.680479,195.93823 C 18.680479,208.75421 16.232469,209.61823 6.1524793,210.62623 C 5.2884802,211.49022 5.2884802,214.51423 6.1524793,215.37823 C 13.208472,215.23423 15.944486,215.09023 22.280479,215.09023 C 28.472473,215.09023 31.064487,215.23423 38.264479,215.37823 C 39.128478,214.51423 39.128478,211.49022 38.264479,210.62623 C 28.184489,209.61823 25.736479,209.04221 25.736479,195.93823 L 25.736479,151.87423 C 25.736479,146.97823 25.73648,144.81823 26.888479,144.81823 C 27.752478,144.81823 29.336482,146.40223 31.784479,149.57023 L 82.040479,213.07423 C 83.624478,215.23422 85.496482,216.53023 87.800479,216.53023 C 89.816477,216.53023 91.112479,214.80222 91.112479,212.06623 L 91.112479,141.36223 C 91.112479,128.54624 93.560489,127.68222 103.64048,126.67423 C 104.50448,125.81023 104.50448,122.78622 103.64048,121.92223 C 96.584486,122.06623 93.848473,122.21023 87.512479,122.21023 C 81.320486,122.21023 78.728472,122.06623 71.528479,121.92223 C 70.66448,122.78622 70.66448,125.81023 71.528479,126.67423 C 81.608469,127.68222 84.056479,128.25824 84.056479,141.36223 M 130.63198,238.13023 C 132.79198,234.24223 134.66398,230.06622 136.53598,225.74623 C 148.05597,198.09825 154.39199,183.12221 162.02398,166.99423 C 164.03998,162.81823 168.35998,158.21022 173.68798,157.77823 C 174.55198,156.91423 174.55198,153.89022 173.68798,153.02623 C 170.08798,153.17023 167.49598,153.31423 163.46398,153.31423 C 158.42398,153.31423 155.68797,153.17023 150.35998,153.02623 C 149.49598,153.89022 149.49598,156.91423 150.35998,157.77823 C 154.82397,158.21022 159.43198,159.07423 157.27198,164.25823 L 142.87198,197.23423 C 141.86398,199.68222 140.71198,199.97022 139.41598,197.09023 L 126.74398,167.13823 C 124.15198,161.09023 122.56799,158.49822 131.35198,157.77823 C 132.21598,156.91423 132.21598,153.89022 131.35198,153.02623 C 126.02398,153.17023 120.26397,153.31423 115.07998,153.31423 C 110.18398,153.31423 106.29598,153.17023 103.41598,153.02623 C 102.55198,153.89022 102.55198,156.91423 103.41598,157.77823 C 109.75197,158.35422 110.90398,159.50623 114.79198,168.57823 L 131.06398,206.45023 C 132.35998,209.47422 134.51998,215.95423 133.07998,219.98623 C 131.49598,224.88222 129.62398,228.77023 127.46398,233.23423 C 125.87998,236.11422 123.86398,237.41023 120.26398,237.41023 C 118.24798,237.41023 117.67198,236.97823 116.08798,236.97823 C 111.91198,236.97823 109.75198,241.29823 109.75198,243.17023 C 109.75198,246.19422 112.63198,248.49823 116.51998,248.49823 C 119.54398,248.49823 125.30398,247.34622 130.48798,238.13023 L 130.63198,238.13023 M 213.68448,181.53823 L 213.68448,200.69023 C 213.68448,202.56222 212.82048,203.57023 211.66848,204.43423 C 207.92448,207.45822 203.02848,210.62623 198.99648,210.62623 C 191.79649,210.62623 188.62848,204.86622 188.62848,200.40223 C 188.62848,193.92223 191.65249,187.44222 202.30848,184.56223 L 213.68448,181.53823 M 213.68448,208.17823 C 214.54848,211.20222 216.99649,216.53023 224.77248,216.53023 C 231.82847,216.53023 237.01248,210.77022 237.01248,210.05023 C 237.01248,209.04223 235.71648,207.60223 235.14048,207.60223 C 234.27648,207.60223 233.70048,209.90623 230.67648,209.90623 C 225.06048,209.90623 224.91648,204.29022 224.91648,197.66623 L 224.91648,176.21023 C 224.91648,155.76225 213.68447,151.87423 203.17248,151.87423 C 191.36449,151.87423 179.41248,160.08223 179.41248,167.85823 C 179.41248,171.31422 181.14048,172.89823 184.45248,172.89823 C 188.62848,172.89823 190.78848,170.01822 190.78848,168.14623 C 190.78848,167.13823 190.64448,166.13022 190.35648,165.55423 C 190.21248,165.12223 190.06848,164.25822 190.06848,162.67423 C 190.06848,158.21023 196.54848,156.62623 202.02048,156.62623 C 206.91647,156.62623 213.68448,159.07424 213.68448,175.34623 C 213.68448,176.35422 213.25248,176.93023 212.82048,177.07423 L 200.43648,180.09823 C 186.61249,183.55422 176.67648,191.18624 176.67648,200.97823 C 176.67648,212.35421 184.74049,216.53023 194.82048,216.53023 C 201.44447,216.53023 204.18049,215.37822 210.51648,210.48223 L 213.39648,208.17823 L 213.68448,208.17823 M 260.66498,167.85823 C 266.28097,162.38623 270.88898,159.36223 275.35298,159.36223 C 280.82497,159.36223 284.85698,162.81823 284.85698,172.46623 L 284.85698,197.52223 C 284.85698,209.33021 283.70497,210.05023 275.92898,210.62623 C 275.20898,211.49022 275.20898,214.51423 275.92898,215.37823 C 281.97697,215.23423 284.85699,215.09023 290.61698,215.09023 C 296.52097,215.09023 298.53699,215.23423 304.72898,215.37823 C 305.44898,214.51423 305.44898,211.49022 304.72898,210.62623 C 297.52899,210.05023 296.23298,209.33021 296.23298,197.52223 L 296.23298,174.62623 C 296.23298,172.61023 296.23298,170.59422 296.08898,168.86623 C 303.00097,161.23423 308.61698,159.36223 314.23298,159.36223 C 319.70497,159.36223 323.16098,162.53023 323.16098,172.17823 L 323.16098,197.52223 C 323.16098,209.33021 321.72097,210.05023 314.23298,210.62623 C 313.51298,211.49022 313.51298,214.51423 314.23298,215.37823 C 320.28097,215.23423 323.16099,215.09023 328.92098,215.09023 C 334.82497,215.09023 337.56099,215.23423 343.75298,215.37823 C 344.47298,214.51423 344.47298,211.49022 343.75298,210.62623 C 335.83299,210.05023 334.53698,209.33021 334.53698,197.52223 L 334.53698,174.77023 C 334.53698,161.95424 332.08897,151.87423 319.41698,151.87423 C 311.92899,151.87423 304.00897,154.61023 296.52098,162.53023 C 296.08898,162.96222 295.22498,163.68222 294.93698,162.53023 C 293.49698,156.62623 288.02497,151.87423 280.53698,151.87423 C 272.18499,151.87423 265.84897,156.91423 259.51298,163.53823 C 258.93698,164.11422 258.07298,165.55422 258.07298,163.53823 C 258.07298,159.21823 258.79298,152.59423 258.79298,152.59423 C 258.79298,151.87423 258.21698,151.44223 257.06498,151.44223 C 252.88898,153.02622 247.12897,154.32223 237.19298,155.61823 C 236.90498,156.48222 237.19298,158.78623 237.48098,159.65023 C 245.25697,160.51422 246.84098,161.09023 246.84098,169.44223 L 246.84098,197.52223 C 246.84098,209.33021 244.96897,210.05023 237.04898,210.62623 C 236.18498,211.49022 236.18498,214.51423 237.04898,215.37823 C 242.95297,215.23423 246.40899,215.09023 252.60098,215.09023 C 258.21697,215.09023 260.66499,215.23423 266.71298,215.37823 C 267.57698,214.51423 267.57698,211.49022 266.71298,210.62623 C 259.51299,209.90623 258.21698,209.33021 258.21698,197.52223 L 258.21698,173.90623 C 258.21698,170.88223 259.51298,169.15422 260.66498,167.85823 M 359.37973,174.48223 C 362.11573,158.21024 372.19573,156.91423 375.65173,156.91423 C 381.12372,156.91423 387.60373,159.93824 387.60373,172.03423 C 387.60373,173.33022 387.02773,174.05023 385.44373,174.05023 L 359.37973,174.48223 M 397.10773,201.69823 C 391.77973,207.17022 387.60372,209.47423 379.25173,209.47423 C 374.06773,209.47423 368.01972,206.45022 363.55573,199.10623 C 360.67573,194.35423 358.94773,187.73022 358.94773,179.37823 L 397.25173,179.66623 C 398.97973,179.66623 399.98773,178.80222 399.98773,177.21823 C 399.98773,165.12224 395.66771,152.16223 375.65173,152.16223 C 363.12374,152.16223 346.85173,164.11425 346.85173,186.00223 C 346.85173,194.06622 348.86773,201.84223 353.61973,207.31423 C 358.51572,213.07422 365.28374,216.53023 375.65173,216.53023 C 386.59572,216.53023 394.37174,211.49022 400.13173,204.00223 C 399.69973,202.56223 398.83573,201.84223 397.10773,201.69823 M 452.45373,197.23423 C 452.45373,199.97022 452.16573,201.12223 450.14973,202.85023 C 444.82173,207.45822 440.21373,209.76223 436.61373,209.76223 C 428.83774,209.76223 420.77373,201.26621 420.77373,183.26623 C 420.77373,172.89824 422.78973,167.13822 424.94973,164.11423 C 429.41372,157.34623 435.46173,156.91423 438.34173,156.91423 C 443.52572,156.91423 447.12573,158.78623 450.00573,162.09823 C 452.02173,164.40222 452.45373,165.41023 452.45373,169.87423 L 452.45373,197.23423 M 450.86973,207.89023 C 451.44573,207.31423 452.59773,207.02623 452.59773,208.03423 C 452.59773,211.49022 454.18173,216.53023 454.18173,216.53023 C 455.33373,216.96222 455.76573,216.81822 456.91773,216.53023 C 460.08573,213.93823 465.55774,211.77822 474.34173,210.77023 C 475.20573,209.90623 475.20573,207.74622 474.34173,206.88223 C 465.12574,206.16223 463.82973,203.42622 463.82973,196.37023 L 463.82973,131.13823 C 463.82973,121.77823 464.40573,116.01823 464.40573,116.01823 C 464.40573,115.01023 463.82973,114.57823 462.53373,114.57823 C 458.93373,116.01822 448.13372,118.03423 442.37373,118.46623 C 442.08573,119.61822 442.37373,121.92223 443.23773,122.78623 C 450.72572,123.21822 452.45373,122.49824 452.45373,134.59423 L 452.45373,153.02623 C 452.45373,154.03422 452.16573,154.32223 451.15773,154.32223 C 450.58173,154.32223 444.67772,151.87423 439.92573,151.87423 C 430.42174,151.87423 424.08572,155.04223 418.32573,160.51423 C 412.13374,166.70622 408.38973,175.20224 408.38973,185.85823 C 408.38973,203.57021 417.31774,216.53023 432.86973,216.53023 C 438.48572,216.53023 443.81374,213.65022 450.86973,207.89023 M 480.40148,151.44223 C 479.96948,151.44223 479.53748,152.01823 479.53748,152.30623 C 479.39348,158.78622 478.52948,164.25823 477.37748,171.31423 C 478.52948,171.89022 480.40148,172.17822 482.12948,171.74623 C 485.00948,161.23424 489.47348,158.21023 493.79348,158.21023 L 513.66548,158.21023 L 478.24148,210.48223 C 477.08948,212.21022 476.94548,212.64223 476.94548,213.36223 C 476.94548,214.37022 478.09748,215.09023 480.25748,215.09023 L 525.18548,215.09023 C 525.90548,210.62623 527.34548,203.85822 529.79348,195.50623 C 528.78548,195.07423 527.20148,194.49823 525.47348,194.49823 L 523.60148,198.67423 C 520.14548,206.30622 517.69747,210.19423 509.34548,210.19423 L 490.19348,210.19423 L 524.75348,159.36223 C 527.20148,155.61823 527.92148,153.89022 527.92148,153.31423 C 527.92148,152.73823 527.20148,152.30623 526.19348,152.30623 C 525.47348,152.30623 520.86548,153.31423 516.68948,153.31423 L 487.45748,153.31423 C 482.70548,153.31423 482.84948,152.01822 480.40148,151.44223 M 543.04873,169.44223 L 543.04873,197.52223 C 543.04873,209.47421 541.32072,210.05023 532.39273,210.62623 C 531.52873,211.49022 531.52873,214.51423 532.39273,215.37823 C 538.44072,215.23423 543.04874,215.09023 548.80873,215.09023 C 554.71272,215.09023 560.04074,215.23423 566.23273,215.37823 C 567.09673,214.51423 567.09673,211.49022 566.23273,210.62623 C 556.15274,209.90623 554.42473,209.47421 554.42473,197.52223 L 554.42473,177.50623 C 554.42473,173.76223 556.15273,170.45022 557.88073,167.85823 C 559.46473,165.55423 562.77673,160.80223 564.50473,160.80223 C 565.51273,160.80223 566.66473,160.94623 567.52873,161.81023 C 568.96873,163.25022 570.40873,165.98623 573.43273,165.98623 C 576.88873,165.98623 580.20073,162.38622 580.20073,158.78623 C 580.20073,156.05023 577.60872,151.87423 571.56073,151.87423 C 564.79274,151.87423 558.88873,158.21023 555.57673,163.82623 C 554.71273,165.41022 554.28073,164.69022 554.28073,163.97023 C 554.28073,159.36223 555.00073,152.45023 555.00073,152.45023 C 555.00073,151.87423 554.28073,151.44223 553.12873,151.44223 C 549.09673,153.02622 543.33672,154.32223 533.40073,155.61823 C 533.11273,156.48222 533.11273,158.78623 533.68873,159.65023 C 541.46472,160.37022 543.04873,161.52223 543.04873,169.44223 M 582.86523,185.57023 C 582.86523,200.25821 592.80125,216.53023 613.10523,216.53023 C 634.56121,216.53023 643.63323,198.67421 643.63323,184.27423 C 643.63323,169.29824 635.71321,151.87423 613.39323,151.87423 C 593.95325,151.87423 582.86523,167.28224 582.86523,185.57023 M 611.80923,156.62623 C 624.19322,156.62623 631.24923,167.71425 631.24923,188.88223 C 631.24923,207.89021 622.46522,211.77823 615.69723,211.77823 C 600.72124,211.77823 595.24923,193.34621 595.24923,182.25823 C 595.24923,169.73024 599.71324,156.62623 611.80923,156.62623 M 691.45973,174.91423 C 691.45973,188.30621 684.69172,191.04223 679.36373,191.04223 C 667.26774,191.04223 665.97173,180.81822 665.97173,171.60223 C 665.97173,161.52224 669.57174,156.33823 677.49173,156.33823 C 686.56372,156.33823 691.45973,162.96224 691.45973,174.91423 M 664.53173,216.53023 C 666.11573,216.96222 668.41973,217.25023 670.29173,217.25023 C 674.75572,217.25023 678.78773,216.81823 680.80373,216.81823 C 688.00372,216.81823 694.05173,216.96223 698.22773,219.26623 C 703.84372,222.43422 705.57173,224.45023 705.57173,228.19423 C 705.57173,238.56221 690.30772,244.03423 677.34773,244.03423 C 672.16373,244.03423 660.06773,239.85822 660.06773,230.06623 C 660.06773,225.17023 660.35573,221.57022 664.53173,216.53023 M 709.45973,159.36223 C 712.19573,159.36223 714.78773,156.77022 714.78773,153.89023 C 714.78773,150.86623 712.05173,148.56223 708.16373,148.56223 C 704.41973,148.56223 697.50773,151.01023 693.76373,155.90623 C 692.03573,154.75423 687.28372,151.87423 678.78773,151.87423 C 665.97174,151.87423 654.16373,160.51424 654.16373,173.76223 C 654.16373,181.53822 657.61973,186.00223 661.65173,189.89023 C 657.61973,193.34622 655.31573,199.53823 655.31573,204.43423 C 655.31573,209.61822 658.19573,213.65023 661.93973,215.52223 C 654.16374,220.13022 650.13173,226.75423 650.13173,232.94623 C 650.13173,245.47421 661.93974,249.36223 673.02773,249.36223 C 692.46771,249.36223 713.49173,240.00221 713.49173,224.45023 C 713.49173,219.84223 711.33173,216.24222 707.15573,212.78623 C 701.53973,208.17823 691.45972,208.03423 686.13173,208.03423 C 683.53973,208.03423 679.93973,208.32223 676.48373,208.75423 C 674.32373,208.89823 672.88373,209.04223 672.16373,209.04223 C 667.98773,209.04223 662.94773,207.02622 662.94773,200.83423 C 662.94773,197.95423 663.81173,194.93022 665.53973,192.48223 C 668.99573,194.49822 673.02773,195.50623 678.64373,195.50623 C 691.31572,195.50623 702.97973,187.58621 702.97973,173.47423 C 702.97973,166.70623 700.96373,162.81822 696.78773,158.49823 C 697.79573,157.05823 700.67573,155.04223 702.54773,155.04223 C 703.55573,155.04223 704.56373,155.47423 705.42773,156.77023 C 706.00373,157.92222 707.87573,159.36223 709.45973,159.36223 M 738.57973,162.81823 C 742.32373,159.50623 746.64373,158.21023 750.81973,158.21023 C 759.60372,158.21023 766.80373,168.86624 766.80373,182.83423 C 766.80373,199.25021 760.17972,211.63423 746.49973,211.63423 C 742.03573,211.63423 739.01173,208.46622 736.13173,204.86623 L 736.13173,168.86623 C 736.13173,165.84223 736.70773,164.54622 738.57973,162.81823 M 737.57173,158.35423 C 736.56373,159.21822 736.13173,158.93022 736.13173,157.63423 L 736.13173,131.13823 C 736.13173,121.77823 736.70773,116.01823 736.70773,116.01823 C 736.70773,115.01023 736.13173,114.57823 734.83573,114.57823 C 731.23573,116.01822 720.43572,118.03423 714.67573,118.46623 C 714.38773,119.61822 714.67573,121.92223 715.53973,122.78623 C 723.02772,123.21822 724.75573,122.49824 724.75573,134.59423 L 724.75573,204.86623 C 724.75573,210.48222 724.61173,213.07423 724.17973,215.09023 C 724.89973,216.24222 725.61973,216.81823 727.34773,216.81823 C 728.21173,216.09823 729.65173,214.65822 730.65973,213.36223 C 732.24373,211.63423 733.10773,211.63423 734.69173,213.07423 C 737.85973,215.81022 742.17973,216.53023 747.36373,216.53023 C 762.05171,216.53023 779.18773,203.1382 779.18773,180.24223 C 779.18773,162.67424 766.22772,151.87423 753.69973,151.87423 C 747.50774,151.87423 742.03572,154.32223 737.57173,158.35423 M 822.59073,181.53823 L 822.59073,200.69023 C 822.59073,202.56222 821.72673,203.57023 820.57473,204.43423 C 816.83073,207.45822 811.93473,210.62623 807.90273,210.62623 C 800.70274,210.62623 797.53473,204.86622 797.53473,200.40223 C 797.53473,193.92223 800.55874,187.44222 811.21473,184.56223 L 822.59073,181.53823 M 822.59073,208.17823 C 823.45473,211.20222 825.90274,216.53023 833.67873,216.53023 C 840.73472,216.53023 845.91873,210.77022 845.91873,210.05023 C 845.91873,209.04223 844.62273,207.60223 844.04673,207.60223 C 843.18273,207.60223 842.60673,209.90623 839.58273,209.90623 C 833.96673,209.90623 833.82273,204.29022 833.82273,197.66623 L 833.82273,176.21023 C 833.82273,155.76225 822.59072,151.87423 812.07873,151.87423 C 800.27074,151.87423 788.31873,160.08223 788.31873,167.85823 C 788.31873,171.31422 790.04673,172.89823 793.35873,172.89823 C 797.53473,172.89823 799.69473,170.01822 799.69473,168.14623 C 799.69473,167.13823 799.55073,166.13022 799.26273,165.55423 C 799.11873,165.12223 798.97473,164.25822 798.97473,162.67423 C 798.97473,158.21023 805.45473,156.62623 810.92673,156.62623 C 815.82272,156.62623 822.59073,159.07424 822.59073,175.34623 C 822.59073,176.35422 822.15873,176.93023 821.72673,177.07423 L 809.34273,180.09823 C 795.51874,183.55422 785.58273,191.18624 785.58273,200.97823 C 785.58273,212.35421 793.64674,216.53023 803.72673,216.53023 C 810.35072,216.53023 813.08674,215.37822 819.42273,210.48223 L 822.30273,208.17823 L 822.59073,208.17823 M 855.89123,197.52223 C 855.89123,209.47421 854.30722,210.19423 845.52323,210.62623 C 844.65923,211.49022 844.65923,214.51423 845.52323,215.37823 C 851.57122,215.23423 855.31524,215.09023 861.65123,215.09023 C 867.84322,215.09023 871.44324,215.23423 877.63523,215.37823 C 878.49923,214.51423 878.49923,211.49022 877.63523,210.62623 C 868.85124,210.19423 867.26723,209.47421 867.26723,197.52223 L 867.26723,131.13823 C 867.26723,121.77823 867.84323,116.01823 867.84323,116.01823 C 867.84323,115.01023 867.26723,114.57823 865.97123,114.57823 C 862.37123,116.01822 851.57122,118.03423 845.81123,118.46623 C 845.52323,119.61822 845.81123,121.92223 846.67523,122.78623 C 854.16322,123.21822 855.89123,122.49824 855.89123,134.59423 L 855.89123,197.52223 M 917.79598,132.57823 C 915.05998,132.57823 912.61198,131.57022 910.30798,129.84223 C 907.42798,127.82623 904.25998,124.94623 899.93998,124.94623 C 893.74799,124.94623 890.43598,130.56223 888.41998,139.05823 C 889.28398,139.92222 890.72398,140.06622 892.30798,139.77823 C 893.74798,135.02623 895.18798,132.86623 898.93198,132.86623 C 901.37998,132.86623 904.11598,134.01823 906.70798,135.60223 C 909.73198,137.61822 912.75598,140.21023 915.92398,140.21023 C 922.54797,140.21023 926.72398,134.59422 928.45198,125.95423 C 927.58798,125.37823 926.14798,124.94623 924.56398,125.09023 C 922.54798,131.13822 920.96398,132.57823 917.79598,132.57823 M 894.03598,174.48223 C 896.77198,158.21024 906.85198,156.91423 910.30798,156.91423 C 915.77997,156.91423 922.25998,159.93824 922.25998,172.03423 C 922.25998,173.33022 921.68398,174.05023 920.09998,174.05023 L 894.03598,174.48223 M 931.76398,201.69823 C 926.43598,207.17022 922.25997,209.47423 913.90798,209.47423 C 908.72398,209.47423 902.67597,206.45022 898.21198,199.10623 C 895.33198,194.35423 893.60398,187.73022 893.60398,179.37823 L 931.90798,179.66623 C 933.63598,179.66623 934.64398,178.80222 934.64398,177.21823 C 934.64398,165.12224 930.32396,152.16223 910.30798,152.16223 C 897.77999,152.16223 881.50798,164.11425 881.50798,186.00223 C 881.50798,194.06622 883.52398,201.84223 888.27598,207.31423 C 893.17197,213.07422 899.93999,216.53023 910.30798,216.53023 C 921.25197,216.53023 929.02799,211.49022 934.78798,204.00223 C 934.35598,202.56223 933.49198,201.84223 931.76398,201.69823 M 970.49823,195.21823 C 971.07423,202.27422 971.50623,209.04223 971.50623,215.09023 C 972.94623,214.80223 974.38623,214.65823 975.10623,214.65823 C 976.11423,214.65823 976.97823,214.65823 977.98623,214.94623 C 981.87423,215.95422 985.76223,216.53023 991.09023,216.53023 C 999.15422,216.53023 1013.9862,212.64221 1013.9862,198.38623 C 1013.9862,188.59424 1006.7862,182.97822 997.13823,179.23423 C 988.49824,175.92223 982.73823,173.76222 982.73823,165.84223 C 982.73823,159.93823 987.92223,156.62623 992.81823,156.62623 C 995.98623,156.62623 1004.3382,157.77824 1006.2102,170.01823 C 1007.0742,170.88222 1009.9542,170.73822 1010.8182,169.87423 C 1010.8182,164.69023 1011.5382,159.36222 1011.6822,154.61023 C 1007.2182,153.89023 1000.3062,151.87423 992.81823,151.87423 C 982.16224,151.87423 972.51423,158.78623 972.51423,168.00223 C 972.51423,178.51421 977.26624,182.97823 988.35423,187.58623 C 1000.1622,192.62622 1003.0422,195.50623 1003.0422,201.69823 C 1003.0422,208.75422 996.13022,211.77823 990.80223,211.77823 C 985.18623,211.77823 982.01823,209.90622 980.57823,208.32223 C 977.12223,205.01023 975.82623,198.67422 974.96223,195.07423 C 974.09823,194.21023 971.36223,194.35423 970.49823,195.21823 M 1027.6712,128.83423 C 1027.6712,132.57822 1031.1272,136.32223 1034.5832,136.32223 C 1038.6152,136.32223 1042.0712,132.57822 1042.0712,129.41023 C 1042.0712,125.95423 1039.0472,121.92223 1035.1592,121.92223 C 1031.7032,121.92223 1027.6712,125.37823 1027.6712,128.83423 M 1040.7752,197.52223 L 1040.7752,168.86623 C 1040.7752,161.66623 1041.3512,152.45023 1041.3512,152.45023 C 1041.3512,151.87423 1040.6312,151.44223 1039.4792,151.44223 C 1035.3032,153.02622 1029.6872,154.32223 1019.7512,155.61823 C 1019.4632,156.48222 1019.7512,158.78623 1020.0392,159.65023 C 1027.8152,160.51422 1029.3992,161.23423 1029.3992,169.44223 L 1029.3992,197.52223 C 1029.3992,209.47421 1027.8152,209.90623 1019.0312,210.62623 C 1018.1672,211.49022 1018.1672,214.51423 1019.0312,215.37823 C 1025.0792,215.23423 1028.8232,215.09023 1035.1592,215.09023 C 1041.3512,215.09023 1044.9512,215.23423 1051.1432,215.37823 C 1052.0072,214.51423 1052.0072,211.49022 1051.1432,210.62623 C 1042.3592,210.05023 1040.7752,209.47421 1040.7752,197.52223 M 1140.021,199.25023 L 1140.021,174.62623 C 1140.021,161.81024 1137.141,151.87423 1124.181,151.87423 C 1116.837,151.87423 1109.925,153.89024 1100.709,164.69023 L 1100.277,164.69023 L 1100.709,151.87423 C 1100.709,151.58623 1100.421,151.44223 1100.133,151.44223 C 1095.957,153.02622 1090.341,154.32223 1080.261,155.90623 L 1080.549,159.36223 L 1086.741,159.93823 C 1088.757,160.22622 1089.909,161.66623 1089.909,168.86623 L 1089.909,204.72223 C 1089.909,208.89822 1088.613,210.48223 1083.717,210.91423 L 1080.981,211.20223 C 1080.261,211.34623 1079.829,211.63423 1079.829,212.35423 L 1079.829,215.09023 L 1080.117,215.37823 C 1080.117,215.37823 1089.189,215.09023 1095.093,215.09023 C 1100.709,215.09023 1109.781,215.37823 1109.781,215.37823 L 1110.069,215.09023 L 1110.069,212.35423 C 1110.069,211.63423 1109.493,211.34623 1108.917,211.20223 L 1106.901,210.91423 C 1102.293,210.33823 1100.709,208.89822 1100.709,204.72223 L 1100.709,169.87423 C 1108.053,161.23423 1113.525,158.78623 1119.861,158.78623 C 1127.493,158.78623 1129.221,163.53824 1129.221,173.61823 L 1129.221,204.14623 C 1129.221,219.84221 1130.661,241.73023 1124.325,241.73023 C 1122.741,241.73023 1121.877,240.72222 1121.013,239.42623 C 1119.861,237.98623 1118.421,236.25823 1114.677,236.25823 C 1113.093,236.25823 1110.357,237.98623 1110.357,240.57823 C 1110.357,244.89822 1115.253,246.91423 1117.845,246.91423 C 1120.725,246.91423 1125.621,246.91422 1130.949,242.45023 C 1137.717,236.97823 1140.021,222.5782 1140.021,199.25023 M 1178.303,216.53023 C 1183.919,216.53023 1189.823,213.65022 1196.879,207.89023 C 1197.455,207.31423 1198.607,207.02623 1198.607,208.03423 C 1198.607,211.49022 1200.191,216.53023 1200.191,216.53023 C 1201.199,216.96222 1201.775,216.96222 1202.927,216.53023 C 1206.095,213.93823 1211.567,211.77822 1220.351,210.77023 C 1221.215,209.90623 1221.215,207.74622 1220.351,206.88223 C 1211.135,206.16223 1209.839,203.42622 1209.839,196.37023 L 1209.839,168.72223 C 1209.839,164.40223 1210.415,154.03423 1210.415,154.03423 C 1210.415,153.45823 1209.983,153.02623 1209.263,153.02623 C 1208.543,153.17023 1206.383,153.31423 1204.223,153.31423 C 1199.615,153.31423 1194.863,153.17023 1189.535,153.02623 C 1188.671,153.89022 1188.671,156.91423 1189.535,157.77823 C 1196.591,158.21022 1198.463,159.93823 1198.463,169.44223 L 1198.463,197.23423 C 1198.463,199.97022 1198.175,201.12223 1196.159,202.85023 C 1190.831,207.45822 1186.223,209.76223 1182.623,209.76223 C 1178.303,209.76223 1171.103,207.74621 1171.103,194.93023 L 1171.103,168.72223 C 1171.103,164.40223 1171.679,154.03423 1171.679,154.03423 C 1171.679,153.45823 1171.247,153.02623 1170.527,153.02623 C 1169.807,153.17023 1167.647,153.31423 1165.487,153.31423 C 1160.879,153.31423 1156.127,153.17023 1150.799,153.02623 C 1149.935,153.89022 1149.935,156.91423 1150.799,157.77823 C 1157.711,158.35422 1159.727,159.93823 1159.727,169.29823 L 1159.727,196.94623 C 1159.727,206.88222 1164.047,216.53023 1178.303,216.53023 M 1273.0712,167.85823 C 1278.6872,162.38623 1283.2952,159.36223 1287.7592,159.36223 C 1293.2312,159.36223 1297.2632,162.81823 1297.2632,172.46623 L 1297.2632,197.52223 C 1297.2632,209.33021 1296.1112,210.05023 1288.3352,210.62623 C 1287.6152,211.49022 1287.6152,214.51423 1288.3352,215.37823 C 1294.3832,215.23423 1297.2632,215.09023 1303.0232,215.09023 C 1308.9272,215.09023 1310.9432,215.23423 1317.1352,215.37823 C 1317.8552,214.51423 1317.8552,211.49022 1317.1352,210.62623 C 1309.9352,210.05023 1308.6392,209.33021 1308.6392,197.52223 L 1308.6392,174.62623 C 1308.6392,172.61023 1308.6392,170.59422 1308.4952,168.86623 C 1315.4072,161.23423 1321.0232,159.36223 1326.6392,159.36223 C 1332.1112,159.36223 1335.5672,162.53023 1335.5672,172.17823 L 1335.5672,197.52223 C 1335.5672,209.33021 1334.1272,210.05023 1326.6392,210.62623 C 1325.9192,211.49022 1325.9192,214.51423 1326.6392,215.37823 C 1332.6872,215.23423 1335.5672,215.09023 1341.3272,215.09023 C 1347.2312,215.09023 1349.9672,215.23423 1356.1592,215.37823 C 1356.8792,214.51423 1356.8792,211.49022 1356.1592,210.62623 C 1348.2392,210.05023 1346.9432,209.33021 1346.9432,197.52223 L 1346.9432,174.77023 C 1346.9432,161.95424 1344.4952,151.87423 1331.8232,151.87423 C 1324.3352,151.87423 1316.4152,154.61023 1308.9272,162.53023 C 1308.4952,162.96222 1307.6312,163.68222 1307.3432,162.53023 C 1305.9032,156.62623 1300.4312,151.87423 1292.9432,151.87423 C 1284.5912,151.87423 1278.2552,156.91423 1271.9192,163.53823 C 1271.3432,164.11422 1270.4792,165.55422 1270.4792,163.53823 C 1270.4792,159.21823 1271.1992,152.59423 1271.1992,152.59423 C 1271.1992,151.87423 1270.6232,151.44223 1269.4712,151.44223 C 1265.2952,153.02622 1259.5352,154.32223 1249.5992,155.61823 C 1249.3112,156.48222 1249.5992,158.78623 1249.8872,159.65023 C 1257.6632,160.51422 1259.2472,161.09023 1259.2472,169.44223 L 1259.2472,197.52223 C 1259.2472,209.33021 1257.3752,210.05023 1249.4552,210.62623 C 1248.5912,211.49022 1248.5912,214.51423 1249.4552,215.37823 C 1255.3592,215.23423 1258.8152,215.09023 1265.0072,215.09023 C 1270.6232,215.09023 1273.0712,215.23423 1279.1192,215.37823 C 1279.9832,214.51423 1279.9832,211.49022 1279.1192,210.62623 C 1271.9192,209.90623 1270.6232,209.33021 1270.6232,197.52223 L 1270.6232,173.90623 C 1270.6232,170.88223 1271.9192,169.15422 1273.0712,167.85823 M 1355.802,166.41823 C 1356.378,167.71422 1357.53,168.29023 1358.826,168.43423 C 1363.722,162.09823 1369.914,158.93023 1376.106,158.93023 C 1386.618,158.93023 1395.402,169.58624 1395.402,186.43423 C 1395.402,202.27421 1388.49,211.77823 1378.986,211.77823 C 1370.49,211.77823 1369.338,206.73822 1368.762,201.69823 C 1368.186,197.81023 1366.314,196.51423 1363.29,196.51423 C 1360.266,196.51423 1356.234,198.38623 1356.234,202.85023 C 1356.234,210.77022 1364.442,216.53023 1378.266,216.53023 C 1392.522,216.53023 1407.786,203.7142 1407.786,183.26623 C 1407.786,164.69024 1397.418,151.87423 1379.274,151.87423 C 1370.634,151.87423 1363.002,154.61024 1355.802,166.41823 M 1451.6412,197.52223 C 1451.6412,209.47421 1450.0572,210.19423 1441.2732,210.62623 C 1440.4092,211.49022 1440.4092,214.51423 1441.2732,215.37823 C 1447.3212,215.23423 1451.0652,215.09023 1457.4012,215.09023 C 1463.5932,215.09023 1467.1932,215.23423 1473.3852,215.37823 C 1474.2492,214.51423 1474.2492,211.49022 1473.3852,210.62623 C 1464.6012,210.19423 1463.0172,209.47421 1463.0172,197.52223 L 1463.0172,131.13823 C 1463.0172,121.77823 1463.5932,116.01823 1463.5932,116.01823 C 1463.5932,115.01023 1463.0172,114.57823 1461.7212,114.57823 C 1458.1212,116.01822 1447.3212,118.03423 1441.5612,118.46623 C 1441.2732,119.61822 1441.5612,121.92223 1442.4252,122.78623 C 1449.9132,123.21822 1451.6412,122.49824 1451.6412,134.59423 L 1451.6412,197.52223 M 1489.786,174.48223 C 1492.522,158.21024 1502.602,156.91423 1506.058,156.91423 C 1511.53,156.91423 1518.01,159.93824 1518.01,172.03423 C 1518.01,173.33022 1517.434,174.05023 1515.85,174.05023 L 1489.786,174.48223 M 1527.514,201.69823 C 1522.186,207.17022 1518.01,209.47423 1509.658,209.47423 C 1504.474,209.47423 1498.426,206.45022 1493.962,199.10623 C 1491.082,194.35423 1489.354,187.73022 1489.354,179.37823 L 1527.658,179.66623 C 1529.386,179.66623 1530.394,178.80222 1530.394,177.21823 C 1530.394,165.12224 1526.074,152.16223 1506.058,152.16223 C 1493.53,152.16223 1477.258,164.11425 1477.258,186.00223 C 1477.258,194.06622 1479.274,201.84223 1484.026,207.31423 C 1488.922,213.07422 1495.69,216.53023 1506.058,216.53023 C 1517.002,216.53023 1524.778,211.49022 1530.538,204.00223 C 1530.106,202.56223 1529.242,201.84223 1527.514,201.69823 M 1584.5362,197.52223 L 1584.5362,158.93023 L 1597.9282,158.93023 C 1599.2242,158.93023 1601.2402,158.35422 1601.2402,157.05823 L 1601.2402,154.17823 C 1601.2402,153.60223 1600.8082,153.31423 1600.0882,153.31423 L 1584.5362,153.31423 L 1584.5362,145.10623 C 1584.5362,122.93025 1591.1602,119.47423 1595.9122,119.47423 C 1600.2322,119.47423 1602.5362,121.20223 1604.5522,126.24223 C 1605.7042,128.83422 1607.2882,130.85023 1610.3122,130.85023 C 1612.7602,130.85023 1616.2162,127.82622 1616.2162,124.94623 C 1616.2162,122.49823 1614.6322,119.90622 1611.6082,117.60223 C 1607.8642,115.01023 1604.1202,114.57823 1598.6482,114.57823 C 1586.5522,114.57823 1573.1602,125.09025 1573.1602,147.55423 L 1573.1602,153.31423 L 1565.8162,153.31423 C 1563.2242,153.31423 1562.5042,155.04223 1562.5042,156.19423 L 1562.5042,158.06623 C 1562.5042,158.78622 1562.6482,158.93023 1563.2242,158.93023 L 1573.1602,158.93023 L 1573.1602,197.52223 C 1573.1602,209.47421 1571.5762,210.05023 1563.8002,210.62623 C 1562.9362,211.49022 1562.9362,214.51423 1563.8002,215.37823 C 1569.8482,215.23423 1573.0162,215.09023 1578.9202,215.09023 C 1585.5442,215.09023 1589.7202,215.23423 1595.9122,215.37823 C 1596.7762,214.51423 1596.7762,211.49022 1595.9122,210.62623 C 1586.1202,210.05023 1584.5362,209.47421 1584.5362,197.52223 M 1642.247,181.53823 L 1642.247,200.69023 C 1642.247,202.56222 1641.383,203.57023 1640.231,204.43423 C 1636.487,207.45822 1631.591,210.62623 1627.559,210.62623 C 1620.359,210.62623 1617.191,204.86622 1617.191,200.40223 C 1617.191,193.92223 1620.215,187.44222 1630.871,184.56223 L 1642.247,181.53823 M 1642.247,208.17823 C 1643.111,211.20222 1645.559,216.53023 1653.335,216.53023 C 1660.391,216.53023 1665.575,210.77022 1665.575,210.05023 C 1665.575,209.04223 1664.279,207.60223 1663.703,207.60223 C 1662.839,207.60223 1662.263,209.90623 1659.239,209.90623 C 1653.623,209.90623 1653.479,204.29022 1653.479,197.66623 L 1653.479,176.21023 C 1653.479,155.76225 1642.247,151.87423 1631.735,151.87423 C 1619.927,151.87423 1607.975,160.08223 1607.975,167.85823 C 1607.975,171.31422 1609.703,172.89823 1613.015,172.89823 C 1617.191,172.89823 1619.351,170.01822 1619.351,168.14623 C 1619.351,167.13823 1619.207,166.13022 1618.919,165.55423 C 1618.775,165.12223 1618.631,164.25822 1618.631,162.67423 C 1618.631,158.21023 1625.111,156.62623 1630.583,156.62623 C 1635.479,156.62623 1642.247,159.07424 1642.247,175.34623 C 1642.247,176.35422 1641.815,176.93023 1641.383,177.07423 L 1628.999,180.09823 C 1615.175,183.55422 1605.239,191.18624 1605.239,200.97823 C 1605.239,212.35421 1613.303,216.53023 1623.383,216.53023 C 1630.007,216.53023 1632.743,215.37822 1639.079,210.48223 L 1641.959,208.17823 L 1642.247,208.17823 M 1704.0595,181.53823 L 1704.0595,200.69023 C 1704.0595,202.56222 1703.1955,203.57023 1702.0435,204.43423 C 1698.2995,207.45822 1693.4035,210.62623 1689.3715,210.62623 C 1682.1715,210.62623 1679.0035,204.86622 1679.0035,200.40223 C 1679.0035,193.92223 1682.0275,187.44222 1692.6835,184.56223 L 1704.0595,181.53823 M 1704.0595,208.17823 C 1704.9235,211.20222 1707.3715,216.53023 1715.1475,216.53023 C 1722.2035,216.53023 1727.3875,210.77022 1727.3875,210.05023 C 1727.3875,209.04223 1726.0915,207.60223 1725.5155,207.60223 C 1724.6515,207.60223 1724.0755,209.90623 1721.0515,209.90623 C 1715.4355,209.90623 1715.2915,204.29022 1715.2915,197.66623 L 1715.2915,176.21023 C 1715.2915,155.76225 1704.0595,151.87423 1693.5475,151.87423 C 1681.7395,151.87423 1669.7875,160.08223 1669.7875,167.85823 C 1669.7875,171.31422 1671.5155,172.89823 1674.8275,172.89823 C 1679.0035,172.89823 1681.1635,170.01822 1681.1635,168.14623 C 1681.1635,167.13823 1681.0195,166.13022 1680.7315,165.55423 C 1680.5875,165.12223 1680.4435,164.25822 1680.4435,162.67423 C 1680.4435,158.21023 1686.9235,156.62623 1692.3955,156.62623 C 1697.2915,156.62623 1704.0595,159.07424 1704.0595,175.34623 C 1704.0595,176.35422 1703.6275,176.93023 1703.1955,177.07423 L 1690.8115,180.09823 C 1676.9875,183.55422 1667.0515,191.18624 1667.0515,200.97823 C 1667.0515,212.35421 1675.1155,216.53023 1685.1955,216.53023 C 1691.8195,216.53023 1694.5555,215.37822 1700.8915,210.48223 L 1703.7715,208.17823 L 1704.0595,208.17823" id="tagline" style="font-size:144px;font-style:normal;font-variant:normal;font-weight:normal;font-stretch:normal;letter-spacing:-4;word-spacing:-5;fill:#000000;fill-opacity:1;stroke:none;stroke-width:1px;stroke-linecap:butt;stroke-linejoin:miter;stroke-opacity:1;font-family:Linux Libertine O;-inkscape-font-specification:Linux Libertine O"></path><g id="Wikipedia" transform="translate(2.238,0)"><path id="path3898" d="M 18.757,118.893 C 18.757,118.893 18.39,118.147 18.265,117.899 C 17.431,116.247 17.449,116.159 16.606,116.047 C 16.37,116.016 16.248,115.986 16.248,115.869 L 16.248,115.346 L 16.319,115.295 C 17.842,115.293 21.231,115.293 21.231,115.293 L 21.361,115.336 L 21.361,115.857 C 21.361,115.976 21.276,116.037 21.103,116.037 L 20.747,116.088 C 19.847,116.158 19.994,116.526 20.592,117.717 L 26.269,129.332 L 26.463,129.385 L 31.503,117.424 C 31.678,116.942 31.651,116.6 31.426,116.399 C 31.2,116.204 31.041,116.087 30.457,116.063 L 29.984,116.04 C 29.926,116.04 29.871,116.019 29.818,115.979 C 29.766,115.942 29.739,115.893 29.739,115.834 L 29.739,115.336 L 29.811,115.285 C 31.231,115.285 35.505,115.285 35.505,115.285 L 35.563,115.336 L 35.563,115.834 C 35.563,115.969 35.486,116.037 35.334,116.037 C 34.588,116.07 34.035,116.232 33.677,116.521 C 33.318,116.812 33.038,117.212 32.837,117.734 C 32.837,117.734 28.202,128.342 26.616,131.869 C 26.009,133.025 25.412,132.919 24.887,131.836 C 23.778,129.552 20.655,122.623 20.655,122.623 L 18.757,118.893 z"></path><path id="path3900" d="M 27.853,115.287 C 27.853,115.287 24.65,115.277 23.224,115.287 L 23.153,115.338 L 23.153,115.834 C 23.153,115.895 23.179,115.943 23.231,115.98 C 23.284,116.019 23.338,116.039 23.396,116.039 L 23.625,116.064 C 24.208,116.087 24.476,116.241 24.556,116.336 C 24.695,116.506 24.764,116.69 24.427,117.425 L 18.447,129.353 L 18.29,129.312 C 18.29,129.312 14.007,120.281 12.767,117.259 C 12.638,116.947 12.58,116.714 12.58,116.571 C 12.58,116.264 12.857,116.098 13.411,116.075 L 14.057,116.048 C 14.228,116.048 14.315,115.982 14.315,115.845 L 14.315,115.349 L 14.257,115.298 C 14.257,115.298 9.127,115.292 8.067,115.298 L 8.009,115.349 L 8.009,115.87 C 8.009,115.964 8.128,116.022 8.367,116.048 C 9.018,116.083 9.446,116.187 9.652,116.36 C 9.857,116.535 10.074,116.977 10.362,117.666 C 11.919,121.406 15.227,128.08 16.838,131.881 C 17.302,132.919 17.885,133.08 18.593,131.849 C 19.819,129.576 23.143,122.631 23.143,122.631 L 25.761,117.735 C 26.066,117.217 26.36,116.756 26.509,116.542 C 26.782,116.149 26.935,116.075 27.681,116.04 C 27.833,116.04 27.91,115.972 27.91,115.835 L 27.91,115.339 L 27.853,115.287 z"></path><path id="path3904" d="M 37.592,130.77 C 37.592,131.342 37.852,131.68 38.684,131.758 L 39.23,131.811 C 39.308,131.811 39.386,131.862 39.386,131.966 L 39.386,132.512 L 39.36,132.565 C 39.36,132.565 37.384,132.512 36.578,132.512 C 35.85,132.512 33.822,132.565 33.822,132.565 L 33.77,132.512 L 33.77,131.966 C 33.77,131.862 33.848,131.811 33.952,131.811 L 34.472,131.758 C 35.33,131.68 35.59,131.264 35.59,130.77 L 35.59,122.112 C 35.59,121.542 35.277,121.383 34.472,121.307 L 33.952,121.253 C 33.848,121.253 33.77,121.229 33.77,121.149 L 33.77,120.55 L 33.796,120.498 C 33.796,120.498 35.85,120.55 36.656,120.55 C 37.358,120.55 39.36,120.498 39.36,120.498 L 39.386,120.55 L 39.386,121.122 C 39.386,121.2 39.334,121.252 39.23,121.252 L 38.684,121.305 C 37.878,121.382 37.592,121.591 37.592,122.112 L 37.592,130.77 z"></path><path id="path3906" d="M 45.265,130.77 C 45.265,131.342 45.603,131.628 46.357,131.758 L 46.643,131.811 C 46.721,131.836 46.799,131.862 46.799,131.966 L 46.799,132.512 L 46.773,132.565 C 46.773,132.565 45.135,132.512 44.355,132.512 C 43.627,132.512 41.495,132.565 41.495,132.565 L 41.443,132.512 L 41.443,131.966 C 41.443,131.862 41.521,131.811 41.625,131.811 L 42.145,131.758 C 42.925,131.68 43.263,131.264 43.263,130.77 L 43.263,122.112 C 43.263,121.542 42.977,121.383 42.145,121.307 L 41.625,121.253 C 41.521,121.253 41.443,121.229 41.443,121.149 L 41.443,120.55 L 41.469,120.498 C 41.469,120.498 43.601,120.55 44.407,120.55 C 45.136,120.55 46.773,120.498 46.773,120.498 L 46.799,120.55 L 46.799,121.122 C 46.799,121.2 46.747,121.226 46.643,121.252 L 46.357,121.305 C 45.551,121.46 45.265,121.591 45.265,122.112 L 45.265,126.039 C 46.123,126.039 46.617,125.599 47.761,124.375 C 48.801,123.229 49.607,122.271 49.607,121.774 C 49.607,121.565 49.373,121.333 48.853,121.253 C 48.749,121.229 48.697,121.201 48.697,121.123 L 48.697,120.523 L 48.723,120.499 C 48.723,120.499 50.829,120.551 51.583,120.551 C 52.259,120.551 53.403,120.499 53.403,120.499 L 53.481,120.523 L 53.481,121.123 C 53.481,121.201 53.403,121.253 53.273,121.253 C 52.259,121.331 51.557,121.383 50.621,122.449 L 48.385,125.021 C 47.943,125.491 47.787,125.775 47.787,125.984 C 47.787,126.14 47.891,126.269 48.021,126.425 L 51.947,131.157 C 52.259,131.52 52.883,131.677 53.403,131.78 L 53.533,131.805 C 53.611,131.83 53.715,131.882 53.715,131.96 L 53.715,132.506 L 53.637,132.532 C 53.637,132.532 52.259,132.506 51.531,132.506 C 50.881,132.506 49.945,132.532 49.945,132.532 L 49.919,132.506 L 49.919,132.194 C 49.919,131.855 49.893,131.571 49.529,131.155 L 46.643,127.566 C 46.253,127.045 45.837,126.917 45.265,126.917 L 45.265,130.77 L 45.265,130.77 z"></path><path id="path3908" d="M 59.282,130.77 C 59.282,131.342 59.542,131.68 60.374,131.758 L 60.92,131.811 C 60.998,131.811 61.076,131.862 61.076,131.966 L 61.076,132.512 L 61.05,132.565 C 61.05,132.565 59.074,132.512 58.268,132.512 C 57.54,132.512 55.512,132.565 55.512,132.565 L 55.46,132.512 L 55.46,131.966 C 55.46,131.862 55.538,131.811 55.642,131.811 L 56.162,131.758 C 57.02,131.68 57.28,131.264 57.28,130.77 L 57.28,122.112 C 57.28,121.542 56.968,121.383 56.162,121.307 L 55.642,121.253 C 55.538,121.253 55.46,121.229 55.46,121.149 L 55.46,120.55 L 55.486,120.498 C 55.486,120.498 57.54,120.55 58.346,120.55 C 59.048,120.55 61.05,120.498 61.05,120.498 L 61.076,120.55 L 61.076,121.122 C 61.076,121.2 61.024,121.252 60.92,121.252 L 60.374,121.305 C 59.568,121.382 59.282,121.591 59.282,122.112 L 59.282,130.77 z"></path><path id="path3910" d="M 64.9,122.163 C 64.9,121.357 64.562,121.331 63.34,121.253 C 63.184,121.253 63.158,121.176 63.158,121.123 L 63.158,120.525 L 63.21,120.499 C 63.6,120.499 65.134,120.551 65.888,120.551 C 66.616,120.551 67.656,120.499 68.618,120.499 C 72.308,120.499 72.984,122.318 72.984,123.672 C 72.984,125.233 72.23,127.676 68.54,127.676 C 67.89,127.676 67.37,127.623 66.901,127.416 L 66.901,130.898 C 66.901,131.469 67.213,131.601 68.046,131.73 L 68.567,131.808 C 68.671,131.833 68.75,131.861 68.75,131.963 L 68.75,132.509 L 68.726,132.562 C 68.726,132.562 66.645,132.509 65.839,132.509 C 65.111,132.509 63.161,132.562 63.161,132.562 L 63.135,132.509 L 63.135,131.963 C 63.135,131.859 63.187,131.833 63.291,131.808 L 63.837,131.73 C 64.643,131.626 64.903,131.392 64.903,130.898 L 64.9,122.163 L 64.9,122.163 L 64.9,122.163 z M 66.902,126.688 C 67.422,126.897 68.072,126.922 68.592,126.922 C 70.153,126.922 70.904,125.984 70.904,123.984 C 70.904,121.748 69.89,121.254 68.462,121.254 C 67.213,121.254 66.901,121.488 66.901,122.164 L 66.902,126.688 L 66.902,126.688 z"></path><path transform="translate(-4.354,0)" id="path3916" d="M 105.912,130.77 C 105.912,131.342 106.172,131.68 107.004,131.758 L 107.55,131.811 C 107.628,131.811 107.706,131.862 107.706,131.966 L 107.706,132.512 L 107.68,132.565 C 107.68,132.565 105.704,132.512 104.899,132.512 C 104.17,132.512 102.143,132.565 102.143,132.565 L 102.09,132.512 L 102.09,131.966 C 102.09,131.862 102.168,131.811 102.272,131.811 L 102.793,131.758 C 103.65,131.68 103.911,131.264 103.911,130.77 L 103.911,122.112 C 103.911,121.542 103.598,121.383 102.793,121.307 L 102.272,121.253 C 102.168,121.253 102.09,121.229 102.09,121.149 L 102.09,120.55 L 102.116,120.498 C 102.116,120.498 104.17,120.55 104.974,120.55 C 105.675,120.55 107.679,120.498 107.679,120.498 L 107.703,120.55 L 107.703,121.122 C 107.703,121.2 107.649,121.252 107.547,121.252 L 107.001,121.305 C 106.194,121.382 105.909,121.591 105.909,122.112 L 105.912,130.77 L 105.912,130.77 L 105.912,130.77 z"></path><path transform="translate(-4.354,0)" id="path3918" d="M 113.922,131.758 L 114.676,131.811 C 114.78,131.811 114.884,131.889 114.884,132.018 L 114.884,132.512 L 114.832,132.565 C 114.832,132.565 111.998,132.512 111.374,132.512 C 110.697,132.512 109.033,132.565 109.033,132.565 L 108.98,132.512 L 108.98,132.018 C 108.98,131.889 109.058,131.811 109.189,131.811 C 110.334,131.733 110.982,131.524 111.71,129.86 L 117.481,116.339 C 117.766,115.663 117.975,115.402 118.367,115.402 C 118.729,115.402 118.86,115.663 119.067,116.183 L 124.397,130.275 C 124.762,131.29 125.283,131.679 126.323,131.783 L 126.608,131.808 C 126.739,131.808 126.869,131.885 126.869,132.017 L 126.869,132.509 L 126.791,132.562 C 126.791,132.562 124.789,132.509 123.774,132.509 C 122.864,132.509 120.315,132.562 120.315,132.562 L 120.291,132.509 L 120.291,132.017 C 120.291,131.885 120.343,131.808 120.476,131.808 L 121.204,131.755 C 122.191,131.678 122.557,131.364 122.296,130.638 L 120.71,126.242 L 115.3,126.242 C 114.676,126.242 114.52,126.346 114.391,126.682 L 112.882,130.453 C 112.622,131.107 112.96,131.68 113.922,131.758 z M 120.292,125.152 L 117.77,118.211 L 117.718,118.211 L 115.118,124.815 C 115.014,125.077 115.195,125.153 115.767,125.153 L 120.292,125.153 L 120.292,125.152 z"></path><path transform="translate(19.59,0)" id="path3091" d="M 59.282,130.77 C 59.282,131.342 59.542,131.68 60.374,131.758 L 60.92,131.811 C 60.998,131.811 61.076,131.862 61.076,131.966 L 61.076,132.512 L 61.05,132.565 C 61.05,132.565 59.074,132.512 58.268,132.512 C 57.54,132.512 55.512,132.565 55.512,132.565 L 55.46,132.512 L 55.46,131.966 C 55.46,131.862 55.538,131.811 55.642,131.811 L 56.162,131.758 C 57.02,131.68 57.28,131.264 57.28,130.77 L 57.28,122.112 C 57.28,121.542 56.968,121.383 56.162,121.307 L 55.642,121.253 C 55.538,121.253 55.46,121.229 55.46,121.149 L 55.46,120.55 L 55.486,120.498 C 55.486,120.498 57.54,120.55 58.346,120.55 C 59.048,120.55 61.05,120.498 61.05,120.498 L 61.076,120.55 L 61.076,121.122 C 61.076,121.2 61.024,121.252 60.92,121.252 L 60.374,121.305 C 59.568,121.382 59.282,121.591 59.282,122.112 L 59.282,130.77 z" style="fill:#000000"></path><path d="M 82.886,131.814 L 83.484,131.761 C 84.265,131.683 84.525,131.449 84.525,130.644 L 84.525,122.064 C 84.525,121.386 84.341,121.386 83.484,121.31 L 82.914,121.256 C 82.81,121.256 82.73,121.204 82.73,121.126 L 82.73,120.554 L 82.755,120.502 C 82.755,120.502 85.044,120.554 85.513,120.554 C 86.005,120.554 88.269,120.502 88.945,120.502 C 93.287,120.502 95.42,123.206 95.42,126.664 C 95.42,131.215 92.195,132.565 89.311,132.565 C 87.231,132.565 86.322,132.512 85.516,132.512 C 84.735,132.512 82.758,132.565 82.758,132.565 L 82.733,132.512 L 82.733,131.966 C 82.73,131.892 82.783,131.814 82.886,131.814 z M 88.685,131.814 C 91.544,131.814 93.158,130.75 93.158,127.107 C 93.158,124.404 92.559,121.256 88.191,121.256 C 87.177,121.256 86.527,121.412 86.527,122.064 L 86.527,130.644 C 86.527,131.37 86.708,131.814 88.685,131.814 z M 82.731491,125.99047 L 89.449005,125.99047 L 89.449005,127.07653 L 82.731491,127.07653 L 82.731491,125.99047 z" id="path3914"></path></g></svg>
</svg>