<?xml version="1.0" encoding="UTF-8" standalone="no"?>
<!-- Generator: Adobe Illustrator 13.0.2, SVG Export Plug-In . SVG Version: 6.00 Build 14948)  -->
<svg xmlns:dc="http://purl.org/dc/elements/1.1/" xmlns:cc="http://creativecommons.org/ns#" xmlns:rdf="http://www.w3.org/1999/02/22-rdf-syntax-ns#" xmlns:svg="http://www.w3.org/2000/svg" xmlns="http://www.w3.org/2000/svg" xmlns:xlink="http://www.w3.org/1999/xlink" xmlns:sodipodi="http://sodipodi.sourceforge.net/DTD/sodipodi-0.dtd" xmlns:inkscape="http://www.inkscape.org/namespaces/inkscape" version="1.1" x="0px" y="0px" width="135px" height="155px" viewBox="0 0 135 155" enable-background="new 0 0 135 155" xml:space="preserve" id="svg3857" inkscape:version="0.46" sodipodi:docname="Wikipedia-logo-v2-ch.svg" sodipodi:version="0.32" inkscape:output_extension="org.inkscape.output.svg.inkscape" inkscape:export-filename="C:\Documents and Settings\Administrador\Mis documentos\Wikipedia-logo-v2-ay.png" inkscape:export-xdpi="90" inkscape:export-ydpi="90"><metadata id="metadata4852"><rdf:rdf><cc:work rdf:about=""><dc:format>image/svg+xml</dc:format><dc:type rdf:resource="http://purl.org/dc/dcmitype/StillImage"></dc:type></cc:work></rdf:rdf></metadata><defs id="defs4850"><inkscape:perspective sodipodi:type="inkscape:persp3d" inkscape:vp_x="0 : 77.5 : 1" inkscape:vp_y="0 : 1000 : 0" inkscape:vp_z="135 : 77.5 : 1" inkscape:persp3d-origin="67.5 : 51.666667 : 1" id="perspective4854"></inkscape:perspective>
	
		<radialGradient gradientUnits="userSpaceOnUse" gradientTransform="matrix(1,0,0,-1,192.3999,143.0996)" r="68.686401" cy="87.823196" cx="-145.4702" id="SVGID_1_">
		<stop id="stop3922" style="stop-color:#FFFFFF" offset="0"></stop>
		<stop id="stop3924" style="stop-color:#EAEAEB" offset="0.4835"></stop>
		<stop id="stop3926" style="stop-color:#A9ABAE" offset="0.9451"></stop>
		<stop id="stop3928" style="stop-color:#999B9E" offset="1"></stop>
	</radialGradient>
	
	
	<linearGradient y2="97.232101" x2="112.7331" y1="24.481001" x1="66.232399" gradientUnits="userSpaceOnUse" id="SVGID_2_">
		<stop id="stop3935" style="stop-color:#8A8A8A" offset="0"></stop>
		<stop id="stop3937" style="stop-color:#606060" offset="0.5687"></stop>
		<stop id="stop3939" style="stop-color:#FFFFFF" offset="0.5914"></stop>
		<stop id="stop3941" style="stop-color:#585858" offset="0.6116"></stop>
		<stop id="stop3943" style="stop-color:#303030" offset="1"></stop>
	</linearGradient>
	
	
	<linearGradient y2="65.136703" x2="83.798798" y1="65.136703" x1="54.715801" gradientUnits="userSpaceOnUse" id="SVGID_5_">
		<stop id="stop3964" style="stop-color:#231F20" offset="0"></stop>
		<stop id="stop3966" style="stop-color:#474747" offset="1"></stop>
	</linearGradient>
	
	
	
	
	
	
	
	
	
		<linearGradient gradientTransform="matrix(1,0,0,-1,192.3999,143.0996)" y2="29.9035" x2="-94.069099" y1="119.8076" x1="-123.5898" gradientUnits="userSpaceOnUse" id="SVGID_6_">
		<stop id="stop3997" style="stop-color:#FFFFFF" offset="0"></stop>
		<stop id="stop3999" style="stop-color:#FCFCFC" offset="0.0094"></stop>
		<stop id="stop4001" style="stop-color:#EEEEEE" offset="0.0655"></stop>
		<stop id="stop4003" style="stop-color:#E5E5E5" offset="0.1342"></stop>
		<stop id="stop4005" style="stop-color:#E3E3E3" offset="0.2515"></stop>
		<stop id="stop4007" style="stop-color:#8A8A8A" offset="0.3357"></stop>
		<stop id="stop4009" style="stop-color:#B8B8B8" offset="0.4422"></stop>
		<stop id="stop4011" style="stop-color:#3B3B3B" offset="1"></stop>
	</linearGradient>
	
	<linearGradient y2="87.626701" x2="119.5471" y1="26.876499" x1="70.421898" gradientUnits="userSpaceOnUse" id="SVGID_7_">
		<stop id="stop4016" style="stop-color:#EFF0F0" offset="0"></stop>
		<stop id="stop4018" style="stop-color:#F0F1F2" offset="0.5914"></stop>
		<stop id="stop4020" style="stop-color:#787878" offset="0.599"></stop>
		<stop id="stop4022" style="stop-color:#EEEFF0" offset="0.6456"></stop>
		<stop id="stop4024" style="stop-color:#D8D9DB" offset="1"></stop>
	</linearGradient>
	
	
		<linearGradient gradientTransform="matrix(1,0,0,-1,192.3999,143.0996)" y2="31.998501" x2="-87.569702" y1="122.1328" x1="-117.166" gradientUnits="userSpaceOnUse" id="SVGID_8_">
		<stop id="stop4029" style="stop-color:#FFFFFF" offset="0"></stop>
		<stop id="stop4031" style="stop-color:#E4E5E6" offset="1"></stop>
	</linearGradient>
	
	<linearGradient y2="106.3903" x2="79.683601" y1="25.2764" x1="54.653301" gradientUnits="userSpaceOnUse" id="SVGID_9_">
		<stop id="stop4036" style="stop-color:#FFFFFF" offset="0"></stop>
		<stop id="stop4038" style="stop-color:#F9F9F9" offset="0.7473"></stop>
		<stop id="stop4040" style="stop-color:#D5D7D8" offset="1"></stop>
	</linearGradient>
	
	
	
	
	
		<linearGradient gradientTransform="matrix(1,0,0,-1,192.3999,143.0996)" y2="24.6462" x2="-134.85719" y1="119.6328" x1="-115.3369" gradientUnits="userSpaceOnUse" id="SVGID_10_">
		<stop id="stop4061" style="stop-color:#FFFFFF" offset="0"></stop>
		<stop id="stop4063" style="stop-color:#E4E5E6" offset="1"></stop>
	</linearGradient>
	
	<linearGradient y2="92.496101" x2="37.2481" y1="33.077099" x1="32.519001" gradientUnits="userSpaceOnUse" id="SVGID_11_">
		<stop id="stop4068" style="stop-color:#989A9C" offset="0.2198"></stop>
		<stop id="stop4070" style="stop-color:#FFFFFF" offset="0.2527"></stop>
	</linearGradient>
	
	
		<linearGradient gradientTransform="matrix(1,0,0,-1,192.3999,143.0996)" y2="32.797901" x2="-171.9462" y1="126.8398" x1="-152.6201" gradientUnits="userSpaceOnUse" id="SVGID_12_">
		<stop id="stop4075" style="stop-color:#FFFFFF" offset="0"></stop>
		<stop id="stop4077" style="stop-color:#E4E5E6" offset="1"></stop>
	</linearGradient>
	
	
		<linearGradient gradientTransform="matrix(1,0,0,-1,192.3999,143.0996)" y2="35.585701" x2="-130.14281" y1="35.625" x1="-130.1348" gradientUnits="userSpaceOnUse" id="SVGID_13_">
		<stop id="stop4082" style="stop-color:#FFFFFF" offset="0"></stop>
		<stop id="stop4084" style="stop-color:#E4E5E6" offset="1"></stop>
	</linearGradient>
	
	
	
	
		<linearGradient gradientTransform="matrix(1,0,0,-1,192.3999,143.0996)" y2="25.888" x2="-140.54491" y1="120.3223" x1="-121.1382" gradientUnits="userSpaceOnUse" id="SVGID_14_">
		<stop id="stop4093" style="stop-color:#FFFFFF" offset="0"></stop>
		<stop id="stop4095" style="stop-color:#E4E5E6" offset="1"></stop>
	</linearGradient>
	
	
		<linearGradient gradientTransform="matrix(1,0,0,-1,192.3999,143.0996)" y2="28.8524" x2="-155.006" y1="123.3525" x1="-135.58591" gradientUnits="userSpaceOnUse" id="SVGID_15_">
		<stop id="stop4100" style="stop-color:#FFFFFF" offset="0"></stop>
		<stop id="stop4102" style="stop-color:#E4E5E6" offset="1"></stop>
	</linearGradient>
	
	
		<linearGradient gradientTransform="matrix(1,0,0,-1,192.3999,143.0996)" y2="27.1346" x2="-146.8837" y1="121.9365" x1="-127.4014" gradientUnits="userSpaceOnUse" id="SVGID_16_">
		<stop id="stop4107" style="stop-color:#FFFFFF" offset="0"></stop>
		<stop id="stop4109" style="stop-color:#E4E5E6" offset="1"></stop>
	</linearGradient>
	
	
		<linearGradient gradientTransform="matrix(1,0,0,-1,192.3999,143.0996)" y2="24.9438" x2="-138.85201" y1="124.0039" x1="-118.4946" gradientUnits="userSpaceOnUse" id="SVGID_17_">
		<stop id="stop4114" style="stop-color:#FFFFFF" offset="0"></stop>
		<stop id="stop4116" style="stop-color:#E4E5E6" offset="1"></stop>
	</linearGradient>
	
	
		<linearGradient gradientTransform="matrix(1,0,0,-1,192.3999,143.0996)" y2="24.695299" x2="-134.7878" y1="119.1758" x1="-115.3716" gradientUnits="userSpaceOnUse" id="SVGID_18_">
		<stop id="stop4121" style="stop-color:#FFFFFF" offset="0"></stop>
		<stop id="stop4123" style="stop-color:#E4E5E6" offset="1"></stop>
	</linearGradient>
	
	
	
	
	
	
	
	
	
	
	
	
		<linearGradient gradientTransform="matrix(1,0,0,-1,192.3999,143.0996)" y2="83.6045" x2="-75.6362" y1="83.6045" x1="-175.4424" gradientUnits="userSpaceOnUse" id="SVGID_21_">
		<stop id="stop4198" style="stop-color:#555555" offset="0"></stop>
		<stop id="stop4200" style="stop-color:#231F20" offset="1"></stop>
	</linearGradient>
	
	
		<linearGradient gradientTransform="matrix(1,0,0,-1,192.3999,143.0996)" y2="104.0801" x2="-83.541" y1="104.0801" x1="-175.14211" gradientUnits="userSpaceOnUse" id="SVGID_22_">
		<stop id="stop4205" style="stop-color:#A0A0A0" offset="0"></stop>
		<stop id="stop4207" style="stop-color:#656767" offset="0.0769"></stop>
		<stop id="stop4209" style="stop-color:#717375" offset="1"></stop>
	</linearGradient>
	
	
	
	
	
	
	
		<linearGradient gradientTransform="matrix(1,0,0,-1,192.3999,143.0996)" y2="78.209" x2="-172.3853" y1="78.209" x1="-172.3853" gradientUnits="userSpaceOnUse" id="SVGID_23_">
		<stop id="stop4224" style="stop-color:#FFFFFF" offset="0"></stop>
		<stop id="stop4226" style="stop-color:#F4F4F4" offset="0.078"></stop>
		<stop id="stop4228" style="stop-color:#CECECE" offset="0.3807"></stop>
		<stop id="stop4230" style="stop-color:#BFBFBF" offset="0.5396"></stop>
		<stop id="stop4232" style="stop-color:#7C7C7C" offset="0.8357"></stop>
		<stop id="stop4234" style="stop-color:#A8A8A8" offset="0.8996"></stop>
		<stop id="stop4236" style="stop-color:#9A9A9A" offset="0.9093"></stop>
		<stop id="stop4238" style="stop-color:#7D7D7D" offset="0.9327"></stop>
		<stop id="stop4240" style="stop-color:#686868" offset="0.9558"></stop>
		<stop id="stop4242" style="stop-color:#5B5B5B" offset="0.9785"></stop>
		<stop id="stop4244" style="stop-color:#575757" offset="1"></stop>
	</linearGradient>
	
	
		<linearGradient gradientTransform="matrix(1,0,0,-1,192.3999,143.0996)" y2="90.476799" x2="-67.153198" y1="78.449203" x1="-175.7173" gradientUnits="userSpaceOnUse" id="SVGID_24_">
		<stop id="stop4249" style="stop-color:#FFFFFF" offset="0"></stop>
		<stop id="stop4251" style="stop-color:#F4F4F4" offset="0.078"></stop>
		<stop id="stop4253" style="stop-color:#CECECE" offset="0.3807"></stop>
		<stop id="stop4255" style="stop-color:#BFBFBF" offset="0.5396"></stop>
		<stop id="stop4257" style="stop-color:#7C7C7C" offset="0.8357"></stop>
		<stop id="stop4259" style="stop-color:#A8A8A8" offset="0.8996"></stop>
		<stop id="stop4261" style="stop-color:#9A9A9A" offset="0.9093"></stop>
		<stop id="stop4263" style="stop-color:#7D7D7D" offset="0.9327"></stop>
		<stop id="stop4265" style="stop-color:#686868" offset="0.9558"></stop>
		<stop id="stop4267" style="stop-color:#5B5B5B" offset="0.9785"></stop>
		<stop id="stop4269" style="stop-color:#575757" offset="1"></stop>
	</linearGradient>
	
	
		<linearGradient gradientTransform="matrix(1,0,0,-1,192.3999,143.0996)" y2="92.223099" x2="-52.131699" y1="78.4795" x1="-176.1851" gradientUnits="userSpaceOnUse" id="SVGID_25_">
		<stop id="stop4274" style="stop-color:#FFFFFF" offset="0"></stop>
		<stop id="stop4276" style="stop-color:#F4F4F4" offset="0.078"></stop>
		<stop id="stop4278" style="stop-color:#CECECE" offset="0.3807"></stop>
		<stop id="stop4280" style="stop-color:#BFBFBF" offset="0.5396"></stop>
		<stop id="stop4282" style="stop-color:#7C7C7C" offset="0.8357"></stop>
		<stop id="stop4284" style="stop-color:#A8A8A8" offset="0.8996"></stop>
		<stop id="stop4286" style="stop-color:#9A9A9A" offset="0.9093"></stop>
		<stop id="stop4288" style="stop-color:#7D7D7D" offset="0.9327"></stop>
		<stop id="stop4290" style="stop-color:#686868" offset="0.9558"></stop>
		<stop id="stop4292" style="stop-color:#5B5B5B" offset="0.9785"></stop>
		<stop id="stop4294" style="stop-color:#575757" offset="1"></stop>
	</linearGradient>
	
	<linearGradient y2="51.952599" x2="117.1948" y1="71.326698" x1="21.2129" gradientUnits="userSpaceOnUse" id="SVGID_26_">
		<stop id="stop4299" style="stop-color:#EDEDEE" offset="0"></stop>
		<stop id="stop4301" style="stop-color:#FFFFFF" offset="0.4176"></stop>
		<stop id="stop4303" style="stop-color:#F8F9F9" offset="0.6264"></stop>
		<stop id="stop4305" style="stop-color:#BFC0C2" offset="1"></stop>
	</linearGradient>
	
	
	
	
	<linearGradient y2="30.732401" x2="27.9561" y1="30.732401" x1="23.471201" gradientUnits="userSpaceOnUse" id="SVGID_27_">
		<stop id="stop4316" style="stop-color:#E2E3E4" offset="0"></stop>
		<stop id="stop4318" style="stop-color:#FFFFFF" offset="0.5055"></stop>
	</linearGradient>
	
	
	
	
	
	
	
	
	
	
	
	
	
	
	
	
	
	
	
	
	
	
	
	
	
	
	
	
	
	
	
	
	
	
	
	
	
	
	
	
	
	
	
	
	
	
	
	
	
	
	
	
	
	
	
	
	
	
	
	
	
	
	
	
	
	
	
	
	
	
	
	
	
	
	
	
	
	
	
	
	
	
	
	
	
	
	
	
	
	
	
	
	
	
	
	
	
	
	
	
	
	
	
	
	
	
	
	
	
	
	
	
	
	
	
	
	
	
	
	
	
	
	
	
	
	
	
	
	
	
	
	
	
	
	
	
	
	
	
	
	
	
	
	
	
	
	
	
	
	
	
	
	
	
	
	
	
	
	
	
	
	
	
	
	
	
	
	
	
	
	
	
	
	
	
	
	
	
	<linearGradient y2="29.204" x2="111.5455" y1="49.7188" x1="22.5742" gradientUnits="userSpaceOnUse" id="SVGID_34_">
		<stop id="stop4743" style="stop-color:#FFFFFF" offset="0"></stop>
		<stop id="stop4745" style="stop-color:#FFFFFF" offset="0.6538"></stop>
		<stop id="stop4747" style="stop-color:#CBCCCE" offset="1"></stop>
	</linearGradient>
	
	
	
	
	
	
	
	
		<linearGradient gradientTransform="matrix(1,0,0,-1,192.3999,143.0996)" y2="107.0898" x2="-126.4229" y1="107.0898" x1="-158.8101" gradientUnits="userSpaceOnUse" id="SVGID_35_">
		<stop id="stop4770" style="stop-color:#696969" offset="0"></stop>
		<stop id="stop4772" style="stop-color:#2E2E2E" offset="0.3702"></stop>
		<stop id="stop4774" style="stop-color:#424242" offset="0.4554"></stop>
		<stop id="stop4776" style="stop-color:#303030" offset="0.6014"></stop>
		<stop id="stop4778" style="stop-color:#4A4A4A" offset="0.6947"></stop>
		<stop id="stop4780" style="stop-color:#666666" offset="1"></stop>
	</linearGradient>
	
	
		<linearGradient gradientTransform="matrix(1,0,0,-1,192.3999,143.0996)" y2="107.8965" x2="-126.5454" y1="107.8965" x1="-158.4185" gradientUnits="userSpaceOnUse" id="SVGID_36_">
		<stop id="stop4785" style="stop-color:#525252" offset="0"></stop>
		<stop id="stop4787" style="stop-color:#333333" offset="0.1856"></stop>
		<stop id="stop4789" style="stop-color:#AEAEAE" offset="0.354"></stop>
		<stop id="stop4791" style="stop-color:#ADADAD" offset="0.4199"></stop>
		<stop id="stop4793" style="stop-color:#9D9D9D" offset="0.4276"></stop>
		<stop id="stop4795" style="stop-color:#818181" offset="0.4433"></stop>
		<stop id="stop4797" style="stop-color:#6A6A6A" offset="0.4611"></stop>
		<stop id="stop4799" style="stop-color:#585858" offset="0.4814"></stop>
		<stop id="stop4801" style="stop-color:#4C4C4C" offset="0.506"></stop>
		<stop id="stop4803" style="stop-color:#444444" offset="0.539"></stop>
		<stop id="stop4805" style="stop-color:#424242" offset="0.6166"></stop>
		<stop id="stop4807" style="stop-color:#454545" offset="0.6684"></stop>
		<stop id="stop4809" style="stop-color:#BDBDBD" offset="1"></stop>
	</linearGradient>
	
	
		<linearGradient gradientTransform="matrix(1,0,0,-1,192.3999,143.0996)" y2="104.4332" x2="-154.15421" y1="97.627899" x1="-153.1255" gradientUnits="userSpaceOnUse" id="SVGID_37_">
		<stop id="stop4814" style="stop-color:#969696" offset="0"></stop>
		<stop id="stop4816" style="stop-color:#000000" offset="1"></stop>
	</linearGradient>
	
	
	
	<linearGradient y2="38.790001" x2="39.487301" y1="46.373001" x1="38.737301" gradientUnits="userSpaceOnUse" id="SVGID_38_">
		<stop id="stop4825" style="stop-color:#333333" offset="0"></stop>
		<stop id="stop4827" style="stop-color:#000000" offset="0.431"></stop>
		<stop id="stop4829" style="stop-color:#2E2E2E" offset="1"></stop>
	</linearGradient>
	
	
	
	
	
		<radialGradient gradientUnits="userSpaceOnUse" gradientTransform="matrix(1,0,0,-1,192.3999,143.0996)" r="72.751701" cy="106.5996" cx="-138.2334" id="SVGID_39_">
		<stop id="stop4840" style="stop-color:#000000;stop-opacity:0;" offset="0"></stop>
		<stop id="stop4842" style="stop-color:#000000;stop-opacity:0.08;" offset="0.80220002"></stop>
		<stop id="stop4844" style="stop-color:#000000;stop-opacity:0.3882353;" offset="1"></stop>
	</radialGradient>
	
<radialGradient inkscape:collect="always" xlink:href="#SVGID_39_" id="radialGradient5007" gradientUnits="userSpaceOnUse" gradientTransform="matrix(1,0,0,-1,192.3999,143.0996)" cx="-138.2334" cy="106.5996" r="72.751701"></radialGradient><linearGradient inkscape:collect="always" xlink:href="#SVGID_38_" id="linearGradient5013" gradientUnits="userSpaceOnUse" x1="38.737301" y1="46.373001" x2="39.487301" y2="38.790001"></linearGradient><linearGradient inkscape:collect="always" xlink:href="#SVGID_37_" id="linearGradient5018" gradientUnits="userSpaceOnUse" gradientTransform="matrix(1,0,0,-1,192.3999,143.0996)" x1="-153.1255" y1="97.627899" x2="-154.15421" y2="104.4332"></linearGradient><linearGradient inkscape:collect="always" xlink:href="#SVGID_36_" id="linearGradient5021" gradientUnits="userSpaceOnUse" gradientTransform="matrix(1,0,0,-1,192.3999,143.0996)" x1="-158.4185" y1="107.8965" x2="-126.5454" y2="107.8965"></linearGradient><linearGradient inkscape:collect="always" xlink:href="#SVGID_35_" id="linearGradient5024" gradientUnits="userSpaceOnUse" gradientTransform="matrix(1,0,0,-1,192.3999,143.0996)" x1="-158.8101" y1="107.0898" x2="-126.4229" y2="107.0898"></linearGradient><linearGradient inkscape:collect="always" xlink:href="#SVGID_34_" id="linearGradient5036" gradientUnits="userSpaceOnUse" x1="22.5742" y1="49.7188" x2="111.5455" y2="29.204"></linearGradient><linearGradient inkscape:collect="always" xlink:href="#SVGID_27_" id="linearGradient5252" gradientUnits="userSpaceOnUse" x1="23.471201" y1="30.732401" x2="27.9561" y2="30.732401"></linearGradient><linearGradient inkscape:collect="always" xlink:href="#SVGID_26_" id="linearGradient5258" gradientUnits="userSpaceOnUse" x1="21.2129" y1="71.326698" x2="117.1948" y2="51.952599"></linearGradient><linearGradient inkscape:collect="always" xlink:href="#SVGID_25_" id="linearGradient5261" gradientUnits="userSpaceOnUse" gradientTransform="matrix(1,0,0,-1,192.3999,143.0996)" x1="-176.1851" y1="78.4795" x2="-52.131699" y2="92.223099"></linearGradient><linearGradient inkscape:collect="always" xlink:href="#SVGID_24_" id="linearGradient5264" gradientUnits="userSpaceOnUse" gradientTransform="matrix(1,0,0,-1,192.3999,143.0996)" x1="-175.7173" y1="78.449203" x2="-67.153198" y2="90.476799"></linearGradient><linearGradient inkscape:collect="always" xlink:href="#SVGID_23_" id="linearGradient5267" gradientUnits="userSpaceOnUse" gradientTransform="matrix(1,0,0,-1,192.3999,143.0996)" x1="-172.3853" y1="78.209" x2="-172.3853" y2="78.209"></linearGradient><linearGradient inkscape:collect="always" xlink:href="#SVGID_22_" id="linearGradient5275" gradientUnits="userSpaceOnUse" gradientTransform="matrix(1,0,0,-1,192.3999,143.0996)" x1="-175.14211" y1="104.0801" x2="-83.541" y2="104.0801"></linearGradient><linearGradient inkscape:collect="always" xlink:href="#SVGID_21_" id="linearGradient5278" gradientUnits="userSpaceOnUse" gradientTransform="matrix(1,0,0,-1,192.3999,143.0996)" x1="-175.4424" y1="83.6045" x2="-75.6362" y2="83.6045"></linearGradient><linearGradient inkscape:collect="always" xlink:href="#SVGID_18_" id="linearGradient5317" gradientUnits="userSpaceOnUse" gradientTransform="matrix(1,0,0,-1,192.3999,143.0996)" x1="-115.3716" y1="119.1758" x2="-134.7878" y2="24.695299"></linearGradient><linearGradient inkscape:collect="always" xlink:href="#SVGID_17_" id="linearGradient5320" gradientUnits="userSpaceOnUse" gradientTransform="matrix(1,0,0,-1,192.3999,143.0996)" x1="-118.4946" y1="124.0039" x2="-138.85201" y2="24.9438"></linearGradient><linearGradient inkscape:collect="always" xlink:href="#SVGID_16_" id="linearGradient5323" gradientUnits="userSpaceOnUse" gradientTransform="matrix(1,0,0,-1,192.3999,143.0996)" x1="-127.4014" y1="121.9365" x2="-146.8837" y2="27.1346"></linearGradient><linearGradient inkscape:collect="always" xlink:href="#SVGID_15_" id="linearGradient5326" gradientUnits="userSpaceOnUse" gradientTransform="matrix(1,0,0,-1,192.3999,143.0996)" x1="-135.58591" y1="123.3525" x2="-155.006" y2="28.8524"></linearGradient><linearGradient inkscape:collect="always" xlink:href="#SVGID_14_" id="linearGradient5329" gradientUnits="userSpaceOnUse" gradientTransform="matrix(1,0,0,-1,192.3999,143.0996)" x1="-121.1382" y1="120.3223" x2="-140.54491" y2="25.888"></linearGradient><linearGradient inkscape:collect="always" xlink:href="#SVGID_13_" id="linearGradient5334" gradientUnits="userSpaceOnUse" gradientTransform="matrix(1,0,0,-1,192.3999,143.0996)" x1="-130.1348" y1="35.625" x2="-130.14281" y2="35.585701"></linearGradient><linearGradient inkscape:collect="always" xlink:href="#SVGID_12_" id="linearGradient5337" gradientUnits="userSpaceOnUse" gradientTransform="matrix(1,0,0,-1,192.3999,143.0996)" x1="-152.6201" y1="126.8398" x2="-171.9462" y2="32.797901"></linearGradient><linearGradient inkscape:collect="always" xlink:href="#SVGID_11_" id="linearGradient5340" gradientUnits="userSpaceOnUse" x1="32.519001" y1="33.077099" x2="37.2481" y2="92.496101"></linearGradient><linearGradient inkscape:collect="always" xlink:href="#SVGID_10_" id="linearGradient5343" gradientUnits="userSpaceOnUse" gradientTransform="matrix(1,0,0,-1,192.3999,143.0996)" x1="-115.3369" y1="119.6328" x2="-134.85719" y2="24.6462"></linearGradient><linearGradient inkscape:collect="always" xlink:href="#SVGID_9_" id="linearGradient5354" gradientUnits="userSpaceOnUse" x1="54.653301" y1="25.2764" x2="79.683601" y2="106.3903"></linearGradient><linearGradient inkscape:collect="always" xlink:href="#SVGID_8_" id="linearGradient5357" gradientUnits="userSpaceOnUse" gradientTransform="matrix(1,0,0,-1,192.3999,143.0996)" x1="-117.166" y1="122.1328" x2="-87.569702" y2="31.998501"></linearGradient><linearGradient inkscape:collect="always" xlink:href="#SVGID_7_" id="linearGradient5360" gradientUnits="userSpaceOnUse" x1="70.421898" y1="26.876499" x2="119.5471" y2="87.626701"></linearGradient><linearGradient inkscape:collect="always" xlink:href="#SVGID_6_" id="linearGradient5363" gradientUnits="userSpaceOnUse" gradientTransform="matrix(1,0,0,-1,192.3999,143.0996)" x1="-123.5898" y1="119.8076" x2="-94.069099" y2="29.9035"></linearGradient><linearGradient inkscape:collect="always" xlink:href="#SVGID_5_" id="linearGradient5379" gradientUnits="userSpaceOnUse" x1="54.715801" y1="65.136703" x2="83.798798" y2="65.136703"></linearGradient><linearGradient inkscape:collect="always" xlink:href="#SVGID_2_" id="linearGradient5391" gradientUnits="userSpaceOnUse" x1="66.232399" y1="24.481001" x2="112.7331" y2="97.232101"></linearGradient><radialGradient inkscape:collect="always" xlink:href="#SVGID_1_" id="radialGradient5395" gradientUnits="userSpaceOnUse" gradientTransform="matrix(1,0,0,-1,192.3999,143.0996)" cx="-145.4702" cy="87.823196" r="68.686401"></radialGradient>
	
	
<inkscape:perspective id="perspective10537" inkscape:persp3d-origin="0.5 : 0.33333333 : 1" inkscape:vp_z="1 : 0.5 : 1" inkscape:vp_y="0 : 1000 : 0" inkscape:vp_x="0 : 0.5 : 1" sodipodi:type="inkscape:persp3d"></inkscape:perspective></defs><sodipodi:namedview pagecolor="#ffffff" bordercolor="#666666" borderopacity="1" objecttolerance="10" gridtolerance="10" guidetolerance="10" inkscape:pageopacity="0" inkscape:pageshadow="2" inkscape:window-width="1198" inkscape:window-height="730" id="namedview4848" showgrid="false" inkscape:zoom="3.4774194" inkscape:cx="67.5" inkscape:cy="15.887849" inkscape:window-x="355" inkscape:window-y="42" inkscape:window-maximized="0" inkscape:current-layer="svg3857" showguides="true" inkscape:guide-bbox="true"><sodipodi:guide orientation="0,1" position="0,140" id="globe_top"></sodipodi:guide><sodipodi:guide orientation="1,0" position="16,0" id="globe_left"></sodipodi:guide><sodipodi:guide orientation="1,0" position="119,0" id="globe_right"></sodipodi:guide><sodipodi:guide id="globe_bottom" position="0,47" orientation="0,1"></sodipodi:guide><sodipodi:guide orientation="0,1" position="50.5,40.25" id="wordmark_top"></sodipodi:guide><sodipodi:guide orientation="0,1" position="8,22.5" id="wordmark_bottom"></sodipodi:guide><sodipodi:guide orientation="0,1" position="0,17" id="subtitle_top"></sodipodi:guide><sodipodi:guide orientation="0,1" position="0,8" id="subtitle_bottom"></sodipodi:guide><sodipodi:guide orientation="1,0" position="8,40" id="wordmark_left"></sodipodi:guide><sodipodi:guide orientation="1,0" position="127,40" id="wordmark_right"></sodipodi:guide></sodipodi:namedview><g id="Wikipedia" transform="translate(-9e-3,-0.285)">
		<path id="path3898" d="M 18.757,118.893 C 18.757,118.893 18.39,118.147 18.265,117.899 C 17.431,116.246 17.449,116.158 16.606,116.047 C 16.37,116.016 16.248,115.986 16.248,115.869 L 16.248,115.346 L 16.319,115.295 C 17.842,115.293 21.231,115.293 21.231,115.293 L 21.361,115.336 L 21.361,115.857 C 21.361,115.976 21.276,116.037 21.103,116.037 L 20.747,116.088 C 19.847,116.158 19.994,116.526 20.592,117.717 L 26.269,129.332 L 26.463,129.385 L 31.503,117.424 C 31.678,116.942 31.651,116.6 31.426,116.399 C 31.2,116.203 31.041,116.087 30.457,116.063 L 29.984,116.039 C 29.926,116.039 29.871,116.018 29.818,115.979 C 29.766,115.942 29.739,115.893 29.739,115.834 L 29.739,115.336 L 29.811,115.285 C 31.231,115.285 35.505,115.285 35.505,115.285 L 35.563,115.336 L 35.563,115.834 C 35.563,115.969 35.486,116.037 35.334,116.037 C 34.588,116.07 34.035,116.232 33.677,116.521 C 33.318,116.812 33.038,117.213 32.837,117.734 C 32.837,117.734 28.202,128.343 26.616,131.869 C 26.009,133.025 25.412,132.919 24.887,131.836 C 23.778,129.552 20.655,122.623 20.655,122.623 L 18.757,118.893 L 18.757,118.893 z"></path>
		<path id="path3900" d="M 27.853,115.287 C 27.853,115.287 24.65,115.277 23.224,115.287 L 23.153,115.338 L 23.153,115.834 C 23.153,115.895 23.179,115.943 23.231,115.98 C 23.284,116.019 23.338,116.039 23.396,116.039 L 23.625,116.064 C 24.208,116.088 24.476,116.241 24.556,116.337 C 24.695,116.507 24.764,116.691 24.427,117.426 L 18.447,129.353 L 18.29,129.312 C 18.29,129.312 14.007,120.281 12.767,117.26 C 12.638,116.947 12.58,116.715 12.58,116.572 C 12.58,116.265 12.857,116.099 13.411,116.076 L 14.057,116.049 C 14.228,116.049 14.315,115.983 14.315,115.846 L 14.315,115.35 L 14.257,115.299 C 14.257,115.299 9.127,115.293 8.067,115.299 L 8.009,115.35 L 8.009,115.871 C 8.009,115.965 8.128,116.023 8.367,116.049 C 9.018,116.084 9.446,116.188 9.652,116.361 C 9.857,116.536 10.074,116.978 10.362,117.667 C 11.919,121.407 15.227,128.081 16.838,131.882 C 17.302,132.92 17.885,133.081 18.593,131.85 C 19.819,129.576 23.143,122.632 23.143,122.632 L 25.761,117.736 C 26.066,117.219 26.36,116.758 26.509,116.543 C 26.782,116.15 26.935,116.076 27.681,116.041 C 27.833,116.041 27.91,115.973 27.91,115.836 L 27.91,115.34 L 27.853,115.287 L 27.853,115.287 z"></path>
		<path style="fill:#ffffff" id="path3902" d="M 21.535,126.689 C 21.515,126.755 21.723,126.982 21.788,127.002 L 21.943,126.904 C 22.007,126.924 22.146,126.863 22.166,126.799 L 22.193,126.535 L 21.914,125.231 C 21.863,125.164 21.824,125.213 21.807,125.274 L 21.535,126.689 L 21.535,126.689 z"></path>
		<path id="path3904" d="M 37.396201,130.99 C 37.396201,131.562 37.642881,131.9 38.432258,131.978 L 38.950287,132.031 C 39.024291,132.031 39.098294,132.082 39.098294,132.186 L 39.098294,132.732 L 39.073627,132.785 C 39.073627,132.785 37.198856,132.732 36.434148,132.732 C 35.743442,132.732 33.819337,132.785 33.819337,132.785 L 33.77,132.732 L 33.77,132.186 C 33.77,132.082 33.844004,132.031 33.942676,132.031 L 34.436037,131.978 C 35.250082,131.9 35.496763,131.484 35.496763,130.99 L 35.496763,122.332 C 35.496763,121.761 35.199797,121.603 34.436037,121.527 L 33.942676,121.473 C 33.844004,121.473 33.77,121.449 33.77,121.369 L 33.77,120.77 L 33.794668,120.718 C 33.794668,120.718 35.743442,120.77 36.508152,120.77 C 37.174189,120.77 39.073627,120.718 39.073627,120.718 L 39.098294,120.77 L 39.098294,121.342 C 39.098294,121.42 39.048959,121.472 38.950287,121.472 L 38.432258,121.525 C 37.667549,121.602 37.396201,121.811 37.396201,122.332 L 37.396201,130.99 L 37.396201,130.99 z"></path>
		<path id="path3906" d="M 44.676116,130.99 C 44.676116,131.562 44.996801,131.848 45.712173,131.978 L 45.983521,132.031 C 46.057526,132.056 46.13153,132.082 46.13153,132.186 L 46.13153,132.732 L 46.106862,132.785 C 46.106862,132.785 44.552776,132.732 43.812735,132.732 C 43.122031,132.732 41.099252,132.785 41.099252,132.785 L 41.049915,132.732 L 41.049915,132.186 C 41.049915,132.082 41.12392,132.031 41.222592,132.031 L 41.715952,131.978 C 42.455993,131.9 42.776678,131.484 42.776678,130.99 L 42.776678,122.332 C 42.776678,121.761 42.50533,121.603 41.715952,121.527 L 41.222592,121.473 C 41.12392,121.473 41.049915,121.449 41.049915,121.369 L 41.049915,120.77 L 41.074583,120.718 C 41.074583,120.718 43.097362,120.77 43.862072,120.77 C 44.553725,120.77 46.106862,120.718 46.106862,120.718 L 46.13153,120.77 L 46.13153,121.342 C 46.13153,121.42 46.082194,121.446 45.983521,121.472 L 45.712173,121.525 C 44.947464,121.68 44.676116,121.811 44.676116,122.332 L 44.676116,126.258 C 45.490161,126.258 45.958854,125.817 47.044247,124.594 C 48.030968,123.449 48.795678,122.489 48.795678,121.994 C 48.795678,121.785 48.573665,121.552 48.080305,121.473 C 47.981632,121.448 47.932296,121.421 47.932296,121.343 L 47.932296,120.744 L 47.956965,120.719 C 47.956965,120.719 49.955075,120.771 50.670448,120.771 C 51.311817,120.771 52.39721,120.719 52.39721,120.719 L 52.471214,120.744 L 52.471214,121.343 C 52.471214,121.421 52.39721,121.473 52.27387,121.473 C 51.311817,121.551 50.64578,121.603 49.757731,122.669 L 47.63628,125.242 C 47.216924,125.711 47.068915,125.996 47.068915,126.205 C 47.068915,126.361 47.167587,126.49 47.290928,126.646 L 51.015801,131.378 C 51.311817,131.741 51.903849,131.898 52.39721,132.001 L 52.52055,132.026 C 52.594555,132.052 52.693227,132.104 52.693227,132.182 L 52.693227,132.728 L 52.619222,132.754 C 52.619222,132.754 51.311817,132.728 50.621111,132.728 C 50.004411,132.728 49.116362,132.754 49.116362,132.754 L 49.091694,132.728 L 49.091694,132.416 C 49.091694,132.077 49.067026,131.793 48.721673,131.377 L 45.983521,127.788 C 45.613501,127.267 45.218813,127.139 44.676116,127.139 L 44.676116,130.99 L 44.676116,130.99 L 44.676116,130.99 z"></path>
		<path id="path3908" d="M 57.975031,130.99 C 57.975031,131.562 58.221712,131.9 59.011089,131.978 L 59.529117,132.031 C 59.603122,132.031 59.677126,132.082 59.677126,132.186 L 59.677126,132.732 L 59.652458,132.785 C 59.652458,132.785 57.777687,132.732 57.012978,132.732 C 56.322274,132.732 54.398167,132.785 54.398167,132.785 L 54.34883,132.732 L 54.34883,132.186 C 54.34883,132.082 54.422835,132.031 54.521507,132.031 L 55.014867,131.978 C 55.828912,131.9 56.075593,131.484 56.075593,130.99 L 56.075593,122.332 C 56.075593,121.761 55.779577,121.603 55.014867,121.527 L 54.521507,121.473 C 54.422835,121.473 54.34883,121.449 54.34883,121.369 L 54.34883,120.77 L 54.373499,120.718 C 54.373499,120.718 56.322274,120.77 57.086982,120.77 C 57.753019,120.77 59.652458,120.718 59.652458,120.718 L 59.677126,120.77 L 59.677126,121.342 C 59.677126,121.42 59.627789,121.472 59.529117,121.472 L 59.011089,121.525 C 58.246379,121.602 57.975031,121.811 57.975031,122.332 L 57.975031,130.99 L 57.975031,130.99 z"></path>
		<path id="path3910" d="M 63.305223,122.383 C 63.305223,121.577 62.984539,121.551 61.825141,121.473 C 61.677134,121.473 61.652466,121.396 61.652466,121.343 L 61.652466,120.745 L 61.701802,120.719 C 62.071822,120.719 63.527236,120.771 64.242608,120.771 C 64.933314,120.771 65.920036,120.719 66.832752,120.719 C 70.333715,120.719 70.975084,122.538 70.975084,123.892 C 70.975084,125.453 70.259711,127.896 66.758749,127.896 C 66.142047,127.896 65.648687,127.843 65.203714,127.636 L 65.203714,131.118 C 65.203714,131.69 65.49973,131.821 66.290056,131.95 L 66.784365,132.028 C 66.883037,132.054 66.957041,132.081 66.957041,132.184 L 66.957041,132.73 L 66.933322,132.782 C 66.933322,132.782 64.95988,132.73 64.19517,132.73 C 63.504466,132.73 61.654363,132.782 61.654363,132.782 L 61.629695,132.73 L 61.629695,132.184 C 61.629695,132.08 61.679031,132.054 61.777703,132.028 L 62.295732,131.95 C 63.060441,131.846 63.307121,131.612 63.307121,131.118 L 63.305223,122.383 L 63.305223,122.383 L 63.305223,122.383 z M 65.204662,126.908 C 65.698023,127.117 66.314724,127.142 66.808084,127.142 C 68.289115,127.142 69.001641,126.204 69.001641,124.204 C 69.001641,121.968 68.039588,121.474 66.684744,121.474 C 65.49973,121.474 65.203714,121.708 65.203714,122.384 L 65.204662,126.908 L 65.204662,126.908 L 65.204662,126.908 z"></path>
		
		<path id="path3914" d="M 78.57094,132.021 L 79.138305,131.968 C 79.879294,131.89 80.125975,131.656 80.125975,130.851 L 80.125975,122.271 C 80.125975,121.593 79.951401,121.593 79.138305,121.517 L 78.597506,121.463 C 78.498834,121.463 78.422931,121.411 78.422931,121.333 L 78.422931,120.761 L 78.446651,120.709 C 78.446651,120.709 80.618387,120.761 81.06336,120.761 C 81.530155,120.761 83.678171,120.709 84.31954,120.709 C 88.439102,120.709 90.462829,123.413 90.462829,126.871 C 90.462829,131.422 87.403045,132.772 84.665841,132.772 C 82.692399,132.772 81.829967,132.72 81.065258,132.72 C 80.324267,132.72 78.449497,132.772 78.449497,132.772 L 78.424829,132.72 L 78.424829,132.174 C 78.422931,132.099 78.473217,132.021 78.57094,132.021 L 78.57094,132.021 z M 84.07286,132.021 C 86.785395,132.021 88.31671,130.956 88.31671,127.314 C 88.31671,124.611 87.748396,121.463 83.604168,121.463 C 82.642114,121.463 82.025414,121.619 82.025414,122.271 L 82.025414,130.851 C 82.025414,131.577 82.197141,132.021 84.07286,132.021 z"></path>
		<path id="path3916" d="M 75.413432,130.978 C 75.413432,131.55 75.660113,131.888 76.449489,131.966 L 76.967518,132.019 C 77.041523,132.019 77.115526,132.07 77.115526,132.174 L 77.115526,132.72 L 77.090858,132.773 C 77.090858,132.773 75.216088,132.72 74.452328,132.72 C 73.760674,132.72 71.837517,132.773 71.837517,132.773 L 71.787232,132.72 L 71.787232,132.174 C 71.787232,132.07 71.861236,132.019 71.959908,132.019 L 72.454217,131.966 C 73.267313,131.888 73.514943,131.472 73.514943,130.978 L 73.514943,122.32 C 73.514943,121.749 73.217977,121.591 72.454217,121.515 L 71.959908,121.461 C 71.861236,121.461 71.787232,121.437 71.787232,121.357 L 71.787232,120.758 L 71.811899,120.706 C 71.811899,120.706 73.760674,120.758 74.523485,120.758 C 75.189522,120.758 77.08991,120.706 77.08991,120.706 L 77.113629,120.758 L 77.113629,121.33 C 77.113629,121.408 77.063344,121.46 76.96562,121.46 L 76.447592,121.513 C 75.682882,121.59 75.411535,121.799 75.411535,122.32 L 75.413432,130.978 L 75.413432,130.978 L 75.413432,130.978 z"></path>
		<path id="path3918" d="M 113.922,132.031 L 114.676,132.084 C 114.78,132.084 114.884,132.162 114.884,132.291 L 114.884,132.785 L 114.832,132.838 C 114.832,132.838 111.998,132.785 111.374,132.785 C 110.697,132.785 109.033,132.838 109.033,132.838 L 108.98,132.785 L 108.98,132.291 C 108.98,132.162 109.058,132.084 109.189,132.084 C 110.334,132.006 110.982,131.797 111.71,130.133 L 117.481,116.612 C 117.766,115.936 117.975,115.675 118.366,115.675 C 118.729,115.675 118.86,115.936 119.067,116.456 L 124.397,130.548 C 124.762,131.563 125.282,131.952 126.322,132.056 L 126.608,132.081 C 126.738,132.081 126.868,132.159 126.868,132.29 L 126.868,132.783 L 126.79,132.835 C 126.79,132.835 124.788,132.783 123.774,132.783 C 122.864,132.783 120.315,132.835 120.315,132.835 L 120.29,132.783 L 120.29,132.29 C 120.29,132.159 120.342,132.081 120.474,132.081 L 121.202,132.029 C 122.189,131.952 122.555,131.638 122.294,130.911 L 120.708,126.516 L 115.3,126.516 C 114.676,126.516 114.52,126.62 114.391,126.957 L 112.882,130.728 C 112.622,131.38 112.96,131.953 113.922,132.031 L 113.922,132.031 z M 120.292,125.425 L 117.77,118.484 L 117.718,118.484 L 115.118,125.088 C 115.014,125.349 115.195,125.426 115.767,125.426 L 120.292,125.426 L 120.292,125.425 z"></path>
	<path style="font-size:7.63022041px;font-style:normal;font-weight:normal;fill:#000000;fill-opacity:1;stroke:none;stroke-width:1px;stroke-linecap:butt;stroke-linejoin:miter;stroke-opacity:1;font-family:Linux Libertine O" d="M 95.077865,130.56877 L 95.077865,123.17135 C 95.06074,122.435 95.192,121.97075 95.471647,121.77857 C 95.751284,121.58641 96.282033,121.4911 97.063896,121.49264 C 97.132373,121.42576 97.166615,121.32431 97.166622,121.18825 C 97.166615,121.05221 97.132373,120.95075 97.063896,120.88387 C 96.523629,120.89348 96.03473,120.90194 95.597201,120.90923 C 95.159661,120.91655 94.659349,120.9204 94.096262,120.92075 C 93.545536,120.9204 93.054735,120.91655 92.62386,120.90923 C 92.192981,120.90194 91.702181,120.89348 91.151458,120.88387 C 91.082973,120.95075 91.048731,121.05221 91.048732,121.18825 C 91.048731,121.32431 91.082974,121.42576 91.151458,121.49264 C 91.933313,121.4911 92.464064,121.58641 92.743707,121.77857 C 93.023347,121.97075 93.154607,122.435 93.13749,123.17135 L 93.13749,130.56877 C 93.154607,131.30514 93.023347,131.76938 92.743707,131.96155 C 92.464062,132.15371 91.933313,132.24902 91.151458,132.24748 C 91.082973,132.31436 91.048731,132.41582 91.048732,132.55187 C 91.048731,132.68792 91.082974,132.78938 91.151458,132.85626 C 91.691718,132.84664 92.180616,132.83819 92.618154,132.83089 C 93.055687,132.82358 93.555999,132.81974 94.119091,132.81936 C 94.669811,132.81974 95.160611,132.82358 95.591493,132.83089 C 96.022365,132.83819 96.513166,132.84665 97.063896,132.85626 C 97.132373,132.78938 97.166615,132.68792 97.166622,132.55187 C 97.166615,132.41582 97.132373,132.31436 97.063896,132.24748 C 96.282033,132.24902 95.751284,132.15371 95.471646,131.96155 C 95.192,131.76938 95.060739,131.30514 95.077865,130.56877 L 95.077865,130.56877 z M 105.18788,130.56877 L 105.18788,127.88098 C 105.17569,127.55089 105.18464,127.33942 105.2147,127.24662 C 105.24475,127.15381 105.36898,126.95757 105.58737,126.65792 L 108.50249,122.39656 C 108.80092,121.95468 109.08351,121.69703 109.35028,121.62361 C 109.61701,121.55022 109.99491,121.50656 110.48396,121.49264 C 110.55243,121.42655 110.58667,121.32815 110.58669,121.19746 C 110.58668,121.06682 110.55243,120.96843 110.48396,120.90231 C 110.13821,120.91117 109.80244,120.91655 109.47668,120.91846 C 109.1509,120.9204 108.85508,120.92116 108.58924,120.92075 C 108.33004,120.92116 108.03232,120.9204 107.6961,120.91846 C 107.35985,120.91655 106.96512,120.91117 106.5119,120.90231 C 106.44341,120.96843 106.40917,121.06682 106.40918,121.19746 C 106.40917,121.32815 106.44341,121.42655 106.5119,121.49264 C 107.03085,121.49753 107.39971,121.52421 107.61849,121.57264 C 107.83725,121.62113 107.82602,121.82811 107.58481,122.19364 L 104.86829,126.32586 C 104.77021,126.47998 104.68671,126.54992 104.61776,126.53569 C 104.54879,126.52149 104.46641,126.43923 104.37064,126.28896 L 101.48976,122.19364 C 101.21192,121.82408 101.15808,121.61593 101.32824,121.56919 C 101.49841,121.52246 101.90227,121.49695 102.53984,121.49264 C 102.60832,121.42576 102.64256,121.32431 102.64257,121.18825 C 102.64256,121.05221 102.60832,120.95075 102.53984,120.88387 C 102.08898,120.89348 101.65525,120.90194 101.23865,120.90923 C 100.82204,120.91655 100.3883,120.9204 99.937454,120.92075 C 99.493729,120.9204 99.079974,120.91655 98.696182,120.90923 C 98.312385,120.90194 97.949992,120.89348 97.609001,120.88387 C 97.541467,120.95075 97.511031,121.05221 97.517689,121.18825 C 97.524347,121.32431 97.562394,121.42576 97.631829,121.49264 C 98.08249,121.48949 98.442981,121.54467 98.713302,121.6582 C 98.983617,121.77174 99.336119,122.12854 99.770813,122.72862 L 102.76812,126.80549 C 102.96286,127.05242 103.09269,127.24113 103.15762,127.37159 C 103.22253,127.50208 103.25249,127.72538 103.24751,128.04147 L 103.24751,130.56877 C 103.26938,131.30514 103.1286,131.76938 102.82519,131.96155 C 102.52176,132.15371 101.92443,132.24902 101.03319,132.24748 C 100.96471,132.31436 100.93047,132.41582 100.93047,132.55187 C 100.93047,132.68792 100.96471,132.78938 101.03319,132.85626 C 101.57726,132.84664 102.09279,132.83819 102.57978,132.83089 C 103.06678,132.82358 103.61655,132.81974 104.2291,132.81936 C 104.82929,132.81974 105.36955,132.82358 105.8499,132.83089 C 106.33022,132.83819 106.84765,132.84665 107.40219,132.85626 C 107.47067,132.78938 107.50491,132.68792 107.50492,132.55187 C 107.50491,132.41582 107.47067,132.31436 107.40219,132.24748 C 106.51094,132.24902 105.91361,132.15371 105.6102,131.96155 C 105.30677,131.76938 105.166,131.30514 105.18788,130.56877 L 105.18788,130.56877 z" id="text4136"></path></g><text xml:space="preserve" style="font-size:10px;font-style:normal;font-weight:normal;fill:#000000;fill-opacity:1;stroke:none;stroke-width:1px;stroke-linecap:butt;stroke-linejoin:miter;stroke-opacity:1;font-family:Bitstream Vera Sans" x="127" y="147" id="text4128"><tspan sodipodi:role="line" id="tspan4130" x="127" y="147"></tspan></text>
<path transform="scale(1.0087465,0.9913293)" style="font-size:12.26565647px;font-style:normal;font-weight:normal;fill:#000000;fill-opacity:1;stroke:none;stroke-width:1px;stroke-linecap:butt;stroke-linejoin:miter;stroke-opacity:1;font-family:Linux Libertine O" d="M 24.161755,140.12238 C 25.013691,140.12341 25.71078,140.4464 26.253023,141.09135 C 26.795253,141.73632 27.075315,142.69711 27.093209,143.97374 C 27.078382,145.08045 26.844315,145.93955 26.39101,146.55103 C 25.937691,147.16252 25.354059,147.47273 24.64011,147.48167 C 23.875046,147.47401 23.206576,147.14897 22.634701,146.50657 C 22.06282,145.86416 21.762315,144.95039 21.733187,143.76523 C 21.764615,142.48656 22.029857,141.55744 22.528911,140.97789 C 23.02796,140.39836 23.572241,140.11318 24.161755,140.12238 L 24.161755,140.12238 z M 21.80678,149.65267 L 22.285134,149.89798 C 22.418263,149.62098 22.575159,149.42984 22.755822,149.32457 C 22.93648,149.21929 23.078044,149.1692 23.180515,149.17431 C 23.553398,149.1887 23.907432,149.2894 24.242617,149.47641 C 24.577793,149.66342 24.938187,149.85043 25.323798,150.03744 C 25.709398,150.22445 26.164281,150.32515 26.688448,150.33954 C 27.070205,150.34056 27.401373,150.25879 27.681953,150.09423 C 27.962519,149.92966 28.220094,149.67617 28.45468,149.33377 L 28.246166,149.18658 C 28.105872,149.35037 27.938754,149.46741 27.744814,149.53768 C 27.550858,149.60795 27.362277,149.64219 27.179068,149.6404 C 26.821999,149.62798 26.4663,149.54107 26.11197,149.37965 C 25.757627,149.21823 25.3883,149.05681 25.003986,148.89539 C 24.619662,148.73397 24.203999,148.64705 23.756994,148.63463 C 23.682989,148.63463 23.601628,148.64076 23.512911,148.65303 C 23.818624,148.43266 24.11085,148.25644 24.389587,148.12439 C 24.668316,147.99233 24.909639,147.89829 25.113558,147.84228 C 26.090806,147.67107 26.858625,147.22236 27.417019,146.49614 C 27.975397,145.76992 28.259957,144.85144 28.270697,143.7407 C 28.240281,142.51006 27.850341,141.53394 27.100875,140.81231 C 26.351396,140.0907 25.424841,139.72171 24.321207,139.70535 C 23.203765,139.73295 22.301741,140.14385 21.615131,140.93803 C 20.928518,141.73223 20.575374,142.74413 20.555699,143.97374 C 20.577572,145.09407 20.899336,145.99339 21.520994,146.67169 C 22.142648,147.35 22.932954,147.74919 23.891914,147.86926 C 23.444195,148.10939 23.037338,148.39052 22.671344,148.71267 C 22.305344,149.03482 22.017156,149.34815 21.80678,149.65267 L 21.80678,149.65267 z M 29.806103,140.42901 C 29.812235,140.59512 29.873563,140.74128 29.990086,140.8675 C 30.106607,140.99374 30.241527,141.06018 30.394847,141.06682 C 30.571673,141.05847 30.720903,140.9927 30.842538,140.8695 C 30.964168,140.74631 31.02754,140.61584 31.032653,140.47808 C 31.028818,140.32272 30.97209,140.17962 30.86247,140.04878 C 30.752845,139.91796 30.613325,139.84845 30.443909,139.84027 C 30.288545,139.84641 30.145447,139.90774 30.014617,140.02425 C 29.883784,140.14078 29.814279,140.2757 29.806103,140.42901 L 29.806103,140.42901 z M 30.922264,146.27966 L 30.922264,143.83514 C 30.924306,143.51034 30.932483,143.20171 30.946795,142.90925 C 30.961102,142.6168 30.969279,142.46057 30.971326,142.44055 C 30.970812,142.41552 30.956503,142.39508 30.928396,142.37923 C 30.900286,142.36339 30.861445,142.35521 30.811874,142.3547 C 30.641816,142.42165 30.423848,142.484 30.15797,142.54175 C 29.892088,142.5995 29.549932,142.65572 29.131501,142.7104 C 29.120257,142.75231 29.118213,142.80955 29.125368,142.88211 C 29.132522,142.95469 29.142744,143.01193 29.156032,143.05383 C 29.481706,143.07226 29.69814,143.1317 29.805337,143.23214 C 29.912531,143.33259 29.961848,143.55117 29.953289,143.88788 L 29.953289,146.27966 C 29.963254,146.76772 29.909592,147.07334 29.792304,147.1965 C 29.675014,147.31967 29.434304,147.38611 29.070173,147.39582 C 29.033376,147.44028 29.014978,147.50774 29.014979,147.5982 C 29.014978,147.68866 29.033377,147.75612 29.070173,147.80058 C 29.31906,147.79419 29.544949,147.78857 29.747842,147.78371 C 29.950733,147.77886 30.182755,147.7763 30.443909,147.77605 C 30.698416,147.7763 30.925328,147.77886 31.124644,147.78371 C 31.323956,147.78857 31.550868,147.79419 31.80538,147.80058 C 31.842173,147.75612 31.860571,147.68866 31.860574,147.5982 C 31.860571,147.50774 31.842173,147.44028 31.80538,147.39582 C 31.441245,147.39147 31.200535,147.32657 31.083248,147.2011 C 30.965957,147.07564 30.912296,146.76849 30.922264,146.27966 L 30.922264,146.27966 z M 32.620887,146.08341 C 32.645928,146.38468 32.66637,146.67752 32.682214,146.96192 C 32.698056,147.24633 32.706233,147.5177 32.706745,147.77605 C 32.769349,147.76378 32.828121,147.75458 32.883062,147.74845 C 32.938,147.74232 32.98144,147.73925 33.013383,147.73925 C 33.0558,147.73874 33.096685,147.73976 33.136038,147.74232 C 33.175388,147.74487 33.216273,147.75203 33.258692,147.76378 C 33.42172,147.80697 33.592415,147.84018 33.770777,147.86344 C 33.949136,147.88669 34.150495,147.89845 34.374853,147.8987 C 34.756614,147.9102 35.167507,147.80441 35.607535,147.58133 C 36.047556,147.35825 36.286733,146.94889 36.325067,146.35325 C 36.317244,145.93837 36.182017,145.60076 35.919386,145.34043 C 35.656747,145.08009 35.31362,144.87311 34.890004,144.71948 C 34.516926,144.59188 34.22051,144.45154 34.000755,144.29847 C 33.780996,144.14541 33.668563,143.90634 33.663454,143.58125 C 33.673162,143.32853 33.764131,143.13484 33.936361,143.00017 C 34.108587,142.86551 34.303813,142.79754 34.522039,142.79625 C 34.677655,142.77863 34.881568,142.83842 35.133781,142.97564 C 35.385987,143.11286 35.562303,143.4333 35.66273,143.93695 C 35.706678,143.97323 35.772094,143.98959 35.858978,143.98601 C 35.945855,143.98243 36.011271,143.96199 36.055226,143.92468 C 36.057522,143.70263 36.068255,143.48134 36.087423,143.26081 C 36.106584,143.04029 36.120383,142.8282 36.128819,142.62454 C 35.935378,142.588 35.699778,142.54149 35.42202,142.48502 C 35.144254,142.42855 34.844261,142.39738 34.522039,142.39149 C 34.052881,142.39968 33.651186,142.53051 33.316953,142.78399 C 32.982718,143.03748 32.807934,143.36456 32.792604,143.76523 C 32.789792,144.20194 32.896604,144.54281 33.11304,144.78786 C 33.329473,145.03292 33.672396,145.24808 34.141808,145.43334 C 34.638252,145.63505 34.973713,145.82221 35.148192,145.99479 C 35.322666,146.16738 35.404231,146.3809 35.392889,146.63536 C 35.37781,146.93407 35.260776,147.1523 35.041789,147.29003 C 34.822796,147.42776 34.592307,147.49573 34.350322,147.49394 C 34.11242,147.49011 33.922816,147.45791 33.781509,147.39735 C 33.640199,147.33679 33.53952,147.27086 33.479471,147.19957 C 33.33535,147.04829 33.228027,146.86329 33.157502,146.64455 C 33.086974,146.42582 33.034846,146.23468 33.001117,146.07114 C 32.957676,146.03486 32.894304,146.0185 32.811002,146.02208 C 32.727698,146.02566 32.664326,146.0461 32.620887,146.08341 L 32.620887,146.08341 z M 38.874051,143.6671 C 39.069632,143.46575 39.278861,143.29812 39.501738,143.16422 C 39.724609,143.03033 39.928318,142.96082 40.112866,142.95571 C 40.517113,142.96363 40.858502,143.16857 41.137035,143.57051 C 41.415559,143.97247 41.560701,144.5239 41.572461,145.22482 C 41.586254,145.75889 41.469732,146.26075 41.222894,146.73041 C 40.976046,147.20008 40.516091,147.4505 39.843025,147.48167 C 39.723945,147.48323 39.578803,147.46478 39.4076,147.42633 C 39.236392,147.38787 39.09125,147.32005 38.972175,147.22287 C 38.852047,147.12334 38.772168,147.02864 38.732537,146.93877 C 38.692903,146.8489 38.674658,146.6987 38.677803,146.48817 L 38.677803,144.20679 C 38.676166,144.08173 38.689249,143.97983 38.717052,143.90107 C 38.744852,143.82232 38.797185,143.74433 38.874051,143.6671 L 38.874051,143.6671 z M 38.775927,143.26234 C 38.754179,143.28343 38.728984,143.29309 38.70034,143.29132 C 38.671693,143.28956 38.656004,143.26764 38.653272,143.22555 C 38.655314,142.99966 38.663491,142.81364 38.677803,142.66747 C 38.692111,142.52131 38.700288,142.44567 38.702334,142.44055 C 38.701821,142.41552 38.687511,142.39508 38.659404,142.37923 C 38.631294,142.36339 38.592453,142.35521 38.542882,142.3547 C 38.37653,142.42165 38.163417,142.484 37.903543,142.54175 C 37.643667,142.5995 37.304833,142.65572 36.88704,142.7104 C 36.875797,142.75231 36.873752,142.80955 36.880907,142.88211 C 36.888062,142.95469 36.898283,143.01193 36.911571,143.05383 C 37.234562,143.07172 37.45023,143.131 37.558576,143.23168 C 37.66692,143.33236 37.717005,143.5511 37.708829,143.88788 L 37.708829,149.12525 C 37.718793,149.61485 37.665132,149.92353 37.547844,150.0513 C 37.430554,150.17906 37.189844,150.24243 36.825713,150.24141 C 36.788916,150.28587 36.770518,150.35333 36.770518,150.44379 C 36.770518,150.53425 36.788916,150.60171 36.825713,150.64617 C 37.074599,150.63978 37.300489,150.63416 37.503381,150.62931 C 37.706272,150.62445 37.938294,150.62189 38.199448,150.62164 C 38.480531,150.6219 38.734018,150.62445 38.959909,150.62931 C 39.185796,150.63416 39.427018,150.63978 39.683574,150.64617 C 39.720367,150.60171 39.738765,150.53425 39.738768,150.44379 C 39.738765,150.35333 39.720367,150.28587 39.683574,150.24141 C 39.260667,150.23707 38.984182,150.17216 38.854119,150.0467 C 38.724052,149.92123 38.66528,149.61408 38.677803,149.12525 L 38.677803,147.80058 C 38.677137,147.72377 38.690118,147.68206 38.716746,147.67547 C 38.74337,147.66888 38.787628,147.67992 38.84952,147.70859 C 39.001227,147.76963 39.168191,147.8165 39.350412,147.84918 C 39.532629,147.88186 39.721364,147.89837 39.916618,147.8987 C 40.260815,147.89998 40.584318,147.8453 40.887126,147.73465 C 41.189926,147.62401 41.467433,147.44973 41.719647,147.21183 C 42.009669,146.93049 42.233003,146.59779 42.389649,146.21373 C 42.546284,145.82967 42.625499,145.38964 42.627293,144.89365 C 42.615022,144.22059 42.409575,143.64104 42.010952,143.15502 C 41.612318,142.669 41.094102,142.4145 40.4563,142.39149 C 40.22223,142.39252 39.954433,142.46714 39.65291,142.61534 C 39.35138,142.76355 39.059053,142.97922 38.775927,143.26234 L 38.775927,143.26234 z M 44.203876,140.42901 C 44.210008,140.59512 44.271335,140.74128 44.387859,140.8675 C 44.504379,140.99374 44.6393,141.06018 44.79262,141.06682 C 44.969446,141.05847 45.118676,140.9927 45.240311,140.8695 C 45.361941,140.74631 45.425313,140.61584 45.430426,140.47808 C 45.426591,140.32272 45.369863,140.17962 45.260242,140.04878 C 45.150617,139.91796 45.011097,139.84845 44.841682,139.84027 C 44.686318,139.84641 44.54322,139.90774 44.41239,140.02425 C 44.281556,140.14078 44.212052,140.2757 44.203876,140.42901 L 44.203876,140.42901 z M 45.320037,146.27966 L 45.320037,143.83514 C 45.322079,143.51034 45.330256,143.20171 45.344568,142.90925 C 45.358875,142.6168 45.367052,142.46057 45.369099,142.44055 C 45.368585,142.41552 45.354275,142.39508 45.326169,142.37923 C 45.298058,142.36339 45.259218,142.35521 45.209647,142.3547 C 45.039589,142.42165 44.821621,142.484 44.555743,142.54175 C 44.289861,142.5995 43.947705,142.65572 43.529274,142.7104 C 43.51803,142.75231 43.515986,142.80955 43.523141,142.88211 C 43.530295,142.95469 43.540517,143.01193 43.553805,143.05383 C 43.879479,143.07226 44.095913,143.1317 44.203109,143.23214 C 44.310303,143.33259 44.359621,143.55117 44.351062,143.88788 L 44.351062,146.27966 C 44.361027,146.76772 44.307365,147.07334 44.190077,147.1965 C 44.072787,147.31967 43.832077,147.38611 43.467946,147.39582 C 43.431149,147.44028 43.412751,147.50774 43.412751,147.5982 C 43.412751,147.68866 43.431149,147.75612 43.467946,147.80058 C 43.716833,147.79419 43.942722,147.78857 44.145615,147.78371 C 44.348506,147.77886 44.580528,147.7763 44.841682,147.77605 C 45.096189,147.7763 45.323101,147.77886 45.522417,147.78371 C 45.721729,147.78857 45.94864,147.79419 46.203152,147.80058 C 46.239946,147.75612 46.258344,147.68866 46.258347,147.5982 C 46.258344,147.50774 46.239946,147.44028 46.203152,147.39582 C 45.839018,147.39147 45.598307,147.32657 45.481021,147.2011 C 45.36373,147.07564 45.310069,146.76849 45.320037,146.27966 L 45.320037,146.27966 z M 50.600223,140.42901 C 50.606355,140.59512 50.667682,140.74128 50.784206,140.8675 C 50.900726,140.99374 51.035647,141.06018 51.188967,141.06682 C 51.365793,141.05847 51.515023,140.9927 51.636658,140.8695 C 51.758288,140.74631 51.82166,140.61584 51.826773,140.47808 C 51.822938,140.32272 51.76621,140.17962 51.656589,140.04878 C 51.546964,139.91796 51.407444,139.84845 51.238029,139.84027 C 51.082665,139.84641 50.939567,139.90774 50.808737,140.02425 C 50.677904,140.14078 50.608399,140.2757 50.600223,140.42901 L 50.600223,140.42901 z M 51.716384,146.27966 L 51.716384,143.83514 C 51.718426,143.51034 51.726603,143.20171 51.740915,142.90925 C 51.755222,142.6168 51.763399,142.46057 51.765446,142.44055 C 51.764932,142.41552 51.750622,142.39508 51.722516,142.37923 C 51.694405,142.36339 51.655565,142.35521 51.605994,142.3547 C 51.435936,142.42165 51.217968,142.484 50.95209,142.54175 C 50.686208,142.5995 50.344052,142.65572 49.925621,142.7104 C 49.914377,142.75231 49.912333,142.80955 49.919488,142.88211 C 49.926642,142.95469 49.936864,143.01193 49.950152,143.05383 C 50.275826,143.07226 50.49226,143.1317 50.599456,143.23214 C 50.706651,143.33259 50.755968,143.55117 50.747409,143.88788 L 50.747409,146.27966 C 50.757374,146.76772 50.703712,147.07334 50.586424,147.1965 C 50.469134,147.31967 50.228424,147.38611 49.864293,147.39582 C 49.827496,147.44028 49.809098,147.50774 49.809098,147.5982 C 49.809098,147.68866 49.827496,147.75612 49.864293,147.80058 C 50.11318,147.79419 50.339069,147.78857 50.541962,147.78371 C 50.744853,147.77886 50.976875,147.7763 51.238029,147.77605 C 51.492536,147.7763 51.719448,147.77886 51.918764,147.78371 C 52.118076,147.78857 52.344987,147.79419 52.599499,147.80058 C 52.636293,147.75612 52.654691,147.68866 52.654694,147.5982 C 52.654691,147.50774 52.636293,147.44028 52.599499,147.39582 C 52.235365,147.39147 51.994654,147.32657 51.877368,147.2011 C 51.760077,147.07564 51.706416,146.76849 51.716384,146.27966 L 51.716384,146.27966 z M 55.083115,143.385 C 55.061904,143.4172 55.036861,143.4448 55.007989,143.46779 C 54.979111,143.49079 54.963269,143.4632 54.96046,143.385 C 54.963013,143.18518 54.973234,142.98382 54.991124,142.78092 C 55.009009,142.57804 55.01923,142.46867 55.021788,142.45282 C 55.021785,142.38945 54.972724,142.35675 54.874602,142.3547 C 54.706716,142.42165 54.48747,142.484 54.216864,142.54175 C 53.946255,142.5995 53.601289,142.65572 53.181963,142.7104 C 53.170719,142.75231 53.168675,142.80955 53.17583,142.88211 C 53.182984,142.95469 53.193206,143.01193 53.206494,143.05383 C 53.529485,143.07095 53.745153,143.1287 53.853499,143.22708 C 53.961843,143.32546 54.011927,143.54573 54.003751,143.88788 L 54.003751,146.27966 C 54.013971,146.76236 53.962865,147.06644 53.850432,147.1919 C 53.737998,147.31737 53.502909,147.38534 53.145166,147.39582 C 53.108369,147.44028 53.089971,147.50774 53.089971,147.5982 C 53.089971,147.68866 53.10837,147.75612 53.145166,147.80058 C 53.388431,147.79419 53.610232,147.78857 53.81057,147.78371 C 54.010905,147.77886 54.238838,147.7763 54.494371,147.77605 C 54.722048,147.7763 54.919829,147.77886 55.087715,147.78371 C 55.255596,147.78857 55.462576,147.79419 55.708656,147.80058 C 55.745449,147.75612 55.763847,147.68866 55.76385,147.5982 C 55.763847,147.50774 55.745449,147.44028 55.708656,147.39582 C 55.404315,147.38534 55.203468,147.31737 55.106113,147.1919 C 55.008753,147.06644 54.964291,146.76236 54.972726,146.27966 L 54.972726,144.26811 C 54.975279,144.14086 54.997765,144.03661 55.040186,143.95534 C 55.082602,143.87409 55.129619,143.80663 55.181239,143.75296 C 55.414537,143.52427 55.650136,143.34693 55.888039,143.22095 C 56.125935,143.09497 56.364601,143.03109 56.604037,143.0293 C 56.729243,143.03007 56.849854,143.0684 56.965869,143.14429 C 57.081876,143.22018 57.177956,143.32904 57.254108,143.47086 C 57.313898,143.59454 57.353761,143.73661 57.373697,143.89708 C 57.393624,144.05756 57.402823,144.2303 57.401294,144.4153 L 57.401294,146.27966 C 57.409467,146.76236 57.362449,147.06644 57.260241,147.1919 C 57.158024,147.31737 56.951555,147.38534 56.640833,147.39582 C 56.610166,147.44028 56.594834,147.50774 56.594838,147.5982 C 56.594834,147.68866 56.610166,147.75612 56.640833,147.80058 C 56.887672,147.79419 57.099252,147.78857 57.275573,147.78371 C 57.451885,147.77886 57.657332,147.7763 57.891914,147.77605 C 58.13313,147.7763 58.346754,147.77886 58.532786,147.78371 C 58.718807,147.78857 58.938564,147.79419 59.192057,147.80058 C 59.222714,147.75612 59.238046,147.68866 59.238053,147.5982 C 59.238047,147.50774 59.222715,147.44028 59.192057,147.39582 C 58.857305,147.38534 58.634482,147.31737 58.523587,147.1919 C 58.412681,147.06644 58.361575,146.76236 58.370269,146.27966 L 58.370269,144.4521 C 58.374096,144.11224 58.354165,143.80152 58.310475,143.51992 C 58.266773,143.23833 58.176315,143.0012 58.0391,142.80852 C 57.932283,142.67309 57.790208,142.56986 57.612874,142.49882 C 57.435531,142.42778 57.238261,142.39201 57.021064,142.39149 C 56.724133,142.38077 56.41954,142.44209 56.107284,142.57548 C 55.795022,142.70887 55.453633,142.97871 55.083115,143.385 L 55.083115,143.385 z M 59.979048,146.08341 C 60.00409,146.38468 60.024532,146.67752 60.040376,146.96192 C 60.056218,147.24633 60.064395,147.5177 60.064907,147.77605 C 60.127511,147.76378 60.186283,147.75458 60.241223,147.74845 C 60.296162,147.74232 60.339602,147.73925 60.371544,147.73925 C 60.413962,147.73874 60.454846,147.73976 60.494199,147.74232 C 60.53355,147.74487 60.574435,147.75203 60.616854,147.76378 C 60.779882,147.80697 60.950577,147.84018 61.128939,147.86344 C 61.307298,147.88669 61.508656,147.89845 61.733015,147.8987 C 62.114776,147.9102 62.525669,147.80441 62.965697,147.58133 C 63.405718,147.35825 63.644895,146.94889 63.683229,146.35325 C 63.675406,145.93837 63.540178,145.60076 63.277548,145.34043 C 63.014909,145.08009 62.671782,144.87311 62.248166,144.71948 C 61.875088,144.59188 61.578672,144.45154 61.358917,144.29847 C 61.139158,144.14541 61.026725,143.90634 61.021616,143.58125 C 61.031324,143.32853 61.122293,143.13484 61.294523,143.00017 C 61.466749,142.86551 61.661975,142.79754 61.880201,142.79625 C 62.035817,142.77863 62.23973,142.83842 62.491943,142.97564 C 62.744149,143.11286 62.920465,143.4333 63.020892,143.93695 C 63.06484,143.97323 63.130256,143.98959 63.21714,143.98601 C 63.304017,143.98243 63.369433,143.96199 63.413388,143.92468 C 63.415684,143.70263 63.426416,143.48134 63.445585,143.26081 C 63.464746,143.04029 63.478545,142.8282 63.486981,142.62454 C 63.29354,142.588 63.05794,142.54149 62.780181,142.48502 C 62.502416,142.42855 62.202423,142.39738 61.880201,142.39149 C 61.411043,142.39968 61.009348,142.53051 60.675115,142.78399 C 60.340879,143.03748 60.166096,143.36456 60.150765,143.76523 C 60.147954,144.20194 60.254766,144.54281 60.471202,144.78786 C 60.687635,145.03292 61.030558,145.24808 61.49997,145.43334 C 61.996414,145.63505 62.331875,145.82221 62.506354,145.99479 C 62.680828,146.16738 62.762393,146.3809 62.751051,146.63536 C 62.735972,146.93407 62.618938,147.1523 62.399951,147.29003 C 62.180958,147.42776 61.950469,147.49573 61.708484,147.49394 C 61.470582,147.49011 61.280978,147.45791 61.139671,147.39735 C 60.998361,147.33679 60.897682,147.27086 60.837633,147.19957 C 60.693512,147.04829 60.586189,146.86329 60.515664,146.64455 C 60.445136,146.42582 60.393008,146.23468 60.359279,146.07114 C 60.315838,146.03486 60.252466,146.0185 60.169164,146.02208 C 60.08586,146.02566 60.022488,146.0461 59.979048,146.08341 L 59.979048,146.08341 z M 65.189645,140.42901 C 65.195777,140.59512 65.257105,140.74128 65.373628,140.8675 C 65.490149,140.99374 65.625069,141.06018 65.778389,141.06682 C 65.955215,141.05847 66.104445,140.9927 66.22608,140.8695 C 66.34771,140.74631 66.411082,140.61584 66.416195,140.47808 C 66.41236,140.32272 66.355632,140.17962 66.246012,140.04878 C 66.136387,139.91796 65.996867,139.84845 65.827451,139.84027 C 65.672087,139.84641 65.528989,139.90774 65.398159,140.02425 C 65.267326,140.14078 65.197821,140.2757 65.189645,140.42901 L 65.189645,140.42901 z M 66.305806,146.27966 L 66.305806,143.83514 C 66.307848,143.51034 66.316025,143.20171 66.330337,142.90925 C 66.344644,142.6168 66.352821,142.46057 66.354868,142.44055 C 66.354355,142.41552 66.340045,142.39508 66.311938,142.37923 C 66.283828,142.36339 66.244987,142.35521 66.195416,142.3547 C 66.025358,142.42165 65.80739,142.484 65.541512,142.54175 C 65.27563,142.5995 64.933475,142.65572 64.515043,142.7104 C 64.503799,142.75231 64.501755,142.80955 64.50891,142.88211 C 64.516064,142.95469 64.526286,143.01193 64.539574,143.05383 C 64.865248,143.07226 65.081682,143.1317 65.188879,143.23214 C 65.296073,143.33259 65.34539,143.55117 65.336831,143.88788 L 65.336831,146.27966 C 65.346796,146.76772 65.293134,147.07334 65.175846,147.1965 C 65.058556,147.31967 64.817846,147.38611 64.453716,147.39582 C 64.416918,147.44028 64.39852,147.50774 64.398521,147.5982 C 64.39852,147.68866 64.416919,147.75612 64.453716,147.80058 C 64.702602,147.79419 64.928491,147.78857 65.131384,147.78371 C 65.334275,147.77886 65.566297,147.7763 65.827451,147.77605 C 66.081958,147.7763 66.30887,147.77886 66.508186,147.78371 C 66.707498,147.78857 66.93441,147.79419 67.188922,147.80058 C 67.225715,147.75612 67.244113,147.68866 67.244116,147.5982 C 67.244113,147.50774 67.225715,147.44028 67.188922,147.39582 C 66.824787,147.39147 66.584077,147.32657 66.46679,147.2011 C 66.349499,147.07564 66.295838,146.76849 66.305806,146.27966 L 66.305806,146.27966 z M 68.47052,146.27966 C 68.479207,146.76849 68.428101,147.07564 68.317202,147.2011 C 68.2063,147.32657 67.983477,147.39147 67.648732,147.39582 C 67.611935,147.44028 67.593537,147.50774 67.593537,147.5982 C 67.593537,147.68866 67.611935,147.75612 67.648732,147.80058 C 67.896597,147.79419 68.115331,147.78857 68.304936,147.78371 C 68.494539,147.77886 68.713274,147.7763 68.96114,147.77605 C 69.162497,147.7763 69.336258,147.77886 69.482424,147.78371 C 69.628585,147.78857 69.826878,147.79419 70.077301,147.80058 C 70.114094,147.75612 70.132492,147.68866 70.132495,147.5982 C 70.132493,147.50774 70.114095,147.44028 70.077301,147.39582 C 69.830711,147.39147 69.661549,147.32657 69.569815,147.2011 C 69.478078,147.07564 69.434637,146.76849 69.439495,146.27966 L 69.439495,145.17576 C 69.581389,145.17469 69.704504,145.20566 69.80884,145.26867 C 69.913171,145.33169 70.0231,145.4479 70.138628,145.61732 L 71.03401,146.88067 C 71.153083,147.05392 71.230765,147.18884 71.267054,147.28543 C 71.303336,147.38202 71.31969,147.46788 71.316116,147.543 L 71.316116,147.73925 C 71.314068,147.77809 71.330422,147.79853 71.365178,147.80058 C 71.484763,147.79419 71.610484,147.78857 71.742342,147.78371 C 71.874192,147.77886 72.030577,147.7763 72.211497,147.77605 C 72.396753,147.7763 72.565914,147.77886 72.718982,147.78371 C 72.87204,147.78857 73.038135,147.79419 73.217268,147.80058 C 73.254059,147.75612 73.272457,147.68866 73.272463,147.5982 C 73.272457,147.50774 73.254059,147.44028 73.217268,147.39582 C 73.00834,147.3788 72.815363,147.33863 72.638337,147.27531 C 72.461299,147.21199 72.302666,147.08044 72.162436,146.88067 L 70.727372,144.75873 C 70.688528,144.70763 70.668086,144.65039 70.666045,144.58702 C 70.663997,144.54 70.680351,144.49912 70.715107,144.46436 L 71.647285,143.43406 C 71.824542,143.24837 72.018286,143.11442 72.228516,143.03221 C 72.438736,142.95001 72.694727,142.90407 72.996489,142.89438 C 73.03328,142.84992 73.051678,142.78246 73.051684,142.692 C 73.051678,142.60154 73.03328,142.53408 72.996489,142.48962 C 72.781071,142.49601 72.601688,142.50163 72.458341,142.50648 C 72.314983,142.51134 72.138666,142.5139 71.929391,142.51415 C 71.706819,142.5139 71.517215,142.51134 71.360578,142.50648 C 71.203934,142.50163 71.017396,142.49601 70.800965,142.48962 C 70.764165,142.53408 70.745767,142.60154 70.74577,142.692 C 70.745767,142.78246 70.764165,142.84992 70.800965,142.89438 C 71.142862,142.9285 71.288515,143.02125 71.237923,143.17265 C 71.187324,143.32406 71.115265,143.43981 71.021744,143.51992 C 70.693945,143.87854 70.390374,144.17873 70.111031,144.42051 C 69.831682,144.6623 69.607837,144.80979 69.439495,144.86299 L 69.439495,140.62526 C 69.441537,140.22281 69.449714,139.9085 69.464026,139.68235 C 69.478333,139.45621 69.48651,139.34123 69.488557,139.33738 C 69.490599,139.25358 69.437449,139.21269 69.329105,139.21473 C 69.154065,139.2799 68.890868,139.34582 68.539514,139.41251 C 68.188157,139.47921 67.878965,139.52367 67.611936,139.5459 C 67.59967,139.59957 67.59967,139.66396 67.611936,139.73908 C 67.624201,139.81421 67.648732,139.87247 67.685529,139.91386 C 67.997276,139.90748 68.207833,139.95092 68.317202,140.04418 C 68.426568,140.13746 68.477674,140.42928 68.47052,140.91963 L 68.47052,146.27966 z M 74.498131,146.27966 C 74.508096,146.76925 74.454434,147.07794 74.337146,147.2057 C 74.219856,147.33347 73.979146,147.39684 73.615015,147.39582 C 73.578218,147.44028 73.55982,147.50774 73.55982,147.5982 C 73.55982,147.68866 73.578218,147.75612 73.615015,147.80058 C 73.863902,147.79419 74.089791,147.78857 74.292684,147.78371 C 74.495574,147.77886 74.727597,147.7763 74.988751,147.77605 C 75.243258,147.7763 75.470169,147.77886 75.669486,147.78371 C 75.868798,147.78857 76.095709,147.79419 76.350221,147.80058 C 76.387014,147.75612 76.405413,147.68866 76.405416,147.5982 C 76.405413,147.50774 76.387015,147.44028 76.350221,147.39582 C 75.986087,147.39684 75.745376,147.33347 75.62809,147.2057 C 75.510799,147.07794 75.457138,146.76925 75.467105,146.27966 L 75.467105,140.62526 C 75.469148,140.22281 75.477325,139.9085 75.491636,139.68235 C 75.505944,139.45621 75.514121,139.34123 75.516167,139.33738 C 75.51821,139.25358 75.465059,139.21269 75.356716,139.21473 C 75.181675,139.2799 74.918478,139.34582 74.567124,139.41251 C 74.215768,139.47921 73.906575,139.52367 73.639546,139.5459 C 73.62728,139.59957 73.62728,139.66396 73.639546,139.73908 C 73.651811,139.81421 73.676342,139.87247 73.713139,139.91386 C 74.024886,139.90748 74.235444,139.95092 74.344812,140.04418 C 74.454178,140.13746 74.505285,140.42928 74.498131,140.91963 L 74.498131,146.27966 z M 79.22863,147.8987 C 79.466271,147.89878 79.714647,147.8373 79.973759,147.71426 C 80.232864,147.59122 80.511904,147.40617 80.810879,147.15909 C 80.842765,147.13346 80.874655,147.11941 80.90655,147.11693 C 80.938436,147.11445 80.955607,147.13382 80.958065,147.17504 C 80.963682,147.33022 80.986169,147.48656 81.025525,147.64404 C 81.064872,147.80152 81.087359,147.88641 81.092986,147.8987 C 81.137571,147.9161 81.176259,147.92423 81.209048,147.92308 C 81.241828,147.92193 81.280822,147.9138 81.32603,147.8987 C 81.459157,147.78703 81.646717,147.6884 81.88871,147.6028 C 82.130692,147.51719 82.437841,147.45229 82.810155,147.40808 C 82.846945,147.36669 82.865344,147.31149 82.86535,147.2425 C 82.865344,147.1735 82.846946,147.11831 82.810155,147.07691 C 82.429408,147.05034 82.182054,146.96857 82.068093,146.8316 C 81.95412,146.69464 81.903014,146.47795 81.914774,146.18153 L 81.914774,143.82656 C 81.916813,143.61299 81.92499,143.35664 81.939305,143.05751 C 81.953609,142.75839 81.961786,142.59403 81.963836,142.56444 C 81.963575,142.54469 81.954887,142.52747 81.937772,142.51277 C 81.920645,142.49808 81.896626,142.49036 81.865712,142.48962 C 81.832488,142.49601 81.776271,142.50163 81.697061,142.50648 C 81.617842,142.51134 81.530961,142.5139 81.43642,142.51415 C 81.240933,142.5139 81.040086,142.51134 80.833877,142.50648 C 80.627659,142.50163 80.41148,142.49601 80.185339,142.48962 C 80.148538,142.53408 80.13014,142.60154 80.130144,142.692 C 80.13014,142.78246 80.148539,142.84992 80.185339,142.89438 C 80.479962,142.90128 80.681831,142.97028 80.790947,143.10136 C 80.900055,143.23245 80.951672,143.49463 80.9458,143.88788 L 80.9458,146.25512 C 80.948427,146.36766 80.937337,146.45781 80.912529,146.52558 C 80.887713,146.59335 80.833387,146.66265 80.749552,146.73348 C 80.522125,146.92973 80.311567,147.07691 80.117878,147.17504 C 79.924182,147.27316 79.750421,147.32222 79.596595,147.32222 C 79.394722,147.33781 79.185187,147.26371 78.967988,147.09991 C 78.750784,146.93612 78.63324,146.58911 78.615355,146.05888 L 78.615355,143.82656 C 78.617397,143.61299 78.625574,143.35664 78.639886,143.05751 C 78.654193,142.75839 78.66237,142.59403 78.664417,142.56444 C 78.664159,142.54469 78.655471,142.52747 78.638352,142.51277 C 78.62123,142.49808 78.59721,142.49036 78.566293,142.48962 C 78.533072,142.49601 78.476855,142.50163 78.397642,142.50648 C 78.318426,142.51134 78.231545,142.5139 78.137,142.51415 C 77.941517,142.5139 77.74067,142.51134 77.534458,142.50648 C 77.328243,142.50163 77.112064,142.49601 76.88592,142.48962 C 76.849123,142.53408 76.830724,142.60154 76.830725,142.692 C 76.830724,142.78246 76.849123,142.84992 76.88592,142.89438 C 77.17518,142.9069 77.375517,142.97692 77.486929,143.10443 C 77.59834,143.23194 77.65149,143.489 77.64638,143.87562 L 77.64638,146.23059 C 77.636414,146.67036 77.748336,147.05417 77.982148,147.38202 C 78.215958,147.70986 78.631451,147.88209 79.22863,147.8987 L 79.22863,147.8987 z M 85.157738,143.6671 C 85.35332,143.46575 85.562549,143.29812 85.785425,143.16422 C 86.008297,143.03033 86.212006,142.96082 86.396554,142.95571 C 86.8008,142.96363 87.14219,143.16857 87.420723,143.57051 C 87.699247,143.97247 87.844389,144.5239 87.856148,145.22482 C 87.869942,145.75889 87.75342,146.26075 87.506581,146.73041 C 87.259734,147.20008 86.799778,147.4505 86.126713,147.48167 C 86.007632,147.48323 85.86249,147.46478 85.691287,147.42633 C 85.520079,147.38787 85.374938,147.32005 85.255862,147.22287 C 85.135735,147.12334 85.055856,147.02864 85.016225,146.93877 C 84.97659,146.8489 84.958345,146.6987 84.961491,146.48817 L 84.961491,144.20679 C 84.959853,144.08173 84.972936,143.97983 85.00074,143.90107 C 85.02854,143.82232 85.080873,143.74433 85.157738,143.6671 L 85.157738,143.6671 z M 85.059615,143.26234 C 85.037867,143.28343 85.012671,143.29309 84.984028,143.29132 C 84.955381,143.28956 84.939691,143.26764 84.93696,143.22555 C 84.939002,142.99966 84.947179,142.81364 84.961491,142.66747 C 84.975798,142.52131 84.983975,142.44567 84.986022,142.44055 C 84.985509,142.41552 84.971199,142.39508 84.943092,142.37923 C 84.914982,142.36339 84.876141,142.35521 84.82657,142.3547 C 84.660217,142.42165 84.447104,142.484 84.187231,142.54175 C 83.927354,142.5995 83.588521,142.65572 83.170728,142.7104 C 83.159484,142.75231 83.15744,142.80955 83.164595,142.88211 C 83.171749,142.95469 83.181971,143.01193 83.195259,143.05383 C 83.51825,143.07172 83.733918,143.131 83.842264,143.23168 C 83.950608,143.33236 84.000692,143.5511 83.992516,143.88788 L 83.992516,149.12525 C 84.002481,149.61485 83.948819,149.92353 83.831531,150.0513 C 83.714241,150.17906 83.473531,150.24243 83.1094,150.24141 C 83.072603,150.28587 83.054205,150.35333 83.054205,150.44379 C 83.054205,150.53425 83.072604,150.60171 83.1094,150.64617 C 83.358287,150.63978 83.584176,150.63416 83.787069,150.62931 C 83.98996,150.62445 84.221982,150.62189 84.483136,150.62164 C 84.764219,150.6219 85.017705,150.62445 85.243597,150.62931 C 85.469484,150.63416 85.710705,150.63978 85.967261,150.64617 C 86.004055,150.60171 86.022453,150.53425 86.022456,150.44379 C 86.022453,150.35333 86.004055,150.28587 85.967261,150.24141 C 85.544354,150.23707 85.26787,150.17216 85.137807,150.0467 C 85.007739,149.92123 84.948967,149.61408 84.961491,149.12525 L 84.961491,147.80058 C 84.960824,147.72377 84.973805,147.68206 85.000433,147.67547 C 85.027058,147.66888 85.071316,147.67992 85.133207,147.70859 C 85.284914,147.76963 85.451878,147.8165 85.6341,147.84918 C 85.816316,147.88186 86.005051,147.89837 86.200306,147.8987 C 86.544503,147.89998 86.868005,147.8453 87.170814,147.73465 C 87.473614,147.62401 87.75112,147.44973 88.003334,147.21183 C 88.293357,146.93049 88.516691,146.59779 88.673337,146.21373 C 88.829971,145.82967 88.909186,145.38964 88.910981,144.89365 C 88.89871,144.22059 88.693263,143.64104 88.29464,143.15502 C 87.896006,142.669 87.377789,142.4145 86.739988,142.39149 C 86.505918,142.39252 86.238121,142.46714 85.936597,142.61534 C 85.635068,142.76355 85.342741,142.97922 85.059615,143.26234 L 85.059615,143.26234 z M 90.487562,140.42901 C 90.493694,140.59512 90.555021,140.74128 90.671544,140.8675 C 90.788065,140.99374 90.922985,141.06018 91.076306,141.06682 C 91.253131,141.05847 91.402361,140.9927 91.523996,140.8695 C 91.645627,140.74631 91.708999,140.61584 91.714112,140.47808 C 91.710277,140.32272 91.653549,140.17962 91.543928,140.04878 C 91.434303,139.91796 91.294783,139.84845 91.125368,139.84027 C 90.970003,139.84641 90.826906,139.90774 90.696075,140.02425 C 90.565242,140.14078 90.495738,140.2757 90.487562,140.42901 L 90.487562,140.42901 z M 91.603722,146.27966 L 91.603722,143.83514 C 91.605764,143.51034 91.613941,143.20171 91.628253,142.90925 C 91.642561,142.6168 91.650738,142.46057 91.652784,142.44055 C 91.652271,142.41552 91.637961,142.39508 91.609855,142.37923 C 91.581744,142.36339 91.542903,142.35521 91.493333,142.3547 C 91.323275,142.42165 91.105307,142.484 90.839428,142.54175 C 90.573547,142.5995 90.231391,142.65572 89.812959,142.7104 C 89.801716,142.75231 89.799671,142.80955 89.806827,142.88211 C 89.813981,142.95469 89.824202,143.01193 89.83749,143.05383 C 90.163164,143.07226 90.379599,143.1317 90.486795,143.23214 C 90.593989,143.33259 90.643307,143.55117 90.634748,143.88788 L 90.634748,146.27966 C 90.644712,146.76772 90.591051,147.07334 90.473763,147.1965 C 90.356473,147.31967 90.115763,147.38611 89.751632,147.39582 C 89.714835,147.44028 89.696437,147.50774 89.696437,147.5982 C 89.696437,147.68866 89.714835,147.75612 89.751632,147.80058 C 90.000519,147.79419 90.226408,147.78857 90.429301,147.78371 C 90.632191,147.77886 90.864213,147.7763 91.125368,147.77605 C 91.379875,147.7763 91.606786,147.77886 91.806103,147.78371 C 92.005414,147.78857 92.232326,147.79419 92.486838,147.80058 C 92.523631,147.75612 92.542029,147.68866 92.542033,147.5982 C 92.54203,147.50774 92.523631,147.44028 92.486838,147.39582 C 92.122703,147.39147 91.881993,147.32657 91.764707,147.2011 C 91.647416,147.07564 91.593754,146.76849 91.603722,146.27966 L 91.603722,146.27966 z M 96.945197,146.25512 C 96.947825,146.36766 96.936735,146.45781 96.911927,146.52558 C 96.887111,146.59335 96.832785,146.66265 96.748949,146.73348 C 96.521522,146.92973 96.310965,147.07691 96.117276,147.17504 C 95.92358,147.27316 95.749819,147.32222 95.595992,147.32222 C 95.25,147.32401 94.942341,147.13952 94.673013,146.76874 C 94.403681,146.39797 94.261606,145.83018 94.246787,145.06537 C 94.250108,144.62714 94.286393,144.27706 94.355644,144.01514 C 94.424891,143.75322 94.507172,143.55953 94.602487,143.43406 C 94.801033,143.1563 95.008013,142.98203 95.223428,142.91124 C 95.438838,142.84047 95.612088,142.81031 95.743178,142.82079 C 95.962421,142.82156 96.152536,142.85989 96.313524,142.93577 C 96.474505,143.01167 96.615558,143.12053 96.736684,143.26234 C 96.820494,143.35204 96.876711,143.43943 96.905334,143.52452 C 96.933949,143.60961 96.947237,143.743 96.945197,143.92468 L 96.945197,146.25512 z M 96.810277,147.15909 C 96.842163,147.13346 96.874053,147.11941 96.905947,147.11693 C 96.937833,147.11445 96.955005,147.13382 96.957463,147.17504 C 96.96308,147.33398 96.985567,147.49139 97.024923,147.64726 C 97.06427,147.80313 97.086757,147.88695 97.092383,147.8987 C 97.138885,147.91633 97.177726,147.924 97.208905,147.9217 C 97.240075,147.9194 97.278916,147.91173 97.325428,147.8987 C 97.458555,147.78703 97.646114,147.6884 97.888107,147.6028 C 98.13009,147.51719 98.437238,147.45229 98.809553,147.40808 C 98.846343,147.36669 98.864741,147.31149 98.864748,147.2425 C 98.864741,147.1735 98.846343,147.11831 98.809553,147.07691 C 98.428806,147.05034 98.181452,146.96857 98.06749,146.8316 C 97.953518,146.69464 97.902412,146.47795 97.914172,146.18153 L 97.914172,140.62526 C 97.916211,140.22281 97.924388,139.9085 97.938703,139.68235 C 97.953007,139.45621 97.961184,139.34123 97.963234,139.33738 C 97.965273,139.25358 97.912122,139.21269 97.803782,139.21473 C 97.628738,139.2799 97.365541,139.34582 97.01419,139.41251 C 96.662831,139.47921 96.353639,139.52367 96.086612,139.5459 C 96.074343,139.59957 96.074343,139.66396 96.086612,139.73908 C 96.098874,139.81421 96.123405,139.87247 96.160205,139.91386 C 96.47195,139.90748 96.682507,139.95092 96.791878,140.04418 C 96.901241,140.13746 96.952348,140.42928 96.945197,140.91963 L 96.945197,142.48962 C 96.94596,142.53178 96.938294,142.56092 96.922199,142.57701 C 96.906097,142.59311 96.876966,142.60078 96.834808,142.60001 C 96.798774,142.59132 96.683784,142.55657 96.48984,142.49575 C 96.295888,142.43494 96.091975,142.40019 95.878099,142.39149 C 95.477934,142.39303 95.131434,142.45743 94.838598,142.58467 C 94.545757,142.71193 94.278983,142.89285 94.038274,143.12742 C 93.772265,143.39139 93.565285,143.70365 93.417333,144.0642 C 93.26938,144.42476 93.194254,144.83207 93.191955,145.28615 C 93.196043,146.05505 93.377981,146.67905 93.737769,147.15817 C 94.097556,147.63729 94.610662,147.88414 95.277089,147.8987 C 95.512686,147.89878 95.752886,147.8373 95.997688,147.71426 C 96.242483,147.59122 96.513346,147.40617 96.810277,147.15909 L 96.810277,147.15909 z M 100.02219,140.42901 C 100.02832,140.59512 100.08965,140.74128 100.20617,140.8675 C 100.32269,140.99374 100.45762,141.06018 100.61094,141.06682 C 100.78776,141.05847 100.93699,140.9927 101.05863,140.8695 C 101.18026,140.74631 101.24363,140.61584 101.24874,140.47808 C 101.24491,140.32272 101.18818,140.17962 101.07856,140.04878 C 100.96893,139.91796 100.82941,139.84845 100.66,139.84027 C 100.50463,139.84641 100.36154,139.90774 100.23071,140.02425 C 100.09987,140.14078 100.03037,140.2757 100.02219,140.42901 L 100.02219,140.42901 z M 101.13835,146.27966 L 101.13835,143.83514 C 101.14039,143.51034 101.14857,143.20171 101.16288,142.90925 C 101.17719,142.6168 101.18537,142.46057 101.18741,142.44055 C 101.1869,142.41552 101.17259,142.39508 101.14448,142.37923 C 101.11637,142.36339 101.07753,142.35521 101.02796,142.3547 C 100.8579,142.42165 100.63994,142.484 100.37406,142.54175 C 100.10818,142.5995 99.766021,142.65572 99.347589,142.7104 C 99.336345,142.75231 99.334301,142.80955 99.341456,142.88211 C 99.348611,142.95469 99.358832,143.01193 99.37212,143.05383 C 99.697794,143.07226 99.914229,143.1317 100.02142,143.23214 C 100.12862,143.33259 100.17794,143.55117 100.16938,143.88788 L 100.16938,146.27966 C 100.17934,146.76772 100.12568,147.07334 100.00839,147.1965 C 99.891103,147.31967 99.650393,147.38611 99.286262,147.39582 C 99.249465,147.44028 99.231066,147.50774 99.231067,147.5982 C 99.231067,147.68866 99.249465,147.75612 99.286262,147.80058 C 99.535148,147.79419 99.761038,147.78857 99.96393,147.78371 C 100.16682,147.77886 100.39884,147.7763 100.66,147.77605 C 100.9145,147.7763 101.14142,147.77886 101.34073,147.78371 C 101.54004,147.78857 101.76696,147.79419 102.02147,147.80058 C 102.05826,147.75612 102.07666,147.68866 102.07666,147.5982 C 102.07666,147.50774 102.05826,147.44028 102.02147,147.39582 C 101.65733,147.39147 101.41662,147.32657 101.29934,147.2011 C 101.18205,147.07564 101.12838,146.76849 101.13835,146.27966 L 101.13835,146.27966 z M 104.79946,149.73853 C 104.98733,149.39795 105.15495,149.04634 105.30235,148.68369 C 105.78361,147.52591 106.18745,146.56782 106.51387,145.80943 C 106.84028,145.05104 107.1601,144.34102 107.47334,143.67937 C 107.56149,143.49335 107.69181,143.32265 107.8643,143.16729 C 108.03678,143.01193 108.23763,142.92096 108.46685,142.89438 C 108.50364,142.84992 108.52203,142.78246 108.52204,142.692 C 108.52203,142.60154 108.50364,142.53408 108.46685,142.48962 C 108.31786,142.49601 108.17732,142.50163 108.04522,142.50648 C 107.9131,142.51134 107.76336,142.5139 107.59599,142.51415 C 107.39003,142.5139 107.20707,142.51134 107.04711,142.50648 C 106.88715,142.50163 106.69805,142.49601 106.47983,142.48962 C 106.44303,142.53408 106.42464,142.60154 106.42464,142.692 C 106.42464,142.78246 106.44303,142.84992 106.47983,142.89438 C 106.68597,142.90573 106.85661,142.94682 106.99177,143.01765 C 107.12691,143.08848 107.15252,143.23138 107.06858,143.44633 L 105.85184,146.25512 C 105.80858,146.35619 105.76202,146.40919 105.71217,146.41412 C 105.66231,146.41905 105.61115,146.36196 105.5587,146.24286 L 104.47075,143.69164 C 104.34392,143.43565 104.28939,143.24543 104.30715,143.12098 C 104.32491,142.99654 104.51354,142.92101 104.87305,142.89438 C 104.90985,142.84992 104.92825,142.78246 104.92825,142.692 C 104.92825,142.60154 104.90985,142.53408 104.87305,142.48962 C 104.64435,142.49601 104.41182,142.50163 104.17545,142.50648 C 103.93909,142.51134 103.70962,142.5139 103.48705,142.51415 C 103.07002,142.51211 102.73886,142.50393 102.49355,142.48962 C 102.45675,142.53408 102.43835,142.60154 102.43835,142.692 C 102.43835,142.78246 102.45675,142.84992 102.49355,142.89438 C 102.74683,142.90535 102.93296,142.96713 103.05193,143.07974 C 103.17091,143.19236 103.30736,143.43721 103.4613,143.81429 L 104.84852,147.04012 C 104.91003,147.17455 104.96732,147.3546 105.02039,147.58026 C 105.07346,147.80592 105.07341,148.01019 105.02024,148.19307 C 104.94795,148.39556 104.87297,148.58731 104.79532,148.76833 C 104.71766,148.94934 104.63318,149.13373 104.54189,149.3215 C 104.47647,149.44364 104.39572,149.53359 104.29964,149.59134 C 104.20356,149.64909 104.07988,149.67771 103.92861,149.6772 C 103.84709,149.67566 103.78321,149.66953 103.73696,149.6588 C 103.69071,149.64807 103.63603,149.64193 103.57291,149.6404 C 103.3948,149.65241 103.2604,149.72038 103.16968,149.84432 C 103.07897,149.96825 103.03348,150.07608 103.03323,150.16782 C 103.03655,150.29941 103.09123,150.40725 103.19728,150.49132 C 103.30332,150.57539 103.4408,150.61883 103.60971,150.62164 C 103.74437,150.63391 103.91966,150.58484 104.13559,150.47446 C 104.35151,150.36406 104.5728,150.11875 104.79946,149.73853 L 104.79946,149.73853 z M 112.21442,144.91819 L 112.21442,146.5495 C 112.21339,146.62795 112.19704,146.69183 112.16536,146.74115 C 112.13367,146.79046 112.09278,146.83288 112.0427,146.8684 C 111.87967,147.00307 111.70284,147.12316 111.51222,147.2287 C 111.32159,147.33423 111.13863,147.38994 110.96334,147.39582 C 110.65823,147.3833 110.43439,147.28568 110.2918,147.10298 C 110.14921,146.92027 110.07869,146.7276 110.08022,146.52497 C 110.0722,146.2423 110.15325,145.97849 110.32339,145.73353 C 110.49352,145.48858 110.80087,145.30266 111.24545,145.17576 L 112.21442,144.91819 z M 112.21442,147.1873 C 112.24503,147.32963 112.32976,147.4804 112.46862,147.63959 C 112.60747,147.79879 112.83755,147.88516 113.15886,147.8987 C 113.46524,147.87954 113.71413,147.79521 113.90552,147.64573 C 114.09691,147.49624 114.19555,147.39658 114.20143,147.34675 C 114.19785,147.3005 114.1774,147.25502 114.1401,147.2103 C 114.10279,147.16558 114.07008,147.14156 114.04198,147.13824 C 114.01111,147.14642 113.97104,147.17913 113.92178,147.23636 C 113.8725,147.2936 113.78583,147.32631 113.66175,147.33449 C 113.43202,147.32631 113.29046,147.22308 113.23706,147.02478 C 113.18364,146.82649 113.16167,146.58221 113.17113,146.29192 L 113.17113,144.46436 C 113.14991,143.616 112.95316,143.05281 112.58085,142.77479 C 112.20854,142.49678 111.78793,142.36901 111.31904,142.39149 C 110.79469,142.40683 110.33166,142.55095 109.92997,142.82385 C 109.52827,143.09676 109.31669,143.40647 109.29523,143.75296 C 109.29549,143.89964 109.33177,144.00799 109.40409,144.078 C 109.4764,144.14802 109.58321,144.18277 109.72452,144.18226 C 109.90263,144.17536 110.03704,144.12783 110.12775,144.03967 C 110.21846,143.95151 110.26395,143.86412 110.26421,143.77749 C 110.2642,143.7338 110.26114,143.69241 110.25501,143.65331 C 110.24887,143.61421 110.23967,143.58202 110.22741,143.55672 C 110.22102,143.53883 110.2154,143.51021 110.21054,143.47086 C 110.20569,143.43151 110.20313,143.37836 110.20288,143.31141 C 110.21616,143.12359 110.32758,142.99021 110.53711,142.91124 C 110.74665,142.83229 110.97458,142.79396 111.22091,142.79625 C 111.44476,142.77607 111.66247,142.86857 111.87405,143.07376 C 112.08563,143.27896 112.19908,143.71796 112.21442,144.39077 C 112.21365,144.4337 112.20598,144.46743 112.19142,144.49196 C 112.17685,144.51649 112.15999,144.53183 112.14083,144.53796 L 111.08599,144.79553 C 110.48652,144.9463 110.00203,145.17525 109.63253,145.4824 C 109.26303,145.78955 109.07292,146.15343 109.06219,146.57403 C 109.07292,147.05315 109.22317,147.39505 109.51294,147.59973 C 109.80271,147.80441 110.16761,147.90407 110.60764,147.8987 C 110.87646,147.9033 111.10234,147.86957 111.28531,147.79751 C 111.46827,147.72545 111.68802,147.58746 111.94458,147.38355 L 112.18989,147.1873 L 112.21442,147.1873 z" id="text4142"></path></svg>
