<?xml version="1.0" encoding="UTF-8" standalone="no"?>
<!-- Generator: Adobe Illustrator 13.0.2, SVG Export Plug-In . SVG Version: 6.00 Build 14948)  -->
<svg xmlns:dc="http://purl.org/dc/elements/1.1/" xmlns:cc="http://creativecommons.org/ns#" xmlns:rdf="http://www.w3.org/1999/02/22-rdf-syntax-ns#" xmlns:svg="http://www.w3.org/2000/svg" xmlns="http://www.w3.org/2000/svg" xmlns:xlink="http://www.w3.org/1999/xlink" xmlns:sodipodi="http://sodipodi.sourceforge.net/DTD/sodipodi-0.dtd" xmlns:inkscape="http://www.inkscape.org/namespaces/inkscape" version="1.1" x="0px" y="0px" width="135px" height="155px" viewBox="0 0 135 155" enable-background="new 0 0 135 155" xml:space="preserve" id="svg3857" inkscape:version="0.46" sodipodi:docname="Wikipedia-logo-v2-cr.svg" sodipodi:version="0.32" inkscape:output_extension="org.inkscape.output.svg.inkscape"><metadata id="metadata4852"><rdf:rdf><cc:work rdf:about=""><dc:format>image/svg+xml</dc:format><dc:type rdf:resource="http://purl.org/dc/dcmitype/StillImage"></dc:type></cc:work></rdf:rdf></metadata><defs id="defs4850"><inkscape:perspective sodipodi:type="inkscape:persp3d" inkscape:vp_x="0 : 77.5 : 1" inkscape:vp_y="0 : 1000 : 0" inkscape:vp_z="135 : 77.5 : 1" inkscape:persp3d-origin="67.5 : 51.666667 : 1" id="perspective4854"></inkscape:perspective>
	
		<radialGradient gradientUnits="userSpaceOnUse" gradientTransform="matrix(1,0,0,-1,192.3999,143.0996)" r="68.686401" cy="87.823196" cx="-145.4702" id="SVGID_1_">
		<stop id="stop3922" style="stop-color:#FFFFFF" offset="0"></stop>
		<stop id="stop3924" style="stop-color:#EAEAEB" offset="0.4835"></stop>
		<stop id="stop3926" style="stop-color:#A9ABAE" offset="0.9451"></stop>
		<stop id="stop3928" style="stop-color:#999B9E" offset="1"></stop>
	</radialGradient>
	
	
	<linearGradient y2="97.232101" x2="112.7331" y1="24.481001" x1="66.232399" gradientUnits="userSpaceOnUse" id="SVGID_2_">
		<stop id="stop3935" style="stop-color:#8A8A8A" offset="0"></stop>
		<stop id="stop3937" style="stop-color:#606060" offset="0.5687"></stop>
		<stop id="stop3939" style="stop-color:#FFFFFF" offset="0.5914"></stop>
		<stop id="stop3941" style="stop-color:#585858" offset="0.6116"></stop>
		<stop id="stop3943" style="stop-color:#303030" offset="1"></stop>
	</linearGradient>
	
	
	<linearGradient y2="65.136703" x2="83.798798" y1="65.136703" x1="54.715801" gradientUnits="userSpaceOnUse" id="SVGID_5_">
		<stop id="stop3964" style="stop-color:#231F20" offset="0"></stop>
		<stop id="stop3966" style="stop-color:#474747" offset="1"></stop>
	</linearGradient>
	
	
	
	
	
	
	
	
	
		<linearGradient gradientTransform="matrix(1,0,0,-1,192.3999,143.0996)" y2="29.9035" x2="-94.069099" y1="119.8076" x1="-123.5898" gradientUnits="userSpaceOnUse" id="SVGID_6_">
		<stop id="stop3997" style="stop-color:#FFFFFF" offset="0"></stop>
		<stop id="stop3999" style="stop-color:#FCFCFC" offset="0.0094"></stop>
		<stop id="stop4001" style="stop-color:#EEEEEE" offset="0.0655"></stop>
		<stop id="stop4003" style="stop-color:#E5E5E5" offset="0.1342"></stop>
		<stop id="stop4005" style="stop-color:#E3E3E3" offset="0.2515"></stop>
		<stop id="stop4007" style="stop-color:#8A8A8A" offset="0.3357"></stop>
		<stop id="stop4009" style="stop-color:#B8B8B8" offset="0.4422"></stop>
		<stop id="stop4011" style="stop-color:#3B3B3B" offset="1"></stop>
	</linearGradient>
	
	<linearGradient y2="87.626701" x2="119.5471" y1="26.876499" x1="70.421898" gradientUnits="userSpaceOnUse" id="SVGID_7_">
		<stop id="stop4016" style="stop-color:#EFF0F0" offset="0"></stop>
		<stop id="stop4018" style="stop-color:#F0F1F2" offset="0.5914"></stop>
		<stop id="stop4020" style="stop-color:#787878" offset="0.599"></stop>
		<stop id="stop4022" style="stop-color:#EEEFF0" offset="0.6456"></stop>
		<stop id="stop4024" style="stop-color:#D8D9DB" offset="1"></stop>
	</linearGradient>
	
	
		<linearGradient gradientTransform="matrix(1,0,0,-1,192.3999,143.0996)" y2="31.998501" x2="-87.569702" y1="122.1328" x1="-117.166" gradientUnits="userSpaceOnUse" id="SVGID_8_">
		<stop id="stop4029" style="stop-color:#FFFFFF" offset="0"></stop>
		<stop id="stop4031" style="stop-color:#E4E5E6" offset="1"></stop>
	</linearGradient>
	
	<linearGradient y2="106.3903" x2="79.683601" y1="25.2764" x1="54.653301" gradientUnits="userSpaceOnUse" id="SVGID_9_">
		<stop id="stop4036" style="stop-color:#FFFFFF" offset="0"></stop>
		<stop id="stop4038" style="stop-color:#F9F9F9" offset="0.7473"></stop>
		<stop id="stop4040" style="stop-color:#D5D7D8" offset="1"></stop>
	</linearGradient>
	
	
	
	
	
		<linearGradient gradientTransform="matrix(1,0,0,-1,192.3999,143.0996)" y2="24.6462" x2="-134.85719" y1="119.6328" x1="-115.3369" gradientUnits="userSpaceOnUse" id="SVGID_10_">
		<stop id="stop4061" style="stop-color:#FFFFFF" offset="0"></stop>
		<stop id="stop4063" style="stop-color:#E4E5E6" offset="1"></stop>
	</linearGradient>
	
	<linearGradient y2="92.496101" x2="37.2481" y1="33.077099" x1="32.519001" gradientUnits="userSpaceOnUse" id="SVGID_11_">
		<stop id="stop4068" style="stop-color:#989A9C" offset="0.2198"></stop>
		<stop id="stop4070" style="stop-color:#FFFFFF" offset="0.2527"></stop>
	</linearGradient>
	
	
		<linearGradient gradientTransform="matrix(1,0,0,-1,192.3999,143.0996)" y2="32.797901" x2="-171.9462" y1="126.8398" x1="-152.6201" gradientUnits="userSpaceOnUse" id="SVGID_12_">
		<stop id="stop4075" style="stop-color:#FFFFFF" offset="0"></stop>
		<stop id="stop4077" style="stop-color:#E4E5E6" offset="1"></stop>
	</linearGradient>
	
	
		<linearGradient gradientTransform="matrix(1,0,0,-1,192.3999,143.0996)" y2="35.585701" x2="-130.14281" y1="35.625" x1="-130.1348" gradientUnits="userSpaceOnUse" id="SVGID_13_">
		<stop id="stop4082" style="stop-color:#FFFFFF" offset="0"></stop>
		<stop id="stop4084" style="stop-color:#E4E5E6" offset="1"></stop>
	</linearGradient>
	
	
	
	
		<linearGradient gradientTransform="matrix(1,0,0,-1,192.3999,143.0996)" y2="25.888" x2="-140.54491" y1="120.3223" x1="-121.1382" gradientUnits="userSpaceOnUse" id="SVGID_14_">
		<stop id="stop4093" style="stop-color:#FFFFFF" offset="0"></stop>
		<stop id="stop4095" style="stop-color:#E4E5E6" offset="1"></stop>
	</linearGradient>
	
	
		<linearGradient gradientTransform="matrix(1,0,0,-1,192.3999,143.0996)" y2="28.8524" x2="-155.006" y1="123.3525" x1="-135.58591" gradientUnits="userSpaceOnUse" id="SVGID_15_">
		<stop id="stop4100" style="stop-color:#FFFFFF" offset="0"></stop>
		<stop id="stop4102" style="stop-color:#E4E5E6" offset="1"></stop>
	</linearGradient>
	
	
		<linearGradient gradientTransform="matrix(1,0,0,-1,192.3999,143.0996)" y2="27.1346" x2="-146.8837" y1="121.9365" x1="-127.4014" gradientUnits="userSpaceOnUse" id="SVGID_16_">
		<stop id="stop4107" style="stop-color:#FFFFFF" offset="0"></stop>
		<stop id="stop4109" style="stop-color:#E4E5E6" offset="1"></stop>
	</linearGradient>
	
	
		<linearGradient gradientTransform="matrix(1,0,0,-1,192.3999,143.0996)" y2="24.9438" x2="-138.85201" y1="124.0039" x1="-118.4946" gradientUnits="userSpaceOnUse" id="SVGID_17_">
		<stop id="stop4114" style="stop-color:#FFFFFF" offset="0"></stop>
		<stop id="stop4116" style="stop-color:#E4E5E6" offset="1"></stop>
	</linearGradient>
	
	
		<linearGradient gradientTransform="matrix(1,0,0,-1,192.3999,143.0996)" y2="24.695299" x2="-134.7878" y1="119.1758" x1="-115.3716" gradientUnits="userSpaceOnUse" id="SVGID_18_">
		<stop id="stop4121" style="stop-color:#FFFFFF" offset="0"></stop>
		<stop id="stop4123" style="stop-color:#E4E5E6" offset="1"></stop>
	</linearGradient>
	
	
	
	
	
	
	
	
	
	
	
	
		<linearGradient gradientTransform="matrix(1,0,0,-1,192.3999,143.0996)" y2="83.6045" x2="-75.6362" y1="83.6045" x1="-175.4424" gradientUnits="userSpaceOnUse" id="SVGID_21_">
		<stop id="stop4198" style="stop-color:#555555" offset="0"></stop>
		<stop id="stop4200" style="stop-color:#231F20" offset="1"></stop>
	</linearGradient>
	
	
		<linearGradient gradientTransform="matrix(1,0,0,-1,192.3999,143.0996)" y2="104.0801" x2="-83.541" y1="104.0801" x1="-175.14211" gradientUnits="userSpaceOnUse" id="SVGID_22_">
		<stop id="stop4205" style="stop-color:#A0A0A0" offset="0"></stop>
		<stop id="stop4207" style="stop-color:#656767" offset="0.0769"></stop>
		<stop id="stop4209" style="stop-color:#717375" offset="1"></stop>
	</linearGradient>
	
	
	
	
	
	
	
		<linearGradient gradientTransform="matrix(1,0,0,-1,192.3999,143.0996)" y2="78.209" x2="-172.3853" y1="78.209" x1="-172.3853" gradientUnits="userSpaceOnUse" id="SVGID_23_">
		<stop id="stop4224" style="stop-color:#FFFFFF" offset="0"></stop>
		<stop id="stop4226" style="stop-color:#F4F4F4" offset="0.078"></stop>
		<stop id="stop4228" style="stop-color:#CECECE" offset="0.3807"></stop>
		<stop id="stop4230" style="stop-color:#BFBFBF" offset="0.5396"></stop>
		<stop id="stop4232" style="stop-color:#7C7C7C" offset="0.8357"></stop>
		<stop id="stop4234" style="stop-color:#A8A8A8" offset="0.8996"></stop>
		<stop id="stop4236" style="stop-color:#9A9A9A" offset="0.9093"></stop>
		<stop id="stop4238" style="stop-color:#7D7D7D" offset="0.9327"></stop>
		<stop id="stop4240" style="stop-color:#686868" offset="0.9558"></stop>
		<stop id="stop4242" style="stop-color:#5B5B5B" offset="0.9785"></stop>
		<stop id="stop4244" style="stop-color:#575757" offset="1"></stop>
	</linearGradient>
	
	
		<linearGradient gradientTransform="matrix(1,0,0,-1,192.3999,143.0996)" y2="90.476799" x2="-67.153198" y1="78.449203" x1="-175.7173" gradientUnits="userSpaceOnUse" id="SVGID_24_">
		<stop id="stop4249" style="stop-color:#FFFFFF" offset="0"></stop>
		<stop id="stop4251" style="stop-color:#F4F4F4" offset="0.078"></stop>
		<stop id="stop4253" style="stop-color:#CECECE" offset="0.3807"></stop>
		<stop id="stop4255" style="stop-color:#BFBFBF" offset="0.5396"></stop>
		<stop id="stop4257" style="stop-color:#7C7C7C" offset="0.8357"></stop>
		<stop id="stop4259" style="stop-color:#A8A8A8" offset="0.8996"></stop>
		<stop id="stop4261" style="stop-color:#9A9A9A" offset="0.9093"></stop>
		<stop id="stop4263" style="stop-color:#7D7D7D" offset="0.9327"></stop>
		<stop id="stop4265" style="stop-color:#686868" offset="0.9558"></stop>
		<stop id="stop4267" style="stop-color:#5B5B5B" offset="0.9785"></stop>
		<stop id="stop4269" style="stop-color:#575757" offset="1"></stop>
	</linearGradient>
	
	
		<linearGradient gradientTransform="matrix(1,0,0,-1,192.3999,143.0996)" y2="92.223099" x2="-52.131699" y1="78.4795" x1="-176.1851" gradientUnits="userSpaceOnUse" id="SVGID_25_">
		<stop id="stop4274" style="stop-color:#FFFFFF" offset="0"></stop>
		<stop id="stop4276" style="stop-color:#F4F4F4" offset="0.078"></stop>
		<stop id="stop4278" style="stop-color:#CECECE" offset="0.3807"></stop>
		<stop id="stop4280" style="stop-color:#BFBFBF" offset="0.5396"></stop>
		<stop id="stop4282" style="stop-color:#7C7C7C" offset="0.8357"></stop>
		<stop id="stop4284" style="stop-color:#A8A8A8" offset="0.8996"></stop>
		<stop id="stop4286" style="stop-color:#9A9A9A" offset="0.9093"></stop>
		<stop id="stop4288" style="stop-color:#7D7D7D" offset="0.9327"></stop>
		<stop id="stop4290" style="stop-color:#686868" offset="0.9558"></stop>
		<stop id="stop4292" style="stop-color:#5B5B5B" offset="0.9785"></stop>
		<stop id="stop4294" style="stop-color:#575757" offset="1"></stop>
	</linearGradient>
	
	<linearGradient y2="51.952599" x2="117.1948" y1="71.326698" x1="21.2129" gradientUnits="userSpaceOnUse" id="SVGID_26_">
		<stop id="stop4299" style="stop-color:#EDEDEE" offset="0"></stop>
		<stop id="stop4301" style="stop-color:#FFFFFF" offset="0.4176"></stop>
		<stop id="stop4303" style="stop-color:#F8F9F9" offset="0.6264"></stop>
		<stop id="stop4305" style="stop-color:#BFC0C2" offset="1"></stop>
	</linearGradient>
	
	
	
	
	<linearGradient y2="30.732401" x2="27.9561" y1="30.732401" x1="23.471201" gradientUnits="userSpaceOnUse" id="SVGID_27_">
		<stop id="stop4316" style="stop-color:#E2E3E4" offset="0"></stop>
		<stop id="stop4318" style="stop-color:#FFFFFF" offset="0.5055"></stop>
	</linearGradient>
	
	
	
	
	
	
	
	
	
	
	
	
	
	
	
	
	
	
	
	
	
	
	
	
	
	
	
	
	
	
	
	
	
	
	
	
	
	
	
	
	
	
	
	
	
	
	
	
	
	
	
	
	
	
	
	
	
	
	
	
	
	
	
	
	
	
	
	
	
	
	
	
	
	
	
	
	
	
	
	
	
	
	
	
	
	
	
	
	
	
	
	
	
	
	
	
	
	
	
	
	
	
	
	
	
	
	
	
	
	
	
	
	
	
	
	
	
	
	
	
	
	
	
	
	
	
	
	
	
	
	
	
	
	
	
	
	
	
	
	
	
	
	
	
	
	
	
	
	
	
	
	
	
	
	
	
	
	
	
	
	
	
	
	
	
	
	
	
	
	
	
	
	
	
	
	
	
	
	<linearGradient y2="29.204" x2="111.5455" y1="49.7188" x1="22.5742" gradientUnits="userSpaceOnUse" id="SVGID_34_">
		<stop id="stop4743" style="stop-color:#FFFFFF" offset="0"></stop>
		<stop id="stop4745" style="stop-color:#FFFFFF" offset="0.6538"></stop>
		<stop id="stop4747" style="stop-color:#CBCCCE" offset="1"></stop>
	</linearGradient>
	
	
	
	
	
	
	
	
		<linearGradient gradientTransform="matrix(1,0,0,-1,192.3999,143.0996)" y2="107.0898" x2="-126.4229" y1="107.0898" x1="-158.8101" gradientUnits="userSpaceOnUse" id="SVGID_35_">
		<stop id="stop4770" style="stop-color:#696969" offset="0"></stop>
		<stop id="stop4772" style="stop-color:#2E2E2E" offset="0.3702"></stop>
		<stop id="stop4774" style="stop-color:#424242" offset="0.4554"></stop>
		<stop id="stop4776" style="stop-color:#303030" offset="0.6014"></stop>
		<stop id="stop4778" style="stop-color:#4A4A4A" offset="0.6947"></stop>
		<stop id="stop4780" style="stop-color:#666666" offset="1"></stop>
	</linearGradient>
	
	
		<linearGradient gradientTransform="matrix(1,0,0,-1,192.3999,143.0996)" y2="107.8965" x2="-126.5454" y1="107.8965" x1="-158.4185" gradientUnits="userSpaceOnUse" id="SVGID_36_">
		<stop id="stop4785" style="stop-color:#525252" offset="0"></stop>
		<stop id="stop4787" style="stop-color:#333333" offset="0.1856"></stop>
		<stop id="stop4789" style="stop-color:#AEAEAE" offset="0.354"></stop>
		<stop id="stop4791" style="stop-color:#ADADAD" offset="0.4199"></stop>
		<stop id="stop4793" style="stop-color:#9D9D9D" offset="0.4276"></stop>
		<stop id="stop4795" style="stop-color:#818181" offset="0.4433"></stop>
		<stop id="stop4797" style="stop-color:#6A6A6A" offset="0.4611"></stop>
		<stop id="stop4799" style="stop-color:#585858" offset="0.4814"></stop>
		<stop id="stop4801" style="stop-color:#4C4C4C" offset="0.506"></stop>
		<stop id="stop4803" style="stop-color:#444444" offset="0.539"></stop>
		<stop id="stop4805" style="stop-color:#424242" offset="0.6166"></stop>
		<stop id="stop4807" style="stop-color:#454545" offset="0.6684"></stop>
		<stop id="stop4809" style="stop-color:#BDBDBD" offset="1"></stop>
	</linearGradient>
	
	
		<linearGradient gradientTransform="matrix(1,0,0,-1,192.3999,143.0996)" y2="104.4332" x2="-154.15421" y1="97.627899" x1="-153.1255" gradientUnits="userSpaceOnUse" id="SVGID_37_">
		<stop id="stop4814" style="stop-color:#969696" offset="0"></stop>
		<stop id="stop4816" style="stop-color:#000000" offset="1"></stop>
	</linearGradient>
	
	
	
	<linearGradient y2="38.790001" x2="39.487301" y1="46.373001" x1="38.737301" gradientUnits="userSpaceOnUse" id="SVGID_38_">
		<stop id="stop4825" style="stop-color:#333333" offset="0"></stop>
		<stop id="stop4827" style="stop-color:#000000" offset="0.431"></stop>
		<stop id="stop4829" style="stop-color:#2E2E2E" offset="1"></stop>
	</linearGradient>
	
	
	
	
	
		<radialGradient gradientUnits="userSpaceOnUse" gradientTransform="matrix(1,0,0,-1,192.3999,143.0996)" r="72.751701" cy="106.5996" cx="-138.2334" id="SVGID_39_">
		<stop id="stop4840" style="stop-color:#000000;stop-opacity:0;" offset="0"></stop>
		<stop id="stop4842" style="stop-color:#000000;stop-opacity:0.08;" offset="0.80220002"></stop>
		<stop id="stop4844" style="stop-color:#000000;stop-opacity:0.3882353;" offset="1"></stop>
	</radialGradient>
	
<radialGradient inkscape:collect="always" xlink:href="#SVGID_39_" id="radialGradient5007" gradientUnits="userSpaceOnUse" gradientTransform="matrix(1,0,0,-1,192.3999,143.0996)" cx="-138.2334" cy="106.5996" r="72.751701"></radialGradient><linearGradient inkscape:collect="always" xlink:href="#SVGID_38_" id="linearGradient5013" gradientUnits="userSpaceOnUse" x1="38.737301" y1="46.373001" x2="39.487301" y2="38.790001"></linearGradient><linearGradient inkscape:collect="always" xlink:href="#SVGID_37_" id="linearGradient5018" gradientUnits="userSpaceOnUse" gradientTransform="matrix(1,0,0,-1,192.3999,143.0996)" x1="-153.1255" y1="97.627899" x2="-154.15421" y2="104.4332"></linearGradient><linearGradient inkscape:collect="always" xlink:href="#SVGID_36_" id="linearGradient5021" gradientUnits="userSpaceOnUse" gradientTransform="matrix(1,0,0,-1,192.3999,143.0996)" x1="-158.4185" y1="107.8965" x2="-126.5454" y2="107.8965"></linearGradient><linearGradient inkscape:collect="always" xlink:href="#SVGID_35_" id="linearGradient5024" gradientUnits="userSpaceOnUse" gradientTransform="matrix(1,0,0,-1,192.3999,143.0996)" x1="-158.8101" y1="107.0898" x2="-126.4229" y2="107.0898"></linearGradient><linearGradient inkscape:collect="always" xlink:href="#SVGID_34_" id="linearGradient5036" gradientUnits="userSpaceOnUse" x1="22.5742" y1="49.7188" x2="111.5455" y2="29.204"></linearGradient><linearGradient inkscape:collect="always" xlink:href="#SVGID_27_" id="linearGradient5252" gradientUnits="userSpaceOnUse" x1="23.471201" y1="30.732401" x2="27.9561" y2="30.732401"></linearGradient><linearGradient inkscape:collect="always" xlink:href="#SVGID_26_" id="linearGradient5258" gradientUnits="userSpaceOnUse" x1="21.2129" y1="71.326698" x2="117.1948" y2="51.952599"></linearGradient><linearGradient inkscape:collect="always" xlink:href="#SVGID_25_" id="linearGradient5261" gradientUnits="userSpaceOnUse" gradientTransform="matrix(1,0,0,-1,192.3999,143.0996)" x1="-176.1851" y1="78.4795" x2="-52.131699" y2="92.223099"></linearGradient><linearGradient inkscape:collect="always" xlink:href="#SVGID_24_" id="linearGradient5264" gradientUnits="userSpaceOnUse" gradientTransform="matrix(1,0,0,-1,192.3999,143.0996)" x1="-175.7173" y1="78.449203" x2="-67.153198" y2="90.476799"></linearGradient><linearGradient inkscape:collect="always" xlink:href="#SVGID_23_" id="linearGradient5267" gradientUnits="userSpaceOnUse" gradientTransform="matrix(1,0,0,-1,192.3999,143.0996)" x1="-172.3853" y1="78.209" x2="-172.3853" y2="78.209"></linearGradient><linearGradient inkscape:collect="always" xlink:href="#SVGID_22_" id="linearGradient5275" gradientUnits="userSpaceOnUse" gradientTransform="matrix(1,0,0,-1,192.3999,143.0996)" x1="-175.14211" y1="104.0801" x2="-83.541" y2="104.0801"></linearGradient><linearGradient inkscape:collect="always" xlink:href="#SVGID_21_" id="linearGradient5278" gradientUnits="userSpaceOnUse" gradientTransform="matrix(1,0,0,-1,192.3999,143.0996)" x1="-175.4424" y1="83.6045" x2="-75.6362" y2="83.6045"></linearGradient><linearGradient inkscape:collect="always" xlink:href="#SVGID_18_" id="linearGradient5317" gradientUnits="userSpaceOnUse" gradientTransform="matrix(1,0,0,-1,192.3999,143.0996)" x1="-115.3716" y1="119.1758" x2="-134.7878" y2="24.695299"></linearGradient><linearGradient inkscape:collect="always" xlink:href="#SVGID_17_" id="linearGradient5320" gradientUnits="userSpaceOnUse" gradientTransform="matrix(1,0,0,-1,192.3999,143.0996)" x1="-118.4946" y1="124.0039" x2="-138.85201" y2="24.9438"></linearGradient><linearGradient inkscape:collect="always" xlink:href="#SVGID_16_" id="linearGradient5323" gradientUnits="userSpaceOnUse" gradientTransform="matrix(1,0,0,-1,192.3999,143.0996)" x1="-127.4014" y1="121.9365" x2="-146.8837" y2="27.1346"></linearGradient><linearGradient inkscape:collect="always" xlink:href="#SVGID_15_" id="linearGradient5326" gradientUnits="userSpaceOnUse" gradientTransform="matrix(1,0,0,-1,192.3999,143.0996)" x1="-135.58591" y1="123.3525" x2="-155.006" y2="28.8524"></linearGradient><linearGradient inkscape:collect="always" xlink:href="#SVGID_14_" id="linearGradient5329" gradientUnits="userSpaceOnUse" gradientTransform="matrix(1,0,0,-1,192.3999,143.0996)" x1="-121.1382" y1="120.3223" x2="-140.54491" y2="25.888"></linearGradient><linearGradient inkscape:collect="always" xlink:href="#SVGID_13_" id="linearGradient5334" gradientUnits="userSpaceOnUse" gradientTransform="matrix(1,0,0,-1,192.3999,143.0996)" x1="-130.1348" y1="35.625" x2="-130.14281" y2="35.585701"></linearGradient><linearGradient inkscape:collect="always" xlink:href="#SVGID_12_" id="linearGradient5337" gradientUnits="userSpaceOnUse" gradientTransform="matrix(1,0,0,-1,192.3999,143.0996)" x1="-152.6201" y1="126.8398" x2="-171.9462" y2="32.797901"></linearGradient><linearGradient inkscape:collect="always" xlink:href="#SVGID_11_" id="linearGradient5340" gradientUnits="userSpaceOnUse" x1="32.519001" y1="33.077099" x2="37.2481" y2="92.496101"></linearGradient><linearGradient inkscape:collect="always" xlink:href="#SVGID_10_" id="linearGradient5343" gradientUnits="userSpaceOnUse" gradientTransform="matrix(1,0,0,-1,192.3999,143.0996)" x1="-115.3369" y1="119.6328" x2="-134.85719" y2="24.6462"></linearGradient><linearGradient inkscape:collect="always" xlink:href="#SVGID_9_" id="linearGradient5354" gradientUnits="userSpaceOnUse" x1="54.653301" y1="25.2764" x2="79.683601" y2="106.3903"></linearGradient><linearGradient inkscape:collect="always" xlink:href="#SVGID_8_" id="linearGradient5357" gradientUnits="userSpaceOnUse" gradientTransform="matrix(1,0,0,-1,192.3999,143.0996)" x1="-117.166" y1="122.1328" x2="-87.569702" y2="31.998501"></linearGradient><linearGradient inkscape:collect="always" xlink:href="#SVGID_7_" id="linearGradient5360" gradientUnits="userSpaceOnUse" x1="70.421898" y1="26.876499" x2="119.5471" y2="87.626701"></linearGradient><linearGradient inkscape:collect="always" xlink:href="#SVGID_6_" id="linearGradient5363" gradientUnits="userSpaceOnUse" gradientTransform="matrix(1,0,0,-1,192.3999,143.0996)" x1="-123.5898" y1="119.8076" x2="-94.069099" y2="29.9035"></linearGradient><linearGradient inkscape:collect="always" xlink:href="#SVGID_5_" id="linearGradient5379" gradientUnits="userSpaceOnUse" x1="54.715801" y1="65.136703" x2="83.798798" y2="65.136703"></linearGradient><linearGradient inkscape:collect="always" xlink:href="#SVGID_2_" id="linearGradient5391" gradientUnits="userSpaceOnUse" x1="66.232399" y1="24.481001" x2="112.7331" y2="97.232101"></linearGradient><radialGradient inkscape:collect="always" xlink:href="#SVGID_1_" id="radialGradient5395" gradientUnits="userSpaceOnUse" gradientTransform="matrix(1,0,0,-1,192.3999,143.0996)" cx="-145.4702" cy="87.823196" r="68.686401"></radialGradient>
	
	
<inkscape:perspective id="perspective10537" inkscape:persp3d-origin="0.5 : 0.33333333 : 1" inkscape:vp_z="1 : 0.5 : 1" inkscape:vp_y="0 : 1000 : 0" inkscape:vp_x="0 : 0.5 : 1" sodipodi:type="inkscape:persp3d"></inkscape:perspective></defs><sodipodi:namedview pagecolor="#ffffff" bordercolor="#666666" borderopacity="1" objecttolerance="10" gridtolerance="10" guidetolerance="10" inkscape:pageopacity="0" inkscape:pageshadow="2" inkscape:window-width="1166" inkscape:window-height="730" id="namedview4848" showgrid="false" inkscape:zoom="2.8284272" inkscape:cx="41.228285" inkscape:cy="23.889925" inkscape:window-x="64" inkscape:window-y="0" inkscape:window-maximized="0" inkscape:current-layer="svg3857" showguides="true" inkscape:guide-bbox="true"><sodipodi:guide orientation="0,1" position="0,140" id="globe_top"></sodipodi:guide><sodipodi:guide orientation="1,0" position="16,0" id="globe_left"></sodipodi:guide><sodipodi:guide orientation="1,0" position="119,0" id="globe_right"></sodipodi:guide><sodipodi:guide id="globe_bottom" position="0,47" orientation="0,1"></sodipodi:guide><sodipodi:guide orientation="0,1" position="8,40" id="wordmark_top"></sodipodi:guide><sodipodi:guide orientation="0,1" position="8,22.5" id="wordmark_bottom"></sodipodi:guide><sodipodi:guide orientation="0,1" position="0,17" id="subtitle_top"></sodipodi:guide><sodipodi:guide orientation="0,1" position="0,8" id="subtitle_bottom"></sodipodi:guide><sodipodi:guide orientation="1,0" position="8,40" id="wordmark_left"></sodipodi:guide><sodipodi:guide orientation="1,0" position="127,40" id="wordmark_right"></sodipodi:guide></sodipodi:namedview><path transform="matrix(2.8766398,0,0,2.48832,120.07874,-281.95824)" style="font-size:10px;font-style:normal;font-variant:normal;font-weight:normal;font-stretch:normal;text-align:justify;line-height:125%;writing-mode:lr-tb;text-anchor:start;fill:#000000;fill-opacity:1;stroke:none;stroke-width:1px;stroke-linecap:butt;stroke-linejoin:miter;stroke-opacity:1;font-family:Aboriginal Serif;-inkscape-font-specification:Aboriginal Serif" d="M -36.180664,163.1728 C -36.180665,162.984 -36.117188,162.82856 -35.990234,162.70649 C -35.863282,162.58442 -35.713543,162.52339 -35.541016,162.52338 C -35.381512,162.52339 -35.2334,162.58605 -35.09668,162.71137 C -34.959963,162.8367 -34.891603,162.99051 -34.891602,163.1728 C -34.891603,163.33882 -34.95508,163.4853 -35.082031,163.61225 C -35.208986,163.73921 -35.361981,163.80268 -35.541016,163.80268 C -35.700522,163.80268 -35.847006,163.74246 -35.980469,163.62202 C -36.113933,163.50158 -36.180665,163.35184 -36.180664,163.1728 L -36.180664,163.1728 z M -27.870117,165.86323 L -30.199219,161.04389 L -32.542969,165.86323 L -27.870117,165.86323 z M -30.199219,159.61323 L -26.732422,166.56147 L -33.680664,166.56147 L -30.199219,159.61323 z M -22.655273,161.40034 C -22.655277,161.25386 -22.68376,161.109 -22.740723,160.96577 C -22.797692,160.82254 -22.876631,160.6964 -22.977539,160.58735 C -23.078454,160.47831 -23.194827,160.39041 -23.32666,160.32368 C -23.458499,160.25695 -23.599286,160.22359 -23.749023,160.22358 C -23.90202,160.22359 -24.043622,160.25695 -24.173828,160.32368 C -24.304038,160.39041 -24.417157,160.47831 -24.513184,160.58735 C -24.609214,160.6964 -24.685711,160.82254 -24.742676,160.96577 C -24.799643,161.109 -24.828126,161.25386 -24.828125,161.40034 C -24.828126,161.55334 -24.799643,161.70145 -24.742676,161.84467 C -24.685711,161.98791 -24.609214,162.11486 -24.513184,162.22553 C -24.417157,162.33621 -24.304038,162.42492 -24.173828,162.49165 C -24.043622,162.55838 -23.90202,162.59175 -23.749023,162.59174 C -23.599286,162.59175 -23.458499,162.55838 -23.32666,162.49165 C -23.194827,162.42492 -23.078454,162.33621 -22.977539,162.22553 C -22.876631,162.11486 -22.797692,161.98791 -22.740723,161.84467 C -22.68376,161.70145 -22.655277,161.55334 -22.655273,161.40034 L -22.655273,161.40034 z M -21.9375,161.40034 C -21.937504,161.65425 -21.983891,161.88944 -22.07666,162.1059 C -22.169438,162.32238 -22.299646,162.51444 -22.467285,162.68208 C -22.634932,162.84972 -22.828617,162.97993 -23.04834,163.0727 C -23.268069,163.16548 -23.50163,163.21186 -23.749023,163.21186 C -23.928062,163.21186 -24.09896,163.18501 -24.261719,163.13129 C -24.424481,163.07759 -24.579103,163.00353 -24.725586,162.90913 L -24.725586,166.56147 L -25.536133,166.56147 L -25.536133,161.40034 C -25.536133,161.15295 -25.489747,160.91939 -25.396973,160.69965 C -25.3042,160.47993 -25.175619,160.28869 -25.01123,160.12592 C -24.846844,159.96317 -24.656414,159.8354 -24.439941,159.74262 C -24.223472,159.64986 -23.993166,159.60347 -23.749023,159.60346 C -23.50163,159.60347 -23.268069,159.64986 -23.04834,159.74262 C -22.828617,159.8354 -22.634932,159.96317 -22.467285,160.12592 C -22.299646,160.28869 -22.169438,160.47993 -22.07666,160.69965 C -21.983891,160.91939 -21.937504,161.15295 -21.9375,161.40034 L -21.9375,161.40034 z M -14.564453,166.56147 L -17.259766,161.02924 L -19.950195,166.56147 L -20.731445,166.56147 L -17.259766,159.60346 L -13.783203,166.56147 L -14.564453,166.56147 z M -7.6552734,162.9726 C -7.6650446,162.66662 -7.7146865,162.35656 -7.8041992,162.04243 C -7.8937227,161.7283 -8.0231171,161.44266 -8.1923828,161.18549 C -8.3616585,160.92834 -8.5748744,160.71838 -8.8320312,160.55561 C -9.0891968,160.39286 -9.3837929,160.31148 -9.7158203,160.31147 C -10.064131,160.31148 -10.366865,160.39123 -10.624023,160.55073 C -10.881187,160.71024 -11.094403,160.91694 -11.263672,161.17084 C -11.432944,161.42476 -11.560711,161.7104 -11.646973,162.02778 C -11.733237,162.34517 -11.776369,162.66336 -11.776367,162.98237 L -11.776367,166.56147 L -12.586914,166.56147 L -12.586914,163.04096 C -12.586915,162.50711 -12.529949,162.0408 -12.416016,161.64204 C -12.302084,161.24328 -12.105144,160.87951 -11.825195,160.55073 C -11.525718,160.22521 -11.201011,159.98596 -10.851074,159.83295 C -10.501142,159.67997 -10.122724,159.60347 -9.7158203,159.60346 C -9.5107459,159.60347 -9.3195026,159.61974 -9.1420898,159.65229 C -8.9646852,159.68485 -8.7929731,159.73205 -8.6269531,159.79389 C -8.3014372,159.91109 -7.9987031,160.14058 -7.71875,160.48237 C -7.4322974,160.84045 -7.2158263,161.22619 -7.0693359,161.63959 C -6.9228578,162.05301 -6.8496157,162.50711 -6.8496094,163.0019 L -6.8496094,166.56147 L -7.6552734,166.56147 L -7.6552734,162.9726 z M -5.6533203,159.75971 L -4.8427734,159.75971 L -4.8427734,162.74311 L -2.1425781,162.74311 L -0.375,162.74311 L -0.375,163.45112 L -4.2958984,166.56147 L -5.5019531,166.56147 L -1.5859375,163.45112 L -5.6533203,163.45112 L -5.6533203,159.75971 z" id="flowRoot3018"></path><path transform="matrix(0.8511578,0,0,0.9361097,55.951601,-7.0814059)" style="font-size:10px;font-style:normal;font-variant:normal;font-weight:normal;font-stretch:normal;text-align:justify;line-height:125%;writing-mode:lr-tb;text-anchor:start;fill:#000000;fill-opacity:1;stroke:none;stroke-width:1px;stroke-linecap:butt;stroke-linejoin:miter;stroke-opacity:1;font-family:Aboriginal Serif;-inkscape-font-specification:Aboriginal Serif" d="M -53.739258,162.4687 C -53.739261,162.65424 -53.705895,162.83165 -53.63916,163.00092 C -53.572432,163.1702 -53.478845,163.31993 -53.358398,163.45014 C -53.237959,163.58035 -53.097986,163.68533 -52.938477,163.76508 C -52.778976,163.84484 -52.608077,163.88471 -52.425781,163.88471 C -52.25326,163.88471 -52.088872,163.84484 -51.932617,163.76508 C -51.776372,163.68533 -51.639654,163.58035 -51.522461,163.45014 C -51.405279,163.31993 -51.311692,163.16857 -51.241699,162.99604 C -51.171718,162.82352 -51.136725,162.64773 -51.136719,162.4687 C -51.136725,162.28641 -51.166835,162.109 -51.227051,161.93647 C -51.287278,161.76395 -51.374355,161.61095 -51.488281,161.47749 C -51.602219,161.34402 -51.738937,161.23742 -51.898438,161.15766 C -52.057948,161.07791 -52.233729,161.03804 -52.425781,161.03803 C -52.621098,161.03804 -52.798507,161.07628 -52.958008,161.15278 C -53.117517,161.22928 -53.254235,161.33263 -53.368164,161.46284 C -53.4821,161.59305 -53.572432,161.74442 -53.63916,161.91694 C -53.705895,162.08947 -53.739261,162.27339 -53.739258,162.4687 L -53.739258,162.4687 z M -56.336914,161.03803 L -56.336914,160.32514 L -52.425781,160.32514 C -52.139328,160.32515 -51.869959,160.38374 -51.617676,160.50092 C -51.365403,160.61811 -51.144049,160.77518 -50.953613,160.97211 C -50.76319,161.16906 -50.612637,161.39774 -50.501953,161.65815 C -50.391283,161.91857 -50.335944,162.19201 -50.335938,162.47846 C -50.335944,162.77143 -50.391283,163.04568 -50.501953,163.30122 C -50.612637,163.55675 -50.76319,163.78136 -50.953613,163.97504 C -51.144049,164.16873 -51.365403,164.32091 -51.617676,164.43159 C -51.869959,164.54226 -52.139328,164.5976 -52.425781,164.5976 C -52.705733,164.5976 -52.974288,164.53901 -53.231445,164.42182 C -53.48861,164.30463 -53.714033,164.14757 -53.907715,163.95063 C -54.101403,163.75369 -54.254397,163.52583 -54.366699,163.26704 C -54.479006,163.00825 -54.535159,162.734 -54.535156,162.44428 C -54.535159,162.33361 -54.525393,162.21316 -54.505859,162.08295 C -54.486331,161.95275 -54.457034,161.82254 -54.417969,161.69233 C -54.378909,161.56212 -54.326012,161.44005 -54.259277,161.32612 C -54.192548,161.21219 -54.111982,161.11616 -54.017578,161.03803 L -56.336914,161.03803 z M -48.338867,161.51655 L -49.129883,161.51655 L -49.129883,157.64448 L -48.338867,157.64448 L -48.338867,161.51655 z M -46.258789,161.51655 L -47.049805,161.51655 L -47.049805,157.64448 L -46.258789,157.64448 L -46.258789,161.51655 z M -39.237305,163.73823 L -41.566406,158.91889 L -43.910156,163.73823 L -39.237305,163.73823 z M -41.566406,157.48823 L -38.099609,164.43647 L -45.047852,164.43647 L -41.566406,157.48823 z M -36.90332,157.63471 L -36.092773,157.63471 L -36.092773,160.61811 L -33.392578,160.61811 L -31.625,160.61811 L -31.625,161.32612 L -35.545898,164.43647 L -36.751953,164.43647 L -32.835938,161.32612 L -36.90332,161.32612 L -36.90332,157.63471 z M -29.28125,158.3476 L -26.947266,163.16694 L -24.608398,158.3476 L -29.28125,158.3476 z M -26.947266,164.5976 L -30.418945,157.64448 L -23.470703,157.64448 L -26.947266,164.5976 z M -22.274414,161.0478 C -22.274415,160.859 -22.210938,160.70356 -22.083984,160.58149 C -21.957032,160.45942 -21.807293,160.39839 -21.634766,160.39838 C -21.475262,160.39839 -21.32715,160.46105 -21.19043,160.58637 C -21.053713,160.7117 -20.985353,160.86551 -20.985352,161.0478 C -20.985353,161.21382 -21.04883,161.3603 -21.175781,161.48725 C -21.302736,161.61421 -21.455731,161.67768 -21.634766,161.67768 C -21.794272,161.67768 -21.940756,161.61746 -22.074219,161.49702 C -22.207683,161.37658 -22.274415,161.22684 -22.274414,161.0478 L -22.274414,161.0478 z M -15.536133,163.73823 L -15.536133,157.64448 L -14.725586,157.64448 L -14.725586,164.43647 L -19.774414,164.43647 L -19.774414,163.73823 L -15.536133,163.73823 z M -7.7138672,163.73823 L -10.042969,158.91889 L -12.386719,163.73823 L -7.7138672,163.73823 z M -10.042969,157.48823 L -6.5761719,164.43647 L -13.524414,164.43647 L -10.042969,157.48823 z M -5.3798828,161.0478 C -5.3798834,160.859 -5.3164069,160.70356 -5.1894531,160.58149 C -5.0625009,160.45942 -4.9127615,160.39839 -4.7402344,160.39838 C -4.5807306,160.39839 -4.4326187,160.46105 -4.2958984,160.58637 C -4.1591815,160.7117 -4.0908222,160.86551 -4.0908203,161.0478 C -4.0908222,161.21382 -4.1542987,161.3603 -4.28125,161.48725 C -4.4082047,161.61421 -4.5611993,161.67768 -4.7402344,161.67768 C -4.8997407,161.67768 -5.0462249,161.61746 -5.1796875,161.49702 C -5.3131517,161.37658 -5.3798834,161.22684 -5.3798828,161.0478 L -5.3798828,161.0478 z M -1.4394531,160.45698 C -1.2343772,160.45698 -1.0463892,160.37886 -0.87548828,160.2226 C -0.70459262,160.06636 -0.61914349,159.86128 -0.61914062,159.60737 C -0.61914349,159.48042 -0.64274372,159.36323 -0.68994141,159.25581 C -0.73714467,159.14839 -0.79899357,159.05643 -0.87548828,158.97993 C -0.95198821,158.90343 -1.0398787,158.84403 -1.1391602,158.8017 C -1.2384463,158.75939 -1.3385438,158.73823 -1.4394531,158.73823 C -1.5403665,158.73823 -1.6388365,158.75939 -1.7348633,158.8017 C -1.8308936,158.84403 -1.9171565,158.90343 -1.9936523,158.97993 C -2.0701511,159.05643 -2.1303724,159.14839 -2.1743164,159.25581 C -2.218263,159.36323 -2.2402356,159.48042 -2.2402344,159.60737 C -2.2402356,159.86128 -2.1588555,160.06636 -1.9960938,160.2226 C -1.833335,160.37886 -1.6477883,160.45698 -1.4394531,160.45698 L -1.4394531,160.45698 z M -1.4492188,161.03803 C -1.6510435,161.03804 -1.8382178,161.00141 -2.0107422,160.92817 C -2.1832695,160.85493 -2.3346366,160.75321 -2.4648438,160.62299 C -2.595053,160.49279 -2.6967781,160.34061 -2.7700195,160.16645 C -2.8432624,159.9923 -2.8798834,159.80594 -2.8798828,159.60737 C -2.8798834,159.39904 -2.8432624,159.20698 -2.7700195,159.0312 C -2.6967781,158.85542 -2.595053,158.70243 -2.4648438,158.57221 C -2.3346366,158.44201 -2.1832695,158.33866 -2.0107422,158.26215 C -1.8382178,158.18566 -1.6510435,158.14741 -1.4492188,158.14741 C -1.2506533,158.14741 -1.0610376,158.18566 -0.88037109,158.26215 C -0.69970981,158.33866 -0.54427377,158.44201 -0.4140625,158.57221 C -0.28385736,158.70243 -0.1805046,158.85542 -0.10400391,159.0312 C -0.027509963,159.20698 0.010738696,159.39904 0.010742188,159.60737 C 0.010738696,159.65295 0.0074834912,159.71561 0.0009765625,159.79536 C -0.0055373291,159.87511 -0.013675342,159.95731 -0.0234375,160.04194 C -0.033206572,160.12658 -0.048668796,160.20389 -0.069824219,160.27387 C -0.090986462,160.34386 -0.11133149,160.39188 -0.13085938,160.41792 L 1.6171875,160.41792 L 1.6171875,161.03803 L -1.4492188,161.03803 z M 5.5185547,161.0478 C 5.5185541,160.859 5.5820306,160.70356 5.7089844,160.58149 C 5.8359366,160.45942 5.985676,160.39839 6.1582031,160.39838 C 6.3177069,160.39839 6.4658188,160.46105 6.6025391,160.58637 C 6.739256,160.7117 6.8076153,160.86551 6.8076172,161.0478 C 6.8076153,161.21382 6.7441388,161.3603 6.6171875,161.48725 C 6.4902328,161.61421 6.3372382,161.67768 6.1582031,161.67768 C 5.9986968,161.67768 5.8522126,161.61746 5.71875,161.49702 C 5.5852858,161.37658 5.5185541,161.22684 5.5185547,161.0478 L 5.5185547,161.0478 z M 13.829102,163.73823 L 11.5,158.91889 L 9.15625,163.73823 L 13.829102,163.73823 z M 11.5,157.48823 L 14.966797,164.43647 L 8.0185547,164.43647 L 11.5,157.48823 z M 19.043945,159.27534 C 19.043942,159.12886 19.015459,158.984 18.958496,158.84077 C 18.901527,158.69754 18.822588,158.5714 18.72168,158.46235 C 18.620765,158.35331 18.504392,158.26541 18.372559,158.19868 C 18.24072,158.13195 18.099932,158.09859 17.950195,158.09858 C 17.797198,158.09859 17.655597,158.13195 17.525391,158.19868 C 17.39518,158.26541 17.282062,158.35331 17.186035,158.46235 C 17.090005,158.5714 17.013508,158.69754 16.956543,158.84077 C 16.899575,158.984 16.871092,159.12886 16.871094,159.27534 C 16.871092,159.42834 16.899575,159.57645 16.956543,159.71967 C 17.013508,159.86291 17.090005,159.98986 17.186035,160.10053 C 17.282062,160.21121 17.39518,160.29992 17.525391,160.36665 C 17.655597,160.43338 17.797198,160.46675 17.950195,160.46674 C 18.099932,160.46675 18.24072,160.43338 18.372559,160.36665 C 18.504392,160.29992 18.620765,160.21121 18.72168,160.10053 C 18.822588,159.98986 18.901527,159.86291 18.958496,159.71967 C 19.015459,159.57645 19.043942,159.42834 19.043945,159.27534 L 19.043945,159.27534 z M 19.761719,159.27534 C 19.761715,159.52925 19.715328,159.76444 19.622559,159.9809 C 19.529781,160.19738 19.399573,160.38944 19.231934,160.55708 C 19.064287,160.72472 18.870602,160.85493 18.650879,160.9477 C 18.431149,161.04048 18.197589,161.08686 17.950195,161.08686 C 17.771157,161.08686 17.600258,161.06001 17.4375,161.00629 C 17.274738,160.95259 17.120116,160.87853 16.973633,160.78413 L 16.973633,164.43647 L 16.163086,164.43647 L 16.163086,159.27534 C 16.163085,159.02795 16.209472,158.79439 16.302246,158.57465 C 16.395019,158.35493 16.523599,158.16369 16.687988,158.00092 C 16.852375,157.83817 17.042805,157.7104 17.259277,157.61762 C 17.475747,157.52486 17.706053,157.47847 17.950195,157.47846 C 18.197589,157.47847 18.431149,157.52486 18.650879,157.61762 C 18.870602,157.7104 19.064287,157.83817 19.231934,158.00092 C 19.399573,158.16369 19.529781,158.35493 19.622559,158.57465 C 19.715328,158.79439 19.761715,159.02795 19.761719,159.27534 L 19.761719,159.27534 z M 27.134766,164.43647 L 24.439453,158.90424 L 21.749023,164.43647 L 20.967773,164.43647 L 24.439453,157.47846 L 27.916016,164.43647 L 27.134766,164.43647 z M 34.043945,160.8476 C 34.034174,160.54162 33.984532,160.23156 33.89502,159.91743 C 33.805496,159.6033 33.676102,159.31766 33.506836,159.06049 C 33.33756,158.80334 33.124344,158.59338 32.867188,158.43061 C 32.610022,158.26786 32.315426,158.18648 31.983398,158.18647 C 31.635088,158.18648 31.332354,158.26623 31.075195,158.42573 C 30.818032,158.58524 30.604816,158.79194 30.435547,159.04584 C 30.266274,159.29976 30.138507,159.5854 30.052246,159.90278 C 29.965982,160.22017 29.92285,160.53836 29.922852,160.85737 L 29.922852,164.43647 L 29.112305,164.43647 L 29.112305,160.91596 C 29.112304,160.38211 29.16927,159.9158 29.283203,159.51704 C 29.397135,159.11828 29.594074,158.75451 29.874023,158.42573 C 30.173501,158.10021 30.498208,157.86096 30.848145,157.70795 C 31.198077,157.55497 31.576494,157.47847 31.983398,157.47846 C 32.188473,157.47847 32.379716,157.49474 32.557129,157.52729 C 32.734534,157.55985 32.906246,157.60705 33.072266,157.66889 C 33.397782,157.78609 33.700516,158.01558 33.980469,158.35737 C 34.266921,158.71545 34.483392,159.10119 34.629883,159.51459 C 34.776361,159.92801 34.849603,160.38211 34.849609,160.8769 L 34.849609,164.43647 L 34.043945,164.43647 L 34.043945,160.8476 z M 36.045898,157.63471 L 36.856445,157.63471 L 36.856445,160.61811 L 39.556641,160.61811 L 41.324219,160.61811 L 41.324219,161.32612 L 37.40332,164.43647 L 36.197266,164.43647 L 40.113281,161.32612 L 36.045898,161.32612 L 36.045898,157.63471 z M 51.036133,163.73823 L 48.707031,158.91889 L 46.363281,163.73823 L 51.036133,163.73823 z M 48.707031,157.48823 L 52.173828,164.43647 L 45.225586,164.43647 L 48.707031,157.48823 z M 48.057617,155.63276 C 48.057614,155.44722 48.12109,155.2926 48.248047,155.16889 C 48.374996,155.0452 48.524736,154.98335 48.697266,154.98334 C 48.856767,154.98335 49.004878,155.04683 49.141602,155.17377 C 49.278316,155.30074 49.346675,155.45373 49.34668,155.63276 C 49.346675,155.79878 49.283198,155.94527 49.15625,156.07221 C 49.029292,156.19917 48.876298,156.26265 48.697266,156.26264 C 48.537757,156.26265 48.391272,156.20243 48.257812,156.08198 C 48.124345,155.96154 48.057614,155.8118 48.057617,155.63276 L 48.057617,155.63276 z M 53.370117,160.74506 L 57.4375,160.74506 L 53.521484,157.63471 L 54.727539,157.63471 L 58.648438,160.74506 L 58.648438,161.45795 L 56.880859,161.45795 L 54.180664,161.45795 L 54.180664,164.43647 L 53.370117,164.43647 L 53.370117,160.74506 z M 65.132812,161.32612 L 61.075195,161.32612 L 64.986328,164.43647 L 63.775391,164.43647 L 59.854492,161.32612 L 59.854492,160.61811 L 61.631836,160.61811 L 64.332031,160.61811 L 64.332031,157.63471 L 65.132812,157.63471 L 65.132812,161.32612 z M 64.092773,155.63276 C 64.092769,155.44722 64.156245,155.2926 64.283203,155.16889 C 64.410151,155.0452 64.559891,154.98335 64.732422,154.98334 C 64.891921,154.98335 65.040033,155.04683 65.176758,155.17377 C 65.313471,155.30074 65.38183,155.45373 65.381836,155.63276 C 65.38183,155.79878 65.318353,155.94527 65.191406,156.07221 C 65.064447,156.19917 64.911453,156.26265 64.732422,156.26264 C 64.572911,156.26265 64.426427,156.20243 64.292969,156.08198 C 64.1595,155.96154 64.092769,155.8118 64.092773,155.63276 L 64.092773,155.63276 z M 70.240234,160.38862 C 70.412756,160.2812 70.529129,160.17215 70.589355,160.06147 C 70.649572,159.9508 70.686193,159.78966 70.699219,159.57807 C 70.699214,159.32417 70.64062,159.12398 70.523438,158.97749 C 70.406245,158.83101 70.290686,158.75776 70.176758,158.75776 C 70.010738,158.75776 69.869136,158.80903 69.751953,158.91157 C 69.634762,159.01411 69.529781,159.14025 69.437012,159.28999 C 69.344235,159.43973 69.259599,159.59679 69.183105,159.76118 C 69.106605,159.92557 69.024411,160.07124 68.936523,160.19819 C 68.796546,160.4228 68.611814,160.61893 68.382324,160.78657 C 68.15283,160.95421 67.888344,161.03804 67.588867,161.03803 C 67.393553,161.03804 67.2194,160.99979 67.066406,160.92329 C 66.91341,160.84679 66.784016,160.74181 66.678223,160.60834 C 66.572428,160.47489 66.48942,160.31945 66.429199,160.14204 C 66.368977,159.96463 66.338867,159.77664 66.338867,159.57807 C 66.338867,159.36323 66.368977,159.16792 66.429199,158.99213 C 66.48942,158.81636 66.565103,158.6715 66.65625,158.55756 C 66.864582,158.32319 67.074543,158.18648 67.286133,158.14741 L 67.530273,158.79682 C 67.34798,158.89123 67.225096,158.99458 67.161621,159.10688 C 67.098143,159.21919 67.06315,159.37625 67.056641,159.57807 C 67.056639,159.6562 67.065591,159.74572 67.083496,159.84663 C 67.101398,159.94754 67.131509,160.0395 67.173828,160.1225 C 67.216144,160.20552 67.272297,160.2755 67.342285,160.33247 C 67.41227,160.38944 67.494464,160.41792 67.588867,160.41792 L 67.598633,160.41792 C 67.738605,160.41792 67.861489,160.37967 67.967285,160.30317 C 68.073077,160.22668 68.169919,160.12983 68.257812,160.01264 C 68.345701,159.89546 68.423012,159.77176 68.489746,159.64155 C 68.556475,159.51134 68.619138,159.38927 68.677734,159.27534 C 68.759112,159.12886 68.847816,158.98888 68.943848,158.85542 C 69.039873,158.72196 69.148109,158.60233 69.268555,158.49653 C 69.388994,158.39074 69.522457,158.3061 69.668945,158.24262 C 69.815426,158.17915 69.981441,158.14741 70.166992,158.14741 C 70.349279,158.14741 70.516922,158.18729 70.669922,158.26704 C 70.822912,158.34679 70.953934,158.4534 71.062988,158.58686 C 71.172032,158.72033 71.258295,158.87332 71.321777,159.04584 C 71.385248,159.21838 71.416987,159.39578 71.416992,159.57807 C 71.416987,159.75711 71.390131,159.92964 71.336426,160.09565 C 71.282709,160.26167 71.212722,160.41141 71.126465,160.54487 C 71.040197,160.67834 70.940913,160.78901 70.828613,160.8769 C 70.716304,160.96479 70.59993,161.0185 70.479492,161.03803 L 70.240234,160.38862 z M 77.55957,157.64448 L 78.365234,157.64448 L 78.365234,161.20405 C 78.365228,162.15783 78.075515,162.99604 77.496094,163.7187 C 77.216141,164.05724 76.913407,164.28673 76.587891,164.40717 C 76.268876,164.53413 75.905921,164.5976 75.499023,164.5976 C 75.092119,164.5976 74.713702,164.52273 74.36377,164.37299 C 74.013833,164.22325 73.689126,163.984 73.389648,163.65522 C 73.109699,163.32319 72.91276,162.95698 72.798828,162.55659 C 72.684895,162.1562 72.627929,161.69233 72.62793,161.16499 L 72.62793,157.64448 L 73.438477,157.64448 L 73.438477,161.22846 C 73.438475,161.54748 73.479979,161.86486 73.562988,162.18061 C 73.645994,162.49637 73.772134,162.7812 73.941406,163.0351 C 74.110675,163.28901 74.325519,163.49409 74.585938,163.65034 C 74.846351,163.80659 75.150713,163.88471 75.499023,163.88471 C 75.831051,163.88471 76.125647,163.80333 76.382812,163.64057 C 76.639969,163.47781 76.853185,163.26948 77.022461,163.01557 C 77.191727,162.76167 77.321121,162.47684 77.410645,162.16108 C 77.500157,161.84533 77.549799,161.53771 77.55957,161.23823 L 77.55957,157.64448 z M 82.710938,159.56831 C 82.710934,159.42834 82.677568,159.28267 82.61084,159.13129 C 82.544104,158.97993 82.457842,158.84484 82.352051,158.72602 C 82.246253,158.60721 82.120928,158.50956 81.976074,158.43305 C 81.831215,158.35656 81.685544,158.31831 81.539062,158.31831 C 81.386065,158.31831 81.234698,158.35168 81.084961,158.4184 C 80.935219,158.48514 80.801756,158.57466 80.68457,158.68696 C 80.567381,158.79927 80.472166,158.93192 80.398926,159.08491 C 80.325682,159.23791 80.289061,159.39904 80.289062,159.56831 C 80.289061,159.74084 80.322427,159.90197 80.38916,160.0517 C 80.45589,160.20145 80.54785,160.33328 80.665039,160.44721 C 80.782225,160.56115 80.915688,160.65148 81.06543,160.71821 C 81.215167,160.78494 81.373044,160.82156 81.539062,160.82807 C 81.679034,160.82156 81.819008,160.78332 81.958984,160.71333 C 82.098955,160.64334 82.224281,160.54975 82.334961,160.43256 C 82.445635,160.31538 82.535966,160.18192 82.605957,160.03217 C 82.67594,159.88244 82.710934,159.72782 82.710938,159.56831 L 82.710938,159.56831 z M 83.472656,159.56831 C 83.472652,160.09891 83.278967,160.55138 82.891602,160.92573 C 82.491207,161.30008 82.040362,161.48725 81.539062,161.48725 C 80.953123,161.48725 80.494139,161.30008 80.162109,160.92573 L 80.152344,160.92573 C 79.758463,160.54487 79.561523,160.0924 79.561523,159.56831 C 79.561523,159.30138 79.612792,159.05073 79.715332,158.81635 C 79.81787,158.58198 79.959472,158.37853 80.140137,158.206 C 80.320799,158.03348 80.53076,157.89676 80.77002,157.79584 C 81.009275,157.69494 81.265623,157.64448 81.539062,157.64448 C 82.046872,157.64448 82.500973,157.83166 82.901367,158.206 C 83.282222,158.58036 83.472652,159.03446 83.472656,159.56831 L 83.472656,159.56831 z" id="flowRoot3034"></path></svg>
