<?xml version="1.0" encoding="UTF-8" standalone="no"?>
<svg
	xmlns="http://www.w3.org/2000/svg"
	xmlns:dc="http://purl.org/dc/elements/1.1/"
	xmlns:cc="http://creativecommons.org/ns#"
	xmlns:rdf="http://www.w3.org/1999/02/22-rdf-syntax-ns#"
	xmlns:svg="http://www.w3.org/2000/svg"
	xmlns:xlink="http://www.w3.org/1999/xlink"
	xmlns:sodipodi="http://sodipodi.sourceforge.net/DTD/sodipodi-0.dtd"
	xmlns:inkscape="http://www.inkscape.org/namespaces/inkscape"
	version="1.1"
	viewBox="0 0 135px 155px">
	<svg xmlns:dc="http://purl.org/dc/elements/1.1/" xmlns:cc="http://creativecommons.org/ns#" xmlns:rdf="http://www.w3.org/1999/02/22-rdf-syntax-ns#" xmlns:svg="http://www.w3.org/2000/svg" xmlns:xlink="http://www.w3.org/1999/xlink" xmlns:sodipodi="http://sodipodi.sourceforge.net/DTD/sodipodi-0.dtd" xmlns:inkscape="http://www.inkscape.org/namespaces/inkscape" version="1.1" x="0px" y="0px" width="135px" height="155px" viewBox="0 0 135 155" enable-background="new 0 0 135 155" xml:space="preserve" id="svg3857" inkscape:version="0.46" sodipodi:docname="Wikipedia-logo-v2-ts.svg" sodipodi:version="0.32" inkscape:output_extension="org.inkscape.output.svg.inkscape" inkscape:export-filename="C:\Documents and Settings\Phoenix\Desktop\sebx wiki pix\Wikipedia-logo-v2-sg.png" inkscape:export-xdpi="90" inkscape:export-ydpi="90" xmlns:svgjs="http://svgjs.com/svgjs"><metadata id="metadata4852"><rdf:RDF><cc:Work rdf:about=""><dc:format>image/svg+xml</dc:format><dc:type rdf:resource="http://purl.org/dc/dcmitype/StillImage"></dc:type></cc:Work></rdf:RDF></metadata><defs id="defs4850"><inkscape:perspective sodipodi:type="inkscape:persp3d" inkscape:vp_x="0 : 77.5 : 1" inkscape:vp_y="0 : 1000 : 0" inkscape:vp_z="135 : 77.5 : 1" inkscape:persp3d-origin="67.5 : 51.666667 : 1" id="perspective4854"></inkscape:perspective>
	
		<radialGradient gradientUnits="userSpaceOnUse" gradientTransform="matrix(1,0,0,-1,192.3999,143.0996)" r="68.686401" cy="87.823196" cx="-145.4702" id="SVGID_1_">
		<stop id="stop3922" offset="0" style="stop-color:#FFFFFF"></stop>
		<stop id="stop3924" offset="0.4835" style="stop-color:#EAEAEB"></stop>
		<stop id="stop3926" offset="0.9451" style="stop-color:#A9ABAE"></stop>
		<stop id="stop3928" offset="1" style="stop-color:#999B9E"></stop>
	</radialGradient>
	
	
	<linearGradient y2="97.232101" x2="112.7331" y1="24.481001" x1="66.232399" gradientUnits="userSpaceOnUse" id="SVGID_2_">
		<stop id="stop3935" offset="0" style="stop-color:#8A8A8A"></stop>
		<stop id="stop3937" offset="0.5687" style="stop-color:#606060"></stop>
		<stop id="stop3939" offset="0.5914" style="stop-color:#FFFFFF"></stop>
		<stop id="stop3941" offset="0.6116" style="stop-color:#585858"></stop>
		<stop id="stop3943" offset="1" style="stop-color:#303030"></stop>
	</linearGradient>
	
	
	<linearGradient y2="65.136703" x2="83.798798" y1="65.136703" x1="54.715801" gradientUnits="userSpaceOnUse" id="SVGID_5_">
		<stop id="stop3964" offset="0" style="stop-color:#231F20"></stop>
		<stop id="stop3966" offset="1" style="stop-color:#474747"></stop>
	</linearGradient>
	
	
	
	
	
	
	
	
	
		<linearGradient gradientTransform="matrix(1,0,0,-1,192.3999,143.0996)" y2="29.9035" x2="-94.069099" y1="119.8076" x1="-123.5898" gradientUnits="userSpaceOnUse" id="SVGID_6_">
		<stop id="stop3997" offset="0" style="stop-color:#FFFFFF"></stop>
		<stop id="stop3999" offset="0.0094" style="stop-color:#FCFCFC"></stop>
		<stop id="stop4001" offset="0.0655" style="stop-color:#EEEEEE"></stop>
		<stop id="stop4003" offset="0.1342" style="stop-color:#E5E5E5"></stop>
		<stop id="stop4005" offset="0.2515" style="stop-color:#E3E3E3"></stop>
		<stop id="stop4007" offset="0.3357" style="stop-color:#8A8A8A"></stop>
		<stop id="stop4009" offset="0.4422" style="stop-color:#B8B8B8"></stop>
		<stop id="stop4011" offset="1" style="stop-color:#3B3B3B"></stop>
	</linearGradient>
	
	<linearGradient y2="87.626701" x2="119.5471" y1="26.876499" x1="70.421898" gradientUnits="userSpaceOnUse" id="SVGID_7_">
		<stop id="stop4016" offset="0" style="stop-color:#EFF0F0"></stop>
		<stop id="stop4018" offset="0.5914" style="stop-color:#F0F1F2"></stop>
		<stop id="stop4020" offset="0.599" style="stop-color:#787878"></stop>
		<stop id="stop4022" offset="0.6456" style="stop-color:#EEEFF0"></stop>
		<stop id="stop4024" offset="1" style="stop-color:#D8D9DB"></stop>
	</linearGradient>
	
	
		<linearGradient gradientTransform="matrix(1,0,0,-1,192.3999,143.0996)" y2="31.998501" x2="-87.569702" y1="122.1328" x1="-117.166" gradientUnits="userSpaceOnUse" id="SVGID_8_">
		<stop id="stop4029" offset="0" style="stop-color:#FFFFFF"></stop>
		<stop id="stop4031" offset="1" style="stop-color:#E4E5E6"></stop>
	</linearGradient>
	
	<linearGradient y2="106.3903" x2="79.683601" y1="25.2764" x1="54.653301" gradientUnits="userSpaceOnUse" id="SVGID_9_">
		<stop id="stop4036" offset="0" style="stop-color:#FFFFFF"></stop>
		<stop id="stop4038" offset="0.7473" style="stop-color:#F9F9F9"></stop>
		<stop id="stop4040" offset="1" style="stop-color:#D5D7D8"></stop>
	</linearGradient>
	
	
	
	
	
		<linearGradient gradientTransform="matrix(1,0,0,-1,192.3999,143.0996)" y2="24.6462" x2="-134.85719" y1="119.6328" x1="-115.3369" gradientUnits="userSpaceOnUse" id="SVGID_10_">
		<stop id="stop4061" offset="0" style="stop-color:#FFFFFF"></stop>
		<stop id="stop4063" offset="1" style="stop-color:#E4E5E6"></stop>
	</linearGradient>
	
	<linearGradient y2="92.496101" x2="37.2481" y1="33.077099" x1="32.519001" gradientUnits="userSpaceOnUse" id="SVGID_11_">
		<stop id="stop4068" offset="0.2198" style="stop-color:#989A9C"></stop>
		<stop id="stop4070" offset="0.2527" style="stop-color:#FFFFFF"></stop>
	</linearGradient>
	
	
		<linearGradient gradientTransform="matrix(1,0,0,-1,192.3999,143.0996)" y2="32.797901" x2="-171.9462" y1="126.8398" x1="-152.6201" gradientUnits="userSpaceOnUse" id="SVGID_12_">
		<stop id="stop4075" offset="0" style="stop-color:#FFFFFF"></stop>
		<stop id="stop4077" offset="1" style="stop-color:#E4E5E6"></stop>
	</linearGradient>
	
	
		<linearGradient gradientTransform="matrix(1,0,0,-1,192.3999,143.0996)" y2="35.585701" x2="-130.14281" y1="35.625" x1="-130.1348" gradientUnits="userSpaceOnUse" id="SVGID_13_">
		<stop id="stop4082" offset="0" style="stop-color:#FFFFFF"></stop>
		<stop id="stop4084" offset="1" style="stop-color:#E4E5E6"></stop>
	</linearGradient>
	
	
	
	
		<linearGradient gradientTransform="matrix(1,0,0,-1,192.3999,143.0996)" y2="25.888" x2="-140.54491" y1="120.3223" x1="-121.1382" gradientUnits="userSpaceOnUse" id="SVGID_14_">
		<stop id="stop4093" offset="0" style="stop-color:#FFFFFF"></stop>
		<stop id="stop4095" offset="1" style="stop-color:#E4E5E6"></stop>
	</linearGradient>
	
	
		<linearGradient gradientTransform="matrix(1,0,0,-1,192.3999,143.0996)" y2="28.8524" x2="-155.006" y1="123.3525" x1="-135.58591" gradientUnits="userSpaceOnUse" id="SVGID_15_">
		<stop id="stop4100" offset="0" style="stop-color:#FFFFFF"></stop>
		<stop id="stop4102" offset="1" style="stop-color:#E4E5E6"></stop>
	</linearGradient>
	
	
		<linearGradient gradientTransform="matrix(1,0,0,-1,192.3999,143.0996)" y2="27.1346" x2="-146.8837" y1="121.9365" x1="-127.4014" gradientUnits="userSpaceOnUse" id="SVGID_16_">
		<stop id="stop4107" offset="0" style="stop-color:#FFFFFF"></stop>
		<stop id="stop4109" offset="1" style="stop-color:#E4E5E6"></stop>
	</linearGradient>
	
	
		<linearGradient gradientTransform="matrix(1,0,0,-1,192.3999,143.0996)" y2="24.9438" x2="-138.85201" y1="124.0039" x1="-118.4946" gradientUnits="userSpaceOnUse" id="SVGID_17_">
		<stop id="stop4114" offset="0" style="stop-color:#FFFFFF"></stop>
		<stop id="stop4116" offset="1" style="stop-color:#E4E5E6"></stop>
	</linearGradient>
	
	
		<linearGradient gradientTransform="matrix(1,0,0,-1,192.3999,143.0996)" y2="24.695299" x2="-134.7878" y1="119.1758" x1="-115.3716" gradientUnits="userSpaceOnUse" id="SVGID_18_">
		<stop id="stop4121" offset="0" style="stop-color:#FFFFFF"></stop>
		<stop id="stop4123" offset="1" style="stop-color:#E4E5E6"></stop>
	</linearGradient>
	
	
	
	
	
	
	
	
	
	
	
	
		<linearGradient gradientTransform="matrix(1,0,0,-1,192.3999,143.0996)" y2="83.6045" x2="-75.6362" y1="83.6045" x1="-175.4424" gradientUnits="userSpaceOnUse" id="SVGID_21_">
		<stop id="stop4198" offset="0" style="stop-color:#555555"></stop>
		<stop id="stop4200" offset="1" style="stop-color:#231F20"></stop>
	</linearGradient>
	
	
		<linearGradient gradientTransform="matrix(1,0,0,-1,192.3999,143.0996)" y2="104.0801" x2="-83.541" y1="104.0801" x1="-175.14211" gradientUnits="userSpaceOnUse" id="SVGID_22_">
		<stop id="stop4205" offset="0" style="stop-color:#A0A0A0"></stop>
		<stop id="stop4207" offset="0.0769" style="stop-color:#656767"></stop>
		<stop id="stop4209" offset="1" style="stop-color:#717375"></stop>
	</linearGradient>
	
	
	
	
	
	
	
		<linearGradient gradientTransform="matrix(1,0,0,-1,192.3999,143.0996)" y2="78.209" x2="-172.3853" y1="78.209" x1="-172.3853" gradientUnits="userSpaceOnUse" id="SVGID_23_">
		<stop id="stop4224" offset="0" style="stop-color:#FFFFFF"></stop>
		<stop id="stop4226" offset="0.078" style="stop-color:#F4F4F4"></stop>
		<stop id="stop4228" offset="0.3807" style="stop-color:#CECECE"></stop>
		<stop id="stop4230" offset="0.5396" style="stop-color:#BFBFBF"></stop>
		<stop id="stop4232" offset="0.8357" style="stop-color:#7C7C7C"></stop>
		<stop id="stop4234" offset="0.8996" style="stop-color:#A8A8A8"></stop>
		<stop id="stop4236" offset="0.9093" style="stop-color:#9A9A9A"></stop>
		<stop id="stop4238" offset="0.9327" style="stop-color:#7D7D7D"></stop>
		<stop id="stop4240" offset="0.9558" style="stop-color:#686868"></stop>
		<stop id="stop4242" offset="0.9785" style="stop-color:#5B5B5B"></stop>
		<stop id="stop4244" offset="1" style="stop-color:#575757"></stop>
	</linearGradient>
	
	
		<linearGradient gradientTransform="matrix(1,0,0,-1,192.3999,143.0996)" y2="90.476799" x2="-67.153198" y1="78.449203" x1="-175.7173" gradientUnits="userSpaceOnUse" id="SVGID_24_">
		<stop id="stop4249" offset="0" style="stop-color:#FFFFFF"></stop>
		<stop id="stop4251" offset="0.078" style="stop-color:#F4F4F4"></stop>
		<stop id="stop4253" offset="0.3807" style="stop-color:#CECECE"></stop>
		<stop id="stop4255" offset="0.5396" style="stop-color:#BFBFBF"></stop>
		<stop id="stop4257" offset="0.8357" style="stop-color:#7C7C7C"></stop>
		<stop id="stop4259" offset="0.8996" style="stop-color:#A8A8A8"></stop>
		<stop id="stop4261" offset="0.9093" style="stop-color:#9A9A9A"></stop>
		<stop id="stop4263" offset="0.9327" style="stop-color:#7D7D7D"></stop>
		<stop id="stop4265" offset="0.9558" style="stop-color:#686868"></stop>
		<stop id="stop4267" offset="0.9785" style="stop-color:#5B5B5B"></stop>
		<stop id="stop4269" offset="1" style="stop-color:#575757"></stop>
	</linearGradient>
	
	
		<linearGradient gradientTransform="matrix(1,0,0,-1,192.3999,143.0996)" y2="92.223099" x2="-52.131699" y1="78.4795" x1="-176.1851" gradientUnits="userSpaceOnUse" id="SVGID_25_">
		<stop id="stop4274" offset="0" style="stop-color:#FFFFFF"></stop>
		<stop id="stop4276" offset="0.078" style="stop-color:#F4F4F4"></stop>
		<stop id="stop4278" offset="0.3807" style="stop-color:#CECECE"></stop>
		<stop id="stop4280" offset="0.5396" style="stop-color:#BFBFBF"></stop>
		<stop id="stop4282" offset="0.8357" style="stop-color:#7C7C7C"></stop>
		<stop id="stop4284" offset="0.8996" style="stop-color:#A8A8A8"></stop>
		<stop id="stop4286" offset="0.9093" style="stop-color:#9A9A9A"></stop>
		<stop id="stop4288" offset="0.9327" style="stop-color:#7D7D7D"></stop>
		<stop id="stop4290" offset="0.9558" style="stop-color:#686868"></stop>
		<stop id="stop4292" offset="0.9785" style="stop-color:#5B5B5B"></stop>
		<stop id="stop4294" offset="1" style="stop-color:#575757"></stop>
	</linearGradient>
	
	<linearGradient y2="51.952599" x2="117.1948" y1="71.326698" x1="21.2129" gradientUnits="userSpaceOnUse" id="SVGID_26_">
		<stop id="stop4299" offset="0" style="stop-color:#EDEDEE"></stop>
		<stop id="stop4301" offset="0.4176" style="stop-color:#FFFFFF"></stop>
		<stop id="stop4303" offset="0.6264" style="stop-color:#F8F9F9"></stop>
		<stop id="stop4305" offset="1" style="stop-color:#BFC0C2"></stop>
	</linearGradient>
	
	
	
	
	<linearGradient y2="30.732401" x2="27.9561" y1="30.732401" x1="23.471201" gradientUnits="userSpaceOnUse" id="SVGID_27_">
		<stop id="stop4316" offset="0" style="stop-color:#E2E3E4"></stop>
		<stop id="stop4318" offset="0.5055" style="stop-color:#FFFFFF"></stop>
	</linearGradient>
	
	
	
	
	
	
	
	
	
	
	
	
	
	
	
	
	
	
	
	
	
	
	
	
	
	
	
	
	
	
	
	
	
	
	
	
	
	
	
	
	
	
	
	
	
	
	
	
	
	
	
	
	
	
	
	
	
	
	
	
	
	
	
	
	
	
	
	
	
	
	
	
	
	
	
	
	
	
	
	
	
	
	
	
	
	
	
	
	
	
	
	
	
	
	
	
	
	
	
	
	
	
	
	
	
	
	
	
	
	
	
	
	
	
	
	
	
	
	
	
	
	
	
	
	
	
	
	
	
	
	
	
	
	
	
	
	
	
	
	
	
	
	
	
	
	
	
	
	
	
	
	
	
	
	
	
	
	
	
	
	
	
	
	
	
	
	
	
	
	
	
	
	
	
	
	
	
	
	<linearGradient y2="29.204" x2="111.5455" y1="49.7188" x1="22.5742" gradientUnits="userSpaceOnUse" id="SVGID_34_">
		<stop id="stop4743" offset="0" style="stop-color:#FFFFFF"></stop>
		<stop id="stop4745" offset="0.6538" style="stop-color:#FFFFFF"></stop>
		<stop id="stop4747" offset="1" style="stop-color:#CBCCCE"></stop>
	</linearGradient>
	
	
	
	
	
	
	
	
		<linearGradient gradientTransform="matrix(1,0,0,-1,192.3999,143.0996)" y2="107.0898" x2="-126.4229" y1="107.0898" x1="-158.8101" gradientUnits="userSpaceOnUse" id="SVGID_35_">
		<stop id="stop4770" offset="0" style="stop-color:#696969"></stop>
		<stop id="stop4772" offset="0.3702" style="stop-color:#2E2E2E"></stop>
		<stop id="stop4774" offset="0.4554" style="stop-color:#424242"></stop>
		<stop id="stop4776" offset="0.6014" style="stop-color:#303030"></stop>
		<stop id="stop4778" offset="0.6947" style="stop-color:#4A4A4A"></stop>
		<stop id="stop4780" offset="1" style="stop-color:#666666"></stop>
	</linearGradient>
	
	
		<linearGradient gradientTransform="matrix(1,0,0,-1,192.3999,143.0996)" y2="107.8965" x2="-126.5454" y1="107.8965" x1="-158.4185" gradientUnits="userSpaceOnUse" id="SVGID_36_">
		<stop id="stop4785" offset="0" style="stop-color:#525252"></stop>
		<stop id="stop4787" offset="0.1856" style="stop-color:#333333"></stop>
		<stop id="stop4789" offset="0.354" style="stop-color:#AEAEAE"></stop>
		<stop id="stop4791" offset="0.4199" style="stop-color:#ADADAD"></stop>
		<stop id="stop4793" offset="0.4276" style="stop-color:#9D9D9D"></stop>
		<stop id="stop4795" offset="0.4433" style="stop-color:#818181"></stop>
		<stop id="stop4797" offset="0.4611" style="stop-color:#6A6A6A"></stop>
		<stop id="stop4799" offset="0.4814" style="stop-color:#585858"></stop>
		<stop id="stop4801" offset="0.506" style="stop-color:#4C4C4C"></stop>
		<stop id="stop4803" offset="0.539" style="stop-color:#444444"></stop>
		<stop id="stop4805" offset="0.6166" style="stop-color:#424242"></stop>
		<stop id="stop4807" offset="0.6684" style="stop-color:#454545"></stop>
		<stop id="stop4809" offset="1" style="stop-color:#BDBDBD"></stop>
	</linearGradient>
	
	
		<linearGradient gradientTransform="matrix(1,0,0,-1,192.3999,143.0996)" y2="104.4332" x2="-154.15421" y1="97.627899" x1="-153.1255" gradientUnits="userSpaceOnUse" id="SVGID_37_">
		<stop id="stop4814" offset="0" style="stop-color:#969696"></stop>
		<stop id="stop4816" offset="1" style="stop-color:#000000"></stop>
	</linearGradient>
	
	
	
	<linearGradient y2="38.790001" x2="39.487301" y1="46.373001" x1="38.737301" gradientUnits="userSpaceOnUse" id="SVGID_38_">
		<stop id="stop4825" offset="0" style="stop-color:#333333"></stop>
		<stop id="stop4827" offset="0.431" style="stop-color:#000000"></stop>
		<stop id="stop4829" offset="1" style="stop-color:#2E2E2E"></stop>
	</linearGradient>
	
	
	
	
	
		<radialGradient gradientUnits="userSpaceOnUse" gradientTransform="matrix(1,0,0,-1,192.3999,143.0996)" r="72.751701" cy="106.5996" cx="-138.2334" id="SVGID_39_">
		<stop id="stop4840" offset="0" style="stop-color:#000000;stop-opacity:0"></stop>
		<stop id="stop4842" offset="0.80220002" style="stop-color:#000000;stop-opacity:0.08"></stop>
		<stop id="stop4844" offset="1" style="stop-color:#000000;stop-opacity:0.3882353"></stop>
	</radialGradient>
	
<radialGradient inkscape:collect="always" xlink:href="#SVGID_39_" id="radialGradient5007" gradientUnits="userSpaceOnUse" gradientTransform="matrix(1,0,0,-1,192.3999,143.0996)" cx="-138.2334" cy="106.5996" r="72.751701"></radialGradient><linearGradient inkscape:collect="always" xlink:href="#SVGID_38_" id="linearGradient5013" gradientUnits="userSpaceOnUse" x1="38.737301" y1="46.373001" x2="39.487301" y2="38.790001"></linearGradient><linearGradient inkscape:collect="always" xlink:href="#SVGID_37_" id="linearGradient5018" gradientUnits="userSpaceOnUse" gradientTransform="matrix(1,0,0,-1,192.3999,143.0996)" x1="-153.1255" y1="97.627899" x2="-154.15421" y2="104.4332"></linearGradient><linearGradient inkscape:collect="always" xlink:href="#SVGID_36_" id="linearGradient5021" gradientUnits="userSpaceOnUse" gradientTransform="matrix(1,0,0,-1,192.3999,143.0996)" x1="-158.4185" y1="107.8965" x2="-126.5454" y2="107.8965"></linearGradient><linearGradient inkscape:collect="always" xlink:href="#SVGID_35_" id="linearGradient5024" gradientUnits="userSpaceOnUse" gradientTransform="matrix(1,0,0,-1,192.3999,143.0996)" x1="-158.8101" y1="107.0898" x2="-126.4229" y2="107.0898"></linearGradient><linearGradient inkscape:collect="always" xlink:href="#SVGID_34_" id="linearGradient5036" gradientUnits="userSpaceOnUse" x1="22.5742" y1="49.7188" x2="111.5455" y2="29.204"></linearGradient><linearGradient inkscape:collect="always" xlink:href="#SVGID_27_" id="linearGradient5252" gradientUnits="userSpaceOnUse" x1="23.471201" y1="30.732401" x2="27.9561" y2="30.732401"></linearGradient><linearGradient inkscape:collect="always" xlink:href="#SVGID_26_" id="linearGradient5258" gradientUnits="userSpaceOnUse" x1="21.2129" y1="71.326698" x2="117.1948" y2="51.952599"></linearGradient><linearGradient inkscape:collect="always" xlink:href="#SVGID_25_" id="linearGradient5261" gradientUnits="userSpaceOnUse" gradientTransform="matrix(1,0,0,-1,192.3999,143.0996)" x1="-176.1851" y1="78.4795" x2="-52.131699" y2="92.223099"></linearGradient><linearGradient inkscape:collect="always" xlink:href="#SVGID_24_" id="linearGradient5264" gradientUnits="userSpaceOnUse" gradientTransform="matrix(1,0,0,-1,192.3999,143.0996)" x1="-175.7173" y1="78.449203" x2="-67.153198" y2="90.476799"></linearGradient><linearGradient inkscape:collect="always" xlink:href="#SVGID_23_" id="linearGradient5267" gradientUnits="userSpaceOnUse" gradientTransform="matrix(1,0,0,-1,192.3999,143.0996)" x1="-172.3853" y1="78.209" x2="-172.3853" y2="78.209"></linearGradient><linearGradient inkscape:collect="always" xlink:href="#SVGID_22_" id="linearGradient5275" gradientUnits="userSpaceOnUse" gradientTransform="matrix(1,0,0,-1,192.3999,143.0996)" x1="-175.14211" y1="104.0801" x2="-83.541" y2="104.0801"></linearGradient><linearGradient inkscape:collect="always" xlink:href="#SVGID_21_" id="linearGradient5278" gradientUnits="userSpaceOnUse" gradientTransform="matrix(1,0,0,-1,192.3999,143.0996)" x1="-175.4424" y1="83.6045" x2="-75.6362" y2="83.6045"></linearGradient><linearGradient inkscape:collect="always" xlink:href="#SVGID_18_" id="linearGradient5317" gradientUnits="userSpaceOnUse" gradientTransform="matrix(1,0,0,-1,192.3999,143.0996)" x1="-115.3716" y1="119.1758" x2="-134.7878" y2="24.695299"></linearGradient><linearGradient inkscape:collect="always" xlink:href="#SVGID_17_" id="linearGradient5320" gradientUnits="userSpaceOnUse" gradientTransform="matrix(1,0,0,-1,192.3999,143.0996)" x1="-118.4946" y1="124.0039" x2="-138.85201" y2="24.9438"></linearGradient><linearGradient inkscape:collect="always" xlink:href="#SVGID_16_" id="linearGradient5323" gradientUnits="userSpaceOnUse" gradientTransform="matrix(1,0,0,-1,192.3999,143.0996)" x1="-127.4014" y1="121.9365" x2="-146.8837" y2="27.1346"></linearGradient><linearGradient inkscape:collect="always" xlink:href="#SVGID_15_" id="linearGradient5326" gradientUnits="userSpaceOnUse" gradientTransform="matrix(1,0,0,-1,192.3999,143.0996)" x1="-135.58591" y1="123.3525" x2="-155.006" y2="28.8524"></linearGradient><linearGradient inkscape:collect="always" xlink:href="#SVGID_14_" id="linearGradient5329" gradientUnits="userSpaceOnUse" gradientTransform="matrix(1,0,0,-1,192.3999,143.0996)" x1="-121.1382" y1="120.3223" x2="-140.54491" y2="25.888"></linearGradient><linearGradient inkscape:collect="always" xlink:href="#SVGID_13_" id="linearGradient5334" gradientUnits="userSpaceOnUse" gradientTransform="matrix(1,0,0,-1,192.3999,143.0996)" x1="-130.1348" y1="35.625" x2="-130.14281" y2="35.585701"></linearGradient><linearGradient inkscape:collect="always" xlink:href="#SVGID_12_" id="linearGradient5337" gradientUnits="userSpaceOnUse" gradientTransform="matrix(1,0,0,-1,192.3999,143.0996)" x1="-152.6201" y1="126.8398" x2="-171.9462" y2="32.797901"></linearGradient><linearGradient inkscape:collect="always" xlink:href="#SVGID_11_" id="linearGradient5340" gradientUnits="userSpaceOnUse" x1="32.519001" y1="33.077099" x2="37.2481" y2="92.496101"></linearGradient><linearGradient inkscape:collect="always" xlink:href="#SVGID_10_" id="linearGradient5343" gradientUnits="userSpaceOnUse" gradientTransform="matrix(1,0,0,-1,192.3999,143.0996)" x1="-115.3369" y1="119.6328" x2="-134.85719" y2="24.6462"></linearGradient><linearGradient inkscape:collect="always" xlink:href="#SVGID_9_" id="linearGradient5354" gradientUnits="userSpaceOnUse" x1="54.653301" y1="25.2764" x2="79.683601" y2="106.3903"></linearGradient><linearGradient inkscape:collect="always" xlink:href="#SVGID_8_" id="linearGradient5357" gradientUnits="userSpaceOnUse" gradientTransform="matrix(1,0,0,-1,192.3999,143.0996)" x1="-117.166" y1="122.1328" x2="-87.569702" y2="31.998501"></linearGradient><linearGradient inkscape:collect="always" xlink:href="#SVGID_7_" id="linearGradient5360" gradientUnits="userSpaceOnUse" x1="70.421898" y1="26.876499" x2="119.5471" y2="87.626701"></linearGradient><linearGradient inkscape:collect="always" xlink:href="#SVGID_6_" id="linearGradient5363" gradientUnits="userSpaceOnUse" gradientTransform="matrix(1,0,0,-1,192.3999,143.0996)" x1="-123.5898" y1="119.8076" x2="-94.069099" y2="29.9035"></linearGradient><linearGradient inkscape:collect="always" xlink:href="#SVGID_5_" id="linearGradient5379" gradientUnits="userSpaceOnUse" x1="54.715801" y1="65.136703" x2="83.798798" y2="65.136703"></linearGradient><linearGradient inkscape:collect="always" xlink:href="#SVGID_2_" id="linearGradient5391" gradientUnits="userSpaceOnUse" x1="66.232399" y1="24.481001" x2="112.7331" y2="97.232101"></linearGradient><radialGradient inkscape:collect="always" xlink:href="#SVGID_1_" id="radialGradient5395" gradientUnits="userSpaceOnUse" gradientTransform="matrix(1,0,0,-1,192.3999,143.0996)" cx="-145.4702" cy="87.823196" r="68.686401"></radialGradient>
	
	
<inkscape:perspective id="perspective10537" inkscape:persp3d-origin="0.5 : 0.33333333 : 1" inkscape:vp_z="1 : 0.5 : 1" inkscape:vp_y="0 : 1000 : 0" inkscape:vp_x="0 : 0.5 : 1" sodipodi:type="inkscape:persp3d"></inkscape:perspective>
		
		
		
		
		
		
		
		
		
		
		
	</defs><sodipodi:namedview pagecolor="#ffffff" bordercolor="#666666" borderopacity="1" objecttolerance="10" gridtolerance="10" guidetolerance="10" inkscape:pageopacity="0" inkscape:pageshadow="2" inkscape:window-width="819" inkscape:window-height="730" id="namedview4848" showgrid="false" inkscape:zoom="2.8284272" inkscape:cx="75.593524" inkscape:cy="46.316332" inkscape:window-x="452" inkscape:window-y="38" inkscape:window-maximized="0" inkscape:current-layer="svg3857" showguides="true" inkscape:guide-bbox="true"><sodipodi:guide orientation="0,1" position="0,140" id="globe_top"></sodipodi:guide><sodipodi:guide orientation="1,0" position="16,0" id="globe_left"></sodipodi:guide><sodipodi:guide orientation="1,0" position="119,0" id="globe_right"></sodipodi:guide><sodipodi:guide id="globe_bottom" position="0,47" orientation="0,1"></sodipodi:guide><sodipodi:guide orientation="0,1" position="8,40" id="wordmark_top"></sodipodi:guide><sodipodi:guide orientation="0,1" position="8,22.5" id="wordmark_bottom"></sodipodi:guide><sodipodi:guide orientation="0,1" position="0,17" id="subtitle_top"></sodipodi:guide><sodipodi:guide orientation="0,1" position="0,8" id="subtitle_bottom"></sodipodi:guide><sodipodi:guide orientation="1,0" position="8,40" id="wordmark_left"></sodipodi:guide><sodipodi:guide orientation="1,0" position="127,40" id="wordmark_right"></sodipodi:guide></sodipodi:namedview><path d="M 18.757,118.893 C 18.757,118.893 18.39,118.147 18.265,117.899 C 17.431,116.246 17.449,116.158 16.606,116.047 C 16.37,116.016 16.248,115.986 16.248,115.869 L 16.248,115.346 L 16.319,115.295 C 17.842,115.293 21.231,115.293 21.231,115.293 L 21.361,115.336 L 21.361,115.857 C 21.361,115.976 21.276,116.037 21.103,116.037 L 20.747,116.088 C 19.847,116.158 19.994,116.526 20.592,117.717 L 26.269,129.332 L 26.463,129.385 L 31.503,117.424 C 31.678,116.942 31.651,116.6 31.426,116.399 C 31.2,116.203 31.041,116.087 30.457,116.063 L 29.984,116.039 C 29.926,116.039 29.871,116.018 29.818,115.979 C 29.766,115.942 29.739,115.893 29.739,115.834 L 29.739,115.336 L 29.811,115.285 C 31.231,115.285 35.505,115.285 35.505,115.285 L 35.563,115.336 L 35.563,115.834 C 35.563,115.969 35.486,116.037 35.334,116.037 C 34.588,116.07 34.035,116.232 33.677,116.521 C 33.318,116.812 33.038,117.213 32.837,117.734 C 32.837,117.734 28.202,128.343 26.616,131.869 C 26.009,133.025 25.412,132.919 24.887,131.836 C 23.778,129.552 20.655,122.623 20.655,122.623 L 18.757,118.893 L 18.757,118.893 z" id="path3898"></path><path d="M 27.853,115.287 C 27.853,115.287 24.65,115.277 23.224,115.287 L 23.153,115.338 L 23.153,115.834 C 23.153,115.895 23.179,115.943 23.231,115.98 C 23.284,116.019 23.338,116.039 23.396,116.039 L 23.625,116.064 C 24.208,116.088 24.476,116.241 24.556,116.337 C 24.695,116.507 24.764,116.691 24.427,117.426 L 18.447,129.353 L 18.29,129.312 C 18.29,129.312 14.007,120.281 12.767,117.26 C 12.638,116.947 12.58,116.715 12.58,116.572 C 12.58,116.265 12.857,116.099 13.411,116.076 L 14.057,116.049 C 14.228,116.049 14.315,115.983 14.315,115.846 L 14.315,115.35 L 14.257,115.299 C 14.257,115.299 9.127,115.293 8.067,115.299 L 8.009,115.35 L 8.009,115.871 C 8.009,115.965 8.128,116.023 8.367,116.049 C 9.018,116.084 9.446,116.188 9.652,116.361 C 9.857,116.536 10.074,116.978 10.362,117.667 C 11.919,121.407 15.227,128.081 16.838,131.882 C 17.302,132.92 17.885,133.081 18.593,131.85 C 19.819,129.576 23.143,122.632 23.143,122.632 L 25.761,117.736 C 26.066,117.219 26.36,116.758 26.509,116.543 C 26.782,116.15 26.935,116.076 27.681,116.041 C 27.833,116.041 27.91,115.973 27.91,115.836 L 27.91,115.34 L 27.853,115.287 L 27.853,115.287 z" id="path3900"></path><path d="M 21.535,126.689 C 21.515,126.755 21.723,126.982 21.788,127.002 L 21.943,126.904 C 22.007,126.924 22.146,126.863 22.166,126.799 L 22.193,126.535 L 21.914,125.231 C 21.863,125.164 21.824,125.213 21.807,125.274 L 21.535,126.689 L 21.535,126.689 z" id="path3902" style="fill:#ffffff"></path><path d="M 113.922,131.758 L 114.676,131.811 C 114.78,131.811 114.884,131.889 114.884,132.018 L 114.884,132.512 L 114.832,132.565 C 114.832,132.565 111.998,132.512 111.374,132.512 C 110.697,132.512 109.033,132.565 109.033,132.565 L 108.98,132.512 L 108.98,132.018 C 108.98,131.889 109.058,131.811 109.189,131.811 C 110.334,131.733 110.982,131.524 111.71,129.86 L 117.481,116.339 C 117.766,115.663 117.975,115.402 118.366,115.402 C 118.729,115.402 118.86,115.663 119.067,116.183 L 124.397,130.275 C 124.762,131.29 125.282,131.679 126.322,131.783 L 126.608,131.808 C 126.738,131.808 126.868,131.886 126.868,132.017 L 126.868,132.51 L 126.79,132.562 C 126.79,132.562 124.788,132.51 123.774,132.51 C 122.864,132.51 120.315,132.562 120.315,132.562 L 120.29,132.51 L 120.29,132.017 C 120.29,131.886 120.342,131.808 120.474,131.808 L 121.202,131.756 C 122.189,131.679 122.555,131.365 122.294,130.638 L 120.708,126.243 L 115.3,126.243 C 114.676,126.243 114.52,126.347 114.391,126.684 L 112.882,130.455 C 112.622,131.107 112.96,131.68 113.922,131.758 L 113.922,131.758 z M 120.292,125.152 L 117.77,118.211 L 117.718,118.211 L 115.118,124.815 C 115.014,125.076 115.195,125.153 115.767,125.153 L 120.292,125.153 L 120.292,125.152 z" id="path3918"></path><path transform="matrix(2.0096099,0,0,1.8577173,-11.211056,-191.08813)" d="M 23.472475,172.93498 L 23.472475,168.92503 C 23.464974,168.52588 23.522473,168.27421 23.644973,168.17004 C 23.767469,168.06588 23.999966,168.01422 24.342464,168.01504 C 24.372461,167.9788 24.387461,167.9238 24.387463,167.85005 C 24.387461,167.7763 24.372461,167.7213 24.342464,167.68505 C 24.105798,167.69026 23.891634,167.69485 23.699972,167.6988 C 23.508306,167.70276 23.289143,167.70485 23.042481,167.70505 C 22.801233,167.70485 22.586236,167.70276 22.397489,167.6988 C 22.208741,167.69485 21.993744,167.69026 21.752498,167.68505 C 21.722498,167.7213 21.707498,167.7763 21.707498,167.85005 C 21.707498,167.9238 21.722498,167.9788 21.752498,168.01504 C 22.094993,168.01422 22.327489,168.06588 22.449989,168.17004 C 22.572486,168.27421 22.629985,168.52588 22.622486,168.92503 L 22.622486,172.93498 C 22.629985,173.33414 22.572486,173.58581 22.449988,173.68997 C 22.327489,173.79414 22.094992,173.8458 21.752498,173.84497 C 21.722498,173.88122 21.707498,173.93622 21.707498,174.00997 C 21.707498,174.08372 21.722498,174.13872 21.752498,174.17497 C 21.989161,174.16976 22.203324,174.16517 22.394989,174.16122 C 22.586652,174.15726 22.805816,174.15517 23.052481,174.15497 C 23.293726,174.15517 23.508723,174.15726 23.697472,174.16122 C 23.886218,174.16517 24.101215,174.16976 24.342464,174.17497 C 24.372461,174.13872 24.387461,174.08372 24.387463,174.00997 C 24.387461,173.93622 24.372461,173.88122 24.342464,173.84497 C 23.999966,173.8458 23.767469,173.79414 23.644973,173.68997 C 23.522473,173.58581 23.464973,173.33414 23.472475,172.93498 L 23.472475,172.93498 z M 26.441225,172.93498 L 26.441225,171.06601 C 26.609055,171.07011 26.759386,171.1024 26.89222,171.16288 C 27.025049,171.22336 27.14138,171.3174 27.241215,171.445 L 28.871194,173.42498 C 28.966584,173.54822 29.024792,173.67072 29.045817,173.79247 C 29.066833,173.91422 29.075291,174.02172 29.071192,174.11497 C 29.07077,174.13059 29.074104,174.14434 29.081191,174.15622 C 29.08827,174.16809 29.101603,174.17434 29.121191,174.17497 C 29.217852,174.16976 29.317017,174.16517 29.418687,174.16122 C 29.520347,174.15726 29.644512,174.15517 29.791182,174.15497 C 29.974508,174.15517 30.132839,174.15726 30.266176,174.16122 C 30.399502,174.16517 30.577833,174.16976 30.801169,174.17497 C 30.831162,174.13872 30.846162,174.08372 30.846169,174.00997 C 30.846162,173.93622 30.831163,173.88122 30.801169,173.84497 C 30.707185,173.84209 30.580145,173.82085 30.420049,173.78122 C 30.259941,173.7416 30.093652,173.62285 29.921181,173.42498 L 27.731209,170.82501 C 27.686831,170.77585 27.655582,170.73168 27.63746,170.69251 C 27.619332,170.65335 27.610582,170.61418 27.61121,170.57501 C 27.606186,170.54604 27.626978,170.49975 27.673584,170.43614 C 27.720185,170.37254 27.822725,170.2555 27.981206,170.08502 L 29.381188,168.57504 C 29.611596,168.34046 29.83576,168.19213 30.053679,168.13004 C 30.271587,168.06797 30.480751,168.02963 30.681171,168.01504 C 30.711164,167.9788 30.726164,167.9238 30.72617,167.85005 C 30.726164,167.7763 30.711164,167.7213 30.681171,167.68505 C 30.460959,167.69026 30.293878,167.69485 30.179927,167.6988 C 30.065965,167.70276 29.916384,167.70485 29.731183,167.70505 C 29.538472,167.70485 29.358891,167.70276 29.19244,167.6988 C 29.025979,167.69485 28.828899,167.69026 28.601198,167.68505 C 28.571194,167.7213 28.556194,167.7763 28.556198,167.85005 C 28.556194,167.9238 28.571194,167.9788 28.601198,168.01504 C 28.800858,168.01822 28.952772,168.04238 29.056942,168.08754 C 29.161103,168.13272 29.10252,168.28188 28.881194,168.53504 L 27.201216,170.29502 C 27.103485,170.40114 26.995445,170.48814 26.877095,170.55601 C 26.75874,170.62389 26.61345,170.66589 26.441225,170.68201 L 26.441225,168.92503 C 26.433724,168.52588 26.491223,168.27421 26.613723,168.17004 C 26.736219,168.06588 26.968716,168.01422 27.311214,168.01504 C 27.341211,167.9788 27.356211,167.9238 27.356213,167.85005 C 27.356211,167.7763 27.341211,167.7213 27.311214,167.68505 C 27.074548,167.69026 26.860384,167.69485 26.668722,167.6988 C 26.477056,167.70276 26.257893,167.70485 26.011231,167.70505 C 25.769983,167.70485 25.554986,167.70276 25.366239,167.6988 C 25.177491,167.69485 24.962494,167.69026 24.721248,167.68505 C 24.691248,167.7213 24.676248,167.7763 24.676248,167.85005 C 24.676248,167.9238 24.691248,167.9788 24.721248,168.01504 C 25.063743,168.01422 25.296239,168.06588 25.418739,168.17004 C 25.541236,168.27421 25.598735,168.52588 25.591236,168.92503 L 25.591236,172.93498 C 25.598735,173.33414 25.541236,173.58581 25.418738,173.68997 C 25.296239,173.79414 25.063742,173.8458 24.721248,173.84497 C 24.691248,173.88122 24.676248,173.93622 24.676248,174.00997 C 24.676248,174.08372 24.691248,174.13872 24.721248,174.17497 C 24.957911,174.16976 25.172074,174.16517 25.363739,174.16122 C 25.555402,174.15726 25.774566,174.15517 26.021231,174.15497 C 26.262476,174.15517 26.477473,174.15726 26.666222,174.16122 C 26.854968,174.16517 27.069965,174.16976 27.311214,174.17497 C 27.341211,174.13872 27.356211,174.08372 27.356213,174.00997 C 27.356211,173.93622 27.341211,173.88122 27.311214,173.84497 C 26.968716,173.8458 26.736219,173.79414 26.613723,173.68997 C 26.491223,173.58581 26.433723,173.33414 26.441225,172.93498 L 26.441225,172.93498 z M 32.808413,172.93498 L 32.808413,168.92503 C 32.800911,168.52588 32.85841,168.27421 32.980911,168.17004 C 33.103407,168.06588 33.335904,168.01422 33.678402,168.01504 C 33.708398,167.9788 33.723398,167.9238 33.723401,167.85005 C 33.723398,167.7763 33.708399,167.7213 33.678402,167.68505 C 33.441735,167.69026 33.227572,167.69485 33.03591,167.6988 C 32.844244,167.70276 32.62508,167.70485 32.378418,167.70505 C 32.13717,167.70485 31.922173,167.70276 31.733427,167.6988 C 31.544678,167.69485 31.329681,167.69026 31.088435,167.68505 C 31.058435,167.7213 31.043435,167.7763 31.043435,167.85005 C 31.043435,167.9238 31.058435,167.9788 31.088435,168.01504 C 31.43093,168.01422 31.663427,168.06588 31.785926,168.17004 C 31.908423,168.27421 31.965923,168.52588 31.958424,168.92503 L 31.958424,172.93498 C 31.965923,173.33414 31.908423,173.58581 31.785926,173.68997 C 31.663427,173.79414 31.43093,173.8458 31.088435,173.84497 C 31.058435,173.88122 31.043435,173.93622 31.043435,174.00997 C 31.043435,174.08372 31.058435,174.13872 31.088435,174.17497 C 31.325098,174.16976 31.539262,174.16517 31.730927,174.16122 C 31.92259,174.15726 32.141754,174.15517 32.388418,174.15497 C 32.629663,174.15517 32.84466,174.15726 33.03341,174.16122 C 33.222155,174.16517 33.437152,174.16976 33.678402,174.17497 C 33.708398,174.13872 33.723398,174.08372 33.723401,174.00997 C 33.723398,173.93622 33.708399,173.88122 33.678402,173.84497 C 33.335904,173.8458 33.103407,173.79414 32.980911,173.68997 C 32.85841,173.58581 32.800911,173.33414 32.808413,172.93498 L 32.808413,172.93498 z M 35.757163,168.61504 C 35.748411,168.4615 35.803411,168.31859 35.922161,168.18629 C 36.040907,168.05401 36.275904,167.98359 36.627152,167.97505 C 36.986519,167.95818 37.302765,168.04943 37.57589,168.24879 C 37.849007,168.44817 37.992755,168.85691 38.007134,169.47503 C 38.005672,170.01086 37.87859,170.39918 37.625889,170.64001 C 37.37318,170.88084 37.003602,170.99918 36.517153,170.99501 C 36.382986,170.9948 36.238821,170.99022 36.084659,170.98126 C 35.930492,170.9723 35.821327,170.96022 35.757163,170.94501 L 35.757163,168.61504 z M 34.907174,168.92503 L 34.907174,172.93498 C 34.914673,173.33414 34.857174,173.58581 34.734676,173.68997 C 34.612177,173.79414 34.37968,173.8458 34.037185,173.84497 C 34.007185,173.88122 33.992186,173.93622 33.992186,174.00997 C 33.992186,174.08372 34.007186,174.13872 34.037185,174.17497 C 34.273848,174.16976 34.488012,174.16517 34.679677,174.16122 C 34.87134,174.15726 35.090504,174.15517 35.337169,174.15497 C 35.610913,174.15517 35.85841,174.15726 36.079659,174.16122 C 36.300904,174.16517 36.533401,174.16976 36.77715,174.17497 C 36.807147,174.13872 36.822146,174.08372 36.822149,174.00997 C 36.822146,173.93622 36.807147,173.88122 36.77715,173.84497 C 36.393402,173.84143 36.125906,173.78851 35.97466,173.68622 C 35.82341,173.58393 35.750911,173.33352 35.757163,172.93498 L 35.757163,171.235 C 35.865285,171.2698 35.984033,171.29521 36.113409,171.31125 C 36.24278,171.3273 36.394028,171.33521 36.567153,171.335 C 37.462138,171.30313 38.084629,171.06938 38.434629,170.63376 C 38.784619,170.19815 38.952117,169.7519 38.937122,169.29503 C 38.959408,168.96775 38.817327,168.61733 38.510878,168.24379 C 38.204419,167.87026 37.599844,167.66735 36.697151,167.63505 C 36.551317,167.63797 36.340486,167.64964 36.064659,167.67005 C 35.788827,167.69047 35.542997,167.70214 35.327169,167.70505 C 35.08592,167.70485 34.870923,167.70276 34.682177,167.6988 C 34.493429,167.69485 34.278432,167.69026 34.037185,167.68505 C 34.007185,167.7213 33.992186,167.7763 33.992186,167.85005 C 33.992186,167.9238 34.007186,167.9788 34.037185,168.01504 C 34.37968,168.01422 34.612177,168.06588 34.734676,168.17004 C 34.857174,168.27421 34.914673,168.52588 34.907174,168.92503 L 34.907174,168.92503 z M 41.909652,170.54501 L 40.999664,170.54501 L 40.999664,168.54504 C 40.999662,168.42171 41.029662,168.31838 41.089663,168.23504 C 41.14966,168.15172 41.239659,168.10838 41.359659,168.10504 L 42.409646,168.10504 C 42.771096,168.10734 43.025676,168.20276 43.173386,168.39129 C 43.321088,168.57983 43.44317,168.84775 43.539631,169.19503 C 43.662625,169.21087 43.772624,169.1942 43.869627,169.14503 C 43.839831,168.91025 43.799415,168.62733 43.748378,168.29629 C 43.697333,167.96526 43.664417,167.76485 43.64963,167.69505 C 43.651292,167.67506 43.637959,167.66506 43.60963,167.66505 C 43.529836,167.67985 43.45692,167.69026 43.390883,167.6963 C 43.324838,167.70235 43.234423,167.70526 43.119637,167.70505 L 40.56967,167.70505 C 40.547168,167.70485 40.394671,167.70276 40.112175,167.6988 C 39.829679,167.69485 39.552182,167.69026 39.279686,167.68505 C 39.249686,167.7213 39.234686,167.7763 39.234687,167.85005 C 39.234687,167.9238 39.249687,167.9788 39.279686,168.01504 C 39.622181,168.01422 39.854678,168.06588 39.977177,168.17004 C 40.099675,168.27421 40.157174,168.52588 40.149675,168.92503 L 40.149675,172.93498 C 40.157174,173.33414 40.099675,173.58581 39.977177,173.68997 C 39.854678,173.79414 39.622181,173.8458 39.279686,173.84497 C 39.249686,173.88122 39.234686,173.93622 39.234687,174.00997 C 39.234687,174.08372 39.249687,174.13872 39.279686,174.17497 C 39.548224,174.16976 39.826137,174.16517 40.113425,174.16122 C 40.400712,174.15726 40.556127,174.15517 40.579669,174.15497 L 42.729642,174.15497 C 42.992968,174.1558 43.266297,174.15913 43.549631,174.16497 C 43.832956,174.1708 43.986287,174.17413 44.009625,174.17497 C 44.081286,173.91851 44.150452,173.64143 44.217123,173.34373 C 44.283783,173.04602 44.337949,172.76644 44.379621,172.50499 C 44.27645,172.44282 44.159785,172.42616 44.029625,172.45499 C 43.935038,172.82457 43.786707,173.1329 43.584631,173.37998 C 43.382546,173.62706 43.094216,173.75539 42.719642,173.76497 L 41.359659,173.76497 C 41.248409,173.76393 41.16091,173.72601 41.097163,173.65122 C 41.033411,173.57643 41.000912,173.47102 40.999664,173.33498 L 40.999664,170.92501 L 41.909652,170.92501 C 42.317561,170.92522 42.571724,170.9823 42.672142,171.09626 C 42.772554,171.21021 42.82172,171.3798 42.819641,171.605 C 42.855886,171.635 42.910886,171.65 42.984638,171.65 C 43.058384,171.65 43.113383,171.635 43.149636,171.605 C 43.144424,171.43646 43.139841,171.28855 43.135886,171.16125 C 43.131924,171.03397 43.129841,170.88855 43.129637,170.72501 C 43.129841,170.55918 43.131924,170.41085 43.135887,170.28002 C 43.139841,170.14919 43.144424,170.01086 43.149636,169.86502 C 43.113383,169.83503 43.058384,169.82003 42.984638,169.82002 C 42.910886,169.82003 42.855886,169.83503 42.819641,169.86502 C 42.82172,170.13398 42.772554,170.31606 42.672142,170.41126 C 42.571724,170.50647 42.317561,170.55106 41.909652,170.54501 L 41.909652,170.54501 z M 46.577944,173.32498 L 46.577944,168.51504 C 46.582317,168.3415 46.661066,168.21609 46.814191,168.13879 C 46.967312,168.06151 47.168559,168.02359 47.417933,168.02504 C 48.133353,168.03715 48.70137,168.20739 49.121986,168.53578 C 49.542593,168.86417 49.843206,169.27812 50.023826,169.77761 C 50.204435,170.27712 50.292458,170.78958 50.287896,171.315 C 50.266849,172.30374 50.006436,172.97623 49.506656,173.33248 C 49.006867,173.68872 48.393958,173.85622 47.66793,173.83497 C 47.193767,173.83372 46.889604,173.78872 46.755442,173.69997 C 46.621275,173.61122 46.562109,173.48622 46.577944,173.32498 L 46.577944,173.32498 z M 46.14795,167.70505 C 45.906701,167.70485 45.691704,167.70276 45.502958,167.6988 C 45.31421,167.69485 45.099213,167.69026 44.857966,167.68505 C 44.827966,167.7213 44.812966,167.7763 44.812967,167.85005 C 44.812967,167.9238 44.827967,167.9788 44.857966,168.01504 C 45.200461,168.01422 45.432958,168.06588 45.555457,168.17004 C 45.677955,168.27421 45.735454,168.52588 45.727955,168.92503 L 45.727955,172.93498 C 45.735454,173.33414 45.677955,173.58581 45.555457,173.68997 C 45.432958,173.79414 45.200461,173.8458 44.857966,173.84497 C 44.827966,173.88122 44.812966,173.93622 44.812967,174.00997 C 44.812967,174.08372 44.827967,174.13872 44.857966,174.17497 C 45.094629,174.16976 45.308793,174.16517 45.500458,174.16122 C 45.692121,174.15726 45.911285,174.15517 46.15795,174.15497 C 46.331279,174.1558 46.552109,174.15913 46.820441,174.16497 C 47.088768,174.1708 47.474596,174.17413 47.977926,174.17497 C 48.462175,174.18225 48.95365,174.09657 49.452351,173.91793 C 49.951043,173.73929 50.371408,173.42399 50.713446,172.97202 C 51.055472,172.52005 51.233618,171.88771 51.247884,171.07501 C 51.224128,170.12002 50.889132,169.32253 50.242897,168.68254 C 49.59665,168.04255 48.781661,167.71005 47.797928,167.68505 C 47.473555,167.68589 47.167309,167.68922 46.87919,167.69505 C 46.591067,167.70089 46.347321,167.70422 46.14795,167.70505 L 46.14795,167.70505 z M 53.589663,172.93498 L 53.589663,168.92503 C 53.582161,168.52588 53.63966,168.27421 53.762161,168.17004 C 53.884657,168.06588 54.117154,168.01422 54.459652,168.01504 C 54.489648,167.9788 54.504648,167.9238 54.504651,167.85005 C 54.504648,167.7763 54.489649,167.7213 54.459652,167.68505 C 54.222985,167.69026 54.008822,167.69485 53.81716,167.6988 C 53.625494,167.70276 53.40633,167.70485 53.159668,167.70505 C 52.91842,167.70485 52.703423,167.70276 52.514677,167.6988 C 52.325928,167.69485 52.110931,167.69026 51.869685,167.68505 C 51.839685,167.7213 51.824685,167.7763 51.824685,167.85005 C 51.824685,167.9238 51.839685,167.9788 51.869685,168.01504 C 52.21218,168.01422 52.444677,168.06588 52.567176,168.17004 C 52.689673,168.27421 52.747173,168.52588 52.739674,168.92503 L 52.739674,172.93498 C 52.747173,173.33414 52.689673,173.58581 52.567176,173.68997 C 52.444677,173.79414 52.21218,173.8458 51.869685,173.84497 C 51.839685,173.88122 51.824685,173.93622 51.824685,174.00997 C 51.824685,174.08372 51.839685,174.13872 51.869685,174.17497 C 52.106348,174.16976 52.320512,174.16517 52.512177,174.16122 C 52.70384,174.15726 52.923004,174.15517 53.169668,174.15497 C 53.410913,174.15517 53.62591,174.15726 53.81466,174.16122 C 54.003405,174.16517 54.218402,174.16976 54.459652,174.17497 C 54.489648,174.13872 54.504648,174.08372 54.504651,174.00997 C 54.504648,173.93622 54.489649,173.88122 54.459652,173.84497 C 54.117154,173.8458 53.884657,173.79414 53.762161,173.68997 C 53.63966,173.58581 53.582161,173.33414 53.589663,172.93498 L 53.589663,172.93498 z M 58.018394,172.93498 L 58.018394,171.478 C 58.013058,171.29907 58.016974,171.18444 58.030144,171.13413 C 58.043307,171.08382 58.097723,170.97745 58.193392,170.81501 L 59.470375,168.50504 C 59.601098,168.26551 59.724888,168.12584 59.841745,168.08604 C 59.958593,168.04626 60.124132,168.02259 60.338364,168.01504 C 60.368358,167.97922 60.383358,167.92589 60.383364,167.85505 C 60.383358,167.78422 60.368358,167.73089 60.338364,167.69505 C 60.186902,167.69985 60.039821,167.70276 59.89712,167.7038 C 59.754408,167.70485 59.624827,167.70526 59.508375,167.70505 C 59.39483,167.70526 59.264415,167.70485 59.11713,167.7038 C 58.969836,167.70276 58.796921,167.69985 58.598387,167.69505 C 58.568383,167.73089 58.553383,167.78422 58.553387,167.85505 C 58.553383,167.92589 58.568383,167.97922 58.598387,168.01504 C 58.825713,168.0177 58.987294,168.03215 59.08313,168.05842 C 59.178958,168.0847 59.174041,168.1969 59.068381,168.39504 L 57.878396,170.63501 C 57.835435,170.71855 57.798852,170.75647 57.768647,170.74876 C 57.738436,170.74105 57.702353,170.69647 57.660399,170.61501 L 56.398415,168.39504 C 56.276706,168.19472 56.253123,168.08188 56.327666,168.05654 C 56.402205,168.03122 56.579119,168.01738 56.858409,168.01504 C 56.888406,167.9788 56.903406,167.9238 56.903408,167.85005 C 56.903406,167.7763 56.888406,167.7213 56.858409,167.68505 C 56.66091,167.69026 56.470912,167.69485 56.288416,167.6988 C 56.105917,167.70276 55.91592,167.70485 55.718424,167.70505 C 55.52405,167.70485 55.342803,167.70276 55.174681,167.6988 C 55.006557,167.69485 54.84781,167.69026 54.698437,167.68505 C 54.668854,167.7213 54.655521,167.7763 54.658437,167.85005 C 54.661354,167.9238 54.67802,167.9788 54.708437,168.01504 C 54.90585,168.01334 55.063765,168.04326 55.182181,168.10479 C 55.300595,168.16634 55.45501,168.35975 55.645425,168.68504 L 56.958408,170.89501 C 57.043717,171.02886 57.100591,171.13115 57.12903,171.20188 C 57.157465,171.27261 57.17059,171.39365 57.168405,171.565 L 57.168405,172.93498 C 57.177986,173.33414 57.11632,173.58581 56.983407,173.68997 C 56.85049,173.79414 56.588827,173.8458 56.198418,173.84497 C 56.168416,173.88122 56.153416,173.93622 56.153418,174.00997 C 56.153417,174.08372 56.168416,174.13872 56.198418,174.17497 C 56.436746,174.16976 56.662576,174.16517 56.875909,174.16122 C 57.089237,174.15726 57.330067,174.15517 57.5984,174.15497 C 57.86131,174.15517 58.097973,174.15726 58.30839,174.16122 C 58.5188,174.16517 58.745464,174.16976 58.988382,174.17497 C 59.018377,174.13872 59.033376,174.08372 59.033381,174.00997 C 59.033377,173.93622 59.018377,173.88122 58.988382,173.84497 C 58.597966,173.8458 58.336303,173.79414 58.203392,173.68997 C 58.070473,173.58581 58.008807,173.33414 58.018394,172.93498 L 58.018394,172.93498 z" id="flowRoot3049" style="font-size:10px;font-style:normal;font-variant:normal;font-weight:normal;font-stretch:normal;text-align:justify;line-height:100%;writing-mode:lr-tb;text-anchor:start;fill:#000000;fill-opacity:1;stroke:none;stroke-width:1px;stroke-linecap:butt;stroke-linejoin:miter;stroke-opacity:1;font-family:Linux Libertine O;-inkscape-font-specification:Linux Libertine O"></path><path transform="matrix(1.1502138,0,0,1.2981009,-18.086847,-74.422927)" d="M 25.354965,167.01376 L 24.444977,167.01376 L 24.444977,165.01379 C 24.444975,164.89046 24.474974,164.78713 24.534975,164.70379 C 24.594973,164.62047 24.684971,164.57713 24.804972,164.57379 L 25.854958,164.57379 C 26.216409,164.57609 26.470988,164.67151 26.618699,164.86004 C 26.766401,165.04858 26.888482,165.3165 26.984944,165.66378 C 27.107938,165.67962 27.217936,165.66295 27.31494,165.61378 C 27.285144,165.379 27.244727,165.09608 27.193691,164.76504 C 27.142645,164.43401 27.109729,164.2336 27.094942,164.1638 C 27.096605,164.14381 27.083272,164.13381 27.054943,164.1338 C 26.975148,164.1486 26.902232,164.15901 26.836196,164.16505 C 26.770151,164.1711 26.679735,164.17401 26.564949,164.1738 L 24.014982,164.1738 C 23.992481,164.1736 23.839983,164.17151 23.557488,164.16755 C 23.274991,164.1636 22.997495,164.15901 22.724999,164.1538 C 22.694999,164.19005 22.679999,164.24505 22.679999,164.3188 C 22.679999,164.39255 22.694999,164.44755 22.724999,164.48379 C 23.067494,164.48297 23.299991,164.53463 23.42249,164.63879 C 23.544987,164.74296 23.602486,164.99463 23.594988,165.39378 L 23.594988,169.40373 C 23.602486,169.80289 23.544987,170.05456 23.42249,170.15872 C 23.29999,170.26289 23.067494,170.31455 22.724999,170.31372 C 22.694999,170.34997 22.679999,170.40497 22.679999,170.47872 C 22.679999,170.55247 22.694999,170.60747 22.724999,170.64372 C 22.993536,170.63851 23.271449,170.63392 23.558738,170.62997 C 23.846025,170.62601 24.001439,170.62392 24.024982,170.62372 L 26.174954,170.62372 C 26.43828,170.62455 26.71161,170.62788 26.994944,170.63372 C 27.278269,170.63955 27.4316,170.64288 27.454938,170.64372 C 27.526599,170.38726 27.595764,170.11018 27.662435,169.81248 C 27.729096,169.51477 27.783262,169.23519 27.824933,168.97374 C 27.721763,168.91157 27.605098,168.89491 27.474938,168.92374 C 27.380351,169.29332 27.232019,169.60165 27.029943,169.84873 C 26.827858,170.09581 26.539529,170.22414 26.164954,170.23372 L 24.804972,170.23372 C 24.693721,170.23268 24.606222,170.19476 24.542475,170.11997 C 24.478724,170.04518 24.446224,169.93977 24.444977,169.80373 L 24.444977,167.39376 L 25.354965,167.39376 C 25.762873,167.39397 26.017036,167.45105 26.117455,167.56501 C 26.217867,167.67896 26.267033,167.84855 26.264953,168.07375 C 26.301199,168.10375 26.356198,168.11875 26.429951,168.11875 C 26.503696,168.11875 26.558695,168.10375 26.594949,168.07375 C 26.589736,167.90521 26.585153,167.7573 26.581199,167.63 C 26.577237,167.50272 26.575153,167.3573 26.574949,167.19376 C 26.575154,167.02793 26.577237,166.8796 26.581199,166.74877 C 26.585154,166.61794 26.589737,166.47961 26.594949,166.33377 C 26.558695,166.30378 26.503696,166.28878 26.429951,166.28877 C 26.356198,166.28878 26.301199,166.30378 26.264953,166.33377 C 26.267033,166.60273 26.217867,166.78481 26.117455,166.88001 C 26.017036,166.97522 25.762873,167.01981 25.354965,167.01376 L 25.354965,167.01376 z M 29.953258,167.04376 C 29.935964,167.07002 29.915548,167.09251 29.892008,167.11126 C 29.868465,167.13001 29.855549,167.10751 29.853259,167.04376 C 29.85534,166.88085 29.863673,166.71669 29.878258,166.55127 C 29.89284,166.38586 29.901173,166.29669 29.903258,166.28377 C 29.903256,166.23211 29.863257,166.20544 29.78326,166.20377 C 29.646385,166.25836 29.467638,166.30919 29.247017,166.35627 C 29.026393,166.40336 28.745147,166.44919 28.403278,166.49377 C 28.394111,166.52794 28.392444,166.57461 28.398277,166.63377 C 28.40411,166.69294 28.412444,166.7396 28.423277,166.77377 C 28.686607,166.78773 28.862438,166.83481 28.95077,166.91501 C 29.039102,166.99522 29.079935,167.17481 29.073269,167.45376 L 29.073269,169.40373 C 29.081601,169.79727 29.039935,170.04518 28.94827,170.14747 C 28.856604,170.24976 28.66494,170.30518 28.373278,170.31372 C 28.343278,170.34997 28.328278,170.40497 28.328278,170.47872 C 28.328278,170.55247 28.343278,170.60747 28.373278,170.64372 C 28.571608,170.63851 28.752439,170.63392 28.915771,170.62997 C 29.079101,170.62601 29.264932,170.62392 29.473264,170.62372 C 29.658885,170.62392 29.820133,170.62601 29.957007,170.62997 C 30.093879,170.63392 30.262626,170.63851 30.463251,170.64372 C 30.493248,170.60747 30.508248,170.55247 30.50825,170.47872 C 30.508248,170.40497 30.493248,170.34997 30.463251,170.31372 C 30.215127,170.30518 30.051379,170.24976 29.972007,170.14747 C 29.892631,170.04518 29.856382,169.79727 29.863259,169.40373 L 29.863259,167.76375 C 29.86534,167.66001 29.883673,167.57501 29.918258,167.50876 C 29.952839,167.44251 29.991172,167.38751 30.033257,167.34376 C 30.22346,167.15731 30.415541,167.01272 30.609499,166.91001 C 30.803452,166.80731 30.998033,166.75523 31.193242,166.75377 C 31.29532,166.75439 31.393652,166.78564 31.488238,166.84751 C 31.582816,166.90939 31.661149,166.99814 31.723235,167.11376 C 31.771981,167.2146 31.80448,167.33043 31.820734,167.46126 C 31.83698,167.59209 31.844479,167.73292 31.843233,167.88375 L 31.843233,169.40373 C 31.849896,169.79727 31.811563,170.04518 31.728235,170.14747 C 31.644899,170.24976 31.476568,170.30518 31.223241,170.31372 C 31.198238,170.34997 31.185739,170.40497 31.185742,170.47872 C 31.185739,170.55247 31.198239,170.60747 31.223241,170.64372 C 31.424485,170.63851 31.596983,170.63392 31.740735,170.62997 C 31.884479,170.62601 32.051977,170.62392 32.243228,170.62372 C 32.439888,170.62392 32.614052,170.62601 32.765721,170.62997 C 32.917381,170.63392 33.096545,170.63851 33.303214,170.64372 C 33.328209,170.60747 33.340709,170.55247 33.340714,170.47872 C 33.340709,170.40497 33.328209,170.34997 33.303214,170.31372 C 33.030296,170.30518 32.848632,170.24976 32.758221,170.14747 C 32.667801,170.04518 32.626135,169.79727 32.633223,169.40373 L 32.633223,167.91375 C 32.636344,167.63667 32.620094,167.38334 32.584474,167.15376 C 32.548845,166.92418 32.475096,166.73085 32.363227,166.57377 C 32.27614,166.46336 32.160308,166.37919 32.015731,166.32127 C 31.871146,166.26336 31.710315,166.23419 31.533237,166.23377 C 31.291154,166.22503 31.042824,166.27503 30.788247,166.38377 C 30.533664,166.49252 30.255335,166.71252 29.953258,167.04376 L 29.953258,167.04376 z M 37.444793,169.71373 C 37.424164,169.66915 37.395414,169.63581 37.358544,169.61373 C 37.321665,169.59165 37.280416,169.57831 37.234795,169.57373 C 37.062919,169.79373 36.874171,169.95872 36.668552,170.06872 C 36.462927,170.17872 36.25168,170.23372 36.034811,170.23372 C 35.659605,170.22726 35.345026,170.05518 35.091073,169.71748 C 34.837116,169.37977 34.705035,168.9152 34.694828,168.32375 C 34.701077,167.76917 34.808575,167.33834 35.017324,167.03126 C 35.226069,166.72419 35.498566,166.56836 35.834813,166.56377 C 36.120015,166.57106 36.307096,166.64398 36.396056,166.78252 C 36.48501,166.92106 36.534593,167.08147 36.544804,167.26376 C 36.561071,167.39689 36.602029,167.49063 36.667677,167.54501 C 36.733319,167.59938 36.819026,167.62563 36.924799,167.62375 C 37.037086,167.6248 37.145001,167.59022 37.248545,167.52001 C 37.352081,167.4498 37.407497,167.33772 37.414793,167.18376 C 37.411039,166.90356 37.276041,166.67648 37.009798,166.50252 C 36.743548,166.32857 36.368553,166.23898 35.884813,166.23377 C 35.366276,166.24128 34.900865,166.44877 34.48858,166.85626 C 34.076293,167.26376 33.85838,167.82625 33.834839,168.54374 C 33.838589,169.19894 34.011086,169.72352 34.352332,170.11747 C 34.693577,170.51143 35.18107,170.71351 35.814813,170.72371 C 36.113974,170.73288 36.398136,170.66705 36.667303,170.52622 C 36.936462,170.38539 37.195625,170.11456 37.444793,169.71373 L 37.444793,169.71373 z M 39.783098,172.2237 C 39.936261,171.94603 40.072926,171.65937 40.193093,171.36371 C 40.58546,170.41978 40.914706,169.63867 41.18083,169.02036 C 41.446948,168.40206 41.707694,167.82319 41.96307,167.28376 C 42.03494,167.1321 42.141188,166.99293 42.281816,166.86626 C 42.422435,166.7396 42.586182,166.66544 42.77306,166.64377 C 42.803054,166.60752 42.818054,166.55252 42.818059,166.47877 C 42.818054,166.40502 42.803054,166.35002 42.77306,166.31377 C 42.651598,166.31898 42.537016,166.32357 42.429314,166.32752 C 42.321602,166.33148 42.199521,166.33357 42.063069,166.33377 C 41.89515,166.33357 41.745985,166.33148 41.615574,166.32752 C 41.485156,166.32357 41.330991,166.31898 41.153081,166.31377 C 41.123077,166.35002 41.108078,166.40502 41.108081,166.47877 C 41.108078,166.55252 41.123078,166.60752 41.153081,166.64377 C 41.321137,166.65302 41.460261,166.68652 41.57045,166.74427 C 41.680632,166.80202 41.701507,166.91852 41.633074,167.09376 L 40.641087,169.38373 C 40.605814,169.46613 40.567856,169.50934 40.527213,169.51336 C 40.486565,169.51738 40.444858,169.47084 40.40209,169.37373 L 39.515102,167.29376 C 39.411705,167.08506 39.367248,166.92998 39.381728,166.82851 C 39.396205,166.72706 39.549995,166.66548 39.843097,166.64377 C 39.873094,166.60752 39.888094,166.55252 39.888096,166.47877 C 39.888094,166.40502 39.873095,166.35002 39.843097,166.31377 C 39.656639,166.31898 39.467058,166.32357 39.274354,166.32752 C 39.081647,166.33148 38.894566,166.33357 38.713112,166.33377 C 38.373115,166.33211 38.103119,166.32544 37.903122,166.31377 C 37.873122,166.35002 37.858122,166.40502 37.858123,166.47877 C 37.858123,166.55252 37.873122,166.60752 37.903122,166.64377 C 38.109619,166.65271 38.261367,166.70308 38.358366,166.79489 C 38.455364,166.88671 38.566613,167.08633 38.692112,167.39376 L 39.823097,170.02372 C 39.87324,170.13333 39.919948,170.28012 39.96322,170.46409 C 40.006488,170.64807 40.006447,170.81461 39.963096,170.96371 C 39.904157,171.12879 39.843032,171.28512 39.779723,171.43271 C 39.716409,171.58029 39.647535,171.73062 39.573101,171.8837 C 39.519766,171.98328 39.453933,172.05661 39.375603,172.1037 C 39.297269,172.15078 39.196437,172.17411 39.073107,172.1737 C 39.006648,172.17244 38.954566,172.16744 38.916859,172.1587 C 38.87915,172.14994 38.834567,172.14494 38.783111,172.1437 C 38.637903,172.15349 38.528321,172.2089 38.454365,172.30994 C 38.380407,172.41098 38.343324,172.4989 38.343116,172.57369 C 38.345824,172.68098 38.390407,172.76889 38.476865,172.83744 C 38.563321,172.90598 38.675403,172.94139 38.81311,172.94369 C 38.922899,172.95368 39.065814,172.91368 39.241855,172.82369 C 39.417892,172.73369 39.598307,172.53369 39.783098,172.2237 L 39.783098,172.2237 z M 46.878386,169.71373 C 46.857758,169.66915 46.829008,169.63581 46.792137,169.61373 C 46.755259,169.59165 46.71401,169.57831 46.668389,169.57373 C 46.496513,169.79373 46.307765,169.95872 46.102146,170.06872 C 45.896521,170.17872 45.685274,170.23372 45.468404,170.23372 C 45.093199,170.22726 44.778619,170.05518 44.524666,169.71748 C 44.27071,169.37977 44.138629,168.9152 44.128422,168.32375 C 44.13467,167.76917 44.242169,167.33834 44.450918,167.03126 C 44.659663,166.72419 44.932159,166.56836 45.268407,166.56377 C 45.553609,166.57106 45.74069,166.64398 45.82965,166.78252 C 45.918604,166.92106 45.968186,167.08147 45.978398,167.26376 C 45.994665,167.39689 46.035623,167.49063 46.101271,167.54501 C 46.166913,167.59938 46.25262,167.62563 46.358393,167.62375 C 46.470679,167.6248 46.578594,167.59022 46.682139,167.52001 C 46.785675,167.4498 46.841091,167.33772 46.848387,167.18376 C 46.844633,166.90356 46.709635,166.67648 46.443392,166.50252 C 46.177142,166.32857 45.802147,166.23898 45.318406,166.23377 C 44.799869,166.24128 44.334459,166.44877 43.922174,166.85626 C 43.509887,167.26376 43.291974,167.82625 43.268433,168.54374 C 43.272182,169.19894 43.44468,169.72352 43.785926,170.11747 C 44.127171,170.51143 44.614664,170.71351 45.248407,170.72371 C 45.547567,170.73288 45.83173,170.66705 46.100896,170.52622 C 46.370056,170.38539 46.629219,170.11456 46.878386,169.71373 L 46.878386,169.71373 z M 48.086707,169.40373 C 48.09483,169.80289 48.051081,170.05456 47.955458,170.15872 C 47.859833,170.26289 47.663586,170.31455 47.366716,170.31372 C 47.336716,170.34997 47.321716,170.40497 47.321716,170.47872 C 47.321716,170.55247 47.336716,170.60747 47.366716,170.64372 C 47.569629,170.63851 47.753793,170.63392 47.919209,170.62997 C 48.084622,170.62601 48.273786,170.62392 48.486701,170.62372 C 48.694197,170.62392 48.879194,170.62601 49.041694,170.62997 C 49.20419,170.63392 49.389187,170.63851 49.596687,170.64372 C 49.626684,170.60747 49.641684,170.55247 49.641686,170.47872 C 49.641684,170.40497 49.626684,170.34997 49.596687,170.31372 C 49.299814,170.31455 49.103566,170.26289 49.007945,170.15872 C 48.912319,170.05456 48.86857,169.80289 48.876696,169.40373 L 48.876696,164.79379 C 48.878361,164.46568 48.885028,164.20943 48.896696,164.02505 C 48.908361,163.84068 48.915027,163.74694 48.916696,163.7438 C 48.918361,163.67548 48.875028,163.64215 48.786698,163.64381 C 48.643989,163.69694 48.429409,163.75069 48.142956,163.80505 C 47.8565,163.85943 47.60442,163.89568 47.386716,163.9138 C 47.376715,163.95756 47.376715,164.01006 47.386716,164.0713 C 47.396715,164.13256 47.416715,164.18006 47.446715,164.2138 C 47.700878,164.2086 47.872542,164.24401 47.961708,164.32005 C 48.050873,164.39609 48.092539,164.63401 48.086707,165.03379 L 48.086707,169.40373 z M 50.183432,168.57374 C 50.182807,169.10957 50.356554,169.5954 50.704676,170.03122 C 51.052795,170.46705 51.579038,170.69788 52.283405,170.72371 C 53.023601,170.69288 53.563176,170.44455 53.902134,169.97872 C 54.241084,169.5129 54.408165,169.01457 54.403378,168.48374 C 54.412748,167.935 54.2565,167.43001 53.934634,166.96876 C 53.612759,166.50752 53.069017,166.26253 52.303405,166.23377 C 51.624453,166.2519 51.102377,166.48315 50.737175,166.92751 C 50.371971,167.37189 50.18739,167.92063 50.183432,168.57374 L 50.183432,168.57374 z M 52.193406,166.56377 C 52.625898,166.56523 52.958393,166.75481 53.190894,167.13251 C 53.423387,167.51022 53.540885,168.06729 53.543389,168.80374 C 53.52776,169.44748 53.406512,169.87748 53.179644,170.09372 C 52.952768,170.30997 52.714022,170.40997 52.463403,170.39372 C 52.118467,170.38267 51.84168,170.26255 51.633043,170.03335 C 51.424402,169.80416 51.27354,169.53219 51.180456,169.21744 C 51.08737,168.90269 51.041691,168.61146 51.043421,168.34375 C 51.038837,167.88896 51.125502,167.48355 51.303418,167.12751 C 51.48133,166.77148 51.777993,166.58356 52.193406,166.56377 L 52.193406,166.56377 z M 56.562477,167.27376 C 56.721932,167.1096 56.892513,166.97293 57.074221,166.86376 C 57.255924,166.7546 57.422005,166.69794 57.572464,166.69377 C 57.90204,166.70023 58.18037,166.86731 58.407454,167.19501 C 58.63453,167.52272 58.752862,167.97229 58.762449,168.54374 C 58.773695,168.97916 58.678696,169.38832 58.477453,169.77123 C 58.276202,170.15414 57.901207,170.3583 57.352467,170.38372 C 57.255383,170.38499 57.137051,170.36995 56.997472,170.33859 C 56.857888,170.30724 56.739557,170.25195 56.642476,170.17272 C 56.544538,170.09158 56.479414,170.01437 56.447104,169.9411 C 56.41479,169.86783 56.399915,169.74537 56.40248,169.57373 L 56.40248,167.71375 C 56.401145,167.6118 56.411811,167.52872 56.434479,167.46451 C 56.457144,167.4003 56.49981,167.33672 56.562477,167.27376 L 56.562477,167.27376 z M 56.482478,166.94376 C 56.464748,166.96095 56.444206,166.96883 56.420854,166.96739 C 56.397498,166.96595 56.384707,166.94808 56.38248,166.91376 C 56.384145,166.7296 56.390812,166.57794 56.40248,166.45877 C 56.414144,166.33961 56.420811,166.27794 56.422479,166.27377 C 56.422061,166.25336 56.410394,166.23669 56.38748,166.22377 C 56.364562,166.21086 56.332895,166.20419 56.292481,166.20377 C 56.156856,166.25836 55.983109,166.30919 55.771237,166.35627 C 55.559364,166.40336 55.283118,166.44919 54.942498,166.49377 C 54.933332,166.52794 54.931665,166.57461 54.937498,166.63377 C 54.943331,166.69294 54.951665,166.7396 54.962498,166.77377 C 55.225828,166.78835 55.401658,166.83668 55.489991,166.91876 C 55.578323,167.00085 55.619155,167.17918 55.61249,167.45376 L 55.61249,171.7237 C 55.620614,172.12286 55.576864,172.37452 55.481241,172.47869 C 55.385617,172.58286 55.189369,172.63452 54.892499,172.63369 C 54.862499,172.66994 54.847499,172.72494 54.847499,172.79869 C 54.847499,172.87243 54.862499,172.92743 54.892499,172.96369 C 55.095413,172.95847 55.279577,172.95389 55.444992,172.94994 C 55.610406,172.94598 55.79957,172.94389 56.012485,172.94369 C 56.241647,172.94389 56.448311,172.94598 56.632477,172.94994 C 56.816639,172.95389 57.013303,172.95848 57.222469,172.96369 C 57.252466,172.92743 57.267466,172.87243 57.267468,172.79869 C 57.267466,172.72494 57.252466,172.66994 57.222469,172.63369 C 56.877679,172.63015 56.652266,172.57723 56.546227,172.47494 C 56.440186,172.37265 56.39227,172.12224 56.40248,171.7237 L 56.40248,170.64372 C 56.401936,170.58109 56.41252,170.54709 56.434229,170.54172 C 56.455936,170.53634 56.492018,170.54534 56.542478,170.56872 C 56.666162,170.61849 56.802285,170.65669 56.950847,170.68334 C 57.099406,170.70999 57.253279,170.72344 57.412467,170.72371 C 57.693085,170.72476 57.956831,170.68017 58.203706,170.58997 C 58.450575,170.49976 58.676821,170.35768 58.882448,170.16372 C 59.118898,169.93435 59.300979,169.6631 59.42869,169.34998 C 59.556392,169.03686 59.620975,168.67812 59.622438,168.27375 C 59.612433,167.72501 59.444936,167.25251 59.119944,166.85626 C 58.794944,166.46002 58.37245,166.25253 57.852461,166.23377 C 57.661627,166.23461 57.443297,166.29544 57.197469,166.41627 C 56.951637,166.53711 56.713307,166.71294 56.482478,166.94376 L 56.482478,166.94376 z M 61.247797,167.80375 C 61.363002,167.25855 61.545083,166.91398 61.79404,166.77002 C 62.042993,166.62606 62.237573,166.56398 62.377782,166.58377 C 62.57861,166.57502 62.764441,166.64502 62.935275,166.79377 C 63.106103,166.94252 63.196935,167.22251 63.207771,167.63375 C 63.208393,167.67884 63.197143,167.71317 63.174022,167.73675 C 63.150894,167.76034 63.112144,167.77267 63.057773,167.77375 L 61.247797,167.80375 z M 63.867763,169.69373 C 63.69047,169.88248 63.510056,170.01997 63.32652,170.10622 C 63.142977,170.19247 62.910064,170.23497 62.627779,170.23372 C 62.444237,170.2356 62.256323,170.17935 62.064036,170.06497 C 61.871745,169.9506 61.696331,169.76685 61.537793,169.51373 C 61.436959,169.34852 61.358627,169.15144 61.302796,168.92249 C 61.246962,168.69353 61.218629,168.43395 61.217797,168.14375 L 63.877763,168.16375 C 63.938175,168.16354 63.984841,168.14896 64.017761,168.12 C 64.050673,168.09104 64.06734,168.04896 64.06776,167.99375 C 64.084214,167.55376 63.976299,167.15876 63.744014,166.80876 C 63.511722,166.45877 63.056312,166.27378 62.377782,166.25377 C 61.913828,166.25669 61.47175,166.45836 61.051549,166.85876 C 60.631345,167.25918 60.406765,167.84084 60.377808,168.60374 C 60.376766,168.88666 60.413849,169.15582 60.489056,169.41123 C 60.564263,169.66665 60.683845,169.89081 60.847802,170.08372 C 61.015298,170.28539 61.222796,170.44205 61.470294,170.55372 C 61.717789,170.66538 62.020284,170.72205 62.377782,170.72371 C 62.756108,170.71996 63.084436,170.63997 63.362769,170.48372 C 63.641095,170.32747 63.879425,170.11747 64.07776,169.85373 C 64.063381,169.80394 64.039631,169.76602 64.006511,169.73998 C 63.973382,169.71394 63.927133,169.69852 63.867763,169.69373 L 63.867763,169.69373 z M 67.930424,169.38373 C 67.932567,169.47548 67.923525,169.54898 67.9033,169.60423 C 67.883067,169.65948 67.838776,169.71598 67.770426,169.77373 C 67.585009,169.93373 67.413345,170.05372 67.255433,170.13372 C 67.097516,170.21372 66.955851,170.25372 66.830438,170.25372 C 66.548357,170.25518 66.297527,170.10476 66.077948,169.80248 C 65.858366,169.50019 65.742534,169.03728 65.730453,168.41374 C 65.73316,168.05646 65.762743,167.77105 65.819202,167.55751 C 65.875658,167.34397 65.94274,167.18606 66.020449,167.08376 C 66.18232,166.85731 66.351068,166.71523 66.526692,166.65752 C 66.702313,166.59981 66.843561,166.57523 66.950437,166.58377 C 67.129182,166.5844 67.28418,166.61565 67.415431,166.67752 C 67.546676,166.73939 67.661675,166.82814 67.760427,166.94376 C 67.828756,167.01689 67.874588,167.08814 67.897925,167.15751 C 67.921254,167.22689 67.932087,167.33564 67.930424,167.48376 L 67.930424,169.38373 z M 67.820426,170.12072 C 67.846422,170.09983 67.872421,170.08837 67.898425,170.08635 C 67.924421,170.08433 67.938421,170.10012 67.940424,170.13372 C 67.945004,170.2633 67.963337,170.39164 67.995423,170.51872 C 68.027503,170.6458 68.045836,170.71413 68.050423,170.72371 C 68.088335,170.73809 68.120001,170.74434 68.145421,170.74246 C 68.170834,170.74059 68.2025,170.73434 68.24042,170.72371 C 68.348957,170.63267 68.501871,170.55226 68.699165,170.48247 C 68.896449,170.41268 69.146862,170.35976 69.450405,170.32372 C 69.480399,170.28997 69.495399,170.24497 69.495404,170.18872 C 69.495399,170.13247 69.480399,170.08747 69.450405,170.05372 C 69.139987,170.03206 68.938324,169.96539 68.845412,169.85373 C 68.752493,169.74206 68.710826,169.5654 68.720414,169.32373 L 68.720414,164.79379 C 68.722077,164.46568 68.728743,164.20943 68.740414,164.02505 C 68.752076,163.84068 68.758743,163.74694 68.760414,163.7438 C 68.762076,163.67548 68.718743,163.64215 68.630415,163.64381 C 68.487705,163.69694 68.273124,163.75069 67.986673,163.80505 C 67.700216,163.85943 67.448136,163.89568 67.230433,163.9138 C 67.220431,163.95756 67.220431,164.01006 67.230433,164.0713 C 67.24043,164.13256 67.26043,164.18006 67.290433,164.2138 C 67.544593,164.2086 67.716257,164.24401 67.805426,164.32005 C 67.894588,164.39609 67.936254,164.63401 67.930424,165.03379 L 67.930424,166.31377 C 67.931046,166.34815 67.924796,166.3719 67.911675,166.38502 C 67.898546,166.39815 67.874797,166.4044 67.840425,166.40377 C 67.811047,166.39669 67.717299,166.36836 67.559179,166.31877 C 67.401053,166.26919 67.234805,166.24086 67.060436,166.23377 C 66.734187,166.23503 66.451691,166.28753 66.212946,166.39127 C 65.974198,166.49502 65.756701,166.64252 65.560455,166.83376 C 65.343582,167.04897 65.174834,167.30355 65.054211,167.5975 C 64.933587,167.89146 64.872338,168.22354 64.870464,168.59374 C 64.873797,169.22061 65.022128,169.72935 65.315458,170.11997 C 65.608786,170.51059 66.027114,170.71184 66.570442,170.72371 C 66.76252,170.72378 66.958351,170.67365 67.157934,170.57334 C 67.357512,170.47303 67.578343,170.32216 67.820426,170.12072 L 67.820426,170.12072 z M 70.439051,164.63379 C 70.44405,164.76921 70.494049,164.88838 70.589049,164.99129 C 70.684047,165.09421 70.794045,165.14837 70.919045,165.15379 C 71.063208,165.14698 71.184873,165.09335 71.28404,164.99291 C 71.383203,164.89248 71.434869,164.78611 71.439038,164.67379 C 71.435911,164.54713 71.389662,164.43047 71.30029,164.3238 C 71.210914,164.21714 71.097166,164.16047 70.959044,164.1538 C 70.832378,164.15881 70.715713,164.2088 70.609049,164.3038 C 70.502382,164.3988 70.445717,164.5088 70.439051,164.63379 L 70.439051,164.63379 z M 71.349039,169.40373 L 71.349039,167.41076 C 71.350704,167.14595 71.357371,166.89433 71.369039,166.65589 C 71.380704,166.41746 71.38737,166.29009 71.389039,166.27377 C 71.38862,166.25336 71.376954,166.23669 71.354039,166.22377 C 71.331121,166.21086 71.299455,166.20419 71.25904,166.20377 C 71.120395,166.25836 70.942689,166.30919 70.725922,166.35627 C 70.509153,166.40336 70.230199,166.44919 69.889058,166.49377 C 69.879891,166.52794 69.878224,166.57461 69.884058,166.63377 C 69.889891,166.69294 69.898224,166.7396 69.909058,166.77377 C 70.174575,166.78879 70.35103,166.83725 70.438426,166.91914 C 70.525819,167.00104 70.566027,167.17924 70.559049,167.45376 L 70.559049,169.40373 C 70.567173,169.80164 70.523424,170.05081 70.427801,170.15122 C 70.332176,170.25164 70.135929,170.3058 69.839059,170.31372 C 69.809059,170.34997 69.794059,170.40497 69.794059,170.47872 C 69.794059,170.55247 69.809059,170.60747 69.839059,170.64372 C 70.041972,170.63851 70.226136,170.63392 70.391551,170.62997 C 70.556965,170.62601 70.746129,170.62392 70.959044,170.62372 C 71.16654,170.62392 71.351537,170.62601 71.514037,170.62997 C 71.676533,170.63392 71.86153,170.63851 72.06903,170.64372 C 72.099027,170.60747 72.114027,170.55247 72.114029,170.47872 C 72.114027,170.40497 72.099027,170.34997 72.06903,170.31372 C 71.772156,170.31018 71.575909,170.25726 71.480287,170.15497 C 71.384662,170.05268 71.340912,169.80227 71.349039,169.40373 L 71.349039,169.40373 z M 74.333879,172.2237 C 74.487042,171.94603 74.623707,171.65937 74.743874,171.36371 C 75.136241,170.41978 75.465487,169.63867 75.731612,169.02036 C 75.997729,168.40206 76.258476,167.82319 76.513851,167.28376 C 76.585721,167.1321 76.69197,166.99293 76.832597,166.86626 C 76.973216,166.7396 77.136964,166.66544 77.323841,166.64377 C 77.353835,166.60752 77.368835,166.55252 77.36884,166.47877 C 77.368835,166.40502 77.353835,166.35002 77.323841,166.31377 C 77.202379,166.31898 77.087797,166.32357 76.980095,166.32752 C 76.872383,166.33148 76.750302,166.33357 76.61385,166.33377 C 76.445931,166.33357 76.296767,166.33148 76.166356,166.32752 C 76.035937,166.32357 75.881773,166.31898 75.703862,166.31377 C 75.673859,166.35002 75.658859,166.40502 75.658862,166.47877 C 75.658859,166.55252 75.673859,166.60752 75.703862,166.64377 C 75.871919,166.65302 76.011042,166.68652 76.121232,166.74427 C 76.231414,166.80202 76.252288,166.91852 76.183856,167.09376 L 75.191868,169.38373 C 75.156595,169.46613 75.118637,169.50934 75.077995,169.51336 C 75.037347,169.51738 74.995639,169.47084 74.952871,169.37373 L 74.065883,167.29376 C 73.962487,167.08506 73.918029,166.92998 73.932509,166.82851 C 73.946987,166.72706 74.100776,166.66548 74.393878,166.64377 C 74.423876,166.60752 74.438875,166.55252 74.438878,166.47877 C 74.438876,166.40502 74.423876,166.35002 74.393878,166.31377 C 74.20742,166.31898 74.01784,166.32357 73.825135,166.32752 C 73.632428,166.33148 73.445347,166.33357 73.263893,166.33377 C 72.923896,166.33211 72.6539,166.32544 72.453903,166.31377 C 72.423903,166.35002 72.408904,166.40502 72.408904,166.47877 C 72.408904,166.55252 72.423904,166.60752 72.453903,166.64377 C 72.6604,166.65271 72.812148,166.70308 72.909147,166.79489 C 73.006145,166.88671 73.117394,167.08633 73.242893,167.39376 L 74.373879,170.02372 C 74.424022,170.13333 74.470729,170.28012 74.514002,170.46409 C 74.55727,170.64807 74.557228,170.81461 74.513877,170.96371 C 74.454938,171.12879 74.393814,171.28512 74.330504,171.43271 C 74.26719,171.58029 74.198316,171.73062 74.123882,171.8837 C 74.070547,171.98328 74.004714,172.05661 73.926384,172.1037 C 73.84805,172.15078 73.747218,172.17411 73.623888,172.1737 C 73.557429,172.17244 73.505347,172.16744 73.46764,172.1587 C 73.429931,172.14994 73.385349,172.14494 73.333892,172.1437 C 73.188684,172.15349 73.079103,172.2089 73.005146,172.30994 C 72.931188,172.41098 72.894105,172.4989 72.893898,172.57369 C 72.896605,172.68098 72.941188,172.76889 73.027646,172.83744 C 73.114102,172.90598 73.226184,172.94139 73.363892,172.94369 C 73.47368,172.95368 73.616595,172.91368 73.792636,172.82369 C 73.968673,172.73369 74.149088,172.53369 74.333879,172.2237 L 74.333879,172.2237 z M 80.379181,168.29375 L 80.379181,169.62373 C 80.378345,169.68769 80.365012,169.73977 80.339182,169.77998 C 80.313346,169.82018 80.280013,169.85477 80.239183,169.88373 C 80.106265,169.99352 79.9621,170.09143 79.806688,170.17747 C 79.651271,170.26351 79.502107,170.30893 79.359194,170.31372 C 79.110446,170.30351 78.927948,170.22393 78.811701,170.07497 C 78.695451,169.92602 78.637952,169.76894 78.639203,169.60373 C 78.632661,169.37327 78.698743,169.15819 78.837451,168.95849 C 78.976156,168.75878 79.226736,168.6072 79.589191,168.50374 L 80.379181,168.29375 z M 80.379181,170.14372 C 80.404136,170.25976 80.473218,170.38268 80.586428,170.51247 C 80.699632,170.64226 80.887213,170.71267 81.149171,170.72371 C 81.398956,170.70809 81.601869,170.63934 81.757913,170.51747 C 81.913948,170.39559 81.994364,170.31434 81.99916,170.27372 C 81.996239,170.23601 81.979573,170.19893 81.949161,170.16247 C 81.91874,170.12601 81.892074,170.10643 81.869162,170.10372 C 81.843991,170.11039 81.811325,170.13706 81.771163,170.18372 C 81.730992,170.23039 81.660327,170.25705 81.559166,170.26372 C 81.371873,170.25705 81.256457,170.17289 81.21292,170.01122 C 81.169375,169.84956 81.151459,169.6504 81.159171,169.41373 L 81.159171,167.92375 C 81.141876,167.2321 80.981461,166.77294 80.677927,166.54627 C 80.374386,166.31961 80.031474,166.21544 79.64919,166.23377 C 79.221694,166.24628 78.844199,166.36377 78.516705,166.58627 C 78.189208,166.80877 78.016711,167.06127 77.999212,167.34376 C 77.99942,167.46334 78.029002,167.55168 78.087961,167.60875 C 78.146917,167.66584 78.234,167.69417 78.349207,167.69375 C 78.494413,167.68813 78.603994,167.64938 78.677953,167.5775 C 78.751909,167.50563 78.788992,167.43438 78.789201,167.36376 C 78.7892,167.32814 78.7867,167.29439 78.781702,167.26251 C 78.7767,167.23064 78.7692,167.20439 78.759202,167.18376 C 78.753992,167.16918 78.749409,167.14585 78.745452,167.11376 C 78.741492,167.08168 78.739409,167.03835 78.739202,166.98376 C 78.750034,166.83064 78.840866,166.72189 79.011699,166.65752 C 79.182528,166.59315 79.368359,166.5619 79.569191,166.56377 C 79.751687,166.54731 79.929184,166.62273 80.101684,166.79002 C 80.274179,166.95731 80.366678,167.31522 80.379181,167.86375 C 80.378553,167.89875 80.372303,167.92625 80.360431,167.94625 C 80.348554,167.96625 80.334804,167.97875 80.319182,167.98375 L 79.459193,168.19375 C 78.970448,168.31666 78.575453,168.50333 78.274208,168.75374 C 77.972961,169.00415 77.817964,169.30082 77.809214,169.64373 C 77.817964,170.03435 77.940462,170.31309 78.17671,170.47997 C 78.412956,170.64684 78.710451,170.72809 79.069198,170.72371 C 79.28836,170.72746 79.472524,170.69996 79.621691,170.64122 C 79.770853,170.58247 79.950017,170.46997 80.159184,170.30372 L 80.359181,170.14372 L 80.379181,170.14372 z M 86.599504,172.2237 C 86.752667,171.94603 86.889332,171.65937 87.009499,171.36371 C 87.401866,170.41978 87.731112,169.63867 87.997237,169.02036 C 88.263354,168.40206 88.524101,167.82319 88.779476,167.28376 C 88.851346,167.1321 88.957595,166.99293 89.098222,166.86626 C 89.238841,166.7396 89.402589,166.66544 89.589466,166.64377 C 89.61946,166.60752 89.63446,166.55252 89.634465,166.47877 C 89.63446,166.40502 89.61946,166.35002 89.589466,166.31377 C 89.468004,166.31898 89.353422,166.32357 89.24572,166.32752 C 89.138008,166.33148 89.015927,166.33357 88.879475,166.33377 C 88.711556,166.33357 88.562392,166.33148 88.431981,166.32752 C 88.301562,166.32357 88.147398,166.31898 87.969487,166.31377 C 87.939484,166.35002 87.924484,166.40502 87.924487,166.47877 C 87.924484,166.55252 87.939484,166.60752 87.969487,166.64377 C 88.137544,166.65302 88.276667,166.68652 88.386857,166.74427 C 88.497039,166.80202 88.517913,166.91852 88.449481,167.09376 L 87.457493,169.38373 C 87.42222,169.46613 87.384262,169.50934 87.34362,169.51336 C 87.302972,169.51738 87.261264,169.47084 87.218496,169.37373 L 86.331508,167.29376 C 86.228112,167.08506 86.183654,166.92998 86.198134,166.82851 C 86.212612,166.72706 86.366401,166.66548 86.659503,166.64377 C 86.689501,166.60752 86.7045,166.55252 86.704503,166.47877 C 86.704501,166.40502 86.689501,166.35002 86.659503,166.31377 C 86.473045,166.31898 86.283465,166.32357 86.09076,166.32752 C 85.898053,166.33148 85.710972,166.33357 85.529518,166.33377 C 85.189521,166.33211 84.919525,166.32544 84.719528,166.31377 C 84.689528,166.35002 84.674529,166.40502 84.674529,166.47877 C 84.674529,166.55252 84.689529,166.60752 84.719528,166.64377 C 84.926025,166.65271 85.077773,166.70308 85.174772,166.79489 C 85.27177,166.88671 85.383019,167.08633 85.508518,167.39376 L 86.639504,170.02372 C 86.689647,170.13333 86.736354,170.28012 86.779627,170.46409 C 86.822895,170.64807 86.822853,170.81461 86.779502,170.96371 C 86.720563,171.12879 86.659439,171.28512 86.596129,171.43271 C 86.532815,171.58029 86.463941,171.73062 86.389507,171.8837 C 86.336172,171.98328 86.270339,172.05661 86.192009,172.1037 C 86.113675,172.15078 86.012843,172.17411 85.889513,172.1737 C 85.823054,172.17244 85.770972,172.16744 85.733265,172.1587 C 85.695556,172.14994 85.650974,172.14494 85.599517,172.1437 C 85.454309,172.15349 85.344728,172.2089 85.270771,172.30994 C 85.196813,172.41098 85.15973,172.4989 85.159523,172.57369 C 85.16223,172.68098 85.206813,172.76889 85.293271,172.83744 C 85.379727,172.90598 85.491809,172.94139 85.629517,172.94369 C 85.739305,172.95368 85.88222,172.91368 86.058261,172.82369 C 86.234298,172.73369 86.414713,172.53369 86.599504,172.2237 L 86.599504,172.2237 z M 92.644806,168.29375 L 92.644806,169.62373 C 92.64397,169.68769 92.630637,169.73977 92.604807,169.77998 C 92.578971,169.82018 92.545638,169.85477 92.504808,169.88373 C 92.37189,169.99352 92.227725,170.09143 92.072313,170.17747 C 91.916896,170.26351 91.767732,170.30893 91.624819,170.31372 C 91.376071,170.30351 91.193573,170.22393 91.077326,170.07497 C 90.961076,169.92602 90.903577,169.76894 90.904828,169.60373 C 90.898286,169.37327 90.964368,169.15819 91.103076,168.95849 C 91.241781,168.75878 91.492361,168.6072 91.854816,168.50374 L 92.644806,168.29375 z M 92.644806,170.14372 C 92.669761,170.25976 92.738843,170.38268 92.852053,170.51247 C 92.965257,170.64226 93.152838,170.71267 93.414796,170.72371 C 93.664581,170.70809 93.867494,170.63934 94.023538,170.51747 C 94.179573,170.39559 94.259989,170.31434 94.264785,170.27372 C 94.261864,170.23601 94.245198,170.19893 94.214786,170.16247 C 94.184365,170.12601 94.157699,170.10643 94.134787,170.10372 C 94.109616,170.11039 94.07695,170.13706 94.036788,170.18372 C 93.996617,170.23039 93.925952,170.25705 93.824791,170.26372 C 93.637498,170.25705 93.522082,170.17289 93.478545,170.01122 C 93.435,169.84956 93.417084,169.6504 93.424796,169.41373 L 93.424796,167.92375 C 93.407501,167.2321 93.247086,166.77294 92.943552,166.54627 C 92.640011,166.31961 92.297099,166.21544 91.914815,166.23377 C 91.487319,166.24628 91.109824,166.36377 90.78233,166.58627 C 90.454833,166.80877 90.282336,167.06127 90.264837,167.34376 C 90.265045,167.46334 90.294627,167.55168 90.353586,167.60875 C 90.412542,167.66584 90.499625,167.69417 90.614832,167.69375 C 90.760038,167.68813 90.869619,167.64938 90.943578,167.5775 C 91.017534,167.50563 91.054617,167.43438 91.054826,167.36376 C 91.054825,167.32814 91.052325,167.29439 91.047327,167.26251 C 91.042325,167.23064 91.034825,167.20439 91.024827,167.18376 C 91.019617,167.16918 91.015034,167.14585 91.011077,167.11376 C 91.007117,167.08168 91.005034,167.03835 91.004827,166.98376 C 91.015659,166.83064 91.106491,166.72189 91.277324,166.65752 C 91.448153,166.59315 91.633984,166.5619 91.834816,166.56377 C 92.017312,166.54731 92.194809,166.62273 92.367309,166.79002 C 92.539804,166.95731 92.632303,167.31522 92.644806,167.86375 C 92.644178,167.89875 92.637928,167.92625 92.626056,167.94625 C 92.614179,167.96625 92.600429,167.97875 92.584807,167.98375 L 91.724818,168.19375 C 91.236073,168.31666 90.841078,168.50333 90.539833,168.75374 C 90.238586,169.00415 90.083589,169.30082 90.074839,169.64373 C 90.083589,170.03435 90.206087,170.31309 90.442335,170.47997 C 90.678581,170.64684 90.976076,170.72809 91.334823,170.72371 C 91.553985,170.72746 91.738149,170.69996 91.887316,170.64122 C 92.036478,170.58247 92.215642,170.46997 92.424809,170.30372 L 92.624806,170.14372 L 92.644806,170.14372 z M 98.685132,167.34376 C 98.881565,167.14987 99.062437,167.00316 99.22775,166.90364 C 99.393058,166.80412 99.552181,166.75417 99.705119,166.75377 C 99.898863,166.74981 100.05636,166.81773 100.17761,166.95751 C 100.29886,167.09731 100.36136,167.33272 100.36511,167.66375 L 100.36511,169.40373 C 100.37302,169.79789 100.33719,170.04706 100.25761,170.15122 C 100.17803,170.25539 100.00719,170.30955 99.745118,170.31372 C 99.720115,170.34997 99.707616,170.40497 99.707619,170.47872 C 99.707616,170.55247 99.720116,170.60747 99.745118,170.64372 C 99.946362,170.63851 100.11886,170.63392 100.26261,170.62997 C 100.40636,170.62601 100.57385,170.62392 100.76511,170.62372 C 100.95843,170.62392 101.11926,170.62601 101.2476,170.62997 C 101.37593,170.63392 101.54176,170.63851 101.74509,170.64372 C 101.77009,170.60747 101.78259,170.55247 101.78259,170.47872 C 101.78259,170.40497 101.77009,170.34997 101.74509,170.31372 C 101.50176,170.30955 101.34093,170.25539 101.2626,170.15122 C 101.18426,170.04706 101.14843,169.79789 101.1551,169.40373 L 101.1551,167.81375 C 101.1553,167.74334 101.15489,167.67417 101.15385,167.60625 C 101.1528,167.53834 101.14989,167.47418 101.1451,167.41376 C 101.38322,167.15439 101.60446,166.97814 101.80884,166.88501 C 102.01321,166.79189 102.21196,166.74814 102.40508,166.75377 C 102.59716,166.74898 102.74799,166.81356 102.85758,166.94751 C 102.96715,167.08147 103.02299,167.31355 103.02508,167.64375 L 103.02508,169.40373 C 103.03174,169.79789 102.9934,170.04706 102.91008,170.15122 C 102.82674,170.25539 102.65841,170.30955 102.40508,170.31372 C 102.38008,170.34997 102.36758,170.40497 102.36758,170.47872 C 102.36758,170.55247 102.38008,170.60747 102.40508,170.64372 C 102.60633,170.63851 102.77882,170.63392 102.92258,170.62997 C 103.06632,170.62601 103.23382,170.62392 103.42507,170.62372 C 103.62048,170.62392 103.78964,170.62601 103.93256,170.62997 C 104.07547,170.63392 104.24964,170.63851 104.45506,170.64372 C 104.48005,170.60747 104.49255,170.55247 104.49256,170.47872 C 104.49255,170.40497 104.48005,170.34997 104.45506,170.31372 C 104.18776,170.30955 104.01235,170.25539 103.92881,170.15122 C 103.84527,170.04706 103.80735,169.79789 103.81507,169.40373 L 103.81507,167.82375 C 103.82631,167.36814 103.76131,166.99189 103.62007,166.69502 C 103.47881,166.39815 103.19382,166.2444 102.76508,166.23377 C 102.50739,166.23015 102.24352,166.2844 101.97346,166.39652 C 101.7034,166.50865 101.43728,166.7004 101.1751,166.97176 C 101.15864,166.99097 101.13905,167.00506 101.11635,167.01401 C 101.09364,167.02297 101.07656,167.00756 101.0651,166.96776 C 101.01437,166.75781 100.90083,166.58423 100.72448,166.44702 C 100.54812,166.30982 100.32834,166.23873 100.06511,166.23377 C 99.778031,166.23878 99.517201,166.31628 99.282624,166.46627 C 99.048041,166.61627 98.822211,166.80877 98.605133,167.04376 C 98.585735,167.06827 98.565027,167.09026 98.543009,167.10976 C 98.520986,167.12926 98.509028,167.10726 98.507134,167.04376 C 98.509132,166.88085 98.517132,166.71669 98.531134,166.55127 C 98.545132,166.38586 98.553132,166.29669 98.555133,166.28377 C 98.555132,166.23211 98.515132,166.20544 98.435135,166.20377 C 98.296073,166.25836 98.1167,166.30919 97.897017,166.35627 C 97.677331,166.40336 97.39671,166.44919 97.055153,166.49377 C 97.045986,166.52794 97.044319,166.57461 97.050153,166.63377 C 97.055986,166.69294 97.064319,166.7396 97.075153,166.77377 C 97.340669,166.78816 97.517125,166.83537 97.604521,166.91539 C 97.691914,166.99541 97.732122,167.17487 97.725144,167.45376 L 97.725144,169.40373 C 97.731185,169.79789 97.686602,170.04706 97.591396,170.15122 C 97.496188,170.25539 97.314107,170.30955 97.045153,170.31372 C 97.015153,170.34997 97.000153,170.40497 97.000153,170.47872 C 97.000153,170.55247 97.015153,170.60747 97.045153,170.64372 C 97.24265,170.63851 97.420147,170.63392 97.577646,170.62997 C 97.735143,170.62601 97.91764,170.62392 98.125139,170.62372 C 98.310614,170.62392 98.471404,170.62601 98.607508,170.62997 C 98.743608,170.63392 98.912147,170.63851 99.113126,170.64372 C 99.143123,170.60747 99.158123,170.55247 99.158125,170.47872 C 99.158123,170.40497 99.143123,170.34997 99.113126,170.31372 C 98.865961,170.30518 98.702796,170.24976 98.623632,170.14747 C 98.544465,170.04518 98.508299,169.79727 98.515134,169.40373 L 98.515134,167.76375 C 98.517215,167.65982 98.535548,167.57445 98.570133,167.50763 C 98.604714,167.44082 98.643047,167.3862 98.685132,167.34376 L 98.685132,167.34376 z M 107.50809,168.29375 L 107.50809,169.62373 C 107.50725,169.68769 107.49392,169.73977 107.46809,169.77998 C 107.44225,169.82018 107.40892,169.85477 107.36809,169.88373 C 107.23517,169.99352 107.09101,170.09143 106.93559,170.17747 C 106.78018,170.26351 106.63101,170.30893 106.4881,170.31372 C 106.23935,170.30351 106.05685,170.22393 105.94061,170.07497 C 105.82436,169.92602 105.76686,169.76894 105.76811,169.60373 C 105.76157,169.37327 105.82765,169.15819 105.96636,168.95849 C 106.10506,168.75878 106.35564,168.6072 106.7181,168.50374 L 107.50809,168.29375 z M 107.50809,170.14372 C 107.53304,170.25976 107.60212,170.38268 107.71533,170.51247 C 107.82854,170.64226 108.01612,170.71267 108.27808,170.72371 C 108.52786,170.70809 108.73078,170.63934 108.88682,170.51747 C 109.04285,170.39559 109.12327,170.31434 109.12807,170.27372 C 109.12515,170.23601 109.10848,170.19893 109.07807,170.16247 C 109.04765,170.12601 109.02098,170.10643 108.99807,170.10372 C 108.9729,170.11039 108.94023,170.13706 108.90007,170.18372 C 108.8599,170.23039 108.78923,170.25705 108.68807,170.26372 C 108.50078,170.25705 108.38536,170.17289 108.34183,170.01122 C 108.29828,169.84956 108.28037,169.6504 108.28808,169.41373 L 108.28808,167.92375 C 108.27078,167.2321 108.11037,166.77294 107.80683,166.54627 C 107.50329,166.31961 107.16038,166.21544 106.7781,166.23377 C 106.3506,166.24628 105.97311,166.36377 105.64561,166.58627 C 105.31811,166.80877 105.14562,167.06127 105.12812,167.34376 C 105.12833,167.46334 105.15791,167.55168 105.21687,167.60875 C 105.27582,167.66584 105.36291,167.69417 105.47811,167.69375 C 105.62332,167.68813 105.7329,167.64938 105.80686,167.5775 C 105.88082,167.50563 105.9179,167.43438 105.91811,167.36376 C 105.91811,167.32814 105.91561,167.29439 105.91061,167.26251 C 105.90561,167.23064 105.89811,167.20439 105.88811,167.18376 C 105.8829,167.16918 105.87832,167.14585 105.87436,167.11376 C 105.8704,167.08168 105.86832,167.03835 105.86811,166.98376 C 105.87894,166.83064 105.96977,166.72189 106.1406,166.65752 C 106.31143,166.59315 106.49727,166.5619 106.6981,166.56377 C 106.88059,166.54731 107.05809,166.62273 107.23059,166.79002 C 107.40309,166.95731 107.49558,167.31522 107.50809,167.86375 C 107.50746,167.89875 107.50121,167.92625 107.48934,167.94625 C 107.47746,167.96625 107.46371,167.97875 107.44809,167.98375 L 106.5881,168.19375 C 106.09935,168.31666 105.70436,168.50333 105.40311,168.75374 C 105.10187,169.00415 104.94687,169.30082 104.93812,169.64373 C 104.94687,170.03435 105.06937,170.31309 105.30562,170.47997 C 105.54186,170.64684 105.83936,170.72809 106.1981,170.72371 C 106.41727,170.72746 106.60143,170.69996 106.7506,170.64122 C 106.89976,170.58247 107.07892,170.46997 107.28809,170.30372 L 107.48809,170.14372 L 107.50809,170.14372 z M 110.81842,167.76475 C 110.8205,167.66034 110.83883,167.57467 110.87342,167.50776 C 110.908,167.44084 110.94633,167.38618 110.98841,167.34376 C 111.18087,167.15599 111.38245,167.01104 111.59316,166.90889 C 111.80386,166.80675 112.00894,166.75504 112.2084,166.75377 C 112.31248,166.75446 112.41181,166.78583 112.50639,166.84789 C 112.60097,166.90996 112.67831,166.99858 112.73839,167.11376 C 112.78714,167.21372 112.81964,167.3293 112.83589,167.46051 C 112.85214,167.59172 112.85964,167.7328 112.85839,167.88375 L 112.85839,169.40373 C 112.86505,169.79727 112.82672,170.04518 112.74339,170.14747 C 112.66006,170.24976 112.49172,170.30518 112.2384,170.31372 C 112.21339,170.34997 112.2009,170.40497 112.2009,170.47872 C 112.2009,170.55247 112.2134,170.60747 112.2384,170.64372 C 112.43964,170.63851 112.61214,170.63392 112.75589,170.62997 C 112.89964,170.62601 113.06713,170.62392 113.25838,170.62372 C 113.45504,170.62392 113.62921,170.62601 113.78088,170.62997 C 113.93254,170.63392 114.1117,170.63851 114.31837,170.64372 C 114.34337,170.60747 114.35587,170.55247 114.35587,170.47872 C 114.35587,170.40497 114.34337,170.34997 114.31837,170.31372 C 114.04545,170.30518 113.86379,170.24976 113.77338,170.14747 C 113.68296,170.04518 113.64129,169.79727 113.64838,169.40373 L 113.64838,167.91375 C 113.65169,167.63636 113.63581,167.38241 113.60076,167.15189 C 113.56569,166.92137 113.49156,166.72867 113.37838,166.57377 C 113.29217,166.46336 113.17659,166.37919 113.03164,166.32127 C 112.88668,166.26336 112.7256,166.23419 112.54839,166.23377 C 112.30337,166.22503 112.04492,166.27503 111.77303,166.38377 C 111.50113,166.49252 111.21293,166.71252 110.90841,167.04376 C 110.88946,167.0687 110.86887,167.09083 110.84667,167.11014 C 110.82446,167.12945 110.81237,167.10733 110.81042,167.04376 L 110.81842,164.79379 C 110.82096,164.46568 110.82787,164.20943 110.83917,164.02505 C 110.85046,163.84068 110.85687,163.74694 110.85842,163.7438 C 110.86008,163.67548 110.81675,163.64215 110.72842,163.64381 C 110.58571,163.69694 110.37113,163.75069 110.08468,163.80505 C 109.79822,163.85943 109.54614,163.89568 109.32844,163.9138 C 109.31844,163.95756 109.31844,164.01006 109.32844,164.0713 C 109.33843,164.13256 109.35843,164.18006 109.38843,164.2138 C 109.6426,164.2086 109.81426,164.24401 109.90343,164.32005 C 109.99259,164.39609 110.03426,164.63401 110.02843,165.03379 L 110.02843,169.40373 C 110.03559,169.80227 109.99176,170.05268 109.89693,170.15497 C 109.80209,170.25726 109.61326,170.31018 109.33044,170.31372 C 109.30044,170.34997 109.28544,170.40497 109.28544,170.47872 C 109.28544,170.55247 109.30044,170.60747 109.33044,170.64372 C 109.52956,170.63851 109.7103,170.63392 109.87268,170.62997 C 110.03505,170.62601 110.2203,170.62392 110.42842,170.62372 C 110.6139,170.62392 110.77469,170.62601 110.91079,170.62997 C 111.04689,170.63392 111.21543,170.63851 111.41641,170.64372 C 111.44641,170.60747 111.46141,170.55247 111.46141,170.47872 C 111.46141,170.40497 111.44641,170.34997 111.41641,170.31372 C 111.16924,170.31018 111.00608,170.25726 110.92691,170.15497 C 110.84775,170.05268 110.81158,169.80227 110.81842,169.40373 L 110.81842,167.76475 z M 117.3909,168.29375 L 117.3909,169.62373 C 117.39006,169.68769 117.37673,169.73977 117.3509,169.77998 C 117.32506,169.82018 117.29173,169.85477 117.2509,169.88373 C 117.11798,169.99352 116.97382,170.09143 116.81841,170.17747 C 116.66299,170.26351 116.51383,170.30893 116.37091,170.31372 C 116.12216,170.30351 115.93967,170.22393 115.82342,170.07497 C 115.70717,169.92602 115.64967,169.76894 115.65092,169.60373 C 115.64438,169.37327 115.71046,169.15819 115.84917,168.95849 C 115.98787,168.75878 116.23845,168.6072 116.60091,168.50374 L 117.3909,168.29375 z M 117.3909,170.14372 C 117.41585,170.25976 117.48494,170.38268 117.59815,170.51247 C 117.71135,170.64226 117.89893,170.71267 118.16089,170.72371 C 118.41067,170.70809 118.61359,170.63934 118.76963,170.51747 C 118.92567,170.39559 119.00608,170.31434 119.01088,170.27372 C 119.00796,170.23601 118.99129,170.19893 118.96088,170.16247 C 118.93046,170.12601 118.90379,170.10643 118.88088,170.10372 C 118.85571,170.11039 118.82304,170.13706 118.78288,170.18372 C 118.74271,170.23039 118.67205,170.25705 118.57088,170.26372 C 118.38359,170.25705 118.26818,170.17289 118.22464,170.01122 C 118.18109,169.84956 118.16318,169.6504 118.17089,169.41373 L 118.17089,167.92375 C 118.15359,167.2321 117.99318,166.77294 117.68965,166.54627 C 117.3861,166.31961 117.04319,166.21544 116.66091,166.23377 C 116.23341,166.24628 115.85592,166.36377 115.52842,166.58627 C 115.20093,166.80877 115.02843,167.06127 115.01093,167.34376 C 115.01114,167.46334 115.04072,167.55168 115.09968,167.60875 C 115.15864,167.66584 115.24572,167.69417 115.36093,167.69375 C 115.50613,167.68813 115.61571,167.64938 115.68967,167.5775 C 115.76363,167.50563 115.80071,167.43438 115.80092,167.36376 C 115.80092,167.32814 115.79842,167.29439 115.79342,167.26251 C 115.78842,167.23064 115.78092,167.20439 115.77092,167.18376 C 115.76571,167.16918 115.76113,167.14585 115.75717,167.11376 C 115.75321,167.08168 115.75113,167.03835 115.75092,166.98376 C 115.76175,166.83064 115.85258,166.72189 116.02342,166.65752 C 116.19425,166.59315 116.38008,166.5619 116.58091,166.56377 C 116.76341,166.54731 116.9409,166.62273 117.1134,166.79002 C 117.2859,166.95731 117.3784,167.31522 117.3909,167.86375 C 117.39027,167.89875 117.38402,167.92625 117.37215,167.94625 C 117.36027,167.96625 117.34652,167.97875 117.3309,167.98375 L 116.47091,168.19375 C 115.98217,168.31666 115.58717,168.50333 115.28593,168.75374 C 114.98468,169.00415 114.82968,169.30082 114.82093,169.64373 C 114.82968,170.03435 114.95218,170.31309 115.18843,170.47997 C 115.42467,170.64684 115.72217,170.72809 116.08092,170.72371 C 116.30008,170.72746 116.48424,170.69996 116.63341,170.64122 C 116.78257,170.58247 116.96174,170.46997 117.1709,170.30372 L 117.3709,170.14372 L 117.3909,170.14372 z M 119.98124,169.40373 C 119.98936,169.80289 119.94561,170.05456 119.84999,170.15872 C 119.75436,170.26289 119.55812,170.31455 119.26125,170.31372 C 119.23125,170.34997 119.21625,170.40497 119.21625,170.47872 C 119.21625,170.55247 119.23125,170.60747 119.26125,170.64372 C 119.46416,170.63851 119.64832,170.63392 119.81374,170.62997 C 119.97915,170.62601 120.16832,170.62392 120.38123,170.62372 C 120.58873,170.62392 120.77373,170.62601 120.93623,170.62997 C 121.09872,170.63392 121.28372,170.63851 121.49122,170.64372 C 121.52122,170.60747 121.53621,170.55247 121.53622,170.47872 C 121.53622,170.40497 121.52122,170.34997 121.49122,170.31372 C 121.19434,170.31455 120.9981,170.26289 120.90248,170.15872 C 120.80685,170.05456 120.7631,169.80289 120.77123,169.40373 L 120.77123,164.79379 C 120.77289,164.46568 120.77956,164.20943 120.79123,164.02505 C 120.80289,163.84068 120.80956,163.74694 120.81123,163.7438 C 120.81289,163.67548 120.76956,163.64215 120.68123,163.64381 C 120.53852,163.69694 120.32394,163.75069 120.03749,163.80505 C 119.75103,163.85943 119.49895,163.89568 119.28125,163.9138 C 119.27125,163.95756 119.27125,164.01006 119.28125,164.0713 C 119.29125,164.13256 119.31125,164.18006 119.34125,164.2138 C 119.59541,164.2086 119.76707,164.24401 119.85624,164.32005 C 119.9454,164.39609 119.98707,164.63401 119.98124,165.03379 L 119.98124,169.40373 z M 124.59793,168.29375 L 124.59793,169.62373 C 124.59709,169.68769 124.58376,169.73977 124.55793,169.77998 C 124.5321,169.82018 124.49876,169.85477 124.45793,169.88373 C 124.32501,169.99352 124.18085,170.09143 124.02544,170.17747 C 123.87002,170.26351 123.72086,170.30893 123.57794,170.31372 C 123.3292,170.30351 123.1467,170.22393 123.03045,170.07497 C 122.9142,169.92602 122.8567,169.76894 122.85795,169.60373 C 122.85141,169.37327 122.91749,169.15819 123.0562,168.95849 C 123.19491,168.75878 123.44549,168.6072 123.80794,168.50374 L 124.59793,168.29375 z M 124.59793,170.14372 C 124.62289,170.25976 124.69197,170.38268 124.80518,170.51247 C 124.91838,170.64226 125.10596,170.71267 125.36792,170.72371 C 125.61771,170.70809 125.82062,170.63934 125.97666,170.51747 C 126.1327,170.39559 126.21311,170.31434 126.21791,170.27372 C 126.21499,170.23601 126.19832,170.19893 126.16791,170.16247 C 126.13749,170.12601 126.11082,170.10643 126.08791,170.10372 C 126.06274,170.11039 126.03007,170.13706 125.98991,170.18372 C 125.94974,170.23039 125.87908,170.25705 125.77792,170.26372 C 125.59062,170.25705 125.47521,170.17289 125.43167,170.01122 C 125.38813,169.84956 125.37021,169.6504 125.37792,169.41373 L 125.37792,167.92375 C 125.36063,167.2321 125.20021,166.77294 124.89668,166.54627 C 124.59314,166.31961 124.25022,166.21544 123.86794,166.23377 C 123.44044,166.24628 123.06295,166.36377 122.73545,166.58627 C 122.40796,166.80877 122.23546,167.06127 122.21796,167.34376 C 122.21817,167.46334 122.24775,167.55168 122.30671,167.60875 C 122.36567,167.66584 122.45275,167.69417 122.56796,167.69375 C 122.71316,167.68813 122.82274,167.64938 122.8967,167.5775 C 122.97066,167.50563 123.00774,167.43438 123.00795,167.36376 C 123.00795,167.32814 123.00545,167.29439 123.00045,167.26251 C 122.99545,167.23064 122.98795,167.20439 122.97795,167.18376 C 122.97274,167.16918 122.96816,167.14585 122.9642,167.11376 C 122.96024,167.08168 122.95816,167.03835 122.95795,166.98376 C 122.96878,166.83064 123.05962,166.72189 123.23045,166.65752 C 123.40128,166.59315 123.58711,166.5619 123.78794,166.56377 C 123.97044,166.54731 124.14793,166.62273 124.32043,166.79002 C 124.49293,166.95731 124.58543,167.31522 124.59793,167.86375 C 124.5973,167.89875 124.59105,167.92625 124.57918,167.94625 C 124.5673,167.96625 124.55355,167.97875 124.53793,167.98375 L 123.67794,168.19375 C 123.1892,168.31666 122.7942,168.50333 122.49296,168.75374 C 122.19171,169.00415 122.03671,169.30082 122.02796,169.64373 C 122.03671,170.03435 122.15921,170.31309 122.39546,170.47997 C 122.63171,170.64684 122.9292,170.72809 123.28795,170.72371 C 123.50711,170.72746 123.69127,170.69996 123.84044,170.64122 C 123.9896,170.58247 124.16877,170.46997 124.37793,170.30372 L 124.57793,170.14372 L 124.59793,170.14372 z" id="flowRoot3057" style="font-size:10px;font-style:normal;font-variant:normal;font-weight:normal;font-stretch:normal;text-align:justify;line-height:100%;writing-mode:lr-tb;text-anchor:start;fill:#000000;fill-opacity:1;stroke:none;stroke-width:1px;stroke-linecap:butt;stroke-linejoin:miter;stroke-opacity:1;font-family:Linux Libertine O;-inkscape-font-specification:Linux Libertine O"></path></svg>
</svg>