<?xml version="1.0" encoding="UTF-8" standalone="no"?>
<svg
	xmlns="http://www.w3.org/2000/svg"
	xmlns:dc="http://purl.org/dc/elements/1.1/"
	xmlns:cc="http://creativecommons.org/ns#"
	xmlns:rdf="http://www.w3.org/1999/02/22-rdf-syntax-ns#"
	xmlns:svg="http://www.w3.org/2000/svg"
	xmlns:xlink="http://www.w3.org/1999/xlink"
	xmlns:sodipodi="http://sodipodi.sourceforge.net/DTD/sodipodi-0.dtd"
	xmlns:inkscape="http://www.inkscape.org/namespaces/inkscape"
	version="1.1"
	viewBox="0 0 135px 155px">
	<svg xmlns:dc="http://purl.org/dc/elements/1.1/" xmlns:cc="http://creativecommons.org/ns#" xmlns:rdf="http://www.w3.org/1999/02/22-rdf-syntax-ns#" xmlns:svg="http://www.w3.org/2000/svg" xmlns:xlink="http://www.w3.org/1999/xlink" xmlns:sodipodi="http://sodipodi.sourceforge.net/DTD/sodipodi-0.dtd" xmlns:inkscape="http://www.inkscape.org/namespaces/inkscape" version="1.1" x="0px" y="0px" width="135px" height="155px" viewBox="0 0 135 155" enable-background="new 0 0 135 155" xml:space="preserve" id="svg3857" inkscape:version="0.47 r22583" sodipodi:docname="Wikipedia-logo-v2-ch.svg" sodipodi:version="0.32" inkscape:output_extension="org.inkscape.output.svg.inkscape" xmlns:svgjs="http://svgjs.com/svgjs"><metadata id="metadata4852"><rdf:RDF><cc:Work rdf:about=""><dc:format>image/svg+xml</dc:format><dc:type rdf:resource="http://purl.org/dc/dcmitype/StillImage"></dc:type><dc:title></dc:title></cc:Work></rdf:RDF></metadata><defs id="defs4850"><inkscape:perspective sodipodi:type="inkscape:persp3d" inkscape:vp_x="0 : 77.5 : 1" inkscape:vp_y="0 : 1000 : 0" inkscape:vp_z="135 : 77.5 : 1" inkscape:persp3d-origin="67.5 : 51.666667 : 1" id="perspective4854"></inkscape:perspective>
	
		<radialGradient gradientUnits="userSpaceOnUse" gradientTransform="matrix(1,0,0,-1,192.3999,143.0996)" r="68.686401" cy="87.823196" cx="-145.4702" id="SVGID_1_">
		<stop id="stop3922" offset="0" style="stop-color:#FFFFFF"></stop>
		<stop id="stop3924" offset="0.4835" style="stop-color:#EAEAEB"></stop>
		<stop id="stop3926" offset="0.9451" style="stop-color:#A9ABAE"></stop>
		<stop id="stop3928" offset="1" style="stop-color:#999B9E"></stop>
	</radialGradient>
	
	
	<linearGradient y2="97.232101" x2="112.7331" y1="24.481001" x1="66.232399" gradientUnits="userSpaceOnUse" id="SVGID_2_">
		<stop id="stop3935" offset="0" style="stop-color:#8A8A8A"></stop>
		<stop id="stop3937" offset="0.5687" style="stop-color:#606060"></stop>
		<stop id="stop3939" offset="0.5914" style="stop-color:#FFFFFF"></stop>
		<stop id="stop3941" offset="0.6116" style="stop-color:#585858"></stop>
		<stop id="stop3943" offset="1" style="stop-color:#303030"></stop>
	</linearGradient>
	
	
	<linearGradient y2="65.136703" x2="83.798798" y1="65.136703" x1="54.715801" gradientUnits="userSpaceOnUse" id="SVGID_5_">
		<stop id="stop3964" offset="0" style="stop-color:#231F20"></stop>
		<stop id="stop3966" offset="1" style="stop-color:#474747"></stop>
	</linearGradient>
	
	
	
	
	
	
	
	
	
		<linearGradient gradientTransform="matrix(1,0,0,-1,192.3999,143.0996)" y2="29.9035" x2="-94.069099" y1="119.8076" x1="-123.5898" gradientUnits="userSpaceOnUse" id="SVGID_6_">
		<stop id="stop3997" offset="0" style="stop-color:#FFFFFF"></stop>
		<stop id="stop3999" offset="0.0094" style="stop-color:#FCFCFC"></stop>
		<stop id="stop4001" offset="0.0655" style="stop-color:#EEEEEE"></stop>
		<stop id="stop4003" offset="0.1342" style="stop-color:#E5E5E5"></stop>
		<stop id="stop4005" offset="0.2515" style="stop-color:#E3E3E3"></stop>
		<stop id="stop4007" offset="0.3357" style="stop-color:#8A8A8A"></stop>
		<stop id="stop4009" offset="0.4422" style="stop-color:#B8B8B8"></stop>
		<stop id="stop4011" offset="1" style="stop-color:#3B3B3B"></stop>
	</linearGradient>
	
	<linearGradient y2="87.626701" x2="119.5471" y1="26.876499" x1="70.421898" gradientUnits="userSpaceOnUse" id="SVGID_7_">
		<stop id="stop4016" offset="0" style="stop-color:#EFF0F0"></stop>
		<stop id="stop4018" offset="0.5914" style="stop-color:#F0F1F2"></stop>
		<stop id="stop4020" offset="0.599" style="stop-color:#787878"></stop>
		<stop id="stop4022" offset="0.6456" style="stop-color:#EEEFF0"></stop>
		<stop id="stop4024" offset="1" style="stop-color:#D8D9DB"></stop>
	</linearGradient>
	
	
		<linearGradient gradientTransform="matrix(1,0,0,-1,192.3999,143.0996)" y2="31.998501" x2="-87.569702" y1="122.1328" x1="-117.166" gradientUnits="userSpaceOnUse" id="SVGID_8_">
		<stop id="stop4029" offset="0" style="stop-color:#FFFFFF"></stop>
		<stop id="stop4031" offset="1" style="stop-color:#E4E5E6"></stop>
	</linearGradient>
	
	<linearGradient y2="106.3903" x2="79.683601" y1="25.2764" x1="54.653301" gradientUnits="userSpaceOnUse" id="SVGID_9_">
		<stop id="stop4036" offset="0" style="stop-color:#FFFFFF"></stop>
		<stop id="stop4038" offset="0.7473" style="stop-color:#F9F9F9"></stop>
		<stop id="stop4040" offset="1" style="stop-color:#D5D7D8"></stop>
	</linearGradient>
	
	
	
	
	
		<linearGradient gradientTransform="matrix(1,0,0,-1,192.3999,143.0996)" y2="24.6462" x2="-134.85719" y1="119.6328" x1="-115.3369" gradientUnits="userSpaceOnUse" id="SVGID_10_">
		<stop id="stop4061" offset="0" style="stop-color:#FFFFFF"></stop>
		<stop id="stop4063" offset="1" style="stop-color:#E4E5E6"></stop>
	</linearGradient>
	
	<linearGradient y2="92.496101" x2="37.2481" y1="33.077099" x1="32.519001" gradientUnits="userSpaceOnUse" id="SVGID_11_">
		<stop id="stop4068" offset="0.2198" style="stop-color:#989A9C"></stop>
		<stop id="stop4070" offset="0.2527" style="stop-color:#FFFFFF"></stop>
	</linearGradient>
	
	
		<linearGradient gradientTransform="matrix(1,0,0,-1,192.3999,143.0996)" y2="32.797901" x2="-171.9462" y1="126.8398" x1="-152.6201" gradientUnits="userSpaceOnUse" id="SVGID_12_">
		<stop id="stop4075" offset="0" style="stop-color:#FFFFFF"></stop>
		<stop id="stop4077" offset="1" style="stop-color:#E4E5E6"></stop>
	</linearGradient>
	
	
		<linearGradient gradientTransform="matrix(1,0,0,-1,192.3999,143.0996)" y2="35.585701" x2="-130.14281" y1="35.625" x1="-130.1348" gradientUnits="userSpaceOnUse" id="SVGID_13_">
		<stop id="stop4082" offset="0" style="stop-color:#FFFFFF"></stop>
		<stop id="stop4084" offset="1" style="stop-color:#E4E5E6"></stop>
	</linearGradient>
	
	
	
	
		<linearGradient gradientTransform="matrix(1,0,0,-1,192.3999,143.0996)" y2="25.888" x2="-140.54491" y1="120.3223" x1="-121.1382" gradientUnits="userSpaceOnUse" id="SVGID_14_">
		<stop id="stop4093" offset="0" style="stop-color:#FFFFFF"></stop>
		<stop id="stop4095" offset="1" style="stop-color:#E4E5E6"></stop>
	</linearGradient>
	
	
		<linearGradient gradientTransform="matrix(1,0,0,-1,192.3999,143.0996)" y2="28.8524" x2="-155.006" y1="123.3525" x1="-135.58591" gradientUnits="userSpaceOnUse" id="SVGID_15_">
		<stop id="stop4100" offset="0" style="stop-color:#FFFFFF"></stop>
		<stop id="stop4102" offset="1" style="stop-color:#E4E5E6"></stop>
	</linearGradient>
	
	
		<linearGradient gradientTransform="matrix(1,0,0,-1,192.3999,143.0996)" y2="27.1346" x2="-146.8837" y1="121.9365" x1="-127.4014" gradientUnits="userSpaceOnUse" id="SVGID_16_">
		<stop id="stop4107" offset="0" style="stop-color:#FFFFFF"></stop>
		<stop id="stop4109" offset="1" style="stop-color:#E4E5E6"></stop>
	</linearGradient>
	
	
		<linearGradient gradientTransform="matrix(1,0,0,-1,192.3999,143.0996)" y2="24.9438" x2="-138.85201" y1="124.0039" x1="-118.4946" gradientUnits="userSpaceOnUse" id="SVGID_17_">
		<stop id="stop4114" offset="0" style="stop-color:#FFFFFF"></stop>
		<stop id="stop4116" offset="1" style="stop-color:#E4E5E6"></stop>
	</linearGradient>
	
	
		<linearGradient gradientTransform="matrix(1,0,0,-1,192.3999,143.0996)" y2="24.695299" x2="-134.7878" y1="119.1758" x1="-115.3716" gradientUnits="userSpaceOnUse" id="SVGID_18_">
		<stop id="stop4121" offset="0" style="stop-color:#FFFFFF"></stop>
		<stop id="stop4123" offset="1" style="stop-color:#E4E5E6"></stop>
	</linearGradient>
	
	
	
	
	
	
	
	
	
	
	
	
		<linearGradient gradientTransform="matrix(1,0,0,-1,192.3999,143.0996)" y2="83.6045" x2="-75.6362" y1="83.6045" x1="-175.4424" gradientUnits="userSpaceOnUse" id="SVGID_21_">
		<stop id="stop4198" offset="0" style="stop-color:#555555"></stop>
		<stop id="stop4200" offset="1" style="stop-color:#231F20"></stop>
	</linearGradient>
	
	
		<linearGradient gradientTransform="matrix(1,0,0,-1,192.3999,143.0996)" y2="104.0801" x2="-83.541" y1="104.0801" x1="-175.14211" gradientUnits="userSpaceOnUse" id="SVGID_22_">
		<stop id="stop4205" offset="0" style="stop-color:#A0A0A0"></stop>
		<stop id="stop4207" offset="0.0769" style="stop-color:#656767"></stop>
		<stop id="stop4209" offset="1" style="stop-color:#717375"></stop>
	</linearGradient>
	
	
	
	
	
	
	
		<linearGradient gradientTransform="matrix(1,0,0,-1,192.3999,143.0996)" y2="78.209" x2="-172.3853" y1="78.209" x1="-172.3853" gradientUnits="userSpaceOnUse" id="SVGID_23_">
		<stop id="stop4224" offset="0" style="stop-color:#FFFFFF"></stop>
		<stop id="stop4226" offset="0.078" style="stop-color:#F4F4F4"></stop>
		<stop id="stop4228" offset="0.3807" style="stop-color:#CECECE"></stop>
		<stop id="stop4230" offset="0.5396" style="stop-color:#BFBFBF"></stop>
		<stop id="stop4232" offset="0.8357" style="stop-color:#7C7C7C"></stop>
		<stop id="stop4234" offset="0.8996" style="stop-color:#A8A8A8"></stop>
		<stop id="stop4236" offset="0.9093" style="stop-color:#9A9A9A"></stop>
		<stop id="stop4238" offset="0.9327" style="stop-color:#7D7D7D"></stop>
		<stop id="stop4240" offset="0.9558" style="stop-color:#686868"></stop>
		<stop id="stop4242" offset="0.9785" style="stop-color:#5B5B5B"></stop>
		<stop id="stop4244" offset="1" style="stop-color:#575757"></stop>
	</linearGradient>
	
	
		<linearGradient gradientTransform="matrix(1,0,0,-1,192.3999,143.0996)" y2="90.476799" x2="-67.153198" y1="78.449203" x1="-175.7173" gradientUnits="userSpaceOnUse" id="SVGID_24_">
		<stop id="stop4249" offset="0" style="stop-color:#FFFFFF"></stop>
		<stop id="stop4251" offset="0.078" style="stop-color:#F4F4F4"></stop>
		<stop id="stop4253" offset="0.3807" style="stop-color:#CECECE"></stop>
		<stop id="stop4255" offset="0.5396" style="stop-color:#BFBFBF"></stop>
		<stop id="stop4257" offset="0.8357" style="stop-color:#7C7C7C"></stop>
		<stop id="stop4259" offset="0.8996" style="stop-color:#A8A8A8"></stop>
		<stop id="stop4261" offset="0.9093" style="stop-color:#9A9A9A"></stop>
		<stop id="stop4263" offset="0.9327" style="stop-color:#7D7D7D"></stop>
		<stop id="stop4265" offset="0.9558" style="stop-color:#686868"></stop>
		<stop id="stop4267" offset="0.9785" style="stop-color:#5B5B5B"></stop>
		<stop id="stop4269" offset="1" style="stop-color:#575757"></stop>
	</linearGradient>
	
	
		<linearGradient gradientTransform="matrix(1,0,0,-1,192.3999,143.0996)" y2="92.223099" x2="-52.131699" y1="78.4795" x1="-176.1851" gradientUnits="userSpaceOnUse" id="SVGID_25_">
		<stop id="stop4274" offset="0" style="stop-color:#FFFFFF"></stop>
		<stop id="stop4276" offset="0.078" style="stop-color:#F4F4F4"></stop>
		<stop id="stop4278" offset="0.3807" style="stop-color:#CECECE"></stop>
		<stop id="stop4280" offset="0.5396" style="stop-color:#BFBFBF"></stop>
		<stop id="stop4282" offset="0.8357" style="stop-color:#7C7C7C"></stop>
		<stop id="stop4284" offset="0.8996" style="stop-color:#A8A8A8"></stop>
		<stop id="stop4286" offset="0.9093" style="stop-color:#9A9A9A"></stop>
		<stop id="stop4288" offset="0.9327" style="stop-color:#7D7D7D"></stop>
		<stop id="stop4290" offset="0.9558" style="stop-color:#686868"></stop>
		<stop id="stop4292" offset="0.9785" style="stop-color:#5B5B5B"></stop>
		<stop id="stop4294" offset="1" style="stop-color:#575757"></stop>
	</linearGradient>
	
	<linearGradient y2="51.952599" x2="117.1948" y1="71.326698" x1="21.2129" gradientUnits="userSpaceOnUse" id="SVGID_26_">
		<stop id="stop4299" offset="0" style="stop-color:#EDEDEE"></stop>
		<stop id="stop4301" offset="0.4176" style="stop-color:#FFFFFF"></stop>
		<stop id="stop4303" offset="0.6264" style="stop-color:#F8F9F9"></stop>
		<stop id="stop4305" offset="1" style="stop-color:#BFC0C2"></stop>
	</linearGradient>
	
	
	
	
	<linearGradient y2="30.732401" x2="27.9561" y1="30.732401" x1="23.471201" gradientUnits="userSpaceOnUse" id="SVGID_27_">
		<stop id="stop4316" offset="0" style="stop-color:#E2E3E4"></stop>
		<stop id="stop4318" offset="0.5055" style="stop-color:#FFFFFF"></stop>
	</linearGradient>
	
	
	
	
	
	
	
	
	
	
	
	
	
	
	
	
	
	
	
	
	
	
	
	
	
	
	
	
	
	
	
	
	
	
	
	
	
	
	
	
	
	
	
	
	
	
	
	
	
	
	
	
	
	
	
	
	
	
	
	
	
	
	
	
	
	
	
	
	
	
	
	
	
	
	
	
	
	
	
	
	
	
	
	
	
	
	
	
	
	
	
	
	
	
	
	
	
	
	
	
	
	
	
	
	
	
	
	
	
	
	
	
	
	
	
	
	
	
	
	
	
	
	
	
	
	
	
	
	
	
	
	
	
	
	
	
	
	
	
	
	
	
	
	
	
	
	
	
	
	
	
	
	
	
	
	
	
	
	
	
	
	
	
	
	
	
	
	
	
	
	
	
	
	
	
	
	
	
	<linearGradient y2="29.204" x2="111.5455" y1="49.7188" x1="22.5742" gradientUnits="userSpaceOnUse" id="SVGID_34_">
		<stop id="stop4743" offset="0" style="stop-color:#FFFFFF"></stop>
		<stop id="stop4745" offset="0.6538" style="stop-color:#FFFFFF"></stop>
		<stop id="stop4747" offset="1" style="stop-color:#CBCCCE"></stop>
	</linearGradient>
	
	
	
	
	
	
	
	
		<linearGradient gradientTransform="matrix(1,0,0,-1,192.3999,143.0996)" y2="107.0898" x2="-126.4229" y1="107.0898" x1="-158.8101" gradientUnits="userSpaceOnUse" id="SVGID_35_">
		<stop id="stop4770" offset="0" style="stop-color:#696969"></stop>
		<stop id="stop4772" offset="0.3702" style="stop-color:#2E2E2E"></stop>
		<stop id="stop4774" offset="0.4554" style="stop-color:#424242"></stop>
		<stop id="stop4776" offset="0.6014" style="stop-color:#303030"></stop>
		<stop id="stop4778" offset="0.6947" style="stop-color:#4A4A4A"></stop>
		<stop id="stop4780" offset="1" style="stop-color:#666666"></stop>
	</linearGradient>
	
	
		<linearGradient gradientTransform="matrix(1,0,0,-1,192.3999,143.0996)" y2="107.8965" x2="-126.5454" y1="107.8965" x1="-158.4185" gradientUnits="userSpaceOnUse" id="SVGID_36_">
		<stop id="stop4785" offset="0" style="stop-color:#525252"></stop>
		<stop id="stop4787" offset="0.1856" style="stop-color:#333333"></stop>
		<stop id="stop4789" offset="0.354" style="stop-color:#AEAEAE"></stop>
		<stop id="stop4791" offset="0.4199" style="stop-color:#ADADAD"></stop>
		<stop id="stop4793" offset="0.4276" style="stop-color:#9D9D9D"></stop>
		<stop id="stop4795" offset="0.4433" style="stop-color:#818181"></stop>
		<stop id="stop4797" offset="0.4611" style="stop-color:#6A6A6A"></stop>
		<stop id="stop4799" offset="0.4814" style="stop-color:#585858"></stop>
		<stop id="stop4801" offset="0.506" style="stop-color:#4C4C4C"></stop>
		<stop id="stop4803" offset="0.539" style="stop-color:#444444"></stop>
		<stop id="stop4805" offset="0.6166" style="stop-color:#424242"></stop>
		<stop id="stop4807" offset="0.6684" style="stop-color:#454545"></stop>
		<stop id="stop4809" offset="1" style="stop-color:#BDBDBD"></stop>
	</linearGradient>
	
	
		<linearGradient gradientTransform="matrix(1,0,0,-1,192.3999,143.0996)" y2="104.4332" x2="-154.15421" y1="97.627899" x1="-153.1255" gradientUnits="userSpaceOnUse" id="SVGID_37_">
		<stop id="stop4814" offset="0" style="stop-color:#969696"></stop>
		<stop id="stop4816" offset="1" style="stop-color:#000000"></stop>
	</linearGradient>
	
	
	
	<linearGradient y2="38.790001" x2="39.487301" y1="46.373001" x1="38.737301" gradientUnits="userSpaceOnUse" id="SVGID_38_">
		<stop id="stop4825" offset="0" style="stop-color:#333333"></stop>
		<stop id="stop4827" offset="0.431" style="stop-color:#000000"></stop>
		<stop id="stop4829" offset="1" style="stop-color:#2E2E2E"></stop>
	</linearGradient>
	
	
	
	
	
		<radialGradient gradientUnits="userSpaceOnUse" gradientTransform="matrix(1,0,0,-1,192.3999,143.0996)" r="72.751701" cy="106.5996" cx="-138.2334" id="SVGID_39_">
		<stop id="stop4840" offset="0" style="stop-color:#000000;stop-opacity:0"></stop>
		<stop id="stop4842" offset="0.80220002" style="stop-color:#000000;stop-opacity:0.08"></stop>
		<stop id="stop4844" offset="1" style="stop-color:#000000;stop-opacity:0.3882353"></stop>
	</radialGradient>
	
<radialGradient inkscape:collect="always" xlink:href="#SVGID_39_" id="radialGradient5007" gradientUnits="userSpaceOnUse" gradientTransform="matrix(1,0,0,-1,192.3999,143.0996)" cx="-138.2334" cy="106.5996" r="72.751701"></radialGradient><linearGradient inkscape:collect="always" xlink:href="#SVGID_38_" id="linearGradient5013" gradientUnits="userSpaceOnUse" x1="38.737301" y1="46.373001" x2="39.487301" y2="38.790001"></linearGradient><linearGradient inkscape:collect="always" xlink:href="#SVGID_37_" id="linearGradient5018" gradientUnits="userSpaceOnUse" gradientTransform="matrix(1,0,0,-1,192.3999,143.0996)" x1="-153.1255" y1="97.627899" x2="-154.15421" y2="104.4332"></linearGradient><linearGradient inkscape:collect="always" xlink:href="#SVGID_36_" id="linearGradient5021" gradientUnits="userSpaceOnUse" gradientTransform="matrix(1,0,0,-1,192.3999,143.0996)" x1="-158.4185" y1="107.8965" x2="-126.5454" y2="107.8965"></linearGradient><linearGradient inkscape:collect="always" xlink:href="#SVGID_35_" id="linearGradient5024" gradientUnits="userSpaceOnUse" gradientTransform="matrix(1,0,0,-1,192.3999,143.0996)" x1="-158.8101" y1="107.0898" x2="-126.4229" y2="107.0898"></linearGradient><linearGradient inkscape:collect="always" xlink:href="#SVGID_34_" id="linearGradient5036" gradientUnits="userSpaceOnUse" x1="22.5742" y1="49.7188" x2="111.5455" y2="29.204"></linearGradient><linearGradient inkscape:collect="always" xlink:href="#SVGID_27_" id="linearGradient5252" gradientUnits="userSpaceOnUse" x1="23.471201" y1="30.732401" x2="27.9561" y2="30.732401"></linearGradient><linearGradient inkscape:collect="always" xlink:href="#SVGID_26_" id="linearGradient5258" gradientUnits="userSpaceOnUse" x1="21.2129" y1="71.326698" x2="117.1948" y2="51.952599"></linearGradient><linearGradient inkscape:collect="always" xlink:href="#SVGID_25_" id="linearGradient5261" gradientUnits="userSpaceOnUse" gradientTransform="matrix(1,0,0,-1,192.3999,143.0996)" x1="-176.1851" y1="78.4795" x2="-52.131699" y2="92.223099"></linearGradient><linearGradient inkscape:collect="always" xlink:href="#SVGID_24_" id="linearGradient5264" gradientUnits="userSpaceOnUse" gradientTransform="matrix(1,0,0,-1,192.3999,143.0996)" x1="-175.7173" y1="78.449203" x2="-67.153198" y2="90.476799"></linearGradient><linearGradient inkscape:collect="always" xlink:href="#SVGID_23_" id="linearGradient5267" gradientUnits="userSpaceOnUse" gradientTransform="matrix(1,0,0,-1,192.3999,143.0996)" x1="-172.3853" y1="78.209" x2="-172.3853" y2="78.209"></linearGradient><linearGradient inkscape:collect="always" xlink:href="#SVGID_22_" id="linearGradient5275" gradientUnits="userSpaceOnUse" gradientTransform="matrix(1,0,0,-1,192.3999,143.0996)" x1="-175.14211" y1="104.0801" x2="-83.541" y2="104.0801"></linearGradient><linearGradient inkscape:collect="always" xlink:href="#SVGID_21_" id="linearGradient5278" gradientUnits="userSpaceOnUse" gradientTransform="matrix(1,0,0,-1,192.3999,143.0996)" x1="-175.4424" y1="83.6045" x2="-75.6362" y2="83.6045"></linearGradient><linearGradient inkscape:collect="always" xlink:href="#SVGID_18_" id="linearGradient5317" gradientUnits="userSpaceOnUse" gradientTransform="matrix(1,0,0,-1,192.3999,143.0996)" x1="-115.3716" y1="119.1758" x2="-134.7878" y2="24.695299"></linearGradient><linearGradient inkscape:collect="always" xlink:href="#SVGID_17_" id="linearGradient5320" gradientUnits="userSpaceOnUse" gradientTransform="matrix(1,0,0,-1,192.3999,143.0996)" x1="-118.4946" y1="124.0039" x2="-138.85201" y2="24.9438"></linearGradient><linearGradient inkscape:collect="always" xlink:href="#SVGID_16_" id="linearGradient5323" gradientUnits="userSpaceOnUse" gradientTransform="matrix(1,0,0,-1,192.3999,143.0996)" x1="-127.4014" y1="121.9365" x2="-146.8837" y2="27.1346"></linearGradient><linearGradient inkscape:collect="always" xlink:href="#SVGID_15_" id="linearGradient5326" gradientUnits="userSpaceOnUse" gradientTransform="matrix(1,0,0,-1,192.3999,143.0996)" x1="-135.58591" y1="123.3525" x2="-155.006" y2="28.8524"></linearGradient><linearGradient inkscape:collect="always" xlink:href="#SVGID_14_" id="linearGradient5329" gradientUnits="userSpaceOnUse" gradientTransform="matrix(1,0,0,-1,192.3999,143.0996)" x1="-121.1382" y1="120.3223" x2="-140.54491" y2="25.888"></linearGradient><linearGradient inkscape:collect="always" xlink:href="#SVGID_13_" id="linearGradient5334" gradientUnits="userSpaceOnUse" gradientTransform="matrix(1,0,0,-1,192.3999,143.0996)" x1="-130.1348" y1="35.625" x2="-130.14281" y2="35.585701"></linearGradient><linearGradient inkscape:collect="always" xlink:href="#SVGID_12_" id="linearGradient5337" gradientUnits="userSpaceOnUse" gradientTransform="matrix(1,0,0,-1,192.3999,143.0996)" x1="-152.6201" y1="126.8398" x2="-171.9462" y2="32.797901"></linearGradient><linearGradient inkscape:collect="always" xlink:href="#SVGID_11_" id="linearGradient5340" gradientUnits="userSpaceOnUse" x1="32.519001" y1="33.077099" x2="37.2481" y2="92.496101"></linearGradient><linearGradient inkscape:collect="always" xlink:href="#SVGID_10_" id="linearGradient5343" gradientUnits="userSpaceOnUse" gradientTransform="matrix(1,0,0,-1,192.3999,143.0996)" x1="-115.3369" y1="119.6328" x2="-134.85719" y2="24.6462"></linearGradient><linearGradient inkscape:collect="always" xlink:href="#SVGID_9_" id="linearGradient5354" gradientUnits="userSpaceOnUse" x1="54.653301" y1="25.2764" x2="79.683601" y2="106.3903"></linearGradient><linearGradient inkscape:collect="always" xlink:href="#SVGID_8_" id="linearGradient5357" gradientUnits="userSpaceOnUse" gradientTransform="matrix(1,0,0,-1,192.3999,143.0996)" x1="-117.166" y1="122.1328" x2="-87.569702" y2="31.998501"></linearGradient><linearGradient inkscape:collect="always" xlink:href="#SVGID_7_" id="linearGradient5360" gradientUnits="userSpaceOnUse" x1="70.421898" y1="26.876499" x2="119.5471" y2="87.626701"></linearGradient><linearGradient inkscape:collect="always" xlink:href="#SVGID_6_" id="linearGradient5363" gradientUnits="userSpaceOnUse" gradientTransform="matrix(1,0,0,-1,192.3999,143.0996)" x1="-123.5898" y1="119.8076" x2="-94.069099" y2="29.9035"></linearGradient><linearGradient inkscape:collect="always" xlink:href="#SVGID_5_" id="linearGradient5379" gradientUnits="userSpaceOnUse" x1="54.715801" y1="65.136703" x2="83.798798" y2="65.136703"></linearGradient><linearGradient inkscape:collect="always" xlink:href="#SVGID_2_" id="linearGradient5391" gradientUnits="userSpaceOnUse" x1="66.232399" y1="24.481001" x2="112.7331" y2="97.232101"></linearGradient><radialGradient inkscape:collect="always" xlink:href="#SVGID_1_" id="radialGradient5395" gradientUnits="userSpaceOnUse" gradientTransform="matrix(1,0,0,-1,192.3999,143.0996)" cx="-145.4702" cy="87.823196" r="68.686401"></radialGradient>
	
	
<inkscape:perspective id="perspective10537" inkscape:persp3d-origin="0.5 : 0.33333333 : 1" inkscape:vp_z="1 : 0.5 : 1" inkscape:vp_y="0 : 1000 : 0" inkscape:vp_x="0 : 0.5 : 1" sodipodi:type="inkscape:persp3d"></inkscape:perspective><inkscape:perspective id="perspective3399" inkscape:persp3d-origin="0.5 : 0.33333333 : 1" inkscape:vp_z="1 : 0.5 : 1" inkscape:vp_y="0 : 1000 : 0" inkscape:vp_x="0 : 0.5 : 1" sodipodi:type="inkscape:persp3d"></inkscape:perspective>
		
		
		
		
		
		
		
		
		
		
		
	<inkscape:perspective id="perspective3446" inkscape:persp3d-origin="0.5 : 0.33333333 : 1" inkscape:vp_z="1 : 0.5 : 1" inkscape:vp_y="0 : 1000 : 0" inkscape:vp_x="0 : 0.5 : 1" sodipodi:type="inkscape:persp3d"></inkscape:perspective></defs><sodipodi:namedview pagecolor="#ffffff" bordercolor="#666666" borderopacity="1" objecttolerance="10" gridtolerance="10" guidetolerance="10" inkscape:pageopacity="0" inkscape:pageshadow="2" inkscape:window-width="1198" inkscape:window-height="730" id="namedview4848" showgrid="false" inkscape:zoom="4.9190713" inkscape:cx="91.549561" inkscape:cy="85.250216" inkscape:window-x="82" inkscape:window-y="19" inkscape:window-maximized="0" inkscape:current-layer="svg3857" showguides="true" inkscape:guide-bbox="true"><sodipodi:guide orientation="0,1" position="0,140" id="globe_top"></sodipodi:guide><sodipodi:guide orientation="1,0" position="16,0" id="globe_left"></sodipodi:guide><sodipodi:guide orientation="1,0" position="119,0" id="globe_right"></sodipodi:guide><sodipodi:guide id="globe_bottom" position="0,47" orientation="0,1"></sodipodi:guide><sodipodi:guide orientation="0,1" position="8,40" id="wordmark_top"></sodipodi:guide><sodipodi:guide orientation="0,1" position="8,22.5" id="wordmark_bottom"></sodipodi:guide><sodipodi:guide orientation="0,1" position="0,17" id="subtitle_top"></sodipodi:guide><sodipodi:guide orientation="0,1" position="0,8" id="subtitle_bottom"></sodipodi:guide><sodipodi:guide orientation="1,0" position="8,40" id="wordmark_left"></sodipodi:guide><sodipodi:guide orientation="1,0" position="127,40" id="wordmark_right"></sodipodi:guide></sodipodi:namedview><g id="g4265" transform="matrix(1.0564711,0,0,1,-3.8595255,0.87479)"><path id="path4191" d="m 9.4809791,146.4291 c -0.7780066,-0.15797 -1.36463,-0.65991 -1.7803579,-1.52335 -0.3362158,-0.6983 -0.4930907,-1.50864 -0.4949424,-2.55662 -0.00205,-1.16283 0.176706,-2.0774 0.5666394,-2.89904 0.4886964,-1.02973 1.1490228,-1.54865 1.9631108,-1.54271 0.531142,0.004 0.994209,0.2175 1.429766,0.65959 0.559707,0.56811 0.933746,1.39804 1.090654,2.41999 0.218509,1.42315 0.01467,3.0414 -0.50968,4.04621 -0.182665,0.35004 -0.330503,0.55705 -0.567847,0.79514 -0.314719,0.31571 -0.639812,0.49584 -1.046447,0.57984 -0.1606642,0.0332 -0.5318076,0.0451 -0.6508959,0.0209 z m 0.7334239,-0.44133 c 0.326508,-0.10162 0.604899,-0.37624 0.838939,-0.82757 0.323733,-0.62431 0.487869,-1.43314 0.516352,-2.5445 0.04699,-1.83339 -0.298676,-3.19692 -0.983345,-3.87898 -0.256451,-0.25548 -0.543239,-0.39359 -0.8807726,-0.42418 -0.3152989,-0.0286 -0.5658496,0.0773 -0.8225295,0.34748 -0.5235805,0.55117 -0.7970082,1.38971 -0.8947045,2.74387 -0.034225,0.4744 -0.015621,1.38955 0.036257,1.78348 0.1191087,0.90443 0.3176357,1.50163 0.6802754,2.04635 0.265186,0.39834 0.6331483,0.69796 0.9477901,0.77176 0.1615939,0.0379 0.4080401,0.0301 0.5617381,-0.0177 l 0,0 z" style="fill:#000000;fill-opacity:1;fill-rule:nonzero;stroke:#000000;stroke-width:0.00727;stroke-linecap:butt;stroke-linejoin:miter;stroke-miterlimit:3;stroke-opacity:1;stroke-dasharray:none"></path><path id="path4193" d="m 12.705585,149.26775 c -0.0072,-0.0267 -0.01318,-0.0995 -0.01336,-0.16185 -4.06e-4,-0.139 0.04383,-0.18954 0.165898,-0.18954 0.04954,0 0.138725,-0.0245 0.198194,-0.0545 0.144105,-0.0727 0.207914,-0.20285 0.240533,-0.49073 0.03404,-0.30037 0.03371,-6.34236 -3.56e-4,-6.55229 -0.04378,-0.26978 -0.122179,-0.35755 -0.37235,-0.41685 -0.06776,-0.0161 -0.131212,-0.0413 -0.141004,-0.056 -0.0098,-0.0147 -0.01797,-0.0883 -0.01818,-0.16351 l -3.71e-4,-0.13673 0.175691,-0.0412 c 0.318788,-0.0748 0.585143,-0.1606 0.765295,-0.24649 0.0977,-0.0466 0.194086,-0.0784 0.214189,-0.0707 0.03123,0.012 0.03536,0.0819 0.02835,0.47985 -0.0098,0.55818 0.0014,0.57677 0.185182,0.30772 0.245079,-0.35868 0.602236,-0.65969 0.8778,-0.7398 0.316413,-0.092 0.734206,0.11814 1.011104,0.50851 0.45041,0.635 0.653619,1.64323 0.545871,2.70837 -0.114583,1.1327 -0.58422,2.05557 -1.20157,2.36116 -0.368954,0.18263 -0.819708,0.17613 -1.203022,-0.0174 -0.07909,-0.0399 -0.159806,-0.0664 -0.179362,-0.0589 -0.03073,0.0118 -0.0343,0.16433 -0.02632,1.12242 0.008,0.96515 0.01461,1.12508 0.05075,1.23468 0.06668,0.20226 0.257011,0.3224 0.510727,0.3224 0.05958,0 0.09292,0.0142 0.110435,0.0469 0.02862,0.0535 0.03337,0.29223 0.0065,0.32874 -0.01134,0.0154 -0.362467,0.0242 -0.96772,0.0242 -0.929417,0 -0.950197,-0.001 -0.962943,-0.0485 l 0,0 z m 2.422304,-3.33055 c 0.187388,-0.0922 0.369552,-0.28365 0.469722,-0.49353 0.172799,-0.36207 0.28994,-0.94518 0.310096,-1.54361 0.04289,-1.27353 -0.261403,-2.31158 -0.748828,-2.55447 -0.155821,-0.0776 -0.300103,-0.0812 -0.438408,-0.0108 -0.236629,0.12049 -0.652226,0.63177 -0.732065,0.90062 -0.03061,0.10306 -0.03638,0.35617 -0.03638,1.59514 0,0.95813 0.0091,1.51505 0.02603,1.59403 0.03169,0.14777 0.181127,0.38579 0.291597,0.46445 0.233537,0.16629 0.578899,0.18567 0.858231,0.0481 l 0,0 z" style="fill:#000000;fill-opacity:1;fill-rule:nonzero;stroke:#000000;stroke-width:0.00727;stroke-linecap:butt;stroke-linejoin:miter;stroke-miterlimit:3;stroke-opacity:1;stroke-dasharray:none"></path><path id="path4196" d="m 17.93356,146.40077 c -0.313342,-0.11158 -0.523538,-0.35411 -0.624508,-0.7206 -0.06207,-0.2253 -0.07636,-0.73384 -0.02741,-0.97544 0.08058,-0.39766 0.261024,-0.71315 0.580164,-1.01434 0.256098,-0.2417 0.472416,-0.36395 1.005036,-0.56802 0.234467,-0.0898 0.441519,-0.18334 0.460115,-0.20778 0.02714,-0.0357 0.03064,-0.1137 0.01772,-0.39583 -0.02025,-0.44233 -0.08381,-0.82055 -0.170242,-1.01316 -0.07348,-0.16373 -0.255577,-0.3553 -0.363488,-0.38238 -0.126956,-0.0319 -0.392066,0.005 -0.53254,0.0734 -0.262887,0.12862 -0.328705,0.30053 -0.279296,0.72949 l 0.03156,0.27401 -0.06616,0.13522 c -0.06679,0.13652 -0.106864,0.17173 -0.238333,0.20944 -0.100925,0.0289 -0.22209,-0.0267 -0.276892,-0.12711 -0.06577,-0.12053 -0.05844,-0.46601 0.0143,-0.67438 0.112404,-0.32197 0.343934,-0.62015 0.628133,-0.80895 0.232642,-0.15456 0.428139,-0.21611 0.694846,-0.21878 0.195965,-0.002 0.234135,0.005 0.376101,0.0727 0.202728,0.0961 0.43085,0.30728 0.527269,0.48818 0.102828,0.19293 0.186374,0.49473 0.236721,0.85514 0.03536,0.25315 0.04339,0.53115 0.04933,1.7079 0.0086,1.70259 0.01544,1.79428 0.145509,1.94886 0.112105,0.13323 0.31697,0.11652 0.396645,-0.0324 0.04473,-0.0836 0.06676,-0.0791 0.11576,0.0237 0.04012,0.0841 0.03965,0.0892 -0.01857,0.19929 -0.03285,0.0621 -0.119714,0.1741 -0.19302,0.24885 -0.241295,0.24602 -0.525823,0.28399 -0.769922,0.10274 -0.08611,-0.0639 -0.220501,-0.31048 -0.271385,-0.49787 -0.01719,-0.0633 -0.04004,-0.11511 -0.05078,-0.11511 -0.01074,0 -0.08427,0.0791 -0.163401,0.1757 -0.189288,0.23115 -0.382756,0.41161 -0.515318,0.48067 -0.149921,0.0781 -0.533674,0.0925 -0.717955,0.0268 l 0,0 z m 0.846484,-0.55345 c 0.149667,-0.0945 0.44537,-0.41023 0.514954,-0.54987 l 0.06106,-0.12254 0,-0.9161 c 0,-0.63722 -0.0079,-0.91611 -0.02605,-0.91611 -0.06001,0 -0.745411,0.30163 -0.863478,0.38 -0.353522,0.23466 -0.531344,0.60857 -0.556864,1.17093 -0.01427,0.3144 0.02234,0.52594 0.124795,0.72116 0.102044,0.19443 0.184233,0.268 0.345021,0.30883 0.138753,0.0352 0.260686,0.012 0.400562,-0.0763 z" style="fill:#000000;fill-opacity:1;fill-rule:nonzero;stroke:#000000;stroke-width:0.00727;stroke-linecap:butt;stroke-linejoin:miter;stroke-miterlimit:3;stroke-opacity:1;stroke-dasharray:none"></path><path id="path4198" d="m 20.943229,146.32321 c -0.02552,-0.0413 -0.03564,-0.19595 -0.01822,-0.2785 0.01998,-0.0946 0.02334,-0.0973 0.14234,-0.11194 0.236227,-0.0291 0.356388,-0.12107 0.423549,-0.32426 0.04419,-0.13367 0.06246,-3.65783 0.02003,-3.86223 -0.04016,-0.19346 -0.153739,-0.30329 -0.354475,-0.34278 l -0.148407,-0.0292 -0.01681,-0.14486 c -0.0092,-0.0797 -0.0074,-0.15421 0.004,-0.16563 0.01145,-0.0114 0.168065,-0.0585 0.348043,-0.1046 0.179978,-0.0461 0.435169,-0.13014 0.567091,-0.18673 0.231773,-0.0994 0.240999,-0.10133 0.273703,-0.0568 0.01861,0.0254 0.02715,0.0679 0.01897,0.0946 -0.0082,0.0267 -0.02097,0.97539 -0.02843,2.10829 -0.01604,2.43729 -0.0026,2.6997 0.14733,2.86879 0.06838,0.0771 0.225102,0.14708 0.331063,0.14773 0.04732,3e-4 0.09911,0.0136 0.115108,0.0296 0.03152,0.0315 0.03988,0.3066 0.01053,0.34654 -0.01814,0.0247 -1.820292,0.0364 -1.835417,0.0119 l 0,0 z" style="fill:#000000;fill-opacity:1;fill-rule:nonzero;stroke:#000000;stroke-width:0.00727;stroke-linecap:butt;stroke-linejoin:miter;stroke-miterlimit:3;stroke-opacity:1;stroke-dasharray:none"></path><path id="path4200" d="m 21.704661,139.24054 c -0.182208,-0.12279 -0.29433,-0.49666 -0.227404,-0.75828 0.06605,-0.25821 0.261055,-0.46559 0.409919,-0.43595 0.118737,0.0237 0.175634,0.0774 0.257101,0.24288 0.141573,0.28757 0.122172,0.59559 -0.05272,0.83702 -0.06712,0.0927 -0.190205,0.16952 -0.271452,0.16952 -0.01845,0 -0.0704,-0.0248 -0.115444,-0.0552 l 0,0 z" style="fill:#000000;fill-opacity:1;fill-rule:nonzero;stroke:#000000;stroke-width:0.00727;stroke-linecap:butt;stroke-linejoin:miter;stroke-miterlimit:3;stroke-opacity:1;stroke-dasharray:none"></path><path id="path4203" d="m 24.116554,146.41894 c -0.159425,-0.0671 -0.305215,-0.28223 -0.380627,-0.56157 -0.0368,-0.13633 -0.04186,-0.37768 -0.04926,-2.3511 l -0.0082,-2.19917 -0.265603,0 -0.265603,0 0,-0.14618 c 0,-0.0804 0.0158,-0.184 0.03511,-0.23022 l 0.03511,-0.084 0.23417,0 0.23417,0 -0.0088,-0.77174 c -0.0071,-0.62447 -0.0025,-0.7793 0.02414,-0.8114 0.0374,-0.0451 0.491905,-0.37345 0.545207,-0.3939 0.01921,-0.007 0.0442,9.7e-4 0.05555,0.0185 0.01134,0.0176 0.01657,0.46542 0.01162,0.99522 l -0.009,0.96328 0.523962,0 0.523962,0 0,0.18175 c 0,0.28253 0.0079,0.27868 -0.569483,0.27868 l -0.47255,0 0,1.91268 c 0,2.18726 0.01089,2.36003 0.15742,2.49769 0.05146,0.0483 0.07615,0.0537 0.191344,0.0419 0.172832,-0.0178 0.310784,-0.0808 0.481218,-0.21962 0.07627,-0.0621 0.150282,-0.11295 0.164479,-0.11295 0.0142,0 0.04245,0.0398 0.06279,0.0885 l 0.03698,0.0885 -0.137444,0.20234 c -0.265193,0.39041 -0.590326,0.61439 -0.91441,0.62993 -0.09661,0.005 -0.202923,-0.003 -0.236243,-0.0171 z" style="fill:#000000;fill-opacity:1;fill-rule:nonzero;stroke:#000000;stroke-width:0.00727;stroke-linecap:butt;stroke-linejoin:miter;stroke-miterlimit:3;stroke-opacity:1;stroke-dasharray:none"></path><path id="path4205" d="m 27.119519,146.40014 c -0.215073,-0.0562 -0.408731,-0.17774 -0.588056,-0.36924 -0.169647,-0.18116 -0.273798,-0.34626 -0.394385,-0.62518 -0.41095,-0.95052 -0.354638,-2.68422 0.117777,-3.62607 0.199347,-0.39744 0.547902,-0.79411 0.815124,-0.92764 0.231374,-0.11562 0.371962,-0.13652 0.624813,-0.0929 0.288257,0.0497 0.523465,0.16785 0.683959,0.34346 0.275356,0.30128 0.451828,0.88057 0.479405,1.57369 0.01344,0.33775 0.01108,0.36764 -0.03327,0.42191 l -0.04773,0.0584 -1.130755,-0.006 -1.130754,-0.006 5.8e-5,0.0926 c 3.2e-5,0.0509 0.01108,0.23978 0.02456,0.41971 0.08226,1.09831 0.427049,1.90318 0.910014,2.12429 0.124751,0.0571 0.158094,0.0619 0.352352,0.0509 0.165613,-0.009 0.244403,-0.0268 0.345365,-0.0762 0.154788,-0.0757 0.34113,-0.25251 0.476878,-0.45241 0.0538,-0.0792 0.107518,-0.14403 0.119382,-0.14403 0.03281,0 0.122023,0.1224 0.122023,0.16743 0,0.0551 -0.196668,0.39492 -0.307595,0.53153 -0.330094,0.4065 -0.665175,0.587 -1.084161,0.58401 -0.10754,-7.7e-4 -0.267295,-0.0201 -0.355011,-0.043 l 1e-6,0 z m 0.998785,-3.73772 c 0.07008,-0.0375 0.08004,-0.13221 0.04951,-0.47109 -0.0477,-0.52964 -0.16028,-0.80844 -0.391001,-0.96833 -0.145328,-0.10072 -0.361129,-0.11484 -0.522586,-0.0342 -0.333954,0.16678 -0.525349,0.50819 -0.642677,1.14641 -0.02714,0.1476 -0.05501,0.29464 -0.06193,0.32675 l -0.01259,0.0584 0.768316,-0.017 c 0.422573,-0.009 0.788405,-0.0278 0.812959,-0.0409 z" style="fill:#000000;fill-opacity:1;fill-rule:nonzero;stroke:#000000;stroke-width:0.00727;stroke-linecap:butt;stroke-linejoin:miter;stroke-miterlimit:3;stroke-opacity:1;stroke-dasharray:none"></path><path id="path4207" d="m 32.392431,146.36835 c -0.09311,-0.0626 -0.139277,-0.11758 -0.200468,-0.23882 -0.158612,-0.31427 -0.157189,-0.29169 -0.168441,-2.67172 l -0.01017,-2.15071 -0.255385,0 -0.255384,0 0.0086,-0.19016 c 0.01177,-0.25912 0.02374,-0.27027 0.290263,-0.27027 l 0.215133,0 0,-0.77084 c 0,-0.58007 0.0075,-0.78032 0.03029,-0.80917 0.04222,-0.0534 0.540809,-0.40713 0.57391,-0.40713 0.05421,0 0.06453,0.11762 0.04787,0.54525 -0.0093,0.23991 -0.01812,0.66227 -0.0195,0.93857 l -0.0025,0.50237 0.527074,0.007 0.527075,0.007 0.0072,0.16357 c 0.0064,0.14719 0.0011,0.16964 -0.05342,0.22416 -0.0605,0.0605 -0.06131,0.0606 -0.53424,0.0606 l -0.473651,0 3.83e-4,1.77509 c 4.66e-4,2.15308 0.02017,2.47319 0.16167,2.62586 0.05457,0.0589 0.07145,0.0633 0.197527,0.0519 0.173792,-0.0158 0.335782,-0.0913 0.486816,-0.22713 0.06487,-0.0583 0.129352,-0.10604 0.143298,-0.10604 0.03686,0 0.100818,0.0996 0.100728,0.15685 -1.16e-4,0.0734 -0.172324,0.31886 -0.351308,0.5007 -0.222106,0.22565 -0.446839,0.34122 -0.690334,0.35502 -0.174206,0.01 -0.187285,0.007 -0.303034,-0.071 l 0,0 z" style="fill:#000000;fill-opacity:1;fill-rule:nonzero;stroke:#000000;stroke-width:0.00727;stroke-linecap:butt;stroke-linejoin:miter;stroke-miterlimit:3;stroke-opacity:1;stroke-dasharray:none"></path><path id="path4209" d="m 35.488395,146.40721 c -0.499354,-0.13449 -0.873755,-0.56221 -1.091558,-1.24701 -0.319069,-1.00321 -0.223522,-2.52445 0.213131,-3.39334 0.207654,-0.41321 0.558404,-0.79302 0.868223,-0.94015 0.1529,-0.0726 0.204395,-0.085 0.351957,-0.085 0.49419,2.3e-4 0.897572,0.23826 1.090307,0.64338 0.171241,0.35993 0.266996,0.78067 0.296613,1.30328 0.01736,0.30639 -0.01682,0.45821 -0.104156,0.46265 -0.02401,0.001 -0.538829,3e-4 -1.144054,-0.002 l -1.10041,-0.004 0.0155,0.35948 c 0.04259,0.98793 0.29912,1.76676 0.701761,2.13059 0.192232,0.17371 0.296855,0.21154 0.551325,0.19937 0.176743,-0.008 0.237319,-0.0229 0.369669,-0.088 0.169342,-0.0834 0.363781,-0.27087 0.491656,-0.47411 0.08061,-0.12813 0.121419,-0.13308 0.18596,-0.0226 0.04477,0.0767 0.04468,0.0776 -0.02,0.2059 -0.173793,0.34476 -0.498352,0.71036 -0.754287,0.84965 -0.247917,0.13494 -0.639001,0.17829 -0.921635,0.10218 l 0,0 z m 0.510723,-3.71067 c 0.343788,-0.012 0.464992,-0.0244 0.490725,-0.0501 0.07954,-0.0795 0.02296,-0.76119 -0.08774,-1.05705 -0.0588,-0.15717 -0.211636,-0.33869 -0.340509,-0.40444 -0.11593,-0.0591 -0.333058,-0.0631 -0.441476,-0.008 -0.116847,0.0593 -0.280203,0.19878 -0.356998,0.3048 -0.138844,0.19167 -0.288781,0.6698 -0.349931,1.11589 l -0.01578,0.11511 0.322577,-7e-5 c 0.177417,-4e-5 0.528024,-0.007 0.779127,-0.016 l 0,0 z" style="fill:#000000;fill-opacity:1;fill-rule:nonzero;stroke:#000000;stroke-width:0.00727;stroke-linecap:butt;stroke-linejoin:miter;stroke-miterlimit:3;stroke-opacity:1;stroke-dasharray:none"></path><path id="path4214" d="m 37.773605,146.28705 c -0.02073,-0.0771 -0.01576,-0.22161 0.0099,-0.28923 0.01881,-0.0495 0.04004,-0.0622 0.103915,-0.0622 0.112041,0 0.28613,-0.094 0.34875,-0.18825 0.109504,-0.16487 0.117418,-0.31226 0.117418,-2.18661 0,-1.69653 -0.0017,-1.76148 -0.04847,-1.88963 -0.0584,-0.15992 -0.148794,-0.22919 -0.354518,-0.27168 l -0.142265,-0.0294 0,-0.16432 c 0,-0.15943 0.002,-0.16478 0.06664,-0.17949 0.465829,-0.10604 0.711947,-0.18191 0.908059,-0.27995 0.156683,-0.0783 0.201502,-0.0851 0.221375,-0.0333 0.0076,0.0198 0.0026,0.25599 -0.01119,0.52484 -0.02376,0.46422 -0.01888,0.60291 0.02119,0.60186 0.0097,-2.6e-4 0.05878,-0.0707 0.10897,-0.15653 0.140229,-0.23982 0.360905,-0.52067 0.547219,-0.69643 0.545735,-0.51482 1.180734,-0.27762 1.382371,0.51637 0.02359,0.0929 0.05408,0.18009 0.06775,0.19375 0.01698,0.017 0.07679,-0.0484 0.188811,-0.20645 0.483123,-0.68156 1.093177,-0.94854 1.538509,-0.67331 0.211848,0.13093 0.323567,0.34129 0.411047,0.77397 0.08235,0.40729 0.09818,0.77401 0.09862,2.28469 4.34e-4,1.47182 0.0111,1.69494 0.08885,1.85878 0.04749,0.10009 0.169595,0.1762 0.316327,0.19719 0.107729,0.0154 0.115395,0.0215 0.135833,0.10792 0.01191,0.0504 0.01477,0.13754 0.0064,0.19369 l -0.01531,0.1021 -0.841532,-0.002 -0.841533,-0.002 0,-0.19185 0,-0.19185 0.11216,-0.016 c 0.202078,-0.0289 0.289406,-0.10942 0.351515,-0.32411 0.03735,-0.12909 0.04305,-0.31497 0.05169,-1.68392 0.0098,-1.56082 -0.0032,-1.91762 -0.07941,-2.17429 -0.04543,-0.15297 -0.123725,-0.26892 -0.230542,-0.34141 -0.07271,-0.0493 -0.107469,-0.056 -0.253874,-0.0488 -0.324584,0.0159 -0.603897,0.21995 -0.88051,0.64314 l -0.129276,0.19777 0.01062,1.63122 c 0.01099,1.68839 0.01728,1.79563 0.114388,1.94949 0.04501,0.0713 0.150005,0.12918 0.272325,0.15006 0.09695,0.0165 0.103889,0.0232 0.119361,0.11389 0.009,0.053 0.01079,0.13994 0.0039,0.19325 l -0.01252,0.0969 -0.820227,0 c -0.922703,0 -0.845862,0.0169 -0.846614,-0.18623 -5.93e-4,-0.15998 0.03114,-0.2054 0.153093,-0.21914 0.125123,-0.0141 0.243802,-0.0896 0.294208,-0.18702 0.07486,-0.14477 0.08514,-0.38323 0.08532,-1.98027 1.94e-4,-1.71028 -0.0066,-1.82712 -0.12109,-2.08606 -0.128101,-0.2897 -0.363209,-0.39172 -0.626944,-0.27205 -0.218912,0.0993 -0.659299,0.64879 -0.741293,0.92489 -0.03164,0.10654 -0.03716,0.34253 -0.03701,1.58089 1.87e-4,1.48122 0.01123,1.70088 0.09267,1.84339 0.04724,0.0827 0.22375,0.18175 0.323791,0.18175 0.08134,0 0.09821,0.0489 0.08756,0.25378 l -0.0074,0.14271 -0.852983,0.002 c -0.833208,0.002 -0.853286,5.6e-4 -0.866011,-0.0468 z" style="fill:#000000;fill-opacity:1;fill-rule:nonzero;stroke:#000000;stroke-width:0.00727;stroke-linecap:butt;stroke-linejoin:miter;stroke-miterlimit:3;stroke-opacity:1;stroke-dasharray:none"></path><path id="path4216" d="m 44.676796,146.42683 c -0.035,-0.0409 -0.03846,-0.40618 -0.03689,-3.89852 0.0017,-3.86519 -0.0032,-4.11792 -0.08327,-4.27277 -0.04282,-0.0828 -0.166417,-0.14473 -0.326757,-0.16372 -0.134892,-0.016 -0.141741,-0.0255 -0.162648,-0.22549 l -0.01431,-0.13693 0.178682,-0.0317 c 0.229194,-0.0406 0.614135,-0.15443 0.840296,-0.24844 0.09732,-0.0405 0.18456,-0.0659 0.193866,-0.0566 0.0093,0.009 0.01287,0.89241 0.0079,1.96244 -0.0073,1.56956 -0.003,1.94924 0.02225,1.96482 0.02105,0.013 0.06348,-0.0195 0.130027,-0.0998 0.506047,-0.60992 1.063735,-0.67382 1.567699,-0.17964 0.641873,0.62942 0.880207,1.79292 0.649701,3.17169 -0.126888,0.75898 -0.388681,1.3274 -0.820489,1.78148 -0.309979,0.32598 -0.615803,0.46544 -0.978673,0.4463 -0.25278,-0.0133 -0.420328,-0.0874 -0.585753,-0.25907 -0.08001,-0.083 -0.13763,-0.12338 -0.169633,-0.11885 -0.03008,0.004 -0.09658,0.0804 -0.17531,0.20073 -0.06976,0.10663 -0.142876,0.1973 -0.162472,0.20149 -0.0196,0.004 -0.05301,-0.0127 -0.07425,-0.0375 l 0,0 z m 1.483443,-0.44654 c 0.185512,-0.0692 0.425956,-0.30788 0.533174,-0.52929 0.258279,-0.53335 0.360979,-1.17363 0.339327,-2.11551 -0.01105,-0.48064 -0.02207,-0.60535 -0.07588,-0.85898 -0.13447,-0.63376 -0.38068,-1.07753 -0.656211,-1.18275 -0.142168,-0.0543 -0.350874,-0.0389 -0.50941,0.0375 -0.154723,0.0746 -0.351118,0.27047 -0.439457,0.43829 l -0.06909,0.13126 -0.0067,1.76903 -0.0067,1.76903 0.09152,0.15465 c 0.117803,0.19905 0.263404,0.36426 0.356933,0.405 0.109892,0.0479 0.284557,0.0407 0.442503,-0.0182 l 0,0 z" style="fill:#000000;fill-opacity:1;fill-rule:nonzero;stroke:#000000;stroke-width:0.00727;stroke-linecap:butt;stroke-linejoin:miter;stroke-miterlimit:3;stroke-opacity:1;stroke-dasharray:none"></path><path id="path4218" d="m 48.28789,146.30324 c -0.02521,-0.0657 -0.01205,-0.31344 0.01791,-0.3371 0.01666,-0.0132 0.07623,-0.0298 0.132381,-0.0369 0.132992,-0.0169 0.27074,-0.0865 0.328969,-0.16626 0.115921,-0.15878 0.121303,-0.24047 0.131968,-2.00279 0.01023,-1.69062 -6.68e-4,-1.98304 -0.08015,-2.15054 -0.04963,-0.10459 -0.161319,-0.17496 -0.335768,-0.21155 l -0.134991,-0.0283 0,-0.16417 c 0,-0.15925 0.002,-0.16462 0.06664,-0.17937 0.470833,-0.10746 0.656264,-0.16484 0.909612,-0.28148 0.119257,-0.0549 0.171736,-0.0684 0.191004,-0.0491 0.01895,0.019 0.02555,0.69251 0.02303,2.34856 -0.0038,2.47499 -7e-6,2.56511 0.113586,2.72184 0.05965,0.0823 0.237865,0.16963 0.346156,0.16963 0.04886,0 0.09965,0.0136 0.112872,0.0303 0.03698,0.0466 0.05473,0.19069 0.03485,0.283 l -0.01788,0.0831 -0.913904,0.002 c -0.739923,10e-4 -0.916261,-0.004 -0.926287,-0.0305 l 0,0 z" style="fill:#000000;fill-opacity:1;fill-rule:nonzero;stroke:#000000;stroke-width:0.00727;stroke-linecap:butt;stroke-linejoin:miter;stroke-miterlimit:3;stroke-opacity:1;stroke-dasharray:none"></path><path id="path4220" d="m 49.029706,139.21071 c -0.172543,-0.15588 -0.265711,-0.50905 -0.199168,-0.75497 0.06333,-0.23404 0.286314,-0.44535 0.431503,-0.40891 0.09569,0.024 0.214367,0.16317 0.273152,0.32029 0.124198,0.33195 0.0218,0.7307 -0.226519,0.88212 -0.109146,0.0666 -0.172313,0.0578 -0.278968,-0.0385 z" style="fill:#000000;fill-opacity:1;fill-rule:nonzero;stroke:#000000;stroke-width:0.00727;stroke-linecap:butt;stroke-linejoin:miter;stroke-miterlimit:3;stroke-opacity:1;stroke-dasharray:none"></path><path id="path4222" d="m 50.418114,146.23341 c -0.0084,-0.0562 -0.0056,-0.14339 0.0064,-0.19386 0.02084,-0.0882 0.02643,-0.0923 0.143678,-0.10677 0.225389,-0.0277 0.330936,-0.12911 0.389727,-0.37443 0.03617,-0.15091 0.04119,-0.48474 0.04953,-3.29242 0.0092,-3.1012 -0.0023,-3.74431 -0.07075,-3.95076 -0.0421,-0.12697 -0.153381,-0.20039 -0.334853,-0.22092 -0.159908,-0.0181 -0.168646,-0.0307 -0.169211,-0.24433 l -3.31e-4,-0.12509 0.102992,-0.016 c 0.209976,-0.0326 0.66662,-0.16369 0.863931,-0.24802 0.197379,-0.0844 0.204617,-0.0856 0.237876,-0.0409 0.02299,0.0309 0.02964,0.0781 0.02017,0.14308 -0.02597,0.17809 -0.04482,5.73118 -0.01946,5.73118 0.0347,0 0.177171,-0.11871 0.2763,-0.23022 0.241341,-0.27147 0.80733,-1.1377 0.896214,-1.37162 0.09645,-0.25383 0.04753,-0.39459 -0.160851,-0.46285 l -0.09676,-0.0317 0,-0.18165 0,-0.18164 0.739117,0 0.739116,0 0,0.18175 0,0.18175 -0.157516,0.0306 c -0.231757,0.045 -0.436167,0.15415 -0.576594,0.3078 -0.122622,0.13417 -0.788156,1.25208 -0.82789,1.39062 -0.01152,0.0402 -0.01269,0.1092 -0.0026,0.15344 0.01837,0.0806 0.892304,2.11472 1.021064,2.37654 0.03769,0.0766 0.0963,0.17575 0.130238,0.22025 0.07466,0.0979 0.272767,0.20972 0.437117,0.24675 0.116571,0.0263 0.121451,0.0308 0.141214,0.13072 0.01126,0.0569 0.01116,0.1429 -2.18e-4,0.19104 l -0.0207,0.0875 -0.623085,0.001 c -0.497287,8.7e-4 -0.625585,-0.005 -0.635473,-0.0312 -0.0068,-0.0177 -0.0124,-0.11821 -0.0124,-0.22323 0,-0.2666 -0.0491,-0.40401 -0.495835,-1.38754 -0.43243,-0.95205 -0.495817,-1.0511 -0.688965,-1.07651 l -0.106417,-0.014 0.0138,0.89423 c 0.0076,0.49182 0.02612,0.96485 0.04119,1.05117 0.04383,0.25113 0.129252,0.3562 0.314659,0.38703 0.07546,0.0125 0.08611,0.0241 0.103538,0.11223 0.01069,0.054 0.01072,0.14016 7.3e-5,0.1914 l -0.01936,0.0932 -0.816664,0.002 -0.816663,0.002 -0.01531,-0.1021 z" style="fill:#000000;fill-opacity:1;fill-rule:nonzero;stroke:#000000;stroke-width:0.00727;stroke-linecap:butt;stroke-linejoin:miter;stroke-miterlimit:3;stroke-opacity:1;stroke-dasharray:none"></path><path id="path4224" d="m 57.303527,146.41427 c -0.03379,-0.15437 -0.06158,-0.35481 -0.07638,-0.55087 -0.01374,-0.18195 -0.02331,-0.21854 -0.0572,-0.21854 -0.02239,0 -0.120091,0.0932 -0.217115,0.20718 -0.220283,0.2587 -0.429267,0.43414 -0.627996,0.5272 -0.14117,0.0661 -0.169121,0.0709 -0.344002,0.0589 -0.425089,-0.0291 -0.6825,-0.25586 -0.848048,-0.74695 -0.125451,-0.37214 -0.125961,-0.38016 -0.143238,-2.25156 -0.01478,-1.60063 -0.02011,-1.76874 -0.0599,-1.88981 -0.0556,-0.16915 -0.163275,-0.27252 -0.333075,-0.31976 l -0.129445,-0.036 0,-0.17975 0,-0.17975 0.584156,-8.5e-4 0.584155,-8.5e-4 -0.01206,1.87989 c -0.01238,1.93058 -0.0022,2.2497 0.08266,2.57929 0.0633,0.24598 0.178776,0.4145 0.360482,0.5261 0.11633,0.0714 0.311962,0.06 0.463803,-0.0271 0.202144,-0.11594 0.496918,-0.43116 0.62238,-0.66555 0.0527,-0.0985 0.05278,-0.10102 0.05278,-1.71013 0,-1.66307 -0.0059,-1.77977 -0.100098,-1.97827 -0.04997,-0.1053 -0.181203,-0.19528 -0.315822,-0.21655 -0.07504,-0.0119 -0.104446,-0.0292 -0.114778,-0.0677 -0.01815,-0.0677 -0.01773,-0.20705 8.27e-4,-0.27632 l 0.01472,-0.0549 0.584726,0.006 0.584727,0.006 -0.0016,0.18175 c -0.01533,1.71109 -0.0079,4.0354 0.01329,4.12974 0.05814,0.25941 0.197538,0.40283 0.427257,0.43955 0.151877,0.0243 0.166917,0.0414 0.166917,0.18965 0,0.0727 -0.0063,0.13849 -0.01408,0.14623 -0.0077,0.008 -0.100437,0.0359 -0.205983,0.0626 -0.265326,0.0671 -0.517285,0.19666 -0.685971,0.35283 -0.153522,0.14213 -0.236405,0.16718 -0.256059,0.0774 l 0,0 z" style="fill:#000000;fill-opacity:1;fill-rule:nonzero;stroke:#000000;stroke-width:0.00727;stroke-linecap:butt;stroke-linejoin:miter;stroke-miterlimit:3;stroke-opacity:1;stroke-dasharray:none"></path><path id="path4226" d="m 59.614122,146.40941 c -0.262733,-0.0968 -0.464381,-0.27661 -0.570761,-0.50897 -0.146614,-0.32025 -0.186945,-0.93086 -0.08616,-1.30456 0.142793,-0.52947 0.54352,-1.00363 1.070051,-1.26613 0.09987,-0.0498 0.349609,-0.15395 0.554973,-0.23148 0.205364,-0.0775 0.384137,-0.15169 0.397271,-0.16482 0.06694,-0.0669 -0.01071,-1.02862 -0.106645,-1.32087 -0.05714,-0.17405 -0.188863,-0.36205 -0.312885,-0.44654 -0.07535,-0.0513 -0.104677,-0.0563 -0.278098,-0.0473 -0.305628,0.016 -0.504927,0.12345 -0.596381,0.3216 -0.04744,0.10279 -0.05677,0.31626 -0.02492,0.56999 0.02266,0.18052 -0.0071,0.31097 -0.0953,0.418 -0.136157,0.16518 -0.326152,0.16964 -0.44401,0.0104 -0.06237,-0.0843 -0.08159,-0.35676 -0.03946,-0.55966 0.09544,-0.45975 0.538292,-0.95937 0.977361,-1.10265 0.434763,-0.14188 0.780317,-0.0618 1.096142,0.25403 0.21572,0.21572 0.332727,0.50207 0.41504,1.01572 0.03107,0.19389 0.04244,0.55716 0.0569,1.81749 0.01801,1.57021 0.02662,1.71949 0.108249,1.87735 0.0868,0.16785 0.298488,0.18609 0.418224,0.036 0.03675,-0.0461 0.07326,-0.0838 0.08111,-0.0838 0.0245,0 0.07053,0.12047 0.07053,0.18458 0,0.0336 -0.03359,0.10996 -0.07465,0.16964 -0.280467,0.40764 -0.677177,0.51446 -0.952221,0.25639 -0.08305,-0.0779 -0.228285,-0.36739 -0.24918,-0.49665 -0.0088,-0.0543 -0.02689,-0.0891 -0.04416,-0.0848 -0.01611,0.004 -0.111629,0.1064 -0.212272,0.22765 -0.332619,0.40071 -0.498478,0.49565 -0.860817,0.49273 -0.11648,-9.4e-4 -0.250546,-0.016 -0.297924,-0.0334 l 0,0 z m 0.776792,-0.53362 c 0.116558,-0.0595 0.491521,-0.4422 0.561057,-0.57258 0.05641,-0.10575 0.05696,-0.1146 0.06473,-1.03359 0.0067,-0.79485 0.0029,-0.92692 -0.02711,-0.92692 -0.06362,0 -0.729748,0.29119 -0.85313,0.37294 -0.387169,0.25651 -0.572265,0.66318 -0.574765,1.26281 -9.73e-4,0.23339 0.009,0.32262 0.05074,0.45199 0.144152,0.44727 0.44161,0.61744 0.778476,0.44535 z" style="fill:#000000;fill-opacity:1;fill-rule:nonzero;stroke:#000000;stroke-width:0.00727;stroke-linecap:butt;stroke-linejoin:miter;stroke-miterlimit:3;stroke-opacity:1;stroke-dasharray:none"></path><path id="path4228" d="m 63.354646,146.40077 c -0.459229,-0.16352 -0.686065,-0.59166 -0.68563,-1.29408 3.67e-4,-0.59009 0.181687,-1.00842 0.613882,-1.4163 0.112158,-0.10585 0.285603,-0.238 0.391171,-0.29803 0.165222,-0.094 0.942563,-0.41316 1.006156,-0.41316 0.01271,0 0.04182,-0.0286 0.0647,-0.0635 0.03821,-0.0583 0.03924,-0.0982 0.01261,-0.49073 -0.03226,-0.47549 -0.077,-0.72908 -0.161637,-0.91615 -0.06739,-0.14895 -0.227298,-0.32981 -0.328772,-0.37184 -0.113241,-0.0469 -0.399928,-0.0192 -0.560159,0.0542 -0.26351,0.12064 -0.342633,0.32476 -0.287463,0.7416 0.02922,0.22073 0.02835,0.2547 -0.009,0.35244 -0.07965,0.20856 -0.256439,0.31328 -0.416198,0.24652 -0.123089,-0.0514 -0.167503,-0.15752 -0.16775,-0.40071 -4.55e-4,-0.44754 0.243139,-0.88297 0.660634,-1.18089 0.221701,-0.1582 0.449771,-0.23255 0.720456,-0.23488 0.197628,-0.002 0.233625,0.005 0.383499,0.0765 0.197085,0.0934 0.440532,0.32428 0.531883,0.50455 0.0758,0.14959 0.149982,0.39428 0.201641,0.66513 0.03236,0.16966 0.04253,0.48804 0.05766,1.80538 0.02068,1.80039 0.0273,1.8767 0.177174,2.04129 0.103476,0.11363 0.305893,0.0859 0.379723,-0.0521 0.04473,-0.0836 0.06676,-0.0791 0.115761,0.0237 0.04012,0.0841 0.03964,0.0892 -0.01857,0.19929 -0.0968,0.18303 -0.30474,0.3781 -0.456698,0.42843 -0.172387,0.0571 -0.343971,0.0377 -0.475283,-0.0538 -0.109329,-0.0762 -0.257955,-0.33069 -0.304173,-0.52092 -0.01538,-0.0633 -0.03684,-0.11511 -0.04769,-0.11511 -0.01085,0 -0.09022,0.0845 -0.176384,0.18781 -0.202234,0.24245 -0.371257,0.39959 -0.50444,0.46899 -0.149063,0.0777 -0.53339,0.0918 -0.717117,0.0264 l 0,0 z m 0.81219,-0.53137 c 0.193361,-0.12208 0.486244,-0.43375 0.563969,-0.60015 0.04167,-0.0892 0.04532,-0.16982 0.04581,-1.01174 3.7e-4,-0.63662 -0.0074,-0.91481 -0.02552,-0.91481 -0.05569,0 -0.73796,0.2975 -0.85546,0.37302 -0.249692,0.16048 -0.41877,0.40862 -0.513647,0.75383 -0.05289,0.19243 -0.07282,0.66411 -0.03563,0.84325 0.03964,0.19095 0.180439,0.46388 0.273483,0.53013 0.162143,0.11546 0.388682,0.12642 0.546993,0.0265 z" style="fill:#000000;fill-opacity:1;fill-rule:nonzero;stroke:#000000;stroke-width:0.00727;stroke-linecap:butt;stroke-linejoin:miter;stroke-miterlimit:3;stroke-opacity:1;stroke-dasharray:none"></path><path id="path4230" d="m 68.311211,146.28705 c -0.02073,-0.0771 -0.01576,-0.22161 0.0099,-0.28923 0.01955,-0.0514 0.03945,-0.0622 0.115108,-0.0627 0.122036,-7.1e-4 0.278675,-0.0746 0.339514,-0.16022 0.117784,-0.1657 0.113801,-0.0449 0.121711,-3.69234 0.0075,-3.45694 0.0031,-3.67015 -0.07846,-3.82793 -0.04238,-0.082 -0.166492,-0.14389 -0.326291,-0.16282 -0.134892,-0.016 -0.141742,-0.0255 -0.162648,-0.22549 l -0.01431,-0.13693 0.178682,-0.0317 c 0.229193,-0.0406 0.614134,-0.15443 0.840295,-0.24844 0.09732,-0.0405 0.184561,-0.0659 0.193867,-0.0566 0.0093,0.009 0.01285,1.01382 0.0079,2.23225 -0.0055,1.33959 -2.24e-4,2.21532 0.01326,2.21532 0.01227,0 0.108472,-0.13148 0.213786,-0.29219 0.472044,-0.72031 1.03639,-1.00076 1.530683,-0.76067 0.214641,0.10425 0.345182,0.2829 0.441975,0.60484 0.09568,0.31825 0.102906,0.45102 0.12261,2.2534 0.0205,1.87552 0.02619,1.96198 0.139287,2.11738 0.05974,0.0821 0.237562,0.17267 0.338944,0.17267 0.09485,0 0.110751,0.0405 0.09968,0.25422 l -0.0074,0.14315 -0.852983,0.001 c -0.9599,10e-4 -0.878615,0.0185 -0.879369,-0.18499 -5.31e-4,-0.14324 0.03656,-0.21362 0.112585,-0.21362 0.09269,0 0.263437,-0.0881 0.310757,-0.16029 0.09968,-0.15213 0.108599,-0.31166 0.109039,-1.95089 4.54e-4,-1.69136 -0.0086,-1.83884 -0.12943,-2.1121 -0.06944,-0.15702 -0.1839,-0.2919 -0.282285,-0.33265 -0.108425,-0.0449 -0.292663,-0.0175 -0.470305,0.0699 -0.269748,0.13279 -0.626196,0.52537 -0.745738,0.82131 -0.05591,0.13841 -0.05605,0.14186 -0.06327,1.4958 -0.0096,1.80796 0.01223,2.00552 0.234438,2.11888 0.0539,0.0275 0.130775,0.05 0.170822,0.05 0.08923,0 0.123108,0.0548 0.122654,0.19834 -7.01e-4,0.22129 0.08606,0.20151 -0.884187,0.20151 -0.837301,0 -0.85811,-0.001 -0.870826,-0.0485 l 0,0 z" style="fill:#000000;fill-opacity:1;fill-rule:nonzero;stroke:#000000;stroke-width:0.00727;stroke-linecap:butt;stroke-linejoin:miter;stroke-miterlimit:3;stroke-opacity:1;stroke-dasharray:none"></path><path id="path4232" d="m 74.125637,146.39933 c -0.223377,-0.0642 -0.382637,-0.16348 -0.564556,-0.35199 -0.317576,-0.32908 -0.506123,-0.74863 -0.627386,-1.39604 -0.0345,-0.18419 -0.04309,-0.35862 -0.04295,-0.8724 1.85e-4,-0.69538 0.03552,-0.99996 0.169704,-1.46281 0.23206,-0.80045 0.772081,-1.45527 1.28938,-1.56348 0.240668,-0.0503 0.624391,0.0358 0.862682,0.19362 0.38949,0.25799 0.62806,0.88955 0.662674,1.75428 0.01255,0.31357 0.0099,0.34373 -0.03441,0.39807 l -0.04799,0.0588 -1.134055,-0.006 -1.134055,-0.006 0.0168,0.33507 c 0.03975,0.793 0.186463,1.38792 0.454987,1.84494 0.10856,0.18476 0.320365,0.39417 0.468443,0.46314 0.107165,0.0499 0.146371,0.055 0.339267,0.0441 0.145828,-0.008 0.25657,-0.0291 0.334196,-0.0631 0.141583,-0.062 0.349403,-0.25418 0.494792,-0.4576 0.05954,-0.0833 0.117405,-0.15146 0.128597,-0.15146 0.03223,0 0.120798,0.12352 0.120798,0.16847 0,0.086 -0.260463,0.47667 -0.453444,0.68019 -0.216552,0.22838 -0.385523,0.33598 -0.625946,0.3986 -0.185264,0.0483 -0.494208,0.0446 -0.677526,-0.008 l 0,0 z m 1.008177,-3.7365 c 0.06531,-0.035 0.0768,-0.15084 0.04687,-0.4725 -0.0443,-0.47601 -0.120391,-0.70093 -0.298559,-0.88249 -0.125903,-0.1283 -0.220872,-0.17037 -0.384561,-0.17037 -0.24884,0 -0.522801,0.20423 -0.66191,0.49345 -0.08684,0.18055 -0.184697,0.51624 -0.230559,0.79091 -0.01447,0.0866 -0.03265,0.18925 -0.0404,0.22804 l -0.0141,0.0705 0.769665,-0.017 c 0.423316,-0.009 0.789415,-0.0276 0.813552,-0.0405 l 0,0 z" style="fill:#000000;fill-opacity:1;fill-rule:nonzero;stroke:#000000;stroke-width:0.00727;stroke-linecap:butt;stroke-linejoin:miter;stroke-miterlimit:3;stroke-opacity:1;stroke-dasharray:none"></path><path id="path4234" d="m 76.380908,146.28705 c -0.02174,-0.0809 -0.01524,-0.25475 0.0114,-0.30451 0.01624,-0.0303 0.05071,-0.0469 0.09771,-0.0469 0.09168,0 0.235544,-0.0594 0.307451,-0.12695 0.03041,-0.0286 0.07409,-0.10712 0.09707,-0.17454 0.03862,-0.11333 0.04233,-0.37966 0.04913,-3.52737 0.0074,-3.42523 0.0019,-3.69534 -0.07811,-3.8501 -0.04337,-0.0839 -0.166331,-0.1458 -0.327354,-0.16488 -0.134892,-0.016 -0.141741,-0.0255 -0.162648,-0.22549 l -0.01431,-0.13693 0.178682,-0.0317 c 0.229194,-0.0406 0.614135,-0.15443 0.840296,-0.24844 0.09732,-0.0405 0.184052,-0.0665 0.192737,-0.0578 0.0087,0.009 0.01257,1.34035 0.0086,2.95925 -0.0049,2.01678 7.41e-4,2.94346 0.01792,2.94346 0.01379,0 0.08877,-0.059 0.166628,-0.13105 0.166757,-0.15439 0.455906,-0.55001 0.744076,-1.01806 0.372235,-0.60459 0.396304,-0.80267 0.110365,-0.90829 -0.08753,-0.0323 -0.109429,-0.0534 -0.127379,-0.12271 -0.01192,-0.046 -0.01484,-0.12928 -0.0065,-0.18504 l 0.0152,-0.10138 0.731968,6.3e-4 c 0.510969,4.4e-4 0.737344,0.009 0.749772,0.0277 0.02313,0.0351 0.02313,0.2857 0,0.31999 -0.0098,0.0145 -0.08869,0.0397 -0.17532,0.0559 -0.413319,0.0774 -0.556636,0.22351 -1.04969,1.07019 -0.345929,0.59404 -0.358585,0.62054 -0.346582,0.7256 0.01246,0.10904 0.965681,2.34095 1.091443,2.55554 0.106413,0.18158 0.296047,0.30688 0.518229,0.34241 0.119397,0.0191 0.132388,0.0475 0.121168,0.26481 l -0.0074,0.14369 -0.633259,7e-4 -0.633259,7e-4 -0.01182,-0.25445 c -0.009,-0.19451 -0.02702,-0.29561 -0.07636,-0.42922 -0.09494,-0.25707 -0.773927,-1.73729 -0.848823,-1.85047 -0.07503,-0.11337 -0.192156,-0.19189 -0.286454,-0.19201 l -0.06664,-1e-4 4.2e-4,0.78153 c 4.59e-4,0.85444 0.02347,1.17941 0.09495,1.34101 0.04859,0.10984 0.16695,0.20361 0.257222,0.20377 0.02732,5e-5 0.06276,0.0132 0.07876,0.0292 0.03151,0.0315 0.03988,0.3066 0.01053,0.34654 -0.01125,0.0153 -0.314001,0.0242 -0.822321,0.0242 -0.784019,0 -0.804849,-10e-4 -0.817544,-0.0485 l 0,0 z" style="fill:#000000;fill-opacity:1;fill-rule:nonzero;stroke:#000000;stroke-width:0.00727;stroke-linecap:butt;stroke-linejoin:miter;stroke-miterlimit:3;stroke-opacity:1;stroke-dasharray:none"></path><path id="path4236" d="m 81.981555,146.40636 c -0.25242,-0.0611 -0.448136,-0.17553 -0.660158,-0.38588 -0.175667,-0.17428 -0.2117,-0.22691 -0.35674,-0.52102 -0.171793,-0.34835 -0.27492,-0.6614 -0.347269,-1.05415 -0.06162,-0.33451 -0.06231,-1.19107 -0.0013,-1.57868 0.08076,-0.51278 0.246368,-1.01174 0.455375,-1.37196 0.140459,-0.24208 0.44621,-0.54263 0.651291,-0.64022 0.393833,-0.18741 0.794192,-0.1813 1.199651,0.0183 0.393687,0.19381 0.653359,0.55991 0.867762,1.22344 0.168725,0.52216 0.198465,0.74225 0.197906,1.4646 -4.67e-4,0.60505 -0.0043,0.65978 -0.06584,0.94651 -0.124409,0.57941 -0.350095,1.1225 -0.584616,1.40682 -0.347045,0.42074 -0.868983,0.61019 -1.356092,0.49223 l 0,0 z m 0.709125,-0.40937 c 0.101469,-0.0525 0.253665,-0.20667 0.343011,-0.34753 0.09635,-0.15189 0.179774,-0.42452 0.232341,-0.75928 0.06153,-0.39186 0.06075,-1.56107 -0.0014,-2.04389 -0.152198,-1.18305 -0.535247,-1.77771 -1.111755,-1.72593 -0.36917,0.0332 -0.608629,0.34158 -0.765846,0.98644 -0.107419,0.44059 -0.135016,0.70134 -0.134654,1.27225 8.04e-4,1.26949 0.350756,2.33061 0.854542,2.59112 0.177415,0.0917 0.435257,0.10359 0.583721,0.0268 z" style="fill:#000000;fill-opacity:1;fill-rule:nonzero;stroke:#000000;stroke-width:0.00727;stroke-linecap:butt;stroke-linejoin:miter;stroke-miterlimit:3;stroke-opacity:1;stroke-dasharray:none"></path><path id="path4238" d="m 88.518235,146.40077 c -0.459229,-0.16352 -0.686065,-0.59166 -0.685629,-1.29408 3.66e-4,-0.59009 0.181687,-1.00842 0.613881,-1.4163 0.112159,-0.10585 0.285603,-0.238 0.391171,-0.29803 0.165223,-0.094 0.942563,-0.41316 1.006156,-0.41316 0.01271,0 0.04182,-0.0286 0.0647,-0.0635 0.03821,-0.0583 0.03924,-0.0982 0.01261,-0.49073 -0.03226,-0.47549 -0.07701,-0.72908 -0.161638,-0.91615 -0.06739,-0.14895 -0.227297,-0.32981 -0.328771,-0.37184 -0.113241,-0.0469 -0.399929,-0.0192 -0.560159,0.0542 -0.263511,0.12064 -0.342634,0.32476 -0.287463,0.7416 0.02921,0.22073 0.02835,0.2547 -0.009,0.35244 -0.07195,0.1884 -0.228037,0.29473 -0.387825,0.26418 -0.277922,-0.0531 -0.26496,-0.7062 0.02261,-1.13932 0.296359,-0.44635 0.705462,-0.6909 1.162355,-0.69482 0.197629,-0.002 0.233625,0.005 0.383499,0.0765 0.197085,0.0934 0.440533,0.32428 0.531883,0.50455 0.0758,0.14959 0.149982,0.39428 0.201641,0.66513 0.03236,0.16966 0.04253,0.48804 0.05766,1.80538 0.02068,1.80039 0.0273,1.8767 0.177174,2.04129 0.103476,0.11363 0.305893,0.0859 0.379723,-0.0521 0.04473,-0.0836 0.06676,-0.0791 0.11576,0.0237 0.04012,0.0841 0.03965,0.0892 -0.01857,0.19929 -0.0968,0.18303 -0.30474,0.3781 -0.456697,0.42843 -0.172388,0.0571 -0.343972,0.0377 -0.475284,-0.0538 -0.109329,-0.0762 -0.257955,-0.33069 -0.304173,-0.52092 -0.01538,-0.0633 -0.03684,-0.11511 -0.04769,-0.11511 -0.01085,0 -0.09022,0.0845 -0.176384,0.18781 -0.202234,0.24245 -0.371257,0.39959 -0.504439,0.46899 -0.149063,0.0777 -0.533391,0.0918 -0.717118,0.0264 l 0,0 z m 0.81219,-0.53112 c 0.182582,-0.11456 0.491167,-0.44291 0.564259,-0.6004 0.04129,-0.089 0.04503,-0.17216 0.04552,-1.01174 3.71e-4,-0.63662 -0.0074,-0.91481 -0.02552,-0.91481 -0.05569,0 -0.73796,0.2975 -0.85546,0.37302 -0.356381,0.22905 -0.542054,0.61151 -0.565961,1.16579 -0.0078,0.18171 -0.0017,0.34319 0.01648,0.43045 0.03985,0.19174 0.180505,0.46462 0.273689,0.53097 0.161989,0.11535 0.388142,0.12639 0.546993,0.0267 l 0,0 z" style="fill:#000000;fill-opacity:1;fill-rule:nonzero;stroke:#000000;stroke-width:0.00727;stroke-linecap:butt;stroke-linejoin:miter;stroke-miterlimit:3;stroke-opacity:1;stroke-dasharray:none"></path><path id="path4240" d="m 89.613586,139.60645 c -0.02666,-0.0149 -0.16297,-0.13767 -0.302917,-0.27285 -0.268995,-0.25982 -0.392598,-0.33791 -0.536552,-0.33901 -0.183004,-10e-4 -0.278257,0.11222 -0.357888,0.42689 -0.03874,0.15306 -0.05266,0.17813 -0.102295,0.18425 -0.0316,0.004 -0.07613,-0.007 -0.09896,-0.0242 -0.03912,-0.0295 -0.03892,-0.0445 0.0036,-0.26153 0.08981,-0.45844 0.184996,-0.71011 0.328726,-0.8692 0.114252,-0.12646 0.227828,-0.16402 0.376585,-0.12452 0.0903,0.024 0.152407,0.0742 0.377376,0.30507 0.281661,0.28906 0.375122,0.34938 0.541372,0.34938 0.141531,0 0.230384,-0.0899 0.303327,-0.3069 0.0321,-0.0955 0.0657,-0.21272 0.07466,-0.26051 0.01741,-0.0928 0.06512,-0.11146 0.1579,-0.0618 0.05978,0.032 0.05981,0.11787 1.15e-4,0.38688 -0.130411,0.58767 -0.352347,0.89863 -0.63941,0.89589 -0.04245,-4e-4 -0.09899,-0.0129 -0.125647,-0.0278 z" style="fill:#000000;fill-opacity:1;fill-rule:nonzero;stroke:#000000;stroke-width:0.00727;stroke-linecap:butt;stroke-linejoin:miter;stroke-miterlimit:3;stroke-opacity:1;stroke-dasharray:none"></path><path id="path4242" d="m 92.42419,146.41016 c -0.08022,-0.0181 -0.189274,-0.0514 -0.242334,-0.074 -0.103866,-0.0442 -0.27607,-0.0582 -0.377328,-0.0308 l -0.06276,0.017 -0.01582,-0.68408 c -0.0087,-0.37624 -0.02294,-0.77371 -0.03165,-0.88326 l -0.01583,-0.19918 0.06949,-0.0264 c 0.134113,-0.051 0.162913,-0.0118 0.210745,0.28659 0.0866,0.54025 0.228346,0.92644 0.390313,1.06337 0.178499,0.1509 0.433735,0.20711 0.652148,0.14361 0.175988,-0.0512 0.377403,-0.23106 0.451482,-0.40327 0.08074,-0.18768 0.113853,-0.49163 0.07842,-0.71981 -0.06336,-0.40802 -0.242271,-0.63301 -0.812745,-1.02214 -0.390299,-0.26622 -0.598784,-0.47725 -0.725775,-0.73465 -0.12011,-0.24344 -0.162207,-0.43679 -0.17838,-0.81928 -0.02488,-0.58839 0.09459,-0.95375 0.417684,-1.27742 0.373631,-0.37429 0.709448,-0.42067 1.444675,-0.19951 0.17509,0.0527 0.323684,0.1011 0.330208,0.10763 0.02214,0.0221 -0.04796,1.33375 -0.07291,1.36429 -0.03199,0.0392 -0.151128,0.0392 -0.182741,0 -0.01345,-0.0167 -0.03186,-0.0794 -0.0409,-0.13934 -0.03373,-0.22385 -0.11819,-0.52529 -0.183564,-0.65519 -0.07505,-0.14913 -0.249264,-0.32377 -0.37565,-0.37658 -0.104971,-0.0439 -0.280467,-0.0442 -0.384338,-8.4e-4 -0.120662,0.0504 -0.274925,0.22526 -0.332866,0.37728 -0.06272,0.16455 -0.08602,0.51117 -0.04813,0.71591 0.06697,0.36184 0.255249,0.58201 0.749321,0.87624 0.691522,0.4118 0.9967,0.92252 1.004113,1.68038 0.0041,0.41602 -0.0909,0.82098 -0.251075,1.07059 -0.109341,0.17039 -0.312402,0.34085 -0.548894,0.46077 -0.204276,0.10359 -0.207998,0.10443 -0.487449,0.10973 -0.169731,0.003 -0.339546,-0.008 -0.427462,-0.0276 l 0,0 z" style="fill:#000000;fill-opacity:1;fill-rule:nonzero;stroke:#000000;stroke-width:0.00727;stroke-linecap:butt;stroke-linejoin:miter;stroke-miterlimit:3;stroke-opacity:1;stroke-dasharray:none"></path><path id="path4244" d="m 96.173319,146.39549 c -0.234908,-0.0615 -0.394025,-0.15062 -0.581884,-0.32579 -0.26146,-0.24378 -0.445084,-0.56271 -0.607368,-1.0549 -0.13078,-0.39664 -0.173678,-0.66652 -0.188746,-1.18744 -0.05229,-1.80767 0.667496,-3.11585 1.71102,-3.10971 0.428443,0.003 0.852624,0.2103 1.108309,0.54289 0.276774,0.36002 0.516395,1.06212 0.588307,1.72376 0.140116,1.28917 -0.247735,2.68493 -0.877663,3.15845 -0.19741,0.1484 -0.299394,0.19836 -0.520248,0.25484 -0.22812,0.0583 -0.403229,0.0578 -0.631727,-0.002 l 0,0 z m 0.655524,-0.36411 c 0.127435,-0.0354 0.357533,-0.25655 0.452717,-0.43514 0.04327,-0.0812 0.09946,-0.22029 0.124868,-0.30915 0.195658,-0.68418 0.180772,-2.20029 -0.03004,-3.05912 -0.148471,-0.60488 -0.423744,-1.0031 -0.755435,-1.09284 -0.133128,-0.036 -0.347581,-0.015 -0.466724,0.0458 -0.131198,0.0669 -0.302628,0.25636 -0.379979,0.41986 -0.246091,0.5202 -0.364562,1.50125 -0.282268,2.33745 0.116407,1.18283 0.496931,1.97143 1.009546,2.0922 0.127315,0.03 0.221661,0.0303 0.327311,9.2e-4 l 0,0 z" style="fill:#000000;fill-opacity:1;fill-rule:nonzero;stroke:#000000;stroke-width:0.00727;stroke-linecap:butt;stroke-linejoin:miter;stroke-miterlimit:3;stroke-opacity:1;stroke-dasharray:none"></path><path id="path4247" d="m 95.984387,139.69507 c -0.02825,-0.0431 -0.03607,-0.0906 -0.02657,-0.16145 0.0074,-0.0552 0.169658,-0.48533 0.360564,-0.95585 0.387717,-0.95559 0.363668,-0.92044 0.578136,-0.84482 0.186724,0.0658 0.380791,0.30878 0.323662,0.40517 -0.09528,0.16076 -1.002612,1.47913 -1.059373,1.53929 -0.0894,0.0948 -0.123663,0.0982 -0.176419,0.0177 z" style="fill:#000000;fill-opacity:1;fill-rule:nonzero;stroke:#000000;stroke-width:0.00727;stroke-linecap:butt;stroke-linejoin:miter;stroke-miterlimit:3;stroke-opacity:1;stroke-dasharray:none"></path><path id="path4249" d="m 100.47765,146.41427 c -0.0499,-0.0795 -0.0367,-0.0309 -0.669172,-2.47786 -0.635328,-2.4582 -0.655401,-2.52115 -0.836549,-2.62349 -0.05331,-0.0301 -0.14228,-0.0666 -0.197705,-0.0811 -0.07004,-0.0183 -0.105042,-0.0422 -0.114777,-0.0785 -0.01787,-0.0666 -0.01802,-0.20688 -2.91e-4,-0.27293 0.01359,-0.0506 0.021,-0.0511 0.805427,-0.052 0.568867,-6.4e-4 0.796727,0.007 0.809517,0.0269 0.0214,0.0334 0.0244,0.26295 0.004,0.31589 -0.008,0.0207 -0.0543,0.0449 -0.10299,0.0537 -0.188147,0.034 -0.294856,0.12957 -0.294114,0.26332 5.81e-4,0.10465 0.04857,0.31676 0.422204,1.86614 0.39229,1.62678 0.40431,1.66721 0.4814,1.61957 0.0456,-0.0282 0.10077,-0.2175 0.48043,-1.64895 0.28506,-1.07475 0.39388,-1.52323 0.40279,-1.66003 0.0189,-0.28987 -0.0345,-0.37357 -0.27646,-0.43352 -0.0645,-0.016 -0.12537,-0.0409 -0.13516,-0.0554 -0.0233,-0.0345 -0.023,-0.28472 3.9e-4,-0.32154 0.0246,-0.0388 1.3176,-0.0366 1.34382,0.002 0.0213,0.0316 0.0237,0.22295 0.004,0.29762 -0.009,0.0349 -0.0405,0.0588 -0.0905,0.0696 -0.21521,0.0464 -0.38465,0.20674 -0.48596,0.45979 -0.0338,0.0844 -0.3344,1.15241 -0.66806,2.37347 -0.33367,1.22106 -0.62866,2.26321 -0.65554,2.31589 -0.0403,0.0789 -0.0615,0.0958 -0.12052,0.0958 -0.048,0 -0.0829,-0.018 -0.10586,-0.0545 z" style="fill:#000000;fill-opacity:1;fill-rule:nonzero;stroke:#000000;stroke-width:0.00727;stroke-linecap:butt;stroke-linejoin:miter;stroke-miterlimit:3;stroke-opacity:1;stroke-dasharray:none"></path><path id="path4251" d="m 103.67133,146.40178 c -0.42834,-0.15271 -0.65306,-0.54535 -0.68217,-1.19195 -0.0323,-0.71854 0.26128,-1.31064 0.85274,-1.71951 0.21327,-0.14744 0.35436,-0.21417 0.84973,-0.4019 0.19933,-0.0756 0.37053,-0.15011 0.38044,-0.1657 0.0259,-0.0406 0.0229,-0.4052 -0.006,-0.69825 -0.032,-0.32843 -0.0878,-0.58436 -0.16151,-0.74139 -0.0791,-0.16851 -0.25084,-0.33899 -0.36259,-0.35995 -0.15894,-0.0298 -0.39201,0.004 -0.53763,0.0788 -0.24908,0.12739 -0.30697,0.28884 -0.26469,0.73824 0.0262,0.27877 0.0257,0.28576 -0.0327,0.40085 -0.046,0.0908 -0.0854,0.13009 -0.17478,0.17464 -0.10678,0.0532 -0.12218,0.055 -0.20547,0.0238 -0.25518,-0.0956 -0.2491,-0.6382 0.0122,-1.08679 0.30172,-0.51805 0.9224,-0.8374 1.39895,-0.7198 0.40102,0.099 0.71078,0.44385 0.83741,0.93238 0.11269,0.43474 0.12539,0.6364 0.14376,2.2833 0.0151,1.35693 0.0227,1.57922 0.0575,1.68564 0.0556,0.1699 0.13672,0.24091 0.27528,0.24091 0.10875,0 0.15697,-0.0331 0.22475,-0.15419 0.031,-0.0554 0.0931,0.005 0.1126,0.10878 0.0124,0.0659 0.002,0.10308 -0.0489,0.18047 -0.17991,0.27187 -0.3678,0.40785 -0.58935,0.42654 -0.28876,0.0244 -0.4951,-0.16198 -0.61518,-0.55554 -0.0275,-0.09 -0.0588,-0.16358 -0.0697,-0.16358 -0.0109,0 -0.0558,0.0464 -0.0998,0.103 -0.16206,0.20886 -0.44835,0.485 -0.56635,0.54626 -0.16296,0.0846 -0.53901,0.10264 -0.72886,0.035 z m 0.78758,-0.52136 c 0.11718,-0.0547 0.4317,-0.35658 0.54712,-0.52506 l 0.0727,-0.10612 0.007,-0.95327 c 0.005,-0.68206 -4.8e-4,-0.95327 -0.0196,-0.95327 -0.051,0 -0.72006,0.29263 -0.8381,0.36657 -0.23347,0.14626 -0.3799,0.33025 -0.47164,0.5926 -0.20366,0.58249 -0.14141,1.20995 0.1481,1.49264 0.17337,0.16929 0.32538,0.19285 0.55428,0.0859 z" style="fill:#000000;fill-opacity:1;fill-rule:nonzero;stroke:#000000;stroke-width:0.00727;stroke-linecap:butt;stroke-linejoin:miter;stroke-miterlimit:3;stroke-opacity:1;stroke-dasharray:none"></path><path id="path4253" d="m 108.68674,146.22866 c -0.009,-0.0588 -0.006,-0.14599 0.005,-0.19382 0.0209,-0.0845 0.0255,-0.0875 0.16381,-0.10469 0.25089,-0.0312 0.37265,-0.14456 0.43183,-0.40189 0.0462,-0.20073 0.0461,-3.6525 -5e-5,-3.80508 -0.0501,-0.1657 -0.16004,-0.26703 -0.34422,-0.31734 l -0.15716,-0.0429 -0.007,-0.16045 c -0.007,-0.15016 -0.004,-0.16127 0.0485,-0.17332 0.0306,-0.007 0.12995,-0.0296 0.22079,-0.0501 0.25101,-0.0566 0.54613,-0.15438 0.70048,-0.23215 0.14613,-0.0736 0.20057,-0.0849 0.2243,-0.0465 0.008,0.0128 0.003,0.26513 -0.0101,0.56064 -0.0311,0.6829 -0.0132,0.72967 0.14033,0.36667 0.26879,-0.63544 0.63699,-0.98612 0.94756,-0.90249 0.18392,0.0495 0.31469,0.21849 0.36101,0.46647 0.043,0.23013 -0.0577,0.54927 -0.21518,0.68176 -0.14098,0.11863 -0.23607,0.0759 -0.39999,-0.17987 -0.16649,-0.25974 -0.25772,-0.27754 -0.39362,-0.0768 -0.10001,0.14773 -0.30131,0.59679 -0.37297,0.83199 -0.0531,0.17444 -0.0548,0.21246 -0.063,1.47554 -0.009,1.38256 0.003,1.60638 0.0972,1.7782 0.0661,0.12076 0.21673,0.20369 0.40814,0.22463 0.0755,0.008 0.14402,0.0305 0.16145,0.0524 0.0324,0.0408 0.0413,0.29147 0.0117,0.33173 -0.0114,0.0154 -0.36673,0.0242 -0.9805,0.0242 l -0.9627,0 -0.016,-0.10685 0,0 z" style="fill:#000000;fill-opacity:1;fill-rule:nonzero;stroke:#000000;stroke-width:0.00727;stroke-linecap:butt;stroke-linejoin:miter;stroke-miterlimit:3;stroke-opacity:1;stroke-dasharray:none"></path><path id="path4255" d="m 113.12419,146.39876 c -0.23446,-0.0683 -0.35156,-0.14211 -0.55736,-0.35138 -0.27063,-0.27518 -0.42853,-0.57619 -0.5568,-1.06142 -0.21533,-0.81451 -0.16785,-2.04414 0.11029,-2.85622 0.18219,-0.53196 0.58366,-1.07288 0.94037,-1.26703 0.19936,-0.10851 0.37431,-0.14168 0.59095,-0.11206 0.54186,0.0741 0.83115,0.31613 1.02454,0.85721 0.12329,0.34494 0.18034,0.65466 0.1968,1.06842 0.0135,0.3385 0.0112,0.36755 -0.0336,0.4223 l -0.048,0.0588 -1.13043,-0.006 -1.13043,-0.006 0,0.11949 c 0,0.19972 0.0478,0.73196 0.0854,0.95143 0.1414,0.82466 0.4828,1.42978 0.89563,1.58744 0.14496,0.0554 0.45872,0.0379 0.62605,-0.0349 0.1412,-0.0614 0.37562,-0.27914 0.50503,-0.46911 0.0522,-0.0766 0.10463,-0.13934 0.1165,-0.13934 0.0306,0 0.12202,0.12105 0.12202,0.16159 0,0.10873 -0.26782,0.50579 -0.49736,0.73736 -0.17168,0.1732 -0.35232,0.28362 -0.56725,0.34675 -0.17359,0.051 -0.50444,0.0476 -0.69231,-0.007 z m 1.00818,-3.73593 c 0.0654,-0.035 0.0778,-0.15641 0.0486,-0.47524 -0.0429,-0.46933 -0.12043,-0.69932 -0.2969,-0.88117 -0.11896,-0.12258 -0.22379,-0.16895 -0.38192,-0.16895 -0.15274,0 -0.22535,0.0281 -0.38605,0.14939 -0.27859,0.21029 -0.41309,0.54363 -0.54995,1.36295 l -0.0118,0.0705 0.76705,-0.017 c 0.42187,-0.009 0.78679,-0.0276 0.81093,-0.0405 z" style="fill:#000000;fill-opacity:1;fill-rule:nonzero;stroke:#000000;stroke-width:0.00727;stroke-linecap:butt;stroke-linejoin:miter;stroke-miterlimit:3;stroke-opacity:1;stroke-dasharray:none"></path><path id="path4257" d="m 115.45048,146.32321 c -0.0255,-0.0413 -0.0357,-0.19593 -0.0182,-0.27831 0.02,-0.0946 0.0233,-0.0972 0.14776,-0.11507 0.30833,-0.0444 0.39692,-0.16853 0.43932,-0.61565 0.0314,-0.33074 0.0318,-3.20412 5e-4,-3.44501 -0.0411,-0.31631 -0.12258,-0.41367 -0.39354,-0.47006 l -0.13934,-0.029 0,-0.16432 c 0,-0.15943 0.002,-0.16478 0.0666,-0.17949 0.46583,-0.10604 0.71195,-0.18191 0.90806,-0.27995 0.15761,-0.0788 0.20149,-0.0851 0.22188,-0.032 0.008,0.0205 0.004,0.21956 -0.009,0.44226 -0.0298,0.51388 -0.0295,0.61446 0.002,0.65936 0.019,0.0268 0.0289,0.0285 0.0378,0.007 0.0448,-0.11014 0.41907,-0.63146 0.54036,-0.75275 0.43856,-0.43856 0.99131,-0.48454 1.33282,-0.11087 0.16834,0.18419 0.25671,0.43898 0.31824,0.91759 0.0171,0.13311 0.0349,0.88387 0.0456,1.92655 0.0131,1.2707 0.0255,1.73329 0.0483,1.80538 0.0633,0.19955 0.17542,0.29376 0.38551,0.32381 0.10363,0.0148 0.11188,0.0215 0.13219,0.1074 0.0119,0.0504 0.0148,0.13754 0.006,0.19369 l -0.0153,0.1021 -0.85365,-0.002 -0.85365,-0.002 0,-0.19142 0,-0.19142 0.10534,-0.018 c 0.26161,-0.0447 0.35247,-0.17985 0.39326,-0.58512 0.0172,-0.17061 0.0227,-0.7691 0.0158,-1.72014 -0.0116,-1.60126 -0.017,-1.66604 -0.1633,-1.95587 -0.075,-0.14865 -0.20669,-0.28042 -0.30478,-0.30504 -0.0997,-0.025 -0.27223,0.01 -0.40627,0.0814 -0.25722,0.13781 -0.64935,0.61275 -0.72993,0.88409 -0.0313,0.10552 -0.0369,0.34578 -0.0368,1.5801 1.8e-4,1.48122 0.0112,1.70088 0.0927,1.84339 0.0473,0.0827 0.22375,0.18175 0.32379,0.18175 0.0813,0 0.0982,0.0489 0.0876,0.25378 l -0.007,0.14271 -0.85654,0.002 c -0.4711,9.3e-4 -0.85996,-0.004 -0.86414,-0.0106 l 0,0 z" style="fill:#000000;fill-opacity:1;fill-rule:nonzero;stroke:#000000;stroke-width:0.00727;stroke-linecap:butt;stroke-linejoin:miter;stroke-miterlimit:3;stroke-opacity:1;stroke-dasharray:none"></path><path id="path4259" d="m 122.60209,146.44792 c -0.0243,-0.0392 -0.0867,-0.47567 -0.0872,-0.60919 -9e-4,-0.25582 -0.0648,-0.25219 -0.27841,0.0158 -0.16723,0.20983 -0.42656,0.44444 -0.57495,0.52014 -0.24412,0.12454 -0.61384,0.0685 -0.88294,-0.13375 -0.33448,-0.25143 -0.58832,-0.76885 -0.71075,-1.44873 -0.15655,-0.86941 -0.10582,-1.84882 0.1336,-2.57973 0.2375,-0.72501 0.697,-1.29031 1.17099,-1.44062 0.2444,-0.0775 0.50573,-0.073 0.70654,0.0121 0.0866,0.0367 0.19778,0.0836 0.24699,0.10424 0.17436,0.0731 0.16503,0.13622 0.16449,-1.11303 -4.7e-4,-1.11265 -0.0156,-1.3885 -0.0834,-1.51953 -0.0428,-0.0828 -0.16641,-0.14475 -0.32677,-0.16375 -0.13489,-0.016 -0.14174,-0.0255 -0.16265,-0.22549 l -0.0143,-0.13693 0.17868,-0.0317 c 0.2292,-0.0406 0.61414,-0.15443 0.8403,-0.24844 0.0973,-0.0405 0.18335,-0.0672 0.19117,-0.0593 0.008,0.008 0.0154,1.75115 0.0169,3.87406 l 0.003,3.85983 0.0559,0.13833 c 0.0795,0.19676 0.15963,0.25552 0.47724,0.34992 0.0684,0.0203 0.0731,0.0298 0.0799,0.15899 0.008,0.15757 0.002,0.16418 -0.2132,0.21218 -0.21179,0.0473 -0.55326,0.22324 -0.70262,0.36199 -0.1257,0.11679 -0.19915,0.14982 -0.22829,0.10266 z m -0.82408,-0.63092 c 0.21178,-0.0962 0.62749,-0.5592 0.68759,-0.76585 0.0205,-0.0705 0.0262,-0.52082 0.0207,-1.64916 l -0.007,-1.55223 -0.0919,-0.18599 c -0.10271,-0.20778 -0.2706,-0.39517 -0.41695,-0.46536 -0.14749,-0.0707 -0.38229,-0.0764 -0.55004,-0.0134 -0.25987,0.0977 -0.51931,0.47614 -0.6236,0.90966 -0.1778,0.73905 -0.17183,2.05473 0.0126,2.78683 0.11457,0.45469 0.35641,0.85074 0.57856,0.94753 0.10463,0.0456 0.2752,0.0403 0.39049,-0.012 z" style="fill:#000000;fill-opacity:1;fill-rule:nonzero;stroke:#000000;stroke-width:0.00727;stroke-linecap:butt;stroke-linejoin:miter;stroke-miterlimit:3;stroke-opacity:1;stroke-dasharray:none"></path><path id="path4261" d="m 124.86583,146.42185 c -0.24445,-0.0748 -0.49027,-0.28976 -0.59632,-0.52141 -0.14674,-0.32052 -0.18752,-0.93429 -0.0867,-1.30456 0.10648,-0.39094 0.35799,-0.76535 0.68713,-1.02288 0.22391,-0.1752 0.41304,-0.27115 0.92884,-0.47122 l 0.41197,-0.1598 -0.002,-0.41153 c -0.004,-0.65632 -0.0944,-1.02682 -0.31038,-1.26592 -0.11949,-0.13226 -0.19722,-0.16002 -0.40887,-0.14602 -0.30067,0.0199 -0.50183,0.13813 -0.58867,0.34601 -0.0343,0.0821 -0.0381,0.15039 -0.0248,0.44831 0.015,0.33674 0.0134,0.35546 -0.0396,0.44614 -0.075,0.12849 -0.16422,0.1896 -0.2812,0.19267 -0.17741,0.005 -0.27085,-0.13842 -0.27085,-0.41474 0,-0.33671 0.14636,-0.6781 0.41196,-0.96088 0.29648,-0.31565 0.60036,-0.45967 0.96934,-0.45942 0.25178,1.7e-4 0.41073,0.0563 0.61041,0.21556 0.24974,0.19918 0.39003,0.46364 0.47811,0.90132 0.0821,0.40771 0.0987,0.75574 0.099,2.06658 2.9e-4,1.31464 0.017,1.63051 0.0954,1.80791 0.088,0.19884 0.30252,0.23353 0.42788,0.0692 0.0764,-0.10017 0.0903,-0.10259 0.12698,-0.0221 0.0447,0.0982 0.0332,0.17658 -0.0419,0.2853 -0.28639,0.41438 -0.68045,0.52293 -0.95686,0.26359 -0.0831,-0.0779 -0.22828,-0.36739 -0.24918,-0.49665 -0.009,-0.0543 -0.0269,-0.0891 -0.0442,-0.0848 -0.0161,0.004 -0.11163,0.1064 -0.21227,0.22765 -0.33288,0.40102 -0.49878,0.49591 -0.86082,0.49235 -0.11648,-0.001 -0.23904,-0.0104 -0.27236,-0.0206 z m 0.75123,-0.54606 c 0.11669,-0.0596 0.49162,-0.44233 0.56092,-0.57258 0.0562,-0.10563 0.0568,-0.11567 0.0649,-1.03359 0.007,-0.79759 0.003,-0.92692 -0.027,-0.92692 -0.0507,0 -0.69549,0.27436 -0.82996,0.35316 -0.38673,0.22664 -0.59695,0.67707 -0.59859,1.28259 -6.4e-4,0.23261 0.01,0.32305 0.0512,0.45199 0.1442,0.44729 0.44163,0.61744 0.77849,0.44535 z" style="fill:#000000;fill-opacity:1;fill-rule:nonzero;stroke:#000000;stroke-width:0.00727;stroke-linecap:butt;stroke-linejoin:miter;stroke-miterlimit:3;stroke-opacity:1;stroke-dasharray:none"></path><path id="path4263" d="m 85.733116,146.44741 c -0.177164,-0.0216 -0.309694,-0.0509 -0.454612,-0.10041 -0.146963,-0.0502 -0.178667,-0.0548 -0.310773,-0.0455 l -0.147114,0.0104 -0.01243,-0.57627 c -0.0068,-0.31695 -0.02009,-0.7072 -0.02946,-0.86722 -0.01654,-0.28258 -0.01594,-0.29187 0.02063,-0.32278 0.04578,-0.0387 0.148273,-0.0417 0.178535,-0.005 0.01214,0.0146 0.0419,0.14351 0.06612,0.2864 0.11835,0.69801 0.270809,1.01818 0.549843,1.1547 0.0846,0.0414 0.131665,0.051 0.280296,0.0569 0.170673,0.007 0.183805,0.005 0.295099,-0.0502 0.308745,-0.152 0.447898,-0.42528 0.44984,-0.88345 0.0022,-0.51703 -0.177171,-0.78709 -0.802011,-1.20757 -0.600863,-0.40433 -0.817551,-0.71015 -0.903142,-1.27462 -0.03499,-0.23076 -0.03396,-0.62902 0.0021,-0.81921 0.07477,-0.39414 0.280767,-0.7241 0.573615,-0.91878 0.334598,-0.22244 0.672933,-0.22734 1.340471,-0.0194 0.143299,0.0446 0.26337,0.084 0.266823,0.0874 0.0035,0.003 -0.0074,0.31136 -0.02415,0.68423 -0.03342,0.74474 -0.02657,0.71213 -0.149695,0.71266 -0.09958,4.3e-4 -0.118479,-0.0269 -0.14438,-0.20884 -0.03234,-0.22715 -0.09926,-0.46663 -0.17355,-0.6211 -0.07208,-0.14986 -0.210899,-0.28721 -0.368018,-0.36413 -0.245613,-0.12024 -0.556177,0.0211 -0.694929,0.31629 -0.128807,0.27403 -0.119097,0.77391 0.02056,1.05827 0.09382,0.19102 0.325823,0.39826 0.652194,0.58256 0.314028,0.17734 0.545305,0.38577 0.720935,0.64972 0.290002,0.43585 0.370414,1.06118 0.215159,1.67321 -0.08878,0.34999 -0.243628,0.58524 -0.502726,0.76377 -0.316238,0.2179 -0.579205,0.28919 -0.915259,0.24812 l 0,0 z" style="fill:#000000;fill-opacity:1;fill-rule:nonzero;stroke:#000000;stroke-width:0.00545537;stroke-linecap:butt;stroke-linejoin:miter;stroke-miterlimit:3;stroke-opacity:1;stroke-dasharray:none"></path></g><g id="g3559" transform="matrix(1.0039035,0,0,1,0.0377704,0)"><path id="path3900" d="m 35.786,115.38844 c 0,0 -3.203,-0.01 -4.629,0 l -0.071,0.051 v 0.496 c 0,0.061 0.026,0.109 0.078,0.146 0.053,0.039 0.107,0.059 0.165,0.059 l 0.229,0.025 c 0.583,0.024 0.851,0.177 0.931,0.273 0.139,0.17 0.208,0.354 -0.129,1.089 l -5.98,11.927 -0.157,-0.041 c 0,0 -4.283,-9.031 -5.523,-12.052 -0.129,-0.313 -0.187,-0.545 -0.187,-0.688 0,-0.307 0.277,-0.473 0.831,-0.496 l 0.646,-0.027 c 0.171,0 0.258,-0.066 0.258,-0.203 v -0.496 l -0.058,-0.051 c 0,0 -5.13,-0.006 -6.19,0 l -0.058,0.051 v 0.521 c 0,0.094 0.119,0.152 0.358,0.178 0.651,0.035 1.079,0.139 1.285,0.312 0.205,0.175 0.422,0.617 0.71,1.306 1.557,3.74 4.865,10.414 6.476,14.215 0.464,1.038 1.047,1.199 1.755,-0.032 1.226,-2.274 4.55,-9.218 4.55,-9.218 l 2.618,-4.896 c 0.305,-0.517 0.599,-0.978 0.748,-1.193 0.273,-0.393 0.426,-0.467 1.172,-0.502 0.152,0 0.229,-0.068 0.229,-0.205 v -0.496 l -0.057,-0.053 z"></path><path id="path3904" d="m 39.125,130.87144 c 0,0.572 0.26,0.91 1.092,0.988 l 0.546,0.053 c 0.078,0 0.156,0.051 0.156,0.155 v 0.546 l -0.026,0.053 c 0,0 -1.976,-0.053 -2.782,-0.053 -0.728,0 -2.756,0.053 -2.756,0.053 l -0.052,-0.053 v -0.546 c 0,-0.104 0.078,-0.155 0.182,-0.155 l 0.52,-0.053 c 0.858,-0.078 1.118,-0.494 1.118,-0.988 v -8.658 c 0,-0.571 -0.313,-0.729 -1.118,-0.805 l -0.52,-0.054 c -0.104,0 -0.182,-0.024 -0.182,-0.104 v -0.599 l 0.026,-0.052 c 0,0 2.054,0.052 2.86,0.052 0.702,0 2.704,-0.052 2.704,-0.052 l 0.026,0.052 v 0.572 c 0,0.078 -0.052,0.13 -0.156,0.13 l -0.546,0.053 c -0.806,0.077 -1.092,0.286 -1.092,0.807 v 8.658 z"></path><path id="path3906" d="m 46.598,130.87144 c 0,0.572 0.338,0.858 1.092,0.988 l 0.286,0.053 c 0.078,0.025 0.156,0.051 0.156,0.155 v 0.546 l -0.026,0.053 c 0,0 -1.638,-0.053 -2.418,-0.053 -0.728,0 -2.86,0.053 -2.86,0.053 l -0.052,-0.053 v -0.546 c 0,-0.104 0.078,-0.155 0.182,-0.155 l 0.52,-0.053 c 0.78,-0.078 1.118,-0.494 1.118,-0.988 v -8.658 c 0,-0.571 -0.286,-0.729 -1.118,-0.805 l -0.52,-0.054 c -0.104,0 -0.182,-0.024 -0.182,-0.104 v -0.599 l 0.026,-0.052 c 0,0 2.132,0.052 2.938,0.052 0.729,0 2.366,-0.052 2.366,-0.052 l 0.026,0.052 v 0.572 c 0,0.078 -0.052,0.104 -0.156,0.13 l -0.286,0.053 c -0.806,0.155 -1.092,0.286 -1.092,0.807 v 3.926 c 0.858,0 1.352,-0.441 2.496,-1.664 1.04,-1.145 1.846,-2.105 1.846,-2.6 0,-0.209 -0.234,-0.442 -0.754,-0.521 -0.104,-0.025 -0.156,-0.052 -0.156,-0.13 v -0.599 l 0.026,-0.025 c 0,0 2.106,0.052 2.86,0.052 0.676,0 1.82,-0.052 1.82,-0.052 l 0.078,0.025 v 0.599 c 0,0.078 -0.078,0.13 -0.208,0.13 -1.014,0.078 -1.716,0.13 -2.652,1.196 l -2.236,2.573 c -0.442,0.469 -0.598,0.754 -0.598,0.963 0,0.156 0.104,0.285 0.234,0.441 l 3.926,4.732 c 0.312,0.363 0.936,0.52 1.456,0.623 l 0.13,0.025 c 0.078,0.026 0.182,0.078 0.182,0.156 v 0.546 l -0.078,0.026 c 0,0 -1.378,-0.026 -2.106,-0.026 -0.65,0 -1.586,0.026 -1.586,0.026 l -0.026,-0.026 v -0.312 c 0,-0.339 -0.026,-0.623 -0.39,-1.039 l -2.886,-3.589 c -0.39,-0.521 -0.806,-0.649 -1.378,-0.649 v 3.851 l 0,0 z"></path><path id="path3908" d="m 60.715,130.87144 c 0,0.572 0.26,0.91 1.092,0.988 l 0.546,0.053 c 0.078,0 0.156,0.051 0.156,0.155 v 0.546 l -0.026,0.053 c 0,0 -1.976,-0.053 -2.782,-0.053 -0.728,0 -2.756,0.053 -2.756,0.053 l -0.052,-0.053 v -0.546 c 0,-0.104 0.078,-0.155 0.182,-0.155 l 0.52,-0.053 c 0.858,-0.078 1.118,-0.494 1.118,-0.988 v -8.658 c 0,-0.571 -0.312,-0.729 -1.118,-0.805 l -0.52,-0.054 c -0.104,0 -0.182,-0.024 -0.182,-0.104 v -0.599 l 0.026,-0.052 c 0,0 2.054,0.052 2.86,0.052 0.702,0 2.704,-0.052 2.704,-0.052 l 0.026,0.052 v 0.572 c 0,0.078 -0.052,0.13 -0.156,0.13 l -0.546,0.053 c -0.806,0.077 -1.092,0.286 -1.092,0.807 v 8.658 z"></path><path id="path3910" d="m 65.933,122.26444 c 0,-0.806 -0.338,-0.832 -1.56,-0.91 -0.156,0 -0.182,-0.077 -0.182,-0.13 v -0.598 l 0.052,-0.026 c 0.39,0 1.924,0.052 2.678,0.052 0.728,0 1.768,-0.052 2.73,-0.052 3.69,0 4.366,1.819 4.366,3.173 0,1.561 -0.754,4.004 -4.444,4.004 -0.65,0 -1.17,-0.053 -1.639,-0.26 v 3.482 c 0,0.572 0.312,0.703 1.145,0.832 l 0.521,0.078 c 0.104,0.026 0.182,0.053 0.182,0.156 v 0.546 l -0.025,0.052 c 0,0 -2.08,-0.052 -2.886,-0.052 -0.728,0 -2.678,0.052 -2.678,0.052 l -0.026,-0.052 v -0.546 c 0,-0.104 0.052,-0.13 0.156,-0.156 l 0.546,-0.078 c 0.806,-0.104 1.066,-0.338 1.066,-0.832 l -0.002,-8.735 0,0 z m 2.002,4.525 c 0.52,0.209 1.17,0.234 1.69,0.234 1.561,0 2.312,-0.938 2.312,-2.938 0,-2.236 -1.014,-2.73 -2.442,-2.73 -1.249,0 -1.561,0.234 -1.561,0.91 l 0.001,4.524 0,0 z"></path><path id="path3912" d="m 78.395,132.61344 c -0.78,0 -2.573,0.053 -2.573,0.053 l -0.027,-0.053 v -0.572 c 0,-0.051 0.027,-0.129 0.156,-0.129 l 0.599,-0.053 c 0.807,-0.078 1.041,-0.598 1.041,-1.117 v -8.58 c 0,-0.6 -0.313,-0.703 -1.041,-0.754 l -0.599,-0.054 c -0.156,-0.024 -0.156,-0.077 -0.156,-0.104 v -0.599 l 0.027,-0.052 c 0,0 2.027,0.052 2.807,0.052 h 3.822 c 0.78,0 2.627,-0.052 2.627,-0.052 l 0.053,0.052 c 0.025,1.118 0.207,2.134 0.39,3.121 l -0.649,0.104 c -0.285,-0.963 -0.779,-2.34 -2.443,-2.34 h -2.08 c -0.494,0 -0.754,0.182 -0.754,0.623 v 3.771 h 1.949 c 0.729,0 0.91,-0.312 1.015,-0.832 l 0.155,-0.546 c 0,-0.078 0.053,-0.131 0.156,-0.131 h 0.441 c 0.053,0 0.053,0.027 0.053,0.078 -0.053,0.572 -0.156,1.301 -0.156,1.925 0,0.649 0.104,1.196 0.156,1.794 l -0.053,0.053 H 82.87 c -0.129,0 -0.183,-0.053 -0.183,-0.131 l -0.13,-0.571 c -0.104,-0.521 -0.338,-0.807 -1.016,-0.807 h -1.948 v 3.979 c 0,0.493 0.284,0.987 0.754,0.987 h 2.47 c 1.326,0 2.055,-0.832 2.366,-2.185 l 0.649,0.078 -0.521,2.989 -0.052,0.052 c 0,0 -1.534,-0.052 -2.314,-0.052 l -4.55,0.003 0,0 z"></path><path id="path4160" d="m 90.686845,132.60144 c -0.04691,-0.25802 -0.0011,-0.50488 0.106022,-0.57166 0.0367,-0.0229 0.20009,-0.0505 0.36311,-0.0616 0.40414,-0.0273 0.82688,-0.0988 0.98144,-0.16601 0.14045,-0.0611 0.27755,-0.20298 0.34047,-0.35245 0.11585,-0.27516 0.1184,-0.3792 0.11884,-4.83124 2.4e-4,-2.38812 -0.01,-4.39725 -0.0224,-4.46471 -0.049,-0.26369 -0.2321,-0.51434 -0.46677,-0.63903 -0.12207,-0.0649 -0.15245,-0.0663 -1.388401,-0.0663 -1.244883,0 -1.26552,10e-4 -1.392853,0.068 -0.165564,0.087 -0.318993,0.26404 -0.439165,0.50665 -0.0885,0.17866 -0.275331,0.72361 -0.353255,1.03036 l -0.03377,0.13295 -0.161881,-0.0199 c -0.459726,-0.0565 -0.73351,-0.15144 -0.69818,-0.24193 0.07605,-0.1948 0.264375,-1.39149 0.371033,-2.35771 l 0.07024,-0.63634 0.219112,1.8e-4 c 0.243627,1.9e-4 0.441257,0.0433 0.522024,0.11381 0.02932,0.0257 0.07563,0.11262 0.102918,0.19336 l 0.0496,0.14679 0.349485,0.0205 c 0.192216,0.0113 2.162013,0.016 4.377313,0.0106 3.196719,-0.008 4.037669,-0.018 4.075529,-0.0489 0.0262,-0.0214 0.0646,-0.0981 0.0851,-0.17041 0.0206,-0.0724 0.065,-0.14841 0.0987,-0.16908 0.0625,-0.0384 0.67311,-0.14832 0.69462,-0.12507 0.006,0.007 0.0284,0.30951 0.0487,0.67215 0.0455,0.81548 0.1838,2.18051 0.24006,2.36969 0.0123,0.0413 -0.0163,0.0681 -0.11877,0.11141 -0.1253,0.053 -0.70388,0.14389 -0.73305,0.11523 -0.007,-0.007 -0.068,-0.21998 -0.13521,-0.47324 -0.20332,-0.76594 -0.34569,-1.04573 -0.60005,-1.17927 -0.13092,-0.0687 -0.14972,-0.0698 -1.19383,-0.0698 l -1.060809,0 -0.1472,0.0851 c -0.22289,0.12878 -0.37084,0.36161 -0.43313,0.68161 -0.0181,0.0929 -0.0299,1.81099 -0.03,4.36117 -1.2e-4,3.66718 0.006,4.24608 0.0486,4.50547 0.10687,0.65279 0.31343,0.79442 1.275899,0.87481 0.55315,0.0462 0.58785,0.0685 0.60636,0.39074 0.0143,0.24749 -0.0277,0.3836 -0.12966,0.42038 -0.0372,0.0135 -1.305309,0.0291 -2.818009,0.0348 l -2.750342,0.0104 -0.03845,-0.21149 0,0 z" style="fill:#000000;fill-opacity:1;fill-rule:nonzero;stroke:#000000;stroke-width:0.00927966;stroke-linecap:butt;stroke-linejoin:miter;stroke-miterlimit:3;stroke-opacity:1;stroke-dasharray:none"></path><g transform="matrix(1.0264537,0,0,0.9721016,-3.7520299,3.8006502)" id="g3401"><g id="g3397"><path id="path3388" d="m 101.73023,132.42576 c -0.0413,-0.10754 -0.0314,-0.56439 0.0137,-0.63511 0.0217,-0.034 0.16037,-0.0783 0.30813,-0.0983 0.97962,-0.13257 1.46053,-0.43004 1.92121,-1.1884 0.10896,-0.17937 1.5308,-3.63664 3.15965,-7.68282 1.62885,-4.04618 3.00947,-7.43488 3.06806,-7.53044 0.30481,-0.49718 0.80297,-0.52474 1.04445,-0.0578 0.0469,0.0907 1.2884,3.54082 2.75886,7.66689 1.47046,4.12607 2.73844,7.62971 2.81773,7.78587 0.3043,0.59933 0.72955,0.85237 1.64496,0.97883 0.4576,0.0632 0.53732,0.12903 0.53732,0.44359 0,0.42349 0.27173,0.39043 -3.20306,0.38977 l -3.10556,-5.9e-4 -0.0389,-0.18806 c -0.0214,-0.10343 -0.0216,-0.27269 -6.1e-4,-0.37612 0.0382,-0.18784 0.0387,-0.18811 0.41259,-0.22983 0.96394,-0.10755 1.32912,-0.1901 1.47159,-0.33265 0.24804,-0.24816 0.20873,-0.42489 -0.66736,-3.0005 l -0.79848,-2.34747 -2.83983,0 c -3.04784,0 -3.12593,0.007 -3.26825,0.27243 -0.11804,0.22056 -1.50223,4.14008 -1.53545,4.34783 -0.043,0.26905 0.0592,0.56474 0.23954,0.69318 0.18402,0.13103 0.62039,0.25711 1.13674,0.32843 0.46072,0.0636 0.53771,0.12871 0.53649,0.45348 -0.002,0.40723 0.20807,0.37928 -2.8444,0.37928 -2.23355,0 -2.74674,-0.0133 -2.76911,-0.0716 l 0,0 z m 10.93373,-7.511 c 0,-0.12771 -2.45228,-7.16669 -2.49677,-7.16669 -0.0648,0 -2.60771,6.79625 -2.60771,6.9693 0,0.0758 0.0498,0.13247 0.14777,0.16825 0.16025,0.0585 4.95671,0.0867 4.95671,0.0291 z" style="fill:#000000;fill-opacity:1;fill-rule:nonzero;stroke:#000000;stroke-width:0.0161194;stroke-linecap:butt;stroke-linejoin:miter;stroke-miterlimit:3;stroke-opacity:1;stroke-dasharray:none"></path><path id="path3390" d="m 111.71453,113.82843 c -0.24902,-0.0602 -0.52152,-0.21329 -1.06695,-0.59955 -0.71877,-0.50902 -1.19587,-0.71428 -1.66422,-0.716 -0.25829,-9.4e-4 -0.43069,0.0281 -0.55032,0.0927 -0.19045,0.10284 -0.44467,0.5009 -0.5819,0.91115 -0.0878,0.26262 -0.12032,0.28238 -0.42598,0.25921 -0.27182,-0.0206 -0.29764,-0.0921 -0.18578,-0.51444 0.29359,-1.10834 0.72957,-1.78108 1.33344,-2.05754 0.24459,-0.11197 0.34472,-0.12811 0.65645,-0.10581 0.45948,0.0329 0.76575,0.17937 1.44663,0.69191 0.64539,0.48582 0.98779,0.64674 1.44584,0.67952 0.63857,0.0457 0.92613,-0.18751 1.21797,-0.98769 l 0.14855,-0.40731 0.21249,0.034 c 0.39443,0.0631 0.41527,0.0915 0.33112,0.45224 -0.18468,0.79167 -0.62084,1.60856 -1.02239,1.91483 -0.38241,0.29168 -0.93019,0.44092 -1.29495,0.3528 z" style="fill:#000000;fill-opacity:1;fill-rule:nonzero;stroke:#000000;stroke-width:0.0161194;stroke-linecap:butt;stroke-linejoin:miter;stroke-miterlimit:3;stroke-opacity:1;stroke-dasharray:none"></path></g></g></g></svg>
</svg>