<?xml version="1.0" encoding="UTF-8" standalone="no"?>
<svg
	xmlns="http://www.w3.org/2000/svg"
	xmlns:dc="http://purl.org/dc/elements/1.1/"
	xmlns:cc="http://creativecommons.org/ns#"
	xmlns:rdf="http://www.w3.org/1999/02/22-rdf-syntax-ns#"
	xmlns:svg="http://www.w3.org/2000/svg"
	xmlns:xlink="http://www.w3.org/1999/xlink"
	xmlns:sodipodi="http://sodipodi.sourceforge.net/DTD/sodipodi-0.dtd"
	xmlns:inkscape="http://www.inkscape.org/namespaces/inkscape"
	version="1.1"
	viewBox="0 0 135px 155px">
	<svg xmlns:dc="http://purl.org/dc/elements/1.1/" xmlns:cc="http://creativecommons.org/ns#" xmlns:rdf="http://www.w3.org/1999/02/22-rdf-syntax-ns#" xmlns:svg="http://www.w3.org/2000/svg" xmlns:xlink="http://www.w3.org/1999/xlink" xmlns:sodipodi="http://sodipodi.sourceforge.net/DTD/sodipodi-0.dtd" xmlns:inkscape="http://www.inkscape.org/namespaces/inkscape" version="1.1" x="0px" y="0px" width="135px" height="155px" viewBox="0 0 135 155" enable-background="new 0 0 135 155" xml:space="preserve" id="svg3857" inkscape:version="0.47 r22583" sodipodi:docname="Wikipedia-logo-v2-nds.svg" xmlns:svgjs="http://svgjs.com/svgjs"><metadata id="metadata4852"><rdf:RDF><cc:Work rdf:about=""><dc:format>image/svg+xml</dc:format><dc:type rdf:resource="http://purl.org/dc/dcmitype/StillImage"></dc:type><dc:title></dc:title></cc:Work></rdf:RDF></metadata><defs id="defs4850"><inkscape:perspective sodipodi:type="inkscape:persp3d" inkscape:vp_x="0 : 77.5 : 1" inkscape:vp_y="0 : 1000 : 0" inkscape:vp_z="135 : 77.5 : 1" inkscape:persp3d-origin="67.5 : 51.666667 : 1" id="perspective4854"></inkscape:perspective>
	
		<radialGradient gradientUnits="userSpaceOnUse" gradientTransform="matrix(1,0,0,-1,192.3999,143.0996)" r="68.686401" cy="87.823196" cx="-145.4702" id="SVGID_1_">
		<stop id="stop3922" offset="0" style="stop-color:#FFFFFF"></stop>
		<stop id="stop3924" offset="0.4835" style="stop-color:#EAEAEB"></stop>
		<stop id="stop3926" offset="0.9451" style="stop-color:#A9ABAE"></stop>
		<stop id="stop3928" offset="1" style="stop-color:#999B9E"></stop>
	</radialGradient>
	
	
	<linearGradient y2="97.232101" x2="112.7331" y1="24.481001" x1="66.232399" gradientUnits="userSpaceOnUse" id="SVGID_2_">
		<stop id="stop3935" offset="0" style="stop-color:#8A8A8A"></stop>
		<stop id="stop3937" offset="0.5687" style="stop-color:#606060"></stop>
		<stop id="stop3939" offset="0.5914" style="stop-color:#FFFFFF"></stop>
		<stop id="stop3941" offset="0.6116" style="stop-color:#585858"></stop>
		<stop id="stop3943" offset="1" style="stop-color:#303030"></stop>
	</linearGradient>
	
	
	<linearGradient y2="65.136703" x2="83.798798" y1="65.136703" x1="54.715801" gradientUnits="userSpaceOnUse" id="SVGID_5_">
		<stop id="stop3964" offset="0" style="stop-color:#231F20"></stop>
		<stop id="stop3966" offset="1" style="stop-color:#474747"></stop>
	</linearGradient>
	
	
	
	
	
	
	
	
	
		<linearGradient gradientTransform="matrix(1,0,0,-1,192.3999,143.0996)" y2="29.9035" x2="-94.069099" y1="119.8076" x1="-123.5898" gradientUnits="userSpaceOnUse" id="SVGID_6_">
		<stop id="stop3997" offset="0" style="stop-color:#FFFFFF"></stop>
		<stop id="stop3999" offset="0.0094" style="stop-color:#FCFCFC"></stop>
		<stop id="stop4001" offset="0.0655" style="stop-color:#EEEEEE"></stop>
		<stop id="stop4003" offset="0.1342" style="stop-color:#E5E5E5"></stop>
		<stop id="stop4005" offset="0.2515" style="stop-color:#E3E3E3"></stop>
		<stop id="stop4007" offset="0.3357" style="stop-color:#8A8A8A"></stop>
		<stop id="stop4009" offset="0.4422" style="stop-color:#B8B8B8"></stop>
		<stop id="stop4011" offset="1" style="stop-color:#3B3B3B"></stop>
	</linearGradient>
	
	<linearGradient y2="87.626701" x2="119.5471" y1="26.876499" x1="70.421898" gradientUnits="userSpaceOnUse" id="SVGID_7_">
		<stop id="stop4016" offset="0" style="stop-color:#EFF0F0"></stop>
		<stop id="stop4018" offset="0.5914" style="stop-color:#F0F1F2"></stop>
		<stop id="stop4020" offset="0.599" style="stop-color:#787878"></stop>
		<stop id="stop4022" offset="0.6456" style="stop-color:#EEEFF0"></stop>
		<stop id="stop4024" offset="1" style="stop-color:#D8D9DB"></stop>
	</linearGradient>
	
	
		<linearGradient gradientTransform="matrix(1,0,0,-1,192.3999,143.0996)" y2="31.998501" x2="-87.569702" y1="122.1328" x1="-117.166" gradientUnits="userSpaceOnUse" id="SVGID_8_">
		<stop id="stop4029" offset="0" style="stop-color:#FFFFFF"></stop>
		<stop id="stop4031" offset="1" style="stop-color:#E4E5E6"></stop>
	</linearGradient>
	
	<linearGradient y2="106.3903" x2="79.683601" y1="25.2764" x1="54.653301" gradientUnits="userSpaceOnUse" id="SVGID_9_">
		<stop id="stop4036" offset="0" style="stop-color:#FFFFFF"></stop>
		<stop id="stop4038" offset="0.7473" style="stop-color:#F9F9F9"></stop>
		<stop id="stop4040" offset="1" style="stop-color:#D5D7D8"></stop>
	</linearGradient>
	
	
	
	
	
		<linearGradient gradientTransform="matrix(1,0,0,-1,192.3999,143.0996)" y2="24.6462" x2="-134.85719" y1="119.6328" x1="-115.3369" gradientUnits="userSpaceOnUse" id="SVGID_10_">
		<stop id="stop4061" offset="0" style="stop-color:#FFFFFF"></stop>
		<stop id="stop4063" offset="1" style="stop-color:#E4E5E6"></stop>
	</linearGradient>
	
	<linearGradient y2="92.496101" x2="37.2481" y1="33.077099" x1="32.519001" gradientUnits="userSpaceOnUse" id="SVGID_11_">
		<stop id="stop4068" offset="0.2198" style="stop-color:#989A9C"></stop>
		<stop id="stop4070" offset="0.2527" style="stop-color:#FFFFFF"></stop>
	</linearGradient>
	
	
		<linearGradient gradientTransform="matrix(1,0,0,-1,192.3999,143.0996)" y2="32.797901" x2="-171.9462" y1="126.8398" x1="-152.6201" gradientUnits="userSpaceOnUse" id="SVGID_12_">
		<stop id="stop4075" offset="0" style="stop-color:#FFFFFF"></stop>
		<stop id="stop4077" offset="1" style="stop-color:#E4E5E6"></stop>
	</linearGradient>
	
	
		<linearGradient gradientTransform="matrix(1,0,0,-1,192.3999,143.0996)" y2="35.585701" x2="-130.14281" y1="35.625" x1="-130.1348" gradientUnits="userSpaceOnUse" id="SVGID_13_">
		<stop id="stop4082" offset="0" style="stop-color:#FFFFFF"></stop>
		<stop id="stop4084" offset="1" style="stop-color:#E4E5E6"></stop>
	</linearGradient>
	
	
	
	
		<linearGradient gradientTransform="matrix(1,0,0,-1,192.3999,143.0996)" y2="25.888" x2="-140.54491" y1="120.3223" x1="-121.1382" gradientUnits="userSpaceOnUse" id="SVGID_14_">
		<stop id="stop4093" offset="0" style="stop-color:#FFFFFF"></stop>
		<stop id="stop4095" offset="1" style="stop-color:#E4E5E6"></stop>
	</linearGradient>
	
	
		<linearGradient gradientTransform="matrix(1,0,0,-1,192.3999,143.0996)" y2="28.8524" x2="-155.006" y1="123.3525" x1="-135.58591" gradientUnits="userSpaceOnUse" id="SVGID_15_">
		<stop id="stop4100" offset="0" style="stop-color:#FFFFFF"></stop>
		<stop id="stop4102" offset="1" style="stop-color:#E4E5E6"></stop>
	</linearGradient>
	
	
		<linearGradient gradientTransform="matrix(1,0,0,-1,192.3999,143.0996)" y2="27.1346" x2="-146.8837" y1="121.9365" x1="-127.4014" gradientUnits="userSpaceOnUse" id="SVGID_16_">
		<stop id="stop4107" offset="0" style="stop-color:#FFFFFF"></stop>
		<stop id="stop4109" offset="1" style="stop-color:#E4E5E6"></stop>
	</linearGradient>
	
	
		<linearGradient gradientTransform="matrix(1,0,0,-1,192.3999,143.0996)" y2="24.9438" x2="-138.85201" y1="124.0039" x1="-118.4946" gradientUnits="userSpaceOnUse" id="SVGID_17_">
		<stop id="stop4114" offset="0" style="stop-color:#FFFFFF"></stop>
		<stop id="stop4116" offset="1" style="stop-color:#E4E5E6"></stop>
	</linearGradient>
	
	
		<linearGradient gradientTransform="matrix(1,0,0,-1,192.3999,143.0996)" y2="24.695299" x2="-134.7878" y1="119.1758" x1="-115.3716" gradientUnits="userSpaceOnUse" id="SVGID_18_">
		<stop id="stop4121" offset="0" style="stop-color:#FFFFFF"></stop>
		<stop id="stop4123" offset="1" style="stop-color:#E4E5E6"></stop>
	</linearGradient>
	
	
	
	
	
	
	
	
	
	
	
	
		<linearGradient gradientTransform="matrix(1,0,0,-1,192.3999,143.0996)" y2="83.6045" x2="-75.6362" y1="83.6045" x1="-175.4424" gradientUnits="userSpaceOnUse" id="SVGID_21_">
		<stop id="stop4198" offset="0" style="stop-color:#555555"></stop>
		<stop id="stop4200" offset="1" style="stop-color:#231F20"></stop>
	</linearGradient>
	
	
		<linearGradient gradientTransform="matrix(1,0,0,-1,192.3999,143.0996)" y2="104.0801" x2="-83.541" y1="104.0801" x1="-175.14211" gradientUnits="userSpaceOnUse" id="SVGID_22_">
		<stop id="stop4205" offset="0" style="stop-color:#A0A0A0"></stop>
		<stop id="stop4207" offset="0.0769" style="stop-color:#656767"></stop>
		<stop id="stop4209" offset="1" style="stop-color:#717375"></stop>
	</linearGradient>
	
	
	
	
	
	
	
		<linearGradient gradientTransform="matrix(1,0,0,-1,192.3999,143.0996)" y2="78.209" x2="-172.3853" y1="78.209" x1="-172.3853" gradientUnits="userSpaceOnUse" id="SVGID_23_">
		<stop id="stop4224" offset="0" style="stop-color:#FFFFFF"></stop>
		<stop id="stop4226" offset="0.078" style="stop-color:#F4F4F4"></stop>
		<stop id="stop4228" offset="0.3807" style="stop-color:#CECECE"></stop>
		<stop id="stop4230" offset="0.5396" style="stop-color:#BFBFBF"></stop>
		<stop id="stop4232" offset="0.8357" style="stop-color:#7C7C7C"></stop>
		<stop id="stop4234" offset="0.8996" style="stop-color:#A8A8A8"></stop>
		<stop id="stop4236" offset="0.9093" style="stop-color:#9A9A9A"></stop>
		<stop id="stop4238" offset="0.9327" style="stop-color:#7D7D7D"></stop>
		<stop id="stop4240" offset="0.9558" style="stop-color:#686868"></stop>
		<stop id="stop4242" offset="0.9785" style="stop-color:#5B5B5B"></stop>
		<stop id="stop4244" offset="1" style="stop-color:#575757"></stop>
	</linearGradient>
	
	
		<linearGradient gradientTransform="matrix(1,0,0,-1,192.3999,143.0996)" y2="90.476799" x2="-67.153198" y1="78.449203" x1="-175.7173" gradientUnits="userSpaceOnUse" id="SVGID_24_">
		<stop id="stop4249" offset="0" style="stop-color:#FFFFFF"></stop>
		<stop id="stop4251" offset="0.078" style="stop-color:#F4F4F4"></stop>
		<stop id="stop4253" offset="0.3807" style="stop-color:#CECECE"></stop>
		<stop id="stop4255" offset="0.5396" style="stop-color:#BFBFBF"></stop>
		<stop id="stop4257" offset="0.8357" style="stop-color:#7C7C7C"></stop>
		<stop id="stop4259" offset="0.8996" style="stop-color:#A8A8A8"></stop>
		<stop id="stop4261" offset="0.9093" style="stop-color:#9A9A9A"></stop>
		<stop id="stop4263" offset="0.9327" style="stop-color:#7D7D7D"></stop>
		<stop id="stop4265" offset="0.9558" style="stop-color:#686868"></stop>
		<stop id="stop4267" offset="0.9785" style="stop-color:#5B5B5B"></stop>
		<stop id="stop4269" offset="1" style="stop-color:#575757"></stop>
	</linearGradient>
	
	
		<linearGradient gradientTransform="matrix(1,0,0,-1,192.3999,143.0996)" y2="92.223099" x2="-52.131699" y1="78.4795" x1="-176.1851" gradientUnits="userSpaceOnUse" id="SVGID_25_">
		<stop id="stop4274" offset="0" style="stop-color:#FFFFFF"></stop>
		<stop id="stop4276" offset="0.078" style="stop-color:#F4F4F4"></stop>
		<stop id="stop4278" offset="0.3807" style="stop-color:#CECECE"></stop>
		<stop id="stop4280" offset="0.5396" style="stop-color:#BFBFBF"></stop>
		<stop id="stop4282" offset="0.8357" style="stop-color:#7C7C7C"></stop>
		<stop id="stop4284" offset="0.8996" style="stop-color:#A8A8A8"></stop>
		<stop id="stop4286" offset="0.9093" style="stop-color:#9A9A9A"></stop>
		<stop id="stop4288" offset="0.9327" style="stop-color:#7D7D7D"></stop>
		<stop id="stop4290" offset="0.9558" style="stop-color:#686868"></stop>
		<stop id="stop4292" offset="0.9785" style="stop-color:#5B5B5B"></stop>
		<stop id="stop4294" offset="1" style="stop-color:#575757"></stop>
	</linearGradient>
	
	<linearGradient y2="51.952599" x2="117.1948" y1="71.326698" x1="21.2129" gradientUnits="userSpaceOnUse" id="SVGID_26_">
		<stop id="stop4299" offset="0" style="stop-color:#EDEDEE"></stop>
		<stop id="stop4301" offset="0.4176" style="stop-color:#FFFFFF"></stop>
		<stop id="stop4303" offset="0.6264" style="stop-color:#F8F9F9"></stop>
		<stop id="stop4305" offset="1" style="stop-color:#BFC0C2"></stop>
	</linearGradient>
	
	
	
	
	<linearGradient y2="30.732401" x2="27.9561" y1="30.732401" x1="23.471201" gradientUnits="userSpaceOnUse" id="SVGID_27_">
		<stop id="stop4316" offset="0" style="stop-color:#E2E3E4"></stop>
		<stop id="stop4318" offset="0.5055" style="stop-color:#FFFFFF"></stop>
	</linearGradient>
	
	
	
	
	
	
	
	
	
	
	
	
	
	
	
	
	
	
	
	
	
	
	
	
	
	
	
	
	
	
	
	
	
	
	
	
	
	
	
	
	
	
	
	
	
	
	
	
	
	
	
	
	
	
	
	
	
	
	
	
	
	
	
	
	
	
	
	
	
	
	
	
	
	
	
	
	
	
	
	
	
	
	
	
	
	
	
	
	
	
	
	
	
	
	
	
	
	
	
	
	
	
	
	
	
	
	
	
	
	
	
	
	
	
	
	
	
	
	
	
	
	
	
	
	
	
	
	
	
	
	
	
	
	
	
	
	
	
	
	
	
	
	
	
	
	
	
	
	
	
	
	
	
	
	
	
	
	
	
	
	
	
	
	
	
	
	
	
	
	
	
	
	
	
	
	
	
	
	<linearGradient y2="29.204" x2="111.5455" y1="49.7188" x1="22.5742" gradientUnits="userSpaceOnUse" id="SVGID_34_">
		<stop id="stop4743" offset="0" style="stop-color:#FFFFFF"></stop>
		<stop id="stop4745" offset="0.6538" style="stop-color:#FFFFFF"></stop>
		<stop id="stop4747" offset="1" style="stop-color:#CBCCCE"></stop>
	</linearGradient>
	
	
	
	
	
	
	
	
		<linearGradient gradientTransform="matrix(1,0,0,-1,192.3999,143.0996)" y2="107.0898" x2="-126.4229" y1="107.0898" x1="-158.8101" gradientUnits="userSpaceOnUse" id="SVGID_35_">
		<stop id="stop4770" offset="0" style="stop-color:#696969"></stop>
		<stop id="stop4772" offset="0.3702" style="stop-color:#2E2E2E"></stop>
		<stop id="stop4774" offset="0.4554" style="stop-color:#424242"></stop>
		<stop id="stop4776" offset="0.6014" style="stop-color:#303030"></stop>
		<stop id="stop4778" offset="0.6947" style="stop-color:#4A4A4A"></stop>
		<stop id="stop4780" offset="1" style="stop-color:#666666"></stop>
	</linearGradient>
	
	
		<linearGradient gradientTransform="matrix(1,0,0,-1,192.3999,143.0996)" y2="107.8965" x2="-126.5454" y1="107.8965" x1="-158.4185" gradientUnits="userSpaceOnUse" id="SVGID_36_">
		<stop id="stop4785" offset="0" style="stop-color:#525252"></stop>
		<stop id="stop4787" offset="0.1856" style="stop-color:#333333"></stop>
		<stop id="stop4789" offset="0.354" style="stop-color:#AEAEAE"></stop>
		<stop id="stop4791" offset="0.4199" style="stop-color:#ADADAD"></stop>
		<stop id="stop4793" offset="0.4276" style="stop-color:#9D9D9D"></stop>
		<stop id="stop4795" offset="0.4433" style="stop-color:#818181"></stop>
		<stop id="stop4797" offset="0.4611" style="stop-color:#6A6A6A"></stop>
		<stop id="stop4799" offset="0.4814" style="stop-color:#585858"></stop>
		<stop id="stop4801" offset="0.506" style="stop-color:#4C4C4C"></stop>
		<stop id="stop4803" offset="0.539" style="stop-color:#444444"></stop>
		<stop id="stop4805" offset="0.6166" style="stop-color:#424242"></stop>
		<stop id="stop4807" offset="0.6684" style="stop-color:#454545"></stop>
		<stop id="stop4809" offset="1" style="stop-color:#BDBDBD"></stop>
	</linearGradient>
	
	
		<linearGradient gradientTransform="matrix(1,0,0,-1,192.3999,143.0996)" y2="104.4332" x2="-154.15421" y1="97.627899" x1="-153.1255" gradientUnits="userSpaceOnUse" id="SVGID_37_">
		<stop id="stop4814" offset="0" style="stop-color:#969696"></stop>
		<stop id="stop4816" offset="1" style="stop-color:#000000"></stop>
	</linearGradient>
	
	
	
	<linearGradient y2="38.790001" x2="39.487301" y1="46.373001" x1="38.737301" gradientUnits="userSpaceOnUse" id="SVGID_38_">
		<stop id="stop4825" offset="0" style="stop-color:#333333"></stop>
		<stop id="stop4827" offset="0.431" style="stop-color:#000000"></stop>
		<stop id="stop4829" offset="1" style="stop-color:#2E2E2E"></stop>
	</linearGradient>
	
	
	
	
	
		<radialGradient gradientUnits="userSpaceOnUse" gradientTransform="matrix(1,0,0,-1,192.3999,143.0996)" r="72.751701" cy="106.5996" cx="-138.2334" id="SVGID_39_">
		<stop id="stop4840" offset="0" style="stop-color:#000000;stop-opacity:0"></stop>
		<stop id="stop4842" offset="0.80220002" style="stop-color:#000000;stop-opacity:0.08"></stop>
		<stop id="stop4844" offset="1" style="stop-color:#000000;stop-opacity:0.3882353"></stop>
	</radialGradient>
	
<radialGradient inkscape:collect="always" xlink:href="#SVGID_39_" id="radialGradient5007" gradientUnits="userSpaceOnUse" gradientTransform="matrix(1,0,0,-1,192.3999,143.0996)" cx="-138.2334" cy="106.5996" r="72.751701"></radialGradient><linearGradient inkscape:collect="always" xlink:href="#SVGID_38_" id="linearGradient5013" gradientUnits="userSpaceOnUse" x1="38.737301" y1="46.373001" x2="39.487301" y2="38.790001"></linearGradient><linearGradient inkscape:collect="always" xlink:href="#SVGID_37_" id="linearGradient5018" gradientUnits="userSpaceOnUse" gradientTransform="matrix(1,0,0,-1,192.3999,143.0996)" x1="-153.1255" y1="97.627899" x2="-154.15421" y2="104.4332"></linearGradient><linearGradient inkscape:collect="always" xlink:href="#SVGID_36_" id="linearGradient5021" gradientUnits="userSpaceOnUse" gradientTransform="matrix(1,0,0,-1,192.3999,143.0996)" x1="-158.4185" y1="107.8965" x2="-126.5454" y2="107.8965"></linearGradient><linearGradient inkscape:collect="always" xlink:href="#SVGID_35_" id="linearGradient5024" gradientUnits="userSpaceOnUse" gradientTransform="matrix(1,0,0,-1,192.3999,143.0996)" x1="-158.8101" y1="107.0898" x2="-126.4229" y2="107.0898"></linearGradient><linearGradient inkscape:collect="always" xlink:href="#SVGID_34_" id="linearGradient5036" gradientUnits="userSpaceOnUse" x1="22.5742" y1="49.7188" x2="111.5455" y2="29.204"></linearGradient><linearGradient inkscape:collect="always" xlink:href="#SVGID_27_" id="linearGradient5252" gradientUnits="userSpaceOnUse" x1="23.471201" y1="30.732401" x2="27.9561" y2="30.732401"></linearGradient><linearGradient inkscape:collect="always" xlink:href="#SVGID_26_" id="linearGradient5258" gradientUnits="userSpaceOnUse" x1="21.2129" y1="71.326698" x2="117.1948" y2="51.952599"></linearGradient><linearGradient inkscape:collect="always" xlink:href="#SVGID_25_" id="linearGradient5261" gradientUnits="userSpaceOnUse" gradientTransform="matrix(1,0,0,-1,192.3999,143.0996)" x1="-176.1851" y1="78.4795" x2="-52.131699" y2="92.223099"></linearGradient><linearGradient inkscape:collect="always" xlink:href="#SVGID_24_" id="linearGradient5264" gradientUnits="userSpaceOnUse" gradientTransform="matrix(1,0,0,-1,192.3999,143.0996)" x1="-175.7173" y1="78.449203" x2="-67.153198" y2="90.476799"></linearGradient><linearGradient inkscape:collect="always" xlink:href="#SVGID_23_" id="linearGradient5267" gradientUnits="userSpaceOnUse" gradientTransform="matrix(1,0,0,-1,192.3999,143.0996)" x1="-172.3853" y1="78.209" x2="-172.3853" y2="78.209"></linearGradient><linearGradient inkscape:collect="always" xlink:href="#SVGID_22_" id="linearGradient5275" gradientUnits="userSpaceOnUse" gradientTransform="matrix(1,0,0,-1,192.3999,143.0996)" x1="-175.14211" y1="104.0801" x2="-83.541" y2="104.0801"></linearGradient><linearGradient inkscape:collect="always" xlink:href="#SVGID_21_" id="linearGradient5278" gradientUnits="userSpaceOnUse" gradientTransform="matrix(1,0,0,-1,192.3999,143.0996)" x1="-175.4424" y1="83.6045" x2="-75.6362" y2="83.6045"></linearGradient><linearGradient inkscape:collect="always" xlink:href="#SVGID_18_" id="linearGradient5317" gradientUnits="userSpaceOnUse" gradientTransform="matrix(1,0,0,-1,192.3999,143.0996)" x1="-115.3716" y1="119.1758" x2="-134.7878" y2="24.695299"></linearGradient><linearGradient inkscape:collect="always" xlink:href="#SVGID_17_" id="linearGradient5320" gradientUnits="userSpaceOnUse" gradientTransform="matrix(1,0,0,-1,192.3999,143.0996)" x1="-118.4946" y1="124.0039" x2="-138.85201" y2="24.9438"></linearGradient><linearGradient inkscape:collect="always" xlink:href="#SVGID_16_" id="linearGradient5323" gradientUnits="userSpaceOnUse" gradientTransform="matrix(1,0,0,-1,192.3999,143.0996)" x1="-127.4014" y1="121.9365" x2="-146.8837" y2="27.1346"></linearGradient><linearGradient inkscape:collect="always" xlink:href="#SVGID_15_" id="linearGradient5326" gradientUnits="userSpaceOnUse" gradientTransform="matrix(1,0,0,-1,192.3999,143.0996)" x1="-135.58591" y1="123.3525" x2="-155.006" y2="28.8524"></linearGradient><linearGradient inkscape:collect="always" xlink:href="#SVGID_14_" id="linearGradient5329" gradientUnits="userSpaceOnUse" gradientTransform="matrix(1,0,0,-1,192.3999,143.0996)" x1="-121.1382" y1="120.3223" x2="-140.54491" y2="25.888"></linearGradient><linearGradient inkscape:collect="always" xlink:href="#SVGID_13_" id="linearGradient5334" gradientUnits="userSpaceOnUse" gradientTransform="matrix(1,0,0,-1,192.3999,143.0996)" x1="-130.1348" y1="35.625" x2="-130.14281" y2="35.585701"></linearGradient><linearGradient inkscape:collect="always" xlink:href="#SVGID_12_" id="linearGradient5337" gradientUnits="userSpaceOnUse" gradientTransform="matrix(1,0,0,-1,192.3999,143.0996)" x1="-152.6201" y1="126.8398" x2="-171.9462" y2="32.797901"></linearGradient><linearGradient inkscape:collect="always" xlink:href="#SVGID_11_" id="linearGradient5340" gradientUnits="userSpaceOnUse" x1="32.519001" y1="33.077099" x2="37.2481" y2="92.496101"></linearGradient><linearGradient inkscape:collect="always" xlink:href="#SVGID_10_" id="linearGradient5343" gradientUnits="userSpaceOnUse" gradientTransform="matrix(1,0,0,-1,192.3999,143.0996)" x1="-115.3369" y1="119.6328" x2="-134.85719" y2="24.6462"></linearGradient><linearGradient inkscape:collect="always" xlink:href="#SVGID_9_" id="linearGradient5354" gradientUnits="userSpaceOnUse" x1="54.653301" y1="25.2764" x2="79.683601" y2="106.3903"></linearGradient><linearGradient inkscape:collect="always" xlink:href="#SVGID_8_" id="linearGradient5357" gradientUnits="userSpaceOnUse" gradientTransform="matrix(1,0,0,-1,192.3999,143.0996)" x1="-117.166" y1="122.1328" x2="-87.569702" y2="31.998501"></linearGradient><linearGradient inkscape:collect="always" xlink:href="#SVGID_7_" id="linearGradient5360" gradientUnits="userSpaceOnUse" x1="70.421898" y1="26.876499" x2="119.5471" y2="87.626701"></linearGradient><linearGradient inkscape:collect="always" xlink:href="#SVGID_6_" id="linearGradient5363" gradientUnits="userSpaceOnUse" gradientTransform="matrix(1,0,0,-1,192.3999,143.0996)" x1="-123.5898" y1="119.8076" x2="-94.069099" y2="29.9035"></linearGradient><linearGradient inkscape:collect="always" xlink:href="#SVGID_5_" id="linearGradient5379" gradientUnits="userSpaceOnUse" x1="54.715801" y1="65.136703" x2="83.798798" y2="65.136703"></linearGradient><linearGradient inkscape:collect="always" xlink:href="#SVGID_2_" id="linearGradient5391" gradientUnits="userSpaceOnUse" x1="66.232399" y1="24.481001" x2="112.7331" y2="97.232101"></linearGradient><radialGradient inkscape:collect="always" xlink:href="#SVGID_1_" id="radialGradient5395" gradientUnits="userSpaceOnUse" gradientTransform="matrix(1,0,0,-1,192.3999,143.0996)" cx="-145.4702" cy="87.823196" r="68.686401"></radialGradient>
	
	
<inkscape:perspective id="perspective10537" inkscape:persp3d-origin="0.5 : 0.33333333 : 1" inkscape:vp_z="1 : 0.5 : 1" inkscape:vp_y="0 : 1000 : 0" inkscape:vp_x="0 : 0.5 : 1" sodipodi:type="inkscape:persp3d"></inkscape:perspective><inkscape:perspective id="perspective13111" inkscape:persp3d-origin="0.5 : 0.33333333 : 1" inkscape:vp_z="1 : 0.5 : 1" inkscape:vp_y="0 : 1000 : 0" inkscape:vp_x="0 : 0.5 : 1" sodipodi:type="inkscape:persp3d"></inkscape:perspective><inkscape:perspective id="perspective18648" inkscape:persp3d-origin="0.5 : 0.33333333 : 1" inkscape:vp_z="1 : 0.5 : 1" inkscape:vp_y="0 : 1000 : 0" inkscape:vp_x="0 : 0.5 : 1" sodipodi:type="inkscape:persp3d"></inkscape:perspective><inkscape:perspective id="perspective23049" inkscape:persp3d-origin="0.5 : 0.33333333 : 1" inkscape:vp_z="1 : 0.5 : 1" inkscape:vp_y="0 : 1000 : 0" inkscape:vp_x="0 : 0.5 : 1" sodipodi:type="inkscape:persp3d"></inkscape:perspective><inkscape:perspective id="perspective31780" inkscape:persp3d-origin="0.5 : 0.33333333 : 1" inkscape:vp_z="1 : 0.5 : 1" inkscape:vp_y="0 : 1000 : 0" inkscape:vp_x="0 : 0.5 : 1" sodipodi:type="inkscape:persp3d"></inkscape:perspective></defs><sodipodi:namedview pagecolor="#ffffff" bordercolor="#666666" borderopacity="1" objecttolerance="10" gridtolerance="10" guidetolerance="10" inkscape:pageopacity="0" inkscape:pageshadow="2" inkscape:window-width="1198" inkscape:window-height="802" id="namedview4848" showgrid="false" inkscape:zoom="4" inkscape:cx="57.814378" inkscape:cy="35.974807" inkscape:window-x="0" inkscape:window-y="32" inkscape:window-maximized="0" inkscape:current-layer="svg3857" showguides="true" inkscape:guide-bbox="true"><sodipodi:guide orientation="0,1" position="0,140" id="globe_top"></sodipodi:guide><sodipodi:guide orientation="1,0" position="16,0" id="globe_left"></sodipodi:guide><sodipodi:guide orientation="1,0" position="119,0" id="globe_right"></sodipodi:guide><sodipodi:guide id="globe_bottom" position="0,47" orientation="0,1"></sodipodi:guide><sodipodi:guide orientation="0,1" position="8,40" id="wordmark_top"></sodipodi:guide><sodipodi:guide orientation="0,1" position="8,22.5" id="wordmark_bottom"></sodipodi:guide><sodipodi:guide orientation="0,1" position="0,17" id="subtitle_top"></sodipodi:guide><sodipodi:guide orientation="0,1" position="0,8" id="subtitle_bottom"></sodipodi:guide><sodipodi:guide orientation="1,0" position="8,40" id="wordmark_left"></sodipodi:guide><sodipodi:guide orientation="1,0" position="127,40" id="wordmark_right"></sodipodi:guide></sodipodi:namedview><g id="Wikipedia"><path d="m 23.559651,115.891 c 1.160999,0.162 1.025999,0.756 0.216,2.322 l -1.431,2.7 -0.135,-0.135 -1.323,-2.727 c -0.728999,-1.539 -0.836999,-1.998 0.297,-2.16 0.162,-0.162 0.162,-0.729 0,-0.891 -0.971999,0.027 -1.404001,0.054 -2.457,0.054 -1.079999,0 -1.539001,-0.027 -2.403,-0.054 -0.161999,0.162 -0.134999,0.729 0.027,0.891 1.160999,0.162 1.377001,0.54 2.268,2.457 l 2.268,4.833 -2.997,6.129 -0.135,0 -4.940999,-11.259 c -0.675,-1.539 -0.593999,-1.971 1.107,-2.16 0.161999,-0.162 0.161999,-0.729 0,-0.891 -1.268999,0.027 -1.944001,0.054 -2.997,0.054 -1.0799984,0 -1.5390014,-0.027 -2.8079994,-0.054 -0.162,0.162 -0.135,0.729 0.027,0.891 1.538998,0.135 1.593,0.54 2.4029994,2.457 l 5.885999,13.824 c 0.162,0.405 0.351,0.621 0.621,0.621 0.297,0 0.486,-0.216 0.648,-0.621 l 3.969,-7.83 3.645,7.83 c 0.135,0.405 0.351,0.621 0.621,0.621 0.297,0 0.459,-0.216 0.648,-0.621 l 6.372,-13.77 c 0.566999,-1.242 0.891002,-2.295 2.673,-2.511 0.162,-0.162 0.162,-0.729 0,-0.891 -1.079999,0.027 -1.755001,0.054 -2.376,0.054 -0.620999,0 -1.404001,-0.027 -2.673,-0.054 -0.162,0.162 -0.162,0.729 0,0.891 1.754998,0.135 1.781999,0.864 1.161,2.322 l -5.13,11.097 -0.135,0 -3.456,-7.128 1.971,-3.78 c 0.674999,-1.242 1.269001,-2.295 2.673,-2.511 0.162,-0.162 0.162,-0.729 0,-0.891 -0.674999,0.027 -1.350001,0.054 -1.971,0.054 -0.620999,0 -1.134001,-0.027 -2.133,-0.054 -0.162,0.162 -0.162,0.729 0,0.891" id="path3417"></path><path id="path3904" d="m 37.592,130.77 c 0,0.572 0.26,0.91 1.092,0.988 l 0.546,0.053 c 0.078,0 0.156,0.051 0.156,0.155 v 0.546 l -0.026,0.053 c 0,0 -1.976,-0.053 -2.782,-0.053 -0.728,0 -2.756,0.053 -2.756,0.053 l -0.052,-0.053 v -0.546 c 0,-0.104 0.078,-0.155 0.182,-0.155 l 0.52,-0.053 c 0.858,-0.078 1.118,-0.494 1.118,-0.988 v -8.658 c 0,-0.571 -0.313,-0.729 -1.118,-0.805 l -0.52,-0.054 c -0.104,0 -0.182,-0.024 -0.182,-0.104 v -0.599 l 0.026,-0.052 c 0,0 2.054,0.052 2.86,0.052 0.702,0 2.704,-0.052 2.704,-0.052 l 0.026,0.052 v 0.572 c 0,0.078 -0.052,0.13 -0.156,0.13 l -0.546,0.053 c -0.806,0.077 -1.092,0.286 -1.092,0.807 v 8.658 z"></path><path id="path3906" d="m 45.265,130.77 c 0,0.572 0.338,0.858 1.092,0.988 l 0.286,0.053 c 0.078,0.025 0.156,0.051 0.156,0.155 v 0.546 l -0.026,0.053 c 0,0 -1.638,-0.053 -2.418,-0.053 -0.728,0 -2.86,0.053 -2.86,0.053 l -0.052,-0.053 v -0.546 c 0,-0.104 0.078,-0.155 0.182,-0.155 l 0.52,-0.053 c 0.78,-0.078 1.118,-0.494 1.118,-0.988 v -8.658 c 0,-0.571 -0.286,-0.729 -1.118,-0.805 l -0.52,-0.054 c -0.104,0 -0.182,-0.024 -0.182,-0.104 v -0.599 l 0.026,-0.052 c 0,0 2.132,0.052 2.938,0.052 0.729,0 2.366,-0.052 2.366,-0.052 l 0.026,0.052 v 0.572 c 0,0.078 -0.052,0.104 -0.156,0.13 l -0.286,0.053 c -0.806,0.155 -1.092,0.286 -1.092,0.807 v 3.926 c 0.858,0 1.352,-0.441 2.496,-1.664 1.04,-1.145 1.846,-2.105 1.846,-2.6 0,-0.209 -0.234,-0.442 -0.754,-0.521 -0.104,-0.025 -0.156,-0.052 -0.156,-0.13 v -0.599 l 0.026,-0.025 c 0,0 2.106,0.052 2.86,0.052 0.676,0 1.82,-0.052 1.82,-0.052 l 0.078,0.025 v 0.599 c 0,0.078 -0.078,0.13 -0.208,0.13 -1.014,0.078 -1.716,0.13 -2.652,1.196 l -2.236,2.573 c -0.442,0.469 -0.598,0.754 -0.598,0.963 0,0.156 0.104,0.285 0.234,0.441 l 3.926,4.732 c 0.312,0.363 0.936,0.52 1.456,0.623 l 0.13,0.025 c 0.078,0.026 0.182,0.078 0.182,0.156 v 0.546 l -0.078,0.026 c 0,0 -1.378,-0.026 -2.106,-0.026 -0.65,0 -1.586,0.026 -1.586,0.026 l -0.026,-0.026 v -0.312 c 0,-0.339 -0.026,-0.623 -0.39,-1.039 l -2.886,-3.589 c -0.39,-0.521 -0.806,-0.649 -1.378,-0.649 v 3.851 l 0,0 z"></path><path id="path3908" d="m 59.282,130.77 c 0,0.572 0.26,0.91 1.092,0.988 l 0.546,0.053 c 0.078,0 0.156,0.051 0.156,0.155 v 0.546 l -0.026,0.053 c 0,0 -1.976,-0.053 -2.782,-0.053 -0.728,0 -2.756,0.053 -2.756,0.053 l -0.052,-0.053 v -0.546 c 0,-0.104 0.078,-0.155 0.182,-0.155 l 0.52,-0.053 c 0.858,-0.078 1.118,-0.494 1.118,-0.988 v -8.658 c 0,-0.571 -0.312,-0.729 -1.118,-0.805 l -0.52,-0.054 c -0.104,0 -0.182,-0.024 -0.182,-0.104 v -0.599 l 0.026,-0.052 c 0,0 2.054,0.052 2.86,0.052 0.702,0 2.704,-0.052 2.704,-0.052 l 0.026,0.052 v 0.572 c 0,0.078 -0.052,0.13 -0.156,0.13 l -0.546,0.053 c -0.806,0.077 -1.092,0.286 -1.092,0.807 v 8.658 z"></path><path id="path3910" d="m 64.9,122.163 c 0,-0.806 -0.338,-0.832 -1.56,-0.91 -0.156,0 -0.182,-0.077 -0.182,-0.13 v -0.598 l 0.052,-0.026 c 0.39,0 1.924,0.052 2.678,0.052 0.728,0 1.768,-0.052 2.73,-0.052 3.69,0 4.366,1.819 4.366,3.173 0,1.561 -0.754,4.004 -4.444,4.004 -0.65,0 -1.17,-0.053 -1.639,-0.26 v 3.482 c 0,0.572 0.312,0.703 1.145,0.832 l 0.521,0.078 c 0.104,0.026 0.182,0.053 0.182,0.156 v 0.546 l -0.025,0.052 c 0,0 -2.08,-0.052 -2.886,-0.052 -0.728,0 -2.678,0.052 -2.678,0.052 l -0.026,-0.052 v -0.546 c 0,-0.104 0.052,-0.13 0.156,-0.156 l 0.546,-0.078 c 0.806,-0.104 1.066,-0.338 1.066,-0.832 l -0.002,-8.735 0,0 z m 2.002,4.525 c 0.52,0.209 1.17,0.234 1.69,0.234 1.561,0 2.312,-0.938 2.312,-2.938 0,-2.236 -1.014,-2.73 -2.442,-2.73 -1.249,0 -1.561,0.234 -1.561,0.91 l 0.001,4.524 0,0 z"></path><path id="path3912" d="m 77.462,132.512 c -0.78,0 -2.573,0.053 -2.573,0.053 l -0.027,-0.053 v -0.572 c 0,-0.051 0.027,-0.129 0.156,-0.129 l 0.599,-0.053 c 0.807,-0.078 1.041,-0.598 1.041,-1.117 v -8.58 c 0,-0.6 -0.313,-0.703 -1.041,-0.754 l -0.599,-0.054 c -0.156,-0.024 -0.156,-0.077 -0.156,-0.104 v -0.599 l 0.027,-0.052 c 0,0 2.027,0.052 2.807,0.052 h 3.822 c 0.78,0 2.627,-0.052 2.627,-0.052 l 0.053,0.052 c 0.025,1.118 0.207,2.134 0.39,3.121 l -0.649,0.104 c -0.285,-0.963 -0.779,-2.34 -2.443,-2.34 h -2.08 c -0.494,0 -0.754,0.182 -0.754,0.623 v 3.771 h 1.949 c 0.729,0 0.91,-0.312 1.015,-0.832 l 0.155,-0.546 c 0,-0.078 0.053,-0.131 0.156,-0.131 h 0.441 c 0.053,0 0.053,0.027 0.053,0.078 -0.053,0.572 -0.156,1.301 -0.156,1.925 0,0.649 0.104,1.196 0.156,1.794 l -0.053,0.053 h -0.441 c -0.129,0 -0.183,-0.053 -0.183,-0.131 l -0.13,-0.571 c -0.104,-0.521 -0.338,-0.807 -1.016,-0.807 H 78.66 v 3.979 c 0,0.493 0.284,0.987 0.754,0.987 h 2.47 c 1.326,0 2.055,-0.832 2.366,-2.185 l 0.649,0.078 -0.521,2.989 -0.052,0.052 c 0,0 -1.534,-0.052 -2.314,-0.052 l -4.55,0.003 0,0 z"></path><path id="path3914" d="m 87.24,131.811 0.598,-0.053 c 0.781,-0.078 1.041,-0.312 1.041,-1.117 v -8.58 c 0,-0.678 -0.184,-0.678 -1.041,-0.754 l -0.57,-0.054 c -0.104,0 -0.184,-0.052 -0.184,-0.13 v -0.572 l 0.025,-0.052 c 0,0 2.289,0.052 2.758,0.052 0.492,0 2.756,-0.052 3.432,-0.052 4.342,0 6.475,2.704 6.475,6.162 0,4.551 -3.225,5.901 -6.11,5.901 -2.08,0 -2.989,-0.052 -3.795,-0.052 -0.781,0 -2.757,0.052 -2.757,0.052 l -0.026,-0.052 v -0.546 c -0.002,-0.075 0.051,-0.153 0.154,-0.153 z m 5.799,0 c 2.859,0 4.473,-1.065 4.473,-4.707 0,-2.703 -0.599,-5.851 -4.967,-5.851 -1.014,0 -1.664,0.156 -1.664,0.808 v 8.58 c 0,0.726 0.181,1.17 2.158,1.17 z"></path><path id="path3916" d="m 105.912,130.77 c 0,0.572 0.26,0.91 1.092,0.988 l 0.546,0.053 c 0.078,0 0.156,0.051 0.156,0.155 v 0.546 l -0.026,0.053 c 0,0 -1.976,-0.053 -2.781,-0.053 -0.729,0 -2.756,0.053 -2.756,0.053 l -0.053,-0.053 v -0.546 c 0,-0.104 0.078,-0.155 0.182,-0.155 l 0.521,-0.053 c 0.857,-0.078 1.118,-0.494 1.118,-0.988 v -8.658 c 0,-0.571 -0.313,-0.729 -1.118,-0.805 l -0.521,-0.054 c -0.104,0 -0.182,-0.024 -0.182,-0.104 v -0.599 l 0.026,-0.052 c 0,0 2.054,0.052 2.858,0.052 0.702,0 2.705,-0.052 2.705,-0.052 l 0.025,0.052 v 0.572 c 0,0.078 -0.053,0.13 -0.156,0.13 l -0.546,0.053 c -0.806,0.077 -1.092,0.286 -1.092,0.807 l 0.002,8.658 0,0 z"></path><path id="path3918" d="m 113.922,131.758 0.754,0.053 c 0.104,0 0.208,0.078 0.208,0.207 v 0.494 l -0.052,0.053 c 0,0 -2.834,-0.053 -3.458,-0.053 -0.677,0 -2.341,0.053 -2.341,0.053 l -0.053,-0.053 v -0.494 c 0,-0.129 0.078,-0.207 0.209,-0.207 1.145,-0.078 1.793,-0.287 2.521,-1.951 l 5.771,-13.521 c 0.285,-0.676 0.494,-0.937 0.885,-0.937 0.363,0 0.494,0.261 0.701,0.781 l 5.33,14.092 c 0.365,1.015 0.885,1.404 1.925,1.508 l 0.286,0.025 c 0.13,0 0.26,0.078 0.26,0.209 v 0.493 l -0.078,0.052 c 0,0 -2.002,-0.052 -3.016,-0.052 -0.91,0 -3.459,0.052 -3.459,0.052 l -0.025,-0.052 v -0.493 c 0,-0.131 0.052,-0.209 0.184,-0.209 l 0.728,-0.052 c 0.987,-0.077 1.353,-0.391 1.092,-1.118 l -1.586,-4.395 H 115.3 c -0.624,0 -0.78,0.104 -0.909,0.441 l -1.509,3.771 c -0.26,0.652 0.078,1.225 1.04,1.303 z m 6.37,-6.606 -2.522,-6.941 h -0.052 l -2.6,6.604 c -0.104,0.261 0.077,0.338 0.649,0.338 h 4.525 z"></path></g><g transform="translate(-0.0940463,-3.92282)" id="text4667" style="font-size:13px;font-style:normal;font-variant:normal;font-weight:normal;font-stretch:normal;text-align:start;line-height:125%;text-anchor:start;fill:#000000;fill-opacity:1;stroke:none;font-family:Linux Libertine"><path d="m 13.053959,150.49219 c 0.236974,0 0.446447,-0.0423 0.628418,-0.12696 0.186192,-0.0889 0.340652,-0.21582 0.463379,-0.38086 0.126947,-0.16503 0.230625,-0.34065 0.311035,-0.52685 0.08463,-0.1862 0.162917,-0.40836 0.234863,-0.6665 l 0.387207,0.0635 c -0.186204,0.90983 -0.298346,1.63347 -0.336426,2.1709 C 13.946857,151.00846 13.430582,151 13.193607,151 l -2.780273,0 c -0.287762,0 -0.8378918,0.008 -1.6503907,0.0254 L 8.7375526,151 l 0,-0.24756 c -2e-7,-0.0677 0.033854,-0.10156 0.1015625,-0.10156 l 0.3935547,-0.0254 c 0.2708324,-0.0212 0.4485666,-0.0656 0.5332032,-0.1333 0.084634,-0.0677 0.1269517,-0.20947 0.1269531,-0.4253 l 0,-6.53173 c -1.4e-6,-0.18619 -0.052899,-0.31738 -0.1586914,-0.39356 -0.1057954,-0.0804 -0.2877614,-0.13118 -0.5458985,-0.15234 l -0.3491211,-0.0254 c -0.067709,1e-5 -0.1015627,-0.0338 -0.1015625,-0.10157 l 0,-0.24755 0.025391,-0.0254 c 0.8124989,0.0169 1.3626284,0.0254 1.6503904,0.0254 0.296222,0 0.850583,-0.008 1.663086,-0.0254 l 0.02539,0.0254 0,0.24755 c -3e-6,0.0677 -0.03386,0.10158 -0.101562,0.10157 l -0.336426,0.0254 c -0.266604,0.0212 -0.452802,0.0719 -0.558594,0.15234 -0.105796,0.0804 -0.158693,0.2116 -0.158691,0.39356 l 0,6.30957 c -2e-6,0.19889 0.05501,0.35758 0.165039,0.47607 0.110023,0.11426 0.258135,0.17139 0.444336,0.17139 l 1.498047,0" id="path4672-9"></path><path d="m 19.528666,147.97217 -1.02832,0.27295 c -0.837893,0.22852 -1.256838,0.70459 -1.256836,1.42822 -2e-6,0.23275 0.08463,0.44645 0.253906,0.64111 0.169269,0.19043 0.404132,0.28565 0.70459,0.28565 0.296221,0 0.67708,-0.18832 1.142578,-0.56494 0.122718,-0.0846 0.184078,-0.19678 0.184082,-0.33643 l 0,-1.72656 m 0,2.40576 -0.02539,0 -0.260254,0.20312 c -0.287763,0.22429 -0.522626,0.37028 -0.704589,0.43799 -0.177737,0.0719 -0.414716,0.10791 -0.710938,0.10791 -0.490887,0 -0.882325,-0.11214 -1.174316,-0.33642 -0.291993,-0.22429 -0.437989,-0.57975 -0.437989,-1.06641 0,-0.43164 0.192545,-0.8125 0.577637,-1.14258 0.389322,-0.3343 0.903481,-0.58186 1.542481,-0.74267 l 1.117187,-0.27295 c 0.05078,-0.0169 0.07617,-0.0677 0.07617,-0.15235 -4e-6,-0.28352 -0.02328,-0.53108 -0.06982,-0.74267 -0.04655,-0.21582 -0.103682,-0.38509 -0.171387,-0.50781 -0.06771,-0.12272 -0.152347,-0.22005 -0.253906,-0.292 -0.09733,-0.0762 -0.190433,-0.12694 -0.279297,-0.15234 -0.08464,-0.0254 -0.177737,-0.0381 -0.279297,-0.0381 -0.279299,10e-6 -0.528973,0.0508 -0.749023,0.15235 -0.220054,0.10157 -0.33008,0.24756 -0.330078,0.43799 -2e-6,0.11849 0.0085,0.20313 0.02539,0.2539 0.02539,0.055 0.03808,0.13331 0.03809,0.23487 -2e-6,0.10156 -0.0529,0.19889 -0.158691,0.29199 -0.101564,0.0931 -0.239097,0.13965 -0.412598,0.13965 -0.300457,0 -0.450684,-0.15234 -0.450684,-0.45704 0,-0.22851 0.103678,-0.45491 0.311036,-0.67919 0.207355,-0.22428 0.478188,-0.40625 0.8125,-0.5459 0.334307,-0.14388 0.672849,-0.21582 1.015625,-0.21582 0.207353,0 0.395667,0.0169 0.564941,0.0508 0.173499,0.0339 0.347001,0.0994 0.520508,0.19678 0.173498,0.0931 0.317378,0.21794 0.43164,0.37451 0.118486,0.15658 0.2137,0.37028 0.285645,0.64111 0.07617,0.26661 0.114253,0.57764 0.114258,0.93311 l 0,1.93603 c -5e-6,0.12272 -5e-6,0.22217 0,0.29834 0.0042,0.0719 0.01057,0.15869 0.01904,0.26025 0.01269,0.0973 0.02962,0.17562 0.05078,0.23487 0.02115,0.055 0.04866,0.11214 0.08252,0.17138 0.03808,0.0592 0.08675,0.10157 0.145996,0.12696 0.06347,0.0254 0.135411,0.0381 0.21582,0.0381 0.09309,0 0.169265,-0.0169 0.228516,-0.0508 0.05924,-0.0339 0.103672,-0.0677 0.1333,-0.10156 0.02962,-0.0339 0.05289,-0.0508 0.06983,-0.0508 0.02538,0 0.05501,0.0212 0.08887,0.0635 0.03808,0.0423 0.05712,0.0846 0.05713,0.12695 -6e-6,0.0169 -0.01693,0.0465 -0.05078,0.0889 -0.03386,0.0423 -0.08464,0.091 -0.152343,0.14599 -0.06348,0.055 -0.137538,0.11003 -0.222168,0.16504 -0.08464,0.0508 -0.186203,0.0931 -0.304688,0.12695 -0.114263,0.0381 -0.230636,0.0571 -0.349121,0.0571 -0.512048,0 -0.837894,-0.24967 -0.977539,-0.74902" id="path4674-0"></path><path d="m 27.818901,145.29346 -0.03809,1.15527 0.03809,0 c 0.385089,-0.45279 0.740557,-0.75748 1.066406,-0.91406 0.330075,-0.1608 0.681312,-0.24121 1.053711,-0.24121 0.283524,0 0.520503,0.0508 0.710938,0.15234 0.194656,0.10157 0.342768,0.2518 0.444336,0.45068 0.101557,0.19467 0.171381,0.40837 0.209472,0.64112 0.04231,0.22852 0.06347,0.49935 0.06348,0.8125 l 0,2.71679 c -6e-6,0.1862 0.0402,0.32162 0.120605,0.40625 0.0804,0.0804 0.222162,0.13119 0.425293,0.15235 l 0.247559,0.0254 c 0.07617,0.0169 0.114251,0.0508 0.114258,0.10156 l 0,0.24756 -0.02539,0.0254 C 31.555549,151.00846 31.09217,151 30.859428,151 c -0.165044,0 -0.594568,0.008 -1.288574,0.0254 L 29.545464,151 l 0,-0.24756 c -4e-6,-0.055 0.03597,-0.0889 0.10791,-0.10156 l 0.177734,-0.0254 c 0.215816,-0.0339 0.361812,-0.0889 0.437988,-0.16504 0.0804,-0.0804 0.120601,-0.21159 0.120606,-0.39356 l 0,-2.81201 c -5e-6,-0.48241 -0.05925,-0.82519 -0.177735,-1.02832 -0.114262,-0.20735 -0.33643,-0.31103 -0.666503,-0.31103 -0.30046,0 -0.583988,0.0741 -0.850586,0.22217 -0.266605,0.14811 -0.558597,0.40837 -0.875977,0.78076 l 0,3.14843 c -2e-6,0.1862 0.03808,0.31739 0.114258,0.39356 0.0804,0.0762 0.228513,0.13118 0.444336,0.16504 l 0.184082,0.0254 c 0.06771,0.0127 0.101559,0.0465 0.101562,0.10156 l 0,0.24756 -0.02539,0.0254 C 27.943736,151.00846 27.501516,151 27.311089,151 c -0.207359,0 -0.658042,0.008 -1.352051,0.0254 L 25.933647,151 l 0,-0.24756 c 0,-0.055 0.03385,-0.0889 0.101563,-0.10156 l 0.247558,-0.0254 c 0.21582,-0.0212 0.361816,-0.0719 0.437989,-0.15235 0.0804,-0.0804 0.120604,-0.21582 0.120605,-0.40625 l 0,-3.2373 c -1e-6,-0.30891 -0.02328,-0.51627 -0.06982,-0.62207 -0.04232,-0.11002 -0.114259,-0.17138 -0.215821,-0.18408 l -0.558593,-0.0571 -0.02539,-0.31104 c 0.829426,-0.12694 1.428221,-0.26024 1.796387,-0.3999 0.03385,1e-5 0.05078,0.0127 0.05078,0.0381" id="path4676-3"></path><path d="m 38.013334,149.81934 c -0.207361,0.34277 -0.431645,0.6136 -0.672851,0.8125 -0.236984,0.19889 -0.467615,0.33007 -0.691895,0.39355 -0.220055,0.0677 -0.471846,0.10156 -0.755371,0.10156 -0.804039,0 -1.43034,-0.25813 -1.878906,-0.77441 -0.444337,-0.51628 -0.666505,-1.20182 -0.666504,-2.05664 -1e-6,-0.44857 0.07405,-0.86328 0.222168,-1.24414 0.148111,-0.38086 0.347004,-0.69824 0.59668,-0.95215 0.249673,-0.2539 0.535317,-0.45068 0.856933,-0.59033 0.325844,-0.14388 0.664385,-0.21582 1.015625,-0.21582 0.596676,0 1.068518,0.13119 1.415528,0.39355 0.347,0.25814 0.520502,0.56918 0.520507,0.93311 -5e-6,0.1735 -0.06348,0.31104 -0.190429,0.41259 -0.126958,0.0973 -0.266607,0.146 -0.418946,0.146 -0.279301,0 -0.435876,-0.15234 -0.469726,-0.45703 -0.01693,-0.13541 -0.03809,-0.24755 -0.06348,-0.33643 -0.02539,-0.0931 -0.06983,-0.19465 -0.133301,-0.30468 -0.05925,-0.11426 -0.150231,-0.19889 -0.272949,-0.25391 -0.122725,-0.0592 -0.275068,-0.0889 -0.457031,-0.0889 -0.440107,1e-5 -0.804039,0.20525 -1.091797,0.61573 -0.28353,0.40625 -0.425294,0.9585 -0.425293,1.65673 -10e-7,0.75326 0.160806,1.36687 0.482422,1.84082 0.325844,0.46973 0.740557,0.70459 1.244141,0.70459 0.283525,0 0.564937,-0.0804 0.844238,-0.24121 0.279292,-0.16504 0.518387,-0.39143 0.717285,-0.6792 0.135412,0.0169 0.226395,0.0783 0.272949,0.18409" id="path4678-6"></path><path d="m 39.949467,144.03027 c -0.122723,-0.12271 -0.184083,-0.26871 -0.184082,-0.43798 -1e-6,-0.16927 0.06136,-0.31526 0.184082,-0.43799 0.12272,-0.12695 0.268716,-0.19042 0.437988,-0.19043 0.169269,1e-5 0.315265,0.0614 0.437988,0.18408 0.126951,0.12273 0.190428,0.27084 0.19043,0.44434 -2e-6,0.16927 -0.06348,0.31527 -0.19043,0.43798 -0.122723,0.12273 -0.268719,0.18409 -0.437988,0.18409 -0.169272,0 -0.315268,-0.0614 -0.437988,-0.18409 m 1.041015,1.26319 c -0.02962,0.58822 -0.04444,1.10026 -0.04443,1.53613 l 0,3.2373 c -3e-6,0.1862 0.0402,0.32162 0.120605,0.40625 0.08463,0.0804 0.228513,0.13119 0.431641,0.15235 l 0.241211,0.0254 c 0.0804,0.0127 0.120602,0.0465 0.120605,0.10156 l 0,0.24756 -0.02539,0.0254 C 41.140708,151.00846 40.677329,151 40.444584,151 c -0.207358,0 -0.658042,0.008 -1.352051,0.0254 L 39.067142,151 l 0,-0.24756 c 0,-0.055 0.03385,-0.0889 0.101563,-0.10156 l 0.247559,-0.0254 c 0.220051,-0.0296 0.368163,-0.0825 0.444336,-0.15869 0.07617,-0.0804 0.114256,-0.21371 0.114257,-0.39991 l 0,-3.2373 c -10e-7,-0.30891 -0.02328,-0.51627 -0.06982,-0.62207 -0.04232,-0.11002 -0.114259,-0.17138 -0.21582,-0.18408 l -0.558594,-0.0571 -0.02539,-0.31104 c 0.871744,-0.13118 1.481118,-0.26448 1.828125,-0.3999 0.03808,1e-5 0.05713,0.0127 0.05713,0.0381" id="path4680-6"></path><path d="m 47.674664,149.81934 c -0.207362,0.34277 -0.431646,0.6136 -0.672852,0.8125 -0.236983,0.19889 -0.467615,0.33007 -0.691895,0.39355 -0.220055,0.0677 -0.471845,0.10156 -0.755371,0.10156 -0.804038,0 -1.43034,-0.25813 -1.878906,-0.77441 -0.444337,-0.51628 -0.666504,-1.20182 -0.666504,-2.05664 0,-0.44857 0.07406,-0.86328 0.222168,-1.24414 0.148111,-0.38086 0.347004,-0.69824 0.59668,-0.95215 0.249673,-0.2539 0.535317,-0.45068 0.856933,-0.59033 0.325844,-0.14388 0.664386,-0.21582 1.015625,-0.21582 0.596676,0 1.068518,0.13119 1.415528,0.39355 0.347,0.25814 0.520502,0.56918 0.520508,0.93311 -6e-6,0.1735 -0.06348,0.31104 -0.19043,0.41259 -0.126958,0.0973 -0.266606,0.146 -0.418945,0.146 -0.279301,0 -0.435877,-0.15234 -0.469727,-0.45703 -0.01693,-0.13541 -0.03809,-0.24755 -0.06348,-0.33643 -0.02539,-0.0931 -0.06983,-0.19465 -0.1333,-0.30468 -0.05925,-0.11426 -0.150232,-0.19889 -0.27295,-0.25391 -0.122724,-0.0592 -0.275068,-0.0889 -0.457031,-0.0889 -0.440107,1e-5 -0.804039,0.20525 -1.091797,0.61573 -0.28353,0.40625 -0.425294,0.9585 -0.425293,1.65673 -10e-7,0.75326 0.160806,1.36687 0.482422,1.84082 0.325844,0.46973 0.740557,0.70459 1.244141,0.70459 0.283525,0 0.564937,-0.0804 0.844238,-0.24121 0.279293,-0.16504 0.518387,-0.39143 0.717285,-0.6792 0.135412,0.0169 0.226395,0.0783 0.27295,0.18409" id="path4682-5"></path><path d="m 49.547318,150.06689 0,-6.38574 c -2e-6,-0.40201 -0.03174,-0.67073 -0.09521,-0.80615 -0.05925,-0.13964 -0.158693,-0.20946 -0.29834,-0.20947 l -0.412598,-0.0254 c -0.05501,1e-5 -0.08252,-0.0212 -0.08252,-0.0635 l -0.02539,-0.31104 c 0.270833,-0.0212 0.590331,-0.0656 0.958496,-0.1333 0.368163,-0.0719 0.634764,-0.14175 0.799805,-0.20947 0.110024,1e-5 0.165037,0.0444 0.165039,0.1333 -0.02539,0.34702 -0.03809,0.80193 -0.03809,1.36475 l 0,6.64599 c -2e-6,0.19043 0.03808,0.32585 0.114258,0.40625 0.07617,0.0804 0.220049,0.13119 0.43164,0.15235 l 0.311036,0.0254 c 0.07194,0 0.107906,0.0339 0.10791,0.10156 l 0,0.24756 -0.02539,0.0254 C 50.586215,151.00846 50.103794,151 50.010696,151 c -0.08041,0 -0.552247,0.008 -1.415527,0.0254 l -0.0127,-0.0254 0,-0.24756 c -1e-6,-0.0677 0.02962,-0.10156 0.08887,-0.10156 l 0.311035,-0.0254 c 0.21582,-0.0212 0.363931,-0.0719 0.444336,-0.15235 0.0804,-0.0804 0.120604,-0.21582 0.120606,-0.40625" id="path4684-9"></path><path d="m 56.675835,146.42334 c -5e-6,-0.21582 -0.04021,-0.36604 -0.120606,-0.45068 -0.07618,-0.0889 -0.226404,-0.14599 -0.450683,-0.17139 l -0.209473,-0.0254 -0.03809,-0.0254 0,-0.33008 0.03809,-0.0254 c 0.643225,0.0169 1.072749,0.0254 1.288574,0.0254 0.215815,1e-5 0.366043,-0.008 0.450684,-0.0254 0.03808,1e-5 0.05712,0.008 0.05713,0.0254 -0.0254,0.58399 -0.03809,1.00505 -0.03809,1.26318 l 0,2.80567 c -6e-6,0.32161 0.01904,0.52474 0.05713,0.60937 0.03808,0.0846 0.126947,0.1333 0.266601,0.146 l 0.62207,0.0635 0.03809,0.30468 c -0.842128,0.14812 -1.396489,0.33008 -1.663086,0.5459 l -0.298339,0 0.02539,-0.99023 -0.02539,0 c -0.338546,0.36393 -0.653813,0.61572 -0.945801,0.75537 -0.287764,0.13541 -0.579756,0.20312 -0.875977,0.20312 -0.308921,0 -0.573407,-0.0487 -0.793457,-0.14599 -0.220054,-0.0973 -0.389324,-0.23275 -0.507812,-0.40625 -0.114259,-0.1735 -0.196779,-0.35759 -0.247559,-0.55225 -0.05078,-0.19889 -0.07617,-0.41894 -0.07617,-0.66016 l 0,-2.93896 c -1e-6,-0.21582 -0.0402,-0.36604 -0.120605,-0.45068 -0.07617,-0.0889 -0.226401,-0.14599 -0.450684,-0.17139 l -0.209472,-0.0254 -0.03809,-0.0254 0,-0.33008 0.03809,-0.0254 c 0.643228,0.0169 1.072752,0.0254 1.288574,0.0254 0.22005,1e-5 0.372394,-0.008 0.457031,-0.0254 0.03385,1e-5 0.05078,0.008 0.05078,0.0254 -0.02539,0.58399 -0.03809,1.00505 -0.03809,1.26318 l 0,2.49463 c -2e-6,0.27507 0.03174,0.50993 0.09522,0.70459 0.06347,0.19043 0.14811,0.33008 0.253906,0.41895 0.105792,0.0889 0.20947,0.15234 0.311036,0.19043 0.101559,0.0339 0.209469,0.0508 0.32373,0.0508 0.266598,0 0.5332,-0.0931 0.799805,-0.2793 0.270829,-0.19043 0.499344,-0.39567 0.685547,-0.61572 l 0,-3.22461" id="path4686-2"></path><path d="m 61.2272,146.95654 0,3.17383 c 0.31738,0.3724 0.67708,0.5586 1.079101,0.55859 0.266598,1e-5 0.503577,-0.0487 0.710938,-0.14599 0.211584,-0.10156 0.380855,-0.23063 0.507812,-0.38721 0.126949,-0.15657 0.230627,-0.34277 0.311035,-0.55859 0.08463,-0.21582 0.14176,-0.42952 0.171387,-0.64112 0.02962,-0.21158 0.04443,-0.43163 0.04443,-0.66015 -5e-6,-0.71517 -0.143885,-1.29492 -0.431641,-1.73926 -0.283533,-0.44433 -0.630538,-0.6665 -1.041016,-0.6665 -0.236982,0 -0.488772,0.0973 -0.755371,0.29199 -0.262372,0.19043 -0.461265,0.44857 -0.596679,0.77441 m -0.971192,-0.12695 c -10e-7,-0.30468 -0.02328,-0.51204 -0.06982,-0.62207 -0.04655,-0.11002 -0.118491,-0.17138 -0.21582,-0.18408 l -0.558594,-0.0571 -0.02539,-0.31104 c 0.808267,-0.12271 1.404947,-0.25601 1.790039,-0.3999 0.03385,1e-5 0.05078,0.0127 0.05078,0.0381 l -0.03809,1.04101 0.03809,0 c 0.457028,-0.694 1.026201,-1.04101 1.707519,-1.04101 0.406246,0 0.778641,0.12484 1.117188,0.37451 0.338536,0.24968 0.600906,0.57764 0.787109,0.98389 0.186192,0.40625 0.279291,0.83789 0.279297,1.29492 -6e-6,1.01986 -0.304693,1.8387 -0.914063,2.45654 -0.478194,0.48242 -1.083337,0.72363 -1.815429,0.72363 -0.418948,0 -0.806155,-0.0952 -1.161621,-0.28564 l 0,2.25342 c -2e-6,0.18196 0.0402,0.31315 0.120605,0.39355 0.08463,0.0846 0.226397,0.13542 0.425293,0.15234 l 0.247559,0.0254 c 0.0804,0.0127 0.120602,0.0465 0.120605,0.10156 l 0,0.24756 -0.02539,0.0254 c -0.643231,-0.0169 -1.106609,-0.0254 -1.390136,-0.0254 -0.266603,-10e-6 -0.717286,0.008 -1.352051,0.0254 l -0.03174,-0.0254 0,-0.24756 c 0,-0.055 0.03597,-0.0889 0.10791,-0.10156 l 0.247558,-0.0254 c 0.207356,-0.0169 0.351237,-0.0677 0.431641,-0.15234 0.08463,-0.0804 0.126952,-0.21159 0.126953,-0.39355 l 0,-6.26514" id="path4688-0"></path><path d="m 67.28931,144.03027 c -0.122722,-0.12271 -0.184083,-0.26871 -0.184082,-0.43798 -10e-7,-0.16927 0.06136,-0.31526 0.184082,-0.43799 0.12272,-0.12695 0.268716,-0.19042 0.437989,-0.19043 0.169269,1e-5 0.315265,0.0614 0.437988,0.18408 0.126951,0.12273 0.190427,0.27084 0.19043,0.44434 -3e-6,0.16927 -0.06348,0.31527 -0.19043,0.43798 -0.122723,0.12273 -0.268719,0.18409 -0.437988,0.18409 -0.169273,0 -0.315269,-0.0614 -0.437989,-0.18409 m 1.041016,1.26319 c -0.02962,0.58822 -0.04444,1.10026 -0.04443,1.53613 l 0,3.2373 c -2e-6,0.1862 0.0402,0.32162 0.120606,0.40625 0.08463,0.0804 0.228513,0.13119 0.431641,0.15235 l 0.241211,0.0254 c 0.0804,0.0127 0.120602,0.0465 0.120605,0.10156 l 0,0.24756 -0.02539,0.0254 C 68.480551,151.00846 68.017173,151 67.784428,151 c -0.207359,0 -0.658042,0.008 -1.352051,0.0254 L 66.406986,151 l 0,-0.24756 c 0,-0.055 0.03385,-0.0889 0.101563,-0.10156 l 0.247558,-0.0254 c 0.220051,-0.0296 0.368163,-0.0825 0.444336,-0.15869 0.07617,-0.0804 0.114257,-0.21371 0.114258,-0.39991 l 0,-3.2373 c -10e-7,-0.30891 -0.02328,-0.51627 -0.06982,-0.62207 -0.04232,-0.11002 -0.114259,-0.17138 -0.21582,-0.18408 l -0.558594,-0.0571 -0.02539,-0.31104 c 0.871744,-0.13118 1.481118,-0.26448 1.828125,-0.3999 0.03808,1e-5 0.05713,0.0127 0.05713,0.0381" id="path4690-3"></path><path d="m 74.322613,149.7749 0,-3.26269 c -0.165044,-0.25814 -0.344894,-0.44857 -0.539551,-0.57129 -0.194665,-0.12695 -0.437992,-0.19043 -0.72998,-0.19043 -0.520511,0 -0.924645,0.21582 -1.212403,0.64746 -0.241213,0.34701 -0.361818,0.92253 -0.361816,1.72656 -2e-6,0.76172 0.139646,1.35205 0.418945,1.771 0.283526,0.41471 0.61572,0.62207 0.996582,0.62207 0.338538,0 0.814612,-0.24756 1.428223,-0.74268 m 0.977539,-6.354 0,6.06836 c -6e-6,0.32161 0.01904,0.52474 0.05713,0.60937 0.03808,0.0846 0.126947,0.1333 0.266601,0.146 l 0.628418,0.0635 0.03809,0.30468 c -0.842128,0.14812 -1.396489,0.33008 -1.663086,0.5459 l -0.304687,0 0.03174,-0.91406 -0.03174,-0.0127 c -0.736332,0.59668 -1.324548,0.89502 -1.764649,0.89502 -0.685549,0 -1.220867,-0.25602 -1.605957,-0.76806 -0.385092,-0.51205 -0.577637,-1.17855 -0.577636,-1.99952 -10e-7,-0.94368 0.289875,-1.70539 0.869628,-2.28515 0.275064,-0.26237 0.56494,-0.45703 0.869629,-0.58399 0.308917,-0.13117 0.668617,-0.19677 1.079102,-0.19677 0.143877,0 0.33219,0.0275 0.564941,0.0825 0.236975,0.055 0.425289,0.12272 0.564942,0.20312 l 0,-1.89795 c -5e-6,-0.40201 -0.02963,-0.67073 -0.08887,-0.80615 -0.05925,-0.13964 -0.158696,-0.20946 -0.29834,-0.20947 l -0.418946,-0.0254 c -0.05078,1e-5 -0.07617,-0.0212 -0.07617,-0.0635 l -0.02539,-0.31104 c 0.270829,-0.0212 0.590328,-0.0656 0.958496,-0.1333 0.368159,-0.0719 0.63476,-0.14175 0.799805,-0.20947 0.11002,1e-5 0.165033,0.0444 0.165039,0.1333 -0.0254,0.34702 -0.03809,0.80193 -0.03809,1.36475" id="path4692-1"></path><path d="m 78.105915,142.27832 0.907715,1.6377 c 0.05078,0.10157 0.07617,0.20524 0.07617,0.31103 -2e-6,0.0339 -0.01905,0.0677 -0.05713,0.10156 -0.03809,0.0296 -0.08252,0.0444 -0.133301,0.0444 -0.06348,0 -0.190431,-0.0867 -0.380859,-0.26026 l -1.479004,-1.42187 0.02539,-0.13965 c 0.266601,-0.19889 0.548014,-0.29833 0.844239,-0.29834 0.06347,1e-5 0.129068,0.008 0.196777,0.0254 m 1.053711,3.01514 c -0.02963,0.58822 -0.04444,1.10026 -0.04443,1.53613 l 0,3.2373 c -2e-6,0.1862 0.0402,0.32162 0.120606,0.40625 0.08463,0.0804 0.228513,0.13119 0.431641,0.15235 l 0.24121,0.0254 c 0.0804,0.0127 0.120603,0.0465 0.120606,0.10156 l 0,0.24756 -0.02539,0.0254 C 79.309851,151.00846 78.846473,151 78.613728,151 c -0.207359,0 -0.658042,0.008 -1.352051,0.0254 L 77.236286,151 l 0,-0.24756 c 0,-0.055 0.03385,-0.0889 0.101563,-0.10156 l 0.247558,-0.0254 c 0.220051,-0.0296 0.368163,-0.0825 0.444336,-0.15869 0.07617,-0.0804 0.114257,-0.21371 0.114258,-0.39991 l 0,-3.2373 c -10e-7,-0.30891 -0.02328,-0.51627 -0.06982,-0.62207 -0.04232,-0.11002 -0.114259,-0.17138 -0.215821,-0.18408 l -0.558593,-0.0571 -0.02539,-0.31104 c 0.871744,-0.13118 1.481118,-0.26448 1.828125,-0.3999 0.03808,1e-5 0.05713,0.0127 0.05713,0.0381" id="path4694-8"></path><path d="m 84.479053,147.97217 -1.02832,0.27295 c -0.837892,0.22852 -1.256837,0.70459 -1.256836,1.42822 -1e-6,0.23275 0.08463,0.44645 0.253906,0.64111 0.169269,0.19043 0.404132,0.28565 0.70459,0.28565 0.296222,0 0.677081,-0.18832 1.142578,-0.56494 0.122718,-0.0846 0.184079,-0.19678 0.184082,-0.33643 l 0,-1.72656 m 0,2.40576 -0.02539,0 -0.260254,0.20312 c -0.287764,0.22429 -0.522627,0.37028 -0.70459,0.43799 -0.177737,0.0719 -0.414716,0.10791 -0.710937,0.10791 -0.490887,0 -0.882326,-0.11214 -1.174317,-0.33642 -0.291993,-0.22429 -0.437989,-0.57975 -0.437988,-1.06641 -10e-7,-0.43164 0.192545,-0.8125 0.577637,-1.14258 0.389321,-0.3343 0.903481,-0.58186 1.54248,-0.74267 l 1.117188,-0.27295 c 0.05078,-0.0169 0.07617,-0.0677 0.07617,-0.15235 -3e-6,-0.28352 -0.02328,-0.53108 -0.06982,-0.74267 -0.04655,-0.21582 -0.103682,-0.38509 -0.171386,-0.50781 -0.06771,-0.12272 -0.152348,-0.22005 -0.253907,-0.292 -0.09733,-0.0762 -0.190432,-0.12694 -0.279297,-0.15234 -0.08464,-0.0254 -0.177737,-0.0381 -0.279296,-0.0381 -0.2793,10e-6 -0.528974,0.0508 -0.749024,0.15235 -0.220054,0.10157 -0.33008,0.24756 -0.330078,0.43799 -2e-6,0.11849 0.0085,0.20313 0.02539,0.2539 0.02539,0.055 0.03808,0.13331 0.03809,0.23487 -2e-6,0.10156 -0.0529,0.19889 -0.158692,0.29199 -0.101564,0.0931 -0.239096,0.13965 -0.412598,0.13965 -0.300456,0 -0.450684,-0.15234 -0.450683,-0.45704 -10e-7,-0.22851 0.103677,-0.45491 0.311035,-0.67919 0.207356,-0.22428 0.478189,-0.40625 0.8125,-0.5459 0.334308,-0.14388 0.672849,-0.21582 1.015625,-0.21582 0.207354,0 0.395667,0.0169 0.564941,0.0508 0.1735,0.0339 0.347002,0.0994 0.520508,0.19678 0.173499,0.0931 0.317379,0.21794 0.431641,0.37451 0.118485,0.15658 0.2137,0.37028 0.285644,0.64111 0.07617,0.26661 0.114253,0.57764 0.114258,0.93311 l 0,1.93603 c -5e-6,0.12272 -5e-6,0.22217 0,0.29834 0.0042,0.0719 0.01057,0.15869 0.01904,0.26025 0.01269,0.0973 0.02962,0.17562 0.05078,0.23487 0.02115,0.055 0.04866,0.11214 0.08252,0.17138 0.03808,0.0592 0.08675,0.10157 0.145996,0.12696 0.06347,0.0254 0.135412,0.0381 0.21582,0.0381 0.09309,0 0.169266,-0.0169 0.228516,-0.0508 0.05924,-0.0339 0.103673,-0.0677 0.133301,-0.10156 0.02962,-0.0339 0.05289,-0.0508 0.06982,-0.0508 0.02538,0 0.05501,0.0212 0.08887,0.0635 0.03808,0.0423 0.05712,0.0846 0.05713,0.12695 -6e-6,0.0169 -0.01693,0.0465 -0.05078,0.0889 -0.03386,0.0423 -0.08464,0.091 -0.152344,0.14599 -0.06348,0.055 -0.137538,0.11003 -0.222168,0.16504 -0.08464,0.0508 -0.186203,0.0931 -0.304687,0.12695 -0.114263,0.0381 -0.230637,0.0571 -0.349121,0.0571 -0.512049,0 -0.837895,-0.24967 -0.97754,-0.74902" id="path4696-0"></path><path d="m 91.848881,150.06689 0,-6.38574 c -1e-6,-0.40201 -0.03174,-0.67073 -0.09522,-0.80615 -0.05925,-0.13964 -0.158692,-0.20946 -0.29834,-0.20947 l -0.412598,-0.0254 c -0.05501,1e-5 -0.08252,-0.0212 -0.08252,-0.0635 l -0.02539,-0.31104 c 0.270833,-0.0212 0.590331,-0.0656 0.958496,-0.1333 0.368163,-0.0719 0.634764,-0.14175 0.799805,-0.20947 0.110024,1e-5 0.165037,0.0444 0.165039,0.1333 -0.02539,0.34702 -0.03809,0.80193 -0.03809,1.36475 l 0,6.64599 c -2e-6,0.19043 0.03808,0.32585 0.114258,0.40625 0.07617,0.0804 0.22005,0.13119 0.431641,0.15235 l 0.311035,0.0254 c 0.07194,0 0.107907,0.0339 0.10791,0.10156 l 0,0.24756 -0.02539,0.0254 C 92.887778,151.00846 92.405357,151 92.31226,151 c -0.08041,0 -0.552248,0.008 -1.415528,0.0254 L 90.884037,151 l 0,-0.24756 c 0,-0.0677 0.02962,-0.10156 0.08887,-0.10156 l 0.311035,-0.0254 c 0.21582,-0.0212 0.363932,-0.0719 0.444336,-0.15235 0.0804,-0.0804 0.120605,-0.21582 0.120606,-0.40625" id="path4698-1"></path><path d="m 95.676617,142.27832 0.907715,1.6377 c 0.05078,0.10157 0.07617,0.20524 0.07617,0.31103 -2e-6,0.0339 -0.01905,0.0677 -0.05713,0.10156 -0.03809,0.0296 -0.08252,0.0444 -0.1333,0.0444 -0.06348,0 -0.190432,-0.0867 -0.38086,-0.26026 l -1.479004,-1.42187 0.02539,-0.13965 c 0.266601,-0.19889 0.548014,-0.29833 0.844238,-0.29834 0.06348,1e-5 0.129068,0.008 0.196778,0.0254 m 1.053711,3.01514 c -0.02962,0.58822 -0.04444,1.10026 -0.04443,1.53613 l 0,3.2373 c -2e-6,0.1862 0.0402,0.32162 0.120605,0.40625 0.08463,0.0804 0.228513,0.13119 0.431641,0.15235 l 0.241211,0.0254 c 0.0804,0.0127 0.120602,0.0465 0.120606,0.10156 l 0,0.24756 -0.02539,0.0254 C 96.880553,151.00846 96.417175,151 96.184429,151 c -0.207358,0 -0.658041,0.008 -1.352051,0.0254 L 94.806988,151 l 0,-0.24756 c -10e-7,-0.055 0.03385,-0.0889 0.101562,-0.10156 l 0.247559,-0.0254 c 0.220051,-0.0296 0.368163,-0.0825 0.444336,-0.15869 0.07617,-0.0804 0.114256,-0.21371 0.114258,-0.39991 l 0,-3.2373 c -2e-6,-0.30891 -0.02328,-0.51627 -0.06982,-0.62207 -0.04232,-0.11002 -0.114259,-0.17138 -0.21582,-0.18408 l -0.558594,-0.0571 -0.02539,-0.31104 c 0.871743,-0.13118 1.481118,-0.26448 1.828125,-0.3999 0.03808,1e-5 0.05713,0.0127 0.05713,0.0381" id="path4700-8"></path><path d="m 100.25338,150.07959 c 0.15657,0.19466 0.30468,0.34489 0.44433,0.45068 0.14388,0.1058 0.30892,0.1587 0.49512,0.15869 0.59244,1e-5 1.04313,-0.23909 1.35205,-0.71728 0.31315,-0.47819 0.46972,-1.10661 0.46973,-1.88525 -1e-5,-0.6263 -0.13966,-1.15316 -0.41895,-1.58057 -0.2793,-0.4274 -0.61784,-0.64111 -1.01562,-0.64111 -0.0889,0 -0.18832,0.008 -0.29834,0.0254 -0.11003,0.0127 -0.27084,0.0635 -0.48243,0.15234 -0.21159,0.0889 -0.39355,0.21159 -0.54589,0.36816 l 0,3.66895 m -0.971195,-6.39844 c -10e-7,-0.40201 -0.03174,-0.67073 -0.09521,-0.80615 -0.05925,-0.13964 -0.158692,-0.20946 -0.29834,-0.20947 l -0.412598,-0.0254 c -0.05501,1e-5 -0.08252,-0.0212 -0.08252,-0.0635 l -0.02539,-0.31104 c 0.266601,-0.0212 0.5861,-0.0677 0.958496,-0.13964 0.376626,-0.0719 0.643228,-0.13964 0.799807,-0.20313 0.11003,1e-5 0.16504,0.0444 0.16504,0.1333 -0.0254,0.34702 -0.0381,0.80193 -0.0381,1.36475 l 0,2.58984 c 0.4401,-0.47818 0.96907,-0.71728 1.58691,-0.71728 0.28352,0 0.56071,0.0614 0.83154,0.18408 0.27083,0.11849 0.51416,0.28565 0.72998,0.50146 0.21582,0.2116 0.38932,0.48243 0.52051,0.8125 0.13118,0.32585 0.19677,0.67921 0.19678,1.06006 -1e-5,0.49512 -0.0868,0.95427 -0.26026,1.37744 -0.16927,0.42318 -0.39144,0.77019 -0.6665,1.04102 -0.27507,0.27083 -0.57976,0.48242 -0.91406,0.63477 -0.33432,0.14811 -0.67074,0.22216 -1.00928,0.22216 -0.5332,0 -0.98389,-0.15869 -1.352055,-0.47607 -0.13965,0.20312 -0.281414,0.37239 -0.425293,0.50781 -0.11849,0 -0.209473,-0.0233 -0.272949,-0.0698 0.04232,-0.23698 0.06348,-0.57341 0.06348,-1.00928 l 0,-6.39844" id="path4702-9"></path><path d="m 106.97564,150.07959 c 0.15657,0.19466 0.30468,0.34489 0.44433,0.45068 0.14388,0.1058 0.30892,0.1587 0.49512,0.15869 0.59244,1e-5 1.04313,-0.23909 1.35205,-0.71728 0.31315,-0.47819 0.46972,-1.10661 0.46973,-1.88525 -1e-5,-0.6263 -0.13966,-1.15316 -0.41895,-1.58057 -0.2793,-0.4274 -0.61784,-0.64111 -1.01562,-0.64111 -0.0889,0 -0.18832,0.008 -0.29834,0.0254 -0.11003,0.0127 -0.27084,0.0635 -0.48243,0.15234 -0.21159,0.0889 -0.39355,0.21159 -0.54589,0.36816 l 0,3.66895 m -0.9712,-6.39844 c 0,-0.40201 -0.0317,-0.67073 -0.0952,-0.80615 -0.0592,-0.13964 -0.15869,-0.20946 -0.29834,-0.20947 l -0.4126,-0.0254 c -0.055,1e-5 -0.0825,-0.0212 -0.0825,-0.0635 l -0.0254,-0.31104 c 0.2666,-0.0212 0.5861,-0.0677 0.9585,-0.13964 0.37662,-0.0719 0.64323,-0.13964 0.7998,-0.20313 0.11003,1e-5 0.16504,0.0444 0.16504,0.1333 -0.0254,0.34702 -0.0381,0.80193 -0.0381,1.36475 l 0,2.58984 c 0.4401,-0.47818 0.96907,-0.71728 1.58691,-0.71728 0.28352,0 0.56071,0.0614 0.83154,0.18408 0.27083,0.11849 0.51416,0.28565 0.72998,0.50146 0.21582,0.2116 0.38932,0.48243 0.52051,0.8125 0.13118,0.32585 0.19677,0.67921 0.19678,1.06006 -10e-6,0.49512 -0.0868,0.95427 -0.26026,1.37744 -0.16927,0.42318 -0.39144,0.77019 -0.6665,1.04102 -0.27507,0.27083 -0.57976,0.48242 -0.91406,0.63477 -0.33432,0.14811 -0.67074,0.22216 -1.00928,0.22216 -0.53321,0 -0.98389,-0.15869 -1.35205,-0.47607 -0.13965,0.20312 -0.28141,0.37239 -0.42529,0.50781 -0.11849,0 -0.20948,-0.0233 -0.27295,-0.0698 0.0423,-0.23698 0.0635,-0.57341 0.0635,-1.00928 l 0,-6.39844" id="path4704"></path><path d="m 113.01236,144.03027 c -0.12273,-0.12271 -0.18409,-0.26871 -0.18409,-0.43798 0,-0.16927 0.0614,-0.31526 0.18409,-0.43799 0.12272,-0.12695 0.26871,-0.19042 0.43798,-0.19043 0.16927,1e-5 0.31527,0.0614 0.43799,0.18408 0.12695,0.12273 0.19043,0.27084 0.19043,0.44434 0,0.16927 -0.0635,0.31527 -0.19043,0.43798 -0.12272,0.12273 -0.26872,0.18409 -0.43799,0.18409 -0.16927,0 -0.31526,-0.0614 -0.43798,-0.18409 m 1.04101,1.26319 c -0.0296,0.58822 -0.0444,1.10026 -0.0444,1.53613 l 0,3.2373 c 0,0.1862 0.0402,0.32162 0.1206,0.40625 0.0846,0.0804 0.22852,0.13119 0.43164,0.15235 l 0.24121,0.0254 c 0.0804,0.0127 0.12061,0.0465 0.12061,0.10156 l 0,0.24756 -0.0254,0.0254 C 114.2036,151.00846 113.74022,151 113.50747,151 c -0.20736,0 -0.65804,0.008 -1.35205,0.0254 l -0.0254,-0.0254 0,-0.24756 c 0,-0.055 0.0339,-0.0889 0.10156,-0.10156 l 0.24756,-0.0254 c 0.22005,-0.0296 0.36817,-0.0825 0.44434,-0.15869 0.0762,-0.0804 0.11426,-0.21371 0.11426,-0.39991 l 0,-3.2373 c 0,-0.30891 -0.0233,-0.51627 -0.0698,-0.62207 -0.0423,-0.11002 -0.11426,-0.17138 -0.21582,-0.18408 l -0.55859,-0.0571 -0.0254,-0.31104 c 0.87174,-0.13118 1.48112,-0.26448 1.82812,-0.3999 0.0381,1e-5 0.0571,0.0127 0.0571,0.0381" id="path4706"></path><path d="m 116.85279,150.06689 0,-3.2373 c 0,-0.30468 -0.0233,-0.51204 -0.0698,-0.62207 -0.0465,-0.11002 -0.11849,-0.17138 -0.21582,-0.18408 l -0.55859,-0.0571 -0.0317,-0.31104 c 0.83789,-0.12694 1.43668,-0.26024 1.79639,-0.3999 0.0339,1e-5 0.0508,0.0127 0.0508,0.0381 l -0.0381,1.16797 0.0381,0 c 0.52474,-0.77864 1.03255,-1.16797 1.52344,-1.16797 0.48665,0 0.72997,0.1989 0.72998,0.59668 -1e-5,0.16927 -0.0508,0.30257 -0.15235,0.3999 -0.10156,0.0973 -0.2391,0.146 -0.4126,0.146 -0.20312,0 -0.37874,-0.0783 -0.52685,-0.23487 -0.0804,-0.0762 -0.16716,-0.11425 -0.26025,-0.11426 -0.0762,1e-5 -0.18197,0.0593 -0.31739,0.17774 -0.13542,0.11849 -0.27718,0.28353 -0.42529,0.49512 -0.1058,0.13542 -0.15869,0.28776 -0.15869,0.45703 l 0,2.85009 c 0,0.19043 0.0423,0.32797 0.12695,0.4126 0.0846,0.0846 0.22851,0.1333 0.43164,0.146 l 0.38086,0.0254 c 0.0762,0 0.11426,0.0339 0.11426,0.10156 l 0,0.24756 -0.0254,0.0254 c -0.64331,-0.017 -1.15536,-0.0255 -1.53621,-0.0255 -0.25814,0 -0.70883,0.008 -1.35205,0.0254 l -0.0127,-0.0254 0,-0.24756 c 0,-0.055 0.0317,-0.0889 0.0952,-0.10156 l 0.24756,-0.0254 c 0.21159,-0.0212 0.35759,-0.0719 0.43799,-0.15235 0.0804,-0.0846 0.12061,-0.22005 0.12061,-0.40625" id="path4708"></path><path d="m 124.3939,147.97217 -1.02832,0.27295 c -0.83789,0.22852 -1.25684,0.70459 -1.25683,1.42822 -1e-5,0.23275 0.0846,0.44645 0.2539,0.64111 0.16927,0.19043 0.40413,0.28565 0.70459,0.28565 0.29622,0 0.67708,-0.18832 1.14258,-0.56494 0.12272,-0.0846 0.18408,-0.19678 0.18408,-0.33643 l 0,-1.72656 m 0,2.40576 -0.0254,0 -0.26025,0.20312 c -0.28777,0.22429 -0.52263,0.37028 -0.70459,0.43799 -0.17774,0.0719 -0.41472,0.10791 -0.71094,0.10791 -0.49089,0 -0.88233,-0.11214 -1.17432,-0.33642 -0.29199,-0.22429 -0.43799,-0.57975 -0.43798,-1.06641 -1e-5,-0.43164 0.19254,-0.8125 0.57763,-1.14258 0.38932,-0.3343 0.90348,-0.58186 1.54248,-0.74267 l 1.11719,-0.27295 c 0.0508,-0.0169 0.0762,-0.0677 0.0762,-0.15235 0,-0.28352 -0.0233,-0.53108 -0.0698,-0.74267 -0.0466,-0.21582 -0.10368,-0.38509 -0.17139,-0.50781 -0.0677,-0.12272 -0.15235,-0.22005 -0.25391,-0.292 -0.0973,-0.0762 -0.19043,-0.12694 -0.27929,-0.15234 -0.0846,-0.0254 -0.17774,-0.0381 -0.2793,-0.0381 -0.2793,10e-6 -0.52897,0.0508 -0.74902,0.15235 -0.22006,0.10157 -0.33008,0.24756 -0.33008,0.43799 0,0.11849 0.008,0.20313 0.0254,0.2539 0.0254,0.055 0.0381,0.13331 0.0381,0.23487 -1e-5,0.10156 -0.0529,0.19889 -0.1587,0.29199 -0.10156,0.0931 -0.23909,0.13965 -0.41259,0.13965 -0.30046,0 -0.45069,-0.15234 -0.45069,-0.45704 0,-0.22851 0.10368,-0.45491 0.31104,-0.67919 0.20735,-0.22428 0.47819,-0.40625 0.8125,-0.5459 0.33431,-0.14388 0.67285,-0.21582 1.01562,-0.21582 0.20736,0 0.39567,0.0169 0.56494,0.0508 0.1735,0.0339 0.34701,0.0994 0.52051,0.19678 0.1735,0.0931 0.31738,0.21794 0.43164,0.37451 0.11849,0.15658 0.2137,0.37028 0.28565,0.64111 0.0762,0.26661 0.11425,0.57764 0.11426,0.93311 l 0,1.93603 c -1e-5,0.12272 -1e-5,0.22217 0,0.29834 0.004,0.0719 0.0106,0.15869 0.019,0.26025 0.0127,0.0973 0.0296,0.17562 0.0508,0.23487 0.0212,0.055 0.0487,0.11214 0.0825,0.17138 0.0381,0.0592 0.0868,0.10157 0.146,0.12696 0.0635,0.0254 0.13541,0.0381 0.21582,0.0381 0.0931,0 0.16926,-0.0169 0.22851,-0.0508 0.0592,-0.0339 0.10367,-0.0677 0.1333,-0.10156 0.0296,-0.0339 0.0529,-0.0508 0.0698,-0.0508 0.0254,0 0.055,0.0212 0.0889,0.0635 0.0381,0.0423 0.0571,0.0846 0.0571,0.12695 0,0.0169 -0.0169,0.0465 -0.0508,0.0889 -0.0339,0.0423 -0.0846,0.091 -0.15234,0.14599 -0.0635,0.055 -0.13754,0.11003 -0.22217,0.16504 -0.0846,0.0508 -0.1862,0.0931 -0.30469,0.12695 -0.11426,0.0381 -0.23063,0.0571 -0.34912,0.0571 -0.51205,0 -0.83789,-0.24967 -0.97754,-0.74902" id="path4710"></path></g></svg>
</svg>