<?xml version="1.0" encoding="UTF-8" standalone="no"?>
<!-- Generator: Adobe Illustrator 13.0.2, SVG Export Plug-In . SVG Version: 6.00 Build 14948)  -->

<svg xmlns:dc="http://purl.org/dc/elements/1.1/" xmlns:cc="http://creativecommons.org/ns#" xmlns:rdf="http://www.w3.org/1999/02/22-rdf-syntax-ns#" xmlns:svg="http://www.w3.org/2000/svg" xmlns="http://www.w3.org/2000/svg" xmlns:xlink="http://www.w3.org/1999/xlink" xmlns:sodipodi="http://sodipodi.sourceforge.net/DTD/sodipodi-0.dtd" xmlns:inkscape="http://www.inkscape.org/namespaces/inkscape" version="1.1" x="0px" y="0px" width="135px" height="155px" viewBox="0 0 135 155" enable-background="new 0 0 135 155" xml:space="preserve" id="svg3857" inkscape:version="0.47 r22583" sodipodi:docname="Wikipedia-logo-v2-de.svg"><metadata id="metadata4852"><rdf:rdf><cc:work rdf:about=""><dc:format>image/svg+xml</dc:format><dc:type rdf:resource="http://purl.org/dc/dcmitype/StillImage"></dc:type><dc:title></dc:title></cc:work></rdf:rdf></metadata><defs id="defs4850"><inkscape:perspective sodipodi:type="inkscape:persp3d" inkscape:vp_x="0 : 77.5 : 1" inkscape:vp_y="0 : 1000 : 0" inkscape:vp_z="135 : 77.5 : 1" inkscape:persp3d-origin="67.5 : 51.666667 : 1" id="perspective4854"></inkscape:perspective>
	
		<radialGradient gradientUnits="userSpaceOnUse" gradientTransform="matrix(1,0,0,-1,192.3999,143.0996)" r="68.686401" cy="87.823196" cx="-145.4702" id="SVGID_1_">
		<stop id="stop3922" style="stop-color:#FFFFFF" offset="0"></stop>
		<stop id="stop3924" style="stop-color:#EAEAEB" offset="0.4835"></stop>
		<stop id="stop3926" style="stop-color:#A9ABAE" offset="0.9451"></stop>
		<stop id="stop3928" style="stop-color:#999B9E" offset="1"></stop>
	</radialGradient>
	
	
	<linearGradient y2="97.232101" x2="112.7331" y1="24.481001" x1="66.232399" gradientUnits="userSpaceOnUse" id="SVGID_2_">
		<stop id="stop3935" style="stop-color:#8A8A8A" offset="0"></stop>
		<stop id="stop3937" style="stop-color:#606060" offset="0.5687"></stop>
		<stop id="stop3939" style="stop-color:#FFFFFF" offset="0.5914"></stop>
		<stop id="stop3941" style="stop-color:#585858" offset="0.6116"></stop>
		<stop id="stop3943" style="stop-color:#303030" offset="1"></stop>
	</linearGradient>
	
	
	<linearGradient y2="65.136703" x2="83.798798" y1="65.136703" x1="54.715801" gradientUnits="userSpaceOnUse" id="SVGID_5_">
		<stop id="stop3964" style="stop-color:#231F20" offset="0"></stop>
		<stop id="stop3966" style="stop-color:#474747" offset="1"></stop>
	</linearGradient>
	
	
	
	
	
	
	
	
	
		<linearGradient gradientTransform="matrix(1,0,0,-1,192.3999,143.0996)" y2="29.9035" x2="-94.069099" y1="119.8076" x1="-123.5898" gradientUnits="userSpaceOnUse" id="SVGID_6_">
		<stop id="stop3997" style="stop-color:#FFFFFF" offset="0"></stop>
		<stop id="stop3999" style="stop-color:#FCFCFC" offset="0.0094"></stop>
		<stop id="stop4001" style="stop-color:#EEEEEE" offset="0.0655"></stop>
		<stop id="stop4003" style="stop-color:#E5E5E5" offset="0.1342"></stop>
		<stop id="stop4005" style="stop-color:#E3E3E3" offset="0.2515"></stop>
		<stop id="stop4007" style="stop-color:#8A8A8A" offset="0.3357"></stop>
		<stop id="stop4009" style="stop-color:#B8B8B8" offset="0.4422"></stop>
		<stop id="stop4011" style="stop-color:#3B3B3B" offset="1"></stop>
	</linearGradient>
	
	<linearGradient y2="87.626701" x2="119.5471" y1="26.876499" x1="70.421898" gradientUnits="userSpaceOnUse" id="SVGID_7_">
		<stop id="stop4016" style="stop-color:#EFF0F0" offset="0"></stop>
		<stop id="stop4018" style="stop-color:#F0F1F2" offset="0.5914"></stop>
		<stop id="stop4020" style="stop-color:#787878" offset="0.599"></stop>
		<stop id="stop4022" style="stop-color:#EEEFF0" offset="0.6456"></stop>
		<stop id="stop4024" style="stop-color:#D8D9DB" offset="1"></stop>
	</linearGradient>
	
	
		<linearGradient gradientTransform="matrix(1,0,0,-1,192.3999,143.0996)" y2="31.998501" x2="-87.569702" y1="122.1328" x1="-117.166" gradientUnits="userSpaceOnUse" id="SVGID_8_">
		<stop id="stop4029" style="stop-color:#FFFFFF" offset="0"></stop>
		<stop id="stop4031" style="stop-color:#E4E5E6" offset="1"></stop>
	</linearGradient>
	
	<linearGradient y2="106.3903" x2="79.683601" y1="25.2764" x1="54.653301" gradientUnits="userSpaceOnUse" id="SVGID_9_">
		<stop id="stop4036" style="stop-color:#FFFFFF" offset="0"></stop>
		<stop id="stop4038" style="stop-color:#F9F9F9" offset="0.7473"></stop>
		<stop id="stop4040" style="stop-color:#D5D7D8" offset="1"></stop>
	</linearGradient>
	
	
	
	
	
		<linearGradient gradientTransform="matrix(1,0,0,-1,192.3999,143.0996)" y2="24.6462" x2="-134.85719" y1="119.6328" x1="-115.3369" gradientUnits="userSpaceOnUse" id="SVGID_10_">
		<stop id="stop4061" style="stop-color:#FFFFFF" offset="0"></stop>
		<stop id="stop4063" style="stop-color:#E4E5E6" offset="1"></stop>
	</linearGradient>
	
	<linearGradient y2="92.496101" x2="37.2481" y1="33.077099" x1="32.519001" gradientUnits="userSpaceOnUse" id="SVGID_11_">
		<stop id="stop4068" style="stop-color:#989A9C" offset="0.2198"></stop>
		<stop id="stop4070" style="stop-color:#FFFFFF" offset="0.2527"></stop>
	</linearGradient>
	
	
		<linearGradient gradientTransform="matrix(1,0,0,-1,192.3999,143.0996)" y2="32.797901" x2="-171.9462" y1="126.8398" x1="-152.6201" gradientUnits="userSpaceOnUse" id="SVGID_12_">
		<stop id="stop4075" style="stop-color:#FFFFFF" offset="0"></stop>
		<stop id="stop4077" style="stop-color:#E4E5E6" offset="1"></stop>
	</linearGradient>
	
	
		<linearGradient gradientTransform="matrix(1,0,0,-1,192.3999,143.0996)" y2="35.585701" x2="-130.14281" y1="35.625" x1="-130.1348" gradientUnits="userSpaceOnUse" id="SVGID_13_">
		<stop id="stop4082" style="stop-color:#FFFFFF" offset="0"></stop>
		<stop id="stop4084" style="stop-color:#E4E5E6" offset="1"></stop>
	</linearGradient>
	
	
	
	
		<linearGradient gradientTransform="matrix(1,0,0,-1,192.3999,143.0996)" y2="25.888" x2="-140.54491" y1="120.3223" x1="-121.1382" gradientUnits="userSpaceOnUse" id="SVGID_14_">
		<stop id="stop4093" style="stop-color:#FFFFFF" offset="0"></stop>
		<stop id="stop4095" style="stop-color:#E4E5E6" offset="1"></stop>
	</linearGradient>
	
	
		<linearGradient gradientTransform="matrix(1,0,0,-1,192.3999,143.0996)" y2="28.8524" x2="-155.006" y1="123.3525" x1="-135.58591" gradientUnits="userSpaceOnUse" id="SVGID_15_">
		<stop id="stop4100" style="stop-color:#FFFFFF" offset="0"></stop>
		<stop id="stop4102" style="stop-color:#E4E5E6" offset="1"></stop>
	</linearGradient>
	
	
		<linearGradient gradientTransform="matrix(1,0,0,-1,192.3999,143.0996)" y2="27.1346" x2="-146.8837" y1="121.9365" x1="-127.4014" gradientUnits="userSpaceOnUse" id="SVGID_16_">
		<stop id="stop4107" style="stop-color:#FFFFFF" offset="0"></stop>
		<stop id="stop4109" style="stop-color:#E4E5E6" offset="1"></stop>
	</linearGradient>
	
	
		<linearGradient gradientTransform="matrix(1,0,0,-1,192.3999,143.0996)" y2="24.9438" x2="-138.85201" y1="124.0039" x1="-118.4946" gradientUnits="userSpaceOnUse" id="SVGID_17_">
		<stop id="stop4114" style="stop-color:#FFFFFF" offset="0"></stop>
		<stop id="stop4116" style="stop-color:#E4E5E6" offset="1"></stop>
	</linearGradient>
	
	
		<linearGradient gradientTransform="matrix(1,0,0,-1,192.3999,143.0996)" y2="24.695299" x2="-134.7878" y1="119.1758" x1="-115.3716" gradientUnits="userSpaceOnUse" id="SVGID_18_">
		<stop id="stop4121" style="stop-color:#FFFFFF" offset="0"></stop>
		<stop id="stop4123" style="stop-color:#E4E5E6" offset="1"></stop>
	</linearGradient>
	
	
	
	
	
	
	
	
	
	
	
	
		<linearGradient gradientTransform="matrix(1,0,0,-1,192.3999,143.0996)" y2="83.6045" x2="-75.6362" y1="83.6045" x1="-175.4424" gradientUnits="userSpaceOnUse" id="SVGID_21_">
		<stop id="stop4198" style="stop-color:#555555" offset="0"></stop>
		<stop id="stop4200" style="stop-color:#231F20" offset="1"></stop>
	</linearGradient>
	
	
		<linearGradient gradientTransform="matrix(1,0,0,-1,192.3999,143.0996)" y2="104.0801" x2="-83.541" y1="104.0801" x1="-175.14211" gradientUnits="userSpaceOnUse" id="SVGID_22_">
		<stop id="stop4205" style="stop-color:#A0A0A0" offset="0"></stop>
		<stop id="stop4207" style="stop-color:#656767" offset="0.0769"></stop>
		<stop id="stop4209" style="stop-color:#717375" offset="1"></stop>
	</linearGradient>
	
	
	
	
	
	
	
		<linearGradient gradientTransform="matrix(1,0,0,-1,192.3999,143.0996)" y2="78.209" x2="-172.3853" y1="78.209" x1="-172.3853" gradientUnits="userSpaceOnUse" id="SVGID_23_">
		<stop id="stop4224" style="stop-color:#FFFFFF" offset="0"></stop>
		<stop id="stop4226" style="stop-color:#F4F4F4" offset="0.078"></stop>
		<stop id="stop4228" style="stop-color:#CECECE" offset="0.3807"></stop>
		<stop id="stop4230" style="stop-color:#BFBFBF" offset="0.5396"></stop>
		<stop id="stop4232" style="stop-color:#7C7C7C" offset="0.8357"></stop>
		<stop id="stop4234" style="stop-color:#A8A8A8" offset="0.8996"></stop>
		<stop id="stop4236" style="stop-color:#9A9A9A" offset="0.9093"></stop>
		<stop id="stop4238" style="stop-color:#7D7D7D" offset="0.9327"></stop>
		<stop id="stop4240" style="stop-color:#686868" offset="0.9558"></stop>
		<stop id="stop4242" style="stop-color:#5B5B5B" offset="0.9785"></stop>
		<stop id="stop4244" style="stop-color:#575757" offset="1"></stop>
	</linearGradient>
	
	
		<linearGradient gradientTransform="matrix(1,0,0,-1,192.3999,143.0996)" y2="90.476799" x2="-67.153198" y1="78.449203" x1="-175.7173" gradientUnits="userSpaceOnUse" id="SVGID_24_">
		<stop id="stop4249" style="stop-color:#FFFFFF" offset="0"></stop>
		<stop id="stop4251" style="stop-color:#F4F4F4" offset="0.078"></stop>
		<stop id="stop4253" style="stop-color:#CECECE" offset="0.3807"></stop>
		<stop id="stop4255" style="stop-color:#BFBFBF" offset="0.5396"></stop>
		<stop id="stop4257" style="stop-color:#7C7C7C" offset="0.8357"></stop>
		<stop id="stop4259" style="stop-color:#A8A8A8" offset="0.8996"></stop>
		<stop id="stop4261" style="stop-color:#9A9A9A" offset="0.9093"></stop>
		<stop id="stop4263" style="stop-color:#7D7D7D" offset="0.9327"></stop>
		<stop id="stop4265" style="stop-color:#686868" offset="0.9558"></stop>
		<stop id="stop4267" style="stop-color:#5B5B5B" offset="0.9785"></stop>
		<stop id="stop4269" style="stop-color:#575757" offset="1"></stop>
	</linearGradient>
	
	
		<linearGradient gradientTransform="matrix(1,0,0,-1,192.3999,143.0996)" y2="92.223099" x2="-52.131699" y1="78.4795" x1="-176.1851" gradientUnits="userSpaceOnUse" id="SVGID_25_">
		<stop id="stop4274" style="stop-color:#FFFFFF" offset="0"></stop>
		<stop id="stop4276" style="stop-color:#F4F4F4" offset="0.078"></stop>
		<stop id="stop4278" style="stop-color:#CECECE" offset="0.3807"></stop>
		<stop id="stop4280" style="stop-color:#BFBFBF" offset="0.5396"></stop>
		<stop id="stop4282" style="stop-color:#7C7C7C" offset="0.8357"></stop>
		<stop id="stop4284" style="stop-color:#A8A8A8" offset="0.8996"></stop>
		<stop id="stop4286" style="stop-color:#9A9A9A" offset="0.9093"></stop>
		<stop id="stop4288" style="stop-color:#7D7D7D" offset="0.9327"></stop>
		<stop id="stop4290" style="stop-color:#686868" offset="0.9558"></stop>
		<stop id="stop4292" style="stop-color:#5B5B5B" offset="0.9785"></stop>
		<stop id="stop4294" style="stop-color:#575757" offset="1"></stop>
	</linearGradient>
	
	<linearGradient y2="51.952599" x2="117.1948" y1="71.326698" x1="21.2129" gradientUnits="userSpaceOnUse" id="SVGID_26_">
		<stop id="stop4299" style="stop-color:#EDEDEE" offset="0"></stop>
		<stop id="stop4301" style="stop-color:#FFFFFF" offset="0.4176"></stop>
		<stop id="stop4303" style="stop-color:#F8F9F9" offset="0.6264"></stop>
		<stop id="stop4305" style="stop-color:#BFC0C2" offset="1"></stop>
	</linearGradient>
	
	
	
	
	<linearGradient y2="30.732401" x2="27.9561" y1="30.732401" x1="23.471201" gradientUnits="userSpaceOnUse" id="SVGID_27_">
		<stop id="stop4316" style="stop-color:#E2E3E4" offset="0"></stop>
		<stop id="stop4318" style="stop-color:#FFFFFF" offset="0.5055"></stop>
	</linearGradient>
	
	
	
	
	
	
	
	
	
	
	
	
	
	
	
	
	
	
	
	
	
	
	
	
	
	
	
	
	
	
	
	
	
	
	
	
	
	
	
	
	
	
	
	
	
	
	
	
	
	
	
	
	
	
	
	
	
	
	
	
	
	
	
	
	
	
	
	
	
	
	
	
	
	
	
	
	
	
	
	
	
	
	
	
	
	
	
	
	
	
	
	
	
	
	
	
	
	
	
	
	
	
	
	
	
	
	
	
	
	
	
	
	
	
	
	
	
	
	
	
	
	
	
	
	
	
	
	
	
	
	
	
	
	
	
	
	
	
	
	
	
	
	
	
	
	
	
	
	
	
	
	
	
	
	
	
	
	
	
	
	
	
	
	
	
	
	
	
	
	
	
	
	
	
	
	
	
	
	<linearGradient y2="29.204" x2="111.5455" y1="49.7188" x1="22.5742" gradientUnits="userSpaceOnUse" id="SVGID_34_">
		<stop id="stop4743" style="stop-color:#FFFFFF" offset="0"></stop>
		<stop id="stop4745" style="stop-color:#FFFFFF" offset="0.6538"></stop>
		<stop id="stop4747" style="stop-color:#CBCCCE" offset="1"></stop>
	</linearGradient>
	
	
	
	
	
	
	
	
		<linearGradient gradientTransform="matrix(1,0,0,-1,192.3999,143.0996)" y2="107.0898" x2="-126.4229" y1="107.0898" x1="-158.8101" gradientUnits="userSpaceOnUse" id="SVGID_35_">
		<stop id="stop4770" style="stop-color:#696969" offset="0"></stop>
		<stop id="stop4772" style="stop-color:#2E2E2E" offset="0.3702"></stop>
		<stop id="stop4774" style="stop-color:#424242" offset="0.4554"></stop>
		<stop id="stop4776" style="stop-color:#303030" offset="0.6014"></stop>
		<stop id="stop4778" style="stop-color:#4A4A4A" offset="0.6947"></stop>
		<stop id="stop4780" style="stop-color:#666666" offset="1"></stop>
	</linearGradient>
	
	
		<linearGradient gradientTransform="matrix(1,0,0,-1,192.3999,143.0996)" y2="107.8965" x2="-126.5454" y1="107.8965" x1="-158.4185" gradientUnits="userSpaceOnUse" id="SVGID_36_">
		<stop id="stop4785" style="stop-color:#525252" offset="0"></stop>
		<stop id="stop4787" style="stop-color:#333333" offset="0.1856"></stop>
		<stop id="stop4789" style="stop-color:#AEAEAE" offset="0.354"></stop>
		<stop id="stop4791" style="stop-color:#ADADAD" offset="0.4199"></stop>
		<stop id="stop4793" style="stop-color:#9D9D9D" offset="0.4276"></stop>
		<stop id="stop4795" style="stop-color:#818181" offset="0.4433"></stop>
		<stop id="stop4797" style="stop-color:#6A6A6A" offset="0.4611"></stop>
		<stop id="stop4799" style="stop-color:#585858" offset="0.4814"></stop>
		<stop id="stop4801" style="stop-color:#4C4C4C" offset="0.506"></stop>
		<stop id="stop4803" style="stop-color:#444444" offset="0.539"></stop>
		<stop id="stop4805" style="stop-color:#424242" offset="0.6166"></stop>
		<stop id="stop4807" style="stop-color:#454545" offset="0.6684"></stop>
		<stop id="stop4809" style="stop-color:#BDBDBD" offset="1"></stop>
	</linearGradient>
	
	
		<linearGradient gradientTransform="matrix(1,0,0,-1,192.3999,143.0996)" y2="104.4332" x2="-154.15421" y1="97.627899" x1="-153.1255" gradientUnits="userSpaceOnUse" id="SVGID_37_">
		<stop id="stop4814" style="stop-color:#969696" offset="0"></stop>
		<stop id="stop4816" style="stop-color:#000000" offset="1"></stop>
	</linearGradient>
	
	
	
	<linearGradient y2="38.790001" x2="39.487301" y1="46.373001" x1="38.737301" gradientUnits="userSpaceOnUse" id="SVGID_38_">
		<stop id="stop4825" style="stop-color:#333333" offset="0"></stop>
		<stop id="stop4827" style="stop-color:#000000" offset="0.431"></stop>
		<stop id="stop4829" style="stop-color:#2E2E2E" offset="1"></stop>
	</linearGradient>
	
	
	
	
	
		<radialGradient gradientUnits="userSpaceOnUse" gradientTransform="matrix(1,0,0,-1,192.3999,143.0996)" r="72.751701" cy="106.5996" cx="-138.2334" id="SVGID_39_">
		<stop id="stop4840" style="stop-color:#000000;stop-opacity:0;" offset="0"></stop>
		<stop id="stop4842" style="stop-color:#000000;stop-opacity:0.08;" offset="0.80220002"></stop>
		<stop id="stop4844" style="stop-color:#000000;stop-opacity:0.3882353;" offset="1"></stop>
	</radialGradient>
	
<radialGradient inkscape:collect="always" xlink:href="#SVGID_39_" id="radialGradient5007" gradientUnits="userSpaceOnUse" gradientTransform="matrix(1,0,0,-1,192.3999,143.0996)" cx="-138.2334" cy="106.5996" r="72.751701"></radialGradient><linearGradient inkscape:collect="always" xlink:href="#SVGID_38_" id="linearGradient5013" gradientUnits="userSpaceOnUse" x1="38.737301" y1="46.373001" x2="39.487301" y2="38.790001"></linearGradient><linearGradient inkscape:collect="always" xlink:href="#SVGID_37_" id="linearGradient5018" gradientUnits="userSpaceOnUse" gradientTransform="matrix(1,0,0,-1,192.3999,143.0996)" x1="-153.1255" y1="97.627899" x2="-154.15421" y2="104.4332"></linearGradient><linearGradient inkscape:collect="always" xlink:href="#SVGID_36_" id="linearGradient5021" gradientUnits="userSpaceOnUse" gradientTransform="matrix(1,0,0,-1,192.3999,143.0996)" x1="-158.4185" y1="107.8965" x2="-126.5454" y2="107.8965"></linearGradient><linearGradient inkscape:collect="always" xlink:href="#SVGID_35_" id="linearGradient5024" gradientUnits="userSpaceOnUse" gradientTransform="matrix(1,0,0,-1,192.3999,143.0996)" x1="-158.8101" y1="107.0898" x2="-126.4229" y2="107.0898"></linearGradient><linearGradient inkscape:collect="always" xlink:href="#SVGID_34_" id="linearGradient5036" gradientUnits="userSpaceOnUse" x1="22.5742" y1="49.7188" x2="111.5455" y2="29.204"></linearGradient><linearGradient inkscape:collect="always" xlink:href="#SVGID_27_" id="linearGradient5252" gradientUnits="userSpaceOnUse" x1="23.471201" y1="30.732401" x2="27.9561" y2="30.732401"></linearGradient><linearGradient inkscape:collect="always" xlink:href="#SVGID_26_" id="linearGradient5258" gradientUnits="userSpaceOnUse" x1="21.2129" y1="71.326698" x2="117.1948" y2="51.952599"></linearGradient><linearGradient inkscape:collect="always" xlink:href="#SVGID_25_" id="linearGradient5261" gradientUnits="userSpaceOnUse" gradientTransform="matrix(1,0,0,-1,192.3999,143.0996)" x1="-176.1851" y1="78.4795" x2="-52.131699" y2="92.223099"></linearGradient><linearGradient inkscape:collect="always" xlink:href="#SVGID_24_" id="linearGradient5264" gradientUnits="userSpaceOnUse" gradientTransform="matrix(1,0,0,-1,192.3999,143.0996)" x1="-175.7173" y1="78.449203" x2="-67.153198" y2="90.476799"></linearGradient><linearGradient inkscape:collect="always" xlink:href="#SVGID_23_" id="linearGradient5267" gradientUnits="userSpaceOnUse" gradientTransform="matrix(1,0,0,-1,192.3999,143.0996)" x1="-172.3853" y1="78.209" x2="-172.3853" y2="78.209"></linearGradient><linearGradient inkscape:collect="always" xlink:href="#SVGID_22_" id="linearGradient5275" gradientUnits="userSpaceOnUse" gradientTransform="matrix(1,0,0,-1,192.3999,143.0996)" x1="-175.14211" y1="104.0801" x2="-83.541" y2="104.0801"></linearGradient><linearGradient inkscape:collect="always" xlink:href="#SVGID_21_" id="linearGradient5278" gradientUnits="userSpaceOnUse" gradientTransform="matrix(1,0,0,-1,192.3999,143.0996)" x1="-175.4424" y1="83.6045" x2="-75.6362" y2="83.6045"></linearGradient><linearGradient inkscape:collect="always" xlink:href="#SVGID_18_" id="linearGradient5317" gradientUnits="userSpaceOnUse" gradientTransform="matrix(1,0,0,-1,192.3999,143.0996)" x1="-115.3716" y1="119.1758" x2="-134.7878" y2="24.695299"></linearGradient><linearGradient inkscape:collect="always" xlink:href="#SVGID_17_" id="linearGradient5320" gradientUnits="userSpaceOnUse" gradientTransform="matrix(1,0,0,-1,192.3999,143.0996)" x1="-118.4946" y1="124.0039" x2="-138.85201" y2="24.9438"></linearGradient><linearGradient inkscape:collect="always" xlink:href="#SVGID_16_" id="linearGradient5323" gradientUnits="userSpaceOnUse" gradientTransform="matrix(1,0,0,-1,192.3999,143.0996)" x1="-127.4014" y1="121.9365" x2="-146.8837" y2="27.1346"></linearGradient><linearGradient inkscape:collect="always" xlink:href="#SVGID_15_" id="linearGradient5326" gradientUnits="userSpaceOnUse" gradientTransform="matrix(1,0,0,-1,192.3999,143.0996)" x1="-135.58591" y1="123.3525" x2="-155.006" y2="28.8524"></linearGradient><linearGradient inkscape:collect="always" xlink:href="#SVGID_14_" id="linearGradient5329" gradientUnits="userSpaceOnUse" gradientTransform="matrix(1,0,0,-1,192.3999,143.0996)" x1="-121.1382" y1="120.3223" x2="-140.54491" y2="25.888"></linearGradient><linearGradient inkscape:collect="always" xlink:href="#SVGID_13_" id="linearGradient5334" gradientUnits="userSpaceOnUse" gradientTransform="matrix(1,0,0,-1,192.3999,143.0996)" x1="-130.1348" y1="35.625" x2="-130.14281" y2="35.585701"></linearGradient><linearGradient inkscape:collect="always" xlink:href="#SVGID_12_" id="linearGradient5337" gradientUnits="userSpaceOnUse" gradientTransform="matrix(1,0,0,-1,192.3999,143.0996)" x1="-152.6201" y1="126.8398" x2="-171.9462" y2="32.797901"></linearGradient><linearGradient inkscape:collect="always" xlink:href="#SVGID_11_" id="linearGradient5340" gradientUnits="userSpaceOnUse" x1="32.519001" y1="33.077099" x2="37.2481" y2="92.496101"></linearGradient><linearGradient inkscape:collect="always" xlink:href="#SVGID_10_" id="linearGradient5343" gradientUnits="userSpaceOnUse" gradientTransform="matrix(1,0,0,-1,192.3999,143.0996)" x1="-115.3369" y1="119.6328" x2="-134.85719" y2="24.6462"></linearGradient><linearGradient inkscape:collect="always" xlink:href="#SVGID_9_" id="linearGradient5354" gradientUnits="userSpaceOnUse" x1="54.653301" y1="25.2764" x2="79.683601" y2="106.3903"></linearGradient><linearGradient inkscape:collect="always" xlink:href="#SVGID_8_" id="linearGradient5357" gradientUnits="userSpaceOnUse" gradientTransform="matrix(1,0,0,-1,192.3999,143.0996)" x1="-117.166" y1="122.1328" x2="-87.569702" y2="31.998501"></linearGradient><linearGradient inkscape:collect="always" xlink:href="#SVGID_7_" id="linearGradient5360" gradientUnits="userSpaceOnUse" x1="70.421898" y1="26.876499" x2="119.5471" y2="87.626701"></linearGradient><linearGradient inkscape:collect="always" xlink:href="#SVGID_6_" id="linearGradient5363" gradientUnits="userSpaceOnUse" gradientTransform="matrix(1,0,0,-1,192.3999,143.0996)" x1="-123.5898" y1="119.8076" x2="-94.069099" y2="29.9035"></linearGradient><linearGradient inkscape:collect="always" xlink:href="#SVGID_5_" id="linearGradient5379" gradientUnits="userSpaceOnUse" x1="54.715801" y1="65.136703" x2="83.798798" y2="65.136703"></linearGradient><linearGradient inkscape:collect="always" xlink:href="#SVGID_2_" id="linearGradient5391" gradientUnits="userSpaceOnUse" x1="66.232399" y1="24.481001" x2="112.7331" y2="97.232101"></linearGradient><radialGradient inkscape:collect="always" xlink:href="#SVGID_1_" id="radialGradient5395" gradientUnits="userSpaceOnUse" gradientTransform="matrix(1,0,0,-1,192.3999,143.0996)" cx="-145.4702" cy="87.823196" r="68.686401"></radialGradient>
	
	
<inkscape:perspective id="perspective10537" inkscape:persp3d-origin="0.5 : 0.33333333 : 1" inkscape:vp_z="1 : 0.5 : 1" inkscape:vp_y="0 : 1000 : 0" inkscape:vp_x="0 : 0.5 : 1" sodipodi:type="inkscape:persp3d"></inkscape:perspective><inkscape:perspective id="perspective13111" inkscape:persp3d-origin="0.5 : 0.33333333 : 1" inkscape:vp_z="1 : 0.5 : 1" inkscape:vp_y="0 : 1000 : 0" inkscape:vp_x="0 : 0.5 : 1" sodipodi:type="inkscape:persp3d"></inkscape:perspective><inkscape:perspective id="perspective28451" inkscape:persp3d-origin="0.5 : 0.33333333 : 1" inkscape:vp_z="1 : 0.5 : 1" inkscape:vp_y="0 : 1000 : 0" inkscape:vp_x="0 : 0.5 : 1" sodipodi:type="inkscape:persp3d"></inkscape:perspective></defs><sodipodi:namedview pagecolor="#ffffff" bordercolor="#666666" borderopacity="1" objecttolerance="10" gridtolerance="10" guidetolerance="10" inkscape:pageopacity="0" inkscape:pageshadow="2" inkscape:window-width="1198" inkscape:window-height="730" id="namedview4848" showgrid="false" inkscape:zoom="3.5732618" inkscape:cx="67.434" inkscape:cy="72.32762" inkscape:window-x="28" inkscape:window-y="24" inkscape:window-maximized="0" inkscape:current-layer="svg3857" showguides="true" inkscape:guide-bbox="true"><sodipodi:guide orientation="0,1" position="0,140" id="globe_top"></sodipodi:guide><sodipodi:guide orientation="1,0" position="16,0" id="globe_left"></sodipodi:guide><sodipodi:guide orientation="1,0" position="119,0" id="globe_right"></sodipodi:guide><sodipodi:guide id="globe_bottom" position="0,47" orientation="0,1"></sodipodi:guide><sodipodi:guide orientation="0,1" position="8,40" id="wordmark_top"></sodipodi:guide><sodipodi:guide orientation="0,1" position="8,22.5" id="wordmark_bottom"></sodipodi:guide><sodipodi:guide orientation="0,1" position="0,17" id="subtitle_top"></sodipodi:guide><sodipodi:guide orientation="0,1" position="0,8" id="subtitle_bottom"></sodipodi:guide><sodipodi:guide orientation="1,0" position="8,40" id="wordmark_left"></sodipodi:guide><sodipodi:guide orientation="1,0" position="127,40" id="wordmark_right"></sodipodi:guide></sodipodi:namedview><g id="Wikipedia">
		<path id="path3898" d="m 18.757,118.893 c 0,0 -0.367,-0.746 -0.492,-0.994 -0.834,-1.653 -0.816,-1.741 -1.659,-1.852 -0.236,-0.031 -0.358,-0.061 -0.358,-0.178 v -0.523 l 0.071,-0.051 c 1.523,-0.002 4.912,-0.002 4.912,-0.002 l 0.13,0.043 v 0.521 c 0,0.119 -0.085,0.18 -0.258,0.18 l -0.356,0.051 c -0.9,0.07 -0.753,0.438 -0.155,1.629 l 5.677,11.615 0.194,0.053 5.04,-11.961 c 0.175,-0.482 0.148,-0.824 -0.077,-1.025 -0.226,-0.196 -0.385,-0.312 -0.969,-0.336 l -0.473,-0.024 c -0.058,0 -0.113,-0.021 -0.166,-0.06 -0.052,-0.037 -0.079,-0.086 -0.079,-0.145 v -0.498 l 0.072,-0.051 c 1.42,0 5.694,0 5.694,0 l 0.058,0.051 v 0.498 c 0,0.135 -0.077,0.203 -0.229,0.203 -0.746,0.033 -1.299,0.195 -1.657,0.484 -0.359,0.291 -0.639,0.692 -0.84,1.213 0,0 -4.635,10.609 -6.221,14.135 -0.607,1.156 -1.204,1.05 -1.729,-0.033 -1.109,-2.284 -4.232,-9.213 -4.232,-9.213 l -1.898,-3.73 z"></path>
		<path id="path3900" d="m 27.853,115.287 c 0,0 -3.203,-0.01 -4.629,0 l -0.071,0.051 v 0.496 c 0,0.061 0.026,0.109 0.078,0.146 0.053,0.039 0.107,0.059 0.165,0.059 l 0.229,0.025 c 0.583,0.024 0.851,0.177 0.931,0.273 0.139,0.17 0.208,0.354 -0.129,1.089 l -5.98,11.927 -0.157,-0.041 c 0,0 -4.283,-9.031 -5.523,-12.052 -0.129,-0.313 -0.187,-0.545 -0.187,-0.688 0,-0.307 0.277,-0.473 0.831,-0.496 l 0.646,-0.027 c 0.171,0 0.258,-0.066 0.258,-0.203 v -0.496 l -0.058,-0.051 c 0,0 -5.13,-0.006 -6.19,0 l -0.058,0.051 v 0.521 c 0,0.094 0.119,0.152 0.358,0.178 0.651,0.035 1.079,0.139 1.285,0.312 0.205,0.175 0.422,0.617 0.71,1.306 1.557,3.74 4.865,10.414 6.476,14.215 0.464,1.038 1.047,1.199 1.755,-0.032 1.226,-2.274 4.55,-9.218 4.55,-9.218 l 2.618,-4.896 c 0.305,-0.517 0.599,-0.978 0.748,-1.193 0.273,-0.393 0.426,-0.467 1.172,-0.502 0.152,0 0.229,-0.068 0.229,-0.205 v -0.496 l -0.057,-0.053 z"></path>
		<path style="fill:#ffffff" id="path3902" d="m 21.535,126.689 c -0.02,0.066 0.188,0.293 0.253,0.313 l 0.155,-0.098 c 0.064,0.02 0.203,-0.041 0.223,-0.105 l 0.027,-0.264 -0.279,-1.304 c -0.051,-0.067 -0.09,-0.018 -0.107,0.043 l -0.272,1.415 z"></path>
		<path id="path3904" d="m 37.592,130.77 c 0,0.572 0.26,0.91 1.092,0.988 l 0.546,0.053 c 0.078,0 0.156,0.051 0.156,0.155 v 0.546 l -0.026,0.053 c 0,0 -1.976,-0.053 -2.782,-0.053 -0.728,0 -2.756,0.053 -2.756,0.053 l -0.052,-0.053 v -0.546 c 0,-0.104 0.078,-0.155 0.182,-0.155 l 0.52,-0.053 c 0.858,-0.078 1.118,-0.494 1.118,-0.988 v -8.658 c 0,-0.571 -0.313,-0.729 -1.118,-0.805 l -0.52,-0.054 c -0.104,0 -0.182,-0.024 -0.182,-0.104 v -0.599 l 0.026,-0.052 c 0,0 2.054,0.052 2.86,0.052 0.702,0 2.704,-0.052 2.704,-0.052 l 0.026,0.052 v 0.572 c 0,0.078 -0.052,0.13 -0.156,0.13 l -0.546,0.053 c -0.806,0.077 -1.092,0.286 -1.092,0.807 v 8.658 z"></path>
		<path id="path3906" d="m 45.265,130.77 c 0,0.572 0.338,0.858 1.092,0.988 l 0.286,0.053 c 0.078,0.025 0.156,0.051 0.156,0.155 v 0.546 l -0.026,0.053 c 0,0 -1.638,-0.053 -2.418,-0.053 -0.728,0 -2.86,0.053 -2.86,0.053 l -0.052,-0.053 v -0.546 c 0,-0.104 0.078,-0.155 0.182,-0.155 l 0.52,-0.053 c 0.78,-0.078 1.118,-0.494 1.118,-0.988 v -8.658 c 0,-0.571 -0.286,-0.729 -1.118,-0.805 l -0.52,-0.054 c -0.104,0 -0.182,-0.024 -0.182,-0.104 v -0.599 l 0.026,-0.052 c 0,0 2.132,0.052 2.938,0.052 0.729,0 2.366,-0.052 2.366,-0.052 l 0.026,0.052 v 0.572 c 0,0.078 -0.052,0.104 -0.156,0.13 l -0.286,0.053 c -0.806,0.155 -1.092,0.286 -1.092,0.807 v 3.926 c 0.858,0 1.352,-0.441 2.496,-1.664 1.04,-1.145 1.846,-2.105 1.846,-2.6 0,-0.209 -0.234,-0.442 -0.754,-0.521 -0.104,-0.025 -0.156,-0.052 -0.156,-0.13 v -0.599 l 0.026,-0.025 c 0,0 2.106,0.052 2.86,0.052 0.676,0 1.82,-0.052 1.82,-0.052 l 0.078,0.025 v 0.599 c 0,0.078 -0.078,0.13 -0.208,0.13 -1.014,0.078 -1.716,0.13 -2.652,1.196 l -2.236,2.573 c -0.442,0.469 -0.598,0.754 -0.598,0.963 0,0.156 0.104,0.285 0.234,0.441 l 3.926,4.732 c 0.312,0.363 0.936,0.52 1.456,0.623 l 0.13,0.025 c 0.078,0.026 0.182,0.078 0.182,0.156 v 0.546 l -0.078,0.026 c 0,0 -1.378,-0.026 -2.106,-0.026 -0.65,0 -1.586,0.026 -1.586,0.026 l -0.026,-0.026 v -0.312 c 0,-0.339 -0.026,-0.623 -0.39,-1.039 l -2.886,-3.589 c -0.39,-0.521 -0.806,-0.649 -1.378,-0.649 v 3.851 l 0,0 z"></path>
		<path id="path3908" d="m 59.282,130.77 c 0,0.572 0.26,0.91 1.092,0.988 l 0.546,0.053 c 0.078,0 0.156,0.051 0.156,0.155 v 0.546 l -0.026,0.053 c 0,0 -1.976,-0.053 -2.782,-0.053 -0.728,0 -2.756,0.053 -2.756,0.053 l -0.052,-0.053 v -0.546 c 0,-0.104 0.078,-0.155 0.182,-0.155 l 0.52,-0.053 c 0.858,-0.078 1.118,-0.494 1.118,-0.988 v -8.658 c 0,-0.571 -0.312,-0.729 -1.118,-0.805 l -0.52,-0.054 c -0.104,0 -0.182,-0.024 -0.182,-0.104 v -0.599 l 0.026,-0.052 c 0,0 2.054,0.052 2.86,0.052 0.702,0 2.704,-0.052 2.704,-0.052 l 0.026,0.052 v 0.572 c 0,0.078 -0.052,0.13 -0.156,0.13 l -0.546,0.053 c -0.806,0.077 -1.092,0.286 -1.092,0.807 v 8.658 z"></path>
		<path id="path3910" d="m 64.9,122.163 c 0,-0.806 -0.338,-0.832 -1.56,-0.91 -0.156,0 -0.182,-0.077 -0.182,-0.13 v -0.598 l 0.052,-0.026 c 0.39,0 1.924,0.052 2.678,0.052 0.728,0 1.768,-0.052 2.73,-0.052 3.69,0 4.366,1.819 4.366,3.173 0,1.561 -0.754,4.004 -4.444,4.004 -0.65,0 -1.17,-0.053 -1.639,-0.26 v 3.482 c 0,0.572 0.312,0.703 1.145,0.832 l 0.521,0.078 c 0.104,0.026 0.182,0.053 0.182,0.156 v 0.546 l -0.025,0.052 c 0,0 -2.08,-0.052 -2.886,-0.052 -0.728,0 -2.678,0.052 -2.678,0.052 l -0.026,-0.052 v -0.546 c 0,-0.104 0.052,-0.13 0.156,-0.156 l 0.546,-0.078 c 0.806,-0.104 1.066,-0.338 1.066,-0.832 l -0.002,-8.735 0,0 z m 2.002,4.525 c 0.52,0.209 1.17,0.234 1.69,0.234 1.561,0 2.312,-0.938 2.312,-2.938 0,-2.236 -1.014,-2.73 -2.442,-2.73 -1.249,0 -1.561,0.234 -1.561,0.91 l 0.001,4.524 0,0 z"></path>
		<path id="path3912" d="m 77.462,132.512 c -0.78,0 -2.573,0.053 -2.573,0.053 l -0.027,-0.053 v -0.572 c 0,-0.051 0.027,-0.129 0.156,-0.129 l 0.599,-0.053 c 0.807,-0.078 1.041,-0.598 1.041,-1.117 v -8.58 c 0,-0.6 -0.313,-0.703 -1.041,-0.754 l -0.599,-0.054 c -0.156,-0.024 -0.156,-0.077 -0.156,-0.104 v -0.599 l 0.027,-0.052 c 0,0 2.027,0.052 2.807,0.052 h 3.822 c 0.78,0 2.627,-0.052 2.627,-0.052 l 0.053,0.052 c 0.025,1.118 0.207,2.134 0.39,3.121 l -0.649,0.104 c -0.285,-0.963 -0.779,-2.34 -2.443,-2.34 h -2.08 c -0.494,0 -0.754,0.182 -0.754,0.623 v 3.771 h 1.949 c 0.729,0 0.91,-0.312 1.015,-0.832 l 0.155,-0.546 c 0,-0.078 0.053,-0.131 0.156,-0.131 h 0.441 c 0.053,0 0.053,0.027 0.053,0.078 -0.053,0.572 -0.156,1.301 -0.156,1.925 0,0.649 0.104,1.196 0.156,1.794 l -0.053,0.053 h -0.441 c -0.129,0 -0.183,-0.053 -0.183,-0.131 l -0.13,-0.571 c -0.104,-0.521 -0.338,-0.807 -1.016,-0.807 H 78.66 v 3.979 c 0,0.493 0.284,0.987 0.754,0.987 h 2.47 c 1.326,0 2.055,-0.832 2.366,-2.185 l 0.649,0.078 -0.521,2.989 -0.052,0.052 c 0,0 -1.534,-0.052 -2.314,-0.052 l -4.55,0.003 0,0 z"></path>
		<path id="path3914" d="m 87.24,131.811 0.598,-0.053 c 0.781,-0.078 1.041,-0.312 1.041,-1.117 v -8.58 c 0,-0.678 -0.184,-0.678 -1.041,-0.754 l -0.57,-0.054 c -0.104,0 -0.184,-0.052 -0.184,-0.13 v -0.572 l 0.025,-0.052 c 0,0 2.289,0.052 2.758,0.052 0.492,0 2.756,-0.052 3.432,-0.052 4.342,0 6.475,2.704 6.475,6.162 0,4.551 -3.225,5.901 -6.11,5.901 -2.08,0 -2.989,-0.052 -3.795,-0.052 -0.781,0 -2.757,0.052 -2.757,0.052 l -0.026,-0.052 v -0.546 c -0.002,-0.075 0.051,-0.153 0.154,-0.153 z m 5.799,0 c 2.859,0 4.473,-1.065 4.473,-4.707 0,-2.703 -0.599,-5.851 -4.967,-5.851 -1.014,0 -1.664,0.156 -1.664,0.808 v 8.58 c 0,0.726 0.181,1.17 2.158,1.17 z"></path>
		<path id="path3916" d="m 105.912,130.77 c 0,0.572 0.26,0.91 1.092,0.988 l 0.546,0.053 c 0.078,0 0.156,0.051 0.156,0.155 v 0.546 l -0.026,0.053 c 0,0 -1.976,-0.053 -2.781,-0.053 -0.729,0 -2.756,0.053 -2.756,0.053 l -0.053,-0.053 v -0.546 c 0,-0.104 0.078,-0.155 0.182,-0.155 l 0.521,-0.053 c 0.857,-0.078 1.118,-0.494 1.118,-0.988 v -8.658 c 0,-0.571 -0.313,-0.729 -1.118,-0.805 l -0.521,-0.054 c -0.104,0 -0.182,-0.024 -0.182,-0.104 v -0.599 l 0.026,-0.052 c 0,0 2.054,0.052 2.858,0.052 0.702,0 2.705,-0.052 2.705,-0.052 l 0.025,0.052 v 0.572 c 0,0.078 -0.053,0.13 -0.156,0.13 l -0.546,0.053 c -0.806,0.077 -1.092,0.286 -1.092,0.807 l 0.002,8.658 0,0 z"></path>
		<path id="path3918" d="m 113.922,131.758 0.754,0.053 c 0.104,0 0.208,0.078 0.208,0.207 v 0.494 l -0.052,0.053 c 0,0 -2.834,-0.053 -3.458,-0.053 -0.677,0 -2.341,0.053 -2.341,0.053 l -0.053,-0.053 v -0.494 c 0,-0.129 0.078,-0.207 0.209,-0.207 1.145,-0.078 1.793,-0.287 2.521,-1.951 l 5.771,-13.521 c 0.285,-0.676 0.494,-0.937 0.885,-0.937 0.363,0 0.494,0.261 0.701,0.781 l 5.33,14.092 c 0.365,1.015 0.885,1.404 1.925,1.508 l 0.286,0.025 c 0.13,0 0.26,0.078 0.26,0.209 v 0.493 l -0.078,0.052 c 0,0 -2.002,-0.052 -3.016,-0.052 -0.91,0 -3.459,0.052 -3.459,0.052 l -0.025,-0.052 v -0.493 c 0,-0.131 0.052,-0.209 0.184,-0.209 l 0.728,-0.052 c 0.987,-0.077 1.353,-0.391 1.092,-1.118 l -1.586,-4.395 H 115.3 c -0.624,0 -0.78,0.104 -0.909,0.441 l -1.509,3.771 c -0.26,0.652 0.078,1.225 1.04,1.303 z m 6.37,-6.606 -2.522,-6.941 h -0.052 l -2.6,6.604 c -0.104,0.261 0.077,0.338 0.649,0.338 h 4.525 z"></path>
	</g><g transform="translate(0.23949615,-3.92282)" style="font-size:13px;font-style:normal;font-variant:normal;font-weight:normal;font-stretch:normal;text-align:start;line-height:125%;text-anchor:start;fill:#000000;fill-opacity:1;stroke:none;font-family:Linux Libertine" id="text4664"><path d="m 14.711541,142.60205 c 0.01269,0.0593 0.05501,0.32797 0.126953,0.80615 0.07617,0.47397 0.129063,0.83367 0.158692,1.0791 l -0.374512,0.0635 c -0.06771,-0.20735 -0.126959,-0.37239 -0.177734,-0.49512 -0.04656,-0.12271 -0.110032,-0.24966 -0.19043,-0.38086 -0.08041,-0.1354 -0.169276,-0.23697 -0.266602,-0.30468 -0.0931,-0.0677 -0.211593,-0.12272 -0.355468,-0.16504 -0.143885,-0.0465 -0.31104,-0.0698 -0.501465,-0.0698 l -1.371094,0 c -0.156578,1e-5 -0.272952,0.036 -0.349121,0.10791 -0.07617,0.0677 -0.11426,0.17986 -0.114258,0.33643 l 0,2.72949 1.650391,0 c 0.220048,1e-5 0.376623,-0.0423 0.469726,-0.12695 0.09733,-0.0889 0.156571,-0.22851 0.177735,-0.41895 l 0.03809,-0.33007 c -5e-6,-0.0254 0.0085,-0.0487 0.02539,-0.0698 0.02115,-0.0212 0.04443,-0.0317 0.06982,-0.0317 l 0.285645,0 0.05078,0.0508 c -0.03386,0.46127 -0.05079,0.85271 -0.05078,1.17432 -5e-6,0.292 0.01692,0.66862 0.05078,1.12988 l -0.05078,0.0381 -0.285645,0 c -0.06348,0 -0.09522,-0.0339 -0.09521,-0.10156 l -0.03809,-0.33008 c -0.01693,-0.1862 -0.07406,-0.31526 -0.171387,-0.38721 -0.09733,-0.0719 -0.256026,-0.1079 -0.476074,-0.10791 l -1.650391,0 0,3.26904 c -2e-6,0.16504 0.03808,0.27719 0.114258,0.33643 0.07617,0.0592 0.192543,0.0889 0.349121,0.0889 l 1.770996,0 c 0.859044,0 1.443028,-0.56706 1.751953,-1.70117 l 0.40625,0.0635 -0.482422,2.1709 C 14.512642,151.00846 13.958281,151 13.543572,151 l -2.780273,0 c -0.287762,0 -0.8378916,0.008 -1.6503906,0.0254 L 9.0875177,151 l 0,-0.26025 c -10e-8,-0.0592 0.033854,-0.0889 0.1015625,-0.0889 l 0.3872071,-0.0254 c 0.2496736,-0.0212 0.423176,-0.0741 0.5205077,-0.15869 0.09733,-0.0846 0.145995,-0.21794 0.145996,-0.39991 l 0,-6.4873 c -1e-6,-0.20312 -0.04867,-0.347 -0.145996,-0.43164 -0.097332,-0.0846 -0.2708341,-0.13753 -0.5205077,-0.15869 l -0.3872071,-0.0254 c -0.067709,1e-5 -0.1015626,-0.0296 -0.1015625,-0.0889 l 0,-0.26025 0.025391,-0.0254 c 0.812499,0.0169 1.3626283,0.0254 1.6503903,0.0254 l 3.288086,0 c 0.207351,0 0.410476,-0.0169 0.609375,-0.0508 0.03385,1e-5 0.05077,0.0127 0.05078,0.0381" id="path4669"></path><path d="m 19.321795,145.29346 -0.03809,1.15527 0.03809,0 c 0.385089,-0.45279 0.740557,-0.75748 1.066407,-0.91406 0.330074,-0.1608 0.681311,-0.24121 1.053711,-0.24121 0.283524,0 0.520503,0.0508 0.710937,0.15234 0.194656,0.10157 0.342768,0.2518 0.444336,0.45068 0.101557,0.19467 0.171381,0.40837 0.209473,0.64112 0.04231,0.22852 0.06347,0.49935 0.06348,0.8125 l 0,2.71679 c -5e-6,0.1862 0.0402,0.32162 0.120606,0.40625 0.0804,0.0804 0.222162,0.13119 0.425293,0.15235 l 0.247558,0.0254 c 0.07617,0.0169 0.114252,0.0508 0.114258,0.10156 l 0,0.24756 -0.02539,0.0254 C 23.058443,151.00846 22.595065,151 22.362323,151 c -0.165044,0 -0.594569,0.008 -1.288574,0.0254 L 21.048358,151 l 0,-0.24756 c -4e-6,-0.055 0.03597,-0.0889 0.10791,-0.10156 l 0.177734,-0.0254 c 0.215816,-0.0339 0.361812,-0.0889 0.437989,-0.16504 0.0804,-0.0804 0.120601,-0.21159 0.120605,-0.39356 l 0,-2.81201 c -4e-6,-0.48241 -0.05925,-0.82519 -0.177734,-1.02832 -0.114262,-0.20735 -0.33643,-0.31103 -0.666504,-0.31103 -0.300459,0 -0.583988,0.0741 -0.850586,0.22217 -0.266604,0.14811 -0.558596,0.40837 -0.875977,0.78076 l 0,3.14843 c -2e-6,0.1862 0.03808,0.31739 0.114258,0.39356 0.0804,0.0762 0.228513,0.13118 0.444336,0.16504 l 0.184082,0.0254 c 0.06771,0.0127 0.10156,0.0465 0.101563,0.10156 l 0,0.24756 -0.02539,0.0254 C 19.44663,151.00846 19.004411,151 18.813983,151 c -0.207358,0 -0.658041,0.008 -1.352051,0.0254 L 17.436542,151 l 0,-0.24756 c -1e-6,-0.055 0.03385,-0.0889 0.101562,-0.10156 l 0.247559,-0.0254 c 0.215819,-0.0212 0.361815,-0.0719 0.437988,-0.15235 0.0804,-0.0804 0.120604,-0.21582 0.120605,-0.40625 l 0,-3.2373 c -1e-6,-0.30891 -0.02328,-0.51627 -0.06982,-0.62207 -0.04232,-0.11002 -0.114259,-0.17138 -0.21582,-0.18408 l -0.558594,-0.0571 -0.02539,-0.31104 c 0.829426,-0.12694 1.428221,-0.26024 1.796387,-0.3999 0.03385,1e-5 0.05078,0.0127 0.05078,0.0381" id="path4671"></path><path d="m 25.626874,149.17822 0.349121,-0.0127 c 0.0804,0.58398 0.236978,0.99235 0.469727,1.22509 0.08886,0.0931 0.217934,0.17986 0.387207,0.26026 0.169269,0.0762 0.361814,0.11426 0.577636,0.11426 0.262368,0 0.516274,-0.0889 0.761719,-0.2666 0.245439,-0.17774 0.368161,-0.4126 0.368164,-0.70459 -3e-6,-0.28776 -0.09733,-0.53321 -0.291992,-0.73633 -0.194664,-0.20736 -0.543785,-0.42318 -1.047363,-0.64746 -0.270835,-0.11849 -0.480308,-0.21794 -0.628418,-0.29834 -0.148114,-0.0846 -0.289878,-0.19043 -0.425293,-0.31739 -0.131186,-0.12695 -0.222169,-0.27294 -0.272949,-0.43798 -0.05078,-0.16504 -0.07617,-0.36816 -0.07617,-0.60938 -10e-7,-0.4274 0.171386,-0.77652 0.51416,-1.04736 0.347003,-0.27083 0.78076,-0.40625 1.301269,-0.40625 0.537432,0 1.015622,0.10791 1.434571,0.32373 0.06347,0.35547 0.110022,0.79769 0.139648,1.32666 l -0.349121,0.0127 c -0.06348,-0.24967 -0.152347,-0.46337 -0.266602,-0.64111 -0.110029,-0.18196 -0.228518,-0.31526 -0.355468,-0.3999 -0.122725,-0.0846 -0.234866,-0.14388 -0.336426,-0.17774 -0.09733,-0.0381 -0.186201,-0.0571 -0.266602,-0.0571 -0.681317,1e-5 -1.021974,0.292 -1.021972,0.87598 -2e-6,0.26237 0.06348,0.46973 0.190429,0.62207 0.131183,0.14812 0.37451,0.28565 0.729981,0.4126 0.296221,0.11003 0.545895,0.21794 0.749023,0.32373 0.203122,0.1058 0.397783,0.23275 0.583985,0.38086 0.190425,0.14811 0.33219,0.32162 0.425293,0.52051 0.09309,0.19889 0.139644,0.42318 0.139648,0.67285 -4e-6,0.24544 -0.05079,0.46761 -0.152344,0.6665 -0.09733,0.19466 -0.220056,0.35124 -0.368164,0.46973 -0.143884,0.11849 -0.308923,0.21793 -0.495117,0.29834 -0.186201,0.0762 -0.359703,0.12907 -0.520508,0.15869 -0.156578,0.0296 -0.302574,0.0444 -0.437988,0.0444 -0.423179,0 -0.814617,-0.0465 -1.174316,-0.13965 -0.05925,-0.0169 -0.13965,-0.0254 -0.241211,-0.0254 -0.06771,0 -0.169272,0.0127 -0.304688,0.0381 0,-0.46549 -0.02962,-1.07275 -0.08887,-1.82178" id="path4673"></path><path d="m 32.217595,144.03027 c -0.122722,-0.12271 -0.184083,-0.26871 -0.184082,-0.43798 -10e-7,-0.16927 0.06136,-0.31526 0.184082,-0.43799 0.12272,-0.12695 0.268716,-0.19042 0.437988,-0.19043 0.169269,1e-5 0.315265,0.0614 0.437989,0.18408 0.12695,0.12273 0.190427,0.27084 0.190429,0.44434 -2e-6,0.16927 -0.06348,0.31527 -0.190429,0.43798 -0.122724,0.12273 -0.26872,0.18409 -0.437989,0.18409 -0.169272,0 -0.315268,-0.0614 -0.437988,-0.18409 m 1.041016,1.26319 c -0.02963,0.58822 -0.04444,1.10026 -0.04443,1.53613 l 0,3.2373 c -2e-6,0.1862 0.0402,0.32162 0.120606,0.40625 0.08463,0.0804 0.228513,0.13119 0.43164,0.15235 l 0.241211,0.0254 c 0.0804,0.0127 0.120602,0.0465 0.120606,0.10156 l 0,0.24756 -0.02539,0.0254 C 33.408836,151.00846 32.945458,151 32.712712,151 c -0.207358,0 -0.658041,0.008 -1.35205,0.0254 L 31.335271,151 l 0,-0.24756 c -10e-7,-0.055 0.03385,-0.0889 0.101562,-0.10156 l 0.247559,-0.0254 c 0.220051,-0.0296 0.368163,-0.0825 0.444336,-0.15869 0.07617,-0.0804 0.114256,-0.21371 0.114258,-0.39991 l 0,-3.2373 c -2e-6,-0.30891 -0.02328,-0.51627 -0.06982,-0.62207 -0.04232,-0.11002 -0.114259,-0.17138 -0.215821,-0.18408 l -0.558594,-0.0571 -0.02539,-0.31104 c 0.871743,-0.13118 1.481118,-0.26448 1.828125,-0.3999 0.03808,1e-5 0.05713,0.0127 0.05713,0.0381" id="path4675"></path><path d="m 36.63742,143.68115 c -10e-7,-0.40201 -0.02962,-0.67073 -0.08887,-0.80615 -0.05925,-0.13964 -0.158693,-0.20946 -0.29834,-0.20947 l -0.418946,-0.0254 c -0.05078,1e-5 -0.07617,-0.0212 -0.07617,-0.0635 l -0.02539,-0.31104 c 0.266601,-0.0212 0.583983,-0.0677 0.952148,-0.13964 0.372395,-0.0719 0.638996,-0.13964 0.799805,-0.20313 0.114256,1e-5 0.171385,0.0444 0.171387,0.1333 -0.02539,0.34702 -0.03809,0.80193 -0.03809,1.36475 l 0,4.50049 c 0.338539,-0.0846 0.905596,-0.56283 1.701172,-1.43457 0.05078,-0.0508 0.09733,-0.10579 0.139648,-0.16504 0.04655,-0.0635 0.08675,-0.13753 0.120606,-0.22217 0.03385,-0.0846 0.01481,-0.15657 -0.05713,-0.21582 -0.06771,-0.0635 -0.19255,-0.0994 -0.374512,-0.10791 -0.06771,0 -0.101566,-0.036 -0.101563,-0.10791 l 0,-0.24756 c 0.02539,-0.008 0.03808,-0.0169 0.03809,-0.0254 0.643225,0.0169 1.030432,0.0254 1.161621,0.0254 0.110022,1e-5 0.486649,-0.008 1.129883,-0.0254 l 0.05078,0.0254 0,0.24756 c -6e-6,0.055 -0.04867,0.091 -0.145997,0.10791 l -0.08887,0.0127 c -0.194667,0.0296 -0.414719,0.0995 -0.660156,0.20948 -0.241216,0.11003 -0.437993,0.24333 -0.590332,0.3999 l -0.983887,1.0918 c -0.03386,0.0339 -0.05078,0.0783 -0.05078,0.1333 -3e-6,0.0635 0.02116,0.12272 0.06348,0.17773 l 1.517089,2.24707 c 0.110021,0.16504 0.253901,0.29623 0.431641,0.39356 0.177729,0.0973 0.359695,0.16292 0.545898,0.19677 l 0.08887,0.0127 c 0.0804,0.0127 0.120599,0.0465 0.120605,0.10156 l 0,0.24756 -0.02539,0.0254 C 41.120975,151.00846 40.752812,151 40.541228,151 c -0.236984,0 -0.528976,0.008 -0.875976,0.0254 L 39.627166,151 l 0,-0.24756 c -4e-6,-0.17773 -0.09945,-0.4126 -0.29834,-0.70459 l -0.945801,-1.33301 c -0.126956,-0.18619 -0.245445,-0.31103 -0.355469,-0.37451 -0.105796,-0.0635 -0.243329,-0.0952 -0.412597,-0.0952 l 0,1.82177 c -2e-6,0.22006 0.04655,0.36817 0.139648,0.44434 0.0931,0.0719 0.241209,0.11849 0.444336,0.13965 0.06771,0 0.10156,0.0339 0.101563,0.10156 l 0,0.24756 -0.02539,0.0254 C 37.59803,151.00846 37.208707,151 37.107146,151 c -0.02962,0 -0.476075,0.008 -1.339355,0.0254 L 35.7424,151 l 0,-0.24756 c 0,-0.055 0.02962,-0.0889 0.08887,-0.10156 l 0.247559,-0.0254 c 0.215819,-0.0212 0.361815,-0.0719 0.437988,-0.15235 0.0804,-0.0804 0.120605,-0.21582 0.120606,-0.40625 l 0,-6.38574" id="path4677"></path><path d="m 44.053338,150.06689 0,-6.38574 c -10e-7,-0.40201 -0.03174,-0.67073 -0.09521,-0.80615 -0.05925,-0.13964 -0.158692,-0.20946 -0.29834,-0.20947 l -0.412597,-0.0254 c -0.05501,1e-5 -0.08252,-0.0212 -0.08252,-0.0635 l -0.02539,-0.31104 c 0.270832,-0.0212 0.590331,-0.0656 0.958496,-0.1333 0.368162,-0.0719 0.634763,-0.14175 0.799804,-0.20947 0.110024,1e-5 0.165037,0.0444 0.165039,0.1333 -0.02539,0.34702 -0.03809,0.80193 -0.03809,1.36475 l 0,6.64599 c -2e-6,0.19043 0.03808,0.32585 0.114258,0.40625 0.07617,0.0804 0.22005,0.13119 0.431641,0.15235 l 0.311035,0.0254 c 0.07194,0 0.107907,0.0339 0.10791,0.10156 l 0,0.24756 -0.02539,0.0254 C 45.092236,151.00846 44.609814,151 44.516717,151 c -0.0804,0 -0.552247,0.008 -1.415527,0.0254 L 43.08849,151 l 0,-0.24756 c 0,-0.0677 0.02962,-0.10156 0.08887,-0.10156 l 0.311036,-0.0254 c 0.215819,-0.0212 0.363931,-0.0719 0.444336,-0.15235 0.0804,-0.0804 0.120604,-0.21582 0.120605,-0.40625" id="path4679"></path><path d="m 47.762223,148.33398 c 0,-0.90982 0.236979,-1.64403 0.710938,-2.20263 0.473956,-0.55859 1.134112,-0.83789 1.980468,-0.83789 0.372393,0 0.710934,0.0592 1.015625,0.17773 0.304684,0.11426 0.556474,0.26872 0.755372,0.46338 0.203119,0.19043 0.37239,0.41472 0.507812,0.67285 0.139643,0.25391 0.239089,0.51628 0.29834,0.78711 0.05924,0.27084 0.08886,0.5459 0.08887,0.8252 -6e-6,0.33854 -0.05713,0.67497 -0.171387,1.00927 -0.110031,0.33008 -0.270838,0.639 -0.482421,0.92676 -0.207362,0.28776 -0.488775,0.52263 -0.844239,0.70459 -0.355472,0.17774 -0.753259,0.2666 -1.193359,0.2666 -0.418948,0 -0.801923,-0.0825 -1.148926,-0.24756 -0.347007,-0.16503 -0.628419,-0.38297 -0.844238,-0.6538 -0.215821,-0.27084 -0.382976,-0.56918 -0.501465,-0.89502 -0.114258,-0.32585 -0.171387,-0.65804 -0.171387,-0.99659 m 2.54541,-2.60888 c -0.33008,0 -0.607261,0.11849 -0.831543,0.35547 -0.224285,0.23275 -0.382977,0.51628 -0.476074,0.85058 -0.08887,0.33432 -0.133302,0.70248 -0.133301,1.10449 -10e-7,0.2116 0.01904,0.43376 0.05713,0.66651 0.04232,0.22852 0.110025,0.46338 0.203125,0.70459 0.0931,0.24121 0.205239,0.45703 0.336426,0.64746 0.131183,0.19043 0.298337,0.34701 0.501465,0.46973 0.207354,0.11849 0.433753,0.17773 0.679199,0.17773 0.165036,0 0.319495,-0.0275 0.463379,-0.0825 0.148108,-0.0592 0.291988,-0.15869 0.431641,-0.29834 0.143876,-0.14388 0.258133,-0.3597 0.342773,-0.64746 0.08463,-0.28776 0.126949,-0.63476 0.126953,-1.04102 -4e-6,-0.94368 -0.148116,-1.66308 -0.444336,-2.1582 -0.296228,-0.49934 -0.715172,-0.74902 -1.256836,-0.74902" id="path4681"></path><path d="m 56.701581,146.95654 0,3.17383 c 0.31738,0.3724 0.677081,0.5586 1.079102,0.55859 0.266598,1e-5 0.503577,-0.0487 0.710937,-0.14599 0.211585,-0.10156 0.380855,-0.23063 0.507813,-0.38721 0.126948,-0.15657 0.230627,-0.34277 0.311035,-0.55859 0.08463,-0.21582 0.141759,-0.42952 0.171386,-0.64112 0.02962,-0.21158 0.04443,-0.43163 0.04443,-0.66015 -5e-6,-0.71517 -0.143885,-1.29492 -0.431641,-1.73926 -0.283532,-0.44433 -0.630537,-0.6665 -1.041015,-0.6665 -0.236983,0 -0.488773,0.0973 -0.755371,0.29199 -0.262372,0.19043 -0.461265,0.44857 -0.59668,0.77441 m -0.971191,-0.12695 c -1e-6,-0.30468 -0.02328,-0.51204 -0.06983,-0.62207 -0.04655,-0.11002 -0.11849,-0.17138 -0.21582,-0.18408 l -0.558594,-0.0571 -0.02539,-0.31104 c 0.808267,-0.12271 1.404946,-0.25601 1.790039,-0.3999 0.03385,1e-5 0.05078,0.0127 0.05078,0.0381 l -0.03809,1.04101 0.03809,0 c 0.457029,-0.694 1.026201,-1.04101 1.70752,-1.04101 0.406245,0 0.778641,0.12484 1.117187,0.37451 0.338537,0.24968 0.600906,0.57764 0.787109,0.98389 0.186193,0.40625 0.279291,0.83789 0.279297,1.29492 -6e-6,1.01986 -0.304693,1.8387 -0.914062,2.45654 -0.478195,0.48242 -1.083337,0.72363 -1.81543,0.72363 -0.418948,0 -0.806155,-0.0952 -1.161621,-0.28564 l 0,2.25342 c -2e-6,0.18196 0.0402,0.31315 0.120605,0.39355 0.08463,0.0846 0.226398,0.13542 0.425293,0.15234 l 0.247559,0.0254 c 0.0804,0.0127 0.120603,0.0465 0.120606,0.10156 l 0,0.24756 -0.02539,0.0254 c -0.643232,-0.0169 -1.10661,-0.0254 -1.390137,-0.0254 -0.266603,-10e-6 -0.717286,0.008 -1.352051,0.0254 l -0.03174,-0.0254 0,-0.24756 c 0,-0.055 0.03597,-0.0889 0.10791,-0.10156 l 0.247559,-0.0254 c 0.207356,-0.0169 0.351236,-0.0677 0.43164,-0.15234 0.08463,-0.0804 0.126953,-0.21159 0.126954,-0.39355 l 0,-6.26514" id="path4683-4"></path><path d="m 63.787419,147.26758 2.386719,0 c 0.122717,0 0.184078,-0.0592 0.184082,-0.17774 -4e-6,-0.25813 -0.03386,-0.4803 -0.101562,-0.6665 -0.06348,-0.18619 -0.152348,-0.32584 -0.266602,-0.41895 -0.11003,-0.0973 -0.224287,-0.16503 -0.342773,-0.20312 -0.114261,-0.0423 -0.236983,-0.0635 -0.368164,-0.0635 -0.08464,10e-6 -0.169274,0.006 -0.253907,0.0191 -0.08041,0.008 -0.190432,0.0423 -0.330078,0.10156 -0.139651,0.055 -0.264488,0.1333 -0.374512,0.23486 -0.105796,0.10157 -0.21159,0.25391 -0.317382,0.45703 -0.101565,0.20313 -0.173505,0.44223 -0.215821,0.71729 m 3.427735,2.49463 c 0.135411,0.0127 0.222162,0.0825 0.260254,0.20947 -0.258143,0.35547 -0.575526,0.63688 -0.952149,0.84424 -0.376631,0.20735 -0.791344,0.31103 -1.24414,0.31103 -0.846357,0 -1.487469,-0.2539 -1.92334,-0.76172 -0.431642,-0.50781 -0.647462,-1.1595 -0.647461,-1.95507 -10e-7,-0.47396 0.07617,-0.91195 0.228515,-1.31397 0.152343,-0.40201 0.351236,-0.73209 0.59668,-0.99023 0.245441,-0.25814 0.51839,-0.45703 0.818848,-0.59668 0.304685,-0.14388 0.613604,-0.21582 0.926758,-0.21582 0.330074,0 0.622066,0.0444 0.875976,0.1333 0.253902,0.0889 0.457027,0.20524 0.609375,0.34912 0.156571,0.13965 0.283524,0.31104 0.380859,0.51416 0.09733,0.20313 0.162919,0.40625 0.196778,0.60937 0.03808,0.20313 0.05712,0.42107 0.05713,0.65381 -5e-6,0.14812 -0.07829,0.22217 -0.234864,0.22217 l -3.421386,0 c -2e-6,0.3724 0.0402,0.71517 0.120605,1.02832 0.08463,0.30892 0.190428,0.56494 0.317383,0.76807 0.131183,0.20312 0.279295,0.37663 0.444336,0.52051 0.169268,0.13964 0.334307,0.24121 0.495117,0.30468 0.160804,0.0635 0.31738,0.0952 0.469727,0.0952 0.351233,0 0.651688,-0.0571 0.901367,-0.17139 0.24967,-0.11849 0.490881,-0.30469 0.723633,-0.55859" id="path4685"></path><path d="m 73.456758,149.7749 0,-3.26269 c -0.165044,-0.25814 -0.344894,-0.44857 -0.539551,-0.57129 -0.194665,-0.12695 -0.437992,-0.19043 -0.729981,-0.19043 -0.52051,0 -0.924644,0.21582 -1.212402,0.64746 -0.241213,0.34701 -0.361818,0.92253 -0.361816,1.72656 -2e-6,0.76172 0.139646,1.35205 0.418945,1.771 0.283526,0.41471 0.61572,0.62207 0.996582,0.62207 0.338538,0 0.814612,-0.24756 1.428223,-0.74268 m 0.977539,-6.354 0,6.06836 c -6e-6,0.32161 0.01904,0.52474 0.05713,0.60937 0.03808,0.0846 0.126947,0.1333 0.266601,0.146 l 0.628418,0.0635 0.03809,0.30468 c -0.842128,0.14812 -1.396489,0.33008 -1.663086,0.5459 l -0.304687,0 0.03174,-0.91406 -0.03174,-0.0127 c -0.736332,0.59668 -1.324548,0.89502 -1.764649,0.89502 -0.685549,0 -1.220867,-0.25602 -1.605957,-0.76806 -0.385092,-0.51205 -0.577637,-1.17855 -0.577637,-1.99952 0,-0.94368 0.289876,-1.70539 0.869629,-2.28515 0.275064,-0.26237 0.56494,-0.45703 0.869629,-0.58399 0.308917,-0.13117 0.668617,-0.19677 1.079102,-0.19677 0.143876,0 0.33219,0.0275 0.564941,0.0825 0.236975,0.055 0.425289,0.12272 0.564942,0.20312 l 0,-1.89795 c -5e-6,-0.40201 -0.02963,-0.67073 -0.08887,-0.80615 -0.05925,-0.13964 -0.158695,-0.20946 -0.298339,-0.20947 l -0.418946,-0.0254 c -0.05079,1e-5 -0.07617,-0.0212 -0.07617,-0.0635 l -0.02539,-0.31104 c 0.270829,-0.0212 0.590328,-0.0656 0.958496,-0.1333 0.368159,-0.0719 0.63476,-0.14175 0.799804,-0.20947 0.110021,1e-5 0.165034,0.0444 0.16504,0.1333 -0.0254,0.34702 -0.03809,0.80193 -0.03809,1.36475" id="path4687"></path><path d="m 77.952752,144.03027 c -0.122722,-0.12271 -0.184083,-0.26871 -0.184082,-0.43798 -10e-7,-0.16927 0.06136,-0.31526 0.184082,-0.43799 0.12272,-0.12695 0.268716,-0.19042 0.437988,-0.19043 0.169269,1e-5 0.315265,0.0614 0.437989,0.18408 0.12695,0.12273 0.190427,0.27084 0.190429,0.44434 -2e-6,0.16927 -0.06348,0.31527 -0.190429,0.43798 -0.122724,0.12273 -0.26872,0.18409 -0.437989,0.18409 -0.169272,0 -0.315268,-0.0614 -0.437988,-0.18409 m 1.041016,1.26319 c -0.02962,0.58822 -0.04444,1.10026 -0.04443,1.53613 l 0,3.2373 c -2e-6,0.1862 0.0402,0.32162 0.120606,0.40625 0.08463,0.0804 0.228513,0.13119 0.43164,0.15235 l 0.241211,0.0254 c 0.0804,0.0127 0.120602,0.0465 0.120606,0.10156 l 0,0.24756 -0.02539,0.0254 C 79.143993,151.00846 78.680615,151 78.447869,151 c -0.207358,0 -0.658041,0.008 -1.35205,0.0254 L 77.070428,151 l 0,-0.24756 c -1e-6,-0.055 0.03385,-0.0889 0.101562,-0.10156 l 0.247559,-0.0254 c 0.220051,-0.0296 0.368163,-0.0825 0.444336,-0.15869 0.07617,-0.0804 0.114256,-0.21371 0.114258,-0.39991 l 0,-3.2373 c -2e-6,-0.30891 -0.02328,-0.51627 -0.06982,-0.62207 -0.04232,-0.11002 -0.114259,-0.17138 -0.215821,-0.18408 l -0.558594,-0.0571 -0.02539,-0.31104 c 0.871743,-0.13118 1.481118,-0.26448 1.828125,-0.3999 0.03808,1e-5 0.05713,0.0127 0.05713,0.0381" id="path4689"></path><path d="m 85.0132,147.97217 -1.028321,0.27295 c -0.837892,0.22852 -1.256837,0.70459 -1.256835,1.42822 -2e-6,0.23275 0.08463,0.44645 0.253906,0.64111 0.169269,0.19043 0.404132,0.28565 0.70459,0.28565 0.296221,0 0.67708,-0.18832 1.142578,-0.56494 0.122717,-0.0846 0.184078,-0.19678 0.184082,-0.33643 l 0,-1.72656 m 0,2.40576 -0.02539,0 -0.260254,0.20312 c -0.287763,0.22429 -0.522626,0.37028 -0.70459,0.43799 -0.177737,0.0719 -0.414715,0.10791 -0.710937,0.10791 -0.490887,0 -0.882325,-0.11214 -1.174316,-0.33642 -0.291993,-0.22429 -0.437989,-0.57975 -0.437989,-1.06641 0,-0.43164 0.192545,-0.8125 0.577637,-1.14258 0.389321,-0.3343 0.903481,-0.58186 1.54248,-0.74267 l 1.117188,-0.27295 c 0.05078,-0.0169 0.07617,-0.0677 0.07617,-0.15235 -4e-6,-0.28352 -0.02328,-0.53108 -0.06982,-0.74267 -0.04655,-0.21582 -0.103682,-0.38509 -0.171387,-0.50781 -0.06771,-0.12272 -0.152347,-0.22005 -0.253906,-0.292 -0.09733,-0.0762 -0.190433,-0.12694 -0.279297,-0.15234 -0.08464,-0.0254 -0.177737,-0.0381 -0.279297,-0.0381 -0.279299,10e-6 -0.528974,0.0508 -0.749024,0.15235 -0.220053,0.10157 -0.330079,0.24756 -0.330078,0.43799 -1e-6,0.11849 0.0085,0.20313 0.02539,0.2539 0.02539,0.055 0.03808,0.13331 0.03809,0.23487 -2e-6,0.10156 -0.0529,0.19889 -0.158692,0.29199 -0.101563,0.0931 -0.239096,0.13965 -0.412597,0.13965 -0.300457,0 -0.450684,-0.15234 -0.450684,-0.45704 0,-0.22851 0.103678,-0.45491 0.311035,-0.67919 0.207356,-0.22428 0.478189,-0.40625 0.8125,-0.5459 0.334308,-0.14388 0.672849,-0.21582 1.015625,-0.21582 0.207354,0 0.395668,0.0169 0.564942,0.0508 0.173499,0.0339 0.347001,0.0994 0.520508,0.19678 0.173498,0.0931 0.317378,0.21794 0.43164,0.37451 0.118485,0.15658 0.2137,0.37028 0.285645,0.64111 0.07617,0.26661 0.114253,0.57764 0.114258,0.93311 l 0,1.93603 c -5e-6,0.12272 -5e-6,0.22217 0,0.29834 0.0042,0.0719 0.01057,0.15869 0.01904,0.26025 0.01269,0.0973 0.02962,0.17562 0.05078,0.23487 0.02115,0.055 0.04866,0.11214 0.08252,0.17138 0.03808,0.0592 0.08675,0.10157 0.145996,0.12696 0.06347,0.0254 0.135412,0.0381 0.215821,0.0381 0.09309,0 0.169265,-0.0169 0.228515,-0.0508 0.05924,-0.0339 0.103673,-0.0677 0.133301,-0.10156 0.02962,-0.0339 0.05289,-0.0508 0.06982,-0.0508 0.02538,0 0.05501,0.0212 0.08887,0.0635 0.03808,0.0423 0.05712,0.0846 0.05713,0.12695 -5e-6,0.0169 -0.01693,0.0465 -0.05078,0.0889 -0.03386,0.0423 -0.08464,0.091 -0.152344,0.14599 -0.06348,0.055 -0.137538,0.11003 -0.222168,0.16504 -0.08464,0.0508 -0.186203,0.0931 -0.304687,0.12695 -0.114263,0.0381 -0.230636,0.0571 -0.349121,0.0571 -0.512049,0 -0.837895,-0.24967 -0.977539,-0.74902" id="path4691"></path><path d="m 94.532052,150.07959 c 0.156573,0.19466 0.304685,0.34489 0.444336,0.45068 0.143878,0.1058 0.308917,0.1587 0.495117,0.15869 0.592445,1e-5 1.043128,-0.23909 1.352051,-0.71728 0.313146,-0.47819 0.469722,-1.10661 0.469727,-1.88525 -5e-6,-0.6263 -0.139654,-1.15316 -0.418946,-1.58057 -0.279301,-0.4274 -0.617842,-0.64111 -1.015625,-0.64111 -0.08887,0 -0.188317,0.008 -0.29834,0.0254 -0.110029,0.0127 -0.270836,0.0635 -0.482422,0.15234 -0.21159,0.0889 -0.393556,0.21159 -0.545898,0.36816 l 0,3.66895 m -0.971191,-6.39844 c -10e-7,-0.40201 -0.03174,-0.67073 -0.09521,-0.80615 -0.05925,-0.13964 -0.158692,-0.20946 -0.29834,-0.20947 l -0.412598,-0.0254 c -0.05501,1e-5 -0.08252,-0.0212 -0.08252,-0.0635 l -0.02539,-0.31104 c 0.266601,-0.0212 0.5861,-0.0677 0.958496,-0.13964 0.376626,-0.0719 0.643228,-0.13964 0.799805,-0.20313 0.110024,1e-5 0.165037,0.0444 0.165039,0.1333 -0.02539,0.34702 -0.03809,0.80193 -0.03809,1.36475 l 0,2.58984 c 0.440102,-0.47818 0.969073,-0.71728 1.586914,-0.71728 0.283525,0 0.560706,0.0614 0.831543,0.18408 0.270829,0.11849 0.514155,0.28565 0.729981,0.50146 0.215815,0.2116 0.389317,0.48243 0.520507,0.8125 0.131179,0.32585 0.196772,0.67921 0.196778,1.06006 -6e-6,0.49512 -0.08676,0.95427 -0.260254,1.37744 -0.169276,0.42318 -0.391444,0.77019 -0.666504,1.04102 -0.27507,0.27083 -0.579757,0.48242 -0.914063,0.63477 -0.334313,0.14811 -0.670739,0.22216 -1.009277,0.22216 -0.533206,0 -0.983889,-0.15869 -1.352051,-0.47607 -0.13965,0.20312 -0.281414,0.37239 -0.425293,0.50781 -0.11849,0 -0.209473,-0.0233 -0.272949,-0.0698 0.04232,-0.23698 0.06348,-0.57341 0.06348,-1.00928 l 0,-6.39844" id="path4693"></path><path d="m 101.56711,147.26758 2.38672,0 c 0.12272,0 0.18408,-0.0592 0.18408,-0.17774 0,-0.25813 -0.0339,-0.4803 -0.10156,-0.6665 -0.0635,-0.18619 -0.15235,-0.32584 -0.2666,-0.41895 -0.11003,-0.0973 -0.22429,-0.16503 -0.34278,-0.20312 -0.11426,-0.0423 -0.23698,-0.0635 -0.36816,-0.0635 -0.0846,10e-6 -0.16928,0.006 -0.25391,0.0191 -0.0804,0.008 -0.19043,0.0423 -0.33008,0.10156 -0.13965,0.055 -0.26448,0.1333 -0.37451,0.23486 -0.10579,0.10157 -0.21159,0.25391 -0.31738,0.45703 -0.10156,0.20313 -0.1735,0.44223 -0.21582,0.71729 m 3.42773,2.49463 c 0.13542,0.0127 0.22217,0.0825 0.26026,0.20947 -0.25815,0.35547 -0.57553,0.63688 -0.95215,0.84424 -0.37663,0.20735 -0.79135,0.31103 -1.24414,0.31103 -0.84636,0 -1.48747,-0.2539 -1.92334,-0.76172 -0.43164,-0.50781 -0.64746,-1.1595 -0.64746,-1.95507 0,-0.47396 0.0762,-0.91195 0.22851,-1.31397 0.15235,-0.40201 0.35124,-0.73209 0.59668,-0.99023 0.24544,-0.25814 0.51839,-0.45703 0.81885,-0.59668 0.30469,-0.14388 0.6136,-0.21582 0.92676,-0.21582 0.33007,0 0.62207,0.0444 0.87597,0.1333 0.25391,0.0889 0.45703,0.20524 0.60938,0.34912 0.15657,0.13965 0.28352,0.31104 0.38086,0.51416 0.0973,0.20313 0.16292,0.40625 0.19678,0.60937 0.0381,0.20313 0.0571,0.42107 0.0571,0.65381 -1e-5,0.14812 -0.0783,0.22217 -0.23487,0.22217 l -3.42138,0 c -1e-5,0.3724 0.0402,0.71517 0.1206,1.02832 0.0846,0.30892 0.19043,0.56494 0.31738,0.76807 0.13119,0.20312 0.2793,0.37663 0.44434,0.52051 0.16927,0.13964 0.33431,0.24121 0.49512,0.30468 0.1608,0.0635 0.31738,0.0952 0.46972,0.0952 0.35124,0 0.65169,-0.0571 0.90137,-0.17139 0.24967,-0.11849 0.49088,-0.30469 0.72363,-0.55859" id="path4695"></path><path d="m 108.69103,150.07959 c 0.15658,0.19466 0.30469,0.34489 0.44434,0.45068 0.14388,0.1058 0.30892,0.1587 0.49512,0.15869 0.59244,1e-5 1.04312,-0.23909 1.35205,-0.71728 0.31314,-0.47819 0.46972,-1.10661 0.46972,-1.88525 0,-0.6263 -0.13965,-1.15316 -0.41894,-1.58057 -0.2793,-0.4274 -0.61784,-0.64111 -1.01563,-0.64111 -0.0889,0 -0.18831,0.008 -0.29834,0.0254 -0.11003,0.0127 -0.27083,0.0635 -0.48242,0.15234 -0.21159,0.0889 -0.39356,0.21159 -0.5459,0.36816 l 0,3.66895 m -0.97119,-6.39844 c 0,-0.40201 -0.0317,-0.67073 -0.0952,-0.80615 -0.0592,-0.13964 -0.1587,-0.20946 -0.29834,-0.20947 l -0.4126,-0.0254 c -0.055,1e-5 -0.0825,-0.0212 -0.0825,-0.0635 l -0.0254,-0.31104 c 0.2666,-0.0212 0.5861,-0.0677 0.9585,-0.13964 0.37662,-0.0719 0.64322,-0.13964 0.7998,-0.20313 0.11002,1e-5 0.16504,0.0444 0.16504,0.1333 -0.0254,0.34702 -0.0381,0.80193 -0.0381,1.36475 l 0,2.58984 c 0.44011,-0.47818 0.96908,-0.71728 1.58692,-0.71728 0.28352,0 0.5607,0.0614 0.83154,0.18408 0.27083,0.11849 0.51416,0.28565 0.72998,0.50146 0.21582,0.2116 0.38932,0.48243 0.52051,0.8125 0.13118,0.32585 0.19677,0.67921 0.19678,1.06006 -1e-5,0.49512 -0.0868,0.95427 -0.26026,1.37744 -0.16927,0.42318 -0.39144,0.77019 -0.6665,1.04102 -0.27507,0.27083 -0.57976,0.48242 -0.91406,0.63477 -0.33432,0.14811 -0.67074,0.22216 -1.00928,0.22216 -0.53321,0 -0.98389,-0.15869 -1.35205,-0.47607 -0.13965,0.20312 -0.28142,0.37239 -0.4253,0.50781 -0.11849,0 -0.20947,-0.0233 -0.27294,-0.0698 0.0423,-0.23698 0.0635,-0.57341 0.0635,-1.00928 l 0,-6.39844" id="path4697"></path><path d="m 117.90968,147.97217 -1.02832,0.27295 c -0.83789,0.22852 -1.25683,0.70459 -1.25683,1.42822 0,0.23275 0.0846,0.44645 0.2539,0.64111 0.16927,0.19043 0.40414,0.28565 0.70459,0.28565 0.29623,0 0.67708,-0.18832 1.14258,-0.56494 0.12272,-0.0846 0.18408,-0.19678 0.18408,-0.33643 l 0,-1.72656 m 0,2.40576 -0.0254,0 -0.26025,0.20312 c -0.28776,0.22429 -0.52263,0.37028 -0.70459,0.43799 -0.17774,0.0719 -0.41472,0.10791 -0.71094,0.10791 -0.49088,0 -0.88232,-0.11214 -1.17431,-0.33642 -0.292,-0.22429 -0.43799,-0.57975 -0.43799,-1.06641 0,-0.43164 0.19254,-0.8125 0.57763,-1.14258 0.38933,-0.3343 0.90349,-0.58186 1.54248,-0.74267 l 1.11719,-0.27295 c 0.0508,-0.0169 0.0762,-0.0677 0.0762,-0.15235 0,-0.28352 -0.0233,-0.53108 -0.0698,-0.74267 -0.0465,-0.21582 -0.10368,-0.38509 -0.17139,-0.50781 -0.0677,-0.12272 -0.15234,-0.22005 -0.2539,-0.292 -0.0973,-0.0762 -0.19044,-0.12694 -0.2793,-0.15234 -0.0846,-0.0254 -0.17774,-0.0381 -0.2793,-0.0381 -0.2793,10e-6 -0.52897,0.0508 -0.74902,0.15235 -0.22005,0.10157 -0.33008,0.24756 -0.33008,0.43799 0,0.11849 0.008,0.20313 0.0254,0.2539 0.0254,0.055 0.0381,0.13331 0.0381,0.23487 0,0.10156 -0.0529,0.19889 -0.15869,0.29199 -0.10157,0.0931 -0.2391,0.13965 -0.4126,0.13965 -0.30046,0 -0.45069,-0.15234 -0.45068,-0.45704 -10e-6,-0.22851 0.10367,-0.45491 0.31103,-0.67919 0.20736,-0.22428 0.47819,-0.40625 0.8125,-0.5459 0.33431,-0.14388 0.67285,-0.21582 1.01563,-0.21582 0.20735,0 0.39566,0.0169 0.56494,0.0508 0.1735,0.0339 0.347,0.0994 0.5205,0.19678 0.1735,0.0931 0.31738,0.21794 0.43165,0.37451 0.11848,0.15658 0.2137,0.37028 0.28564,0.64111 0.0762,0.26661 0.11425,0.57764 0.11426,0.93311 l 0,1.93603 c -1e-5,0.12272 -1e-5,0.22217 0,0.29834 0.004,0.0719 0.0106,0.15869 0.019,0.26025 0.0127,0.0973 0.0296,0.17562 0.0508,0.23487 0.0212,0.055 0.0487,0.11214 0.0825,0.17138 0.0381,0.0592 0.0867,0.10157 0.146,0.12696 0.0635,0.0254 0.13541,0.0381 0.21582,0.0381 0.0931,0 0.16926,-0.0169 0.22851,-0.0508 0.0592,-0.0339 0.10368,-0.0677 0.1333,-0.10156 0.0296,-0.0339 0.0529,-0.0508 0.0698,-0.0508 0.0254,0 0.055,0.0212 0.0889,0.0635 0.0381,0.0423 0.0571,0.0846 0.0571,0.12695 0,0.0169 -0.0169,0.0465 -0.0508,0.0889 -0.0339,0.0423 -0.0846,0.091 -0.15234,0.14599 -0.0635,0.055 -0.13754,0.11003 -0.22217,0.16504 -0.0846,0.0508 -0.1862,0.0931 -0.30469,0.12695 -0.11426,0.0381 -0.23063,0.0571 -0.34912,0.0571 -0.51205,0 -0.83789,-0.24967 -0.97754,-0.74902" id="path4699"></path><path d="m 121.65031,149.17822 0.34912,-0.0127 c 0.0804,0.58398 0.23698,0.99235 0.46973,1.22509 0.0889,0.0931 0.21793,0.17986 0.3872,0.26026 0.16927,0.0762 0.36182,0.11426 0.57764,0.11426 0.26237,0 0.51627,-0.0889 0.76172,-0.2666 0.24544,-0.17774 0.36816,-0.4126 0.36816,-0.70459 0,-0.28776 -0.0973,-0.53321 -0.29199,-0.73633 -0.19466,-0.20736 -0.54379,-0.42318 -1.04736,-0.64746 -0.27084,-0.11849 -0.48031,-0.21794 -0.62842,-0.29834 -0.14811,-0.0846 -0.28988,-0.19043 -0.42529,-0.31739 -0.13119,-0.12695 -0.22217,-0.27294 -0.27295,-0.43798 -0.0508,-0.16504 -0.0762,-0.36816 -0.0762,-0.60938 0,-0.4274 0.17139,-0.77652 0.51416,-1.04736 0.34701,-0.27083 0.78076,-0.40625 1.30127,-0.40625 0.53744,0 1.01563,0.10791 1.43457,0.32373 0.0635,0.35547 0.11003,0.79769 0.13965,1.32666 l -0.34912,0.0127 c -0.0635,-0.24967 -0.15235,-0.46337 -0.2666,-0.64111 -0.11003,-0.18196 -0.22852,-0.31526 -0.35547,-0.3999 -0.12272,-0.0846 -0.23486,-0.14388 -0.33642,-0.17774 -0.0973,-0.0381 -0.1862,-0.0571 -0.26661,-0.0571 -0.68131,1e-5 -1.02197,0.292 -1.02197,0.87598 0,0.26237 0.0635,0.46973 0.19043,0.62207 0.13118,0.14812 0.37451,0.28565 0.72998,0.4126 0.29622,0.11003 0.5459,0.21794 0.74902,0.32373 0.20313,0.1058 0.39779,0.23275 0.58399,0.38086 0.19043,0.14811 0.33219,0.32162 0.42529,0.52051 0.0931,0.19889 0.13965,0.42318 0.13965,0.67285 0,0.24544 -0.0508,0.46761 -0.15234,0.6665 -0.0973,0.19466 -0.22006,0.35124 -0.36817,0.46973 -0.14388,0.11849 -0.30892,0.21793 -0.49511,0.29834 -0.18621,0.0762 -0.35971,0.12907 -0.52051,0.15869 -0.15658,0.0296 -0.30258,0.0444 -0.43799,0.0444 -0.42318,0 -0.81462,-0.0465 -1.17432,-0.13965 -0.0592,-0.0169 -0.13965,-0.0254 -0.24121,-0.0254 -0.0677,0 -0.16927,0.0127 -0.30469,0.0381 0,-0.46549 -0.0296,-1.07275 -0.0889,-1.82178" id="path4701"></path></g></svg>
