<?xml version="1.0" encoding="UTF-8" standalone="no"?>
<!-- Generator: Adobe Illustrator 18.0.0, SVG Export Plug-In . SVG Version: 6.00 Build 0)  -->

<svg version="1.1" id="svg3857" xmlns:inkscape="http://www.inkscape.org/namespaces/inkscape" xmlns:sodipodi="http://sodipodi.sourceforge.net/DTD/sodipodi-0.dtd" xmlns:cc="http://creativecommons.org/ns#" xmlns:rdf="http://www.w3.org/1999/02/22-rdf-syntax-ns#" xmlns:svg="http://www.w3.org/2000/svg" xmlns:dc="http://purl.org/dc/elements/1.1/" sodipodi:docname="Wikipedia-logo.svg" inkscape:version="0.47 r22583" xmlns="http://www.w3.org/2000/svg" xmlns:xlink="http://www.w3.org/1999/xlink" x="0px" y="0px" viewBox="0 0 135 155" enable-background="new 0 0 135 155" xml:space="preserve">
<defs>
	
	
		<inkscape:perspective inkscape:vp_x="0 : 77.5 : 1" inkscape:vp_z="135 : 77.5 : 1" id="perspective4854" sodipodi:type="inkscape:persp3d" inkscape:vp_y="0 : 1000 : 0" inkscape:persp3d-origin="67.5 : 51.666667 : 1">
		</inkscape:perspective>
	
		<inkscape:perspective inkscape:vp_x="0 : 0.5 : 1" inkscape:vp_z="1 : 0.5 : 1" id="perspective10537" sodipodi:type="inkscape:persp3d" inkscape:vp_y="0 : 1000 : 0" inkscape:persp3d-origin="0.5 : 0.33333333 : 1">
		</inkscape:perspective>
</defs>
<sodipodi:namedview guidetolerance="10" pagecolor="#ffffff" inkscape:cy="145.31128" objecttolerance="10" inkscape:zoom="5.6568543" showguides="true" showgrid="false" id="namedview4848" gridtolerance="10" borderopacity="1" bordercolor="#666666" inkscape:cx="92.577797" inkscape:window-maximized="0" inkscape:current-layer="svg3857" inkscape:window-width="1198" inkscape:window-x="32" inkscape:pageshadow="2" inkscape:window-y="24" inkscape:window-height="730" inkscape:pageopacity="0" inkscape:guide-bbox="true">
	<sodipodi:guide id="globe_top" position="0,140" orientation="0,1"></sodipodi:guide>
	<sodipodi:guide id="globe_left" position="16,0" orientation="1,0"></sodipodi:guide>
	<sodipodi:guide id="globe_right" position="119,0" orientation="1,0"></sodipodi:guide>
	<sodipodi:guide id="globe_bottom" position="0,47" orientation="0,1"></sodipodi:guide>
	<sodipodi:guide id="wordmark_top" position="8,40" orientation="0,1"></sodipodi:guide>
	<sodipodi:guide id="wordmark_bottom" position="8,22.5" orientation="0,1"></sodipodi:guide>
	<sodipodi:guide id="subtitle_top" position="0,17" orientation="0,1"></sodipodi:guide>
	<sodipodi:guide id="subtitle_bottom" position="0,8" orientation="0,1"></sodipodi:guide>
	<sodipodi:guide id="wordmark_left" position="8,40" orientation="1,0"></sodipodi:guide>
	<sodipodi:guide id="wordmark_right" position="127,40" orientation="1,0"></sodipodi:guide>
</sodipodi:namedview>

<g>
	<path d="M30.2,126.1c-1.9,0-3.1-0.5-3.8-1.5c-0.6-0.8-0.8-2.2-0.8-4.1c0-1,0-1.7,0-2.3c0-0.5,0-1.4,0.1-2.6c0-1.1,0-1.9-0.2-2.6
		c-0.1-0.3-0.2-0.9-0.4-1.7c0-0.2,0.1-0.6,0.4-1.1c0.3-0.6,0.5-0.9,0.7-0.9c0.2,0,0.4,0.6,0.4,1.8v1.1l0.3,6.5c0,0.9,0.1,2,0.3,3.1
		c0.2,0.7,0.6,1.3,1.1,1.7c0.5,0.3,1.1,0.5,1.9,0.5V126.1z"></path>
	<path d="M37.2,122.9c0,2.1-1.1,3.1-3.2,3.1h-4.7v-2.2h5.5c1.2,0,1.8-0.3,1.8-1c0-0.3-0.3-1-0.9-1.9c-0.6-1-0.9-1.6-0.9-1.7
		c0-0.4,0.2-1,0.7-1.8c0.4,0.8,0.8,1.7,1.1,2.7C37,121.4,37.2,122.3,37.2,122.9z M33.8,129.3l-1.8,1.9l-1.8-1.8l1.8-1.9L33.8,129.3z
		 M37.6,129.3l-1.9,1.9l-1.9-1.9l1.9-1.8L37.6,129.3z"></path>
	<path d="M52.9,126.1c-1.1,0-2-0.5-2.6-1.4c-0.3-0.5-0.8-1.6-1.5-3.3c-0.1,0.3-0.4,0.9-0.8,2c-0.2,0.5-0.3,0.8-0.5,0.9
		c-0.5,0.5-1.2,0.8-2.3,1.1c-0.9,0.2-1.8,0.3-2.6,0.3c-0.6,0-0.9,0-1.1-0.1c-0.3-0.2-0.5-0.5-0.5-1.1c0-0.3,0-0.8,0.1-1.4
		c0.1-0.8,0.3-1.1,0.5-1.1c0.1,0,0.3,0.1,0.4,0.3c0.2,0.2,0.3,0.4,0.5,0.5c0.3,0.2,0.8,0.2,1.3,0.2c1.7,0,2.9-0.5,3.9-1.4
		c0.4-0.4,0.6-0.8,0.6-1.3c0-0.6-0.1-1.5-0.3-2.7c-0.2-1.2-0.3-2.1-0.3-2.7c0-0.7,0.2-1,0.6-1c0.2,0,0.4,0.6,0.6,1.9
		c0.1,0.6,0.2,1.5,0.4,2.7c0.7,3.6,1.8,5.4,3.2,5.4c0.1,0,0.2,0,0.3,0V126.1z M48.8,108.9c0,0.9-0.7,1.6-2,2.3
		c-1.1,0.5-2.2,0.8-3.2,0.8c-0.4,0-0.6-0.1-0.6-0.4c0.3-0.5,0.6-1.1,0.8-1.6c0.3-0.6,0.4-1.2,0.4-1.7c0-0.4-0.1-1-0.3-1.7
		c-0.2-0.8-0.3-1.3-0.3-1.7c0-0.2,0-0.4,0.1-0.6c0.1-0.3,0.3-0.4,0.4-0.4c0.2,0,0.3,0.1,0.5,0.2s0.2,0.3,0.2,0.5
		c0,0.1-0.1,0.3-0.2,0.5s-0.2,0.4-0.2,0.5c0,0.4,0,0.9,0.1,1.5c0.1,0.7,0.1,1.2,0.2,1.5c0.7-0.8,1.5-1.2,2.2-1.2
		C48.3,107.3,48.8,107.8,48.8,108.9z M47.7,109.1c0-0.2-0.1-0.4-0.3-0.6s-0.4-0.3-0.6-0.3c-0.4,0-0.9,0.4-1.6,1.1
		c-0.6,0.7-1,1.3-1,1.6c0,0.2,0.1,0.2,0.4,0.2c0.7,0,1.3-0.2,1.9-0.6C47.3,110.2,47.7,109.6,47.7,109.1z"></path>
	<path d="M62,126.1h-1.2c-0.6,0-1.2-0.2-2-0.6c-0.8-0.4-1.5-1-2-1.6c-1.2,1.5-2.4,2.2-3.6,2.2h-1.4v-2.1c0.2,0,0.3,0,0.5,0
		c1.8,0,3.3-0.8,4.4-2.4c0.6,0.8,1.4,1.3,2.4,1.8s1.9,0.6,2.8,0.6V126.1z M56.6,130.6l-1.9,1.9l-1.8-1.8l1.9-1.9L56.6,130.6z
		 M60.5,130.7l-1.9,1.9l-1.9-1.9l1.9-1.9L60.5,130.7z"></path>
	<path d="M64.8,130.8l-1.9,1.9l-1.9-1.9l1.9-1.9L64.8,130.8z M69.2,126.1c-1,0-1.7-0.2-2.3-0.6c-0.3-0.2-0.9-0.8-1.6-1.6
		c-0.7,0.8-1.3,1.4-1.7,1.6c-0.6,0.4-1.4,0.6-2.4,0.6v-2.2c0.9,0,1.7-0.2,2.2-0.5c0.5-0.3,1.1-0.8,1.7-1.6c0.7,0.7,1.3,1.2,1.7,1.5
		c0.6,0.3,1.4,0.5,2.3,0.5V126.1z M67,134.6l-1.9,1.9l-1.8-1.8l1.9-1.8L67,134.6z M68.8,130.8l-1.9,1.9l-1.8-1.8l1.8-1.9L68.8,130.8
		z"></path>
	<path d="M78.2,126.1H77c-0.6,0-1.2-0.2-2-0.6c-0.8-0.4-1.5-1-2-1.6c-1.2,1.5-2.4,2.2-3.6,2.2h-1.4v-2.1c0.2,0,0.3,0,0.5,0
		c1.8,0,3.3-0.8,4.4-2.4c0.6,0.8,1.4,1.3,2.4,1.8s1.9,0.6,2.8,0.6V126.1z M72.9,130.6l-1.9,1.9l-1.8-1.8l1.9-1.9L72.9,130.6z
		 M76.7,130.7l-1.9,1.9l-1.9-1.9l1.9-1.9L76.7,130.7z"></path>
	<path d="M92.7,126.1c-1.1,0-2.3-0.4-3.7-1.2c-0.9-0.6-2.1-1.4-3.4-2.6l-2.8-2.4c0.1,0.5,0.2,1,0.2,1.5c0,1.4-0.4,2.5-1.2,3.4
		c-0.8,0.9-1.9,1.3-3.3,1.3h-1.1v-2.2h1.8c0.7,0,1.3-0.2,1.9-0.6c0.8-0.5,1.2-1.2,1.2-2.1c0-0.9-0.3-1.8-1-2.8
		c-0.2-0.2-0.8-1-1.9-2.2c-0.7-0.8-1.1-1.4-1.1-1.8c0-0.8,0.5-1.7,1.5-2.7c0.4-0.4,1-0.7,1.8-0.9l10.2-2.5l-0.2,1.6l-10.5,2.6
		c-1,0.2-1.4,0.5-1.4,0.9c0,0.3,0.5,0.9,1.5,1.9l4.9,4.9c2.5,2.5,4.7,3.8,6.6,3.8V126.1z"></path>
	<path d="M99.8,122.9c0,2.1-1.1,3.1-3.2,3.1h-4.7v-2.2h5.5c1.2,0,1.8-0.3,1.8-1c0-0.3-0.3-1-0.9-1.9c-0.6-1-0.9-1.6-0.9-1.7
		c0-0.4,0.2-1,0.7-1.8c0.4,0.8,0.8,1.7,1.1,2.7C99.6,121.4,99.8,122.3,99.8,122.9z M96.4,129.3l-1.8,1.9l-1.8-1.8l1.8-1.9
		L96.4,129.3z M100.2,129.3l-1.9,1.9l-1.9-1.9l1.9-1.8L100.2,129.3z"></path>
	<path d="M112.2,122c0,1.9-0.4,3.8-1.3,5.7c-1.1,2.3-2.5,3.4-4.3,3.4c-0.5,0-1.1-0.1-1.5-0.2c-0.3-0.1-1.1-0.5-2.3-1.1l0.6-0.5
		c0.4,0.2,1,0.3,1.7,0.4c1.3,0,2.5-0.6,3.7-1.7c0.6-0.5,1.1-1.2,1.5-2.1c0.5-0.9,0.7-1.7,0.7-2.4l-0.1-0.6l-0.1-0.2l-0.5,0.5
		c-0.2,0.2-0.5,0.3-0.8,0.3c-0.5,0-0.9-0.2-1.4-0.6c-0.4-0.4-0.5-0.9-0.5-1.4c0-0.6,0.3-1.6,0.9-2.8c0.4-0.8,0.9-1.2,1.5-1.2
		c0.7,0,1.3,0.6,1.7,1.8C112.1,120.2,112.2,121.1,112.2,122z M110.1,120.6c-0.1-0.1-0.1-0.2-0.2-0.2c-0.1-0.1-0.2-0.1-0.3-0.1
		c-0.2,0-0.3,0.1-0.3,0.3c0,0.3,0.1,0.4,0.3,0.4l0.3-0.1L110.1,120.6z"></path>
</g>
<g>
	<path d="M37.6,147.1c-0.7,0-1.2-0.2-1.5-0.6c-0.2-0.3-0.3-0.8-0.3-1.6c0-0.4,0-0.7,0-0.9c0-0.2,0-0.5,0-1c0-0.4,0-0.7-0.1-1
		c0-0.1-0.1-0.3-0.1-0.6c0-0.1,0-0.2,0.1-0.4c0.1-0.2,0.2-0.3,0.3-0.3c0.1,0,0.1,0.2,0.1,0.7v0.4l0.1,2.5c0,0.4,0.1,0.8,0.1,1.2
		c0.1,0.3,0.2,0.5,0.4,0.6c0.2,0.1,0.4,0.2,0.7,0.2V147.1z"></path>
	<path d="M40.2,145.9c0,0.8-0.4,1.2-1.2,1.2h-1.8v-0.8h2.1c0.5,0,0.7-0.1,0.7-0.4c0-0.1-0.1-0.4-0.3-0.7c-0.2-0.4-0.3-0.6-0.3-0.7
		c0-0.2,0.1-0.4,0.2-0.7c0.2,0.3,0.3,0.6,0.4,1C40.2,145.3,40.2,145.6,40.2,145.9z M39,148.3l-0.7,0.7l-0.7-0.7l0.7-0.7L39,148.3z
		 M40.4,148.3l-0.7,0.7l-0.7-0.7l0.7-0.7L40.4,148.3z"></path>
	<path d="M46.2,147.1c-0.4,0-0.7-0.2-1-0.5c-0.1-0.2-0.3-0.6-0.6-1.3c0,0.1-0.1,0.3-0.3,0.7c-0.1,0.2-0.1,0.3-0.2,0.4
		c-0.2,0.2-0.5,0.3-0.9,0.4c-0.4,0.1-0.7,0.1-1,0.1c-0.2,0-0.4,0-0.4,0c-0.1-0.1-0.2-0.2-0.2-0.4c0-0.1,0-0.3,0.1-0.5
		c0-0.3,0.1-0.4,0.2-0.4c0.1,0,0.1,0,0.2,0.1c0.1,0.1,0.1,0.1,0.2,0.2c0.1,0.1,0.3,0.1,0.5,0.1c0.6,0,1.1-0.2,1.5-0.5
		c0.1-0.1,0.2-0.3,0.2-0.5c0-0.2,0-0.6-0.1-1c-0.1-0.5-0.1-0.8-0.1-1c0-0.2,0.1-0.4,0.2-0.4c0.1,0,0.2,0.2,0.2,0.7
		c0,0.2,0.1,0.6,0.2,1c0.3,1.4,0.7,2,1.2,2c0,0,0.1,0,0.1,0V147.1z M44.7,140.6c0,0.3-0.2,0.6-0.7,0.9c-0.4,0.2-0.8,0.3-1.2,0.3
		c-0.1,0-0.2-0.1-0.2-0.2c0.1-0.2,0.2-0.4,0.3-0.6c0.1-0.2,0.2-0.4,0.2-0.7c0-0.1,0-0.4-0.1-0.6c-0.1-0.3-0.1-0.5-0.1-0.6
		c0-0.1,0-0.2,0.1-0.2c0-0.1,0.1-0.2,0.2-0.2c0.1,0,0.1,0,0.2,0.1s0.1,0.1,0.1,0.2c0,0,0,0.1-0.1,0.2s-0.1,0.1-0.1,0.2
		c0,0.1,0,0.3,0.1,0.6c0,0.3,0.1,0.5,0.1,0.6c0.3-0.3,0.6-0.5,0.8-0.5C44.5,140,44.7,140.2,44.7,140.6z M44.2,140.6
		c0-0.1,0-0.1-0.1-0.2s-0.1-0.1-0.2-0.1c-0.2,0-0.4,0.1-0.6,0.4c-0.2,0.3-0.4,0.5-0.4,0.6c0,0.1,0,0.1,0.1,0.1
		c0.2,0,0.5-0.1,0.7-0.2C44.1,141.1,44.2,140.9,44.2,140.6z"></path>
	<path d="M49.7,147.1h-0.5c-0.2,0-0.5-0.1-0.7-0.2c-0.3-0.2-0.6-0.4-0.8-0.6c-0.5,0.6-0.9,0.8-1.3,0.8h-0.5v-0.8c0.1,0,0.1,0,0.2,0
		c0.7,0,1.2-0.3,1.7-0.9c0.2,0.3,0.5,0.5,0.9,0.7s0.7,0.2,1.1,0.2V147.1z M47.6,148.8l-0.7,0.7l-0.7-0.7l0.7-0.7L47.6,148.8z
		 M49.1,148.8l-0.7,0.7l-0.7-0.7l0.7-0.7L49.1,148.8z"></path>
	<path d="M50.7,148.7l-0.7,0.7l-0.7-0.7L50,148L50.7,148.7z M51.8,145.9c0,0.8-0.4,1.2-1.2,1.2h-1.2v-0.8h1.5c0.5,0,0.7-0.1,0.7-0.4
		c0-0.1-0.1-0.4-0.3-0.7c-0.2-0.4-0.3-0.6-0.3-0.7c0-0.2,0.1-0.4,0.2-0.7c0.2,0.3,0.3,0.6,0.4,1C51.7,145.3,51.8,145.6,51.8,145.9z
		 M51.5,150.1l-0.7,0.7l-0.7-0.7l0.7-0.7L51.5,150.1z M52.2,148.7l-0.7,0.7l-0.7-0.7l0.7-0.7L52.2,148.7z"></path>
	<path d="M57.6,147.1h-1c-0.2,0.8-0.4,1.4-0.8,1.9c-0.5,0.6-1.1,0.9-1.8,0.9c-0.2,0-0.6-0.1-1-0.2c-0.5-0.1-0.8-0.3-0.8-0.4
		c0-0.1,0.1-0.1,0.2-0.1c0.1,0,0.3,0,0.5,0s0.4,0,0.5,0c0.7,0,1.4-0.2,1.9-0.6c0.6-0.4,1-1,1.2-1.6h-1.2c-0.3,0-0.5-0.2-0.5-0.6
		c0-0.3,0.1-0.7,0.3-1.2c0.3-0.5,0.5-0.8,0.8-0.8c0.2,0,0.4,0.2,0.6,0.7c0.2,0.4,0.3,0.8,0.3,1h1V147.1z M56.3,146.3
		c0-0.2-0.1-0.3-0.3-0.5c-0.1-0.2-0.3-0.3-0.4-0.3c-0.1,0-0.3,0.1-0.4,0.2c-0.1,0.1-0.1,0.3-0.1,0.4c0,0.1,0.1,0.2,0.3,0.2H56.3z"></path>
	<path d="M60.2,147.1c-0.7,0-1.3-0.3-1.7-0.9c-0.2,0.6-0.7,0.9-1.3,0.9v-0.8c0.4,0,0.7-0.1,0.8-0.2c0.1-0.1,0.2-0.4,0.2-0.8
		c0-0.4,0-1.1-0.1-1.9c0-0.8-0.1-1.5-0.1-1.9v-0.3c0-0.3,0.1-0.6,0.2-0.8c0,0.9,0.1,1.9,0.2,2.9c0.2,1.4,0.4,2.3,0.7,2.6
		c0.2,0.2,0.6,0.3,1,0.3V147.1z"></path>
	<path d="M65.7,147.1c-0.4,0-0.9-0.2-1.4-0.5c-0.4-0.2-0.8-0.5-1.3-1l-1.1-0.9c0.1,0.2,0.1,0.4,0.1,0.6c0,0.5-0.1,1-0.4,1.3
		c-0.3,0.3-0.7,0.5-1.3,0.5h-0.4v-0.8h0.7c0.2,0,0.5-0.1,0.7-0.2c0.3-0.2,0.5-0.5,0.5-0.8c0-0.3-0.1-0.7-0.4-1
		c-0.1-0.1-0.3-0.4-0.7-0.8c-0.3-0.3-0.4-0.5-0.4-0.7c0-0.3,0.2-0.6,0.6-1c0.2-0.2,0.4-0.3,0.7-0.3l3.9-0.9l-0.1,0.6l-4,1
		c-0.4,0.1-0.5,0.2-0.5,0.3c0,0.1,0.2,0.3,0.6,0.7l1.9,1.9c0.9,1,1.8,1.4,2.5,1.4V147.1z"></path>
	<path d="M67.6,146c0,0.7-0.4,1.1-1.2,1.1h-1v-0.8h1.1c0.5,0,0.8-0.1,0.8-0.3c0-0.1-0.1-0.4-0.3-0.8c-0.2-0.4-0.3-0.6-0.3-0.7
		c0.1-0.3,0.1-0.5,0.2-0.6c0.2,0.3,0.3,0.6,0.4,1C67.5,145.4,67.6,145.7,67.6,146z M67.8,142.1l-0.1,0.6c-0.4,0-0.7,0.1-0.9,0.2
		c-0.1,0-0.4,0.2-0.9,0.4c-0.1,0-0.1,0-0.1-0.1c0.1-0.1,0.2-0.3,0.4-0.4c-0.1-0.2-0.2-0.5-0.2-0.7c0-0.2,0.1-0.5,0.3-0.7
		s0.4-0.3,0.6-0.3c0.1,0,0.2,0,0.3,0.1c0.1,0.1,0.2,0.2,0.2,0.3c0,0.1-0.1,0.2-0.2,0.2c0,0-0.1,0-0.2-0.1c-0.1-0.1-0.2-0.1-0.2-0.1
		c-0.2,0-0.2,0.1-0.2,0.2c0,0.2,0.1,0.4,0.4,0.7C67.4,142.1,67.6,142.1,67.8,142.1z"></path>
	<path d="M71.3,147.1c-0.7,0-1.2-0.2-1.5-0.6c-0.2-0.3-0.3-0.8-0.3-1.6c0-0.4,0-0.7,0-0.9c0-0.2,0-0.5,0-1c0-0.4,0-0.7-0.1-1
		c0-0.1-0.1-0.3-0.1-0.6c0-0.1,0-0.2,0.1-0.4c0.1-0.2,0.2-0.3,0.3-0.3c0.1,0,0.1,0.2,0.1,0.7v0.4l0.1,2.5c0,0.4,0.1,0.8,0.1,1.2
		c0.1,0.3,0.2,0.5,0.4,0.6c0.2,0.1,0.4,0.2,0.7,0.2V147.1z"></path>
	<path d="M78.6,147.1c-0.4,0-0.7,0-0.9-0.1c-0.3-0.1-0.5-0.2-0.7-0.5c-0.4,0.4-0.9,0.6-1.4,0.6c-0.5,0-0.8-0.2-0.9-0.5
		c-0.5,0.4-1,0.5-1.3,0.5c-0.4,0-0.8-0.2-1.2-0.6c-0.2,0.2-0.4,0.4-0.6,0.5c-0.2,0.1-0.4,0.1-0.7,0.1v-0.8c0.4,0,0.7-0.1,0.9-0.2
		c0.1-0.1,0.3-0.3,0.6-0.6c0.2,0.2,0.4,0.4,0.6,0.5c0.3,0.2,0.5,0.3,0.8,0.3c0.3,0,0.6-0.1,0.8-0.3c0.2-0.1,0.3-0.4,0.5-0.7
		c0,0,0,0,0.1,0l0.1,0c-0.1,0.2-0.1,0.4-0.1,0.5c0,0.4,0.3,0.6,0.9,0.6c0.3,0,0.5-0.1,0.7-0.3c0.1-0.1,0.2-0.3,0.4-0.7l0.2,0
		c0,0.1,0,0.2,0,0.3c0,0,0,0.1,0,0.1c0,0.1,0,0.1,0,0.1c0,0.2,0.1,0.3,0.4,0.3c0,0,0.2,0,0.6,0V147.1z"></path>
	<path d="M80.1,145.9c0,0.8-0.4,1.2-1.3,1.2h-0.7v-0.8h1.3c0.3,0,0.5-0.1,0.5-0.3c0-0.1-0.1-0.3-0.3-0.7c-0.2-0.4-0.3-0.6-0.3-0.6
		c0-0.2,0.1-0.5,0.2-0.7c0.2,0.3,0.3,0.6,0.4,1C80.1,145.3,80.1,145.6,80.1,145.9z M80.2,142.2l-0.7,0.7l-0.7-0.7l0.7-0.7
		L80.2,142.2z"></path>
	<path d="M82.8,143.9c0,0.7,0,1.3,0,1.7c0,0.3-0.1,0.6-0.2,0.8c-0.1,0.2-0.2,0.4-0.4,0.7l0-0.1l0-0.3l0-0.4c0-0.1,0-0.7,0-1.7
		c0-0.6,0-1,0-1l-0.1-2.6l0.3-0.5l0.4-0.6l0.1,1.9C82.8,142.4,82.8,143,82.8,143.9z"></path>
	<path d="M89.6,145.6l0,0.4l-0.1,0.4c-0.6,0.4-1.3,0.6-1.9,0.6l-0.3,0l-0.4-0.1l0.1-1l0.3,0l0.3,0c0.3,0,0.5,0,0.9-0.1
		c0.4-0.1,0.7-0.2,0.8-0.3c0-0.3-0.2-0.6-0.6-0.9c-0.2-0.1-0.5-0.3-1-0.5l0.3-0.9c0.5,0.1,0.9,0.4,1.3,0.8
		C89.4,144.6,89.6,145.1,89.6,145.6z"></path>
	<path d="M92.1,143.9c0,0.7,0,1.3,0,1.7c0,0.3-0.1,0.6-0.2,0.8c-0.1,0.2-0.2,0.4-0.4,0.7l0-0.1l0-0.3l0-0.4c0-0.1,0-0.7,0-1.7
		c0-0.6,0-1,0-1l-0.1-2.6l0.3-0.5L92,140l0.1,1.9C92.1,142.4,92.1,143,92.1,143.9z"></path>
	<path d="M96.2,146c0,0.6-0.2,1.2-0.6,1.8c-0.4,0.6-0.9,0.9-1.5,0.9c-0.2,0-0.3,0-0.5-0.1s-0.4-0.1-0.8-0.3l0.2-0.2l0.4,0.1l0.2,0
		c0.5,0,1-0.3,1.7-0.9c0.3-0.4,0.5-0.6,0.5-0.9c0-0.1-0.1-0.3-0.2-0.6c-0.2-0.3-0.2-0.5-0.2-0.6c0-0.1,0-0.2,0.1-0.3l0.3-0.5
		C96.1,144.8,96.2,145.4,96.2,146z M96.1,142.2l-0.7,0.7l-0.7-0.7l0.7-0.7L96.1,142.2z"></path>
	<path d="M99.5,138.9c-0.4,0.2-0.9,0.3-1.3,0.3c-0.2,0-0.6,0-0.9-0.1c-0.2,0-0.3-0.1-0.4-0.1c-0.2,0-0.3,0.1-0.5,0.2
		c-0.1,0-0.1,0.1-0.2,0.1c-0.1,0-0.1,0-0.1-0.1c0-0.2,0.1-0.4,0.3-0.6c0.2-0.2,0.4-0.3,0.6-0.3c0.1,0,0.3,0,0.5,0.1
		c0.5,0.1,0.8,0.1,1.1,0.1c0.4,0,0.9-0.1,1.4-0.2c0.1,0,0.1-0.1,0.2-0.1c0.1,0,0.2,0,0.2,0.1c0,0.1-0.2,0.3-0.6,0.5L99.5,138.9z
		 M98.5,143.9c0,0.7,0,1.3,0,1.7c0,0.3-0.1,0.6-0.2,0.8c-0.1,0.2-0.2,0.4-0.4,0.7l0-0.1l0-0.3l0-0.4c0-0.1,0-0.7,0-1.7
		c0-0.6,0-1,0-1l-0.1-2.6l0.3-0.5l0.4-0.6l0.1,1.9C98.5,142.4,98.5,143,98.5,143.9z"></path>
</g>
</svg>

