<?xml version="1.0" encoding="UTF-8" standalone="no"?>
<!-- Generator: Adobe Illustrator 13.0.2, SVG Export Plug-In . SVG Version: 6.00 Build 14948)  -->
<svg xmlns:dc="http://purl.org/dc/elements/1.1/" xmlns:cc="http://creativecommons.org/ns#" xmlns:rdf="http://www.w3.org/1999/02/22-rdf-syntax-ns#" xmlns:svg="http://www.w3.org/2000/svg" xmlns="http://www.w3.org/2000/svg" xmlns:xlink="http://www.w3.org/1999/xlink" xmlns:sodipodi="http://sodipodi.sourceforge.net/DTD/sodipodi-0.dtd" xmlns:inkscape="http://www.inkscape.org/namespaces/inkscape" version="1.1" x="0px" y="0px" width="135px" height="155px" viewBox="0 0 135 155" enable-background="new 0 0 135 155" xml:space="preserve" id="svg3857" inkscape:version="0.46" sodipodi:docname="Wikipedia-logo-v2-pih.svg" sodipodi:version="0.32" inkscape:output_extension="org.inkscape.output.svg.inkscape"><metadata id="metadata4852"><rdf:rdf><cc:work rdf:about=""><dc:format>image/svg+xml</dc:format><dc:type rdf:resource="http://purl.org/dc/dcmitype/StillImage"></dc:type></cc:work></rdf:rdf></metadata><defs id="defs4850"><inkscape:perspective sodipodi:type="inkscape:persp3d" inkscape:vp_x="0 : 77.5 : 1" inkscape:vp_y="0 : 1000 : 0" inkscape:vp_z="135 : 77.5 : 1" inkscape:persp3d-origin="67.5 : 51.666667 : 1" id="perspective4854"></inkscape:perspective>
	
		<radialGradient gradientUnits="userSpaceOnUse" gradientTransform="matrix(1,0,0,-1,192.3999,143.0996)" r="68.686401" cy="87.823196" cx="-145.4702" id="SVGID_1_">
		<stop id="stop3922" style="stop-color:#FFFFFF" offset="0"></stop>
		<stop id="stop3924" style="stop-color:#EAEAEB" offset="0.4835"></stop>
		<stop id="stop3926" style="stop-color:#A9ABAE" offset="0.9451"></stop>
		<stop id="stop3928" style="stop-color:#999B9E" offset="1"></stop>
	</radialGradient>
	
	
	<linearGradient y2="97.232101" x2="112.7331" y1="24.481001" x1="66.232399" gradientUnits="userSpaceOnUse" id="SVGID_2_">
		<stop id="stop3935" style="stop-color:#8A8A8A" offset="0"></stop>
		<stop id="stop3937" style="stop-color:#606060" offset="0.5687"></stop>
		<stop id="stop3939" style="stop-color:#FFFFFF" offset="0.5914"></stop>
		<stop id="stop3941" style="stop-color:#585858" offset="0.6116"></stop>
		<stop id="stop3943" style="stop-color:#303030" offset="1"></stop>
	</linearGradient>
	
	
	<linearGradient y2="65.136703" x2="83.798798" y1="65.136703" x1="54.715801" gradientUnits="userSpaceOnUse" id="SVGID_5_">
		<stop id="stop3964" style="stop-color:#231F20" offset="0"></stop>
		<stop id="stop3966" style="stop-color:#474747" offset="1"></stop>
	</linearGradient>
	
	
	
	
	
	
	
	
	
		<linearGradient gradientTransform="matrix(1,0,0,-1,192.3999,143.0996)" y2="29.9035" x2="-94.069099" y1="119.8076" x1="-123.5898" gradientUnits="userSpaceOnUse" id="SVGID_6_">
		<stop id="stop3997" style="stop-color:#FFFFFF" offset="0"></stop>
		<stop id="stop3999" style="stop-color:#FCFCFC" offset="0.0094"></stop>
		<stop id="stop4001" style="stop-color:#EEEEEE" offset="0.0655"></stop>
		<stop id="stop4003" style="stop-color:#E5E5E5" offset="0.1342"></stop>
		<stop id="stop4005" style="stop-color:#E3E3E3" offset="0.2515"></stop>
		<stop id="stop4007" style="stop-color:#8A8A8A" offset="0.3357"></stop>
		<stop id="stop4009" style="stop-color:#B8B8B8" offset="0.4422"></stop>
		<stop id="stop4011" style="stop-color:#3B3B3B" offset="1"></stop>
	</linearGradient>
	
	<linearGradient y2="87.626701" x2="119.5471" y1="26.876499" x1="70.421898" gradientUnits="userSpaceOnUse" id="SVGID_7_">
		<stop id="stop4016" style="stop-color:#EFF0F0" offset="0"></stop>
		<stop id="stop4018" style="stop-color:#F0F1F2" offset="0.5914"></stop>
		<stop id="stop4020" style="stop-color:#787878" offset="0.599"></stop>
		<stop id="stop4022" style="stop-color:#EEEFF0" offset="0.6456"></stop>
		<stop id="stop4024" style="stop-color:#D8D9DB" offset="1"></stop>
	</linearGradient>
	
	
		<linearGradient gradientTransform="matrix(1,0,0,-1,192.3999,143.0996)" y2="31.998501" x2="-87.569702" y1="122.1328" x1="-117.166" gradientUnits="userSpaceOnUse" id="SVGID_8_">
		<stop id="stop4029" style="stop-color:#FFFFFF" offset="0"></stop>
		<stop id="stop4031" style="stop-color:#E4E5E6" offset="1"></stop>
	</linearGradient>
	
	<linearGradient y2="106.3903" x2="79.683601" y1="25.2764" x1="54.653301" gradientUnits="userSpaceOnUse" id="SVGID_9_">
		<stop id="stop4036" style="stop-color:#FFFFFF" offset="0"></stop>
		<stop id="stop4038" style="stop-color:#F9F9F9" offset="0.7473"></stop>
		<stop id="stop4040" style="stop-color:#D5D7D8" offset="1"></stop>
	</linearGradient>
	
	
	
	
	
		<linearGradient gradientTransform="matrix(1,0,0,-1,192.3999,143.0996)" y2="24.6462" x2="-134.85719" y1="119.6328" x1="-115.3369" gradientUnits="userSpaceOnUse" id="SVGID_10_">
		<stop id="stop4061" style="stop-color:#FFFFFF" offset="0"></stop>
		<stop id="stop4063" style="stop-color:#E4E5E6" offset="1"></stop>
	</linearGradient>
	
	<linearGradient y2="92.496101" x2="37.2481" y1="33.077099" x1="32.519001" gradientUnits="userSpaceOnUse" id="SVGID_11_">
		<stop id="stop4068" style="stop-color:#989A9C" offset="0.2198"></stop>
		<stop id="stop4070" style="stop-color:#FFFFFF" offset="0.2527"></stop>
	</linearGradient>
	
	
		<linearGradient gradientTransform="matrix(1,0,0,-1,192.3999,143.0996)" y2="32.797901" x2="-171.9462" y1="126.8398" x1="-152.6201" gradientUnits="userSpaceOnUse" id="SVGID_12_">
		<stop id="stop4075" style="stop-color:#FFFFFF" offset="0"></stop>
		<stop id="stop4077" style="stop-color:#E4E5E6" offset="1"></stop>
	</linearGradient>
	
	
		<linearGradient gradientTransform="matrix(1,0,0,-1,192.3999,143.0996)" y2="35.585701" x2="-130.14281" y1="35.625" x1="-130.1348" gradientUnits="userSpaceOnUse" id="SVGID_13_">
		<stop id="stop4082" style="stop-color:#FFFFFF" offset="0"></stop>
		<stop id="stop4084" style="stop-color:#E4E5E6" offset="1"></stop>
	</linearGradient>
	
	
	
	
		<linearGradient gradientTransform="matrix(1,0,0,-1,192.3999,143.0996)" y2="25.888" x2="-140.54491" y1="120.3223" x1="-121.1382" gradientUnits="userSpaceOnUse" id="SVGID_14_">
		<stop id="stop4093" style="stop-color:#FFFFFF" offset="0"></stop>
		<stop id="stop4095" style="stop-color:#E4E5E6" offset="1"></stop>
	</linearGradient>
	
	
		<linearGradient gradientTransform="matrix(1,0,0,-1,192.3999,143.0996)" y2="28.8524" x2="-155.006" y1="123.3525" x1="-135.58591" gradientUnits="userSpaceOnUse" id="SVGID_15_">
		<stop id="stop4100" style="stop-color:#FFFFFF" offset="0"></stop>
		<stop id="stop4102" style="stop-color:#E4E5E6" offset="1"></stop>
	</linearGradient>
	
	
		<linearGradient gradientTransform="matrix(1,0,0,-1,192.3999,143.0996)" y2="27.1346" x2="-146.8837" y1="121.9365" x1="-127.4014" gradientUnits="userSpaceOnUse" id="SVGID_16_">
		<stop id="stop4107" style="stop-color:#FFFFFF" offset="0"></stop>
		<stop id="stop4109" style="stop-color:#E4E5E6" offset="1"></stop>
	</linearGradient>
	
	
		<linearGradient gradientTransform="matrix(1,0,0,-1,192.3999,143.0996)" y2="24.9438" x2="-138.85201" y1="124.0039" x1="-118.4946" gradientUnits="userSpaceOnUse" id="SVGID_17_">
		<stop id="stop4114" style="stop-color:#FFFFFF" offset="0"></stop>
		<stop id="stop4116" style="stop-color:#E4E5E6" offset="1"></stop>
	</linearGradient>
	
	
		<linearGradient gradientTransform="matrix(1,0,0,-1,192.3999,143.0996)" y2="24.695299" x2="-134.7878" y1="119.1758" x1="-115.3716" gradientUnits="userSpaceOnUse" id="SVGID_18_">
		<stop id="stop4121" style="stop-color:#FFFFFF" offset="0"></stop>
		<stop id="stop4123" style="stop-color:#E4E5E6" offset="1"></stop>
	</linearGradient>
	
	
	
	
	
	
	
	
	
	
	
	
		<linearGradient gradientTransform="matrix(1,0,0,-1,192.3999,143.0996)" y2="83.6045" x2="-75.6362" y1="83.6045" x1="-175.4424" gradientUnits="userSpaceOnUse" id="SVGID_21_">
		<stop id="stop4198" style="stop-color:#555555" offset="0"></stop>
		<stop id="stop4200" style="stop-color:#231F20" offset="1"></stop>
	</linearGradient>
	
	
		<linearGradient gradientTransform="matrix(1,0,0,-1,192.3999,143.0996)" y2="104.0801" x2="-83.541" y1="104.0801" x1="-175.14211" gradientUnits="userSpaceOnUse" id="SVGID_22_">
		<stop id="stop4205" style="stop-color:#A0A0A0" offset="0"></stop>
		<stop id="stop4207" style="stop-color:#656767" offset="0.0769"></stop>
		<stop id="stop4209" style="stop-color:#717375" offset="1"></stop>
	</linearGradient>
	
	
	
	
	
	
	
		<linearGradient gradientTransform="matrix(1,0,0,-1,192.3999,143.0996)" y2="78.209" x2="-172.3853" y1="78.209" x1="-172.3853" gradientUnits="userSpaceOnUse" id="SVGID_23_">
		<stop id="stop4224" style="stop-color:#FFFFFF" offset="0"></stop>
		<stop id="stop4226" style="stop-color:#F4F4F4" offset="0.078"></stop>
		<stop id="stop4228" style="stop-color:#CECECE" offset="0.3807"></stop>
		<stop id="stop4230" style="stop-color:#BFBFBF" offset="0.5396"></stop>
		<stop id="stop4232" style="stop-color:#7C7C7C" offset="0.8357"></stop>
		<stop id="stop4234" style="stop-color:#A8A8A8" offset="0.8996"></stop>
		<stop id="stop4236" style="stop-color:#9A9A9A" offset="0.9093"></stop>
		<stop id="stop4238" style="stop-color:#7D7D7D" offset="0.9327"></stop>
		<stop id="stop4240" style="stop-color:#686868" offset="0.9558"></stop>
		<stop id="stop4242" style="stop-color:#5B5B5B" offset="0.9785"></stop>
		<stop id="stop4244" style="stop-color:#575757" offset="1"></stop>
	</linearGradient>
	
	
		<linearGradient gradientTransform="matrix(1,0,0,-1,192.3999,143.0996)" y2="90.476799" x2="-67.153198" y1="78.449203" x1="-175.7173" gradientUnits="userSpaceOnUse" id="SVGID_24_">
		<stop id="stop4249" style="stop-color:#FFFFFF" offset="0"></stop>
		<stop id="stop4251" style="stop-color:#F4F4F4" offset="0.078"></stop>
		<stop id="stop4253" style="stop-color:#CECECE" offset="0.3807"></stop>
		<stop id="stop4255" style="stop-color:#BFBFBF" offset="0.5396"></stop>
		<stop id="stop4257" style="stop-color:#7C7C7C" offset="0.8357"></stop>
		<stop id="stop4259" style="stop-color:#A8A8A8" offset="0.8996"></stop>
		<stop id="stop4261" style="stop-color:#9A9A9A" offset="0.9093"></stop>
		<stop id="stop4263" style="stop-color:#7D7D7D" offset="0.9327"></stop>
		<stop id="stop4265" style="stop-color:#686868" offset="0.9558"></stop>
		<stop id="stop4267" style="stop-color:#5B5B5B" offset="0.9785"></stop>
		<stop id="stop4269" style="stop-color:#575757" offset="1"></stop>
	</linearGradient>
	
	
		<linearGradient gradientTransform="matrix(1,0,0,-1,192.3999,143.0996)" y2="92.223099" x2="-52.131699" y1="78.4795" x1="-176.1851" gradientUnits="userSpaceOnUse" id="SVGID_25_">
		<stop id="stop4274" style="stop-color:#FFFFFF" offset="0"></stop>
		<stop id="stop4276" style="stop-color:#F4F4F4" offset="0.078"></stop>
		<stop id="stop4278" style="stop-color:#CECECE" offset="0.3807"></stop>
		<stop id="stop4280" style="stop-color:#BFBFBF" offset="0.5396"></stop>
		<stop id="stop4282" style="stop-color:#7C7C7C" offset="0.8357"></stop>
		<stop id="stop4284" style="stop-color:#A8A8A8" offset="0.8996"></stop>
		<stop id="stop4286" style="stop-color:#9A9A9A" offset="0.9093"></stop>
		<stop id="stop4288" style="stop-color:#7D7D7D" offset="0.9327"></stop>
		<stop id="stop4290" style="stop-color:#686868" offset="0.9558"></stop>
		<stop id="stop4292" style="stop-color:#5B5B5B" offset="0.9785"></stop>
		<stop id="stop4294" style="stop-color:#575757" offset="1"></stop>
	</linearGradient>
	
	<linearGradient y2="51.952599" x2="117.1948" y1="71.326698" x1="21.2129" gradientUnits="userSpaceOnUse" id="SVGID_26_">
		<stop id="stop4299" style="stop-color:#EDEDEE" offset="0"></stop>
		<stop id="stop4301" style="stop-color:#FFFFFF" offset="0.4176"></stop>
		<stop id="stop4303" style="stop-color:#F8F9F9" offset="0.6264"></stop>
		<stop id="stop4305" style="stop-color:#BFC0C2" offset="1"></stop>
	</linearGradient>
	
	
	
	
	<linearGradient y2="30.732401" x2="27.9561" y1="30.732401" x1="23.471201" gradientUnits="userSpaceOnUse" id="SVGID_27_">
		<stop id="stop4316" style="stop-color:#E2E3E4" offset="0"></stop>
		<stop id="stop4318" style="stop-color:#FFFFFF" offset="0.5055"></stop>
	</linearGradient>
	
	
	
	
	
	
	
	
	
	
	
	
	
	
	
	
	
	
	
	
	
	
	
	
	
	
	
	
	
	
	
	
	
	
	
	
	
	
	
	
	
	
	
	
	
	
	
	
	
	
	
	
	
	
	
	
	
	
	
	
	
	
	
	
	
	
	
	
	
	
	
	
	
	
	
	
	
	
	
	
	
	
	
	
	
	
	
	
	
	
	
	
	
	
	
	
	
	
	
	
	
	
	
	
	
	
	
	
	
	
	
	
	
	
	
	
	
	
	
	
	
	
	
	
	
	
	
	
	
	
	
	
	
	
	
	
	
	
	
	
	
	
	
	
	
	
	
	
	
	
	
	
	
	
	
	
	
	
	
	
	
	
	
	
	
	
	
	
	
	
	
	
	
	
	
	
	
	
	<linearGradient y2="29.204" x2="111.5455" y1="49.7188" x1="22.5742" gradientUnits="userSpaceOnUse" id="SVGID_34_">
		<stop id="stop4743" style="stop-color:#FFFFFF" offset="0"></stop>
		<stop id="stop4745" style="stop-color:#FFFFFF" offset="0.6538"></stop>
		<stop id="stop4747" style="stop-color:#CBCCCE" offset="1"></stop>
	</linearGradient>
	
	
	
	
	
	
	
	
		<linearGradient gradientTransform="matrix(1,0,0,-1,192.3999,143.0996)" y2="107.0898" x2="-126.4229" y1="107.0898" x1="-158.8101" gradientUnits="userSpaceOnUse" id="SVGID_35_">
		<stop id="stop4770" style="stop-color:#696969" offset="0"></stop>
		<stop id="stop4772" style="stop-color:#2E2E2E" offset="0.3702"></stop>
		<stop id="stop4774" style="stop-color:#424242" offset="0.4554"></stop>
		<stop id="stop4776" style="stop-color:#303030" offset="0.6014"></stop>
		<stop id="stop4778" style="stop-color:#4A4A4A" offset="0.6947"></stop>
		<stop id="stop4780" style="stop-color:#666666" offset="1"></stop>
	</linearGradient>
	
	
		<linearGradient gradientTransform="matrix(1,0,0,-1,192.3999,143.0996)" y2="107.8965" x2="-126.5454" y1="107.8965" x1="-158.4185" gradientUnits="userSpaceOnUse" id="SVGID_36_">
		<stop id="stop4785" style="stop-color:#525252" offset="0"></stop>
		<stop id="stop4787" style="stop-color:#333333" offset="0.1856"></stop>
		<stop id="stop4789" style="stop-color:#AEAEAE" offset="0.354"></stop>
		<stop id="stop4791" style="stop-color:#ADADAD" offset="0.4199"></stop>
		<stop id="stop4793" style="stop-color:#9D9D9D" offset="0.4276"></stop>
		<stop id="stop4795" style="stop-color:#818181" offset="0.4433"></stop>
		<stop id="stop4797" style="stop-color:#6A6A6A" offset="0.4611"></stop>
		<stop id="stop4799" style="stop-color:#585858" offset="0.4814"></stop>
		<stop id="stop4801" style="stop-color:#4C4C4C" offset="0.506"></stop>
		<stop id="stop4803" style="stop-color:#444444" offset="0.539"></stop>
		<stop id="stop4805" style="stop-color:#424242" offset="0.6166"></stop>
		<stop id="stop4807" style="stop-color:#454545" offset="0.6684"></stop>
		<stop id="stop4809" style="stop-color:#BDBDBD" offset="1"></stop>
	</linearGradient>
	
	
		<linearGradient gradientTransform="matrix(1,0,0,-1,192.3999,143.0996)" y2="104.4332" x2="-154.15421" y1="97.627899" x1="-153.1255" gradientUnits="userSpaceOnUse" id="SVGID_37_">
		<stop id="stop4814" style="stop-color:#969696" offset="0"></stop>
		<stop id="stop4816" style="stop-color:#000000" offset="1"></stop>
	</linearGradient>
	
	
	
	<linearGradient y2="38.790001" x2="39.487301" y1="46.373001" x1="38.737301" gradientUnits="userSpaceOnUse" id="SVGID_38_">
		<stop id="stop4825" style="stop-color:#333333" offset="0"></stop>
		<stop id="stop4827" style="stop-color:#000000" offset="0.431"></stop>
		<stop id="stop4829" style="stop-color:#2E2E2E" offset="1"></stop>
	</linearGradient>
	
	
	
	
	
		<radialGradient gradientUnits="userSpaceOnUse" gradientTransform="matrix(1,0,0,-1,192.3999,143.0996)" r="72.751701" cy="106.5996" cx="-138.2334" id="SVGID_39_">
		<stop id="stop4840" style="stop-color:#000000;stop-opacity:0;" offset="0"></stop>
		<stop id="stop4842" style="stop-color:#000000;stop-opacity:0.08;" offset="0.80220002"></stop>
		<stop id="stop4844" style="stop-color:#000000;stop-opacity:0.3882353;" offset="1"></stop>
	</radialGradient>
	
<radialGradient inkscape:collect="always" xlink:href="#SVGID_39_" id="radialGradient5007" gradientUnits="userSpaceOnUse" gradientTransform="matrix(1,0,0,-1,192.3999,143.0996)" cx="-138.2334" cy="106.5996" r="72.751701"></radialGradient><linearGradient inkscape:collect="always" xlink:href="#SVGID_38_" id="linearGradient5013" gradientUnits="userSpaceOnUse" x1="38.737301" y1="46.373001" x2="39.487301" y2="38.790001"></linearGradient><linearGradient inkscape:collect="always" xlink:href="#SVGID_37_" id="linearGradient5018" gradientUnits="userSpaceOnUse" gradientTransform="matrix(1,0,0,-1,192.3999,143.0996)" x1="-153.1255" y1="97.627899" x2="-154.15421" y2="104.4332"></linearGradient><linearGradient inkscape:collect="always" xlink:href="#SVGID_36_" id="linearGradient5021" gradientUnits="userSpaceOnUse" gradientTransform="matrix(1,0,0,-1,192.3999,143.0996)" x1="-158.4185" y1="107.8965" x2="-126.5454" y2="107.8965"></linearGradient><linearGradient inkscape:collect="always" xlink:href="#SVGID_35_" id="linearGradient5024" gradientUnits="userSpaceOnUse" gradientTransform="matrix(1,0,0,-1,192.3999,143.0996)" x1="-158.8101" y1="107.0898" x2="-126.4229" y2="107.0898"></linearGradient><linearGradient inkscape:collect="always" xlink:href="#SVGID_34_" id="linearGradient5036" gradientUnits="userSpaceOnUse" x1="22.5742" y1="49.7188" x2="111.5455" y2="29.204"></linearGradient><linearGradient inkscape:collect="always" xlink:href="#SVGID_27_" id="linearGradient5252" gradientUnits="userSpaceOnUse" x1="23.471201" y1="30.732401" x2="27.9561" y2="30.732401"></linearGradient><linearGradient inkscape:collect="always" xlink:href="#SVGID_26_" id="linearGradient5258" gradientUnits="userSpaceOnUse" x1="21.2129" y1="71.326698" x2="117.1948" y2="51.952599"></linearGradient><linearGradient inkscape:collect="always" xlink:href="#SVGID_25_" id="linearGradient5261" gradientUnits="userSpaceOnUse" gradientTransform="matrix(1,0,0,-1,192.3999,143.0996)" x1="-176.1851" y1="78.4795" x2="-52.131699" y2="92.223099"></linearGradient><linearGradient inkscape:collect="always" xlink:href="#SVGID_24_" id="linearGradient5264" gradientUnits="userSpaceOnUse" gradientTransform="matrix(1,0,0,-1,192.3999,143.0996)" x1="-175.7173" y1="78.449203" x2="-67.153198" y2="90.476799"></linearGradient><linearGradient inkscape:collect="always" xlink:href="#SVGID_23_" id="linearGradient5267" gradientUnits="userSpaceOnUse" gradientTransform="matrix(1,0,0,-1,192.3999,143.0996)" x1="-172.3853" y1="78.209" x2="-172.3853" y2="78.209"></linearGradient><linearGradient inkscape:collect="always" xlink:href="#SVGID_22_" id="linearGradient5275" gradientUnits="userSpaceOnUse" gradientTransform="matrix(1,0,0,-1,192.3999,143.0996)" x1="-175.14211" y1="104.0801" x2="-83.541" y2="104.0801"></linearGradient><linearGradient inkscape:collect="always" xlink:href="#SVGID_21_" id="linearGradient5278" gradientUnits="userSpaceOnUse" gradientTransform="matrix(1,0,0,-1,192.3999,143.0996)" x1="-175.4424" y1="83.6045" x2="-75.6362" y2="83.6045"></linearGradient><linearGradient inkscape:collect="always" xlink:href="#SVGID_18_" id="linearGradient5317" gradientUnits="userSpaceOnUse" gradientTransform="matrix(1,0,0,-1,192.3999,143.0996)" x1="-115.3716" y1="119.1758" x2="-134.7878" y2="24.695299"></linearGradient><linearGradient inkscape:collect="always" xlink:href="#SVGID_17_" id="linearGradient5320" gradientUnits="userSpaceOnUse" gradientTransform="matrix(1,0,0,-1,192.3999,143.0996)" x1="-118.4946" y1="124.0039" x2="-138.85201" y2="24.9438"></linearGradient><linearGradient inkscape:collect="always" xlink:href="#SVGID_16_" id="linearGradient5323" gradientUnits="userSpaceOnUse" gradientTransform="matrix(1,0,0,-1,192.3999,143.0996)" x1="-127.4014" y1="121.9365" x2="-146.8837" y2="27.1346"></linearGradient><linearGradient inkscape:collect="always" xlink:href="#SVGID_15_" id="linearGradient5326" gradientUnits="userSpaceOnUse" gradientTransform="matrix(1,0,0,-1,192.3999,143.0996)" x1="-135.58591" y1="123.3525" x2="-155.006" y2="28.8524"></linearGradient><linearGradient inkscape:collect="always" xlink:href="#SVGID_14_" id="linearGradient5329" gradientUnits="userSpaceOnUse" gradientTransform="matrix(1,0,0,-1,192.3999,143.0996)" x1="-121.1382" y1="120.3223" x2="-140.54491" y2="25.888"></linearGradient><linearGradient inkscape:collect="always" xlink:href="#SVGID_13_" id="linearGradient5334" gradientUnits="userSpaceOnUse" gradientTransform="matrix(1,0,0,-1,192.3999,143.0996)" x1="-130.1348" y1="35.625" x2="-130.14281" y2="35.585701"></linearGradient><linearGradient inkscape:collect="always" xlink:href="#SVGID_12_" id="linearGradient5337" gradientUnits="userSpaceOnUse" gradientTransform="matrix(1,0,0,-1,192.3999,143.0996)" x1="-152.6201" y1="126.8398" x2="-171.9462" y2="32.797901"></linearGradient><linearGradient inkscape:collect="always" xlink:href="#SVGID_11_" id="linearGradient5340" gradientUnits="userSpaceOnUse" x1="32.519001" y1="33.077099" x2="37.2481" y2="92.496101"></linearGradient><linearGradient inkscape:collect="always" xlink:href="#SVGID_10_" id="linearGradient5343" gradientUnits="userSpaceOnUse" gradientTransform="matrix(1,0,0,-1,192.3999,143.0996)" x1="-115.3369" y1="119.6328" x2="-134.85719" y2="24.6462"></linearGradient><linearGradient inkscape:collect="always" xlink:href="#SVGID_9_" id="linearGradient5354" gradientUnits="userSpaceOnUse" x1="54.653301" y1="25.2764" x2="79.683601" y2="106.3903"></linearGradient><linearGradient inkscape:collect="always" xlink:href="#SVGID_8_" id="linearGradient5357" gradientUnits="userSpaceOnUse" gradientTransform="matrix(1,0,0,-1,192.3999,143.0996)" x1="-117.166" y1="122.1328" x2="-87.569702" y2="31.998501"></linearGradient><linearGradient inkscape:collect="always" xlink:href="#SVGID_7_" id="linearGradient5360" gradientUnits="userSpaceOnUse" x1="70.421898" y1="26.876499" x2="119.5471" y2="87.626701"></linearGradient><linearGradient inkscape:collect="always" xlink:href="#SVGID_6_" id="linearGradient5363" gradientUnits="userSpaceOnUse" gradientTransform="matrix(1,0,0,-1,192.3999,143.0996)" x1="-123.5898" y1="119.8076" x2="-94.069099" y2="29.9035"></linearGradient><linearGradient inkscape:collect="always" xlink:href="#SVGID_5_" id="linearGradient5379" gradientUnits="userSpaceOnUse" x1="54.715801" y1="65.136703" x2="83.798798" y2="65.136703"></linearGradient><linearGradient inkscape:collect="always" xlink:href="#SVGID_2_" id="linearGradient5391" gradientUnits="userSpaceOnUse" x1="66.232399" y1="24.481001" x2="112.7331" y2="97.232101"></linearGradient><radialGradient inkscape:collect="always" xlink:href="#SVGID_1_" id="radialGradient5395" gradientUnits="userSpaceOnUse" gradientTransform="matrix(1,0,0,-1,192.3999,143.0996)" cx="-145.4702" cy="87.823196" r="68.686401"></radialGradient>
	
	
<inkscape:perspective id="perspective10537" inkscape:persp3d-origin="0.5 : 0.33333333 : 1" inkscape:vp_z="1 : 0.5 : 1" inkscape:vp_y="0 : 1000 : 0" inkscape:vp_x="0 : 0.5 : 1" sodipodi:type="inkscape:persp3d"></inkscape:perspective>
		
		
		
		
		
		
		
		
		
		
		
	</defs><sodipodi:namedview pagecolor="#ffffff" bordercolor="#666666" borderopacity="1" objecttolerance="10" gridtolerance="10" guidetolerance="10" inkscape:pageopacity="0" inkscape:pageshadow="2" inkscape:window-width="1009" inkscape:window-height="730" id="namedview4848" showgrid="false" inkscape:zoom="2" inkscape:cx="75.005991" inkscape:cy="18.032061" inkscape:window-x="221" inkscape:window-y="24" inkscape:window-maximized="0" inkscape:current-layer="svg3857" showguides="true" inkscape:guide-bbox="true"><sodipodi:guide orientation="0,1" position="0,140" id="globe_top"></sodipodi:guide><sodipodi:guide orientation="1,0" position="16,0" id="globe_left"></sodipodi:guide><sodipodi:guide orientation="1,0" position="119,0" id="globe_right"></sodipodi:guide><sodipodi:guide id="globe_bottom" position="0,47" orientation="0,1"></sodipodi:guide><sodipodi:guide orientation="0,1" position="8,40" id="wordmark_top"></sodipodi:guide><sodipodi:guide orientation="0,1" position="8,22.5" id="wordmark_bottom"></sodipodi:guide><sodipodi:guide orientation="0,1" position="0,17" id="subtitle_top"></sodipodi:guide><sodipodi:guide orientation="0,1" position="0,8" id="subtitle_bottom"></sodipodi:guide><sodipodi:guide orientation="1,0" position="8,40" id="wordmark_left"></sodipodi:guide><sodipodi:guide orientation="1,0" position="127,40" id="wordmark_right"></sodipodi:guide></sodipodi:namedview><path d="M 18.757,118.893 C 18.757,118.893 18.39,118.147 18.265,117.899 C 17.431,116.246 17.449,116.158 16.606,116.047 C 16.37,116.016 16.248,115.986 16.248,115.869 L 16.248,115.346 L 16.319,115.295 C 17.842,115.293 21.231,115.293 21.231,115.293 L 21.361,115.336 L 21.361,115.857 C 21.361,115.976 21.276,116.037 21.103,116.037 L 20.747,116.088 C 19.847,116.158 19.994,116.526 20.592,117.717 L 26.269,129.332 L 26.463,129.385 L 31.503,117.424 C 31.678,116.942 31.651,116.6 31.426,116.399 C 31.2,116.203 31.041,116.087 30.457,116.063 L 29.984,116.039 C 29.926,116.039 29.871,116.018 29.818,115.979 C 29.766,115.942 29.739,115.893 29.739,115.834 L 29.739,115.336 L 29.811,115.285 C 31.231,115.285 35.505,115.285 35.505,115.285 L 35.563,115.336 L 35.563,115.834 C 35.563,115.969 35.486,116.037 35.334,116.037 C 34.588,116.07 34.035,116.232 33.677,116.521 C 33.318,116.812 33.038,117.213 32.837,117.734 C 32.837,117.734 28.202,128.343 26.616,131.869 C 26.009,133.025 25.412,132.919 24.887,131.836 C 23.778,129.552 20.655,122.623 20.655,122.623 L 18.757,118.893 L 18.757,118.893 z" id="path3898"></path><path d="M 27.853,115.287 C 27.853,115.287 24.65,115.277 23.224,115.287 L 23.153,115.338 L 23.153,115.834 C 23.153,115.895 23.179,115.943 23.231,115.98 C 23.284,116.019 23.338,116.039 23.396,116.039 L 23.625,116.064 C 24.208,116.088 24.476,116.241 24.556,116.337 C 24.695,116.507 24.764,116.691 24.427,117.426 L 18.447,129.353 L 18.29,129.312 C 18.29,129.312 14.007,120.281 12.767,117.26 C 12.638,116.947 12.58,116.715 12.58,116.572 C 12.58,116.265 12.857,116.099 13.411,116.076 L 14.057,116.049 C 14.228,116.049 14.315,115.983 14.315,115.846 L 14.315,115.35 L 14.257,115.299 C 14.257,115.299 9.127,115.293 8.067,115.299 L 8.009,115.35 L 8.009,115.871 C 8.009,115.965 8.128,116.023 8.367,116.049 C 9.018,116.084 9.446,116.188 9.652,116.361 C 9.857,116.536 10.074,116.978 10.362,117.667 C 11.919,121.407 15.227,128.081 16.838,131.882 C 17.302,132.92 17.885,133.081 18.593,131.85 C 19.819,129.576 23.143,122.632 23.143,122.632 L 25.761,117.736 C 26.066,117.219 26.36,116.758 26.509,116.543 C 26.782,116.15 26.935,116.076 27.681,116.041 C 27.833,116.041 27.91,115.973 27.91,115.836 L 27.91,115.34 L 27.853,115.287 L 27.853,115.287 z" id="path3900"></path><path d="M 21.535,126.689 C 21.515,126.755 21.723,126.982 21.788,127.002 L 21.943,126.904 C 22.007,126.924 22.146,126.863 22.166,126.799 L 22.193,126.535 L 21.914,125.231 C 21.863,125.164 21.824,125.213 21.807,125.274 L 21.535,126.689 L 21.535,126.689 z" id="path3902" style="fill:#ffffff"></path><path d="M 113.922,131.758 L 114.676,131.811 C 114.78,131.811 114.884,131.889 114.884,132.018 L 114.884,132.512 L 114.832,132.565 C 114.832,132.565 111.998,132.512 111.374,132.512 C 110.697,132.512 109.033,132.565 109.033,132.565 L 108.98,132.512 L 108.98,132.018 C 108.98,131.889 109.058,131.811 109.189,131.811 C 110.334,131.733 110.982,131.524 111.71,129.86 L 117.481,116.339 C 117.766,115.663 117.975,115.402 118.366,115.402 C 118.729,115.402 118.86,115.663 119.067,116.183 L 124.397,130.275 C 124.762,131.29 125.282,131.679 126.322,131.783 L 126.608,131.808 C 126.738,131.808 126.868,131.886 126.868,132.017 L 126.868,132.51 L 126.79,132.562 C 126.79,132.562 124.788,132.51 123.774,132.51 C 122.864,132.51 120.315,132.562 120.315,132.562 L 120.29,132.51 L 120.29,132.017 C 120.29,131.886 120.342,131.808 120.474,131.808 L 121.202,131.756 C 122.189,131.679 122.555,131.365 122.294,130.638 L 120.708,126.243 L 115.3,126.243 C 114.676,126.243 114.52,126.347 114.391,126.684 L 112.882,130.455 C 112.622,131.107 112.96,131.68 113.922,131.758 L 113.922,131.758 z M 120.292,125.152 L 117.77,118.211 L 117.718,118.211 L 115.118,124.815 C 115.014,125.076 115.195,125.153 115.767,125.153 L 120.292,125.153 L 120.292,125.152 z" id="path3918"></path><path transform="matrix(1.1834904,0,0,1.3043016,123.87367,-87.867592)" style="font-size:10px;font-style:normal;font-variant:normal;font-weight:normal;font-stretch:normal;text-align:justify;line-height:100%;writing-mode:lr-tb;text-anchor:start;fill:#000000;fill-opacity:1;stroke:none;stroke-width:1px;stroke-linecap:butt;stroke-linejoin:miter;stroke-opacity:1;font-family:Linux Libertine O;-inkscape-font-specification:Linux Libertine O" d="M -87.718795,178.93498 L -87.718795,174.71504 C -87.717965,174.54046 -87.669633,174.39463 -87.573797,174.27754 C -87.477969,174.16047 -87.339637,174.09963 -87.158802,174.09504 L -86.53881,174.09504 C -86.275902,174.08568 -86.096738,174.14442 -86.001317,174.27129 C -85.905907,174.39817 -85.821741,174.64942 -85.74882,175.02503 C -85.692347,175.02514 -85.635806,175.02343 -85.579198,175.01991 C -85.5226,175.01639 -85.465809,175.00143 -85.408825,174.97503 C -85.449247,174.71837 -85.480913,174.45921 -85.503824,174.19754 C -85.526746,173.93589 -85.538412,173.68172 -85.538823,173.43505 C -85.638827,173.43389 -85.738826,173.44723 -85.838819,173.47505 C -85.834867,173.51089 -85.845283,173.55672 -85.870069,173.61255 C -85.894866,173.66839 -85.957781,173.69922 -86.058816,173.70505 L -90.40876,173.70505 C -90.509385,173.69922 -90.570634,173.66839 -90.592508,173.61255 C -90.614384,173.55672 -90.623133,173.51089 -90.618758,173.47505 C -90.65605,173.46014 -90.697966,173.44798 -90.744506,173.43855 C -90.791048,173.42914 -90.852463,173.42798 -90.928754,173.43505 C -90.94792,173.68047 -90.974587,173.93214 -91.008753,174.19004 C -91.042919,174.44796 -91.089585,174.70962 -91.148751,174.97503 C -91.048419,175.0132 -90.935087,175.02987 -90.808755,175.02503 C -90.718965,174.63629 -90.61605,174.3813 -90.500009,174.26004 C -90.38397,174.1388 -90.193556,174.0838 -89.928767,174.09504 L -89.138777,174.09504 C -88.953157,174.10026 -88.811909,174.15984 -88.715032,174.27379 C -88.618161,174.38775 -88.569412,174.52484 -88.568784,174.68504 L -88.568784,178.93498 C -88.559204,179.33414 -88.620869,179.58581 -88.753782,179.68997 C -88.886699,179.79414 -89.148362,179.8458 -89.538772,179.84497 C -89.568773,179.88122 -89.583773,179.93622 -89.583771,180.00997 C -89.583773,180.08372 -89.568773,180.13872 -89.538772,180.17497 C -89.300443,180.16976 -89.074613,180.16517 -88.86128,180.16122 C -88.647952,180.15726 -88.407122,180.15517 -88.13879,180.15497 C -87.87588,180.15517 -87.639216,180.15726 -87.428799,180.16122 C -87.218389,180.16517 -86.991725,180.16976 -86.748808,180.17497 C -86.718813,180.13872 -86.703813,180.08372 -86.703808,180.00997 C -86.703813,179.93622 -86.718812,179.88122 -86.748808,179.84497 C -87.139223,179.8458 -87.400886,179.79414 -87.533798,179.68997 C -87.666716,179.58581 -87.728382,179.33414 -87.718795,178.93498 L -87.718795,178.93498 z M -84.549854,173.63505 C -84.699436,173.63922 -84.810268,173.67589 -84.88235,173.74505 C -84.954433,173.81422 -84.990265,173.89089 -84.989848,173.97505 C -84.996307,174.06088 -84.97089,174.14422 -84.913599,174.22504 C -84.856309,174.30588 -84.728394,174.34921 -84.529854,174.35504 C -84.489022,174.35567 -84.455689,174.37442 -84.429855,174.41129 C -84.404024,174.44817 -84.39069,174.49942 -84.389856,174.56504 C -84.389857,174.68879 -84.442356,174.82129 -84.547354,174.96253 C -84.652353,175.10379 -84.809851,175.20128 -85.019848,175.25503 L -84.969849,175.42503 C -84.621104,175.36837 -84.363607,175.2267 -84.197359,175.00003 C -84.031112,174.77337 -83.948613,174.56171 -83.949862,174.36504 C -83.951113,174.17713 -84.003612,174.01047 -84.10736,173.86505 C -84.211109,173.71964 -84.358607,173.64297 -84.549854,173.63505 L -84.549854,173.63505 z M -76.832054,178.93498 L -76.832054,176.25502 L -75.902066,176.25502 C -75.853111,176.25523 -75.803528,176.24481 -75.753318,176.22377 C -75.703113,176.20273 -75.67603,176.16981 -75.672069,176.12502 L -75.672069,175.92502 C -75.673738,175.88502 -75.700404,175.86503 -75.752068,175.86502 L -76.832054,175.86502 L -76.832054,175.29503 C -76.819764,174.54713 -76.729349,174.05797 -76.560807,173.82755 C -76.39227,173.59714 -76.219356,173.49297 -76.042064,173.51505 C -75.894569,173.51277 -75.77457,173.54735 -75.682069,173.6188 C -75.589573,173.69026 -75.509574,173.81235 -75.442072,173.98505 C -75.403534,174.07713 -75.353118,174.15297 -75.290824,174.21254 C -75.228536,174.27213 -75.14562,174.30296 -75.042077,174.30504 C -74.950623,174.30046 -74.861041,174.25713 -74.77333,174.17504 C -74.685627,174.09297 -74.638544,173.99963 -74.632082,173.89505 C -74.632294,173.80943 -74.659378,173.72318 -74.713331,173.6363 C -74.767293,173.54943 -74.846875,173.46568 -74.952078,173.38505 C -75.07958,173.29756 -75.214578,173.24006 -75.357073,173.21255 C -75.499574,173.18506 -75.664572,173.17256 -75.852066,173.17506 C -76.293313,173.17298 -76.693307,173.35964 -77.052051,173.73505 C -77.410798,174.11047 -77.600795,174.68712 -77.622044,175.46503 L -77.622044,175.86502 L -78.132037,175.86502 C -78.22037,175.86836 -78.281202,175.89169 -78.314535,175.93502 C -78.347868,175.97836 -78.363701,176.02169 -78.362034,176.06502 L -78.362034,176.19502 C -78.362451,176.2194 -78.359118,176.23565 -78.352034,176.24377 C -78.344951,176.25189 -78.331618,176.25564 -78.312035,176.25502 L -77.622044,176.25502 L -77.622044,178.93498 C -77.615378,179.33352 -77.656211,179.58393 -77.744542,179.68622 C -77.832875,179.78851 -78.008706,179.84143 -78.272035,179.84497 C -78.302035,179.88122 -78.317035,179.93622 -78.317035,180.00997 C -78.317035,180.08372 -78.302035,180.13872 -78.272035,180.17497 C -78.070163,180.16976 -77.893916,180.16517 -77.743292,180.16122 C -77.59267,180.15726 -77.418922,180.15517 -77.222049,180.15497 C -76.998512,180.15517 -76.798098,180.15726 -76.620807,180.16122 C -76.443519,180.16517 -76.250605,180.16976 -76.042064,180.17497 C -76.012067,180.13872 -75.997067,180.08372 -75.997065,180.00997 C -75.997067,179.93622 -76.012067,179.88122 -76.042064,179.84497 C -76.372479,179.84143 -76.589142,179.78851 -76.692056,179.68622 C -76.794973,179.58393 -76.841639,179.33352 -76.832054,178.93498 L -76.832054,178.93498 z M -74.476575,176.98501 L -74.476575,178.93498 C -74.46866,179.33352 -74.514492,179.58393 -74.614074,179.68622 C -74.713657,179.78851 -74.914487,179.84143 -75.216566,179.84497 C -75.246566,179.88122 -75.261566,179.93622 -75.261565,180.00997 C -75.261566,180.08372 -75.246566,180.13872 -75.216566,180.17497 C -75.010319,180.16976 -74.817822,180.16517 -74.639073,180.16122 C -74.460327,180.15726 -74.272829,180.15517 -74.076581,180.15497 C -73.873668,180.15517 -73.674504,180.15726 -73.479088,180.16122 C -73.283676,180.16517 -73.079512,180.16976 -72.866596,180.17497 C -72.836599,180.13872 -72.8216,180.08372 -72.821597,180.00997 C -72.821599,179.93622 -72.836599,179.88122 -72.866596,179.84497 C -73.207011,179.83705 -73.431174,179.78289 -73.539088,179.68247 C -73.647005,179.58206 -73.696171,179.33289 -73.686586,178.93498 L -73.686586,177.545 C -73.684087,177.41459 -73.659088,177.29292 -73.611587,177.18 C -73.564089,177.06709 -73.50909,176.96543 -73.446589,176.87501 C -73.3868,176.7846 -73.311384,176.68293 -73.220341,176.57001 C -73.129303,176.4571 -73.051388,176.39543 -72.986595,176.38501 C -72.950973,176.38418 -72.914723,176.38835 -72.877846,176.39751 C -72.840974,176.40668 -72.807224,176.42585 -72.776597,176.45501 C -72.728892,176.51085 -72.67431,176.57168 -72.612849,176.63751 C -72.551395,176.70335 -72.469312,176.73918 -72.366603,176.74501 C -72.242024,176.7398 -72.133692,176.68772 -72.041607,176.58876 C -71.949528,176.48981 -71.901196,176.37523 -71.896609,176.24502 C -71.895362,176.14146 -71.942862,176.03759 -72.039107,175.93339 C -72.135359,175.82921 -72.287857,175.77309 -72.496601,175.76502 C -72.734101,175.77523 -72.949098,175.86482 -73.141593,176.03377 C -73.334092,176.20273 -73.48909,176.38981 -73.606587,176.59501 C -73.636588,176.64668 -73.659088,176.66835 -73.674086,176.66001 C -73.689088,176.65168 -73.696587,176.63335 -73.696585,176.60501 C -73.694504,176.43168 -73.686171,176.25835 -73.671586,176.08502 C -73.657005,175.91169 -73.648671,175.81836 -73.646586,175.80502 C -73.647005,175.78461 -73.658671,175.76794 -73.681586,175.75502 C -73.704504,175.74211 -73.73617,175.73544 -73.776584,175.73502 C -73.913043,175.78961 -74.090124,175.84044 -74.307828,175.88752 C -74.525534,175.93461 -74.805114,175.98044 -75.146567,176.02502 C -75.156984,176.05919 -75.16115,176.10586 -75.159067,176.16502 C -75.156984,176.22419 -75.146151,176.27085 -75.126567,176.30502 C -74.863238,176.32085 -74.687407,176.37168 -74.599074,176.45751 C -74.510743,176.54335 -74.46991,176.71918 -74.476575,176.98501 L -74.476575,176.98501 z M -70.865637,174.16504 C -70.860637,174.30046 -70.810638,174.41963 -70.715639,174.52254 C -70.620641,174.62546 -70.510643,174.67962 -70.385643,174.68504 C -70.24148,174.67823 -70.119815,174.6246 -70.020648,174.52416 C -69.921484,174.42373 -69.869818,174.31736 -69.865649,174.20504 C -69.868776,174.07838 -69.915026,173.96172 -70.004398,173.85505 C -70.093773,173.74839 -70.207522,173.69172 -70.345643,173.68505 C -70.47231,173.69006 -70.588975,173.74005 -70.695639,173.83505 C -70.802305,173.93005 -70.858971,174.04005 -70.865637,174.16504 L -70.865637,174.16504 z M -69.955648,178.93498 L -69.955648,176.94201 C -69.953983,176.6772 -69.947317,176.42558 -69.935649,176.18714 C -69.923984,175.94871 -69.917317,175.82134 -69.915649,175.80502 C -69.916067,175.78461 -69.927734,175.76794 -69.950649,175.75502 C -69.973567,175.74211 -70.005233,175.73544 -70.045647,175.73502 C -70.184293,175.78961 -70.361999,175.84044 -70.578765,175.88752 C -70.795534,175.93461 -71.074489,175.98044 -71.41563,176.02502 C -71.424796,176.05919 -71.426463,176.10586 -71.42063,176.16502 C -71.414797,176.22419 -71.406463,176.27085 -71.39563,176.30502 C -71.130113,176.32004 -70.953657,176.3685 -70.866262,176.45039 C -70.778868,176.53229 -70.73866,176.71049 -70.745638,176.98501 L -70.745638,178.93498 C -70.737514,179.33289 -70.781264,179.58206 -70.876887,179.68247 C -70.972511,179.78289 -71.168759,179.83705 -71.465629,179.84497 C -71.495629,179.88122 -71.510629,179.93622 -71.510628,180.00997 C -71.510629,180.08372 -71.495629,180.13872 -71.465629,180.17497 C -71.262715,180.16976 -71.078551,180.16517 -70.913136,180.16122 C -70.747723,180.15726 -70.558558,180.15517 -70.345643,180.15497 C -70.138148,180.15517 -69.95315,180.15726 -69.790651,180.16122 C -69.628155,180.16517 -69.443157,180.16976 -69.235658,180.17497 C -69.205661,180.13872 -69.190661,180.08372 -69.190658,180.00997 C -69.190661,179.93622 -69.205661,179.88122 -69.235658,179.84497 C -69.532531,179.84143 -69.728778,179.78851 -69.8244,179.68622 C -69.920026,179.58393 -69.963775,179.33352 -69.955648,178.93498 L -69.955648,178.93498 z M -68.150793,174.16504 C -68.145794,174.30046 -68.095794,174.41963 -68.000795,174.52254 C -67.905797,174.62546 -67.795799,174.67962 -67.670799,174.68504 C -67.526636,174.67823 -67.404971,174.6246 -67.305804,174.52416 C -67.20664,174.42373 -67.154974,174.31736 -67.150806,174.20504 C -67.153932,174.07838 -67.200182,173.96172 -67.289554,173.85505 C -67.378929,173.74839 -67.492678,173.69172 -67.6308,173.68505 C -67.757466,173.69006 -67.874131,173.74005 -67.980795,173.83505 C -68.087461,173.93005 -68.144127,174.04005 -68.150793,174.16504 L -68.150793,174.16504 z M -67.240805,178.93498 L -67.240805,176.94201 C -67.23914,176.6772 -67.232473,176.42558 -67.220805,176.18714 C -67.20914,175.94871 -67.202474,175.82134 -67.200805,175.80502 C -67.201224,175.78461 -67.21289,175.76794 -67.235805,175.75502 C -67.258723,175.74211 -67.290389,175.73544 -67.330803,175.73502 C -67.469449,175.78961 -67.647155,175.84044 -67.863922,175.88752 C -68.080691,175.93461 -68.359645,175.98044 -68.700786,176.02502 C -68.709953,176.05919 -68.711619,176.10586 -68.705786,176.16502 C -68.699953,176.22419 -68.69162,176.27085 -68.680786,176.30502 C -68.415269,176.32004 -68.238813,176.3685 -68.151418,176.45039 C -68.064024,176.53229 -68.023816,176.71049 -68.030794,176.98501 L -68.030794,178.93498 C -68.022671,179.33289 -68.06642,179.58206 -68.162043,179.68247 C -68.257668,179.78289 -68.453915,179.83705 -68.750785,179.84497 C -68.780785,179.88122 -68.795785,179.93622 -68.795785,180.00997 C -68.795785,180.08372 -68.780785,180.13872 -68.750785,180.17497 C -68.547872,180.16976 -68.363708,180.16517 -68.198292,180.16122 C -68.032879,180.15726 -67.843715,180.15517 -67.6308,180.15497 C -67.423304,180.15517 -67.238306,180.15726 -67.075807,180.16122 C -66.913311,180.16517 -66.728314,180.16976 -66.520814,180.17497 C -66.490817,180.13872 -66.475817,180.08372 -66.475815,180.00997 C -66.475817,179.93622 -66.490817,179.88122 -66.520814,179.84497 C -66.817687,179.84143 -67.013935,179.78851 -67.109556,179.68622 C -67.205182,179.58393 -67.248931,179.33352 -67.240805,178.93498 L -67.240805,178.93498 z M -58.605973,176.54501 L -59.515961,176.54501 L -59.515961,174.54504 C -59.515963,174.42171 -59.485963,174.31838 -59.425962,174.23504 C -59.365965,174.15172 -59.275966,174.10838 -59.155966,174.10504 L -58.105979,174.10504 C -57.744529,174.10734 -57.489949,174.20276 -57.342239,174.39129 C -57.194537,174.57983 -57.072455,174.84775 -56.975994,175.19503 C -56.853,175.21087 -56.743001,175.1942 -56.645998,175.14503 C -56.675794,174.91025 -56.71621,174.62733 -56.767247,174.29629 C -56.818292,173.96526 -56.851208,173.76485 -56.865995,173.69505 C -56.864333,173.67506 -56.877666,173.66506 -56.905995,173.66505 C -56.985789,173.67985 -57.058705,173.69026 -57.124742,173.6963 C -57.190787,173.70235 -57.281202,173.70526 -57.395988,173.70505 L -59.945955,173.70505 C -59.968457,173.70485 -60.120954,173.70276 -60.40345,173.6988 C -60.685946,173.69485 -60.963443,173.69026 -61.235939,173.68505 C -61.265939,173.7213 -61.280939,173.7763 -61.280938,173.85005 C -61.280938,173.9238 -61.265938,173.9788 -61.235939,174.01504 C -60.893444,174.01422 -60.660947,174.06588 -60.538448,174.17004 C -60.41595,174.27421 -60.358451,174.52588 -60.36595,174.92503 L -60.36595,178.93498 C -60.358451,179.33414 -60.41595,179.58581 -60.538448,179.68997 C -60.660947,179.79414 -60.893444,179.8458 -61.235939,179.84497 C -61.265939,179.88122 -61.280939,179.93622 -61.280938,180.00997 C -61.280938,180.08372 -61.265938,180.13872 -61.235939,180.17497 C -60.967401,180.16976 -60.689488,180.16517 -60.4022,180.16122 C -60.114913,180.15726 -59.959498,180.15517 -59.935956,180.15497 L -57.785983,180.15497 C -57.522657,180.1558 -57.249328,180.15913 -56.965994,180.16497 C -56.682669,180.1708 -56.529338,180.17413 -56.506,180.17497 C -56.434339,179.91851 -56.365173,179.64143 -56.298502,179.34373 C -56.231842,179.04602 -56.177676,178.76644 -56.136004,178.50499 C -56.239175,178.44282 -56.35584,178.42616 -56.486,178.45499 C -56.580587,178.82457 -56.728918,179.1329 -56.930994,179.37998 C -57.133079,179.62706 -57.421409,179.75539 -57.795983,179.76497 L -59.155966,179.76497 C -59.267216,179.76393 -59.354715,179.72601 -59.418462,179.65122 C -59.482214,179.57643 -59.514713,179.47102 -59.515961,179.33498 L -59.515961,176.92501 L -58.605973,176.92501 C -58.198064,176.92522 -57.943901,176.9823 -57.843483,177.09626 C -57.743071,177.21021 -57.693905,177.3798 -57.695984,177.605 C -57.659739,177.635 -57.604739,177.65 -57.530987,177.65 C -57.457241,177.65 -57.402242,177.635 -57.365989,177.605 C -57.371201,177.43646 -57.375784,177.28855 -57.379739,177.16125 C -57.383701,177.03397 -57.385784,176.88855 -57.385988,176.72501 C -57.385784,176.55918 -57.383701,176.41085 -57.379738,176.28002 C -57.375784,176.14919 -57.371201,176.01086 -57.365989,175.86502 C -57.402242,175.83503 -57.457241,175.82003 -57.530987,175.82002 C -57.604739,175.82003 -57.659739,175.83503 -57.695984,175.86502 C -57.693905,176.13398 -57.743071,176.31606 -57.843483,176.41126 C -57.943901,176.50647 -58.198064,176.55106 -58.605973,176.54501 L -58.605973,176.54501 z M -54.00768,176.57501 C -54.024973,176.60127 -54.04539,176.62376 -54.06893,176.64251 C -54.092473,176.66126 -54.105389,176.63876 -54.107679,176.57501 C -54.105597,176.4121 -54.097264,176.24794 -54.082679,176.08252 C -54.068098,175.91711 -54.059764,175.82794 -54.057679,175.81502 C -54.057681,175.76336 -54.097681,175.73669 -54.177678,175.73502 C -54.314552,175.78961 -54.4933,175.84044 -54.713921,175.88752 C -54.934544,175.93461 -55.21579,175.98044 -55.55766,176.02502 C -55.566827,176.05919 -55.568494,176.10586 -55.56266,176.16502 C -55.556827,176.22419 -55.548494,176.27085 -55.53766,176.30502 C -55.274331,176.31898 -55.0985,176.36606 -55.010167,176.44626 C -54.921836,176.52647 -54.881003,176.70606 -54.887669,176.98501 L -54.887669,178.93498 C -54.879336,179.32852 -54.921003,179.57643 -55.012667,179.67872 C -55.104333,179.78101 -55.295997,179.83643 -55.58766,179.84497 C -55.61766,179.88122 -55.632659,179.93622 -55.632659,180.00997 C -55.632659,180.08372 -55.617659,180.13872 -55.58766,180.17497 C -55.389329,180.16976 -55.208499,180.16517 -55.045167,180.16122 C -54.881836,180.15726 -54.696006,180.15517 -54.487674,180.15497 C -54.302053,180.15517 -54.140805,180.15726 -54.00393,180.16122 C -53.867059,180.16517 -53.698311,180.16976 -53.497687,180.17497 C -53.467689,180.13872 -53.45269,180.08372 -53.452687,180.00997 C -53.45269,179.93622 -53.467689,179.88122 -53.497687,179.84497 C -53.74581,179.83643 -53.909558,179.78101 -53.98893,179.67872 C -54.068306,179.57643 -54.104556,179.32852 -54.097679,178.93498 L -54.097679,177.295 C -54.095597,177.19126 -54.077264,177.10626 -54.04268,177.04001 C -54.008099,176.97376 -53.969766,176.91876 -53.927681,176.87501 C -53.737477,176.68856 -53.545396,176.54397 -53.351438,176.44126 C -53.157485,176.33856 -52.962905,176.28648 -52.767696,176.28502 C -52.665617,176.28564 -52.567285,176.31689 -52.4727,176.37876 C -52.378121,176.44064 -52.299789,176.52939 -52.237703,176.64501 C -52.188957,176.74585 -52.156457,176.86168 -52.140204,176.99251 C -52.123958,177.12334 -52.116458,177.26417 -52.117704,177.415 L -52.117704,178.93498 C -52.111041,179.32852 -52.149374,179.57643 -52.232703,179.67872 C -52.316039,179.78101 -52.48437,179.83643 -52.737696,179.84497 C -52.762699,179.88122 -52.775199,179.93622 -52.775196,180.00997 C -52.775199,180.08372 -52.762699,180.13872 -52.737696,180.17497 C -52.536452,180.16976 -52.363955,180.16517 -52.220203,180.16122 C -52.076459,180.15726 -51.908961,180.15517 -51.717709,180.15497 C -51.52105,180.15517 -51.346886,180.15726 -51.195216,180.16122 C -51.043556,180.16517 -50.864392,180.16976 -50.657723,180.17497 C -50.632729,180.13872 -50.620229,180.08372 -50.620224,180.00997 C -50.620229,179.93622 -50.632729,179.88122 -50.657723,179.84497 C -50.930641,179.83643 -51.112305,179.78101 -51.202716,179.67872 C -51.293136,179.57643 -51.334802,179.32852 -51.327714,178.93498 L -51.327714,177.445 C -51.324594,177.16792 -51.340844,176.91459 -51.376464,176.68501 C -51.412093,176.45543 -51.485842,176.2621 -51.597711,176.10502 C -51.684797,175.99461 -51.800629,175.91044 -51.945206,175.85252 C -52.089792,175.79461 -52.250623,175.76544 -52.4277,175.76502 C -52.669784,175.75628 -52.918114,175.80628 -53.172691,175.91502 C -53.427273,176.02377 -53.705603,176.24377 -54.00768,176.57501 L -54.00768,176.57501 z M -50.0161,178.77498 C -49.995684,179.02061 -49.979018,179.25935 -49.966101,179.49122 C -49.953185,179.7231 -49.946518,179.94434 -49.946101,180.15497 C -49.895061,180.14497 -49.847145,180.13747 -49.802353,180.13247 C -49.757562,180.12747 -49.722146,180.12497 -49.696104,180.12497 C -49.661522,180.12455 -49.628189,180.12538 -49.596105,180.12747 C -49.564023,180.12955 -49.53069,180.13538 -49.496107,180.14497 C -49.363193,180.18017 -49.224028,180.20726 -49.078612,180.22621 C -48.933199,180.24517 -48.769034,180.25476 -48.586118,180.25496 C -48.274875,180.26434 -47.939879,180.17809 -47.581131,179.99622 C -47.222389,179.81435 -47.027392,179.4806 -46.996139,178.99498 C -47.002517,178.65674 -47.112766,178.38149 -47.326885,178.16924 C -47.54101,177.957 -47.820756,177.78825 -48.166124,177.663 C -48.470288,177.55896 -48.711952,177.44454 -48.891115,177.31975 C -49.07028,177.19497 -49.161946,177.00005 -49.166111,176.73501 C -49.158196,176.52897 -49.08403,176.37106 -48.943614,176.26127 C -48.8032,176.15148 -48.644036,176.09606 -48.46612,176.09502 C -48.339249,176.08065 -48.173001,176.1294 -47.967376,176.24127 C -47.761756,176.35314 -47.618008,176.61439 -47.536132,177.02501 C -47.500302,177.05459 -47.446969,177.06793 -47.376134,177.06501 C -47.305305,177.06209 -47.251972,177.04543 -47.216136,177.01501 C -47.214264,176.83397 -47.205514,176.65356 -47.189886,176.47376 C -47.174265,176.29398 -47.163015,176.12106 -47.156137,175.95502 C -47.313846,175.92523 -47.505927,175.88732 -47.73238,175.84127 C -47.958838,175.79523 -48.203417,175.76982 -48.46612,175.76502 C -48.848617,175.77169 -49.176112,175.87836 -49.448608,176.08502 C -49.721105,176.29169 -49.863603,176.55835 -49.876102,176.88501 C -49.878394,177.24105 -49.791312,177.51896 -49.614855,177.71875 C -49.4384,177.91854 -49.158821,178.09395 -48.776116,178.24499 C -48.371373,178.40945 -48.097877,178.56203 -47.955627,178.70273 C -47.813381,178.84344 -47.746882,179.01752 -47.756129,179.22498 C -47.768423,179.46852 -47.863839,179.64643 -48.042375,179.75872 C -48.220917,179.87101 -48.408831,179.92643 -48.606118,179.92497 C -48.800076,179.92184 -48.954657,179.89559 -49.069862,179.84622 C -49.18507,179.79685 -49.267153,179.7431 -49.316109,179.68497 C -49.433609,179.56164 -49.521107,179.41081 -49.578606,179.23248 C -49.636106,179.05415 -49.678605,178.89832 -49.706104,178.76498 C -49.741521,178.7354 -49.793187,178.72207 -49.861102,178.72498 C -49.929018,178.7279 -49.980684,178.74457 -50.0161,178.77498 L -50.0161,178.77498 z M -45.76798,174.16504 C -45.762981,174.30046 -45.712982,174.41963 -45.617982,174.52254 C -45.522985,174.62546 -45.412986,174.67962 -45.287987,174.68504 C -45.143823,174.67823 -45.022158,174.6246 -44.922991,174.52416 C -44.823828,174.42373 -44.772162,174.31736 -44.767993,174.20504 C -44.77112,174.07838 -44.817369,173.96172 -44.906741,173.85505 C -44.996117,173.74839 -45.109865,173.69172 -45.247987,173.68505 C -45.374653,173.69006 -45.491318,173.74005 -45.597983,173.83505 C -45.704649,173.93005 -45.761315,174.04005 -45.76798,174.16504 L -45.76798,174.16504 z M -44.857992,178.93498 L -44.857992,176.94201 C -44.856327,176.6772 -44.849661,176.42558 -44.837992,176.18714 C -44.826328,175.94871 -44.819661,175.82134 -44.817993,175.80502 C -44.818411,175.78461 -44.830078,175.76794 -44.852992,175.75502 C -44.875911,175.74211 -44.907577,175.73544 -44.947991,175.73502 C -45.086637,175.78961 -45.264343,175.84044 -45.481109,175.88752 C -45.697878,175.93461 -45.976833,175.98044 -46.317973,176.02502 C -46.32714,176.05919 -46.328807,176.10586 -46.322973,176.16502 C -46.31714,176.22419 -46.308807,176.27085 -46.297974,176.30502 C -46.032457,176.32004 -45.856001,176.3685 -45.768605,176.45039 C -45.681212,176.53229 -45.641004,176.71049 -45.647982,176.98501 L -45.647982,178.93498 C -45.639858,179.33289 -45.683607,179.58206 -45.77923,179.68247 C -45.874855,179.78289 -46.071102,179.83705 -46.367973,179.84497 C -46.397973,179.88122 -46.412973,179.93622 -46.412972,180.00997 C -46.412972,180.08372 -46.397972,180.13872 -46.367973,180.17497 C -46.165059,180.16976 -45.980895,180.16517 -45.81548,180.16122 C -45.650066,180.15726 -45.460902,180.15517 -45.247987,180.15497 C -45.040491,180.15517 -44.855494,180.15726 -44.692994,180.16122 C -44.530499,180.16517 -44.345501,180.16976 -44.138001,180.17497 C -44.108004,180.13872 -44.093005,180.08372 -44.093002,180.00997 C -44.093005,179.93622 -44.108004,179.88122 -44.138001,179.84497 C -44.434875,179.84143 -44.631122,179.78851 -44.726744,179.68622 C -44.822369,179.58393 -44.866119,179.33352 -44.857992,178.93498 L -44.857992,178.93498 z M -43.053137,174.16504 C -43.048137,174.30046 -42.998138,174.41963 -42.903139,174.52254 C -42.808141,174.62546 -42.698143,174.67962 -42.573143,174.68504 C -42.42898,174.67823 -42.307315,174.6246 -42.208148,174.52416 C -42.108984,174.42373 -42.057318,174.31736 -42.053149,174.20504 C -42.056276,174.07838 -42.102526,173.96172 -42.191898,173.85505 C -42.281273,173.74839 -42.395022,173.69172 -42.533143,173.68505 C -42.65981,173.69006 -42.776475,173.74005 -42.883139,173.83505 C -42.989805,173.93005 -43.046471,174.04005 -43.053137,174.16504 L -43.053137,174.16504 z M -42.143148,178.93498 L -42.143148,176.94201 C -42.141483,176.6772 -42.134817,176.42558 -42.123149,176.18714 C -42.111484,175.94871 -42.104817,175.82134 -42.103149,175.80502 C -42.103567,175.78461 -42.115234,175.76794 -42.138149,175.75502 C -42.161067,175.74211 -42.192733,175.73544 -42.233147,175.73502 C -42.371793,175.78961 -42.549499,175.84044 -42.766265,175.88752 C -42.983034,175.93461 -43.261989,175.98044 -43.60313,176.02502 C -43.612296,176.05919 -43.613963,176.10586 -43.60813,176.16502 C -43.602297,176.22419 -43.593963,176.27085 -43.58313,176.30502 C -43.317613,176.32004 -43.141157,176.3685 -43.053762,176.45039 C -42.966368,176.53229 -42.92616,176.71049 -42.933138,176.98501 L -42.933138,178.93498 C -42.925014,179.33289 -42.968764,179.58206 -43.064387,179.68247 C -43.160011,179.78289 -43.356259,179.83705 -43.653129,179.84497 C -43.683129,179.88122 -43.698129,179.93622 -43.698128,180.00997 C -43.698129,180.08372 -43.683129,180.13872 -43.653129,180.17497 C -43.450215,180.16976 -43.266051,180.16517 -43.100636,180.16122 C -42.935223,180.15726 -42.746058,180.15517 -42.533143,180.15497 C -42.325648,180.15517 -42.14065,180.15726 -41.978151,180.16122 C -41.815655,180.16517 -41.630657,180.16976 -41.423158,180.17497 C -41.393161,180.13872 -41.378161,180.08372 -41.378158,180.00997 C -41.378161,179.93622 -41.393161,179.88122 -41.423158,179.84497 C -41.720031,179.84143 -41.916278,179.78851 -42.0119,179.68622 C -42.107526,179.58393 -42.151275,179.33352 -42.143148,178.93498 L -42.143148,178.93498 z M -40.378292,178.93498 C -40.37121,179.33352 -40.412876,179.58393 -40.503291,179.68622 C -40.593707,179.78851 -40.775371,179.84143 -41.048284,179.84497 C -41.078284,179.88122 -41.093284,179.93622 -41.093283,180.00997 C -41.093283,180.08372 -41.078283,180.13872 -41.048284,180.17497 C -40.846203,180.16976 -40.667873,180.16517 -40.513291,180.16122 C -40.35871,180.15726 -40.180379,180.15517 -39.978297,180.15497 C -39.814134,180.15517 -39.67247,180.15726 -39.553303,180.16122 C -39.43414,180.16517 -39.272475,180.16976 -39.068309,180.17497 C -39.038312,180.13872 -39.023312,180.08372 -39.02331,180.00997 C -39.023312,179.93622 -39.038312,179.88122 -39.068309,179.84497 C -39.26935,179.84143 -39.407265,179.78851 -39.482054,179.68622 C -39.556847,179.58393 -39.592263,179.33352 -39.588302,178.93498 L -39.588302,178.03499 C -39.472618,178.03412 -39.372245,178.05937 -39.287181,178.11074 C -39.202122,178.16212 -39.112498,178.25687 -39.01831,178.39499 L -38.288319,179.42498 C -38.19124,179.56622 -38.127908,179.67622 -38.098322,179.75497 C -38.068742,179.83372 -38.055409,179.90372 -38.058322,179.96497 L -38.058322,180.12497 C -38.059992,180.15663 -38.046659,180.1733 -38.018323,180.17497 C -37.920827,180.16976 -37.818329,180.16517 -37.710827,180.16122 C -37.603332,180.15726 -37.475833,180.15517 -37.328332,180.15497 C -37.177296,180.15517 -37.039381,180.15726 -36.914587,180.16122 C -36.789801,180.16517 -36.654387,180.16976 -36.508342,180.17497 C -36.478347,180.13872 -36.463348,180.08372 -36.463343,180.00997 C -36.463348,179.93622 -36.478347,179.88122 -36.508342,179.84497 C -36.678678,179.8311 -36.836009,179.79835 -36.980336,179.74672 C -37.124672,179.6951 -37.254003,179.58785 -37.368331,179.42498 L -38.538316,177.695 C -38.569985,177.65333 -38.586651,177.60667 -38.588315,177.555 C -38.589985,177.51667 -38.576651,177.48334 -38.548316,177.455 L -37.788326,176.61501 C -37.64381,176.46362 -37.485854,176.35441 -37.314457,176.28739 C -37.143067,176.22037 -36.934362,176.18292 -36.68834,176.17502 C -36.658345,176.13877 -36.643345,176.08377 -36.643341,176.01002 C -36.643345,175.93627 -36.658345,175.88127 -36.68834,175.84502 C -36.863967,175.85023 -37.010215,175.85482 -37.127084,175.85877 C -37.243962,175.86273 -37.38771,175.86482 -37.558329,175.86502 C -37.739788,175.86482 -37.89437,175.86273 -38.022073,175.85877 C -38.149783,175.85482 -38.301864,175.85023 -38.478317,175.84502 C -38.508319,175.88127 -38.523319,175.93627 -38.523316,176.01002 C -38.523319,176.08377 -38.508319,176.13877 -38.478317,176.17502 C -38.199574,176.20283 -38.080825,176.27846 -38.122072,176.40189 C -38.163324,176.52533 -38.222073,176.6197 -38.298319,176.68501 C -38.565569,176.97738 -38.813065,177.22213 -39.04081,177.41925 C -39.268559,177.61638 -39.451056,177.73662 -39.588302,177.78 L -39.588302,174.32504 C -39.586637,173.99693 -39.579971,173.74068 -39.568303,173.5563 C -39.556638,173.37193 -39.549971,173.27819 -39.548303,173.27505 C -39.546638,173.20673 -39.589971,173.1734 -39.678301,173.17506 C -39.821009,173.22819 -40.03559,173.28194 -40.322043,173.3363 C -40.608499,173.39068 -40.860578,173.42693 -41.078283,173.44505 C -41.088283,173.48881 -41.088283,173.54131 -41.078283,173.60255 C -41.068284,173.66381 -41.048284,173.71131 -41.018284,173.74505 C -40.764121,173.73985 -40.592457,173.77526 -40.503291,173.8513 C -40.414126,173.92734 -40.37246,174.16526 -40.378292,174.56504 L -40.378292,178.93498 z M -35.464075,178.93498 C -35.455951,179.33414 -35.4997,179.58581 -35.595323,179.68997 C -35.690948,179.79414 -35.887195,179.8458 -36.184065,179.84497 C -36.214065,179.88122 -36.229065,179.93622 -36.229065,180.00997 C -36.229065,180.08372 -36.214065,180.13872 -36.184065,180.17497 C -35.981152,180.16976 -35.796988,180.16517 -35.631573,180.16122 C -35.466159,180.15726 -35.276995,180.15517 -35.06408,180.15497 C -34.856584,180.15517 -34.671587,180.15726 -34.509087,180.16122 C -34.346591,180.16517 -34.161594,180.16976 -33.954094,180.17497 C -33.924097,180.13872 -33.909098,180.08372 -33.909095,180.00997 C -33.909097,179.93622 -33.924097,179.88122 -33.954094,179.84497 C -34.250968,179.8458 -34.447215,179.79414 -34.542837,179.68997 C -34.638462,179.58581 -34.682212,179.33414 -34.674085,178.93498 L -34.674085,174.32504 C -34.67242,173.99693 -34.665753,173.74068 -34.654085,173.5563 C -34.642421,173.37193 -34.635754,173.27819 -34.634085,173.27505 C -34.63242,173.20673 -34.675753,173.1734 -34.764084,173.17506 C -34.906792,173.22819 -35.121372,173.28194 -35.407826,173.3363 C -35.694281,173.39068 -35.946361,173.42693 -36.164066,173.44505 C -36.174066,173.48881 -36.174066,173.54131 -36.164066,173.60255 C -36.154066,173.66381 -36.134066,173.71131 -36.104066,173.74505 C -35.849904,173.73985 -35.678239,173.77526 -35.589073,173.8513 C -35.499909,173.92734 -35.458243,174.16526 -35.464075,174.56504 L -35.464075,178.93498 z M -33.367349,178.10499 C -33.367974,178.64082 -33.194227,179.12665 -32.846106,179.56247 C -32.497986,179.9983 -31.971744,180.22913 -31.267376,180.25496 C -30.527181,180.22413 -29.987605,179.9758 -29.648647,179.50997 C -29.309697,179.04415 -29.142616,178.54582 -29.147403,178.01499 C -29.138033,177.46625 -29.294281,176.96126 -29.616147,176.50001 C -29.938022,176.03877 -30.481765,175.79378 -31.247376,175.76502 C -31.926328,175.78315 -32.448404,176.0144 -32.813606,176.45876 C -33.178811,176.90314 -33.363391,177.45188 -33.367349,178.10499 L -33.367349,178.10499 z M -31.357375,176.09502 C -30.924883,176.09648 -30.592388,176.28606 -30.359888,176.66376 C -30.127394,177.04147 -30.009896,177.59854 -30.007392,178.33499 C -30.023021,178.97873 -30.144269,179.40873 -30.371138,179.62497 C -30.598013,179.84122 -30.83676,179.94122 -31.087378,179.92497 C -31.432315,179.91392 -31.709101,179.7938 -31.917738,179.5646 C -32.126379,179.33541 -32.277241,179.06344 -32.370325,178.74869 C -32.463412,178.43394 -32.50909,178.14271 -32.50736,177.875 C -32.511945,177.42021 -32.425279,177.0148 -32.247363,176.65876 C -32.069451,176.30273 -31.772788,176.11481 -31.357375,176.09502 L -31.357375,176.09502 z M -26.988304,176.80501 C -26.828849,176.64085 -26.658268,176.50418 -26.47656,176.39501 C -26.294857,176.28585 -26.128776,176.22919 -25.978317,176.22502 C -25.648741,176.23148 -25.370411,176.39856 -25.143328,176.72626 C -24.916251,177.05397 -24.797919,177.50354 -24.788332,178.07499 C -24.777086,178.51041 -24.872085,178.91957 -25.073329,179.30248 C -25.274579,179.68539 -25.649574,179.88955 -26.198314,179.91497 C -26.295399,179.91624 -26.41373,179.9012 -26.55331,179.86984 C -26.692893,179.83849 -26.811225,179.7832 -26.908305,179.70397 C -27.006243,179.62283 -27.071367,179.54562 -27.103678,179.47235 C -27.135991,179.39908 -27.150866,179.27662 -27.148302,179.10498 L -27.148302,177.245 C -27.149637,177.14305 -27.13897,177.05997 -27.116302,176.99576 C -27.093638,176.93155 -27.050971,176.86797 -26.988304,176.80501 L -26.988304,176.80501 z M -27.068303,176.47501 C -27.086033,176.4922 -27.106575,176.50008 -27.129927,176.49864 C -27.153283,176.4972 -27.166074,176.47933 -27.168301,176.44501 C -27.166636,176.26085 -27.15997,176.10919 -27.148302,175.99002 C -27.136637,175.87086 -27.12997,175.80919 -27.128302,175.80502 C -27.12872,175.78461 -27.140387,175.76794 -27.163302,175.75502 C -27.18622,175.74211 -27.217886,175.73544 -27.2583,175.73502 C -27.393925,175.78961 -27.567673,175.84044 -27.779544,175.88752 C -27.991417,175.93461 -28.267663,175.98044 -28.608283,176.02502 C -28.61745,176.05919 -28.619116,176.10586 -28.613283,176.16502 C -28.60745,176.22419 -28.599117,176.27085 -28.588283,176.30502 C -28.324954,176.3196 -28.149123,176.36793 -28.06079,176.45001 C -27.972459,176.5321 -27.931626,176.71043 -27.938292,176.98501 L -27.938292,181.25495 C -27.930167,181.65411 -27.973917,181.90577 -28.06954,182.00994 C -28.165165,182.11411 -28.361412,182.16577 -28.658282,182.16494 C -28.688282,182.20119 -28.703282,182.25619 -28.703282,182.32994 C -28.703282,182.40368 -28.688282,182.45868 -28.658282,182.49494 C -28.455369,182.48972 -28.271205,182.48514 -28.10579,182.48119 C -27.940376,182.47723 -27.751212,182.47514 -27.538297,182.47494 C -27.309134,182.47514 -27.102471,182.47723 -26.918305,182.48119 C -26.734142,182.48514 -26.537479,182.48973 -26.328312,182.49494 C -26.298315,182.45868 -26.283316,182.40368 -26.283313,182.32994 C -26.283315,182.25619 -26.298315,182.20119 -26.328312,182.16494 C -26.673102,182.1614 -26.898515,182.10848 -27.004554,182.00619 C -27.110596,181.9039 -27.158512,181.65349 -27.148302,181.25495 L -27.148302,180.17497 C -27.148845,180.11234 -27.138262,180.07834 -27.116552,180.07297 C -27.094846,180.06759 -27.058763,180.07659 -27.008304,180.09997 C -26.884619,180.14974 -26.748496,180.18794 -26.599934,180.21459 C -26.451376,180.24124 -26.297503,180.25469 -26.138315,180.25496 C -25.857696,180.25601 -25.59395,180.21142 -25.347075,180.12122 C -25.100207,180.03101 -24.87396,179.88893 -24.668334,179.69497 C -24.431883,179.4656 -24.249802,179.19435 -24.122091,178.88123 C -23.994389,178.56811 -23.929807,178.20937 -23.928343,177.805 C -23.938348,177.25626 -24.105846,176.78376 -24.430837,176.38751 C -24.755837,175.99127 -25.178331,175.78378 -25.69832,175.76502 C -25.889154,175.76586 -26.107485,175.82669 -26.353312,175.94752 C -26.599144,176.06836 -26.837474,176.24419 -27.068303,176.47501 L -27.068303,176.47501 z M -22.302985,177.335 C -22.187779,176.7898 -22.005698,176.44523 -21.756742,176.30127 C -21.507789,176.15731 -21.313208,176.09523 -21.172999,176.11502 C -20.972171,176.10627 -20.78634,176.17627 -20.615506,176.32502 C -20.444678,176.47377 -20.353846,176.75376 -20.34301,177.165 C -20.342388,177.21009 -20.353638,177.24442 -20.37676,177.268 C -20.399888,177.29159 -20.438637,177.30392 -20.493008,177.305 L -22.302985,177.335 z M -19.683018,179.22498 C -19.860311,179.41373 -20.040726,179.55122 -20.224261,179.63747 C -20.407804,179.72372 -20.640717,179.76622 -20.923002,179.76497 C -21.106544,179.76685 -21.294458,179.7106 -21.486745,179.59622 C -21.679036,179.48185 -21.854451,179.2981 -22.012988,179.04498 C -22.113822,178.87977 -22.192154,178.68269 -22.247986,178.45374 C -22.30382,178.22478 -22.332152,177.9652 -22.332984,177.675 L -19.673019,177.695 C -19.612607,177.69479 -19.565941,177.68021 -19.53302,177.65125 C -19.500108,177.62229 -19.483442,177.58021 -19.483021,177.525 C -19.466567,177.08501 -19.574482,176.69001 -19.806767,176.34001 C -20.039059,175.99002 -20.494469,175.80503 -21.172999,175.78502 C -21.636954,175.78794 -22.079031,175.98961 -22.499232,176.39001 C -22.919436,176.79043 -23.144016,177.37209 -23.172974,178.13499 C -23.174016,178.41791 -23.136933,178.68707 -23.061725,178.94248 C -22.986518,179.1979 -22.866936,179.42206 -22.70298,179.61497 C -22.535483,179.81664 -22.327986,179.9733 -22.080488,180.08497 C -21.832993,180.19663 -21.530497,180.2533 -21.172999,180.25496 C -20.794674,180.25121 -20.466345,180.17122 -20.188012,180.01497 C -19.909686,179.85872 -19.671356,179.64872 -19.473021,179.38498 C -19.4874,179.33519 -19.51115,179.29727 -19.544271,179.27123 C -19.577399,179.24519 -19.623648,179.22977 -19.683018,179.22498 L -19.683018,179.22498 z M -15.620357,178.91498 C -15.618215,179.00673 -15.627256,179.08023 -15.647482,179.13548 C -15.667714,179.19073 -15.712005,179.24723 -15.780355,179.30498 C -15.965772,179.46498 -16.137437,179.58497 -16.295348,179.66497 C -16.453266,179.74497 -16.59493,179.78497 -16.720343,179.78497 C -17.002425,179.78643 -17.253255,179.63601 -17.472833,179.33373 C -17.692415,179.03144 -17.808247,178.56853 -17.820329,177.94499 C -17.817621,177.58771 -17.788038,177.3023 -17.73158,177.08876 C -17.675124,176.87522 -17.608041,176.71731 -17.530332,176.61501 C -17.368461,176.38856 -17.199713,176.24648 -17.024089,176.18877 C -16.848468,176.13106 -16.70722,176.10648 -16.600344,176.11502 C -16.421599,176.11565 -16.266602,176.1469 -16.13535,176.20877 C -16.004105,176.27064 -15.889107,176.35939 -15.790355,176.47501 C -15.722026,176.54814 -15.676193,176.61939 -15.652856,176.68876 C -15.629527,176.75814 -15.618694,176.86689 -15.620357,177.01501 L -15.620357,178.91498 z M -15.730356,179.65197 C -15.704359,179.63108 -15.67836,179.61962 -15.652357,179.6176 C -15.626361,179.61558 -15.612361,179.63137 -15.610357,179.66497 C -15.605777,179.79455 -15.587444,179.92289 -15.555358,180.04997 C -15.523279,180.17705 -15.504945,180.24538 -15.500358,180.25496 C -15.462446,180.26934 -15.43078,180.27559 -15.40536,180.27371 C -15.379947,180.27184 -15.348281,180.26559 -15.310361,180.25496 C -15.201825,180.16392 -15.04891,180.08351 -14.851617,180.01372 C -14.654332,179.94393 -14.403919,179.89101 -14.100376,179.85497 C -14.070382,179.82122 -14.055382,179.77622 -14.055377,179.71997 C -14.055382,179.66372 -14.070382,179.61872 -14.100376,179.58497 C -14.410794,179.56331 -14.612458,179.49664 -14.705369,179.38498 C -14.798289,179.27331 -14.839955,179.09665 -14.830367,178.85498 L -14.830367,174.32504 C -14.828705,173.99693 -14.822038,173.74068 -14.810367,173.5563 C -14.798705,173.37193 -14.792039,173.27819 -14.790368,173.27505 C -14.788705,173.20673 -14.832038,173.1734 -14.920366,173.17506 C -15.063077,173.22819 -15.277657,173.28194 -15.564108,173.3363 C -15.850566,173.39068 -16.102646,173.42693 -16.320348,173.44505 C -16.330351,173.48881 -16.330351,173.54131 -16.320348,173.60255 C -16.310351,173.66381 -16.290351,173.71131 -16.260349,173.74505 C -16.006188,173.73985 -15.834524,173.77526 -15.745355,173.8513 C -15.656193,173.92734 -15.614527,174.16526 -15.620357,174.56504 L -15.620357,175.84502 C -15.619735,175.8794 -15.625985,175.90315 -15.639107,175.91627 C -15.652235,175.9294 -15.675985,175.93565 -15.710356,175.93502 C -15.739734,175.92794 -15.833483,175.89961 -15.991602,175.85002 C -16.149728,175.80044 -16.315976,175.77211 -16.490346,175.76502 C -16.816594,175.76628 -17.09909,175.81878 -17.337835,175.92252 C -17.576583,176.02627 -17.79408,176.17377 -17.990326,176.36501 C -18.2072,176.58022 -18.375947,176.8348 -18.49657,177.12875 C -18.617194,177.42271 -18.678443,177.75479 -18.680318,178.12499 C -18.676985,178.75186 -18.528653,179.2606 -18.235323,179.65122 C -17.941995,180.04184 -17.523667,180.24309 -16.980339,180.25496 C -16.788261,180.25503 -16.59243,180.2049 -16.392847,180.10459 C -16.193269,180.00428 -15.972439,179.85341 -15.730356,179.65197 L -15.730356,179.65197 z M -11.931746,181.75495 C -11.778583,181.47728 -11.641918,181.19062 -11.521751,180.89496 C -11.129384,179.95103 -10.800138,179.16992 -10.534013,178.55161 C -10.267896,177.93331 -10.007149,177.35444 -9.7517736,176.81501 C -9.6799039,176.66335 -9.5736553,176.52418 -9.4330276,176.39751 C -9.2924091,176.27085 -9.1286614,176.19669 -8.941784,176.17502 C -8.9117897,176.13877 -8.89679,176.08377 -8.8967848,176.01002 C -8.8967898,175.93627 -8.9117895,175.88127 -8.941784,175.84502 C -9.0632458,175.85023 -9.1778276,175.85482 -9.2855298,175.85877 C -9.3932415,175.86273 -9.5153231,175.86482 -9.6517749,175.86502 C -9.8196937,175.86482 -9.9688584,175.86273 -10.099269,175.85877 C -10.229688,175.85482 -10.383852,175.85023 -10.561763,175.84502 C -10.591766,175.88127 -10.606766,175.93627 -10.606763,176.01002 C -10.606766,176.08377 -10.591766,176.13877 -10.561763,176.17502 C -10.393706,176.18427 -10.254583,176.21777 -10.144393,176.27552 C -10.034211,176.33327 -10.013337,176.44977 -10.081769,176.62501 L -11.073757,178.91498 C -11.10903,178.99738 -11.146988,179.04059 -11.18763,179.04461 C -11.228278,179.04863 -11.269986,179.00209 -11.312754,178.90498 L -12.199742,176.82501 C -12.303138,176.61631 -12.347596,176.46123 -12.333116,176.35976 C -12.318638,176.25831 -12.164849,176.19673 -11.871747,176.17502 C -11.841749,176.13877 -11.82675,176.08377 -11.826747,176.01002 C -11.826749,175.93627 -11.841749,175.88127 -11.871747,175.84502 C -12.058205,175.85023 -12.247785,175.85482 -12.44049,175.85877 C -12.633197,175.86273 -12.820278,175.86482 -13.001732,175.86502 C -13.341729,175.86336 -13.611725,175.85669 -13.811722,175.84502 C -13.841722,175.88127 -13.856721,175.93627 -13.856721,176.01002 C -13.856721,176.08377 -13.841721,176.13877 -13.811722,176.17502 C -13.605225,176.18396 -13.453477,176.23433 -13.356478,176.32614 C -13.25948,176.41796 -13.148231,176.61758 -13.022732,176.92501 L -11.891746,179.55497 C -11.841603,179.66458 -11.794896,179.81137 -11.751623,179.99534 C -11.708355,180.17932 -11.708397,180.34586 -11.751748,180.49496 C -11.810687,180.66004 -11.871811,180.81637 -11.935121,180.96396 C -11.998435,181.11154 -12.067309,181.26187 -12.141743,181.41495 C -12.195078,181.51453 -12.260911,181.58786 -12.339241,181.63495 C -12.417575,181.68203 -12.518407,181.70536 -12.641737,181.70495 C -12.708196,181.70369 -12.760278,181.69869 -12.797985,181.68995 C -12.835694,181.68119 -12.880276,181.67619 -12.931733,181.67495 C -13.076941,181.68474 -13.186522,181.74015 -13.260479,181.84119 C -13.334437,181.94223 -13.37152,182.03015 -13.371727,182.10494 C -13.36902,182.21223 -13.324437,182.30014 -13.237979,182.36869 C -13.151523,182.43723 -13.039441,182.47264 -12.901733,182.47494 C -12.791945,182.48493 -12.64903,182.44493 -12.472989,182.35494 C -12.296952,182.26494 -12.116537,182.06494 -11.931746,181.75495 L -11.931746,181.75495 z M -5.886444,177.825 L -5.886444,179.15498 C -5.8872802,179.21894 -5.9006133,179.27102 -5.9264435,179.31123 C -5.9522794,179.35143 -5.9856122,179.38602 -6.0264422,179.41498 C -6.15936,179.52477 -6.3035248,179.62268 -6.4589369,179.70872 C -6.6143537,179.79476 -6.7635182,179.84018 -6.9064308,179.84497 C -7.1551794,179.83476 -7.3376769,179.75518 -7.4539239,179.60622 C -7.5701737,179.45727 -7.6276729,179.30019 -7.6264216,179.13498 C -7.6329644,178.90452 -7.566882,178.68944 -7.4281741,178.48974 C -7.2894691,178.29003 -7.0388892,178.13845 -6.6764338,178.03499 L -5.886444,177.825 z M -5.886444,179.67497 C -5.8614891,179.79101 -5.7924067,179.91393 -5.6791967,180.04372 C -5.5659929,180.17351 -5.3784122,180.24392 -5.1164539,180.25496 C -4.8666695,180.23934 -4.6637556,180.17059 -4.5077118,180.04872 C -4.3516766,179.92684 -4.271261,179.84559 -4.2664648,179.80497 C -4.2693858,179.76726 -4.2860523,179.73018 -4.3164642,179.69372 C -4.3468851,179.65726 -4.3735514,179.63768 -4.3964632,179.63497 C -4.4216338,179.64164 -4.4543001,179.66831 -4.494462,179.71497 C -4.5346325,179.76164 -4.6052982,179.7883 -4.7064592,179.79497 C -4.8937524,179.7883 -5.0091675,179.70414 -5.0527049,179.54247 C -5.0962498,179.38081 -5.1141662,179.18165 -5.106454,178.94498 L -5.106454,177.455 C -5.1237492,176.76335 -5.2841637,176.30419 -5.587698,176.07752 C -5.8912388,175.85086 -6.2341506,175.74669 -6.6164346,175.76502 C -7.043931,175.77753 -7.4214259,175.89502 -7.7489203,176.11752 C -8.0764169,176.34002 -8.2489144,176.59252 -8.2664133,176.87501 C -8.2662055,176.99459 -8.2366225,177.08293 -8.1776644,177.14 C -8.1187076,177.19709 -8.0316255,177.22542 -7.9164178,177.225 C -7.7712124,177.21938 -7.6616306,177.18063 -7.5876721,177.10875 C -7.5137161,177.03688 -7.4766333,176.96563 -7.4764235,176.89501 C -7.4764248,176.85939 -7.4789248,176.82564 -7.4839234,176.79376 C -7.4889247,176.76189 -7.4964246,176.73564 -7.5064231,176.71501 C -7.5116329,176.70043 -7.5162162,176.6771 -7.5201732,176.64501 C -7.5241327,176.61293 -7.5262159,176.5696 -7.5264229,176.51501 C -7.515591,176.36189 -7.4247589,176.25314 -7.2539264,176.18877 C -7.0830969,176.1244 -6.8972662,176.09315 -6.6964335,176.09502 C -6.5139383,176.07856 -6.3364409,176.15398 -6.1639405,176.32127 C -5.9914455,176.48856 -5.8989468,176.84647 -5.886444,177.395 C -5.8870718,177.43 -5.8933216,177.4575 -5.9051937,177.4775 C -5.9170715,177.4975 -5.9308213,177.51 -5.9464432,177.515 L -6.8064321,177.725 C -7.2951774,177.84791 -7.690172,178.03458 -7.991417,178.28499 C -8.2926637,178.5354 -8.4476615,178.83207 -8.4564109,179.17498 C -8.4476613,179.5656 -8.3251629,179.84434 -8.0889155,180.01122 C -7.8526694,180.17809 -7.5551736,180.25934 -7.1964271,180.25496 C -6.9772653,180.25871 -6.7931012,180.23121 -6.6439344,180.17247 C -6.4947719,180.11372 -6.3156077,180.00122 -6.1064411,179.83497 L -5.9064437,179.67497 L -5.886444,179.67497 z" id="flowRoot2933"></path><path transform="matrix(1.6908538,0,0,1.8286007,54.564488,-202.18812)" style="font-size:10px;font-style:normal;font-variant:normal;font-weight:normal;font-stretch:normal;text-align:justify;line-height:100%;writing-mode:lr-tb;text-anchor:start;fill:#000000;fill-opacity:1;stroke:none;stroke-width:1px;stroke-linecap:butt;stroke-linejoin:miter;stroke-opacity:1;font-family:Linux Libertine O;-inkscape-font-specification:Linux Libertine O" d="M -11.183775,181.77873 L -11.183775,177.76878 C -11.191276,177.36963 -11.133777,177.11796 -11.011277,177.01379 C -10.888781,176.90963 -10.656284,176.85797 -10.313786,176.85879 C -10.283789,176.82255 -10.268789,176.76755 -10.268787,176.6938 C -10.268789,176.62005 -10.283789,176.56505 -10.313786,176.5288 C -10.550452,176.53401 -10.764616,176.5386 -10.956278,176.54255 C -11.147944,176.54651 -11.367107,176.5486 -11.613769,176.5488 C -11.855017,176.5486 -12.070014,176.54651 -12.258761,176.54255 C -12.447509,176.5386 -12.662506,176.53401 -12.903752,176.5288 C -12.933752,176.56505 -12.948752,176.62005 -12.948752,176.6938 C -12.948752,176.76755 -12.933752,176.82255 -12.903752,176.85879 C -12.561257,176.85797 -12.328761,176.90963 -12.206261,177.01379 C -12.083764,177.11796 -12.026265,177.36963 -12.033764,177.76878 L -12.033764,181.77873 C -12.026265,182.17789 -12.083764,182.42956 -12.206262,182.53372 C -12.328761,182.63789 -12.561258,182.68955 -12.903752,182.68872 C -12.933752,182.72497 -12.948752,182.77997 -12.948752,182.85372 C -12.948752,182.92747 -12.933752,182.98247 -12.903752,183.01872 C -12.667089,183.01351 -12.452926,183.00892 -12.261261,183.00497 C -12.069598,183.00101 -11.850434,182.99892 -11.603769,182.99872 C -11.362524,182.99892 -11.147527,183.00101 -10.958778,183.00497 C -10.770032,183.00892 -10.555035,183.01351 -10.313786,183.01872 C -10.283789,182.98247 -10.268789,182.92747 -10.268787,182.85372 C -10.268789,182.77997 -10.283789,182.72497 -10.313786,182.68872 C -10.656284,182.68955 -10.888781,182.63789 -11.011277,182.53372 C -11.133777,182.42956 -11.191277,182.17789 -11.183775,181.77873 L -11.183775,181.77873 z M -8.2150246,181.77873 L -8.2150246,179.90976 C -8.0471955,179.91386 -7.8968642,179.94615 -7.7640304,180.00663 C -7.6312012,180.06711 -7.5148695,180.16115 -7.4150349,180.28875 L -5.7850559,182.26873 C -5.6896659,182.39197 -5.6314584,182.51447 -5.6104333,182.63622 C -5.5894173,182.75797 -5.580959,182.86547 -5.5850585,182.95872 C -5.5854796,182.97434 -5.5821463,182.98809 -5.5750586,182.99997 C -5.5679799,183.01184 -5.5546468,183.01809 -5.5350591,183.01872 C -5.4383982,183.01351 -5.3392328,183.00892 -5.2375628,183.00497 C -5.1359025,183.00101 -5.0117376,182.99892 -4.8650677,182.99872 C -4.6817422,182.99892 -4.5234111,183.00101 -4.390074,183.00497 C -4.2567483,183.00892 -4.0784174,183.01351 -3.8550807,183.01872 C -3.8250876,182.98247 -3.8100879,182.92747 -3.8100815,182.85372 C -3.8100877,182.77997 -3.8250874,182.72497 -3.8550807,182.68872 C -3.9490649,182.68584 -4.0761049,182.6646 -4.236201,182.62497 C -4.3963089,182.58535 -4.5625982,182.4666 -4.7350694,182.26873 L -6.9250412,179.66876 C -6.9694188,179.6196 -7.0006685,179.57543 -7.0187902,179.53626 C -7.0369182,179.4971 -7.045668,179.45793 -7.0450397,179.41876 C -7.0500636,179.38979 -7.0292723,179.3435 -6.9826656,179.27989 C -6.9360652,179.21629 -6.8335249,179.09925 -6.6750444,178.92877 L -5.2750624,177.41879 C -5.0446538,177.18421 -4.8204903,177.03588 -4.6025712,176.97379 C -4.3846632,176.91172 -4.1754994,176.87338 -3.9750792,176.85879 C -3.9450859,176.82255 -3.9300862,176.76755 -3.9300799,176.6938 C -3.930086,176.62005 -3.9450857,176.56505 -3.9750792,176.5288 C -4.1952907,176.53401 -4.3623717,176.5386 -4.4763228,176.54255 C -4.5902852,176.54651 -4.7398664,176.5486 -4.9250669,176.5488 C -5.1177777,176.5486 -5.2973586,176.54651 -5.4638099,176.54255 C -5.6302706,176.5386 -5.8273513,176.53401 -6.0550524,176.5288 C -6.0850563,176.56505 -6.1000561,176.62005 -6.100052,176.6938 C -6.1000559,176.76755 -6.0850561,176.82255 -6.0550524,176.85879 C -5.8553924,176.86197 -5.7034778,176.88613 -5.5993081,176.93129 C -5.4951475,176.97647 -5.5537301,177.12563 -5.775056,177.37879 L -7.4550344,179.13877 C -7.5527649,179.24489 -7.6608051,179.33189 -7.7791553,179.39976 C -7.8975102,179.46764 -8.0427998,179.50964 -8.2150246,179.52576 L -8.2150246,177.76878 C -8.2225263,177.36963 -8.1650271,177.11796 -8.0425268,177.01379 C -7.9200306,176.90963 -7.6875339,176.85797 -7.3450358,176.85879 C -7.3150392,176.82255 -7.3000394,176.76755 -7.3000365,176.6938 C -7.3000392,176.62005 -7.315039,176.56505 -7.3450358,176.5288 C -7.5817022,176.53401 -7.7958659,176.5386 -7.9875277,176.54255 C -8.1791937,176.54651 -8.3983573,176.5486 -8.6450191,176.5488 C -8.8862673,176.5486 -9.1012644,176.54651 -9.2900109,176.54255 C -9.4787591,176.5386 -9.6937561,176.53401 -9.9350024,176.5288 C -9.9650024,176.56505 -9.9800023,176.62005 -9.980002,176.6938 C -9.9800021,176.76755 -9.9650022,176.82255 -9.9350024,176.85879 C -9.5925073,176.85797 -9.3600106,176.90963 -9.2375114,177.01379 C -9.1150141,177.11796 -9.0575149,177.36963 -9.0650136,177.76878 L -9.0650136,181.77873 C -9.0575149,182.17789 -9.1150141,182.42956 -9.2375116,182.53372 C -9.3600108,182.63789 -9.5925075,182.68955 -9.9350024,182.68872 C -9.9650024,182.72497 -9.9800023,182.77997 -9.980002,182.85372 C -9.9800021,182.92747 -9.9650022,182.98247 -9.9350024,183.01872 C -9.6983395,183.01351 -9.4841758,183.00892 -9.2925109,183.00497 C -9.1008476,183.00101 -8.8816839,182.99892 -8.6350192,182.99872 C -8.3937741,182.99892 -8.1787771,183.00101 -7.9900276,183.00497 C -7.8012824,183.00892 -7.5862853,183.01351 -7.3450358,183.01872 C -7.3150392,182.98247 -7.3000394,182.92747 -7.3000365,182.85372 C -7.3000392,182.77997 -7.315039,182.72497 -7.3450358,182.68872 C -7.6875339,182.68955 -7.9200307,182.63789 -8.042527,182.53372 C -8.1650274,182.42956 -8.2225265,182.17789 -8.2150246,181.77873 L -8.2150246,181.77873 z M -1.8478371,181.77873 L -1.8478371,179.90976 C -1.680008,179.91386 -1.5296767,179.94615 -1.3968429,180.00663 C -1.2640137,180.06711 -1.147682,180.16115 -1.0478474,180.28875 L 0.58213162,182.26873 C 0.67752164,182.39197 0.73572909,182.51447 0.75675416,182.63622 C 0.7777702,182.75797 0.78622848,182.86547 0.78212905,182.95872 C 0.78170787,182.97434 0.78504116,182.98809 0.79212892,182.99997 C 0.79920758,183.01184 0.81254073,183.01809 0.83212841,183.01872 C 0.92878934,183.01351 1.0279547,183.00892 1.1296247,183.00497 C 1.231285,183.00101 1.3554499,182.99892 1.5021198,182.99872 C 1.6854453,182.99892 1.8437764,183.00101 1.9771135,183.00497 C 2.1104392,183.00892 2.2887701,183.01351 2.5121068,183.01872 C 2.5420999,182.98247 2.5570996,182.92747 2.557106,182.85372 C 2.5570998,182.77997 2.5421001,182.72497 2.5121068,182.68872 C 2.4181226,182.68584 2.2910826,182.6646 2.1309865,182.62497 C 1.9708786,182.58535 1.8045893,182.4666 1.6321181,182.26873 L -0.5578537,179.66876 C -0.60223132,179.6196 -0.63348096,179.57543 -0.65160272,179.53626 C -0.66973068,179.4971 -0.67848049,179.45793 -0.67785215,179.41876 C -0.68287613,179.38979 -0.6620848,179.3435 -0.61547813,179.27989 C -0.56887774,179.21629 -0.46633744,179.09925 -0.30785692,178.92877 L 1.0921251,177.41879 C 1.3225337,177.18421 1.5466972,177.03588 1.7646163,176.97379 C 1.9825243,176.91172 2.1916881,176.87338 2.3921083,176.85879 C 2.4221016,176.82255 2.4371013,176.76755 2.4371076,176.6938 C 2.4371015,176.62005 2.4221018,176.56505 2.3921083,176.5288 C 2.1718968,176.53401 2.0048158,176.5386 1.8908647,176.54255 C 1.7769023,176.54651 1.6273211,176.5486 1.4421206,176.5488 C 1.2494098,176.5486 1.0698289,176.54651 0.90337756,176.54255 C 0.73691687,176.5386 0.53983624,176.53401 0.3121351,176.5288 C 0.28213125,176.56505 0.26713141,176.62005 0.26713553,176.6938 C 0.26713161,176.76755 0.28213145,176.82255 0.3121351,176.85879 C 0.51179507,176.86197 0.66370967,176.88613 0.76787937,176.93129 C 0.87204001,176.97647 0.81345745,177.12563 0.5921315,177.37879 L -1.0878469,179.13877 C -1.1855774,179.24489 -1.2936176,179.33189 -1.4119678,179.39976 C -1.5303227,179.46764 -1.6756123,179.50964 -1.8478371,179.52576 L -1.8478371,177.76878 C -1.8553388,177.36963 -1.7978396,177.11796 -1.6753393,177.01379 C -1.5528431,176.90963 -1.3203464,176.85797 -0.97784829,176.85879 C -0.94785169,176.82255 -0.93285194,176.76755 -0.93284902,176.6938 C -0.93285175,176.62005 -0.94785149,176.56505 -0.97784829,176.5288 C -1.2145147,176.53401 -1.4286784,176.5386 -1.6203402,176.54255 C -1.8120062,176.54651 -2.0311698,176.5486 -2.2778316,176.5488 C -2.5190798,176.5486 -2.7340769,176.54651 -2.9228234,176.54255 C -3.1115716,176.5386 -3.3265686,176.53401 -3.5678149,176.5288 C -3.5978149,176.56505 -3.6128148,176.62005 -3.6128145,176.6938 C -3.6128146,176.76755 -3.5978147,176.82255 -3.5678149,176.85879 C -3.2253198,176.85797 -2.9928231,176.90963 -2.8703239,177.01379 C -2.7478266,177.11796 -2.6903274,177.36963 -2.6978261,177.76878 L -2.6978261,181.77873 C -2.6903274,182.17789 -2.7478266,182.42956 -2.8703241,182.53372 C -2.9928233,182.63789 -3.22532,182.68955 -3.5678149,182.68872 C -3.5978149,182.72497 -3.6128148,182.77997 -3.6128145,182.85372 C -3.6128146,182.92747 -3.5978147,182.98247 -3.5678149,183.01872 C -3.331152,183.01351 -3.1169883,183.00892 -2.9253234,183.00497 C -2.7336601,183.00101 -2.5144964,182.99892 -2.2678317,182.99872 C -2.0265866,182.99892 -1.8115896,183.00101 -1.6228401,183.00497 C -1.4340949,183.00892 -1.2190978,183.01351 -0.97784829,183.01872 C -0.94785169,182.98247 -0.93285194,182.92747 -0.93284902,182.85372 C -0.93285175,182.77997 -0.94785149,182.72497 -0.97784829,182.68872 C -1.3203464,182.68955 -1.5528432,182.63789 -1.6753395,182.53372 C -1.7978399,182.42956 -1.855339,182.17789 -1.8478371,181.77873 L -1.8478371,181.77873 z M 5.2393411,180.16875 C 5.1290899,180.16996 5.0540908,180.1613 5.0143437,180.14275 C 4.9745918,180.12421 4.965592,180.08855 4.9873443,180.03575 L 5.9893315,177.49879 L 6.0093312,177.49879 L 6.9793187,180.16875 L 5.2393411,180.16875 z M 4.159355,182.20873 L 4.709348,180.75874 C 4.7308037,180.69479 4.7653865,180.65021 4.8130964,180.625 C 4.8608019,180.59979 4.9428842,180.58771 5.0593435,180.58875 L 7.1393167,180.58875 L 7.7493088,182.27873 C 7.813407,182.47393 7.7681994,182.58951 7.6136858,182.62547 C 7.4591621,182.66143 7.2577065,182.68251 7.0093184,182.68872 C 6.9793142,182.72497 6.9643143,182.77997 6.9643188,182.85372 C 6.9643145,182.92747 6.9793144,182.98247 7.0093184,183.01872 C 7.2013945,183.01351 7.4172248,183.00892 7.65681,183.00497 C 7.8963851,183.00101 8.1172154,182.99892 8.3193015,182.99872 C 8.5230427,182.99892 8.71804,183.00101 8.9042938,183.00497 C 9.0905351,183.00892 9.2755325,183.01351 9.4592868,183.01872 C 9.4892793,182.98247 9.5042791,182.92747 9.5042861,182.85372 C 9.5042793,182.77997 9.4892795,182.72497 9.4592868,182.68872 C 9.2635951,182.68268 9.0882225,182.65101 8.9331685,182.59372 C 8.7781019,182.53643 8.6534786,182.38477 8.5592984,182.13873 L 6.5093248,176.7188 C 6.4748837,176.62187 6.4382592,176.54774 6.3994511,176.49642 C 6.3606354,176.44512 6.3072611,176.41924 6.2393283,176.4188 C 6.1680962,176.41693 6.1078052,176.44293 6.0584553,176.4968 C 6.0090984,176.55068 5.9570576,176.64368 5.9023325,176.7758 L 3.6793612,181.97873 C 3.5493826,182.27681 3.4040929,182.46864 3.2434917,182.55422 C 3.0828892,182.6398 2.8948502,182.68464 2.6793741,182.68872 C 2.6493742,182.72497 2.6343744,182.77997 2.6343745,182.85372 C 2.6343746,182.92747 2.6493744,182.98247 2.6793741,183.01872 C 2.8539549,183.01351 2.9997862,183.00892 3.1168685,183.00497 C 3.2339497,183.00101 3.384781,182.99892 3.5693626,182.99872 C 3.7789419,182.99892 3.9972722,183.00101 4.2243541,183.00497 C 4.4514327,183.00892 4.6597632,183.01351 4.8493462,183.01872 C 4.8793433,182.98247 4.894343,182.92747 4.8943454,182.85372 C 4.8943432,182.77997 4.8793435,182.72497 4.8493462,182.68872 C 4.6463466,182.68303 4.464849,182.65116 4.304853,182.5931 C 4.1448535,182.53503 4.0963542,182.40691 4.159355,182.20873 L 4.159355,182.20873 z M 11.452476,177.45879 C 11.443724,177.30525 11.498723,177.16234 11.617473,177.03004 C 11.73622,176.89776 11.971216,176.82734 12.322464,176.8188 C 12.681832,176.80193 12.998077,176.89318 13.271202,177.09254 C 13.54432,177.29192 13.688068,177.70066 13.702447,178.31878 C 13.700984,178.85461 13.573903,179.24293 13.321201,179.48376 C 13.068493,179.72459 12.698915,179.84293 12.212466,179.83876 C 12.078298,179.83855 11.934134,179.83397 11.779971,179.82501 C 11.625805,179.81605 11.51664,179.80397 11.452476,179.78876 L 11.452476,177.45879 z M 10.602487,177.76878 L 10.602487,181.77873 C 10.609985,182.17789 10.552486,182.42956 10.429989,182.53372 C 10.307489,182.63789 10.074993,182.68955 9.7324978,182.68872 C 9.7024979,182.72497 9.687498,182.77997 9.6874982,182.85372 C 9.6874982,182.92747 9.7024981,182.98247 9.7324978,183.01872 C 9.9691608,183.01351 10.183324,183.00892 10.374989,183.00497 C 10.566653,183.00101 10.785816,182.99892 11.032481,182.99872 C 11.306226,182.99892 11.553722,183.00101 11.774972,183.00497 C 11.996216,183.00892 12.228713,183.01351 12.472463,183.01872 C 12.502459,182.98247 12.517459,182.92747 12.517462,182.85372 C 12.517459,182.77997 12.502459,182.72497 12.472463,182.68872 C 12.088715,182.68518 11.821218,182.63226 11.669973,182.52997 C 11.518723,182.42768 11.446224,182.17727 11.452476,181.77873 L 11.452476,180.07875 C 11.560597,180.11355 11.679346,180.13896 11.808721,180.155 C 11.938092,180.17105 12.08934,180.17896 12.262465,180.17875 C 13.15745,180.14688 13.779942,179.91313 14.129941,179.47751 C 14.479932,179.0419 14.647429,178.59565 14.632435,178.13878 C 14.654721,177.8115 14.51264,177.46108 14.20619,177.08754 C 13.899731,176.71401 13.295156,176.5111 12.392464,176.4788 C 12.246629,176.48172 12.035799,176.49339 11.759971,176.5138 C 11.48414,176.53422 11.23831,176.54589 11.022481,176.5488 C 10.781233,176.5486 10.566236,176.54651 10.377489,176.54255 C 10.188741,176.5386 9.9737442,176.53401 9.7324978,176.5288 C 9.7024979,176.56505 9.687498,176.62005 9.6874982,176.6938 C 9.6874982,176.76755 9.7024981,176.82255 9.7324978,176.85879 C 10.074993,176.85797 10.30749,176.90963 10.429989,177.01379 C 10.552486,177.11796 10.609985,177.36963 10.602487,177.76878 L 10.602487,177.76878 z M 17.604965,179.38876 L 16.694977,179.38876 L 16.694977,177.38879 C 16.694975,177.26546 16.724974,177.16213 16.784975,177.07879 C 16.844973,176.99547 16.934971,176.95213 17.054972,176.94879 L 18.104958,176.94879 C 18.466409,176.95109 18.720988,177.04651 18.868699,177.23504 C 19.016401,177.42358 19.138482,177.6915 19.234944,178.03878 C 19.357938,178.05462 19.467936,178.03795 19.56494,177.98878 C 19.535144,177.754 19.494727,177.47108 19.443691,177.14004 C 19.392645,176.80901 19.359729,176.6086 19.344942,176.5388 C 19.346605,176.51881 19.333272,176.50881 19.304943,176.5088 C 19.225148,176.5236 19.152232,176.53401 19.086196,176.54005 C 19.020151,176.5461 18.929735,176.54901 18.814949,176.5488 L 16.264982,176.5488 C 16.242481,176.5486 16.089983,176.54651 15.807488,176.54255 C 15.524991,176.5386 15.247495,176.53401 14.974999,176.5288 C 14.944999,176.56505 14.929999,176.62005 14.929999,176.6938 C 14.929999,176.76755 14.944999,176.82255 14.974999,176.85879 C 15.317494,176.85797 15.549991,176.90963 15.67249,177.01379 C 15.794987,177.11796 15.852486,177.36963 15.844988,177.76878 L 15.844988,181.77873 C 15.852486,182.17789 15.794987,182.42956 15.67249,182.53372 C 15.54999,182.63789 15.317494,182.68955 14.974999,182.68872 C 14.944999,182.72497 14.929999,182.77997 14.929999,182.85372 C 14.929999,182.92747 14.944999,182.98247 14.974999,183.01872 C 15.243536,183.01351 15.521449,183.00892 15.808738,183.00497 C 16.096025,183.00101 16.251439,182.99892 16.274982,182.99872 L 18.424954,182.99872 C 18.68828,182.99955 18.96161,183.00288 19.244944,183.00872 C 19.528269,183.01455 19.6816,183.01788 19.704938,183.01872 C 19.776599,182.76226 19.845764,182.48518 19.912435,182.18748 C 19.979096,181.88977 20.033262,181.61019 20.074933,181.34874 C 19.971763,181.28657 19.855098,181.26991 19.724938,181.29874 C 19.630351,181.66832 19.482019,181.97665 19.279943,182.22373 C 19.077858,182.47081 18.789529,182.59914 18.414954,182.60872 L 17.054972,182.60872 C 16.943721,182.60768 16.856222,182.56976 16.792475,182.49497 C 16.728724,182.42018 16.696224,182.31477 16.694977,182.17873 L 16.694977,179.76876 L 17.604965,179.76876 C 18.012873,179.76897 18.267036,179.82605 18.367455,179.94001 C 18.467867,180.05396 18.517033,180.22355 18.514953,180.44875 C 18.551199,180.47875 18.606198,180.49375 18.679951,180.49375 C 18.753696,180.49375 18.808695,180.47875 18.844949,180.44875 C 18.839736,180.28021 18.835153,180.1323 18.831199,180.005 C 18.827237,179.87772 18.825153,179.7323 18.824949,179.56876 C 18.825154,179.40293 18.827237,179.2546 18.831199,179.12377 C 18.835154,178.99294 18.839737,178.85461 18.844949,178.70877 C 18.808695,178.67878 18.753696,178.66378 18.679951,178.66377 C 18.606198,178.66378 18.551199,178.67878 18.514953,178.70877 C 18.517033,178.97773 18.467867,179.15981 18.367455,179.25501 C 18.267036,179.35022 18.012873,179.39481 17.604965,179.38876 L 17.604965,179.38876 z M 22.273257,182.16873 L 22.273257,177.35879 C 22.27763,177.18525 22.356379,177.05984 22.509504,176.98254 C 22.662625,176.90526 22.863872,176.86734 23.113246,176.86879 C 23.828665,176.8809 24.396682,177.05114 24.817298,177.37953 C 25.237905,177.70792 25.538518,178.12187 25.719138,178.62136 C 25.899747,179.12087 25.987771,179.63333 25.983209,180.15875 C 25.962162,181.14749 25.701749,181.81998 25.201969,182.17623 C 24.702179,182.53247 24.089271,182.69997 23.363243,182.67872 C 22.889079,182.67747 22.584917,182.63247 22.450754,182.54372 C 22.316587,182.45497 22.257421,182.32997 22.273257,182.16873 L 22.273257,182.16873 z M 21.843262,176.5488 C 21.602014,176.5486 21.387017,176.54651 21.19827,176.54255 C 21.009522,176.5386 20.794525,176.53401 20.553279,176.5288 C 20.523279,176.56505 20.508279,176.62005 20.508279,176.6938 C 20.508279,176.76755 20.523279,176.82255 20.553279,176.85879 C 20.895774,176.85797 21.128271,176.90963 21.25077,177.01379 C 21.373267,177.11796 21.430766,177.36963 21.423268,177.76878 L 21.423268,181.77873 C 21.430766,182.17789 21.373267,182.42956 21.25077,182.53372 C 21.12827,182.63789 20.895774,182.68955 20.553279,182.68872 C 20.523279,182.72497 20.508279,182.77997 20.508279,182.85372 C 20.508279,182.92747 20.523279,182.98247 20.553279,183.01872 C 20.789942,183.01351 21.004105,183.00892 21.19577,183.00497 C 21.387434,183.00101 21.606597,182.99892 21.853262,182.99872 C 22.026591,182.99955 22.247422,183.00288 22.515753,183.00872 C 22.784081,183.01455 23.169909,183.01788 23.673239,183.01872 C 24.157488,183.026 24.648962,182.94032 25.147664,182.76168 C 25.646356,182.58304 26.06672,182.26774 26.408759,181.81577 C 26.750785,181.3638 26.928931,180.73146 26.943197,179.91876 C 26.91944,178.96377 26.584445,178.16628 25.938209,177.52629 C 25.291963,176.8863 24.476974,176.5538 23.493241,176.5288 C 23.168867,176.52964 22.862622,176.53297 22.574503,176.5388 C 22.28638,176.54464 22.042633,176.54797 21.843262,176.5488 L 21.843262,176.5488 z M 30.744957,181.77873 L 30.744957,180.32175 C 30.73962,180.14282 30.743537,180.02819 30.756706,179.97788 C 30.76987,179.92757 30.824285,179.8212 30.919954,179.65876 L 32.196938,177.34879 C 32.327661,177.10926 32.45145,176.96959 32.568308,176.92979 C 32.685155,176.89001 32.850695,176.86634 33.064927,176.85879 C 33.09492,176.82297 33.10992,176.76964 33.109926,176.6988 C 33.10992,176.62797 33.094921,176.57464 33.064927,176.5388 C 32.913465,176.5436 32.766384,176.54651 32.623682,176.54755 C 32.480971,176.5486 32.351389,176.54901 32.234937,176.5488 C 32.121392,176.54901 31.990977,176.5486 31.843692,176.54755 C 31.696398,176.54651 31.523484,176.5436 31.324949,176.5388 C 31.294945,176.57464 31.279946,176.62797 31.27995,176.6988 C 31.279946,176.76964 31.294946,176.82297 31.324949,176.85879 C 31.552275,176.86145 31.713856,176.8759 31.809693,176.90217 C 31.90552,176.92845 31.900604,177.04065 31.794943,177.23879 L 30.604958,179.47876 C 30.561997,179.5623 30.525415,179.60022 30.49521,179.59251 C 30.464999,179.5848 30.428916,179.54022 30.386961,179.45876 L 29.124977,177.23879 C 29.003269,177.03847 28.979686,176.92563 29.054228,176.90029 C 29.128767,176.87497 29.305681,176.86113 29.584972,176.85879 C 29.614969,176.82255 29.629968,176.76755 29.629971,176.6938 C 29.629969,176.62005 29.614969,176.56505 29.584972,176.5288 C 29.387472,176.53401 29.197475,176.5386 29.014979,176.54255 C 28.83248,176.54651 28.642482,176.5486 28.444986,176.5488 C 28.250613,176.5486 28.069365,176.54651 27.901243,176.54255 C 27.73312,176.5386 27.574372,176.53401 27.424999,176.5288 C 27.395416,176.56505 27.382083,176.62005 27.385,176.6938 C 27.387917,176.76755 27.404583,176.82255 27.434999,176.85879 C 27.632413,176.85709 27.790327,176.88701 27.908743,176.94854 C 28.027158,177.01009 28.181572,177.2035 28.371987,177.52879 L 29.68497,179.73876 C 29.770279,179.87261 29.827153,179.9749 29.855593,180.04563 C 29.884027,180.11636 29.897152,180.2374 29.894968,180.40875 L 29.894968,181.77873 C 29.904548,182.17789 29.842882,182.42956 29.70997,182.53372 C 29.577053,182.63789 29.31539,182.68955 28.92498,182.68872 C 28.894979,182.72497 28.879979,182.77997 28.87998,182.85372 C 28.879979,182.92747 28.894979,182.98247 28.92498,183.01872 C 29.163308,183.01351 29.389139,183.00892 29.602471,183.00497 C 29.8158,183.00101 30.05663,182.99892 30.324962,182.99872 C 30.587872,182.99892 30.824535,183.00101 31.034953,183.00497 C 31.245363,183.00892 31.472026,183.01351 31.714944,183.01872 C 31.744939,182.98247 31.759939,182.92747 31.759943,182.85372 C 31.759939,182.77997 31.744939,182.72497 31.714944,182.68872 C 31.324529,182.68955 31.062865,182.63789 30.929954,182.53372 C 30.797036,182.42956 30.73537,182.17789 30.744957,181.77873 L 30.744957,181.77873 z" id="flowRoot2941"></path></svg>
