<?xml version="1.0" encoding="UTF-8" standalone="no"?>
<!-- Generator: Adobe Illustrator 15.1.0, SVG Export Plug-In . SVG Version: 6.00 Build 0)  -->
<svg xmlns:dc="http://purl.org/dc/elements/1.1/" xmlns:cc="http://creativecommons.org/ns#" xmlns:rdf="http://www.w3.org/1999/02/22-rdf-syntax-ns#" xmlns:svg="http://www.w3.org/2000/svg" xmlns="http://www.w3.org/2000/svg" xmlns:sodipodi="http://sodipodi.sourceforge.net/DTD/sodipodi-0.dtd" xmlns:inkscape="http://www.inkscape.org/namespaces/inkscape" version="1.1" id="svg3857" inkscape:version="0.46" sodipodi:docname="Wikipedia-logo-v2-sc-v2.svg" x="0px" y="0px" width="135px" height="155px" viewBox="0 0 135 155" enable-background="new 0 0 135 155" xml:space="preserve" sodipodi:version="0.32" inkscape:output_extension="org.inkscape.output.svg.inkscape"><metadata id="metadata698"><rdf:rdf><cc:work rdf:about=""><dc:format>image/svg+xml</dc:format><dc:type rdf:resource="http://purl.org/dc/dcmitype/StillImage"></dc:type></cc:work></rdf:rdf></metadata><defs id="defs3"></defs><sodipodi:namedview id="namedview4848" showgrid="false" pagecolor="#ffffff" objecttolerance="10" guidetolerance="10" inkscape:cy="72.426744" inkscape:guide-bbox="true" showguides="true" inkscape:zoom="3.6973651" inkscape:pageopacity="0" gridtolerance="10" inkscape:window-height="723" bordercolor="#666666" inkscape:window-y="24" borderopacity="1" inkscape:pageshadow="2" inkscape:window-x="0" inkscape:window-width="1024" inkscape:cx="67.439" inkscape:current-layer="svg3857" inkscape:window-maximized="0">
	<sodipodi:guide id="globe_top" orientation="0,1" position="0,140"></sodipodi:guide>
	<sodipodi:guide id="globe_left" orientation="1,0" position="16,0"></sodipodi:guide>
	<sodipodi:guide id="globe_right" orientation="1,0" position="119,0"></sodipodi:guide>
	<sodipodi:guide id="globe_bottom" orientation="0,1" position="0,47"></sodipodi:guide>
	<sodipodi:guide id="wordmark_top" orientation="0,1" position="8,40"></sodipodi:guide>
	<sodipodi:guide id="wordmark_bottom" orientation="0,1" position="8,22.5"></sodipodi:guide>
	<sodipodi:guide id="subtitle_top" orientation="0,1" position="0,17"></sodipodi:guide>
	<sodipodi:guide id="subtitle_bottom" orientation="0,1" position="0,8"></sodipodi:guide>
	<sodipodi:guide id="wordmark_left" orientation="1,0" position="8,40"></sodipodi:guide>
	<sodipodi:guide id="wordmark_right" orientation="1,0" position="127,40"></sodipodi:guide>
</sodipodi:namedview><g id="Wikipedia">
	<path id="path3898" d="M18.757,118.893c0,0-0.367-0.746-0.492-0.994c-0.834-1.652-0.816-1.74-1.659-1.852   c-0.236-0.031-0.358-0.061-0.358-0.178v-0.523l0.071-0.051c1.523-0.002,4.912-0.002,4.912-0.002l0.13,0.043v0.521   c0,0.119-0.085,0.18-0.258,0.18l-0.356,0.051c-0.9,0.07-0.753,0.438-0.155,1.629l5.677,11.615l0.194,0.053l5.04-11.961   c0.175-0.482,0.148-0.824-0.077-1.025c-0.226-0.195-0.385-0.312-0.969-0.336l-0.473-0.023c-0.058,0-0.113-0.021-0.166-0.061   c-0.052-0.037-0.079-0.086-0.079-0.145v-0.498l0.072-0.051c1.42,0,5.694,0,5.694,0l0.058,0.051v0.498   c0,0.135-0.077,0.203-0.229,0.203c-0.746,0.033-1.299,0.195-1.657,0.484c-0.359,0.291-0.639,0.691-0.84,1.213   c0,0-4.635,10.608-6.221,14.135c-0.607,1.156-1.204,1.05-1.729-0.033c-1.109-2.284-4.232-9.213-4.232-9.213L18.757,118.893z"></path>
	<path id="path3900" d="M27.853,115.287c0,0-3.203-0.01-4.629,0l-0.071,0.051v0.496c0,0.061,0.026,0.109,0.078,0.146   c0.053,0.039,0.107,0.059,0.165,0.059l0.229,0.025c0.583,0.023,0.851,0.177,0.931,0.272c0.139,0.17,0.208,0.354-0.129,1.089   l-5.98,11.928l-0.157-0.041c0,0-4.283-9.031-5.523-12.053c-0.129-0.312-0.187-0.545-0.187-0.688c0-0.307,0.277-0.473,0.831-0.496   l0.646-0.027c0.171,0,0.258-0.066,0.258-0.203v-0.496l-0.058-0.051c0,0-5.13-0.006-6.19,0l-0.058,0.051v0.521   c0,0.094,0.119,0.152,0.358,0.178c0.651,0.035,1.079,0.139,1.285,0.312c0.205,0.175,0.422,0.617,0.71,1.306   c1.557,3.74,4.865,10.414,6.476,14.215c0.464,1.038,1.047,1.199,1.755-0.032c1.226-2.273,4.55-9.218,4.55-9.218l2.618-4.896   c0.305-0.518,0.599-0.979,0.748-1.193c0.273-0.393,0.426-0.467,1.172-0.502c0.152,0,0.229-0.068,0.229-0.205v-0.496L27.853,115.287   z"></path>
	<path id="path3904" d="M37.592,130.77c0,0.572,0.26,0.91,1.092,0.988l0.546,0.053c0.078,0,0.156,0.051,0.156,0.155v0.546   l-0.026,0.053c0,0-1.976-0.053-2.782-0.053c-0.728,0-2.756,0.053-2.756,0.053l-0.052-0.053v-0.546c0-0.104,0.078-0.155,0.182-0.155   l0.52-0.053c0.858-0.078,1.118-0.494,1.118-0.988v-8.658c0-0.57-0.313-0.729-1.118-0.805l-0.52-0.054   c-0.104,0-0.182-0.024-0.182-0.104v-0.599l0.026-0.052c0,0,2.054,0.052,2.86,0.052c0.702,0,2.704-0.052,2.704-0.052l0.026,0.052   v0.572c0,0.078-0.052,0.13-0.156,0.13l-0.546,0.053c-0.806,0.077-1.092,0.286-1.092,0.807V130.77z"></path>
	<path id="path3906" d="M45.265,130.77c0,0.572,0.338,0.858,1.092,0.988l0.286,0.053c0.078,0.025,0.156,0.051,0.156,0.155v0.546   l-0.026,0.053c0,0-1.638-0.053-2.418-0.053c-0.728,0-2.86,0.053-2.86,0.053l-0.052-0.053v-0.546c0-0.104,0.078-0.155,0.182-0.155   l0.52-0.053c0.78-0.078,1.118-0.494,1.118-0.988v-8.658c0-0.57-0.286-0.729-1.118-0.805l-0.52-0.054   c-0.104,0-0.182-0.024-0.182-0.104v-0.599l0.026-0.052c0,0,2.132,0.052,2.938,0.052c0.729,0,2.366-0.052,2.366-0.052l0.026,0.052   v0.572c0,0.078-0.052,0.104-0.156,0.13l-0.286,0.053c-0.806,0.155-1.092,0.286-1.092,0.807v3.927c0.858,0,1.352-0.44,2.496-1.664   c1.04-1.146,1.846-2.104,1.846-2.601c0-0.209-0.234-0.441-0.754-0.521c-0.104-0.024-0.156-0.052-0.156-0.13v-0.6l0.026-0.024   c0,0,2.106,0.052,2.86,0.052c0.676,0,1.82-0.052,1.82-0.052l0.078,0.024v0.6c0,0.078-0.078,0.13-0.208,0.13   c-1.014,0.078-1.716,0.13-2.652,1.196l-2.236,2.572c-0.442,0.47-0.598,0.754-0.598,0.963c0,0.156,0.104,0.285,0.234,0.441   l3.926,4.732c0.312,0.363,0.936,0.52,1.456,0.623l0.13,0.025c0.078,0.025,0.182,0.077,0.182,0.155v0.546l-0.078,0.026   c0,0-1.378-0.026-2.106-0.026c-0.65,0-1.586,0.026-1.586,0.026l-0.026-0.026v-0.312c0-0.339-0.026-0.623-0.39-1.039l-2.886-3.589   c-0.39-0.521-0.806-0.649-1.378-0.649V130.77L45.265,130.77z"></path>
	<path id="path3908" d="M59.282,130.77c0,0.572,0.26,0.91,1.092,0.988l0.546,0.053c0.078,0,0.156,0.051,0.156,0.155v0.546   l-0.026,0.053c0,0-1.976-0.053-2.782-0.053c-0.728,0-2.756,0.053-2.756,0.053l-0.052-0.053v-0.546c0-0.104,0.078-0.155,0.182-0.155   l0.52-0.053c0.858-0.078,1.118-0.494,1.118-0.988v-8.658c0-0.57-0.312-0.729-1.118-0.805l-0.52-0.054   c-0.104,0-0.182-0.024-0.182-0.104v-0.599l0.026-0.052c0,0,2.054,0.052,2.86,0.052c0.702,0,2.704-0.052,2.704-0.052l0.026,0.052   v0.572c0,0.078-0.052,0.13-0.156,0.13l-0.546,0.053c-0.806,0.077-1.092,0.286-1.092,0.807V130.77z"></path>
	<path id="path3910" d="M64.9,122.163c0-0.806-0.338-0.832-1.56-0.91c-0.156,0-0.182-0.077-0.182-0.13v-0.598l0.052-0.026   c0.39,0,1.924,0.052,2.678,0.052c0.728,0,1.768-0.052,2.73-0.052c3.69,0,4.366,1.819,4.366,3.173c0,1.561-0.754,4.004-4.444,4.004   c-0.65,0-1.17-0.053-1.639-0.26v3.482c0,0.571,0.312,0.703,1.145,0.832l0.521,0.078c0.104,0.025,0.183,0.053,0.183,0.155v0.546   l-0.024,0.053c0,0-2.081-0.053-2.887-0.053c-0.728,0-2.678,0.053-2.678,0.053l-0.026-0.053v-0.546c0-0.104,0.052-0.13,0.156-0.155   l0.546-0.078c0.806-0.104,1.066-0.338,1.066-0.832L64.9,122.163L64.9,122.163L64.9,122.163z M66.902,126.688   c0.52,0.209,1.17,0.234,1.69,0.234c1.561,0,2.312-0.938,2.312-2.938c0-2.236-1.014-2.73-2.442-2.73   c-1.249,0-1.561,0.234-1.561,0.91L66.902,126.688L66.902,126.688z"></path>
	<path id="path3912" d="M77.462,132.512c-0.78,0-2.573,0.053-2.573,0.053l-0.027-0.053v-0.572c0-0.051,0.027-0.129,0.156-0.129   l0.6-0.053c0.807-0.078,1.041-0.598,1.041-1.117v-8.58c0-0.6-0.312-0.703-1.041-0.754l-0.6-0.054   c-0.156-0.024-0.156-0.077-0.156-0.104v-0.599l0.027-0.052c0,0,2.027,0.052,2.807,0.052h3.822c0.78,0,2.627-0.052,2.627-0.052   l0.054,0.052c0.024,1.118,0.206,2.134,0.39,3.121l-0.648,0.104c-0.285-0.963-0.779-2.34-2.443-2.34h-2.08   c-0.494,0-0.754,0.182-0.754,0.623v3.771h1.949c0.729,0,0.91-0.312,1.015-0.832l0.155-0.546c0-0.078,0.053-0.131,0.156-0.131h0.44   c0.054,0,0.054,0.027,0.054,0.078c-0.054,0.571-0.156,1.301-0.156,1.925c0,0.649,0.104,1.196,0.156,1.794l-0.054,0.053h-0.44   c-0.129,0-0.184-0.053-0.184-0.131l-0.13-0.571c-0.104-0.521-0.338-0.807-1.017-0.807H78.66v3.979c0,0.492,0.283,0.986,0.754,0.986   h2.47c1.326,0,2.056-0.832,2.366-2.186l0.648,0.078l-0.521,2.989l-0.052,0.052c0,0-1.534-0.052-2.314-0.052L77.462,132.512   L77.462,132.512L77.462,132.512z"></path>
	<path id="path3914" d="M87.24,131.811l0.598-0.053c0.781-0.078,1.041-0.312,1.041-1.117v-8.58c0-0.678-0.184-0.678-1.041-0.754   l-0.57-0.054c-0.104,0-0.184-0.052-0.184-0.13v-0.572l0.025-0.052c0,0,2.289,0.052,2.758,0.052c0.492,0,2.756-0.052,3.432-0.052   c4.342,0,6.475,2.704,6.475,6.162c0,4.551-3.225,5.901-6.109,5.901c-2.08,0-2.989-0.053-3.795-0.053   c-0.781,0-2.758,0.053-2.758,0.053l-0.025-0.053v-0.546C87.084,131.889,87.137,131.811,87.24,131.811z M93.039,131.811   c2.859,0,4.473-1.064,4.473-4.707c0-2.703-0.599-5.851-4.967-5.851c-1.014,0-1.664,0.156-1.664,0.808v8.58   C90.881,131.367,91.062,131.811,93.039,131.811z"></path>
	<path id="path3916" d="M105.912,130.77c0,0.572,0.26,0.91,1.092,0.988l0.546,0.053c0.078,0,0.156,0.051,0.156,0.155v0.546   l-0.026,0.053c0,0-1.976-0.053-2.781-0.053c-0.729,0-2.756,0.053-2.756,0.053l-0.053-0.053v-0.546c0-0.104,0.078-0.155,0.182-0.155   l0.521-0.053c0.857-0.078,1.118-0.494,1.118-0.988v-8.658c0-0.57-0.313-0.729-1.118-0.805l-0.521-0.054   c-0.104,0-0.182-0.024-0.182-0.104v-0.599l0.026-0.052c0,0,2.054,0.052,2.858,0.052c0.701,0,2.705-0.052,2.705-0.052l0.024,0.052   v0.572c0,0.078-0.054,0.13-0.156,0.13l-0.546,0.053c-0.807,0.077-1.092,0.286-1.092,0.807L105.912,130.77L105.912,130.77   L105.912,130.77z"></path>
	<path id="path3918" d="M113.922,131.758l0.754,0.053c0.104,0,0.208,0.078,0.208,0.207v0.494l-0.052,0.053   c0,0-2.834-0.053-3.458-0.053c-0.677,0-2.341,0.053-2.341,0.053l-0.053-0.053v-0.494c0-0.129,0.078-0.207,0.209-0.207   c1.145-0.078,1.793-0.287,2.521-1.951l5.771-13.521c0.285-0.676,0.494-0.937,0.886-0.937c0.362,0,0.493,0.261,0.7,0.781   l5.33,14.092c0.365,1.015,0.886,1.404,1.926,1.508l0.285,0.025c0.131,0,0.261,0.077,0.261,0.209v0.492l-0.078,0.053   c0,0-2.002-0.053-3.017-0.053c-0.91,0-3.459,0.053-3.459,0.053l-0.024-0.053v-0.492c0-0.132,0.052-0.209,0.185-0.209l0.728-0.053   c0.987-0.077,1.353-0.391,1.092-1.117l-1.586-4.396H115.3c-0.624,0-0.78,0.104-0.909,0.44l-1.509,3.771   C112.622,131.107,112.96,131.68,113.922,131.758z M120.292,125.152l-2.522-6.941h-0.052l-2.6,6.604   c-0.104,0.262,0.077,0.338,0.649,0.338H120.292L120.292,125.152z"></path>
</g><path d="M 13.033691,142.79883 C 13.054841,142.95964 13.076001,143.15219 13.097171,143.37646 C 13.122551,143.59652 13.145831,143.78907 13.166991,143.9541 C 13.188141,144.11492 13.215651,144.28842 13.249511,144.47461 L 12.849608,144.55081 C 12.790358,144.35192 12.73323,144.18477 12.678222,144.04935 C 12.627432,143.90971 12.55338,143.76159 12.456054,143.60501 C 12.358724,143.44421 12.248693,143.31726 12.125976,143.22415 C 12.007482,143.12685 11.853022,143.04642 11.662597,142.98294 C 11.472163,142.91944 11.256343,142.88774 11.015136,142.88774 C 10.596188,142.88774 10.253415,143.02951 9.9868154,143.31303 C 9.7202121,143.59233 9.5869115,143.93511 9.5869131,144.34135 C 9.5869115,145.09884 10.175127,145.68917 11.351562,146.11234 C 11.601232,146.20124 11.821284,146.29008 12.011718,146.37895 C 12.206375,146.46355 12.4095,146.57996 12.621093,146.72807 C 12.836908,146.87195 13.014642,147.02641 13.154296,147.19145 C 13.293939,147.35649 13.410313,147.56173 13.503417,147.80717 C 13.596507,148.05261 13.64306,148.31922 13.643065,148.60697 C 13.64306,149.27983 13.378574,149.86804 12.849608,150.37162 C 12.320633,150.8752 11.687984,151.12699 10.951659,151.12699 C 10.558102,151.12699 10.141273,151.09529 9.7011709,151.03179 C 9.2610654,150.96829 8.92464,150.93659 8.6918935,150.93659 C 8.6707345,150.47956 8.5882146,149.78555 8.4443349,148.85456 L 8.8442373,148.81646 C 9.1023742,150.0479 9.8387016,150.66362 11.053222,150.66362 C 11.552567,150.66362 11.935542,150.52821 12.202147,150.25737 C 12.468745,149.98654 12.602045,149.58876 12.60205,149.06401 C 12.602045,148.78895 12.56608,148.54986 12.49414,148.34673 C 12.42219,148.13938 12.314285,147.96587 12.170409,147.82622 C 12.026525,147.68234 11.878413,147.56809 11.726073,147.48345 C 11.573726,147.39455 11.385412,147.30572 11.161132,147.21685 C 10.881832,147.11106 10.642737,147.01161 10.443847,146.91851 C 10.244951,146.82541 10.027015,146.70481 9.7900381,146.55669 C 9.5572891,146.40435 9.3668596,146.24566 9.218749,146.08062 C 9.0748677,145.91558 8.9521465,145.71457 8.8505849,145.47759 C 8.7532539,145.23638 8.7045881,144.97613 8.7045888,144.69683 C 8.7045881,144.25673 8.8294253,143.86106 9.0791006,143.50982 C 9.3287737,143.15859 9.6355768,142.8941 9.9995107,142.71636 C 10.367672,142.5344 10.746416,142.44342 11.135741,142.44341 C 11.491206,142.44342 11.770503,142.46461 11.973632,142.50691 C 12.176753,142.54921 12.360834,142.60211 12.525878,142.6656 C 12.690912,142.7291 12.860183,142.77352 13.03369,142.7989 M 16.245703,141.92285 C 16.503839,141.92286 16.711196,142.04135 16.867774,142.27832 C 17.024347,142.51108 17.102634,142.82211 17.102637,143.21143 C 17.102634,143.64731 16.952407,144.01759 16.651953,144.32227 C 16.351496,144.62273 15.991796,144.81104 15.572852,144.88721 C 15.492452,144.81101 15.452245,144.70736 15.452246,144.57617 C 15.765396,144.49997 16.034113,144.34766 16.258399,144.11914 C 16.48268,143.8864 16.594822,143.69174 16.594824,143.53516 C 16.594822,143.29818 16.440363,143.16488 16.131445,143.13525 C 15.750585,143.07175 15.560155,142.88136 15.560156,142.56396 C 15.560155,142.38201 15.623636,142.22966 15.750586,142.10693 C 15.88177,141.98422 16.046809,141.92286 16.245703,141.92285 M 19.667188,147.26758 L 22.053906,147.26758 C 22.176624,147.26758 22.237984,147.20838 22.237988,147.08984 C 22.237984,146.83171 22.204128,146.60954 22.136426,146.42334 C 22.072946,146.23715 21.984078,146.0975 21.869824,146.00439 C 21.759795,145.90709 21.645537,145.83936 21.527051,145.80127 C 21.41279,145.75897 21.290069,145.73777 21.158887,145.73777 C 21.074247,145.73778 20.989613,145.74377 20.904981,145.75687 C 20.824571,145.76487 20.714548,145.79917 20.574903,145.85843 C 20.435252,145.91343 20.310415,145.99173 20.200391,146.09329 C 20.094595,146.19486 19.9888,146.3472 19.883008,146.55032 C 19.781444,146.75345 19.709504,146.99255 19.667188,147.26761 M 23.094922,149.76224 C 23.230334,149.77494 23.317085,149.84474 23.355176,149.97171 C 23.097033,150.32718 22.779651,150.60859 22.403028,150.81595 C 22.026396,151.0233 21.611683,151.12698 21.158887,151.12698 C 20.312531,151.12698 19.671418,150.87308 19.235547,150.36526 C 18.803906,149.85745 18.588086,149.20576 18.588086,148.41019 C 18.588086,147.93623 18.664256,147.49824 18.816602,147.09622 C 18.968945,146.69421 19.167838,146.36413 19.413281,146.10599 C 19.658723,145.84785 19.931672,145.64896 20.232129,145.50931 C 20.536814,145.36543 20.845733,145.29349 21.158887,145.29349 C 21.488962,145.29349 21.780954,145.33789 22.034863,145.42679 C 22.288766,145.51569 22.49189,145.63203 22.644238,145.77591 C 22.800809,145.91556 22.927762,146.08695 23.025098,146.29007 C 23.122428,146.4932 23.188016,146.69632 23.221875,146.89944 C 23.259955,147.10257 23.278995,147.32051 23.279005,147.55325 C 23.279,147.70137 23.200715,147.77542 23.044142,147.77542 L 19.622755,147.77542 C 19.622754,148.14782 19.662955,148.49059 19.743361,148.80374 C 19.827991,149.11266 19.933788,149.36868 20.060743,149.57181 C 20.191926,149.77493 20.340038,149.94844 20.505079,150.09232 C 20.674348,150.23196 20.839387,150.33353 21.000197,150.397 C 21.161001,150.4605 21.317576,150.4922 21.469923,150.4922 C 21.821156,150.4922 22.121612,150.4351 22.37129,150.32081 C 22.62096,150.20232 22.862171,150.01612 23.094923,149.76222 M 26.262501,145.29346 L 26.224411,146.44873 L 26.262501,146.44873 C 26.647589,145.99594 27.003058,145.69125 27.328907,145.53467 C 27.658982,145.37387 28.010218,145.29346 28.382618,145.29346 C 28.666142,145.29346 28.903121,145.34426 29.093555,145.4458 C 29.288212,145.54737 29.436324,145.6976 29.537891,145.89648 C 29.639448,146.09115 29.709273,146.30485 29.747364,146.5376 C 29.789674,146.76612 29.810834,147.03695 29.810844,147.3501 L 29.810844,150.06689 C 29.810838,150.25309 29.851044,150.38851 29.931449,150.47314 C 30.011849,150.55354 30.153611,150.60433 30.356742,150.62549 L 30.604301,150.65089 C 30.680461,150.66779 30.718552,150.70169 30.718558,150.75245 L 30.718558,151.00001 L 30.693168,151.02541 C 29.999149,151.00846 29.53577,151 29.303028,151 C 29.137984,151 28.70846,151.008 28.014454,151.0254 L 27.989063,151 L 27.989063,150.75244 C 27.989059,150.69744 28.025033,150.66354 28.096973,150.65088 L 28.274708,150.62548 C 28.490524,150.59158 28.63652,150.53658 28.712696,150.46044 C 28.793096,150.38004 28.833297,150.24885 28.833302,150.06688 L 28.833302,147.25487 C 28.833297,146.77246 28.774052,146.42968 28.655567,146.22655 C 28.541305,146.0192 28.319137,145.91552 27.989063,145.91552 C 27.688604,145.91552 27.405076,145.98962 27.138477,146.13769 C 26.871873,146.2858 26.579881,146.54606 26.262501,146.91845 L 26.262501,150.06688 C 26.262499,150.25308 26.300581,150.38427 26.376759,150.46044 C 26.457159,150.53664 26.605272,150.59162 26.821095,150.62548 L 27.005177,150.65088 C 27.072887,150.66358 27.106736,150.69738 27.106739,150.75244 L 27.106739,151 L 27.081349,151.0254 C 26.387336,151.00846 25.945116,151 25.754688,151 C 25.54733,151 25.096647,151.008 24.402637,151.0254 L 24.377247,151 L 24.377247,150.75244 C 24.377247,150.69744 24.411097,150.66354 24.478809,150.65088 L 24.726368,150.62548 C 24.942187,150.60428 25.088183,150.55358 25.164356,150.47313 C 25.244756,150.39273 25.284961,150.25731 25.284962,150.06688 L 25.284962,146.82958 C 25.284961,146.52067 25.261682,146.31331 25.215132,146.20751 C 25.172812,146.09749 25.100874,146.03613 24.999312,146.02343 L 24.440718,145.96633 L 24.415328,145.65529 C 25.244754,145.52835 25.843549,145.39505 26.211715,145.25539 C 26.245565,145.2554 26.262495,145.26809 26.262495,145.29349 M 33.441797,145.92822 L 33.441797,149.21631 C 33.441795,149.64372 33.471417,149.95052 33.530667,150.13672 C 33.589907,150.32292 33.702052,150.41602 33.867093,150.41602 C 34.17601,150.41602 34.48916,150.29329 34.806546,150.04785 C 34.937728,150.06905 35.016015,150.14305 35.04141,150.27002 C 34.533594,150.84131 33.991928,151.12695 33.41641,151.12695 C 32.781643,151.12695 32.46426,150.69954 32.464261,149.84473 L 32.464261,145.92822 L 31.620023,145.92822 C 31.586173,145.92823 31.569243,145.91132 31.569243,145.87742 L 31.569243,145.47752 C 31.569242,145.43942 31.581943,145.42042 31.607333,145.42042 C 32.022045,145.42043 32.305574,145.30194 32.457919,145.06495 C 32.610261,144.82375 32.686433,144.44077 32.686434,143.91603 L 32.686434,143.66847 L 33.441805,143.40821 L 33.441805,145.42042 L 34.870028,145.42042 C 34.941968,145.42043 34.977934,145.44792 34.977938,145.50292 L 34.977938,145.76317 C 34.977934,145.81397 34.944078,145.85417 34.876376,145.88378 C 34.808666,145.91338 34.736724,145.92818 34.660555,145.92818 L 33.441805,145.92818 M 36.412598,145.25537 C 36.454918,145.26337 36.526855,145.29347 36.628418,145.34427 C 36.729979,145.39507 36.861164,145.42047 37.021973,145.42047 L 39.662598,145.42047 C 39.77262,145.42048 39.893225,145.41447 40.024414,145.40147 C 40.159826,145.38457 40.271968,145.36977 40.36084,145.35707 C 40.45393,145.34017 40.506831,145.33167 40.519531,145.33167 C 40.625321,145.33168 40.678218,145.36127 40.678223,145.42057 C 40.678218,145.48827 40.583003,145.67025 40.392578,145.96647 L 37.269531,150.55582 L 38.996094,150.55582 C 39.347327,150.55582 39.605465,150.47962 39.770508,150.32731 C 39.939774,150.17497 40.111161,149.90625 40.284668,149.52116 L 40.456055,149.1403 L 40.79248,149.2292 C 40.610509,149.84281 40.470861,150.43314 40.373535,151.0002 L 36.374512,151.0002 C 36.175618,151.0002 36.076171,150.9473 36.076172,150.84151 C 36.076171,150.78651 36.114262,150.69974 36.19043,150.58125 L 39.389648,145.86495 L 37.593262,145.86495 C 37.373208,145.86495 37.165851,145.96015 36.971191,146.15059 C 36.776529,146.33679 36.619953,146.64994 36.501465,147.09004 L 36.165039,147.04564 C 36.28776,146.27969 36.353352,145.69571 36.361816,145.29369 C 36.361816,145.26829 36.378746,145.25559 36.412596,145.25559 M 42.754005,144.03027 C 42.631283,143.90756 42.569922,143.76156 42.569923,143.59229 C 42.569922,143.42302 42.631283,143.27703 42.754005,143.1543 C 42.876725,143.02735 43.022721,142.96388 43.191994,142.96387 C 43.361263,142.96388 43.507259,143.02527 43.629982,143.14795 C 43.756933,143.27068 43.820409,143.41879 43.820412,143.59229 C 43.820409,143.76156 43.756932,143.90756 43.629982,144.03027 C 43.507259,144.153 43.361263,144.21436 43.191994,144.21436 C 43.022721,144.21436 42.876725,144.15296 42.754005,144.03027 M 43.795021,145.29346 C 43.765401,145.88168 43.750581,146.39372 43.750591,146.82959 L 43.750591,150.06689 C 43.750589,150.25309 43.790791,150.38851 43.871197,150.47314 C 43.955827,150.55354 44.09971,150.60433 44.302838,150.62549 L 44.544048,150.65089 C 44.624448,150.66359 44.664651,150.69739 44.664654,150.75245 L 44.664654,151.00001 L 44.639264,151.02541 C 43.945246,151.00846 43.481868,151 43.249123,151 C 43.041764,151 42.591081,151.008 41.897072,151.0254 L 41.871681,151 L 41.871681,150.75244 C 41.871681,150.69744 41.905531,150.66354 41.973244,150.65088 L 42.220802,150.62548 C 42.440853,150.59588 42.588965,150.54298 42.665138,150.46679 C 42.741308,150.38639 42.779395,150.25308 42.779396,150.06688 L 42.779396,146.82958 C 42.779395,146.52067 42.756116,146.31331 42.709576,146.20751 C 42.667256,146.09749 42.595317,146.03613 42.493756,146.02343 L 41.935162,145.96633 L 41.909772,145.65529 C 42.781516,145.52411 43.39089,145.39081 43.737897,145.25539 C 43.775977,145.2554 43.795027,145.26809 43.795027,145.29349 M 50.479198,149.81934 C 50.271837,150.16211 50.047553,150.43294 49.806347,150.63184 C 49.569363,150.83073 49.338732,150.96191 49.114452,151.02539 C 48.894397,151.09309 48.642607,151.12695 48.359081,151.12695 C 47.555043,151.12695 46.928741,150.86882 46.480175,150.35254 C 46.035838,149.83626 45.813671,149.15072 45.813671,148.2959 C 45.813671,147.84733 45.887731,147.43262 46.035839,147.05176 C 46.18395,146.6709 46.382843,146.35352 46.632519,146.09961 C 46.882192,145.84571 47.167836,145.64893 47.489452,145.50928 C 47.815296,145.3654 48.153838,145.29346 48.505077,145.29346 C 49.101753,145.29346 49.573595,145.42465 49.920605,145.68701 C 50.267605,145.94515 50.441107,146.25619 50.441113,146.62012 C 50.441107,146.79362 50.377633,146.93116 50.250683,147.03271 C 50.123725,147.13001 49.984077,147.17871 49.831738,147.17871 C 49.552436,147.17871 49.395861,147.02637 49.362011,146.72168 C 49.345081,146.58627 49.323921,146.47413 49.298531,146.38525 C 49.273141,146.29215 49.228701,146.1906 49.165231,146.08057 C 49.105981,145.96631 49.014999,145.88168 48.892281,145.82666 C 48.769557,145.76746 48.617213,145.73776 48.43525,145.73776 C 47.995143,145.73777 47.631211,145.94301 47.343453,146.35349 C 47.059923,146.75974 46.918159,147.31199 46.91816,148.01022 C 46.918159,148.76348 47.078966,149.37709 47.400582,149.85104 C 47.726426,150.32077 48.141139,150.55563 48.644723,150.55563 C 48.928248,150.55563 49.20966,150.47523 49.488961,150.31442 C 49.768254,150.14938 50.007348,149.92299 50.206246,149.63522 C 50.341658,149.65212 50.432641,149.71352 50.479195,149.81931 M 52.351856,150.06689 L 52.351856,143.68115 C 52.351855,143.27914 52.320116,143.01042 52.256646,142.875 C 52.197396,142.73536 52.097954,142.66554 51.958307,142.66553 L 51.545709,142.64013 C 51.490699,142.64014 51.463189,142.61893 51.463189,142.57663 L 51.437799,142.26559 C 51.708631,142.24439 52.02813,142.19999 52.396295,142.13229 C 52.764457,142.06039 53.031059,141.99054 53.1961,141.92282 C 53.306123,141.92283 53.361136,141.96722 53.361139,142.05612 C 53.335749,142.40314 53.323049,142.85805 53.323049,143.42087 L 53.323049,150.06686 C 53.323046,150.25729 53.361129,150.39271 53.437306,150.47311 C 53.513476,150.55351 53.657356,150.6043 53.868947,150.62546 L 54.179982,150.65086 C 54.251922,150.65086 54.287889,150.68476 54.287892,150.75242 L 54.287892,150.99998 L 54.262502,151.02538 C 53.390754,151.00846 52.908332,151 52.815235,151 C 52.734835,151 52.262988,151.008 51.399708,151.0254 L 51.387008,151 L 51.387008,150.75244 C 51.387008,150.68474 51.416628,150.65088 51.475878,150.65088 L 51.786913,150.62548 C 52.002732,150.60428 52.150844,150.55358 52.231249,150.47313 C 52.311649,150.39273 52.351853,150.25731 52.351854,150.06688 M 55.360741,148.33398 C 55.36074,147.42416 55.597719,146.68995 56.071678,146.13135 C 56.545635,145.57276 57.20579,145.29346 58.052147,145.29346 C 58.424539,145.29346 58.763081,145.35266 59.067772,145.47119 C 59.372455,145.58545 59.624245,145.73991 59.823143,145.93457 C 60.026263,146.125 60.195534,146.34929 60.330956,146.60742 C 60.470598,146.86133 60.570045,147.1237 60.629295,147.39453 C 60.688535,147.66537 60.718155,147.94043 60.718165,148.21973 C 60.718159,148.55827 60.661035,148.8947 60.546778,149.229 C 60.436746,149.55908 60.275939,149.868 60.064356,150.15576 C 59.856994,150.44352 59.575582,150.67839 59.220118,150.86035 C 58.864645,151.03809 58.466859,151.12695 58.026758,151.12695 C 57.60781,151.12695 57.224835,151.04445 56.877833,150.87939 C 56.530826,150.71436 56.249413,150.49642 56.033594,150.22559 C 55.817773,149.95475 55.650618,149.65641 55.532129,149.33057 C 55.417871,149.00472 55.360742,148.67253 55.360743,148.33398 M 57.906153,145.7251 C 57.576072,145.7251 57.298891,145.84359 57.07461,146.08057 C 56.850324,146.31332 56.691633,146.59685 56.598536,146.93115 C 56.509666,147.26547 56.465233,147.63363 56.465235,148.03564 C 56.465233,148.24724 56.484275,148.4694 56.522365,148.70215 C 56.564685,148.93067 56.632389,149.16553 56.72549,149.40674 C 56.81859,149.64795 56.930729,149.86377 57.061916,150.0542 C 57.193098,150.24463 57.360253,150.40121 57.56338,150.52393 C 57.770734,150.64242 57.997134,150.70166 58.24258,150.70166 C 58.407615,150.70166 58.562075,150.67416 58.705959,150.61916 C 58.854067,150.55996 58.997947,150.46047 59.137599,150.32082 C 59.281475,150.17694 59.395733,149.96112 59.480373,149.67336 C 59.565003,149.3856 59.607321,149.0386 59.607326,148.63234 C 59.607321,147.68866 59.459209,146.96926 59.16299,146.47414 C 58.866762,145.9748 58.447817,145.72512 57.906154,145.72512 M 63.600098,146.95654 L 63.600098,150.13037 C 63.917478,150.50277 64.277178,150.68897 64.679199,150.68896 C 64.945797,150.68897 65.182776,150.64026 65.390137,150.54297 C 65.601721,150.44141 65.770992,150.31234 65.897949,150.15576 C 66.024898,149.99919 66.128576,149.81299 66.208984,149.59717 C 66.293614,149.38135 66.350744,149.16765 66.380371,148.95605 C 66.409991,148.74447 66.424801,148.52442 66.424801,148.2959 C 66.424796,147.58073 66.280916,147.00098 65.99316,146.55664 C 65.709627,146.11231 65.362622,145.89014 64.952144,145.89014 C 64.715162,145.89014 64.463372,145.98744 64.196773,146.18213 C 63.934401,146.37256 63.735508,146.6307 63.600094,146.95654 M 62.628902,146.82959 C 62.628901,146.52491 62.605622,146.31755 62.559082,146.20752 C 62.512532,146.0975 62.440592,146.03614 62.343262,146.02344 L 61.784668,145.96634 L 61.759278,145.6553 C 62.567546,145.53259 63.164225,145.39929 63.549317,145.2554 C 63.583167,145.25541 63.600097,145.2681 63.600097,145.2935 L 63.562007,146.33451 L 63.600097,146.33451 C 64.057125,145.64051 64.626298,145.2935 65.307616,145.2935 C 65.713862,145.2935 66.086258,145.41834 66.424804,145.66801 C 66.76334,145.91769 67.02571,146.24565 67.211913,146.6519 C 67.398105,147.05815 67.491204,147.48979 67.49121,147.94682 C 67.491204,148.96668 67.186517,149.78552 66.577147,150.40336 C 66.098953,150.88578 65.49381,151.12699 64.761718,151.12699 C 64.34277,151.12699 63.955563,151.03179 63.600097,150.84135 L 63.600097,153.09477 C 63.600095,153.27673 63.640297,153.40792 63.720702,153.48832 C 63.805332,153.57292 63.9471,153.62374 64.145995,153.64066 L 64.393554,153.66606 C 64.473954,153.67876 64.514156,153.71256 64.514159,153.76762 L 64.514159,154.01518 L 64.488769,154.04058 C 63.845537,154.02368 63.382159,154.01518 63.098632,154.01518 C 62.832029,154.01517 62.381346,154.02318 61.746581,154.04058 L 61.714841,154.01518 L 61.714841,153.76762 C 61.714841,153.71262 61.750811,153.67872 61.822751,153.66606 L 62.070309,153.64066 C 62.277666,153.62376 62.421546,153.57296 62.50195,153.48832 C 62.58658,153.40792 62.628902,153.27673 62.628903,153.09477 L 62.628903,146.82963 M 69.985939,147.26758 L 72.372658,147.26758 C 72.495375,147.26758 72.556736,147.20838 72.55674,147.08984 C 72.556736,146.83171 72.52288,146.60954 72.455177,146.42334 C 72.391697,146.23715 72.30283,146.0975 72.188576,146.00439 C 72.078546,145.90709 71.964288,145.83936 71.845802,145.80127 C 71.731541,145.75897 71.60882,145.73777 71.477638,145.73777 C 71.392998,145.73778 71.308365,145.74377 71.223732,145.75687 C 71.143322,145.76487 71.0333,145.79917 70.893654,145.85843 C 70.754003,145.91343 70.629166,145.99173 70.519142,146.09329 C 70.413346,146.19486 70.307552,146.3472 70.201759,146.55032 C 70.100195,146.75345 70.028255,146.99255 69.985939,147.26761 M 73.413673,149.76224 C 73.549085,149.77494 73.635836,149.84474 73.673927,149.97171 C 73.415784,150.32718 73.098402,150.60859 72.721779,150.81595 C 72.345147,151.0233 71.930434,151.12698 71.477638,151.12698 C 70.631282,151.12698 69.990169,150.87308 69.554298,150.36526 C 69.122657,149.85745 68.906837,149.20576 68.906837,148.41019 C 68.906837,147.93623 68.983007,147.49824 69.135353,147.09622 C 69.287696,146.69421 69.486589,146.36413 69.732033,146.10599 C 69.977474,145.84785 70.250423,145.64896 70.55088,145.50931 C 70.855566,145.36543 71.164485,145.29349 71.477638,145.29349 C 71.807713,145.29349 72.099705,145.33789 72.353615,145.42679 C 72.607517,145.51569 72.810642,145.63203 72.96299,145.77591 C 73.119561,145.91556 73.246514,146.08695 73.343849,146.29007 C 73.441179,146.4932 73.506767,146.69632 73.540627,146.89944 C 73.578707,147.10257 73.597747,147.32051 73.597757,147.55325 C 73.597752,147.70137 73.519467,147.77542 73.362894,147.77542 L 69.941507,147.77542 C 69.941506,148.14782 69.981707,148.49059 70.062113,148.80374 C 70.146743,149.11266 70.252541,149.36868 70.379496,149.57181 C 70.510679,149.77493 70.65879,149.94844 70.823832,150.09232 C 70.9931,150.23196 71.158139,150.33353 71.318949,150.397 C 71.479753,150.4605 71.636328,150.4922 71.788675,150.4922 C 72.139909,150.4922 72.440364,150.4351 72.690043,150.32081 C 72.939713,150.20232 73.180923,150.01612 73.413675,149.76222 M 78.955276,149.7749 L 78.955276,146.51221 C 78.790233,146.25407 78.610383,146.06364 78.415726,145.94092 C 78.221061,145.81397 77.977734,145.75049 77.685745,145.75049 C 77.165235,145.75049 76.761101,145.96631 76.473343,146.39795 C 76.23213,146.74496 76.111525,147.32048 76.111526,148.12451 C 76.111525,148.88623 76.251173,149.47656 76.530472,149.89551 C 76.813998,150.31022 77.146192,150.51758 77.527054,150.51758 C 77.865592,150.51758 78.341666,150.27002 78.955276,149.7749 M 79.932816,143.4209 L 79.932816,149.48926 C 79.93281,149.81087 79.951856,150.014 79.989946,150.09863 C 80.028026,150.18323 80.116894,150.23193 80.256548,150.24463 L 80.884966,150.30813 L 80.923056,150.61281 C 80.080928,150.76093 79.526567,150.94289 79.25997,151.15871 L 78.955282,151.15871 L 78.987022,150.24465 L 78.955282,150.23195 C 78.218951,150.82863 77.630735,151.12697 77.190634,151.12697 C 76.505085,151.12697 75.969767,150.87095 75.584677,150.35891 C 75.199585,149.84686 75.00704,149.18036 75.00704,148.35939 C 75.00704,147.41571 75.296916,146.654 75.876669,146.07424 C 76.151733,145.81187 76.441609,145.61721 76.746298,145.49025 C 77.055215,145.35908 77.414915,145.29348 77.8254,145.29348 C 77.969276,145.29348 78.15759,145.32098 78.390341,145.37598 C 78.627316,145.43098 78.81563,145.4987 78.955282,145.5791 L 78.955282,143.68115 C 78.955278,143.27914 78.925652,143.01042 78.866412,142.875 C 78.807162,142.73536 78.707717,142.66554 78.568072,142.66553 L 78.149127,142.64013 C 78.098337,142.64014 78.072947,142.61893 78.072957,142.57663 L 78.047567,142.26559 C 78.318396,142.24439 78.637895,142.19999 79.006063,142.13229 C 79.374222,142.06039 79.640823,141.99054 79.805867,141.92282 C 79.915888,141.92283 79.970901,141.96722 79.970906,142.05612 C 79.945506,142.40314 79.932816,142.85805 79.932826,143.42087 M 82.751266,144.03027 C 82.628544,143.90756 82.567183,143.76156 82.567184,143.59229 C 82.567183,143.42302 82.628544,143.27703 82.751266,143.1543 C 82.873986,143.02735 83.019982,142.96388 83.189255,142.96387 C 83.358524,142.96388 83.50452,143.02527 83.627243,143.14795 C 83.754194,143.27068 83.81767,143.41879 83.817673,143.59229 C 83.81767,143.76156 83.754193,143.90756 83.627243,144.03027 C 83.50452,144.153 83.358524,144.21436 83.189255,144.21436 C 83.019982,144.21436 82.873986,144.15296 82.751266,144.03027 M 83.792282,145.29346 C 83.762662,145.88168 83.747842,146.39372 83.747852,146.82959 L 83.747852,150.06689 C 83.747849,150.25309 83.788052,150.38851 83.868457,150.47314 C 83.953087,150.55354 84.09697,150.60433 84.300098,150.62549 L 84.541309,150.65089 C 84.621709,150.66359 84.661911,150.69739 84.661914,150.75245 L 84.661914,151.00001 L 84.636524,151.02541 C 83.942507,151.00846 83.479129,151 83.246384,151 C 83.039025,151 82.588342,151.008 81.894333,151.0254 L 81.868942,151 L 81.868942,150.75244 C 81.868942,150.69744 81.902792,150.66354 81.970505,150.65088 L 82.218063,150.62548 C 82.438114,150.59588 82.586226,150.54298 82.662399,150.46679 C 82.738569,150.38639 82.776656,150.25308 82.776657,150.06688 L 82.776657,146.82958 C 82.776656,146.52067 82.753377,146.31331 82.706837,146.20751 C 82.664517,146.09749 82.592578,146.03613 82.491017,146.02343 L 81.932423,145.96633 L 81.907033,145.65529 C 82.778777,145.52411 83.388151,145.39081 83.735158,145.25539 C 83.773238,145.2554 83.792288,145.26809 83.792288,145.29349 M 89.111717,147.97217 L 88.083397,148.24512 C 87.245504,148.47364 86.826559,148.94971 86.826561,149.67334 C 86.826559,149.90609 86.911191,150.11979 87.080467,150.31445 C 87.249736,150.50488 87.484599,150.6001 87.785057,150.6001 C 88.081278,150.6001 88.462137,150.41178 88.927635,150.03516 C 89.050353,149.95056 89.111713,149.83838 89.111717,149.69873 L 89.111717,147.97217 M 89.111717,150.37793 L 89.086327,150.37793 L 88.826073,150.58105 C 88.538309,150.80534 88.303446,150.95133 88.121483,151.01904 C 87.943746,151.09094 87.706767,151.12695 87.410545,151.12695 C 86.919658,151.12695 86.52822,151.01481 86.236229,150.79053 C 85.944236,150.56624 85.79824,150.21078 85.798241,149.72412 C 85.79824,149.29248 85.990786,148.91162 86.375877,148.58154 C 86.765199,148.24724 87.279359,147.99968 87.918358,147.83887 L 89.035545,147.56592 C 89.086325,147.54902 89.111715,147.49822 89.111715,147.41357 C 89.111711,147.13005 89.088435,146.88249 89.041895,146.6709 C 88.995345,146.45508 88.938213,146.28581 88.870508,146.16309 C 88.802798,146.04037 88.718161,145.94304 88.616602,145.87109 C 88.519272,145.79489 88.426169,145.74415 88.337305,145.71875 C 88.252665,145.69335 88.159568,145.68065 88.058008,145.68065 C 87.778709,145.68066 87.529035,145.73145 87.308985,145.833 C 87.088931,145.93457 86.978905,146.08056 86.978907,146.27099 C 86.978905,146.38948 86.987407,146.47412 87.004297,146.52489 C 87.029687,146.57989 87.042377,146.6582 87.042387,146.75976 C 87.042386,146.86132 86.989487,146.95865 86.883696,147.05175 C 86.782132,147.14485 86.6446,147.1914 86.471098,147.1914 C 86.170642,147.1914 86.020414,147.03906 86.020415,146.73436 C 86.020414,146.50585 86.124092,146.27945 86.33145,146.05517 C 86.538805,145.83089 86.809638,145.64892 87.14395,145.50927 C 87.478258,145.36539 87.816799,145.29345 88.159575,145.29345 C 88.366929,145.29345 88.555242,145.31035 88.724516,145.34425 C 88.898015,145.37815 89.071518,145.44365 89.245024,145.54103 C 89.418523,145.63413 89.562403,145.75897 89.676665,145.91554 C 89.79515,146.07212 89.890364,146.28582 89.962309,146.55665 C 90.038479,146.82326 90.076562,147.13429 90.076567,147.48976 L 90.076567,149.42579 C 90.076562,149.54851 90.076562,149.64796 90.076567,149.72413 C 90.080767,149.79603 90.087147,149.88282 90.095607,149.98438 C 90.108297,150.08168 90.125227,150.16 90.146387,150.21925 C 90.167537,150.27425 90.195047,150.33139 90.228907,150.39063 C 90.266987,150.44983 90.315657,150.4922 90.374903,150.51759 C 90.438373,150.54299 90.510314,150.55569 90.590723,150.55569 C 90.683813,150.55569 90.759989,150.53879 90.819239,150.50489 C 90.878479,150.47099 90.922912,150.43719 90.95254,150.40333 C 90.98216,150.36943 91.00543,150.35253 91.02236,150.35253 C 91.04774,150.35253 91.07737,150.37373 91.11123,150.41603 C 91.14931,150.45833 91.16835,150.50063 91.16836,150.54298 C 91.168354,150.55988 91.15143,150.58948 91.11758,150.63188 C 91.08372,150.67418 91.03294,150.72288 90.965236,150.77787 C 90.901756,150.83287 90.827698,150.8879 90.743068,150.94291 C 90.658428,150.99371 90.556865,151.03601 90.43838,151.06986 C 90.324118,151.10796 90.207744,151.12696 90.089259,151.12696 C 89.577211,151.12696 89.251365,150.87729 89.11172,150.37794 M 96.481544,150.06689 L 96.481544,143.68115 C 96.481543,143.27914 96.449804,143.01042 96.386334,142.875 C 96.327084,142.73536 96.227641,142.66554 96.087994,142.66553 L 95.675396,142.64013 C 95.620386,142.64014 95.592876,142.61893 95.592876,142.57663 L 95.567486,142.26559 C 95.838319,142.24439 96.157817,142.19999 96.525982,142.13229 C 96.894145,142.06039 97.160746,141.99054 97.325787,141.92282 C 97.435811,141.92283 97.490824,141.96722 97.490826,142.05612 C 97.465436,142.40314 97.452736,142.85805 97.452736,143.42087 L 97.452736,150.06686 C 97.452734,150.25729 97.490816,150.39271 97.566994,150.47311 C 97.643164,150.55351 97.787043,150.6043 97.998634,150.62546 L 98.309669,150.65086 C 98.381609,150.65086 98.417576,150.68476 98.41758,150.75242 L 98.41758,150.99998 L 98.39219,151.02538 C 97.520442,151.00846 97.038021,151 96.944923,151 C 96.864523,151 96.392676,151.008 95.529396,151.0254 L 95.516696,151 L 95.516696,150.75244 C 95.516695,150.68474 95.546316,150.65088 95.605566,150.65088 L 95.916601,150.62548 C 96.132421,150.60428 96.280532,150.55358 96.360937,150.47313 C 96.441337,150.39273 96.481541,150.25731 96.481542,150.06688 M 100.32198,144.03027 C 100.19925,143.90756 100.13789,143.76156 100.13789,143.59229 C 100.13789,143.42302 100.19929,143.27703 100.32198,143.1543 C 100.4447,143.02735 100.59069,142.96388 100.75996,142.96387 C 100.92923,142.96388 101.07523,143.02527 101.19795,143.14795 C 101.3249,143.27068 101.38838,143.41879 101.38838,143.59229 C 101.38838,143.76156 101.32488,143.90756 101.19795,144.03027 C 101.07523,144.153 100.92923,144.21436 100.75996,144.21436 C 100.59069,144.21436 100.4447,144.15296 100.32198,144.03027 M 101.36299,145.29346 C 101.33339,145.88168 101.31859,146.39372 101.31859,146.82959 L 101.31859,150.06689 C 101.31859,150.25309 101.35879,150.38851 101.43919,150.47314 C 101.52379,150.55354 101.66771,150.60433 101.87083,150.62549 L 102.11204,150.65089 C 102.19244,150.66359 102.23265,150.69739 102.23265,150.75245 L 102.23265,151.00001 L 102.20725,151.02541 C 101.51322,151.00846 101.04984,151 100.81709,151 C 100.60973,151 100.15905,151.008 99.465042,151.0254 L 99.439651,151 L 99.439651,150.75244 C 99.439651,150.69744 99.473501,150.66354 99.541214,150.65088 L 99.788773,150.62548 C 100.00882,150.59588 100.15694,150.54298 100.23311,150.46679 C 100.30931,150.38639 100.34737,150.25308 100.34737,150.06688 L 100.34737,146.82958 C 100.34737,146.52067 100.32407,146.31331 100.27757,146.20751 C 100.23527,146.09749 100.16331,146.03613 100.06175,146.02343 L 99.503158,145.96633 L 99.477768,145.65529 C 100.34951,145.52411 100.95889,145.39081 101.30589,145.25539 C 101.34399,145.2554 101.36299,145.26809 101.36299,145.29349 M 104.88603,150.07959 C 105.04261,150.27425 105.19072,150.42448 105.33037,150.53027 C 105.47425,150.63607 105.63928,150.68897 105.82549,150.68896 C 106.41793,150.68897 106.86861,150.44987 107.17754,149.97168 C 107.49068,149.49349 107.64726,148.86507 107.64726,148.08643 C 107.64726,147.46013 107.50761,146.93327 107.22832,146.50586 C 106.94902,146.07846 106.61048,145.86475 106.21269,145.86475 C 106.12379,145.86475 106.02438,145.87275 105.91435,145.89015 C 105.80432,145.90285 105.64352,145.95365 105.43193,146.04249 C 105.22034,146.13139 105.03837,146.25408 104.88603,146.41065 L 104.88603,150.0796 M 103.91484,143.68116 C 103.91484,143.27915 103.88314,143.01043 103.81964,142.87501 C 103.76034,142.73537 103.66094,142.66555 103.5213,142.66554 L 103.1087,142.64014 C 103.0537,142.64015 103.0262,142.61894 103.0262,142.57664 L 103.0008,142.2656 C 103.2674,142.2444 103.5869,142.1979 103.95929,142.12596 C 104.33592,142.05406 104.60252,141.98632 104.7591,141.92283 C 104.86912,141.92284 104.92414,141.96723 104.92414,142.05613 C 104.89874,142.40315 104.88604,142.85806 104.88604,143.42088 L 104.88604,146.01072 C 105.32614,145.53254 105.85511,145.29344 106.47296,145.29344 C 106.75648,145.29344 107.03366,145.35484 107.3045,145.47752 C 107.57533,145.59601 107.81865,145.76317 108.03448,145.97898 C 108.25029,146.19058 108.4238,146.46141 108.55499,146.79148 C 108.68617,147.11733 108.75176,147.47069 108.75176,147.85154 C 108.75176,148.34666 108.66506,148.80581 108.49151,149.22898 C 108.32223,149.65216 108.10007,149.99917 107.82501,150.27 C 107.54994,150.54083 107.24525,150.75242 106.91094,150.90477 C 106.57663,151.05288 106.24021,151.12693 105.90167,151.12693 C 105.36846,151.12693 104.91778,150.96824 104.54962,150.65086 C 104.40997,150.85398 104.2682,151.02325 104.12432,151.15867 C 104.00583,151.15867 103.91485,151.13537 103.85137,151.08887 C 103.89367,150.85189 103.91487,150.51546 103.91487,150.07959 L 103.91487,143.68115 M 111.22109,147.26758 L 113.60781,147.26758 C 113.73053,147.26758 113.79189,147.20838 113.79189,147.08984 C 113.79189,146.83171 113.75799,146.60954 113.69033,146.42334 C 113.62683,146.23715 113.53798,146.0975 113.42373,146.00439 C 113.3137,145.90709 113.19944,145.83936 113.08096,145.80127 C 112.96669,145.75897 112.84397,145.73777 112.71279,145.73777 C 112.62819,145.73778 112.54352,145.74377 112.45889,145.75687 C 112.37849,145.76487 112.26845,145.79917 112.12881,145.85843 C 111.98916,145.91343 111.86432,145.99173 111.7543,146.09329 C 111.6485,146.19486 111.5427,146.3472 111.43691,146.55032 C 111.33535,146.75345 111.26341,146.99255 111.22109,147.26761 M 114.64883,149.76224 C 114.78424,149.77494 114.87099,149.84474 114.90908,149.97171 C 114.65094,150.32718 114.33356,150.60859 113.95693,150.81595 C 113.5803,151.0233 113.16559,151.12698 112.71279,151.12698 C 111.86644,151.12698 111.22532,150.87308 110.78945,150.36526 C 110.35781,149.85745 110.14199,149.20576 110.14199,148.41019 C 110.14199,147.93623 110.21819,147.49824 110.37051,147.09622 C 110.52285,146.69421 110.72174,146.36413 110.96719,146.10599 C 111.21263,145.84785 111.48558,145.64896 111.78603,145.50931 C 112.09072,145.36543 112.39964,145.29349 112.71279,145.29349 C 113.04287,145.29349 113.33486,145.33789 113.58877,145.42679 C 113.84267,145.51569 114.04579,145.63203 114.19814,145.77591 C 114.35471,145.91556 114.48167,146.08695 114.579,146.29007 C 114.6763,146.4932 114.74192,146.69632 114.77578,146.89944 C 114.81388,147.10257 114.83288,147.32051 114.83288,147.55325 C 114.83287,147.70137 114.75458,147.77542 114.59802,147.77542 L 111.17663,147.77542 C 111.17663,148.14782 111.21683,148.49059 111.29723,148.80374 C 111.38183,149.11266 111.48766,149.36868 111.61462,149.57181 C 111.7458,149.77493 111.89391,149.94844 112.05895,150.09232 C 112.22822,150.23196 112.39326,150.33353 112.55407,150.397 C 112.71487,150.4605 112.87145,150.4922 113.0238,150.4922 C 113.37503,150.4922 113.67549,150.4351 113.92516,150.32081 C 114.17483,150.20232 114.41604,150.01612 114.6488,149.76222 M 116.92139,150.06689 L 116.92139,146.82959 C 116.92139,146.52491 116.89809,146.31755 116.85159,146.20752 C 116.80499,146.0975 116.7331,146.03614 116.63577,146.02344 L 116.07718,145.96634 L 116.04548,145.6553 C 116.88337,145.52836 117.48216,145.39506 117.84187,145.2554 C 117.87567,145.25541 117.89267,145.2681 117.89267,145.2935 L 117.85457,146.46147 L 117.89267,146.46147 C 118.4174,145.68283 118.92522,145.2935 119.41611,145.2935 C 119.90276,145.2935 120.14608,145.4924 120.14609,145.89018 C 120.14608,146.05945 120.09529,146.19275 119.99374,146.29008 C 119.89218,146.38738 119.75464,146.43608 119.58114,146.43608 C 119.37802,146.43608 119.2024,146.35778 119.05429,146.20121 C 118.97389,146.12501 118.88713,146.08696 118.79404,146.08695 C 118.71784,146.08696 118.61207,146.14625 118.47665,146.26469 C 118.34123,146.38318 118.19947,146.54822 118.05136,146.75981 C 117.94556,146.89523 117.89267,147.04757 117.89267,147.21684 L 117.89267,150.06693 C 117.89267,150.25736 117.93497,150.3949 118.01962,150.47953 C 118.10422,150.56413 118.24813,150.61283 118.45126,150.62553 L 118.83212,150.65093 C 118.90832,150.65093 118.94638,150.68483 118.94638,150.75249 L 118.94638,151.00005 L 118.92098,151.02545 C 118.27767,151.00846 117.76562,151 117.38477,151 C 117.12663,151 116.67594,151.008 116.03271,151.0254 L 116.02001,151 L 116.02001,150.75244 C 116.02001,150.69744 116.05171,150.66354 116.11521,150.65088 L 116.36277,150.62548 C 116.57436,150.60428 116.72036,150.55358 116.80076,150.47313 C 116.88116,150.38853 116.92137,150.25308 116.92137,150.06688 M 124.4625,147.97217 L 123.43418,148.24512 C 122.59629,148.47364 122.17734,148.94971 122.17735,149.67334 C 122.17734,149.90609 122.26195,150.11979 122.43125,150.31445 C 122.60052,150.50488 122.83538,150.6001 123.13584,150.6001 C 123.43206,150.6001 123.81292,150.41178 124.27842,150.03516 C 124.40114,149.95056 124.4625,149.83838 124.4625,149.69873 L 124.4625,147.97217 M 124.4625,150.37793 L 124.4371,150.37793 L 124.17685,150.58105 C 123.88908,150.80534 123.65422,150.95133 123.47226,151.01904 C 123.29452,151.09094 123.05754,151.12695 122.76132,151.12695 C 122.27043,151.12695 121.87899,151.01481 121.587,150.79053 C 121.29501,150.56624 121.14901,150.21078 121.14901,149.72412 C 121.14901,149.29248 121.34156,148.91162 121.72665,148.58154 C 122.11597,148.24724 122.63013,147.99968 123.26913,147.83887 L 124.38632,147.56592 C 124.43712,147.54902 124.46252,147.49822 124.46252,147.41357 C 124.46252,147.13005 124.43922,146.88249 124.39272,146.6709 C 124.34612,146.45508 124.28904,146.28581 124.22133,146.16309 C 124.15363,146.04037 124.06898,145.94304 123.96742,145.87109 C 123.87012,145.79489 123.77699,145.74415 123.68813,145.71875 C 123.60353,145.69335 123.51039,145.68065 123.40883,145.68065 C 123.12953,145.68066 122.87986,145.73145 122.65981,145.833 C 122.43975,145.93457 122.32973,146.08056 122.32973,146.27099 C 122.32973,146.38948 122.33773,146.47412 122.35513,146.52489 C 122.38053,146.57989 122.39323,146.6582 122.39323,146.75976 C 122.39322,146.86132 122.34033,146.95865 122.23453,147.05175 C 122.13297,147.14485 121.99544,147.1914 121.82194,147.1914 C 121.52148,147.1914 121.37125,147.03906 121.37125,146.73436 C 121.37125,146.50585 121.47493,146.27945 121.68229,146.05517 C 121.88964,145.83089 122.16048,145.64892 122.49479,145.50927 C 122.8291,145.36539 123.16764,145.29345 123.51041,145.29345 C 123.71777,145.29345 123.90608,145.31035 124.07535,145.34425 C 124.24885,145.37815 124.42236,145.44365 124.59586,145.54103 C 124.76936,145.63413 124.91324,145.75897 125.0275,145.91554 C 125.14599,146.07212 125.2412,146.28582 125.31315,146.55665 C 125.38935,146.82326 125.4274,147.13429 125.42741,147.48976 L 125.42741,149.42579 C 125.4274,149.54851 125.4274,149.64796 125.42741,149.72413 C 125.43141,149.79603 125.43801,149.88282 125.44641,149.98438 C 125.45911,150.08168 125.47601,150.16 125.49721,150.21925 C 125.51841,150.27425 125.54591,150.33139 125.57971,150.39063 C 125.61781,150.44983 125.66641,150.4922 125.72571,150.51759 C 125.78921,150.54299 125.86112,150.55569 125.94153,150.55569 C 126.03463,150.55569 126.11079,150.53879 126.17004,150.50489 C 126.22924,150.47099 126.27371,150.43719 126.30334,150.40333 C 126.33294,150.36943 126.35624,150.35253 126.37314,150.35253 C 126.39854,150.35253 126.42814,150.37373 126.46204,150.41603 C 126.50014,150.45833 126.51914,150.50063 126.51914,150.54298 C 126.51914,150.55988 126.50224,150.58948 126.46834,150.63188 C 126.43444,150.67418 126.38374,150.72288 126.316,150.77787 C 126.2525,150.83287 126.17846,150.8879 126.09383,150.94291 C 126.00923,150.99371 125.90763,151.03601 125.78914,151.06986 C 125.67488,151.10796 125.55851,151.12696 125.44002,151.12696 C 124.92797,151.12696 124.60213,150.87729 124.46248,150.37794" style="font-size:13px;font-style:normal;font-variant:normal;font-weight:normal;font-stretch:normal;text-align:start;line-height:125%;letter-spacing:0.40000001;writing-mode:lr-tb;text-anchor:start;fill:#000000;fill-opacity:1;font-family:Linux Libertine;-inkscape-font-specification:Linux Libertine" id="subline" transform="translate(1.8262699e-2,-4.1220688)"></path></svg>
