<?xml version="1.0" encoding="UTF-8" standalone="no"?>
<svg
	xmlns="http://www.w3.org/2000/svg"
	xmlns:dc="http://purl.org/dc/elements/1.1/"
	xmlns:cc="http://creativecommons.org/ns#"
	xmlns:rdf="http://www.w3.org/1999/02/22-rdf-syntax-ns#"
	xmlns:svg="http://www.w3.org/2000/svg"
	xmlns:xlink="http://www.w3.org/1999/xlink"
	xmlns:sodipodi="http://sodipodi.sourceforge.net/DTD/sodipodi-0.dtd"
	xmlns:inkscape="http://www.inkscape.org/namespaces/inkscape"
	version="1.1"
	viewBox="0 0 135px 155px">
	<svg version="1.1" id="svg3857" xmlns:dc="http://purl.org/dc/elements/1.1/" xmlns:cc="http://creativecommons.org/ns#" xmlns:rdf="http://www.w3.org/1999/02/22-rdf-syntax-ns#" xmlns:inkscape="http://www.inkscape.org/namespaces/inkscape" xmlns:svg="http://www.w3.org/2000/svg" xmlns:sodipodi="http://sodipodi.sourceforge.net/DTD/sodipodi-0.dtd" inkscape:version="0.47 r22583" sodipodi:docname="Wikipedia-logo-v2-ru.svg" xmlns:xlink="http://www.w3.org/1999/xlink" x="0px" y="0px" width="135px" height="155px" viewBox="0 0 135 155" enable-background="new 0 0 135 155" xml:space="preserve" xmlns:svgjs="http://svgjs.com/svgjs">
<defs>
	
	
		<inkscape:perspective id="perspective4854" inkscape:vp_y="0 : 1000 : 0" inkscape:vp_x="0 : 77.5 : 1" sodipodi:type="inkscape:persp3d" inkscape:vp_z="135 : 77.5 : 1" inkscape:persp3d-origin="67.5 : 51.666667 : 1">
		</inkscape:perspective>
	
		<inkscape:perspective id="perspective10537" inkscape:vp_y="0 : 1000 : 0" inkscape:vp_x="0 : 0.5 : 1" sodipodi:type="inkscape:persp3d" inkscape:vp_z="1 : 0.5 : 1" inkscape:persp3d-origin="0.5 : 0.33333333 : 1">
		</inkscape:perspective>
	
		<inkscape:perspective id="perspective13111" inkscape:vp_y="0 : 1000 : 0" inkscape:vp_x="0 : 0.5 : 1" sodipodi:type="inkscape:persp3d" inkscape:vp_z="1 : 0.5 : 1" inkscape:persp3d-origin="0.5 : 0.33333333 : 1">
		</inkscape:perspective>
	
		<inkscape:perspective id="perspective5220" inkscape:vp_y="0 : 1000 : 0" inkscape:vp_x="0 : 0.5 : 1" sodipodi:type="inkscape:persp3d" inkscape:vp_z="1 : 0.5 : 1" inkscape:persp3d-origin="0.5 : 0.33333333 : 1">
		</inkscape:perspective>
	
		<inkscape:perspective id="perspective13209" inkscape:vp_y="0 : 1000 : 0" inkscape:vp_x="0 : 0.5 : 1" sodipodi:type="inkscape:persp3d" inkscape:vp_z="1 : 0.5 : 1" inkscape:persp3d-origin="0.5 : 0.33333333 : 1">
		</inkscape:perspective>
</defs>
<sodipodi:namedview id="namedview4848" showguides="true" inkscape:cy="20.594485" inkscape:cx="75.432687" inkscape:zoom="2" showgrid="false" guidetolerance="10" gridtolerance="10" objecttolerance="10" borderopacity="1" bordercolor="#666666" pagecolor="#ffffff" inkscape:window-maximized="0" inkscape:guide-bbox="true" inkscape:current-layer="svg3857" inkscape:window-y="24" inkscape:window-x="32" inkscape:window-height="730" inkscape:window-width="1198" inkscape:pageshadow="2" inkscape:pageopacity="0">
	<sodipodi:guide id="globe_top" position="0,140" orientation="0,1"></sodipodi:guide>
	<sodipodi:guide id="globe_left" position="16,0" orientation="1,0"></sodipodi:guide>
	<sodipodi:guide id="globe_right" position="119,0" orientation="1,0"></sodipodi:guide>
	<sodipodi:guide id="globe_bottom" position="0,47" orientation="0,1"></sodipodi:guide>
	<sodipodi:guide id="wordmark_top" position="8,40" orientation="0,1"></sodipodi:guide>
	<sodipodi:guide id="wordmark_bottom" position="8,22.5" orientation="0,1"></sodipodi:guide>
	<sodipodi:guide id="subtitle_top" position="0,17" orientation="0,1"></sodipodi:guide>
	<sodipodi:guide id="subtitle_bottom" position="0,8" orientation="0,1"></sodipodi:guide>
	<sodipodi:guide id="wordmark_left" position="8,40" orientation="1,0"></sodipodi:guide>
	<sodipodi:guide id="wordmark_right" position="127,40" orientation="1,0"></sodipodi:guide>
</sodipodi:namedview>

<g id="text4553">
	<path id="path4579" d="M8.237,147.13c1.209,0,2.444-0.598,3.51-1.755c-0.039-0.117-0.104-0.195-0.247-0.195
		c-1.079,1.014-2.015,1.418-3.172,1.418c-1.56,0-2.21-1.326-2.21-2.848c0-0.352,0.039-0.729,0.104-1.092
		c0.52-2.639,2.496-3.731,3.484-3.731c1.729,0,2.249,1.054,2.353,2.171l0.377-0.052c0.013-0.676,0.039-1.313,0.117-2.015
		c-0.702-0.039-1.079-0.586-2.613-0.586c-2.067,0-4.355,1.898-4.849,4.459C5.026,143.23,5,143.542,5,143.867
		C5,145.596,5.975,147.13,8.237,147.13"></path>
	<path id="path4581" d="M15.77,145.258c0,0.858-0.533,1.639-1.352,1.639c-0.39,0-1.001-0.17-1.001-1.157
		c0-0.429,0-0.988,0.195-1.431c0.455-0.182,0.832-0.285,1.183-0.285C15.393,144.023,15.77,144.699,15.77,145.258 M16.563,142.139
		c0,0.805-0.78,1.234-2.821,1.729c0.611-1.729,1.313-2.327,2.21-2.327C16.472,141.54,16.563,141.956,16.563,142.139 M16.056,141.254
		c-0.988,0-1.833,0.391-2.561,1.17c-0.715,0.78-1.079,1.678-1.079,2.678c0,1.365,0.663,2.055,2.015,2.055
		c1.391,0,2.431-0.832,2.431-1.807c0-0.547-0.312-1.521-1.625-1.586c1.508-0.521,2.236-0.91,2.236-1.574
		C17.473,141.813,17.239,141.254,16.056,141.254"></path>
	<path id="path4583" d="M18.784,144.79c0-1.17,0.39-3.067,1.872-3.067c1.014,0,1.014,0.936,1.014,1.768
		c0,0.845-0.377,3.185-1.833,3.185C19.434,146.675,18.784,146.454,18.784,144.79 M17.692,144.895c0,0.688,0.169,2.235,1.82,2.235
		c1.664,0,3.211-1.677,3.211-3.731c0-0.936-0.234-2.105-1.833-2.105C18.719,141.293,17.692,143.334,17.692,144.895"></path>
	<path id="path4585" d="M28.268,143.191c0-1.041-0.468-1.938-1.781-1.938c-1.144,0-1.781,0.768-2.158,1.313
		c0.13-0.493,0.351-1.026,0.598-1.403c0.546-0.819,0.923-1.157,2.041-1.261c1.066-0.104,1.872-0.598,2.353-1.977h-0.26
		c-0.273,0.676-0.832,0.963-1.846,1.04c-2.522,0.208-4.043,4.238-4.043,6.136c0,1.469,0.832,2.055,1.781,2.055
		C26.681,147.156,28.268,145.258,28.268,143.191 M25.277,146.74c-0.754,0-1.131-0.663-1.131-1.664c0-1.495,0.793-3.393,2.119-3.393
		c0.676,0,0.988,0.649,0.988,1.599C27.253,144.842,26.486,146.74,25.277,146.74"></path>
	<path id="path4587" d="M29.689,144.79c0-1.17,0.39-3.067,1.872-3.067c1.014,0,1.014,0.936,1.014,1.768
		c0,0.845-0.377,3.185-1.833,3.185C30.339,146.675,29.689,146.454,29.689,144.79 M28.597,144.895c0,0.688,0.169,2.235,1.82,2.235
		c1.664,0,3.211-1.677,3.211-3.731c0-0.936-0.234-2.105-1.833-2.105C29.624,141.293,28.597,143.334,28.597,144.895"></path>
	<path id="path4589" d="M38.106,142.516c0,0.701-0.403,4.094-2.002,4.094c-0.611,0-0.949-0.715-0.949-1.599
		c0.013-2.079,1.079-3.263,1.95-3.263C37.469,141.748,38.106,141.904,38.106,142.516 M37.404,141.254
		c-0.273,0-0.793,0.13-1.391,0.455c-0.949,0.52-1.924,1.82-1.924,3.445c0,1.027,0.468,2.002,1.612,2.002
		c0.962,0,1.456-0.416,1.95-0.871c0.806-0.729,1.456-2.236,1.456-3.848c-0.013-0.976-0.247-1.898-0.78-2.705
		c-0.962-1.521-1.937-1.391-2.782-1.871h-0.013c-0.026,0-0.052,0.078-0.052,0.195c0,0.416,0.169,0.883,0.78,1.092
		c1.092,0.377,2.028,0.572,2.028,2.015c0,0.104,0,0.208-0.026,0.325C38.028,141.307,37.716,141.254,37.404,141.254"></path>
	<path id="path4591" d="M41.256,144.244h2.314l-0.338,1.508c-0.065,0.364-0.117,0.663-0.117,0.818c0,0.248,0.091,0.586,0.546,0.586
		c0.598,0,1.105-0.481,1.573-1.301l-0.247-0.207c-0.351,0.507-0.559,0.793-0.741,0.793c-0.026,0-0.169-0.039-0.169-0.183
		c0-0.13,0.052-0.468,0.156-0.884l0.949-4.068c-0.273,0.039-0.832,0.104-0.975,0.104l-0.52,2.326h-2.314l0.195-0.896
		c0.156-0.663,0.39-1.547,0.39-1.547c0-0.039-0.026-0.039-0.052-0.039c-0.403,0.143-0.949,0.26-1.898,0.403l-0.039,0.312
		l0.546,0.053c0.117,0.013,0.195,0.078,0.195,0.299c0,0.117-0.026,0.272-0.078,0.507L39.657,147l0.065,0.156l0.949-0.313
		L41.256,144.244"></path>
	<path id="path4593" d="M50.146,141.371c-0.351-0.039-0.52-0.078-1.04-0.078c-1.391,0-3.276,2.041-3.276,4.082
		c0,0.729,0.169,1.755,1.261,1.755c0.689,0,1.456-0.845,2.236-2.002l0.026,0.026l-0.208,0.676c-0.091,0.313-0.13,0.559-0.13,0.715
		c0,0.247,0.091,0.585,0.533,0.585c0.702,0,1.326-0.715,1.664-1.261l-0.299-0.208c-0.351,0.481-0.598,0.754-0.728,0.754
		c-0.039,0-0.156-0.026-0.156-0.183c0-0.116,0.078-0.545,0.13-0.793l0.897-4.043C50.745,141.396,50.407,141.436,50.146,141.371
		 M49.497,144.152c-0.637,1.171-1.638,2.263-2.054,2.263c-0.442,0-0.572-0.521-0.572-1.248c0-1.378,1.079-3.472,2.275-3.472
		c0.273,0,0.559,0.092,0.806,0.248C49.952,141.943,49.822,143.32,49.497,144.152"></path>
	<path id="path4595" d="M54.938,144.01h-0.962c-0.611,0-0.832-0.363-0.832-0.779c0-0.092,0.013-0.183,0.039-0.273
		c0.104-0.468,0.624-1.196,1.742-1.196c0.169,0,0.351,0.026,0.52,0.065L54.938,144.01 M54.873,144.465l-0.286,1.287
		c-0.078,0.364-0.13,0.663-0.13,0.818c0,0.248,0.104,0.586,0.559,0.586c0.598,0,1.105-0.481,1.573-1.301l-0.247-0.207
		c-0.351,0.507-0.559,0.793-0.741,0.793c-0.026,0-0.169-0.039-0.169-0.183c0-0.13,0.052-0.468,0.156-0.884l0.754-3.211
		c0.065-0.273,0.091-0.391,0.403-0.391h0.325c0.039,0,0.052-0.012,0.065-0.039l0.065-0.312l-0.013-0.026l-1.157,0.026l-1.534-0.013
		c-0.975,0-1.976,0.624-2.21,1.586c-0.013,0.104-0.026,0.208-0.026,0.286c0,0.78,0.845,1.065,1.365,1.065
		c-0.377,0.078-0.715,0.352-1.04,0.885c-0.312,0.494-0.923,1.404-1.313,1.404h-0.091c-0.065,0-0.143,0.012-0.169,0.104l-0.052,0.246
		l0.039,0.027L51.818,147c0.416,0,0.936-0.559,1.235-1.092c0.455-0.78,0.91-1.443,1.43-1.443H54.873"></path>
	<path id="path4597" d="M60.589,145.934c0-0.363-0.234-0.402-0.351-0.402c-0.091,0-0.468,0.078-0.468,0.585
		c0,0.585,0.546,1.04,1.443,1.04c1.898,0,3.367-2.067,3.367-3.848c0-1.119-0.624-2.055-1.833-2.055
		c-0.871,0-0.897,0.156-1.742,0.156c-0.195,0.715-0.338,1.156-0.533,1.729l0.312,0.053c0.351-0.793,0.767-1.534,1.742-1.534
		c0.858,0,1.105,0.819,1.105,1.625c0,0.221-0.026,0.442-0.052,0.649c-0.156,0.065-0.338,0.092-0.52,0.092
		c-0.468,0-0.611-0.248-1.157-0.248c-0.52,0-1.118,0.234-1.17,0.43c-0.013,0.052-0.026,0.169,0.052,0.169
		c0.091,0,0.234-0.065,0.377-0.065c0.429,0,0.689,0.352,1.222,0.352c0.377,0,0.832-0.208,1.131-0.364
		c-0.234,1.015-1.001,2.457-2.132,2.457c-0.494,0-0.793-0.272-0.793-0.676V145.934"></path>
	<path id="path4599" d="M66.652,144.244h2.314l-0.338,1.508c-0.065,0.364-0.117,0.663-0.117,0.818c0,0.248,0.091,0.586,0.545,0.586
		c0.599,0,1.105-0.481,1.574-1.301l-0.248-0.207c-0.351,0.507-0.559,0.793-0.74,0.793c-0.026,0-0.17-0.039-0.17-0.183
		c0-0.13,0.053-0.468,0.156-0.884l0.949-4.068c-0.273,0.039-0.832,0.104-0.975,0.104l-0.52,2.326H66.77l0.195-0.896
		c0.156-0.663,0.39-1.547,0.39-1.547c0-0.039-0.026-0.039-0.052-0.039c-0.403,0.143-0.949,0.26-1.898,0.403l-0.039,0.312
		l0.546,0.053c0.117,0.013,0.195,0.078,0.195,0.299c0,0.117-0.026,0.272-0.078,0.507L65.053,147l0.065,0.156l0.949-0.313
		L66.652,144.244"></path>
	<path id="path4601" d="M71.383,142.527l0.286,0.222c0.403-0.468,0.649-0.715,0.793-0.715c0.091,0,0.169,0.039,0.169,0.182
		c0,0.13-0.025,0.351-0.143,0.78l-0.586,2.223c-0.09,0.338-0.129,0.624-0.129,0.871c0,0.741,0.377,1.04,0.871,1.04
		c1.156,0,1.664-0.806,2.586-2.157l0.039,0.025l-0.194,0.729c-0.104,0.363-0.144,0.662-0.144,0.818c0,0.247,0.117,0.585,0.56,0.585
		c0.221,0,0.429-0.065,0.624-0.194c-0.143,0.351-0.221,0.649-0.221,0.948c0,0.156,0.013,0.261,0.013,0.339
		c0,0.389-0.364,0.584-0.741,0.767l0.143,0.364c1.223-0.481,1.353-0.897,1.353-1.248c0-0.195-0.026-0.352-0.065-0.521
		c-0.025-0.144-0.052-0.312-0.052-0.546c0-0.195,0.052-0.416,0.13-0.624c0.131-0.169,0.26-0.364,0.391-0.585l-0.299-0.208
		c-0.338,0.507-0.547,0.793-0.689,0.793c-0.025,0-0.169-0.039-0.169-0.183c0-0.129,0.052-0.467,0.155-0.883l0.949-4.096
		c-0.272,0.053-0.832,0.117-0.975,0.117l-0.572,2.47c-0.962,1.638-1.625,2.613-2.275,2.613c-0.233,0-0.402-0.144-0.402-0.572
		c0-0.208,0.039-0.493,0.13-0.845l0.56-2.145c0.117-0.442,0.207-0.871,0.207-1.119c0-0.312-0.09-0.48-0.533-0.48
		C72.566,141.293,71.838,141.904,71.383,142.527"></path>
	<path id="path4603" d="M79.53,141.293c-0.585,0-1.313,0.611-1.769,1.234l0.287,0.222c0.402-0.468,0.649-0.715,0.793-0.715
		c0.091,0,0.168,0.039,0.168,0.182c0,0.13-0.025,0.351-0.143,0.78l-0.585,2.223c-0.091,0.338-0.13,0.624-0.13,0.871
		c0,0.741,0.377,1.04,0.871,1.04c1.156,0,1.664-0.806,2.587-2.157l0.039,0.025l-0.194,0.729c-0.104,0.363-0.144,0.662-0.144,0.818
		c0,0.247,0.116,0.585,0.56,0.585c0.598,0,1.104-0.481,1.572-1.3l-0.299-0.208c-0.338,0.507-0.547,0.793-0.689,0.793
		c-0.025,0-0.169-0.039-0.169-0.183c0-0.129,0.052-0.467,0.156-0.883l0.949-4.096c-0.273,0.053-0.832,0.117-0.976,0.117l-0.572,2.47
		c-0.961,1.638-1.625,2.613-2.274,2.613c-0.233,0-0.403-0.144-0.403-0.572c0-0.208,0.039-0.493,0.131-0.845l0.559-2.145
		c0.117-0.442,0.208-0.871,0.208-1.119C80.063,141.462,79.973,141.293,79.53,141.293"></path>
	<path id="path4605" d="M89.095,142.385c0.247,0,0.637-0.26,0.637-0.689c0-0.233-0.143-0.402-0.559-0.402
		c-0.638,0-1.209,0.702-1.586,1.313c-0.442,0.703-0.949,1.209-1.808,1.223L86,142.84c0.156-0.663,0.391-1.547,0.391-1.547
		c0-0.039-0.025-0.039-0.052-0.039c-0.403,0.143-0.949,0.26-1.898,0.403l-0.038,0.312l0.545,0.053
		c0.117,0.013,0.195,0.078,0.195,0.299c0,0.117-0.025,0.272-0.078,0.507L84.09,147l0.064,0.156l0.949-0.313l0.572-2.574
		c0.936,0.092,1.092,0.572,1.222,1.262c0.104,0.533,0.377,1.455,0.962,1.469l0.897,0.025L88.783,147l0.064-0.247
		c0-0.078-0.064-0.091-0.13-0.104l-0.091-0.013c-0.481-0.065-0.729-1.183-0.819-1.677c-0.13-0.637-0.571-0.91-1.274-0.91
		c0.599-0.091,1.015-0.637,1.34-1.195c0.233-0.403,0.494-0.689,0.623-0.689C88.796,142.164,88.691,142.385,89.095,142.385"></path>
	<path id="path4607" d="M94.527,142.385c0.092-0.494,0.17-0.611,0.625-0.611h0.338c0.078,0,0.104-0.025,0.117-0.09l0.064-0.261
		l-0.025-0.026c0,0-0.82,0.026-1.34,0.026h-2.354c-0.493,0-1.248-0.026-1.248-0.026l-0.038,0.026l-0.052,0.234
		c-0.026,0.116,0.025,0.116,0.233,0.116c0.39,0,0.546,0.053,0.546,0.403c0,0.273-0.091,0.716-0.26,1.456
		c-0.313,1.365-0.585,2.145-0.818,2.588c-0.156,0.324-0.3,0.454-0.416,0.454c-0.104,0-0.144-0.13-0.131-0.299
		c0.014-0.013,0.014-0.039,0.014-0.052c0-0.182-0.117-0.338-0.313-0.338c-0.247,0-0.429,0.207-0.48,0.468
		c-0.014,0.026-0.014,0.065-0.014,0.091c0,0.313,0.313,0.585,0.676,0.585c0.494,0,0.924-0.325,1.209-0.937
		c0.26-0.506,0.572-1.586,0.819-2.651c0.286-1.222,0.416-1.612,0.871-1.612h0.688c0.3,0,0.404,0.065,0.404,0.26
		c0,0.092-0.014,0.209-0.053,0.365l-0.65,2.989c-0.117,0.546-0.168,0.793-0.168,1.054c0,0.351,0.285,0.532,0.584,0.532
		c0.481,0,1.027-0.286,1.795-1.209l-0.299-0.247c-0.443,0.52-0.703,0.768-0.898,0.768c-0.09,0-0.129-0.104-0.129-0.234
		s0.025-0.299,0.117-0.768L94.527,142.385"></path>
	<path id="path4609" d="M96.922,144.79c0-1.17,0.391-3.067,1.873-3.067c1.014,0,1.014,0.936,1.014,1.768
		c0,0.845-0.377,3.185-1.834,3.185C97.572,146.675,96.922,146.454,96.922,144.79 M95.83,144.895c0,0.688,0.169,2.235,1.82,2.235
		c1.664,0,3.211-1.677,3.211-3.731c0-0.936-0.234-2.105-1.833-2.105C96.857,141.293,95.83,143.334,95.83,144.895"></path>
	<path id="path4611" d="M103.234,142.971l-0.014-0.014l0.025-0.117l0.391-1.547c0-0.039-0.025-0.039-0.053-0.039
		c-0.402,0.143-0.948,0.26-1.897,0.403l-0.039,0.312l0.546,0.053c0.117,0.013,0.195,0.078,0.195,0.299
		c0,0.117-0.025,0.272-0.078,0.507L101.349,147l0.065,0.156l0.949-0.313l0.74-3.158c0.988-1.313,1.6-1.756,2.066-1.756
		c0.273,0,0.469,0.209,0.469,0.611c0,0.182-0.039,0.441-0.143,0.884l-0.508,2.119c-0.13,0.533-0.168,0.793-0.168,1.054
		c0,0.351,0.285,0.532,0.584,0.532c0.481,0,1.041-0.286,1.795-1.209l-0.3-0.247c-0.442,0.52-0.702,0.768-0.897,0.768
		c-0.09,0-0.143-0.104-0.143-0.234s0.026-0.299,0.131-0.768l0.493-2.119c0.104-0.454,0.183-0.754,0.183-0.987
		c0-0.78-0.364-1.04-0.871-1.04C105.119,141.293,104.43,141.566,103.234,142.971"></path>
	<path id="path4613" d="M111.432,142.189c0,1.235-1.521,1.795-2.522,1.873c0.455-1.963,1.222-2.367,1.846-2.367
		C111.223,141.695,111.432,141.813,111.432,142.189 M108.857,144.413c3.393-0.663,3.484-1.716,3.484-2.21
		c0-0.455-0.234-0.91-1.287-0.91c-2.224,0-3.289,2.21-3.289,3.861c0,1.104,0.363,1.976,1.689,1.976c1.053,0,1.781-0.532,2.51-1.534
		c-0.066-0.143-0.131-0.207-0.287-0.207c-0.701,0.754-1.131,1.117-1.754,1.117c-0.586,0-1.08-0.468-1.08-1.65
		C108.844,144.79,108.844,144.518,108.857,144.413"></path>
	<path id="path4615" d="M116.727,142.516c0,0.701-0.402,4.094-2.002,4.094c-0.61,0-0.948-0.715-0.948-1.599
		c0.013-2.079,1.079-3.263,1.95-3.263C116.09,141.748,116.727,141.904,116.727,142.516 M116.025,141.254
		c-0.273,0-0.793,0.13-1.391,0.455c-0.949,0.52-1.925,1.82-1.925,3.445c0,1.027,0.468,2.002,1.612,2.002
		c0.962,0,1.456-0.416,1.949-0.871c0.807-0.729,1.457-2.236,1.457-3.848c-0.014-0.976-0.248-1.898-0.78-2.705
		c-0.962-1.521-1.937-1.391-2.782-1.871h-0.013c-0.026,0-0.052,0.078-0.052,0.195c0,0.416,0.168,0.883,0.779,1.092
		c1.092,0.377,2.028,0.572,2.028,2.015c0,0.104,0,0.208-0.026,0.325C116.648,141.307,116.337,141.254,116.025,141.254"></path>
	<path id="path4617" d="M120.098,141.293c-0.585,0-1.313,0.611-1.768,1.234l0.285,0.222c0.403-0.468,0.65-0.715,0.793-0.715
		c0.092,0,0.17,0.039,0.17,0.182c0,0.13-0.026,0.351-0.144,0.78l-0.585,2.223c-0.091,0.338-0.13,0.624-0.13,0.871
		c0,0.741,0.377,1.04,0.87,1.04c1.158,0,1.664-0.806,2.588-2.157l0.039,0.025l-0.195,0.729c-0.104,0.363-0.143,0.662-0.143,0.818
		c0,0.247,0.117,0.585,0.559,0.585c0.598,0,1.105-0.481,1.573-1.3l-0.3-0.208c-0.338,0.507-0.545,0.793-0.688,0.793
		c-0.026,0-0.169-0.039-0.169-0.183c0-0.129,0.053-0.467,0.156-0.883l0.949-4.096c-0.273,0.053-0.832,0.117-0.976,0.117l-0.571,2.47
		c-0.963,1.638-1.625,2.613-2.275,2.613c-0.234,0-0.403-0.144-0.403-0.572c0-0.208,0.039-0.493,0.13-0.845l0.559-2.145
		c0.117-0.442,0.209-0.871,0.209-1.119C120.631,141.462,120.539,141.293,120.098,141.293"></path>
	<path id="path4619" d="M127.738,144.01h-0.963c-0.61,0-0.832-0.363-0.832-0.779c0-0.092,0.014-0.183,0.039-0.273
		c0.104-0.468,0.625-1.196,1.742-1.196c0.17,0,0.352,0.026,0.52,0.065L127.738,144.01 M127.673,144.465l-0.286,1.287
		c-0.078,0.364-0.13,0.663-0.13,0.818c0,0.248,0.104,0.586,0.56,0.586c0.598,0,1.104-0.481,1.572-1.301l-0.247-0.207
		c-0.351,0.507-0.559,0.793-0.741,0.793c-0.025,0-0.168-0.039-0.168-0.183c0-0.13,0.051-0.468,0.155-0.884l0.754-3.211
		c0.065-0.273,0.091-0.391,0.403-0.391h0.324c0.039,0,0.053-0.012,0.066-0.039l0.064-0.312l-0.014-0.026l-1.156,0.026l-1.534-0.013
		c-0.976,0-1.976,0.624-2.21,1.586c-0.014,0.104-0.025,0.208-0.025,0.286c0,0.78,0.844,1.065,1.364,1.065
		c-0.377,0.078-0.715,0.352-1.04,0.885c-0.313,0.494-0.923,1.404-1.313,1.404h-0.092c-0.064,0-0.143,0.012-0.168,0.104l-0.053,0.246
		l0.039,0.027l0.818-0.014c0.416,0,0.937-0.559,1.236-1.092c0.454-0.78,0.909-1.443,1.43-1.443H127.673"></path>
</g>
<g id="ВИКИПЕДИЯ_x0D__1_">
	<g>
		<path d="M9.441,115.123c5.021,0,5.804,2.382,5.804,4.218c0,1.487-1.212,2.895-2.564,3.59v0.055
			c2.349,0.686,4.157,2.19,4.157,4.822c0,2.354-1.431,5.096-6.802,5.096c-2.402,0-2.78-0.057-3.941-0.057
			c-1.376,0-2.186,0.028-3.509,0.057c-0.162-0.165-0.162-0.741,0-0.906c1.89-0.081,2.348-0.218,2.348-2.491V118.52
			c0-2.273-0.458-2.411-2.348-2.493c-0.162-0.163-0.162-0.739,0-0.903c1.35,0.026,2.132,0.055,3.482,0.055
			C7.228,115.178,8.496,115.123,9.441,115.123z M7.228,122.821h1.998c2.24,0,3.833-0.823,3.833-3.148
			c0-2.796-1.971-3.617-3.482-3.617c-2.349,0-2.349,0.272-2.349,1.177V122.821z M7.228,130.161c0,0.905,0.351,1.836,2.241,1.836
			c4.103,0,4.858-1.669,4.858-3.671c0-2.464-1.539-4.574-5.236-4.574H7.228V130.161z"></path>
		<path d="M31.819,132.245c0.121,0.114,0.121,0.525,0,0.642c-1.013-0.02-1.6-0.04-2.612-0.04c-1.033,0-1.64,0.021-2.632,0.04
			c-0.122-0.116-0.122-0.527,0-0.642c1.417-0.06,1.762-0.155,1.762-1.771v-6.925c-0.152,0.049-0.255,0.137-0.354,0.252l-5.53,6.615
			c-0.237,0.291-0.439,0.447-0.579,0.909c0.144,0.804,0.595,0.873,1.705,0.92c0.122,0.116,0.122,0.525,0,0.642
			c-1.013-0.021-1.6-0.04-2.612-0.04c-1.033,0-1.64,0.021-2.632,0.04c-0.121-0.116-0.121-0.525,0-0.642
			c1.417-0.059,1.762-0.155,1.762-1.771v-7.801c0-1.613-0.344-1.713-1.762-1.771c-0.121-0.115-0.121-0.525,0-0.64
			c1.013,0.019,1.6,0.037,2.612,0.037c1.033,0,1.64-0.02,2.632-0.037c0.122,0.114,0.122,0.524,0,0.64
			c-1.417,0.059-1.762,0.157-1.762,1.771v6.924c0.093-0.005,0.21-0.071,0.358-0.213l5.564-6.653
			c0.229-0.276,0.417-0.629,0.534-0.944c-0.15-0.77-0.605-0.84-1.699-0.884c-0.122-0.116-0.122-0.526,0-0.642
			c1.013,0.02,1.6,0.039,2.612,0.039c1.032,0,1.64-0.021,2.632-0.039c0.121,0.115,0.121,0.525,0,0.642
			c-1.417,0.058-1.762,0.155-1.762,1.771v7.8C30.057,132.09,30.401,132.188,31.819,132.245z"></path>
		<path d="M33.175,132.477c0-0.097,0.061-0.154,0.142-0.154l0.546-0.037c0.851-0.062,1.094-0.274,1.094-0.817v-9.785
			c0-0.584-0.304-0.759-1.094-0.818l-0.526-0.038c-0.081,0-0.162-0.059-0.162-0.154v-0.37l0.041-0.037
			c1.013,0.019,1.62,0.037,2.632,0.037c1.013,0,1.6-0.02,2.592-0.037l0.041,0.037v0.37c0,0.098-0.061,0.154-0.162,0.154
			l-0.526,0.038c-0.81,0.062-1.114,0.273-1.114,0.818v4.045c0.729,0,1.64-0.019,2.126-0.291c1.194-0.623,1.478-1.867,1.66-2.956
			c0.203-1.204,0.77-2.296,2.369-2.296c1.073,0,1.438,0.563,1.438,1.011c0,0.564-0.465,0.779-0.891,0.779
			c-0.263,0-0.547-0.097-0.75-0.292c-0.223-0.215-0.385-0.312-0.648-0.312c-0.607,0-0.747,0.643-0.85,1.205
			c-0.223,1.207-0.648,2.878-2.187,3.424v0.098c1.397,0,2.187,0.835,2.733,2.199c1.055,2.624,2.086,3.948,2.794,4.006l0.324,0.02
			c0.102,0,0.162,0.058,0.162,0.153v0.37l-0.02,0.04l-1.6-0.021c-1.58-0.02-2.309-1.596-3.179-3.735
			c-0.792-1.943-1.174-2.586-3.483-2.586v4.922c0,0.581,0.304,0.755,1.114,0.817l0.526,0.036c0.081,0,0.162,0.06,0.162,0.155v0.371
			l-0.041,0.039c-0.972-0.039-1.559-0.039-2.571-0.039c-1.013,0-1.661,0-2.653,0.039l-0.041-0.039v-0.369H33.175z"></path>
		<path d="M59.701,132.245c0.121,0.114,0.121,0.525,0,0.642c-1.012-0.02-1.6-0.04-2.611-0.04c-1.033,0-1.641,0.021-2.632,0.04
			c-0.122-0.116-0.122-0.527,0-0.642c1.417-0.06,1.762-0.155,1.762-1.771v-6.925c-0.151,0.049-0.255,0.137-0.354,0.252l-5.529,6.615
			c-0.237,0.291-0.439,0.447-0.579,0.909c0.144,0.804,0.595,0.873,1.705,0.92c0.122,0.116,0.122,0.525,0,0.642
			c-1.013-0.021-1.601-0.04-2.612-0.04c-1.033,0-1.64,0.021-2.632,0.04c-0.122-0.116-0.122-0.525,0-0.642
			c1.417-0.059,1.762-0.155,1.762-1.771v-7.801c0-1.613-0.344-1.713-1.762-1.771c-0.122-0.115-0.122-0.525,0-0.64
			c1.013,0.019,1.6,0.037,2.612,0.037c1.033,0,1.64-0.02,2.632-0.037c0.122,0.114,0.122,0.524,0,0.64
			c-1.417,0.059-1.763,0.157-1.763,1.771v6.924c0.094-0.005,0.211-0.071,0.359-0.213l5.563-6.653
			c0.229-0.276,0.417-0.629,0.534-0.944c-0.15-0.77-0.605-0.84-1.699-0.884c-0.122-0.116-0.122-0.526,0-0.642
			c1.013,0.02,1.6,0.039,2.611,0.039c1.033,0,1.641-0.021,2.633-0.039c0.121,0.115,0.121,0.525,0,0.642
			c-1.418,0.058-1.762,0.155-1.762,1.771v7.8C57.939,132.09,58.283,132.188,59.701,132.245z"></path>
		<path d="M74.058,120.265c0.121,0.114,0.121,0.524,0,0.64c-1.418,0.059-1.762,0.156-1.762,1.771v7.801
			c0,1.615,0.344,1.712,1.762,1.771c0.121,0.116,0.121,0.525,0,0.642c-0.992-0.021-1.6-0.04-2.633-0.04
			c-1.012,0-1.6,0.021-2.611,0.04c-0.121-0.116-0.121-0.525,0-0.642c1.417-0.059,1.762-0.155,1.762-1.771v-7.956
			c0-1.205-0.445-1.438-0.932-1.438h-3.989c-0.485,0-0.932,0.231-0.932,1.438v7.956c0,1.615,0.344,1.712,1.762,1.771
			c0.123,0.116,0.123,0.525,0,0.642c-1.012-0.021-1.6-0.04-2.611-0.04c-1.033,0-1.641,0.021-2.633,0.04
			c-0.121-0.116-0.121-0.525,0-0.642c1.418-0.059,1.762-0.155,1.762-1.771v-7.801c0-1.613-0.344-1.713-1.762-1.771
			c-0.121-0.115-0.121-0.525,0-0.64c1.013,0.019,2.146,0.037,2.613,0.037h7.592C71.992,120.302,73.046,120.282,74.058,120.265z"></path>
		<path d="M82.866,124.502c0.122-0.116,0.547-0.116,0.669,0c-0.021,0.586-0.041,1.011-0.041,1.674c0,0.66,0.021,1.029,0.041,1.713
			c-0.122,0.113-0.547,0.113-0.669,0c-0.061-0.876-0.121-1.326-1.842-1.326h-1.844v4.688c0,0.526,0.283,0.838,0.729,0.838h2.755
			c1.538,0,2.248-1.149,2.651-2.549c0.267-0.063,0.498-0.021,0.709,0.097c-0.162,0.992-0.466,2.276-0.749,3.249
			c0,0-1.62-0.04-2.592-0.04h-4.354c0,0-1.641,0.021-2.633,0.04c-0.121-0.116-0.121-0.526,0-0.643
			c1.418-0.058,1.762-0.154,1.762-1.77v-7.801c0-1.614-0.344-1.712-1.762-1.771c-0.121-0.115-0.121-0.525,0-0.64
			c1.014,0.019,2.612,0.037,2.612,0.037h5.163c0.486,0,0.648-0.02,0.992-0.078c0.062,0,0.08,0.021,0.08,0.06
			c0.041,0.155,0.346,2.021,0.445,2.818c-0.197,0.094-0.417,0.134-0.668,0.1c-0.445-1.342-0.77-2.12-2.288-2.12h-2.126
			c-0.484,0-0.729,0.388-0.729,0.854v3.89h1.843C82.745,125.824,82.806,125.573,82.866,124.502z"></path>
		<path d="M91.027,126.992c0.444-2.217,0.688-4.22,0.688-5.446c0-0.408-0.183-0.609-0.709-0.66l-0.607-0.06
			c-0.102,0-0.161-0.038-0.161-0.117v-0.407l0.04-0.037c0,0,1.417,0.037,2.023,0.037h5.285c0.607,0,2.207-0.037,2.207-0.037
			l0.041,0.037v0.37c0,0.116-0.08,0.148-0.162,0.154l-0.588,0.038c-0.65,0.043-0.748,0.292-0.748,0.994v9.472
			c0,0.719,0.455,0.934,0.811,0.992c0.439,0.073,0.595,0.138,0.607,0.37l0.142,2.878c-0.547,0-0.547,0.021-0.547,0.021
			c-0.243-1.089-0.972-2.743-2.593-2.743h-5.871c-1.682,0-2.207,1.732-2.43,2.743l-0.548-0.021l0.142-2.878
			c0.014-0.232,0.226-0.341,0.427-0.37c0.396-0.059,0.719-0.106,1.012-0.389C90.018,131.427,90.38,130.026,91.027,126.992z
			 M93.376,121.079c-0.545,0-0.748,0.273-0.789,0.759c-0.164,1.964-0.485,3.986-0.729,5.31c-0.445,2.275-0.951,4.202-0.951,4.609
			c0,0.233,0.264,0.332,0.547,0.332h4.434c0.486,0,0.729-0.06,0.729-0.779v-9.474c0-0.603-0.122-0.757-0.749-0.757H93.376
			L93.376,121.079z"></path>
		<path d="M115.326,132.245c0.122,0.114,0.122,0.525,0,0.642c-1.013-0.02-1.6-0.04-2.612-0.04c-1.031,0-1.64,0.021-2.631,0.04
			c-0.121-0.116-0.121-0.527,0-0.642c1.416-0.06,1.762-0.155,1.762-1.771v-6.925c-0.152,0.049-0.256,0.137-0.354,0.252l-5.53,6.615
			c-0.235,0.291-0.438,0.447-0.578,0.909c0.145,0.804,0.596,0.873,1.705,0.92c0.121,0.116,0.121,0.525,0,0.642
			c-1.013-0.021-1.601-0.04-2.611-0.04c-1.033,0-1.641,0.021-2.633,0.04c-0.121-0.116-0.121-0.525,0-0.642
			c1.418-0.059,1.762-0.155,1.762-1.771v-7.801c0-1.613-0.344-1.713-1.762-1.771c-0.121-0.115-0.121-0.525,0-0.64
			c1.013,0.019,1.6,0.037,2.611,0.037c1.032,0,1.641-0.02,2.633-0.037c0.121,0.114,0.121,0.524,0,0.64
			c-1.418,0.059-1.763,0.157-1.763,1.771v6.924c0.095-0.005,0.211-0.071,0.358-0.213l5.564-6.653
			c0.229-0.276,0.416-0.629,0.534-0.944c-0.149-0.77-0.604-0.84-1.698-0.884c-0.121-0.116-0.121-0.526,0-0.642
			c1.012,0.02,1.6,0.039,2.611,0.039c1.032,0,1.641-0.021,2.632-0.039c0.122,0.115,0.122,0.525,0,0.642
			c-1.417,0.058-1.762,0.155-1.762,1.771v7.8C113.564,132.09,113.909,132.188,115.326,132.245z"></path>
		<path d="M116.4,132.326c0-0.137,0.081-0.218,0.188-0.218l0.242-0.028c0.864-0.108,2.203-1.6,3.592-5.261
			c0.674-1.78,1.483-2.466,2.213-2.903v-0.081c-1.836-0.274-4.021-1.644-4.021-4.439c0-1.891,0.917-4.246,5.938-4.246
			c0.945,0,2.537,0.027,3.429,0.027c0.837,0,3.455-0.027,3.455-0.027v0.575c0,0.109-0.054,0.189-0.188,0.189l-0.811,0.057
			c-1.135,0.082-1.432,0.275-1.432,1.205v13.67c0,0.823,0.353,1.124,1.459,1.205l0.729,0.058c0.107,0,0.216,0.081,0.216,0.218v0.521
			l-0.054,0.057c0,0-2.35-0.057-3.401-0.057c-0.972,0-3.481,0.057-3.481,0.057l-0.055-0.057v-0.521c0-0.137,0.082-0.218,0.217-0.218
			l0.701-0.058c1.135-0.086,1.484-0.437,1.484-1.205v-6.875c-2.861,0-3.4,0.794-4.534,3.7c-1.161,2.971-2.159,5.174-4.075,5.204
			l-1.781,0.025l-0.027-0.055L116.4,132.326L116.4,132.326z M124.714,122.931h2.105v-5.834c0-0.907-0.107-0.988-2.456-0.988
			c-1.512,0-3.563,0.438-3.563,2.985C120.8,121.998,122.474,122.931,124.714,122.931z"></path>
	</g>
</g>
</svg>
</svg>