<?xml version="1.0" encoding="UTF-8" standalone="no"?>
<svg
	xmlns="http://www.w3.org/2000/svg"
	xmlns:dc="http://purl.org/dc/elements/1.1/"
	xmlns:cc="http://creativecommons.org/ns#"
	xmlns:rdf="http://www.w3.org/1999/02/22-rdf-syntax-ns#"
	xmlns:svg="http://www.w3.org/2000/svg"
	xmlns:xlink="http://www.w3.org/1999/xlink"
	xmlns:sodipodi="http://sodipodi.sourceforge.net/DTD/sodipodi-0.dtd"
	xmlns:inkscape="http://www.inkscape.org/namespaces/inkscape"
	version="1.1"
	viewBox="0 0 135px 155px">
	<svg xmlns:dc="http://purl.org/dc/elements/1.1/" xmlns:cc="http://creativecommons.org/ns#" xmlns:rdf="http://www.w3.org/1999/02/22-rdf-syntax-ns#" xmlns:svg="http://www.w3.org/2000/svg" xmlns:sodipodi="http://sodipodi.sourceforge.net/DTD/sodipodi-0.dtd" xmlns:inkscape="http://www.inkscape.org/namespaces/inkscape" version="1.1" id="svg3857" inkscape:version="0.46" sodipodi:docname="Wikipedia-logo-v2-sa.svg" x="0px" y="0px" width="135px" height="155px" viewBox="0 0 135 155" enable-background="new 0 0 135 155" xml:space="preserve" sodipodi:version="0.32" inkscape:output_extension="org.inkscape.output.svg.inkscape" xmlns:xlink="http://www.w3.org/1999/xlink" xmlns:svgjs="http://svgjs.com/svgjs"><metadata id="metadata698"><rdf:RDF><cc:Work rdf:about=""><dc:format>image/svg+xml</dc:format><dc:type rdf:resource="http://purl.org/dc/dcmitype/StillImage"></dc:type></cc:Work></rdf:RDF></metadata><defs id="defs3"></defs><sodipodi:namedview id="namedview4848" showgrid="false" pagecolor="#ffffff" objecttolerance="10" guidetolerance="10" inkscape:cy="14.364573" inkscape:guide-bbox="true" showguides="true" inkscape:zoom="3.2129032" inkscape:pageopacity="0" gridtolerance="10" inkscape:window-height="723" bordercolor="#666666" inkscape:window-y="24" borderopacity="1" inkscape:pageshadow="2" inkscape:window-x="0" inkscape:window-width="1024" inkscape:cx="79.938321" inkscape:current-layer="svg3857" inkscape:window-maximized="0">
	<sodipodi:guide id="globe_top" orientation="0,1" position="0,140"></sodipodi:guide>
	<sodipodi:guide id="globe_left" orientation="1,0" position="16,0"></sodipodi:guide>
	<sodipodi:guide id="globe_right" orientation="1,0" position="119,0"></sodipodi:guide>
	<sodipodi:guide id="globe_bottom" orientation="0,1" position="0,47"></sodipodi:guide>
	<sodipodi:guide id="wordmark_top" orientation="0,1" position="8,40"></sodipodi:guide>
	<sodipodi:guide id="wordmark_bottom" orientation="0,1" position="0,22.5"></sodipodi:guide>
	<sodipodi:guide id="subtitle_top" orientation="0,1" position="0,17"></sodipodi:guide>
	<sodipodi:guide id="subtitle_bottom" orientation="0,1" position="0,8"></sodipodi:guide>
	<sodipodi:guide id="wordmark_left" orientation="1,0" position="8,40"></sodipodi:guide>
	<sodipodi:guide id="wordmark_right" orientation="1,0" position="127,40"></sodipodi:guide>
<sodipodi:guide orientation="0,1" position="0,43.5" id="guide2874"></sodipodi:guide><sodipodi:guide orientation="0,1" position="0,21.062" id="guide2876"></sodipodi:guide><sodipodi:guide orientation="1,0" position="22.494834,40.747028" id="guide3928"></sodipodi:guide><sodipodi:guide orientation="1,0" position="111.375,-4.625" id="guide3930"></sodipodi:guide><sodipodi:guide orientation="1,0" position="86.847656,-0.1953125" id="guide4063"></sodipodi:guide></sodipodi:namedview><path transform="matrix(1.4949142,0,0,1.4949142,-50.592803,-131.07974)" d="M 41.675331,165.8694 L 42.786171,166.97389 L 42.786171,176.31764 L 41.675331,175.2195 L 41.675331,165.8694 M 44.747597,165.8694 L 45.858437,166.97389 L 45.858437,176.31764 L 44.747597,175.2195 L 44.747597,165.8694 M 50.708046,167.45631 L 49.768593,167.45631 L 48.879921,166.58034 L 50.720741,166.58034 C 50.297564,165.95828 50.085975,165.20079 50.085976,164.30788 C 50.085975,163.66889 50.333534,163.1632 50.828651,162.79079 C 51.230668,162.49034 51.772334,162.34012 52.453651,162.3401 C 53.139195,162.34012 53.72741,162.41629 54.2183,162.56862 C 54.789584,162.74213 55.358757,163.04682 55.925819,163.48268 C 56.907583,164.24018 57.662953,165.30024 58.191933,166.66286 L 57.868202,166.66286 C 57.800486,166.54438 57.688344,166.32221 57.531776,165.99635 C 57.375193,165.63666 57.076854,165.24522 56.636757,164.82204 C 56.078157,164.28461 55.532259,163.90164 54.999062,163.67311 C 54.355828,163.39806 53.706252,163.26053 53.050331,163.26051 C 52.445185,163.26053 51.945837,163.39594 51.552284,163.66676 C 51.057166,164.00532 50.809607,164.44965 50.809608,164.99977 C 50.809607,165.69802 51.014848,166.22488 51.425331,166.58034 L 52.720253,166.58034 L 53.608925,167.45631 L 51.761757,167.45631 L 51.761757,175.68288 L 50.708046,174.62917 L 50.708046,167.45631 M 56.865273,174.62917 L 56.865273,174.62917 M 56.865273,167.00563 L 56.865273,167.00563 M 58.71244,167.00563 L 58.71244,167.00563 M 58.71244,174.62917 L 58.71244,174.62917 M 52.713905,167.45631 L 51.850624,166.58034 L 60.578651,166.58034 L 61.435585,167.45631 L 59.296425,167.45631 L 59.296425,175.68288 L 58.166542,174.55299 L 58.166542,172.27419 C 57.849154,172.48578 57.485222,172.67197 57.074745,172.83278 C 56.605015,173.01475 56.21146,173.09727 55.894081,173.08034 C 55.250849,173.04649 54.694372,172.73545 54.224648,172.14723 C 53.852251,171.67751 53.666053,171.12315 53.666054,170.48415 C 53.737993,170.15407 53.860714,169.88959 54.034218,169.69069 C 54.707067,169.05593 55.451858,168.75336 56.268593,168.78297 C 57.081088,168.80837 57.713738,169.19769 58.166542,169.95094 L 58.166542,167.45631 L 52.713905,167.45631 M 58.033241,170.23659 C 57.897819,169.94883 57.478875,169.80495 56.776405,169.80495 C 56.023147,169.80495 55.354528,170.10118 54.770546,170.69362 C 54.487016,170.98138 54.345251,171.27549 54.345253,171.57594 C 54.345251,171.97373 54.668982,172.17263 55.316444,172.17262 C 56.128941,172.17263 56.867384,171.82985 57.531776,171.1443 C 57.866081,170.80153 58.033236,170.49896 58.033241,170.23659 M 61.499062,167.45631 L 60.559608,167.45631 L 59.670937,166.58034 L 61.511757,166.58034 C 61.088579,165.95828 60.876991,165.20079 60.876991,164.30788 C 60.876991,163.66889 61.124549,163.1632 61.619667,162.79079 C 62.021684,162.49034 62.56335,162.34012 63.244667,162.3401 C 63.930211,162.34012 64.518426,162.41629 65.009315,162.56862 C 65.5806,162.74213 66.149772,163.04682 66.716835,163.48268 C 67.698599,164.24018 68.453969,165.30024 68.982948,166.66286 L 68.659218,166.66286 C 68.591501,166.54438 68.47936,166.32221 68.322792,165.99635 C 68.166209,165.63666 67.867869,165.24522 67.427773,164.82204 C 66.869172,164.28461 66.323275,163.90164 65.790077,163.67311 C 65.146843,163.39806 64.497267,163.26053 63.841347,163.26051 C 63.236201,163.26053 62.736852,163.39594 62.3433,163.66676 C 61.848181,164.00532 61.600623,164.44965 61.600624,164.99977 C 61.600623,165.69802 61.805864,166.22488 62.216347,166.58034 L 63.511269,166.58034 L 64.39994,167.45631 L 62.552773,167.45631 L 62.552773,175.68288 L 61.499062,174.62917 L 61.499062,167.45631 M 69.268593,167.13258 L 69.268593,167.13258 M 69.268593,174.69264 L 69.268593,174.69264 M 63.504921,167.45631 L 62.635292,166.58034 L 74.499062,166.58034 L 75.36869,167.45631 L 69.497108,167.45631 L 69.497108,169.90016 C 69.624055,169.78591 69.717154,169.70762 69.776405,169.6653 C 69.920279,169.55951 70.062043,169.48757 70.201698,169.44948 C 70.489452,169.36908 70.758169,169.32888 71.007851,169.32887 C 71.655303,169.32888 72.190622,169.55528 72.613808,170.00807 C 73.036975,170.45664 73.248564,171.00889 73.248573,171.66481 C 73.248564,172.18955 73.062366,172.68467 72.68998,173.15016 C 72.410674,173.50986 71.972686,173.81032 71.376015,174.05153 L 70.912636,173.15016 C 71.513539,172.87087 71.915557,172.65082 72.11869,172.49001 C 72.567249,172.13877 72.791533,171.75368 72.791542,171.33473 C 72.791533,170.95811 72.615914,170.61745 72.264687,170.31276 C 72.040394,170.12234 71.691273,170.0504 71.217323,170.09694 C 70.993032,170.1181 70.717967,170.26622 70.392128,170.54128 C 70.070507,170.81211 69.772167,171.14431 69.497108,171.53786 L 69.497108,175.68288 L 68.443398,174.61647 L 68.443398,172.7693 C 68.261427,172.97243 67.992709,173.14805 67.637245,173.29616 C 67.281773,173.44004 66.962274,173.51198 66.678749,173.51198 C 66.06514,173.51198 65.540401,173.30251 65.10453,172.88356 C 64.672889,172.46462 64.457068,171.94834 64.457069,171.33473 C 64.457068,170.70843 64.662309,170.19216 65.072792,169.7859 C 65.483272,169.37543 66.001663,169.17019 66.627968,169.17018 C 67.423537,169.17019 68.028679,169.50873 68.443398,170.18581 L 68.443398,170.57301 C 68.070997,170.24294 67.643589,170.0779 67.161171,170.0779 C 66.543329,170.0779 66.06514,170.19851 65.726601,170.43971 C 65.261104,170.7698 65.007198,171.2099 64.964882,171.76003 C 64.93949,172.10703 65.034705,172.38633 65.250526,172.59792 C 65.428259,172.76719 65.673701,172.85182 65.986855,172.85182 C 66.435419,172.85182 66.949579,172.62331 67.529335,172.16628 C 68.138705,171.68386 68.443393,171.22259 68.443398,170.78249 L 68.443398,167.45631 L 63.504921,167.45631 M 78.028358,174.69264 L 78.028358,174.69264 M 78.028358,167.06911 L 78.028358,167.06911 M 79.875526,167.06911 L 79.875526,167.06911 M 79.875526,174.69264 L 79.875526,174.69264 M 74.524452,167.45631 L 73.654823,166.58034 L 81.773476,166.58034 L 82.6558,167.45631 L 80.503944,167.45631 L 80.503944,175.68288 L 79.412148,174.58473 L 79.412148,171.96315 C 79.065138,172.17051 78.548862,172.27419 77.863319,172.27419 C 77.190465,172.20648 76.623408,171.90179 76.162148,171.36012 C 75.705115,170.83116 75.4766,170.22601 75.476601,169.54469 L 75.476601,167.45631 L 74.524452,167.45631 M 76.435097,170.09059 C 76.435095,170.45453 76.534541,170.78461 76.733437,171.08083 C 76.96195,171.41937 77.247594,171.58864 77.59037,171.58864 C 77.958531,171.58864 78.280145,171.48708 78.555214,171.28395 C 78.648309,171.22471 78.817579,171.0766 79.063026,170.83961 C 79.160353,170.72959 79.276726,170.54128 79.412148,170.27467 L 79.412148,167.45631 L 76.435097,167.45631 L 76.435097,170.09059 M 80.402382,165.68532 L 80.402382,165.68532 M 80.402382,175.13698 L 80.402382,175.13698 M 82.966835,167.00563 L 82.966835,167.00563 M 82.700233,167.45631 L 81.754433,167.45631 L 80.884804,166.58034 L 82.87162,166.58034 C 82.668494,165.98367 82.376502,165.40603 81.995644,164.84743 C 81.496295,164.11534 81.020221,163.74929 80.567421,163.74928 C 80.123087,163.74929 79.769734,163.93126 79.507362,164.29518 C 79.270386,164.62104 79.151896,165.01459 79.151894,165.47585 C 79.151896,165.76362 79.242879,166.10216 79.424843,166.49147 L 78.396523,166.49147 C 78.252646,166.11062 78.180706,165.71707 78.180702,165.31081 C 78.180706,164.55333 78.337281,163.95454 78.650429,163.51442 C 79.014364,163.01085 79.560262,162.75906 80.288124,162.75905 C 81.066771,162.75906 81.748085,163.22244 82.332069,164.14919 C 82.632524,164.62739 82.99434,165.43777 83.417519,166.58034 L 85.055214,166.58034 L 85.924843,167.45631 L 83.753944,167.45631 L 83.753944,175.67018 L 82.700233,174.61647 L 82.700233,167.45631 M 85.975624,167.45631 L 85.036171,167.45631 L 84.147499,166.58034 L 85.988319,166.58034 C 85.565142,165.95828 85.353553,165.20079 85.353554,164.30788 C 85.353553,163.65196 85.639198,163.13569 86.210487,162.75905 C 86.705603,162.43322 87.300166,162.27029 87.994179,162.27028 C 89.310255,162.27029 90.533236,162.70616 91.663124,163.5779 C 92.966502,164.58507 93.882679,165.61339 94.411659,166.66286 L 94.087929,166.66286 C 93.410837,165.66417 92.636424,164.87918 91.764687,164.30788 C 90.833691,163.69851 89.756707,163.36209 88.53373,163.2986 C 87.827021,163.26053 87.247269,163.38748 86.794472,163.67946 C 86.31628,163.99262 86.077186,164.43273 86.077187,164.99977 C 86.077186,165.69802 86.282426,166.22488 86.692909,166.58034 L 88.019569,166.58034 L 88.908241,167.45631 L 87.029335,167.45631 L 87.029335,175.68288 L 85.975624,174.63551 L 85.975624,167.45631 M 93.573769,167.45631 L 87.981483,167.45631 L 87.111855,166.58034 L 96.131874,166.58034 L 97.014198,167.45631 L 94.519569,167.45631 L 94.519569,170.22389 L 91.548866,170.2112 C 90.749059,170.20697 90.349157,170.3974 90.349159,170.78249 C 90.349157,171.01101 90.412633,171.20567 90.539589,171.36647 C 90.675003,171.53998 90.854853,171.62673 91.07914,171.62672 C 91.256871,171.62673 91.521356,171.59922 91.872597,171.5442 C 92.223829,171.48496 92.488315,171.45534 92.666054,171.45534 C 93.275423,171.45534 93.798047,171.71348 94.233925,172.22975 C 94.652864,172.72064 94.862336,173.27712 94.862343,173.89919 C 94.862336,174.3943 94.614778,174.82383 94.119667,175.18776 C 93.666862,175.52207 93.182325,175.68922 92.666054,175.68922 C 91.705438,175.68922 90.795608,175.25335 89.936562,174.38161 C 89.356808,173.79339 88.753781,172.94069 88.12748,171.8235 L 88.514687,171.60133 C 88.920936,172.37152 89.413936,173.03379 89.99369,173.58815 C 90.725784,174.29063 91.440953,174.64186 92.139198,174.64186 C 92.600457,174.64186 93.017286,174.49163 93.389687,174.19118 C 93.791699,173.8738 93.992708,173.49082 93.992714,173.04225 C 93.992708,172.85606 93.929231,172.69737 93.802284,172.56618 C 93.675325,172.435 93.520866,172.3694 93.338905,172.3694 C 93.14847,172.3694 92.875522,172.44346 92.520058,172.59157 C 92.168817,172.73545 91.900099,172.80739 91.713905,172.80739 C 91.23148,172.80739 90.806188,172.55772 90.438026,172.05836 C 90.323766,171.91026 90.06986,171.45534 89.676308,170.69362 C 89.519731,170.39317 89.441443,170.14984 89.441444,169.96364 C 89.441443,169.60394 89.633988,169.36485 90.019081,169.24635 C 90.234899,169.17865 90.575556,169.1448 91.041054,169.14479 L 93.573769,169.14479 L 93.573769,167.45631 M 99.965858,174.69264 L 99.965858,174.69264 M 99.965858,167.06911 L 99.965858,167.06911 M 102.32084,167.06911 L 102.32084,167.06911 M 102.32084,174.69264 L 102.32084,174.69264 M 96.131874,167.45631 L 95.262245,166.58034 L 104.12992,166.58034 L 105.01225,167.45631 L 102.84769,167.45631 L 102.84769,175.68288 L 101.81303,174.63551 L 101.81303,172.33131 C 101.30098,172.91953 100.64505,173.21364 99.845253,173.21364 C 98.859248,173.21364 98.105993,172.83701 97.585487,172.08376 C 97.246945,171.59287 97.077674,171.03428 97.077675,170.40797 C 97.458533,170.40798 97.79919,170.31065 98.099648,170.11598 C 98.433955,169.90017 98.630732,169.61452 98.68998,169.25905 C 98.715368,169.17442 98.728063,169.02842 98.728065,168.82106 C 98.728063,168.20323 98.495316,167.74831 98.029823,167.45631 L 96.131874,167.45631 M 99.01371,170.57301 C 98.772496,170.82692 98.556676,171.00466 98.366249,171.10622 C 98.23083,171.17816 98.036169,171.24799 97.782265,171.31569 C 97.981156,171.93776 98.404333,172.34401 99.051796,172.53444 C 99.288772,172.58099 99.441116,172.60427 99.508827,172.60426 C 100.31286,172.60427 100.97513,172.10915 101.49564,171.11891 C 101.6903,170.74652 101.78763,170.32123 101.78764,169.84303 L 101.78764,167.45631 L 99.185097,167.45631 C 99.506708,167.8795 99.667515,168.38943 99.667519,168.9861 C 99.667515,169.58279 99.449579,170.11176 99.01371,170.57301 M 103.39994,167.00563 L 103.39994,167.00563 M 102.9556,175.13698 L 102.9556,175.13698 M 105.52641,167.00563 L 105.52641,167.00563 M 105.07572,167.45631 L 104.12992,167.45631 L 103.25394,166.58034 L 107.41801,166.58034 L 108.28764,167.45631 L 106.11674,167.45631 L 106.11674,175.68288 L 105.07572,174.62917 L 105.07572,167.45631 M 112.13432,165.8694 L 113.24516,166.97389 L 113.24516,176.31764 L 112.13432,175.2195 L 112.13432,165.8694 M 115.20658,165.8694 L 116.31742,166.97389 L 116.31742,176.31764 L 115.20658,175.2195 L 115.20658,165.8694" id="Wikipedia" style="font-size:13px;font-style:normal;font-variant:normal;font-weight:normal;font-stretch:normal;fill:#000000;fill-opacity:1;stroke:none;stroke-width:1px;stroke-linecap:butt;stroke-linejoin:miter;stroke-opacity:1;font-family:Sans;-inkscape-font-specification:Sans"></path><path id="tagline" d="M 54.83457,158.12744 L 52.168554,158.12744 L 52.168554,159.54932 C 52.143161,159.79053 52.069105,159.93864 51.946386,159.99365 C 51.760186,159.97673 51.609958,159.89632 51.495703,159.75244 L 50.746679,158.81299 C 50.450454,158.4406 50.302342,158.12533 50.302343,157.86719 C 50.302342,157.54981 50.473729,157.3086 50.816503,157.14355 C 50.850356,157.1351 52.18971,157.13087 54.83457,157.13086 L 54.83457,158.12744 M 67.59375,149.90625 C 66.912433,149.90626 66.370767,150.04331 65.96875,150.34375 C 65.473632,150.71616 65.21875,151.23601 65.21875,151.875 C 65.21875,152.76791 65.451822,153.53419 65.875,154.15625 L 62.46875,154.15625 L 24.125,154.15625 L 25,155.03125 L 27.0625,155.03125 C 27.337562,155.16667 27.500648,155.28353 27.59375,155.40625 C 27.754554,155.61784 27.843747,155.96778 27.84375,156.4375 C 27.843747,156.84799 27.721026,157.15495 27.4375,157.375 C 27.196287,157.19304 26.888344,157.09376 26.5625,157.09375 C 26.139322,157.09376 25.937499,157.40756 25.9375,158 C 25.937499,158.56283 26.420246,159.48372 27.40625,160.8125 C 28.172197,161.84505 28.938473,162.75944 29.6875,163.5 L 29.96875,163.21875 C 28.986975,162.16081 28.049151,160.86719 27.15625,159.34375 C 27.52018,159.17872 27.785153,158.85905 27.9375,158.40625 C 28.589189,158.77865 29.246089,158.96875 29.90625,158.96875 C 30.384435,158.96875 30.820958,158.87207 31.21875,158.65625 L 31.21875,157.46875 C 30.672846,157.90886 30.185867,158.125 29.75,158.125 C 29.246415,158.125 28.75846,157.97201 28.34375,157.625 C 28.534176,157.11296 28.656246,156.67058 28.65625,156.28125 C 28.656246,155.81153 28.548499,155.39096 28.375,155.03125 L 37.875,155.03125 L 37.875,157.53125 C 37.422195,156.778 36.781245,156.36915 35.96875,156.34375 C 35.152016,156.31413 34.422849,156.61524 33.75,157.25 C 33.576497,157.4489 33.446938,157.73243 33.375,158.0625 C 33.374999,158.7015 33.565102,159.24902 33.9375,159.71875 C 34.407225,160.30696 34.950517,160.6224 35.59375,160.65625 C 35.911129,160.67318 36.311518,160.58822 36.78125,160.40625 C 37.191727,160.24545 37.557611,160.05534 37.875,159.84375 L 37.875,162.125 L 39,163.25 L 39,155.03125 L 45.8125,155.03125 L 45.8125,156.6875 L 43.125,156.6875 C 42.67643,156.68751 42.253252,156.81283 41.90625,157.0625 C 41.538084,157.32487 41.317706,157.66212 41.25,158.09375 C 41.224608,158.25879 41.218748,158.4489 41.21875,158.65625 C 41.218749,158.93556 41.322263,159.34441 41.5,159.84375 C 41.643879,160.25001 41.847328,160.61491 42.15625,161 L 43.9375,163.21875 L 44.15625,162.96875 L 42.53125,160.6875 C 42.205402,160.2347 42.022783,159.78809 42.03125,159.34375 C 42.039712,158.82748 42.144854,158.45997 42.34375,158.21875 C 42.639972,157.85483 43.195959,157.65626 44,157.65625 L 45.8125,157.65625 L 45.8125,162.1875 L 46.875,163.25 L 46.875,155.03125 L 62.4375,155.03125 L 62.4375,157.65625 C 62.168874,157.26964 61.863473,156.91622 61.53125,156.625 C 61.078445,156.23568 60.67643,156.03126 60.3125,156.03125 C 60.270178,156.03126 60.207025,156.05404 60.15625,156.0625 C 59.898108,156.10482 59.390949,156.31836 58.625,156.75 L 57,157.6875 L 57.875,158.5625 C 58.429359,158.22396 58.818684,157.97332 59.09375,157.8125 C 59.902015,157.31316 60.416013,157.06251 60.59375,157.0625 C 60.940751,157.06251 61.482419,157.44858 62.21875,158.21875 L 59.03125,160.1875 L 59.875,161.0625 L 62.4375,159.25 L 62.4375,162.0625 L 63.625,163.25 L 63.625,155.03125 L 65.84375,155.03125 L 65.84375,162.1875 L 66.90625,163.25 L 66.90625,155.03125 L 74.5,155.03125 L 74.5,157.53125 C 74.047196,156.778 73.406242,156.36915 72.59375,156.34375 C 71.777015,156.31413 71.047846,156.61524 70.375,157.25 C 70.201496,157.4489 70.071935,157.73243 70,158.0625 C 69.999999,158.7015 70.1901,159.24902 70.5625,159.71875 C 71.032224,160.30696 71.575523,160.6224 72.21875,160.65625 C 72.53613,160.67318 72.936523,160.58822 73.40625,160.40625 C 73.816727,160.24545 74.182616,160.05534 74.5,159.84375 L 74.5,162.125 L 75.625,163.25 L 75.625,155.03125 L 77.78125,155.03125 L 76.90625,154.15625 L 73.3125,154.15625 C 72.784413,152.82654 72.028141,151.80756 71.0625,151.0625 C 70.495437,150.62664 69.915034,150.29852 69.34375,150.125 C 68.852861,149.97267 68.279293,149.90626 67.59375,149.90625 z M 68.1875,150.8125 C 68.84342,150.81251 69.481766,150.97495 70.125,151.25 C 70.658197,151.47853 71.22265,151.83758 71.78125,152.375 C 72.221347,152.79819 72.499667,153.20281 72.65625,153.5625 C 72.798052,153.85762 72.898697,154.03282 72.96875,154.15625 L 66.5625,154.15625 C 66.152016,153.80079 65.937499,153.26076 65.9375,152.5625 C 65.937499,152.01239 66.192381,151.5573 66.6875,151.21875 C 67.081052,150.94793 67.582354,150.81251 68.1875,150.8125 z M 36.46875,157.375 C 37.171219,157.37501 37.614577,157.52475 37.75,157.8125 C 37.749995,158.07488 37.584304,158.37598 37.25,158.71875 C 36.585608,159.4043 35.843746,159.75 35.03125,159.75 C 34.383787,159.75 34.062497,159.55404 34.0625,159.15625 C 34.062498,158.8558 34.185218,158.53777 34.46875,158.25 C 35.052731,157.65756 35.71549,157.37501 36.46875,157.375 z M 73.125,157.375 C 73.82747,157.37501 74.239582,157.52475 74.375,157.8125 C 74.374995,158.07488 74.209301,158.37598 73.875,158.71875 C 73.210607,159.4043 72.468743,159.75 71.65625,159.75 C 71.008787,159.75 70.687503,159.55404 70.6875,159.15625 C 70.687499,158.8558 70.841474,158.53777 71.125,158.25 C 71.708982,157.65756 72.371745,157.37501 73.125,157.375 z M 79.71875,154.03125 C 79.21094,154.03972 78.79037,154.25587 78.46875,154.6875 C 78.17253,155.08107 78.03124,155.53776 78.03125,156.0625 C 78.03124,156.55339 78.16244,156.98406 78.4375,157.34375 C 78.72949,157.73308 79.11979,157.95346 79.59375,158 C 80.14811,158.00001 80.58464,157.85612 80.90625,157.59375 C 80.90625,158.60515 80.55631,159.27637 79.875,159.59375 C 79.875,159.5599 79.83886,159.47917 79.75,159.34375 C 79.66536,159.20833 79.60058,159.10059 79.5625,159.0625 C 79.3763,158.87631 79.18197,158.77539 79,158.75 C 79.04655,158.75847 78.89518,158.78126 78.53125,158.78125 C 78.09961,158.87436 77.875,159.167 77.875,159.6875 C 77.875,160.17416 78.23926,160.50391 78.9375,160.65625 C 79.27604,160.72819 79.57292,160.69369 79.84375,160.5625 L 81.6875,163.25 L 81.96875,163.03125 L 80.28125,160.375 C 81.25032,159.5879 81.76334,158.59538 81.84375,157.40625 C 81.86067,157.12696 81.875,156.9528 81.875,156.90625 C 81.85384,156.32227 81.74283,155.85808 81.53125,155.46875 C 80.99804,154.49968 80.40006,154.02279 79.71875,154.03125 z M 81.09375,154.15625 L 81.96875,155.03125 L 87.40625,155.03125 L 87.40625,157.53125 C 86.953448,156.778 86.312492,156.36915 85.5,156.34375 C 84.683267,156.31413 83.954096,156.61524 83.28125,157.25 C 83.107748,157.4489 82.978185,157.73243 82.90625,158.0625 C 82.906251,158.7015 83.09635,159.24902 83.46875,159.71875 C 83.938476,160.30696 84.481773,160.6224 85.125,160.65625 C 85.442382,160.67318 85.842773,160.58822 86.3125,160.40625 C 86.722979,160.24545 87.088866,160.05534 87.40625,159.84375 L 87.40625,162.125 L 88.53125,163.25 L 88.53125,155.03125 L 95.9375,155.03125 L 95.9375,157.75 C 95.522781,157.07292 94.920569,156.75001 94.125,156.75 C 93.498695,156.75001 92.97298,156.93327 92.5625,157.34375 C 92.152017,157.75 91.937499,158.27995 91.9375,158.90625 C 91.937499,159.51986 92.162109,160.01856 92.59375,160.4375 C 93.029621,160.85645 93.573891,161.09375 94.1875,161.09375 C 94.471025,161.09375 94.769528,161.01888 95.125,160.875 C 95.480464,160.72689 95.755529,160.54687 95.9375,160.34375 L 95.9375,162.1875 L 97,163.25 L 97,159.09375 C 97.275058,158.7002 97.553379,158.36459 97.875,158.09375 C 98.200839,157.81869 98.494459,157.67742 98.71875,157.65625 C 99.1927,157.60971 99.525707,157.68458 99.75,157.875 C 100.10123,158.1797 100.28124,158.52962 100.28125,158.90625 C 100.28124,159.32519 100.07356,159.71127 99.625,160.0625 C 99.421866,160.22331 99.007153,160.43945 98.40625,160.71875 L 98.875,161.625 C 99.471671,161.38379 99.908194,161.07845 100.1875,160.71875 C 100.55989,160.25325 100.74999,159.7435 100.75,159.21875 C 100.74999,158.56283 100.51692,158.01107 100.09375,157.5625 C 99.670564,157.1097 99.147452,156.90625 98.5,156.90625 C 98.250318,156.90625 97.975254,156.95085 97.6875,157.03125 C 97.547845,157.06934 97.425124,157.11296 97.28125,157.21875 C 97.221999,157.26108 97.126947,157.35449 97,157.46875 L 97,155.03125 L 104.15625,155.03125 L 104.15625,162.1875 L 105.21875,163.25 L 105.21875,155.03125 L 107.375,155.03125 L 106.5,154.15625 L 81.09375,154.15625 z M 79.59375,154.5 C 80.01692,154.49154 80.32389,154.71355 80.53125,155.1875 C 80.68782,155.54721 80.75,155.97787 80.75,156.46875 C 80.75,157.04005 80.597,157.36557 80.25,157.4375 C 79.71256,157.43751 79.31803,157.14649 79.09375,156.5625 C 78.97102,156.24512 78.90624,155.91537 78.90625,155.59375 C 78.90624,154.8659 79.14941,154.50847 79.59375,154.5 z M 86.03125,157.375 C 86.733722,157.37501 87.145832,157.52475 87.28125,157.8125 C 87.281247,158.07488 87.115551,158.37598 86.78125,158.71875 C 86.116859,159.4043 85.374993,159.75 84.5625,159.75 C 83.915039,159.75 83.593753,159.55404 83.59375,159.15625 C 83.593751,158.8558 83.747724,158.53777 84.03125,158.25 C 84.615234,157.65756 85.277995,157.37501 86.03125,157.375 z M 94.21875,157.65625 C 94.355754,157.64117 94.50179,157.65625 94.65625,157.65625 C 95.138668,157.65626 95.565099,157.79492 95.9375,158.125 L 95.9375,158.34375 C 95.937495,158.78386 95.64062,159.23633 95.03125,159.71875 C 94.451494,160.17578 93.917314,160.40625 93.46875,160.40625 C 93.155596,160.40625 92.927733,160.32552 92.75,160.15625 C 92.534179,159.94466 92.443358,159.65951 92.46875,159.3125 C 92.511066,158.76237 92.753253,158.33008 93.21875,158 C 93.472654,157.81909 93.807738,157.70148 94.21875,157.65625 z M 104.88261,154.14746 C 104.5483,153.63119 104.27959,153.23764 104.07646,152.9668 C 103.23434,151.83693 102.74769,151.20004 102.6165,151.05615 C 101.86748,150.22674 101.18193,149.81203 100.55986,149.81201 C 100.1113,149.81203 99.588672,149.90089 98.991989,150.07861 L 100.14726,151.25293 C 100.54928,151.1937 100.84127,151.16407 101.02324,151.16406 C 101.61146,151.16407 102.28008,151.52801 103.0291,152.25586 C 103.63001,152.83985 104.12089,153.47039 104.50176,154.14746 L 104.88261,154.14746 M 109.3125,154.03125 C 108.80469,154.03972 108.38412,154.25587 108.0625,154.6875 C 107.76628,155.08107 107.62499,155.53776 107.625,156.0625 C 107.62499,156.55339 107.75619,156.98406 108.03125,157.34375 C 108.32324,157.73308 108.71354,157.95346 109.1875,158 C 109.74186,158.00001 110.17839,157.85612 110.5,157.59375 C 110.5,158.60515 110.15006,159.27637 109.46875,159.59375 C 109.46875,159.5599 109.43261,159.47917 109.34375,159.34375 C 109.25911,159.20833 109.19433,159.10059 109.15625,159.0625 C 108.97005,158.87631 108.77572,158.77539 108.59375,158.75 C 108.6403,158.75847 108.48893,158.78126 108.125,158.78125 C 107.69336,158.87436 107.46875,159.167 107.46875,159.6875 C 107.46875,160.17416 107.83301,160.50391 108.53125,160.65625 C 108.86979,160.72819 109.16667,160.69369 109.4375,160.5625 L 111.28125,163.25 L 111.5625,163.03125 L 109.875,160.375 C 110.84407,159.5879 111.35709,158.59538 111.4375,157.40625 C 111.45442,157.12696 111.46875,156.9528 111.46875,156.90625 C 111.44759,156.32227 111.33658,155.85808 111.125,155.46875 C 110.59179,154.49968 109.99381,154.02279 109.3125,154.03125 z M 109.1875,154.5 C 109.61067,154.49154 109.91764,154.71355 110.125,155.1875 C 110.28157,155.54721 110.34375,155.97787 110.34375,156.46875 C 110.34375,157.04005 110.19075,157.36557 109.84375,157.4375 C 109.30631,157.43751 108.91178,157.14649 108.6875,156.5625 C 108.56477,156.24512 108.49999,155.91537 108.5,155.59375 C 108.49999,154.8659 108.74316,154.50847 109.1875,154.5 z M 111.36992,155.02344 C 111.19641,154.6849 110.96366,154.39291 110.67168,154.14746 L 116.28935,154.14746 L 117.17168,155.02344 L 114.98174,155.02344 L 114.98174,163.25 L 113.94072,162.18359 L 113.94072,155.02344 L 111.36992,155.02344 M 120.59336,156.55322 L 119.67295,157.47363 L 118.75254,156.55322 L 119.67295,155.63281 L 120.59336,156.55322 M 120.59971,161.16797 L 119.67295,162.09473 L 118.75254,161.16797 L 119.67295,160.24756 L 120.59971,161.16797" transform="matrix(0.9543195,0,0,0.9543195,-1.5568064,-9.0312324)" style="font-size:13px;font-style:normal;font-variant:normal;font-weight:normal;font-stretch:normal;letter-spacing:1.20000005;fill:#000000;fill-opacity:1;stroke:none;stroke-width:1px;stroke-linecap:butt;stroke-linejoin:miter;stroke-opacity:1;font-family:Sans;-inkscape-font-specification:Sans"></path></svg>
</svg>