<?xml version="1.0" encoding="UTF-8" standalone="no"?>
<!-- Generator: Adobe Illustrator 13.0.2, SVG Export Plug-In . SVG Version: 6.00 Build 14948)  -->

<svg xmlns:dc="http://purl.org/dc/elements/1.1/" xmlns:cc="http://creativecommons.org/ns#" xmlns:rdf="http://www.w3.org/1999/02/22-rdf-syntax-ns#" xmlns:svg="http://www.w3.org/2000/svg" xmlns="http://www.w3.org/2000/svg" xmlns:xlink="http://www.w3.org/1999/xlink" xmlns:sodipodi="http://sodipodi.sourceforge.net/DTD/sodipodi-0.dtd" xmlns:inkscape="http://www.inkscape.org/namespaces/inkscape" version="1.1" x="0px" y="0px" width="135px" height="155px" viewBox="0 0 135 155" enable-background="new 0 0 135 155" xml:space="preserve" id="svg3857" inkscape:version="0.48.3.1 r9886" sodipodi:docname="Wikipedia-logo-v2-te-ramaraja (1).svg"><metadata id="metadata4852"><rdf:rdf><cc:work rdf:about=""><dc:format>image/svg+xml</dc:format><dc:type rdf:resource="http://purl.org/dc/dcmitype/StillImage"></dc:type><dc:title></dc:title></cc:work></rdf:rdf></metadata><defs id="defs4850"><inkscape:perspective sodipodi:type="inkscape:persp3d" inkscape:vp_x="0 : 77.5 : 1" inkscape:vp_y="0 : 1000 : 0" inkscape:vp_z="135 : 77.5 : 1" inkscape:persp3d-origin="67.5 : 51.666667 : 1" id="perspective4854"></inkscape:perspective>
	
		<radialGradient gradientUnits="userSpaceOnUse" gradientTransform="matrix(1,0,0,-1,192.3999,143.0996)" r="68.686401" cy="87.823196" cx="-145.4702" id="SVGID_1_">
		<stop id="stop3922" style="stop-color:#FFFFFF" offset="0"></stop>
		<stop id="stop3924" style="stop-color:#EAEAEB" offset="0.4835"></stop>
		<stop id="stop3926" style="stop-color:#A9ABAE" offset="0.9451"></stop>
		<stop id="stop3928" style="stop-color:#999B9E" offset="1"></stop>
	</radialGradient>
	
	
	<linearGradient y2="97.232101" x2="112.7331" y1="24.481001" x1="66.232399" gradientUnits="userSpaceOnUse" id="SVGID_2_">
		<stop id="stop3935" style="stop-color:#8A8A8A" offset="0"></stop>
		<stop id="stop3937" style="stop-color:#606060" offset="0.5687"></stop>
		<stop id="stop3939" style="stop-color:#FFFFFF" offset="0.5914"></stop>
		<stop id="stop3941" style="stop-color:#585858" offset="0.6116"></stop>
		<stop id="stop3943" style="stop-color:#303030" offset="1"></stop>
	</linearGradient>
	
	
	<linearGradient y2="65.136703" x2="83.798798" y1="65.136703" x1="54.715801" gradientUnits="userSpaceOnUse" id="SVGID_5_">
		<stop id="stop3964" style="stop-color:#231F20" offset="0"></stop>
		<stop id="stop3966" style="stop-color:#474747" offset="1"></stop>
	</linearGradient>
	
	
	
	
	
	
	
	
	
		<linearGradient gradientTransform="matrix(1,0,0,-1,192.3999,143.0996)" y2="29.9035" x2="-94.069099" y1="119.8076" x1="-123.5898" gradientUnits="userSpaceOnUse" id="SVGID_6_">
		<stop id="stop3997" style="stop-color:#FFFFFF" offset="0"></stop>
		<stop id="stop3999" style="stop-color:#FCFCFC" offset="0.0094"></stop>
		<stop id="stop4001" style="stop-color:#EEEEEE" offset="0.0655"></stop>
		<stop id="stop4003" style="stop-color:#E5E5E5" offset="0.1342"></stop>
		<stop id="stop4005" style="stop-color:#E3E3E3" offset="0.2515"></stop>
		<stop id="stop4007" style="stop-color:#8A8A8A" offset="0.3357"></stop>
		<stop id="stop4009" style="stop-color:#B8B8B8" offset="0.4422"></stop>
		<stop id="stop4011" style="stop-color:#3B3B3B" offset="1"></stop>
	</linearGradient>
	
	<linearGradient y2="87.626701" x2="119.5471" y1="26.876499" x1="70.421898" gradientUnits="userSpaceOnUse" id="SVGID_7_">
		<stop id="stop4016" style="stop-color:#EFF0F0" offset="0"></stop>
		<stop id="stop4018" style="stop-color:#F0F1F2" offset="0.5914"></stop>
		<stop id="stop4020" style="stop-color:#787878" offset="0.599"></stop>
		<stop id="stop4022" style="stop-color:#EEEFF0" offset="0.6456"></stop>
		<stop id="stop4024" style="stop-color:#D8D9DB" offset="1"></stop>
	</linearGradient>
	
	
		<linearGradient gradientTransform="matrix(1,0,0,-1,192.3999,143.0996)" y2="31.998501" x2="-87.569702" y1="122.1328" x1="-117.166" gradientUnits="userSpaceOnUse" id="SVGID_8_">
		<stop id="stop4029" style="stop-color:#FFFFFF" offset="0"></stop>
		<stop id="stop4031" style="stop-color:#E4E5E6" offset="1"></stop>
	</linearGradient>
	
	<linearGradient y2="106.3903" x2="79.683601" y1="25.2764" x1="54.653301" gradientUnits="userSpaceOnUse" id="SVGID_9_">
		<stop id="stop4036" style="stop-color:#FFFFFF" offset="0"></stop>
		<stop id="stop4038" style="stop-color:#F9F9F9" offset="0.7473"></stop>
		<stop id="stop4040" style="stop-color:#D5D7D8" offset="1"></stop>
	</linearGradient>
	
	
	
	
	
		<linearGradient gradientTransform="matrix(1,0,0,-1,192.3999,143.0996)" y2="24.6462" x2="-134.85719" y1="119.6328" x1="-115.3369" gradientUnits="userSpaceOnUse" id="SVGID_10_">
		<stop id="stop4061" style="stop-color:#FFFFFF" offset="0"></stop>
		<stop id="stop4063" style="stop-color:#E4E5E6" offset="1"></stop>
	</linearGradient>
	
	<linearGradient y2="92.496101" x2="37.2481" y1="33.077099" x1="32.519001" gradientUnits="userSpaceOnUse" id="SVGID_11_">
		<stop id="stop4068" style="stop-color:#989A9C" offset="0.2198"></stop>
		<stop id="stop4070" style="stop-color:#FFFFFF" offset="0.2527"></stop>
	</linearGradient>
	
	
		<linearGradient gradientTransform="matrix(1,0,0,-1,192.3999,143.0996)" y2="32.797901" x2="-171.9462" y1="126.8398" x1="-152.6201" gradientUnits="userSpaceOnUse" id="SVGID_12_">
		<stop id="stop4075" style="stop-color:#FFFFFF" offset="0"></stop>
		<stop id="stop4077" style="stop-color:#E4E5E6" offset="1"></stop>
	</linearGradient>
	
	
		<linearGradient gradientTransform="matrix(1,0,0,-1,192.3999,143.0996)" y2="35.585701" x2="-130.14281" y1="35.625" x1="-130.1348" gradientUnits="userSpaceOnUse" id="SVGID_13_">
		<stop id="stop4082" style="stop-color:#FFFFFF" offset="0"></stop>
		<stop id="stop4084" style="stop-color:#E4E5E6" offset="1"></stop>
	</linearGradient>
	
	
	
	
		<linearGradient gradientTransform="matrix(1,0,0,-1,192.3999,143.0996)" y2="25.888" x2="-140.54491" y1="120.3223" x1="-121.1382" gradientUnits="userSpaceOnUse" id="SVGID_14_">
		<stop id="stop4093" style="stop-color:#FFFFFF" offset="0"></stop>
		<stop id="stop4095" style="stop-color:#E4E5E6" offset="1"></stop>
	</linearGradient>
	
	
		<linearGradient gradientTransform="matrix(1,0,0,-1,192.3999,143.0996)" y2="28.8524" x2="-155.006" y1="123.3525" x1="-135.58591" gradientUnits="userSpaceOnUse" id="SVGID_15_">
		<stop id="stop4100" style="stop-color:#FFFFFF" offset="0"></stop>
		<stop id="stop4102" style="stop-color:#E4E5E6" offset="1"></stop>
	</linearGradient>
	
	
		<linearGradient gradientTransform="matrix(1,0,0,-1,192.3999,143.0996)" y2="27.1346" x2="-146.8837" y1="121.9365" x1="-127.4014" gradientUnits="userSpaceOnUse" id="SVGID_16_">
		<stop id="stop4107" style="stop-color:#FFFFFF" offset="0"></stop>
		<stop id="stop4109" style="stop-color:#E4E5E6" offset="1"></stop>
	</linearGradient>
	
	
		<linearGradient gradientTransform="matrix(1,0,0,-1,192.3999,143.0996)" y2="24.9438" x2="-138.85201" y1="124.0039" x1="-118.4946" gradientUnits="userSpaceOnUse" id="SVGID_17_">
		<stop id="stop4114" style="stop-color:#FFFFFF" offset="0"></stop>
		<stop id="stop4116" style="stop-color:#E4E5E6" offset="1"></stop>
	</linearGradient>
	
	
		<linearGradient gradientTransform="matrix(1,0,0,-1,192.3999,143.0996)" y2="24.695299" x2="-134.7878" y1="119.1758" x1="-115.3716" gradientUnits="userSpaceOnUse" id="SVGID_18_">
		<stop id="stop4121" style="stop-color:#FFFFFF" offset="0"></stop>
		<stop id="stop4123" style="stop-color:#E4E5E6" offset="1"></stop>
	</linearGradient>
	
	
	
	
	
	
	
	
	
	
	
	
		<linearGradient gradientTransform="matrix(1,0,0,-1,192.3999,143.0996)" y2="83.6045" x2="-75.6362" y1="83.6045" x1="-175.4424" gradientUnits="userSpaceOnUse" id="SVGID_21_">
		<stop id="stop4198" style="stop-color:#555555" offset="0"></stop>
		<stop id="stop4200" style="stop-color:#231F20" offset="1"></stop>
	</linearGradient>
	
	
		<linearGradient gradientTransform="matrix(1,0,0,-1,192.3999,143.0996)" y2="104.0801" x2="-83.541" y1="104.0801" x1="-175.14211" gradientUnits="userSpaceOnUse" id="SVGID_22_">
		<stop id="stop4205" style="stop-color:#A0A0A0" offset="0"></stop>
		<stop id="stop4207" style="stop-color:#656767" offset="0.0769"></stop>
		<stop id="stop4209" style="stop-color:#717375" offset="1"></stop>
	</linearGradient>
	
	
	
	
	
	
	
		<linearGradient gradientTransform="matrix(1,0,0,-1,192.3999,143.0996)" y2="78.209" x2="-172.3853" y1="78.209" x1="-172.3853" gradientUnits="userSpaceOnUse" id="SVGID_23_">
		<stop id="stop4224" style="stop-color:#FFFFFF" offset="0"></stop>
		<stop id="stop4226" style="stop-color:#F4F4F4" offset="0.078"></stop>
		<stop id="stop4228" style="stop-color:#CECECE" offset="0.3807"></stop>
		<stop id="stop4230" style="stop-color:#BFBFBF" offset="0.5396"></stop>
		<stop id="stop4232" style="stop-color:#7C7C7C" offset="0.8357"></stop>
		<stop id="stop4234" style="stop-color:#A8A8A8" offset="0.8996"></stop>
		<stop id="stop4236" style="stop-color:#9A9A9A" offset="0.9093"></stop>
		<stop id="stop4238" style="stop-color:#7D7D7D" offset="0.9327"></stop>
		<stop id="stop4240" style="stop-color:#686868" offset="0.9558"></stop>
		<stop id="stop4242" style="stop-color:#5B5B5B" offset="0.9785"></stop>
		<stop id="stop4244" style="stop-color:#575757" offset="1"></stop>
	</linearGradient>
	
	
		<linearGradient gradientTransform="matrix(1,0,0,-1,192.3999,143.0996)" y2="90.476799" x2="-67.153198" y1="78.449203" x1="-175.7173" gradientUnits="userSpaceOnUse" id="SVGID_24_">
		<stop id="stop4249" style="stop-color:#FFFFFF" offset="0"></stop>
		<stop id="stop4251" style="stop-color:#F4F4F4" offset="0.078"></stop>
		<stop id="stop4253" style="stop-color:#CECECE" offset="0.3807"></stop>
		<stop id="stop4255" style="stop-color:#BFBFBF" offset="0.5396"></stop>
		<stop id="stop4257" style="stop-color:#7C7C7C" offset="0.8357"></stop>
		<stop id="stop4259" style="stop-color:#A8A8A8" offset="0.8996"></stop>
		<stop id="stop4261" style="stop-color:#9A9A9A" offset="0.9093"></stop>
		<stop id="stop4263" style="stop-color:#7D7D7D" offset="0.9327"></stop>
		<stop id="stop4265" style="stop-color:#686868" offset="0.9558"></stop>
		<stop id="stop4267" style="stop-color:#5B5B5B" offset="0.9785"></stop>
		<stop id="stop4269" style="stop-color:#575757" offset="1"></stop>
	</linearGradient>
	
	
		<linearGradient gradientTransform="matrix(1,0,0,-1,192.3999,143.0996)" y2="92.223099" x2="-52.131699" y1="78.4795" x1="-176.1851" gradientUnits="userSpaceOnUse" id="SVGID_25_">
		<stop id="stop4274" style="stop-color:#FFFFFF" offset="0"></stop>
		<stop id="stop4276" style="stop-color:#F4F4F4" offset="0.078"></stop>
		<stop id="stop4278" style="stop-color:#CECECE" offset="0.3807"></stop>
		<stop id="stop4280" style="stop-color:#BFBFBF" offset="0.5396"></stop>
		<stop id="stop4282" style="stop-color:#7C7C7C" offset="0.8357"></stop>
		<stop id="stop4284" style="stop-color:#A8A8A8" offset="0.8996"></stop>
		<stop id="stop4286" style="stop-color:#9A9A9A" offset="0.9093"></stop>
		<stop id="stop4288" style="stop-color:#7D7D7D" offset="0.9327"></stop>
		<stop id="stop4290" style="stop-color:#686868" offset="0.9558"></stop>
		<stop id="stop4292" style="stop-color:#5B5B5B" offset="0.9785"></stop>
		<stop id="stop4294" style="stop-color:#575757" offset="1"></stop>
	</linearGradient>
	
	<linearGradient y2="51.952599" x2="117.1948" y1="71.326698" x1="21.2129" gradientUnits="userSpaceOnUse" id="SVGID_26_">
		<stop id="stop4299" style="stop-color:#EDEDEE" offset="0"></stop>
		<stop id="stop4301" style="stop-color:#FFFFFF" offset="0.4176"></stop>
		<stop id="stop4303" style="stop-color:#F8F9F9" offset="0.6264"></stop>
		<stop id="stop4305" style="stop-color:#BFC0C2" offset="1"></stop>
	</linearGradient>
	
	
	
	
	<linearGradient y2="30.732401" x2="27.9561" y1="30.732401" x1="23.471201" gradientUnits="userSpaceOnUse" id="SVGID_27_">
		<stop id="stop4316" style="stop-color:#E2E3E4" offset="0"></stop>
		<stop id="stop4318" style="stop-color:#FFFFFF" offset="0.5055"></stop>
	</linearGradient>
	
	
	
	
	
	
	
	
	
	
	
	
	
	
	
	
	
	
	
	
	
	
	
	
	
	
	
	
	
	
	
	
	
	
	
	
	
	
	
	
	
	
	
	
	
	
	
	
	
	
	
	
	
	
	
	
	
	
	
	
	
	
	
	
	
	
	
	
	
	
	
	
	
	
	
	
	
	
	
	
	
	
	
	
	
	
	
	
	
	
	
	
	
	
	
	
	
	
	
	
	
	
	
	
	
	
	
	
	
	
	
	
	
	
	
	
	
	
	
	
	
	
	
	
	
	
	
	
	
	
	
	
	
	
	
	
	
	
	
	
	
	
	
	
	
	
	
	
	
	
	
	
	
	
	
	
	
	
	
	
	
	
	
	
	
	
	
	
	
	
	
	
	
	
	
	
	
	
	<linearGradient y2="29.204" x2="111.5455" y1="49.7188" x1="22.5742" gradientUnits="userSpaceOnUse" id="SVGID_34_">
		<stop id="stop4743" style="stop-color:#FFFFFF" offset="0"></stop>
		<stop id="stop4745" style="stop-color:#FFFFFF" offset="0.6538"></stop>
		<stop id="stop4747" style="stop-color:#CBCCCE" offset="1"></stop>
	</linearGradient>
	
	
	
	
	
	
	
	
		<linearGradient gradientTransform="matrix(1,0,0,-1,192.3999,143.0996)" y2="107.0898" x2="-126.4229" y1="107.0898" x1="-158.8101" gradientUnits="userSpaceOnUse" id="SVGID_35_">
		<stop id="stop4770" style="stop-color:#696969" offset="0"></stop>
		<stop id="stop4772" style="stop-color:#2E2E2E" offset="0.3702"></stop>
		<stop id="stop4774" style="stop-color:#424242" offset="0.4554"></stop>
		<stop id="stop4776" style="stop-color:#303030" offset="0.6014"></stop>
		<stop id="stop4778" style="stop-color:#4A4A4A" offset="0.6947"></stop>
		<stop id="stop4780" style="stop-color:#666666" offset="1"></stop>
	</linearGradient>
	
	
		<linearGradient gradientTransform="matrix(1,0,0,-1,192.3999,143.0996)" y2="107.8965" x2="-126.5454" y1="107.8965" x1="-158.4185" gradientUnits="userSpaceOnUse" id="SVGID_36_">
		<stop id="stop4785" style="stop-color:#525252" offset="0"></stop>
		<stop id="stop4787" style="stop-color:#333333" offset="0.1856"></stop>
		<stop id="stop4789" style="stop-color:#AEAEAE" offset="0.354"></stop>
		<stop id="stop4791" style="stop-color:#ADADAD" offset="0.4199"></stop>
		<stop id="stop4793" style="stop-color:#9D9D9D" offset="0.4276"></stop>
		<stop id="stop4795" style="stop-color:#818181" offset="0.4433"></stop>
		<stop id="stop4797" style="stop-color:#6A6A6A" offset="0.4611"></stop>
		<stop id="stop4799" style="stop-color:#585858" offset="0.4814"></stop>
		<stop id="stop4801" style="stop-color:#4C4C4C" offset="0.506"></stop>
		<stop id="stop4803" style="stop-color:#444444" offset="0.539"></stop>
		<stop id="stop4805" style="stop-color:#424242" offset="0.6166"></stop>
		<stop id="stop4807" style="stop-color:#454545" offset="0.6684"></stop>
		<stop id="stop4809" style="stop-color:#BDBDBD" offset="1"></stop>
	</linearGradient>
	
	
		<linearGradient gradientTransform="matrix(1,0,0,-1,192.3999,143.0996)" y2="104.4332" x2="-154.15421" y1="97.627899" x1="-153.1255" gradientUnits="userSpaceOnUse" id="SVGID_37_">
		<stop id="stop4814" style="stop-color:#969696" offset="0"></stop>
		<stop id="stop4816" style="stop-color:#000000" offset="1"></stop>
	</linearGradient>
	
	
	
	<linearGradient y2="38.790001" x2="39.487301" y1="46.373001" x1="38.737301" gradientUnits="userSpaceOnUse" id="SVGID_38_">
		<stop id="stop4825" style="stop-color:#333333" offset="0"></stop>
		<stop id="stop4827" style="stop-color:#000000" offset="0.431"></stop>
		<stop id="stop4829" style="stop-color:#2E2E2E" offset="1"></stop>
	</linearGradient>
	
	
	
	
	
		<radialGradient gradientUnits="userSpaceOnUse" gradientTransform="matrix(1,0,0,-1,192.3999,143.0996)" r="72.751701" cy="106.5996" cx="-138.2334" id="SVGID_39_">
		<stop id="stop4840" style="stop-color:#000000;stop-opacity:0;" offset="0"></stop>
		<stop id="stop4842" style="stop-color:#000000;stop-opacity:0.08;" offset="0.80220002"></stop>
		<stop id="stop4844" style="stop-color:#000000;stop-opacity:0.3882353;" offset="1"></stop>
	</radialGradient>
	
<radialGradient inkscape:collect="always" xlink:href="#SVGID_39_" id="radialGradient5007" gradientUnits="userSpaceOnUse" gradientTransform="matrix(1,0,0,-1,192.3999,143.0996)" cx="-138.2334" cy="106.5996" r="72.751701"></radialGradient><linearGradient inkscape:collect="always" xlink:href="#SVGID_38_" id="linearGradient5013" gradientUnits="userSpaceOnUse" x1="38.737301" y1="46.373001" x2="39.487301" y2="38.790001"></linearGradient><linearGradient inkscape:collect="always" xlink:href="#SVGID_37_" id="linearGradient5018" gradientUnits="userSpaceOnUse" gradientTransform="matrix(1,0,0,-1,192.3999,143.0996)" x1="-153.1255" y1="97.627899" x2="-154.15421" y2="104.4332"></linearGradient><linearGradient inkscape:collect="always" xlink:href="#SVGID_36_" id="linearGradient5021" gradientUnits="userSpaceOnUse" gradientTransform="matrix(1,0,0,-1,192.3999,143.0996)" x1="-158.4185" y1="107.8965" x2="-126.5454" y2="107.8965"></linearGradient><linearGradient inkscape:collect="always" xlink:href="#SVGID_35_" id="linearGradient5024" gradientUnits="userSpaceOnUse" gradientTransform="matrix(1,0,0,-1,192.3999,143.0996)" x1="-158.8101" y1="107.0898" x2="-126.4229" y2="107.0898"></linearGradient><linearGradient inkscape:collect="always" xlink:href="#SVGID_34_" id="linearGradient5036" gradientUnits="userSpaceOnUse" x1="22.5742" y1="49.7188" x2="111.5455" y2="29.204"></linearGradient><linearGradient inkscape:collect="always" xlink:href="#SVGID_27_" id="linearGradient5252" gradientUnits="userSpaceOnUse" x1="23.471201" y1="30.732401" x2="27.9561" y2="30.732401"></linearGradient><linearGradient inkscape:collect="always" xlink:href="#SVGID_26_" id="linearGradient5258" gradientUnits="userSpaceOnUse" x1="21.2129" y1="71.326698" x2="117.1948" y2="51.952599"></linearGradient><linearGradient inkscape:collect="always" xlink:href="#SVGID_25_" id="linearGradient5261" gradientUnits="userSpaceOnUse" gradientTransform="matrix(1,0,0,-1,192.3999,143.0996)" x1="-176.1851" y1="78.4795" x2="-52.131699" y2="92.223099"></linearGradient><linearGradient inkscape:collect="always" xlink:href="#SVGID_24_" id="linearGradient5264" gradientUnits="userSpaceOnUse" gradientTransform="matrix(1,0,0,-1,192.3999,143.0996)" x1="-175.7173" y1="78.449203" x2="-67.153198" y2="90.476799"></linearGradient><linearGradient inkscape:collect="always" xlink:href="#SVGID_23_" id="linearGradient5267" gradientUnits="userSpaceOnUse" gradientTransform="matrix(1,0,0,-1,192.3999,143.0996)" x1="-172.3853" y1="78.209" x2="-172.3853" y2="78.209"></linearGradient><linearGradient inkscape:collect="always" xlink:href="#SVGID_22_" id="linearGradient5275" gradientUnits="userSpaceOnUse" gradientTransform="matrix(1,0,0,-1,192.3999,143.0996)" x1="-175.14211" y1="104.0801" x2="-83.541" y2="104.0801"></linearGradient><linearGradient inkscape:collect="always" xlink:href="#SVGID_21_" id="linearGradient5278" gradientUnits="userSpaceOnUse" gradientTransform="matrix(1,0,0,-1,192.3999,143.0996)" x1="-175.4424" y1="83.6045" x2="-75.6362" y2="83.6045"></linearGradient><linearGradient inkscape:collect="always" xlink:href="#SVGID_18_" id="linearGradient5317" gradientUnits="userSpaceOnUse" gradientTransform="matrix(1,0,0,-1,192.3999,143.0996)" x1="-115.3716" y1="119.1758" x2="-134.7878" y2="24.695299"></linearGradient><linearGradient inkscape:collect="always" xlink:href="#SVGID_17_" id="linearGradient5320" gradientUnits="userSpaceOnUse" gradientTransform="matrix(1,0,0,-1,192.3999,143.0996)" x1="-118.4946" y1="124.0039" x2="-138.85201" y2="24.9438"></linearGradient><linearGradient inkscape:collect="always" xlink:href="#SVGID_16_" id="linearGradient5323" gradientUnits="userSpaceOnUse" gradientTransform="matrix(1,0,0,-1,192.3999,143.0996)" x1="-127.4014" y1="121.9365" x2="-146.8837" y2="27.1346"></linearGradient><linearGradient inkscape:collect="always" xlink:href="#SVGID_15_" id="linearGradient5326" gradientUnits="userSpaceOnUse" gradientTransform="matrix(1,0,0,-1,192.3999,143.0996)" x1="-135.58591" y1="123.3525" x2="-155.006" y2="28.8524"></linearGradient><linearGradient inkscape:collect="always" xlink:href="#SVGID_14_" id="linearGradient5329" gradientUnits="userSpaceOnUse" gradientTransform="matrix(1,0,0,-1,192.3999,143.0996)" x1="-121.1382" y1="120.3223" x2="-140.54491" y2="25.888"></linearGradient><linearGradient inkscape:collect="always" xlink:href="#SVGID_13_" id="linearGradient5334" gradientUnits="userSpaceOnUse" gradientTransform="matrix(1,0,0,-1,192.3999,143.0996)" x1="-130.1348" y1="35.625" x2="-130.14281" y2="35.585701"></linearGradient><linearGradient inkscape:collect="always" xlink:href="#SVGID_12_" id="linearGradient5337" gradientUnits="userSpaceOnUse" gradientTransform="matrix(1,0,0,-1,192.3999,143.0996)" x1="-152.6201" y1="126.8398" x2="-171.9462" y2="32.797901"></linearGradient><linearGradient inkscape:collect="always" xlink:href="#SVGID_11_" id="linearGradient5340" gradientUnits="userSpaceOnUse" x1="32.519001" y1="33.077099" x2="37.2481" y2="92.496101"></linearGradient><linearGradient inkscape:collect="always" xlink:href="#SVGID_10_" id="linearGradient5343" gradientUnits="userSpaceOnUse" gradientTransform="matrix(1,0,0,-1,192.3999,143.0996)" x1="-115.3369" y1="119.6328" x2="-134.85719" y2="24.6462"></linearGradient><linearGradient inkscape:collect="always" xlink:href="#SVGID_9_" id="linearGradient5354" gradientUnits="userSpaceOnUse" x1="54.653301" y1="25.2764" x2="79.683601" y2="106.3903"></linearGradient><linearGradient inkscape:collect="always" xlink:href="#SVGID_8_" id="linearGradient5357" gradientUnits="userSpaceOnUse" gradientTransform="matrix(1,0,0,-1,192.3999,143.0996)" x1="-117.166" y1="122.1328" x2="-87.569702" y2="31.998501"></linearGradient><linearGradient inkscape:collect="always" xlink:href="#SVGID_7_" id="linearGradient5360" gradientUnits="userSpaceOnUse" x1="70.421898" y1="26.876499" x2="119.5471" y2="87.626701"></linearGradient><linearGradient inkscape:collect="always" xlink:href="#SVGID_6_" id="linearGradient5363" gradientUnits="userSpaceOnUse" gradientTransform="matrix(1,0,0,-1,192.3999,143.0996)" x1="-123.5898" y1="119.8076" x2="-94.069099" y2="29.9035"></linearGradient><linearGradient inkscape:collect="always" xlink:href="#SVGID_5_" id="linearGradient5379" gradientUnits="userSpaceOnUse" x1="54.715801" y1="65.136703" x2="83.798798" y2="65.136703"></linearGradient><linearGradient inkscape:collect="always" xlink:href="#SVGID_2_" id="linearGradient5391" gradientUnits="userSpaceOnUse" x1="66.232399" y1="24.481001" x2="112.7331" y2="97.232101"></linearGradient><radialGradient inkscape:collect="always" xlink:href="#SVGID_1_" id="radialGradient5395" gradientUnits="userSpaceOnUse" gradientTransform="matrix(1,0,0,-1,192.3999,143.0996)" cx="-145.4702" cy="87.823196" r="68.686401"></radialGradient>
	
	
<inkscape:perspective id="perspective10537" inkscape:persp3d-origin="0.5 : 0.33333333 : 1" inkscape:vp_z="1 : 0.5 : 1" inkscape:vp_y="0 : 1000 : 0" inkscape:vp_x="0 : 0.5 : 1" sodipodi:type="inkscape:persp3d"></inkscape:perspective><inkscape:perspective id="perspective13111" inkscape:persp3d-origin="0.5 : 0.33333333 : 1" inkscape:vp_z="1 : 0.5 : 1" inkscape:vp_y="0 : 1000 : 0" inkscape:vp_x="0 : 0.5 : 1" sodipodi:type="inkscape:persp3d"></inkscape:perspective><inkscape:perspective id="perspective5564" inkscape:persp3d-origin="0.5 : 0.33333333 : 1" inkscape:vp_z="1 : 0.5 : 1" inkscape:vp_y="0 : 1000 : 0" inkscape:vp_x="0 : 0.5 : 1" sodipodi:type="inkscape:persp3d"></inkscape:perspective></defs><sodipodi:namedview pagecolor="#ffffff" bordercolor="#666666" borderopacity="1" objecttolerance="10" gridtolerance="10" guidetolerance="10" inkscape:pageopacity="0" inkscape:pageshadow="2" inkscape:window-width="1366" inkscape:window-height="713" id="namedview4848" showgrid="false" inkscape:zoom="6.4266667" inkscape:cx="55.53151" inkscape:cy="40.233405" inkscape:window-x="0" inkscape:window-y="27" inkscape:window-maximized="1" inkscape:current-layer="layer2" showguides="true" inkscape:guide-bbox="true"><sodipodi:guide orientation="0,1" position="0,140" id="globe_top"></sodipodi:guide><sodipodi:guide orientation="1,0" position="16,0" id="globe_left"></sodipodi:guide><sodipodi:guide orientation="1,0" position="119,0" id="globe_right"></sodipodi:guide><sodipodi:guide id="globe_bottom" position="0,47" orientation="0,1"></sodipodi:guide><sodipodi:guide orientation="0,1" position="8,40" id="wordmark_top"></sodipodi:guide><sodipodi:guide orientation="0,1" position="164.15975,22.251037" id="wordmark_bottom"></sodipodi:guide><sodipodi:guide orientation="0,1" position="0,17" id="subtitle_top"></sodipodi:guide><sodipodi:guide orientation="0,1" position="0,8" id="subtitle_bottom"></sodipodi:guide><sodipodi:guide orientation="1,0" position="8,40" id="wordmark_left"></sodipodi:guide><sodipodi:guide orientation="1,0" position="127,40" id="wordmark_right"></sodipodi:guide></sodipodi:namedview><g inkscape:groupmode="layer" id="layer1" inkscape:label="tel" style="display:inline"><g transform="scale(1.0282517,0.97252455)" style="font-size:38.9009819px;font-style:normal;font-weight:normal;line-height:125%;letter-spacing:0px;word-spacing:0px;fill:#000000;fill-opacity:1;stroke:none;font-family:Sans" id="text3539"><path d="m 28.059413,128.47801 c -1.8e-5,2.16178 -0.426684,3.92534 -1.28,5.29067 -1.080905,1.82044 -2.588459,2.73066 -4.522667,2.73066 -1.905788,0 -3.342231,-0.78222 -4.309333,-2.34666 -0.39823,0.71111 -0.910229,1.28 -1.536,1.70666 -0.625784,0.42667 -1.365338,0.64 -2.218667,0.64 -1.080892,0 -1.991113,-0.42666 -2.730667,-1.28 -0.739556,-0.85333 -1.109333,-1.83466 -1.109333,-2.944 0,-1.05244 0.355555,-1.93421 1.066667,-2.64533 0.739553,-0.7111 1.635553,-1.06666 2.688,-1.06667 1.194661,1e-5 2.09066,0.27023 2.688,0.81067 0.62577,0.51201 1.13777,1.10934 1.536,1.792 0.853324,0.62578 1.79199,0.93867 2.816,0.93867 1.592876,0 2.858653,-0.52622 3.797333,-1.57867 0.967096,-1.05244 1.450651,-2.34666 1.450667,-3.88267 -1.6e-5,-2.19021 -0.696905,-3.93954 -2.090667,-5.248 -1.39379,-1.30842 -3.200011,-2.04798 -5.418667,-2.21866 0.255992,0.8249 0.284436,1.52179 0.08533,2.09066 -0.19912,0.56891 -0.540453,1.0098 -1.024,1.32267 -0.483563,0.3129 -1.066674,0.49779 -1.749334,0.55467 -0.654227,0.0569 -1.265782,-0.0142 -1.834666,-0.21334 -0.796448,-0.34132 -1.32267,-0.83909 -1.578667,-1.49333 -0.256002,-0.65421 -0.270224,-1.30843 -0.04267,-1.96267 0.255998,-0.6542 0.753775,-1.22309 1.493334,-1.70666 0.767995,-0.48354 1.76355,-0.72532 2.986666,-0.72534 1.706658,0.0285 3.228435,0.34136 4.565334,0.93867 1.336876,0.59735 2.46043,1.40802 3.370666,2.432 0.938651,0.99557 1.649762,2.19024 2.133334,3.584 0.511982,1.39379 0.767982,2.88712 0.768,4.48 m -10.282667,-8.10667 c -7e-6,-0.36976 -0.08534,-0.7822 -0.256,-1.23733 -0.625784,-0.25598 -1.18045,-0.18487 -1.664,0.21333 -0.455116,0.3698 -0.725338,0.82491 -0.810667,1.36534 -0.05689,0.51201 0.127996,0.86757 0.554667,1.06666 0.455105,0.19913 0.881772,0.21335 1.28,0.0427 0.540437,-0.22754 0.839104,-0.7111 0.896,-1.45067 m -1.28,10.70934 c -0.398228,-0.93866 -1.166227,-1.39377 -2.304,-1.36534 -0.68267,1e-5 -1.180447,0.15645 -1.493333,0.46934 -0.312891,0.28445 -0.469336,0.59734 -0.469334,0.93866 -2e-6,0.34134 0.156443,0.65423 0.469334,0.93867 0.312886,0.256 0.782219,0.384 1.408,0.384 0.54044,0 1.052439,-0.128 1.536,-0.384 0.511994,-0.25599 0.796438,-0.58311 0.853333,-0.98133" style="font-size:32px;font-variant:normal;font-weight:bold;font-stretch:normal;font-family:Ramaraja;-inkscape-font-specification:Ramaraja Bold" id="path3516"></path><path d="m 37.034579,115.42201 c 0.02844,0.0854 -0.01423,0.15647 -0.128,0.21333 -0.08534,0.0569 -0.21334,0.1138 -0.384,0.17067 -0.170673,0.0285 -0.341339,0.0711 -0.512,0.128 -0.170672,0.0285 -0.270227,0.0285 -0.298666,0 -0.568894,-0.45509 -0.853338,-1.1662 -0.853334,-2.13333 -4e-6,-0.73953 0.298662,-1.33687 0.896,-1.792 0.625772,-0.45509 1.336882,-0.68264 2.133334,-0.68267 0.682658,3e-5 1.322657,0.21336 1.92,0.64 0.597323,0.42669 0.910211,0.98136 0.938666,1.664 0.08532,0.59736 0.02843,0.95291 -0.170666,1.06667 -0.199122,0.0854 -0.51201,0.12802 -0.938667,0.128 -9e-6,-0.34131 -0.170676,-0.63998 -0.512,-0.896 -0.341342,-0.28442 -0.682675,-0.42665 -1.024,-0.42667 -0.824896,2e-5 -1.280007,0.18491 -1.365333,0.55467 -0.08534,0.3698 0.01422,0.82491 0.298666,1.36533 m 1.024,5.504 c -0.284452,0.17068 -0.682674,0.36979 -1.194666,0.59733 -0.512007,0.19913 -0.967117,0.29869 -1.365334,0.29867 -0.455116,2e-5 -0.896004,-0.0711 -1.322666,-0.21333 -0.426671,-0.14221 -0.824892,-0.3271 -1.194667,-0.55467 -0.36978,-0.22754 -0.668447,-0.52621 -0.896,-0.896 -0.199113,-0.36976 -0.298668,-0.82487 -0.298667,-1.36533 -1e-6,-1.59287 0.924442,-2.67376 2.773334,-3.24267 0.796439,-0.25598 1.678216,-0.29864 2.645333,-0.128 0.967103,0.14224 1.806213,0.44091 2.517333,0.896 0.625768,0.39824 1.095101,0.93869 1.408,1.62133 0.341322,0.65424 0.511989,1.23735 0.512,1.74934 -1.1e-5,1.70668 -0.810677,2.92979 -2.432,3.66933 -0.967119,0.39824 -1.891562,0.62579 -2.773333,0.68267 -0.881783,0.0285 -1.806227,-0.0853 -2.773333,-0.34134 -0.739559,-0.19909 -1.436447,-0.44087 -2.090667,-0.72533 -0.654223,-0.31287 -0.981334,-0.65421 -0.981333,-1.024 -1e-6,-0.42665 0.227555,-0.63998 0.682666,-0.64 0.08533,2e-5 0.383999,0.12802 0.896,0.384 0.540442,0.25602 1.123553,0.48357 1.749334,0.68267 0.739551,0.19912 1.479106,0.29868 2.218666,0.29866 0.739549,2e-5 1.45066,-0.18487 2.133334,-0.55466 0.426658,-0.1991 0.782213,-0.49777 1.066666,-0.896 0.284435,-0.39821 0.426657,-0.89599 0.426667,-1.49334 -10e-6,-0.3982 -0.0569,-0.85331 -0.170667,-1.36533 -0.08534,0.39824 -0.19912,0.79646 -0.341333,1.19467 -0.142231,0.39824 -0.540453,0.85335 -1.194667,1.36533 m -2.56,-2.77333 c -0.312894,0.17068 -0.554671,0.38402 -0.725333,0.64 -0.142227,0.25601 -0.213338,0.51201 -0.213333,0.768 -5e-6,0.22757 0.08533,0.42668 0.256,0.59733 0.199106,0.17068 0.511995,0.21335 0.938666,0.128 0.682661,-0.17065 1.151994,-0.54043 1.408,-1.10933 0.255993,-0.56887 0.341326,-1.02398 0.256,-1.36534 -0.796451,2e-5 -1.43645,0.1138 -1.92,0.34134 m 7.253334,14.12266 c -1.3e-5,0.79645 -0.213346,1.4649 -0.64,2.00534 -0.398234,0.512 -0.910234,0.93867 -1.536,1.28 -0.625788,0.34133 -1.294232,0.58311 -2.005334,0.72533 -0.711118,0.14222 -1.393784,0.21333 -2.048,0.21333 -2.133337,0 -3.768891,-0.42666 -4.906666,-1.28 -1.109334,-0.88177 -1.592889,-2.44621 -1.450667,-4.69333 l 1.109333,0 c 0.142221,1.30845 1.791997,1.96267 4.949334,1.96267 2.87288,0 4.309323,-0.46933 4.309333,-1.408 -10e-6,-0.34133 -0.327121,-0.61155 -0.981333,-0.81067 -0.625787,-0.1991 -1.379564,-0.35555 -2.261334,-0.46933 -0.881784,-0.14222 -1.749338,-0.27022 -2.602666,-0.384 -0.824893,-0.11377 -1.464892,-0.24177 -1.92,-0.384 -0.739558,-0.28444 -1.365335,-0.62577 -1.877334,-1.024 -0.483555,-0.39822 -0.725333,-0.9671 -0.725333,-1.70667 0,-0.68266 0.213333,-1.25154 0.64,-1.70667 0.45511,-0.45509 1.009776,-0.82487 1.664,-1.10933 0.654219,-0.28443 1.336885,-0.48354 2.048,-0.59733 0.711106,-0.14221 1.351105,-0.21332 1.92,-0.21334 1.223104,2e-5 2.403547,0.27024 3.541333,0.81067 1.365322,0.65424 2.218655,1.53601 2.56,2.64533 0.05688,0.28446 0.02843,0.51201 -0.08533,0.68267 -0.08535,0.14223 -0.227568,0.22757 -0.426667,0.256 -0.170678,0.0285 -0.369789,0.0142 -0.597333,-0.0427 -0.199122,-0.0853 -0.355566,-0.21332 -0.469333,-0.384 -0.540455,-0.62576 -1.322676,-1.08087 -2.346667,-1.36533 -1.024007,-0.28443 -2.048006,-0.39821 -3.072,-0.34133 -0.99556,0.0285 -1.863115,0.19912 -2.602667,0.512 -0.739557,0.3129 -1.109335,0.73956 -1.109333,1.28 -2e-6,0.42667 0.426665,0.75378 1.28,0.98133 0.881774,0.22756 1.863106,0.4409 2.944,0.64 0.625771,0.11379 1.322659,0.21334 2.090667,0.29867 0.767991,0.0853 1.493324,0.27023 2.176,0.55466 0.7111,0.25601 1.29421,0.61157 1.749333,1.06667 0.455099,0.45512 0.682654,1.12356 0.682667,2.00533" style="font-size:32px;font-variant:normal;font-weight:bold;font-stretch:normal;font-family:Ramaraja;-inkscape-font-specification:Ramaraja Bold" id="path3518"></path><path d="m 50.163246,116.53134 c 0.05688,0.0285 0.02844,0.0854 -0.08533,0.17067 -0.113783,0.0854 -0.256005,0.15646 -0.426667,0.21333 -0.170671,0.0285 -0.341338,0.0711 -0.512,0.128 -0.142226,0.0285 -0.241782,0.0285 -0.298667,0 -0.540447,-0.45509 -0.810669,-1.1662 -0.810666,-2.13333 -3e-6,-0.76798 0.298663,-1.37953 0.896,-1.83467 0.625773,-0.45508 1.322661,-0.68264 2.090666,-0.68266 0.711105,2e-5 1.351104,0.21335 1.92,0.64 0.597325,0.39824 0.938658,0.96713 1.024,1.70666 -9e-6,0.59736 -0.0569,0.95291 -0.170666,1.06667 -0.142231,0.0285 -0.469342,0.0427 -0.981334,0.0427 -8e-6,-0.31287 -0.170674,-0.61154 -0.512,-0.896 -0.34134,-0.28443 -0.696895,-0.42665 -1.066666,-0.42667 -0.768006,2e-5 -1.208894,0.19913 -1.322667,0.59733 -0.113783,0.39825 -0.02845,0.86758 0.256,1.408 m 1.066667,5.504 c -0.284451,0.17068 -0.696895,0.35557 -1.237334,0.55467 -0.512004,0.17068 -0.967115,0.25601 -1.365333,0.256 -0.455114,10e-6 -0.896003,-0.0569 -1.322667,-0.17067 -0.398224,-0.11376 -0.782223,-0.29865 -1.152,-0.55466 -0.369778,-0.25599 -0.668445,-0.55465 -0.896,-0.896 -0.227555,-0.34132 -0.341333,-0.78221 -0.341333,-1.32267 0,-1.59287 0.924444,-2.67376 2.773333,-3.24267 0.824886,-0.25598 1.706663,-0.29864 2.645334,-0.128 0.967104,0.14225 1.806215,0.42669 2.517333,0.85334 0.654214,0.39824 1.151991,0.93868 1.493333,1.62133 0.341324,0.68268 0.483546,1.28002 0.426667,1.792 -10e-6,1.70668 -0.796453,2.91557 -2.389333,3.62667 -0.938674,0.42668 -1.863117,0.66845 -2.773334,0.72533 -0.910226,0.0285 -1.848891,-0.0853 -2.816,-0.34133 -0.739556,-0.1991 -1.237334,-0.36977 -1.493333,-0.512 -0.256,-0.17066 -0.384,-0.41243 -0.384,-0.72534 0,-0.51198 0.199111,-0.72532 0.597333,-0.64 0.142222,2e-5 0.284444,0.0427 0.426667,0.128 0.142221,0.0853 0.526221,0.22757 1.152,0.42667 0.739553,0.19912 1.479107,0.29868 2.218667,0.29867 0.73955,1e-5 1.45066,-0.18488 2.133333,-0.55467 0.42666,-0.25599 0.782215,-0.56887 1.066667,-0.93867 0.284436,-0.36976 0.426658,-0.85331 0.426666,-1.45066 -8e-6,-0.1991 -0.01423,-0.41243 -0.04267,-0.64 -0.02845,-0.22754 -0.08534,-0.46932 -0.170667,-0.72534 -0.0569,0.3698 -0.170674,0.76802 -0.341333,1.19467 -0.14223,0.39824 -0.526229,0.85335 -1.152,1.36533 m -2.602667,-2.77333 c -0.284448,0.17068 -0.512003,0.38402 -0.682667,0.64 -0.170669,0.25602 -0.256002,0.51202 -0.256,0.768 -2e-6,0.22757 0.09955,0.42668 0.298667,0.59733 0.199108,0.14224 0.526219,0.18491 0.981333,0.128 0.625773,-0.17065 1.066662,-0.54042 1.322667,-1.10933 0.255994,-0.56887 0.369772,-1.0382 0.341333,-1.408 -0.73956,2e-5 -1.408004,0.12802 -2.005333,0.384 m 14.805333,10.752 c -1.8e-5,0.8249 -0.128018,1.62134 -0.384,2.38933 -0.227573,0.76801 -0.568906,1.4649 -1.024,2.09067 -0.455127,0.59734 -1.038238,1.08089 -1.749333,1.45067 -0.711126,0.36978 -1.507569,0.55466 -2.389333,0.55466 -0.853346,0 -1.592901,-0.0853 -2.218667,-0.256 -0.625788,-0.19911 -1.294232,-0.83911 -2.005333,-1.92 -0.312898,0.54045 -0.782231,1.03823 -1.408,1.49334 -0.59734,0.45511 -1.322673,0.68266 -2.176,0.68266 -1.223115,0 -2.161781,-0.39822 -2.816,-1.19466 -0.654224,-0.82489 -0.981335,-1.73511 -0.981334,-2.73067 -0.02845,-0.99555 0.255999,-1.90577 0.853334,-2.73067 0.625775,-0.85332 1.592885,-1.30843 2.901333,-1.36533 0.455106,-0.0569 0.938661,10e-6 1.450667,0.17067 0.511993,0.14223 0.967103,0.39823 1.365333,0.768 0.426658,0.36978 0.725325,0.73956 0.896,1.10933 0.199102,0.36978 0.412435,0.69689 0.64,0.98133 0.227546,0.28445 0.540434,0.54045 0.938667,0.768 0.426656,0.19912 1.095099,0.29867 2.005333,0.29867 1.308431,0 2.375096,-0.28444 3.2,-0.85333 0.824872,-0.59733 1.223094,-1.60711 1.194667,-3.02934 -1.7e-5,-1.25154 -0.46935,-2.27554 -1.408,-3.072 -0.938681,-0.79643 -2.048014,-1.19465 -3.328,-1.19466 -0.284457,1e-5 -0.611567,-0.0427 -0.981334,-0.128 -0.369788,-0.0853 -0.540455,-0.39821 -0.512,-0.93867 -10e-6,-0.56887 0.426656,-0.85332 1.28,-0.85333 1.934209,1e-5 3.541318,0.78223 4.821334,2.34666 1.223093,1.45068 1.834648,3.17157 1.834666,5.16267 m -13.525333,2.47467 c 0.881772,0.0569 1.507549,-0.0569 1.877333,-0.34134 0.398215,-0.31288 0.583104,-0.63999 0.554667,-0.98133 -0.02845,-0.36977 -0.241785,-0.69688 -0.64,-0.98133 -0.369784,-0.31289 -0.910228,-0.46933 -1.621333,-0.46934 -0.625783,1e-5 -1.109338,0.14223 -1.450667,0.42667 -0.341337,0.28445 -0.526225,0.61156 -0.554667,0.98133 -3e-6,0.34134 0.142219,0.65423 0.426667,0.93867 0.312885,0.28445 0.782218,0.42667 1.408,0.42667" style="font-size:32px;font-variant:normal;font-weight:bold;font-stretch:normal;font-family:Ramaraja;-inkscape-font-specification:Ramaraja Bold" id="path3520"></path><path d="m 76.676246,120.62734 c -0.256011,0.19913 -0.64001,0.39824 -1.152,0.59734 -0.512009,0.17068 -0.981342,0.25601 -1.408,0.256 -0.426675,10e-6 -0.853341,-0.0569 -1.28,-0.17067 -0.426674,-0.11376 -0.824895,-0.29865 -1.194667,-0.55467 -0.369783,-0.25598 -0.66845,-0.55465 -0.896,-0.896 -0.22756,-0.36976 -0.341338,-0.81065 -0.341333,-1.32266 -5e-6,-1.59287 0.924439,-2.68798 2.773333,-3.28534 0.824881,-0.25597 1.72088,-0.29864 2.688,-0.128 0.9671,0.17069 1.791988,0.45514 2.474667,0.85334 0.625764,0.39824 1.109319,0.93868 1.450667,1.62133 0.341318,0.68269 0.511985,1.29424 0.512,1.83467 -1.5e-5,1.67823 -0.810681,2.8729 -2.432,3.584 -0.967123,0.45512 -1.905789,0.6969 -2.816,0.72533 -0.881787,0.0285 -1.792008,-0.0853 -2.730667,-0.34133 -0.739562,-0.17066 -1.322672,-0.34132 -1.749333,-0.512 -0.398227,-0.1991 -0.597338,-0.46932 -0.597334,-0.81067 -4e-6,-0.4551 0.227551,-0.68265 0.682667,-0.68267 0.05688,2e-5 0.22755,0.0711 0.512,0.21334 0.312883,0.14223 0.782216,0.29868 1.408,0.46933 0.739548,0.22757 1.479103,0.34135 2.218667,0.34133 0.739545,2e-5 1.464878,-0.18487 2.176,-0.55466 0.39821,-0.25599 0.739543,-0.56888 1.024,-0.93867 0.284431,-0.36976 0.426653,-0.85332 0.426666,-1.45067 -1.3e-5,-0.3982 -0.0569,-0.86753 -0.170666,-1.408 -0.08535,0.42669 -0.199124,0.83913 -0.341334,1.23734 -0.142234,0.36979 -0.554678,0.81068 -1.237333,1.32266 m -2.56,-2.77333 c -0.284453,0.19913 -0.512008,0.42669 -0.682667,0.68267 -0.170674,0.25601 -0.256007,0.51201 -0.256,0.768 -7e-6,0.22757 0.08533,0.41246 0.256,0.55466 0.199103,0.14224 0.526214,0.19913 0.981334,0.17067 0.654212,-0.19909 1.109323,-0.58309 1.365333,-1.152 0.284434,-0.56887 0.383989,-1.0382 0.298667,-1.408 -0.711121,2e-5 -1.365343,0.12802 -1.962667,0.384 m 9.6,13.26933 c -1.8e-5,1.50756 -0.483573,2.78756 -1.450667,3.84 -0.938682,1.024 -2.190236,1.536 -3.754666,1.536 -0.853346,0 -1.621345,-0.14222 -2.304,-0.42666 -0.682677,-0.31289 -1.322676,-0.95289 -1.92,-1.92 -0.284453,0.85333 -0.824897,1.46489 -1.621334,1.83466 -0.768006,0.34134 -1.479116,0.512 -2.133333,0.512 -0.824893,0 -1.550226,-0.15644 -2.176,-0.46933 -0.597336,-0.34133 -1.109335,-0.78222 -1.536,-1.32267 -0.398223,-0.54044 -0.711112,-1.15199 -0.938667,-1.83466 -0.227555,-0.68267 -0.341333,-1.39378 -0.341333,-2.13334 0,-2.36088 0.910221,-4.33776 2.730667,-5.93066 1.763551,-1.56443 3.825771,-2.34666 6.186666,-2.34667 2.702211,10e-6 4.707542,0.48357 6.016,1.45067 0.142207,0.11379 0.270207,0.22757 0.384,0.34133 0.113763,0.11379 0.127985,0.27023 0.04267,0.46933 -0.142237,0.36979 -0.440904,0.51202 -0.896,0.42667 -0.170681,-0.0853 -0.341347,-0.18488 -0.512,-0.29867 -0.142236,-0.14221 -0.29868,-0.27021 -0.469333,-0.384 -1.052457,-0.51198 -2.631122,-0.76798 -4.736,-0.768 -0.739564,2e-5 -1.493341,0.12802 -2.261334,0.384 -0.768005,0.25602 -1.479116,0.61157 -2.133333,1.06667 -0.654226,0.45512 -1.180448,1.00979 -1.578667,1.664 -0.398224,0.65423 -0.597335,1.39379 -0.597333,2.21867 -2e-6,0.93867 0.255998,1.76356 0.768,2.47466 0.511997,0.71112 1.251551,1.06667 2.218667,1.06667 1.535993,0 2.531548,-0.96711 2.986666,-2.90133 0.11377,-0.48355 0.312881,-0.72533 0.597334,-0.72534 0.227546,1e-5 0.398213,0.22757 0.512,0.68267 0.199101,0.96712 0.63999,1.70667 1.322666,2.21867 0.7111,0.48356 1.564433,0.72533 2.56,0.72533 0.995542,0 1.749319,-0.18488 2.261334,-0.55467 0.540428,-0.36977 0.910206,-0.78221 1.109333,-1.23733 -0.369794,0.45512 -0.867571,0.78223 -1.493333,0.98133 -0.625792,0.17068 -1.25157,0.19912 -1.877334,0.0853 -0.597346,-0.11378 -1.123567,-0.36978 -1.578666,-0.768 -0.455123,-0.42666 -0.682678,-1.024 -0.682667,-1.792 -1.1e-5,-0.45511 0.09954,-0.85333 0.298667,-1.19467 0.199099,-0.34132 0.455099,-0.62577 0.768,-0.85333 0.312876,-0.22755 0.654209,-0.39822 1.024,-0.512 0.398209,-0.14222 0.767986,-0.21333 1.109333,-0.21334 1.422207,-0.0284 2.460428,0.41246 3.114667,1.32267 0.654204,0.88179 0.981315,1.9769 0.981333,3.28533 m -3.584,-0.768 c 0.48354,10e-6 0.824873,-0.14221 1.024,-0.42666 0.22754,-0.28444 0.327095,-0.58311 0.298667,-0.896 -1.6e-5,-0.34133 -0.142238,-0.63999 -0.426667,-0.896 -0.256015,-0.25599 -0.61157,-0.36977 -1.066667,-0.34134 -0.455125,0.0285 -0.796458,0.1849 -1.024,0.46934 -0.199124,0.28445 -0.284457,0.58312 -0.256,0.896 0.02843,0.31289 0.156431,0.59734 0.384,0.85333 0.255987,0.25601 0.611542,0.36978 1.066667,0.34133" style="font-size:32px;font-variant:normal;font-weight:bold;font-stretch:normal;font-family:Ramaraja;-inkscape-font-specification:Ramaraja Bold" id="path3522"></path><path d="m 110.77008,118.70734 c -1.19469,0.85335 -2.4178,1.66402 -3.66933,2.432 -1.22314,0.76802 -2.48891,1.5218 -3.79734,2.26134 -0.39824,0.22757 -0.78224,0.34134 -1.152,0.34133 -0.36979,1e-5 -0.73957,-0.0711 -1.10933,-0.21333 -0.34135,-0.14221 -0.68268,-0.3271 -1.024,-0.55467 -0.312903,-0.22754 -0.640014,-0.42665 -0.981334,-0.59733 -0.512013,-0.31288 -0.967123,-0.62577 -1.365333,-0.93867 -0.36979,-0.34132 -0.554678,-0.72532 -0.554667,-1.152 -1.1e-5,-0.39821 0.184877,-0.7822 0.554667,-1.152 0.369765,-0.36976 0.796432,-0.51198 1.28,-0.42667 0.398208,0.0569 0.767986,0.22758 1.109337,0.512 0.36976,0.25602 0.68265,0.55469 0.93866,0.896 0.28443,0.31291 0.54043,0.65424 0.768,1.024 0.25599,0.3698 0.49776,0.68269 0.72534,0.93867 0.62576,-0.59732 1.20887,-1.13776 1.74933,-1.62133 0.54042,-0.51199 1.05242,-1.00976 1.536,-1.49334 0.51198,-0.48353 1.0382,-0.96709 1.57867,-1.45066 0.56886,-0.51198 1.20886,-1.08087 1.92,-1.70667 0.51197,-0.51198 1.00975,-0.72531 1.49333,-0.64 0.48353,0.0569 0.86753,0.27024 1.152,0.64 0.45508,0.59735 0.51197,1.1378 0.17067,1.62133 -0.34136,0.48358 -0.78225,0.91024 -1.32267,1.28 m -0.128,11.008 c -3e-5,4.49423 -1.84891,6.74134 -5.54667,6.74134 -1.22313,0 -2.33246,-0.256 -3.328,-0.768 -0.96712,-0.54045 -1.63557,-1.52178 -2.005331,-2.944 -0.654235,1.05244 -1.578679,1.94844 -2.773333,2.688 -1.166232,0.71111 -2.403564,1.06666 -3.712,1.06666 -1.024006,0 -1.991117,-0.15644 -2.901333,-0.46933 -0.910226,-0.34133 -1.70667,-0.81066 -2.389334,-1.408 -0.654223,-0.62577 -1.180445,-1.36533 -1.578666,-2.21867 -0.369778,-0.88177 -0.554667,-1.8631 -0.554667,-2.944 0,-1.08088 0.184889,-2.04799 0.554667,-2.90133 0.369777,-0.88177 0.867554,-1.63554 1.493333,-2.26133 0.65422,-0.62577 1.422219,-1.10932 2.304,-1.45067 0.910217,-0.36976 1.905772,-0.55465 2.986667,-0.55467 2.019546,2e-5 3.626655,0.66846 4.821333,2.00534 1.223098,1.3369 1.934208,2.94401 2.133334,4.82133 0.31287,0.93867 0.86754,1.73512 1.664,2.38933 0.82487,0.65423 1.72087,0.98134 2.688,0.98134 1.1662,0 2.17598,-0.384 3.02933,-1.152 0.85331,-0.768 1.27998,-1.74933 1.28,-2.944 -2e-5,-1.33688 -0.48358,-2.3751 -1.45066,-3.11467 -0.93869,-0.73954 -2.00536,-1.20888 -3.2,-1.408 -0.48358,-0.0853 -0.8818,-0.11376 -1.19467,-0.0853 -0.28446,1e-5 -0.61157,-0.0142 -0.98133,-0.0427 -0.42669,-0.0853 -0.69691,-0.25599 -0.81067,-0.512 -0.0569,-0.14221 -0.0142,-0.28443 0.128,-0.42667 0.17065,-0.1422 0.32709,-0.24176 0.46933,-0.29866 l 0.93867,0 c 2.36087,1e-5 4.26664,0.62579 5.71733,1.87733 1.47909,1.25157 2.21864,3.02934 2.21867,5.33333 m -12.544001,-1.152 c 0.05688,-0.7111 -0.08535,-1.3511 -0.426666,-1.92 -0.312901,-0.56887 -0.725345,-1.05243 -1.237334,-1.45066 -0.51201,-0.39821 -1.080898,-0.69688 -1.706666,-0.896 -0.625786,-0.22755 -1.251564,-0.34132 -1.877334,-0.34134 -0.711117,0.0569 -1.351116,0.21335 -1.92,0.46934 -0.568893,0.25601 -1.06667,0.58312 -1.493333,0.98133 -0.398225,0.39823 -0.711114,0.86757 -0.938667,1.408 -0.199113,0.51201 -0.298669,1.03823 -0.298666,1.57867 -3e-6,0.68267 0.156442,1.28 0.469333,1.792 0.312886,0.512 0.696885,0.93867 1.152,1.28 0.483551,0.31289 0.995551,0.56889 1.536,0.768 0.540438,0.17067 1.038216,0.256 1.493333,0.256 0.540437,0 1.109326,-0.0569 1.706667,-0.17067 0.625768,-0.14222 1.194657,-0.35555 1.706667,-0.64 0.540433,-0.28444 0.981322,-0.68266 1.322666,-1.19467 0.341322,-0.51199 0.511988,-1.15199 0.512,-1.92 m 29.738671,-2.944 c 0.0284,1.10935 -0.25605,1.99112 -0.85334,2.64534 -0.56893,0.65423 -1.3227,0.98134 -2.26133,0.98133 -0.54048,10e-6 -1.03826,-0.12799 -1.49333,-0.384 -0.42671,-0.25599 -0.78226,-0.5831 -1.06667,-0.98133 -0.25604,-0.39822 -0.36981,-0.8391 -0.34133,-1.32267 0.0284,-0.48354 0.24174,-0.93866 0.64,-1.36533 l -9.55734,0 c -0.39825,1e-5 -0.65425,-0.0995 -0.768,-0.29867 -0.1138,-0.1991 -0.17069,-0.51199 -0.17066,-0.93867 -3e-5,-0.59732 0.0711,-0.96709 0.21333,-1.10933 0.17064,-0.14221 0.56886,-0.21332 1.19467,-0.21333 l 9.89866,0 c 2.95818,1e-5 4.47996,0.99557 4.56534,2.98666 m -1.70667,1.024 c -0.0854,-0.85332 -0.75382,-1.3511 -2.00533,-1.49333 -0.36982,0.25601 -0.59737,0.52623 -0.68267,0.81067 -0.0569,0.25601 -0.0854,0.48356 -0.0853,0.68266 -4e-5,0.3129 0.12796,0.59735 0.384,0.85334 0.2844,0.22756 0.59729,0.34134 0.93866,0.34133 0.48352,1e-5 0.8533,-0.11377 1.10934,-0.34133 0.25596,-0.25599 0.36973,-0.54044 0.34133,-0.85334 m -5.93067,6.48534 c -0.34136,0.96711 -0.99559,1.77778 -1.96266,2.432 -0.96715,0.62578 -1.9627,0.93866 -2.98667,0.93866 -0.76803,0 -1.49336,-0.14222 -2.176,-0.42666 -0.65425,-0.31289 -1.23736,-0.71111 -1.74933,-1.19467 -0.48358,-0.512 -0.89603,-1.05244 -1.23734,-1.62133 -0.34135,-0.56889 -0.51202,-1.23733 -0.512,-2.00534 l 0.29867,-1.10933 c 0.0569,-0.17066 0.1422,-0.35555 0.256,-0.55467 0.11375,-0.1991 0.2702,-0.42666 0.46933,-0.68266 0.0284,0.17067 0.0426,0.34134 0.0427,0.512 l 0.0427,0.59733 c 0.0853,0.48356 0.27019,0.91023 0.55466,1.28 0.31287,0.36978 0.6542,0.64001 1.024,0.81067 0.36975,0.17067 0.75375,0.29867 1.152,0.384 0.3982,0.0569 0.82486,0.0853 1.28,0.0853 0.51197,0 1.02397,-0.0995 1.536,-0.29867 0.54042,-0.22755 1.00975,-0.49777 1.408,-0.81066 0.39819,-0.34133 0.7253,-0.73955 0.98134,-1.19467 0.25596,-0.4551 0.38396,-0.9671 0.384,-1.536 -4e-5,-0.65421 -0.1707,-1.25155 -0.512,-1.792 -0.34137,-0.54043 -0.83915,-0.9671 -1.49334,-1.28 -0.62581,-0.31288 -1.2658,-0.46932 -1.92,-0.46933 -0.65425,1e-5 -1.25158,1e-5 -1.792,0 -0.19914,0.0285 -0.38402,-0.0427 -0.55466,-0.21334 -0.1707,-0.1991 -0.31292,-0.35554 -0.42667,-0.46933 -0.0854,-0.14221 -0.15647,-0.29865 -0.21333,-0.46933 -0.0285,-0.17066 -0.0427,-0.31288 -0.0427,-0.42667 -3e-5,-0.39821 0.0995,-0.65421 0.29867,-0.768 0.22752,-0.14221 0.62575,-0.21332 1.19466,-0.21333 0.85331,1e-5 1.74931,0.17068 2.688,0.512 0.93864,0.3129 1.73508,0.83912 2.38934,1.57866 0.51196,0.5689 0.89596,1.15201 1.152,1.74934 0.28441,0.59734 0.48352,1.18045 0.59733,1.74933 0.14219,0.54045 0.22752,1.00979 0.256,1.408 0.0284,0.36978 0.0284,0.85334 0,1.45067 -4e-5,0.56889 -0.14226,1.25156 -0.42667,2.048" style="font-size:32px;font-variant:normal;font-weight:bold;font-stretch:normal;font-family:Ramaraja;-inkscape-font-specification:Ramaraja Bold" id="path3524"></path></g>




</g><g inkscape:groupmode="layer" id="layer2" inkscape:label="tagline" style="display:inline"><g style="font-size:40px;font-style:normal;font-weight:normal;line-height:125%;letter-spacing:0px;word-spacing:0px;fill:#000000;fill-opacity:1;stroke:none;font-family:Sans" id="text3544"><path d="m 13.48,139.6 c -5e-6,0.98667 -0.573338,1.48001 -1.72,1.48 l -0.9,0 c -0.173336,10e-6 -0.300003,-0.0267 -0.38,-0.08 -0.08,-0.0667 -0.120002,-0.13999 -0.12,-0.22 -2e-6,-0.08 0.04,-0.15333 0.12,-0.22 0.09333,-0.08 0.219997,-0.11999 0.38,-0.12 l 0.88,0 c 0.226663,1e-5 0.399996,-0.0467 0.52,-0.14 0.119996,-0.10666 0.179996,-0.22666 0.18,-0.36 -4e-6,-0.13333 -0.06,-0.24666 -0.18,-0.34 -0.106671,-0.10666 -0.280004,-0.15999 -0.52,-0.16 l -3.24,0.02 c -0.2533336,1e-5 -0.4000001,-0.06 -0.44,-0.18 C 8.02,139.14667 8,138.95334 8,138.7 c 0,-0.39999 0.00667,-0.61999 0.02,-0.66 0.04,-0.14666 0.1,-0.21999 0.18,-0.22 0.093333,-0.0133 0.1933329,-0.02 0.3,-0.02 l 2.64,0 c 0.319997,10e-6 0.619996,0.0267 0.9,0.08 0.293329,0.0533 0.546662,0.14668 0.76,0.28 0.213328,0.12001 0.379995,0.30001 0.5,0.54 0.119995,0.22667 0.179995,0.52667 0.18,0.9 m -1.52,-1.72 c -0.160004,0.0267 -0.28667,0.0467 -0.38,0.06 -0.09334,0.0133 -0.240003,-0.0333 -0.44,-0.14 -0.18667,-0.18666 -0.293336,-0.39332 -0.32,-0.62 -0.02667,-0.22666 0.01333,-0.43999 0.12,-0.64 0.106664,-0.19999 0.259997,-0.36666 0.46,-0.5 0.21333,-0.13332 0.459996,-0.19999 0.74,-0.2 0.399995,1e-5 0.699995,0.12668 0.9,0.38 0.213328,0.24001 0.353328,0.46001 0.42,0.66 0.01333,0.0533 0.0067,0.12001 -0.02,0.2 -0.02667,0.0667 -0.06667,0.12001 -0.12,0.16 -0.04001,0.04 -0.100005,0.06 -0.18,0.06 -0.06667,10e-6 -0.133338,-0.04 -0.2,-0.12 -0.09334,-0.10666 -0.193338,-0.20666 -0.3,-0.3 -0.09334,-0.0933 -0.233338,-0.12666 -0.42,-0.1 -0.173337,0.0533 -0.300004,0.14001 -0.38,0.26 -0.08,0.10668 -0.12667,0.22001 -0.14,0.34 -4e-6,0.12001 0.02,0.22668 0.06,0.32 0.04,0.0933 0.106663,0.15334 0.2,0.18 m 2.7,2.46 c 0.373326,0.04 0.719993,0.14667 1.04,0.32 0.319992,0.17334 0.599992,0.40667 0.84,0.7 0.239991,0.29334 0.413324,0.64667 0.52,1.06 0.106657,0.4 0.146657,0.86 0.12,1.38 -0.04001,0.34667 -0.120009,0.71334 -0.24,1.1 -0.106676,0.37334 -0.266675,0.72 -0.48,1.04 -0.200008,0.30667 -0.460008,0.56 -0.78,0.76 -0.306674,0.2 -0.666674,0.3 -1.08,0.3 -0.533339,0 -0.966672,-0.17333 -1.3,-0.52 -0.333338,-0.34667 -0.626671,-0.72667 -0.88,-1.14 -0.240004,-0.41333 -0.466671,-0.78666 -0.68,-1.12 -0.200004,-0.34666 -0.440003,-0.51333 -0.72,-0.5 -0.226669,0.0267 -0.400003,0.0867 -0.52,0.18 -0.120002,0.0933 -0.200002,0.21334 -0.24,0.36 -0.04,0.13334 -0.03334,0.28 0.02,0.44 0.05333,0.14667 0.139998,0.3 0.26,0.46 0.106664,0.10667 0.226664,0.21333 0.36,0.32 0.13333,0.10667 0.25333,0.21333 0.36,0.32 0.119997,0.10667 0.199997,0.22 0.24,0.34 0.05333,0.12 0.04666,0.24 -0.02,0.36 -0.08,0.14667 -0.193337,0.25333 -0.34,0.32 -0.14667,0.0667 -0.293336,0.1 -0.44,0.1 -0.226669,0 -0.433336,-0.06 -0.62,-0.18 -0.1866686,-0.12 -0.3533351,-0.27333 -0.5,-0.46 -0.1466681,-0.2 -0.2600013,-0.40667 -0.34,-0.62 -0.080001,-0.21333 -0.1200011,-0.42666 -0.12,-0.64 -1.1e-6,-0.58666 0.1333321,-1.03333 0.4,-1.34 0.2666649,-0.32 0.586665,-0.51333 0.96,-0.58 0.386664,-0.0667 0.77333,-0.0133 1.16,0.16 0.399996,0.17334 0.726662,0.44 0.98,0.8 0.253328,0.36 0.559995,0.63334 0.92,0.82 0.359994,0.18667 0.659994,0.28 0.9,0.28 0.42666,0 0.786659,-0.0933 1.08,-0.28 0.293326,-0.18666 0.513325,-0.41333 0.66,-0.68 0.159992,-0.26666 0.253325,-0.56 0.28,-0.88 0.02666,-0.33333 -0.02001,-0.64 -0.14,-0.92 -0.106675,-0.29333 -0.293341,-0.53999 -0.56,-0.74 -0.253341,-0.21333 -0.580007,-0.34666 -0.98,-0.4 -0.29334,-0.04 -0.486673,-0.0933 -0.58,-0.16 -0.09334,-0.0667 -0.140006,-0.17999 -0.14,-0.34 -6e-6,-0.13333 0.04666,-0.23999 0.14,-0.32 0.10666,-0.08 0.259994,-0.11333 0.46,-0.1" style="font-family:Ramaraja;-inkscape-font-specification:Ramaraja" id="path3527"></path><path d="m 19.144609,145.72 c 0.199999,0.22667 0.406666,0.48 0.62,0.76 0.213332,0.26667 0.393332,0.54 0.54,0.82 0.146665,0.29333 0.246665,0.60667 0.3,0.94 0.06667,0.34667 0.04,0.71333 -0.08,1.1 -0.09334,0.30666 -0.220002,0.57333 -0.38,0.8 -0.146668,0.24 -0.393334,0.42 -0.74,0.54 -0.253334,0.10666 -0.52,0.11333 -0.8,0.02 -0.28,-0.0933 -0.513333,-0.27334 -0.7,-0.54 -0.119999,0.2 -0.273332,0.35333 -0.46,0.46 -0.186665,0.12 -0.406665,0.18 -0.66,0.18 -0.319998,0 -0.573331,-0.12 -0.76,-0.36 -0.199997,-0.24 -0.299997,-0.54 -0.3,-0.9 3e-6,-0.30667 0.100003,-0.55334 0.3,-0.74 0.186669,-0.17333 0.400002,-0.28667 0.64,-0.34 0.226668,-0.04 0.460001,-0.02 0.7,0.06 0.240001,0.0933 0.406667,0.24666 0.5,0.46 0.146667,0.45333 0.453334,0.68 0.92,0.68 0.293333,0 0.539999,-0.12667 0.74,-0.38 0.199999,-0.25334 0.299999,-0.52667 0.3,-0.82 -10e-7,-0.17333 -0.01333,-0.34 -0.04,-0.5 -0.02667,-0.16 -0.08667,-0.33333 -0.18,-0.52 -0.08,-0.17333 -0.200001,-0.38 -0.36,-0.62 -0.146667,-0.24 -0.36,-0.52667 -0.64,-0.86 -0.346666,-0.38667 -0.593333,-0.82666 -0.74,-1.32 -0.159999,-0.50666 -0.226666,-1.00666 -0.2,-1.5 0.04,-0.53333 0.200001,-0.97333 0.48,-1.32 0.266667,-0.35999 0.68,-0.53999 1.24,-0.54 0.466665,1e-5 0.846665,0.17334 1.14,0.52 0.293331,0.33334 0.439998,0.72667 0.44,1.18 -2e-6,0.36 -0.113336,0.67334 -0.34,0.94 -0.226668,0.25334 -0.526668,0.38 -0.9,0.38 -0.173334,0.04 -0.340001,0.0267 -0.5,-0.04 -0.146667,-0.08 -0.22,-0.22666 -0.22,-0.44 0,-0.14666 0.07333,-0.25333 0.22,-0.32 0.146666,-0.0667 0.279999,-0.1 0.4,-0.1 0.239999,0 0.406665,-0.08 0.5,-0.24 0.106665,-0.16 0.146665,-0.35333 0.12,-0.58 -0.01334,-0.22666 -0.09333,-0.40666 -0.24,-0.54 -0.146668,-0.14666 -0.333334,-0.21999 -0.56,-0.22 -0.453334,1e-5 -0.773333,0.14001 -0.96,0.42 -0.186666,0.28 -0.28,0.6 -0.28,0.96 0,0.58667 0.1,1.08 0.3,1.48 0.2,0.38667 0.413333,0.73333 0.64,1.04 m -1.72,3.6 c -0.08,-0.10667 -0.173332,-0.19334 -0.28,-0.26 -0.119998,-0.0533 -0.226665,-0.08 -0.32,-0.08 -0.106665,0 -0.193331,0.0333 -0.26,0.1 -0.08,0.0667 -0.119998,0.14666 -0.12,0.24 2e-6,0.16 0.04667,0.26 0.14,0.3 0.08,0.0533 0.186668,0.0733 0.32,0.06 0.120002,0 0.233335,-0.04 0.34,-0.12 0.09333,-0.0667 0.153335,-0.14667 0.18,-0.24" style="font-family:Ramaraja;-inkscape-font-specification:Ramaraja" id="path3529"></path><path d="m 33.456562,141.74 c 0.03999,0.54667 -0.07334,0.96 -0.34,1.24 -0.253344,0.26667 -0.553344,0.41334 -0.899999,0.44 -0.400011,0.0267 -0.706677,-0.04 -0.920001,-0.2 -0.200009,-0.16 -0.340009,-0.35333 -0.42,-0.58 -0.08001,-0.22666 -0.106675,-0.44 -0.08,-0.64 0.02666,-0.21333 0.07332,-0.35999 0.14,-0.44 l -6.14,0 c -0.133336,1e-5 -0.273336,-0.0533 -0.42,-0.16 -0.133336,-0.11999 -0.200002,-0.28666 -0.2,-0.5 -2e-6,-0.30666 0.05333,-0.51999 0.16,-0.64 0.119998,-0.11999 0.353331,-0.17999 0.7,-0.18 l 5.96,-0.02 c 0.293324,1e-5 0.57999,0.0267 0.86,0.08 0.293323,0.0533 0.553323,0.14001 0.78,0.26 0.226656,0.12001 0.413322,0.29334 0.56,0.52 0.146655,0.22667 0.233322,0.50001 0.26,0.82 m -0.82,0.42 c -1.1e-5,-0.18666 -0.06668,-0.33333 -0.2,-0.44 -0.133344,-0.11999 -0.286677,-0.17999 -0.46,-0.18 -0.16001,1e-5 -0.306676,0.0467 -0.44,0.14 -0.133343,0.0933 -0.200009,0.25334 -0.2,0.48 -9e-6,0.17334 0.05999,0.31334 0.18,0.42 0.133324,0.0933 0.27999,0.14667 0.44,0.16 0.173323,0 0.326656,-0.04 0.46,-0.12 0.146656,-0.0933 0.219989,-0.24666 0.22,-0.46 m -3.18,-0.22 c 0.439992,0.37334 0.746658,0.84667 0.92,1.42 0.186658,0.57334 0.226658,1.13334 0.12,1.68 -0.106675,0.53333 -0.353342,0.99333 -0.74,1.38 -0.386674,0.38667 -0.926674,0.58 -1.62,0.58 -0.386672,0 -0.753339,-0.0867 -1.1,-0.26 -0.346671,-0.17333 -0.613338,-0.45333 -0.8,-0.84 -0.400004,0.73333 -0.980003,1.1 -1.74,1.1 -0.613335,0 -1.080001,-0.16 -1.4,-0.48 -0.320001,-0.32 -0.506667,-0.69333 -0.56,-1.12 -0.05333,-0.44 0.02667,-0.88666 0.24,-1.34 0.226666,-0.45333 0.573332,-0.81333 1.04,-1.08 -0.160002,0.0667 -0.373335,0.16 -0.64,0.28 -0.253334,0.10667 -0.506667,0.18667 -0.759999,0.24 -0.240001,0.04 -0.460001,0.0267 -0.660001,-0.04 -0.186666,-0.0667 -0.28,-0.24666 -0.28,-0.54 0,-0.50666 0.266667,-0.76 0.8,-0.76 l 2.52,0 0,0.6 c -0.186669,0.14667 -0.380002,0.3 -0.58,0.46 -0.200002,0.16 -0.360002,0.34667 -0.479999,0.56 -0.173336,0.33334 -0.186669,0.64667 -0.04,0.94 0.159998,0.29334 0.439998,0.44 0.84,0.44 0.399997,0 0.73333,-0.14 1,-0.42 0.279996,-0.28 0.426663,-0.58666 0.44,-0.92 -4e-6,-0.2 0.08666,-0.3 0.26,-0.3 0.173329,-0.0133 0.273329,0.0867 0.3,0.3 0.133329,0.33334 0.333328,0.64 0.6,0.92 0.266661,0.28 0.586661,0.42 0.96,0.42 0.453327,0 0.793326,-0.1 1.02,-0.3 0.239993,-0.2 0.379992,-0.44 0.42,-0.72 0.05333,-0.29333 0.01999,-0.6 -0.1,-0.92 -0.106674,-0.32 -0.293341,-0.61333 -0.56,-0.88 -0.186673,-0.18666 -0.420006,-0.33333 -0.7,-0.44 -0.266673,-0.11999 -0.540006,-0.20666 -0.82,-0.26 -0.280005,-0.0533 -0.546672,-0.08 -0.8,-0.08 -0.253338,1e-5 -0.440004,1e-5 -0.56,0 -0.06667,1e-5 -0.120004,-0.007 -0.16,-0.02 -0.06667,1e-5 -0.12667,-0.10666 -0.18,-0.32 -0.05334,-0.11999 0.13333,-0.17999 0.56,-0.18 0.666662,1e-5 1.279994,0.0733 1.84,0.22 0.573327,0.13334 1.039993,0.36001 1.4,0.68" style="font-family:Ramaraja;-inkscape-font-specification:Ramaraja" id="path3531"></path><path d="m 34.653672,150.44 c 0.05333,0.0533 0.106666,0.14666 0.16,0.28 0.06667,0.13333 0.106666,0.26 0.12,0.38 0.01333,0.13333 -1e-6,0.24666 -0.04,0.34 -0.04,0.10666 -0.14,0.16 -0.3,0.16 -0.173333,0 -0.273333,-0.0533 -0.3,-0.16 -0.04,-0.0933 -0.04,-0.20667 0,-0.34 0.02667,-0.12 0.08,-0.24 0.16,-0.36 0.08,-0.12 0.146666,-0.22 0.2,-0.3 m 3.5,-3.92 c 0.02666,0.88 -0.05334,1.68667 -0.24,2.42 -0.333337,1.33333 -0.966669,2 -1.9,2 -0.373335,0.0133 -0.673334,-0.0467 -0.9,-0.18 -0.226667,-0.12 -0.38,-0.28667 -0.46,-0.5 -0.08,0.2 -0.246667,0.36 -0.5,0.48 -0.253333,0.13333 -0.519999,0.2 -0.8,0.2 -0.533332,0.0133 -0.899998,-0.12 -1.1,-0.4 -0.146664,-0.21334 -0.219998,-0.46 -0.22,-0.74 -0.01333,-0.28 0.02667,-0.52 0.12,-0.72 0.09334,-0.18667 0.206669,-0.32667 0.34,-0.42 0.120002,-0.08 0.226668,-0.14 0.32,-0.18 -0.02666,0.0133 -0.08666,0.0267 -0.18,0.04 -0.106665,0.0133 -0.219998,0.0333 -0.34,0.06 -0.119998,0.0267 -0.219998,0.04 -0.3,0.04 -0.08,0.0133 -0.126664,0.02 -0.14,0.02 -0.159997,0 -0.239997,-0.14 -0.24,-0.42 3e-6,-0.32 0.140003,-0.48 0.42,-0.48 0.106669,0 0.273335,0.0267 0.5,0.08 0.213335,0.0667 0.426668,0.14 0.64,0.22 0.200001,0.08 0.380001,0.17333 0.54,0.28 0.160001,0.12 0.24,0.22667 0.24,0.32 0,0.10666 -0.153333,0.16666 -0.46,0.18 -0.439999,0.04 -0.673332,0.22666 -0.7,0.56 2e-6,0.26666 0.233335,0.4 0.7,0.4 0.266667,0.0133 0.506667,-0.04 0.72,-0.16 0.2,-0.12 0.333333,-0.31334 0.4,-0.58 l 0.24,0 c 0.133333,0.49333 0.466666,0.74 1,0.74 0.333332,0 0.599998,-0.12667 0.8,-0.38 0.213331,-0.25334 0.379997,-0.57334 0.5,-0.96 0.13333,-0.38667 0.219997,-0.77333 0.26,-1.16 0.04,-0.37333 0.06,-0.68667 0.06,-0.94 -3e-6,-0.56 -0.06667,-1.07333 -0.2,-1.54 -0.120003,-0.46666 -0.306669,-0.90666 -0.56,-1.32 -0.253335,-0.41333 -0.573335,-0.74666 -0.96,-1 -0.373334,-0.25333 -0.746667,-0.38 -1.12,-0.38 -0.426666,0 -0.64,-0.11999 -0.64,-0.36 0,-0.31999 0.213334,-0.47999 0.64,-0.48 0.573333,1e-5 1.093332,0.18001 1.56,0.54 0.466664,0.34667 0.846664,0.79334 1.14,1.34 0.306663,0.54667 0.519997,1.08 0.64,1.6 0.119996,0.52 0.179996,1.11333 0.18,1.78" style="font-family:Ramaraja;-inkscape-font-specification:Ramaraja" id="path3533"></path><path d="m 50.430859,143.24 c -8e-6,1.01334 -0.200008,1.84 -0.6,2.48 -0.506673,0.85333 -1.213339,1.28 -2.12,1.28 -0.893338,0 -1.56667,-0.36667 -2.02,-1.1 -0.18667,0.33333 -0.426669,0.6 -0.72,0.8 -0.293336,0.2 -0.640002,0.3 -1.04,0.3 -0.506668,0 -0.933334,-0.2 -1.28,-0.6 -0.346666,-0.4 -0.52,-0.86 -0.52,-1.38 0,-0.49333 0.166667,-0.90666 0.5,-1.24 0.346666,-0.33333 0.766666,-0.5 1.26,-0.5 0.559998,0 0.979998,0.12667 1.26,0.38 0.29333,0.24 0.53333,0.52 0.72,0.84 0.399996,0.29334 0.839996,0.44 1.32,0.44 0.746661,0 1.339994,-0.24666 1.78,-0.74 0.453326,-0.49333 0.679993,-1.1 0.68,-1.82 -7e-6,-1.02666 -0.326673,-1.84666 -0.98,-2.46 -0.653339,-0.61333 -1.500005,-0.95999 -2.54,-1.04 0.119996,0.38667 0.13333,0.71334 0.04,0.98 -0.09334,0.26667 -0.253337,0.47334 -0.48,0.62 -0.22667,0.14667 -0.500003,0.23334 -0.82,0.26 -0.306669,0.0267 -0.593335,-0.007 -0.86,-0.1 -0.373334,-0.15999 -0.620001,-0.39333 -0.74,-0.7 -0.120001,-0.30666 -0.126667,-0.61333 -0.02,-0.92 0.119999,-0.30666 0.353332,-0.57332 0.7,-0.8 0.359998,-0.22666 0.826664,-0.33999 1.4,-0.34 0.799996,0.0133 1.513329,0.16001 2.14,0.44 0.626661,0.28001 1.153327,0.66001 1.58,1.14 0.439993,0.46667 0.773326,1.02667 1,1.68 0.239992,0.65334 0.359992,1.35334 0.36,2.1 m -4.82,-3.8 c -3e-6,-0.17333 -0.04,-0.36666 -0.12,-0.58 -0.293336,-0.11999 -0.553336,-0.0867 -0.78,0.1 -0.213335,0.17334 -0.340002,0.38667 -0.38,0.64 -0.02667,0.24001 0.06,0.40667 0.26,0.5 0.213331,0.0933 0.413331,0.10001 0.6,0.02 0.25333,-0.10666 0.39333,-0.33333 0.42,-0.68 m -0.6,5.02 c -0.186669,-0.44 -0.546669,-0.65333 -1.08,-0.64 -0.320001,0 -0.553334,0.0733 -0.7,0.22 -0.146667,0.13334 -0.220001,0.28 -0.22,0.44 -1e-6,0.16 0.07333,0.30667 0.22,0.44 0.146666,0.12 0.366666,0.18 0.66,0.18 0.253332,0 0.493331,-0.06 0.72,-0.18 0.239998,-0.12 0.373331,-0.27333 0.4,-0.46" style="font-family:Ramaraja;-inkscape-font-specification:Ramaraja" id="path3535"></path><path d="m 63.017969,141.74 c 0.02665,0.54667 -0.09334,0.96 -0.36,1.24 -0.253345,0.26667 -0.553344,0.41334 -0.9,0.44 -0.40001,0.0267 -0.706677,-0.04 -0.92,-0.2 -0.200009,-0.16 -0.340009,-0.35333 -0.42,-0.58 -0.06668,-0.22666 -0.09334,-0.44 -0.08,-0.64 0.02666,-0.21333 0.07999,-0.35999 0.16,-0.44 l -3.8,0 c -0.146672,1e-5 -0.286672,-0.0533 -0.42,-0.16 -0.133338,-0.11999 -0.200005,-0.28666 -0.2,-0.5 -5e-6,-0.30666 0.05333,-0.51999 0.16,-0.64 0.119995,-0.11999 0.353328,-0.17999 0.7,-0.18 l 3.6,-0.02 c 0.293324,1e-5 0.57999,0.0267 0.86,0.08 0.293323,0.0533 0.553323,0.14001 0.78,0.26 0.226655,0.12001 0.413322,0.29334 0.56,0.52 0.146655,0.22667 0.239988,0.50001 0.28,0.82 m -0.84,0.42 c -1.1e-5,-0.18666 -0.06668,-0.33333 -0.2,-0.44 -0.120011,-0.11999 -0.266677,-0.17999 -0.44,-0.18 -0.16001,1e-5 -0.313343,0.0467 -0.46,0.14 -0.133343,0.0933 -0.20001,0.25334 -0.2,0.48 -1e-5,0.17334 0.06666,0.31334 0.2,0.42 0.133323,0.0933 0.27999,0.14667 0.44,0.16 0.159989,0 0.306656,-0.04 0.44,-0.12 0.146656,-0.0933 0.219989,-0.24666 0.22,-0.46 m -2.84,1.54 c 0.213325,0.28 0.333325,0.60667 0.36,0.98 0.02666,0.37334 -0.04668,0.73333 -0.22,1.08 -0.160008,0.34667 -0.406675,0.64 -0.74,0.88 -0.320007,0.24 -0.726674,0.36 -1.22,0.36 -0.293339,0 -0.540006,-0.0267 -0.74,-0.08 -0.200005,-0.0667 -0.366672,-0.15333 -0.5,-0.26 -0.133338,-0.10667 -0.253338,-0.22 -0.36,-0.34 -0.106671,-0.12 -0.213338,-0.24 -0.32,-0.36 -0.186671,0.29333 -0.433337,0.54 -0.74,0.74 -0.30667,0.2 -0.76667,0.3 -1.38,0.3 -0.666668,0 -1.180001,-0.17333 -1.54,-0.52 -0.346667,-0.34667 -0.52,-0.84667 -0.52,-1.5 0,-0.38666 0.07333,-0.69333 0.22,-0.92 0.146666,-0.22666 0.339999,-0.4 0.58,-0.52 0.239999,-0.13333 0.506665,-0.24 0.8,-0.32 0.306665,-0.0933 0.613331,-0.19333 0.92,-0.3 0.359997,-0.12 0.599997,-0.26666 0.72,-0.44 0.13333,-0.17333 0.17333,-0.32666 0.12,-0.46 -0.05334,-0.14666 -0.18667,-0.27333 -0.4,-0.38 -0.200003,-0.10666 -0.453336,-0.15999 -0.76,-0.16 -0.293335,1e-5 -0.593335,0.0733 -0.9,0.22 -0.306668,0.13334 -0.486668,0.36667 -0.54,0.7 -0.08,0.28 -0.213334,0.42 -0.4,0.42 -0.24,0 -0.36,-0.20666 -0.36,-0.62 0,-0.54666 0.206666,-0.96666 0.62,-1.26 0.413332,-0.30666 0.899998,-0.45999 1.46,-0.46 0.559997,1e-5 0.986663,0.10667 1.28,0.32 0.293329,0.21334 0.566662,0.52001 0.82,0.92 0.199995,0.29334 0.446662,0.52 0.74,0.68 0.306661,0.16 0.599994,0.26667 0.88,0.32 0.293327,0.04 0.54666,0.0267 0.76,-0.04 0.213326,-0.0667 0.339993,-0.18 0.38,-0.34 0.03999,-0.17333 -0.01334,-0.34666 -0.16,-0.52 -0.146674,-0.17333 -0.39334,-0.25999 -0.74,-0.26 -0.280006,1e-5 -0.480006,-0.007 -0.6,-0.02 -0.120006,-0.0133 -0.200005,-0.0933 -0.24,-0.24 -0.04001,-0.14666 0.01333,-0.23999 0.16,-0.28 0.146661,-0.04 0.326661,-0.04 0.54,0 0.62666,0.0533 1.093326,0.22667 1.4,0.52 0.319992,0.28001 0.486659,0.58 0.5,0.9 0.01333,0.30667 -0.100008,0.59334 -0.34,0.86 -0.240007,0.25334 -0.606674,0.38 -1.1,0.38 -0.386673,0.0133 -0.793339,-0.0667 -1.22,-0.24 -0.426672,-0.18666 -0.813338,-0.52666 -1.16,-1.02 -0.06667,0.34667 -0.260004,0.58667 -0.58,0.72 -0.30667,0.13334 -0.640003,0.24667 -1,0.34 -0.346669,0.08 -0.666669,0.18 -0.96,0.3 -0.280001,0.12 -0.420001,0.33334 -0.42,0.64 -1e-6,0.26667 0.113332,0.46 0.34,0.58 0.239998,0.10667 0.486665,0.16 0.74,0.16 0.399997,0 0.779997,-0.0933 1.14,-0.28 0.373329,-0.18666 0.599996,-0.46 0.68,-0.82 0.09333,-0.34666 0.213329,-0.49333 0.36,-0.44 0.159995,0.04 0.259995,0.18667 0.3,0.44 0.05333,0.38667 0.239995,0.66667 0.56,0.84 0.333328,0.17334 0.653327,0.26 0.96,0.26 0.213327,0 0.40666,-0.0267 0.58,-0.08 0.18666,-0.0667 0.346659,-0.16 0.48,-0.28 0.133326,-0.13333 0.219992,-0.28666 0.26,-0.46 0.03999,-0.17333 0.01999,-0.36 -0.06,-0.56 l 0.56,-0.08" style="font-family:Ramaraja;-inkscape-font-specification:Ramaraja" id="path3537"></path><path d="m 57.957787,149.28063 c -0.04,0.4 -0.206664,0.82667 -0.5,1.28 0.360003,0.49333 0.540003,0.82 0.54,0.98 3e-6,0.22666 -0.133331,0.34 -0.4,0.34 -0.119997,0 -0.206664,-0.0333 -0.26,-0.1 -0.05333,-0.0667 -0.09333,-0.15334 -0.12,-0.26 -0.02666,-0.10667 -0.04666,-0.22 -0.06,-0.34 -0.02666,-0.10667 -0.05333,-0.2 -0.08,-0.28 -0.559996,0.49333 -1.246662,0.74 -2.06,0.74 -0.359994,0 -0.693327,-0.10667 -1,-0.32 -0.30666,-0.2 -0.459993,-0.47333 -0.46,-0.82 7e-6,-0.72 0.566673,-1.08 1.7,-1.08 0.573338,0 1.126671,0.19333 1.66,0.58 0.413337,-0.24 0.620003,-0.51333 0.62,-0.82 3e-6,-0.22667 -0.09333,-0.4 -0.28,-0.52 -0.199997,-0.12 -0.406663,-0.18 -0.62,-0.18 -0.173329,0 -0.366662,0.0533 -0.58,0.16 -0.133329,0.04 -0.219995,0.0933 -0.26,0.16 -0.05333,0.0667 -0.09999,0.14 -0.14,0.22 -0.02666,0.13333 -0.07333,0.2 -0.14,0.2 -0.09333,0 -0.146662,-0.06 -0.16,-0.18 -0.01333,-0.13333 -0.08,-0.27333 -0.2,-0.42 -0.133328,-0.13333 -0.346661,-0.18 -0.64,-0.14 -0.599993,0 -0.913326,0.16 -0.94,0.48 7e-6,0.10667 -0.01333,0.17333 -0.04,0.2 -0.03999,0.0267 -0.09999,0.04 -0.18,0.04 -0.119993,0 -0.179993,-0.14667 -0.18,-0.44 7e-6,-0.30667 0.120007,-0.58667 0.36,-0.84 0.226673,-0.24 0.49334,-0.36 0.8,-0.36 0.440006,0 0.840005,0.22 1.2,0.66 0.213338,-0.44 0.620004,-0.66 1.22,-0.66 0.653336,0 1.046669,0.36667 1.18,1.1 l 0.74,0 c -0.05333,-0.10667 -0.1,-0.22 -0.14,-0.34 -0.04,-0.12 -0.06667,-0.20667 -0.08,-0.26 -0.09333,-0.30667 0.05333,-0.46 0.44,-0.46 0.360001,0 0.493334,0.15333 0.4,0.46 10e-7,0.04 -0.02,0.11333 -0.06,0.22 -0.05333,0.10667 -0.126665,0.23333 -0.22,0.38 l 0.54,0 c 0.160001,0 0.240001,0.1 0.24,0.3 10e-7,0.21333 -0.08,0.32 -0.24,0.32 l -1.6,0 m -1.44,0.96 c -0.359996,-0.30667 -0.806662,-0.46 -1.34,-0.46 -0.639994,0 -0.959994,0.11333 -0.96,0.34 6e-6,0.2 0.326673,0.3 0.98,0.3 0.586671,0 1.026671,-0.06 1.32,-0.18" style="font-family:Ramaraja;-inkscape-font-specification:Ramaraja" id="path3539"></path><path d="m 70.923516,138.44 c -0.520007,0.34667 -1.046673,0.70667 -1.58,1.08 -0.533338,0.36001 -1.073338,0.69334 -1.62,1 -0.09334,0.04 -0.173337,0.0867 -0.24,0.14 -0.06667,0.0533 -0.14667,0.0933 -0.24,0.12 -0.05334,0.04 -0.140003,0.0533 -0.26,0.04 -0.120003,-0.0267 -0.20667,-0.0533 -0.26,-0.08 -0.186669,-0.0667 -0.406669,-0.14666 -0.66,-0.24 -0.253335,-0.10666 -0.493335,-0.21999 -0.72,-0.34 -0.226668,-0.13333 -0.420001,-0.27999 -0.58,-0.44 -0.160001,-0.15999 -0.240001,-0.33333 -0.24,-0.52 -10e-7,-0.21333 0.08,-0.39999 0.24,-0.56 0.159999,-0.15999 0.366665,-0.22666 0.62,-0.2 0.186665,0.0267 0.353331,0.10001 0.5,0.22 0.159998,0.12001 0.306664,0.26667 0.44,0.44 0.146664,0.16001 0.27333,0.32001 0.38,0.48 0.119997,0.16001 0.23333,0.30001 0.34,0.42 0.29333,-0.25333 0.559996,-0.49333 0.8,-0.72 0.239996,-0.23999 0.479995,-0.47333 0.72,-0.7 0.253328,-0.22666 0.506661,-0.45999 0.76,-0.7 0.266661,-0.23999 0.559994,-0.51332 0.88,-0.82 0.253327,-0.21332 0.48666,-0.29999 0.7,-0.26 0.226659,0.0267 0.413326,0.11334 0.56,0.26 0.199992,0.28001 0.219992,0.53334 0.06,0.76 -0.146674,0.22668 -0.346674,0.43334 -0.6,0.62 m -2.6,1.86 c 0.693328,0.0267 1.306661,0.16667 1.84,0.42 0.54666,0.24001 0.979993,0.56667 1.3,0.98 0.333325,0.4 0.539992,0.89334 0.62,1.48 0.09332,0.57334 0.02666,1.21334 -0.2,1.92 -0.173341,0.53333 -0.446674,0.98667 -0.82,1.36 -0.37334,0.36 -0.840006,0.54 -1.4,0.54 -0.453339,0 -0.820005,-0.0933 -1.1,-0.28 -0.266671,-0.2 -0.500004,-0.42667 -0.7,-0.68 -0.120004,-0.17333 -0.260004,-0.41333 -0.42,-0.72 -0.160004,-0.30666 -0.34667,-0.58666 -0.56,-0.84 -0.213336,-0.26666 -0.440003,-0.47333 -0.68,-0.62 -0.240002,-0.14666 -0.500002,-0.14666 -0.78,0 -0.226668,0.12 -0.346668,0.33334 -0.36,0.64 -1e-6,0.29334 0.173332,0.58667 0.52,0.88 0.226665,0.2 0.446664,0.38 0.66,0.54 0.213331,0.14667 0.279997,0.36 0.2,0.64 -0.09334,0.24 -0.266669,0.38 -0.52,0.42 -0.240002,0.0267 -0.500002,-0.0267 -0.78,-0.16 -0.266668,-0.13333 -0.506668,-0.35333 -0.72,-0.66 -0.213334,-0.30667 -0.32,-0.66667 -0.32,-1.08 0,-0.50666 0.1,-0.89333 0.3,-1.16 0.213332,-0.28 0.479999,-0.47333 0.8,-0.58 0.386665,-0.12 0.793331,-0.1 1.22,0.06 0.426664,0.14667 0.799997,0.37334 1.12,0.68 0.386662,0.42667 0.719995,0.71334 1,0.86 0.293328,0.14667 0.599995,0.20667 0.92,0.18 0.493327,-0.0133 0.88666,-0.18 1.18,-0.5 0.306659,-0.32 0.479993,-0.69333 0.52,-1.12 0.05333,-0.44 -0.02667,-0.87333 -0.24,-1.3 -0.21334,-0.42666 -0.57334,-0.73999 -1.08,-0.94 -0.346672,-0.15999 -0.733339,-0.26666 -1.16,-0.32 -0.413338,-0.0533 -0.820004,-0.0867 -1.22,-0.1 -0.14667,-0.0133 -0.280003,-0.02 -0.4,-0.02 -0.120003,1e-5 -0.220003,-0.02 -0.3,-0.06 -0.160003,-0.0667 -0.226669,-0.12666 -0.2,-0.18 0.04,-0.0667 0.11333,-0.12666 0.22,-0.18 0.106664,-0.0533 0.219997,-0.0933 0.34,-0.12 0.13333,-0.0267 0.226663,-0.04 0.28,-0.04 0.173329,1e-5 0.333329,0.007 0.48,0.02 0.146662,1e-5 0.293329,0.0133 0.44,0.04" style="font-family:Ramaraja;-inkscape-font-specification:Ramaraja" id="path3541"></path><path d="m 82.603125,138.68 c -0.626672,0.44001 -1.273338,0.86667 -1.94,1.28 -0.653337,0.41334 -1.32667,0.79334 -2.02,1.14 -0.133336,-0.0533 -0.340002,-0.12666 -0.62,-0.22 -0.266668,-0.0933 -0.533335,-0.21333 -0.8,-0.36 -0.266667,-0.14666 -0.506667,-0.31333 -0.72,-0.5 -0.2,-0.18666 -0.3,-0.37999 -0.3,-0.58 0,-0.21333 0.08,-0.39999 0.24,-0.56 0.173333,-0.17333 0.379999,-0.23999 0.62,-0.2 0.186666,0.0133 0.359999,0.0867 0.52,0.22 0.159998,0.12001 0.306665,0.26001 0.44,0.42 0.133331,0.16001 0.253331,0.32667 0.36,0.5 0.119998,0.16001 0.233331,0.30001 0.34,0.42 0.293331,-0.25333 0.559997,-0.49999 0.8,-0.74 0.25333,-0.23999 0.499996,-0.46666 0.74,-0.68 0.239996,-0.22666 0.486662,-0.45999 0.74,-0.7 0.253328,-0.25332 0.539995,-0.52666 0.86,-0.82 0.266661,-0.22666 0.513327,-0.31999 0.74,-0.28 0.22666,0.0267 0.40666,0.12001 0.54,0.28 0.213326,0.28001 0.239993,0.53334 0.08,0.76 -0.160007,0.22668 -0.366673,0.43334 -0.62,0.62 m -1.14,1.66 c 0.359994,0.04 0.713327,0.14667 1.06,0.32 0.359993,0.17334 0.66666,0.40667 0.92,0.7 0.266659,0.29334 0.466659,0.64667 0.6,1.06 0.146659,0.4 0.199992,0.86 0.16,1.38 -0.02667,0.34667 -0.100008,0.71334 -0.22,1.1 -0.106674,0.37334 -0.266674,0.72 -0.48,1.04 -0.200007,0.30667 -0.460007,0.56 -0.78,0.76 -0.306673,0.2 -0.666673,0.3 -1.08,0.3 -0.546672,0 -0.986671,-0.17333 -1.32,-0.52 -0.320004,-0.34667 -0.600004,-0.72667 -0.84,-1.14 -0.240003,-0.41333 -0.473336,-0.78666 -0.7,-1.12 -0.213336,-0.34666 -0.460002,-0.51333 -0.74,-0.5 -0.226668,0.0267 -0.400001,0.0867 -0.52,0.18 -0.120001,0.0933 -0.200001,0.21334 -0.24,0.36 -0.02667,0.13334 -0.01333,0.28 0.04,0.44 0.05333,0.14667 0.139999,0.3 0.26,0.46 0.106665,0.10667 0.219998,0.21333 0.34,0.32 0.133331,0.10667 0.253331,0.21333 0.36,0.32 0.119998,0.10667 0.206664,0.22 0.26,0.34 0.05333,0.12 0.04666,0.24 -0.02,0.36 -0.09334,0.14667 -0.213335,0.25333 -0.36,0.32 -0.146668,0.0667 -0.286668,0.1 -0.42,0.1 -0.226668,0 -0.433334,-0.06 -0.62,-0.18 -0.186667,-0.12 -0.346667,-0.27333 -0.48,-0.46 -0.133334,-0.2 -0.24,-0.40667 -0.32,-0.62 -0.08,-0.21333 -0.12,-0.42666 -0.12,-0.64 0,-0.58666 0.133333,-1.03333 0.4,-1.34 0.266666,-0.32 0.579999,-0.51333 0.94,-0.58 0.373332,-0.0667 0.753331,-0.0133 1.14,0.16 0.386664,0.17334 0.71333,0.44 0.98,0.8 0.239996,0.36 0.539996,0.63334 0.9,0.82 0.373329,0.18667 0.679995,0.28 0.92,0.28 0.413328,0 0.759994,-0.0933 1.04,-0.28 0.293327,-0.18666 0.50666,-0.41333 0.64,-0.68 0.14666,-0.28 0.219993,-0.58666 0.22,-0.92 0.01333,-0.33333 -0.04667,-0.64666 -0.18,-0.94 -0.120007,-0.29333 -0.320007,-0.53999 -0.6,-0.74 -0.280006,-0.21333 -0.626672,-0.33999 -1.04,-0.38 -0.293338,-0.0267 -0.493338,-0.0667 -0.6,-0.12 -0.09334,-0.0667 -0.140005,-0.17999 -0.14,-0.34 -5e-6,-0.33333 0.213328,-0.47333 0.64,-0.42" style="font-family:Ramaraja;-inkscape-font-specification:Ramaraja" id="path3543"></path><path d="m 92.635859,138.68 c -0.546673,0.38667 -1.100006,0.77334 -1.66,1.16 -0.560005,0.37334 -1.140004,0.72667 -1.74,1.06 -0.26667,0.13334 -0.480003,0.18667 -0.64,0.16 -0.160003,-0.04 -0.320003,-0.10666 -0.48,-0.2 -0.173336,-0.10666 -0.373335,-0.20666 -0.6,-0.3 -0.213335,-0.10666 -0.413335,-0.21333 -0.6,-0.32 -0.186668,-0.11999 -0.346668,-0.24666 -0.48,-0.38 -0.133334,-0.13333 -0.200001,-0.27333 -0.2,-0.42 -1e-6,-0.21333 0.08,-0.39999 0.24,-0.56 0.173332,-0.17333 0.379999,-0.23999 0.62,-0.2 0.199998,0.0133 0.373331,0.0867 0.52,0.22 0.159998,0.12001 0.306664,0.26001 0.44,0.42 0.146664,0.16001 0.273331,0.32667 0.38,0.5 0.119997,0.17334 0.226664,0.32001 0.32,0.44 0.306663,-0.26666 0.579996,-0.51999 0.82,-0.76 0.239996,-0.23999 0.479996,-0.46666 0.72,-0.68 0.239995,-0.22666 0.486662,-0.45999 0.74,-0.7 0.253328,-0.25332 0.546661,-0.52666 0.88,-0.82 0.253327,-0.22666 0.493327,-0.31999 0.72,-0.28 0.226659,0.0267 0.406659,0.12001 0.54,0.28 0.213326,0.28001 0.239992,0.53334 0.08,0.76 -0.146674,0.22668 -0.353341,0.43334 -0.62,0.62 m -0.36,5.02 c -7e-6,1.04 -0.320006,1.85333 -0.96,2.44 -0.626672,0.57333 -1.460004,0.86 -2.5,0.86 -0.480003,0 -0.940002,-0.0733 -1.38,-0.22 -0.426668,-0.14667 -0.800001,-0.35333 -1.12,-0.62 -0.32,-0.26667 -0.58,-0.6 -0.78,-1 -0.186666,-0.4 -0.28,-0.86 -0.28,-1.38 0,-0.90666 0.34,-1.68666 1.02,-2.34 0.346666,-0.31999 0.713332,-0.55999 1.1,-0.72 0.399998,-0.15999 0.839997,-0.23999 1.32,-0.24 0.933329,1e-5 1.753329,0.32001 2.46,0.96 0.74666,0.65334 1.119993,1.40667 1.12,2.26 m -1.1,-0.58 c -6e-6,-0.32 -0.06667,-0.60666 -0.2,-0.86 -0.133339,-0.26666 -0.320005,-0.48666 -0.56,-0.66 -0.240005,-0.17333 -0.513338,-0.30666 -0.82,-0.4 -0.293337,-0.10666 -0.58667,-0.15999 -0.88,-0.16 -0.293336,1e-5 -0.586669,0.0533 -0.88,0.16 -0.293335,0.0933 -0.566668,0.23334 -0.82,0.42 -0.240001,0.17334 -0.433334,0.39334 -0.58,0.66 -0.146667,0.25334 -0.220001,0.53334 -0.22,0.84 -10e-7,0.29334 0.07333,0.56667 0.22,0.82 0.146666,0.24 0.333332,0.44667 0.56,0.62 0.239998,0.17334 0.506665,0.30667 0.8,0.4 0.293331,0.0933 0.593331,0.14 0.9,0.14 0.306663,0 0.606663,-0.04 0.9,-0.12 0.293329,-0.0933 0.553329,-0.22 0.78,-0.38 0.239995,-0.17333 0.426661,-0.38 0.56,-0.62 0.146661,-0.24 0.226661,-0.52666 0.24,-0.86" style="font-family:Ramaraja;-inkscape-font-specification:Ramaraja" id="path3545"></path><path d="m 94.203203,145.72 c 0.199999,0.22667 0.406665,0.48 0.62,0.76 0.213332,0.26667 0.393332,0.54 0.54,0.82 0.146665,0.29333 0.246664,0.60667 0.3,0.94 0.06666,0.34667 0.04,0.71333 -0.08,1.1 -0.09333,0.30666 -0.220002,0.57333 -0.38,0.8 -0.146668,0.24 -0.393335,0.42 -0.74,0.54 -0.253334,0.10666 -0.520001,0.11333 -0.8,0.02 -0.28,-0.0933 -0.513333,-0.27334 -0.7,-0.54 -0.119999,0.2 -0.273333,0.35333 -0.46,0.46 -0.186666,0.12 -0.406665,0.18 -0.66,0.18 -0.319998,0 -0.573331,-0.12 -0.76,-0.36 -0.199997,-0.24 -0.299997,-0.54 -0.3,-0.9 3e-6,-0.30667 0.100003,-0.55334 0.3,-0.74 0.186669,-0.17333 0.400002,-0.28667 0.64,-0.34 0.226668,-0.04 0.460001,-0.02 0.7,0.06 0.240001,0.0933 0.406667,0.24666 0.5,0.46 0.146667,0.45333 0.453333,0.68 0.92,0.68 0.293333,0 0.539999,-0.12667 0.74,-0.38 0.199999,-0.25334 0.299999,-0.52667 0.3,-0.82 -10e-7,-0.17333 -0.01333,-0.34 -0.04,-0.5 -0.02667,-0.16 -0.08667,-0.33333 -0.18,-0.52 -0.08,-0.17333 -0.200001,-0.38 -0.36,-0.62 -0.146667,-0.24 -0.360001,-0.52667 -0.64,-0.86 -0.346667,-0.38667 -0.593333,-0.82666 -0.74,-1.32 -0.159999,-0.50666 -0.226666,-1.00666 -0.2,-1.5 0.04,-0.53333 0.2,-0.97333 0.48,-1.32 0.266667,-0.35999 0.68,-0.53999 1.24,-0.54 0.466665,1e-5 0.846665,0.17334 1.14,0.52 0.293331,0.33334 0.439997,0.72667 0.44,1.18 -3e-6,0.36 -0.113336,0.67334 -0.34,0.94 -0.226669,0.25334 -0.526668,0.38 -0.9,0.38 -0.173335,0.04 -0.340001,0.0267 -0.5,-0.04 -0.146667,-0.08 -0.220001,-0.22666 -0.22,-0.44 -10e-7,-0.14666 0.07333,-0.25333 0.22,-0.32 0.146666,-0.0667 0.279999,-0.1 0.4,-0.1 0.239998,0 0.406665,-0.08 0.5,-0.24 0.106665,-0.16 0.146665,-0.35333 0.12,-0.58 -0.01333,-0.22666 -0.09333,-0.40666 -0.24,-0.54 -0.146668,-0.14666 -0.333335,-0.21999 -0.56,-0.22 -0.453334,1e-5 -0.773334,0.14001 -0.96,0.42 -0.186667,0.28 -0.28,0.6 -0.28,0.96 0,0.58667 0.1,1.08 0.3,1.48 0.2,0.38667 0.413333,0.73333 0.64,1.04 m -1.72,3.6 c -0.08,-0.10667 -0.173332,-0.19334 -0.28,-0.26 -0.119999,-0.0533 -0.226665,-0.08 -0.32,-0.08 -0.106665,0 -0.193332,0.0333 -0.26,0.1 -0.08,0.0667 -0.119998,0.14666 -0.12,0.24 2e-6,0.16 0.04667,0.26 0.14,0.3 0.08,0.0533 0.186668,0.0733 0.32,0.06 0.120001,0 0.233335,-0.04 0.34,-0.12 0.09333,-0.0667 0.153334,-0.14667 0.18,-0.24" style="font-family:Ramaraja;-inkscape-font-specification:Ramaraja" id="path3547"></path><path d="m 102.93516,138.68 c -0.62668,0.44001 -1.27334,0.86667 -1.94,1.28 -0.65334,0.41334 -1.326674,0.79334 -2.020004,1.14 -0.133335,-0.0533 -0.340002,-0.12666 -0.62,-0.22 -0.266668,-0.0933 -0.533334,-0.21333 -0.8,-0.36 -0.266667,-0.14666 -0.506667,-0.31333 -0.72,-0.5 -0.2,-0.18666 -0.3,-0.37999 -0.3,-0.58 0,-0.21333 0.08,-0.39999 0.24,-0.56 0.173333,-0.17333 0.38,-0.23999 0.62,-0.2 0.186666,0.0133 0.359999,0.0867 0.52,0.22 0.159999,0.12001 0.306665,0.26001 0.44,0.42 0.133332,0.16001 0.253332,0.32667 0.36,0.5 0.119998,0.16001 0.233331,0.30001 0.34,0.42 0.293331,-0.25333 0.559997,-0.49999 0.8,-0.74 0.253334,-0.23999 0.499994,-0.46666 0.740004,-0.68 0.23999,-0.22666 0.48666,-0.45999 0.74,-0.7 0.25332,-0.25332 0.53999,-0.52666 0.86,-0.82 0.26666,-0.22666 0.51332,-0.31999 0.74,-0.28 0.22666,0.0267 0.40666,0.12001 0.54,0.28 0.21332,0.28001 0.23999,0.53334 0.08,0.76 -0.16001,0.22668 -0.36668,0.43334 -0.62,0.62 m -1.14,1.66 c 0.35999,0.04 0.71332,0.14667 1.06,0.32 0.35999,0.17334 0.66666,0.40667 0.92,0.7 0.26666,0.29334 0.46666,0.64667 0.6,1.06 0.14665,0.4 0.19999,0.86 0.16,1.38 -0.0267,0.34667 -0.10001,0.71334 -0.22,1.1 -0.10668,0.37334 -0.26668,0.72 -0.48,1.04 -0.20001,0.30667 -0.46001,0.56 -0.78,0.76 -0.30668,0.2 -0.66668,0.3 -1.08,0.3 -0.54668,0 -0.98667,-0.17333 -1.32,-0.52 -0.32001,-0.34667 -0.60001,-0.72667 -0.840004,-1.14 -0.240003,-0.41333 -0.473336,-0.78666 -0.7,-1.12 -0.213335,-0.34666 -0.460002,-0.51333 -0.74,-0.5 -0.226668,0.0267 -0.400001,0.0867 -0.52,0.18 -0.120001,0.0933 -0.200001,0.21334 -0.24,0.36 -0.02667,0.13334 -0.01333,0.28 0.04,0.44 0.05333,0.14667 0.139999,0.3 0.26,0.46 0.106665,0.10667 0.219999,0.21333 0.34,0.32 0.133332,0.10667 0.253332,0.21333 0.36,0.32 0.119998,0.10667 0.206665,0.22 0.26,0.34 0.05333,0.12 0.04666,0.24 -0.02,0.36 -0.09333,0.14667 -0.213335,0.25333 -0.36,0.32 -0.146668,0.0667 -0.286668,0.1 -0.42,0.1 -0.226668,0 -0.433334,-0.06 -0.62,-0.18 -0.186667,-0.12 -0.346667,-0.27333 -0.48,-0.46 -0.133333,-0.2 -0.24,-0.40667 -0.32,-0.62 -0.08,-0.21333 -0.12,-0.42666 -0.12,-0.64 0,-0.58666 0.133333,-1.03333 0.4,-1.34 0.266666,-0.32 0.579999,-0.51333 0.94,-0.58 0.373332,-0.0667 0.753331,-0.0133 1.14,0.16 0.386664,0.17334 0.71333,0.44 0.98,0.8 0.239994,0.36 0.539994,0.63334 0.900004,0.82 0.37332,0.18667 0.67999,0.28 0.92,0.28 0.41332,0 0.75999,-0.0933 1.04,-0.28 0.29332,-0.18666 0.50666,-0.41333 0.64,-0.68 0.14666,-0.28 0.21999,-0.58666 0.22,-0.92 0.0133,-0.33333 -0.0467,-0.64666 -0.18,-0.94 -0.12001,-0.29333 -0.32001,-0.53999 -0.6,-0.74 -0.28001,-0.21333 -0.62668,-0.33999 -1.04,-0.38 -0.29334,-0.0267 -0.49334,-0.0667 -0.6,-0.12 -0.0933,-0.0667 -0.14001,-0.17999 -0.14,-0.34 -10e-6,-0.33333 0.21332,-0.47333 0.64,-0.42" style="font-family:Ramaraja;-inkscape-font-specification:Ramaraja" id="path3549"></path><path d="m 106.50789,145.72 c 0.2,0.22667 0.40667,0.48 0.62,0.76 0.21333,0.26667 0.39333,0.54 0.54,0.82 0.14667,0.29333 0.24666,0.60667 0.3,0.94 0.0667,0.34667 0.04,0.71333 -0.08,1.1 -0.0933,0.30666 -0.22,0.57333 -0.38,0.8 -0.14667,0.24 -0.39333,0.42 -0.74,0.54 -0.25333,0.10666 -0.52,0.11333 -0.8,0.02 -0.28,-0.0933 -0.51333,-0.27334 -0.7,-0.54 -0.12,0.2 -0.27333,0.35333 -0.46,0.46 -0.18667,0.12 -0.40666,0.18 -0.66,0.18 -0.32,0 -0.57333,-0.12 -0.76,-0.36 -0.2,-0.24 -0.3,-0.54 -0.3,-0.9 0,-0.30667 0.1,-0.55334 0.3,-0.74 0.18667,-0.17333 0.4,-0.28667 0.64,-0.34 0.22667,-0.04 0.46,-0.02 0.7,0.06 0.24,0.0933 0.40667,0.24666 0.5,0.46 0.14667,0.45333 0.45333,0.68 0.92,0.68 0.29333,0 0.54,-0.12667 0.74,-0.38 0.2,-0.25334 0.3,-0.52667 0.3,-0.82 0,-0.17333 -0.0133,-0.34 -0.04,-0.5 -0.0267,-0.16 -0.0867,-0.33333 -0.18,-0.52 -0.08,-0.17333 -0.2,-0.38 -0.36,-0.62 -0.14667,-0.24 -0.36,-0.52667 -0.64,-0.86 -0.34667,-0.38667 -0.59333,-0.82666 -0.74,-1.32 -0.16,-0.50666 -0.22667,-1.00666 -0.2,-1.5 0.04,-0.53333 0.2,-0.97333 0.48,-1.32 0.26667,-0.35999 0.68,-0.53999 1.24,-0.54 0.46667,1e-5 0.84667,0.17334 1.14,0.52 0.29333,0.33334 0.44,0.72667 0.44,1.18 0,0.36 -0.11334,0.67334 -0.34,0.94 -0.22667,0.25334 -0.52667,0.38 -0.9,0.38 -0.17333,0.04 -0.34,0.0267 -0.5,-0.04 -0.14667,-0.08 -0.22,-0.22666 -0.22,-0.44 0,-0.14666 0.0733,-0.25333 0.22,-0.32 0.14667,-0.0667 0.28,-0.1 0.4,-0.1 0.24,0 0.40667,-0.08 0.5,-0.24 0.10667,-0.16 0.14667,-0.35333 0.12,-0.58 -0.0133,-0.22666 -0.0933,-0.40666 -0.24,-0.54 -0.14667,-0.14666 -0.33333,-0.21999 -0.56,-0.22 -0.45333,1e-5 -0.77333,0.14001 -0.96,0.42 -0.18667,0.28 -0.28,0.6 -0.28,0.96 0,0.58667 0.1,1.08 0.3,1.48 0.2,0.38667 0.41333,0.73333 0.64,1.04 m -1.72,3.6 c -0.08,-0.10667 -0.17333,-0.19334 -0.28,-0.26 -0.12,-0.0533 -0.22666,-0.08 -0.32,-0.08 -0.10666,0 -0.19333,0.0333 -0.26,0.1 -0.08,0.0667 -0.12,0.14666 -0.12,0.24 0,0.16 0.0467,0.26 0.14,0.3 0.08,0.0533 0.18667,0.0733 0.32,0.06 0.12,0 0.23334,-0.04 0.34,-0.12 0.0933,-0.0667 0.15333,-0.14667 0.18,-0.24" style="font-family:Ramaraja;-inkscape-font-specification:Ramaraja" id="path3551"></path><path d="m 115.77984,138.56 c -0.57334,0.38667 -1.15334,0.76667 -1.74,1.14 -0.57333,0.37334 -1.16,0.72667 -1.76,1.06 -0.26667,0.13334 -0.47333,0.19334 -0.62,0.18 -0.13333,-0.0267 -0.27333,-0.0867 -0.42,-0.18 -0.17333,-0.10666 -0.37333,-0.20666 -0.6,-0.3 -0.21333,-0.10666 -0.41333,-0.21333 -0.6,-0.32 -0.17333,-0.11999 -0.32666,-0.24666 -0.46,-0.38 -0.13333,-0.13333 -0.2,-0.27333 -0.2,-0.42 0,-0.21333 0.08,-0.40666 0.24,-0.58 0.17334,-0.17332 0.38,-0.23999 0.62,-0.2 0.18667,0.0267 0.36,0.10001 0.52,0.22 0.16,0.12001 0.3,0.26001 0.42,0.42 0.13333,0.16001 0.25333,0.32667 0.36,0.5 0.12,0.17334 0.23333,0.32001 0.34,0.44 0.29333,-0.27999 0.56667,-0.53333 0.82,-0.76 0.25333,-0.23999 0.49333,-0.47333 0.72,-0.7 0.24,-0.22666 0.48667,-0.45332 0.74,-0.68 0.26666,-0.23999 0.56666,-0.50666 0.9,-0.8 0.24,-0.23999 0.47333,-0.33999 0.7,-0.3 0.24,0.0267 0.42,0.12668 0.54,0.3 0.21333,0.28001 0.24666,0.53334 0.1,0.76 -0.14667,0.22668 -0.35334,0.42668 -0.62,0.6 m 1.1,5.38 c 0,0.84 -0.22667,1.54 -0.68,2.1 -0.45334,0.56 -1.11334,0.88 -1.98,0.96 -0.10667,0 -0.25333,-0.0133 -0.44,-0.04 -0.18667,-0.0267 -0.38,-0.0733 -0.58,-0.14 -0.2,-0.0667 -0.38667,-0.16667 -0.56,-0.3 -0.17333,-0.14667 -0.29333,-0.33333 -0.36,-0.56 -0.04,0.21333 -0.12667,0.38667 -0.26,0.52 -0.13333,0.13333 -0.28,0.24 -0.44,0.32 -0.16,0.08 -0.32667,0.13333 -0.5,0.16 -0.17333,0.0267 -0.33333,0.04 -0.48,0.04 -0.54666,-0.04 -0.98,-0.24 -1.3,-0.6 -0.30666,-0.37333 -0.46,-0.84667 -0.46,-1.42 0,-0.52 0.16,-0.93333 0.48,-1.24 0.33334,-0.30666 0.76,-0.46 1.28,-0.46 0.45333,0 0.83333,0.1 1.14,0.3 0.32,0.2 0.54,0.49334 0.66,0.88 0.0933,0.25334 0.3,0.42667 0.62,0.52 0.32,0.0933 0.63333,0.14 0.94,0.14 0.28,0 0.55333,-0.0333 0.82,-0.1 0.26666,-0.08 0.5,-0.2 0.7,-0.36 0.2,-0.16 0.35333,-0.34666 0.46,-0.56 0.10666,-0.22666 0.14666,-0.49333 0.12,-0.8 -0.0267,-0.36 -0.16667,-0.68666 -0.42,-0.98 -0.24,-0.29333 -0.55334,-0.53999 -0.94,-0.74 -0.38667,-0.21333 -0.83333,-0.37333 -1.34,-0.48 -0.50667,-0.11999 -1.03333,-0.17999 -1.58,-0.18 -0.16,1e-5 -0.24,-0.02 -0.24,-0.06 0,-0.0533 0.02,-0.11999 0.06,-0.2 0.0267,-0.0933 0.18667,-0.13999 0.48,-0.14 0.92,1e-5 1.68667,0.0733 2.3,0.22 0.62666,0.14667 1.12,0.36667 1.48,0.66 0.36,0.28001 0.62,0.63334 0.78,1.06 0.16,0.42667 0.24,0.92 0.24,1.48 m -6.24,1.22 c 0.36,0 0.61333,-0.0667 0.76,-0.2 0.16,-0.14666 0.23333,-0.3 0.22,-0.46 -0.0133,-0.17333 -0.11333,-0.32666 -0.3,-0.46 -0.18667,-0.14666 -0.42666,-0.22 -0.72,-0.22 -0.29333,0 -0.52,0.0733 -0.68,0.22 -0.16,0.13334 -0.24666,0.28667 -0.26,0.46 -0.0133,0.16 0.06,0.31334 0.22,0.46 0.16,0.13334 0.41334,0.2 0.76,0.2 m 15.48,-1.14 c -1e-5,0.36 -0.0533,0.72 -0.16,1.08 -0.0934,0.34667 -0.24668,0.66667 -0.46,0.96 -0.20001,0.28 -0.46001,0.50667 -0.78,0.68 -0.30668,0.17333 -0.66001,0.26 -1.06,0.26 -0.57334,0 -1.06668,-0.14667 -1.48,-0.44 -0.40001,-0.30667 -0.69334,-0.70667 -0.88,-1.2 -0.14668,0.49333 -0.44667,0.89333 -0.9,1.2 -0.44001,0.29333 -0.90667,0.44 -1.4,0.44 -0.36001,0 -0.70001,-0.0667 -1.02,-0.2 -0.30667,-0.14667 -0.58,-0.33333 -0.82,-0.56 -0.22667,-0.24 -0.42,-0.49333 -0.58,-0.76 -0.14667,-0.26666 -0.22,-0.58 -0.22,-0.94 l 0.12,-0.52 c 0.04,-0.08 0.0867,-0.16666 0.14,-0.26 0.0533,-0.0933 0.12,-0.2 0.2,-0.32 0.0133,0.08 0.02,0.16 0.02,0.24 l 0,0.4 c 0.0267,0.2 0.1,0.37334 0.22,0.52 0.12,0.13334 0.26,0.24 0.42,0.32 0.17333,0.0667 0.37333,0.12667 0.6,0.18 0.23999,0.04 0.45999,0.06 0.66,0.06 0.23999,0 0.47999,-0.0467 0.72,-0.14 0.25333,-0.10666 0.47333,-0.23333 0.66,-0.38 0.18666,-0.16 0.33999,-0.34666 0.46,-0.56 0.13333,-0.21333 0.19999,-0.45333 0.2,-0.72 -10e-6,-0.30666 -0.10001,-0.58 -0.3,-0.82 -0.18667,-0.25333 -0.41334,-0.45333 -0.68,-0.6 -0.26667,-0.15999 -0.56001,-0.26666 -0.88,-0.32 -0.30667,-0.0667 -0.58001,-0.0867 -0.82,-0.06 -0.10667,0.0267 -0.20001,0.0133 -0.28,-0.04 -0.08,-0.0667 -0.14001,-0.13999 -0.18,-0.22 -0.04,-0.08 -0.0733,-0.15999 -0.1,-0.24 -0.0267,-0.08 -0.04,-0.14666 -0.04,-0.2 0,-0.18666 0.0467,-0.30666 0.14,-0.36 0.10666,-0.0667 0.29333,-0.1 0.56,-0.1 0.39999,1e-5 0.81999,0.0933 1.26,0.28 0.43999,0.18667 0.81999,0.45334 1.14,0.8 0.23999,0.26667 0.40666,0.54 0.5,0.82 0.10666,0.28 0.18666,0.55334 0.24,0.82 0.0667,0.26667 0.11999,0.52 0.16,0.76 0.0533,0.24 0.13999,0.45334 0.26,0.64 0.13332,0.18667 0.31999,0.34 0.56,0.46 0.25332,0.12 0.60666,0.18 1.06,0.18 0.51999,0 0.98665,-0.17333 1.4,-0.52 0.41332,-0.34666 0.61999,-0.77333 0.62,-1.28 -1e-5,-0.30666 -0.0934,-0.58 -0.28,-0.82 -0.17335,-0.25333 -0.40001,-0.45333 -0.68,-0.6 -0.26668,-0.15999 -0.55334,-0.26666 -0.86,-0.32 -0.30668,-0.0667 -0.59334,-0.0867 -0.86,-0.06 -0.20001,0.04 -0.35334,-0.0267 -0.46,-0.2 -0.10668,-0.18666 -0.16001,-0.35333 -0.16,-0.5 -1e-5,-0.30666 0.25332,-0.45999 0.76,-0.46 0.47999,1e-5 0.91999,0.10001 1.32,0.3 0.41332,0.20001 0.75999,0.46667 1.04,0.8 0.29332,0.32001 0.51332,0.7 0.66,1.14 0.15999,0.42667 0.23999,0.88667 0.24,1.38" style="font-family:Ramaraja;-inkscape-font-specification:Ramaraja" id="path3553"></path></g>




</g></svg>
