<?xml version="1.0" encoding="UTF-8" standalone="no"?>
<svg
	xmlns="http://www.w3.org/2000/svg"
	xmlns:dc="http://purl.org/dc/elements/1.1/"
	xmlns:cc="http://creativecommons.org/ns#"
	xmlns:rdf="http://www.w3.org/1999/02/22-rdf-syntax-ns#"
	xmlns:svg="http://www.w3.org/2000/svg"
	xmlns:xlink="http://www.w3.org/1999/xlink"
	xmlns:sodipodi="http://sodipodi.sourceforge.net/DTD/sodipodi-0.dtd"
	xmlns:inkscape="http://www.inkscape.org/namespaces/inkscape"
	version="1.1"
	viewBox="0 0 135px 155px">
	<svg xmlns:dc="http://purl.org/dc/elements/1.1/" xmlns:cc="http://creativecommons.org/ns#" xmlns:rdf="http://www.w3.org/1999/02/22-rdf-syntax-ns#" xmlns:svg="http://www.w3.org/2000/svg" xmlns:xlink="http://www.w3.org/1999/xlink" xmlns:sodipodi="http://sodipodi.sourceforge.net/DTD/sodipodi-0.dtd" xmlns:inkscape="http://www.inkscape.org/namespaces/inkscape" version="1.1" x="0px" y="0px" width="135px" height="155px" viewBox="0 0 135 155" enable-background="new 0 0 135 155" xml:space="preserve" id="svg3857" inkscape:version="0.47 r22583" sodipodi:docname="Wikipedia-logo-v2-de.svg" xmlns:svgjs="http://svgjs.com/svgjs"><metadata id="metadata4852"><rdf:RDF><cc:Work rdf:about=""><dc:format>image/svg+xml</dc:format><dc:type rdf:resource="http://purl.org/dc/dcmitype/StillImage"></dc:type><dc:title></dc:title></cc:Work></rdf:RDF></metadata><defs id="defs4850"><inkscape:perspective sodipodi:type="inkscape:persp3d" inkscape:vp_x="0 : 77.5 : 1" inkscape:vp_y="0 : 1000 : 0" inkscape:vp_z="135 : 77.5 : 1" inkscape:persp3d-origin="67.5 : 51.666667 : 1" id="perspective4854"></inkscape:perspective>
	
		<radialGradient gradientUnits="userSpaceOnUse" gradientTransform="matrix(1,0,0,-1,192.3999,143.0996)" r="68.686401" cy="87.823196" cx="-145.4702" id="SVGID_1_">
		<stop id="stop3922" offset="0" style="stop-color:#FFFFFF"></stop>
		<stop id="stop3924" offset="0.4835" style="stop-color:#EAEAEB"></stop>
		<stop id="stop3926" offset="0.9451" style="stop-color:#A9ABAE"></stop>
		<stop id="stop3928" offset="1" style="stop-color:#999B9E"></stop>
	</radialGradient>
	
	
	<linearGradient y2="97.232101" x2="112.7331" y1="24.481001" x1="66.232399" gradientUnits="userSpaceOnUse" id="SVGID_2_">
		<stop id="stop3935" offset="0" style="stop-color:#8A8A8A"></stop>
		<stop id="stop3937" offset="0.5687" style="stop-color:#606060"></stop>
		<stop id="stop3939" offset="0.5914" style="stop-color:#FFFFFF"></stop>
		<stop id="stop3941" offset="0.6116" style="stop-color:#585858"></stop>
		<stop id="stop3943" offset="1" style="stop-color:#303030"></stop>
	</linearGradient>
	
	
	<linearGradient y2="65.136703" x2="83.798798" y1="65.136703" x1="54.715801" gradientUnits="userSpaceOnUse" id="SVGID_5_">
		<stop id="stop3964" offset="0" style="stop-color:#231F20"></stop>
		<stop id="stop3966" offset="1" style="stop-color:#474747"></stop>
	</linearGradient>
	
	
	
	
	
	
	
	
	
		<linearGradient gradientTransform="matrix(1,0,0,-1,192.3999,143.0996)" y2="29.9035" x2="-94.069099" y1="119.8076" x1="-123.5898" gradientUnits="userSpaceOnUse" id="SVGID_6_">
		<stop id="stop3997" offset="0" style="stop-color:#FFFFFF"></stop>
		<stop id="stop3999" offset="0.0094" style="stop-color:#FCFCFC"></stop>
		<stop id="stop4001" offset="0.0655" style="stop-color:#EEEEEE"></stop>
		<stop id="stop4003" offset="0.1342" style="stop-color:#E5E5E5"></stop>
		<stop id="stop4005" offset="0.2515" style="stop-color:#E3E3E3"></stop>
		<stop id="stop4007" offset="0.3357" style="stop-color:#8A8A8A"></stop>
		<stop id="stop4009" offset="0.4422" style="stop-color:#B8B8B8"></stop>
		<stop id="stop4011" offset="1" style="stop-color:#3B3B3B"></stop>
	</linearGradient>
	
	<linearGradient y2="87.626701" x2="119.5471" y1="26.876499" x1="70.421898" gradientUnits="userSpaceOnUse" id="SVGID_7_">
		<stop id="stop4016" offset="0" style="stop-color:#EFF0F0"></stop>
		<stop id="stop4018" offset="0.5914" style="stop-color:#F0F1F2"></stop>
		<stop id="stop4020" offset="0.599" style="stop-color:#787878"></stop>
		<stop id="stop4022" offset="0.6456" style="stop-color:#EEEFF0"></stop>
		<stop id="stop4024" offset="1" style="stop-color:#D8D9DB"></stop>
	</linearGradient>
	
	
		<linearGradient gradientTransform="matrix(1,0,0,-1,192.3999,143.0996)" y2="31.998501" x2="-87.569702" y1="122.1328" x1="-117.166" gradientUnits="userSpaceOnUse" id="SVGID_8_">
		<stop id="stop4029" offset="0" style="stop-color:#FFFFFF"></stop>
		<stop id="stop4031" offset="1" style="stop-color:#E4E5E6"></stop>
	</linearGradient>
	
	<linearGradient y2="106.3903" x2="79.683601" y1="25.2764" x1="54.653301" gradientUnits="userSpaceOnUse" id="SVGID_9_">
		<stop id="stop4036" offset="0" style="stop-color:#FFFFFF"></stop>
		<stop id="stop4038" offset="0.7473" style="stop-color:#F9F9F9"></stop>
		<stop id="stop4040" offset="1" style="stop-color:#D5D7D8"></stop>
	</linearGradient>
	
	
	
	
	
		<linearGradient gradientTransform="matrix(1,0,0,-1,192.3999,143.0996)" y2="24.6462" x2="-134.85719" y1="119.6328" x1="-115.3369" gradientUnits="userSpaceOnUse" id="SVGID_10_">
		<stop id="stop4061" offset="0" style="stop-color:#FFFFFF"></stop>
		<stop id="stop4063" offset="1" style="stop-color:#E4E5E6"></stop>
	</linearGradient>
	
	<linearGradient y2="92.496101" x2="37.2481" y1="33.077099" x1="32.519001" gradientUnits="userSpaceOnUse" id="SVGID_11_">
		<stop id="stop4068" offset="0.2198" style="stop-color:#989A9C"></stop>
		<stop id="stop4070" offset="0.2527" style="stop-color:#FFFFFF"></stop>
	</linearGradient>
	
	
		<linearGradient gradientTransform="matrix(1,0,0,-1,192.3999,143.0996)" y2="32.797901" x2="-171.9462" y1="126.8398" x1="-152.6201" gradientUnits="userSpaceOnUse" id="SVGID_12_">
		<stop id="stop4075" offset="0" style="stop-color:#FFFFFF"></stop>
		<stop id="stop4077" offset="1" style="stop-color:#E4E5E6"></stop>
	</linearGradient>
	
	
		<linearGradient gradientTransform="matrix(1,0,0,-1,192.3999,143.0996)" y2="35.585701" x2="-130.14281" y1="35.625" x1="-130.1348" gradientUnits="userSpaceOnUse" id="SVGID_13_">
		<stop id="stop4082" offset="0" style="stop-color:#FFFFFF"></stop>
		<stop id="stop4084" offset="1" style="stop-color:#E4E5E6"></stop>
	</linearGradient>
	
	
	
	
		<linearGradient gradientTransform="matrix(1,0,0,-1,192.3999,143.0996)" y2="25.888" x2="-140.54491" y1="120.3223" x1="-121.1382" gradientUnits="userSpaceOnUse" id="SVGID_14_">
		<stop id="stop4093" offset="0" style="stop-color:#FFFFFF"></stop>
		<stop id="stop4095" offset="1" style="stop-color:#E4E5E6"></stop>
	</linearGradient>
	
	
		<linearGradient gradientTransform="matrix(1,0,0,-1,192.3999,143.0996)" y2="28.8524" x2="-155.006" y1="123.3525" x1="-135.58591" gradientUnits="userSpaceOnUse" id="SVGID_15_">
		<stop id="stop4100" offset="0" style="stop-color:#FFFFFF"></stop>
		<stop id="stop4102" offset="1" style="stop-color:#E4E5E6"></stop>
	</linearGradient>
	
	
		<linearGradient gradientTransform="matrix(1,0,0,-1,192.3999,143.0996)" y2="27.1346" x2="-146.8837" y1="121.9365" x1="-127.4014" gradientUnits="userSpaceOnUse" id="SVGID_16_">
		<stop id="stop4107" offset="0" style="stop-color:#FFFFFF"></stop>
		<stop id="stop4109" offset="1" style="stop-color:#E4E5E6"></stop>
	</linearGradient>
	
	
		<linearGradient gradientTransform="matrix(1,0,0,-1,192.3999,143.0996)" y2="24.9438" x2="-138.85201" y1="124.0039" x1="-118.4946" gradientUnits="userSpaceOnUse" id="SVGID_17_">
		<stop id="stop4114" offset="0" style="stop-color:#FFFFFF"></stop>
		<stop id="stop4116" offset="1" style="stop-color:#E4E5E6"></stop>
	</linearGradient>
	
	
		<linearGradient gradientTransform="matrix(1,0,0,-1,192.3999,143.0996)" y2="24.695299" x2="-134.7878" y1="119.1758" x1="-115.3716" gradientUnits="userSpaceOnUse" id="SVGID_18_">
		<stop id="stop4121" offset="0" style="stop-color:#FFFFFF"></stop>
		<stop id="stop4123" offset="1" style="stop-color:#E4E5E6"></stop>
	</linearGradient>
	
	
	
	
	
	
	
	
	
	
	
	
		<linearGradient gradientTransform="matrix(1,0,0,-1,192.3999,143.0996)" y2="83.6045" x2="-75.6362" y1="83.6045" x1="-175.4424" gradientUnits="userSpaceOnUse" id="SVGID_21_">
		<stop id="stop4198" offset="0" style="stop-color:#555555"></stop>
		<stop id="stop4200" offset="1" style="stop-color:#231F20"></stop>
	</linearGradient>
	
	
		<linearGradient gradientTransform="matrix(1,0,0,-1,192.3999,143.0996)" y2="104.0801" x2="-83.541" y1="104.0801" x1="-175.14211" gradientUnits="userSpaceOnUse" id="SVGID_22_">
		<stop id="stop4205" offset="0" style="stop-color:#A0A0A0"></stop>
		<stop id="stop4207" offset="0.0769" style="stop-color:#656767"></stop>
		<stop id="stop4209" offset="1" style="stop-color:#717375"></stop>
	</linearGradient>
	
	
	
	
	
	
	
		<linearGradient gradientTransform="matrix(1,0,0,-1,192.3999,143.0996)" y2="78.209" x2="-172.3853" y1="78.209" x1="-172.3853" gradientUnits="userSpaceOnUse" id="SVGID_23_">
		<stop id="stop4224" offset="0" style="stop-color:#FFFFFF"></stop>
		<stop id="stop4226" offset="0.078" style="stop-color:#F4F4F4"></stop>
		<stop id="stop4228" offset="0.3807" style="stop-color:#CECECE"></stop>
		<stop id="stop4230" offset="0.5396" style="stop-color:#BFBFBF"></stop>
		<stop id="stop4232" offset="0.8357" style="stop-color:#7C7C7C"></stop>
		<stop id="stop4234" offset="0.8996" style="stop-color:#A8A8A8"></stop>
		<stop id="stop4236" offset="0.9093" style="stop-color:#9A9A9A"></stop>
		<stop id="stop4238" offset="0.9327" style="stop-color:#7D7D7D"></stop>
		<stop id="stop4240" offset="0.9558" style="stop-color:#686868"></stop>
		<stop id="stop4242" offset="0.9785" style="stop-color:#5B5B5B"></stop>
		<stop id="stop4244" offset="1" style="stop-color:#575757"></stop>
	</linearGradient>
	
	
		<linearGradient gradientTransform="matrix(1,0,0,-1,192.3999,143.0996)" y2="90.476799" x2="-67.153198" y1="78.449203" x1="-175.7173" gradientUnits="userSpaceOnUse" id="SVGID_24_">
		<stop id="stop4249" offset="0" style="stop-color:#FFFFFF"></stop>
		<stop id="stop4251" offset="0.078" style="stop-color:#F4F4F4"></stop>
		<stop id="stop4253" offset="0.3807" style="stop-color:#CECECE"></stop>
		<stop id="stop4255" offset="0.5396" style="stop-color:#BFBFBF"></stop>
		<stop id="stop4257" offset="0.8357" style="stop-color:#7C7C7C"></stop>
		<stop id="stop4259" offset="0.8996" style="stop-color:#A8A8A8"></stop>
		<stop id="stop4261" offset="0.9093" style="stop-color:#9A9A9A"></stop>
		<stop id="stop4263" offset="0.9327" style="stop-color:#7D7D7D"></stop>
		<stop id="stop4265" offset="0.9558" style="stop-color:#686868"></stop>
		<stop id="stop4267" offset="0.9785" style="stop-color:#5B5B5B"></stop>
		<stop id="stop4269" offset="1" style="stop-color:#575757"></stop>
	</linearGradient>
	
	
		<linearGradient gradientTransform="matrix(1,0,0,-1,192.3999,143.0996)" y2="92.223099" x2="-52.131699" y1="78.4795" x1="-176.1851" gradientUnits="userSpaceOnUse" id="SVGID_25_">
		<stop id="stop4274" offset="0" style="stop-color:#FFFFFF"></stop>
		<stop id="stop4276" offset="0.078" style="stop-color:#F4F4F4"></stop>
		<stop id="stop4278" offset="0.3807" style="stop-color:#CECECE"></stop>
		<stop id="stop4280" offset="0.5396" style="stop-color:#BFBFBF"></stop>
		<stop id="stop4282" offset="0.8357" style="stop-color:#7C7C7C"></stop>
		<stop id="stop4284" offset="0.8996" style="stop-color:#A8A8A8"></stop>
		<stop id="stop4286" offset="0.9093" style="stop-color:#9A9A9A"></stop>
		<stop id="stop4288" offset="0.9327" style="stop-color:#7D7D7D"></stop>
		<stop id="stop4290" offset="0.9558" style="stop-color:#686868"></stop>
		<stop id="stop4292" offset="0.9785" style="stop-color:#5B5B5B"></stop>
		<stop id="stop4294" offset="1" style="stop-color:#575757"></stop>
	</linearGradient>
	
	<linearGradient y2="51.952599" x2="117.1948" y1="71.326698" x1="21.2129" gradientUnits="userSpaceOnUse" id="SVGID_26_">
		<stop id="stop4299" offset="0" style="stop-color:#EDEDEE"></stop>
		<stop id="stop4301" offset="0.4176" style="stop-color:#FFFFFF"></stop>
		<stop id="stop4303" offset="0.6264" style="stop-color:#F8F9F9"></stop>
		<stop id="stop4305" offset="1" style="stop-color:#BFC0C2"></stop>
	</linearGradient>
	
	
	
	
	<linearGradient y2="30.732401" x2="27.9561" y1="30.732401" x1="23.471201" gradientUnits="userSpaceOnUse" id="SVGID_27_">
		<stop id="stop4316" offset="0" style="stop-color:#E2E3E4"></stop>
		<stop id="stop4318" offset="0.5055" style="stop-color:#FFFFFF"></stop>
	</linearGradient>
	
	
	
	
	
	
	
	
	
	
	
	
	
	
	
	
	
	
	
	
	
	
	
	
	
	
	
	
	
	
	
	
	
	
	
	
	
	
	
	
	
	
	
	
	
	
	
	
	
	
	
	
	
	
	
	
	
	
	
	
	
	
	
	
	
	
	
	
	
	
	
	
	
	
	
	
	
	
	
	
	
	
	
	
	
	
	
	
	
	
	
	
	
	
	
	
	
	
	
	
	
	
	
	
	
	
	
	
	
	
	
	
	
	
	
	
	
	
	
	
	
	
	
	
	
	
	
	
	
	
	
	
	
	
	
	
	
	
	
	
	
	
	
	
	
	
	
	
	
	
	
	
	
	
	
	
	
	
	
	
	
	
	
	
	
	
	
	
	
	
	
	
	
	
	
	
	
	
	<linearGradient y2="29.204" x2="111.5455" y1="49.7188" x1="22.5742" gradientUnits="userSpaceOnUse" id="SVGID_34_">
		<stop id="stop4743" offset="0" style="stop-color:#FFFFFF"></stop>
		<stop id="stop4745" offset="0.6538" style="stop-color:#FFFFFF"></stop>
		<stop id="stop4747" offset="1" style="stop-color:#CBCCCE"></stop>
	</linearGradient>
	
	
	
	
	
	
	
	
		<linearGradient gradientTransform="matrix(1,0,0,-1,192.3999,143.0996)" y2="107.0898" x2="-126.4229" y1="107.0898" x1="-158.8101" gradientUnits="userSpaceOnUse" id="SVGID_35_">
		<stop id="stop4770" offset="0" style="stop-color:#696969"></stop>
		<stop id="stop4772" offset="0.3702" style="stop-color:#2E2E2E"></stop>
		<stop id="stop4774" offset="0.4554" style="stop-color:#424242"></stop>
		<stop id="stop4776" offset="0.6014" style="stop-color:#303030"></stop>
		<stop id="stop4778" offset="0.6947" style="stop-color:#4A4A4A"></stop>
		<stop id="stop4780" offset="1" style="stop-color:#666666"></stop>
	</linearGradient>
	
	
		<linearGradient gradientTransform="matrix(1,0,0,-1,192.3999,143.0996)" y2="107.8965" x2="-126.5454" y1="107.8965" x1="-158.4185" gradientUnits="userSpaceOnUse" id="SVGID_36_">
		<stop id="stop4785" offset="0" style="stop-color:#525252"></stop>
		<stop id="stop4787" offset="0.1856" style="stop-color:#333333"></stop>
		<stop id="stop4789" offset="0.354" style="stop-color:#AEAEAE"></stop>
		<stop id="stop4791" offset="0.4199" style="stop-color:#ADADAD"></stop>
		<stop id="stop4793" offset="0.4276" style="stop-color:#9D9D9D"></stop>
		<stop id="stop4795" offset="0.4433" style="stop-color:#818181"></stop>
		<stop id="stop4797" offset="0.4611" style="stop-color:#6A6A6A"></stop>
		<stop id="stop4799" offset="0.4814" style="stop-color:#585858"></stop>
		<stop id="stop4801" offset="0.506" style="stop-color:#4C4C4C"></stop>
		<stop id="stop4803" offset="0.539" style="stop-color:#444444"></stop>
		<stop id="stop4805" offset="0.6166" style="stop-color:#424242"></stop>
		<stop id="stop4807" offset="0.6684" style="stop-color:#454545"></stop>
		<stop id="stop4809" offset="1" style="stop-color:#BDBDBD"></stop>
	</linearGradient>
	
	
		<linearGradient gradientTransform="matrix(1,0,0,-1,192.3999,143.0996)" y2="104.4332" x2="-154.15421" y1="97.627899" x1="-153.1255" gradientUnits="userSpaceOnUse" id="SVGID_37_">
		<stop id="stop4814" offset="0" style="stop-color:#969696"></stop>
		<stop id="stop4816" offset="1" style="stop-color:#000000"></stop>
	</linearGradient>
	
	
	
	<linearGradient y2="38.790001" x2="39.487301" y1="46.373001" x1="38.737301" gradientUnits="userSpaceOnUse" id="SVGID_38_">
		<stop id="stop4825" offset="0" style="stop-color:#333333"></stop>
		<stop id="stop4827" offset="0.431" style="stop-color:#000000"></stop>
		<stop id="stop4829" offset="1" style="stop-color:#2E2E2E"></stop>
	</linearGradient>
	
	
	
	
	
		<radialGradient gradientUnits="userSpaceOnUse" gradientTransform="matrix(1,0,0,-1,192.3999,143.0996)" r="72.751701" cy="106.5996" cx="-138.2334" id="SVGID_39_">
		<stop id="stop4840" offset="0" style="stop-color:#000000;stop-opacity:0"></stop>
		<stop id="stop4842" offset="0.80220002" style="stop-color:#000000;stop-opacity:0.08"></stop>
		<stop id="stop4844" offset="1" style="stop-color:#000000;stop-opacity:0.3882353"></stop>
	</radialGradient>
	
<radialGradient inkscape:collect="always" xlink:href="#SVGID_39_" id="radialGradient5007" gradientUnits="userSpaceOnUse" gradientTransform="matrix(1,0,0,-1,192.3999,143.0996)" cx="-138.2334" cy="106.5996" r="72.751701"></radialGradient><linearGradient inkscape:collect="always" xlink:href="#SVGID_38_" id="linearGradient5013" gradientUnits="userSpaceOnUse" x1="38.737301" y1="46.373001" x2="39.487301" y2="38.790001"></linearGradient><linearGradient inkscape:collect="always" xlink:href="#SVGID_37_" id="linearGradient5018" gradientUnits="userSpaceOnUse" gradientTransform="matrix(1,0,0,-1,192.3999,143.0996)" x1="-153.1255" y1="97.627899" x2="-154.15421" y2="104.4332"></linearGradient><linearGradient inkscape:collect="always" xlink:href="#SVGID_36_" id="linearGradient5021" gradientUnits="userSpaceOnUse" gradientTransform="matrix(1,0,0,-1,192.3999,143.0996)" x1="-158.4185" y1="107.8965" x2="-126.5454" y2="107.8965"></linearGradient><linearGradient inkscape:collect="always" xlink:href="#SVGID_35_" id="linearGradient5024" gradientUnits="userSpaceOnUse" gradientTransform="matrix(1,0,0,-1,192.3999,143.0996)" x1="-158.8101" y1="107.0898" x2="-126.4229" y2="107.0898"></linearGradient><linearGradient inkscape:collect="always" xlink:href="#SVGID_34_" id="linearGradient5036" gradientUnits="userSpaceOnUse" x1="22.5742" y1="49.7188" x2="111.5455" y2="29.204"></linearGradient><linearGradient inkscape:collect="always" xlink:href="#SVGID_27_" id="linearGradient5252" gradientUnits="userSpaceOnUse" x1="23.471201" y1="30.732401" x2="27.9561" y2="30.732401"></linearGradient><linearGradient inkscape:collect="always" xlink:href="#SVGID_26_" id="linearGradient5258" gradientUnits="userSpaceOnUse" x1="21.2129" y1="71.326698" x2="117.1948" y2="51.952599"></linearGradient><linearGradient inkscape:collect="always" xlink:href="#SVGID_25_" id="linearGradient5261" gradientUnits="userSpaceOnUse" gradientTransform="matrix(1,0,0,-1,192.3999,143.0996)" x1="-176.1851" y1="78.4795" x2="-52.131699" y2="92.223099"></linearGradient><linearGradient inkscape:collect="always" xlink:href="#SVGID_24_" id="linearGradient5264" gradientUnits="userSpaceOnUse" gradientTransform="matrix(1,0,0,-1,192.3999,143.0996)" x1="-175.7173" y1="78.449203" x2="-67.153198" y2="90.476799"></linearGradient><linearGradient inkscape:collect="always" xlink:href="#SVGID_23_" id="linearGradient5267" gradientUnits="userSpaceOnUse" gradientTransform="matrix(1,0,0,-1,192.3999,143.0996)" x1="-172.3853" y1="78.209" x2="-172.3853" y2="78.209"></linearGradient><linearGradient inkscape:collect="always" xlink:href="#SVGID_22_" id="linearGradient5275" gradientUnits="userSpaceOnUse" gradientTransform="matrix(1,0,0,-1,192.3999,143.0996)" x1="-175.14211" y1="104.0801" x2="-83.541" y2="104.0801"></linearGradient><linearGradient inkscape:collect="always" xlink:href="#SVGID_21_" id="linearGradient5278" gradientUnits="userSpaceOnUse" gradientTransform="matrix(1,0,0,-1,192.3999,143.0996)" x1="-175.4424" y1="83.6045" x2="-75.6362" y2="83.6045"></linearGradient><linearGradient inkscape:collect="always" xlink:href="#SVGID_18_" id="linearGradient5317" gradientUnits="userSpaceOnUse" gradientTransform="matrix(1,0,0,-1,192.3999,143.0996)" x1="-115.3716" y1="119.1758" x2="-134.7878" y2="24.695299"></linearGradient><linearGradient inkscape:collect="always" xlink:href="#SVGID_17_" id="linearGradient5320" gradientUnits="userSpaceOnUse" gradientTransform="matrix(1,0,0,-1,192.3999,143.0996)" x1="-118.4946" y1="124.0039" x2="-138.85201" y2="24.9438"></linearGradient><linearGradient inkscape:collect="always" xlink:href="#SVGID_16_" id="linearGradient5323" gradientUnits="userSpaceOnUse" gradientTransform="matrix(1,0,0,-1,192.3999,143.0996)" x1="-127.4014" y1="121.9365" x2="-146.8837" y2="27.1346"></linearGradient><linearGradient inkscape:collect="always" xlink:href="#SVGID_15_" id="linearGradient5326" gradientUnits="userSpaceOnUse" gradientTransform="matrix(1,0,0,-1,192.3999,143.0996)" x1="-135.58591" y1="123.3525" x2="-155.006" y2="28.8524"></linearGradient><linearGradient inkscape:collect="always" xlink:href="#SVGID_14_" id="linearGradient5329" gradientUnits="userSpaceOnUse" gradientTransform="matrix(1,0,0,-1,192.3999,143.0996)" x1="-121.1382" y1="120.3223" x2="-140.54491" y2="25.888"></linearGradient><linearGradient inkscape:collect="always" xlink:href="#SVGID_13_" id="linearGradient5334" gradientUnits="userSpaceOnUse" gradientTransform="matrix(1,0,0,-1,192.3999,143.0996)" x1="-130.1348" y1="35.625" x2="-130.14281" y2="35.585701"></linearGradient><linearGradient inkscape:collect="always" xlink:href="#SVGID_12_" id="linearGradient5337" gradientUnits="userSpaceOnUse" gradientTransform="matrix(1,0,0,-1,192.3999,143.0996)" x1="-152.6201" y1="126.8398" x2="-171.9462" y2="32.797901"></linearGradient><linearGradient inkscape:collect="always" xlink:href="#SVGID_11_" id="linearGradient5340" gradientUnits="userSpaceOnUse" x1="32.519001" y1="33.077099" x2="37.2481" y2="92.496101"></linearGradient><linearGradient inkscape:collect="always" xlink:href="#SVGID_10_" id="linearGradient5343" gradientUnits="userSpaceOnUse" gradientTransform="matrix(1,0,0,-1,192.3999,143.0996)" x1="-115.3369" y1="119.6328" x2="-134.85719" y2="24.6462"></linearGradient><linearGradient inkscape:collect="always" xlink:href="#SVGID_9_" id="linearGradient5354" gradientUnits="userSpaceOnUse" x1="54.653301" y1="25.2764" x2="79.683601" y2="106.3903"></linearGradient><linearGradient inkscape:collect="always" xlink:href="#SVGID_8_" id="linearGradient5357" gradientUnits="userSpaceOnUse" gradientTransform="matrix(1,0,0,-1,192.3999,143.0996)" x1="-117.166" y1="122.1328" x2="-87.569702" y2="31.998501"></linearGradient><linearGradient inkscape:collect="always" xlink:href="#SVGID_7_" id="linearGradient5360" gradientUnits="userSpaceOnUse" x1="70.421898" y1="26.876499" x2="119.5471" y2="87.626701"></linearGradient><linearGradient inkscape:collect="always" xlink:href="#SVGID_6_" id="linearGradient5363" gradientUnits="userSpaceOnUse" gradientTransform="matrix(1,0,0,-1,192.3999,143.0996)" x1="-123.5898" y1="119.8076" x2="-94.069099" y2="29.9035"></linearGradient><linearGradient inkscape:collect="always" xlink:href="#SVGID_5_" id="linearGradient5379" gradientUnits="userSpaceOnUse" x1="54.715801" y1="65.136703" x2="83.798798" y2="65.136703"></linearGradient><linearGradient inkscape:collect="always" xlink:href="#SVGID_2_" id="linearGradient5391" gradientUnits="userSpaceOnUse" x1="66.232399" y1="24.481001" x2="112.7331" y2="97.232101"></linearGradient><radialGradient inkscape:collect="always" xlink:href="#SVGID_1_" id="radialGradient5395" gradientUnits="userSpaceOnUse" gradientTransform="matrix(1,0,0,-1,192.3999,143.0996)" cx="-145.4702" cy="87.823196" r="68.686401"></radialGradient>
	
	
<inkscape:perspective id="perspective10537" inkscape:persp3d-origin="0.5 : 0.33333333 : 1" inkscape:vp_z="1 : 0.5 : 1" inkscape:vp_y="0 : 1000 : 0" inkscape:vp_x="0 : 0.5 : 1" sodipodi:type="inkscape:persp3d"></inkscape:perspective><inkscape:perspective id="perspective13111" inkscape:persp3d-origin="0.5 : 0.33333333 : 1" inkscape:vp_z="1 : 0.5 : 1" inkscape:vp_y="0 : 1000 : 0" inkscape:vp_x="0 : 0.5 : 1" sodipodi:type="inkscape:persp3d"></inkscape:perspective><inkscape:perspective id="perspective18648" inkscape:persp3d-origin="0.5 : 0.33333333 : 1" inkscape:vp_z="1 : 0.5 : 1" inkscape:vp_y="0 : 1000 : 0" inkscape:vp_x="0 : 0.5 : 1" sodipodi:type="inkscape:persp3d"></inkscape:perspective></defs><sodipodi:namedview pagecolor="#ffffff" bordercolor="#666666" borderopacity="1" objecttolerance="10" gridtolerance="10" guidetolerance="10" inkscape:pageopacity="0" inkscape:pageshadow="2" inkscape:window-width="1200" inkscape:window-height="819" id="namedview4848" showgrid="false" inkscape:zoom="2" inkscape:cx="8.5497151" inkscape:cy="33.455514" inkscape:window-x="0" inkscape:window-y="25" inkscape:window-maximized="0" inkscape:current-layer="svg3857" showguides="true" inkscape:guide-bbox="true"><sodipodi:guide orientation="0,1" position="0,140" id="globe_top"></sodipodi:guide><sodipodi:guide orientation="1,0" position="16,0" id="globe_left"></sodipodi:guide><sodipodi:guide orientation="1,0" position="119,0" id="globe_right"></sodipodi:guide><sodipodi:guide id="globe_bottom" position="0,47" orientation="0,1"></sodipodi:guide><sodipodi:guide orientation="0,1" position="8,40" id="wordmark_top"></sodipodi:guide><sodipodi:guide orientation="0,1" position="8,22.5" id="wordmark_bottom"></sodipodi:guide><sodipodi:guide orientation="0,1" position="0,17" id="subtitle_top"></sodipodi:guide><sodipodi:guide orientation="0,1" position="0,8" id="subtitle_bottom"></sodipodi:guide><sodipodi:guide orientation="1,0" position="8,40" id="wordmark_left"></sodipodi:guide><sodipodi:guide orientation="1,0" position="127,40" id="wordmark_right"></sodipodi:guide></sodipodi:namedview><g id="Wikipedia"><path d="m 15.531736,115.96902 c 1.122099,0.1615 0.991622,0.75368 0.208763,2.31487 l -1.383054,2.69172 -0.130477,-0.13458 -1.278672,-2.71864 c -0.704574,-1.53428 -0.808955,-1.99187 0.287049,-2.15337 0.156572,-0.16151 0.156572,-0.72677 0,-0.88827 -0.939432,0.0269 -1.35696,0.0538 -2.374678,0.0538 -1.0438128,0 -1.4874359,-0.0269 -2.3224862,-0.0538 -0.1565721,0.1615 -0.1304768,0.72676 0.026095,0.88827 1.1220993,0.1615 1.3308642,0.53834 2.1920102,2.44946 l 2.19201,4.81817 -2.896585,6.1102 -0.1304767,0 -4.77545,-11.22446 c -0.6523831,-1.53428 -0.5740961,-1.96495 1.0699096,-2.15337 0.156572,-0.16151 0.156572,-0.72677 0,-0.88827 -1.2264804,0.0269 -1.8788665,0.0538 -2.8965844,0.0538 -1.0438132,0 -1.4874364,-0.0269 -2.71391694,-0.0538 -0.15657192,0.1615 -0.13047656,0.72676 0.0260954,0.88827 1.48743374,0.13458 1.53962674,0.53834 2.32248654,2.44946 l 5.6887874,13.78159 c 0.1565721,0.40376 0.3392396,0.6191 0.6001932,0.6191 0.2870489,0 0.4697164,-0.21534 0.6262885,-0.6191 l 3.8360174,-7.80598 3.522873,7.80598 c 0.130477,0.40376 0.33924,0.6191 0.600193,0.6191 0.287049,0 0.443621,-0.21534 0.626289,-0.6191 l 6.158503,-13.72776 c 0.548003,-1.23819 0.861149,-2.28796 2.583441,-2.50329 0.156572,-0.16151 0.156572,-0.72677 0,-0.88827 -1.043814,0.0269 -1.6962,0.0538 -2.296392,0.0538 -0.600192,0 -1.356959,-0.0269 -2.58344,-0.0538 -0.156572,0.1615 -0.156572,0.72676 0,0.88827 1.696196,0.13458 1.722293,0.86135 1.1221,2.31487 l -4.958117,11.06296 -0.130477,0 -3.340205,-7.10613 1.904961,-3.76841 c 0.652383,-1.23819 1.226482,-2.28796 2.58344,-2.50329 0.156572,-0.16151 0.156572,-0.72677 0,-0.88827 -0.652383,0.0269 -1.304769,0.0538 -1.904961,0.0538 -0.600192,0 -1.096006,-0.0269 -2.061533,-0.0538 -0.156572,0.1615 -0.156572,0.72676 0,0.88827" id="path3505" style="font-size:25px;font-style:normal;font-variant:normal;font-weight:normal;font-stretch:normal;text-align:start;line-height:100%;letter-spacing:-1;writing-mode:lr-tb;text-anchor:start;fill:#000000;fill-opacity:1;stroke:none;font-family:Linux Libertine O;-inkscape-font-specification:Linux Libertine O"></path><path d="m 31.682673,121.72929 c 0,-0.53834 0.28705,-0.7806 1.096005,-0.86135 l 0.548002,-0.0538 c 0.104382,0 0.156573,-0.0538 0.156573,-0.13459 l 0,-0.56526 -0.0261,-0.0538 c 0,0 -2.009342,0.0538 -2.713917,0.0538 -0.808955,0 -2.870489,-0.0538 -2.870489,-0.0538 l -0.0261,0.0538 0,0.59218 c 0,0.0807 0.07829,0.10767 0.182667,0.10767 l 0.521907,0.0538 c 0.808956,0.0807 1.122101,0.26917 1.122101,0.86135 l 0,8.96342 c 0,0.51143 -0.260954,0.9421 -1.122101,1.02286 l -0.521907,0.0538 c -0.104381,0 -0.182667,0.0538 -0.182667,0.1615 l 0,0.56526 0.05219,0.0538 c 0,0 2.035438,-0.0538 2.766107,-0.0538 0.808956,0 2.792203,0.0538 2.792203,0.0538 l 0.0261,-0.0538 0,-0.56526 c 0,-0.10767 -0.07829,-0.1615 -0.156573,-0.1615 l -0.548002,-0.0538 c -0.83505,-0.0808 -1.096005,-0.43068 -1.096005,-1.02286 l 0,-8.96342 m -0.234858,-4.68359 c 0,0.67293 0.548003,1.23819 1.200386,1.23819 0.652384,0 1.174291,-0.56526 1.174291,-1.23819 0,-0.67293 -0.521907,-1.21127 -1.174291,-1.21127 -0.652383,0 -1.200386,0.53834 -1.200386,1.21127 m -4.175257,0 c 0,0.67293 0.521908,1.23819 1.174291,1.23819 0.652384,0 1.200386,-0.56526 1.200386,-1.23819 0,-0.67293 -0.548002,-1.21127 -1.200386,-1.21127 -0.652383,0 -1.174291,0.53834 -1.174291,1.21127" id="path3484" style="font-size:25px;font-style:normal;font-variant:normal;font-weight:normal;font-stretch:normal;text-align:start;line-height:100%;letter-spacing:-1;writing-mode:lr-tb;text-anchor:start;fill:#000000;fill-opacity:1;stroke:none;font-family:Linux Libertine O C;-inkscape-font-specification:Linux Libertine O C"></path><path d="m 37.92721,126.70897 c 0.574098,0 0.991625,0.13459 1.383054,0.67293 l 2.896584,3.71457 c 0.365335,0.43068 0.391431,0.72676 0.391431,1.07669 l 0,0.323 0.0261,0.0269 c 0,0 0.939434,-0.0269 1.591817,-0.0269 0.73067,0 2.113723,0.0269 2.113723,0.0269 l 0.07829,-0.0269 0,-0.56526 c 0,-0.0807 -0.104381,-0.13458 -0.182667,-0.1615 l -0.130477,-0.0269 c -0.521906,-0.10767 -1.148195,-0.26917 -1.46134,-0.64601 l -3.940398,-4.89893 c -0.130477,-0.1615 -0.234858,-0.29608 -0.234858,-0.45759 0,-0.21534 0.156573,-0.51142 0.600193,-0.99593 l 2.2442,-2.6648 c 0.939432,-1.10361 1.644009,-1.15744 2.661726,-1.23819 0.130477,0 0.208763,-0.0538 0.208763,-0.13459 l 0,-0.6191 -0.07829,-0.0269 c 0,0 -1.148195,0.0538 -1.826675,0.0538 -0.756764,0 -2.870489,-0.0538 -2.870489,-0.0538 l -0.02609,0.0269 0,0.6191 c 0,0.0807 0.05219,0.10767 0.156572,0.13459 0.521907,0.0807 0.756765,0.323 0.756765,0.53834 0,0.51143 -0.808957,1.50736 -1.85277,2.69172 -1.148194,1.2651 -1.644008,1.7227 -2.505154,1.7227 l 0,-4.0645 c 0,-0.53834 0.28705,-0.67293 1.096005,-0.83443 l 0.287049,-0.0538 c 0.104381,-0.0269 0.156572,-0.0538 0.156572,-0.13459 l 0,-0.59218 -0.02609,-0.0538 c 0,0 -1.644008,0.0538 -2.374678,0.0538 -0.808955,0 -2.948775,-0.0538 -2.948775,-0.0538 l -0.0261,0.0538 0,0.6191 c 0,0.0807 0.07829,0.10767 0.182667,0.10767 l 0.521907,0.0538 c 0.835051,0.0808 1.122101,0.24225 1.122101,0.83443 l 0,8.96342 c 0,0.51143 -0.33924,0.9421 -1.122101,1.02286 l -0.521907,0.0538 c -0.104381,0 -0.182667,0.0538 -0.182667,0.1615 l 0,0.56526 0.05219,0.0538 c 0,0 2.13982,-0.0538 2.870489,-0.0538 0.78286,0 2.426868,0.0538 2.426868,0.0538 l 0.02609,-0.0538 0,-0.56526 c 0,-0.10767 -0.07829,-0.13458 -0.156572,-0.1615 l -0.287049,-0.0538 c -0.756764,-0.13459 -1.096005,-0.43068 -1.096005,-1.02286 l 0,-3.98374" id="path3486" style="font-size:25px;font-style:normal;font-variant:normal;font-weight:normal;font-stretch:normal;text-align:start;line-height:100%;letter-spacing:-1;writing-mode:lr-tb;text-anchor:start;fill:#000000;fill-opacity:1;stroke:none;font-family:Linux Libertine O C;-inkscape-font-specification:Linux Libertine O C"></path><path d="m 50.542684,121.72929 c 0,-0.53834 0.28705,-0.7806 1.096005,-0.86135 l 0.548002,-0.0538 c 0.104382,0 0.156572,-0.0538 0.156572,-0.13459 l 0,-0.56526 -0.02609,-0.0538 c 0,0 -2.009343,0.0538 -2.713917,0.0538 -0.808955,0 -2.870489,-0.0538 -2.870489,-0.0538 l -0.02609,0.0538 0,0.59218 c 0,0.0807 0.07829,0.10767 0.182667,0.10767 l 0.521907,0.0538 c 0.808955,0.0807 1.1221,0.26917 1.1221,0.86135 l 0,8.96342 c 0,0.51143 -0.260954,0.9421 -1.1221,1.02286 l -0.521907,0.0538 c -0.104381,0 -0.182667,0.0538 -0.182667,0.1615 l 0,0.56526 0.05219,0.0538 c 0,0 2.035438,-0.0538 2.766108,-0.0538 0.808955,0 2.792203,0.0538 2.792203,0.0538 l 0.02609,-0.0538 0,-0.56526 c 0,-0.10767 -0.07829,-0.1615 -0.156572,-0.1615 l -0.548002,-0.0538 c -0.835051,-0.0808 -1.096005,-0.43068 -1.096005,-1.02286 l 0,-8.96342 m -0.234858,-4.68359 c 0,0.67293 0.548002,1.23819 1.200386,1.23819 0.652383,0 1.174291,-0.56526 1.174291,-1.23819 0,-0.67293 -0.521908,-1.21127 -1.174291,-1.21127 -0.652384,0 -1.200386,0.53834 -1.200386,1.21127 m -4.175257,0 c 0,0.67293 0.521907,1.23819 1.174291,1.23819 0.652383,0 1.200386,-0.56526 1.200386,-1.23819 0,-0.67293 -0.548003,-1.21127 -1.200386,-1.21127 -0.652384,0 -1.174291,0.53834 -1.174291,1.21127" id="path3488" style="font-size:25px;font-style:normal;font-variant:normal;font-weight:normal;font-stretch:normal;text-align:start;line-height:100%;letter-spacing:-1;writing-mode:lr-tb;text-anchor:start;fill:#000000;fill-opacity:1;stroke:none;font-family:Linux Libertine O C;-inkscape-font-specification:Linux Libertine O C"></path><path d="m 56.73503,121.78313 c 0,-0.69985 0.313145,-0.9421 1.565721,-0.9421 1.435243,0 2.452964,0.51142 2.452964,2.8263 0,2.07262 -0.756768,3.04164 -2.322487,3.04164 -0.521907,0 -1.174292,-0.0269 -1.696198,-0.24225 l 0,-4.68359 m -2.009342,9.04417 c 0,0.51143 -0.260955,0.75368 -1.06991,0.86135 l -0.548002,0.0807 c -0.104382,0.0269 -0.156572,0.0538 -0.156572,0.1615 l 0,0.56526 0.0261,0.0538 c 0,0 1.957152,-0.0538 2.687822,-0.0538 0.808955,0 2.896584,0.0538 2.896584,0.0538 l 0.02609,-0.0538 0,-0.56526 c 0,-0.10767 -0.07829,-0.13458 -0.182667,-0.1615 l -0.521907,-0.0807 c -0.835052,-0.13459 -1.148196,-0.26917 -1.148196,-0.86135 l 0,-3.6069 c 0.469715,0.21533 0.991624,0.26917 1.644007,0.26917 3.705537,0 4.462306,-2.53022 4.462306,-4.14525 0,-1.39969 -0.678483,-3.28389 -4.384019,-3.28389 -0.965528,0 -2.009344,0.0538 -2.740013,0.0538 -0.756765,0 -2.296392,-0.0538 -2.687821,-0.0538 l -0.05219,0.0269 0,0.6191 c 0,0.0538 0.02609,0.13459 0.182667,0.13459 1.22648,0.0807 1.565722,0.10766 1.565722,0.9421 l 0,9.04417" id="path3490" style="font-size:25px;font-style:normal;font-variant:normal;font-weight:normal;font-stretch:normal;text-align:start;line-height:100%;letter-spacing:-1;writing-mode:lr-tb;text-anchor:start;fill:#000000;fill-opacity:1;stroke:none;font-family:Linux Libertine O C;-inkscape-font-specification:Linux Libertine O C"></path><path d="m 72.641372,120.11426 -4.853736,0 -1.878865,0 -2.609536,-0.0538 -0.0261,0.0538 0,0.59218 c 0,0.0269 0,0.0807 0.156572,0.10767 l 0.600193,0.0538 c 0.730669,0.0538 1.043814,0.21534 1.043814,0.83444 l 0,9.17875 c 0,0.53835 -0.234859,0.75368 -1.043814,0.83444 l -0.600193,0.0538 c -0.130477,0 -0.156572,0.0808 -0.156572,0.13459 l 0,0.59217 0.0261,0.0538 2.58344,-0.0538 6.889174,0 c 0.05219,-0.86135 0.234858,-1.96495 0.548003,-3.28389 l -0.652384,-0.0807 c -0.417526,1.37277 -0.991626,2.44946 -2.58344,2.44946 l -2.244201,0 c -0.469716,0 -0.756765,-0.13459 -0.756765,-0.64601 l 0,-4.49517 1.957151,0 c 0.678479,0 0.913338,0.29609 1.017719,0.83443 l 0.130477,0.59218 c 0,0.0807 0.05219,0.13459 0.182667,0.13459 l 0.443621,0 0.05219,-0.0538 c -0.05219,-0.61909 -0.156572,-1.18436 -0.156572,-1.85728 0,-0.64602 0.104381,-1.3997 0.156572,-1.99188 0,-0.0538 -1e-6,-0.0807 -0.05219,-0.0807 l -0.443621,0 c -0.104381,0 -0.156572,0.0538 -0.156572,0.13459 l -0.156572,0.56526 c -0.104381,0.53834 -0.28705,0.86135 -1.017719,0.86135 l -1.957151,0 0,-3.98374 c 0,-0.4576 0.260953,-0.56526 0.756765,-0.56526 l 2.087628,0 c 1.670101,0 2.165915,1.42661 2.426868,2.39562 l 0.652384,-0.0808 c -0.182667,-1.02285 -0.33924,-2.07262 -0.365335,-3.23006 M 69.483834,115 l -1.304767,0 c -0.756766,1.23819 -1.74839,2.39563 -2.687822,3.47231 l 0.521907,0.37684 c 0.991623,-0.72676 1.826675,-1.39969 2.792203,-2.42254 0.887241,0.96902 1.748389,1.64195 2.766108,2.42254 l 0.548002,-0.37684 C 71.180032,117.39563 70.240599,116.26511 69.483834,115" id="path3492" style="font-size:25px;font-style:normal;font-variant:normal;font-weight:normal;font-stretch:normal;text-align:start;line-height:100%;letter-spacing:-1;writing-mode:lr-tb;text-anchor:start;fill:#000000;fill-opacity:1;stroke:none;font-family:Linux Libertine O C;-inkscape-font-specification:Linux Libertine O C"></path><path d="m 74.053783,131.9309 0,0.56526 0.0261,0.0538 c 0,0 1.983247,-0.0538 2.766107,-0.0538 0.808955,0 1.722296,0.0538 3.809922,0.0538 2.896582,0 6.132409,-1.3997 6.132409,-6.1102 0,-3.57999 -2.139825,-6.37937 -6.497744,-6.37937 -0.678479,0 -2.948776,0.0538 -3.444587,0.0538 -0.469716,0 -2.766107,-0.0538 -2.766107,-0.0538 l -0.0261,0.0538 0,0.59218 c 0,0.0807 0.07829,0.13459 0.182668,0.13459 l 0.574098,0.0538 c 0.861145,0.0808 1.043814,0.0808 1.043814,0.7806 l 0,8.88267 c 0,0.83443 -0.260955,1.07668 -1.043814,1.15744 l -0.600193,0.0538 c -0.104382,0 -0.156573,0.0808 -0.156573,0.1615 m 3.809922,-1.37277 0,-8.88267 c 0,-0.67293 0.652384,-0.83443 1.670103,-0.83443 4.384014,0 4.984213,3.25697 4.984213,6.05636 0,3.76841 -1.617915,4.87201 -4.488401,4.87201 -1.983246,0 -2.165915,-0.45759 -2.165915,-1.21127" id="path3494" style="font-size:25px;font-style:normal;font-variant:normal;font-weight:normal;font-stretch:normal;text-align:start;line-height:100%;letter-spacing:-1;writing-mode:lr-tb;text-anchor:start;fill:#000000;fill-opacity:1;stroke:none;font-family:Linux Libertine O C;-inkscape-font-specification:Linux Libertine O C"></path><path d="m 91.473655,121.72929 c 0,-0.53834 0.28705,-0.7806 1.096005,-0.86135 l 0.548003,-0.0538 c 0.104381,0 0.156572,-0.0538 0.156572,-0.13459 l 0,-0.56526 -0.0261,-0.0538 c 0,0 -2.009342,0.0538 -2.713917,0.0538 -0.808955,0 -2.870489,-0.0538 -2.870489,-0.0538 l -0.02609,0.0538 0,0.59218 c 0,0.0807 0.07829,0.10767 0.182667,0.10767 l 0.521908,0.0538 c 0.808956,0.0807 1.1221,0.26917 1.1221,0.86135 l 0,8.96342 c 0,0.51143 -0.260954,0.9421 -1.1221,1.02286 l -0.521908,0.0538 c -0.104381,0 -0.182667,0.0538 -0.182667,0.1615 l 0,0.56526 0.05219,0.0538 c 0,0 2.035438,-0.0538 2.766107,-0.0538 0.808956,0 2.792203,0.0538 2.792203,0.0538 l 0.0261,-0.0538 0,-0.56526 c 0,-0.10767 -0.07829,-0.1615 -0.156572,-0.1615 l -0.548003,-0.0538 c -0.83505,-0.0808 -1.096005,-0.43068 -1.096005,-1.02286 l 0,-8.96342 m -0.234858,-4.68359 c 0,0.67293 0.548003,1.23819 1.200386,1.23819 0.652384,0 1.174291,-0.56526 1.174291,-1.23819 0,-0.67293 -0.521907,-1.21127 -1.174291,-1.21127 -0.652383,0 -1.200386,0.53834 -1.200386,1.21127 m -4.175257,0 c 0,0.67293 0.521908,1.23819 1.174291,1.23819 0.652384,0 1.200386,-0.56526 1.200386,-1.23819 0,-0.67293 -0.548002,-1.21127 -1.200386,-1.21127 -0.652383,0 -1.174291,0.53834 -1.174291,1.21127" id="path3496" style="font-size:25px;font-style:normal;font-variant:normal;font-weight:normal;font-stretch:normal;text-align:start;line-height:100%;letter-spacing:-1;writing-mode:lr-tb;text-anchor:start;fill:#000000;fill-opacity:1;stroke:none;font-family:Linux Libertine O C;-inkscape-font-specification:Linux Libertine O C"></path><path d="m 98.370576,130.85422 c 0,0.53834 -0.313145,0.78059 -1.1221,0.86135 l -0.521907,0.0538 c -0.104382,0 -0.182668,0.0808 -0.182668,0.1615 l 0,0.56526 0.05219,0.0538 c 0,0 2.035439,-0.0538 2.766108,-0.0538 0.808951,0 2.792201,0.0538 2.792201,0.0538 l 0.0522,-0.0538 0,-0.56526 c 0,-0.0807 -0.0783,-0.1615 -0.18267,-0.1615 l -0.548,-0.0538 c -0.80895,-0.0808 -1.096,-0.26918 -1.096,-0.86135 l 0,-3.74149 2.87049,-5.22193 c 0.39143,-0.72677 0.5219,-0.88827 1.35695,-0.99594 l 0.44362,-0.0538 c 0.18267,-0.0269 0.18267,-0.0808 0.18267,-0.13459 l 0,-0.59218 -0.0261,-0.0538 c -0.39143,0.0269 -1.59182,0.0538 -1.77449,0.0538 -0.26095,0 -1.72229,-0.0538 -2.00934,-0.0538 l -0.0522,0.0269 0,0.6191 c 0,0.0538 0.0261,0.13459 0.10438,0.13459 l 0.60019,0.0538 c 0.62629,0.0538 0.62629,0.0808 0.28705,0.72676 l -2.426864,4.44134 -0.05219,0 -2.635631,-4.44134 c -0.260953,-0.43067 -0.365334,-0.67293 0.260953,-0.72676 l 0.574098,-0.0538 c 0.07829,0 0.130477,-0.0808 0.130477,-0.13459 l 0,-0.6191 -0.02609,-0.0269 c -0.313144,0.0269 -2.505154,0.0538 -2.635631,0.0538 -0.287048,0 -1.904961,-0.0538 -2.139819,-0.0538 l -0.05219,0.0538 0,0.59218 c 0,0.10767 0.130477,0.13459 0.208763,0.13459 0.756765,0.0807 1.174292,0.24225 1.51353,0.80751 l 3.288015,5.57186 0,3.63382" id="path3498" style="font-size:25px;font-style:normal;font-variant:normal;font-weight:normal;font-stretch:normal;text-align:start;line-height:100%;letter-spacing:-1;writing-mode:lr-tb;text-anchor:start;fill:#000000;fill-opacity:1;stroke:none;font-family:Linux Libertine O C;-inkscape-font-specification:Linux Libertine O C"></path><path d="m 107.72332,128.08175 c 0.0522,-0.18842 0.23485,-0.29609 0.57409,-0.29609 l 4.46231,0 1.17429,3.12239 c 0.0261,0.10767 0.0522,0.21534 0.0522,0.29609 0,0.34992 -0.44362,0.43067 -1.04381,0.51143 l -0.46972,0.0538 c -0.10438,0 -0.18267,0.0808 -0.18267,0.1615 l 0,0.56526 0.0522,0.0538 c 0,0 2.19201,-0.0538 2.92268,-0.0538 0.78286,0 2.16592,0.0538 2.16592,0.0538 l 0.0783,-0.0538 0,-0.56526 c 0,-0.0807 -0.0261,-0.13458 -0.20876,-0.1615 -0.86115,-0.0807 -1.17429,-0.24225 -1.61791,-1.31894 l -3.80992,-10.04011 c -0.18267,-0.45759 -0.49581,-0.67293 -1.04382,-0.67293 -0.23485,0 -0.65238,0.26917 -0.83505,0.69985 l -4.59278,10.17469 c -0.44362,0.96902 -1.01772,1.07669 -1.6701,1.15744 -0.0783,0 -0.15658,0.0808 -0.15658,0.1615 l 0,0.56526 0.0522,0.0538 c 0,0 1.17429,-0.0538 1.69619,-0.0538 0.49582,0 2.66173,0.0538 2.66173,0.0538 l 0.0522,-0.0538 0,-0.56526 c 0,-0.0807 -0.0783,-0.1615 -0.15657,-0.1615 l -0.33924,-0.0269 c -0.65239,-0.0538 -1.06991,-0.13458 -1.06991,-0.48451 0,-0.0807 0.0522,-0.21533 0.10438,-0.34992 l 1.1482,-2.8263 m 4.72326,-1.07669 -3.54897,0 c -0.52191,0 -0.52191,-0.24226 -0.52191,-0.37684 l 1.98325,-4.92584 0.0261,0 2.06154,5.30268 m -0.52191,-9.93244 c 0,0.67293 0.548,1.23819 1.20038,1.23819 0.65239,0 1.1743,-0.56526 1.1743,-1.23819 0,-0.67293 -0.52191,-1.21127 -1.1743,-1.21127 -0.65238,0 -1.20038,0.53834 -1.20038,1.21127 m -4.17526,0 c 0,0.67293 0.52191,1.23819 1.17429,1.23819 0.65239,0 1.20039,-0.56526 1.20039,-1.23819 0,-0.67293 -0.548,-1.21127 -1.20039,-1.21127 -0.65238,0 -1.17429,0.53834 -1.17429,1.21127" id="path3500" style="font-size:25px;font-style:normal;font-variant:normal;font-weight:normal;font-stretch:normal;text-align:start;line-height:100%;letter-spacing:-1;writing-mode:lr-tb;text-anchor:start;fill:#000000;fill-opacity:1;stroke:none;font-family:Linux Libertine O C;-inkscape-font-specification:Linux Libertine O C"></path><path d="m 123.35728,124.8786 c -0.57409,0 -0.75676,-0.0808 -0.65238,-0.34992 l 2.60954,-6.83696 0.0522,0 2.53125,7.18688 -4.5406,0 m -2.89658,5.49111 1.51353,-3.90299 c 0.13048,-0.34993 0.28705,-0.4576 0.91334,-0.4576 l 5.42783,0 1.59182,4.54901 c 0.26095,0.75368 -0.10438,1.07668 -1.09601,1.15744 l -0.73067,0.0538 c -0.13047,0 -0.18266,0.0808 -0.18266,0.21534 l 0,0.51142 0.0261,0.0538 c 0,0 2.55735,-0.0538 3.47068,-0.0538 1.01772,0 3.02706,0.0538 3.02706,0.0538 l 0.0783,-0.0538 0,-0.51142 c 0,-0.13459 -0.13048,-0.21534 -0.26095,-0.21534 l -0.28705,-0.0269 c -1.04382,-0.10767 -1.56572,-0.51142 -1.93106,-1.56119 l -5.34955,-14.58911 c -0.20876,-0.53835 -0.33924,-0.80752 -0.70457,-0.80752 -0.39143,0 -0.60019,0.26917 -0.88724,0.96902 l -5.79317,13.99693 c -0.73067,1.7227 -1.38306,1.93804 -2.53125,2.01879 -0.13048,0 -0.20876,0.0808 -0.20876,0.21534 l 0,0.51142 0.0522,0.0538 c 0,0 1.6701,-0.0538 2.34858,-0.0538 0.62629,0 3.47068,0.0538 3.47068,0.0538 l 0.0522,-0.0538 0,-0.51142 c 0,-0.13459 -0.10438,-0.21534 -0.20876,-0.21534 l -0.75677,-0.0538 c -0.96552,-0.0808 -1.30476,-0.67293 -1.04381,-1.34586" id="path3502" style="font-size:25px;font-style:normal;font-variant:normal;font-weight:normal;font-stretch:normal;text-align:start;line-height:100%;letter-spacing:-1;writing-mode:lr-tb;text-anchor:start;fill:#000000;fill-opacity:1;stroke:none;font-family:Linux Libertine O C;-inkscape-font-specification:Linux Libertine O C"></path></g><g id="the_free_encyclopedia" style="font-size:13px;font-style:normal;font-variant:normal;font-weight:normal;font-stretch:normal;text-align:start;line-height:125%;writing-mode:lr-tb;text-anchor:start;fill:#000000;fill-opacity:1;stroke:none;font-family:Linux Libertine O;-inkscape-font-specification:Linux Libertine O"><path d="m 33.935218,140.344 0,4.342 c 0,0.247 0,0.39 -0.091,0.39 -0.104,0 -0.247,-0.234 -0.624,-0.715 l -4.459,-5.746 -1.755,-0.026 c -0.078,0.078 -0.078,0.351 0,0.429 0.559,0.039 0.949,0.494 1.027,0.832 l 0,5.421 c 0,1.157 -0.221001,1.235 -1.131,1.326 -0.078,0.078 -0.078,0.351 0,0.429 0.637,-0.013 0.884001,-0.026 1.456,-0.026 0.559,0 0.793001,0.013 1.443,0.026 0.078,-0.078 0.078,-0.351 0,-0.429 -0.909999,-0.091 -1.131,-0.143 -1.131,-1.326 l 0,-3.978 c 0,-0.442 0,-0.637 0.104,-0.637 0.078,0 0.221,0.143 0.442,0.429 l 4.537,5.733 c 0.143,0.195 0.312,0.312 0.52,0.312 0.182,0 0.299,-0.156 0.299,-0.403 l 0,-6.383 c 0,-1.157 0.221001,-1.235 1.131,-1.326 0.078,-0.078 0.078,-0.351 0,-0.429 -0.636999,0.013 -0.884,0.026 -1.456,0.026 -0.558999,0 -0.793,-0.013 -1.443,-0.026 -0.078,0.078 -0.078,0.351 0,0.429 0.909999,0.091 1.131,0.143 1.131,1.326" id="path3514"></path><path d="m 37.630062,138.42 c -0.143,-0.039 -0.286,-0.026 -0.416,0 -0.377,0.598 -0.975001,1.3 -1.443,1.82 0.078,0.117 0.169,0.195 0.286,0.221 0.506999,-0.286 0.936,-0.663 1.352,-1.079 0.39,0.403 0.845,0.767 1.339,1.079 0.117,-0.013 0.234,-0.13 0.299,-0.221 -0.468,-0.52 -1.04,-1.209 -1.417,-1.82 m 0.52,6.994 0,-2.587 c 0,-0.65 0.052,-1.482 0.052,-1.482 0,-0.052 -0.065,-0.091 -0.169,-0.091 -0.377,0.143 -0.884001,0.26 -1.781,0.377 -0.026,0.078 0,0.286 0.026,0.364 0.701999,0.078 0.845,0.143 0.845,0.884 l 0,2.535 c 0,1.079 -0.143001,1.118 -0.936,1.183 -0.078,0.078 -0.078,0.351 0,0.429 0.545999,-0.013 0.884,-0.026 1.456,-0.026 0.558999,0 0.884,0.013 1.443,0.026 0.078,-0.078 0.078,-0.351 0,-0.429 -0.792999,-0.052 -0.936,-0.104 -0.936,-1.183" id="path3516"></path><path d="m 43.369359,141.254 c -0.039,0 -0.078,0.052 -0.078,0.078 -0.013,0.585 -0.091,1.079 -0.195,1.716 0.104,0.052 0.273,0.078 0.429,0.039 0.26,-0.949 0.663,-1.222 1.053,-1.222 l 1.794,0 -3.198,4.719 c -0.104,0.156 -0.117,0.195 -0.117,0.26 0,0.091 0.104,0.156 0.299,0.156 l 4.056,0 c 0.065,-0.403 0.195,-1.014 0.416,-1.768 -0.091,-0.039 -0.234,-0.091 -0.39,-0.091 l -0.169,0.377 c -0.312,0.689 -0.533001,1.04 -1.287,1.04 l -1.729,0 3.12,-4.589 c 0.221,-0.338 0.286,-0.494 0.286,-0.546 0,-0.052 -0.065,-0.091 -0.156,-0.091 -0.065,0 -0.481001,0.091 -0.858,0.091 l -2.639,0 c -0.429,0 -0.416,-0.117 -0.637,-0.169" id="path3518"></path><path d="m 51.895124,143.971 0,1.729 c 0,0.169 -0.078,0.26 -0.182,0.338 -0.337999,0.273 -0.78,0.559 -1.144,0.559 -0.649999,0 -0.936,-0.52 -0.936,-0.923 0,-0.585 0.273001,-1.17 1.235,-1.43 l 1.027,-0.273 m 0,2.405 c 0.078,0.273 0.299001,0.754 1.001,0.754 0.637,0 1.105,-0.52 1.105,-0.585 0,-0.091 -0.117,-0.221 -0.169,-0.221 -0.078,0 -0.13,0.208 -0.403,0.208 -0.506999,0 -0.52,-0.507 -0.52,-1.105 l 0,-1.937 c 0,-1.846 -1.014001,-2.197 -1.963,-2.197 -1.065999,0 -2.145,0.741 -2.145,1.443 0,0.312 0.156001,0.455 0.455,0.455 0.377,0 0.572,-0.26 0.572,-0.429 0,-0.091 -0.013,-0.182 -0.039,-0.234 -0.013,-0.039 -0.026,-0.117 -0.026,-0.26 0,-0.403 0.585001,-0.546 1.079,-0.546 0.442,0 1.053,0.221 1.053,1.69 0,0.091 -0.039,0.143 -0.078,0.156 l -1.118,0.273 c -1.247998,0.312 -2.145,1.001 -2.145,1.885 0,1.027 0.728001,1.404 1.638,1.404 0.598,0 0.845001,-0.104 1.417,-0.546 l 0.26,-0.208 0.026,0" id="path3520"></path><path d="m 55.327531,142.879 0,2.535 c 0,1.079 -0.156001,1.131 -0.962,1.183 -0.078,0.078 -0.078,0.351 0,0.429 0.545999,-0.013 0.962,-0.026 1.482,-0.026 0.532999,0 1.014,0.013 1.573,0.026 0.078,-0.078 0.078,-0.351 0,-0.429 -0.909999,-0.065 -1.066,-0.104 -1.066,-1.183 l 0,-1.807 c 0,-0.338 0.156,-0.637 0.312,-0.871 0.143,-0.208 0.442,-0.637 0.598,-0.637 0.091,0 0.195,0.013 0.273,0.091 0.13,0.13 0.26,0.377 0.533,0.377 0.311999,0 0.611,-0.325 0.611,-0.65 0,-0.247 -0.234001,-0.624 -0.78,-0.624 -0.611,0 -1.144001,0.572 -1.443,1.079 -0.078,0.143 -0.117,0.078 -0.117,0.013 0,-0.416 0.065,-1.04 0.065,-1.04 0,-0.052 -0.065,-0.091 -0.169,-0.091 -0.364,0.143 -0.884001,0.26 -1.781,0.377 -0.026,0.078 -0.026,0.286 0.026,0.364 0.701999,0.065 0.845,0.169 0.845,0.884" id="path3522"></path><path d="m 59.930749,139.525 c 0,0.338 0.273001,0.611 0.611,0.611 0.338,0 0.611,-0.273 0.611,-0.611 0,-0.338 -0.273,-0.624 -0.611,-0.624 -0.337999,0 -0.611,0.286 -0.611,0.624 m 2.197,0 c 0,0.338 0.273001,0.611 0.611,0.611 0.338,0 0.611,-0.273 0.611,-0.611 0,-0.338 -0.273,-0.624 -0.611,-0.624 -0.337999,0 -0.611,0.286 -0.611,0.624 m 0.533,4.446 0,1.729 c 0,0.169 -0.078,0.26 -0.182,0.338 -0.337999,0.273 -0.78,0.559 -1.144,0.559 -0.649999,0 -0.936,-0.52 -0.936,-0.923 0,-0.585 0.273001,-1.17 1.235,-1.43 l 1.027,-0.273 m 0,2.405 c 0.078,0.273 0.299001,0.754 1.001,0.754 0.637,0 1.105,-0.52 1.105,-0.585 0,-0.091 -0.117,-0.221 -0.169,-0.221 -0.078,0 -0.13,0.208 -0.403,0.208 -0.506999,0 -0.52,-0.507 -0.52,-1.105 l 0,-1.937 c 0,-1.846 -1.014001,-2.197 -1.963,-2.197 -1.065999,0 -2.145,0.741 -2.145,1.443 0,0.312 0.156001,0.455 0.455,0.455 0.377,0 0.572,-0.26 0.572,-0.429 0,-0.091 -0.013,-0.182 -0.039,-0.234 -0.013,-0.039 -0.026,-0.117 -0.026,-0.26 0,-0.403 0.585001,-0.546 1.079,-0.546 0.442,0 1.053,0.221 1.053,1.69 0,0.091 -0.039,0.143 -0.078,0.156 l -1.118,0.273 c -1.247998,0.312 -2.145,1.001 -2.145,1.885 0,1.027 0.728001,1.404 1.638,1.404 0.598,0 0.845001,-0.104 1.417,-0.546 l 0.26,-0.208 0.026,0" id="path3524"></path><path d="m 68.667156,145.206 c 0.052,0.637 0.091,1.248 0.091,1.794 0.13,-0.026 0.26,-0.039 0.325,-0.039 0.091,0 0.169,0 0.26,0.026 0.350999,0.091 0.702,0.143 1.183,0.143 0.727999,0 2.067,-0.351 2.067,-1.638 0,-0.884 -0.650001,-1.391 -1.521,-1.729 -0.78,-0.299 -1.3,-0.494 -1.3,-1.209 0,-0.533 0.468,-0.832 0.91,-0.832 0.285999,0 1.04,0.104 1.209,1.209 0.078,0.078 0.338,0.065 0.416,-0.013 0,-0.468 0.065,-0.949 0.078,-1.378 -0.403,-0.065 -1.027001,-0.247 -1.703,-0.247 -0.961999,0 -1.833,0.624 -1.833,1.456 0,0.949 0.429001,1.352 1.43,1.768 1.065999,0.455 1.326,0.715 1.326,1.274 0,0.637 -0.624001,0.91 -1.105,0.91 -0.507,0 -0.793,-0.169 -0.923,-0.312 -0.312,-0.299 -0.429,-0.871 -0.507,-1.196 -0.078,-0.078 -0.325,-0.065 -0.403,0.013" id="path3526"></path><path d="m 76.256718,138.42 c -0.143,-0.039 -0.286,-0.026 -0.416,0 -0.376999,0.598 -0.975,1.3 -1.443,1.82 0.078,0.117 0.169,0.195 0.286,0.221 0.507,-0.286 0.936001,-0.663 1.352,-1.079 0.39,0.403 0.845001,0.767 1.339,1.079 0.117,-0.013 0.234,-0.13 0.299,-0.221 -0.467999,-0.52 -1.04,-1.209 -1.417,-1.82 m -1.625,4.914 c 0.247,-1.469 1.157,-1.586 1.469,-1.586 0.494,0 1.079,0.273 1.079,1.365 0,0.117 -0.052,0.182 -0.195,0.182 l -2.353,0.039 m 3.406,2.457 c -0.480999,0.494 -0.858001,0.702 -1.612,0.702 -0.467999,0 -1.014,-0.273 -1.417,-0.936 -0.26,-0.429 -0.416,-1.027 -0.416,-1.781 l 3.458,0.026 c 0.156,0 0.247,-0.078 0.247,-0.221 0,-1.092 -0.390002,-2.262 -2.197,-2.262 -1.130999,0 -2.6,1.079 -2.6,3.055 0,0.728 0.182001,1.43 0.611,1.924 0.442,0.52 1.053001,0.832 1.989,0.832 0.987999,0 1.690001,-0.455 2.21,-1.131 -0.039,-0.13 -0.117,-0.195 -0.273,-0.208" id="path3528"></path><path d="m 81.226171,142.346 c -0.039,0.052 -0.13,0.182 -0.13,0 0,-0.39 0.065,-0.988 0.065,-0.988 0,-0.065 -0.052,-0.104 -0.156,-0.104 -0.363999,0.143 -0.897001,0.26 -1.794,0.377 -0.026,0.078 0,0.286 0.026,0.364 0.702,0.065 0.845,0.13 0.845,0.884 l 0,2.535 c 0,1.066 -0.13,1.118 -0.91,1.183 -0.078,0.078 -0.078,0.351 0,0.429 0.533,-0.013 0.871001,-0.026 1.43,-0.026 0.507,0 0.741001,0.013 1.287,0.026 0.078,-0.078 0.078,-0.351 0,-0.429 -0.662999,-0.065 -0.78,-0.117 -0.78,-1.183 l 0,-2.132 c 0,-0.273 0.117,-0.429 0.221,-0.546 0.494,-0.481 1.001001,-0.767 1.508,-0.767 0.26,0 0.533,0.169 0.689,0.468 0.13,0.26 0.156,0.611 0.156,1.001 l 0,1.976 c 0,1.066 -0.13,1.118 -0.806,1.183 -0.065,0.078 -0.065,0.351 0,0.429 0.546,-0.013 0.806001,-0.026 1.326,-0.026 0.533,0 0.819001,0.013 1.378,0.026 0.065,-0.078 0.065,-0.351 0,-0.429 -0.727999,-0.065 -0.871,-0.117 -0.871,-1.183 l 0,-1.937 c 0,-0.715 -0.052,-1.339 -0.351,-1.742 -0.220999,-0.286 -0.624,-0.442 -1.079,-0.442 -0.636999,0 -1.261,0.169 -2.054,1.053" id="path3530"></path><path d="m 90.276203,145.388 c 0,0.247 -0.026,0.351 -0.208,0.507 -0.481,0.416 -0.897001,0.624 -1.222,0.624 -0.702,0 -1.43,-0.767 -1.43,-2.392 0,-0.936 0.182,-1.456 0.377,-1.729 0.402999,-0.611 0.949,-0.65 1.209,-0.65 0.467999,0 0.793,0.169 1.053,0.468 0.181999,0.208 0.221,0.299 0.221,0.702 l 0,2.47 m -0.143,0.962 c 0.052,-0.052 0.156,-0.078 0.156,0.013 0,0.312 0.143,0.767 0.143,0.767 0.103999,0.039 0.143,0.026 0.247,0 0.285999,-0.234 0.78,-0.429 1.573,-0.52 0.078,-0.078 0.078,-0.273 0,-0.351 -0.832,-0.065 -0.949,-0.312 -0.949,-0.949 l 0,-5.889 c 0,-0.845 0.052,-1.365 0.052,-1.365 0,-0.091 -0.052,-0.13 -0.169,-0.13 -0.325,0.13 -1.300001,0.312 -1.82,0.351 -0.026,0.104 0,0.312 0.078,0.39 0.675999,0.039 0.832,-0.026 0.832,1.066 l 0,1.664 c 0,0.091 -0.026,0.117 -0.117,0.117 -0.052,0 -0.585001,-0.221 -1.014,-0.221 -0.858,0 -1.430001,0.286 -1.95,0.78 -0.559,0.559 -0.897,1.326 -0.897,2.288 0,1.599 0.806001,2.769 2.21,2.769 0.506999,0 0.988,-0.26 1.625,-0.78" id="path3532"></path><path d="m 95.370374,138.42 c -0.142999,-0.039 -0.286,-0.026 -0.416,0 -0.376999,0.598 -0.975,1.3 -1.443,1.82 0.078,0.117 0.169001,0.195 0.286,0.221 0.507,-0.286 0.936001,-0.663 1.352,-1.079 0.39,0.403 0.845001,0.767 1.339,1.079 0.117,-0.013 0.234,-0.13 0.299,-0.221 -0.467999,-0.52 -1.04,-1.209 -1.417,-1.82 m 0.806,5.551 0,1.729 c 0,0.169 -0.078,0.26 -0.182,0.338 -0.337999,0.273 -0.78,0.559 -1.144,0.559 -0.649999,0 -0.936,-0.52 -0.936,-0.923 0,-0.585 0.273001,-1.17 1.235,-1.43 l 1.027,-0.273 m 0,2.405 c 0.078,0.273 0.299001,0.754 1.001,0.754 0.637,0 1.105,-0.52 1.105,-0.585 0,-0.091 -0.117,-0.221 -0.169,-0.221 -0.078,0 -0.13,0.208 -0.403,0.208 -0.506999,0 -0.52,-0.507 -0.52,-1.105 l 0,-1.937 c 0,-1.846 -1.014001,-2.197 -1.963,-2.197 -1.065999,0 -2.145,0.741 -2.145,1.443 0,0.312 0.156001,0.455 0.455,0.455 0.377,0 0.572,-0.26 0.572,-0.429 0,-0.091 -0.013,-0.182 -0.039,-0.234 -0.013,-0.039 -0.026,-0.117 -0.026,-0.26 0,-0.403 0.585001,-0.546 1.079,-0.546 0.442,0 1.053,0.221 1.053,1.69 0,0.091 -0.039,0.143 -0.078,0.156 l -1.118,0.273 c -1.247998,0.312 -2.145,1.001 -2.145,1.885 0,1.027 0.728001,1.404 1.638,1.404 0.598,0 0.845001,-0.104 1.417,-0.546 l 0.26,-0.208 0.026,0" id="path3534"></path><path d="m 102.45578,143.373 c 0,1.209 -0.611,1.456 -1.092,1.456 -1.092,0 -1.209,-0.923 -1.209,-1.755 0,-0.91 0.325,-1.378 1.04,-1.378 0.819,0 1.261,0.598 1.261,1.677 m -2.431,3.757 c 0.143,0.039 0.351,0.065 0.52,0.065 0.403,0 0.767,-0.039 0.949,-0.039 0.65,0 1.196,0.013 1.573,0.221 0.507,0.286 0.663,0.468 0.663,0.806 0,0.936 -1.378,1.43 -2.548,1.43 -0.468,0 -1.559999,-0.377 -1.559999,-1.261 0,-0.442 0.026,-0.767 0.402999,-1.222 m 4.056,-5.161 c 0.247,0 0.481,-0.234 0.481,-0.494 0,-0.273 -0.247,-0.481 -0.598,-0.481 -0.338,0 -0.962,0.221 -1.3,0.663 -0.156,-0.104 -0.585,-0.364 -1.352,-0.364 -1.157,0 -2.222999,0.78 -2.222999,1.976 0,0.702 0.312,1.105 0.676,1.456 -0.364,0.312 -0.572,0.871 -0.572,1.313 0,0.468 0.26,0.832 0.598,1.001 -0.702,0.416 -1.066,1.014 -1.066,1.573 0,1.131 1.066001,1.482 2.066999,1.482 1.755,0 3.653,-0.845 3.653,-2.249 0,-0.416 -0.195,-0.741 -0.572,-1.053 -0.507,-0.416 -1.417,-0.429 -1.898,-0.429 -0.234,0 -0.559,0.026 -0.871,0.065 -0.195,0.013 -0.325,0.026 -0.39,0.026 -0.377,0 -0.831999,-0.182 -0.831999,-0.741 0,-0.26 0.078,-0.533 0.233999,-0.754 0.312,0.182 0.676,0.273 1.183,0.273 1.144,0 2.197,-0.715 2.197,-1.989 0,-0.611 -0.182,-0.962 -0.559,-1.352 0.091,-0.13 0.351,-0.312 0.52,-0.312 0.091,0 0.182,0.039 0.26,0.156 0.052,0.104 0.221,0.234 0.364,0.234" id="path3536"></path><path d="m 106.64178,138.42 c -0.143,-0.039 -0.286,-0.026 -0.416,0 -0.377,0.598 -0.975,1.3 -1.443,1.82 0.078,0.117 0.169,0.195 0.286,0.221 0.507,-0.286 0.936,-0.663 1.352,-1.079 0.39,0.403 0.845,0.767 1.339,1.079 0.117,-0.013 0.234,-0.13 0.299,-0.221 -0.468,-0.52 -1.04,-1.209 -1.417,-1.82 m 0.52,6.994 0,-2.587 c 0,-0.65 0.052,-1.482 0.052,-1.482 0,-0.052 -0.065,-0.091 -0.169,-0.091 -0.377,0.143 -0.884,0.26 -1.781,0.377 -0.026,0.078 0,0.286 0.026,0.364 0.702,0.078 0.845,0.143 0.845,0.884 l 0,2.535 c 0,1.079 -0.143,1.118 -0.936,1.183 -0.078,0.078 -0.078,0.351 0,0.429 0.546,-0.013 0.884,-0.026 1.456,-0.026 0.559,0 0.884,0.013 1.443,0.026 0.078,-0.078 0.078,-0.351 0,-0.429 -0.793,-0.052 -0.936,-0.104 -0.936,-1.183" id="path3538"></path></g></svg>
</svg>