<?xml version="1.0" encoding="UTF-8" standalone="no"?>
<svg
   xmlns:dc="http://purl.org/dc/elements/1.1/"
   xmlns:cc="http://creativecommons.org/ns#"
   xmlns:rdf="http://www.w3.org/1999/02/22-rdf-syntax-ns#"
   xmlns:svg="http://www.w3.org/2000/svg"
   xmlns="http://www.w3.org/2000/svg"
   id="svg2728"
   height="28.261528"
   width="383.68979"
   version="1.0">
  <metadata
     id="metadata18">
    <rdf:RDF>
      <cc:Work
         rdf:about="">
        <dc:format>image/svg+xml</dc:format>
        <dc:type
           rdf:resource="http://purl.org/dc/dcmitype/StillImage" />
      </cc:Work>
    </rdf:RDF>
  </metadata>
  <defs
     id="defs2731" />
  <path
     id="text2406"
     d="M 14.097886,7.2307 H 12.634898 V 4.4994148 C 12.634884,4.3460963 12.58652,4.1879692 12.489808,4.0250335 12.401123,3.8621415 12.300371,3.7567234 12.187538,3.7087793 12.155283,3.6895886 12.082737,3.6417209 11.969903,3.5650344 11.857042,3.4787852 11.707923,3.392547 11.522543,3.306276 11.345198,3.2200268 11.135625,3.1433839 10.89382,3.0762819 10.651993,2.9996281 10.381964,2.9612902 10.083737,2.9612793 9.4469429,2.9612902 8.8222513,3.0810904 8.209661,3.3206581 7.5970505,3.5602585 7.0126623,3.905266 6.4564926,4.3556699 5.9083687,4.8061064 5.4005555,5.3571524 4.9330512,6.0088078 4.465534,6.660496 4.0584773,7.4032093 3.7118793,8.2369584 3.3733316,9.0611449 3.1073338,9.9715697 2.913885,10.968233 c -0.1934562,0.996685 -0.2901829,2.06045 -0.2901793,3.191284 -3.6e-6,1.111677 0.1329948,2.07481 0.3989972,2.889402 0.2740537,0.814591 0.6408079,1.490224 1.1002638,2.026898 0.4594447,0.536675 0.9954701,0.934381 1.6080778,1.193128 0.6206536,0.258759 1.2775871,0.388132 1.9708024,0.388132 0.2659886,0 0.507804,-0.01919 0.7254481,-0.05746 0.2176248,-0.04787 0.4030168,-0.100642 0.5561779,-0.158127 0.1611996,-0.05746 0.2901683,-0.110215 0.386906,-0.158127 0.096716,-0.05746 0.1611996,-0.09584 0.1934525,-0.115002 0.096716,-0.01919 0.2015029,-0.08625 0.3143607,-0.201252 0.1208971,-0.124587 0.2055329,-0.253961 0.2539079,-0.388132 l 1.063991,-3.363783 h 1.462988 l -0.664995,4.772545 c -0.09674,0.03838 -0.306313,0.1198 -0.628722,0.244387 -0.314373,0.124576 -0.705309,0.258747 -1.172808,0.402503 -0.4594625,0.134161 -0.9753362,0.253961 -1.5476241,0.359379 -0.5723081,0.114991 -1.1566963,0.172498 -1.7531675,0.172498 -0.8221822,0 -1.5637512,-0.110216 -2.224709,-0.330625 C 4.0060837,21.615457 3.4216945,21.313574 2.913885,20.93024 2.4060681,20.546905 1.9667686,20.091693 1.5959873,19.564603 1.2251995,19.037512 0.92292974,18.467297 0.68917618,17.853958 0.45541887,17.231045 0.28211737,16.579368 0.16927134,15.898937 0.05642247,15.218517 -1.1922246e-6,14.528513 0,13.828913 -1.1922246e-6,12.784328 0.10881597,11.754114 0.32645187,10.73826 0.54408473,9.7224285 0.85844551,8.7592947 1.2695354,7.848859 1.68062,6.9288607 2.1803727,6.0807294 2.7687954,5.3044542 3.3572106,4.5186382 4.0181739,3.8430053 4.7516889,3.2775662 5.4932516,2.7121599 6.2993054,2.2713188 7.1698504,1.9550537 8.0484404,1.6292368 8.9794321,1.4663121 9.9628285,1.4662903 c 0.4030155,2.18e-5 0.7899205,0.028786 1.1607175,0.086249 0.370773,0.047977 0.745587,0.1245979 1.124446,0.2299941 0.378831,0.095845 0.773797,0.2204424 1.184899,0.3737609 0.411073,0.1437668 0.854402,0.3066807 1.329989,0.4887526 l -0.664994,4.5856748 m 9.527559,2.9181442 c 0.0081,-0.04787 -0.02419,-0.1581056 -0.09673,-0.3306257 C 23.464227,9.6457529 23.383619,9.4684569 23.286902,9.2863632 23.190167,9.0947069 23.08538,8.9269953 22.97254,8.7832285 22.867745,8.6394945 22.77908,8.5676165 22.706543,8.5676056 c -0.62873,1.09e-5 -1.192968,0.1245979 -1.692714,0.37375 -0.491699,0.2396004 -0.922938,0.5702258 -1.293716,0.9918872 -0.37079,0.4120992 -0.689181,0.8912672 -0.955174,1.4375152 -0.257942,0.54627 -0.467516,1.116474 -0.628723,1.710645 -0.161214,0.594181 -0.278091,1.193138 -0.350633,1.796893 -0.07254,0.603755 -0.108821,1.178768 -0.108818,1.725016 -3e-6,0.412088 0.02821,0.824176 0.08464,1.236264 0.05642,0.412088 0.153147,0.785838 0.29018,1.121261 0.145085,0.335423 0.338538,0.608552 0.580358,0.819378 0.249872,0.210836 0.568264,0.316254 0.955174,0.316254 0.290175,0 0.580353,-0.07665 0.870539,-0.230005 0.290173,-0.15333 0.560201,-0.330626 0.810084,-0.531877 0.24987,-0.201252 0.467504,-0.402504 0.652904,-0.603755 0.185385,-0.201252 0.322414,-0.354581 0.411087,-0.459999 l 1.293718,-8.121967 m 3.639333,10.75261 c -0.09674,0.04787 -0.274071,0.138958 -0.531996,0.273129 -0.257949,0.124587 -0.548128,0.253961 -0.870538,0.388132 -0.314372,0.124587 -0.636793,0.234792 -0.967265,0.330626 -0.322432,0.10544 -0.60455,0.158127 -0.846357,0.158127 -0.298249,0 -0.552155,-0.04307 -0.76172,-0.129374 -0.201523,-0.08625 -0.370794,-0.215634 -0.507815,-0.388132 -0.128976,-0.172498 -0.229733,-0.383335 -0.30227,-0.632508 -0.07255,-0.249164 -0.120915,-0.536664 -0.14509,-0.862503 -0.1854,0.210836 -0.403034,0.436043 -0.652903,0.675633 -0.249884,0.229994 -0.527973,0.445628 -0.834266,0.64688 -0.298246,0.201251 -0.620668,0.364165 -0.967266,0.488752 -0.338547,0.134172 -0.69321,0.201252 -1.063991,0.201252 -0.483636,0 -0.910844,-0.08145 -1.281626,-0.244376 -0.362727,-0.162914 -0.677088,-0.378548 -0.943083,-0.64688 -0.265999,-0.277916 -0.487664,-0.594171 -0.664995,-0.948763 -0.169272,-0.364165 -0.306301,-0.737926 -0.411087,-1.121261 -0.104788,-0.392918 -0.177333,-0.785837 -0.217635,-1.178756 -0.04031,-0.402504 -0.06046,-0.781051 -0.06046,-1.135643 0,-0.757085 0.06852,-1.518967 0.205545,-2.285647 0.137027,-0.776253 0.338541,-1.518966 0.60454,-2.22815 0.274056,-0.718747 0.612599,-1.389582 1.015628,-2.012517 0.403024,-0.622913 0.866505,-1.1643746 1.390443,-1.6243956 0.531992,-0.4599882 1.120411,-0.819367 1.765259,-1.0781363 0.652897,-0.268321 1.366254,-0.4024815 2.140073,-0.4025033 0.225687,2.18e-5 0.447352,0.033584 0.664995,0.1006422 0.225686,0.057572 0.43526,0.1389691 0.628722,0.2443762 0.193444,0.095845 0.370775,0.2060603 0.531996,0.3306254 0.1612,0.1245979 0.298229,0.2539826 0.411087,0.3881322 l 0.362725,-0.7043863 h 1.692713 c -0.04032,0.1150243 -0.08465,0.2539825 -0.132999,0.4168854 -0.04838,0.1533513 -0.09674,0.3114675 -0.14509,0.4743813 -0.04838,0.1629248 -0.09271,0.3162651 -0.132998,0.4599992 -0.03226,0.1437668 -0.0524,0.2539716 -0.06046,0.3306254 -0.05644,0.2587693 -0.137041,0.6516882 -0.241817,1.1787672 -0.104798,0.517517 -0.217645,1.102103 -0.338543,1.75377 -0.112858,0.651677 -0.233766,1.336894 -0.362723,2.055641 -0.120919,0.709184 -0.229736,1.384817 -0.326453,2.026899 -0.09674,0.632508 -0.177342,1.197926 -0.241815,1.696263 -0.06449,0.488763 -0.09674,0.843344 -0.09673,1.063765 -10e-6,0.517505 0.09269,0.872087 0.278089,1.063754 0.185381,0.191678 0.447349,0.287512 0.785902,0.287512 0.0806,0 0.197472,-0.01919 0.350633,-0.05746 0.1612,-0.04787 0.32644,-0.100642 0.495724,-0.158127 0.169259,-0.05746 0.326439,-0.110205 0.471542,-0.158127 0.145076,-0.04787 0.249864,-0.08145 0.31436,-0.100642 v 1.063754 M 27.59123,1.2363179 c -0.09674,0.4983588 -0.26601,1.0014825 -0.507814,1.5093822 -0.233768,0.4983587 -0.540068,0.9535711 -0.918901,1.365648 -0.370796,0.4025143 -0.814126,0.7331397 -1.329989,0.9918763 -0.507825,0.2491848 -1.088183,0.3737718 -1.741078,0.3737609 -0.588427,1.09e-5 -1.088179,-0.1006422 -1.49926,-0.301883 C 21.183094,4.9738724 20.848582,4.7103273 20.590651,4.3844668 20.340768,4.05865 20.155376,3.6896868 20.034473,3.2775881 19.92162,2.8655112 19.865197,2.4486366 19.865202,2.0269425 c -5e-6,-0.1149807 0.004,-0.2395568 0.01209,-0.37375 0.0081,-0.1341496 0.02015,-0.2731078 0.03627,-0.4168746 h 1.293717 c 0.01611,0.4312676 0.08866,0.7954441 0.217634,1.0925076 0.137023,0.2875226 0.306294,0.5223144 0.507814,0.7043863 0.201507,0.1725201 0.423171,0.2970962 0.664995,0.37375 0.249868,0.076654 0.495715,0.1150134 0.737539,0.1150025 0.249868,1.09e-5 0.515866,-0.038272 0.797993,-0.1150025 0.290171,-0.076654 0.568259,-0.2060276 0.834266,-0.3881321 0.274049,-0.182061 0.527955,-0.4168528 0.761722,-0.7043754 0.241805,-0.2970744 0.443318,-0.6564532 0.604541,-1.0781364 h 1.257444 m 9.890283,7.8919509 c -1e-5,0.3450185 -0.0524,0.6229348 -0.157181,0.8337601 -0.104796,0.2012621 -0.253916,0.3545921 -0.44736,0.4599991 -0.193461,0.10544 -0.427217,0.177307 -0.701266,0.215634 -0.266007,0.02879 -0.568277,0.04318 -0.906812,0.04318 L 34.676442,9.2720792 c -0.306308,0.1533403 -0.636789,0.4216832 -0.991446,0.8050068 -0.34661,0.373761 -0.677092,0.805018 -0.991447,1.293759 -0.314366,0.479179 -0.588424,0.977516 -0.822176,1.495011 -0.233759,0.507932 -0.386909,0.977527 -0.45945,1.408773 l -1.293717,7.417569 H 27.820953 L 29.948935,9.1858191 27.869316,8.9127004 V 8.0645582 l 3.73606,-0.9200092 h 0.991446 L 32.076918,10.12021 C 32.584727,9.1906277 33.161054,8.4622857 33.805903,7.9351845 34.45074,7.408116 35.147976,7.1445708 35.897614,7.144549 c 0.298231,2.18e-5 0.548108,0.067059 0.74963,0.2012517 0.201504,0.1245979 0.362715,0.2875226 0.483633,0.4887634 0.128958,0.2012626 0.217625,0.4168855 0.265998,0.6468796 0.05641,0.2300159 0.08462,0.4456388 0.08463,0.6468796 M 42.17274,24.984103 c -6e-6,0.507921 -0.0927,0.963134 -0.278088,1.365637 -0.185398,0.412088 -0.439304,0.757096 -0.761722,1.035012 -0.322426,0.287501 -0.69724,0.503124 -1.124445,0.64689 -0.419151,0.153319 -0.86248,0.229995 -1.329989,0.229995 -0.185395,0 -0.378847,-0.01439 -0.580359,-0.04307 -0.193455,-0.02879 -0.378847,-0.06226 -0.556177,-0.100642 -0.177333,-0.02879 -0.342574,-0.06706 -0.495723,-0.115002 -0.145091,-0.03838 -0.261968,-0.07186 -0.350634,-0.100642 l 0.229726,-1.178757 c 0.185392,0.05746 0.431238,0.124576 0.737539,0.201252 0.306299,0.08625 0.596478,0.129373 0.870538,0.129373 0.112845,0 0.261966,-0.01919 0.447361,-0.05746 0.185389,-0.03838 0.36272,-0.110216 0.531995,-0.215634 0.177329,-0.09584 0.330479,-0.234791 0.45945,-0.416874 0.128966,-0.182094 0.19345,-0.416886 0.193454,-0.704387 -4e-6,-0.143755 -0.02822,-0.268331 -0.08463,-0.37375 -0.04837,-0.09584 -0.112851,-0.177296 -0.193454,-0.244376 -0.07254,-0.05746 -0.157183,-0.100642 -0.253906,-0.129374 -0.09673,-0.02879 -0.193456,-0.04318 -0.29018,-0.04318 -0.07254,0 -0.157183,0.02399 -0.253907,0.07186 -0.09673,0.05746 -0.274061,0.162913 -0.531995,0.316254 l 0.531995,-3.33503 c -0.05643,-0.01919 -0.10882,-0.04307 -0.157181,-0.07186 -0.298241,-0.124587 -0.536027,-0.297085 -0.713358,-0.517506 -0.177333,-0.230005 -0.306302,-0.498337 -0.386905,-0.805006 -0.07254,-0.316255 -0.108818,-0.656464 -0.108817,-1.020641 -10e-7,-0.191656 0.004,-0.388121 0.01209,-0.589373 0.01612,-0.201251 0.04433,-0.407301 0.08464,-0.618137 L 39.331405,9.3583393 37.77169,9.5308376 V 8.5677038 l 1.861986,-0.977516 1.209081,-2.9468972 h 1.511351 l -0.495723,3.3637827 h 3.421699 v 1.351266 H 41.64075 l -1.559714,9.2432167 c -0.04837,0.258758 -0.04031,0.49355 0.02418,0.704375 0.06448,0.201263 0.165238,0.373761 0.30227,0.517506 0.145086,0.134172 0.310327,0.23959 0.495723,0.316255 0.193449,0.07665 0.394962,0.115002 0.604541,0.115002 0.233751,0 0.475567,-0.02399 0.725448,-0.07186 0.249872,-0.05746 0.487657,-0.124576 0.713358,-0.201252 0.23375,-0.07665 0.447354,-0.153329 0.640814,-0.229994 0.201506,-0.08625 0.366746,-0.158127 0.495722,-0.215634 v 1.178768 c -0.104794,0.05746 -0.306307,0.158127 -0.60454,0.301872 -0.298246,0.143756 -0.640819,0.292298 -1.027719,0.445628 -0.386911,0.15334 -0.793968,0.287501 -1.221172,0.402503 -0.314365,0.08625 -0.608575,0.143756 -0.882629,0.172509 l -0.205543,1.451887 c 0.06448,-0.01919 0.124934,-0.03358 0.181362,-0.04318 0.06448,-0.0098 0.128964,-0.01439 0.193452,-0.01439 1.104289,-1.1e-5 1.656436,0.517495 1.656441,1.552506 m 8.427296,-4.140036 c -0.09673,0.04787 -0.274065,0.138959 -0.531996,0.27313 -0.257943,0.13416 -0.560213,0.27313 -0.90681,0.416875 -0.346608,0.134171 -0.713363,0.25396 -1.100264,0.359378 -0.378849,0.10544 -0.737543,0.158127 -1.076082,0.158127 -0.427212,0 -0.765755,-0.08625 -1.015629,-0.258747 -0.249878,-0.172509 -0.43527,-0.397717 -0.556178,-0.675633 -0.120909,-0.277927 -0.189423,-0.589384 -0.205543,-0.934391 -0.01612,-0.344997 0.004,-0.685207 0.06046,-1.02063 L 46.851894,9.1857755 44.723912,8.9126568 V 8.0645146 l 3.73606,-0.9200092 H 49.4756 L 47.601525,18.917756 c -0.03225,0.201251 -0.03225,0.392919 0,0.575001 0.0403,0.182083 0.100752,0.345008 0.181362,0.488753 0.08866,0.134171 0.197479,0.244387 0.326452,0.330636 0.137024,0.07665 0.290174,0.115003 0.45945,0.114992 0.145086,1.1e-5 0.314357,-0.02879 0.507814,-0.08625 0.201508,-0.06706 0.398992,-0.138959 0.59245,-0.215623 0.201508,-0.08625 0.3869,-0.167712 0.556178,-0.244376 0.169264,-0.07665 0.294203,-0.129374 0.374814,-0.158128 v 1.121261 M 50.491227,2.8175235 c -7e-6,0.2204424 -0.03628,0.4312785 -0.108817,0.6325084 -0.06449,0.191689 -0.161217,0.3641873 -0.290181,0.5175058 -0.120913,0.1533513 -0.274063,0.2779382 -0.45945,0.37375 -0.185398,0.086249 -0.399003,0.1293956 -0.640813,0.1293847 -0.507819,1.09e-5 -0.890694,-0.1581162 -1.148627,-0.4743813 -0.257941,-0.3258278 -0.38691,-0.7187467 -0.386906,-1.1787676 -4e-6,-0.1916454 0.03224,-0.3833127 0.09673,-0.5750017 0.07254,-0.1916563 0.173297,-0.3641546 0.302269,-0.5175059 0.137026,-0.1629029 0.302267,-0.2922767 0.495724,-0.3881321 0.193448,-0.1054399 0.415113,-0.1581053 0.664994,-0.1581271 0.233751,2.18e-5 0.439294,0.047977 0.616632,0.1437559 0.185387,0.095844 0.342567,0.2204315 0.471542,0.37375 0.128962,0.1533512 0.225689,0.3306472 0.290179,0.5318771 0.06448,0.191689 0.09672,0.3881539 0.09673,0.5893838 M 68.192174,19.162067 c -0.04032,0.277916 -0.02822,0.503134 0.03627,0.675633 0.06447,0.172498 0.14911,0.311456 0.253907,0.416874 0.112837,0.09584 0.225684,0.162925 0.338543,0.201252 0.120897,0.03838 0.209562,0.05746 0.265998,0.05746 0.05641,0 0.16926,-0.02399 0.338543,-0.07186 0.177319,-0.05746 0.362712,-0.11979 0.556177,-0.186881 0.19344,-0.06706 0.374803,-0.129373 0.544087,-0.18688 l 0.338542,-0.114992 v 1.092508 c -0.09674,0.04787 -0.274071,0.129374 -0.531996,0.244376 -0.257949,0.10544 -0.544098,0.215623 -0.858447,0.330625 -0.314373,0.115003 -0.640824,0.215634 -0.979356,0.301883 -0.330493,0.08625 -0.620672,0.129374 -0.870539,0.129374 -0.378854,0 -0.689184,-0.05746 -0.930992,-0.172498 -0.241825,-0.10544 -0.431247,-0.253961 -0.568268,-0.445628 -0.137037,-0.201252 -0.233764,-0.436054 -0.29018,-0.704386 -0.04837,-0.268332 -0.07255,-0.565418 -0.07254,-0.891256 -0.217642,0.277916 -0.459459,0.551046 -0.725449,0.819378 -0.257944,0.258758 -0.536033,0.49355 -0.834266,0.704386 -0.298246,0.201252 -0.612607,0.364166 -0.943083,0.488752 -0.330487,0.134172 -0.669029,0.201252 -1.015628,0.201252 -0.69321,0 -1.269539,-0.158127 -1.728986,-0.474381 -0.451393,-0.316254 -0.810087,-0.728342 -1.076083,-1.236264 -0.265998,-0.507921 -0.455421,-1.073338 -0.568268,-1.696262 -0.104787,-0.622924 -0.157181,-1.245848 -0.15718,-1.868772 -10e-7,-0.776253 0.06852,-1.552507 0.205544,-2.328771 0.145089,-0.785838 0.354662,-1.533338 0.628722,-2.242522 0.282117,-0.718746 0.624689,-1.384795 1.027719,-1.998145 0.403024,-0.6133288 0.862474,-1.1452059 1.378352,-1.5956424 0.51587,-0.4599882 1.088168,-0.819367 1.716895,-1.0781363 0.636777,-0.2587366 1.317892,-0.3881103 2.043347,-0.3881321 0.185385,2.18e-5 0.366747,0.023988 0.544087,0.071856 0.177323,0.038381 0.346594,0.086249 0.507814,0.1437559 0.161201,0.057463 0.310322,0.1198002 0.44736,0.1868695 0.13702,0.067058 0.257928,0.1198111 0.362724,0.1581271 L 68.409808,2.0268444 66.160917,1.7680969 V 0.87684103 L 69.993705,-4.3615252e-5 h 1.015627 L 68.192174,19.162023 m -0.967265,-9.070719 c 0.0081,-0.03827 -0.04032,-0.1437336 -0.14509,-0.3162537 C 66.983084,9.5929784 66.854115,9.406098 66.692913,9.2144198 66.539754,9.0227635 66.370483,8.8502652 66.185099,8.696914 65.999698,8.5435954 65.826397,8.4669307 65.665194,8.4669089 c -0.604547,2.18e-5 -1.180876,0.210858 -1.728986,0.6325084 -0.548122,0.4120987 -1.031754,0.9823137 -1.450897,1.7106447 -0.419152,0.728353 -0.753665,1.590855 -1.003537,2.587529 -0.249881,0.987101 -0.374818,2.055653 -0.374816,3.205656 -2e-6,0.632508 0.0524,1.178768 0.157181,1.638767 0.112844,0.46001 0.257934,0.838547 0.435269,1.135632 0.185388,0.297085 0.394963,0.517506 0.628722,0.661262 0.233751,0.143745 0.471537,0.215622 0.713358,0.215622 0.22569,0 0.467506,-0.06706 0.725449,-0.201251 0.265991,-0.134161 0.531989,-0.311457 0.797993,-0.531877 0.265992,-0.230005 0.527959,-0.488753 0.785903,-0.776265 0.26599,-0.297074 0.511836,-0.598957 0.73754,-0.905627 l 1.136536,-7.748206 m 11.824813,0 c -9e-6,-0.1916559 -0.03226,-0.3785363 -0.09673,-0.56063 C 78.888505,9.3390177 78.799837,9.1713062 78.686997,9.0275394 78.574142,8.8838053 78.433083,8.7688028 78.263819,8.6825427 78.094541,8.5866982 77.909148,8.5387978 77.707641,8.5387869 c -0.274064,1.09e-5 -0.536031,0.086249 -0.785902,0.2587584 -0.249882,0.1725092 -0.491698,0.4025142 -0.725449,0.6900041 -0.2257,0.2875118 -0.439304,0.6181376 -0.640812,0.9918876 -0.193458,0.373761 -0.37079,0.766679 -0.531996,1.178756 -0.153154,0.412099 -0.290184,0.828974 -0.411088,1.250635 -0.120911,0.421683 -0.217638,0.8194 -0.290179,1.193139 0.523931,-0.05746 1.063987,-0.201241 1.620169,-0.431246 0.564232,-0.229994 1.076076,-0.522293 1.535532,-0.876885 0.459444,-0.364165 0.834259,-0.776253 1.124446,-1.236263 0.298232,-0.459999 0.447351,-0.948752 0.44736,-1.466269 m 2.200527,0.02879 c -1e-5,0.536685 -0.104797,1.030225 -0.314361,1.480639 -0.209583,0.450426 -0.495733,0.857727 -0.858447,1.221881 -0.354673,0.364188 -0.76979,0.690016 -1.245353,0.977516 -0.467519,0.277928 -0.963242,0.517506 -1.48717,0.718758 -0.515881,0.191667 -1.043846,0.349794 -1.583897,0.474381 -0.54006,0.115003 -1.055935,0.186881 -1.547623,0.215623 -0.02419,0.191678 -0.04837,0.421672 -0.07254,0.690004 -0.01612,0.268343 -0.02418,0.493551 -0.02418,0.675633 -3e-6,0.536675 0.05239,1.030225 0.157181,1.48064 0.112844,0.450426 0.270024,0.843344 0.471541,1.178768 0.20957,0.325838 0.459447,0.584586 0.749631,0.776253 0.290174,0.182083 0.616625,0.27313 0.979355,0.27313 0.556171,0 1.168772,-0.23959 1.837803,-0.718758 0.669017,-0.479168 1.45895,-1.193139 2.369799,-2.141901 v 1.8544 c -0.233765,0.268332 -0.519914,0.565417 -0.858447,0.891256 -0.338552,0.316254 -0.725457,0.618126 -1.160718,0.905638 -0.427216,0.277916 -0.894727,0.507921 -1.402534,0.690004 -0.50782,0.191667 -1.043845,0.287501 -1.608078,0.287501 -0.249881,0 -0.523939,-0.02879 -0.822175,-0.08625 -0.290183,-0.05746 -0.580362,-0.158127 -0.870539,-0.301883 -0.290182,-0.153329 -0.5723,-0.359379 -0.846356,-0.618126 -0.266,-0.258759 -0.503785,-0.584586 -0.713358,-0.977516 -0.201515,-0.402493 -0.366756,-0.876874 -0.495724,-1.423133 -0.120908,-0.555833 -0.181362,-1.20751 -0.181362,-1.955021 0,-0.776254 0.07658,-1.54772 0.229726,-2.3144 0.16121,-0.776253 0.382874,-1.514169 0.664994,-2.213768 0.290178,-0.709163 0.636781,-1.365627 1.03981,-1.969393 0.403024,-0.6133281 0.846353,-1.1404184 1.32999,-1.5812705 0.483628,-0.4504038 0.999501,-0.8001981 1.547623,-1.049383 0.556171,-0.2587365 1.128469,-0.3881212 1.716895,-0.3881321 0.572291,1.09e-5 1.047862,0.1150134 1.426716,0.3450076 0.386897,0.2204315 0.697228,0.4887634 0.930993,0.8050067 0.233745,0.3162651 0.398986,0.6421037 0.495723,0.977505 0.09672,0.335434 0.145079,0.6085636 0.145089,0.8193893 m 9.056014,-1.1212614 c -9e-6,0.3450076 -0.06447,0.6229349 -0.193446,0.8337601 -0.128982,0.2012623 -0.286157,0.3593893 -0.471541,0.4743703 -0.185403,0.115014 -0.382885,0.196476 -0.592454,0.244387 -0.201516,0.03838 -0.378849,0.06226 -0.531997,0.07186 L 87.40447,8.8263095 c -0.04833,-0.047868 -0.124947,-0.095845 -0.229727,-0.143745 -0.104789,-0.057463 -0.233762,-0.086249 -0.386901,-0.086249 -0.27407,1.09e-5 -0.503788,0.071856 -0.689181,0.2156229 -0.185394,0.1341823 -0.338543,0.3066806 -0.459445,0.5175059 -0.112851,0.2012625 -0.193456,0.4216831 -0.241815,0.6612617 -0.04833,0.2300051 -0.07254,0.4408411 -0.07254,0.6324971 0,0.268354 0.06447,0.541473 0.193455,0.819389 0.128964,0.268343 0.298235,0.541473 0.507813,0.819378 0.209569,0.268354 0.443331,0.536686 0.701269,0.805007 0.265989,0.258769 0.531988,0.51273 0.797996,0.761882 0.274051,0.258769 0.536014,0.527101 0.785899,0.805018 0.257928,0.268342 0.487655,0.551046 0.689181,0.848131 0.201499,0.287512 0.362717,0.59417 0.483629,0.920009 0.120903,0.325839 0.18135,0.666049 0.181359,1.02063 -9e-6,0.603766 -0.104789,1.183565 -0.314358,1.739398 -0.201517,0.555843 -0.503787,1.049383 -0.906811,1.480639 -0.394972,0.431257 -0.890698,0.776254 -1.487168,1.035012 -0.588427,0.249163 -1.265512,0.37375 -2.031262,0.37375 -0.59648,0 -1.112354,-0.08145 -1.547619,-0.244376 -0.435271,-0.15334 -0.793965,-0.354592 -1.076083,-0.603755 -0.282119,-0.258759 -0.491693,-0.551046 -0.628722,-0.876885 -0.137029,-0.325838 -0.205544,-0.656464 -0.205544,-0.991887 0,-0.469584 0.116879,-0.848131 0.350634,-1.135632 0.241816,-0.297085 0.616631,-0.445628 1.124445,-0.445628 0.153149,0 0.298239,0.02399 0.43527,0.07186 0.137027,0.04787 0.261965,0.10544 0.374818,0.172509 0.112841,0.05746 0.209569,0.124587 0.290174,0.201252 0.08868,0.06706 0.153148,0.124587 0.193455,0.172498 l -0.471541,1.437515 c 0.177332,0.297086 0.394962,0.551046 0.6529,0.761883 0.265998,0.201251 0.608567,0.301883 1.027723,0.301883 0.249876,0 0.49169,-0.05746 0.725452,-0.17251 0.233744,-0.115002 0.439287,-0.277916 0.616629,-0.488752 0.185384,-0.210836 0.330471,-0.464797 0.435269,-0.761882 0.10478,-0.30667 0.157175,-0.64688 0.157175,-1.020641 0,-0.297074 -0.05237,-0.575001 -0.157175,-0.833749 -0.09674,-0.268332 -0.237797,-0.52709 -0.423182,-0.776264 -0.177332,-0.249163 -0.390936,-0.49354 -0.640812,-0.733129 -0.241824,-0.249163 -0.511849,-0.507921 -0.810084,-0.776264 -0.257937,-0.239579 -0.507813,-0.498326 -0.749628,-0.776254 -0.233762,-0.277916 -0.447366,-0.570204 -0.640812,-0.876884 -0.185394,-0.316244 -0.334517,-0.646869 -0.447363,-0.991887 -0.112849,-0.344986 -0.169273,-0.699578 -0.169271,-1.063755 -2e-6,-0.718746 0.137027,-1.356041 0.411091,-1.911896 0.274051,-0.5558218 0.62469,-1.0206187 1.051898,-1.3943905 0.435261,-0.3833235 0.914864,-0.6708244 1.438809,-0.8625025 0.531988,-0.1916563 1.051889,-0.2874899 1.559711,-0.2875117 0.467506,2.18e-5 0.858443,0.067058 1.17281,0.2012516 0.32241,0.1245979 0.580347,0.282725 0.773812,0.4743813 0.201507,0.1821046 0.342559,0.3833563 0.423173,0.6037551 0.08868,0.210847 0.13299,0.4025251 0.132999,0.5750125 m 10.519009,0.2156229 c -1e-5,0.1916782 -0.0242,0.3881431 -0.0725,0.5893838 -0.0484,0.2012625 -0.1451,0.3881435 -0.29019,0.5606305 -0.13703,0.172509 -0.33049,0.330636 -0.580353,0.474381 -0.241824,0.134172 -0.560217,0.230005 -0.95517,0.287501 L 97.512402,8.855052 c -0.44334,0.028786 -0.838303,0.1773069 -1.184906,0.4456279 -0.346604,0.2587693 -0.65291,0.5941924 -0.918899,1.0062581 -0.257938,0.412099 -0.479603,0.881693 -0.664997,1.408773 -0.177332,0.517506 -0.322419,1.044596 -0.43527,1.58126 -0.11285,0.536686 -0.193455,1.058978 -0.241814,1.566889 -0.04833,0.507932 -0.07254,0.958358 -0.07254,1.351266 0,0.479179 0.03632,0.95356 0.108815,1.423144 0.08061,0.46001 0.205543,0.876884 0.374814,1.250634 0.177333,0.364177 0.403024,0.661262 0.677094,0.891256 0.282112,0.230005 0.628716,0.345008 1.039801,0.345008 0.330481,0 0.664997,-0.06706 1.003539,-0.201252 0.338542,-0.143756 0.677084,-0.34021 1.015626,-0.589384 0.346604,-0.249163 0.693198,-0.546248 1.039811,-0.891256 0.346594,-0.344996 0.697233,-0.723544 1.051908,-1.135643 v 1.854401 c -0.25795,0.297085 -0.552156,0.613339 -0.882637,0.948762 -0.33049,0.335413 -0.697242,0.64688 -1.100257,0.934381 -0.403034,0.287501 -0.846365,0.52709 -1.329994,0.718757 -0.475577,0.191668 -0.987416,0.287501 -1.535527,0.287501 -0.588427,0 -1.120424,-0.119789 -1.595992,-0.359379 -0.467515,-0.249163 -0.866513,-0.603755 -1.196994,-1.063765 -0.32242,-0.469583 -0.572295,-1.044585 -0.749628,-1.725016 -0.177332,-0.680419 -0.265999,-1.456673 -0.265999,-2.32877 0,-0.881672 0.08465,-1.725006 0.253912,-2.530023 0.177332,-0.804996 0.419147,-1.557305 0.725443,-2.256904 0.306306,-0.699578 0.669023,-1.332086 1.088179,-1.8975143 0.419147,-0.5749908 0.874566,-1.0637433 1.366256,-1.4662684 0.491691,-0.412066 1.0116,-0.7283202 1.559721,-0.9487517 0.548111,-0.2204097 1.100257,-0.3306145 1.656439,-0.3306363 0.443322,2.18e-5 0.826197,0.067058 1.148625,0.2012516 0.32241,0.1341824 0.584383,0.3018939 0.785903,0.5031347 0.2015,0.2012626 0.35063,0.4264808 0.44736,0.6756329 0.0967,0.2396004 0.14508,0.4695946 0.14509,0.6900042 m 13.73516,11.7444973 c -0.1048,0.04787 -0.29019,0.129373 -0.55617,0.244376 -0.25796,0.115002 -0.54813,0.239589 -0.87054,0.37375 -0.32244,0.124587 -0.65292,0.234792 -0.99145,0.330625 -0.33856,0.09584 -0.63679,0.143756 -0.89472,0.143756 -0.15316,0 -0.34661,-0.02879 -0.58036,-0.08625 -0.23377,-0.04787 -0.45543,-0.138958 -0.66499,-0.27313 -0.20153,-0.143755 -0.36274,-0.340209 -0.48364,-0.589383 -0.12091,-0.249163 -0.14912,-0.575002 -0.0846,-0.977505 l 1.51135,-8.682587 c 0.0726,-0.383323 0.0645,-0.723544 -0.0242,-1.02064 -0.0806,-0.297075 -0.19749,-0.5414509 -0.35063,-0.733129 -0.15316,-0.2012408 -0.32243,-0.3497834 -0.50781,-0.4456279 -0.18541,-0.1054399 -0.34661,-0.1581162 -0.48364,-0.1581271 -0.19346,1.09e-5 -0.43124,0.057463 -0.71336,0.1724983 -0.27407,0.1150134 -0.56827,0.2731405 -0.88262,0.4743813 -0.30631,0.2012626 -0.61664,0.4456384 -0.931,0.7331284 -0.31437,0.277939 -0.60858,0.584608 -0.88263,0.92001 l -1.81362,10.306981 h -2.27307 L 105.49229,2.0268553 103.29176,1.7681078 V 0.87685193 l 3.86906,-0.876884641439 h 0.99145 L 106.48373,9.5019316 c 0.24988,-0.3258169 0.54409,-0.6324866 0.88263,-0.9200093 0.3466,-0.2874899 0.71336,-0.5366529 1.10027,-0.7474999 0.39496,-0.2204097 0.80202,-0.3881213 1.22116,-0.5031347 0.42721,-0.1245652 0.84636,-0.1868586 1.25745,-0.1868804 0.45139,2.18e-5 0.85038,0.086249 1.19699,0.2587583 0.34659,0.1629357 0.62468,0.4120988 0.83427,0.7475109 0.21762,0.3258496 0.35465,0.7379265 0.41108,1.2362526 0.0645,0.4983587 0.0362,1.0781469 -0.0846,1.7393979 l -1.36626,7.920704 c -0.0483,0.277917 -0.0363,0.512719 0.0362,0.704387 0.0725,0.182082 0.16927,0.330625 0.29019,0.445628 0.12895,0.105439 0.26195,0.182082 0.399,0.229994 0.13701,0.03838 0.2418,0.05746 0.31435,0.05746 0.22569,0 0.47154,-0.06706 0.73754,-0.201252 0.26599,-0.134171 0.54005,-0.253961 0.82218,-0.359379 l 0.0242,1.035012 m 6.55322,-0.115002 c -0.0967,0.04787 -0.27406,0.138958 -0.532,0.273129 -0.25794,0.134161 -0.56021,0.27313 -0.90681,0.416875 -0.34661,0.134171 -0.71336,0.25396 -1.10026,0.359379 -0.37885,0.105439 -0.73755,0.158127 -1.07608,0.158127 -0.42722,0 -0.76576,-0.08625 -1.01564,-0.258748 -0.24987,-0.172509 -0.43527,-0.397716 -0.55617,-0.675633 -0.12091,-0.277927 -0.18942,-0.589384 -0.20554,-0.934391 -0.0161,-0.344997 0.004,-0.685207 0.0604,-1.02063 l 1.58389,-9.9763562 -2.12799,-0.2731187 V 8.0643729 l 3.73606,-0.9200093 h 1.01564 l -1.87408,11.7732504 c -0.0323,0.201252 -0.0323,0.392919 0,0.575002 0.0403,0.182082 0.10075,0.345007 0.18136,0.488752 0.0887,0.134172 0.19748,0.244387 0.32645,0.330636 0.13703,0.07665 0.29018,0.115003 0.45946,0.114992 0.14508,1.1e-5 0.31435,-0.02879 0.50781,-0.08625 0.20151,-0.06706 0.39899,-0.138958 0.59244,-0.215623 0.20151,-0.08625 0.3869,-0.167712 0.55618,-0.244376 0.16927,-0.07665 0.2942,-0.129374 0.37482,-0.158127 v 1.121261 M 121.00475,2.8174471 c -1e-5,0.2204424 -0.0363,0.4312786 -0.10881,0.6325084 -0.0645,0.1916891 -0.16122,0.3641874 -0.29018,0.5175059 -0.12092,0.1533512 -0.27406,0.2779382 -0.45946,0.37375 -0.18539,0.086249 -0.399,0.1293955 -0.64081,0.1293846 -0.50781,1.09e-5 -0.89069,-0.1581162 -1.14863,-0.4743812 -0.25793,-0.3258278 -0.38691,-0.7187467 -0.3869,-1.1787677 -1e-5,-0.1916454 0.0322,-0.3833126 0.0967,-0.5750016 0.0725,-0.1916564 0.1733,-0.3641547 0.30227,-0.5175059 0.13702,-0.162903 0.30226,-0.2922767 0.49572,-0.3881321 0.19345,-0.1054399 0.41511,-0.1581053 0.66499,-0.1581271 0.23376,2.18e-5 0.4393,0.047977 0.61663,0.1437558 0.1854,0.095845 0.34257,0.2204315 0.47154,0.37375 0.12897,0.1533513 0.22569,0.3306473 0.29019,0.5318771 0.0645,0.1916891 0.0967,0.388154 0.0967,0.5893838 m 8.8142,6.1813171 c 0,0.3450076 -0.0645,0.6229349 -0.19345,0.8337601 -0.12897,0.2012627 -0.28616,0.3593897 -0.47154,0.4743707 -0.1854,0.115013 -0.38289,0.196475 -0.59246,0.244387 -0.20151,0.03838 -0.37884,0.06226 -0.53198,0.07186 l -1.11236,-1.7968939 c -0.0483,-0.047868 -0.12494,-0.095845 -0.22972,-0.143745 -0.1048,-0.057463 -0.23377,-0.086249 -0.38691,-0.086249 -0.27406,1.09e-5 -0.50379,0.071856 -0.68918,0.2156229 -0.1854,0.1341823 -0.33855,0.3066806 -0.45945,0.5175058 -0.11285,0.2012626 -0.19346,0.4216832 -0.24182,0.6612618 -0.0483,0.2300055 -0.0725,0.4408415 -0.0725,0.6324975 -1e-5,0.268354 0.0645,0.541472 0.19346,0.819389 0.12896,0.268343 0.29823,0.541472 0.50781,0.819378 0.20957,0.268353 0.44332,0.536685 0.70126,0.805006 0.266,0.25877 0.532,0.51273 0.798,0.761883 0.27405,0.258769 0.53602,0.527101 0.7859,0.805017 0.25793,0.268343 0.48766,0.551046 0.68918,0.848131 0.2015,0.287512 0.36271,0.594171 0.48362,0.92001 0.12091,0.325838 0.18136,0.666048 0.18137,1.020629 -1e-5,0.603766 -0.1048,1.183566 -0.31436,1.739398 -0.20152,0.555844 -0.50379,1.049383 -0.90681,1.48064 -0.39498,0.431257 -0.89069,0.776253 -1.48717,1.035012 -0.58842,0.249163 -1.26551,0.37375 -2.03126,0.37375 -0.59648,0 -1.11235,-0.08145 -1.54762,-0.244377 -0.43527,-0.15334 -0.79396,-0.354592 -1.07608,-0.603755 -0.28212,-0.258758 -0.49169,-0.551046 -0.62873,-0.876884 -0.13702,-0.325839 -0.20554,-0.656464 -0.20554,-0.991887 0,-0.469584 0.11688,-0.848132 0.35064,-1.135632 0.24181,-0.297086 0.61663,-0.445628 1.12444,-0.445628 0.15315,0 0.29823,0.02399 0.43527,0.07186 0.13703,0.04787 0.26196,0.10544 0.37481,0.172509 0.11285,0.05746 0.20957,0.124587 0.29019,0.201252 0.0887,0.06706 0.15314,0.124587 0.19344,0.172498 l -0.47154,1.437515 c 0.17733,0.297085 0.39497,0.551046 0.65291,0.761882 0.26599,0.201252 0.60857,0.301883 1.02771,0.301883 0.24988,0 0.49169,-0.05746 0.72546,-0.172509 0.23375,-0.115003 0.43929,-0.277916 0.61663,-0.488753 0.18539,-0.210836 0.33048,-0.464796 0.43526,-0.761882 0.10478,-0.306669 0.15718,-0.646879 0.15719,-1.02064 -10e-6,-0.297075 -0.0524,-0.575002 -0.15719,-0.833749 -0.0967,-0.268332 -0.23778,-0.527091 -0.42317,-0.776265 -0.17734,-0.249163 -0.39094,-0.493539 -0.64081,-0.733128 -0.24182,-0.249163 -0.51185,-0.507922 -0.81008,-0.776265 -0.25795,-0.239578 -0.50783,-0.498326 -0.74964,-0.776253 -0.23375,-0.277916 -0.44736,-0.570204 -0.64081,-0.876885 -0.1854,-0.316243 -0.33452,-0.646868 -0.44736,-0.991887 -0.11285,-0.344986 -0.16927,-0.699578 -0.16927,-1.063754 0,-0.718747 0.13702,-1.356042 0.41108,-1.9118964 0.27406,-0.5558219 0.62469,-1.0206187 1.0519,-1.3943905 0.43527,-0.3833236 0.91487,-0.6708244 1.43881,-0.8625025 0.53199,-0.1916563 1.0519,-0.28749 1.55971,-0.2875118 0.46751,2.18e-5 0.85844,0.067058 1.17281,0.2012517 0.32242,0.1245979 0.58036,0.282725 0.77381,0.4743813 0.20151,0.1821046 0.34257,0.3833563 0.42319,0.603755 0.0887,0.2108471 0.13299,0.4025252 0.13299,0.5750126 m 8.66912,1.0925076 c -1e-5,-0.1916564 -0.0323,-0.3785368 -0.0967,-0.5606305 -0.0645,-0.1916563 -0.15316,-0.3593679 -0.266,-0.5031346 -0.11286,-0.1437341 -0.25392,-0.2587366 -0.42318,-0.3449967 -0.16928,-0.095845 -0.35466,-0.143745 -0.55617,-0.1437559 -0.27407,1.09e-5 -0.53603,0.086249 -0.78591,0.2587584 -0.24988,0.1725093 -0.4917,0.4025143 -0.72544,0.6900042 -0.2257,0.2875118 -0.43931,0.6181371 -0.64082,0.9918871 -0.19346,0.373761 -0.37078,0.76668 -0.53199,1.178757 -0.15316,0.412098 -0.29019,0.828973 -0.41109,1.250634 -0.12091,0.421684 -0.21764,0.8194 -0.29018,1.193139 0.52392,-0.05746 1.06398,-0.201241 1.62017,-0.431246 0.56423,-0.229994 1.07607,-0.522292 1.53553,-0.876884 0.45945,-0.364166 0.83426,-0.776254 1.12444,-1.236264 0.29824,-0.459999 0.44736,-0.948751 0.44737,-1.466268 m 2.20052,0.02879 c -1e-5,0.536686 -0.10479,1.030225 -0.31435,1.48064 -0.20959,0.450425 -0.49574,0.857726 -0.85846,1.221881 -0.35467,0.364187 -0.76978,0.690015 -1.24535,0.977516 -0.46752,0.277927 -0.96324,0.517506 -1.48717,0.718757 -0.51588,0.191668 -1.04384,0.349795 -1.58389,0.474382 -0.54006,0.115002 -1.05594,0.18688 -1.54763,0.215623 -0.0242,0.191678 -0.0483,0.421672 -0.0725,0.690004 -0.0161,0.268343 -0.0242,0.49355 -0.0242,0.675633 0,0.536675 0.0524,1.030225 0.15718,1.480639 0.11284,0.450426 0.27003,0.843345 0.47154,1.178768 0.20957,0.325839 0.45945,0.584586 0.74963,0.776253 0.29017,0.182083 0.61663,0.27313 0.97936,0.27313 0.55617,0 1.16877,-0.239589 1.8378,-0.718758 0.66902,-0.479168 1.45895,-1.193138 2.3698,-2.141901 v 1.854401 c -0.23377,0.268332 -0.51991,0.565417 -0.85845,0.891256 -0.33855,0.316254 -0.72546,0.618126 -1.16072,0.905638 -0.42722,0.277916 -0.89472,0.507921 -1.40254,0.690004 -0.50781,0.191667 -1.04384,0.287501 -1.60807,0.287501 -0.24988,0 -0.52394,-0.02879 -0.82218,-0.08625 -0.29018,-0.05746 -0.58036,-0.158127 -0.87054,-0.301883 -0.29018,-0.153329 -0.57229,-0.359378 -0.84635,-0.618126 -0.266,-0.258758 -0.50379,-0.584586 -0.71336,-0.977516 -0.20151,-0.402492 -0.36675,-0.876874 -0.49572,-1.423133 -0.12091,-0.555832 -0.18136,-1.20751 -0.18136,-1.955021 0,-0.776253 0.0766,-1.54772 0.22973,-2.314399 0.16121,-0.776254 0.38286,-1.514169 0.66498,-2.213769 0.29019,-0.709162 0.63679,-1.365626 1.03981,-1.969392 0.40303,-0.6133286 0.84636,-1.1404189 1.33,-1.581271 0.48363,-0.4504038 0.9995,-0.8001981 1.54762,-1.049383 0.55617,-0.2587366 1.12847,-0.3881212 1.7169,-0.3881321 0.57228,1.09e-5 1.04786,0.1150134 1.42671,0.3450075 0.3869,0.2204315 0.69723,0.4887635 0.93099,0.8050068 0.23375,0.3162651 0.39899,0.6421037 0.49573,0.977505 0.0967,0.335434 0.14508,0.6085636 0.14509,0.8193888 m 16.64904,2.587518 c -1e-5,-0.431234 -0.0404,-0.867289 -0.12091,-1.30813 -0.0725,-0.450415 -0.18943,-0.857705 -0.35063,-1.221892 -0.15316,-0.3641548 -0.35065,-0.6612401 -0.59245,-0.891256 -0.24182,-0.2299942 -0.52797,-0.3449967 -0.85844,-0.3450076 -0.29826,1.09e-5 -0.59649,0.081452 -0.89473,0.2443763 -0.29824,0.1533512 -0.5723,0.3306472 -0.82217,0.531888 -0.24182,0.1916781 -0.4514,0.3833453 -0.62872,0.5750013 -0.17735,0.182094 -0.29825,0.301894 -0.36273,0.359379 l -1.47508,9.128214 c 0.0725,0.04787 0.1733,0.124587 0.30227,0.230005 0.13703,0.09585 0.29421,0.191668 0.47154,0.287501 0.17733,0.09585 0.36675,0.182094 0.56827,0.258759 0.20151,0.06706 0.41109,0.100642 0.62873,0.100642 0.45138,0 0.8665,-0.119789 1.24535,-0.359379 0.37884,-0.239579 0.72141,-0.56063 1.02771,-0.963134 0.3063,-0.412088 0.57632,-0.886458 0.8101,-1.423133 0.23374,-0.536674 0.42719,-1.097305 0.58035,-1.681902 0.15314,-0.59416 0.27002,-1.193128 0.35063,-1.796883 0.0806,-0.603755 0.1209,-1.178757 0.12091,-1.725027 m 2.45444,-0.114991 c -2e-5,0.805006 -0.0806,1.60044 -0.24182,2.386266 -0.16122,0.776265 -0.39498,1.514191 -0.70126,2.21378 -0.29826,0.699588 -0.66098,1.346468 -1.08818,1.940639 -0.42722,0.59417 -0.90279,1.106889 -1.42672,1.538146 -0.52394,0.431246 -1.09221,0.771467 -1.7048,1.02063 -0.6126,0.239589 -1.25342,0.359378 -1.92244,0.359378 -0.37079,0 -0.7053,-0.06226 -1.00354,-0.18688 -0.29824,-0.124576 -0.54812,-0.239579 -0.74963,-0.344997 l -0.7859,4.72942 c -0.0323,0.162914 -0.0161,0.292288 0.0483,0.388132 0.0725,0.10544 0.21763,0.172499 0.43527,0.201252 l 1.55971,0.158127 v 1.106879 h -6.23886 v -1.106879 l 1.29371,-0.158127 c 0.34661,-0.02879 0.5441,-0.225218 0.59246,-0.589384 L 150.65137,9.1856665 148.57174,8.9125478 V 8.0644056 l 3.74816,-0.9200092 h 0.96726 l -0.30227,1.8256472 c 0.20957,-0.162903 0.44736,-0.3497834 0.71336,-0.5606305 0.27405,-0.2108252 0.56423,-0.4072792 0.87053,-0.5893838 0.3063,-0.1916563 0.62469,-0.3497834 0.95518,-0.4743813 0.33854,-0.1341496 0.68111,-0.2012298 1.02772,-0.2012516 0.62871,2.18e-5 1.14862,0.1629356 1.55972,0.4887634 0.41914,0.3162651 0.74962,0.7331396 0.99144,1.2506346 0.24987,0.5175168 0.4272,1.1021029 0.532,1.7537696 0.10478,0.651677 0.15716,1.303354 0.15718,1.955021 m 8.92302,-2.501281 c -10e-6,-0.1916559 -0.0323,-0.3785363 -0.0967,-0.56063 -0.0645,-0.1916563 -0.15316,-0.3593678 -0.266,-0.5031346 -0.11285,-0.1437341 -0.25391,-0.2587366 -0.42317,-0.3449967 -0.16928,-0.095845 -0.35468,-0.1437449 -0.55618,-0.1437558 -0.27406,1.09e-5 -0.53604,0.086249 -0.7859,0.2587584 -0.24989,0.1725092 -0.4917,0.4025142 -0.72546,0.6900041 -0.2257,0.2875118 -0.4393,0.6181376 -0.64081,0.9918876 -0.19345,0.373761 -0.37079,0.766679 -0.532,1.178756 -0.15314,0.412099 -0.29018,0.828974 -0.41108,1.250635 -0.12091,0.421683 -0.21764,0.8194 -0.29018,1.193139 0.52393,-0.05746 1.06399,-0.201241 1.62017,-0.431246 0.56423,-0.229994 1.07608,-0.522293 1.53553,-0.876885 0.45944,-0.364165 0.83426,-0.776253 1.12445,-1.236263 0.29823,-0.459999 0.44735,-0.948752 0.44736,-1.466269 m 2.20052,0.02879 c -1e-5,0.536685 -0.1048,1.030225 -0.31436,1.480639 -0.20958,0.450426 -0.49573,0.857727 -0.85844,1.221881 -0.35467,0.364188 -0.76979,0.690016 -1.24536,0.977516 -0.46752,0.277928 -0.96324,0.517506 -1.48717,0.718758 -0.51587,0.191667 -1.04385,0.349794 -1.5839,0.474381 -0.54005,0.115003 -1.05593,0.186881 -1.54762,0.215623 -0.0242,0.191678 -0.0483,0.421672 -0.0725,0.690004 -0.0161,0.268343 -0.0242,0.493551 -0.0242,0.675633 0,0.536675 0.0524,1.030225 0.15718,1.48064 0.11284,0.450426 0.27002,0.843344 0.47154,1.178768 0.20957,0.325838 0.45945,0.584586 0.74963,0.776253 0.29017,0.182083 0.61663,0.27313 0.97935,0.27313 0.55618,0 1.16878,-0.23959 1.83781,-0.718758 0.66901,-0.479168 1.45895,-1.193139 2.36979,-2.141901 v 1.8544 c -0.23376,0.268332 -0.5199,0.565417 -0.85844,0.891256 -0.33855,0.316254 -0.72545,0.618126 -1.16072,0.905638 -0.42721,0.277916 -0.89472,0.507921 -1.40253,0.690004 -0.50782,0.191667 -1.04384,0.287501 -1.60808,0.287501 -0.24988,0 -0.52393,-0.02879 -0.82217,-0.08625 -0.29018,-0.05746 -0.58036,-0.158127 -0.87054,-0.301883 -0.29018,-0.153329 -0.5723,-0.359379 -0.84635,-0.618126 -0.26601,-0.258759 -0.50379,-0.584586 -0.71337,-0.977516 -0.20151,-0.402493 -0.36675,-0.876874 -0.49572,-1.423133 -0.12091,-0.555833 -0.18136,-1.20751 -0.18136,-1.955021 0,-0.776254 0.0766,-1.54772 0.22972,-2.3144 0.16121,-0.776253 0.38288,-1.514169 0.665,-2.213768 0.29017,-0.709163 0.63678,-1.365627 1.03981,-1.969393 0.40303,-0.6133281 0.84635,-1.1404184 1.32999,-1.5812705 0.48362,-0.4504038 0.9995,-0.8001981 1.54762,-1.049383 0.55617,-0.2587365 1.12847,-0.3881212 1.71689,-0.3881321 0.5723,1.09e-5 1.04787,0.1150134 1.42673,0.3450076 0.38689,0.2204315 0.69722,0.4887634 0.93098,0.8050067 0.23375,0.3162651 0.39899,0.6421037 0.49573,0.977505 0.0967,0.335434 0.14507,0.6085636 0.14508,0.8193893 m 13.45708,10.982603 c -0.1048,0.04787 -0.2902,0.124587 -0.55618,0.230006 -0.25795,0.09584 -0.54813,0.201251 -0.87054,0.316254 -0.32243,0.10544 -0.65291,0.196465 -0.99145,0.273129 -0.33855,0.08625 -0.63678,0.129374 -0.89471,0.129374 -0.1451,0 -0.34661,-0.01919 -0.60454,-0.05746 -0.24989,-0.02879 -0.4917,-0.10544 -0.72545,-0.230005 -0.23377,-0.115003 -0.42319,-0.287501 -0.56827,-0.517506 -0.1451,-0.230005 -0.18137,-0.541461 -0.10882,-0.93438 l 1.51135,-9.041976 c 0.0564,-0.392908 0.0564,-0.718736 0,-0.977505 -0.0483,-0.258737 -0.13301,-0.4647864 -0.2539,-0.6181267 -0.11286,-0.1629139 -0.24586,-0.2731187 -0.399,-0.3306363 -0.15315,-0.067058 -0.29825,-0.1006422 -0.43527,-0.1006422 -0.20152,1.09e-5 -0.4514,0.071856 -0.74962,0.2156229 -0.2902,0.1341823 -0.60053,0.3162651 -0.931,0.5462593 -0.32243,0.230016 -0.64888,0.503135 -0.97935,0.819378 -0.33049,0.306681 -0.63276,0.632519 -0.90682,0.977516 l -1.7048,9.890096 h -2.30935 L 174.04705,9.1857101 171.96744,8.9125914 V 8.0644492 L 175.7035,7.14444 h 0.99144 l -0.45945,2.7456564 c 0.27406,-0.3258277 0.58842,-0.6516555 0.94309,-0.977505 0.35466,-0.3354122 0.7335,-0.6324975 1.13653,-0.8912668 0.40303,-0.2587366 0.81814,-0.4695727 1.24535,-0.6325084 0.43526,-0.1629029 0.85845,-0.2443544 1.26954,-0.2443762 0.90277,2.18e-5 1.54358,0.2971071 1.92244,0.8912667 0.38689,0.5941815 0.48362,1.5525286 0.29018,2.8750303 l -1.31789,8.308825 c -0.0404,0.277928 -0.0242,0.498348 0.0483,0.661262 0.0806,0.162914 0.18135,0.287501 0.30227,0.37375 0.12895,0.08625 0.26195,0.143756 0.399,0.172498 0.13701,0.01919 0.2418,0.02879 0.31435,0.02879 0.22569,0 0.47154,-0.03827 0.73754,-0.115002 0.26599,-0.07665 0.54005,-0.167701 0.82218,-0.27313 l 0.0242,1.035012 m 5.06605,-11.744486 -1.55971,9.243217 c -0.0483,0.258758 -0.0404,0.49355 0.0242,0.704375 0.0645,0.201263 0.16524,0.373761 0.30227,0.517506 0.14509,0.134172 0.31033,0.23959 0.49573,0.316254 0.19344,0.07665 0.39496,0.115003 0.60454,0.115003 0.23375,0 0.47556,-0.02399 0.72545,-0.07186 0.24987,-0.05746 0.48765,-0.124576 0.71336,-0.201252 0.23374,-0.07665 0.44734,-0.153329 0.64081,-0.229994 0.20151,-0.08625 0.36674,-0.158127 0.49572,-0.215634 v 1.178768 c -0.10479,0.05746 -0.30631,0.158127 -0.60454,0.301872 -0.29825,0.143756 -0.64082,0.292298 -1.02772,0.445628 -0.38691,0.15334 -0.79397,0.287501 -1.22117,0.402503 -0.42722,0.124587 -0.81815,0.18688 -1.17281,0.18688 -0.45139,0 -0.82621,-0.06706 -1.12445,-0.201251 -0.29824,-0.124587 -0.53602,-0.297085 -0.71336,-0.517506 -0.17733,-0.230005 -0.30629,-0.498337 -0.3869,-0.805007 -0.0725,-0.316254 -0.10882,-0.656464 -0.10882,-1.02064 0,-0.191657 0.004,-0.388121 0.0121,-0.589373 0.0162,-0.201252 0.0443,-0.407301 0.0847,-0.618137 l 1.51136,-8.9413342 -1.55972,0.1724984 V 8.5676384 l 1.86199,-0.977516 1.20908,-2.9468972 h 1.51135 l -0.49573,3.3637827 h 3.42171 v 1.3512659 h -3.63934 m 12.57445,-0.230005 c -1e-5,0.3450185 -0.0524,0.6229348 -0.15718,0.8337601 -0.1048,0.2012621 -0.25392,0.3545921 -0.44736,0.4599991 -0.19347,0.10544 -0.42722,0.177307 -0.70127,0.215634 -0.26601,0.02879 -0.56828,0.04318 -0.90681,0.04318 l -0.59245,-1.4087618 c -0.30631,0.1533403 -0.63679,0.4216832 -0.99145,0.8050068 -0.34661,0.373761 -0.67709,0.805018 -0.99145,1.293759 -0.31437,0.479179 -0.58842,0.977516 -0.82217,1.495011 -0.23376,0.507932 -0.38691,0.977527 -0.45945,1.408773 l -1.29372,7.417569 h -2.29725 L 194.4806,9.1858191 192.40098,8.9127004 V 8.0645582 l 3.73606,-0.9200092 h 0.99144 l -0.5199,2.975661 c 0.50782,-0.9295823 1.08414,-1.6579243 1.72899,-2.1850255 0.64483,-0.5270685 1.34207,-0.7906137 2.09171,-0.7906355 0.29823,2.18e-5 0.54811,0.067059 0.74963,0.2012517 0.2015,0.1245979 0.36272,0.2875226 0.48363,0.4887634 0.12896,0.2012626 0.21763,0.4168855 0.266,0.6468796 0.0564,0.2300159 0.0847,0.4456388 0.0847,0.6468796 m 12.12708,11.8594887 c -0.15316,0.10544 -0.36676,0.22042 -0.64081,0.345007 -0.26601,0.124587 -0.5562,0.23959 -0.87054,0.345008 -0.31437,0.10544 -0.6368,0.191667 -0.96727,0.258747 -0.32243,0.07665 -0.61664,0.115003 -0.88263,0.115003 -0.46751,0 -0.81412,-0.09585 -1.03981,-0.287501 -0.2257,-0.182083 -0.38288,-0.392919 -0.47154,-0.632508 -0.0806,-0.249163 -0.11689,-0.498337 -0.10882,-0.747511 0.008,-0.249163 0.0121,-0.431246 0.0121,-0.546248 -0.65291,0.737926 -1.33805,1.293759 -2.05544,1.667509 -0.70933,0.364176 -1.4791,0.546259 -2.30934,0.546259 -0.5723,0 -1.03982,-0.119789 -1.40253,-0.359379 -0.36273,-0.239589 -0.63679,-0.541461 -0.82217,-0.905638 -0.1854,-0.364165 -0.29825,-0.761871 -0.33855,-1.193128 -0.0403,-0.431256 -0.0282,-0.838547 0.0362,-1.221892 l 1.60807,-9.1857209 -2.07961,-0.2731187 V 8.0645582 l 3.73606,-0.9200092 h 1.01562 l -1.9708,11.226991 c -0.0483,0.249174 -0.0403,0.488764 0.0242,0.718758 0.0725,0.22042 0.1733,0.416885 0.30227,0.589383 0.13703,0.162914 0.29017,0.297086 0.45945,0.402504 0.16927,0.09584 0.33451,0.143756 0.49572,0.143745 0.29824,1.1e-5 0.59648,-0.04787 0.89473,-0.143745 0.30629,-0.10544 0.60856,-0.244376 0.90681,-0.416886 0.29823,-0.172498 0.58438,-0.368952 0.85844,-0.589373 0.27405,-0.230005 0.52796,-0.474381 0.76172,-0.733139 l 1.87408,-10.8388592 h 2.30934 L 211.49238,18.83155 c -0.0564,0.30667 -0.0564,0.565417 0,0.776254 0.0564,0.201251 0.14105,0.368963 0.25391,0.503134 0.12089,0.134161 0.25389,0.229994 0.399,0.287501 0.15314,0.05746 0.29822,0.08625 0.43527,0.08625 0.1612,0 0.3748,-0.02879 0.64081,-0.08625 0.26598,-0.05746 0.57229,-0.206049 0.9189,-0.445628 v 1.035001 m 16.60069,-8.25133 c -1e-5,-0.699577 -0.0564,-1.317715 -0.16927,-1.854389 -0.11286,-0.536664 -0.26601,-0.987079 -0.45946,-1.3512663 -0.19346,-0.3641547 -0.42722,-0.642082 -0.70127,-0.8337601 -0.266,-0.1916563 -0.55618,-0.2874899 -0.87054,-0.2875008 -0.54006,1.09e-5 -1.04384,0.2348027 -1.51135,0.7043863 -0.45945,0.4600101 -0.85845,1.0685629 -1.19698,1.8256359 -0.33855,0.747522 -0.60455,1.595654 -0.798,2.544405 -0.19345,0.939178 -0.29018,1.887941 -0.29018,2.846277 0,0.728342 0.0564,1.365648 0.16927,1.911896 0.11285,0.54626 0.27002,1.006259 0.47154,1.380009 0.20152,0.364176 0.43527,0.637306 0.70127,0.819389 0.266,0.182082 0.55617,0.273129 0.87054,0.273129 0.3869,0 0.74963,-0.115002 1.08817,-0.345007 0.3466,-0.23959 0.65692,-0.555833 0.93099,-0.948763 0.28212,-0.402503 0.53199,-0.867289 0.74963,-1.39439 0.21763,-0.52708 0.40303,-1.082924 0.55618,-1.66751 0.15314,-0.59417 0.26599,-1.202712 0.33854,-1.825647 0.0806,-0.622913 0.12091,-1.221881 0.12092,-1.796894 m 2.50279,0.129374 c -1e-5,0.795433 -0.0766,1.576484 -0.22973,2.343153 -0.14509,0.757095 -0.3587,1.475853 -0.64081,2.156273 -0.27407,0.68043 -0.60857,1.308141 -1.00354,1.883143 -0.38691,0.565428 -0.82621,1.058967 -1.31789,1.480639 -0.48364,0.412088 -1.0116,0.733129 -1.5839,0.963134 -0.5723,0.23959 -1.17685,0.359379 -1.81362,0.359379 -0.6771,0 -1.28969,-0.129374 -1.83781,-0.388132 -0.54811,-0.258748 -1.0116,-0.627711 -1.39044,-1.106879 -0.37885,-0.488752 -0.67306,-1.073349 -0.88263,-1.753769 -0.20151,-0.690004 -0.30227,-1.461471 -0.30227,-2.3144 0,-0.795422 0.0726,-1.576473 0.21763,-2.343153 0.1451,-0.776242 0.35064,-1.509382 0.61664,-2.199397 0.27405,-0.689993 0.60453,-1.327289 0.99144,-1.911886 0.3869,-0.5941594 0.82217,-1.1020808 1.30581,-1.5237748 0.49169,-0.4312349 1.02369,-0.766658 1.59599,-1.0062584 0.58035,-0.2395677 1.19295,-0.359357 1.8378,-0.3593788 0.59647,2.18e-5 1.16072,0.1102267 1.69271,0.3306363 0.54005,0.2204315 1.01159,0.5654282 1.41463,1.0350009 0.41107,0.4696054 0.7335,1.063776 0.96726,1.7825228 0.24181,0.718768 0.36272,1.576484 0.36273,2.573147 m 14.53316,8.06446 c -0.0967,0.04798 -0.2781,0.134172 -0.54409,0.258748 -0.26601,0.115002 -0.56424,0.239589 -0.89472,0.37376 -0.33049,0.124587 -0.67709,0.234792 -1.03981,0.330626 -0.35467,0.10544 -0.67709,0.158127 -0.96727,0.158127 -0.37884,0 -0.70127,-0.05267 -0.96726,-0.158127 -0.266,-0.10544 -0.48364,-0.253961 -0.65291,-0.445628 -0.16927,-0.191667 -0.29421,-0.416875 -0.37481,-0.675633 -0.0726,-0.268332 -0.10882,-0.56063 -0.10882,-0.876885 0,-0.297085 0.0242,-0.642082 0.0726,-1.035011 L 245.0202,2.026997 242.81968,1.7682495 V 0.87699368 l 3.86906,-0.87688464187 h 0.95517 L 244.63329,18.774043 c -0.0323,0.201252 -0.0242,0.402504 0.0242,0.603756 0.0483,0.191678 0.12494,0.364176 0.22973,0.517505 0.10478,0.143756 0.23375,0.263546 0.38691,0.359379 0.15314,0.09585 0.31838,0.143756 0.49572,0.143756 0.1209,0 0.27808,-0.02399 0.47154,-0.07186 0.2015,-0.05746 0.40302,-0.119789 0.60454,-0.186881 0.20151,-0.06706 0.3869,-0.13416 0.55618,-0.201251 0.17732,-0.06706 0.30226,-0.110205 0.37481,-0.129374 v 1.121261 m 13.03389,0.05746 c -0.15315,0.10544 -0.36676,0.220421 -0.64081,0.345008 -0.26601,0.124587 -0.55619,0.239589 -0.87054,0.345007 -0.31437,0.10544 -0.63678,0.191667 -0.96726,0.258748 -0.32243,0.07665 -0.61664,0.115002 -0.88263,0.115002 -0.46752,0 -0.81412,-0.09584 -1.0398,-0.287501 -0.22571,-0.182083 -0.38289,-0.392919 -0.47155,-0.632508 -0.0806,-0.249163 -0.11689,-0.498337 -0.10882,-0.747511 0.008,-0.249163 0.0121,-0.431246 0.0121,-0.546248 -0.65292,0.737926 -1.33807,1.293759 -2.05544,1.667509 -0.70934,0.364176 -1.47912,0.546259 -2.30935,0.546259 -0.5723,0 -1.03981,-0.119789 -1.40254,-0.359379 -0.36272,-0.239589 -0.63678,-0.541461 -0.82217,-0.905638 -0.18539,-0.364165 -0.29824,-0.761871 -0.33854,-1.193128 -0.0403,-0.431256 -0.0282,-0.838546 0.0362,-1.221892 l 1.60808,-9.1857208 -2.07962,-0.2731187 V 8.0645473 l 3.73606,-0.9200092 h 1.01562 l -1.9708,11.2269909 c -0.0483,0.249174 -0.0403,0.488764 0.0242,0.718758 0.0725,0.22042 0.17329,0.416885 0.30227,0.589384 0.13702,0.162913 0.29017,0.297085 0.45945,0.402503 0.16926,0.09584 0.33451,0.143756 0.49573,0.143745 0.29822,1.1e-5 0.59647,-0.04787 0.89471,-0.143745 0.3063,-0.10544 0.60857,-0.244376 0.90681,-0.416886 0.29824,-0.172498 0.58439,-0.368952 0.85846,-0.589372 0.27405,-0.230005 0.52795,-0.474382 0.76171,-0.73314 l 1.87408,-10.8388591 h 2.30935 l -1.9829,11.3276221 c -0.0564,0.30667 -0.0564,0.565418 0,0.776254 0.0564,0.201251 0.14105,0.368963 0.25391,0.503134 0.1209,0.134161 0.2539,0.229994 0.39899,0.287501 0.15314,0.05746 0.29823,0.08625 0.43527,0.08625 0.1612,0 0.37481,-0.02879 0.64082,-0.08625 0.26599,-0.05746 0.57228,-0.206049 0.91889,-0.445628 v 1.035001 m 19.2244,-0.05746 c -0.2096,0.10544 -0.44739,0.225207 -0.71336,0.359379 -0.25795,0.124587 -0.52799,0.244376 -0.81009,0.359378 -0.27407,0.115003 -0.54813,0.210837 -0.82217,0.287501 -0.27408,0.07665 -0.53202,0.115003 -0.77381,0.115003 -0.33856,0 -0.64486,-0.04787 -0.9189,-0.143756 -0.26602,-0.08625 -0.49171,-0.215623 -0.67709,-0.388121 -0.17735,-0.17251 -0.30631,-0.388132 -0.38691,-0.64688 -0.0725,-0.258758 -0.0806,-0.555844 -0.0242,-0.891267 l 1.36627,-7.863197 c 0.0806,-0.488753 0.10879,-0.915212 0.0847,-1.279388 -0.0242,-0.364166 -0.0887,-0.666038 -0.19345,-0.9056382 -0.0967,-0.2395676 -0.22168,-0.4168636 -0.37481,-0.5318771 -0.14511,-0.124576 -0.29827,-0.1868695 -0.45946,-0.1868804 -0.37886,1.09e-5 -0.74964,0.1006422 -1.11235,0.301883 -0.35468,0.2012625 -0.68113,0.4408411 -0.97936,0.7187577 -0.29825,0.268343 -0.55619,0.546259 -0.77381,0.833749 -0.21765,0.277938 -0.36677,0.503146 -0.44736,0.675633 l -1.74107,9.947603 h -2.29726 l 1.65644,-9.602596 c 0.0564,-0.316243 0.0806,-0.642081 0.0726,-0.977505 -1e-5,-0.344996 -0.0404,-0.656464 -0.12091,-0.934391 -0.0725,-0.2779054 -0.18943,-0.5079104 -0.35063,-0.6900041 -0.16122,-0.1820719 -0.37483,-0.2731187 -0.64082,-0.2731296 -0.29019,1.09e-5 -0.60052,0.1006422 -0.93099,0.301883 -0.32243,0.2012625 -0.63679,0.4408411 -0.94309,0.7187577 -0.29824,0.277927 -0.5723,0.565428 -0.82217,0.862502 -0.24182,0.287512 -0.42318,0.522304 -0.54409,0.704387 l -1.74107,9.890096 H 261.3428 L 263.47078,9.1858409 261.41535,8.9127222 V 8.06458 l 3.71188,-0.9200092 h 1.01563 l -0.47154,2.7169031 c 0.30629,-0.3449857 0.63274,-0.6804088 0.97935,-1.0062584 0.3466,-0.3354013 0.70529,-0.6276998 1.07608,-0.8768846 0.37078,-0.2491522 0.7456,-0.4504038 1.12444,-0.6037551 0.37884,-0.1533185 0.74963,-0.2299832 1.11236,-0.230005 0.41108,2.18e-5 0.74963,0.091047 1.01563,0.2731296 0.27405,0.1821046 0.49169,0.4120987 0.6529,0.6900042 0.16927,0.2683538 0.29017,0.5606523 0.36273,0.8768847 0.0806,0.3162651 0.13702,0.6085636 0.16927,0.8768846 0.29823,-0.3545702 0.62871,-0.6947801 0.99144,-1.0206296 0.36272,-0.3258277 0.74156,-0.6133286 1.13654,-0.8625134 0.39496,-0.2587366 0.79395,-0.4599883 1.197,-0.6037551 0.41106,-0.1533185 0.80604,-0.2299832 1.18489,-0.230005 0.41107,2.18e-5 0.76977,0.091047 1.07609,0.2731296 0.31434,0.1725202 0.56421,0.4216832 0.74962,0.7475109 0.19344,0.3258496 0.31434,0.7187685 0.36273,1.1787567 0.0564,0.460021 0.0362,0.972729 -0.0604,1.538146 l -1.39044,7.949458 c -0.0404,0.239579 -0.0363,0.459999 0.0121,0.661251 0.0483,0.191667 0.12089,0.359379 0.21764,0.503134 0.10477,0.143745 0.22971,0.258748 0.37481,0.344997 0.14507,0.07665 0.29822,0.115003 0.45945,0.115003 0.20149,0 0.43525,-0.05746 0.70127,-0.172499 0.26598,-0.115002 0.55212,-0.234791 0.85845,-0.359378 v 1.006258 m 8.18547,-10.838859 c -10e-6,-0.1916564 -0.0323,-0.3785368 -0.0967,-0.5606305 -0.0645,-0.1916563 -0.15316,-0.3593679 -0.266,-0.5031347 -0.11285,-0.143734 -0.25391,-0.2587365 -0.42318,-0.3449966 -0.16928,-0.095845 -0.35467,-0.143745 -0.55618,-0.1437559 -0.27406,1.09e-5 -0.53603,0.086249 -0.7859,0.2587584 -0.24988,0.1725092 -0.4917,0.4025143 -0.72545,0.6900042 -0.2257,0.2875117 -0.4393,0.6181371 -0.64081,0.9918871 -0.19346,0.373761 -0.37079,0.76668 -0.532,1.178757 -0.15315,0.412098 -0.29018,0.828973 -0.41109,1.250634 -0.12091,0.421684 -0.21763,0.8194 -0.29017,1.193139 0.52393,-0.05746 1.06399,-0.201241 1.62017,-0.431246 0.56422,-0.229994 1.07607,-0.522292 1.53553,-0.876884 0.45944,-0.364166 0.83425,-0.776254 1.12445,-1.236264 0.29822,-0.459999 0.44734,-0.948751 0.44735,-1.466268 m 2.20053,0.02879 c -1e-5,0.536686 -0.10479,1.030225 -0.31436,1.48064 -0.20959,0.450425 -0.49574,0.857726 -0.85844,1.221881 -0.35468,0.364187 -0.7698,0.690015 -1.24536,0.977516 -0.46752,0.277927 -0.96325,0.517506 -1.48717,0.718757 -0.51588,0.191668 -1.04385,0.349795 -1.5839,0.474382 -0.54006,0.115002 -1.05593,0.18688 -1.54762,0.215623 -0.0242,0.191678 -0.0483,0.421672 -0.0725,0.690004 -0.0161,0.268343 -0.0242,0.49355 -0.0242,0.675633 0,0.536675 0.0524,1.030225 0.15719,1.480639 0.11284,0.450426 0.27002,0.843345 0.47154,1.178768 0.20957,0.325839 0.45944,0.584586 0.74962,0.776253 0.29018,0.182083 0.61663,0.27313 0.97936,0.27313 0.55617,0 1.16877,-0.239589 1.83781,-0.718758 0.66901,-0.479168 1.45894,-1.193138 2.3698,-2.141901 v 1.854401 c -0.23377,0.268332 -0.51992,0.565417 -0.85845,0.891256 -0.33855,0.316254 -0.72545,0.618126 -1.16072,0.905637 -0.42721,0.277917 -0.89473,0.507922 -1.40253,0.690005 -0.50782,0.191667 -1.04385,0.287501 -1.60808,0.287501 -0.24989,0 -0.52394,-0.02879 -0.82217,-0.08625 -0.29019,-0.05746 -0.58037,-0.158127 -0.87054,-0.301883 -0.29019,-0.153329 -0.57231,-0.359378 -0.84636,-0.618126 -0.26601,-0.258758 -0.50379,-0.584586 -0.71336,-0.977516 -0.20151,-0.402492 -0.36676,-0.876874 -0.49572,-1.423133 -0.12091,-0.555833 -0.18137,-1.20751 -0.18137,-1.955021 0,-0.776253 0.0766,-1.54772 0.22973,-2.314399 0.16121,-0.776254 0.38287,-1.514169 0.665,-2.213769 0.29017,-0.709162 0.63677,-1.365626 1.03981,-1.969392 0.40302,-0.6133286 0.84635,-1.140419 1.32998,-1.581271 0.48363,-0.4504038 0.9995,-0.8001982 1.54762,-1.049383 0.55618,-0.2587366 1.12847,-0.3881212 1.7169,-0.3881321 0.57229,1.09e-5 1.04786,0.1150134 1.42672,0.3450075 0.38689,0.2204315 0.69722,0.4887634 0.93099,0.8050067 0.23375,0.3162651 0.39899,0.6421038 0.49572,0.9775051 0.0967,0.335434 0.14508,0.6085636 0.14509,0.8193888 m 17.94277,9.041965 c -0.0404,0.277917 -0.0283,0.503135 0.0363,0.675633 0.0645,0.172498 0.1491,0.311457 0.2539,0.416875 0.11284,0.09584 0.22569,0.162924 0.33854,0.201251 0.1209,0.03838 0.20957,0.05746 0.266,0.05746 0.0564,0 0.16926,-0.02399 0.33854,-0.07186 0.17733,-0.05746 0.36272,-0.119789 0.55618,-0.18688 0.19344,-0.06706 0.37481,-0.129374 0.54409,-0.186881 l 0.33854,-0.114991 v 1.092507 c -0.0967,0.04787 -0.27407,0.129374 -0.532,0.244377 -0.25794,0.105439 -0.54409,0.215622 -0.85844,0.330625 -0.31438,0.115003 -0.64082,0.215634 -0.97935,0.301883 -0.3305,0.08625 -0.62068,0.129374 -0.87054,0.129374 -0.37886,0 -0.68919,-0.05746 -0.931,-0.172499 -0.24182,-0.105439 -0.43124,-0.25396 -0.56827,-0.445628 -0.13703,-0.201251 -0.23376,-0.436054 -0.29017,-0.704386 -0.0484,-0.268332 -0.0726,-0.565417 -0.0726,-0.891256 -0.21764,0.277917 -0.45946,0.551046 -0.72545,0.819378 -0.25794,0.258759 -0.53603,0.49355 -0.83427,0.704387 -0.29824,0.201251 -0.6126,0.364165 -0.94308,0.488752 -0.33049,0.134171 -0.66903,0.201252 -1.01563,0.201252 -0.6932,0 -1.26953,-0.158127 -1.72898,-0.474382 -0.45139,-0.316254 -0.81009,-0.728342 -1.07608,-1.236263 -0.266,-0.507921 -0.45543,-1.073339 -0.56827,-1.696263 -0.10479,-0.622923 -0.15718,-1.245847 -0.15718,-1.868771 0,-0.776254 0.0685,-1.552507 0.20554,-2.328771 0.14509,-0.785838 0.35466,-1.533338 0.62873,-2.242522 0.28211,-0.718747 0.62468,-1.384795 1.02771,-1.998146 0.40302,-0.6133282 0.86248,-1.1452053 1.37835,-1.5956418 0.51588,-0.4599883 1.08817,-0.8193671 1.7169,-1.0781364 0.63677,-0.2587365 1.31789,-0.3881103 2.04335,-0.3881321 0.18538,2.18e-5 0.36674,0.023988 0.54408,0.071856 0.17732,0.038382 0.3466,0.086249 0.50781,0.1437559 0.1612,0.057463 0.31033,0.1198002 0.44737,0.1868696 0.13702,0.067058 0.25793,0.1198111 0.36272,0.1581271 l 0.83427,-5.6781825 -2.2489,-0.2587474 V 0.87700458 l 3.83279,-0.87688463806 h 1.01563 L 308.36403,19.162187 m -0.96727,-9.070719 c 0.008,-0.03827 -0.0403,-0.143734 -0.14509,-0.3162542 -0.0967,-0.1820718 -0.22571,-0.3689523 -0.38691,-0.5606304 -0.15316,-0.1916563 -0.32243,-0.3641547 -0.50781,-0.5175059 -0.18541,-0.1533185 -0.3587,-0.2299832 -0.5199,-0.230005 -0.60455,2.18e-5 -1.18088,0.2108579 -1.72899,0.6325084 -0.54812,0.4120987 -1.03175,0.9823131 -1.4509,1.7106451 -0.41915,0.728352 -0.75366,1.590855 -1.00354,2.587529 -0.24988,0.9871 -0.37481,2.055652 -0.37481,3.205656 0,0.632508 0.0524,1.178767 0.15718,1.638766 0.11284,0.46001 0.25793,0.838547 0.43527,1.135632 0.18538,0.297086 0.39496,0.517506 0.62872,0.661262 0.23375,0.143745 0.47154,0.215623 0.71336,0.215623 0.22568,0 0.46751,-0.06706 0.72544,-0.201252 0.26599,-0.13416 0.53199,-0.311456 0.798,-0.531877 0.26599,-0.230005 0.52795,-0.488752 0.7859,-0.776264 0.26599,-0.297074 0.51184,-0.598957 0.73754,-0.905627 l 1.13654,-7.748206 m 11.82481,0 c 0,-0.1916563 -0.0323,-0.3785367 -0.0967,-0.5606304 -0.0645,-0.1916563 -0.15316,-0.3593679 -0.266,-0.5031347 -0.11286,-0.143734 -0.25392,-0.2587365 -0.42318,-0.3449966 -0.16928,-0.095845 -0.35468,-0.143745 -0.55617,-0.1437559 -0.27407,1.09e-5 -0.53604,0.086249 -0.78591,0.2587584 -0.24989,0.1725092 -0.4917,0.4025143 -0.72545,0.6900042 -0.2257,0.2875117 -0.4393,0.618137 -0.64081,0.991887 -0.19346,0.373761 -0.3708,0.76668 -0.532,1.178757 -0.15315,0.412099 -0.29018,0.828973 -0.41108,1.250634 -0.12091,0.421684 -0.21764,0.8194 -0.29019,1.193139 0.52393,-0.05746 1.06399,-0.20124 1.62017,-0.431245 0.56424,-0.229995 1.07607,-0.522293 1.53554,-0.876885 0.45944,-0.364166 0.83426,-0.776253 1.12444,-1.236264 0.29823,-0.459999 0.44736,-0.948751 0.44736,-1.466268 m 2.20053,0.02879 c -10e-6,0.536686 -0.1048,1.030225 -0.31436,1.48064 -0.20959,0.450425 -0.49573,0.857726 -0.85845,1.221881 -0.35467,0.364187 -0.76979,0.690015 -1.24535,0.977516 -0.46752,0.277927 -0.96324,0.517506 -1.48717,0.718758 -0.51589,0.191667 -1.04385,0.349794 -1.5839,0.474381 -0.54006,0.115002 -1.05593,0.18688 -1.54762,0.215623 -0.0242,0.191678 -0.0483,0.421672 -0.0725,0.690004 -0.0161,0.268343 -0.0242,0.49355 -0.0242,0.675633 0,0.536675 0.0524,1.030225 0.15719,1.48064 0.11284,0.450425 0.27001,0.843344 0.47154,1.178767 0.20957,0.325839 0.45944,0.584586 0.74963,0.776254 0.29017,0.182082 0.61663,0.273129 0.97935,0.273129 0.55617,0 1.16878,-0.239589 1.83781,-0.718757 0.66901,-0.479168 1.45895,-1.193139 2.36979,-2.141902 v 1.854401 c -0.23376,0.268332 -0.51991,0.565417 -0.85845,0.891256 -0.33855,0.316254 -0.72545,0.618126 -1.16071,0.905638 -0.42722,0.277916 -0.89473,0.507921 -1.40254,0.690004 -0.50781,0.191667 -1.04384,0.287501 -1.60808,0.287501 -0.24987,0 -0.52393,-0.02879 -0.82217,-0.08625 -0.29018,-0.05746 -0.58037,-0.158127 -0.87054,-0.301883 -0.29018,-0.153329 -0.57229,-0.359378 -0.84635,-0.618126 -0.266,-0.258758 -0.50379,-0.584586 -0.71336,-0.977516 -0.20152,-0.402492 -0.36676,-0.876873 -0.49573,-1.423133 -0.12091,-0.555832 -0.18135,-1.20751 -0.18135,-1.955021 0,-0.776253 0.0766,-1.54772 0.22972,-2.314399 0.1612,-0.776254 0.38287,-1.514169 0.66499,-2.213769 0.29018,-0.709162 0.63679,-1.365626 1.03981,-1.969392 0.40302,-0.6133285 0.84636,-1.1404189 1.32999,-1.5812709 0.48363,-0.4504038 0.99951,-0.8001982 1.54763,-1.049383 0.55617,-0.2587366 1.12847,-0.3881212 1.71689,-0.3881321 0.57229,1.09e-5 1.04787,0.1150134 1.42671,0.3450075 0.38691,0.2204315 0.69724,0.4887634 0.931,0.8050067 0.23374,0.3162651 0.39899,0.6421038 0.49573,0.9775051 0.0967,0.335434 0.14507,0.6085636 0.14508,0.8193887 m 9.05602,-1.1212608 c -1e-5,0.3450075 -0.0645,0.6229348 -0.19346,0.8337601 -0.12897,0.2012627 -0.28615,0.3593897 -0.47154,0.4743707 -0.18539,0.115013 -0.38288,0.196475 -0.59244,0.244387 -0.20153,0.03838 -0.37886,0.06226 -0.532,0.07186 L 327.5763,8.8264731 c -0.0483,-0.047868 -0.12495,-0.095845 -0.22973,-0.143745 -0.10479,-0.057463 -0.23376,-0.086249 -0.38691,-0.086249 -0.27406,1.09e-5 -0.50379,0.071856 -0.68917,0.2156229 -0.1854,0.1341824 -0.33855,0.3066807 -0.45946,0.5175059 -0.11285,0.2012626 -0.19345,0.4216832 -0.24181,0.6612617 -0.0483,0.2300046 -0.0725,0.4408416 -0.0725,0.6324976 0,0.268354 0.0645,0.541472 0.19346,0.819389 0.12896,0.268343 0.29824,0.541472 0.50781,0.819378 0.20957,0.268353 0.44333,0.536685 0.70127,0.805006 0.26599,0.25877 0.53199,0.51273 0.79799,0.761883 0.27406,0.258769 0.53602,0.527101 0.78591,0.805017 0.25793,0.268343 0.48765,0.551046 0.68917,0.848131 0.20151,0.287512 0.36272,0.594171 0.48364,0.92001 0.12089,0.325838 0.18135,0.666048 0.18136,1.020629 -1e-5,0.603766 -0.1048,1.183566 -0.31436,1.739398 -0.20153,0.555844 -0.5038,1.049383 -0.90681,1.48064 -0.39498,0.431257 -0.8907,0.776253 -1.48718,1.035012 -0.58842,0.249163 -1.2655,0.37375 -2.03125,0.37375 -0.59648,0 -1.11236,-0.08145 -1.54763,-0.244377 -0.43527,-0.15334 -0.79396,-0.354592 -1.07608,-0.603755 -0.28212,-0.258758 -0.49169,-0.551046 -0.62872,-0.876884 -0.13703,-0.325839 -0.20555,-0.656464 -0.20555,-0.991887 0,-0.469584 0.11688,-0.848132 0.35064,-1.135632 0.24182,-0.297086 0.61663,-0.445628 1.12444,-0.445628 0.15315,0 0.29825,0.02399 0.43527,0.07186 0.13703,0.04787 0.26197,0.10544 0.37482,0.172509 0.11285,0.05746 0.20957,0.124587 0.29018,0.201252 0.0887,0.06706 0.15315,0.124587 0.19345,0.172498 l -0.47154,1.437515 c 0.17733,0.297085 0.39497,0.551046 0.6529,0.761882 0.266,0.201252 0.60857,0.301883 1.02773,0.301883 0.24986,0 0.49168,-0.05746 0.72544,-0.172509 0.23375,-0.115003 0.4393,-0.277916 0.61663,-0.488753 0.18539,-0.210836 0.33048,-0.464796 0.43527,-0.761882 0.10479,-0.306669 0.15717,-0.646879 0.15718,-1.02064 -1e-5,-0.297075 -0.0524,-0.575002 -0.15718,-0.833749 -0.0967,-0.268332 -0.23779,-0.527091 -0.42317,-0.776265 -0.17735,-0.249163 -0.39095,-0.493539 -0.64082,-0.733128 -0.24182,-0.249163 -0.51185,-0.507922 -0.81008,-0.776265 -0.25795,-0.239578 -0.50782,-0.498326 -0.74964,-0.776253 -0.23375,-0.277916 -0.44736,-0.570204 -0.64081,-0.876885 -0.18539,-0.316243 -0.33451,-0.646868 -0.44736,-0.991887 -0.11285,-0.344986 -0.16927,-0.699578 -0.16927,-1.063754 0,-0.718747 0.13703,-1.356042 0.41109,-1.9118964 0.27406,-0.5558219 0.62469,-1.0206187 1.0519,-1.3943905 0.43526,-0.3833236 0.91487,-0.6708244 1.4388,-0.8625025 0.532,-0.1916564 1.0519,-0.28749 1.55972,-0.2875118 0.4675,2.18e-5 0.85844,0.067058 1.17281,0.2012517 0.32241,0.1245979 0.58035,0.282725 0.77382,0.4743813 0.20149,0.1821046 0.34255,0.3833562 0.42317,0.603755 0.0887,0.210847 0.13299,0.4025252 0.133,0.5750126 m 10.51901,0.2156229 c -10e-6,0.1916781 -0.0242,0.388143 -0.0725,0.5893838 -0.0484,0.2012629 -0.1451,0.3881429 -0.29018,0.5606309 -0.13704,0.172509 -0.33049,0.330636 -0.58036,0.474381 -0.24182,0.134171 -0.56021,0.230005 -0.95518,0.287501 l -1.41462,-2.2712755 c -0.44333,0.028786 -0.8383,0.1773069 -1.1849,0.445628 -0.34661,0.2587692 -0.65291,0.5941923 -0.9189,1.0062585 -0.25794,0.412099 -0.47961,0.881693 -0.66499,1.408772 -0.17734,0.517506 -0.32243,1.044597 -0.43527,1.581261 -0.11285,0.536685 -0.19346,1.058978 -0.24182,1.566888 -0.0483,0.507933 -0.0725,0.958358 -0.0725,1.351266 -1e-5,0.479179 0.0362,0.953561 0.10881,1.423144 0.0806,0.46001 0.20555,0.876885 0.37482,1.250635 0.17733,0.364176 0.40302,0.661262 0.67708,0.891256 0.28211,0.230005 0.62872,0.345007 1.03981,0.345007 0.33048,0 0.66499,-0.06706 1.00354,-0.201251 0.33853,-0.143756 0.67708,-0.34021 1.01563,-0.589384 0.34659,-0.249163 0.6932,-0.546249 1.03981,-0.891256 0.34659,-0.344997 0.69722,-0.723544 1.0519,-1.135643 v 1.8544 c -0.25795,0.297086 -0.55216,0.61334 -0.88263,0.948763 -0.33049,0.335412 -0.69724,0.64688 -1.10027,0.93438 -0.40303,0.287501 -0.84636,0.527091 -1.32998,0.718758 -0.47558,0.191667 -0.98743,0.287501 -1.53554,0.287501 -0.58842,0 -1.12041,-0.119789 -1.59598,-0.359379 -0.46752,-0.249163 -0.86651,-0.603755 -1.19699,-1.063765 -0.32242,-0.469584 -0.5723,-1.044585 -0.74963,-1.725016 -0.17733,-0.68042 -0.266,-1.456673 -0.266,-2.328771 0,-0.881671 0.0846,-1.725005 0.2539,-2.530023 0.17733,-0.804995 0.41915,-1.557304 0.72545,-2.256903 0.3063,-0.699578 0.66903,-1.332087 1.08817,-1.8975147 0.41915,-0.5749908 0.87457,-1.0637433 1.36627,-1.4662685 0.49169,-0.412066 1.01159,-0.7283202 1.55971,-0.9487517 0.54811,-0.2204096 1.10026,-0.3306145 1.65645,-0.3306363 0.44332,2.18e-5 0.8262,0.067058 1.14862,0.2012517 0.32241,0.1341823 0.58438,0.3018939 0.7859,0.5031346 0.20151,0.2012626 0.35062,0.4264809 0.44736,0.675633 0.0967,0.2396004 0.14509,0.4695945 0.1451,0.6900042 m 13.73516,11.7444967 c -0.1048,0.04787 -0.2902,0.129374 -0.55619,0.244377 -0.25794,0.115002 -0.54813,0.239589 -0.87053,0.37375 -0.32243,0.124586 -0.65291,0.234791 -0.99145,0.330625 -0.33855,0.09584 -0.63679,0.143756 -0.89472,0.143756 -0.15316,0 -0.34661,-0.02879 -0.58036,-0.08625 -0.23376,-0.04787 -0.45543,-0.138959 -0.66499,-0.27313 -0.20152,-0.143756 -0.36273,-0.34021 -0.48363,-0.589384 -0.12092,-0.249163 -0.14913,-0.575001 -0.0846,-0.977505 l 1.51134,-8.682586 c 0.0725,-0.383324 0.0645,-0.723544 -0.0242,-1.020641 -0.0806,-0.297074 -0.19749,-0.5414503 -0.35064,-0.7331284 -0.15316,-0.2012408 -0.32243,-0.3497834 -0.50781,-0.445628 -0.1854,-0.1054398 -0.34662,-0.1581161 -0.48363,-0.1581271 -0.19347,1.1e-5 -0.43125,0.057463 -0.71336,0.1724984 -0.27407,0.1150134 -0.56828,0.2731405 -0.88263,0.4743813 -0.30631,0.2012625 -0.61664,0.4456388 -0.93099,0.7331288 -0.31437,0.277938 -0.60858,0.584608 -0.88263,0.920009 l -1.81362,10.306982 h -2.27308 L 345.66409,2.0270188 343.46356,1.7682714 V 0.87701549 l 3.86906,-0.87688464424 h 0.99145 L 346.65554,9.5020951 c 0.24987,-0.3258168 0.54408,-0.6324865 0.88263,-0.9200092 0.34659,-0.2874899 0.71335,-0.536653 1.10026,-0.7475 0.39496,-0.2204097 0.80202,-0.3881212 1.22117,-0.5031346 0.4272,-0.1245652 0.84635,-0.1868587 1.25744,-0.1868805 0.45139,2.18e-5 0.85038,0.086249 1.197,0.2587584 0.34659,0.1629357 0.62468,0.4120987 0.83427,0.7475109 0.21762,0.3258495 0.35464,0.7379264 0.41108,1.2362525 0.0645,0.4983588 0.0362,1.0781474 -0.0847,1.7393984 l -1.36626,7.920704 c -0.0484,0.277916 -0.0363,0.512719 0.0362,0.704386 0.0725,0.182083 0.16926,0.330626 0.29019,0.445628 0.12895,0.10544 0.26195,0.182083 0.39899,0.229994 0.13702,0.03838 0.2418,0.05746 0.31436,0.05746 0.22568,0 0.47153,-0.06706 0.73754,-0.201251 0.26598,-0.134172 0.54004,-0.253961 0.82217,-0.359379 l 0.0242,1.035012 m 6.55323,-0.115003 c -0.0967,0.04787 -0.27407,0.138958 -0.532,0.27313 -0.25795,0.13416 -0.56022,0.273129 -0.90681,0.416874 -0.34662,0.134172 -0.71337,0.253961 -1.10027,0.359379 -0.37885,0.10544 -0.73754,0.158127 -1.07608,0.158127 -0.42721,0 -0.76575,-0.08625 -1.01563,-0.258747 -0.24987,-0.17251 -0.43527,-0.397717 -0.55617,-0.675633 -0.12091,-0.277928 -0.18943,-0.589384 -0.20555,-0.934392 -0.0161,-0.344996 0.004,-0.685206 0.0604,-1.020629 l 1.5839,-9.9763567 -2.12798,-0.2731187 V 8.0645364 l 3.73606,-0.9200092 h 1.01563 l -1.87407,11.7732508 c -0.0323,0.201251 -0.0323,0.392918 0,0.575001 0.0403,0.182083 0.10075,0.345008 0.18136,0.488753 0.0887,0.134171 0.19748,0.244387 0.32645,0.330636 0.13703,0.07665 0.29017,0.115003 0.45945,0.114992 0.14508,1.1e-5 0.31435,-0.02879 0.50781,-0.08625 0.20152,-0.06706 0.399,-0.138958 0.59245,-0.215622 0.20151,-0.08625 0.3869,-0.167712 0.55618,-0.244377 0.16927,-0.07665 0.2942,-0.129373 0.37482,-0.158127 v 1.121261 M 361.17654,2.8176107 c 0,0.2204424 -0.0362,0.4312785 -0.10881,0.6325084 -0.0645,0.191689 -0.16122,0.3641873 -0.29018,0.5175059 -0.12092,0.1533512 -0.27407,0.2779381 -0.45945,0.37375 -0.18539,0.086249 -0.399,0.1293955 -0.64081,0.1293846 -0.50782,1.09e-5 -0.8907,-0.1581162 -1.14863,-0.4743813 -0.25794,-0.3258277 -0.38691,-0.7187466 -0.38691,-1.1787676 0,-0.1916454 0.0323,-0.3833126 0.0967,-0.5750017 0.0725,-0.1916563 0.1733,-0.3641546 0.30227,-0.5175058 0.13702,-0.162903 0.30227,-0.2922767 0.49573,-0.3881322 0.19344,-0.1054398 0.41511,-0.1581053 0.66499,-0.1581271 0.23375,2.18e-5 0.43929,0.047977 0.61663,0.1437559 0.18538,0.095844 0.34257,0.2204315 0.47154,0.37375 0.12897,0.1533512 0.22569,0.3306472 0.29018,0.5318771 0.0645,0.191689 0.0967,0.3881539 0.0967,0.5893838 m 8.8142,6.1813171 c 0,0.3450075 -0.0645,0.6229348 -0.19344,0.83376 -0.12898,0.2012622 -0.28616,0.3593902 -0.47154,0.4743702 -0.18541,0.115014 -0.38289,0.196476 -0.59246,0.244387 -0.20151,0.03838 -0.37885,0.06226 -0.53199,0.07186 l -1.11236,-1.7968944 c -0.0483,-0.047868 -0.12494,-0.095845 -0.22972,-0.1437449 -0.10479,-0.057463 -0.23376,-0.086249 -0.38691,-0.086249 -0.27406,1.09e-5 -0.50378,0.071856 -0.68918,0.2156229 -0.18539,0.1341823 -0.33854,0.3066807 -0.45944,0.5175059 -0.11285,0.2012626 -0.19346,0.4216831 -0.24182,0.6612617 -0.0483,0.230005 -0.0725,0.440841 -0.0725,0.632498 0,0.268353 0.0645,0.541472 0.19346,0.819388 0.12896,0.268343 0.29823,0.541473 0.50781,0.819378 0.20957,0.268354 0.44333,0.536686 0.70127,0.805007 0.26599,0.258769 0.53199,0.51273 0.79799,0.761882 0.27405,0.258769 0.53602,0.527101 0.7859,0.805018 0.25793,0.268343 0.48766,0.551046 0.68918,0.848131 0.2015,0.287512 0.36272,0.594171 0.48363,0.920009 0.12091,0.325839 0.18136,0.666049 0.18136,1.02063 0,0.603766 -0.10479,1.183565 -0.31436,1.739398 -0.20151,0.555844 -0.50378,1.049383 -0.90681,1.48064 -0.39497,0.431256 -0.8907,0.776253 -1.48717,1.035011 -0.58842,0.249163 -1.26551,0.37375 -2.03125,0.37375 -0.59649,0 -1.11236,-0.08145 -1.54762,-0.244376 -0.43528,-0.15334 -0.79397,-0.354592 -1.07609,-0.603755 -0.28212,-0.258758 -0.49169,-0.551046 -0.62872,-0.876885 -0.13703,-0.325838 -0.20554,-0.656464 -0.20554,-0.991887 0,-0.469583 0.11687,-0.848131 0.35063,-1.135632 0.24181,-0.297085 0.61663,-0.445628 1.12445,-0.445628 0.15315,0 0.29823,0.02399 0.43527,0.07186 0.13702,0.04787 0.26196,0.10544 0.37481,0.17251 0.11284,0.05746 0.20957,0.124586 0.29017,0.201251 0.0887,0.06706 0.15315,0.124587 0.19346,0.172499 l -0.47154,1.437515 c 0.17733,0.297085 0.39496,0.551046 0.6529,0.761882 0.266,0.201251 0.60857,0.301883 1.02772,0.301883 0.24988,0 0.49169,-0.05746 0.72545,-0.17251 0.23375,-0.115002 0.43929,-0.277916 0.61663,-0.488752 0.18539,-0.210836 0.33047,-0.464797 0.43527,-0.761882 0.10478,-0.30667 0.15718,-0.64688 0.15719,-1.020641 -1e-5,-0.297074 -0.0524,-0.575001 -0.15719,-0.833749 -0.0967,-0.268332 -0.23779,-0.52709 -0.42318,-0.776264 -0.17733,-0.249163 -0.39094,-0.493539 -0.64081,-0.733129 -0.24182,-0.249163 -0.51185,-0.507921 -0.81009,-0.776264 -0.25793,-0.239579 -0.50781,-0.498326 -0.74962,-0.776253 -0.23377,-0.277917 -0.44737,-0.570204 -0.64082,-0.876885 -0.18539,-0.316243 -0.33451,-0.646869 -0.44735,-0.991887 -0.11285,-0.344986 -0.16928,-0.699578 -0.16928,-1.063754 0,-0.718747 0.13703,-1.356042 0.41109,-1.9118968 0.27405,-0.5558219 0.62469,-1.0206187 1.0519,-1.3943906 0.43527,-0.3833235 0.91486,-0.6708243 1.43881,-0.8625025 0.53199,-0.1916563 1.05189,-0.2874899 1.55971,-0.2875117 0.46751,2.18e-5 0.85844,0.067058 1.17281,0.2012517 0.32241,0.1245978 0.58035,0.2827249 0.77381,0.4743813 0.20151,0.1821045 0.34257,0.3833562 0.42318,0.603755 0.0887,0.210847 0.13299,0.4025251 0.13299,0.5750126 m 9.73311,1.150003 c 0.008,-0.04787 -0.0242,-0.158105 -0.0967,-0.3306251 -0.0645,-0.1724874 -0.1451,-0.3497834 -0.24182,-0.5318771 -0.0967,-0.1916563 -0.20153,-0.3593679 -0.31437,-0.5031346 -0.10479,-0.1437341 -0.19345,-0.215612 -0.266,-0.2156229 -0.62872,1.09e-5 -1.19295,0.1245978 -1.69271,0.37375 -0.4917,0.2396003 -0.92293,0.5702258 -1.29371,0.9918871 -0.3708,0.4120986 -0.68918,0.8912666 -0.95518,1.4375156 -0.25794,0.54627 -0.46751,1.116474 -0.62871,1.710644 -0.16122,0.594182 -0.2781,1.193139 -0.35064,1.796894 -0.0726,0.603755 -0.10882,1.178768 -0.10882,1.725016 0,0.412088 0.0283,0.824176 0.0847,1.236263 0.0564,0.412088 0.15315,0.785838 0.29018,1.121261 0.14509,0.335423 0.33855,0.608553 0.58036,0.819378 0.24988,0.210836 0.56827,0.316254 0.95518,0.316254 0.29017,0 0.58035,-0.07665 0.87054,-0.230005 0.29017,-0.153329 0.5602,-0.330625 0.81008,-0.531877 0.24987,-0.201251 0.4675,-0.402503 0.6529,-0.603755 0.18539,-0.201251 0.32241,-0.354581 0.41109,-0.459999 l 1.29372,-8.121967 m 3.63933,10.75261 c -0.0967,0.04787 -0.27407,0.138958 -0.53199,0.27313 -0.25795,0.124587 -0.54813,0.25396 -0.87054,0.388132 -0.31437,0.124587 -0.6368,0.234792 -0.96726,0.330625 -0.32244,0.10544 -0.60456,0.158127 -0.84637,0.158127 -0.29824,0 -0.55215,-0.04307 -0.76171,-0.129373 -0.20153,-0.08625 -0.3708,-0.215634 -0.50781,-0.388132 -0.12899,-0.172499 -0.22974,-0.383335 -0.30227,-0.632509 -0.0726,-0.249163 -0.12093,-0.536664 -0.1451,-0.862502 -0.18539,0.210836 -0.40303,0.436043 -0.6529,0.675633 -0.24989,0.229994 -0.52797,0.445628 -0.83427,0.646879 -0.29824,0.201252 -0.62066,0.364166 -0.96727,0.488753 -0.33854,0.134171 -0.6932,0.201251 -1.06398,0.201251 -0.48364,0 -0.91085,-0.08145 -1.28163,-0.244376 -0.36272,-0.162914 -0.67709,-0.378548 -0.94308,-0.646879 -0.26601,-0.277917 -0.48766,-0.594171 -0.665,-0.948763 -0.16927,-0.364166 -0.3063,-0.737926 -0.41108,-1.121261 -0.10479,-0.392919 -0.17733,-0.785838 -0.21764,-1.178757 -0.0403,-0.402503 -0.0604,-0.781051 -0.0604,-1.135643 0,-0.757084 0.0685,-1.518966 0.20554,-2.285646 0.13704,-0.776253 0.33855,-1.518967 0.60454,-2.228151 0.27406,-0.718746 0.61261,-1.389582 1.01564,-2.012516 0.40302,-0.6229134 0.8665,-1.164375 1.39044,-1.6243959 0.53199,-0.4599883 1.12041,-0.8193671 1.76525,-1.0781364 0.6529,-0.268321 1.36626,-0.4024815 2.14008,-0.4025033 0.22569,2.18e-5 0.44735,0.033584 0.665,0.1006422 0.22568,0.057572 0.43526,0.1389691 0.62871,0.2443762 0.19345,0.095845 0.37078,0.2060603 0.532,0.3306255 0.1612,0.1245978 0.29824,0.2539825 0.4111,0.3881321 l 0.36271,-0.7043863 h 1.69272 c -0.0403,0.1150243 -0.0847,0.2539825 -0.133,0.4168855 -0.0484,0.1533512 -0.0967,0.3114674 -0.14509,0.4743812 -0.0483,0.1629248 -0.0927,0.3162651 -0.133,0.4599992 -0.0323,0.1437668 -0.0524,0.2539716 -0.0604,0.3306254 -0.0564,0.2587693 -0.13704,0.6516882 -0.24182,1.1787676 -0.1048,0.517517 -0.21764,1.102103 -0.33854,1.753769 -0.11286,0.651678 -0.23377,1.336895 -0.36272,2.055642 -0.12092,0.709184 -0.22974,1.384817 -0.32646,2.026899 -0.0967,0.632508 -0.17734,1.197925 -0.24181,1.696262 -0.0645,0.488764 -0.0967,0.843345 -0.0967,1.063765 -10e-6,0.517506 0.0927,0.872087 0.27809,1.063754 0.18538,0.191679 0.44735,0.287512 0.7859,0.287512 0.0806,0 0.19747,-0.01919 0.35064,-0.05746 0.1612,-0.04787 0.32643,-0.100642 0.49572,-0.158127 0.16925,-0.05746 0.32644,-0.110205 0.47154,-0.158127 0.14508,-0.04787 0.24986,-0.08145 0.31436,-0.100642 v 1.063754 M 383.6897,1.2363615 c -0.0968,0.4983588 -0.26602,1.0014826 -0.50782,1.5093822 -0.23377,0.4983587 -0.54007,0.9535711 -0.91891,1.365648 -0.37079,0.4025143 -0.81411,0.7331397 -1.32998,0.9918763 -0.50782,0.2491848 -1.08819,0.3737718 -1.74108,0.3737609 -0.58843,1.09e-5 -1.08818,-0.1006422 -1.49926,-0.301883 -0.4111,-0.2012299 -0.7456,-0.464775 -1.00353,-0.7906355 -0.24989,-0.3258168 -0.43528,-0.69478 -0.55618,-1.1068787 -0.11286,-0.4120769 -0.16928,-0.8289515 -0.16928,-1.2506456 0,-0.1149807 0.004,-0.2395567 0.0121,-0.37375 0.008,-0.1341496 0.0202,-0.2731078 0.0362,-0.4168746 h 1.29372 c 0.0161,0.4312677 0.0887,0.7954441 0.21763,1.0925076 0.13702,0.2875226 0.30629,0.5223144 0.50781,0.7043863 0.20151,0.1725201 0.42317,0.2970962 0.665,0.37375 0.24986,0.076654 0.49571,0.1150134 0.73754,0.1150025 0.24986,1.09e-5 0.51586,-0.038272 0.79799,-0.1150025 0.29017,-0.076654 0.56826,-0.2060275 0.83427,-0.3881321 0.27404,-0.182061 0.52796,-0.4168528 0.76172,-0.7043754 0.2418,-0.2970744 0.44332,-0.6564532 0.60454,-1.0781364 h 1.25745"
     style="font-style:italic;font-variant:normal;font-weight:normal;font-stretch:normal;font-size:27px;line-height:150%;font-family:'Charis SIL';-inkscape-font-specification:'Charis SIL Italic';text-align:center;writing-mode:lr-tb;text-anchor:middle;fill:#000000;fill-opacity:1;stroke:none;stroke-width:1px;stroke-linecap:butt;stroke-linejoin:miter;stroke-opacity:1" />
</svg>
