<?xml version="1.0" encoding="UTF-8" standalone="no"?>
<!-- Created with Inkscape (http://www.inkscape.org/) -->

<svg
   xmlns:dc="http://purl.org/dc/elements/1.1/"
   xmlns:cc="http://creativecommons.org/ns#"
   xmlns:rdf="http://www.w3.org/1999/02/22-rdf-syntax-ns#"
   xmlns:svg="http://www.w3.org/2000/svg"
   xmlns="http://www.w3.org/2000/svg"
   xmlns:sodipodi="http://sodipodi.sourceforge.net/DTD/sodipodi-0.dtd"
   xmlns:inkscape="http://www.inkscape.org/namespaces/inkscape"
   width="2150"
   height="480"
   id="svg2"
   sodipodi:version="0.32"
   inkscape:version="0.48.2 r9819"
   version="1.0"
   sodipodi:docname="Macedonian_Wikisource_logo_-_mk_(2).svg"
   inkscape:output_extension="org.inkscape.output.svg.inkscape">
  <defs
     id="defs4">
    <inkscape:perspective
       sodipodi:type="inkscape:persp3d"
       inkscape:vp_x="0 : 526.18109 : 1"
       inkscape:vp_y="0 : 1000 : 0"
       inkscape:vp_z="744.09448 : 526.18109 : 1"
       inkscape:persp3d-origin="372.04724 : 350.78739 : 1"
       id="perspective10" />
    <inkscape:perspective
       id="perspective3393"
       inkscape:persp3d-origin="205 : 143.33333 : 1"
       inkscape:vp_z="410 : 215 : 1"
       inkscape:vp_y="0 : 1000 : 0"
       inkscape:vp_x="0 : 215 : 1"
       sodipodi:type="inkscape:persp3d" />
  </defs>
  <sodipodi:namedview
     id="base"
     pagecolor="#ffffff"
     bordercolor="#666666"
     borderopacity="1.0"
     gridtolerance="10000"
     guidetolerance="10"
     objecttolerance="10"
     inkscape:pageopacity="0.0"
     inkscape:pageshadow="2"
     inkscape:zoom="0.2362777"
     inkscape:cx="1522.0092"
     inkscape:cy="162.94353"
     inkscape:document-units="px"
     inkscape:current-layer="layer1"
     showgrid="false"
     inkscape:window-width="1280"
     inkscape:window-height="738"
     inkscape:window-x="-8"
     inkscape:window-y="-8"
     inkscape:window-maximized="0" />
  <metadata
     id="metadata7">
    <rdf:RDF>
      <cc:Work
         rdf:about="">
        <dc:format>image/svg+xml</dc:format>
        <dc:type
           rdf:resource="http://purl.org/dc/dcmitype/StillImage" />
        <dc:title />
      </cc:Work>
    </rdf:RDF>
  </metadata>
  <g
     inkscape:label="Layer 1"
     inkscape:groupmode="layer"
     id="layer1"
     transform="translate(0,-220)">
    <text
       xml:space="preserve"
       style="font-size:40px;font-style:normal;font-weight:normal;line-height:125%;letter-spacing:0px;word-spacing:0px;fill:#000000;fill-opacity:1;stroke:none;font-family:Sans"
       x="713.12805"
       y="403.56259"
       id="text3088"
       sodipodi:linespacing="125%"><tspan
         sodipodi:role="line"
         id="tspan3090"
         x="713.12805"
         y="403.56259"
         style="font-size:144px;font-style:normal;font-variant:normal;font-weight:bold;font-stretch:normal;font-family:Macedonian Church;-inkscape-font-specification:Macedonian Church Bold" /></text>
    <text
       xml:space="preserve"
       style="font-size:40px;font-style:normal;font-weight:normal;line-height:125%;letter-spacing:0px;word-spacing:0px;fill:#000000;fill-opacity:1;stroke:none;font-family:Sans"
       x="1100.6088"
       y="417.90182"
       id="text3010"
       sodipodi:linespacing="125%"><tspan
         sodipodi:role="line"
         x="1100.6088"
         y="417.90182"
         id="tspan3014"
         style="font-size:144px;font-style:normal;font-variant:normal;font-weight:bold;font-stretch:normal;text-align:center;text-anchor:middle;font-family:Macedonian Church;-inkscape-font-specification:Macedonian Church Bold" /></text>
    <path
       style="opacity:0.87610622999999999;fill:#1a1a1a;fill-opacity:1;stroke:none"
       d="m 163.43073,224.17095 c -1.51745,-0.61008 -2.15227,-2.36612 -3.40037,-9.40601 -0.88928,-5.016 -1.72324,-8.31172 -3.1074,-12.28024 -2.4984,-7.16314 -2.81833,-8.58852 -2.24071,-9.98303 0.78719,-1.90043 2.40628,-2.56901 5.84694,-2.4144 7.15483,0.3215 6.87969,0.35434 8.0553,-0.96152 1.32777,-1.48619 1.61038,-2.52332 2.78745,-10.22981 2.59629,-16.99825 8.22922,-32.02143 18.71861,-49.92304 6.1194,-10.4436 8.52767,-16.17064 9.01081,-21.42835 0.30392,-3.30738 -0.26197,-5.3128 -1.90666,-6.75686 -1.83555,-1.61163 -3.38391,-1.920557 -9.63775,-1.922922 l -5.51777,-0.0021 0,-2.992694 0,-2.992693 24.68972,0 24.68972,0 0,2.992693 0,2.992694 -4.31895,0 -4.31895,0 0.19587,1.215778 c 0.10772,0.66868 0.4622,3.57253 0.78773,6.453 2.09573,18.54433 5.88841,38.54193 11.62308,61.28474 3.69958,14.67192 5.94412,20.96282 8.25343,23.1323 l 0.90153,0.84695 2.69678,-0.92133 c 1.48322,-0.50673 3.51019,-0.92133 4.50437,-0.92133 1.56891,0 1.95174,0.16133 2.89917,1.22169 1.5731,1.7606 1.46078,3.49796 -0.60308,9.32843 -2.03949,5.76162 -3.25991,10.49315 -4.12951,16.01004 -0.76654,4.86306 -1.5799,6.71728 -3.30805,7.54138 -1.63416,0.77928 -3.11377,0.30466 -4.24218,-1.36077 -0.88648,-1.30837 -1.00142,-1.69591 -2.27695,-7.67696 -1.47095,-6.89738 -4.96631,-12.33634 -9.35826,-14.56191 -4.43211,-2.24592 -9.41136,-2.83445 -23.94186,-2.82983 -16.00356,0.005 -23.27112,0.71904 -27.07546,2.65987 -2.36905,1.20859 -5.20267,4.34819 -6.74394,7.47214 -0.75184,1.52388 -1.97449,4.9591 -2.71701,7.63382 -1.77149,6.38131 -1.91959,6.72999 -3.41683,8.04458 -1.32587,1.16414 -1.98061,1.30586 -3.39882,0.73568 l 0,0 z m 55.12241,-33.18942 c -0.7042,-2.34075 -6.88724,-25.94694 -7.96107,-30.39454 -0.7203,-2.98334 -2.71688,-12.47147 -4.43684,-21.08473 -1.71997,-8.61326 -3.22211,-15.75538 -3.33811,-15.87138 -0.28022,-0.28021 -0.79137,0.39535 -4.46946,5.90691 -3.66639,5.49403 -6.50546,10.73783 -9.31667,17.20799 -5.84982,13.4637 -9.61042,27.06518 -9.61042,34.75934 0,6.16079 1.79728,8.72565 6.9206,9.87625 0.4115,0.0924 7.87184,0.18755 16.57855,0.21142 14.91361,0.0409 15.81897,0.005 15.63342,-0.61126 l 0,0 z"
       id="path3016"
       inkscape:connector-curvature="0"
       transform="translate(0,220)" />
    <path
       style="opacity:0.87610622999999999;fill:#1a1a1a;fill-opacity:1;stroke:none"
       d="m 287.19668,202.28898 c -4.10337,-1.14858 -8.23895,-4.05682 -12.02613,-8.45707 -4.77134,-5.54372 -9.26788,-13.44233 -10.83325,-19.02963 -2.60922,-9.31315 -0.27974,-22.75168 5.77512,-33.31604 4.36618,-7.61797 10.67483,-14.76266 15.17469,-17.18566 2.18665,-1.17743 2.71414,-1.30636 5.23721,-1.28005 4.90784,0.0512 10.30682,2.98221 16.12042,8.75156 7.71328,7.65457 10.99638,15.68092 10.94488,26.75742 -0.0208,4.46491 -0.17282,5.78609 -1.03114,8.95934 -1.9799,7.31981 -6.51637,17.28648 -10.96627,24.09298 -2.78503,4.25996 -7.13191,8.60652 -9.91003,9.90932 -2.6881,1.26058 -5.79026,1.55225 -8.4855,0.79783 l 0,0 z m 16.05527,-17.99357 c 0.71483,-0.71484 1.91534,-4.78033 2.3327,-7.89969 0.7807,-5.83489 -0.69727,-14.03961 -3.55529,-19.73664 -4.49481,-8.9597 -11.39642,-14.6751 -20.20018,-16.72829 l -3.40706,-0.79459 -1.00376,1.20234 c -1.52721,1.82936 -2.97016,5.04899 -3.59778,8.02768 -1.84015,8.73343 3.34157,22.58806 11.26195,30.11165 3.63005,3.44819 7.70521,5.4863 12.36239,6.18279 1.79057,0.26779 5.40108,0.0407 5.80703,-0.36525 z"
       id="path3018"
       inkscape:connector-curvature="0"
       transform="translate(0,220)" />
    <path
       style="opacity:0.87610622999999999;fill:#1a1a1a;fill-opacity:1;stroke:none"
       d="m 332.57922,197.19826 c -0.42791,-0.21031 -1.09357,-0.91654 -1.47924,-1.5694 -0.99523,-1.68473 -1.10305,-6.70088 -0.54885,-25.53417 0.25377,-8.62407 0.57239,-20.7303 0.70804,-26.90273 0.26894,-12.23738 0.38396,-12.88104 2.55647,-14.3053 0.92628,-0.60725 3.14711,-0.67747 28.70337,-0.90764 15.23468,-0.13721 28.23226,-0.16324 28.88352,-0.0578 1.66134,0.26887 2.87696,1.67348 2.81748,3.25551 -0.0618,1.64437 -0.8429,3.58122 -3.48773,8.64848 -1.18127,2.26322 -2.93304,6.05085 -3.8928,8.41695 -0.95977,2.3661 -1.86062,4.42577 -2.00188,4.57704 -0.14127,0.15128 -1.61162,0.17058 -3.26745,0.0429 l -3.0106,-0.23216 0.17455,-5.743 c 0.21092,-6.93973 -0.13498,-8.54739 -2.32945,-10.8267 -2.51466,-2.61187 -3.88974,-2.87571 -15.96737,-3.06368 l -10.32864,-0.16074 -0.43814,4.05583 c -0.7372,6.8241 -1.14535,13.18569 -1.15425,17.99056 l -0.008,4.58256 2.39193,0 c 6.50501,0 15.55147,1.59167 20.98849,3.69281 11.57245,4.47218 19.68858,14.51486 21.15008,26.17055 0.45357,3.61727 0.0596,5.77103 -1.3052,7.13607 l -0.97022,0.97037 -28.7028,0.073 c -18.94065,0.0482 -28.96741,-0.057 -29.48082,-0.30932 z m 40.37282,-6.03673 c 0.26709,-2.27256 -0.28293,-9.10898 -0.90986,-11.30908 -1.90544,-6.68671 -7.40143,-11.55717 -14.75654,-13.07703 -4.36367,-0.9017 -8.42258,-1.14985 -8.80961,-0.5386 -0.182,0.28743 -0.33348,6.45655 -0.33663,13.70915 l -0.006,13.18656 12.29336,0 12.29336,0 0.23165,-1.971 z"
       id="path3020"
       inkscape:connector-curvature="0"
       transform="translate(0,220)" />
    <path
       style="opacity:0.87610622999999999;fill:#1a1a1a;fill-opacity:1;stroke:none"
       d="m 407.91989,235.71435 c -0.56447,-0.44623 -0.64565,-1.98919 -0.7937,-15.08645 -0.14306,-12.65517 -0.31726,-16.15162 -1.31396,-26.37311 -2.42788,-24.89886 -2.51932,-32.64733 -0.47898,-40.58841 3.13045,-12.18375 12.79212,-25.14938 21.92569,-29.42349 2.14315,-1.0029 2.76868,-1.12917 4.96398,-1.00201 3.69935,0.21427 5.63081,1.30018 9.80932,5.51501 8.32212,8.39446 14.35364,20.84715 16.11054,33.26185 0.65504,4.62864 0.26215,14.81412 -0.71212,18.46147 -2.83512,10.61379 -8.36912,17.30301 -15.7328,19.01697 -2.70551,0.62974 -7.52251,0.28698 -10.1974,-0.7256 -4.43183,-1.67768 -10.57604,-6.72737 -12.4689,-10.24771 -0.87312,-1.62381 -1.46315,-1.79905 -1.16835,-0.34699 1.01961,5.0222 1.50188,12.75041 1.51156,24.22212 0.01,11.66243 -0.0358,12.50851 -0.82564,15.30532 -1.6044,5.68106 -3.87528,8.09033 -7.88329,8.36369 -1.3917,0.0949 -2.33262,-0.0259 -2.74595,-0.35266 l 0,0 z m 30.67804,-45.67432 c 1.08274,-0.71652 1.84565,-1.69547 2.74596,-3.52357 1.24319,-2.52432 1.24704,-2.54926 1.37591,-8.92343 0.0968,-4.78767 -0.024,-7.20998 -0.48141,-9.65087 -1.5508,-8.27605 -6.91045,-19.11098 -12.58178,-25.43498 -1.74866,-1.94991 -6.74377,-5.86174 -7.48498,-5.86174 -0.45197,0 -2.41477,3.64311 -3.66927,6.81046 -1.96477,4.96062 -2.76672,9.75267 -2.77299,16.56996 -0.008,8.68991 1.52164,14.75006 5.22126,20.68586 1.96926,3.15954 5.88776,7.4989 7.88786,8.73503 3.41764,2.11222 7.12373,2.33751 9.75944,0.59328 l 0,0 z"
       id="path3022"
       inkscape:connector-curvature="0"
       transform="translate(0,220)" />
    <path
       style="opacity:0.87610622999999999;fill:#1a1a1a;fill-opacity:1;stroke:none"
       d="m 500.76105,202.64641 c -0.51437,-0.0902 -2.19776,-0.34946 -3.74087,-0.57605 -8.46674,-1.24326 -16.96515,-5.82033 -21.72837,-11.70245 -5.50015,-6.79218 -7.80508,-15.6213 -7.33513,-28.09753 0.25482,-6.7648 1.26676,-11.18572 3.76998,-16.47006 6.21002,-13.10949 15.4869,-19.61848 27.97274,-19.62669 8.26168,-0.005 14.55815,2.14075 24.22129,8.2559 1.70396,1.07833 2.35418,1.27692 4.11495,1.25681 1.15017,-0.0131 2.42789,-0.13623 2.83939,-0.27355 0.59231,-0.19766 1.07792,0.15801 2.33102,1.70727 l 1.58285,1.95694 -1.02172,0.84051 c -2.68845,2.21163 -9.1312,4.5649 -12.53423,4.57822 -1.89301,0.007 -5.04307,-1.13853 -7.25462,-2.63912 -0.9942,-0.67458 -3.74354,-3.20804 -6.10964,-5.62989 -4.43225,-4.53671 -5.42613,-5.19843 -7.78665,-5.18437 -5.75852,0.0343 -9.52332,6.65225 -10.89348,19.14899 -0.39796,3.62962 -0.5535,11.89199 -0.22387,11.89199 0.0959,0 1.23222,-0.68644 2.52509,-1.52542 5.35994,-3.47826 12.50936,-6.32601 16.59565,-6.61038 3.38752,-0.23574 5.53524,0.38111 11.43295,3.28367 2.49605,1.22844 4.99657,2.23353 5.55671,2.23353 0.56013,0 1.97679,-0.48341 3.14813,-1.07425 l 2.12972,-1.07425 1.28978,1.68917 c 0.70938,0.92905 1.28978,1.81011 1.28978,1.95791 0,0.62415 -6.57689,6.51428 -9.1478,8.19259 -5.29988,3.45979 -7.67287,3.36757 -14.26604,-0.55445 -2.22351,-1.32268 -4.97734,-2.7636 -6.11961,-3.20204 -2.68976,-1.0324 -5.98731,-1.09967 -8.43635,-0.1721 -2.26478,0.85779 -5.78403,3.11701 -6.08755,3.90799 -0.30142,0.78548 0.50492,7.59186 1.22532,10.34307 0.95549,3.64898 3.45991,8.29014 5.85511,10.85062 7.26536,7.76668 19.4046,7.67938 31.04172,-0.22324 l 2.32784,-1.5808 1.2528,1.4621 1.2528,1.46209 -2.16125,2.01535 c -6.34513,5.91679 -13.89769,8.8984 -23.29714,9.1973 -2.57185,0.0818 -5.09693,0.0749 -5.6113,-0.0154 z"
       id="path3024"
       inkscape:connector-curvature="0"
       transform="translate(0,220)" />
    <path
       style="opacity:0.87610622999999999;fill:#1a1a1a;fill-opacity:1;stroke:none"
       d="m 585.87028,219.03856 c -1.88911,-3.85806 -4.72821,-8.95055 -6.3091,-11.31665 -4.75295,-7.11366 -6.51063,-10.87629 -6.01091,-12.86737 0.43149,-1.71915 1.73526,-2.19915 6.71399,-2.47181 7.0899,-0.38828 8.0624,-1.11153 11.60662,-8.63188 4.79722,-10.17903 11.76384,-32.67442 12.95337,-41.8268 0.51697,-3.9776 0.32169,-5.85351 -0.98706,-9.48167 -0.50899,-1.41103 -0.87268,-2.9364 -0.80819,-3.3897 l 0.11724,-0.82419 11.78374,-0.21103 c 6.48105,-0.11607 12.14599,-0.0844 12.58875,0.0703 1.08879,0.38052 1.5165,1.99037 1.77667,6.68723 0.4647,8.3892 5.08502,25.81268 11.48647,43.31613 4.47309,12.23074 6.29595,14.84995 10.19398,14.64737 3.92406,-0.20393 5.109,0.52179 5.09545,3.12072 -0.0112,2.1454 -0.66007,3.43091 -5.98788,11.86268 -2.53513,4.01208 -5.77905,9.73561 -7.20871,12.71895 -1.42967,2.98334 -2.62647,5.45813 -2.65957,5.49953 -0.10059,0.12585 -6.57393,-0.87812 -6.72785,-1.04344 -0.0789,-0.0848 0.60991,-2.4041 1.53069,-5.15411 1.91694,-5.72508 2.48591,-10.5724 1.60872,-13.70541 -0.65219,-2.32939 -3.18921,-5.09385 -5.64386,-6.14981 -3.94863,-1.69866 -6.4574,-1.95033 -18.11034,-1.81681 -10.08254,0.11552 -11.00315,0.18226 -13.03863,0.94523 -2.82466,1.05877 -4.475,2.33834 -5.6901,4.41176 -2.22542,3.79739 -2.02785,9.41415 0.60178,17.10799 0.94356,2.76071 1.29679,4.2762 1.03446,4.43833 -0.21909,0.1354 -1.26057,0.35506 -2.3144,0.48812 -1.05383,0.13306 -2.42107,0.32046 -3.03831,0.41645 -1.11982,0.17413 -1.12975,0.15923 -4.55702,-6.84013 l 0,0 z m 40.28953,-30.48859 c -5.41715,-11.35646 -11.16123,-31.05053 -12.77108,-43.78673 l -0.46337,-3.66592 -1.31105,0.1121 -1.31105,0.1121 -1.00647,4.8811 c -2.71906,13.18673 -9.35497,33.72577 -13.95385,43.18904 -0.84989,1.74886 -1.60218,3.306 -1.67175,3.46031 -0.0696,0.15431 7.70373,0.28056 17.27402,0.28056 l 17.40053,0 -2.18593,-4.58256 z"
       id="path3026"
       inkscape:connector-curvature="0"
       transform="translate(0,220)" />
    <path
       style="opacity:0.87610622999999999;fill:#1a1a1a;fill-opacity:1;stroke:none"
       d="m 687.21,202.48245 c -3.50583,-0.73744 -6.44793,-2.60468 -10.59041,-6.72133 -6.10457,-6.06649 -11.18945,-14.43334 -13.11174,-21.57452 -1.00763,-3.74326 -1.07803,-10.68677 -0.16063,-15.84413 1.89472,-10.65163 7.47844,-21.14688 15.53244,-29.19504 5.08528,-5.08159 7.00559,-6.16516 10.86766,-6.13226 5.20042,0.0443 9.8182,2.55665 16.11434,8.76714 6.12155,6.03827 8.8617,10.92314 10.4202,18.57606 2.02011,9.91962 0.27861,18.90582 -6.19152,31.94853 -3.68964,7.4377 -6.70643,12.05552 -10.07914,15.42823 -4.08388,4.08389 -8.38035,5.67723 -12.8012,4.74732 l 0,0 z m 15.66391,-18.35402 c 0.1915,-0.29431 0.72522,-1.71348 1.18605,-3.15372 0.72348,-2.26111 0.83553,-3.4102 0.8207,-8.41695 -0.0143,-4.83017 -0.16015,-6.32924 -0.87349,-8.97789 -1.04507,-3.88037 -2.82642,-7.81076 -5.06868,-11.18361 -2.02931,-3.05251 -6.74928,-7.60987 -9.67425,-9.34094 -2.40593,-1.4239 -7.45497,-3.24283 -10.02615,-3.61195 l -1.71819,-0.24666 -1.42476,2.14649 c -0.78362,1.18057 -1.84088,3.34205 -2.34946,4.80328 -0.84378,2.42428 -0.9077,3.04962 -0.73035,7.14582 0.29783,6.87874 2.27033,12.72355 6.46643,19.16094 4.65033,7.13424 10.02662,11.04235 16.60655,12.07158 2.9392,0.45975 6.35849,0.26001 6.7856,-0.39639 l 0,0 z"
       id="path3028"
       inkscape:connector-curvature="0"
       transform="translate(0,220)" />
    <path
       style="opacity:0.87610622999999999;fill:#1a1a1a;fill-opacity:1;stroke:none"
       d="m 697.8301,229.67249 -1.83051,-1.60151 0.26344,-1.8511 c 1.25095,-8.78988 4.32561,-14.68205 8.89984,-17.05535 2.4367,-1.26425 7.57563,-1.42349 10.58347,-0.32795 12.10804,4.41011 14.29049,4.66514 17.08782,1.99681 2.09154,-1.99508 2.18125,-4.43495 0.72651,-19.75834 -1.39673,-14.71224 -1.70515,-21.26433 -1.7169,-36.47345 -0.0123,-15.8867 0.19147,-18.549 1.73791,-22.71024 0.39825,-1.07164 1.23254,-2.37626 1.85399,-2.89917 1.12473,-0.9464 1.16288,-0.95075 8.35007,-0.95075 6.09273,0 7.29601,0.0914 7.70573,0.58505 0.40051,0.48258 0.34152,1.61271 -0.33679,6.45299 -1.74462,12.44922 -1.83528,25.13179 -0.42036,58.80122 0.38472,9.1548 0.12175,12.99947 -1.13995,16.66669 -1.70707,4.96167 -4.77133,8.25273 -8.85979,9.51552 -3.11611,0.96247 -4.18586,0.94779 -14.53467,-0.19951 -4.72073,-0.52336 -10.36455,-0.97619 -12.54183,-1.0063 -5.44771,-0.0753 -5.98089,0.25609 -7.83153,4.86802 -1.20022,2.99104 -1.69723,3.7521 -3.59239,5.50091 -1.2097,1.11629 -2.28363,2.03374 -2.3865,2.03879 -0.10288,0.005 -1.01078,-0.71151 -2.01756,-1.59233 l 0,0 z"
       id="path3030"
       inkscape:connector-curvature="0"
       transform="translate(0,220)" />
    <path
       style="opacity:0.87610622999999999;fill:#1a1a1a;fill-opacity:1;stroke:none"
       d="m 741.93241,118.32072 c -3.70346,-0.13004 -6.78423,-0.26866 -6.84617,-0.30803 -0.0619,-0.0394 -0.35653,-0.65537 -0.65465,-1.36887 -0.39455,-0.94429 -0.54204,-2.88162 -0.54204,-7.11967 0,-6.20846 0.36832,-7.98713 1.81417,-8.76092 1.05939,-0.56697 15.63267,-0.55157 15.984,0.0169 0.37165,0.60135 0.28677,16.80986 -0.0899,17.17406 -0.54456,0.52647 -2.74007,0.60973 -9.66537,0.36654 z"
       id="path3032"
       inkscape:connector-curvature="0"
       transform="translate(0,220)" />
    <path
       style="opacity:0.87610622999999999;fill:#1a1a1a;fill-opacity:1;stroke:none"
       d="m 770.25924,219.24138 c -1.87316,-3.76386 -4.95152,-9.20013 -6.8408,-12.0806 -5.17197,-7.88539 -6.5357,-11.46603 -5.10972,-13.41618 0.63528,-0.8688 2.82765,-1.34043 6.28156,-1.35132 5.78372,-0.0182 7.97511,-1.44585 10.76814,-7.01506 4.29902,-8.57212 11.5174,-30.92109 13.34957,-41.33188 0.87262,-4.95844 0.7322,-7.4427 -0.6572,-11.62643 -1.04638,-3.15085 -1.13906,-3.71364 -0.66132,-4.01571 0.30558,-0.19321 4.52826,-0.35388 9.38372,-0.35703 4.85547,-0.003 10.10034,-0.11327 11.65528,-0.24471 2.69617,-0.22791 2.8721,-0.19403 3.79731,0.73117 0.80107,0.80108 0.97015,1.3171 0.97015,2.96093 0,7.47748 3.2257,21.19232 9.17406,39.00573 4.30098,12.88004 6.79925,18.66905 8.95613,20.75318 1.27112,1.22825 1.50412,1.30559 4.18425,1.3889 4.39813,0.1367 5.57599,1.37699 4.60413,4.84814 -0.26317,0.93996 -2.66595,5.18368 -5.33951,9.43051 -2.67356,4.24682 -6.1092,10.29947 -7.63476,13.45033 -2.67471,5.52428 -2.80954,5.7218 -3.77646,5.53194 -0.55149,-0.10828 -1.84441,-0.30157 -2.87315,-0.42953 -3.36213,-0.41821 -3.24059,-0.21585 -2.02525,-3.37204 1.76925,-4.59469 2.6879,-8.67451 2.73247,-12.13529 0.0349,-2.71366 -0.10493,-3.49092 -0.9543,-5.3028 -1.22849,-2.6206 -3.51386,-4.3958 -7.23465,-5.61963 -2.51624,-0.82762 -3.09394,-0.8613 -14.77643,-0.8613 -11.92364,0 -12.20019,0.0171 -14.35776,0.88689 -2.58668,1.04279 -4.8259,2.94762 -5.96353,5.07298 -0.70949,1.32549 -0.81306,2.10111 -0.80261,6.01091 0.0126,4.7123 0.5376,7.25244 2.57184,12.44319 1.02279,2.60983 1.13728,2.46076 -2.20975,2.87709 -1.02874,0.12796 -2.30586,0.31778 -2.83805,0.42182 -0.92392,0.18063 -1.12143,-0.11989 -4.37336,-6.6542 l 0,0 z m 42.18852,-26.2499 c 0,-0.0776 -0.91808,-2.05556 -2.04018,-4.39552 -3.49391,-7.28602 -8.09436,-20.94255 -10.50648,-31.18871 -0.77846,-3.30674 -2.78587,-14.81341 -2.78993,-15.99221 -3.7e-4,-0.15431 -0.58253,-0.28056 -1.29332,-0.28056 -1.20138,0 -1.30923,0.0987 -1.53206,1.40282 -2.16856,12.69122 -9.83417,36.9391 -14.95058,47.29174 -0.71689,1.45056 -1.30343,2.78726 -1.30343,2.97044 0,0.18985 7.39888,0.33305 17.20799,0.33305 9.46439,0 17.20799,-0.0635 17.20799,-0.14105 z"
       id="path3034"
       inkscape:connector-curvature="0"
       transform="translate(0,220)" />
    <path
       style="opacity:0.87610622999999999;fill:#1a1a1a;fill-opacity:1;stroke:none"
       d="m 870.79488,202.28898 c -5.79946,-1.62333 -11.29621,-6.48609 -16.76284,-14.82944 -4.73755,-7.23058 -6.77899,-12.86395 -7.09471,-19.57786 -0.63181,-13.43566 5.7143,-28.52427 16.52038,-39.27911 3.30095,-3.28529 6.58929,-5.29015 9.28227,-5.65926 7.39044,-1.01297 19.56242,8.17354 24.84648,18.7523 2.56641,5.138 3.61965,9.97994 3.62109,16.64686 0.001,5.62385 -0.62735,8.80314 -3.03232,15.33755 -1.47847,4.01707 -5.5538,12.34722 -7.96106,16.27277 -6.19512,10.10246 -12.68063,14.22241 -19.41929,12.33619 l 0,0 z m 16.05526,-17.99357 c 0.71484,-0.71484 1.91534,-4.78033 2.33271,-7.89969 0.7807,-5.83489 -0.69727,-14.03961 -3.5553,-19.73664 -4.4948,-8.9597 -11.39641,-14.6751 -20.20017,-16.72829 l -3.40706,-0.79459 -1.00376,1.20234 c -1.52721,1.82936 -2.97016,5.04899 -3.59778,8.02768 -1.84015,8.73343 3.34157,22.58806 11.26195,30.11165 3.63005,3.44819 7.70521,5.4863 12.36239,6.18279 1.79057,0.26779 5.40108,0.0407 5.80702,-0.36525 z"
       id="path3036"
       inkscape:connector-curvature="0"
       transform="translate(0,220)" />
    <path
       style="opacity:0.87610622999999999;fill:#1a1a1a;fill-opacity:1;stroke:none"
       d="m 917.04634,197.22268 c -1.03615,-0.61386 -2.1488,-3.15583 -2.74478,-6.27072 -0.43624,-2.28001 -0.56467,-7.39866 -0.63037,-25.12464 -0.0732,-19.74419 -0.008,-22.70541 0.57458,-26.18919 0.87703,-5.24257 1.97839,-8.42924 3.47956,-10.0677 l 1.22949,-1.34194 17.14352,-0.10885 c 17.28195,-0.10973 27.7948,0.25606 29.86246,1.03906 0.61725,0.23374 1.65203,0.93589 2.29952,1.56034 3.23371,3.11862 2.45248,10.6039 -1.62622,15.58141 -3.02614,3.69302 -10.02939,7.63782 -18.62946,10.49365 -5.93387,1.97046 -5.94625,2.32507 -0.13946,3.99422 11.06591,3.18086 17.84678,6.7832 23.52072,12.49535 3.24668,3.26855 5.01047,6.13106 5.96733,9.68458 0.57011,2.11723 0.58075,6.94921 0.0199,9.03207 -0.55042,2.04411 -2.63289,4.22747 -4.6872,4.91429 -1.9195,0.64175 -54.58418,0.93335 -55.63959,0.30807 l 0,0 z m 34.21995,-4.82839 c 4.50986,-1.33807 6.20471,-7.17297 4.0967,-14.10378 -1.57564,-5.18047 -6.96911,-11.60677 -11.98516,-14.2803 -2.5532,-1.36084 -7.2663,-2.67505 -9.59343,-2.67505 l -1.56866,0 -0.24193,2.86209 c -0.30847,3.64916 -0.30661,11.35416 0.005,20.97388 l 0.24505,7.5632 3.96244,0.14432 c 6.01451,0.21905 13.52182,-0.0221 15.07992,-0.48436 l 0,0 z m -14.12571,-37.24323 c 3.3197,-0.86467 6.48688,-2.70492 9.09659,-5.28547 2.95971,-2.92662 4.20092,-5.56379 4.47444,-9.50669 0.25853,-3.7268 -0.39659,-5.20769 -2.83527,-6.40905 -1.57273,-0.77478 -2.3674,-0.8703 -8.17244,-0.98231 l -6.43032,-0.12408 -0.20954,1.24634 c -0.41891,2.49167 -0.95508,11.83958 -0.95656,16.67741 l -0.002,4.95665 1.41775,0 c 0.77976,0 2.40736,-0.25776 3.61687,-0.5728 z"
       id="path3038"
       inkscape:connector-curvature="0"
       transform="translate(0,220)" />
    <path
       style="opacity:0.87610622999999999;fill:#1a1a1a;fill-opacity:1;stroke:none"
       d="m 1019.7336,197.8055 c -1.095,-0.78304 -1.9056,-2.38067 -2.3122,-4.55713 -0.3225,-1.72618 0.056,-36.50326 0.5734,-52.6417 l 0.2627,-8.19658 -4.2653,0.2436 c -9.0339,0.51597 -13.6543,2.98441 -15.6699,8.37162 -0.96577,2.58123 -0.96205,5.75412 0.0115,9.81528 0.41658,1.73777 0.6846,3.34936 0.59559,3.58129 -0.15309,0.39897 -5.98528,1.50918 -6.78251,1.29113 -0.20574,-0.0563 -0.81217,-1.29732 -1.3476,-2.75787 -1.45698,-3.97432 -3.36264,-7.80135 -6.16628,-12.38335 -1.38429,-2.26237 -2.84656,-4.77674 -3.24949,-5.58749 -1.39078,-2.79846 -0.70952,-6.52292 1.45223,-7.93935 0.90237,-0.59126 1.41844,-0.58579 8.50269,0.09 6.70617,0.63973 10.79648,0.71946 36.90778,0.71946 28.2398,0 29.5869,-0.0315 35.131,-0.82149 6.6444,-0.94676 7.5525,-0.79072 8.9966,1.54592 0.7039,1.13901 0.8217,1.76432 0.6947,3.69026 -0.1393,2.11314 -0.4219,2.76968 -3.1852,7.40014 -3.6738,6.15623 -5.0519,8.84977 -6.6726,13.04183 -0.6804,1.75991 -1.3768,3.17834 -1.5474,3.15205 -5.2015,-0.80097 -6.5465,-1.06191 -6.6926,-1.29838 -0.097,-0.15684 0.1929,-1.60151 0.6442,-3.21036 1.5883,-5.66215 0.8884,-10.48221 -1.9983,-13.76169 -2.7326,-3.10435 -6.7522,-4.56076 -13.6389,-4.94171 l -4.1672,-0.23051 -0.2658,5.01166 c -0.2861,5.39487 0.043,51.92022 0.3981,56.27937 0.1848,2.26937 0.1114,2.76418 -0.5275,3.55383 -0.7338,0.90695 -0.8224,0.91867 -7.79,1.0305 -6.009,0.0965 -7.1722,0.0242 -7.8917,-0.49032 l 0,0 z"
       id="path3040"
       inkscape:connector-curvature="0"
       transform="translate(0,220)" />
    <path
       style="opacity:0.87610622999999999;fill:#1a1a1a;fill-opacity:1;stroke:none"
       d="m 1109.2662,202.46032 c -10.497,-1.21719 -19.9197,-6.32363 -25.0621,-13.58197 -4.5093,-6.36456 -6.2001,-12.80938 -6.2028,-23.64288 -0,-9.28904 1.1398,-14.55633 4.6178,-21.29534 4.2497,-8.23452 10.389,-13.8666 18.0129,-16.52485 2.8293,-0.98647 3.34,-1.04276 9.3522,-1.03058 5.8563,0.0119 6.6258,0.0944 9.7262,1.04374 3.6538,1.11871 8.6597,3.52577 13.6224,6.55031 3.3164,2.02113 5.4324,2.458 7.2344,1.49359 0.709,-0.37943 0.9833,-0.20918 2.5617,1.58987 1.2612,1.43755 1.6604,2.14424 1.3932,2.46661 -0.2059,0.2485 -2.0851,1.28999 -4.1761,2.31443 -6.257,3.06555 -9.8682,3.34434 -14.4598,1.11632 -1.9423,-0.94243 -3.381,-2.14574 -7.111,-5.94739 -5.0064,-5.10261 -6.2529,-5.97804 -8.5119,-5.97804 -1.9361,0 -5.0337,1.59935 -6.2916,3.24846 -2.6128,3.42561 -4.3591,10.12481 -5.0041,19.19674 -0.4765,6.70206 -0.489,8.60399 -0.057,8.60399 0.1851,0 1.2372,-0.61344 2.3381,-1.3632 2.5984,-1.76971 8.7133,-4.69425 12.3549,-5.90888 5.3761,-1.79319 8.5127,-1.29502 16.4432,2.61158 4.7853,2.35724 5.8543,2.4443 8.802,0.71692 l 1.5568,-0.91224 1.3069,1.76433 1.3068,1.76433 -1.1598,1.46441 c -3,3.78774 -10.149,8.79818 -13.4204,9.40576 -2.0602,0.38263 -4.8316,-0.60035 -9.4339,-3.34615 -2.2393,-1.33605 -4.9328,-2.72345 -5.9854,-3.08312 -3.9204,-1.33964 -8.4948,-0.47662 -12.2947,2.31953 l -1.7769,1.30756 0,2.38661 c 0,5.22002 1.9193,11.83913 4.688,16.16719 6.7358,10.52981 19.8438,11.65274 33.2129,2.84526 l 2.5496,-1.67969 1.0825,1.26576 c 0.5954,0.69617 1.0893,1.37452 1.0977,1.50743 0.028,0.44774 -3.9955,4.10939 -5.9964,5.45686 -7.2528,4.88433 -16.3268,6.84512 -26.3167,5.68674 l 0,0 z"
       id="path3042"
       inkscape:connector-curvature="0"
       transform="translate(0,220)" />
    <path
       style="opacity:0.87610622999999999;fill:#1a1a1a;fill-opacity:1;stroke:none"
       d="m 1194.5054,196.7491 c -1.153,-1.22727 -2.1331,-4.2531 -2.9291,-9.04254 -0.617,-3.71186 -0.6748,-6.29742 -0.5923,-26.4961 0.053,-13.11846 0.252,-23.4151 0.4795,-24.87676 0.5706,-3.6651 1.4055,-5.90909 2.6684,-7.17192 l 1.1203,-1.12034 7.2392,0 c 8.4043,0 8.4166,0.005 8.412,3.11294 -0,1.06548 -0.4085,5.47235 -0.9045,9.79306 -0.4959,4.3207 -1.0158,9.66546 -1.1554,11.87725 l -0.2537,4.02143 5.3667,0.001 c 2.9517,6e-4 8.5231,0.11137 12.3809,0.24619 l 7.0141,0.24513 0,-7.44736 c 0,-12.08516 1.0404,-18.10491 3.5451,-20.60958 l 1.2402,-1.24011 7.4443,0 c 5.2913,0 7.5742,0.12984 7.8932,0.44891 0.6395,0.6395 0.543,2.98064 -0.2755,6.68131 -2.3085,10.43722 -2.3057,28.41597 0.01,51.56174 1.106,11.06461 1.2452,10.88817 -8.5884,10.88817 -6.2111,0 -6.3734,-0.0202 -7.4506,-0.92658 -1.4249,-1.19896 -2.4706,-3.67471 -3.3223,-7.86547 -0.5874,-2.89029 -0.6822,-5.2154 -0.6707,-16.4588 0.01,-7.20117 -0.045,-12.26673 -0.1165,-11.25679 l -0.1298,1.83624 -12.1348,-0.22934 -12.1349,-0.22934 0,2.17067 c 0,3.46441 1.0808,17.45929 1.6642,21.54977 1.001,7.01721 1.0254,7.74659 0.3075,9.15992 -1.0412,2.04971 -1.7898,2.23805 -8.9207,2.24421 -6.2109,0.005 -6.4104,-0.0187 -7.2074,-0.86696 l 0,0 z"
       id="path3044"
       inkscape:connector-curvature="0"
       transform="translate(0,220)" />
    <path
       style="opacity:0.87610622999999999;fill:#1a1a1a;fill-opacity:1;stroke:none"
       d="m 1279.5512,198.96491 c -6.941,-1.71988 -11.4036,-8.05181 -12.0199,-17.05498 -0.2748,-4.01429 0.4232,-7.15084 2.6184,-11.76637 3.0174,-6.34421 9.2418,-14.33403 21.8337,-28.0266 3.2655,-3.55093 3.6115,-4.52443 2.8398,-7.99107 -1.118,-5.02252 -1.1596,-5.34389 -0.7274,-5.61964 0.6419,-0.40958 16.7017,-0.58496 18.188,-0.19862 l 1.3093,0.34034 0.2316,2.78295 c 0.1275,1.53063 0.9223,5.30804 1.7663,8.39426 0.8441,3.08621 2.6474,9.90394 4.0074,15.15051 3.3788,13.03475 6.0747,22.25662 8.5847,29.3658 1.1623,3.29197 2.6387,7.47003 3.2809,9.28459 0.9882,2.79208 1.0845,3.35183 0.6265,3.64162 -0.878,0.55547 -17.7655,0.44934 -18.2335,-0.11459 -0.2138,-0.25765 -0.7147,-1.73062 -1.113,-3.27326 -1.678,-6.49775 -5.5053,-19.0431 -5.7327,-18.79031 -0.1354,0.15063 -0.6294,1.45225 -1.0977,2.89248 -2.0662,6.354 -5.8933,12.88533 -9.4609,16.14589 -4.7873,4.37535 -11.2734,6.23157 -16.9015,4.837 z m 17.9046,-19.6203 c 1.3214,-0.65054 3.0292,-1.8764 3.7951,-2.72414 3.6222,-4.00938 4.143,-8.29196 1.9042,-15.6594 -0.719,-2.36609 -2.1706,-7.41526 -3.2259,-11.22036 -1.0552,-3.80511 -1.9877,-6.98748 -2.0722,-7.07194 -0.3344,-0.33443 -6.0014,6.55217 -8.8393,10.74172 -2.321,3.42649 -4.9716,8.91412 -5.7178,11.83766 -0.7538,2.95368 -0.7305,7.45061 0.051,9.74281 0.7334,2.15253 3.2554,4.84189 5.0575,5.39319 0.6839,0.20922 2.4589,0.32705 3.9444,0.26183 2.1184,-0.093 3.2189,-0.37364 5.1034,-1.30137 z"
       id="path3046"
       inkscape:connector-curvature="0"
       transform="translate(0,220)" />
    <path
       style="opacity:0.87610622999999999;fill:#000000;fill-opacity:1;stroke:none"
       d="m 1404.4961,197.97541 c -13.1678,-0.13602 -24.9936,-0.27128 -26.2795,-0.30058 l -2.3381,-0.0533 0,-2.99269 0,-2.9927 6.3881,0 6.3881,0 -0.079,-36.75401 c -0.086,-39.67752 -0.037,-40.8576 1.9476,-47.3418 3.5319,-11.539504 9.9625,-15.211309 29.007,-16.562574 16.7506,-1.188517 26.893,1.422068 34.3894,8.851663 4.4923,4.452231 6.4276,9.635021 6.0344,16.160371 -0.4435,7.35984 -4.5248,13.21254 -11.9255,17.10149 -3.8316,2.01349 -6.3253,2.74918 -10.8527,3.20179 -4.486,0.44848 -6.7145,0.17456 -9.2966,-1.14272 -0.808,-0.41221 -1.6998,-0.74947 -1.9817,-0.74947 -0.7246,0 -9.4325,4.7191 -9.421,5.1055 0.019,0.62426 6.0405,4.64303 9.9571,6.64503 4.7126,2.40893 6.9049,3.09625 16.8793,5.29214 7.911,1.74162 11.1,2.92265 13.4405,4.97771 1.4481,1.27143 2.6784,3.55716 3.0477,5.66203 0.4618,2.63241 0.3864,27.04157 -0.089,28.73236 -0.6171,2.19608 -2.5596,4.22659 -5.3639,5.60697 -4.3903,2.161 -1.0485,2.05691 -49.8523,1.55275 z m 29.0973,-6.85214 c 3.3848,-1.44226 3.7274,-3.23174 3.5667,-18.63088 -0.1311,-12.55916 -0.1708,-12.77904 -2.6472,-14.66794 -0.6712,-0.51193 -3.9961,-2.47801 -7.3887,-4.36906 -7.7824,-4.33803 -8.8813,-5.09152 -12.4342,-8.52592 l -2.8992,-2.80248 0,24.7546 0,24.75459 10.2994,0 c 7.8901,0 10.581,-0.11998 11.5032,-0.51291 l 0,0 z m -9.0729,-60.91057 c 4.4108,0.22972 5.7368,-0.28367 8.6838,-3.36213 2.7173,-2.83854 3.0406,-3.56822 3.6454,-8.22586 1.0928,-8.41624 -0.2738,-15.84274 -3.4875,-18.95245 -2.6724,-2.585942 -7.6652,-3.669828 -11.6151,-2.521552 -5.8876,1.711562 -8.9592,8.249422 -9.9436,21.164482 -0.4147,5.44103 -0.5253,17.53393 -0.1688,18.46288 0.1662,0.43315 1.3868,-0.29585 5.1437,-3.07207 l 4.9257,-3.63998 2.8164,0.14668 0,0 z"
       id="path3048"
       inkscape:connector-curvature="0"
       transform="translate(0,220)" />
    <path
       style="opacity:0.87610622999999999;fill:#000000;fill-opacity:1;stroke:none"
       d="m 1474.528,197.15396 c -1.4982,-1.89214 -1.7512,-4.20755 -2.5241,-23.09985 -0.73,-17.84376 -0.7335,-31.95306 -0.01,-36.75849 0.6145,-4.07733 1.6589,-6.87286 3.059,-8.18863 0.9163,-0.86115 1.0817,-0.8785 8.3729,-0.8785 6.4275,0 7.5225,0.0843 8.0588,0.62017 0.578,0.57767 0.5537,1.16747 -0.3547,8.604 -1.2454,10.19493 -1.8174,16.56629 -1.6667,18.56594 l 0.119,1.57957 12.7757,-7.66788 12.7757,-7.66789 0.1386,-4.95948 c 0.1068,-3.82353 0.294,-5.27577 0.8172,-6.3404 1.2499,-2.54367 1.803,-2.70403 9.7792,-2.83527 9.1568,-0.15067 9.0074,-0.21645 8.8979,3.91616 -0.044,1.66517 -0.525,5.78067 -1.0685,9.14555 -0.9103,5.63541 -0.9875,6.98835 -0.9779,17.15351 0.011,11.35107 0.4277,19.74229 1.4036,28.24354 1.0833,9.43707 1.07,8.88675 0.2387,9.9133 -0.7531,0.92983 -0.7983,0.93588 -7.8542,1.05096 l -7.0968,0.11575 -0.7936,-1.00889 c -0.9953,-1.26534 -1.775,-3.83022 -2.5496,-8.38773 -0.4803,-2.82562 -0.6367,-7.29065 -0.7633,-21.79055 -0.088,-10.0302 -0.2931,-18.23672 -0.4566,-18.23672 -0.1636,0 -5.9154,3.33605 -12.7818,7.41345 l -12.4843,7.41346 -0.1214,2.40632 c -0.1727,3.4226 0.575,13.50977 1.6395,22.11835 0.9912,8.01655 0.9098,9.01513 -0.7876,9.66048 -1.4896,0.56637 -15.3273,0.47851 -15.7856,-0.10023 l 0,0 z"
       id="path3050"
       inkscape:connector-curvature="0"
       transform="translate(0,220)" />
    <path
       style="opacity:0.87610622999999999;fill:#000000;fill-opacity:1;stroke:none"
       d="m 1590.6034,197.77207 c -0.8899,-0.88993 -1.2229,-1.88747 -2.4587,-7.36662 -2.3329,-10.34344 -6.9718,-17.91878 -13.6655,-22.31613 -2.429,-1.5957 -6.0199,-3.276 -6.3243,-2.95939 -0.2348,0.24416 0.5114,19.15872 0.8981,22.76539 0.9727,9.07096 0.9943,8.06672 -0.1903,8.84381 -0.9043,0.59324 -1.9856,0.71381 -7.3608,0.82072 -7.3358,0.14592 -7.68,0.0302 -9.0905,-3.05618 -2.2272,-4.87319 -2.6895,-13.98125 -2.1016,-41.39842 0.3004,-14.00419 0.4765,-17.41589 0.9938,-19.24931 0.7907,-2.80277 1.8712,-4.94172 2.7172,-5.37925 0.3593,-0.18586 3.8832,-0.42524 7.8308,-0.53195 8.6541,-0.23394 8.7213,-0.21059 8.7213,3.03005 0,1.17851 -0.4245,4.72923 -0.9433,7.89048 -0.9261,5.6435 -1.0964,7.57402 -1.4785,16.76507 l -0.1905,4.58256 0.8926,0 c 0.7396,0 1.2531,-0.63677 2.9962,-3.71535 4.5423,-8.02224 10.1076,-15.82315 14.7776,-20.71369 3.4984,-3.66359 6.5395,-5.97556 10.1319,-7.70278 2.6757,-1.28645 2.9884,-1.34894 6.7492,-1.34894 3.1449,0 4.1487,0.13432 4.9566,0.66328 1.3725,0.89847 1.2905,1.77804 -0.4956,5.32152 -1.5854,3.14529 -2.3917,6.45053 -2.8063,11.50375 l -0.2378,2.89918 -1.2774,0.0561 c -0.7025,0.0309 -1.4335,0.0729 -1.6244,0.0935 -0.1908,0.0206 -0.8745,-0.69091 -1.5194,-1.58108 -1.9124,-2.63999 -5.1626,-3.64677 -8.6478,-2.67868 -1.9963,0.55454 -5.7955,3.142 -8.1455,5.5476 -2.0177,2.0654 -9.7708,12.20952 -9.7708,12.78405 0,0.15893 1.6461,0.81754 3.6581,1.46356 4.6267,1.48557 11.0998,4.59747 14.9072,7.1665 3.2374,2.18446 9.0052,7.57389 11.3215,10.5789 3.4708,4.50271 5.5801,9.26659 6.1703,13.93572 0.197,1.55861 0.1109,2.07648 -0.4626,2.78472 -0.6751,0.83377 -0.8819,0.86474 -4.963,0.7429 -2.3421,-0.0699 -4.9318,-0.1434 -5.7548,-0.16329 -0.823,-0.0199 -2.8634,0.0985 -4.5343,0.2631 -2.6261,0.25868 -3.1249,0.21239 -3.6787,-0.34143 l 0,0 z"
       id="path3052"
       inkscape:connector-curvature="0"
       transform="translate(0,220)" />
    <path
       style="opacity:0.87610622999999999;fill:#000000;fill-opacity:1;stroke:none"
       d="m 1622.5032,197.15396 c -0.3216,-0.25718 -0.7813,-1.05679 -1.0214,-1.77691 -1.0567,-3.16908 -2.0387,-27.8164 -1.8257,-45.82562 0.1694,-14.32209 0.2678,-15.16097 2.23,-19.0132 1.131,-2.22063 2.2284,-2.50303 9.5574,-2.4595 8.3914,0.0498 8.151,-0.038 8.1378,2.97395 -0.01,1.32716 -0.4557,6.28482 -0.9998,11.01702 -1.2431,10.81056 -1.5962,15.65059 -1.1288,15.47269 0.1953,-0.0743 6.1013,-3.58466 13.1244,-7.80074 l 12.7693,-7.6656 7e-4,-4.8663 c 8e-4,-5.38337 0.3983,-6.76349 2.3643,-8.2065 0.986,-0.72374 1.5575,-0.77476 8.6779,-0.77476 5.7575,0 7.7416,0.11905 8.1095,0.48659 0.6376,0.63692 0.5107,3.26084 -0.4803,9.93313 -1.3873,9.34008 -1.4395,10.01728 -1.4466,18.75904 -0.01,10.37476 0.4195,18.62894 1.523,29.37615 0.4548,4.42927 0.7191,8.48263 0.5873,9.00747 -0.3948,1.57312 -1.6086,1.8307 -8.6267,1.8307 -6.2434,0 -6.4911,-0.0291 -7.2645,-0.85234 -2.759,-2.93686 -3.8187,-12.42151 -3.8187,-34.17909 0,-7.89141 -0.1067,-14.34801 -0.2371,-14.34801 -0.1305,0 -5.9497,3.3919 -12.9316,7.53756 l -12.6943,7.53757 0.2326,4.71377 c 0.3067,6.21465 1.217,16.46608 1.8943,21.33223 0.7886,5.66595 0.7359,6.55569 -0.443,7.48299 -0.9213,0.7247 -1.4661,0.77532 -8.3454,0.77532 -5.3265,0 -7.5214,-0.12918 -7.9446,-0.46761 z"
       id="path3054"
       inkscape:connector-curvature="0"
       transform="translate(0,220)" />
    <path
       style="opacity:0.87610622999999999;fill:#000000;fill-opacity:1;stroke:none"
       d="m 1700.8225,197.1417 c -1.3782,-1.66058 -1.7341,-5.24427 -2.4971,-25.14507 -1.145,-29.86465 -0.4589,-39.59006 3.0239,-42.86483 0.9356,-0.87966 1.1436,-0.90602 7.9455,-1.00682 8.6105,-0.12759 8.8724,-0.0407 8.8175,2.92551 -0.021,1.12262 -0.475,5.74458 -1.0094,10.27103 -1.1519,9.75707 -1.631,16.45829 -1.1586,16.20447 0.1844,-0.0991 6.101,-3.61251 13.1478,-7.80757 l 12.8125,-7.62736 7e-4,-4.87381 c 8e-4,-5.39142 0.3976,-6.77043 2.3643,-8.214 0.9618,-0.706 1.6756,-0.78574 8.0428,-0.89844 4.5249,-0.0801 7.3695,0.023 8.0718,0.29246 l 1.0843,0.41614 -0.2326,3.44841 c -0.1281,1.89662 -0.6577,6.14183 -1.1771,9.43379 -0.8419,5.33643 -0.9442,7.10078 -0.9435,16.27277 7e-4,10.90326 0.4068,19.29693 1.348,27.86946 1.1257,10.25251 1.1265,10.05001 -0.046,10.97242 -0.9686,0.76188 -1.4287,0.81131 -7.5521,0.81131 -3.5864,0 -6.8227,-0.16162 -7.1918,-0.35916 -1.5717,-0.84119 -3.0234,-6.40349 -3.7626,-14.41726 -0.2088,-2.26323 -0.3797,-10.97477 -0.3799,-19.35899 -2e-4,-8.38422 -0.1266,-15.24259 -0.2809,-15.24083 -0.1543,0.002 -5.9199,3.35308 -12.8124,7.44736 l -12.5319,7.44416 0.073,5.17806 c 0.082,5.79696 0.5193,11.16815 1.6664,20.45938 0.8525,6.90462 0.7442,7.81339 -1.011,8.48071 -1.513,0.57521 -15.3222,0.47627 -15.8115,-0.1133 l 0,0 z"
       id="path3056"
       inkscape:connector-curvature="0"
       transform="translate(0,220)" />
    <path
       style="opacity:0.87610622999999999;fill:#000000;fill-opacity:1;stroke:none"
       d="m 1768.0647,204.64983 -1.3089,-1.57572 1.0961,-1.38392 c 1.9535,-2.46642 8.4128,-8.33555 10.6487,-9.67563 3.0462,-1.8258 6.6412,-2.97577 9.3388,-2.98732 2.4775,-0.0106 5.4113,1.17424 9.6805,3.90962 5.1769,3.31692 12.6364,4.34525 16.611,2.2899 1.7087,-0.88362 4.0778,-3.81912 4.9383,-6.11898 1.102,-2.94549 1.5454,-6.98355 1.0824,-9.85838 -0.7286,-4.52476 -3.1653,-7.58596 -7.8201,-9.82434 -2.329,-1.11999 -2.6642,-1.17469 -7.9493,-1.29713 l -5.5178,-0.12783 0,-2.92861 0,-2.92861 2.5251,-0.24053 c 6.1463,-0.58546 9.6732,-1.7428 12.2658,-4.02486 3.3169,-2.91962 4.9414,-8.15177 4.5548,-14.66973 -0.259,-4.36754 -1.0816,-6.9663 -2.8135,-8.88907 -1.9091,-2.11955 -4.0463,-2.99522 -7.3317,-3.00402 -5.4483,-0.0146 -8.1376,1.58162 -10.5098,6.23815 l -1.4963,2.93722 0,4.51409 0,4.51409 -1.2768,0.86209 c -2.3621,1.595 -10.1223,3.47312 -14.3506,3.47312 l -1.8751,0 0.2038,-3.83439 c 0.4141,-7.791 3.6763,-13.36591 10.3455,-17.68018 6.6374,-4.29376 14.2211,-6.07768 24.1561,-5.68228 6.2429,0.24846 10.2697,1.14517 14.6487,3.26209 4.0125,1.93969 6.8675,4.56822 8.4472,7.77693 1.18,2.39687 1.2245,2.65251 1.2163,6.98484 -0.01,3.82523 -0.1389,4.82342 -0.8817,6.68294 -2.443,6.116 -8.3026,9.995 -17.9835,11.90507 -3.3083,0.65275 -4.1327,0.94146 -4.1327,1.44741 0,0.65488 -0.1214,0.62099 7.4055,2.06542 13.5096,2.59252 19.9915,9.65137 18.9919,20.68224 -0.6391,7.05291 -3.9156,12.16127 -9.6664,15.07074 -3.3775,1.70871 -6.2962,2.32885 -10.9326,2.32281 -4.7362,-0.006 -5.9413,-0.27932 -15.8987,-3.6037 -6.4927,-2.16764 -7.1288,-2.30911 -10.2874,-2.2878 -5.9225,0.04 -13.054,1.9365 -20.3423,5.40978 -2.1353,1.01762 -4.0152,1.85022 -4.1774,1.85022 -0.1623,0 -0.884,-0.70908 -1.6039,-1.57574 z"
       id="path3058"
       inkscape:connector-curvature="0"
       transform="translate(0,220)" />
    <path
       style="opacity:0.87610622999999999;fill:#000000;fill-opacity:1;stroke:none"
       d="m 1854.2826,196.25868 c -2.0472,-2.4835 -2.3873,-5.01485 -2.6321,-19.58596 -0.342,-20.35979 -0.2052,-30.64328 0.4758,-35.77249 0.6516,-4.90727 1.6466,-8.5841 2.8531,-10.54325 1.4188,-2.30385 1.5401,-2.31747 20.4672,-2.29717 21.3107,0.0228 26.7224,0.30642 29.1788,1.52902 2.0574,1.02405 3.0917,2.56754 3.515,5.24563 0.6376,4.03314 -0.9879,8.71181 -4.2104,12.11914 -3.7123,3.92528 -8.6683,6.65018 -17.6514,9.70524 -5.7433,1.95321 -6.2904,2.61115 -2.8706,3.45225 3.9301,0.9666 10.3068,3.19052 13.737,4.79086 10.7209,5.00171 17.1181,11.82262 18.4403,19.66142 1.0421,6.17792 -0.5553,10.33538 -4.687,12.19865 -1.3835,0.62389 -3.4423,0.68027 -28.4804,0.77992 l -26.989,0.1074 -1.1463,-1.39066 0,0 z m 35.1227,-3.94125 c 1.9106,-0.71467 2.7926,-1.44218 3.7854,-3.12203 0.7769,-1.3148 0.8764,-1.94229 0.8581,-5.41504 -0.018,-3.42469 -0.157,-4.26339 -1.0845,-6.54651 -3.5918,-8.84169 -11.5474,-15.03708 -20.2559,-15.77422 l -2.6567,-0.22489 -0.2024,5.94208 c -0.208,6.10549 0,23.2477 0.3045,24.72688 0.1586,0.77842 0.4011,0.83757 3.9994,0.97568 6.4007,0.24566 13.8242,-0.0278 15.2521,-0.56195 l 0,0 z m -14.3993,-37.16654 c 3.3996,-0.87366 6.0756,-2.37261 8.7881,-4.9226 2.8752,-2.70289 4.267,-5.25022 4.8448,-8.86693 0.7287,-4.56153 -0.7786,-7.25335 -4.5094,-8.05348 -1.0343,-0.22182 -4.3809,-0.40331 -7.4367,-0.40331 l -5.5562,0 -0.2321,2.151 c -0.3903,3.61695 -0.9609,13.93137 -0.9623,17.39503 l -0,3.27326 1.4177,0 c 0.7798,0 2.4211,-0.25784 3.6474,-0.57297 z"
       id="path3060"
       inkscape:connector-curvature="0"
       transform="translate(0,220)" />
    <path
       style="opacity:0.87610622999999999;fill:#000000;fill-opacity:1;stroke:none"
       d="m 1947.416,202.28898 c -4.1034,-1.14858 -8.239,-4.05682 -12.0262,-8.45707 -4.7713,-5.54372 -9.2678,-13.44233 -10.8332,-19.02963 -2.6092,-9.31315 -0.2798,-22.75168 5.7751,-33.31604 4.3662,-7.61797 10.6748,-14.76266 15.1747,-17.18566 2.1867,-1.17743 2.7141,-1.30636 5.2372,-1.28005 4.9078,0.0512 10.3068,2.98221 16.1204,8.75156 7.7133,7.65457 10.9964,15.68092 10.9449,26.75742 -0.021,4.46491 -0.1728,5.78609 -1.0311,8.95934 -1.9776,7.3113 -6.5063,17.26427 -10.9624,24.09298 -2.7317,4.18615 -7.1472,8.59164 -9.9314,9.90875 -2.6671,1.26174 -5.7681,1.55412 -8.468,0.7984 l 0,0 z m 16.0552,-17.99357 c 0.7149,-0.71484 1.9154,-4.78033 2.3327,-7.89969 0.7807,-5.83489 -0.6972,-14.03961 -3.5553,-19.73664 -4.4948,-8.9597 -11.3964,-14.6751 -20.2001,-16.72829 l -3.4071,-0.79459 -1.0038,1.20234 c -1.5272,1.82936 -2.9701,5.04899 -3.5977,8.02768 -1.8402,8.73343 3.3415,22.58806 11.2619,30.11165 3.6301,3.44819 7.7052,5.4863 12.3624,6.18279 1.7906,0.26779 5.4011,0.0407 5.807,-0.36525 z"
       id="path3062"
       inkscape:connector-curvature="0"
       transform="translate(0,220)" />
    <path
       style="opacity:0.87610622999999999;fill:#000000;fill-opacity:1;stroke:none"
       d="m 1994.2312,235.69593 -0.8417,-0.40593 0,-12.95888 c 0,-11.42513 -0.1312,-14.37371 -1.1087,-24.91312 -2.8778,-31.02943 -2.9004,-36.32105 -0.1949,-45.62205 2.4817,-8.53117 8.3909,-17.54631 15.4901,-23.63171 5.8991,-5.05674 10.54,-6.21637 15.3196,-3.82795 6.296,3.14611 14.7849,15.07413 18.7301,26.3179 7.7202,22.00286 1.005,45.69331 -13.8553,48.88029 -2.6498,0.56829 -7.1539,0.23493 -9.8368,-0.72804 -4.4485,-1.59673 -10.2376,-6.27573 -12.4631,-10.07316 -0.5519,-0.94174 -1.0711,-1.50926 -1.1538,-1.26115 -0.083,0.24811 0.1236,2.8593 0.4584,5.80264 0.8624,7.58132 1.3516,21.6156 0.9506,27.27336 -0.4725,6.667 -1.391,9.93121 -3.6394,12.93296 -1.6619,2.21868 -5.5651,3.31926 -7.8551,2.21484 l 0,0 z m 29.7168,-45.1616 c 1.9239,-0.87345 3.6553,-3.17043 4.5092,-5.98193 0.4996,-1.64529 0.6225,-3.45285 0.5863,-8.62786 -0.04,-5.67695 -0.1696,-7.02279 -0.9788,-10.13217 -2.9669,-11.40194 -10.1418,-22.94923 -17.1793,-27.64871 -1.234,-0.82402 -2.3898,-1.49822 -2.5684,-1.49822 -0.6422,0 -4.1,7.76369 -5.0855,11.41843 -0.9416,3.49186 -1.0075,4.24978 -1.0245,11.77494 -0.016,7.28853 0.063,8.34108 0.8512,11.22242 1.5594,5.70336 4.2534,10.71231 7.9086,14.70425 4.5047,4.91961 9.0065,6.57342 12.9812,4.76885 l 0,0 z"
       id="path3064"
       inkscape:connector-curvature="0"
       transform="translate(0,220)" />
    <path
       style="opacity:0.87610622999999999;fill:#999999;fill-opacity:1;stroke:none"
       d="m 1720.3782,378.74473 c -4.0788,-1.30498 -7.033,-4.14186 -9.1668,-8.80262 -1.0369,-2.26497 -1.9875,-6.80797 -2.0087,-9.60008 -0.034,-4.47779 2.875,-11.56944 7.2591,-17.69637 2.5996,-3.63298 9.5695,-11.89281 15.5007,-18.36931 2.0726,-2.26323 4.1267,-4.83512 4.5645,-5.71531 l 0.796,-1.60035 -0.8387,-3.69901 c -0.4612,-2.03445 -0.7363,-3.96563 -0.6113,-4.29151 0.1989,-0.51826 1.3734,-0.59251 9.3736,-0.59251 5.0305,0 9.4126,0.10218 9.738,0.22707 0.4256,0.16329 0.5918,0.72995 0.5918,2.01757 0,0.98477 0.4905,3.70227 1.09,6.03888 8.6481,33.70582 10.4382,39.84501 16.5337,56.70523 1.0103,2.7944 1.1572,3.54219 0.7717,3.92791 -0.3473,0.34754 -2.6504,0.51184 -8.5131,0.60735 -4.4204,0.072 -8.4482,0.0277 -8.9506,-0.0984 -0.7345,-0.18434 -1.0289,-0.65018 -1.5011,-2.37545 -0.3231,-1.18037 -1.4949,-5.26041 -2.6039,-9.06674 -1.109,-3.80633 -2.2964,-7.90538 -2.6387,-9.109 -0.3423,-1.20362 -0.7473,-2.04531 -0.9,-1.87044 -0.1527,0.17489 -0.745,1.66468 -1.3161,3.31066 -3.7952,10.93694 -10.176,18.25209 -17.61,20.18837 -2.8948,0.75401 -6.9592,0.69621 -9.5601,-0.13596 l 0,0 z m 17.7879,-18.76951 c 2.7431,-1.02634 5.8555,-3.89637 7.1964,-6.63604 1.8011,-3.6798 1.5569,-5.68962 -2.3437,-19.2952 l -3.3128,-11.55531 -1.6595,1.82906 c -6.4721,7.13329 -11.4271,15.16917 -12.9249,20.96147 -0.7442,2.87756 -0.7632,6.91324 -0.044,9.32379 0.6978,2.3392 2.516,4.54976 4.4733,5.43874 2.1182,0.96206 5.945,0.93252 8.6152,-0.0665 z"
       id="path3066"
       inkscape:connector-curvature="0"
       transform="translate(0,220)" />
    <path
       style="opacity:0.87610622999999999;fill:#999999;fill-opacity:1;stroke:none"
       d="m 1681.8675,377.75418 c -0.7356,-0.88642 -1.5355,-3.34657 -2.255,-6.93548 -1.8658,-9.30736 -6.2589,-17.1208 -12.1269,-21.56875 -2.3204,-1.75881 -7.5782,-4.43373 -7.9615,-4.05041 -0.347,0.34703 0.6242,20.52958 1.2328,25.61831 0.8041,6.72264 0.9377,6.60645 -8.0697,7.01785 -4.2997,0.19637 -5.2661,0.1362 -6.3918,-0.39796 -2.3579,-1.11889 -3.6512,-4.54722 -4.4608,-11.82481 -0.5155,-4.63368 -0.1647,-45.4758 0.4234,-49.29492 0.4762,-3.0922 1.7242,-6.36171 2.8632,-7.50073 0.8482,-0.84816 1.1162,-0.90167 3.5943,-0.71766 1.4727,0.10936 4.6073,0.0682 6.9656,-0.0914 4.7273,-0.32001 5.8765,-0.0639 6.2417,1.39109 0.2869,1.14332 -0.096,5.00566 -1.0221,10.31602 -0.7177,4.11414 -1.4356,12.96419 -1.4549,17.93465 -0.01,2.41256 0.03,2.52508 0.8803,2.52508 0.7301,0 1.2174,-0.58656 2.7121,-3.26451 2.5122,-4.50082 8.5468,-13.50809 11.5019,-17.16785 4.6225,-5.72478 9.9866,-10.1547 14.6327,-12.08447 1.8446,-0.76612 2.8851,-0.93628 5.8015,-0.94874 4.5253,-0.0193 5.8148,0.52627 5.7632,2.43858 -0.019,0.7172 -0.476,2.00239 -1.0148,2.85597 -1.5451,2.44763 -2.4481,5.66136 -2.9377,10.45514 -0.2491,2.43969 -0.6322,4.55948 -0.8513,4.71064 -0.219,0.15116 -0.9912,0.27741 -1.716,0.28057 -1.1161,0.005 -1.422,-0.18782 -1.9989,-1.25905 -0.8725,-1.62012 -2.3794,-2.72564 -4.4817,-3.28792 -3.4667,-0.9272 -8.2404,1.20988 -12.5448,5.61608 -2.4982,2.55724 -9.8445,12.36978 -9.6647,12.9092 0.071,0.21146 1.2959,0.74352 2.7232,1.18236 3.5583,1.0941 9.5598,3.70174 12.5967,5.47328 11.622,6.77949 20.4619,18.48242 20.4819,27.11555 0,1.29134 -0.1876,2.0775 -0.5832,2.40579 -0.7787,0.6463 -18.3508,0.78455 -18.8787,0.14853 l 0,0 z"
       id="path3068"
       inkscape:connector-curvature="0"
       transform="translate(0,220)" />
    <path
       style="opacity:0.87610622999999999;fill:#999999;fill-opacity:1;stroke:none"
       d="m 1595.0341,382.26803 c -11.5971,-1.89304 -21.0272,-8.27529 -25.5379,-17.28402 -2.9376,-5.86694 -3.7418,-10.10753 -3.7473,-19.75881 -0,-7.88629 0.2305,-9.72344 1.9135,-14.96347 3.218,-10.01891 10.6632,-18.78317 18.7463,-22.06764 5.5969,-2.27422 13.7196,-2.65821 20.0941,-0.94992 3.4157,0.91538 9.7531,3.86556 14.3706,6.68979 2.6612,1.62769 3.4315,1.92544 4.9812,1.92544 1.0083,0 2.1465,-0.16763 2.5293,-0.3725 0.5839,-0.31249 0.9806,-0.0394 2.4624,1.69512 2.0954,2.45264 2.2103,2.26898 -3.0205,4.82724 -5.9601,2.91488 -9.7572,3.17145 -14.281,0.965 -2.0886,-1.01865 -3.4375,-2.14614 -7.4161,-6.19837 -5.5567,-5.6597 -6.5914,-6.23328 -9.7929,-5.42857 -3.5205,0.88489 -5.791,3.55825 -7.4313,8.74987 -1.386,4.3866 -2.0586,9.08527 -2.3058,16.10868 l -0.2224,6.31822 2.3458,-1.593 c 2.7266,-1.85159 8.8577,-4.83393 12.3565,-6.01055 5.4581,-1.83554 8.9677,-1.30859 16.5238,2.48094 2.2435,1.12515 4.5454,2.02538 5.179,2.02538 1.2847,0 3.5844,-0.87 4.5072,-1.7051 0.5516,-0.49919 0.7483,-0.38006 1.9777,1.19792 0.7508,0.96372 1.3651,1.86247 1.3651,1.99722 0,0.46364 -6.5488,6.6094 -8.3353,7.82221 -3.3389,2.26682 -5.7392,3.15181 -7.9341,2.92527 -2.1389,-0.22075 -3.661,-0.90118 -8.2333,-3.68045 -7.1229,-4.3297 -12.1988,-4.41444 -17.9432,-0.29955 l -1.7892,1.28169 0.2339,3.06403 c 0.6296,8.24412 3.0909,14.32719 7.6976,19.02391 6.9054,7.04033 18.7404,6.76268 30.1312,-0.70688 l 2.6186,-1.71716 1.189,1.39065 1.189,1.39065 -1.5631,1.62413 c -3.6384,3.78047 -9.8816,7.24922 -15.6312,8.68468 -4.1161,1.02765 -12.6296,1.29844 -17.2272,0.54795 l 0,0 z"
       id="path3070"
       inkscape:connector-curvature="0"
       transform="translate(0,220)" />
    <path
       style="opacity:0.87610622999999999;fill:#999999;fill-opacity:1;stroke:none"
       d="m 1506.7954,377.19536 c -1.998,-2.13889 -2.0157,-2.53381 -1.513,-33.73921 0.2529,-15.69259 0.5531,-29.09675 0.6672,-29.78704 l 0.2074,-1.25507 -4.0697,0.25907 c -7.1474,0.45499 -10.9481,1.72065 -13.6839,4.55679 -3.122,3.23649 -3.8636,7.36229 -2.4327,13.53314 0.6078,2.62128 0.7647,3.91112 0.4866,4.00157 -0.7046,0.22917 -6.7181,1.28525 -6.8019,1.19453 -0.044,-0.0474 -0.6944,-1.68533 -1.446,-3.63993 -1.5674,-4.07612 -4.7425,-10.23279 -6.9653,-13.50591 -2.065,-3.04092 -2.9484,-5.09646 -2.9575,-6.88181 -0.01,-1.80489 0.9452,-3.80146 2.2872,-4.78465 0.9767,-0.71563 1.0705,-0.71438 9.3521,0.12415 7.4683,0.75619 10.9307,0.86511 32.2841,1.01561 24.1854,0.17047 30.2872,-0.026 38.4579,-1.2385 5.6803,-0.84291 7.2414,-0.74771 8.508,0.51886 0.5828,0.58286 1.2743,1.77581 1.5365,2.65101 0.6907,2.30557 0.073,4.15709 -3.1782,9.52544 -3.2031,5.28913 -5.2985,9.40358 -6.7856,13.32397 -0.5853,1.54311 -1.0852,2.84507 -1.1108,2.89324 -0.048,0.0901 -7.0214,-1.0906 -7.2075,-1.22028 -0.057,-0.0398 0.3427,-1.62857 0.8883,-3.53073 2.6186,-9.12882 -1.0247,-15.82056 -9.6658,-17.75365 -1.2878,-0.28808 -4.1309,-0.63751 -6.3181,-0.77652 l -3.9768,-0.25273 -0.2831,16.77333 c -0.3135,18.5708 -0.059,37.3382 0.5785,42.72577 0.4707,3.97521 0.1726,5.28383 -1.3629,5.98345 -0.5799,0.26423 -3.4583,0.42262 -7.6804,0.42262 l -6.7529,0 -1.0617,-1.13652 z"
       id="path3072"
       inkscape:connector-curvature="0"
       transform="translate(0,220)" />
    <path
       style="opacity:0.87610622999999999;fill:#999999;fill-opacity:1;stroke:none"
       d="m 1431.4375,382.04798 c -5.2124,-1.84215 -10.4255,-6.59142 -15.3471,-13.98173 -3.1982,-4.80241 -5.3832,-9.26515 -6.6079,-13.49567 -0.7278,-2.51425 -0.8604,-3.81318 -0.8396,-8.22312 0.016,-3.34997 0.2583,-6.42877 0.6729,-8.54387 1.982,-10.10901 7.3023,-20.18369 14.827,-28.07644 3.6039,-3.78018 6.6542,-5.93948 9.2805,-6.56951 6.145,-1.47417 17.2124,5.28086 23.262,14.1981 5.2855,7.79103 7.3918,17.54541 5.7852,26.79172 -1.2549,7.22237 -6.5559,19.84199 -11.4488,27.25524 -2.7699,4.19657 -6.9183,8.42453 -9.7437,9.93045 -3.0694,1.636 -6.524,1.88695 -9.8405,0.71483 z m 18.2378,-20.44044 c 3.724,-10.93509 -0.2126,-25.52577 -9.2646,-34.3385 -4.1084,-3.99988 -8.4347,-6.30426 -14.0667,-7.49262 l -2.7624,-0.58287 -0.8542,1.04505 c -1.6189,1.98052 -3.4334,6.20183 -3.795,8.8286 -0.8183,5.94454 0.7395,12.89698 4.5017,20.0911 5.5198,10.55506 13.0927,15.82631 22.3979,15.59036 l 2.7978,-0.0709 1.0455,-3.07017 z"
       id="path3074"
       inkscape:connector-curvature="0"
       transform="translate(0,220)" />
    <path
       style="opacity:0.87610622999999999;fill:#999999;fill-opacity:1;stroke:none"
       d="m 1336.2705,377.65569 c -1.8464,-0.37625 -2.5991,-1.65099 -3.0246,-5.12216 -1.099,-8.96679 -1.9438,-49.00761 -1.1487,-54.4455 0.6252,-4.27544 1.6516,-7.36242 2.8715,-8.63567 l 1.0296,-1.0747 7.5721,0 c 8.6238,0 8.976,0.10574 8.5791,2.57607 -0.6961,4.33253 -2.1284,17.7703 -2.3314,21.87358 l -0.238,4.81009 1.0884,-0.58552 c 0.5987,-0.32203 6.3912,-3.75235 12.8722,-7.62293 l 11.7838,-7.03742 0.187,-5.23002 c 0.1631,-4.56152 0.2935,-5.40112 1.0196,-6.56862 0.4578,-0.73622 1.2654,-1.53583 1.7945,-1.77691 0.6349,-0.28931 3.5585,-0.43832 8.6,-0.43832 7.3402,0 7.6542,0.0302 8.0523,0.77404 0.4971,0.92901 0.2797,3.47925 -1.0026,11.75787 -0.5632,3.63564 -1.01,8.48199 -1.1383,12.34486 -0.3266,9.83643 0.6777,28.07456 2.1343,38.7591 0.4306,3.15835 0.1392,4.51708 -1.1124,5.18691 -0.4218,0.22573 -3.534,0.51444 -6.9161,0.64158 -6.9632,0.26176 -7.4773,0.1201 -8.7644,-2.41479 -2.0154,-3.96937 -2.7175,-11.20037 -2.9961,-30.85604 l -0.2319,-16.36566 -12.5319,7.43404 -12.5319,7.43405 -0.1216,3.13327 c -0.1569,4.04426 0.4897,12.86907 1.5987,21.81963 0.9183,7.41107 0.8591,8.43331 -0.5316,9.17759 -0.8937,0.47826 -12.6425,0.84262 -14.5616,0.45158 l 0,0 z"
       id="path3076"
       inkscape:connector-curvature="0"
       transform="translate(0,220)" />
    <path
       style="opacity:0.87610622999999999;fill:#999999;fill-opacity:1;stroke:none"
       d="m 1258.0331,376.92905 c -0.7632,-0.96035 -0.8048,-1.3147 -0.6253,-5.33074 0.3925,-8.77784 3.9801,-17.29489 13.4727,-31.98441 12.5686,-19.44955 13.1844,-20.80909 12.2237,-26.98512 -0.4735,-3.0436 -0.4622,-3.25572 0.1985,-3.73889 0.5476,-0.40038 2.6658,-0.51098 9.7007,-0.5065 4.95,0.003 9.2136,0.14124 9.4745,0.30687 0.6637,0.42127 1.209,2.53029 1.209,4.67634 0,7.41218 8.9329,37.76698 16.4967,56.05751 1.4199,3.43351 2.5817,6.47961 2.5817,6.7691 0,0.2895 -0.2946,0.77769 -0.6547,1.08488 -0.5523,0.47123 -1.9857,0.53176 -9.1716,0.3873 -9.5367,-0.19172 -9.6707,-0.22853 -11.1104,-3.05043 -1.8321,-3.59129 -10.4866,-34.41151 -12.9553,-46.13626 -0.9632,-4.57452 -1.8705,-8.45175 -2.0162,-8.61606 -0.1457,-0.16432 -0.6516,0.84572 -1.124,2.24452 -0.4725,1.3988 -1.6937,4.47917 -2.7138,6.84527 -4.4957,10.42827 -7.265,18.3722 -8.5418,24.50268 -0.7413,3.55969 -0.5721,9.24327 0.3788,12.72367 0.7476,2.73614 1.4213,4.18786 4.0238,8.67038 l 0.91,1.56746 -0.7706,0.77058 c -0.7384,0.73843 -1.1753,0.77059 -10.4696,0.77059 l -9.6991,0 -0.8177,-1.02874 z"
       id="path3078"
       inkscape:connector-curvature="0"
       transform="translate(0,220)" />
    <path
       style="opacity:0.87610622999999999;fill:#999999;fill-opacity:1;stroke:none"
       d="m 1192.218,377.58935 c -1.529,-0.37607 -2.4626,-1.40914 -2.9903,-3.30884 -0.4863,-1.75082 -0.4792,-10.39442 0.021,-26.24966 0.2176,-6.89254 0.5097,-17.83458 0.649,-24.31563 0.2443,-11.35808 0.284,-11.83282 1.0984,-13.14255 0.4648,-0.74734 1.3065,-1.53481 1.8705,-1.74993 0.6446,-0.24588 9.8463,-0.4941 24.7799,-0.66846 35.984,-0.42012 32.6984,-0.46441 33.9218,0.4573 0.9409,0.70886 1.0543,1.02301 1.046,2.89778 -0.01,1.85061 -0.2973,2.65235 -2.4103,6.68669 -1.3205,2.52117 -3.3549,6.85653 -4.521,9.63412 -2.3885,5.68956 -2.2688,5.5971 -6.5528,5.0627 l -1.8967,-0.23661 0.1661,-6.07046 c 0.1553,-5.6746 0.1111,-6.19844 -0.6781,-8.03298 -2.0414,-4.74519 -5.3308,-5.67733 -20.0553,-5.68305 l -7.9008,-0.003 -0.4344,4.02143 c -0.7304,6.76234 -1.1415,13.15289 -1.1504,17.88115 l -0.01,4.50754 5.8919,0.45348 c 11.1221,0.85603 19.0817,3.24358 25.473,7.64089 7.3975,5.08965 13.0479,15.36695 13.2566,24.11201 0.062,2.58852 -0.048,3.22779 -0.7043,4.11495 -1.671,2.2574 -0.4401,2.16622 -30.263,2.24181 -15.0196,0.0381 -27.8935,-0.0747 -28.6087,-0.25061 l 0,0 z m 39.3861,-6.35415 c 0.5083,-4.29142 -0.6647,-11.71827 -2.3741,-15.03141 -2.0732,-4.01847 -6.0392,-7.19674 -10.8943,-8.73045 -3.5446,-1.11976 -10.802,-1.89005 -11.2449,-1.19354 -0.1545,0.24296 -0.2835,6.3757 -0.2867,13.62831 l -0.01,13.18655 12.2928,0 12.2927,0 0.2202,-1.85946 z"
       id="path3080"
       inkscape:connector-curvature="0"
       transform="translate(0,220)" />
    <path
       style="opacity:0.87610622999999999;fill:#999999;fill-opacity:1;stroke:none"
       d="m 1114.0289,377.65565 c -2.502,-0.49644 -2.7411,-1.84831 -3.5608,-20.13283 -0.8112,-18.09549 -0.6339,-39.96998 0.3512,-43.33639 0.7981,-2.72734 1.4633,-4.05418 2.532,-5.04974 0.763,-0.71093 1.2956,-0.75903 8.4043,-0.75903 9.5349,0 8.9364,-0.52073 7.9543,6.92061 -0.6662,5.04832 -1.5736,13.85741 -2.0176,19.58857 -0.1891,2.44108 -0.1441,2.72809 0.3951,2.52116 0.3347,-0.12843 6.2295,-3.60778 13.0996,-7.7319 l 12.4911,-7.49839 0.01,-4.74903 c 0.01,-3.85421 0.1421,-5.04391 0.7188,-6.31408 1.1655,-2.56718 1.8261,-2.73694 10.6509,-2.73694 7.2402,0 7.6964,0.0415 8.0667,0.73351 0.4631,0.86515 0.045,5.17919 -1.2169,12.54657 -0.7575,4.42414 -0.83,6.04502 -0.8035,17.95616 0.029,12.81672 0.5211,21.36448 1.8078,31.37261 0.855,6.65052 0.8205,6.67819 -8.4105,6.73947 l -6.743,0.0448 -0.7293,-0.93522 c -1.0695,-1.37136 -2.1456,-5.12419 -2.827,-9.85935 -0.4528,-3.1457 -0.6466,-8.41956 -0.7899,-21.48767 -0.1045,-9.52532 -0.3106,-17.26891 -0.458,-17.20799 -0.1475,0.0609 -5.9302,3.474 -12.8506,7.5846 l -12.5825,7.47382 0.1951,4.12287 c 0.3207,6.77775 0.8473,13.07272 1.7069,20.40548 0.8541,7.28547 0.7863,8.68984 -0.4515,9.35228 -0.8782,0.47 -12.9885,0.82347 -14.9409,0.43608 l 0,0 z"
       id="path3082"
       inkscape:connector-curvature="0"
       transform="translate(0,220)" />
    <path
       style="opacity:0.87610622999999999;fill:#999999;fill-opacity:1;stroke:none"
       d="m 1039.8914,377.61909 c -3.6533,-0.91762 -3.8382,-2.46929 -3.1473,-26.4085 0.2554,-8.84715 0.5712,-21.22007 0.7018,-27.49537 0.2105,-10.11535 0.3172,-11.57065 0.9407,-12.82895 0.3867,-0.78062 1.1434,-1.64276 1.6815,-1.91586 0.7634,-0.38748 6.2373,-0.56202 24.9198,-0.79458 35.3789,-0.44039 32.7945,-0.46434 33.9826,0.31492 2.3649,1.55115 2.0148,3.51078 -2.0516,11.4836 -1.5216,2.98334 -3.4364,7.14973 -4.2551,9.25865 l -1.4885,3.83438 -1.8711,-0.004 c -1.0291,-0.002 -2.4651,-0.10242 -3.1911,-0.22255 l -1.32,-0.21844 0.1464,-6.06314 c 0.136,-5.63599 0.087,-6.20071 -0.6938,-8.01599 -2.0355,-4.73169 -5.3382,-5.67645 -19.8439,-5.67645 l -8.0875,0 -0.4423,4.20848 c -0.7479,7.11683 -1.1541,13.3627 -1.163,17.88114 l -0.01,4.3205 5.8919,0.45348 c 15.3172,1.1789 24.9739,5.29589 31.5401,13.44664 4.4448,5.51741 7.1379,12.33688 7.2261,18.29834 0.038,2.55918 -0.082,3.22973 -0.7365,4.11528 -1.6747,2.26607 -0.4329,2.17378 -30.2674,2.2494 -15.0196,0.0381 -27.8281,-0.0613 -28.4633,-0.22087 l 0,0 z m 39.2842,-6.45318 c 0.3092,-2.33033 -0.04,-7.12948 -0.7514,-10.32593 -1.9346,-8.69314 -8.4864,-13.62637 -19.4806,-14.66808 -2.2001,-0.20846 -4.097,-0.28248 -4.2152,-0.16448 -0.1182,0.118 -0.2631,6.2609 -0.3219,13.65089 l -0.107,13.43635 12.3101,0 12.3102,0 0.2558,-1.92875 0,0 z"
       id="path3084"
       inkscape:connector-curvature="0"
       transform="translate(0,220)" />
    <path
       style="opacity:0.87610622999999999;fill:#999999;fill-opacity:1;stroke:none"
       d="m 935.01993,378.83109 c -6.79419,-2.08429 -11.18764,-9.25554 -11.19207,-18.26833 -0.002,-3.8581 0.78827,-6.73263 3.13212,-11.39432 2.64656,-5.26376 5.73551,-9.35891 14.7828,-19.59824 9.05301,-10.24579 9.49663,-10.78884 9.74791,-11.9329 0.15081,-0.68666 -0.0808,-2.45469 -0.60014,-4.58064 -0.46517,-1.9043 -0.73962,-3.73895 -0.60989,-4.07701 0.21175,-0.5518 1.2219,-0.60445 9.87791,-0.5148 l 9.64204,0.0999 0.26427,2.64865 c 0.14536,1.45676 1.10307,5.83357 2.12825,9.72625 1.02519,3.89268 3.15128,11.95944 4.72463,17.92612 3.21355,12.18681 5.13929,18.57577 8.23117,27.30833 3.71239,10.48505 3.74761,10.60652 3.22652,11.12798 -0.33932,0.33956 -2.78913,0.50451 -8.89079,0.59864 -9.74076,0.15026 -9.56851,0.205 -10.25124,-3.25799 -0.2287,-1.16004 -0.82264,-3.3717 -1.31986,-4.91481 -0.49722,-1.54311 -1.62532,-5.33073 -2.50688,-8.41695 -0.88156,-3.08621 -1.76862,-5.62913 -1.97124,-5.65092 -0.20261,-0.0218 -0.80579,1.24076 -1.34039,2.80565 -3.81863,11.17806 -10.12251,18.42952 -17.74788,20.41568 -2.75664,0.71801 -6.89564,0.69572 -9.32724,-0.0503 l 0,0 z m 17.5716,-18.86118 c 1.31574,-0.49228 2.8898,-1.52551 4.26828,-2.80174 3.56313,-3.29883 4.76295,-7.26898 3.66582,-12.13001 -0.58301,-2.58312 -6.16965,-22.11584 -6.38786,-22.33405 -0.17592,-0.17593 -3.76819,3.9629 -6.34059,7.30529 -6.98737,9.07893 -10.14509,18.05106 -8.47247,24.07317 0.64115,2.30842 2.6259,4.89933 4.46262,5.82554 2.22347,1.12122 5.90358,1.14706 8.8042,0.0618 z"
       id="path3086"
       inkscape:connector-curvature="0"
       transform="translate(0,220)" />
    <path
       style="opacity:0.87610622999999999;fill:#999999;fill-opacity:1;stroke:none"
       d="m 851.77626,377.51302 c -0.51437,-0.26975 -1.39393,-1.41631 -1.95458,-2.54792 -2.36786,-4.77929 -2.95136,-13.86648 -2.54615,-39.6532 0.30648,-19.50383 0.48094,-21.61843 2.03085,-24.61563 1.20808,-2.33618 1.42477,-2.39631 9.20651,-2.55516 4.53624,-0.0926 7.40504,-0.003 7.8697,0.24563 1.01291,0.54209 0.96611,3.64932 -0.20831,13.83213 -0.51019,4.42358 -0.92835,9.48906 -0.92926,11.25663 l -0.002,3.21377 7.91613,0.24654 c 4.35388,0.13559 9.90907,0.24653 12.34487,0.24653 l 4.42872,0 0,-9.13222 c 0,-9.96963 0.40419,-13.36066 2.01081,-16.86997 0.5011,-1.09456 1.28276,-2.18901 1.73701,-2.43212 0.53719,-0.2875 3.43689,-0.47453 8.29482,-0.53502 9.62741,-0.11989 9.19886,-0.62823 7.23454,8.5816 -0.9183,4.3055 -1.31844,10.66155 -1.31883,20.94886 -3.7e-4,10.32071 0.24113,14.72579 1.55302,28.3256 1.1491,11.91212 1.43429,11.52045 -8.46756,11.62916 l -6.60548,0.0725 -1.25872,-1.36981 c -1.4638,-1.59298 -2.54905,-4.75655 -3.20823,-9.35225 -0.48481,-3.38 -0.57826,-18.5765 -0.14768,-24.0167 0.19106,-2.41405 0.14868,-3.25813 -0.15419,-3.07094 -0.22973,0.14197 -0.41768,0.83739 -0.41768,1.54536 l 0,1.28723 -12.15782,0 -12.15782,0 0.002,1.40282 c 0.005,2.92972 1.51648,20.636 2.05148,24.03507 0.93213,5.92221 0.60408,7.9546 -1.43381,8.88313 -1.48149,0.67501 -12.57133,0.99717 -13.71317,0.39836 z"
       id="path3088"
       inkscape:connector-curvature="0"
       transform="translate(0,220)" />
    <path
       style="opacity:0.87610622999999999;fill:#999999;fill-opacity:1;stroke:none"
       d="m 771.36975,403.86329 c -1.53857,-3.83164 -5.64554,-11.38209 -8.87661,-16.31917 -4.95673,-7.57388 -6.40666,-10.86533 -5.69086,-12.91867 0.4915,-1.40992 1.7304,-1.90488 4.76798,-1.90488 2.92094,0 6.53111,-0.59784 7.90715,-1.30942 1.66409,-0.86053 2.89983,-2.39799 4.60703,-5.73187 2.95741,-5.77536 6.66519,-16.04226 10.15629,-28.12286 2.55576,-8.84398 3.57217,-13.55746 3.8317,-17.76911 0.19051,-3.09161 0.11172,-3.64559 -0.96398,-6.77796 -0.6443,-1.87615 -1.17145,-3.67445 -1.17145,-3.99623 0,-0.94439 1.23419,-1.09676 7.80896,-0.96407 3.42061,0.069 8.63164,0.0645 11.58008,-0.0101 4.50234,-0.11389 5.45506,-0.0413 5.9495,0.4531 0.41886,0.41887 0.68248,1.80934 0.91376,4.81971 0.35456,4.61508 1.07462,9.20252 2.22013,14.1443 1.96221,8.46509 8.93627,30.17684 11.91206,37.08482 2.98744,6.93505 4.22185,8.17592 8.13566,8.17828 2.80784,0.002 4.03422,0.50553 4.60919,1.89363 0.7709,1.86113 -0.36634,4.45692 -5.48082,12.5101 -2.61335,4.11496 -6.00832,10.06692 -7.54438,13.22659 l -2.79282,5.74485 -1.35415,-0.21467 c -0.74479,-0.11806 -2.33083,-0.32862 -3.52454,-0.46789 -1.7977,-0.20976 -2.12685,-0.35641 -1.91687,-0.85411 1.1505,-2.72694 2.87747,-8.48071 3.35213,-11.16833 0.92812,-5.25525 0.22015,-8.40355 -2.51887,-11.20135 -1.84579,-1.88538 -4.35317,-3.02506 -8.14314,-3.70128 -3.45869,-0.61711 -20.21028,-0.71153 -23.34746,-0.13159 -4.61554,0.85323 -7.75954,3.04607 -9.21364,6.42622 -0.75599,1.75734 -0.82238,2.38821 -0.6591,6.26283 0.1594,3.7825 0.3708,4.87293 1.73117,8.92964 0.85227,2.54156 1.54959,4.74654 1.54959,4.89996 0,0.23163 -5.24635,1.14258 -6.57121,1.14099 -0.21932,-2.7e-4 -0.78744,-0.96843 -1.26248,-2.15148 l 0,0 z m 39.94011,-31.04919 c -0.0701,-0.15431 -0.66677,-1.31499 -1.32602,-2.57929 -3.59486,-6.89419 -8.91862,-22.68383 -11.4611,-33.99226 -0.79937,-3.5554 -2.4854,-13.55678 -2.4854,-14.74311 0,-0.22156 -0.57726,-0.40283 -1.28278,-0.40283 -1.26225,0 -1.28969,0.0344 -1.71409,2.151 -3.04084,15.16516 -9.1092,34.47088 -14.24308,45.31257 -1.01116,2.13536 -1.83847,4.02917 -1.83847,4.20848 0,0.18056 7.69077,0.326 17.23916,0.326 9.48154,0 17.18184,-0.12625 17.11178,-0.28056 l 0,0 z"
       id="path3090"
       inkscape:connector-curvature="0"
       transform="translate(0,220)" />
    <path
       style="opacity:0.87610622999999999;fill:#999999;fill-opacity:1;stroke:none"
       d="m 721.82885,382.42768 c -2.39057,-0.59784 -6.25819,-2.84116 -8.78148,-5.0935 -4.51687,-4.03184 -10.33761,-12.49223 -12.76448,-18.55305 -2.08419,-5.20501 -2.44756,-7.11924 -2.39576,-12.62071 0.12719,-13.50632 5.92727,-26.77421 16.20215,-37.06299 4.89548,-4.9021 7.17378,-6.17657 10.87158,-6.08153 3.92376,0.10086 8.22195,2.01227 12.90599,5.73931 8.99437,7.1567 13.76991,16.47004 14.2887,27.866 0.35558,7.81088 -1.44835,14.58801 -6.77104,25.43789 -6.80784,13.87726 -12.92214,20.29378 -19.64265,20.61358 -1.35541,0.0645 -3.11627,-0.0457 -3.91301,-0.245 l 0,0 z m 16.63966,-19.33984 c 2.95714,-6.89477 2.13669,-18.28236 -1.89799,-26.34339 -4.83878,-9.6676 -12.69233,-15.7071 -22.51573,-17.31496 -1.33973,-0.21928 -1.39751,-0.1771 -2.91005,2.12452 -2.47464,3.76564 -3.15602,6.57843 -2.91227,12.02209 0.23756,5.30564 1.05704,8.55317 3.41963,13.55176 2.26477,4.79162 4.92691,8.56774 8.18585,11.61122 4.45682,4.16219 9.09659,6.02996 15.14303,6.09593 l 2.72542,0.0297 0.76211,-1.77691 z"
       id="path3092"
       inkscape:connector-curvature="0"
       transform="translate(0,220)" />
    <path
       style="opacity:0.87610622999999999;fill:#999999;fill-opacity:1;stroke:none"
       d="m 629.66458,377.60802 c -1.56999,-0.39198 -2.33781,-1.0503 -2.95942,-2.53739 -0.70254,-1.68067 -0.66381,-17.54107 0.0923,-37.81758 0.32754,-8.78317 0.4977,-17.44257 0.37814,-19.24311 -0.28824,-4.34051 0.25585,-6.82166 1.84425,-8.41006 l 1.22222,-1.22222 16.21666,0.004 c 8.91916,0.002 21.52988,-0.1882 28.02382,-0.42259 11.58067,-0.41799 11.84054,-0.4114 13.54669,0.34331 3.03413,1.34214 2.89862,3.07852 -0.80378,10.29948 -1.38935,2.70971 -3.42689,7.07307 -4.52786,9.69635 l -2.00178,4.7696 -1.56979,0 c -0.86339,0 -2.31819,-0.10257 -3.23289,-0.22795 l -1.6631,-0.22795 0.33283,-2.67122 c 0.52949,-4.24962 0.16438,-9.87083 -0.75665,-11.6493 -2.34204,-4.52235 -5.6304,-5.42426 -19.7769,-5.42426 l -7.91753,0 -0.21675,1.21578 c -0.39509,2.21615 -1.31837,13.84683 -1.55456,19.58316 l -0.23258,5.64842 4.42062,0.26227 c 10.96342,0.65044 18.8876,2.72076 25.44333,6.64749 4.79933,2.87468 10.16477,9.12152 12.63709,14.71302 2.34212,5.29705 3.14769,12.3011 1.68982,14.69223 -0.41082,0.67381 -1.2098,1.42436 -1.77552,1.6679 -1.2113,0.52146 -54.84085,0.81484 -56.8587,0.31105 l 0,0 z m 38.97141,-9.93762 c -0.0183,-3.85986 -0.19919,-5.8275 -0.68783,-7.48173 -2.5994,-8.79982 -9.30206,-13.38642 -20.70381,-14.1675 l -3.08621,-0.21142 0,13.64757 0,13.64757 12.25133,-0.0986 12.25134,-0.0986 -0.0248,-5.23722 10e-6,0 z"
       id="path3094"
       inkscape:connector-curvature="0"
       transform="translate(0,220)" />
    <path
       style="opacity:0.87610622999999999;fill:#999999;fill-opacity:1;stroke:none"
       d="m 582.22374,382.08245 c -1.24716,-0.40796 -3.27738,-1.39442 -4.5116,-2.19214 -6.37009,-4.11719 -14.00048,-14.69105 -16.99862,-23.55596 -2.29724,-6.79248 -1.92368,-16.29801 0.98529,-25.07208 2.64449,-7.97629 7.74629,-16.22111 13.81442,-22.32491 4.30947,-4.33482 7.17129,-5.94467 10.5119,-5.91324 5.27432,0.0496 11.41174,3.49432 17.38697,9.75864 3.80215,3.98611 5.2839,6.19465 7.32768,10.92188 1.83038,4.23365 2.73234,8.95538 2.73833,14.33516 0.008,7.50707 -1.80523,13.99025 -6.71912,24.0193 -5.13028,10.47068 -10.25751,17.07032 -15.10403,19.4415 -2.86377,1.40111 -6.28202,1.612 -9.43122,0.58185 l 0,0 z m 17.48619,-18.71404 c 1.15837,-2.39313 1.80249,-6.17322 1.79741,-10.54828 -0.0111,-9.53997 -3.13591,-17.7131 -9.28533,-24.28625 -4.40922,-4.71304 -9.23926,-7.4872 -15.20428,-8.73268 -2.5393,-0.5302 -2.63395,-0.52297 -3.47303,0.2653 -1.23789,1.16294 -3.32476,5.51988 -3.85074,8.03953 -0.58929,2.82293 -0.23561,8.39197 0.77837,12.25605 0.99255,3.7824 3.85143,9.81732 6.3909,13.49079 3.48292,5.03822 8.75874,9.04539 13.42642,10.19784 2.91393,0.71945 3.11818,0.7428 5.98313,0.68427 l 2.80339,-0.0573 0.63376,-1.3093 z"
       id="path3096"
       inkscape:connector-curvature="0"
       transform="translate(0,220)" />
    <path
       style="opacity:0.87610622999999999;fill:#999999;fill-opacity:1;stroke:none"
       d="m 454.75746,382.4711 c -5.6393,-1.72161 -11.71327,-8.89483 -17.1882,-20.29883 -7.87377,-16.40069 -7.87835,-24.85965 -0.0221,-40.88862 5.77197,-11.77645 12.41145,-18.40205 18.31524,-18.27696 2.32134,0.0492 4.32896,0.66222 9.00846,2.75077 6.83172,3.04914 13.16641,7.22148 14.377,9.4694 0.60983,1.1324 0.61749,1.33138 0.09,2.33796 -0.31712,0.60513 -2.01584,2.76147 -3.77494,4.79188 -1.7591,2.03041 -3.83525,4.68028 -4.61368,5.88859 -0.77842,1.20832 -1.51719,2.19842 -1.6417,2.20022 -0.12452,0.002 -2.39709,-2.23247 -5.05017,-4.96505 -4.10667,-4.22971 -5.27021,-5.19931 -7.82672,-6.52212 -1.65161,-0.8546 -4.22624,-1.89281 -5.72139,-2.30714 l -2.71847,-0.75332 -0.3905,1.00949 c -1.75369,4.53348 -2.55584,11.76484 -1.85482,16.72114 1.81112,12.80489 11.46906,27.17179 20.70459,30.79961 l 1.5177,0.59617 1.64386,-1.85668 c 0.90412,-1.02117 2.82584,-3.58762 4.27047,-5.70323 l 2.62661,-3.84654 1.93687,1.57824 c 1.06528,0.86803 2.07633,1.69473 2.24678,1.83712 0.66562,0.55601 -4.15387,8.70601 -8.38817,14.18482 -6.92688,8.96277 -12.77132,12.71094 -17.54668,11.25308 z"
       id="path3098"
       inkscape:connector-curvature="0"
       transform="translate(0,220)" />
    <path
       style="opacity:0.87610622999999999;fill:#999999;fill-opacity:1;stroke:none"
       d="m 487.33377,377.24038 c -1.99009,-1.99008 -0.99529,-10.85189 2.06312,-18.37869 2.47839,-6.09936 5.53484,-11.50805 12.88518,-22.80161 5.5793,-8.57241 8.31883,-13.26441 9.34302,-16.00178 0.84561,-2.26011 0.97714,-5.92536 0.308,-8.58278 -0.40475,-1.60739 -0.37699,-1.76843 0.41553,-2.41017 0.77139,-0.62463 1.66864,-0.68769 9.78589,-0.68769 8.43786,0 8.9784,0.0418 9.68481,0.74818 0.52149,0.52148 0.74818,1.24695 0.74818,2.39438 0,8.61965 8.99203,39.50153 17.24826,59.23671 1.81654,4.34215 2.156,5.46976 1.82999,6.07891 -0.48976,0.91513 0.3229,0.84854 -9.49222,0.77778 -9.20032,-0.0663 -9.85,-0.21732 -11.02696,-2.56271 -2.10324,-4.19122 -10.33465,-33.27544 -13.16803,-46.52686 -1.02068,-4.77363 -1.93488,-8.75842 -2.03156,-8.8551 -0.0967,-0.0967 -0.25799,0.0588 -0.35848,0.34538 -1.19946,3.42125 -2.84829,7.60709 -5.06801,12.86601 -5.49728,13.02409 -7.23991,19.34118 -7.27528,26.37311 -0.0285,5.65892 0.73823,8.55466 3.58951,13.55738 1.96946,3.45553 2.09448,4.50923 0.58306,4.91442 -0.45612,0.12228 -4.9957,0.22462 -10.08796,0.22743 -8.63135,0.005 -9.30725,-0.0435 -9.97605,-0.7123 z"
       id="path3100"
       inkscape:connector-curvature="0"
       transform="translate(0,220)" />
  </g>
</svg>
