<?xml version="1.0" encoding="UTF-8" standalone="no"?>
<!-- Created with Inkscape (http://www.inkscape.org/) -->

<svg
   xmlns:dc="http://purl.org/dc/elements/1.1/"
   xmlns:cc="http://creativecommons.org/ns#"
   xmlns:rdf="http://www.w3.org/1999/02/22-rdf-syntax-ns#"
   xmlns:svg="http://www.w3.org/2000/svg"
   xmlns="http://www.w3.org/2000/svg"
   xmlns:sodipodi="http://sodipodi.sourceforge.net/DTD/sodipodi-0.dtd"
   xmlns:inkscape="http://www.inkscape.org/namespaces/inkscape"
   width="495.9003"
   height="510.83392"
   id="svg3021"
   version="1.1"
   inkscape:version="0.48.3.1 r9886"
   sodipodi:docname="Wikisource-logo-hy.svg">
  <defs
     id="defs3023" />
  <sodipodi:namedview
     id="base"
     pagecolor="#ffffff"
     bordercolor="#666666"
     borderopacity="1.0"
     inkscape:pageopacity="0.0"
     inkscape:pageshadow="2"
     inkscape:zoom="0.98994949"
     inkscape:cx="441.76661"
     inkscape:cy="236.28034"
     inkscape:document-units="px"
     inkscape:current-layer="layer1"
     showgrid="false"
     fit-margin-top="0"
     fit-margin-left="0"
     fit-margin-right="0"
     fit-margin-bottom="0"
     inkscape:window-width="1440"
     inkscape:window-height="813"
     inkscape:window-x="0"
     inkscape:window-y="27"
     inkscape:window-maximized="1" />
  <metadata
     id="metadata3026">
    <rdf:RDF>
      <cc:Work
         rdf:about="">
        <dc:format>image/svg+xml</dc:format>
        <dc:type
           rdf:resource="http://purl.org/dc/dcmitype/StillImage" />
        <dc:title />
      </cc:Work>
    </rdf:RDF>
  </metadata>
  <g
     inkscape:label="Layer 1"
     inkscape:groupmode="layer"
     id="layer1"
     transform="translate(-98.326385,-22.219313)">
    <g
       id="g2492"
       transform="matrix(1.005595,0,0,1.000506,139.77157,22.001757)">
      <path
         inkscape:connector-curvature="0"
         id="path1334"
         d="M 203.5,0.21875 C 135.60706,0.67252098 75.52335,36.174749 38.78125,90.40625 l 332.03125,0 c -36.97963,-54.5821 -97.56677,-90.1875 -166,-90.1875 -0.43957,0 -0.87358,-0.002934 -1.3125,0 z"
         style="fill:#608ab4;fill-opacity:1;fill-rule:evenodd;stroke:none" />
      <path
         inkscape:connector-curvature="0"
         id="path2488"
         d="M 27,110 C 10.417835,141.08269 0.9375,176.91683 0.9375,215.09375 0.9375,333.71387 92.282775,430 204.8125,430 317.34222,430 408.65624,333.71387 408.65625,215.09375 408.65625,176.91683 399.20717,141.08269 382.625,110 L 27,110 z"
         style="fill:#375493;fill-opacity:1;fill-rule:evenodd;stroke:none" />
      <path
         inkscape:connector-curvature="0"
         id="path2361"
         d="M 38.78125,90.40625 C 34.523245,96.691084 30.607797,103.23731 27,110 l 355.625,0 c -3.6078,-6.76269 -7.5545,-13.308916 -11.8125,-19.59375 l -332.03125,0 z"
         style="fill:#d6dde3;fill-opacity:1;fill-rule:evenodd;stroke:none" />
      <path
         inkscape:connector-curvature="0"
         id="path2219"
         d="m 291.875,24.3125 c -0.84643,0.01437 -1.75539,0.204085 -2.71875,0.5 -9.08168,14.569552 -9.0534,62.840644 -8.9375,73.28125 0.0192,0.0044 0.0433,-0.0044 0.0625,0 13.44444,2.99718 31.24432,-0.444349 31.84375,-13.375 1.02761,-17.041055 2.05401,-33.568953 -6.9375,-44.1875 -8.2208,3.767873 -6.6603,-11.480912 -10,-14.90625 -0.83325,-0.957355 -1.99306,-1.334902 -3.3125,-1.3125 z"
         style="fill:#7bbce5;fill-opacity:1;fill-rule:evenodd;stroke:none" />
      <path
         inkscape:connector-curvature="0"
         id="path2230"
         d="m 289.15625,24.8125 c -4.78845,1.470869 -10.6169,5.836714 -13.5,7.25 -2.50663,0.269124 -7.15737,0.07414 -10.625,0.96875 -7.45496,1.923288 -14.24029,6.498506 -18.15625,13.6875 -5.05761,-14.762399 -15.91138,3.391639 -28.78125,13.84375 -7.12897,-5.394906 -21.49011,-16.157441 -34.65625,-23.09375 -10.58967,5.394906 -21.6886,23.614848 -28.28125,25.15625 -6.85069,1.284503 -16.50648,0.525144 -20.53125,5.40625 -6.6794,6.936312 -8.74675,14.89364 -10.03125,22.34375 15.67092,5.566172 32.11033,5.734586 47.78125,3.59375 8.90588,-2.140836 15.24347,0.873784 24.40625,0.53125 27.80996,1.197967 57.93096,-2.211074 83.4375,3.59375 -0.1159,-10.440606 -0.14418,-58.711698 8.9375,-73.28125 z"
         style="fill:#ffffff;fill-opacity:1;fill-rule:evenodd;stroke:none" />
      <path
         inkscape:connector-curvature="0"
         sodipodi:nodetypes="cccccc"
         id="path2221"
         d="m 196.27186,53.897897 c 3.34466,10.104747 6.24474,20.209493 5.13801,30.31424 -1.19887,6.251242 1.45577,5.823075 6.42251,3.339705 4.88111,-2.654637 7.45011,-5.566174 14.64332,-7.963911 5.56617,-1.541402 1.62704,-5.651807 -1.0276,-8.477711 -7.93859,-7.551383 -16.57194,-12.32376 -25.17624,-17.212323 z"
         style="fill:#7bbce5;fill-opacity:1;fill-rule:evenodd;stroke:none" />
      <path
         inkscape:connector-curvature="0"
         id="path2364"
         d="m 224.8125,110 c 5.85125,77.79306 58.1045,87.34975 91,71.625 -16.44821,-16.26544 -10.48224,-49.41573 7.0625,-49.78125 32.4517,-0.78967 23.2119,59.826 23.21875,89.25 C 363.83576,217.48573 362.6738,150.35502 358.90625,110 l -134.09375,0 z"
         style="fill:#294584;fill-opacity:1;fill-rule:evenodd;stroke:none" />
      <path
         inkscape:connector-curvature="0"
         sodipodi:nodetypes="cccccccccccccccccccccccccccccssssssssssscccccc"
         id="path2370"
         d="m 56.75,110 c 0.637786,6.69675 1.268466,13.397 1.90625,20.09375 4.292309,7.85858 7.483965,15.70392 6.59375,23.5625 8.479185,-2.08951 13.53165,-3.18248 18.09375,5.5 19.95341,12.42307 38.90595,13.90497 57.5625,12.0625 3.79297,45.14116 2.68676,81.45165 1.09375,135.40625 11.33098,18.82405 22.66902,36.67594 34,55.5 6.50695,11.44438 17.91988,15.05829 26.875,1.53125 7.67583,-3.4724 15.32417,-6.93386 23,-10.40625 0,3.83791 0,7.66209 0,11.5 11.78828,2.96619 23.44762,7.47829 18.09375,19.75 -4.07445,7.92506 -1.78141,11.45136 9.8125,6.15625 10.24127,-4.98823 16.56132,2.74796 21.90625,4.125 -7.62007,-8.11547 -1.06252,-24.09146 -0.8221,-40.59145 10.9342,-0.99882 23.41914,-10.90973 34.35335,-11.90855 22.48217,-21.8205 26.35358,-29.93925 26.3125,-58.125 2.25857,-7.31031 5.50226,-9.2412 3.84375,-21.9375 1.2793,-7.85858 3.06445,-18.14141 4.34375,-26 0.87631,-5.14356 1.71958,-10.17941 2.5625,-15.15625 -0.0609,0.014 -0.12615,0.0188 -0.1875,0.0312 -0.007,-29.424 9.23295,-90.03967 -23.21875,-89.25 -17.54474,0.36552 -23.51071,33.51581 -7.0625,49.78125 -3.81319,1.82279 -7.89404,3.32999 -12.125,4.40625 1.33378,7.67129 -4.208,15.54294 -11.46875,15.875 -7.24483,-0.64799 -17.90106,6.54198 -24.65625,23.03125 -10.79639,22.77148 -20.62101,2.96077 -24.5625,-3.15625 -5.05858,-6.71709 1.15326,-12.96115 -12.71875,-8.90625 -9.14474,2.82738 -20.75177,4.69523 -23.53125,-9.125 -11.6965,-11.87925 -22.89725,-22.30825 -34.59375,-34.1875 -4.66993,-5.55821 -0.78034,-10.1341 -0.75,-12.09375 -1.4e-4,-0.0415 9.2e-4,-0.1093 0,-0.15625 -4.7e-4,-0.007 8.6e-4,-0.0249 0,-0.0312 -0.006,-0.022 -0.0243,-0.0723 -0.0312,-0.0937 -0.006,-0.0237 -0.0229,-0.0712 -0.0312,-0.0937 -0.015,-0.037 -0.0419,-0.0912 -0.0625,-0.125 -0.005,-0.011 -0.0258,-0.0517 -0.0312,-0.0625 -0.008,-0.008 -0.0273,-0.0266 -0.0312,-0.0312 -0.0195,-0.021 -0.0672,-0.0696 -0.0937,-0.0937 -0.0299,-0.0235 -0.0829,-0.0663 -0.125,-0.0937 -0.0167,-0.0102 -0.0472,-0.0235 -0.0625,-0.0312 -0.0541,-0.0259 -0.12293,-0.0414 -0.1875,-0.0625 -4.56211,-2.87918 -10.09399,0.58695 -16.125,3.09375 -15.74335,2.89061 -21.89087,0.10867 -23.59375,-8.21875 C 131.12411,137.714 123.38767,139.14891 110.75,141.0625 74.322432,146.2524 68.431439,133.35895 57.8125,110 l -1.0625,0 z"
         style="fill:#e0e9ea;fill-opacity:1;fill-rule:evenodd;stroke:none" />
      <path
         inkscape:connector-curvature="0"
         id="path2383"
         d="m 57.8125,110 c 10.618935,23.35895 16.50993,36.2524 52.9375,31.0625 12.63767,-1.91359 20.37411,-3.3485 20.28125,10.40625 1.70288,8.32742 7.8504,11.10936 23.59375,8.21875 6.03101,-2.50681 11.56289,-5.97293 16.125,-3.09375 0.0646,0.0211 0.1334,0.0366 0.1875,0.0625 0.0153,0.008 0.0458,0.021 0.0625,0.0312 0.0421,0.0274 0.0951,0.0703 0.125,0.0937 0.0266,0.0242 0.0743,0.0727 0.0937,0.0937 0.004,0.005 0.023,0.023 0.0312,0.0312 0.005,0.0108 0.0261,0.0515 0.0312,0.0625 0.0206,0.0338 0.0475,0.088 0.0625,0.125 0.008,0.0225 0.0248,0.0701 0.0312,0.0937 0.007,0.0214 0.0254,0.0717 0.0312,0.0937 8.6e-4,0.006 -4.7e-4,0.024 0,0.0312 9.2e-4,0.047 -1.4e-4,0.11479 0,0.15625 -0.0303,1.95966 -3.91993,6.53554 0.75,12.09375 11.6965,11.87925 22.89725,22.30825 34.59375,34.1875 2.77948,13.82023 14.38651,11.95238 23.53125,9.125 13.87201,-4.0549 7.66017,2.18916 12.71875,8.90625 3.94149,6.11702 13.76611,25.92773 24.5625,3.15625 6.75519,-16.48926 17.41142,-23.67924 24.65625,-23.03125 7.26075,-0.33207 12.80253,-8.20371 11.46875,-15.875 -32.26858,8.20836 -73.70202,-7.25583 -78.875,-76.03125 l -167,0 z"
         style="fill:#4d8ac0;fill-opacity:1;fill-rule:evenodd;stroke:none" />
      <path
         inkscape:connector-curvature="0"
         id="path2398"
         d="m 166.9375,199.375 c -10.49836,0.68491 -5.02617,35.78579 -3.875,52.40625 1.55536,16.36112 5.2025,12.50708 16.625,5.375 5.25263,10.65336 2.05871,16.60557 -5.375,23.5 -5.53447,5.23014 -8.70879,13.04221 -3.90625,22.03125 1.46891,2.44818 2.7024,3.48598 4.40625,7.34375 1.14248,2.28497 2.26377,4.59001 3.40625,6.875 1.3181,5.0522 -0.16914,8.20336 -2.375,10.90625 -2.04267,2.9254 -2.43723,5.87483 0.21875,13.96875 1.44914,4.70097 -2.52277,10.3141 3.625,15.25 2.72443,2.11626 5.39313,3.69974 8.125,4.875 -2.37039,-6.89948 -2.44052,-16.85672 -1.28125,-25.40625 0.7831,-8.066 1.32629,-13.08075 8.6875,-18.5625 6.42148,-3.28905 4.63932,-20.663 5.1875,-31 0.0632,0.0553 0.15277,0.10501 0.21875,0.15625 -0.008,-0.0459 0.008,-0.11024 0,-0.15625 13.73591,-2.90054 6.08852,-13.88732 1.875,-24.4375 l -33.59375,-62.875 c -0.66383,-0.18427 -1.27494,-0.27218 -1.84375,-0.25 -0.0417,0.002 -0.0838,-0.003 -0.125,0 z"
         style="fill:#d6dde3;fill-opacity:1;fill-rule:evenodd;stroke:none" />
      <path
         inkscape:connector-curvature="0"
         id="path2404"
         d="M 168.90625,199.625 202.5,262.5 c 4.21352,10.55018 11.86091,21.53696 -1.875,24.4375 1.22437,7.3612 10.3286,13.76767 20.4375,12.90625 10.51471,-0.6776 18.16148,7.184 21.625,15.125 0.45746,-8.75698 1.52547,-17.44647 3.65625,-26.03125 1.35764,-4.24351 9.05137,-8.00316 2.65625,-13.65625 -25.89874,-28.51518 -50.86187,-50.93235 -78.875,-75.21875 -0.42571,-0.18465 -0.82773,-0.32896 -1.21875,-0.4375 z"
         style="fill:#608ab4;fill-opacity:1;fill-rule:evenodd;stroke:none" />
      <path
         inkscape:connector-curvature="0"
         id="path2407"
         d="m 200.40625,286.9375 c -0.54818,10.337 1.23398,27.71095 -5.1875,31 -7.36121,5.48175 -7.9044,10.4965 -8.6875,18.5625 -1.16083,8.56106 -1.09858,18.53699 1.28125,25.4375 2.42956,1.03841 4.91891,1.74207 7.5625,2.1875 4.44626,0.39814 7.24517,1.49751 16.625,-0.21875 8.21255,-0.9471 13.14404,-4.95804 22.53125,-6.375 5.12392,-1.00641 8.59202,-2.96181 8.3125,-10.78125 -0.39106,-10.67921 -0.7069,-21.28098 -0.15625,-31.78125 -3.46352,-7.941 -11.11029,-15.8026 -21.625,-15.125 -9.99044,0.85133 -19.01464,-5.40429 -20.40625,-12.65625 -0.003,-0.0143 0.003,-0.0169 0,-0.0312 -0.005,-0.004 0.005,-0.0268 0,-0.0312 -0.0763,-0.0664 -0.17505,-0.11714 -0.25,-0.1875 z"
         style="fill:#236798;fill-opacity:1;fill-rule:evenodd;stroke:none" />
      <path
         inkscape:connector-curvature="0"
         sodipodi:nodetypes="ccccccccssssscccccsssssssccccc"
         id="path2460"
         d="m 338.46875,276.53125 c -0.86265,2.39216 -1.98114,4.52954 -2.9375,7.625 0.0411,28.18575 -3.83033,36.3045 -26.3125,58.125 -0.20231,0.0507 -6.63094,15.12605 -12.09375,19.0625 -9.21499,6.81242 -8.63968,12.98963 -12.0625,20.4375 -2.47712,3.76457 -5.89789,4.37113 -8.375,3.6875 -1.54662,-1.22101 -3.10963,-1.79977 -4.65625,-3.65625 -0.0978,3.04556 0.11447,5.81876 0.90625,8.25 0.0355,0.0719 0.0584,0.14683 0.0937,0.21875 0.003,0.01 -0.003,0.0217 0,0.0312 0.43389,0.88276 0.84072,1.77349 1.25,2.65625 0.0224,0.0359 0.0397,0.0581 0.0625,0.0937 0.004,0.008 -0.004,0.0228 0,0.0312 0.37182,0.5792 0.8005,1.13855 1.28125,1.65625 -0.14636,-0.039 -0.2896,-0.077 -0.4375,-0.125 9.43846,15.09215 22.76811,19.8126 39.875,13.875 9.2112,-4.01758 14.59632,-7.69594 20.3125,-12.03125 4.97223,-4.71629 10.88806,-13.57043 1.5625,-14.15625 -1.32869,-0.35167 -2.06854,-0.69578 -2.4375,-1.0625 -0.0134,-0.0139 -0.0501,-0.0485 -0.0625,-0.0625 -0.0355,-0.042 -0.0671,-0.11334 -0.0937,-0.15625 -0.0378,-0.0646 -0.0739,-0.15178 -0.0937,-0.21875 -0.004,-0.0149 -0.0281,-0.0474 -0.0312,-0.0625 -0.004,-0.0227 0.002,-0.0707 0,-0.0937 -0.002,-0.0231 2.1e-4,-0.0703 0,-0.0937 0.0185,-1.34464 2.57735,-3.26261 0.625,-7.15625 -1.33563,-5.95557 4.3405,-11.58637 8.40625,-13.09375 -2.79484,-6.11371 -5.61141,-12.23004 -8.40625,-18.34375 0.19315,-4.01451 8.09071,-6.13374 6.8125,-13.625 2.27953,-18.8442 5.36916,-46.81501 -3.1875,-51.8125 z"
         style="fill:#608ab4;fill-opacity:1;fill-rule:evenodd;stroke:none" />
      <path
         inkscape:connector-curvature="0"
         id="path2468"
         d="m 288.03125,202.3125 c -6.75503,1.81778 -14.92738,9.09865 -20.46875,22.625 -2.5304,5.33707 -5.01459,8.33537 -7.375,9.71875 0.23656,23.24892 5.75963,39.80063 17.1875,48.875 -3.3891,13.4505 -6.76776,31.99234 -0.625,43.21875 -10.37915,-3.28318 -6.14737,17.5845 -9.21875,26.375 -5.18958,14.61553 -9.75316,13.97909 -14.625,15.25 4.4482,5.08367 10.17132,10.47896 18.75,13.65625 10e-4,0.0166 -0.003,0.0459 0,0.0625 0.0174,0.075 0.078,0.17412 0.125,0.25 0.63926,0.97085 3.51671,2.028 4.90625,3.125 2.47711,0.68363 5.89788,0.0771 8.375,-3.6875 3.42282,-7.44787 2.84751,-13.62508 12.0625,-20.4375 5.33544,-3.84467 11.61619,-18.34238 12.09375,-19.0625 -18.23428,-10.24798 -26.85326,-29.77735 -23.90625,-48.59375 0.84727,-5.18956 4.24161,-11.00814 -0.3125,-19.375 -5.44577,-22.99329 -1.97762,-49.74506 3.03125,-72 z"
         style="fill:#236798;fill-opacity:1;fill-rule:evenodd;stroke:none" />
    </g>
    <text
       xml:space="preserve"
       style="font-size:54.45191193px;font-style:normal;font-variant:normal;font-weight:normal;font-stretch:normal;text-align:center;line-height:125%;letter-spacing:0px;word-spacing:0px;writing-mode:lr-tb;text-anchor:middle;fill:#000000;fill-opacity:1;stroke:none;font-family:OpenSymbol;-inkscape-font-specification:OpenSymbol"
       x="142.53336"
       y="512.55011"
       id="text3093"
       sodipodi:linespacing="125%"><tspan
         sodipodi:role="line"
         id="tspan3095"
         x="142.53336"
         y="512.55011"
         style="font-size:98.01344299px;font-style:normal;font-variant:normal;font-weight:normal;font-stretch:normal;font-family:Linux Libertine O;-inkscape-font-specification:Linux Libertine O" /></text>
    <g
       style="font-size:66.93382263px;font-style:italic;font-variant:normal;font-weight:normal;font-stretch:normal;text-align:center;line-height:125%;letter-spacing:0px;word-spacing:0px;writing-mode:lr-tb;text-anchor:middle;fill:#000000;fill-opacity:1;stroke:none;font-family:Charis SIL;-inkscape-font-specification:Sans Italic"
       id="text3001">
      <path
         id="path3024"
         style="font-style:normal;font-family:FreeSerif;-inkscape-font-specification:FreeSerif"
         d="m 562.03152,514.91418 c -2e-5,4.46227 0.82549,7.85358 2.47655,10.17395 1.69563,2.27575 4.70765,3.41362 9.03607,3.41362 2.00798,0 3.79288,-1.11556 5.35471,-3.34669 1.60636,-2.27574 2.40957,-4.39531 2.40961,-6.35871 -4e-5,-2.45423 -0.35702,-4.01602 -1.07094,-4.68537 -0.66938,-0.66932 -2.32041,-1.11555 -4.9531,-1.33868 l 0,-1.27174 18.94227,0 0,1.27174 c -2.58816,0.22313 -4.32844,0.7586 -5.22084,1.60641 -0.84788,0.84785 -1.27179,2.32039 -1.27174,4.41764 -5e-5,3.25745 -1.53953,6.18023 -4.61843,8.76833 -3.079,2.58811 -6.78267,3.88216 -11.11102,3.88216 -5.71171,0 -9.95085,-1.3833 -12.71742,-4.1499 -2.722,-2.81121 -4.08298,-7.11728 -4.08297,-12.91823 l 0,-25.10018 -4.81923,0 c -1.42794,4e-5 -3.12359,-0.22307 -5.08697,-0.66934 -1.9634,-0.44618 -3.59212,-0.91472 -4.88617,-1.40561 -1.29406,-0.53542 -1.94108,-0.91472 -1.94108,-1.13787 0,-0.58005 0.78089,-1.31632 2.34268,-2.20882 1.60641,-0.93702 3.07895,-1.40556 4.41763,-1.40561 0.22311,5e-5 0.58009,0.40165 1.07094,1.20481 0.49084,0.75863 1.16018,1.53952 2.00802,2.34268 0.84782,0.75863 1.85182,1.13792 3.01202,1.13788 l 10.70941,0 0,27.77753 m -39.41878,11.71342 c 0.93703,-0.26773 1.78486,-0.40159 2.54348,-0.4016 1.42788,10e-6 3.12354,0.22312 5.08697,0.66934 1.96335,0.44623 3.59207,0.93708 4.88617,1.47254 1.294,0.49085 1.94103,0.84783 1.94108,1.07094 -5e-5,0.5801 -0.80326,1.31637 -2.40962,2.20882 -1.56183,0.93707 -3.01206,1.40561 -4.35069,1.40561 -0.22316,0 -0.58014,-0.4016 -1.07094,-1.20481 -0.4909,-0.75858 -1.16023,-1.51716 -2.00802,-2.27575 -0.84787,-0.8032 -1.85188,-1.2048 -3.01202,-1.20481 -1.02636,10e-6 -2.03037,0.22312 -3.01202,0.66934 -0.98174,0.40161 -1.87419,0.84783 -2.67736,1.33868 -0.80324,0.49085 -2.09729,0.93707 -3.88216,1.33867 -1.74031,0.44623 -3.81525,0.66934 -6.22484,0.66934 -5.71171,0 -9.95085,-1.3833 -12.71743,-4.1499 -2.72198,-2.81121 -4.08297,-7.11728 -4.08296,-12.91822 l 0,-20.88336 c -1e-5,-2.4542 -0.35699,-4.01598 -1.07094,-4.68536 -0.66935,-0.6693 -2.32038,-1.11552 -4.95311,-1.33868 l 0,-1.27174 18.94227,0 0,1.27174 c -2.67737,0.22316 -4.37302,0.69169 -5.08697,1.40561 -0.66935,0.66938 -1.00402,2.20886 -1.004,4.61843 l 0,21.41883 c -2e-5,4.41764 0.8255,7.78664 2.47655,10.107 1.65101,2.32038 4.46223,3.48057 8.43366,3.48056 2.90044,1e-5 5.1985,-1.29405 6.89418,-3.88216 1.74025,-2.5881 2.61039,-5.82323 2.61042,-9.7054 l 0,-21.41883 c -3e-5,-2.40957 -0.35701,-3.94905 -1.07094,-4.61843 -0.66937,-0.71392 -2.34271,-1.18245 -5.02004,-1.40561 l 0,-1.27174 18.94228,0 0,1.27174 c -2.63278,0.22316 -4.30612,0.66938 -5.02004,1.33868 -0.66938,0.66938 -1.00405,2.23116 -1.00401,4.68536 l 0,20.88336 c -4e-5,5.1316 -1.02636,8.9022 -3.07895,11.31181 m -71.22598,-2.47655 c -10e-6,2.40962 0.33466,3.97141 1.00401,4.68537 0.71394,0.66934 2.4096,1.11556 5.08697,1.33868 l 0,1.27174 -18.94227,0 0,-1.27174 c 2.63272,-0.22312 4.28376,-0.66934 4.9531,-1.33868 0.71395,-0.66934 1.07093,-2.23112 1.07094,-4.68537 l 0,-20.88335 c -10e-6,-5.8009 1.36098,-10.08466 4.08296,-12.85129 2.76659,-2.81118 7.00573,-4.21679 12.71743,-4.21684 4.32836,5e-5 8.03203,1.2941 11.11101,3.88217 3.07892,2.58814 4.6184,5.51092 4.61844,8.76833 -4e-5,2.09729 0.42387,3.56983 1.27174,4.41763 0.89241,0.84785 2.63269,1.38332 5.22084,1.60641 l 0,1.27174 -18.94227,0 0,-1.27174 c 2.6327,-0.22309 4.28373,-0.66931 4.9531,-1.33868 0.71393,-0.66931 1.07091,-2.23109 1.07094,-4.68536 -3e-5,-1.96336 -0.80324,-4.06062 -2.40962,-6.29178 -1.56181,-2.27571 -3.34671,-3.41359 -5.3547,-3.41363 -4.32841,4e-5 -7.34043,1.16023 -9.03607,3.48056 -1.65105,2.27579 -2.47656,5.64479 -2.47655,10.10701 l 0,21.41882 m -29.04404,2.47655 c 0.93703,-0.26773 1.78486,-0.40159 2.54348,-0.4016 1.42788,10e-6 3.12354,0.22312 5.08697,0.66934 1.96335,0.44623 3.59207,0.93708 4.88617,1.47254 1.294,0.49085 1.94103,0.84783 1.94108,1.07094 -5e-5,0.5801 -0.80325,1.31637 -2.40961,2.20882 -1.56184,0.93707 -3.01207,1.40561 -4.3507,1.40561 -0.22316,0 -0.58014,-0.4016 -1.07094,-1.20481 -0.4909,-0.75858 -1.16023,-1.51716 -2.00802,-2.27575 -0.84787,-0.8032 -1.85188,-1.2048 -3.01202,-1.20481 -1.02636,10e-6 -2.03036,0.22312 -3.01202,0.66934 -0.98173,0.40161 -1.87418,0.84783 -2.67736,1.33868 -0.80324,0.49085 -2.09729,0.93707 -3.88216,1.33867 -1.74031,0.44623 -3.81525,0.66934 -6.22484,0.66934 -5.71171,0 -9.95085,-1.3833 -12.71743,-4.1499 -2.72198,-2.81121 -4.08297,-7.11728 -4.08296,-12.91822 l 0,-20.88336 c -10e-6,-2.4542 -0.35699,-4.01598 -1.07094,-4.68536 -0.66935,-0.6693 -2.32038,-1.11552 -4.95311,-1.33868 l 0,-1.27174 18.94228,0 0,1.27174 c -2.67738,0.22316 -4.37303,0.69169 -5.08698,1.40561 -0.66935,0.66938 -1.00402,2.20886 -1.004,4.61843 l 0,21.41883 c -2e-5,4.41764 0.8255,7.78664 2.47655,10.107 1.65101,2.32038 4.46223,3.48057 8.43366,3.48056 2.90044,1e-5 5.1985,-1.29405 6.89418,-3.88216 1.74025,-2.5881 2.61039,-5.82323 2.61042,-9.7054 l 0,-21.41883 c -3e-5,-2.40957 -0.35701,-3.94905 -1.07094,-4.61843 -0.66937,-0.71392 -2.34271,-1.18245 -5.02003,-1.40561 l 0,-1.27174 18.94227,0 0,1.27174 c -2.63278,0.22316 -4.30612,0.66938 -5.02004,1.33868 -0.66938,0.66938 -1.00405,2.23116 -1.00401,4.68536 l 0,20.88336 c -4e-5,5.1316 -1.02636,8.9022 -3.07895,11.31181 m -62.21603,-2.47655 0,-21.41882 c -4e-5,-4.46222 -0.84786,-7.83122 -2.54349,-10.10701 -1.65106,-2.32033 -4.64077,-3.48052 -8.96913,-3.48056 -2.00803,4e-5 -3.81525,1.13792 -5.42164,3.41363 -1.5618,2.23116 -2.3427,4.32842 -2.34268,6.29178 -2e-5,2.45427 0.33465,4.01605 1.004,4.68536 0.71395,0.66937 2.38729,1.11559 5.02004,1.33868 l 0,1.27174 -18.94227,0 0,-1.27174 c 2.5881,-0.22309 4.30607,-0.75856 5.1539,-1.60641 0.89245,-0.8478 1.33867,-2.32034 1.33868,-4.41763 -1e-5,-3.25741 1.53947,-6.18019 4.61843,-8.76833 3.07894,-2.58807 6.78261,-3.88212 11.11102,-3.88217 5.71166,5e-5 9.92848,1.40566 12.65049,4.21684 2.76656,2.76663 4.14986,7.05039 4.1499,12.85129 l 0,9.03607 4.81923,0 c 1.42788,10e-6 3.12353,0.22313 5.08697,0.66933 1.96334,0.44625 3.59207,0.93709 4.88617,1.47255 1.294,0.49086 1.94103,0.84784 1.94108,1.07094 -5e-5,0.58011 -0.80326,1.33869 -2.40961,2.27575 -1.56185,0.89246 -3.01208,1.33869 -4.3507,1.33868 -0.22316,10e-6 -0.58014,-0.37928 -1.07094,-1.13788 -0.4909,-0.80319 -1.16024,-1.58409 -2.00802,-2.34268 -0.84787,-0.80319 -1.85188,-1.2048 -3.01202,-1.20481 l -3.88216,0 0,9.7054 c -4e-5,2.45425 0.33463,4.01603 1.00401,4.68537 0.71391,0.66934 2.38726,1.11556 5.02003,1.33868 l 0,1.27174 -18.94227,0 0,-1.27174 c 2.67732,-0.22312 4.35067,-0.66934 5.02004,-1.33868 0.71392,-0.71396 1.0709,-2.27575 1.07094,-4.68537 m -66.19337,-9.57153 0,9.57153 c -2e-5,2.45425 0.40158,4.06066 1.2048,4.81924 0.80319,0.71396 2.58809,1.11556 5.35471,1.20481 l 0,1.27174 -19.87935,0 0,-1.27174 c 2.81122,-0.0892 4.59612,-0.49085 5.35471,-1.20481 0.75858,-0.71396 1.13787,-2.32037 1.13788,-4.81924 l 0,-29.71862 c -10e-6,-2.4542 -0.3793,-4.01598 -1.13788,-4.68536 -0.71397,-0.71392 -2.49887,-1.16015 -5.35471,-1.33868 l 0,-1.27174 19.87935,0 0,1.27174 c -2.81124,0.13391 -4.61845,0.55782 -5.42164,1.27174 -0.7586,0.714 -1.13789,2.2981 -1.13787,4.7523 l 0,5.75631 c 2.58809,-1.42789 5.91246,-2.14185 9.97314,-2.14188 4.32835,3e-5 8.03202,1.29409 11.11101,3.88216 3.07892,2.58814 4.61839,5.51091 4.61843,8.76833 -4e-5,2.09728 0.42388,3.56982 1.27175,4.41764 0.8924,0.84784 2.63268,1.38331 5.22083,1.60641 l 0,1.27174 -18.94227,0 0,-1.27174 c 2.6327,-0.17848 4.28374,-0.60239 4.95311,-1.27175 0.71392,-0.71394 1.0709,-2.29804 1.07094,-4.7523 -4e-5,-1.96337 -0.80324,-4.06062 -2.40962,-6.29178 -1.56182,-2.27572 -3.34672,-3.41359 -5.35471,-3.41362 -4.32841,3e-5 -7.34042,1.16021 -9.03606,3.48056 -1.65105,2.27577 -2.47657,5.64477 -2.47655,10.10701 m -35.02627,-2.27575 c 3.30204,10e-6 5.77859,-1.07093 7.42966,-3.21283 1.69561,-2.14186 2.54344,-5.08694 2.54348,-8.83526 -4e-5,-2.72194 -0.78093,-5.24312 -2.34268,-7.56352 -1.56183,-2.36496 -3.36904,-3.54746 -5.42164,-3.5475 -4.32842,4e-5 -7.34044,1.16023 -9.03607,3.48056 -1.65105,2.27579 -2.47657,5.64479 -2.47655,10.10701 -2e-5,2.63275 0.89243,4.88619 2.67736,6.76031 1.82949,1.87417 4.03831,2.81124 6.62644,2.81123 m -18.87533,9.9062 c -1.42794,10e-6 -3.12359,-0.2231 -5.08697,-0.66934 -1.9634,-0.44621 -3.59212,-0.91475 -4.88617,-1.40561 -1.29406,-0.53546 -1.94108,-0.91475 -1.94108,-1.13787 0,-0.58008 0.78089,-1.31635 2.34268,-2.20882 1.60641,-0.93706 3.07895,-1.40559 4.41763,-1.40561 0.22311,2e-5 0.58009,0.40162 1.07094,1.20481 0.49084,0.7586 1.16018,1.53949 2.00802,2.34268 0.84781,0.7586 1.85182,1.13789 3.01202,1.13788 l 1.80721,0 0,-16.80039 c -1e-5,-5.8009 1.36097,-10.08466 4.08297,-12.85129 2.76657,-2.81118 7.00571,-4.21679 12.71742,-4.21684 4.50684,5e-5 8.32207,1.33872 11.44569,4.01603 3.12353,2.6774 4.68532,6.02408 4.68536,10.04008 -4e-5,4.32841 -1.56183,7.78666 -4.68536,10.37474 -3.12362,2.5435 -6.93885,3.81524 -11.44569,3.81523 -4.64077,10e-6 -7.96515,-1.69564 -9.97314,-5.08697 l 0,10.70941 17.46973,0 c 1.42788,10e-6 3.12354,0.22312 5.08697,0.66934 1.96335,0.44623 3.59207,0.93708 4.88617,1.47254 1.294,0.49086 1.94103,0.84784 1.94108,1.07094 -5e-5,0.5801 -0.80326,1.33869 -2.40962,2.27575 -1.56183,0.89246 -3.01206,1.33868 -4.35069,1.33868 -0.22316,0 -0.58014,-0.37929 -1.07095,-1.13788 -0.49089,-0.8032 -1.16022,-1.58409 -2.00801,-2.34268 -0.84787,-0.8032 -1.85188,-1.2048 -3.01202,-1.20481 l -16.53266,0 0,1.94108 c -2e-5,2.40962 0.33465,3.97141 1.00401,4.68537 0.71394,0.66934 2.40959,1.11556 5.08697,1.33868 l 0,1.27174 -18.94227,0 0,-1.27174 c 2.63272,-0.22312 4.28375,-0.66934 4.9531,-1.33868 0.71395,-0.66934 1.07093,-2.23112 1.07094,-4.68537 l 0,-1.94108 -2.74428,0 m -45.84549,-7.63045 0,9.57153 c -1e-5,2.45425 0.40159,4.06066 1.20481,4.81924 0.80319,0.71396 2.58809,1.11556 5.3547,1.20481 l 0,1.27174 -19.87934,0 0,-1.27174 c 2.81122,-0.0892 4.59612,-0.49085 5.3547,-1.20481 0.75858,-0.71396 1.13787,-2.32037 1.13788,-4.81924 l 0,-29.71862 c -1e-5,-2.4542 -0.3793,-4.01598 -1.13788,-4.68536 -0.71396,-0.71392 -2.49886,-1.16015 -5.3547,-1.33868 l 0,-1.27174 19.87934,0 0,1.27174 c -2.81123,0.13391 -4.61845,0.55782 -5.42164,1.27174 -0.75859,0.714 -1.13788,2.2981 -1.13787,4.7523 l 0,5.75631 c 2.58809,-1.42789 5.91247,-2.14185 9.97314,-2.14188 4.32836,3e-5 8.03203,1.29409 11.11101,3.88216 3.07892,2.58814 4.6184,5.51091 4.61844,8.76833 -4e-5,2.09728 0.42387,3.56982 1.27174,4.41764 0.89241,0.84784 2.63269,1.38331 5.22084,1.60641 l 0,1.27174 -18.94227,0 0,-1.27174 c 2.6327,-0.17848 4.28373,-0.60239 4.9531,-1.27175 0.71393,-0.71394 1.07091,-2.29804 1.07094,-4.7523 -3e-5,-1.96337 -0.80324,-4.06062 -2.40962,-6.29178 -1.56182,-2.27572 -3.34672,-3.41359 -5.3547,-3.41362 -4.32841,3e-5 -7.34043,1.16021 -9.03607,3.48056 -1.65105,2.27577 -2.47656,5.64477 -2.47655,10.10701" />
    </g>
    <g
       style="font-size:97.95957184px;font-style:italic;font-variant:normal;font-weight:normal;font-stretch:normal;text-align:center;line-height:125%;letter-spacing:0px;word-spacing:0px;writing-mode:lr-tb;text-anchor:middle;fill:#000000;fill-opacity:1;stroke:none;font-family:Charis SIL;-inkscape-font-specification:Sans Italic"
       id="text3005">
      <path
         id="path3028"
         style="font-style:normal;font-family:FreeSerif;-inkscape-font-specification:FreeSerif"
         d="m 152.59599,521.78961 8.52248,0 c 2.08974,0 4.57138,0.32653 7.44493,0.9796 2.8734,0.65306 5.25708,1.37143 7.15105,2.15511 1.8938,0.71837 2.84074,1.24082 2.84082,1.56735 -8e-5,0.84898 -1.17559,1.92653 -3.52654,3.23267 -2.2858,1.37142 -4.40826,2.05714 -6.36737,2.05715 -0.32661,-10e-6 -0.84906,-0.58777 -1.56736,-1.76328 -0.71844,-1.11021 -1.69803,-2.25307 -2.93878,-3.42858 -1.24089,-1.11021 -2.71028,-1.66531 -4.40818,-1.66531 l -17.14293,0 0,-18.9062 c -4.7021,3.9837 -9.76334,5.97555 -15.18373,5.97553 -6.66128,2e-5 -11.75517,-1.6653 -15.2817,-4.99594 -3.46125,-3.39591 -5.19186,-8 -5.19185,-13.81229 l 0,-1.9592 c -1e-5,-3.5265 -0.48981,-5.77957 -1.4694,-6.75921 -0.9796,-1.04486 -3.36328,-1.73057 -7.151045,-2.05715 l 0,-1.86123 27.232765,0 0,1.86123 c -3.7878,0.32658 -6.17148,1.01229 -7.15105,2.05715 -0.97962,0.97964 -1.46942,3.23271 -1.4694,6.75921 l 0,2.05715 c -2e-5,9.60006 3.39591,14.40008 10.1878,14.40006 5.35509,2e-5 10.51429,-1.99182 15.47761,-5.97553 l 0,-30.95523 c -4e-5,-3.52648 -0.48984,-5.77955 -1.46939,-6.75921 -0.97964,-1.04484 -3.36332,-1.73055 -7.15105,-2.05715 l 0,-1.86123 27.23276,0 0,1.86123 c -3.78783,0.3266 -6.17151,1.01231 -7.15105,2.05715 -0.97965,0.97966 -1.46945,3.23273 -1.46939,6.75921 l 0,51.03694" />
    </g>
  </g>
</svg>
