<?xml version="1.0" encoding="UTF-8" standalone="no"?>
<!-- Created with Inkscape (http://www.inkscape.org/) -->

<svg
   xmlns:dc="http://purl.org/dc/elements/1.1/"
   xmlns:cc="http://creativecommons.org/ns#"
   xmlns:rdf="http://www.w3.org/1999/02/22-rdf-syntax-ns#"
   xmlns:svg="http://www.w3.org/2000/svg"
   xmlns="http://www.w3.org/2000/svg"
   xmlns:xlink="http://www.w3.org/1999/xlink"
   xmlns:sodipodi="http://sodipodi.sourceforge.net/DTD/sodipodi-0.dtd"
   xmlns:inkscape="http://www.inkscape.org/namespaces/inkscape"
   version="1.0"
   width="496.44067"
   height="670.93219"
   id="svg1325"
   inkscape:version="0.48.2 r9819"
   sodipodi:docname="Wikisource-logo-as-3.svg">
  <sodipodi:namedview
     pagecolor="#ffffff"
     bordercolor="#666666"
     borderopacity="1"
     objecttolerance="10"
     gridtolerance="10"
     guidetolerance="10"
     inkscape:pageopacity="0"
     inkscape:pageshadow="2"
     inkscape:window-width="1280"
     inkscape:window-height="712"
     id="namedview4270"
     showgrid="false"
     inkscape:zoom="0.8137931"
     inkscape:cx="38.605294"
     inkscape:cy="279.26507"
     inkscape:window-x="-32000"
     inkscape:window-y="-32000"
     inkscape:window-maximized="1"
     inkscape:current-layer="svg1325"
     fit-margin-top="0"
     fit-margin-left="0"
     fit-margin-right="0"
     fit-margin-bottom="0" />
  <defs
     id="defs5578">
    <clipPath
       id="clipPath5484">
      <rect
         width="277.85715"
         height="76.428566"
         x="308.57144"
         y="447.36218"
         id="rect5486"
         style="fill:none;stroke:#892900;stroke-width:1;stroke-linejoin:round;stroke-miterlimit:4;stroke-opacity:1;stroke-dasharray:2, 1;stroke-dashoffset:0.5" />
    </clipPath>
    <clipPath
       id="clipPath5480">
      <rect
         width="277.85715"
         height="76.428566"
         x="308.57144"
         y="447.36218"
         id="rect5482"
         style="fill:none;stroke:#892900;stroke-width:1;stroke-linejoin:round;stroke-miterlimit:4;stroke-opacity:1;stroke-dasharray:2, 1;stroke-dashoffset:0.5" />
    </clipPath>
    <clipPath
       id="clipPath5476">
      <rect
         width="277.85715"
         height="76.428566"
         x="308.57144"
         y="447.36218"
         id="rect5478"
         style="fill:none;stroke:#892900;stroke-width:1;stroke-linejoin:round;stroke-miterlimit:4;stroke-opacity:1;stroke-dasharray:2, 1;stroke-dashoffset:0.5" />
    </clipPath>
    <clipPath
       id="clipPath5472">
      <rect
         width="277.85715"
         height="76.428566"
         x="308.57144"
         y="447.36218"
         id="rect5474"
         style="fill:none;stroke:#892900;stroke-width:1;stroke-linejoin:round;stroke-miterlimit:4;stroke-opacity:1;stroke-dasharray:2, 1;stroke-dashoffset:0.5" />
    </clipPath>
    <clipPath
       id="clipPath5468">
      <rect
         width="277.85715"
         height="76.428566"
         x="308.57144"
         y="447.36218"
         id="rect5470"
         style="fill:none;stroke:#892900;stroke-width:1;stroke-linejoin:round;stroke-miterlimit:4;stroke-opacity:1;stroke-dasharray:2, 1;stroke-dashoffset:0.5" />
    </clipPath>
    <clipPath
       id="clipPath5464">
      <rect
         width="277.85715"
         height="76.428566"
         x="308.57144"
         y="447.36218"
         id="rect5466"
         style="fill:none;stroke:#892900;stroke-width:1;stroke-linejoin:round;stroke-miterlimit:4;stroke-opacity:1;stroke-dasharray:2, 1;stroke-dashoffset:0.5" />
    </clipPath>
    <clipPath
       id="clipPath5460">
      <rect
         width="277.85715"
         height="76.428566"
         x="308.57144"
         y="447.36218"
         id="rect5462"
         style="fill:none;stroke:#892900;stroke-width:1;stroke-linejoin:round;stroke-miterlimit:4;stroke-opacity:1;stroke-dasharray:2, 1;stroke-dashoffset:0.5" />
    </clipPath>
    <clipPath
       id="clipPath5456">
      <rect
         width="277.85715"
         height="76.428566"
         x="308.57144"
         y="447.36218"
         id="rect5458"
         style="fill:none;stroke:#892900;stroke-width:1;stroke-linejoin:round;stroke-miterlimit:4;stroke-opacity:1;stroke-dasharray:2, 1;stroke-dashoffset:0.5" />
    </clipPath>
    <clipPath
       id="clipPath5452">
      <rect
         width="277.85715"
         height="76.428566"
         x="308.57144"
         y="447.36218"
         id="rect5454"
         style="fill:none;stroke:#892900;stroke-width:1;stroke-linejoin:round;stroke-miterlimit:4;stroke-opacity:1;stroke-dasharray:2, 1;stroke-dashoffset:0.5" />
    </clipPath>
    <clipPath
       id="clipPath5448">
      <rect
         width="277.85715"
         height="76.428566"
         x="308.57144"
         y="447.36218"
         id="rect5450"
         style="fill:none;stroke:#892900;stroke-width:1;stroke-linejoin:round;stroke-miterlimit:4;stroke-opacity:1;stroke-dasharray:2, 1;stroke-dashoffset:0.5" />
    </clipPath>
    <clipPath
       id="clipPath5444">
      <rect
         width="277.85715"
         height="76.428566"
         x="308.57144"
         y="447.36218"
         id="rect5446"
         style="fill:none;stroke:#892900;stroke-width:1;stroke-linejoin:round;stroke-miterlimit:4;stroke-opacity:1;stroke-dasharray:2, 1;stroke-dashoffset:0.5" />
    </clipPath>
    <clipPath
       id="clipPath5440">
      <rect
         width="277.85715"
         height="76.428566"
         x="308.57144"
         y="447.36218"
         transform="matrix(0,1,-1,0,0,0)"
         id="rect5442"
         style="fill:none;stroke:#892900;stroke-width:1;stroke-linejoin:round;stroke-miterlimit:4;stroke-opacity:1;stroke-dasharray:2, 1;stroke-dashoffset:0.5" />
    </clipPath>
    <clipPath
       id="clipPath5436">
      <rect
         width="277.85715"
         height="76.428566"
         x="308.57144"
         y="447.36218"
         id="rect5438"
         style="fill:none;stroke:#892900;stroke-width:1;stroke-linejoin:round;stroke-miterlimit:4;stroke-opacity:1;stroke-dasharray:2, 1;stroke-dashoffset:0.5" />
    </clipPath>
    <clipPath
       id="clipPath5432">
      <rect
         width="277.85715"
         height="76.428566"
         x="308.57144"
         y="447.36218"
         id="rect5434"
         style="fill:none;stroke:#892900;stroke-width:1;stroke-linejoin:round;stroke-miterlimit:4;stroke-opacity:1;stroke-dasharray:2, 1;stroke-dashoffset:0.5" />
    </clipPath>
    <clipPath
       id="clipPath5428">
      <rect
         width="277.85715"
         height="76.428566"
         x="308.57144"
         y="447.36218"
         id="rect5430"
         style="fill:none;stroke:#892900;stroke-width:1;stroke-linejoin:round;stroke-miterlimit:4;stroke-opacity:1;stroke-dasharray:2, 1;stroke-dashoffset:0.5" />
    </clipPath>
    <clipPath
       id="clipPath5424">
      <rect
         width="277.85715"
         height="76.428566"
         x="308.57144"
         y="447.36218"
         id="rect5426"
         style="fill:none;stroke:#892900;stroke-width:1;stroke-linejoin:round;stroke-miterlimit:4;stroke-opacity:1;stroke-dasharray:2, 1;stroke-dashoffset:0.5" />
    </clipPath>
  </defs>
  <metadata
     id="metadata1330">
    <rdf:RDF>
      <cc:Work
         rdf:about="">
        <dc:format>image/svg+xml</dc:format>
        <dc:type
           rdf:resource="http://purl.org/dc/dcmitype/StillImage" />
        <dc:title></dc:title>
      </cc:Work>
    </rdf:RDF>
  </metadata>
  <g
     transform="translate(39.864141,53.654254)"
     id="g2492"
     style="fill-opacity:1;fill-rule:evenodd;stroke:none">
    <path
       d="M 203.5,0.2 C 135.60706,0.67252098 75.52335,36.174749 38.78125,90.40625 l 332.03125,0 c -36.97963,-54.5821 -97.56677,-90.1875 -166,-90.1875 -0.43957,0 -0.87358,-0.002934 -1.3125,0 z"
       id="path1"
       style="fill:#608ab4"
       inkscape:connector-curvature="0" />
    <path
       d="M 38.78125,90.40625 C 34.523245,96.691084 30.607797,103.23731 27,110 l 355.625,0 c -3.6078,-6.76269 -7.5545,-13.308916 -11.8125,-19.59375 l -332.03125,0 z"
       id="path2"
       style="fill:#d6dde3"
       inkscape:connector-curvature="0" />
    <path
       d="M 27,110 C 10.417835,141.08269 0.9375,176.91683 0.9375,215.09375 0.9375,333.71387 92.282775,430 204.8125,430 317.34222,430 408.65624,333.71387 408.65625,215.09375 408.65625,176.91683 399.20717,141.08269 382.625,110 L 27,110 z"
       id="path3"
       style="fill:#375493"
       inkscape:connector-curvature="0" />
    <path
       d="m 291.875,24.3125 c -0.84643,0.01437 -1.75539,0.204085 -2.71875,0.5 -9.08168,14.569552 -9.0534,62.840644 -8.9375,73.28125 0.0192,0.0044 0.0433,-0.0044 0.0625,0 13.44444,2.99718 31.24432,-0.444349 31.84375,-13.375 1.02761,-17.041055 2.05401,-33.568953 -6.9375,-44.1875 -8.2208,3.767873 -6.6603,-11.480912 -10,-14.90625 -0.83325,-0.957355 -1.99306,-1.334902 -3.3125,-1.3125 z"
       id="pathA"
       style="fill:#7bbce5"
       inkscape:connector-curvature="0" />
    <path
       d="m 289.15625,24.8125 c -4.78845,1.470869 -10.6169,5.836714 -13.5,7.25 -2.50663,0.269124 -7.15737,0.07414 -10.625,0.96875 -7.45496,1.923288 -14.24029,6.498506 -18.15625,13.6875 -5.05761,-14.762399 -15.91138,3.391639 -28.78125,13.84375 -7.12897,-5.394906 -21.49011,-16.157441 -34.65625,-23.09375 -10.58967,5.394906 -21.6886,23.614848 -28.28125,25.15625 -6.85069,1.284503 -16.50648,0.525144 -20.53125,5.40625 -6.6794,6.936312 -8.74675,14.89364 -10.03125,22.34375 15.67092,5.566172 32.11033,5.734586 47.78125,3.59375 8.90588,-2.140836 15.24347,0.873784 24.40625,0.53125 27.80996,1.197967 57.93096,-2.211074 83.4375,3.59375 -0.1159,-10.440606 -0.14418,-58.711698 8.9375,-73.28125 z"
       id="pathB"
       style="fill:#ffffff"
       inkscape:connector-curvature="0" />
    <path
       d="m 196.27186,53.897897 c 3.34466,10.104747 6.24474,20.209493 5.13801,30.31424 -1.19887,6.251242 1.45577,5.823075 6.42251,3.339705 4.88111,-2.654637 7.45011,-5.566174 14.64332,-7.963911 5.56617,-1.541402 1.62704,-5.651807 -1.0276,-8.477711 -7.93859,-7.551383 -16.57194,-12.32376 -25.17624,-17.212323 z"
       id="pathC"
       style="fill:#7bbce5"
       inkscape:connector-curvature="0" />
    <path
       d="m 224.8125,110 c 5.85125,77.79306 58.1045,87.34975 91,71.625 -16.44821,-16.26544 -10.48224,-49.41573 7.0625,-49.78125 32.4517,-0.78967 23.2119,59.826 23.21875,89.25 C 363.83576,217.48573 362.6738,150.35502 358.90625,110 l -134.09375,0 z"
       id="pathD"
       style="fill:#294584"
       inkscape:connector-curvature="0" />
    <path
       d="m 56.75,110 c 0.637786,6.69675 1.268466,13.397 1.90625,20.09375 4.292309,7.85858 7.483965,15.70392 6.59375,23.5625 8.479185,-2.08951 13.53165,-3.18248 18.09375,5.5 19.95341,12.42307 38.90595,13.90497 57.5625,12.0625 3.79297,45.14116 2.68676,81.45165 1.09375,135.40625 11.33098,18.82405 22.66902,36.67594 34,55.5 6.50695,11.44438 17.91988,15.05829 26.875,1.53125 7.67583,-3.4724 15.32417,-6.93386 23,-10.40625 0,3.83791 0,7.66209 0,11.5 11.78828,2.96619 23.44762,7.47829 18.09375,19.75 -4.07445,7.92506 -1.78141,11.45136 9.8125,6.15625 10.24127,-4.98823 16.56132,2.74796 21.90625,4.125 -7.62007,-8.11547 -1.06252,-24.09146 -0.8221,-40.59145 10.9342,-0.99882 23.41914,-10.90973 34.35335,-11.90855 22.48217,-21.8205 26.35358,-29.93925 26.3125,-58.125 2.25857,-7.31031 5.50226,-9.2412 3.84375,-21.9375 1.2793,-7.85858 3.06445,-18.14141 4.34375,-26 0.87631,-5.14356 1.71958,-10.17941 2.5625,-15.15625 -0.0609,0.014 -0.12615,0.0188 -0.1875,0.0312 -0.007,-29.424 9.23295,-90.03967 -23.21875,-89.25 -17.54474,0.36552 -23.51071,33.51581 -7.0625,49.78125 -3.81319,1.82279 -7.89404,3.32999 -12.125,4.40625 1.33378,7.67129 -4.208,15.54294 -11.46875,15.875 -7.24483,-0.64799 -17.90106,6.54198 -24.65625,23.03125 -10.79639,22.77148 -20.62101,2.96077 -24.5625,-3.15625 -5.05858,-6.71709 1.15326,-12.96115 -12.71875,-8.90625 -9.14474,2.82738 -20.75177,4.69523 -23.53125,-9.125 -11.6965,-11.87925 -22.89725,-22.30825 -34.59375,-34.1875 -4.66993,-5.55821 -0.78034,-10.1341 -0.75,-12.09375 -1.4e-4,-0.0415 9.2e-4,-0.1093 0,-0.15625 -4.7e-4,-0.007 8.6e-4,-0.0249 0,-0.0312 -0.006,-0.022 -0.0243,-0.0723 -0.0312,-0.0937 -0.006,-0.0237 -0.0229,-0.0712 -0.0312,-0.0937 -0.015,-0.037 -0.0419,-0.0912 -0.0625,-0.125 -0.005,-0.011 -0.0258,-0.0517 -0.0312,-0.0625 -0.008,-0.008 -0.0273,-0.0266 -0.0312,-0.0312 -0.0195,-0.021 -0.0672,-0.0696 -0.0937,-0.0937 -0.0299,-0.0235 -0.0829,-0.0663 -0.125,-0.0937 -0.0167,-0.0102 -0.0472,-0.0235 -0.0625,-0.0312 -0.0541,-0.0259 -0.12293,-0.0414 -0.1875,-0.0625 -4.56211,-2.87918 -10.09399,0.58695 -16.125,3.09375 -15.74335,2.89061 -21.89087,0.10867 -23.59375,-8.21875 C 131.12411,137.714 123.38767,139.14891 110.75,141.0625 74.322432,146.2524 68.431439,133.35895 57.8125,110 l -1.0625,0 z"
       id="pathE"
       style="fill:#e0e9ea"
       inkscape:connector-curvature="0" />
    <path
       d="m 57.8125,110 c 10.618935,23.35895 16.50993,36.2524 52.9375,31.0625 12.63767,-1.91359 20.37411,-3.3485 20.28125,10.40625 1.70288,8.32742 7.8504,11.10936 23.59375,8.21875 6.03101,-2.50681 11.56289,-5.97293 16.125,-3.09375 0.0646,0.0211 0.1334,0.0366 0.1875,0.0625 0.0153,0.008 0.0458,0.021 0.0625,0.0312 0.0421,0.0274 0.0951,0.0703 0.125,0.0937 0.0266,0.0242 0.0743,0.0727 0.0937,0.0937 0.004,0.005 0.023,0.023 0.0312,0.0312 0.005,0.0108 0.0261,0.0515 0.0312,0.0625 0.0206,0.0338 0.0475,0.088 0.0625,0.125 0.008,0.0225 0.0248,0.0701 0.0312,0.0937 0.007,0.0214 0.0254,0.0717 0.0312,0.0937 8.6e-4,0.006 -4.7e-4,0.024 0,0.0312 9.2e-4,0.047 -1.4e-4,0.11479 0,0.15625 -0.0303,1.95966 -3.91993,6.53554 0.75,12.09375 11.6965,11.87925 22.89725,22.30825 34.59375,34.1875 2.77948,13.82023 14.38651,11.95238 23.53125,9.125 13.87201,-4.0549 7.66017,2.18916 12.71875,8.90625 3.94149,6.11702 13.76611,25.92773 24.5625,3.15625 6.75519,-16.48926 17.41142,-23.67924 24.65625,-23.03125 7.26075,-0.33207 12.80253,-8.20371 11.46875,-15.875 -32.26858,8.20836 -73.70202,-7.25583 -78.875,-76.03125 l -167,0 z"
       id="pathF"
       style="fill:#4d8ac0"
       inkscape:connector-curvature="0" />
    <path
       d="m 166.9375,199.375 c -10.49836,0.68491 -5.02617,35.78579 -3.875,52.40625 1.55536,16.36112 5.2025,12.50708 16.625,5.375 5.25263,10.65336 2.05871,16.60557 -5.375,23.5 -5.53447,5.23014 -8.70879,13.04221 -3.90625,22.03125 1.46891,2.44818 2.7024,3.48598 4.40625,7.34375 1.14248,2.28497 2.26377,4.59001 3.40625,6.875 1.3181,5.0522 -0.16914,8.20336 -2.375,10.90625 -2.04267,2.9254 -2.43723,5.87483 0.21875,13.96875 1.44914,4.70097 -2.52277,10.3141 3.625,15.25 2.72443,2.11626 5.39313,3.69974 8.125,4.875 -2.37039,-6.89948 -2.44052,-16.85672 -1.28125,-25.40625 0.7831,-8.066 1.32629,-13.08075 8.6875,-18.5625 6.42148,-3.28905 4.63932,-20.663 5.1875,-31 0.0632,0.0553 0.15277,0.10501 0.21875,0.15625 -0.008,-0.0459 0.008,-0.11024 0,-0.15625 13.73591,-2.90054 6.08852,-13.88732 1.875,-24.4375 l -33.59375,-62.875 c -0.66383,-0.18427 -1.27494,-0.27218 -1.84375,-0.25 -0.0417,0.002 -0.0838,-0.003 -0.125,0 z"
       id="pathG"
       style="fill:#d6dde3"
       inkscape:connector-curvature="0" />
    <path
       d="M 168.90625,199.625 202.5,262.5 c 4.21352,10.55018 11.86091,21.53696 -1.875,24.4375 1.22437,7.3612 10.3286,13.76767 20.4375,12.90625 10.51471,-0.6776 18.16148,7.184 21.625,15.125 0.45746,-8.75698 1.52547,-17.44647 3.65625,-26.03125 1.35764,-4.24351 9.05137,-8.00316 2.65625,-13.65625 -25.89874,-28.51518 -50.86187,-50.93235 -78.875,-75.21875 -0.42571,-0.18465 -0.82773,-0.32896 -1.21875,-0.4375 z"
       id="pathH"
       style="fill:#608ab4"
       inkscape:connector-curvature="0" />
    <path
       d="m 200.40625,286.9375 c -0.54818,10.337 1.23398,27.71095 -5.1875,31 -7.36121,5.48175 -7.9044,10.4965 -8.6875,18.5625 -1.16083,8.56106 -1.09858,18.53699 1.28125,25.4375 2.42956,1.03841 4.91891,1.74207 7.5625,2.1875 4.44626,0.39814 7.24517,1.49751 16.625,-0.21875 8.21255,-0.9471 13.14404,-4.95804 22.53125,-6.375 5.12392,-1.00641 8.59202,-2.96181 8.3125,-10.78125 -0.39106,-10.67921 -0.7069,-21.28098 -0.15625,-31.78125 -3.46352,-7.941 -11.11029,-15.8026 -21.625,-15.125 -9.99044,0.85133 -19.01464,-5.40429 -20.40625,-12.65625 -0.003,-0.0143 0.003,-0.0169 0,-0.0312 -0.005,-0.004 0.005,-0.0268 0,-0.0312 -0.0763,-0.0664 -0.17505,-0.11714 -0.25,-0.1875 z"
       id="pathJ"
       style="fill:#236798"
       inkscape:connector-curvature="0" />
    <path
       d="m 338.46875,276.53125 c -0.86265,2.39216 -1.98114,4.52954 -2.9375,7.625 0.0411,28.18575 -3.83033,36.3045 -26.3125,58.125 -0.20231,0.0507 -6.63094,15.12605 -12.09375,19.0625 -9.21499,6.81242 -8.63968,12.98963 -12.0625,20.4375 -2.47712,3.76457 -5.89789,4.37113 -8.375,3.6875 -1.54662,-1.22101 -3.10963,-1.79977 -4.65625,-3.65625 -0.0978,3.04556 0.11447,5.81876 0.90625,8.25 0.0355,0.0719 0.0584,0.14683 0.0937,0.21875 0.003,0.01 -0.003,0.0217 0,0.0312 0.43389,0.88276 0.84072,1.77349 1.25,2.65625 0.0224,0.0359 0.0397,0.0581 0.0625,0.0937 0.004,0.008 -0.004,0.0228 0,0.0312 0.37182,0.5792 0.8005,1.13855 1.28125,1.65625 -0.14636,-0.039 -0.2896,-0.077 -0.4375,-0.125 9.43846,15.09215 22.76811,19.8126 39.875,13.875 9.2112,-4.01758 14.59632,-7.69594 20.3125,-12.03125 4.97223,-4.71629 10.88806,-13.57043 1.5625,-14.15625 -1.32869,-0.35167 -2.06854,-0.69578 -2.4375,-1.0625 -0.0134,-0.0139 -0.0501,-0.0485 -0.0625,-0.0625 -0.0355,-0.042 -0.0671,-0.11334 -0.0937,-0.15625 -0.0378,-0.0646 -0.0739,-0.15178 -0.0937,-0.21875 -0.004,-0.0149 -0.0281,-0.0474 -0.0312,-0.0625 -0.004,-0.0227 0.002,-0.0707 0,-0.0937 -0.002,-0.0231 2.1e-4,-0.0703 0,-0.0937 0.0185,-1.34464 2.57735,-3.26261 0.625,-7.15625 -1.33563,-5.95557 4.3405,-11.58637 8.40625,-13.09375 -2.79484,-6.11371 -5.61141,-12.23004 -8.40625,-18.34375 0.19315,-4.01451 8.09071,-6.13374 6.8125,-13.625 2.27953,-18.8442 5.36916,-46.81501 -3.1875,-51.8125 z"
       id="pathK"
       style="fill:#608ab4"
       inkscape:connector-curvature="0" />
    <path
       d="m 288.03125,202.3125 c -6.75503,1.81778 -14.92738,9.09865 -20.46875,22.625 -2.5304,5.33707 -5.01459,8.33537 -7.375,9.71875 0.23656,23.24892 5.75963,39.80063 17.1875,48.875 -3.3891,13.4505 -6.76776,31.99234 -0.625,43.21875 -10.37915,-3.28318 -6.14737,17.5845 -9.21875,26.375 -5.18958,14.61553 -9.75316,13.97909 -14.625,15.25 4.4482,5.08367 10.17132,10.47896 18.75,13.65625 10e-4,0.0166 -0.003,0.0459 0,0.0625 0.0174,0.075 0.078,0.17412 0.125,0.25 0.63926,0.97085 3.51671,2.028 4.90625,3.125 2.47711,0.68363 5.89788,0.0771 8.375,-3.6875 3.42282,-7.44787 2.84751,-13.62508 12.0625,-20.4375 5.33544,-3.84467 11.61619,-18.34238 12.09375,-19.0625 -18.23428,-10.24798 -26.85326,-29.77735 -23.90625,-48.59375 0.84727,-5.18956 4.24161,-11.00814 -0.3125,-19.375 -5.44577,-22.99329 -1.97762,-49.74506 3.03125,-72 z"
       id="pathL"
       style="fill:#236798"
       inkscape:connector-curvature="0" />
  </g>
  <rect
     width="307.08636"
     height="282.84271"
     x="-1468.5449"
     y="1313.1982"
     transform="matrix(0,-1.5425373,1.5425373,0,-418.68842,-205.12095)"
     clip-path="url(#clipPath5440)"
     id="rect3155"
     style="fill:#236798;fill-opacity:1;stroke:#236798;stroke-width:1;stroke-linejoin:round;stroke-miterlimit:4;stroke-opacity:1;stroke-dasharray:2, 1;stroke-dashoffset:0.5;display:inline" />
  <path
     style="fill:#000000;fill-opacity:1;stroke:#1d2d54;stroke-width:1.46199858;stroke-linecap:butt;stroke-linejoin:miter;stroke-miterlimit:4;stroke-opacity:1;stroke-dasharray:none"
     d="m 544.13567,577.16755 -5.12786,-5.12783 c 0,0 -5.91673,-2.76116 -1.57779,-7.49456 4.33895,-4.73339 7.88899,-5.91674 10.2557,-7.49454 2.3667,-1.57779 6.3112,-1.18335 7.49454,0.7889 1.18335,1.97225 3.55005,6.70564 3.55005,6.70564 0,0 0,1.18336 1.97225,-0.39444 1.97225,-1.5778 2.76115,-3.1556 4.73339,-3.55005 1.97226,-0.39445 7.1001,-1.5778 10.2557,-1.18335 3.1556,0.39445 12.22794,1.18335 14.59464,1.5778 2.3667,0.39445 10.25569,3.1556 11.04459,6.70564 0.7889,3.55005 1.5778,7.889 -3.1556,11.04459 -4.73339,3.1556 -13.80573,9.07235 -13.80573,9.07235 0,0 -2.76116,3.55004 0.39444,3.1556 3.1556,-0.39445 5.5223,1.18334 7.889,1.97225 2.36669,0.78889 5.52229,4.33894 5.52229,4.33894 0,0 2.76116,3.55005 2.76116,1.18336 0,-2.3667 -0.39446,-6.31121 0,-9.07236 0.39444,-2.76113 2.36669,-8.28344 3.55004,-13.80573 1.18336,-5.5223 2.3667,-9.07234 5.12784,-11.0446 2.76115,-1.97224 6.31119,-2.36669 7.889,-1.97224 1.57779,0.39444 5.12784,2.76114 5.12784,2.76114 l -2.36668,11.83349 -2.36671,-2.36669 c 0,0 -4.7334,-1.97226 -5.5223,0.39446 -0.7889,2.36668 -3.55003,10.25567 -3.9445,13.80573 -0.39444,3.55004 0,14.59464 0,14.59464 0,0 3.55007,0.39445 3.55007,1.97225 0,1.57778 1.57778,3.9445 0,5.12785 -1.57782,1.18335 -1.18336,3.94448 -3.1556,2.76113 -1.97226,-1.18335 -5.52231,-5.52228 -7.49456,-6.3112 -1.97224,-0.78888 -14.59463,-5.12784 -16.56689,-5.91673 -1.97224,-0.7889 -4.7334,-1.97224 -9.46678,-5.12784 -4.73342,-3.1556 -6.3112,-3.55006 -5.91676,-6.70566 0.39444,-3.1556 5.5223,-5.91673 7.889,-7.10009 2.3667,-1.18335 9.07234,-3.94448 11.04459,-5.91674 1.97225,-1.97226 3.1556,-5.12785 3.1556,-5.12785 0,0 -1.97225,-3.55005 -4.73339,-3.15559 -2.76116,0.39444 -9.4668,2.36669 -9.4668,2.36669 0,0 -1.18334,3.55005 -2.3667,0.7889 -1.18334,-2.76115 -0.7889,1.18335 -2.76116,2.76115 -1.97224,1.5778 -5.91674,4.73339 -7.88898,9.86124 -1.97225,5.12785 -5.5223,14.20019 -5.5223,17.35579 0,3.1556 -0.7889,3.1556 -0.39445,4.73339 0.39445,1.57781 3.9445,0.78891 3.1556,3.1556 -0.7889,2.3667 -1.18335,3.9445 -3.1556,3.15559 -1.97225,-0.78889 -7.1001,-4.33893 -8.28344,-6.31119 -1.18336,-1.97224 -1.5778,-2.76113 -1.5778,-2.76113 0,0 0.39444,-2.36671 3.1556,-7.889 2.76114,-5.52229 5.12784,-7.49455 5.12784,-11.0446 0,-3.55005 -1.97224,-7.1001 -1.97224,-8.28345 0,-1.18334 -0.7889,-4.73339 -2.3667,-5.52229 -1.5778,-0.78889 -5.52231,0.7889 -6.70566,2.36669 -1.18334,1.5778 -1.57779,4.33895 -1.57779,4.33895 z"
     id="path2997"
     inkscape:connector-curvature="0"
     sodipodi:nodetypes="ccssscsssssscsscssssscccsscssssssssscscsssssssscsssssc" />
  <path
     style="fill:#000000;fill-opacity:1;stroke:#1d2d54;stroke-width:1.46199858;stroke-linecap:butt;stroke-linejoin:miter;stroke-miterlimit:4;stroke-opacity:1;stroke-dasharray:none"
     d="m 577.66391,609.11798 c 6.31118,0 10.25568,1.57781 11.83348,3.15559 1.5778,1.57781 3.9445,4.73341 1.5778,4.73341 -2.3667,0 -6.3112,-3.1556 -9.86124,-2.76114 -3.55004,0.39443 -5.91674,1.5778 -5.91674,1.5778 l -1.5778,-1.97226 z"
     id="path3767"
     inkscape:connector-curvature="0" />
  <path
     style="fill:#000000;fill-opacity:1;stroke:#1d2d54;stroke-width:1.46199858;stroke-linecap:butt;stroke-linejoin:miter;stroke-miterlimit:4;stroke-opacity:1;stroke-dasharray:none"
     d="m 563.46371,558.23397 c 0,0 -3.55005,-2.76114 -5.91675,-5.12784 -2.3667,-2.3667 -4.33894,-7.1001 -4.33894,-7.1001 0,0 1.97224,-0.39445 4.33894,-2.3667 2.3667,-1.97224 3.55005,-5.52229 8.67789,-8.67789 5.12784,-3.1556 9.4668,-3.1556 11.8335,-3.1556 2.3667,0 12.22794,3.9445 12.22794,3.9445 0,0 7.88899,5.91675 9.86125,7.88899 1.97224,1.97225 4.33894,7.889 7.49454,7.889 3.1556,0 5.52229,0 5.52229,0 0,0 -4.7334,3.9445 -7.10009,3.1556 -2.3667,-0.7889 -5.5223,-5.12786 -8.28344,-7.1001 -2.76116,-1.97225 -8.6779,-6.70564 -11.83349,-6.70564 -3.1556,0 -14.2002,1.18334 -16.17246,3.55004 -1.97224,2.3667 -5.52228,7.49454 -5.52228,7.49454 z"
     id="path3769"
     inkscape:connector-curvature="0" />
  <path
     style="fill:#000000;fill-opacity:1;stroke:#1d2d54;stroke-width:1.46199858;stroke-linecap:butt;stroke-linejoin:miter;stroke-miterlimit:4;stroke-opacity:1;stroke-dasharray:none"
     d="m 620.65891,577.95645 c 0,0 3.1556,-3.55005 5.12786,-3.55005 1.97225,0 4.33893,-1.5778 5.12784,0.78892 0.7889,2.36668 1.18336,7.49453 0,12.22793 -1.18334,4.73339 -3.9445,12.62239 -6.31119,13.80574 -2.3667,1.18336 -3.1556,2.76115 -3.1556,2.76115 0,0 -0.78891,2.76115 1.18334,3.9445 1.97226,1.18334 4.33895,4.33893 6.70564,5.52228 2.36671,1.18335 4.33897,3.94452 5.12786,1.57782 0.7889,-2.3667 0.7889,-11.83349 1.18334,-15.77799 0.39446,-3.9445 2.76116,-13.01686 4.33896,-16.17245 1.5778,-3.1556 3.94448,-7.88898 6.3112,-7.88898 2.3667,0 5.52228,-1.18336 5.52228,-1.18336 0,0 3.9445,-4.33894 5.5223,-4.33894 1.5778,0 3.9445,-2.3667 5.5223,0 1.57779,2.3667 -1.5778,7.49453 -3.9445,7.88898 -2.3667,0.39445 -11.43904,6.3112 -13.41128,7.88899 -1.97226,1.5778 -3.55006,3.9445 -3.55006,5.12786 0,1.18335 1.97224,7.10009 3.94449,7.889 1.97227,0.7889 6.70565,6.31119 8.67791,6.31119 1.97224,0 9.07233,3.55004 12.22793,3.55004 3.1556,0 1.97226,3.1556 6.3112,5.5223 4.33895,2.3667 6.31119,5.12784 5.52229,1.97226 -0.7889,-3.1556 -3.94449,-6.3112 -3.94449,-6.3112 0,0 3.55005,-6.70566 4.33895,-9.4668 0.7889,-2.76115 2.3667,-7.49455 2.3667,-9.07234 0,-1.57781 0,-6.3112 0,-6.3112 0,0 1.18334,-2.3667 3.55004,0 2.3667,2.36669 5.91674,5.91675 5.12784,8.67789 -0.7889,2.76116 1.18336,4.33895 -1.18334,5.12786 -2.3667,0.7889 -6.3112,1.57779 -5.91674,3.9445 0.39444,2.36669 0,3.55003 2.76114,3.55003 2.76114,0 5.91674,0.39446 8.6779,-1.57779 2.76114,-1.97224 4.33894,-1.57781 5.12783,-6.3112 0.7889,-4.7334 0.7889,-9.86124 -1.18334,-11.8335 -1.97225,-1.97224 -7.88899,-9.46679 -10.25569,-10.65013 -2.3667,-1.18336 -7.1001,-4.33895 -9.07234,-3.9445 -1.97225,0.39446 -6.70565,4.7334 -7.1001,5.91674 -0.39445,1.18335 2.76115,7.88899 0.7889,14.98909 -1.97225,7.10009 -0.7889,12.22795 -7.49455,7.49455 -6.70564,-4.73339 -13.01683,-7.889 -7.88899,-13.01685 5.12785,-5.12784 10.65015,-2.76114 12.22795,-4.73339 1.57779,-1.97224 4.73339,-3.1556 3.15559,-7.10008 -1.5778,-3.94451 -2.76115,-9.07236 -5.52229,-11.43906 -2.76116,-2.36669 -7.49455,-3.55004 -11.04459,-3.15559 -3.55006,0.39445 -5.5223,2.76115 -5.5223,2.76115 0,0 0,-3.1556 -2.76114,-2.3667 -2.76116,0.7889 -7.49455,4.33894 -7.49455,4.33894 l -1.57781,1.97226 c 0,0 -1.18336,-1.97226 -2.76114,-4.33896 -1.5778,-2.36669 -3.94449,-7.49453 -9.07235,-2.76114 -5.12784,4.7334 -9.07234,6.3112 -9.07234,6.3112 z"
     id="path3771"
     inkscape:connector-curvature="0" />
  <path
     style="fill:#000000;fill-opacity:1;stroke:#1d2d54;stroke-width:1.46199858;stroke-linecap:butt;stroke-linejoin:miter;stroke-miterlimit:4;stroke-opacity:1;stroke-dasharray:none"
     d="m 630.91461,552.71167 c 0,0 0.39445,-7.49454 4.33895,-11.43903 3.9445,-3.9445 12.22794,-6.70564 17.75024,-5.91675 5.52229,0.78888 12.62239,3.55005 17.75023,8.6779 5.12785,5.12784 8.28345,7.49454 11.83349,8.28344 3.55004,0.7889 6.3112,-0.39446 6.3112,-0.39446 0,0 -1.5778,4.7334 -4.33896,5.12785 -2.76114,0.39445 -10.25568,1.5778 -13.80573,-2.36669 -3.55004,-3.9445 -7.88899,-5.91675 -9.86124,-7.49455 -1.97225,-1.5778 -8.28345,-3.55005 -11.04459,-2.76115 -2.76116,0.7889 -8.67789,3.1556 -8.28344,7.889 0.39444,4.73339 0.7889,8.28344 0.7889,8.28344 0,0 -2.3667,0 -5.12785,-2.3667 -2.76115,-2.3667 -6.3112,-5.5223 -6.3112,-5.5223 z"
     id="path3773"
     inkscape:connector-curvature="0"
     sodipodi:nodetypes="csssscssssscsc" />
  <path
     style="fill:#000000;fill-opacity:1;stroke:#1d2d54;stroke-width:1.46199858;stroke-linecap:butt;stroke-linejoin:miter;stroke-miterlimit:4;stroke-opacity:1;stroke-dasharray:none"
     d="m 695.99881,573.22306 c 0,0 10.25569,3.1556 13.01685,6.31119 2.76114,3.1556 3.94448,5.5223 7.49455,13.01684 3.55003,7.49455 4.33894,10.65016 8.28344,11.43905 3.94449,0.7889 9.46679,3.15558 13.41129,0 3.94449,-3.1556 6.70564,-10.2557 5.91674,-11.8335 -0.7889,-1.57779 1.18335,0 -6.3112,0.39445 -7.49454,0.39446 -13.01683,0.39446 -13.01683,0.39446 0,0 -3.9445,-1.97225 -1.97226,-4.7334 1.97226,-2.76116 4.33895,-6.70563 4.33895,-9.86123 0,-3.1556 -2.36669,-8.28346 -5.91676,-6.70566 -3.55003,1.5778 -8.28344,6.31119 -8.28344,6.31119 0,0 -5.52229,-2.76113 -6.31119,-4.33895 -0.78889,-1.57778 -3.94449,-7.49454 -3.94449,-7.49454 0,0 5.5223,-0.7889 10.65015,-1.5778 5.12784,-0.7889 13.41128,-2.76114 14.98908,-2.36669 1.5778,0.39445 2.76115,1.57779 2.76115,1.57779 0,0 -0.7889,0 3.9445,0 4.73339,0 8.67789,2.76116 10.25569,0.39446 1.5778,-2.3667 1.18335,-6.70565 -2.3667,-8.28345 -3.55005,-1.5778 -16.96134,-8.67789 -20.51139,-10.65014 -3.55005,-1.97224 -9.86123,-5.12784 -11.83349,-6.70564 -1.97225,-1.5778 -9.07234,-5.12785 -9.07234,-8.6779 0,-3.55004 1.97224,-7.10009 3.55005,-7.10009 1.57779,0 5.91674,4.33895 3.9445,5.5223 -1.97225,1.18334 -1.57781,0.7889 1.18335,3.55004 2.76113,2.76116 16.17243,9.86125 22.48362,12.22795 6.31121,2.36669 22.08918,9.86124 22.08918,12.22793 0,2.3667 4.7334,5.91675 0.7889,10.65014 -3.94448,4.7334 -11.83348,7.1001 -14.98908,5.5223 -3.15559,-1.5778 -5.91675,-3.55004 -5.91675,-3.55004 0,0 1.5778,1.57779 -0.39444,7.10008 -1.97225,5.52232 -5.91675,9.86125 0.7889,10.65016 6.70564,0.78889 12.22793,-3.94451 12.22793,-3.94451 0,0 2.76116,-0.39445 3.55006,4.33894 0.7889,4.73341 1.97224,11.43906 -0.7889,14.98909 -2.76116,3.55006 -5.91675,9.07236 -9.4668,11.0446 -3.55006,1.97226 -12.62239,3.1556 -14.59464,1.57779 -1.97224,-1.57779 -9.86125,-7.88898 -11.83349,-9.86123 -1.97225,-1.97226 -5.91674,-9.07235 -7.889,-12.6224 -1.97225,-3.55005 -3.94449,-7.88899 -5.52228,-10.25569 -1.57781,-2.3667 -4.73341,-8.67789 -4.73341,-8.67789 z"
     id="path3775"
     inkscape:connector-curvature="0" />
  <path
     style="fill:#000000;fill-opacity:1;stroke:#1d2d54;stroke-width:1.46199858;stroke-linecap:butt;stroke-linejoin:miter;stroke-miterlimit:4;stroke-opacity:1;stroke-dasharray:none"
     d="m 777.25545,592.55109 c 2.3667,8.28345 4.33895,12.62239 -1.97225,20.11695 -6.3112,7.49454 -11.83349,8.67788 -11.43904,6.70564 0.39445,-1.97224 5.91674,-6.70564 6.70564,-11.0446 0.7889,-4.33894 1.5778,-9.07233 -2.76114,-12.62239 -4.33895,-3.55005 -7.10009,-5.91673 -8.28345,-11.04459 -1.18334,-5.12785 1.18336,-12.62238 5.12785,-15.77798 3.9445,-3.1556 7.49454,-7.1001 13.01684,-5.12786 5.52229,1.97226 4.33895,8.28346 4.33895,11.43906 0,3.1556 -6.3112,5.91673 -9.07235,7.10008 -2.76114,1.18336 -2.76114,3.94449 -0.7889,5.5223 1.97226,1.57779 5.12785,4.73339 5.12785,4.73339 z"
     id="path3777"
     inkscape:connector-curvature="0" />
  <path
     style="fill:#000000;fill-opacity:1;stroke:#1d2d54;stroke-width:1.46199858;stroke-linecap:butt;stroke-linejoin:miter;stroke-miterlimit:4;stroke-opacity:1;stroke-dasharray:none"
     d="m 789.08893,568.48966 c 4.33896,-3.1556 5.08821,-4.43466 11.79386,-5.22356 6.70564,-0.7889 8.32309,-0.69318 8.71754,-1.48208 0.39445,-0.7889 0.7889,-0.39445 1.57779,1.97224 0.78891,2.3667 3.1556,7.1001 3.1556,7.1001 0,0 -4.33894,2.3667 -5.52229,7.10009 -1.18334,4.7334 -0.4423,2.17528 1.52994,4.14753 1.97225,1.97225 4.78126,4.53038 6.75351,3.34701 1.97224,-1.18334 4.7334,-0.39444 6.31119,1.97226 1.5778,2.36671 2.76115,2.36671 4.33895,-3.1556 1.5778,-5.5223 3.55004,-9.86125 3.15559,-11.43905 -0.39445,-1.57779 -3.94449,3.1556 -6.31119,1.18336 -2.3667,-1.97224 -5.91674,-2.3667 -6.3112,-4.7334 -0.39444,-2.3667 0,-1.97224 4.33896,-3.9445 4.33894,-1.97224 7.88898,-4.33894 10.65013,-0.39444 5.3135,3.318 3.9419,1.1866 7.889,-0.7889 3.9437,-1.97382 3.15559,-3.9445 6.31119,-2.76115 3.1556,1.18335 3.1556,4.73339 3.9445,8.28345 0.7889,3.55004 2.3667,5.5223 2.3667,5.5223 0,0 -5.12785,-4.73341 -8.6779,-3.1556 -3.55005,1.57778 -5.12785,3.55004 -5.12785,3.55004 0,0 0.7889,2.36669 -1.18334,5.91676 -1.97225,3.55003 -4.7334,11.83347 -6.3112,14.59463 -1.5778,2.76113 -3.36684,9.28358 -1.78904,10.86138 1.5778,1.5778 5.33909,4.52215 5.33909,4.52215 0,0 1.69333,2.39474 -1.85672,3.97254 -3.55005,1.5778 -6.70565,-0.32678 -9.46679,-2.69347 -2.76114,-2.36671 -5.24337,-10.3514 -3.66557,-12.71811 1.5778,-2.3667 1.36654,-4.73339 1.36654,-4.73339 0,0 -0.30209,-2.72554 -3.56986,-3.55005 -3.34424,-0.84381 -5.59626,3.0578 -7.67775,6.70565 -3.47451,6.08909 -5.45544,10.18863 -9.61038,5.55032 -4.48191,-5.00336 -10.67815,-8.98484 -11.0726,-10.56264 -0.39445,-1.57781 -0.99193,-0.50998 8.47486,-1.69333 3.46487,6.55888 10.61757,4.10009 6.3112,-1.97224 -3.92577,-5.53565 -5.52231,-1.03979 -6.3112,-4.19539 -0.78891,-3.1556 -3.69362,-3.18364 -0.14358,-8.31148 3.55006,-5.12785 5.66588,-9.00466 0.53803,-4.66572 -5.12785,4.33894 -3.36684,6.6578 -6.91688,2.7133 -3.55006,-3.9445 -3.33883,-6.84101 -3.33883,-6.84101 z"
     id="path3779"
     inkscape:connector-curvature="0"
     sodipodi:nodetypes="cssscssssssssscssscscssscssscsssscsssssc" />
  <g
     inkscape:groupmode="layer"
     id="layer1"
     inkscape:label="Layer_text"
     transform="translate(19.661016,31.949154)" />
  <flowRoot
     xml:space="preserve"
     id="flowRoot3882"
     style="font-size:40px;font-style:normal;font-variant:normal;font-weight:normal;font-stretch:normal;line-height:125%;letter-spacing:0px;word-spacing:0px;fill:#000000;fill-opacity:1;stroke:none;font-family:Arial Unicode MS;-inkscape-font-specification:Arial Unicode MS"
     transform="translate(19.661016,31.949154)"><flowRegion
       id="flowRegion3884"><rect
         id="rect3886"
         width="305.85364"
         height="106.0061"
         x="538.71948"
         y="176.82928" /></flowRegion><flowPara
       id="flowPara3888" /></flowRoot>  <image
     y="1460.3607"
     x="-370.48386"
     id="image3925"
     xlink:href="file:///G:/canono_cam/wiki_uts_kalpurush.jpg"
     height="454.40985"
     width="1132.4746"
     style="fill:#000000;fill-opacity:1" />
  <rect
     style="fill:none;stroke:none"
     id="rect3930"
     width="508.72882"
     height="629.15253"
     x="-4.9152546"
     y="17.203388" />
  <rect
     style="fill:none;stroke:none"
     id="rect3932"
     width="496.44067"
     height="670.93219"
     x="0"
     y="0" />
  <flowRoot
     xml:space="preserve"
     id="flowRoot3936"
     style="fill:black;stroke:none;stroke-opacity:1;stroke-width:1px;stroke-linejoin:miter;stroke-linecap:butt;fill-opacity:1;font-family:Arial Unicode MS;font-style:normal;font-weight:normal;font-size:40px;line-height:125%;letter-spacing:0px;word-spacing:0px;-inkscape-font-specification:Arial Unicode MS;font-stretch:normal;font-variant:normal"><flowRegion
       id="flowRegion3938"><rect
         id="rect3940"
         width="1243.5593"
         height="422.71185"
         x="-1425.4237"
         y="-351.4407" /></flowRegion><flowPara
       id="flowPara3942"></flowPara></flowRoot>  <path
     style="fill:#000000;fill-opacity:1;stroke:#000000;stroke-width:1.20000005;stroke-linecap:butt;stroke-linejoin:miter;stroke-miterlimit:4;stroke-opacity:1;stroke-dasharray:none"
     d="m 417.36419,815.5122 0.42554,-60.4259 10.21282,0 -6.38302,-6.38301 -60.85142,0 c 0,0 3.82981,5.53195 7.65962,7.65962 3.82981,2.12768 14.04264,3.82981 17.02138,6.80855 2.97874,2.97875 5.95748,9.36176 3.82981,11.91497 -2.12767,2.55321 -7.65962,9.78729 -7.65962,9.78729 0,0 -5.10641,3.8298 -8.93623,-5.10641 l -3.40427,1.2766 c 0,0 3.8298,8.51069 7.65962,10.21283 3.82981,1.70213 4.68088,2.97876 8.51069,1.2766 3.82981,-1.70214 6.80855,-8.51068 8.51069,-10.21282 1.70214,-1.70214 4.68088,-6.80855 5.95748,-7.65963 1.27661,-0.85107 3.40427,-0.85107 6.38302,1.70214 2.97874,2.55321 4.68087,7.23409 5.10641,8.93622 0.42554,1.70214 0.42554,23.82993 0.42554,23.82993 z"
     id="path3952"
     inkscape:connector-curvature="0"
     sodipodi:nodetypes="cccccssscc" />
  <path
     style="fill:#fcffff;fill-opacity:1;stroke:#000000;stroke-width:1.20000005;stroke-linecap:butt;stroke-linejoin:miter;stroke-miterlimit:4;stroke-opacity:1;stroke-dasharray:none"
     d="m 385.02357,754.66077 c 27.23421,0 26.38314,0.42553 26.38314,0.42553 l 0.42554,19.14906 c 0,0 -2.55321,-2.97874 -6.38302,-5.95749 -3.82981,-2.97873 -5.53195,-2.97873 -8.93623,-0.42553 -3.40427,2.55321 -2.12767,4.25535 -4.25534,-1.2766 -2.12768,-5.53195 -3.40428,-8.51069 -7.23409,-11.91497 z"
     id="path3954"
     inkscape:connector-curvature="0" />
  <path
     style="fill:#000000;fill-opacity:1;stroke:#000000;stroke-width:1.20000005;stroke-linecap:butt;stroke-linejoin:miter;stroke-miterlimit:4;stroke-opacity:1;stroke-dasharray:none"
     d="m 363.74685,810.83133 c 0,-7.65964 2.5532,-8.93623 -2.12768,-14.04265 -4.68087,-5.10641 -5.53194,-7.23409 -16.59584,-12.76601 -11.06389,-5.53196 -18.29798,-4.6809 -19.14905,-13.19159 -0.85107,-8.51067 3.82981,-12.34051 3.82981,-12.34051 0,0 0,4.6809 2.55321,8.08517 2.55321,3.40428 5.10641,5.95749 9.78729,6.38302 4.68089,0.42553 5.10642,0 9.36176,-3.40427 4.25534,-3.40428 1.70214,-6.80855 2.5532,-8.51071 0.85107,-1.70212 -4.68087,-14.89367 -14.04263,-14.04261 -9.36176,0.85106 -10.21283,1.27659 -15.31924,7.6596 -5.48021,6.85028 -5.53195,21.27673 0.42553,26.38316 5.95749,5.10639 20.85119,11.4894 24.25547,13.19157 3.40428,1.70212 9.36176,6.38302 9.78729,8.51066 0.42554,2.12768 1.70213,2.12768 0.85106,4.25537 -0.85106,2.12765 3.82982,3.8298 3.82982,3.8298 z"
     id="path3958"
     inkscape:connector-curvature="0"
     sodipodi:nodetypes="cssscssssssssssc" />
  <path
     style="fill:#ffffff;fill-opacity:1;stroke:#000000;stroke-width:1.20000005;stroke-linecap:butt;stroke-linejoin:miter;stroke-miterlimit:4;stroke-opacity:1;stroke-dasharray:none"
     d="m 336.08711,756.36291 c 6.80855,-3.82981 12.3405,0 11.91496,5.10641 -0.42553,5.10642 -6.38302,4.25535 -9.78729,2.12768 -3.40427,-2.12768 -2.12767,-8.08516 -2.12767,-7.23409 z"
     id="path3960"
     inkscape:connector-curvature="0"
     sodipodi:nodetypes="cssc" />
  <path
     style="fill:#000000;fill-opacity:1;stroke:#000000;stroke-width:1.20000005;stroke-linecap:butt;stroke-linejoin:miter;stroke-miterlimit:4;stroke-opacity:1;stroke-dasharray:none"
     d="m 285.87405,754.66077 0,20.42566 c 0,0 0,5.10641 4.68088,2.55321 4.68087,-2.55321 7.65962,-3.82982 8.08515,-6.80855 0.42553,-2.97875 0,-4.25535 1.70213,-3.82982 1.70215,0.42554 5.53195,2.12768 6.80856,3.82982 1.2766,1.70213 4.25534,9.78729 4.25534,12.3405 0,2.5532 2.12767,9.36175 -2.5532,15.31924 -4.68088,5.95748 -13.19157,9.78729 -15.74478,9.78729 -2.5532,0 -12.3405,-1.27659 -16.17031,-5.10643 -3.82981,-3.8298 -8.51069,-7.6596 -11.48943,-19.14903 -2.97874,-11.48944 -3.8298,-20.42566 -3.40427,-22.55334 0.42553,-2.12766 3.40427,0.42554 3.40427,0.42554 0,0 -1.70214,9.36176 2.12768,17.44691 3.8298,8.08516 9.67067,15.09365 16.1703,18.298 7.34171,3.61949 14.51701,3.0764 18.72352,-2.12768 4.17853,-5.16946 4.68088,-3.40429 4.68088,-10.21284 0,-6.80854 -2.55321,-9.78728 -2.55321,-9.78728 0,0 -2.97874,5.10641 -8.93622,8.08515 -5.95749,2.97874 -9.36176,3.82981 -13.19157,-1.2766 -3.82981,-5.10642 -2.97874,-27.65975 -2.97874,-27.65975 l -26.80867,0 0.42553,-5.95748 47.23432,0 c 0,0 5.10642,2.97875 2.55321,-2.12767 -2.55321,-5.10641 -1.70214,-5.95748 -13.6171,-5.95748 -11.91496,0 -17.87245,0.85107 -24.25546,-2.97874 -6.38302,-3.82981 -6.38302,-2.97874 -7.23409,-9.36176 -0.78736,-5.90522 2.55321,-7.23409 2.55321,-7.23409 0,0 -1.2766,2.12768 0.42553,6.80856 1.70214,4.68088 10.21283,5.53194 16.59585,5.53194 6.38301,0 11.06389,-1.70214 15.74477,-0.85106 4.68088,0.85106 9.36176,2.55321 11.0639,5.53194 1.70213,2.97875 3.40427,9.7873 3.40427,9.7873 l -1.27661,1.27659 6.80856,-0.42553 5.53195,5.95748 z"
     id="path3962"
     inkscape:connector-curvature="0"
     sodipodi:nodetypes="ccsssssssssscsssscssccccsssscssssccccc" />
  <path
     style="fill:#000000;fill-opacity:1;stroke:#000000;stroke-width:1.20000005;stroke-linecap:butt;stroke-linejoin:miter;stroke-miterlimit:4;stroke-opacity:1;stroke-dasharray:none"
     d="m 103.7453,813.38455 0,-59.14931 46.38326,0.85106 -0.42554,4.25536 c 0,0 -35.71342,15.13316 -34.4683,17.87244 2.12768,4.68088 1.9992,8.77787 6.38302,9.36176 12.14334,1.61739 30.57002,15.52467 32.76616,28.51081 1.3388,7.91655 2.12767,-60.4259 2.12767,-60.4259 l 5.53195,0 0,-6.38301 -59.57482,0 c 0,0 -2.823183,-1.95061 0,-10.21283 3.92084,-11.4746 10.27259,-8.76549 15.74477,-9.78729 6.38237,-1.19174 10.21282,-0.42553 17.02137,3.40427 4.46606,2.51216 13.61711,11.48943 13.61711,11.48943 l -9.78729,-14.46816 c 0,0 -7.65962,-7.65963 -16.59585,-8.08516 -8.93622,-0.42554 -18.72351,2.97874 -22.978853,7.23409 -4.25534,4.25534 -8.51069,12.3405 -5.53195,15.74477 2.97874,3.40428 3.82981,5.53194 3.82981,5.53194 l -14.04264,0 5.10642,5.53195 8.51068,0 -0.42553,54.46841 z"
     id="path3964"
     inkscape:connector-curvature="0"
     sodipodi:nodetypes="ccccsssccccsssccssscccccc" />
  <path
     style="fill:#000000;fill-opacity:1;stroke:#000000;stroke-width:1.20000005;stroke-linecap:butt;stroke-linejoin:miter;stroke-miterlimit:4;stroke-opacity:1;stroke-dasharray:none"
     d="m 230.55457,754.7852 17.44691,0 -0.42554,-6.38302 -71.48978,0 c 0,0 -5.95748,-3.82983 0,-10.21285 5.95748,-6.38302 10.21282,-9.78729 15.74477,-9.78729 5.53195,0 16.59584,0 20.42566,3.40427 3.8298,3.40427 11.06389,8.93623 11.06389,8.93623 l -4.25534,-6.80855 c 0,0 -14.04264,-12.76603 -22.97887,-13.19156 -8.93622,-0.42553 -18.72351,2.97875 -22.97886,7.23408 -4.25534,4.25533 -8.51068,12.3405 -5.53194,15.74478 2.97874,3.40426 3.8298,5.53195 3.8298,5.53195 l -14.04263,0 5.10641,5.53196 8.51069,0 -0.42553,54.4684 6.80855,4.25537 0,-59.14934 46.38326,0.8511 -0.42554,4.25533 c 0,0 -35.71341,15.13317 -34.46829,17.87245 2.12767,4.68087 1.99919,8.77787 6.38301,9.36177 12.14334,1.61737 30.57002,15.52467 32.76616,28.51081 1.3388,7.91656 0.85107,-48.08539 0.85107,-48.08539 0,0 1.2766,-0.12443 2.97874,-0.12443 1.70213,0 3.40428,1.2766 7.23408,3.40428 3.82982,2.12767 3.82982,3.40427 5.95748,10.21283 2.12768,6.80855 -0.85107,5.10641 -0.85107,5.10641 l -1.27659,-2.97874 c 0,0 -3.82982,-1.70214 -5.95748,-2.12767 -2.12768,-0.42554 -3.82982,4.68087 -4.25535,8.08516 -0.42554,3.40426 7.23408,6.80855 10.21283,5.10639 2.97874,-1.70213 7.65961,-6.80853 6.80855,-11.91495 -0.85107,-5.10641 -5.95749,-16.59584 -14.46817,-21.27673 -4.55134,-2.50323 -5.53195,-0.85106 -5.53195,-0.85106 0,0 0.42553,0 0.85107,-4.98199 z"
     id="path3964-1"
     inkscape:connector-curvature="0"
     sodipodi:nodetypes="ccccsssccssscccccccccssscsssccssssscc" />
  <path
     style="fill:#ffffff;fill-opacity:1;stroke:#000000;stroke-width:1.20000005;stroke-linecap:butt;stroke-linejoin:miter;stroke-miterlimit:4;stroke-opacity:1;stroke-dasharray:none"
     d="m 223.32048,766.57574 -1.2766,31.48956 c 0,0 -9.36176,-12.34051 -12.76604,-14.46818 -3.40427,-2.12767 -8.93622,-5.10641 -8.93622,-5.10641 0,0 5.95749,-3.40428 11.0639,-6.38302 5.10641,-2.97874 11.91496,-5.53195 11.91496,-5.53195 z"
     id="path3984"
     inkscape:connector-curvature="0"
     sodipodi:nodetypes="ccscsc" />
  <path
     style="fill:#ffffff;fill-opacity:1;stroke:#000000;stroke-width:1.20000005;stroke-linecap:butt;stroke-linejoin:miter;stroke-miterlimit:4;stroke-opacity:1;stroke-dasharray:none"
     d="m 150.12856,767.00127 -1.27661,31.48956 c 0,0 -9.36175,-12.34051 -12.76603,-14.46819 -3.40428,-2.12765 -8.93622,-5.1064 -8.93622,-5.1064 0,0 5.95748,-3.40427 11.06389,-6.38301 5.10641,-2.97874 11.91497,-5.53196 11.91497,-5.53196 z"
     id="path3984-7"
     inkscape:connector-curvature="0"
     sodipodi:nodetypes="ccscsc" />
  <path
     style="fill:#000000;fill-opacity:1;stroke:#000000;stroke-width:1px;stroke-linecap:butt;stroke-linejoin:miter;stroke-opacity:1"
     d="m 125.33898,797.49998 c 0,0 12.28814,4.91526 17.20339,11.05933 4.91526,6.14406 -2.45763,-1.22882 -11.05932,-2.45763 -8.6017,-1.22882 -8.6017,-1.22882 -8.6017,-1.22882 z"
     id="path4004"
     inkscape:connector-curvature="0" />
  <image
     y="196.50845"
     x="-407.72034"
     id="image4014"
     xlink:href="file:///G:/canono_cam/wiki_uts_kalpurush.jpg"
     height="128"
     width="319" />
  <path
     style="fill:#000000"
     d="m -439.66949,648.81353 0,-64 159.5,0 159.5,0 0,64 0,64 -159.5,0 -159.5,0 0,-64 z m 82,7.89301 0,-23.89301 6,0 6,0 0,22.4433 c 0,22.05864 0.0381,22.46997 2.22251,24 4.73994,3.31998 4.77749,3.14357 4.77749,-22.4433 l 0,-24 16.5,0 c 10.66806,0 16.5,0.36454 16.5,1.03138 0,0.56727 -0.7875,1.29427 -1.75,1.61556 -8.97324,2.9954 -25.25,12.51668 -25.25,14.7703 0,1.85367 6.95076,9.58276 8.61776,9.58276 5.02576,0 14.55748,8.32377 19.82558,17.3131 4.98977,8.51441 5.55666,7.00319 5.55666,-14.8131 0,-12.94837 0.35267,-19.5 1.04966,-19.5 3.61384,0 8.49256,4.48484 10.33434,9.5 0.58929,1.60462 0.48555,1.75289 -0.52475,0.75 -3.22683,-3.20314 -9.85925,0.32859 -9.85925,5.25 0,4.88038 6.01404,7.96679 11.4552,5.87882 2.3293,-0.89384 4.5448,-5.70102 4.5448,-9.86128 0,-8.64675 -8.16554,-19.49133 -14.69098,-19.51095 -1.20504,-0.004 -2.4691,-0.45659 -2.80902,-1.00659 -0.40437,-0.65428 6.48962,-1 19.94098,-1 l 20.55902,0 0,10.07692 c 0,9.80432 0.0791,10.156 2.92308,13 1.60769,1.60769 3.88004,2.92308 5.04966,2.92308 2.85389,0 7.00003,-2.24558 9.92262,-5.37417 2.81005,-3.00811 4.10464,-2.59862 4.10464,1.29833 0,7.92729 -11.23541,13.59107 -18.99797,9.57689 -5.77124,-2.98443 -9.23878,-9.2129 -11.97014,-21.50105 -1.40378,-6.31552 -2.01174,-7.55047 -3.84948,-7.81955 -2.68674,-0.3934 -2.81717,1.67123 -0.73185,11.58452 4.25247,20.21554 11.5258,29.23822 23.54944,29.21346 9.71458,-0.02 16.26416,-5.57561 18.07708,-15.33368 1.56842,-8.442 -3.21846,-19.64475 -8.39409,-19.64475 -1.22783,0 -3.73334,1.74394 -5.88095,4.09339 -2.05795,2.25136 -4.31779,3.90274 -5.02188,3.66974 -0.85601,-0.28327 -1.37693,-2.96484 -1.57222,-8.09338 l -0.29207,-7.66975 13.04207,0 c 13.96082,0 14.77162,-0.34701 11.0985,-4.75 -1.03236,-1.2375 -2.74616,-2.25 -3.80844,-2.25 -1.37086,0 -2.26272,-1.10576 -3.07289,-3.80989 -0.62781,-2.09543 -2.30927,-4.90793 -3.73657,-6.25 -2.42375,-2.279 -3.49776,-2.47312 -16.26681,-2.94011 -7.51945,-0.275 -14.27956,-0.89208 -15.02247,-1.37128 -0.87877,-0.56683 -1.14691,-1.89047 -0.76739,-3.78806 0.41323,-2.06614 0.14726,-3.08412 -0.91199,-3.49059 -4.33255,-1.66256 -6.16388,7.22664 -2.45913,11.93647 3.40212,4.32509 9.72132,6.07448 19.69484,5.45225 9.24796,-0.57696 13.29441,0.25876 13.29441,2.74571 0,1.36175 -5.64233,1.50489 -50.25,1.27475 l -50.25,-0.25925 -0.30338,-3.11619 c -0.24288,-2.49475 0.35539,-3.67166 3,-5.90154 8.86048,-7.47099 17.55999,-7.31716 29.69342,0.52506 3.39759,2.19597 6.61226,3.99267 7.1437,3.99267 2.30048,0 0.61519,-3.14229 -3.78374,-7.05494 -10.24695,-9.11421 -24.39837,-12.4721 -33.66232,-7.9875 -8.75669,4.23904 -12.83255,11.97934 -9.54385,18.12433 1.02469,1.91466 0.54351,1.94553 -26.25,1.68426 l -27.29383,-0.26615 -0.30338,-3.11619 c -0.24288,-2.49475 0.35539,-3.67166 3,-5.90154 8.86048,-7.47099 17.55999,-7.31716 29.69342,0.52506 3.39759,2.19597 6.61226,3.99267 7.1437,3.99267 2.30048,0 0.61519,-3.14229 -3.78374,-7.05494 -10.24695,-9.11421 -24.39837,-12.4721 -33.66232,-7.9875 -8.74677,4.23423 -12.83252,11.97939 -9.5525,18.10818 0.95273,1.78018 0.67393,1.93426 -3.5,1.93426 -5.11344,0 -5.6892,1.14269 -2.36087,4.68555 1.42745,1.51945 3.31667,2.31445 5.5,2.31445 l 3.32569,0 0,22.4433 c 0,22.05864 0.0381,22.46997 2.22251,24 4.73994,3.31998 4.77749,3.14357 4.77749,-22.4433 l 0,-24 17.5,0 c 9.625,0 17.5,0.36148 17.5,0.80329 0,0.44181 -3.4875,2.2396 -7.75,3.99509 -9.53509,3.92698 -20.25,10.62729 -20.25,12.66286 0,1.96149 5.17826,9.45143 6.5685,9.50081 0.58767,0.0209 3.42497,0.73775 6.3051,1.59305 6.23159,1.85059 11.28667,6.52336 15.89974,14.69728 2.26527,4.01383 3.65581,5.52017 4.71913,5.11214 1.28517,-0.49317 1.50753,-4.10271 1.50753,-24.47151 z m -45.75,18.95803 c -0.92352,-0.92428 -1.25,-6.94493 -1.25,-23.05104 l 0,-21.8 -3.37755,0 c -1.85766,0 -3.93571,-0.67253 -4.6179,-1.49452 -1.09863,-1.32376 8.79853,-1.5237 86.62756,-1.75 l 87.86789,-0.25548 0.31038,-2.68738 c 0.53809,-4.65897 -2.82448,-5.89951 -15.46469,-5.70531 -11.4184,0.17543 -15.31084,-0.83714 -18.41852,-4.79137 -1.33017,-1.69252 -1.29767,-1.71399 0.47817,-0.31594 1.46467,1.15308 4.81823,1.5 14.5,1.5 8.28495,0 13.34703,0.43038 14.79338,1.25774 3.14227,1.79748 5.30128,5.24486 5.30128,8.46477 0,2.25784 0.44482,2.77749 2.37756,2.77749 1.30765,0 2.93775,0.675 3.62244,1.5 1.09492,1.3193 -0.21543,1.5 -10.87756,1.5 l -12.12244,0 0,9.37755 c 0,7.07926 0.36444,9.68002 1.48701,10.61167 2.33541,1.93821 6.13366,0.36553 9.63257,-3.9884 3.36299,-4.18479 4.66237,-4.14528 6.99467,0.21267 0.88332,1.65048 0.78332,1.73949 -0.82552,0.73475 -1.55867,-0.97341 -2.51351,-0.4603 -6.42808,3.45427 -5.14269,5.14269 -8.41149,5.85467 -11.45566,2.49519 -1.55901,-1.72049 -1.96693,-3.9907 -2.24601,-12.5 l -0.34103,-10.3977 -22.40897,0 -22.40898,0 0,3 c 0,2.35756 0.43893,3 2.04966,3 2.86239,0 6.99888,2.31276 9.95034,5.56335 l 2.5,2.75337 -3,-2.10441 c -1.65,-1.15743 -4.6875,-2.40377 -6.75,-2.76965 l -3.75,-0.66524 -0.005,18.86129 -0.005,18.86129 -2.42994,-4 c -1.33648,-2.2 -2.00917,-4.15 -1.49488,-4.33333 0.51962,-0.18533 0.93482,-6.56822 0.93482,-14.375 l 0,-14.04167 -3.15452,0.6309 c -4.01022,0.80205 -16.84548,8.67201 -16.84548,10.32884 0,0.68728 1.6875,2.12162 3.75,3.18741 2.0625,1.0658 5.775,4.06827 8.25,6.67217 l 4.5,4.73436 -4.89416,-3.65212 c -2.69179,-2.00866 -6.60517,-4.11284 -8.69639,-4.67594 -2.29713,-0.61856 -4.79913,-2.29765 -6.32065,-4.24178 l -2.51842,-3.21795 6.71481,-4.24567 c 3.69315,-2.33513 9.52731,-5.25968 12.96481,-6.49901 5.92718,-2.13694 6.25,-2.42165 6.25,-5.51227 l 0,-3.25894 -18.5,0 -18.5,0 0,23.12245 c 0,20.4399 -0.17402,22.97801 -1.5,21.87755 -1.24969,-1.03715 -1.5,-4.89568 -1.5,-23.12245 l 0,-21.87755 -8.5,0 -8.5,0 0,22.22251 c 0,21.13813 -0.0824,22.10491 -1.68793,19.81264 -1.19709,-1.70908 -1.34249,-2.52501 -0.5,-2.80584 1.61982,-0.53994 1.67854,-27.80806 0.062,-28.80712 -1.61545,-0.9984 -20.30204,8.71782 -20.68045,10.75294 -0.20021,1.07677 0.87048,2.23872 2.99743,3.25293 1.8199,0.86778 4.65891,2.69978 6.30891,4.0711 l 3,2.49331 -4.5,-1.97427 c -2.475,-1.08585 -5.4896,-1.98416 -6.69911,-1.99624 -1.32576,-0.0132 -3.2696,-1.42545 -4.89462,-3.55597 -2.61654,-3.43045 -2.64001,-3.57754 -0.80089,-5.01997 2.65781,-2.08455 23.56911,-12.44602 25.1183,-12.44602 0.75147,0 1.27632,-1.23367 1.27632,-3 l 0,-3 -19.98157,0 -19.98157,0 -0.26843,23.05104 c -0.21475,18.4415 -0.51839,22.80087 -1.51843,21.8 z m 150.39255,-2.84803 c -3.48062,-1.08107 -6.03757,-3.27602 -9.78895,-8.40305 -3.57841,-4.89065 -3.74957,-6.81821 -0.23448,-2.64077 3.75769,4.46576 7.45917,6.04081 14.19636,6.04081 8.27627,0 13.24724,-3.80112 15.03927,-11.5 l 0.93107,-4 0.10709,3.93428 c 0.2955,10.85582 -10.41895,19.62232 -20.25036,16.56873 z M -368.16949,660.7494 c -1.65,-1.7626 -4.94274,-4.45754 -7.31721,-5.98876 l -4.3172,-2.78403 4.3172,-2.50847 c 5.95836,-3.46205 9.72661,-5.07855 10.36065,-4.44451 0.29424,0.29425 0.40484,4.67398 0.24577,9.73274 l -0.28921,9.19775 -3,-3.20472 z m 60.2399,-0.20279 c -0.96806,-1.48146 -4.04587,-4.23288 -6.83959,-6.11428 l -5.07948,-3.42072 6.64128,-3.71401 c 3.6527,-2.04271 6.86066,-3.49463 7.1288,-3.2265 0.26813,0.26814 0.35737,4.69087 0.1983,9.82829 -0.28824,9.30943 -0.29512,9.33173 -2.04931,6.64722 z m 14.91509,0.43818 c -4.80083,-5.30486 1.62078,-7.98552 8.26562,-3.45044 0.72362,0.49387 -4.20741,5.27918 -5.43994,5.27918 -0.64388,0 -1.91544,-0.82293 -2.82568,-1.82874 z m -114.64469,-39.65886 c -2.16232,-2.60543 1.314,-8.22121 7.41524,-11.97885 3.98074,-2.45166 5.99483,-3.02519 10.5,-2.98995 3.06595,0.024 6.397,0.51148 7.40234,1.08333 1.42451,0.8103 0.54183,1.04157 -4,1.04805 -8.96322,0.0128 -17.40043,5.21043 -19.16434,11.80592 -0.67542,2.52548 -0.84567,2.60704 -2.15324,1.0315 z m 61,0 c -2.16233,-2.60543 1.314,-8.22121 7.41524,-11.97885 3.98074,-2.45166 5.99483,-3.02519 10.5,-2.98995 3.06595,0.024 6.397,0.51148 7.40234,1.08333 1.42451,0.8103 0.54183,1.04157 -4,1.04805 -8.96322,0.0128 -17.40043,5.21043 -19.16434,11.80592 -0.67542,2.52548 -0.84567,2.60704 -2.15324,1.0315 z m 201.9897,35.9876 0,-24.5 4,0 c 4.56527,0 5.05259,-1.25067 1.82569,-4.68555 -2.16393,-2.30339 -2.29769,-2.31445 -28,-2.31445 -28.96237,0 -29.10027,0.0412 -21.60254,6.45901 2.50673,2.14567 6.46944,4.24419 9.75,5.16327 9.65753,2.70567 11.27958,6.92258 5.41548,14.07893 -3.45359,4.21466 -3.69387,4.33253 -5.5,2.69801 -1.03874,-0.94006 -1.88863,-2.34745 -1.88863,-3.12753 0,-1.90402 -3.00931,-1.21523 -4.39282,1.00546 -1.55335,2.49331 2.07684,8.64572 6.56655,11.12895 4.8938,2.70673 8.18355,1.5878 12.11762,-4.1215 6.14772,-8.92185 8.09296,-10.68447 10.41813,-9.44008 3.1622,1.69236 4.55354,6.67955 4.81484,17.25868 0.24398,9.87752 1.95922,14.8968 5.09069,14.8968 1.1423,0 1.38499,-4.29311 1.38499,-24.5 z m -3.1877,18.5 c -0.37823,-0.825 -0.84006,-6.01106 -1.02629,-11.52457 -0.42325,-12.53095 -2.38696,-16.80595 -7.93611,-17.27692 -3.81661,-0.32393 -5.80056,1.42083 -12.16475,10.69817 -2.98082,4.34524 -5.69694,5.16942 -8.93515,2.71127 -2.39765,-1.82007 -2.19458,-2.60795 0.67219,-2.60795 1.65156,0 3.71754,-1.51126 6.49355,-4.75 2.23924,-2.6125 4.07425,-5.26002 4.0778,-5.88337 0.004,-0.62335 0.79396,-1.3943 1.75646,-1.71321 0.9625,-0.31892 2.72673,-1.30254 3.92052,-2.18583 2.06388,-1.52709 2.36463,-1.43063 6.1212,1.96321 2.17288,1.96306 4.45864,3.5692 5.07948,3.5692 0.75478,0 1.1288,-2.98205 1.1288,-9 l 0,-9 -12.5,0 c -13.69373,0 -14.423,0.38338 -9.83616,5.17101 l 2.66384,2.78045 -3.87528,-1.97573 c -2.13141,-1.08665 -4.47306,-1.97573 -5.20368,-1.97573 -1.92646,0 -8.66159,-3.58762 -10.18806,-5.42691 -1.18101,-1.42303 0.88845,-1.57309 21.69445,-1.57309 19.22449,0 23.20435,0.24623 24.24489,1.5 1.0611,1.27854 0.78662,1.5 -1.85912,1.5 l -3.10402,0 -0.26843,23.25 c -0.14764,12.7875 -0.57789,22.575 -0.95613,21.75 z m -6.67308,-34.03327 c -2.557,-2.13019 -7.60682,-2.63719 -8.69704,-0.87317 -0.54015,0.87398 -5.44218,-6.05784 -5.44218,-7.69563 0,-0.21886 3.825,-0.39793 8.5,-0.39793 l 8.5,0 0,5.5 c 0,3.025 -0.1125,5.48503 -0.25,5.46673 -0.1375,-0.0183 -1.31235,-0.9183 -2.61078,-2 z m -212.13922,35.96108 c 0,-4.64011 -15.34921,-15.9786 -18.01793,-13.30988 -2.03866,2.03866 -0.0363,6.20905 3.54928,7.39242 1.83557,0.60579 5.27483,2.82076 7.6428,4.92215 4.41889,3.92142 6.82585,4.27239 6.82585,0.99531 z m -13.25,-8.22723 c -1.5125,-0.59767 -2.75,-1.46135 -2.75,-1.9193 0,-0.45795 1.35,-0.13453 3,0.71872 1.65,0.85325 3,1.7648 3,2.02568 0,0.26088 -0.1125,0.42645 -0.25,0.36794 -0.1375,-0.0585 -1.4875,-0.59538 -3,-1.19304 z m 191.92881,8.69404 c 0.97349,-2.53688 -1.4973,-11.46786 -4.12615,-14.91446 -1.43335,-1.87923 -6.45529,-5.27453 -12.50853,-8.45696 -11.02318,-5.79532 -15.04413,-9.5639 -15.04413,-14.09993 0,-3.75522 1.25231,-3.74247 2.67522,0.0272 1.42227,3.76803 6.77314,7.04095 11.51902,7.04575 5.10732,0.005 8.77029,-3.3129 9.47743,-8.58507 2.09257,-15.60123 -20.68664,-20.02413 -28.34665,-5.50391 -2.70735,5.13202 -2.94488,9.67343 -0.77729,14.86119 2.43953,5.83863 5.15071,8.03661 17.67546,14.32972 12.23553,6.14778 15.48219,9.10399 14.25273,12.97769 -1.08618,3.42222 3.92282,5.65455 5.20289,2.31875 z m -7.17881,-12.0207 c -1.1,-0.85936 -6.62328,-3.78883 -12.27396,-6.50993 -12.47894,-6.00928 -16.30584,-10.23148 -16.10087,-17.76403 l 0.12516,-4.59996 0.69276,4.25524 c 0.91648,5.62942 4.71779,9.49306 14.05691,14.2874 9.25439,4.75083 12.67476,7.048 14.61177,9.81347 1.77134,2.52894 1.57787,2.61905 -1.11177,0.51781 z m -16.63922,-23.34065 c -1.29843,-1.0817 -1.82484,-1.9817 -1.1698,-2 0.65504,-0.0183 1.4691,0.41673 1.80902,0.96673 0.93902,1.51937 6.77753,1.19434 9.21511,-0.51301 1.23051,-0.86188 2.33326,-2.90603 2.56246,-4.75 0.39416,-3.17102 0.40562,-3.16056 0.56239,0.51301 0.29763,6.97397 -7.42135,10.4134 -12.97918,5.78327 z m 0.67293,-4.99603 c -2.55368,-2.82178 -1.29428,-5.03724 2.86348,-5.03724 3.13896,0 6.60281,2.03096 6.60281,3.87143 0,3.31469 -6.76735,4.14812 -9.46629,1.16581 z m -11.53371,-1.64994 c 0,-1.81334 6.57736,-7.4057 9.79565,-8.32869 4.06617,-1.16616 9.32823,0.26217 11.77791,3.197 1.03035,1.23441 1.23281,1.68189 0.44991,0.99439 -0.82133,-0.72124 -4.12804,-1.25 -7.81709,-1.25 -5.42118,0 -6.46855,0.28652 -6.88625,1.88382 -0.34839,1.33225 -1.09676,1.72585 -2.55592,1.34427 -1.32044,-0.3453 -2.54949,0.12536 -3.41375,1.3073 -0.74275,1.01578 -1.35046,1.39914 -1.35046,0.85191 z"
     id="path4019"
     inkscape:connector-curvature="0" />
  <path
     style="fill:#000000;fill-opacity:1;fill-rule:nonzero;stroke-width:0.1;stroke-miterlimit:4;stroke-dasharray:none"
     d="m 220.42553,584.65012 c -5.69496,-10.05 -13.97521,-17.83537 -21.69678,-20.40006 -4.32656,-1.43706 -7.44729,-3.57308 -10.08387,-6.90204 l -3.81826,-4.82093 8.07301,-5.25976 c 4.44014,-2.89288 11.971,-6.9001 16.73522,-8.90494 6.26209,-2.63516 8.77411,-4.36864 9.06602,-6.25619 0.39515,-2.5552 -0.0708,-2.61102 -21.79714,-2.61102 l -22.20092,0 0,30.54672 0,30.54672 -3.15901,-2.96773 -3.159,-2.96774 0,-27.57898 0,-27.57899 -9.45415,0 -9.45414,0 -0.33878,29.88589 -0.33877,29.88589 -5.68621,-8.70672 c -6.3211,-9.67885 -14.11055,-15.44451 -22.36063,-16.55108 -4.05794,-0.54428 -5.51099,-1.57246 -8.25549,-5.84155 -1.83191,-2.84955 -3.09503,-5.5624 -2.80694,-6.02855 1.07488,-1.73918 17.93768,-11.11152 26.47325,-14.7138 5.196,-2.19288 9.01377,-4.59876 9.25376,-5.83152 0.36924,-1.89661 -1.91081,-2.09856 -23.69254,-2.09856 l -24.101089,0 0,30.54672 0,30.54672 -3.159,-2.96773 -3.159,-2.96774 0,-27.57898 0,-27.57899 -4.20235,0 c -2.848703,0 -5.15829,-1.01756 -7.170071,-3.159 l -2.967734,-3.15901 8.038292,0 8.038283,0 -3.395417,-3.54405 c -1.867478,-1.94922 -3.39329,-4.65017 -3.390687,-6.00211 0.0076,-4.04122 4.603464,-10.34055 10.283654,-14.09581 4.572309,-3.02283 6.606149,-3.52547 14.264849,-3.52547 10.86081,0 20.14876,4.04234 29.42311,12.80561 4.70487,4.4456 5.05262,5.00095 1.56884,2.50544 -17.7331,-12.70266 -35.6,-12.9899 -45.909219,-0.73809 -3.60523,4.28458 -4.02219,6.39032 -2.0099,10.15035 1.2481,2.33208 3.0258,2.44413 38.776289,2.44413 l 37.4682,0 -3.39541,-3.54405 c -1.86748,-1.94922 -3.39329,-4.65017 -3.39069,-6.00211 0.008,-4.04122 4.60347,-10.34055 10.28367,-14.09581 4.5723,-3.02283 6.60615,-3.52547 14.26484,-3.52547 10.86081,0 20.14877,4.04234 29.42312,12.80561 4.70487,4.4456 5.05261,5.00095 1.56883,2.50544 -17.7331,-12.70266 -35.59999,-12.9899 -45.90922,-0.73809 -3.60523,4.28458 -4.02219,6.39032 -2.00989,10.15035 1.26698,2.3674 3.33136,2.44413 65.74697,2.44413 58.80751,0 64.50908,-0.18284 65.24177,-2.09222 0.51518,-1.34255 -0.2428,-2.93895 -2.11543,-4.45531 -2.51116,-2.03341 -4.87642,-2.32609 -16.95345,-2.09778 -11.07522,0.20935 -14.88505,-0.18195 -18.06515,-1.85549 -7.33178,-3.85834 -9.92662,-10.36049 -6.17668,-15.47743 1.67201,-2.28151 1.78231,-2.14418 1.5795,1.96635 -0.19109,3.87306 0.32851,4.69625 4.20458,6.66126 3.6991,1.87531 6.30426,2.10818 15.92471,1.42349 13.21408,-0.94044 19.33024,0.49422 23.22719,5.4484 1.40083,1.78087 2.54697,4.86711 2.54697,6.85834 0,2.94699 0.54661,3.62039 2.93874,3.62039 1.6163,0 4.27422,1.42156 5.90647,3.15901 l 2.96774,3.159 -16.6471,0 -16.64709,0 0,10.5859 c 0,15.34475 3.56198,17.12338 12.40418,6.19387 4.65823,-5.75788 6.92444,-5.06131 11.28836,3.46976 5.39822,10.55303 2.43226,24.69136 -6.31374,30.09668 -16.49197,10.1926 -32.39394,-0.15901 -38.68577,-25.18305 -3.79392,-15.08925 -4.34143,-20.17385 -2.07882,-19.30561 1.06675,0.40935 1.90455,2.28038 1.90455,4.25336 0,5.86261 4.7916,19.47357 8.80673,25.0163 4.60592,6.35828 9.58972,9.09887 16.54643,9.09887 10.5792,0 20.29946,-9.30741 18.24964,-17.47456 -1.60688,-6.40229 -2.86903,-6.49986 -8.69662,-0.67226 -4.39184,4.39184 -6.4028,5.5108 -9.90382,5.5108 -7.47814,0 -9.13725,-3.17622 -9.63824,-18.4515 l -0.43093,-13.13856 -27.05242,0 c -25.59444,0 -27.05244,0.1275 -27.05244,2.36571 0,1.75919 1.22239,2.56117 4.76779,3.12811 4.77734,0.76392 12.34857,7.18166 15.13413,12.82842 5.02409,10.18457 1.36761,21.9527 -6.85828,22.07285 -3.89278,0.0569 -8.13565,-5.65541 -6.83462,-9.20162 1.17469,-3.20188 8.00614,-4.49048 10.93215,-2.06211 1.48012,1.22838 1.81287,1.00077 1.81287,-1.24014 0,-6.59943 -6.94743,-14.20159 -14.18994,-15.52722 l -3.44932,-0.63134 -0.34149,25.40782 -0.34148,25.40783 -4.18957,-7.39337 z m -74.78557,-25.46028 c 0,-13.32859 -0.3016,-15.79503 -1.93144,-15.79503 -1.95809,0 -15.24368,6.35776 -20.54727,9.83281 -2.89202,1.89492 -2.88801,1.90154 3.30875,5.44065 3.41236,1.94888 8.6951,6.39178 11.73942,9.87311 3.04432,3.48134 5.9616,6.3553 6.48284,6.38658 0.52123,0.0313 0.9477,-7.05086 0.9477,-15.73812 z m 72.82525,-16.67991 c -0.63005,-0.63004 -13.60964,5.90127 -18.9793,9.55033 l -3.64793,2.47905 5.05163,2.57716 c 2.7784,1.41743 7.83169,5.6344 11.22955,9.37105 l 6.17792,6.79389 0.35616,-15.11364 c 0.19589,-8.3125 0.11133,-15.35853 -0.18803,-15.65784 z m 198.66527,45.56087 c -1.57185,-1.77289 -2.19369,-5.5859 -2.54778,-15.62253 -0.56441,-15.998 -3.13722,-22.10365 -9.31407,-22.10365 -3.09665,0 -4.74622,1.41516 -10.24773,8.79144 -3.60635,4.8353 -7.59985,9.16012 -8.87445,9.61072 -3.85063,1.36127 -8.84368,-1.22824 -12.47671,-6.47068 -2.88771,-4.16697 -3.17483,-5.27471 -1.7974,-6.93441 1.44019,-1.73532 1.83642,-1.50647 3.26206,1.88415 2.32438,5.52805 5.69641,4.91949 11.70753,-2.11293 3.99062,-4.66863 4.94468,-6.66839 4.37059,-9.16111 -1.46111,-6.34427 -4.00284,-8.68204 -11.82611,-10.87714 -5.13557,-1.44096 -9.38123,-3.72216 -12.96871,-6.96807 l -5.33357,-4.82576 31.6857,-0.0518 31.68569,-0.0518 2.96773,3.15901 2.96773,3.159 -5.25221,0 -5.2522,0 -0.33837,30.46047 c -0.31544,28.39739 -0.47921,30.30163 -2.41772,28.11515 z m -2.34325,-48.4668 0,-10.10882 -14.66232,0 -14.66233,0 3.80069,4.32875 c 2.09038,2.38082 4.18154,6.06277 4.64703,8.1821 l 0.84633,3.85336 3.553,-2.62684 c 4.25094,-3.14287 7.07304,-2.51059 12.06891,2.70401 1.98985,2.07694 3.79583,3.77626 4.01329,3.77626 0.21747,0 0.3954,-4.54897 0.3954,-10.10882 z m -282.33211,44.1304 c -2.72456,-2.03148 -6.84308,-4.37679 -9.15228,-5.2118 -4.14346,-1.49831 -6.0639,-6.06494 -2.55051,-6.06494 4.47292,0 19.19952,12.42733 17.15242,14.47441 -0.27275,0.27275 -2.72508,-1.1662 -5.44963,-3.19767 z m 228.94764,0.39294 c 0.81167,-5.53018 -3.67502,-9.76512 -17.12387,-16.16305 -20.37932,-9.69494 -24.26183,-13.91936 -24.26183,-26.39849 0,-6.27523 0.47721,-7.53714 4.55876,-12.05493 11.05657,-12.23831 29.5585,-7.87889 29.5585,6.96454 0,7.47059 -3.12616,11.05483 -9.642,11.05483 -7.04849,0 -10.42079,-2.20053 -13.28083,-8.6661 -2.74626,-6.20841 -4.10787,-6.84806 -6.21122,-2.91789 -3.92096,7.32637 2.42567,15.64536 17.76163,23.28144 11.7235,5.83739 15.02031,8.36304 18.63166,14.27358 3.1719,5.19132 3.91365,14.11962 1.17302,14.11962 -1.11237,0 -1.504,-1.17562 -1.16382,-3.49355 z m -13.86761,-43.96318 c 3.31114,-2.31922 3.62178,-5.88424 0.76191,-8.74412 -1.47538,-1.47538 -3.85223,-1.94133 -8.51749,-1.66975 -7.98159,0.46463 -9.0505,3.06968 -3.52627,8.59393 4.24367,4.24367 7.15174,4.71278 11.28185,1.81994 z"
     id="path4017"
     inkscape:connector-curvature="0" />
</svg>
