<?xml version="1.0" encoding="utf-8"?>
<!-- Generator: Adobe Illustrator 12.0.1, SVG Export Plug-In . SVG Version: 6.00 Build 51448)  -->
<!DOCTYPE svg PUBLIC "-//W3C//DTD SVG 1.1//EN" "http://www.w3.org/Graphics/SVG/1.1/DTD/svg11.dtd" [
	<!ENTITY ns_svg "http://www.w3.org/2000/svg">
	<!ENTITY ns_xlink "http://www.w3.org/1999/xlink">
]>
<svg  version="1.1"
	 id="svg1325" sodipodi:version="0.32" inkscape:version="0.43" sodipodi:docbase="D:\" sodipodi:docname="wikisource-nt.svg" xmlns:dc="http://purl.org/dc/elements/1.1/" xmlns:svg="http://www.w3.org/2000/svg" xmlns:rdf="http://www.w3.org/1999/02/22-rdf-syntax-ns#" xmlns:inkscape="http://www.inkscape.org/namespaces/inkscape" xmlns:sodipodi="http://inkscape.sourceforge.net/DTD/sodipodi-0.dtd" xmlns:cc="http://web.resource.org/cc/"
	 xmlns="&ns_svg;" xmlns:xlink="&ns_xlink;" width="412.667" height="512" viewBox="-1.167 -0.833 412.667 512"
	 overflow="visible" enable-background="new -1.167 -0.833 412.667 512" xml:space="preserve">
<sodipodi:namedview  id="base" inkscape:window-height="588" inkscape:window-width="1019" inkscape:pageshadow="2" inkscape:pageopacity="0.0" inkscape:window-x="-1" inkscape:window-y="118" inkscape:current-layer="svg1325" inkscape:guide-bbox="true" showguides="true" pagecolor="#ffffff" inkscape:zoom="0.97956512" inkscape:cy="174.05683" bordercolor="#666666" inkscape:cx="205.93747" borderopacity="1.0">
	</sodipodi:namedview>
<g id="g2492" transform="matrix(1.005595,0,0,1.000506,-0.942714,-0.217568)">
	<path id="path1334" fill="#608AB4" d="M203.5,0.219C135.607,0.672,75.524,36.175,38.781,90.406h332.031
		c-36.98-54.582-97.566-90.187-166-90.187C204.373,0.219,203.939,0.216,203.5,0.219z"/>
	<path id="path2488" fill="#375493" d="M27,110C10.418,141.083,0.937,176.917,0.937,215.094C0.937,333.714,92.283,430,204.812,430
		s203.844-96.286,203.844-214.906c0-38.177-9.449-74.011-26.031-105.094H27z"/>
	<path id="path2361" fill="#D6DDE3" d="M38.781,90.406C34.523,96.691,30.608,103.237,27,110h355.625
		c-3.608-6.763-7.555-13.309-11.813-19.594H38.781z"/>
	<path id="path2219" fill="#7BBCE5" d="M291.875,24.313c-0.846,0.014-1.755,0.204-2.719,0.5c-9.082,14.57-9.053,62.841-8.938,73.281
		c0.019,0.004,0.043-0.004,0.063,0c13.444,2.997,31.244-0.444,31.844-13.375c1.027-17.041,2.054-33.569-6.938-44.188
		c-8.221,3.768-6.66-11.481-10-14.906C294.354,24.667,293.194,24.29,291.875,24.313z"/>
	<path id="path2230" fill="#FFFFFF" d="M289.156,24.812c-4.789,1.471-10.617,5.837-13.5,7.25c-2.506,0.269-7.157,0.074-10.625,0.969
		c-7.455,1.923-14.24,6.498-18.156,13.687c-5.058-14.763-15.911,3.391-28.781,13.844c-7.129-5.395-21.49-16.157-34.656-23.094
		c-10.59,5.395-21.689,23.615-28.281,25.156c-6.851,1.285-16.506,0.525-20.531,5.406c-6.679,6.936-8.747,14.893-10.031,22.344
		c15.671,5.566,32.11,5.734,47.781,3.594c8.906-2.141,15.244,0.874,24.406,0.531c27.81,1.198,57.931-2.211,83.437,3.594
		C280.103,87.653,280.074,39.382,289.156,24.812z"/>
	<path id="path2221" sodipodi:nodetypes="cccccc" fill="#7BBCE5" d="M196.272,53.898c3.345,10.105,6.245,20.21,5.138,30.314
		c-1.199,6.251,1.456,5.823,6.423,3.34c4.881-2.654,7.45-5.566,14.643-7.964c5.566-1.542,1.627-5.652-1.028-8.478
		C213.509,63.559,204.876,58.786,196.272,53.898z"/>
	<path id="path2364" fill="#294584" d="M224.812,110c5.852,77.793,58.105,87.35,91,71.625
		c-16.448-16.266-10.482-49.416,7.063-49.781c32.452-0.79,23.212,59.826,23.219,89.25c17.742-3.608,16.58-70.739,12.813-111.094
		H224.812z"/>
	<path id="path2370" sodipodi:nodetypes="cccccccccccccccccccccccccccccssssssssssscccccc" fill="#E0E9EA" d="M56.75,110
		c0.638,6.697,1.268,13.397,1.906,20.094c4.292,7.859,7.484,15.704,6.594,23.563c8.479-2.09,13.532-3.182,18.094,5.5
		c19.954,12.423,38.906,13.905,57.563,12.063c3.793,45.141,2.687,81.451,1.093,135.406c11.331,18.824,22.669,36.676,34,55.5
		c6.507,11.443,17.92,15.058,26.875,1.53c7.676-3.473,15.324-6.934,23-10.407c0,3.838,0,7.662,0,11.5
		c11.788,2.966,23.447,7.48,18.094,19.75c-4.074,7.927-1.782,11.452,9.812,6.157c10.242-4.989,16.562,2.749,21.906,4.126
		c-7.62-8.116-1.062-24.091-0.822-40.593c10.934-0.999,23.419-10.91,34.353-11.908c22.483-21.821,26.354-29.94,26.313-58.125
		c2.258-7.31,5.502-9.241,3.844-21.938c1.279-7.858,3.064-18.141,4.344-26c0.876-5.143,1.719-10.179,2.562-15.156
		c-0.061,0.014-0.126,0.019-0.187,0.031c-0.007-29.424,9.233-90.04-23.219-89.25c-17.545,0.366-23.511,33.516-7.063,49.781
		c-3.813,1.823-7.894,3.33-12.125,4.406c1.334,7.671-4.208,15.543-11.469,15.875c-7.245-0.648-17.901,6.542-24.656,23.031
		c-10.797,22.771-20.621,2.96-24.562-3.157c-5.059-6.717,1.153-12.961-12.719-8.906c-9.145,2.827-20.752,4.695-23.531-9.125
		c-11.696-11.88-22.897-22.309-34.594-34.188c-4.67-5.558-0.78-10.134-0.75-12.093c0-0.041,0.001-0.109,0-0.157
		c0-0.007,0.001-0.025,0-0.031c-0.006-0.022-0.024-0.072-0.031-0.094c-0.006-0.023-0.023-0.071-0.031-0.094
		c-0.015-0.037-0.042-0.091-0.063-0.125c-0.005-0.011-0.026-0.052-0.031-0.062c-0.008-0.008-0.028-0.027-0.032-0.031
		c-0.019-0.021-0.067-0.07-0.094-0.094c-0.03-0.023-0.083-0.066-0.125-0.094c-0.017-0.01-0.047-0.023-0.063-0.031
		c-0.054-0.026-0.123-0.041-0.187-0.062c-4.562-2.879-10.094,0.587-16.125,3.094c-15.743,2.891-21.891,0.109-23.594-8.219
		c0.093-13.755-7.644-12.319-20.282-10.406c-36.428,5.19-42.318-7.704-52.937-31.063L56.75,110L56.75,110z"/>
	<path id="path2383" fill="#4D8AC0" d="M57.813,110c10.619,23.359,16.51,36.253,52.937,31.063
		c12.638-1.914,20.374-3.349,20.282,10.406c1.703,8.328,7.85,11.11,23.594,8.219c6.031-2.507,11.563-5.973,16.125-3.094
		c0.065,0.021,0.134,0.037,0.187,0.062c0.016,0.008,0.046,0.021,0.063,0.031c0.042,0.027,0.095,0.07,0.125,0.094
		c0.027,0.024,0.074,0.073,0.094,0.094c0.004,0.004,0.023,0.023,0.032,0.031c0.005,0.011,0.026,0.052,0.031,0.062
		c0.02,0.034,0.048,0.088,0.063,0.125c0.008,0.022,0.025,0.07,0.031,0.094c0.007,0.021,0.025,0.072,0.031,0.094
		c0.001,0.006,0,0.024,0,0.031c0.001,0.047,0,0.115,0,0.157c-0.03,1.959-3.92,6.535,0.75,12.093
		c11.696,11.879,22.897,22.308,34.594,34.188c2.78,13.82,14.387,11.952,23.531,9.125c13.872-4.055,7.66,2.189,12.719,8.906
		c3.941,6.117,13.766,25.928,24.562,3.157c6.755-16.49,17.411-23.679,24.656-23.031c7.261-0.332,12.802-8.204,11.469-15.875
		c-32.269,8.208-73.702-7.256-78.875-76.031L57.813,110L57.813,110z"/>
	<path id="path2398" fill="#D6DDE3" d="M166.937,199.375c-10.498,0.685-5.026,35.786-3.875,52.406
		c1.555,16.361,5.202,12.507,16.625,5.375c5.253,10.653,2.059,16.605-5.375,23.5c-5.534,5.23-8.709,13.042-3.906,22.031
		c1.469,2.448,2.702,3.487,4.406,7.344c1.143,2.285,2.264,4.589,3.406,6.873c1.318,5.052-0.169,8.204-2.375,10.908
		c-2.043,2.924-2.437,5.875,0.219,13.969c1.449,4.702-2.523,10.314,3.625,15.25c2.725,2.116,5.393,3.7,8.125,4.874
		c-2.37-6.9-2.44-16.857-1.281-25.405c0.783-8.066,1.326-13.081,8.687-18.564c6.422-3.288,4.64-20.662,5.188-30.999
		c0.063,0.055,0.152,0.105,0.219,0.156c-0.008-0.046,0.008-0.11,0-0.156c13.736-2.901,6.088-13.887,1.875-24.438l-33.594-62.875
		c-0.664-0.184-1.275-0.272-1.844-0.25C167.021,199.376,166.979,199.373,166.937,199.375z"/>
	<path id="path2404" fill="#608AB4" d="M168.906,199.625L202.5,262.5c4.213,10.55,11.861,21.537-1.875,24.438
		c1.225,7.361,10.329,13.767,20.437,12.907c10.515-0.678,18.162,7.184,21.625,15.124c0.457-8.756,1.526-17.446,3.656-26.031
		c1.358-4.243,9.051-8.003,2.656-13.656c-25.899-28.515-50.861-50.933-78.875-75.219
		C169.699,199.878,169.297,199.734,168.906,199.625z"/>
	<path id="path2407" fill="#236798" d="M200.406,286.938c-0.548,10.337,1.234,27.711-5.188,30.999
		c-7.361,5.483-7.904,10.498-8.687,18.564c-1.161,8.56-1.099,18.537,1.281,25.436c2.43,1.039,4.919,1.742,7.563,2.187
		c4.446,0.398,7.245,1.497,16.625-0.219c8.212-0.949,13.144-4.958,22.531-6.377c5.124-1.006,8.592-2.96,8.312-10.781
		c-0.391-10.679-0.707-21.281-0.156-31.782c-3.464-7.94-11.11-15.804-21.625-15.124c-9.99,0.851-19.014-5.404-20.406-12.657
		c-0.003-0.014,0.002-0.017,0-0.031c-0.005-0.004,0.005-0.027,0-0.031C200.58,287.059,200.481,287.008,200.406,286.938z"/>
	<path id="path2460" sodipodi:nodetypes="ccccccccssssscccccsssssssccccc" fill="#608AB4" d="M338.469,276.531
		c-0.863,2.392-1.981,4.529-2.938,7.625c0.041,28.185-3.83,36.304-26.313,58.125c-0.202,0.052-6.631,15.125-12.093,19.063
		c-9.215,6.813-8.64,12.99-12.062,20.438c-2.477,3.765-5.898,4.371-8.375,3.688c-1.547-1.221-3.11-1.8-4.657-3.655
		c-0.098,3.044,0.115,5.817,0.907,8.25c0.035,0.072,0.058,0.146,0.094,0.219c0.003,0.01-0.003,0.022,0,0.031
		c0.434,0.883,0.841,1.774,1.25,2.657c0.022,0.036,0.04,0.059,0.063,0.094c0.004,0.01-0.004,0.022,0,0.031
		c0.372,0.579,0.801,1.138,1.281,1.656c-0.147-0.039-0.29-0.077-0.438-0.125c9.438,15.092,22.768,19.811,39.875,13.875
		c9.212-4.018,14.597-7.696,20.313-12.031c4.972-4.716,10.888-13.571,1.563-14.157c-1.329-0.351-2.069-0.696-2.438-1.062
		c-0.013-0.015-0.05-0.049-0.062-0.062c-0.036-0.042-0.067-0.113-0.094-0.156c-0.038-0.064-0.074-0.151-0.094-0.219
		c-0.004-0.016-0.028-0.048-0.031-0.063c-0.004-0.021,0.002-0.069,0-0.094c-0.002-0.021,0-0.07,0-0.094
		c0.018-1.344,2.577-3.262,0.625-7.157c-1.336-5.956,4.34-11.587,8.406-13.094c-2.794-6.114-5.611-12.229-8.406-18.343
		c0.193-4.016,8.091-6.135,6.812-13.625C343.936,309.499,347.026,281.529,338.469,276.531z"/>
	<path id="path2468" fill="#236798" d="M288.031,202.312c-6.755,1.818-14.928,9.099-20.469,22.625
		c-2.53,5.337-5.014,8.335-7.375,9.719c0.236,23.249,5.759,39.8,17.188,48.875c-3.389,13.451-6.768,31.993-0.625,43.217
		c-10.379-3.283-6.147,17.586-9.218,26.375c-5.19,14.617-9.753,13.979-14.625,15.25c4.448,5.083,10.172,10.479,18.75,13.656
		c0.001,0.017-0.003,0.046,0,0.061c0.017,0.075,0.078,0.176,0.125,0.251c0.639,0.97,3.516,2.027,4.906,3.124
		c2.477,0.683,5.898,0.077,8.375-3.688c3.423-7.447,2.847-13.625,12.062-20.438c5.335-3.845,11.616-18.342,12.093-19.063
		c-18.234-10.249-26.853-29.778-23.906-48.594c0.847-5.19,4.241-11.008-0.313-19.375
		C279.554,251.319,283.022,224.567,288.031,202.312z"/>
</g>
<g>
	<path d="M1.813,507.501l2.962-0.197c4.117-0.275,5.134-0.69,5.134-4.146v-49.662c0-3.357-0.918-3.87-5.134-4.147l-2.962-0.196
		c-0.494-0.029-0.691-0.296-0.691-0.69v-1.976l0.198-0.1c0,0,7.652,0.1,12.539,0.1c4.66,0,8.491-0.1,11.946-0.1
		c18.364,0,21.228,8.491,21.228,15.106c0,5.431-4.147,10.663-9.182,13.131c8.59,2.469,15.007,7.899,15.007,17.377
		c0,8.491-5.233,18.364-24.88,18.364c-8.787,0-8.609-0.197-14.119-0.197c-4.887,0-12.539,0.197-12.539,0.197l-0.198-0.197v-1.876
		C1.122,507.798,1.319,507.531,1.813,507.501z M17.906,474.031h7.306c8.195,0,14.217-2.962,14.217-11.354
		c0-10.069-7.405-12.934-12.934-12.934c-8.59,0-8.59,0.987-8.59,4.245L17.906,474.031L17.906,474.031z M17.906,502.466
		c0,3.258,1.284,4.542,8.195,4.542c15.007,0,17.969-5.924,17.969-13.132c0-8.886-5.825-16.488-17.377-16.488h-8.787V502.466z"/>
	<path d="M82.376,464.553l0.198,0.197v2.173c0,0.296-0.198,0.493-0.592,0.493l-2.962,0.197c-3.723,0.247-4.048,0.79-4.048,4.937
		v26.757l20.339-27.646c0-2.369-0.099-4.245-3.456-4.245c-0.296,0-0.494-0.099-0.494-0.395v-2.271l0.197-0.197
		c0,0,4.443,0.197,7.208,0.197c4.443,0,11.354-0.197,11.354-0.197l0.099,0.197v2.173c0,0.296-0.198,0.493-0.593,0.493l-2.962,0.197
		c-3.732,0.247-3.851,0.79-3.851,4.838v30.113c0,3.652,0.316,4.502,3.851,4.738l2.962,0.197c0.395,0,0.593,0.197,0.593,0.593v2.073
		l-0.099,0.197c0,0-6.911-0.197-11.354-0.197c-4.344,0-11.058,0.197-11.058,0.197v-0.197v-2.172c0-0.297,0.198-0.494,0.494-0.494
		l3.061-0.197c3.554-0.227,4.048-1.282,4.048-4.738V476.4l-20.339,27.547v0.196c0,2.469,0.296,3.356,3.653,3.356
		c0.395,0,0.592,0.197,0.592,0.593v2.073l-0.099,0.197c0,0-4.838-0.197-7.998-0.197c-4.246,0-10.959,0.197-10.959,0.197
		l-0.099-0.197v-2.172c0-0.297,0.198-0.494,0.494-0.494l3.061-0.197c3.544-0.227,3.752-1.086,3.752-4.542v-30.112
		c0-4.245-0.228-4.799-3.752-5.035l-2.962-0.197c-0.395,0-0.593-0.099-0.593-0.395v-2.271l0.296-0.197c0,0,6.516,0.197,10.762,0.197
		C75.465,464.75,82.376,464.553,82.376,464.553z"/>
	<path d="M130.656,503.552c0,2.172,1.037,3.456,4.147,3.752l2.073,0.197c0.296,0.03,0.592,0.197,0.592,0.593v2.073l-0.099,0.197
		c0,0-7.503-0.197-10.564-0.197c-2.764,0-10.465,0.197-10.465,0.197l-0.198-0.197v-2.073c0-0.396,0.296-0.553,0.691-0.593
		l1.975-0.197c3.308-0.325,4.246-1.876,4.246-3.752v-32.878c0-2.172-1.205-2.754-4.246-3.061l-1.975-0.197
		c-0.395-0.039-0.691-0.099-0.691-0.395v-2.271l0.099-0.197c0,0,7.8,0.197,10.86,0.197c2.666,0,10.268-0.197,10.268-0.197
		l0.099,0.197v2.173c0,0.296-0.197,0.454-0.592,0.493l-2.073,0.197c-3.041,0.286-4.147,1.086-4.147,3.061v12.836
		c7.82-0.05,10.574-5.45,12.737-10.269c1.994-4.434,4.443-9.873,9.182-9.873c3.752,0,5.529,1.975,5.529,4.441
		c0,1.976-1.679,3.753-3.752,3.753c-0.987,0-2.172-0.493-2.863-0.89c-0.592-0.296-1.481-0.395-2.271-0.395
		c-1.086,0-2.37,2.666-3.357,4.937c-1.58,3.752-4.147,9.183-9.182,10.07c5.332,0,9.182,4.542,11.255,9.38
		c1.481,3.752,5.43,12.736,9.083,12.736h0.79c0.395,0,1.086,0.099,1.086,0.79v1.876l-0.197,0.196l-7.208-0.099
		c-4.937-0.099-7.8-7.108-9.478-11.156c-2.083-5.332-3.999-11.088-11.354-12.017V503.552z"/>
	<path d="M186.538,464.553l0.198,0.197v2.173c0,0.296-0.198,0.493-0.592,0.493l-2.962,0.197c-3.722,0.247-4.048,0.79-4.048,4.937
		v26.757l20.339-27.646c0-2.369-0.099-4.245-3.456-4.245c-0.296,0-0.494-0.099-0.494-0.395v-2.271l0.197-0.197
		c0,0,4.443,0.197,7.208,0.197c4.443,0,11.354-0.197,11.354-0.197l0.099,0.197v2.173c0,0.296-0.198,0.493-0.593,0.493l-2.962,0.197
		c-3.732,0.247-3.851,0.79-3.851,4.838v30.113c0,3.652,0.316,4.502,3.851,4.738l2.962,0.197c0.395,0,0.593,0.197,0.593,0.593v2.073
		l-0.099,0.197c0,0-6.911-0.197-11.354-0.197c-4.344,0-11.058,0.197-11.058,0.197v-0.197v-2.172c0-0.297,0.198-0.494,0.494-0.494
		l3.061-0.197c3.554-0.227,4.048-1.282,4.048-4.738V476.4l-20.339,27.547v0.196c0,2.469,0.296,3.356,3.653,3.356
		c0.395,0,0.592,0.197,0.592,0.593v2.073l-0.099,0.197c0,0-4.838-0.197-7.998-0.197c-4.245,0-10.959,0.197-10.959,0.197
		l-0.099-0.197v-2.172c0-0.297,0.197-0.494,0.493-0.494l3.061-0.197c3.544-0.227,3.752-1.086,3.752-4.542v-30.112
		c0-4.245-0.228-4.799-3.752-5.035l-2.962-0.197c-0.395,0-0.592-0.099-0.592-0.395v-2.271l0.296-0.197c0,0,6.517,0.197,10.762,0.197
		C179.627,464.75,186.538,464.553,186.538,464.553z"/>
	<path d="M249.232,468.107c-2.765,0-3.653,0.889-3.653,3.158v32.878c0,2.173,1.185,2.854,4.245,3.159l1.975,0.197
		c0.296,0,0.691,0.297,0.691,0.593v2.073l-0.198,0.197c0,0-7.701-0.197-10.663-0.197c-2.764,0-10.367,0.197-10.367,0.197
		l-0.099-0.197v-2.073c0-0.296,0.197-0.593,0.592-0.593l1.975-0.197c2.962-0.296,4.246-1.185,4.246-3.159v-32.977
		c0-2.172-0.889-3.061-3.752-3.061h-4.443c-4.443,0-5.628,1.975-7.603,9.083l-2.666-0.297c0.79-4.641,0.79-9.183,0.79-13.525h2.468
		c0.197,0.592,1.086,1.382,2.666,1.382h31.693c1.58,0,2.468-0.79,2.666-1.382h2.468c0,4.344,0.099,8.787,0.79,13.525l-2.666,0.297
		c-1.975-7.108-3.258-9.083-7.503-9.083L249.232,468.107L249.232,468.107z"/>
	<path d="M278.457,510.167c-2.962,0-9.774,0.197-9.774,0.197l-0.099-0.197v-2.172c0-0.197,0.099-0.454,0.593-0.494l2.271-0.197
		c3.021-0.267,3.949-2.271,3.949-4.245v-32.582c0-2.271-1.185-2.626-3.949-2.862l-2.271-0.197c-0.593-0.05-0.593-0.296-0.593-0.395
		v-2.271l0.099-0.197c0,0,7.701,0.197,10.663,0.197h14.513c2.962,0,9.972-0.197,9.972-0.197l0.197,0.197
		c0.099,4.246,0.79,8.097,1.481,11.848l-2.468,0.396c-1.086-3.653-2.962-8.886-9.281-8.886h-7.898c-1.876,0-2.863,0.689-2.863,2.369
		v14.315h7.405c2.765,0,3.456-1.185,3.851-3.159l0.593-2.072c0-0.298,0.197-0.494,0.592-0.494h1.678
		c0.198,0,0.198,0.099,0.198,0.296c-0.198,2.173-0.593,4.937-0.593,7.307c0,2.468,0.395,4.541,0.593,6.813l-0.198,0.196h-1.678
		c-0.494,0-0.691-0.196-0.691-0.492l-0.494-2.174c-0.395-1.975-1.283-3.061-3.851-3.061h-7.405v15.105
		c0,1.876,1.086,3.753,2.863,3.753h9.379c5.036,0,7.8-3.16,8.985-8.295l2.468,0.297l-1.975,11.354l-0.198,0.197
		c0,0-5.825-0.197-8.787-0.197L278.457,510.167L278.457,510.167z"/>
	<path d="M327.921,503.552c0,2.172,1.037,3.456,4.147,3.752l2.073,0.197c0.296,0.03,0.592,0.197,0.592,0.593v2.073l-0.099,0.197
		c0,0-7.503-0.197-10.564-0.197c-2.764,0-10.465,0.197-10.465,0.197l-0.197-0.197v-2.073c0-0.396,0.296-0.553,0.691-0.593
		l1.975-0.197c3.308-0.325,4.246-1.876,4.246-3.752v-32.878c0-2.172-1.205-2.754-4.246-3.061l-1.975-0.197
		c-0.395-0.039-0.691-0.099-0.691-0.395v-2.271l0.099-0.197c0,0,7.8,0.197,10.86,0.197c2.666,0,10.268-0.197,10.268-0.197
		l0.099,0.197v2.173c0,0.296-0.197,0.454-0.592,0.493l-2.073,0.197c-3.041,0.286-4.147,1.086-4.147,3.061v12.836
		c7.82-0.05,10.574-5.45,12.737-10.269c1.994-4.434,4.443-9.873,9.182-9.873c3.752,0,5.529,1.975,5.529,4.441
		c0,1.976-1.679,3.753-3.752,3.753c-0.987,0-2.172-0.493-2.863-0.89c-0.592-0.296-1.481-0.395-2.271-0.395
		c-1.086,0-2.37,2.666-3.357,4.937c-1.58,3.752-4.147,9.183-9.182,10.07c5.332,0,9.182,4.542,11.255,9.38
		c1.481,3.752,5.43,12.736,9.083,12.736h0.79c0.395,0,1.086,0.099,1.086,0.79v1.876l-0.197,0.196l-7.208-0.099
		c-4.937-0.099-7.8-7.108-9.478-11.156c-2.083-5.332-3.999-11.088-11.354-12.017L327.921,503.552L327.921,503.552z"/>
	<path d="M369.882,504.342c-0.198,0.494-0.395,0.987-0.395,1.283c0,1.284,1.58,1.58,4.048,1.777l1.284,0.099
		c0.296,0,0.592,0.297,0.592,0.593v2.073l-0.197,0.197c0,0-8.195-0.197-10.071-0.197c-1.975,0-6.417,0.197-6.417,0.197l-0.198-0.197
		v-2.073c0-0.296,0.296-0.593,0.593-0.593c2.468-0.296,4.64-0.69,6.319-4.245l17.376-37.321c0.691-1.578,2.271-2.565,3.16-2.565
		c2.073,0,3.258,0.79,3.949,2.468l14.415,36.827c1.678,3.949,2.863,4.542,6.121,4.838c0.691,0.099,0.79,0.297,0.79,0.593v2.073
		l-0.296,0.197c0,0-5.232-0.197-8.195-0.197c-2.764,0-11.058,0.197-11.058,0.197l-0.198-0.197v-2.073
		c0-0.296,0.296-0.593,0.691-0.593l1.777-0.197c2.271-0.296,3.949-0.593,3.949-1.876c0-0.296-0.099-0.69-0.197-1.086l-4.443-11.453
		h-16.883c-1.283,0-1.975,0.396-2.172,1.086L369.882,504.342z M384.297,470.575h-0.099l-7.503,18.067c0,0.493,0,1.383,1.975,1.383
		h13.427L384.297,470.575z"/>
</g>
</svg>
