<?xml version="1.0" encoding="UTF-8" standalone="no"?>
<!-- Created with Inkscape (http://www.inkscape.org/) -->
<svg
   xmlns:svg="http://www.w3.org/2000/svg"
   xmlns="http://www.w3.org/2000/svg"
   version="1.0"
   width="410"
   height="513"
   viewBox="0 0 410 513"
   id="svg1325"
   xml:space="preserve">
<defs
   id="defs3" />

<g
   transform="translate(-3.13125e-5,1.7086299)"
   id="g3126">
	<g
   transform="matrix(1.005595,0,0,1.000506,-0.942714,-0.217568)"
   id="g2492">
		<path
   d="M 203.5,0.219 C 135.607,0.673 75.523,36.175 38.781,90.406 L 370.812,90.406 C 333.832,35.824 273.246,0.219 204.812,0.219 C 204.373,0.219 203.939,0.216 203.5,0.219 z"
   id="path1334"
   style="fill:#608ab4" />
		<path
   d="M 27,110 C 10.418,141.083 0.938,176.917 0.938,215.093 C 0.938,333.714 92.283,430 204.812,430 C 317.341,430 408.656,333.714 408.656,215.093 C 408.656,176.917 399.207,141.082 382.625,110 L 27,110 L 27,110 z"
   id="path2488"
   style="fill:#375493" />
		<path
   d="M 38.781,90.406 C 34.523,96.691 30.608,103.237 27,110 L 382.625,110 C 379.017,103.237 375.071,96.691 370.812,90.406 L 38.781,90.406 z"
   id="path2361"
   style="fill:#d6dde3" />
		<path
   d="M 291.875,24.313 C 291.028,24.327 290.119,24.517 289.157,24.813 C 280.075,39.383 280.102,87.654 280.219,98.094 C 280.238,98.098 280.262,98.09 280.281,98.094 C 293.725,101.091 311.526,97.65 312.125,84.719 C 313.152,67.678 314.179,51.15 305.187,40.532 C 296.966,44.3 298.527,29.051 295.187,25.625 C 294.354,24.667 293.195,24.29 291.875,24.313 z"
   id="path2219"
   style="fill:#7bbce5" />
		<path
   d="M 289.157,24.812 C 284.367,26.283 278.539,30.649 275.656,32.062 C 273.149,32.331 268.499,32.136 265.031,33.031 C 257.576,34.954 250.791,39.53 246.875,46.718 C 241.817,31.955 230.963,50.11 218.094,60.562 C 210.965,55.167 196.604,44.405 183.438,37.468 C 172.848,42.863 161.749,61.083 155.157,62.624 C 148.306,63.909 138.651,63.149 134.626,68.03 C 127.947,74.966 125.879,82.924 124.595,90.374 C 140.266,95.94 156.705,96.109 172.376,93.968 C 181.282,91.827 187.62,94.842 196.782,94.499 C 224.592,95.697 254.713,92.288 280.219,98.092 C 280.102,87.653 280.075,39.382 289.157,24.812 z"
   id="path2230"
   style="fill:#ffffff" />
		<path
   d="M 196.272,53.898 C 199.617,64.003 202.517,74.108 201.41,84.212 C 200.211,90.463 202.866,90.035 207.833,87.552 C 212.714,84.898 215.284,81.986 222.476,79.588 C 228.042,78.047 224.104,73.936 221.449,71.11 C 213.51,63.559 204.876,58.786 196.272,53.898 L 196.272,53.898 z"
   id="path2221"
   style="fill:#7bbce5" />
		<path
   d="M 224.812,110 C 230.664,187.793 282.917,197.349 315.813,181.625 C 299.365,165.359 305.331,132.209 322.875,131.844 C 355.327,131.054 346.087,191.67 346.094,221.094 C 363.837,217.486 362.674,150.355 358.907,110 L 224.812,110 z"
   id="path2364"
   style="fill:#294584" />
		
			<path
   d="M 56.75,110 C 57.388,116.697 58.018,123.397 58.656,130.093 C 62.948,137.952 66.14,145.797 65.25,153.656 C 73.729,151.566 78.782,150.474 83.344,159.156 C 103.297,171.579 122.25,173.061 140.907,171.218 C 144.7,216.359 143.594,252.669 142,306.625 C 153.331,325.449 164.669,343.301 176,362.124 C 182.507,373.569 193.92,377.183 202.875,363.655 C 210.551,360.183 218.198,356.722 225.874,353.249 C 225.874,357.087 225.874,360.911 225.874,364.749 C 237.663,367.714 249.323,372.228 243.968,384.499 C 239.894,392.425 242.187,395.95 253.78,390.655 C 264.022,385.666 270.342,393.403 275.687,394.78 C 268.068,386.665 274.625,370.689 274.865,354.188 C 285.799,353.19 298.284,343.279 309.218,342.28 C 331.701,320.459 335.572,312.341 335.531,284.155 C 337.79,276.844 341.033,274.914 339.375,262.217 C 340.654,254.359 342.44,244.076 343.719,236.217 C 344.595,231.074 345.439,226.038 346.282,221.061 C 346.221,221.075 346.156,221.08 346.094,221.092 C 346.087,191.668 355.327,131.052 322.875,131.842 C 305.331,132.208 299.365,165.358 315.813,181.623 C 311.999,183.446 307.919,184.953 303.687,186.029 C 305.021,193.7 299.48,201.572 292.219,201.904 C 284.973,201.256 274.318,208.446 267.563,224.935 C 256.766,247.706 246.942,227.895 243,221.778 C 237.941,215.061 244.153,208.817 230.281,212.872 C 221.137,215.7 209.53,217.567 206.75,203.747 C 195.054,191.868 183.853,181.438 172.156,169.559 C 167.486,164.001 171.376,159.425 171.406,157.465 C 171.406,157.424 171.407,157.356 171.406,157.309 C 171.406,157.302 171.407,157.284 171.406,157.278 C 171.4,157.256 171.382,157.205 171.375,157.184 C 171.369,157.16 171.352,157.113 171.344,157.09 C 171.329,157.053 171.302,156.999 171.281,156.965 C 171.276,156.954 171.255,156.914 171.25,156.903 C 171.242,156.895 171.223,156.877 171.219,156.872 C 171.199,156.851 171.152,156.803 171.125,156.778 C 171.095,156.755 171.042,156.712 171,156.684 C 170.984,156.674 170.953,156.661 170.937,156.653 C 170.883,156.628 170.814,156.612 170.75,156.591 C 166.188,153.712 160.656,157.178 154.625,159.685 C 138.882,162.576 132.734,159.793 131.031,151.466 C 131.124,137.711 123.387,139.146 110.749,141.06 C 74.321,146.25 68.431,133.356 57.812,109.998 L 56.75,109.998 L 56.75,110 z"
   id="path2370"
   style="fill:#e0e9ea" />
		<path
   d="M 57.813,110 C 68.432,133.359 74.323,146.252 110.75,141.062 C 123.388,139.148 131.124,137.714 131.032,151.468 C 132.735,159.795 138.882,162.577 154.626,159.686 C 160.657,157.179 166.189,153.713 170.751,156.592 C 170.816,156.613 170.885,156.629 170.938,156.654 C 170.953,156.662 170.984,156.675 171.001,156.685 C 171.043,156.712 171.096,156.755 171.126,156.779 C 171.153,156.803 171.2,156.852 171.22,156.873 C 171.224,156.878 171.243,156.896 171.251,156.904 C 171.256,156.915 171.277,156.955 171.283,156.966 C 171.303,157 171.33,157.054 171.345,157.091 C 171.353,157.113 171.37,157.161 171.377,157.185 C 171.384,157.206 171.402,157.257 171.408,157.279 C 171.409,157.285 171.408,157.303 171.408,157.31 C 171.409,157.357 171.408,157.425 171.408,157.466 C 171.377,159.426 167.488,164.002 172.158,169.56 C 183.855,181.439 195.055,191.868 206.752,203.747 C 209.531,217.567 221.138,215.699 230.283,212.872 C 244.155,208.817 237.943,215.061 243.001,221.778 C 246.943,227.895 256.768,247.706 267.565,224.934 C 274.32,208.445 284.975,201.255 292.22,201.903 C 299.481,201.571 305.023,193.699 303.689,186.028 C 271.42,194.236 229.987,178.772 224.814,109.997 L 57.813,110 L 57.813,110 z"
   id="path2383"
   style="fill:#4d8ac0" />
		<path
   d="M 166.937,199.375 C 156.439,200.06 161.911,235.161 163.062,251.782 C 164.617,268.143 168.264,264.289 179.687,257.157 C 184.94,267.81 181.746,273.763 174.312,280.657 C 168.778,285.887 165.603,293.699 170.406,302.689 C 171.875,305.137 173.108,306.175 174.812,310.033 C 175.955,312.317 177.076,314.622 178.218,316.907 C 179.536,321.959 178.049,325.111 175.843,327.813 C 173.8,330.739 173.406,333.689 176.062,341.782 C 177.511,346.483 173.539,352.096 179.687,357.032 C 182.412,359.148 185.08,360.731 187.812,361.906 C 185.442,355.007 185.372,345.049 186.531,336.5 C 187.314,328.435 187.857,323.42 195.218,317.938 C 201.64,314.649 199.858,297.275 200.406,286.938 C 200.469,286.993 200.558,287.042 200.625,287.094 C 200.617,287.047 200.633,286.983 200.625,286.938 C 214.361,284.037 206.714,273.051 202.5,262.5 L 168.906,199.625 C 168.242,199.441 167.631,199.353 167.062,199.375 C 167.021,199.377 166.979,199.372 166.937,199.375 z"
   id="path2398"
   style="fill:#d6dde3" />
		<path
   d="M 168.906,199.625 L 202.5,262.5 C 206.714,273.05 214.36,284.037 200.625,286.938 C 201.85,294.299 210.954,300.704 221.062,299.844 C 231.576,299.167 239.223,307.028 242.687,314.969 C 243.144,306.212 244.213,297.523 246.343,288.937 C 247.701,284.694 255.394,280.934 248.999,275.282 C 223.1,246.766 198.137,224.349 170.124,200.063 C 169.699,199.878 169.297,199.734 168.906,199.625 z"
   id="path2404"
   style="fill:#608ab4" />
		<path
   d="M 200.406,286.938 C 199.858,297.275 201.64,314.649 195.218,317.938 C 187.857,323.42 187.314,328.435 186.531,336.5 C 185.37,345.061 185.432,355.036 187.812,361.937 C 190.242,362.976 192.731,363.679 195.375,364.125 C 199.821,364.523 202.62,365.622 212,363.906 C 220.213,362.958 225.144,358.948 234.531,357.53 C 239.655,356.524 243.124,354.569 242.844,346.748 C 242.453,336.07 242.137,325.468 242.688,314.967 C 239.224,307.026 231.577,299.164 221.063,299.842 C 211.073,300.693 202.048,294.438 200.657,287.186 C 200.654,287.171 200.66,287.168 200.657,287.155 C 200.652,287.151 200.662,287.128 200.657,287.124 C 200.58,287.059 200.481,287.008 200.406,286.938 L 200.406,286.938 z"
   id="path2407"
   style="fill:#236798" />
		<path
   d="M 338.469,276.531 C 337.607,278.923 336.488,281.06 335.531,284.156 C 335.572,312.342 331.701,320.46 309.218,342.281 C 309.016,342.332 302.587,357.407 297.125,361.344 C 287.91,368.157 288.485,374.334 285.063,381.781 C 282.586,385.547 279.164,386.153 276.688,385.469 C 275.141,384.249 273.578,383.669 272.031,381.813 C 271.933,384.859 272.146,387.632 272.937,390.064 C 272.973,390.135 272.995,390.211 273.031,390.283 C 273.034,390.294 273.028,390.305 273.031,390.314 C 273.465,391.197 273.871,392.088 274.281,392.97 C 274.303,393.006 274.321,393.029 274.343,393.064 C 274.347,393.072 274.339,393.087 274.343,393.095 C 274.715,393.675 275.143,394.234 275.625,394.751 C 275.478,394.712 275.336,394.674 275.187,394.626 C 284.625,409.718 297.955,414.438 315.063,408.501 C 324.274,404.483 329.659,400.806 335.375,396.47 C 340.347,391.754 346.263,382.9 336.938,382.314 C 335.609,381.962 334.869,381.618 334.5,381.251 C 334.486,381.237 334.449,381.202 334.438,381.189 C 334.402,381.147 334.371,381.076 334.344,381.033 C 334.306,380.969 334.27,380.881 334.251,380.814 C 334.247,380.798 334.223,380.767 334.22,380.752 C 334.215,380.729 334.222,380.682 334.22,380.658 C 334.218,380.635 334.22,380.588 334.22,380.564 C 334.238,379.219 336.797,377.302 334.844,373.407 C 333.509,367.451 339.185,361.821 343.25,360.314 C 340.455,354.2 337.639,348.084 334.844,341.97 C 335.037,337.955 342.934,335.836 341.656,328.345 C 343.936,309.499 347.026,281.529 338.469,276.531 L 338.469,276.531 z"
   id="path2460"
   style="fill:#608ab4" />
		<path
   d="M 288.031,202.312 C 281.276,204.13 273.104,211.411 267.563,224.937 C 265.032,230.274 262.548,233.272 260.188,234.656 C 260.424,257.905 265.947,274.457 277.375,283.531 C 273.986,296.981 270.607,315.523 276.75,326.749 C 266.371,323.466 270.603,344.334 267.532,353.124 C 262.342,367.74 257.778,367.103 252.907,368.374 C 257.355,373.457 263.079,378.853 271.657,382.03 C 271.658,382.047 271.654,382.076 271.657,382.092 C 271.674,382.167 271.736,382.266 271.782,382.342 C 272.421,383.313 275.298,384.369 276.688,385.466 C 279.164,386.15 282.586,385.544 285.063,381.778 C 288.485,374.331 287.91,368.154 297.125,361.341 C 302.46,357.496 308.741,342.999 309.218,342.278 C 290.984,332.03 282.364,312.501 285.312,293.684 C 286.16,288.494 289.554,282.676 285,274.309 C 279.554,251.319 283.022,224.567 288.031,202.312 z"
   id="path2468"
   style="fill:#236798" />
	</g>
</g>
<path
   d="M 138.8916,507.41647 C 139.29089,507.78723 139.29089,509.08775 138.8916,509.45851 C 135.56045,509.39691 133.62679,509.33531 130.29564,509.33531 C 126.89718,509.33531 124.89849,509.39805 121.63351,509.45851 C 121.23308,509.08775 121.23308,507.78723 121.63351,507.41647 C 126.29826,507.23052 127.43108,506.92136 127.43108,501.78432 L 127.43108,476.96953 C 127.43108,471.83363 126.29826,471.52447 121.63351,471.33738 C 121.23308,470.96661 121.23308,469.6661 121.63351,469.29534 C 124.96466,469.35808 126.89718,469.41854 130.22947,469.41854 C 133.62793,469.41854 135.62662,469.35694 138.8916,469.29534 C 139.29089,469.6661 139.29089,470.96661 138.8916,471.33738 C 134.22685,471.52333 133.09403,471.83363 133.09403,476.96953 L 133.09403,501.78432 C 133.09403,506.9225 134.22685,507.23052 138.8916,507.41647 z M 160.27827,507.41647 C 160.6787,507.78723 160.6787,509.08775 160.27827,509.45851 C 156.94598,509.39691 155.01346,509.33531 151.68231,509.33531 C 148.28385,509.33531 146.28516,509.39805 143.02018,509.45851 C 142.61975,509.08775 142.61975,507.78723 143.02018,507.41647 C 147.68493,507.23052 148.81775,506.92136 148.81775,501.78432 L 148.81775,476.96953 C 148.81775,471.83363 147.68493,471.52447 143.02018,471.33738 C 142.61975,470.96661 142.61975,469.6661 143.02018,469.29534 C 146.35133,469.35808 148.28385,469.41854 151.61614,469.41854 C 155.0146,469.41854 157.01329,469.35694 160.27941,469.29534 C 160.67984,469.6661 160.67984,470.96661 160.27941,471.33738 C 155.61466,471.52333 154.48184,471.83363 154.48184,476.96953 L 154.48184,487.84254 C 156.81365,487.65659 158.20657,486.74623 159.54588,485.44685 L 170.7406,474.55559 C 173.94626,471.25068 171.2802,471.54728 168.87424,471.33738 C 168.47496,470.96661 168.47496,469.6661 168.87424,469.29534 C 172.00689,469.35808 173.73863,469.41854 176.40469,469.41854 C 179.07075,469.41854 179.60351,469.35694 182.73502,469.29534 C 183.13544,469.6661 183.13544,470.96661 182.73502,471.33738 C 180.0701,471.64653 177.13823,471.77088 174.07289,474.80314 L 164.74452,484.14633 C 162.56559,486.33097 162.2781,486.74509 162.2781,487.17859 C 162.2781,487.67484 162.47775,488.10607 163.07781,488.72552 L 177.67098,504.81544 C 179.90924,507.39023 182.34144,507.25448 183.53472,507.41419 C 183.93514,507.78495 183.93514,509.08547 183.53472,509.45623 C 180.40321,509.39463 179.40273,509.33302 176.80511,509.33302 C 174.80642,509.33302 173.67246,509.39577 172.34,509.45623 C 172.07306,509.45623 172.00689,509.27028 172.00689,509.08547 C 172.00689,507.9595 172.00004,506.31217 170.67443,504.81544 L 159.81282,492.56319 C 158.48036,490.97177 156.72124,490.2793 154.48184,490.2177 L 154.48184,501.78318 C 154.4807,506.9225 155.61466,507.23052 160.27827,507.41647 z M 205.18606,507.41647 C 205.58762,507.78723 205.58762,509.08775 205.18606,509.45851 C 201.85491,509.39691 199.92238,509.33531 196.59009,509.33531 C 193.19164,509.33531 191.19409,509.39805 187.92796,509.45851 C 187.52754,509.08775 187.52754,507.78723 187.92796,507.41647 C 192.59271,507.23052 193.72439,506.92136 193.72439,501.78432 L 193.72439,476.96953 C 193.72439,471.83363 192.59271,471.52447 187.92796,471.33738 C 187.52754,470.96661 187.52754,469.6661 187.92796,469.29534 C 191.26025,469.35808 193.19164,469.41854 196.52279,469.41854 C 199.92124,469.41854 201.92107,469.35694 205.18606,469.29534 C 205.58762,469.6661 205.58762,470.96661 205.18606,471.33738 C 200.52245,471.52333 199.38849,471.83363 199.38849,476.96953 L 199.38849,501.78432 C 199.38849,506.9225 200.52245,507.23052 205.18606,507.41647 z M 234.72492,509.33531 L 210.44859,509.33531 C 209.51655,509.33531 209.18344,509.02615 209.18344,508.40783 C 209.18344,507.97433 209.31691,507.48036 209.71619,506.98411 L 235.6387,473.50491 C 235.97068,473.07254 236.17146,472.70064 236.17146,472.39148 C 236.17146,472.01958 235.97068,471.89523 235.50523,471.89523 L 220.11121,471.89523 C 215.11334,471.89523 213.91322,474.98909 212.51459,479.25913 L 210.5159,478.94997 C 211.04865,476.41282 211.71488,471.95797 211.98183,468.61542 C 214.44711,468.80137 214.24747,469.41968 217.37784,469.41968 L 238.76793,469.41968 C 240.83393,469.23487 242.16639,468.80137 242.96609,468.80137 C 244.23239,468.80137 244.49934,468.98618 244.49934,469.41968 C 244.49934,470.10074 244.23353,471.02822 242.90107,472.76224 L 217.91402,504.87932 C 217.57976,505.43603 217.37898,505.8068 217.37898,506.1171 C 217.37898,506.67267 217.91402,506.92136 219.0457,506.92136 L 234.57091,506.92136 C 239.63494,506.92136 241.56747,503.26965 242.90107,498.8148 L 244.96707,499.12396 C 244.1685,502.34103 243.50227,505.99275 243.16802,509.45851 C 243.16688,509.45851 236.52397,509.33531 234.72492,509.33531 z M 276.54797,469.29648 C 279.68062,469.35922 282.27823,469.41968 283.81147,469.41968 C 285.34471,469.41968 287.00915,469.35808 289.67635,469.29648 C 290.07563,469.66724 290.07563,470.96776 289.67635,471.33852 C 285.27855,471.83477 284.40469,474.16657 283.12585,477.09388 L 269.35177,508.65425 C 268.96618,509.53837 268.48476,510.07797 267.75236,510.07797 C 267.08613,510.07797 266.62068,509.62051 266.2214,508.65425 L 253.05994,476.97067 C 251.1605,472.45308 250.89469,471.64882 247.09581,471.33852 C 246.69539,470.96776 246.62922,469.66724 247.0285,469.29648 C 250.16115,469.35922 251.29283,469.41968 253.95775,469.41968 C 256.55764,469.41968 258.88831,469.35808 262.02096,469.29648 C 262.42138,469.66724 262.42138,470.96776 262.02096,471.33852 C 257.48854,471.77202 257.10295,472.60709 258.64988,476.28961 L 269.25024,501.4763 L 269.55826,501.4763 L 280.0799,476.66037 C 281.50591,473.295 281.47967,471.64768 276.54797,471.33852 C 276.14869,470.96776 276.14869,469.66724 276.54797,469.29648 z M 310.78125,468.625 C 298.85414,468.625 290.34376,478.02722 290.34375,490.15625 C 290.34375,502.34689 299.72585,509.96876 311.1875,509.96875 C 323.91432,509.96875 332.24887,501.3442 332.25,488.96875 C 332.25,476.71537 322.44371,468.62501 310.78125,468.625 z M 309.9375,470.71875 C 318.99891,470.71875 325.84374,477.28569 325.84375,490.15625 C 325.84375,501.23347 320.12674,507.84375 312.53125,507.84375 C 304.53421,507.84375 296.75001,500.97523 296.75,489.09375 C 296.75,476.09884 303.87183,470.71874 309.9375,470.71875 z M 352.71875,469 C 351.05204,469 346.90645,469.40624 344.375,469.40625 C 341.04157,469.40625 339.11239,469.34398 335.78125,469.28125 C 335.37969,469.65201 335.37968,470.97299 335.78125,471.34375 C 340.44486,471.53084 341.56249,471.83284 341.5625,476.96875 L 341.5625,501.78125 C 341.5625,506.91829 340.44485,507.2203 335.78125,507.40625 C 335.37969,507.77701 335.37968,509.098 335.78125,509.46875 C 339.04623,509.40829 341.03904,509.34376 344.4375,509.34375 C 347.77093,509.34375 349.70009,509.40716 353.03125,509.46875 C 353.43281,509.09799 353.4328,507.77701 353.03125,507.40625 C 348.36764,507.2203 347.25115,506.92058 347.25,501.78125 L 347.25,491.3125 C 352.84678,491.3125 354.07753,492.24438 355.03125,493.6875 L 362.15625,504.4375 C 364.06824,507.32031 366.97136,509.93749 370.96875,509.9375 C 371.96924,509.9375 373.08376,509.8404 373.75,509.53125 C 373.98386,509.10344 373.95445,508.52635 373.6875,508.03125 C 370.6906,508.03125 369.01527,505.96671 367.28125,503.28125 L 358.90625,490.28125 C 361.77195,489.41537 367.75,486.18439 367.75,479.6875 C 367.75,476.59364 366.61674,474.0724 364.21875,471.96875 C 361.01994,469.18405 356.91692,468.99999 352.71875,469 z M 352.78125,471.09375 C 356.84594,471.09375 361.62501,472.44771 361.625,479.75 C 361.625,487.48465 356.90129,489.21874 350.4375,489.21875 L 347.25,489.21875 L 347.25,475.0625 C 347.25,473.26801 348.04805,471.09374 352.78125,471.09375 z M 122.93078,456.00759 C 122.93078,456.31783 122.82737,456.60134 122.62054,456.85812 C 122.44044,457.11607 122.23362,457.24505 122.00123,457.24505 C 120.09566,457.42398 118.53635,458.04329 117.32562,459.09949 C 116.11489,460.13128 114.86465,462.1147 113.57723,465.05206 L 93.865074,509.4599 C 93.7361,509.87239 93.375901,510.07805 92.783317,510.07805 C 92.319705,510.07805 91.958345,509.87239 91.700396,509.4599 L 80.64811,486.34793 L 67.931938,509.4599 C 67.67399,509.87239 67.313791,510.07805 66.850181,510.07805 C 66.283158,510.07805 65.909016,509.87239 65.728917,509.4599 L 46.365339,465.05206 C 45.154607,462.2948 43.878807,460.37645 42.5391,459.29353 C 41.199394,458.18505 39.331009,457.503 36.933945,457.24505 C 36.728284,457.24505 36.535403,457.14164 36.354143,456.93482 C 36.174043,456.70243 36.083412,456.44448 36.083412,456.16213 C 36.083412,455.44057 36.289075,455.07921 36.701559,455.07921 C 38.428189,455.07921 40.231506,455.15589 42.112672,455.31159 C 43.864863,455.46613 45.513644,455.54282 47.060174,455.54166 C 48.632266,455.54282 50.486708,455.46613 52.625822,455.31159 C 54.867187,455.15589 56.851765,455.07921 58.578395,455.07921 C 58.989718,455.07921 59.196542,455.44057 59.196542,456.16213 C 59.196542,456.88253 59.067568,457.24505 58.809619,457.24505 C 57.082989,457.37286 55.71772,457.8109 54.71265,458.55803 C 53.733142,459.30631 53.24397,460.28466 53.24397,461.4954 C 53.24397,462.11353 53.449631,462.88622 53.862117,463.8146 L 69.863067,499.95182 L 78.944719,482.79126 L 70.481214,465.0509 C 68.961408,461.88115 67.711171,459.84661 66.731664,458.94379 C 65.752155,458.01657 64.270694,457.44954 62.287278,457.24389 C 62.107178,457.24389 61.925918,457.13931 61.745818,456.93365 C 61.591281,456.70126 61.513432,456.44332 61.514594,456.16097 C 61.514594,455.43941 61.694693,455.07805 62.054892,455.07805 C 63.781521,455.07805 65.366395,455.15473 66.809513,455.31043 C 68.200344,455.46497 69.681807,455.54049 71.253899,455.54049 C 72.800429,455.54049 74.436427,455.46381 76.163056,455.31043 C 77.940811,455.15473 79.693003,455.07805 81.41847,455.07805 C 81.830956,455.07805 82.037779,455.43941 82.037779,456.16097 C 82.037779,456.88136 81.908804,457.24389 81.650856,457.24389 C 78.198759,457.47395 76.47213,458.45462 76.47213,460.18008 C 76.47213,460.95277 76.871834,462.15072 77.670081,463.77509 L 83.272911,475.13763 L 88.839723,464.74066 C 89.612407,463.27199 89.99933,462.03569 89.99933,461.03178 C 89.99933,458.66144 88.2727,457.39843 84.819442,457.24389 C 84.510369,457.24389 84.356993,456.88136 84.356993,456.16097 C 84.356993,455.90302 84.433681,455.65785 84.589379,455.42546 C 84.742755,455.19424 84.898454,455.07805 85.051828,455.07805 C 86.289284,455.07805 87.807928,455.15473 89.612407,455.31043 C 91.339036,455.46497 92.756592,455.54049 93.863912,455.54049 C 94.662158,455.54049 95.834546,455.47659 97.381077,455.34878 C 99.33893,455.16751 100.97493,455.07805 102.29023,455.07805 C 102.5993,455.07805 102.75268,455.38828 102.75268,456.00527 C 102.75268,456.83023 102.46917,457.24272 101.90331,457.24272 C 99.894334,457.44838 98.269954,458.00146 97.032497,458.90428 C 95.821765,459.80594 94.30196,461.85442 92.471919,465.04974 L 85.051828,478.76982 L 95.100207,499.25466 L 109.94155,464.74066 C 110.45629,463.47881 110.71424,462.3192 110.71424,461.26184 C 110.71424,458.73696 108.9876,457.39843 105.53551,457.24389 C 105.22527,457.24389 105.07074,456.88136 105.07074,456.16097 C 105.07074,455.43941 105.30312,455.07805 105.76789,455.07805 C 107.02975,455.07805 108.524,455.15473 110.25062,455.31043 C 111.84828,455.46497 113.18799,455.54049 114.26974,455.54049 C 115.40378,455.54049 116.71676,455.46381 118.21217,455.31043 C 119.7587,455.15473 121.1507,455.07805 122.38699,455.07805 C 122.74951,455.08037 122.93078,455.38945 122.93078,456.00759"
   id="path2416" />
</svg>