<?xml version="1.0" encoding="utf-8"?>
<!-- Generator: Adobe Illustrator 16.0.0, SVG Export Plug-In . SVG Version: 6.00 Build 0)  -->
<!DOCTYPE svg PUBLIC "-//W3C//DTD SVG 1.1//EN" "http://www.w3.org/Graphics/SVG/1.1/DTD/svg11.dtd">
<svg version="1.1"
	 id="svg1325" xmlns:inkscape="http://www.inkscape.org/namespaces/inkscape" xmlns:dc="http://purl.org/dc/elements/1.1/" xmlns:svg="http://www.w3.org/2000/svg" xmlns:sodipodi="http://sodipodi.sourceforge.net/DTD/sodipodi-0.dtd" xmlns:rdf="http://www.w3.org/1999/02/22-rdf-syntax-ns#" xmlns:cc="http://creativecommons.org/ns#" inkscape:output_extension="org.inkscape.output.svg.inkscape" sodipodi:docname="Wikisource-logo-vi.svg" inkscape:version="0.48.4 r" sodipodi:version="0.32"
	 xmlns="http://www.w3.org/2000/svg" xmlns:xlink="http://www.w3.org/1999/xlink" x="0px" y="0px" width="410px" height="513px"
	 viewBox="0 0 410 513" enable-background="new 0 0 410 513" xml:space="preserve">
<defs>
	
	
		<inkscape:perspective  inkscape:vp_z="410 : 215 : 1" inkscape:vp_x="0 : 215 : 1" inkscape:vp_y="0 : 1000 : 0" sodipodi:type="inkscape:persp3d" id="perspective21" inkscape:persp3d-origin="205 : 143.33333 : 1">
		</inkscape:perspective>
	
		<inkscape:perspective  inkscape:vp_z="744.09448 : 526.18109 : 1" inkscape:vp_x="0 : 526.18109 : 1" inkscape:vp_y="0 : 1000 : 0" sodipodi:type="inkscape:persp3d" id="perspective2458" inkscape:persp3d-origin="372.04724 : 350.78739 : 1">
		</inkscape:perspective>
	
		<inkscape:perspective  inkscape:vp_z="200 : 100 : 1" inkscape:vp_x="0 : 100 : 1" inkscape:vp_y="0 : 1000 : 0" sodipodi:type="inkscape:persp3d" id="perspective2716" inkscape:persp3d-origin="100 : 66.666667 : 1">
		</inkscape:perspective>
	
		<inkscape:perspective  inkscape:vp_z="744.09448 : 526.18109 : 1" inkscape:vp_x="0 : 526.18109 : 1" inkscape:vp_y="0 : 1000 : 0" sodipodi:type="inkscape:persp3d" id="perspective2534" inkscape:persp3d-origin="372.04724 : 350.78739 : 1">
		</inkscape:perspective>
	
		<inkscape:perspective  inkscape:vp_z="200 : 100 : 1" inkscape:vp_x="0 : 100 : 1" inkscape:vp_y="0 : 1000 : 0" sodipodi:type="inkscape:persp3d" id="perspective97" inkscape:persp3d-origin="100 : 66.666667 : 1">
		</inkscape:perspective>
</defs>
<sodipodi:namedview  fit-margin-left="0" showguides="true" showgrid="false" fit-margin-top="0" inkscape:zoom="0.861235" inkscape:cx="205.28118" inkscape:cy="153.73762" borderopacity="1.0" bordercolor="#666666" pagecolor="#ffffff" id="base" fit-margin-bottom="0" fit-margin-right="0" inkscape:window-maximized="1" inkscape:guide-bbox="true" inkscape:current-layer="layer2" inkscape:window-y="0" inkscape:window-x="0" inkscape:pageopacity="0.0" inkscape:pageshadow="2" inkscape:window-width="1440" inkscape:window-height="852">
	</sodipodi:namedview>
<g id="g3126" transform="translate(-3.13125e-5,1.7086299)">
	<g id="g2492" transform="matrix(1.005595,0,0,1.000506,-0.942714,-0.217568)">
		<path id="path1334" inkscape:connector-curvature="0" fill="#608AB4" d="M203.5,0.219C135.607,0.673,75.523,36.175,38.781,90.406
			h332.031c-36.98-54.582-97.566-90.187-166-90.187C204.373,0.219,203.939,0.216,203.5,0.219z"/>
		<path id="path2488" inkscape:connector-curvature="0" fill="#375493" d="M27,110C10.418,141.083,0.938,176.917,0.938,215.093
			C0.938,333.714,92.283,430,204.812,430s203.844-96.286,203.844-214.907c0-38.176-9.449-74.011-26.031-105.093H27z"/>
		<path id="path2361" inkscape:connector-curvature="0" fill="#D6DDE3" d="M38.781,90.406C34.523,96.691,30.608,103.237,27,110
			h355.625c-3.608-6.763-7.554-13.309-11.813-19.594H38.781z"/>
		<path id="path2219" inkscape:connector-curvature="0" fill="#7BBCE5" d="M291.875,24.313c-0.847,0.014-1.756,0.204-2.718,0.5
			c-9.082,14.57-9.055,62.841-8.938,73.281c0.019,0.004,0.043-0.004,0.062,0c13.444,2.997,31.245-0.444,31.844-13.375
			c1.027-17.041,2.054-33.569-6.938-44.187c-8.221,3.768-6.66-11.481-10-14.907C294.354,24.667,293.195,24.29,291.875,24.313z"/>
		<path id="path2230" inkscape:connector-curvature="0" fill="#FFFFFF" d="M289.157,24.812c-4.79,1.471-10.618,5.837-13.501,7.25
			c-2.507,0.269-7.157,0.074-10.625,0.969c-7.455,1.923-14.24,6.499-18.156,13.687c-5.058-14.763-15.912,3.392-28.781,13.844
			c-7.129-5.395-21.49-16.157-34.656-23.094c-10.59,5.395-21.689,23.615-28.281,25.156c-6.851,1.285-16.506,0.525-20.531,5.406
			c-6.679,6.936-8.747,14.894-10.031,22.344c15.671,5.566,32.11,5.735,47.781,3.594c8.906-2.141,15.244,0.874,24.406,0.531
			c27.81,1.198,57.931-2.211,83.437,3.593C280.102,87.653,280.075,39.382,289.157,24.812z"/>
		<path id="path2221" sodipodi:nodetypes="cccccc" inkscape:connector-curvature="0" fill="#7BBCE5" d="M196.272,53.898
			c3.345,10.105,6.245,20.21,5.138,30.314c-1.199,6.251,1.456,5.823,6.423,3.34c4.881-2.654,7.451-5.566,14.643-7.964
			c5.566-1.541,1.628-5.652-1.027-8.478C213.51,63.559,204.876,58.786,196.272,53.898L196.272,53.898z"/>
		<path id="path2364" inkscape:connector-curvature="0" fill="#294584" d="M224.812,110c5.852,77.793,58.105,87.349,91.001,71.625
			c-16.448-16.266-10.482-49.416,7.062-49.781c32.452-0.79,23.212,59.826,23.219,89.25c17.743-3.608,16.58-70.739,12.813-111.094
			H224.812z"/>
		
			<path id="path2370" sodipodi:nodetypes="cccccccccccccccccccccccccccccssssssssssscccccc" inkscape:connector-curvature="0" fill="#E0E9EA" d="
			M56.75,110c0.638,6.697,1.268,13.397,1.906,20.093c4.292,7.859,7.484,15.704,6.594,23.563c8.479-2.09,13.532-3.182,18.094,5.5
			c19.953,12.423,38.906,13.905,57.563,12.062c3.793,45.141,2.687,81.451,1.093,135.407c11.331,18.824,22.669,36.676,34,55.499
			c6.507,11.445,17.92,15.059,26.875,1.531c7.676-3.472,15.323-6.933,22.999-10.406c0,3.838,0,7.662,0,11.5
			c11.789,2.965,23.449,7.479,18.094,19.75c-4.074,7.926-1.781,11.451,9.812,6.156c10.242-4.989,16.562,2.748,21.907,4.125
			c-7.619-8.115-1.062-24.091-0.822-40.592c10.934-0.998,23.419-10.909,34.353-11.908c22.483-21.821,26.354-29.939,26.313-58.125
			c2.259-7.311,5.502-9.241,3.844-21.938c1.279-7.858,3.065-18.141,4.344-26c0.876-5.143,1.72-10.179,2.563-15.156
			c-0.061,0.014-0.126,0.019-0.188,0.031c-0.007-29.424,9.233-90.04-23.219-89.25c-17.544,0.366-23.51,33.516-7.062,49.781
			c-3.814,1.823-7.894,3.33-12.126,4.406c1.334,7.671-4.207,15.543-11.468,15.875c-7.246-0.648-17.901,6.542-24.656,23.031
			c-10.797,22.771-20.621,2.96-24.563-3.157c-5.059-6.717,1.153-12.961-12.719-8.906c-9.144,2.828-20.751,4.695-23.531-9.125
			c-11.696-11.879-22.897-22.309-34.594-34.188c-4.67-5.558-0.78-10.134-0.75-12.094c0-0.041,0.001-0.109,0-0.156
			c0-0.007,0.001-0.025,0-0.031c-0.006-0.022-0.024-0.073-0.031-0.094c-0.006-0.024-0.023-0.071-0.031-0.094
			c-0.015-0.037-0.042-0.091-0.063-0.125c-0.005-0.011-0.026-0.051-0.031-0.062c-0.008-0.008-0.027-0.026-0.031-0.031
			c-0.02-0.021-0.067-0.069-0.094-0.094c-0.03-0.023-0.083-0.066-0.125-0.094c-0.016-0.01-0.047-0.023-0.063-0.031
			c-0.054-0.025-0.123-0.041-0.187-0.062c-4.562-2.879-10.094,0.587-16.125,3.094c-15.743,2.891-21.891,0.108-23.594-8.219
			c0.093-13.755-7.644-12.32-20.282-10.406c-36.428,5.19-42.318-7.704-52.937-31.062H56.75z"/>
		<path id="path2383" inkscape:connector-curvature="0" fill="#4D8AC0" d="M57.813,110c10.619,23.359,16.51,36.252,52.937,31.062
			c12.638-1.914,20.374-3.348,20.282,10.406c1.703,8.327,7.85,11.109,23.594,8.218c6.031-2.507,11.563-5.973,16.125-3.094
			c0.065,0.021,0.134,0.037,0.187,0.062c0.015,0.008,0.046,0.021,0.063,0.031c0.042,0.027,0.095,0.07,0.125,0.094
			c0.027,0.024,0.074,0.073,0.094,0.094c0.004,0.005,0.023,0.023,0.031,0.031c0.005,0.011,0.026,0.051,0.032,0.062
			c0.02,0.034,0.047,0.088,0.062,0.125c0.008,0.022,0.025,0.07,0.032,0.094c0.007,0.021,0.025,0.072,0.031,0.094
			c0.001,0.006,0,0.024,0,0.031c0.001,0.047,0,0.115,0,0.156c-0.031,1.96-3.92,6.536,0.75,12.094
			c11.697,11.879,22.897,22.308,34.594,34.187c2.779,13.82,14.386,11.952,23.531,9.125c13.872-4.055,7.66,2.189,12.718,8.906
			c3.942,6.117,13.767,25.928,24.564,3.156c6.755-16.489,17.41-23.679,24.655-23.031c7.261-0.332,12.803-8.204,11.469-15.875
			c-32.269,8.208-73.702-7.256-78.875-76.031L57.813,110L57.813,110z"/>
		<path id="path2398" inkscape:connector-curvature="0" fill="#D6DDE3" d="M166.937,199.375
			c-10.498,0.685-5.026,35.786-3.875,52.407c1.555,16.361,5.202,12.507,16.625,5.375c5.253,10.653,2.059,16.606-5.375,23.5
			c-5.534,5.23-8.709,13.042-3.906,22.032c1.469,2.448,2.702,3.486,4.406,7.344c1.143,2.284,2.264,4.589,3.406,6.874
			c1.318,5.052-0.169,8.204-2.375,10.906c-2.043,2.926-2.437,5.876,0.219,13.969c1.449,4.701-2.523,10.314,3.625,15.25
			c2.725,2.116,5.393,3.699,8.125,4.874c-2.37-6.899-2.44-16.857-1.281-25.406c0.783-8.065,1.326-13.08,8.687-18.562
			c6.422-3.289,4.64-20.663,5.188-31c0.063,0.055,0.152,0.104,0.219,0.156c-0.008-0.047,0.008-0.111,0-0.156
			c13.736-2.901,6.089-13.887,1.875-24.438l-33.594-62.875c-0.664-0.184-1.275-0.272-1.844-0.25
			C167.021,199.377,166.979,199.372,166.937,199.375z"/>
		<path id="path2404" inkscape:connector-curvature="0" fill="#608AB4" d="M168.906,199.625L202.5,262.5
			c4.214,10.55,11.86,21.537-1.875,24.438c1.225,7.361,10.329,13.766,20.437,12.906c10.514-0.677,18.161,7.184,21.625,15.125
			c0.457-8.757,1.526-17.446,3.656-26.032c1.358-4.243,9.051-8.003,2.656-13.655c-25.899-28.516-50.862-50.933-78.875-75.219
			C169.699,199.878,169.297,199.734,168.906,199.625z"/>
		<path id="path2407" inkscape:connector-curvature="0" fill="#236798" d="M200.406,286.938c-0.548,10.337,1.234,27.711-5.188,31
			c-7.361,5.482-7.904,10.497-8.687,18.562c-1.161,8.561-1.099,18.536,1.281,25.437c2.43,1.039,4.919,1.742,7.563,2.188
			c4.446,0.398,7.245,1.497,16.625-0.219c8.213-0.948,13.144-4.958,22.531-6.376c5.124-1.006,8.593-2.961,8.313-10.782
			c-0.391-10.678-0.707-21.28-0.156-31.781c-3.464-7.941-11.111-15.803-21.625-15.125c-9.99,0.851-19.015-5.404-20.406-12.656
			c-0.003-0.015,0.003-0.018,0-0.031c-0.005-0.004,0.005-0.027,0-0.031C200.58,287.059,200.481,287.008,200.406,286.938
			L200.406,286.938z"/>
		<path id="path2460" sodipodi:nodetypes="ccccccccssssscccccsssssssccccc" inkscape:connector-curvature="0" fill="#608AB4" d="
			M338.469,276.531c-0.862,2.392-1.981,4.529-2.938,7.625c0.041,28.186-3.83,36.304-26.313,58.125
			c-0.202,0.051-6.631,15.126-12.093,19.063c-9.215,6.813-8.64,12.99-12.062,20.437c-2.477,3.766-5.899,4.372-8.375,3.688
			c-1.547-1.22-3.11-1.8-4.657-3.656c-0.098,3.046,0.115,5.819,0.906,8.251c0.036,0.071,0.058,0.147,0.094,0.219
			c0.003,0.011-0.003,0.022,0,0.031c0.434,0.883,0.84,1.774,1.25,2.656c0.022,0.036,0.04,0.059,0.062,0.094
			c0.004,0.008-0.004,0.023,0,0.031c0.372,0.58,0.8,1.139,1.282,1.656c-0.147-0.039-0.289-0.077-0.438-0.125
			c9.438,15.092,22.768,19.812,39.876,13.875c9.211-4.018,14.596-7.695,20.312-12.031c4.972-4.716,10.888-13.57,1.563-14.156
			c-1.329-0.352-2.069-0.696-2.438-1.063c-0.014-0.014-0.051-0.049-0.062-0.062c-0.036-0.042-0.067-0.113-0.094-0.156
			c-0.038-0.064-0.074-0.152-0.093-0.219c-0.004-0.016-0.028-0.047-0.031-0.062c-0.005-0.023,0.002-0.07,0-0.094
			c-0.002-0.023,0-0.07,0-0.094c0.018-1.345,2.577-3.262,0.624-7.157c-1.335-5.956,4.341-11.586,8.406-13.093
			c-2.795-6.114-5.611-12.23-8.406-18.344c0.193-4.015,8.09-6.134,6.812-13.625C343.936,309.499,347.026,281.529,338.469,276.531
			L338.469,276.531z"/>
		<path id="path2468" inkscape:connector-curvature="0" fill="#236798" d="M288.031,202.312
			c-6.755,1.818-14.927,9.099-20.468,22.625c-2.531,5.337-5.015,8.335-7.375,9.719c0.236,23.249,5.759,39.801,17.187,48.875
			c-3.389,13.45-6.768,31.992-0.625,43.218c-10.379-3.283-6.147,17.585-9.218,26.375c-5.19,14.616-9.754,13.979-14.625,15.25
			c4.448,5.083,10.172,10.479,18.75,13.656c0.001,0.017-0.003,0.046,0,0.062c0.017,0.075,0.079,0.174,0.125,0.25
			c0.639,0.971,3.516,2.027,4.906,3.124c2.476,0.684,5.898,0.078,8.375-3.688c3.422-7.447,2.847-13.624,12.062-20.437
			c5.335-3.845,11.616-18.342,12.093-19.063c-18.234-10.248-26.854-29.777-23.906-48.594c0.848-5.19,4.242-11.008-0.312-19.375
			C279.554,251.319,283.022,224.567,288.031,202.312z"/>
	</g>
</g>
<g>
	<path d="M100.526,503.857c0.377,0.35,0.377,1.574,0,1.924c-3.14-0.058-4.96-0.116-8.1-0.116c-3.202,0-5.086,0.059-8.163,0.116
		c-0.376-0.35-0.376-1.574,0-1.924c4.396-0.175,5.463-0.466,5.463-5.306v-23.38c0-4.839-1.067-5.131-5.463-5.306
		c-0.376-0.35-0.376-1.574,0-1.924c3.14,0.059,4.96,0.116,8.1,0.116c3.202,0,5.086-0.058,8.163-0.116
		c0.377,0.35,0.377,1.574,0,1.924c-4.395,0.175-5.463,0.467-5.463,5.306v23.38C95.063,503.392,96.131,503.683,100.526,503.857z"/>
	<path d="M120.679,503.857c0.377,0.35,0.377,1.574,0,1.924c-3.14-0.058-4.96-0.116-8.1-0.116c-3.202,0-5.086,0.059-8.163,0.116
		c-0.376-0.35-0.376-1.574,0-1.924c4.396-0.175,5.463-0.466,5.463-5.306v-23.38c0-4.839-1.067-5.131-5.463-5.306
		c-0.376-0.35-0.376-1.574,0-1.924c3.14,0.059,4.96,0.116,8.1,0.116c3.202,0,5.086-0.058,8.163-0.116
		c0.377,0.35,0.377,1.574,0,1.924c-4.396,0.175-5.463,0.467-5.463,5.306v10.244c2.198-0.175,3.51-1.032,4.772-2.256l10.548-10.262
		c3.021-3.113,0.509-2.834-1.758-3.032c-0.377-0.35-0.377-1.574,0-1.924c2.951,0.059,4.583,0.116,7.095,0.116
		s3.014-0.058,5.965-0.116c0.377,0.35,0.377,1.574,0,1.924c-2.512,0.292-5.274,0.408-8.163,3.266l-8.791,8.804
		c-2.053,2.058-2.323,2.448-2.323,2.856c0,0.467,0.188,0.875,0.753,1.458l13.751,15.159c2.11,2.425,4.401,2.297,5.525,2.448
		c0.377,0.35,0.377,1.574,0,1.924c-2.951-0.058-3.893-0.116-6.342-0.116c-1.883,0-2.951,0.059-4.207,0.116
		c-0.251,0-0.314-0.175-0.314-0.35c0-1.061-0.006-2.612-1.256-4.022l-10.235-11.545c-1.256-1.498-2.914-2.151-5.023-2.209v10.896
		C115.216,503.392,116.283,503.683,120.679,503.857z"/>
	<path d="M162.994,503.857c0.377,0.35,0.377,1.574,0,1.924c-3.14-0.058-4.96-0.116-8.1-0.116c-3.202,0-5.086,0.059-8.163,0.116
		c-0.376-0.35-0.376-1.574,0-1.924c4.396-0.175,5.463-0.466,5.463-5.306v-23.38c0-4.839-1.067-5.131-5.463-5.306
		c-0.376-0.35-0.376-1.574,0-1.924c3.14,0.059,4.96,0.116,8.1,0.116c3.202,0,5.086-0.058,8.163-0.116
		c0.377,0.35,0.377,1.574,0,1.924c-4.395,0.175-5.463,0.467-5.463,5.306v23.38C157.531,503.392,158.599,503.683,162.994,503.857z"/>
	<path d="M182.833,467.942c11.679,0,13.5,5.072,13.5,8.979c0,3.166-2.819,6.157-5.965,7.638v0.117
		c5.463,1.457,9.67,4.664,9.67,10.262c0,5.014-3.328,10.844-15.823,10.844c-5.588,0-6.467-0.116-9.167-0.116
		c-3.202,0-5.086,0.059-8.163,0.116c-0.376-0.35-0.376-1.574,0-1.924c4.396-0.175,5.463-0.466,5.463-5.306v-23.38
		c0-4.839-1.067-5.131-5.463-5.306c-0.376-0.35-0.376-1.574,0-1.924c3.14,0.059,4.96,0.116,8.1,0.116
		C177.684,468.059,180.635,467.942,182.833,467.942z M177.684,484.326h4.646c5.212,0,8.917-1.749,8.917-6.705
		c0-5.947-4.584-7.696-8.1-7.696c-5.463,0-5.463,0.583-5.463,2.507V484.326z M177.684,499.951c0,1.924,0.816,3.906,5.212,3.906
		c9.544,0,11.302-3.557,11.302-7.813c0-5.247-3.579-9.736-12.182-9.736h-4.333V499.951z"/>
	<path d="M219.938,503.857c0.377,0.35,0.377,1.574,0,1.924c-3.14-0.058-4.961-0.116-8.1-0.116c-3.203,0-5.086,0.059-8.163,0.116
		c-0.376-0.35-0.376-1.574,0-1.924c4.396-0.175,5.463-0.466,5.463-5.306v-23.38c0-4.839-1.067-5.131-5.463-5.306
		c-0.376-0.35-0.376-1.574,0-1.924c3.14,0.059,4.96,0.116,8.1,0.116c2.387,0,6.279-0.407,7.849-0.407
		c3.956,0,7.85,0.175,10.863,2.798c2.26,1.982,3.328,4.373,3.328,7.288c0,6.122-5.651,9.154-8.352,9.97l7.911,12.244
		c1.633,2.53,3.203,4.489,6.028,4.489c0.251,0.467,0.282,0.997,0.063,1.399c-0.628,0.292-1.695,0.408-2.637,0.408
		c-3.768,0-6.486-2.472-8.288-5.189l-6.719-10.145c-0.898-1.358-2.072-2.216-7.347-2.216v9.854
		C214.475,503.392,215.542,503.683,219.938,503.857z M214.475,473.364v13.352h3.014c6.091,0,10.549-1.632,10.549-8.92
		c0-6.88-4.521-8.163-8.351-8.163C215.229,469.633,214.475,471.674,214.475,473.364z"/>
	<path d="M261.438,506.248c-10.8,0-19.653-7.171-19.653-18.657c0-11.428,8.037-20.29,19.276-20.29
		c10.988,0,20.219,7.638,20.219,19.183C281.279,498.144,273.431,506.248,261.438,506.248z M247.812,486.6
		c0,11.194,7.347,17.666,14.882,17.666c7.158,0,12.558-6.238,12.558-16.675c0-12.127-6.467-18.308-15.007-18.308
		C254.53,469.283,247.812,474.355,247.812,486.6z M267.653,460.888l-9.041,3.382c-1.319,0.524-2.072,0.699-2.638,0.699
		s-0.941-0.408-0.941-0.874c0-0.408,0.125-0.7,0.941-1.225l7.786-5.015C265.557,458.631,266.856,459.646,267.653,460.888z"/>
	<path d="M312.983,469.866c-0.377-0.35-0.377-1.574,0-1.924c3.14,0.059,4.27,0.116,6.97,0.116c2.763,0,3.956-0.058,7.032-0.116
		c0.377,0.35,0.377,1.574,0,1.924c-4.395,0.408-5.462,0.758-5.462,5.947v28.627c0,1.108-0.565,1.808-1.444,1.808
		c-1.005,0-1.821-0.524-2.512-1.399l-21.914-25.712c-1.067-1.282-1.758-1.924-2.135-1.924c-0.502,0-0.502,0.874-0.502,2.856v17.841
		c0,5.306,1.067,5.539,5.463,5.947c0.376,0.35,0.376,1.574,0,1.924c-3.14-0.058-4.271-0.116-6.97-0.116
		c-2.763,0-3.956,0.059-7.033,0.116c-0.376-0.35-0.376-1.574,0-1.924c4.396-0.408,5.463-0.758,5.463-5.947v-24.313
		c-0.377-1.516-2.26-3.557-4.96-3.731c-0.377-0.35-0.377-1.574,0-1.924l8.477,0.116l21.537,25.771
		c1.82,2.157,2.512,3.207,3.014,3.207c0.439,0,0.439-0.642,0.439-1.749v-19.474C318.446,470.508,317.379,470.274,312.983,469.866z"
		/>
	<path d="M358.375,469.866c-0.377-0.35-0.377-1.574,0-1.924c3.14,0.059,4.27,0.116,6.97,0.116c2.763,0,3.956-0.058,7.032-0.116
		c0.377,0.35,0.377,1.574,0,1.924c-4.395,0.408-5.462,0.758-5.462,5.947v28.627c0,1.108-0.565,1.808-1.444,1.808
		c-1.005,0-1.821-0.524-2.512-1.399l-21.914-25.712c-1.067-1.282-1.758-1.924-2.135-1.924c-0.502,0-0.502,0.874-0.502,2.856v17.841
		c0,5.306,1.067,5.539,5.463,5.947c0.376,0.35,0.376,1.574,0,1.924c-3.14-0.058-4.271-0.116-6.97-0.116
		c-2.763,0-3.956,0.059-7.033,0.116c-0.376-0.35-0.376-1.574,0-1.924c4.396-0.408,5.463-0.758,5.463-5.947v-24.313
		c-0.376-1.516-2.26-3.557-4.96-3.731c-0.377-0.35-0.377-1.574,0-1.924l8.477,0.116l21.537,25.771
		c1.82,2.157,2.512,3.207,3.014,3.207c0.439,0,0.439-0.642,0.439-1.749v-19.474C363.838,470.508,362.771,470.274,358.375,469.866z"
		/>
	<path d="M397.173,480.652c0.377-0.35,1.695-0.35,2.072,0c-0.063,1.749-0.126,3.032-0.126,5.015s0.063,3.09,0.126,5.131
		c-0.377,0.35-1.695,0.35-2.072,0c-0.188-2.624-0.377-3.965-5.714-3.965h-5.714v14.051c0,1.574,0.879,2.508,2.261,2.508h8.539
		c4.772,0,6.97-3.44,8.226-7.639c0.822-0.187,1.545-0.052,2.197,0.292c-0.502,2.974-1.443,6.821-2.323,9.736
		c0,0-5.022-0.116-8.037-0.116h-13.499c0,0-5.086,0.059-8.163,0.116c-0.377-0.35-0.377-1.574,0-1.924
		c4.396-0.175,5.463-0.466,5.463-5.306v-23.38c0-4.839-1.067-5.131-5.463-5.306c-0.377-0.35-0.377-1.574,0-1.924
		c3.14,0.059,8.1,0.116,8.1,0.116h16.012c1.507,0,2.009-0.058,3.077-0.232c0.188,0,0.251,0.058,0.251,0.175
		c0.125,0.466,1.067,6.063,1.381,8.454c-0.615,0.273-1.293,0.396-2.072,0.291c-1.381-4.022-2.386-6.354-7.095-6.354h-6.593
		c-1.507,0-2.261,1.166-2.261,2.565v11.66h5.714C396.796,484.617,396.984,483.859,397.173,480.652z"/>
</g>
<path id="path3263" inkscape:connector-curvature="0" d="M86.344,455.644c0,0.286-0.096,0.549-0.287,0.787
	c-0.167,0.238-0.358,0.358-0.573,0.358c-1.763,0.165-3.206,0.737-4.326,1.715c-1.12,0.954-2.277,2.789-3.467,5.507l-18.236,41.083
	c-0.119,0.382-0.453,0.572-1,0.572c-0.429,0-0.763-0.19-1.001-0.572l-10.226-21.381l-11.764,21.381
	c-0.238,0.382-0.572,0.572-1.001,0.572c-0.525,0-0.87-0.19-1.037-0.572l-17.914-41.083c-1.121-2.551-2.3-4.326-3.54-5.327
	c-1.24-1.025-2.968-1.656-5.186-1.895c-0.19,0-0.369-0.096-0.536-0.287C6.083,456.287,6,456.049,6,455.787
	c0-0.668,0.19-1.001,0.572-1.001c1.597,0,3.266,0.071,5.005,0.215c1.621,0.143,3.147,0.214,4.577,0.213
	c1.454,0.001,3.17-0.07,5.149-0.213c2.073-0.144,3.909-0.215,5.506-0.215c0.381,0,0.572,0.333,0.572,1.001
	c0,0.667-0.119,1.002-0.357,1.002c-1.597,0.118-2.86,0.523-3.79,1.214c-0.906,0.692-1.358,1.598-1.358,2.718
	c0,0.572,0.19,1.287,0.571,2.146l14.803,33.431l8.402-15.875l-7.83-16.412c-1.406-2.932-2.563-4.815-3.468-5.649
	c-0.906-0.857-2.276-1.383-4.112-1.572c-0.166,0-0.333-0.097-0.5-0.287c-0.143-0.215-0.215-0.453-0.214-0.715
	c0-0.668,0.167-1.001,0.5-1.001c1.597,0,3.063,0.071,4.398,0.215c1.287,0.143,2.657,0.213,4.111,0.213
	c1.43,0,2.944-0.071,4.541-0.213c1.645-0.144,3.266-0.215,4.863-0.215c0.382,0,0.572,0.333,0.572,1.001
	c0,0.667-0.119,1.002-0.358,1.002c-3.194,0.213-4.791,1.12-4.791,2.717c0,0.715,0.37,1.823,1.108,3.325l5.184,10.512l5.149-9.618
	c0.715-1.358,1.073-2.503,1.073-3.432c0-2.193-1.597-3.361-4.792-3.504c-0.286,0-0.428-0.335-0.428-1.002
	c0-0.238,0.071-0.465,0.214-0.68c0.143-0.215,0.286-0.321,0.428-0.321c1.145,0,2.55,0.071,4.219,0.215
	c1.598,0.143,2.909,0.213,3.933,0.213c0.739,0,1.823-0.059,3.254-0.177c1.812-0.168,3.325-0.251,4.541-0.251
	c0.286,0,0.429,0.286,0.429,0.857c0,0.763-0.262,1.146-0.786,1.146c-1.859,0.189-3.361,0.702-4.506,1.536
	c-1.12,0.835-2.526,2.729-4.219,5.686l-6.865,12.692l9.296,18.951l13.73-31.93c0.477-1.168,0.715-2.24,0.715-3.219
	c0-2.336-1.598-3.574-4.791-3.717c-0.287,0-0.43-0.335-0.43-1.002c0-0.668,0.215-1.001,0.645-1.001c1.168,0,2.55,0.071,4.147,0.215
	c1.478,0.143,2.718,0.213,3.718,0.213c1.049,0,2.264-0.071,3.647-0.213c1.431-0.144,2.718-0.215,3.862-0.215
	C86.176,454.786,86.344,455.072,86.344,455.644"/>
</svg>
