<?xml version="1.0" encoding="utf-8"?>
<!-- Generator: Adobe Illustrator 16.0.0, SVG Export Plug-In . SVG Version: 6.00 Build 0)  -->
<!DOCTYPE svg PUBLIC "-//W3C//DTD SVG 1.1//EN" "http://www.w3.org/Graphics/SVG/1.1/DTD/svg11.dtd">
<svg version="1.1"
	 id="svg1325" xmlns:svg="http://www.w3.org/2000/svg" xmlns:rdf="http://www.w3.org/1999/02/22-rdf-syntax-ns#" xmlns:dc="http://purl.org/dc/elements/1.1/" xmlns:sodipodi="http://sodipodi.sourceforge.net/DTD/sodipodi-0.dtd" xmlns:cc="http://creativecommons.org/ns#" xmlns:inkscape="http://www.inkscape.org/namespaces/inkscape" sodipodi:version="0.32" inkscape:version="0.48.4 r" sodipodi:docname="Wikisource-logo-vi.svg" inkscape:output_extension="org.inkscape.output.svg.inkscape"
	 xmlns="http://www.w3.org/2000/svg" xmlns:xlink="http://www.w3.org/1999/xlink" x="0px" y="0px" width="410px" height="513px"
	 viewBox="0 0 410 513" enable-background="new 0 0 410 513" xml:space="preserve">
<defs>
	
	
		<inkscape:perspective  sodipodi:type="inkscape:persp3d" inkscape:vp_z="410 : 215 : 1" inkscape:vp_y="0 : 1000 : 0" inkscape:vp_x="0 : 215 : 1" id="perspective21" inkscape:persp3d-origin="205 : 143.33333 : 1">
		</inkscape:perspective>
	
		<inkscape:perspective  sodipodi:type="inkscape:persp3d" inkscape:vp_z="744.09448 : 526.18109 : 1" inkscape:vp_y="0 : 1000 : 0" inkscape:vp_x="0 : 526.18109 : 1" id="perspective2458" inkscape:persp3d-origin="372.04724 : 350.78739 : 1">
		</inkscape:perspective>
	
		<inkscape:perspective  sodipodi:type="inkscape:persp3d" inkscape:vp_z="200 : 100 : 1" inkscape:vp_y="0 : 1000 : 0" inkscape:vp_x="0 : 100 : 1" id="perspective2716" inkscape:persp3d-origin="100 : 66.666667 : 1">
		</inkscape:perspective>
	
		<inkscape:perspective  sodipodi:type="inkscape:persp3d" inkscape:vp_z="744.09448 : 526.18109 : 1" inkscape:vp_y="0 : 1000 : 0" inkscape:vp_x="0 : 526.18109 : 1" id="perspective2534" inkscape:persp3d-origin="372.04724 : 350.78739 : 1">
		</inkscape:perspective>
	
		<inkscape:perspective  sodipodi:type="inkscape:persp3d" inkscape:vp_z="200 : 100 : 1" inkscape:vp_y="0 : 1000 : 0" inkscape:vp_x="0 : 100 : 1" id="perspective97" inkscape:persp3d-origin="100 : 66.666667 : 1">
		</inkscape:perspective>
</defs>
<sodipodi:namedview  borderopacity="1.0" inkscape:zoom="0.861235" pagecolor="#ffffff" bordercolor="#666666" showguides="true" inkscape:cy="153.73762" inkscape:cx="205.28118" fit-margin-left="0" fit-margin-top="0" showgrid="false" id="base" inkscape:window-height="852" inkscape:window-width="1440" inkscape:pageshadow="2" inkscape:pageopacity="0.0" inkscape:window-x="0" inkscape:window-y="0" inkscape:current-layer="layer2" inkscape:guide-bbox="true" inkscape:window-maximized="1" fit-margin-right="0" fit-margin-bottom="0">
	</sodipodi:namedview>
<g id="g3126" transform="translate(-3.13125e-5,1.7086299)">
	<g id="g2492" transform="matrix(1.005595,0,0,1.000506,-0.942714,-0.217568)">
		<path id="path1334" inkscape:connector-curvature="0" fill="#608AB4" d="M203.5,0.219C135.607,0.673,75.523,36.175,38.781,90.406
			h332.031c-36.98-54.582-97.566-90.187-166-90.187C204.373,0.219,203.939,0.216,203.5,0.219z"/>
		<path id="path2488" inkscape:connector-curvature="0" fill="#375493" d="M27,110C10.418,141.083,0.938,176.917,0.938,215.093
			C0.938,333.714,92.283,430,204.812,430s203.844-96.286,203.844-214.907c0-38.176-9.449-74.011-26.031-105.093H27z"/>
		<path id="path2361" inkscape:connector-curvature="0" fill="#D6DDE3" d="M38.781,90.406C34.523,96.691,30.608,103.237,27,110
			h355.625c-3.608-6.763-7.554-13.309-11.813-19.594H38.781z"/>
		<path id="path2219" inkscape:connector-curvature="0" fill="#7BBCE5" d="M291.875,24.313c-0.847,0.014-1.756,0.204-2.718,0.5
			c-9.082,14.57-9.055,62.841-8.938,73.281c0.019,0.004,0.043-0.004,0.062,0c13.444,2.997,31.245-0.444,31.844-13.375
			c1.027-17.041,2.054-33.569-6.938-44.187c-8.221,3.768-6.66-11.481-10-14.907C294.354,24.667,293.195,24.29,291.875,24.313z"/>
		<path id="path2230" inkscape:connector-curvature="0" fill="#FFFFFF" d="M289.157,24.812c-4.79,1.471-10.618,5.837-13.501,7.25
			c-2.507,0.269-7.157,0.074-10.625,0.969c-7.455,1.923-14.24,6.499-18.156,13.687c-5.058-14.763-15.912,3.392-28.781,13.844
			c-7.129-5.395-21.49-16.157-34.656-23.094c-10.59,5.395-21.689,23.615-28.281,25.156c-6.851,1.285-16.506,0.525-20.531,5.406
			c-6.679,6.936-8.747,14.894-10.031,22.344c15.671,5.566,32.11,5.735,47.781,3.594c8.906-2.141,15.244,0.874,24.406,0.531
			c27.81,1.198,57.931-2.211,83.437,3.593C280.102,87.653,280.075,39.382,289.157,24.812z"/>
		<path id="path2221" sodipodi:nodetypes="cccccc" inkscape:connector-curvature="0" fill="#7BBCE5" d="M196.272,53.898
			c3.345,10.105,6.245,20.21,5.138,30.314c-1.199,6.251,1.456,5.823,6.423,3.34c4.881-2.654,7.451-5.566,14.643-7.964
			c5.566-1.541,1.628-5.652-1.027-8.478C213.51,63.559,204.876,58.786,196.272,53.898L196.272,53.898z"/>
		<path id="path2364" inkscape:connector-curvature="0" fill="#294584" d="M224.812,110c5.852,77.793,58.105,87.349,91.001,71.625
			c-16.448-16.266-10.482-49.416,7.062-49.781c32.452-0.79,23.212,59.826,23.219,89.25c17.743-3.608,16.58-70.739,12.813-111.094
			H224.812z"/>
		
			<path id="path2370" sodipodi:nodetypes="cccccccccccccccccccccccccccccssssssssssscccccc" inkscape:connector-curvature="0" fill="#E0E9EA" d="
			M56.75,110c0.638,6.697,1.268,13.397,1.906,20.093c4.292,7.859,7.484,15.704,6.594,23.563c8.479-2.09,13.532-3.182,18.094,5.5
			c19.953,12.423,38.906,13.905,57.563,12.062c3.793,45.141,2.687,81.451,1.093,135.407c11.331,18.824,22.669,36.676,34,55.499
			c6.507,11.445,17.92,15.059,26.875,1.531c7.676-3.472,15.323-6.933,22.999-10.406c0,3.838,0,7.662,0,11.5
			c11.789,2.965,23.449,7.479,18.094,19.75c-4.074,7.926-1.781,11.451,9.812,6.156c10.242-4.989,16.562,2.748,21.907,4.125
			c-7.619-8.115-1.062-24.091-0.822-40.592c10.934-0.998,23.419-10.909,34.353-11.908c22.483-21.821,26.354-29.939,26.313-58.125
			c2.259-7.311,5.502-9.241,3.844-21.938c1.279-7.858,3.065-18.141,4.344-26c0.876-5.143,1.72-10.179,2.563-15.156
			c-0.061,0.014-0.126,0.019-0.188,0.031c-0.007-29.424,9.233-90.04-23.219-89.25c-17.544,0.366-23.51,33.516-7.062,49.781
			c-3.814,1.823-7.894,3.33-12.126,4.406c1.334,7.671-4.207,15.543-11.468,15.875c-7.246-0.648-17.901,6.542-24.656,23.031
			c-10.797,22.771-20.621,2.96-24.563-3.157c-5.059-6.717,1.153-12.961-12.719-8.906c-9.144,2.828-20.751,4.695-23.531-9.125
			c-11.696-11.879-22.897-22.309-34.594-34.188c-4.67-5.558-0.78-10.134-0.75-12.094c0-0.041,0.001-0.109,0-0.156
			c0-0.007,0.001-0.025,0-0.031c-0.006-0.022-0.024-0.073-0.031-0.094c-0.006-0.024-0.023-0.071-0.031-0.094
			c-0.015-0.037-0.042-0.091-0.063-0.125c-0.005-0.011-0.026-0.051-0.031-0.062c-0.008-0.008-0.027-0.026-0.031-0.031
			c-0.02-0.021-0.067-0.069-0.094-0.094c-0.03-0.023-0.083-0.066-0.125-0.094c-0.016-0.01-0.047-0.023-0.063-0.031
			c-0.054-0.025-0.123-0.041-0.187-0.062c-4.562-2.879-10.094,0.587-16.125,3.094c-15.743,2.891-21.891,0.108-23.594-8.219
			c0.093-13.755-7.644-12.32-20.282-10.406c-36.428,5.19-42.318-7.704-52.937-31.062H56.75z"/>
		<path id="path2383" inkscape:connector-curvature="0" fill="#4D8AC0" d="M57.813,110c10.619,23.359,16.51,36.252,52.937,31.062
			c12.638-1.914,20.374-3.348,20.282,10.406c1.703,8.327,7.85,11.109,23.594,8.218c6.031-2.507,11.563-5.973,16.125-3.094
			c0.065,0.021,0.134,0.037,0.187,0.062c0.015,0.008,0.046,0.021,0.063,0.031c0.042,0.027,0.095,0.07,0.125,0.094
			c0.027,0.024,0.074,0.073,0.094,0.094c0.004,0.005,0.023,0.023,0.031,0.031c0.005,0.011,0.026,0.051,0.032,0.062
			c0.02,0.034,0.047,0.088,0.062,0.125c0.008,0.022,0.025,0.07,0.032,0.094c0.007,0.021,0.025,0.072,0.031,0.094
			c0.001,0.006,0,0.024,0,0.031c0.001,0.047,0,0.115,0,0.156c-0.031,1.96-3.92,6.536,0.75,12.094
			c11.697,11.879,22.897,22.308,34.594,34.187c2.779,13.82,14.386,11.952,23.531,9.125c13.872-4.055,7.66,2.189,12.718,8.906
			c3.942,6.117,13.767,25.928,24.564,3.156c6.755-16.489,17.41-23.679,24.655-23.031c7.261-0.332,12.803-8.204,11.469-15.875
			c-32.269,8.208-73.702-7.256-78.875-76.031L57.813,110L57.813,110z"/>
		<path id="path2398" inkscape:connector-curvature="0" fill="#D6DDE3" d="M166.937,199.375
			c-10.498,0.685-5.026,35.786-3.875,52.407c1.555,16.361,5.202,12.507,16.625,5.375c5.253,10.653,2.059,16.606-5.375,23.5
			c-5.534,5.23-8.709,13.042-3.906,22.032c1.469,2.448,2.702,3.486,4.406,7.344c1.143,2.284,2.264,4.589,3.406,6.874
			c1.318,5.052-0.169,8.204-2.375,10.906c-2.043,2.926-2.437,5.876,0.219,13.969c1.449,4.701-2.523,10.314,3.625,15.25
			c2.725,2.116,5.393,3.699,8.125,4.874c-2.37-6.899-2.44-16.857-1.281-25.406c0.783-8.065,1.326-13.08,8.687-18.562
			c6.422-3.289,4.64-20.663,5.188-31c0.063,0.055,0.152,0.104,0.219,0.156c-0.008-0.047,0.008-0.111,0-0.156
			c13.736-2.901,6.089-13.887,1.875-24.438l-33.594-62.875c-0.664-0.184-1.275-0.272-1.844-0.25
			C167.021,199.377,166.979,199.372,166.937,199.375z"/>
		<path id="path2404" inkscape:connector-curvature="0" fill="#608AB4" d="M168.906,199.625L202.5,262.5
			c4.214,10.55,11.86,21.537-1.875,24.438c1.225,7.361,10.329,13.766,20.437,12.906c10.514-0.677,18.161,7.184,21.625,15.125
			c0.457-8.757,1.526-17.446,3.656-26.032c1.358-4.243,9.051-8.003,2.656-13.655c-25.899-28.516-50.862-50.933-78.875-75.219
			C169.699,199.878,169.297,199.734,168.906,199.625z"/>
		<path id="path2407" inkscape:connector-curvature="0" fill="#236798" d="M200.406,286.938c-0.548,10.337,1.234,27.711-5.188,31
			c-7.361,5.482-7.904,10.497-8.687,18.562c-1.161,8.561-1.099,18.536,1.281,25.437c2.43,1.039,4.919,1.742,7.563,2.188
			c4.446,0.398,7.245,1.497,16.625-0.219c8.213-0.948,13.144-4.958,22.531-6.376c5.124-1.006,8.593-2.961,8.313-10.782
			c-0.391-10.678-0.707-21.28-0.156-31.781c-3.464-7.941-11.111-15.803-21.625-15.125c-9.99,0.851-19.015-5.404-20.406-12.656
			c-0.003-0.015,0.003-0.018,0-0.031c-0.005-0.004,0.005-0.027,0-0.031C200.58,287.059,200.481,287.008,200.406,286.938
			L200.406,286.938z"/>
		<path id="path2460" sodipodi:nodetypes="ccccccccssssscccccsssssssccccc" inkscape:connector-curvature="0" fill="#608AB4" d="
			M338.469,276.531c-0.862,2.392-1.981,4.529-2.938,7.625c0.041,28.186-3.83,36.304-26.313,58.125
			c-0.202,0.051-6.631,15.126-12.093,19.063c-9.215,6.813-8.64,12.99-12.062,20.437c-2.477,3.766-5.899,4.372-8.375,3.688
			c-1.547-1.22-3.11-1.8-4.657-3.656c-0.098,3.046,0.115,5.819,0.906,8.251c0.036,0.071,0.058,0.147,0.094,0.219
			c0.003,0.011-0.003,0.022,0,0.031c0.434,0.883,0.84,1.774,1.25,2.656c0.022,0.036,0.04,0.059,0.062,0.094
			c0.004,0.008-0.004,0.023,0,0.031c0.372,0.58,0.8,1.139,1.282,1.656c-0.147-0.039-0.289-0.077-0.438-0.125
			c9.438,15.092,22.768,19.812,39.876,13.875c9.211-4.018,14.596-7.695,20.312-12.031c4.972-4.716,10.888-13.57,1.563-14.156
			c-1.329-0.352-2.069-0.696-2.438-1.063c-0.014-0.014-0.051-0.049-0.062-0.062c-0.036-0.042-0.067-0.113-0.094-0.156
			c-0.038-0.064-0.074-0.152-0.093-0.219c-0.004-0.016-0.028-0.047-0.031-0.062c-0.005-0.023,0.002-0.07,0-0.094
			c-0.002-0.023,0-0.07,0-0.094c0.018-1.345,2.577-3.262,0.624-7.157c-1.335-5.956,4.341-11.586,8.406-13.093
			c-2.795-6.114-5.611-12.23-8.406-18.344c0.193-4.015,8.09-6.134,6.812-13.625C343.936,309.499,347.026,281.529,338.469,276.531
			L338.469,276.531z"/>
		<path id="path2468" inkscape:connector-curvature="0" fill="#236798" d="M288.031,202.312
			c-6.755,1.818-14.927,9.099-20.468,22.625c-2.531,5.337-5.015,8.335-7.375,9.719c0.236,23.249,5.759,39.801,17.187,48.875
			c-3.389,13.45-6.768,31.992-0.625,43.218c-10.379-3.283-6.147,17.585-9.218,26.375c-5.19,14.616-9.754,13.979-14.625,15.25
			c4.448,5.083,10.172,10.479,18.75,13.656c0.001,0.017-0.003,0.046,0,0.062c0.017,0.075,0.079,0.174,0.125,0.25
			c0.639,0.971,3.516,2.027,4.906,3.124c2.476,0.684,5.898,0.078,8.375-3.688c3.422-7.447,2.847-13.624,12.062-20.437
			c5.335-3.845,11.616-18.342,12.093-19.063c-18.234-10.248-26.854-29.777-23.906-48.594c0.848-5.19,4.242-11.008-0.312-19.375
			C279.554,251.319,283.022,224.567,288.031,202.312z"/>
	</g>
</g>
<g>
	<path d="M157.257,506.42c0.436,0.372,0.436,1.677,0,2.049c-3.634-0.062-5.743-0.124-9.377-0.124c-3.707,0-5.888,0.063-9.45,0.124
		c-0.437-0.372-0.437-1.677,0-2.049c5.088-0.187,6.324-0.497,6.324-5.651v-24.904c0-5.154-1.236-5.465-6.324-5.651
		c-0.437-0.372-0.437-1.677,0-2.049c3.634,0.062,5.743,0.124,9.377,0.124c3.707,0,5.888-0.063,9.45-0.124
		c0.436,0.372,0.436,1.677,0,2.049c-5.088,0.187-6.324,0.497-6.324,5.651v24.904C150.933,505.923,152.169,506.233,157.257,506.42z"
		/>
	<path d="M180.589,506.42c0.437,0.372,0.437,1.677,0,2.049c-3.635-0.062-5.743-0.124-9.377-0.124c-3.707,0-5.888,0.063-9.45,0.124
		c-0.437-0.372-0.437-1.677,0-2.049c5.088-0.187,6.324-0.497,6.324-5.651v-24.904c0-5.154-1.236-5.465-6.324-5.651
		c-0.437-0.372-0.437-1.677,0-2.049c3.634,0.062,5.743,0.124,9.377,0.124c3.708,0,5.888-0.063,9.45-0.124
		c0.437,0.372,0.437,1.677,0,2.049c-5.088,0.187-6.324,0.497-6.324,5.651v10.912c2.544-0.187,4.063-1.1,5.525-2.403l12.212-10.931
		c3.496-3.316,0.589-3.018-2.036-3.229c-0.436-0.372-0.436-1.677,0-2.049c3.417,0.062,5.307,0.124,8.214,0.124
		s3.489-0.063,6.906-0.124c0.436,0.372,0.436,1.677,0,2.049c-2.908,0.311-6.106,0.436-9.45,3.479l-10.177,9.377
		c-2.377,2.192-2.69,2.608-2.69,3.043c0,0.497,0.218,0.932,0.873,1.553l15.92,16.147c2.442,2.583,5.096,2.446,6.397,2.608
		c0.436,0.372,0.436,1.677,0,2.049c-3.417-0.062-4.507-0.124-7.342-0.124c-2.181,0-3.417,0.063-4.87,0.124
		c-0.291,0-0.364-0.187-0.364-0.372c0-1.131-0.007-2.782-1.454-4.285l-11.849-12.297c-1.454-1.596-3.373-2.292-5.815-2.354v11.607
		C174.265,505.923,175.5,506.233,180.589,506.42z"/>
	<path d="M229.579,506.42c0.436,0.372,0.436,1.677,0,2.049c-3.635-0.062-5.743-0.124-9.378-0.124c-3.707,0-5.888,0.063-9.45,0.124
		c-0.436-0.372-0.436-1.677,0-2.049c5.089-0.187,6.324-0.497,6.324-5.651v-24.904c0-5.154-1.235-5.465-6.324-5.651
		c-0.436-0.372-0.436-1.677,0-2.049c3.635,0.062,5.743,0.124,9.378,0.124c3.707,0,5.888-0.063,9.45-0.124
		c0.436,0.372,0.436,1.677,0,2.049c-5.089,0.187-6.324,0.497-6.324,5.651v24.904C223.255,505.923,224.49,506.233,229.579,506.42z"/>
	<path d="M265.268,468.164c3.417,0.062,6.252,0.124,7.924,0.124s3.489-0.063,6.396-0.124c0.437,0.372,0.437,1.677,0,2.049
		c-4.798,0.497-5.75,2.839-7.146,5.776l-15.025,31.672c-0.422,0.889-0.945,1.429-1.745,1.429c-0.727,0-1.235-0.459-1.672-1.429
		l-14.356-31.797c-2.072-4.533-2.362-5.341-6.506-5.651c-0.437-0.372-0.509-1.677-0.073-2.049c3.417,0.062,4.652,0.124,7.561,0.124
		c2.835,0,5.379-0.063,8.796-0.124c0.436,0.372,0.436,1.677,0,2.049c-4.943,0.436-5.365,1.273-3.679,4.969l11.565,25.276h0.335
		l11.478-24.903c1.556-3.379,1.526-5.031-3.853-5.342C264.831,469.841,264.831,468.536,265.268,468.164z"/>
	<path d="M302.045,506.42c0.436,0.372,0.436,1.677,0,2.049c-3.635-0.062-5.743-0.124-9.378-0.124c-3.707,0-5.888,0.063-9.45,0.124
		c-0.436-0.372-0.436-1.677,0-2.049c5.089-0.187,6.324-0.497,6.324-5.651v-24.904c0-5.154-1.235-5.465-6.324-5.651
		c-0.436-0.372-0.436-1.677,0-2.049c3.635,0.062,5.743,0.124,9.378,0.124c3.707,0,5.888-0.063,9.45-0.124
		c0.436,0.372,0.436,1.677,0,2.049c-5.089,0.187-6.324,0.497-6.324,5.651v24.904C295.721,505.923,296.956,506.233,302.045,506.42z"
		/>
	<path d="M325.231,506.42c0.436,0.372,0.436,1.677,0,2.049c-3.635-0.062-5.743-0.124-9.378-0.124c-3.707,0-5.888,0.063-9.45,0.124
		c-0.436-0.372-0.436-1.677,0-2.049c5.089-0.187,6.325-0.497,6.325-5.651v-24.904c0-5.154-1.236-5.465-6.325-5.651
		c-0.436-0.372-0.436-1.677,0-2.049c3.635,0.062,5.743,0.124,9.378,0.124c2.762,0,7.27-0.435,9.087-0.435
		c4.579,0,9.086,0.187,12.575,2.98c2.617,2.112,3.853,4.658,3.853,7.764c0,6.521-6.542,9.75-9.668,10.619l9.159,13.042
		c1.891,2.695,3.708,4.782,6.979,4.782c0.291,0.496,0.327,1.062,0.073,1.49c-0.728,0.311-1.963,0.435-3.054,0.435
		c-4.361,0-7.509-2.633-9.595-5.527l-7.778-10.806c-1.04-1.447-2.399-2.36-8.505-2.36v10.496
		C318.907,505.923,320.143,506.233,325.231,506.42z M318.907,473.939v14.222h3.489c7.051,0,12.212-1.739,12.212-9.502
		c0-7.328-5.233-8.694-9.668-8.694C319.779,469.965,318.907,472.139,318.907,473.939z"/>
</g>
<path id="path3263" inkscape:connector-curvature="0" d="M145.231,455.492c0,0.303-0.102,0.58-0.302,0.831
	c-0.176,0.252-0.378,0.378-0.604,0.378c-1.862,0.175-3.384,0.779-4.567,1.811c-1.183,1.009-2.404,2.945-3.661,5.814L116.843,507.7
	c-0.125,0.402-0.479,0.604-1.057,0.604c-0.453,0-0.806-0.201-1.058-0.604l-10.795-22.574L91.514,507.7
	c-0.252,0.402-0.604,0.604-1.057,0.604c-0.554,0-0.918-0.201-1.095-0.604L70.45,464.326c-1.183-2.692-2.429-4.566-3.737-5.624
	c-1.309-1.083-3.134-1.749-5.474-2.001c-0.201,0-0.389-0.101-0.566-0.303c-0.176-0.227-0.264-0.479-0.264-0.754
	c0-0.705,0.201-1.058,0.604-1.058c1.686,0,3.448,0.075,5.285,0.227c1.71,0.151,3.322,0.228,4.832,0.227
	c1.535,0.001,3.347-0.075,5.436-0.227c2.189-0.151,4.127-0.227,5.813-0.227c0.402,0,0.604,0.353,0.604,1.058
	c0,0.703-0.126,1.057-0.377,1.057c-1.687,0.126-3.02,0.554-4.001,1.282c-0.957,0.73-1.435,1.687-1.435,2.87
	c0,0.604,0.201,1.358,0.604,2.265l15.628,35.295l8.871-16.761l-8.267-17.326c-1.484-3.096-2.705-5.084-3.662-5.964
	c-0.956-0.906-2.403-1.46-4.341-1.661c-0.176,0-0.353-0.102-0.529-0.303c-0.15-0.227-0.227-0.479-0.226-0.754
	c0-0.705,0.177-1.058,0.528-1.058c1.686,0,3.234,0.075,4.644,0.227c1.359,0.151,2.806,0.227,4.34,0.227
	c1.51,0,3.108-0.076,4.794-0.227c1.736-0.151,3.448-0.227,5.134-0.227c0.403,0,0.604,0.353,0.604,1.058
	c0,0.703-0.126,1.057-0.378,1.057c-3.371,0.225-5.058,1.184-5.058,2.869c0,0.754,0.39,1.925,1.171,3.511l5.473,11.098l5.437-10.155
	c0.755-1.434,1.132-2.642,1.132-3.623c0-2.315-1.686-3.548-5.059-3.699c-0.301,0-0.452-0.354-0.452-1.057
	c0-0.252,0.076-0.491,0.227-0.719c0.15-0.226,0.302-0.339,0.453-0.339c1.208,0,2.692,0.075,4.454,0.227
	c1.687,0.151,3.07,0.227,4.152,0.227c0.78,0,1.924-0.063,3.435-0.188c1.912-0.178,3.51-0.266,4.794-0.266
	c0.301,0,0.452,0.303,0.452,0.905c0,0.806-0.277,1.209-0.83,1.209c-1.963,0.201-3.548,0.742-4.757,1.622
	c-1.182,0.882-2.667,2.883-4.454,6.003l-7.248,13.4l9.814,20.007l14.497-33.71c0.503-1.231,0.754-2.365,0.754-3.397
	c0-2.466-1.687-3.773-5.058-3.925c-0.303,0-0.454-0.354-0.454-1.057c0-0.705,0.227-1.058,0.681-1.058
	c1.233,0,2.692,0.075,4.378,0.227c1.56,0.151,2.869,0.227,3.925,0.227c1.107,0,2.391-0.076,3.85-0.227
	c1.51-0.151,2.87-0.227,4.077-0.227C145.054,454.587,145.231,454.89,145.231,455.492"/>
</svg>
