<?xml version="1.0" encoding="UTF-8" standalone="no"?>
<!-- Created with Inkscape (http://www.inkscape.org/) -->
<svg
   xmlns:svg="http://www.w3.org/2000/svg"
   xmlns="http://www.w3.org/2000/svg"
   version="1.0"
   width="410"
   height="513"
   viewBox="0 0 410 513"
   id="svg1325"
   xml:space="preserve">
<defs
   id="defs3" />

<g
   transform="translate(-3.13125e-5,1.7086299)"
   id="g3126">
	<g
   transform="matrix(1.005595,0,0,1.000506,-0.942714,-0.217568)"
   id="g2492">
		<path
   d="M 203.5,0.219 C 135.607,0.673 75.523,36.175 38.781,90.406 L 370.812,90.406 C 333.832,35.824 273.246,0.219 204.812,0.219 C 204.373,0.219 203.939,0.216 203.5,0.219 z"
   id="path1334"
   style="fill:#608ab4" />
		<path
   d="M 27,110 C 10.418,141.083 0.938,176.917 0.938,215.093 C 0.938,333.714 92.283,430 204.812,430 C 317.341,430 408.656,333.714 408.656,215.093 C 408.656,176.917 399.207,141.082 382.625,110 L 27,110 L 27,110 z"
   id="path2488"
   style="fill:#375493" />
		<path
   d="M 38.781,90.406 C 34.523,96.691 30.608,103.237 27,110 L 382.625,110 C 379.017,103.237 375.071,96.691 370.812,90.406 L 38.781,90.406 z"
   id="path2361"
   style="fill:#d6dde3" />
		<path
   d="M 291.875,24.313 C 291.028,24.327 290.119,24.517 289.157,24.813 C 280.075,39.383 280.102,87.654 280.219,98.094 C 280.238,98.098 280.262,98.09 280.281,98.094 C 293.725,101.091 311.526,97.65 312.125,84.719 C 313.152,67.678 314.179,51.15 305.187,40.532 C 296.966,44.3 298.527,29.051 295.187,25.625 C 294.354,24.667 293.195,24.29 291.875,24.313 z"
   id="path2219"
   style="fill:#7bbce5" />
		<path
   d="M 289.157,24.812 C 284.367,26.283 278.539,30.649 275.656,32.062 C 273.149,32.331 268.499,32.136 265.031,33.031 C 257.576,34.954 250.791,39.53 246.875,46.718 C 241.817,31.955 230.963,50.11 218.094,60.562 C 210.965,55.167 196.604,44.405 183.438,37.468 C 172.848,42.863 161.749,61.083 155.157,62.624 C 148.306,63.909 138.651,63.149 134.626,68.03 C 127.947,74.966 125.879,82.924 124.595,90.374 C 140.266,95.94 156.705,96.109 172.376,93.968 C 181.282,91.827 187.62,94.842 196.782,94.499 C 224.592,95.697 254.713,92.288 280.219,98.092 C 280.102,87.653 280.075,39.382 289.157,24.812 z"
   id="path2230"
   style="fill:#ffffff" />
		<path
   d="M 196.272,53.898 C 199.617,64.003 202.517,74.108 201.41,84.212 C 200.211,90.463 202.866,90.035 207.833,87.552 C 212.714,84.898 215.284,81.986 222.476,79.588 C 228.042,78.047 224.104,73.936 221.449,71.11 C 213.51,63.559 204.876,58.786 196.272,53.898 L 196.272,53.898 z"
   id="path2221"
   style="fill:#7bbce5" />
		<path
   d="M 224.812,110 C 230.664,187.793 282.917,197.349 315.813,181.625 C 299.365,165.359 305.331,132.209 322.875,131.844 C 355.327,131.054 346.087,191.67 346.094,221.094 C 363.837,217.486 362.674,150.355 358.907,110 L 224.812,110 z"
   id="path2364"
   style="fill:#294584" />
		
			<path
   d="M 56.75,110 C 57.388,116.697 58.018,123.397 58.656,130.093 C 62.948,137.952 66.14,145.797 65.25,153.656 C 73.729,151.566 78.782,150.474 83.344,159.156 C 103.297,171.579 122.25,173.061 140.907,171.218 C 144.7,216.359 143.594,252.669 142,306.625 C 153.331,325.449 164.669,343.301 176,362.124 C 182.507,373.569 193.92,377.183 202.875,363.655 C 210.551,360.183 218.198,356.722 225.874,353.249 C 225.874,357.087 225.874,360.911 225.874,364.749 C 237.663,367.714 249.323,372.228 243.968,384.499 C 239.894,392.425 242.187,395.95 253.78,390.655 C 264.022,385.666 270.342,393.403 275.687,394.78 C 268.068,386.665 274.625,370.689 274.865,354.188 C 285.799,353.19 298.284,343.279 309.218,342.28 C 331.701,320.459 335.572,312.341 335.531,284.155 C 337.79,276.844 341.033,274.914 339.375,262.217 C 340.654,254.359 342.44,244.076 343.719,236.217 C 344.595,231.074 345.439,226.038 346.282,221.061 C 346.221,221.075 346.156,221.08 346.094,221.092 C 346.087,191.668 355.327,131.052 322.875,131.842 C 305.331,132.208 299.365,165.358 315.813,181.623 C 311.999,183.446 307.919,184.953 303.687,186.029 C 305.021,193.7 299.48,201.572 292.219,201.904 C 284.973,201.256 274.318,208.446 267.563,224.935 C 256.766,247.706 246.942,227.895 243,221.778 C 237.941,215.061 244.153,208.817 230.281,212.872 C 221.137,215.7 209.53,217.567 206.75,203.747 C 195.054,191.868 183.853,181.438 172.156,169.559 C 167.486,164.001 171.376,159.425 171.406,157.465 C 171.406,157.424 171.407,157.356 171.406,157.309 C 171.406,157.302 171.407,157.284 171.406,157.278 C 171.4,157.256 171.382,157.205 171.375,157.184 C 171.369,157.16 171.352,157.113 171.344,157.09 C 171.329,157.053 171.302,156.999 171.281,156.965 C 171.276,156.954 171.255,156.914 171.25,156.903 C 171.242,156.895 171.223,156.877 171.219,156.872 C 171.199,156.851 171.152,156.803 171.125,156.778 C 171.095,156.755 171.042,156.712 171,156.684 C 170.984,156.674 170.953,156.661 170.937,156.653 C 170.883,156.628 170.814,156.612 170.75,156.591 C 166.188,153.712 160.656,157.178 154.625,159.685 C 138.882,162.576 132.734,159.793 131.031,151.466 C 131.124,137.711 123.387,139.146 110.749,141.06 C 74.321,146.25 68.431,133.356 57.812,109.998 L 56.75,109.998 L 56.75,110 z"
   id="path2370"
   style="fill:#e0e9ea" />
		<path
   d="M 57.813,110 C 68.432,133.359 74.323,146.252 110.75,141.062 C 123.388,139.148 131.124,137.714 131.032,151.468 C 132.735,159.795 138.882,162.577 154.626,159.686 C 160.657,157.179 166.189,153.713 170.751,156.592 C 170.816,156.613 170.885,156.629 170.938,156.654 C 170.953,156.662 170.984,156.675 171.001,156.685 C 171.043,156.712 171.096,156.755 171.126,156.779 C 171.153,156.803 171.2,156.852 171.22,156.873 C 171.224,156.878 171.243,156.896 171.251,156.904 C 171.256,156.915 171.277,156.955 171.283,156.966 C 171.303,157 171.33,157.054 171.345,157.091 C 171.353,157.113 171.37,157.161 171.377,157.185 C 171.384,157.206 171.402,157.257 171.408,157.279 C 171.409,157.285 171.408,157.303 171.408,157.31 C 171.409,157.357 171.408,157.425 171.408,157.466 C 171.377,159.426 167.488,164.002 172.158,169.56 C 183.855,181.439 195.055,191.868 206.752,203.747 C 209.531,217.567 221.138,215.699 230.283,212.872 C 244.155,208.817 237.943,215.061 243.001,221.778 C 246.943,227.895 256.768,247.706 267.565,224.934 C 274.32,208.445 284.975,201.255 292.22,201.903 C 299.481,201.571 305.023,193.699 303.689,186.028 C 271.42,194.236 229.987,178.772 224.814,109.997 L 57.813,110 L 57.813,110 z"
   id="path2383"
   style="fill:#4d8ac0" />
		<path
   d="M 166.937,199.375 C 156.439,200.06 161.911,235.161 163.062,251.782 C 164.617,268.143 168.264,264.289 179.687,257.157 C 184.94,267.81 181.746,273.763 174.312,280.657 C 168.778,285.887 165.603,293.699 170.406,302.689 C 171.875,305.137 173.108,306.175 174.812,310.033 C 175.955,312.317 177.076,314.622 178.218,316.907 C 179.536,321.959 178.049,325.111 175.843,327.813 C 173.8,330.739 173.406,333.689 176.062,341.782 C 177.511,346.483 173.539,352.096 179.687,357.032 C 182.412,359.148 185.08,360.731 187.812,361.906 C 185.442,355.007 185.372,345.049 186.531,336.5 C 187.314,328.435 187.857,323.42 195.218,317.938 C 201.64,314.649 199.858,297.275 200.406,286.938 C 200.469,286.993 200.558,287.042 200.625,287.094 C 200.617,287.047 200.633,286.983 200.625,286.938 C 214.361,284.037 206.714,273.051 202.5,262.5 L 168.906,199.625 C 168.242,199.441 167.631,199.353 167.062,199.375 C 167.021,199.377 166.979,199.372 166.937,199.375 z"
   id="path2398"
   style="fill:#d6dde3" />
		<path
   d="M 168.906,199.625 L 202.5,262.5 C 206.714,273.05 214.36,284.037 200.625,286.938 C 201.85,294.299 210.954,300.704 221.062,299.844 C 231.576,299.167 239.223,307.028 242.687,314.969 C 243.144,306.212 244.213,297.523 246.343,288.937 C 247.701,284.694 255.394,280.934 248.999,275.282 C 223.1,246.766 198.137,224.349 170.124,200.063 C 169.699,199.878 169.297,199.734 168.906,199.625 z"
   id="path2404"
   style="fill:#608ab4" />
		<path
   d="M 200.406,286.938 C 199.858,297.275 201.64,314.649 195.218,317.938 C 187.857,323.42 187.314,328.435 186.531,336.5 C 185.37,345.061 185.432,355.036 187.812,361.937 C 190.242,362.976 192.731,363.679 195.375,364.125 C 199.821,364.523 202.62,365.622 212,363.906 C 220.213,362.958 225.144,358.948 234.531,357.53 C 239.655,356.524 243.124,354.569 242.844,346.748 C 242.453,336.07 242.137,325.468 242.688,314.967 C 239.224,307.026 231.577,299.164 221.063,299.842 C 211.073,300.693 202.048,294.438 200.657,287.186 C 200.654,287.171 200.66,287.168 200.657,287.155 C 200.652,287.151 200.662,287.128 200.657,287.124 C 200.58,287.059 200.481,287.008 200.406,286.938 L 200.406,286.938 z"
   id="path2407"
   style="fill:#236798" />
		<path
   d="M 338.469,276.531 C 337.607,278.923 336.488,281.06 335.531,284.156 C 335.572,312.342 331.701,320.46 309.218,342.281 C 309.016,342.332 302.587,357.407 297.125,361.344 C 287.91,368.157 288.485,374.334 285.063,381.781 C 282.586,385.547 279.164,386.153 276.688,385.469 C 275.141,384.249 273.578,383.669 272.031,381.813 C 271.933,384.859 272.146,387.632 272.937,390.064 C 272.973,390.135 272.995,390.211 273.031,390.283 C 273.034,390.294 273.028,390.305 273.031,390.314 C 273.465,391.197 273.871,392.088 274.281,392.97 C 274.303,393.006 274.321,393.029 274.343,393.064 C 274.347,393.072 274.339,393.087 274.343,393.095 C 274.715,393.675 275.143,394.234 275.625,394.751 C 275.478,394.712 275.336,394.674 275.187,394.626 C 284.625,409.718 297.955,414.438 315.063,408.501 C 324.274,404.483 329.659,400.806 335.375,396.47 C 340.347,391.754 346.263,382.9 336.938,382.314 C 335.609,381.962 334.869,381.618 334.5,381.251 C 334.486,381.237 334.449,381.202 334.438,381.189 C 334.402,381.147 334.371,381.076 334.344,381.033 C 334.306,380.969 334.27,380.881 334.251,380.814 C 334.247,380.798 334.223,380.767 334.22,380.752 C 334.215,380.729 334.222,380.682 334.22,380.658 C 334.218,380.635 334.22,380.588 334.22,380.564 C 334.238,379.219 336.797,377.302 334.844,373.407 C 333.509,367.451 339.185,361.821 343.25,360.314 C 340.455,354.2 337.639,348.084 334.844,341.97 C 335.037,337.955 342.934,335.836 341.656,328.345 C 343.936,309.499 347.026,281.529 338.469,276.531 L 338.469,276.531 z"
   id="path2460"
   style="fill:#608ab4" />
		<path
   d="M 288.031,202.312 C 281.276,204.13 273.104,211.411 267.563,224.937 C 265.032,230.274 262.548,233.272 260.188,234.656 C 260.424,257.905 265.947,274.457 277.375,283.531 C 273.986,296.981 270.607,315.523 276.75,326.749 C 266.371,323.466 270.603,344.334 267.532,353.124 C 262.342,367.74 257.778,367.103 252.907,368.374 C 257.355,373.457 263.079,378.853 271.657,382.03 C 271.658,382.047 271.654,382.076 271.657,382.092 C 271.674,382.167 271.736,382.266 271.782,382.342 C 272.421,383.313 275.298,384.369 276.688,385.466 C 279.164,386.15 282.586,385.544 285.063,381.778 C 288.485,374.331 287.91,368.154 297.125,361.341 C 302.46,357.496 308.741,342.999 309.218,342.278 C 290.984,332.03 282.364,312.501 285.312,293.684 C 286.16,288.494 289.554,282.676 285,274.309 C 279.554,251.319 283.022,224.567 288.031,202.312 z"
   id="path2468"
   style="fill:#236798" />
	</g>
</g>


<path
   d="M 101.28589,507.52596 C 101.68005,507.89093 101.68005,509.17113 101.28589,509.5361 C 98.006761,509.47546 96.10442,509.41482 92.824172,509.41482 C 89.47879,509.41482 87.511315,509.47659 84.297324,509.5361 C 83.904278,509.17113 83.904278,507.89093 84.297324,507.52596 C 88.889222,507.34291 90.004349,507.03858 90.004349,501.98176 L 90.004349,480.29574 C 89.51248,480.44735 89.17783,480.72136 88.856655,481.08745 L 70.94275,501.79872 C 70.174627,502.70609 69.518802,503.19908 69.066237,504.64325 C 69.532278,507.15874 70.994408,507.38334 74.589092,507.52371 C 74.982138,507.88868 74.982138,509.16889 74.589092,509.53386 C 71.309968,509.47322 69.406503,509.41258 66.127378,509.41258 C 62.781997,509.41258 60.814522,509.47434 57.60053,509.53386 C 57.206361,509.16889 57.206361,507.88868 57.60053,507.52371 C 62.192428,507.34066 63.307555,507.03633 63.307555,501.97952 L 63.307555,477.55228 C 63.307555,472.49659 62.192428,472.19226 57.60053,472.00809 C 57.206361,471.64312 57.206361,470.36291 57.60053,469.99794 C 60.879655,470.05971 62.781997,470.11923 66.062245,470.11923 C 69.407626,470.11923 71.375101,470.05858 74.589092,469.99794 C 74.982138,470.36291 74.982138,471.64312 74.589092,472.00809 C 69.997195,472.19114 68.882067,472.49659 68.882067,477.55228 L 68.882067,499.23943 C 69.184151,499.22034 69.563721,499.01371 70.043237,498.569 L 88.068317,477.73533 C 88.80949,476.86951 89.419272,475.76673 89.799965,474.78075 C 89.314834,472.36857 87.838105,472.14847 84.296201,472.00809 C 83.903155,471.64312 83.903155,470.36291 84.296201,469.99794 C 87.575326,470.05971 89.47879,470.11923 92.757915,470.11923 C 96.103297,470.11923 98.070772,470.05858 101.28476,469.99794 C 101.67893,470.36291 101.67893,471.64312 101.28476,472.00809 C 96.692865,472.19114 95.577738,472.49659 95.577738,477.55228 L 95.577738,501.97952 C 95.579984,507.0397 96.695111,507.34291 101.28589,507.52596 z M 105.67677,508.25814 C 105.67677,507.95381 105.87329,507.76964 106.13607,507.76964 L 107.90702,507.64836 C 110.66171,507.4597 111.44893,506.79489 111.44893,505.0902 L 111.44893,474.44947 C 111.44893,472.62237 110.46519,472.07435 107.90702,471.8913 L 106.2012,471.77002 C 105.93955,471.77002 105.67677,471.58697 105.67677,471.28264 L 105.67677,470.12484 L 105.80816,470.00356 C 109.08728,470.06532 111.05588,470.12484 114.33501,470.12484 C 117.61413,470.12484 119.51647,470.0642 122.73159,470.00356 L 122.86298,470.12484 L 122.86298,471.28264 C 122.86298,471.58697 122.66645,471.77002 122.33854,471.77002 L 120.63272,471.8913 C 118.00942,472.07996 117.02456,472.74477 117.02456,474.44947 L 117.02456,487.12014 C 119.38621,487.12014 122.33742,487.05838 123.91185,486.20715 C 127.78167,484.25764 128.70027,480.35863 129.29096,476.94812 C 129.94679,473.17151 131.78399,469.75987 136.96546,469.75987 C 140.44223,469.75987 141.62249,471.52633 141.62249,472.9267 C 141.62249,474.69316 140.1132,475.36358 138.73641,475.36358 C 137.88407,475.36358 136.96546,475.05925 136.30964,474.45059 C 135.58755,473.78017 135.06312,473.47584 134.21077,473.47584 C 132.2433,473.47584 131.79073,475.48599 131.45608,477.25245 C 130.734,481.02905 129.35722,486.26779 124.37115,487.97474 L 124.37115,488.27906 C 128.89792,488.27906 131.45608,490.899 133.22703,495.16298 C 136.64429,503.38662 139.98293,507.52933 142.27944,507.71237 L 143.32943,507.77301 C 143.65735,507.77301 143.85387,507.95606 143.85387,508.26151 L 143.85387,509.41819 L 143.78761,509.53947 L 138.60615,509.47883 C 133.48981,509.41707 131.12817,504.48378 128.30835,497.78291 C 125.74344,491.6907 124.50366,489.68055 117.02569,489.68055 L 117.02569,505.09244 C 117.02569,506.92067 118.00942,507.46195 120.63385,507.65061 L 122.33967,507.77189 C 122.60244,507.77189 122.8641,507.95494 122.8641,508.26039 L 122.8641,509.41707 L 122.73271,509.53835 C 119.58385,509.41707 117.68151,509.41707 114.40239,509.41707 C 111.12326,509.41707 109.02327,509.41707 105.8104,509.53835 L 105.67902,509.41707 L 105.67902,508.25814 L 105.67677,508.25814 z M 191.60107,507.52596 C 191.99524,507.89093 191.99524,509.17113 191.60107,509.5361 C 188.32195,509.47546 186.41961,509.41482 183.13936,509.41482 C 179.79398,509.41482 177.8265,509.47659 174.61139,509.5361 C 174.21722,509.17113 174.21722,507.89093 174.61139,507.52596 C 179.20329,507.34291 180.31841,507.03858 180.31841,501.98176 L 180.31841,480.29574 C 179.82654,480.44735 179.49189,480.72136 179.17072,481.08745 L 161.25681,501.79872 C 160.48869,502.70609 159.83287,503.19908 159.3803,504.64325 C 159.84634,507.15874 161.30847,507.38334 164.90316,507.52371 C 165.29733,507.88868 165.29733,509.16889 164.90316,509.53386 C 161.62291,509.47322 159.72057,509.41258 156.44144,509.41258 C 153.09606,509.41258 151.12859,509.47434 147.91459,509.53386 C 147.52043,509.16889 147.52043,507.88868 147.91459,507.52371 C 152.50649,507.34066 153.62162,507.03633 153.62162,501.97952 L 153.62162,477.55228 C 153.62162,472.49659 152.50649,472.19226 147.91459,472.00809 C 147.52043,471.64312 147.52043,470.36291 147.91459,469.99794 C 151.19372,470.05971 153.09606,470.11923 156.37631,470.11923 C 159.72169,470.11923 161.68916,470.05858 164.90428,469.99794 C 165.29845,470.36291 165.29845,471.64312 164.90428,472.00809 C 160.31238,472.19114 159.19725,472.49659 159.19725,477.55228 L 159.19725,499.23943 C 159.49934,499.22034 159.87891,499.01371 160.35842,498.569 L 178.3835,477.73533 C 179.12468,476.86951 179.73446,475.76673 180.11515,474.78075 C 179.63002,472.36857 178.15329,472.14847 174.61139,472.00809 C 174.21722,471.64312 174.21722,470.36291 174.61139,469.99794 C 177.89164,470.05971 179.79398,470.11923 183.0731,470.11923 C 186.41848,470.11923 188.38596,470.05858 191.59995,469.99794 C 191.99412,470.36291 191.99412,471.64312 191.59995,472.00809 C 187.00805,472.19114 185.89293,472.49659 185.89293,477.55228 L 185.89293,501.97952 C 185.89405,507.0397 187.00918,507.34291 191.60107,507.52596 z M 239.74245,507.52596 C 240.13549,507.89093 240.13549,509.17113 239.74245,509.5361 C 236.4622,509.47546 234.55986,509.41482 231.28073,509.41482 C 227.93535,509.41482 225.96787,509.47659 222.75276,509.5361 C 222.35859,509.17113 222.35859,507.89093 222.75276,507.52596 C 227.34466,507.34291 228.45979,507.03858 228.45979,501.98176 L 228.45979,480.29574 C 227.96792,480.44735 227.63327,480.72136 227.31209,481.08745 L 209.39819,501.79872 C 208.63119,502.70609 207.97424,503.19908 207.5228,504.64325 C 207.98771,507.15874 209.45097,507.38334 213.04565,507.52371 C 213.43982,507.88868 213.43982,509.16889 213.04565,509.53386 C 209.7654,509.47322 207.86419,509.41258 204.58394,509.41258 C 201.23856,509.41258 199.27108,509.47434 196.05709,509.53386 C 195.66292,509.16889 195.66292,507.88868 196.05709,507.52371 C 200.64786,507.34066 201.76411,507.03633 201.76411,501.97952 L 201.76411,477.55228 C 201.76411,472.49659 200.64899,472.19226 196.05709,472.00809 C 195.66292,471.64312 195.66292,470.36291 196.05709,469.99794 C 199.33621,470.05971 201.23968,470.11923 204.5188,470.11923 C 207.86419,470.11923 209.83166,470.05858 213.04677,469.99794 C 213.44094,470.36291 213.44094,471.64312 213.04677,472.00809 C 208.45488,472.19114 207.33975,472.49659 207.33975,477.55228 L 207.33975,499.23943 C 207.64183,499.22034 208.0214,499.01371 208.50092,498.569 L 226.526,477.73533 C 227.26717,476.86951 227.87695,475.76673 228.25765,474.78075 C 227.77252,472.36857 226.29691,472.14847 222.75501,472.00809 C 222.36084,471.64312 222.36084,470.36291 222.75501,469.99794 C 226.03525,470.05971 227.93647,470.11923 231.21672,470.11923 C 234.5621,470.11923 236.52958,470.05858 239.74469,469.99794 C 240.13774,470.36291 240.13774,471.64312 239.74469,472.00809 C 235.15279,472.19114 234.03767,472.49659 234.03767,477.55228 L 234.03767,501.97952 C 234.03542,507.0397 235.15055,507.34291 239.74245,507.52596 z M 246.42984,499.97274 C 248.26592,499.97274 249.24966,501.55615 250.10313,503.14069 C 251.7427,506.00318 255.08808,507.95269 260.20441,507.95269 C 266.69865,507.95269 270.56847,504.23672 270.56847,498.69366 C 270.56847,494.24662 268.14057,489.73783 260.20441,489.73783 C 258.03929,489.73783 256.13807,490.10392 254.36712,490.10392 C 253.5799,490.10392 252.46478,489.79959 252.46478,488.58115 C 252.46478,487.36271 253.5799,487.11902 254.36712,487.11902 C 256.13807,487.11902 258.49971,487.48399 260.27067,487.48399 C 267.22309,487.48399 268.99516,483.28065 268.99516,479.07842 C 268.99516,474.81332 266.43699,471.4028 260.79622,471.4028 C 253.31825,471.4028 249.51356,475.78807 247.80887,481.14921 L 245.84027,481.02793 L 247.4147,471.28152 C 252.07061,470.85478 256.40085,469.33201 261.32066,469.33201 C 270.4382,469.33201 274.76844,473.65776 274.76844,478.65281 C 274.76844,483.77027 270.76724,486.75517 266.17534,487.97361 L 266.17534,488.33858 C 272.34054,489.25157 276.60453,493.45604 276.60453,498.63301 C 276.60453,506.61297 268.60211,510.14701 260.27179,510.14701 C 253.71242,510.14701 249.25752,508.67814 247.28443,507.0397 C 245.52022,505.57083 244.26696,504.41977 244.26696,502.40962 C 244.26584,500.94749 245.11707,499.97274 246.42984,499.97274 z M 297.19563,470.00131 C 309.39578,470.00131 311.29924,475.30182 311.29924,479.38275 C 311.29924,482.69108 308.35364,485.81635 305.06666,487.36271 L 305.06666,487.48399 C 310.77368,489.00676 315.16793,492.35776 315.16793,498.20516 C 315.16793,503.44389 311.69116,509.5361 298.63867,509.5361 C 292.80026,509.5361 291.88166,509.41482 289.06183,509.41482 C 285.71645,509.41482 283.74898,509.47659 280.53386,509.5361 C 280.14082,509.17113 280.14082,507.89093 280.53386,507.52596 C 285.12576,507.34291 286.24089,507.03858 286.24089,501.98176 L 286.24089,477.55453 C 286.24089,472.49884 285.12576,472.19451 280.53386,472.01034 C 280.14082,471.64537 280.14082,470.36516 280.53386,470.00019 C 283.81411,470.06195 285.71645,470.12147 288.99558,470.12147 C 291.81652,470.12372 294.90025,470.00131 297.19563,470.00131 z M 291.81652,487.12014 L 296.67008,487.12014 C 302.11545,487.12014 305.98526,485.29192 305.98526,480.11494 C 305.98526,473.90145 301.19572,472.07435 297.52355,472.07435 C 291.81652,472.07435 291.81652,472.68301 291.81652,474.69316 L 291.81652,487.12014 z M 291.81652,503.44502 C 291.81652,505.45517 292.66999,507.52708 297.26189,507.52708 C 307.23178,507.52708 309.06899,503.81111 309.06899,499.36408 C 309.06899,493.88165 305.33056,489.18981 296.34329,489.18981 L 291.81765,489.18981 L 291.81765,503.44502 L 291.81652,503.44502 z M 340.81249,510.02348 C 329.53095,510.02348 320.28202,502.53091 320.28202,490.53066 C 320.28202,478.59105 328.6786,469.33201 340.42057,469.33201 C 351.89975,469.33201 361.54172,477.31196 361.54172,489.37398 C 361.5406,501.55615 353.34279,510.02348 340.81249,510.02348 z M 326.57974,489.49526 C 326.57974,501.19118 334.25424,507.95381 342.12638,507.95381 C 349.60324,507.95381 355.24513,501.43487 355.24513,490.53066 C 355.24513,477.86111 348.48811,471.40392 339.56822,471.40392 C 333.59841,471.4028 326.57974,476.70218 326.57974,489.49526 z M 30.389408,456.34915 C 45.429586,456.34915 47.774385,463.38467 47.774385,468.80196 C 47.774385,473.19284 44.143765,477.34116 40.092024,479.39511 L 40.092024,479.55794 C 47.127544,481.57932 52.544838,486.02635 52.544838,493.78957 C 52.544838,500.74311 48.259516,508.82975 32.167098,508.82975 C 24.970991,508.82975 23.837896,508.66804 20.361125,508.66804 C 16.237513,508.66804 13.810736,508.74889 9.8488343,508.82975 C 9.3637035,508.34461 9.3637035,506.64778 9.8488343,506.16153 C 15.509817,505.91896 16.884354,505.51468 16.884354,498.80259 L 16.884354,466.37631 C 16.884354,459.66421 15.509817,459.25993 9.8488343,459.01737 C 9.3637035,458.53224 9.3637035,456.83428 9.8488343,456.34915 C 13.891591,456.43 16.23639,456.51086 20.28027,456.51086 C 23.759287,456.51086 27.559478,456.34915 30.389408,456.34915 z M 23.759287,479.07169 L 29.742567,479.07169 C 36.454666,479.07169 41.225119,476.64603 41.225119,469.77335 C 41.225119,461.525 35.322694,459.09934 30.793683,459.09934 C 23.759287,459.09934 23.759287,459.9079 23.759287,462.57612 L 23.759287,479.07169 z M 23.759287,500.74199 C 23.759287,503.41021 24.810403,506.15928 30.470263,506.15928 C 42.761367,506.15928 45.02531,501.22599 45.02531,495.32469 C 45.02531,488.04773 40.416568,481.82076 29.338291,481.82076 L 23.759287,481.82076 L 23.759287,500.74199 L 23.759287,500.74199 z M 360.89264,459.2195 C 360.40751,458.73437 360.40751,457.03642 360.89264,456.55128 C 364.93764,456.63214 367.28132,456.713 371.32407,456.713 C 374.5594,456.713 380.30124,456.14701 382.40235,456.14701 C 397.3628,456.14701 400.51502,464.79963 400.51502,469.57008 C 400.51502,476.44389 396.06911,486.06566 381.35236,486.06566 C 378.52243,486.06566 376.5819,485.82309 374.80309,485.2571 L 374.80309,499.00248 C 374.80309,505.71458 376.74249,506.038 383.05031,506.36142 C 383.53544,506.84767 383.53544,508.54451 383.05031,509.02964 C 379.00756,508.94991 375.93506,508.86793 371.40605,508.86793 C 367.28244,508.86793 364.85678,508.94878 360.89376,509.02964 C 360.40863,508.54451 360.40863,506.84767 360.89376,506.36142 C 366.55474,506.11885 367.9304,505.71458 367.9304,499.00248 L 367.9304,466.57844 C 367.92928,459.86635 366.55362,459.46207 360.89264,459.2195 z M 374.80309,482.91231 C 375.69137,483.15487 378.9267,483.31658 380.9492,483.31658 C 388.79215,483.31658 392.99774,479.75895 392.99774,471.02548 C 392.99774,460.75575 387.41761,458.89608 381.83749,458.89608 C 376.01592,458.89608 374.80309,461.72714 374.80309,464.07081 L 374.80309,482.91231 z"
   id="path29" />
</svg>