
<svg width="125px" height="156px" viewBox="0 0 125 156" version="1.1" xmlns="http://www.w3.org/2000/svg" xmlns:xlink="http://www.w3.org/1999/xlink">
    <defs>
        <path d="M22.4942442,136.105 L22.7042442,136 C28.0382442,137.533 25.4552442,141.502 23.4812442,139.612 C23.5442442,138.394 23.0612442,137.029 22.4942442,136.105 Z M11.2592442,149.629 L10.0622442,147.13 C10.0622442,147.13 10.5872442,147.025 10.7972442,146.878 C11.7422442,146.122 12.8762442,144.694 13.8842442,143.182 C13.2332442,143.455 12.4982442,143.749 11.7212442,144.043 C11.5742442,144.295 11.3852442,144.463 11.1752442,144.547 L10.1672442,142.09 C10.1672442,142.09 10.5872442,141.964 10.7762442,141.838 C11.7422442,140.788 12.9812442,137.785 13.3382442,136.189 L16.1522442,137.533 C16.0682442,137.743 15.8372442,137.869 15.4382442,137.848 C14.5562442,139.192 13.0232442,140.977 11.6792442,142.153 C12.4982442,142.174 13.5062442,142.174 14.5352442,142.153 C15.1442442,141.124 15.6692442,140.137 15.9632442,139.381 L18.4412442,141.082 C18.3362442,141.271 18.0422442,141.397 17.6432442,141.292 C16.4252442,142.993 14.0522442,145.45 11.9312442,147.088 C13.0232442,147.025 14.4722442,146.941 15.9842442,146.836 C15.7112442,146.122 15.3542442,145.429 15.0392442,144.925 L15.2702442,144.799 C19.6592442,146.542 17.9792442,149.776 16.3832442,148.474 C16.3622442,148.117 16.2782442,147.76 16.1732442,147.382 C15.0602442,147.823 13.5272442,148.453 11.8052442,149.062 C11.6582442,149.335 11.4692442,149.545 11.2592442,149.629 Z M11.6372442,149.818 L11.9522442,149.818 C12.7712442,151.96 12.6452442,153.598 12.0362442,154.438 C11.5952442,155.005 10.5032442,155.026 10.1252442,154.312 C9.81024424,153.682 10.1252442,153.052 10.6712442,152.653 C11.1542442,152.128 11.7842442,150.868 11.6372442,149.818 Z M13.5902442,149.587 L13.8632442,149.524 C17.1392442,152.338 14.7662442,155.257 13.4852442,153.493 C13.7582442,152.212 13.7582442,150.7 13.5902442,149.587 Z M15.6902442,149.146 L15.9212442,149.062 C19.8272442,151.12 17.7272442,154.207 16.3202442,152.632 C16.4462442,151.477 16.1102442,150.07 15.6902442,149.146 Z M21.0662442,149.629 L21.0662442,153.514 L23.1662442,153.514 L23.1662442,149.629 L21.0662442,149.629 Z M23.1662442,141.04 L21.0662442,141.04 L21.0662442,144.715 L23.1662442,144.715 L23.1662442,141.04 Z M23.1662442,149.041 L23.1662442,145.324 L21.0662442,145.324 L21.0662442,149.041 L23.1662442,149.041 Z M26.5262442,153.514 L27.7442442,151.834 C27.7442442,151.834 29.1302442,152.989 29.9702442,153.766 C29.9072442,153.997 29.6972442,154.102 29.3822442,154.102 L21.0662442,154.102 L21.0662442,155.131 C21.0662442,155.299 20.3732442,155.824 19.1972442,155.824 L18.7982442,155.824 L18.7982442,143.728 C18.2522442,144.4 17.6642442,145.03 17.0132442,145.597 L16.8242442,145.408 C18.3152442,142.762 19.3442442,138.751 19.7012442,136.168 L22.9772442,137.155 C22.9142442,137.386 22.7462442,137.554 22.2212442,137.575 C21.9272442,138.394 21.5072442,139.339 21.0032442,140.305 L21.3602442,140.431 L26.3372442,140.431 L27.5132442,138.814 C27.5132442,138.814 28.8572442,139.927 29.6552442,140.704 C29.6132442,140.935 29.4032442,141.04 29.0882442,141.04 L25.3502442,141.04 L25.3502442,144.715 L26.1482442,144.715 L27.3032442,143.14 C27.3032442,143.14 28.5632442,144.253 29.2982442,144.988 C29.2562442,145.219 29.0252442,145.324 28.7312442,145.324 L25.3502442,145.324 L25.3502442,149.041 L26.1482442,149.041 L27.3032442,147.466 C27.3032442,147.466 28.5632442,148.558 29.2982442,149.293 C29.2562442,149.524 29.0252442,149.629 28.7312442,149.629 L25.3502442,149.629 L25.3502442,153.514 L26.5262442,153.514 Z M52.8652442,154.669 L54.3352442,152.821 C54.3352442,152.821 56.0152442,154.06 57.0232442,154.942 C56.9812442,155.173 56.7292442,155.278 56.4142442,155.278 L39.6142442,155.278 L39.4252442,154.669 L46.8172442,154.669 L46.8172442,151.666 L42.7642442,151.666 L42.5962442,151.078 L46.8172442,151.078 L46.8172442,148.243 L50.0932442,148.495 C50.0512442,148.789 49.9042442,148.999 49.3582442,149.062 L49.3582442,151.078 L50.2612442,151.078 L51.4792442,149.482 C51.4792442,149.482 52.8862442,150.574 53.7262442,151.33 C53.6632442,151.561 53.4322442,151.666 53.1382442,151.666 L49.3582442,151.666 L49.3582442,154.669 L52.8652442,154.669 Z M45.6202442,146.626 L50.6602442,146.626 L50.6602442,144.589 L45.6202442,144.589 L45.6202442,146.626 Z M50.6602442,139.423 L45.6202442,139.423 L45.6202442,141.397 L50.6602442,141.397 L50.6602442,139.423 Z M45.6202442,142.006 L45.6202442,144.001 L50.6602442,144.001 L50.6602442,142.006 L45.6202442,142.006 Z M57.4642442,147.214 L51.6262442,147.214 C53.2432442,148.495 56.0992442,149.083 58.2412442,149.209 L58.2202442,149.524 C57.2962442,150.259 56.8132442,151.141 56.7082442,152.191 C54.3562442,151.288 52.1932442,149.356 50.8912442,147.214 L46.1452442,147.214 C44.6332442,149.566 41.8402442,151.246 38.3752442,152.296 L38.2072442,152.002 C40.3282442,150.847 42.0082442,149.083 43.0162442,147.214 L38.4592442,147.214 L38.2702442,146.626 L43.1212442,146.626 L43.1212442,139.423 L39.2572442,139.423 L39.0892442,138.835 L43.1212442,138.835 L43.1212442,136.147 L46.3762442,136.42 C46.3342442,136.714 46.1662442,136.924 45.6202442,137.029 L45.6202442,138.835 L50.6602442,138.835 L50.6602442,136.147 L53.9572442,136.42 C53.9152442,136.735 53.7472442,136.945 53.1802442,137.029 L53.1802442,138.835 L54.0832442,138.835 L55.3012442,137.155 C55.3012442,137.155 56.6872442,138.31 57.5272442,139.087 C57.4642442,139.318 57.2332442,139.423 56.9392442,139.423 L53.1802442,139.423 L53.1802442,146.626 L54.4612442,146.626 L55.7422442,144.841 C55.7422442,144.841 57.1912442,146.059 58.0522442,146.878 C57.9892442,147.109 57.7582442,147.214 57.4642442,147.214 Z M73.9542442,136.315 L74.1012442,136.189 C80.6532442,136.945 78.7002442,141.838 76.2222442,140.158 C75.9282442,138.793 74.9202442,137.26 73.9542442,136.315 Z M79.7082442,141.502 L71.5182442,141.502 C72.4632442,144.778 74.2062442,147.277 76.4952442,149.125 C78.2382442,146.899 79.2462442,144.337 79.7082442,141.502 Z M85.4832442,141.502 L82.7532442,141.502 C81.9972442,144.946 80.5902442,147.949 78.2172442,150.322 C80.5692442,151.813 83.3832442,152.779 86.3442442,153.409 L86.2812442,153.661 C85.0422442,153.829 84.1392442,154.585 83.6982442,155.824 C80.8632442,154.9 78.4482442,153.64 76.4742442,151.834 C74.0172442,153.661 70.8252442,155.005 66.6672442,155.824 L66.5622442,155.572 C70.3002442,154.333 73.1562442,152.632 75.2142442,150.553 C73.2822442,148.327 71.8962442,145.366 71.1402442,141.502 L66.9192442,141.502 L66.7512442,140.914 L81.9552442,140.914 L83.4462442,138.919 C83.4462442,138.919 85.1052442,140.263 86.0712442,141.166 C86.0082442,141.397 85.7982442,141.502 85.4832442,141.502 Z M98.7602442,139.381 L98.7602442,144.421 C98.7602442,147.991 98.5712442,152.674 94.8542442,155.761 L94.6442442,155.614 C96.3452442,152.338 96.4502442,148.18 96.4502442,144.421 L96.4502442,137.806 L99.1382442,138.772 L105.039244,138.772 L104.997244,138.751 C104.745244,137.806 104.010244,136.798 103.338244,136.189 L103.506244,136.06268 C107.307244,136.042 107.496244,138.079 106.509244,138.772 L110.877244,138.772 L112.158244,137.05 C112.158244,137.05 113.586244,138.226 114.426244,139.045 C114.363244,139.276 114.132244,139.381 113.859244,139.381 L98.7602442,139.381 Z M102.267244,148.936 L104.871244,148.936 L104.871244,146.962 L102.267244,146.962 L102.267244,148.936 Z M104.871244,144.316 L102.267244,144.316 L102.267244,146.374 L104.871244,146.374 L104.871244,144.316 Z M109.932244,144.316 L107.223244,144.316 L107.223244,146.374 L109.932244,146.374 L109.932244,144.316 Z M107.223244,148.936 L109.932244,148.936 L109.932244,146.962 L107.223244,146.962 L107.223244,148.936 Z M110.982244,151.561 L112.242244,150.007 C112.242244,150.007 113.670244,151.036 114.510244,151.813 C114.468244,152.044 114.258244,152.149 113.964244,152.149 L107.223244,152.149 L107.223244,155.068 C107.223244,155.32 106.173244,155.845 105.333244,155.845 L104.871244,155.845 L104.871244,152.149 L98.3402442,152.149 L98.1932442,151.561 L104.871244,151.561 L104.871244,149.524 L102.267244,149.524 L102.267244,150.028 C102.267244,150.238 101.280244,150.721 100.356244,150.721 L100.020244,150.721 L100.020244,142.762 L102.414244,143.728 L104.871244,143.728 L104.871244,142.09 L99.2642442,142.09 L99.0962442,141.481 L104.871244,141.481 L104.871244,139.549 L107.832244,139.843 C107.790244,140.074 107.664244,140.263 107.223244,140.326 L107.223244,141.481 L110.394244,141.481 L111.591244,139.948 C111.591244,139.948 112.977244,140.998 113.796244,141.754 C113.733244,141.985 113.502244,142.09 113.208244,142.09 L107.223244,142.09 L107.223244,143.728 L109.722244,143.728 L110.814244,142.552 L113.019244,144.253 C112.914244,144.4 112.641244,144.568 112.263244,144.652 L112.263244,149.797 C112.242244,149.965 111.129244,150.448 110.331244,150.448 L109.932244,150.448 L109.932244,149.524 L107.223244,149.524 L107.223244,151.561 L110.982244,151.561 Z" id="path-1"></path>
    </defs>
    <g id="Page-1" stroke="none" stroke-width="1" fill="none" fill-rule="evenodd">
        <g id="Artboard" transform="translate(-5.000000, 0.000000)" fill-rule="nonzero">
            <g id="Wikisource-logo-zh" transform="translate(5.000000, 0.000000)">
                <g id="維基文庫">
                    <use fill="#484848" xlink:href="#path-1"></use>
                    <use fill="#000000" xlink:href="#path-1"></use>
                </g>
                <g id="g3126">
                    <g id="g2492" transform="translate(0.017380, 0.237816)">
                        <path d="M62.0869486,0.0608196223 C41.3709593,0.212868678 23.0347156,11.0083516 11.8377081,27.4904693 L113.129437,27.4904693 C101.840901,10.8867124 83.3521098,0.0608196223 62.4835728,0.0608196223 C62.3615346,0.0608196223 62.2089868,0.0608196223 62.0869486,0.0608196223 Z" id="path1334" fill="#608AB4"></path>
                        <path d="M8.2375804,33.4507923 C3.17299393,42.9082435 0.274586013,53.7949559 0.274586013,65.4115038 C0.274586013,101.47754 28.1603211,130.762188 62.4835728,130.762188 C96.8068245,130.762188 124.66205,101.47754 124.66205,65.4115038 C124.66205,53.7949559 121.794152,42.9082435 116.729565,33.4507923 L8.2375804,33.4507923 Z" id="path2488" fill="#375493"></path>
                        <path d="M11.8377081,27.4904693 C10.5257972,29.4062874 9.33592445,31.3829251 8.2375804,33.4507923 L116.729565,33.4507923 C115.631221,31.3829251 114.410839,29.4062874 113.129437,27.4904693 L11.8377081,27.4904693 Z" id="path2361" fill="#D6DDE3"></path>
                        <path d="M89.057397,7.38958411 C88.8133205,7.38958411 88.508225,7.45040373 88.233639,7.54163316 C85.4572693,11.9814656 85.4572693,26.6389946 85.5182884,29.8320247 C85.5182884,29.8320247 85.5182884,29.8320247 85.5487979,29.8320247 C89.6370786,30.7443191 95.0677797,29.7103855 95.2508371,25.75711 C95.5559326,20.5874421 95.8915378,15.5394135 93.1456776,12.3159735 C90.643894,13.4715463 91.1015373,8.81884523 90.0947219,7.78491165 C89.8201359,7.51122335 89.4540212,7.38958411 89.057397,7.38958411 Z" id="path2219" fill="#7BBCE5"></path>
                        <path d="M88.233639,7.54163316 C86.7691802,7.99778033 84.9996259,9.30540221 84.1148488,9.76154937 C83.3521098,9.85277881 81.9181606,9.79195919 80.8808357,10.0656475 C78.5926189,10.6434339 76.5484786,12.0422852 75.3280963,14.2317916 C73.7721089,9.73113956 70.4770768,15.2657252 66.5413439,18.4283455 C64.3751654,16.7862157 59.9817891,13.5019561 55.9545276,11.4036792 C52.7205146,13.045809 49.3339537,18.5803946 47.320323,19.0669516 C45.2151635,19.4622791 42.2862461,19.2190006 41.0658638,20.7090814 C39.0217235,22.8073584 38.4115323,25.2401432 38.0149081,27.4904693 C42.8049085,29.1934187 47.8084759,29.2238285 52.5984763,28.5852225 C55.3138269,27.9466164 57.235929,28.8589108 60.0428083,28.7372715 C68.5244651,29.1021893 77.7078418,28.0682557 85.4877788,29.8320247 C85.4572693,26.6694044 85.4572693,11.9814656 88.233639,7.54163316 Z" id="path2230" fill="#FFFFFF"></path>
                        <path d="M59.8902605,16.3908882 C60.8970758,19.4622791 61.781853,22.5336701 61.4462479,25.605061 C61.0801332,27.5208791 61.9038912,27.36883 63.3988595,26.6085847 C64.8938278,25.7875198 65.6870763,24.9056353 67.8532549,24.1757999 C69.56179,23.7196527 68.3414078,22.4424406 67.5481593,21.5909659 C65.1379043,19.3406399 62.5140824,17.8809689 59.8902605,16.3908882 L59.8902605,16.3908882 Z" id="path2221" fill="#7BBCE5"></path>
                        <path d="M68.5854842,33.4507923 C70.3855481,57.1096253 86.3115369,59.9985574 96.3491811,55.224217 C91.3456138,50.2674178 93.1456776,40.2017703 98.5153597,40.0801311 C108.430966,39.8368526 105.593577,58.2651981 105.593577,67.2360924 C110.993769,66.1413392 110.658163,45.7363559 109.4988,33.4507923 L68.5854842,33.4507923 L68.5854842,33.4507923 Z" id="path2364" fill="#294584"></path>
                        <path d="M17.2989188,33.4507923 C17.4819762,35.4882496 17.6955431,37.5257069 17.8786004,39.5631643 C19.1905114,41.9655394 20.1668172,44.3375046 19.8922312,46.7398797 C22.4855435,46.1012737 24.0110214,45.7667658 25.414461,48.4124193 C31.5163724,52.1832359 37.2826787,52.6393831 42.9879659,52.0920065 C44.147329,65.8068313 43.8117239,76.8760026 43.323571,93.2668908 C46.7711509,98.9839353 50.2492404,104.427291 53.6968204,110.144336 C55.6799416,113.611054 59.1580311,114.736217 61.9038912,110.600483 C64.2531271,109.53614 66.5718535,108.502206 68.9210894,107.437863 C68.9210894,108.593436 68.9210894,109.779418 68.9210894,110.934991 C72.5212171,111.847285 76.0603257,113.215727 74.4433192,116.956134 C73.1924273,119.358509 73.8941471,120.453262 77.4332558,118.841542 C80.5452306,117.321051 82.4978422,119.662607 84.1148488,120.088344 C81.7961224,117.625149 83.7792436,112.75958 83.8707723,107.741961 C87.196314,107.437863 91.0100086,104.427291 94.3660599,104.123193 C101.23071,97.4938545 102.420583,95.0306598 102.390073,86.4550931 C103.091793,84.2351768 104.068099,83.6573904 103.549437,79.7953444 C103.946061,77.3929693 104.495233,74.2911686 104.861348,71.8887935 C105.135934,70.3378932 105.38001,68.7869928 105.654596,67.2665022 C105.624086,67.2665022 105.624086,67.2665022 105.593577,67.2665022 C105.593577,58.3260178 108.400456,39.8976722 98.5153597,40.1105409 C93.1761872,40.2321801 91.3456138,50.2978276 96.3491811,55.2546268 C95.189818,55.8020034 93.9389261,56.2581506 92.6575247,56.5926585 C93.054149,58.934214 91.3761233,61.3061793 89.1489257,61.4278185 C86.9522376,61.2453596 83.687715,63.4044562 81.6130651,68.4220751 C78.3180329,75.355512 75.3280963,69.3343694 74.107714,67.4489611 C72.5517266,65.4115038 74.4738287,63.4956857 70.2330003,64.7424879 C67.4566306,65.5939626 63.8870124,66.171749 63.0632544,61.9751951 C59.4936362,58.3564276 56.0765658,55.1938072 52.5069477,51.5750397 C51.0729985,49.8720903 52.2628712,48.5036488 52.2628712,47.8954525 C52.2628712,47.8954525 52.2628712,47.8650427 52.2628712,47.8346329 C52.2628712,47.8346329 52.2628712,47.8346329 52.2628712,47.8346329 C52.2628712,47.8346329 52.2628712,47.8042231 52.2628712,47.8042231 C52.2628712,47.8042231 52.2628712,47.7738133 52.2628712,47.7738133 C52.2628712,47.7738133 52.2628712,47.7434035 52.2323617,47.7434035 C52.2323617,47.7434035 52.2323617,47.7129937 52.2323617,47.7129937 C52.2323617,47.7129937 52.2323617,47.7129937 52.2323617,47.7129937 C52.2323617,47.7129937 52.2018521,47.6825839 52.2018521,47.6825839 C52.2018521,47.6825839 52.1713425,47.6521741 52.1713425,47.6521741 C52.1713425,47.6521741 52.1713425,47.6521741 52.140833,47.6521741 C52.1103234,47.6521741 52.1103234,47.6521741 52.0798139,47.6217642 C50.6763742,46.7398797 48.9983486,47.8042231 47.1677752,48.5644684 C42.3777747,49.4463529 40.4861822,48.5948782 39.9675197,46.0708639 C39.9980293,41.8743099 37.6487934,42.3304571 33.7740796,42.9082435 C22.6686009,44.4895537 20.868537,40.5666881 17.634524,33.4507923 L17.2989188,33.4507923 L17.2989188,33.4507923 Z" id="path2370" fill="#E0E9EA"></path>
                        <path d="M17.634524,33.4507923 C20.868537,40.5666881 22.6686009,44.4895537 33.7740796,42.9082435 C37.6182838,42.3304571 39.9980293,41.9047197 39.9675197,46.0708639 C40.4861822,48.5948782 42.3777747,49.4463529 47.1677752,48.5644684 C48.9983486,47.8042231 50.7068838,46.7398797 52.0798139,47.6217642 C52.1103234,47.6217642 52.1103234,47.6217642 52.140833,47.6521741 C52.140833,47.6521741 52.140833,47.6521741 52.1713425,47.6521741 C52.1713425,47.6521741 52.2018521,47.6825839 52.2018521,47.6825839 C52.2018521,47.6825839 52.2323617,47.7129937 52.2323617,47.7129937 C52.2323617,47.7129937 52.2323617,47.7129937 52.2323617,47.7129937 C52.2323617,47.7129937 52.2323617,47.7434035 52.2323617,47.7434035 C52.2323617,47.7434035 52.2323617,47.7738133 52.2628712,47.7738133 C52.2628712,47.7738133 52.2628712,47.8042231 52.2628712,47.8042231 C52.2628712,47.8042231 52.2628712,47.8346329 52.2628712,47.8346329 C52.2628712,47.8346329 52.2628712,47.8346329 52.2628712,47.8346329 C52.2628712,47.8346329 52.2628712,47.8650427 52.2628712,47.8954525 C52.2628712,48.5036488 51.0729985,49.8720903 52.5069477,51.5750397 C56.0765658,55.1938072 59.4936362,58.3564276 63.0632544,61.9751951 C63.917522,66.171749 67.4566306,65.6243724 70.2330003,64.7424879 C74.4738287,63.4956857 72.5822362,65.4115038 74.107714,67.4489611 C75.2975868,69.3039596 78.3180329,75.3251022 81.6130651,68.4220751 C83.687715,63.4044562 86.921728,61.2149498 89.1489257,61.4278185 C91.3761233,61.3365891 93.054149,58.934214 92.6575247,56.5926585 C82.8029378,59.086263 70.1719812,54.3727423 68.5854842,33.4812021 L17.634524,33.4507923 L17.634524,33.4507923 Z" id="path2383" fill="#4D8AC0"></path>
                        <path d="M50.9204507,60.6371634 C47.7169472,60.8500321 49.3949728,71.5238758 49.730578,76.5719044 C50.2187309,81.5591135 51.3170749,80.3731308 54.7951644,78.2140342 C56.412171,81.467884 55.4358651,83.2620629 53.1476484,85.3603399 C51.4696227,86.94165 50.4933169,89.3136153 51.9577756,92.0504983 C52.415419,92.7803338 52.7815337,93.1148417 53.3001961,94.2704145 C53.6358013,94.9698402 54.001916,95.6692658 54.3375211,96.3686915 C54.7341453,97.9195919 54.276502,98.862296 53.6052917,99.6833609 C52.9951006,100.565245 52.8730623,101.47754 53.6663108,103.940734 C54.0934446,105.369996 52.9035719,107.072945 54.7646549,108.593436 C55.5884129,109.232042 56.412171,109.718599 57.235929,110.083516 C56.5036996,107.985239 56.5036996,104.944258 56.8393048,102.359424 C57.0833812,99.8962296 57.235929,98.375739 59.4936362,96.7031994 C61.4462479,95.6996756 60.8970758,90.4083685 61.0801332,87.276158 C61.1106427,87.3065678 61.1411523,87.3065678 61.1411523,87.3369776 C61.1411523,87.3369776 61.1411523,87.3065678 61.1411523,87.276158 C65.3209616,86.3942734 63.0022353,83.0491942 61.7208339,79.856164 L51.4696227,60.7283928 C51.2560558,60.6675732 51.0729985,60.6371634 50.9204507,60.6371634 C50.9509603,60.6371634 50.9509603,60.6371634 50.9204507,60.6371634 Z" id="path2398" fill="#D6DDE3"></path>
                        <path d="M51.5306418,60.697983 L61.781853,79.8257542 C63.0632544,83.0491942 65.4124903,86.3638636 61.2021714,87.2457482 C61.5682861,89.4960742 64.3446558,91.4423021 67.4261211,91.1686138 C70.6296245,90.9557451 72.9788604,93.3581202 74.0161854,95.7604953 C74.1687332,93.0844319 74.4738287,90.4691881 75.145039,87.8539444 C75.5721728,86.5767323 77.9214087,85.4211595 75.968797,83.6878002 C68.0668218,75.0210041 60.4394325,68.2092064 51.8967565,60.8196223 C51.7747183,60.7892125 51.6526801,60.7283928 51.5306418,60.697983 Z" id="path2404" fill="#608AB4"></path>
                        <path d="M61.1411523,87.2457482 C60.9886045,90.3779587 61.507267,95.6692658 59.5546553,96.6727896 C57.2969481,98.3453292 57.1444003,99.8658198 56.9003239,102.329014 C56.5342092,104.944258 56.5647187,107.95483 57.2969481,110.053107 C58.0291775,110.357205 58.7919164,110.570073 59.6156745,110.722122 C60.958095,110.843762 61.8123626,111.17827 64.6802609,110.661303 C67.1820446,110.387614 68.6770129,109.140812 71.5449113,108.715075 C73.1008987,108.410977 74.1687332,107.80278 74.0772045,105.430815 C73.9551663,102.176965 73.8636376,98.9535254 74.0161854,95.7604953 C72.9483509,93.3581202 70.6296245,90.9557451 67.4261211,91.1686138 C64.3751654,91.4423021 61.6293052,89.526484 61.2021714,87.3065678 C61.2021714,87.3065678 61.2021714,87.3065678 61.2021714,87.3065678 C61.2021714,87.3065678 61.2021714,87.3065678 61.2021714,87.3065678 C61.2021714,87.3065678 61.1716619,87.276158 61.1411523,87.2457482 L61.1411523,87.2457482 Z" id="path2407" fill="#236798"></path>
                        <path d="M103.274851,84.0831278 C103.000265,84.8129633 102.664659,85.4515693 102.390073,86.3942734 C102.390073,94.9698402 101.23071,97.4330349 94.3660599,104.062374 C94.3050408,104.092784 92.3524292,108.654255 90.6744035,109.870648 C87.8675243,111.938515 88.0505816,113.823923 86.9827471,116.074249 C86.2200082,117.229822 85.1826833,117.412281 84.4199443,117.199412 C83.962301,116.834494 83.4741481,116.652036 82.9859951,116.074249 C82.9554856,116.986543 83.0165047,117.838018 83.2605812,118.598263 C83.2605812,118.628673 83.2910907,118.628673 83.2910907,118.659083 C83.2910907,118.659083 83.2910907,118.659083 83.2910907,118.659083 C83.4131289,118.932771 83.5351672,119.20646 83.687715,119.480148 C83.687715,119.480148 83.687715,119.510558 83.7182245,119.510558 C83.7182245,119.510558 83.7182245,119.510558 83.7182245,119.510558 C83.8402627,119.693017 83.962301,119.845066 84.1148488,120.027525 C84.0843392,120.027525 84.0233201,119.997115 83.9928105,119.997115 C86.8607089,124.588996 90.9489895,126.018257 96.1661238,124.224078 C98.973003,123.007686 100.620519,121.882523 102.359564,120.574901 C103.885042,119.14564 105.685106,116.439167 102.847717,116.256708 C102.451093,116.135069 102.207016,116.043839 102.115487,115.9222 C102.115487,115.9222 102.084978,115.9222 102.084978,115.89179 C102.084978,115.89179 102.054468,115.86138 102.054468,115.830971 C102.054468,115.800561 102.023959,115.770151 102.023959,115.770151 C102.023959,115.770151 102.023959,115.770151 102.023959,115.739741 C102.023959,115.739741 102.023959,115.709331 102.023959,115.709331 C102.023959,115.709331 102.023959,115.678922 102.023959,115.678922 C102.023959,115.283594 102.817207,114.675398 102.207016,113.489415 C101.810392,111.664826 103.518927,109.961877 104.769819,109.50573 C103.915551,107.650731 103.061284,105.795733 102.207016,103.940734 C102.268035,102.724342 104.67829,102.085736 104.281666,99.8050002 C104.922367,94.1183655 105.868163,85.6036184 103.274851,84.0831278 L103.274851,84.0831278 Z" id="path2460" fill="#608AB4"></path>
                        <path d="M87.8675243,61.5190479 C85.7928744,62.0664245 83.3216003,64.2863407 81.6130651,68.3916652 C80.8503262,70.0033852 80.0875872,70.9156796 79.3553579,71.3414169 C79.416377,78.3964931 81.1249122,83.4445218 84.6030017,86.2118146 C83.5656767,90.3171391 82.5283518,95.9429541 84.4199443,99.348853 C81.2469504,98.3453292 82.5588613,104.70098 81.6130651,107.377043 C80.0265681,111.816876 78.6231285,111.634417 77.1586698,112.029744 C78.5010903,113.580645 80.2706446,115.222774 82.8944665,116.195888 C82.8944665,116.195888 82.8944665,116.195888 82.8944665,116.226298 C82.8944665,116.256708 82.924976,116.287118 82.924976,116.317528 C83.1080334,116.621626 83.9928105,116.925724 84.4199443,117.260232 C85.1826833,117.4731 86.2200082,117.290642 86.9827471,116.135069 C88.0200721,113.884743 87.8370147,111.999334 90.6744035,109.931467 C92.29141,108.775894 94.2135121,104.366472 94.3660599,104.123193 C88.8133205,101.021393 86.1589891,95.0610696 87.0742758,89.3440251 C87.3183522,87.7627149 88.3556772,85.9989459 86.9827471,83.4445218 C85.3047215,76.4198554 86.3420464,68.3004358 87.8675243,61.5190479 Z" id="path2468" fill="#236798"></path>
                    </g>
                </g>
            </g>
        </g>
    </g>
</svg>