<?xml version="1.0" encoding="UTF-8" standalone="no"?>
<!-- Created with Inkscape (http://www.inkscape.org/) -->
<svg
   xmlns:svg="http://www.w3.org/2000/svg"
   xmlns="http://www.w3.org/2000/svg"
   version="1.0"
   width="410"
   height="513"
   viewBox="0 0 410 513"
   id="svg1325"
   xml:space="preserve">
<defs
   id="defs3" />

<g
   transform="translate(-3.13125e-5,1.7086299)"
   id="g3126">
	<g
   transform="matrix(1.005595,0,0,1.000506,-0.942714,-0.217568)"
   id="g2492">
		<path
   d="M 203.5,0.219 C 135.607,0.673 75.523,36.175 38.781,90.406 L 370.812,90.406 C 333.831,35.824 273.246,0.219 204.812,0.219 C 204.373,0.219 203.939,0.216 203.5,0.219 z"
   id="path1334"
   style="fill:#608ab4" />
		<path
   d="M 27,110 C 10.418,141.083 0.938,176.917 0.938,215.093 C 0.938,333.714 92.283,430 204.812,430 C 317.341,430 408.656,333.714 408.656,215.093 C 408.656,176.917 399.207,141.082 382.625,110 L 27,110 L 27,110 z"
   id="path2488"
   style="fill:#375493" />
		<path
   d="M 38.781,90.406 C 34.523,96.691 30.608,103.237 27,110 L 382.625,110 C 379.017,103.237 375.071,96.691 370.812,90.406 L 38.781,90.406 z"
   id="path2361"
   style="fill:#d6dde3" />
		<path
   d="M 291.875,24.313 C 291.027,24.327 290.118,24.517 289.157,24.813 C 280.075,39.383 280.102,87.654 280.219,98.094 C 280.238,98.098 280.262,98.09 280.281,98.094 C 293.725,101.091 311.526,97.65 312.125,84.719 C 313.151,67.678 314.179,51.15 305.186,40.532 C 296.965,44.3 298.526,29.051 295.187,25.625 C 294.354,24.667 293.195,24.29 291.875,24.313 z"
   id="path2219"
   style="fill:#7bbce5" />
		<path
   d="M 289.157,24.812 C 284.367,26.283 278.539,30.649 275.656,32.062 C 273.149,32.331 268.499,32.136 265.031,33.031 C 257.576,34.954 250.791,39.53 246.875,46.718 C 241.816,31.955 230.963,50.11 218.094,60.562 C 210.966,55.167 196.604,44.405 183.438,37.468 C 172.848,42.863 161.749,61.083 155.157,62.624 C 148.306,63.909 138.651,63.149 134.626,68.03 C 127.947,74.966 125.879,82.924 124.595,90.374 C 140.266,95.94 156.705,96.109 172.376,93.968 C 181.282,91.827 187.62,94.842 196.782,94.499 C 224.592,95.697 254.713,92.288 280.218,98.092 C 280.102,87.653 280.075,39.382 289.157,24.812 z"
   id="path2230"
   style="fill:#ffffff" />
		<path
   d="M 196.272,53.898 C 199.617,64.003 202.517,74.108 201.41,84.212 C 200.211,90.463 202.866,90.035 207.833,87.552 C 212.714,84.898 215.284,81.986 222.476,79.588 C 228.042,78.047 224.105,73.936 221.45,71.11 C 213.51,63.559 204.876,58.786 196.272,53.898 L 196.272,53.898 z"
   id="path2221"
   style="fill:#7bbce5" />
		<path
   d="M 224.812,110 C 230.664,187.793 282.917,197.349 315.813,181.625 C 299.366,165.359 305.332,132.209 322.875,131.844 C 355.327,131.054 346.088,191.67 346.095,221.094 C 363.838,217.486 362.675,150.355 358.908,110 L 224.812,110 z"
   id="path2364"
   style="fill:#294584" />
		
			<path
   d="M 56.75,110 C 57.388,116.697 58.018,123.397 58.656,130.093 C 62.948,137.952 66.14,145.797 65.25,153.656 C 73.729,151.566 78.782,150.474 83.344,159.156 C 103.297,171.579 122.25,173.061 140.907,171.218 C 144.7,216.359 143.594,252.669 142,306.625 C 153.331,325.448 164.669,343.301 176,362.124 C 182.507,373.568 193.92,377.183 202.875,363.654 C 210.551,360.182 218.198,356.721 225.874,353.248 C 225.874,357.086 225.874,360.909 225.874,364.748 C 237.663,367.712 249.323,372.227 243.968,384.498 C 239.893,392.425 242.187,395.949 253.78,390.654 C 264.022,385.664 270.342,393.403 275.687,394.779 C 268.068,386.664 274.625,370.688 274.864,354.187 C 285.798,353.188 298.283,343.277 309.217,342.279 C 331.701,320.458 335.571,312.34 335.531,284.154 C 337.79,276.842 341.032,274.913 339.375,262.216 C 340.654,254.358 342.44,244.075 343.719,236.216 C 344.595,231.073 345.439,226.037 346.282,221.06 C 346.221,221.074 346.157,221.079 346.095,221.091 C 346.087,191.667 355.328,131.051 322.875,131.841 C 305.332,132.207 299.366,165.357 315.813,181.622 C 311.999,183.445 307.92,184.952 303.687,186.028 C 305.021,193.699 299.48,201.571 292.219,201.903 C 284.973,201.255 274.318,208.445 267.563,224.934 C 256.766,247.705 246.942,227.894 243,221.777 C 237.941,215.06 244.153,208.816 230.281,212.871 C 221.137,215.699 209.53,217.566 206.75,203.746 C 195.054,191.867 183.853,181.437 172.156,169.558 C 167.486,164 171.376,159.424 171.406,157.464 C 171.406,157.423 171.407,157.355 171.406,157.308 C 171.406,157.301 171.407,157.283 171.406,157.277 C 171.4,157.255 171.382,157.204 171.375,157.183 C 171.369,157.159 171.352,157.112 171.344,157.089 C 171.329,157.052 171.302,156.998 171.281,156.964 C 171.276,156.953 171.255,156.913 171.25,156.902 C 171.242,156.894 171.223,156.876 171.219,156.871 C 171.199,156.85 171.152,156.802 171.125,156.777 C 171.095,156.754 171.042,156.711 171,156.683 C 170.984,156.673 170.953,156.66 170.937,156.652 C 170.883,156.627 170.814,156.611 170.75,156.59 C 166.188,153.711 160.656,157.177 154.625,159.684 C 138.882,162.575 132.734,159.792 131.031,151.465 C 131.124,137.71 123.387,139.145 110.749,141.059 C 74.321,146.249 68.431,133.355 57.812,109.997 L 56.75,109.997 L 56.75,110 z"
   id="path2370"
   style="fill:#e0e9ea" />
		<path
   d="M 57.813,110 C 68.432,133.359 74.323,146.252 110.75,141.062 C 123.388,139.148 131.124,137.714 131.032,151.468 C 132.735,159.795 138.882,162.577 154.626,159.686 C 160.657,157.179 166.189,153.713 170.751,156.592 C 170.816,156.613 170.885,156.629 170.938,156.654 C 170.953,156.662 170.984,156.675 171.001,156.685 C 171.043,156.712 171.096,156.755 171.126,156.779 C 171.153,156.803 171.2,156.852 171.22,156.873 C 171.224,156.878 171.243,156.896 171.251,156.904 C 171.256,156.915 171.277,156.955 171.283,156.966 C 171.303,157 171.33,157.054 171.345,157.091 C 171.353,157.113 171.37,157.161 171.377,157.185 C 171.384,157.206 171.402,157.257 171.408,157.279 C 171.409,157.285 171.408,157.303 171.408,157.31 C 171.409,157.357 171.408,157.425 171.408,157.466 C 171.377,159.426 167.488,164.002 172.158,169.56 C 183.855,181.439 195.055,191.868 206.752,203.747 C 209.531,217.567 221.138,215.699 230.283,212.872 C 244.155,208.817 237.943,215.061 243.001,221.778 C 246.943,227.895 256.768,247.706 267.565,224.934 C 274.32,208.445 284.975,201.255 292.22,201.903 C 299.481,201.571 305.023,193.699 303.689,186.028 C 271.42,194.236 229.987,178.772 224.814,109.997 L 57.813,110 L 57.813,110 z"
   id="path2383"
   style="fill:#4d8ac0" />
		<path
   d="M 166.937,199.375 C 156.439,200.06 161.911,235.161 163.062,251.782 C 164.617,268.143 168.264,264.289 179.687,257.157 C 184.94,267.81 181.746,273.763 174.312,280.657 C 168.778,285.887 165.603,293.699 170.406,302.689 C 171.875,305.137 173.108,306.175 174.812,310.033 C 175.955,312.317 177.076,314.622 178.218,316.907 C 179.536,321.959 178.049,325.111 175.843,327.813 C 173.8,330.739 173.406,333.689 176.062,341.782 C 177.511,346.484 173.539,352.097 179.687,357.032 C 182.412,359.148 185.08,360.731 187.812,361.906 C 185.442,355.007 185.372,345.049 186.531,336.5 C 187.314,328.435 187.857,323.42 195.218,317.938 C 201.64,314.649 199.858,297.275 200.406,286.938 C 200.469,286.993 200.558,287.041 200.625,287.094 C 200.617,287.047 200.633,286.983 200.625,286.938 C 214.361,284.037 206.714,273.051 202.5,262.5 L 168.906,199.625 C 168.242,199.441 167.631,199.353 167.062,199.375 C 167.021,199.377 166.979,199.372 166.937,199.375 z"
   id="path2398"
   style="fill:#d6dde3" />
		<path
   d="M 168.906,199.625 L 202.5,262.5 C 206.714,273.05 214.36,284.037 200.625,286.938 C 201.85,294.3 210.954,300.704 221.061,299.844 C 231.575,299.168 239.223,307.028 242.686,314.969 C 243.143,306.212 244.213,297.523 246.342,288.937 C 247.701,284.694 255.394,280.934 248.998,275.282 C 223.099,246.766 198.136,224.349 170.123,200.063 C 169.699,199.878 169.297,199.734 168.906,199.625 z"
   id="path2404"
   style="fill:#608ab4" />
		<path
   d="M 200.406,286.938 C 199.858,297.275 201.64,314.649 195.218,317.938 C 187.857,323.42 187.314,328.435 186.531,336.5 C 185.37,345.061 185.432,355.036 187.812,361.937 C 190.242,362.976 192.731,363.678 195.375,364.125 C 199.821,364.523 202.62,365.621 212,363.905 C 220.213,362.957 225.144,358.948 234.531,357.529 C 239.655,356.523 243.124,354.568 242.844,346.746 C 242.454,336.068 242.137,325.466 242.689,314.965 C 239.224,307.024 231.577,299.162 221.064,299.84 C 211.073,300.691 202.049,294.436 200.658,287.184 C 200.655,287.168 200.661,287.166 200.658,287.153 C 200.653,287.149 200.663,287.126 200.658,287.122 C 200.58,287.059 200.481,287.008 200.406,286.938 L 200.406,286.938 z"
   id="path2407"
   style="fill:#236798" />
		<path
   d="M 338.469,276.531 C 337.607,278.922 336.488,281.06 335.531,284.156 C 335.572,312.342 331.701,320.46 309.217,342.281 C 309.015,342.332 302.587,357.407 297.125,361.344 C 287.91,368.157 288.485,374.334 285.063,381.781 C 282.587,385.547 279.164,386.154 276.688,385.47 C 275.142,384.25 273.578,383.669 272.031,381.814 C 271.933,384.86 272.147,387.633 272.937,390.065 C 272.973,390.136 272.995,390.212 273.03,390.285 C 273.034,390.296 273.028,390.307 273.03,390.315 C 273.465,391.198 273.871,392.09 274.281,392.972 C 274.302,393.007 274.321,393.031 274.343,393.066 C 274.347,393.074 274.339,393.089 274.343,393.097 C 274.714,393.677 275.143,394.235 275.625,394.752 C 275.477,394.713 275.336,394.676 275.187,394.627 C 284.625,409.719 297.955,414.439 315.063,408.503 C 324.274,404.485 329.659,400.808 335.375,396.472 C 340.347,391.756 346.263,382.902 336.939,382.315 C 335.61,381.964 334.87,381.62 334.5,381.253 C 334.486,381.238 334.449,381.203 334.438,381.191 C 334.402,381.149 334.371,381.078 334.344,381.035 C 334.306,380.971 334.27,380.883 334.252,380.816 C 334.248,380.8 334.224,380.769 334.221,380.754 C 334.216,380.731 334.223,380.684 334.221,380.66 C 334.219,380.637 334.221,380.59 334.221,380.566 C 334.238,379.221 336.797,377.304 334.844,373.408 C 333.51,367.452 339.185,361.822 343.25,360.315 C 340.455,354.201 337.639,348.085 334.844,341.972 C 335.037,337.956 342.934,335.837 341.656,328.346 C 343.936,309.499 347.026,281.529 338.469,276.531 L 338.469,276.531 z"
   id="path2460"
   style="fill:#608ab4" />
		<path
   d="M 288.03,202.312 C 281.276,204.13 273.104,211.411 267.563,224.937 C 265.032,230.274 262.548,233.272 260.188,234.656 C 260.424,257.905 265.947,274.457 277.375,283.532 C 273.986,296.982 270.606,315.524 276.75,326.749 C 266.371,323.466 270.603,344.334 267.532,353.124 C 262.342,367.74 257.778,367.102 252.907,368.373 C 257.355,373.456 263.08,378.852 271.658,382.03 C 271.659,382.047 271.655,382.075 271.658,382.091 C 271.675,382.166 271.737,382.266 271.782,382.341 C 272.421,383.312 275.298,384.368 276.688,385.465 C 279.164,386.148 282.587,385.543 285.063,381.777 C 288.485,374.33 287.91,368.153 297.125,361.339 C 302.459,357.494 308.741,342.998 309.218,342.276 C 290.984,332.028 282.363,312.499 285.312,293.682 C 286.16,288.491 289.554,282.674 285,274.307 C 279.554,251.319 283.021,224.567 288.03,202.312 z"
   id="path2468"
   style="fill:#236798" />
	</g>
</g>

<g
   transform="matrix(1.0181786,0,0,1.0181786,-5.3755532,-9.2748804)"
   id="g2427"><g
     id="g27">
	<path
   d="M 96.517,507.984 C 96.867,508.308 96.867,509.449 96.517,509.774 C 93.597,509.719 91.902,509.666 88.982,509.666 C 86.003,509.666 84.251,509.721 81.389,509.774 C 81.038,509.449 81.038,508.308 81.389,507.984 C 85.478,507.821 86.471,507.549 86.471,503.046 L 86.471,481.294 C 86.471,476.792 85.478,476.521 81.389,476.357 C 81.038,476.032 81.038,474.891 81.389,474.567 C 84.309,474.622 86.003,474.674 88.924,474.674 C 91.903,474.674 93.655,474.62 96.517,474.567 C 96.867,474.891 96.867,476.032 96.517,476.357 C 92.428,476.519 91.435,476.792 91.435,481.294 L 91.435,503.046 C 91.435,507.551 92.428,507.821 96.517,507.984 z"
   id="path29" />
	<path
   d="M 115.265,507.984 C 115.616,508.308 115.616,509.449 115.265,509.774 C 112.344,509.719 110.65,509.666 107.73,509.666 C 104.751,509.666 102.999,509.721 100.137,509.774 C 99.786,509.449 99.786,508.308 100.137,507.984 C 104.226,507.821 105.219,507.549 105.219,503.046 L 105.219,481.294 C 105.219,476.792 104.226,476.521 100.137,476.357 C 99.786,476.032 99.786,474.891 100.137,474.567 C 103.057,474.622 104.751,474.674 107.672,474.674 C 110.651,474.674 112.403,474.62 115.266,474.567 C 115.617,474.891 115.617,476.032 115.266,476.357 C 111.177,476.519 110.184,476.792 110.184,481.294 L 110.184,490.825 C 112.228,490.662 113.449,489.864 114.623,488.724 L 124.436,479.177 C 127.246,476.281 124.909,476.54 122.8,476.357 C 122.45,476.032 122.45,474.891 122.8,474.567 C 125.546,474.622 127.064,474.674 129.401,474.674 C 131.738,474.674 132.205,474.62 134.95,474.567 C 135.301,474.891 135.301,476.032 134.95,476.357 C 132.614,476.628 130.044,476.737 127.357,479.394 L 119.18,487.584 C 117.27,489.499 117.018,489.862 117.018,490.242 C 117.018,490.677 117.193,491.055 117.719,491.597 L 130.511,505.701 C 132.473,507.958 134.606,507.839 135.651,507.979 C 136.002,508.303 136.002,509.444 135.651,509.768 C 132.905,509.714 132.029,509.661 129.752,509.661 C 128,509.661 127.006,509.716 125.838,509.768 C 125.604,509.768 125.546,509.606 125.546,509.444 C 125.546,508.457 125.54,507.012 124.378,505.701 L 114.857,494.961 C 113.689,493.566 112.147,492.959 110.184,492.905 L 110.184,503.043 C 110.183,507.551 111.176,507.821 115.265,507.984 z"
   id="path31" />
	<path
   d="M 154.63,507.984 C 154.981,508.308 154.981,509.449 154.63,509.774 C 151.709,509.719 150.015,509.666 147.095,509.666 C 144.116,509.666 142.364,509.721 139.502,509.774 C 139.151,509.449 139.151,508.308 139.502,507.984 C 143.591,507.821 144.584,507.549 144.584,503.046 L 144.584,481.294 C 144.584,476.792 143.591,476.521 139.502,476.357 C 139.151,476.032 139.151,474.891 139.502,474.567 C 142.422,474.622 144.116,474.674 147.037,474.674 C 150.016,474.674 151.768,474.62 154.631,474.567 C 154.982,474.891 154.982,476.032 154.631,476.357 C 150.542,476.519 149.549,476.792 149.549,481.294 L 149.549,503.046 C 149.548,507.551 150.541,507.821 154.63,507.984 z"
   id="path33" />
	<path
   d="M 168.822,507.984 C 169.173,508.308 169.173,509.449 168.822,509.774 C 166.661,509.719 163.74,509.666 161.345,509.666 C 159.067,509.666 158.308,509.721 156.146,509.774 C 155.796,509.449 155.796,508.308 156.146,507.984 C 158.687,507.821 160.445,507.485 161.987,504.131 L 174.971,475.907 C 175.637,474.454 176.081,473.969 176.94,473.969 C 177.758,473.969 178.09,474.55 178.517,475.597 L 190.491,504.997 C 191.572,507.791 193.482,507.791 195.748,507.98 C 196.099,508.304 196.099,509.445 195.748,509.77 C 193.587,509.715 191.484,509.662 189.089,509.662 C 186.811,509.662 183.598,509.717 181.437,509.77 C 181.086,509.445 181.086,508.304 181.437,507.98 C 184.217,507.794 186.63,507.991 185.759,505.755 L 182.196,496.587 L 170.047,496.587 C 168.645,496.587 168.295,496.804 168.003,497.51 L 164.791,505.375 C 163.881,507.61 166.626,507.844 168.822,507.984 z M 181.264,494.314 L 175.598,479.831 L 175.481,479.831 L 169.628,493.593 C 169.382,494.179 169.803,494.316 171.1,494.316 L 181.264,494.314 L 181.264,494.314 z"
   id="path35" />
	<path
   d="M 212.568,507.984 C 212.919,508.308 212.919,509.449 212.568,509.774 C 209.646,509.719 207.954,509.666 205.033,509.666 C 202.054,509.666 200.302,509.721 197.44,509.774 C 197.089,509.449 197.089,508.308 197.44,507.984 C 201.529,507.821 202.522,507.549 202.522,503.046 L 202.522,481.294 C 202.522,476.792 201.529,476.521 197.44,476.357 C 197.089,476.032 197.089,474.891 197.44,474.567 C 200.36,474.622 202.054,474.674 204.975,474.674 C 207.954,474.674 209.706,474.62 212.568,474.567 C 212.92,474.891 212.92,476.032 212.568,476.357 C 208.48,476.519 207.486,476.792 207.486,481.294 L 207.486,503.046 C 207.486,507.551 208.479,507.821 212.568,507.984 z"
   id="path37" />
	<path
   d="M 242.473,476.359 C 242.121,476.034 242.121,474.893 242.473,474.569 C 245.393,474.624 246.444,474.676 248.955,474.676 C 251.525,474.676 252.635,474.622 255.497,474.569 C 255.848,474.893 255.848,476.034 255.497,476.359 C 251.408,476.739 250.416,477.064 250.416,481.891 L 250.416,508.527 C 250.416,509.556 249.891,510.208 249.072,510.208 C 248.136,510.208 247.378,509.721 246.734,508.906 L 226.349,484.984 C 225.357,483.791 224.713,483.194 224.364,483.194 C 223.896,483.194 223.896,484.007 223.896,485.851 L 223.896,502.451 C 223.896,507.388 224.89,507.603 228.978,507.984 C 229.329,508.308 229.329,509.449 228.978,509.774 C 226.058,509.719 225.005,509.666 222.495,509.666 C 219.925,509.666 218.814,509.721 215.953,509.774 C 215.601,509.449 215.601,508.308 215.953,507.984 C 220.042,507.603 221.035,507.279 221.035,502.451 L 221.035,479.831 C 220.683,478.421 218.931,476.522 216.421,476.359 C 216.07,476.034 216.07,474.893 216.421,474.569 L 224.307,474.676 L 244.341,498.654 C 246.035,500.661 246.678,501.636 247.145,501.636 C 247.555,501.636 247.555,501.039 247.555,500.009 L 247.555,481.891 C 247.555,476.956 246.561,476.739 242.473,476.359 z"
   id="path39" />
	<path
   d="M 278.566,486.395 C 278.917,486.071 280.142,486.071 280.494,486.395 C 280.435,488.024 280.377,489.216 280.377,491.06 C 280.377,492.906 280.436,493.935 280.494,495.834 C 280.142,496.159 278.917,496.159 278.566,495.834 C 278.39,493.393 278.214,492.145 273.251,492.145 L 267.936,492.145 L 267.936,505.218 C 267.936,506.683 268.753,507.551 270.04,507.551 L 277.983,507.551 C 282.421,507.551 284.466,504.35 285.634,500.446 C 286.401,500.272 287.071,500.397 287.678,500.717 C 287.211,503.485 286.335,507.064 285.518,509.777 C 285.518,509.777 280.844,509.669 278.04,509.669 L 265.482,509.669 C 265.482,509.669 260.751,509.724 257.888,509.777 C 257.536,509.452 257.536,508.311 257.888,507.987 C 261.976,507.824 262.97,507.552 262.97,503.049 L 262.97,481.297 C 262.97,476.795 261.976,476.525 257.888,476.36 C 257.536,476.035 257.536,474.894 257.888,474.57 C 260.808,474.625 265.422,474.677 265.422,474.677 L 280.318,474.677 C 281.72,474.677 282.187,474.623 283.179,474.46 C 283.355,474.46 283.412,474.515 283.412,474.623 C 283.528,475.057 284.405,480.265 284.697,482.488 C 284.125,482.743 283.494,482.856 282.768,482.759 C 281.483,479.016 280.548,476.846 276.167,476.846 L 270.034,476.846 C 268.633,476.846 267.931,477.931 267.931,479.233 L 267.931,490.084 L 273.245,490.084 C 278.216,490.084 278.391,489.378 278.566,486.395 z"
   id="path41" />
	<path
   d="M 305.607,507.984 C 305.959,508.308 305.959,509.449 305.607,509.774 C 302.687,509.719 300.994,509.666 298.073,509.666 C 295.094,509.666 293.342,509.721 290.478,509.774 C 290.128,509.449 290.128,508.308 290.478,507.984 C 294.568,507.821 295.56,507.549 295.56,503.046 L 295.56,481.294 C 295.56,476.792 294.568,476.521 290.478,476.357 C 290.128,476.032 290.128,474.891 290.478,474.567 C 293.4,474.622 295.093,474.674 298.013,474.674 C 300.992,474.674 302.744,474.62 305.607,474.567 C 305.959,474.891 305.959,476.032 305.607,476.357 C 301.519,476.519 300.525,476.792 300.525,481.294 L 300.525,503.046 C 300.525,507.551 301.52,507.821 305.607,507.984 z"
   id="path43" />
	<path
   d="M 330.813,482.435 C 330.287,482.816 329.585,482.75 328.915,482.761 C 327.746,479.181 325.936,475.819 320.265,475.819 C 316.533,475.819 313.869,478.586 313.869,481.893 C 313.869,487.209 321.79,489.12 324.644,490.247 C 328.857,491.918 332.654,494.521 332.654,499.685 C 332.654,505.218 327.01,510.208 319.956,510.208 C 314.774,510.208 313.143,508.961 309.465,508.961 C 308.764,506.303 308.53,504.893 308.297,500.716 C 308.859,500.44 309.477,500.336 310.195,500.553 C 311.48,505.95 314.996,508.256 320.452,508.256 C 325.113,508.256 327.747,505.978 327.747,501.584 C 327.747,495.356 321.813,494.336 318.133,492.85 C 313.608,491.024 309.698,488.409 309.698,483.359 C 309.698,477.609 315.481,473.973 320.82,473.973 C 326.52,473.973 326.391,475.004 329.767,475.438 C 330.373,478.313 330.606,479.831 330.813,482.435 z"
   id="path45" />
	<path
   d="M 361.152,507.984 C 361.503,508.308 361.503,509.449 361.152,509.774 C 358.232,509.719 356.187,509.666 353.033,509.666 C 349.821,509.666 347.718,509.721 344.855,509.774 C 344.504,509.449 344.504,508.308 344.855,507.984 C 349.529,507.821 350.521,507.549 350.521,503.046 L 350.521,479.992 C 350.521,478.309 349.352,476.792 347.192,476.792 L 342.578,476.792 C 339.365,476.792 338.606,477.497 337.436,481.836 C 336.707,481.848 336.03,481.787 335.452,481.565 C 336.152,478.69 336.503,475.869 336.737,473.211 C 337.648,473.125 338.091,473.276 338.548,473.429 C 338.548,473.754 338.548,474.676 339.776,474.676 L 365.183,474.676 C 366.411,474.676 366.468,473.754 366.468,473.429 C 367.052,473.266 367.636,473.217 368.221,473.211 C 368.221,475.869 368.513,478.799 368.981,481.565 C 368.315,481.869 367.655,481.82 366.995,481.836 C 366.003,477.659 365.594,476.792 362.381,476.792 L 358.76,476.792 C 356.657,476.792 355.489,478.311 355.489,480.154 L 355.489,503.046 C 355.486,507.551 356.479,507.821 361.152,507.984 z"
   id="path47" />
	<path
   d="M 389.479,510.208 C 379.433,510.208 371.198,503.536 371.198,492.85 C 371.198,482.218 378.675,473.973 389.13,473.973 C 399.353,473.973 407.939,481.079 407.939,491.821 C 407.938,502.668 400.637,510.208 389.479,510.208 z M 376.805,491.928 C 376.805,502.343 383.639,508.366 390.65,508.366 C 397.307,508.366 402.332,502.56 402.332,492.85 C 402.332,481.569 396.315,475.819 388.372,475.819 C 383.055,475.817 376.805,480.536 376.805,491.928 z"
   id="path49" />
</g><path
     d="M 76.742,463.131 C 76.742,463.399 76.653,463.642 76.475,463.863 C 76.32,464.085 76.142,464.196 75.942,464.196 C 74.302,464.349 72.96,464.883 71.918,465.792 C 70.876,466.68 69.8,468.387 68.692,470.915 L 51.727,509.134 C 51.616,509.489 51.306,509.666 50.796,509.666 C 50.397,509.666 50.086,509.489 49.864,509.134 L 40.351,489.243 L 29.407,509.134 C 29.185,509.489 28.875,509.666 28.476,509.666 C 27.988,509.666 27.666,509.489 27.511,509.134 L 10.846,470.915 C 9.804,468.542 8.706,466.891 7.553,465.959 C 6.4,465.005 4.792,464.418 2.729,464.196 C 2.552,464.196 2.386,464.107 2.23,463.928 C 2.078,463.728 2,463.507 2,463.264 C 2,462.643 2.177,462.332 2.532,462.332 C 4.018,462.332 5.57,462.398 7.189,462.532 C 8.697,462.665 10.116,462.731 11.447,462.73 C 12.8,462.731 14.396,462.665 16.237,462.532 C 18.166,462.398 19.874,462.332 21.36,462.332 C 21.714,462.332 21.892,462.643 21.892,463.264 C 21.892,463.884 21.781,464.197 21.559,464.197 C 20.073,464.306 18.898,464.683 18.033,465.327 C 17.19,465.971 16.769,466.813 16.769,467.855 C 16.769,468.386 16.946,469.051 17.301,469.85 L 31.072,500.952 L 38.888,486.182 L 31.604,470.914 C 30.296,468.186 29.22,466.435 28.377,465.658 C 27.534,464.86 26.259,464.372 24.552,464.195 C 24.397,464.195 24.241,464.105 24.086,463.927 C 23.953,463.727 23.886,463.505 23.887,463.262 C 23.887,462.641 24.042,462.33 24.352,462.33 C 25.838,462.33 27.202,462.396 28.444,462.53 C 29.641,462.663 30.916,462.728 32.269,462.728 C 33.6,462.728 35.008,462.662 36.494,462.53 C 38.024,462.396 39.532,462.33 41.017,462.33 C 41.372,462.33 41.55,462.641 41.55,463.262 C 41.55,463.882 41.439,464.195 41.217,464.195 C 38.246,464.392 36.76,465.237 36.76,466.721 C 36.76,467.386 37.104,468.417 37.791,469.816 L 42.613,479.594 L 47.404,470.647 C 48.069,469.382 48.402,468.319 48.402,467.455 C 48.402,465.415 46.916,464.328 43.944,464.195 C 43.678,464.195 43.546,463.882 43.546,463.262 C 43.546,463.04 43.612,462.829 43.746,462.629 C 43.878,462.43 44.012,462.33 44.144,462.33 C 45.209,462.33 46.516,462.396 48.069,462.53 C 49.555,462.663 50.775,462.728 51.728,462.728 C 52.415,462.728 53.424,462.672 54.755,462.563 C 56.44,462.407 57.848,462.33 58.98,462.33 C 59.246,462.33 59.378,462.597 59.378,463.128 C 59.378,463.838 59.134,464.193 58.647,464.193 C 56.918,464.37 55.52,464.845 54.455,465.623 C 53.413,466.399 52.105,468.162 50.53,470.912 L 44.144,482.72 L 52.792,500.35 L 65.565,470.647 C 66.008,469.561 66.23,468.563 66.23,467.653 C 66.23,465.48 64.744,464.328 61.773,464.195 C 61.506,464.195 61.373,463.882 61.373,463.262 C 61.373,462.641 61.573,462.33 61.973,462.33 C 63.059,462.33 64.345,462.396 65.831,462.53 C 67.206,462.663 68.359,462.728 69.29,462.728 C 70.266,462.728 71.396,462.662 72.683,462.53 C 74.014,462.396 75.212,462.33 76.276,462.33 C 76.586,462.333 76.742,462.6 76.742,463.131"
     transform="translate(3.3,0.542)"
     id="path3263" /></g>
</svg>