<?xml version="1.0" encoding="utf-8"?>
<!-- Generator: Adobe Illustrator 16.0.0, SVG Export Plug-In . SVG Version: 6.00 Build 0)  -->
<!DOCTYPE svg PUBLIC "-//W3C//DTD SVG 1.1//EN" "http://www.w3.org/Graphics/SVG/1.1/DTD/svg11.dtd">
<svg version="1.1"
	 id="svg1325" xmlns:svg="http://www.w3.org/2000/svg" xmlns:rdf="http://www.w3.org/1999/02/22-rdf-syntax-ns#" xmlns:dc="http://purl.org/dc/elements/1.1/" xmlns:inkscape="http://www.inkscape.org/namespaces/inkscape" xmlns:sodipodi="http://sodipodi.sourceforge.net/DTD/sodipodi-0.dtd" xmlns:cc="http://creativecommons.org/ns#" sodipodi:version="0.32" inkscape:version="0.48.4 r" sodipodi:docname="Wikisource-logo-vi.svg" inkscape:output_extension="org.inkscape.output.svg.inkscape"
	 xmlns="http://www.w3.org/2000/svg" xmlns:xlink="http://www.w3.org/1999/xlink" x="0px" y="0px" width="410px" height="513px"
	 viewBox="0 0 410 513" enable-background="new 0 0 410 513" xml:space="preserve">
<defs>
	
	
		<inkscape:perspective  inkscape:vp_z="410 : 215 : 1" inkscape:vp_y="0 : 1000 : 0" inkscape:vp_x="0 : 215 : 1" sodipodi:type="inkscape:persp3d" id="perspective21" inkscape:persp3d-origin="205 : 143.33333 : 1">
		</inkscape:perspective>
	
		<inkscape:perspective  inkscape:vp_z="744.09448 : 526.18109 : 1" inkscape:vp_y="0 : 1000 : 0" inkscape:vp_x="0 : 526.18109 : 1" sodipodi:type="inkscape:persp3d" id="perspective2458" inkscape:persp3d-origin="372.04724 : 350.78739 : 1">
		</inkscape:perspective>
	
		<inkscape:perspective  inkscape:vp_z="200 : 100 : 1" inkscape:vp_y="0 : 1000 : 0" inkscape:vp_x="0 : 100 : 1" sodipodi:type="inkscape:persp3d" id="perspective2716" inkscape:persp3d-origin="100 : 66.666667 : 1">
		</inkscape:perspective>
	
		<inkscape:perspective  inkscape:vp_z="744.09448 : 526.18109 : 1" inkscape:vp_y="0 : 1000 : 0" inkscape:vp_x="0 : 526.18109 : 1" sodipodi:type="inkscape:persp3d" id="perspective2534" inkscape:persp3d-origin="372.04724 : 350.78739 : 1">
		</inkscape:perspective>
	
		<inkscape:perspective  inkscape:vp_z="200 : 100 : 1" inkscape:vp_y="0 : 1000 : 0" inkscape:vp_x="0 : 100 : 1" sodipodi:type="inkscape:persp3d" id="perspective97" inkscape:persp3d-origin="100 : 66.666667 : 1">
		</inkscape:perspective>
</defs>
<sodipodi:namedview  borderopacity="1.0" bordercolor="#666666" pagecolor="#ffffff" inkscape:zoom="0.861235" inkscape:cx="205.28118" inkscape:cy="153.73762" showguides="true" showgrid="false" fit-margin-top="0" fit-margin-left="0" id="base" inkscape:window-height="852" inkscape:window-width="1440" inkscape:pageshadow="2" inkscape:pageopacity="0.0" inkscape:window-x="0" inkscape:window-y="0" inkscape:current-layer="layer2" inkscape:guide-bbox="true" inkscape:window-maximized="1" fit-margin-right="0" fit-margin-bottom="0">
	</sodipodi:namedview>
<g id="g3126" transform="translate(-3.13125e-5,1.7086299)">
	<g id="g2492" transform="matrix(1.005595,0,0,1.000506,-0.942714,-0.217568)">
		<path id="path1334" inkscape:connector-curvature="0" fill="#608AB4" d="M203.5,0.219C135.607,0.673,75.523,36.175,38.781,90.406
			h332.031c-36.98-54.582-97.566-90.187-166-90.187C204.373,0.219,203.939,0.216,203.5,0.219z"/>
		<path id="path2488" inkscape:connector-curvature="0" fill="#375493" d="M27,110C10.418,141.083,0.938,176.917,0.938,215.093
			C0.938,333.714,92.283,430,204.812,430s203.844-96.286,203.844-214.907c0-38.176-9.449-74.011-26.031-105.093H27z"/>
		<path id="path2361" inkscape:connector-curvature="0" fill="#D6DDE3" d="M38.781,90.406C34.523,96.691,30.608,103.237,27,110
			h355.625c-3.608-6.763-7.554-13.309-11.813-19.594H38.781z"/>
		<path id="path2219" inkscape:connector-curvature="0" fill="#7BBCE5" d="M291.875,24.313c-0.847,0.014-1.756,0.204-2.718,0.5
			c-9.082,14.57-9.055,62.841-8.938,73.281c0.019,0.004,0.043-0.004,0.062,0c13.444,2.997,31.245-0.444,31.844-13.375
			c1.027-17.041,2.054-33.569-6.938-44.187c-8.221,3.768-6.66-11.481-10-14.907C294.354,24.667,293.195,24.29,291.875,24.313z"/>
		<path id="path2230" inkscape:connector-curvature="0" fill="#FFFFFF" d="M289.157,24.812c-4.79,1.471-10.618,5.837-13.501,7.25
			c-2.507,0.269-7.157,0.074-10.625,0.969c-7.455,1.923-14.24,6.499-18.156,13.687c-5.058-14.763-15.912,3.392-28.781,13.844
			c-7.129-5.395-21.49-16.157-34.656-23.094c-10.59,5.395-21.689,23.615-28.281,25.156c-6.851,1.285-16.506,0.525-20.531,5.406
			c-6.679,6.936-8.747,14.894-10.031,22.344c15.671,5.566,32.11,5.735,47.781,3.594c8.906-2.141,15.244,0.874,24.406,0.531
			c27.81,1.198,57.931-2.211,83.437,3.593C280.102,87.653,280.075,39.382,289.157,24.812z"/>
		<path id="path2221" sodipodi:nodetypes="cccccc" inkscape:connector-curvature="0" fill="#7BBCE5" d="M196.272,53.898
			c3.345,10.105,6.245,20.21,5.138,30.314c-1.199,6.251,1.456,5.823,6.423,3.34c4.881-2.654,7.451-5.566,14.643-7.964
			c5.566-1.541,1.628-5.652-1.027-8.478C213.51,63.559,204.876,58.786,196.272,53.898L196.272,53.898z"/>
		<path id="path2364" inkscape:connector-curvature="0" fill="#294584" d="M224.812,110c5.852,77.793,58.105,87.349,91.001,71.625
			c-16.448-16.266-10.482-49.416,7.062-49.781c32.452-0.79,23.212,59.826,23.219,89.25c17.743-3.608,16.58-70.739,12.813-111.094
			H224.812z"/>
		
			<path id="path2370" sodipodi:nodetypes="cccccccccccccccccccccccccccccssssssssssscccccc" inkscape:connector-curvature="0" fill="#E0E9EA" d="
			M56.75,110c0.638,6.697,1.268,13.397,1.906,20.093c4.292,7.859,7.484,15.704,6.594,23.563c8.479-2.09,13.532-3.182,18.094,5.5
			c19.953,12.423,38.906,13.905,57.563,12.062c3.793,45.141,2.687,81.451,1.093,135.407c11.331,18.824,22.669,36.676,34,55.499
			c6.507,11.445,17.92,15.059,26.875,1.531c7.676-3.472,15.323-6.933,22.999-10.406c0,3.838,0,7.662,0,11.5
			c11.789,2.965,23.449,7.479,18.094,19.75c-4.074,7.926-1.781,11.451,9.812,6.156c10.242-4.989,16.562,2.748,21.907,4.125
			c-7.619-8.115-1.062-24.091-0.822-40.592c10.934-0.998,23.419-10.909,34.353-11.908c22.483-21.821,26.354-29.939,26.313-58.125
			c2.259-7.311,5.502-9.241,3.844-21.938c1.279-7.858,3.065-18.141,4.344-26c0.876-5.143,1.72-10.179,2.563-15.156
			c-0.061,0.014-0.126,0.019-0.188,0.031c-0.007-29.424,9.233-90.04-23.219-89.25c-17.544,0.366-23.51,33.516-7.062,49.781
			c-3.814,1.823-7.894,3.33-12.126,4.406c1.334,7.671-4.207,15.543-11.468,15.875c-7.246-0.648-17.901,6.542-24.656,23.031
			c-10.797,22.771-20.621,2.96-24.563-3.157c-5.059-6.717,1.153-12.961-12.719-8.906c-9.144,2.828-20.751,4.695-23.531-9.125
			c-11.696-11.879-22.897-22.309-34.594-34.188c-4.67-5.558-0.78-10.134-0.75-12.094c0-0.041,0.001-0.109,0-0.156
			c0-0.007,0.001-0.025,0-0.031c-0.006-0.022-0.024-0.073-0.031-0.094c-0.006-0.024-0.023-0.071-0.031-0.094
			c-0.015-0.037-0.042-0.091-0.063-0.125c-0.005-0.011-0.026-0.051-0.031-0.062c-0.008-0.008-0.027-0.026-0.031-0.031
			c-0.02-0.021-0.067-0.069-0.094-0.094c-0.03-0.023-0.083-0.066-0.125-0.094c-0.016-0.01-0.047-0.023-0.063-0.031
			c-0.054-0.025-0.123-0.041-0.187-0.062c-4.562-2.879-10.094,0.587-16.125,3.094c-15.743,2.891-21.891,0.108-23.594-8.219
			c0.093-13.755-7.644-12.32-20.282-10.406c-36.428,5.19-42.318-7.704-52.937-31.062H56.75z"/>
		<path id="path2383" inkscape:connector-curvature="0" fill="#4D8AC0" d="M57.813,110c10.619,23.359,16.51,36.252,52.937,31.062
			c12.638-1.914,20.374-3.348,20.282,10.406c1.703,8.327,7.85,11.109,23.594,8.218c6.031-2.507,11.563-5.973,16.125-3.094
			c0.065,0.021,0.134,0.037,0.187,0.062c0.015,0.008,0.046,0.021,0.063,0.031c0.042,0.027,0.095,0.07,0.125,0.094
			c0.027,0.024,0.074,0.073,0.094,0.094c0.004,0.005,0.023,0.023,0.031,0.031c0.005,0.011,0.026,0.051,0.032,0.062
			c0.02,0.034,0.047,0.088,0.062,0.125c0.008,0.022,0.025,0.07,0.032,0.094c0.007,0.021,0.025,0.072,0.031,0.094
			c0.001,0.006,0,0.024,0,0.031c0.001,0.047,0,0.115,0,0.156c-0.031,1.96-3.92,6.536,0.75,12.094
			c11.697,11.879,22.897,22.308,34.594,34.187c2.779,13.82,14.386,11.952,23.531,9.125c13.872-4.055,7.66,2.189,12.718,8.906
			c3.942,6.117,13.767,25.928,24.564,3.156c6.755-16.489,17.41-23.679,24.655-23.031c7.261-0.332,12.803-8.204,11.469-15.875
			c-32.269,8.208-73.702-7.256-78.875-76.031L57.813,110L57.813,110z"/>
		<path id="path2398" inkscape:connector-curvature="0" fill="#D6DDE3" d="M166.937,199.375
			c-10.498,0.685-5.026,35.786-3.875,52.407c1.555,16.361,5.202,12.507,16.625,5.375c5.253,10.653,2.059,16.606-5.375,23.5
			c-5.534,5.23-8.709,13.042-3.906,22.032c1.469,2.448,2.702,3.486,4.406,7.344c1.143,2.284,2.264,4.589,3.406,6.874
			c1.318,5.052-0.169,8.204-2.375,10.906c-2.043,2.926-2.437,5.876,0.219,13.969c1.449,4.701-2.523,10.314,3.625,15.25
			c2.725,2.116,5.393,3.699,8.125,4.874c-2.37-6.899-2.44-16.857-1.281-25.406c0.783-8.065,1.326-13.08,8.687-18.562
			c6.422-3.289,4.64-20.663,5.188-31c0.063,0.055,0.152,0.104,0.219,0.156c-0.008-0.047,0.008-0.111,0-0.156
			c13.736-2.901,6.089-13.887,1.875-24.438l-33.594-62.875c-0.664-0.184-1.275-0.272-1.844-0.25
			C167.021,199.377,166.979,199.372,166.937,199.375z"/>
		<path id="path2404" inkscape:connector-curvature="0" fill="#608AB4" d="M168.906,199.625L202.5,262.5
			c4.214,10.55,11.86,21.537-1.875,24.438c1.225,7.361,10.329,13.766,20.437,12.906c10.514-0.677,18.161,7.184,21.625,15.125
			c0.457-8.757,1.526-17.446,3.656-26.032c1.358-4.243,9.051-8.003,2.656-13.655c-25.899-28.516-50.862-50.933-78.875-75.219
			C169.699,199.878,169.297,199.734,168.906,199.625z"/>
		<path id="path2407" inkscape:connector-curvature="0" fill="#236798" d="M200.406,286.938c-0.548,10.337,1.234,27.711-5.188,31
			c-7.361,5.482-7.904,10.497-8.687,18.562c-1.161,8.561-1.099,18.536,1.281,25.437c2.43,1.039,4.919,1.742,7.563,2.188
			c4.446,0.398,7.245,1.497,16.625-0.219c8.213-0.948,13.144-4.958,22.531-6.376c5.124-1.006,8.593-2.961,8.313-10.782
			c-0.391-10.678-0.707-21.28-0.156-31.781c-3.464-7.941-11.111-15.803-21.625-15.125c-9.99,0.851-19.015-5.404-20.406-12.656
			c-0.003-0.015,0.003-0.018,0-0.031c-0.005-0.004,0.005-0.027,0-0.031C200.58,287.059,200.481,287.008,200.406,286.938
			L200.406,286.938z"/>
		<path id="path2460" sodipodi:nodetypes="ccccccccssssscccccsssssssccccc" inkscape:connector-curvature="0" fill="#608AB4" d="
			M338.469,276.531c-0.862,2.392-1.981,4.529-2.938,7.625c0.041,28.186-3.83,36.304-26.313,58.125
			c-0.202,0.051-6.631,15.126-12.093,19.063c-9.215,6.813-8.64,12.99-12.062,20.437c-2.477,3.766-5.899,4.372-8.375,3.688
			c-1.547-1.22-3.11-1.8-4.657-3.656c-0.098,3.046,0.115,5.819,0.906,8.251c0.036,0.071,0.058,0.147,0.094,0.219
			c0.003,0.011-0.003,0.022,0,0.031c0.434,0.883,0.84,1.774,1.25,2.656c0.022,0.036,0.04,0.059,0.062,0.094
			c0.004,0.008-0.004,0.023,0,0.031c0.372,0.58,0.8,1.139,1.282,1.656c-0.147-0.039-0.289-0.077-0.438-0.125
			c9.438,15.092,22.768,19.812,39.876,13.875c9.211-4.018,14.596-7.695,20.312-12.031c4.972-4.716,10.888-13.57,1.563-14.156
			c-1.329-0.352-2.069-0.696-2.438-1.063c-0.014-0.014-0.051-0.049-0.062-0.062c-0.036-0.042-0.067-0.113-0.094-0.156
			c-0.038-0.064-0.074-0.152-0.093-0.219c-0.004-0.016-0.028-0.047-0.031-0.062c-0.005-0.023,0.002-0.07,0-0.094
			c-0.002-0.023,0-0.07,0-0.094c0.018-1.345,2.577-3.262,0.624-7.157c-1.335-5.956,4.341-11.586,8.406-13.093
			c-2.795-6.114-5.611-12.23-8.406-18.344c0.193-4.015,8.09-6.134,6.812-13.625C343.936,309.499,347.026,281.529,338.469,276.531
			L338.469,276.531z"/>
		<path id="path2468" inkscape:connector-curvature="0" fill="#236798" d="M288.031,202.312
			c-6.755,1.818-14.927,9.099-20.468,22.625c-2.531,5.337-5.015,8.335-7.375,9.719c0.236,23.249,5.759,39.801,17.187,48.875
			c-3.389,13.45-6.768,31.992-0.625,43.218c-10.379-3.283-6.147,17.585-9.218,26.375c-5.19,14.616-9.754,13.979-14.625,15.25
			c4.448,5.083,10.172,10.479,18.75,13.656c0.001,0.017-0.003,0.046,0,0.062c0.017,0.075,0.079,0.174,0.125,0.25
			c0.639,0.971,3.516,2.027,4.906,3.124c2.476,0.684,5.898,0.078,8.375-3.688c3.422-7.447,2.847-13.624,12.062-20.437
			c5.335-3.845,11.616-18.342,12.093-19.063c-18.234-10.248-26.854-29.777-23.906-48.594c0.848-5.19,4.242-11.008-0.312-19.375
			C279.554,251.319,283.022,224.567,288.031,202.312z"/>
	</g>
</g>
<g>
	<path d="M94.205,506.736c0.299,0.277,0.299,1.249,0,1.526c-2.49-0.047-3.935-0.093-6.425-0.093c-2.54,0-4.034,0.046-6.475,0.093
		c-0.299-0.277-0.299-1.249,0-1.526c3.486-0.139,4.333-0.37,4.333-4.209v-16.465c-0.374,0.116-0.627,0.324-0.872,0.602
		l-13.602,15.725c-0.583,0.689-1.081,1.063-1.424,2.16c0.354,1.91,1.464,2.081,4.193,2.188c0.299,0.277,0.299,1.249,0,1.526
		c-2.49-0.047-3.935-0.093-6.425-0.093c-2.54,0-4.034,0.046-6.475,0.093c-0.299-0.277-0.299-1.249,0-1.526
		c3.486-0.139,4.333-0.37,4.333-4.209v-18.546c0-3.839-0.847-4.07-4.333-4.209c-0.299-0.277-0.299-1.248,0-1.526
		c2.49,0.047,3.935,0.093,6.425,0.093c2.54,0,4.034-0.046,6.475-0.093c0.299,0.278,0.299,1.249,0,1.526
		c-3.486,0.139-4.333,0.37-4.333,4.209v16.465c0.229-0.014,0.518-0.171,0.881-0.509l13.687-15.817
		c0.563-0.656,1.026-1.494,1.315-2.243c-0.369-1.831-1.489-1.998-4.179-2.104c-0.299-0.277-0.299-1.248,0-1.526
		c2.49,0.047,3.935,0.093,6.425,0.093c2.54,0,4.034-0.046,6.475-0.093c0.299,0.278,0.299,1.249,0,1.526
		c-3.486,0.139-4.333,0.37-4.333,4.209v18.546C89.872,506.366,90.719,506.598,94.205,506.736z"/>
	<path d="M97.538,507.291c0-0.231,0.149-0.37,0.349-0.37l1.345-0.092c2.092-0.144,2.689-0.647,2.689-1.943v-23.263
		c0-1.388-0.747-1.804-2.689-1.942l-1.295-0.093c-0.199,0-0.398-0.139-0.398-0.37v-0.879l0.1-0.093
		c2.49,0.047,3.984,0.093,6.475,0.093s3.935-0.046,6.375-0.093l0.1,0.093v0.879c0,0.231-0.149,0.37-0.398,0.37l-1.295,0.093
		c-1.992,0.143-2.739,0.647-2.739,1.942v9.619c1.793,0,4.034-0.046,5.229-0.693c2.938-1.479,3.636-4.439,4.084-7.03
		c0.498-2.867,1.893-5.457,5.827-5.457c2.64,0,3.536,1.341,3.536,2.405c0,1.341-1.146,1.85-2.191,1.85
		c-0.647,0-1.345-0.231-1.843-0.693c-0.548-0.509-0.946-0.74-1.594-0.74c-1.494,0-1.838,1.526-2.092,2.867
		c-0.548,2.868-1.594,6.845-5.379,8.141v0.23c3.437,0,5.379,1.989,6.724,5.227c2.595,6.243,5.13,9.389,6.873,9.527l0.797,0.046
		c0.249,0,0.398,0.139,0.398,0.37v0.879l-0.05,0.093l-3.935-0.047c-3.885-0.046-5.678-3.792-7.819-8.88
		c-1.947-4.625-2.889-6.15-8.566-6.15v11.7c0,1.388,0.747,1.8,2.739,1.943l1.295,0.092c0.199,0,0.398,0.139,0.398,0.37v0.879
		l-0.1,0.093c-2.391-0.093-3.835-0.093-6.325-0.093s-4.084,0-6.524,0.093l-0.1-0.093V507.291z"/>
	<path d="M162.778,506.736c0.299,0.277,0.299,1.249,0,1.526c-2.49-0.047-3.935-0.093-6.425-0.093c-2.54,0-4.034,0.046-6.475,0.093
		c-0.299-0.277-0.299-1.249,0-1.526c3.486-0.139,4.333-0.37,4.333-4.209v-16.465c-0.374,0.116-0.627,0.324-0.872,0.602
		l-13.602,15.725c-0.583,0.689-1.081,1.063-1.424,2.16c0.354,1.91,1.464,2.081,4.193,2.188c0.299,0.277,0.299,1.249,0,1.526
		c-2.49-0.047-3.935-0.093-6.425-0.093c-2.54,0-4.034,0.046-6.475,0.093c-0.299-0.277-0.299-1.249,0-1.526
		c3.486-0.139,4.333-0.37,4.333-4.209v-18.546c0-3.839-0.847-4.07-4.333-4.209c-0.299-0.277-0.299-1.248,0-1.526
		c2.49,0.047,3.935,0.093,6.425,0.093c2.54,0,4.034-0.046,6.475-0.093c0.299,0.278,0.299,1.249,0,1.526
		c-3.486,0.139-4.333,0.37-4.333,4.209v16.465c0.229-0.014,0.518-0.171,0.881-0.509l13.687-15.817
		c0.563-0.656,1.026-1.494,1.315-2.243c-0.369-1.831-1.489-1.998-4.179-2.104c-0.299-0.277-0.299-1.248,0-1.526
		c2.49,0.047,3.935,0.093,6.425,0.093c2.54,0,4.034-0.046,6.475-0.093c0.299,0.278,0.299,1.249,0,1.526
		c-3.486,0.139-4.333,0.37-4.333,4.209v18.546C158.445,506.366,159.292,506.598,162.778,506.736z"/>
	<path d="M167.855,501.001c1.395,0,2.142,1.203,2.789,2.405c1.245,2.174,3.785,3.653,7.67,3.653c4.931,0,7.869-2.821,7.869-7.029
		c0-3.376-1.842-6.799-7.869-6.799c-1.644,0-3.088,0.277-4.433,0.277c-0.598,0-1.444-0.231-1.444-1.156s0.847-1.11,1.444-1.11
		c1.345,0,3.138,0.278,4.482,0.278c5.28,0,6.624-3.191,6.624-6.383c0-3.237-1.941-5.827-6.225-5.827
		c-5.678,0-8.566,3.33-9.861,7.399l-1.494-0.092l1.195-7.4c3.536-0.323,6.823-1.479,10.559-1.479c6.922,0,10.209,3.283,10.209,7.076
		c0,3.885-3.037,6.15-6.523,7.076v0.277c4.682,0.693,7.918,3.885,7.918,7.815c0,6.059-6.076,8.741-12.401,8.741
		c-4.98,0-8.362-1.114-9.861-2.358c-1.34-1.114-2.291-1.988-2.291-3.515C166.211,501.741,166.859,501.001,167.855,501.001z"/>
	<path d="M206.401,478.246c9.264,0,10.708,4.024,10.708,7.123c0,2.511-2.236,4.884-4.731,6.059v0.093
		c4.333,1.156,7.67,3.699,7.67,8.14c0,3.978-2.64,8.603-12.551,8.603c-4.433,0-5.13-0.093-7.271-0.093
		c-2.54,0-4.034,0.046-6.475,0.093c-0.299-0.277-0.299-1.249,0-1.526c3.486-0.139,4.333-0.37,4.333-4.209v-18.546
		c0-3.839-0.847-4.07-4.333-4.209c-0.299-0.277-0.299-1.248,0-1.526c2.49,0.047,3.935,0.093,6.425,0.093
		C202.317,478.339,204.658,478.246,206.401,478.246z M202.317,491.242h3.686c4.134,0,7.072-1.387,7.072-5.318
		c0-4.718-3.636-6.104-6.425-6.104c-4.333,0-4.333,0.462-4.333,1.988V491.242z M202.317,503.638c0,1.526,0.647,3.099,4.134,3.099
		c7.57,0,8.965-2.821,8.965-6.197c0-4.163-2.839-7.724-9.662-7.724h-3.437V503.638z"/>
	<path d="M239.519,508.633c-8.566,0-15.589-5.689-15.589-14.8c0-9.065,6.375-16.095,15.29-16.095
		c8.716,0,16.037,6.059,16.037,15.216C255.257,502.204,249.031,508.633,239.519,508.633z M228.711,493.046
		c0,8.88,5.827,14.014,11.804,14.014c5.678,0,9.961-4.948,9.961-13.227c0-9.62-5.13-14.522-11.903-14.522
		C234.04,479.311,228.711,483.334,228.711,493.046z"/>
	<path d="M257.894,479.772c-0.299-0.277-0.299-1.248,0-1.526c2.49,0.047,3.935,0.093,6.425,0.093c1.992,0,5.528-0.323,6.823-0.323
		c9.214,0,11.156,4.948,11.156,7.677c0,3.932-2.739,9.436-11.804,9.436c-1.743,0-2.938-0.139-4.034-0.463v7.862
		c0,3.839,1.195,4.023,5.08,4.209c0.299,0.277,0.299,1.249,0,1.526c-2.49-0.047-4.383-0.093-7.172-0.093
		c-2.54,0-4.034,0.046-6.475,0.093c-0.299-0.277-0.299-1.249,0-1.526c3.486-0.139,4.333-0.37,4.333-4.209v-18.546
		C262.227,480.143,261.38,479.911,257.894,479.772z M266.46,493.324c0.548,0.139,2.54,0.23,3.785,0.23
		c4.831,0,7.421-2.034,7.421-7.029c0-5.874-3.437-6.938-6.873-6.938c-3.586,0-4.333,1.618-4.333,2.96V493.324z"/>
	<path d="M320.047,506.736c0.299,0.277,0.299,1.249,0,1.526c-2.49-0.047-3.935-0.093-6.425-0.093c-2.54,0-4.034,0.046-6.475,0.093
		c-0.299-0.277-0.299-1.249,0-1.526c3.486-0.139,4.333-0.37,4.333-4.209v-9.203h-17.033v9.203c0,3.839,0.847,4.07,4.333,4.209
		c0.299,0.277,0.299,1.249,0,1.526c-2.49-0.047-3.935-0.093-6.425-0.093c-2.54,0-4.034,0.046-6.475,0.093
		c-0.299-0.277-0.299-1.249,0-1.526c3.486-0.139,4.333-0.37,4.333-4.209v-18.546c0-3.839-0.847-4.07-4.333-4.209
		c-0.299-0.277-0.299-1.248,0-1.526c2.49,0.047,3.935,0.093,6.425,0.093c2.54,0,4.034-0.046,6.475-0.093
		c0.299,0.278,0.299,1.249,0,1.526c-3.486,0.139-4.333,0.37-4.333,4.209v7.4h17.033v-7.4c0-3.839-0.847-4.07-4.333-4.209
		c-0.299-0.277-0.299-1.248,0-1.526c2.49,0.047,3.935,0.093,6.425,0.093c2.54,0,4.034-0.046,6.475-0.093
		c0.299,0.278,0.299,1.249,0,1.526c-3.486,0.139-4.333,0.37-4.333,4.209v18.546C315.714,506.366,316.561,506.598,320.047,506.736z"
		/>
	<path d="M356.6,506.736c0.299,0.277,0.299,1.249,0,1.526c-2.49-0.047-3.935-0.093-6.425-0.093c-2.54,0-4.034,0.046-6.475,0.093
		c-0.299-0.277-0.299-1.249,0-1.526c3.486-0.139,4.333-0.37,4.333-4.209v-16.465c-0.374,0.116-0.628,0.324-0.872,0.602
		l-13.602,15.725c-0.582,0.689-1.08,1.063-1.424,2.16c0.354,1.91,1.464,2.081,4.193,2.188c0.299,0.277,0.299,1.249,0,1.526
		c-2.49-0.047-3.935-0.093-6.425-0.093c-2.54,0-4.034,0.046-6.475,0.093c-0.299-0.277-0.299-1.249,0-1.526
		c3.486-0.139,4.333-0.37,4.333-4.209v-18.546c0-3.839-0.847-4.07-4.333-4.209c-0.299-0.277-0.299-1.248,0-1.526
		c2.49,0.047,3.935,0.093,6.425,0.093c2.54,0,4.034-0.046,6.475-0.093c0.299,0.278,0.299,1.249,0,1.526
		c-3.486,0.139-4.333,0.37-4.333,4.209v16.465c0.229-0.014,0.518-0.171,0.882-0.509l13.686-15.817
		c0.563-0.656,1.026-1.494,1.315-2.243c-0.368-1.831-1.489-1.998-4.179-2.104c-0.299-0.277-0.299-1.248,0-1.526
		c2.49,0.047,3.935,0.093,6.425,0.093c2.54,0,4.034-0.046,6.475-0.093c0.299,0.278,0.299,1.249,0,1.526
		c-3.486,0.139-4.333,0.37-4.333,4.209v18.546C352.267,506.366,353.113,506.598,356.6,506.736z"/>
	<path d="M359.933,507.291c0-0.231,0.149-0.37,0.349-0.37l1.345-0.092c2.092-0.144,2.689-0.647,2.689-1.943v-23.263
		c0-1.388-0.747-1.804-2.689-1.942l-1.295-0.093c-0.199,0-0.398-0.139-0.398-0.37v-0.879l0.1-0.093
		c2.49,0.047,3.984,0.093,6.475,0.093s3.935-0.046,6.375-0.093l0.1,0.093v0.879c0,0.231-0.149,0.37-0.398,0.37l-1.295,0.093
		c-1.992,0.143-2.739,0.647-2.739,1.942v9.619c1.793,0,4.034-0.046,5.229-0.693c2.938-1.479,3.636-4.439,4.084-7.03
		c0.498-2.867,1.893-5.457,5.827-5.457c2.64,0,3.536,1.341,3.536,2.405c0,1.341-1.146,1.85-2.191,1.85
		c-0.647,0-1.345-0.231-1.843-0.693c-0.548-0.509-0.946-0.74-1.594-0.74c-1.494,0-1.838,1.526-2.092,2.867
		c-0.548,2.868-1.594,6.845-5.379,8.141v0.23c3.437,0,5.379,1.989,6.724,5.227c2.595,6.243,5.13,9.389,6.873,9.527l0.797,0.046
		c0.249,0,0.398,0.139,0.398,0.37v0.879l-0.05,0.093l-3.935-0.047c-3.885-0.046-5.678-3.792-7.819-8.88
		c-1.947-4.625-2.889-6.15-8.566-6.15v11.7c0,1.388,0.747,1.8,2.739,1.943l1.295,0.092c0.199,0,0.398,0.139,0.398,0.37v0.879
		l-0.1,0.093c-2.391-0.093-3.835-0.093-6.325-0.093s-4.084,0-6.524,0.093l-0.1-0.093V507.291z"/>
</g>
<g>
	<path d="M42.081,467.88c11.419,0,13.2,5.342,13.2,9.455c0,3.334-2.757,6.483-5.833,8.043v0.123
		c5.342,1.534,9.455,4.911,9.455,10.806c0,5.279-3.254,11.419-15.472,11.419c-5.464,0-6.324-0.122-8.964-0.122
		c-3.131,0-4.973,0.062-7.981,0.122c-0.369-0.368-0.369-1.657,0-2.025c4.298-0.185,5.341-0.492,5.341-5.588v-24.619
		c0-5.096-1.043-5.403-5.341-5.587c-0.369-0.368-0.369-1.658,0-2.026c3.069,0.062,4.85,0.122,7.92,0.122
		C37.046,468.002,39.932,467.88,42.081,467.88z M37.046,485.132h4.543c5.096,0,8.718-1.842,8.718-7.061
		c0-6.262-4.482-8.104-7.92-8.104c-5.341,0-5.341,0.613-5.341,2.64V485.132z M37.046,501.586c0,2.026,0.798,4.114,5.096,4.114
		c9.333,0,11.052-3.746,11.052-8.228c0-5.525-3.5-10.253-11.911-10.253h-4.236V501.586z"/>
</g>
</svg>
