<?xml version="1.0" encoding="utf-8"?>
<!-- Generator: Adobe Illustrator 19.0.0, SVG Export Plug-In . SVG Version: 6.00 Build 0)  -->
<svg version="1.1"
	 id="svg1325" xmlns:inkscape="http://www.inkscape.org/namespaces/inkscape" xmlns:cc="http://creativecommons.org/ns#" xmlns:rdf="http://www.w3.org/1999/02/22-rdf-syntax-ns#" xmlns:svg="http://www.w3.org/2000/svg" xmlns:sodipodi="http://sodipodi.sourceforge.net/DTD/sodipodi-0.dtd" xmlns:dc="http://purl.org/dc/elements/1.1/" sodipodi:docname="Wikisource-logo-vi.svg" inkscape:version="0.48.4 r" sodipodi:version="0.32" inkscape:output_extension="org.inkscape.output.svg.inkscape"
	 xmlns="http://www.w3.org/2000/svg" xmlns:xlink="http://www.w3.org/1999/xlink" x="0px" y="0px" viewBox="-194 51 410 513"
	 style="enable-background:new -194 51 410 513;" xml:space="preserve">
<style type="text/css">
	.st0{fill:#608AB4;}
	.st1{fill:#375493;}
	.st2{fill:#D6DDE3;}
	.st3{fill:#7BBCE5;}
	.st4{fill:#FFFFFF;}
	.st5{fill:#294584;}
	.st6{fill:#E0E9EA;}
	.st7{fill:#4D8AC0;}
	.st8{fill:#236798;}
</style>
<defs>
	
	
		<inkscape:perspective  id="perspective21" inkscape:vp_y="0 : 1000 : 0" inkscape:vp_x="0 : 215 : 1" inkscape:vp_z="410 : 215 : 1" inkscape:persp3d-origin="205 : 143.33333 : 1" sodipodi:type="inkscape:persp3d">
		</inkscape:perspective>
	
		<inkscape:perspective  id="perspective2458" inkscape:vp_y="0 : 1000 : 0" inkscape:vp_x="0 : 526.18109 : 1" inkscape:vp_z="744.09448 : 526.18109 : 1" inkscape:persp3d-origin="372.04724 : 350.78739 : 1" sodipodi:type="inkscape:persp3d">
		</inkscape:perspective>
	
		<inkscape:perspective  id="perspective2716" inkscape:vp_y="0 : 1000 : 0" inkscape:vp_x="0 : 100 : 1" inkscape:vp_z="200 : 100 : 1" inkscape:persp3d-origin="100 : 66.666667 : 1" sodipodi:type="inkscape:persp3d">
		</inkscape:perspective>
	
		<inkscape:perspective  id="perspective2534" inkscape:vp_y="0 : 1000 : 0" inkscape:vp_x="0 : 526.18109 : 1" inkscape:vp_z="744.09448 : 526.18109 : 1" inkscape:persp3d-origin="372.04724 : 350.78739 : 1" sodipodi:type="inkscape:persp3d">
		</inkscape:perspective>
	
		<inkscape:perspective  id="perspective97" inkscape:vp_y="0 : 1000 : 0" inkscape:vp_x="0 : 100 : 1" inkscape:vp_z="200 : 100 : 1" inkscape:persp3d-origin="100 : 66.666667 : 1" sodipodi:type="inkscape:persp3d">
		</inkscape:perspective>
</defs>
<sodipodi:namedview  id="base" showguides="true" pagecolor="#ffffff" bordercolor="#666666" showgrid="false" inkscape:cy="153.73762" inkscape:zoom="0.861235" borderopacity="1.0" inkscape:cx="205.28118" inkscape:window-y="0" inkscape:current-layer="layer2" inkscape:pageopacity="0.0" inkscape:window-maximized="1" inkscape:pageshadow="2" inkscape:window-x="0" inkscape:window-width="1440" inkscape:guide-bbox="true" inkscape:window-height="852" fit-margin-left="0" fit-margin-top="0" fit-margin-right="0" fit-margin-bottom="0">
	</sodipodi:namedview>
<g id="g3126" transform="translate(-3.13125e-5,1.7086299)">
	<g id="g2492" transform="matrix(1.005595,0,0,1.000506,-0.942714,-0.217568)">
		<path id="path1334" inkscape:connector-curvature="0" class="st0" d="M10.6,51.2c-67.9,0.5-128,36-164.7,90.2h332
			c-37-54.6-97.6-90.2-166-90.2C11.5,51.2,11,51.2,10.6,51.2z"/>
		<path id="path2488" inkscape:connector-curvature="0" class="st1" d="M-165.9,161c-16.6,31.1-26.1,66.9-26.1,105.1
			C-192,384.7-100.6,481,11.9,481s203.8-96.3,203.8-214.9c0-38.2-9.4-74-26-105.1H-165.9z"/>
		<path id="path2361" inkscape:connector-curvature="0" class="st2" d="M-154.1,141.4c-4.3,6.3-8.2,12.8-11.8,19.6h355.6
			c-3.6-6.8-7.6-13.3-11.8-19.6H-154.1z"/>
		<path id="path2219" inkscape:connector-curvature="0" class="st3" d="M99,75.3c-0.8,0-1.8,0.2-2.7,0.5
			c-9.1,14.6-9.1,62.8-8.9,73.3c0,0,0,0,0.1,0c13.4,3,31.2-0.4,31.8-13.4c1-17,2.1-33.6-6.9-44.2c-8.2,3.8-6.7-11.5-10-14.9
			C101.4,75.6,100.3,75.3,99,75.3z"/>
		<path id="path2230" inkscape:connector-curvature="0" class="st4" d="M96.2,75.8c-4.8,1.5-10.6,5.8-13.5,7.3
			c-2.5,0.3-7.2,0.1-10.6,1c-7.5,1.9-14.2,6.5-18.2,13.7c-5.1-14.8-15.9,3.4-28.8,13.8C18,106.1,3.7,95.4-9.5,88.4
			c-10.6,5.4-21.7,23.6-28.3,25.2c-6.9,1.3-16.5,0.5-20.5,5.4c-6.7,6.9-8.7,14.9-10,22.3c15.7,5.6,32.1,5.7,47.8,3.6
			c8.9-2.1,15.2,0.9,24.4,0.5c27.8,1.2,57.9-2.2,83.4,3.6C87.2,138.6,87.2,90.4,96.2,75.8z"/>
		<path id="path2221" inkscape:connector-curvature="0" sodipodi:nodetypes="cccccc" class="st3" d="M3.4,104.9
			c3.3,10.1,6.2,20.2,5.1,30.3c-1.2,6.3,1.5,5.8,6.4,3.3c4.9-2.7,7.5-5.6,14.6-8c5.6-1.5,1.6-5.7-1-8.5
			C20.6,114.5,12,109.8,3.4,104.9L3.4,104.9z"/>
		<path id="path2364" inkscape:connector-curvature="0" class="st5" d="M31.9,161c5.9,77.8,58.1,87.3,91,71.6
			c-16.4-16.3-10.5-49.4,7.1-49.8c32.5-0.8,23.2,59.8,23.2,89.3c17.7-3.6,16.6-70.7,12.8-111.1C166,161,31.9,161,31.9,161z"/>
		
			<path id="path2370" inkscape:connector-curvature="0" sodipodi:nodetypes="cccccccccccccccccccccccccccccssssssssssscccccc" class="st6" d="
			M-136.2,161c0.6,6.7,1.3,13.4,1.9,20.1c4.3,7.9,7.5,15.7,6.6,23.6c8.5-2.1,13.5-3.2,18.1,5.5c20,12.4,38.9,13.9,57.6,12.1
			c3.8,45.1,2.7,81.5,1.1,135.4c11.3,18.8,22.7,36.7,34,55.5c6.5,11.4,17.9,15.1,26.9,1.5c7.7-3.5,15.3-6.9,23-10.4
			c0,3.8,0,7.7,0,11.5c11.8,3,23.4,7.5,18.1,19.8c-4.1,7.9-1.8,11.5,9.8,6.2c10.2-5,16.6,2.7,21.9,4.1c-7.6-8.1-1.1-24.1-0.8-40.6
			c10.9-1,23.4-10.9,34.4-11.9c22.5-21.8,26.4-29.9,26.3-58.1c2.3-7.3,5.5-9.2,3.8-21.9c1.3-7.9,3.1-18.1,4.3-26
			c0.9-5.1,1.7-10.2,2.6-15.2c-0.1,0-0.1,0-0.2,0c0-29.4,9.2-90-23.2-89.3c-17.5,0.4-23.5,33.5-7.1,49.8c-3.8,1.8-7.9,3.3-12.1,4.4
			c1.3,7.7-4.2,15.5-11.5,15.9c-7.2-0.6-17.9,6.5-24.7,23c-10.8,22.8-20.6,3-24.6-3.2c-5.1-6.7,1.2-13-12.7-8.9
			c-9.1,2.8-20.8,4.7-23.5-9.1c-11.7-11.9-22.9-22.3-34.6-34.2c-4.7-5.6-0.8-10.1-0.8-12.1c0,0,0-0.1,0-0.2c0,0,0,0,0,0
			c0,0,0-0.1,0-0.1c0,0,0-0.1,0-0.1c0,0,0-0.1-0.1-0.1c0,0,0-0.1,0-0.1c0,0,0,0,0,0c0,0-0.1-0.1-0.1-0.1c0,0-0.1-0.1-0.1-0.1
			c0,0,0,0-0.1,0c-0.1,0-0.1,0-0.2-0.1c-4.6-2.9-10.1,0.6-16.1,3.1c-15.7,2.9-21.9,0.1-23.6-8.2c0.1-13.8-7.6-12.3-20.3-10.4
			c-36.4,5.2-42.3-7.7-52.9-31.1L-136.2,161L-136.2,161z"/>
		<path id="path2383" inkscape:connector-curvature="0" class="st7" d="M-135.1,161c10.6,23.4,16.5,36.3,52.9,31.1
			c12.6-1.9,20.4-3.3,20.3,10.4c1.7,8.3,7.9,11.1,23.6,8.2c6-2.5,11.6-6,16.1-3.1c0.1,0,0.1,0,0.2,0.1c0,0,0,0,0.1,0
			c0,0,0.1,0.1,0.1,0.1c0,0,0.1,0.1,0.1,0.1c0,0,0,0,0,0c0,0,0,0.1,0,0.1c0,0,0,0.1,0.1,0.1c0,0,0,0.1,0,0.1c0,0,0,0.1,0,0.1
			c0,0,0,0,0,0c0,0,0,0.1,0,0.2c0,2-3.9,6.5,0.8,12.1c11.7,11.9,22.9,22.3,34.6,34.2c2.8,13.8,14.4,12,23.5,9.1
			c13.9-4.1,7.7,2.2,12.7,8.9c3.9,6.1,13.8,25.9,24.6,3.2c6.8-16.5,17.4-23.7,24.7-23c7.3-0.3,12.8-8.2,11.5-15.9
			c-32.3,8.2-73.7-7.3-78.9-76L-135.1,161L-135.1,161z"/>
		<path id="path2398" inkscape:connector-curvature="0" class="st2" d="M-26,250.3c-10.5,0.7-5,35.8-3.9,52.4
			c1.6,16.4,5.2,12.5,16.6,5.4c5.3,10.7,2.1,16.6-5.4,23.5c-5.5,5.2-8.7,13-3.9,22c1.5,2.4,2.7,3.5,4.4,7.3c1.1,2.3,2.3,4.6,3.4,6.9
			c1.3,5.1-0.2,8.2-2.4,10.9c-2,2.9-2.4,5.9,0.2,14c1.4,4.7-2.5,10.3,3.6,15.3c2.7,2.1,5.4,3.7,8.1,4.9c-2.4-6.9-2.4-16.9-1.3-25.4
			c0.8-8.1,1.3-13.1,8.7-18.6c6.4-3.3,4.6-20.7,5.2-31c0.1,0.1,0.2,0.1,0.2,0.2c0,0,0-0.1,0-0.2c13.7-2.9,6.1-13.9,1.9-24.4
			L-24,250.6c-0.7-0.2-1.3-0.3-1.8-0.3C-25.9,250.4-25.9,250.3-26,250.3z"/>
		<path id="path2404" inkscape:connector-curvature="0" class="st0" d="M-24,250.6l33.6,62.9c4.2,10.5,11.9,21.5-1.9,24.4
			c1.2,7.4,10.3,13.8,20.4,12.9c10.5-0.7,18.2,7.2,21.6,15.1c0.5-8.8,1.5-17.4,3.7-26c1.4-4.2,9.1-8,2.7-13.7
			C30.2,297.7,5.2,275.3-22.8,251C-23.2,250.9-23.6,250.7-24,250.6z"/>
		<path id="path2407" inkscape:connector-curvature="0" class="st8" d="M7.5,337.9c-0.5,10.3,1.2,27.7-5.2,31
			c-7.4,5.5-7.9,10.5-8.7,18.6c-1.2,8.6-1.1,18.5,1.3,25.4c2.4,1,4.9,1.7,7.6,2.2c4.4,0.4,7.2,1.5,16.6-0.2c8.2-0.9,13.1-5,22.5-6.4
			c5.1-1,8.6-3,8.3-10.8c-0.4-10.7-0.7-21.3-0.2-31.8c-3.5-7.9-11.1-15.8-21.6-15.1c-10,0.9-19-5.4-20.4-12.7c0,0,0,0,0,0
			c0,0,0,0,0,0C7.7,338,7.6,338,7.5,337.9L7.5,337.9z"/>
		<path id="path2460" inkscape:connector-curvature="0" sodipodi:nodetypes="ccccccccssssscccccsssssssccccc" class="st0" d="
			M145.5,327.5c-0.9,2.4-2,4.5-2.9,7.6c0,28.2-3.8,36.3-26.3,58.1c-0.2,0.1-6.6,15.1-12.1,19.1c-9.2,6.8-8.6,13-12.1,20.4
			c-2.5,3.8-5.9,4.4-8.4,3.7c-1.5-1.2-3.1-1.8-4.7-3.7c-0.1,3,0.1,5.8,0.9,8.3c0,0.1,0.1,0.1,0.1,0.2c0,0,0,0,0,0
			c0.4,0.9,0.8,1.8,1.3,2.7c0,0,0,0.1,0.1,0.1c0,0,0,0,0,0c0.4,0.6,0.8,1.1,1.3,1.7c-0.1,0-0.3-0.1-0.4-0.1
			c9.4,15.1,22.8,19.8,39.9,13.9c9.2-4,14.6-7.7,20.3-12c5-4.7,10.9-13.6,1.6-14.2c-1.3-0.4-2.1-0.7-2.4-1.1c0,0-0.1,0-0.1-0.1
			c0,0-0.1-0.1-0.1-0.2c0-0.1-0.1-0.2-0.1-0.2c0,0,0,0,0-0.1c0,0,0-0.1,0-0.1c0,0,0-0.1,0-0.1c0-1.3,2.6-3.3,0.6-7.2
			c-1.3-6,4.3-11.6,8.4-13.1c-2.8-6.1-5.6-12.2-8.4-18.3c0.2-4,8.1-6.1,6.8-13.6C151,360.5,154.1,332.5,145.5,327.5L145.5,327.5z"/>
		<path id="path2468" inkscape:connector-curvature="0" class="st8" d="M95.1,253.3c-6.8,1.8-14.9,9.1-20.5,22.6
			c-2.5,5.3-5,8.3-7.4,9.7c0.2,23.2,5.8,39.8,17.2,48.9c-3.4,13.5-6.8,32-0.6,43.2c-10.4-3.3-6.1,17.6-9.2,26.4
			c-5.2,14.6-9.8,14-14.6,15.3c4.4,5.1,10.2,10.5,18.8,13.7c0,0,0,0,0,0.1c0,0.1,0.1,0.2,0.1,0.3c0.6,1,3.5,2,4.9,3.1
			c2.5,0.7,5.9,0.1,8.4-3.7c3.4-7.4,2.8-13.6,12.1-20.4c5.3-3.8,11.6-18.3,12.1-19.1c-18.2-10.2-26.9-29.8-23.9-48.6
			c0.8-5.2,4.2-11-0.3-19.4C86.6,302.3,90.1,275.5,95.1,253.3z"/>
	</g>
</g>
<g>
</g>
<path d="M-109,560.6L-109,560.6l-0.2-0.1c-1.8-0.3-2.6-1.1-2.6-2.6V529c0-1.5,0.8-2.4,2.7-2.6l0.1,0l0.1-0.1
	c0.5-0.3,0.8-0.7,0.8-1.1s-0.3-0.8-0.8-1.1l-0.1-0.1h-10.6l-0.1,0.1c-0.5,0.3-0.8,0.7-0.8,1.1s0.3,0.8,0.8,1.1l0.1,0.1l0.1,0
	c1.8,0.3,2.7,1.1,2.7,2.6v2l-19.9,20.1c-0.3,0.3-0.5,0.4-0.6,0.5c0-0.1-0.1-0.3-0.1-0.8V529c0-1.5,0.8-2.4,2.7-2.6l0.1,0l0.1-0.1
	c0.5-0.3,0.8-0.7,0.8-1.1s-0.3-0.8-0.8-1.1l-0.1-0.1h-10.6l-0.1,0.1c-0.5,0.3-0.8,0.7-0.8,1.1s0.3,0.8,0.8,1.1l0.1,0.1l0.1,0
	c1.8,0.3,2.7,1.1,2.7,2.6v28.9c0,1.5-0.8,2.4-2.6,2.6l-0.1,0l-0.1,0.1c-0.5,0.3-0.8,0.7-0.8,1.1s0.3,0.8,0.8,1.1l0.1,0.1h10.6
	l0.1-0.1c0.5-0.3,0.8-0.7,0.8-1.1s-0.3-0.8-0.8-1.1l-0.1-0.1l-0.1,0c-1.8-0.3-2.6-1.1-2.6-2.6v-2.7l19.9-20.1
	c0.3-0.3,0.5-0.4,0.6-0.5c0,0.1,0.1,0.3,0.1,0.8v22.5c0,1.5-0.8,2.4-2.6,2.6l-0.2,0l-0.1,0.1c-0.4,0.4-0.6,0.9-0.5,1.3
	c0.1,0.4,0.4,0.7,0.9,0.9l0.1,0h10.4l0.1-0.1c0.5-0.3,0.8-0.7,0.8-1.1S-108.5,560.9-109,560.6z"/>
<path d="M-73.1,560.7L-73.1,560.7l-0.2-0.1c-2.1-0.6-3.6-1.5-4.5-2.9c-3.1-4.7-6.2-9.8-9.2-15.1l0-0.1l0,0c-0.1-0.1-0.1-0.4,0-0.7
	c0.6-0.5,1.1-1.1,1.6-1.9c1.2-2.1,2.5-5,4-8.7c0.5-1.3,1.1-1.9,2-1.9c1.1,0,1.4,0.1,1.5,0.2c0.4,0.2,0.8,0.3,1.3,0.3
	c1.9,0,2.9-1,2.9-2.9c0-1-0.3-1.9-1-2.6c-0.7-0.7-1.7-1-3-1c-2.3,0-4.2,2-5.7,5.9c-1.6,4.1-2.9,7.2-3.9,9.1
	c-1.1,2.1-2.8,3.1-5.3,3.1h-4.2c-0.5,0-0.6-0.1-0.6-0.6V529c0-1.5,0.8-2.4,2.7-2.6l0.1,0l0.1-0.1c0.5-0.3,0.8-0.7,0.8-1.1
	s-0.3-0.8-0.8-1.1l-0.1-0.1h-10.6l-0.1,0.1c-0.5,0.3-0.8,0.7-0.8,1.1s0.3,0.8,0.8,1.1l0.1,0.1l0.1,0c1.8,0.3,2.7,1.1,2.7,2.6v28.9
	c0,1.5-0.8,2.4-2.6,2.6l-0.1,0l-0.1,0.1c-0.5,0.3-0.8,0.7-0.8,1.1s0.3,0.8,0.8,1.1l0.1,0.1h10.6l0.1-0.1c0.5-0.3,0.8-0.7,0.8-1.1
	s-0.3-0.8-0.8-1.1l-0.1-0.1l-0.1,0c-1.8-0.3-2.6-1.1-2.6-2.6v-13.8c0-0.5,0.1-0.6,0.6-0.6h4.2c0.8,0,1.4,0.3,1.8,1.1
	c2.6,4.7,5.3,9.4,7.9,14c0.1,0.4,0.2,0.8,0.2,1.1c0,0-0.1,0.4-1.6,0.9l-0.1,0l-0.1,0.1c-0.2,0.2-0.8,0.7-0.7,1.3
	c0.1,0.4,0.3,0.7,0.9,0.9l0.1,0h11.2l0.1,0c0.5-0.2,0.8-0.5,0.9-0.9C-72.2,561.3-72.9,560.8-73.1,560.7z"/>
<path d="M-33,560.6L-33,560.6l-0.2-0.1c-1.8-0.3-2.6-1.1-2.6-2.6V529c0-1.5,0.8-2.4,2.7-2.6l0.1,0l0.1-0.1c0.5-0.3,0.8-0.7,0.8-1.1
	s-0.3-0.8-0.8-1.1l-0.1-0.1h-10.6l-0.1,0.1c-0.5,0.3-0.8,0.7-0.8,1.1s0.3,0.8,0.8,1.1l0.1,0.1l0.1,0c1.8,0.3,2.7,1.1,2.7,2.6v2
	l-19.9,20.1c-0.3,0.3-0.5,0.4-0.6,0.5c0-0.1-0.1-0.3-0.1-0.8V529c0-1.5,0.8-2.4,2.7-2.6l0.1,0l0.1-0.1c0.5-0.3,0.8-0.7,0.8-1.1
	s-0.3-0.8-0.8-1.1l-0.1-0.1h-10.6l-0.1,0.1c-0.5,0.3-0.8,0.7-0.8,1.1s0.3,0.8,0.8,1.1l0.1,0.1l0.1,0c1.8,0.3,2.7,1.1,2.7,2.6v28.9
	c0,1.5-0.8,2.4-2.6,2.6l-0.1,0l-0.1,0.1c-0.5,0.3-0.8,0.7-0.8,1.1s0.3,0.8,0.8,1.1l0.1,0.1h10.6l0.1-0.1c0.5-0.3,0.8-0.7,0.8-1.1
	s-0.3-0.8-0.8-1.1l-0.1-0.1l-0.1,0c-1.8-0.3-2.6-1.1-2.6-2.6v-2.7l19.9-20.1c0.3-0.3,0.5-0.4,0.6-0.5c0,0.1,0.1,0.3,0.1,0.8v22.5
	c0,1.5-0.8,2.4-2.6,2.6l-0.2,0l-0.1,0.1c-0.4,0.4-0.6,0.9-0.5,1.3c0.1,0.4,0.4,0.7,0.9,0.9l0.1,0h10.4l0.1-0.1
	c0.5-0.3,0.8-0.7,0.8-1.1S-32.4,560.9-33,560.6z"/>
<path d="M-4.7,544.9c-1.5-1.5-3-2.6-4.3-3.2c-0.1-0.1-0.2-0.2-0.2-0.2c0,0,0.1-0.1,0.4-0.3c1.1-0.5,2.2-1.3,3.5-2.6
	c1.3-1.3,1.9-3.2,1.9-5.7c0-2.4-0.9-4.5-2.8-6.4c-2.3-2.3-6-3.5-10.9-3.5c-4.9,0-8.9,0.9-11.7,2.8l-0.2,0.1l0,6.6
	c0,0.3,0.2,1.3,0.9,1.3c0.5,0,0.8-0.5,1.1-0.8l0,0l0-0.1c0.7-1.9,1.7-3.4,3-4.7c1.8-1.8,4.1-2.7,6.9-2.7c2.3,0,4.4,0.9,6.2,2.7
	c1.2,1.3,1.8,2.8,1.8,4.8c0,2.1-0.6,3.8-1.8,5c-1.4,1.4-3.5,2.1-6.2,2.1h-5.3c-0.9,0-1.4,0.5-1.4,1.4s0.5,1.4,1.4,1.4h4.8
	c3.4,0,6,0.9,7.8,2.7c1.7,1.7,2.5,4,2.5,6.8c0,2.4-0.6,4.2-1.8,5.4c-2.2,2.3-4.9,3.4-7.8,3.4c-3.2,0-5.8-1-7.8-3
	c-1.4-1.4-2.6-3.2-3.4-5.2l0-0.1l-0.1-0.1c-0.4-0.4-0.7-0.5-1-0.5c-0.3,0-0.8,0.1-0.9,1l0,0.1l0.5,6.7l0.2,0.1
	c3,2.3,7.3,3.4,12.6,3.4c5.4,0,9.4-1.3,12-3.9c2.1-2.2,3.2-4.7,3.2-7.5C-1.7,549.4-2.7,546.9-4.7,544.9z"/>
<path d="M28.2,545.6c-1.6-1.6-3.3-2.6-4.9-3c0,0,0,0,0,0c0.8-0.4,1.8-1.2,3.1-2.5c1.4-1.4,2.1-3.6,2.1-6.4c0-2.6-0.8-4.8-2.3-6.4
	c-2.1-2.2-5.1-3.3-8.7-3.3H0.3l-0.1,0.1c-0.5,0.3-0.8,0.7-0.8,1.1s0.3,0.8,0.8,1.1l0.1,0.1l0.1,0c1.8,0.3,2.7,1.1,2.7,2.6v28.9
	c0,1.7-0.8,2.5-2.6,2.6l-0.1,0l-0.1,0.1c-0.5,0.3-0.8,0.7-0.8,1.1s0.3,0.8,0.8,1.1l0.1,0.1h18.4c3.9,0,7-1.1,9.2-3.3c2-2,3-4.4,3-7
	C30.8,549.6,29.9,547.3,28.2,545.6z M21.6,539.5c-1.5,1.5-3.5,2.3-6,2.3H9c-0.6,0-0.8-0.2-0.8-0.8v-11.6c0-2.1,1-3.1,3-3.1h4
	c2.8,0,5,0.8,6.5,2.3c1.2,1.2,1.8,3.1,1.8,5.7C23.4,536.6,22.8,538.3,21.6,539.5z M11.2,560.6c-2.1,0-3-1-3-3.1V545
	c0-0.6,0.2-0.8,0.8-0.8h7c3.2,0,5.6,0.8,7.1,2.5c1.4,1.5,2.1,3.4,2.1,5.7c0,2.5-0.6,4.4-1.8,5.7c-1.7,1.7-3.8,2.5-6.5,2.5H11.2z"/>
<path d="M65.1,528.6c-3.6-3.6-8.1-5.5-13.3-5.5s-9.7,1.8-13.3,5.5c-3.6,3.6-5.4,8.6-5.4,14.8s1.8,11.2,5.4,14.8
	c3.6,3.6,8.1,5.5,13.3,5.5s9.7-1.8,13.3-5.5c3.6-3.6,5.4-8.6,5.4-14.8S68.7,532.3,65.1,528.6z M51.7,525.5c3.2,0,6.1,1.2,8.4,3.6
	c3,3,4.5,7.8,4.5,14.3s-1.5,11.3-4.5,14.3c-2.4,2.4-5.2,3.6-8.4,3.6c-3.2,0-6.1-1.2-8.4-3.6c-3-3-4.5-7.8-4.5-14.3
	s1.5-11.3,4.5-14.3C45.7,526.7,48.5,525.5,51.7,525.5z"/>
<path d="M98.5,527.7c-2.4-2.5-6-3.7-10.7-3.7H71.4l-0.1,0.1c-0.5,0.3-0.8,0.7-0.8,1.1s0.3,0.8,0.8,1.1l0.1,0.1l0.1,0
	c1.8,0.3,2.7,1.1,2.7,2.6v28.9c0,1.5-0.8,2.4-2.7,2.6l-0.1,0l-0.1,0.1c-0.5,0.3-0.8,0.7-0.8,1.1s0.3,0.8,0.8,1.1l0.1,0.1H82l0.1-0.1
	c0.5-0.3,0.8-0.7,0.8-1.1c0-0.4-0.3-0.8-0.8-1.1l-0.1-0.1l-0.1,0c-1.8-0.3-2.7-1.1-2.7-2.6v-10c0-0.5,0.1-0.6,0.6-0.6h7.9
	c4.7,0,8.4-1.4,11.1-4.2c1.7-1.7,2.6-4.3,2.6-7.7C101.5,532.4,100.5,529.8,98.5,527.7z M79.3,529.4c0-2.1,1-3.1,3-3.1H86
	c3.2,0,5.8,0.9,7.6,2.7c1.5,1.5,2.3,3.7,2.3,6.6c0,2.8-0.6,4.9-1.8,6.1c-2.1,2.1-4.9,3.2-8.2,3.2h-4.6c-1.3,0-1.9-0.6-1.9-1.9V529.4
	z"/>
<path d="M138.9,560.6L138.9,560.6l-0.2-0.1c-1.8-0.3-2.7-1.1-2.7-2.6V529c0-1.5,0.8-2.4,2.7-2.6l0.1,0l0.1-0.1
	c0.5-0.3,0.8-0.7,0.8-1.1s-0.3-0.8-0.8-1.1l-0.1-0.1h-10.6l-0.1,0.1c-0.5,0.3-0.8,0.7-0.8,1.1s0.3,0.8,0.8,1.1l0.1,0.1l0.1,0
	c1.8,0.3,2.7,1.1,2.7,2.6v10c0,0.5-0.1,0.6-0.6,0.6h-19.4c-0.5,0-0.6-0.1-0.6-0.6v-10c0-1.5,0.8-2.4,2.7-2.6l0.1,0l0.1-0.1
	c0.5-0.3,0.8-0.7,0.8-1.1c0-0.4-0.3-0.8-0.8-1.1L113,524h-10.6l-0.1,0.1c-0.5,0.3-0.8,0.7-0.8,1.1s0.3,0.8,0.8,1.1l0.1,0.1l0.1,0
	c1.8,0.3,2.7,1.1,2.7,2.6v28.9c0,1.5-0.8,2.4-2.7,2.6l-0.1,0l-0.1,0.1c-0.5,0.3-0.8,0.7-0.8,1.1s0.3,0.8,0.8,1.1l0.1,0.1H113
	l0.1-0.1c0.5-0.3,0.8-0.7,0.8-1.1c0-0.4-0.3-0.8-0.8-1.1l-0.1-0.1l-0.1,0c-1.8-0.3-2.6-1.1-2.6-2.6v-15.4c0-0.5,0.1-0.6,0.6-0.6
	h19.4c0.5,0,0.6,0.1,0.6,0.6v15.4c0,1.7-0.8,2.5-2.6,2.6l-0.1,0l-0.1,0.1c-0.5,0.3-0.8,0.7-0.8,1.1s0.3,0.8,0.8,1.1l0.1,0.1h10.6
	l0.1-0.1c0.5-0.3,0.8-0.7,0.8-1.1S139.4,560.9,138.9,560.6z"/>
<path d="M178.4,560.6L178.4,560.6l-0.2-0.1c-1.8-0.3-2.7-1.1-2.7-2.6V529c0-1.5,0.8-2.4,2.7-2.6l0.1,0l0.1-0.1
	c0.5-0.3,0.8-0.7,0.8-1.1s-0.3-0.8-0.8-1.1l-0.1-0.1h-10.6l-0.1,0.1c-0.5,0.3-0.8,0.7-0.8,1.1s0.3,0.8,0.8,1.1l0.1,0.1l0.1,0
	c1.8,0.3,2.7,1.1,2.7,2.6v2l-19.9,20.1c-0.3,0.3-0.5,0.4-0.6,0.5c0-0.1-0.1-0.3-0.1-0.8V529c0-1.5,0.8-2.4,2.7-2.6l0.1,0l0.1-0.1
	c0.5-0.3,0.8-0.7,0.8-1.1c0-0.4-0.3-0.8-0.8-1.1l-0.1-0.1h-10.6l-0.1,0.1c-0.5,0.3-0.8,0.7-0.8,1.1s0.3,0.8,0.8,1.1l0.1,0.1l0.1,0
	c1.8,0.3,2.7,1.1,2.7,2.6v28.9c0,1.5-0.8,2.4-2.7,2.6l-0.1,0l-0.1,0.1c-0.5,0.3-0.8,0.7-0.8,1.1s0.3,0.8,0.8,1.1l0.1,0.1h10.6
	l0.1-0.1c0.5-0.3,0.8-0.7,0.8-1.1c0-0.4-0.3-0.8-0.8-1.1l-0.1-0.1l-0.1,0c-1.8-0.3-2.6-1.1-2.6-2.6v-2.7l19.9-20.1
	c0.3-0.3,0.5-0.4,0.6-0.5c0,0.1,0.1,0.3,0.1,0.8v22.5c0,1.5-0.8,2.4-2.7,2.6l-0.2,0l-0.1,0.1c-0.4,0.4-0.6,0.9-0.5,1.3
	c0.1,0.4,0.4,0.7,0.9,0.9l0.1,0h10.4l0.1-0.1c0.5-0.3,0.8-0.7,0.8-1.1S178.9,560.9,178.4,560.6z"/>
<path d="M214.3,560.7L214.3,560.7l-0.2-0.1c-2.1-0.6-3.6-1.5-4.5-2.9c-3-4.7-6.2-9.8-9.2-15.1l0-0.1l0,0c-0.1-0.1-0.1-0.4,0-0.7
	c0.6-0.5,1.1-1.1,1.6-1.9c1.2-2.1,2.5-5,4-8.7c0.5-1.3,1.1-1.9,2-1.9c1.1,0,1.4,0.1,1.5,0.2c0.4,0.2,0.8,0.3,1.3,0.3
	c1.9,0,2.9-1,2.9-2.9c0-1-0.3-1.9-1-2.6c-0.7-0.7-1.7-1-3-1c-2.3,0-4.2,2-5.7,5.9c-1.6,4.1-2.9,7.2-3.9,9.1
	c-1.1,2.1-2.8,3.1-5.3,3.1h-4.2c-0.5,0-0.6-0.1-0.6-0.6V529c0-1.5,0.8-2.4,2.7-2.6l0.1,0l0.1-0.1c0.5-0.3,0.8-0.7,0.8-1.1
	c0-0.4-0.3-0.8-0.8-1.1l-0.1-0.1h-10.6l-0.1,0.1c-0.5,0.3-0.8,0.7-0.8,1.1s0.3,0.8,0.8,1.1l0.1,0.1l0.1,0c1.8,0.3,2.7,1.1,2.7,2.6
	v28.9c0,1.5-0.8,2.4-2.7,2.6l-0.1,0l-0.1,0.1c-0.5,0.3-0.8,0.7-0.8,1.1s0.3,0.8,0.8,1.1l0.1,0.1h10.6l0.1-0.1
	c0.5-0.3,0.8-0.7,0.8-1.1c0-0.4-0.3-0.8-0.8-1.1l-0.1-0.1l-0.1,0c-1.8-0.3-2.7-1.1-2.7-2.6v-13.8c0-0.5,0.1-0.6,0.6-0.6h4.2
	c0.8,0,1.4,0.3,1.8,1.1c2.6,4.7,5.3,9.4,7.9,14c0.1,0.4,0.2,0.8,0.2,1.1c0,0-0.1,0.4-1.6,0.9l-0.1,0l-0.1,0.1
	c-0.2,0.2-0.8,0.7-0.7,1.3c0.1,0.4,0.3,0.7,0.9,0.9l0.1,0h11.2l0.1,0c0.5-0.2,0.8-0.5,0.9-0.9C215.1,561.3,214.5,560.8,214.3,560.7z
	"/>
<path d="M-150.2,537.1c-2.4-2.4-4.9-3.9-7.3-4.4c-0.1-0.2-0.1-0.3,0-0.5c1.2-0.5,2.7-1.7,4.7-3.7c2.1-2.1,3.1-5.2,3.1-9.4
	c0-3.9-1.2-7-3.4-9.4c-3.2-3.2-7.5-4.8-12.9-4.8h-25.8l-0.1,0.1c-0.7,0.4-1.1,0.9-1.1,1.4c0,0.5,0.3,1,1.1,1.4l0.1,0.1l0.1,0
	c2.8,0.4,4.2,1.8,4.2,4.2v43.4c0,2.6-1.3,4-4.1,4.2l-0.1,0l-0.1,0.1c-0.7,0.4-1.1,0.9-1.1,1.4c0,0.5,0.3,1,1.1,1.4l0.1,0.1h27.5
	c5.8,0,10.4-1.6,13.5-4.8c2.9-3,4.4-6.5,4.4-10.4C-146.4,543.2-147.7,539.7-150.2,537.1z M-159.8,528.1c-2.3,2.3-5.4,3.5-9.2,3.5
	h-9.9c-1,0-1.5-0.4-1.5-1.5v-17.3c0-3.3,1.5-4.8,4.8-4.8h5.9c4.2,0,7.5,1.2,9.9,3.5c1.9,1.9,2.8,4.8,2.8,8.7
	C-156.9,523.5-157.9,526.2-159.8,528.1z M-180.3,554.8v-18.7c0-1.1,0.4-1.5,1.5-1.5h10.5c4.9,0,8.5,1.3,10.8,3.8
	c2.1,2.3,3.2,5.3,3.2,8.7c0,3.8-0.9,6.8-2.8,8.7c-2.5,2.6-5.8,3.9-9.9,3.9h-8.6C-178.8,559.7-180.3,558.1-180.3,554.8z"/>
</svg>
