<?xml version="1.0" encoding="UTF-8" standalone="no"?>
<!-- Created with Inkscape (http://www.inkscape.org/) -->

<svg
   xmlns:dc="http://purl.org/dc/elements/1.1/"
   xmlns:cc="http://creativecommons.org/ns#"
   xmlns:rdf="http://www.w3.org/1999/02/22-rdf-syntax-ns#"
   xmlns:svg="http://www.w3.org/2000/svg"
   xmlns="http://www.w3.org/2000/svg"
   xmlns:xlink="http://www.w3.org/1999/xlink"
   xmlns:sodipodi="http://sodipodi.sourceforge.net/DTD/sodipodi-0.dtd"
   xmlns:inkscape="http://www.inkscape.org/namespaces/inkscape"
   width="800"
   height="600"
   id="svg2"
   sodipodi:version="0.32"
   inkscape:version="0.91 r13725"
   sodipodi:docname="WikiNews-Logo-fr.svg"
   version="1.0"
   inkscape:output_extension="org.inkscape.output.svg.inkscape">
  <defs
     id="defs4">
    <linearGradient
       id="linearGradient3224">
      <stop
         style="stop-color:#4a9eda;stop-opacity:1;"
         offset="0"
         id="stop3226" />
      <stop
         id="stop3232"
         offset="0.5"
         style="stop-color:#aed4ee;stop-opacity:1;" />
      <stop
         style="stop-color:#4a9eda;stop-opacity:1;"
         offset="1"
         id="stop3228" />
    </linearGradient>
    <linearGradient
       id="linearGradient3214">
      <stop
         style="stop-color:#7dc1f2;stop-opacity:1;"
         offset="0"
         id="stop3216" />
      <stop
         id="stop3222"
         offset="0.5"
         style="stop-color:#c6e4f9;stop-opacity:1;" />
      <stop
         style="stop-color:#7dc1f2;stop-opacity:1;"
         offset="1"
         id="stop3218" />
    </linearGradient>
    <linearGradient
       id="linearGradient3204">
      <stop
         style="stop-color:#b0ddff;stop-opacity:1;"
         offset="0"
         id="stop3206" />
      <stop
         id="stop3212"
         offset="0.5"
         style="stop-color:#ddf0ff;stop-opacity:1;" />
      <stop
         style="stop-color:#b0ddff;stop-opacity:1;"
         offset="1"
         id="stop3208" />
    </linearGradient>
    <inkscape:perspective
       sodipodi:type="inkscape:persp3d"
       inkscape:vp_x="0 : 283.5 : 1"
       inkscape:vp_y="0 : 1000 : 0"
       inkscape:vp_z="765 : 283.5 : 1"
       inkscape:persp3d-origin="382.5 : 189 : 1"
       id="perspective52" />
    <linearGradient
       id="linearGradient14123">
      <stop
         style="stop-color:white;stop-opacity:1;"
         offset="0"
         id="stop14125" />
      <stop
         style="stop-color:white;stop-opacity:0;"
         offset="1"
         id="stop14127" />
    </linearGradient>
    <marker
       inkscape:stockid="Arrow1Lstart"
       orient="auto"
       refY="0"
       refX="0"
       id="Arrow1Lstart"
       style="overflow:visible">
      <path
         id="path8764"
         d="M 0,0 L 5,-5 L -12.5,0 L 5,5 L 0,0 z"
         style="fill-rule:evenodd;stroke:#000000;stroke-width:1pt;marker-start:none"
         transform="matrix(0.8,0,0,0.8,10,0)" />
    </marker>
    <linearGradient
       id="linearGradient8494">
      <stop
         style="stop-color:white;stop-opacity:0.21717171;"
         offset="0"
         id="stop8496" />
      <stop
         id="stop8502"
         offset="0.5"
         style="stop-color:white;stop-opacity:0.57070708;" />
      <stop
         style="stop-color:white;stop-opacity:0.21717171;"
         offset="1"
         id="stop8498" />
    </linearGradient>
    <linearGradient
       inkscape:collect="always"
       xlink:href="#linearGradient8494"
       id="linearGradient8582"
       gradientUnits="userSpaceOnUse"
       x1="403.05087"
       y1="239.24265"
       x2="404.46506"
       y2="0.2405497" />
    <radialGradient
       inkscape:collect="always"
       xlink:href="#linearGradient14123"
       id="radialGradient14129"
       cx="382.9888"
       cy="120"
       fx="382.9888"
       fy="120"
       r="206.99046"
       gradientTransform="matrix(1,0,0,1.014438,-24.761988,-20.932634)"
       gradientUnits="userSpaceOnUse" />
    <radialGradient
       inkscape:collect="always"
       xlink:href="#linearGradient14123"
       id="radialGradient15148"
       gradientUnits="userSpaceOnUse"
       gradientTransform="matrix(1,0,0,1.014438,-28.360529,-23.438805)"
       cx="382.9888"
       cy="120"
       fx="382.9888"
       fy="120"
       r="206.99046" />
    <linearGradient
       inkscape:collect="always"
       xlink:href="#linearGradient3204"
       id="linearGradient3210"
       x1="-52.093353"
       y1="192.80403"
       x2="-52.093353"
       y2="46.7187"
       gradientUnits="userSpaceOnUse" />
    <linearGradient
       inkscape:collect="always"
       xlink:href="#linearGradient3214"
       id="linearGradient3220"
       x1="-52.221161"
       y1="217.58414"
       x2="-52.221161"
       y2="23.696253"
       gradientUnits="userSpaceOnUse" />
    <linearGradient
       inkscape:collect="always"
       xlink:href="#linearGradient3224"
       id="linearGradient3230"
       x1="-51.764652"
       y1="235.80403"
       x2="-51.764652"
       y2="0.80402988"
       gradientUnits="userSpaceOnUse" />
    <inkscape:perspective
       id="perspective3298"
       inkscape:persp3d-origin="372.04724 : 350.78739 : 1"
       inkscape:vp_z="744.09448 : 526.18109 : 1"
       inkscape:vp_y="0 : 1000 : 0"
       inkscape:vp_x="0 : 526.18109 : 1"
       sodipodi:type="inkscape:persp3d" />
    <inkscape:perspective
       id="perspective50"
       inkscape:persp3d-origin="500 : 85.833333 : 1"
       inkscape:vp_z="1000 : 128.75 : 1"
       inkscape:vp_y="0 : 1000 : 0"
       inkscape:vp_x="0 : 128.75 : 1"
       sodipodi:type="inkscape:persp3d" />
    <linearGradient
       id="linearGradient9171">
      <stop
         id="stop9173"
         offset="0"
         style="stop-color:#b0ddff;stop-opacity:1" />
      <stop
         id="stop9179"
         offset="0.5"
         style="stop-color:#cae8ff;stop-opacity:1" />
      <stop
         id="stop9175"
         offset="1"
         style="stop-color:#b0ddff;stop-opacity:1" />
    </linearGradient>
    <linearGradient
       gradientTransform="matrix(0,-1,1,0,128.1595,487.3718)"
       gradientUnits="userSpaceOnUse"
       xlink:href="#linearGradient9171"
       id="linearGradient9177"
       y2="174.32866"
       x2="374.4324"
       y1="174.32866"
       x1="258.18005" />
    <linearGradient
       id="linearGradient8262">
      <stop
         id="stop8264"
         offset="0"
         style="stop-color:#7dc1f3;stop-opacity:1" />
      <stop
         id="stop8268"
         offset="0.5"
         style="stop-color:#adf;stop-opacity:1" />
      <stop
         id="stop8266"
         offset="1"
         style="stop-color:#7dc1f3;stop-opacity:1" />
    </linearGradient>
    <linearGradient
       gradientTransform="matrix(0,-1,1,0,127.3584,487.9698)"
       gradientUnits="userSpaceOnUse"
       xlink:href="#linearGradient8262"
       id="linearGradient7375"
       y2="175.02803"
       x2="393.35095"
       y1="175.02803"
       x1="239.05807" />
    <linearGradient
       id="linearGradient5571">
      <stop
         id="stop5573"
         offset="0"
         style="stop-color:#4b9fdb;stop-opacity:1" />
      <stop
         id="stop5579"
         offset="0.5"
         style="stop-color:#7ec9fd;stop-opacity:1" />
      <stop
         id="stop5575"
         offset="1"
         style="stop-color:#4b9fdb;stop-opacity:1" />
    </linearGradient>
    <linearGradient
       gradientTransform="matrix(0,-1,1,0,129.5808,486.4738)"
       gradientUnits="userSpaceOnUse"
       xlink:href="#linearGradient5571"
       id="linearGradient5577"
       y2="173.16895"
       x2="410.07242"
       y1="173.16895"
       x1="223.06319" />
    <linearGradient
       id="linearGradient18934">
      <stop
         id="stop18936"
         offset="0"
         style="stop-color:#eee;stop-opacity:1" />
      <stop
         id="stop18938"
         offset="1"
         style="stop-color:#d5e1fd;stop-opacity:1" />
    </linearGradient>
    <radialGradient
       gradientTransform="matrix(1,0,0,1.014494,-13.81818,-5.80099)"
       gradientUnits="userSpaceOnUse"
       xlink:href="#linearGradient18934"
       id="radialGradient18940"
       fy="175.1584"
       fx="318.60364"
       r="164.73401"
       cy="175.1584"
       cx="318.60364" />
    <linearGradient
       id="linearGradient15386">
      <stop
         id="stop15388"
         offset="0"
         style="stop-color:#35a5ec;stop-opacity:1" />
      <stop
         id="stop15390"
         offset="1"
         style="stop-color:#2681da;stop-opacity:1" />
    </linearGradient>
    <radialGradient
       gradientTransform="matrix(1,0,0,0.863204,0,16.87579)"
       gradientUnits="userSpaceOnUse"
       xlink:href="#linearGradient15386"
       id="radialGradient15392"
       fy="123.36477"
       fx="373.08163"
       r="184.27052"
       cy="123.36477"
       cx="373.08163" />
    <radialGradient
       gradientTransform="matrix(1,0,0,0.863204,0,16.87579)"
       gradientUnits="userSpaceOnUse"
       xlink:href="#linearGradient15386"
       id="radialGradient1982"
       fy="123.36477"
       fx="373.08163"
       r="184.27052"
       cy="123.36477"
       cx="373.08163" />
  </defs>
  <sodipodi:namedview
     id="base"
     pagecolor="#ffffff"
     bordercolor="#666666"
     borderopacity="1.0"
     inkscape:pageopacity="0.0"
     inkscape:pageshadow="2"
     inkscape:zoom="0.29052734"
     inkscape:cx="299.95355"
     inkscape:cy="-54.482903"
     inkscape:document-units="px"
     inkscape:current-layer="layer5"
     inkscape:window-width="1301"
     inkscape:window-height="744"
     inkscape:window-x="65"
     inkscape:window-y="24"
     showguides="true"
     inkscape:guide-bbox="true"
     height="567px"
     width="765px"
     showgrid="false"
     inkscape:object-paths="false"
     inkscape:object-nodes="true"
     inkscape:snap-others="false"
     inkscape:window-maximized="1" />
  <metadata
     id="metadata7">
    <rdf:RDF>
      <cc:Work
         rdf:about="">
        <dc:format>image/svg+xml</dc:format>
        <dc:type
           rdf:resource="http://purl.org/dc/dcmitype/StillImage" />
      </cc:Work>
    </rdf:RDF>
  </metadata>
  <g
     inkscape:label="Ebene 1"
     inkscape:groupmode="layer"
     id="layer1"
     transform="translate(459.6624,116.0739)"
     style="display:inline">
    <path
       style="fill:url(#linearGradient3220);fill-opacity:1"
       d="M -351.9172,217.12127 C -355.85426,216.72052 -356.34494,216.28766 -361.12231,209.00099 C -367.38597,199.44735 -371.15399,191.19587 -375.13999,178.30403 C -386.12273,142.78276 -385.71036,93.97939 -374.13449,59.30619 C -370.59884,48.71585 -362.52255,32.85701 -357.97227,27.56956 L -354.75845,23.83509 L -341.45024,23.7111 C -334.13073,23.64291 -327.91297,23.81617 -327.63301,24.09614 C -327.35305,24.3761 -328.21771,26.78741 -329.55448,29.4546 C -335.99227,42.29958 -341.69509,63.91938 -344.80614,87.27469 C -346.5901,100.66735 -346.88856,138.47164 -345.31558,151.80403 C -343.41875,167.8813 -339.41608,185.622 -334.17651,201.17482 C -331.42111,209.35376 -329.44929,216.32876 -329.79467,216.67482 C -330.53638,217.418 -345.94677,217.72899 -351.9172,217.12127 z M 226.49155,217.1147 C 224.18949,216.51311 224.23133,216.21244 227.77636,207.88175 C 232.23249,197.41 237.45105,177.39041 239.90172,161.36605 C 242.87707,141.91102 243.15527,99.81463 240.41762,83.30403 C 237.167,63.69979 230.97076,41.31485 226.10223,31.58727 C 222.12246,23.6355 221.87358,23.80403 237.59666,23.80403 L 251.45177,23.80403 L 255.4705,29.55403 C 264.62177,42.64764 272.00011,61.60156 275.81028,81.80403 C 278.86824,98.01815 279.62941,132.40619 277.30031,149.12129 C 273.87635,173.69388 267.05596,194.02581 257.37094,208.53176 C 252.27984,216.15705 252.08773,216.31656 247.21163,216.96642 C 241.58833,217.71588 229.13309,217.80501 226.49155,217.1147 z"
       id="path6683" />
    <path
       style="fill:url(#linearGradient3230);fill-opacity:1;fill-rule:evenodd"
       d="M -291.04348,232.39608 C -305.37345,216.07516 -315.53139,189.44393 -320.4487,155.30403 C -322.1831,143.26242 -322.16668,100.51231 -320.42239,86.80403 C -318.52168,71.86636 -314.74429,55.43533 -310.14354,42.09267 C -305.46966,28.53791 -302.05347,21.45391 -294.45208,9.5540299 L -288.86276,0.80402986 L -268.97727,0.80402986 C -258.04025,0.80402986 -249.24436,1.1415299 -249.43085,1.5540299 C -249.61733,1.9665299 -250.9552,4.5540299 -252.4039,7.3040299 C -264.60271,30.46058 -275.15748,65.25121 -278.30859,92.69106 C -280.03211,107.69946 -279.02321,141.16433 -276.41363,155.54652 C -272.18945,178.82722 -266.08321,198.58055 -256.34999,220.45128 L -249.51749,235.80403 L -268.78438,235.80403 L -288.05127,235.80403 L -291.04348,232.39608 z M 145.74155,234.77907 C 145.74155,234.21534 147.37923,230.50284 149.38085,226.52907 C 160.44849,204.55665 169.81176,174.57464 173.24578,150.11142 C 175.40522,134.72804 175.4607,97.00826 173.34256,84.30403 C 169.22049,59.58047 162.40522,37.60956 151.86768,15.07378 C 148.49831,7.8679739 145.74155,1.7094499 145.74155,1.3881719 C 145.74155,1.0668939 154.26142,0.80402986 164.6746,0.80402986 L 183.60765,0.80402986 L 187.21891,5.2111009 C 215.17064,39.3225 226.54427,120.96522 211.61106,180.30403 C 206.08284,202.27105 196.88393,221.5319 186.89546,232.05403 L 183.33565,235.80403 L 164.5386,235.80403 C 152.36869,235.80403 145.74155,235.44267 145.74155,234.77907 z"
       id="path6681" />
    <path
       style="fill:url(#linearGradient3210);fill-opacity:1"
       d="M -414.70421,187.87792 C -419.33521,181.56924 -424.47381,170.36964 -427.15042,160.75138 C -435.69566,130.04447 -433.13856,85.30652 -421.52629,62.35385 C -418.23878,55.85581 -414.24343,49.61288 -412.37469,48.05403 C -410.8997,46.82364 -389.25845,46.15261 -389.25845,47.33727 C -389.25845,47.63056 -390.43996,50.20212 -391.88403,53.05185 C -402.7892,74.57218 -408.31071,104.03108 -406.3397,130.17726 C -404.72094,151.65069 -399.70464,171.12299 -391.74519,186.8302 C -390.37748,189.52924 -389.25845,191.9775 -389.25845,192.27079 C -389.25845,192.56407 -394.17012,192.80403 -400.17328,192.80403 L -411.08811,192.80403 L -414.70421,187.87792 z M 285.74155,192.05202 C 285.74155,191.63842 287.94717,186.09547 290.64293,179.73436 C 299.82882,158.0587 303.41064,138.06556 302.32266,114.5401 C 301.02676,86.51868 297.00624,71.0072 284.9601,47.55403 C 284.74823,47.14153 289.69491,46.80403 295.95273,46.80403 L 307.33058,46.80403 L 310.9193,51.55403 C 318.15686,61.13362 323.1688,74.44325 326.26432,92.30403 C 328.33837,104.27101 328.63483,130.4072 326.83148,142.30403 C 323.85288,161.95409 316.53137,181.64324 309.38556,189.22001 L 306.0054,192.80403 L 295.87347,192.80403 C 290.30092,192.80403 285.74155,192.46563 285.74155,192.05202 z"
       id="path6685" />
  </g>
  <g
     inkscape:groupmode="layer"
     id="layer6"
     inkscape:label="Schatten"
     style="display:inline" />
  <g
     inkscape:groupmode="layer"
     id="layer5"
     inkscape:label="Text"
     style="display:inline">
    <path
       style="font-style:normal;font-variant:normal;font-weight:normal;font-stretch:normal;font-size:123px;line-height:125%;font-family:'Bitstream Vera Sans';text-align:start;writing-mode:lr-tb;text-anchor:start;fill:#595959;fill-opacity:1;stroke:none;stroke-width:1px;stroke-linecap:butt;stroke-linejoin:miter;stroke-opacity:1"
       d="M 45.089823,586.7 18.89116,482.5 l 20.180318,0 17.233385,83.87172 19.106638,-83.87172 19.722867,0 16.949312,82.39596 18.83283,-82.39596 19.34703,0 -28.08843,104.2 -20.53309,0 L 84.09089,506.95474 65.198984,586.7 Z m 115.098317,0 -0.22818,-104.2 18.92711,0 0.0761,104.2 z m 28.4714,0 0,-104.2 18.58143,0 1.8e-4,48.17566 35.85817,-48.17566 23.06287,0 -36.8167,45.85212 39.82428,58.34788 -22.50399,0 -29.85857,-47.60265 -9.56606,12.3621 -1.8e-4,35.24055 z m 87.23709,0 0,-104.2 18.5816,0 0,104.2 z"
       id="text2398"
       sodipodi:nodetypes="ccccccccccccccccccccccccccccccccccccc"
       inkscape:connector-curvature="0" />
    <g
       id="g3571"
       transform="matrix(1.0006493,0,0,1.0006493,-187.0858,448.56931)">
      <g
         transform="matrix(0.729,0,0,0.729,2.672339,4.097758)"
         id="layer1-6">
        <g
           id="layer3-0"
           style="display:inline;fill:url(#radialGradient15392);fill-opacity:1"
           transform="matrix(0.795784,0,0,0.795784,2.202877e-4,76.40201)" />
      </g>
      <g
         transform="scale(0.9645827,1.0367177)"
         style="font-style:normal;font-variant:normal;font-weight:bold;font-stretch:normal;font-size:144px;line-height:125%;font-family:Arial;-inkscape-font-specification:'Arial Bold';text-align:center;writing-mode:lr-tb;text-anchor:middle;fill:#8c8c8c;fill-opacity:1;stroke:none;stroke-width:1px;stroke-linecap:butt;stroke-linejoin:miter;stroke-opacity:1"
         id="text2433">
        <path
           id="path3594"
           style="font-style:normal;font-variant:normal;font-weight:bold;font-stretch:normal;font-size:144px;line-height:125%;font-family:Arial;-inkscape-font-specification:'Arial Bold';text-align:center;writing-mode:lr-tb;text-anchor:middle;fill:#8c8c8c;fill-opacity:1"
           d="m 706.7767,32.707721 20.37931,0 -0.30884,52.36406 c -0.0512,8.674844 0.25245,14.390133 0.75735,16.960489 0.87208,4.13095 2.93755,7.45864 6.1964,9.98311 3.30475,2.47856 7.80289,3.71784 13.4944,3.71784 5.78332,0 10.14376,-1.17043 13.08132,-3.51129 2.93756,-2.38677 4.70469,-5.30137 5.30137,-8.74383 0.59669,-3.44245 0.89504,-9.249402 0.89504,-17.235886 l 0.30883,-53.534493 20.3793,0 -0.30883,50.711684 c -0.0738,12.117228 -0.55079,20.770135 -1.65238,25.773165 -1.10158,5.00302 -3.1441,9.22576 -6.12756,12.66821 -2.93755,3.44245 -6.8849,6.19641 -11.84202,8.26189 -4.95713,2.01957 -11.42894,3.02935 -19.41543,3.02935 -9.63885,0 -16.9598,-1.10158 -21.96282,-3.30475 -4.95713,-2.24907 -8.88152,-5.14073 -11.77318,-8.67498 -2.89167,-3.58015 -4.79649,-7.32094 -5.71447,-11.22239 -1.33108,-5.78331 -1.99662,-14.41307 -1.99662,-25.704307 z m -102.30078,100.444299 0,-100.444299 19.30202,0 0,100.444299 z M 980.30221,32.707721 c -10.73677,1.13e-4 -19.7133,2.054479 -25.9495,7.201856 -13.85609,11.436794 -14.80529,28.207513 -2.88681,40.259557 7.89064,7.979062 19.84434,7.201488 30.29557,11.33609 5.17068,2.045554 9.95629,6.502251 10.0245,11.983416 0.066,5.30636 -1.7491,9.1942 -5.23432,11.65873 -3.48534,2.46455 -8.43359,3.72778 -14.84641,3.68948 -9.05151,-0.0541 -18.04339,-2.06354 -25.79088,-6.58202 l -4.06056,14.40371 c 5.29814,2.90808 6.95162,3.31183 12.53064,4.57496 5.57899,1.26312 11.52393,1.91853 17.79666,1.91852 5.57897,0 10.63143,-0.57413 15.16364,-1.71192 4.53207,-1.13777 9.83161,-2.93683 13.03816,-5.40139 3.2065,-2.46453 6.4101,-4.82002 8.1529,-8.73668 1.7425,-3.91663 3.1405,-7.83853 3.1406,-13.40017 -10e-5,-5.56156 -1.7278,-11.876968 -5.6468,-17.119165 -8.67708,-11.606936 -33.87575,-11.298744 -40.22485,-19.630031 -1.49246,-1.958403 -2.31582,-5.221387 -2.31579,-7.497014 -3e-5,-3.663926 1.49573,-6.363767 5.01225,-8.589099 3.29636,-2.085997 7.07848,-2.92198 11.95961,-2.922064 5.85557,8.4e-5 7.64945,-0.104632 11.48377,1.033053 3.83418,1.137865 7.83981,1.910432 11.32511,4.309308 l 4.473,-14.905482 c -3.7663,-2.653429 -5.5898,-3.203631 -10.81759,-4.279791 -5.22799,-1.075953 -10.76305,-1.593731 -16.6229,-1.593854 z m -182.9951,0 27.05981,100.444299 20.49313,0 20.84207,-78.674917 17.27171,78.674917 21.33531,0 28.89975,-100.444299 -20.20762,0 -18.65318,80.771469 -17.66977,-80.771469 -20.71519,0 -19.7635,81.096149 -17.66977,-81.096149 z m -288.33916,0 0,100.444299 18.20906,0 0,-77.201026 44.31718,77.201026 22.9358,0 0,-100.444299 -16.68635,0 0,73.420139 -46.56952,-73.420139 z m 124.85591,0 0,100.444299 64.20756,0 0,-15.39398 -45.01509,0 0,-29.45678 41.49382,0 0,-14.994029 -41.49382,0 0,-26.623255 43.71444,0 0,-13.976255 z"
           inkscape:connector-curvature="0"
           sodipodi:nodetypes="ccsccscscccssccscccccccccccsssscsccscssccsscscccccccccccccccccccccccccccccccccccccccccccc" />
      </g>
    </g>
  </g>
  <g
     inkscape:groupmode="layer"
     id="layer2"
     inkscape:label="Kreise"
     style="display:inline"
     transform="translate(4.969921e-5,97.07894)">
    <path
       sodipodi:open="true"
       sodipodi:end="10.325064"
       sodipodi:start="4.0475263"
       d="M 255.29113,-45.270318 A 207,210 0 0 1 545.72884,-9.7929405 207,210 0 0 1 511.16839,284.90381 207,210 0 0 1 220.63308,250.2586 207,210 0 0 1 254.37312,-44.535983"
       sodipodi:ry="210"
       sodipodi:rx="207"
       sodipodi:cy="120"
       sodipodi:cx="383"
       id="path12347"
       style="fill:#d8e2ff;fill-opacity:1;fill-rule:evenodd;stroke:none;stroke-width:12;stroke-linecap:round;stroke-linejoin:round;marker-start:none;stroke-miterlimit:4;stroke-dasharray:none;stroke-opacity:1"
       sodipodi:type="arc"
       transform="translate(27.455844,19.79899)" />
    <path
       sodipodi:open="true"
       sodipodi:end="10.325064"
       sodipodi:start="4.0475263"
       d="M 255.29113,-45.270318 A 207,210 0 0 1 545.72884,-9.7929405 207,210 0 0 1 511.16839,284.90381 207,210 0 0 1 220.63308,250.2586 207,210 0 0 1 254.37312,-44.535983"
       sodipodi:ry="210"
       sodipodi:rx="207"
       sodipodi:cy="120"
       sodipodi:cx="383"
       id="path15146"
       style="opacity:0.62753033;fill:url(#radialGradient14129);fill-opacity:1;fill-rule:evenodd;stroke:none;stroke-width:12;stroke-linecap:round;stroke-linejoin:round;marker-start:none;stroke-miterlimit:4;stroke-dasharray:none;stroke-opacity:1;display:inline"
       sodipodi:type="arc"
       transform="matrix(1.028021,0,0,1.031193,17.524263,15.505759)" />
    <path
       sodipodi:type="arc"
       style="fill:none;fill-opacity:1;fill-rule:evenodd;stroke:#b6cde2;stroke-width:12;stroke-linecap:round;stroke-linejoin:round;marker-start:none;stroke-miterlimit:4;stroke-dasharray:none;stroke-opacity:1"
       id="path8589"
       sodipodi:cx="383"
       sodipodi:cy="120"
       sodipodi:rx="207"
       sodipodi:ry="210"
       d="M 255.29113,-45.270318 A 207,210 0 0 1 545.72884,-9.7929405 207,210 0 0 1 511.16839,284.90381 207,210 0 0 1 220.63308,250.2586 207,210 0 0 1 254.37312,-44.535983"
       sodipodi:start="4.0475263"
       sodipodi:end="10.325064"
       sodipodi:open="true"
       transform="translate(27.455844,19.79899)" />
    <path
       sodipodi:open="true"
       sodipodi:end="10.325064"
       sodipodi:start="4.0475263"
       d="M 255.29113,-45.270318 A 207,210 0 0 1 545.72884,-9.7929405 207,210 0 0 1 511.16839,284.90381 207,210 0 0 1 220.63308,250.2586 207,210 0 0 1 254.37312,-44.535983"
       sodipodi:ry="210"
       sodipodi:rx="207"
       sodipodi:cy="120"
       sodipodi:cx="383"
       id="path8771"
       style="fill:none;fill-opacity:1;fill-rule:evenodd;stroke:#b6cde2;stroke-width:20;stroke-linecap:round;stroke-linejoin:round;marker-start:none;stroke-miterlimit:4;stroke-dasharray:none;stroke-opacity:1"
       sodipodi:type="arc"
       transform="matrix(0.6,0,0,0.6,177.45584,68.79899)" />
    <path
       style="fill:none;fill-opacity:1;fill-rule:evenodd;stroke:#b6cde2;stroke-width:12;stroke-linecap:butt;stroke-linejoin:miter;stroke-miterlimit:4;stroke-dasharray:none;stroke-opacity:1"
       d="M 263.45584,-6.2010091 L 558.45584,289.29899"
       id="path8781" />
    <path
       style="fill:none;fill-opacity:1;fill-rule:evenodd;stroke:#b6cde2;stroke-width:12;stroke-linecap:butt;stroke-linejoin:miter;stroke-miterlimit:4;stroke-dasharray:none;stroke-opacity:1"
       d="M 560.45584,-7.7010091 L 263.45584,287.79899"
       id="path9668" />
    <path
       style="fill:none;fill-opacity:1;fill-rule:evenodd;stroke:#b6cde2;stroke-width:12;stroke-linecap:butt;stroke-linejoin:miter;stroke-miterlimit:4;stroke-dasharray:none;stroke-opacity:1"
       d="M 409.45584,-70.20101 L 410.17738,351.79899"
       id="path10559" />
    <path
       style="fill:none;fill-opacity:1;fill-rule:evenodd;stroke:#b6cde2;stroke-width:12;stroke-linecap:butt;stroke-linejoin:miter;stroke-miterlimit:4;stroke-dasharray:none;stroke-opacity:1"
       d="M 208.45584,138.79899 L 619.45584,141.79899"
       id="path10561" />
  </g>
  <g
     inkscape:groupmode="layer"
     id="layer3"
     inkscape:label="Welt"
     style="display:inline"
     transform="translate(4.969921e-5,97.07894)">
    <path
       id="path14257"
       d="M 386.15746,301.90301 C 382.03535,301.56928 378.65746,299.40907 378.65746,297.10666 C 378.65746,296.38604 377.26532,294.21089 375.56382,292.27299 C 373.54613,289.97496 372.27432,287.26747 371.90702,284.48819 C 371.59727,282.14445 370.34145,278.63073 369.11631,276.67993 C 367.09935,273.46832 367.02203,272.87866 368.29839,270.44263 C 369.07369,268.96293 370.78783,267.48125 372.10761,267.15001 C 374.1829,266.62914 374.46069,266.05304 374.16301,262.8873 C 373.72159,258.19298 372.29019,254.49686 370.26164,252.81331 C 368.10549,251.02386 368.24209,249.08907 370.71175,246.4382 L 372.76603,244.23319 L 370.60096,242.48002 C 369.41017,241.51578 367.84107,240.72685 367.11406,240.72685 C 366.38706,240.72685 365.50502,239.82191 365.15398,238.71588 C 364.80294,237.60985 363.31011,236.08147 361.83659,235.31948 C 359.03171,233.86902 358.53476,233.72685 356.26967,233.72685 C 355.50639,233.72685 352.67556,232.26435 349.97895,230.47685 C 347.28233,228.68935 344.19434,226.73521 343.11673,226.13432 C 340.65132,224.75955 336.75497,217.03981 336.85437,213.72685 C 336.89562,212.35185 336.43633,210.00775 335.83371,208.51773 C 334.86548,206.1237 335.03981,205.57126 337.33261,203.76773 C 338.75962,202.64525 340.30493,201.72685 340.76664,201.72685 C 341.22834,201.72685 342.26543,200.45185 343.07127,198.89352 C 344.70862,195.72723 344.57311,195.77106 353.87098,195.40062 C 357.56342,195.25351 360.90092,194.81672 361.28765,194.43 C 361.67438,194.04327 363.68924,193.72685 365.76511,193.72685 C 369.53914,193.72685 371.58934,192.42082 369.67377,191.23693 C 368.04393,190.22963 368.48695,188.23636 370.98744,185.32636 C 373.09265,182.87637 373.57499,182.73215 375.98744,183.83134 C 377.45595,184.50044 378.65746,185.48075 378.65746,186.00981 C 378.65746,186.53887 379.36139,186.38753 380.22175,185.6735 C 381.1683,184.88793 381.57039,183.51606 381.23995,182.19951 C 380.50775,179.28219 381.34209,178.66914 384.51028,179.79652 C 387.04616,180.69891 387.07337,180.67286 385.15746,179.17697 C 384.05746,178.31812 383.2772,177.01987 383.42355,176.29198 C 383.5699,175.56408 382.7565,174.72451 381.616,174.42626 C 379.82351,173.95751 379.71001,173.61557 380.77885,171.90409 C 381.60306,170.58432 382.7892,170.06452 384.33639,170.34507 C 385.93083,170.6342 386.65746,170.29025 386.65746,169.24641 C 386.65746,168.3949 387.53433,167.72685 388.65202,167.72685 C 390.39738,167.72685 390.57123,168.19536 390.04351,171.47685 C 388.97618,178.11387 388.91605,179.72685 389.73596,179.72685 C 390.17786,179.72685 390.80045,179.30451 391.11947,178.78832 C 391.4385,178.27212 392.59005,178.02129 393.67849,178.2309 C 394.88053,178.46239 395.65746,178.06884 395.65746,177.22845 C 395.65746,175.18725 397.74564,174.25681 398.75395,175.84873 C 399.4579,176.96013 399.6298,176.91073 399.64215,175.59348 C 399.65057,174.69513 398.69901,173.70947 397.52758,173.40314 C 396.05285,173.01749 395.59145,172.34125 396.02758,171.20472 C 396.37401,170.30192 396.65746,168.92508 396.65746,168.14506 C 396.65746,167.36505 397.54927,166.72685 398.63927,166.72685 C 399.72926,166.72685 402.24445,165.15034 404.22858,163.22349 C 409.24822,158.34875 411.83058,157.91387 416.68428,161.1259 C 419.93341,163.27607 420.65746,163.45979 420.65746,162.13405 C 420.65746,161.12917 421.20833,160.72426 422.10653,161.06893 C 423.12405,161.45939 423.37125,161.14458 422.93659,160.01188 C 422.54219,158.98407 422.71701,158.64562 423.41841,159.07911 C 424.02386,159.4533 425.7077,158.65802 427.16028,157.31182 C 429.37832,155.25621 429.624,154.53285 428.69421,152.79551 C 427.67483,150.89079 427.82631,150.33953 429.19393,150.97685 C 430.51904,151.59436 431.2051,148.36361 430.67659,143.99475 C 430.25343,140.49675 429.70797,139.31563 428.62863,139.56018 C 427.81949,139.74352 426.73419,139.96852 426.21685,140.06018 C 425.69951,140.15185 425.08821,139.32685 424.8584,138.22685 C 424.62859,137.12685 424.74824,136.52322 425.12429,136.88546 C 425.50033,137.24769 427.23663,137.1058 428.98273,136.57014 C 430.72883,136.03449 432.60746,135.50046 433.15746,135.38342 C 435.51507,134.8817 436.35852,133.61385 435.90677,131.25072 C 435.55504,129.41076 435.85385,128.72685 437.0095,128.72685 C 438.00772,128.72685 438.38155,128.17142 438.01909,127.22685 C 437.3629,125.51686 433.65746,125.16288 433.65746,126.81018 C 433.65746,129.22429 431.28513,126.90118 430.96026,124.16895 C 430.70966,122.06131 430.87806,121.63233 431.55398,122.65648 C 432.07293,123.44277 433.13894,124.18024 433.92289,124.2953 C 435.05891,124.46203 435.19716,123.67823 434.60392,120.43408 C 434.19454,118.19535 434.04801,115.87266 434.2783,115.27255 C 434.50859,114.67243 433.3356,113.37722 431.67167,112.39431 C 427.96839,110.20674 424.00737,102.75762 425.90629,101.5519 C 427.74375,100.38521 428.3726,100.54214 429.0623,102.33947 C 429.5838,103.69847 429.93277,103.74325 431.28116,102.62419 C 433.00959,101.18972 439.55921,101.31282 441.10746,102.80888 C 442.35818,104.01743 445.65746,103.99081 445.65746,102.77216 C 445.65746,101.6201 451.46407,100.4217 454.77647,100.89013 L 457.15746,101.22685 L 454.39486,104.03491 C 452.25023,106.21482 450.96504,106.73781 448.64951,106.37288 C 447.00899,106.11433 445.40857,106.32054 445.09301,106.83113 C 444.77745,107.34172 443.98786,107.44075 443.33836,107.0512 C 442.68887,106.66165 442.80102,107.1356 443.5876,108.10441 C 444.38078,109.08135 445.8273,109.65419 446.83539,109.39057 C 448.15403,109.04574 449.1032,109.86393 450.29285,112.37093 C 451.28005,114.45128 453.4206,116.58569 455.67125,117.73388 C 459.97282,119.92838 460.91226,119.52722 459.59362,116.05893 C 458.37362,112.8501 458.25359,113.12432 461.40746,111.91522 C 467.93437,109.41299 468.90489,109.3719 468.18879,111.62813 C 467.79623,112.86498 467.96102,113.72685 468.59007,113.72685 C 470.61404,113.72685 471.16687,113.91469 473.90746,115.5336 C 475.41996,116.42706 476.65746,117.92808 476.65746,118.86922 C 476.65746,119.81035 478.00746,121.25384 479.65746,122.07696 C 481.30746,122.90009 482.65746,123.18838 482.65746,122.71759 C 482.65746,121.21144 486.70128,120.51833 488.20545,121.76668 C 490.17208,123.39884 490.10707,126.11336 488.11961,125.3507 C 487.24454,125.0149 486.33646,125.39978 486.01262,126.24371 C 485.69959,127.05944 484.84672,127.72685 484.11735,127.72685 C 483.27275,127.72685 482.82431,128.89056 482.88235,130.9317 C 482.97171,134.07464 483.00147,134.09438 484.4229,131.9536 L 485.87233,129.77064 L 487.6346,131.94695 L 489.39687,134.12326 L 490.05952,132.03545 C 491.05516,128.89846 495.03422,128.61883 499.12471,131.39839 C 503.30772,134.24081 505.47111,138.08816 506.30421,144.16629 C 506.64148,146.62694 507.35081,148.54719 507.8805,148.43352 C 509.15716,148.15956 511.27899,151.43865 510.39626,152.32139 C 510.0165,152.70114 509.09101,152.50163 508.33962,151.87803 C 506.01613,149.94971 504.73784,152.72513 506.59656,155.66255 C 507.34946,156.85239 507.77495,156.87423 509.08124,155.7901 C 509.94816,155.07062 510.65746,154.76206 510.65746,155.10441 C 510.65746,155.44675 511.52274,154.86157 512.5803,153.80401 C 516.18174,150.20257 519.30641,152.47868 521.05446,159.97685 C 521.53808,162.05132 521.32241,162.72685 520.17651,162.72685 C 519.34103,162.72685 518.65746,163.17685 518.65746,163.72685 C 518.65746,164.27685 518.08247,164.72685 517.3797,164.72685 C 516.67693,164.72685 515.31448,165.64654 514.35203,166.7706 C 512.81895,168.5611 512.78278,168.99503 514.0601,170.27235 C 515.73357,171.94582 520.17798,170.76483 522.10034,168.13586 C 523.1594,166.68751 527.62555,165.45923 532.40746,165.3012 C 533.64496,165.26031 534.65746,164.65023 534.65746,163.94547 C 534.65746,163.2407 535.30405,162.41596 536.09432,162.11271 C 536.92137,161.79534 537.27365,160.89024 536.92438,159.98005 C 536.51655,158.91727 536.70991,158.64123 537.51404,159.13821 C 538.17209,159.54491 538.58607,160.58455 538.43398,161.44851 C 538.28189,162.31248 538.70091,163.2097 539.36512,163.44233 C 540.65347,163.89355 543.65746,157.72273 543.65746,154.62496 C 543.65746,152.05768 546.68188,144.72685 547.74104,144.72685 C 548.76109,144.72685 548.09332,149.24006 546.03952,156.22685 C 543.76281,163.97195 542.50413,166.75012 541.5414,166.15512 C 541.05523,165.85465 540.65746,166.2221 540.65746,166.97167 C 540.65746,169.66797 533.30301,175.46257 527.65746,177.21441 C 525.56349,177.86419 521.65746,180.18564 521.65746,180.78038 C 521.65746,181.18325 520.98246,181.77189 520.15746,182.08848 C 517.36955,183.1583 518.57232,179.5433 522.11639,176.20082 C 525.23819,173.25658 525.38438,172.8887 523.61639,172.42636 C 522.53898,172.14461 521.65746,172.39696 521.65746,172.98714 C 521.65746,173.57731 521.36136,173.76409 520.99947,173.40219 C 520.63757,173.0403 519.75499,173.23094 519.03817,173.82585 C 518.09745,174.60658 516.68083,174.5501 513.94616,173.62282 C 507.73338,171.51617 505.65746,171.69134 505.65746,174.32226 C 505.65746,176.80857 504.064,178.44646 503.44672,176.59464 C 503.165,175.74948 502.14435,175.78294 499.54608,176.72249 C 495.0196,178.35928 493.55114,181.70965 493.14009,191.33803 C 492.76858,200.03998 494.10543,202.34993 499.60353,202.50625 C 503.48109,202.6165 504.1134,203.09632 503.27168,205.28979 C 502.81995,206.46699 501.93744,206.76295 500.18815,206.32391 C 498.34938,205.86241 497.46368,206.22041 496.64095,207.75771 C 495.71584,209.48628 494.90925,209.71185 491.48151,209.20061 C 489.24691,208.86732 486.68485,208.22932 485.78803,207.78282 C 480.75768,205.27839 476.65746,203.86997 476.65746,204.6465 C 476.65746,205.13452 474.29496,205.45569 471.40746,205.36022 C 467.10373,205.21793 465.36524,205.71261 461.76211,208.10479 C 459.3192,209.72668 456.10642,210.98711 454.52948,210.94227 C 452.96898,210.89791 451.43283,211.28128 451.11582,211.79423 C 450.34363,213.04365 443.93777,212.98942 443.15746,211.72685 C 442.36178,210.43941 440.65746,210.43026 440.65746,211.71343 C 440.65746,212.25605 442.30717,213.3893 444.32348,214.23177 C 447.7352,215.65728 448.13407,215.63273 450.07348,213.87794 C 451.6197,212.47891 453.14805,212.11801 455.99628,212.47937 C 459.80805,212.96297 459.83036,212.99198 459.16167,216.59663 C 458.79128,218.59325 457.73881,221.08804 456.82285,222.1406 C 452.25703,227.38733 447.96305,231.17261 443.37367,233.99649 C 436.98605,237.92683 438.80706,238.72061 446.3203,235.28093 C 450.59202,233.32527 452.19737,232.98241 452.76699,233.90407 C 453.18417,234.57908 453.37579,235.37784 453.19281,235.6791 C 453.00983,235.98036 452.35588,238.10705 451.73957,240.40507 C 450.89319,243.56101 448.55691,246.66875 442.19085,253.10688 L 433.76267,261.63047 L 435.28331,264.67866 C 436.11966,266.35517 437.19983,267.72685 437.6837,267.72685 C 438.63518,267.72685 440.82889,274.64045 440.20019,275.65771 C 439.98993,275.99791 436.87905,277.7988 433.28712,279.65968 C 427.73548,282.53582 426.89885,283.30938 427.7069,284.81923 C 428.22971,285.7961 428.65746,287.06339 428.65746,287.63543 C 428.65746,288.9379 423.13492,291.87098 422.28424,291.0203 C 421.93951,290.67557 421.65746,291.34308 421.65746,292.50365 C 421.65746,293.78776 420.4831,295.30749 418.65746,296.38592 C 417.00746,297.3606 415.65746,298.58604 415.65746,299.10912 C 415.65746,299.63221 415.35588,299.7586 414.98729,299.39001 C 414.61869,299.02141 413.15619,299.50891 411.73729,300.47334 C 409.72574,301.84059 407.06483,302.22685 399.65746,302.22685 C 394.43246,302.22685 388.35746,302.08112 386.15746,301.90301 z M 425.1314,272.59154 C 424.57114,269.68233 423.65746,268.93969 423.65746,271.39352 C 423.65746,273.14137 424.42289,274.72685 425.26671,274.72685 C 425.41846,274.72685 425.35757,273.76596 425.1314,272.59154 z M 412.26163,261.99768 C 411.92934,261.66539 411.69299,262.25602 411.73641,263.31018 C 411.78439,264.47513 412.02135,264.71208 412.34057,263.91435 C 412.62944,263.19247 412.59392,262.32997 412.26163,261.99768 z M 421.15746,257.72685 C 421.49738,257.17685 420.84894,256.72685 419.71648,256.72685 C 418.58402,256.72685 417.65746,257.17685 417.65746,257.72685 C 417.65746,259.02521 420.35503,259.02521 421.15746,257.72685 z M 428.68671,225.57535 C 420.20179,217.23734 417.11792,215.73261 422.53691,222.57464 C 424.25321,224.74165 425.65746,226.91239 425.65746,227.39851 C 425.65746,228.33126 429.80309,232.19223 430.65746,232.05519 C 430.93246,232.01108 432.2717,232.85145 433.63354,233.92268 C 435.2196,235.17027 436.24503,235.46414 436.48633,234.74024 C 436.69352,234.11867 433.18369,229.99447 428.68671,225.57535 z M 416.90185,212.50101 C 419.10845,213.07805 420.61926,211.29073 420.64215,208.07615 C 420.65602,206.12756 420.23142,205.96525 416.12404,206.34895 C 411.93519,206.74027 411.46014,206.54318 409.87404,203.75598 C 408.16346,200.75003 404.94235,199.42091 405.99103,202.15374 C 406.29218,202.93852 405.93307,204.08315 405.19301,204.69734 C 404.13934,205.57181 403.50145,205.12049 402.25246,202.61682 C 401.37521,200.85833 400.64324,198.92621 400.62586,198.32321 C 400.59291,197.17993 396.13789,191.72685 395.23681,191.72685 C 394.35213,191.72685 395.97188,195.13575 397.78349,197.08654 C 399.64056,199.08628 399.27086,201.72685 397.1338,201.72685 C 396.41348,201.72685 395.63481,202.28935 395.40341,202.97685 C 395.07542,203.95136 394.61627,203.92437 393.32008,202.85441 C 391.02472,200.95965 391.22153,199.42318 393.59677,200.69437 C 396.43756,202.21471 397.34645,200.0174 394.84194,197.68409 C 393.72641,196.64482 392.52323,194.87928 392.1682,193.76068 C 391.20251,190.71808 382.77011,190.40994 379.57604,193.30053 C 378.19019,194.55471 376.80418,194.7929 373.94745,194.26783 C 371.11056,193.7464 370.43814,193.8589 371.2736,194.71518 C 371.88748,195.34435 373.91248,196.10492 375.7736,196.40532 C 377.63472,196.70573 379.60746,197.03802 380.15746,197.14375 C 380.70746,197.24948 382.73246,198.16866 384.65746,199.18638 C 386.58246,200.20409 388.38246,201.07954 388.65746,201.13181 C 388.93246,201.18408 389.09111,202.46435 389.01001,203.97685 C 388.92892,205.48935 389.26642,206.72685 389.76001,206.72685 C 390.25361,206.72685 391.5234,207.59279 392.58177,208.65116 C 396.00319,212.07258 398.29465,212.86894 399.7326,211.13631 C 401.05672,209.54084 401.39846,209.57869 408.15746,212.06942 C 410.35746,212.88013 412.78387,213.19355 413.54949,212.76591 C 414.31511,212.33826 415.82367,212.21906 416.90185,212.50101 z M 387.6929,198.09929 C 387.71238,197.61945 388.37144,196.10185 389.15746,194.72685 C 390.50364,192.37196 390.58865,192.35034 390.62202,194.35441 C 390.64151,195.52456 389.98246,197.04216 389.15746,197.72685 C 388.33246,198.41154 387.67341,198.57914 387.6929,198.09929 z M 441.63522,199.46565 C 441.60387,197.71866 438.64721,194.28677 435.40746,192.23686 C 432.1698,190.18827 431.69505,191.76444 434.65746,194.72685 C 435.75746,195.82685 436.65746,197.5287 436.65746,198.50874 C 436.65746,199.68759 437.50354,200.36066 439.15746,200.49754 C 440.59924,200.61687 441.64805,200.18008 441.63522,199.46565 z M 416.24779,198.73652 C 416.83421,198.1501 418.44521,198.07264 420.19779,198.54661 C 423.30573,199.38712 426.66187,199.05267 426.65114,197.90353 C 426.64766,197.53135 425.26851,196.44355 423.58635,195.48618 C 421.73048,194.42994 420.81072,193.28789 421.24719,192.58167 C 421.69847,191.85148 421.53023,191.68745 420.79566,192.14144 C 420.15171,192.53942 419.85459,193.2368 420.1354,193.69116 C 421.12319,195.28943 417.4902,195.70245 415.95425,194.1665 C 414.54811,192.76036 414.23545,192.88001 412.68027,195.41937 C 411.48567,197.36998 411.2961,198.45108 412.05918,198.96154 C 413.58616,199.983 415.08165,199.90266 416.24779,198.73652 z M 405.65746,178.25117 C 405.65746,177.50446 406.14904,176.72966 406.74987,176.52938 C 407.90002,176.146 408.65822,168.72685 407.54724,168.72685 C 406.41124,168.72685 404.65073,171.38679 405.33431,172.07037 C 406.41132,173.14738 403.5058,177.63781 401.24735,178.38671 C 399.24973,179.04912 399.26784,179.10912 401.65746,179.74576 C 404.58622,180.52603 405.65746,180.12576 405.65746,178.25117 z M 410.65746,166.66783 C 410.65746,166.08537 410.20746,165.88693 409.65746,166.22685 C 408.37608,167.01879 408.37608,167.72685 409.65746,167.72685 C 410.20746,167.72685 410.65746,167.25029 410.65746,166.66783 z M 419.65746,166.23649 C 419.65746,166.08448 418.79113,165.73356 417.73228,165.45667 C 416.41796,165.11297 415.96827,165.37323 416.31504,166.27689 C 416.72089,167.33453 419.65746,167.29904 419.65746,166.23649 z M 465.84496,113.04374 C 465.12308,112.75487 464.26058,112.79039 463.92829,113.12268 C 463.596,113.45498 464.18663,113.69132 465.24079,113.6479 C 466.40574,113.59992 466.64269,113.36296 465.84496,113.04374 z M 450.15378,284.72279 C 448.67367,283.08728 448.54373,282.27188 449.44722,280.28893 C 450.23644,278.55679 450.24389,277.75566 449.47319,277.49876 C 447.71314,276.91208 449.55474,272.89423 451.92911,272.14063 C 453.12225,271.76194 455.55126,269.82643 457.32691,267.83948 C 460.23856,264.58136 460.70805,264.37802 462.11119,265.76734 C 463.43634,267.07943 463.50156,268.19145 462.55112,273.26734 C 460.60401,283.66593 460.2844,284.31265 456.42806,285.65697 C 452.37855,287.06864 452.2609,287.05112 450.15378,284.72279 z M 532.65746,280.72685 C 532.65746,280.17685 533.10746,279.72685 533.65746,279.72685 C 534.20746,279.72685 534.65746,280.17685 534.65746,280.72685 C 534.65746,281.27685 534.20746,281.72685 533.65746,281.72685 C 533.10746,281.72685 532.65746,281.27685 532.65746,280.72685 z M 243.65746,244.72685 C 243.65746,243.44547 244.36552,243.44547 245.15746,244.72685 C 245.49738,245.27685 245.29894,245.72685 244.71648,245.72685 C 244.13402,245.72685 243.65746,245.27685 243.65746,244.72685 z M 232.32413,213.06018 C 231.95746,212.69352 231.68598,211.45602 231.72085,210.31018 C 231.77913,208.39459 231.86137,208.4197 232.74233,210.62203 C 233.72164,213.07025 233.5185,214.25456 232.32413,213.06018 z M 352.22175,191.01998 C 351.67907,189.59478 351.79393,189.47992 352.78155,190.46018 C 353.46497,191.13852 353.77222,191.94542 353.46433,192.25331 C 353.15644,192.5612 352.59728,192.0062 352.22175,191.01998 z M 285.83467,187.03465 C 282.41186,184.42149 281.12433,183.94181 279.65041,184.73062 C 278.6266,185.27855 276.85042,185.72685 275.70333,185.72685 C 272.7015,185.72685 265.66576,181.01242 265.61103,178.96431 C 265.52529,175.75572 259.2096,165.2632 257.13927,164.8898 C 252.55994,164.0639 244.26068,153.25678 243.14796,146.67059 C 242.78071,144.49686 242.08987,142.9596 241.61278,143.25447 C 240.01689,144.24078 237.53504,138.94086 236.9533,133.30431 C 236.63669,130.23671 236.04309,127.72685 235.63419,127.72685 C 234.35041,127.72685 233.82574,123.9146 234.62301,120.37961 C 235.28631,117.43859 235.15426,117.04568 233.63597,117.44272 C 231.5479,117.98876 230.50891,116.528 229.59463,111.76082 L 228.91686,108.22685 L 228.158,111.49766 C 227.15579,115.81732 225.65746,116.62458 225.65746,112.84488 C 225.65746,111.19488 225.20746,109.56677 224.65746,109.22685 C 224.10746,108.88693 223.65746,107.42552 223.65746,105.97927 C 223.65746,103.36439 223.64706,103.36089 221.79272,105.35129 C 220.76712,106.45214 219.40129,108.337 218.75754,109.53985 C 218.11379,110.7427 217.22178,111.72685 216.77529,111.72685 C 215.88984,111.72685 216.23856,103.22122 217.22515,100.75433 C 217.56113,99.914222 218.03955,98.159772 218.28829,96.855572 C 218.98603,93.197232 222.25917,87.384602 224.51675,85.794702 C 225.63522,85.007012 226.32607,83.999662 226.05196,83.556152 C 225.77785,83.112632 226.25196,83.017752 227.10552,83.345292 C 227.95909,83.672842 228.65746,83.442682 228.65746,82.833842 C 228.65746,82.224992 229.33246,81.726852 230.15746,81.726852 C 231.12344,81.726852 231.66291,82.705882 231.67277,84.476852 C 231.68478,86.633002 231.90072,86.902932 232.67277,85.726852 C 233.54805,84.393522 233.77002,84.393522 234.67046,85.726852 C 235.22762,86.551852 235.49907,87.997802 235.2737,88.940082 C 235.04833,89.882362 235.52077,91.198442 236.32358,91.864712 C 237.56089,92.891602 237.68097,92.668722 237.11193,90.401482 C 236.32252,87.256192 237.64212,86.871382 239.42539,89.726852 C 240.11235,90.826852 241.4952,91.726852 242.49839,91.726852 C 243.50158,91.726852 245.41027,93.379912 246.73992,95.400322 C 248.06957,97.420742 249.94236,99.180542 250.90168,99.310992 C 251.861,99.441452 254.90526,100.93838 257.6667,102.63752 C 265.65013,107.54977 268.13368,106.78431 272.5189,98.059902 C 274.15977,94.795392 275.79587,93.333542 280.07349,91.309902 C 283.07656,89.889222 285.99395,88.726852 286.55658,88.726852 C 287.11921,88.726852 288.45615,87.785932 289.52756,86.635912 L 291.47557,84.544962 L 293.56652,86.635912 C 294.71654,87.785932 295.88967,88.614352 296.17347,88.476852 C 297.03475,88.059572 300.64382,94.105052 300.65087,95.976852 C 300.65449,96.939352 301.33246,97.783102 302.15746,97.851852 C 302.98246,97.920602 304.21996,98.043812 304.90746,98.125662 C 306.78198,98.348822 308.72886,96.076502 308.08986,94.411302 C 307.42621,92.681832 314.59566,84.815462 316.28957,85.414532 C 316.91223,85.634752 319.16223,84.108082 321.28957,82.021942 C 323.41691,79.935792 326.50746,77.549252 328.15746,76.718512 C 329.80746,75.887762 331.15746,74.730152 331.15746,74.146032 C 331.15746,72.475062 334.06487,69.985672 339.21395,67.247872 C 343.96114,64.723762 346.73665,64.139372 347.99605,65.398772 C 348.3656,65.768332 351.81987,66.204782 355.6722,66.368662 C 359.52452,66.532552 363.62423,67.173882 364.78265,67.793852 C 366.41939,68.669812 366.79527,68.640272 366.46895,67.661332 C 366.238,66.968482 365.1999,66.276972 364.16207,66.124652 C 363.12423,65.972332 361.12363,65.524162 359.71628,65.128722 C 358.30893,64.733292 356.70746,64.368602 356.15746,64.318302 C 355.60746,64.268002 355.15746,63.776852 355.15746,63.226852 C 355.15746,62.348142 356.59505,62.281872 362.65746,62.881092 C 363.48246,62.962642 364.38246,63.298792 364.65746,63.628102 C 365.73433,64.917652 372.30783,66.932962 375.03,66.808132 C 378.9914,66.626482 383.93804,70.664932 386.54348,76.207752 C 387.75751,78.790502 389.68962,81.168782 390.96896,81.655182 C 392.21784,82.130012 393.84719,83.250542 394.58974,84.145252 C 395.35778,85.070682 396.70643,85.528702 397.71799,85.207642 C 398.88827,84.836212 399.69422,85.267312 400.07552,86.468692 C 400.39418,87.472682 401.89297,89.004162 403.40618,89.871992 C 406.74206,91.785132 412.65746,93.015032 412.65746,91.795472 C 412.65746,91.310712 413.52697,91.141472 414.58971,91.419382 C 416.16787,91.832082 416.41777,91.526292 415.95343,89.750632 C 415.55514,88.227592 415.80001,87.661912 416.77118,87.861522 C 417.53363,88.018242 419.2085,87.565592 420.49311,86.855632 C 423.46673,85.212222 424.80788,86.412482 422.16076,88.348102 C 420.0683,89.878142 420.09698,89.930252 424.49882,92.596222 C 425.61155,93.270142 425.58014,94.160132 424.31456,97.817732 C 423.47548,100.24275 422.27545,102.10305 421.64784,101.95173 C 420.93599,101.7801 420.74232,102.41885 421.13298,103.64974 C 421.61046,105.15414 421.04797,105.99067 418.7651,107.17119 C 417.11832,108.02277 415.52979,108.32929 415.23502,107.85235 C 414.13573,106.07366 408.37216,105.68377 406.01445,107.2286 C 404.74088,108.06307 402.58921,108.83766 401.23297,108.94991 C 399.34593,109.10609 399.0177,109.45598 399.83471,110.44042 C 401.09544,111.95951 402.04657,112.16546 401.15746,110.72685 C 400.81754,110.17685 401.00015,109.72685 401.56326,109.72685 C 402.86408,109.72685 404.79613,113.25485 403.95561,114.09537 C 403.60829,114.44268 402.27413,114.72685 400.99079,114.72685 C 399.46138,114.72685 398.65746,115.31256 398.65746,116.42685 C 398.65746,117.74907 398.39079,117.86018 397.45746,116.92685 C 396.79746,116.26685 395.48046,115.72685 394.53078,115.72685 C 393.58111,115.72685 392.57552,114.93935 392.29614,113.97685 C 392.00275,112.9661 391.86617,113.28292 391.97282,114.72685 C 392.10022,116.4519 392.67537,117.1414 393.82826,116.9512 C 394.7472,116.79959 396.61984,117.71426 397.98969,118.98378 C 399.9419,120.79303 400.26347,121.67949 399.47722,123.08444 C 398.92552,124.07027 398.69929,125.10202 398.97449,125.37721 C 399.24969,125.65241 399.77126,124.94366 400.13354,123.80221 C 401.72222,118.79674 405.173,124.58018 404.35174,130.87181 C 404.05733,133.12723 404.37867,135.03334 405.19466,135.87181 C 406.81053,137.53221 405.97387,142.72685 404.09057,142.72685 C 403.35702,142.72685 402.39698,143.28935 401.95715,143.97685 C 401.51732,144.66435 398.81221,146.4063 395.94579,147.84785 C 391.23346,150.21772 390.53332,150.3282 388.63839,149.00094 C 387.48574,148.19359 386.00599,147.45149 385.35006,147.35182 C 384.69413,147.25215 383.51492,146.76974 382.72958,146.27978 C 381.94425,145.78982 379.82025,145.32848 378.00958,145.25457 C 373.793,145.08245 373.32766,144.54479 374.73048,141.46594 C 376.01798,138.64018 378.94388,136.77311 382.71465,136.37108 C 384.10473,136.22287 385.70456,135.81577 386.26983,135.46642 C 386.83511,135.11706 388.61274,134.59274 390.22012,134.30127 C 391.82751,134.00979 393.29865,133.30327 393.48934,132.73122 C 393.68002,132.15918 394.51853,131.00864 395.35269,130.17448 C 396.60084,128.92633 397.15217,128.88523 398.46684,129.94233 C 399.53237,130.79912 399.41385,130.34543 398.11089,128.57988 C 397.0365,127.12405 395.85105,126.11889 395.47656,126.34619 C 395.10206,126.5735 394.51087,126.29868 394.1628,125.73549 C 393.74789,125.06416 393.04727,125.14464 392.12841,125.96918 C 388.91572,128.85209 387.96024,129.43404 385.37386,130.08318 C 383.87984,130.45816 382.65746,131.19724 382.65746,131.72559 C 382.65746,132.25393 381.19496,131.86918 379.40746,130.87058 C 375.56083,128.72163 375.45645,128.06914 378.36732,124.36858 C 380.58772,121.54579 382.65746,121.54035 382.65746,124.3573 C 382.65746,125.65333 382.89286,125.63431 384.30278,124.22439 C 385.48282,123.04435 386.15043,122.90647 386.66361,123.73681 C 387.14937,124.52278 387.60135,124.31546 388.07115,123.09118 C 388.45176,122.09933 388.4378,121.61317 388.04014,122.01084 C 387.64247,122.4085 386.29227,122.06236 385.03968,121.24164 C 383.7871,120.42091 382.05857,120.01943 381.19852,120.34947 C 380.00536,120.80732 379.79792,120.50842 380.32318,119.08819 C 380.7018,118.06445 381.43262,116.94394 381.94723,116.59817 C 383.33624,115.66488 380.4609,110.31268 378.35236,109.90661 C 377.36793,109.71703 374.96513,110.78027 373.01281,112.26938 C 371.06049,113.75849 368.31331,114.97685 366.90797,114.97685 C 364.5813,114.97685 364.52292,115.07096 366.25513,116.02926 C 367.30141,116.60808 368.6303,117.71633 369.20822,118.49203 C 369.78614,119.26773 372.07466,119.97539 374.29381,120.06462 C 377.78611,120.20504 378.26409,120.49577 377.84861,122.22685 C 377.08692,125.40045 375.60913,126.72685 372.83502,126.72685 C 370.83025,126.72685 370.52413,126.99352 371.45746,127.92685 C 373.18755,129.65694 372.94683,130.50023 370.50133,131.2764 C 369.31547,131.65278 367.33545,133.05028 366.10129,134.38196 C 364.86714,135.71363 362.90458,136.98668 361.74006,137.21094 C 360.57554,137.43521 358.89017,138.35128 357.99479,139.24666 C 355.99745,141.244 354.74175,139.73677 355.42507,136.1622 C 355.93449,133.49733 357.55369,133.02825 359.51671,134.97685 C 360.52697,135.97969 360.63468,135.8314 360.06147,134.22685 C 359.66851,133.12685 358.85435,131.57797 358.25223,130.78489 C 357.42255,129.6921 357.46014,129.52478 358.40746,130.09391 C 359.26965,130.61189 359.63297,130.12851 359.57851,128.53587 C 359.53509,127.26591 359.27259,126.78935 358.99518,127.47685 C 358.71777,128.16435 357.62829,128.72685 356.57413,128.72685 C 355.32413,128.72685 354.65746,129.4225 354.65746,130.72685 C 354.65746,133.50555 353.20587,133.22589 351.81798,130.1798 C 350.4483,127.1737 350.31424,125.39669 351.513,126.13757 C 351.98355,126.42839 352.16389,125.59575 351.91376,124.28727 C 351.66363,122.97878 350.60363,121.68453 349.55822,121.41115 C 348.36276,121.09853 347.65746,120.0317 347.65746,118.53608 C 347.65746,116.96885 346.66198,115.57002 344.73776,114.43336 C 342.8577,113.32278 341.31669,111.19855 340.41004,108.46775 C 339.08349,104.47222 338.76062,104.20906 334.82974,103.91935 C 332.24101,103.72856 330.65746,104.03562 330.65746,104.72837 C 330.65746,105.34245 331.10746,105.56677 331.65746,105.22685 C 332.20746,104.88693 332.65746,105.06954 332.65746,105.63265 C 332.65746,106.98507 329.31696,108.72685 326.7232,108.72685 C 325.58704,108.72685 324.65746,108.19084 324.65746,107.53572 C 324.65746,106.8806 324.05483,107.16873 323.31829,108.17602 C 322.04778,109.91354 321.94435,109.91684 321.30103,108.2404 C 320.60017,106.41399 321.87044,104.18785 324.90746,101.92015 C 325.86996,101.20146 326.65746,99.794062 326.65746,98.792592 C 326.65746,96.815542 329.33162,94.067672 330.3067,95.042762 C 330.63721,95.373262 330.04012,97.397042 328.97985,99.540052 C 327.15557,103.22724 327.14885,103.41111 328.85477,102.965 C 329.84625,102.70572 330.65746,101.87107 330.65746,101.11022 C 330.65746,99.804422 332.96754,99.273782 336.90746,99.674552 C 337.86996,99.772462 338.65746,99.197432 338.65746,98.396702 C 338.65746,97.595972 339.33246,96.681812 340.15746,96.365222 C 341.00973,96.038182 341.65746,94.547532 341.65746,92.913222 C 341.65746,91.306822 342.5405,89.237682 343.65746,88.226852 C 344.75746,87.231362 345.65746,85.445812 345.65746,84.258952 C 345.65746,81.743762 340.92536,76.856192 337.93205,76.279732 C 334.83737,75.683752 331.35663,79.382222 331.98187,82.602112 C 332.61588,85.867102 331.72023,90.726852 330.48449,90.726852 C 329.97686,90.726852 328.53622,89.534862 327.28306,88.077982 L 325.0046,85.429102 L 322.74947,89.077982 C 320.30508,93.033082 319.15711,93.420442 316.29812,91.254852 C 313.94398,89.471662 310.65746,91.213802 310.65746,94.244892 C 310.65746,95.365212 309.92864,97.322372 309.03786,98.594142 C 307.74459,100.44054 307.64384,101.40155 308.53786,103.3637 C 310.09929,106.79067 309.93399,111.14086 308.07634,115.50897 C 306.18154,119.96447 305.80601,121.65204 305.43823,127.36444 C 305.2838,129.76288 304.86441,131.7256 304.50624,131.72605 C 302.60768,131.72839 299.52222,139.52345 299.25001,145.00529 C 299.03705,149.29407 298.48788,151.24224 297.30535,151.90402 C 296.39901,152.41124 295.65746,153.61387 295.65746,154.57654 C 295.65746,155.53921 295.15263,156.83168 294.53562,157.44869 C 293.16865,158.81566 293.11259,168.44269 294.40881,179.22685 C 295.86674,191.35644 293.87326,193.17175 285.83467,187.03465 z M 390.15038,119.7383 C 390.50072,119.17144 390.09932,119.0038 389.2094,119.34529 C 387.47698,120.01008 387.16001,120.72685 388.59844,120.72685 C 389.11598,120.72685 389.81436,120.282 390.15038,119.7383 z M 357.65746,109.16783 C 357.65746,108.92529 356.9559,108.72685 356.09844,108.72685 C 355.24098,108.72685 354.82208,109.18419 355.16754,109.74316 C 355.73835,110.66674 357.65746,110.22331 357.65746,109.16783 z M 363.57851,104.97685 C 363.53352,103.40946 363.26075,102.87191 362.94424,103.72685 C 362.63881,104.55185 361.94424,105.78935 361.40074,106.47685 C 360.69526,107.36926 360.8767,107.72685 362.03502,107.72685 C 363.15743,107.72685 363.63313,106.87931 363.57851,104.97685 z M 358.15746,104.72685 C 357.16197,103.62685 355.91738,102.72685 355.39169,102.72685 C 354.866,102.72685 355.49824,103.61188 356.79668,104.69358 C 359.85252,107.23935 360.44434,107.25382 358.15746,104.72685 z M 399.15746,86.726852 C 398.36552,85.445472 397.65746,85.445472 397.65746,86.726852 C 397.65746,87.276852 398.13402,87.726852 398.71648,87.726852 C 399.29894,87.726852 399.49738,87.276852 399.15746,86.726852 z M 387.18223,157.36862 C 385.97282,156.48428 385.6257,155.40229 386.08606,153.95181 C 386.75387,151.84773 386.77682,151.84621 388.70861,153.778 C 391.87649,156.94588 390.62623,159.88694 387.18223,157.36862 z M 423.90746,157.00661 C 422.37909,156.46077 422.22623,149.1114 423.72399,148.18573 C 425.44103,147.12454 425.79013,148.2477 424.66394,151.2098 C 423.90343,153.2101 423.93496,154.35629 424.77847,155.37265 C 426.10592,156.97213 425.73887,157.66069 423.90746,157.00661 z M 532.52984,156.88837 C 532.12844,154.80779 531.64534,151.97627 531.39328,150.22685 C 531.23479,149.12685 530.11207,146.04952 528.89836,143.38834 C 526.9298,139.07207 526.85469,138.38677 528.20242,137.03903 C 529.27818,135.96327 530.07479,135.82831 530.96888,136.57034 C 531.71959,137.19338 532.79357,137.26076 533.63958,136.7379 C 534.61733,136.13362 535.76584,136.63077 537.35604,138.34662 C 538.62182,139.71242 539.65746,140.56397 539.65746,140.23895 C 539.65746,139.91392 540.28289,140.22824 541.0473,140.93742 C 541.81172,141.64661 542.22184,143.12685 541.95868,144.22685 C 541.69553,145.32685 541.26779,147.35185 541.00816,148.72685 C 540.74853,150.10185 540.34333,152.18558 540.10772,153.35736 C 539.72865,155.24259 538.2506,156.16843 533.90746,157.24114 C 533.21996,157.41095 532.60003,157.2522 532.52984,156.88837 z M 567.36248,150.40227 C 565.4374,148.86635 564.31016,143.71351 563.83246,134.26581 C 563.73269,132.2926 562.8098,130.01505 561.68563,128.96772 C 558.7139,126.19913 554.65746,117.99641 554.65746,114.75572 C 554.65746,110.64843 553.70435,108.72685 551.6671,108.72685 C 549.67208,108.72685 548.6915,106.04596 548.67111,100.53587 C 548.6636,98.505832 548.20746,96.566772 547.65746,96.226852 C 547.10746,95.886932 546.65746,94.907912 546.65746,94.051262 C 546.65746,92.920902 547.35694,92.627412 549.20774,92.981212 C 551.71723,93.460932 551.75322,93.381252 551.45812,87.999382 C 551.2402,84.025082 550.67975,82.273972 549.40784,81.593262 C 548.44513,81.078032 547.65746,81.050852 547.65746,81.532862 C 547.65746,82.014872 546.19496,82.368202 544.40746,82.318052 C 541.24416,82.229282 541.16135,82.333562 541.30325,86.226852 C 541.38343,88.426852 541.75046,91.576852 542.11886,93.226852 C 542.72349,95.934872 542.64991,96.056532 541.36283,94.476852 C 540.57861,93.514352 539.64908,92.726852 539.29722,92.726852 C 538.94535,92.726852 538.65746,95.850292 538.65746,99.667832 C 538.65746,103.48537 538.20012,106.89147 537.64115,107.23693 C 537.08218,107.58239 536.86452,108.25286 537.15746,108.72685 C 537.4504,109.20084 537.28497,109.83903 536.78983,110.14504 C 536.29469,110.45106 535.31526,109.31493 534.61333,107.62032 C 533.53381,105.01411 533.58116,104.12602 534.92056,101.8586 C 536.38228,99.384102 536.36967,99.064542 534.75648,97.702422 C 532.07388,95.437332 528.24453,70.735572 530.82303,72.329182 C 531.63631,72.831812 532.12278,69.998062 531.82769,66.476852 C 531.74703,65.514352 532.10458,64.726852 532.62225,64.726852 C 533.82939,64.726852 535.61526,71.126722 535.05717,73.452652 C 534.58469,75.421752 535.13383,76.362162 538.33537,79.066602 C 540.48599,80.883292 540.53389,80.866492 542.15772,77.726342 C 543.06217,75.977342 543.5522,73.894922 543.24667,73.098742 C 542.94115,72.302562 543.38445,71.385112 544.23179,71.059952 C 545.07913,70.734802 545.52669,69.828462 545.22639,69.045872 C 544.92608,68.263282 545.11085,67.889032 545.637,68.214212 C 546.23136,68.581542 546.46351,64.645652 546.25002,57.821112 C 545.94089,47.939512 546.10746,46.620952 547.90922,44.686992 C 550.15573,42.275642 551.92462,42.389462 560.3873,45.489862 C 563.42893,46.604192 566.55807,48.623642 567.86597,50.316362 C 569.10284,51.917132 570.68691,53.821492 571.38614,54.548282 C 572.08536,55.275062 572.65746,56.705422 572.65746,57.726852 C 572.65746,58.748282 573.23619,60.178642 573.94353,60.905422 C 576.26088,63.286472 577.84806,70.705602 577.14057,75.849682 C 576.69048,79.122222 576.82967,80.726852 577.56362,80.726852 C 578.16523,80.726852 578.65746,81.449992 578.65746,82.333842 C 578.65746,83.351432 578.1073,83.729712 577.15746,83.365222 C 575.22325,82.623002 575.24656,83.458802 577.21497,85.427222 C 578.12186,86.334112 578.48563,87.661902 578.08579,88.605792 C 576.81499,91.605732 576.92579,101.18954 578.28462,105.80432 C 579.02594,108.32193 579.87379,112.30246 580.16874,114.64995 C 580.46369,116.99745 581.36931,120.20274 582.18123,121.77283 C 582.99316,123.34291 583.70232,127.01238 583.75714,129.92719 C 583.81196,132.842 584.17762,136.35185 584.56972,137.72685 C 584.96181,139.10185 584.85917,141.92634 584.34164,144.00349 C 583.60465,146.96142 583.01909,147.65901 581.64049,147.22146 C 580.6724,146.9142 578.30201,147.59404 576.37296,148.73221 C 571.88247,151.38166 569.2107,151.87686 567.36248,150.40227 z M 408.65746,148.91769 C 408.65746,147.6782 409.35187,146.39761 410.20059,146.07193 C 412.80763,145.07151 413.1647,146.66406 410.8519,148.97685 L 408.65746,151.17129 L 408.65746,148.91769 z M 418.0146,144.22685 C 419.93,142.31145 420.75409,142.31145 420.01909,144.22685 C 419.7025,145.05185 418.78448,145.72685 417.97904,145.72685 C 416.70893,145.72685 416.71365,145.52781 418.0146,144.22685 z M 547.65746,138.8345 C 547.65746,136.96914 548.07329,135.86581 548.6435,136.21822 C 549.6943,136.86765 549.5035,140.21414 548.3499,141.36775 C 547.96906,141.74859 547.65746,140.60863 547.65746,138.8345 z M 219.40746,139.39506 C 218.20804,136.46561 218.46088,129.13027 219.71795,130.38734 C 220.30122,130.97061 220.63872,133.64811 220.46795,136.33734 C 220.25521,139.68756 219.92135,140.65018 219.40746,139.39506 z M 537.81876,134.67982 C 534.75827,132.81764 534.51838,132.31661 534.93995,128.66701 C 535.19289,126.47727 535.0078,124.44337 534.52865,124.14724 C 534.0495,123.85111 533.65746,123.13027 533.65746,122.54539 C 533.65746,121.8748 534.21157,121.94183 535.15746,122.72685 C 536.0881,123.49921 536.65746,125.6966 536.65746,128.51596 C 536.65746,131.01528 536.9816,132.73605 537.37776,132.33988 C 537.77393,131.94371 538.03825,129.95621 537.96514,127.92321 C 537.89203,125.89021 538.04919,125.23935 538.31439,126.47685 C 538.87581,129.09666 539.91262,129.32926 541.65746,127.22685 C 542.34215,126.40185 543.29725,125.72685 543.7799,125.72685 C 545.28244,125.72685 544.74609,127.63822 542.65746,129.72685 C 540.65746,131.72685 540.65746,131.72685 542.65746,131.72685 C 543.76857,131.72685 544.65746,132.39352 544.65746,133.22685 C 544.65746,134.05185 544.01996,134.72685 543.24079,134.72685 C 542.46163,134.72685 541.67413,135.17334 541.49079,135.71906 C 541.30746,136.26477 539.65504,135.79711 537.81876,134.67982 z M 548.31045,133.97439 C 548.01878,133.50247 547.82229,131.63428 547.87379,129.82286 C 547.94489,127.32227 548.1839,126.91617 548.86657,128.13602 C 549.36109,129.01969 549.48979,130.18913 549.15257,130.73477 C 548.81534,131.28041 549.27848,131.72685 550.18178,131.72685 C 551.08507,131.72685 551.646,132.26123 551.42829,132.91435 C 550.92103,134.43614 548.99957,135.08942 548.31045,133.97439 z M 502.65746,131.72685 C 502.06876,130.62685 501.85751,129.72685 502.18802,129.72685 C 503.51825,129.72685 506.65746,131.85868 506.65746,132.76203 C 506.65746,134.51651 503.74739,133.7634 502.65746,131.72685 z M 512.90746,133.06457 C 511.38941,132.45202 511.26331,130.08848 512.70126,129.19978 C 513.27536,128.84497 514.40036,129.09851 515.20126,129.7632 C 516.37139,130.73432 516.65746,130.66225 516.65746,129.39635 C 516.65746,126.44129 518.97457,122.72685 520.81798,122.72685 C 521.82969,122.72685 522.65746,123.17685 522.65746,123.72685 C 522.65746,124.66596 521.20127,125.14502 519.33313,124.82049 C 518.87975,124.74174 518.78806,125.12915 519.12937,125.68141 C 519.47069,126.23367 519.23424,127.64912 518.60394,128.82686 C 517.80689,130.31615 517.79281,130.76123 518.55769,130.28851 C 519.16256,129.91468 519.65746,130.06954 519.65746,130.63265 C 519.65746,132.63541 515.52958,134.12262 512.90746,133.06457 z M 520.28219,128.92867 C 519.96453,128.41468 520.67136,127.1465 521.85294,126.1105 C 523.03451,125.07449 523.69156,124.75826 523.31304,125.40775 C 522.93453,126.05725 523.08218,126.87131 523.64115,127.21677 C 524.90731,127.9993 524.94551,125.73071 523.69935,123.76039 C 522.2249,121.4291 524.34491,119.51471 526.74274,121.01218 C 528.73295,122.25509 529.40653,125.72685 527.65746,125.72685 C 527.10746,125.72685 526.65746,126.40185 526.65746,127.22685 C 526.65746,128.05185 526.01926,128.72685 525.23925,128.72685 C 524.45923,128.72685 523.15475,128.98253 522.3404,129.29502 C 521.52605,129.60752 520.59986,129.44266 520.28219,128.92867 z M 549.17845,123.76081 C 548.2763,122.30111 546.69285,116.72685 547.18035,116.72685 C 547.92457,116.72685 550.91187,123.80577 550.3885,124.32914 C 550.09658,124.62106 549.55205,124.36532 549.17845,123.76081 z M 315.73641,122.31018 C 315.69299,121.25602 315.92934,120.66539 316.26163,120.99768 C 316.59392,121.32998 316.62944,122.19247 316.34057,122.91435 C 316.02135,123.71208 315.78439,123.47513 315.73641,122.31018 z M 231.65746,121.28587 C 231.65746,121.04333 232.10746,120.56677 232.65746,120.22685 C 233.20746,119.88693 233.65746,120.08537 233.65746,120.66783 C 233.65746,121.25029 233.20746,121.72685 232.65746,121.72685 C 232.10746,121.72685 231.65746,121.52841 231.65746,121.28587 z M 402.96215,119.6697 C 403.40755,117.96652 403.25139,117.81897 402.05462,118.8122 C 401.2596,119.47201 400.33088,119.7336 399.99079,119.39352 C 399.00315,118.40587 401.67117,115.79488 403.10557,116.34531 C 404.61587,116.92487 404.89272,121.72685 403.41583,121.72685 C 402.87043,121.72685 402.66628,120.80113 402.96215,119.6697 z M 487.91293,118.40462 C 486.83633,117.20684 485.71285,115.55185 485.41629,114.72685 C 484.52776,112.25504 477.79647,109.16747 475.83603,110.33249 C 472.83063,112.11849 470.65408,110.87884 470.69342,107.40353 L 470.72939,104.22685 L 473.05218,107.06613 C 475.00926,109.45838 475.47466,109.64561 476.00818,108.25528 C 476.47307,107.0438 477.62957,106.68779 480.35887,106.91601 C 483.4072,107.1709 484.5733,107.94686 486.83714,111.22685 C 488.35557,113.42685 489.41999,115.73842 489.20251,116.36367 C 488.96191,117.0554 489.56083,117.30337 490.73228,116.99703 C 492.00467,116.66429 492.65746,117.00547 492.65746,118.00323 C 492.65746,120.50187 490.00007,120.72668 487.91293,118.40462 z M 539.65746,118.16783 C 539.65746,117.31037 540.10746,116.88693 540.65746,117.22685 C 541.95137,118.02653 541.95137,119.72685 540.65746,119.72685 C 540.10746,119.72685 539.65746,119.02529 539.65746,118.16783 z M 317.48429,117.11195 C 317.06693,116.30572 317.07145,115.22815 317.50515,112.14352 C 317.58892,111.54768 318.33246,111.06018 319.15746,111.06018 C 319.98246,111.06018 320.64151,111.54768 320.62202,112.14352 C 320.56268,113.95766 317.97365,118.05726 317.48429,117.11195 z M 532.65746,116.83137 C 532.65746,115.48043 533.80834,114.84752 535.25523,115.40274 C 537.29177,116.18424 536.97286,117.27748 534.65746,117.4519 C 533.55746,117.53476 532.65746,117.25552 532.65746,116.83137 z M 538.62556,113.14293 C 537.66312,110.61154 538.04335,108.72685 539.51648,108.72685 C 539.92402,108.72685 540.25746,110.30185 540.25746,112.22685 C 540.25746,116.4031 539.93409,116.58463 538.62556,113.14293 z M 319.15746,103.72685 C 319.49738,103.17685 320.22549,102.72685 320.77549,102.72685 C 321.32549,102.72685 321.49738,103.17685 321.15746,103.72685 C 320.81754,104.27685 320.08943,104.72685 319.53943,104.72685 C 318.98943,104.72685 318.81754,104.27685 319.15746,103.72685 z M 539.82413,100.72685 C 540.32748,99.216802 541.93557,99.061182 542.40746,100.47685 C 542.63663,101.16435 542.07413,101.72685 541.15746,101.72685 C 540.24079,101.72685 539.64079,101.27685 539.82413,100.72685 z M 527.1737,68.778002 C 526.8335,67.706142 525.71975,66.564012 524.69869,66.239942 C 522.81829,65.643122 521.02867,62.726852 522.54282,62.726852 C 524.03746,62.726852 528.65746,67.601942 528.65746,69.179102 C 528.65746,71.317432 527.91607,71.117022 527.1737,68.778002 z M 520.85241,57.226852 C 520.83203,55.576852 521.03947,54.780792 521.3134,55.457822 C 521.58732,56.134852 521.60399,57.484852 521.35045,58.457822 C 521.09691,59.430792 520.87279,58.876852 520.85241,57.226852 z M 575.15746,55.726852 C 574.79506,54.076852 574.0843,52.726852 573.578,52.726852 C 573.07171,52.726852 572.65746,52.089352 572.65746,51.310182 C 572.65746,50.531022 572.09496,49.683412 571.40746,49.426612 C 570.59065,49.121512 570.81791,48.688292 572.06322,48.176522 C 574.78905,47.056322 577.76816,51.013322 577.47511,55.364842 C 577.19424,59.535352 576.03376,59.716612 575.15746,55.726852 z M 422.15746,37.726852 C 421.81754,37.176852 422.01598,36.726852 422.59844,36.726852 C 423.1809,36.726852 423.65746,37.176852 423.65746,37.726852 C 423.65746,39.008232 422.9494,39.008232 422.15746,37.726852 z M 519.86765,25.288822 C 518.40298,22.074232 518.78174,20.966752 520.59753,23.154642 C 521.27133,23.966512 521.67189,25.413432 521.48767,26.370012 C 521.23076,27.703992 520.85329,27.452072 519.86765,25.288822 z M 491.65746,8.7268519 C 490.86432,8.2366619 490.54735,7.5036319 490.95309,7.0978919 C 491.35883,6.6921519 492.21579,6.8851819 492.85746,7.5268519 C 494.36837,9.0377619 493.52505,9.8810821 491.65746,8.7268519 z M 486.65746,7.7268519 C 486.65746,7.1768519 487.10746,6.7268519 487.65746,6.7268519 C 488.20746,6.7268519 488.65746,7.1768519 488.65746,7.7268519 C 488.65746,8.2768519 488.20746,8.7268519 487.65746,8.7268519 C 487.10746,8.7268519 486.65746,8.2768519 486.65746,7.7268519 z M 535.65746,-3.7501081 C 533.18246,-5.0627381 529.05716,-6.6533581 526.49013,-7.2848281 C 522.09556,-8.3658681 517.66255,-11.611568 518.89598,-12.845008 C 519.20376,-13.152778 521.4135,-12.859078 523.80652,-12.192338 C 526.19954,-11.525598 529.09492,-10.921948 530.24069,-10.850898 C 533.11878,-10.672418 537.05011,-7.9348281 539.62868,-4.3135781 C 542.21175,-0.68597814 541.59894,-0.59902814 535.65746,-3.7501081 z M 513.73923,-6.4103681 C 510.1266,-12.406648 508.41225,-14.273148 506.51739,-14.273148 C 505.49443,-14.273148 504.65746,-14.717188 504.65746,-15.259908 C 504.65746,-16.057708 510.34628,-16.120058 516.01445,-15.384378 C 516.48579,-15.323198 516.61795,-14.612558 516.30812,-13.805168 C 515.9983,-12.997788 516.17515,-12.071228 516.70113,-11.746158 C 518.28858,-10.765058 517.81135,-8.2768581 516.15746,-8.9115181 C 514.37945,-9.5938081 514.27007,-8.8655181 515.73848,-6.1217581 C 517.60688,-2.6306281 515.86494,-2.8820881 513.73923,-6.4103681 z"
       style="fill:#237cd1;fill-opacity:1" />
  </g>
  <g
     inkscape:groupmode="layer"
     id="layer4"
     inkscape:label="Shade"
     style="opacity:1;display:inline"
     transform="translate(4.969921e-5,97.07894)">
    <path
       sodipodi:open="true"
       sodipodi:end="10.325064"
       sodipodi:start="4.0475263"
       d="M 255.29113,-45.270318 A 207,210 0 0 1 545.72884,-9.7929405 207,210 0 0 1 511.16839,284.90381 207,210 0 0 1 220.63308,250.2586 207,210 0 0 1 254.37312,-44.535983"
       sodipodi:ry="210"
       sodipodi:rx="207"
       sodipodi:cy="120"
       sodipodi:cx="383"
       id="path13236"
       style="opacity:0.4493927;fill:url(#radialGradient15148);fill-opacity:1;fill-rule:evenodd;stroke:none;stroke-width:12;stroke-linecap:round;stroke-linejoin:round;marker-start:none;stroke-miterlimit:4;stroke-dasharray:none;stroke-opacity:1;display:inline"
       sodipodi:type="arc"
       transform="matrix(0.89758,0,0,0.912133,67.481624,29.792903)" />
  </g>
</svg>
