<?xml version="1.0" encoding="UTF-8" standalone="no"?>
<svg
   xmlns:dc="http://purl.org/dc/elements/1.1/"
   xmlns:cc="http://creativecommons.org/ns#"
   xmlns:rdf="http://www.w3.org/1999/02/22-rdf-syntax-ns#"
   xmlns:svg="http://www.w3.org/2000/svg"
   xmlns="http://www.w3.org/2000/svg"
   version="1.0"
   id="svg2047"
   height="59.054691"
   width="360.47443">
  <defs
     id="defs3">
    <linearGradient
       id="linearGradient3525">
      <stop
         id="stop3527"
         offset="0"
         style="stop-color:#006;stop-opacity:1;" />
      <stop
         id="stop3529"
         offset="1"
         style="stop-color:#00004f;stop-opacity:1;" />
    </linearGradient>
    <linearGradient
       id="linearGradient3446">
      <stop
         id="stop3448"
         offset="0"
         style="stop-color:#f4e3ca;stop-opacity:1;" />
      <stop
         id="stop3450"
         offset="1"
         style="stop-color:#e9cc9d;stop-opacity:1;" />
    </linearGradient>
    <linearGradient
       id="linearGradient2917">
      <stop
         id="stop2919"
         offset="0"
         style="stop-color:#d40000;stop-opacity:1;" />
      <stop
         id="stop2921"
         offset="1"
         style="stop-color:#570000;stop-opacity:1;" />
    </linearGradient>
  </defs>
  <metadata
     id="metadata4">
    <rdf:RDF>
      <cc:Work
         rdf:about="">
        <dc:format>image/svg+xml</dc:format>
        <dc:type
           rdf:resource="http://purl.org/dc/dcmitype/StillImage" />
      </cc:Work>
    </rdf:RDF>
  </metadata>
  <g
     transform="translate(-145.34873,-417.59852)"
     id="layer1">
    <path
       id="flowRoot1960"
       d="m 174.57119,439.45599 c 3.01193,0.65838 5.26556,1.71175 6.7609,3.16012 2.07202,2.01898 3.10805,4.48781 3.10809,7.40652 -4e-5,2.21649 -0.6836,4.33969 -2.0507,6.36962 -1.36717,2.02993 -3.24163,3.51124 -5.6234,4.4439 -2.38183,0.93268 -6.01861,1.39901 -10.91036,1.39901 h -20.50699 v -1.21796 h 1.63415 c 1.81572,0 3.11877,-0.59251 3.90915,-1.77756 0.4913,-0.76809 0.73696,-2.403 0.73697,-4.90477 v -28.83606 c -1e-5,-2.76506 -0.30975,-4.50971 -0.92922,-5.23395 -0.83311,-0.96555 -2.07207,-1.44834 -3.7169,-1.44838 h -1.63415 v -1.21796 h 18.77672 c 3.50325,4e-5 6.31228,0.26338 8.42709,0.79003 3.20418,0.79006 5.65007,2.18908 7.33765,4.19703 1.68752,2.00803 2.5313,4.31776 2.53134,6.92922 -4e-5,2.23844 -0.66225,4.24095 -1.98662,6.00751 -1.32444,1.76661 -3.27901,3.07784 -5.86372,3.93368 z m -16.79009,-1.77756 c 0.79035,0.15364 1.69287,0.26885 2.70756,0.34563 1.01465,0.0768 2.13078,0.11524 3.34841,0.11522 3.11874,2e-5 5.46316,-0.34562 7.03325,-1.03692 1.57004,-0.69125 2.77162,-1.7501 3.60475,-3.17657 0.83306,-1.42641 1.24961,-2.98452 1.24964,-4.67434 -3e-5,-2.61146 -1.03606,-4.83889 -3.10809,-6.68234 -2.07209,-1.84335 -5.09473,-2.76506 -9.06793,-2.76509 -2.13617,3e-5 -4.05869,0.24143 -5.76759,0.72419 z m 0,21.33079 c 2.47791,0.59251 4.92379,0.88878 7.33765,0.88878 3.8664,0 6.81428,-0.89427 8.84364,-2.68281 2.02931,-1.78853 3.04398,-3.99952 3.04401,-6.63295 -3e-5,-1.73367 -0.4593,-3.4015 -1.37782,-5.00352 -0.91857,-1.60199 -2.41387,-2.86383 -4.4859,-3.78556 -2.07208,-0.92167 -4.63546,-1.38253 -7.69012,-1.38255 -1.32443,2e-5 -2.45658,0.022 -3.39647,0.0658 -0.93992,0.0439 -1.69825,0.12072 -2.27499,0.23043 z m 41.52665,-6.05689 12.6887,-15.07639 c -0.0428,-1.68977 -0.35249,-2.86384 -0.92922,-3.52222 -0.57678,-0.65832 -1.57009,-0.99848 -2.97992,-1.02045 v -1.25088 h 13.64996 v 1.25088 c -1.43125,2e-5 -2.39251,0.14815 -2.8838,0.44439 -0.49134,0.29629 -0.87584,0.66387 -1.15351,1.10275 -0.27773,0.43893 -0.41658,1.86537 -0.41655,4.27932 v 15.9981 c -3e-5,2.32619 0.11746,3.71423 0.35246,4.1641 0.23495,0.44988 0.60343,0.8449 1.10546,1.18505 0.50196,0.34015 1.50061,0.51022 2.99594,0.51022 v 1.21796 h -14.19468 v -1.21796 c 1.77298,0 2.95854,-0.33466 3.55668,-1.00399 0.5981,-0.66933 0.89716,-2.28779 0.89718,-4.85538 v -14.18762 l -12.6887,15.10931 c 0.0427,1.86535 0.29905,3.14915 0.76901,3.85139 0.46994,0.70225 1.48461,1.06436 3.04401,1.08629 v 1.21796 h -13.55384 v -1.21796 c 1.90116,0 3.11877,-0.35661 3.65281,-1.06983 0.53403,-0.71321 0.80105,-2.30973 0.80105,-4.78954 v -15.9981 c 0,-2.34812 -0.11749,-3.73615 -0.35246,-4.16411 -0.23498,-0.42791 -0.59813,-0.81195 -1.08944,-1.15213 -0.49131,-0.34012 -1.4953,-0.5102 -3.01196,-0.51022 v -1.25088 h 14.19468 v 1.25088 c -1.43123,2e-5 -2.39249,0.14815 -2.88379,0.44439 -0.49133,0.29629 -0.87584,0.66387 -1.15352,1.10275 -0.27771,0.43893 -0.41656,1.86537 -0.41655,4.27932 z m 55.40092,9.28283 h -8.6514 c -2.69156,-4.01597 -5.12675,-8.13071 -7.30561,-12.3442 -0.51268,-0.96558 -0.9773,-1.68428 -1.39383,-2.15612 -0.41656,-0.4718 -0.98798,-0.70772 -1.71425,-0.70774 -0.25636,2e-5 -0.66222,0.022 -1.21761,0.0658 v 8.06489 c -1e-5,2.17258 0.12282,3.56061 0.36849,4.1641 0.24564,0.6035 0.68889,1.03692 1.32974,1.30026 0.64083,0.26334 1.71959,0.39501 3.23626,0.39501 v 1.21796 h -14.67531 v -1.21796 c 1.90116,0 3.11877,-0.35661 3.65281,-1.06983 0.53403,-0.71321 0.80105,-2.30973 0.80105,-4.78954 v -15.9981 c 0,-2.34812 -0.11749,-3.73615 -0.35246,-4.16411 -0.23498,-0.42791 -0.59813,-0.81195 -1.08944,-1.15213 -0.49131,-0.34012 -1.4953,-0.5102 -3.01196,-0.51022 v -1.25088 h 14.67531 v 1.25088 c -1.77301,2e-5 -2.86779,0.1317 -3.28431,0.39502 -0.41656,0.26336 -0.79573,0.58706 -1.13751,0.97107 -0.34178,0.38407 -0.51268,1.87085 -0.51267,4.46037 v 5.92522 c 0.4913,0.0439 0.82241,0.0659 0.99331,0.0658 1.30304,10e-6 2.52598,-0.37854 3.66883,-1.13567 1.14281,-0.75709 2.16283,-2.36458 3.06003,-4.82247 0.83307,-2.32617 1.52198,-3.89526 2.06672,-4.70726 0.54469,-0.81194 1.30302,-1.47579 2.27498,-1.99154 0.97193,-0.51568 1.99193,-0.77353 3.06003,-0.77356 1.15349,3e-5 2.07204,0.28532 2.75564,0.85586 0.68353,0.57061 1.02531,1.31675 1.02535,2.23842 -4e-5,0.76811 -0.2457,1.42098 -0.73698,1.95861 -0.49134,0.53769 -1.17491,0.80651 -2.0507,0.80649 -0.46998,2e-5 -1.05742,-0.13164 -1.76232,-0.39501 -0.8972,-0.32916 -1.58077,-0.49375 -2.0507,-0.49377 -0.98265,2e-5 -1.79438,0.86687 -2.4352,2.60051 -0.72631,1.99704 -1.26035,3.28632 -1.60211,3.86785 -0.3418,0.58157 -0.99332,1.35515 -1.95457,2.32071 0.66218,0.19753 1.38313,0.70227 2.16284,1.51423 0.77968,0.81199 2.22692,3.1272 4.34172,6.94567 1.68752,3.0504 2.95319,4.98157 3.797,5.79355 0.84374,0.81198 2.06668,1.23991 3.66883,1.28379 z m 11.63131,-9.28283 12.68869,-15.07639 c -0.0427,-1.68977 -0.35249,-2.86384 -0.92922,-3.52222 -0.57678,-0.65832 -1.57009,-0.99848 -2.97992,-1.02045 v -1.25088 h 13.64996 v 1.25088 c -1.43125,2e-5 -2.39251,0.14815 -2.88379,0.44439 -0.49134,0.29629 -0.87586,0.66387 -1.15352,1.10275 -0.27772,0.43893 -0.41657,1.86537 -0.41655,4.27932 v 15.9981 c -2e-5,2.32619 0.11746,3.71423 0.35246,4.1641 0.23495,0.44988 0.60344,0.8449 1.10546,1.18505 0.50196,0.34015 1.50061,0.51022 2.99594,0.51022 v 1.21796 h -14.19468 v -1.21796 c 1.77298,0 2.95854,-0.33466 3.55669,-1.00399 0.59808,-0.66933 0.89715,-2.28779 0.89717,-4.85538 v -14.18762 l -12.68869,15.10931 c 0.0427,1.86535 0.29905,3.14915 0.76901,3.85139 0.46994,0.70225 1.4846,1.06436 3.044,1.08629 v 1.21796 h -13.55383 v -1.21796 c 1.90116,0 3.11876,-0.35661 3.65281,-1.06983 0.53402,-0.71321 0.80103,-2.30973 0.80105,-4.78954 v -15.9981 c -2e-5,-2.34812 -0.1175,-3.73615 -0.35247,-4.16411 -0.23498,-0.42791 -0.59812,-0.81195 -1.08943,-1.15213 -0.49131,-0.34012 -1.4953,-0.5102 -3.01196,-0.51022 v -1.25088 h 14.19468 v 1.25088 c -1.43124,2e-5 -2.3925,0.14815 -2.8838,0.44439 -0.49133,0.29629 -0.87583,0.66387 -1.15351,1.10275 -0.27772,0.43893 -0.41657,1.86537 -0.41655,4.27932 z m 50.88296,-2.17258 c -0.7904,3.97209 -2.3391,7.02796 -4.64611,9.16762 -2.30706,2.13967 -4.85975,3.2095 -7.65808,3.2095 -3.3324,0 -6.23755,-1.43741 -8.71548,-4.31224 -2.47792,-2.87483 -3.71688,-6.75914 -3.71688,-11.65293 0,-4.74016 1.37247,-8.59155 4.11742,-11.55419 2.74493,-2.96257 6.03994,-4.44388 9.88501,-4.4439 2.88377,2e-5 5.25489,0.78456 7.11336,2.35362 1.85841,1.56911 2.78764,3.19855 2.78767,4.88831 -3e-5,0.83394 -0.2617,1.50876 -0.78504,2.02444 -0.52337,0.51575 -1.25501,0.7736 -2.19488,0.77358 -1.26035,2e-5 -2.21094,-0.41695 -2.85176,-1.25088 -0.36316,-0.46083 -0.60348,-1.33864 -0.72095,-2.63343 -0.11751,-1.29474 -0.55008,-2.28228 -1.2977,-2.96261 -0.74767,-0.65833 -1.7837,-0.98751 -3.1081,-0.98754 -2.13616,3e-5 -3.85575,0.812 -5.15879,2.43593 -1.73028,2.15065 -2.59542,4.99256 -2.59541,8.52573 -10e-6,3.59903 0.85979,6.7756 2.5794,9.52972 1.71957,2.75414 4.04263,4.13121 6.96916,4.13119 2.0934,2e-5 3.97321,-0.73515 5.63942,-2.20549 1.17487,-1.00947 2.3177,-2.8419 3.42852,-5.49728 z m 7.17745,-18.69736 h 26.24253 v 1.25088 c -1.45261,2e-5 -2.4192,0.14815 -2.89981,0.44439 -0.48066,0.29629 -0.85982,0.66387 -1.1375,1.10275 -0.27772,0.43893 -0.41657,1.86537 -0.41655,4.27932 v 15.9981 c -2e-5,2.32619 0.11747,3.71423 0.35247,4.1641 0.23495,0.44988 0.60343,0.8449 1.10545,1.18505 0.50197,0.34015 1.50062,0.51022 2.99594,0.51022 v 1.21796 h -15.18798 v -1.21796 c 1.64482,0 2.78231,-0.0878 3.41249,-0.26334 0.63014,-0.17556 1.1268,-0.59801 1.48996,-1.26734 0.36313,-0.66933 0.5447,-2.11222 0.54471,-4.32869 v -20.93578 h -9.77286 v 12.7063 c -10e-6,4.80603 -0.20828,8.18011 -0.62481,10.12225 -0.41657,1.94216 -1.23898,3.37958 -2.46725,4.31224 -1.2283,0.93267 -2.63281,1.39901 -4.21354,1.39901 -2.73428,0 -4.10141,-1.16309 -4.1014,-3.48929 -10e-6,-0.79003 0.21894,-1.43741 0.65685,-1.94216 0.43792,-0.50473 1.00933,-0.75711 1.71426,-0.75711 0.74765,0 1.4419,0.31821 2.08275,0.95462 0.83309,0.83393 1.46325,1.25088 1.89048,1.25088 0.96126,0 1.66085,-0.82843 2.09876,-2.4853 0.4379,-1.65686 0.65686,-4.55911 0.65687,-8.70679 v -6.6494 c -10e-6,-3.42344 -0.24033,-5.50823 -0.72095,-6.25441 -0.48064,-0.7461 -1.71426,-1.19598 -3.70087,-1.34962 z m 44.15411,-0.88878 c 4.44316,2e-5 8.01052,1.73369 10.70208,5.20102 2.28565,2.96264 3.42849,6.36414 3.42852,10.20454 -3e-5,2.69928 -0.63019,5.43146 -1.89049,8.19656 -1.26035,2.7651 -2.99597,4.8499 -5.20686,6.2544 -2.21092,1.40448 -4.67282,2.10674 -7.38571,2.10674 -4.42184,0 -7.93578,-1.81049 -10.54187,-5.43145 -2.20024,-3.05039 -3.30035,-6.47385 -3.30035,-10.27038 0,-2.76509 0.66754,-5.51373 2.00263,-8.24593 1.33509,-2.73216 3.09207,-4.75112 5.27094,-6.05689 2.17886,-1.30571 4.48589,-1.95859 6.92111,-1.95861 z m -0.99331,2.13966 c -1.13216,2e-5 -2.26967,0.34566 -3.41249,1.03691 -1.14285,0.6913 -2.06673,1.90378 -2.77164,3.63742 -0.70494,1.73371 -1.0574,3.96114 -1.05739,6.68233 -10e-6,4.38907 0.8491,8.17463 2.54734,11.35668 1.69823,3.18206 3.93584,4.77309 6.71284,4.77309 2.07204,0 3.78095,-0.87781 5.12675,-2.63343 1.34575,-1.75562 2.01864,-4.77309 2.01866,-9.05242 -2e-5,-5.35462 -1.12151,-9.56811 -3.36444,-12.64047 -1.51668,-2.10672 -3.44988,-3.16009 -5.79963,-3.16011 z m 38.06611,12.96964 c 5.3617,1.14117 8.04256,3.71973 8.04258,7.73571 -2e-5,2.74316 -1.11617,4.79503 -3.34841,6.15564 -2.23229,1.36061 -5.34572,2.0409 -9.34028,2.0409 h -14.48307 v -1.21796 c 1.90116,0 3.10274,-0.36757 3.60474,-1.10274 0.50199,-0.73517 0.75298,-2.32071 0.75299,-4.75663 v -15.9981 c -10e-6,-2.37007 -0.11215,-3.76359 -0.33644,-4.18057 -0.2243,-0.41693 -0.57676,-0.79549 -1.05739,-1.13567 -0.48063,-0.34012 -1.4686,-0.5102 -2.9639,-0.51022 v -1.25088 h 13.52179 c 2.60609,2e-5 4.71552,0.20851 6.32833,0.62544 1.61277,0.41699 2.93717,1.23993 3.97323,2.46884 1.03601,1.22895 1.55402,2.72124 1.55405,4.47683 -3e-5,3.42348 -2.08276,5.63995 -6.24822,6.64941 z m -9.45245,-0.75711 c 0.9399,0.022 1.50598,0.0329 1.69824,0.0329 2.9265,2e-5 5.04128,-0.57605 6.34434,-1.72819 1.30304,-1.15211 1.95456,-2.55112 1.95458,-4.19703 -2e-5,-1.90922 -0.66222,-3.29176 -1.98661,-4.14765 -1.32443,-0.85585 -3.43921,-1.28378 -6.34435,-1.2838 h -1.6662 z m 0,14.02302 c 1.06806,0.35113 2.33906,0.52669 3.81302,0.52669 2.54199,0 4.43248,-0.57058 5.67146,-1.71174 1.23895,-1.14115 1.85843,-2.61147 1.85845,-4.41099 -2e-5,-2.01895 -0.80107,-3.5661 -2.40316,-4.64143 -1.60212,-1.07529 -3.82372,-1.61296 -6.66477,-1.61297 -0.70494,10e-6 -1.46327,0.022 -2.275,0.0658 z m 38.48266,-1.67881 c -3.01199,2.39203 -4.90247,3.77457 -5.67148,4.14765 -1.15352,0.54863 -2.38181,0.82294 -3.68484,0.82294 -2.02935,0 -3.70088,-0.71321 -5.01461,-2.13966 -1.31372,-1.42643 -1.97059,-3.30276 -1.97059,-5.62895 0,-1.47033 0.32042,-2.74315 0.96127,-3.81848 0.87582,-1.49226 2.39782,-2.89675 4.56601,-4.21349 2.16817,-1.31669 5.77292,-2.9187 10.81424,-4.806 v -1.18505 c -3e-5,-3.00647 -0.46463,-5.06932 -1.39385,-6.18856 -0.92923,-1.11919 -2.28034,-1.67879 -4.05333,-1.67881 -1.34578,2e-5 -2.41386,0.37309 -3.20422,1.1192 -0.81174,0.74617 -1.21761,1.60203 -1.2176,2.5676 l 0.0641,1.90923 c -1e-5,1.0095 -0.25101,1.78857 -0.75299,2.33718 -0.502,0.54865 -1.15887,0.82296 -1.9706,0.82294 -0.79037,2e-5 -1.43656,-0.28527 -1.93855,-0.85586 -0.502,-0.57056 -0.753,-1.34962 -0.75298,-2.33717 -2e-5,-1.88727 0.93988,-3.62094 2.81971,-5.20103 1.87979,-1.58003 4.51792,-2.37006 7.91441,-2.37008 2.60608,2e-5 4.74222,0.4499 6.40843,1.34963 1.2603,0.68033 2.18953,1.74467 2.78767,3.19303 0.38448,0.94367 0.57673,2.87485 0.57677,5.79354 v 10.23747 c -4e-5,2.87484 0.0534,4.63595 0.1602,5.28332 0.10679,0.64739 0.28302,1.08081 0.5287,1.30026 0.24563,0.21945 0.52867,0.32918 0.84912,0.32918 0.34175,0 0.64081,-0.0768 0.89718,-0.23043 0.44856,-0.28528 1.3137,-1.08629 2.59541,-2.403 v 1.8434 c -2.39251,3.29178 -4.67817,4.93768 -6.85702,4.93768 -1.04674,0 -1.87983,-0.37308 -2.49929,-1.11921 -0.6195,-0.74614 -0.93992,-2.01896 -0.96126,-3.81847 z m 0,-2.13967 v -11.48833 c -3.2256,1.31673 -5.30834,2.2494 -6.24823,2.79801 -1.68757,0.96561 -2.89449,1.97509 -3.62077,3.02845 -0.7263,1.05338 -1.08943,2.20551 -1.08943,3.45637 0,1.58007 0.45926,2.8913 1.37782,3.93369 0.91852,1.04241 1.97591,1.5636 3.17217,1.5636 1.62345,0 3.7596,-1.09726 6.40844,-3.29179 z m 10.34962,-20.67243 9.03589,-3.75264 h 1.2176 v 7.04443 c 1.51665,-2.65534 3.03866,-4.5152 4.56601,-5.57958 1.52732,-1.06431 3.13478,-1.59649 4.82235,-1.59651 2.94785,2e-5 5.40441,1.18507 7.3697,3.55512 2.41381,2.8968 3.62073,6.67139 3.62076,11.32375 -3e-5,5.20104 -1.45261,9.50231 -4.35774,12.90381 -2.3925,2.78706 -5.40446,4.18058 -9.03588,4.18058 -1.58077,0 -2.9479,-0.23043 -4.1014,-0.69128 -0.85447,-0.32918 -1.81574,-0.98753 -2.8838,-1.97508 v 9.1841 c -1e-5,2.06284 0.12282,3.37408 0.36848,3.93369 0.24565,0.55958 0.67288,1.00398 1.28169,1.33317 0.60879,0.32917 1.71424,0.49376 3.31637,0.49377 v 1.21797 h -15.38025 v -1.21797 h 0.80105 c 1.17489,0.0219 2.17888,-0.20849 3.01198,-0.69128 0.40586,-0.2414 0.72094,-0.63094 0.94524,-1.16859 0.22429,-0.53766 0.33643,-1.90375 0.33644,-4.09827 v -28.50689 c -10e-6,-1.9531 -0.0855,-3.193 -0.25633,-3.71971 -0.1709,-0.52666 -0.44326,-0.92168 -0.81708,-1.18505 -0.37383,-0.26332 -0.88117,-0.39499 -1.52201,-0.39501 -0.51267,2e-5 -1.1642,0.15364 -1.95457,0.46085 z m 10.25349,5.23395 v 11.25792 c -1e-5,2.43592 0.0961,4.03793 0.28838,4.80601 0.29905,1.27282 1.03068,2.39203 2.19489,3.35762 1.16419,0.96559 2.63278,1.44838 4.40579,1.44838 2.13613,0 3.86641,-0.85585 5.19084,-2.56759 1.73025,-2.23841 2.59538,-5.38755 2.59542,-9.44744 -4e-5,-4.60848 -0.98266,-8.15263 -2.94789,-10.63247 -1.36714,-1.7117 -2.99062,-2.56757 -4.87041,-2.56759 -1.02536,2e-5 -2.04003,0.26336 -3.04401,0.79003 -0.76902,0.39504 -2.04002,1.58008 -3.81301,3.55513 z m 33.83654,5.20102 3.65281,-0.0658 c 8.71543,10e-6 13.07317,2.76512 13.0732,8.29531 -3e-5,2.56759 -1.06276,4.62496 -3.1882,6.1721 -2.12549,1.54714 -5.18552,2.3207 -9.18008,2.3207 h -14.09855 v -1.21796 c 1.90116,0 3.11876,-0.35661 3.65281,-1.06983 0.53402,-0.71321 0.80103,-2.30973 0.80105,-4.78954 v -15.9981 c -2e-5,-2.34812 -0.1175,-3.73615 -0.35247,-4.16411 -0.23498,-0.42791 -0.59812,-0.81195 -1.08943,-1.15213 -0.49132,-0.34012 -1.4953,-0.5102 -3.01196,-0.51022 v -1.25088 h 15.34819 v 1.25088 c -2.1148,2e-5 -3.41784,0.12621 -3.90914,0.37855 -0.49133,0.2524 -0.8972,0.58158 -1.21761,0.98754 -0.32042,0.40601 -0.48064,1.8928 -0.48062,4.46037 z m 0,14.12178 c 1.13213,0.30723 2.2643,0.46085 3.39647,0.46085 2.13612,0 3.87174,-0.58155 5.20684,-1.74465 1.33508,-1.1631 2.00262,-2.63342 2.00264,-4.411 -2e-5,-4.21347 -2.85177,-6.32022 -8.55526,-6.32023 -0.49132,1e-5 -1.17489,0.011 -2.05069,0.0329 z"
       style="font-size:56px;font-family:'Times New Roman';fill:#4d4d4d" />
  </g>
</svg>
