<?xml version="1.0" encoding="UTF-8" standalone="no"?>
<svg
   xmlns:dc="http://purl.org/dc/elements/1.1/"
   xmlns:cc="http://creativecommons.org/ns#"
   xmlns:rdf="http://www.w3.org/1999/02/22-rdf-syntax-ns#"
   xmlns:svg="http://www.w3.org/2000/svg"
   xmlns="http://www.w3.org/2000/svg"
   version="1.0"
   id="svg2047"
   height="63.976582"
   width="361.15674">
  <defs
     id="defs3">
    <linearGradient
       id="linearGradient3525">
      <stop
         id="stop3527"
         offset="0"
         style="stop-color:#006;stop-opacity:1;" />
      <stop
         id="stop3529"
         offset="1"
         style="stop-color:#00004f;stop-opacity:1;" />
    </linearGradient>
    <linearGradient
       id="linearGradient3446">
      <stop
         id="stop3448"
         offset="0"
         style="stop-color:#f4e3ca;stop-opacity:1;" />
      <stop
         id="stop3450"
         offset="1"
         style="stop-color:#e9cc9d;stop-opacity:1;" />
    </linearGradient>
    <linearGradient
       id="linearGradient2917">
      <stop
         id="stop2919"
         offset="0"
         style="stop-color:#d40000;stop-opacity:1;" />
      <stop
         id="stop2921"
         offset="1"
         style="stop-color:#570000;stop-opacity:1;" />
    </linearGradient>
  </defs>
  <metadata
     id="metadata4">
    <rdf:RDF>
      <cc:Work
         rdf:about="">
        <dc:format>image/svg+xml</dc:format>
        <dc:type
           rdf:resource="http://purl.org/dc/dcmitype/StillImage" />
      </cc:Work>
    </rdf:RDF>
  </metadata>
  <g
     transform="translate(267.99108,-290.28364)"
     id="layer1">
    <path
       id="flowRoot3533"
       d="m -251.22558,342.07421 -10.5117,-39.99347 c -0.99795,-3.67305 -1.64107,-5.68244 -1.92936,-6.0282 -0.2883,-0.34565 -1.49693,-0.5185 -3.62588,-0.51855 l -0.69856,-0.0648 v -1.97699 h 17.63039 v 1.97699 h -0.63204 c -2.15114,4e-5 -3.515,0.10807 -4.09158,0.32409 -0.5766,0.21611 -0.86489,0.71305 -0.86488,1.49085 -1e-5,0.71304 0.32154,2.31192 0.96468,4.79662 l 7.28501,27.90468 11.34332,-35.90986 h 2.32854 l 11.34332,36.91456 8.51581,-28.87698 c 0.95354,-3.28412 1.43033,-5.12067 1.43039,-5.50962 -6e-5,-0.75619 -1.72983,-1.1343 -5.18933,-1.13434 h -0.59875 v -1.97699 h 13.53879 v 1.97699 l -0.59876,0.0648 c -2.37296,0.12969 -3.68692,0.33495 -3.94189,0.61578 -0.25509,0.28093 -0.9592,2.25792 -2.11232,5.93097 l -12.04188,39.99347 h -2.22876 l -11.60943,-36.91456 -11.40985,36.91456 z m 60.24269,-35.81264 v 26.80277 c -2e-5,2.93847 0.24393,4.68859 0.73182,5.25035 0.48787,0.56176 2.09568,0.92908 4.82341,1.10193 l 0.63204,0.0324 v 2.00941 h -18.89445 v -2.00941 l 0.63203,-0.0324 c 2.68337,-0.17285 4.27453,-0.54556 4.77351,-1.11814 0.49897,-0.57256 0.74845,-2.31727 0.74845,-5.23414 v -18.40867 c 0,-2.91684 -0.24948,-4.65615 -0.74845,-5.21795 -0.49898,-0.56173 -2.09014,-0.93985 -4.77351,-1.13434 l -0.63203,-0.0324 v -2.00941 z m -6.55319,-6.38468 v -6.3847 h 6.55319 v 6.3847 z m 27.44353,24.27479 v 8.91266 c -2e-5,2.89526 0.22729,4.63997 0.68193,5.23414 0.45461,0.59418 1.80183,0.9669 4.04168,1.11814 l 0.63203,0.0324 v 2.00941 h -18.06283 v -2.00941 l 0.63205,-0.0324 c 2.68335,-0.17285 4.27452,-0.54556 4.7735,-1.11814 0.49896,-0.57256 0.74845,-2.31727 0.74846,-5.23414 v -34.38661 c -1e-5,-2.91682 -0.2495,-4.66154 -0.74846,-5.23416 -0.49898,-0.57252 -2.09015,-0.94522 -4.7735,-1.11813 l -0.63205,-0.0324 v -2.0094 h 12.70719 v 32.27997 h 1.56345 l 8.38275,-7.84313 c 3.59258,-3.56501 5.38888,-5.47718 5.38891,-5.73649 -3e-5,-0.4105 -0.60989,-0.63196 -1.82957,-0.6644 -1.21974,-0.0324 -2.06244,-0.0486 -2.52814,-0.0486 h -0.69855 v -2.00941 h 14.07104 v 2.00941 l -0.63204,0.0324 c -2.35075,0.15128 -3.85322,0.42676 -4.50739,0.82645 -0.65424,0.39975 -2.73329,2.28491 -6.23716,5.65548 l -6.32032,6.06059 10.84434,12.41289 c 2.74987,3.02491 4.47409,4.78042 5.17269,5.26656 0.69853,0.48615 1.9127,0.78324 3.6425,0.89127 l 0.63203,0.0324 v 2.00941 h -10.14578 l -15.23531,-17.30675 z m 50.89525,17.11228 c -1.66326,0.66981 -3.24889,1.0047 -4.75687,1.0047 -3.83656,0 -6.63635,-0.93988 -8.39938,-2.81964 -1.76305,-1.87975 -2.64456,-4.87224 -2.64456,-8.97745 v -21.58481 h -5.32238 v -2.62519 h 5.32238 v -6.38468 l 6.58645,-1.58808 v 7.97276 h 10.04599 v 2.62519 h -10.04599 v 22.42745 c -2e-5,3.0249 0.41025,5.17474 1.23079,6.44952 0.82053,1.27477 2.21765,1.91216 4.19139,1.91216 1.04227,0 2.30633,-0.33489 3.79218,-1.0047 z m 16.69898,-35.00239 v 26.80277 c -2e-5,2.93847 0.24393,4.68859 0.73182,5.25035 0.48787,0.56176 2.095667,0.92908 4.823407,1.10193 l 0.63203,0.0324 v 2.00941 h -18.894447 v -2.00941 l 0.63204,-0.0324 c 2.68336,-0.17285 4.27452,-0.54556 4.7735,-1.11814 0.49897,-0.57256 0.74846,-2.31727 0.74847,-5.23414 v -18.40867 c -10e-6,-2.91684 -0.2495,-4.65615 -0.74847,-5.21795 -0.49898,-0.56173 -2.09014,-0.93985 -4.7735,-1.13434 l -0.63204,-0.0324 v -2.00941 z m -6.55318,-6.38468 v -6.3847 h 6.55318 v 6.3847 z m 34.029957,42.39177 c -5.32239,0 -9.52485,-1.64748 -12.60739,-4.94246 -3.08255,-3.29497 -4.62381,-7.7837 -4.62381,-13.4662 0,-5.68246 1.54126,-10.16579 4.62381,-13.45 3.08254,-3.28413 7.285,-4.92622 12.60739,-4.92626 5.34453,4e-5 9.55253,1.64213 12.62403,4.92626 3.07142,3.28421 4.60715,7.76754 4.60718,13.45 -3e-5,5.6825 -1.54131,10.17123 -4.62381,13.4662 -3.08258,3.29498 -7.28505,4.94246 -12.6074,4.94246 z m 0,-2.00939 c 2.94946,0 5.39997,-1.55026 7.35154,-4.65078 1.9515,-3.10052 2.92728,-7.01667 2.92731,-11.74849 -3e-5,-4.68857 -0.97581,-8.59393 -2.92731,-11.71608 -1.95157,-3.12209 -4.40208,-4.68315 -7.35154,-4.68319 -2.92732,4e-5 -5.36675,1.5611 -7.31827,4.68319 -1.95155,3.12215 -2.92732,7.02751 -2.92731,11.71608 -1e-5,4.73182 0.97022,8.64797 2.91068,11.74849 1.94044,3.10052 4.3854,4.65078 7.3349,4.65078 z m 34.52895,-27.38613 c 1.66322,-2.4631 3.58149,-4.31044 5.75482,-5.54204 2.17328,-1.23154 4.60162,-1.84732 7.28501,-1.84736 3.10468,4e-5 5.5441,0.99393 7.31826,2.98169 1.75192,1.98782 2.6279,4.72104 2.62793,8.19964 v 16.39927 c 0.1552,3.21936 0.41023,5.03428 0.76509,5.44481 0.35479,0.41052 1.95151,0.71301 4.79014,0.90747 l 0.59877,0.0324 v 2.00941 h -18.86118 v -2.00941 l 0.59876,-0.0324 c 2.83858,-0.19446 4.43529,-0.49695 4.79015,-0.90747 0.35479,-0.41053 0.60982,-2.22545 0.76509,-5.44481 v -15.39458 c -3e-5,-3.02487 -0.40475,-5.12609 -1.21417,-6.30367 -0.80948,-1.17752 -2.25649,-1.76629 -4.34107,-1.76632 -1.46367,3e-5 -3.10474,0.44836 -4.92319,1.345 -1.8185,0.89669 -3.80331,2.25249 -5.95441,4.06741 v 18.05216 c -3e-5,2.93847 0.24393,4.68859 0.73182,5.25035 0.48787,0.56176 2.09567,0.92908 4.8234,1.10193 l 0.63203,0.0324 v 2.00941 h -18.89444 v -2.00941 l 0.63204,-0.0324 c 2.68335,-0.17285 4.27452,-0.54556 4.7735,-1.11814 0.49896,-0.57256 0.74845,-2.31727 0.74846,-5.23414 v -18.40867 c -1e-5,-2.91684 -0.2495,-4.65615 -0.74846,-5.21795 -0.49898,-0.56173 -2.09015,-0.93985 -4.7735,-1.13434 l -0.63204,-0.0324 v -2.00941 h 12.70719 z m 54.78724,23.75625 c -3.9031,3.75951 -7.7618199,5.63927 -11.5761699,5.63927 -3.06038996,0 -5.61069,-0.94528 -7.65092,-2.83584 -2.04025,-1.89056 -3.06037,-4.26186 -3.06037,-7.11391 0,-3.32737 1.33059,-6.02818 3.99178,-8.10241 3.03818004,-2.37668 8.18314,-3.56503 15.4348999,-3.56505 h 1.36386 v -4.3753 c -3e-5,-5.55282 -2.16224,-8.32924 -6.4866499,-8.32927 -2.01808,3e-5 -3.8033,0.60501 -5.35563996,1.81494 -0.90926,0.73465 -1.48584,2.23629 -1.72978,4.50493 l -0.03326,0.61578 H -5.2650929 v -6.4495 c 4.61272004,-1.96616 8.89279,-2.94925 12.84024,-2.94929 7.8504799,4e-5 11.7757299,3.51108 11.7757599,10.53313 v 15.68626 c -3e-5,2.80884 0.24946,4.78582 0.74847,5.93095 0.49894,1.14515 1.36936,1.71771 2.61128,1.71771 0.44351,0 1.03118,-0.0972 1.76304,-0.29168 l 0.19959,2.39832 c -1.57457,0.54015 -2.98278,0.81023 -4.22463,0.81023 -3.23782,0 -5.28915,-1.87976 -6.15401,-5.63927 z m -1.49692,-0.71301 v -13.25554 h -1.53018 c -3.8587499,3e-5 -6.8747499,0.77786 -9.0480499,2.33349 -2.17331996,1.55568 -3.25996,3.69472 -3.25996,6.41711 0,2.03101 0.67637004,3.71631 2.02916004,5.0559 1.35275996,1.3396 3.03817996,2.0094 5.05625996,2.0094 1.90716,0 4.1580899,-0.85346 6.7527699,-2.56036 z m 26.8115,-20.06156 v 17.20952 c -3e-5,2.91687 0.26056,4.66698 0.78171,5.25035 0.52114,0.58337 2.11231,0.95069 4.77351,1.10193 l 1.43039,0.0324 v 2.00941 h -19.69281 v -2.00941 l 0.63205,-0.0324 c 2.68335,-0.17285 4.27452,-0.54556 4.7735,-1.11814 0.49896,-0.57256 0.74845,-2.31727 0.74846,-5.23414 v -18.40867 c -1e-5,-2.91684 -0.2495,-4.65615 -0.74846,-5.21795 -0.49898,-0.56173 -2.09015,-0.93985 -4.7735,-1.13434 l -0.63205,-0.0324 v -2.00941 h 12.7072 v 6.61157 c 2.99381,-4.92623 6.90797,-7.38936 11.74249,-7.3894 0.66527,4e-5 1.40819,0.11887 2.22875,0.35652 v 9.62565 h -3.6924 l -0.03327,-0.58338 c -0.24396,-2.00937 -0.46018,-3.20312 -0.64866,-3.58125 -0.18853,-0.37809 -0.69304,-0.56714 -1.51355,-0.56718 -3.28215,4e-5 -5.97661,1.70694 -8.08336,5.12072 z m 21.52236,38.4054 11.8423,-12.80179 -11.37658,-26.67312 c -1.19754,-2.85203 -2.08461,-4.62914 -2.66119,-5.33139 -0.57661,-0.70217 -1.46366,-1.08568 -2.66119,-1.15054 l -0.6653,-0.0324 v -2.00941 h 16.49937 v 2.00941 h -0.69856 c -3.01603,2e-5 -4.52404,0.38894 -4.52402,1.16674 -2e-5,0.38894 0.63202,2.17148 1.8961,5.34759 l 8.08337,18.89481 8.6156,-18.99204 c 1.26402,-2.7872 1.89607,-4.4617 1.89609,-5.02349 -2e-5,-0.92905 -1.34171,-1.39359 -4.02505,-1.39361 h -0.89815 v -2.00941 h 10.71129 v 2.00941 l -0.63204,0.0324 c -1.37498,0.0865 -2.55033,1.30722 -3.52606,3.66229 -0.17746,0.41055 -0.59881,1.33963 -1.26408,2.78723 l -18.32894,39.50732 z"
       style="font-size:56px;font-family:'Lucida Bright';fill:#4d4d4d" />
  </g>
</svg>
