<?xml version="1.0" encoding="UTF-8" standalone="no"?>
<svg xmlns="http://www.w3.org/2000/svg" width="119" height="21" viewBox="0 0 119 21">
	<path d="M14.564.298c.936.026 1.416.054 1.997.054.582 0 1.214-.027 1.846-.054.151.161.151.729 0 .891-1.315.216-1.864 1.244-2.486 2.51l-1.848 3.755 3.234 7.15h.116L22.225 3.51c.6-1.461.556-2.187-1.087-2.321-.152-.162-.152-.729 0-.891 1.188.026 1.921.054 2.503.054.582 0 1.214-.027 2.225-.054.152.161.152.729 0 .891-1.669.216-1.959 1.247-2.485 2.51l-5.985 13.767c-.177.405-.329.621-.606.621-.253 0-.448-.219-.582-.621l-3.4-7.836-3.73 7.836c-.15.405-.329.621-.607.621-.252 0-.43-.216-.58-.621l-5.5-13.82C1.618 1.729 1.567 1.325.126 1.19-.025 1.028-.05.461.102.299 1.29.325 1.72.353 2.732.353c.985 0 1.617-.027 2.806-.054.152.161.152.729 0 .891-1.593.188-1.66.615-1.026 2.159l4.63 11.256h.115l2.824-6.133-2.13-4.826C9.102 1.729 8.9 1.352 7.812 1.19c-.15-.162-.177-.729-.025-.891.81.026 1.24.054 2.25.054.986 0 1.391-.027 2.301-.054.152.161.152.729 0 .891-1.062.162-.96.62-.268 2.159l1.244 2.727.111.121 1.34-2.686c.781-1.565.885-2.159-.202-2.321-.152-.164-.152-.731 0-.892zm92.363 16.627c.152.162.152.729 0 .891-.936-.026-2.199-.054-3.236-.054-.985 0-1.314.027-2.25.054-.15-.162-.15-.729 0-.891 1.1-.081 1.861-.248 2.53-1.916L109.59.964c.287-.724.478-.964.852-.964.354 0 .498.289.682.811l5.184 14.63c.468 1.39 1.295 1.39 2.275 1.484.152.162.152.729 0 .891-.936-.026-1.846-.054-2.883-.054-.985 0-2.376.027-3.312.054-.15-.162-.15-.729 0-.891 1.204-.092 2.247.006 1.871-1.106l-1.542-4.562h-5.26c-.606 0-.758.107-.885.459l-1.39 3.913c-.394 1.109.794 1.225 1.744 1.296zm5.386-6.802l-2.452-7.207h-.05l-2.534 6.848c-.106.292.076.359.637.359z"/>
	<path d="M27.273 14.526c0 2.24.278 2.35 1.82 2.456.152.162.152.73 0 .891-1.087-.026-1.72-.054-2.806-.054-1.113 0-1.77.027-2.832.054-.151-.162-.151-.729 0-.89 1.542-.136 1.82-.217 1.82-2.457v-5.83c0-2.24-.277-2.349-1.82-2.457-.151-.162-.151-.729 0-.89 1.087.026 1.719.053 2.807.053 1.112 0 1.77-.026 2.832-.054.152.162.152.73 0 .891-1.542.135-1.82.216-1.82 2.456v5.831zm2.321-8.286c-.151-.163-.151-.73 0-.892 1.062.027 1.719.054 2.832.054.936 0 1.34-.026 2.427-.054.15.162.15.73 0 .891-1.214.135-1.441.216-1.441 2.456v2.402c.834 0 1.575-.426 2.655-1.728 1.947-2.348 2.2-3.05.936-3.13-.152-.163-.152-.73 0-.892 1.087.027 2.048.054 2.78.054.658 0 1.088-.026 1.77-.054.152.162.152.73 0 .891-1.01.054-1.938.191-2.705 1.134l-2.174 2.672c-.43.486-.582.783-.582 1 0 .161.1.296.228.458l3.742 4.697c.33.41.936.701 1.618.782.15.162.15.702 0 .864 0 0-1.24-.027-1.947-.027-.658 0-1.29.027-1.568.054v-.378c0-.35-.025-.647-.38-1.079L34.98 12.69c-.38-.54-1.012-.675-1.568-.675v2.511c0 2.24.228 2.321 1.44 2.456.152.162.152.73 0 .891-1.086-.026-1.491-.054-2.426-.054-1.113 0-1.77.027-2.832.054-.151-.162-.151-.729 0-.89 1.542-.136 1.82-.217 1.82-2.457v-5.83c0-2.24-.278-2.322-1.82-2.456zm16.322 8.286c0 2.24.278 2.35 1.82 2.456.152.162.152.73 0 .891-1.087-.026-1.72-.054-2.806-.054-1.113 0-1.77.027-2.832.054-.151-.162-.151-.729 0-.89 1.542-.136 1.82-.217 1.82-2.457v-5.83c0-2.24-.278-2.349-1.82-2.457-.151-.162-.151-.729 0-.89 1.087.026 1.719.053 2.807.053 1.112 0 1.77-.026 2.832-.054.152.162.152.73 0 .891-1.542.135-1.82.216-1.82 2.456v5.831zm7.934 2.456c.152.162.152.73 0 .891-1.087-.026-1.72-.054-2.806-.054-1.112 0-1.77.027-2.832.054-.152-.162-.152-.729 0-.89 1.542-.136 1.82-.217 1.82-2.457v-5.83c0-2.24-.278-2.349-1.82-2.457-.152-.162-.152-.729 0-.89 1.087.026 1.719.053 2.806.053.683 0 1.745-.054 2.68-.054 3.59 0 4.35 1.89 4.35 3.293 0 1.62-1.037 4.211-4.426 4.211-.632 0-1.137-.107-1.592-.324v1.998c0 2.24.278 2.348 1.82 2.456zm-1.82-5.318c.505.216 1.137.297 1.643.297 1.518 0 2.175-1.05 2.175-2.996 0-1.893-.81-2.727-2.301-2.727-1.214 0-1.517.351-1.517 1.215zm10.254.081v4.05c0 .512.354 1.187.809 1.187h2.1c1.592 0 2.326-1.35 2.73-2.942.277-.08.48-.026.707.108-.177 1.134-.455 2.618-.758 3.725 0 0-1.67-.054-2.68-.054h-3.895s-1.77.027-2.832.054c-.151-.162-.151-.729 0-.89 1.543-.136 1.82-.217 1.82-2.457v-5.83c0-2.24-.277-2.349-1.82-2.457-.151-.162-.151-.729 0-.89 1.088.026 2.807.053 2.807.053h5.234c.506 0 .682-.054 1.036-.107.05 0 .076.026.076.081.05.188.354 2.294.455 3.212-.202.107-.43.162-.683.135-.455-1.538-.784-2.43-2.352-2.43H63.09c-.48 0-.81.297-.81.756v3.833h1.442c1.77-.026 1.693-.297 1.744-1.512.127-.135.582-.135.708 0-.025.675-.05 1.161-.05 1.917s.024 1.188.05 1.971c-.126.135-.581.135-.708 0-.051-.999.05-1.512-1.744-1.512h-1.44zm12.812-6.397c4.222 0 6.295 2.808 6.295 6.397 0 4.724-3.135 6.127-5.94 6.127-2.024 0-2.935-.054-3.692-.054-1.113 0-1.77.027-2.832.054-.152-.162-.152-.729 0-.89 1.543-.136 1.82-.217 1.82-2.457v-5.83c0-2.24-.277-2.349-1.82-2.457-.152-.162-.152-.729 0-.89 1.087.026 1.72.053 2.807.053.48.001 2.704-.053 3.362-.053zm-.254 11.634c2.781 0 4.35-.999 4.35-4.777 0-2.808-.582-5.966-4.83-5.966-.986 0-1.617.162-1.617.837v8.691c0 .756.176 1.215 2.097 1.215zm10.788-2.456c0 2.24.277 2.35 1.82 2.456.15.162.15.73 0 .891-1.088-.026-1.72-.054-2.807-.054-1.113 0-1.77.027-2.832.054-.151-.162-.151-.729 0-.89 1.543-.136 1.82-.217 1.82-2.457v-5.83c0-2.24-.277-2.349-1.82-2.457-.151-.162-.151-.729 0-.89 1.088.026 1.719.053 2.807.053 1.112 0 1.77-.026 2.832-.054.15.162.15.73 0 .891-1.543.135-1.82.216-1.82 2.456z"/>
	<path stroke="#000" stroke-width=".001" d="M95.237 21.073c-.509-.159-1.01-.588-1.072-.916-.099-.53.634-1.21 1.177-1.092.281.06.417.158.676.488.36.459.66.559 1.088.364.116-.053.295-.199.398-.325.413-.504.582-1.132.655-2.436.058-1.019.06-9.184.004-9.885-.039-.484-.05-.519-.201-.654-.187-.167-.357-.219-1.087-.327-.295-.043-.55-.093-.567-.11-.046-.046-.035-.676.013-.725.024-.023 1.244-.05 2.713-.057l2.67-.015.037.17c.055.248.04.445-.046.574-.06.091-.16.128-.478.178-.534.083-.742.19-.868.447-.094.191-.104.363-.138 2.42-.02 1.219-.038 3.189-.042 4.378-.01 3.456-.075 4.097-.504 4.945-.455.899-1.446 1.895-2.331 2.342-.562.284-1.577.398-2.097.236h0z"/>
	<path d="M91.93 14.526c0 2.24.277 2.35 1.82 2.456.15.162.15.73 0 .891-1.088-.026-1.72-.054-2.807-.054-1.113 0-1.77.027-2.832.054-.151-.162-.151-.729 0-.89 1.543-.136 1.82-.217 1.82-2.457v-5.83c0-2.24-.277-2.349-1.82-2.457-.151-.162-.151-.729 0-.89 1.088.026 1.719.053 2.807.053 1.112 0 1.77-.026 2.832-.054.15.162.15.73 0 .891-1.543.135-1.82.216-1.82 2.456z"/>
</svg>
