<?xml version="1.0" encoding="UTF-8" standalone="no"?>
<svg xmlns="http://www.w3.org/2000/svg" width="107" height="25" viewBox="0 0 107 25">
	<path style="-inkscape-font-specification:Sans" d="M3.28 9.18H1.594L0 7.608h3.303c-.76-1.116-1.14-2.475-1.14-4.077 0-1.147.445-2.054 1.333-2.722C4.218.269 5.19 0 6.412 0c1.23 0 2.285.137 3.166.41 1.025.311 2.046.858 3.064 1.64 1.761 1.36 3.117 3.261 4.066 5.706h-.581a22.394 22.394 0 01-.604-1.196c-.28-.645-.816-1.348-1.606-2.107-1.002-.964-1.981-1.651-2.938-2.061-1.154-.494-2.32-.74-3.496-.74-1.086 0-1.982.242-2.688.728-.889.608-1.333 1.405-1.333 2.392 0 1.253.369 2.198 1.105 2.836H6.89L8.485 9.18H5.17v14.76l-1.89-1.89V9.18m3.599 0L5.33 7.608h15.66l1.538 1.572h-3.839v14.76l-2.027-2.027v-4.09c-.57.38-1.222.715-1.959 1.003-.843.327-1.549.475-2.118.444-1.154-.06-2.153-.619-2.995-1.674-.669-.843-1.003-1.837-1.003-2.984.13-.592.35-1.067.66-1.423 1.208-1.14 2.544-1.682 4.01-1.63 1.458.046 2.593.745 3.405 2.096V9.18H6.88m9.544 4.988c-.243-.516-.995-.774-2.255-.774-1.352 0-2.551.531-3.599 1.594-.509.516-.763 1.044-.763 1.583 0 .714.58 1.07 1.742 1.07 1.458 0 2.783-.614 3.975-1.844.6-.615.9-1.158.9-1.629m6.218-4.988h-1.685L19.36 7.608h3.303c-.76-1.116-1.139-2.475-1.139-4.077 0-1.147.444-2.054 1.333-2.722C23.579.269 24.55 0 25.773 0c1.23 0 2.286.137 3.167.41 1.025.311 2.046.858 3.063 1.64 1.762 1.36 3.117 3.261 4.066 5.706h-.58a22.394 22.394 0 01-.604-1.196c-.281-.645-.817-1.348-1.606-2.107-1.002-.964-1.982-1.651-2.939-2.061-1.154-.494-2.32-.74-3.496-.74-1.086 0-1.982.242-2.688.728-.888.608-1.332 1.405-1.332 2.392 0 1.253.368 2.198 1.104 2.836h2.324l1.594 1.572h-3.314v14.76l-1.89-1.89V9.18m3.598 0l-1.56-1.572h21.286l1.56 1.572H36.992v4.384a6.59 6.59 0 01.5-.421 2.34 2.34 0 01.764-.387 5.393 5.393 0 011.446-.217c1.162 0 2.122.407 2.882 1.219.759.805 1.138 1.796 1.138 2.972 0 .942-.334 1.83-1.002 2.666-.5.645-1.287 1.184-2.357 1.617l-.832-1.617c1.078-.502 1.8-.896 2.164-1.185.805-.63 1.207-1.321 1.207-2.073 0-.675-.315-1.287-.945-1.833-.402-.342-1.029-.471-1.879-.388-.402.038-.896.304-1.48.798a9.23 9.23 0 00-1.606 1.788v7.437L35.1 22.026v-3.314c-.326.365-.809.68-1.446.945-.638.259-1.211.388-1.72.388-1.101 0-2.043-.376-2.825-1.128-.774-.751-1.161-1.678-1.161-2.779 0-1.123.368-2.05 1.104-2.779.737-.736 1.667-1.104 2.79-1.104 1.428 0 2.514.607 3.258 1.822v.695c-.668-.593-1.435-.889-2.3-.889-1.11 0-1.967.217-2.575.65-.835.592-1.29 1.381-1.366 2.368-.046.623.125 1.124.512 1.504.32.303.76.455 1.321.455.805 0 1.728-.41 2.768-1.23 1.093-.865 1.64-1.693 1.64-2.483V9.18h-8.86m19.771 0l-1.56-1.572h14.566L60.6 9.18h-3.86v14.76l-1.96-1.97v-4.704c-.622.372-1.549.558-2.779.558-1.207-.122-2.224-.668-3.052-1.64-.82-.95-1.23-2.035-1.23-3.257V9.18h-1.708m3.428 4.726c0 .653.178 1.245.535 1.777.41.607.923.91 1.538.91.66 0 1.237-.181 1.73-.546.168-.106.471-.372.912-.797.174-.197.383-.535.626-1.014V9.18h-5.34v4.726M60.68 9.18h-1.697l-1.56-1.572h3.564a12.882 12.882 0 00-1.571-3.11c-.896-1.313-1.75-1.97-2.563-1.97-.797 0-1.431.327-1.902.98-.425.584-.638 1.29-.638 2.118 0 .517.164 1.124.49 1.822h-1.845a5.946 5.946 0 01-.387-2.118c0-1.359.28-2.433.843-3.223.653-.904 1.632-1.355 2.938-1.355 1.397 0 2.62.831 3.667 2.494.54.858 1.188 2.312 1.948 4.362h2.938l1.56 1.572H62.57v14.737l-1.89-1.89V9.18m5.877 0h-1.686l-1.595-1.572h3.303c-.759-1.116-1.139-2.475-1.139-4.077 0-1.147.445-2.054 1.333-2.722C67.495.269 68.467 0 69.689 0c1.23 0 2.286.137 3.167.41 1.025.311 2.046.858 3.063 1.64 1.762 1.36 3.117 3.261 4.066 5.706h-.58A22.395 22.395 0 0178.8 6.56c-.281-.645-.817-1.348-1.606-2.107-1.002-.964-1.982-1.651-2.939-2.061-1.154-.494-2.32-.74-3.496-.74-1.086 0-1.982.242-2.688.728-.888.608-1.332 1.405-1.332 2.392 0 1.253.368 2.198 1.104 2.836h2.324l1.594 1.572h-3.314v14.76l-1.89-1.89V9.18m15.261 6.856l1.241-1.242 1.23 1.242-1.23 1.23-1.241-1.23M70.156 9.18l-1.571-1.572h16.81l1.594 1.572h-5.967v5.295h-4.75c-.645 0-1.112.088-1.4.262-.373.236-.559.669-.559 1.299 0 .235.16.425.479.57.25.113.512.17.786.17.235 0 .58-.042 1.036-.125.463-.084.812-.126 1.048-.126 1.253 0 2.27.346 3.052 1.037.813.729 1.219 1.712 1.219 2.95 0 1.078-.365 1.928-1.094 2.55-.683.593-1.571.89-2.665.89-1.397 0-2.862-.749-4.396-2.244a16.128 16.128 0 01-3.04-4.135l.466-.467c.425 1.147 1.211 2.19 2.358 3.132 1.207 1.003 2.388 1.504 3.542 1.504.683 0 1.37-.198 2.061-.593.79-.448 1.185-.987 1.185-1.617 0-.38-.107-.698-.32-.956-.212-.266-.5-.4-.865-.4-.311 0-.797.107-1.458.32-.66.205-1.165.307-1.514.307-.562 0-.987-.224-1.276-.672l-2.004-3.097a2.282 2.282 0 01-.376-1.265c0-.934.846-1.4 2.54-1.4h4.054v-3.19h-8.975m15.171.001l-1.56-1.572h15.91l1.583 1.572h-3.884v14.76l-1.856-1.88v-4.134c-.919 1.056-2.096 1.583-3.53 1.583-1.77 0-3.121-.675-4.055-2.027-.608-.88-.911-1.883-.911-3.007.683 0 1.294-.174 1.833-.523.6-.388.953-.9 1.06-1.538.045-.152.068-.414.068-.786 0-1.108-.418-1.925-1.253-2.448h-3.405m5.17 5.592c-.433.455-.82.774-1.161.956-.243.13-.593.255-1.048.376.357 1.116 1.116 1.845 2.278 2.187.425.083.698.125.82.125 1.442 0 2.63-.888 3.564-2.665.35-.668.524-1.431.524-2.29V9.18h-4.67c.578.759.866 1.674.866 2.744 0 1.07-.39 2.02-1.173 2.848m10.877-5.592h-1.697l-1.572-1.572h7.471l1.56 1.572h-3.894v14.76l-1.868-1.89V9.18" font-family="Sans" font-size="40" font-weight="400"/>
</svg>
