<?xml version="1.0" encoding="UTF-8" standalone="no"?>
<svg xmlns="http://www.w3.org/2000/svg" width="119" height="18" viewBox="0 0 119 18">
	<path d="M10.9 3.7s-.4-.7-.5-1C9.6 1 9.6 1 8.7.8c-.2 0-.4-.1-.4-.2V.1l.1-.1h5v.5c0 .1-.1.2-.3.2l-.4.1c-.9.1-.8.4-.2 1.6L18.2 14l.2.1 5-12c.2-.5.1-.8-.1-1-.2-.2-.4-.3-1-.3h-.5c-.1 0-.1 0-.2-.1-.1 0-.1-.1-.1-.1V.1l.1-.1h5.7l.1.1v.5c0 .1-.1.2-.2.2-.7 0-1.3.2-1.7.5-.4.3-.6.7-.8 1.2 0 0-4.6 10.6-6.2 14.1-.6 1.2-1.2 1.1-1.7 0-1.1-2.3-4.2-9.2-4.2-9.2z"/>
	<path d="M20 .1h-4.6l-.1.1v.5c0 .1 0 .1.1.1s.1.1.2.1h.2c.6 0 .9.2.9.3.1.2.2.4-.1 1.1l-6 11.9h-.2s-4.3-9-5.5-12.1c-.1-.3-.2-.5-.2-.7 0-.3.3-.5.8-.5h.6c.2 0 .3-.1.3-.2V.2L6.3.1H.1L0 .2v.5c0 .1.1.2.4.2.7 0 1.1.1 1.3.3.2.2.4.6.7 1.3C4 6.2 7.3 12.9 8.9 16.7c.5 1 1 1.2 1.8 0 1.2-2.3 4.5-9.2 4.5-9.2l2.6-4.9c.3-.5.6-1 .7-1.2.3-.4.4-.5 1.2-.5.2 0 .2-.1.2-.2zm9.7 15.5c0 .6.3.9 1.1 1l.5.1c.1 0 .2.1.2.2v.6s-2-.1-2.8-.1c-.7 0-2.8.1-2.8.1l-.1-.1v-.6c0-.1.1-.2.2-.2l.5-.1c.9-.1 1.1-.5 1.1-1V6.8c0-.6-.3-.7-1.1-.8l-.5-.1c-.1 0-.2 0-.2-.1v-.7s2.1.1 2.9.1c.7 0 2.7-.1 2.7-.1v.7c0 .1-.1.1-.2.1l-.5.1c-.8.1-1.1.3-1.1.8zm7.7 0c0 .6.3.9 1.1 1l.3.1c.1 0 .2.1.2.2v.6s-1.6-.1-2.4-.1c-.7 0-2.9.1-2.9.1l-.1-.1v-.6c0-.1.1-.2.2-.2l.5-.1c.8-.1 1.1-.5 1.1-1V6.8c0-.6-.3-.7-1.1-.8l-.5-.1c-.1 0-.2 0-.2-.1v-.7s2.1.1 2.9.1c.7 0 2.4-.1 2.4-.1v.7c0 .1-.1.1-.2.1l-.3.1c-.8.2-1.1.3-1.1.8v3.9c.9 0 1.4-.4 2.5-1.7 1-1.1 1.8-2.1 1.8-2.6 0-.2-.2-.4-.8-.5-.1 0-.2-.1-.2-.1v-.6s2.1.1 2.9.1c.7 0 1.8-.1 1.8-.1h.1v.6c0 .1-.1.1-.2.1-1 .1-1.7.1-2.7 1.2l-2.2 2.6c-.4.5-.6.8-.6 1 0 .2.1.3.2.4l3.9 4.7c.3.4.9.5 1.5.6h.1c.1 0 .2.1.2.2v.5h-3.8v-.3c0-.3 0-.6-.4-1l-2.9-3.6c-.4-.5-.8-.6-1.4-.6zm14 0c0 .6.3.9 1.1 1l.5.1c.1 0 .2.1.2.2v.6s-2-.1-2.8-.1c-.7 0-2.8.1-2.8.1l-.1-.1v-.6c0-.1.1-.2.2-.2l.5-.1c.9-.1 1.1-.5 1.1-1V6.8c0-.6-.3-.7-1.1-.8l-.5-.1c-.1 0-.2 0-.2-.1v-.7s2.1.1 2.9.1c.7 0 2.7-.1 2.7-.1v.7c0 .1-.1.1-.2.1l-.5.1c-.8.1-1.1.3-1.1.8zM57 7c0-.8-.3-.8-1.6-.9-.2 0-.2-.1-.2-.1v-.6h.1c.4 0 1.9.1 2.7.1.7 0 1.8-.1 2.7-.1 3.7 0 4.4 1.8 4.4 3.2 0 1.6-.8 4-4.4 4-.7 0-1.2-.1-1.6-.3v3.5c0 .6.3.7 1.1.8l.5.1c.1 0 .2.1.2.2v.6s-2.1-.1-2.9-.1c-.7 0-2.7.1-2.7.1v-.7c0-.1.1-.1.2-.2l.5-.1c.8-.1 1.1-.3 1.1-.8L57 7zm2 4.5c.5.2 1.2.2 1.7.2 1.6 0 2.3-.9 2.3-2.9 0-2.2-1-2.7-2.4-2.7-1.2 0-1.6.2-1.6.9zm10.6 5.8c-.8 0-2.6.1-2.6.1v-.7c0-.1 0-.1.2-.1l.6-.1c.8-.1 1-.6 1-1.1V6.8c0-.6-.3-.7-1-.8l-.6-.1c-.2 0-.2-.1-.2-.1v-.7s2 .1 2.8.1h3.8c.8 0 2.6-.1 2.6-.1l.1.1c0 1.1.2 2.1.4 3.1l-.6.1c-.3-1-.8-2.3-2.4-2.3h-2.1c-.5 0-.8.2-.8.6v3.8h1.9c.7 0 .9-.3 1-.8l.2-.5c0-.1.1-.1.2-.1h.4c.1 0 .1 0 .1.1-.1.6-.2 1.3-.2 1.9 0 .6.1 1.2.2 1.8l-.1.1h-.4c-.1 0-.2-.1-.2-.1l-.1-.6c-.1-.5-.3-.8-1-.8h-1.9v4c0 .5.3 1 .8 1h2.5c1.3 0 2.1-.8 2.4-2.2l.6.1-.5 3-.1.1s-1.5-.1-2.3-.1l-4.7-.1zm9.8-.7l.6-.1c.8-.1 1-.3 1-1.1V6.8c0-.7-.2-.7-1-.8l-.6-.1c-.1 0-.2-.1-.2-.1v-.7s2.3.1 2.8.1 2.8-.1 3.4-.1c4.3 0 6.5 2.7 6.5 6.2 0 4.6-3.2 5.9-6.1 5.9-2.1 0-3-.1-3.8-.1-.8 0-2.8.1-2.8.1v-.4c0-.1.1-.2.2-.2zm5.8 0c2.9 0 4.5-1.1 4.5-4.7 0-2.7-.6-5.9-5-5.9-1 0-1.7.2-1.7.8v8.6c0 .8.2 1.2 2.2 1.2zm12.8-1c0 .6.3.9 1.1 1l.5.1c.1 0 .2.1.2.2v.6s-2-.1-2.8-.1c-.7 0-2.8.1-2.8.1l-.1-.1v-.6c0-.1.1-.2.2-.2l.5-.1c.9-.1 1.1-.5 1.1-1V6.8c0-.6-.3-.7-1.1-.8l-.5-.1c-.1 0-.2 0-.2-.1v-.7s2.1.1 2.9.1c.7 0 2.7-.1 2.7-.1v.7c0 .1-.1.1-.2.1L99 6c-.8.1-1.1.3-1.1.8l.1 8.8zm8.1 1l.8.1c.1 0 .2.1.2.2v.5l-.1.1s-2.8-.1-3.5-.1c-.7 0-2.3.1-2.3.1l-.1-.1v-.6c0-.1.1-.2.2-.2 1.1-.1 1.8-.3 2.5-2l5.8-13.5c.3-.7.5-.9.9-.9s.5.3.7.8l5.3 14.1c.4 1 .9 1.4 1.9 1.5h.3c.1 0 .3.1.3.2v.5l-.1.1s-2-.1-3-.1c-.9 0-3.5.1-3.5.1v-.6c0-.1.1-.2.2-.2l.7-.1c1-.1 1.4-.4 1.1-1.1l-1.6-4.4h-5.4c-.6 0-.8.1-.9.4l-1.5 3.8c-.2.7.1 1.3 1.1 1.4zm6.3-6.6l-2.5-6.9h-.1l-2.6 6.6c-.1.3.1.3.6.3z"/>
</svg>
