<?xml version="1.0" encoding="UTF-8" standalone="no"?>
<svg xmlns="http://www.w3.org/2000/svg" width="109" height="22" viewBox="0 0 109 22">
	<path d="M3.538 0C2.725.329 1.562.528 0 .643l.036.608c0 .082.044.143.143.143L1 1.43c.271 0 .457.157.572.428.123.272.178.765.178 1.537V19.8c0 .806-.326 1.296-1 1.502l-.5.143c-.116.024-.177.118-.144.25l.179.643 3.538-.965v-5.29a118.742 118.742 0 002.61-2.073 35.379 35.379 0 002.323-2.108c.822-.806 1.472-1.542 1.965-2.216.502-.674.914-1.402 1.251-2.216.337-.822.5-1.622.5-2.395C12.483 1.688 11.15 0 8.472 0c-.732 0-1.44.25-2.18.75-.732.502-1.554 1.166-2.467 2.038 0-1.094.022-1.93.072-2.538 0-.172-.136-.25-.358-.25zm4.36 1.25c.84.001 1.434.391 1.788 1.18.361.79.536 1.994.536 3.646 0 .79-.19 1.597-.536 2.395-.345.789-.838 1.57-1.537 2.359a29.792 29.792 0 01-1.966 2.037c-.6.567-1.38 1.25-2.359 2.073V3.896c.954-.962 1.723-1.635 2.323-2.037.609-.403 1.193-.608 1.752-.608z" font-family="Sans" font-size="40" font-weight="400" style="-inkscape-font-specification:Sans"/>
	<path d="M17.292 15.77c0 .572.26.91 1.092.988l.546.053c.078 0 .156.051.156.155v.546l-.026.053s-1.976-.053-2.782-.053c-.728 0-2.756.053-2.756.053l-.052-.053v-.546c0-.104.078-.155.182-.155l.52-.053c.858-.078 1.118-.494 1.118-.988V7.112c0-.57-.313-.729-1.118-.805l-.52-.054c-.104 0-.182-.024-.182-.104V5.55l.026-.052s2.054.052 2.86.052c.702 0 2.704-.052 2.704-.052l.026.052v.572c0 .078-.052.13-.156.13l-.546.053c-.806.077-1.092.286-1.092.807zm7.673 0c0 .572.338.858 1.092.988l.286.053c.078.025.156.051.156.155v.546l-.026.053s-1.638-.053-2.418-.053c-.728 0-2.86.053-2.86.053l-.052-.053v-.546c0-.104.078-.155.182-.155l.52-.053c.78-.078 1.118-.494 1.118-.988V7.112c0-.57-.286-.729-1.118-.805l-.52-.054c-.104 0-.182-.024-.182-.104V5.55l.026-.052s2.132.052 2.938.052c.729 0 2.366-.052 2.366-.052l.026.052v.572c0 .078-.052.104-.156.13l-.286.053c-.806.155-1.092.286-1.092.807v3.927c.858 0 1.352-.44 2.496-1.664 1.04-1.146 1.846-2.104 1.846-2.601 0-.209-.234-.441-.754-.521-.104-.024-.156-.052-.156-.13v-.6l.026-.024s2.106.052 2.86.052c.676 0 1.82-.052 1.82-.052l.078.024v.6c0 .078-.078.13-.208.13-1.014.078-1.716.13-2.652 1.196l-2.236 2.572c-.442.47-.598.754-.598.963 0 .156.104.285.234.441l3.926 4.732c.312.363.936.52 1.456.623l.13.025c.078.025.182.077.182.155v.546l-.078.026s-1.378-.026-2.106-.026c-.65 0-1.586.026-1.586.026l-.026-.026v-.312c0-.339-.026-.623-.39-1.039l-2.886-3.589c-.39-.521-.806-.649-1.378-.649zm14.017 0c0 .572.26.91 1.092.988l.546.053c.078 0 .156.051.156.155v.546l-.026.053s-1.976-.053-2.782-.053c-.728 0-2.756.053-2.756.053l-.052-.053v-.546c0-.104.078-.155.182-.155l.52-.053c.858-.078 1.118-.494 1.118-.988V7.112c0-.57-.312-.729-1.118-.805l-.52-.054c-.104 0-.182-.024-.182-.104V5.55l.026-.052s2.054.052 2.86.052c.702 0 2.704-.052 2.704-.052l.026.052v.572c0 .078-.052.13-.156.13l-.546.053c-.806.077-1.092.286-1.092.807zM44.6 7.163c0-.806-.338-.832-1.56-.91-.156 0-.182-.077-.182-.13v-.598l.052-.026c.39 0 1.924.052 2.678.052.728 0 1.768-.052 2.73-.052 3.69 0 4.366 1.819 4.366 3.173 0 1.561-.754 4.004-4.444 4.004-.65 0-1.17-.053-1.64-.26v3.482c0 .571.313.703 1.146.832l.52.078c.105.025.184.053.184.155v.546l-.024.053s-2.081-.053-2.887-.053c-.728 0-2.678.053-2.678.053l-.026-.053v-.546c0-.104.052-.13.156-.155l.546-.078c.806-.104 1.066-.338 1.066-.832L44.6 7.163zm2.002 4.525c.52.209 1.17.234 1.69.234 1.56 0 2.312-.938 2.312-2.938 0-2.236-1.014-2.73-2.442-2.73-1.25 0-1.561.234-1.561.91zm23.238 5.123l.598-.053c.78-.078 1.04-.312 1.04-1.117v-8.58c0-.678-.183-.678-1.04-.754l-.57-.054c-.104 0-.184-.052-.184-.13v-.572l.025-.052s2.289.052 2.758.052c.492 0 2.756-.052 3.432-.052 4.342 0 6.475 2.704 6.475 6.162 0 4.551-3.225 5.901-6.11 5.901-2.08 0-2.988-.053-3.794-.053-.781 0-2.758.053-2.758.053l-.025-.053v-.546a.145.145 0 01.153-.152zm5.799 0c2.859 0 4.473-1.064 4.473-4.707 0-2.703-.6-5.851-4.967-5.851-1.014 0-1.664.156-1.664.808v8.58c0 .726.18 1.17 2.158 1.17zm12.073-1.041c0 .572.26.91 1.092.988l.546.053c.078 0 .156.051.156.155v.546l-.026.053s-1.976-.053-2.781-.053c-.73 0-2.756.053-2.756.053l-.053-.053v-.546c0-.104.078-.155.182-.155l.52-.053c.858-.078 1.119-.494 1.119-.988V7.112c0-.57-.313-.729-1.118-.805l-.521-.054c-.104 0-.182-.024-.182-.104V5.55l.026-.052s2.054.052 2.858.052c.7 0 2.705-.052 2.705-.052l.024.052v.572c0 .078-.054.13-.156.13l-.546.053c-.807.077-1.092.286-1.092.807l.003 8.658zm8.61.988l.754.053c.104 0 .208.078.208.207v.494l-.052.053s-2.834-.053-3.458-.053c-.677 0-2.341.053-2.341.053l-.053-.053v-.494c0-.129.078-.207.209-.207 1.145-.078 1.793-.287 2.52-1.951l5.772-13.521c.285-.676.494-.937.886-.937.362 0 .493.261.7.781l5.33 14.092c.365 1.015.886 1.404 1.926 1.508l.285.025c.13 0 .26.077.26.209v.492l-.077.053s-2.002-.053-3.017-.053c-.91 0-3.46.053-3.46.053l-.023-.053v-.492c0-.132.052-.209.185-.209l.728-.053c.987-.077 1.353-.391 1.092-1.117l-1.586-4.396H97.7c-.624 0-.78.104-.91.44l-1.508 3.771c-.26.654.078 1.227 1.04 1.305zm6.37-6.606l-2.522-6.941h-.052l-2.6 6.604c-.104.262.077.338.649.338h4.525z"/>
	<path d="M64.32 16.569h-1.835c-.44 0-.75-.155-.75-.647v-4.034h1.577c.673 0 .88.259 1.009.802l.103.569c.026.051.078.129.181.129h.466l.052-.052c-.078-.62-.156-1.138-.156-1.784 0-.62.104-1.345.156-1.94 0-.052-.026-.078-.078-.078h-.44c-.077 0-.129.052-.155.156l-.13.543c-.129.517-.31.827-1.008.827h-1.577V7.026c0-.44.258-.595.75-.595h1.81c1.655 0 2.146 1.37 2.431 2.328l.647-.104c-.182-.983-.363-1.991-.388-3.103l-.052-.052s-1.836.052-2.612.052h-3.543c-1.966 0-4.242-.052-4.242-.052l-.051.052v.595c0 .025 0 .077.155.103.672.078.853.233.853.543 0 .724-1.474 3.672-1.888 4.5-.801 1.552-1.991 3.75-2.508 4.578-.207.362-.699.801-1.552.879-.104 0-.155.078-.155.155v.543l.026.052s1.06-.052 1.551-.052c.492 0 2.612.052 2.612.052l.026-.052v-.543c0-.077-.077-.13-.155-.155l-.259-.052c-.775-.232-1.086-.31-.853-.776l1.862-3.724c.104-.207.259-.336.75-.336h2.897v4.009c0 .517-.233.724-1.06.827l-.44.052c-.104 0-.13.078-.13.13v.568l.026.052s1.552-.052 2.56-.052h6.207c.026-.827.233-1.862.544-3.13l-.673-.077c-.388 1.293-.983 2.328-2.56 2.328m-5.923-9.285c.285-.62.621-1.034.88-1.034.336 0 .569.284.569 1.086v3.724h-2.509c-.362 0-.517-.026-.517-.129 0-.026.026-.078.052-.13l1.525-3.517m6.04-3.28c.245 0 .453-.396.453-.622 0-.113-.076-.32-.264-.32h-4.242c-.207 0-.414.376-.414.603 0 .132.075.339.245.339h4.222" font-family="Linux Libertine O C" font-size="27" font-weight="400" style="line-height:125%;-inkscape-font-specification:'Linux Libertine O C';text-align:start"/>
</svg>
