<?xml version="1.0" encoding="UTF-8" standalone="no"?>
<svg xmlns="http://www.w3.org/2000/svg" width="119" height="17" viewBox="0 0 119 17">
	<path d="M10.748 3.673s-.367-.746-.492-.994C9.422 1.026 9.44.938 8.597.827 8.361.796 8.239.766 8.239.649V.126L8.31.075C9.833.073 13.222.073 13.222.073l.13.043v.521c0 .119-.085.18-.258.18l-.356.051c-.9.07-.753.438-.155 1.629l5.677 11.615.194.053 5.04-11.961c.175-.482.148-.824-.077-1.025-.226-.196-.385-.312-.969-.336l-.473-.024a.277.277 0 01-.166-.06.172.172 0 01-.079-.145V.116l.072-.051h5.694l.058.051v.498c0 .135-.077.203-.229.203-.746.033-1.299.195-1.657.484-.359.291-.639.692-.84 1.213 0 0-4.635 10.609-6.221 14.135-.607 1.156-1.204 1.05-1.729-.033-1.109-2.284-4.232-9.213-4.232-9.213z"/>
	<path d="M19.844.067s-3.203-.01-4.629 0l-.071.051v.496a.17.17 0 00.078.146.273.273 0 00.165.059l.229.025c.583.024.851.177.931.273.139.17.208.354-.129 1.089l-5.98 11.927-.157-.041S5.998 5.061 4.758 2.04c-.129-.313-.187-.545-.187-.688 0-.307.277-.473.831-.496l.646-.027c.171 0 .258-.066.258-.203V.13L6.248.079s-5.13-.006-6.19 0L0 .13v.521c0 .094.119.152.358.178.651.035 1.079.139 1.285.312.205.175.422.617.71 1.306 1.557 3.74 4.865 10.414 6.476 14.215.464 1.038 1.047 1.199 1.755-.032 1.226-2.274 4.55-9.218 4.55-9.218l2.618-4.896c.305-.517.599-.978.748-1.193.273-.393.426-.467 1.172-.502.152 0 .229-.068.229-.205V.12z"/>
	<path fill="#fff" d="M13.526 11.469c-.02.066.188.293.253.313l.155-.098c.064.02.203-.041.223-.105l.027-.264-.279-1.304c-.051-.067-.09-.018-.107.043z"/>
	<path d="M29.583 15.55c0 .572.26.91 1.092.988l.546.053c.078 0 .156.051.156.155v.546l-.026.053s-1.976-.053-2.782-.053c-.728 0-2.756.053-2.756.053l-.052-.053v-.546c0-.104.078-.155.182-.155l.52-.053c.858-.078 1.118-.494 1.118-.988V6.892c0-.571-.313-.729-1.118-.805l-.52-.054c-.104 0-.182-.024-.182-.104V5.33l.026-.052s2.054.052 2.86.052c.702 0 2.704-.052 2.704-.052l.026.052v.572c0 .078-.052.13-.156.13l-.546.053c-.806.077-1.092.286-1.092.807zm7.673 0c0 .572.338.858 1.092.988l.286.053c.078.025.156.051.156.155v.546l-.026.053s-1.638-.053-2.418-.053c-.728 0-2.86.053-2.86.053l-.052-.053v-.546c0-.104.078-.155.182-.155l.52-.053c.78-.078 1.118-.494 1.118-.988V6.892c0-.571-.286-.729-1.118-.805l-.52-.054c-.104 0-.182-.024-.182-.104V5.33l.026-.052s2.132.052 2.938.052c.729 0 2.366-.052 2.366-.052l.026.052v.572c0 .078-.052.104-.156.13l-.286.053c-.806.155-1.092.286-1.092.807v3.926c.858 0 1.352-.441 2.496-1.664 1.04-1.145 1.846-2.105 1.846-2.6 0-.209-.234-.442-.754-.521-.104-.025-.156-.052-.156-.13v-.599l.026-.025s2.106.052 2.86.052c.676 0 1.82-.052 1.82-.052l.078.025v.599c0 .078-.078.13-.208.13-1.014.078-1.716.13-2.652 1.196l-2.236 2.573c-.442.469-.598.754-.598.963 0 .156.104.285.234.441l3.926 4.732c.312.363.936.52 1.456.623l.13.025c.078.026.182.078.182.156v.546l-.078.026s-1.378-.026-2.106-.026c-.65 0-1.586.026-1.586.026l-.026-.026v-.312c0-.339-.026-.623-.39-1.039l-2.886-3.589c-.39-.521-.806-.649-1.378-.649zm14.017 0c0 .572.26.91 1.092.988l.546.053c.078 0 .156.051.156.155v.546l-.026.053s-1.976-.053-2.782-.053c-.728 0-2.756.053-2.756.053l-.052-.053v-.546c0-.104.078-.155.182-.155l.52-.053c.858-.078 1.118-.494 1.118-.988V6.892c0-.571-.312-.729-1.118-.805l-.52-.054c-.104 0-.182-.024-.182-.104V5.33l.026-.052s2.054.052 2.86.052c.702 0 2.704-.052 2.704-.052l.026.052v.572c0 .078-.052.13-.156.13l-.546.053c-.806.077-1.092.286-1.092.807zm5.618-8.607c0-.806-.338-.832-1.56-.91-.156 0-.182-.077-.182-.13v-.598l.052-.026c.39 0 1.924.052 2.678.052.728 0 1.768-.052 2.73-.052 3.69 0 4.366 1.819 4.366 3.173 0 1.561-.754 4.004-4.444 4.004-.65 0-1.17-.053-1.639-.26v3.482c0 .572.312.703 1.145.832l.521.078c.104.026.182.053.182.156v.546l-.025.052s-2.08-.052-2.886-.052c-.728 0-2.678.052-2.678.052l-.026-.052v-.546c0-.104.052-.13.156-.156l.546-.078c.806-.104 1.066-.338 1.066-.832zm2.002 4.525c.52.209 1.17.234 1.69.234 1.561 0 2.312-.938 2.312-2.938 0-2.236-1.014-2.73-2.442-2.73-1.249 0-1.561.234-1.561.91zM76.226 5.33h-6.708l-2.6-.052-.026.052v.572c0 .026 0 .078.156.104l.598.052c.728.052 1.04.208 1.04.806v8.866c0 .52-.234.728-1.04.806l-.598.052c-.13 0-.156.078-.156.13v.572l.026.052 2.574-.052h6.864c.052-.832.234-1.898.546-3.172l-.65-.078c-.416 1.326-.988 2.366-2.574 2.366h-2.236c-.468 0-.754-.13-.754-.624V11.44h1.95c.676 0 .91.286 1.014.806l.13.572c0 .078.052.13.182.13h.442l.052-.052c-.052-.598-.156-1.144-.156-1.794 0-.624.104-1.352.156-1.924 0-.052 0-.078-.052-.078h-.442c-.104 0-.156.052-.156.13l-.156.546c-.104.52-.286.832-1.014.832h-1.95V6.76c0-.442.26-.546.754-.546h2.08c1.664 0 2.158 1.378 2.418 2.314l.65-.078c-.182-.988-.338-2.002-.364-3.12M72.794.052l-2.08 3.276c-.156.26-.156.442-.156.598 0 .156.182.312.364.312s.364-.13.754-.52l2.99-2.834-.078-.286c-.052-.026-.104-.078-.156-.13C74.224.286 73.886 0 73.158 0c-.13 0-.286.026-.364.052m6.437 16.539l.598-.053c.781-.078 1.041-.312 1.041-1.117v-8.58c0-.678-.184-.678-1.041-.754l-.57-.054c-.104 0-.184-.052-.184-.13v-.572l.025-.052s2.289.052 2.758.052c.492 0 2.756-.052 3.432-.052 4.342 0 6.475 2.704 6.475 6.162 0 4.551-3.225 5.901-6.11 5.901-2.08 0-2.989-.052-3.795-.052-.781 0-2.757.052-2.757.052l-.026-.052v-.546a.147.147 0 01.154-.153zm5.799 0c2.859 0 4.473-1.065 4.473-4.707 0-2.703-.599-5.851-4.967-5.851-1.014 0-1.664.156-1.664.808v8.58c0 .726.181 1.17 2.158 1.17zm12.873-1.041c0 .572.26.91 1.092.988l.546.053c.078 0 .156.051.156.155v.546l-.026.053s-1.976-.053-2.781-.053c-.729 0-2.756.053-2.756.053l-.053-.053v-.546c0-.104.078-.155.182-.155l.521-.053c.857-.078 1.118-.494 1.118-.988V6.892c0-.571-.313-.729-1.118-.805l-.521-.054c-.104 0-.182-.024-.182-.104V5.33l.026-.052s2.054.052 2.858.052c.702 0 2.705-.052 2.705-.052l.025.052v.572c0 .078-.053.13-.156.13l-.546.053c-.806.077-1.092.286-1.092.807zm8.01.988l.754.053c.104 0 .208.078.208.207v.494l-.052.053s-2.834-.053-3.458-.053c-.677 0-2.341.053-2.341.053l-.053-.053v-.494c0-.129.078-.207.209-.207 1.145-.078 1.793-.287 2.521-1.951l5.771-13.521c.285-.676.494-.937.885-.937.363 0 .494.261.701.781l5.33 14.092c.365 1.015.885 1.404 1.925 1.508l.286.025c.13 0 .26.078.26.209v.493l-.078.052s-2.002-.052-3.016-.052c-.91 0-3.459.052-3.459.052l-.025-.052v-.493c0-.131.052-.209.184-.209l.728-.052c.987-.077 1.353-.391 1.092-1.118l-1.586-4.395h-5.408c-.624 0-.78.104-.909.441l-1.509 3.771c-.26.652.078 1.225 1.04 1.303zm6.37-6.606l-2.522-6.941h-.052l-2.6 6.604c-.104.261.077.338.649.338h4.525z"/>
</svg>
