<?xml version="1.0" encoding="UTF-8" standalone="no"?>
<svg xmlns="http://www.w3.org/2000/svg" width="119" height="18" viewBox="0 0 119 18">
	<path d="M15.553.891c1.16.162 1.026.756.216 2.322l-1.431 2.7-.135-.135-1.323-2.727c-.73-1.539-.837-1.998.297-2.16.162-.162.162-.729 0-.891-.972.027-1.404.054-2.457.054C9.64.054 9.18.027 8.317 0c-.162.162-.135.729.027.891 1.16.162 1.377.54 2.268 2.457l2.268 4.833-2.997 6.129h-.135L4.807 3.051C4.132 1.512 4.213 1.08 5.914.891c.162-.162.162-.729 0-.891-1.27.027-1.944.054-2.997.054C1.837.054 1.377.027.109 0c-.162.162-.135.729.027.891 1.539.135 1.593.54 2.403 2.457l5.886 13.824c.162.405.35.621.62.621.298 0 .487-.216.649-.621l3.969-7.83 3.645 7.83c.135.405.35.621.62.621.298 0 .46-.216.649-.621l6.372-13.77c.567-1.242.89-2.295 2.673-2.511.162-.162.162-.729 0-.891-1.08.027-1.755.054-2.376.054S23.842.027 22.573 0c-.162.162-.162.729 0 .891 1.755.135 1.782.864 1.16 2.322l-5.13 11.097h-.134l-3.456-7.128 1.97-3.78c.676-1.242 1.27-2.295 2.674-2.511.162-.162.162-.729 0-.891-.675.027-1.35.054-1.971.054S16.552.027 15.553 0c-.162.162-.162.729 0 .891M29.585 15.77c0 .572.26.91 1.092.988l.546.053c.078 0 .156.051.156.155v.546l-.026.053s-1.976-.053-2.782-.053c-.728 0-2.756.053-2.756.053l-.052-.053v-.546c0-.104.078-.155.182-.155l.52-.053c.858-.078 1.118-.494 1.118-.988V7.112c0-.571-.313-.729-1.118-.805l-.52-.054c-.104 0-.182-.024-.182-.104V5.55l.026-.052s2.054.052 2.86.052c.702 0 2.704-.052 2.704-.052l.026.052v.572c0 .078-.052.13-.156.13l-.546.053c-.806.077-1.092.286-1.092.807zm7.673 0c0 .572.338.858 1.092.988l.286.053c.078.025.156.051.156.155v.546l-.026.053s-1.638-.053-2.418-.053c-.728 0-2.86.053-2.86.053l-.052-.053v-.546c0-.104.078-.155.182-.155l.52-.053c.78-.078 1.118-.494 1.118-.988V7.112c0-.571-.286-.729-1.118-.805l-.52-.054c-.104 0-.182-.024-.182-.104V5.55l.026-.052s2.132.052 2.938.052c.73 0 2.366-.052 2.366-.052l.026.052v.572c0 .078-.052.104-.156.13l-.286.053c-.806.155-1.092.286-1.092.807v3.926c.858 0 1.352-.441 2.496-1.664 1.04-1.145 1.846-2.105 1.846-2.6 0-.209-.234-.442-.754-.521-.104-.025-.156-.052-.156-.13v-.599l.026-.025s2.106.052 2.86.052c.676 0 1.82-.052 1.82-.052l.078.025v.599c0 .078-.078.13-.208.13-1.014.078-1.716.13-2.652 1.196l-2.236 2.573c-.442.469-.598.754-.598.963 0 .156.104.285.234.441l3.926 4.732c.312.363.936.52 1.456.623l.13.025c.078.026.182.078.182.156v.546l-.078.026s-1.378-.026-2.106-.026c-.65 0-1.586.026-1.586.026l-.026-.026v-.312c0-.339-.026-.623-.39-1.039l-2.886-3.589c-.39-.521-.806-.649-1.378-.649zm14.017 0c0 .572.26.91 1.092.988l.546.053c.078 0 .156.051.156.155v.546l-.026.053s-1.976-.053-2.782-.053c-.728 0-2.756.053-2.756.053l-.052-.053v-.546c0-.104.078-.155.182-.155l.52-.053c.858-.078 1.118-.494 1.118-.988V7.112c0-.571-.312-.729-1.118-.805l-.52-.054c-.104 0-.182-.024-.182-.104V5.55l.026-.052s2.054.052 2.86.052c.702 0 2.704-.052 2.704-.052l.026.052v.572c0 .078-.052.13-.156.13l-.546.053c-.806.077-1.092.286-1.092.807zm5.618-8.607c0-.806-.338-.832-1.56-.91-.156 0-.182-.077-.182-.13v-.598l.052-.026c.39 0 1.924.052 2.678.052.728 0 1.768-.052 2.73-.052 3.69 0 4.366 1.819 4.366 3.173 0 1.561-.754 4.004-4.444 4.004-.65 0-1.17-.053-1.639-.26v3.482c0 .572.312.703 1.145.832l.521.078c.104.026.182.053.182.156v.546l-.025.052s-2.08-.052-2.886-.052c-.728 0-2.678.052-2.678.052l-.026-.052v-.546c0-.104.052-.13.156-.156l.546-.078c.806-.104 1.066-.338 1.066-.832zm2.002 4.525c.52.209 1.17.234 1.69.234 1.561 0 2.312-.938 2.312-2.938 0-2.236-1.014-2.73-2.442-2.73-1.249 0-1.56.234-1.56.91zm10.56 5.824c-.78 0-2.573.053-2.573.053l-.027-.053v-.572c0-.051.027-.129.156-.129l.6-.053c.806-.078 1.04-.598 1.04-1.117v-8.58c0-.6-.313-.703-1.04-.754l-.6-.054c-.156-.024-.156-.077-.156-.104V5.55l.027-.052s2.027.052 2.807.052h3.822c.78 0 2.627-.052 2.627-.052l.053.052c.025 1.118.207 2.134.39 3.121l-.649.104c-.285-.963-.779-2.34-2.443-2.34h-2.08c-.494 0-.754.182-.754.623v3.771h1.95c.728 0 .91-.312 1.014-.832l.155-.546c0-.078.053-.131.156-.131h.441c.053 0 .053.027.053.078-.053.572-.156 1.301-.156 1.925 0 .649.104 1.196.156 1.794l-.053.053h-.44c-.13 0-.184-.053-.184-.131l-.13-.571c-.104-.521-.338-.807-1.016-.807h-1.948v3.979c0 .493.284.987.754.987h2.47c1.326 0 2.055-.832 2.366-2.185l.65.078-.522 2.989-.052.052s-1.534-.052-2.314-.052zm9.778-.701l.598-.053c.781-.078 1.041-.312 1.041-1.117v-8.58c0-.678-.184-.678-1.04-.754l-.57-.054c-.105 0-.185-.052-.185-.13v-.572l.025-.052s2.29.052 2.758.052c.492 0 2.756-.052 3.432-.052 4.342 0 6.475 2.704 6.475 6.162 0 4.551-3.225 5.901-6.11 5.901-2.08 0-2.989-.052-3.795-.052-.78 0-2.757.052-2.757.052l-.026-.052v-.546a.147.147 0 01.154-.153zm5.8 0c2.858 0 4.472-1.065 4.472-4.707 0-2.703-.599-5.851-4.967-5.851-1.014 0-1.664.156-1.664.808v8.58c0 .726.181 1.17 2.158 1.17zm12.872-1.041c0 .572.26.91 1.092.988l.546.053c.078 0 .156.051.156.155v.546l-.026.053s-1.976-.053-2.78-.053c-.73 0-2.757.053-2.757.053l-.053-.053v-.546c0-.104.078-.155.182-.155l.521-.053c.857-.078 1.118-.494 1.118-.988V7.112c0-.571-.313-.729-1.118-.805l-.52-.054c-.105 0-.183-.024-.183-.104V5.55l.026-.052s2.054.052 2.858.052c.702 0 2.705-.052 2.705-.052l.025.052v.572c0 .078-.053.13-.156.13l-.546.053c-.806.077-1.092.286-1.092.807zm8.01.988l.754.053c.104 0 .208.078.208.207v.494l-.052.053s-2.834-.053-3.458-.053c-.677 0-2.34.053-2.34.053l-.054-.053v-.494c0-.129.078-.207.21-.207 1.144-.078 1.792-.287 2.52-1.951l5.771-13.521c.285-.676.494-.937.885-.937.363 0 .494.261.701.781l5.33 14.092c.365 1.015.885 1.404 1.925 1.508l.286.025c.13 0 .26.078.26.209v.493l-.078.052s-2.002-.052-3.016-.052c-.91 0-3.459.052-3.459.052l-.025-.052v-.493c0-.131.052-.209.184-.209l.728-.052c.987-.077 1.353-.391 1.092-1.118l-1.586-4.395h-5.408c-.624 0-.78.104-.909.441l-1.509 3.771c-.26.652.078 1.225 1.04 1.303zm6.37-6.606l-2.522-6.941h-.052l-2.6 6.604c-.104.261.077.338.65.338h4.524z"/>
</svg>
