<?xml version="1.0" encoding="utf-8"?>
<!-- Generator: Adobe Illustrator 16.0.0, SVG Export Plug-In . SVG Version: 6.00 Build 0)  -->
<!DOCTYPE svg PUBLIC "-//W3C//DTD SVG 1.1//EN" "http://www.w3.org/Graphics/SVG/1.1/DTD/svg11.dtd">
<svg version="1.1" id="Wikiquote_logo" xmlns="http://www.w3.org/2000/svg" xmlns:xlink="http://www.w3.org/1999/xlink" x="0px"
	 y="0px" width="750.208px" height="750.208px" viewBox="1.518 -0.5 750.208 750.208"
	 enable-background="new 1.518 -0.5 750.208 750.208" xml:space="preserve">
<desc>Wikiquote logo - © and ™ All rights reserved, Wikimedia Foundation, Inc.</desc>
<circle fill="#01013A" cx="515.11" cy="196.524" r="58.3"/>
<circle fill="#003366" cx="383.91" cy="196.524" r="58.3"/>
<circle fill="#336699" cx="251.725" cy="196.524" r="58.3"/>
<g>
	<path fill="#003366" d="M561.825,267.901c23.239-15.261,38.613-41.557,38.613-71.375c0-29.818-15.372-56.111-38.609-71.374
		l20.542-20.54c28.281,20.752,46.674,54.225,46.674,91.913c0,37.691-18.396,71.166-46.68,91.916"/>
	<path fill="#3B6FA0" d="M621.863,65.118c38.188,31.083,62.621,78.445,62.621,131.407c0,52.963-24.436,100.328-62.626,131.409
		l-21.332-21.331c32.82-25.524,53.97-65.377,53.97-110.078c0-44.697-21.147-84.547-53.961-110.071"/>
	<path fill="#6FA0D0" d="M663.734,23.252c4.386,3.774,8.65,7.73,12.784,11.864c43.113,43.114,66.857,100.437,66.857,161.41
		s-23.744,118.294-66.857,161.408c-4.137,4.137-8.404,8.094-12.791,11.871l-22.049-22.049c43.206-36.22,70.722-90.572,70.722-151.23
		c0-60.659-27.517-115.011-70.722-151.231"/>
</g>
<g>
	<path d="M18.406,529.956L4.388,518.671c23.297-6.001,34.943-18.441,34.943-37.315c0-6.072-1.236-13.271-3.709-21.587h7.009
		c1.718,7.088,2.577,14.32,2.577,21.696C45.207,505.255,36.273,521.42,18.406,529.956z"/>
	<path d="M56.133,430.591l10.205-3.906c0,15.188,1.786,29.109,5.361,41.764c2.268,8.101,5.394,14.393,9.38,18.875
		c3.778,4.195,7.972,6.293,12.575,6.293v5.857c-7.148,0-13.366-2.53-18.658-7.598c-4.674-4.482-8.318-10.557-10.927-18.226
		C61.184,465.341,58.538,450.986,56.133,430.591z"/>
	<path d="M130.351,499.365c-9.275,0-16.355-3.542-21.234-10.632c-2.407,7.16-8.282,10.741-17.627,10.741v-5.857
		c3.984,0,7.042-1.663,9.174-4.993c1.921-2.962,2.886-6.544,2.886-10.739c0-6.219-1.821-10.628-5.463-13.233l9.689-4.882
		c1.444,8.609,2.853,14.719,4.226,18.334c3.778,10.125,9.895,15.293,18.348,15.511v5.751H130.351z M94.994,449.466
		c0-1.23,0.412-2.28,1.236-3.147c0.824-0.867,1.82-1.3,2.99-1.3c1.169,0,2.129,0.417,2.886,1.246
		c0.757,0.834,1.202,1.898,1.339,3.201c0,1.229-0.481,2.278-1.444,3.145c-0.688,0.868-1.614,1.3-2.783,1.3
		c-1.168,0-2.164-0.414-2.99-1.247C95.406,451.834,94.994,450.768,94.994,449.466z M103.447,449.466
		c0-1.156,0.394-2.186,1.184-3.093c0.789-0.903,1.735-1.354,2.835-1.354c2.817,0,4.226,1.482,4.226,4.449
		c0,2.965-1.41,4.446-4.226,4.446c-1.1,0-2.046-0.415-2.835-1.248C103.841,451.834,103.447,450.768,103.447,449.466z"/>
	<path d="M159.008,459.771c0,2.245,0.034,3.727,0.104,4.448c0.551,5.425,1.374,10.523,2.474,15.293
		c2.063,9.476,4.332,14.175,6.803,14.105c1.511-0.073,2.269-2.425,2.269-7.051c0-4.12-0.654-9.292-1.959-15.514
		c-1.237-5.928-2.545-9.69-3.917-11.282h9.381c1.236,7.667,1.856,14.722,1.856,21.152c0,12.367-2.543,18.552-7.629,18.552
		c-3.367,0-6.117-1.847-8.246-5.534c-1.307,3.688-3.542,5.534-6.7,5.534c-5.636,0-9.519-3.473-11.648-10.416
		c-2.267,6.943-6.838,10.416-13.709,10.416v-5.857c1.857-0.145,3.418-0.579,4.692-1.303c1.271-0.723,2.284-1.802,3.04-3.256
		c1.511-2.819,2.27-6.579,2.27-11.279c0-5.712-1.1-11.718-3.299-18.008h9.175c0,4.777,0.961,11.211,2.887,19.311
		c2.267,9.76,4.466,14.61,6.595,14.538c1.511-0.073,2.268-2.206,2.268-6.401c0-1.737-0.172-4.232-0.514-7.486
		c-0.277-2.171-0.79-5.027-1.547-8.569c-1.444-6.074-2.92-9.871-4.434-11.392H159.008L159.008,459.771L159.008,459.771z
		 M148.287,452.609c0.687,0.87,1.648,1.302,2.886,1.302c1.168,0,2.165-0.432,2.99-1.302c0.826-0.865,1.238-1.914,1.238-3.143
		c0-1.23-0.412-2.28-1.238-3.147c-0.824-0.867-1.821-1.3-2.99-1.3c-1.237,0-2.234,0.472-2.989,1.412
		c-0.757,0.94-1.134,1.952-1.134,3.038C147.117,450.913,147.53,451.962,148.287,452.609z M155.4,444.802
		c1.167,0,2.164-0.436,2.988-1.3c0.825-0.871,1.236-1.917,1.236-3.146c0-1.158-0.411-2.171-1.236-3.038
		c-0.824-0.867-1.82-1.301-2.988-1.301c-1.1,0-2.079,0.434-2.938,1.301c-0.862,0.866-1.29,1.88-1.29,3.038
		C151.447,443.32,152.856,444.802,155.4,444.802z M159.625,453.914c1.237,0,2.25-0.415,3.041-1.248
		c0.789-0.832,1.186-1.898,1.186-3.198c0-1.232-0.431-2.282-1.288-3.146c-0.86-0.867-1.839-1.303-2.938-1.303
		c-1.1,0-2.08,0.489-2.938,1.466c-0.86,0.974-1.287,1.968-1.287,2.983C155.673,452.431,157.083,453.914,159.625,453.914z"/>
	<path d="M212.299,494.266c-2.2,3.47-4.742,5.208-7.628,5.208c-3.437,0-6.77-1.662-9.999-4.992c-2.68-2.745-4.708-6.58-6.083-11.498
		c-0.412-1.59-0.619-3.542-0.619-5.857c0-4.559,0.892-8.424,2.68-11.608c2.129-3.833,5.222-5.75,9.276-5.75
		c5.84,0,10.271,2.929,13.298,8.787l5.979,16.272c1.031,2.677,2.541,4.812,4.536,6.401c1.992,1.587,4.158,2.385,6.494,2.385v5.857
		c-5.566,0-9.759-2.131-12.577-6.398c-1.922,15.837-10.137,28.129-24.635,36.883l-13.917-11.289
		C195.736,515.347,206.801,507.211,212.299,494.266z M203.743,474.416l5.259-2.604c-2.063-5.643-5.293-8.461-9.69-8.461
		c-2.819,0-4.262,3.179-4.332,9.544c-0.069,3.685,0.516,7.703,1.754,12.042c1.58,5.781,3.711,8.68,6.392,8.68
		c1.921,0,2.919-2.388,2.99-7.16C206.114,481.179,205.324,477.166,203.743,474.416z"/>
	<path d="M227.967,493.617c3.16,0,5.634-1.285,7.422-3.851c1.787-2.566,2.68-5.659,2.68-9.276c0-5.566-1.959-10.775-5.876-15.619
		l7.732-5.1c3.022,4.918,4.536,11.102,4.536,18.55c0,9.979-2.99,16.486-8.968,19.524c-2.268,1.086-4.777,1.631-7.525,1.631V493.617
		L227.967,493.617z M231.472,449.466c0-1.156,0.428-2.186,1.288-3.093c0.859-0.903,1.837-1.354,2.938-1.354
		c1.167,0,2.129,0.417,2.886,1.246c0.757,0.834,1.202,1.898,1.339,3.201c0,1.229-0.483,2.278-1.444,3.143
		c-0.688,0.87-1.615,1.302-2.783,1.302C232.879,453.914,231.472,452.431,231.472,449.466z"/>
	<path d="M291.98,529.956l-14.019-11.284c23.297-6.001,34.943-18.441,34.943-37.315c0-6.072-1.236-13.271-3.709-21.587h7.008
		c1.716,7.088,2.576,14.32,2.576,21.696C318.78,505.255,309.847,521.42,291.98,529.956z"/>
	<path d="M344.24,499.474l-14.536-69.426l8.968-3.797l13.917,66.821L344.24,499.474z"/>
	<path d="M411.038,499.474c-6.392,0-11.786-1.955-16.185-5.857c-0.824,5.06-2.405,10.049-4.741,14.97
		c-4.949,10.557-11.958,17.682-21.028,21.369l-14.02-11.284c23.296-6.001,34.945-18.441,34.945-37.315
		c0-6.072-1.236-13.271-3.711-21.587h7.009c0.413,6.438,1.272,12.078,2.578,16.923c3.023,11.07,8.073,16.709,15.152,16.928
		L411.038,499.474L411.038,499.474z M384.647,449.466c0-1.156,0.429-2.186,1.287-3.093c0.859-0.903,1.839-1.354,2.938-1.354
		c1.168,0,2.165,0.433,2.989,1.3c0.826,0.867,1.238,1.917,1.238,3.147c0,1.229-0.412,2.278-1.238,3.143
		c-0.823,0.87-1.821,1.302-2.989,1.302c-1.237,0-2.199-0.432-2.886-1.302C385.095,451.817,384.647,450.768,384.647,449.466z"/>
	<path d="M432.064,489.926c-5.359,6.365-13.126,9.548-23.295,9.548v-5.857c3.504,0,6.663-0.472,9.482-1.411
		c3.916-1.298,6.904-3.217,8.967-5.749c-2.268-1.298-4.571-3.581-6.906-6.834c-2.612-3.615-4.056-7.158-4.331-10.632l-0.207-3.038
		c-0.275-4.12,0.928-7.557,3.609-10.301l-9.482-4.337l-0.207-3.796c-0.342-5.208,1.064-10.088,4.227-14.646
		c2.816-4.049,5.979-6.107,9.482-6.183c7.559-0.071,13.915,5.57,19.07,16.923c1.991,4.485,3.504,9.654,4.535,15.511
		c0.757,4.413,1.135,9.763,1.135,16.054c0,11.354-3.23,17.032-9.689,17.032C436.602,492.206,434.47,491.446,432.064,489.926z
		 M437.014,466.496c0.755,2.75,1.133,5.571,1.133,8.461c0,3.472-0.586,6.401-1.753,8.789l1.753,0.759
		c0.411,0.145,0.927,0.289,1.548,0.433c3.366,0,5.051-3.941,5.051-11.825c0-8.531-1.685-16.921-5.051-25.164
		c-3.711-9.182-8.042-13.849-12.989-13.993c-0.758,0-1.685,0.217-2.783,0.649c-3.505,1.373-5.258,5.171-5.258,11.391
		c0,2.893,0.48,5.713,1.442,8.459C429.109,454.455,434.744,458.469,437.014,466.496z M431.755,481.575
		c0.963-1.085,1.444-2.785,1.444-5.101c0-3.902-0.997-7.919-2.99-12.039c-1.994-4.123-4.122-6.22-6.39-6.292
		c-1.65,0-2.474,1.233-2.474,3.688c0,3.399,1.098,7.199,3.298,11.39C426.842,477.417,429.213,480.203,431.755,481.575z"/>
	<path d="M486.183,469.316c2.748,5.208,4.121,11.21,4.121,18.008c0,8.968-2.303,17.248-6.904,24.839
		c-4.331,7.305-10.344,13.234-18.038,17.793l-14.021-11.284c16.562-3.472,27.66-11.604,33.296-24.407
		c-2.199,3.472-4.743,5.21-7.629,5.21c-3.644,0-7.009-1.662-10.103-4.992c-2.886-3.107-4.88-6.94-5.979-11.498
		c-0.482-1.805-0.721-3.76-0.721-5.857c0-4.7,0.928-8.604,2.782-11.715c2.199-3.76,5.291-5.643,9.277-5.643
		C478.177,459.771,482.813,462.955,486.183,469.316z M481.337,471.812c-2.13-5.643-5.394-8.461-9.791-8.461
		c-2.955,0-4.397,3.179-4.331,9.544c0.069,3.685,0.687,7.703,1.856,12.042c1.651,5.781,3.778,8.68,6.39,8.68
		c1.993,0,2.955-2.388,2.887-7.16c-0.069-5.495-0.86-9.509-2.371-12.041L481.337,471.812z"/>
	<path d="M506.693,459.771c8.934,0,16.563,2.458,22.885,7.375c4.879,3.836,7.319,8.317,7.319,13.452
		c0,6.438-3.264,11.355-9.791,14.753c-5.154,2.75-11.101,4.123-17.831,4.123c-2.683,0-5.294-0.146-7.837-0.436v-14.861
		c5.773,1.518,10.651,2.279,14.638,2.279c3.229,0,6.149-0.468,8.763-1.408c3.642-1.303,5.463-3.363,5.463-6.185
		c0-2.678-1.685-4.917-5.052-6.725c-3.85-2.098-9.07-3.146-15.67-3.146L506.693,459.771z"/>
	<path d="M620.289,459.771c3.366,22.346,9.14,33.627,17.317,33.846v5.857c-5.359,0-9.519-2.134-12.471-6.401
		c0,6.511-1.582,11.533-4.743,15.078c-3.229,3.761-7.902,5.641-14.019,5.641c-9.071,0-16.289-4.99-21.648-14.971
		c-1.994-3.614-3.813-8.605-5.464-14.97l10.927-5.967c4.397,20.613,10.444,30.99,18.142,31.136l1.03-0.11
		c7.282-0.866,10.927-6.942,10.927-18.223c0-4.268-0.5-8.948-1.496-14.054c-0.997-5.098-2.525-10.72-4.588-16.868h6.084v0.005
		H620.289z M604.931,464.109c0,2.679-1.41,4.16-4.225,4.446c-2.751,0-4.123-1.481-4.123-4.446c0-1.154,0.413-2.17,1.236-3.038
		c0.823-0.867,1.786-1.3,2.887-1.3C603.245,459.771,604.655,461.219,604.931,464.109z"/>
	<path d="M681.519,459.771c0,5.424,0.584,11.065,1.753,16.923c2.337,11.282,6.459,16.923,12.369,16.923v5.857
		c-6.325,0-10.755-2.494-13.298-7.486c-1.235,4.995-3.438,7.486-6.596,7.486c-3.369,0-6.118-1.844-8.247-5.532
		c-1.171,3.688-3.401,5.532-6.699,5.532c-5.499,0-9.38-3.471-11.649-10.413c-0.962,3.183-2.68,5.716-5.154,7.596
		c-2.473,1.88-5.327,2.819-8.556,2.819v-5.856c1.374,0,2.802-0.4,4.279-1.194c1.478-0.793,2.629-1.911,3.453-3.364
		c1.51-2.675,2.268-6.435,2.268-11.28c0-5.494-1.1-11.499-3.299-18.006h9.176c0,4.485,0.961,10.919,2.886,19.31
		c2.128,9.62,4.331,14.465,6.597,14.537c1.511,0.073,2.267-2.063,2.267-6.401c0-4.772-0.704-10.125-2.113-16.056
		c-1.409-5.926-2.868-9.726-4.382-11.388h9.792c0,6.002,0.859,12.582,2.576,19.742c2.128,9.402,4.397,14.103,6.803,14.103
		c1.443,0,2.198-2.348,2.269-7.051c0-3.615-0.516-8.279-1.547-13.993c-1.236-6.581-2.681-10.849-4.33-12.801h9.381v-0.006H681.519z
		 M652.863,449.466c0-1.23,0.411-2.28,1.235-3.147c0.823-0.867,1.818-1.3,2.989-1.3c1.097,0,2.062,0.452,2.886,1.354
		c0.824,0.907,1.236,1.937,1.236,3.093c0,2.965-1.377,4.445-4.122,4.445c-1.171,0-2.166-0.414-2.989-1.247
		C653.274,451.834,652.863,450.768,652.863,449.466z M656.986,440.354c0-1.156,0.411-2.17,1.235-3.037
		c0.823-0.868,1.818-1.301,2.989-1.301c1.099,0,2.062,0.433,2.887,1.301c0.823,0.866,1.235,1.881,1.235,3.037
		c0,1.229-0.412,2.278-1.235,3.145c-0.825,0.868-1.789,1.3-2.887,1.3C658.669,444.802,657.258,443.32,656.986,440.354z
		 M661.213,449.466c0-1.23,0.41-2.28,1.234-3.147c0.823-0.867,1.787-1.3,2.887-1.3c2.68,0,4.122,1.482,4.331,4.449
		c0,1.158-0.446,2.186-1.339,3.092c-0.895,0.904-1.891,1.352-2.989,1.352C662.792,453.914,661.418,452.431,661.213,449.466z"/>
	<path d="M693.371,493.617c1.375,0,3.438-0.055,6.186-0.164c2.746-0.108,4.809-0.163,6.184-0.163c1.651,0,2.887-0.036,3.711-0.107
		c0.207-0.07,1.753-0.397,4.64-0.977c8.794-1.88,16.114-5.931,21.957-12.15c-2.68-2.457-6.185-8.817-10.516-19.087
		c-3.71-8.971-6.666-13.453-8.863-13.453c-3.093,0-4.676,4.231-4.743,12.692c0,5.137,0.583,11.355,1.753,18.657l-13.607-2.928
		c0-6.943,0.928-13.345,2.782-19.2c2.956-9.038,7.56-13.595,13.815-13.67c4.466-0.075,8.144,1.665,11.03,5.208
		c1.786,2.169,3.881,6.184,6.285,12.041c2.543,6.292,4.604,10.559,6.186,12.8c0.893,1.157,2.063,1.737,3.505,1.737
		c-0.07,0,0.515-0.072,1.752-0.218c1.511-0.359,2.887-0.762,4.122-1.194v5.752c-4.468,0.505-7.56,1.59-9.275,3.253
		c-7.218,7.09-15.326,12.007-24.328,14.755c-2.27,0.647-5.567,1.19-9.896,1.626c-0.344,0-1.857,0.109-4.537,0.325
		c-3.986,0.216-6.699,0.324-8.144,0.324L693.371,493.617L693.371,493.617z M717.803,509.778c0-1.229,0.411-2.276,1.235-3.144
		c0.823-0.867,1.786-1.303,2.887-1.303c1.235,0,2.25,0.415,3.041,1.247c0.789,0.829,1.184,1.899,1.184,3.199
		c0,2.895-1.408,4.34-4.225,4.34C719.383,514.118,718.009,512.67,717.803,509.778z"/>
	<path d="M163.55,613.568c8.933,0,16.562,2.458,22.885,7.376c4.879,3.834,7.319,8.316,7.319,13.451
		c0,6.438-3.265,11.355-9.791,14.752c-5.156,2.751-11.101,4.124-17.834,4.124c-2.68,0-5.292-0.146-7.834-0.437v-14.86
		c5.773,1.518,10.651,2.279,14.636,2.279c3.229,0,6.151-0.469,8.763-1.409c3.644-1.303,5.463-3.363,5.463-6.184
		c0-2.678-1.685-4.917-5.051-6.726c-3.851-2.098-9.071-3.146-15.669-3.146L163.55,613.568z"/>
	<path d="M210.452,683.751l-14.019-11.283c23.296-6.002,34.944-18.442,34.944-37.316c0-6.072-1.237-13.27-3.71-21.586h7.009
		c1.716,7.086,2.577,14.319,2.577,21.694C237.252,659.052,228.318,675.216,210.452,683.751z"/>
	<path d="M274.362,623.113c2.748,5.208,4.121,11.21,4.121,18.007c0,8.968-2.303,17.25-6.905,24.842
		c-4.33,7.302-10.344,13.231-18.04,17.79l-14.019-11.283c16.561-3.47,27.66-11.605,33.295-24.406
		c-2.2,3.471-4.743,5.209-7.629,5.209c-3.645,0-7.009-1.663-10.103-4.992c-2.887-3.108-4.881-6.941-5.977-11.498
		c-0.483-1.806-0.722-3.761-0.722-5.858c0-4.698,0.926-8.604,2.783-11.716c2.199-3.758,5.292-5.641,9.278-5.641
		C266.356,613.568,270.993,616.75,274.362,623.113z M269.517,625.608c-2.129-5.641-5.395-8.461-9.791-8.461
		c-2.956,0-4.399,3.18-4.332,9.545c0.069,3.684,0.686,7.703,1.857,12.041c1.649,5.782,3.778,8.68,6.39,8.68
		c1.993,0,2.956-2.39,2.887-7.159c-0.069-5.495-0.86-9.51-2.371-12.042L269.517,625.608z"/>
	<path d="M289.617,584.387l10.206-3.906c0,15.188,1.787,29.109,5.361,41.764c2.268,8.101,5.394,14.393,9.379,18.875
		c3.779,4.195,7.972,6.293,12.577,6.293v5.858c-7.15,0-13.368-2.531-18.659-7.596c-4.674-4.482-8.317-10.558-10.928-18.225
		C294.668,619.137,292.021,604.783,289.617,584.387z"/>
	<path d="M363.834,653.162c-9.277,0-16.356-3.543-21.235-10.632c-2.407,7.159-8.283,10.741-17.627,10.741v-5.858
		c3.985,0,7.042-1.662,9.175-4.992c1.922-2.963,2.885-6.544,2.885-10.739c0-6.22-1.821-10.635-5.463-13.234l9.689-4.881
		c1.444,8.607,2.852,14.718,4.227,18.333c3.777,10.125,9.895,15.294,18.348,15.511v5.752H363.834z M328.477,603.262
		c0-1.23,0.411-2.28,1.236-3.146c0.823-0.868,1.818-1.3,2.99-1.3c1.167,0,2.128,0.417,2.885,1.245
		c0.757,0.834,1.202,1.897,1.34,3.201c0,1.229-0.482,2.278-1.444,3.144c-0.688,0.869-1.614,1.302-2.783,1.302
		s-2.164-0.414-2.989-1.247C328.889,605.631,328.477,604.564,328.477,603.262z M336.93,603.262c0-1.155,0.395-2.187,1.185-3.093
		c0.789-0.902,1.735-1.354,2.835-1.354c2.816,0,4.225,1.48,4.225,4.448c0,2.965-1.41,4.446-4.225,4.446
		c-1.1,0-2.046-0.415-2.835-1.245C337.324,605.631,336.93,604.564,336.93,603.262z"/>
	<path d="M397.335,653.271c-7.902,0-14.673-2.857-20.307-8.572c-0.894,2.315-2.544,4.27-4.947,5.857
		c-1.512,1.016-3.042,1.72-4.588,2.116c-1.547,0.398-3.522,0.599-5.928,0.599v-5.967c6.665,0,10.548-2.497,11.648-7.486
		c-6.943-6.363-10.411-15.002-10.411-25.926c0-4.123,0.653-7.738,1.958-10.849c1.65-4.122,4.192-6.183,7.629-6.183
		c4.054,0,7.215,2.169,9.482,6.507c2.129,4.053,3.195,9.186,3.195,15.403c0,6.292-1.031,12.551-3.093,18.769
		c4.466,6.58,9.585,9.87,15.358,9.87L397.335,653.271L397.335,653.271z M369.555,589.917c0.789,0.797,1.735,1.194,2.834,1.194
		c2.816-0.293,4.226-1.806,4.226-4.562c-0.276-2.961-1.685-4.445-4.227-4.445c-2.818,0.29-4.225,1.774-4.225,4.445
		C368.3,588.003,368.763,589.123,369.555,589.917z M379.192,617.583c0-9.694-2.406-14.539-7.216-14.539
		c-1.307,0-1.926,1.231-1.857,3.688c0,2.82,0.859,7.199,2.577,13.127c1.856,6.219,3.54,10.162,5.052,11.823
		C378.711,626.404,379.192,621.702,379.192,617.583z"/>
	<path d="M426.401,620.944l0.207,2.169v1.843c0,7.312-2.268,13.526-6.803,18.658c-5.704,6.438-13.952,9.657-24.74,9.657v-5.858
		c3.022,0,5.876-0.58,8.556-1.737c7.56-3.397,11.339-10.053,11.339-19.959c0-4.919-1.15-9.618-3.452-14.104
		c-2.303-4.482-5.411-7.956-9.328-10.415l4.845-5.099c-3.779,0.505-7.387,0.759-10.823,0.759l4.226-9.438
		c10.516,0,21.269-4.665,32.265-13.992c8.519-7.232,15.771-15.768,21.75-25.603v17.682c-2.681,4.917-7.285,10.089-13.814,15.512
		c-8.451,7.159-17.489,11.826-27.111,13.993C421.145,603.262,425.439,611.906,426.401,620.944z M405.89,577.227
		c-1.512,0.147-3.367,0.217-5.565,0.217l2.473-5.531c6.323,0,12.782-2.784,19.38-8.354c5.085-4.34,9.414-9.476,12.988-15.405v10.633
		c-1.375,2.748-4.121,5.857-8.246,9.328C421.97,572.237,414.96,575.275,405.89,577.227z"/>
	<path d="M486.818,649.725c3.437,1.304,6.458,3.22,9.07,5.751c2.887,2.821,4.364,5.674,4.435,8.568
		c0.067,4.411-3.299,8.207-10.104,11.389c-6.323,2.966-13.674,4.449-22.061,4.449c-12.231,0-21.234-3.003-27.009-9l3.711-11.933
		c7.971,8.094,18.453,12.144,31.439,12.144c3.711,0,7.218-0.469,10.516-1.407c4.809-1.521,7.217-3.725,7.217-6.617
		c0-2.388-2.063-4.826-6.186-7.317c-4.121-2.496-8.83-3.783-14.122-3.851c-3.645,0-7.25,0.794-10.823,2.384v-5.856
		c2.887-2.022,7.008-3.435,12.369-4.229l7.629-0.108l18.452-0.758v5.965l-8.453,0.218
		C491.524,649.51,489.498,649.581,486.818,649.725z"/>
	<path d="M558.46,561.535c-2.476,4.774-7.079,9.943-13.814,15.511c-8.317,7.09-17.352,11.754-27.112,13.993
		c8.659,9.112,13.022,18.984,13.094,29.616c0.068,8.027-2.578,14.753-7.938,20.178c-5.637,5.64-13.505,8.46-23.605,8.46v-5.856
		c3.023,0,5.876-0.542,8.556-1.629c7.424-3.181,11.202-9.869,11.339-20.069c0-4.915-1.132-9.6-3.4-14.045
		c-2.27-4.449-5.396-7.938-9.381-10.471l4.847-5.098c-3.645,0.504-7.251,0.758-10.823,0.758l4.225-9.438
		c10.375,0,21.131-4.667,32.264-13.998c8.521-7.086,15.772-15.617,21.751-25.599L558.46,561.535L558.46,561.535z M549.285,649.292
		c-4.331,0-8.246-0.688-11.751-2.063c-7.629-2.891-11.442-9.11-11.442-18.655v-1.193l0.104-1.409l4.33-3.904
		c0,7.592,2.096,13.271,6.289,17.031c1.991,1.808,4.981,3.144,8.967,4.011c0.137,0,1.304,0.108,3.504,0.327V649.292z"/>
	<path d="M547.015,643.436c1.443,0,2.921-0.327,4.435-0.977c4.056-1.663,6.082-5.713,6.082-12.15c0-5.495-1.923-10.703-5.773-15.62
		l7.733-5.099c3.021,5.135,4.536,11.319,4.536,18.549c0,6.002-1.202,10.848-3.607,14.535c-1.443,2.243-3.298,3.905-5.566,4.989
		c-2.268,1.089-4.881,1.632-7.835,1.632v-5.857h-0.004V643.436z M550.521,659.596c0-2.966,1.407-4.445,4.225-4.445
		c1.169,0,2.164,0.434,2.99,1.3c0.823,0.867,1.235,1.914,1.235,3.144c0,1.018-0.43,1.987-1.287,2.929
		c-0.861,0.94-1.84,1.411-2.938,1.411C551.929,663.937,550.521,662.489,550.521,659.596z M558.973,659.596
		c0-2.966,1.339-4.445,4.02-4.445c1.169,0,2.166,0.397,2.989,1.19c0.824,0.795,1.236,1.879,1.236,3.253
		c0,2.897-1.41,4.34-4.227,4.34C560.313,663.937,558.973,662.489,558.973,659.596z"/>
	<path d="M601.339,619.135c2.749,5.207,4.122,11.21,4.122,18.007c0,8.968-2.303,17.25-6.904,24.842
		c-4.331,7.303-10.344,13.232-18.039,17.791l-14.019-11.284c16.562-3.47,27.66-11.605,33.295-24.405
		c-2.198,3.469-4.742,5.207-7.628,5.207c-3.645,0-7.009-1.661-10.103-4.993c-2.887-3.106-4.881-6.939-5.979-11.497
		c-0.481-1.804-0.72-3.759-0.72-5.856c0-4.701,0.926-8.605,2.782-11.716c2.198-3.76,5.29-5.643,9.276-5.643
		C593.332,609.59,597.972,612.774,601.339,619.135z M596.495,621.631c-2.131-5.644-5.395-8.463-9.791-8.463
		c-2.956,0-4.398,3.181-4.331,9.545c0.068,3.686,0.687,7.704,1.855,12.042c1.651,5.782,3.778,8.681,6.391,8.681
		c1.993,0,2.954-2.391,2.887-7.161c-0.07-5.495-0.861-9.508-2.372-12.041L596.495,621.631z"/>
</g>
<g>
	<path fill="#6699CC" d="M183.185,22.244c5.929,1.591,10.24,14.048,10.24,32.258c0,23.337-6.054,38.963-16.812,55.5
		c-12.01,18.462-29.523,30.341-51.91,32.619c-1.699,0.173-5.134,0.193-6.831,0c-1.415-0.161-5.549-1.282-5.549-1.282
		c-1.426,0-2.426,1.141-2.988,3.416c0,3.416,1.562,9.537,4.696,18.355c15.367,44.113,23.051,86.373,23.051,126.78
		c0,35.004-5.803,64.112-21.344,80.252c0,0-4.458-6.473-6.403-27.747c-5.319-58.204-26.184-115.822-53.786-172.455
		c-12.242-24.473-26.756-49.944-43.541-76.409c0,0-2.266-30.455,8.438-50.029c5.833-10.667,15.467-18.697,15.467-18.697
		s10.533,19.197,20.199,30.031c9.593,10.751,25.331,19.486,43.832,19.486c23.333,0,41.032-5.542,53.785-15.795
		C166.613,48.168,183.185,22.244,183.185,22.244z"/>
</g>
</svg>
