<?xml version="1.0" encoding="UTF-8" standalone="no"?>
<!-- Created with Inkscape (http://www.inkscape.org/) -->

<svg
   xmlns:dc="http://purl.org/dc/elements/1.1/"
   xmlns:cc="http://creativecommons.org/ns#"
   xmlns:rdf="http://www.w3.org/1999/02/22-rdf-syntax-ns#"
   xmlns:svg="http://www.w3.org/2000/svg"
   xmlns="http://www.w3.org/2000/svg"
   xmlns:xlink="http://www.w3.org/1999/xlink"
   xmlns:sodipodi="http://sodipodi.sourceforge.net/DTD/sodipodi-0.dtd"
   xmlns:inkscape="http://www.inkscape.org/namespaces/inkscape"
   id="svg2239"
   sodipodi:version="0.32"
   inkscape:version="0.48.3.1 r9886"
   width="150"
   height="150"
   version="1.0"
   sodipodi:docname="Wikiquote-logo-ml-path.svg"
   inkscape:output_extension="org.inkscape.output.svg.inkscape"
   sodipodi:modified="true">
  <metadata
     id="metadata2244">
    <rdf:RDF>
      <cc:Work
         rdf:about="">
        <dc:format>image/svg+xml</dc:format>
        <dc:type
           rdf:resource="http://purl.org/dc/dcmitype/StillImage" />
        <dc:title></dc:title>
      </cc:Work>
    </rdf:RDF>
  </metadata>
  <defs
     id="defs2242">
    <linearGradient
       id="linearGradient3857">
      <stop
         style="stop-color:#003;stop-opacity:1"
         offset="0"
         id="stop3869" />
      <stop
         style="stop-color:#002c5f;stop-opacity:1"
         offset="1"
         id="stop3865" />
    </linearGradient>
    <radialGradient
       cx="43.891438"
       cy="50.734135"
       r="16.11969"
       fx="43.891438"
       fy="50.734135"
       id="radialGradient5710"
       xlink:href="#linearGradient3857"
       gradientUnits="userSpaceOnUse"
       gradientTransform="matrix(1,0,0,1.018727,0,-0.950076)" />
  </defs>
  <sodipodi:namedview
     inkscape:window-height="876"
     inkscape:window-width="1600"
     inkscape:pageshadow="2"
     inkscape:pageopacity="0.0"
     guidetolerance="10.0"
     gridtolerance="10.0"
     objecttolerance="10.0"
     borderopacity="1.0"
     bordercolor="#666666"
     pagecolor="#ffffff"
     id="base"
     inkscape:zoom="2.7133334"
     inkscape:cx="54.007933"
     inkscape:cy="57.730517"
     inkscape:window-x="0"
     inkscape:window-y="24"
     inkscape:current-layer="g2234"
     showgrid="false"
     inkscape:window-maximized="1" />
  <g
     id="g2234">
    <g
       id="g5717"
       transform="translate(8.8129726,10.616077)">
      <path
         id="path2077"
         style="fill:url(#radialGradient5710);fill-opacity:1;stroke:#000000;stroke-width:0;stroke-miterlimit:4;stroke-dasharray:none;stroke-opacity:1"
         transform="matrix(1.023938,0,0,1,-1.447674,-0.312578)"
         d="M 60.011127,50.734135 C 60.013345,59.805107 52.795664,67.159781 43.891438,67.159781 C 34.987211,67.159781 27.76953,59.805107 27.771748,50.734135 C 27.76953,41.663163 34.987211,34.308489 43.891438,34.308489 C 52.795664,34.308489 60.013345,41.663163 60.011127,50.734135 z " />
      <path
         id="path3905"
         style="fill:none;fill-rule:evenodd;stroke:#003366;stroke-width:8.19999981;stroke-linecap:butt;stroke-linejoin:miter;stroke-miterlimit:4;stroke-dasharray:none;stroke-opacity:1"
         d="M 61.1,28.9 C 61.1,28.9 86.099999,52.9 59.1,73.9" />
      <path
         id="path4794"
         style="fill:none;fill-rule:evenodd;stroke:#336699;stroke-width:8.19999981;stroke-linecap:butt;stroke-linejoin:miter;stroke-miterlimit:4;stroke-dasharray:none;stroke-opacity:1"
         d="M 72.858506,17.32036 C 72.858506,17.32036 106.55227,52.308313 71.1,84.9" />
      <path
         id="path5681"
         style="fill:none;fill-rule:evenodd;stroke:#6699cc;stroke-width:8.19999981;stroke-linecap:butt;stroke-linejoin:miter;stroke-miterlimit:4;stroke-dasharray:none;stroke-opacity:1"
         d="M 84.432745,6.0999999 C 84.432745,6.0999999 128.99372,50.747692 83.157226,96.500773" />
    </g>
    <g
       id="g3008"
       style="fill:#4d4d4d"
       transform="translate(2,0)">
      <g
         transform="matrix(0.90928545,0,0,1.0992336,133.57252,-30.688276)"
         style="font-size:12px;font-style:italic;font-variant:normal;font-weight:bold;font-stretch:normal;line-height:125%;letter-spacing:0px;word-spacing:0px;fill:#4d4d4d;fill-opacity:1;stroke:none;font-family:RaghuMalayalam;-inkscape-font-specification:Sans Bold"
         id="flowRoot3030">
        <path
           d="m -125.44531,144.14925 -9.44531,0 0,-0.46875 c 1.70311,-1.23437 2.55467,-2.64843 2.55468,-4.24218 -1e-5,-1.28125 -0.36719,-2.28906 -1.10156,-3.02344 -0.75001,-0.73437 -1.63282,-1.10155 -2.64844,-1.10156 -1.14063,1e-5 -2.03906,0.40626 -2.69531,1.21875 -0.65625,0.8125 -0.98438,1.78125 -0.98437,2.90625 -10e-6,0.875 0.20312,1.6875 0.60937,2.4375 0.42187,0.76562 1.02343,1.34375 1.80469,1.73437 l -0.39844,0.77344 c -1.01563,-0.5625 -1.77344,-1.32812 -2.27344,-2.29688 -0.51562,-0.96874 -0.77344,-1.99999 -0.77343,-3.09375 -10e-6,-1.53124 0.46874,-2.85155 1.40625,-3.96093 0.95312,-1.09374 2.24999,-1.64062 3.89062,-1.64063 1.39062,1e-5 2.60155,0.46876 3.63281,1.40625 1.01562,0.93751 1.52343,2.2422 1.52344,3.91406 -1e-5,1.64063 -0.66407,3.17969 -1.99219,4.61719 l 4.89844,0 0,-9.75 1.99219,0 0,10.57031"
           style="font-size:24px;font-style:normal;fill:#4d4d4d;font-family:Rachana;-inkscape-font-specification:Rachana Bold"
           id="path3094" />
        <path
           d="m -119.30469,144.14925 -2.01562,0 0,-10.71093 c -10e-6,-0.76562 -0.21094,-1.35155 -0.63282,-1.75782 -0.40625,-0.40623 -0.89844,-0.60936 -1.47656,-0.60937 -0.57812,1e-5 -1.07812,0.18751 -1.5,0.5625 -0.42187,0.37501 -0.625,0.88282 -0.60937,1.52344 l -0.82032,0 c 0.0156,-1.07812 0.38282,-1.92186 1.10157,-2.53125 0.71875,-0.59374 1.5625,-0.89061 2.53125,-0.89063 0.92187,2e-5 1.72656,0.28127 2.41406,0.84375 0.67187,0.56252 1.00781,1.35158 1.00781,2.36719 l 0,11.20312"
           style="font-size:24px;font-style:normal;fill:#4d4d4d;font-family:Rachana;-inkscape-font-specification:Rachana Bold"
           id="path3096" />
        <path
           d="m -93.078125,138.89925 c -2.6e-5,1.14063 -0.257838,2.15626 -0.773437,3.04688 -0.500025,0.875 -1.234399,1.71875 -2.203125,2.53125 L -97.25,143.96175 c 0.671853,-0.59374 1.203102,-1.29687 1.59375,-2.10937 0.406227,-0.82812 0.609351,-1.67968 0.609375,-2.55469 -2.4e-5,-1.20312 -0.382836,-2.27343 -1.148437,-3.21094 -0.765647,-0.93749 -1.726584,-1.40624 -2.882813,-1.40625 -0.875019,1e-5 -1.640645,0.32814 -2.296875,0.98438 -0.67189,0.67188 -1.10158,1.44532 -1.28906,2.32031 l 0.23437,0 c 0.59374,1e-5 1.0703,0.008 1.42969,0.0234 0.35936,0.0313 0.75779,0.10938 1.195313,0.23437 0.43748,0.10939 0.78123,0.28126 1.03125,0.51563 0.249979,0.21876 0.460917,0.53907 0.632812,0.96094 0.171854,0.40625 0.257792,0.91406 0.257813,1.52343 -2.1e-5,0.89063 -0.242209,1.63282 -0.726563,2.22657 -0.50002,0.57812 -1.187519,0.86718 -2.062505,0.86718 -0.89064,0 -1.6172,-0.46093 -2.17968,-1.38281 -0.54689,-0.9375 -0.82033,-1.88281 -0.82032,-2.83594 -1e-5,-0.28124 0.0156,-0.71093 0.0469,-1.28906 l -1.125,0 c -1e-5,0.84376 -0.10158,1.65626 -0.30469,2.4375 -0.21876,0.78125 -0.6172,1.49219 -1.19531,2.13281 -0.56251,0.625 -1.28907,0.9375 -2.17969,0.9375 -1.31251,0 -2.28126,-0.64062 -2.90625,-1.92187 -0.21875,0.53125 -0.53907,0.98438 -0.96094,1.35937 -0.40625,0.375 -0.86719,0.5625 -1.38281,0.5625 -0.92188,0 -1.67969,-0.33593 -2.27344,-1.00781 -0.59375,-0.6875 -0.89062,-1.5 -0.89062,-2.4375 0,-0.53124 0.0859,-0.98437 0.25781,-1.35937 0.15625,-0.375 0.35938,-0.66406 0.60938,-0.86719 0.23437,-0.20312 0.56249,-0.35156 0.98437,-0.44531 0.40625,-0.10937 0.77344,-0.17968 1.10156,-0.21094 0.32812,-0.0156 0.75,-0.0234 1.26563,-0.0234 l 0.67969,0 c -10e-6,-1.20312 0.28905,-2.27343 0.86718,-3.21094 0.5625,-0.95311 1.40625,-1.42967 2.53125,-1.42968 1.14062,1e-5 2.01562,0.46095 2.625,1.38281 0.60937,0.92188 0.96874,2.00782 1.07813,3.25781 l 1.38281,0 c 0.26561,-1.34374 0.80467,-2.45311 1.61719,-3.32812 0.81248,-0.87499 1.867169,-1.31249 3.164063,-1.3125 1.515603,1e-5 2.828102,0.54688 3.9375,1.64062 1.10935,1.07814 1.664036,2.38282 1.664062,3.91406 m -6.398437,2.17969 c -2e-5,-0.62499 -0.156269,-1.15624 -0.46875,-1.59375 -0.328148,-0.43749 -0.789078,-0.65624 -1.382818,-0.65625 l -1.5,0 c -0.0625,0.50001 -0.0938,0.89844 -0.0937,1.19531 -1e-5,0.64063 0.14843,1.29688 0.44532,1.96875 0.29686,0.67188 0.71873,1.00782 1.26562,1.00782 0.48436,0 0.89842,-0.19531 1.24219,-0.58594 0.328106,-0.39062 0.492168,-0.83594 0.492188,-1.33594 m -7.007818,-3.09375 c -1e-5,-0.79687 -0.21094,-1.54686 -0.63281,-2.25 -0.42188,-0.70311 -1.00782,-1.05468 -1.75781,-1.05469 -0.76563,1e-5 -1.33595,0.34376 -1.71094,1.03125 -0.39063,0.68751 -0.58594,1.44532 -0.58594,2.27344 l 4.6875,0 m 0,0.84375 -4.6875,0 c -0.0156,0.20313 -0.0234,0.50782 -0.0234,0.91406 -10e-6,0.82813 0.1953,1.60157 0.58593,2.32032 0.375,0.73437 0.9375,1.10156 1.6875,1.10156 0.48437,0 0.89843,-0.14062 1.24219,-0.42188 0.34374,-0.29687 0.60155,-0.68749 0.77344,-1.17187 0.15624,-0.48437 0.26561,-0.94531 0.32812,-1.38281 0.0625,-0.4375 0.0937,-0.89062 0.0937,-1.35938 m -5.46093,2.03906 0,-2.03906 -0.79688,0 c -0.6875,1e-5 -1.25781,0.15626 -1.71094,0.46875 -0.4375,0.31251 -0.65625,0.79688 -0.65625,1.45313 0,0.5625 0.14063,1.10937 0.42188,1.64062 0.29687,0.51563 0.71093,0.77344 1.24219,0.77344 0.54687,0 0.92968,-0.23437 1.14843,-0.70313 0.23437,-0.45312 0.35156,-0.98437 0.35157,-1.59375"
           style="font-size:24px;font-style:normal;fill:#4d4d4d;font-family:Rachana;-inkscape-font-specification:Rachana Bold"
           id="path3098" />
        <path
           d="m -86.867187,144.14925 -2.015625,0 0,-10.71093 c -5e-6,-0.76562 -0.210942,-1.35155 -0.632813,-1.75782 -0.406253,-0.40623 -0.89844,-0.60936 -1.476562,-0.60937 -0.578127,1e-5 -1.078126,0.18751 -1.5,0.5625 -0.421876,0.37501 -0.625,0.88282 -0.609375,1.52344 l -0.820313,0 c 0.01563,-1.07812 0.382813,-1.92186 1.101563,-2.53125 0.718749,-0.59374 1.562498,-0.89061 2.53125,-0.89063 0.921871,2e-5 1.726558,0.28127 2.414062,0.84375 0.671869,0.56252 1.007806,1.35158 1.007813,2.36719 l 0,11.20312"
           style="font-size:24px;font-style:normal;fill:#4d4d4d;font-family:Rachana;-inkscape-font-specification:Rachana Bold"
           id="path3100" />
        <path
           d="m -73.226562,139.15707 c -1.3e-5,1.0625 -0.242201,2.05469 -0.726563,2.97656 -0.500012,0.9375 -1.226574,1.70313 -2.179687,2.29687 l -1.171875,-0.53906 c 1.390614,-1.04687 2.085926,-2.53124 2.085937,-4.45312 -1.1e-5,-1.48437 -0.398448,-2.65625 -1.195312,-3.51563 -0.796884,-0.85936 -1.742196,-1.28905 -2.835938,-1.28906 -1.062506,1e-5 -2.007817,0.42188 -2.835937,1.26562 -0.828129,0.84376 -1.328128,2.0547 -1.5,3.63282 l 0.09375,0.0469 c 0.718746,-1.14062 1.554683,-1.71093 2.507812,-1.71094 0.843744,1e-5 1.523431,0.35157 2.039063,1.05469 0.515617,0.70313 0.773429,1.51563 0.773437,2.4375 -8e-6,0.84375 -0.234383,1.57032 -0.703125,2.17969 -0.468757,0.59375 -1.156256,0.89062 -2.0625,0.89062 -1.062504,0 -1.898441,-0.45312 -2.507812,-1.35937 -0.609378,-0.89062 -0.914065,-1.98437 -0.914063,-3.28125 -2e-6,-2.03124 0.562498,-3.61718 1.6875,-4.75781 1.10937,-1.12499 2.429682,-1.68749 3.960938,-1.6875 1.499991,1e-5 2.789052,0.51563 3.867187,1.54687 1.078113,1.01564 1.617175,2.43751 1.617188,4.26563 m -6.515625,1.92187 c -7e-6,-0.54687 -0.148444,-1.02343 -0.445313,-1.42969 -0.296881,-0.40624 -0.710943,-0.60937 -1.242187,-0.60937 -0.54688,0 -0.976567,0.19532 -1.289063,0.58594 -0.296878,0.39063 -0.445316,0.85156 -0.445312,1.38281 -4e-6,0.54688 0.156246,1.01563 0.46875,1.40625 0.312496,0.40625 0.749995,0.60938 1.3125,0.60937 0.531244,1e-5 0.937494,-0.19531 1.21875,-0.58593 0.281243,-0.375 0.421868,-0.82813 0.421875,-1.35938"
           style="font-size:24px;font-style:normal;fill:#4d4d4d;font-family:Rachana;-inkscape-font-specification:Rachana Bold"
           id="path3102" />
        <path
           d="m -55.695312,144.14925 -15.679688,0 0,-0.82031 5.039063,0 c 0.734367,0 1.312491,-0.26562 1.734375,-0.79687 0.421866,-0.51563 0.632803,-1.125 0.632812,-1.82813 -9e-6,-0.59374 -0.156259,-1.10156 -0.46875,-1.52344 -0.328133,-0.43749 -0.78907,-0.65624 -1.382812,-0.65625 -0.531257,1e-5 -0.968757,0.19532 -1.3125,0.58594 -0.359381,0.40626 -0.539068,0.86719 -0.539063,1.38281 -5e-6,0.29688 0.07812,0.60157 0.234375,0.91407 l -1.054687,0 c -0.187505,-0.46875 -0.281255,-0.90625 -0.28125,-1.3125 -5e-6,-0.82812 0.304682,-1.54687 0.914062,-2.15625 0.609369,-0.59375 1.374993,-0.89062 2.296875,-0.89063 1.109366,1e-5 1.984365,0.33595 2.625,1.00781 0.624989,0.68751 0.937489,1.50001 0.9375,2.4375 -1.1e-5,1.15626 -0.437511,2.10157 -1.3125,2.83594 l 5.625,0 0,-9.75 1.992188,0 0,10.57031"
           style="font-size:24px;font-style:normal;fill:#4d4d4d;font-family:Rachana;-inkscape-font-specification:Rachana Bold"
           id="path3104" />
        <path
           d="m -46.109375,138.94613 c -1e-5,1.4375 -0.351572,2.71094 -1.054687,3.82031 -0.687508,1.10938 -1.710945,1.66406 -3.070313,1.66406 -0.98438,0 -1.828129,-0.375 -2.53125,-1.125 -0.703127,-0.76562 -1.070314,-1.67187 -1.101562,-2.71875 l 0.75,0 c 0.09375,0.67188 0.351559,1.24219 0.773437,1.71094 0.421871,0.46875 0.929683,0.70313 1.523438,0.70313 0.656244,0 1.210931,-0.25781 1.664062,-0.77344 0.453118,-0.53125 0.757805,-1.10937 0.914063,-1.73438 0.171867,-0.64062 0.257804,-1.28124 0.257812,-1.92187 -8e-6,-0.57812 -0.07032,-1.16406 -0.210937,-1.75781 -0.156258,-0.57812 -0.437508,-1.10937 -0.84375,-1.59375 -0.406257,-0.48437 -0.914069,-0.72656 -1.523438,-0.72657 -0.703129,1e-5 -1.304691,0.28126 -1.804687,0.84375 -0.500003,0.54689 -0.750003,1.18751 -0.75,1.92188 l 0,0.35156 -0.75,0 0,-0.23437 c -2e-6,-1.07812 0.328122,-2.02343 0.984375,-2.83594 0.671871,-0.79686 1.531245,-1.1953 2.578125,-1.19531 0.937493,1e-5 1.734367,0.3047 2.390625,0.91406 0.656241,0.59376 1.117178,1.29688 1.382812,2.10937 0.281241,0.81251 0.421865,1.67189 0.421875,2.57813"
           style="font-size:24px;font-style:normal;fill:#4d4d4d;font-family:Rachana;-inkscape-font-specification:Rachana Bold"
           id="path3106" />
        <path
           d="m -28.929687,144.14925 -15.234375,0 0,-4.92187 c -2e-6,-0.85937 0.07031,-1.62499 0.210937,-2.29688 0.140623,-0.65624 0.38281,-1.26561 0.726563,-1.82812 0.328121,-0.54687 0.812496,-0.96874 1.453125,-1.26563 0.64062,-0.29686 1.421869,-0.4453 2.34375,-0.44531 0.890617,1e-5 1.656241,0.1172 2.296875,0.35156 0.640615,0.21877 1.148427,0.50783 1.523437,0.86719 0.390614,0.37501 0.695301,0.85939 0.914063,1.45313 0.234363,0.59375 0.3828,1.19532 0.445312,1.80468 0.07811,0.62501 0.117176,1.35157 0.117188,2.17969 l 0,0.0703 0,0.16407 -8.015625,0 0,3.04687 11.226562,0 0,-9.75 1.992188,0 0,10.57031 m 0.445312,9.39844 c -1.8e-5,0.76562 -0.265642,1.40624 -0.796875,1.92188 -0.515641,0.51561 -1.140641,0.77342 -1.875,0.77343 -0.750014,-1e-5 -1.390638,-0.25782 -1.921875,-0.77343 -0.515637,-0.51564 -0.77345,-1.15626 -0.773437,-1.92188 -1.3e-5,-0.87501 0.351549,-1.57813 1.054687,-2.10937 -0.843762,-0.50001 -1.265637,-1.32813 -1.265625,-2.48438 l 0,-1.14844 c -1.2e-5,-0.70312 -0.187512,-1.3125 -0.5625,-1.82812 -0.359386,-0.51563 -0.804698,-0.77344 -1.335937,-0.77344 -0.34376,0 -0.75001,0.17188 -1.21875,0.51563 1.249989,1.03124 1.874989,2.21874 1.875,3.5625 -1.1e-5,0.74999 -0.218761,1.35937 -0.65625,1.82812 -0.453135,0.46874 -0.976572,0.70312 -1.570313,0.70313 -0.718758,-1e-5 -1.281257,-0.3047 -1.6875,-0.91407 -0.406256,-0.59375 -0.609381,-1.32031 -0.609375,-2.17968 -6e-6,-1.29688 0.398431,-2.32032 1.195313,-3.07032 0.812491,-0.75 1.734365,-1.125 2.765625,-1.125 0.843739,0 1.562488,0.27344 2.15625,0.82032 0.578112,0.54687 0.867174,1.32031 0.867187,2.32031 l 0,1.00781 c -1.3e-5,0.71875 0.140612,1.25781 0.421875,1.61719 0.281236,0.35937 0.632798,0.53906 1.054688,0.53906 0.484359,0 0.945296,-0.25 1.382812,-0.75 0.421859,-0.5 0.632796,-1.14063 0.632813,-1.92187 -1.7e-5,-0.68751 -0.164079,-1.31251 -0.492188,-1.875 -0.312516,-0.57813 -0.789078,-1 -1.429687,-1.26563 l 0.375,-0.44531 c 0.749984,0.32812 1.320296,0.82812 1.710937,1.5 0.390608,0.6875 0.58592,1.42968 0.585938,2.22656 -1.8e-5,1.3125 -0.406268,2.28906 -1.21875,2.92969 0.890607,0.53124 1.335919,1.30468 1.335937,2.32031 m -6.5625,-14.10937 c -1.1e-5,-3.35937 -1.210947,-5.03906 -3.632812,-5.03907 -1.093757,1e-5 -1.945318,0.35158 -2.554688,1.05469 -0.609379,0.68751 -0.914066,1.59376 -0.914062,2.71875 l 0,1.3125 7.101562,0 0,-0.0469 m 5.414063,13.82812 c -1.7e-5,-0.37501 -0.132829,-0.71094 -0.398438,-1.00781 -0.250016,-0.28126 -0.562515,-0.44532 -0.9375,-0.49219 -0.187515,0.0312 -0.351577,0.0469 -0.492187,0.0469 l -0.140625,0 c -0.312515,0.0781 -0.570327,0.2578 -0.773438,0.53906 -0.218763,0.28124 -0.328138,0.58593 -0.328125,0.91406 -1.3e-5,0.43749 0.148424,0.80468 0.445313,1.10156 0.29686,0.29687 0.664048,0.44531 1.101562,0.44532 0.406235,-1e-5 0.765609,-0.14845 1.078125,-0.44532 0.296859,-0.29688 0.445296,-0.66407 0.445313,-1.10156 m -6.351563,-4.24219 c -1e-5,-1.04687 -0.554697,-2.01562 -1.664062,-2.90625 -0.250009,0.26563 -0.460946,0.66406 -0.632813,1.19532 -0.171883,0.51562 -0.25782,1.03906 -0.257812,1.57031 -8e-6,0.54687 0.101554,0.99999 0.304687,1.35937 0.187492,0.35937 0.476554,0.53906 0.867188,0.53907 0.343741,-1e-5 0.664053,-0.17188 0.960937,-0.51563 0.28124,-0.34375 0.421865,-0.75782 0.421875,-1.24219"
           style="font-size:24px;font-style:normal;fill:#4d4d4d;font-family:Rachana;-inkscape-font-specification:Rachana Bold"
           id="path3108" />
        <path
           d="m -10.226563,141.31332 c -1.8e-5,0.82812 -0.265643,1.54687 -0.796875,2.15625 -0.515642,0.60937 -1.179704,0.91406 -1.992187,0.91406 -0.60939,0 -1.117202,-0.14844 -1.523438,-0.44531 l -0.117187,-1.125 c 0.406235,0.25 0.726548,0.375 0.960937,0.375 0.54686,0 0.968734,-0.21875 1.265625,-0.65625 0.312484,-0.42188 0.468734,-0.92188 0.46875,-1.5 -1.6e-5,-0.95312 -0.226579,-1.54687 -0.679687,-1.78125 -0.453141,-0.25 -1.179703,-0.375 -2.179688,-0.375 l -0.164062,0 c -1.4e-5,0.60938 -0.06251,1.21875 -0.1875,1.82812 -0.140639,0.59376 -0.335951,1.17969 -0.585938,1.75781 -0.265637,0.57813 -0.656262,1.04688 -1.171874,1.40625 -0.500012,0.34375 -1.078136,0.51563 -1.734375,0.51563 -1.328134,0 -2.296883,-0.64062 -2.90625,-1.92188 -0.500007,1.28126 -1.281257,1.92188 -2.34375,1.92188 -0.92188,0 -1.679691,-0.33594 -2.273438,-1.00781 -0.593752,-0.6875 -0.890627,-1.5 -0.890625,-2.4375 -2e-6,-0.53125 0.07812,-0.98437 0.234375,-1.35938 0.156248,-0.35937 0.35156,-0.64062 0.585938,-0.84375 0.218747,-0.20312 0.523434,-0.35937 0.914062,-0.46875 0.374996,-0.10937 0.726558,-0.17968 1.054688,-0.21094 0.32812,-0.0156 0.742182,-0.0234 1.242187,-0.0234 l 0.867188,0 c -7e-6,-1.20312 0.289055,-2.27343 0.867187,-3.21094 0.562492,-0.95311 1.406241,-1.42968 2.53125,-1.42969 1.140614,1e-5 2.015613,0.46095 2.625,1.38281 0.609362,0.92189 0.968736,2.00782 1.078125,3.25782 l 1.59375,0 c 0.999984,0 1.789045,0.29688 2.367187,0.89062 0.593732,0.60938 0.890607,1.40626 0.890625,2.39063 m -6.492187,-3.28125 c -1.2e-5,-0.8125 -0.203137,-1.57031 -0.609375,-2.27344 -0.421886,-0.68749 -1.015636,-1.03124 -1.78125,-1.03125 -0.765634,1e-5 -1.335946,0.34376 -1.710937,1.03125 -0.390633,0.68751 -0.585945,1.44532 -0.585938,2.27344 l 4.6875,0 m 0,0.84375 -4.6875,0 c -0.01563,0.20313 -0.02344,0.50781 -0.02344,0.91406 -8e-6,0.84375 0.195304,1.625 0.585937,2.34375 0.374992,0.71875 0.937491,1.07813 1.6875,1.07812 0.484365,1e-5 0.898427,-0.14062 1.242188,-0.42187 0.343738,-0.29687 0.60155,-0.6875 0.773437,-1.17188 0.156238,-0.48437 0.265613,-0.9453 0.328125,-1.38281 0.06249,-0.43749 0.09374,-0.89062 0.09375,-1.35937 m -5.460937,2.03906 0,-2.03906 -0.796875,0 c -1.57813,0 -2.367192,0.64063 -2.367188,1.92187 -4e-6,0.57813 0.140621,1.125 0.421875,1.64063 0.296871,0.51562 0.710933,0.77344 1.242188,0.77343 0.999993,1e-5 1.499993,-0.76562 1.5,-2.29687"
           style="font-size:24px;font-style:normal;fill:#4d4d4d;font-family:Rachana;-inkscape-font-specification:Rachana Bold"
           id="path3110" />
        <path
           d="m 8.4765625,139.53207 c -1.87e-5,1.59375 -0.3203309,2.80469 -0.9609375,3.63281 -0.6406421,0.8125 -1.4218913,1.21875 -2.34375,1.21875 -0.8750145,0 -1.6406388,-0.35156 -2.296875,-1.05469 -0.6718875,-0.70312 -1.0078246,-1.61718 -1.0078125,-2.74219 -1.21e-5,-2.14061 0.9609244,-3.96874 2.8828125,-5.48437 -0.5937644,-0.46874 -1.2890762,-0.70312 -2.0859375,-0.70313 -0.6406373,1e-5 -1.1640743,0.13283 -1.5703125,0.39844 -0.40626094,0.25001 -0.69532315,0.62501 -0.8671875,1.125 -0.1718853,0.51564 -0.2812602,0.98438 -0.328125,1.40625 -0.0468851,0.42188 -0.0703226,0.96876 -0.0703125,1.64063 l 0,0.0469 0,1.38281 c -1.008e-5,1.18751 -0.40625967,2.14844 -1.21875,2.88282 -0.7968831,0.73437 -1.7343821,1.10156 -2.8125,1.10156 -1.3281297,0 -2.3671912,-0.5 -3.1171875,-1.5 -0.7343772,-1.01562 -1.1015643,-2.22656 -1.1015625,-3.63281 -1.8e-6,-1.26562 0.2890604,-2.42187 0.8671875,-3.46875 0.5781217,-1.06249 1.4374959,-1.85937 2.578125,-2.39063 l 0.5390625,0.60938 c -0.9843798,0.40626 -1.7109416,1.05469 -2.1796875,1.94531 -0.4843781,0.89063 -0.7265654,1.87501 -0.7265625,2.95312 -2.9e-6,1.10938 0.2656218,2.07032 0.796875,2.88282 0.5156208,0.79687 1.2187451,1.19531 2.109375,1.19531 0.7031185,0 1.2968679,-0.30469 1.78125,-0.91406 0.4843669,-0.60937 0.7265542,-1.48437 0.7265625,-2.625 l 0,-1.35938 c -8.3e-6,-1.43749 0.3593663,-2.57811 1.078125,-3.42187 0.7031149,-0.84374 1.76561384,-1.26562 3.1875,-1.26563 1.2499862,1e-5 2.3202976,0.27345 3.2109375,0.82031 0.3124839,-0.42186 0.4687337,-0.83592 0.46875,-1.24218 -1.63e-5,-0.54687 -0.1953286,-0.99999 -0.5859375,-1.35938 C 5.0390472,131.25083 4.5624852,131.07114 4,131.07113 c -0.8125134,1e-5 -1.4843878,0.3047 -2.015625,0.91406 l -0.5625,-0.375 c 0.296863,-0.60936 0.7421751,-1.08592 1.3359375,-1.42969 0.5937364,-0.32811 1.2499857,-0.49217 1.96875,-0.49218 0.7968592,1e-5 1.4140461,0.22657 1.8515625,0.67968 0.4374827,0.45314 0.6562325,1.07814 0.65625,1.875 -1.75e-5,0.17189 -0.015643,0.35158 -0.046875,0.53907 -0.031267,0.17188 -0.078142,0.32813 -0.140625,0.46875 -0.062517,0.14063 -0.1328297,0.28907 -0.2109375,0.44531 -0.093767,0.15626 -0.1875169,0.3047 -0.28125,0.44531 -0.093767,0.14064 -0.1875166,0.28907 -0.28125,0.44531 0.7187328,0.43751 1.2656072,1.10939 1.640625,2.01563 0.3749815,0.92188 0.5624813,1.89844 0.5625,2.92969 m -1.828125,0.14062 c -1.69e-5,-0.81249 -0.1172043,-1.58593 -0.3515625,-2.32031 -0.2343913,-0.73437 -0.546891,-1.29687 -0.9375,-1.6875 -1.7187639,1.37501 -2.578138,2.87501 -2.578125,4.5 -1.3e-5,0.76563 0.2187367,1.41406 0.65625,1.94531 0.4218609,0.53125 0.9062354,0.79688 1.453125,0.79688 0.4999844,0 0.9140464,-0.27344 1.2421875,-0.82032 0.3437333,-0.53124 0.5156081,-1.33593 0.515625,-2.41406"
           style="font-size:24px;font-style:normal;fill:#4d4d4d;font-family:Rachana;-inkscape-font-specification:Rachana Bold"
           id="path3112" />
      </g>
      <g
         transform="matrix(0.90928545,0,0,1.0992336,133.2374,-30.61513)"
         style="font-size:12px;font-style:italic;font-variant:normal;font-weight:bold;font-stretch:normal;line-height:125%;letter-spacing:0px;word-spacing:0px;fill:#4d4d4d;fill-opacity:1;stroke:none;font-family:RaghuMalayalam;-inkscape-font-specification:Sans Bold"
         id="flowRoot3038">
        <path
           d="m -125.44531,144.14925 -9.44531,0 0,-0.46875 c 1.70311,-1.23437 2.55467,-2.64843 2.55468,-4.24218 -1e-5,-1.28125 -0.36719,-2.28906 -1.10156,-3.02344 -0.75001,-0.73437 -1.63282,-1.10155 -2.64844,-1.10156 -1.14063,1e-5 -2.03906,0.40626 -2.69531,1.21875 -0.65625,0.8125 -0.98438,1.78125 -0.98437,2.90625 -10e-6,0.875 0.20312,1.6875 0.60937,2.4375 0.42187,0.76562 1.02343,1.34375 1.80469,1.73437 l -0.39844,0.77344 c -1.01563,-0.5625 -1.77344,-1.32812 -2.27344,-2.29688 -0.51562,-0.96874 -0.77344,-1.99999 -0.77343,-3.09375 -10e-6,-1.53124 0.46874,-2.85155 1.40625,-3.96093 0.95312,-1.09374 2.24999,-1.64062 3.89062,-1.64063 1.39062,1e-5 2.60155,0.46876 3.63281,1.40625 1.01562,0.93751 1.52343,2.2422 1.52344,3.91406 -1e-5,1.64063 -0.66407,3.17969 -1.99219,4.61719 l 4.89844,0 0,-9.75 1.99219,0 0,10.57031"
           style="font-size:24px;font-style:normal;fill:#4d4d4d;font-family:Rachana;-inkscape-font-specification:Rachana Bold"
           id="path3115" />
        <path
           d="m -119.30469,144.14925 -2.01562,0 0,-10.71093 c -10e-6,-0.76562 -0.21094,-1.35155 -0.63282,-1.75782 -0.40625,-0.40623 -0.89844,-0.60936 -1.47656,-0.60937 -0.57812,1e-5 -1.07812,0.18751 -1.5,0.5625 -0.42187,0.37501 -0.625,0.88282 -0.60937,1.52344 l -0.82032,0 c 0.0156,-1.07812 0.38282,-1.92186 1.10157,-2.53125 0.71875,-0.59374 1.5625,-0.89061 2.53125,-0.89063 0.92187,2e-5 1.72656,0.28127 2.41406,0.84375 0.67187,0.56252 1.00781,1.35158 1.00781,2.36719 l 0,11.20312"
           style="font-size:24px;font-style:normal;fill:#4d4d4d;font-family:Rachana;-inkscape-font-specification:Rachana Bold"
           id="path3117" />
        <path
           d="m -93.078125,138.89925 c -2.6e-5,1.14063 -0.257838,2.15626 -0.773437,3.04688 -0.500025,0.875 -1.234399,1.71875 -2.203125,2.53125 L -97.25,143.96175 c 0.671853,-0.59374 1.203102,-1.29687 1.59375,-2.10937 0.406227,-0.82812 0.609351,-1.67968 0.609375,-2.55469 -2.4e-5,-1.20312 -0.382836,-2.27343 -1.148437,-3.21094 -0.765647,-0.93749 -1.726584,-1.40624 -2.882813,-1.40625 -0.875019,1e-5 -1.640645,0.32814 -2.296875,0.98438 -0.67189,0.67188 -1.10158,1.44532 -1.28906,2.32031 l 0.23437,0 c 0.59374,1e-5 1.0703,0.008 1.42969,0.0234 0.35936,0.0313 0.75779,0.10938 1.195313,0.23437 0.43748,0.10939 0.78123,0.28126 1.03125,0.51563 0.249979,0.21876 0.460917,0.53907 0.632812,0.96094 0.171854,0.40625 0.257792,0.91406 0.257813,1.52343 -2.1e-5,0.89063 -0.242209,1.63282 -0.726563,2.22657 -0.50002,0.57812 -1.187519,0.86718 -2.062505,0.86718 -0.89064,0 -1.6172,-0.46093 -2.17968,-1.38281 -0.54689,-0.9375 -0.82033,-1.88281 -0.82032,-2.83594 -1e-5,-0.28124 0.0156,-0.71093 0.0469,-1.28906 l -1.125,0 c -1e-5,0.84376 -0.10158,1.65626 -0.30469,2.4375 -0.21876,0.78125 -0.6172,1.49219 -1.19531,2.13281 -0.56251,0.625 -1.28907,0.9375 -2.17969,0.9375 -1.31251,0 -2.28126,-0.64062 -2.90625,-1.92187 -0.21875,0.53125 -0.53907,0.98438 -0.96094,1.35937 -0.40625,0.375 -0.86719,0.5625 -1.38281,0.5625 -0.92188,0 -1.67969,-0.33593 -2.27344,-1.00781 -0.59375,-0.6875 -0.89062,-1.5 -0.89062,-2.4375 0,-0.53124 0.0859,-0.98437 0.25781,-1.35937 0.15625,-0.375 0.35938,-0.66406 0.60938,-0.86719 0.23437,-0.20312 0.56249,-0.35156 0.98437,-0.44531 0.40625,-0.10937 0.77344,-0.17968 1.10156,-0.21094 0.32812,-0.0156 0.75,-0.0234 1.26563,-0.0234 l 0.67969,0 c -10e-6,-1.20312 0.28905,-2.27343 0.86718,-3.21094 0.5625,-0.95311 1.40625,-1.42967 2.53125,-1.42968 1.14062,1e-5 2.01562,0.46095 2.625,1.38281 0.60937,0.92188 0.96874,2.00782 1.07813,3.25781 l 1.38281,0 c 0.26561,-1.34374 0.80467,-2.45311 1.61719,-3.32812 0.81248,-0.87499 1.867169,-1.31249 3.164063,-1.3125 1.515603,1e-5 2.828102,0.54688 3.9375,1.64062 1.10935,1.07814 1.664036,2.38282 1.664062,3.91406 m -6.398437,2.17969 c -2e-5,-0.62499 -0.156269,-1.15624 -0.46875,-1.59375 -0.328148,-0.43749 -0.789078,-0.65624 -1.382818,-0.65625 l -1.5,0 c -0.0625,0.50001 -0.0938,0.89844 -0.0937,1.19531 -1e-5,0.64063 0.14843,1.29688 0.44532,1.96875 0.29686,0.67188 0.71873,1.00782 1.26562,1.00782 0.48436,0 0.89842,-0.19531 1.24219,-0.58594 0.328106,-0.39062 0.492168,-0.83594 0.492188,-1.33594 m -7.007818,-3.09375 c -1e-5,-0.79687 -0.21094,-1.54686 -0.63281,-2.25 -0.42188,-0.70311 -1.00782,-1.05468 -1.75781,-1.05469 -0.76563,1e-5 -1.33595,0.34376 -1.71094,1.03125 -0.39063,0.68751 -0.58594,1.44532 -0.58594,2.27344 l 4.6875,0 m 0,0.84375 -4.6875,0 c -0.0156,0.20313 -0.0234,0.50782 -0.0234,0.91406 -10e-6,0.82813 0.1953,1.60157 0.58593,2.32032 0.375,0.73437 0.9375,1.10156 1.6875,1.10156 0.48437,0 0.89843,-0.14062 1.24219,-0.42188 0.34374,-0.29687 0.60155,-0.68749 0.77344,-1.17187 0.15624,-0.48437 0.26561,-0.94531 0.32812,-1.38281 0.0625,-0.4375 0.0937,-0.89062 0.0937,-1.35938 m -5.46093,2.03906 0,-2.03906 -0.79688,0 c -0.6875,1e-5 -1.25781,0.15626 -1.71094,0.46875 -0.4375,0.31251 -0.65625,0.79688 -0.65625,1.45313 0,0.5625 0.14063,1.10937 0.42188,1.64062 0.29687,0.51563 0.71093,0.77344 1.24219,0.77344 0.54687,0 0.92968,-0.23437 1.14843,-0.70313 0.23437,-0.45312 0.35156,-0.98437 0.35157,-1.59375"
           style="font-size:24px;font-style:normal;fill:#4d4d4d;font-family:Rachana;-inkscape-font-specification:Rachana Bold"
           id="path3119" />
        <path
           d="m -86.867187,144.14925 -2.015625,0 0,-10.71093 c -5e-6,-0.76562 -0.210942,-1.35155 -0.632813,-1.75782 -0.406253,-0.40623 -0.89844,-0.60936 -1.476562,-0.60937 -0.578127,1e-5 -1.078126,0.18751 -1.5,0.5625 -0.421876,0.37501 -0.625,0.88282 -0.609375,1.52344 l -0.820313,0 c 0.01563,-1.07812 0.382813,-1.92186 1.101563,-2.53125 0.718749,-0.59374 1.562498,-0.89061 2.53125,-0.89063 0.921871,2e-5 1.726558,0.28127 2.414062,0.84375 0.671869,0.56252 1.007806,1.35158 1.007813,2.36719 l 0,11.20312"
           style="font-size:24px;font-style:normal;fill:#4d4d4d;font-family:Rachana;-inkscape-font-specification:Rachana Bold"
           id="path3121" />
        <path
           d="m -73.226562,139.15707 c -1.3e-5,1.0625 -0.242201,2.05469 -0.726563,2.97656 -0.500012,0.9375 -1.226574,1.70313 -2.179687,2.29687 l -1.171875,-0.53906 c 1.390614,-1.04687 2.085926,-2.53124 2.085937,-4.45312 -1.1e-5,-1.48437 -0.398448,-2.65625 -1.195312,-3.51563 -0.796884,-0.85936 -1.742196,-1.28905 -2.835938,-1.28906 -1.062506,1e-5 -2.007817,0.42188 -2.835937,1.26562 -0.828129,0.84376 -1.328128,2.0547 -1.5,3.63282 l 0.09375,0.0469 c 0.718746,-1.14062 1.554683,-1.71093 2.507812,-1.71094 0.843744,1e-5 1.523431,0.35157 2.039063,1.05469 0.515617,0.70313 0.773429,1.51563 0.773437,2.4375 -8e-6,0.84375 -0.234383,1.57032 -0.703125,2.17969 -0.468757,0.59375 -1.156256,0.89062 -2.0625,0.89062 -1.062504,0 -1.898441,-0.45312 -2.507812,-1.35937 -0.609378,-0.89062 -0.914065,-1.98437 -0.914063,-3.28125 -2e-6,-2.03124 0.562498,-3.61718 1.6875,-4.75781 1.10937,-1.12499 2.429682,-1.68749 3.960938,-1.6875 1.499991,1e-5 2.789052,0.51563 3.867187,1.54687 1.078113,1.01564 1.617175,2.43751 1.617188,4.26563 m -6.515625,1.92187 c -7e-6,-0.54687 -0.148444,-1.02343 -0.445313,-1.42969 -0.296881,-0.40624 -0.710943,-0.60937 -1.242187,-0.60937 -0.54688,0 -0.976567,0.19532 -1.289063,0.58594 -0.296878,0.39063 -0.445316,0.85156 -0.445312,1.38281 -4e-6,0.54688 0.156246,1.01563 0.46875,1.40625 0.312496,0.40625 0.749995,0.60938 1.3125,0.60937 0.531244,1e-5 0.937494,-0.19531 1.21875,-0.58593 0.281243,-0.375 0.421868,-0.82813 0.421875,-1.35938"
           style="font-size:24px;font-style:normal;fill:#4d4d4d;font-family:Rachana;-inkscape-font-specification:Rachana Bold"
           id="path3123" />
        <path
           d="m -55.695312,144.14925 -15.679688,0 0,-0.82031 5.039063,0 c 0.734367,0 1.312491,-0.26562 1.734375,-0.79687 0.421866,-0.51563 0.632803,-1.125 0.632812,-1.82813 -9e-6,-0.59374 -0.156259,-1.10156 -0.46875,-1.52344 -0.328133,-0.43749 -0.78907,-0.65624 -1.382812,-0.65625 -0.531257,1e-5 -0.968757,0.19532 -1.3125,0.58594 -0.359381,0.40626 -0.539068,0.86719 -0.539063,1.38281 -5e-6,0.29688 0.07812,0.60157 0.234375,0.91407 l -1.054687,0 c -0.187505,-0.46875 -0.281255,-0.90625 -0.28125,-1.3125 -5e-6,-0.82812 0.304682,-1.54687 0.914062,-2.15625 0.609369,-0.59375 1.374993,-0.89062 2.296875,-0.89063 1.109366,1e-5 1.984365,0.33595 2.625,1.00781 0.624989,0.68751 0.937489,1.50001 0.9375,2.4375 -1.1e-5,1.15626 -0.437511,2.10157 -1.3125,2.83594 l 5.625,0 0,-9.75 1.992188,0 0,10.57031"
           style="font-size:24px;font-style:normal;fill:#4d4d4d;font-family:Rachana;-inkscape-font-specification:Rachana Bold"
           id="path3125" />
        <path
           d="m -46.109375,138.94613 c -1e-5,1.4375 -0.351572,2.71094 -1.054687,3.82031 -0.687508,1.10938 -1.710945,1.66406 -3.070313,1.66406 -0.98438,0 -1.828129,-0.375 -2.53125,-1.125 -0.703127,-0.76562 -1.070314,-1.67187 -1.101562,-2.71875 l 0.75,0 c 0.09375,0.67188 0.351559,1.24219 0.773437,1.71094 0.421871,0.46875 0.929683,0.70313 1.523438,0.70313 0.656244,0 1.210931,-0.25781 1.664062,-0.77344 0.453118,-0.53125 0.757805,-1.10937 0.914063,-1.73438 0.171867,-0.64062 0.257804,-1.28124 0.257812,-1.92187 -8e-6,-0.57812 -0.07032,-1.16406 -0.210937,-1.75781 -0.156258,-0.57812 -0.437508,-1.10937 -0.84375,-1.59375 -0.406257,-0.48437 -0.914069,-0.72656 -1.523438,-0.72657 -0.703129,1e-5 -1.304691,0.28126 -1.804687,0.84375 -0.500003,0.54689 -0.750003,1.18751 -0.75,1.92188 l 0,0.35156 -0.75,0 0,-0.23437 c -2e-6,-1.07812 0.328122,-2.02343 0.984375,-2.83594 0.671871,-0.79686 1.531245,-1.1953 2.578125,-1.19531 0.937493,1e-5 1.734367,0.3047 2.390625,0.91406 0.656241,0.59376 1.117178,1.29688 1.382812,2.10937 0.281241,0.81251 0.421865,1.67189 0.421875,2.57813"
           style="font-size:24px;font-style:normal;fill:#4d4d4d;font-family:Rachana;-inkscape-font-specification:Rachana Bold"
           id="path3127" />
        <path
           d="m -28.929687,144.14925 -15.234375,0 0,-4.92187 c -2e-6,-0.85937 0.07031,-1.62499 0.210937,-2.29688 0.140623,-0.65624 0.38281,-1.26561 0.726563,-1.82812 0.328121,-0.54687 0.812496,-0.96874 1.453125,-1.26563 0.64062,-0.29686 1.421869,-0.4453 2.34375,-0.44531 0.890617,1e-5 1.656241,0.1172 2.296875,0.35156 0.640615,0.21877 1.148427,0.50783 1.523437,0.86719 0.390614,0.37501 0.695301,0.85939 0.914063,1.45313 0.234363,0.59375 0.3828,1.19532 0.445312,1.80468 0.07811,0.62501 0.117176,1.35157 0.117188,2.17969 l 0,0.0703 0,0.16407 -8.015625,0 0,3.04687 11.226562,0 0,-9.75 1.992188,0 0,10.57031 m 0.445312,9.39844 c -1.8e-5,0.76562 -0.265642,1.40624 -0.796875,1.92188 -0.515641,0.51561 -1.140641,0.77342 -1.875,0.77343 -0.750014,-1e-5 -1.390638,-0.25782 -1.921875,-0.77343 -0.515637,-0.51564 -0.77345,-1.15626 -0.773437,-1.92188 -1.3e-5,-0.87501 0.351549,-1.57813 1.054687,-2.10937 -0.843762,-0.50001 -1.265637,-1.32813 -1.265625,-2.48438 l 0,-1.14844 c -1.2e-5,-0.70312 -0.187512,-1.3125 -0.5625,-1.82812 -0.359386,-0.51563 -0.804698,-0.77344 -1.335937,-0.77344 -0.34376,0 -0.75001,0.17188 -1.21875,0.51563 1.249989,1.03124 1.874989,2.21874 1.875,3.5625 -1.1e-5,0.74999 -0.218761,1.35937 -0.65625,1.82812 -0.453135,0.46874 -0.976572,0.70312 -1.570313,0.70313 -0.718758,-1e-5 -1.281257,-0.3047 -1.6875,-0.91407 -0.406256,-0.59375 -0.609381,-1.32031 -0.609375,-2.17968 -6e-6,-1.29688 0.398431,-2.32032 1.195313,-3.07032 0.812491,-0.75 1.734365,-1.125 2.765625,-1.125 0.843739,0 1.562488,0.27344 2.15625,0.82032 0.578112,0.54687 0.867174,1.32031 0.867187,2.32031 l 0,1.00781 c -1.3e-5,0.71875 0.140612,1.25781 0.421875,1.61719 0.281236,0.35937 0.632798,0.53906 1.054688,0.53906 0.484359,0 0.945296,-0.25 1.382812,-0.75 0.421859,-0.5 0.632796,-1.14063 0.632813,-1.92187 -1.7e-5,-0.68751 -0.164079,-1.31251 -0.492188,-1.875 -0.312516,-0.57813 -0.789078,-1 -1.429687,-1.26563 l 0.375,-0.44531 c 0.749984,0.32812 1.320296,0.82812 1.710937,1.5 0.390608,0.6875 0.58592,1.42968 0.585938,2.22656 -1.8e-5,1.3125 -0.406268,2.28906 -1.21875,2.92969 0.890607,0.53124 1.335919,1.30468 1.335937,2.32031 m -6.5625,-14.10937 c -1.1e-5,-3.35937 -1.210947,-5.03906 -3.632812,-5.03907 -1.093757,1e-5 -1.945318,0.35158 -2.554688,1.05469 -0.609379,0.68751 -0.914066,1.59376 -0.914062,2.71875 l 0,1.3125 7.101562,0 0,-0.0469 m 5.414063,13.82812 c -1.7e-5,-0.37501 -0.132829,-0.71094 -0.398438,-1.00781 -0.250016,-0.28126 -0.562515,-0.44532 -0.9375,-0.49219 -0.187515,0.0312 -0.351577,0.0469 -0.492187,0.0469 l -0.140625,0 c -0.312515,0.0781 -0.570327,0.2578 -0.773438,0.53906 -0.218763,0.28124 -0.328138,0.58593 -0.328125,0.91406 -1.3e-5,0.43749 0.148424,0.80468 0.445313,1.10156 0.29686,0.29687 0.664048,0.44531 1.101562,0.44532 0.406235,-1e-5 0.765609,-0.14845 1.078125,-0.44532 0.296859,-0.29688 0.445296,-0.66407 0.445313,-1.10156 m -6.351563,-4.24219 c -1e-5,-1.04687 -0.554697,-2.01562 -1.664062,-2.90625 -0.250009,0.26563 -0.460946,0.66406 -0.632813,1.19532 -0.171883,0.51562 -0.25782,1.03906 -0.257812,1.57031 -8e-6,0.54687 0.101554,0.99999 0.304687,1.35937 0.187492,0.35937 0.476554,0.53906 0.867188,0.53907 0.343741,-1e-5 0.664053,-0.17188 0.960937,-0.51563 0.28124,-0.34375 0.421865,-0.75782 0.421875,-1.24219"
           style="font-size:24px;font-style:normal;fill:#4d4d4d;font-family:Rachana;-inkscape-font-specification:Rachana Bold"
           id="path3129" />
        <path
           d="m -10.226563,141.31332 c -1.8e-5,0.82812 -0.265643,1.54687 -0.796875,2.15625 -0.515642,0.60937 -1.179704,0.91406 -1.992187,0.91406 -0.60939,0 -1.117202,-0.14844 -1.523438,-0.44531 l -0.117187,-1.125 c 0.406235,0.25 0.726548,0.375 0.960937,0.375 0.54686,0 0.968734,-0.21875 1.265625,-0.65625 0.312484,-0.42188 0.468734,-0.92188 0.46875,-1.5 -1.6e-5,-0.95312 -0.226579,-1.54687 -0.679687,-1.78125 -0.453141,-0.25 -1.179703,-0.375 -2.179688,-0.375 l -0.164062,0 c -1.4e-5,0.60938 -0.06251,1.21875 -0.1875,1.82812 -0.140639,0.59376 -0.335951,1.17969 -0.585938,1.75781 -0.265637,0.57813 -0.656262,1.04688 -1.171874,1.40625 -0.500012,0.34375 -1.078136,0.51563 -1.734375,0.51563 -1.328134,0 -2.296883,-0.64062 -2.90625,-1.92188 -0.500007,1.28126 -1.281257,1.92188 -2.34375,1.92188 -0.92188,0 -1.679691,-0.33594 -2.273438,-1.00781 -0.593752,-0.6875 -0.890627,-1.5 -0.890625,-2.4375 -2e-6,-0.53125 0.07812,-0.98437 0.234375,-1.35938 0.156248,-0.35937 0.35156,-0.64062 0.585938,-0.84375 0.218747,-0.20312 0.523434,-0.35937 0.914062,-0.46875 0.374996,-0.10937 0.726558,-0.17968 1.054688,-0.21094 0.32812,-0.0156 0.742182,-0.0234 1.242187,-0.0234 l 0.867188,0 c -7e-6,-1.20312 0.289055,-2.27343 0.867187,-3.21094 0.562492,-0.95311 1.406241,-1.42968 2.53125,-1.42969 1.140614,1e-5 2.015613,0.46095 2.625,1.38281 0.609362,0.92189 0.968736,2.00782 1.078125,3.25782 l 1.59375,0 c 0.999984,0 1.789045,0.29688 2.367187,0.89062 0.593732,0.60938 0.890607,1.40626 0.890625,2.39063 m -6.492187,-3.28125 c -1.2e-5,-0.8125 -0.203137,-1.57031 -0.609375,-2.27344 -0.421886,-0.68749 -1.015636,-1.03124 -1.78125,-1.03125 -0.765634,1e-5 -1.335946,0.34376 -1.710937,1.03125 -0.390633,0.68751 -0.585945,1.44532 -0.585938,2.27344 l 4.6875,0 m 0,0.84375 -4.6875,0 c -0.01563,0.20313 -0.02344,0.50781 -0.02344,0.91406 -8e-6,0.84375 0.195304,1.625 0.585937,2.34375 0.374992,0.71875 0.937491,1.07813 1.6875,1.07812 0.484365,1e-5 0.898427,-0.14062 1.242188,-0.42187 0.343738,-0.29687 0.60155,-0.6875 0.773437,-1.17188 0.156238,-0.48437 0.265613,-0.9453 0.328125,-1.38281 0.06249,-0.43749 0.09374,-0.89062 0.09375,-1.35937 m -5.460937,2.03906 0,-2.03906 -0.796875,0 c -1.57813,0 -2.367192,0.64063 -2.367188,1.92187 -4e-6,0.57813 0.140621,1.125 0.421875,1.64063 0.296871,0.51562 0.710933,0.77344 1.242188,0.77343 0.999993,1e-5 1.499993,-0.76562 1.5,-2.29687"
           style="font-size:24px;font-style:normal;fill:#4d4d4d;font-family:Rachana;-inkscape-font-specification:Rachana Bold"
           id="path3131" />
        <path
           d="m 8.4765625,139.53207 c -1.87e-5,1.59375 -0.3203309,2.80469 -0.9609375,3.63281 -0.6406421,0.8125 -1.4218913,1.21875 -2.34375,1.21875 -0.8750145,0 -1.6406388,-0.35156 -2.296875,-1.05469 -0.6718875,-0.70312 -1.0078246,-1.61718 -1.0078125,-2.74219 -1.21e-5,-2.14061 0.9609244,-3.96874 2.8828125,-5.48437 -0.5937644,-0.46874 -1.2890762,-0.70312 -2.0859375,-0.70313 -0.6406373,1e-5 -1.1640743,0.13283 -1.5703125,0.39844 -0.40626094,0.25001 -0.69532315,0.62501 -0.8671875,1.125 -0.1718853,0.51564 -0.2812602,0.98438 -0.328125,1.40625 -0.0468851,0.42188 -0.0703226,0.96876 -0.0703125,1.64063 l 0,0.0469 0,1.38281 c -1.008e-5,1.18751 -0.40625967,2.14844 -1.21875,2.88282 -0.7968831,0.73437 -1.7343821,1.10156 -2.8125,1.10156 -1.3281297,0 -2.3671912,-0.5 -3.1171875,-1.5 -0.7343772,-1.01562 -1.1015643,-2.22656 -1.1015625,-3.63281 -1.8e-6,-1.26562 0.2890604,-2.42187 0.8671875,-3.46875 0.5781217,-1.06249 1.4374959,-1.85937 2.578125,-2.39063 l 0.5390625,0.60938 c -0.9843798,0.40626 -1.7109416,1.05469 -2.1796875,1.94531 -0.4843781,0.89063 -0.7265654,1.87501 -0.7265625,2.95312 -2.9e-6,1.10938 0.2656218,2.07032 0.796875,2.88282 0.5156208,0.79687 1.2187451,1.19531 2.109375,1.19531 0.7031185,0 1.2968679,-0.30469 1.78125,-0.91406 0.4843669,-0.60937 0.7265542,-1.48437 0.7265625,-2.625 l 0,-1.35938 c -8.3e-6,-1.43749 0.3593663,-2.57811 1.078125,-3.42187 0.7031149,-0.84374 1.76561384,-1.26562 3.1875,-1.26563 1.2499862,1e-5 2.3202976,0.27345 3.2109375,0.82031 0.3124839,-0.42186 0.4687337,-0.83592 0.46875,-1.24218 -1.63e-5,-0.54687 -0.1953286,-0.99999 -0.5859375,-1.35938 C 5.0390472,131.25083 4.5624852,131.07114 4,131.07113 c -0.8125134,1e-5 -1.4843878,0.3047 -2.015625,0.91406 l -0.5625,-0.375 c 0.296863,-0.60936 0.7421751,-1.08592 1.3359375,-1.42969 0.5937364,-0.32811 1.2499857,-0.49217 1.96875,-0.49218 0.7968592,1e-5 1.4140461,0.22657 1.8515625,0.67968 0.4374827,0.45314 0.6562325,1.07814 0.65625,1.875 -1.75e-5,0.17189 -0.015643,0.35158 -0.046875,0.53907 -0.031267,0.17188 -0.078142,0.32813 -0.140625,0.46875 -0.062517,0.14063 -0.1328297,0.28907 -0.2109375,0.44531 -0.093767,0.15626 -0.1875169,0.3047 -0.28125,0.44531 -0.093767,0.14064 -0.1875166,0.28907 -0.28125,0.44531 0.7187328,0.43751 1.2656072,1.10939 1.640625,2.01563 0.3749815,0.92188 0.5624813,1.89844 0.5625,2.92969 m -1.828125,0.14062 c -1.69e-5,-0.81249 -0.1172043,-1.58593 -0.3515625,-2.32031 -0.2343913,-0.73437 -0.546891,-1.29687 -0.9375,-1.6875 -1.7187639,1.37501 -2.578138,2.87501 -2.578125,4.5 -1.3e-5,0.76563 0.2187367,1.41406 0.65625,1.94531 0.4218609,0.53125 0.9062354,0.79688 1.453125,0.79688 0.4999844,0 0.9140464,-0.27344 1.2421875,-0.82032 0.3437333,-0.53124 0.5156081,-1.33593 0.515625,-2.41406"
           style="font-size:24px;font-style:normal;fill:#4d4d4d;font-family:Rachana;-inkscape-font-specification:Rachana Bold"
           id="path3133" />
      </g>
    </g>
  </g>
</svg>
