<?xml version="1.0" encoding="UTF-8" standalone="no"?>
<!-- Created with Inkscape (http://www.inkscape.org/) -->
<svg
   xmlns:svg="http://www.w3.org/2000/svg"
   xmlns="http://www.w3.org/2000/svg"
   xmlns:xlink="http://www.w3.org/1999/xlink"
   version="1.0"
   width="135"
   height="139"
   id="svg2">
  <defs
     id="defs5">
    <linearGradient
       id="linearGradient3887">
      <stop
         style="stop-color:#093263;stop-opacity:1"
         offset="0"
         id="stop3889" />
      <stop
         style="stop-color:#093263;stop-opacity:0"
         offset="1"
         id="stop3891" />
    </linearGradient>
    <linearGradient
       id="linearGradient3857">
      <stop
         style="stop-color:#003;stop-opacity:1"
         offset="0"
         id="stop3869" />
      <stop
         style="stop-color:#002c5f;stop-opacity:1"
         offset="1"
         id="stop3865" />
    </linearGradient>
    <radialGradient
       cx="43.891438"
       cy="50.734135"
       r="16.11969"
       fx="43.891438"
       fy="50.734135"
       id="radialGradient5710"
       xlink:href="#linearGradient3857"
       gradientUnits="userSpaceOnUse"
       gradientTransform="matrix(1,0,0,1.018727,0,-0.950076)" />
  </defs>
  <g
     transform="translate(1.011126,0.399227)"
     id="g5717">
    <path
       d="M 60.011127 50.734135 A 16.11969 16.421556 0 1 1  27.771748,50.734135 A 16.11969 16.421556 0 1 1  60.011127 50.734135 z"
       transform="matrix(1.023938,0,0,1,-1.447674,-0.312578)"
       style="fill:url(#radialGradient5710);fill-opacity:1;stroke:black;stroke-width:0;stroke-miterlimit:4;stroke-dasharray:none;stroke-opacity:1"
       id="path2077" />
    <path
       d="M 61.1,28.9 C 61.1,28.9 86.099999,52.9 59.1,73.9"
       style="fill:none;fill-rule:evenodd;stroke:#036;stroke-width:8.19999981;stroke-linecap:butt;stroke-linejoin:miter;stroke-miterlimit:4;stroke-dasharray:none;stroke-opacity:1"
       id="path3905" />
    <path
       d="M 72.858506,17.32036 C 72.858506,17.32036 106.55227,52.308313 71.1,84.9"
       style="fill:none;fill-rule:evenodd;stroke:#369;stroke-width:8.19999981;stroke-linecap:butt;stroke-linejoin:miter;stroke-miterlimit:4;stroke-dasharray:none;stroke-opacity:1"
       id="path4794" />
    <path
       d="M 84.432745,6.0999999 C 84.432745,6.0999999 128.99372,50.747692 83.157226,96.500773"
       style="fill:none;fill-rule:evenodd;stroke:#69c;stroke-width:8.19999981;stroke-linecap:butt;stroke-linejoin:miter;stroke-miterlimit:4;stroke-dasharray:none;stroke-opacity:1"
       id="path5681" />
  </g>
  <path
     d="M 24.44828,130.57282 C 24.44828,129.56936 23.5576,129.25836 21.44828,129.52531 C 18.61242,129.88421 18.44828,129.71286 18.44828,126.39347 C 18.44828,122.91655 20.34631,122.38822 20.54796,125.80902 C 20.60757,126.82021 20.94215,126.49497 21.38023,125 C 22.58435,120.89088 21.62085,119.65691 18.70173,121.56959 C 15.30445,123.79557 13.87147,121.64966 16.35492,118.05522 C 19.73276,113.16625 19.88118,112.69795 17.67934,113.87634 C 16.01338,114.76794 15.58058,114.61391 15.15254,112.9771 C 14.86847,111.89079 14.99278,110.78151 15.4288,110.51204 C 15.86481,110.24257 16.51796,108.44212 16.88023,106.51105 C 17.2749,104.40725 18.12196,103 18.99359,103 C 20.85185,103 20.83279,104.35576 18.9226,108.04966 C 18.0034,109.82719 17.81712,111 18.45399,111 C 19.03537,111 19.77007,110.325 20.08665,109.5 C 20.78504,107.68004 23.08966,107.5243 23.786,109.25 C 24.06341,109.9375 24.32591,108.8125 24.36933,106.75 C 24.43169,103.78807 24.83944,103 26.30961,103 C 27.7558,103 28.06435,103.55758 27.69303,105.5 C 27.41406,106.95935 27.67991,108 28.3317,108 C 28.94582,108 29.46259,106.7625 29.48008,105.25 C 29.51076,102.59709 29.56252,102.57061 30.94598,104.5 C 31.73473,105.6 32.84542,107.04351 33.41417,107.70779 C 34.8383,109.37111 34.71048,110 32.94828,110 C 30.71932,110 30.96208,114.96777 33.19828,115.116 C 34.86495,115.22648 34.86495,115.25378 33.19828,115.68933 C 30.9999,116.26382 30.77694,121 32.94828,121 C 33.77328,121 34.44828,121.45 34.44828,122 C 34.44828,122.55 33.77328,123 32.94828,123 C 32.01495,123 31.44828,123.94444 31.44828,125.5 C 31.44828,127.05556 32.01495,128 32.94828,128 C 33.77328,128 34.44828,128.45 34.44828,129 C 34.44828,129.55 32.89984,130 31.0073,130 C 29.11476,130 27.2882,130.45 26.94828,131 C 26.03217,132.4823 24.44828,132.21166 24.44828,130.57282 z M 28.44828,125.5 C 28.44828,124.125 27.99828,123 27.44828,123 C 26.89828,123 26.44828,124.125 26.44828,125.5 C 26.44828,126.875 26.89828,128 27.44828,128 C 27.99828,128 28.44828,126.875 28.44828,125.5 z M 24.41787,123.25 C 24.39179,120.89104 24.2419,120.74997 23.36375,122.25792 C 22.80071,123.22478 22.61595,124.46228 22.95318,125.00792 C 23.98712,126.68088 24.44967,126.12574 24.41787,123.25 z M 28.44828,118.5 C 28.44828,117.125 27.99828,116 27.44828,116 C 26.33111,116 26.07758,119.29596 27.11495,120.33333 C 28.21729,121.43567 28.44828,121.11806 28.44828,118.5 z M 20.44828,117.89301 C 20.44828,116.45539 18.71316,116.86734 18.1062,118.44907 C 17.73454,119.41759 18.03069,119.71374 18.99921,119.34208 C 19.7962,119.03625 20.44828,118.38417 20.44828,117.89301 z M 24.44828,117 C 24.44828,116.45 23.99828,116 23.44828,116 C 22.89828,116 22.44828,116.45 22.44828,117 C 22.44828,117.55 22.89828,118 23.44828,118 C 23.99828,118 24.44828,117.55 24.44828,117 z M 23.41765,111.5 C 23.41765,110.95 22.98144,111.175 22.44828,112 C 21.91512,112.825 21.47891,113.95 21.47891,114.5 C 21.47891,115.05 21.91512,114.825 22.44828,114 C 22.98144,113.175 23.41765,112.05 23.41765,111.5 z M 28.44828,112.5 C 28.44828,111.125 27.99828,110 27.44828,110 C 26.33111,110 26.07758,113.29596 27.11495,114.33333 C 28.21729,115.43567 28.44828,115.11806 28.44828,112.5 z M 45.44828,131 C 45.44828,130.45 47.02328,130 48.94828,130 C 51.84426,130 52.44828,129.63526 52.44828,127.8865 C 52.44828,126.13309 51.97974,125.85343 49.69828,126.24507 C 48.18578,126.50471 46.04828,127.09544 44.94828,127.5578 C 43.28326,128.25766 43.40887,127.84978 45.69828,125.1225 C 48.96637,121.22937 49.14636,120 46.44828,120 C 45.34828,120 44.44828,119.55 44.44828,119 C 44.44828,118.45 45.34828,118 46.44828,118 C 48.15409,118 48.44828,117.33333 48.44828,113.46778 C 48.44828,109.72648 48.0685,108.79506 46.27202,108.1305 L 44.09576,107.32545 L 46.27202,106.75634 C 47.46896,106.44334 48.44828,105.47011 48.44828,104.59362 C 48.44828,103.71713 49.12328,103 49.94828,103 C 50.78161,103 51.44828,103.88889 51.44828,105 C 51.44828,106.48592 52.11494,107 54.0419,107 C 55.79451,107 56.80511,106.35148 57.15853,105 C 57.82767,102.44118 60.44828,102.38277 60.44828,104.92668 C 60.44828,105.98635 61.23578,107.05915 62.19828,107.31067 C 63.86494,107.74622 63.86494,107.77352 62.19828,107.884 C 60.78041,107.97798 60.44828,108.94895 60.44828,113 C 60.44828,117.33333 60.71494,118 62.44828,118 C 65.7467,118 64.7032,119.8467 61.19828,120.21214 L 57.94828,120.551 L 61.2118,122.5255 C 64.39913,124.4539 65.28672,127.90387 62.38889,127.10073 C 57.00343,125.60815 55.44828,125.78421 55.44828,127.8865 C 55.44828,129.63526 56.05229,130 58.94828,130 C 60.87328,130 62.44828,130.45 62.44828,131 C 62.44828,131.58824 58.94828,132 53.94828,132 C 48.94828,132 45.44828,131.58824 45.44828,131 z M 52.44828,122.5 C 52.44828,121.675 53.12328,121 53.94828,121 C 54.77328,121 55.44828,121.675 55.44828,122.5 C 55.44828,123.325 56.08115,124 56.85466,124 C 57.76871,124 58.07795,123.29986 57.73802,122 C 57.38145,120.63644 56.37401,120 54.57219,120 C 53.01238,120 51.41753,120.81958 50.68035,122 C 49.6386,123.66811 49.68166,124 50.9398,124 C 51.76946,124 52.44828,123.325 52.44828,122.5 z M 57.44828,117 C 57.44828,116.45 56.09828,116 54.44828,116 C 52.79828,116 51.44828,116.45 51.44828,117 C 51.44828,117.55 52.79828,118 54.44828,118 C 56.09828,118 57.44828,117.55 57.44828,117 z M 57.44828,113 C 57.44828,112.45 56.09828,112 54.44828,112 C 52.79828,112 51.44828,112.45 51.44828,113 C 51.44828,113.55 52.79828,114 54.44828,114 C 56.09828,114 57.44828,113.55 57.44828,113 z M 57.44828,109 C 57.44828,108.45 56.09828,108 54.44828,108 C 52.79828,108 51.44828,108.45 51.44828,109 C 51.44828,109.55 52.79828,110 54.44828,110 C 56.09828,110 57.44828,109.55 57.44828,109 z M 82.44828,125.66667 L 82.44828,119.33333 L 86.94828,119.33333 L 91.44828,119.33333 L 91.44828,125.66667 C 91.44828,130.62963 91.12371,132 89.94828,132 C 89.12328,132 88.44828,131.55 88.44828,131 C 88.44828,130.45 87.77328,130 86.94828,130 C 86.12328,130 85.44828,130.45 85.44828,131 C 85.44828,131.55 84.77328,132 83.94828,132 C 82.77284,132 82.44828,130.62963 82.44828,125.66667 z M 88.44828,125 C 88.44828,123 87.94828,122 86.94828,122 C 85.94828,122 85.44828,123 85.44828,125 C 85.44828,127 85.94828,128 86.94828,128 C 87.94828,128 88.44828,127 88.44828,125 z M 102.72324,130 C 102.8061,128.9 103.45314,128 104.16109,128 C 104.86905,128 105.44829,127.55 105.44829,127 C 105.44829,126.45 104.99829,126 104.44829,126 C 103.89829,126 103.44829,124.84844 103.44829,123.44098 C 103.44829,121.98962 103.88113,121.14948 104.44829,121.5 C 104.99829,121.83992 105.44829,121.22447 105.44829,120.13234 C 105.44829,119.04021 104.66079,117.94085 103.69829,117.68933 C 102.03162,117.25378 102.03162,117.22648 103.69829,117.116 C 104.7995,117.04301 105.44829,116.18438 105.44829,114.8 C 105.44829,113.08889 105.18162,112.86667 104.24829,113.8 C 101.9305,116.11779 101.81141,114.94542 103.76073,109 C 104.88477,105.57166 106.31093,103 107.08812,103 C 107.83621,103 108.44829,103.51289 108.44829,104.13976 C 108.44829,104.76662 109.19204,105.82336 110.10107,106.48805 C 111.03478,107.1708 111.43111,108.21878 111.01204,108.89685 C 110.43737,109.82669 109.93516,109.81903 108.78305,108.86286 C 107.59079,107.87338 107.11785,107.91333 106.39828,109.0643 C 105.72075,110.14802 106.10718,110.57757 107.9745,110.81642 C 110.31244,111.11547 111.5844,113 109.44829,113 C 108.89829,113 108.44829,113.9375 108.44829,115.08333 C 108.44829,116.32485 108.95338,116.98368 109.69829,116.71382 C 110.38579,116.46476 111.73579,116.947 112.69829,117.78548 C 114.2952,119.17661 114.44829,119.12145 114.44829,117.15499 C 114.44829,115.6289 113.79166,114.95859 112.19829,114.85809 C 110.96079,114.78005 111.74393,114.44255 113.93861,114.10809 C 116.63771,113.69677 118.03668,112.93372 118.26193,111.75 C 118.52058,110.39076 117.85286,109.96426 115.27161,109.83996 L 111.94829,109.67993 L 115.19829,109.2766 C 119.89724,108.69347 119.51039,106.04244 114.69829,105.85017 C 111.31559,105.71501 111.24213,105.6585 113.94829,105.27322 C 115.59829,105.03831 117.37579,104.43073 117.89829,103.92305 C 118.42079,103.41537 119.48901,103 120.27212,103 C 121.38575,103 121.59706,104.19243 121.24206,108.47331 C 120.96087,111.8641 121.19912,114.11699 121.86823,114.39437 C 122.46226,114.64062 121.72491,114.87763 120.22967,114.92105 C 118.18809,114.98034 117.66083,115.39029 118.11246,116.56722 C 118.53864,117.67784 119.02478,117.82351 119.78107,117.06722 C 121.8255,115.02279 122.48934,116.01993 121.00055,118.89894 C 119.63302,121.54344 119.66246,122.00421 121.33595,124.14894 C 122.53312,125.6832 122.92128,127.19483 122.45324,128.5 C 121.80122,130.31819 121.54744,130.19088 119.6615,127.09945 L 117.58697,123.69891 L 117.26763,127.59945 C 116.97914,131.12324 116.65851,131.52614 113.94829,131.77063 C 111.44586,131.99637 111.23854,131.86374 112.69829,130.97094 C 113.66079,130.38226 114.44829,129.17824 114.44829,128.29532 C 114.44829,126.88982 114.19937,126.91529 112.44829,128.5 C 111.34245,129.50077 110.44829,129.80018 110.44829,129.16969 C 110.44829,128.48854 109.13967,128.82728 107.19829,130.01096 C 103.1274,132.49303 102.53556,132.49158 102.72324,130 z M 113.75445,122.64454 C 114.67759,120.23888 110.69275,121.16805 109.5761,123.61883 C 108.95581,124.98023 108.44829,126.30831 108.44829,126.57011 C 108.44829,127.45963 113.27779,123.8867 113.75445,122.64454 z M 109.80992,119.5 C 110.1265,118.675 109.94964,118 109.41691,118 C 108.88417,118 108.44829,118.675 108.44829,119.5 C 108.44829,120.325 108.62515,121 108.8413,121 C 109.05746,121 109.49333,120.325 109.80992,119.5 z M 15.44828,127.55902 C 15.44828,125.60156 15.89828,124 16.44828,124 C 16.99828,124 17.44828,125.32344 17.44828,126.94098 C 17.44828,128.55852 16.99828,130.16008 16.44828,130.5 C 15.85316,130.8678 15.44828,129.67705 15.44828,127.55902 z M 73.44828,125.13636 L 73.44828,119.27273 L 77.44828,119.27273 L 81.44828,119.27273 L 81.44828,125.13636 C 81.44828,129.52852 81.09276,131 80.03161,131 C 79.25244,131 78.35244,130.4375 78.03161,129.75 C 77.56494,128.75 77.33161,128.75 76.86494,129.75 C 76.54411,130.4375 75.64411,131 74.86494,131 C 73.80379,131 73.44828,129.52852 73.44828,125.13636 z M 78.44828,125 C 78.44828,123.35 77.99828,122 77.44828,122 C 76.89828,122 76.44828,123.35 76.44828,125 C 76.44828,126.65 76.89828,128 77.44828,128 C 77.99828,128 78.44828,126.65 78.44828,125 z M 73.44828,115.87277 C 73.44828,115.12419 75.11141,114.90535 78.39942,115.22128 C 82.09944,115.57681 83.48925,115.3356 83.89942,114.26673 C 84.80087,111.91759 84.5337,111 82.94828,111 C 82.12328,111 81.44828,111.45 81.44828,112 C 81.44828,112.55 79.64828,113 77.44828,113 C 75.24828,113 73.44828,112.55 73.44828,112 C 73.44828,111.45 75.24828,111 77.44828,111 C 83.12655,111 82.43429,109.02827 76.69828,108.86382 C 74.08578,108.78892 73.0004,108.52743 74.28633,108.28273 C 76.19512,107.91951 76.51292,107.3937 76.01728,105.41891 C 75.68337,104.08851 75.77874,103 76.22922,103 C 77.73822,103 79.29765,105.22896 78.76314,106.62186 C 78.47228,107.37983 78.61994,108.00614 79.09129,108.01365 C 79.56263,108.02116 80.96078,108.29865 82.19828,108.63029 C 83.85241,109.07358 84.44828,108.80513 84.44828,107.61663 C 84.44828,106.72748 83.77328,106 82.94828,106 C 82.12328,106 81.44828,105.55 81.44828,105 C 81.44828,104.45 83.92328,104 86.94828,104 C 89.97328,104 92.44828,104.45 92.44828,105 C 92.44828,105.55 91.32328,106 89.94828,106 C 88.46668,106 87.44828,106.57291 87.44828,107.40638 C 87.44828,108.35368 88.15097,108.629 89.60094,108.24983 C 91.60524,107.72569 91.71568,107.96969 91.20329,111.78983 C 90.76498,115.05771 90.98831,115.98184 92.30062,116.33038 C 93.20683,116.57107 89.33578,116.8202 83.69828,116.884 C 76.69173,116.96329 73.44828,116.64331 73.44828,115.87277 z M 88.44828,113.5 C 88.44828,112.125 87.99828,111 87.44828,111 C 86.89828,111 86.44828,111.4132 86.44828,111.91821 C 86.44828,112.42323 86.17513,113.54823 85.84129,114.41821 C 85.44298,115.4562 85.78677,116 86.84129,116 C 87.88874,116 88.44828,115.12953 88.44828,113.5 z "
     style="fill:#040404"
     id="path5695" />
</svg>
