<?xml version="1.0" encoding="UTF-8" standalone="no"?>
<svg id="svg2" xmlns:rdf="http://www.w3.org/1999/02/22-rdf-syntax-ns#" xmlns="http://www.w3.org/2000/svg" height="150" width="150" version="1.1" xmlns:cc="http://creativecommons.org/ns#" xmlns:dc="http://purl.org/dc/elements/1.1/">
 <defs id="defs4">
  <clipPath id="clip">
   <path id="path3143" d="m-25 0l300 300 300-300-300-300z"/>
  </clipPath>
  <radialGradient id="MyGradient" cx="0" gradientUnits="userSpaceOnUse" cy="0" r="59.1">
   <stop id="stop3138" stop-color="#00003b" offset="0"/>
   <stop id="stop3140" stop-color="#002f64" offset="1"/>
  </radialGradient>
 </defs>
 <metadata id="metadata7">
  <rdf:RDF>
   <cc:Work rdf:about="">
    <dc:format>image/svg+xml</dc:format>
    <dc:type rdf:resource="http://purl.org/dc/dcmitype/StillImage"/>
    <dc:title/>
   </cc:Work>
  </rdf:RDF>
 </metadata>
 <g id="g3164" transform="matrix(.27539 0 0 .27539 51.275 61.275)">
  <circle id="circle3145" cy="0" cx="0" r="59.1" fill="url(#MyGradient)"/>
  <g id="g3147" fill="none" clip-path="url(#clip)">
   <circle id="circle3149" stroke-width="29" stroke="#003b6f" cy="0" cx="0" r="101"/>
   <circle id="circle3151" stroke-width="30.4" stroke="#3b6fa0" cy="0" cx="0" r="156.5"/>
   <circle id="circle3153" stroke-width="31.4" stroke="#6fa0d0" cy="0" cx="0" r="215.7"/>
  </g>
 </g>
 <path id="path4174" fill="#555" d="m143.28 137.69h-8.7598l2.9297-1.377 0.0293-16.729-2.8711-1.582h8.7598l-2.9297 1.582v16.729l2.8418 1.377zm-5.8008-12.773h-6.4453q-1.6992 0-3.1641 1.5527-1.4941 1.4356-1.3477 2.9883 0.20508 2.3145 0.46875 2.5195 0.58594 0.76171 1.2891 1.4648 0.32226 0.70312 3.75 1.4648 0.17578 0.38086 0.38086 0.76172l-0.0586 0.9668 0.14649-0.49805q-0.0586 0.76172-1.1133 0.84961l-0.79102 0.0586q-1.0547 0-1.8457-0.32226-2.0508-0.82031-3.1641-1.8164-1.9922-2.168-2.0801-6.123-0.0586-2.666 1.8164-4.5117 2.959-2.168 4.3066-2.168h7.8516v2.8125zm-15.176 3.1641-6.3867-0.70312q3.9844 1.9922 3.9844 5.1562 0 5.127-7.207 5.127-2.4023 0-5.0391-1.582l-1.2891-1.084-2.4023 0.49805 5.6836-5.4199-0.17578 0.70312q-0.64453 1.4941-0.64453 1.9043 0 0.17578 0.0586 0.26367 0.29296 0.26367 0.70312 0.58594 1.6406 1.2891 3.1055 1.2891 1.4062 0 2.5195-0.70312 1.2891-0.79102 1.2891-2.2266 0-1.5527-1.582-2.959-1.2305-1.0547-1.6406-1.0547l-6.2109 1.4648-0.99609-0.41016q-0.58594-0.41016-0.58594-0.9375 0-0.11719 0-0.23437l0.0586-0.49805q0.17578-0.41016 0.64453-0.76172l4.6875-0.67383q-0.58593 0-1.9922-1.084-1.6992-1.2891-1.6992-2.8125 0-2.0801 1.8164-3.0762 1.4062-0.84961 3.5742-0.84961 1.2891 0 3.1641 0.38086l0.35157-0.0586q0.0586 0.0586 0.29297 0.26367l0.29296-0.0879q0.23438-0.17578 1.3477-1.582 0.35156-0.41015 0.41016-0.41015l-1.4648 7.2363-0.52734-2.0508q-0.17578-0.49804-0.64453-0.58594-0.82031-0.26367-1.8164-0.26367-3.1055 0-3.1055 1.6699l0.0586 0.79102q0.23437 0.70313 0.99609 1.3184 0.76172 0.58594 1.2891 0.58594l8.5547-0.0586 0.76172 0.0293q0.17578 0.0879 0.29297 0.32227l0.0586 0.32226q0.17578 0.14649 0.17578 0.41016l-0.17578 0.82031q-0.0586 0.20508-0.11719 0.43945l-0.46875 0.58594zm-7.3242-10.4q0.23437 1.0547 0.23437 1.1133l-0.11719 0.41016q-0.11718 0.26367-0.52734 0.32226-0.41016 0.29297-0.9375 0.32227l-0.70313-0.11719q-0.64453-0.20508-1.1719-0.73242l-0.70313-1.0547q-0.99609-1.2598-2.3438-1.9922-1.9336-1.0547-4.3945-1.0547-2.5195 0-3.8672 1.6992-1.2891 1.5527-1.2891 3.9258v15.791l2.9883 1.4356h-9.9023l3.1641-1.4356 0.05859-15.791q0-3.9551 1.9922-6.1816 2.0508-2.3145 5.8594-2.3145 5.8008 0.0879 9.1992 2.7246 1.9336 1.5234 2.4609 2.9297zm-19.688 26.895-6.9141 3.3984 1.2891-1.7578q-0.70312-1.4941-1.2305-2.2266-1.3477-2.1973-3.3984-4.043-1.1719-1.0254-1.7578-1.084-0.17578-0.0293-0.52734-0.0293-1.1133 0-1.6406 0.52735-0.64453 0.49804-0.64453 1.2012l0.05859 0.76172q0.11719 0.26367 0.29297 0.49805 0.46875 0.46875 1.2305 0.52734l0.9375-0.0293q0.35156-0.0586 0.64453-0.23437 1.582 0.0293 1.6992 0.67383 0.11719 0.20507 0.11719 0.41015l-0.05859 0.38086q-0.17578 0.26367-0.52734 0.52734-0.76172 0.67383-2.5195 0.67383-0.41016 0-0.76172-0.0293-1.875-0.14649-3.3984-1.377-1.5234-1.2598-1.5234-2.6953 0-1.9922 1.875-3.1934 1.582-1.084 3.9258-1.084 0.41016 0 0.87891 0.0293 2.7539 0.17578 5.8594 3.3984 2.1094 2.2559 3.5742 5.127 0 0.0586 0.23438 0.0586 0.99609 0 2.2852-0.41016zm-4.9512-6.8848h-9.1113l2.9883-1.4941v-16.992l-2.9883-1.4356h9.082l-2.9004 1.4648v16.963l2.9297 1.4941zm-6.123-10.195h-5.1562q-0.29297 0.52735-1.6992 1.7578-1.2891 0.8789-3.1055 0.8789l0.70312 3.5156 0.17578 0.55664q0.11719 0.29297 0.35156 0.32226 0.17578 0.0879 0.52734 0.0879h2.9883l1.5234-2.9297v8.877l-1.4062-2.9004h-5.625q-0.58594 0-1.1133-0.38086-0.41016-0.35156-0.64453-1.4062l-1.1719-5.7422h-2.1094v-3.0176h5.8594q0.87891 0 1.582-0.8789 0.70312-0.82031 0.70312-1.8164 0-0.0879 0-0.17578 0-1.2305-0.70312-1.9922-0.70312-0.70312-1.6406-0.70312h-2.9297l-1.4648 2.9004v-8.877l1.4648 2.9297h4.3945q1.9336 0 3.3398 1.7578 0.82031 1.1133 0.9375 2.8125v1.582h4.2188v2.8418zm-19.043-0.67382-4.4531 0.61523q3.9844 1.9922 3.9844 5.1562 0 5.127-7.2656 5.127-2.4023 0-5.0391-1.582l-1.2305-1.084-2.4609 0.49804 5.7422-5.4199-0.23438 0.70313q-0.64453 1.4941-0.64453 1.9043 0 0.17579 0.11719 0.26368 0.29297 0.26367 0.64453 0.58593 1.6406 1.2891 3.1055 1.2891 1.4062 0 2.5195-0.70313 1.2891-0.79101 1.2891-2.2266 0-1.5527-1.5234-2.959-1.2305-1.0547-1.6406-1.0547l-6.2109 1.4648-1.0547-0.41016q-0.58594-0.41015-0.58594-0.9375 0-0.11718 0.05859-0.23437l0.05859-0.49805q0.11719-0.41015 0.58594-0.76172l4.6875-0.67382q-0.52734 0-1.9336-1.084-1.6992-1.2891-1.6992-2.8125 0-2.0801 1.7578-3.0762 1.4648-0.84961 3.6328-0.84961 1.2305 0 3.1055 0.38086l0.35156-0.0586q0.11719 0.0586 0.35156 0.26367l0.23438-0.0879q0.29297-0.17578 1.4062-1.582 0.29297-0.41016 0.41016-0.41016l-1.4648 7.2363-0.52734-2.0508q-0.23438-0.49805-0.64453-0.58594-0.82031-0.26367-1.875-0.26367-3.0469 0-3.1055 1.6699l0.11719 0.79101q0.17578 0.70313 0.99609 1.3184 0.76172 0.58594 1.2891 0.58594l6.6797-1.377 0.70312 0.0293q0.35156 0.11719 0.41016 0.64454 0.11719 0.14648 0.11719 0.41015l-0.11719 0.82031q-0.05859 0.20508-0.17578 0.43946l-0.46875 0.58594zm-4.2773-9.1406q0.23438 1.0547 0.23438 1.1133l-0.11719 0.41016q-0.11719 0.26367-0.52734 0.32226-0.41016 0.29297-0.9375 0.32227l-0.70312-0.11719q-0.64453-0.20508-1.1719-0.73242l-0.70312-1.0547q-0.99609-1.2598-2.3438-1.9922-1.9336-1.0547-4.3945-1.0547-2.5195 0-3.8672 1.6992-1.2891 1.5527-1.2891 3.9258v15.791l2.9883 1.4356h-9.9023l3.1641-1.4356 0.05859-15.791q0-3.9551 1.9922-6.1816 2.0508-2.3145 5.8594-2.3145 5.8008 0.0879 9.1992 2.7246 1.9336 1.5234 2.4609 2.9297zm-22.91 19.98h-9.6094l2.9297-1.4648 0.0293-16.377-2.9883-1.4648h9.6094l-2.9297 1.4648v16.377l2.959 1.4648zm-6.6797-5.0098q-2.8125 2.2266-5.8301 2.2266t-4.8926-1.6113q-2.3438-2.0801-2.3438-6.2695 0-3.0762 1.9629-4.8633 1.6992-1.5234 4.541-1.7285 1.6699 0 3.252 0.55664 0.64453 0.64453 0.84961 1.2305l-0.0293 0.61523q-0.14648 0.61524-0.82031 0.9961-0.9375-0.29297-2.3145-0.29297-1.6699 0.11719-2.373 0.70312-1.1426 0.90821-1.1426 3.1641 0 3.8965 4.3359 3.8965 1.5527 0 3.2227-1.0254 1.2598-0.76172 1.5234-1.1719l0.05859 3.5742zm-1.9336-14.971q0.23438 1.0547 0.23438 1.1133l-0.11719 0.41016q-0.11719 0.26367-0.52734 0.32226-0.41016 0.29297-0.9375 0.32227l-0.70312-0.11719q-0.64453-0.20508-1.1719-0.73242l-0.70312-1.0547q-0.99609-1.2598-2.3438-1.9922-1.9336-1.0547-4.3945-1.0547-2.5195 0-3.8672 1.6992-1.2891 1.5527-1.2891 3.9258v15.791l2.9883 1.4356h-9.9023l3.1641-1.4356 0.058594-15.791q0-3.9551 1.9922-6.1816 2.0508-2.3145 5.8594-2.3145 5.8008 0.0879 9.1992 2.7246 1.9336 1.5234 2.4609 2.9297z"/>
</svg>
