<svg xmlns="http://www.w3.org/2000/svg" width="112.448" height="24.578" version="1.0">
 <defs>
  <linearGradient id="Wikiquote-wordmark-ko_svg__a">
   <stop offset="0" stop-color="#036"/>
   <stop offset="1" stop-color="#4b91d6" stop-opacity=".745"/>
  </linearGradient>
 </defs>
 <g font-family="Malgun Gothic" font-size="22" font-weight="700">
  <path fill="#555" style="line-height:100%;-inkscape-font-specification:'Malgun Gothic Bold';text-align:start" d="M18.109 24.525c.99-.131 2.507.256 3.187-.182V.053c-.99.131-2.508-.256-3.187.181v24.29zM40.324 24.525c.942-.215 2.774.447 3.112-.363V.052c-.942.216-2.775-.446-3.112.364v24.109zM62.775 17.807c.975-.135 2.487.26 3.15-.182V.385c-.976.134-2.488-.26-3.15.181v17.24zM109.26 13.525c.991-.131 2.508.256 3.188-.182V.385c-.99.13-2.508-.256-3.187.181v12.959zM77.422.533c-2.212.172-4.763.76-6.017 2.74-.984 1.676-.35 4 1.33 5 1.363.35.723 1.806.863 2.849-.134.985-2.073.192-2.948.447-.86.274-2.89-.603-2.864.544.013 1.127-.398 2.673 1.29 2.15h21.806c-.274-.87.671-2.94-.737-2.694H85.07c.245-.976-.536-2.542.482-3.072 1.526-.74 2.484-2.458 2.104-4.118-.357-2.116-2.613-3.21-4.552-3.584C81.244.41 79.31.387 77.422.533zM6.974.68c-2.338.3-4.84 1.895-5.076 4.383-.45 2.425 1.36 4.8 3.696 5.452 1.973.62 4.204.614 6.141-.127 1.325-.568 2.536-1.5 3.042-2.876.921-2.206-.215-4.948-2.387-5.978C10.77.586 8.804.484 6.974.68zM51.864 1.381c-3.03.114-5.73 2.644-5.94 5.63-.333 2.384.714 4.918 2.791 6.24 2.945 1.858 7.405 1.275 9.41-1.67 1.4-2.058 1.453-4.905.276-7.067C57.116 2.25 54.437 1.1 51.864 1.38zM92.427 4.076h5.099c.145 2.34-1.203 4.473-2.948 5.955-.92.877-2.068 1.46-3.239 1.944.827.64 1.571 1.887 2.447 2.161 2.054-1.138 3.87-2.752 5.172-4.686.435-1.236 1.145 1.026 1.863 1.266 1.185 1.076 2.546 1.941 3.978 2.661.518-.793 1.864-1.794 1.89-2.465-2.437-.826-4.828-2.457-5.677-4.954-.343-1.088-.496-2.368 1.065-1.882h3.697c-.275-.857.674-2.92-.737-2.658h-12.61v2.658zM24.652 4.888h8.586a13.482 13.482 0 01-.9 3.1l-9.073.628c.58.775.412 2.73 1.562 2.605l6.011-.575c-1.292 1.92-3.236 3.404-5.154 4.716-.852.54-1.508 1.204-2.457 1.56.85.648 1.626 1.872 2.522 2.161 4.81-2.605 8.5-7.143 10.076-12.312.404-1.496.72-3.026.787-4.577H24.614l.038 2.694z"/>
  <path fill="#fff" style="line-height:100%;-inkscape-font-specification:'Malgun Gothic Bold';text-align:start" d="M80.534 2.932c1.366.135 3.146.289 3.824 1.66.322.984-.412 1.952-1.368 2.215-1.985.616-4.15.564-6.194.273-1.067-.234-2.542-.713-2.561-2.007.08-1.39 1.725-1.84 2.887-2.03 1.126-.172 2.276-.156 3.412-.111zM8.436 3.117c1.6-.1 3.468.85 3.584 2.579.107 1.711-1.76 2.782-3.318 2.736-1.656.126-3.668-.81-3.79-2.621-.08-1.504 1.38-2.522 2.774-2.658.25-.033.498-.046.75-.036zM52.54 4.039c1.968-.14 3.549 1.718 3.503 3.576.21 1.83-1.09 3.928-3.091 3.99-1.911.316-3.768-1.258-3.879-3.133-.236-1.633.42-3.526 2.08-4.175.447-.165.9-.306 1.386-.258zM78.022 9.724c1.275.064 2.551.018 3.824-.074.146 1.267.142 2.387-1.474 1.92h-3.588c.142-1.174-.595-2.405 1.238-1.846z"/>
  <path fill="#555" style="line-height:100%;-inkscape-font-specification:'Malgun Gothic Bold';text-align:start" d="M13.197 12.676A501.18 501.18 0 010 12.898c.377.805-.322 2.805.853 2.724 2.04-.018 4.08-.062 6.12-.104L6.9 23.86c.992-.13 2.504.256 3.189-.181l.11-8.271 6.974-.222c-.334-.857.466-2.97-.924-2.658l-3.05.148zM96.4 24.34h16.01v-9.782c-.975.135-2.487-.26-3.15.182-.135 1.005.567 2.835-1.105 2.328H99.55c-.227-.915.66-2.927-.92-2.51-.994.117-2.769-.537-2.23 1.089v8.693zM77.422 15.186c-2.238.184-4.818.776-6.081 2.783-.833 1.546-.496 3.654.93 4.758 2.072 1.633 4.883 1.785 7.431 1.784 2.369-.054 4.976-.307 6.83-1.906 1.752-1.463 1.626-4.492-.245-5.805-2.183-1.608-5.067-1.714-7.69-1.688-.393-.008-.784.053-1.175.074zM49.877 24.007h16.535c-.274-.87.671-2.94-.737-2.694H53.139v-5.389c-1.023.124-2.547-.246-3.262.181v7.902z"/>
  <path fill="#fff" style="line-height:100%;-inkscape-font-specification:'Malgun Gothic Bold';text-align:start" d="M80.534 17.77c1.263.081 2.69.181 3.636 1.107.687.846.122 2.067-.843 2.4-1.79.796-3.83.665-5.742.567-1.26-.17-2.967-.424-3.388-1.822-.172-1.215 1.122-1.894 2.166-2.038 1.362-.293 2.784-.253 4.17-.214zM109.26 19.726c.122 1.267.178 2.47-1.473 1.993H99.55c-.121-1.268-.177-2.47 1.474-1.993h8.237z"/>
 </g>
</svg>
