<?xml version="1.0" encoding="UTF-8" standalone="no"?>
<svg
   xmlns:dc="http://purl.org/dc/elements/1.1/"
   xmlns:cc="http://creativecommons.org/ns#"
   xmlns:rdf="http://www.w3.org/1999/02/22-rdf-syntax-ns#"
   xmlns:svg="http://www.w3.org/2000/svg"
   xmlns="http://www.w3.org/2000/svg"
   version="1.1"
   id="svg2239"
   x="0px"
   y="0px"
   width="117.27885"
   height="45.854389"
   viewBox="5.697 2.364 117.27885 45.854388"
   enable-background="new 5.697 2.364 138.607 145.272"
   xml:space="preserve"><metadata
     id="metadata22"><rdf:RDF><cc:Work
         rdf:about=""><dc:format>image/svg+xml</dc:format><dc:type
           rdf:resource="http://purl.org/dc/dcmitype/StillImage" /></cc:Work></rdf:RDF></metadata><defs
     id="defs20" /><g
     transform="translate(-10.508157,-92.945)"
     id="_x34_ekxzV_1_">
	<g
   id="g14">
		<path
   fill-rule="evenodd"
   clip-rule="evenodd"
   fill="#555555"
   d="m 78.021,95.309 c -4.298,5.279 -6.587,12.948 -9.044,20.92 -1.742,5.656 -3.569,11.57 -4.861,17.377 -0.425,1.912 -1.188,4.216 -0.248,6.084 0.485,0.053 0.972,0.106 1.458,0.16 1.266,-0.645 0.952,-2.108 1.408,-3.217 1.224,-2.98 3.603,-5.521 5.103,-8.079 2.79,1.33 9.683,6.923 8.859,-0.079 -1.424,-0.591 -1.383,0.645 -2.196,0.812 -1.351,-1.386 -3.505,-2.126 -5.116,-3.302 1.168,-2.732 4.579,-5.899 3.344,-9.326 -1.896,-0.779 -2.862,1.049 -3.837,2.317 -0.926,1.205 -2.186,2.586 -2.563,4.144 -0.539,2.221 -0.45,3.54 -1.754,4.443 2.968,-9.322 5.008,-19.8 8.782,-28.113 0.436,0.815 2.374,-3.523 1.083,-4.096 -0.141,-0.015 -0.28,-0.03 -0.418,-0.045 z m -45.145,27.275 c -0.538,-3.535 5.829,-10.779 1.237,-11.243 -2.552,-0.258 -4.956,6.433 -6.443,8.773 -2.311,3.633 -4.469,7.015 -6.097,9.444 1.72,-8.743 2.448,-16.621 4.112,-25.888 0.418,-2.331 1.541,-5.118 -0.654,-5.551 -2.211,-0.437 -3.066,4.251 -3.554,7.405 -1.182,7.641 -3.223,18.593 -4.251,25.241 -0.526,3.403 -2.288,9.662 0.566,10.176 2.314,0.418 5.026,-5.129 6.006,-6.713 1.702,-2.752 2.839,-5.43 4.896,-8.103 0.125,3.991 -3.216,14.784 0.664,15.034 1.715,0.11 2.655,-3.607 3.071,-4.93 0.783,-2.488 1.215,-4.622 1.774,-6.548 3.684,-12.692 10.405,-24.918 15.089,-33.742 -6.21,7.962 -10.829,17.906 -16.416,26.645 z M 58.202,99.239 c -5.296,9.653 -9.715,20.399 -15.835,29.024 0.19,-4.192 2.108,-7.462 2.44,-10.689 -2.818,-0.567 -6.571,14.011 -3.106,14.83 2.837,0.671 3.503,-4.134 5.245,-5.534 0.016,1.759 -1.092,4.42 0.283,5.089 2.542,-0.618 3.118,-3.688 4.806,-5.372 2.618,0.996 3.973,-1.474 6.66,-1.163 -2.224,3.659 2.259,6.656 3.659,3.141 -0.92,-3.175 2.391,-6.661 1.678,-9.509 -2.775,-0.146 -3.14,2.715 -4.483,4.354 -2.615,-0.025 -4.222,1.206 -6.498,1.604 0.459,-1.894 3.199,-2.865 2.238,-5.022 -0.156,-0.064 -0.41,-0.051 -0.394,-0.254 -3.193,0.516 -3.756,4.312 -5.567,6.552 1.498,-11.549 9.87,-15.785 11.166,-26.798 -0.367,-0.69 -1.751,-0.663 -2.292,-0.253 z m 49.279,24.366 c 2.073,0.056 3.509,-0.351 4.762,0.967 0.986,5.071 -5.83,2.78 -4.762,-0.967 z m 9.144,-13.518 c -1.123,-0.107 -1.976,0.12 -2.761,0.437 -0.226,1.512 2.188,0.91 2.492,1.999 -0.386,4.505 -2.68,6.63 -5.133,8.558 -3.793,-0.668 -5.798,0.894 -5.731,5.04 1.391,2.253 2.885,5.167 6.394,4.648 3.675,-0.545 5.203,-7.454 1.477,-8.962 0.623,-1.069 1.485,-1.842 2.271,-2.708 0.12,3.522 -0.231,10.473 3.53,10.497 1.659,0.011 2.82,-1.998 1.672,-4.006 -0.219,0.219 -1.246,0.801 -1.271,0.352 -1.136,-3.827 -0.978,-8.692 -0.447,-13.856 1.312,-0.577 3.223,-0.411 3.678,-2.06 -1.114,-0.246 -2.337,0.416 -3.167,-0.35 0.813,-2.486 1.044,-6.071 -0.415,-7.441 -3.036,-0.182 -2.165,5.663 -2.589,7.852 z m -8.516,7.939 c 1.957,-0.631 3.85,-2.737 3.755,-5.012 -1.906,0.854 -2.903,2.842 -3.755,5.012 z M 47.83,111.164 c -1.177,-1.65 -3.324,1.478 -1.27,1.968 0.677,-0.34 1.34,-0.697 1.27,-1.968 z m 16.379,2.433 c -0.17,0.706 -0.046,1.177 0.025,1.688 0.156,0.064 0.41,0.052 0.393,0.254 1.895,0.484 2.451,-1.567 1.315,-2.384 -0.883,-0.234 -1.205,0.233 -1.733,0.442 z m 66.911,12.63 c -0.242,-1.363 1.641,-4.627 0.156,-5.899 -2.989,-0.659 -2.109,3.625 -2.348,5.658 -0.624,0.607 -1.09,1.409 -2.57,0.95 -1.974,-1.281 0.83,-5.497 -0.738,-6.738 -2.797,1.017 -2.972,7.629 -0.748,9.039 2.705,0.79 3.778,-0.459 5.086,-1.412 0.762,0.816 2.125,2.694 3.521,1.62 0.125,-1.802 -2.132,-1.697 -2.359,-3.218 z m -29.605,0.194 c -3.294,1.511 -2.621,-3.246 -2.09,-5.652 -1.112,0.368 -1.673,1.422 -2.895,1.653 -0.583,3.34 0.533,5.878 2.74,6.466 4.122,1.099 6.185,-4.454 4.646,-8.61 -3.381,-0.653 -0.921,4.346 -2.401,6.143 z m -5.824,-3.105 c -0.11,-2.918 -5.091,-5.309 -5.034,-1.293 0.017,1.09 3.854,4.568 0.33,5.953 -2.494,-0.582 -0.895,-3.487 -1.653,-5.112 -0.187,-0.076 -0.482,-0.062 -0.463,-0.298 -3.651,-0.862 -1.948,4.955 -4.975,4.876 -2.219,-1.489 0.041,-5.89 0.642,-8.065 -5.03,0.502 -6.275,11.948 1.257,10.986 0.78,-0.319 1.204,-1.085 1.893,-1.518 3.071,4.584 8.736,0.515 8.003,-5.529 z"
   id="path2" />
		<path
   fill-rule="evenodd"
   clip-rule="evenodd"
   fill="#555555"
   d="m 78.438,95.354 c 1.291,0.572 -0.647,4.911 -1.083,4.096 -3.773,8.313 -5.814,18.791 -8.782,28.113 1.304,-0.903 1.215,-2.223 1.754,-4.443 0.377,-1.558 1.637,-2.938 2.563,-4.144 0.975,-1.269 1.94,-3.097 3.837,-2.317 1.235,3.427 -2.176,6.594 -3.344,9.326 1.611,1.176 3.766,1.916 5.116,3.302 0.813,-0.168 0.772,-1.403 2.196,-0.812 0.824,7.002 -6.069,1.409 -8.859,0.079 -1.5,2.559 -3.879,5.099 -5.103,8.079 -0.456,1.108 -0.142,2.572 -1.408,3.217 -0.486,-0.054 -0.972,-0.107 -1.458,-0.16 -0.94,-1.868 -0.178,-4.172 0.248,-6.084 1.292,-5.807 3.119,-11.721 4.861,-17.377 2.457,-7.972 4.746,-15.641 9.044,-20.92 0.139,0.015 0.278,0.03 0.418,0.045 z"
   id="path4" />
		<path
   fill-rule="evenodd"
   clip-rule="evenodd"
   fill="#555555"
   d="m 60.492,99.491 c -1.295,11.013 -9.667,15.249 -11.166,26.798 1.812,-2.239 2.374,-6.036 5.567,-6.552 -0.016,0.203 0.237,0.189 0.394,0.254 0.961,2.157 -1.778,3.129 -2.238,5.022 2.276,-0.398 3.882,-1.63 6.498,-1.604 1.343,-1.639 1.708,-4.499 4.483,-4.354 0.713,2.848 -2.598,6.334 -1.678,9.509 -1.399,3.516 -5.883,0.519 -3.659,-3.141 -2.688,-0.311 -4.042,2.159 -6.66,1.163 -1.688,1.684 -2.263,4.754 -4.806,5.372 -1.375,-0.669 -0.267,-3.33 -0.283,-5.089 -1.741,1.4 -2.408,6.205 -5.245,5.534 -3.465,-0.819 0.288,-15.397 3.106,-14.83 -0.332,3.228 -2.25,6.497 -2.44,10.689 6.121,-8.625 10.54,-19.371 15.835,-29.024 0.543,-0.409 1.927,-0.436 2.292,0.253 z"
   id="path6" />
		<path
   fill-rule="evenodd"
   clip-rule="evenodd"
   fill="#555555"
   d="m 46.56,113.132 c -2.055,-0.49 0.093,-3.618 1.27,-1.968 0.07,1.271 -0.593,1.628 -1.27,1.968 z"
   id="path8" />
		<path
   fill-rule="evenodd"
   clip-rule="evenodd"
   fill="#555555"
   d="m 65.943,113.155 c 1.136,0.816 0.58,2.868 -1.315,2.384 0.017,-0.202 -0.237,-0.189 -0.393,-0.254 -0.072,-0.512 -0.195,-0.982 -0.025,-1.688 0.527,-0.209 0.849,-0.676 1.733,-0.442 z"
   id="path10" />
		<path
   fill-rule="evenodd"
   clip-rule="evenodd"
   fill="#555555"
   d="m 49.293,95.941 c -4.685,8.824 -11.406,21.05 -15.089,33.742 -0.559,1.926 -0.991,4.06 -1.774,6.548 -0.416,1.322 -1.356,5.04 -3.071,4.93 -3.88,-0.25 -0.54,-11.043 -0.664,-15.034 -2.056,2.673 -3.194,5.351 -4.896,8.103 -0.98,1.584 -3.692,7.131 -6.006,6.713 -2.854,-0.514 -1.093,-6.772 -0.566,-10.176 1.028,-6.648 3.07,-17.601 4.251,-25.241 0.488,-3.154 1.342,-7.842 3.554,-7.405 2.194,0.433 1.072,3.22 0.654,5.551 -1.664,9.267 -2.392,17.145 -4.112,25.888 1.627,-2.43 3.786,-5.812 6.097,-9.444 1.488,-2.341 3.892,-9.031 6.443,-8.773 4.592,0.464 -1.775,7.708 -1.237,11.243 5.586,-8.741 10.205,-18.685 16.416,-26.645 z"
   id="path12" />
	</g>
</g></svg>
