<?xml version="1.0" encoding="UTF-8" standalone="no"?>
<svg
   xmlns:dc="http://purl.org/dc/elements/1.1/"
   xmlns:cc="http://creativecommons.org/ns#"
   xmlns:rdf="http://www.w3.org/1999/02/22-rdf-syntax-ns#"
   xmlns:svg="http://www.w3.org/2000/svg"
   xmlns="http://www.w3.org/2000/svg"
   width="115.23996"
   height="57.435268"
   id="svg2"
   version="1.1">
  <metadata
     id="metadata29">
    <rdf:RDF>
      <cc:Work
         rdf:about="">
        <dc:format>image/svg+xml</dc:format>
        <dc:type
           rdf:resource="http://purl.org/dc/dcmitype/StillImage" />
      </cc:Work>
    </rdf:RDF>
  </metadata>
  <defs
     id="defs27" />
  <g
     transform="translate(-21.380021,-89.56788)"
     id="layer2">
    <g
       id="g3383">
      <g
         transform="matrix(0.09663676,0,0,0.09663676,68.024826,102.58204)"
         id="g3462">
        <path
           d="m -473.13583,299.4009 c 10.67572,-16.16053 18.7018,-35.10474 23.44926,-49.78247 4.25024,-13.2623 5.89979,-17.01667 9.64049,-21.94176 2.48209,-3.26796 4.96413,-7.76796 5.51567,-10 0.55153,-2.23203 2.37105,-6.63655 4.04338,-9.78783 2.24656,-4.23334 3.19756,-7.6282 3.64166,-13 0.50585,-6.11878 1.3585,-8.696 5.38292,-16.27041 2.63002,-4.95 5.5453,-12.15 6.47839,-16 0.93309,-3.85 2.53536,-8.40312 3.56061,-10.11803 1.02524,-1.71492 1.87009,-3.96492 1.87745,-5 0.057,-8.01474 17.67144,-42.36435 25.57946,-49.88197 2.31424,-2.2 6.16509,-6.28557 8.55744,-9.07904 7.86098,-9.17903 11.83134,-12.10736 17.45414,-12.87328 l 5.10442,-0.69531 0.64558,6.07381 c 0.35507,3.3406 0.92455,8.67974 1.26551,11.86475 0.55459,5.18057 0.28724,6.45 -2.53653,12.04385 -1.73605,3.4391 -6.51209,16.02068 -10.61342,27.95906 -4.10133,11.93839 -8.10893,23.05616 -8.90576,24.70616 -0.79684,1.65 -2.17501,8.175 -3.0626,14.5 -0.88759,6.325 -3.17646,19.15 -5.08637,28.5 -1.90992,9.35 -5.2739,28.475 -7.47552,42.5 -2.20162,14.025 -5.11372,29.45759 -6.47134,34.29464 -1.7368,6.18806 -2.46839,11.30157 -2.46839,17.25302 0,9.80187 -3.27272,39.86423 -5.48438,50.37811 -1.71835,8.16874 -1.9456,20.63108 -0.48457,26.57423 0.54083,2.2 1.46515,9.4 2.05404,16 0.58889,6.6 1.44647,15.825 1.90574,20.5 0.45926,4.675 0.8742,9.0625 0.9221,9.75 0.0479,0.6875 0.56237,1.25 1.1433,1.25 2.30378,0 4.92085,-9.19926 6.97498,-24.51768 1.81331,-13.52258 2.68167,-17.1366 5.64223,-23.48232 2.73013,-5.85179 3.50211,-8.78165 3.51283,-13.33203 0.0123,-5.21824 -0.30449,-5.97552 4.84579,-13.62291 l 4.83206,-7.79088 -1.11649,-6.51799 c -1.06901,-6.24083 -0.98425,-6.85261 1.99314,-14.38719 1.71029,-4.32805 3.6467,-10.00215 4.30314,-12.6091 0.98204,-3.90005 1.59331,-4.7399 3.4498,-4.7399 1.24096,0 3.61724,-0.27219 5.28062,-0.60487 4.07817,-0.81563 4.8832,1.85304 2.32044,7.69216 -1.0652,2.42699 -2.25204,6.21271 -2.63743,8.41271 -0.38539,2.2 -1.48863,5.35 -2.45164,7 -0.96301,1.65 -2.05299,5.00267 -2.42217,7.45039 -0.36919,2.44771 -1.13929,5.01433 -1.71133,5.7036 -0.73853,0.88987 -0.54522,2.09095 0.6667,4.14258 1.59821,2.70556 1.60181,3.30794 0.0566,9.46934 -0.90761,3.61898 -2.56249,9.20215 -3.67751,12.40703 -3.89637,11.19928 -7.48842,25.00675 -6.26798,29.79028 1.05904,4.15092 0.0566,7.23251 -1.06122,11.44621 -1.19565,4.50704 -1.70643,9.01881 -1.01393,11.94334 0.96799,4.08794 0.14051,5.89269 -0.97384,8.5597 -0.88056,2.10748 -1.60102,5.02337 -1.60102,6.47975 0,1.45639 -0.92946,6.01393 -2.06546,10.12788 -2.40671,8.71566 -5.26191,12.22667 -11.85462,14.5775 -2.51896,0.8982 -7.87048,3.02485 -11.89228,4.72587 -7.91481,3.34758 -8.54842,3.19658 -9.7491,-2.32347 -0.29908,-1.375 -1.67363,-4.93062 -3.05454,-7.90139 -2.15975,-4.64626 -2.41983,-6.25398 -1.86035,-11.5 0.52091,-4.88442 0.24159,-7.13424 -1.40301,-11.30036 -2.78616,-7.05795 -6.12063,-20.38613 -6.12067,-24.46486 -2e-5,-2.61096 -0.75856,-3.93862 -3.5,-6.12602 l -3.49997,-2.79263 0.005,-13.70737 c 0.005,-14.3817 1.80743,-38.16823 4.66976,-61.63533 1.53995,-12.62541 1.96261,-14.2284 4.51953,-17.14057 2.74439,-3.12568 2.78661,-3.34585 1.56049,-8.13691 -1.46245,-5.71451 -0.78344,-23.19553 1.19846,-30.26932 1.58587,-5.66028 1.28645,-5.14241 2.64581,-2.55887 0.60784,1.15524 1.40093,3.12822 1.40093,4.60995 0,3.29354 2.37421,9.21614 3.31668,8.27367 1.84029,-1.84029 -2.09069,-31.31715 -4.29718,-29.39325 -1.80519,1.57399 -2.93468,3.67428 0.10508,-2.88428 1.07812,-2.32615 0.80969,-4.66998 -0.13927,-9.14168 -0.69223,-3.26193 -1.59627,-5.93078 -2.00897,-5.93078 -0.41271,0 -3.08108,6.8625 -5.92972,15.25 -2.84864,8.3875 -7.80576,22.225 -11.01582,30.75 -8.64648,23.50283 -15.68704,47.56463 -25.28494,70.23098 -19.36868,19.24923 -27.8537,21.15632 -10.32229,-39.94851 z"
           id="path3366"
           style="fill:#555555;fill-opacity:1" />
        <path
           d="m -416.55938,280.85898 c 0,-1.2427 -1.11878,-2.55697 -2,-3.50848 -1.97102,-2.12824 -2,-0.99869 -2,1.05946 0,2.28173 2.10162,4.54834 3.2,4.70847 0.88242,0.12865 0.8,-1.01675 0.8,-2.25945 z"
           id="path3364"
           style="fill:#555555;fill-opacity:1" />
        <path
           d="m -211.58827,244.72154 c -8.47411,8.64698 -22.59741,19.60178 -29.45177,22.84442 -10.38914,4.91484 -20.04541,4.30342 -23.0247,-1.4579 -0.80882,-1.56408 -2.13147,-7.24313 -2.93923,-12.62012 -2.5587,-17.0325 -6.26055,-18.86127 -20.34233,-10.0494 -4.79219,2.99879 -10.22533,6.21582 -12.07363,7.14896 l -3.36054,1.69662 2.28636,-4.06803 c 1.2575,-2.23742 5.81996,-8.0122 10.13881,-12.83284 9.96597,-11.12391 14.26045,-17.54494 18.5106,-27.67671 1.86607,-4.44846 6.27549,-14.01644 9.7987,-21.26218 8.35506,-17.18277 14.24719,-22.98974 28.12483,-27.71832 4.55254,-1.55121 4.9326,-1.54746 6.1082,0.0603 1.86915,2.55622 1.67579,3.62932 -3.67438,20.39213 -8.22488,25.7697 -8.22567,25.77389 -8.73188,45.94 -0.41353,16.47434 -0.26596,18.88323 1.34774,22 1.59692,3.08438 2.25043,3.48708 5.50325,3.39116 3.25298,-0.0959 5.061,-1.3878 15.23079,-10.88272"
           id="path3490"
           style="fill:#555555;fill-opacity:1" />
        <path
           d="m 82.165079,252.76278 c 1.36166,-0.17974 5.34218,-7.62334 7.37805,-10.44997 1.74302,-2.42002 6.04244,-6.34749 9.55429,-10.19749 8.335131,-9.13772 12.830561,-15.99331 16.991281,-25.91189 1.86607,-4.44846 6.27549,-14.01644 9.7987,-21.26218 8.35506,-17.18277 14.24719,-22.98974 28.12483,-27.71832 4.55254,-1.55121 4.93264,-1.54746 6.10824,0.0603 1.8691,2.55622 1.6757,3.62932 -3.6744,20.39213 -8.2249,25.7697 -8.22569,25.77389 -8.7319,45.94 -0.41353,16.47434 -0.26596,18.88323 1.34774,22 1.61698,3.12312 2.2251,3.4869 5.64743,3.37837 3.09293,-0.0981 4.73823,-0.98594 8.50003,-4.58694 5.3922,-5.16181 13.06379,-12.39909 14.30589,-12.39909 1.8458,0 -2.24689,10.29887 -4.67199,13.86776 -3.1787,4.67784 -18.71707,16.76574 -25.94991,20.18743 -10.38914,4.91484 -20.04541,4.30342 -23.0247,-1.4579 -0.80882,-1.56408 -2.13147,-7.24313 -2.93923,-12.62012 -2.56035,-17.04349 -6.26936,-18.87122 -20.34233,-10.02427 -5.074591,3.19013 -12.508871,10.04409 -16.598501,12.26915"
           id="path3502"
           style="fill:#555555;fill-opacity:1" />
        <path
           d="m 86.994989,250.0208 c -4.08963,2.22505 -7.84101,4.03016 -11.56258,5.5405"
           id="path3498"
           style="fill:#555555;fill-opacity:1" />
        <path
           d="m 2.3070689,277.99252 c -389.7909089,198.36222 -194.8954589,99.18111 0,0 z"
           id="path3360"
           style="fill:#555555;fill-opacity:1" />
        <path
           d="m -353.19155,274.6346 c -0.89678,-2.33696 4.4385,-25.52551 6.77936,-29.46492 1.57388,-2.64867 2.23791,-5.83868 2.61267,-12.55125 0.43176,-7.73368 0.97646,-9.90059 3.8713,-15.4007 1.85286,-3.52039 3.36884,-7.35982 3.36884,-8.53207 0,-1.17226 0.62871,-4.36694 1.39712,-7.0993 2.45695,-8.73649 15.49531,-52.66223 18.24536,-61.46793 1.46002,-4.675 4.65295,-15.475 7.09541,-24 5.1483,-17.96931 6.85817,-21.85809 10.17495,-23.14103 3.6646,-1.41748 4.97534,0.56671 2.27392,3.44224 -1.47323,1.56818 -2.18676,3.59355 -2.18676,6.20719 0,3.49478 -6.93541,23.39838 -9.07972,26.05746 -0.47274,0.58622 -1.16824,3.73622 -1.54557,7 -0.37732,3.26378 -2.48636,10.43414 -4.68674,15.93414 -2.20039,5.5 -4.60041,13.45174 -5.33337,17.67053 -0.73297,4.21879 -2.9126,11.13747 -4.84363,15.37484 -1.93103,4.23738 -3.51097,9.02387 -3.51097,10.63665 0,4.79937 -2.07261,11.57371 -4.10321,13.41138 -1.53193,1.38638 -1.89679,3.11878 -1.89679,9.00619 0,6.20141 -0.52248,8.43612 -3.5,14.96985 -1.925,4.22414 -3.5,9.10392 -3.5,10.84396 0,1.74004 -0.9,4.92901 -2,7.0866 -1.1,2.15759 -1.99897,4.61523 -1.9977,5.46144 0.004,2.62092 -5.45682,20.03259 -6.28368,20.03566 -0.42977,0.002 -1.03762,-0.66482 -1.35079,-1.48093 z"
           id="path3358"
           style="fill:#555555;fill-opacity:1" />
        <path
           d="m -222.78838,105.42276 c -2.64468,-1.68826 -5.771,-7.64007 -5.771,-10.98671 0,-2.59331 4.52228,-9.60994 7.70113,-11.94885 4.48963,-3.30334 12.52882,-7.13368 16.55923,-7.88979 3.41451,-0.64057 3.69304,-0.50074 4.31885,2.16815 0.36793,1.56908 2.47105,4.72893 4.67361,7.02189 5.09587,5.30503 4.6594,7.63528 -2.49995,13.34703 -10.56009,8.42488 -19.909,11.52658 -24.98187,8.28828 z"
           id="path3356"
           style="fill:#555555;fill-opacity:1" />
        <path
           d="m 154.92325,107.82787 c -2.6446,-1.68826 -5.771,-7.64007 -5.771,-10.98671 0,-2.59331 4.5223,-9.60994 7.7012,-11.94885 4.4896,-3.30334 12.5288,-7.13368 16.5592,-7.88979 3.4145,-0.64057 3.693,-0.50074 4.3189,2.16815 0.3679,1.56908 2.471,4.72893 4.6736,7.02189 5.0958,5.30503 4.6594,7.63528 -2.5,13.34703 -10.5601,8.42488 -19.909,11.52658 -24.9819,8.28828 z"
           id="path3354"
           style="fill:#555555;fill-opacity:1" />
        <path
           d="m -298.55938,87.10577 c 0,-2.81903 4.47991,-16.3727 10.73809,-32.48734 8.20419,-21.1256 19.44117,-55.8692696 18.69686,-57.8089096 -0.46709,-1.21724 3.40041,-8.9567804 7.89269,-15.7946504 0.94076,-1.43195 3.46784,-7.83453 5.61575,-14.22794 2.75035,-8.186652 6.69707,-16.584462 13.34547,-28.396442 16.53419,-29.375729 20.73954,-38.789678 22.22802,-49.758888 0.9037,-6.65974 2.71486,-10.00483 8.80549,-16.26318 4.36513,-4.48532 5.65363,-5.25 8.84642,-5.25 2.05541,0 4.93257,-0.54469 6.3937,-1.21042 4.28802,-1.95375 5.65535,0.88088 5.26039,10.90537 -0.29841,7.57398 -0.55756,8.44539 -3.41992,11.5 -2.77172,2.95789 -2.99462,3.64031 -2.12205,6.49678 0.86799,2.84146 0.59236,3.71939 -2.51155,7.999997 -1.9176,2.644552 -3.8063,6.158276 -4.19713,7.808276 -0.39082,1.65 -1.95674,4.35 -3.47983,6 -1.52309,1.65 -4.03898,5.25 -5.59086,8 -1.55188,2.750005 -4.77459,7.757145 -7.16157,11.126995 -2.38698,3.36984 -4.33997,7.11335 -4.33997,8.31891 0,1.20556 -2.68939,5.97608 -5.97642,10.60115 -3.28703,4.62508 -7.52408,11.482462 -9.41566,15.238642 -1.89158,3.75618 -4.18188,7.44576 -5.08956,8.19906 -5.17354,4.29367 -22.62759,39.08326 -27.00716,53.83096 -0.37822,1.27363 -1.93206,3.74863 -3.45297,5.5 -1.5209,1.75136 -3.07535,4.53429 -3.45432,6.18429 -0.37898,1.65 -1.1224,4.99866 -1.65205,7.44148 -0.52965,2.44281 -1.82416,5.36781 -2.8767,6.5 -1.05254,1.13218 -2.6157,4.78743 -3.47368,8.12277 -2.05498,7.98854 -8.13309,21.04203 -10.15999,21.81983 -2.16222,0.82972 -2.44149,0.78434 -2.44149,-0.39674 z"
           id="path2451-5"
           style="fill:#555555;fill-opacity:1" />
        <path
           id="path2453-6"
           d="m -134.93466,234.08663 c 1.42267,-11.87569 18.85278,-46.53853 22.91782,-60.84063 1.44171,-5.07243 3.36448,-12.49773 -2.16864,-13.11355 -12.37568,-1.37734 -37.45914,38.18227 -37.45914,60.51345 0,7.34637 -2.69589,25.45863 2.61851,25.45863 3.93369,0 8.77705,-5.97408 14.09145,-12.0179 z m 23.6703,183.72676 c 12.895219,-20.42394 25.820709,-47.38114 25.898859,-86.63124 -5.90856,-23.88661 -23.355609,-34.93641 -31.014589,-16.62259 -5.70515,13.67675 -10.46904,69.78337 -12.55311,86.06521 -7.83214,44.25399 6.33668,35.13772 17.66884,17.18862 z M 87.203519,251.99123 c -8.34649,8.95916 -33.34276,24.22103 -41.55436,24.62396 -13.43838,-3.08985 -4.92563,-45.64621 -17.31958,-34.62911 -13.626,12.11228 -22.8909701,30.20128 -44.3099,32.25722 -2.08407,0 -6.63984,-2.22358 -11.2248,-9.38759 -5.43162,-8.47958 -9.4628,-41.66914 -9.4628,-41.66914 0,0 -24.10934,23.49462 -32.74523,31.57041 -11.01955,10.31618 -22.51565,14.72301 -22.51565,23.00721 0,5.36649 7.91238,11.18716 10.96034,18.09066 4.58496,10.39433 11.30111,21.17231 10.12881,36.72472 -1.66726,22.22146 -13.31203,57.70284 -25.66018,78.25704 -10.915339,18.18356 -27.561899,37.46126 -32.355269,37.46126 -2.00592,0 -5.4186,-3.46478 -7.60688,-7.71108 h 5e-5 c -5.18413,-10.02961 -3.90342,-30.66908 1.41098,-71.10014 2.12315,-16.21672 8.14579,-48.72736 5.77429,-58.12649 -2.37149,-9.39912 -13.73841,-2.30076 -16.33048,-5.4399 3.17113,-8.06871 12.50078,-10.85194 15.75085,-18.45038 -3.13586,-15.19192 -4.09552,-36.36154 -4.09552,-36.36154 0,0 -14.38419,6.8379 -29.69779,17.62547 -28.26267,18.9964 -19.11884,-29.87366 -17.58549,-45.83057 0,0 -28.47553,24.27136 -46.39858,43.99192 -15.1356,16.67261 -21.40202,21.30624 -21.40202,16.20025 0,-8.59681 51.05696,-65.4047 89.84682,-102.24074 23.15929,-21.96094 36.54416,-42.61997 50.40456,-46.51893 12.267889,-3.451 23.244349,-3.90559 28.736099,-1.31193 7.34066,3.46689 -0.53574,22.03621 -13.1902,74.25783 -4.89757,18.70458 -4.09922,57.64839 -4.09922,60.07113 8.19334,-1.68341 37.53986,-36.2298 49.59467,-49.66855 12.05479,-13.43877 6.81787,-9.37758 13.1873,-22.83498 5.56,-18.87149 15.38395,-48.79972 31.4808999,-43.43875 0,0 -14.0201699,82.70813 3.91261996,98.25898 8.54471004,1.22439 22.94190014,-8.95962 33.46226014,-54.70485 25.39967,-50.85144 34.34543,-39.68028 34.34543,-39.68028 0,0 -7.81898,99.31574 -0.186,99.31574 3.12611,0 7.08179,-0.2875 10.73677,-1.5541 4.73512,-1.64089 6.86559,-7.98571 9.13937,-6.81841 z"
           style="display:inline;fill:#555555" />
        <path
           id="path3538"
           d="m 245.13458,235.8229 c -8.11335,15.35041 -31.6793,34.25037 -37.48866,34.28945 -23.40248,-0.33921 -36.72326,-13.11928 -32.32266,-36.55013 4.4006,-23.43084 15.94117,-51.09833 33.94238,-69.28189 20.03317,-20.21553 36.53814,-31.32795 41.87858,-26.01356 5.28835,5.26229 6.35013,3.34953 6.40223,28.46264 0.0391,13.76792 -8.80504,58.05607 -8.80504,58.05607 m -11.54338,-39.16127 c -4.79449,-4.71436 -29.90403,-17.4694 -31.31753,3.99958 -2.83651,43.08279 -0.58195,53.7749 7.24607,53.43984 18.40215,7.0919 32.405,-58.31056 24.07146,-57.43942 z"
           style="display:inline;fill:#555555" />
        <path
           d="M 402.50936,236.35952 C 420.90133,212.2624 462.04564,144.42821 480.3334,107.07115 512.21976,41.91774 526.051,1.6798204 526.051,1.6798204 c 0,0 -31.37895,0.36674 -46.63305,1.0636 -15.25413,0.69687 -16.39965,3.56799 -17.22708,0.63906 -0.81153,-2.87272002 7.42984,-10.09737 11.95689,-16.6038604 4.52711,-6.50648 5.33987,-12.29479 8.91203,-12.29479 14.18815,-2.43115 30.29517,3.23164 43.15571,2.88816 12.8606,-0.34345 14.0569,-1.28168 14.0569,-1.28168 0,0 12.7749,-34.644082 17.2296,-34.644082 3.0219,0 17.5611,-8.581051 17.5611,-8.581051 l -10.3125,44.791863 c 0,0 6.6656,-1.9446 39.0143,0.4605 l 61.2861,-4.1967 c 5.5618,-0.38086 -11.0088,13.7716 -20.0297,17.4603104 -12.6817,2.85492 -10.9327,0.29833 -26.3954,1.65004 -7.7313,0.67584 -12.3998,4.43327 -19.0131,5.82314 -6.6133,1.38986998 -35.0135,1.61476998 -40.9034,2.44092 L 508.9531,138.14566 c -20.37184,61.40208 -18.86956,64.99706 -22.30826,85.60335 -1.74541,10.49853 -0.93572,15.88188 5.13415,15.88188 4.35051,0 43.72721,-41.97049 51.49041,-50.59335 28.7328,-27.33065 13.869,-6.83319 1.0028,11.11025 0,0 -18.2004,14.94113 -37.5971,41.09472 -12.23089,9.45649 -16.35772,14.0698 -24.17882,16.90935 -7.82106,2.83956 -19.33636,3.90535 -22.29314,1.45657 -2.99334,-30.88762 37.36401,-124.83296 25.14254,-131.40071 0,0 -65.58763,100.82268 -79.07574,113.53518"
           id="path3508-6"
           style="display:inline;fill:#555555" />
        <path
           id="path3508-6-6"
           d="m 537.7177,195.99144 c 16.2508,-26.37455 32.9487,-50.65739 59.8355,-65.27306 5.106,-1.06809 15.5548,-5.25028 21.8626,-3.28646 2.5719,5.56727 3.8738,16.97011 1.8797,25.2051 -3.6242,9.7646 -16.8817,27.31916 -52.2898,52.29654 -3.1801,5.0561 -0.8659,18.52345 -0.8659,24.29373 0,5.84844 6.1526,8.54344 15.7752,5.21116 4.8114,-1.66615 12.1908,-3.56359 18.4018,-8.60257 6.2111,-5.03896 9.9782,-4.29096 16.9182,-13.42124 5.5012,-2.26456 2.6853,-3.21404 5.9083,0.74813 -5.8407,7.40196 -6.9811,7.40438 -13.1953,13.44846 -6.2142,6.04411 -11.975,10.90198 -17.7027,15.25976 -11.4555,8.71558 -21.0783,13.7302 -25.4288,13.7302 -25.6653,-4.30466 -34.5626,-23.48532 -30.096,-48.49949 m 46.8881,-54.57706 c -7.4075,1.38471 -18.6466,27.81521 -15.964,39.32228 0.7874,3.37727 21.7745,-17.49191 19.5026,-18.51318 6.8932,-5.59775 1.9681,-24.70937 -3.5386,-20.8091 z"
           style="display:inline;fill:#555555" />
        <path
           d="m 249.79781,203.12867 c 18.39196,-24.09712 32.66009,-52.68769 50.94786,-90.04475 31.88635,-65.15341 45.71761,-105.3913396 45.71761,-105.3913396 5.92682,-10.16771 5.67582,-11.61486 14.22142,-25.5895004 0,0 12.77491,-34.644085 17.2296,-34.644085 3.02191,0 17.56102,-8.581052 17.56102,-8.581052 l -10.3125,44.791867 c -2.45903,9.2971404 -2.10984,9.3008404 -6.04117,23.6382104 L 329.36536,144.15843 c -20.37183,61.40207 -18.86955,64.99705 -22.30825,85.60335 -1.74542,10.49853 -0.93573,15.88188 5.13414,15.88188 4.35051,0 43.72717,-41.9705 51.49037,-50.59336 28.73281,-27.33064 13.86903,-6.83319 1.00281,11.11026 0,0 -18.20039,14.94113 -37.59706,41.09472 -12.2309,9.45649 -16.35773,14.0698 -24.17882,16.90935 -7.82107,2.83955 -19.33637,3.90535 -22.29315,1.45656 -2.99333,-30.88761 37.36401,-124.83295 25.14255,-131.4007 0,0 -49.65529,91.01663 -63.1434,103.72913"
           id="path3508-6-8"
           style="display:inline;fill:#555555" />
        <path
           d="m 320.98306,240.98932 c 1.36165,-0.17975 1.13324,0.1933 3.16912,-2.63339 1.74302,-2.42 6.04244,-7.55003 9.55429,-11.40002 8.33513,-9.13773 12.83056,-15.99333 16.99126,-25.91188 1.86608,-4.44846 6.27549,-14.01646 9.79872,-21.26219 8.35506,-17.18278 14.24719,-22.98975 28.12481,-27.71833 4.55256,-1.55121 4.93264,-1.54745 6.10824,0.0602 1.86911,2.55622 1.6757,3.62931 -3.67438,20.39213 -8.22491,25.7697 -8.22569,25.77389 -8.73191,45.94001 -0.41353,16.47433 -0.26595,18.88321 1.34775,21.99999 1.61698,3.12312 2.22509,3.4869 5.64742,3.37837 3.09293,-0.0982 4.73823,-0.98595 8.50004,-4.58695 5.39218,-5.16181 10.05738,-8.79144 11.29949,-8.79144 1.84579,0 0.75949,6.69121 -1.66559,10.26012 -3.17871,4.67783 -18.71709,16.76573 -25.94992,20.18742 -10.38915,4.91485 -20.0454,4.30343 -23.02469,-1.45789 -0.80883,-1.5641 -2.13149,-7.24313 -2.93925,-12.62012 -2.56034,-17.04349 -6.26934,-18.87123 -20.34232,-10.02427 -5.07459,3.19012 -9.50247,5.83512 -13.59211,8.06019"
           id="path3502-6"
           style="display:inline;fill:#555555;fill-opacity:1" />
        <path
           d="m 321.60403,244.86138 c -4.08963,2.22506 -7.84102,4.03016 -11.56258,5.54051"
           id="path3498-9"
           style="display:inline;fill:#555555;fill-opacity:1" />
        <path
           d="m 389.53229,102.66847 c -2.64459,-1.68829 -5.77099,-7.64009 -5.77099,-10.98673 0,-2.59332 4.52229,-9.60993 7.70118,-11.94884 4.48962,-3.30334 12.52881,-7.13368 16.55921,-7.88979 3.41449,-0.64056 3.693,-0.50075 4.3189,2.16815 0.3679,1.56907 2.47099,4.72892 4.6736,7.0219 5.0958,5.30501 4.65939,7.63527 -2.50001,13.34702 -10.56009,8.42487 -19.90899,11.52658 -24.98189,8.28829 z"
           id="path3354-9"
           style="display:inline;fill:#555555;fill-opacity:1" />
        <path
           d="m 695.7754,122.80574 c -1.9567,1.5e-4 -5.3553,1.28377 -9.8316,3.97948 -5.9721,3.91311 -9.0983,6.07391 -9.5976,6.32036 -7.6758,3.66673 -14.0593,9.90297 -19.1951,18.96106 -0.764,1.22481 -4.4956,9.42484 -11.0022,24.34507 -9.6352,22.0296 -27.8107,41.02676 -44.9447,50.56284 -30.8063,22.65296 -3.7367,19.19662 13.4561,-0.63076 10.0482,-4.68407 6.7058,-5.39955 15.5696,-17.62841 1.5288,-2.2029 3.7827,-5.0118 6.5544,-8.19305 2.7791,-3.1812 4.9399,-3.1812 6.3204,0 3.4561,8.31897 5.3184,16.08047 5.6181,23.17463 0.1498,3.67416 -3.1167,7.64719 -9.5976,12.17253 -6.481,4.52542 -9.9573,8.73254 -10.2999,12.40663 -0.3475,4.15949 3.6447,6.52971 11.7044,7.02261 8.799,0.48541 19.0533,-5.98491 30.8996,-19.19515 2.0202,-2.44934 2.9529,-5.68447 2.809,-9.59758 -0.3956,-3.42756 -0.7674,-6.87212 -1.1704,-10.29984 -0.1888,-2.20289 1.084,-4.66683 3.9794,-7.72487 2.8953,-3.05797 4.6389,-5.10797 5.15,-6.08627 2.0728,-4.15941 5.3098,-8.68572 9.5975,-13.57705 3.7691,-3.92047 7.6753,-8.12393 11.7044,-12.40664 4.0288,-4.28263 6.1218,-10.21085 6.3203,-17.79062 0.083,-3.18112 -0.8383,-4.24316 -2.575,-3.51131 -3.2134,1.22474 -6.0938,4.01266 -8.6611,8.66123 -2.5675,4.64864 -4.7233,9.18356 -6.7886,13.34297 -4.5917,7.0943 -11.3932,13.99092 -20.1315,20.59967 -0.7511,0.73186 -1.6036,0.73186 -2.8091,0 -1.1991,-0.97815 -1.8923,-2.28656 -2.1067,-3.51131 -0.3191,-6.3623 -0.3409,-11.08569 0.2337,-14.51341 0.1536,-5.86947 0.1686,-10.17885 0,-12.87479 2.0303,-12.23187 8.5391,-20.62897 19.4293,-25.28142 8.9002,-3.66644 13.2127,-8.41456 12.8747,-14.04524 -0.1633,-3.18111 -1.3085,-4.68159 -3.5113,-4.68174 z"
           id="path3180"
           style="font-style:normal;font-variant:normal;font-weight:normal;font-stretch:normal;font-size:49px;line-height:125%;font-family:Lassigue;-inkscape-font-specification:Lassigue;text-align:start;letter-spacing:-0.7px;word-spacing:0px;writing-mode:lr-tb;text-anchor:start;fill:#555555;fill-opacity:1;stroke:none" />
      </g>
    </g>
  </g>
</svg>
