<?xml version="1.0" encoding="UTF-8" standalone="no"?>
<svg
   xmlns:dc="http://purl.org/dc/elements/1.1/"
   xmlns:cc="http://creativecommons.org/ns#"
   xmlns:rdf="http://www.w3.org/1999/02/22-rdf-syntax-ns#"
   xmlns:svg="http://www.w3.org/2000/svg"
   xmlns="http://www.w3.org/2000/svg"
   version="1.1"
   id="svg2239"
   x="0px"
   y="0px"
   width="139.99969"
   height="38.106998"
   viewBox="0 0 139.99969 38.106998"
   enable-background="new 0 0 150 150"
   xml:space="preserve"><metadata
     id="metadata35"><rdf:RDF><cc:Work
         rdf:about=""><dc:format>image/svg+xml</dc:format><dc:type
           rdf:resource="http://purl.org/dc/dcmitype/StillImage" /></cc:Work></rdf:RDF></metadata><defs
     id="defs33" /><g
     transform="translate(-5.0003049,-110.894)"
     id="g28">
	<path
   fill-rule="evenodd"
   clip-rule="evenodd"
   fill="#555555"
   d="m 53.877,110.894 c 0.138,0 0.276,0 0.414,0 -0.076,3.79 -5.47,2.262 -7.456,4.143 0.023,-4.607 4.686,-2.014 7.042,-4.143 z"
   id="path2" />
	<path
   fill-rule="evenodd"
   clip-rule="evenodd"
   fill="#555555"
   d="m 92.397,149 c -2.071,0 -4.142,0 -6.213,0 0,-0.139 0,-0.276 0,-0.415 -6.66,-2.023 -0.813,-10.858 2.899,-12.425 -0.878,2.988 -3.832,3.899 -3.313,8.284 3.214,3.018 11.521,1.362 14.911,-0.414 -1.273,-1.074 -3.921,-0.773 -4.557,-2.485 0.975,-8.275 15.542,-2.958 19.467,-8.284 -0.289,-3.853 -3.992,-4.291 -5.385,-7.041 3.146,-6.381 11.187,-7.867 17.396,-11.184 -2.543,5.879 -11.084,5.761 -15.324,9.941 6.1,2.162 7.898,15.173 16.567,9.526 -1.29,-2.913 0.034,-4.313 1.656,-6.214 2.322,6.067 -1.969,11.531 -9.113,10.769 -2.342,-1.385 -2.822,-4.631 -4.969,-6.211 -0.488,7.796 -11.284,5.283 -17.811,7.039 0.438,1.91 3.927,0.769 4.142,2.9 -0.53,4.991 -6.174,4.87 -10.353,6.214 z"
   id="path4" />
	<path
   fill-rule="evenodd"
   clip-rule="evenodd"
   fill="#555555"
   d="m 50.564,115.45 c 0.986,7.339 -3.651,12.64 -3.728,20.296 3.553,1.536 6.224,-1.171 7.456,-3.313 1.855,-0.031 -0.252,1.534 0.414,2.898 1.059,1.014 4.679,1.205 6.213,0.415 -0.846,-4.816 2.927,-8.318 7.041,-9.526 3.095,2.888 0.79,7.595 -1.657,9.526 4.18,1.002 9.738,0.174 11.598,-2.485 -0.232,-3.495 -2.898,-4.557 -4.971,-6.213 1.316,-6.968 10.421,-6.147 16.154,-8.697 -2.14,4.764 -9.187,4.619 -14.082,6.627 1.232,1.664 3.439,2.358 4.556,4.142 1.873,9.152 -9.794,12.327 -15.739,8.284 -1.979,1.661 -9.136,2.98 -10.77,0 -1.944,1.093 -3.962,2.111 -7.456,1.655 -2.945,-6.701 3.187,-13.891 2.9,-21.951 0.824,-0.419 1.769,-0.716 2.071,-1.658 z m 12.84,19.468 c 3.121,-0.104 4.762,-3.055 3.313,-5.385 -2.757,0.18 -5.308,2.951 -3.313,5.385 z"
   id="path6" />
	<path
   fill-rule="evenodd"
   clip-rule="evenodd"
   fill="#555555"
   d="m 88.67,115.45 c -2.181,3.895 -9.057,3.094 -12.427,5.8 0.443,-3.979 8.499,-3.926 12.427,-5.8 z"
   id="path8" />
	<path
   fill-rule="evenodd"
   clip-rule="evenodd"
   fill="#555555"
   d="m 68.789,118.351 c 0.962,0.279 1.107,1.376 2.07,1.656 -1.151,1.456 -3.188,3.537 -4.142,0.828 -0.131,-1.649 1.916,-1.121 2.072,-2.484 z"
   id="path10" />
	<path
   fill-rule="evenodd"
   clip-rule="evenodd"
   fill="#555555"
   d="m 58.848,122.906 c 0.844,0.121 0.812,1.12 1.657,1.242 -0.424,1.37 -1.147,2.443 -2.899,2.484 -0.177,-0.787 -0.892,-1.04 -0.828,-2.07 0.824,-0.417 1.767,-0.715 2.07,-1.656 z"
   id="path12" />
	<path
   fill-rule="evenodd"
   clip-rule="evenodd"
   fill="#555555"
   d="m 55.948,124.563 c 10e-4,1.521 -1.45,1.587 -2.071,2.485 -0.973,-0.131 -0.927,-1.282 -1.657,-1.657 0.714,-1.226 3.015,-3.103 3.728,-0.828 z"
   id="path14" />
	<path
   fill-rule="evenodd"
   clip-rule="evenodd"
   fill="#555555"
   d="m 12.458,123.734 c 8.668,3.521 3.442,19.122 -7.456,14.91 -0.05,-1.845 1.021,-2.567 1.243,-4.141 1.383,2.889 5.626,0.975 8.284,0.414 1.279,-3.964 -0.919,-7.124 -3.728,-8.285 0.639,-0.877 1.192,-1.844 1.657,-2.898 z"
   id="path16" />
	<path
   fill-rule="evenodd"
   clip-rule="evenodd"
   fill="#555555"
   d="m 29.854,149 c -0.69,0 -1.38,0 -2.071,0 0,-0.139 0,-0.276 0,-0.415 -1.263,0.021 -2.109,-0.375 -2.485,-1.241 5.09,-1.537 9.013,-4.243 11.598,-8.285 -2.125,-0.083 -4.786,0.368 -5.799,-0.827 0.333,-4.776 2.749,-7.469 6.627,-8.698 5.728,7.382 -3.114,15.903 -7.87,19.466 z m 3.728,-13.254 c 1.092,0.971 2.824,0.069 4.142,0 0.721,-4.721 -4.436,-3.469 -4.142,0 z"
   id="path18" />
	<path
   fill-rule="evenodd"
   clip-rule="evenodd"
   fill="#555555"
   d="m 145,132.018 c 0,1.243 0,2.486 0,3.729 -1.765,5.967 -5.606,9.856 -9.941,13.254 -0.689,0 -1.38,0 -2.07,0 0,-0.139 0,-0.276 0,-0.415 -1.263,0.021 -2.109,-0.375 -2.485,-1.241 5.091,-1.537 9.013,-4.243 11.598,-8.285 -2.125,-0.083 -4.786,0.368 -5.799,-0.827 -0.251,-5.007 5.99,-11.815 8.697,-6.215 z m -6.213,3.728 c 1.092,0.971 2.823,0.069 4.142,0 0.721,-4.721 -4.436,-3.469 -4.142,0 z"
   id="path20" />
	<path
   fill-rule="evenodd"
   clip-rule="evenodd"
   fill="#555555"
   d="m 25.298,130.775 c 3.606,7.744 -3.814,18.456 -11.597,16.154 4.135,-2.854 13.488,-5.886 9.526,-12.841 0.525,-1.269 1.411,-2.178 2.071,-3.313 z"
   id="path22" />
	<path
   fill-rule="evenodd"
   clip-rule="evenodd"
   fill="#555555"
   d="m 123.461,142.373 c 1.418,-0.175 1.245,1.241 2.072,1.657 -0.733,0.785 -1.753,1.284 -2.485,2.071 -0.973,-0.134 -0.928,-1.283 -1.658,-1.657 0.289,-1.092 1.886,-0.875 2.071,-2.071 z"
   id="path24" />
	<path
   fill-rule="evenodd"
   clip-rule="evenodd"
   fill="#555555"
   d="m 129.675,144.444 c -1.491,1.013 -2.423,2.2 -3.728,0.414 0.207,-2.169 3.743,-3.616 3.728,-0.414 z"
   id="path26" />
</g></svg>
