<?xml version="1.0" encoding="UTF-8" standalone="no"?>
<svg
   xmlns:dc="http://purl.org/dc/elements/1.1/"
   xmlns:cc="http://creativecommons.org/ns#"
   xmlns:rdf="http://www.w3.org/1999/02/22-rdf-syntax-ns#"
   xmlns:svg="http://www.w3.org/2000/svg"
   xmlns="http://www.w3.org/2000/svg"
   version="1.1"
   width="107.6461"
   height="29"
   id="svg2">
  <metadata
     id="metadata8">
    <rdf:RDF>
      <cc:Work
         rdf:about="">
        <dc:format>image/svg+xml</dc:format>
        <dc:type
           rdf:resource="http://purl.org/dc/dcmitype/StillImage" />
      </cc:Work>
    </rdf:RDF>
  </metadata>
  <defs
     id="defs6" />
  <path
     d="m 9.4482809,27.57282 c 0,-1.00346 -0.89068,-1.31446 -3,-1.04751 -2.83586,0.3589 -3,0.18755 -3,-3.13184 0,-3.47692 1.89803,-4.00525 2.09968,-0.58445 0.05961,1.01119 0.39419,0.68595 0.83227,-0.80902 1.20412,-4.10912 0.24062,-5.34309 -2.6785,-3.43041 -3.39728,2.22598 -4.83026,0.0801 -2.34681,-3.51437 3.37784,-4.88897 3.52626,-5.35727 1.32442,-4.17888 -1.66596,0.8916 -2.09876,0.73757 -2.5268,-0.89924 -0.28407,-1.08631 -0.15976,-2.19559 0.27626,-2.46506 0.43601,-0.26947 1.08916,-2.06992 1.45143,-4.00099 C 2.2749009,1.40725 3.1219609,0 3.9935909,0 c 1.85826,0 1.8392,1.35576 -0.07099,5.04966 C 3.0034009,6.82719 2.8171209,8 3.4539909,8 c 0.58138,0 1.31608,-0.675 1.63266,-1.5 0.69839,-1.81996 3.00301,-1.9757 3.69935,-0.25 0.27741,0.6875 0.53991,-0.4375 0.58333,-2.5 C 9.4316909,0.78807 9.8394409,0 11.309611,0 c 1.44619,0 1.75474,0.55758 1.38342,2.5 -0.27897,1.45935 -0.01312,2.5 0.63867,2.5 0.61412,0 1.13089,-1.2375 1.14838,-2.75 0.03068,-2.65291 0.08244,-2.67939 1.4659,-0.75 0.78875,1.1 1.89944,2.54351 2.46819,3.20779 C 19.838301,6.37111 19.710481,7 17.948281,7 c -2.22896,0 -1.9862,4.96777 0.25,5.116 1.66667,0.11048 1.66667,0.13778 0,0.57333 -2.19838,0.57449 -2.42134,5.31067 -0.25,5.31067 0.825,0 1.5,0.45 1.5,1 0,0.55 -0.675,1 -1.5,1 -0.93333,0 -1.5,0.94444 -1.5,2.5 0,1.55556 0.56667,2.5 1.5,2.5 0.825,0 1.5,0.45 1.5,1 0,0.55 -1.54844,1 -3.44098,1 -1.89254,0 -3.7191,0.45 -4.05902,1 -0.91611,1.4823 -2.5000001,1.21166 -2.5000001,-0.42718 z M 13.448281,22.5 c 0,-1.375 -0.45,-2.5 -1,-2.5 -0.55,0 -1,1.125 -1,2.5 0,1.375 0.45,2.5 1,2.5 0.55,0 1,-1.125 1,-2.5 z M 9.4178709,20.25 c -0.02608,-2.35896 -0.17597,-2.50003 -1.05412,-0.99208 -0.56304,0.96686 -0.7478,2.20436 -0.41057,2.75 1.03394,1.67296 1.49649,1.11782 1.46469,-1.75792 z M 13.448281,15.5 c 0,-1.375 -0.45,-2.5 -1,-2.5 -1.11717,0 -1.3707,3.29596 -0.33333,4.33333 1.10234,1.10234 1.33333,0.78473 1.33333,-1.83333 z M 5.4482809,14.89301 c 0,-1.43762 -1.73512,-1.02567 -2.34208,0.55606 -0.37166,0.96852 -0.07551,1.26467 0.89301,0.89301 0.79699,-0.30583 1.44907,-0.95791 1.44907,-1.44907 z m 4,-0.89301 c 0,-0.55 -0.45,-1 -1,-1 -0.55,0 -1,0.45 -1,1 0,0.55 0.45,1 1,1 0.55,0 1,-0.45 1,-1 z m -1.03063,-5.5 c 0,-0.55 -0.43621,-0.325 -0.96937,0.5 -0.53316,0.825 -0.96937,1.95 -0.96937,2.5 0,0.55 0.43621,0.325 0.96937,-0.5 0.53316,-0.825 0.96937,-1.95 0.96937,-2.5 z m 5.0306301,1 c 0,-1.375 -0.45,-2.5 -1,-2.5 -1.11717,0 -1.3707,3.29596 -0.33333,4.33333 1.10234,1.10234 1.33333,0.78473 1.33333,-1.83333 z m 17,18.5 c 0,-0.55 1.575,-1 3.5,-1 2.89598,0 3.5,-0.36474 3.5,-2.1135 0,-1.75341 -0.46854,-2.03307 -2.75,-1.64143 -1.5125,0.25964 -3.65,0.85037 -4.75,1.31273 -1.66502,0.69986 -1.53941,0.29198 0.75,-2.4353 3.26809,-3.89313 3.44808,-5.1225 0.75,-5.1225 -1.1,0 -2,-0.45 -2,-1 0,-0.55 0.9,-1 2,-1 1.70581,0 2,-0.66667 2,-4.53222 0,-3.7413 -0.37978,-4.67272 -2.17626,-5.33728 l -2.17626,-0.80505 2.17626,-0.56911 c 1.19694,-0.313 2.17626,-1.28623 2.17626,-2.16272 0,-0.87649 0.675,-1.59362 1.5,-1.59362 0.83333,0 1.5,0.88889 1.5,2 0,1.48592 0.66666,2 2.59362,2 1.75261,0 2.76321,-0.64852 3.11663,-2 0.66914,-2.55882 3.28975,-2.61723 3.28975,-0.0733 0,1.05967 0.7875,2.13247 1.75,2.38399 1.66666,0.43555 1.66666,0.46285 0,0.57333 -1.41787,0.094 -1.75,1.06495 -1.75,5.116 0,4.33333 0.26666,5 2,5 3.29842,0 2.25492,1.8467 -1.25,2.21214 l -3.25,0.33886 3.26352,1.9745 c 3.18733,1.9284 4.07492,5.37837 1.17709,4.57523 -5.38546,-1.49258 -6.94061,-1.31652 -6.94061,0.78577 0,1.74876 0.60401,2.1135 3.5,2.1135 1.925,0 3.5,0.45 3.5,1 0,0.58824 -3.5,1 -8.5,1 -5,0 -8.5,-0.41176 -8.5,-1 z m 7,-8.5 c 0,-0.825 0.675,-1.5 1.5,-1.5 0.825,0 1.5,0.675 1.5,1.5 0,0.825 0.63287,1.5 1.40638,1.5 0.91405,0 1.22329,-0.70014 0.88336,-2 -0.35657,-1.36356 -1.36401,-2 -3.16583,-2 -1.55981,0 -3.15466,0.81958 -3.89184,2 -1.04175,1.66811 -0.99869,2 0.25945,2 0.82966,0 1.50848,-0.675 1.50848,-1.5 z m 5,-5.5 c 0,-0.55 -1.35,-1 -3,-1 -1.65,0 -3,0.45 -3,1 0,0.55 1.35,1 3,1 1.65,0 3,-0.45 3,-1 z m 0,-4 c 0,-0.55 -1.35,-1 -3,-1 -1.65,0 -3,0.45 -3,1 0,0.55 1.35,1 3,1 1.65,0 3,-0.45 3,-1 z m 0,-4 c 0,-0.55 -1.35,-1 -3,-1 -1.65,0 -3,0.45 -3,1 0,0.55 1.35,1 3,1 1.65,0 3,-0.45 3,-1 z m 25,16.66667 v -6.33334 h 4.5 4.5 v 6.33334 c 0,4.96296 -0.32457,6.33333 -1.5,6.33333 -0.825,0 -1.5,-0.45 -1.5,-1 0,-0.55 -0.675,-1 -1.5,-1 -0.825,0 -1.5,0.45 -1.5,1 0,0.55 -0.675,1 -1.5,1 -1.17544,0 -1.5,-1.37037 -1.5,-6.33333 z m 6,-0.66667 c 0,-2 -0.5,-3 -1.5,-3 -1,0 -1.5,1 -1.5,3 0,2 0.5,3 1.5,3 1,0 1.5,-1 1.5,-3 z m 14.27496,5 c 0.0829,-1.1 0.7299,-2 1.43785,-2 0.70796,0 1.2872,-0.45 1.2872,-1 0,-0.55 -0.45,-1 -1,-1 -0.55,0 -1,-1.15156 -1,-2.55902 0,-1.45136 0.43284,-2.2915 1,-1.94098 0.55,0.33992 1,-0.27553 1,-1.36766 0,-1.09213 -0.7875,-2.19149 -1.75,-2.44301 -1.66667,-0.43555 -1.66667,-0.46285 0,-0.57333 1.10121,-0.073 1.75,-0.93162 1.75,-2.316 0,-1.71111 -0.26667,-1.93333 -1.2,-1 -2.31779,2.31779 -2.43688,1.14542 -0.48756,-4.8 1.12404,-3.42834 2.5502,-6 3.32739,-6 0.74809,0 1.36017,0.51289 1.36017,1.13976 0,0.62686 0.74375,1.6836 1.65278,2.34829 0.93371,0.68275 1.33004,1.73073 0.91097,2.4088 -0.57467,0.92984 -1.07688,0.92218 -2.22899,-0.034 -1.19226,-0.98948 -1.6652,-0.94953 -2.38477,0.20144 -0.67753,1.08372 -0.2911,1.51327 1.57622,1.75212 2.33794,0.29905 3.6099,2.18358 1.47379,2.18358 -0.55,0 -1,0.9375 -1,2.08333 0,1.24152 0.50509,1.90035 1.25,1.63049 0.6875,-0.24906 2.0375,0.23318 3,1.07166 1.59691,1.39113 1.75,1.33597 1.75,-0.63049 0,-1.52609 -0.65663,-2.1964 -2.25,-2.2969 -1.2375,-0.078 -0.45436,-0.41554 1.74032,-0.75 2.699099,-0.41132 4.098069,-1.17437 4.323319,-2.35809 0.25865,-1.35924 -0.40907,-1.78574 -2.99032,-1.91004 L 96.948291,6.67992 100.19829,6.27659 c 4.69895,-0.58313 4.3121,-3.23416 -0.499999,-3.42643 -3.3827,-0.13516 -3.45616,-0.19167 -0.75,-0.57695 1.649999,-0.23491 3.427499,-0.84249 3.949999,-1.35017 0.5225,-0.50768 1.59072,-0.92305 2.37383,-0.92305 1.11363,0 1.32494,1.19243 0.96994,5.47331 -0.28119,3.39079 -0.0429,5.64368 0.62617,5.92106 0.59403,0.24625 -0.14332,0.48326 -1.63856,0.52668 -2.04158,0.0593 -2.56884,0.46924 -2.11721,1.64617 0.42618,1.11062 0.91232,1.25629 1.66861,0.5 2.04443,-2.04443 2.70827,-1.04729 1.21948,1.83172 -1.36753,2.6445 -1.33809,3.10527 0.3354,5.25 1.19717,1.53426 1.58533,3.04589 1.11729,4.35106 -0.65202,1.81819 -0.9058,1.69088 -2.79174,-1.40055 l -2.07453,-3.40054 -0.31934,3.90054 c -0.28849,3.52379 -0.60912,3.92669 -3.319339,4.17118 -2.50243,0.22574 -2.70975,0.0931 -1.25,-0.79969 0.9625,-0.58868 1.75,-1.7927 1.75,-2.67562 0,-1.4055 -0.24892,-1.38003 -2,0.20468 -1.10584,1.00077 -2,1.30018 -2,0.66969 0,-0.68115 -1.30862,-0.34241 -3.25,0.84127 -4.07089,2.48207 -4.66273,2.48062 -4.47505,-0.011 z m 11.03121,-7.35546 c 0.92314,-2.40566 -3.0617,-1.47649 -4.17835,0.97429 -0.62029,1.3614 -1.12781,2.68948 -1.12781,2.95128 0,0.88952 4.8295,-2.68341 5.30616,-3.92557 z M 94.809921,16.5 c 0.31658,-0.825 0.13972,-1.5 -0.39301,-1.5 -0.53274,0 -0.96862,0.675 -0.96862,1.5 0,0.825 0.17686,1.5 0.39301,1.5 0.21616,0 0.65203,-0.675 0.96862,-1.5 z M 0.4482809,24.55902 c 0,-1.95746 0.45,-3.55902 1,-3.55902 0.55,0 1,1.32344 1,2.94098 0,1.61754 -0.45,3.2191 -1,3.55902 -0.59512,0.3678 -1,-0.82295 -1,-2.94098 z M 58.448281,22.13636 v -5.86363 h 4 4 v 5.86363 c 0,4.39216 -0.35552,5.86364 -1.41667,5.86364 -0.77917,0 -1.67917,-0.5625 -2,-1.25 -0.46667,-1 -0.7,-1 -1.16667,0 -0.32083,0.6875 -1.22083,1.25 -2,1.25 -1.06115,0 -1.41666,-1.47148 -1.41666,-5.86364 z m 5,-0.13636 c 0,-1.65 -0.45,-3 -1,-3 -0.55,0 -1,1.35 -1,3 0,1.65 0.45,3 1,3 0.55,0 1,-1.35 1,-3 z m -5,-9.12723 c 0,-0.74858 1.66313,-0.96742 4.95114,-0.65149 3.70002,0.35553 5.08983,0.11432 5.5,-0.95455 C 69.800871,8.91759 69.533701,8 67.948281,8 c -0.825,0 -1.5,0.45 -1.5,1 0,0.55 -1.8,1 -4,1 -2.2,0 -4,-0.45 -4,-1 0,-0.55 1.8,-1 4,-1 5.67827,0 4.98601,-1.97173 -0.75,-2.13618 -2.6125,-0.0749 -3.69788,-0.33639 -2.41195,-0.58109 1.90879,-0.36322 2.22659,-0.88903 1.73095,-2.86382 C 60.683371,1.08851 60.778741,0 61.229221,0 c 1.509,0 3.06843,2.22896 2.53392,3.62186 -0.29086,0.75797 -0.1432,1.38428 0.32815,1.39179 0.47134,0.008 1.86949,0.285 3.10699,0.61664 1.65413,0.44329 2.25,0.17484 2.25,-1.01366 0,-0.88915 -0.675,-1.61663 -1.5,-1.61663 -0.825,0 -1.5,-0.45 -1.5,-1 0,-0.55 2.475,-1 5.5,-1 3.025,0 5.5,0.45 5.5,1 0,0.55 -1.125,1 -2.5,1 -1.4816,0 -2.5,0.57291 -2.5,1.40638 0,0.9473 0.70269,1.22262 2.15266,0.84345 2.0043,-0.52414 2.11474,-0.28014 1.60235,3.54 -0.43831,3.26788 -0.21498,4.19201 1.09733,4.54055 0.90621,0.24069 -2.96484,0.48982 -8.60234,0.55362 -7.00655,0.0793 -10.25,-0.24069 -10.25,-1.01123 z m 15,-2.37277 c 0,-1.375 -0.45,-2.5 -1,-2.5 -0.55,0 -1,0.4132 -1,0.91821 0,0.50502 -0.27315,1.63002 -0.60699,2.5 -0.39831,1.03799 -0.05452,1.58179 1,1.58179 1.04745,0 1.60699,-0.87047 1.60699,-2.5 z"
     id="path5695"
     style="fill:#040404" />
</svg>
