<?xml version="1.0" encoding="UTF-8" standalone="no"?>
<svg
   xmlns:dc="http://purl.org/dc/elements/1.1/"
   xmlns:cc="http://creativecommons.org/ns#"
   xmlns:rdf="http://www.w3.org/1999/02/22-rdf-syntax-ns#"
   xmlns:svg="http://www.w3.org/2000/svg"
   xmlns="http://www.w3.org/2000/svg"
   id="svg2520"
   width="112.03669"
   height="59.011143"
   version="1.1">
  <metadata
     id="metadata13">
    <rdf:RDF>
      <cc:Work
         rdf:about="">
        <dc:format>image/svg+xml</dc:format>
        <dc:type
           rdf:resource="http://purl.org/dc/dcmitype/StillImage" />
      </cc:Work>
    </rdf:RDF>
  </metadata>
  <defs
     id="defs11" />
  <g
     transform="translate(-20.619558,-79.527408)"
     id="g3410">
    <g
       id="g3464">
      <g
         id="g3440">
        <g
           id="g3405">
          <g
             id="g3124">
            <path
               d="m 47.40625,79.53125 c -0.07198,-0.01466 -0.174826,0.01401 -0.28125,0.0625 -0.145048,0.0661 -0.420946,0.125 -0.625,0.125 -0.316965,0 -0.441649,0.05472 -0.875,0.5 -0.604646,0.621295 -0.78529,0.963857 -0.875,1.625 -0.14777,1.088976 -0.577315,2.021204 -2.21875,4.9375 -0.660019,1.17264 -1.039452,1.999768 -1.3125,2.8125 -0.213233,0.634711 -0.46911,1.295341 -0.5625,1.4375 -0.445969,0.678833 -0.82762,1.441664 -0.78125,1.5625 0.07389,0.192562 -1.06053,3.621519 -1.875,5.71875 -0.621286,1.59977 -1.0625,2.97015 -1.0625,3.25 0,0.1173 0.03534,0.1136 0.25,0.0312 0.201221,-0.0772 0.795993,-1.36319 1,-2.15625 0.08518,-0.33112 0.239265,-0.700101 0.34375,-0.8125 0.104493,-0.11239 0.25991,-0.413741 0.3125,-0.65625 0.05258,-0.242519 0.11862,-0.586201 0.15625,-0.75 0.03762,-0.163809 0.192765,-0.419881 0.34375,-0.59375 0.150994,-0.17387 0.30621,-0.436061 0.34375,-0.5625 0.434782,-1.464077 2.173895,-4.917497 2.6875,-5.34375 0.09011,-0.07478 0.312214,-0.439604 0.5,-0.8125 0.187785,-0.372895 0.611179,-1.040839 0.9375,-1.5 0.326321,-0.459152 0.59375,-0.942825 0.59375,-1.0625 0,-0.119684 0.169279,-0.477957 0.40625,-0.8125 0.236972,-0.334544 0.564681,-0.851999 0.71875,-1.125 0.15406,-0.273011 0.411292,-0.617443 0.5625,-0.78125 0.151208,-0.163806 0.30495,-0.429944 0.34375,-0.59375 0.0388,-0.163806 0.215872,-0.518711 0.40625,-0.78125 0.308138,-0.424962 0.33617,-0.499162 0.25,-0.78125 -0.08662,-0.283574 -0.05642,-0.362604 0.21875,-0.65625 0.284164,-0.303252 0.31413,-0.373095 0.34375,-1.125 0.0294,-0.746392 -0.03407,-1.11228 -0.25,-1.15625 z m -23.59375,2.875 c -6.605773,3.187886 -1.280432,39.44353 1.03125,52.625 0.129382,0.72886 0.0671,1.4765 0.34375,2.28125 0.137086,0.29492 0.25157,0.64475 0.28125,0.78125 0.119201,0.54801 0.182998,0.55109 0.96875,0.21875 0.399263,-0.16887 0.937428,-0.37955 1.1875,-0.46875 0.654491,-0.23339 0.948577,-0.57224 1.1875,-1.4375 0.112778,-0.4084 0.1875,-0.85541 0.1875,-1 0,-0.14458 0.06883,-0.44702 0.15625,-0.65625 0.11063,-0.26476 0.18984,-0.43792 0.09375,-0.84375 -0.06875,-0.29033 0.0063,-0.74006 0.125,-1.1875 0.110948,-0.41831 0.198885,-0.71291 0.09375,-1.125 -0.121161,-0.47489 0.238186,-1.85694 0.625,-2.96875 0.11069,-0.31816 0.2849,-0.89072 0.375,-1.25 0.153422,-0.61168 0.127419,-0.6689 -0.03125,-0.9375 -0.12031,-0.20368 -0.13581,-0.31795 -0.0625,-0.40625 0.0568,-0.0684 0.15085,-0.3195 0.1875,-0.5625 0.03664,-0.243 0.12315,-0.58619 0.21875,-0.75 0.0956,-0.1638 0.21174,-0.46909 0.25,-0.6875 0.03826,-0.21841 0.175502,-0.60281 0.28125,-0.84375 0.254419,-0.57968 0.154866,-0.831 -0.25,-0.75 -0.165135,0.0331 -0.408054,0.0625 -0.53125,0.0625 -0.184302,0 -0.24626,0.0816 -0.34375,0.46875 -0.06517,0.2588 -0.236461,0.82032 -0.40625,1.25 -0.295577,0.74799 -0.324879,0.81794 -0.21875,1.4375 l 0.125,0.65625 -0.46875,0.75 c -0.511299,0.7592 -0.4988,0.85696 -0.5,1.375 -0.0011,0.45174 -0.07272,0.73156 -0.34375,1.3125 -0.293915,0.62998 -0.382481,0.97004 -0.5625,2.3125 -0.203924,1.52074 -0.458788,2.4375 -0.6875,2.4375 -0.05768,0 -0.1202,-0.0567 -0.125,-0.125 -0.0048,-0.0683 -0.04815,-0.50463 -0.09375,-0.96875 -0.04559,-0.46411 -0.12904,-1.37602 -0.1875,-2.03125 C 24.937025,115.49923 21.578733,98.594069 23.8125,82.40625 Z M 99.15625,93.625 c -0.34163,-0.03912 -1.22869,0.38223 -1.71875,0.8125 -0.47915,0.4207 -0.67121,0.905876 -0.90625,2.28125 -0.20451,1.196735 -0.4719,1.799021 -0.84375,2.03125 -0.45186,0.282179 -1.13556,0.260178 -2.625,-0.125 -1.62351,-0.419808 -2.13411,-0.415858 -2.84375,0 -0.40778,0.238969 -1.0625,0.865611 -1.0625,1.03125 0,0.20035 0.43368,0.42929 1.0625,0.5625 0.46917,0.0994 1.31471,0.124 2.6875,0.125 1.88993,0.002 2.00527,0.0384 2.0625,0.21875 0.06388,0.20124 -0.32204,1.25745 -0.625,1.6875 -0.09616,0.13651 -0.44882,0.80115 -0.75,1.46875 -1.58343,3.50984 -6.88009,11.00431 -9.4375,13.34375 -0.62755,0.57406 -0.81819,0.70975 -1.125,0.71875 -0.32199,0.009 -0.37283,-0.0378 -0.53125,-0.34375 -0.1602,-0.30941 -0.1973,-0.552 -0.15625,-2.1875 0.05025,-2.002 0.05847,-2.0042 0.875,-4.5625 0.53113,-1.66413 0.56055,-1.77748 0.375,-2.03125 -0.11671,-0.15962 -0.17304,-0.15399 -0.625,0 -1.37771,0.46944 -1.95179,1.04417 -2.78125,2.75 -0.34977,0.71933 -0.78349,1.68338 -0.96875,2.125 -0.42067,1.00282 -0.84829,1.64526 -1.8125,2.71875 -0.41623,0.46341 -0.79916,0.9174 -0.84375,1 -0.04458,0.0826 -0.69373,0.46154 -1.4375,0.84375 -1.31036,0.67333 -1.36052,0.6875 -2.0625,0.6875 -0.6337,0 -0.78709,-0.0474 -1.09375,-0.28125 -0.69424,-0.52953 -0.944713,-1.61254 -0.78125,-3.28125 0.08182,-0.83508 0.175765,-1.24118 0.59375,-2.3125 0.411312,-1.05418 0.54476,-1.32905 0.78125,-1.46875 0.58086,-0.34313 1.21875,-0.13459 1.21875,0.375 0,0.36724 -0.23557,1.248 -0.5,1.84375 -0.20202,0.45516 -0.26095,0.6875 -0.125,0.6875 0.15494,0 0.90668,-0.54228 1.15625,-0.84375 0.35612,-0.43022 0.91725,-1.60112 1.28125,-2.65625 0.27201,-0.78845 0.3188,-1.03061 0.3125,-1.84375 -0.004,-0.51871 -0.09716,-1.27799 -0.1875,-1.6875 -0.14952,-0.67776 -0.19743,-0.77566 -0.625,-1.15625 -0.3943,-0.35102 -0.54794,-0.4345 -0.90625,-0.4375 -0.47615,-0.004 -0.95047,0.20991 -1.21875,0.53125 -0.09764,0.11695 -0.37029,0.56318 -0.59375,1 -0.22346,0.4368 -0.538117,0.96909 -0.6875,1.1875 -0.530607,0.7757 -0.907058,1.67263 -1.25,2.96875 -0.191112,0.7223 -0.3904,1.5043 -0.46875,1.75 -0.194838,0.61102 -0.46103,2.49502 -0.53125,3.875 -0.09265,1.82089 0.289988,2.91192 1.125,3.1875 0.244376,0.0807 0.667754,0.1028 1.28125,0.0625 0.81905,-0.0538 1.02243,-0.10293 1.75,-0.46875 1.17304,-0.5898 2.00494,-1.14955 2.40625,-1.59375 0.19197,-0.21249 0.436,-0.4349 0.5625,-0.5 0.12649,-0.0651 0.64925,-0.35893 1.125,-0.65625 1.39822,-0.87384 1.74603,-0.69061 2,1 0.08018,0.5338 0.20096,1.09472 0.28125,1.25 0.29577,0.57195 1.28111,0.64417 2.3125,0.15625 0.60553,-0.28646 2.22633,-1.49467 2.46875,-1.84375 0.19401,-0.27938 1.21534,-1.41874 2.78125,-3.0625 2.1175,-2.22276 2.67508,-2.95718 4.09375,-5.375 0.57593,-0.98156 1.08631,-1.63244 1.1875,-1.53125 0.1087,0.1087 -0.34909,1.97649 -0.96875,3.96875 -0.93619,3.00993 -1.33207,4.41581 -1.6875,6.09375 -0.44582,2.10469 -0.38039,2.72026 0.25,3.03125 0.17018,0.0839 0.34335,0.15525 0.40625,0.15625 0.16315,0.003 3.57436,-1.40796 4.375,-1.8125 0.46382,-0.23435 0.88967,-0.55795 1.375,-1.0625 1.42603,-1.48252 2.49234,-3.0389 2.25,-3.28125 -0.16342,-0.16341 -0.51785,0.11735 -1.46875,1.21875 -1.5857,1.83662 -2.42624,2.50493 -3.5625,2.8125 -1.0961,0.2967 -1.53125,0.0725 -1.53125,-0.78125 0,-0.36979 1.13161,-5.41491 1.8125,-8.03125 0.24332,-0.93498 0.6513,-2.48198 0.875,-3.4375 0.22372,-0.95553 0.59081,-2.20793 0.8125,-2.78125 0.22167,-0.57331 0.52681,-1.40777 0.6875,-1.84375 0.34734,-0.9423 0.42247,-1.05241 1.15625,-1.4375 0.9539,-0.5006 1.403934,-0.54403 3.84375,-0.46875 1.9975,0.0616 2.23531,0.0556 2.9375,-0.125 0.42337,-0.10891 0.95565,-0.303291 1.1875,-0.4375 0.23184,-0.13422 0.63164,-0.31078 0.875,-0.375 0.74942,-0.197729 0.24239,-0.31604 -1.03125,-0.25 -2.73497,0.1418 -6.16185,0.173179 -6.53125,0.0625 -0.72881,-0.218359 -0.72833,-0.49499 0.03125,-2.875 0.2701,-0.846317 0.52088,-1.7191 0.53125,-1.9375 0.01745,-0.3677 -0.02047,-0.40764 -0.28125,-0.4375 z m -43.0625,4.25 c -0.101915,-0.01431 -0.27462,0.0073 -0.53125,0.03125 -1.535753,0.143409 -1.737649,0.391681 -3,3.5625 -0.547805,1.37598 -1.146576,2.8974 -1.3125,3.375 -0.165934,0.47759 -0.553798,1.45991 -0.875,2.15625 -0.321202,0.69634 -1.257433,2.69026 -2.0625,4.4375 -0.863711,1.87455 -1.614035,3.38773 -1.84375,3.6875 -0.214116,0.27941 -0.901166,0.97423 -1.53125,1.5625 -1.009614,0.94262 -1.208311,1.08375 -1.53125,1.09375 -0.32293,0.01 -0.372721,-0.0375 -0.53125,-0.34375 -0.160197,-0.30941 -0.16606,-0.552 -0.125,-2.1875 0.05025,-2.002 0.02722,-2.0042 0.84375,-4.5625 0.531137,-1.66413 0.560557,-1.77748 0.375,-2.03125 -0.116711,-0.15962 -0.141799,-0.15399 -0.59375,0 -1.377716,0.46944 -1.983054,1.04417 -2.8125,2.75 -0.349772,0.71933 -0.783491,1.68338 -0.96875,2.125 -0.421933,1.00583 -0.854372,1.64566 -1.84375,2.75 -0.428752,0.47857 -0.875169,1.02789 -1,1.25 l -0.21875,0.40625 0.34375,-0.15625 c 0.183484,-0.0926 0.711755,-0.42105 1.1875,-0.71875 1.397979,-0.8748 1.77723,-0.69091 2.03125,1 0.08019,0.5338 0.20095,1.09472 0.28125,1.25 0.295763,0.57195 1.249868,0.64417 2.28125,0.15625 0.680469,-0.32192 2.096227,-1.42281 2.9375,-2.28125 0.35333,-0.36054 0.68265,-0.65625 0.75,-0.65625 0.170438,0 0.2703,0.60415 0.1875,1.15625 -0.03808,0.254 -0.280203,1.02728 -0.53125,1.6875 -0.374139,0.98394 -0.46325,1.31872 -0.46875,1.875 -0.0059,0.59773 0.04359,0.70767 0.25,0.875 0.128901,0.1045 0.315763,0.1875 0.4375,0.1875 0.352726,0 1.425807,-0.59952 1.75,-0.96875 0.377188,-0.4296 1.215282,-3.00828 1.375,-4.1875 0.124636,-0.92016 0.188328,-1.13635 0.3125,-1.09375 0.04654,0.016 0.611304,0.52526 1.25,1.125 1.308314,1.2285 1.779136,1.5588 2.625,1.84375 0.705637,0.23767 1.35062,0.23431 2.53125,0.0312 1.920448,-0.33038 2.92237,-0.73318 4.9375,-2 1.397106,-0.87828 1.745822,-0.692 2,1 0.08019,0.5338 0.23221,1.09472 0.3125,1.25 0.295773,0.57195 1.249867,0.64417 2.28125,0.15625 0.71804,-0.33969 2.246938,-1.5356 2.5625,-2 0.240758,-0.3543 0.370743,-1.03125 0.1875,-1.03125 -0.123307,0 -0.589691,0.36256 -1.125,0.875 -0.373453,0.35747 -0.536698,0.45875 -0.84375,0.46875 -0.339746,0.0108 -0.401973,-0.0337 -0.5625,-0.34375 -0.160197,-0.30941 -0.16606,-0.552 -0.125,-2.1875 0.05025,-2.002 0.02722,-2.0042 0.84375,-4.5625 0.531128,-1.66413 0.560556,-1.77748 0.375,-2.03125 -0.116712,-0.15962 -0.14179,-0.15399 -0.59375,0 -1.377707,0.46944 -1.983044,1.04417 -2.8125,2.75 -0.349761,0.71933 -0.783501,1.68338 -0.96875,2.125 -0.41306,0.98467 -0.860023,1.65536 -1.6875,2.5625 -0.348638,0.38222 -0.764468,0.88476 -0.9375,1.125 -0.202112,0.28064 -0.3125,0.39392 -0.3125,0.28125 0,-0.13728 -0.04396,-0.1819 -0.21875,-0.125 -0.412419,0.1342 -2.442533,0.17823 -3,0.0625 -1.388056,-0.28816 -2.416135,-1.11795 -3.21875,-2.53125 -0.720642,-1.26894 -0.96329,-1.88889 -1,-2.78125 -0.04958,-1.20513 0.04361,-1.31459 2.3125,-2.90625 2.723016,-1.91023 4.381976,-2.9466 5.875,-3.65625 1.047772,-0.49803 1.370937,-0.67639 1.53125,-0.9375 0.11058,-0.18008 0.17093,-0.4181 0.15625,-0.5 -0.04905,-0.27384 -0.591992,-0.20901 -1.21875,0.125 -0.749035,0.39916 -3.588852,2.33761 -5.09375,3.46875 -1.333194,1.00209 -2.032225,1.40675 -2.78125,1.625 -0.680859,0.19843 -0.857331,0.20516 -1.0625,0 -0.231184,-0.23118 -0.114647,-0.60929 0.46875,-1.75 C 53.209199,105.90149 56.33356,98.21776 56.25,98 56.22679,97.93952 56.19566,97.889308 56.09375,97.875 Z M 46.5,100.28125 c -0.04981,0.007 -0.102756,0.0153 -0.1875,0.0312 -0.400118,0.0751 -1.210541,0.45332 -1.65625,0.78125 -0.31558,0.2322 -0.75,0.93005 -0.75,1.1875 0,0.33224 0.299951,0.92614 0.5625,1.09375 0.503617,0.32148 1.420393,-0.007 2.46875,-0.84375 0.710747,-0.56704 0.755894,-0.78584 0.25,-1.3125 -0.218659,-0.22763 -0.40098,-0.53173 -0.4375,-0.6875 -0.03106,-0.13247 -0.06795,-0.22136 -0.125,-0.25 -0.02853,-0.0143 -0.07519,-0.007 -0.125,0 z m 22.9375,0 c -0.04981,0.007 -0.102756,0.0153 -0.1875,0.0312 -0.400118,0.0751 -1.210542,0.45332 -1.65625,0.78125 -0.315581,0.2322 -0.75,0.93005 -0.75,1.1875 0,0.33224 0.29996,0.92614 0.5625,1.09375 0.503617,0.32148 1.420393,-0.007 2.46875,-0.84375 0.710756,-0.56704 0.755885,-0.78584 0.25,-1.3125 -0.218668,-0.22763 -0.43223,-0.53173 -0.46875,-0.6875 -0.03107,-0.13247 -0.0367,-0.22136 -0.09375,-0.25 -0.02853,-0.0143 -0.07519,-0.007 -0.125,0 z m 16.6875,0 c -0.05762,0.007 -0.134005,0.0153 -0.21875,0.0312 -0.40013,0.0751 -1.17929,0.45332 -1.625,0.78125 -0.31559,0.2322 -0.78125,0.93005 -0.78125,1.1875 0,0.33224 0.33121,0.92614 0.59375,1.09375 0.50362,0.32148 1.4204,-0.007 2.46875,-0.84375 0.71076,-0.56704 0.75589,-0.78584 0.25,-1.3125 -0.21866,-0.22763 -0.43221,-0.53173 -0.46875,-0.6875 -0.03106,-0.13247 -0.0367,-0.22136 -0.09375,-0.25 -0.02853,-0.0143 -0.06738,-0.007 -0.125,0 z m -49.0625,1.8125 c -0.05917,-0.003 -0.127797,-0.004 -0.21875,0.0312 -0.329275,0.12737 -0.488904,0.52859 -1,2.3125 -0.242481,0.84632 -0.573804,1.91088 -0.71875,2.375 -0.27301,0.87419 -1.568588,5.22643 -1.8125,6.09375 -0.07628,0.27125 -0.125,0.60237 -0.125,0.71875 0,0.11638 -0.159802,0.49427 -0.34375,0.84375 -0.287384,0.54604 -0.33214,0.76348 -0.375,1.53125 -0.0372,0.66639 -0.125006,0.98705 -0.28125,1.25 -0.232391,0.39108 -0.74527,2.67424 -0.65625,2.90625 0.03109,0.081 0.08233,0.15641 0.125,0.15625 0.08208,-3.1e-4 0.62539,-1.7398 0.625,-2 -1.3e-4,-0.084 0.0783,-0.31706 0.1875,-0.53125 0.109204,-0.2142 0.21875,-0.51476 0.21875,-0.6875 0,-0.17275 0.152647,-0.6744 0.34375,-1.09375 0.295597,-0.64863 0.34375,-0.8531 0.34375,-1.46875 0,-0.58447 0.03542,-0.76861 0.1875,-0.90625 0.201583,-0.18243 0.40625,-0.86729 0.40625,-1.34375 0,-0.16011 0.152044,-0.61059 0.34375,-1.03125 0.191707,-0.42067 0.42723,-1.11242 0.5,-1.53125 0.07276,-0.41882 0.312814,-1.20399 0.53125,-1.75 0.218446,-0.54601 0.40004,-1.26973 0.4375,-1.59375 0.03746,-0.32401 0.10931,-0.6293 0.15625,-0.6875 0.212871,-0.26398 0.90625,-2.24681 0.90625,-2.59375 0,-0.25947 0.07249,-0.46932 0.21875,-0.625 0.201135,-0.21407 0.177507,-0.36557 0,-0.375 z m 94.28125,5.15625 c -1.79149,0 -6.33393,4.89241 -6.65625,7.0625 -0.40812,0.5911 -1.18852,2.3559 -2.75,4.0625 -0.74625,0.8156 -1.54452,1.65318 -1.75,1.875 l -0.375,0.40625 -0.1875,-0.21875 c -0.10844,-0.1289 -0.1875,-0.36725 -0.1875,-0.5 0,-0.24649 0.50626,-1.83663 1.65625,-5.28125 0.35546,-1.06473 0.7205,-2.16844 0.8125,-2.46875 0.092,-0.30032 0.39349,-0.98927 0.6875,-1.5 0.79619,-1.38301 0.79739,-2.09375 0.0312,-2.09375 -0.47192,0 -0.67837,0.19833 -1.4375,1.15625 -2.08926,2.68241 -5.83067,2.57506 -5.375,-0.84375 -0.0559,-0.33003 -0.12622,-0.40625 -0.3125,-0.40625 -0.29705,0 -1.70046,0.72198 -2.0625,1.0625 -0.53361,0.50188 -0.69542,1.08194 -0.84375,2.90625 -0.0511,0.62791 -0.1623,1.46155 -0.25,1.84375 -0.15116,0.65897 -0.21693,0.76291 -1.1875,1.875 -0.0882,0.11117 -0.13935,0.1782 -0.21875,0.28125 -0.94445,0.36496 -1.98673,0.16851 -2.15625,-0.4375 -0.2293,-0.81968 0.19769,-3.88464 0.6875,-4.96875 0.13965,-0.30908 0.2208,-0.63195 0.1875,-0.71875 -0.0692,-0.18038 -0.42084,-0.2114 -0.8125,-0.0625 -0.40503,0.154 -1.71875,1.49861 -1.71875,1.75 0,0.11659 -0.29673,0.7188 -0.65625,1.34375 -0.35952,0.62495 -0.96116,1.69248 -1.34375,2.375 -0.85309,1.52183 -1.3451,2.03406 -2,2.15625 -0.40253,0.0751 -0.47786,0.0687 -0.625,-0.0937 -0.1531,-0.16919 -0.1733,-0.24484 -0.0625,-0.78125 0.19325,-0.93565 0.59419,-2.279 0.875,-2.90625 0.29839,-0.66652 0.55607,-0.84998 1.59375,-1.15625 1.14929,-0.33922 1.78821,-1.14998 2.1875,-2.84375 0.30442,-1.29122 -0.0203,-1.57513 -1.125,-1.03125 -0.48224,0.2374 -0.85228,0.56869 -1.6875,1.4375 -1.23045,1.27992 -1.29476,1.3774 -2.84375,4.78125 -1.18789,2.61035 -1.3576,3.0354 -1.4375,3.8125 -0.03351,0.32609 0.12194,0.70589 0.1875,0.84375 -0.10693,-0.32078 0.26794,0.26855 0.75,0.21875 0.96124,-0.0992 1.54419,-0.48982 3.1875,-2.09375 0.95171,-0.92891 1.55201,-1.4582 1.65625,-1.4375 0.10416,0.0207 0.26803,0.27675 0.40625,0.6875 0.41826,1.2431 0.93152,1.6345 2.0625,1.5625 0.46338,-0.0295 0.99711,-0.2203 1.59375,-0.53125 0.013,0.002 0.0136,0.003 0.0312,0 0.075,-0.0137 0.24964,-0.10576 0.40625,-0.21875 0.0106,-0.008 0.0203,-0.023 0.0312,-0.0312 0.26224,-0.15897 0.52885,-0.32411 0.8125,-0.53125 0.23555,-0.17202 0.3449,-0.40692 0.4375,-0.625 0.71546,-0.72951 1.64275,-1.76608 2.75,-3.09375 0.90076,-1.71521 1.56615,1.34693 5,-0.0312 0.0346,0.0346 -0.89035,0.66837 -0.96875,0.84375 -0.0957,0.21408 -0.1417,0.59343 -0.125,1.15625 0.0387,11.2853 3.2063,1.62337 6.28125,1.15625 0.0707,0.55606 0.15239,1.13011 0.15625,1.65625 2.90567,7.45263 7.90258,-1.97226 8,-4.125 v -3.625 c 0,-2.33411 -0.46942,-3.65625 -1.3125,-3.65625 z m -1.09375,3.65625 c 0.70434,0.0186 0.84535,0.82584 0.875,1.75 0.0387,1.20504 -2.03722,5.56633 -3.15625,5.90625 -1.33041,0.40413 -2.08903,-1.90377 -0.90625,-4.65625 0.4143,-0.96412 2.27354,-2.79387 2.84375,-2.9375 0.12498,-0.0315 0.24313,-0.0652 0.34375,-0.0625 z"
               id="path2296"
               style="fill:#555555;fill-opacity:1" />
          </g>
        </g>
      </g>
    </g>
  </g>
</svg>
