<?xml version="1.0" encoding="UTF-8" standalone="no"?>
<svg
	xmlns="http://www.w3.org/2000/svg"
	xmlns:dc="http://purl.org/dc/elements/1.1/"
	xmlns:cc="http://creativecommons.org/ns#"
	xmlns:rdf="http://www.w3.org/1999/02/22-rdf-syntax-ns#"
	xmlns:svg="http://www.w3.org/2000/svg"
	xmlns:xlink="http://www.w3.org/1999/xlink"
	xmlns:sodipodi="http://sodipodi.sourceforge.net/DTD/sodipodi-0.dtd"
	xmlns:inkscape="http://www.inkscape.org/namespaces/inkscape"
	version="1.1"
	viewBox="0 0 989.2279922499999 154.20799599999998">
	<path transform="matrix(8.8276086e-2,0,0,8.8276086e-2,21.896671,130.75018)" d="M48.80799925 63.999995999999996C61.04798725 63.999995999999996 61.480000249999996 67.31200600000001 61.91199925 73.791996C62.77599825000001 74.655996 65.80000025000001 74.655996 66.66399924999999 73.791996C66.51999925000001 68.75200600000001 66.37599925 66.01599600000002 66.37599925 61.119996C66.37599925 56.22400600000002 66.51999925000001 53.05599600000001 66.66399924999999 48.735996C65.80000025000001 47.87200600000001 62.77599825000001 47.87200600000001 61.91199925 48.735996C61.480000249999996 56.655996 61.04798725 58.527996000000016 48.80799925 58.527996000000016L35.41599925 58.527996000000016L35.41599925 28.287996000000007C35.41599925 24.832004000000012 37.144003250000004 23.39200000000001 40.59999925 23.39200000000001L55.71999925000001 23.39200000000001C66.51998925000001 23.39200000000001 68.82400325 29.152006 71.99199924999999 39.087996000000004L76.45599924999999 38.367996000000005C75.59200025000001 32.46400600000001 73.43199924999999 18.639999000000003 73.28799925000001 17.488C73.14399925000001 17.200001 72.99999925 17.05600000000001 72.71199924999999 17.05600000000001C70.12000225 17.632000000000005 69.39999625000002 17.632000000000005 65.94399924999999 17.632000000000005L29.223999250000006 17.632000000000005C29.223999250000006 17.632000000000005 17.847992250000004 17.488 10.647999250000005 17.34400000000001C9.784000250000002 18.208000000000013 9.784000250000002 21.23200100000001 10.647999250000005 22.096000000000004C20.72798925 22.528000000000006 23.175999250000004 23.248012000000003 23.175999250000004 35.19999600000001L23.175999250000004 92.94399600000001C23.175999250000004 104.89598600000001 20.72798925 105.61599600000001 10.647999250000005 106.047996C9.784000250000002 106.911996 9.784000250000002 109.936006 10.647999250000005 110.79999600000001C17.70399225 110.655996 22.024007250000004 110.511996 29.367999250000004 110.511996C36.56799225 110.511996 40.74400725 110.655996 47.94399925 110.79999600000001C48.807998250000004 109.936006 48.807998250000004 106.911996 47.94399925 106.047996C37.86400925 105.61599600000001 35.41599925 104.89598600000001 35.41599925 92.94399600000001L35.41599925 63.999995999999996L48.80799925 63.999995999999996M92.23300225 64.863996L92.23300225 92.94399600000001C92.23300225 104.89598600000001 90.50499225000002 105.471996 81.57700224999999 106.047996C80.71300224999999 106.911996 80.71300224999999 109.936006 81.57700224999999 110.79999600000001C87.62499224999999 110.655996 92.23300225 110.511996 97.99300224999999 110.511996C103.89699225000001 110.511996 109.22500225000002 110.655996 115.41700225 110.79999600000001C116.28100225 109.936006 116.28100225 106.911996 115.41700225 106.047996C105.33701225000002 105.328006 103.60900225 104.89598600000001 103.60900225 92.94399600000001L103.60900225 72.927996C103.60900225 69.184006 105.33700225000001 65.87199600000001 107.06500225000002 63.279996C108.64900225 60.976006 111.96100225 56.223996000000014 113.68900225000002 56.223996000000014C114.69700225 56.223996000000014 115.84900225000001 56.368005999999994 116.71300225000002 57.231995999999995C118.15300225000001 58.67199599999999 119.59300225000001 61.40799600000001 122.61700225000001 61.40799600000001C126.07299225 61.40799600000001 129.38500225 57.80799600000002 129.38500225 54.20799600000001C129.38500225 51.47200600000001 126.79299225 47.295996 120.74500225 47.295996C113.97700225 47.295996 108.07299225 53.632006000000004 104.76100224999999 59.247996000000015C103.89700225000001 60.83199600000002 103.46500225 60.11199600000002 103.46500225 59.39199600000002C103.46500225 54.784006000000005 104.18500225 47.87199600000001 104.18500225 47.87199600000001C104.18500225 47.295996 103.46500225 46.863996 102.31300225000001 46.863996C98.28100225 48.447996 92.52099225 49.74400600000001 82.58500225 51.039996C82.29700224999999 51.90399600000001 82.29700224999999 54.20800600000001 82.87300225000001 55.07199600000001C90.64899224999999 55.79199600000001 92.23300225 56.944006000000016 92.23300225 64.863996M144.23050225 24.256C144.23050225 27.99999600000001 147.68650225000002 31.74399600000001 151.14250225 31.74399600000001C155.17449225000001 31.74399600000001 158.63050225 27.99999600000001 158.63050225 24.832000000000008C158.63050225 21.37600400000001 155.60649225 17.34400000000001 151.71850225 17.34400000000001C148.26250225 17.34400000000001 144.23050225 20.800004 144.23050225 24.256M157.33450225 92.94399600000001L157.33450225 64.287996C157.33450225 57.08800599999999 157.91050225 47.87199600000001 157.91050225 47.87199600000001C157.91050225 47.295996 157.19050225 46.863996 156.03850225000002 46.863996C151.86250225 48.447996 146.24649225000002 49.74400600000001 136.31050225 51.039996C136.02250225 51.90399600000001 136.31050225 54.20800600000001 136.59850225 55.07199600000001C144.37449225 55.935996 145.95850225 56.656006000000005 145.95850225 64.863996L145.95850225 92.94399600000001C145.95850225 104.89598600000001 144.37449225 105.328006 135.59050225000001 106.047996C134.72650225 106.911996 134.72650225 109.936006 135.59050225000001 110.79999600000001C141.63849225 110.655996 145.38250225000002 110.511996 151.71850225 110.511996C157.91049225 110.511996 161.51050225 110.655996 167.70250225 110.79999600000001C168.56650225 109.936006 168.56650225 106.911996 167.70250225 106.047996C158.91851225000002 105.471996 157.33450225 104.89598600000001 157.33450225 92.94399600000001M219.32425225 24.256C219.32425225 27.99999600000001 222.78025225000002 31.74399600000001 226.23625225 31.74399600000001C230.26824225000001 31.74399600000001 233.72425225 27.99999600000001 233.72425225 24.832000000000008C233.72425225 21.37600400000001 230.70024225 17.34400000000001 226.81225225 17.34400000000001C223.35625225 17.34400000000001 219.32425225 20.800004 219.32425225 24.256M232.42825225 92.94399600000001L232.42825225 64.287996C232.42825225 57.08800599999999 233.00425225 47.87199600000001 233.00425225 47.87199600000001C233.00425225 47.295996 232.28425225 46.863996 231.13225225000002 46.863996C226.95625225 48.447996 221.34024225000002 49.74400600000001 211.40425225 51.039996C211.11625225 51.90399600000001 211.40425225 54.20800600000001 211.69225225 55.07199600000001C219.46824225 55.935996 221.05225225 56.656006000000005 221.05225225 64.863996L221.05225225 92.94399600000001C221.05225225 104.89598600000001 219.46824225 105.328006 210.68425225000001 106.047996C209.82025225 106.911996 209.82025225 109.936006 210.68425225000001 110.79999600000001C216.73224225 110.655996 220.47625225000002 110.511996 226.81225225 110.511996C233.00424225 110.511996 236.60425225 110.655996 242.79625225 110.79999600000001C243.66025224999998 109.936006 243.66025224999998 106.911996 242.79625225 106.047996C234.01226225000002 105.471996 232.42825225 104.89598600000001 232.42825225 92.94399600000001M271.95400225000003 58.959996000000004C271.52200225 59.535996 270.51400225000003 60.975995999999995 270.51400225000003 58.959996000000004C270.51400225000003 54.640006 271.23400225 48.015996 271.23400225 48.015996C271.23400225 47.296006000000006 270.65800225 46.863996 269.50600225 46.863996C265.47400225 48.447996 259.56999225 49.74400600000001 249.63400225000004 51.039996C249.34600225000003 51.90399600000001 249.63400225000004 54.20800600000001 249.92200225 55.07199600000001C257.69799225 55.79199600000001 259.28200225 56.512006 259.28200225 64.863996L259.28200225 92.94399600000001C259.28200225 104.751986 257.84199225000003 105.328006 249.20200225000002 106.047996C248.33800225 106.911996 248.33800225 109.936006 249.20200225000002 110.79999600000001C255.10599224999999 110.655996 258.85000225 110.511996 265.04200225 110.511996C270.65799225 110.511996 273.25000225 110.655996 279.29800225 110.79999600000001C280.16200225 109.936006 280.16200225 106.911996 279.29800225 106.047996C271.95400225000003 105.328006 270.65800225 104.751986 270.65800225 92.94399600000001L270.65800225 69.327996C270.65800225 66.304006 271.95400225000003 64.57599600000002 273.10600225 63.279996C278.57799225 57.952006 284.19400225 54.783996 289.81000225 54.783996C292.68999225 54.783996 295.71400225 56.656006000000005 297.44200225000003 59.967996000000014C298.88200225 62.84799600000001 299.17000225 66.73600600000002 299.17000225 71.05599600000001L299.17000225 92.94399600000001C299.17000225 104.751986 297.72999225 105.328006 290.24200225 106.047996C289.52200225 106.911996 289.52200225 109.936006 290.24200225 110.79999600000001C296.28999225 110.655996 299.17000225 110.511996 304.93000225000003 110.511996C310.83399225 110.511996 314.00200225000003 110.655996 320.19400225 110.79999600000001C320.91400225 109.936006 320.91400225 106.911996 320.19400225 106.047996C312.13001225 105.328006 310.54600225 104.751986 310.54600225 92.94399600000001L310.54600225 71.487996C310.54600225 63.56800600000001 309.96999225 56.655996 306.65800225 52.191996C304.21000225 49.024006 299.74599225000003 47.295996 294.70600225 47.295996C287.65000225 47.295996 280.73799225 49.168006000000005 271.95400225000003 58.959996000000004M329.43250225 90.63999600000001C330.00850225 97.695996 330.44050225 104.464006 330.44050225 110.511996C331.88050225 110.22399600000001 333.32050225 110.07999600000001 334.04050225000003 110.07999600000001C335.04850225 110.07999600000001 335.91250225 110.07999600000001 336.92050225 110.36799600000002C340.80849225000003 111.375996 344.69650225000004 111.951996 350.02450225 111.951996C358.08849225 111.951996 372.92050225 108.06398600000001 372.92050225 93.80799600000002C372.92050225 84.01600600000002 365.72049225 78.399996 356.07250225 74.655996C347.43251225 71.344006 341.67250225000004 69.183996 341.67250225000004 61.263996000000006C341.67250225000004 55.36000600000001 346.85650225 52.04799600000001 351.75250225 52.04799600000001C354.92049225 52.04799600000001 363.27250225 53.200016000000005 365.14450225 65.439996C366.00850225 66.303996 368.88850225 66.15999599999999 369.75250225 65.29599600000002C369.75250225 60.112005999999994 370.47250225 54.783996 370.61650225 50.03199600000001C366.15250225 49.31200600000001 359.24049225 47.295996 351.75250225 47.295996C341.09651225 47.295996 331.44850225 54.20800600000001 331.44850225 63.423996C331.44850225 73.935986 336.20051225000003 78.400006 347.28850225 83.007996C359.09649225 88.047996 361.97650225 90.928006 361.97650225 97.119996C361.97650225 104.17599600000001 355.06449225 107.19999600000001 349.73650225 107.19999600000001C344.12050225 107.19999600000001 340.95250225 105.327996 339.51250225 103.743996C336.05650225 100.43200600000002 334.76050225 94.095996 333.89650225 90.495996C333.03250225 89.632006 330.29650225 89.77600600000001 329.43250225 90.63999600000001M419.83750225 76.959996L419.83750225 96.11199600000002C419.83750225 97.983996 418.97350225 98.99200600000002 417.82150225000004 99.85599600000002C414.07750225 102.87999600000002 409.18149225 106.047996 405.14950225 106.047996C397.94950225 106.047996 394.78150225 100.287996 394.78150225 95.82399600000001C394.78150225 89.344006 397.80551225 82.863996 408.46150225 79.983996L419.83750225 76.959996M419.83750225 103.59999600000002C420.70150225000003 106.62399600000002 423.14951225 111.951996 430.92550225 111.951996C437.98149225000003 111.951996 443.16550225000003 106.191996 443.16550225000003 105.471996C443.16550225000003 104.464006 441.86950225 103.023996 441.29350225 103.023996C440.42950225 103.023996 439.85349225 105.327996 436.82950225 105.327996C431.21350225000003 105.327996 431.06950225 99.71199600000001 431.06950225 93.08799600000002L431.06950225 71.631996C431.06950225 51.184016 419.83749225 47.295996 409.32550225 47.295996C397.51751225 47.295996 385.56550225 55.504006000000004 385.56550225 63.279996C385.56550225 66.73599600000001 387.29350225 68.31999600000002 390.60550225000003 68.31999600000002C394.78149225 68.31999600000002 396.94150225 65.439996 396.94150225 63.56799600000001C396.94150225 62.560006 396.79750225000004 61.55199600000002 396.50950225 60.975995999999995C396.36550225 60.54399600000001 396.22150225 59.679996 396.22150225 58.095996C396.22150225 53.632006000000004 402.70150225000003 52.04799600000001 408.17350225 52.04799600000001C413.06949225 52.04799600000001 419.83750225 54.49601600000001 419.83750225 70.767996C419.83750225 71.775996 419.40550225 72.351996 418.97350225 72.495996L406.58950225 75.519996C392.76551225000003 78.975996 382.82950225 86.608006 382.82950225 96.399996C382.82950225 107.775986 390.89351225 111.951996 400.97350225 111.951996C407.59749225 111.951996 410.33350225 110.79999600000001 416.66950225 105.90399599999999L419.54950225 103.59999600000002L419.83750225 103.59999600000002M461.31400225 69.90399599999999C464.04999225 53.63201600000001 474.13000225 52.33599600000001 477.58600225000004 52.33599600000001C483.05799225 52.33599600000001 489.53800225000003 55.360016 489.53800225000003 67.45599600000001C489.53800225000003 68.751996 488.96200225 69.471996 487.37800225 69.471996L461.31400225 69.90399599999999M499.04200225000005 97.119996C493.71400224999996 102.59199600000001 489.53799225 104.89599600000001 481.18600225 104.89599600000001C476.00200225000003 104.89599600000001 469.95399225 101.87199600000001 465.49000225000003 94.52799600000002C462.61000225000004 89.77600600000001 460.88200225 83.15199600000001 460.88200225 74.79999600000001L499.18600225000006 75.08799600000002C500.91400225 75.08799600000002 501.92200225000005 74.22399600000001 501.92200225000005 72.63999600000001C501.92200225000005 60.54401600000001 497.60198225000005 47.583996 477.58600225000004 47.583996C465.05801225 47.583996 448.78600225 59.53602600000001 448.78600225 81.423996C448.78600225 89.487996 450.80200225 97.26400600000001 455.55400225 102.73599600000001C460.44999225000004 108.495996 467.21801225 111.951996 477.58600225000004 111.951996C488.52999225 111.951996 496.30600225000006 106.911996 502.06600225000005 99.423996C501.63400225000004 97.98400600000001 500.77000225 97.263996 499.04200225000005 97.119996M520.24825225 92.94399600000001C520.24825225 104.89598600000001 518.6642422499999 105.471996 510.60025225 106.047996C509.73625225000006 106.911996 509.73625225000006 109.936006 510.60025225 110.79999600000001C516.64824225 110.655996 519.9602522499999 110.511996 526.0082522499999 110.511996C531.0482422499999 110.511996 532.92025225 110.655996 539.11225225 110.79999600000001C539.9762522499999 109.936006 539.9762522499999 106.911996 539.11225225 106.047996C533.20825225 105.471996 531.6242522499999 104.89598600000001 531.6242522499999 92.94399600000001L531.6242522499999 79.983996C534.93624225 80.12799600000001 536.9522522499999 81.136006 539.8322522499999 85.167996L550.34425225 99.999996C553.22424225 104.17599600000001 553.65625225 105.904006 553.65625225 107.775996L553.65625225 110.07999600000001C553.65625225 110.511996 553.80025225 110.79999600000001 554.23225225 110.79999600000001C557.11224225 110.655996 559.84825225 110.511996 564.1682522499999 110.511996C568.63224225 110.511996 571.65625225 110.655996 575.9762522499999 110.79999600000001C576.8402522499999 109.936006 576.8402522499999 106.911996 575.9762522499999 106.047996C571.08025225 105.471996 566.7602422499999 104.89599600000001 563.59225225 99.999996L546.7442522499999 75.08799600000002C546.3122522499999 74.511996 546.0242522499999 73.791996 546.0242522499999 73.071996C546.0242522499999 72.495996 546.1682522499999 72.06399600000002 546.6002522499999 71.631996L557.54425225 59.535996C561.72024225 55.21600600000001 566.18425225 53.48799600000001 573.3842522499999 53.19999600000001C574.24825225 52.33600600000001 574.24825225 49.31199600000001 573.3842522499999 48.447996C568.05625225 48.59199600000001 566.04024225 48.735996 560.8562522499999 48.735996C555.3842522499999 48.735996 552.93624225 48.59199600000001 547.60825225 48.447996C546.7442522499999 49.31199600000001 546.7442522499999 52.33600600000001 547.60825225 53.19999600000001C556.24824225 53.631996 551.64025225 59.10400600000001 550.20025225 60.54399600000001C542.56825225 68.89599600000001 535.36824225 75.232006 531.6242522499999 76.38399600000001L531.6242522499999 26.560000000000002C531.6242522499999 17.200010000000006 532.20025225 11.440000000000012 532.20025225 11.440000000000012C532.20025225 10.432001 531.6242522499999 10 530.32825225 10C526.72825225 11.439999 515.9282422499999 13.456001 510.16825224999997 13.888000000000005C509.88025224999996 15.039999000000009 510.16825224999997 17.344001000000006 511.03225225 18.208000000000013C518.5202422499999 18.64 520.24825225 17.920012 520.24825225 30.015996L520.24825225 92.94399600000001M591.01300225 92.94399600000001C591.01300225 104.89598600000001 589.42899225 105.61599600000001 580.64500225 106.047996C579.7810022499999 106.911996 579.7810022499999 109.936006 580.64500225 110.79999600000001C586.69299225 110.655996 590.43700225 110.511996 596.77300225 110.511996C602.9649922499999 110.511996 606.5650022499999 110.655996 612.7570022499999 110.79999600000001C613.62100225 109.936006 613.62100225 106.911996 612.7570022499999 106.047996C603.9730122499999 105.61599600000001 602.38900225 104.89598600000001 602.38900225 92.94399600000001L602.38900225 26.560000000000002C602.38900225 17.200010000000006 602.96500225 11.440000000000012 602.96500225 11.440000000000012C602.96500225 10.432001 602.38900225 10 601.0930022499999 10C597.4930022499999 11.439999 586.69299225 13.456001 580.93300225 13.888000000000005C580.64500225 15.039999000000009 580.93300225 17.344001000000006 581.79700225 18.208000000000013C589.28499225 18.64 591.01300225 17.920012 591.01300225 30.015996L591.01300225 92.94399600000001M621.2057522499999 80.99199600000001C621.2057522499999 95.679986 631.1417722499999 111.951996 651.4457522499999 111.951996C672.90173225 111.951996 681.97375225 94.095986 681.97375225 79.695996C681.97375225 64.720016 674.0537322499999 47.295996 651.73375225 47.295996C632.29377225 47.295996 621.2057522499999 62.70401600000001 621.2057522499999 80.99199600000001M650.14975225 52.04799600000001C662.53373225 52.04799600000001 669.58975225 63.136026 669.58975225 84.303996C669.58975225 103.311986 660.80574225 107.19999600000001 654.0377522499999 107.19999600000001C639.0617622499999 107.19999600000001 633.58975225 88.767986 633.58975225 77.679996C633.58975225 65.15201600000002 638.05376225 52.04799600000001 650.14975225 52.04799600000001M713.06425225 62.271996000000016C717.52824225 57.664006000000015 723.2882522499999 53.91999600000001 727.60825225 53.91999600000001C736.82424225 53.91999600000001 744.7442522499999 64.28801600000001 744.7442522499999 80.559996C744.7442522499999 92.36798600000002 740.5682322499999 107.05599600000001 724.44025225 107.05599600000001C721.84825225 107.05599600000001 716.8082422499999 106.33599600000001 714.2162522499999 104.031996C711.1922522499999 101.440006 710.76025225 100.719996 710.76025225 95.39199600000002L710.76025225 68.607996C710.76025225 65.584006 711.1922522499999 64.287996 713.06425225 62.271996000000016M711.9122522499999 57.519996000000006C711.3362522499999 58.095996 710.47225225 58.239996000000005 710.47225225 57.08799600000002C710.47225225 51.90400600000001 711.0482522499999 47.87199600000001 711.0482522499999 47.87199600000001C711.0482522499999 47.295996 710.32825225 46.863996 709.17625225 46.863996C705.1442522499999 48.447996 699.67224225 49.74400600000001 689.73625225 51.039996C689.44825225 51.90399600000001 689.73625225 54.20800600000001 690.0242522499999 55.07199600000001C697.80024225 55.79199600000001 699.3842522499999 56.656006000000005 699.3842522499999 64.863996L699.3842522499999 126.351996C699.3842522499999 138.303986 697.80024225 139.023996 689.01625225 139.45599600000003C688.15225225 140.319996 688.15225225 143.34400599999998 689.01625225 144.20799599999998C695.06424225 144.06399600000003 698.8082522499999 143.91999600000003 705.1442522499999 143.91999600000003C711.91224225 143.91999600000003 716.37625225 144.06399600000003 722.56825225 144.20799599999998C723.4322522499999 143.34400599999998 723.4322522499999 140.319996 722.56825225 139.45599600000003C712.3442622499999 138.879996 710.76025225 138.303986 710.76025225 126.351996L710.76025225 110.79999600000001C710.76025225 108.928006 711.1922522499999 109.215996 712.77625225 109.791996C716.2322422499999 111.231996 720.6962522499999 111.951996 725.30425225 111.951996C733.36824225 111.951996 740.56825225 109.50399600000001 746.47225225 103.887996C753.2402422499999 97.26400600000001 757.12825225 88.335986 757.12825225 76.671996C757.12825225 61.40801600000002 746.3282322499999 47.295996 731.64025225 47.295996C726.3122522499999 47.295996 718.39224225 50.896006 711.9122522499999 57.519996000000006M775.63675225 24.256C775.63675225 27.99999600000001 779.09275225 31.74399600000001 782.54875225 31.74399600000001C786.58074225 31.74399600000001 790.03675225 27.99999600000001 790.03675225 24.832000000000008C790.03675225 21.37600400000001 787.01274225 17.34400000000001 783.1247522499999 17.34400000000001C779.6687522499999 17.34400000000001 775.63675225 20.800004 775.63675225 24.256M788.7407522499999 92.94399600000001L788.7407522499999 64.287996C788.7407522499999 57.08800599999999 789.3167522499999 47.87199600000001 789.3167522499999 47.87199600000001C789.3167522499999 47.295996 788.59675225 46.863996 787.44475225 46.863996C783.2687522499999 48.447996 777.65274225 49.74400600000001 767.7167522499999 51.039996C767.42875225 51.90399600000001 767.7167522499999 54.20800600000001 768.0047522499999 55.07199600000001C775.78074225 55.935996 777.3647522499999 56.656006000000005 777.3647522499999 64.863996L777.3647522499999 92.94399600000001C777.3647522499999 104.89598600000001 775.78074225 105.328006 766.99675225 106.047996C766.13275225 106.911996 766.13275225 109.936006 766.99675225 110.79999600000001C773.0447422499999 110.655996 776.7887522499999 110.511996 783.1247522499999 110.511996C789.31674225 110.511996 792.91675225 110.655996 799.10875225 110.79999600000001C799.97275225 109.936006 799.97275225 106.911996 799.10875225 106.047996C790.3247622499999 105.471996 788.7407522499999 104.89598600000001 788.7407522499999 92.94399600000001M851.45050225 92.655996C851.45050225 95.39199600000002 851.16250225 96.54400600000001 849.1465022499999 98.27199600000002C843.8185022499999 102.87999600000002 839.2104922499999 105.183996 835.61050225 105.183996C827.83451225 105.183996 819.7705022499999 96.68798600000001 819.7705022499999 78.68799600000001C819.7705022499999 68.32000599999999 821.7865022499999 62.559996 823.94650225 59.535996C828.41049225 52.768006 834.4585022499999 52.33599600000001 837.3385022499999 52.33599600000001C842.5224922499999 52.33599600000001 846.1225022499999 54.20800600000001 849.0025022499999 57.519996000000006C851.01850225 59.82399600000001 851.45050225 60.83200599999999 851.45050225 65.29599600000002L851.45050225 92.655996M849.8665022499999 103.31199600000001C850.44250225 102.73599600000001 851.59450225 102.448006 851.59450225 103.45599600000001C851.59450225 106.911996 853.17850225 111.951996 853.17850225 111.951996C854.33050225 112.38399600000001 854.7625022499999 112.239996 855.9145022499999 111.951996C859.08249225 109.36000600000001 864.5545122499999 107.19999600000001 873.3385022499999 106.191996C874.20250225 105.328006 874.20250225 103.167996 873.3385022499999 102.303996C864.12251225 101.584006 862.82650225 98.84799600000001 862.82650225 91.791996L862.82650225 26.560000000000002C862.82650225 17.200010000000006 863.40250225 11.440000000000012 863.40250225 11.440000000000012C863.40250225 10.432001 862.82650225 10 861.5305022499999 10C857.9305022499999 11.439999 847.13049225 13.456001 841.37050225 13.888000000000005C841.08250225 15.039999000000009 841.37050225 17.344001000000006 842.23450225 18.208000000000013C849.72249225 18.64 851.45050225 17.920012 851.45050225 30.015996L851.45050225 48.447996C851.45050225 49.45599600000001 851.16250225 49.74399600000001 850.15450225 49.74399600000001C849.5785022499999 49.74399600000001 843.67449225 47.295996 838.92250225 47.295996C829.4185122499999 47.295996 823.08249225 50.46400600000001 817.32250225 55.935996C811.13050225 62.12799600000001 807.3865022499999 70.624016 807.3865022499999 81.279996C807.3865022499999 98.99198600000001 816.31451225 111.951996 831.8665022499999 111.951996C837.48249225 111.951996 842.8105022499999 109.071996 849.8665022499999 103.31199600000001M887.57425225 24.256C887.57425225 27.99999600000001 891.03025225 31.74399600000001 894.48625225 31.74399600000001C898.51824225 31.74399600000001 901.97425225 27.99999600000001 901.97425225 24.832000000000008C901.97425225 21.37600400000001 898.95024225 17.34400000000001 895.0622522499999 17.34400000000001C891.6062522499999 17.34400000000001 887.57425225 20.800004 887.57425225 24.256M900.6782522499999 92.94399600000001L900.6782522499999 64.287996C900.6782522499999 57.08800599999999 901.2542522499999 47.87199600000001 901.2542522499999 47.87199600000001C901.2542522499999 47.295996 900.53425225 46.863996 899.38225225 46.863996C895.2062522499999 48.447996 889.59024225 49.74400600000001 879.6542522499999 51.039996C879.36625225 51.90399600000001 879.6542522499999 54.20800600000001 879.9422522499999 55.07199600000001C887.71824225 55.935996 889.3022522499999 56.656006000000005 889.3022522499999 64.863996L889.3022522499999 92.94399600000001C889.3022522499999 104.89598600000001 887.71824225 105.328006 878.93425225 106.047996C878.07025225 106.911996 878.07025225 109.936006 878.93425225 110.79999600000001C884.9822422499999 110.655996 888.7262522499999 110.511996 895.0622522499999 110.511996C901.25424225 110.511996 904.85425225 110.655996 911.04625225 110.79999600000001C911.91025225 109.936006 911.91025225 106.911996 911.04625225 106.047996C902.2622622499999 105.471996 900.6782522499999 104.89598600000001 900.6782522499999 92.94399600000001M955.90000225 76.959996L955.90000225 96.11199600000002C955.90000225 97.983996 955.0360022499999 98.99200600000002 953.88400225 99.85599600000002C950.14000225 102.87999600000002 945.2439922499999 106.047996 941.21200225 106.047996C934.0120022499999 106.047996 930.8440022499999 100.287996 930.8440022499999 95.82399600000001C930.8440022499999 89.344006 933.86801225 82.863996 944.52400225 79.983996L955.90000225 76.959996M955.90000225 103.59999600000002C956.76400225 106.62399600000002 959.2120122499999 111.951996 966.9880022499999 111.951996C974.04399225 111.951996 979.2279922499999 106.191996 979.2279922499999 105.471996C979.2279922499999 104.464006 977.93200225 103.023996 977.35600225 103.023996C976.4920022499999 103.023996 975.9159922499999 105.327996 972.8920022499999 105.327996C967.2760022499999 105.327996 967.1320022499999 99.71199600000001 967.1320022499999 93.08799600000002L967.1320022499999 71.631996C967.1320022499999 51.184016 955.89999225 47.295996 945.38800225 47.295996C933.58001225 47.295996 921.62800225 55.504006000000004 921.62800225 63.279996C921.62800225 66.73599600000001 923.35600225 68.31999600000002 926.66800225 68.31999600000002C930.8439922499999 68.31999600000002 933.00400225 65.439996 933.00400225 63.56799600000001C933.00400225 62.560006 932.86000225 61.55199600000002 932.57200225 60.975995999999995C932.42800225 60.54399600000001 932.28400225 59.679996 932.28400225 58.095996C932.28400225 53.632006000000004 938.76400225 52.04799600000001 944.23600225 52.04799600000001C949.1319922499999 52.04799600000001 955.90000225 54.49601600000001 955.90000225 70.767996C955.90000225 71.775996 955.4680022499999 72.351996 955.0360022499999 72.495996L942.6520022499999 75.519996C928.8280122499999 78.975996 918.8920022499999 86.608006 918.8920022499999 96.399996C918.8920022499999 107.775986 926.95601225 111.951996 937.0360022499999 111.951996C943.65999225 111.951996 946.3960022499999 110.79999600000001 952.7320022499999 105.90399599999999L955.6120022499999 103.59999600000002L955.90000225 103.59999600000002 " id="subline" style="font-size:144px;font-style:normal;font-variant:normal;font-weight:normal;font-stretch:normal;fill:#000000;fill-opacity:1;stroke:none;stroke-width:1px;stroke-linecap:butt;stroke-linejoin:miter;stroke-opacity:1;font-family:Linux Libertine O;-inkscape-font-specification:Linux Libertine O"></path>
</svg>