<?xml version="1.0" encoding="UTF-8" standalone="no"?>
<svg
	xmlns="http://www.w3.org/2000/svg"
	xmlns:dc="http://purl.org/dc/elements/1.1/"
	xmlns:cc="http://creativecommons.org/ns#"
	xmlns:rdf="http://www.w3.org/1999/02/22-rdf-syntax-ns#"
	xmlns:svg="http://www.w3.org/2000/svg"
	xmlns:xlink="http://www.w3.org/1999/xlink"
	xmlns:sodipodi="http://sodipodi.sourceforge.net/DTD/sodipodi-0.dtd"
	xmlns:inkscape="http://www.inkscape.org/namespaces/inkscape"
	version="1.1"
	viewBox="0 0 134.06876250000002 32.250039999999984">
	<path id="The_Free_Encyclopedia" d="M120.07958249999999 21.277410000000003C120.27674249999998 20.92251999999999 120.4476325 20.541349999999994 120.61846249999999 20.147009999999995C121.6699625 17.61031 122.24826250000001 16.26961 122.9449625 14.784310000000005C123.1946925 14.232290000000006 123.3918625 14.021980000000013 124.00966249999999 13.943119999999993C124.08846249999999 13.864119999999986 124.08846249999999 13.588249999999988 124.00966249999999 13.509389999999996C123.74675249999999 13.522590000000008 123.44446249999999 13.535889999999995 123.07646249999999 13.535889999999995C122.6821325 13.535889999999995 122.2746525 13.522689999999983 121.88036249999999 13.509389999999996C121.80136250000001 13.588490000000007 121.80136250000001 13.864249999999998 121.88036249999999 13.943119999999993C122.28783250000001 13.98272 122.7215525 14.061430000000001 122.51127249999999 14.53458999999998L121.19687249999998 17.544489999999968C121.10467249999999 17.76795999999996 120.99972249999999 17.79422999999997 120.88141249999998 17.531289999999956L119.72481249999998 14.79738999999995C119.4882025 14.245349999999945 119.4224925 14.008759999999938 120.15855249999998 13.94303999999994C120.23745249999999 13.864139999999935 120.23745249999999 13.588169999999934 120.15855249999998 13.509309999999942C119.6722225 13.522509999999954 119.14645249999998 13.535809999999941 118.67325249999999 13.535809999999941C118.2263725 13.535809999999941 117.87149249999999 13.52260999999993 117.6086525 13.509309999999942C117.5297525 13.58830999999995 117.5297525 13.864189999999951 117.6086525 13.94303999999994C118.1212825 14.009039999999942 118.29213250000001 14.127069999999947 118.63385249999999 14.928819999999945L120.13225249999999 18.385619999999932C120.2373925 18.661619999999942 120.4477325 19.253099999999932 120.3162725 19.621119999999934C120.15855250000001 20.06800999999993 120.00079250000002 20.42288999999994 119.80363249999999 20.830319999999944C119.6590625 21.09316999999993 119.47508249999998 21.21148999999994 119.14646250000001 21.21148999999994C118.96245250000001 21.21148999999994 118.90988250000001 21.171889999999934 118.76530250000002 21.171889999999934C118.38412250000002 21.171889999999934 118.18697250000002 21.566209999999927 118.18697250000002 21.737089999999938C118.18697250000002 22.013079999999945 118.44982250000001 22.223379999999935 118.8047425 22.223379999999935C119.08073250000001 22.223379999999935 119.6065025 22.118219999999923 120.0796425 21.277039999999943ZM115.28398250000001 17.544610000000006C115.28398250000001 17.79435000000001 115.25758250000001 17.899500000000018 115.07367249999999 18.05722C114.5873325 18.47782000000001 114.1667525 18.68813 113.83817249999998 18.68813C113.12838249999999 18.68813 112.3923725 17.91264000000001 112.3923725 16.269630000000006C112.3923725 15.323300000000017 112.5763925 14.797529999999995 112.7735525 14.521530000000013C113.18102249999998 13.903770000000009 113.73305249999999 13.864330000000024 113.99595249999999 13.864330000000024C114.46913249999997 13.864330000000024 114.79773249999997 14.035210000000035 115.06055249999997 14.337510000000037C115.24457249999998 14.547830000000033 115.28401249999999 14.639800000000037 115.28401249999999 15.047290000000032V17.544590000000028ZM115.13938250000001 18.517259999999993C115.1921825 18.464460000000003 115.32341250000002 18.438060000000007 115.33655250000001 18.530460000000005C115.3629525 18.85906 115.4811425 19.305949999999996 115.4811425 19.305949999999996C115.5862725 19.345550000000003 115.65200250000001 19.345550000000003 115.7308625 19.305949999999996C116.02002249999998 19.069379999999995 116.4800525 18.872199999999992 117.28186249999999 18.780219999999986C117.36076249999999 18.701119999999975 117.36076249999999 18.504189999999994 117.28186249999999 18.425309999999996C116.4406725 18.359409999999997 116.3223625 18.109880000000004 116.3223625 17.465839999999986V11.511639999999971C116.3223625 10.65728999999996 116.37516249999999 10.131539999999973 116.37516249999999 10.131539999999973C116.37516249999999 10.03953999999996 116.3223625 10.000079999999969 116.20430249999998 10.000079999999969C115.87569249999999 10.131539999999973 114.88990249999998 10.315499999999957 114.36420249999998 10.35493999999997C114.33770249999998 10.460079999999977 114.36420249999998 10.670429999999982 114.44310249999998 10.749259999999964C115.12657249999998 10.788859999999971 115.28433249999998 10.722759999999965 115.28433249999998 11.82705999999996V13.509459999999962C115.28433249999998 13.601259999999968 115.25793249999998 13.627759999999967 115.16603249999997 13.627759999999967C115.11323249999998 13.627759999999967 114.57456249999998 13.404299999999978 114.14083249999999 13.404299999999978C113.27335249999999 13.404299999999978 112.69503249999997 13.693459999999988 112.16923249999999 14.19292999999999C111.6040625 14.758109999999988 111.26232249999998 15.533629999999988 111.26232249999998 16.506229999999988C111.26232249999998 18.122929999999997 112.07722249999998 19.305829999999986 113.49672249999998 19.305829999999986C114.00929249999999 19.305829999999986 114.4956125 19.042959999999994 115.13972249999998 18.517209999999977ZM106.3977825 15.467860000000002C106.6474925 13.98266000000001 107.56758249999999 13.864260000000002 107.8829825 13.864260000000002C108.3824725 13.864260000000002 108.9738825 14.14027999999999 108.9738825 15.24436C108.9738825 15.362629999999996 108.92118250000001 15.428380000000004 108.77673250000001 15.428380000000004L106.39773250000002 15.467980000000011ZM109.84148250000001 17.95205999999999C109.3551625 18.45149999999998 108.9739725 18.6618 108.2116825 18.6618C107.73850250000001 18.6618 107.18648250000001 18.38579999999999 106.77898250000001 17.715460000000007C106.51609250000001 17.28173000000001 106.3583825 16.67706000000001 106.3583825 15.914760000000001L109.85458250000002 15.941159999999996C110.0122925 15.941159999999996 110.10430250000002 15.862259999999992 110.10430250000002 15.717749999999995C110.10430250000002 14.613650000000007 109.7099925 13.430749999999989 107.8830025 13.430749999999989C106.73950250000001 13.430749999999989 105.25420250000002 14.521649999999994 105.25420250000002 16.51954999999998C105.25420250000002 17.255589999999984 105.43822250000002 17.965349999999972 105.8719725 18.464849999999984C106.31883250000001 18.990579999999994 106.93657250000001 19.306039999999996 107.8829725 19.306039999999996C108.8819125 19.306039999999996 109.59167249999999 18.84602000000001 110.11737249999999 18.162540000000007C110.07777250000001 18.03110000000001 109.99910249999999 17.965390000000014 109.84139249999998 17.95225000000002ZM100.13688250000001 14.823759999999993C100.4786225 14.403189999999995 101.07010250000002 14.008859999999999 101.4643825 14.008859999999999C102.30556250000001 14.008859999999999 103.0284825 14.955219999999997 103.0284825 16.44046C103.0284825 17.518259999999998 102.64729249999999 18.858959999999996 101.1751825 18.858959999999996C100.9385925 18.858959999999996 100.47857249999998 18.793059999999997 100.24199250000001 18.582959999999986C99.96596249999999 18.346359999999976 99.92653250000001 18.280639999999977 99.92653250000001 17.79432V15.402119999999996C99.92653250000001 15.126090000000005 99.9792325 15.02091999999999 100.1368325 14.823759999999993ZM99.8871325 14.337459999999993C99.86073250000001 13.943150000000003 99.83443249999999 13.61454999999998 99.7819925 13.469959999999986C99.7424925 13.417159999999996 99.72929249999999 13.364829999999984 99.62428249999999 13.364829999999984C99.25626249999999 13.509419999999977 98.9145225 13.627719999999982 98.00758250000001 13.745989999999978C97.9812325 13.825089999999989 98.00758250000001 14.03515999999999 98.0338525 14.114019999999982C98.74361250000001 14.180019999999985 98.8882025 14.24545999999998 98.8882025 15.007789999999972V20.62018999999998C98.8882025 21.711189999999988 98.74362249999999 21.776789999999977 97.9418425 21.81628999999998C97.8629525 21.895489999999967 97.8629525 22.171149999999983 97.9418425 22.250039999999984C98.4018725 22.236839999999972 98.8882025 22.22363999999999 99.41394249999999 22.22363999999999C99.93970250000001 22.22363999999999 100.57054249999999 22.23684 101.0043425 22.250039999999984C101.08334249999999 22.170939999999973 101.08334249999999 21.895179999999982 101.0043425 21.81628999999998C100.07114250000001 21.76348999999999 99.92654250000001 21.71115999999998 99.92654250000001 20.62018999999998V19.20068999999998C99.92654250000001 19.029819999999972 99.96604250000001 19.056089999999983 100.11055250000001 19.108889999999974C100.42602250000002 19.240349999999978 100.8334825 19.306059999999974 101.2540525 19.306059999999974C101.9901025 19.306059999999974 102.64725250000001 19.082619999999963 103.1862525 18.569999999999965C103.8040125 17.965409999999963 104.15889250000001 17.150499999999965 104.15889250000001 16.085799999999978C104.15889250000001 14.692499999999967 103.1731125 13.404499999999985 101.8323925 13.404499999999985C101.2146525 13.404499999999985 100.54429250000001 13.811949999999996 100.03169249999999 14.39027999999999C99.95279249999999 14.48218 99.8870925 14.469380000000001 99.8870925 14.33748ZM91.7524325 16.479860000000002C91.7524325 17.82056 92.64621250000002 19.305759999999992 94.5126325 19.305759999999992C95.35383250000001 19.305759999999992 95.9847325 19.01658999999998 96.4316325 18.569699999999983C97.0231025 18.00453999999999 97.29912250000001 17.176499999999976 97.29912250000001 16.36159999999998C97.29912250000001 14.994599999999991 96.54992250000001 13.404199999999975 94.53892250000001 13.404199999999975C93.67143250000001 13.404199999999975 92.9485225 13.759079999999983 92.4753225 14.324259999999981C92.00214250000002 14.889449999999982 91.75241250000002 15.651759999999967 91.75241250000002 16.479859999999974ZM94.3417325 13.864260000000002C95.47213249999999 13.864260000000002 96.1687325 14.889460000000014 96.1687325 16.782160000000005C96.1687325 18.438260000000014 95.3143825 18.845760000000013 94.69663249999999 18.845760000000013C93.3296325 18.845760000000013 92.8828325 17.189660000000003 92.8828325 16.17756C92.8828325 15.03406000000001 93.1588525 13.864260000000002 94.34183250000001 13.864260000000002ZM88.9965325 17.57086000000001C88.9965325 18.661760000000015 88.85195249999998 18.72756000000001 88.0501825 18.76696000000001C87.9712925 18.84596000000002 87.9712925 19.121859999999998 88.0501825 19.200720000000018C88.5102125 19.187520000000006 88.9965325 19.174320000000023 89.52228249999999 19.174320000000023S90.5474825 19.187520000000035 90.98128249999999 19.200720000000018C91.06016249999999 19.121820000000014 91.06016249999999 18.84584000000001 90.98128249999999 18.76696000000001C90.17951249999999 18.727360000000004 90.0349325 18.661810000000003 90.0349325 17.57086000000001V11.511560000000003C90.0349325 10.657219999999995 90.0875025 10.131460000000004 90.0875025 10.131460000000004C90.0875025 10.039360000000016 90.0349325 10 89.91663250000002 10C89.5880425 10.131460000000004 88.60223250000001 10.315439999999995 88.07653250000001 10.354860000000002C88.05022250000002 10.460000000000008 88.07653250000001 10.670350000000013 88.15542250000001 10.749179999999996C88.91776250000001 10.801979999999986 88.9966225 10.841080000000005 88.9966225 11.826979999999992V17.570779999999985ZM82.1266325 17.57086000000001C82.1266325 18.661760000000015 81.98205249999998 18.71436 81.2460025 18.76696000000001C81.1671125 18.84596000000002 81.1671125 19.121859999999998 81.2460025 19.200720000000018C81.6797425 19.187520000000006 82.1266325 19.174320000000023 82.6524025 19.174320000000023C83.11243250000001 19.174320000000023 83.54618250000001 19.187520000000035 83.8485025 19.200720000000018C83.9273925 19.121820000000014 83.9273925 18.84584000000001 83.8485025 18.76696000000001C83.30960250000001 18.71416000000002 83.16502249999999 18.661810000000003 83.16502249999999 17.57086000000001V16.44046C83.4147625 16.44046 83.5987725 16.466859999999997 83.73020249999999 16.506460000000004C83.87478250000001 16.598559999999992 83.99307250000001 16.71674999999999 84.1508025 16.927040000000005L85.11030249999999 18.21513999999999C85.49147249999999 18.740880000000004 85.6360525 18.9906 85.6623425 19.135189999999994C85.6623425 19.17479 85.67547250000001 19.201089999999994 85.7149125 19.201089999999994C85.97778250000002 19.18788999999998 86.2669525 19.17469 86.5298225 19.17469C86.93728250000001 19.17469 87.34473249999999 19.18789000000001 87.60762249999999 19.201089999999994C87.68650249999999 19.121989999999983 87.68650249999999 18.846209999999985 87.60762249999999 18.767329999999987C87.1607325 18.714529999999996 86.81899250000001 18.662179999999978 86.47722250000001 18.215299999999985L84.7422225 16.033399999999972C84.6896525 15.980599999999981 84.65021250000001 15.91510999999997 84.65021250000001 15.849379999999968C84.65021250000001 15.796579999999977 84.65021250000001 15.770479999999964 84.70278250000001 15.717949999999973L85.85948250000001 14.521849999999972C86.2537925 14.101239999999962 86.71382249999999 13.996109999999959 87.23958250000001 13.943519999999978C87.31847250000001 13.864419999999967 87.31847250000001 13.588649999999973 87.23958250000001 13.509779999999978C86.9372725 13.52297999999999 86.5692525 13.536279999999977 86.0960825 13.536279999999977C85.5966225 13.536279999999977 85.11030249999999 13.523079999999965 84.80798250000001 13.509779999999978C84.72910250000001 13.588879999999989 84.72910250000001 13.864649999999983 84.80798250000001 13.943519999999978C85.54404249999999 13.996319999999969 85.22858249999999 14.46927999999997 85.11029250000001 14.613869999999991C84.80798250000001 14.995019999999982 84.3873825 15.441929999999985 84.05879250000001 15.691669999999988C83.7564825 15.915109999999999 83.4016025 16.072839999999985 83.16501249999999 16.09908999999999V11.511889999999994C83.16501249999999 10.657520000000005 83.21758249999999 10.131789999999995 83.21758249999999 10.131789999999995C83.21758249999999 10.039889999999986 83.16501249999999 10.000349999999997 83.04671250000001 10.000349999999997C82.71812249999999 10.131789999999995 81.7323125 10.315769999999986 81.2066125 10.35521C81.18030250000001 10.460350000000005 81.2066125 10.670690000000008 81.2855025 10.749529999999993C81.96898250000001 10.78913 82.1267025 10.723029999999994 82.1267025 11.82732999999999V17.571229999999986ZM76.92603249999999 21.27746000000002C77.12319249999999 20.922570000000007 77.2940625 20.54140000000001 77.4649325 20.14706000000001C78.51643250000001 17.610360000000014 79.09473249999999 16.269660000000016 79.79133250000001 14.78436000000002C80.04107250000001 14.232340000000022 80.2382225 14.02203000000003 80.8559325 13.94317000000001C80.9348225 13.864170000000001 80.9348225 13.588300000000004 80.8559325 13.509440000000012C80.5930525 13.522640000000024 80.2907525 13.53594000000001 79.92272249999999 13.53594000000001C79.5284125 13.53594000000001 79.12095249999999 13.522739999999999 78.72662249999999 13.509440000000012C78.64773249999999 13.588540000000023 78.64773249999999 13.864300000000014 78.72662249999999 13.94317000000001C79.1340825 13.982770000000016 79.5678225 14.061480000000017 79.35752249999999 14.534639999999996L78.04312249999998 17.544539999999984C77.9511125 17.768009999999975 77.84596249999998 17.794279999999986 77.72767249999998 17.53133999999997L76.57097249999998 14.797439999999966C76.33438249999998 14.245399999999961 76.26867249999998 14.008809999999954 77.00471249999998 13.943089999999955C77.08360249999998 13.864189999999951 77.08360249999998 13.58821999999995 77.00471249999998 13.509359999999958C76.51839249999998 13.52255999999997 75.99261249999998 13.535859999999957 75.51951249999999 13.535859999999957C75.0726225 13.535859999999957 74.71774249999999 13.522659999999945 74.45491249999998 13.509359999999958C74.37602249999998 13.588359999999966 74.37602249999998 13.864239999999967 74.45491249999998 13.943089999999955C74.96752249999997 14.008989999999955 75.13839249999998 14.127119999999962 75.48011249999999 14.92886999999996L76.9785125 18.385669999999948C77.08366249999997 18.66166999999996 77.29396249999999 19.25314999999995 77.1625225 19.62116999999995C77.00479249999998 20.068059999999946 76.8470725 20.422939999999954 76.6499125 20.83036999999996C76.50533249999998 21.093219999999945 76.3213125 21.211539999999957 75.99272249999999 21.211539999999957C75.80870249999998 21.211539999999957 75.75613249999998 21.17193999999995 75.61155249999999 21.17193999999995C75.23038249999999 21.17193999999995 75.0332325 21.566259999999943 75.0332325 21.737139999999954C75.0332325 22.01312999999996 75.29611249999999 22.22342999999995 75.6509925 22.22342999999995C75.92701249999999 22.22342999999995 76.4527625 22.11826999999994 76.9258925 21.27708999999996ZM73.85383250000001 17.97836000000001C73.8012625 17.860090000000014 73.6961025 17.80752000000001 73.5778125 17.79436000000001C73.1309225 18.372690000000006 72.56571249999999 18.661840000000012 72.00051250000001 18.661840000000012C71.0410125 18.661840000000012 70.23921250000001 17.6892 70.23921250000001 16.151440000000008C70.23921250000001 14.705640000000017 70.8701125 13.83814000000001 71.73761250000001 13.83814000000001C72.5130925 13.83814000000001 72.61824250000001 14.298159999999996 72.67082250000001 14.75821000000002C72.7102625 15.113090000000028 72.8942625 15.231400000000008 73.17028250000001 15.231400000000008S73.8143225 15.060500000000019 73.8143225 14.653050000000007C73.8143225 13.930149999999998 73.0651225 13.404449999999997 71.80332250000001 13.404449999999997C70.50212250000001 13.404449999999997 69.1088225 14.574250000000006 69.1088225 16.440650000000005C69.1088225 18.136250000000018 70.0551725 19.30605 71.71132250000002 19.30605C72.4999525 19.30605 73.19652250000001 19.056309999999996 73.8537225 17.978550000000013ZM63.9300325 14.46896000000001C63.8380125 14.56086000000002 63.7723025 14.600390000000004 63.7723025 14.46896000000001C63.759162499999995 14.114069999999998 63.7197325 13.614599999999996 63.66715250000001 13.470010000000002C63.62771250000001 13.417210000000011 63.614582500000004 13.36488 63.50942250000001 13.36488C63.141402500000005 13.509469999999993 62.799662500000004 13.627769999999998 61.892722500000005 13.746039999999994C61.8664125 13.825140000000005 61.892722500000005 14.035210000000006 61.91903250000001 14.114069999999998C62.628802500000006 14.18007 62.773382500000004 14.245509999999996 62.773382500000004 15.007839999999987V17.570839999999976C62.773382500000004 18.648639999999972 62.641942500000006 18.701239999999984 61.853322500000004 18.766939999999977C61.7744325 18.845939999999985 61.7744325 19.121839999999963 61.853322500000004 19.200699999999983C62.2476325 19.18749999999997 62.773382500000004 19.174299999999988 63.2991225 19.174299999999988C63.824872500000005 19.174299999999988 64.21918250000002 19.1875 64.61352250000002 19.200699999999983C64.69241250000002 19.12179999999998 64.69241250000002 18.845819999999975 64.61352250000002 18.766939999999977C63.9431925 18.701039999999978 63.811752500000004 18.648649999999975 63.811752500000004 17.570839999999976V15.415239999999983C63.811752500000004 15.139239999999972 63.93005250000001 14.98148999999998 64.0352025 14.863209999999981C64.5346625 14.376889999999975 65.1261025 14.08771999999999 65.6387025 14.08771999999999C65.90158249999999 14.08771999999999 66.1776025 14.258589999999998 66.33532249999999 14.560909999999978C66.46676249999999 14.82374999999999 66.4930425 15.178679999999986 66.4930425 15.573009999999982V17.570809999999994C66.4930425 18.64860999999999 66.3616025 18.701210000000003 65.6781225 18.766909999999996C65.61242249999998 18.845910000000003 65.61242249999998 19.121809999999982 65.6781225 19.200670000000002C66.07243249999999 19.18746999999999 66.4930425 19.174270000000007 67.0188225 19.174270000000007C67.54457249999999 19.174270000000007 68.0177525 19.18747000000002 68.41202249999998 19.200670000000002C68.4777225 19.121769999999998 68.4777225 18.845789999999994 68.41202249999998 18.766909999999996C67.67597249999997 18.701009999999997 67.53139249999998 18.648619999999994 67.53139249999998 17.570809999999994V15.612409999999983C67.53139249999998 14.889519999999976 67.47882249999998 14.258609999999976 67.1765125 13.85120999999998C66.95307249999999 13.562039999999968 66.5456125 13.404319999999984 66.0856125 13.404319999999984C65.44157249999998 13.404319999999984 64.7055125 13.575199999999995 63.93001249999998 14.468919999999997ZM57.2626325 15.467880000000008C57.5123625 13.982680000000016 58.432432500000004 13.864280000000008 58.7478325 13.864280000000008C59.2472925 13.864280000000008 59.8387325 14.140299999999996 59.8387325 15.244380000000007C59.8387325 15.362650000000002 59.786162499999996 15.42840000000001 59.6415725 15.42840000000001L57.262572500000005 15.468000000000018ZM60.7063325 17.952079999999995C60.2200125 18.451519999999988 59.838842500000005 18.661820000000006 59.0765325 18.661820000000006C58.6033525 18.661820000000006 58.0513325 18.385819999999995 57.6438325 17.715480000000014C57.3809625 17.281750000000017 57.2232325 16.677080000000018 57.2232325 15.914780000000007L60.7194325 15.941180000000003C60.877162500000004 15.941180000000003 60.9691625 15.862279999999998 60.9691625 15.717770000000002C60.9691625 14.613670000000013 60.574852500000006 13.430769999999995 58.747862500000004 13.430769999999995C57.6043625 13.430769999999995 56.119062500000005 14.52167 56.119062500000005 16.519569999999987C56.119062500000005 17.25560999999999 56.303072500000006 17.96536999999998 56.7368225 18.46486999999999C57.183712500000006 18.9906 57.8014225 19.306060000000002 58.747822500000005 19.306060000000002C59.74675250000001 19.306060000000002 60.456522500000005 18.846040000000016 60.982222500000006 18.162560000000013C60.94278250000001 18.031120000000016 60.86392250000001 17.96541000000002 60.7062025 17.952270000000027ZM48.098332500000005 15.467880000000008C48.348062500000005 13.982680000000016 49.26813250000001 13.864280000000008 49.583532500000004 13.864280000000008C50.0829925 13.864280000000008 50.6744325 14.140299999999996 50.6744325 15.244380000000007C50.6744325 15.362650000000002 50.6218625 15.42840000000001 50.477272500000005 15.42840000000001L48.09827250000001 15.468000000000018ZM51.542032500000005 17.952079999999995C51.055712500000006 18.451519999999988 50.67454250000001 18.661820000000006 49.9122325 18.661820000000006C49.4390525 18.661820000000006 48.887032500000004 18.385819999999995 48.479532500000005 17.715480000000014C48.2166525 17.281750000000017 48.058932500000004 16.677080000000018 48.058932500000004 15.914780000000007L51.555132500000006 15.941180000000003C51.712852500000004 15.941180000000003 51.804862500000006 15.862279999999998 51.804862500000006 15.717770000000002C51.804862500000006 14.613670000000013 51.410542500000005 13.430769999999995 49.583562500000006 13.430769999999995C48.4400625 13.430769999999995 46.95476250000001 14.52167 46.95476250000001 16.519569999999987C46.95476250000001 17.25560999999999 47.13877250000001 17.96536999999998 47.572522500000005 18.46486999999999C48.01941250000001 18.9906 48.637122500000004 19.306060000000002 49.58352250000001 19.306060000000002C50.58245250000001 19.306060000000002 51.29222250000001 18.846040000000016 51.81792250000001 18.162560000000013C51.77848250000001 18.031120000000016 51.69962250000001 17.96541000000002 51.541902500000006 17.952270000000027ZM42.500932500000005 21.277479999999997C42.6980925 20.922589999999985 42.8689625 20.541419999999988 43.0398325 20.14707999999999C44.0913325 17.610379999999992 44.669632500000006 16.269679999999994 45.366332500000006 14.784379999999999C45.616062500000005 14.23236 45.81322250000001 14.022050000000007 46.430932500000004 13.943189999999987C46.5098125 13.86418999999998 46.5098125 13.588319999999982 46.430932500000004 13.50945999999999C46.168062500000005 13.522660000000002 45.865752500000006 13.535959999999989 45.4977225 13.535959999999989C45.103412500000005 13.535959999999989 44.695952500000004 13.522759999999977 44.3016225 13.50945999999999C44.2227325 13.588560000000001 44.2227325 13.864319999999992 44.3016225 13.943189999999987C44.7090825 13.982789999999994 45.1428225 14.061499999999995 44.9325225 14.534659999999974L43.6181225 17.54455999999996C43.5261225 17.768029999999953 43.4209725 17.794299999999964 43.3026725 17.53135999999995L42.1459725 14.797459999999944C41.9093825 14.245419999999939 41.8436625 14.008829999999932 42.5797225 13.943109999999933C42.658612500000004 13.864209999999929 42.658612500000004 13.588239999999928 42.5797225 13.509379999999936C42.0934025 13.522579999999948 41.567622500000006 13.535879999999935 41.094522500000004 13.535879999999935C40.6476325 13.535879999999935 40.292752500000006 13.522679999999923 40.029922500000005 13.509379999999936C39.951032500000004 13.588379999999944 39.951032500000004 13.864259999999945 40.029922500000005 13.943109999999933C40.54253250000001 14.009109999999936 40.71340250000001 14.12713999999994 41.0551225 14.928889999999939L42.5535225 18.385689999999926C42.6586725 18.661689999999936 42.8689725 19.253169999999926 42.7375325 19.621189999999928C42.5798125 20.068079999999924 42.4220825 20.422959999999932 42.2249225 20.830389999999937C42.0803425 21.093239999999923 41.8963225 21.211559999999935 41.5677325 21.211559999999935C41.3837225 21.211559999999935 41.3311425 21.171959999999928 41.1865625 21.171959999999928C40.8053925 21.171959999999928 40.6082325 21.56627999999992 40.6082325 21.737159999999932C40.6082325 22.01314999999994 40.8711125 22.22344999999993 41.2259925 22.22344999999993C41.5020125 22.22344999999993 42.027762499999994 22.118289999999917 42.5008925 21.277109999999936ZM37.049932500000004 14.468979999999988C37.023652500000004 13.943219999999997 36.9973625 13.614619999999974 36.9447825 13.47002999999998C36.9053425 13.41722999999999 36.8922125 13.364899999999977 36.7870525 13.364899999999977C36.419022500000004 13.509489999999971 36.0772925 13.627789999999976 35.1703525 13.746059999999972C35.1440325 13.825159999999983 35.1703525 14.035229999999984 35.1966525 14.114089999999976C35.9064125 14.180089999999979 36.051002499999996 14.245529999999974 36.051002499999996 15.007859999999965V17.570859999999954C36.051002499999996 18.66175999999996 35.893272499999995 18.714359999999942 35.0783625 18.766959999999955C34.999472499999996 18.845959999999963 34.999472499999996 19.12185999999994 35.0783625 19.20071999999996C35.5383925 19.18751999999995 36.051002499999996 19.174319999999966 36.576762499999994 19.174319999999966C37.102512499999996 19.174319999999966 37.707162499999995 19.187519999999978 38.167162499999996 19.20071999999996C38.246042499999994 19.121819999999957 38.246042499999994 18.845839999999953 38.167162499999996 18.766959999999955C37.2471025 18.701059999999956 37.08936249999999 18.661809999999946 37.08936249999999 17.570859999999954V15.743859999999955C37.08936249999999 15.402129999999943 37.247092499999994 15.099809999999962 37.40481249999999 14.863229999999959C37.54939249999999 14.652919999999966 37.851702499999995 14.219179999999966 38.00942249999999 14.219179999999966C38.12772249999999 14.219179999999966 38.24601249999999 14.258779999999973 38.33801249999999 14.390049999999974C38.44316249999999 14.521489999999972 38.58774249999999 14.69235999999998 38.82433249999999 14.69235999999998C39.13978249999999 14.69235999999998 39.44209249999999 14.363769999999988 39.44209249999999 14.035169999999965C39.44209249999999 13.785429999999963 39.20550249999999 13.404269999999968 38.653472499999985 13.404269999999968C38.03571249999999 13.404269999999968 37.496772499999985 13.982599999999962 37.19447249999998 14.495169999999973C37.11558249999998 14.63973999999996 37.049892499999984 14.53476999999998 37.049892499999984 14.468769999999978ZM32.4621325 13.943219999999997C33.171892500000006 13.996019999999987 33.237612500000004 14.16667000000001 32.9615925 14.823829999999987L31.910092500000005 17.400029999999987C31.686652500000008 17.925789999999978 31.620932500000002 17.912639999999982 31.423772500000005 17.36042999999998L30.464272500000007 14.82362999999998C30.240832500000007 14.192759999999993 30.175112500000008 14.035029999999978 30.884872500000007 13.94301999999999C30.96376250000001 13.864219999999989 30.96376250000001 13.588149999999985 30.884872500000007 13.509289999999993C30.451132500000007 13.522490000000005 29.991092500000008 13.535789999999992 29.557372500000007 13.535789999999992C29.123632500000006 13.535789999999992 28.729312500000006 13.52258999999998 28.334972500000006 13.509289999999993C28.256082500000005 13.588390000000004 28.256082500000005 13.864180000000005 28.334972500000006 13.94301999999999C29.031592500000006 14.034819999999996 29.123592500000008 14.245329999999996 29.386472500000007 14.902529999999985L31.06887250000001 19.05592999999999C31.14776250000001 19.25309999999999 31.22659250000001 19.33195999999998 31.39747250000001 19.33195999999998C31.52891250000001 19.33195999999998 31.60777250000001 19.253059999999977 31.712922500000012 19.02965999999998L33.46102250000001 14.915659999999974C33.71075250000001 14.350499999999982 33.85533250000001 14.008779999999973 34.591422500000014 13.943029999999965C34.67030250000001 13.864229999999964 34.67030250000001 13.58815999999996 34.591422500000014 13.509299999999968C34.32854250000001 13.52249999999998 34.01310250000002 13.535799999999966 33.67135250000001 13.535799999999966C33.23761250000001 13.535799999999966 32.79072250000001 13.522599999999954 32.46215250000001 13.509299999999968C32.38326250000001 13.588399999999979 32.38326250000001 13.86418999999998 32.46215250000001 13.943029999999965ZM20.6551325 15.467919999999992C20.9048625 13.98272 21.8249325 13.864319999999992 22.1403325 13.864319999999992C22.6397925 13.864319999999992 23.2312325 14.14033999999998 23.2312325 15.244419999999991C23.2312325 15.362689999999986 23.178652500000002 15.428439999999995 23.0340725 15.428439999999995L20.6550725 15.468040000000002ZM24.0988325 17.95211999999998C23.6125125 18.451559999999972 23.2313425 18.66185999999999 22.4690325 18.66185999999999C21.9958525 18.66185999999999 21.4438325 18.38585999999998 21.0363325 17.715519999999998C20.7734525 17.28179 20.6157325 16.677120000000002 20.6157325 15.914819999999992L24.1119325 15.941219999999987C24.269662500000003 15.941219999999987 24.3616625 15.862319999999983 24.3616625 15.717809999999986C24.3616625 14.613709999999998 23.9673425 13.43080999999998 22.140362500000002 13.43080999999998C20.996862500000002 13.43080999999998 19.511562500000004 14.521709999999985 19.511562500000004 16.51960999999997C19.511562500000004 17.255649999999974 19.695572500000004 17.965409999999963 20.129322500000004 18.464909999999975C20.576212500000004 18.990639999999985 21.193922500000003 19.306099999999986 22.140322500000003 19.306099999999986C23.139252500000005 19.306099999999986 23.849022500000004 18.84608 24.374722500000004 18.162599999999998C24.335282500000005 18.03116 24.256432500000003 17.965450000000004 24.098702500000005 17.95231000000001ZM12.3198325 18.070389999999975V11.761389999999977C12.3198325 11.30138999999997 12.7798625 11.11735999999999 13.423932500000001 11.11735999999999C16.2630325 11.11735999999999 17.1962325 13.41755999999998 17.1962325 15.441659999999985C17.1962325 18.09675999999999 15.605832500000002 18.753859999999975 13.752532500000001 18.753859999999975C12.464432500000001 18.753859999999975 12.3198325 18.49097999999998 12.3198325 18.07036999999997ZM11.7546525 10.696689999999961C11.281472500000001 10.696689999999961 10.5848525 10.68348999999995 10.0591525 10.670289999999966C9.9802825 10.74918999999997 9.9802825 11.025149999999968 10.0591525 11.10403999999997C10.9792125 11.143639999999976 11.2026525 11.209179999999975 11.2026525 12.300039999999967V17.570739999999972C11.2026525 18.661639999999977 10.9792125 18.727439999999973 10.0591525 18.766839999999974C9.9802825 18.84583999999998 9.9802825 19.12173999999996 10.0591525 19.200589999999977C10.5717625 19.187389999999965 11.268352499999999 19.17418999999998 11.7678525 19.17418999999998C12.2541725 19.17418999999998 12.8062525 19.200589999999977 14.160052499999999 19.200589999999977C16.0133525 19.200589999999977 18.4580525 18.359399999999965 18.4580525 15.125989999999973C18.4580525 12.681289999999962 16.4470525 10.670289999999966 13.9234525 10.670289999999966C12.990242499999999 10.670289999999966 12.2673525 10.696689999999961 11.7547525 10.696689999999961Z "></path>
</svg>