<?xml version="1.0" encoding="UTF-8" standalone="no"?>
<svg
	xmlns="http://www.w3.org/2000/svg"
	xmlns:dc="http://purl.org/dc/elements/1.1/"
	xmlns:cc="http://creativecommons.org/ns#"
	xmlns:rdf="http://www.w3.org/1999/02/22-rdf-syntax-ns#"
	xmlns:svg="http://www.w3.org/2000/svg"
	xmlns:xlink="http://www.w3.org/1999/xlink"
	xmlns:sodipodi="http://sodipodi.sourceforge.net/DTD/sodipodi-0.dtd"
	xmlns:inkscape="http://www.inkscape.org/namespaces/inkscape"
	version="1.1"
	viewBox="0 0 546.0781248000001 152.32812">
	<path transform="matrix(0.1076858,0,0,0.1076858,40.019813,126.9877)" d="M531.1562548 11.476560000000006C534.1093548 14.851649999999992 535.7265448 21.132899999999992 536.0078148 30.320309999999992C536.0077948 31.07038999999999 535.8671648000001 37.164130000000014 535.5859348 48.60155999999999C535.3984148000001 61.30472999999999 535.3281048 67.77346999999999 535.3750048 68.00780999999999C534.7187348000001 88.30470000000001 534.9531048 99.25000000000001 536.0781248000001 100.84375000000001L526.3750048 109.42187C523.8906148 107.59375000000001 522.7421848 101.33594000000001 522.9296848 90.64843C523.0234348 87.32033 523.3046848 79.21096000000001 523.7734348 66.32030999999999C524.1015548 57.08597999999999 524.3124948000001 48.41412000000001 524.4062548 40.304680000000005C524.7812448000001 31.820380000000014 523.8906148 25.703199999999995 521.7343748000001 21.95312C525.6718648 17.500090000000014 528.8124848 14.007900000000006 531.1562548 11.476560000000006M503.1718748 72.50780999999999C503.7343248 72.74221999999999 505.5624548 75.20315000000001 508.6562548 79.89062C511.7499448 84.53126999999999 513.3671348 86.96876999999999 513.5078148 87.20312C513.6952548 89.45314 512.8983848 93.22657 511.1171848 98.52343C506.8983848 111.36718 497.0546448 122.57029000000001 481.5859348 132.13281C473.5234248 137.19528000000003 466.2578048 140.59371 459.7890648 142.32812C459.6953048 142.32808999999997 460.0468748 140.49996 460.8437548 136.84375C461.6406248 132.71872000000002 462.0859348 130.46872000000002 462.1796848 130.09375C487.3046548 119.54686 502.4452648 108.55468 507.6015648 97.11718C507.6015148 97.11719000000001 504.6483848 92.92189 498.7421848 84.53125000000001C499.2108948 80.87501999999999 500.6874548 76.86721000000001 503.1718748 72.50780999999999M504.5781248 47.406250000000014C504.5780748 47.406310000000005 507.4608848 50.31255 513.2265648 56.125000000000014L504.2265648 65.54687L496.0703148 56.898430000000005L504.5781248 47.406250000000014M415.5625048 60.69530999999999L417.2500048 50.429680000000005L418.7968748 45.929680000000005L430.1875048 60.69530999999999C432.9062248 59.71097999999999 436.7734148 57.671920000000014 441.7890648 54.57812C448.2577748 50.50005 452.1249548 48.10942999999999 453.3906248 47.406250000000014L452.4062548 53.804680000000005C451.8437048 57.17972999999999 451.5624548 59.71097999999999 451.5625048 61.398430000000005C450.3905848 61.86722999999999 448.3280848 63.132850000000005 445.3750048 65.19530999999999C443.0312148 66.88285 440.8046548 67.96096999999999 438.6953148 68.42968C440.1015348 73.21096999999999 440.8046548 77.66409 440.8046848 81.78905999999999C440.8046548 95.71095000000001 432.6249748 104.80469000000001 416.2656248 109.07030999999999C413.5468748 105.88280999999999 412.1874948 101.85155999999999 412.1875048 96.97655999999999C412.1874948 88.25783 415.3281148 79.39846000000001 421.6093748 70.39843C420.2968648 67.1641 418.2812448 63.92972999999999 415.5625048 60.69530999999999M427.8671848 76.72655999999999C420.7890548 83.05471000000001 417.2499948 87.81251999999999 417.2500048 91.00000000000001C417.2499948 92.64064 418.1406148 93.46095000000001 419.9218748 93.46093C423.2968648 93.46095000000001 428.5468548 90.90625999999999 435.6718748 85.79687C433.8906048 82.46876999999999 431.2890448 79.44534 427.8671848 76.72655999999999M330.7656248 51.625000000000014C333.5780848 51.5313 335.7812048 52.07036000000001 337.3750048 53.242180000000005C341.1249548 56.00786000000001 344.5937048 60.71879 347.7812548 67.37500000000001C350.3124448 72.25003 351.7186948 77.38284 352.0000048 82.77343C351.9999448 86.19533 349.1874448 92.87500999999999 343.5625048 102.81250000000001L335.6171848 106.60937L325.4218748 109.70312C320.9218448 110.64062 316.4687248 111.76562 312.0625048 113.07812C308.4999848 114.10937 304.2343648 116.64061 299.2656248 120.67187C300.0156148 116.07811 301.1640548 110.61718 302.7109348 104.28905999999999L312.8359348 97.89062C314.8984148 96.15625999999999 322.7499748 94.21095000000001 336.3906248 92.05468L344.5468748 88.46875000000001C344.0312048 86.12501999999999 342.8827648 83.92190000000001 341.1015648 81.85937C332.3359048 71.92191000000001 327.7187148 67.28129 327.2500048 67.93750000000001C326.0312148 69.57816000000001 325.2812148 70.18753 325.0000048 69.76562C325.4218448 66.25004 327.3437148 60.203170000000014 330.7656248 51.625000000000014M286.7500048 11.476560000000006C289.7031048 14.851649999999992 291.3202948 21.132899999999992 291.6015648 30.320309999999992C291.6015448 31.07038999999999 291.4609148 37.164130000000014 291.1796848 48.60155999999999C290.9921648 61.30472999999999 290.9218548 67.77346999999999 290.9687548 68.00780999999999C290.3124848 88.30470000000001 290.5468548 99.25000000000001 291.6718748 100.84375000000001L281.9687548 109.42187C279.4843648 107.59375000000001 278.3359348 101.33594000000001 278.5234348 90.64843C278.6171848 87.32033 278.8984348 79.21096000000001 279.3671848 66.32030999999999C279.6953048 57.08597999999999 279.9062448 48.41412000000001 280.0000048 40.304680000000005C280.3749948 31.820380000000014 279.4843648 25.703199999999995 277.3281248 21.95312C281.2656148 17.500090000000014 284.4062348 14.007900000000006 286.7500048 11.476560000000006M250.2578148 109.07030999999999L241.89062479999998 109.07030999999999L241.89062479999998 97.39843L250.6796848 97.39843C252.6484248 97.39844000000001 255.1093648 95.89845000000001 258.0625048 92.89843C256.51561480000004 90.50783 255.7421748 89.05470000000001 255.7421848 88.53905999999999C255.7421748 82.72658 257.0077948 78.46096000000001 259.5390648 75.74218C260.8984148 75.64846999999999 261.6015448 75.69534 261.6484348 75.88280999999999C262.8671648 79.67971000000001 265.3749748 84.27346000000001 269.1718748 89.66405999999999C265.7968548 102.60155999999999 259.4921748 109.07030999999999 250.2578148 109.07030999999999M255.2500048 42.41405999999999C255.2499848 42.41412000000001 258.1327948 45.32037000000001 263.8984348 51.13280999999999L254.8984348 60.554680000000005L246.7421848 51.906250000000014L255.2500048 42.41405999999999M199.70312479999998 87.55468C201.15620479999998 87.55470000000001 201.8827648 87.64845000000001 201.8828148 87.83593C202.1640148 89.57033 202.46870479999998 90.62500999999999 202.79687479999998 91.00000000000001C205.8905748 95.68750999999999 210.9530748 97.58594000000001 217.98437479999998 96.69530999999999C220.9843148 96.78907 223.6093048 95.26563 225.85937479999998 92.12500000000001L231.6250048 85.44530999999999L233.73437479999998 92.75780999999999L238.9375048 97.39843L242.5937548 97.39843L242.5937548 109.07030999999999L239.0078148 109.07030999999999C236.9452348 109.07030999999999 234.9530448 108.22655999999999 233.0312548 106.53905999999999L227.0546848 100.91405999999999C225.7421148 106.63280999999999 222.0858748 109.49218 216.0859348 109.49218C211.8202548 109.49218 206.3827648 107.35937 199.7734348 103.09375000000001C199.3515148 104.50000000000001 197.3593348 106.04687 193.79687479999998 107.73437C191.1718348 109.09375000000001 188.3359048 109.77343 185.2890648 109.77343C181.3515348 109.77343 177.74216479999998 108.60155999999999 174.4609348 106.25780999999999C172.9140448 108.32030999999999 170.3827948 109.37499000000001 166.8671848 109.42187C164.9453048 109.42187 163.7734248 109.42187 163.3515648 109.42187L160.32812479999998 109.07030999999999L155.82812479999998 109.07030999999999L155.82812479999998 97.39843L160.3984348 97.39843C164.2890548 98.05469000000001 166.5156148 98.05469000000001 167.07812479999998 97.39843C170.2187348 94.39845000000001 172.2812348 90.85939 173.26562479999998 86.78125000000001C174.7656048 94.09375999999999 179.5937248 97.75000999999999 187.7500048 97.75000000000001C191.4999648 97.75000999999999 194.1249648 96.81250999999999 195.6250048 94.93750000000001C197.1718348 93.01564 198.53120479999998 90.55470000000001 199.70312479999998 87.55468M210.0390648 57.531250000000014C210.0390048 57.5313 212.9218148 60.43754 218.6875048 66.25000000000001L209.6875048 75.67187L201.5312548 67.02343L210.0390648 57.531250000000014M191.0546848 57.460930000000005C191.0546548 57.46097999999999 193.9374648 60.36722999999999 199.70312479999998 66.17968L190.70312479999998 75.60155999999999L182.54687479999998 66.95312L191.0546848 57.460930000000005M200.54687479999998 40.304680000000005C200.5468348 40.30475 203.4296448 43.211 209.1953148 49.023430000000005L200.1953148 58.44530999999999L192.0390648 49.79687L200.54687479999998 40.304680000000005M135.08593480000002 80.66405999999999C139.8671648 79.96096000000001 142.3515348 80.12501999999999 142.5390648 81.15625000000001C143.3359148 84.39064 144.43747480000002 87.81251999999999 145.8437548 91.42187C147.2968448 95.03125999999999 148.7265348 97.02344000000001 150.1328148 97.39843L156.8828148 97.39843L156.8828148 109.07030999999999L150.5546848 109.07030999999999C149.9921548 109.07030999999999 148.5155948 108.48437 146.1250048 107.31250000000001C142.65622480000002 105.48437 140.4765448 103.63280999999999 139.58593480000002 101.75780999999999L138.3906248 103.09375000000001C138.2031048 103.98438 136.9140448 105.27344000000001 134.52343480000002 106.96093C132.4140448 108.36718 131.2656148 109.07030999999999 131.0781248 109.07030999999999L118.9843748 109.07030999999999L118.9843748 97.39843L127.7031248 97.39843C128.8281148 97.39844000000001 131.2890548 91.82032 135.08593480000002 80.66405999999999M132.7656248 45.367180000000005C132.7656148 45.36725 135.64842480000002 48.273489999999995 141.4140648 54.085930000000005L132.4140648 63.50780999999999L124.25781479999999 54.85937L132.7656248 45.367180000000005M119.6875048 97.39843L119.6875048 109.07030999999999L117.6484378 109.07030999999999C109.9140448 109.07030999999999 104.8515498 107.96875000000001 102.4609378 105.76562C97.9609318 101.40625000000001 95.71093379999999 95.07813 95.7109378 86.78125000000001C95.71093379999999 83.35940000000001 95.71093379999999 77.35940000000001 95.7109378 68.78125000000001C95.71093379999999 60.203170000000014 95.71093379999999 53.54692999999999 95.7109378 48.812500000000014C95.71093379999999 31.140699999999995 95.1015598 20.804770000000005 93.8828128 17.804680000000005L104.4999998 10C106.37498579999999 14.734459999999999 107.5234218 21.929770000000005 107.9453128 31.585930000000005C108.6484208 41.289130000000014 108.7890458 48.32037000000001 108.3671878 52.679680000000005C108.0859218 57.03911000000001 107.9687338 63.789100000000005 108.0156248 72.92968C108.2499838 83.57033 108.7890458 89.89845000000001 109.6328128 91.91405999999999C110.6640438 94.53907 111.67185479999999 96.01563 112.6562498 96.34375000000001C115.0937268 97.04688 116.7577878 97.39844000000001 117.6484378 97.39843L119.6875048 97.39843M67.7968748 92.96875000000001C66.9062338 91.60939 65.7343608 90.39064 64.2812498 89.31250000000001C64.7968618 87.10939 65.96873480000001 83.75783 67.7968748 79.25780999999999C73.9374768 83.61721000000001 80.7577828 86.35939 88.2578128 87.48437C89.05464979999999 88.93751999999999 89.4530868 90.60158 89.4531248 92.47655999999999C89.4530868 95.05470000000001 88.77339979999999 97.44532 87.4140628 99.64843C78.5077848 99.69532 69.3671698 102.53125000000001 59.992187799999996 108.15625000000001C57.9765558 108.76562 56.124994799999996 109.07030999999999 54.4374998 109.07030999999999L51.2031248 109.07030999999999L51.2031248 97.39843L54.507812799999996 97.39843C54.88280880000001 97.39844000000001 55.30468380000001 97.39844000000001 55.773437799999996 97.39843C57.4140558 97.39844000000001 59.2890548 96.90625999999999 61.398437799999996 95.92187L67.7968748 92.96875000000001M36.8593748 97.11718C33.9530988 101.89844000000001 29.4999788 104.28905999999999 23.5 104.28905999999999C21.062486800000002 104.28905999999999 18.6718642 103.82030999999999 16.328125 102.88280999999999C12.1093708 101.19532 9.9999979 97.82032 10 92.75780999999999C9.9999979 89.89845000000001 10.703122200000001 87.08595000000001 12.109375 84.32030999999999C18.062489810000002 83.00783 23.1484222 80.42971000000001 27.3671875 76.58593C32.1484128 72.46096999999999 34.5390358 67.82035 34.539062799999996 62.66405999999999C34.5390358 62.14847999999999 34.5155988 61.609420000000014 34.4687498 61.04687C37.7968448 61.84379 39.460905800000006 65.73441000000001 39.460937799999996 72.71875000000001L39.460937799999996 75.60155999999999C39.460905800000006 75.60159 39.437468800000005 76.51565000000001 39.3906248 78.34375000000001C39.390593800000005 84.15626999999999 39.976530800000006 88.18751999999999 41.148437799999996 90.43750000000001C43.3984018 94.14064 45.3671498 96.46095000000001 47.054687799999996 97.39843L53.4531248 97.39843L53.4531248 109.07030999999999L45.5781248 109.07030999999999C45.484337800000006 109.07030999999999 44.2187138 108.32030999999999 41.7812498 106.82030999999999C38.4999698 104.75780999999999 36.8593458 101.52344000000001 36.8593748 97.11718M20.6875 92.33593C22.9374849 93.60157 24.906233 94.23438 26.59375 94.23437C28.5156048 94.23438 30.156227800000003 93.50782 31.5156248 92.05468C32.4062258 90.74220000000001 32.8515378 89.07814 32.8515628 87.06250000000001C32.8515378 85.89064 32.687474800000004 84.64846000000001 32.3593748 83.33593C31.4218518 85.91408 27.5312303 88.91408 20.6875 92.33593 " id="tagline" style="font-size:144px;font-style:normal;font-variant:normal;font-weight:normal;font-stretch:normal;fill:#000000;fill-opacity:1;stroke:none;stroke-width:1px;stroke-linecap:butt;stroke-linejoin:miter;stroke-opacity:1;font-family:Linux Libertine O;-inkscape-font-specification:Linux Libertine O"></path>
</svg>