<?xml version="1.0" encoding="UTF-8" standalone="no"?>
<svg
	xmlns="http://www.w3.org/2000/svg"
	xmlns:dc="http://purl.org/dc/elements/1.1/"
	xmlns:cc="http://creativecommons.org/ns#"
	xmlns:rdf="http://www.w3.org/1999/02/22-rdf-syntax-ns#"
	xmlns:svg="http://www.w3.org/2000/svg"
	xmlns:xlink="http://www.w3.org/1999/xlink"
	xmlns:sodipodi="http://sodipodi.sourceforge.net/DTD/sodipodi-0.dtd"
	xmlns:inkscape="http://www.inkscape.org/namespaces/inkscape"
	version="1.1"
	viewBox="0 0 136.93281050000002 32.11775999999992">
	<g transform="translate(-0.27996475,-3.92282)" id="The_Free_Encyclopedia" style="font-size:13px;font-style:normal;font-variant:normal;font-weight:normal;font-stretch:normal;text-align:start;line-height:125%;text-anchor:start;fill:#000000;fill-opacity:1;stroke:none;font-family:Linux Libertine"><path d="M16.290527499999996 11.732939999999985C16.3793875 11.500199999999978 16.370927499999997 11.333049999999986 16.265137499999998 11.231479999999976C16.163569499999998 11.125689999999963 15.981603499999999 11.066449999999975 15.719239499999999 11.053739999999976L15.5097665 11.041039999999981C15.4420565 11.041049999999984 15.4081985 11.007239999999967 15.4082045 10.939469999999972L15.4082045 10.691919999999982L15.4335945 10.666519999999991C16.2460885 10.683419999999984 16.7179305 10.691919999999982 16.8491225 10.691919999999982C16.9633725 10.691919999999982 17.367506499999998 10.683919999999972 18.061524499999997 10.666519999999991L18.0869145 10.691919999999982L18.0869145 10.939469999999972C18.086906499999998 11.007169999999974 18.050934500000004 11.041049999999984 17.979003499999997 11.041039999999981C17.653149499999998 11.057939999999974 17.411939500000003 11.138339999999971 17.255371500000003 11.282249999999976C17.098788499999998 11.421899999999965 16.967603500000003 11.629259999999988 16.861816500000003 11.904319999999984L14.2275395 18.93116999999998C14.1428995 19.134299999999968 14.037105500000001 19.235859999999974 13.910156500000001 19.235859999999974C13.7831995 19.235859999999974 13.6837525 19.134299999999968 13.611816500000002 18.93116999999998L11.091796500000001 11.847189999999983C10.9860015 11.550969999999978 10.873859500000002 11.352079999999972 10.7553715 11.250509999999991C10.6411127 11.144719999999978 10.4231767 11.074899999999985 10.1015625 11.041039999999981C10.0338545 11.041049999999984 10 11.007239999999967 10 10.939469999999972L10 10.691919999999982L10.025391 10.666519999999991C10.837889500000001 10.683419999999984 11.3012685 10.691919999999982 11.415527500000001 10.691919999999982C11.677895500000002 10.691919999999982 12.215329500000001 10.683919999999972 13.0278325 10.666519999999991L13.0532225 10.691919999999982L13.0532225 10.939469999999972C13.0532195 10.994469999999978 13.0193625 11.028369999999967 12.951660500000001 11.041039999999981L12.729492500000001 11.066439999999972C12.4248025 11.108739999999983 12.234372500000001 11.168009999999981 12.1582035 11.244169999999968C12.086263500000001 11.316169999999971 12.086263500000001 11.449419999999975 12.1582035 11.64406999999997L14.2148435 17.426789999999983L14.2656235 17.426789999999983L16.2905255 11.732939999999985 " id="path4691"></path><path d="M21.8988285 16.049350000000004L20.8705085 16.322300000000013C20.0326155 16.550820000000016 19.6136705 17.02689000000001 19.6136725 17.750520000000023C19.6136705 17.983270000000033 19.6983025 18.19697000000002 19.8675785 18.39163000000002C20.0368475 18.582060000000013 20.2717105 18.677280000000025 20.5721685 18.677280000000025C20.8683895 18.677280000000025 21.2492485 18.48896000000002 21.7147465 18.112340000000017C21.8374645 18.027740000000023 21.8988245 17.915560000000028 21.8988285 17.77591000000001L21.8988285 16.049350000000004M21.8988285 18.45510999999999L21.8734385 18.45510999999999L21.6131855 18.658230000000003C21.3254215 18.88252 21.0905585 19.02851000000001 20.9085955 19.096220000000017C20.7308585 19.168120000000016 20.493879500000002 19.20413000000002 20.197657500000002 19.20413000000002C19.7067705 19.20413000000002 19.3153325 19.09199000000001 19.0233415 18.867710000000017C18.7313485 18.64342000000002 18.5853525 18.287960000000027 18.5853525 17.801300000000026C18.5853525 17.36966000000004 18.777897499999998 16.988800000000026 19.1629895 16.658720000000017C19.5523115 16.324420000000003 20.066470499999998 16.07686000000001 20.705470499999997 15.916050000000013L21.8226575 15.643100000000004C21.873437499999998 15.626200000000011 21.8988275 15.575400000000002 21.8988275 15.490749999999991C21.8988235 15.207229999999981 21.8755475 14.959669999999988 21.8290075 14.748079999999987C21.7824575 14.53225999999998 21.7253255 14.362989999999996 21.6576205 14.240269999999981C21.5899105 14.117549999999994 21.5052735 14.020219999999995 21.4037145 13.94826999999998C21.3063845 13.87206999999998 21.2132815 13.821329999999989 21.1244175 13.79592999999997C21.0397775 13.77052999999998 20.9466805 13.757829999999984 20.8451205 13.757829999999984C20.5658215 13.757839999999987 20.3161475 13.808629999999994 20.0960975 13.910179999999997C19.876043499999998 14.011750000000006 19.7660175 14.15773999999999 19.7660195 14.34817000000001C19.7660175 14.466660000000019 19.7745195 14.551299999999998 19.7914095 14.602069999999998C19.816799500000002 14.657070000000004 19.8294895 14.735379999999992 19.8294995 14.836939999999998C19.829497500000002 14.938500000000005 19.7765995 15.035830000000004 19.6708085 15.128929999999997C19.5692445 15.22202999999999 19.4317115 15.268579999999986 19.2582105 15.268579999999986C18.9577535 15.268579999999986 18.8075265 15.116239999999976 18.8075265 14.81153999999998C18.8075265 14.58302999999998 18.9112045 14.356629999999967 19.118562500000003 14.132349999999974C19.325917500000003 13.90806999999998 19.596750500000002 13.726099999999974 19.931062500000003 13.586449999999985C20.265369500000002 13.44256999999999 20.603911500000002 13.370629999999977 20.946687500000003 13.370629999999977C21.154040500000004 13.370629999999977 21.342354500000003 13.38752999999997 21.511628500000004 13.421429999999987C21.685127500000004 13.455329999999975 21.858629500000003 13.52082999999999 22.032136500000004 13.618209999999976C22.205634500000002 13.711309999999969 22.349514500000005 13.836149999999975 22.463776500000005 13.992719999999963C22.582262500000006 14.149299999999954 22.677476500000004 14.362999999999971 22.749421500000004 14.63382999999996C22.825591500000005 14.900439999999946 22.863674500000005 15.211469999999963 22.863679500000003 15.56693999999996L22.863679500000003 17.502969999999948C22.863674500000002 17.625689999999935 22.863674500000002 17.725139999999953 22.863679500000003 17.801309999999944C22.867879500000004 17.873209999999943 22.874249500000005 17.95999999999995 22.882719500000004 18.061559999999957C22.895409500000003 18.158859999999947 22.912339500000005 18.237179999999967 22.933499500000003 18.29642999999996C22.954649500000002 18.351429999999965 22.982159500000005 18.40856999999997 23.016019500000002 18.467809999999957C23.054099500000003 18.52700999999996 23.1027695 18.569379999999967 23.162015500000003 18.594769999999954C23.2254855 18.620169999999945 23.297426500000004 18.63286999999994 23.377835500000003 18.63286999999994C23.470925500000003 18.63286999999994 23.547100500000003 18.615969999999948 23.606351500000002 18.58206999999993C23.6655915 18.548169999999942 23.710023500000002 18.51436999999993 23.7396515 18.480509999999924C23.769271500000002 18.446609999999936 23.792541500000002 18.429709999999915 23.8094715 18.429709999999915C23.8348515 18.429709999999915 23.8644815 18.450909999999908 23.8983415 18.49320999999992C23.9364215 18.53550999999993 23.955461500000002 18.577809999999914 23.9554715 18.620159999999913C23.955465500000003 18.637059999999906 23.938541500000003 18.666659999999922 23.904691500000002 18.70905999999991C23.8708315 18.75135999999992 23.8200515 18.800059999999917 23.752348500000004 18.85504999999992C23.688868500000005 18.910049999999927 23.614810500000004 18.965079999999915 23.530180500000004 19.020089999999925C23.445540500000003 19.070889999999935 23.343977500000005 19.113189999999918 23.225492500000005 19.14703999999992C23.111229500000004 19.185139999999905 22.994856500000004 19.20413999999991 22.876371500000005 19.20413999999991C22.364323500000005 19.20413999999991 22.038477500000006 18.9544699999999 21.898832500000005 18.45511999999991 " id="path4693"></path><path d="M26.567675499999996 18.156769999999995C26.724249499999996 18.351429999999993 26.872360499999996 18.501659999999987 27.012011499999996 18.60745C27.155889499999997 18.713249999999988 27.320928499999997 18.76615000000001 27.507128499999997 18.766140000000007C28.099573499999998 18.76615000000001 28.550256499999996 18.527050000000003 28.859179499999996 18.04886000000002C29.172325499999996 17.570670000000007 29.328901499999997 16.94225000000003 29.328906499999995 16.163610000000006C29.328901499999994 15.53731000000002 29.189253499999996 15.010449999999992 28.909960499999997 14.583040000000011C28.630659499999997 14.155640000000005 28.292118499999997 13.941930000000013 27.894335499999997 13.941930000000013C27.805465499999997 13.941930000000013 27.706018499999995 13.949930000000023 27.595995499999997 13.967330000000004C27.485966499999996 13.98003 27.325159499999998 14.030830000000009 27.1135745 14.119670000000013C26.9019835 14.208570000000009 26.720017499999997 14.331260000000015 26.5676755 14.487830000000002L26.5676755 18.156779999999998M25.5964845 11.758340000000004C25.596483499999998 11.356330000000014 25.5647445 11.087610000000012 25.501274499999997 10.952190000000002C25.4420245 10.812549999999987 25.3425825 10.742729999999995 25.202934499999998 10.742719999999991L24.7903365 10.71732C24.7353265 10.717330000000004 24.7078165 10.696120000000008 24.7078165 10.653819999999996L24.6824265 10.342780000000005C24.9490275 10.321580000000012 25.268526499999997 10.275080000000003 25.6409225 10.203140000000019C26.0175485 10.13124000000002 26.2841505 10.063500000000033 26.440727499999998 10.000010000000032C26.550751499999997 10.000020000000035 26.6057645 10.044410000000028 26.605766499999998 10.133310000000023C26.580376499999996 10.48033000000001 26.567676499999997 10.935240000000022 26.567676499999997 11.49806000000001L26.567676499999997 14.087900000000019C27.007778499999997 13.60972000000001 27.5367495 13.37062000000003 28.154590499999998 13.37062000000003C28.4381155 13.37062000000003 28.715296499999997 13.432020000000023 28.986133499999998 13.554700000000025C29.256962499999997 13.673190000000034 29.500288499999996 13.84035000000003 29.716114499999996 14.056160000000034C29.931929499999995 14.267760000000038 30.105431499999995 14.538590000000028 30.236621499999995 14.868660000000034C30.367801499999995 15.194510000000037 30.433393499999994 15.547870000000046 30.433399499999993 15.928720000000027C30.433393499999994 16.42384000000004 30.34663949999999 16.882990000000035 30.173145499999993 17.306160000000034C30.003869499999993 17.729340000000036 29.781701499999993 18.076350000000048 29.506641499999994 18.347180000000037C29.231571499999994 18.618010000000027 28.926884499999993 18.829600000000028 28.592578499999995 18.98195000000004C28.258265499999993 19.130060000000043 27.921839499999994 19.204110000000043 27.583301499999994 19.204110000000043C27.050096499999995 19.204110000000043 26.599412499999993 19.045420000000036 26.231250499999994 18.72804000000005C26.091600499999995 18.931160000000062 25.949836499999993 19.100430000000046 25.805957499999995 19.235850000000056C25.687467499999993 19.235850000000056 25.596484499999995 19.21255000000005 25.533008499999994 19.16605000000007C25.575328499999994 18.92907000000008 25.596488499999992 18.592640000000074 25.596488499999992 18.15677000000008L25.596488499999992 11.758330000000086 " id="path4695"></path><path d="M35.2863275 16.049350000000004L34.258007500000005 16.322300000000013C33.4201145 16.550820000000016 33.0011695 17.02689000000001 33.0011715 17.750520000000023C33.0011695 17.983270000000033 33.0858015 18.19697000000002 33.2550775 18.39163000000002C33.4243465 18.582060000000013 33.6592095 18.677280000000025 33.95966750000001 18.677280000000025C34.25588850000001 18.677280000000025 34.6367475 18.48896000000002 35.10224550000001 18.112340000000017C35.224962500000004 18.027740000000023 35.28632350000001 17.915560000000028 35.2863275 17.77591000000001L35.2863275 16.049350000000004M35.2863275 18.45510999999999L35.2609375 18.45510999999999L35.000683499999994 18.658230000000003C34.712920499999996 18.88252 34.47805749999999 19.02851000000001 34.296094499999995 19.096220000000017C34.1183575 19.168120000000016 33.8813785 19.20413000000002 33.5851565 19.20413000000002C33.094269499999996 19.20413000000002 32.7028315 19.09199000000001 32.4108405 18.867710000000017C32.1188475 18.64342000000002 31.972851499999997 18.287960000000027 31.972851499999997 17.801300000000026C31.972851499999997 17.36966000000004 32.1653965 16.988800000000026 32.5504885 16.658720000000017C32.93981049999999 16.324420000000003 33.4539695 16.07686000000001 34.092969499999995 15.916050000000013L35.2101565 15.643100000000004C35.2609365 15.626200000000011 35.2863265 15.575400000000002 35.2863265 15.490749999999991C35.2863225 15.207229999999981 35.2630465 14.959669999999988 35.216506499999994 14.748079999999987C35.1699565 14.53225999999998 35.1128245 14.362989999999996 35.0451195 14.240269999999981C34.97740949999999 14.117549999999994 34.89277249999999 14.020219999999995 34.7912135 13.94826999999998C34.6938835 13.87206999999998 34.6007805 13.821329999999989 34.5119165 13.79592999999997C34.42727649999999 13.77052999999998 34.33417949999999 13.757829999999984 34.2326195 13.757829999999984C33.95332049999999 13.757839999999987 33.70364549999999 13.808629999999994 33.48359649999999 13.910179999999997C33.2635425 14.011750000000006 33.153516499999995 14.15773999999999 33.15351749999999 14.34817000000001C33.153516499999995 14.466660000000019 33.16201749999999 14.551299999999998 33.178907499999994 14.602069999999998C33.204297499999996 14.657070000000004 33.2169875 14.735379999999992 33.21699749999999 14.836939999999998C33.216995499999996 14.938500000000005 33.1640975 15.035830000000004 33.0583065 15.128929999999997C32.95674249999999 15.22202999999999 32.8192095 15.268579999999986 32.6457085 15.268579999999986C32.345251499999996 15.268579999999986 32.1950245 15.116239999999976 32.1950245 14.81153999999998C32.1950245 14.58302999999998 32.2987025 14.356629999999967 32.5060595 14.132349999999974C32.713415499999996 13.90806999999998 32.98424849999999 13.726099999999974 33.318559500000006 13.586449999999985C33.6528675 13.44256999999999 33.9914095 13.370629999999977 34.334184500000006 13.370629999999977C34.5415385 13.370629999999977 34.72985250000001 13.38752999999997 34.89912650000001 13.421429999999987C35.0726255 13.455329999999975 35.2461275 13.52082999999999 35.4196345 13.618209999999976C35.59313250000001 13.711309999999969 35.737012500000006 13.836149999999975 35.8512745 13.992719999999963C35.96975950000001 14.149299999999954 36.064974500000005 14.362999999999971 36.136919500000005 14.63382999999996C36.21308950000001 14.900439999999946 36.25117250000001 15.211469999999963 36.25117750000001 15.56693999999996L36.25117750000001 17.502969999999948C36.25117250000001 17.625689999999935 36.25117250000001 17.725139999999953 36.25117750000001 17.801309999999944C36.25537750000001 17.873209999999943 36.26174750000001 17.95999999999995 36.2702175 18.061559999999957C36.28290750000001 18.158859999999947 36.29983750000001 18.237179999999967 36.320997500000004 18.29642999999996C36.34214750000001 18.351429999999965 36.3696575 18.40856999999997 36.40351750000001 18.467809999999957C36.441597500000015 18.52700999999996 36.490267500000016 18.569379999999967 36.5495135 18.594769999999954C36.61298350000001 18.620169999999945 36.684925500000006 18.63286999999994 36.76533450000001 18.63286999999994C36.8584245 18.63286999999994 36.934599500000004 18.615969999999948 36.99384950000001 18.58206999999993C37.05308950000001 18.548169999999942 37.09752250000001 18.51436999999993 37.12715050000001 18.480509999999924C37.15677050000001 18.446609999999936 37.180040500000004 18.429709999999915 37.196970500000006 18.429709999999915C37.222350500000005 18.429709999999915 37.251980500000016 18.450909999999908 37.285840500000006 18.49320999999992C37.323920500000014 18.53550999999993 37.342960500000004 18.577809999999914 37.34297050000001 18.620159999999913C37.34296450000001 18.637059999999906 37.326040500000005 18.666659999999922 37.292190500000004 18.70905999999991C37.258330500000014 18.75135999999992 37.20755050000001 18.800059999999917 37.1398475 18.85504999999992C37.0763675 18.910049999999927 37.00230850000001 18.965079999999915 36.917679500000006 19.020089999999925C36.8330395 19.070889999999935 36.7314755 19.113189999999918 36.61299150000001 19.14703999999992C36.4987285 19.185139999999905 36.3823555 19.20413999999991 36.26387050000001 19.20413999999991C35.751821500000005 19.20413999999991 35.42597550000001 18.9544699999999 35.2863315 18.45511999999991 " id="path4697"></path><path d="M43.341796499999994 15.344760000000008L45.72851549999999 15.344760000000008C45.851232499999995 15.344760000000008 45.91259349999999 15.285560000000004 45.91259749999999 15.167020000000008C45.91259349999999 14.908890000000014 45.87873749999999 14.686720000000008 45.81103549999999 14.500519999999995C45.74755549999999 14.314329999999984 45.658687499999985 14.174679999999995 45.54443349999999 14.08157C45.43440349999999 13.98427000000001 45.32014649999999 13.916539999999998 45.20166049999999 13.878449999999987C45.08739949999999 13.836149999999975 44.964677499999986 13.814949999999982 44.83349649999999 13.814949999999982C44.74885649999999 13.814959999999985 44.66422249999999 13.820949999999982 44.57958949999999 13.83404999999999C44.49917949999999 13.84205 44.38915749999999 13.876350000000002 44.24951149999999 13.935609999999997C44.10986149999999 13.990610000000004 43.98502349999999 14.068909999999988 43.87500049999999 14.170469999999995C43.76920349999999 14.272040000000004 43.66340949999999 14.424379999999985 43.55761749999999 14.627499999999998C43.45605349999999 14.830629999999985 43.38411349999999 15.069729999999993 43.341796499999994 15.344789999999989M46.76953149999999 17.83941999999999C46.90494249999999 17.852119999999985 46.991694499999994 17.92192 47.029785499999996 18.04889C46.7716425 18.404359999999997 46.4542595 18.68576999999999 46.0776365 18.893130000000014C45.701005499999994 19.100480000000005 45.286292499999995 19.20416 44.833496499999995 19.20416C43.9871395 19.20416 43.3460275 18.950260000000014 42.91015649999999 18.442440000000005C42.478514499999996 17.93463 42.262694499999995 17.282939999999996 42.26269549999999 16.48737C42.262694499999995 16.013409999999993 42.33886549999999 15.575420000000008 42.491210499999994 15.173399999999987C42.643553499999996 14.771389999999997 42.842446499999994 14.441309999999987 43.08789049999999 14.18316999999999C43.33333149999999 13.925029999999992 43.60628049999999 13.726139999999987 43.906738499999996 13.586489999999998C44.211423499999995 13.442610000000002 44.5203425 13.37066999999999 44.833496499999995 13.37066999999999C45.1635705 13.37066999999999 45.45556249999999 13.415069999999986 45.7094725 13.503969999999981C45.96337449999999 13.592869999999976 46.16649949999999 13.709209999999985 46.3188475 13.85308999999998C46.475418499999996 13.99273999999997 46.6023715 14.164129999999972 46.699707499999995 14.367249999999984C46.7970275 14.570379999999972 46.86262549999999 14.773499999999984 46.89648449999999 14.976619999999997C46.93456449999999 15.179749999999984 46.95360449999999 15.397689999999983 46.95361449999999 15.63042999999999C46.95360949999999 15.778549999999996 46.87532449999999 15.852599999999995 46.718751499999996 15.852599999999995L43.29736449999999 15.852599999999995C43.29736249999999 16.224999999999994 43.33756449999999 16.567769999999996 43.41796949999999 16.880920000000003C43.50259949999999 17.189840000000004 43.60839749999999 17.44586000000001 43.73535249999999 17.648989999999998C43.86653549999999 17.85211000000001 44.01464749999999 18.025620000000004 44.17968849999999 18.1695C44.34895649999999 18.309140000000014 44.51399549999999 18.410709999999995 44.67480549999999 18.47417999999999C44.83560949999999 18.537679999999995 44.99218549999999 18.569379999999995 45.14453249999999 18.569379999999995C45.49576549999999 18.569379999999995 45.79622149999999 18.512280000000004 46.04589949999999 18.397989999999993C46.29556949999999 18.279499999999985 46.53678049999999 18.0933 46.76953249999999 17.839399999999983 " id="path4699"></path><path d="M50.1371075 13.370640000000009L50.0990175 14.52591000000001L50.1371075 14.52591000000001C50.5221965 14.073120000000017 50.8776645 13.768430000000023 51.2035145 13.611850000000004C51.5335885 13.45105000000001 51.8848255 13.370640000000009 52.2572255 13.370640000000009C52.5407495 13.370640000000009 52.777728499999995 13.421440000000018 52.9681625 13.522980000000018C53.1628185 13.624550000000028 53.3109305 13.774780000000021 53.4124985 13.973660000000024C53.5140555 14.168330000000026 53.583879499999995 14.382030000000015 53.6219715 14.614780000000025C53.6642815 14.843300000000028 53.6854415 15.114130000000017 53.6854515 15.427280000000025L53.6854515 18.144070000000028C53.6854465 18.33027000000004 53.7256515 18.465690000000023 53.8060575 18.550320000000028C53.8864575 18.630720000000025 54.0282195 18.68151000000003 54.231350500000005 18.70267000000004L54.4789085 18.72807000000003C54.5550785 18.744970000000023 54.593159500000006 18.77887000000004 54.5931665 18.829630000000037L54.5931665 19.07719000000003L54.5677765 19.10259000000002C53.873755499999994 19.085640000000012 53.410377499999996 19.07718 53.177635499999994 19.07718C53.01259149999999 19.07718 52.583066499999994 19.08518000000001 51.8890615 19.10257999999999L51.8636705 19.07718L51.8636705 18.829620000000006C51.8636665 18.77462 51.8996405 18.74072000000001 51.971580499999995 18.72806L52.149314499999996 18.70266000000001C52.36513049999999 18.66876000000002 52.511126499999996 18.613760000000013 52.5873035 18.537620000000004C52.667703499999995 18.457220000000007 52.7079035 18.326030000000003 52.707908499999995 18.144059999999996L52.707908499999995 15.33205000000001C52.70790349999999 14.849640000000022 52.648658499999996 14.506860000000017 52.530174499999994 14.303730000000002C52.4159125 14.09638000000001 52.193744499999994 13.992700000000013 51.86367049999999 13.992700000000013C51.563211499999994 13.992700000000013 51.27968249999999 14.0668 51.01308449999999 14.214870000000019C50.74648049999999 14.362980000000022 50.45448849999999 14.62324000000001 50.13710749999999 14.995630000000006L50.13710749999999 18.144059999999996C50.13710549999999 18.33026000000001 50.17518749999999 18.461449999999985 50.25136549999999 18.537620000000004C50.33176549999999 18.613820000000004 50.47987849999999 18.668800000000005 50.69570149999999 18.70266000000001L50.87978349999999 18.72806C50.947493499999986 18.740759999999995 50.98134349999999 18.774560000000008 50.98134649999999 18.829620000000006L50.98134649999999 19.07718L50.955956499999985 19.10257999999999C50.261942499999996 19.085640000000012 49.819723499999995 19.07718 49.6292955 19.07718C49.4219375 19.07718 48.9712545 19.08518000000001 48.277244499999995 19.10257999999999L48.251853499999996 19.07718L48.251853499999996 18.829620000000006C48.251853499999996 18.77462 48.2857035 18.74072000000001 48.353416499999994 18.72806L48.6009755 18.70266000000001C48.8167945 18.681460000000015 48.9627905 18.63076000000001 49.038963499999994 18.550309999999996C49.11936349999999 18.46991 49.159567499999994 18.334489999999988 49.15956849999999 18.144059999999996L49.15956849999999 14.906759999999991C49.159567499999994 14.597849999999994 49.13628849999999 14.39049 49.08974849999999 14.284689999999983C49.047428499999995 14.174669999999992 48.975489499999995 14.113309999999984 48.87392849999999 14.100609999999989L48.31533449999999 14.043509999999998L48.28994449999999 13.732470000000006C49.11937049999999 13.605530000000016 49.71816549999999 13.472229999999996 50.08633149999999 13.332570000000004C50.120181499999994 13.332580000000007 50.137111499999996 13.34527 50.137111499999996 13.37066999999999 " id="path4701"></path><path d="M57.5164075 14.005400000000009L57.5164075 17.29349000000002C57.5164045 17.72090000000003 57.5460275 18.02770000000001 57.6052775 18.213900000000024C57.6645175 18.400100000000037 57.7766615 18.49320000000003 57.9417035 18.49320000000003C58.250619500000006 18.49320000000003 58.563770500000004 18.37047000000004 58.8811565 18.125030000000038C59.0123375 18.14623000000003 59.0906255 18.220230000000043 59.1160195 18.347200000000043C58.6082035 18.918490000000048 58.0665375 19.20413000000005 57.4910195 19.20413000000005C56.856252500000004 19.20413000000005 56.5388695 18.77672000000004 56.5388705 17.921910000000054L56.5388705 14.005400000000066L55.694632500000004 14.005400000000066C55.6607825 14.005410000000069 55.6438525 13.988500000000073 55.6438525 13.954600000000056L55.6438525 13.554700000000054C55.6438525 13.516600000000068 55.656552500000004 13.497600000000062 55.6819425 13.497600000000062C56.0966555 13.497610000000066 56.3801835 13.379120000000057 56.5325285 13.142130000000066C56.684870499999995 12.900930000000074 56.761042499999995 12.51795000000007 56.7610435 11.993210000000062L56.7610435 11.745650000000069L57.5164155 11.48539000000008L57.5164155 13.49760000000009L58.9446375 13.49760000000009C59.0165775 13.497610000000094 59.052544499999996 13.525100000000094 59.052547499999996 13.580100000000101L59.052547499999996 13.840350000000115C59.052544499999996 13.891150000000124 59.0186875 13.931350000000123 58.950985499999994 13.960960000000114C58.883275499999996 13.990560000000102 58.811333499999996 14.00536000000011 58.735165499999994 14.00536000000011L57.516415499999994 14.00536000000011 " id="path4703"></path><path d="M60.4777335 17.25540000000001L60.826854499999996 17.242700000000013C60.90725449999999 17.82668000000001 61.0638325 18.23505 61.296581499999995 18.467790000000008C61.385451499999995 18.56089 61.514515499999995 18.64765 61.68378849999999 18.728049999999996C61.85305749999999 18.804249999999996 62.045602499999994 18.842309999999998 62.261425499999994 18.842309999999998C62.52379249999999 18.842309999999998 62.77769849999999 18.753410000000002 63.023143499999996 18.575709999999987C63.2685835 18.397969999999987 63.3913045 18.16310999999999 63.391307499999996 17.87111999999999C63.3913045 17.58336 63.2939775 17.337909999999994 63.099315499999996 17.13478999999998C62.90465149999999 16.927429999999987 62.555530499999996 16.71160999999998 62.0519525 16.487329999999986C61.7811175 16.368839999999977 61.5716445 16.269389999999987 61.423534499999995 16.18898999999999C61.27542149999999 16.104389999999995 61.133656499999994 15.998559999999998 60.99824149999999 15.8716C60.86705549999999 15.744650000000007 60.77607249999999 15.598659999999995 60.725292499999995 15.43361999999999C60.67451249999999 15.268579999999986 60.6491225 15.065460000000002 60.6491225 14.824240000000003C60.6491215 14.396839999999997 60.820508499999995 14.047719999999998 61.163282499999994 13.776880000000006C61.51028649999999 13.506050000000016 61.944042499999995 13.370630000000006 62.464552499999996 13.370630000000006C63.001983499999994 13.370630000000006 63.4801735 13.47854000000001 63.8991225 13.694360000000017C63.9625925 14.049830000000014 64.00914449999999 14.492050000000006 64.0387705 15.021020000000021L63.6896495 15.033720000000017C63.6261695 14.784050000000008 63.5373025 14.570350000000019 63.4230485 14.392610000000019C63.3130185 14.210650000000015 63.1945295 14.077350000000024 63.0675795 13.992710000000017C62.9448555 13.908110000000022 62.832713500000004 13.84883000000002 62.7311535 13.814970000000017C62.6338235 13.77687000000003 62.5449535 13.757870000000025 62.464552499999996 13.757870000000025C61.783235499999996 13.757880000000029 61.4425775 14.049870000000027 61.442579499999994 14.633850000000024C61.44257749999999 14.896220000000028 61.506049499999996 15.103580000000022 61.63300949999999 15.255920000000032C61.76419249999999 15.404040000000037 62.007518499999996 15.541570000000036 62.36298949999999 15.66852000000003C62.65921049999999 15.778550000000024 62.90888449999999 15.886460000000028 63.11201249999999 15.992250000000041C63.31513449999999 16.09805000000003 63.50979549999999 16.22500000000005 63.69599749999999 16.373110000000054C63.88642349999999 16.521220000000056 64.02818749999999 16.69473000000005 64.12129049999999 16.893620000000055C64.21438049999999 17.09251000000006 64.26093449999999 17.316800000000057 64.2609385 17.566470000000066C64.26093449999999 17.81191000000007 64.2101485 18.034080000000074 64.10859549999999 18.23297000000008C64.01125549999999 18.42763000000008 63.888538499999996 18.58421000000007 63.740430499999995 18.70270000000008C63.59654749999999 18.821190000000087 63.43150849999999 18.920630000000074 63.245313499999995 19.001040000000074C63.0591125 19.077240000000074 62.88561049999999 19.130110000000087 62.724805499999995 19.15973000000008C62.56822749999999 19.18933000000007 62.422231499999995 19.204130000000077 62.2868175 19.204130000000077C61.8636385 19.204130000000077 61.4722005 19.15763000000007 61.1125015 19.06448000000009C61.0532515 19.047580000000096 60.9728515 19.039080000000098 60.8712905 19.039080000000098C60.8035805 19.039080000000098 60.7020185 19.051780000000093 60.5666025 19.077180000000084C60.5666025 18.611690000000095 60.5369825 18.00443000000007 60.4777325 17.255400000000094 " id="path4705-0"></path><path d="M66.9175795 11.62503000000001C66.9175785 11.464230000000015 66.9768195 11.324579999999997 67.0953145 11.206090000000017C67.2138015 11.087600000000009 67.3534495 11.02836000000002 67.5142595 11.028350000000017C67.67929649999999 11.02836000000002 67.82106049999999 11.087650000000025 67.93955249999999 11.206090000000017C68.05803949999999 11.324580000000026 68.11728349999998 11.464230000000015 68.11728649999999 11.62503000000001C68.11728349999998 11.790080000000017 68.05803649999999 11.931840000000022 67.93955249999999 12.05032C67.82106049999999 12.16882000000001 67.67929649999999 12.228070000000002 67.5142595 12.22806C67.3534495 12.228070000000002 67.21380149999999 12.168859999999995 67.0953145 12.05032C66.9768225 11.931839999999994 66.9175785 11.790079999999989 66.9175795 11.62503000000001M68.9996105 11.62503000000001C68.9996075 11.464230000000015 69.0588505 11.324579999999997 69.1773455 11.206090000000017C69.29583050000001 11.087600000000009 69.4354795 11.02836000000002 69.5962905 11.028350000000017C69.7570935 11.02836000000002 69.89674149999999 11.087650000000025 70.01523549999999 11.206090000000017C70.1337205 11.324580000000026 70.19296549999999 11.464230000000015 70.19297049999999 11.62503000000001C70.19296549999999 11.790080000000017 70.13372049999998 11.931840000000022 70.01523549999999 12.05032C69.89674149999999 12.16882000000001 69.75709349999998 12.228070000000002 69.5962905 12.22806C69.4354795 12.228070000000002 69.2958305 12.168859999999995 69.1773455 12.05032C69.0588515 11.931839999999994 68.9996075 11.790079999999989 68.9996105 11.62503000000001M69.8565445 14.500520000000023C69.8565395 14.284700000000015 69.8163345 14.134480000000025 69.7359395 14.049840000000017C69.6597595 13.960940000000022 69.5095355 13.903850000000006 69.2852555 13.878450000000015L69.0757825 13.853050000000025L69.0376925 13.827650000000034L69.0376925 13.497570000000024L69.0757825 13.472170000000034C69.7190075 13.489070000000027 70.1485315 13.497570000000024 70.3643575 13.497570000000024C70.5801725 13.497580000000028 70.73039949999999 13.489570000000015 70.8150405 13.472170000000034C70.85312049999999 13.472180000000037 70.87216049999999 13.480170000000044 70.8721705 13.497570000000024C70.84677049999999 14.081560000000025 70.8340805 14.502620000000036 70.8340805 14.76075000000003L70.8340805 17.566420000000022C70.8340755 17.888030000000015 70.8531205 18.09116000000003 70.8912105 18.175790000000035C70.9292905 18.26039000000003 71.0181575 18.309090000000026 71.1578125 18.32179000000002L71.7798825 18.385290000000026L71.8179725 18.689970000000017C70.9758445 18.838090000000022 70.4214825 19.020050000000026 70.15488649999999 19.235870000000006L69.8565465 19.235870000000006L69.8819365 18.24564000000001L69.8565465 18.24564000000001C69.5180005 18.60957000000002 69.2027335 18.86136000000002 68.91074549999999 19.001010000000008C68.6229815 19.136420000000015 68.33099049999998 19.20413000000002 68.0347695 19.20413000000002C67.7258475 19.20413000000002 67.46136249999999 19.155430000000024 67.24131249999999 19.05814000000001C67.02125849999999 18.96084000000002 66.85198749999999 18.82539 66.7334995 18.65189000000001C66.61924049999999 18.47839000000002 66.5367215 18.29430000000002 66.4859415 18.099640000000022C66.43516149999999 17.900750000000016 66.40977149999999 17.68070000000003 66.40977149999999 17.43948000000003L66.40977149999999 14.500520000000023C66.4097705 14.284700000000015 66.36957149999999 14.134480000000025 66.2891655 14.049840000000017C66.21299549999999 13.960940000000022 66.0627655 13.903850000000006 65.8384825 13.878450000000015L65.6290095 13.853050000000025L65.5909195 13.827650000000034L65.5909195 13.497570000000024L65.6290095 13.472170000000034C66.27223749999999 13.489070000000027 66.70176149999999 13.497570000000024 66.91758349999999 13.497570000000024C67.13763349999999 13.497580000000028 67.28997749999999 13.489570000000015 67.37461449999999 13.472170000000034C67.4084645 13.472180000000037 67.4253945 13.480170000000044 67.4253945 13.497570000000024C67.4000045 14.081560000000025 67.3873045 14.502620000000036 67.3873045 14.76075000000003L67.3873045 17.25538000000003C67.3873025 17.53045000000003 67.4190445 17.765310000000028 67.4825145 17.959970000000027C67.54598449999999 18.15040000000002 67.6306235 18.290050000000036 67.7364205 18.378920000000022C67.84221249999999 18.467820000000017 67.94589049999999 18.53126000000003 68.0474555 18.569350000000014C68.1490155 18.603250000000003 68.2569255 18.620150000000024 68.3711855 18.620150000000024C68.6377845 18.620150000000024 68.90438549999999 18.52705000000003 69.1709905 18.340850000000017C69.44181950000001 18.150420000000025 69.67033550000001 17.945180000000022 69.8565375 17.725130000000007L69.8565375 14.500519999999995 " id="path4707"></path><path d="M73.7382815 11.75833C73.7382805 11.35632000000001 73.7086615 11.087600000000009 73.6494115 10.952179999999998C73.5901615 10.812540000000013 73.4907185 10.742719999999991 73.3510715 10.742709999999988L72.9321255 10.717309999999998C72.8813455 10.71732 72.8559555 10.696110000000004 72.8559555 10.653809999999993L72.83056549999999 10.342770000000002C73.09716649999999 10.321570000000008 73.4145485 10.27507 73.78271349999999 10.203129999999987C74.15510849999998 10.131229999999988 74.42170949999999 10.063490000000002 74.58251849999999 10C74.69677449999999 10.000010000000003 74.75390349999999 10.044399999999996 74.75390549999999 10.133299999999991C74.72851549999999 10.480319999999978 74.71581549999999 10.93522999999999 74.71581549999999 11.498049999999978L74.71581549999999 15.998539999999991C75.05435449999999 15.913939999999997 75.6214115 15.43571 76.41698749999999 14.563969999999983C76.4677675 14.513169999999974 76.51431749999999 14.45817999999997 76.55663549999998 14.398929999999979C76.60318549999998 14.335429999999974 76.64338549999998 14.26139999999998 76.67724149999998 14.176759999999973C76.71109149999998 14.092159999999978 76.69205149999998 14.020189999999985 76.62011149999998 13.960939999999965C76.55240149999997 13.89743999999996 76.42756149999998 13.861539999999962 76.24559949999998 13.853029999999961C76.17788949999998 13.853029999999961 76.14403349999998 13.81702999999996 76.14403749999998 13.745119999999957L76.14403749999998 13.497559999999964C76.16942749999998 13.489559999999955 76.18211749999998 13.480659999999972 76.18211749999998 13.472159999999974C76.82534249999998 13.489059999999967 77.21254949999998 13.497559999999964 77.34373949999997 13.497559999999964C77.45376049999997 13.497569999999968 77.83038749999997 13.489559999999955 78.47362149999996 13.472159999999974L78.52440149999997 13.497559999999964L78.52440149999997 13.745119999999957C78.52439549999997 13.800119999999964 78.47573149999997 13.836119999999966 78.37840549999997 13.853029999999961L78.28953549999997 13.865729999999957C78.09486849999998 13.895329999999944 77.87481649999997 13.965229999999963 77.62937949999997 14.07520999999997C77.38816349999998 14.185239999999965 77.19138649999996 14.318539999999956 77.03904749999997 14.475109999999972L76.05516049999997 15.566909999999979C76.02130049999997 15.600809999999967 76.00438049999997 15.645209999999992 76.00438049999997 15.70020999999997C76.00437749999996 15.763709999999975 76.02553049999997 15.822929999999957 76.06786049999997 15.877939999999967L77.58494949999996 18.125009999999975C77.69497049999997 18.29004999999998 77.83885049999996 18.421239999999983 78.01659049999996 18.518569999999983C78.19431949999996 18.615869999999973 78.37628549999997 18.681489999999997 78.56248949999997 18.71533999999997L78.65135949999997 18.728039999999964C78.73175949999997 18.74073999999996 78.77195849999997 18.774539999999973 78.77196449999997 18.82959999999997L78.77196449999997 19.077159999999964L78.74657449999997 19.102559999999954C78.22183650000001 19.085640000000012 77.8536735 19.07718 77.6420895 19.07718C77.40510549999999 19.07718 77.1131145 19.08518000000001 76.7661135 19.10257999999999L76.72802750000001 19.07718L76.72802750000001 18.829620000000006C76.7280235 18.65189000000001 76.6285775 18.417020000000008 76.42968750000001 18.12503000000001L75.48388650000001 16.792020000000008C75.3569305 16.605829999999997 75.23844150000001 16.48099000000002 75.12841850000001 16.41751000000002C75.02262150000001 16.354010000000017 74.88508850000001 16.322310000000016 74.7158205 16.322310000000016L74.7158205 18.144080000000002C74.71581850000001 18.364139999999992 74.7623705 18.512249999999995 74.8554685 18.588420000000013C74.94856850000001 18.660320000000013 75.0966775 18.706910000000022 75.29980450000001 18.728070000000002C75.36751450000001 18.728070000000002 75.40136450000001 18.76196999999999 75.4013675 18.82963000000001L75.4013675 19.07719L75.3759775 19.102589999999992C74.6988915 19.085640000000012 74.3095685 19.07718 74.20800750000001 19.07718C74.17838750000001 19.07718 73.73193250000001 19.08518000000001 72.86865250000001 19.10257999999999L72.8432615 19.07718L72.8432615 18.829620000000006C72.8432615 18.77462 72.87288149999999 18.74072000000001 72.9321315 18.72806L73.17969049999999 18.70266000000001C73.39551049999999 18.681460000000015 73.5415055 18.63076000000001 73.6176785 18.550309999999996C73.6980785 18.46991 73.7382835 18.334489999999988 73.73828449999999 18.144059999999996L73.73828449999999 11.758319999999998 " id="path4709"></path><path d="M80.65419750000001 18.14407L80.65419750000001 11.75833C80.65419650000001 11.35632000000001 80.62245750000001 11.087600000000009 80.55897750000001 10.952179999999998C80.49973750000001 10.812540000000013 80.40028550000001 10.742719999999991 80.26063850000001 10.742709999999988L79.84804050000001 10.717309999999998C79.79303050000001 10.71732 79.76552050000001 10.696110000000004 79.76552050000001 10.653809999999993L79.7401305 10.342770000000002C80.0109625 10.321570000000008 80.33046150000001 10.277170000000012 80.6986265 10.20947000000001C81.0667885 10.13757000000001 81.33339050000001 10.067720000000008 81.49843150000001 10C81.60845450000001 10.000010000000003 81.66346750000001 10.044399999999996 81.6634705 10.133299999999991C81.6380805 10.480319999999978 81.6253805 10.93522999999999 81.6253805 11.498049999999978L81.6253805 18.14403999999999C81.6253775 18.334469999999982 81.6634605 18.469889999999992 81.7396375 18.55028999999999C81.8158075 18.630689999999987 81.9596875 18.681479999999993 82.1712785 18.702640000000002L82.4823135 18.728039999999993C82.5542535 18.728039999999993 82.5902205 18.76193999999998 82.59022350000001 18.8296L82.59022350000001 19.077159999999992L82.5648335 19.102559999999983C81.6930955 19.085640000000012 81.2106735 19.07718 81.1175765 19.07718C81.0371765 19.07718 80.5653295 19.08518000000001 79.7020495 19.10257999999999L79.6893495 19.07718L79.6893495 18.829620000000006C79.6893495 18.761920000000003 79.7189695 18.72806 79.7782195 18.72806L80.08925450000001 18.70266000000001C80.3050735 18.681460000000015 80.4531855 18.63076000000001 80.53359050000002 18.550309999999996C80.61399050000001 18.46991 80.65419450000002 18.334489999999988 80.65419550000001 18.144059999999996 " id="path4711"></path><path d="M83.8630825 16.411159999999995C83.8630825 15.501339999999999 84.10006150000001 14.767130000000009 84.5740205 14.208529999999996C85.0479775 13.649939999999987 85.7081325 13.370640000000009 86.5544895 13.370640000000009C86.92688150000001 13.370640000000009 87.2654225 13.429840000000013 87.5701145 13.548370000000006C87.8747975 13.662630000000007 88.1265875 13.817090000000007 88.3254855 14.011750000000006C88.5286055 14.202179999999998 88.6978755 14.426469999999995 88.8332975 14.684600000000017C88.9729405 14.938510000000008 89.0723875 15.200880000000012 89.1316375 15.47171000000003C89.1908775 15.742550000000023 89.2204975 16.01761000000002 89.2205075 16.296910000000025C89.2205015 16.63545000000002 89.1633775 16.971880000000027 89.0491215 17.306180000000012C88.9390895 17.63626000000002 88.7782825 17.945180000000022 88.5666995 18.232940000000013C88.3593375 18.520700000000005 88.0779245 18.755570000000006 87.7224605 18.93753000000001C87.36698849999999 19.11527000000001 86.9692025 19.20413000000002 86.5291015 19.20413000000002C86.1101535 19.20413000000002 85.7271785 19.12163000000001 85.38017549999999 18.956570000000028C85.03316849999999 18.791540000000026 84.7517565 18.573600000000027 84.53593749999999 18.302770000000038C84.32011649999998 18.031930000000045 84.15296149999999 17.73359000000005 84.03447249999999 17.40775000000005C83.92021449999999 17.081900000000047 83.8630855 16.74971000000005 83.8630855 16.411160000000052M86.4084965 13.802280000000053C86.07841549999999 13.802280000000053 85.80123449999999 13.920770000000061 85.5769535 14.15775000000005C85.3526675 14.39050000000006 85.1939765 14.674030000000045 85.10087850000001 15.008330000000058C85.01200850000001 15.342650000000049 84.9675765 15.710810000000066 84.9675785 16.112820000000056C84.9675765 16.32442000000006 84.9866185 16.546580000000063 85.0247085 16.779330000000044C85.0670285 17.007850000000047 85.1347325 17.242710000000045 85.2278335 17.48392000000004C85.32093350000001 17.725130000000036 85.4330715 17.940950000000043 85.56425850000001 18.131380000000036C85.6954415 18.321810000000028 85.86259650000001 18.478390000000047 86.0657235 18.601110000000034C86.2730775 18.719600000000042 86.4994775 18.77884000000003 86.7449225 18.77884000000003C86.9099585 18.77884000000003 87.0644175 18.751340000000027 87.2083015 18.69634000000002C87.3564095 18.637140000000016 87.50028950000001 18.537650000000014 87.6399425 18.398000000000025C87.78381850000001 18.25412000000003 87.8980755 18.03830000000002 87.9827155 17.75054000000003C88.0673455 17.462780000000038 88.1096645 17.11578000000003 88.1096685 16.709520000000026C88.1096645 15.765840000000026 87.9615525 15.046440000000018 87.6653335 14.551320000000032C87.3691055 14.051980000000043 86.95016050000001 13.80230000000003 86.4084975 13.80230000000003 " id="path4713"></path><path d="M92.30244450000001 15.033719999999988L92.30244450000001 18.207549999999998C92.61982450000001 18.579949999999997 92.97952550000001 18.76615000000001 93.38154650000001 18.766140000000007C93.64814450000002 18.76615000000001 93.88512350000002 18.71744000000001 94.09248350000001 18.620149999999995C94.30406850000001 18.51858999999999 94.47333850000001 18.389520000000005 94.60029650000001 18.232939999999985C94.72724450000001 18.076369999999997 94.83092350000001 17.890169999999983 94.91133150000002 17.674349999999976C94.99596150000002 17.458529999999968 95.05309050000001 17.24482999999998 95.08271750000002 17.033229999999975C95.11233750000001 16.821649999999977 95.12714750000002 16.601599999999962 95.12714750000002 16.373079999999987C95.12714250000002 15.657909999999987 94.98326250000002 15.078159999999997 94.69550650000002 14.633819999999986C94.41197450000003 14.189489999999978 94.06496950000002 13.967319999999972 93.65449150000002 13.967319999999972C93.41750850000003 13.967319999999972 93.16571850000003 14.064619999999962 92.89912050000002 14.25930999999997C92.63674850000002 14.449739999999963 92.43785550000003 14.70787999999996 92.30244050000002 15.03371999999996M91.33124950000001 14.906769999999966C91.33124850000002 14.602089999999976 91.30796950000001 14.394729999999953 91.26142950000002 14.284699999999958C91.21487950000002 14.174679999999967 91.14293950000003 14.113319999999959 91.04560950000003 14.100619999999964L90.48701550000003 14.043519999999972L90.46162550000003 13.732479999999981C91.26989250000003 13.609769999999969 91.86657150000002 13.476469999999978 92.25166450000002 13.332579999999979C92.28551450000002 13.332589999999982 92.30244450000002 13.345279999999974 92.30244450000002 13.370679999999965L92.26435450000002 14.411689999999965L92.30244450000002 14.411689999999965C92.75947350000003 13.717689999999976 93.32864550000002 13.370679999999965 94.00996450000002 13.370679999999965C94.41620950000002 13.370679999999965 94.78860550000002 13.49551999999997 95.12715150000002 13.745189999999951C95.46568850000003 13.994869999999963 95.72805750000002 14.322829999999954 95.91426050000003 14.729079999999954C96.10045350000003 15.135329999999954 96.19355150000003 15.566969999999941 96.19355750000003 16.023999999999944C96.19355150000003 17.04385999999994 95.88886450000003 17.862699999999933 95.27949550000002 18.480539999999934C94.80130050000002 18.962959999999924 94.19615850000002 19.20416999999992 93.46406550000002 19.20416999999992C93.04511750000002 19.20416999999992 92.65791050000001 19.108969999999914 92.30244450000002 18.91852999999992L92.30244450000002 21.171949999999924C92.30244250000003 21.353909999999928 92.34264450000002 21.48509999999993 92.42304950000002 21.56549999999993C92.50767950000002 21.650099999999924 92.64944750000002 21.70091999999994 92.84834250000002 21.71783999999994L93.09590150000001 21.74323999999993C93.17630150000001 21.755939999999924 93.21650450000001 21.789739999999938 93.21650650000001 21.844799999999935L93.21650650000001 22.09235999999993L93.1911165 22.11775999999992C92.54788450000001 22.100859999999926 92.0845065 22.09235999999993 91.80097950000001 22.09235999999993C91.53437650000001 22.092349999999925 91.08369350000001 22.100359999999938 90.44892850000001 22.11775999999992L90.41718850000001 22.09235999999993L90.41718850000001 21.844799999999935C90.41718850000001 21.78979999999993 90.45315850000001 21.75589999999994 90.52509850000001 21.74323999999993L90.77265750000001 21.71783999999994C90.98001350000001 21.700939999999946 91.12389350000001 21.650139999999936 91.20429750000001 21.56549999999993C91.28892750000001 21.48509999999993 91.33125050000001 21.353909999999928 91.33125150000001 21.171949999999924L91.33125150000001 14.906809999999922 " id="path4715"></path><path d="M98.8882825 15.344760000000008L101.2750005 15.344760000000008C101.3977205 15.344760000000008 101.4590805 15.285560000000004 101.4590805 15.167020000000008C101.4590805 14.908890000000014 101.4251805 14.686720000000008 101.35752049999999 14.500519999999995C101.29402049999999 14.314329999999984 101.2051705 14.174679999999995 101.0909205 14.08157C100.9808905 13.98427000000001 100.8666305 13.916539999999998 100.7481505 13.878449999999987C100.63388549999999 13.836149999999975 100.5111635 13.814949999999982 100.3799825 13.814949999999982C100.2953425 13.814959999999985 100.2107085 13.820949999999982 100.1260755 13.83404999999999C100.0456655 13.84205 99.9356435 13.876350000000002 99.7959975 13.935609999999997C99.6563465 13.990610000000004 99.5315095 14.068909999999988 99.4214855 14.170469999999995C99.3156895 14.272040000000004 99.2098955 14.424379999999985 99.10410350000001 14.627499999999998C99.00253850000001 14.830629999999985 98.9305985 15.069729999999993 98.8882825 15.344789999999989M102.31602050000001 17.83941999999999C102.4514305 17.852119999999985 102.53818050000001 17.92192 102.5762705 18.04889C102.31813050000001 18.404359999999997 102.00075050000001 18.68576999999999 101.6241205 18.893130000000014C101.2474905 19.100480000000005 100.8327805 19.20416 100.3799825 19.20416C99.5336255 19.20416 98.89251349999999 18.950260000000014 98.4566425 18.442440000000005C98.0250005 17.93463 97.8091805 17.282939999999996 97.8091815 16.48737C97.8091805 16.013409999999993 97.8853515 15.575420000000008 98.0376965 15.173399999999987C98.1900395 14.771389999999997 98.3889325 14.441309999999987 98.6343765 14.18316999999999C98.8798175 13.925029999999992 99.1527665 13.726139999999987 99.4532245 13.586489999999998C99.75790950000001 13.442610000000002 100.0668285 13.37066999999999 100.37998250000001 13.37066999999999C100.71006050000001 13.37066999999999 101.00205050000001 13.415069999999986 101.25596050000001 13.503969999999981C101.50986050000002 13.592869999999976 101.71298050000001 13.709209999999985 101.86533050000001 13.85308999999998C102.02190050000002 13.99273999999997 102.14886050000001 14.164129999999972 102.24619050000001 14.367249999999984C102.34349050000002 14.570379999999972 102.40911050000001 14.773499999999984 102.44297050000002 14.976619999999997C102.48107050000002 15.179749999999984 102.50007050000002 15.397689999999983 102.50007050000002 15.63042999999999C102.50006050000002 15.778549999999996 102.42177050000002 15.852599999999995 102.26521050000002 15.852599999999995L98.84381950000002 15.852599999999995C98.84381750000003 16.224999999999994 98.88401950000002 16.567769999999996 98.96442450000002 16.880920000000003C99.04905450000003 17.189840000000004 99.15485250000002 17.44586000000001 99.28180750000003 17.648989999999998C99.41299050000002 17.85211000000001 99.56110250000003 18.025620000000004 99.72614350000003 18.1695C99.89541150000004 18.309140000000014 100.06045050000003 18.410709999999995 100.22126050000003 18.47417999999999C100.38206450000003 18.537679999999995 100.53864050000003 18.569379999999995 100.69099050000003 18.569379999999995C101.04222050000003 18.569379999999995 101.34268050000003 18.512280000000004 101.59235050000002 18.397989999999993C101.84202050000002 18.279499999999985 102.08323050000003 18.0933 102.31599050000003 17.839399999999983 " id="path4717"></path><path d="M105.1503905 15.344760000000008L107.5371105 15.344760000000008C107.6598305 15.344760000000008 107.72119049999999 15.285560000000004 107.72119049999999 15.167020000000008C107.72119049999999 14.908890000000014 107.68729049999999 14.686720000000008 107.61963049999999 14.500519999999995C107.55613049999998 14.314329999999984 107.46728049999999 14.174679999999995 107.35303049999999 14.08157C107.2430005 13.98427000000001 107.12874049999999 13.916539999999998 107.01025049999998 13.878449999999987C106.89599049999998 13.836149999999975 106.77327049999998 13.814949999999982 106.64209049999998 13.814949999999982C106.55749049999999 13.814959999999985 106.47282049999998 13.820949999999982 106.38818049999998 13.83404999999999C106.30778049999998 13.84205 106.19775049999997 13.876350000000002 106.05811049999997 13.935609999999997C105.91845049999996 13.990610000000004 105.79362049999997 14.068909999999988 105.68359049999997 14.170469999999995C105.57780049999997 14.272040000000004 105.47200049999996 14.424379999999985 105.36621049999997 14.627499999999998C105.26465049999996 14.830629999999985 105.19271049999996 15.069729999999993 105.15039049999997 15.344789999999989M108.57812049999997 17.83941999999999C108.71354049999997 17.852119999999985 108.80029049999997 17.92192 108.83838049999997 18.04889C108.58024049999997 18.404359999999997 108.26285049999997 18.68576999999999 107.88623049999997 18.893130000000014C107.50960049999996 19.100480000000005 107.09489049999996 19.20416 106.64209049999997 19.20416C105.79573049999996 19.20416 105.15462049999996 18.950260000000014 104.71875049999997 18.442440000000005C104.28711049999997 17.93463 104.07129049999998 17.282939999999996 104.07129049999998 16.48737C104.07129049999998 16.013409999999993 104.14749049999998 15.575420000000008 104.29980049999998 15.173399999999987C104.45215049999997 14.771389999999997 104.65104049999998 14.441309999999987 104.89648049999998 14.18316999999999C105.14193049999999 13.925029999999992 105.41487049999998 13.726139999999987 105.71533049999998 13.586489999999998C106.02002049999997 13.442610000000002 106.32894049999997 13.37066999999999 106.64209049999998 13.37066999999999C106.97216049999999 13.37066999999999 107.26416049999997 13.415069999999986 107.51807049999998 13.503969999999981C107.77197049999998 13.592869999999976 107.97509049999998 13.709209999999985 108.12744049999998 13.85308999999998C108.28401049999998 13.99273999999997 108.41096049999997 14.164129999999972 108.50830049999998 14.367249999999984C108.60560049999998 14.570379999999972 108.67122049999998 14.773499999999984 108.70508049999998 14.976619999999997C108.74318049999998 15.179749999999984 108.76218049999999 15.397689999999983 108.76218049999999 15.63042999999999C108.76217049999998 15.778549999999996 108.68388049999999 15.852599999999995 108.52731049999998 15.852599999999995L105.10593049999999 15.852599999999995C105.10593049999999 16.224999999999994 105.14613049999998 16.567769999999996 105.22653049999998 16.880920000000003C105.31113049999998 17.189840000000004 105.41696049999999 17.44586000000001 105.54391049999998 17.648989999999998C105.67510049999999 17.85211000000001 105.82321049999999 18.025620000000004 105.98825049999998 18.1695C106.15752049999998 18.309140000000014 106.32256049999998 18.410709999999995 106.48337049999998 18.47417999999999C106.64417049999997 18.537679999999995 106.80075049999998 18.569379999999995 106.95309049999997 18.569379999999995C107.30433049999998 18.569379999999995 107.60478049999998 18.512280000000004 107.85446049999997 18.397989999999993C108.10413049999997 18.279499999999985 108.34534049999998 18.0933 108.57809049999997 17.839399999999983 " id="path4719"></path><path d="M114.3197205 17.85208L114.3197205 14.589390000000009C114.1546805 14.331250000000011 113.9748305 14.14082000000002 113.7801705 14.018100000000004C113.5855105 13.89115000000001 113.3421805 13.827670000000012 113.0501905 13.827670000000012C112.5296805 13.827670000000012 112.1255505 14.04349000000002 111.8377905 14.475130000000007C111.5965805 14.822140000000019 111.4759705 15.397660000000002 111.4759705 16.201690000000013C111.4759705 16.96341000000001 111.6156205 17.553740000000005 111.8949205 17.97269C112.1784505 18.387400000000014 112.5106405 18.594760000000008 112.89150049999999 18.594760000000008C113.23004049999999 18.594760000000008 113.7061105 18.347200000000015 114.31972049999999 17.85208M115.2972605 11.498079999999987L115.2972605 17.56644C115.2972605 17.888049999999993 115.3162605 18.09118000000001 115.3543605 18.175810000000013C115.3924605 18.260410000000007 115.48131049999999 18.309110000000004 115.6209605 18.32181L116.2493805 18.385310000000004L116.2874805 18.689989999999995C115.4453505 18.83811 114.8909905 19.020070000000004 114.6243905 19.235889999999984L114.31970050000001 19.235889999999984L114.35140050000001 18.321829999999977L114.31970050000001 18.309129999999982C113.58337050000002 18.905809999999974 112.99516050000001 19.20414999999997 112.55506050000001 19.20414999999997C111.8695105 19.20414999999997 111.3341905 18.948129999999964 110.94910050000001 18.43608999999998C110.56401050000001 17.92403999999999 110.37146050000001 17.257539999999977 110.37146050000001 16.43656999999999C110.37146050000001 15.492889999999989 110.66134050000001 14.731179999999995 111.24109050000001 14.151420000000002C111.51615050000001 13.889049999999997 111.80603050000002 13.694389999999999 112.11072050000001 13.567430000000002C112.41964050000001 13.436260000000004 112.77934050000002 13.370660000000015 113.18982050000001 13.370660000000015C113.3337005 13.370660000000015 113.52201050000001 13.398160000000018 113.7547605 13.453160000000025C113.9917405 13.508160000000032 114.18005050000001 13.575880000000012 114.31970050000001 13.656280000000038L114.31970050000001 11.75833000000003C114.31970050000001 11.35632000000004 114.29010050000001 11.087600000000037 114.23080050000002 10.952180000000027C114.17150050000002 10.812540000000013 114.07210050000002 10.74272000000002 113.93246050000002 10.742710000000017L113.51351050000002 10.717310000000026C113.46271050000003 10.71732000000003 113.43731050000002 10.696110000000033 113.43731050000002 10.653810000000021L113.41191050000002 10.34277000000003C113.68274050000002 10.321570000000037 114.00224050000001 10.27717000000004 114.37041050000002 10.209470000000039C114.73857050000002 10.13757000000004 115.00517050000002 10.067720000000037 115.17021050000002 10.000000000000028C115.28023050000003 10.000010000000032 115.33524050000003 10.044400000000024 115.33525050000003 10.13330000000002C115.30985050000002 10.480320000000006 115.29715050000003 10.935230000000018 115.29715050000003 11.498050000000006 " id="path4721"></path><path d="M118.3157205 12.10745C118.1930005 11.984739999999988 118.1316405 11.838740000000001 118.1316405 11.66946999999999C118.1316405 11.500199999999978 118.19304050000001 11.354209999999995 118.3157205 11.231479999999976C118.4384405 11.104529999999983 118.5844405 11.041059999999987 118.7537105 11.041049999999984C118.9229805 11.041059999999987 119.06897049999999 11.102449999999976 119.1917005 11.225129999999979C119.31865049999999 11.347859999999969 119.3821205 11.495969999999971 119.3821305 11.66946999999999C119.3821205 11.838740000000001 119.3186305 11.984739999999988 119.1917005 12.10745C119.06897049999999 12.23017999999999 118.9229805 12.291539999999998 118.7537105 12.291539999999998C118.5844405 12.291539999999998 118.4384405 12.230140000000006 118.3157205 12.10745M119.3567305 13.370640000000009C119.3271305 13.958860000000016 119.3123305 14.4709 119.3123305 14.906769999999995L119.3123305 18.14407C119.3123305 18.330270000000013 119.3525305 18.465689999999995 119.4329405 18.55032C119.5175405 18.630719999999997 119.6614505 18.681510000000003 119.8645805 18.702670000000012L120.1057905 18.728070000000002C120.1861905 18.740769999999998 120.2263905 18.77457000000001 120.2263905 18.82963000000001L120.2263905 19.07719L120.20099049999999 19.102589999999992C119.5069605 19.085640000000012 119.0435805 19.07718 118.8108405 19.07718C118.6034805 19.07718 118.1527905 19.08518000000001 117.45879049999999 19.10257999999999L117.43339049999999 19.07718L117.43339049999999 18.829620000000006C117.43339049999999 18.77462 117.46729049999999 18.74072000000001 117.53496049999998 18.72806L117.78252049999998 18.70266000000001C118.00257049999998 18.67306000000002 118.15068049999998 18.62016 118.22685049999997 18.54397C118.30305049999997 18.463570000000004 118.34111049999997 18.33026000000001 118.34111049999997 18.144059999999996L118.34111049999997 14.906759999999991C118.34111049999997 14.597849999999994 118.31781049999996 14.39049 118.27131049999997 14.284689999999983C118.22901049999997 14.174669999999992 118.15705049999997 14.113309999999984 118.05549049999998 14.100609999999989L117.49689049999998 14.043509999999998L117.47149049999997 13.732470000000006C118.34323049999998 13.601290000000006 118.95261049999998 13.467990000000015 119.29962049999997 13.332570000000004C119.33772049999997 13.332580000000007 119.35672049999998 13.34527 119.35672049999998 13.37066999999999 " id="path4723"></path><path d="M124.8761705 16.049350000000004L123.8478505 16.322300000000013C123.0099605 16.550820000000016 122.59102050000001 17.02689000000001 122.59102050000001 17.750520000000023C122.59102050000001 17.983270000000033 122.67562050000001 18.19697000000002 122.84492050000001 18.39163000000002C123.01419050000001 18.582060000000013 123.24906050000001 18.677280000000025 123.54951050000001 18.677280000000025C123.8457405 18.677280000000025 124.22659050000001 18.48896000000002 124.6920905 18.112340000000017C124.81481050000001 18.027740000000023 124.8761705 17.915560000000028 124.8761705 17.77591000000001L124.8761705 16.049350000000004M124.8761705 18.45510999999999L124.8507705 18.45510999999999L124.5905205 18.658230000000003C124.30276049999999 18.88252 124.06789049999999 19.02851000000001 123.8859305 19.096220000000017C123.7081905 19.168120000000016 123.4712105 19.20413000000002 123.1749905 19.20413000000002C122.6841105 19.20413000000002 122.29267050000001 19.09199000000001 122.0006805 18.867710000000017C121.7086805 18.64342000000002 121.5626905 18.287960000000027 121.5626905 17.801300000000026C121.5626905 17.36966000000004 121.7552305 16.988800000000026 122.1403205 16.658720000000017C122.5296505 16.324420000000003 123.0438105 16.07686000000001 123.6828105 15.916050000000013L124.7999905 15.643100000000004C124.8507905 15.626200000000011 124.8761905 15.575400000000002 124.8761905 15.490749999999991C124.8761905 15.207229999999981 124.8528905 14.959669999999988 124.8063905 14.748079999999987C124.75979050000001 14.53225999999998 124.70271050000001 14.362989999999996 124.6350005 14.240269999999981C124.5673005 14.117549999999994 124.48266050000001 14.020219999999995 124.3811005 13.94826999999998C124.2838005 13.87206999999998 124.1906605 13.821329999999989 124.1018005 13.79592999999997C124.0172005 13.77052999999998 123.9240605 13.757829999999984 123.82250049999999 13.757829999999984C123.54320049999998 13.757839999999987 123.29353049999999 13.808629999999994 123.07348049999999 13.910179999999997C122.85343049999999 14.011750000000006 122.74340049999999 14.15773999999999 122.74340049999999 14.34817000000001C122.74340049999999 14.466660000000019 122.75140049999999 14.551299999999998 122.7688005 14.602069999999998C122.7942005 14.657070000000004 122.8069005 14.735379999999992 122.8069005 14.836939999999998C122.8069005 14.938500000000005 122.7540005 15.035830000000004 122.6482105 15.128929999999997C122.54664050000001 15.22202999999999 122.40911050000001 15.268579999999986 122.2356105 15.268579999999986C121.9351505 15.268579999999986 121.7849305 15.116239999999976 121.7849305 14.81153999999998C121.7849305 14.58302999999998 121.8886005 14.356629999999967 122.0959605 14.132349999999974C122.3033205 13.90806999999998 122.5741505 13.726099999999974 122.9084605 13.586449999999985C123.2427705 13.44256999999999 123.5813105 13.370629999999977 123.9240905 13.370629999999977C124.13144050000001 13.370629999999977 124.31975050000001 13.38752999999997 124.48903050000001 13.421429999999987C124.66253050000002 13.455329999999975 124.8360305 13.52082999999999 125.00954050000001 13.618209999999976C125.18303050000002 13.711309999999969 125.32691050000001 13.836149999999975 125.44118050000002 13.992719999999963C125.55966050000002 14.149299999999954 125.65488050000002 14.362999999999971 125.72682050000002 14.63382999999996C125.80302050000002 14.900439999999946 125.84107050000001 15.211469999999963 125.84108050000002 15.56693999999996L125.84108050000002 17.502969999999948C125.84107050000001 17.625689999999935 125.84107050000001 17.725139999999953 125.84108050000002 17.801309999999944C125.84508050000002 17.873209999999943 125.85168050000001 17.95999999999995 125.86008050000002 18.061559999999957C125.87278050000002 18.158859999999947 125.88968050000003 18.237179999999967 125.91088050000002 18.29642999999996C125.93208050000001 18.351429999999965 125.95958050000002 18.40856999999997 125.99338050000001 18.467809999999957C126.03148050000001 18.52700999999996 126.08008050000001 18.569379999999967 126.13938050000002 18.594769999999954C126.20288050000002 18.620169999999945 126.27479050000001 18.63286999999994 126.35520050000001 18.63286999999994C126.44830050000002 18.63286999999994 126.5244605 18.615969999999948 126.58371050000001 18.58206999999993C126.64291050000001 18.548169999999942 126.6873905 18.51436999999993 126.71701050000001 18.480509999999924C126.74661050000002 18.446609999999936 126.76991050000001 18.429709999999915 126.78681050000002 18.429709999999915C126.81221050000002 18.429709999999915 126.84181050000002 18.450909999999908 126.87571050000001 18.49320999999992C126.91381050000001 18.53550999999993 126.93281050000002 18.577809999999914 126.93281050000002 18.620159999999913C126.93280050000001 18.637059999999906 126.91591050000001 18.666659999999922 126.88201050000002 18.70905999999991C126.84811050000002 18.75135999999992 126.79741050000003 18.800059999999917 126.72967050000003 18.85504999999992C126.66617050000002 18.910049999999927 126.59213050000002 18.965079999999915 126.50750050000002 19.020089999999925C126.42290050000003 19.070889999999935 126.32130050000002 19.113189999999918 126.20281050000003 19.14703999999992C126.08855050000003 19.185139999999905 125.97218050000002 19.20413999999991 125.85369050000003 19.20413999999991C125.34165050000003 19.20413999999991 125.01580050000003 18.9544699999999 124.87615050000002 18.45511999999991 " id="path4725"></path></g>
</svg>