<?xml version="1.0" encoding="UTF-8" standalone="no"?>
<svg
	xmlns="http://www.w3.org/2000/svg"
	xmlns:dc="http://purl.org/dc/elements/1.1/"
	xmlns:cc="http://creativecommons.org/ns#"
	xmlns:rdf="http://www.w3.org/1999/02/22-rdf-syntax-ns#"
	xmlns:svg="http://www.w3.org/2000/svg"
	xmlns:xlink="http://www.w3.org/1999/xlink"
	xmlns:sodipodi="http://sodipodi.sourceforge.net/DTD/sodipodi-0.dtd"
	xmlns:inkscape="http://www.inkscape.org/namespaces/inkscape"
	version="1.1"
	viewBox="0 0 151.51799261378363 30.088000000000022">
	<path transform="matrix(0.9801584,0,0,0.9801584,35.522203,-31.643509)" d="M18.674042613783623 16.90300000000002C18.531042613783622 17.956000000000017 18.492041613783623 17.969000000000023 17.63404261378362 18.00800000000001C17.543042613783623 18.086000000000013 17.491042613783623 18.35900000000001 17.55604261378362 18.437000000000012C18.16704161378362 18.424000000000007 18.557042613783622 18.411 18.947042613783623 18.411C19.337041613783622 18.411 19.92204261378362 18.424000000000007 20.36404261378362 18.437000000000012C20.455042613783622 18.35900000000001 20.50704261378362 18.086000000000013 20.442042613783624 18.00800000000001C19.571043613783623 17.969000000000023 19.54504261378362 17.917 19.67504261378362 16.838000000000022L20.377042613783622 11.365000000000009C20.468042613783624 10.663000000000011 20.572043613783624 10.481000000000023 21.46904261378362 10.429000000000002C21.560042613783622 10.351000000000028 21.612042613783622 10.078000000000003 21.54704261378362 10L19.84404261378362 10.02600000000001L15.775042613783622 16.61700000000002C15.697042613783623 16.747000000000014 15.645042613783623 16.799000000000007 15.619042613783623 16.799000000000007C15.580042613783622 16.799000000000007 15.580042613783622 16.747000000000014 15.54104261378362 16.630000000000024L14.202042613783622 10.02600000000001L12.317042613783624 10C12.226042613783623 10.078000000000003 12.174042613783623 10.351000000000028 12.23904261378362 10.429000000000002C13.123041613783624 10.481000000000023 13.20104261378362 10.507000000000005 12.915042613783623 11.482000000000028L11.303042613783624 16.838000000000022C11.08204261378362 17.618000000000023 10.86104161378362 17.943000000000012 10.10704261378362 18.00800000000001C10.016042613783625 18.086000000000013 9.964042613783619 18.35900000000001 10.029042613783623 18.437000000000012C10.41904161378362 18.424000000000007 10.83504261378362 18.411 11.147042613783618 18.411C11.459042613783623 18.411 11.979042613783623 18.424000000000007 12.369042613783623 18.437000000000012C12.46004261378362 18.35900000000001 12.51204261378362 18.086000000000013 12.447042613783623 18.00800000000001C11.602043613783621 17.943000000000012 11.602042613783624 17.553000000000026 11.836042613783622 16.812000000000012L13.370042613783621 11.599000000000018L13.39604261378362 11.599000000000018L14.735042613783623 18.346000000000004C14.735042613783623 18.450000000000017 14.82604261378362 18.489000000000004 14.904042613783623 18.489000000000004C14.982042613783623 18.489000000000004 15.034042613783622 18.450000000000017 15.112042613783622 18.346000000000004L19.415042613783623 11.469000000000023L19.441042613783623 11.469000000000023L18.674042613783623 16.90300000000002M22.827011613783622 14.745000000000005C23.373010613783624 13.27600000000001 24.30901161378362 13.15900000000002 24.621011613783622 13.15900000000002C25.11501061378362 13.15900000000002 25.648011613783623 13.432000000000016 25.427011613783623 14.524000000000001C25.401011613783623 14.64100000000002 25.336011613783622 14.706000000000017 25.19301161378362 14.706000000000017L22.827011613783622 14.745000000000005M25.752011613783623 17.202000000000027C25.16701161378362 17.696000000000026 24.75101061378362 17.904000000000025 23.997011613783624 17.904000000000025C23.529011613783624 17.904000000000025 23.03501161378362 17.631 22.76201161378362 16.968000000000018C22.593011613783624 16.539000000000016 22.554011613783622 15.941000000000003 22.71001161378362 15.187000000000012L26.15501161378362 15.213000000000022C26.311011613783624 15.213000000000022 26.415011613783623 15.13500000000002 26.45401161378362 14.992000000000019C26.662011613783623 13.900000000000006 26.506009613783622 12.730000000000018 24.69901161378362 12.730000000000018C23.568012613783623 12.730000000000018 21.89101061378362 13.809000000000026 21.488011613783623 15.785000000000025C21.345011613783623 16.513000000000005 21.38401161378362 17.215000000000003 21.72201161378362 17.709000000000003C22.06001061378362 18.229000000000013 22.606012613783623 18.541000000000025 23.54201161378362 18.541000000000025C24.530010613783624 18.541000000000025 25.32301161378362 18.086000000000013 25.973011613783623 17.410000000000025C25.96001161378362 17.28 25.895011613783623 17.215000000000003 25.752011613783623 17.202000000000027M26.892636613783623 17.332000000000022C26.82763661378362 17.618000000000023 26.970636613783622 17.826000000000022 27.191636613783622 18.03400000000002C27.438636613783622 18.268 28.036637613783622 18.541000000000025 28.998636613783624 18.541000000000025C30.22063561378362 18.541000000000025 31.520636613783623 17.995000000000005 31.754636613783624 16.864000000000004C31.910636613783623 16.084000000000003 31.338635613783623 15.551000000000016 30.389636613783622 15.42100000000002L30.40263661378362 15.356000000000023C31.15663561378362 15.187000000000012 31.871636613783622 14.75800000000001 32.01463661378362 14.030000000000001C32.17063661378362 13.27600000000001 31.637635613783623 12.704000000000008 30.32463661378362 12.704000000000008C29.609637613783622 12.704000000000008 28.933635613783622 12.990000000000009 28.257636613783625 13.068000000000012L27.659636613783622 14.615000000000009L27.98463661378362 14.667000000000002C28.361636613783624 13.913000000000011 29.076637613783625 13.107000000000028 30.10363661378362 13.107000000000028C30.805635613783622 13.107000000000028 31.104636613783622 13.562000000000012 30.98763661378362 14.134000000000015C30.870636613783624 14.706000000000017 30.46763561378362 15.265000000000015 29.62263661378362 15.265000000000015C29.38863661378362 15.265000000000015 29.07663661378362 15.200000000000017 28.842636613783622 15.200000000000017C28.738636613783623 15.200000000000017 28.58263661378362 15.265000000000015 28.543636613783622 15.473000000000013C28.504636613783624 15.681000000000012 28.64763661378362 15.733000000000004 28.751636613783624 15.733000000000004C28.985636613783623 15.733000000000004 29.258636613783622 15.668000000000006 29.55763661378362 15.668000000000006C30.63663561378362 15.668000000000006 30.805636613783623 16.331000000000017 30.688636613783622 16.90300000000002C30.532636613783623 17.670000000000016 29.960635613783623 18.138000000000005 29.063636613783622 18.138000000000005C28.374637613783623 18.138000000000005 28.03663661378362 17.787000000000006 27.867636613783624 17.358000000000004C27.78963661378362 17.137 27.69863661378362 16.942000000000007 27.386636613783622 16.942000000000007C27.165636613783622 16.942000000000007 26.93163661378362 17.124000000000024 26.892636613783623 17.332000000000022M31.715307613783622 20.075000000000017L32.05330761378362 20.088000000000022C32.26130761378362 19.607000000000028 32.83330861378362 18.411 33.925307713783624 18.411L36.03130771378362 18.411C37.11030661378362 18.411 37.25330771378362 19.555000000000007 37.25330771378362 20.075000000000017L37.57830771378362 20.075000000000017L37.85130771378362 18.333000000000027C37.89030771378362 18.15100000000001 37.81230751378362 18.112000000000023 37.57830771378362 18.060000000000002C37.37030791378362 18.021000000000015 37.09730781378362 17.904000000000025 37.18830771378362 17.423000000000002L37.916307713783624 13.822000000000003C37.99430761378362 13.380000000000024 38.150308213783624 13.27600000000001 38.63130771378362 13.211000000000013L38.852307713783624 13.185000000000002C38.89130771378362 13.185000000000002 38.95630771378362 13.146000000000015 38.96930771378362 13.094000000000023L39.02130771378362 12.834000000000003L39.00830771378362 12.808000000000021C39.00830771378362 12.808000000000021 38.05930731378362 12.834000000000003 37.63030771378362 12.834000000000003L35.160307713783624 12.834000000000003C34.93930791378362 12.834000000000003 33.925307713783624 12.808000000000021 33.925307713783624 12.808000000000021L33.88630771378362 12.834000000000003L33.821307713783625 13.120000000000005C33.821307713783625 13.172000000000025 33.84730781378362 13.185000000000002 33.89930771378362 13.185000000000002L34.25030771378362 13.211000000000013C34.69230731378362 13.25 34.718307713783624 13.51000000000002 34.69230771378362 13.666000000000025C34.38030801378362 15.213000000000022 33.89930721378362 16.396000000000015 33.44430761378362 17.501000000000005C33.30130761378362 17.852000000000004 32.91130761378362 18.021000000000015 32.56030761378362 18.060000000000002C32.37830761378362 18.086000000000013 32.20930761378362 18.112000000000023 32.144307613783624 18.346000000000004L31.715307613783622 20.075000000000017M33.83430771378362 17.74800000000002C33.88630771378362 17.527000000000015 34.38030851378362 16.630000000000024 35.160307713783624 13.666000000000025C35.17330771378362 13.614000000000004 35.29030801378362 13.328000000000003 35.589307713783626 13.328000000000003L36.51230771378362 13.328000000000003C36.99330721378362 13.328000000000003 36.99330761378362 13.523000000000025 36.90230771378362 13.965000000000003L36.25230771378362 17.267000000000024C36.16130781378362 17.696000000000026 36.08330721378362 17.904000000000025 35.602307713783624 17.904000000000025L34.05530771378362 17.904000000000025C33.92530781378362 17.904000000000025 33.80830771378362 17.89100000000002 33.83430771378362 17.74800000000002M39.79448071378362 12.808000000000021L39.78148071378362 12.834000000000003L39.716480713783625 13.120000000000005C39.716480713783625 13.15900000000002 39.71648081378362 13.185000000000002 39.768480713783624 13.185000000000002L40.14548071378362 13.211000000000013C40.483480413783624 13.237000000000023 40.62648061378362 13.315000000000026 40.53548071378362 13.77000000000001L39.69048071378362 17.436000000000007C39.57348081378362 17.89100000000002 39.46948031378362 18.00800000000001 39.01448071378362 18.03400000000002L38.61148071378362 18.060000000000002C38.55948081378362 18.073000000000008 38.533480713783625 18.086000000000013 38.52048071378362 18.125L38.46848071378362 18.411L38.481480713783625 18.437000000000012C38.481480713783625 18.437000000000012 39.313481113783624 18.411 39.70348071378362 18.411C40.09348031378362 18.411 40.73048071378362 18.437000000000012 40.73048071378362 18.437000000000012L40.756480713783624 18.411L40.808480713783624 18.138000000000005C40.82148071378362 18.086000000000013 40.79548071378362 18.073000000000008 40.74348071378362 18.060000000000002L40.53548071378362 18.03400000000002C40.145481113783624 17.995000000000005 40.067480813783625 17.86500000000001 40.158480713783625 17.436000000000007L41.01648071378362 13.666000000000025L41.04248071378362 13.666000000000025L42.05648071378362 18.333000000000027C42.082480713783625 18.424000000000007 42.12148081378362 18.463000000000022 42.17348071378362 18.463000000000022C42.25148061378362 18.463000000000022 42.32948081378362 18.424000000000007 42.381480713783624 18.333000000000027L45.384480713783624 13.445000000000022L45.39748071378362 13.445000000000022L44.59148073378362 17.423000000000002C44.48748084378362 17.89100000000002 44.43548028378362 17.969000000000023 43.98048073378362 18.03400000000002L43.79848073378362 18.060000000000002C43.75948077478362 18.073000000000008 43.733480722783625 18.086000000000013 43.720480735783624 18.138000000000005L43.668480735783625 18.411L43.68148073578362 18.437000000000012C43.68148073578362 18.437000000000012 44.39648112378362 18.411 44.786480713783625 18.411C45.17648031378362 18.411 46.30748071378362 18.437000000000012 46.30748071378362 18.437000000000012L46.320480713783624 18.411L46.372480713783624 18.138000000000005C46.38548071378362 18.099000000000018 46.359480713783626 18.073000000000008 46.30748071378362 18.060000000000002L45.93048071378362 18.03400000000002C45.41048121378362 18.00800000000001 45.39748081378362 17.86500000000001 45.48848071378362 17.423000000000002L46.216480713783625 13.77000000000001C46.32048061378362 13.289000000000016 46.359481213783624 13.25 46.853480713783625 13.211000000000013L47.21748071378362 13.185000000000002C47.26948071378362 13.185000000000002 47.308480713783624 13.15900000000002 47.308480713783624 13.120000000000005L47.37348071378362 12.834000000000003L47.347480713783625 12.808000000000021L45.34548071378362 12.834000000000003L42.68048071378362 17.241000000000014L41.79648071378362 12.834000000000003L39.79448071378362 12.808000000000021M49.567511213783625 10.936000000000007C49.50251131378362 11.274000000000001 49.72351151378362 11.547000000000025 50.061511213783625 11.547000000000025C50.39951091378362 11.547000000000025 50.72451131378362 11.274000000000001 50.78951121378362 10.936000000000007C50.85451111378362 10.598000000000013 50.64651091378362 10.312000000000012 50.308511213783625 10.312000000000012C49.97051151378362 10.312000000000012 49.63251111378362 10.598000000000013 49.567511213783625 10.936000000000007M51.76451121378362 10.936000000000007C51.699511313783624 11.274000000000001 51.92051151378362 11.547000000000025 52.25851121378362 11.547000000000025C52.59651091378362 11.547000000000025 52.921511313783625 11.274000000000001 52.98651121378362 10.936000000000007C53.05151111378362 10.598000000000013 52.84351091378362 10.312000000000012 52.50551121378362 10.312000000000012C52.16751151378362 10.312000000000012 51.829511113783624 10.598000000000013 51.76451121378362 10.936000000000007M47.56551121378362 15.74600000000001C47.30551151378362 17.072000000000003 47.90351301378362 18.541000000000025 49.73651121378362 18.541000000000025C51.673509313783626 18.541000000000025 52.81751151378362 16.929000000000002 53.07751121378362 15.629000000000019C53.35051091378362 14.277000000000015 52.94750921378362 12.704000000000008 50.93251121378362 12.704000000000008C49.177513013783624 12.704000000000008 47.89051091378362 14.095000000000027 47.56551121378362 15.74600000000001M50.69851121378362 13.13300000000001C51.81651011378362 13.13300000000001 52.25851081378362 14.134000000000015 51.86851121378362 16.045000000000016C51.53051151378362 17.761000000000024 50.67251061378362 18.112000000000023 50.061511213783625 18.112000000000023C48.70951261378362 18.112000000000023 48.54051141378362 16.448000000000008 48.74851121378362 15.447000000000003C48.969511013783624 14.316000000000003 49.606512313783625 13.13300000000001 50.69851121378362 13.13300000000001M54.52729161378362 12.808000000000021L54.51429161378362 12.834000000000003L54.44929161378362 13.120000000000005C54.44929161378362 13.15900000000002 54.44929161378362 13.185000000000002 54.50129161378362 13.185000000000002L54.878291613783624 13.211000000000013C55.216291613783625 13.237000000000023 55.359291613783626 13.315000000000026 55.268291613783624 13.77000000000001L54.42329161378362 17.436000000000007C54.30629161378362 17.89100000000002 54.20229161378362 18.00800000000001 53.747291613783624 18.03400000000002L53.34429171378362 18.060000000000002C53.29229171378362 18.073000000000008 53.26629171378362 18.086000000000013 53.253291713783625 18.125L53.20129171378362 18.411L53.21429171378362 18.437000000000012C53.21429171378362 18.437000000000012 54.04629161378362 18.411 54.436291613783624 18.411C54.826291613783624 18.411 55.463291613783625 18.437000000000012 55.463291613783625 18.437000000000012L55.48929161378362 18.411L55.54129161378362 18.138000000000005C55.55429161378362 18.086000000000013 55.52829161378362 18.073000000000008 55.47629161378362 18.060000000000002L55.268291613783624 18.03400000000002C54.878291613783624 17.995000000000005 54.80029161378362 17.86500000000001 54.89129161378362 17.436000000000007L55.749291613783626 13.666000000000025L55.77529161378362 13.666000000000025L56.78929161378362 18.333000000000027C56.81529161378362 18.424000000000007 56.85429161378362 18.463000000000022 56.90629161378362 18.463000000000022C56.984291613783626 18.463000000000022 57.06229161378362 18.424000000000007 57.11429161378362 18.333000000000027L60.11729161378362 13.445000000000022L60.130291613783626 13.445000000000022L59.32429161378362 17.423000000000002C59.22029161378362 17.89100000000002 59.16829161378362 17.969000000000023 58.713291613783625 18.03400000000002L58.53129161378362 18.060000000000002C58.49229161378362 18.073000000000008 58.466291613783625 18.086000000000013 58.45329161378362 18.138000000000005L58.40129161378362 18.411L58.41429161378362 18.437000000000012C58.41429161378362 18.437000000000012 59.12929161378362 18.411 59.51929161378362 18.411C59.90929161378362 18.411 61.04029161378362 18.437000000000012 61.04029161378362 18.437000000000012L61.05329161378362 18.411L61.10529161378362 18.138000000000005C61.118291613783626 18.099000000000018 61.09229161378362 18.073000000000008 61.04029161378362 18.060000000000002L60.66329161378362 18.03400000000002C60.14329261378362 18.00800000000001 60.130291613783626 17.86500000000001 60.22129161378362 17.423000000000002L60.94929161378362 13.77000000000001C61.05329161378362 13.289000000000016 61.09229261378363 13.25 61.58629161378362 13.211000000000013L61.95029161378362 13.185000000000002C62.002291613783626 13.185000000000002 62.04129161378362 13.15900000000002 62.04129161378362 13.120000000000005L62.106291613783625 12.834000000000003L62.08029161378362 12.808000000000021L60.07829161378362 12.834000000000003L57.41329161378362 17.241000000000014L56.52929161378362 12.834000000000003L54.52729161378362 12.808000000000021M63.94532561378362 17.345000000000027C63.81532561378362 18.03400000000002 64.63432661378363 18.541000000000025 65.81732561378362 18.541000000000025C67.10432361378362 18.541000000000025 68.58632561378363 17.631 69.00232561378363 15.538000000000011C69.31432461378363 13.965000000000003 68.83332361378362 12.704000000000008 67.10432561378363 12.704000000000008C66.49332561378363 12.704000000000008 65.92132461378363 12.912000000000006 65.27132561378362 12.951000000000022C65.12832561378363 13.445000000000022 64.98532461378362 13.887 64.72532561378362 14.511000000000024L65.03732561378362 14.563000000000017C65.42732461378363 13.731000000000023 65.96032661378362 13.107000000000028 66.92232561378363 13.107000000000028C68.07932361378363 13.107000000000028 68.23532461378362 14.225000000000023 68.00132561378362 15.42100000000002L67.96232561378362 15.447000000000003C67.66332561378363 15.239000000000004 67.33832461378363 15.083000000000027 66.96132561378363 15.083000000000027C66.40232561378362 15.083000000000027 65.98632461378362 15.447000000000003 65.53132561378362 15.447000000000003C65.36232561378363 15.447000000000003 65.21932561378362 15.369 65.12832561378363 15.369C65.05032561378363 15.369 64.99832561378362 15.499000000000024 64.98532561378363 15.551000000000016C64.94632561378361 15.733000000000004 65.50532561378363 15.967000000000013 66.06432561378362 15.967000000000013C66.64932461378362 15.967000000000013 66.93532561378362 15.681000000000012 67.42932561378362 15.681000000000012C67.59832461378362 15.681000000000012 67.75432561378362 15.733000000000004 67.89732561378362 15.798000000000002C67.58532561378362 17.345000000000027 66.85732461378362 18.112000000000023 65.76532561378363 18.112000000000023C65.24532561378362 18.112000000000023 64.94632561378361 17.80000000000001 64.86832561378363 17.449000000000012C64.75132561378362 17.04600000000002 64.62132461378363 16.968000000000018 64.40032561378362 16.968000000000018C64.16632561378363 16.968000000000018 63.99732561378362 17.137 63.94532561378362 17.345000000000027M73.86765261378362 17.410000000000025C73.77665261378363 17.904000000000025 73.68565261378362 18.00800000000001 73.21765261378363 18.03400000000002L72.86665261378363 18.060000000000002C72.82765261378363 18.073000000000008 72.80165261378363 18.086000000000013 72.78865261378363 18.125L72.73665261378362 18.411L72.74965261378362 18.437000000000012C73.13965261378362 18.424000000000007 73.68565261378362 18.411 74.15365261378362 18.411C74.63465261378363 18.411 75.10265261378362 18.424000000000007 75.49265261378362 18.437000000000012L75.51865261378362 18.411L75.57065261378362 18.138000000000005C75.58365261378363 18.086000000000013 75.55765261378362 18.073000000000008 75.50565261378362 18.060000000000002L75.25865261378362 18.03400000000002C74.81665261378362 17.995000000000005 74.73865261378361 17.930000000000007 74.84265261378363 17.410000000000025L75.57065261378362 13.822000000000003C75.67465261378362 13.289000000000016 75.76565261378363 13.263000000000005 76.22065261378361 13.211000000000013L76.48065261378362 13.185000000000002C76.53265261378363 13.185000000000002 76.57165261378361 13.15900000000002 76.58465261378362 13.107000000000028L76.63665261378362 12.834000000000003L76.62365261378362 12.808000000000021C76.23365261378362 12.821000000000026 75.75265261378362 12.834000000000003 75.27165261378363 12.834000000000003C74.80365261378363 12.834000000000003 74.27065261378362 12.821000000000026 73.88065261378362 12.808000000000021L73.85465261378363 12.834000000000003L73.78965261378363 13.120000000000005C73.78965261378363 13.172000000000025 73.80265261378362 13.185000000000002 73.84165261378362 13.185000000000002L74.17965261378362 13.211000000000013C74.58265261378362 13.25 74.68665261378362 13.328000000000003 74.59565261378361 13.822000000000003L74.30965261378363 15.213000000000022L71.64465261378362 15.213000000000022L71.93065261378362 13.822000000000003C72.03465261378362 13.289000000000016 72.12565261378361 13.263000000000005 72.58065261378363 13.211000000000013L72.84065261378362 13.185000000000002C72.89265261378362 13.185000000000002 72.93165261378363 13.15900000000002 72.94465261378362 13.107000000000028L72.99665261378362 12.834000000000003L72.98365261378362 12.808000000000021C72.59365261378362 12.821000000000026 72.09965261378362 12.834000000000003 71.61865261378362 12.834000000000003C71.15065261378362 12.834000000000003 70.63065261378362 12.821000000000026 70.24065261378362 12.808000000000021L70.21465261378361 12.834000000000003L70.14965261378362 13.120000000000005C70.14965261378362 13.172000000000025 70.16265261378362 13.185000000000002 70.20165261378362 13.185000000000002L70.53965261378363 13.211000000000013C70.94265261378362 13.25 71.04665261378362 13.328000000000003 70.95565261378363 13.822000000000003L70.22765261378362 17.410000000000025C70.13665261378362 17.904000000000025 70.04565261378363 18.00800000000001 69.57765261378363 18.03400000000002L69.22665261378361 18.060000000000002C69.18765261378363 18.073000000000008 69.16165261378362 18.086000000000013 69.14865261378363 18.125L69.09665261378362 18.411L69.10965261378362 18.437000000000012C69.49965261378362 18.424000000000007 70.03265261378363 18.411 70.50065261378361 18.411C70.98165261378362 18.411 71.46265261378362 18.424000000000007 71.85265261378362 18.437000000000012L71.87865261378363 18.411L71.93065261378362 18.138000000000005C71.94365261378363 18.086000000000013 71.91765261378362 18.073000000000008 71.86565261378362 18.060000000000002L71.61865261378362 18.03400000000002C71.17665261378363 17.995000000000005 71.09865261378363 17.930000000000007 71.20265261378363 17.410000000000025L71.55365261378363 15.655000000000001L74.21865261378362 15.655000000000001L73.86765261378362 17.410000000000025M81.52797961378363 13.835000000000008L80.85197961378361 17.267000000000024C80.76097961378363 17.709000000000003 80.68297961378363 17.904000000000025 80.20197961378362 17.904000000000025L78.64197961378362 17.904000000000025C78.18698061378362 17.904000000000025 78.14797961378362 17.74800000000002 78.25197961378362 17.267000000000024L78.94097961378363 13.822000000000003C79.04497961378362 13.289000000000016 79.12298061378362 13.263000000000005 79.57797961378361 13.211000000000013L79.85097961378362 13.185000000000002C79.90297961378363 13.185000000000002 79.94197961378362 13.15900000000002 79.95497961378362 13.107000000000028L80.00697961378361 12.834000000000003L79.98097961378363 12.808000000000021C79.98097961378363 12.808000000000021 79.14897961378362 12.834000000000003 78.62897961378363 12.834000000000003C78.08298061378362 12.834000000000003 77.23797961378362 12.808000000000021 77.23797961378362 12.808000000000021L77.22497961378363 12.834000000000003L77.15997961378362 13.120000000000005C77.15997961378362 13.172000000000025 77.17297961378362 13.185000000000002 77.22497961378363 13.185000000000002L77.56297961378363 13.211000000000013C77.99197961378363 13.25 78.05697961378362 13.328000000000003 77.96597961378362 13.822000000000003L77.23797961378362 17.462000000000018C77.13397961378362 17.969000000000023 77.05597961378362 17.982000000000028 76.60097961378362 18.03400000000002L76.36697961378363 18.060000000000002C76.32797961378361 18.073000000000008 76.30197961378363 18.086000000000013 76.28897961378362 18.138000000000005L76.23697961378363 18.411L76.26297961378361 18.437000000000012C76.26297961378361 18.437000000000012 77.08198061378363 18.411 77.47197961378362 18.411L80.63097961378362 18.411C81.65797861378363 18.411 81.83997961378361 19.451000000000022 81.85297961378362 20.088000000000022L82.17797961378362 20.075000000000017L82.45097961378363 18.346000000000004C82.47697961378361 18.125 82.34697961378362 18.099000000000018 82.12597961378361 18.060000000000002C81.90498061378362 18.021000000000015 81.70997961378362 17.813000000000017 81.78797961378362 17.423000000000002L82.50297961378362 13.835000000000008C82.61997961378361 13.302000000000021 82.71098061378362 13.25 83.16597961378362 13.211000000000013L83.49097961378362 13.185000000000002C83.54297961378361 13.185000000000002 83.58197961378363 13.15900000000002 83.58197961378363 13.120000000000005L83.64697961378363 12.834000000000003L83.62097961378362 12.808000000000021C83.62097961378362 12.808000000000021 82.76297961378361 12.834000000000003 82.21697961378362 12.834000000000003C81.69698061378362 12.834000000000003 80.89097961378363 12.808000000000021 80.89097961378363 12.808000000000021L80.87797961378362 12.834000000000003L80.81297961378363 13.120000000000005C80.81297961378363 13.172000000000025 80.82597961378363 13.185000000000002 80.86497961378362 13.185000000000002L81.13797961378361 13.211000000000013C81.56697961378362 13.263000000000005 81.63197961378361 13.328000000000003 81.52797961378363 13.835000000000008M85.70552961378363 12.834000000000003C85.14653061378363 12.834000000000003 84.28852961378362 12.808000000000021 84.28852961378362 12.808000000000021L84.24952961378362 12.834000000000003L84.18452961378362 13.120000000000005C84.18452961378362 13.172000000000025 84.19752961378362 13.185000000000002 84.24952961378362 13.185000000000002L84.63952961378362 13.211000000000013C85.10752961378361 13.25 85.13352961378362 13.354000000000013 85.01652961378363 13.900000000000006L84.31452961378362 17.410000000000025C84.22352961378363 17.86500000000001 84.15852961378363 18.00800000000001 83.67752961378362 18.03400000000002L83.26152961378362 18.060000000000002C83.22252961378362 18.073000000000008 83.19652961378362 18.086000000000013 83.18352961378362 18.125L83.13152961378361 18.411L83.14452961378362 18.437000000000012C83.66452961378363 18.424000000000007 84.02853061378363 18.411 84.58752961378363 18.411C85.00352961378363 18.411 85.12053061378361 18.424000000000007 85.64052961378363 18.437000000000012L85.65352961378363 18.411L85.70552961378363 18.138000000000005C85.71852961378363 18.086000000000013 85.69252961378362 18.073000000000008 85.64052961378363 18.060000000000002C85.21153061378362 18.021000000000015 85.19852961378362 17.878000000000014 85.26352961378362 17.566000000000003L85.26352961378362 17.54000000000002L88.59152961378362 14.316000000000003L87.98052961378363 17.384000000000015C87.88952961378362 17.839000000000027 87.79852961378361 18.00800000000001 87.31752961378362 18.03400000000002L86.90152961378362 18.060000000000002C86.86252961378362 18.073000000000008 86.83652961378363 18.086000000000013 86.82352961378362 18.125L86.77152961378363 18.411L86.79752961378362 18.437000000000012C87.31752961378362 18.424000000000007 87.66853061378362 18.411 88.22752961378362 18.411C88.81252961378362 18.411 89.20253061378362 18.424000000000007 89.72252961378362 18.437000000000012L89.73552961378363 18.411L89.78752961378362 18.138000000000005C89.80052961378362 18.086000000000013 89.77452961378361 18.073000000000008 89.72252961378362 18.060000000000002L89.34552961378361 18.03400000000002C88.89053061378362 18.00800000000001 88.85152961378361 17.86500000000001 88.95552961378363 17.384000000000015L89.65752961378362 13.887C89.76152961378362 13.341000000000008 89.81353061378363 13.25 90.30752961378363 13.211000000000013L90.69752961378362 13.185000000000002C90.74952961378362 13.185000000000002 90.78852961378362 13.15900000000002 90.80152961378363 13.107000000000028L90.85352961378362 12.834000000000003L90.84052961378362 12.808000000000021C90.84052961378362 12.808000000000021 89.93052961378362 12.834000000000003 89.34552961378361 12.834000000000003C88.98153061378362 12.834000000000003 88.39652961378363 12.808000000000021 88.39652961378363 12.808000000000021L88.37052961378362 12.834000000000003L88.30552961378362 13.120000000000005C88.30552961378362 13.172000000000025 88.31852961378362 13.185000000000002 88.35752961378361 13.185000000000002C88.79952961378362 13.224000000000018 88.76052961378363 13.445000000000022 88.70852961378363 13.757000000000005L85.38052961378362 16.981000000000023L86.00452961378363 13.887C86.10852961378362 13.354000000000013 86.16053061378362 13.25 86.66752961378361 13.211000000000013L87.05752961378363 13.185000000000002C87.10952961378362 13.185000000000002 87.14852961378362 13.15900000000002 87.16152961378361 13.107000000000028L87.21352961378362 12.834000000000003L87.18752961378362 12.808000000000021C87.18752961378362 12.808000000000021 86.27752961378363 12.834000000000003 85.70552961378363 12.834000000000003M90.42175961378362 18.411L90.44775961378363 18.437000000000012C90.44775961378363 18.437000000000012 91.33176061378362 18.411 91.78675961378363 18.411C92.29375961378362 18.411 93.04775961378363 18.437000000000012 93.04775961378363 18.437000000000012L93.07375961378362 18.411L93.12575961378363 18.164000000000016C93.13875961378362 18.099000000000018 93.08675961378361 18.073000000000008 93.03475961378362 18.060000000000002C92.76175961378362 18.021000000000015 92.38475961378361 17.943000000000012 92.47575961378362 17.51400000000001L92.83975961378363 15.694000000000017C93.80175861378362 15.759000000000015 93.99675961378362 16.227000000000004 94.10075961378362 16.942000000000007C94.17875961378363 17.51400000000001 94.39976061378363 18.411 95.04975961378362 18.424000000000007L95.98575961378361 18.437000000000012L96.02475961378363 18.411L96.07675961378362 18.17700000000002C96.08975961378363 18.086000000000013 95.99875961378362 18.060000000000002 95.94675961378363 18.060000000000002L95.85575961378362 18.047000000000025C95.40076061378363 17.982000000000028 95.08875961378362 16.851000000000028 94.98475961378362 16.357000000000028C94.84175961378362 15.720000000000027 94.42575861378361 15.434000000000026 93.72375961378361 15.434000000000026L93.73675961378362 15.382000000000005C94.24375961378362 15.239000000000004 94.63375961378362 14.797000000000025 94.93275961378362 14.277000000000015C95.15375961378362 13.874000000000024 95.45275961378363 13.588000000000022 95.58275961378362 13.588000000000022C95.69975961378361 13.588000000000022 95.79075961378362 13.62700000000001 95.85575961378362 13.679000000000002C95.93375961378362 13.744 96.03775961378362 13.79600000000002 96.19375961378361 13.79600000000002C96.46675961378362 13.79600000000002 96.73975961378362 13.562000000000012 96.79175961378363 13.302000000000021C96.84375961378362 12.990000000000009 96.76575961378362 12.717000000000013 96.23275961378363 12.717000000000013C95.60876061378363 12.717000000000013 95.04975961378362 13.419000000000011 94.68575961378363 14.030000000000001C94.25676061378363 14.745000000000005 93.80175861378362 15.239000000000004 92.93075961378362 15.239000000000004L93.22975961378361 13.757000000000005C93.32075961378362 13.289000000000016 93.60675961378362 13.224000000000018 93.98375961378362 13.185000000000002C94.03575961378363 13.185000000000002 94.10075961378362 13.120000000000005 94.11375961378363 13.055000000000007L94.16575961378362 12.834000000000003L94.13975961378362 12.808000000000021C94.13975961378362 12.808000000000021 93.41175961378363 12.834000000000003 92.90475961378363 12.834000000000003C92.44976061378362 12.834000000000003 91.56575961378363 12.808000000000021 91.56575961378363 12.808000000000021L91.53975961378362 12.834000000000003L91.48775961378362 13.081000000000017C91.47475961378362 13.146000000000015 91.51375961378362 13.172000000000025 91.56575961378363 13.185000000000002L91.81275961378361 13.211000000000013C92.21575961378363 13.25 92.31975961378362 13.419000000000011 92.24175961378361 13.783000000000015L91.50075961378363 17.488C91.43575961378363 17.852000000000004 91.31875961378361 17.982000000000028 90.85075961378362 18.03400000000002L90.59075961378363 18.060000000000002C90.52575961378362 18.073000000000008 90.48675961378362 18.099000000000018 90.47375961378361 18.164000000000016L90.42175961378362 18.411M96.17007561378362 17.813000000000017C96.09207561378362 18.216000000000008 96.36507561378363 18.567000000000007 96.93707561378362 18.567000000000007C97.56107461378363 18.567000000000007 97.97707561378363 18.24200000000002 98.40607561378363 17.527000000000015C98.77007461378362 16.90300000000002 99.10807561378363 15.577000000000027 99.27707561378362 14.693000000000012C99.48507461378362 13.679000000000002 99.58907561378362 13.341000000000008 100.08307561378362 13.341000000000008L100.66807561378363 13.341000000000008C101.13607461378362 13.341000000000008 101.14907561378362 13.523000000000025 101.05807561378361 13.965000000000003L100.36907561378362 17.449000000000012C100.29107561378362 17.826000000000022 100.16107461378363 17.982000000000028 99.69307561378362 18.03400000000002L99.43307561378361 18.060000000000002C99.36807561378362 18.073000000000008 99.32907561378363 18.099000000000018 99.31607561378362 18.164000000000016L99.26407561378363 18.411L99.29007561378361 18.437000000000012C99.29007561378361 18.437000000000012 100.17407561378363 18.411 100.64207561378362 18.411C101.14907461378363 18.411 102.03307561378362 18.437000000000012 102.03307561378362 18.437000000000012L102.05907561378362 18.411L102.11107561378361 18.164000000000016C102.12407561378362 18.099000000000018 102.07207561378362 18.060000000000002 102.02007561378363 18.060000000000002L101.78607561378362 18.03400000000002C101.37007561378363 17.995000000000005 101.26607561378361 17.826000000000022 101.34407561378362 17.449000000000012L102.07207561378362 13.822000000000003C102.16307561378362 13.328000000000003 102.21507561378363 13.25 102.72207561378363 13.211000000000013L103.08607561378362 13.185000000000002C103.16407561378362 13.185000000000002 103.20307561378362 13.15900000000002 103.21607561378363 13.094000000000023L103.26807561378362 12.834000000000003L103.22907561378362 12.808000000000021C103.22907561378362 12.808000000000021 102.34507461378362 12.834000000000003 101.78607561378362 12.834000000000003L99.52407561378362 12.834000000000003C99.00407561378361 12.834000000000003 98.18507561378362 12.808000000000021 98.18507561378362 12.808000000000021L98.14607561378362 12.834000000000003L98.10707561378362 13.042000000000002C98.08107561378363 13.15900000000002 98.13307561378363 13.172000000000025 98.34107561378363 13.185000000000002C99.06907461378361 13.237000000000023 99.06907461378361 13.419000000000011 98.79607561378361 14.78400000000002C98.52307561378362 16.149 98.27607461378362 16.864000000000004 98.00307561378362 17.39700000000002C97.74307561378362 17.86500000000001 97.50907461378362 18.03400000000002 97.30107561378362 18.03400000000002C97.14507561378363 18.03400000000002 97.10607561378362 17.930000000000007 97.11907561378362 17.761000000000024C97.13207561378363 17.527000000000015 97.11907461378362 17.267000000000024 96.76807561378362 17.267000000000024C96.45607561378363 17.267000000000024 96.23507561378362 17.527000000000015 96.17007561378362 17.813000000000017M103.39246161378362 15.74600000000001C103.13246161378362 17.072000000000003 103.73046361378363 18.541000000000025 105.56346161378363 18.541000000000025C107.50045961378362 18.541000000000025 108.64446161378362 16.929000000000002 108.90446161378361 15.629000000000019C109.17746061378361 14.277000000000015 108.77445961378362 12.704000000000008 106.75946161378363 12.704000000000008C105.00446261378363 12.704000000000008 103.71746061378363 14.095000000000027 103.39246161378362 15.74600000000001M106.52546161378362 13.13300000000001C107.64346061378362 13.13300000000001 108.08546061378362 14.134000000000015 107.69546161378364 16.045000000000016C107.35746161378361 17.761000000000024 106.49946061378361 18.112000000000023 105.88846161378362 18.112000000000023C104.53646261378361 18.112000000000023 104.36746161378363 16.448000000000008 104.57546161378363 15.447000000000003C104.79646061378362 14.316000000000003 105.43346261378363 13.13300000000001 106.52546161378362 13.13300000000001M110.96524561378362 13.848000000000013L110.25024561378362 17.423000000000002C110.15924561378361 17.878000000000014 110.05524561378363 18.00800000000001 109.60024561378361 18.03400000000002L109.19724561378362 18.060000000000002C109.14524561378363 18.073000000000008 109.11924561378362 18.086000000000013 109.10624561378361 18.125L109.05424561378362 18.411L109.08024561378363 18.437000000000012C109.08024561378363 18.437000000000012 109.96424661378362 18.411 110.53624561378362 18.411C111.08224461378362 18.411 111.95324561378362 18.437000000000012 111.95324561378362 18.437000000000012L111.96624561378363 18.411L112.01824561378362 18.138000000000005C112.03124561378363 18.086000000000013 112.00524561378361 18.073000000000008 111.96624561378363 18.060000000000002L111.62824561378363 18.03400000000002C111.18624561378363 18.00800000000001 111.13424561378363 17.917 111.22524561378361 17.423000000000002L111.94024561378362 13.848000000000013C112.03124561378363 13.393 112.30424561378362 13.341000000000008 112.57724561378362 13.341000000000008L114.15024561378362 13.341000000000008C114.41024561378362 13.341000000000008 114.68324561378361 13.367000000000019 114.57924561378363 13.848000000000013L113.86424561378362 17.423000000000002C113.77324561378362 17.878000000000014 113.66924561378363 18.00800000000001 113.21424561378362 18.03400000000002L112.85024561378361 18.060000000000002C112.81124561378363 18.073000000000008 112.78524561378362 18.086000000000013 112.77224561378361 18.125L112.72024561378362 18.411L112.73324561378362 18.437000000000012C112.73324561378362 18.437000000000012 113.60424661378363 18.411 114.16324561378363 18.411C114.72224461378363 18.411 115.61924561378362 18.437000000000012 115.61924561378362 18.437000000000012L115.63224561378362 18.411L115.68424561378362 18.138000000000005C115.69724561378362 18.086000000000013 115.67124561378361 18.073000000000008 115.61924561378362 18.060000000000002L115.24224561378361 18.03400000000002C114.78724561378363 18.00800000000001 114.73524561378363 17.917 114.82624561378361 17.423000000000002L115.54124561378362 13.835000000000008C115.65824561378363 13.302000000000021 115.69724561378362 13.25 116.20424561378363 13.211000000000013L116.59424561378361 13.185000000000002C116.64624561378363 13.185000000000002 116.68524561378362 13.15900000000002 116.69824561378363 13.107000000000028L116.75024561378362 12.834000000000003L116.73724561378361 12.808000000000021C116.73724561378361 12.808000000000021 115.82724461378362 12.834000000000003 115.24224561378361 12.834000000000003L111.64124561378361 12.834000000000003C111.08224661378361 12.834000000000003 110.21124561378363 12.808000000000021 110.21124561378363 12.808000000000021L110.18524561378362 12.834000000000003L110.12024561378362 13.120000000000005C110.12024561378362 13.172000000000025 110.13324561378363 13.185000000000002 110.17224561378362 13.185000000000002L110.56224561378363 13.211000000000013C111.00424561378361 13.25 111.08224561378361 13.302000000000021 110.96524561378362 13.848000000000013M118.15513961378363 14.745000000000005C118.70113861378363 13.27600000000001 119.63713961378363 13.15900000000002 119.94913961378361 13.15900000000002C120.44313861378362 13.15900000000002 120.97613861378363 13.432000000000016 120.75513961378363 14.524000000000001C120.72913961378362 14.64100000000002 120.66413961378362 14.706000000000017 120.52113961378362 14.706000000000017L118.15513961378363 14.745000000000005M121.08013961378362 17.202000000000027C120.49513961378364 17.696000000000026 120.07913861378361 17.904000000000025 119.32513961378362 17.904000000000025C118.85713961378363 17.904000000000025 118.36313861378363 17.631 118.09013961378363 16.968000000000018C117.92113961378362 16.539000000000016 117.88213961378364 15.941000000000003 118.03813961378361 15.187000000000012L121.48313961378364 15.213000000000022C121.63913961378361 15.213000000000022 121.74313961378363 15.13500000000002 121.78213961378361 14.992000000000019C121.99013861378361 13.900000000000006 121.83413761378361 12.730000000000018 120.02713961378362 12.730000000000018C118.89614061378361 12.730000000000018 117.21913861378363 13.809000000000026 116.81613961378363 15.785000000000025C116.67313961378363 16.513000000000005 116.71213961378362 17.215000000000003 117.05013961378361 17.709000000000003C117.38813861378361 18.229000000000013 117.93414061378363 18.541000000000025 118.87013961378364 18.541000000000025C119.85813861378361 18.541000000000025 120.65113961378361 18.086000000000013 121.30113961378362 17.410000000000025C121.28813961378361 17.28 121.22313961378362 17.215000000000003 121.08013961378362 17.202000000000027M121.40358761378363 20.075000000000017L121.74158761378362 20.088000000000022C121.94958761378362 19.607000000000028 122.52158861378362 18.411 123.61358761378364 18.411L125.71958761378363 18.411C126.79858661378361 18.411 126.94158761378361 19.555000000000007 126.94158761378361 20.075000000000017L127.26658761378363 20.075000000000017L127.53958761378362 18.333000000000027C127.57858761378361 18.15100000000001 127.50058761378361 18.112000000000023 127.26658761378363 18.060000000000002C127.05858761378363 18.021000000000015 126.78558761378363 17.904000000000025 126.87658761378361 17.423000000000002L127.60458761378362 13.822000000000003C127.68258761378362 13.380000000000024 127.83858861378363 13.27600000000001 128.31958761378363 13.211000000000013L128.54058761378363 13.185000000000002C128.57958761378362 13.185000000000002 128.6445876137836 13.146000000000015 128.65758761378362 13.094000000000023L128.7095876137836 12.834000000000003L128.69658761378363 12.808000000000021C128.69658761378363 12.808000000000021 127.74758761378362 12.834000000000003 127.31858761378362 12.834000000000003L124.84858761378362 12.834000000000003C124.62758761378362 12.834000000000003 123.61358761378364 12.808000000000021 123.61358761378364 12.808000000000021L123.57458761378362 12.834000000000003L123.50958761378362 13.120000000000005C123.50958761378362 13.172000000000025 123.53558761378363 13.185000000000002 123.58758761378363 13.185000000000002L123.93858761378362 13.211000000000013C124.38058761378363 13.25 124.40658761378361 13.51000000000002 124.38058761378363 13.666000000000025C124.06858861378362 15.213000000000022 123.58758761378363 16.396000000000015 123.13258761378361 17.501000000000005C122.98958761378361 17.852000000000004 122.59958761378363 18.021000000000015 122.24858761378363 18.060000000000002C122.06658761378361 18.086000000000013 121.89758761378363 18.112000000000023 121.83258761378363 18.346000000000004L121.40358761378363 20.075000000000017M123.52258761378363 17.74800000000002C123.57458761378362 17.527000000000015 124.06858861378362 16.630000000000024 124.84858761378362 13.666000000000025C124.86158761378363 13.614000000000004 124.97858861378361 13.328000000000003 125.27758761378362 13.328000000000003L126.20058761378363 13.328000000000003C126.68158761378362 13.328000000000003 126.68158761378362 13.523000000000025 126.59058761378361 13.965000000000003L125.94058761378363 17.267000000000024C125.84958761378363 17.696000000000026 125.77158761378362 17.904000000000025 125.29058761378363 17.904000000000025L123.74358761378363 17.904000000000025C123.61358761378364 17.904000000000025 123.49658761378362 17.89100000000002 123.52258761378363 17.74800000000002M130.7957626137836 12.834000000000003C130.2367636137836 12.834000000000003 129.37876261378364 12.808000000000021 129.37876261378364 12.808000000000021L129.33976261378362 12.834000000000003L129.27476261378362 13.120000000000005C129.27476261378362 13.172000000000025 129.28776261378363 13.185000000000002 129.33976261378362 13.185000000000002L129.72976261378363 13.211000000000013C130.19776261378362 13.25 130.22376261378363 13.354000000000013 130.10676261378362 13.900000000000006L129.40476261378362 17.410000000000025C129.3137626137836 17.86500000000001 129.2487626137836 18.00800000000001 128.76776261378362 18.03400000000002L128.35176261378362 18.060000000000002C128.31276261378363 18.073000000000008 128.28676261378362 18.086000000000013 128.27376261378362 18.125L128.22176261378362 18.411L128.23476261378363 18.437000000000012C128.7547626137836 18.424000000000007 129.1187636137836 18.411 129.6777626137836 18.411C130.0937626137836 18.411 130.21076361378363 18.424000000000007 130.7307626137836 18.437000000000012L130.74376261378362 18.411L130.7957626137836 18.138000000000005C130.8087626137836 18.086000000000013 130.78276261378363 18.073000000000008 130.7307626137836 18.060000000000002C130.30176361378363 18.021000000000015 130.28876261378363 17.878000000000014 130.35376261378363 17.566000000000003L130.35376261378363 17.54000000000002L133.68176261378363 14.316000000000003L133.07076261378361 17.384000000000015C132.97976261378363 17.839000000000027 132.88876261378363 18.00800000000001 132.40776261378363 18.03400000000002L131.99176261378364 18.060000000000002C131.95276261378362 18.073000000000008 131.9267626137836 18.086000000000013 131.91376261378363 18.125L131.8617626137836 18.411L131.88776261378362 18.437000000000012C132.40776261378363 18.424000000000007 132.75876361378363 18.411 133.31776261378363 18.411C133.9027626137836 18.411 134.29276361378362 18.424000000000007 134.81276261378363 18.437000000000012L134.8257626137836 18.411L134.87776261378363 18.138000000000005C134.89076261378364 18.086000000000013 134.86476261378363 18.073000000000008 134.81276261378363 18.060000000000002L134.43576261378362 18.03400000000002C133.9807636137836 18.00800000000001 133.94176261378362 17.86500000000001 134.0457626137836 17.384000000000015L134.74776261378364 13.887C134.85176261378362 13.341000000000008 134.9037636137836 13.25 135.3977626137836 13.211000000000013L135.78776261378363 13.185000000000002C135.83976261378362 13.185000000000002 135.87876261378364 13.15900000000002 135.8917626137836 13.107000000000028L135.94376261378363 12.834000000000003L135.93076261378363 12.808000000000021C135.93076261378363 12.808000000000021 135.02076261378363 12.834000000000003 134.43576261378362 12.834000000000003C134.07176261378362 12.834000000000003 133.4867626137836 12.808000000000021 133.4867626137836 12.808000000000021L133.46076261378363 12.834000000000003L133.39576261378363 13.120000000000005C133.39576261378363 13.172000000000025 133.4087626137836 13.185000000000002 133.44776261378362 13.185000000000002C133.88976261378363 13.224000000000018 133.85076261378362 13.445000000000022 133.79876261378362 13.757000000000005L130.47076261378362 16.981000000000023L131.09476261378362 13.887C131.19876261378363 13.354000000000013 131.25076361378362 13.25 131.75776261378363 13.211000000000013L132.1477626137836 13.185000000000002C132.19976261378363 13.185000000000002 132.23876261378362 13.15900000000002 132.25176261378363 13.107000000000028L132.30376261378362 12.834000000000003L132.2777626137836 12.808000000000021C132.2777626137836 12.808000000000021 131.3677626137836 12.834000000000003 130.7957626137836 12.834000000000003M135.27799261378362 18.411L135.3169926137836 18.437000000000012L136.13599261378363 18.424000000000007C136.55199261378363 18.411 137.0849926137836 17.89100000000002 137.44899261378362 17.25400000000002C137.9299916137836 16.40900000000002 138.39799261378363 15.863 138.9179926137836 15.863L139.24299261378363 15.863L138.93099261378362 17.410000000000025C138.83999261378364 17.917 138.78799261378362 18.021000000000015 138.3589926137836 18.047000000000025L138.15099261378361 18.060000000000002C138.09899261378362 18.060000000000002 138.0729926137836 18.099000000000018 138.05999261378363 18.15100000000001L138.0079926137836 18.437000000000012C138.0079926137836 18.437000000000012 138.74899261378363 18.411 139.21699261378362 18.411C139.67199161378363 18.411 140.3999926137836 18.437000000000012 140.3999926137836 18.437000000000012L140.45199261378363 18.17700000000002C140.45199261378363 18.15100000000001 140.43899261378363 18.060000000000002 140.3349926137836 18.060000000000002L140.06199261378362 18.047000000000025C139.85399261378362 18.03400000000002 139.8409926137836 17.74800000000002 139.9059926137836 17.410000000000025L140.67299261378363 13.601000000000028C140.72499261378363 13.328000000000003 140.84199261378362 13.224000000000018 141.07599261378363 13.211000000000013L141.40099261378361 13.185000000000002C141.42699261378363 13.185000000000002 141.45299261378364 13.172000000000025 141.45299261378364 13.146000000000015L141.51799261378363 12.834000000000003L141.49199261378362 12.808000000000021C141.49199261378362 12.808000000000021 140.80299161378363 12.834000000000003 140.36099261378362 12.834000000000003C139.94499261378363 12.834000000000003 140.28299161378362 12.808000000000021 139.29499261378362 12.808000000000021C137.07199461378363 12.808000000000021 136.72099261378364 14.004000000000019 136.64299261378363 14.381C136.46099261378362 15.304000000000002 137.31899361378362 15.759000000000015 138.03399261378362 15.759000000000015L138.02099261378362 15.798000000000002C137.6439926137836 15.863 137.1499926137836 16.17500000000001 136.82499261378362 16.708000000000027C136.52599261378361 17.18900000000002 135.94099261378364 18.00800000000001 135.58999261378364 18.047000000000025L135.47299261378362 18.060000000000002C135.42099261378362 18.060000000000002 135.34299261378362 18.073000000000008 135.32999261378362 18.164000000000016L135.27799261378362 18.411M137.6439926137836 14.238C137.77399261378363 13.62700000000001 138.05999361378363 13.185000000000002 139.17799261378363 13.185000000000002C139.6849916137836 13.185000000000002 139.77599261378361 13.237000000000023 139.68499261378363 13.65300000000002L139.33399261378364 15.42100000000002L138.46299261378363 15.42100000000002C137.7219936137836 15.42100000000002 137.5139926137836 14.888000000000005 137.6439926137836 14.238 " id="tagline" style="font-size:13px;font-style:normal;font-variant:normal;font-weight:normal;font-stretch:normal;letter-spacing:-0.2;word-spacing:-1;fill:#000000;fill-opacity:1;stroke:none;stroke-width:1px;stroke-linecap:butt;stroke-linejoin:miter;stroke-opacity:1;font-family:Sans;-inkscape-font-specification:Sans"></path>
</svg>