<?xml version="1.0" encoding="UTF-8" standalone="no"?>
<svg
	xmlns="http://www.w3.org/2000/svg"
	xmlns:dc="http://purl.org/dc/elements/1.1/"
	xmlns:cc="http://creativecommons.org/ns#"
	xmlns:rdf="http://www.w3.org/1999/02/22-rdf-syntax-ns#"
	xmlns:svg="http://www.w3.org/2000/svg"
	xmlns:xlink="http://www.w3.org/1999/xlink"
	xmlns:sodipodi="http://sodipodi.sourceforge.net/DTD/sodipodi-0.dtd"
	xmlns:inkscape="http://www.inkscape.org/namespaces/inkscape"
	version="1.1"
	viewBox="0 0 132.199036 32.11600000000004">
	<g id="The_Free_Encyclopedia" style="font-size:13px;font-style:normal;font-variant:normal;font-weight:normal;font-stretch:normal;letter-spacing:0.30000001;fill:#000000;fill-opacity:1;stroke:none;font-family:Linux Libertine O;-inkscape-font-specification:Linux Libertine O"><path d="M14.316000000000003 18.567000000000007L12.821000000000003 18.567000000000007C12.444001000000004 18.567000000000007 12.210000000000003 18.319999999999993 12.210000000000003 17.917L12.210000000000003 11.611999999999995C12.210000000000003 11.24799999999999 12.392001000000002 11.10499999999999 12.925000000000002 11.066000000000003L13.263000000000002 11.039999999999992C13.328000000000001 11.039999999999992 13.367 11.001000000000005 13.367 10.935999999999979L13.367 10.688999999999965L13.341000000000001 10.662999999999954C12.730001000000001 10.67599999999996 12.197000000000001 10.688999999999965 11.677000000000001 10.688999999999965C11.170001000000001 10.688999999999965 10.637000000000002 10.67599999999996 10.026000000000002 10.662999999999954L10.000000000000002 10.688999999999965L10.000000000000002 10.935999999999979C10.000000000000002 11.000999999999976 10.052000000000001 11.039999999999992 10.104000000000001 11.039999999999992L10.455 11.066000000000003C10.949 11.10499999999999 11.157 11.222000000000008 11.157 11.611999999999995L11.157 18.138000000000005C11.157 18.593000000000018 11.014 18.658000000000015 10.494 18.697000000000003L10.104 18.723000000000013C10.052 18.723000000000013 10 18.762 10 18.827000000000027L10 19.07400000000004L10.026 19.10000000000005C10.637 19.087000000000046 11.170001 19.07400000000004 11.677 19.07400000000004L14.459 19.07400000000004C14.81 19.07400000000004 16.006 19.10000000000005 16.006 19.10000000000005C16.058 18.372000000000043 16.201000999999998 17.605000000000047 16.344 16.92900000000006L15.953999999999999 16.86400000000006C15.694000999999998 17.800000000000068 15.303999 18.567000000000064 14.315999999999999 18.567000000000064 " id="path15378"></path><path d="M20.692079000000003 16.045000000000016L20.692079000000003 17.77400000000003C20.692079000000003 17.94300000000004 20.614079000000004 18.03400000000002 20.510079000000005 18.112000000000023C20.172079000000004 18.38500000000002 19.730078000000006 18.67100000000002 19.366079000000006 18.67100000000002C18.716079000000008 18.67100000000002 18.404079000000007 18.15100000000001 18.404079000000007 17.74800000000002C18.404079000000007 17.16300000000001 18.703080000000007 16.57800000000003 19.665079000000006 16.318000000000012L20.692079000000007 16.045000000000016M20.692079000000007 18.450000000000017C20.770079000000006 18.723000000000013 20.978079000000008 19.204000000000008 21.667079000000008 19.204000000000008C22.304078000000008 19.204000000000008 22.74607900000001 18.683999999999997 22.74607900000001 18.619C22.74607900000001 18.52799999999999 22.655079000000008 18.424000000000007 22.603079000000008 18.424000000000007C22.52507900000001 18.424000000000007 22.48607800000001 18.632000000000005 22.17407900000001 18.632000000000005C21.667079000000008 18.632000000000005 21.65407900000001 18.099000000000018 21.65407900000001 17.501000000000005L21.65407900000001 15.563999999999993C21.65407900000001 13.71799999999999 20.69207800000001 13.36699999999999 19.74307900000001 13.36699999999999C18.677080000000007 13.36699999999999 17.59807900000001 14.108000000000004 17.59807900000001 14.810000000000002C17.59807900000001 15.122000000000014 17.754079000000008 15.265000000000015 18.053079000000007 15.265000000000015C18.43007800000001 15.265000000000015 18.625079000000007 15.005000000000024 18.625079000000007 14.836000000000013C18.625079000000007 14.745000000000005 18.612079000000005 14.654000000000025 18.586079000000005 14.602000000000004C18.573079000000003 14.563000000000017 18.560079000000005 14.485000000000014 18.560079000000005 14.342000000000013C18.560079000000005 13.939000000000021 19.145079000000006 13.757000000000005 19.639079000000006 13.757000000000005C20.081078000000005 13.757000000000005 20.692079000000007 14.016999999999996 20.692079000000007 15.486000000000018C20.692079000000007 15.577000000000027 20.653079000000005 15.629000000000019 20.614079000000007 15.642000000000024L19.49607900000001 15.91500000000002C18.24808000000001 16.227000000000032 17.37707900000001 16.916000000000025 17.37707900000001 17.80000000000001C17.37707900000001 18.826999999999998 18.07908000000001 19.204000000000008 18.989079000000007 19.204000000000008C19.58707800000001 19.204000000000008 19.834079000000006 19.099999999999994 20.40607900000001 18.658000000000015L20.66607900000001 18.450000000000017L20.69207900000001 18.450000000000017 " id="path15380"></path><path d="M28.145312 15.343000000000018C28.379312000000002 13.874000000000024 29.341313 13.809000000000026 29.640312 13.809000000000026C30.108312 13.809000000000026 30.719312000000002 14.069000000000017 30.719312000000002 15.16100000000003C30.719312000000002 15.27800000000002 30.667312000000003 15.343000000000018 30.537312000000004 15.343000000000018L28.145312000000004 15.343000000000018M31.577312000000006 17.839000000000027C31.122313000000005 18.333000000000027 30.66731200000001 18.567000000000036 29.952312000000006 18.567000000000036C29.224313000000006 18.567000000000036 28.106312000000006 17.787000000000035 28.106312000000006 15.850000000000023L31.525312000000007 15.850000000000023C31.668312000000007 15.850000000000023 31.75931200000001 15.77200000000002 31.75931200000001 15.629000000000019C31.75931200000001 14.537000000000006 31.356311000000005 13.367000000000019 29.64031200000001 13.367000000000019C28.405314000000008 13.367000000000019 27.06631200000001 14.511000000000024 27.06631200000001 16.487000000000023C27.06631200000001 17.982000000000028 27.859314000000012 19.204000000000036 29.64031200000001 19.204000000000036C30.57631200000001 19.204000000000036 31.34331300000001 18.72300000000004 31.83731200000001 18.047000000000025C31.79831200000001 17.91700000000003 31.720312000000014 17.852000000000032 31.577312000000013 17.839000000000027 " id="path15382"></path><path d="M34.642861 13.367000000000019C34.642861 13.341000000000008 34.616861 13.328000000000031 34.590861000000004 13.328000000000031C34.22686100000001 13.471000000000032 33.706860000000006 13.588000000000022 32.79686100000001 13.731000000000023L32.82286100000001 14.043000000000035L33.38186100000001 14.095000000000027C33.563860000000005 14.121000000000038 33.66786100000001 14.251000000000033 33.66786100000001 14.901000000000039L33.66786100000001 18.138000000000034C33.66786100000001 18.515000000000043 33.53786000000001 18.658000000000044 33.10886100000001 18.69700000000003L32.86186100000001 18.72300000000004C32.796861000000014 18.736000000000047 32.75786100000001 18.76200000000003 32.75786100000001 18.827000000000055L32.75786100000001 19.07400000000007L32.783861000000016 19.10000000000008C33.303860000000014 19.087000000000074 33.628861000000015 19.07400000000007 34.13586100000001 19.07400000000007C34.66886000000001 19.07400000000007 34.94186100000001 19.087000000000074 35.46186100000001 19.10000000000008L35.48786100000002 19.07400000000007L35.48786100000002 18.827000000000055C35.48786100000002 18.762000000000057 35.448861000000015 18.736000000000047 35.38386100000002 18.72300000000004L35.201861000000015 18.69700000000003C34.77286100000001 18.632000000000033 34.64286100000002 18.515000000000043 34.64286100000002 18.138000000000034L34.64286100000002 14.992000000000047C35.30586000000002 14.212000000000046 35.799861000000014 13.991000000000042 36.37186100000002 13.991000000000042C37.06086000000002 13.991000000000042 37.216861000000016 14.420000000000044 37.216861000000016 15.330000000000041L37.216861000000016 18.138000000000034C37.216861000000016 18.515000000000043 37.07386000000002 18.632000000000033 36.65786100000002 18.69700000000003L36.475861000000016 18.72300000000004C36.41086100000002 18.736000000000047 36.37186100000002 18.76200000000003 36.37186100000002 18.827000000000055L36.37186100000002 19.07400000000007L36.39786100000002 19.10000000000008C36.91786000000002 19.087000000000074 37.17786100000002 19.07400000000007 37.68486100000002 19.07400000000007C38.217860000000016 19.07400000000007 38.55586100000002 19.087000000000074 39.07586100000002 19.10000000000008L39.10186100000002 19.07400000000007L39.10186100000002 18.827000000000055C39.10186100000002 18.762000000000057 39.04986100000002 18.736000000000047 38.98486100000002 18.72300000000004L38.737861000000024 18.69700000000003C38.334861000000025 18.658000000000044 38.191861000000024 18.515000000000043 38.191861000000024 18.138000000000034L38.191861000000024 15.42100000000002C38.191861000000024 14.26400000000001 37.931859000000024 13.367000000000019 36.761861000000025 13.367000000000019C36.09886100000003 13.367000000000019 35.47486000000003 13.549000000000007 34.642861000000025 14.52400000000003L34.60386100000002 14.52400000000003L34.642861000000025 13.367000000000019 " id="path15384"></path><path d="M44.737547 17.89100000000002C44.685547 17.77400000000003 44.581547 17.72200000000001 44.464546999999996 17.70900000000003C44.061547999999995 18.29400000000004 43.463547 18.632000000000033 42.904546999999994 18.632000000000033C41.903547999999994 18.632000000000033 41.175546999999995 17.605000000000047 41.175546999999995 16.08400000000003C41.175546999999995 14.654000000000025 41.838547999999996 13.809000000000026 42.696546999999995 13.809000000000026C43.463545999999994 13.809000000000026 43.567547 14.368000000000023 43.619547 14.797000000000025C43.658547 15.122000000000014 43.814547999999995 15.252000000000038 44.087547 15.252000000000038C44.360547000000004 15.252000000000038 44.698547 15.07000000000005 44.698547 14.69300000000004C44.698547 14.004000000000048 44.009546 13.367000000000047 42.761547 13.367000000000047C41.357549 13.367000000000047 40.070547 14.524000000000058 40.070547 16.37000000000006C40.070547 18.047000000000054 40.980548999999996 19.204000000000065 42.618547 19.204000000000065C43.398545999999996 19.204000000000065 44.087548 18.95700000000005 44.737547 17.891000000000076 " id="path15386"></path><path d="M46.390359000000004 11.664000000000016C46.390359000000004 12.00200000000001 46.676359000000005 12.288000000000011 47.014359000000006 12.288000000000011C47.35235900000001 12.288000000000011 47.63835900000001 12.00200000000001 47.63835900000001 11.664000000000016C47.63835900000001 11.326000000000022 47.35235900000001 11.04000000000002 47.014359000000006 11.04000000000002C46.676359000000005 11.04000000000002 46.390359000000004 11.326000000000022 46.390359000000004 11.664000000000016M47.612359000000005 13.367000000000019C47.612359000000005 13.341000000000008 47.586359 13.328000000000031 47.560359000000005 13.328000000000031C47.19635900000001 13.471000000000032 46.650358000000004 13.588000000000022 45.72735900000001 13.731000000000023L45.75335900000001 14.043000000000035L46.31235900000001 14.095000000000027C46.49435900000001 14.121000000000038 46.59835900000001 14.251000000000033 46.59835900000001 14.901000000000039L46.59835900000001 18.138000000000034C46.59835900000001 18.515000000000043 46.48135900000001 18.64500000000004 46.03935900000001 18.69700000000003L45.79235900000001 18.72300000000004C45.727359000000014 18.736000000000047 45.68835900000001 18.76200000000003 45.68835900000001 18.827000000000055L45.68835900000001 19.07400000000007L45.714359000000016 19.10000000000008C46.234358000000014 19.087000000000074 46.598359000000016 19.07400000000007 47.06635900000001 19.07400000000007C47.560358000000015 19.07400000000007 47.937359000000015 19.087000000000074 48.45735900000001 19.10000000000008L48.483359000000014 19.07400000000007L48.483359000000014 18.827000000000055C48.483359000000014 18.762000000000057 48.431359000000015 18.736000000000047 48.36635900000002 18.72300000000004L48.11935900000002 18.69700000000003C47.71635900000002 18.658000000000044 47.57335900000002 18.515000000000043 47.57335900000002 18.138000000000034L47.57335900000002 14.901000000000039C47.57335900000002 14.251000000000033 47.61235900000002 13.367000000000047 47.61235900000002 13.367000000000047 " id="path15388"></path><path d="M54.198874 17.89100000000002C54.146874000000004 17.77400000000003 54.042874000000005 17.72200000000001 53.925874 17.70900000000003C53.522874 18.29400000000004 52.924873 18.632000000000033 52.365874 18.632000000000033C51.364875 18.632000000000033 50.636874 17.605000000000047 50.636874 16.08400000000003C50.636874 14.654000000000025 51.299875 13.809000000000026 52.157874 13.809000000000026C52.924873 13.809000000000026 53.028874 14.368000000000023 53.080874 14.797000000000025C53.119874 15.122000000000014 53.275874 15.252000000000038 53.548874000000005 15.252000000000038C53.82187400000001 15.252000000000038 54.159874 15.07000000000005 54.159874 14.69300000000004C54.159874 14.004000000000048 53.470873000000005 13.367000000000047 52.222874000000004 13.367000000000047C50.818875000000006 13.367000000000047 49.531874 14.524000000000058 49.531874 16.37000000000006C49.531874 18.047000000000054 50.441875 19.204000000000065 52.079874000000004 19.204000000000065C52.859873 19.204000000000065 53.548874000000005 18.95700000000005 54.198874 17.891000000000076 " id="path15390"></path><path d="M55.968689000000005 18.138000000000005C55.968689000000005 18.515000000000015 55.838689 18.658000000000015 55.40968900000001 18.697000000000003L55.09768900000001 18.723000000000013C55.03268900000001 18.723000000000013 55.00668900000001 18.762 55.00668900000001 18.827000000000027L55.00668900000001 19.07400000000004L55.01968900000001 19.10000000000005C55.669689000000005 19.087000000000046 55.92969000000001 19.07400000000004 56.43668900000001 19.07400000000004C56.96968900000001 19.07400000000004 57.229690000000005 19.087000000000046 57.879689000000006 19.10000000000005L57.90568900000001 19.07400000000004L57.90568900000001 18.827000000000027C57.90568900000001 18.76200000000003 57.85368900000001 18.723000000000013 57.80168900000001 18.723000000000013L57.48968900000001 18.697000000000003C57.060690000000015 18.658000000000015 56.94368900000001 18.515000000000015 56.94368900000001 18.138000000000005L56.94368900000001 11.495000000000005C56.94368900000001 10.650000000000006 56.982689000000015 10.129999999999995 56.982689000000015 10.129999999999995C56.982689000000015 10.038999999999987 56.930689000000015 10 56.81368900000002 10C56.48869000000002 10.129999999999995 55.59168900000002 10.299000000000007 55.058689000000015 10.337999999999994L55.08468900000002 10.650000000000006C55.08468900000002 10.688999999999993 55.12368900000002 10.715000000000003 55.16268900000002 10.715000000000003L55.57868900000002 10.741000000000014C55.83868900000002 10.741000000000014 55.96868900000002 10.910000000000025 55.96868900000002 11.755000000000024L55.96868900000002 18.138000000000034 " id="path15392"></path><path d="M58.878642 16.40900000000002C58.878642 17.735000000000014 59.801643 19.204000000000008 61.543642 19.204000000000008C63.38963999999999 19.204000000000008 64.23464200000001 17.592000000000013 64.23464200000001 16.292C64.23464200000001 14.939999999999998 63.493640000000006 13.36699999999999 61.569642 13.36699999999999C59.840643 13.36699999999999 58.878642 14.627999999999986 58.878642 16.408999999999992M61.426642 13.795999999999992C62.492641 13.795999999999992 63.129642 14.796999999999997 63.129642 16.708C63.129642 18.424000000000007 62.349641 18.775000000000006 61.764641999999995 18.775000000000006C60.47764299999999 18.775000000000006 59.983641999999996 17.11100000000002 59.983641999999996 16.110000000000014C59.983641999999996 14.979000000000013 60.386643 13.79600000000002 61.426641999999994 13.79600000000002 " id="path15394"></path><path d="M67.02251600000001 15.031000000000006C67.30851600000001 14.342000000000013 67.932516 13.965000000000003 68.37451600000001 13.965000000000003C69.16751500000001 13.965000000000003 69.84351600000001 14.90100000000001 69.84351600000001 16.370000000000005C69.84351600000001 17.436000000000007 69.49251500000001 18.762 68.101516 18.762C67.893516 18.762 67.47751600000001 18.73599999999999 67.02251600000001 18.203000000000003L67.02251600000001 15.031000000000006M66.04751600000002 14.90100000000001L66.04751600000002 21.167C66.04751600000002 21.531000000000006 65.90451600000002 21.674000000000007 65.48851600000002 21.712999999999994L65.24151600000002 21.739000000000004C65.17651600000002 21.75200000000001 65.13751600000002 21.77799999999999 65.13751600000002 21.843000000000018L65.13751600000002 22.090000000000032L65.16351600000002 22.116000000000042C65.64451600000001 22.103000000000037 66.04751600000002 22.090000000000032 66.51551600000002 22.090000000000032C67.00951500000002 22.090000000000032 67.42551600000002 22.103000000000037 67.90651600000002 22.116000000000042L67.93251600000002 22.090000000000032L67.93251600000002 21.843000000000018C67.93251600000002 21.77800000000002 67.88051600000001 21.75200000000001 67.81551600000002 21.739000000000004L67.56851600000002 21.712999999999994C67.16551600000001 21.674000000000007 67.02251600000001 21.531000000000006 67.02251600000001 21.167L67.02251600000001 18.918000000000006C67.360516 19.099999999999994 67.711516 19.204000000000008 68.179516 19.204000000000008C68.868515 19.204000000000008 69.49251600000001 18.983000000000004 69.999516 18.476C70.584515 17.877999999999986 70.909516 17.072000000000003 70.909516 16.019000000000005C70.909516 14.64100000000002 69.986515 13.367000000000019 68.725516 13.367000000000019C68.309516 13.367000000000019 67.620515 13.497000000000014 67.022516 14.40700000000001L66.983516 14.40700000000001L67.022516 13.367000000000019C67.022516 13.341000000000008 66.996516 13.328000000000031 66.97051599999999 13.328000000000031C66.593516 13.471000000000032 66.09951499999998 13.588000000000022 65.17651599999999 13.731000000000023L65.20251599999999 14.043000000000035L65.76151599999999 14.095000000000027C65.94351599999999 14.121000000000038 66.04751599999999 14.251000000000033 66.04751599999999 14.901000000000039 " id="path15396"></path><path d="M73.30312500000001 15.343000000000018C73.537124 13.874000000000024 74.499125 13.809000000000026 74.79812500000001 13.809000000000026C75.26612400000002 13.809000000000026 75.877125 14.069000000000017 75.877125 15.16100000000003C75.877125 15.27800000000002 75.825125 15.343000000000018 75.695125 15.343000000000018L73.30312500000001 15.343000000000018M76.73512500000001 17.839000000000027C76.28012500000001 18.333000000000027 75.82512400000002 18.567000000000036 75.11012500000001 18.567000000000036C74.38212500000002 18.567000000000036 73.264125 17.787000000000035 73.264125 15.850000000000023L76.683125 15.850000000000023C76.82612400000001 15.850000000000023 76.917125 15.77200000000002 76.917125 15.629000000000019C76.917125 14.537000000000006 76.514123 13.367000000000019 74.798125 13.367000000000019C73.563126 13.367000000000019 72.224125 14.511000000000024 72.224125 16.487000000000023C72.224125 17.982000000000028 73.017126 19.204000000000036 74.798125 19.204000000000036C75.734124 19.204000000000036 76.501125 18.72300000000004 76.995125 18.047000000000025C76.956125 17.91700000000003 76.878124 17.852000000000032 76.735125 17.839000000000027 " id="path15398"></path><path d="M82.17784300000001 17.852000000000004C81.59284300000002 18.319999999999993 81.08584200000001 18.593000000000018 80.747843 18.593000000000018C80.045843 18.593000000000018 79.330843 17.826000000000022 79.330843 16.201000000000022C79.330843 15.265000000000015 79.499843 14.745000000000033 79.694843 14.472000000000008C80.097842 13.861000000000018 80.643843 13.822000000000003 80.90384300000001 13.822000000000003C81.51484200000002 13.822000000000003 81.86584300000001 14.094999999999999 82.17784300000001 14.588999999999999L82.17784300000001 17.852000000000004M83.152843 11.495000000000005C83.152843 10.650000000000006 83.191843 10.129999999999995 83.191843 10.129999999999995C83.191843 10.038999999999987 83.139843 10 83.02284300000001 10C82.697843 10.129999999999995 81.800842 10.299000000000007 81.26784300000001 10.337999999999994L81.29384300000001 10.650000000000006C81.29384300000001 10.688999999999993 81.33284300000001 10.715000000000003 81.37184300000001 10.715000000000003L81.78784300000001 10.741000000000014C82.047842 10.741000000000014 82.17784300000001 10.910000000000025 82.17784300000001 11.755000000000024L82.17784300000001 13.65300000000002C81.878843 13.484000000000009 81.306842 13.367000000000019 81.04684300000001 13.367000000000019C80.188843 13.367000000000019 79.616842 13.65300000000002 79.096843 14.14700000000002C78.53784300000001 14.706000000000017 78.22584300000001 15.473000000000013 78.22584300000001 16.43500000000003C78.22584300000001 18.03400000000002 79.00584400000001 19.204000000000036 80.40984300000001 19.204000000000036C80.92984200000001 19.204000000000036 81.57984300000001 18.78800000000004 82.17784300000001 18.307000000000045L82.203843 18.32000000000005L82.17784300000001 19.230000000000047L82.47684300000002 19.230000000000047C82.76284200000002 18.996000000000038 83.33484300000002 18.827000000000055 84.14084300000002 18.684000000000054L84.10184300000002 18.385000000000048L83.47784300000002 18.32000000000005C83.20484300000003 18.29400000000004 83.15284300000002 18.216000000000037 83.15284300000002 17.56600000000006L83.15284300000002 11.495000000000061 " id="path15400"></path><path d="M85.687627 11.664000000000016C85.687627 12.00200000000001 85.97362700000001 12.288000000000011 86.311627 12.288000000000011C86.649627 12.288000000000011 86.935627 12.00200000000001 86.935627 11.664000000000016C86.935627 11.326000000000022 86.649627 11.04000000000002 86.311627 11.04000000000002C85.97362700000001 11.04000000000002 85.687627 11.326000000000022 85.687627 11.664000000000016M86.909627 13.367000000000019C86.909627 13.341000000000008 86.883627 13.328000000000031 86.857627 13.328000000000031C86.49362699999999 13.471000000000032 85.947626 13.588000000000022 85.024627 13.731000000000023L85.05062699999999 14.043000000000035L85.60962699999999 14.095000000000027C85.79162699999999 14.121000000000038 85.89562699999999 14.251000000000033 85.89562699999999 14.901000000000039L85.89562699999999 18.138000000000034C85.89562699999999 18.515000000000043 85.77862599999999 18.64500000000004 85.336627 18.69700000000003L85.089627 18.72300000000004C85.024627 18.736000000000047 84.985627 18.76200000000003 84.985627 18.827000000000055L84.985627 19.07400000000007L85.01162699999999 19.10000000000008C85.53162599999999 19.087000000000074 85.89562699999999 19.07400000000007 86.363627 19.07400000000007C86.857626 19.07400000000007 87.23462699999999 19.087000000000074 87.754627 19.10000000000008L87.780627 19.07400000000007L87.780627 18.827000000000055C87.780627 18.762000000000057 87.72862699999999 18.736000000000047 87.66362699999999 18.72300000000004L87.41662699999999 18.69700000000003C87.01362699999999 18.658000000000044 86.87062699999998 18.515000000000043 86.87062699999998 18.138000000000034L86.87062699999998 14.901000000000039C86.87062699999998 14.251000000000033 86.90962699999999 13.367000000000047 86.90962699999999 13.367000000000047 " id="path15402"></path><path d="M92.131138 16.045000000000016L92.131138 17.77400000000003C92.131138 17.94300000000004 92.053138 18.03400000000002 91.949138 18.112000000000023C91.61113800000001 18.38500000000002 91.169138 18.67100000000002 90.805138 18.67100000000002C90.155139 18.67100000000002 89.843138 18.15100000000001 89.843138 17.74800000000002C89.843138 17.16300000000001 90.142139 16.57800000000003 91.10413799999999 16.318000000000012L92.13113799999999 16.045000000000016M92.13113799999999 18.450000000000017C92.209138 18.723000000000013 92.41713899999999 19.204000000000008 93.10613799999999 19.204000000000008C93.74313699999999 19.204000000000008 94.18513799999998 18.683999999999997 94.18513799999998 18.619C94.18513799999998 18.52799999999999 94.09413799999999 18.424000000000007 94.04213799999998 18.424000000000007C93.96413799999998 18.424000000000007 93.92513799999998 18.632000000000005 93.61313799999998 18.632000000000005C93.10613799999997 18.632000000000005 93.09313799999998 18.099000000000018 93.09313799999998 17.501000000000005L93.09313799999998 15.563999999999993C93.09313799999998 13.71799999999999 92.13113699999998 13.36699999999999 91.18213799999998 13.36699999999999C90.11613899999998 13.36699999999999 89.03713799999998 14.108000000000004 89.03713799999998 14.810000000000002C89.03713799999998 15.122000000000014 89.19313799999999 15.265000000000015 89.49213799999998 15.265000000000015C89.86913799999998 15.265000000000015 90.06413799999999 15.005000000000024 90.06413799999999 14.836000000000013C90.06413799999999 14.745000000000005 90.05113799999998 14.654000000000025 90.02513799999998 14.602000000000004C90.01213799999998 14.563000000000017 89.99913799999999 14.485000000000014 89.99913799999999 14.342000000000013C89.99913799999999 13.939000000000021 90.58413799999998 13.757000000000005 91.07813799999998 13.757000000000005C91.52013699999998 13.757000000000005 92.13113799999998 14.016999999999996 92.13113799999998 15.486000000000018C92.13113799999998 15.577000000000027 92.09213799999998 15.629000000000019 92.05313799999998 15.642000000000024L90.93513799999998 15.91500000000002C89.68713899999999 16.227000000000032 88.81613799999998 16.916000000000025 88.81613799999998 17.80000000000001C88.81613799999998 18.826999999999998 89.51813899999998 19.204000000000008 90.42813799999998 19.204000000000008C91.02613699999998 19.204000000000008 91.27313899999997 19.099999999999994 91.84513799999998 18.658000000000015L92.10513799999998 18.450000000000017L92.13113799999998 18.450000000000017 " id="path15404"></path><path d="M99.298376 18.138000000000005C99.298376 18.515000000000015 99.16837600000001 18.658000000000015 98.73937600000001 18.697000000000003L98.427378 18.723000000000013C98.362378 18.723000000000013 98.33637800000001 18.762 98.33637800000001 18.827000000000027L98.33637800000001 19.07400000000004L98.34937800000002 19.10000000000005C98.99937600000001 19.087000000000046 99.25937600000002 19.07400000000004 99.76637600000002 19.07400000000004C100.29937600000002 19.07400000000004 100.55937600000003 19.087000000000046 101.20937600000002 19.10000000000005L101.23537600000002 19.07400000000004L101.23537600000002 18.827000000000027C101.23537600000002 18.76200000000003 101.18337600000001 18.723000000000013 101.13137600000002 18.723000000000013L100.81937600000002 18.697000000000003C100.39037600000002 18.658000000000015 100.27337600000001 18.515000000000015 100.27337600000001 18.138000000000005L100.27337600000001 11.495000000000005C100.27337600000001 10.650000000000006 100.31237600000001 10.129999999999995 100.31237600000001 10.129999999999995C100.31237600000001 10.038999999999987 100.26037600000001 10 100.14337600000002 10C99.81837600000001 10.129999999999995 98.92137600000002 10.299000000000007 98.38837800000002 10.337999999999994L98.41437800000001 10.650000000000006C98.41437800000001 10.688999999999993 98.45337800000001 10.715000000000003 98.49237800000002 10.715000000000003L98.90837600000002 10.741000000000014C99.16837600000002 10.741000000000014 99.29837600000002 10.910000000000025 99.29837600000002 11.755000000000024L99.29837600000002 18.138000000000034 " id="path15406"></path><path d="M102.858326 11.664000000000016C102.858326 12.00200000000001 103.144326 12.288000000000011 103.482326 12.288000000000011C103.820326 12.288000000000011 104.106326 12.00200000000001 104.106326 11.664000000000016C104.106326 11.326000000000022 103.820326 11.04000000000002 103.482326 11.04000000000002C103.144326 11.04000000000002 102.858326 11.326000000000022 102.858326 11.664000000000016M104.080326 13.367000000000019C104.080326 13.341000000000008 104.054326 13.328000000000031 104.02832599999999 13.328000000000031C103.66432599999999 13.471000000000032 103.118326 13.588000000000022 102.195326 13.731000000000023L102.22132599999999 14.043000000000035L102.78032599999999 14.095000000000027C102.96232599999999 14.121000000000038 103.06632599999999 14.251000000000033 103.06632599999999 14.901000000000039L103.06632599999999 18.138000000000034C103.06632599999999 18.515000000000043 102.94932599999999 18.64500000000004 102.50732599999999 18.69700000000003L102.26032599999999 18.72300000000004C102.195326 18.736000000000047 102.15632599999999 18.76200000000003 102.15632599999999 18.827000000000055L102.15632599999999 19.07400000000007L102.18232599999999 19.10000000000008C102.70232599999999 19.087000000000074 103.06632599999999 19.07400000000007 103.534326 19.07400000000007C104.02832599999999 19.07400000000007 104.40532599999999 19.087000000000074 104.925326 19.10000000000008L104.951326 19.07400000000007L104.951326 18.827000000000055C104.951326 18.762000000000057 104.89932599999999 18.736000000000047 104.83432599999999 18.72300000000004L104.58732599999999 18.69700000000003C104.18432599999998 18.658000000000044 104.04132599999998 18.515000000000043 104.04132599999998 18.138000000000034L104.04132599999998 14.901000000000039C104.04132599999998 14.251000000000033 104.08032599999999 13.367000000000047 104.08032599999999 13.367000000000047 " id="path15408"></path><path d="M107.50784600000001 18.15100000000001L107.50784600000001 14.485000000000014C108.01484600000002 13.965000000000003 108.69084600000002 13.939000000000021 108.83384600000001 13.939000000000021C109.62684600000001 13.939000000000021 110.26384600000002 14.90100000000001 110.26384600000002 16.162000000000035C110.26384600000002 17.644000000000034 109.67884600000002 18.76200000000003 108.44384600000002 18.76200000000003C108.04084600000002 18.76200000000003 107.76784600000002 18.476000000000028 107.50784600000001 18.15100000000004M106.53284600000002 11.755000000000052L106.53284600000002 18.15100000000004C106.53284600000002 18.658000000000044 106.51984600000002 18.879000000000048 106.46784600000002 19.16500000000005C106.54584600000003 19.21700000000004 106.61084600000002 19.230000000000047 106.74084600000002 19.230000000000047C106.87084600000001 19.113000000000056 107.05284600000002 18.892000000000053 107.16984600000002 18.72300000000004C107.54684600000002 19.04800000000003 107.96284600000003 19.204000000000036 108.52184600000002 19.204000000000036C109.84784600000002 19.204000000000036 111.36884600000002 17.995000000000033 111.36884600000002 15.928000000000026C111.36884600000002 14.342000000000013 110.22484600000001 13.367000000000019 109.09384600000001 13.367000000000019C108.46984600000002 13.367000000000019 107.94984600000001 13.601000000000028 107.50784600000001 14.082000000000022L107.50784600000001 11.495000000000033C107.50784600000001 10.650000000000034 107.54684600000002 10.130000000000024 107.54684600000002 10.130000000000024C107.54684600000002 10.039000000000016 107.49484600000001 10.000000000000028 107.37784600000002 10.000000000000028C107.05284600000002 10.130000000000024 106.14284600000002 10.299000000000035 105.62284600000002 10.338000000000022L105.64884600000002 10.650000000000034C105.64884600000002 10.689000000000021 105.68784600000002 10.715000000000032 105.72684600000002 10.715000000000032L106.14284600000002 10.741000000000042C106.40284600000003 10.741000000000042 106.53284600000002 10.910000000000053 106.53284600000002 11.755000000000052 " id="path15410"></path><path d="M113.402106 18.138000000000005C113.402106 18.515000000000015 113.27210600000001 18.658000000000015 112.843106 18.697000000000003L112.596106 18.723000000000013C112.53110600000001 18.73600000000002 112.50510600000001 18.762 112.50510600000001 18.827000000000027L112.50510600000001 19.07400000000004L112.51810600000002 19.10000000000005C112.99910600000001 19.087000000000046 113.40210600000002 19.07400000000004 113.87010600000002 19.07400000000004C114.36410600000002 19.07400000000004 114.92310600000002 19.087000000000046 115.40410600000003 19.10000000000005L115.43010600000002 19.07400000000004L115.43010600000002 18.827000000000027C115.43010600000002 18.76200000000003 115.37810600000002 18.723000000000013 115.31310600000002 18.723000000000013L114.93610600000002 18.697000000000003C114.52010600000003 18.670999999999992 114.37710600000003 18.515000000000015 114.37710600000003 18.138000000000005L114.37710600000003 15.290999999999997C114.37710600000003 15.121999999999986 114.44210600000002 14.953000000000003 114.53310600000003 14.835999999999984C114.84510600000003 14.393999999999977 115.13110600000003 14.159999999999997 115.27410600000003 14.159999999999997C115.36510600000003 14.159999999999997 115.45610600000003 14.198999999999984 115.53410600000004 14.276999999999987C115.66410600000003 14.406999999999982 115.80710600000003 14.510999999999996 116.06710600000004 14.510999999999996C116.40510600000003 14.510999999999996 116.62610600000004 14.302999999999997 116.62610600000004 13.965000000000003C116.62610600000004 13.62700000000001 116.43110600000004 13.36699999999999 115.89810600000004 13.36699999999999C115.28710600000004 13.36699999999999 114.71510600000003 14.030000000000001 114.37710600000004 14.536999999999978L114.33810600000004 14.536999999999978L114.37710600000004 13.36699999999999C114.37710600000004 13.34099999999998 114.35110600000004 13.328000000000003 114.32510600000003 13.328000000000003C113.96110600000003 13.471000000000004 113.44110600000003 13.587999999999994 112.53110600000004 13.730999999999995L112.55710600000003 14.043000000000006L113.11610600000003 14.094999999999999C113.29810600000003 14.12100000000001 113.40210600000003 14.251000000000005 113.40210600000003 14.90100000000001L113.40210600000003 18.138000000000005 " id="path15412"></path><path d="M118.50703600000001 15.343000000000018C118.74103600000001 13.874000000000024 119.70303600000001 13.809000000000026 120.00203600000002 13.809000000000026C120.47003600000002 13.809000000000026 121.08103600000001 14.069000000000017 121.08103600000001 15.16100000000003C121.08103600000001 15.27800000000002 121.029036 15.343000000000018 120.89903600000001 15.343000000000018L118.50703600000001 15.343000000000018M121.93903600000002 17.839000000000027C121.48403600000002 18.333000000000027 121.02902600000002 18.567000000000036 120.31403600000002 18.567000000000036C119.58603600000002 18.567000000000036 118.46803600000001 17.787000000000035 118.46803600000001 15.850000000000023L121.88703600000001 15.850000000000023C122.03003600000001 15.850000000000023 122.121036 15.77200000000002 122.121036 15.629000000000019C122.121036 14.537000000000006 121.71802600000001 13.367000000000019 120.002036 13.367000000000019C118.767036 13.367000000000019 117.428036 14.511000000000024 117.428036 16.487000000000023C117.428036 17.982000000000028 118.22103600000001 19.204000000000036 120.002036 19.204000000000036C120.93802600000001 19.204000000000036 121.705036 18.72300000000004 122.199036 18.047000000000025C122.160036 17.91700000000003 122.082036 17.852000000000032 121.939036 17.839000000000027 " id="path15414"></path></g>
</svg>