<?xml version="1.0" encoding="UTF-8" standalone="no"?>
<svg
	xmlns="http://www.w3.org/2000/svg"
	xmlns:dc="http://purl.org/dc/elements/1.1/"
	xmlns:cc="http://creativecommons.org/ns#"
	xmlns:rdf="http://www.w3.org/1999/02/22-rdf-syntax-ns#"
	xmlns:svg="http://www.w3.org/2000/svg"
	xmlns:xlink="http://www.w3.org/1999/xlink"
	xmlns:sodipodi="http://sodipodi.sourceforge.net/DTD/sodipodi-0.dtd"
	xmlns:inkscape="http://www.inkscape.org/namespaces/inkscape"
	version="1.1"
	viewBox="0 0 362.700004 57.28">
	<path transform="matrix(0.326368,0,0,0.326368,-1.5403101,89.636152)" d="M15.379999999999988 37.920000000000016L23.859999999999992 37.920000000000016C24.979998999999992 37.920000000000016 28.65999999999999 38 28.65999999999999 38C29.05999899999999 36.00001 29.459999999999994 33.400000000000006 29.69999999999999 31.319999999999993C29.29999999999999 31.16001 28.859998999999995 31.080000000000013 28.37999999999999 31.120000000000005C27.57999999999999 34 26.499996999999993 36.360000000000014 23.459999999999994 36.360000000000014L18.93999999999999 36.360000000000014C17.78000099999999 36.360000000000014 17.059999999999995 35.599999999999994 17.059999999999995 34.360000000000014L17.059999999999995 17C17.059999999999995 13.68001000000001 17.74000199999999 13.47999999999999 20.539999999999992 13.360000000000014C20.77999899999999 13.120010000000008 20.77999899999999 12.280000000000001 20.539999999999992 12.039999999999992C18.580001999999993 12.080000000000013 17.379997999999993 12.120000000000005 15.33999999999999 12.120000000000005C13.340001999999991 12.120000000000005 12.17999799999999 12.080000000000013 10.179999999999993 12.039999999999992C9.93999999999999 12.280000000000001 9.93999999999999 13.120010000000008 10.179999999999993 13.360000000000014C12.97999699999999 13.47999999999999 13.65999999999999 13.68001000000001 13.65999999999999 17L13.65999999999999 33.03999999999999C13.65999999999999 36.360000000000014 12.97999699999999 36.56 10.179999999999993 36.68000000000001C9.93999999999999 36.920000000000016 9.93999999999999 37.760009999999994 10.179999999999993 38C12.139997999999991 37.96000000000001 15.379999999999988 37.920000000000016 15.379999999999988 37.920000000000016M35.675625 10C34.435625999999985 10 33.55562499999999 10.840010000000007 33.55562499999999 11.960000000000008C33.55562499999999 13.240000000000009 34.595625 13.599999999999994 35.315625 13.719999999999999C36.07562399999999 13.800000000000011 36.755624999999995 14.040009999999995 36.755624999999995 14.960000000000008C36.755624999999995 15.800000000000011 35.31562299999999 17.64000999999999 33.23562499999999 18.159999999999997C33.23562499999999 18.560000000000002 33.31562499999999 18.840010000000007 33.59562499999999 19.120000000000005C35.995622 18.68001000000001 38.315625 16.75999999999999 38.315625 13.960000000000008C38.315625 11.560010000000005 37.275622999999996 10 35.675625 10M45.241249999999994 26.640000000000015C46.00124899999999 22.120010000000008 48.80125099999999 21.75999999999999 49.76124999999999 21.75999999999999C51.28124799999999 21.75999999999999 53.08125 22.600009999999997 53.08125 25.960000000000008C53.08125 26.319999999999993 52.92124899999999 26.52000000000001 52.48124999999999 26.52000000000001L45.241249999999994 26.640000000000015M55.72125 34.20000000000002C54.24125099999999 35.72 53.08124699999999 36.360000000000014 50.76124999999999 36.360000000000014C49.32125099999999 36.360000000000014 47.64124799999999 35.52000000000001 46.40124999999999 33.47999999999999C45.60124999999999 32.16001 45.12124999999999 30.319999999999993 45.12124999999999 28L55.76124999999999 28.080000000000013C56.241248999999996 28.080000000000013 56.521249999999995 27.840000000000003 56.521249999999995 27.400000000000006C56.521249999999995 24.040009999999995 55.32124399999999 20.439999999999998 49.76124999999999 20.439999999999998C46.28125299999999 20.439999999999998 41.76124999999999 23.760009999999994 41.76124999999999 29.840000000000003C41.76124999999999 32.08000000000001 42.32125099999999 34.24001000000001 43.641249999999985 35.75999999999999C45.00124799999999 37.360000000000014 46.88125299999999 38.31999999999999 49.76124999999999 38.31999999999999C52.80124699999999 38.31999999999999 54.96125099999999 36.920000000000016 56.56124999999999 34.84C56.44125 34.44001 56.20124899999999 34.24000000000001 55.72125 34.20000000000002M65.53187499999999 23.599999999999994C65.411875 23.75999999999999 65.131875 24.159999999999997 65.131875 23.599999999999994C65.131875 22.40001000000001 65.331875 20.560000000000002 65.331875 20.560000000000002C65.331875 20.360010000000017 65.17187399999999 20.24000000000001 64.85187499999999 20.24000000000001C63.731875999999986 20.680000000000007 62.091871999999995 21.040009999999995 59.331875 21.400000000000006C59.251875 21.640000000000015 59.331875 22.280010000000004 59.411874999999995 22.52000000000001C61.571871999999985 22.72 62.01187499999999 22.92000999999999 62.01187499999999 25.24000000000001L62.01187499999999 33.03999999999999C62.01187499999999 36.31999999999999 61.61187199999999 36.48000999999999 59.21187499999999 36.68000000000001C58.971875 36.920000000000016 58.971875 37.760009999999994 59.21187499999999 38C60.851873 37.96000000000001 61.891875999999996 37.920000000000016 63.611875 37.920000000000016C65.17187299999999 37.920000000000016 65.891876 37.96000000000001 67.57187499999999 38C67.81187399999999 37.760009999999994 67.81187399999999 36.920000000000016 67.57187499999999 36.68000000000001C65.531877 36.48000999999999 65.17187499999999 36.31999999999999 65.17187499999999 33.03999999999999L65.17187499999999 26.47999999999999C65.17187499999999 25.64000999999999 65.53187499999999 25.159999999999997 65.85187499999999 24.80000000000001C67.371873 23.320009999999996 68.93187599999999 22.439999999999998 70.491874 22.439999999999998C71.29187399999999 22.439999999999998 72.131874 22.96001000000001 72.61187399999999 23.879999999999995C73.01187399999999 24.680000000000007 73.09187399999999 25.760009999999994 73.09187399999999 26.960000000000008L73.09187399999999 33.03999999999999C73.09187399999999 36.31999999999999 72.691874 36.48000999999999 70.61187399999999 36.68000000000001C70.411874 36.920000000000016 70.411874 37.760009999999994 70.61187399999999 38C72.29187399999999 37.96000000000001 73.09187399999999 37.920000000000016 74.691874 37.920000000000016C76.33187399999998 37.920000000000016 77.211874 37.96000000000001 78.931874 38C79.131874 37.760009999999994 79.131874 36.920000000000016 78.931874 36.68000000000001C76.691874 36.48000999999999 76.25187399999999 36.31999999999999 76.25187399999999 33.03999999999999L76.25187399999999 27.080000000000013C76.25187399999999 24.88001 76.09187399999999 22.960000000000008 75.17187399999999 21.72C74.491874 20.840010000000007 73.25187399999999 20.360000000000014 71.851874 20.360000000000014C69.89187399999999 20.360000000000014 67.97187199999999 20.88001 65.53187499999999 23.599999999999994M95.49812399999999 34.28C95.338124 33.92000999999999 95.01812399999999 33.75999999999999 94.65812399999999 33.72C93.29812399999999 35.47999999999999 91.57812399999999 36.360000000000014 89.85812399999999 36.360000000000014C86.93812399999999 36.360000000000014 84.49812399999999 33.400000000000006 84.49812399999999 28.72C84.49812399999999 24.320009999999996 86.41812399999999 21.680000000000007 89.05812399999999 21.680000000000007C91.41812399999999 21.680000000000007 91.73812399999998 23.080010000000016 91.898124 24.47999999999999C92.01812399999999 25.560000000000002 92.57812399999999 25.920000000000016 93.41812399999999 25.920000000000016C94.258124 25.920000000000016 95.37812399999999 25.400000000000006 95.37812399999999 24.159999999999997C95.37812399999999 21.96001000000001 93.098124 20.360000000000014 89.258124 20.360000000000014C85.29812399999999 20.360000000000014 81.05812399999999 23.92000999999999 81.05812399999999 29.599999999999994C81.05812399999999 34.75999999999999 83.93813399999999 38.31999999999999 88.978124 38.31999999999999C91.37812399999999 38.31999999999999 93.49812399999999 37.56 95.49812399999999 34.28M100.131254 13.960000000000008C100.131254 15 101.09125399999998 16.039999999999992 102.05125399999999 16.039999999999992C103.17124399999999 16.039999999999992 104.131254 15 104.131254 14.120000000000005C104.131254 13.16001 103.29124399999999 12.039999999999992 102.21125399999998 12.039999999999992C101.251254 12.039999999999992 100.131254 13.000010000000003 100.131254 13.960000000000008M103.77125399999998 33.03999999999999L103.77125399999998 25.080000000000013C103.77125399999998 23.080010000000016 103.93125399999998 20.52000000000001 103.93125399999998 20.52000000000001C103.93125399999998 20.360010000000017 103.73125399999999 20.24000000000001 103.411254 20.24000000000001C102.251254 20.680000000000007 100.691244 21.040009999999995 97.93125399999998 21.400000000000006C97.851254 21.640000000000015 97.93125399999998 22.280010000000004 98.011254 22.52000000000001C100.17124399999999 22.75999999999999 100.61125399999999 22.96001000000001 100.61125399999999 25.24000000000001L100.61125399999999 33.03999999999999C100.61125399999999 36.360000000000014 100.17124399999999 36.48000999999999 97.73125399999999 36.68000000000001C97.491254 36.920000000000016 97.491254 37.760009999999994 97.73125399999999 38C99.411244 37.96000000000001 100.45125399999999 37.920000000000016 102.21125399999998 37.920000000000016C103.93124399999998 37.920000000000016 104.93125399999998 37.96000000000001 106.65125399999998 38C106.89125399999999 37.760009999999994 106.89125399999999 36.920000000000016 106.65125399999998 36.68000000000001C104.21125399999998 36.52001000000001 103.77125399999998 36.360000000000014 103.77125399999998 33.03999999999999M123.310624 34.28C123.15062399999998 33.92000999999999 122.83062399999999 33.75999999999999 122.470624 33.72C121.11062399999999 35.47999999999999 119.39062399999999 36.360000000000014 117.67062399999999 36.360000000000014C114.750624 36.360000000000014 112.310624 33.400000000000006 112.310624 28.72C112.310624 24.320009999999996 114.23062399999999 21.680000000000007 116.87062399999998 21.680000000000007C119.23062399999999 21.680000000000007 119.55062399999998 23.080010000000016 119.71062399999998 24.47999999999999C119.83062399999999 25.560000000000002 120.39062399999999 25.920000000000016 121.23062399999999 25.920000000000016C122.070624 25.920000000000016 123.190624 25.400000000000006 123.190624 24.159999999999997C123.190624 21.96001000000001 120.910624 20.360000000000014 117.070624 20.360000000000014C113.11062399999999 20.360000000000014 108.87062399999998 23.92000999999999 108.87062399999998 29.599999999999994C108.87062399999998 34.75999999999999 111.750634 38.31999999999999 116.790624 38.31999999999999C119.190624 38.31999999999999 121.310624 37.56 123.310624 34.28M128.143754 33.03999999999999C128.143754 36.360000000000014 127.70374399999999 36.56 125.26375399999999 36.68000000000001C125.02375399999998 36.920000000000016 125.02375399999998 37.760009999999994 125.26375399999999 38C126.943744 37.96000000000001 127.98375399999999 37.920000000000016 129.74375399999997 37.920000000000016C131.46374400000002 37.920000000000016 132.463754 37.96000000000001 134.18375399999996 38C134.42375399999997 37.760009999999994 134.42375399999997 36.920000000000016 134.18375399999996 36.68000000000001C131.74375399999997 36.56 131.30375399999997 36.360000000000014 131.30375399999997 33.03999999999999L131.30375399999997 14.599999999999994C131.30375399999997 12.000010000000003 131.463754 10.400000000000006 131.463754 10.400000000000006C131.463754 10.120010000000008 131.30375399999997 10 130.943754 10C129.943754 10.400000000000006 126.943744 10.960000000000008 125.343754 11.080000000000013C125.26375399999999 11.400000000000006 125.343754 12.040009999999995 125.58375399999998 12.280000000000001C127.663744 12.400000000000006 128.143754 12.200009999999992 128.143754 15.560000000000002L128.143754 33.03999999999999M136.530624 29.72C136.530624 33.80000000000001 139.290634 38.31999999999999 144.93062399999997 38.31999999999999C150.89061399999997 38.31999999999999 153.41062399999998 33.360000000000014 153.41062399999998 29.360000000000014C153.41062399999998 25.200009999999992 151.21061399999996 20.360000000000014 145.010624 20.360000000000014C139.610634 20.360000000000014 136.530624 24.64000999999999 136.530624 29.72M144.570624 21.680000000000007C148.010624 21.680000000000007 149.970624 24.760009999999994 149.970624 30.640000000000015C149.970624 35.920000000000016 147.530624 37 145.650624 37C141.49062399999997 37 139.970624 31.879999999999995 139.970624 28.80000000000001C139.970624 25.320009999999996 141.210624 21.680000000000007 144.570624 21.680000000000007M162.046874 24.52000000000001C163.286874 23.240010000000012 164.88687399999998 22.200000000000017 166.08687399999997 22.200000000000017C168.64687399999997 22.200000000000017 170.846874 25.080010000000016 170.846874 29.599999999999994C170.846874 32.879999999999995 169.686874 36.96000000000001 165.20687399999997 36.96000000000001C164.486874 36.96000000000001 163.08687399999997 36.75999999999999 162.366874 36.120000000000005C161.52687399999996 35.40001000000001 161.40687400000002 35.20000000000002 161.40687400000002 33.72L161.40687400000002 26.28C161.40687400000002 25.44001 161.52687399999996 25.080000000000013 162.046874 24.52000000000001M161.726874 23.200000000000017C161.56687399999998 23.360000000000014 161.32687399999998 23.400000000000006 161.32687399999998 23.080000000000013C161.32687399999998 21.64000999999999 161.486874 20.52000000000001 161.486874 20.52000000000001C161.486874 20.360010000000017 161.286874 20.24000000000001 160.96687400000002 20.24000000000001C159.846874 20.680000000000007 158.32687399999998 21.040009999999995 155.56687399999998 21.400000000000006C155.486874 21.640000000000015 155.56687399999998 22.280010000000004 155.64687399999997 22.52000000000001C157.806874 22.72 158.246874 22.96001000000001 158.246874 25.24000000000001L158.246874 42.31999999999999C158.246874 45.640000000000015 157.806874 45.84 155.366874 45.96000000000001C155.126874 46.20000000000002 155.126874 47.040009999999995 155.366874 47.28C157.046874 47.24000000000001 158.08687399999997 47.20000000000002 159.846874 47.20000000000002C161.726874 47.20000000000002 162.96687400000002 47.24000000000001 164.686874 47.28C164.926874 47.040009999999995 164.926874 46.20000000000002 164.686874 45.96000000000001C161.846874 45.800010000000015 161.40687400000002 45.640000000000015 161.40687400000002 42.31999999999999L161.40687400000002 38C161.40687400000002 37.48000999999999 161.52687399999996 37.560010000000005 161.96687400000002 37.72C162.926874 38.120000000000005 164.166874 38.31999999999999 165.44687399999998 38.31999999999999C167.686874 38.31999999999999 169.686874 37.640000000000015 171.32687399999998 36.08000000000001C173.20687399999997 34.24001000000001 174.286874 31.75999999999999 174.286874 28.52000000000001C174.286874 24.280010000000004 171.286874 20.360000000000014 167.20687399999997 20.360000000000014C165.726874 20.360000000000014 163.52687399999996 21.360010000000017 161.726874 23.200000000000017M181.10062399999998 26.640000000000015C181.86062399999997 22.120010000000008 184.66062399999998 21.75999999999999 185.62062399999996 21.75999999999999C187.140624 21.75999999999999 188.940624 22.600009999999997 188.940624 25.960000000000008C188.940624 26.319999999999993 188.780624 26.52000000000001 188.340624 26.52000000000001L181.10062399999998 26.640000000000015M191.580624 34.20000000000002C190.10062399999998 35.72 188.940624 36.360000000000014 186.62062399999996 36.360000000000014C185.18062399999997 36.360000000000014 183.50062400000002 35.52000000000001 182.260624 33.47999999999999C181.460624 32.16001 180.98062399999998 30.319999999999993 180.98062399999998 28L191.62062399999996 28.080000000000013C192.10062399999998 28.080000000000013 192.380624 27.840000000000003 192.380624 27.400000000000006C192.380624 24.040009999999995 191.18062399999997 20.439999999999998 185.62062399999996 20.439999999999998C182.140624 20.439999999999998 177.62062399999996 23.760009999999994 177.62062399999996 29.840000000000003C177.62062399999996 32.08000000000001 178.18062399999997 34.24001000000001 179.50062400000002 35.75999999999999C180.86062399999997 37.360000000000014 182.74062399999997 38.31999999999999 185.62062399999996 38.31999999999999C188.66062399999998 38.31999999999999 190.820624 36.920000000000016 192.42062399999998 34.84C192.30062399999997 34.44001 192.06062400000002 34.24000000000001 191.580624 34.20000000000002M208.065624 32.96000000000001C208.065624 33.72 207.98562399999997 34.040009999999995 207.42562399999997 34.52000000000001C205.945624 35.80000000000001 204.66562399999998 36.44 203.66562399999998 36.44C201.505624 36.44 199.265624 34.08000000000001 199.265624 29.080000000000013C199.265624 26.200009999999992 199.825624 24.599999999999994 200.42562399999997 23.75999999999999C201.66562399999998 21.88001 203.345624 21.75999999999999 204.145624 21.75999999999999C205.585624 21.75999999999999 206.585624 22.280010000000004 207.385624 23.200000000000017C207.945624 23.840000000000003 208.065624 24.120010000000008 208.065624 25.360000000000014L208.065624 32.96000000000001M207.62562400000002 35.920000000000016C207.78562399999998 35.760009999999994 208.10562399999998 35.68001000000001 208.10562399999998 35.96000000000001C208.10562399999998 36.920000000000016 208.54562399999998 38.31999999999999 208.54562399999998 38.31999999999999C208.86562399999997 38.44 208.98562399999997 38.400000000000006 209.30562399999997 38.31999999999999C210.18562400000002 37.60001 211.705624 37 214.145624 36.72C214.385624 36.48000999999999 214.385624 35.879999999999995 214.145624 35.640000000000015C211.585624 35.44001 211.22562399999998 34.68000000000001 211.22562399999998 32.72L211.22562399999998 14.599999999999994C211.22562399999998 12.000010000000003 211.385624 10.400000000000006 211.385624 10.400000000000006C211.385624 10.120010000000008 211.22562399999998 10 210.86562399999997 10C209.86562399999997 10.400000000000006 206.86562399999997 10.960000000000008 205.265624 11.080000000000013C205.18562400000002 11.400000000000006 205.265624 12.040009999999995 205.505624 12.280000000000001C207.585624 12.400000000000006 208.065624 12.200009999999992 208.065624 15.560000000000002L208.065624 20.680000000000007C208.065624 20.960000000000008 207.98562399999997 21.039999999999992 207.705624 21.039999999999992C207.54562399999998 21.039999999999992 205.905624 20.360000000000014 204.585624 20.360000000000014C201.945624 20.360000000000014 200.18562400000002 21.240010000000012 198.585624 22.75999999999999C196.86562399999997 24.47999999999999 195.825624 26.840010000000007 195.825624 29.80000000000001C195.825624 34.72 198.30562399999997 38.31999999999999 202.62562400000002 38.31999999999999C204.18562400000002 38.31999999999999 205.66562399999998 37.52000000000001 207.62562400000002 35.920000000000016M225.300004 11.080000000000013L222.26000399999998 15.840000000000003C221.940004 16.360000000000014 221.82000399999998 16.520010000000013 221.82000399999998 16.960000000000008C221.82000399999998 17.24000000000001 222.100004 17.47999999999999 222.38000399999999 17.47999999999999C222.66000400000001 17.47999999999999 222.980004 17.319999999999993 223.58000399999997 16.72L228.180004 12.360000000000014L228.060004 11.920000000000016C227.14000399999998 11.040009999999995 226.10000399999996 11 225.860004 11C225.66000400000001 11 225.420004 11.039999999999992 225.300004 11.080000000000013M219.46000399999997 26.640000000000015C220.21999399999999 22.120010000000008 223.02000399999997 21.75999999999999 223.980004 21.75999999999999C225.49999400000002 21.75999999999999 227.300004 22.600009999999997 227.300004 25.960000000000008C227.300004 26.319999999999993 227.14000399999998 26.52000000000001 226.70000399999998 26.52000000000001L219.46000399999997 26.640000000000015M229.940004 34.20000000000002C228.46000399999997 35.72 227.29999399999997 36.360000000000014 224.980004 36.360000000000014C223.540004 36.360000000000014 221.85999399999997 35.52000000000001 220.620004 33.47999999999999C219.82000399999998 32.16001 219.34000399999996 30.319999999999993 219.34000399999996 28L229.98000399999995 28.080000000000013C230.46000399999997 28.080000000000013 230.740004 27.840000000000003 230.740004 27.400000000000006C230.740004 24.040009999999995 229.53999399999998 20.439999999999998 223.980004 20.439999999999998C220.500004 20.439999999999998 215.980004 23.760009999999994 215.980004 29.840000000000003C215.980004 32.08000000000001 216.540004 34.24001000000001 217.860004 35.75999999999999C219.21999399999999 37.360000000000014 221.100004 38.31999999999999 223.980004 38.31999999999999C227.019994 38.31999999999999 229.180004 36.920000000000016 230.78000399999996 34.84C230.66000399999996 34.44001 230.420004 34.24000000000001 229.940004 34.20000000000002M235.99062399999997 13.960000000000008C235.99062399999997 15 236.950624 16.039999999999992 237.91062399999998 16.039999999999992C239.030624 16.039999999999992 239.99062399999997 15 239.99062399999997 14.120000000000005C239.99062399999997 13.16001 239.150624 12.039999999999992 238.07062399999995 12.039999999999992C237.11062399999997 12.039999999999992 235.99062399999997 13.000010000000003 235.99062399999997 13.960000000000008M239.63062399999995 33.03999999999999L239.63062399999995 25.080000000000013C239.63062399999995 23.080010000000016 239.79062399999998 20.52000000000001 239.79062399999998 20.52000000000001C239.79062399999998 20.360010000000017 239.590624 20.24000000000001 239.270624 20.24000000000001C238.11062399999997 20.680000000000007 236.55062399999997 21.040009999999995 233.79062399999998 21.400000000000006C233.710624 21.640000000000015 233.79062399999998 22.280010000000004 233.87062399999996 22.52000000000001C236.030624 22.75999999999999 236.470624 22.96001000000001 236.470624 25.24000000000001L236.470624 33.03999999999999C236.470624 36.360000000000014 236.030624 36.48000999999999 233.590624 36.68000000000001C233.35062399999998 36.920000000000016 233.35062399999998 37.760009999999994 233.590624 38C235.270624 37.96000000000001 236.31062399999996 37.920000000000016 238.07062399999995 37.920000000000016C239.79062399999998 37.920000000000016 240.79062399999998 37.96000000000001 242.51062399999995 38C242.75062399999996 37.760009999999994 242.75062399999996 36.920000000000016 242.51062399999995 36.68000000000001C240.07062399999995 36.52001000000001 239.63062399999995 36.360000000000014 239.63062399999995 33.03999999999999M254.97000399999996 28.599999999999994L254.97000399999996 33.920000000000016C254.97000399999996 34.44 254.73000399999995 34.72001 254.41000399999996 34.96000000000001C253.370004 35.80000000000001 252.00999399999995 36.68000000000001 250.89000399999998 36.68000000000001C248.89000399999998 36.68000000000001 248.01000399999998 35.08000000000001 248.01000399999998 33.84C248.01000399999998 32.040009999999995 248.85000399999996 30.24000000000001 251.810004 29.439999999999998L254.97000399999996 28.599999999999994M254.97000399999996 36C255.21000399999997 36.84 255.89000399999998 38.31999999999999 258.050004 38.31999999999999C260.00999399999995 38.31999999999999 261.450004 36.72 261.450004 36.52000000000001C261.450004 36.24001000000001 261.09000399999996 35.84 260.930004 35.84C260.690004 35.84 260.529994 36.47999999999999 259.690004 36.47999999999999C258.130004 36.47999999999999 258.09000399999996 34.920000000000016 258.09000399999996 33.08000000000001L258.09000399999996 27.120000000000005C258.09000399999996 21.44001 254.96999399999999 20.360000000000014 252.050004 20.360000000000014C248.77000399999997 20.360000000000014 245.45000399999998 22.64000999999999 245.45000399999998 24.80000000000001C245.45000399999998 25.75999999999999 245.930004 26.200000000000017 246.85000399999996 26.200000000000017C248.00999399999995 26.200000000000017 248.610004 25.400000000000006 248.610004 24.879999999999995C248.610004 24.600009999999997 248.57000399999998 24.319999999999993 248.490004 24.159999999999997C248.45000399999998 24.039999999999992 248.41000399999996 23.80000000000001 248.41000399999996 23.360000000000014C248.41000399999996 22.120010000000008 250.21000399999997 21.680000000000007 251.73000399999995 21.680000000000007C253.089994 21.680000000000007 254.97000399999996 22.360010000000017 254.97000399999996 26.879999999999995C254.97000399999996 27.159999999999997 254.85000399999996 27.319999999999993 254.73000399999995 27.360000000000014L251.29000399999995 28.200000000000017C247.45000399999998 29.159999999999997 244.690004 31.280010000000004 244.690004 34C244.690004 37.16 246.930004 38.31999999999999 249.73000399999995 38.31999999999999C251.56999399999995 38.31999999999999 252.33000399999997 38 254.09000399999996 36.640000000000015L254.89000399999998 36L254.97000399999996 36M275.331254 33.03999999999999C275.331254 36.360000000000014 274.891244 36.56 272.451254 36.68000000000001C272.211254 36.920000000000016 272.211254 37.760009999999994 272.451254 38C274.131244 37.96000000000001 275.171254 37.920000000000016 276.93125399999997 37.920000000000016C278.65124399999996 37.920000000000016 279.651254 37.96000000000001 281.37125399999996 38C281.611254 37.760009999999994 281.611254 36.920000000000016 281.37125399999996 36.68000000000001C278.93125399999997 36.56 278.49125399999997 36.360000000000014 278.49125399999997 33.03999999999999L278.49125399999997 14.599999999999994C278.49125399999997 12.000010000000003 278.651254 10.400000000000006 278.651254 10.400000000000006C278.651254 10.120010000000008 278.49125399999997 10 278.13125399999996 10C277.13125399999996 10.400000000000006 274.131244 10.960000000000008 272.531254 11.080000000000013C272.451254 11.400000000000006 272.531254 12.040009999999995 272.771254 12.280000000000001C274.85124399999995 12.400000000000006 275.331254 12.200009999999992 275.331254 15.560000000000002L275.331254 33.03999999999999M292.87812399999996 11.080000000000013L289.838124 15.840000000000003C289.518124 16.360000000000014 289.398124 16.520010000000013 289.398124 16.960000000000008C289.398124 17.24000000000001 289.67812399999997 17.47999999999999 289.958124 17.47999999999999C290.23812399999997 17.47999999999999 290.55812399999996 17.319999999999993 291.158124 16.72L295.75812399999995 12.360000000000014L295.638124 11.920000000000016C294.718124 11.040009999999995 293.67812399999997 11 293.43812399999996 11C293.23812399999997 11 292.99812399999996 11.039999999999992 292.87812399999996 11.080000000000013M287.038124 26.640000000000015C287.798124 22.120010000000008 290.598124 21.75999999999999 291.55812399999996 21.75999999999999C293.078124 21.75999999999999 294.87812399999996 22.600009999999997 294.87812399999996 25.960000000000008C294.87812399999996 26.319999999999993 294.718124 26.52000000000001 294.278124 26.52000000000001L287.038124 26.640000000000015M297.518124 34.20000000000002C296.038124 35.72 294.87812399999996 36.360000000000014 292.55812399999996 36.360000000000014C291.11812399999997 36.360000000000014 289.43812399999996 35.52000000000001 288.19812399999995 33.47999999999999C287.398124 32.16001 286.918124 30.319999999999993 286.918124 28L297.55812399999996 28.080000000000013C298.038124 28.080000000000013 298.31812399999995 27.840000000000003 298.31812399999995 27.400000000000006C298.31812399999995 24.040009999999995 297.11812399999997 20.439999999999998 291.55812399999996 20.439999999999998C288.078124 20.439999999999998 283.55812399999996 23.760009999999994 283.55812399999996 29.840000000000003C283.55812399999996 32.08000000000001 284.11812399999997 34.24001000000001 285.43812399999996 35.75999999999999C286.798124 37.360000000000014 288.67812399999997 38.31999999999999 291.55812399999996 38.31999999999999C294.598124 38.31999999999999 296.75812399999995 36.920000000000016 298.358124 34.84C298.23812399999997 34.44001 297.99812399999996 34.24000000000001 297.518124 34.20000000000002M306.92875399999997 23.400000000000006C307.96874399999996 22.480009999999993 309.168754 22.120000000000005 310.328754 22.120000000000005C312.76874399999997 22.120000000000005 314.768754 25.080010000000016 314.768754 28.960000000000008C314.768754 33.52000000000001 312.928744 36.96000000000001 309.12875399999996 36.96000000000001C307.888754 36.96000000000001 307.048744 36.08000000000001 306.24875399999996 35.08000000000001L306.24875399999996 25.080000000000013C306.24875399999996 24.240010000000012 306.408754 23.879999999999995 306.92875399999997 23.400000000000006M306.648754 22.159999999999997C306.36875399999997 22.400000000000006 306.24875399999996 22.319999999999993 306.24875399999996 21.960000000000008L306.24875399999996 14.599999999999994C306.24875399999996 12.000010000000003 306.408754 10.400000000000006 306.408754 10.400000000000006C306.408754 10.120010000000008 306.24875399999996 10 305.888754 10C304.888754 10.400000000000006 301.888744 10.960000000000008 300.288754 11.080000000000013C300.208754 11.400000000000006 300.288754 12.040009999999995 300.528754 12.280000000000001C302.608744 12.400000000000006 303.088754 12.200009999999992 303.088754 15.560000000000002L303.088754 35.08000000000001C303.088754 36.640000000000015 303.048754 37.36001000000002 302.92875399999997 37.920000000000016C303.12875399999996 38.24000000000001 303.328754 38.400000000000006 303.80875399999996 38.400000000000006C304.048754 38.20000999999999 304.44875399999995 37.80000000000001 304.728754 37.44C305.168754 36.96001000000001 305.408754 36.96001000000001 305.848754 37.360000000000014C306.72874399999995 38.120000000000005 307.92875399999997 38.31999999999999 309.36875399999997 38.31999999999999C313.448744 38.31999999999999 318.208754 34.599999999999994 318.208754 28.24000000000001C318.208754 23.360010000000017 314.608744 20.360000000000014 311.12875399999996 20.360000000000014C309.408754 20.360000000000014 307.888744 21.040009999999995 306.648754 22.159999999999997M323.656254 25.24000000000001L323.656254 33.03999999999999C323.656254 36.360000000000014 323.176244 36.52001000000001 320.69625399999995 36.68000000000001C320.456254 36.920000000000016 320.456254 37.760009999999994 320.69625399999995 38C322.376244 37.96000000000001 323.656254 37.920000000000016 325.25625399999996 37.920000000000016C326.89624399999997 37.920000000000016 328.37625399999996 37.96000000000001 330.096254 38C330.336254 37.760009999999994 330.336254 36.920000000000016 330.096254 36.68000000000001C327.296254 36.48000999999999 326.81625399999996 36.360000000000014 326.81625399999996 33.03999999999999L326.81625399999996 27.47999999999999C326.81625399999996 26.44001 327.296254 25.52000000000001 327.776254 24.80000000000001C328.216254 24.16001 329.13625399999995 22.840000000000003 329.61625399999997 22.840000000000003C329.896254 22.840000000000003 330.216254 22.88001 330.456254 23.120000000000005C330.856254 23.52000000000001 331.25625399999996 24.28 332.096254 24.28C333.056244 24.28 333.976254 23.28 333.976254 22.28C333.976254 21.520010000000013 333.256244 20.360000000000014 331.576254 20.360000000000014C329.69625399999995 20.360000000000014 328.056244 22.120010000000008 327.13625399999995 23.680000000000007C326.896254 24.120000000000005 326.776254 23.920000000000016 326.776254 23.72C326.776254 22.44001 326.976254 20.52000000000001 326.976254 20.52000000000001C326.976254 20.360010000000017 326.776254 20.24000000000001 326.456254 20.24000000000001C325.336254 20.680000000000007 323.736244 21.040009999999995 320.976254 21.400000000000006C320.896254 21.640000000000015 320.896254 22.280010000000004 321.05625399999997 22.52000000000001C323.21624399999996 22.72 323.656254 23.040009999999995 323.656254 25.24000000000001M346.22000399999996 28.599999999999994L346.22000399999996 33.920000000000016C346.22000399999996 34.44 345.98000399999995 34.72001 345.66000399999996 34.96000000000001C344.620004 35.80000000000001 343.25999399999995 36.68000000000001 342.140004 36.68000000000001C340.140004 36.68000000000001 339.260004 35.08000000000001 339.260004 33.84C339.260004 32.040009999999995 340.10000399999996 30.24000000000001 343.060004 29.439999999999998L346.22000399999996 28.599999999999994M346.22000399999996 36C346.46000399999997 36.84 347.140004 38.31999999999999 349.300004 38.31999999999999C351.25999399999995 38.31999999999999 352.700004 36.72 352.700004 36.52000000000001C352.700004 36.24001000000001 352.34000399999996 35.84 352.180004 35.84C351.940004 35.84 351.779994 36.47999999999999 350.940004 36.47999999999999C349.380004 36.47999999999999 349.34000399999996 34.920000000000016 349.34000399999996 33.08000000000001L349.34000399999996 27.120000000000005C349.34000399999996 21.44001 346.219994 20.360000000000014 343.300004 20.360000000000014C340.020004 20.360000000000014 336.700004 22.64000999999999 336.700004 24.80000000000001C336.700004 25.75999999999999 337.180004 26.200000000000017 338.10000399999996 26.200000000000017C339.25999399999995 26.200000000000017 339.860004 25.400000000000006 339.860004 24.879999999999995C339.860004 24.600009999999997 339.820004 24.319999999999993 339.740004 24.159999999999997C339.700004 24.039999999999992 339.66000399999996 23.80000000000001 339.66000399999996 23.360000000000014C339.66000399999996 22.120010000000008 341.46000399999997 21.680000000000007 342.98000399999995 21.680000000000007C344.339994 21.680000000000007 346.22000399999996 22.360010000000017 346.22000399999996 26.879999999999995C346.22000399999996 27.159999999999997 346.10000399999996 27.319999999999993 345.98000399999995 27.360000000000014L342.54000399999995 28.200000000000017C338.700004 29.159999999999997 335.940004 31.280010000000004 335.940004 34C335.940004 37.16 338.180004 38.31999999999999 340.98000399999995 38.31999999999999C342.81999399999995 38.31999999999999 343.580004 38 345.34000399999996 36.640000000000015L346.140004 36L346.22000399999996 36 " id="subline" style="font-size:40px;font-style:normal;font-variant:normal;font-weight:normal;font-stretch:normal;fill:#000000;fill-opacity:1;stroke:none;stroke-width:1px;stroke-linecap:butt;stroke-linejoin:miter;stroke-opacity:1;font-family:Sans;-inkscape-font-specification:Sans"></path>
</svg>