<?xml version="1.0" encoding="UTF-8" standalone="no"?>
<svg
	xmlns="http://www.w3.org/2000/svg"
	xmlns:dc="http://purl.org/dc/elements/1.1/"
	xmlns:cc="http://creativecommons.org/ns#"
	xmlns:rdf="http://www.w3.org/1999/02/22-rdf-syntax-ns#"
	xmlns:svg="http://www.w3.org/2000/svg"
	xmlns:xlink="http://www.w3.org/1999/xlink"
	xmlns:sodipodi="http://sodipodi.sourceforge.net/DTD/sodipodi-0.dtd"
	xmlns:inkscape="http://www.inkscape.org/namespaces/inkscape"
	version="1.1"
	viewBox="0 0 138.99993010003735 32.092046828268735">
	<path d="M12.112463100037347 14.420296828580717C12.089983100037347 14.454396828580713 12.063443100037349 14.483696828580719 12.032843100037347 14.50799682858073C12.002233100037348 14.532396828580715 11.985443100037347 14.502996828580734 11.982473100037348 14.420296828580717C11.985173100037347 14.20850682858071 11.996013100037347 13.995096828580728 12.014973100037349 13.780056828580712C12.033933100037348 13.565016828580724 12.044763100037347 13.44910682858071 12.047473100037347 13.432306828580721C12.047471100037347 13.365106828580736 11.995473100037348 13.330476828580714 11.891475100037347 13.328306828580736C11.713538100037347 13.399306828580734 11.481166100037347 13.465356828580724 11.194359100037348 13.526556828580738C10.907548600037348 13.587756828580723 10.541928700037348 13.647356828580712 10.097498100037347 13.705306828580717C10.085581100037349 13.749706828580713 10.083414100037349 13.810386828580732 10.090998100037348 13.887306828580734C10.098578100037347 13.964206828580728 10.109414100037348 14.024886828580719 10.123498100037347 14.069296828580718C10.465826300037348 14.087396828580722 10.694406500037347 14.14869682858071 10.809239300037348 14.252926828580712C10.924069900037347 14.357196828580726 10.977152500037347 14.59064682858073 10.968487200037348 14.95328682858073L10.968487200037348 17.488256828580717C10.979319200037347 17.999856828580732 10.925153200037348 18.32213682858071 10.805989100037348 18.455116828580714C10.686823000037348 18.588096828580717 10.437659900037348 18.660136828580733 10.058499000037347 18.67123682858073C10.019499000037348 18.718336828580732 9.999999000037347 18.789866828580728 10.000000000037348 18.88573682858072C9.999999900037349 18.98163682858072 10.019500000037347 19.053106828580724 10.058499000037347 19.100236828580734C10.316328200037347 19.09323682858073 10.551408300037348 19.08753682858071 10.763739700037348 19.082336828580736C10.976069000037347 19.077336828580712 11.217649100037347 19.074336828580726 11.488480100037348 19.074336828580726C11.729787100037347 19.074606828580727 11.939409100037347 19.077336828580712 12.117347100037348 19.082336828580736C12.295279100037348 19.08733682858073 12.514651100037348 19.093436828580735 12.775463100037348 19.100236828580734C12.814463100037347 19.053136828580733 12.833963100037348 18.981606828580738 12.833963100037348 18.88573682858072C12.833960100037348 18.789836828580718 12.814463100037347 18.718366828580713 12.775463100037348 18.67123682858073C12.452902100037347 18.660136828580733 12.240030100037348 18.58813682858073 12.136847100037347 18.455116828580714C12.033658100037348 18.32213682858071 11.986534100037348 17.999856828580732 11.995474100037347 17.488256828580717L11.995474100037347 15.356286828580721C11.998174100037348 15.221416828580715 12.022014100037348 15.110916828580713 12.066974100037347 15.024786828580716C12.111934100037347 14.938686828580728 12.161764100037347 14.867166828580736 12.216473100037348 14.810286828580729C12.463738100037348 14.567906828580732 12.713443100037347 14.379946828580728 12.965588100037348 14.246426828580724C13.217727100037347 14.11290682858072 13.470682100037347 14.045196828580714 13.724453100037348 14.043296828580736C13.857156100037347 14.044116828580712 13.984987100037348 14.084696828580718 14.107948100037348 14.165176828580712C14.230900100037347 14.24557682858071 14.332732100037347 14.360986828580735 14.413444100037347 14.511296828580726C14.476814100037348 14.642376828580723 14.519063100037348 14.792956828580714 14.540193100037348 14.963036828580726C14.561313100037347 15.133126828580714 14.571063100037348 15.316206828580732 14.569443100037347 15.512276828580724L14.569443100037347 17.488256828580717C14.578143100037348 17.999856828580732 14.528273100037348 18.32213682858071 14.419945100037348 18.455116828580714C14.311608100037347 18.588096828580717 14.092778100037348 18.660136828580733 13.763454100037348 18.67123682858073C13.730954100037348 18.718336828580732 13.714704100037348 18.789866828580728 13.714704100037348 18.88573682858072C13.714701100037347 18.98163682858072 13.730954100037348 19.053106828580724 13.763454100037348 19.100236828580734C14.025071100037348 19.09323682858073 14.249318100037348 19.08753682858071 14.436195100037347 19.082336828580736C14.623063100037347 19.077336828580712 14.840810100037348 19.074336828580726 15.089437100037348 19.074336828580726C15.345094100037347 19.074606828580727 15.571508100037347 19.077336828580712 15.768678100037347 19.082336828580736C15.965836100037349 19.08733682858073 16.198749100037347 19.093436828580735 16.467419100037347 19.100236828580734C16.49990910003735 19.053136828580733 16.51615910003735 18.981606828580738 16.516169100037345 18.88573682858072C16.516163100037346 18.789836828580718 16.49990910003735 18.718366828580713 16.467419100037347 18.67123682858073C16.11262510003735 18.660136828580733 15.876462100037347 18.58813682858073 15.758928100037348 18.455116828580714C15.641382100037347 18.32213682858071 15.587216100037347 17.999856828580732 15.596430100037347 17.488256828580717L15.596430100037347 15.551276828580711C15.600530100037348 15.19107682858072 15.579360100037349 14.861756828580724 15.533060100037348 14.563296828580718C15.486740100037348 14.264846828580716 15.390869100037348 14.01351682858072 15.245439100037348 13.80930682858073C15.132226100037348 13.665766828580729 14.981645100037348 13.556356828580732 14.793694100037348 13.481056828580734C14.605734100037347 13.405756828580735 14.396653100037348 13.367856828580727 14.166453100037348 13.367306828580723C13.851744100037347 13.355906828580714 13.528915100037347 13.420906828580712 13.197965100037347 13.562306828580716C12.867008100037348 13.703686828580715 12.505179100037347 13.989676828580713 12.112479100037348 14.420296828580717L12.112463100037347 14.420296828580717ZM17.669918100037346 16.409266828580712C17.66910510003735 17.105846828580724 17.894977100037348 17.737416828580734 18.347535100037348 18.303996828580722C18.800090100037348 18.870566828580735 19.484205100037347 19.170646828580715 20.399883100037346 19.20423682858072C21.362137100037348 19.164136828580723 22.063586100037348 18.84132682858072 22.504231100037348 18.235746828580716C22.944865100037347 17.630166828580712 23.16207110003735 16.982346828580717 23.155848100037346 16.292266828580722C23.168028100037347 15.578906828580728 22.964907100037347 14.922416828580737 22.546481100037347 14.32279682858072C22.12804310003735 13.723186828580737 21.42117810003735 13.404686828580736 20.425883100037346 13.367306828580723C19.543246100037347 13.390906828580711 18.86454710003735 13.69149682858071 18.389784100037346 14.269176828580726C17.915018100037347 14.846856828580712 17.67506310003735 15.560216828580735 17.669918100037346 16.409266828580712L17.669918100037346 16.409266828580712ZM20.282885100037348 13.796306828580725C20.84512410003735 13.798306828580735 21.277368100037346 14.044656828580713 21.579618100037347 14.53566682858073C21.881859100037346 15.026686828580722 22.03460710003735 15.750886828580718 22.037862100037348 16.70826682858072C22.017542100037346 17.54512682858072 21.85992210003735 18.104126828580718 21.56499310003735 18.385246828580733C21.270055100037347 18.66636682858072 20.959685100037348 18.796366828580716 20.63388010003735 18.775236828580717C20.18546310003735 18.76083682858072 19.82564110003735 18.604716828580735 19.554413100037348 18.30676682858072C19.283179100037348 18.00880682858073 19.087059100037347 17.655246828580715 18.966050100037346 17.246076828580726C18.84503710003735 16.836906828580737 18.78565510003735 16.45830682858073 18.78790410003735 16.110276828580737C18.781904100037348 15.519056828580716 18.894609100037346 14.992016828580716 19.12590010003735 14.529166828580713C19.357186100037346 14.066326828580713 19.74284710003735 13.822036828580735 20.282885100037348 13.796306828580725L20.282885100037348 13.796306828580725ZM25.317092100037346 11.28733682858072C25.32359210003735 11.463386828580724 25.388592100037346 11.618296828580725 25.512089100037347 11.752076828580726C25.635586100037347 11.885876828580734 25.778584100037346 11.956296828580719 25.941084100037347 11.963326828580733C26.12849610003735 11.954326828580719 26.28666010003735 11.88472682858071 26.415577100037346 11.754196828580717C26.544490100037347 11.623636828580715 26.611656100037347 11.485346828580731 26.617075100037347 11.339336828580713C26.612975100037346 11.174676828580715 26.552885100037347 11.023016828580722 26.436702100037348 10.884336828580729C26.320514100037347 10.745686828580716 26.172641100037346 10.672016828580723 25.993083100037346 10.663346828580728C25.82841710003735 10.670346828580733 25.676752100037348 10.734846828580714 25.538089100037347 10.858336828580718C25.399423100037346 10.981846828580728 25.325757100037347 11.12484682858073 25.317092100037346 11.28733682858072ZM26.500076100037347 17.488256828580717L26.500076100037347 14.897386828580721C26.50227610003735 14.553146828580736 26.51090610003735 14.226036828580732 26.526076100037347 13.91606682858071C26.54123610003735 13.606106828580721 26.549906100037347 13.440516828580712 26.552076100037347 13.419306828580716C26.55153210003735 13.392806828580717 26.53636610003735 13.371106828580736 26.506576100037346 13.354306828580718C26.476786100037348 13.337506828580729 26.435616100037347 13.328806828580724 26.38307810003735 13.328306828580736C26.202838100037347 13.399306828580734 25.97182110003735 13.465356828580724 25.69002410003735 13.526556828580738C25.40822510003735 13.587756828580723 25.04558410003735 13.647356828580712 24.60210110003735 13.705306828580717C24.59018110003735 13.749706828580713 24.58802110003735 13.810386828580732 24.59560110003735 13.887306828580734C24.60320110003735 13.964206828580728 24.61402110003735 14.024886828580719 24.628101100037348 14.069296828580718C24.973273100037346 14.088796828580712 25.202666100037348 14.151796828580729 25.316280100037346 14.258286828580736C25.429892100037346 14.36475682858071 25.482162100037346 14.596416828580715 25.473091100037347 14.95328682858073L25.473091100037347 17.488256828580717C25.48365110003735 18.00554682858072 25.42678110003735 18.32945682858073 25.302467100037347 18.459996828580728C25.178155100037348 18.590536828580724 24.92303410003735 18.660946828580734 24.53710310003735 18.67123682858073C24.498103100037348 18.718336828580732 24.478603100037347 18.789866828580728 24.478603100037347 18.88573682858072C24.478603100037347 18.98163682858072 24.498103100037348 19.053106828580724 24.53710310003735 19.100236828580734C24.800890100037346 19.09323682858073 25.04030310003735 19.08753682858071 25.255343100037347 19.082336828580736C25.470381100037347 19.077336828580712 25.71629410003735 19.074336828580726 25.993084100037347 19.074336828580726C26.262828100037346 19.074606828580727 26.503325100037348 19.077336828580712 26.714574100037346 19.082336828580736C26.925819100037348 19.08733682858073 27.16631610003735 19.093436828580735 27.436065100037347 19.100236828580734C27.475065100037348 19.053136828580733 27.49456510003735 18.981606828580738 27.49456510003735 18.88573682858072C27.49456210003735 18.789836828580718 27.475065100037348 18.718366828580713 27.436065100037347 18.67123682858073C27.050130100037347 18.666236828580736 26.795008100037347 18.59783682858071 26.670700100037347 18.46486682858071C26.546387100037347 18.331886828580735 26.489513100037346 18.00635682858072 26.50007710003735 17.488256828580717L26.500076100037347 17.488256828580717ZM32.63819410003735 13.328306828580736C32.621294100037346 13.329306828580712 32.60439410003735 13.338706828580712 32.58749410003735 13.355606828580733C32.57059410003735 13.372506828580725 32.56149410003735 13.389406828580718 32.56019410003735 13.40630682858071C32.55289410003735 13.693936828580718 32.53175410003735 13.973426828580727 32.49681410003735 14.244796828580718C32.46187410003735 14.516176828580711 32.41800410003735 14.808666828580726 32.36519110003735 15.122286828580712C32.423691100037345 15.147086828580711 32.49063910003735 15.163786828580726 32.566038100037346 15.17248682858073C32.64143810003735 15.181486828580717 32.71748610003735 15.177486828580726 32.79418610003735 15.161286828580728C32.92743310003735 14.695186828580717 33.08668110003735 14.37290682858071 33.27193010003735 14.194426828580731C33.457176100037344 14.015946828580724 33.64892310003735 13.930906828580731 33.84717210003734 13.939296828580723L35.64114910003735 13.939296828580723L32.44319010003735 18.658236828580726C32.39282010003735 18.733236828580715 32.36032010003735 18.78796682858072 32.345690100037345 18.822366828580726C32.33106010003735 18.85676682858073 32.324560100037345 18.88866682858071 32.32619010003735 18.918266828580727C32.32646010003735 18.96456682858073 32.35192010003735 19.00196682858072 32.40256010003735 19.03038682858073C32.45320010003735 19.058786828580736 32.52741210003735 19.073486828580712 32.62518210003735 19.07428682858071L36.68113010003735 19.07428682858071C36.713080100037345 18.871436828580727 36.76292010003735 18.620646828580732 36.830628100037345 18.321916828580726C36.89832810003735 18.023196828580723 36.98716210003735 17.684656828580728 37.09712410003735 17.306306828580716C37.05365410003735 17.281506828580717 36.99758410003734 17.260306828580724 36.928939100037354 17.24280682858071C36.860279100037346 17.225306828580727 36.786342100037345 17.216106828580735 36.70712910003735 17.215306828580736L36.53813110003735 17.592306828580718C36.39512910003735 17.93707682858073 36.235881100037346 18.196526828580716 36.06038810003734 18.37066682858071C35.88488610003735 18.544816828580736 35.61514010003735 18.63201682858073 35.25114810003734 18.63228682858073L33.52217010003734 18.63228682858073L36.64213010003735 14.043346828580724C36.75072810003735 13.875986828580722 36.826018100037345 13.749236828580734 36.868002100037344 13.663106828580737C36.90997210003735 13.577006828580721 36.93002210003735 13.521736828580714 36.92812210003734 13.497356828580735C36.927305100037344 13.470856828580736 36.912682100037344 13.449156828580726 36.884252100037344 13.432356828580737C36.855812100037355 13.41555682858072 36.81843210003734 13.406856828580715 36.77212810003735 13.406356828580726C36.73149810003734 13.410356828580717 36.62750110003735 13.425356828580732 36.46013210003734 13.45185682858073C36.292755100037354 13.478456828580732 36.110758100037344 13.493556828580722 35.91414010003734 13.497356828580735L33.27517310003735 13.497356828580735C33.08028310003735 13.493356828580716 32.950393100037346 13.470456828580723 32.88550310003735 13.429456828580726C32.82061310003735 13.388456828580729 32.73817110003735 13.354756828580719 32.63818210003735 13.32837682858073L32.63819410003735 13.328306828580736ZM38.98435510003735 11.28733682858072C38.99085510003735 11.463386828580724 39.05585510003735 11.618296828580725 39.17935210003735 11.752076828580726C39.30284910003735 11.885876828580734 39.44584710003734 11.956296828580719 39.60834710003735 11.963326828580733C39.795759100037344 11.954326828580719 39.95392310003734 11.88472682858071 40.082840100037345 11.754196828580717C40.21175310003734 11.623636828580715 40.27891910003734 11.485346828580731 40.284338100037345 11.339336828580713C40.28023810003735 11.174676828580715 40.22014810003735 11.023016828580722 40.10396510003734 10.884336828580729C39.98777710003735 10.745686828580716 39.839904100037344 10.672016828580723 39.660346100037344 10.663346828580728C39.49568010003735 10.670346828580733 39.34401510003735 10.734846828580714 39.205352100037345 10.858336828580718C39.066686100037344 10.981846828580728 38.99302010003734 11.12484682858073 38.98435510003735 11.28733682858072L38.98435510003735 11.28733682858072ZM40.16733910003735 17.488256828580717L40.16733910003735 14.897386828580721C40.169539100037355 14.553146828580736 40.17816910003735 14.226036828580732 40.19333910003735 13.91606682858071C40.20849910003734 13.606106828580721 40.21716910003735 13.440516828580712 40.219339100037345 13.419306828580716C40.218795100037354 13.392806828580717 40.20362910003735 13.371106828580736 40.17383910003734 13.354306828580718C40.14404910003735 13.337506828580729 40.10287910003734 13.328806828580724 40.05034110003734 13.328306828580736C39.870101100037346 13.399306828580734 39.63908410003735 13.465356828580724 39.357287100037354 13.526556828580738C39.07548810003735 13.587756828580723 38.71284710003735 13.647356828580712 38.26936410003735 13.705306828580717C38.25744410003735 13.749706828580713 38.25528410003734 13.810386828580732 38.26286410003735 13.887306828580734C38.270464100037344 13.964206828580728 38.281284100037354 14.024886828580719 38.29536410003735 14.069296828580718C38.64053610003735 14.088796828580712 38.86992910003735 14.151796828580729 38.98354310003735 14.258286828580736C39.09715510003734 14.36475682858071 39.14942510003735 14.596416828580715 39.14035410003734 14.95328682858073L39.14035410003734 17.488256828580717C39.150914100037355 18.00554682858072 39.09404410003735 18.32945682858073 38.96973110003735 18.459996828580728C38.84541810003735 18.590536828580724 38.59029710003735 18.660946828580734 38.20436610003735 18.67123682858073C38.165366100037346 18.718336828580732 38.14586610003735 18.789866828580728 38.14586610003735 18.88573682858072C38.14586610003735 18.98163682858072 38.165366100037346 19.053106828580724 38.20436610003735 19.100236828580734C38.46815310003734 19.09323682858073 38.707566100037354 19.08753682858071 38.92260610003734 19.082336828580736C39.13764410003735 19.077336828580712 39.38355710003735 19.074336828580726 39.66034710003734 19.074336828580726C39.930091100037345 19.074606828580727 40.17058810003735 19.077336828580712 40.381837100037345 19.082336828580736C40.59308210003735 19.08733682858073 40.833579100037355 19.093436828580735 41.103328100037345 19.100236828580734C41.142328100037346 19.053136828580733 41.161828100037354 18.981606828580738 41.161828100037354 18.88573682858072C41.16182510003735 18.789836828580718 41.142328100037346 18.718366828580713 41.103328100037345 18.67123682858073C40.71739310003734 18.666236828580736 40.46227110003734 18.59783682858071 40.33796310003734 18.46486682858071C40.21365010003734 18.331886828580735 40.15677610003735 18.00635682858072 40.16734010003735 17.488256828580717L40.16733910003735 17.488256828580717ZM44.07803710003735 17.488256828580717L44.07803710003735 14.00429682858072L45.28702210003735 14.00429682858072C45.350662100037354 14.004576828580724 45.415121100037354 13.990996828580734 45.480394100037344 13.963696828580737C45.54566410003734 13.936296828580737 45.58086810003735 13.893596828580712 45.58601810003735 13.835326828580719L45.58601810003735 13.575326828580728C45.58381810003735 13.523326828580736 45.54917810003735 13.497326828580725 45.48201910003735 13.497326828580725L44.07803710003735 13.497326828580725L44.07803710003735 12.756336828580714C44.09401710003735 11.784066828580734 44.21155410003735 11.14815682858071 44.43065810003735 10.848606828580728C44.64975710003735 10.549086828580727 44.87454510003735 10.413666828580716 45.105024100037355 10.442366828580731C45.296768100037355 10.439366828580717 45.45276610003735 10.484366828580733 45.573018100037345 10.577236828580737C45.69326310003734 10.670136828580723 45.797261100037346 10.828846828580737 45.88501410003735 11.053356828580718C45.93511410003735 11.173076828580719 46.00065410003735 11.271656828580717 46.08163710003734 11.349106828580716C46.16260710003735 11.42660682858073 46.27040110003735 11.46665682858071 46.40500710003735 11.469356828580715C46.523897100037345 11.463356828580714 46.64035410003734 11.407056828580721 46.75437810003734 11.300356828580732C46.868392100037354 11.193656828580714 46.92960010003735 11.072326828580714 46.938001100037354 10.936356828580728C46.937725100037355 10.825056828580728 46.90252110003735 10.712936828580723 46.83237710003735 10.599986828580711C46.76222710003735 10.487066828580737 46.658770100037344 10.378186828580738 46.522006100037345 10.27336682858072C46.35625310003735 10.159626828580713 46.18075610003734 10.084876828580718 45.99551310003734 10.049116828580736C45.81026110003735 10.013416828580716 45.59576410003734 9.997116828580715 45.35202110003735 10.000416828580711C44.77840110003734 9.997416828580725 44.25840810003734 10.240376828580736 43.79204110003735 10.728406828580717C43.325671100037354 11.216446828580729 43.07867410003735 11.966106828580735 43.05105110003734 12.97737682858073L43.05105110003734 13.497366828580738L42.38805910003735 13.497366828580738C42.273227100037346 13.501366828580728 42.19414410003735 13.532066828580724 42.15081210003734 13.588366828580718C42.107482100037345 13.64466682858071 42.086892100037346 13.701036828580726 42.08906210003735 13.757366828580729L42.08906210003735 13.926356828580737C42.08852010003734 13.958056828580737 42.09286210003735 13.979156828580727 42.102062100037344 13.98975682858071C42.11126210003735 14.00035682858072 42.12860210003734 14.005156828580738 42.15406210003735 14.004356828580711L43.05105110003734 14.004356828580711L43.05105110003734 17.488316828580736C43.059751100037346 18.00641682858071 43.00663110003735 18.331946828580726 42.89180310003735 18.46492682858073C42.776970100037346 18.597906828580733 42.548389100037355 18.66669682858071 42.20606210003734 18.671296828580722C42.16706210003734 18.718396828580723 42.14756210003735 18.789926828580718 42.14756210003735 18.885796828580737C42.14756210003735 18.981696828580738 42.16706210003734 19.053166828580714 42.20606210003734 19.100296828580724C42.468495100037345 19.09329682858072 42.69761710003735 19.08759682858073 42.893428100037355 19.082396828580727C43.08923710003735 19.07739682858073 43.31510810003735 19.074396828580717 43.57104410003734 19.074396828580717C43.86164210003734 19.074666828580717 44.122180100037355 19.07739682858073 44.35265910003734 19.082396828580727C44.583132100037346 19.087396828580722 44.833921100037344 19.093496828580726 45.105024100037355 19.100296828580724C45.14402410003734 19.053196828580724 45.16352410003735 18.981666828580728 45.16352410003735 18.885796828580737C45.16352110003734 18.789896828580737 45.14402410003734 18.718426828580732 45.105024100037355 18.671296828580722C44.67548510003735 18.666296828580727 44.393822100037355 18.59789682858073 44.26003510003734 18.46492682858073C44.12624310003734 18.331946828580726 44.065577100037345 18.00641682858071 44.07803710003735 17.488316828580736L44.07803710003735 17.488256828580717ZM47.59956010003735 14.95328682858073L47.59956010003735 17.488256828580717C47.60985010003735 18.00635682858072 47.55027010003735 18.331886828580735 47.42081210003735 18.46486682858071C47.29135410003735 18.597846828580714 47.030274100037346 18.66663682858072 46.637572100037346 18.67123682858073C46.598572100037345 18.718336828580732 46.57907210003735 18.789866828580728 46.57907210003735 18.88573682858072C46.57907110003735 18.98163682858072 46.598572100037345 19.053106828580724 46.637572100037346 19.100236828580734C46.905693100037354 19.09323682858073 47.155939100037344 19.08753682858071 47.38831210003735 19.082336828580736C47.620683100037354 19.077336828580712 47.86443010003735 19.074336828580726 48.11955310003735 19.074336828580726C48.38333910003735 19.074606828580727 48.642252100037354 19.077336828580712 48.896293100037354 19.082336828580736C49.15032810003734 19.08733682858073 49.41574110003735 19.093436828580735 49.69253310003735 19.100236828580734C49.73152310003735 19.053136828580733 49.75103310003735 18.981606828580738 49.75103310003735 18.88573682858072C49.75102910003734 18.789836828580718 49.73153310003735 18.718366828580713 49.69253310003735 18.67123682858073C49.249993100037344 18.66093682858073 48.95858110003735 18.590536828580724 48.81829310003735 18.459996828580728C48.67800110003735 18.32945682858073 48.614086100037355 18.005536828580716 48.626546100037345 17.488256828580717L48.626546100037345 15.681276828580735C48.62974610003735 15.511746828580726 48.66229610003735 15.353576828580714 48.72404610003734 15.206786828580732C48.785796100037345 15.059996828580722 48.857291100037344 14.927836828580723 48.93854310003735 14.810286828580729C49.01627310003735 14.692756828580713 49.114309100037346 14.56058682858071 49.23266510003735 14.413796828580729C49.35101410003735 14.267006828580719 49.45230410003735 14.186846828580713 49.53653610003735 14.173296828580732C49.582846100037344 14.172296828580727 49.62996610003735 14.177296828580722 49.677909100037354 14.18949682858073C49.72583910003735 14.201396828580727 49.76971910003735 14.226296828580729 49.809532100037345 14.264196828580737C49.87155210003735 14.33679682858073 49.94250610003735 14.415866828580732 50.02240410003735 14.501446828580725C50.10229410003734 14.587046828580725 50.20900210003735 14.633616828580728 50.34252510003735 14.641196828580718C50.50447710003735 14.634196828580713 50.64530910003735 14.566696828580717 50.76502010003735 14.43806682858073C50.88472210003735 14.309426828580712 50.94755410003735 14.160476828580727 50.953517100037345 13.991196828580712C50.95511710003734 13.856576828580728 50.893387100037344 13.721536828580724 50.76827010003734 13.586096828580736C50.64314210003735 13.450656828580719 50.44489510003734 13.377696828580724 50.17352710003735 13.36720682858072C49.86477810003734 13.380506828580735 49.58528110003735 13.496946828580718 49.33503810003735 13.716576828580713C49.08478910003734 13.936226828580715 48.883291100037354 14.17943682858072 48.730546100037344 14.446196828580725C48.69154610003734 14.51339682858071 48.66229610003735 14.541496828580733 48.642796100037344 14.530696828580716C48.62329610003735 14.519896828580727 48.613546100037354 14.49599682858073 48.613546100037354 14.45919682858073C48.616246100037344 14.233866828580716 48.627086100037346 14.00853682858073 48.64604610003735 13.783206828580717C48.665006100037346 13.557876828580731 48.675836100037344 13.436546828580731 48.67854610003735 13.419206828580712C48.67800210003735 13.392706828580714 48.66283610003735 13.371006828580732 48.63304610003735 13.354206828580715C48.60325610003734 13.337406828580725 48.56208610003735 13.32870682858072 48.50954810003735 13.328206828580733C48.33215210003735 13.39920682858073 48.10194710003735 13.46525682858072 47.81893110003735 13.526456828580734C47.53591310003735 13.58765682858072 47.17246010003734 13.647256828580737 46.72857110003734 13.705206828580714C46.71503110003735 13.74960682858071 46.70961110003735 13.810286828580729 46.71232110003734 13.88720682858073C46.71502110003735 13.964106828580725 46.72911110003734 14.024786828580716 46.75457110003735 14.069196828580715C47.096900100037345 14.089796828580717 47.32548010003735 14.155896828580723 47.44031310003734 14.267446828580717C47.55514310003734 14.379036828580723 47.60822610003734 14.607616828580717 47.59956110003735 14.953186828580726L47.59956010003735 14.95328682858073ZM53.19517410003735 15.408286828580714C53.34494210003734 14.69952682858073 53.581647100037344 14.25157682858071 53.90529010003735 14.064426828580736C54.228930100037346 13.877286828580736 54.48188410003735 13.796576828580726 54.664156100037346 13.822306828580736C54.92523210003735 13.810906828580727 55.16681210003735 13.901906828580735 55.38889610003734 14.095296828580729C55.61097310003734 14.28867682858072 55.729054100037345 14.65266682858072 55.743142100037346 15.18728682858071C55.74395010003735 15.245886828580723 55.72932210003735 15.29052682858071 55.69927210003735 15.321186828580721C55.66920210003735 15.351886828580717 55.61883210003735 15.367886828580737 55.54814910003735 15.369286828580726L53.19517410003735 15.408286828580714ZM56.60113110003735 17.865246828580723C56.37065010003735 18.110626828580735 56.136111100037354 18.28936682858071 55.89751510003735 18.40149682858072C55.65890910003735 18.513616828580723 55.356122100037354 18.568866828580724 54.98915110003735 18.56724682858072C54.75054710003735 18.56924682858073 54.506259100037354 18.496546828580733 54.25628610003734 18.34786682858072C54.00630710003735 18.199186828580736 53.77826910003735 17.960316828580716 53.572170100037354 17.631256828580717C53.44108610003735 17.41648682858073 53.33925410003735 17.160286828580723 53.26667310003735 16.86263682858072C53.19409310003735 16.564996828580718 53.157256100037344 16.227546828580728 53.156175100037345 15.850276828580718L56.61413010003734 15.876276828580728C56.69267010003735 15.876006828580728 56.753332100037355 15.857076828580716 56.79612810003735 15.819376828580715C56.83891810003735 15.781676828580714 56.860578100037344 15.726976828580717 56.86112810003735 15.655246828580715C56.882518100037345 15.083256828580716 56.74222910003735 14.569766828580725 56.44025910003735 14.114766828580713C56.13827910003735 13.659776828580732 55.54624510003735 13.41928682858071 54.66415710003734 13.393276828580724C54.06101610003735 13.397276828580715 53.486315100037345 13.659236828580731 52.940053100037346 14.17976682858071C52.39378910003735 14.700306828580722 52.10183510003735 15.456466828580716 52.06419010003735 16.44823682858072C52.06279010003735 16.816026828580732 52.11104010003734 17.165936828580726 52.20881310003735 17.497976828580732C52.306583100037344 17.83001682858071 52.46203810003735 18.121426828580724 52.67518210003735 18.37221682858072C52.89292810003735 18.634376828580713 53.16267410003735 18.83804682858073 53.48442210003735 18.983206828580734C53.80616510003735 19.12836682858071 54.199410100037355 19.20203682858073 54.66415710003734 19.204206828580737C55.155980100037354 19.199206828580714 55.58280710003734 19.09532682858071 55.94464010003735 18.892206828580726C56.306464100037346 18.689086828580713 56.61629310003735 18.416086828580717 56.87412810003735 18.073216828580712C56.85543810003735 18.008516828580724 56.82455810003735 17.95919682858073 56.78150810003734 17.92534682858073C56.73843810003734 17.891546828580715 56.67831710003735 17.87144682858073 56.60113610003735 17.865246828580723L56.60113110003735 17.865246828580723ZM65.79139410003735 13.90030682858071C66.13645410003735 13.918106828580733 66.34201410003735 13.987206828580725 66.40807410003735 14.107646828580727C66.47412410003736 14.22811682858071 66.43626410003735 14.449336828580726 66.29448810003736 14.771286828580713L65.24540110003736 17.319256828580734C65.14589110003735 17.576246828580736 65.06475410003735 17.70185682858073 65.00197910003735 17.696086828580718C64.93919910003734 17.690086828580718 64.86000710003735 17.551716828580737 64.76440810003734 17.28025682858072L63.82711910003735 14.771286828580713C63.69162110003735 14.466396828580713 63.628843100037344 14.252006828580733 63.63878410003734 14.128126828580719C63.64868410003734 14.004246828580733 63.84626510003734 13.92830682858073 64.23141410003734 13.90030682858071C64.27041410003734 13.85320682858071 64.28991410003735 13.781686828580717 64.28991410003735 13.685806828580724C64.28991210003734 13.589906828580723 64.27041410003734 13.518436828580718 64.23141410003734 13.471306828580737C63.99687310003735 13.478306828580713 63.77371010003735 13.484006828580732 63.56192310003735 13.489206828580734C63.35013210003734 13.49420682858073 63.11396910003735 13.497206828580715 62.85343210003735 13.497206828580715C62.636767100037346 13.496946828580718 62.44935310003734 13.49420682858073 62.29118910003734 13.489206828580734C62.133024100037346 13.48420682858071 61.939110100037354 13.478106828580735 61.70944710003735 13.471306828580737C61.67044710003735 13.518406828580737 61.65094710003734 13.589936828580733 61.65094710003734 13.685806828580724C61.65094710003734 13.781706828580724 61.67044710003735 13.853186828580732 61.70944710003735 13.90030682858071C62.06344810003735 13.93740682858072 62.29793210003734 14.024396828580734 62.41290010003735 14.161276828580725C62.52786610003734 14.298156828580716 62.641777100037345 14.527496828580723 62.75463310003735 14.849286828580716L64.41341210003735 18.957236828580733C64.45051210003734 19.05393682858073 64.49330210003735 19.123796828580737 64.54178510003734 19.166856828580734C64.59026510003734 19.209956828580715 64.65580210003735 19.231056828580734 64.73840810003735 19.230256828580735C64.80250810003734 19.23125682858071 64.85922210003734 19.208456828580722 64.90854310003735 19.161656828580732C64.95785310003735 19.114956828580716 65.00514310003736 19.038106828580737 65.05040410003735 18.931236828580722L66.78458110003736 14.862286828580721C66.89179810003735 14.576596828580733 67.01665010003735 14.35305682858072 67.15913910003735 14.191656828580733C67.30161710003735 14.030276828580725 67.54769310003735 13.933156828580735 67.89736710003736 13.90030682858071C67.93635710003736 13.85320682858071 67.95585710003735 13.781686828580717 67.95586710003735 13.685806828580724C67.95586110003735 13.589906828580723 67.93635710003736 13.518436828580718 67.89736710003736 13.471306828580737C67.75761310003735 13.478306828580713 67.62111410003735 13.484006828580732 67.48787210003735 13.489206828580734C67.35461810003736 13.49420682858073 67.20512010003735 13.497206828580715 67.03937810003735 13.497206828580715C66.80700110003735 13.496946828580718 66.59900410003735 13.49420682858073 66.41538610003735 13.489206828580734C66.23175910003735 13.48420682858071 66.02376210003735 13.478106828580735 65.79139410003735 13.471306828580737C65.75239410003735 13.518406828580737 65.73289410003736 13.589936828580733 65.73289410003736 13.685806828580724C65.73289010003735 13.781706828580724 65.75239410003735 13.853186828580732 65.79139410003735 13.90030682858071L65.79139410003735 13.90030682858071ZM69.77504710003736 14.95328682858073L69.77504710003736 17.488256828580717C69.78533710003735 18.00635682858072 69.72575710003736 18.331886828580735 69.59629910003736 18.46486682858071C69.46684210003735 18.597846828580714 69.20576210003735 18.66663682858072 68.81305910003735 18.67123682858073C68.77405910003735 18.718336828580732 68.75455910003735 18.789866828580728 68.75455910003735 18.88573682858072C68.75455910003735 18.98163682858072 68.77405910003735 19.053106828580724 68.81305910003735 19.100236828580734C69.08118010003736 19.09323682858073 69.33142710003735 19.08753682858071 69.56380010003735 19.082336828580736C69.79617010003736 19.077336828580712 70.03991710003736 19.074336828580726 70.29504010003735 19.074336828580726C70.55882710003735 19.074606828580727 70.81774010003735 19.077336828580712 71.07178010003734 19.082336828580736C71.32581610003736 19.08733682858073 71.59122910003735 19.093436828580735 71.86802010003736 19.100236828580734C71.90702010003736 19.053136828580733 71.92652010003735 18.981606828580738 71.92652010003735 18.88573682858072C71.92651710003734 18.789836828580718 71.90702010003736 18.718366828580713 71.86802010003736 18.67123682858073C71.42548110003735 18.66093682858073 71.13406810003735 18.590536828580724 70.99378110003735 18.459996828580728C70.85348910003735 18.32945682858073 70.78957310003734 18.005536828580716 70.80203410003735 17.488256828580717L70.80203410003735 15.681276828580735C70.80523410003735 15.511746828580726 70.83778410003735 15.353576828580714 70.89953410003736 15.206786828580732C70.96128410003735 15.059996828580722 71.03278010003736 14.927836828580723 71.11403210003735 14.810286828580729C71.19176210003735 14.692756828580713 71.28979810003734 14.56058682858071 71.40815310003735 14.413796828580729C71.52650310003735 14.267006828580719 71.62779310003735 14.186846828580713 71.71202410003735 14.173296828580732C71.75833410003735 14.172296828580727 71.80545410003735 14.177296828580722 71.85339710003736 14.18949682858073C71.90132710003735 14.201396828580727 71.94520710003735 14.226296828580729 71.98502110003736 14.264196828580737C72.04704110003735 14.33679682858073 72.11799410003735 14.415866828580732 72.19789310003735 14.501446828580725C72.27778310003735 14.587046828580725 72.38449110003735 14.633616828580728 72.51801410003735 14.641196828580718C72.67996610003735 14.634196828580713 72.82079710003735 14.566696828580717 72.94050810003735 14.43806682858073C73.06021010003735 14.309426828580712 73.12304310003735 14.160476828580727 73.12900610003734 13.991196828580712C73.13060610003735 13.856576828580728 73.06887610003736 13.721536828580724 72.94375810003736 13.586096828580736C72.81863010003735 13.450656828580719 72.62038310003736 13.377696828580724 72.34901610003735 13.36720682858072C72.04026610003736 13.380506828580735 71.76077010003735 13.496946828580718 71.51052710003735 13.716576828580713C71.26027710003736 13.936226828580715 71.05878010003735 14.17943682858072 70.90603510003736 14.446196828580725C70.86703510003736 14.51339682858071 70.83778510003735 14.541496828580733 70.81828510003736 14.530696828580716C70.79878510003735 14.519896828580727 70.78903510003735 14.49599682858073 70.78903510003735 14.45919682858073C70.79173510003736 14.233866828580716 70.80257510003734 14.00853682858073 70.82153510003735 13.783206828580717C70.84049510003734 13.557876828580731 70.85132510003736 13.436546828580731 70.85403510003735 13.419206828580712C70.85349110003735 13.392706828580714 70.83832510003735 13.371006828580732 70.80853510003735 13.354206828580715C70.77874510003736 13.337406828580725 70.73757510003735 13.32870682858072 70.68503610003735 13.328206828580733C70.50764110003735 13.39920682858073 70.27743510003735 13.46525682858072 69.99442010003735 13.526456828580734C69.71140110003735 13.58765682858072 69.34794810003736 13.647256828580737 68.90405910003736 13.705206828580714C68.89051910003735 13.74960682858071 68.88509910003735 13.810286828580729 68.88780910003734 13.88720682858073C68.89050910003735 13.964106828580725 68.90459910003734 14.024786828580716 68.93005910003735 14.069196828580715C69.27238710003735 14.089796828580717 69.50096710003736 14.155896828580723 69.61580010003735 14.267446828580717C69.73063110003736 14.379036828580723 69.78371310003735 14.607616828580717 69.77504810003735 14.953186828580726L69.77504710003736 14.95328682858073ZM74.92867110003735 11.28733682858072C74.93517110003735 11.463386828580724 75.00017110003735 11.618296828580725 75.12366910003735 11.752076828580726C75.24716610003735 11.885876828580734 75.39016410003735 11.956296828580719 75.55266310003735 11.963326828580733C75.74007610003736 11.954326828580719 75.89824010003736 11.88472682858071 76.02715710003736 11.754196828580717C76.15607010003735 11.623636828580715 76.22323610003735 11.485346828580731 76.22865510003736 11.339336828580713C76.22455510003735 11.174676828580715 76.16446510003735 11.023016828580722 76.04828210003735 10.884336828580729C75.93209410003735 10.745686828580716 75.78422110003736 10.672016828580723 75.60466310003736 10.663346828580728C75.43999710003735 10.670346828580733 75.28833210003735 10.734846828580714 75.14966910003736 10.858336828580718C75.01100310003736 10.981846828580728 74.93733710003735 11.12484682858073 74.92867110003735 11.28733682858072L74.92867110003735 11.28733682858072ZM76.11165610003735 17.488256828580717L76.11165610003735 14.897386828580721C76.11385610003735 14.553146828580736 76.12248610003735 14.226036828580732 76.13765610003735 13.91606682858071C76.15281610003736 13.606106828580721 76.16148610003735 13.440516828580712 76.16365610003736 13.419306828580716C76.16311210003735 13.392806828580717 76.14794610003734 13.371106828580736 76.11815610003735 13.354306828580718C76.08836610003735 13.337506828580729 76.04719610003735 13.328806828580724 75.99465810003736 13.328306828580736C75.81441810003736 13.399306828580734 75.58340110003735 13.465356828580724 75.30160410003735 13.526556828580738C75.01980410003735 13.587756828580723 74.65716410003735 13.647356828580712 74.21368110003735 13.705306828580717C74.20176110003734 13.749706828580713 74.19960110003736 13.810386828580732 74.20718110003735 13.887306828580734C74.21478110003736 13.964206828580728 74.22560110003735 14.024886828580719 74.23968110003734 14.069296828580718C74.58485310003735 14.088796828580712 74.81424610003735 14.151796828580729 74.92786010003735 14.258286828580736C75.04147210003735 14.36475682858071 75.09374210003735 14.596416828580715 75.08467010003736 14.95328682858073L75.08467010003736 17.488256828580717C75.09523010003736 18.00554682858072 75.03836010003735 18.32945682858073 74.91404710003735 18.459996828580728C74.78973510003735 18.590536828580724 74.53461410003734 18.660946828580734 74.14868310003735 18.67123682858073C74.10968310003734 18.718336828580732 74.09018310003735 18.789866828580728 74.09018310003735 18.88573682858072C74.09018310003735 18.98163682858072 74.10968310003734 19.053106828580724 74.14868310003735 19.100236828580734C74.41247010003735 19.09323682858073 74.65188310003735 19.08753682858071 74.86692310003735 19.082336828580736C75.08196110003735 19.077336828580712 75.32787410003735 19.074336828580726 75.60466410003735 19.074336828580726C75.87440810003736 19.074606828580727 76.11490510003735 19.077336828580712 76.32615410003736 19.082336828580736C76.53739910003735 19.08733682858073 76.77789510003736 19.093436828580735 77.04764510003736 19.100236828580734C77.08664510003734 19.053136828580733 77.10614510003735 18.981606828580738 77.10614510003735 18.88573682858072C77.10614210003735 18.789836828580718 77.08664510003734 18.718366828580713 77.04764510003736 18.67123682858073C76.66171010003735 18.666236828580736 76.40658810003735 18.59783682858071 76.28228010003735 18.46486682858071C76.15796710003735 18.331886828580735 76.10109310003735 18.00635682858072 76.11165710003735 17.488256828580717L76.11165610003735 17.488256828580717ZM82.92131310003735 17.891246828580734C82.89449310003735 17.833246828580712 82.85712310003736 17.789956828580728 82.80919010003736 17.761256828580713C82.76125010003734 17.732556828580726 82.70762310003735 17.71525682858072 82.64831710003735 17.70925682858072C82.42487710003735 17.99524682858072 82.17950610003736 18.209746828580734 81.91220110003735 18.352746828580734C81.64488810003735 18.495746828580735 81.37026710003735 18.56724682858072 81.08833710003735 18.56724682858072C80.60056910003735 18.55924682858071 80.19161610003735 18.335136828580715 79.86147710003735 17.89612682858072C79.53133410003736 17.45710682858072 79.35962810003736 16.853156828580723 79.34635910003735 16.084276828580727C79.35445910003735 15.36332682858071 79.49423110003735 14.803256828580714 79.76560410003735 14.404046828580732C80.03697310003736 14.004846828580725 80.39121810003735 13.802266828580713 80.82834010003735 13.796306828580725C81.19910310003735 13.805306828580711 81.44230810003735 13.90057682858071 81.55795610003734 14.080676828580721C81.67359610003736 14.260776828580731 81.73805310003735 14.46931682858073 81.75132810003736 14.706286828580716C81.77247810003735 14.879356828580711 81.82571810003735 15.001226828580712 81.91106410003735 15.071916828580726C81.99639410003735 15.142616828580714 82.10781710003735 15.176726828580712 82.24532210003736 15.174286828580733C82.39129410003736 15.17528682858071 82.53158410003735 15.130686828580735 82.66619110003735 15.039416828580727C82.80078910003735 14.948116828580737 82.87282910003735 14.80243682858071 82.88231410003735 14.602296828580734C82.87741410003736 14.238026828580729 82.70193610003736 13.942826828580735 82.35582010003735 13.716676828580717C82.00969510003735 13.490546828580733 81.52220210003735 13.374086828580715 80.89333910003735 13.367306828580723C80.21924110003735 13.377306828580714 79.61420810003735 13.646806828580736 79.07823710003736 14.176546828580712C78.54226410003736 14.706296828580719 78.25897710003736 15.437536828580733 78.22837410003736 16.370266828580725C78.23327410003735 17.22202682858071 78.45749510003735 17.90397682858071 78.90111510003734 18.416116828580726C79.34473310003735 18.928256828580714 79.97847410003735 19.190966828580713 80.80234010003736 19.20423682858072C81.19124910003735 19.216136828580716 81.56066010003735 19.130536828580716 81.91057610003735 18.947486828580736C82.26048410003735 18.764406828580718 82.59739610003736 18.412326828580717 82.92131310003735 17.891246828580734L82.92131310003735 17.891246828580734ZM86.42051510003735 21.154206828580726C86.61962610003735 20.79324682858072 86.79729010003736 20.420586828580724 86.95350810003735 20.036226828580737C87.46358510003735 18.809116828580727 87.89160410003736 17.793676828580715 88.23756610003736 16.98987682858072C88.58351910003735 16.186076828580724 88.92249010003735 15.43355682858072 89.25447810003735 14.732286828580726C89.34790810003736 14.53512682858073 89.48603210003735 14.354216828580718 89.66884810003735 14.189546828580717C89.85165210003736 14.024886828580719 90.06452410003735 13.928476828580727 90.30746510003735 13.90030682858071C90.34645510003735 13.85320682858071 90.36595510003735 13.781686828580717 90.36596510003736 13.685806828580724C90.36595810003735 13.589906828580723 90.34645510003735 13.518436828580718 90.30746510003735 13.471306828580737C90.14956410003735 13.478306828580713 90.00060810003735 13.484006828580732 89.86059510003736 13.489206828580734C89.72057010003735 13.49420682858073 89.56186410003735 13.497206828580715 89.38447610003735 13.497206828580715C89.16618210003735 13.496946828580718 88.97226810003735 13.49420682858073 88.80273410003736 13.489206828580734C88.63318910003736 13.48420682858071 88.43277610003734 13.478106828580735 88.20149210003736 13.471306828580737C88.16248210003735 13.518406828580737 88.14299210003735 13.589936828580733 88.14299210003735 13.685806828580724C88.14298810003736 13.781706828580724 88.16249210003735 13.853186828580732 88.20149210003736 13.90030682858071C88.41996610003736 13.91230682858071 88.60082610003735 13.955906828580737 88.74407210003736 14.03094682858071C88.88730910003736 14.10604682858073 88.91444610003735 14.257476828580735 88.82548210003735 14.485296828580715L87.53589810003736 17.462256828580735C87.49003810003735 17.569366828580712 87.44069810003735 17.62553682858072 87.38786210003735 17.630766828580732C87.33502210003735 17.635766828580728 87.28080010003735 17.575466828580716 87.22520210003735 17.44925682858073L86.07211710003735 14.745286828580731C85.93770210003736 14.473976828580732 85.87990710003736 14.272376828580718 85.89873110003735 14.140476828580717C85.91755110003736 14.008586828580718 86.11747810003735 13.928526828580715 86.49851110003735 13.90030682858071C86.53751110003735 13.85320682858071 86.55701110003736 13.781686828580717 86.55701110003736 13.685806828580724C86.55700910003735 13.589906828580723 86.53751110003735 13.518436828580718 86.49851110003735 13.471306828580737C86.25611610003735 13.478306828580713 86.00966110003735 13.484006828580732 85.75914510003736 13.489206828580734C85.50862610003735 13.49420682858073 85.26542110003736 13.497206828580715 85.02953010003735 13.497206828580715C84.58753510003736 13.495206828580734 84.23654010003735 13.486406828580726 83.97654410003734 13.471206828580733C83.93754410003736 13.518306828580734 83.91804410003735 13.58983682858073 83.91804410003735 13.68570682858072C83.91804410003735 13.78160682858072 83.93754410003736 13.853086828580729 83.97654410003734 13.900206828580735C84.24499010003736 13.911806828580723 84.44226210003735 13.977306828580737 84.56836110003735 14.096666828580737C84.69445810003735 14.216016828580734 84.83908110003735 14.475526828580712 85.00223110003735 14.875186828580723L86.47251210003735 18.294146828580722C86.53769210003735 18.436626828580728 86.59841710003735 18.627456828580733 86.65467210003735 18.866626828580735C86.71092210003735 19.105796828580736 86.71086210003735 19.322296828580733 86.65450910003734 19.516126828580724C86.57788910003735 19.730736828580717 86.49842710003735 19.933966828580736 86.41612510003735 20.125816828580724C86.33381510003736 20.317676828580716 86.24428110003736 20.51310682858073 86.14751610003735 20.71211682858072C86.07817610003735 20.84156682858071 85.99259810003736 20.93689682858073 85.89076810003735 20.998106828580717C85.78893410003735 21.05930682858073 85.65785310003736 21.089606828580713 85.49752410003735 21.089106828580725C85.41112410003736 21.087106828580716 85.34342010003735 21.081106828580715 85.29440210003735 21.06960682858073C85.24538210003735 21.058206828580722 85.18742210003735 21.051706828580734 85.12052910003734 21.050106828580738C84.93175910003735 21.062806828580733 84.78930310003736 21.13490682858071 84.69315910003735 21.26623682858073C84.59700910003735 21.397586828580728 84.54880610003735 21.51187682858071 84.54853610003735 21.609106828580735C84.55203610003736 21.748576828580724 84.61001610003736 21.862866828580735 84.72240910003735 21.95197682858071C84.83480210003735 22.041076828580714 84.98050910003735 22.08711682858072 85.15952810003735 22.090096828580727C85.30225410003735 22.103096828580732 85.48804310003734 22.05109682858071 85.71689610003735 21.93409682858072C85.94574510003736 21.81709682858073 86.18028310003736 21.55709682858071 86.42051210003736 21.154106828580723L86.42051510003735 21.154206828580726ZM92.21683510003736 11.28733682858072C92.22333510003735 11.463386828580724 92.28833510003736 11.618296828580725 92.41183310003736 11.752076828580726C92.53533010003736 11.885876828580734 92.67832810003735 11.956296828580719 92.84082710003734 11.963326828580733C93.02824010003735 11.954326828580719 93.18640410003735 11.88472682858071 93.31532110003735 11.754196828580717C93.44423410003735 11.623636828580715 93.51139910003735 11.485346828580731 93.51681910003735 11.339336828580713C93.51271910003734 11.174676828580715 93.45262910003736 11.023016828580722 93.33644610003735 10.884336828580729C93.22025810003736 10.745686828580716 93.07238510003735 10.672016828580723 92.89282710003735 10.663346828580728C92.72816010003736 10.670346828580733 92.57649610003735 10.734846828580714 92.43783310003735 10.858336828580718C92.29916610003735 10.981846828580728 92.22550110003735 11.12484682858073 92.21683510003736 11.28733682858072L92.21683510003736 11.28733682858072ZM92.39883310003735 14.95328682858073L92.39883310003735 18.086246828580727C92.41020310003735 18.97510682858072 92.37445310003736 19.742096828580713 92.29158410003735 20.387216828580733C92.20870410003735 21.032336828580725 92.01046210003734 21.370326828580716 91.69684210003736 21.40120682858071C91.62317210003735 21.40093682858071 91.54951010003735 21.388506828580717 91.47584510003735 21.36380682858072C91.40217510003735 21.33920682858073 91.34151310003735 21.303906828580722 91.29384710003735 21.258186828580733C91.23101710003735 21.187186828580735 91.15518210003735 21.11464682858073 91.06635010003735 21.04043682858071C90.97752010003735 20.96623682858072 90.86268610003735 20.926146828580727 90.72185510003735 20.92018682858071C90.64196510003735 20.92618682858071 90.55475310003735 20.979186828580737 90.46023310003736 21.079436828580725C90.36571310003735 21.17964682858073 90.31425610003735 21.291226828580733 90.30586010003735 21.41418682858071C90.32021010003736 21.602406828580712 90.40850510003735 21.742696828580733 90.57073210003735 21.83505682858072C90.73295910003735 21.927456828580716 90.88299810003736 21.973446828580734 91.02085110003735 21.973176828580733C91.16980710003735 21.98017682858071 91.38213710003735 21.956676828580726 91.65784310003735 21.903276828580715C91.93354710003734 21.849876828580733 92.19787610003735 21.725876828580738 92.45083210003735 21.53115682858072C92.75876410003735 21.306636828580736 92.99763610003735 20.904176828580717 93.16744810003735 20.323796828580726C93.33725610003735 19.74340682858073 93.42338010003735 18.850206828580724 93.42582010003736 17.644206828580735L93.42582010003736 14.901236828580721C93.42802010003736 14.555126828580711 93.43665010003735 14.226876828580714 93.45182010003735 13.916496828580733C93.46698010003735 13.60613682858073 93.47565010003736 13.440386828580728 93.47782010003735 13.419256828580728C93.47727610003736 13.39275682858073 93.46211010003735 13.37105682858072 93.43232010003734 13.35425682858073C93.40253010003735 13.337456828580713 93.36136010003734 13.328756828580737 93.30882110003735 13.32825682858072C93.13142510003735 13.399256828580718 92.90122010003735 13.465306828580736 92.61820510003736 13.526506828580722C92.33518610003735 13.587706828580735 91.97173310003735 13.647306828580724 91.52784410003736 13.70525682858073C91.51592410003735 13.749656828580726 91.51376410003735 13.810336828580716 91.52134410003735 13.887256828580718C91.52894410003735 13.964156828580712 91.53976410003735 14.024836828580732 91.55384410003735 14.06924682858073C91.89617210003735 14.088246828580736 92.12475210003736 14.151046828580718 92.23958510003735 14.257746828580736C92.35441610003735 14.364456828580728 92.40749810003736 14.59628682858073 92.39883310003735 14.953236828580714L92.39883310003735 14.95328682858073ZM97.73951710003735 19.20423682858072C97.99138510003735 19.204316828580716 98.25463210003736 19.139136828580718 98.52925710003736 19.008746828580712C98.80387410003735 18.87834682858073 99.09962010003736 18.682206828580718 99.41649510003735 18.420346828580733C99.45028510003735 18.39314682858071 99.48408510003735 18.37824682858073 99.51789310003736 18.375646828580727C99.55168310003735 18.372646828580713 99.56988310003734 18.393546828580725 99.57249310003735 18.437246828580726C99.57849310003735 18.60171682858072 99.60228310003735 18.767416828580735 99.64399310003735 18.934326828580737C99.68569310003735 19.10123682858071 99.70953310003735 19.191206828580732 99.71549310003735 19.20423682858072C99.76274310003735 19.222636828580733 99.80375310003735 19.231336828580737 99.83850410003735 19.230036828580722C99.87324410003735 19.229036828580718 99.91457410003736 19.22003682858073 99.96249010003736 19.20423682858072C100.10358710003734 19.085876828580723 100.30237610003735 18.981336828580737 100.55885710003736 18.890616828580733C100.81532710003735 18.799916828580734 101.14086010003736 18.731096828580718 101.53547010003736 18.684236828580737C101.57447010003735 18.64033682858073 101.59397010003735 18.58186682858073 101.59397010003735 18.508746828580712C101.59396010003735 18.43564682858073 101.57447010003735 18.37711682858071 101.53547010003736 18.333246828580712C101.13193010003735 18.305046828580714 100.86976410003736 18.21841682858073 100.74898010003736 18.07324682858072C100.62818410003734 17.928086828580717 100.57401810003735 17.69841682858072 100.58648210003736 17.38425682858073L100.58648210003736 14.888286828580732C100.58868210003735 14.661936828580735 100.59731210003736 14.390236828580726 100.61248210003735 14.073196828580734C100.62764210003735 13.756166828580717 100.63631210003736 13.581976828580736 100.63848210003735 13.550606828580726C100.63820610003735 13.529706828580714 100.62898210003735 13.511406828580732 100.61085210003735 13.495806828580726C100.59270210003736 13.48020682858072 100.56724210003735 13.472106828580735 100.53448210003735 13.471306828580737C100.49927210003735 13.478306828580713 100.43968210003734 13.484006828580732 100.35573410003735 13.489206828580734C100.27177410003735 13.49420682858073 100.17968910003735 13.497206828580715 100.07948710003735 13.497206828580715C99.87229710003736 13.496946828580718 99.65942510003735 13.49420682858073 99.44087010003736 13.489206828580734C99.22230610003736 13.48420682858071 98.99318510003735 13.478106828580735 98.75350510003734 13.471306828580737C98.71450510003736 13.518406828580737 98.69500510003735 13.589936828580733 98.69500510003735 13.685806828580724C98.69500110003735 13.781706828580724 98.71450510003736 13.853186828580732 98.75350510003734 13.90030682858071C99.06576710003735 13.907306828580715 99.27972210003735 13.980706828580736 99.39537110003735 14.119676828580737C99.51101110003735 14.258616828580728 99.56571810003734 14.536486828580735 99.55949410003736 14.95328682858073L99.55949410003736 17.462256828580735C99.56229410003735 17.581526828580735 99.55049410003735 17.677076828580738 99.52423410003735 17.748906828580715C99.49793410003736 17.82070682858071 99.44035410003735 17.894176828580726 99.35149910003734 17.969246828580737C99.11045610003735 18.177246828580735 98.88729210003736 18.333246828580712 98.68200710003735 18.437246828580726C98.47671510003735 18.54124682858071 98.29255110003736 18.59324682858073 98.12951510003735 18.59323682858073C97.91555610003735 18.609736828580736 97.69347510003735 18.531236828580717 97.46327310003736 18.357616828580717C97.23306510003735 18.184016828580724 97.10848310003735 17.81622682858071 97.08952810003736 17.254256828580736L97.08952810003736 14.888286828580732C97.09172810003736 14.661936828580735 97.10035810003735 14.390236828580726 97.11552810003735 14.073196828580734C97.13068810003735 13.756166828580717 97.13935810003736 13.581976828580736 97.14152810003735 13.550606828580726C97.14125510003736 13.529706828580714 97.13202810003735 13.511406828580732 97.11390810003735 13.495806828580726C97.09575810003736 13.48020682858072 97.07029810003735 13.472106828580735 97.03753810003735 13.471306828580737C97.00232810003735 13.478306828580713 96.94274810003735 13.484006828580732 96.85879010003735 13.489206828580734C96.77483010003735 13.49420682858073 96.68274910003736 13.497206828580715 96.58254310003736 13.497206828580715C96.37535710003735 13.496946828580718 96.16248510003736 13.49420682858073 95.94392610003734 13.489206828580734C95.72536610003735 13.48420682858071 95.49624410003734 13.478106828580735 95.25656110003735 13.471306828580737C95.21756110003736 13.518406828580737 95.19806110003735 13.589936828580733 95.19806110003735 13.685806828580724C95.19806110003735 13.781706828580724 95.21756110003736 13.853186828580732 95.25656110003735 13.90030682858071C95.56313910003735 13.913606828580726 95.77547010003735 13.987806828580716 95.89355210003735 14.122926828580717C96.01163310003736 14.258076828580727 96.06796610003735 14.530526828580719 96.06255010003736 14.940286828580724L96.06255010003736 17.436256828580724C96.05199010003736 17.902356828580736 96.17061010003735 18.309136828580733 96.41842010003735 18.656616828580724C96.66622810003736 19.00408682858071 97.10659710003735 19.186626828580728 97.73952910003734 19.20423682858072L97.73951710003735 19.20423682858072ZM104.60000010003735 14.420296828580717C104.57750010003735 14.454396828580713 104.55100010003736 14.483696828580719 104.52040010003735 14.50799682858073C104.48980010003736 14.532396828580715 104.47300010003735 14.502996828580734 104.47000010003735 14.420296828580717C104.47300010003735 14.20850682858071 104.48350010003735 13.995096828580728 104.50250010003735 13.780056828580712C104.52150010003736 13.565016828580724 104.53230010003735 13.44910682858071 104.53500010003735 13.432306828580721C104.53500010003735 13.365106828580736 104.48300010003734 13.330476828580714 104.37900010003735 13.328306828580736C104.20106010003735 13.399306828580734 103.96869010003735 13.465356828580724 103.68188010003735 13.526556828580738C103.39507010003734 13.587756828580723 103.02945010003735 13.647356828580712 102.58502010003735 13.705306828580717C102.57312010003736 13.749706828580713 102.57092010003736 13.810386828580732 102.57802010003735 13.887306828580734C102.58602010003735 13.964206828580728 102.59642010003735 14.024886828580719 102.61052010003735 14.069296828580718C102.95285010003735 14.087396828580722 103.18143010003735 14.14869682858071 103.29626010003736 14.252926828580712C103.41109010003736 14.357196828580726 103.46418010003735 14.59064682858073 103.45551010003736 14.95328682858073L103.45551010003736 17.488256828580717C103.46631010003735 17.999856828580732 103.41221010003736 18.32213682858071 103.29301010003735 18.455116828580714C103.17385010003736 18.588096828580717 102.92468010003735 18.660136828580733 102.54552010003735 18.67123682858073C102.50652010003735 18.718336828580732 102.48702010003736 18.789866828580728 102.48702010003736 18.88573682858072C102.48702010003736 18.98163682858072 102.50652010003735 19.053106828580724 102.54552010003735 19.100236828580734C102.80335010003735 19.09323682858073 103.03843010003735 19.08753682858071 103.25076010003735 19.082336828580736C103.46309010003735 19.077336828580712 103.70467010003735 19.074336828580726 103.97550010003735 19.074336828580726C104.21681010003735 19.074606828580727 104.42643010003735 19.077336828580712 104.60437010003736 19.082336828580736C104.78230010003735 19.08733682858073 105.00168010003735 19.093436828580735 105.26249010003735 19.100236828580734C105.30149010003736 19.053136828580733 105.32099010003735 18.981606828580738 105.32099010003735 18.88573682858072C105.32098010003735 18.789836828580718 105.30149010003736 18.718366828580713 105.26249010003735 18.67123682858073C104.93993010003736 18.660136828580733 104.72705010003735 18.58813682858073 104.62387010003735 18.455116828580714C104.52068010003735 18.32213682858071 104.47356010003735 17.999856828580732 104.48250010003736 17.488256828580717L104.48250010003736 15.356286828580721C104.48550010003736 15.221416828580715 104.50900010003735 15.110916828580713 104.55400010003736 15.024786828580716C104.59900010003736 14.938686828580728 104.64880010003735 14.867166828580736 104.70350010003735 14.810286828580729C104.95076010003736 14.567906828580732 105.20047010003735 14.379946828580728 105.45261010003735 14.246426828580724C105.70475010003734 14.11290682858072 105.95770010003736 14.045196828580714 106.21148010003735 14.043296828580736C106.34418010003735 14.044116828580712 106.47201010003735 14.084696828580718 106.59497010003736 14.165176828580712C106.71792010003735 14.24557682858071 106.81975010003735 14.360986828580735 106.90047010003735 14.511296828580726C106.96387010003735 14.642376828580723 107.00609010003735 14.792956828580714 107.02722010003735 14.963036828580726C107.04832010003736 15.133126828580714 107.05812010003736 15.316206828580732 107.05642010003736 15.512276828580724L107.05642010003736 17.488256828580717C107.06542010003736 17.999856828580732 107.01522010003735 18.32213682858071 106.90693010003736 18.455116828580714C106.79859010003734 18.588096828580717 106.57976010003735 18.660136828580733 106.25044010003735 18.67123682858073C106.21794010003735 18.718336828580732 106.20164010003735 18.789866828580728 106.20174010003736 18.88573682858072C106.20173010003735 18.98163682858072 106.21794010003735 19.053106828580724 106.25044010003735 19.100236828580734C106.51205010003736 19.09323682858073 106.73630010003735 19.08753682858071 106.92318010003736 19.082336828580736C107.11004010003735 19.077336828580712 107.32779010003735 19.074336828580726 107.57642010003735 19.074336828580726C107.83208010003735 19.074606828580727 108.05849010003735 19.077336828580712 108.25566010003735 19.082336828580736C108.45282010003736 19.08733682858073 108.68573010003735 19.093436828580735 108.95440010003735 19.100236828580734C108.98690010003735 19.053136828580733 109.00310010003736 18.981606828580738 109.00310010003736 18.88573682858072C109.00309010003735 18.789836828580718 108.98680010003736 18.718366828580713 108.95440010003735 18.67123682858073C108.59961010003735 18.660136828580733 108.36344010003735 18.58813682858073 108.24591010003735 18.455116828580714C108.12836010003736 18.32213682858071 108.07420010003734 17.999856828580732 108.08341010003736 17.488256828580717L108.08341010003736 15.551276828580711C108.08741010003735 15.19107682858072 108.06631010003736 14.861756828580724 108.02001010003735 14.563296828580718C107.97371010003735 14.264846828580716 107.87782010003735 14.01351682858072 107.73239010003735 13.80930682858073C107.61917010003735 13.665766828580729 107.46859010003735 13.556356828580732 107.28064010003735 13.481056828580734C107.09268010003736 13.405756828580735 106.88360010003736 13.367856828580727 106.65340010003735 13.367306828580723C106.33869010003735 13.355906828580714 106.01586010003736 13.420906828580712 105.68491010003736 13.562306828580716C105.35396010003736 13.703686828580715 104.99213010003736 13.989676828580713 104.59943010003735 14.420296828580717L104.60000010003735 14.420296828580717ZM114.79840010003736 17.891246828580734C114.77160010003735 17.833246828580712 114.73420010003736 17.789956828580728 114.68627010003735 17.761256828580713C114.63837010003735 17.732556828580726 114.58471010003736 17.71525682858072 114.52540010003734 17.70925682858072C114.30196010003735 17.99524682858072 114.05659010003735 18.209746828580734 113.78928010003735 18.352746828580734C113.52197010003735 18.495746828580735 113.24735010003735 18.56724682858072 112.96542010003735 18.56724682858072C112.47765010003735 18.55924682858071 112.06870010003735 18.335136828580715 111.73856010003735 17.89612682858072C111.40842010003735 17.45710682858072 111.23671010003736 16.853156828580723 111.22344010003735 16.084276828580727C111.23144010003735 15.36332682858071 111.37131010003735 14.803256828580714 111.64269010003736 14.404046828580732C111.91406010003735 14.004846828580725 112.26830010003735 13.802266828580713 112.70542010003736 13.796306828580725C113.07619010003735 13.805306828580711 113.31939010003735 13.90057682858071 113.43504010003736 14.080676828580721C113.55068010003735 14.260776828580731 113.61514010003735 14.46931682858073 113.62841010003736 14.706286828580716C113.64951010003735 14.879356828580711 113.70281010003735 15.001226828580712 113.78815010003736 15.071916828580726C113.87345010003735 15.142616828580714 113.98490010003735 15.176726828580712 114.12240010003735 15.174286828580733C114.26838010003735 15.17528682858071 114.40867010003736 15.130686828580735 114.54327010003735 15.039416828580727C114.67787010003735 14.948116828580737 114.74991010003735 14.80243682858071 114.75940010003735 14.602296828580734C114.75440010003734 14.238026828580729 114.57902010003735 13.942826828580735 114.23290010003736 13.716676828580717C113.88678010003736 13.490546828580733 113.39928010003734 13.374086828580715 112.77042010003736 13.367306828580723C112.09632010003735 13.377306828580714 111.49129010003735 13.646806828580736 110.95532010003735 14.176546828580712C110.41935010003735 14.706296828580719 110.13606010003735 15.437536828580733 110.10546010003735 16.370266828580725C110.11046010003736 17.22202682858071 110.33458010003736 17.90397682858071 110.77820010003735 18.416116828580726C111.22182010003735 18.928256828580714 111.85556010003735 19.190966828580713 112.67942010003735 19.20423682858072C113.06833010003736 19.216136828580716 113.43774010003735 19.130536828580716 113.78766010003736 18.947486828580736C114.13757010003735 18.764406828580718 114.47448010003735 18.412326828580717 114.79840010003736 17.891246828580734L114.79840010003736 17.891246828580734ZM116.71161010003735 17.488256828580717C116.72061010003735 18.00635682858072 116.66661010003735 18.331886828580735 116.54911010003735 18.46486682858071C116.43157010003735 18.597846828580714 116.19541010003735 18.66663682858072 115.84062010003736 18.67123682858073C115.80162010003735 18.718336828580732 115.78212010003735 18.789866828580728 115.78212010003735 18.88573682858072C115.78212010003735 18.98163682858072 115.80162010003735 19.053106828580724 115.84062010003736 19.100236828580734C116.10333010003735 19.09323682858073 116.33516010003736 19.08753682858071 116.53611010003735 19.082336828580736C116.73707010003736 19.077336828580712 116.96890010003735 19.074336828580726 117.23160010003735 19.074336828580726C117.44502010003735 19.074606828580727 117.62918010003735 19.077336828580712 117.78410010003735 19.082336828580736C117.93901010003735 19.08733682858073 118.14917010003735 19.093436828580735 118.41459010003734 19.100236828580734C118.45359010003735 19.053136828580733 118.47309010003735 18.981606828580738 118.47309010003735 18.88573682858072C118.47308010003735 18.789836828580718 118.45359010003735 18.718366828580713 118.41459010003734 18.67123682858073C118.15323010003735 18.666236828580736 117.97395010003736 18.59783682858071 117.87672010003735 18.46486682858071C117.77952010003735 18.331886828580735 117.73345010003735 18.00635682858072 117.73860010003735 17.488256828580717L117.73860010003735 16.318266828580732C117.88899010003735 16.317266828580728 118.01947010003735 16.349966828580733 118.13005010003735 16.416766828580734C118.24063010003735 16.483566828580734 118.35714010003736 16.60672682858072 118.47959010003736 16.786286828580728L119.42858010003735 18.12526682858072C119.55478010003735 18.30888682858071 119.63711010003735 18.45188682858071 119.67557010003735 18.554266828580722C119.71407010003735 18.65663682858073 119.73137010003735 18.74763682858071 119.72757010003735 18.827256828580715L119.72757010003735 19.035256828580714C119.72557010003734 19.076456828580717 119.74277010003735 19.098056828580724 119.77957010003735 19.10025682858071C119.90631010003735 19.093256828580735 120.03956010003735 19.087556828580716 120.17932010003734 19.082356828580714C120.31906010003735 19.07735682858072 120.48481010003735 19.074356828580733 120.67656010003735 19.074356828580733C120.87291010003734 19.074626828580733 121.05219010003735 19.07735682858072 121.21443010003735 19.082356828580714C121.37665010003735 19.08735682858071 121.55269010003735 19.093456828580713 121.74255010003735 19.10025682858071C121.78155010003735 19.05315682858071 121.80105010003736 18.981626828580715 121.80105010003736 18.885756828580725C121.80105010003736 18.789856828580724 121.78155010003735 18.71838682858072 121.74255010003735 18.67125682858071C121.52111010003735 18.653256828580737 121.31658010003736 18.610656828580716 121.12895010003736 18.543536828580727C120.94132010003734 18.476436828580717 120.77319010003735 18.337006828580712 120.62456010003736 18.12526682858072L119.10358010003735 15.876296828580735C119.06238010003734 15.822096828580726 119.04078010003735 15.761466828580723 119.03858010003735 15.694296828580718C119.03658010003736 15.644496828580714 119.05378010003736 15.601096828580722 119.09058010003736 15.564296828580723L120.07857010003735 14.472316828580716C120.26644010003736 14.275506828580717 120.47178010003735 14.13353682858073 120.69460010003735 14.046406828580729C120.91740010003736 13.959306828580736 121.18872010003736 13.910586828580733 121.50855010003735 13.900326828580717C121.54755010003736 13.853226828580716 121.56705010003735 13.781706828580724 121.56705010003735 13.68582682858073C121.56704010003735 13.58992682858073 121.54755010003736 13.518456828580725 121.50855010003735 13.471326828580715C121.28023010003736 13.47832682858072 121.09011010003735 13.48402682858071 120.93818010003736 13.489226828580712C120.78624010003735 13.494226828580736 120.59937010003735 13.497226828580722 120.37756010003736 13.497226828580722C120.14167010003735 13.496966828580724 119.94071010003735 13.494226828580736 119.77470010003735 13.489226828580712C119.60867010003736 13.484226828580717 119.41097010003735 13.478126828580713 119.18158010003735 13.471326828580715C119.14258010003735 13.518426828580715 119.12308010003736 13.58995682858071 119.12308010003736 13.68582682858073C119.12308010003736 13.78172682858073 119.14258010003735 13.85320682858071 119.18158010003735 13.900326828580717C119.54394010003735 13.936526828580725 119.69832010003735 14.03479682858071 119.64470010003735 14.19525682858071C119.59110010003735 14.355726828580714 119.51469010003736 14.47841682858072 119.41558010003735 14.563316828580724C119.06815010003736 14.943396828580717 118.74641010003735 15.261566828580726 118.45034010003735 15.517826828580723C118.15426010003735 15.774086828580721 117.91702010003735 15.930406828580715 117.73860010003735 15.986796828580736L117.73860010003735 11.495356828580725C117.74060010003735 11.068806828580733 117.74940010003735 10.735686828580725 117.76460010003736 10.495986828580726C117.77980010003735 10.256316828580736 117.78840010003735 10.134436828580732 117.79060010003735 10.13036682858072C117.79260010003735 10.041566828580727 117.73640010003736 9.998216828580723 117.62160010003736 10.000376828580727C117.43608010003734 10.069476828580719 117.15712010003735 10.139316828580718 116.78473010003735 10.209996828580728C116.41234010003735 10.280696828580716 116.08464010003735 10.327816828580723 115.80162010003735 10.351366828580723C115.78862010003735 10.408266828580736 115.78862010003735 10.476496828580736 115.80162010003735 10.556116828580713C115.81462010003735 10.635716828580712 115.84062010003736 10.69749682858071 115.87962010003736 10.741366828580738C116.21003010003736 10.734366828580733 116.43320010003735 10.780666828580735 116.54911010003735 10.879486828580724C116.66503010003736 10.97838682858071 116.71919010003735 11.28763682858073 116.71161010003735 11.807346828580734L116.71161010003735 17.488256828580717ZM125.14548010003735 19.20423682858072C125.39735010003736 19.204316828580716 125.66059010003735 19.139136828580718 125.93522010003736 19.008746828580712C126.20983010003735 18.87834682858073 126.50558010003735 18.682206828580718 126.82246010003735 18.420346828580733C126.85626010003735 18.39314682858071 126.89006010003735 18.37824682858073 126.92385010003736 18.375646828580727C126.95765010003736 18.372646828580713 126.97585010003735 18.393546828580725 126.97845010003735 18.437246828580726C126.98445010003735 18.60171682858072 127.00825010003736 18.767416828580735 127.04995010003735 18.934326828580737C127.09165010003736 19.10123682858071 127.11545010003735 19.191206828580732 127.12145010003735 19.20423682858072C127.16875010003736 19.222636828580733 127.20975010003735 19.231336828580737 127.24446010003736 19.230036828580722C127.27916010003734 19.229036828580718 127.32056010003735 19.22003682858073 127.36845010003735 19.20423682858072C127.50955010003734 19.085876828580723 127.70833010003736 18.981336828580737 127.96482010003736 18.890616828580733C128.22129010003735 18.799916828580734 128.54682010003734 18.731096828580718 128.94143010003734 18.684236828580737C128.98043010003735 18.64033682858073 128.99993010003735 18.58186682858073 128.99993010003735 18.508746828580712C128.99992010003734 18.43564682858073 128.98043010003735 18.37711682858071 128.94143010003734 18.333246828580712C128.53789010003734 18.305046828580714 128.27572010003735 18.21841682858073 128.15494010003735 18.07324682858072C128.03414010003735 17.928086828580717 127.97998010003735 17.69841682858072 127.99244010003736 17.38425682858073L127.99244010003736 14.888286828580732C127.99444010003735 14.661936828580735 128.00324010003735 14.390236828580726 128.01844010003734 14.073196828580734C128.03364010003733 13.756166828580717 128.04224010003733 13.581976828580736 128.04444010003735 13.550606828580726C128.04416010003735 13.529706828580714 128.03544010003733 13.511406828580732 128.01684010003734 13.495806828580726C127.99874010003735 13.48020682858072 127.97324010003734 13.472106828580735 127.94044010003735 13.471306828580737C127.90524010003735 13.478306828580713 127.84564010003736 13.484006828580732 127.76169010003736 13.489206828580734C127.67769010003735 13.49420682858073 127.58565010003736 13.497206828580715 127.48545010003735 13.497206828580715C127.27826010003736 13.496946828580718 127.06538010003734 13.49420682858073 126.84683010003735 13.489206828580734C126.62827010003735 13.48420682858071 126.39914010003736 13.478106828580735 126.15946010003735 13.471306828580737C126.12046010003735 13.518406828580737 126.10096010003736 13.589936828580733 126.10096010003736 13.685806828580724C126.10096010003736 13.781706828580724 126.12046010003735 13.853186828580732 126.15946010003735 13.90030682858071C126.47173010003735 13.907306828580715 126.68568010003735 13.980706828580736 126.80133010003735 14.119676828580737C126.91697010003735 14.258616828580728 126.97168010003735 14.536486828580735 126.96545010003734 14.95328682858073L126.96545010003734 17.462256828580735C126.96845010003734 17.581526828580735 126.95645010003736 17.677076828580738 126.93015010003735 17.748906828580715C126.90385010003735 17.82070682858071 126.84625010003735 17.894176828580726 126.75742010003735 17.969246828580737C126.51637010003735 18.177246828580735 126.29321010003736 18.333246828580712 126.08792010003735 18.437246828580726C125.88263010003735 18.54124682858071 125.69847010003735 18.59324682858073 125.53543010003735 18.59323682858073C125.32147010003735 18.609736828580736 125.09939010003735 18.531236828580717 124.86919010003736 18.357616828580717C124.63898010003736 18.184016828580724 124.51440010003735 17.81622682858071 124.49545010003735 17.254256828580736L124.49545010003735 14.888286828580732C124.49745010003736 14.661936828580735 124.50625010003735 14.390236828580726 124.52145010003736 14.073196828580734C124.53665010003735 13.756166828580717 124.54525010003735 13.581976828580736 124.54745010003735 13.550606828580726C124.54718010003735 13.529706828580714 124.53845010003735 13.511406828580732 124.51985010003735 13.495806828580726C124.50175010003736 13.48020682858072 124.47625010003735 13.472106828580735 124.44345010003735 13.471306828580737C124.40825010003735 13.478306828580713 124.34865010003735 13.484006828580732 124.26470010003735 13.489206828580734C124.18070010003736 13.49420682858073 124.08866010003734 13.497206828580715 123.98845010003735 13.497206828580715C123.78127010003735 13.496946828580718 123.56839010003735 13.49420682858073 123.34983010003735 13.489206828580734C123.13127010003736 13.48420682858071 122.90215010003735 13.478106828580735 122.66247010003735 13.471306828580737C122.62347010003735 13.518406828580737 122.60397010003736 13.589936828580733 122.60397010003736 13.685806828580724C122.60397010003736 13.781706828580724 122.62347010003735 13.853186828580732 122.66247010003735 13.90030682858071C122.96905010003735 13.913606828580726 123.18138010003734 13.987806828580716 123.29946010003735 14.122926828580717C123.41754010003736 14.258076828580727 123.47387010003735 14.530526828580719 123.46846010003735 14.940286828580724L123.46846010003735 17.436256828580724C123.45786010003735 17.902356828580736 123.57652010003736 18.309136828580733 123.82433010003736 18.656616828580724C124.07214010003734 19.00408682858071 124.51251010003735 19.186626828580728 125.14544010003735 19.20423682858072L125.14548010003735 19.20423682858072Z " id="subline" transform="translate(-0.999975,-3.89026)" style="font-size:13px;font-style:normal;font-weight:normal;letter-spacing:0.4594px;fill:#000000;fill-opacity:1;font-family:Linux Libertine O;-inkscape-font-specification:Linux Libertine O"></path>
</svg>