<?xml version="1.0" encoding="UTF-8" standalone="no"?>
<svg
	xmlns="http://www.w3.org/2000/svg"
	xmlns:dc="http://purl.org/dc/elements/1.1/"
	xmlns:cc="http://creativecommons.org/ns#"
	xmlns:rdf="http://www.w3.org/1999/02/22-rdf-syntax-ns#"
	xmlns:svg="http://www.w3.org/2000/svg"
	xmlns:xlink="http://www.w3.org/1999/xlink"
	xmlns:sodipodi="http://sodipodi.sourceforge.net/DTD/sodipodi-0.dtd"
	xmlns:inkscape="http://www.inkscape.org/namespaces/inkscape"
	version="1.1"
	viewBox="0 0 1741.883020025 154.784">
	<path transform="matrix(7.4337222e-2,0,0,7.4337222e-2,3.090812,130.90413)" d="M88.551999025 36.784000000000006L88.551999025 84.87999999999998C88.551999025 87.61599 88.551998025 89.2 87.543999025 89.2C86.392000025 89.2 84.80799502500001 86.60798999999999 80.631999025 81.27999999999999L31.239999024999996 17.63199999999999L11.799999324999998 17.343999999999994C10.936000224999999 18.207989999999995 10.936000224999999 21.232 11.799999324999998 22.09599999999999C17.991993025 22.52798999999999 22.312000024999996 27.567999999999998 23.175999024999996 31.311999999999998L23.175999024999996 91.36C23.175999024999996 104.17598 20.727989025 105.04 10.647999325 106.04799999999999C9.784000225 106.91198999999999 9.784000225 109.93599999999999 10.647999325 110.8C17.703992024999998 110.65599999999999 20.440006025 110.51199999999999 26.775999024999997 110.51199999999999C32.967993025 110.51199999999999 35.560007025 110.65599999999999 42.759999025 110.8C43.623998025 109.93599999999999 43.623998025 106.91198999999999 42.759999025 106.04799999999999C32.680009025 105.04 30.231999025 104.46398 30.231999025 91.36L30.231999025 47.29600000000001C30.231999025 42.39999999999999 30.232000024999998 40.239999999999995 31.383999025 40.239999999999995C32.247998025 40.239999999999995 33.832002025 41.824 36.279999025 44.992000000000004L86.53599902500001 108.496C88.119998025 110.65598999999999 89.992002025 111.95199999999998 92.295999025 111.95199999999998C94.31199702500001 111.95199999999998 95.607999025 110.22399 95.607999025 107.48799999999999L95.607999025 36.784000000000006C95.607999025 23.968010000000007 98.05600902500001 23.103989999999996 108.136000025 22.09599999999999C109.000000025 21.232 109.000000025 18.207989999999995 108.136000025 17.343999999999994C101.080006025 17.488 98.343993025 17.63199999999999 92.007999025 17.63199999999999C85.81600602500001 17.63199999999999 83.223992025 17.488 76.02399902500001 17.343999999999994C75.160000025 18.207989999999995 75.160000025 21.232 76.02399902500001 22.09599999999999C86.103989025 23.103989999999996 88.551999025 23.680009999999996 88.551999025 36.784000000000006M135.127500025 133.55200000000002C137.28750002499999 129.664 139.159500025 125.48798999999998 141.03150002499999 121.16799999999999C152.551490025 93.52002 158.88751002499998 78.54397999999999 166.51950002499999 62.41599999999998C168.535500025 58.239999999999995 172.855500025 53.63198999999999 178.183500025 53.2C179.04750002499998 52.336 179.04750002499998 49.311989999999994 178.183500025 48.44799999999999C174.58350002499998 48.592 171.991500025 48.736000000000004 167.95950002499998 48.736000000000004C162.919500025 48.736000000000004 160.183490025 48.592 154.855500025 48.44799999999999C153.991500025 49.311989999999994 153.991500025 52.336 154.855500025 53.2C159.319490025 53.63198999999999 163.927500025 54.495999999999995 161.767500025 59.67999999999999L147.367500025 92.65599999999999C146.359500025 95.10399 145.207500025 95.39199 143.91150002499998 92.51199999999999L131.23950002499998 62.55999999999999C128.647500025 56.511999999999986 127.063510025 53.91999 135.847500025 53.2C136.711500025 52.336 136.711500025 49.311989999999994 135.847500025 48.44799999999999C130.51950002499999 48.592 124.759490025 48.736000000000004 119.57550002500001 48.736000000000004C114.67950002500001 48.736000000000004 110.791500025 48.592 107.91150002500001 48.44799999999999C107.047500025 49.311989999999994 107.047500025 52.336 107.91150002500001 53.2C114.247490025 53.77598999999999 115.39950002500001 54.92799999999998 119.287500025 63.999999999999986L135.55950002499998 101.872C136.855500025 104.89599 139.015500025 111.37599999999999 137.575500025 115.408C135.991500025 120.30398999999998 134.11950002499998 124.192 131.959500025 128.656C130.375500025 131.53598999999997 128.359500025 132.832 124.75950002500001 132.832C122.743500025 132.832 122.16750002500001 132.39999999999998 120.583500025 132.39999999999998C116.407500025 132.39999999999998 114.24750002500001 136.71999999999997 114.24750002500001 138.59199999999998C114.24750002500001 141.61599 117.127500025 143.92000000000002 121.01550002500001 143.92000000000002C124.03950002500001 143.92000000000002 129.799500025 142.76799 134.98350002499998 133.55200000000002L135.127500025 133.55200000000002M218.180000025 76.96L218.180000025 96.11200000000001C218.180000025 97.98398999999999 217.316000025 98.992 216.16400002499998 99.85600000000001C212.42000002499998 102.87999 207.524000025 106.04799999999999 203.49200002499998 106.04799999999999C196.292010025 106.04799999999999 193.124000025 100.28799 193.124000025 95.824C193.124000025 89.34400000000001 196.148010025 82.86398999999999 206.804000025 79.984L218.180000025 76.96M218.180000025 103.60000000000001C219.044000025 106.62399 221.49201002499998 111.95199999999998 229.268000025 111.95199999999998C236.323990025 111.95199999999998 241.508000025 106.19198999999999 241.508000025 105.472C241.508000025 104.46399999999998 240.21200002499998 103.02399999999999 239.636000025 103.02399999999999C238.77200002499998 103.02399999999999 238.196000025 105.32799999999999 235.172000025 105.32799999999999C229.556000025 105.32799999999999 229.412000025 99.71199 229.412000025 93.08800000000001L229.412000025 71.63199999999999C229.412000025 51.18401999999999 218.179990025 47.29600000000001 207.668000025 47.29600000000001C195.86001002499998 47.29600000000001 183.90800002499998 55.504000000000005 183.90800002499998 63.27999999999999C183.90800002499998 66.73599 185.636000025 68.32000000000001 188.948000025 68.32000000000001C193.124000025 68.32000000000001 195.28400002499998 65.43999000000001 195.28400002499998 63.568C195.28400002499998 62.55999999999999 195.14000002499998 61.55199 194.852000025 60.975999999999985C194.708000025 60.544 194.56400002499998 59.67998999999999 194.56400002499998 58.09599999999999C194.56400002499998 53.63199999999999 201.044000025 52.04799999999999 206.51600002499998 52.04799999999999C211.411990025 52.04799999999999 218.180000025 54.49601 218.180000025 70.76799999999999C218.180000025 71.77599 217.74800002499998 72.35199999999999 217.316000025 72.496L204.93200002499998 75.52C191.108010025 78.97598999999998 181.172000025 86.60801 181.172000025 96.39999999999999C181.172000025 107.77597999999999 189.23601002499998 111.95199999999998 199.316000025 111.95199999999998C205.939990025 111.95199999999998 208.67601002499998 110.79999 215.012000025 105.90399999999998L217.892000025 103.60000000000001L218.180000025 103.60000000000001M265.16050002500003 63.27999999999999C270.77649002500004 57.80800000000001 275.384500025 54.784000000000006 279.848500025 54.784000000000006C285.320490025 54.784000000000006 289.35250002500004 58.239999999999995 289.35250002500004 67.88799999999999L289.35250002500004 92.944C289.35250002500004 104.75197999999999 288.200490025 105.472 280.42450002500004 106.04799999999999C279.704500025 106.91198999999999 279.704500025 109.93599999999999 280.42450002500004 110.8C286.472490025 110.65599999999999 289.352510025 110.51199999999999 295.11250002500003 110.51199999999999C301.016490025 110.51199999999999 303.032510025 110.65599999999999 309.224500025 110.8C309.944500025 109.93599999999999 309.944500025 106.91198999999999 309.224500025 106.04799999999999C302.02451002500004 105.472 300.728500025 104.75197999999999 300.728500025 92.944L300.728500025 70.04799999999999C300.728500025 68.032 300.728500025 66.01599 300.584500025 64.288C307.496490025 56.65599999999999 313.11250002500003 54.784000000000006 318.728500025 54.784000000000006C324.200490025 54.784000000000006 327.656500025 57.951999999999984 327.656500025 67.60000000000001L327.656500025 92.944C327.656500025 104.75197999999999 326.21649002500004 105.472 318.728500025 106.04799999999999C318.00850002500005 106.91198999999999 318.00850002500005 109.93599999999999 318.728500025 110.8C324.77649002500004 110.65599999999999 327.65651002500005 110.51199999999999 333.416500025 110.51199999999999C339.320490025 110.51199999999999 342.056510025 110.65599999999999 348.248500025 110.8C348.968500025 109.93599999999999 348.968500025 106.91198999999999 348.248500025 106.04799999999999C340.328510025 105.472 339.03250002500005 104.75197999999999 339.03250002500005 92.944L339.03250002500005 70.192C339.03250002500005 57.376009999999994 336.58449002500004 47.29600000000001 323.91250002500004 47.29600000000001C316.424510025 47.29600000000001 308.504490025 50.032 301.016500025 57.951999999999984C300.584500025 58.38399 299.72050002500004 59.103989999999996 299.432500025 57.951999999999984C297.992500025 52.04799999999999 292.520490025 47.29600000000001 285.03250002500005 47.29600000000001C276.68051002500005 47.29600000000001 270.344490025 52.336 264.00850002500005 58.959999999999994C263.432500025 59.535989999999984 262.568500025 60.97598999999998 262.568500025 58.959999999999994C262.568500025 54.64 263.288500025 48.016000000000005 263.288500025 48.016000000000005C263.288500025 47.29600000000001 262.712500025 46.86399999999999 261.560500025 46.86399999999999C257.384500025 48.44798999999999 251.624490025 49.743999999999986 241.688500025 51.040000000000006C241.40050002499999 51.90399000000001 241.688500025 54.207999999999984 241.97650002499998 55.07199999999999C249.752490025 55.93598999999999 251.336500025 56.511999999999986 251.336500025 64.86399999999999L251.336500025 92.944C251.336500025 104.75197999999999 249.464490025 105.472 241.544500025 106.04799999999999C240.680500025 106.91198999999999 240.680500025 109.93599999999999 241.544500025 110.8C247.44849002499998 110.65599999999999 250.90451002499998 110.51199999999999 257.096500025 110.51199999999999C262.712490025 110.51199999999999 265.160510025 110.65599999999999 271.20850002500003 110.8C272.072500025 109.93599999999999 272.072500025 106.91198999999999 271.20850002500003 106.04799999999999C264.008510025 105.32799999999999 262.712500025 104.75197999999999 262.712500025 92.944L262.712500025 69.32799999999999C262.712500025 66.30399999999999 264.00850002500005 64.57599 265.16050002500003 63.27999999999999M363.875250025 69.90399999999998C366.611250025 53.632009999999994 376.69125002500004 52.336 380.147250025 52.336C385.619240025 52.336 392.099250025 55.36001 392.099250025 67.456C392.099250025 68.75198999999999 391.52325002500004 69.472 389.93925002500004 69.472L363.875250025 69.90399999999998M401.603250025 97.11999999999999C396.275250025 102.59199 392.09924002500003 104.896 383.747250025 104.896C378.563250025 104.896 372.515240025 101.87199 368.051250025 94.528C365.171250025 89.776 363.443250025 83.15199 363.443250025 74.8L401.747250025 75.08800000000001C403.47525002500004 75.08800000000001 404.483250025 74.22399 404.483250025 72.64C404.483250025 60.54401 400.163230025 47.58399999999999 380.147250025 47.58399999999999C367.619260025 47.58399999999999 351.347250025 59.53601999999999 351.347250025 81.42399999999999C351.347250025 89.48798999999998 353.363250025 97.264 358.115250025 102.736C363.011240025 108.49598999999999 369.77926002500004 111.95199999999998 380.147250025 111.95199999999998C391.091240025 111.95199999999998 398.867260025 106.91198999999999 404.627250025 99.42399999999999C404.195250025 97.984 403.33125002500003 97.264 401.603250025 97.11999999999999M456.949250025 92.65599999999999C456.949250025 95.39199 456.661250025 96.544 454.645250025 98.272C449.317250025 102.87999 444.709250025 105.18399999999998 441.109250025 105.18399999999998C433.333260025 105.18399999999998 425.269250025 96.68798 425.269250025 78.688C425.269250025 68.32000999999998 427.28525002500004 62.559989999999985 429.445250025 59.53599999999999C433.90924002500003 52.76799999999999 439.957250025 52.336 442.837250025 52.336C448.021240025 52.336 451.621250025 54.207999999999984 454.50125002500005 57.519999999999996C456.517250025 59.823989999999995 456.949250025 60.83200000000001 456.949250025 65.296L456.949250025 92.65599999999999M455.365250025 103.312C455.94125002500004 102.736 457.09325002500003 102.448 457.09325002500003 103.456C457.09325002500003 106.91198999999999 458.67725002500003 111.95199999999998 458.67725002500003 111.95199999999998C459.829250025 112.38399 460.26125002500004 112.23998999999999 461.413250025 111.95199999999998C464.58125002500003 109.36 470.05326002500004 107.19999 478.837250025 106.192C479.70125002500004 105.32799999999999 479.70125002500004 103.16798999999999 478.837250025 102.30399999999999C469.621260025 101.58399999999999 468.325250025 98.84799 468.325250025 91.79199999999999L468.325250025 26.559999999999988C468.325250025 17.19999999999999 468.901250025 11.439999999999998 468.901250025 11.439999999999998C468.901250025 10.432000000000002 468.325250025 10 467.029250025 10C463.42925002500004 11.439989999999995 452.629240025 13.455999999999989 446.86925002500004 13.887999999999991C446.58125002500003 15.039989999999989 446.86925002500004 17.343999999999994 447.733250025 18.208C455.22124002500004 18.639989999999997 456.949250025 17.92000999999999 456.949250025 30.016000000000005L456.949250025 48.44799999999999C456.949250025 49.45599 456.661250025 49.743999999999986 455.65325002500003 49.743999999999986C455.077250025 49.743999999999986 449.17324002500004 47.29600000000001 444.421250025 47.29600000000001C434.917260025 47.29600000000001 428.581240025 50.463999999999984 422.82125002500004 55.93599999999999C416.629260025 62.12799 412.885250025 70.62400999999998 412.885250025 81.27999999999999C412.885250025 98.99198 421.81326002500003 111.95199999999998 437.365250025 111.95199999999998C442.98124002500003 111.95199999999998 448.309260025 109.07198999999999 455.365250025 103.312M484.897000025 46.86399999999999C484.465000025 46.86399999999999 484.03300002500004 47.43999999999998 484.03300002500004 47.727999999999994C483.88900002500003 54.20798999999998 483.025000025 59.67999999999999 481.873000025 66.736C483.025000025 67.31199 484.897000025 67.59999 486.625000025 67.16799999999999C489.505000025 56.656009999999995 493.969000025 53.63199999999999 498.289000025 53.63199999999999L518.161000025 53.63199999999999L482.73700002500004 105.90399999999998C481.585000025 107.63198999999999 481.441000025 108.06400000000001 481.441000025 108.784C481.441000025 109.79198999999998 482.59300002500004 110.51199999999999 484.753000025 110.51199999999999L529.681000025 110.51199999999999C530.401000025 106.04799999999999 531.841000025 99.27998999999998 534.2890000250001 90.92799999999998C533.281000025 90.496 531.697000025 89.92 529.969000025 89.92L528.097000025 94.09599999999999C524.641000025 101.72798999999999 522.192990025 105.616 513.841000025 105.616L494.68900002500004 105.616L529.249000025 54.784000000000006C531.697000025 51.040000000000006 532.417000025 49.311989999999994 532.417000025 48.736000000000004C532.417000025 48.15999999999998 531.697000025 47.727999999999994 530.689000025 47.727999999999994C529.969000025 47.727999999999994 525.3610000250001 48.736000000000004 521.185000025 48.736000000000004L491.953000025 48.736000000000004C487.20100002500004 48.736000000000004 487.34500002500005 47.43999000000001 484.897000025 46.86399999999999M547.544250025 64.86399999999999L547.544250025 92.944C547.544250025 104.89598 545.8162400250001 105.472 536.888250025 106.04799999999999C536.024250025 106.91198999999999 536.024250025 109.93599999999999 536.888250025 110.8C542.9362400250001 110.65599999999999 547.544260025 110.51199999999999 553.304250025 110.51199999999999C559.208240025 110.51199999999999 564.536260025 110.65599999999999 570.728250025 110.8C571.592250025 109.93599999999999 571.592250025 106.91198999999999 570.728250025 106.04799999999999C560.648260025 105.32799999999999 558.920250025 104.89598 558.920250025 92.944L558.920250025 72.92799999999998C558.920250025 69.18399999999998 560.648250025 65.87199 562.376250025 63.27999999999999C563.960250025 60.975999999999985 567.2722500250001 56.224000000000004 569.000250025 56.224000000000004C570.008250025 56.224000000000004 571.160250025 56.36800000000001 572.024250025 57.231999999999985C573.4642500250001 58.67199000000001 574.904250025 61.408 577.928250025 61.408C581.384250025 61.408 584.696250025 57.807990000000004 584.696250025 54.207999999999984C584.696250025 51.471999999999994 582.104240025 47.29600000000001 576.056250025 47.29600000000001C569.288260025 47.29600000000001 563.384250025 53.63199999999999 560.072250025 59.248000000000005C559.208250025 60.831990000000005 558.776250025 60.111990000000006 558.776250025 59.39199999999998C558.776250025 54.784000000000006 559.496250025 47.872 559.496250025 47.872C559.496250025 47.29600000000001 558.776250025 46.86399999999999 557.624250025 46.86399999999999C553.592250025 48.44798999999999 547.832240025 49.743999999999986 537.896250025 51.040000000000006C537.6082500250001 51.90399000000001 537.6082500250001 54.207999999999984 538.184250025 55.07199999999999C545.9602400250001 55.791989999999984 547.544250025 56.944 547.544250025 64.86399999999999M587.360750025 80.992C587.360750025 95.67997999999999 597.296770025 111.95199999999998 617.600750025 111.95199999999998C639.056730025 111.95199999999998 648.128750025 94.09597999999998 648.128750025 79.69599999999998C648.128750025 64.72000999999999 640.208730025 47.29600000000001 617.888750025 47.29600000000001C598.448770025 47.29600000000001 587.360750025 62.70401 587.360750025 80.992M616.304750025 52.04799999999999C628.688740025 52.04799999999999 635.744750025 63.13601999999999 635.744750025 84.30399999999999C635.744750025 103.31197999999999 626.9607400250001 107.2 620.192750025 107.2C605.216760025 107.2 599.744750025 88.76798000000001 599.744750025 77.67999999999999C599.744750025 65.15201 604.2087600250001 52.04799999999999 616.304750025 52.04799999999999M695.955250025 70.336C695.955250025 83.72797999999999 689.187240025 86.46399999999998 683.859250025 86.46399999999998C671.763260025 86.46399999999998 670.467250025 76.23998999999999 670.467250025 67.02399999999999C670.467250025 56.944010000000006 674.067260025 51.760000000000005 681.987250025 51.760000000000005C691.059240025 51.760000000000005 695.955250025 58.38401 695.955250025 70.336M669.0272500250001 111.95199999999998C670.611250025 112.38399 672.915250025 112.67199999999998 674.787250025 112.67199999999998C679.251240025 112.67199999999998 683.283250025 112.24 685.299250025 112.24C692.4992400250001 112.24 698.547250025 112.384 702.723250025 114.688C708.339240025 117.85599 710.067250025 119.872 710.067250025 123.616C710.067250025 133.98397999999997 694.803240025 139.45600000000002 681.843250025 139.45600000000002C676.659250025 139.45600000000002 664.563250025 135.27999 664.563250025 125.48799999999999C664.563250025 120.592 664.851250025 116.99199 669.0272500250001 111.95199999999998M713.955250025 54.784000000000006C716.691250025 54.784000000000006 719.283250025 52.19198999999999 719.283250025 49.312C719.283250025 46.288 716.547250025 43.983999999999995 712.659250025 43.983999999999995C708.915250025 43.983999999999995 702.003250025 46.432 698.259250025 51.32799999999999C696.531250025 50.176 691.779240025 47.29600000000001 683.283250025 47.29600000000001C670.467260025 47.29600000000001 658.659250025 55.936009999999996 658.659250025 69.18399999999998C658.659250025 76.95998999999999 662.115250025 81.42399999999999 666.1472500250001 85.312C662.115250025 88.76798999999998 659.811250025 94.96 659.811250025 99.85600000000001C659.811250025 105.03999 662.691250025 109.07199999999999 666.4352500250001 110.944C658.659260025 115.55199 654.627250025 122.176 654.627250025 128.368C654.627250025 140.89598 666.435260025 144.784 677.523250025 144.784C696.963230025 144.784 717.987250025 135.42397999999997 717.987250025 119.872C717.987250025 115.264 715.827250025 111.66399 711.651250025 108.20799999999998C706.035250025 103.60000000000001 695.955240025 103.456 690.627250025 103.456C688.035250025 103.456 684.4352500250001 103.74399999999999 680.979250025 104.176C678.819250025 104.32000000000001 677.379250025 104.46399999999998 676.659250025 104.46399999999998C672.4832500250001 104.46399999999998 667.443250025 102.44798999999999 667.443250025 96.25599999999999C667.443250025 93.37599999999999 668.307250025 90.35198999999999 670.035250025 87.90399999999998C673.491250025 89.91999 677.523250025 90.92799999999998 683.139250025 90.92799999999998C695.8112400250001 90.92799999999998 707.475250025 83.00797999999999 707.475250025 68.896C707.475250025 62.128 705.4592500250001 58.23998999999999 701.283250025 53.92C702.2912500250001 52.480000000000004 705.1712500250001 50.463999999999984 707.043250025 50.463999999999984C708.0512500250001 50.463999999999984 709.059250025 50.896 709.923250025 52.19199999999999C710.499250025 53.343990000000005 712.371250025 54.784000000000006 713.955250025 54.784000000000006M743.0752500250001 58.239999999999995C746.819250025 54.92799999999998 751.139250025 53.63199999999999 755.3152500250001 53.63199999999999C764.099240025 53.63199999999999 771.299250025 64.28801 771.299250025 78.25599999999999C771.299250025 94.67198 764.675240025 107.056 750.995250025 107.056C746.531250025 107.056 743.507250025 103.88798999999999 740.627250025 100.288L740.627250025 64.288C740.627250025 61.263999999999996 741.203250025 59.96799 743.0752500250001 58.239999999999995M742.067250025 53.775999999999996C741.059250025 54.63999 740.627250025 54.35198999999999 740.627250025 53.056L740.627250025 26.559999999999988C740.627250025 17.19999999999999 741.203250025 11.439999999999998 741.203250025 11.439999999999998C741.203250025 10.432000000000002 740.627250025 10 739.331250025 10C735.731250025 11.439989999999995 724.931240025 13.455999999999989 719.1712500250001 13.887999999999991C718.883250025 15.039989999999989 719.1712500250001 17.343999999999994 720.035250025 18.208C727.5232400250001 18.639989999999997 729.251250025 17.92000999999999 729.251250025 30.016000000000005L729.251250025 100.288C729.251250025 105.90399000000001 729.107250025 108.496 728.675250025 110.51199999999999C729.395250025 111.66399 730.115250025 112.24 731.843250025 112.24C732.707250025 111.52 734.1472500250001 110.07999 735.155250025 108.784C736.739250025 107.056 737.603250025 107.056 739.187250025 108.496C742.355250025 111.23198999999998 746.675250025 111.95199999999998 751.859250025 111.95199999999998C766.547230025 111.95199999999998 783.683250025 98.55997 783.683250025 75.664C783.683250025 58.09600999999999 770.723240025 47.29600000000001 758.1952500250001 47.29600000000001C752.003260025 47.29600000000001 746.531240025 49.743999999999986 742.067250025 53.775999999999996M827.086250025 76.96L827.086250025 96.11200000000001C827.086250025 97.98398999999999 826.222250025 98.992 825.0702500250001 99.85600000000001C821.326250025 102.87999 816.430250025 106.04799999999999 812.398250025 106.04799999999999C805.198260025 106.04799999999999 802.030250025 100.28799 802.030250025 95.824C802.030250025 89.34400000000001 805.054260025 82.86398999999999 815.710250025 79.984L827.086250025 76.96M827.086250025 103.60000000000001C827.9502500250001 106.62399 830.398260025 111.95199999999998 838.174250025 111.95199999999998C845.2302400250001 111.95199999999998 850.414250025 106.19198999999999 850.414250025 105.472C850.414250025 104.46399999999998 849.1182500250001 103.02399999999999 848.542250025 103.02399999999999C847.678250025 103.02399999999999 847.102250025 105.32799999999999 844.078250025 105.32799999999999C838.462250025 105.32799999999999 838.318250025 99.71199 838.318250025 93.08800000000001L838.318250025 71.63199999999999C838.318250025 51.18401999999999 827.086240025 47.29600000000001 816.574250025 47.29600000000001C804.7662600250001 47.29600000000001 792.814250025 55.504000000000005 792.814250025 63.27999999999999C792.814250025 66.73599 794.542250025 68.32000000000001 797.854250025 68.32000000000001C802.030250025 68.32000000000001 804.1902500250001 65.43999000000001 804.1902500250001 63.568C804.1902500250001 62.55999999999999 804.0462500250001 61.55199 803.758250025 60.975999999999985C803.614250025 60.544 803.470250025 59.67998999999999 803.470250025 58.09599999999999C803.470250025 53.63199999999999 809.9502500250001 52.04799999999999 815.422250025 52.04799999999999C820.318240025 52.04799999999999 827.086250025 54.49601 827.086250025 70.76799999999999C827.086250025 71.77599 826.654250025 72.35199999999999 826.222250025 72.496L813.838250025 75.52C800.014260025 78.97598999999998 790.078250025 86.60801 790.078250025 96.39999999999999C790.078250025 107.77597999999999 798.142260025 111.95199999999998 808.222250025 111.95199999999998C814.846240025 111.95199999999998 817.582260025 110.79999 823.918250025 105.90399999999998L826.798250025 103.60000000000001L827.086250025 103.60000000000001M860.386750025 92.944C860.386750025 104.89598 858.802740025 105.616 850.018750025 106.04799999999999C849.154750025 106.91198999999999 849.154750025 109.93599999999999 850.018750025 110.8C856.0667400250001 110.65599999999999 859.810760025 110.51199999999999 866.1467500250001 110.51199999999999C872.338740025 110.51199999999999 875.938760025 110.65599999999999 882.130750025 110.8C882.994750025 109.93599999999999 882.994750025 106.91198999999999 882.130750025 106.04799999999999C873.346760025 105.616 871.7627500250001 104.89598 871.7627500250001 92.944L871.7627500250001 26.559999999999988C871.7627500250001 17.19999999999999 872.338750025 11.439999999999998 872.338750025 11.439999999999998C872.338750025 10.432000000000002 871.7627500250001 10 870.466750025 10C866.866750025 11.439989999999995 856.0667400250001 13.455999999999989 850.306750025 13.887999999999991C850.018750025 15.039989999999989 850.306750025 17.343999999999994 851.1707500250001 18.208C858.658740025 18.639989999999997 860.386750025 17.92000999999999 860.386750025 30.016000000000005L860.386750025 92.944M922.291500025 27.999999999999986C919.555500025 27.999999999999986 917.107500025 26.99199 914.8035000250001 25.263999999999996C911.9235000250001 23.24799999999999 908.7555000250001 20.367999999999995 904.435500025 20.367999999999995C898.243510025 20.367999999999995 894.931500025 25.983999999999995 892.915500025 34.480000000000004C893.7795000250001 35.343990000000005 895.219500025 35.48798999999998 896.8035000250001 35.2C898.243500025 30.447999999999993 899.6835000250001 28.287999999999997 903.427500025 28.287999999999997C905.8755000250001 28.287999999999997 908.611500025 29.439999999999984 911.203500025 31.023999999999987C914.227500025 33.03999 917.251500025 35.63199999999999 920.419500025 35.63199999999999C927.043490025 35.63199999999999 931.219500025 30.015990000000002 932.9475000250001 21.37599999999999C932.083500025 20.799999999999997 930.643500025 20.367999999999995 929.059500025 20.512C927.0435000250001 26.559989999999985 925.459500025 27.999999999999986 922.291500025 27.999999999999986M898.531500025 69.90399999999998C901.267500025 53.632009999999994 911.347500025 52.336 914.8035000250001 52.336C920.2754900250001 52.336 926.7555000250001 55.36001 926.7555000250001 67.456C926.7555000250001 68.75198999999999 926.179500025 69.472 924.595500025 69.472L898.531500025 69.90399999999998M936.259500025 97.11999999999999C930.931500025 102.59199 926.755490025 104.896 918.403500025 104.896C913.219500025 104.896 907.171490025 101.87199 902.7075000250001 94.528C899.8275000250001 89.776 898.099500025 83.15199 898.099500025 74.8L936.403500025 75.08800000000001C938.131500025 75.08800000000001 939.1395000250001 74.22399 939.1395000250001 72.64C939.1395000250001 60.54401 934.8194800250001 47.58399999999999 914.8035000250001 47.58399999999999C902.275510025 47.58399999999999 886.003500025 59.53601999999999 886.003500025 81.42399999999999C886.003500025 89.48798999999998 888.0195000250001 97.264 892.771500025 102.736C897.667490025 108.49598999999999 904.435510025 111.95199999999998 914.8035000250001 111.95199999999998C925.747490025 111.95199999999998 933.5235100250001 106.91198999999999 939.283500025 99.42399999999999C938.8515000250001 97.984 937.987500025 97.264 936.259500025 97.11999999999999M974.993750025 90.64C975.569750025 97.69599000000001 976.001750025 104.46399999999998 976.001750025 110.51199999999999C977.441750025 110.224 978.881750025 110.08 979.601750025 110.08C980.609750025 110.08 981.4737500250001 110.08 982.481750025 110.36800000000001C986.369750025 111.37598999999999 990.2577500250001 111.95199999999998 995.585750025 111.95199999999998C1003.649740025 111.95199999999998 1018.4817200250001 108.06398 1018.4817200250001 93.808C1018.4817200250001 84.01601000000001 1011.281720025 78.39998999999999 1001.633750025 74.65599999999999C992.993760025 71.34400000000001 987.2337500250001 69.18399000000001 987.2337500250001 61.263999999999996C987.2337500250001 55.36 992.417750025 52.04799999999999 997.313750025 52.04799999999999C1000.481750025 52.04799999999999 1008.833720025 53.200010000000006 1010.705720025 65.43999999999998C1011.569720025 66.30398999999998 1014.449720025 66.15999000000001 1015.3137200250001 65.296C1015.3137200250001 60.11200000000001 1016.033720025 54.78399 1016.177720025 50.032C1011.713720025 49.312 1004.801720025 47.29600000000001 997.313750025 47.29600000000001C986.657760025 47.29600000000001 977.009750025 54.207999999999984 977.009750025 63.42399999999999C977.009750025 73.93597999999999 981.7617600250001 78.39999999999999 992.849750025 83.008C1004.657720025 88.04798999999998 1007.537720025 90.92799999999998 1007.537720025 97.11999999999999C1007.537720025 104.17599 1000.625740025 107.2 995.297750025 107.2C989.681750025 107.2 986.513750025 105.32798999999999 985.073750025 103.74399999999999C981.617750025 100.432 980.321750025 94.09598999999999 979.457750025 90.496C978.593750025 89.63199999999999 975.857750025 89.776 974.993750025 90.64M1032.166720025 24.255999999999986C1032.166720025 27.999989999999983 1035.6227200249998 31.743999999999986 1039.078720025 31.743999999999986C1043.1107200249999 31.743999999999986 1046.566720025 27.999989999999983 1046.566720025 24.832000000000008C1046.566720025 21.37599999999999 1043.5427200249999 17.343999999999994 1039.654720025 17.343999999999994C1036.1987200249998 17.343999999999994 1032.166720025 20.799999999999997 1032.166720025 24.255999999999986M1045.270720025 92.944L1045.270720025 64.288C1045.270720025 57.08800000000001 1045.846720025 47.872 1045.846720025 47.872C1045.846720025 47.29600000000001 1045.126720025 46.86399999999999 1043.974720025 46.86399999999999C1039.798720025 48.44798999999999 1034.182720025 49.743999999999986 1024.246720025 51.040000000000006C1023.958720025 51.90399000000001 1024.246720025 54.207999999999984 1024.534720025 55.07199999999999C1032.310720025 55.93598999999999 1033.894720025 56.65599999999999 1033.894720025 64.86399999999999L1033.894720025 92.944C1033.894720025 104.89598 1032.310720025 105.32799999999999 1023.526720025 106.04799999999999C1022.662720025 106.91198999999999 1022.662720025 109.93599999999999 1023.526720025 110.8C1029.5747200249998 110.65599999999999 1033.318720025 110.51199999999999 1039.654720025 110.51199999999999C1045.846720025 110.51199999999999 1049.4467200249999 110.65599999999999 1055.6387200249999 110.8C1056.502720025 109.93599999999999 1056.502720025 106.91198999999999 1055.6387200249999 106.04799999999999C1046.854720025 105.472 1045.270720025 104.89598 1045.270720025 92.944M1144.5165200249999 94.67199999999998L1144.5165200249999 70.04799999999999C1144.5165200249999 57.23200999999999 1141.636520025 47.29600000000001 1128.676520025 47.29600000000001C1121.332520025 47.29600000000001 1114.4205200249999 49.31201 1105.204520025 60.11200000000001L1104.772520025 60.11200000000001L1105.204520025 47.29600000000001C1105.204520025 47.007999999999996 1104.916520025 46.86399999999999 1104.628520025 46.86399999999999C1100.452520025 48.44798999999999 1094.8365200249998 49.743999999999986 1084.7565200249999 51.32799999999999L1085.0445200249999 54.784000000000006L1091.236520025 55.36C1093.252520025 55.64799000000001 1094.404520025 57.08800000000001 1094.404520025 64.288L1094.404520025 100.14399999999999C1094.404520025 104.31999 1093.108520025 105.90399999999998 1088.212520025 106.336L1085.476520025 106.62399999999998C1084.7565200249999 106.76799999999999 1084.3245200249999 107.056 1084.3245200249999 107.776L1084.3245200249999 110.51199999999999L1084.6125200249999 110.8C1084.6125200249999 110.8 1093.684520025 110.51199999999999 1099.588520025 110.51199999999999C1105.204520025 110.51199999999999 1114.2765200249999 110.8 1114.2765200249999 110.8L1114.5645200249999 110.51199999999999L1114.5645200249999 107.776C1114.5645200249999 107.056 1113.9885200249998 106.76799999999999 1113.4125200249998 106.62399999999998L1111.396520025 106.336C1106.7885200249998 105.76 1105.204520025 104.31999 1105.204520025 100.14399999999999L1105.204520025 65.296C1112.548520025 56.65599999999999 1118.020520025 54.207999999999984 1124.356520025 54.207999999999984C1131.9885200249998 54.207999999999984 1133.716520025 58.96001 1133.716520025 69.04L1133.716520025 99.568C1133.716520025 115.26397999999999 1135.156520025 137.152 1128.820520025 137.152C1127.236520025 137.152 1126.3725200249999 136.14398999999997 1125.5085200249998 134.848C1124.356520025 133.40800000000002 1122.916520025 131.68 1119.1725200249998 131.68C1117.588520025 131.68 1114.8525200249999 133.40800000000002 1114.8525200249999 136C1114.8525200249999 140.31999000000002 1119.7485200249998 142.336 1122.340520025 142.336C1125.2205200249998 142.336 1130.116520025 142.33598999999998 1135.444520025 137.872C1142.212520025 132.39999999999998 1144.5165200249999 117.99997 1144.5165200249999 94.67199999999998M1182.798520025 111.95199999999998C1188.414520025 111.95199999999998 1194.318520025 109.07198999999999 1201.3745200249998 103.312C1201.9505200249998 102.736 1203.1025200249999 102.448 1203.1025200249999 103.456C1203.1025200249999 106.91198999999999 1204.686520025 111.95199999999998 1204.686520025 111.95199999999998C1205.694520025 112.38399 1206.270520025 112.38399 1207.4225200249998 111.95199999999998C1210.590520025 109.36 1216.062520025 107.19999 1224.846520025 106.192C1225.7105200249998 105.32799999999999 1225.7105200249998 103.16798999999999 1224.846520025 102.30399999999999C1215.630520025 101.58399999999999 1214.3345200249998 98.84799 1214.3345200249998 91.79199999999999L1214.3345200249998 64.14399999999999C1214.3345200249998 59.824 1214.9105200249999 49.456 1214.9105200249999 49.456C1214.9105200249999 48.87999999999998 1214.4785200249999 48.44799999999999 1213.7585200249998 48.44799999999999C1213.0385200249998 48.592 1210.878520025 48.736000000000004 1208.7185200249999 48.736000000000004C1204.110520025 48.736000000000004 1199.358520025 48.592 1194.030520025 48.44799999999999C1193.166520025 49.311989999999994 1193.166520025 52.336 1194.030520025 53.2C1201.0865200249998 53.63198999999999 1202.9585200249999 55.36 1202.9585200249999 64.86399999999999L1202.9585200249999 92.65599999999999C1202.9585200249999 95.39199 1202.6705200249999 96.544 1200.654520025 98.272C1195.3265200249998 102.87999 1190.7185200249999 105.18399999999998 1187.118520025 105.18399999999998C1182.798520025 105.18399999999998 1175.598520025 103.16797999999999 1175.598520025 90.35199999999999L1175.598520025 64.14399999999999C1175.598520025 59.824 1176.174520025 49.456 1176.174520025 49.456C1176.174520025 48.87999999999998 1175.742520025 48.44799999999999 1175.022520025 48.44799999999999C1174.302520025 48.592 1172.1425200249998 48.736000000000004 1169.982520025 48.736000000000004C1165.3745200249998 48.736000000000004 1160.6225200249999 48.592 1155.2945200249999 48.44799999999999C1154.4305200249999 49.311989999999994 1154.4305200249999 52.336 1155.2945200249999 53.2C1162.206520025 53.77598999999999 1164.222520025 55.36 1164.222520025 64.71999999999998L1164.222520025 92.36800000000001C1164.222520025 102.30398999999998 1168.542520025 111.95199999999998 1182.798520025 111.95199999999998M1277.566720025 63.27999999999999C1283.182720025 57.80800000000001 1287.790720025 54.784000000000006 1292.2547200249999 54.784000000000006C1297.7267200249998 54.784000000000006 1301.758720025 58.239999999999995 1301.758720025 67.88799999999999L1301.758720025 92.944C1301.758720025 104.75197999999999 1300.606720025 105.472 1292.830720025 106.04799999999999C1292.1107200249999 106.91198999999999 1292.1107200249999 109.93599999999999 1292.830720025 110.8C1298.878720025 110.65599999999999 1301.758720025 110.51199999999999 1307.518720025 110.51199999999999C1313.422720025 110.51199999999999 1315.4387200249998 110.65599999999999 1321.6307200249998 110.8C1322.3507200249999 109.93599999999999 1322.3507200249999 106.91198999999999 1321.6307200249998 106.04799999999999C1314.4307200249998 105.472 1313.134720025 104.75197999999999 1313.134720025 92.944L1313.134720025 70.04799999999999C1313.134720025 68.032 1313.134720025 66.01599 1312.990720025 64.288C1319.902720025 56.65599999999999 1325.518720025 54.784000000000006 1331.134720025 54.784000000000006C1336.606720025 54.784000000000006 1340.0627200249999 57.951999999999984 1340.0627200249999 67.60000000000001L1340.0627200249999 92.944C1340.0627200249999 104.75197999999999 1338.6227200249998 105.472 1331.134720025 106.04799999999999C1330.414720025 106.91198999999999 1330.414720025 109.93599999999999 1331.134720025 110.8C1337.182720025 110.65599999999999 1340.0627200249999 110.51199999999999 1345.8227200249999 110.51199999999999C1351.7267200249998 110.51199999999999 1354.462720025 110.65599999999999 1360.654720025 110.8C1361.374720025 109.93599999999999 1361.374720025 106.91198999999999 1360.654720025 106.04799999999999C1352.734720025 105.472 1351.4387200249998 104.75197999999999 1351.4387200249998 92.944L1351.4387200249998 70.192C1351.4387200249998 57.376009999999994 1348.990720025 47.29600000000001 1336.318720025 47.29600000000001C1328.830720025 47.29600000000001 1320.9107200249998 50.032 1313.422720025 57.951999999999984C1312.990720025 58.38399 1312.126720025 59.103989999999996 1311.838720025 57.951999999999984C1310.3987200249999 52.04799999999999 1304.926720025 47.29600000000001 1297.4387200249998 47.29600000000001C1289.086720025 47.29600000000001 1282.750720025 52.336 1276.414720025 58.959999999999994C1275.838720025 59.535989999999984 1274.974720025 60.97598999999998 1274.974720025 58.959999999999994C1274.974720025 54.64 1275.694720025 48.016000000000005 1275.694720025 48.016000000000005C1275.694720025 47.29600000000001 1275.118720025 46.86399999999999 1273.9667200249999 46.86399999999999C1269.790720025 48.44798999999999 1264.030720025 49.743999999999986 1254.094720025 51.040000000000006C1253.806720025 51.90399000000001 1254.094720025 54.207999999999984 1254.3827200249998 55.07199999999999C1262.1587200249999 55.93598999999999 1263.742720025 56.511999999999986 1263.742720025 64.86399999999999L1263.742720025 92.944C1263.742720025 104.75197999999999 1261.8707200249999 105.472 1253.950720025 106.04799999999999C1253.086720025 106.91198999999999 1253.086720025 109.93599999999999 1253.950720025 110.8C1259.854720025 110.65599999999999 1263.310720025 110.51199999999999 1269.502720025 110.51199999999999C1275.118720025 110.51199999999999 1277.566720025 110.65599999999999 1283.614720025 110.8C1284.4787200249998 109.93599999999999 1284.4787200249998 106.91198999999999 1283.614720025 106.04799999999999C1276.414720025 105.32799999999999 1275.118720025 104.75197999999999 1275.118720025 92.944L1275.118720025 69.32799999999999C1275.118720025 66.30399999999999 1276.414720025 64.57599 1277.566720025 63.27999999999999M1360.2975200249998 61.83999999999999C1360.8735200249998 63.13599000000001 1362.0255200249999 63.712 1363.321520025 63.85600000000001C1368.2175200249999 57.519999999999996 1374.409520025 54.35199999999999 1380.601520025 54.35199999999999C1391.1135200249998 54.35199999999999 1399.897520025 65.00801 1399.897520025 81.85600000000001C1399.897520025 97.69598 1392.985520025 107.2 1383.481520025 107.2C1374.985520025 107.2 1373.8335200249999 102.15999000000001 1373.2575200249998 97.11999999999999C1372.6815200249998 93.23199999999999 1370.809520025 91.93599999999999 1367.7855200249999 91.93599999999999C1364.761520025 91.93599999999999 1360.7295200249998 93.808 1360.7295200249998 98.272C1360.7295200249998 106.19198999999999 1368.937520025 111.95199999999998 1382.761520025 111.95199999999998C1397.0175200249998 111.95199999999998 1412.281520025 99.13597 1412.281520025 78.688C1412.281520025 60.112009999999984 1401.9135200249998 47.29600000000001 1383.7695200249998 47.29600000000001C1375.129520025 47.29600000000001 1367.4975200249999 50.03201 1360.2975200249998 61.83999999999999M1456.136720025 92.944C1456.136720025 104.89598 1454.5527200249999 105.616 1445.768720025 106.04799999999999C1444.904720025 106.91198999999999 1444.904720025 109.93599999999999 1445.768720025 110.8C1451.816720025 110.65599999999999 1455.560720025 110.51199999999999 1461.896720025 110.51199999999999C1468.088720025 110.51199999999999 1471.6887200249998 110.65599999999999 1477.8807200249998 110.8C1478.7447200249999 109.93599999999999 1478.7447200249999 106.91198999999999 1477.8807200249998 106.04799999999999C1469.096720025 105.616 1467.512720025 104.89598 1467.512720025 92.944L1467.512720025 26.559999999999988C1467.512720025 17.19999999999999 1468.088720025 11.439999999999998 1468.088720025 11.439999999999998C1468.088720025 10.432000000000002 1467.512720025 10 1466.2167200249999 10C1462.616720025 11.439989999999995 1451.816720025 13.455999999999989 1446.056720025 13.887999999999991C1445.768720025 15.039989999999989 1446.056720025 17.343999999999994 1446.9207200249998 18.208C1454.4087200249999 18.639989999999997 1456.136720025 17.92000999999999 1456.136720025 30.016000000000005L1456.136720025 92.944M1494.281520025 69.90399999999998C1497.0175200249998 53.632009999999994 1507.097520025 52.336 1510.553520025 52.336C1516.0255200249999 52.336 1522.505520025 55.36001 1522.505520025 67.456C1522.505520025 68.75198999999999 1521.9295200249999 69.472 1520.3455200249998 69.472L1494.281520025 69.90399999999998M1532.0095200249998 97.11999999999999C1526.6815200249998 102.59199 1522.505520025 104.896 1514.1535200249998 104.896C1508.9695200249998 104.896 1502.9215200249998 101.87199 1498.457520025 94.528C1495.577520025 89.776 1493.849520025 83.15199 1493.849520025 74.8L1532.1535200249998 75.08800000000001C1533.8815200249999 75.08800000000001 1534.889520025 74.22399 1534.889520025 72.64C1534.889520025 60.54401 1530.569520025 47.58399999999999 1510.553520025 47.58399999999999C1498.0255200249999 47.58399999999999 1481.753520025 59.53601999999999 1481.753520025 81.42399999999999C1481.753520025 89.48798999999998 1483.7695200249998 97.264 1488.521520025 102.736C1493.417520025 108.49598999999999 1500.185520025 111.95199999999998 1510.553520025 111.95199999999998C1521.4975200249999 111.95199999999998 1529.273520025 106.91198999999999 1535.033520025 99.42399999999999C1534.601520025 97.984 1533.7375200249999 97.264 1532.0095200249998 97.11999999999999M1589.031720025 92.944L1589.031720025 54.35199999999999L1602.423720025 54.35199999999999C1603.719720025 54.35199999999999 1605.7357200249999 53.77598999999999 1605.7357200249999 52.480000000000004L1605.7357200249999 49.60000000000001C1605.7357200249999 49.02399999999999 1605.3037200249998 48.736000000000004 1604.5837200249998 48.736000000000004L1589.031720025 48.736000000000004L1589.031720025 40.528000000000006C1589.031720025 18.352019999999996 1595.655720025 14.896 1600.407720025 14.896C1604.7277200249998 14.896 1607.031720025 16.623999999999995 1609.047720025 21.664C1610.1997200249998 24.255989999999983 1611.7837200249999 26.272000000000006 1614.807720025 26.272000000000006C1617.2557200249998 26.272000000000006 1620.711720025 23.24799 1620.711720025 20.367999999999995C1620.711720025 17.92 1619.127720025 15.32799 1616.1037200249998 13.024000000000001C1612.359720025 10.432000000000002 1608.615720025 10 1603.143720025 10C1591.047720025 10 1577.655720025 20.512019999999993 1577.655720025 42.975999999999985L1577.655720025 48.736000000000004L1570.3117200249999 48.736000000000004C1567.719720025 48.736000000000004 1566.999720025 50.463999999999984 1566.999720025 51.616L1566.999720025 53.487999999999985C1566.999720025 54.20798999999998 1567.143720025 54.35199999999999 1567.719720025 54.35199999999999L1577.655720025 54.35199999999999L1577.655720025 92.944C1577.655720025 104.89598 1576.0717200249999 105.472 1568.2957200249998 106.04799999999999C1567.431720025 106.91198999999999 1567.431720025 109.93599999999999 1568.2957200249998 110.8C1574.3437200249998 110.65599999999999 1577.511720025 110.51199999999999 1583.415720025 110.51199999999999C1590.039720025 110.51199999999999 1594.2157200249999 110.65599999999999 1600.407720025 110.8C1601.271720025 109.93599999999999 1601.271720025 106.91198999999999 1600.407720025 106.04799999999999C1590.615720025 105.472 1589.031720025 104.89598 1589.031720025 92.944M1646.742520025 76.96L1646.742520025 96.11200000000001C1646.742520025 97.98398999999999 1645.878520025 98.992 1644.726520025 99.85600000000001C1640.982520025 102.87999 1636.0865200249998 106.04799999999999 1632.0545200249999 106.04799999999999C1624.8545200249998 106.04799999999999 1621.686520025 100.28799 1621.686520025 95.824C1621.686520025 89.34400000000001 1624.7105200249998 82.86398999999999 1635.366520025 79.984L1646.742520025 76.96M1646.742520025 103.60000000000001C1647.606520025 106.62399 1650.0545200249999 111.95199999999998 1657.830520025 111.95199999999998C1664.886520025 111.95199999999998 1670.070520025 106.19198999999999 1670.070520025 105.472C1670.070520025 104.46399999999998 1668.774520025 103.02399999999999 1668.1985200249999 103.02399999999999C1667.3345200249998 103.02399999999999 1666.7585200249998 105.32799999999999 1663.734520025 105.32799999999999C1658.118520025 105.32799999999999 1657.974520025 99.71199 1657.974520025 93.08800000000001L1657.974520025 71.63199999999999C1657.974520025 51.18401999999999 1646.742520025 47.29600000000001 1636.2305200249998 47.29600000000001C1624.4225200249998 47.29600000000001 1612.4705200249998 55.504000000000005 1612.4705200249998 63.27999999999999C1612.4705200249998 66.73599 1614.1985200249999 68.32000000000001 1617.510520025 68.32000000000001C1621.686520025 68.32000000000001 1623.846520025 65.43999000000001 1623.846520025 63.568C1623.846520025 62.55999999999999 1623.702520025 61.55199 1623.414520025 60.975999999999985C1623.270520025 60.544 1623.126520025 59.67998999999999 1623.126520025 58.09599999999999C1623.126520025 53.63199999999999 1629.606520025 52.04799999999999 1635.078520025 52.04799999999999C1639.974520025 52.04799999999999 1646.742520025 54.49601 1646.742520025 70.76799999999999C1646.742520025 71.77599 1646.310520025 72.35199999999999 1645.878520025 72.496L1633.494520025 75.52C1619.6705200249999 78.97598999999998 1609.734520025 86.60801 1609.734520025 96.39999999999999C1609.734520025 107.77597999999999 1617.798520025 111.95199999999998 1627.878520025 111.95199999999998C1634.502520025 111.95199999999998 1637.2385200249998 110.79999 1643.5745200249999 105.90399999999998L1646.454520025 103.60000000000001L1646.742520025 103.60000000000001M1708.555020025 76.96L1708.555020025 96.11200000000001C1708.555020025 97.98398999999999 1707.691020025 98.992 1706.539020025 99.85600000000001C1702.795020025 102.87999 1697.8990200249998 106.04799999999999 1693.8670200249999 106.04799999999999C1686.6670200249998 106.04799999999999 1683.499020025 100.28799 1683.499020025 95.824C1683.499020025 89.34400000000001 1686.5230200249998 82.86398999999999 1697.179020025 79.984L1708.555020025 76.96M1708.555020025 103.60000000000001C1709.419020025 106.62399 1711.8670200249999 111.95199999999998 1719.643020025 111.95199999999998C1726.699020025 111.95199999999998 1731.883020025 106.19198999999999 1731.883020025 105.472C1731.883020025 104.46399999999998 1730.587020025 103.02399999999999 1730.0110200249999 103.02399999999999C1729.1470200249998 103.02399999999999 1728.5710200249998 105.32799999999999 1725.547020025 105.32799999999999C1719.931020025 105.32799999999999 1719.787020025 99.71199 1719.787020025 93.08800000000001L1719.787020025 71.63199999999999C1719.787020025 51.18401999999999 1708.555020025 47.29600000000001 1698.0430200249998 47.29600000000001C1686.2350200249998 47.29600000000001 1674.2830200249998 55.504000000000005 1674.2830200249998 63.27999999999999C1674.2830200249998 66.73599 1676.0110200249999 68.32000000000001 1679.323020025 68.32000000000001C1683.499020025 68.32000000000001 1685.659020025 65.43999000000001 1685.659020025 63.568C1685.659020025 62.55999999999999 1685.515020025 61.55199 1685.227020025 60.975999999999985C1685.083020025 60.544 1684.939020025 59.67998999999999 1684.939020025 58.09599999999999C1684.939020025 53.63199999999999 1691.419020025 52.04799999999999 1696.891020025 52.04799999999999C1701.787020025 52.04799999999999 1708.555020025 54.49601 1708.555020025 70.76799999999999C1708.555020025 71.77599 1708.123020025 72.35199999999999 1707.691020025 72.496L1695.307020025 75.52C1681.4830200249999 78.97598999999998 1671.547020025 86.60801 1671.547020025 96.39999999999999C1671.547020025 107.77597999999999 1679.611020025 111.95199999999998 1689.691020025 111.95199999999998C1696.315020025 111.95199999999998 1699.0510200249998 110.79999 1705.3870200249999 105.90399999999998L1708.267020025 103.60000000000001L1708.555020025 103.60000000000001 " id="tagline" style="font-size:144px;font-style:normal;font-variant:normal;font-weight:normal;font-stretch:normal;letter-spacing:-4;word-spacing:-5;fill:#000000;fill-opacity:1;stroke:none;stroke-width:1px;stroke-linecap:butt;stroke-linejoin:miter;stroke-opacity:1;font-family:Linux Libertine O;-inkscape-font-specification:Linux Libertine O"></path>
</svg>