<?xml version="1.0" encoding="UTF-8" standalone="no"?>
<svg
	xmlns="http://www.w3.org/2000/svg"
	xmlns:dc="http://purl.org/dc/elements/1.1/"
	xmlns:cc="http://creativecommons.org/ns#"
	xmlns:rdf="http://www.w3.org/1999/02/22-rdf-syntax-ns#"
	xmlns:svg="http://www.w3.org/2000/svg"
	xmlns:xlink="http://www.w3.org/1999/xlink"
	xmlns:sodipodi="http://sodipodi.sourceforge.net/DTD/sodipodi-0.dtd"
	xmlns:inkscape="http://www.inkscape.org/namespaces/inkscape"
	version="1.1"
	viewBox="0 0 812.6328120000001 167.234378">
	<path transform="matrix(9.6789919e-2,0,0,9.6789919e-2,27.266347,133.64581)" d="M774.437502 109.07030800000001L766.0703120000001 109.07030800000001L766.0703120000001 97.398438L774.859372 97.398438C776.828112 97.398448 779.289052 95.898448 782.242192 92.898438C780.695302 90.50782799999999 779.921862 89.054708 779.921872 88.53905800000001C779.921862 82.72658799999999 781.187482 78.46096800000001 783.718752 75.742188C785.0781020000001 75.64846800000001 785.781232 75.695348 785.828122 75.88280800000001C787.0468520000001 79.67971800000001 789.554662 84.273458 793.3515620000001 89.66405800000001C789.976542 102.60156800000001 783.671862 109.07030800000001 774.437502 109.07030800000001M793.984372 116.73437799999999C793.9843520000001 116.73436799999999 796.867152 119.64061799999999 802.6328120000001 125.45312799999999L793.6328120000001 134.874998L785.4765620000001 126.22655800000001L793.984372 116.73437799999999M775.000002 116.66405800000001C774.999992 116.66405800000001 777.882802 119.57029800000001 783.648442 125.38280800000001L774.648442 134.804688L766.492192 126.156248L775.000002 116.66405800000001M767.898442 97.398438L767.898442 109.07030800000001L764.453122 109.07030800000001C760.562442 109.07030800000001 757.749942 108.20312799999999 756.015622 106.468748C755.874942 111.67186799999999 755.4765120000001 115.023428 754.8203120000001 116.523438C753.0390120000001 121.398428 745.164022 128.851538 731.1953120000001 138.882808C719.617172 147.226528 710.757802 152.05464800000001 704.617192 153.367188C704.6171820000001 150.64839800000001 705.296872 147.039028 706.656252 142.539058C709.515622 141.507778 716.523422 137.546848 727.679692 130.656248C728.148412 130.374978 733.304652 126.32029800000001 743.148442 118.492188C746.945272 115.53905800000001 748.7265120000001 112.093748 748.492192 108.156248L731.7578120000001 112.374998C731.148412 110.64062799999999 730.8437220000001 108.22656800000001 730.843752 105.13280800000001C730.8437220000001 98.57031800000001 731.921842 92.335958 734.078122 86.429688C736.656212 79.77346800000001 739.726522 76.445348 743.2890620000001 76.44530800000001C747.4140120000001 76.445348 751.703072 81.74221800000001 756.156252 92.335938C757.796822 95.710948 760.562442 97.398448 764.453122 97.398438L767.898442 97.398438M736.8203120000001 100.91405800000001C742.164022 100.07031800000001 744.624962 99.25000800000001 744.203122 98.45312799999999C741.765582 94.18751800000001 740.007772 91.703138 738.929692 90.999998L736.8203120000001 100.91405800000001M630.648442 70.04687799999999C637.492152 78.25002800000001 641.382772 85.18752800000001 642.3203120000001 90.85937799999999C642.320272 91.703138 642.320272 92.640638 642.3203120000001 93.67187799999999C642.320272 106.23437799999999 641.7108920000001 113.92186799999999 640.492192 116.73437799999999C635.148402 128.17185800000001 629.992152 136.117158 625.023442 140.570308C614.476542 149.14839800000001 606.2734320000001 154.703078 600.4140620000001 157.234378C600.6953120000001 153.718708 601.5859320000001 149.031208 603.085942 143.171878C615.835922 136.749968 625.1406020000001 126.22654800000001 631.000002 111.60155800000001C631.421842 108.648438 631.023402 106.53906800000001 629.804692 105.273438L627.6953120000001 105.48437799999999C626.289032 106.04687799999999 624.695282 106.32812799999999 622.9140620000001 106.32812799999999C620.195292 106.32812799999999 617.335922 105.648438 614.335942 104.28905800000001C614.570292 98.898448 616.632792 93.03907799999999 620.523442 86.710938L630.648442 70.04687799999999M626.5703120000001 84.531248C623.195292 89.03126800000001 621.507792 92.03126800000001 621.5078120000001 93.531248C621.507792 94.75001800000001 623.9687220000001 95.265638 628.890622 95.07812799999999C630.0624720000001 93.90626800000001 630.648402 92.68751800000001 630.648442 91.42187799999999C630.648402 89.640648 629.289032 87.34376800000001 626.5703120000001 84.531248M566.734372 134.804688C566.734342 131.992168 567.5312220000001 129.57810800000001 569.125002 127.562498C570.765592 125.593738 572.804652 124.60935800000001 575.242192 124.60937799999999C577.539022 124.60935800000001 579.507772 125.593738 581.148442 127.562498C582.8358920000001 129.57810800000001 583.6796420000001 131.992168 583.679692 134.804688C583.6796420000001 137.617158 582.8358920000001 140.007778 581.148442 141.976558C579.507772 143.945278 577.539022 144.92964800000001 575.242192 144.929688C572.804652 144.92964800000001 570.765592 143.945278 569.125002 141.976558C567.5312220000001 140.007778 566.734342 137.617158 566.734372 134.804688M578.1953120000001 135.226558C578.195272 134.289038 577.890582 133.445288 577.281252 132.695308C576.671832 131.992168 575.992152 131.640598 575.242192 131.640628C574.445272 131.640598 573.718712 131.992168 573.062502 132.695308C572.453092 133.445288 572.148402 134.289038 572.148442 135.226558C572.148402 136.117158 572.453092 136.937468 573.062502 137.687498C573.718712 138.437468 574.445272 138.812468 575.242192 138.812498C575.992152 138.812468 576.671832 138.437468 577.281252 137.687498C577.890582 136.937468 578.195272 136.117158 578.1953120000001 135.226558M584.1015620000001 72.50780800000001C584.6640120000001 72.74222800000001 586.4921420000001 75.203158 589.585942 79.89062799999999C592.679632 84.53127800000001 594.296822 86.96876800000001 594.437502 87.20312799999999C594.624942 89.453148 593.828072 93.22657799999999 592.046872 98.523438C587.828072 111.367188 577.984332 122.57029800000001 562.515622 132.132808C554.453112 137.195288 547.187492 140.593718 540.718752 142.328128C540.624992 142.328088 540.9765620000001 140.499968 541.773442 136.843748C542.5703120000001 132.718728 543.015622 130.468728 543.109372 130.093748C568.234342 119.54686799999999 583.374952 108.554688 588.531252 97.117188C588.531202 97.117198 585.578072 92.921888 579.671872 84.531248C580.140582 80.87502800000001 581.6171420000001 76.86721800000001 584.1015620000001 72.50780800000001M508.937502 109.07030800000001L500.570312 109.07030800000001L500.570312 97.398438L509.359372 97.398438C511.32811200000003 97.398448 513.789052 95.898448 516.742192 92.898438C515.195302 90.50782799999999 514.421862 89.054708 514.421872 88.53905800000001C514.421862 82.72658799999999 515.687482 78.46096800000001 518.218752 75.742188C519.5781020000001 75.64846800000001 520.281232 75.695348 520.328122 75.88280800000001C521.5468520000001 79.67971800000001 524.054662 84.273458 527.8515620000001 89.66405800000001C524.476542 102.60156800000001 518.171862 109.07030800000001 508.937502 109.07030800000001M528.484372 116.73437799999999C528.4843520000001 116.73436799999999 531.367152 119.64061799999999 537.1328120000001 125.45312799999999L528.1328120000001 134.874998L519.9765620000001 126.22655800000001L528.484372 116.73437799999999M509.500002 116.66405800000001C509.499992 116.66405800000001 512.382802 119.57029800000001 518.148442 125.38280800000001L509.14844200000005 134.804688L500.99219200000005 126.156248L509.500002 116.66405800000001M501.27344200000005 97.398438L501.27344200000005 109.07030800000001L499.234372 109.07030800000001C491.49998200000005 109.07030800000001 486.437492 107.968748 484.046872 105.76562799999999C479.546872 101.40625800000001 477.296872 95.078138 477.296872 86.781248C477.296872 83.359398 477.296872 77.359408 477.296872 68.781248C477.296872 60.20317800000001 477.296872 53.54692800000001 477.296872 48.812498000000005C477.296872 31.140703000000002 476.68750200000005 20.804775000000006 475.46875200000005 17.804687L486.08594200000005 10C487.96092200000004 14.734469000000004 489.10936200000003 21.92977400000001 489.53125200000005 31.585937C490.23436200000003 41.28913 490.37498200000005 48.320368 489.953122 52.679688C489.67186200000003 57.039118 489.55467200000004 63.789108 489.601562 72.929688C489.83592200000004 83.57033799999999 490.37498200000005 89.898458 491.21875200000005 91.91405800000001C492.24998200000005 94.53907799999999 493.25779200000005 96.015638 494.24219200000005 96.343748C496.679662 97.046888 498.343722 97.398448 499.234372 97.398438L501.27344200000005 97.398438M387.15625200000005 109.07030800000001L378.789062 109.07030800000001L378.789062 97.398438L387.578122 97.398438C389.54686200000003 97.398448 392.007802 95.898448 394.96094200000005 92.898438C393.414052 90.50782799999999 392.64061200000003 89.054708 392.640622 88.53905800000001C392.64061200000003 82.72658799999999 393.90623200000005 78.46096800000001 396.43750200000005 75.742188C397.796852 75.64846800000001 398.49998200000005 75.695348 398.546872 75.88280800000001C399.765602 79.67971800000001 402.273412 84.273458 406.070312 89.66405800000001C402.69529200000005 102.60156800000001 396.39061200000003 109.07030800000001 387.15625200000005 109.07030800000001M397.351562 130.796878C397.35154200000005 130.796848 400.234352 133.703098 406.00000200000005 139.515628L397.00000200000005 148.937498L388.84375200000005 140.289058L397.351562 130.796878M406.984372 115.187498C406.984342 115.187498 409.86715200000003 118.093738 415.632812 123.906248L406.632812 133.328128L398.476562 124.679688L406.984372 115.187498M388.00000200000005 115.117188C387.999992 115.117178 390.882802 118.023428 396.64844200000005 123.835938L387.64844200000005 133.257808L379.49219200000005 124.60937799999999L388.00000200000005 115.117188M380.61719200000005 97.398438L380.61719200000005 109.07030800000001L377.171872 109.07030800000001C373.28119200000003 109.07030800000001 370.46869200000003 108.20312799999999 368.734372 106.468748C368.59369200000003 111.67186799999999 368.195262 115.023428 367.539062 116.523438C365.757762 121.398428 357.88277200000005 128.851538 343.914062 138.882808C332.33592200000004 147.226528 323.476552 152.05464800000001 317.33594200000005 153.367188C317.335932 150.64839800000001 318.015622 147.039028 319.37500200000005 142.539058C322.234372 141.507778 329.24217200000004 137.546848 340.39844200000005 130.656248C340.867162 130.374978 346.02340200000003 126.32029800000001 355.86719200000005 118.492188C359.66402200000005 115.53905800000001 361.445262 112.093748 361.21094200000005 108.156248L344.476562 112.374998C343.867162 110.64062799999999 343.562472 108.22656800000001 343.56250200000005 105.13280800000001C343.562472 98.57031800000001 344.640592 92.335958 346.796872 86.429688C349.37496200000004 79.77346800000001 352.44527200000005 76.445348 356.007812 76.44530800000001C360.132762 76.445348 364.421822 81.74221800000001 368.87500200000005 92.335938C370.515572 95.710948 373.28119200000003 97.398448 377.171872 97.398438L380.61719200000005 97.398438M349.539062 100.91405800000001C354.88277200000005 100.07031800000001 357.34371200000004 99.25000800000001 356.921872 98.45312799999999C354.48433200000005 94.18751800000001 352.72652200000005 91.703138 351.64844200000005 90.999998L349.539062 100.91405800000001M276.414062 107.73437799999999C272.570312 108.624998 269.664062 109.07030800000001 267.695312 109.07030800000001L267.695312 97.398438L270.64844200000005 97.398438C270.320312 90.273458 273.226562 83.523458 279.36719200000005 77.148438L280.070312 71.523438C280.726552 69.273478 281.42967200000004 67.421918 282.17969200000005 65.968748L283.30469200000005 69.414058C294.179662 71.570348 303.17965200000003 76.18752800000001 310.30469200000005 83.26562799999999C311.19527200000005 85.56252800000001 311.64058200000005 87.78908799999999 311.640622 89.94530800000001C311.64058200000005 94.210948 309.648392 98.10157799999999 305.664062 101.617188C293.00779200000005 105.41406800000001 283.257802 107.45312799999999 276.414062 107.73437799999999M292.445312 85.79687799999999C292.53904200000005 88.18751800000001 292.140602 90.90626800000001 291.25000200000005 93.95312799999999C297.859342 93.671888 301.164032 92.828138 301.164062 91.42187799999999C301.164032 90.06251800000001 298.257782 88.18751800000001 292.445312 85.79687799999999M277.67969200000005 86.781248C276.601552 88.234398 275.992182 89.78126800000001 275.851562 91.42187799999999C279.414052 93.671888 281.87498200000005 94.796888 283.234372 94.79687799999999C284.03123200000005 94.796888 284.42967200000004 94.35157799999999 284.42969200000005 93.460938C284.42967200000004 92.242208 283.67967200000004 90.15626800000001 282.17969200000005 87.20312799999999C281.007802 86.921898 279.507802 86.78126800000001 277.67969200000005 86.781248M246.95312199999998 80.66405800000001C251.73435199999997 79.96096800000001 254.21872199999999 80.12502800000001 254.40625200000002 81.156248C255.20310199999997 84.390648 256.304662 87.81251800000001 257.71094200000005 91.42187799999999C259.164032 95.03126800000001 260.593722 97.023448 262.00000200000005 97.398438L268.75000200000005 97.398438L268.75000200000005 109.07030800000001L262.421872 109.07030800000001C261.859342 109.07030800000001 260.382782 108.48437799999999 257.99219200000005 107.312498C254.52341199999998 105.48437799999999 252.34373200000002 103.63281800000001 251.45312199999998 101.75780800000001L250.25781199999997 103.093748C250.07029200000002 103.98437799999999 248.78123200000002 105.273438 246.390622 106.960938C244.281232 108.367188 243.132802 109.07030800000001 242.945312 109.07030800000001L230.851562 109.07030800000001L230.851562 97.398438L239.570312 97.398438C240.695302 97.398448 243.156242 91.82032799999999 246.95312199999998 80.66405800000001M244.632812 45.367188C244.632802 45.367248000000004 247.515612 48.273498000000004 253.28125200000002 54.085938L244.281252 63.507808L236.125002 54.85937800000001L244.632812 45.367188M181.703122 109.07030800000001L167.851562 109.07030800000001L167.851562 97.398438L175.304692 97.398438C180.085922 97.398448 183.414052 95.85157799999999 185.289062 92.75780800000001C181.914052 85.44533799999999 176.968742 79.65627800000001 170.453122 75.39062799999999L172.632812 61.398438L175.164062 60.554688C179.007802 66.460978 184.960922 69.41409800000001 193.023442 69.414058C203.054652 69.41409800000001 213.085892 65.781288 223.117192 58.51562800000001L226.632812 59.218748000000005C226.773382 60.39067800000001 226.843692 61.539108 226.843752 62.664058C226.843692 65.804728 226.421812 69.32034800000001 225.578122 73.210938C223.937442 74.05471800000001 221.453072 75.953158 218.125002 78.906248C214.796832 81.81252800000001 212.148392 83.617208 210.179692 84.32030800000001C207.273402 93.03907799999999 209.476522 97.398448 216.789062 97.398438L234.367192 97.398438L234.367192 109.07030800000001L217.070312 109.07030800000001C211.070272 109.07030800000001 207.132772 108.22656800000001 205.257812 106.53905800000001C203.007782 104.335938 200.359342 101.64062799999999 197.312502 98.45312799999999C189.249982 105.53125800000001 184.046862 109.07030800000001 181.703122 109.07030800000001M198.507812 33.625C198.507782 33.62507500000001 201.390592 36.531322 207.156252 42.343748000000005L198.156252 51.76562800000001L190.000002 43.117188L198.507812 33.625M169.679692 97.398438L169.679692 109.07030800000001L166.234372 109.07030800000001C162.343692 109.07030800000001 159.531192 108.20312799999999 157.796872 106.468748C157.656192 111.67186799999999 157.25776199999999 115.023428 156.601562 116.523438C154.82026199999999 121.398428 146.945272 128.851538 132.976562 138.882808C121.39842200000001 147.226528 112.539052 152.05464800000001 106.398442 153.367188C106.398432 150.64839800000001 107.078122 147.039028 108.437502 142.539058C111.296872 141.507778 118.304672 137.546848 129.460942 130.656248C129.929662 130.374978 135.085902 126.32029800000001 144.929692 118.492188C148.726522 115.53905800000001 150.50776199999999 112.093748 150.273442 108.156248L133.539062 112.374998C132.929662 110.64062799999999 132.62497199999999 108.22656800000001 132.625002 105.13280800000001C132.62497199999999 98.57031800000001 133.703092 92.335958 135.859372 86.429688C138.437462 79.77346800000001 141.507772 76.445348 145.070312 76.44530800000001C149.19526199999999 76.445348 153.484322 81.74221800000001 157.937502 92.335938C159.578072 95.710948 162.343692 97.398448 166.234372 97.398438L169.679692 97.398438M138.601562 100.91405800000001C143.945272 100.07031800000001 146.406212 99.25000800000001 145.984372 98.45312799999999C143.546832 94.18751800000001 141.789022 91.703138 140.710942 90.999998L138.601562 100.91405800000001M80.59375 109.07030800000001L72.226563 109.07030800000001L72.226563 97.398438L81.015625 97.398438C82.984364 97.398448 85.44529899999999 95.898448 88.398438 92.898438C86.851548 90.50782799999999 86.07811099999999 89.054708 86.078125 88.53905800000001C86.07811099999999 82.72658799999999 87.343735 78.46096800000001 89.875 75.742188C91.234352 75.64846800000001 91.937482 75.695348 91.984372 75.88280800000001C93.203102 79.67971800000001 95.710912 84.273458 99.507812 89.66405800000001C96.132792 102.60156800000001 89.828108 109.07030800000001 80.59375 109.07030800000001M85.585938 42.414058C85.58592399999999 42.414128000000005 88.468734 45.320378000000005 94.234372 51.132808L85.234375 60.554688L77.078125 51.906248000000005L85.585938 42.414058M21.25 118.562498C21.249986 115.749998 22.046860000000002 113.335928 23.640625000000004 111.32030800000001C25.281232 109.35155800000001 27.320292 108.367188 29.757813000000002 108.367188C32.054663000000005 108.367188 34.023410999999996 109.35155800000001 35.664063 111.32030800000001C37.351532000000006 113.335928 38.195280999999994 115.749998 38.195313 118.562498C38.195280999999994 121.374988 37.351532000000006 123.76560800000001 35.664063 125.73437799999999C34.023410999999996 127.70310800000001 32.054663000000005 128.687478 29.757813000000002 128.687498C27.320292 128.687478 25.281232 127.70310800000001 23.640625000000004 125.73437799999999C22.046860000000002 123.76560800000001 21.249986 121.374988 21.25 118.562498M32.710938 118.98437799999999C32.71091200000001 118.04686799999999 32.406225000000006 117.20311799999999 31.796875000000004 116.45312799999999C31.187476 115.749998 30.507789 115.398428 29.757813000000002 115.398438C28.960916 115.398428 28.234354 115.749998 27.578125000000004 116.45312799999999C26.968730000000004 117.20311799999999 26.664043000000003 118.04686799999999 26.664063000000002 118.98437799999999C26.664043000000003 119.874988 26.968730000000004 120.69529800000001 27.578125000000004 121.44530800000001C28.234354 122.19529800000001 28.960916 122.57029800000001 29.757813000000002 122.57030800000001C30.507789 122.57029800000001 31.187476 122.19529800000001 31.796875000000004 121.44530800000001C32.406225000000006 120.69529800000001 32.71091200000001 119.874988 32.710938 118.98437799999999M45.71875 42.554688C46.796835 42.46100800000001 48.273396000000005 45.414128000000005 50.148438 51.414058C51.929643 57.320368 54.343703000000005 67.562538 57.390625 82.14062799999999C59.73432199999999 89.59376800000001 62.968694 94.679698 67.09375 97.398438L73.421875 97.398438L73.421875 109.07030800000001L67.164063 109.07030800000001C63.226506 109.07030800000001 59.85150999999999 107.07812799999999 57.039063 103.093748C55.867138999999995 101.50000800000001 54.156203000000005 98.054698 51.90625 92.75780800000001C48.062459000000004 100.16406800000001 44.992149999999995 104.07812799999999 42.695313 104.499998C40.492154 104.96875800000001 34.234348 106.867188 23.921875000000004 110.19530800000001C18.437489 111.78905800000001 14.171868 114.343748 11.125 117.85937799999999C10.374997 117.01561799999999 9.999997 115.82030800000001 10 114.273438C9.999997 113.148438 10.234372 111.554688 10.703125 109.492188C11.359371 107.00781800000001 11.734370000000002 105.367188 11.828125 104.57030800000001C17.49999 99.78906800000001 23.124984 97.046888 28.703125000000004 96.343748C39.203092999999996 94.703138 45.976524 92.59376800000001 49.023438 90.01562799999999C49.25777000000001 82.515648 46.164023 70.703168 39.742188 54.57812800000001L45.71875 42.554688 " id="tagline" style="font-size:144px;font-style:normal;font-variant:normal;font-weight:normal;font-stretch:normal;fill:#000000;fill-opacity:1;stroke:none;stroke-width:1px;stroke-linecap:butt;stroke-linejoin:miter;stroke-opacity:1;font-family:Linux Libertine O;-inkscape-font-specification:Linux Libertine O"></path>
</svg>