<?xml version="1.0" encoding="UTF-8" standalone="no"?>
<svg
	xmlns="http://www.w3.org/2000/svg"
	xmlns:dc="http://purl.org/dc/elements/1.1/"
	xmlns:cc="http://creativecommons.org/ns#"
	xmlns:rdf="http://www.w3.org/1999/02/22-rdf-syntax-ns#"
	xmlns:svg="http://www.w3.org/2000/svg"
	xmlns:xlink="http://www.w3.org/1999/xlink"
	xmlns:sodipodi="http://sodipodi.sourceforge.net/DTD/sodipodi-0.dtd"
	xmlns:inkscape="http://www.inkscape.org/namespaces/inkscape"
	version="1.1"
	viewBox="0 0 130.56712399999998 32.35739000000004">
	<g transform="scale(1.019926,0.98046329)" id="The_Free_Encyclopedia" style="font-size:13.25903797px;font-style:normal;font-variant:normal;font-weight:normal;font-stretch:normal;letter-spacing:0.30296317;fill:#000000;fill-opacity:1;stroke:none;font-family:Linux Libertine O;-inkscape-font-specification:Linux Libertine O"><path d="M13.460600999999995 15.502510000000001C13.168902999999995 15.502510000000001 13.076088999999994 15.462709999999987 13.129124999999995 15.33014L14.455028999999994 11.962340000000012L14.481548999999994 11.962340000000012L15.767675999999993 15.502510000000001L13.460602999999994 15.502510000000001M11.988849999999994 18.20734999999999L12.757873999999994 16.284789999999987C12.824173999999994 16.112419999999986 12.903723999999993 16.059379999999976 13.221939999999995 16.059379999999976L15.979819999999995 16.059379999999976L16.788621999999997 18.300159999999977C16.921211999999997 18.67140999999998 16.735581999999994 18.83051999999998 16.231741999999997 18.870299999999986L15.860488999999996 18.896799999999985C15.794188999999998 18.896799999999985 15.767678999999996 18.9366 15.767678999999996 19.002869999999973L15.767678999999996 19.254789999999986L15.780938999999995 19.281289999999984C16.271522999999995 19.267989999999998 17.027288999999996 19.254789999999986 17.544390999999997 19.254789999999986C18.088010999999995 19.254789999999986 18.605113999999993 19.268089999999972 19.095698 19.281289999999984L19.122217999999997 19.254789999999986L19.122217999999997 19.002869999999973C19.122217999999997 18.93656999999996 19.055918 18.896799999999985 18.989627999999996 18.896799999999985L18.843778 18.883499999999998C18.313417 18.8305 18.048235999999996 18.631579999999985 17.862609999999997 18.114479999999986L15.144506999999999 10.928079999999994C15.051696999999999 10.676159999999982 14.972138999999999 10.530309999999986 14.786513 10.530309999999986C14.587627 10.530309999999986 14.494814 10.649639999999977 14.335706 11.007629999999978L11.392199 17.902329999999978C11.047464 18.72438999999997 10.68947 18.856979999999965 10.106072 18.896759999999972C10.039772 18.896759999999972 10 18.936559999999986 10 19.00282999999996L10 19.254749999999973L10.02652 19.28124999999997C10.517104 19.267949999999985 10.72925 19.254749999999973 11.246352 19.254749999999973C11.789972 19.254749999999973 12.492702 19.26804999999996 12.983286 19.28124999999997L13.009806 19.254749999999973L13.009806 19.00282999999996C13.009806 18.936529999999948 12.956766 18.896759999999972 12.903732999999999 18.896759999999972L12.519220999999998 18.870259999999973C12.028636999999998 18.83045999999996 11.843010999999999 18.56529999999998 11.988859999999999 18.20730999999998 " id="path16044"></path><path d="M24.664641999999994 15.44947000000002C24.903303999999995 13.951200000000028 25.884472999999993 13.884900000000016 26.189430999999992 13.884900000000016C26.666755999999992 13.884900000000016 27.289930999999992 14.150080000000003 27.289930999999992 15.263840000000016C27.289930999999992 15.383170000000007 27.236890999999993 15.44947000000002 27.104304999999993 15.44947000000002L24.664641999999994 15.44947000000002M28.165027999999992 17.99520000000001C27.700961999999993 18.49905000000001 27.236893999999992 18.73771000000002 26.507647999999993 18.73771000000002C25.76514299999999 18.73771000000002 24.624864999999993 17.942170000000033 24.624864999999993 15.966570000000019L28.111991999999994 15.966570000000019C28.257840999999992 15.966570000000019 28.350653999999995 15.88697000000002 28.350653999999995 15.741170000000011C28.350653999999995 14.627409999999998 27.939621999999996 13.4341 26.189430999999995 13.4341C24.929823999999996 13.4341 23.564141999999997 14.600889999999993 23.564141999999997 16.61626000000001C23.564141999999997 18.141050000000007 24.372944999999998 19.387400000000014 26.189430999999995 19.387400000000014C27.144080999999996 19.387400000000014 27.926365999999994 18.89682000000002 28.430207999999997 18.20735000000002C28.390427999999996 18.074760000000026 28.310876999999998 18.008460000000014 28.165027999999996 17.99520000000001 " id="path16046"></path><path d="M31.288643999999994 13.4341C31.288643999999994 13.407600000000002 31.262123999999996 13.394299999999987 31.23560399999999 13.394299999999987C30.864351999999993 13.540149999999983 30.333988999999992 13.659479999999974 29.40585699999999 13.805329999999998L29.432376999999992 14.123549999999994L30.002515999999993 14.176549999999992C30.188141999999992 14.20304999999999 30.294214999999994 14.33565999999999 30.294214999999994 14.998609999999985L30.294214999999994 18.30010999999999C30.294214999999994 18.684619999999995 30.161623999999993 18.83046999999999 29.724075999999993 18.87025L29.472153999999993 18.896749999999997C29.405853999999994 18.910049999999984 29.36608199999999 18.93655000000001 29.36608199999999 19.002819999999986L29.36608199999999 19.254739999999998L29.392601999999993 19.281239999999997C29.922962999999992 19.26794000000001 30.254439999999992 19.254739999999998 30.771541999999993 19.254739999999998C31.31516199999999 19.254739999999998 31.59360299999999 19.268039999999985 32.12396399999999 19.281239999999997L32.15048399999999 19.254739999999998L32.15048399999999 19.002819999999986C32.15048399999999 18.936519999999973 32.110703999999984 18.910019999999975 32.044411999999994 18.896749999999997L31.858784999999994 18.87025C31.421236999999994 18.803949999999986 31.288645999999996 18.684619999999995 31.288645999999996 18.30010999999999L31.288645999999996 15.091430000000003C31.964857 14.295880000000011 32.468700999999996 14.070480000000003 33.052098 14.070480000000003C33.75482699999999 14.070480000000003 33.91393599999999 14.50802999999999 33.91393599999999 15.436160000000001L33.91393599999999 18.30010999999999C33.91393599999999 18.684619999999995 33.768086 18.80395999999999 33.343796999999995 18.87025L33.158170999999996 18.896749999999997C33.091871 18.910049999999984 33.052098 18.93655000000001 33.052098 19.002819999999986L33.052098 19.254739999999998L33.07861799999999 19.281239999999997C33.60897899999999 19.26794000000001 33.87415999999999 19.254739999999998 34.391262 19.254739999999998C34.93488199999999 19.254739999999998 35.279618 19.268039999999985 35.809979 19.281239999999997L35.83649899999999 19.254739999999998L35.83649899999999 19.002819999999986C35.83649899999999 18.936519999999973 35.78345899999999 18.910019999999975 35.71716799999999 18.896749999999997L35.46524599999999 18.87025C35.054216999999994 18.830449999999985 34.908366999999984 18.684619999999995 34.908366999999984 18.30010999999999L34.908366999999984 15.528969999999987C34.908366999999984 14.348919999999993 34.64318499999999 13.434049999999985 33.44987299999998 13.434049999999985C32.77366199999999 13.434049999999985 32.13722699999998 13.619669999999985 31.28864899999999 14.61409999999998L31.24886899999999 14.61409999999998L31.28864899999999 13.434049999999985 " id="path16048"></path><path d="M41.581464 18.04824000000002C41.528423999999994 17.92891000000003 41.422354999999996 17.87587000000002 41.30302399999999 17.862610000000018C40.891994 18.459270000000004 40.282076999999994 18.804010000000005 39.711938999999994 18.804010000000005C38.690993999999996 18.804010000000005 37.94848699999999 17.75654 37.94848699999999 16.20523C37.94848699999999 14.746739999999988 38.62469899999999 13.884899999999988 39.49979499999999 13.884899999999988C40.282076999999994 13.884899999999988 40.38814999999999 14.455039999999997 40.441185999999995 14.892589999999984C40.480965999999995 15.224069999999983 40.640071999999996 15.356659999999977 40.91851199999999 15.356659999999977C41.19695099999999 15.356659999999977 41.54168599999999 15.171029999999973 41.54168599999999 14.786519999999967C41.54168599999999 14.083789999999965 40.83895599999999 13.434099999999972 39.56608999999999 13.434099999999972C38.13411499999999 13.434099999999972 36.821468999999986 14.614149999999967 36.821468999999986 16.496929999999963C36.821468999999986 18.207349999999963 37.749602999999986 19.387399999999957 39.420239999999986 19.387399999999957C40.21578199999998 19.387399999999957 40.918511999999986 19.135479999999944 41.58146399999998 18.048239999999964 " id="path16050"></path><path d="M43.264195 11.697159999999997C43.264195 12.041899999999998 43.555895 12.33359999999999 43.900629 12.33359999999999C44.245364 12.33359999999999 44.537063 12.041899999999998 44.537063 11.697159999999997C44.537063 11.352429999999998 44.245364 11.060730000000007 43.900629 11.060730000000007C43.555895 11.060730000000007 43.264195 11.352429999999998 43.264195 11.697159999999997M44.510545 13.4341C44.510545 13.407600000000002 44.484025 13.394299999999987 44.457505 13.394299999999987C44.086251999999995 13.540149999999983 43.529371 13.659479999999974 42.587979999999995 13.805329999999998L42.61449999999999 14.123549999999994L43.18463799999999 14.176549999999992C43.37026399999999 14.20304999999999 43.476336999999994 14.33565999999999 43.476336999999994 14.998609999999985L43.476336999999994 18.30010999999999C43.476336999999994 18.684619999999995 43.357004999999994 18.81720999999999 42.906197999999996 18.87025L42.65427699999999 18.896749999999997C42.587976999999995 18.910049999999984 42.54820399999999 18.93655000000001 42.54820399999999 19.002819999999986L42.54820399999999 19.254739999999998L42.57472399999999 19.281239999999997C43.10508499999999 19.26794000000001 43.47633899999999 19.254739999999998 43.95366399999999 19.254739999999998C44.45750699999999 19.254739999999998 44.84201999999999 19.268039999999985 45.37238099999999 19.281239999999997L45.39890099999999 19.254739999999998L45.39890099999999 19.002819999999986C45.39890099999999 18.936519999999973 45.345860999999985 18.910019999999975 45.279569999999985 18.896749999999997L45.027647999999985 18.87025C44.616618999999986 18.830449999999985 44.47076899999998 18.684619999999995 44.47076899999998 18.30010999999999L44.47076899999998 14.998609999999985C44.47076899999998 14.33565999999999 44.51054899999998 13.434049999999985 44.51054899999998 13.434049999999985 " id="path16052"></path><path d="M51.225289 18.04824000000002C51.172248999999994 17.92891000000003 51.066179999999996 17.87587000000002 50.94684899999999 17.862610000000018C50.535819999999994 18.459270000000004 49.92590299999999 18.804010000000005 49.35576499999999 18.804010000000005C48.33481999999999 18.804010000000005 47.59231299999999 17.75654 47.59231299999999 16.20523C47.59231299999999 14.746739999999988 48.26852399999999 13.884899999999988 49.14361999999999 13.884899999999988C49.92590299999999 13.884899999999988 50.03197599999999 14.455039999999997 50.08501199999999 14.892589999999984C50.12479199999999 15.224069999999983 50.28389799999999 15.356659999999977 50.56233699999999 15.356659999999977C50.840776999999996 15.356659999999977 51.185511999999996 15.171029999999973 51.185511999999996 14.786519999999967C51.185511999999996 14.083789999999965 50.48278199999999 13.434099999999972 49.209914999999995 13.434099999999972C47.777941 13.434099999999972 46.46529399999999 14.614149999999967 46.46529399999999 16.496929999999963C46.46529399999999 18.207349999999963 47.39342899999999 19.387399999999957 49.06406599999999 19.387399999999957C49.85960699999999 19.387399999999957 50.56233799999999 19.135479999999944 51.22528899999999 18.048239999999964 " id="path16054"></path><path d="M53.027352 18.300160000000005C53.027352 18.68467000000001 52.894761 18.830520000000007 52.457214 18.870300000000015L52.138997 18.896800000000013C52.072707 18.896800000000013 52.046187 18.936600000000027 52.046187 19.00287L52.046187 19.254790000000014L52.059447000000006 19.281290000000013C52.722399 19.267990000000026 52.987581000000006 19.254790000000014 53.50468300000001 19.254790000000014C54.048303000000004 19.254790000000014 54.31348500000001 19.26809 54.97643600000001 19.281290000000013L55.002956000000005 19.254790000000014L55.002956000000005 19.00287C55.002956000000005 18.93656999999999 54.949916 18.896800000000013 54.89688400000001 18.896800000000013L54.57866700000001 18.870300000000015C54.14111900000001 18.8305 54.02178700000001 18.68467000000001 54.02178700000001 18.300160000000005L54.02178700000001 11.524789999999996C54.02178700000001 10.662959999999998 54.06156700000001 10.132589999999993 54.06156700000001 10.132589999999993C54.06156700000001 10.039789999999982 54.00852700000001 10 53.88920000000001 10C53.55772400000001 10.132589999999993 52.64285000000001 10.304959999999994 52.09923000000001 10.344740000000002L52.12575000000001 10.662959999999998C52.12575000000001 10.702760000000012 52.16553000000001 10.72926000000001 52.20530000000001 10.72926000000001L52.62958900000001 10.75576000000001C52.89477000000001 10.75576000000001 53.02736000000001 10.92813000000001 53.02736000000001 11.789960000000008L53.02736000000001 18.300150000000002 " id="path16056"></path><path d="M55.992273 16.53671C55.992273 17.889129999999994 56.933665999999995 19.387400000000014 58.710376 19.387400000000014C60.593157 19.387400000000014 61.454995999999994 17.743280000000027 61.454995999999994 16.41738000000001C61.454995999999994 15.038440000000008 60.699228999999995 13.4341 58.73689399999999 13.4341C56.97344299999999 13.4341 55.99227299999999 14.720220000000012 55.99227299999999 16.53671M58.59104399999999 13.871640000000014C59.67828399999999 13.871640000000014 60.32797799999999 14.892590000000013 60.32797799999999 16.841670000000022C60.32797799999999 18.591860000000025 59.532434999999985 18.94986000000003 58.93577899999999 18.94986000000003C57.62313599999999 18.94986000000003 57.11929099999999 17.252700000000033 57.11929099999999 16.231750000000034C57.11929099999999 15.078220000000044 57.53032199999999 13.871640000000042 58.59104399999999 13.871640000000042 " id="path16058"></path><path d="M64.29541 15.131250000000023C64.587108 14.42852000000002 65.223543 14.044010000000014 65.67435 14.044010000000014C66.48315000000001 14.044010000000014 67.172621 14.998660000000001 67.172621 16.49693000000002C67.172621 17.58417000000003 66.814625 18.936600000000027 65.39591 18.936600000000027C65.183765 18.936600000000027 64.759475 18.91010000000003 64.29541 18.366460000000018L64.29541 15.131250000000023M63.300982000000005 14.99866000000003L63.300982000000005 21.389520000000033C63.300982000000005 21.760770000000036 63.15513200000001 21.906620000000032 62.73084300000001 21.94640000000004L62.47892100000001 21.97290000000004C62.41262100000001 21.98610000000005 62.37284900000001 22.012700000000052 62.37284900000001 22.078970000000027L62.37284900000001 22.33089000000004L62.39936900000001 22.357390000000038C62.889953000000006 22.34409000000005 63.300984000000014 22.33089000000004 63.77830900000001 22.33089000000004C64.28215200000001 22.33089000000004 64.70644200000001 22.344190000000026 65.19702600000001 22.357390000000038L65.22354600000001 22.33089000000004L65.22354600000001 22.078970000000027C65.22354600000001 22.012670000000014 65.17050600000002 21.986170000000016 65.10421500000001 21.97290000000004L64.85229300000002 21.94640000000004C64.44126300000002 21.906600000000026 64.29541400000002 21.760770000000036 64.29541400000002 21.389520000000033L64.29541400000002 19.095700000000022C64.64014800000002 19.281330000000025 64.99814300000003 19.387400000000014 65.47546800000002 19.387400000000014C66.17819600000001 19.387400000000014 66.81463100000002 19.162000000000006 67.33173300000001 18.644900000000007C67.92838900000001 18.03498000000002 68.25986600000002 17.212919999999997 68.25986600000002 16.13894000000002C68.25986600000002 14.733480000000014 67.31847300000001 13.43410000000003 66.03234800000001 13.43410000000003C65.60805900000001 13.43410000000003 64.90532900000001 13.566690000000023 64.29541400000001 14.494820000000033L64.25563400000001 14.494820000000033L64.29541400000001 13.43410000000003C64.29541400000001 13.40760000000003 64.268894 13.394300000000015 64.24237400000001 13.394300000000015C63.85786300000001 13.540150000000011 63.35401800000001 13.659480000000002 62.412627000000015 13.805330000000026L62.43914700000001 14.123550000000023L63.00928600000001 14.17655000000002C63.194912000000016 14.203050000000019 63.30098500000001 14.335660000000018 63.30098500000001 14.998610000000014 " id="path16060"></path><path d="M72.700887 10.358000000000004L71.69319999999999 11.935820000000007C71.58712799999999 12.108190000000008 71.54735 12.161230000000018 71.54735 12.307080000000013C71.54735 12.399880000000024 71.64016 12.479440000000011 71.73297699999999 12.479440000000011C71.82578699999999 12.479440000000011 71.93186299999999 12.426440000000014 72.130748 12.227519999999998L73.655537 10.782289999999989L73.615757 10.636439999999993C73.3108 10.344740000000002 72.966064 10.331479999999999 72.88651 10.331479999999999C72.82022 10.331479999999999 72.740661 10.344779999999986 72.700884 10.357979999999998M70.672251 15.449449999999985C70.91091300000001 13.951179999999994 71.892083 13.884879999999981 72.19704 13.884879999999981C72.674365 13.884879999999981 73.29754 14.150059999999968 73.29754 15.263819999999981C73.29754 15.383149999999972 73.2445 15.449449999999985 73.111914 15.449449999999985L70.672251 15.449449999999985M74.17263700000001 17.995179999999976C73.708571 18.499029999999976 73.244504 18.737689999999986 72.515257 18.737689999999986C71.77275200000001 18.737689999999986 70.632474 17.942149999999998 70.632474 15.966549999999984L74.119601 15.966549999999984C74.26545 15.966549999999984 74.35826300000001 15.886949999999985 74.35826300000001 15.741149999999976C74.35826300000001 14.627389999999963 73.94723200000001 13.434079999999966 72.19704 13.434079999999966C70.937433 13.434079999999966 69.571751 14.600869999999958 69.571751 16.616239999999976C69.571751 18.141029999999972 70.380554 19.38737999999998 72.19704 19.38737999999998C73.15169 19.38737999999998 73.933975 18.896799999999985 74.43781800000001 18.207329999999985C74.39803800000001 18.07473999999999 74.31848600000001 18.00843999999998 74.17263700000001 17.995179999999976 " id="path16062"></path><path d="M79.720795 18.008460000000014C79.124139 18.48579000000001 78.607035 18.764230000000026 78.2623 18.764230000000026C77.546313 18.764230000000026 76.817065 17.981940000000037 76.817065 16.324570000000023C76.817065 15.369920000000036 76.989433 14.839550000000031 77.188318 14.561110000000014C77.59934799999999 13.937940000000026 78.156228 13.898160000000018 78.421409 13.898160000000018C79.044583 13.898160000000018 79.40257799999999 14.176600000000008 79.720795 14.680440000000004L79.720795 18.008460000000014M80.715222 11.524790000000024C80.715222 10.662960000000027 80.75500199999999 10.132590000000022 80.75500199999999 10.132590000000022C80.75500199999999 10.03979000000001 80.701962 10.000000000000028 80.58263399999998 10.000000000000028C80.25115799999999 10.132590000000022 79.33628399999998 10.304960000000023 78.79266399999999 10.34474000000003L78.81918399999999 10.662960000000027C78.81918399999999 10.70276000000004 78.85896399999999 10.729260000000039 78.89873399999999 10.729260000000039L79.32302299999999 10.755760000000038C79.58820399999999 10.755760000000038 79.720795 10.928130000000039 79.720795 11.789960000000036L79.720795 13.725780000000043C79.415837 13.553420000000045 78.832439 13.434090000000054 78.567258 13.434090000000054C77.692163 13.434090000000054 77.108764 13.725780000000043 76.578403 14.229630000000043C76.008265 14.799770000000052 75.69004699999999 15.582050000000038 75.69004699999999 16.56322000000003C75.69004699999999 18.194080000000042 76.485591 19.38739000000004 77.917565 19.38739000000004C78.447926 19.38739000000004 79.110879 18.963100000000026 79.720795 18.47252000000003L79.747315 18.485820000000018L79.720795 19.41395000000003L80.025752 19.41395000000003C80.31745099999999 19.175290000000018 80.90084999999999 19.002920000000017 81.722909 18.85707000000002L81.68312900000001 18.552110000000027L81.04669500000001 18.485810000000015C80.76825600000001 18.459310000000016 80.71521900000002 18.379740000000027 80.71521900000002 17.71678000000003L80.71521900000002 11.52481000000003 " id="path16064"></path><path d="M83.297498 11.697159999999997C83.297498 12.041899999999998 83.589197 12.33359999999999 83.933931 12.33359999999999C84.278666 12.33359999999999 84.570365 12.041899999999998 84.570365 11.697159999999997C84.570365 11.352429999999998 84.278666 11.060730000000007 83.933931 11.060730000000007C83.589197 11.060730000000007 83.297498 11.352429999999998 83.297498 11.697159999999997M84.543847 13.4341C84.543847 13.407600000000002 84.517327 13.394299999999987 84.490807 13.394299999999987C84.11955400000001 13.540149999999983 83.562673 13.659479999999974 82.621283 13.805329999999998L82.64780300000001 14.123549999999994L83.21794100000001 14.176549999999992C83.403568 14.20304999999999 83.50964 14.33565999999999 83.50964 14.998609999999985L83.50964 18.30010999999999C83.50964 18.684619999999995 83.390308 18.81720999999999 82.939502 18.87025L82.68758000000001 18.896749999999997C82.62129000000002 18.910049999999984 82.58150800000001 18.93655000000001 82.58150800000001 19.002819999999986L82.58150800000001 19.254739999999998L82.60802800000002 19.281239999999997C83.13838900000002 19.26794000000001 83.50964300000003 19.254739999999998 83.98696800000002 19.254739999999998C84.49081100000002 19.254739999999998 84.87532400000002 19.268039999999985 85.40568500000002 19.281239999999997L85.43220500000002 19.254739999999998L85.43220500000002 19.002819999999986C85.43220500000002 18.936519999999973 85.37916500000003 18.910019999999975 85.31287300000002 18.896749999999997L85.06095200000003 18.87025C84.64992200000003 18.830449999999985 84.50407200000002 18.684619999999995 84.50407200000002 18.30010999999999L84.50407200000002 14.998609999999985C84.50407200000002 14.33565999999999 84.54385200000002 13.434049999999985 84.54385200000002 13.434049999999985 " id="path16066"></path><path d="M89.86639199999999 16.165459999999996L89.86639199999999 17.928910000000002C89.86639199999999 18.101280000000003 89.786842 18.19408999999999 89.68076599999999 18.27364C89.33603099999999 18.55207999999999 88.885223 18.84378000000001 88.513971 18.84378000000001C87.851019 18.84378000000001 87.532802 18.313420000000008 87.532802 17.902389999999997C87.532802 17.305729999999983 87.837761 16.70908 88.818928 16.443899999999985L89.866392 16.165459999999996M89.866392 18.618380000000002C89.945952 18.89681999999999 90.15809200000001 19.387400000000014 90.86082 19.387400000000014C91.510512 19.387400000000014 91.96132 18.857040000000012 91.96132 18.790750000000003C91.96132 18.69794999999999 91.86851 18.591859999999997 91.815471 18.591859999999997C91.735921 18.591859999999997 91.696139 18.804010000000005 91.377923 18.804010000000005C90.860821 18.804010000000005 90.847561 18.260379999999998 90.847561 17.650470000000013L90.847561 15.674869999999999C90.847561 13.792090000000002 89.866391 13.4341 88.898483 13.4341C87.811243 13.4341 86.710741 14.18986000000001 86.710741 14.905849999999987C86.710741 15.224069999999983 86.86985 15.369909999999976 87.174808 15.369909999999976C87.559319 15.369909999999976 87.758205 15.10472999999999 87.758205 14.932369999999963C87.758205 14.839569999999952 87.744945 14.74673999999996 87.71842500000001 14.69369999999995C87.70516500000001 14.653899999999936 87.691905 14.57436999999996 87.691905 14.428519999999963C87.691905 14.017489999999952 88.288562 13.831869999999952 88.792405 13.831869999999952C89.243212 13.831869999999952 89.866387 14.097049999999939 89.866387 15.595319999999958C89.866387 15.68811999999997 89.82660700000001 15.741169999999954 89.786837 15.754429999999957L88.64656000000001 16.032869999999946C87.37369400000001 16.35107999999994 86.485337 17.05380999999994 86.485337 17.95542999999995C86.485337 19.00288999999995 87.201326 19.387399999999957 88.129457 19.387399999999957C88.739373 19.387399999999957 88.99129500000001 19.28132999999997 89.574693 18.83051999999995L89.839873 18.618379999999945L89.866393 18.618379999999945 " id="path16068"></path><path d="M97.17041499999999 18.300160000000005C97.17041499999999 18.68467000000001 97.03782399999999 18.830520000000007 96.600276 18.870300000000015L96.28205899999999 18.896800000000013C96.21575899999999 18.896800000000013 96.18924899999999 18.936600000000027 96.18924899999999 19.00287L96.18924899999999 19.254790000000014L96.20250899999999 19.281290000000013C96.86546 19.267990000000026 97.130642 19.254790000000014 97.64774399999999 19.254790000000014C98.191364 19.254790000000014 98.45654599999999 19.26809 99.11949399999999 19.281290000000013L99.14599399999999 19.254790000000014L99.14599399999999 19.00287C99.14599399999999 18.93656999999999 99.09295399999999 18.896800000000013 99.03992299999999 18.896800000000013L98.72170599999998 18.870300000000015C98.28415799999998 18.8305 98.16482699999999 18.68467000000001 98.16482699999999 18.300160000000005L98.16482699999999 11.524789999999996C98.16482699999999 10.662959999999998 98.20460699999998 10.132589999999993 98.20460699999998 10.132589999999993C98.20460699999998 10.039789999999982 98.15156699999999 10 98.03223899999998 10C97.70076399999998 10.132589999999993 96.78588899999997 10.304959999999994 96.24226899999998 10.344740000000002L96.26878899999998 10.662959999999998C96.26878899999998 10.702760000000012 96.30856899999998 10.72926000000001 96.34833899999998 10.72926000000001L96.77262899999998 10.75576000000001C97.03780899999998 10.75576000000001 97.17039999999999 10.92813000000001 97.17039999999999 11.789960000000008L97.17039999999999 18.300150000000002 " id="path16070"></path><path d="M100.798284 11.697159999999997C100.798284 12.041899999999998 101.089984 12.33359999999999 101.434714 12.33359999999999C101.779454 12.33359999999999 102.07115399999999 12.041899999999998 102.07115399999999 11.697159999999997C102.07115399999999 11.352429999999998 101.77945399999999 11.060730000000007 101.434714 11.060730000000007C101.089984 11.060730000000007 100.798284 11.352429999999998 100.798284 11.697159999999997M102.044634 13.4341C102.044634 13.407600000000002 102.018134 13.394299999999987 101.991634 13.394299999999987C101.620384 13.540149999999983 101.06350400000001 13.659479999999974 100.12211400000001 13.805329999999998L100.14861400000001 14.123549999999994L100.718754 14.176549999999992C100.904374 14.20304999999999 101.010444 14.33565999999999 101.010444 14.998609999999985L101.010444 18.30010999999999C101.010444 18.684619999999995 100.891114 18.81720999999999 100.440314 18.87025L100.188384 18.896749999999997C100.122084 18.910049999999984 100.082314 18.93655000000001 100.082314 19.002819999999986L100.082314 19.254739999999998L100.108814 19.281239999999997C100.639174 19.26794000000001 101.010424 19.254739999999998 101.487754 19.254739999999998C101.99159399999999 19.254739999999998 102.376114 19.268039999999985 102.90647399999999 19.281239999999997L102.93297399999999 19.254739999999998L102.93297399999999 19.002819999999986C102.93297399999999 18.936519999999973 102.87997399999999 18.910019999999975 102.81364399999998 18.896749999999997L102.56172399999998 18.87025C102.15069399999999 18.830449999999985 102.00484399999998 18.684619999999995 102.00484399999998 18.30010999999999L102.00484399999998 14.998609999999985C102.00484399999998 14.33565999999999 102.04464399999998 13.434049999999985 102.04464399999998 13.434049999999985 " id="path16072"></path><path d="M107.778204 13.924679999999995C108.454414 13.964480000000009 108.547234 14.044009999999986 108.33508400000001 14.561109999999985L107.15503400000001 17.46483999999998L106.92963400000002 18.03497999999999L106.70422400000002 17.425069999999977L105.56395400000002 14.534599999999983C105.44461400000003 14.22963999999999 105.39158400000002 14.004229999999978 105.81587400000002 13.951199999999972L106.04127400000002 13.924699999999973C106.08107400000002 13.924699999999973 106.16060400000002 13.898199999999974 106.16060400000002 13.818629999999985L106.16060400000002 13.566709999999972L106.10760400000002 13.540209999999973C105.61701400000003 13.55350999999996 105.29879400000003 13.566709999999972 104.78169400000003 13.566709999999972C104.31763400000003 13.566709999999972 104.11874400000004 13.553409999999985 103.62816400000003 13.540209999999973L103.58836400000003 13.566709999999972L103.58836400000003 13.831889999999959C103.58836400000003 13.898189999999971 103.65466400000003 13.911489999999958 103.72095400000002 13.92468999999997C104.09220400000002 13.977689999999967 104.38390400000002 14.083799999999968 104.56953400000002 14.56111999999996L106.37276400000002 19.135489999999947C106.45226400000001 19.334379999999953 106.53186400000001 19.413929999999937 106.70423400000001 19.413929999999937C106.83682400000001 19.413929999999937 106.92964400000001 19.334329999999937 107.02245400000001 19.108969999999943L108.85220400000001 14.614159999999941C109.06434400000002 14.110319999999945 109.36930400000001 13.964469999999949 109.75381400000002 13.924689999999941C109.83341400000002 13.911389999999955 109.89966400000002 13.871689999999944 109.89966400000002 13.80535999999995L109.89966400000002 13.56669999999994L109.87316400000002 13.540199999999942C109.51517400000002 13.553499999999929 109.31628400000001 13.56669999999994 108.97155400000001 13.56669999999994C108.48096400000001 13.56669999999994 108.18926400000001 13.553399999999954 107.69868400000001 13.540199999999942L107.67218400000002 13.56669999999994L107.67218400000002 13.831879999999927C107.67218400000002 13.871679999999941 107.71198400000002 13.924679999999938 107.77825400000002 13.924679999999938 " id="path16074"></path><path d="M111.59792399999999 18.300160000000005C111.59792399999999 18.68467000000001 111.465334 18.830520000000007 111.027784 18.870300000000015L110.775864 18.896800000000013C110.709564 18.9101 110.683064 18.936600000000027 110.683064 19.00287L110.683064 19.254790000000014L110.696364 19.281290000000013C111.186944 19.267990000000026 111.59797400000001 19.254790000000014 112.075304 19.254790000000014C112.579144 19.254790000000014 113.14928400000001 19.26809 113.639864 19.281290000000013L113.666364 19.254790000000014L113.666364 19.00287C113.666364 18.93656999999999 113.613364 18.896800000000013 113.547034 18.896800000000013L113.16252399999999 18.870300000000015C112.73823399999999 18.843800000000016 112.592384 18.68467000000001 112.592384 18.300160000000005L112.592384 15.39643000000001C112.592384 15.224070000000012 112.658684 15.051700000000011 112.751494 14.93237000000002C113.06971399999999 14.48156000000003 113.361404 14.24290000000002 113.50725399999999 14.24290000000002C113.60005399999999 14.24290000000002 113.69288399999999 14.282700000000034 113.77243399999999 14.362230000000011C113.90502399999998 14.494820000000004 114.050874 14.600890000000021 114.31606399999998 14.600890000000021C114.66079399999998 14.600890000000021 114.88619399999999 14.388750000000016 114.88619399999999 14.044010000000014C114.88619399999999 13.699280000000016 114.68731399999999 13.4341 114.14369399999998 13.4341C113.52051399999998 13.4341 112.93711399999998 14.110309999999998 112.59238399999998 14.627409999999998L112.55258399999998 14.627409999999998L112.59238399999998 13.4341C112.59238399999998 13.407600000000002 112.56588399999998 13.394299999999987 112.53938399999998 13.394299999999987C112.16813399999998 13.540149999999983 111.63777399999998 13.659479999999974 110.70964399999998 13.805329999999998L110.73614399999998 14.123549999999994L111.30628399999998 14.176549999999992C111.49191399999998 14.20304999999999 111.59798399999998 14.33565999999999 111.59798399999998 14.998609999999985L111.59798399999998 18.30010999999999 " id="path16076"></path><path d="M116.801554 15.44947000000002C117.04021399999999 13.951200000000028 118.021384 13.884900000000016 118.32634399999999 13.884900000000016C118.803664 13.884900000000016 119.42684399999999 14.150080000000003 119.42684399999999 15.263840000000016C119.42684399999999 15.383170000000007 119.37384399999999 15.44947000000002 119.24121399999999 15.44947000000002L116.80155399999998 15.44947000000002M120.30194399999998 17.99520000000001C119.83787399999997 18.49905000000001 119.37380399999998 18.73771000000002 118.64456399999997 18.73771000000002C117.90205399999998 18.73771000000002 116.76177399999997 17.942170000000033 116.76177399999997 15.966570000000019L120.24890399999997 15.966570000000019C120.39475399999996 15.966570000000019 120.48756399999996 15.88697000000002 120.48756399999996 15.741170000000011C120.48756399999996 14.627409999999998 120.07653399999997 13.4341 118.32634399999996 13.4341C117.06673399999997 13.4341 115.70105399999996 14.600889999999993 115.70105399999996 16.61626000000001C115.70105399999996 18.141050000000007 116.50985399999996 19.387400000000014 118.32634399999996 19.387400000000014C119.28099399999996 19.387400000000014 120.06327399999996 18.89682000000002 120.56712399999996 18.20735000000002C120.52732399999996 18.074760000000026 120.44778399999997 18.008460000000014 120.30194399999996 17.99520000000001 " id="path16078"></path></g>
</svg>