<?xml version="1.0" encoding="UTF-8" standalone="no"?>
<svg
	xmlns="http://www.w3.org/2000/svg"
	xmlns:dc="http://purl.org/dc/elements/1.1/"
	xmlns:cc="http://creativecommons.org/ns#"
	xmlns:rdf="http://www.w3.org/1999/02/22-rdf-syntax-ns#"
	xmlns:svg="http://www.w3.org/2000/svg"
	xmlns:xlink="http://www.w3.org/1999/xlink"
	xmlns:sodipodi="http://sodipodi.sourceforge.net/DTD/sodipodi-0.dtd"
	xmlns:inkscape="http://www.inkscape.org/namespaces/inkscape"
	version="1.1"
	viewBox="0 0 1741.088277225 154.783999">
	<path transform="matrix(7.4778268e-2,0,0,7.4778268e-2,3.823109,133.3181)" d="M35.415999225 98.559999L35.415999225 29.29599900000001C35.415999225 24.256005000000002 40.456006224999996 22.24000000000001 47.511999225 22.24000000000001C78.61596822499999 22.24000000000001 88.83999922499999 47.44001900000001 88.83999922499999 69.61599900000002C88.83999922499999 98.703969 71.415979225 105.903999 51.111999225 105.903999C37.000013225000004 105.903999 35.415999225 103.16799900000001 35.415999225 98.559999M29.223999225 17.632000000000005C22.024006524999997 17.632000000000005 17.847992124999998 17.488 10.647999325 17.34400000000001C9.784000225 18.208 9.784000225 21.23200100000001 10.647999325 22.096000000000004C20.727989325 22.528000000000006 23.175999325 23.248012000000003 23.175999325 35.199999000000005L23.175999325 92.94399899999999C23.175999325 104.89598900000001 20.727989325 105.61599900000002 10.647999325 106.047999C9.784000225 106.91199900000001 9.784000225 109.93599900000001 10.647999325 110.79999900000001C17.703992324999998 110.65599900000001 22.024006725 110.511999 29.367999225 110.511999C34.695994225 110.511999 40.744014225 110.79999900000001 55.575999225 110.79999900000001C75.879979225 110.79999900000001 102.663999225 101.583969 102.663999225 66.159999C102.663999225 39.376029 80.631971225 17.34400000000001 52.983999225 17.34400000000001C43.768008225 17.34400000000001 34.839994225 17.632000000000005 29.223999225 17.632000000000005M137.128747225 111.951999C142.744747225 111.951999 148.648757225 109.071999 155.704747225 103.31199900000001C156.280747225 102.73599899999999 157.432747225 102.44799900000001 157.432747225 103.45599899999999C157.432747225 106.91199900000001 159.01674722500002 111.951999 159.01674722500002 111.951999C160.024747225 112.38399900000002 160.60074722500002 112.38399900000002 161.752747225 111.951999C164.920747225 109.35999900000002 170.392757225 107.19999899999999 179.176747225 106.19199900000001C180.04074722500002 105.327999 180.04074722500002 103.16799900000001 179.176747225 102.303999C169.960757225 101.583999 168.664747225 98.84798900000001 168.664747225 91.791999L168.664747225 64.14399900000001C168.664747225 59.82400900000002 169.240747225 49.455999000000006 169.240747225 49.455999000000006C169.240747225 48.879999 168.80874722500002 48.44799900000001 168.08874722500002 48.44799900000001C167.368747225 48.591999 165.208747225 48.73599900000001 163.048747225 48.73599900000001C158.440757225 48.73599900000001 153.68874722500001 48.591999 148.360747225 48.44799900000001C147.496747225 49.311999 147.496747225 52.335999 148.360747225 53.199999000000005C155.416747225 53.63199900000001 157.288747225 55.360009000000005 157.288747225 64.863999L157.288747225 92.65599900000001C157.288747225 95.391999 157.000747225 96.54399900000001 154.984747225 98.271999C149.656757225 102.879999 145.048747225 105.183999 141.448747225 105.183999C137.128757225 105.183999 129.928747225 103.167989 129.928747225 90.351999L129.928747225 64.14399900000001C129.928747225 59.82400900000002 130.504747225 49.455999000000006 130.504747225 49.455999000000006C130.504747225 48.879999 130.072747225 48.44799900000001 129.352747225 48.44799900000001C128.632747225 48.591999 126.472747225 48.73599900000001 124.31274722500001 48.73599900000001C119.70475722500001 48.73599900000001 114.952744225 48.591999 109.62474922499999 48.44799900000001C108.76075022500001 49.311999 108.76075022500001 52.335999 109.62474922499999 53.199999000000005C116.536747225 53.775999 118.55274722499999 55.360009000000005 118.55274722499999 64.719999L118.55274722499999 92.367999C118.55274722499999 102.303989 122.87276722499999 111.951999 137.128747225 111.951999M192.936997225 64.863999L192.936997225 92.94399899999999C192.936997225 104.89598900000001 191.20898722500002 105.47199900000001 182.280997225 106.047999C181.41699722500002 106.91199900000001 181.41699722500002 109.93599900000001 182.280997225 110.79999900000001C188.328997225 110.65599900000001 192.937007225 110.511999 198.69699722500002 110.511999C204.60099722500001 110.511999 209.929007225 110.65599900000001 216.120997225 110.79999900000001C216.984997225 109.93599900000001 216.984997225 106.91199900000001 216.120997225 106.047999C206.04100722500002 105.327999 204.312997225 104.89598900000001 204.312997225 92.94399899999999L204.312997225 72.927999C204.312997225 69.184009 206.040997225 65.87199900000002 207.768997225 63.279999000000004C209.352997225 60.975999 212.664997225 56.223999000000006 214.39299722500002 56.223999000000006C215.400997225 56.223999000000006 216.552997225 56.36799900000001 217.41699722500002 57.231999C218.85699722500001 58.671999 220.29700722500002 61.40799900000002 223.320997225 61.40799900000002C226.776997225 61.40799900000002 230.088997225 57.807998999999995 230.088997225 54.207999C230.088997225 51.47199900000001 227.496997225 47.29599900000001 221.448997225 47.29599900000001C214.681007225 47.29599900000001 208.776997225 53.63200900000001 205.46499722500002 59.24799899999999C204.60099722500001 60.831998999999996 204.168997225 60.111999 204.168997225 59.391999C204.168997225 54.78400900000001 204.888997225 47.871999 204.888997225 47.871999C204.888997225 47.29599900000001 204.168997225 46.86399900000001 203.016997225 46.86399900000001C198.985007225 48.44799900000001 193.224987225 49.743999 183.288997225 51.03999900000001C183.00099722500002 51.903999 183.00099722500002 54.207999 183.576997225 55.071999000000005C191.352987225 55.791999000000004 192.936997225 56.94400900000001 192.936997225 64.863999M271.166497225 76.95999900000001L271.166497225 96.111999C271.166497225 97.98399900000001 270.30249722499997 98.99199899999999 269.150497225 99.855999C265.406507225 102.879999 260.510497225 106.047999 256.478497225 106.047999C249.278507225 106.047999 246.11049722500002 100.28799900000001 246.11049722500002 95.82399900000001C246.11049722500002 89.344009 249.134507225 82.863999 259.79049722499997 79.98399900000001L271.166497225 76.95999900000001M271.166497225 103.599999C272.030497225 106.623999 274.478507225 111.951999 282.254497225 111.951999C289.310497225 111.951999 294.49449722500003 106.19199900000001 294.49449722500003 105.47199900000001C294.49449722500003 104.463999 293.198497225 103.023999 292.622497225 103.023999C291.758497225 103.023999 291.182497225 105.327999 288.158497225 105.327999C282.542507225 105.327999 282.398497225 99.71198900000002 282.398497225 93.087999L282.398497225 71.63199900000001C282.398497225 51.184019000000006 271.16648722499997 47.29599900000001 260.654497225 47.29599900000001C248.846507225 47.29599900000001 236.894497225 55.50400900000001 236.894497225 63.279999000000004C236.894497225 66.73599899999999 238.622507225 68.319999 241.934497225 68.319999C246.11049722500002 68.319999 248.270497225 65.439999 248.270497225 63.567999000000015C248.270497225 62.559999000000005 248.126497225 61.551998999999995 247.838497225 60.975999C247.69449722500002 60.543999000000014 247.55049722500002 59.67999900000001 247.55049722500002 58.095999000000006C247.55049722500002 53.63200900000001 254.030507225 52.047999000000004 259.502497225 52.047999000000004C264.39849722499997 52.047999000000004 271.166497225 54.496019000000004 271.166497225 70.767999C271.166497225 71.77599900000001 270.734497225 72.351999 270.30249722499997 72.49599900000001L257.918497225 75.51999900000001C244.094517225 78.975999 234.15849722500002 86.60800900000001 234.15849722500002 96.39999900000001C234.15849722500002 107.77598900000001 242.22250722500002 111.951999 252.302497225 111.951999C258.926497225 111.951999 261.662507225 110.79999900000001 267.998497225 105.903999L270.878497225 103.599999L271.166497225 103.599999M332.186997225 64.863999L332.186997225 92.94399899999999C332.186997225 104.89598900000001 330.458987225 105.47199900000001 321.530997225 106.047999C320.666997225 106.91199900000001 320.666997225 109.93599900000001 321.530997225 110.79999900000001C327.578997225 110.65599900000001 332.187007225 110.511999 337.946997225 110.511999C343.850997225 110.511999 349.179007225 110.65599900000001 355.370997225 110.79999900000001C356.23499722500003 109.93599900000001 356.23499722500003 106.91199900000001 355.370997225 106.047999C345.291007225 105.327999 343.562997225 104.89598900000001 343.562997225 92.94399899999999L343.562997225 72.927999C343.562997225 69.184009 345.290997225 65.87199900000002 347.018997225 63.279999000000004C348.602997225 60.975999 351.914997225 56.223999000000006 353.642997225 56.223999000000006C354.650997225 56.223999000000006 355.802997225 56.36799900000001 356.666997225 57.231999C358.106997225 58.671999 359.547007225 61.40799900000002 362.570997225 61.40799900000002C366.026997225 61.40799900000002 369.338997225 57.807998999999995 369.338997225 54.207999C369.338997225 51.47199900000001 366.74699722500003 47.29599900000001 360.698997225 47.29599900000001C353.93100722500003 47.29599900000001 348.026997225 53.63200900000001 344.714997225 59.24799899999999C343.850997225 60.831998999999996 343.418997225 60.111999 343.418997225 59.391999C343.418997225 54.78400900000001 344.138997225 47.871999 344.138997225 47.871999C344.138997225 47.29599900000001 343.418997225 46.86399900000001 342.266997225 46.86399900000001C338.235007225 48.44799900000001 332.474987225 49.743999 322.538997225 51.03999900000001C322.250997225 51.903999 322.250997225 54.207999 322.826997225 55.071999000000005C330.602987225 55.791999000000004 332.186997225 56.94400900000001 332.186997225 64.863999M384.955497225 69.903999C387.69149722500003 53.632019 397.771507225 52.335999 401.227497225 52.335999C406.699497225 52.335999 413.17949722500003 55.360009000000005 413.17949722500003 67.45599899999999C413.17949722500003 68.75199900000001 412.603497225 69.47199900000001 411.019497225 69.47199900000001L384.955497225 69.903999M422.683497225 97.119999C417.355507225 102.59199900000002 413.179487225 104.89599900000002 404.827497225 104.89599900000002C399.643507225 104.89599900000002 393.59549722500003 101.87198900000001 389.13149722500003 94.527999C386.251507225 89.77600900000002 384.523497225 83.15198900000001 384.523497225 74.79999900000001L422.827497225 75.087999C424.555497225 75.087999 425.563497225 74.22399899999999 425.563497225 72.63999900000002C425.563497225 60.54400900000002 421.243477225 47.583999000000006 401.227497225 47.583999000000006C388.699507225 47.583999000000006 372.427497225 59.53601900000001 372.427497225 81.42399900000001C372.427497225 89.487989 374.443507225 97.26400900000002 379.195497225 102.73599899999999C384.091497225 108.49599900000001 390.859507225 111.951999 401.227497225 111.951999C412.171487225 111.951999 419.947507225 106.911989 425.707497225 99.42399900000001C425.275497225 97.98399900000001 424.411497225 97.26399900000001 422.683497225 97.119999M467.673747225 21.52000000000001C476.457737225 21.52000000000001 486.825747225 24.688017000000002 486.825747225 41.67999900000001C486.825747225 59.679979 476.601737225 63.71199899999999 462.633747225 63.71199899999999L455.721747225 63.71199899999999L455.721747225 30.735999000000007C455.721747225 26.560005000000004 457.449757225 21.52000000000001 467.673747225 21.52000000000001M455.721747225 92.94399899999999L455.721747225 68.607999C467.81773722500003 68.607999 470.409747225 70.767999 472.569747225 74.07999900000002L487.97774722500003 99.135999C492.009747225 105.903989 498.345757225 111.951999 506.985747225 111.951999C509.145747225 111.951999 511.593747225 111.66399900000002 513.033747225 110.94399899999999C513.465747225 110.07999900000002 513.465747225 108.63999900000002 512.889747225 107.487999C506.409757225 107.487999 502.809747225 102.73599899999999 499.065747225 96.39999900000001L480.921747225 66.159999C487.113747225 64.14399900000001 500.07374722500003 56.655989000000005 500.07374722500003 41.535999000000004C500.07374722500003 34.336009000000004 497.625747225 28.431995999999998 492.44174722500003 23.536C485.529757225 17.056007000000008 476.601737225 16.62400000000001 467.529747225 16.62400000000001C463.929757225 16.62400000000001 455.00174722500003 17.632000000000005 449.529747225 17.632000000000005C442.329757225 17.632000000000005 438.153737225 17.488 430.95374722500003 17.34400000000001C430.089747225 18.208 430.089747225 21.23200100000001 430.95374722500003 22.096000000000004C441.033737225 22.528000000000006 443.481747225 23.248012000000003 443.481747225 35.199999000000005L443.481747225 92.94399899999999C443.481747225 104.89598900000001 441.033737225 105.61599900000002 430.95374722500003 106.047999C430.089747225 106.91199900000001 430.089747225 109.93599900000001 430.95374722500003 110.79999900000001C438.009747225 110.65599900000001 442.329757225 110.511999 449.673747225 110.511999C456.873737225 110.511999 461.049757225 110.65599900000001 468.249747225 110.79999900000001C469.113747225 109.93599900000001 469.113747225 106.91199900000001 468.249747225 106.047999C458.169757225 105.61599900000002 455.721747225 104.89598900000001 455.721747225 92.94399899999999M541.409997225 111.951999C547.025997225 111.951999 552.9300072249999 109.071999 559.985997225 103.31199900000001C560.5619972249999 102.73599899999999 561.713997225 102.44799900000001 561.713997225 103.45599899999999C561.713997225 106.91199900000001 563.2979972249999 111.951999 563.2979972249999 111.951999C564.3059972249999 112.38399900000002 564.881997225 112.38399900000002 566.0339972249999 111.951999C569.2019972249999 109.35999900000002 574.674007225 107.19999899999999 583.457997225 106.19199900000001C584.3219972249999 105.327999 584.3219972249999 103.16799900000001 583.457997225 102.303999C574.242007225 101.583999 572.9459972249999 98.84798900000001 572.9459972249999 91.791999L572.9459972249999 64.14399900000001C572.9459972249999 59.82400900000002 573.521997225 49.455999000000006 573.521997225 49.455999000000006C573.521997225 48.879999 573.0899972249999 48.44799900000001 572.3699972249999 48.44799900000001C571.649997225 48.591999 569.4899972249999 48.73599900000001 567.3299972249999 48.73599900000001C562.722007225 48.73599900000001 557.9699972249999 48.591999 552.641997225 48.44799900000001C551.7779972249999 49.311999 551.7779972249999 52.335999 552.641997225 53.199999000000005C559.697997225 53.63199900000001 561.569997225 55.360009000000005 561.569997225 64.863999L561.569997225 92.65599900000001C561.569997225 95.391999 561.2819972249999 96.54399900000001 559.265997225 98.271999C553.938007225 102.879999 549.3299972249999 105.183999 545.7299972249999 105.183999C541.410007225 105.183999 534.2099972249999 103.167989 534.2099972249999 90.351999L534.2099972249999 64.14399900000001C534.2099972249999 59.82400900000002 534.785997225 49.455999000000006 534.785997225 49.455999000000006C534.785997225 48.879999 534.353997225 48.44799900000001 533.6339972249999 48.44799900000001C532.913997225 48.591999 530.7539972249999 48.73599900000001 528.593997225 48.73599900000001C523.986007225 48.73599900000001 519.2339972249999 48.591999 513.905997225 48.44799900000001C513.0419972249999 49.311999 513.0419972249999 52.335999 513.905997225 53.199999000000005C520.817997225 53.775999 522.833997225 55.360009000000005 522.833997225 64.719999L522.833997225 92.367999C522.833997225 102.303989 527.154017225 111.951999 541.409997225 111.951999M591.6022472249999 46.86399900000001C591.1702472249999 46.86399900000001 590.7382472249999 47.439999 590.7382472249999 47.72799900000001C590.594247225 54.207989 589.730247225 59.68000900000001 588.5782472249999 66.73599899999999C589.730247225 67.31199900000001 591.6022472249999 67.599999 593.330247225 67.16799900000001C596.210247225 56.65600900000001 600.6742572249999 53.63199900000001 604.994247225 53.63199900000001L624.8662472249999 53.63199900000001L589.442247225 105.903999C588.2902472249999 107.63199900000001 588.1462472249999 108.063999 588.1462472249999 108.783999C588.1462472249999 109.791999 589.298247225 110.511999 591.4582472249999 110.511999L636.3862472249999 110.511999C637.106247225 106.04800900000001 638.546247225 99.279989 640.994247225 90.927999C639.9862472249999 90.49599900000001 638.402247225 89.91999900000002 636.6742472249999 89.91999900000002L634.802247225 94.095999C631.3462572249999 101.72798900000001 628.898237225 105.61599900000002 620.546247225 105.61599900000002L601.394247225 105.61599900000002L635.9542472249999 54.78399900000001C638.402247225 51.040009 639.1222472249999 49.311999 639.1222472249999 48.73599900000001C639.1222472249999 48.159999 638.402247225 47.72799900000001 637.394247225 47.72799900000001C636.6742472249999 47.72799900000001 632.066247225 48.73599900000001 627.8902472249999 48.73599900000001L598.658247225 48.73599900000001C593.906257225 48.73599900000001 594.0502472249999 47.439999 591.6022472249999 46.86399900000001M653.809497225 24.256C653.809497225 27.999997000000008 657.265507225 31.743999000000002 660.7214972249999 31.743999000000002C664.7534972249999 31.743999000000002 668.209497225 27.999997000000008 668.209497225 24.832000000000008C668.209497225 21.37600400000001 665.185497225 17.34400000000001 661.2974972249999 17.34400000000001C657.841507225 17.34400000000001 653.809497225 20.800004 653.809497225 24.256M666.9134972249999 92.94399899999999L666.9134972249999 64.28799900000001C666.9134972249999 57.088009 667.4894972249999 47.871999 667.4894972249999 47.871999C667.4894972249999 47.29599900000001 666.7694972249999 46.86399900000001 665.617497225 46.86399900000001C661.4415072249999 48.44799900000001 655.825487225 49.743999 645.8894972249999 51.03999900000001C645.601497225 51.903999 645.8894972249999 54.207999 646.1774972249999 55.071999000000005C653.953487225 55.93599900000001 655.5374972249999 56.65600900000001 655.5374972249999 64.863999L655.5374972249999 92.94399899999999C655.5374972249999 104.89598900000001 653.953487225 105.327999 645.169497225 106.047999C644.305497225 106.91199900000001 644.305497225 109.93599900000001 645.169497225 110.79999900000001C651.217497225 110.65599900000001 654.961507225 110.511999 661.2974972249999 110.511999C667.4894972249999 110.511999 671.0895072249999 110.65599900000001 677.281497225 110.79999900000001C678.145497225 109.93599900000001 678.145497225 106.91199900000001 677.281497225 106.047999C668.4975072249999 105.47199900000001 666.9134972249999 104.89598900000001 666.9134972249999 92.94399899999999M723.743247225 53.199999000000005C731.519237225 53.775999 732.239247225 55.648009 729.215247225 62.847999000000016L717.695247225 91.071999C715.2472472249999 96.831999 714.527247225 96.68799899999999 712.3672472249999 90.63999900000002L701.855247225 62.847999000000016C699.407247225 55.936009 697.391257225 54.06399900000001 706.4632472249999 53.199999000000005C707.327247225 52.335999 707.327247225 49.311999 706.4632472249999 48.44799900000001C701.1352572249999 48.591999 697.1032472249999 48.73599900000001 691.1992472249999 48.73599900000001C686.1592572249999 48.73599900000001 683.855247225 48.591999 678.527247225 48.44799900000001C677.663247225 49.311999 677.663247225 52.335999 678.527247225 53.199999000000005C686.735237225 54.207999 687.167257225 56.512009000000006 690.047247225 63.71199899999999L708.479247225 109.21599900000001C709.3432472249999 111.37599900000001 710.207247225 112.23999900000001 712.0792472249999 112.23999900000001C713.519247225 112.23999900000001 714.383247225 111.37599900000001 715.5352472249999 108.927999L734.687247225 63.855999C737.423247225 57.66400899999999 739.007257225 53.919999000000004 747.071247225 53.199999000000005C747.9352472249999 52.335999 747.9352472249999 49.311999 747.071247225 48.44799900000001C743.903257225 48.591999 741.311247225 48.73599900000001 737.567247225 48.73599900000001C732.239257225 48.73599900000001 729.071247225 48.591999 723.743247225 48.44799900000001C722.879247225 49.311999 722.879247225 52.335999 723.743247225 53.199999000000005M750.1597472249999 80.99199899999999C750.1597472249999 95.679989 760.0957672249999 111.951999 780.3997472249999 111.951999C801.8557272249999 111.951999 810.927747225 94.095989 810.927747225 79.695999C810.927747225 64.72001900000001 803.0077272249999 47.29599900000001 780.687747225 47.29599900000001C761.247767225 47.29599900000001 750.1597472249999 62.70401900000002 750.1597472249999 80.99199899999999M779.103747225 52.047999000000004C791.4877372249999 52.047999000000004 798.543747225 63.136019000000005 798.543747225 84.303999C798.543747225 103.31197900000001 789.759747225 107.19999899999999 782.9917472249999 107.19999899999999C768.015767225 107.19999899999999 762.543747225 88.767989 762.543747225 77.67999900000001C762.543747225 65.15200899999999 767.007757225 52.047999000000004 779.103747225 52.047999000000004M878.9862472249999 21.52000000000001C887.770237225 21.52000000000001 898.138247225 24.688017000000002 898.138247225 41.67999900000001C898.138247225 59.679979 887.914237225 63.71199899999999 873.946247225 63.71199899999999L867.034247225 63.71199899999999L867.034247225 30.735999000000007C867.034247225 26.560005000000004 868.762257225 21.52000000000001 878.9862472249999 21.52000000000001M867.034247225 92.94399899999999L867.034247225 68.607999C879.130237225 68.607999 881.7222472249999 70.767999 883.8822472249999 74.07999900000002L899.2902472249999 99.135999C903.322247225 105.903989 909.6582572249999 111.951999 918.298247225 111.951999C920.4582472249999 111.951999 922.9062472249999 111.66399900000002 924.346247225 110.94399899999999C924.778247225 110.07999900000002 924.778247225 108.63999900000002 924.202247225 107.487999C917.7222572249999 107.487999 914.1222472249999 102.73599899999999 910.378247225 96.39999900000001L892.234247225 66.159999C898.426247225 64.14399900000001 911.3862472249999 56.655989000000005 911.3862472249999 41.535999000000004C911.3862472249999 34.336009000000004 908.9382472249999 28.431995999999998 903.754247225 23.536C896.8422572249999 17.056007000000008 887.914237225 16.62400000000001 878.8422472249999 16.62400000000001C875.242257225 16.62400000000001 866.3142472249999 17.632000000000005 860.8422472249999 17.632000000000005C853.642257225 17.632000000000005 849.466237225 17.488 842.2662472249999 17.34400000000001C841.402247225 18.208 841.402247225 21.23200100000001 842.2662472249999 22.096000000000004C852.346237225 22.528000000000006 854.7942472249999 23.248012000000003 854.7942472249999 35.199999000000005L854.7942472249999 92.94399899999999C854.7942472249999 104.89598900000001 852.346237225 105.61599900000002 842.2662472249999 106.047999C841.402247225 106.91199900000001 841.402247225 109.93599900000001 842.2662472249999 110.79999900000001C849.322247225 110.65599900000001 853.642257225 110.511999 860.9862472249999 110.511999C868.1862372249999 110.511999 872.3622572249999 110.65599900000001 879.562247225 110.79999900000001C880.426247225 109.93599900000001 880.426247225 106.91199900000001 879.562247225 106.047999C869.4822572249999 105.61599900000002 867.034247225 104.89598900000001 867.034247225 92.94399899999999M963.666497225 76.95999900000001L963.666497225 96.111999C963.666497225 97.98399900000001 962.8024972249999 98.99199899999999 961.650497225 99.855999C957.9065072249999 102.879999 953.010497225 106.047999 948.978497225 106.047999C941.778507225 106.047999 938.6104972249999 100.28799900000001 938.6104972249999 95.82399900000001C938.6104972249999 89.344009 941.634507225 82.863999 952.290497225 79.98399900000001L963.666497225 76.95999900000001M963.666497225 103.599999C964.530497225 106.623999 966.9785072249999 111.951999 974.7544972249999 111.951999C981.810497225 111.951999 986.9944972249999 106.19199900000001 986.9944972249999 105.47199900000001C986.9944972249999 104.463999 985.698497225 103.023999 985.122497225 103.023999C984.2584972249999 103.023999 983.6824972249999 105.327999 980.6584972249999 105.327999C975.0425072249999 105.327999 974.8984972249999 99.71198900000002 974.8984972249999 93.087999L974.8984972249999 71.63199900000001C974.8984972249999 51.184019000000006 963.666487225 47.29599900000001 953.154497225 47.29599900000001C941.346507225 47.29599900000001 929.3944972249999 55.50400900000001 929.3944972249999 63.279999000000004C929.3944972249999 66.73599899999999 931.1225072249999 68.319999 934.434497225 68.319999C938.6104972249999 68.319999 940.770497225 65.439999 940.770497225 63.567999000000015C940.770497225 62.559999000000005 940.626497225 61.551998999999995 940.338497225 60.975999C940.194497225 60.543999000000014 940.050497225 59.67999900000001 940.050497225 58.095999000000006C940.050497225 53.63200900000001 946.530507225 52.047999000000004 952.002497225 52.047999000000004C956.8984972249999 52.047999000000004 963.666497225 54.496019000000004 963.666497225 70.767999C963.666497225 71.77599900000001 963.2344972249999 72.351999 962.8024972249999 72.49599900000001L950.4184972249999 75.51999900000001C936.594517225 78.975999 926.6584972249999 86.60800900000001 926.6584972249999 96.39999900000001C926.6584972249999 107.77598900000001 934.722507225 111.951999 944.8024972249999 111.951999C951.4264972249999 111.951999 954.1625072249999 110.79999900000001 960.4984972249999 105.903999L963.3784972249999 103.599999L963.666497225 103.599999M996.670997225 92.94399899999999C996.670997225 104.89598900000001 995.0869872249999 105.47199900000001 987.0229972249999 106.047999C986.1589972249999 106.91199900000001 986.1589972249999 109.93599900000001 987.0229972249999 110.79999900000001C993.0709972249999 110.65599900000001 996.3830072249999 110.511999 1002.4309972249999 110.511999C1007.4709972249999 110.511999 1009.343007225 110.65599900000001 1015.534997225 110.79999900000001C1016.398977225 109.93599900000001 1016.398977225 106.91199900000001 1015.534997225 106.047999C1009.631007225 105.47199900000001 1008.0469972249999 104.89598900000001 1008.0469972249999 92.94399899999999L1008.0469972249999 79.98399900000001C1011.3589972249999 80.12799900000002 1013.375007225 81.136009 1016.2549972249999 85.16799900000001L1026.7669772250001 99.999999C1029.646977225 104.17599900000002 1030.078977225 105.903999 1030.078977225 107.77599900000001L1030.078977225 110.07999900000002C1030.078977225 110.511999 1030.222977225 110.79999900000001 1030.654977225 110.79999900000001C1033.534977225 110.65599900000001 1036.270977225 110.511999 1040.590977225 110.511999C1045.054977225 110.511999 1048.078977225 110.65599900000001 1052.398977225 110.79999900000001C1053.262977225 109.93599900000001 1053.262977225 106.91199900000001 1052.398977225 106.047999C1047.502977225 105.47199900000001 1043.182977225 104.89599900000002 1040.014977225 99.999999L1023.166977225 75.087999C1022.734977225 74.511999 1022.446977225 73.791999 1022.446977225 73.071999C1022.446977225 72.49599900000001 1022.590977225 72.063999 1023.022977225 71.63199900000001L1033.966977225 59.535999000000004C1038.142977225 55.216009 1042.606977225 53.487999 1049.8069772249999 53.199999000000005C1050.670977225 52.335999 1050.670977225 49.311999 1049.8069772249999 48.44799900000001C1044.4789772249999 48.591999 1042.462977225 48.73599900000001 1037.278977225 48.73599900000001C1031.806977225 48.73599900000001 1029.358977225 48.591999 1024.030977225 48.44799900000001C1023.166977225 49.311999 1023.166977225 52.335999 1024.030977225 53.199999000000005C1032.6709772250001 53.63199900000001 1028.062977225 59.103999000000016 1026.622977225 60.543999000000014C1018.9909772249999 68.89598900000001 1011.790997225 75.231999 1008.0469972249999 76.38399900000002L1008.0469972249999 26.560000000000002C1008.0469972249999 17.200010000000006 1008.622997225 11.439999999999998 1008.622997225 11.439999999999998C1008.622997225 10.432001 1008.0469972249999 10 1006.750997225 10C1003.151007225 11.439999 992.3509972249999 13.456001 986.5909972249999 13.888000000000005C986.3029972249999 15.039999000000009 986.5909972249999 17.344001000000006 987.4549972249999 18.208C994.9429872249999 18.64 996.670997225 17.92001300000001 996.670997225 30.015999000000008L996.670997225 92.94399899999999M1092.1039772249999 76.95999900000001L1092.1039772249999 96.111999C1092.1039772249999 97.98399900000001 1091.2399772249998 98.99199899999999 1090.087977225 99.855999C1086.343977225 102.879999 1081.447977225 106.047999 1077.415977225 106.047999C1070.215977225 106.047999 1067.0479772249998 100.28799900000001 1067.0479772249998 95.82399900000001C1067.0479772249998 89.344009 1070.071977225 82.863999 1080.727977225 79.98399900000001L1092.1039772249999 76.95999900000001M1092.1039772249999 103.599999C1092.967977225 106.623999 1095.415977225 111.951999 1103.1919772249998 111.951999C1110.2479772249999 111.951999 1115.4319772249999 106.19199900000001 1115.4319772249999 105.47199900000001C1115.4319772249999 104.463999 1114.135977225 103.023999 1113.559977225 103.023999C1112.695977225 103.023999 1112.119977225 105.327999 1109.0959772249998 105.327999C1103.4799772249999 105.327999 1103.3359772249999 99.71198900000002 1103.3359772249999 93.087999L1103.3359772249999 71.63199900000001C1103.3359772249999 51.184019000000006 1092.1039772249999 47.29599900000001 1081.591977225 47.29599900000001C1069.783977225 47.29599900000001 1057.831977225 55.50400900000001 1057.831977225 63.279999000000004C1057.831977225 66.73599899999999 1059.559977225 68.319999 1062.871977225 68.319999C1067.0479772249998 68.319999 1069.207977225 65.439999 1069.207977225 63.567999000000015C1069.207977225 62.559999000000005 1069.063977225 61.551998999999995 1068.775977225 60.975999C1068.631977225 60.543999000000014 1068.487977225 59.67999900000001 1068.487977225 58.095999000000006C1068.487977225 53.63200900000001 1074.967977225 52.047999000000004 1080.439977225 52.047999000000004C1085.3359772249999 52.047999000000004 1092.1039772249999 54.496019000000004 1092.1039772249999 70.767999C1092.1039772249999 71.77599900000001 1091.6719772249999 72.351999 1091.2399772249998 72.49599900000001L1078.855977225 75.51999900000001C1065.031977225 78.975999 1055.0959772249998 86.60800900000001 1055.0959772249998 96.39999900000001C1055.0959772249998 107.77598900000001 1063.159977225 111.951999 1073.2399772249998 111.951999C1079.8639772249999 111.951999 1082.599977225 110.79999900000001 1088.935977225 105.903999L1091.8159772249999 103.599999L1092.1039772249999 103.599999M1119.636477225 90.63999900000002C1120.212477225 97.695989 1120.644477225 104.464009 1120.644477225 110.511999C1122.084477225 110.22399899999999 1123.524477225 110.07999900000002 1124.2444772249999 110.07999900000002C1125.252477225 110.07999900000002 1126.116477225 110.07999900000002 1127.124477225 110.367999C1131.0124772249999 111.37599900000001 1134.900477225 111.951999 1140.228477225 111.951999C1148.2924772249999 111.951999 1163.124477225 108.06398899999999 1163.124477225 93.807999C1163.124477225 84.016009 1155.924477225 78.39999900000001 1146.276477225 74.65599900000001C1137.636477225 71.343999 1131.876477225 69.183989 1131.876477225 61.26399900000001C1131.876477225 55.360009000000005 1137.0604772249999 52.047999000000004 1141.9564772249998 52.047999000000004C1145.124477225 52.047999000000004 1153.476477225 53.20000900000001 1155.348477225 65.439999C1156.212477225 66.303999 1159.092477225 66.159999 1159.9564772249998 65.295999C1159.9564772249998 60.112009 1160.6764772249999 54.78399900000001 1160.8204772249999 50.031999C1156.356477225 49.311999 1149.444477225 47.29599900000001 1141.9564772249998 47.29599900000001C1131.300477225 47.29599900000001 1121.652477225 54.208009000000004 1121.652477225 63.42399900000001C1121.652477225 73.935989 1126.404477225 78.40000900000001 1137.492477225 83.00799900000001C1149.300477225 88.047999 1152.180477225 90.928009 1152.180477225 97.119999C1152.180477225 104.17598900000002 1145.268477225 107.19999899999999 1139.940477225 107.19999899999999C1134.324477225 107.19999899999999 1131.156477225 105.327999 1129.716477225 103.743999C1126.260477225 100.43199899999999 1124.9644772249999 94.095999 1124.1004772249998 90.49599900000001C1123.236477225 89.63199900000001 1120.500477225 89.77599900000001 1119.636477225 90.63999900000002M1196.097477225 111.951999C1201.713477225 111.951999 1207.617477225 109.071999 1214.673477225 103.31199900000001C1215.249477225 102.73599899999999 1216.401477225 102.44799900000001 1216.401477225 103.45599899999999C1216.401477225 106.91199900000001 1217.9854772249998 111.951999 1217.9854772249998 111.951999C1218.9934772249999 112.38399900000002 1219.569477225 112.38399900000002 1220.721477225 111.951999C1223.8894772249998 109.35999900000002 1229.361477225 107.19999899999999 1238.145477225 106.19199900000001C1239.009477225 105.327999 1239.009477225 103.16799900000001 1238.145477225 102.303999C1228.929477225 101.583999 1227.633477225 98.84798900000001 1227.633477225 91.791999L1227.633477225 64.14399900000001C1227.633477225 59.82400900000002 1228.209477225 49.455999000000006 1228.209477225 49.455999000000006C1228.209477225 48.879999 1227.777477225 48.44799900000001 1227.057477225 48.44799900000001C1226.337477225 48.591999 1224.1774772249998 48.73599900000001 1222.017477225 48.73599900000001C1217.409477225 48.73599900000001 1212.6574772249999 48.591999 1207.329477225 48.44799900000001C1206.4654772249999 49.311999 1206.4654772249999 52.335999 1207.329477225 53.199999000000005C1214.385477225 53.63199900000001 1216.257477225 55.360009000000005 1216.257477225 64.863999L1216.257477225 92.65599900000001C1216.257477225 95.391999 1215.969477225 96.54399900000001 1213.953477225 98.271999C1208.625477225 102.879999 1204.017477225 105.183999 1200.4174772249999 105.183999C1196.097477225 105.183999 1188.8974772249999 103.167989 1188.8974772249999 90.351999L1188.8974772249999 64.14399900000001C1188.8974772249999 59.82400900000002 1189.473477225 49.455999000000006 1189.473477225 49.455999000000006C1189.473477225 48.879999 1189.0414772249999 48.44799900000001 1188.3214772249999 48.44799900000001C1187.601477225 48.591999 1185.441477225 48.73599900000001 1183.281477225 48.73599900000001C1178.673477225 48.73599900000001 1173.921477225 48.591999 1168.593477225 48.44799900000001C1167.729477225 49.311999 1167.729477225 52.335999 1168.593477225 53.199999000000005C1175.505477225 53.775999 1177.521477225 55.360009000000005 1177.521477225 64.719999L1177.521477225 92.367999C1177.521477225 102.303989 1181.841477225 111.951999 1196.097477225 111.951999M1264.0017772249998 58.95999900000001C1263.569777225 59.535999000000004 1262.561777225 60.975999 1262.561777225 58.95999900000001C1262.561777225 54.640009000000006 1263.281777225 48.01599900000001 1263.281777225 48.01599900000001C1263.281777225 47.29599900000001 1262.705777225 46.86399900000001 1261.553777225 46.86399900000001C1257.521777225 48.44799900000001 1251.617777225 49.743999 1241.681777225 51.03999900000001C1241.393777225 51.903999 1241.681777225 54.207999 1241.969777225 55.071999000000005C1249.745777225 55.791999000000004 1251.329777225 56.512009000000006 1251.329777225 64.863999L1251.329777225 92.94399899999999C1251.329777225 104.75198900000001 1249.889777225 105.327999 1241.249777225 106.047999C1240.3857772249999 106.91199900000001 1240.3857772249999 109.93599900000001 1241.249777225 110.79999900000001C1247.1537772249999 110.65599900000001 1250.897777225 110.511999 1257.089777225 110.511999C1262.705777225 110.511999 1265.297777225 110.65599900000001 1271.345777225 110.79999900000001C1272.209777225 109.93599900000001 1272.209777225 106.91199900000001 1271.345777225 106.047999C1264.0017772249998 105.327999 1262.705777225 104.75198900000001 1262.705777225 92.94399899999999L1262.705777225 69.327999C1262.705777225 66.303999 1264.0017772249998 64.575999 1265.1537772249999 63.279999000000004C1270.6257772249999 57.952009000000004 1276.2417772249999 54.78399900000001 1281.8577772249998 54.78399900000001C1284.737777225 54.78399900000001 1287.761777225 56.65599900000001 1289.489777225 59.96799899999999C1290.929777225 62.847999000000016 1291.217777225 66.736009 1291.217777225 71.05599900000001L1291.217777225 92.94399899999999C1291.217777225 104.75198900000001 1289.777777225 105.327999 1282.2897772249999 106.047999C1281.569777225 106.91199900000001 1281.569777225 109.93599900000001 1282.2897772249999 110.79999900000001C1288.3377772249999 110.65599900000001 1291.217777225 110.511999 1296.977777225 110.511999C1302.881777225 110.511999 1306.0497772249998 110.65599900000001 1312.2417772249999 110.79999900000001C1312.9617772249999 109.93599900000001 1312.9617772249999 106.91199900000001 1312.2417772249999 106.047999C1304.177777225 105.327999 1302.593777225 104.75198900000001 1302.593777225 92.94399899999999L1302.593777225 71.487999C1302.593777225 63.56800900000002 1302.017777225 56.65599900000001 1298.705777225 52.19199900000001C1296.257777225 49.023999 1291.793777225 47.29599900000001 1286.753777225 47.29599900000001C1279.697777225 47.29599900000001 1272.785777225 49.168009 1264.0017772249998 58.95999900000001M1357.504277225 70.33599900000002C1357.504277225 83.72798900000001 1350.7362772249999 86.463999 1345.408277225 86.463999C1333.312277225 86.463999 1332.0162772249998 76.23998900000001 1332.0162772249998 67.023999C1332.0162772249998 56.94400900000001 1335.616277225 51.75999900000001 1343.536277225 51.75999900000001C1352.608277225 51.75999900000001 1357.504277225 58.38400899999999 1357.504277225 70.33599900000002M1330.576277225 111.951999C1332.1602772249998 112.38399900000002 1334.464277225 112.671999 1336.336277225 112.671999C1340.800277225 112.671999 1344.8322772249999 112.23999900000001 1346.848277225 112.23999900000001C1354.048277225 112.23999900000001 1360.096277225 112.38399900000002 1364.272277225 114.68799899999999C1369.888277225 117.855999 1371.616277225 119.87200899999999 1371.616277225 123.61599900000002C1371.616277225 133.983989 1356.3522772249999 139.455999 1343.392277225 139.455999C1338.2082772249998 139.455999 1326.1122772249998 135.279989 1326.1122772249998 125.487999C1326.1122772249998 120.59200900000002 1326.4002772249999 116.99199899999999 1330.576277225 111.951999M1375.504277225 54.78399900000001C1378.240277225 54.78399900000001 1380.8322772249999 52.19199900000001 1380.8322772249999 49.311999C1380.8322772249999 46.287999 1378.096277225 43.98399900000001 1374.2082772249998 43.98399900000001C1370.464277225 43.98399900000001 1363.552277225 46.43200900000001 1359.808277225 51.327999000000005C1358.080277225 50.175999000000004 1353.328277225 47.29599900000001 1344.8322772249999 47.29599900000001C1332.0162772249998 47.29599900000001 1320.2082772249998 55.936009 1320.2082772249998 69.183999C1320.2082772249998 76.95998900000001 1323.664277225 81.42400900000001 1327.696277225 85.31199900000001C1323.664277225 88.767999 1321.360277225 94.96000900000001 1321.360277225 99.855999C1321.360277225 105.039999 1324.240277225 109.071999 1327.984277225 110.94399899999999C1320.2082772249998 115.551999 1316.176277225 122.176009 1316.176277225 128.367999C1316.176277225 140.89598900000001 1327.984277225 144.783999 1339.0722772249999 144.783999C1358.512277225 144.783999 1379.536277225 135.423989 1379.536277225 119.87199900000002C1379.536277225 115.26400900000002 1377.376277225 111.66399900000002 1373.200277225 108.207999C1367.584277225 103.600009 1357.504277225 103.45599899999999 1352.176277225 103.45599899999999C1349.584277225 103.45599899999999 1345.984277225 103.743999 1342.528277225 104.17599900000002C1340.368277225 104.319999 1338.9282772249999 104.463999 1338.2082772249998 104.463999C1334.032277225 104.463999 1328.992277225 102.44799900000001 1328.992277225 96.255999C1328.992277225 93.37599900000001 1329.856277225 90.351999 1331.584277225 87.903999C1335.040277225 89.91999900000002 1339.0722772249999 90.927999 1344.6882772249999 90.927999C1357.360277225 90.927999 1369.0242772249999 83.00798900000001 1369.0242772249999 68.89599900000002C1369.0242772249999 62.12800899999999 1367.008277225 58.23999900000001 1362.8322772249999 53.919999000000004C1363.840277225 52.47999900000001 1366.720277225 50.463999 1368.5922772249999 50.463999C1369.600277225 50.463999 1370.608277225 50.895999 1371.472277225 52.19199900000001C1372.048277225 53.34399900000001 1373.9202772249998 54.78399900000001 1375.504277225 54.78399900000001M1411.816277225 111.951999C1417.432277225 111.951999 1423.336277225 109.071999 1430.392277225 103.31199900000001C1430.9682772249998 102.73599899999999 1432.1202772249999 102.44799900000001 1432.1202772249999 103.45599899999999C1432.1202772249999 106.91199900000001 1433.704277225 111.951999 1433.704277225 111.951999C1434.712277225 112.38399900000002 1435.288277225 112.38399900000002 1436.440277225 111.951999C1439.608277225 109.35999900000002 1445.080277225 107.19999899999999 1453.864277225 106.19199900000001C1454.728277225 105.327999 1454.728277225 103.16799900000001 1453.864277225 102.303999C1444.648277225 101.583999 1443.3522772249999 98.84798900000001 1443.3522772249999 91.791999L1443.3522772249999 64.14399900000001C1443.3522772249999 59.82400900000002 1443.9282772249999 49.455999000000006 1443.9282772249999 49.455999000000006C1443.9282772249999 48.879999 1443.4962772249999 48.44799900000001 1442.776277225 48.44799900000001C1442.056277225 48.591999 1439.896277225 48.73599900000001 1437.7362772249999 48.73599900000001C1433.128277225 48.73599900000001 1428.376277225 48.591999 1423.048277225 48.44799900000001C1422.184277225 49.311999 1422.184277225 52.335999 1423.048277225 53.199999000000005C1430.104277225 53.63199900000001 1431.9762772249999 55.360009000000005 1431.9762772249999 64.863999L1431.9762772249999 92.65599900000001C1431.9762772249999 95.391999 1431.6882772249999 96.54399900000001 1429.672277225 98.271999C1424.344277225 102.879999 1419.7362772249999 105.183999 1416.136277225 105.183999C1411.816277225 105.183999 1404.616277225 103.167989 1404.616277225 90.351999L1404.616277225 64.14399900000001C1404.616277225 59.82400900000002 1405.192277225 49.455999000000006 1405.192277225 49.455999000000006C1405.192277225 48.879999 1404.760277225 48.44799900000001 1404.040277225 48.44799900000001C1403.320277225 48.591999 1401.1602772249998 48.73599900000001 1399.000277225 48.73599900000001C1394.392277225 48.73599900000001 1389.6402772249999 48.591999 1384.312277225 48.44799900000001C1383.4482772249999 49.311999 1383.4482772249999 52.335999 1384.312277225 53.199999000000005C1391.224277225 53.775999 1393.240277225 55.360009000000005 1393.240277225 64.719999L1393.240277225 92.367999C1393.240277225 102.303989 1397.560277225 111.951999 1411.816277225 111.951999M1479.720477225 58.95999900000001C1479.288477225 59.535999000000004 1478.280477225 60.975999 1478.280477225 58.95999900000001C1478.280477225 54.640009000000006 1479.000477225 48.01599900000001 1479.000477225 48.01599900000001C1479.000477225 47.29599900000001 1478.424477225 46.86399900000001 1477.2724772249999 46.86399900000001C1473.240477225 48.44799900000001 1467.336477225 49.743999 1457.400477225 51.03999900000001C1457.112477225 51.903999 1457.400477225 54.207999 1457.688477225 55.071999000000005C1465.4644772249999 55.791999000000004 1467.048477225 56.512009000000006 1467.048477225 64.863999L1467.048477225 92.94399899999999C1467.048477225 104.75198900000001 1465.608477225 105.327999 1456.968477225 106.047999C1456.104477225 106.91199900000001 1456.104477225 109.93599900000001 1456.968477225 110.79999900000001C1462.872477225 110.65599900000001 1466.616477225 110.511999 1472.808477225 110.511999C1478.424477225 110.511999 1481.016477225 110.65599900000001 1487.064477225 110.79999900000001C1487.928477225 109.93599900000001 1487.928477225 106.91199900000001 1487.064477225 106.047999C1479.720477225 105.327999 1478.424477225 104.75198900000001 1478.424477225 92.94399899999999L1478.424477225 69.327999C1478.424477225 66.303999 1479.720477225 64.575999 1480.872477225 63.279999000000004C1486.344477225 57.952009000000004 1491.960477225 54.78399900000001 1497.576477225 54.78399900000001C1500.4564772249998 54.78399900000001 1503.480477225 56.65599900000001 1505.208477225 59.96799899999999C1506.6484772249999 62.847999000000016 1506.9364772249999 66.736009 1506.9364772249999 71.05599900000001L1506.9364772249999 92.94399899999999C1506.9364772249999 104.75198900000001 1505.496477225 105.327999 1498.008477225 106.047999C1497.288477225 106.91199900000001 1497.288477225 109.93599900000001 1498.008477225 110.79999900000001C1504.056477225 110.65599900000001 1506.9364772249999 110.511999 1512.6964772249999 110.511999C1518.6004772249998 110.511999 1521.768477225 110.65599900000001 1527.960477225 110.79999900000001C1528.680477225 109.93599900000001 1528.680477225 106.91199900000001 1527.960477225 106.047999C1519.896477225 105.327999 1518.3124772249998 104.75198900000001 1518.3124772249998 92.94399899999999L1518.3124772249998 71.487999C1518.3124772249998 63.56800900000002 1517.736477225 56.65599900000001 1514.424477225 52.19199900000001C1511.976477225 49.023999 1507.5124772249999 47.29599900000001 1502.472477225 47.29599900000001C1495.4164772249999 47.29599900000001 1488.5044772249998 49.168009 1479.720477225 58.95999900000001M1558.534977225 111.951999C1564.150977225 111.951999 1570.054977225 109.071999 1577.110977225 103.31199900000001C1577.686977225 102.73599899999999 1578.838977225 102.44799900000001 1578.838977225 103.45599899999999C1578.838977225 106.91199900000001 1580.4229772249998 111.951999 1580.4229772249998 111.951999C1581.4309772249999 112.38399900000002 1582.006977225 112.38399900000002 1583.158977225 111.951999C1586.3269772249998 109.35999900000002 1591.798977225 107.19999899999999 1600.582977225 106.19199900000001C1601.446977225 105.327999 1601.446977225 103.16799900000001 1600.582977225 102.303999C1591.366977225 101.583999 1590.070977225 98.84798900000001 1590.070977225 91.791999L1590.070977225 64.14399900000001C1590.070977225 59.82400900000002 1590.646977225 49.455999000000006 1590.646977225 49.455999000000006C1590.646977225 48.879999 1590.214977225 48.44799900000001 1589.494977225 48.44799900000001C1588.774977225 48.591999 1586.6149772249998 48.73599900000001 1584.454977225 48.73599900000001C1579.846977225 48.73599900000001 1575.0949772249999 48.591999 1569.766977225 48.44799900000001C1568.9029772249999 49.311999 1568.9029772249999 52.335999 1569.766977225 53.199999000000005C1576.822977225 53.63199900000001 1578.694977225 55.360009000000005 1578.694977225 64.863999L1578.694977225 92.65599900000001C1578.694977225 95.391999 1578.406977225 96.54399900000001 1576.390977225 98.271999C1571.062977225 102.879999 1566.454977225 105.183999 1562.8549772249999 105.183999C1558.534977225 105.183999 1551.3349772249999 103.167989 1551.3349772249999 90.351999L1551.3349772249999 64.14399900000001C1551.3349772249999 59.82400900000002 1551.910977225 49.455999000000006 1551.910977225 49.455999000000006C1551.910977225 48.879999 1551.4789772249999 48.44799900000001 1550.7589772249999 48.44799900000001C1550.038977225 48.591999 1547.878977225 48.73599900000001 1545.718977225 48.73599900000001C1541.110977225 48.73599900000001 1536.358977225 48.591999 1531.030977225 48.44799900000001C1530.166977225 49.311999 1530.166977225 52.335999 1531.030977225 53.199999000000005C1537.942977225 53.775999 1539.958977225 55.360009000000005 1539.958977225 64.719999L1539.958977225 92.367999C1539.958977225 102.303989 1544.278977225 111.951999 1558.534977225 111.951999M1612.327277225 92.94399899999999C1612.327277225 104.89598900000001 1610.743277225 105.47199900000001 1602.6792772249999 106.047999C1601.815277225 106.91199900000001 1601.815277225 109.93599900000001 1602.6792772249999 110.79999900000001C1608.7272772249999 110.65599900000001 1612.039277225 110.511999 1618.087277225 110.511999C1623.127277225 110.511999 1624.999277225 110.65599900000001 1631.191277225 110.79999900000001C1632.055277225 109.93599900000001 1632.055277225 106.91199900000001 1631.191277225 106.047999C1625.287277225 105.47199900000001 1623.703277225 104.89598900000001 1623.703277225 92.94399899999999L1623.703277225 79.98399900000001C1627.0152772249999 80.12799900000002 1629.031277225 81.136009 1631.911277225 85.16799900000001L1642.423277225 99.999999C1645.3032772249999 104.17599900000002 1645.735277225 105.903999 1645.735277225 107.77599900000001L1645.735277225 110.07999900000002C1645.735277225 110.511999 1645.879277225 110.79999900000001 1646.311277225 110.79999900000001C1649.191277225 110.65599900000001 1651.927277225 110.511999 1656.247277225 110.511999C1660.711277225 110.511999 1663.735277225 110.65599900000001 1668.055277225 110.79999900000001C1668.9192772249999 109.93599900000001 1668.9192772249999 106.91199900000001 1668.055277225 106.047999C1663.1592772249999 105.47199900000001 1658.839277225 104.89599900000002 1655.671277225 99.999999L1638.8232772249999 75.087999C1638.3912772249998 74.511999 1638.103277225 73.791999 1638.103277225 73.071999C1638.103277225 72.49599900000001 1638.247277225 72.063999 1638.6792772249999 71.63199900000001L1649.623277225 59.535999000000004C1653.799277225 55.216009 1658.263277225 53.487999 1665.463277225 53.199999000000005C1666.327277225 52.335999 1666.327277225 49.311999 1665.463277225 48.44799900000001C1660.135277225 48.591999 1658.119277225 48.73599900000001 1652.935277225 48.73599900000001C1647.463277225 48.73599900000001 1645.0152772249999 48.591999 1639.687277225 48.44799900000001C1638.8232772249999 49.311999 1638.8232772249999 52.335999 1639.687277225 53.199999000000005C1648.327277225 53.63199900000001 1643.719277225 59.103999000000016 1642.279277225 60.543999000000014C1634.647277225 68.89598900000001 1627.4472772249999 75.231999 1623.703277225 76.38399900000002L1623.703277225 26.560000000000002C1623.703277225 17.200010000000006 1624.279277225 11.439999999999998 1624.279277225 11.439999999999998C1624.279277225 10.432001 1623.703277225 10 1622.407277225 10C1618.807277225 11.439999 1608.007277225 13.456001 1602.247277225 13.888000000000005C1601.959277225 15.039999000000009 1602.247277225 17.344001000000006 1603.1112772249999 18.208C1610.599277225 18.64 1612.327277225 17.92001300000001 1612.327277225 30.015999000000008L1612.327277225 92.94399899999999M1707.760277225 76.95999900000001L1707.760277225 96.111999C1707.760277225 97.98399900000001 1706.896277225 98.99199899999999 1705.744277225 99.855999C1702.000277225 102.879999 1697.104277225 106.047999 1693.0722772249999 106.047999C1685.872277225 106.047999 1682.704277225 100.28799900000001 1682.704277225 95.82399900000001C1682.704277225 89.344009 1685.728277225 82.863999 1696.384277225 79.98399900000001L1707.760277225 76.95999900000001M1707.760277225 103.599999C1708.624277225 106.623999 1711.0722772249999 111.951999 1718.848277225 111.951999C1725.904277225 111.951999 1731.088277225 106.19199900000001 1731.088277225 105.47199900000001C1731.088277225 104.463999 1729.792277225 103.023999 1729.2162772249999 103.023999C1728.3522772249999 103.023999 1727.776277225 105.327999 1724.752277225 105.327999C1719.136277225 105.327999 1718.992277225 99.71198900000002 1718.992277225 93.087999L1718.992277225 71.63199900000001C1718.992277225 51.184019000000006 1707.760277225 47.29599900000001 1697.248277225 47.29599900000001C1685.440277225 47.29599900000001 1673.488277225 55.50400900000001 1673.488277225 63.279999000000004C1673.488277225 66.73599899999999 1675.2162772249999 68.319999 1678.528277225 68.319999C1682.704277225 68.319999 1684.864277225 65.439999 1684.864277225 63.567999000000015C1684.864277225 62.559999000000005 1684.720277225 61.551998999999995 1684.432277225 60.975999C1684.288277225 60.543999000000014 1684.144277225 59.67999900000001 1684.144277225 58.095999000000006C1684.144277225 53.63200900000001 1690.624277225 52.047999000000004 1696.096277225 52.047999000000004C1700.992277225 52.047999000000004 1707.760277225 54.496019000000004 1707.760277225 70.767999C1707.760277225 71.77599900000001 1707.328277225 72.351999 1706.896277225 72.49599900000001L1694.512277225 75.51999900000001C1680.6882772249999 78.975999 1670.752277225 86.60800900000001 1670.752277225 96.39999900000001C1670.752277225 107.77598900000001 1678.816277225 111.951999 1688.896277225 111.951999C1695.520277225 111.951999 1698.2562772249998 110.79999900000001 1704.5922772249999 105.903999L1707.472277225 103.599999L1707.760277225 103.599999 " id="tagline" style="font-size:144px;font-style:normal;font-variant:normal;font-weight:normal;font-stretch:normal;letter-spacing:-3;word-spacing:-7;fill:#000000;fill-opacity:1;stroke:none;stroke-width:1px;stroke-linecap:butt;stroke-linejoin:miter;stroke-opacity:1;font-family:Linux Libertine O;-inkscape-font-specification:Linux Libertine O"></path>
</svg>