<?xml version="1.0" encoding="UTF-8" standalone="no"?>
<svg
	xmlns="http://www.w3.org/2000/svg"
	xmlns:dc="http://purl.org/dc/elements/1.1/"
	xmlns:cc="http://creativecommons.org/ns#"
	xmlns:rdf="http://www.w3.org/1999/02/22-rdf-syntax-ns#"
	xmlns:svg="http://www.w3.org/2000/svg"
	xmlns:xlink="http://www.w3.org/1999/xlink"
	xmlns:sodipodi="http://sodipodi.sourceforge.net/DTD/sodipodi-0.dtd"
	xmlns:inkscape="http://www.inkscape.org/namespaces/inkscape"
	version="1.1"
	viewBox="0 0 853.765624 190.789063">
	<path transform="matrix(8.3442251e-2,0,0,8.3442251e-2,34.519547,137.63921)" d="M804.460934 32.851562L799.328124 29.124999999999996C793.8437339999999 35.546879000000004 789.343744 38.757813999999996 785.828124 38.757812C785.124994 38.757813999999996 783.578124 38.312501 781.187504 37.421875C783.390624 36.062504000000004 785.617184 34.51563 787.867184 32.78125C790.164054 31.046883999999995 792.5781139999999 29.054698 795.109374 26.804686999999998C793.1874839999999 24.648453 792.226554 22.937516999999996 792.2265639999999 21.671874999999996C792.226554 20.593768999999998 792.414054 19.445333 792.7890639999999 18.226561999999998C793.164044 16.960959999999996 793.7031139999999 15.718774 794.406254 14.499999999999996C795.1093639999999 13.234402 795.929674 12.179714999999998 796.867184 11.335936999999998C797.804674 10.445342 798.835914 10.000029999999999 799.960934 10C802.960914 10.000029999999999 804.460914 12.062527999999997 804.460934 16.187499999999996C804.460914 18.765646 803.781224 21.390643 802.421874 24.062499999999996C802.749974 24.203141 803.148414 24.48439 803.617184 24.906249999999996C804.085914 25.281263999999997 804.554664 25.750013999999997 805.023434 26.312499999999996L804.460934 32.851562M799.890624 20.265624999999996C799.8906039999999 19.890644999999996 799.7968539999999 19.539083 799.609374 19.210936999999998C799.4687339999999 18.882833 799.304664 18.625021 799.117184 18.437499999999996C798.976544 18.203146999999998 798.7187339999999 18.015646999999998 798.343754 17.874999999999996C798.0156039999999 17.687521999999998 797.6406039999999 17.593771999999998 797.218754 17.593749999999996C796.7031039999999 17.593771999999998 796.445294 17.828146999999998 796.4453139999999 18.296874999999996C796.445294 19.421894999999996 797.476544 20.617206999999997 799.5390639999999 21.882811999999998C799.773414 21.554706 799.8906039999999 21.226581 799.890624 20.898436999999998C799.8906039999999 20.570331999999997 799.8906039999999 20.359393999999998 799.890624 20.265624999999996M780.203124 124.82031300000001C785.593744 124.35157300000002 790.445304 122.453143 794.7578139999999 119.125003C793.960924 116.96877300000001 791.382794 112.867213 787.023434 106.82031300000001C783.039054 101.28909300000001 780.437494 96.742223 779.218754 93.179683C779.312494 89.242233 780.6953139999999 84.789113 783.367184 79.820313C786.460924 73.257875 788.335924 68.921942 788.992184 66.8125C795.132794 65.359446 804.414034 61.726637 816.835934 55.914062C830.335884 49.77352400000001 838.7968139999999 44.804778999999996 842.218754 41.007812C843.2499339999999 41.007908 843.765554 41.570407 843.765624 42.695312C843.765554 44.10165500000001 842.8280639999999 46.65634 840.953124 50.359375L837.367184 57.53125C831.320254 61.046949999999995 826.257764 63.74226 822.179684 65.617187C816.8358939999999 68.336005 805.257784 73.49225 787.4453139999999 81.085933C789.601554 88.492233 792.9062339999999 95.031293 797.359374 100.703123C804.249974 109.703153 808.820284 115.00002300000001 811.0703139999999 116.593753C810.9296539999999 118.421893 810.414034 122.00782300000002 809.523434 127.35156300000001C802.257784 131.476563 795.179674 134.523443 788.2890639999999 136.49218299999998L777.6015639999999 136.49218299999998L777.6015639999999 124.82031300000001L780.203124 124.82031300000001M775.984374 136.49218299999998C774.109344 136.49218299999998 772.492164 136.67968299999998 771.1328139999999 137.05468299999998C771.132784 138.414063 769.843724 140.80468299999998 767.265624 144.226563L761.5703139999999 152.101563C755.007804 151.77342299999998 751.1406139999999 151.39842299999998 749.968754 150.976563C747.343744 149.80467299999998 746.031244 146.757803 746.031254 141.83593299999998C746.031244 140.42968299999998 746.1953139999999 138.64843299999998 746.523434 136.49218299999998L744.4140639999999 136.49218299999998L744.4140639999999 124.82031300000001L746.9453139999999 124.82031300000001C747.554684 120.32033299999999 747.882804 118.07033299999999 747.929684 118.07031300000001L749.968754 111.742183C750.5781139999999 109.960963 751.445304 107.664093 752.5703139999999 104.851563C753.414054 103.25784300000001 755.289054 99.179723 758.1953139999999 92.617183C764.992164 97.726603 768.976534 103.750033 770.148434 110.687503C771.601534 120.34376300000001 773.265594 125.054703 775.140624 124.82031300000001C775.421844 124.82032300000002 776.171844 124.82032300000002 777.390624 124.82031300000001L778.7265639999999 124.82031300000001L778.7265639999999 136.49218299999998L775.984374 136.49218299999998M757.9140639999999 123.13281300000001C760.914044 124.773453 762.414044 125.10157300000002 762.4140639999999 124.117183C762.414044 116.00783299999999 761.617174 111.671903 760.023434 111.10937299999999L757.9140639999999 123.13281300000001M761.5703139999999 141.414063C761.945294 140.007813 760.914044 138.46093299999998 758.4765639999999 136.77343299999998C756.179674 135.179693 754.4218639999999 134.500003 753.203124 134.73437299999998C752.499994 135.437503 752.148434 136.14062299999998 752.148434 136.843753C752.148434 138.29687299999998 753.085924 139.468743 754.960934 140.35937299999998C756.835924 141.249993 759.039044 141.601553 761.5703139999999 141.414063M720.929684 115.89062299999999C723.695264 109.00002300000001 725.078074 98.968783 725.078124 85.796873C725.078074 75.390686 722.828074 64.445384 718.328124 52.960937C718.187454 52.539146 718.1171439999999 52.140709 718.117184 51.765625C718.1171439999999 50.125085999999996 719.523384 45.578216 722.335934 38.125C723.882754 38.921972 725.453074 40.304783 727.046874 42.273437C727.1874439999999 43.117281000000006 728.2186939999999 48.64852500000001 730.140624 58.867187C731.5936839999999 66.882882 732.273374 72.671938 732.179684 76.234375C731.851504 86.03130300000001 731.664004 91.257853 731.617184 91.914063C731.101504 95.710973 731.851504 101.406283 733.867184 109.000003C733.867124 111.484403 735.2499339999999 114.43752300000001 738.015624 117.85937299999999C740.546804 121.00001300000001 743.007744 123.32032300000002 745.398434 124.82031300000001L748.492184 124.82031300000001L748.492184 136.49218299999998L745.679684 136.49218299999998C734.757744 136.49218299999998 728.945254 129.179693 728.242184 114.554683C726.976504 125.19532300000002 722.265574 134.875003 714.109374 143.593753C708.531214 149.546863 700.046844 156.132793 688.656254 163.351563C688.4687339999999 158.570293 689.429664 153.390603 691.5390639999999 147.812503C702.132784 140.64062299999998 709.468714 134.054693 713.546874 128.05468299999998C717.015574 123.742203 719.476514 119.68751300000001 720.929684 115.89062299999999M718.609374 130.164063C717.578074 130.117193 713.921834 126.554693 707.640624 119.47656300000001C705.390594 116.804703 703.281214 114.203143 701.312504 111.67187299999999C698.734344 108.484403 695.5468539999999 102.812533 691.750004 94.656253C687.7187339999999 86.265673 685.304674 80.12505300000001 684.5078139999999 76.234375C683.195304 73.046938 681.835924 70.726628 680.429684 69.273437C678.882804 67.586006 676.539054 66.179757 673.398434 65.054687C673.5390639999999 59.898514000000006 674.687494 54.69539400000001 676.843754 49.445312C685.2812339999999 51.601647 690.742164 57.461016 693.2265639999999 67.023437C696.976534 82.117243 703.539034 94.632853 712.9140639999999 104.570313C715.914014 109.257843 718.5858939999999 113.03127300000001 720.929684 115.89062299999999L718.609374 130.164063M607.585934 38.898437C610.539044 42.27353099999999 612.1562339999999 48.55477500000001 612.437504 57.742187C612.4374839999999 58.492265 612.2968539999999 64.586009 612.015624 76.023437C611.8281039999999 88.726613 611.757794 95.195353 611.804684 95.429683C611.148424 115.72658299999999 611.382794 126.671883 612.5078139999999 128.26562299999998L602.804684 136.843753C600.320304 135.01562299999998 599.171874 128.757823 599.359374 118.07031300000001C599.453124 114.742213 599.734374 106.63284300000001 600.203124 93.742183C600.531244 84.507863 600.742184 75.835998 600.835934 67.726562C601.210934 59.242264000000006 600.320304 53.125083000000004 598.1640639999999 49.375C602.101554 44.921966 605.242174 41.429782 607.585934 38.898437M571.093754 136.49218299999998L562.7265639999999 136.49218299999998L562.7265639999999 124.82031300000001L571.515624 124.82031300000001C573.4843639999999 124.82032300000002 575.945304 123.32032300000002 578.898434 120.32031300000001C577.351544 117.929703 576.5781139999999 116.47658299999999 576.578124 115.960933C576.5781139999999 110.148463 577.8437339999999 105.88284300000001 580.375004 103.164063C581.7343539999999 103.07034300000001 582.4374839999999 103.117223 582.484374 103.304683C583.7031039999999 107.101593 586.210914 111.69533299999999 590.0078139999999 117.085933C586.632784 130.023443 580.3281039999999 136.49218299999998 571.093754 136.49218299999998M576.085934 69.835937C576.085924 69.836004 578.9687339999999 72.742251 584.734374 78.554687L575.734374 87.976563L567.578124 79.328123L576.085934 69.835937M520.8203139999999 114.97656300000001C522.2733939999999 114.97658299999999 522.999954 115.07033299999999 523.000004 115.25781300000001C523.281204 116.992203 523.5858939999999 118.046893 523.9140639999999 118.42187299999999C527.007764 123.109393 532.070254 125.00782300000002 539.1015639999999 124.117183C542.101494 124.210953 544.726494 122.68751300000001 546.9765639999999 119.54687299999999L552.742184 112.867183L554.8515639999999 120.179683L560.054684 124.82031300000001L563.710934 124.82031300000001L563.710934 136.49218299999998L560.125004 136.49218299999998C558.062414 136.49218299999998 556.0702339999999 135.648443 554.148434 133.96093299999998L548.171874 128.33593299999998C546.859304 134.054693 543.203054 136.914063 537.203124 136.914063C532.937444 136.914063 527.499954 134.781253 520.890624 130.51562299999998C520.468704 131.92188299999998 518.476524 133.468753 514.9140639999999 135.156253C512.289024 136.51562299999998 509.453094 137.195313 506.40625400000005 137.195313C502.468724 137.195313 498.859354 136.02343299999998 495.578124 133.67968299999998C494.03123400000004 135.74218299999998 491.49998400000004 136.79687299999998 487.984374 136.843753C486.062494 136.843753 484.890614 136.843753 484.46875400000005 136.843753L481.445314 136.49218299999998L476.945314 136.49218299999998L476.945314 124.82031300000001L481.515624 124.82031300000001C485.406244 125.47657300000002 487.632804 125.47657300000002 488.195314 124.82031300000001C491.33592400000003 121.82032300000002 493.39842400000003 118.28126300000001 494.382814 114.20312299999999C495.88279400000005 121.515643 500.710914 125.171883 508.867184 125.17187299999999C512.617154 125.171883 515.242154 124.234383 516.742184 122.35937299999999C518.289024 120.43751300000001 519.6483939999999 117.97658299999999 520.8203139999999 114.97656300000001M477.648434 124.82031300000001L477.648434 136.49218299999998L475.609374 136.49218299999998C467.87498400000004 136.49218299999998 462.81248400000004 135.39062299999998 460.421874 133.187503C455.921864 128.82813299999998 453.671874 122.50001300000001 453.671874 114.20312299999999C453.671874 110.78127300000001 453.671874 104.781283 453.671874 96.203123C453.671874 87.62505300000001 453.671874 80.96880300000001 453.671874 76.234375C453.671874 58.562578 453.062494 48.22665000000001 451.84375400000005 45.226562L462.460934 37.421875C464.33592400000003 42.156344000000004 465.484364 49.35164900000001 465.90625400000005 59.007812C466.609354 68.711005 466.74998400000004 75.742248 466.328124 80.101563C466.046854 84.460993 465.92967400000003 91.210983 465.976564 100.351563C466.21092400000003 110.992213 466.74998400000004 117.32033299999999 467.59375400000005 119.335933C468.62498400000004 121.960953 469.63279400000005 123.43751300000001 470.617184 123.76562299999999C473.054664 124.46876300000001 474.718724 124.82032300000002 475.609374 124.82031300000001L477.648434 124.82031300000001M439.046874 66.25L437.429684 72.859375L427.93750400000005 78.34375L432.15625400000005 79.328123L435.179684 79.328123L438.90625400000005 78.976563L443.054684 77.992187L448.539064 76.09375L447.06250400000005 80.875003L445.304684 82.632813L436.796874 87.203123L417.601564 99.156253L419.289064 92.476563L427.93750400000005 86.007813L424.56250400000005 85.304683L422.664064 83.968753L424.210934 75.53125L430.679684 70.539062L439.046874 66.25M425.96875400000005 136.49218299999998L417.601564 136.49218299999998L417.601564 124.82031300000001L426.390624 124.82031300000001C428.359364 124.82032300000002 430.820304 123.32032300000002 433.773434 120.32031300000001C432.22654400000005 117.929703 431.453114 116.47658299999999 431.453124 115.960933C431.453114 110.148463 432.71873400000004 105.88284300000001 435.25000400000005 103.164063C436.609354 103.07034300000001 437.31248400000004 103.117223 437.359374 103.304683C438.578104 107.101593 441.085914 111.69533299999999 444.882814 117.085933C441.507784 130.023443 435.203104 136.49218299999998 425.96875400000005 136.49218299999998M396.859374 108.085933C401.640604 107.382843 404.124974 107.546903 404.31250400000005 108.57812299999999C405.109354 111.81252300000001 406.210914 115.234393 407.617184 118.843753C409.070284 122.453143 410.499974 124.44532300000002 411.90625400000005 124.82031300000001L418.65625400000005 124.82031300000001L418.65625400000005 136.49218299999998L412.328124 136.49218299999998C411.765594 136.49218299999998 410.289034 135.906253 407.898434 134.73437299999998C404.429664 132.906253 402.249974 131.054693 401.359374 129.17968299999998L400.164064 130.51562299999998C399.97654400000005 131.406253 398.68748400000004 132.695313 396.296874 134.382813C394.18748400000004 135.789063 393.039054 136.49218299999998 392.851564 136.49218299999998L380.757814 136.49218299999998L380.757814 124.82031300000001L389.476564 124.82031300000001C390.601554 124.82032300000002 393.06248400000004 119.242203 396.859374 108.085933M408.671874 145.070313C408.671844 145.070303 411.554654 147.976553 417.320314 153.789063L408.320314 163.21093299999998L400.164064 154.562503L408.671874 145.070313M389.68750400000005 145.000003C389.687494 144.999993 392.570304 147.906243 398.335934 153.718753L389.335934 163.14062299999998L381.179684 154.49218299999998L389.68750400000005 145.000003M342.929684 127.35156300000001C335.664034 131.476563 328.58592400000003 134.523443 321.695314 136.49218299999998L311.007814 136.49218299999998L311.007814 124.82031300000001L313.609374 124.82031300000001C319.656244 124.35157300000002 324.671864 122.453143 328.65625400000005 119.125003C327.953104 116.96877300000001 325.39842400000003 112.867213 320.992184 106.82031300000001C316.960934 101.28909300000001 314.335934 96.742223 313.117184 93.179683C313.398434 89.242233 314.828124 84.789113 317.40625400000005 79.820313C320.499994 73.257875 322.39842400000003 68.921942 323.101564 66.8125C329.14842400000003 65.359446 338.359344 61.726637 350.734374 55.914062C364.281194 49.77352400000001 372.83587400000005 44.804778999999996 376.398434 41.007812C377.33587400000005 41.007908 377.80462400000005 41.570407 377.804684 42.695312C377.80462400000005 44.10165500000001 376.86712400000005 46.65634 374.992184 50.359375L371.40625400000005 57.53125C365.359324 61.046949999999995 360.367134 63.74226 356.429684 65.617187C350.898394 68.336005 339.226534 73.49225 321.414064 81.085933C322.96092400000003 86.710983 326.359364 93.250043 331.609374 100.703123C336.812474 108.859403 341.007784 114.32033299999999 344.195314 117.085933C350.148394 122.242203 357.765574 124.82032300000002 367.046874 124.82031300000001L382.37500400000005 124.82031300000001L382.37500400000005 136.49218299999998L367.046874 136.49218299999998C363.484324 136.49218299999998 358.281204 135.554693 351.43750400000005 133.67968299999998C348.39058400000005 132.929693 345.554654 130.820313 342.929684 127.35156300000001M297.507814 122.00781300000001C297.648414 123.88282300000002 300.249974 124.82032300000002 305.31250400000005 124.82031300000001L311.78125400000005 124.82031300000001L311.78125400000005 136.49218299999998L305.382814 136.49218299999998C303.179664 136.49218299999998 300.249974 133.562503 296.59375400000005 127.70312299999999C297.203104 128.54688299999998 295.74998400000004 130.304693 292.234374 132.976563C290.03123400000004 134.710943 287.124994 135.882813 283.515624 136.49218299999998L276.695314 136.49218299999998L276.695314 124.82031300000001L283.726564 124.82031300000001C285.132804 124.82032300000002 286.67967400000003 123.953133 288.367184 122.218753C288.83592400000003 121.796893 289.070304 111.929713 289.070314 92.617183C289.070304 70.961003 287.101554 57.226641 283.164064 51.414062C286.914054 44.664153999999996 289.515614 39.086034999999995 290.96875400000005 34.679687C295.46873400000004 37.63291099999999 298.35154400000005 41.711032 299.617184 46.914062C300.414034 49.58602400000001 300.812474 53.851645000000005 300.81250400000005 59.710937C300.812474 64.679759 300.085914 72.34381400000001 298.632814 82.703123C297.179664 93.062543 296.453104 101.28909300000001 296.453124 107.38281300000001C296.453104 112.16408299999999 296.804664 117.03908299999999 297.507814 122.00781300000001M278.523434 124.82031300000001L278.523434 136.49218299999998L275.078124 136.49218299999998C271.187444 136.49218299999998 268.374944 135.625003 266.640624 133.89062299999998C266.499944 139.093743 266.10150400000003 142.445303 265.445314 143.945313C263.664014 148.820303 255.789014 156.27341299999998 241.820314 166.30468299999998C230.242174 174.648403 221.382804 179.476523 215.242184 180.789063C215.242184 178.070273 215.921874 174.460903 217.281254 169.96093299999998C220.140614 168.929653 227.148424 164.96872299999998 238.304684 158.07812299999998C238.773414 157.796853 243.929654 153.74217299999998 253.773434 145.914063C257.570264 142.96093299999998 259.351514 139.51562299999998 259.117184 135.57812299999998L242.382814 139.79687299999998C241.773404 138.062503 241.468724 135.648443 241.468754 132.55468299999998C241.468724 125.992193 242.546844 119.75783299999999 244.703124 113.85156300000001C247.281214 107.195343 250.35152399999998 103.867223 253.914064 103.867183C258.039014 103.867223 262.328074 109.164093 266.781254 119.75781300000001C268.421814 123.13282300000002 271.187444 124.82032300000002 275.078124 124.82031300000001L278.523434 124.82031300000001M247.445314 128.33593299999998C252.78902399999998 127.492193 255.249954 126.671883 254.828124 125.875003C252.390584 121.609393 250.63277399999998 119.12501300000001 249.554684 118.42187299999999L247.445314 128.33593299999998M180.718754 136.49218299999998L172.351564 136.49218299999998L172.351564 124.82031300000001L181.140624 124.82031300000001C183.109364 124.82032300000002 185.570304 123.32032300000002 188.523434 120.32031300000001C186.976544 117.929703 186.203114 116.47658299999999 186.203124 115.960933C186.203114 110.148463 187.46873399999998 105.88284300000001 190.000004 103.164063C191.359354 103.07034300000001 192.06248399999998 103.117223 192.109374 103.304683C193.328104 107.101593 195.835914 111.69533299999999 199.632814 117.085933C196.257784 130.023443 189.953104 136.49218299999998 180.718754 136.49218299999998M190.914064 158.218753C190.914044 158.21872299999998 193.796854 161.12497299999998 199.562504 166.937503L190.562504 176.35937299999998L182.406254 167.71093299999998L190.914064 158.218753M200.546874 142.60937299999998C200.546844 142.60937299999998 203.429654 145.515613 209.195314 151.32812299999998L200.195314 160.750003L192.039064 152.101563L200.546874 142.60937299999998M181.562504 142.539063C181.562494 142.539053 184.445304 145.445303 190.210934 151.257813L181.210934 160.67968299999998L173.054684 152.031253L181.562504 142.539063M151.609374 108.085933C156.390604 107.382843 158.874974 107.546903 159.062504 108.57812299999999C159.859354 111.81252300000001 160.960914 115.234393 162.367184 118.843753C163.820284 122.453143 165.249974 124.44532300000002 166.656254 124.82031300000001L173.406254 124.82031300000001L173.406254 136.49218299999998L167.078124 136.49218299999998C166.515594 136.49218299999998 165.039034 135.906253 162.648434 134.73437299999998C159.179664 132.906253 156.999974 131.054693 156.109374 129.17968299999998L154.914064 130.51562299999998C154.726544 131.406253 153.437484 132.695313 151.046874 134.382813C148.937484 135.789063 147.789054 136.49218299999998 147.601564 136.49218299999998L135.507814 136.49218299999998L135.507814 124.82031300000001L144.226564 124.82031300000001C145.351554 124.82032300000002 147.812484 119.242203 151.609374 108.085933M163.421874 145.070313C163.421844 145.070303 166.304654 147.976553 172.070314 153.789063L163.070314 163.21093299999998L154.914064 154.562503L163.421874 145.070313M144.437504 145.000003C144.43749400000002 144.999993 147.320304 147.906243 153.085934 153.718753L144.085934 163.14062299999998L135.929684 154.49218299999998L144.437504 145.000003M106.539062 23.992186999999998L106.75 23.992186999999998C108.999963 26.476671999999997 110.124962 29.687606 110.125 33.625C110.124962 34.656352 110.054649 36.179787000000005 109.914062 38.195312C109.7734 40.164158 109.703087 41.593845 109.703125 42.484375C109.703087 45.062591 110.007774 47.312589 110.617187 49.234375C112.07027199999999 48.109463000000005 113.78120799999999 46.492277 115.75 44.382812C116.82808 43.35165500000001 117.695267 42.836031000000006 118.351562 42.835937C118.72651599999999 42.836031000000006 121.398388 44.242278999999996 126.367187 47.054687C125.195259 52.445396 121.609325 55.867267999999996 115.609375 57.320312C113.73433299999999 58.023516 110.242149 58.773515 105.132812 59.570312C97.820287 58.070391 94.16404 56.40633 94.164062 54.578125C94.16404 54.437582000000006 94.187478 54.32039400000001 94.234375 54.226562C94.843727 54.41414400000001 97.773412 54.50789400000001 103.023437 54.507812C103.679656 53.992270000000005 104.00778 51.976647 104.007812 48.460937C104.00778 44.664153999999996 103.984343 40.914158 103.9375 37.210937C103.937468 33.46104 103.632781 31.117293 103.023437 30.179686999999998C106.445278 27.601671 107.61715199999999 25.539173 106.539062 23.992186999999998M115.609375 49.023437C113.78120799999999 51.320397 112.42183399999999 53.007896 111.53125 54.085937C114.812457 53.289145000000005 117.273392 52.398521 118.914062 51.414062C117.92964099999999 50.429773 116.82808 49.63289900000001 115.609375 49.023437M110.6875 69.976562C111.765585 69.882879 113.24214599999999 72.836001 115.117187 78.835933C116.898392 84.742243 119.31245299999999 94.984413 122.359375 109.562503C124.70307199999999 117.015643 127.937444 122.10157300000002 132.062504 124.82031300000001L138.390624 124.82031300000001L138.390624 136.49218299999998L132.132814 136.49218299999998C128.195256 136.49218299999998 124.82025999999999 134.500003 122.007812 130.51562299999998C120.835889 128.92188299999998 119.12495299999999 125.47657300000002 116.875 120.179683C113.03120899999999 127.585943 109.960899 131.500003 107.664062 131.92187299999998C105.460904 132.39063299999998 99.203098 134.289063 88.890625 137.61718299999998C83.406238 139.21093299999998 79.140618 141.76562299999998 76.09375 145.281253C75.343747 144.437493 74.968747 143.24218299999998 74.96875 141.695313C74.968747 140.570313 75.203122 138.976563 75.671875 136.914063C76.328121 134.429693 76.70312 132.789063 76.796875 131.99218299999998C82.468739 127.210943 88.093734 124.46876300000001 93.671875 123.76562299999999C104.171843 122.12501300000001 110.945273 120.015643 113.992187 117.437503C114.22652 109.93752300000001 111.132773 98.125043 104.710937 82.000003L110.6875 69.976562M43.46875 136.49218299999998L35.1015624 136.49218299999998L35.1015624 124.82031300000001L43.890625 124.82031300000001C45.859364 124.82032300000002 48.320299 123.32032300000002 51.273437 120.32031300000001C49.726547999999994 117.929703 48.953111 116.47658299999999 48.953125 115.960933C48.953111 110.148463 50.218734999999995 105.88284300000001 52.75 103.164063C54.109356 103.07034300000001 54.812479999999994 103.117223 54.859375 103.304683C56.078103999999996 107.101593 58.585914 111.69533299999999 62.382812 117.085933C59.007789 130.023443 52.703107 136.49218299999998 43.46875 136.49218299999998M63.015625 144.156253C63.015597 144.156243 65.89840699999999 147.062493 71.664062 152.875003L62.664062 162.29687299999998L54.507812 153.64843299999998L63.015625 144.156253M44.03125 144.08593299999998C44.031240999999994 144.08593299999998 46.914051 146.99217299999998 52.679687 152.80468299999998L43.679687 162.226563L35.5234374 153.57812299999998L44.03125 144.08593299999998M35.8046874 124.82031300000001L35.8046874 136.49218299999998L33.7656249 136.49218299999998C26.031232 136.49218299999998 20.968736999999997 135.39062299999998 18.578125 133.187503C14.078118999999997 128.82813299999998 11.828121 122.50001300000001 11.828125 114.20312299999999C11.828121 110.78127300000001 11.828121 104.781283 11.828125 96.203123C11.828121 87.62505300000001 11.828121 80.96880300000001 11.828125 76.234375C11.828121 58.562578 11.218746999999997 48.22665000000001 10 45.226562L20.617186999999998 37.421875C22.492173 42.156344000000004 23.6406094 49.35164900000001 24.0624999 59.007812C24.765608299999997 68.711005 24.906233099999998 75.742248 24.4843749 80.101563C24.2031088 84.460993 24.085921399999997 91.210983 24.1328124 100.351563C24.367171199999998 110.992213 24.906233099999998 117.32033299999999 25.7499999 119.335933C26.7812312 121.960953 27.7890427 123.43751300000001 28.7734374 123.76562299999999C31.210914319999997 124.46876300000001 32.8749752 124.82032300000002 33.7656249 124.82031300000001L35.8046874 124.82031300000001 " id="tagline" style="font-size:144px;font-style:normal;font-variant:normal;font-weight:normal;font-stretch:normal;fill:#000000;fill-opacity:1;stroke:none;stroke-width:1px;stroke-linecap:butt;stroke-linejoin:miter;stroke-opacity:1;font-family:Linux Libertine O;-inkscape-font-specification:Linux Libertine O"></path>
</svg>