<?xml version="1.0" encoding="UTF-8" standalone="no"?>
<svg
	xmlns="http://www.w3.org/2000/svg"
	xmlns:dc="http://purl.org/dc/elements/1.1/"
	xmlns:cc="http://creativecommons.org/ns#"
	xmlns:rdf="http://www.w3.org/1999/02/22-rdf-syntax-ns#"
	xmlns:svg="http://www.w3.org/2000/svg"
	xmlns:xlink="http://www.w3.org/1999/xlink"
	xmlns:sodipodi="http://sodipodi.sourceforge.net/DTD/sodipodi-0.dtd"
	xmlns:inkscape="http://www.inkscape.org/namespaces/inkscape"
	version="1.1"
	viewBox="0 0 150.249434 32.116000000000014">
	<path transform="translate(86.339931,-103.24097)" d="M13.477500000000006 14.381L12.294500000000014 14.381L12.294500000000014 11.781000000000006C12.294500000000014 11.468999999999994 12.450500000000005 11.209000000000003 12.762500000000017 11.209000000000003L14.127500000000012 11.209000000000003C15.102499000000009 11.209000000000003 15.310500000000005 11.729000000000013 15.596500000000006 12.626000000000005C15.752500000000012 12.652000000000015 15.895500000000013 12.626000000000005 16.025500000000008 12.561000000000007C15.96050000000001 12.02800000000002 15.765500000000017 10.780000000000001 15.739500000000007 10.676000000000016C15.739500000000007 10.650000000000006 15.726500000000016 10.637 15.687500000000014 10.637C15.46650000000001 10.676000000000016 15.362500000000011 10.689000000000021 15.050500000000014 10.689000000000021L11.735500000000016 10.689000000000021C11.735500000000016 10.689000000000021 10.708499000000018 10.676000000000016 10.05850000000001 10.663000000000011C9.980500000000006 10.741000000000014 9.980500000000006 11.01400000000001 10.05850000000001 11.092000000000013C10.968499000000008 11.131 11.18950000000001 11.195999999999998 11.18950000000001 12.275000000000006L11.18950000000001 17.488C11.18950000000001 18.567000000000007 10.968499000000008 18.632000000000005 10.05850000000001 18.67100000000002C9.980500000000006 18.748999999999995 9.980500000000006 19.02200000000002 10.05850000000001 19.099999999999994C10.695499000000012 19.087000000000018 11.748500000000007 19.074000000000012 11.748500000000007 19.074000000000012L14.543500000000009 19.074000000000012C15.167499000000007 19.074000000000012 16.20750000000001 19.099999999999994 16.20750000000001 19.099999999999994C16.389500000000012 18.450000000000017 16.584500000000006 17.592000000000013 16.688500000000005 16.929000000000002C16.545500000000004 16.864000000000004 16.402500000000018 16.825000000000017 16.233500000000006 16.864000000000004C15.973500000000016 17.80000000000001 15.518499000000006 18.567000000000007 14.530500000000018 18.567000000000007L12.762500000000017 18.567000000000007C12.476500000000016 18.567000000000007 12.294500000000014 18.35900000000001 12.294500000000014 18.00800000000001L12.294500000000014 14.875L13.477500000000006 14.875C14.582499000000013 14.875 14.621500000000012 15.174000000000007 14.660500000000013 15.759000000000015C14.738500000000016 15.837000000000018 15.011500000000012 15.837000000000018 15.089500000000015 15.759000000000015C15.07650000000001 15.304000000000002 15.063500000000005 15.057000000000016 15.063500000000005 14.615000000000009C15.063500000000005 14.173000000000002 15.07650000000001 13.887 15.089500000000015 13.497000000000014C15.011500000000012 13.419000000000011 14.738500000000016 13.419000000000011 14.660500000000013 13.497000000000014C14.621500000000012 14.212000000000018 14.582499000000013 14.381 13.477500000000006 14.381M19.255266000000006 14.420000000000016C19.216266000000005 14.472000000000008 19.12526600000001 14.602000000000004 19.12526600000001 14.420000000000016C19.12526600000001 14.030000000000001 19.19026600000001 13.432000000000016 19.19026600000001 13.432000000000016C19.19026600000001 13.367000000000019 19.138266000000016 13.328000000000003 19.034266000000017 13.328000000000003C18.670266000000012 13.471000000000004 18.137265000000014 13.587999999999994 17.240266000000005 13.705000000000013C17.21426600000001 13.783000000000015 17.240266000000005 13.991000000000014 17.266266000000016 14.069000000000017C17.968265000000017 14.134000000000015 18.111266000000015 14.199000000000012 18.111266000000015 14.953000000000003L18.111266000000015 17.488C18.111266000000015 18.554000000000002 17.981265000000008 18.605999999999995 17.201266000000018 18.67100000000002C17.123266000000015 18.748999999999995 17.123266000000015 19.02200000000002 17.201266000000018 19.099999999999994C17.734265000000008 19.087000000000018 18.072266000000013 19.074000000000012 18.63126600000001 19.074000000000012C19.138265000000004 19.074000000000012 19.37226600000001 19.087000000000018 19.918266000000017 19.099999999999994C19.996266000000006 19.02200000000002 19.996266000000006 18.748999999999995 19.918266000000017 18.67100000000002C19.255266000000006 18.605999999999995 19.138266000000016 18.554000000000002 19.138266000000016 17.488L19.138266000000016 15.355999999999995C19.138266000000016 15.082999999999998 19.255266000000006 14.927000000000021 19.359266000000005 14.810000000000002C19.853265000000007 14.329000000000008 20.36026600000001 14.043000000000006 20.867266000000015 14.043000000000006C21.12726500000001 14.043000000000006 21.400266000000016 14.212000000000018 21.556266000000008 14.510999999999996C21.686266000000018 14.771000000000015 21.712266000000014 15.122000000000014 21.712266000000014 15.512L21.712266000000014 17.488C21.712266000000014 18.554000000000002 21.582265000000007 18.605999999999995 20.906266000000016 18.67100000000002C20.841266000000005 18.748999999999995 20.841266000000005 19.02200000000002 20.906266000000016 19.099999999999994C21.45226500000001 19.087000000000018 21.712266000000014 19.074000000000012 22.23226600000001 19.074000000000012C22.765265000000014 19.074000000000012 23.051266000000012 19.087000000000018 23.61026600000001 19.099999999999994C23.675266000000008 19.02200000000002 23.675266000000008 18.748999999999995 23.61026600000001 18.67100000000002C22.882266000000016 18.605999999999995 22.739266000000015 18.554000000000002 22.739266000000015 17.488L22.739266000000015 15.551000000000016C22.739266000000015 14.836000000000013 22.68726500000001 14.212000000000018 22.388266000000016 13.808999999999997C22.167266000000012 13.522999999999996 21.76426500000001 13.367000000000019 21.309266000000008 13.367000000000019C20.672266000000008 13.367000000000019 20.048265000000015 13.536000000000001 19.255266000000006 14.420000000000016M28.794297000000014 17.89100000000002C28.742297000000008 17.774 28.63829700000001 17.72200000000001 28.521297000000004 17.709000000000003C28.07929800000001 18.281000000000006 27.520297000000014 18.567000000000007 26.961297000000016 18.567000000000007C26.012298000000015 18.567000000000007 25.21929700000001 17.605000000000018 25.21929700000001 16.084000000000003C25.21929700000001 14.653999999999996 25.843298000000004 13.79600000000002 26.70129700000001 13.79600000000002C27.46829600000001 13.79600000000002 27.572297000000006 14.251000000000005 27.624297000000013 14.706000000000017C27.663297000000014 15.057000000000016 27.845297000000016 15.174000000000007 28.118297000000013 15.174000000000007C28.39129700000001 15.174000000000007 28.755297000000013 15.004999999999995 28.755297000000013 14.602000000000004C28.755297000000013 13.887 28.014296000000016 13.367000000000019 26.76629700000001 13.367000000000019C25.479298000000014 13.367000000000019 24.101297000000017 14.524000000000001 24.101297000000017 16.370000000000005C24.101297000000017 18.046999999999997 25.037299000000004 19.204000000000008 26.675297000000015 19.204000000000008C27.455296000000004 19.204000000000008 28.144298000000006 18.957000000000022 28.794297000000014 17.89100000000002M31.634062000000014 21.153999999999996C31.829062000000008 20.802999999999997 31.99806200000001 20.426000000000016 32.16706200000001 20.036C33.20706100000001 17.54000000000002 33.77906300000001 16.188000000000017 34.46806200000001 14.732C34.65006200000001 14.355000000000018 35.04006300000001 13.939000000000021 35.52106200000001 13.900000000000006C35.59906200000001 13.822000000000003 35.59906200000001 13.549000000000007 35.52106200000001 13.471000000000004C35.19606200000001 13.484000000000009 34.96206200000001 13.497000000000014 34.59806200000001 13.497000000000014C34.14306300000001 13.497000000000014 33.89606200000001 13.484000000000009 33.41506200000001 13.471000000000004C33.33706200000001 13.549000000000007 33.33706200000001 13.822000000000003 33.41506200000001 13.900000000000006C33.81806200000001 13.939000000000021 34.23406200000001 14.016999999999996 34.03906200000001 14.485000000000014L32.73906200000001 17.462000000000018C32.64806200000001 17.68300000000002 32.54406200000001 17.709000000000003 32.427062000000014 17.449000000000012L31.283062000000008 14.745000000000005C31.049062000000013 14.199000000000012 30.90606300000001 13.965000000000003 31.699062000000012 13.900000000000006C31.777062000000008 13.822000000000003 31.777062000000008 13.549000000000007 31.699062000000012 13.471000000000004C31.218063000000008 13.484000000000009 30.698062000000014 13.497000000000014 30.23006200000001 13.497000000000014C29.78806200000001 13.497000000000014 29.43706200000001 13.484000000000009 29.177062000000006 13.471000000000004C29.099062000000018 13.549000000000007 29.099062000000018 13.822000000000003 29.177062000000006 13.900000000000006C29.74906100000001 13.951999999999998 29.85306200000001 14.056000000000012 30.204062000000008 14.875L31.67306200000001 18.29400000000001C31.790062000000013 18.567000000000007 31.985062000000013 19.152000000000015 31.85506200000001 19.51600000000002C31.71206200000001 19.958 31.543062000000013 20.308999999999997 31.348062000000013 20.712000000000018C31.205062000000012 20.97200000000001 31.02306200000001 21.089 30.698062000000014 21.089C30.516062000000012 21.089 30.464062000000013 21.05000000000001 30.321062000000012 21.05000000000001C29.944062000000017 21.05000000000001 29.74906200000001 21.439999999999998 29.74906200000001 21.60900000000001C29.74906200000001 21.882000000000005 30.009062000000014 22.090000000000003 30.360062000000013 22.090000000000003C30.63306200000001 22.090000000000003 31.15306300000001 21.98600000000002 31.62106200000001 21.153999999999996L31.634062000000014 21.153999999999996M40.556407000000014 17.89100000000002C40.50440700000001 17.774 40.40040700000001 17.72200000000001 40.28340700000001 17.709000000000003C39.84140700000001 18.281000000000006 39.28240600000001 18.567000000000007 38.72340700000001 18.567000000000007C37.77440800000001 18.567000000000007 36.98140700000001 17.605000000000018 36.98140700000001 16.084000000000003C36.98140700000001 14.653999999999996 37.60540800000001 13.79600000000002 38.46340700000001 13.79600000000002C39.23040600000001 13.79600000000002 39.33440700000001 14.251000000000005 39.38640700000001 14.706000000000017C39.425407000000014 15.057000000000016 39.60740700000001 15.174000000000007 39.88040700000001 15.174000000000007C40.15340700000001 15.174000000000007 40.51740700000001 15.004999999999995 40.51740700000001 14.602000000000004C40.51740700000001 13.887 39.77640600000001 13.367000000000019 38.52840700000001 13.367000000000019C37.241408000000014 13.367000000000019 35.86340700000001 14.524000000000001 35.86340700000001 16.370000000000005C35.86340700000001 18.046999999999997 36.79940900000001 19.204000000000008 38.437407000000015 19.204000000000008C39.21740600000001 19.204000000000008 39.90640800000001 18.957000000000022 40.556407000000014 17.89100000000002M41.92717200000001 17.488C41.92717200000001 18.567000000000007 41.78417100000001 18.632000000000005 40.99117200000001 18.67100000000002C40.91317200000001 18.748999999999995 40.91317200000001 19.02200000000002 40.99117200000001 19.099999999999994C41.53717100000001 19.087000000000018 41.87517200000001 19.074000000000012 42.44717200000001 19.074000000000012C43.00617100000001 19.074000000000012 43.33117200000001 19.087000000000018 43.890172000000014 19.099999999999994C43.96817200000001 19.02200000000002 43.96817200000001 18.748999999999995 43.890172000000014 18.67100000000002C43.09717300000001 18.632000000000005 42.954172000000014 18.567000000000007 42.954172000000014 17.488L42.954172000000014 11.495000000000005C42.954172000000014 10.650000000000006 43.006172000000014 10.129999999999995 43.006172000000014 10.129999999999995C43.006172000000014 10.039000000000016 42.954172000000014 10 42.83717200000001 10C42.512172000000014 10.129999999999995 41.53717100000001 10.312000000000012 41.01717200000001 10.350999999999999C40.99117200000001 10.455000000000013 41.01717200000001 10.663000000000011 41.09517200000001 10.741000000000014C41.77117100000001 10.780000000000001 41.92717200000001 10.715000000000003 41.92717200000001 11.807000000000016L41.92717200000001 17.488M44.45290500000001 16.40900000000002C44.45290500000001 17.735000000000014 45.34990700000001 19.204000000000008 47.18290500000001 19.204000000000008C49.11990300000001 19.204000000000008 49.93890500000001 17.592000000000013 49.93890500000001 16.292C49.93890500000001 14.939999999999998 49.223903000000014 13.367000000000019 47.20890500000001 13.367000000000019C45.45390700000001 13.367000000000019 44.45290500000001 14.75800000000001 44.45290500000001 16.40900000000002M47.06590500000001 13.79600000000002C48.18390400000001 13.79600000000002 48.82090500000001 14.796999999999997 48.82090500000001 16.708C48.82090500000001 18.424000000000007 48.02790500000001 18.775000000000006 47.416905000000014 18.775000000000006C46.06490700000001 18.775000000000006 45.57090500000001 17.11100000000002 45.57090500000001 16.110000000000014C45.57090500000001 14.979000000000013 45.97390700000001 13.79600000000002 47.06590500000001 13.79600000000002M52.54568600000001 14.718999999999994C52.94868500000001 14.302999999999997 53.46868600000001 13.965000000000003 53.85868600000001 13.965000000000003C54.69068500000001 13.965000000000003 55.40568600000001 14.90100000000001 55.40568600000001 16.370000000000005C55.40568600000001 17.436000000000007 55.02868400000001 18.762 53.57268600000001 18.762C53.33868600000001 18.762 52.88368600000001 18.697000000000003 52.64968600000001 18.489000000000004C52.376686000000014 18.254999999999995 52.33768600000001 18.189999999999998 52.33768600000001 17.709000000000003L52.33768600000001 15.290999999999997C52.33768600000001 15.018 52.376686000000014 14.90100000000001 52.54568600000001 14.718999999999994M52.44168600000001 14.29000000000002C52.38968600000001 14.342000000000013 52.31168600000001 14.355000000000018 52.31168600000001 14.251000000000005C52.31168600000001 13.783000000000015 52.36368600000001 13.419000000000011 52.36368600000001 13.419000000000011C52.36368600000001 13.367000000000019 52.29868600000001 13.328000000000003 52.19468600000001 13.328000000000003C51.830686000000014 13.471000000000004 51.33668500000001 13.587999999999994 50.43968600000001 13.705000000000013C50.41368600000001 13.783000000000015 50.43968600000001 13.991000000000014 50.46568600000001 14.069000000000017C51.16768500000001 14.134000000000015 51.31068600000001 14.212000000000018 51.31068600000001 14.953000000000003L51.31068600000001 20.50400000000002C51.31068600000001 21.583 51.16768500000001 21.647999999999996 50.37468600000001 21.687000000000012C50.29668600000001 21.765000000000015 50.29668600000001 22.03800000000001 50.37468600000001 22.116000000000014C50.92068500000001 22.10300000000001 51.25868600000001 22.090000000000003 51.830686000000014 22.090000000000003C52.441685000000014 22.090000000000003 52.84468600000001 22.10300000000001 53.40368600000001 22.116000000000014C53.48168600000001 22.03800000000001 53.48168600000001 21.765000000000015 53.40368600000001 21.687000000000012C52.48068700000001 21.63500000000002 52.33768600000001 21.583 52.33768600000001 20.50400000000002L52.33768600000001 19.099999999999994C52.33768600000001 18.93100000000001 52.376686000000014 18.957000000000022 52.519686000000014 19.009000000000015C52.83168600000001 19.13900000000001 53.23468600000001 19.204000000000008 53.650686000000015 19.204000000000008C54.37868500000001 19.204000000000008 55.02868600000001 18.983000000000004 55.56168600000001 18.476C56.17268500000001 17.878000000000014 56.52368600000001 17.072000000000003 56.52368600000001 16.019000000000005C56.52368600000001 14.64100000000002 55.54868500000001 13.367000000000019 54.22268600000001 13.367000000000019C53.74168600000001 13.367000000000019 53.02668500000001 13.692000000000007 52.44168600000001 14.29000000000002M58.53815800000001 15.408000000000015C58.78515700000001 13.939000000000021 59.69515800000001 13.822000000000003 60.00715800000001 13.822000000000003C60.50115700000001 13.822000000000003 61.08615800000001 14.094999999999999 61.08615800000001 15.187000000000012C61.08615800000001 15.304000000000002 61.03415800000001 15.369 60.89115800000001 15.369L58.53815800000001 15.408000000000015M61.94415800000001 17.86500000000001C61.463158000000014 18.35900000000001 61.086157000000014 18.567000000000007 60.332158000000014 18.567000000000007C59.86415800000001 18.567000000000007 59.318157000000014 18.29400000000001 58.91515800000001 17.631C58.655158000000014 17.201999999999998 58.49915800000001 16.604000000000013 58.49915800000001 15.849999999999994L61.957158000000014 15.876000000000005C62.11315800000001 15.876000000000005 62.20415800000001 15.798000000000002 62.20415800000001 15.655000000000001C62.20415800000001 14.563000000000017 61.81415600000001 13.393 60.00715800000001 13.393C58.87615900000001 13.393 57.40715800000001 14.472000000000008 57.40715800000001 16.448000000000008C57.40715800000001 17.176000000000016 57.58915800000001 17.878000000000014 58.018158000000014 18.372000000000014C58.46015700000001 18.891999999999996 59.07115900000001 19.204000000000008 60.00715800000001 19.204000000000008C60.99515700000001 19.204000000000008 61.69715800000001 18.748999999999995 62.21715800000001 18.073000000000008C62.17815800000001 17.943000000000012 62.10015800000001 17.878000000000014 61.94415800000001 17.86500000000001M67.10178200000001 17.462000000000018C67.10178200000001 17.709000000000003 67.075782 17.813000000000017 66.89378200000002 17.968999999999994C66.412782 18.38500000000002 65.99678200000001 18.593000000000018 65.67178200000001 18.593000000000018C64.969783 18.593000000000018 64.24178200000001 17.826000000000022 64.24178200000001 16.201000000000022C64.24178200000001 15.265000000000015 64.42378200000002 14.745000000000005 64.61878200000001 14.472000000000008C65.02178200000002 13.861000000000018 65.56778200000001 13.822000000000003 65.82778200000001 13.822000000000003C66.295781 13.822000000000003 66.62078200000002 13.991000000000014 66.88078200000001 14.29000000000002C67.06278200000001 14.498000000000019 67.10178200000001 14.588999999999999 67.10178200000001 14.992000000000019L67.10178200000001 17.462000000000018M66.95878200000001 18.424000000000007C67.010782 18.372000000000014 67.11478200000002 18.346000000000004 67.11478200000002 18.437000000000012C67.11478200000002 18.748999999999995 67.257782 19.204000000000008 67.257782 19.204000000000008C67.361782 19.242999999999995 67.400782 19.230000000000018 67.504782 19.204000000000008C67.79078200000001 18.97 68.284783 18.775000000000006 69.07778200000001 18.683999999999997C69.15578200000002 18.605999999999995 69.15578200000002 18.411 69.07778200000001 18.333C68.24578300000002 18.268 68.12878200000002 18.021000000000015 68.12878200000002 17.384000000000015L68.12878200000002 11.495000000000005C68.12878200000002 10.650000000000006 68.18078200000001 10.129999999999995 68.18078200000001 10.129999999999995C68.18078200000001 10.039000000000016 68.12878200000002 10 68.01178200000001 10C67.68678200000001 10.129999999999995 66.71178100000002 10.312000000000012 66.19178200000002 10.350999999999999C66.16578200000001 10.455000000000013 66.19178200000002 10.663000000000011 66.269782 10.741000000000014C66.94578100000001 10.780000000000001 67.10178200000001 10.715000000000003 67.10178200000001 11.807000000000016L67.10178200000001 13.471000000000004C67.10178200000001 13.562000000000012 67.075782 13.587999999999994 66.98478200000001 13.587999999999994C66.932782 13.587999999999994 66.39978200000002 13.367000000000019 65.97078200000001 13.367000000000019C65.11278300000001 13.367000000000019 64.54078100000001 13.65300000000002 64.02078200000001 14.14700000000002C63.46178300000001 14.706000000000017 63.12378200000001 15.473000000000013 63.12378200000001 16.435000000000002C63.12378200000001 18.03400000000002 63.929783000000015 19.204000000000008 65.33378200000001 19.204000000000008C65.840781 19.204000000000008 66.32178300000001 18.944000000000017 66.95878200000001 18.424000000000007M70.16295300000002 11.287000000000006C70.16295300000002 11.625 70.47495300000001 11.962999999999994 70.78695300000001 11.962999999999994C71.15095300000002 11.962999999999994 71.46295300000001 11.625 71.46295300000001 11.338999999999999C71.46295300000001 11.027000000000015 71.189953 10.663000000000011 70.838953 10.663000000000011C70.526953 10.663000000000011 70.16295300000002 10.974999999999994 70.16295300000002 11.287000000000006M71.34595300000001 17.488L71.34595300000001 14.90100000000001C71.34595300000001 14.251000000000005 71.39795300000002 13.419000000000011 71.39795300000002 13.419000000000011C71.39795300000002 13.367000000000019 71.332953 13.328000000000003 71.22895300000002 13.328000000000003C70.85195300000001 13.471000000000004 70.344952 13.587999999999994 69.44795300000001 13.705000000000013C69.42195300000002 13.783000000000015 69.44795300000001 13.991000000000014 69.47395300000001 14.069000000000017C70.17595200000001 14.14700000000002 70.31895300000001 14.212000000000018 70.31895300000001 14.953000000000003L70.31895300000001 17.488C70.31895300000001 18.567000000000007 70.17595200000001 18.605999999999995 69.38295300000001 18.67100000000002C69.30495300000001 18.748999999999995 69.30495300000001 19.02200000000002 69.38295300000001 19.099999999999994C69.928953 19.087000000000018 70.26695400000001 19.074000000000012 70.838953 19.074000000000012C71.397952 19.074000000000012 71.72295400000002 19.087000000000018 72.28195300000002 19.099999999999994C72.35995300000002 19.02200000000002 72.35995300000002 18.748999999999995 72.28195300000002 18.67100000000002C71.488954 18.619 71.34595300000001 18.567000000000007 71.34595300000001 17.488M76.13124900000001 16.045000000000016L76.13124900000001 17.774C76.13124900000001 17.943000000000012 76.05324900000001 18.03400000000002 75.94924900000001 18.111999999999995C75.61125000000001 18.38500000000002 75.16924900000001 18.67100000000002 74.805249 18.67100000000002C74.15525000000001 18.67100000000002 73.86924900000001 18.15100000000001 73.86924900000001 17.74800000000002C73.86924900000001 17.16300000000001 74.14225000000002 16.578000000000003 75.10424900000001 16.318000000000012L76.13124900000001 16.045000000000016M76.13124900000001 18.450000000000017C76.20924900000001 18.723000000000013 76.43025000000002 19.204000000000008 77.13224900000002 19.204000000000008C77.76924900000002 19.204000000000008 78.237249 18.683999999999997 78.237249 18.619C78.237249 18.52800000000002 78.12024900000002 18.397999999999996 78.06824900000001 18.397999999999996C77.990249 18.397999999999996 77.93824900000001 18.605999999999995 77.66524900000002 18.605999999999995C77.15825000000001 18.605999999999995 77.145249 18.099000000000018 77.145249 17.501000000000005L77.145249 15.564000000000021C77.145249 13.718000000000018 76.13124800000001 13.367000000000019 75.18224900000001 13.367000000000019C74.11625000000001 13.367000000000019 73.037249 14.108000000000004 73.037249 14.810000000000002C73.037249 15.122000000000014 73.19324900000001 15.265000000000015 73.49224900000002 15.265000000000015C73.86924900000001 15.265000000000015 74.06424900000002 15.004999999999995 74.06424900000002 14.836000000000013C74.06424900000002 14.745000000000005 74.05124900000001 14.653999999999996 74.025249 14.602000000000004C74.01224900000001 14.563000000000017 73.999249 14.485000000000014 73.999249 14.342000000000013C73.999249 13.939000000000021 74.58425000000001 13.79600000000002 75.07824900000001 13.79600000000002C75.520249 13.79600000000002 76.13124900000001 14.016999999999996 76.13124900000001 15.486000000000018C76.13124900000001 15.576999999999998 76.09224900000001 15.629000000000019 76.05324900000001 15.641999999999996L74.93524900000001 15.91500000000002C73.68725 16.227000000000004 72.79024900000002 16.915999999999997 72.79024900000002 17.80000000000001C72.79024900000002 18.826999999999998 73.51825000000001 19.204000000000008 74.42824900000001 19.204000000000008C75.026249 19.204000000000008 75.27325000000002 19.099999999999994 75.84524900000001 18.658000000000015L76.10524900000001 18.450000000000017L76.13124900000001 18.450000000000017M81.22565800000001 15.408000000000015C81.47265700000001 13.939000000000021 82.382658 13.822000000000003 82.694658 13.822000000000003C83.188657 13.822000000000003 83.77365800000001 14.094999999999999 83.77365800000001 15.187000000000012C83.77365800000001 15.304000000000002 83.721658 15.369 83.57865800000002 15.369L81.22565800000001 15.408000000000015M84.6316577 17.86500000000001C84.15065820000001 18.35900000000001 83.77365700000001 18.567000000000007 83.019658 18.567000000000007C82.551658 18.567000000000007 82.00565700000001 18.29400000000001 81.602658 17.631C81.34265800000001 17.201999999999998 81.18665800000001 16.604000000000013 81.18665800000001 15.849999999999994L84.64465770000001 15.876000000000005C84.80065750000001 15.876000000000005 84.89165770000001 15.798000000000002 84.89165770000001 15.655000000000001C84.89165770000001 14.563000000000017 84.50165590000002 13.393 82.694658 13.393C81.56365900000002 13.393 80.09465800000001 14.472000000000008 80.09465800000001 16.448000000000008C80.09465800000001 17.176000000000016 80.27665800000001 17.878000000000014 80.70565800000001 18.372000000000014C81.14765700000001 18.891999999999996 81.75865900000001 19.204000000000008 82.694658 19.204000000000008C83.682657 19.204000000000008 84.38465820000002 18.748999999999995 84.90465770000002 18.073000000000008C84.86565770000001 17.943000000000012 84.78765750000001 17.878000000000014 84.6316577 17.86500000000001M85.7871063 13.497000000000014C85.60510640000001 13.497000000000014 85.55310630000001 13.65300000000002 85.55310630000001 13.757000000000005L85.55310630000001 13.926000000000016C85.55310630000001 13.991000000000014 85.56610630000002 14.004000000000019 85.61810630000001 14.004000000000019L86.38510630000002 14.004000000000019L86.38510630000002 17.917C86.38510630000002 18.840000000000003 86.78810680000001 19.204000000000008 87.38610630000001 19.204000000000008C87.98410570000001 19.204000000000008 88.63410680000001 18.918000000000006 89.14110630000002 18.346000000000004C89.11510630000001 18.216000000000008 89.03710610000002 18.138000000000005 88.90710630000001 18.125C88.56910660000001 18.38500000000002 88.17910590000001 18.489000000000004 87.8411063 18.489000000000004C87.49010660000002 18.489000000000004 87.4121063 18.099000000000018 87.4121063 17.293000000000006L87.4121063 14.004000000000019L88.76410630000001 14.004000000000019C88.89410610000002 14.004000000000019 89.0761063 13.951999999999998 89.0761063 13.835000000000008L89.0761063 13.575000000000017C89.0761063 13.522999999999996 89.03710620000001 13.497000000000014 88.97210630000001 13.497000000000014L87.4121063 13.497000000000014L87.4121063 12.990000000000009C87.4121063 12.14500000000001 87.46410630000001 11.625 87.46410630000001 11.625C87.46410630000001 11.53400000000002 87.41210610000002 11.495000000000005 87.29510630000001 11.495000000000005L86.54110630000001 11.846000000000004C86.4631063 11.88500000000002 86.34610630000002 11.911000000000001 86.35910630000001 12.00200000000001C86.38510620000001 12.301000000000016 86.38510630000002 12.418000000000006 86.38510630000002 13.497000000000014L85.7871063 13.497000000000014M92.9503906 16.045000000000016L92.9503906 17.774C92.9503906 17.943000000000012 92.87239040000001 18.03400000000002 92.76839060000002 18.111999999999995C92.4303909 18.38500000000002 91.98839020000001 18.67100000000002 91.62439060000001 18.67100000000002C90.97439120000001 18.67100000000002 90.6883906 18.15100000000001 90.6883906 17.74800000000002C90.6883906 17.16300000000001 90.9613915 16.578000000000003 91.9233906 16.318000000000012L92.9503906 16.045000000000016M92.9503906 18.450000000000017C93.02839048000001 18.723000000000013 93.24939126000001 19.204000000000008 93.95139055400001 19.204000000000008C94.58838992000001 19.204000000000008 95.05639060000001 18.683999999999997 95.05639060000001 18.619C95.05639060000001 18.52800000000002 94.93939050000002 18.397999999999996 94.88739055 18.397999999999996C94.80939063000001 18.397999999999996 94.75739028000001 18.605999999999995 94.48439055000001 18.605999999999995C93.977391061 18.605999999999995 93.96439055371002 18.099000000000018 93.96439055371002 17.501000000000005L93.96439055371002 15.564000000000021C93.96439055371002 13.718000000000018 92.95038960000001 13.367000000000019 92.00139060000001 13.367000000000019C90.93539160000002 13.367000000000019 89.85639060000001 14.108000000000004 89.85639060000001 14.810000000000002C89.85639060000001 15.122000000000014 90.01239090000001 15.265000000000015 90.31139060000001 15.265000000000015C90.68839020000001 15.265000000000015 90.88339060000001 15.004999999999995 90.88339060000001 14.836000000000013C90.88339060000001 14.745000000000005 90.87039050000001 14.653999999999996 90.84439060000001 14.602000000000004C90.8313906 14.563000000000017 90.81839060000001 14.485000000000014 90.81839060000001 14.342000000000013C90.81839060000001 13.939000000000021 91.40339100000001 13.79600000000002 91.89739060000001 13.79600000000002C92.33939010000002 13.79600000000002 92.9503906 14.016999999999996 92.9503906 15.486000000000018C92.9503906 15.576999999999998 92.91139050000001 15.629000000000019 92.87239060000002 15.641999999999996L91.75439060000001 15.91500000000002C90.50639180000002 16.227000000000004 89.60939060000001 16.915999999999997 89.60939060000001 17.80000000000001C89.60939060000001 18.826999999999998 90.33739150000001 19.204000000000008 91.24739060000002 19.204000000000008C91.84539000000001 19.204000000000008 92.09239110000001 19.099999999999994 92.6643906 18.658000000000015L92.92439060000001 18.450000000000017L92.9503906 18.450000000000017M96.1827999 14.953000000000003L96.1827999 17.488C96.1827999 18.567000000000007 96.02679900000001 18.619 95.22079990000002 18.67100000000002C95.14279990000001 18.748999999999995 95.14279990000001 19.02200000000002 95.22079990000002 19.099999999999994C95.76679930000002 19.087000000000018 96.1828004 19.074000000000012 96.70279990000002 19.074000000000012C97.23579930000001 19.074000000000012 97.71680040000001 19.087000000000018 98.27579990000001 19.099999999999994C98.3537998 19.02200000000002 98.3537998 18.748999999999995 98.27579990000001 18.67100000000002C97.36580080000002 18.605999999999995 97.20979990000001 18.567000000000007 97.20979990000001 17.488L97.20979990000001 15.681000000000012C97.20979990000001 15.343000000000018 97.36580000000001 15.044000000000011 97.5217999 14.810000000000002C97.66479970000002 14.602000000000004 97.9638 14.173000000000002 98.1197999 14.173000000000002C98.21079980000002 14.173000000000002 98.31479990000001 14.186000000000007 98.39279990000001 14.26400000000001C98.52279970000001 14.394000000000005 98.65280010000001 14.64100000000002 98.92579990000002 14.64100000000002C99.23779950000001 14.64100000000002 99.5367999 14.316000000000003 99.5367999 13.991000000000014C99.5367999 13.744 99.3027993 13.367000000000019 98.7567999 13.367000000000019C98.1458005 13.367000000000019 97.61279960000002 13.939000000000021 97.3137999 14.445999999999998C97.23579990000002 14.588999999999999 97.19679990000002 14.524000000000001 97.19679990000002 14.459000000000003C97.19679990000002 14.043000000000006 97.26179990000001 13.419000000000011 97.26179990000001 13.419000000000011C97.26179990000001 13.367000000000019 97.19679980000001 13.328000000000003 97.09279990000002 13.328000000000003C96.72880020000001 13.471000000000004 96.20879900000001 13.587999999999994 95.31179990000001 13.705000000000013C95.28579990000001 13.783000000000015 95.28579990000001 13.991000000000014 95.33779990000001 14.069000000000017C96.0397992 14.134000000000015 96.1827999 14.238 96.1827999 14.953000000000003M100.67701400000001 11.287000000000006C100.67701400000001 11.625 100.98901430000001 11.962999999999994 101.30101400000001 11.962999999999994C101.66501370000002 11.962999999999994 101.97701400000001 11.625 101.97701400000001 11.338999999999999C101.97701400000001 11.027000000000015 101.7040137 10.663000000000011 101.35301400000002 10.663000000000011C101.04101430000001 10.663000000000011 100.67701400000001 10.974999999999994 100.67701400000001 11.287000000000006M101.860014 17.488L101.860014 14.90100000000001C101.860014 14.251000000000005 101.91201400000001 13.419000000000011 101.91201400000001 13.419000000000011C101.91201400000001 13.367000000000019 101.84701390000001 13.328000000000003 101.74301400000002 13.328000000000003C101.36601440000001 13.471000000000004 100.85901310000001 13.587999999999994 99.96201400000001 13.705000000000013C99.93601410000001 13.783000000000015 99.9620141 13.991000000000014 99.988014 14.069000000000017C100.6900133 14.14700000000002 100.833014 14.212000000000018 100.833014 14.953000000000003L100.833014 17.488C100.833014 18.567000000000007 100.69001320000001 18.605999999999995 99.89701400000001 18.67100000000002C99.8190141 18.748999999999995 99.8190141 19.02200000000002 99.89701400000001 19.099999999999994C100.4430135 19.087000000000018 100.7810146 19.074000000000012 101.35301400000002 19.074000000000012C101.91201350000001 19.074000000000012 102.23701460000001 19.087000000000018 102.79601400000001 19.099999999999994C102.87401390000001 19.02200000000002 102.87401390000001 18.748999999999995 102.79601400000001 18.67100000000002C102.00301480000002 18.619 101.860014 18.567000000000007 101.860014 17.488M106.85630900000001 14.810000000000002C107.36330900000002 14.316000000000003 107.77931000000001 14.043000000000006 108.182309 14.043000000000006C108.676309 14.043000000000006 109.04030900000001 14.355000000000018 109.04030900000001 15.225999999999999L109.04030900000001 17.488C109.04030900000001 18.554000000000002 108.93630900000001 18.619 108.23430900000001 18.67100000000002C108.16930900000001 18.748999999999995 108.16930900000001 19.02200000000002 108.23430900000001 19.099999999999994C108.78030900000002 19.087000000000018 109.04031 19.074000000000012 109.56030900000002 19.074000000000012C110.093309 19.074000000000012 110.27531000000002 19.087000000000018 110.83430900000002 19.099999999999994C110.89930900000002 19.02200000000002 110.89930900000002 18.748999999999995 110.83430900000002 18.67100000000002C110.18431000000001 18.619 110.06730900000001 18.554000000000002 110.06730900000001 17.488L110.06730900000001 15.42100000000002C110.06730900000001 15.239000000000004 110.06730900000001 15.057000000000016 110.05430900000002 14.90100000000001C110.67830900000001 14.212000000000018 111.18531000000002 14.043000000000006 111.69230900000001 14.043000000000006C112.18630900000001 14.043000000000006 112.498309 14.329000000000008 112.498309 15.200000000000017L112.498309 17.488C112.498309 18.554000000000002 112.36830900000001 18.619 111.69230900000001 18.67100000000002C111.62730900000001 18.748999999999995 111.62730900000001 19.02200000000002 111.69230900000001 19.099999999999994C112.23830900000002 19.087000000000018 112.49831 19.074000000000012 113.01830900000002 19.074000000000012C113.551309 19.074000000000012 113.79831000000001 19.087000000000018 114.35730900000001 19.099999999999994C114.42230900000001 19.02200000000002 114.42230900000001 18.748999999999995 114.35730900000001 18.67100000000002C113.64231000000001 18.619 113.52530900000001 18.554000000000002 113.52530900000001 17.488L113.52530900000001 15.433999999999997C113.52530900000001 14.277000000000015 113.304308 13.367000000000019 112.16030900000001 13.367000000000019C111.48431000000001 13.367000000000019 110.769309 13.614000000000004 110.093309 14.329000000000008C110.05430900000002 14.367999999999995 109.97630900000001 14.433000000000021 109.950309 14.329000000000008C109.82031 13.79600000000002 109.32630900000001 13.367000000000019 108.65030900000001 13.367000000000019C107.89631000000001 13.367000000000019 107.32430900000001 13.822000000000003 106.75230900000001 14.420000000000016C106.700309 14.472000000000008 106.62230900000002 14.602000000000004 106.62230900000002 14.420000000000016C106.62230900000002 14.030000000000001 106.68730900000001 13.432000000000016 106.68730900000001 13.432000000000016C106.68730900000001 13.367000000000019 106.635309 13.328000000000003 106.53130900000001 13.328000000000003C106.15431000000001 13.471000000000004 105.634308 13.587999999999994 104.73730900000001 13.705000000000013C104.71130900000001 13.783000000000015 104.73730900000001 13.991000000000014 104.763309 14.069000000000017C105.465309 14.14700000000002 105.608309 14.199000000000012 105.608309 14.953000000000003L105.608309 17.488C105.608309 18.554000000000002 105.43930900000001 18.619 104.724309 18.67100000000002C104.64630900000002 18.748999999999995 104.64630900000002 19.02200000000002 104.724309 19.099999999999994C105.257309 19.087000000000018 105.56931000000002 19.074000000000012 106.12830900000002 19.074000000000012C106.635309 19.074000000000012 106.85631000000001 19.087000000000018 107.40230900000002 19.099999999999994C107.480309 19.02200000000002 107.480309 18.748999999999995 107.40230900000002 18.67100000000002C106.75231000000001 18.605999999999995 106.635309 18.554000000000002 106.635309 17.488L106.635309 15.355999999999995C106.635309 15.082999999999998 106.75230900000001 14.927000000000021 106.85630900000001 14.810000000000002M118.12617200000001 16.045000000000016L118.12617200000001 17.774C118.12617200000001 17.943000000000012 118.04817200000001 18.03400000000002 117.94417200000001 18.111999999999995C117.60617200000002 18.38500000000002 117.16417100000001 18.67100000000002 116.800172 18.67100000000002C116.15017200000001 18.67100000000002 115.86417200000001 18.15100000000001 115.86417200000001 17.74800000000002C115.86417200000001 17.16300000000001 116.13717300000002 16.578000000000003 117.09917200000001 16.318000000000012L118.12617200000001 16.045000000000016M118.12617200000001 18.450000000000017C118.20417200000001 18.723000000000013 118.42517300000002 19.204000000000008 119.12717200000002 19.204000000000008C119.764171 19.204000000000008 120.23217200000002 18.683999999999997 120.23217200000002 18.619C120.23217200000002 18.52800000000002 120.11517200000002 18.397999999999996 120.06317200000001 18.397999999999996C119.985172 18.397999999999996 119.93317200000001 18.605999999999995 119.66017200000002 18.605999999999995C119.15317200000001 18.605999999999995 119.140172 18.099000000000018 119.140172 17.501000000000005L119.140172 15.564000000000021C119.140172 13.718000000000018 118.12617100000001 13.367000000000019 117.17717200000001 13.367000000000019C116.11117300000001 13.367000000000019 115.032172 14.108000000000004 115.032172 14.810000000000002C115.032172 15.122000000000014 115.18817200000001 15.265000000000015 115.48717200000002 15.265000000000015C115.86417100000001 15.265000000000015 116.05917200000002 15.004999999999995 116.05917200000002 14.836000000000013C116.05917200000002 14.745000000000005 116.04617200000001 14.653999999999996 116.020172 14.602000000000004C116.00717200000001 14.563000000000017 115.994172 14.485000000000014 115.994172 14.342000000000013C115.994172 13.939000000000021 116.57917200000001 13.79600000000002 117.07317200000001 13.79600000000002C117.51517100000001 13.79600000000002 118.12617200000001 14.016999999999996 118.12617200000001 15.486000000000018C118.12617200000001 15.576999999999998 118.08717200000001 15.629000000000019 118.04817200000001 15.641999999999996L116.93017200000001 15.91500000000002C115.682173 16.227000000000004 114.78517200000002 16.915999999999997 114.78517200000002 17.80000000000001C114.78517200000002 18.826999999999998 115.51317300000001 19.204000000000008 116.42317200000001 19.204000000000008C117.02117100000001 19.204000000000008 117.268172 19.099999999999994 117.84017200000001 18.658000000000015L118.10017200000001 18.450000000000017L118.12617200000001 18.450000000000017M121.35858100000002 14.953000000000003L121.35858100000002 17.488C121.35858100000002 18.567000000000007 121.20258000000001 18.619 120.39658100000001 18.67100000000002C120.31858100000001 18.748999999999995 120.31858100000001 19.02200000000002 120.39658100000001 19.099999999999994C120.94258100000002 19.087000000000018 121.35858200000001 19.074000000000012 121.87858100000001 19.074000000000012C122.41158100000001 19.074000000000012 122.892582 19.087000000000018 123.451581 19.099999999999994C123.52958100000001 19.02200000000002 123.52958100000001 18.748999999999995 123.451581 18.67100000000002C122.541582 18.605999999999995 122.38558100000002 18.567000000000007 122.38558100000002 17.488L122.38558100000002 15.681000000000012C122.38558100000002 15.343000000000018 122.54158100000001 15.044000000000011 122.69758100000001 14.810000000000002C122.84058100000001 14.602000000000004 123.139581 14.173000000000002 123.29558100000001 14.173000000000002C123.386581 14.173000000000002 123.490581 14.186000000000007 123.56858100000001 14.26400000000001C123.69858100000002 14.394000000000005 123.82858100000001 14.64100000000002 124.10158100000001 14.64100000000002C124.41358100000001 14.64100000000002 124.71258100000001 14.316000000000003 124.71258100000001 13.991000000000014C124.71258100000001 13.744 124.47858100000002 13.367000000000019 123.93258100000001 13.367000000000019C123.321582 13.367000000000019 122.78858100000001 13.939000000000021 122.48958100000002 14.445999999999998C122.41158100000001 14.588999999999999 122.37258100000001 14.524000000000001 122.37258100000001 14.459000000000003C122.37258100000001 14.043000000000006 122.43758100000001 13.419000000000011 122.43758100000001 13.419000000000011C122.43758100000001 13.367000000000019 122.37258100000001 13.328000000000003 122.26858100000001 13.328000000000003C121.90458100000001 13.471000000000004 121.38458000000001 13.587999999999994 120.487581 13.705000000000013C120.46158100000001 13.783000000000015 120.46158100000001 13.991000000000014 120.51358100000002 14.069000000000017C121.21558000000002 14.134000000000015 121.35858100000002 14.238 121.35858100000002 14.953000000000003M126.19323300000002 15.408000000000015C126.440233 13.939000000000021 127.350233 13.822000000000003 127.66223300000001 13.822000000000003C128.15623200000002 13.822000000000003 128.74123300000002 14.094999999999999 128.74123300000002 15.187000000000012C128.74123300000002 15.304000000000002 128.689233 15.369 128.546233 15.369L126.19323300000002 15.408000000000015M129.59923300000003 17.86500000000001C129.118233 18.35900000000001 128.74123200000002 18.567000000000007 127.987233 18.567000000000007C127.51923300000001 18.567000000000007 126.97323200000001 18.29400000000001 126.570233 17.631C126.31023300000001 17.201999999999998 126.154233 16.604000000000013 126.154233 15.849999999999994L129.612233 15.876000000000005C129.768233 15.876000000000005 129.85923300000002 15.798000000000002 129.85923300000002 15.655000000000001C129.85923300000002 14.563000000000017 129.469231 13.393 127.66223300000001 13.393C126.53123400000001 13.393 125.062233 14.472000000000008 125.062233 16.448000000000008C125.062233 17.176000000000016 125.24423300000001 17.878000000000014 125.67323300000001 18.372000000000014C126.11523200000002 18.891999999999996 126.726234 19.204000000000008 127.66223300000001 19.204000000000008C128.65023200000002 19.204000000000008 129.352233 18.748999999999995 129.872233 18.073000000000008C129.833233 17.943000000000012 129.755233 17.878000000000014 129.59923300000003 17.86500000000001M132.366689 15.369C132.366689 15.082999999999998 132.48368900000003 14.927000000000021 132.587689 14.810000000000002C133.081688 14.329000000000008 133.653689 14.043000000000006 134.17368900000002 14.043000000000006C134.43368900000002 14.043000000000006 134.706689 14.224999999999994 134.86268900000002 14.510999999999996C134.992689 14.771000000000015 135.018689 15.122000000000014 135.018689 15.512L135.018689 17.488C135.018689 18.554000000000002 134.888688 18.605999999999995 134.212689 18.67100000000002C134.147689 18.748999999999995 134.147689 19.02200000000002 134.212689 19.099999999999994C134.758688 19.087000000000018 135.018689 19.074000000000012 135.538689 19.074000000000012C136.071688 19.074000000000012 136.35769000000002 19.087000000000018 136.91668900000002 19.099999999999994C136.98168900000002 19.02200000000002 136.98168900000002 18.748999999999995 136.91668900000002 18.67100000000002C136.18869 18.605999999999995 136.045689 18.554000000000002 136.045689 17.488L136.045689 15.551000000000016C136.045689 14.836000000000013 135.99368900000002 14.212000000000018 135.694689 13.808999999999997C135.473689 13.522999999999996 135.07068800000002 13.367000000000019 134.615689 13.367000000000019C133.96569 13.367000000000019 133.276688 13.536000000000001 132.48368900000003 14.420000000000016C132.431689 14.472000000000008 132.353689 14.602000000000004 132.353689 14.420000000000016L132.366689 11.495000000000005C132.366689 10.650000000000006 132.418689 10.129999999999995 132.418689 10.129999999999995C132.418689 10.039000000000016 132.366689 10 132.24968900000002 10C131.924689 10.129999999999995 130.949688 10.312000000000012 130.429689 10.350999999999999C130.403689 10.455000000000013 130.429689 10.663000000000011 130.50768900000003 10.741000000000014C131.18368800000002 10.780000000000001 131.33968900000002 10.715000000000003 131.33968900000002 11.807000000000016L131.33968900000002 17.488C131.33968900000002 18.567000000000007 131.18368800000002 18.619 130.429689 18.67100000000002C130.35168900000002 18.748999999999995 130.35168900000002 19.02200000000002 130.429689 19.099999999999994C130.962688 19.087000000000018 131.30069 19.074000000000012 131.859689 19.074000000000012C132.366688 19.074000000000012 132.58769 19.087000000000018 133.133689 19.099999999999994C133.211689 19.02200000000002 133.211689 18.748999999999995 133.133689 18.67100000000002C132.48369000000002 18.619 132.366689 18.567000000000007 132.366689 17.488L132.366689 15.369M138.071934 11.287000000000006C138.071934 11.625 138.383935 11.962999999999994 138.69593400000002 11.962999999999994C139.059934 11.962999999999994 139.371934 11.625 139.371934 11.338999999999999C139.371934 11.027000000000015 139.098934 10.663000000000011 138.74793400000001 10.663000000000011C138.435935 10.663000000000011 138.071934 10.974999999999994 138.071934 11.287000000000006M139.25493400000002 17.488L139.25493400000002 14.90100000000001C139.25493400000002 14.251000000000005 139.306934 13.419000000000011 139.306934 13.419000000000011C139.306934 13.367000000000019 139.24193400000001 13.328000000000003 139.137934 13.328000000000003C138.76093500000002 13.471000000000004 138.25393300000002 13.587999999999994 137.35693400000002 13.705000000000013C137.330934 13.783000000000015 137.35693400000002 13.991000000000014 137.382934 14.069000000000017C138.084934 14.14700000000002 138.227934 14.212000000000018 138.227934 14.953000000000003L138.227934 17.488C138.227934 18.567000000000007 138.084934 18.605999999999995 137.29193400000003 18.67100000000002C137.213934 18.748999999999995 137.213934 19.02200000000002 137.29193400000003 19.099999999999994C137.83793400000002 19.087000000000018 138.175935 19.074000000000012 138.74793400000001 19.074000000000012C139.306934 19.074000000000012 139.631935 19.087000000000018 140.19093400000003 19.099999999999994C140.268934 19.02200000000002 140.268934 18.748999999999995 140.19093400000003 18.67100000000002C139.39793500000002 18.619 139.25493400000002 18.567000000000007 139.25493400000002 17.488 " id="tagline" style="font-size:13px;font-style:normal;font-variant:normal;font-weight:normal;font-stretch:normal;letter-spacing:-0.2;word-spacing:-1.5;fill:#000000;fill-opacity:1;stroke:none;stroke-width:1px;stroke-linecap:butt;stroke-linejoin:miter;stroke-opacity:1;font-family:Sans;-inkscape-font-specification:Sans"></path>
</svg>