<?xml version="1.0" encoding="UTF-8" standalone="no"?>
<svg
	xmlns="http://www.w3.org/2000/svg"
	xmlns:dc="http://purl.org/dc/elements/1.1/"
	xmlns:cc="http://creativecommons.org/ns#"
	xmlns:rdf="http://www.w3.org/1999/02/22-rdf-syntax-ns#"
	xmlns:svg="http://www.w3.org/2000/svg"
	xmlns:xlink="http://www.w3.org/1999/xlink"
	xmlns:sodipodi="http://sodipodi.sourceforge.net/DTD/sodipodi-0.dtd"
	xmlns:inkscape="http://www.inkscape.org/namespaces/inkscape"
	version="1.1"
	viewBox="0 0 146.77597891206156 32.115999999999985">
	<path d="M13.40922891206155 19.204000000000008C14.670227912061563 19.204000000000008 15.944229912061559 18.605999999999995 17.062228912061556 17.448999999999984C17.023228912061555 17.331999999999994 16.945228912061552 17.25399999999999 16.80222891206155 17.25399999999999C15.671229912061563 18.268 14.70922791206155 18.670999999999992 13.500228912061559 18.670999999999992C11.485230912061553 18.670999999999992 10.952229912061554 16.629999999999995 11.329228912061552 14.732C11.550228912061556 13.614000000000004 12.005229912061552 12.742999999999995 12.603228912061553 12.157999999999987C13.422227912061558 11.365000000000009 14.241229912061556 11.001000000000005 14.91722891206156 11.001000000000005C16.711226912061562 11.001000000000005 17.218228912061562 12.067000000000007 17.335228912061552 13.185000000000002C17.478228912061553 13.236999999999995 17.595228912061557 13.198000000000008 17.77722891206156 13.120000000000005C17.842228912061557 12.443999999999988 17.868228912061554 11.819999999999993 17.894228912061564 11.10499999999999C17.244229912061556 11.039999999999992 16.763227912061552 10.519999999999982 15.16422891206156 10.519999999999982C14.059229912061554 10.519999999999982 13.045227912061563 10.923000000000002 12.148228912061555 11.625C11.10822991206156 12.418000000000006 10.367228912061563 13.62700000000001 10.094228912061553 14.978999999999985C9.678229912061553 17.072000000000003 10.614231912061555 19.204000000000008 13.40922891206155 19.204000000000008M21.644525912061553 14.081999999999994C21.878525912061562 14.394000000000005 21.917525912061564 14.796999999999997 21.722525912061556 15.823999999999984C20.578526912061562 15.914999999999992 19.681524912061562 16.084000000000003 19.05752591206155 16.408999999999992C18.53752691206155 16.681999999999988 18.06952591206155 17.22800000000001 17.96552591206155 17.74799999999999C17.861525912061552 18.293999999999983 17.95252591206156 18.722999999999985 18.368525912061557 18.97C18.60252591206155 19.13899999999998 19.070526912061553 19.204000000000008 19.53852591206156 19.204000000000008C20.019525912061553 19.204000000000008 20.721526912061563 19.008999999999986 21.436525912061555 18.397999999999996C21.618525912061557 18.24199999999999 21.69652591206156 18.189999999999998 21.774525912061563 18.306999999999988C21.98252591206156 18.619 22.37252691206156 19.204000000000008 23.555525912061555 19.204000000000008C24.41352491206156 19.204000000000008 25.27152691206156 18.697000000000003 25.79152591206156 17.995000000000005C25.752525912061557 17.930000000000007 25.674525912061554 17.799999999999983 25.570525912061555 17.787000000000006C25.089526912061558 18.24199999999999 24.569524912061553 18.567000000000007 23.867525912061552 18.567000000000007C22.892526912061555 18.567000000000007 22.359525912061557 17.409999999999997 22.59352591206155 16.24000000000001C25.59652291206156 16.200999999999993 26.298525912061564 15.719999999999999 26.506525912061562 14.667000000000002C26.597525912061556 14.224999999999994 26.194524912061553 13.36699999999999 24.71252591206155 13.36699999999999C23.971526912061563 13.36699999999999 23.23052591206155 13.692000000000007 22.68452591206156 14.276999999999987C22.372525912061562 13.406000000000006 21.384525912061562 13.36699999999999 21.07252591206155 13.36699999999999C20.00652691206156 13.36699999999999 18.875525912061562 13.938999999999993 18.719525912061556 14.692999999999984C18.667525912061564 14.953000000000003 18.719525912061556 15.277999999999992 19.122525912061562 15.277999999999992C19.44752591206155 15.277999999999992 19.68152591206156 15.056999999999988 19.72052591206156 14.84899999999999C19.733525912061552 14.757999999999981 19.746525912061557 14.667000000000002 19.733525912061552 14.615000000000009C19.707525912061556 14.575999999999993 19.72052591206156 14.484999999999985 19.746525912061557 14.35499999999999C19.811525912061555 13.978000000000009 20.344526912061554 13.795999999999992 20.85152591206156 13.795999999999992C21.124525912061557 13.795999999999992 21.48852591206156 13.887 21.644525912061553 14.081999999999994M21.631525912061562 16.278999999999996C21.501525912061553 16.929000000000002 21.397525912061553 17.358000000000004 21.30652591206156 17.60499999999999C21.007525912061553 18.125 20.21452591206156 18.657999999999987 19.798525912061564 18.657999999999987C19.070526912061553 18.657999999999987 18.81052591206155 18.24199999999999 18.914525912061563 17.682999999999993C18.97952591206156 17.39699999999999 19.18752591206156 17.11099999999999 19.564525912061555 16.87700000000001C20.006525912061562 16.578000000000003 20.708526912061558 16.357 21.631525912061562 16.278999999999996M22.69752591206155 15.784999999999997C23.022525912061553 14.680000000000007 23.724526912061563 13.795999999999992 24.608525912061552 13.795999999999992C25.232524912061564 13.795999999999992 25.59652591206155 14.289999999999992 25.505525912061557 14.705999999999989C25.34952591206155 15.498999999999995 24.68652391206156 15.758999999999986 22.69752591206155 15.784999999999997M29.16502591206155 15.031000000000006C29.594025912061554 14.341999999999985 30.309026912061555 13.965000000000003 30.751025912061557 13.965000000000003C31.54402491206156 13.965000000000003 31.947025912061555 14.796999999999997 31.635025912061558 16.370000000000005C31.401025912061556 17.488 30.90702491206156 18.762 29.51602591206155 18.762C29.308025912061552 18.762 28.87902591206155 18.73599999999999 28.52802591206155 18.203000000000003L29.16502591206155 15.031000000000006M29.477025912061563 13.496999999999986L29.451025912061553 13.471000000000004C29.451025912061553 13.471000000000004 29.15202591206156 13.496999999999986 28.97002591206156 13.496999999999986C28.515026912061558 13.496999999999986 27.63102591206156 13.471000000000004 27.63102591206156 13.471000000000004L27.605025912061564 13.496999999999986L27.553025912061557 13.744C27.54002591206155 13.808999999999997 27.566025912061562 13.847999999999985 27.63102591206156 13.847999999999985L27.87802591206156 13.873999999999995C28.294025912061556 13.925999999999988 28.398025912061556 14.081999999999994 28.320025912061553 14.445999999999998L26.981025912061554 21.14099999999999C26.916025912061556 21.504999999999995 26.695025912061553 21.674000000000007 26.305025912061552 21.712999999999994L26.058025912061552 21.739000000000004C25.993025912061555 21.75200000000001 25.941025912061562 21.77799999999999 25.928025912061557 21.84299999999999L25.889025912061555 22.090000000000003L25.90202591206156 22.115999999999985C25.90202591206156 22.115999999999985 26.799026912061564 22.090000000000003 27.25402591206155 22.090000000000003C27.761025912061555 22.090000000000003 28.645025912061556 22.115999999999985 28.645025912061556 22.115999999999985L28.684025912061557 22.090000000000003L28.72302591206156 21.84299999999999C28.736025912061564 21.77799999999999 28.697025912061562 21.75200000000001 28.63202591206155 21.739000000000004L28.38502591206155 21.712999999999994C27.98202591206156 21.674000000000007 27.87802591206156 21.504999999999995 27.943025912061557 21.14099999999999L28.38502591206155 18.918000000000006C28.697025912061562 19.099999999999994 29.035026912061554 19.204000000000008 29.50302591206156 19.204000000000008C30.179024912061557 19.204000000000008 30.76402691206156 18.983000000000004 31.37502591206156 18.476C32.07702491206156 17.877999999999986 32.57102591206156 17.072000000000003 32.779025912061556 16.019000000000005C33.05202591206156 14.640999999999991 32.48002491206156 13.36699999999999 31.219025912061554 13.36699999999999C30.803025912061557 13.36699999999999 30.075024912061558 13.496999999999986 29.29502591206156 14.406999999999982L29.25602591206156 14.406999999999982L29.477025912061563 13.496999999999986M35.651416912061556 13.496999999999986C35.09241691206156 13.496999999999986 34.234416912061555 13.471000000000004 34.234416912061555 13.471000000000004L34.19541691206156 13.496999999999986L34.130416912061555 13.782999999999987C34.130416912061555 13.835000000000008 34.143416912061554 13.847999999999985 34.19541691206156 13.847999999999985L34.585416912061554 13.873999999999995C35.05341591206156 13.912999999999982 35.07941691206155 14.016999999999996 34.962416912061556 14.562999999999988L34.26041691206156 18.073000000000008C34.16941691206156 18.52799999999999 34.104415912061555 18.670999999999992 33.62341691206156 18.697000000000003L33.207416912061554 18.722999999999985C33.16841691206156 18.73599999999999 33.142416912061556 18.748999999999995 33.12941691206156 18.787999999999982L33.07741691206156 19.073999999999984L33.090416912061556 19.099999999999994C33.610415912061555 19.08699999999999 33.97441691206156 19.073999999999984 34.533416912061554 19.073999999999984C34.94941591206155 19.073999999999984 35.066416912061555 19.08699999999999 35.58641691206156 19.099999999999994L35.59941691206156 19.073999999999984L35.651416912061556 18.800999999999988C35.664416912061554 18.748999999999995 35.63841691206156 18.73599999999999 35.58641691206156 18.722999999999985C35.15741691206156 18.683999999999997 35.14441691206156 18.540999999999997 35.209416912061556 18.228999999999985L35.209416912061556 18.203000000000003L38.53741691206156 14.978999999999985L37.926416912061555 18.046999999999997C37.835416912061554 18.50200000000001 37.744415912061555 18.670999999999992 37.26341691206156 18.697000000000003L36.847416912061554 18.722999999999985C36.80841691206156 18.73599999999999 36.78241691206156 18.748999999999995 36.76941691206156 18.787999999999982L36.71741691206156 19.073999999999984L36.743416912061555 19.099999999999994C37.263415912061554 19.08699999999999 37.61441691206156 19.073999999999984 38.173416912061555 19.073999999999984C38.75841591206156 19.073999999999984 39.148416912061556 19.08699999999999 39.66841691206156 19.099999999999994L39.68141691206156 19.073999999999984L39.73341691206156 18.800999999999988C39.746416912061555 18.748999999999995 39.72041691206156 18.73599999999999 39.66841691206156 18.722999999999985L39.29141691206156 18.697000000000003C38.83641691206156 18.670999999999992 38.79741691206156 18.52799999999999 38.901416912061556 18.046999999999997L39.603416912061554 14.549999999999983C39.707416912061554 14.00399999999999 39.75941691206156 13.912999999999982 40.25341691206156 13.873999999999995L40.643416912061554 13.847999999999985C40.69541691206156 13.847999999999985 40.734416912061555 13.822000000000003 40.74741691206156 13.769999999999982L40.79941691206156 13.496999999999986L40.786416912061554 13.471000000000004C40.786416912061554 13.471000000000004 39.87641591206156 13.496999999999986 39.29141691206156 13.496999999999986C38.92741691206156 13.496999999999986 38.34241691206156 13.471000000000004 38.34241691206156 13.471000000000004L38.316416912061555 13.496999999999986L38.25141691206156 13.782999999999987C38.25141691206156 13.835000000000008 38.264416912061556 13.847999999999985 38.30341691206156 13.847999999999985C38.74541591206156 13.887 38.706416912061556 14.108000000000004 38.654416912061556 14.419999999999987L35.32641691206155 17.644000000000005L35.950416912061556 14.549999999999983C36.054416912061555 14.016999999999996 36.106416912061555 13.912999999999982 36.61341691206156 13.873999999999995L37.00341691206156 13.847999999999985C37.05541691206156 13.847999999999985 37.094416912061554 13.822000000000003 37.10741691206156 13.769999999999982L37.15941691206156 13.496999999999986L37.133416912061556 13.471000000000004C37.133416912061556 13.471000000000004 36.223415912061554 13.496999999999986 35.651416912061556 13.496999999999986M42.33565091206156 16.019000000000005C42.465650912061555 15.34299999999999 43.06365191206156 13.757000000000005 44.389650912061555 13.757000000000005C45.40364991206156 13.757000000000005 45.78065091206156 14.99199999999999 45.468650912061555 16.551999999999992C45.14365091206156 18.189999999999998 44.259649912061555 18.813999999999993 43.557650912061554 18.813999999999993C42.491651912061556 18.813999999999993 41.971650912061556 17.86500000000001 42.33565091206156 16.019000000000005M41.25665091206156 15.733000000000004C40.76265191206156 18.24199999999999 41.98465191206156 19.22999999999999 43.245650912061556 19.22999999999999C44.88364891206156 19.22999999999999 46.23565091206156 17.787000000000006 46.547650912061556 16.24000000000001C46.82065091206156 14.835999999999984 46.443648912061555 13.328000000000003 44.61065091206156 13.328000000000003C43.37565191206156 13.328000000000003 42.569650912061554 13.965000000000003 42.15365091206156 14.588999999999999L42.075650912061555 14.562999999999988C42.24465091206156 14.030000000000001 42.556650912061556 13.444999999999993 42.816650912061554 13.107C43.37565091206156 12.391999999999996 43.921651912061556 12.105999999999995 45.14365091206156 11.962999999999994C46.33964991206156 11.832999999999998 47.249650912061554 11.455999999999989 47.66565091206156 10L47.37965091206156 10C47.145650912061555 10.623999999999995 46.40464991206156 10.793000000000006 45.29965091206156 10.961999999999989C44.20765191206156 11.131 43.20664991206156 11.754999999999995 42.45265091206156 12.781999999999982C41.802651912061556 13.665999999999997 41.46465091206156 14.705999999999989 41.25665091206156 15.733000000000004M50.817744912061556 16.044999999999987L50.46674491206156 17.774C50.427744912061556 17.942999999999984 50.336744912061555 18.033999999999992 50.21974491206156 18.111999999999995C49.82974491206156 18.38499999999999 49.322743912061554 18.670999999999992 48.958744912061555 18.670999999999992C48.308744912061556 18.670999999999992 48.126744912061554 18.150999999999982 48.20474491206156 17.74799999999999C48.321744912061554 17.162999999999982 48.71174591206156 16.578000000000003 49.72574491206156 16.317999999999984L50.817744912061556 16.044999999999987M50.336744912061555 18.44999999999999C50.34974491206156 18.722999999999985 50.47974591206156 19.204000000000008 51.18174491206155 19.204000000000008C51.81874391206156 19.204000000000008 52.39074491206156 18.683999999999997 52.403744912061555 18.619C52.41674491206156 18.52799999999999 52.32574491206156 18.397999999999996 52.27374491206156 18.397999999999996C52.195744912061556 18.397999999999996 52.104744912061555 18.605999999999995 51.83174491206156 18.605999999999995C51.324744912061554 18.605999999999995 51.415744912061555 18.09899999999999 51.53274491206156 17.501000000000005L51.92274491206156 15.563999999999993C52.28674391206156 13.71799999999999 51.35074391206156 13.36699999999999 50.40174491206156 13.36699999999999C49.335745912061554 13.36699999999999 48.10074491206156 14.108000000000004 47.970744912061555 14.810000000000002C47.90574491206156 15.121999999999986 48.03574491206156 15.264999999999986 48.33474491206156 15.264999999999986C48.71174391206156 15.264999999999986 48.958744912061555 15.004999999999995 48.98474491206156 14.835999999999984C49.010744912061554 14.745000000000005 49.010744912061554 14.653999999999996 48.997744912061556 14.602000000000004C48.98474491206156 14.562999999999988 48.997744912061556 14.484999999999985 49.02374491206156 14.341999999999985C49.101744912061555 13.938999999999993 49.71274491206156 13.795999999999992 50.20674491206156 13.795999999999992C50.648743912061555 13.795999999999992 51.220744912061555 14.016999999999996 50.921744912061556 15.48599999999999C50.90874491206156 15.576999999999998 50.85674491206156 15.62899999999999 50.817744912061556 15.641999999999996L49.647744912061555 15.914999999999992C48.33474591206156 16.227000000000004 47.29474491206156 16.915999999999997 47.125744912061556 17.799999999999983C46.91774491206156 18.826999999999998 47.567745912061554 19.204000000000008 48.47774491206156 19.204000000000008C49.075743912061554 19.204000000000008 49.348744912061555 19.099999999999994 49.998744912061554 18.657999999999987L50.31074491206156 18.44999999999999L50.336744912061555 18.44999999999999M55.36815091206156 15.031000000000006C55.797150912061554 14.341999999999985 56.512151912061555 13.965000000000003 56.95415091206156 13.965000000000003C57.74714991206156 13.965000000000003 58.150150912061555 14.796999999999997 57.83815091206156 16.370000000000005C57.604150912061556 17.488 57.11014991206156 18.762 55.71915091206156 18.762C55.51115091206156 18.762 55.08215091206156 18.73599999999999 54.73115091206156 18.203000000000003L55.36815091206156 15.031000000000006M55.680150912061556 13.496999999999986L55.65415091206156 13.471000000000004C55.65415091206156 13.471000000000004 55.35515091206155 13.496999999999986 55.17315091206156 13.496999999999986C54.71815191206156 13.496999999999986 53.83415091206156 13.471000000000004 53.83415091206156 13.471000000000004L53.808150912061556 13.496999999999986L53.75615091206156 13.744C53.74315091206156 13.808999999999997 53.769150912061555 13.847999999999985 53.83415091206156 13.847999999999985L54.08115091206156 13.873999999999995C54.49715091206156 13.925999999999988 54.601150912061556 14.081999999999994 54.52315091206156 14.445999999999998L53.184150912061554 21.14099999999999C53.119150912061556 21.504999999999995 52.89815091206156 21.674000000000007 52.50815091206156 21.712999999999994L52.26115091206156 21.739000000000004C52.196150912061555 21.75200000000001 52.144150912061555 21.77799999999999 52.13115091206156 21.84299999999999L52.092150912061555 22.090000000000003L52.10515091206155 22.115999999999985C52.10515091206155 22.115999999999985 53.00215191206156 22.090000000000003 53.45715091206156 22.090000000000003C53.964150912061555 22.090000000000003 54.848150912061556 22.115999999999985 54.848150912061556 22.115999999999985L54.88715091206156 22.090000000000003L54.92615091206156 21.84299999999999C54.93915091206156 21.77799999999999 54.900150912061555 21.75200000000001 54.83515091206156 21.739000000000004L54.58815091206156 21.712999999999994C54.18515091206156 21.674000000000007 54.08115091206156 21.504999999999995 54.14615091206156 21.14099999999999L54.58815091206156 18.918000000000006C54.900150912061555 19.099999999999994 55.238151912061554 19.204000000000008 55.70615091206156 19.204000000000008C56.38214991206156 19.204000000000008 56.96715191206156 18.983000000000004 57.57815091206156 18.476C58.28014991206156 17.877999999999986 58.77415091206156 17.072000000000003 58.982150912061556 16.019000000000005C59.25515091206156 14.640999999999991 58.68314991206156 13.36699999999999 57.422150912061554 13.36699999999999C57.00615091206156 13.36699999999999 56.27814991206156 13.496999999999986 55.498150912061554 14.406999999999982L55.45915091206156 14.406999999999982L55.680150912061556 13.496999999999986M62.77754191206156 18.00799999999998C62.647541912061556 18.697000000000003 63.466542912061556 19.204000000000008 64.64954191206155 19.204000000000008C65.93653991206156 19.204000000000008 67.41854191206156 18.293999999999983 67.83454191206155 16.200999999999993C68.14654091206155 14.627999999999986 67.66553991206156 13.36699999999999 65.93654191206156 13.36699999999999C65.32554191206155 13.36699999999999 64.75354091206155 13.574999999999989 64.10354191206156 13.614000000000004C63.96054191206156 14.108000000000004 63.81754091206156 14.549999999999983 63.55754191206155 15.174000000000007L63.86954191206156 15.225999999999999C64.25954091206155 14.394000000000005 64.79254291206155 13.769999999999982 65.75454191206155 13.769999999999982C66.91154091206155 13.769999999999982 67.06754091206156 14.888000000000005 66.83354191206155 16.084000000000003L66.79454191206156 16.109999999999985C66.49554191206155 15.901999999999987 66.17054091206155 15.74600000000001 65.79354191206156 15.74600000000001C65.23454191206156 15.74600000000001 64.81854091206156 16.109999999999985 64.36354191206155 16.109999999999985C64.19454191206155 16.109999999999985 64.05154191206155 16.031999999999982 63.96054191206156 16.031999999999982C63.882541912061555 16.031999999999982 63.830541912061555 16.162000000000006 63.81754191206156 16.214C63.778541912061556 16.395999999999987 64.33754191206155 16.629999999999995 64.89654191206156 16.629999999999995C65.48154091206156 16.629999999999995 65.76754191206156 16.343999999999994 66.26154191206156 16.343999999999994C66.43054191206156 16.343999999999994 66.58654191206156 16.395999999999987 66.72954191206156 16.460999999999984C66.41754191206155 18.00799999999998 65.68954091206156 18.775000000000006 64.59754191206156 18.775000000000006C64.07754191206155 18.775000000000006 63.778541912061556 18.462999999999994 63.70054191206155 18.111999999999995C63.583541912061555 17.709000000000003 63.453540912061555 17.631 63.232541912061556 17.631C62.998541912061555 17.631 62.82954191206156 17.799999999999983 62.77754191206156 18.00799999999998M72.89986991206156 18.073000000000008C72.80886991206155 18.567000000000007 72.71786891206156 18.670999999999992 72.24986991206156 18.697000000000003L71.89886991206156 18.722999999999985C71.85986991206155 18.73599999999999 71.83386991206156 18.748999999999995 71.82086991206155 18.787999999999982L71.76886991206156 19.073999999999984L71.78186991206155 19.099999999999994C72.17186891206156 19.08699999999999 72.71786991206156 19.073999999999984 73.18586991206155 19.073999999999984C73.66686891206156 19.073999999999984 74.13486991206156 19.08699999999999 74.52486991206156 19.099999999999994L74.55086991206156 19.073999999999984L74.60286991206155 18.800999999999988C74.61586991206156 18.748999999999995 74.58986991206156 18.73599999999999 74.53786991206155 18.722999999999985L74.29086991206155 18.697000000000003C73.84886991206156 18.657999999999987 73.77086991206156 18.59299999999999 73.87486991206156 18.073000000000008L74.60286991206155 14.484999999999985C74.70686991206156 13.951999999999998 74.79786991206156 13.925999999999988 75.25286991206156 13.873999999999995L75.51286991206156 13.847999999999985C75.56486991206155 13.847999999999985 75.60386991206155 13.822000000000003 75.61686991206156 13.769999999999982L75.66886991206155 13.496999999999986L75.65586991206156 13.471000000000004C75.26586991206156 13.484000000000009 74.78486891206155 13.496999999999986 74.30386991206156 13.496999999999986C73.83586991206155 13.496999999999986 73.30286891206156 13.484000000000009 72.91286991206155 13.471000000000004L72.88686991206156 13.496999999999986L72.82186991206156 13.782999999999987C72.82186991206156 13.835000000000008 72.83486991206155 13.847999999999985 72.87386991206156 13.847999999999985L73.21186991206156 13.873999999999995C73.61486891206155 13.912999999999982 73.71886991206156 13.990999999999985 73.62786991206156 14.484999999999985L73.34186991206155 15.876000000000005L70.67686991206156 15.876000000000005L70.96286991206156 14.484999999999985C71.06686991206155 13.951999999999998 71.15786991206156 13.925999999999988 71.61286991206156 13.873999999999995L71.87286991206156 13.847999999999985C71.92486991206155 13.847999999999985 71.96386991206155 13.822000000000003 71.97686991206156 13.769999999999982L72.02886991206155 13.496999999999986L72.01586991206156 13.471000000000004C71.62586991206156 13.484000000000009 71.13186891206155 13.496999999999986 70.65086991206155 13.496999999999986C70.18286991206156 13.496999999999986 69.66286891206155 13.484000000000009 69.27286991206157 13.471000000000004L69.24686991206156 13.496999999999986L69.18186991206156 13.782999999999987C69.18186991206156 13.835000000000008 69.19486991206156 13.847999999999985 69.23386991206155 13.847999999999985L69.57186991206156 13.873999999999995C69.97486891206155 13.912999999999982 70.07886991206155 13.990999999999985 69.98786991206156 14.484999999999985L69.25986991206156 18.073000000000008C69.16886991206155 18.567000000000007 69.07786891206156 18.670999999999992 68.60986991206155 18.697000000000003L68.25886991206156 18.722999999999985C68.21986991206155 18.73599999999999 68.19386991206156 18.748999999999995 68.18086991206155 18.787999999999982L68.12886991206156 19.073999999999984L68.14186991206157 19.099999999999994C68.53186891206155 19.08699999999999 69.06486991206155 19.073999999999984 69.53286991206156 19.073999999999984C70.01386891206155 19.073999999999984 70.49486991206156 19.08699999999999 70.88486991206156 19.099999999999994L70.91086991206156 19.073999999999984L70.96286991206156 18.800999999999988C70.97586991206155 18.748999999999995 70.94986991206156 18.73599999999999 70.89786991206157 18.722999999999985L70.65086991206155 18.697000000000003C70.20886991206156 18.657999999999987 70.13086991206156 18.59299999999999 70.23486991206155 18.073000000000008L70.58586991206155 16.317999999999984L73.25086991206156 16.317999999999984L72.89986991206156 18.073000000000008M80.76019791206156 14.49799999999999L80.08419791206155 17.930000000000007C79.99319791206156 18.371999999999986 79.91519691206156 18.567000000000007 79.43419791206156 18.567000000000007L77.87419791206156 18.567000000000007C77.41919791206155 18.567000000000007 77.38019791206156 18.411 77.48419791206156 17.930000000000007L78.17319791206155 14.484999999999985C78.27719791206155 13.951999999999998 78.35519791206156 13.925999999999988 78.81019791206155 13.873999999999995L79.08319791206156 13.847999999999985C79.13519791206156 13.847999999999985 79.17419791206156 13.822000000000003 79.18719791206155 13.769999999999982L79.23919791206156 13.496999999999986L79.21319791206156 13.471000000000004C79.21319791206156 13.471000000000004 78.38119691206155 13.496999999999986 77.86119791206156 13.496999999999986C77.31519791206156 13.496999999999986 76.47019791206156 13.471000000000004 76.47019791206156 13.471000000000004L76.45719791206156 13.496999999999986L76.39219791206156 13.782999999999987C76.39219791206156 13.835000000000008 76.40519791206155 13.847999999999985 76.45719791206156 13.847999999999985L76.79519791206155 13.873999999999995C77.22419791206156 13.912999999999982 77.28919791206155 13.990999999999985 77.19819791206156 14.484999999999985L76.47019791206156 18.125C76.36619791206155 18.632000000000005 76.28819691206155 18.644999999999982 75.83319791206156 18.697000000000003L75.59919791206156 18.722999999999985C75.56019791206155 18.73599999999999 75.53419791206156 18.748999999999995 75.52119791206155 18.800999999999988L75.46919791206156 19.073999999999984L75.49519791206156 19.099999999999994C75.49519791206156 19.099999999999994 76.31419791206156 19.073999999999984 76.70419791206156 19.073999999999984L79.86319791206155 19.073999999999984C80.89019691206155 19.073999999999984 81.07219791206155 20.114000000000004 81.08519791206156 20.751000000000005L81.41019791206156 20.738L81.68319791206156 19.008999999999986C81.70919791206155 18.787999999999982 81.57919791206156 18.762 81.35819791206156 18.722999999999985C81.13719791206155 18.683999999999997 80.94219791206156 18.476 81.02019791206156 18.085999999999984L81.73519791206155 14.49799999999999C81.85219791206156 13.965000000000003 81.94319791206155 13.912999999999982 82.39819791206156 13.873999999999995L82.72319791206155 13.847999999999985C82.77519791206156 13.847999999999985 82.81419791206156 13.822000000000003 82.81419791206156 13.782999999999987L82.87919791206156 13.496999999999986L82.85319791206156 13.471000000000004C82.85319791206156 13.471000000000004 81.99519691206156 13.496999999999986 81.44919791206155 13.496999999999986C80.92919791206155 13.496999999999986 80.12319791206156 13.471000000000004 80.12319791206156 13.471000000000004L80.11019791206155 13.496999999999986L80.04519791206155 13.782999999999987C80.04519791206155 13.835000000000008 80.05819791206156 13.847999999999985 80.09719791206156 13.847999999999985L80.37019791206156 13.873999999999995C80.79919791206156 13.925999999999988 80.86419791206156 13.990999999999985 80.76019791206156 14.49799999999999M85.13774471206156 13.496999999999986C84.57874531206156 13.496999999999986 83.72074471206156 13.471000000000004 83.72074471206156 13.471000000000004L83.68174471206156 13.496999999999986L83.61674491206156 13.782999999999987C83.61674491206156 13.835000000000008 83.62974481206156 13.847999999999985 83.68174471206156 13.847999999999985L84.07174471206156 13.873999999999995C84.53974431206156 13.912999999999982 84.56574461206156 14.016999999999996 84.44874471206155 14.562999999999988L83.74674471206156 18.073000000000008C83.65574481206156 18.52799999999999 83.59074391206155 18.670999999999992 83.10974491206156 18.697000000000003L82.69374491206156 18.722999999999985C82.65474491206156 18.73599999999999 82.62874491206156 18.748999999999995 82.61574491206156 18.787999999999982L82.56374491206155 19.073999999999984L82.57674491206156 19.099999999999994C83.09674391206156 19.08699999999999 83.46074491206156 19.073999999999984 84.01974471206155 19.073999999999984C84.43574431206156 19.073999999999984 84.55274521206155 19.08699999999999 85.07274471206156 19.099999999999994L85.08574471206155 19.073999999999984L85.13774471206156 18.800999999999988C85.15074471206155 18.748999999999995 85.12474471206156 18.73599999999999 85.07274471206156 18.722999999999985C84.64374521206156 18.683999999999997 84.63074481206155 18.540999999999997 84.69574471206155 18.228999999999985L84.69574471206155 18.203000000000003L88.02374471206156 14.978999999999985L87.41274471206155 18.046999999999997C87.32174481206155 18.50200000000001 87.23074421206155 18.670999999999992 86.74974471206156 18.697000000000003L86.33374471206156 18.722999999999985C86.29474481206155 18.73599999999999 86.26874471206156 18.748999999999995 86.25574471206156 18.787999999999982L86.20374471206156 19.073999999999984L86.22974471206156 19.099999999999994C86.74974421206156 19.08699999999999 87.10074531206156 19.073999999999984 87.65974471206155 19.073999999999984C88.24474411206155 19.073999999999984 88.63474521206156 19.08699999999999 89.15474471206156 19.099999999999994L89.16774471206156 19.073999999999984L89.21974471206155 18.800999999999988C89.23274471206156 18.748999999999995 89.20674471206155 18.73599999999999 89.15474471206156 18.722999999999985L88.77774471206156 18.697000000000003C88.32274521206156 18.670999999999992 88.28374481206156 18.52799999999999 88.38774471206156 18.046999999999997L89.08974471206156 14.549999999999983C89.19374461206155 14.00399999999999 89.24574521206156 13.912999999999982 89.73974471206155 13.873999999999995L90.12974471206155 13.847999999999985C90.18174471206156 13.847999999999985 90.22074471206156 13.822000000000003 90.23374471206155 13.769999999999982L90.28574471206156 13.496999999999986L90.27274471206155 13.471000000000004C90.27274471206155 13.471000000000004 89.36274411206156 13.496999999999986 88.77774471206156 13.496999999999986C88.41374511206156 13.496999999999986 87.82874471206156 13.471000000000004 87.82874471206156 13.471000000000004L87.80274471206155 13.496999999999986L87.73774471206156 13.782999999999987C87.73774471206156 13.835000000000008 87.75074481206155 13.847999999999985 87.78974471206156 13.847999999999985C88.23174431206155 13.887 88.19274471206155 14.108000000000004 88.14074471206156 14.419999999999987L84.81274471206156 17.644000000000005L85.43674471206155 14.549999999999983C85.54074461206156 14.016999999999996 85.59274521206156 13.912999999999982 86.09974471206155 13.873999999999995L86.48974471206155 13.847999999999985C86.54174471206156 13.847999999999985 86.58074471206156 13.822000000000003 86.59374471206155 13.769999999999982L86.64574471206156 13.496999999999986L86.61974471206156 13.471000000000004C86.61974471206156 13.471000000000004 85.70974421206155 13.496999999999986 85.13774471206156 13.496999999999986M90.05397911206155 19.073999999999984L90.07997911206155 19.099999999999994C90.07997911206155 19.099999999999994 90.96397961206156 19.073999999999984 91.41897911206156 19.073999999999984C91.92597861206156 19.073999999999984 92.67997911206156 19.099999999999994 92.67997911206156 19.099999999999994L92.70597911206156 19.073999999999984L92.75797911206156 18.826999999999998C92.77097910206156 18.762 92.71897906206156 18.73599999999999 92.66697911206155 18.722999999999985C92.39397941206155 18.683999999999997 92.01697921206156 18.605999999999995 92.10797911206156 18.176999999999992L92.47197911206156 16.357C93.43397815206156 16.421999999999997 93.62897921966156 16.889999999999986 93.73297911206156 17.60499999999999C93.81097904206156 18.176999999999992 94.03197976206155 19.073999999999984 94.68197911206155 19.08699999999999L95.61797911206156 19.099999999999994L95.65697911206156 19.073999999999984L95.70897911206156 18.840000000000003C95.72197911206156 18.748999999999995 95.63097911206155 18.722999999999985 95.57897911206156 18.722999999999985L95.48797911206155 18.710000000000008C95.03297961206155 18.644999999999982 94.72097901206156 17.51399999999998 94.61697911206156 17.019999999999982C94.47397926206156 16.38299999999998 94.05797841206156 16.09700000000001 93.35597911206156 16.09700000000001L93.36897911206155 16.044999999999987C93.87597861206156 15.901999999999987 94.26597941206155 15.460000000000008 94.56497911206155 14.939999999999998C94.78597891206155 14.537000000000006 95.08497921206155 14.251000000000005 95.21497911206156 14.251000000000005C95.33197901206155 14.251000000000005 95.42297921206156 14.289999999999992 95.48797911206155 14.341999999999985C95.56597901206156 14.406999999999982 95.66997931206156 14.459000000000003 95.82597911206156 14.459000000000003C96.09897881206156 14.459000000000003 96.37197921206156 14.224999999999994 96.42397911206156 13.965000000000003C96.47597911206155 13.652999999999992 96.39797861206156 13.379999999999995 95.86497911206156 13.379999999999995C95.24097971206156 13.379999999999995 94.68197871206155 14.081999999999994 94.31797911206155 14.692999999999984C93.88897954206156 15.407999999999987 93.43397824206156 15.901999999999987 92.56297911206156 15.901999999999987L92.86197911206156 14.419999999999987C92.95297902206156 13.951999999999998 93.23897949206156 13.887 93.61597911606155 13.847999999999985C93.66797906406156 13.847999999999985 93.73297913206156 13.782999999999987 93.74597911206156 13.71799999999999L93.79797911206155 13.496999999999986L93.77197911206156 13.471000000000004C93.77197911206156 13.471000000000004 93.04397861206155 13.496999999999986 92.53697911206156 13.496999999999986C92.08197961206156 13.496999999999986 91.19797911206156 13.471000000000004 91.19797911206156 13.471000000000004L91.17197911206156 13.496999999999986L91.11997911206156 13.744C91.10697911206155 13.808999999999997 91.14597921206156 13.835000000000008 91.19797911206156 13.847999999999985L91.44497911206156 13.873999999999995C91.84797871206156 13.912999999999982 91.95197901206156 14.081999999999994 91.87397911206156 14.445999999999998L91.13297911206156 18.150999999999982C91.06797921206156 18.514999999999986 90.95097861206156 18.644999999999982 90.48297911206156 18.697000000000003L90.22297911206155 18.722999999999985C90.15797921206156 18.73599999999999 90.11897911206155 18.762 90.10597911206156 18.826999999999998L90.05397911206155 19.073999999999984M96.00229161206155 18.476C95.92429171206156 18.87899999999999 96.19729221206156 19.22999999999999 96.76929161206155 19.22999999999999C97.39329101206155 19.22999999999999 97.80929201206156 18.905 98.23829161206156 18.189999999999998C98.60229121206156 17.566000000000003 98.94029181206156 16.24000000000001 99.10929161206155 15.355999999999995C99.31729141206156 14.341999999999985 99.42129211206155 14.00399999999999 99.91529161206155 14.00399999999999L100.50029161206156 14.00399999999999C100.96829111206156 14.00399999999999 100.98129151206156 14.186000000000007 100.89029161206156 14.627999999999986L100.20129161206155 18.111999999999995C100.12329171206156 18.489000000000004 99.99329111206156 18.644999999999982 99.52529161206155 18.697000000000003L99.26529161206156 18.722999999999985C99.20029171206156 18.73599999999999 99.16129161206156 18.762 99.14829161206156 18.826999999999998L99.09629161206156 19.073999999999984L99.12229161206156 19.099999999999994C99.12229161206156 19.099999999999994 100.00629211206156 19.073999999999984 100.47429161206156 19.073999999999984C100.98129111206156 19.073999999999984 101.86529161206155 19.099999999999994 101.86529161206155 19.099999999999994L101.89129161206156 19.073999999999984L101.94329161206156 18.826999999999998C101.95629161206156 18.762 101.90429161206156 18.722999999999985 101.85229161206155 18.722999999999985L101.61829161206155 18.697000000000003C101.20229201206156 18.657999999999987 101.09829171206155 18.489000000000004 101.17629161206156 18.111999999999995L101.90429161206156 14.484999999999985C101.99529151206156 13.990999999999985 102.04729211206156 13.912999999999982 102.55429161206156 13.873999999999995L102.91829161206155 13.847999999999985C102.99629151206156 13.847999999999985 103.03529161206156 13.822000000000003 103.04829161206156 13.757000000000005L103.10029161206155 13.496999999999986L103.06129161206155 13.471000000000004C103.06129161206155 13.471000000000004 102.17729101206156 13.496999999999986 101.61829161206155 13.496999999999986L99.35629161206155 13.496999999999986C98.83629211206156 13.496999999999986 98.01729161206156 13.471000000000004 98.01729161206156 13.471000000000004L97.97829161206155 13.496999999999986L97.93929161206155 13.704999999999984C97.91329161206156 13.822000000000003 97.96529181206155 13.835000000000008 98.17329161206156 13.847999999999985C98.90129091206155 13.900000000000006 98.90129131206156 14.081999999999994 98.62829161206156 15.447000000000003C98.35529191206156 16.811999999999983 98.10829131206155 17.526999999999987 97.83529161206155 18.060000000000002C97.57529191206156 18.52799999999999 97.34129141206155 18.697000000000003 97.13329161206156 18.697000000000003C96.97729181206155 18.697000000000003 96.93829161206156 18.59299999999999 96.95129161206155 18.424000000000007C96.96429161206156 18.189999999999998 96.95129131206156 17.930000000000007 96.60029161206155 17.930000000000007C96.28829191206155 17.930000000000007 96.06729151206156 18.189999999999998 96.00229161206155 18.476M103.42468221206155 16.408999999999992C103.16468251206156 17.734999999999985 103.76268391206156 19.204000000000008 105.59568191206156 19.204000000000008C107.53267991206155 19.204000000000008 108.67668291206155 17.591999999999985 108.93668191206156 16.292C109.20968191206155 14.939999999999998 108.80667991206155 13.36699999999999 106.79168191206156 13.36699999999999C105.03668391206156 13.36699999999999 103.74968191206156 14.757999999999981 103.42468221206155 16.408999999999992M106.55768191206155 13.795999999999992C107.67568091206155 13.795999999999992 108.11768191206156 14.796999999999997 107.72768191206156 16.708C107.38968291206156 18.424000000000007 106.53168191206156 18.775000000000006 105.92068191206155 18.775000000000006C104.56868391206156 18.775000000000006 104.39968291206156 17.11099999999999 104.60768191206155 16.109999999999985C104.82868191206155 14.978999999999985 105.46568291206155 13.795999999999992 106.55768191206155 13.795999999999992M111.19746391206155 14.510999999999996L110.48246391206156 18.085999999999984C110.39146391206155 18.540999999999997 110.28746291206156 18.670999999999992 109.83246391206156 18.697000000000003L109.42946391206155 18.722999999999985C109.37746391206156 18.73599999999999 109.35146391206156 18.748999999999995 109.33846391206156 18.787999999999982L109.28646391206155 19.073999999999984L109.31246391206156 19.099999999999994C109.31246391206156 19.099999999999994 110.19646391206156 19.073999999999984 110.76846391206155 19.073999999999984C111.31446291206156 19.073999999999984 112.18546391206155 19.099999999999994 112.18546391206155 19.099999999999994L112.19846391206156 19.073999999999984L112.25046391206156 18.800999999999988C112.26346391206155 18.748999999999995 112.23746391206156 18.73599999999999 112.19846391206156 18.722999999999985L111.86046391206156 18.697000000000003C111.41846391206155 18.670999999999992 111.36646391206156 18.579999999999984 111.45746391206156 18.085999999999984L112.17246391206156 14.510999999999996C112.26346291206156 14.055999999999983 112.53646391206155 14.00399999999999 112.80946391206156 14.00399999999999L114.38246391206155 14.00399999999999C114.64246291206156 14.00399999999999 114.91546291206156 14.030000000000001 114.81146391206155 14.510999999999996L114.09646391206155 18.085999999999984C114.00546391206156 18.540999999999997 113.90146291206156 18.670999999999992 113.44646391206156 18.697000000000003L113.08246391206156 18.722999999999985C113.04346391206155 18.73599999999999 113.01746391206156 18.748999999999995 113.00446391206155 18.787999999999982L112.95246391206156 19.073999999999984L112.96546391206155 19.099999999999994C112.96546391206155 19.099999999999994 113.83646391206156 19.073999999999984 114.39546391206156 19.073999999999984C114.95446291206156 19.073999999999984 115.85146391206156 19.099999999999994 115.85146391206156 19.099999999999994L115.86446391206155 19.073999999999984L115.91646391206156 18.800999999999988C115.92946391206155 18.748999999999995 115.90346391206155 18.73599999999999 115.85146391206156 18.722999999999985L115.47446391206155 18.697000000000003C115.01946391206155 18.670999999999992 114.96746391206156 18.579999999999984 115.05846391206155 18.085999999999984L115.77346391206156 14.49799999999999C115.89046291206157 13.965000000000003 115.92946391206155 13.912999999999982 116.43646391206155 13.873999999999995L116.82646391206156 13.847999999999985C116.87846391206156 13.847999999999985 116.91746391206155 13.822000000000003 116.93046391206155 13.769999999999982L116.98246391206156 13.496999999999986L116.96946391206156 13.471000000000004C116.96946391206156 13.471000000000004 116.05946291206156 13.496999999999986 115.47446391206155 13.496999999999986L111.87346391206155 13.496999999999986C111.31446391206156 13.496999999999986 110.44346391206156 13.471000000000004 110.44346391206156 13.471000000000004L110.41746391206155 13.496999999999986L110.35246391206155 13.782999999999987C110.35246391206155 13.835000000000008 110.36546391206156 13.847999999999985 110.40446391206156 13.847999999999985L110.79446391206156 13.873999999999995C111.23646291206155 13.912999999999982 111.31446291206156 13.965000000000003 111.19746391206155 14.510999999999996M118.58735391206156 15.407999999999987C119.13335391206155 13.938999999999993 120.06935491206156 13.822000000000003 120.38135391206156 13.822000000000003C120.87535391206156 13.822000000000003 121.40835391206156 14.094999999999999 121.18735391206155 15.186999999999983C121.16135391206156 15.304000000000002 121.09635391206156 15.369 120.95335391206156 15.369L118.58735391206156 15.407999999999987M121.51235391206156 17.86500000000001C120.92735491206156 18.35900000000001 120.51135291206155 18.567000000000007 119.75735391206156 18.567000000000007C119.28935491206155 18.567000000000007 118.79535391206156 18.293999999999983 118.52235391206156 17.631C118.35335391206155 17.201999999999998 118.31435391206156 16.603999999999985 118.47035391206155 15.849999999999994L121.91535391206156 15.876000000000005C122.07135391206155 15.876000000000005 122.17535391206155 15.798000000000002 122.21435391206155 15.655000000000001C122.42235391206155 14.562999999999988 122.26635191206155 13.393 120.45935391206156 13.393C119.32835491206156 13.393 117.65135391206155 14.472000000000008 117.24835391206156 16.448000000000008C117.10535391206156 17.175999999999988 117.14435491206156 17.877999999999986 117.48235391206155 18.371999999999986C117.82035391206156 18.891999999999996 118.36635491206155 19.204000000000008 119.30235391206156 19.204000000000008C120.29035291206156 19.204000000000008 121.08335491206157 18.748999999999995 121.73335391206156 18.073000000000008C121.72035391206155 17.942999999999984 121.65535391206156 17.877999999999986 121.51235391206156 17.86500000000001M122.03580691206156 20.738L122.37380691206155 20.751000000000005C122.58180691206155 20.269999999999982 123.15380791206155 19.073999999999984 124.24580691206155 19.073999999999984L126.35180691206156 19.073999999999984C127.43080591206156 19.073999999999984 127.57380691206156 20.21799999999999 127.57380691206156 20.738L127.89880691206156 20.738L128.17180691206156 18.99600000000001C128.21080691206157 18.813999999999993 128.13280691206154 18.775000000000006 127.89880691206156 18.722999999999985C127.69080791206156 18.683999999999997 127.41780691206156 18.567000000000007 127.50880691206156 18.085999999999984L128.23680691206155 14.484999999999985C128.31480691206156 14.043000000000006 128.47080791206156 13.938999999999993 128.95180691206156 13.873999999999995L129.17280691206156 13.847999999999985C129.21180691206155 13.847999999999985 129.27680691206155 13.808999999999997 129.28980691206155 13.757000000000005L129.34180691206154 13.496999999999986L129.32880691206157 13.471000000000004C129.32880691206157 13.471000000000004 128.37980691206155 13.496999999999986 127.95080691206155 13.496999999999986L125.48080691206155 13.496999999999986C125.25980791206156 13.496999999999986 124.24580691206155 13.471000000000004 124.24580691206155 13.471000000000004L124.20680691206155 13.496999999999986L124.14180691206155 13.782999999999987C124.14180691206155 13.835000000000008 124.16780691206156 13.847999999999985 124.21980691206156 13.847999999999985L124.57080691206156 13.873999999999995C125.01280691206156 13.912999999999982 125.03880691206156 14.173000000000002 125.01280691206156 14.329000000000008C124.70080791206155 15.876000000000005 124.21980691206156 17.058999999999997 123.76480691206156 18.163999999999987C123.62180691206156 18.514999999999986 123.23180691206156 18.683999999999997 122.88080691206156 18.722999999999985C122.69880791206155 18.748999999999995 122.52980691206156 18.775000000000006 122.46480691206156 19.008999999999986L122.03580691206156 20.738M124.15480691206156 18.411C124.20680691206155 18.189999999999998 124.70080791206155 17.293000000000006 125.48080691206155 14.329000000000008C125.49380691206156 14.276999999999987 125.61080791206156 13.990999999999985 125.90980691206155 13.990999999999985L126.83280691206156 13.990999999999985C127.31380691206155 13.990999999999985 127.31380691206155 14.186000000000007 127.22280691206156 14.627999999999986L126.57280691206157 17.930000000000007C126.48180691206156 18.35900000000001 126.40380691206155 18.567000000000007 125.92280691206156 18.567000000000007L124.37580691206156 18.567000000000007C124.24580691206155 18.567000000000007 124.12880691206155 18.554000000000002 124.15480691206156 18.411M131.62797891206156 13.496999999999986C131.06897991206156 13.496999999999986 130.21097891206156 13.471000000000004 130.21097891206156 13.471000000000004L130.17197891206155 13.496999999999986L130.10697891206155 13.782999999999987C130.10697891206155 13.835000000000008 130.11997891206155 13.847999999999985 130.17197891206155 13.847999999999985L130.56197891206156 13.873999999999995C131.02997891206155 13.912999999999982 131.05597891206156 14.016999999999996 130.93897891206154 14.562999999999988L130.23697891206155 18.073000000000008C130.14597891206157 18.52799999999999 130.08097891206157 18.670999999999992 129.59997891206154 18.697000000000003L129.18397891206155 18.722999999999985C129.14497891206156 18.73599999999999 129.11897891206155 18.748999999999995 129.10597891206157 18.787999999999982L129.05397891206155 19.073999999999984L129.06697891206156 19.099999999999994C129.58697891206157 19.08699999999999 129.95097991206154 19.073999999999984 130.50997891206157 19.073999999999984C130.92597891206157 19.073999999999984 131.04297991206155 19.08699999999999 131.56297891206157 19.099999999999994L131.57597891206154 19.073999999999984L131.62797891206156 18.800999999999988C131.64097891206154 18.748999999999995 131.61497891206156 18.73599999999999 131.56297891206157 18.722999999999985C131.13397991206156 18.683999999999997 131.12097891206156 18.540999999999997 131.18597891206156 18.228999999999985L131.18597891206156 18.203000000000003L134.51397891206156 14.978999999999985L133.90297891206154 18.046999999999997C133.81197891206156 18.50200000000001 133.72097891206155 18.670999999999992 133.23997891206156 18.697000000000003L132.82397891206156 18.722999999999985C132.78497891206155 18.73599999999999 132.75897891206156 18.748999999999995 132.74597891206156 18.787999999999982L132.69397891206157 19.073999999999984L132.71997891206155 19.099999999999994C133.23997891206156 19.08699999999999 133.59097991206156 19.073999999999984 134.14997891206156 19.073999999999984C134.73497891206156 19.073999999999984 135.12497991206155 19.08699999999999 135.64497891206156 19.099999999999994L135.65797891206157 19.073999999999984L135.70997891206156 18.800999999999988C135.72297891206156 18.748999999999995 135.69697891206155 18.73599999999999 135.64497891206156 18.722999999999985L135.26797891206155 18.697000000000003C134.81297991206156 18.670999999999992 134.77397891206155 18.52799999999999 134.87797891206156 18.046999999999997L135.57997891206156 14.549999999999983C135.68397891206155 14.00399999999999 135.73597991206157 13.912999999999982 136.22997891206154 13.873999999999995L136.61997891206155 13.847999999999985C136.67197891206155 13.847999999999985 136.71097891206156 13.822000000000003 136.72397891206157 13.769999999999982L136.77597891206156 13.496999999999986L136.76297891206156 13.471000000000004C136.76297891206156 13.471000000000004 135.85297891206156 13.496999999999986 135.26797891206155 13.496999999999986C134.90397991206157 13.496999999999986 134.31897891206157 13.471000000000004 134.31897891206157 13.471000000000004L134.29297891206156 13.496999999999986L134.22797891206156 13.782999999999987C134.22797891206156 13.835000000000008 134.24097891206156 13.847999999999985 134.27997891206155 13.847999999999985C134.72197891206156 13.887 134.68297891206157 14.108000000000004 134.63097891206155 14.419999999999987L131.30297891206155 17.644000000000005L131.92697891206154 14.549999999999983C132.03097891206156 14.016999999999996 132.08297991206155 13.912999999999982 132.58997891206155 13.873999999999995L132.97997891206154 13.847999999999985C133.03197891206156 13.847999999999985 133.07097891206155 13.822000000000003 133.08397891206155 13.769999999999982L133.13597891206155 13.496999999999986L133.10997891206156 13.471000000000004C133.10997891206156 13.471000000000004 132.19997891206157 13.496999999999986 131.62797891206156 13.496999999999986 " id="tagline" transform="matrix(0.9722583,0,0,0.9722583,87.177116,-66.770628)" style="font-size:13px;font-style:normal;font-variant:normal;font-weight:normal;font-stretch:normal;fill:#000000;fill-opacity:1;stroke:none;stroke-width:1px;stroke-linecap:butt;stroke-linejoin:miter;stroke-opacity:1;font-family:Sans;-inkscape-font-specification:Sans"></path>
</svg>