<?xml version="1.0" encoding="UTF-8" standalone="no"?>
<svg
	xmlns="http://www.w3.org/2000/svg"
	xmlns:dc="http://purl.org/dc/elements/1.1/"
	xmlns:cc="http://creativecommons.org/ns#"
	xmlns:rdf="http://www.w3.org/1999/02/22-rdf-syntax-ns#"
	xmlns:svg="http://www.w3.org/2000/svg"
	xmlns:xlink="http://www.w3.org/1999/xlink"
	xmlns:sodipodi="http://sodipodi.sourceforge.net/DTD/sodipodi-0.dtd"
	xmlns:inkscape="http://www.inkscape.org/namespaces/inkscape"
	version="1.1"
	viewBox="0 0 127.3983443908831 32.11591687277141">
	<g transform="translate(0.0088838,-3.92612)" id="The_Free_Encyclopedia"><path d="M11.748477999999997 19.07395687277139L14.513542999999997 19.07395687277139C14.644410999999996 19.074276872771378 14.831013999999998 19.076956872771376 15.073353999999997 19.080956872771395C15.315682999999998 19.084956872771386 15.538300999999995 19.088956872771405 15.741207999999995 19.093456872771384C15.944103999999994 19.097456872771374 16.051841999999994 19.099456872771384 16.064422999999998 19.10045687277139C16.130502999999997 18.76787687277138 16.193330999999993 18.409296872771392 16.252919999999996 18.024716872771393C16.3125 17.640146872771396 16.362328999999995 17.27506687277139 16.402417999999997 16.929486872771406C16.276314 16.865586872771416 16.133316 16.843886872771407 15.973424 16.86448687277141C15.854795000000001 17.3449368727714 15.679297 17.745766872771412 15.446931000000001 18.066966872771417C15.214553 18.388176872771425 14.857058 18.55500687277143 14.374445 18.567466872771405L12.905463 18.567466872771405C12.715067 18.565466872771395 12.566110999999998 18.507566872771406 12.458594 18.393586872771408C12.351072 18.2795768727714 12.296363999999999 18.120866872771416 12.294471 17.9174668727714L12.294471 12.2755468727714C12.284671000000001 11.756636872771395 12.359471000000001 11.429476872771403 12.518717999999998 11.294056872771392C12.677963999999998 11.158646872771385 12.980208999999997 11.091486872771384 13.425457 11.092556872771382C13.464446999999998 11.045456872771382 13.483956999999998 10.973946872771393 13.483956999999998 10.87806687277137C13.483952999999998 10.78216687277137 13.464456999999998 10.710696872771365 13.425457 10.663566872771383C13.117790999999999 10.670566872771388 12.839377999999998 10.676266872771379 12.590217 10.68146687277138C12.341052 10.686466872771376 12.056139 10.68946687277139 11.735479000000002 10.68946687277139C11.421856000000002 10.689206872771393 11.142360000000002 10.686466872771405 10.896989000000001 10.68146687277138C10.651617000000002 10.676466872771385 10.37212 10.670366872771382 10.0585 10.663566872771383C10.0195 10.710666872771384 10 10.78219687277138 10 10.87806687277137C10 10.97396687277137 10.0195 11.045446872771379 10.0585 11.092556872771382C10.503744000000001 11.091556872771378 10.80599 11.158656872771388 10.965238000000001 11.294056872771392C11.124485000000002 11.429476872771403 11.199234 11.756636872771395 11.189486 12.2755468727714L11.189486 17.4884768727714C11.199186000000001 18.007386872771406 11.124486000000001 18.334546872771398 10.965238000000001 18.46996687277141C10.805989 18.605376872771416 10.503744000000001 18.67254687277142 10.0585 18.67146687277142C10.0195 18.71856687277142 10 18.79008687277141 10 18.88595687277143C10 18.98185687277143 10.0195 19.05333687277144 10.0585 19.100456872771417C10.407599000000001 19.093456872771412 10.768886 19.087756872771422 11.142361000000001 19.08255687277142C11.515834000000002 19.077556872771424 11.717873 19.07455687277141 11.748478 19.07455687277141Z " id="path10376"></path><path d="M20.076531999999997 16.044996872771378L20.076531999999997 17.773976872771385C20.075431999999996 17.857076872771387 20.058111999999998 17.924826872771376 20.024531999999997 17.977096872771398C19.990941999999997 18.0293968727714 19.947611999999996 18.074296872771384 19.894532999999996 18.111966872771404C19.721739999999997 18.254696872771405 19.534325999999997 18.381986872771392 19.332289999999997 18.493836872771396C19.130247999999998 18.605696872771404 18.936334 18.664736872771385 18.750548 18.6709668727714C18.427175 18.657666872771415 18.189928 18.554236872771412 18.038807 18.360586872771393C17.887681999999998 18.166946872771405 17.812932999999997 17.96274687277139 17.81456 17.747976872771403C17.80606 17.448386872771408 17.89196 17.168776872771417 18.072282 16.909156872771405C18.252598000000003 16.649546872771396 18.578352000000002 16.452486872771402 19.049544 16.317996872771403ZM20.076531999999997 18.44996687277137C20.108971999999998 18.60081687277136 20.198779999999996 18.760606872771376 20.345952999999998 18.92933687277136C20.493118 19.098056872771366 20.736973 19.189596872771347 21.077519 19.203956872771357C21.402238999999998 19.183656872771365 21.666027 19.094266872771357 21.868883999999998 18.935836872771347C22.07173 18.777396872771334 22.17627 18.671776872771346 22.182505 18.618966872771352C22.178705 18.569966872771346 22.157045 18.521766872771366 22.117504999999998 18.474336872771346C22.077955 18.426936872771336 22.043294999999997 18.40143687277134 22.013505999999996 18.39793687277134C21.980785999999995 18.406936872771325 21.938315999999997 18.441236872771327 21.886107999999997 18.501936872771353C21.833887999999998 18.56263687277135 21.742019999999997 18.59723687277136 21.610510999999995 18.605936872771366C21.367029999999996 18.59693687277138 21.216989999999996 18.48784687277137 21.160391999999995 18.27768687277137C21.103781999999995 18.067526872771367 21.080491999999996 17.808606872771378 21.090521999999993 17.50094687277138L21.090521999999993 15.563976872771377C21.06804199999999 14.664816872771382 20.859498999999992 14.067916872771377 20.464904999999995 13.77324687277138C20.070301999999995 13.478586872771388 19.624515999999996 13.34317687277138 19.127546999999996 13.36699687277138C18.571801999999995 13.383296872771382 18.081058999999996 13.536006872771367 17.655315999999996 13.825246872771373C17.229569999999995 14.114496872771383 17.005322999999997 14.442736872771377 16.982574999999997 14.809976872771387C16.982844999999998 14.965446872771395 17.021304999999998 15.080276872771378 17.097948 15.154476872771397C17.174588 15.228676872771388 17.287799 15.2655168727714 17.437569 15.264976872771399C17.626336 15.257976872771394 17.768792 15.207276872771388 17.864938 15.113856872771407C17.961077999999997 15.020456872771405 18.009289 14.92779687277141 18.009562 14.835976872771397C18.00956 14.789676872771395 18.006262 14.745776872771387 17.999762 14.704356872771399C17.993262 14.662956872771389 17.983512 14.62875687277139 17.970512 14.601986872771391C17.963712 14.582986872771386 17.957781999999998 14.552686872771403 17.952631999999998 14.510986872771383C17.947532 14.469286872771391 17.944732 14.41298687277137 17.944532 14.341986872771372C17.958612 14.142936872771372 18.076696 14.001556872771374 18.298778 13.917866872771384C18.520856 13.834166872771391 18.762435999999997 13.793566872771379 19.023519 13.795996872771383C19.260762 13.774596872771383 19.491509 13.872696872771371 19.715759000000002 14.090116872771375C19.940003 14.30759687277137 20.060251 14.77288687277138 20.076505 15.485976872771374C20.075689 15.531476872771378 20.067605 15.567276872771373 20.052125 15.593216872771364C20.036685 15.619216872771375 20.018805 15.635516872771376 19.998505 15.641916872771361L18.880519000000003 15.914916872771357C18.245150000000002 16.074706872771344 17.731658000000003 16.317376872771348 17.340039000000004 16.642906872771363C16.948418000000004 16.968446872771352 16.746921000000004 17.354106872771354 16.735547000000004 17.79989687277137C16.746917000000003 18.307696872771373 16.906169000000006 18.670066872771372 17.213291000000005 18.887006872771366C17.520411000000006 19.103936872771357 17.907155000000007 19.209566872771376 18.373526000000005 19.20387687277136C18.658436000000005 19.208876872771356 18.897850000000005 19.172976872771358 19.091766000000007 19.096626872771367C19.285678000000008 19.02022687277136 19.518591000000008 18.87400687277136 19.790508000000006 18.65788687277137L20.050504000000007 18.449886872771373Z " id="path10378"></path><path d="M25.893971999999998 17.487976872771384C25.904532 18.00688687277139 25.847662 18.33404687277138 25.723349 18.46946687277139C25.599037 18.6048768727714 25.343915 18.672046872771404 24.957984 18.6709668727714C24.918984 18.718066872771402 24.899484 18.789586872771395 24.899484 18.885456872771414C24.899484 18.981356872771414 24.918984000000002 19.052836872771422 24.957984 19.0999568727714C25.221771 19.092956872771396 25.461184 19.087256872771405 25.676224 19.082056872771403C25.891262 19.077056872771408 26.137175000000003 19.074056872771394 26.413965 19.074056872771394C26.683709 19.074326872771394 26.924206 19.07705687277138 27.135455 19.082056872771403C27.346700000000002 19.0870568727714 27.587197 19.093156872771402 27.856946 19.0999568727714C27.895946000000002 19.0528568727714 27.915446 18.981336872771408 27.915446 18.885456872771414C27.915443 18.789556872771414 27.895946 18.71808687277141 27.856946 18.6709668727714C27.471011 18.671966872771407 27.215889 18.604866872771396 27.091581 18.46946687277139C26.967268 18.33404687277138 26.910394 18.00688687277139 26.920958000000002 17.487976872771384L26.920958000000002 11.495056872771386C26.923158 11.068506872771394 26.931788 10.735386872771386 26.946958000000002 10.49569687277139C26.962118000000004 10.256016872771397 26.970788000000002 10.134146872771396 26.972958000000002 10.130076872771383C26.975158 10.041276872771391 26.918788000000003 9.997916872771384 26.803960000000004 10.000076872771388C26.618439000000002 10.06917687277138 26.339485000000003 10.139016872771379 25.967095000000004 10.209696872771389C25.594703000000003 10.280396872771377 25.267000000000003 10.327516872771383 24.983983000000006 10.351066872771383C24.970983000000004 10.407966872771397 24.970983000000004 10.476196872771396 24.983983000000006 10.555816872771373C24.996983000000007 10.635416872771373 25.022983000000007 10.697196872771372 25.061983000000005 10.74106687277137C25.392395000000004 10.734066872771365 25.615558000000004 10.780366872771367 25.731475000000003 10.879186872771356C25.847388000000002 10.978086872771343 25.901554000000004 11.287336872771363 25.893973000000003 11.807046872771366Z " id="path10380"></path><path d="M28.856706000000003 11.287056872771387C28.863206000000005 11.463106872771391 28.928206000000003 11.618016872771392 29.051704 11.751796872771394C29.175201 11.885596872771401 29.318199 11.956016872771386 29.480698000000004 11.9630468727714C29.668110000000006 11.954046872771414 29.826275000000003 11.884446872771406 29.955192000000004 11.753916872771413C30.084104000000004 11.62335687277141 30.151270000000004 11.485066872771426 30.156690000000005 11.339056872771408C30.152590000000004 11.17439687277141 30.0925 11.022736872771418 29.976317 10.884066872771399C29.860129 10.745406872771412 29.712256000000004 10.67173687277139 29.532698000000003 10.663066872771395C29.368031000000002 10.6700668727714 29.216367000000005 10.734566872771381 29.077703000000007 10.858066872771388C28.939037000000006 10.981566872771396 28.865372000000008 11.124566872771396 28.85670600000001 11.287056872771387ZM30.039691000000005 17.487976872771384L30.039691000000005 14.897106872771388C30.041891000000007 14.552866872771375 30.050521000000003 14.225756872771399 30.065691000000008 13.915786872771378C30.08085100000001 13.605826872771388 30.089521000000005 13.44023687277138 30.09169100000001 13.419026872771383C30.091147000000014 13.392526872771384 30.075981000000013 13.370826872771374 30.046191000000015 13.354026872771385C30.016401000000016 13.337226872771396 29.975231000000015 13.328526872771391 29.922693000000017 13.328026872771375C29.74245300000002 13.399026872771373 29.51143500000002 13.465076872771363 29.22963900000002 13.526276872771376C28.947839000000023 13.58747687277139 28.58519800000002 13.647076872771379 28.14171500000002 13.705026872771384C28.12979500000002 13.74942687277138 28.12763500000002 13.810116872771374 28.13521500000002 13.887026872771372C28.14281500000002 13.963926872771367 28.15363500000002 14.024606872771386 28.16771500000002 14.069016872771385C28.51288700000002 14.088516872771379 28.742280000000022 14.151516872771396 28.85589400000002 14.258006872771375C28.96950500000002 14.364476872771377 29.021776000000024 14.596146872771385 29.01270400000002 14.953006872771368L29.01270400000002 17.487976872771355C29.02326400000002 18.005266872771358 28.966394000000022 18.329176872771342 28.84208100000002 18.459716872771367C28.71776900000002 18.590256872771363 28.462648000000023 18.660666872771372 28.076716000000022 18.670966872771373C28.03771600000002 18.718066872771374 28.018216000000024 18.789586872771366 28.018216000000024 18.885456872771385C28.018216000000024 18.981356872771386 28.037716000000025 19.052836872771394 28.076716000000022 19.099956872771372C28.340504000000024 19.092956872771367 28.579917000000023 19.087256872771377 28.794957000000025 19.082056872771375C29.009995000000025 19.07705687277138 29.255908000000026 19.074056872771365 29.532698000000025 19.074056872771365C29.802442000000028 19.074326872771366 30.042939000000025 19.07705687277135 30.254188000000028 19.082056872771375C30.465433000000026 19.08705687277137 30.705929000000026 19.093156872771374 30.975679000000028 19.099956872771372C31.01467900000003 19.052856872771372 31.03417900000003 18.98133687277138 31.03417900000003 18.885456872771385C31.03417600000003 18.789556872771385 31.01467900000003 18.71808687277138 30.975679000000028 18.670966872771373C30.589743000000027 18.665966872771378 30.334622000000024 18.59756687277138 30.210314000000025 18.464586872771378C30.086001000000024 18.331616872771377 30.029126000000026 18.006076872771388 30.039691000000026 17.487976872771384Z " id="path10382"></path><path d="M33.077989 14.355016872771387C33.248339 14.206876872771375 33.427628000000006 14.100166872771382 33.615857000000005 14.034896872771384C33.804081000000004 13.969596872771376 33.993120000000005 13.937696872771397 34.182975000000006 13.938996872771384C34.59002900000001 13.952796872771387 34.929649000000005 14.165686872771374 35.201837000000005 14.577606872771383C35.474016000000006 14.98954687277137 35.61538900000001 15.517666872771372 35.62595700000001 16.161966872771387C35.62676400000001 16.918666872771382 35.47564200000001 17.537236872771388 35.172588000000005 18.017686872771378C34.869525 18.498146872771372 34.409656000000005 18.746226872771388 33.79298000000001 18.76192687277137C33.593917000000005 18.756926872771373 33.42004500000001 18.695626872771356 33.27136200000001 18.57830687277138C33.12267400000001 18.461036872771388 32.98455100000001 18.31858687277139 32.85699200000001 18.150936872771382L32.85699200000001 14.900976872771395C32.85569200000001 14.768056872771382 32.871592000000014 14.661466872771399 32.90460200000001 14.581186872771383C32.93761200000001 14.500886872771389 32.99541200000001 14.425516872771396 33.077987000000014 14.354986872771377ZM32.986989 13.952026872771398C32.902709 14.025926872771407 32.859372 14.004226872771397 32.85699 13.8870268727714L32.85699 11.495056872771414C32.859190000000005 11.068506872771422 32.86782 10.735386872771414 32.88299000000001 10.495696872771418C32.89815000000001 10.256016872771426 32.90682 10.134146872771424 32.90899000000001 10.130076872771411C32.91119000000001 10.04127687277142 32.85482000000001 9.997916872771412 32.73999200000001 10.000076872771416C32.55447100000001 10.069176872771408 32.27551700000001 10.139016872771407 31.903127000000005 10.209696872771417C31.530736000000005 10.280396872771405 31.203032000000007 10.327516872771412 30.920015000000006 10.351066872771412C30.90701500000001 10.407966872771425 30.90701500000001 10.476196872771425 30.920015000000006 10.555816872771402C30.933015000000005 10.635416872771401 30.959015000000008 10.6971968727714 30.99801500000001 10.741066872771398C31.328427000000012 10.734066872771393 31.55159100000001 10.780366872771395 31.66750600000001 10.879186872771385C31.78342100000001 10.978086872771371 31.837587000000013 11.287336872771391 31.830005000000007 11.807046872771394L31.830005000000007 18.15096687277139C31.83027400000001 18.399866872771383 31.826505000000004 18.5943168727714 31.818625000000004 18.734336872771394C31.810725000000005 18.874356872771386 31.797225000000005 18.987566872771396 31.778005000000007 19.07395687277139C31.808605000000007 19.125956872771383 31.844895000000008 19.1649568727714 31.886879000000008 19.19095687277138C31.92885900000001 19.21695687277139 31.98789700000001 19.229956872771368 32.06400200000001 19.229956872771368C32.10527200000001 19.19115687277136 32.15402200000001 19.144256872771365 32.21025000000001 19.089066872771355C32.26647000000001 19.03386687277134 32.32042200000001 18.976866872771353 32.37209800000001 18.917956872771356C32.43652800000001 18.84075687277135 32.494538000000006 18.800206872771355 32.54613300000001 18.796406872771342C32.59772300000001 18.792406872771352 32.65801100000001 18.821006872771335 32.726993000000014 18.881506872771354C32.876218000000016 19.00470687277135 33.04673200000001 19.089806872771362 33.23853600000002 19.136796872771356C33.43033500000002 19.183796872771353 33.64114900000002 19.206196872771358 33.870978000000015 19.203896872771367C34.570799000000015 19.19689687277136 35.215373000000014 18.90895687277137 35.80470300000002 18.34102687277138C36.39402300000002 17.773106872771393 36.70710200000002 16.968736872771387 36.74394100000002 15.927936872771369C36.71875100000002 15.127366872771375 36.47662700000002 14.502296872771382 36.01757600000002 14.052706872771381C35.55851400000002 13.603136872771387 35.033647000000016 13.374556872771393 34.44297100000002 13.366966872771371C34.16349800000002 13.36896687277138 33.90149800000002 13.42056687277136 33.65696800000002 13.522966872771377C33.41243400000002 13.625346872771388 33.18910800000002 13.768346872771389 32.98699000000002 13.95196687277138Z " id="path10384"></path><path d="M38.426436 15.40800687277138C38.576203 14.699246872771369 38.812908 14.251296872771377 39.136552 14.064146872771374C39.460191 13.877006872771375 39.713146 13.796296872771364 39.895417 13.822026872771374C40.156493000000005 13.810626872771365 40.398073000000004 13.901626872771374 40.620157 14.095016872771367C40.842234 14.288396872771358 40.960316 14.652396872771362 40.974403 15.187006872771377C40.975211 15.24560687277139 40.960583 15.290246872771377 40.930533000000004 15.320906872771388C40.900463 15.351606872771384 40.850093 15.367606872771375 40.779410000000006 15.369006872771394ZM41.832392000000006 17.864976872771393C41.60191100000001 18.1103468727714 41.36737300000001 18.28909687277138 41.12877600000001 18.401216872771386C40.89017100000001 18.51333687277139 40.58738300000001 18.56858687277139 40.22041300000001 18.56696687277139C39.98180800000001 18.568966872771398 39.73752000000001 18.4962668727714 39.487547000000006 18.347586872771387C39.23756900000001 18.198906872771374 39.009530000000005 17.960036872771383 38.803431 17.630976872771384C38.672347 17.416206872771397 38.570515 17.16000687277139 38.497935000000005 16.862356872771386C38.425355 16.564716872771385 38.388518000000005 16.227266872771395 38.38743600000001 15.849996872771385L41.84539200000001 15.875996872771395C41.92393200000001 15.875726872771395 41.98459300000001 15.856796872771383 42.027389000000014 15.819096872771382C42.07017900000001 15.781396872771381 42.091839000000014 15.726696872771385 42.09238900000001 15.654966872771382C42.11377900000001 15.082986872771386 41.973489000000015 14.569486872771392 41.67151900000001 14.11448687277138C41.36953900000001 13.65949687277137 40.77750600000001 13.419006872771376 39.89541700000001 13.392996872771391C39.29227600000001 13.396996872771382 38.71757600000001 13.658956872771398 38.17131400000001 14.179486872771378C37.62504900000001 14.700026872771389 37.33309500000001 15.456186872771383 37.29545000000001 16.447956872771385C37.29405000000001 16.8157468727714 37.34230000000001 17.165656872771393 37.44007400000001 17.4976968727714C37.53784400000001 17.829736872771406 37.69329900000001 18.12114687277139 37.90644200000001 18.371936872771386C38.12418800000001 18.63409687277138 38.393934000000016 18.837766872771397 38.715682000000015 18.982926872771372C39.03742500000001 19.12809687277138 39.43067000000001 19.20175687277137 39.895417000000016 19.203926872771376C40.38724000000001 19.19892687277138 40.814067000000016 19.095046872771377 41.17590000000001 18.891926872771364C41.53772400000001 18.68880687277135 41.84755300000001 18.415806872771356 42.10538800000001 18.07293687277135C42.08669800000001 18.008236872771363 42.05581800000001 17.95891687277134 42.012768000000015 17.92506687277134C41.969698000000015 17.891266872771325 41.90957700000001 17.87116687277134 41.83239600000002 17.864966872771333Z " id="path10386"></path><path d="M43.528893 14.953006872771397L43.528893 17.487976872771384C43.539182999999994 18.006076872771388 43.479603 18.331616872771377 43.350145999999995 18.464586872771378C43.220687999999996 18.59756687277138 42.959607999999996 18.666356872771388 42.566905999999996 18.670966872771373C42.527905999999994 18.718066872771374 42.508405999999994 18.789586872771366 42.508405999999994 18.885456872771385C42.508405999999994 18.981356872771386 42.527905999999994 19.052836872771394 42.566905999999996 19.099956872771372C42.835027 19.092956872771367 43.085272999999994 19.087256872771377 43.317645999999996 19.082056872771375C43.550017 19.07705687277138 43.793763 19.074056872771365 44.04888699999999 19.074056872771365C44.312673 19.074326872771366 44.571585999999996 19.07705687277135 44.82562699999999 19.082056872771375C45.07966199999999 19.08705687277137 45.34507499999999 19.093156872771374 45.62186599999999 19.099956872771372C45.66086599999999 19.052856872771372 45.68036599999999 18.98133687277138 45.68036599999999 18.885456872771385C45.68036299999999 18.789556872771385 45.66086599999999 18.71808687277138 45.62186599999999 18.670966872771373C45.17932699999999 18.660666872771372 44.88791399999999 18.590266872771366 44.74762699999999 18.459716872771367C44.607334999999985 18.32917687277137 44.543418999999986 18.005266872771358 44.55587999999999 17.487976872771355L44.55587999999999 15.680996872771345C44.55907999999999 15.511466872771337 44.59162999999999 15.353296872771352 44.653379999999984 15.206506872771342C44.71512999999999 15.059716872771332 44.78662499999999 14.927556872771333 44.867876999999986 14.81000687277134C44.94560699999999 14.692476872771351 45.04364299999999 14.56030687277135 45.16199799999998 14.41351687277134C45.28034799999998 14.26672687277133 45.38163799999998 14.186566872771351 45.465868999999984 14.173016872771342C45.51217899999998 14.172016872771337 45.55929899999998 14.177016872771333 45.60724299999998 14.18921687277134C45.655172999999984 14.201116872771337 45.699052999999985 14.22601687277134 45.73886599999998 14.263916872771347C45.80088599999998 14.336516872771341 45.87183899999998 14.415586872771343 45.95173799999998 14.501166872771336C46.03162799999998 14.586766872771335 46.138335999999974 14.633336872771338 46.27185899999998 14.640916872771328C46.43381099999998 14.633916872771323 46.574641999999976 14.566416872771327 46.69435299999998 14.43778687277134C46.814054999999975 14.309156872771354 46.87688799999998 14.160196872771337 46.88285099999998 13.990926872771354C46.884450999999984 13.856296872771367 46.82272099999998 13.721266872771366 46.69760299999998 13.585816872771346C46.57247599999998 13.450376872771358 46.37422799999998 13.377416872771335 46.10286099999998 13.366926872771359C45.79411099999998 13.380226872771345 45.514614999999985 13.496666872771357 45.26437199999998 13.716296872771352C45.01412199999998 13.935946872771353 44.81262499999998 14.179156872771358 44.65987999999998 14.445916872771363C44.62087999999998 14.513116872771377 44.59162999999998 14.541216872771372 44.57212999999998 14.530416872771355C44.55262999999998 14.519616872771365 44.54287999999998 14.495716872771368 44.54287999999998 14.458916872771368C44.54557999999998 14.233586872771355 44.55641999999998 14.00825687277137 44.57537999999998 13.782926872771355C44.59432999999998 13.557596872771342 44.60516999999998 13.436266872771341 44.60787999999998 13.418926872771351C44.60733599999998 13.392426872771352 44.59216999999998 13.370726872771343 44.56237999999998 13.353926872771353C44.532589999999985 13.337126872771364 44.491419999999984 13.32842687277136 44.438881999999985 13.327926872771343C44.261485999999984 13.39892687277134 44.031280999999986 13.46497687277133 43.74826499999998 13.526176872771345C43.465246999999984 13.587376872771358 43.10179299999998 13.646976872771347 42.65790399999998 13.704926872771352C42.64436399999998 13.749326872771348 42.63894399999998 13.810016872771342 42.64165399999998 13.88692687277134C42.64435399999998 13.963826872771335 42.65844399999998 14.024506872771354 42.683903999999984 14.068916872771354C43.026231999999986 14.089516872771355 43.25481199999999 14.155616872771361 43.369644999999984 14.267166872771355C43.48447599999999 14.378756872771362 43.53755899999999 14.607336872771356 43.52889299999998 14.952906872771365Z " id="path10388"></path><path d="M50.462078 16.044996872771378L50.462078 17.773976872771385C50.460978 17.857076872771387 50.443658 17.924826872771376 50.410078 17.977096872771398C50.376488 18.0293968727714 50.333158 18.074296872771384 50.28008 18.111966872771404C50.107285999999995 18.254696872771405 49.919872 18.381986872771392 49.717836 18.493836872771396C49.515794 18.605696872771404 49.321881 18.664736872771385 49.136094 18.6709668727714C48.812721 18.657666872771415 48.575474 18.554236872771412 48.424352999999996 18.360586872771393C48.27322899999999 18.166946872771405 48.198479999999996 17.96274687277139 48.200106 17.747976872771403C48.191606 17.448386872771408 48.277505999999995 17.168776872771417 48.457828 16.909156872771405C48.638145 16.649546872771396 48.963898 16.452486872771402 49.43509 16.317996872771403ZM50.462078 18.44996687277137C50.494518 18.60081687277136 50.584326999999995 18.760606872771376 50.7315 18.92933687277136C50.878665 19.098056872771366 51.122519999999994 19.189596872771347 51.463065 19.203956872771357C51.787785 19.183656872771365 52.051573 19.094266872771357 52.25443 18.935836872771347C52.457276 18.777396872771334 52.561816 18.671776872771346 52.568051 18.618966872771352C52.564251 18.569966872771346 52.542590999999994 18.521766872771366 52.503051 18.474336872771346C52.463501 18.426936872771336 52.428841 18.40143687277134 52.399052 18.39793687277134C52.366332 18.406936872771325 52.323862 18.441236872771327 52.271654 18.501936872771353C52.219434 18.56263687277135 52.127567 18.59723687277136 51.996057 18.605936872771366C51.752576 18.59693687277138 51.602537 18.48784687277137 51.545938 18.27768687277137C51.489328 18.067526872771367 51.466038 17.808606872771378 51.476068 17.50094687277138L51.476068 15.563976872771377C51.453587999999996 14.664816872771382 51.245045 14.067916872771377 50.850451 13.77324687277138C50.455848 13.478586872771388 50.010063 13.34317687277138 49.513093 13.36699687277138C48.957347999999996 13.383296872771382 48.466605 13.536006872771367 48.040862 13.825246872771373C47.615116 14.114496872771383 47.39087 14.442736872771377 47.368120999999995 14.809976872771387C47.368390999999995 14.965446872771395 47.406850999999996 15.080276872771378 47.483495 15.154476872771397C47.560134999999995 15.228676872771388 47.673345 15.2655168727714 47.823114999999994 15.264976872771399C48.01188199999999 15.257976872771394 48.15433899999999 15.207276872771388 48.250485 15.113856872771407C48.346624999999996 15.020456872771405 48.394835 14.92779687277141 48.395108 14.835976872771397C48.395106 14.789676872771395 48.391808 14.745776872771387 48.385308 14.704356872771399C48.378808 14.662956872771389 48.369058 14.62875687277139 48.356058000000004 14.601986872771391C48.349258000000006 14.582986872771386 48.34332800000001 14.552686872771403 48.338178000000006 14.510986872771383C48.33307800000001 14.469286872771391 48.33027800000001 14.41298687277137 48.33007800000001 14.341986872771372C48.34415800000001 14.142936872771372 48.462241000000006 14.001556872771374 48.684323000000006 13.917866872771384C48.90640100000001 13.834166872771391 49.14798100000001 13.793566872771379 49.40906400000001 13.795996872771383C49.64630700000001 13.774596872771383 49.87705400000001 13.872696872771371 50.10130500000001 14.090116872771375C50.32554800000001 14.30759687277137 50.44579700000001 14.77288687277138 50.46205000000001 15.485976872771374C50.46123400000001 15.531476872771378 50.453150000000015 15.567276872771373 50.437680000000015 15.593216872771364C50.422240000000016 15.619216872771375 50.40436000000001 15.635516872771376 50.38406000000001 15.641916872771361L49.266075000000015 15.914916872771357C48.63070600000002 16.074706872771344 48.117213000000014 16.317376872771348 47.725594000000015 16.642906872771363C47.33397400000001 16.968446872771352 47.13247600000002 17.354106872771354 47.121102000000015 17.79989687277137C47.132472000000014 18.307696872771373 47.291725000000014 18.670066872771372 47.598846000000016 18.887006872771366C47.905966000000014 19.103936872771357 48.29271100000002 19.209566872771376 48.759081000000016 19.20387687277136C49.04399200000002 19.208876872771356 49.283405000000016 19.172976872771358 49.477322000000015 19.096626872771367C49.671233000000015 19.02022687277136 49.90414600000002 18.87400687277136 50.17606300000001 18.65788687277137L50.43606000000001 18.449886872771373Z " id="path10390"></path><path d="M56.656513 15.40800687277138C56.806281 14.699246872771369 57.042986 14.251296872771377 57.366628999999996 14.064146872771374C57.690268999999994 13.877006872771375 57.943222999999996 13.796296872771364 58.125494999999994 13.822026872771374C58.386570999999996 13.810626872771365 58.628150999999995 13.901626872771374 58.85023499999999 14.095016872771367C59.07231199999999 14.288396872771358 59.19039299999999 14.652396872771362 59.204480999999994 15.187006872771377C59.20528899999999 15.24560687277139 59.19066099999999 15.290246872771377 59.160610999999996 15.320906872771388C59.130540999999994 15.351606872771384 59.08017099999999 15.367606872771375 59.009488 15.369006872771394ZM60.06247 17.864976872771393C59.831989 18.1103468727714 59.597449999999995 18.28909687277138 59.358854 18.401216872771386C59.120249 18.51333687277139 58.817461 18.56858687277139 58.45049 18.56696687277139C58.211886 18.568966872771398 57.967598 18.4962668727714 57.717625000000005 18.347586872771387C57.467646 18.198906872771374 57.239608000000004 17.960036872771383 57.033509 17.630976872771384C56.902425 17.416206872771397 56.800593 17.16000687277139 56.728012 16.862356872771386C56.655432 16.564716872771385 56.618595 16.227266872771395 56.617514 15.849996872771385L60.075469 15.875996872771395C60.154008999999995 15.875726872771395 60.214670999999996 15.856796872771383 60.25746699999999 15.819096872771382C60.30025699999999 15.781396872771381 60.321916999999985 15.726696872771385 60.32246699999999 15.654966872771382C60.343856999999986 15.082986872771386 60.20356799999999 14.569486872771392 59.901597999999986 14.11448687277138C59.599617999999985 13.65949687277137 59.00758399999999 13.419006872771376 58.125495999999984 13.392996872771391C57.52235499999998 13.396996872771382 56.947653999999986 13.658956872771398 56.40139199999999 14.179486872771378C55.855127999999986 14.700026872771389 55.56317399999999 15.456186872771383 55.525528999999985 16.447956872771385C55.52412899999999 16.8157468727714 55.572378999999984 17.165656872771393 55.67015199999999 17.4976968727714C55.767921999999984 17.829736872771406 55.92337699999999 18.12114687277139 56.13652099999999 18.371936872771386C56.354266999999986 18.63409687277138 56.62401299999999 18.837766872771397 56.94576099999999 18.982926872771372C57.26750399999999 19.12809687277138 57.66074899999999 19.20175687277137 58.12549599999999 19.203926872771376C58.61731899999999 19.19892687277138 59.04414599999999 19.095046872771377 59.40597899999999 18.891926872771364C59.76780299999999 18.68880687277135 60.07763199999999 18.415806872771356 60.335466999999994 18.07293687277135C60.31677699999999 18.008236872771363 60.28589699999999 17.95891687277134 60.242847 17.92506687277134C60.199777 17.891266872771325 60.139655999999995 17.87116687277134 60.062475 17.864966872771333Z " id="path10392"></path><path d="M62.850955 14.420016872771384C62.828475 14.45411687277138 62.801935 14.483416872771386 62.77133499999999 14.507716872771397C62.740725 14.532116872771411 62.723935 14.502716872771401 62.72096499999999 14.420016872771384C62.723665 14.20823687277138 62.734505 13.994816872771395 62.75346499999999 13.779776872771379C62.772425 13.564736872771391 62.783255 13.448826872771377 62.78596499999999 13.432026872771388C62.785962999999995 13.364826872771374 62.73396499999998 13.330206872771384 62.62996699999999 13.328026872771375C62.45202999999999 13.399026872771373 62.219657999999995 13.465076872771363 61.932851 13.526276872771376C61.646041 13.58747687277139 61.280421000000004 13.647076872771379 60.835989999999995 13.705026872771384C60.82406999999999 13.74942687277138 60.82190999999999 13.810116872771374 60.82948999999999 13.887026872771372C60.83708999999999 13.963926872771367 60.84791 14.024606872771386 60.86198999999999 14.069016872771385C61.20431799999999 14.08711687277139 61.432897999999994 14.148416872771378 61.547730999999985 14.252646872771379C61.66256099999998 14.356916872771393 61.71564399999998 14.590376872771373 61.70697899999999 14.953006872771368L61.70697899999999 17.487976872771355C61.71780899999999 17.999576872771343 61.66364899999999 18.321866872771352 61.54448099999999 18.454836872771352C61.42531499999998 18.587816872771356 61.17615099999999 18.659856872771343 60.796989999999994 18.670966872771345C60.75798999999999 18.718066872771345 60.73849 18.789586872771338 60.73849 18.885456872771357C60.73849 18.981356872771357 60.75798999999999 19.052836872771366 60.796989999999994 19.099956872771344C61.05481999999999 19.09295687277134 61.28989999999999 19.08725687277135 61.502230999999995 19.082056872771346C61.71456099999999 19.07705687277135 61.95614099999999 19.074056872771337 62.22697199999999 19.074056872771337C62.468278999999995 19.074326872771337 62.67790099999999 19.077056872771323 62.85583899999999 19.082056872771346C63.03377099999999 19.087056872771342 63.253142999999994 19.093156872771345 63.51395599999999 19.099956872771344C63.552955999999995 19.052856872771343 63.572446 18.98133687277135 63.57245599999999 18.885456872771357C63.57245299999998 18.789556872771357 63.552955999999995 18.71808687277135 63.51395599999999 18.670966872771345C63.19139399999999 18.659866872771346 62.978522 18.58776687277134 62.875339 18.454836872771352C62.772149999999996 18.321866872771352 62.725026 17.999576872771343 62.733965999999995 17.487976872771355L62.733965999999995 15.35600687277136C62.736666 15.221136872771353 62.76050599999999 15.110636872771352 62.805465999999996 15.024506872771354C62.850426 14.938406872771367 62.900256 14.866886872771346 62.954965 14.810006872771368C63.20223 14.56762687277137 63.451935000000006 14.379666872771367 63.704080000000005 14.246146872771362C63.956219000000004 14.112626872771358 64.209174 14.044926872771356 64.462945 14.043016872771375C64.59564800000001 14.04383687277138 64.72347900000001 14.084416872771385 64.84644 14.16489687277138C64.969392 14.245296872771377 65.071224 14.360706872771374 65.151936 14.511016872771393C65.21530600000001 14.642106872771393 65.25755500000001 14.792686872771384 65.27868500000001 14.962756872771394C65.299805 15.132846872771381 65.309555 15.3159268727714 65.30793500000001 15.512006872771394L65.30793500000001 17.487976872771384C65.31663500000002 17.99957687277137 65.26676500000002 18.32186687277138 65.15843700000002 18.45483687277138C65.05010000000001 18.587816872771384 64.83127000000002 18.65985687277137 64.50194600000002 18.670966872771373C64.46944600000002 18.718066872771374 64.45319600000002 18.789586872771366 64.45319600000002 18.885456872771385C64.45319300000001 18.981356872771386 64.46944600000002 19.052836872771394 64.50194600000002 19.099956872771372C64.76356300000002 19.092956872771367 64.98781000000002 19.087256872771377 65.17468700000002 19.082056872771375C65.36155500000002 19.07705687277138 65.57930200000003 19.074056872771365 65.82792900000003 19.074056872771365C66.08358600000003 19.074326872771366 66.31000000000003 19.07705687277135 66.50717000000003 19.082056872771375C66.70432800000003 19.08705687277137 66.93724100000003 19.093156872771374 67.20591100000003 19.099956872771372C67.23840100000002 19.052856872771372 67.25465100000002 18.98133687277138 67.25466100000003 18.885456872771385C67.25465500000003 18.789556872771385 67.23840100000002 18.71808687277138 67.20591100000003 18.670966872771373C66.85111700000003 18.659866872771374 66.61495400000003 18.58776687277137 66.49742000000003 18.45483687277138C66.37987400000003 18.32186687277138 66.32570800000003 17.99957687277137 66.33492200000003 17.487976872771384L66.33492200000003 15.551006872771381C66.33902200000003 15.19080687277139 66.31785200000003 14.86147687277139 66.27155200000003 14.563016872771385C66.22523200000003 14.264566872771383 66.12936100000003 14.013236872771387 65.98393100000003 13.809026872771398C65.87071800000002 13.665486872771396 65.72013700000002 13.5560768727714 65.53218700000002 13.4807768727714C65.34422600000002 13.405476872771402 65.13514500000002 13.367576872771394 64.90494500000003 13.36702687277139C64.59023600000003 13.355626872771381 64.26740700000002 13.42062687277138 63.93645700000003 13.562026872771384C63.605500000000035 13.703406872771382 63.243671000000035 13.989406872771383 62.85097100000003 14.420016872771384Z " id="path10394"></path><path d="M72.189953 17.890976872771404C72.163133 17.83297687277141 72.125763 17.789686872771398 72.07782900000001 17.76097687277141C72.02988900000001 17.732276872771422 71.976263 17.714976872771416 71.91695600000001 17.708976872771416C71.69351700000001 17.994966872771414 71.44814500000001 18.20946687277143 71.18084100000002 18.35246687277143C70.91352800000001 18.49546687277143 70.63890600000002 18.566966872771417 70.35697600000002 18.566966872771417C69.86920900000001 18.558966872771407 69.46025600000002 18.334866872771414 69.13011700000001 17.895846872771415C68.799974 17.45683687277142 68.62826800000002 16.85288687277142 68.61499900000001 16.083996872771422C68.62309900000001 15.363046872771434 68.76287 14.80297687277141 69.03424300000002 14.403766872771428C69.30561300000002 14.00456687277142 69.65985800000001 13.801986872771437 70.09698000000002 13.79602687277142C70.46774200000002 13.805026872771407 70.71094700000002 13.900296872771435 70.82659500000001 14.080396872771416C70.94223600000001 14.26050687277143 71.00669300000001 14.469036872771426 71.019968 14.706016872771414C71.04111800000001 14.879076872771407 71.094358 15.000946872771408 71.179703 15.071636872771421C71.265043 15.14233687277141 71.376457 15.176446872771407 71.51396100000001 15.174006872771429C71.659934 15.175006872771434 71.800223 15.130406872771431 71.934831 15.039136872771422C72.069428 14.947836872771433 72.141469 14.802156872771434 72.150953 14.60201687277143C72.146053 14.237756872771428 71.970576 13.94254687277143 71.62446 13.71639687277144C71.278335 13.490266872771429 70.790842 13.37380687277144 70.161979 13.367026872771447C69.487881 13.377026872771438 68.882847 13.646536872771435 68.346877 14.176266872771436C67.81090400000001 14.706016872771443 67.52761600000001 15.437256872771428 67.49701300000001 16.36998687277145C67.50191300000002 17.221756872771437 67.72613500000001 17.903706872771437 68.16975500000001 18.41583687277145C68.61337200000001 18.92797687277144 69.24711300000001 19.190686872771437 70.07098 19.203956872771442C70.459888 19.21585687277144 70.8293 19.13025687277144 71.17921600000001 18.94720687277143C71.52912300000001 18.764126872771442 71.86603500000001 18.41204687277144 72.18995300000002 17.890976872771432Z " id="path10396"></path><path d="M73.295768 11.287056872771387C73.302268 11.463106872771391 73.367268 11.618016872771392 73.490766 11.751796872771394C73.614263 11.885596872771401 73.757261 11.956016872771386 73.91976 11.9630468727714C74.107173 11.954046872771414 74.265337 11.884446872771406 74.394254 11.753916872771413C74.523167 11.62335687277141 74.590332 11.485066872771426 74.595752 11.339056872771408C74.59165200000001 11.17439687277141 74.53156200000001 11.022736872771418 74.415379 10.884066872771399C74.29919100000001 10.745406872771412 74.151318 10.67173687277139 73.97176 10.663066872771395C73.80709300000001 10.6700668727714 73.655429 10.734566872771381 73.516766 10.858066872771388C73.378099 10.981566872771396 73.304434 11.124566872771396 73.29576800000001 11.287056872771387ZM74.478753 17.487976872771384L74.478753 14.897106872771388C74.480953 14.552866872771375 74.489583 14.225756872771399 74.504753 13.915786872771378C74.51991299999999 13.605826872771388 74.528583 13.44023687277138 74.53075299999999 13.419026872771383C74.53020799999999 13.392526872771384 74.51504299999999 13.370826872771374 74.48525299999999 13.354026872771385C74.45546299999998 13.337226872771396 74.41429299999999 13.328526872771391 74.36175499999999 13.328026872771375C74.18151499999999 13.399026872771373 73.95049799999998 13.465076872771363 73.66870099999998 13.526276872771376C73.38690099999998 13.58747687277139 73.02426099999998 13.647076872771379 72.58077799999998 13.705026872771384C72.56885799999998 13.74942687277138 72.56669799999997 13.810116872771374 72.57427799999998 13.887026872771372C72.58187799999997 13.963926872771367 72.59269799999998 14.024606872771386 72.60677799999998 14.069016872771385C72.95194999999998 14.088516872771379 73.18134299999998 14.151516872771396 73.29495699999998 14.258006872771375C73.40856799999999 14.364476872771377 73.46083899999998 14.596146872771385 73.45176699999998 14.953006872771368L73.45176699999998 17.487976872771355C73.46232699999997 18.005266872771358 73.40545699999997 18.329176872771342 73.28114399999997 18.459716872771367C73.15683199999997 18.590256872771363 72.90171099999996 18.660666872771372 72.51577899999997 18.670966872771373C72.47677899999996 18.718066872771374 72.45727899999997 18.789586872771366 72.45727899999997 18.885456872771385C72.45727899999997 18.981356872771386 72.47677899999996 19.052836872771394 72.51577899999997 19.099956872771372C72.77956699999997 19.092956872771367 73.01897999999997 19.087256872771377 73.23401999999997 19.082056872771375C73.44905799999998 19.07705687277138 73.69497099999997 19.074056872771365 73.97176099999997 19.074056872771365C74.24150499999998 19.074326872771366 74.48200199999997 19.07705687277135 74.69325099999998 19.082056872771375C74.90449599999998 19.08705687277137 75.14499199999997 19.093156872771374 75.41474199999998 19.099956872771372C75.45374199999998 19.052856872771372 75.47324199999997 18.98133687277138 75.47324199999997 18.885456872771385C75.47323899999996 18.789556872771385 75.45374199999998 18.71808687277138 75.41474199999998 18.670966872771373C75.02880699999997 18.665966872771378 74.77368499999997 18.59756687277138 74.64937699999997 18.464586872771378C74.52506399999997 18.331616872771377 74.46818899999997 18.006076872771388 74.47875399999997 17.487976872771384Z " id="path10398"></path><path d="M76.373068 17.487976872771384C76.38226800000001 18.006076872771388 76.328108 18.331616872771377 76.21057 18.464586872771378C76.093029 18.59756687277138 75.85686600000001 18.666356872771388 75.50207900000001 18.670966872771373C75.46307900000001 18.718066872771374 75.44357900000001 18.789586872771366 75.44357900000001 18.885456872771385C75.44357900000001 18.981356872771386 75.46307900000001 19.052836872771394 75.50207900000001 19.099956872771372C75.764784 19.092956872771367 75.99661400000001 19.087256872771377 76.19757000000001 19.082056872771375C76.398525 19.07705687277138 76.63035500000001 19.074056872771365 76.89306200000001 19.074056872771365C77.10647400000002 19.074326872771366 77.29063800000002 19.07705687277135 77.44555400000002 19.082056872771375C77.60046700000001 19.08705687277137 77.81063000000002 19.093156872771374 78.07604600000002 19.099956872771372C78.11504600000002 19.052856872771372 78.13454600000001 18.98133687277138 78.13454600000001 18.885456872771385C78.13454400000002 18.789556872771385 78.11504600000002 18.71808687277138 78.07604600000002 18.670966872771373C77.81469300000002 18.665966872771378 77.63540400000002 18.59756687277138 77.53817800000002 18.464586872771378C77.44094800000002 18.331616872771377 77.39490700000002 18.006076872771388 77.40005500000002 17.487976872771384L77.40005500000002 16.317996872771374C77.55044400000003 16.31699687277137 77.68093000000002 16.349696872771375 77.79151200000003 16.416496872771376C77.90209000000003 16.483296872771376 78.01860100000003 16.60645687277139 78.14104500000002 16.78601687277137L79.09003300000002 18.124996872771362C79.21623600000002 18.308626872771356 79.29856800000002 18.451616872771353 79.33703000000001 18.553996872771364C79.37548000000001 18.656366872771372 79.39282000000001 18.74736687277135 79.38903000000002 18.826986872771357L79.38903000000002 19.034986872771356C79.38683000000002 19.07618687277136 79.40419000000001 19.097786872771366 79.44103000000003 19.099986872771353C79.56777400000003 19.09298687277135 79.70102200000002 19.087286872771358 79.84077500000002 19.082086872771356C79.98051800000002 19.07708687277136 80.14626600000003 19.074086872771346 80.33801800000002 19.074086872771346C80.53436500000002 19.074356872771347 80.71365400000002 19.077086872771332 80.87588600000002 19.082086872771356C81.03810700000002 19.08708687277135 81.21414700000003 19.093186872771355 81.40400400000003 19.099986872771353C81.44299400000003 19.052886872771353 81.46249400000004 18.98136687277136 81.46250400000002 18.885486872771367C81.46249700000003 18.789586872771366 81.44299400000003 18.71811687277136 81.40400400000003 18.670996872771354C81.18256800000003 18.652996872771354 80.97803700000003 18.61039687277136 80.79041200000003 18.54326687277134C80.60277600000003 18.47616687277133 80.43464500000003 18.336736872771354 80.28601900000004 18.124996872771334L78.76503800000003 15.876026872771348C78.72386800000004 15.82182687277134 78.70219800000004 15.761196872771336 78.70003800000003 15.69402687277136C78.69783800000003 15.644226872771355 78.71519800000003 15.600826872771364 78.75203800000004 15.564036872771368L79.74002500000005 14.472046872771358C79.92789500000005 14.275236872771359 80.13323800000005 14.133266872771344 80.35605400000004 14.04613687277137C80.57886100000005 13.959036872771378 80.85017800000004 13.910326872771378 81.17000600000004 13.900056872771358C81.20899600000004 13.852956872771358 81.22849600000005 13.781436872771366 81.22850600000004 13.685556872771372C81.22850000000004 13.589656872771371 81.20899600000004 13.518186872771366 81.17000600000004 13.471056872771385C80.94169100000005 13.47805687277139 80.75156900000005 13.48375687277138 80.59963900000004 13.488956872771382C80.44769800000005 13.493956872771378 80.26082600000004 13.496956872771392 80.03902100000003 13.496956872771392C79.80312300000003 13.496696872771395 79.60216800000003 13.493956872771406 79.43615400000003 13.488956872771382C79.27013100000003 13.483956872771387 79.07242500000002 13.477856872771383 78.84303600000003 13.471056872771385C78.80403600000002 13.518156872771385 78.78453600000003 13.58968687277138 78.78453600000003 13.685556872771372C78.78453300000002 13.781456872771372 78.80403600000002 13.85293687277138 78.84303600000003 13.900056872771358C79.20540300000003 13.936256872771366 79.35977500000003 14.034526872771352 79.30615500000003 14.194986872771352C79.25252500000003 14.355456872771356 79.17615300000003 14.478146872771362 79.07703300000003 14.563046872771366C78.72960900000002 14.943126872771359 78.40786400000003 15.261306872771371 78.11179600000003 15.517556872771365C77.81572200000002 15.773816872771363 77.57847500000003 15.93014687277136 77.40005500000002 15.986526872771378L77.40005500000002 11.495086872771367C77.40225500000003 11.068536872771375 77.41088500000002 10.735416872771367 77.42605500000002 10.495726872771371C77.44121500000001 10.256046872771378 77.44988500000002 10.134176872771377 77.45205500000002 10.130106872771364C77.45425500000002 10.041306872771372 77.39788500000002 9.997946872771365 77.28305800000001 10.000106872771369C77.09753700000002 10.06920687277136 76.818582 10.13904687277136 76.44619300000001 10.20972687277137C76.073801 10.280426872771358 75.746097 10.327546872771364 75.463081 10.351096872771365C75.450081 10.407996872771378 75.450081 10.476226872771377 75.463081 10.555846872771355C75.47608100000001 10.635446872771354 75.502081 10.697226872771353 75.541081 10.741096872771351C75.871493 10.734096872771346 76.094656 10.780396872771348 76.210572 10.879216872771337C76.326486 10.978116872771324 76.380652 11.287366872771344 76.37307 11.807076872771347Z " id="path10400"></path><path d="M82.36155 17.487976872771384C82.37210999999999 18.00688687277139 82.31523999999999 18.33404687277138 82.19092599999999 18.46946687277139C82.06661399999999 18.6048768727714 81.81149299999998 18.672046872771404 81.42556199999999 18.6709668727714C81.38656199999998 18.718066872771402 81.36706199999999 18.789586872771395 81.36706199999999 18.885456872771414C81.36706199999999 18.981356872771414 81.38656199999998 19.052836872771422 81.42556199999999 19.0999568727714C81.68934899999998 19.092956872771396 81.92876199999999 19.087256872771405 82.14380199999998 19.082056872771403C82.35883999999999 19.077056872771408 82.60475299999997 19.074056872771394 82.88154299999998 19.074056872771394C83.15128699999998 19.074326872771394 83.39178399999997 19.07705687277138 83.60303299999998 19.082056872771403C83.81427799999999 19.0870568727714 84.05477499999998 19.093156872771402 84.32452399999998 19.0999568727714C84.36352399999998 19.0528568727714 84.38302399999998 18.981336872771408 84.38302399999998 18.885456872771414C84.38302099999997 18.789556872771414 84.36352399999998 18.71808687277141 84.32452399999998 18.6709668727714C83.93858899999998 18.671966872771407 83.68346699999998 18.604866872771396 83.55915899999998 18.46946687277139C83.43484599999998 18.33404687277138 83.37797199999999 18.00688687277139 83.38853599999997 17.487976872771384L83.38853599999997 11.495056872771386C83.39073599999998 11.068506872771394 83.39936599999997 10.735386872771386 83.41453599999997 10.49569687277139C83.42969599999996 10.256016872771397 83.43836599999997 10.134146872771396 83.44053599999997 10.130076872771383C83.44273599999997 10.041276872771391 83.38636599999997 9.997916872771384 83.27153799999996 10.000076872771388C83.08601699999997 10.06917687277138 82.80706299999997 10.139016872771379 82.43467299999996 10.209696872771389C82.06228099999996 10.280396872771377 81.73457799999996 10.327516872771383 81.45156099999996 10.351066872771383C81.43856099999995 10.407966872771397 81.43856099999995 10.476196872771396 81.45156099999996 10.555816872771373C81.46456099999996 10.635416872771373 81.49056099999996 10.697196872771372 81.52956099999996 10.74106687277137C81.85997299999995 10.734066872771365 82.08313599999995 10.780366872771367 82.19905199999995 10.879186872771356C82.31496599999996 10.978086872771343 82.36913199999995 11.287336872771363 82.36155099999995 11.807046872771366Z " id="path10402"></path><path d="M84.687291 16.40898687277138C84.68647800000001 17.10556687277139 84.91235 17.737146872771376 85.364908 18.30371687277139C85.817463 18.870296872771377 86.501578 19.170376872771385 87.417256 19.203956872771386C88.37951 19.16385687277139 89.080959 18.841046872771386 89.521604 18.235466872771383C89.962239 17.629896872771383 90.17944399999999 16.982066872771384 90.173221 16.291996872771392C90.185401 15.578626872771395 89.98228 14.922136872771404 89.56385399999999 14.322516872771388C89.145417 13.722906872771375 88.43855099999999 13.404406872771375 87.44325599999999 13.36702687277139C86.56061899999999 13.390626872771378 85.88192 13.691216872771378 85.40715699999998 14.268896872771393C84.93239099999998 14.84657687277138 84.69243699999998 15.559946872771405 84.68729099999999 16.40898687277138ZM87.300258 13.796026872771392C87.862497 13.798026872771402 88.294741 14.04437687277138 88.596991 14.535386872771397C88.899232 15.026406872771389 89.05198 15.750606872771385 89.055235 16.707986872771386C89.034915 17.54485687277139 88.87729499999999 18.103846872771385 88.582366 18.384966872771372C88.28742799999999 18.66608687277136 87.977058 18.796086872771383 87.651253 18.774956872771384C87.20283599999999 18.76055687277139 86.843014 18.604436872771373 86.571786 18.306486872771387C86.300552 18.0085368727714 86.104432 17.654966872771382 85.983423 17.245796872771393C85.86241 16.836626872771404 85.803028 16.4580268727714 85.805277 16.109996872771404C85.799277 15.518776872771411 85.91198200000001 14.991746872771415 86.14327300000001 14.528886872771409C86.374559 14.066046872771409 86.76022 13.821756872771402 87.30025800000001 13.79602687277142Z " id="path10404"></path><path d="M92.580049 14.719016872771391C92.78734 14.50560687277138 93.009095 14.327936872771403 93.245315 14.186016872771404C93.48153 14.044106872771408 93.697435 13.97044687277139 93.893032 13.965026872771404C94.321481 13.973026872771413 94.68330900000001 14.19062687277139 94.97851800000001 14.616636872771409C95.273717 15.042656872771403 95.427548 15.627106872771407 95.44001200000001 16.36998687277142C95.454632 16.936026872771407 95.33113300000001 17.467936872771418 95.069517 17.965716872771424C94.80789 18.463506872771433 94.320397 18.728916872771435 93.60703600000001 18.761956872771435C93.48082500000001 18.763956872771445 93.32699400000001 18.744056872771438 93.14554100000001 18.703256872771448C92.964083 18.662456872771457 92.810252 18.59061687277145 92.684047 18.487626872771443C92.556728 18.38213687277144 92.47206600000001 18.281766872771442 92.430063 18.18651687277145C92.388053 18.091316872771444 92.368713 17.93207687277146 92.37205300000001 17.70893687277146L92.37205300000001 15.290966872771463C92.37035300000001 15.158426872771457 92.38418300000001 15.05041687277145 92.41365300000001 14.966946872771473C92.44311300000001 14.883446872771486 92.49858300000001 14.800826872771466 92.58005100000001 14.718976872771464ZM92.47605 14.290016872771389C92.453 14.31231687277139 92.4263 14.322616872771391 92.39594 14.320716872771385C92.36558 14.318716872771375 92.34895 14.295616872771376 92.34604999999999 14.251016872771373C92.34825 14.011606872771381 92.35687999999999 13.814446872771384 92.37204999999999 13.65952687277138C92.38720999999998 13.50461687277138 92.39587999999999 13.42444687277137 92.39804999999998 13.419026872771383C92.39750599999998 13.392526872771384 92.38233999999999 13.370826872771374 92.35254999999998 13.354026872771385C92.32275999999997 13.337226872771396 92.28158999999998 13.328526872771391 92.22905099999998 13.328026872771375C92.05273899999999 13.399026872771373 91.82686699999998 13.465076872771363 91.55143499999998 13.526276872771376C91.27599999999998 13.58747687277139 90.91687999999998 13.647076872771379 90.47407399999999 13.705026872771384C90.46215399999998 13.74942687277138 90.45999399999998 13.810116872771374 90.46757399999998 13.887026872771372C90.47517399999998 13.963926872771367 90.48599399999999 14.024606872771386 90.50007399999998 14.069016872771385C90.84240199999998 14.08801687277139 91.07098199999999 14.150816872771372 91.18581499999998 14.25751687277139C91.30064599999997 14.364226872771383 91.35372799999998 14.596056872771385 91.34506299999998 14.953006872771397L91.34506299999998 20.50393687277139C91.35562299999998 21.022846872771396 91.29875299999998 21.350006872771388 91.17443999999998 21.4854268727714C91.05012799999997 21.620836872771406 90.79500599999997 21.68800687277141 90.40907499999997 21.68692687277141C90.37007499999997 21.73402687277141 90.35057499999998 21.8055468727714 90.35057499999998 21.90141687277142C90.35057499999998 21.99731687277142 90.37007499999997 22.068786872771426 90.40907499999997 22.115916872771407C90.67286199999997 22.108916872771402 90.91227599999998 22.103216872771412 91.12731499999997 22.09801687277141C91.34235299999997 22.093016872771415 91.58826699999997 22.0900168727714 91.86505599999997 22.0900168727714C92.16296699999997 22.0902868727714 92.43162999999997 22.093016872771386 92.67104599999996 22.09801687277141C92.91045699999997 22.103016872771406 93.16611999999996 22.10911687277141 93.43803599999997 22.115916872771407C93.47703599999997 22.068816872771407 93.49652599999997 21.99728687277141 93.49653599999996 21.90141687277142C93.49653299999996 21.80551687277142 93.47703599999997 21.734046872771415 93.43803599999997 21.68692687277141C92.98980899999997 21.681926872771413 92.69677199999997 21.613526872771416 92.55892199999997 21.480546872771413C92.42106699999997 21.34756687277141 92.35877699999996 21.022036872771423 92.37204899999996 20.50393687277142L92.37204899999996 19.09995687277143C92.37134299999997 19.018556872771427 92.38509899999997 18.974346872771434 92.41331899999996 18.967356872771433C92.44153899999996 18.960356872771428 92.48844899999996 18.972356872771428 92.55404199999995 19.002456872771432C92.71483099999995 19.06715687277142 92.89179199999995 19.11682687277144 93.08492299999995 19.151466872771437C93.27804799999994 19.18606687277145 93.47808299999994 19.203566872771432 93.68502799999995 19.203966872771446C94.04983199999995 19.20496687277145 94.39270199999994 19.147366872771443 94.71363899999994 19.030096872771452C95.03456799999995 18.91282687277146 95.32868899999994 18.728116872771466 95.59600299999994 18.47597687277144C95.90338899999993 18.177786872771435 96.14009399999993 17.825166872771433 96.30611599999995 17.418116872771435C96.47212599999995 17.011056872771434 96.55608599999995 16.544686872771422 96.55798599999994 16.019006872771428C96.54498599999994 15.305646872771433 96.32723599999994 14.691406872771438 95.90474899999994 14.176276872771439C95.48224899999994 13.661166872771446 94.93300699999993 13.39141687277143 94.25701999999994 13.36703687277145C94.00893599999993 13.368036872771455 93.72510699999994 13.447236872771441 93.40553099999994 13.60428687277144C93.08594899999994 13.76137687277145 92.77611999999993 13.989956872771444 92.47604299999993 14.290026872771449Z " id="path10406"></path><path d="M98.270966 15.40800687277138C98.420736 14.699246872771369 98.65744600000001 14.251296872771377 98.981086 14.064146872771374C99.304726 13.877006872771375 99.557676 13.796296872771364 99.739946 13.822026872771374C100.00102600000001 13.810626872771365 100.24260600000001 13.901626872771374 100.464696 14.095016872771367C100.686766 14.288396872771358 100.804846 14.652396872771362 100.81893600000001 15.187006872771377C100.81974600000001 15.24560687277139 100.805136 15.290246872771377 100.77503600000001 15.320906872771388C100.74493600000001 15.351606872771384 100.69463600000002 15.367606872771375 100.62390600000002 15.369006872771394ZM101.676926 17.864976872771393C101.446446 18.1103468727714 101.211906 18.28909687277138 100.973306 18.401216872771386C100.73470599999999 18.51333687277139 100.43191599999999 18.56858687277139 100.06494599999999 18.56696687277139C99.82634599999999 18.568966872771398 99.582056 18.4962668727714 99.33207599999999 18.347586872771387C99.08210599999998 18.198906872771374 98.85406599999999 17.960036872771383 98.64796599999998 17.630976872771384C98.51688599999999 17.416206872771397 98.41504599999999 17.16000687277139 98.34246599999999 16.862356872771386C98.269866 16.564716872771385 98.23305599999999 16.227266872771395 98.23196599999999 15.849996872771385L101.68992599999999 15.875996872771395C101.76842599999999 15.875726872771395 101.82912599999999 15.856796872771383 101.87192599999999 15.819096872771382C101.91472599999999 15.781396872771381 101.936326 15.726696872771385 101.93692599999999 15.654966872771382C101.95832599999999 15.082986872771386 101.81802599999999 14.569486872771392 101.51605599999999 14.11448687277138C101.21407599999999 13.65949687277137 100.622036 13.419006872771376 99.73994599999999 13.392996872771391C99.13680599999999 13.396996872771382 98.56210599999999 13.658956872771398 98.01584599999998 14.179486872771378C97.46958599999998 14.700026872771389 97.17762599999998 15.456186872771383 97.13998599999998 16.447956872771385C97.13898599999997 16.8157468727714 97.18688599999997 17.165656872771393 97.28460599999998 17.4976968727714C97.38240599999999 17.829736872771406 97.53783599999998 18.12114687277139 97.75097599999998 18.371936872771386C97.96872599999998 18.63409687277138 98.23846599999997 18.837766872771397 98.56021599999998 18.982926872771372C98.88195599999999 19.12809687277138 99.27520599999998 19.20175687277137 99.73994599999999 19.203926872771376C100.23177599999998 19.19892687277138 100.65860599999999 19.095046872771377 101.02043599999999 18.891926872771364C101.38225599999998 18.68880687277135 101.69208599999999 18.415806872771356 101.94992599999999 18.07293687277135C101.931226 18.008236872771363 101.90032599999999 17.95891687277134 101.85732599999999 17.92506687277134C101.81422599999999 17.891266872771325 101.75413599999999 17.87116687277134 101.67695599999999 17.864966872771333Z " id="path10408"></path><path d="M106.558386 17.4619768727714C106.561386 17.581256872771405 106.549386 17.676796872771405 106.52308599999999 17.74862687277141C106.49678599999999 17.820426872771407 106.43918599999999 17.89389687277142 106.35034599999999 17.968966872771404C106.10930599999999 18.176966872771402 105.886136 18.332966872771408 105.68085599999999 18.436966872771393C105.47556599999999 18.540966872771406 105.29139599999999 18.5929668727714 105.12836599999999 18.5929668727714C104.76165599999999 18.59496687277141 104.43557599999998 18.399316872771408 104.15012599999999 18.00634687277139C103.86466599999999 17.613376872771397 103.71408599999998 17.011586872771375 103.69838599999999 16.200996872771384C103.70238599999999 15.736526872771378 103.74038599999999 15.365486872771385 103.81375599999998 15.087886872771378C103.88715599999999 14.810286872771371 103.97435599999999 14.60499687277138 104.07537599999998 14.472016872771377C104.28580599999998 14.177626872771384 104.50517599999998 13.992926872771363 104.73349599999997 13.917896872771365C104.96179599999998 13.842896872771377 105.14542599999997 13.810926872771375 105.28435599999997 13.821996872771365C105.51672599999998 13.82281687277137 105.71822599999997 13.863396872771375 105.88885599999998 13.943866872771366C106.05947599999998 14.024266872771364 106.20896599999998 14.139686872771364 106.33734599999998 14.28998687277138C106.42614599999999 14.385086872771382 106.48575599999998 14.477676872771383 106.51609599999998 14.567856872771387C106.54639599999997 14.658056872771397 106.56049599999997 14.799426872771392 106.55829599999997 14.991976872771374ZM106.415386 18.4200668727714C106.449186 18.392866872771407 106.482986 18.377966872771395 106.516786 18.375366872771394C106.550586 18.37236687277141 106.568786 18.39326687277139 106.57138599999999 18.436966872771393C106.57738599999999 18.6054168727714 106.60118599999998 18.77225687277138 106.64288599999999 18.937456872771406C106.684586 19.102666872771408 106.70838599999999 19.19149687277141 106.71438599999999 19.203956872771414C106.76368599999999 19.22265687277141 106.804786 19.230756872771423 106.837876 19.22835687277143C106.870876 19.22635687277142 106.912076 19.217756872771417 106.961376 19.203956872771414C107.102476 19.08560687277142 107.301266 18.981066872771407 107.557746 18.890336872771428C107.81421599999999 18.79963687277143 108.13975599999999 18.73081687277144 108.53435599999999 18.683966872771435C108.57335599999999 18.640066872771428 108.59285599999998 18.581586872771425 108.59285599999998 18.508466872771436C108.59285599999998 18.435366872771425 108.57335599999999 18.376836872771435 108.53435599999999 18.332966872771436C108.13081599999998 18.304766872771438 107.86865599999999 18.218136872771424 107.74786599999999 18.072966872771445C107.62707599999999 17.92780687277144 107.57290599999999 17.698146872771446 107.58537599999998 17.383976872771456L107.58537599999998 11.495056872771443C107.58737599999998 11.06850687277145 107.59617599999999 10.735386872771443 107.61137599999998 10.495696872771447C107.62657599999997 10.256016872771454 107.63517599999997 10.134146872771453 107.63737599999997 10.13007687277144C107.63937599999997 10.041276872771448 107.58317599999998 9.997916872771441 107.46838599999998 10.000076872771444C107.28285599999998 10.069176872771436 107.00390599999999 10.139016872771435 106.63151599999998 10.209696872771445C106.25912599999998 10.280396872771433 105.93141599999997 10.32751687277144 105.64840599999998 10.35106687277144C105.63540599999997 10.407966872771453 105.63540599999997 10.476196872771453 105.64840599999998 10.55581687277143C105.66140599999999 10.63541687277143 105.68740599999998 10.697196872771428 105.72640599999998 10.741066872771427C106.05681599999998 10.734066872771422 106.27997599999998 10.780366872771424 106.39589599999998 10.879186872771413C106.51180599999998 10.9780868727714 106.56597599999998 11.28733687277142 106.55839599999997 11.807046872771423L106.55839599999997 13.471026872771432C106.55920599999997 13.515726872771438 106.55139599999997 13.54662687277144 106.53399599999997 13.563626872771437C106.51689599999997 13.580726872771436 106.48609599999997 13.588826872771449 106.44139599999997 13.58802687277145C106.40319599999997 13.579026872771465 106.28132599999996 13.542026872771459 106.07577599999996 13.477526872771449C105.87021599999996 13.413126872771443 105.65408599999996 13.376246872771446 105.42740599999996 13.367026872771447C105.00328599999996 13.369026872771457 104.63604599999996 13.436926872771437 104.32567599999996 13.571776872771437C104.01529599999996 13.706656872771447 103.73255599999996 13.898406872771432 103.47743599999995 14.147016872771445C103.19549599999995 14.426796872771433 102.97612599999995 14.757746872771435 102.81931599999996 15.139886872771456C102.66250599999996 15.522026872771448 102.58288599999996 15.953726872771455 102.58044599999995 16.434986872771447C102.58444599999996 17.24991687277145 102.77760599999995 17.911286872771456 103.15893599999995 18.41908687277146C103.54026599999996 18.926896872771465 104.08408599999996 19.18851687277146 104.79041599999995 19.20395687277147C105.04011599999995 19.204036872771468 105.29469599999995 19.13885687277147 105.55415599999995 19.008466872771464C105.81360599999995 18.878066872771456 106.10068599999995 18.68192687277147 106.41539599999994 18.420066872771457Z " id="path10410"></path><path d="M109.419596 11.287056872771387C109.426596 11.463106872771391 109.491096 11.618016872771392 109.61459599999999 11.751796872771394C109.738096 11.885596872771401 109.881086 11.956016872771386 110.04358599999999 11.9630468727714C110.231006 11.954046872771414 110.38916599999999 11.884446872771406 110.518086 11.753916872771413C110.646996 11.62335687277141 110.71416599999999 11.485066872771426 110.719576 11.339056872771408C110.715576 11.17439687277141 110.655376 11.022736872771418 110.53920600000001 10.884066872771399C110.423016 10.745406872771412 110.275146 10.67173687277139 110.09558600000001 10.663066872771395C109.93092600000001 10.6700668727714 109.77925600000002 10.734566872771381 109.64059600000002 10.858066872771388C109.50192600000001 10.981566872771396 109.42826600000002 11.124566872771396 109.41959600000001 11.287056872771387ZM110.602586 17.487976872771384L110.602586 14.897106872771388C110.604586 14.552866872771375 110.613386 14.225756872771399 110.628586 13.915786872771378C110.64378599999999 13.605826872771388 110.65238599999999 13.44023687277138 110.654586 13.419026872771383C110.65403599999999 13.392526872771384 110.638886 13.370826872771374 110.60908599999999 13.354026872771385C110.579286 13.337226872771396 110.53808599999999 13.328526872771391 110.48558599999998 13.328026872771375C110.30534599999999 13.399026872771373 110.07432599999999 13.465076872771363 109.79252599999998 13.526276872771376C109.51072599999998 13.58747687277139 109.14808599999998 13.647076872771379 108.70460599999998 13.705026872771384C108.69270599999999 13.74942687277138 108.69050599999998 13.810116872771374 108.69760599999998 13.887026872771372C108.70560599999997 13.963926872771367 108.71600599999998 14.024606872771386 108.73010599999998 14.069016872771385C109.07527599999997 14.088516872771379 109.30466599999998 14.151516872771396 109.41828599999998 14.258006872771375C109.53189599999997 14.364476872771377 109.58416599999998 14.596146872771385 109.57509599999997 14.953006872771368L109.57509599999997 17.487976872771355C109.58569599999997 18.005266872771358 109.52879599999997 18.329176872771342 109.40447599999997 18.459716872771367C109.28015599999998 18.590256872771363 109.02503599999997 18.660666872771372 108.63910599999997 18.670966872771373C108.60010599999997 18.718066872771374 108.58060599999997 18.789586872771366 108.58060599999997 18.885456872771385C108.58060599999997 18.981356872771386 108.60010599999997 19.052836872771394 108.63910599999997 19.099956872771372C108.90289599999997 19.092956872771367 109.14230599999998 19.087256872771377 109.35734599999996 19.082056872771375C109.57238599999997 19.07705687277138 109.81829599999996 19.074056872771365 110.09508599999997 19.074056872771365C110.36483599999997 19.074326872771366 110.60532599999996 19.07705687277135 110.81657599999997 19.082056872771375C111.02782599999998 19.08705687277137 111.26831599999997 19.093156872771374 111.53806599999997 19.099956872771372C111.57706599999997 19.052856872771372 111.59656599999997 18.98133687277138 111.59656599999997 18.885456872771385C111.59656599999997 18.789556872771385 111.57706599999997 18.71808687277138 111.53806599999997 18.670966872771373C111.15213599999997 18.665966872771378 110.89701599999997 18.59756687277138 110.77270599999997 18.464586872771378C110.64839599999998 18.331616872771377 110.59151599999997 18.006076872771388 110.60208599999997 17.487976872771384Z " id="path10412"></path><path d="M111.911896 16.40898687277138C111.911086 17.10556687277139 112.136956 17.737146872771376 112.589516 18.30371687277139C113.04207600000001 18.870296872771377 113.726186 19.170376872771385 114.64186600000001 19.203956872771386C115.604116 19.16385687277139 116.30556600000001 18.841046872771386 116.746216 18.235466872771383C117.186846 17.629896872771383 117.404056 16.982066872771384 117.39782600000001 16.291996872771392C117.41002600000002 15.578626872771395 117.20688600000001 14.922136872771404 116.78846600000001 14.322516872771388C116.37002600000001 13.722906872771375 115.66315600000001 13.404406872771375 114.66786600000002 13.36702687277139C113.78522600000002 13.390626872771378 113.10652600000002 13.691216872771378 112.63176600000001 14.268896872771393C112.156996 14.84657687277138 111.91704600000001 15.559946872771405 111.91189600000001 16.40898687277138ZM114.524866 13.796026872771392C115.087106 13.798026872771402 115.519346 14.04437687277138 115.821596 14.535386872771397C116.123846 15.026406872771389 116.276586 15.750606872771385 116.279846 16.707986872771386C116.259546 17.54485687277139 116.101906 18.103846872771385 115.806976 18.384966872771372C115.51203600000001 18.66608687277136 115.201666 18.796086872771383 114.875866 18.774956872771384C114.427446 18.76055687277139 114.067626 18.604436872771373 113.796396 18.306486872771387C113.525166 18.0085368727714 113.329036 17.654966872771382 113.208036 17.245796872771393C113.087016 16.836626872771404 113.027636 16.4580268727714 113.029886 16.109996872771404C113.023886 15.518776872771411 113.13659600000001 14.991746872771415 113.367886 14.528886872771409C113.599166 14.066046872771409 113.984826 13.821756872771402 114.524866 13.79602687277142Z " id="path10414"></path></g>
</svg>