<?xml version="1.0" encoding="UTF-8" standalone="no"?>
<svg
	xmlns="http://www.w3.org/2000/svg"
	xmlns:dc="http://purl.org/dc/elements/1.1/"
	xmlns:cc="http://creativecommons.org/ns#"
	xmlns:rdf="http://www.w3.org/1999/02/22-rdf-syntax-ns#"
	xmlns:svg="http://www.w3.org/2000/svg"
	xmlns:xlink="http://www.w3.org/1999/xlink"
	xmlns:sodipodi="http://sodipodi.sourceforge.net/DTD/sodipodi-0.dtd"
	xmlns:inkscape="http://www.inkscape.org/namespaces/inkscape"
	version="1.1"
	viewBox="0 0 347.88249505000005 57.28">
	<path transform="matrix(0.3213329,0,0,0.3213329,11.590989,83.41701)" d="M15.380000049999998 37.920000000000016L23.860000049999996 37.920000000000016C24.979999049999996 37.920000000000016 28.660000049999997 38 28.660000049999997 38C29.05999905 36.00001 29.460000049999998 33.400000000000006 29.700000049999996 31.319999999999993C29.300000049999998 31.159999999999997 28.85999905 31.080000000000013 28.380000049999996 31.120000000000005C27.580001049999996 34 26.499997049999998 36.360000000000014 23.460000049999998 36.360000000000014L18.94000005 36.360000000000014C17.78000105 36.360000000000014 17.060000049999996 35.599999999999994 17.060000049999996 34.360000000000014L17.060000049999996 17C17.060000049999996 13.68001000000001 17.74000305 13.47999999999999 20.540000049999996 13.360000000000014C20.780000049999998 13.120000000000005 20.780000049999998 12.280000000000001 20.540000049999996 12.039999999999992C18.580002049999997 12.080000000000013 17.379998049999998 12.120000000000005 15.340000049999997 12.120000000000005C13.340002049999997 12.120000000000005 12.179998049999998 12.080000000000013 10.179999849999998 12.039999999999992C9.940000049999998 12.280000000000001 9.940000049999998 13.120000000000005 10.179999849999998 13.360000000000014C12.979997049999998 13.47999999999999 13.660000049999997 13.68001000000001 13.660000049999997 17L13.660000049999997 33.03999999999999C13.660000049999997 36.360000000000014 12.979997049999998 36.56 10.179999849999998 36.68000000000001C9.940000049999998 36.920000000000016 9.940000049999998 37.75999999999999 10.179999849999998 38C12.139998049999997 37.96000000000001 15.380000049999998 37.920000000000016 15.380000049999998 37.920000000000016M34.11562504999999 13.960000000000008C34.11562504999999 15 35.07562605 16.039999999999992 36.03562504999999 16.039999999999992C37.15562405 16.039999999999992 38.11562504999999 15 38.11562504999999 14.120000000000005C38.11562504999999 13.159999999999997 37.27562404999999 12.039999999999992 36.195625050000004 12.039999999999992C35.23562604999999 12.039999999999992 34.11562504999999 13 34.11562504999999 13.960000000000008M37.75562504999999 33.03999999999999L37.75562504999999 25.080000000000013C37.75562504999999 23.080010000000016 37.91562505 20.52000000000001 37.91562505 20.52000000000001C37.91562505 20.360000000000014 37.71562405 20.24000000000001 37.39562504999999 20.24000000000001C36.23562604999999 20.680000000000007 34.67562205 21.039999999999992 31.91562505 21.400000000000006C31.835625049999997 21.640000000000015 31.91562505 22.28 31.995625049999997 22.52000000000001C34.15562305 22.75999999999999 34.595625049999995 22.96001000000001 34.595625049999995 25.24000000000001L34.595625049999995 33.03999999999999C34.595625049999995 36.360000000000014 34.15562204999999 36.47999999999999 31.715625049999996 36.68000000000001C31.475625049999998 36.920000000000016 31.475625049999998 37.75999999999999 31.715625049999996 38C33.39562305 37.96000000000001 34.435627049999994 37.920000000000016 36.195625050000004 37.920000000000016C37.915623049999994 37.920000000000016 38.91562605 37.96000000000001 40.63562505 38C40.87562505 37.75999999999999 40.87562505 36.920000000000016 40.63562505 36.68000000000001C38.19562705 36.52000000000001 37.75562504999999 36.360000000000014 37.75562504999999 33.03999999999999M56.33500004999999 26.640000000000015C57.09499905 22.120010000000008 59.89500104999999 21.75999999999999 60.85500005 21.75999999999999C62.37499805 21.75999999999999 64.17500005 22.600009999999997 64.17500005 25.960000000000008C64.17500005 26.319999999999993 64.01499905 26.52000000000001 63.57500005 26.52000000000001L56.33500004999999 26.640000000000015M66.81500005 34.19999999999999C65.33500104999999 35.72 64.17499705 36.360000000000014 61.85500005 36.360000000000014C60.41500105 36.360000000000014 58.73499905 35.52000000000001 57.49500005 33.47999999999999C56.69500105 32.16 56.21500005 30.319999999999993 56.21500005 28L66.85500005 28.080000000000013C67.33499905 28.080000000000013 67.61500004999999 27.840000000000003 67.61500004999999 27.400000000000006C67.61500004999999 24.040009999999995 66.41499404999999 20.439999999999998 60.85500005 20.439999999999998C57.375003050000004 20.439999999999998 52.85500005 23.760009999999994 52.85500005 29.840000000000003C52.85500005 32.08000000000001 53.41500105 34.24000000000001 54.73500005 35.75999999999999C56.09499805 37.360000000000014 57.97500305 38.31999999999999 60.85500005 38.31999999999999C63.89499705 38.31999999999999 66.05500104999999 36.920000000000016 67.65500005 34.84C67.53500005 34.44 67.29499904999999 34.24000000000001 66.81500005 34.19999999999999M76.62562505 23.599999999999994C76.50562504999999 23.75999999999999 76.22562504999999 24.159999999999997 76.22562504999999 23.599999999999994C76.22562504999999 22.400000000000006 76.42562505 20.560000000000002 76.42562505 20.560000000000002C76.42562505 20.360000000000014 76.26562405 20.24000000000001 75.94562504999999 20.24000000000001C74.82562605 20.680000000000007 73.18562204999999 21.039999999999992 70.42562505 21.400000000000006C70.34562505 21.640000000000015 70.42562505 22.28 70.50562504999999 22.52000000000001C72.66562305 22.72 73.10562505 22.92000999999999 73.10562505 25.24000000000001L73.10562505 33.03999999999999C73.10562505 36.31999999999999 72.70562204999999 36.47999999999999 70.30562504999999 36.68000000000001C70.06562505 36.920000000000016 70.06562505 37.75999999999999 70.30562504999999 38C71.94562305 37.96000000000001 72.98562605 37.920000000000016 74.70562505 37.920000000000016C76.26562304999999 37.920000000000016 76.98562605 37.96000000000001 78.66562504999999 38C78.90562505 37.75999999999999 78.90562505 36.920000000000016 78.66562504999999 36.68000000000001C76.62562704999999 36.47999999999999 76.26562505 36.31999999999999 76.26562505 33.03999999999999L76.26562505 26.47999999999999C76.26562505 25.640000000000015 76.62562505 25.159999999999997 76.94562504999999 24.80000000000001C78.46562304999999 23.319999999999993 80.02562605 22.439999999999998 81.58562504999999 22.439999999999998C82.38562404999999 22.439999999999998 83.22562504999999 22.960000000000008 83.70562505 23.879999999999995C84.10562404999999 24.680000000000007 84.18562505 25.75999999999999 84.18562505 26.960000000000008L84.18562505 33.03999999999999C84.18562505 36.31999999999999 83.78562305 36.47999999999999 81.70562505 36.68000000000001C81.50562504999999 36.920000000000016 81.50562504999999 37.75999999999999 81.70562505 38C83.38562304999999 37.96000000000001 84.18562605 37.920000000000016 85.78562505 37.920000000000016C87.42562305 37.920000000000016 88.30562605 37.96000000000001 90.02562504999999 38C90.22562504999999 37.75999999999999 90.22562504999999 36.920000000000016 90.02562504999999 36.68000000000001C87.78562704999999 36.47999999999999 87.34562505 36.31999999999999 87.34562505 33.03999999999999L87.34562505 27.080000000000013C87.34562505 24.88001 87.18562404999999 22.960000000000008 86.26562505 21.72C85.58562504999999 20.840000000000003 84.34562305 20.360000000000014 82.94562504999999 20.360000000000014C80.98562704999999 20.360000000000014 79.06562204999999 20.88001 76.62562505 23.599999999999994M106.59187505 34.28C106.43187504999999 33.920000000000016 106.11187505 33.75999999999999 105.75187505 33.72C104.39187505 35.47999999999999 102.67187505 36.360000000000014 100.95187505 36.360000000000014C98.03187804999999 36.360000000000014 95.59187505 33.400000000000006 95.59187505 28.72C95.59187505 24.320009999999996 97.51187705 21.680000000000007 100.15187505 21.680000000000007C102.51187505 21.680000000000007 102.83187505 23.080000000000013 102.99187504999999 24.47999999999999C103.11187505 25.560000000000002 103.67187505 25.920000000000016 104.51187505 25.920000000000016C105.35187504999999 25.920000000000016 106.47187505 25.400000000000006 106.47187505 24.159999999999997C106.47187505 21.96001000000001 104.19187505 20.360000000000014 100.35187504999999 20.360000000000014C96.39187905 20.360000000000014 92.15187505 23.92000999999999 92.15187505 29.599999999999994C92.15187505 34.75999999999999 95.03188005 38.31999999999999 100.07187504999999 38.31999999999999C102.47187505 38.31999999999999 104.59187505 37.56 106.59187505 34.28M111.22499504999999 13.960000000000008C111.22499504999999 15 112.18500505 16.039999999999992 113.14499504999999 16.039999999999992C114.26499505 16.039999999999992 115.22499504999999 15 115.22499504999999 14.120000000000005C115.22499504999999 13.159999999999997 114.38499505 12.039999999999992 113.30499504999999 12.039999999999992C112.34500505 12.039999999999992 111.22499504999999 13 111.22499504999999 13.960000000000008M114.86499504999999 33.03999999999999L114.86499504999999 25.080000000000013C114.86499504999999 23.080010000000016 115.02499504999999 20.52000000000001 115.02499504999999 20.52000000000001C115.02499504999999 20.360000000000014 114.82499505 20.24000000000001 114.50499504999999 20.24000000000001C113.34500505 20.680000000000007 111.78499504999999 21.039999999999992 109.02499504999999 21.400000000000006C108.94499504999999 21.640000000000015 109.02499504999999 22.28 109.10499505 22.52000000000001C111.26499505 22.75999999999999 111.70499505 22.96001000000001 111.70499505 25.24000000000001L111.70499505 33.03999999999999C111.70499505 36.360000000000014 111.26499505 36.47999999999999 108.82499505 36.68000000000001C108.58500504999999 36.920000000000016 108.58500504999999 37.75999999999999 108.82499505 38C110.50499504999999 37.96000000000001 111.54500505 37.920000000000016 113.30499504999999 37.920000000000016C115.02499504999999 37.920000000000016 116.02500504999999 37.96000000000001 117.74499505 38C117.98499505 37.75999999999999 117.98499505 36.920000000000016 117.74499505 36.68000000000001C115.30500504999999 36.52000000000001 114.86499504999999 36.360000000000014 114.86499504999999 33.03999999999999M134.40437505 34.28C134.24437505 33.920000000000016 133.92437504999998 33.75999999999999 133.56437505 33.72C132.20437504999998 35.47999999999999 130.48437504999998 36.360000000000014 128.76437504999998 36.360000000000014C125.84437505 36.360000000000014 123.40437505 33.400000000000006 123.40437505 28.72C123.40437505 24.320009999999996 125.32437505 21.680000000000007 127.96437505 21.680000000000007C130.32437505 21.680000000000007 130.64437505 23.080000000000013 130.80437505 24.47999999999999C130.92437504999998 25.560000000000002 131.48437504999998 25.920000000000016 132.32437505 25.920000000000016C133.16437505 25.920000000000016 134.28437505 25.400000000000006 134.28437505 24.159999999999997C134.28437505 21.96001000000001 132.00437505 20.360000000000014 128.16437505 20.360000000000014C124.20437505 20.360000000000014 119.96437505 23.92000999999999 119.96437505 29.599999999999994C119.96437505 34.75999999999999 122.84437505 38.31999999999999 127.88437504999999 38.31999999999999C130.28437505 38.31999999999999 132.40437505 37.56 134.40437505 34.28M139.23749505 33.03999999999999C139.23749505 36.360000000000014 138.79749504999998 36.56 136.35749504999998 36.68000000000001C136.11750505 36.920000000000016 136.11750505 37.75999999999999 136.35749504999998 38C138.03749505 37.96000000000001 139.07750504999998 37.920000000000016 140.83749505 37.920000000000016C142.55749505 37.920000000000016 143.55750505 37.96000000000001 145.27749505 38C145.51749505 37.75999999999999 145.51749505 36.920000000000016 145.27749505 36.68000000000001C142.83750505 36.56 142.39749505 36.360000000000014 142.39749505 33.03999999999999L142.39749505 14.599999999999994C142.39749505 12.000010000000003 142.55749505 10.400000000000006 142.55749505 10.400000000000006C142.55749505 10.120000000000005 142.39749505 10 142.03749505 10C141.03750505 10.400000000000006 138.03749505 10.960000000000008 136.43749505 11.080000000000013C136.35749504999998 11.400000000000006 136.43750505 12.039999999999992 136.67749505 12.280000000000001C138.75749505 12.400000000000006 139.23749505 12.200009999999992 139.23749505 15.560000000000002L139.23749505 33.03999999999999M147.62437505 29.72C147.62437505 33.80000000000001 150.38438505 38.31999999999999 156.02437505 38.31999999999999C161.98436505 38.31999999999999 164.50437505 33.360000000000014 164.50437505 29.360000000000014C164.50437505 25.200009999999992 162.30436505 20.360000000000014 156.10437505 20.360000000000014C150.70438504999998 20.360000000000014 147.62437505 24.64000999999999 147.62437505 29.72M155.66437505 21.680000000000007C159.10437505 21.680000000000007 161.06437505 24.760009999999994 161.06437505 30.640000000000015C161.06437505 35.920000000000016 158.62437505 37 156.74437505 37C152.58437505 37 151.06437505 31.879999999999995 151.06437505 28.80000000000001C151.06437505 25.320009999999996 152.30437505 21.680000000000007 155.66437505 21.680000000000007M173.14062504999998 24.52000000000001C174.38062505 23.24000000000001 175.98062505 22.19999999999999 177.18062505 22.19999999999999C179.74062505 22.19999999999999 181.94062505 25.080010000000016 181.94062505 29.599999999999994C181.94062505 32.879999999999995 180.78062505 36.96000000000001 176.30062505 36.96000000000001C175.58062504999998 36.96000000000001 174.18062505 36.75999999999999 173.46062505 36.120000000000005C172.62062505 35.400000000000006 172.50062505 35.19999999999999 172.50062505 33.72L172.50062505 26.28C172.50062505 25.439999999999998 172.62062505 25.080000000000013 173.14062504999998 24.52000000000001M172.82062505 23.19999999999999C172.66062505 23.360000000000014 172.42062504999998 23.400000000000006 172.42062504999998 23.080000000000013C172.42062504999998 21.640000000000015 172.58062504999998 20.52000000000001 172.58062504999998 20.52000000000001C172.58062504999998 20.360000000000014 172.38062505 20.24000000000001 172.06062505 20.24000000000001C170.94062505 20.680000000000007 169.42062504999998 21.039999999999992 166.66062505 21.400000000000006C166.58062504999998 21.640000000000015 166.66062505 22.28 166.74062505 22.52000000000001C168.90062505 22.72 169.34062505 22.96001000000001 169.34062505 25.24000000000001L169.34062505 42.31999999999999C169.34062505 45.640000000000015 168.90062505 45.84 166.46062505 45.96000000000001C166.22062505 46.19999999999999 166.22062505 47.03999999999999 166.46062505 47.28C168.14062504999998 47.24000000000001 169.18062505 47.19999999999999 170.94062505 47.19999999999999C172.82062505 47.19999999999999 174.06062505 47.24000000000001 175.78062505 47.28C176.02062505 47.03999999999999 176.02062505 46.19999999999999 175.78062505 45.96000000000001C172.94062505 45.80000000000001 172.50062505 45.640000000000015 172.50062505 42.31999999999999L172.50062505 38C172.50062505 37.47999999999999 172.62062505 37.56 173.06062505 37.72C174.02062505 38.120000000000005 175.26062505 38.31999999999999 176.54062505 38.31999999999999C178.78062505 38.31999999999999 180.78062505 37.640000000000015 182.42062504999998 36.08000000000001C184.30062505 34.24000000000001 185.38062505 31.75999999999999 185.38062505 28.52000000000001C185.38062505 24.280010000000004 182.38062505 20.360000000000014 178.30062505 20.360000000000014C176.82062505 20.360000000000014 174.62062505 21.360000000000014 172.82062505 23.19999999999999M192.19437505 26.640000000000015C192.95437504999998 22.120010000000008 195.75437505 21.75999999999999 196.71437505 21.75999999999999C198.23437504999998 21.75999999999999 200.03437505 22.600009999999997 200.03437505 25.960000000000008C200.03437505 26.319999999999993 199.87437505 26.52000000000001 199.43437505 26.52000000000001L192.19437505 26.640000000000015M202.67437504999998 34.19999999999999C201.19437505 35.72 200.03437505 36.360000000000014 197.71437505 36.360000000000014C196.27437505 36.360000000000014 194.59437505 35.52000000000001 193.35437505 33.47999999999999C192.55437505 32.16 192.07437505 30.319999999999993 192.07437505 28L202.71437505 28.080000000000013C203.19437505 28.080000000000013 203.47437505 27.840000000000003 203.47437505 27.400000000000006C203.47437505 24.040009999999995 202.27436505 20.439999999999998 196.71437505 20.439999999999998C193.23437504999998 20.439999999999998 188.71437505 23.760009999999994 188.71437505 29.840000000000003C188.71437505 32.08000000000001 189.27437505 34.24000000000001 190.59437505 35.75999999999999C191.95437504999998 37.360000000000014 193.83437505 38.31999999999999 196.71437505 38.31999999999999C199.75437505 38.31999999999999 201.91437505 36.920000000000016 203.51437504999998 34.84C203.39437505 34.44 203.15437505 34.24000000000001 202.67437504999998 34.19999999999999M219.15937505 32.96000000000001C219.15937505 33.72 219.07937504999998 34.03999999999999 218.51937505 34.52000000000001C217.03937505 35.80000000000001 215.75937505 36.44 214.75937505 36.44C212.59937505 36.44 210.35937504999998 34.08000000000001 210.35937504999998 29.080000000000013C210.35937504999998 26.200009999999992 210.91937504999999 24.599999999999994 211.51937505 23.75999999999999C212.75937505 21.879999999999995 214.43937505 21.75999999999999 215.23937505 21.75999999999999C216.67937505 21.75999999999999 217.67937505 22.28 218.47937505 23.19999999999999C219.03937505 23.840000000000003 219.15937505 24.120000000000005 219.15937505 25.360000000000014L219.15937505 32.96000000000001M218.71937505 35.920000000000016C218.87937505 35.75999999999999 219.19937505 35.68000000000001 219.19937505 35.96000000000001C219.19937505 36.920000000000016 219.63937504999998 38.31999999999999 219.63937504999998 38.31999999999999C219.95937505 38.44 220.07937504999998 38.400000000000006 220.39937505 38.31999999999999C221.27937505 37.599999999999994 222.79937504999998 37 225.23937505 36.72C225.47937505 36.47999999999999 225.47937505 35.879999999999995 225.23937505 35.640000000000015C222.67937505 35.44 222.31937505 34.68000000000001 222.31937505 32.72L222.31937505 14.599999999999994C222.31937505 12.000010000000003 222.47937505 10.400000000000006 222.47937505 10.400000000000006C222.47937505 10.120000000000005 222.31937505 10 221.95937505 10C220.95937505 10.400000000000006 217.95937505 10.960000000000008 216.35937504999998 11.080000000000013C216.27937505 11.400000000000006 216.35937504999998 12.039999999999992 216.59937505 12.280000000000001C218.67937505 12.400000000000006 219.15937505 12.200009999999992 219.15937505 15.560000000000002L219.15937505 20.680000000000007C219.15937505 20.960000000000008 219.07937504999998 21.039999999999992 218.79937504999998 21.039999999999992C218.63937504999998 21.039999999999992 216.99937505 20.360000000000014 215.67937505 20.360000000000014C213.03937505 20.360000000000014 211.27937505 21.24000000000001 209.67937505 22.75999999999999C207.95937505 24.47999999999999 206.91937504999999 26.840010000000007 206.91937504999999 29.80000000000001C206.91937504999999 34.72 209.39937505 38.31999999999999 213.71937505 38.31999999999999C215.27937505 38.31999999999999 216.75937505 37.52000000000001 218.71937505 35.920000000000016M229.19374505 13.960000000000008C229.19374505 15 230.15375505 16.039999999999992 231.11374505 16.039999999999992C232.23374504999998 16.039999999999992 233.19374505 15 233.19374505 14.120000000000005C233.19374505 13.159999999999997 232.35374505 12.039999999999992 231.27374505 12.039999999999992C230.31375505 12.039999999999992 229.19374505 13 229.19374505 13.960000000000008M232.83374505 33.03999999999999L232.83374505 25.080000000000013C232.83374505 23.080010000000016 232.99374505 20.52000000000001 232.99374505 20.52000000000001C232.99374505 20.360000000000014 232.79374504999998 20.24000000000001 232.47374505 20.24000000000001C231.31375505 20.680000000000007 229.75374505 21.039999999999992 226.99374505 21.400000000000006C226.91374505 21.640000000000015 226.99374505 22.28 227.07374504999999 22.52000000000001C229.23374504999998 22.75999999999999 229.67374505 22.96001000000001 229.67374505 25.24000000000001L229.67374505 33.03999999999999C229.67374505 36.360000000000014 229.23374504999998 36.47999999999999 226.79374504999998 36.68000000000001C226.55375505 36.920000000000016 226.55375505 37.75999999999999 226.79374504999998 38C228.47374505 37.96000000000001 229.51375505 37.920000000000016 231.27374505 37.920000000000016C232.99374505 37.920000000000016 233.99375505 37.96000000000001 235.71374505 38C235.95374504999998 37.75999999999999 235.95374504999998 36.920000000000016 235.71374505 36.68000000000001C233.27375505 36.52000000000001 232.83374505 36.360000000000014 232.83374505 33.03999999999999M241.41312505 26.640000000000015C242.17312504999998 22.120010000000008 244.97312505 21.75999999999999 245.93312505 21.75999999999999C247.45312504999998 21.75999999999999 249.25312505 22.600009999999997 249.25312505 25.960000000000008C249.25312505 26.319999999999993 249.09312505 26.52000000000001 248.65312505 26.52000000000001L241.41312505 26.640000000000015M251.89312504999998 34.19999999999999C250.41312505 35.72 249.25312505 36.360000000000014 246.93312505 36.360000000000014C245.49312505 36.360000000000014 243.81312505 35.52000000000001 242.57312505 33.47999999999999C241.77312505 32.16 241.29312505 30.319999999999993 241.29312505 28L251.93312505 28.080000000000013C252.41312505 28.080000000000013 252.69312505 27.840000000000003 252.69312505 27.400000000000006C252.69312505 24.040009999999995 251.49311505 20.439999999999998 245.93312505 20.439999999999998C242.45312504999998 20.439999999999998 237.93312505 23.760009999999994 237.93312505 29.840000000000003C237.93312505 32.08000000000001 238.49312505 34.24000000000001 239.81312505 35.75999999999999C241.17312504999998 37.360000000000014 243.05312505 38.31999999999999 245.93312505 38.31999999999999C248.97312505 38.31999999999999 251.13312505 36.920000000000016 252.73312504999998 34.84C252.61312505 34.44 252.37312505 34.24000000000001 251.89312504999998 34.19999999999999M268.14374505 33.03999999999999C268.14374505 36.360000000000014 267.70374505 36.56 265.26374505 36.68000000000001C265.02375505000003 36.920000000000016 265.02375505000003 37.75999999999999 265.26374505 38C266.94374505 37.96000000000001 267.98375505 37.920000000000016 269.74374505000003 37.920000000000016C271.46374505 37.920000000000016 272.46375505000003 37.96000000000001 274.18374505 38C274.42374505000004 37.75999999999999 274.42374505000004 36.920000000000016 274.18374505 36.68000000000001C271.74375505 36.56 271.30374505000003 36.360000000000014 271.30374505000003 33.03999999999999L271.30374505000003 14.599999999999994C271.30374505000003 12.000010000000003 271.46374505 10.400000000000006 271.46374505 10.400000000000006C271.46374505 10.120000000000005 271.30374505000003 10 270.94374505 10C269.94375505000005 10.400000000000006 266.94374505 10.960000000000008 265.34374505 11.080000000000013C265.26374505 11.400000000000006 265.34375505 12.039999999999992 265.58374505 12.280000000000001C267.66374505000005 12.400000000000006 268.14374505 12.200009999999992 268.14374505 15.560000000000002L268.14374505 33.03999999999999M281.41062505 11.080000000000013L278.37062505 15.840000000000003C278.05062505 16.360000000000014 277.93062505 16.52000000000001 277.93062505 16.960000000000008C277.93062505 17.24000000000001 278.21062505000003 17.47999999999999 278.49062505 17.47999999999999C278.77062505000004 17.47999999999999 279.09062505 17.319999999999993 279.69062505 16.72L284.29062505 12.360000000000014L284.17062505 11.920000000000016C283.25062505 11.039999999999992 282.21062505000003 11 281.97062505 11C281.77062505000004 11 281.53062505 11.039999999999992 281.41062505 11.080000000000013M282.13062505000005 33.03999999999999L282.13062505000005 25.080000000000013C282.13062505000005 23.080010000000016 282.29062505 20.52000000000001 282.29062505 20.52000000000001C282.29062505 20.360000000000014 282.09062505 20.24000000000001 281.77062505000004 20.24000000000001C280.61062505 20.680000000000007 279.05062505 21.039999999999992 276.29062505 21.400000000000006C276.21062505000003 21.640000000000015 276.29062505 22.28 276.37062505 22.52000000000001C278.53062505 22.75999999999999 278.97062505 22.96001000000001 278.97062505 25.24000000000001L278.97062505 33.03999999999999C278.97062505 36.360000000000014 278.53062505 36.47999999999999 276.09062505 36.68000000000001C275.85062505 36.920000000000016 275.85062505 37.75999999999999 276.09062505 38C277.77062505000004 37.96000000000001 278.81062505 37.920000000000016 280.57062505000005 37.920000000000016C282.29062505 37.920000000000016 283.29062505 37.96000000000001 285.01062505000004 38C285.25062505 37.75999999999999 285.25062505 36.920000000000016 285.01062505000004 36.68000000000001C282.57062505000005 36.52000000000001 282.13062505000005 36.360000000000014 282.13062505000005 33.03999999999999M292.70999505000003 23.400000000000006C293.74999505 22.47999999999999 294.95000505 22.120000000000005 296.10999505 22.120000000000005C298.54999505 22.120000000000005 300.54999505 25.080010000000016 300.54999505 28.960000000000008C300.54999505 33.52000000000001 298.70999505000003 36.96000000000001 294.90999505 36.96000000000001C293.67000505000004 36.96000000000001 292.82999505000004 36.08000000000001 292.02999505 35.08000000000001L292.02999505 25.080000000000013C292.02999505 24.24000000000001 292.19000505 23.879999999999995 292.70999505000003 23.400000000000006M292.42999505 22.159999999999997C292.15000505 22.400000000000006 292.02999505 22.319999999999993 292.02999505 21.960000000000008L292.02999505 14.599999999999994C292.02999505 12.000010000000003 292.18999505000005 10.400000000000006 292.18999505000005 10.400000000000006C292.18999505000005 10.120000000000005 292.02999505 10 291.66999505 10C290.67000505000004 10.400000000000006 287.66999505 10.960000000000008 286.06999505000005 11.080000000000013C285.98999505 11.400000000000006 286.07000505 12.039999999999992 286.30999505 12.280000000000001C288.38999505000004 12.400000000000006 288.86999505 12.200009999999992 288.86999505 15.560000000000002L288.86999505 35.08000000000001C288.86999505 36.640000000000015 288.82999505000004 37.360000000000014 288.70999505000003 37.920000000000016C288.90999505 38.24000000000001 289.11000505000004 38.400000000000006 289.58999505 38.400000000000006C289.82999505000004 38.19999999999999 290.23000505000005 37.80000000000001 290.50999505000004 37.44C290.94999505000004 36.96000000000001 291.19000505 36.96000000000001 291.62999505000005 37.360000000000014C292.50999505000004 38.120000000000005 293.71000505 38.31999999999999 295.14999505000003 38.31999999999999C299.22999505 38.31999999999999 303.98999505 34.599999999999994 303.98999505 28.24000000000001C303.98999505 23.36000999999999 300.38999505000004 20.360000000000014 296.90999505 20.360000000000014C295.19000505 20.360000000000014 293.66999505 21.039999999999992 292.42999505 22.159999999999997M310.63187505 26.640000000000015C311.39187505 22.120010000000008 314.19187505 21.75999999999999 315.15187505 21.75999999999999C316.67187505000004 21.75999999999999 318.47187505 22.600009999999997 318.47187505 25.960000000000008C318.47187505 26.319999999999993 318.31187505 26.52000000000001 317.87187505 26.52000000000001L310.63187505 26.640000000000015M321.11187505000004 34.19999999999999C319.63187505 35.72 318.47187505 36.360000000000014 316.15187505 36.360000000000014C314.71187505 36.360000000000014 313.03187505 35.52000000000001 311.79187505000004 33.47999999999999C310.99187505000003 32.16 310.51187505 30.319999999999993 310.51187505 28L321.15187505 28.080000000000013C321.63187505 28.080000000000013 321.91187505000005 27.840000000000003 321.91187505000005 27.400000000000006C321.91187505000005 24.040009999999995 320.71186505000003 20.439999999999998 315.15187505 20.439999999999998C311.67187505000004 20.439999999999998 307.15187505 23.760009999999994 307.15187505 29.840000000000003C307.15187505 32.08000000000001 307.71187505 34.24000000000001 309.03187505 35.75999999999999C310.39187505 37.360000000000014 312.27187505 38.31999999999999 315.15187505 38.31999999999999C318.19187505 38.31999999999999 320.35187505000005 36.920000000000016 321.95187505 34.84C321.83187505 34.44 321.59187505 34.24000000000001 321.11187505000004 34.19999999999999M327.56249505 25.24000000000001L327.56249505 33.03999999999999C327.56249505 36.360000000000014 327.08249505000003 36.52000000000001 324.60249505 36.68000000000001C324.36250505000004 36.920000000000016 324.36250505000004 37.75999999999999 324.60249505 38C326.28249505 37.96000000000001 327.56250505 37.920000000000016 329.16249505 37.920000000000016C330.80249505 37.920000000000016 332.28250505 37.96000000000001 334.00249505000005 38C334.24249505 37.75999999999999 334.24249505 36.920000000000016 334.00249505000005 36.68000000000001C331.20250505 36.47999999999999 330.72249505 36.360000000000014 330.72249505 33.03999999999999L330.72249505 27.47999999999999C330.72249505 26.439999999999998 331.20250505 25.52000000000001 331.68249505 24.80000000000001C332.12249505 24.159999999999997 333.04250505000005 22.840000000000003 333.52249505000003 22.840000000000003C333.80249505 22.840000000000003 334.12250505000003 22.879999999999995 334.36249505 23.120000000000005C334.76249505000004 23.52000000000001 335.16250505000005 24.28 336.00249505000005 24.28C336.96249505000003 24.28 337.88249505000005 23.28 337.88249505000005 22.28C337.88249505000005 21.52000000000001 337.16249505 20.360000000000014 335.48249505 20.360000000000014C333.60250505000005 20.360000000000014 331.96249505000003 22.120000000000005 331.04249505 23.680000000000007C330.80250505000004 24.120000000000005 330.68249505 23.920000000000016 330.68249505 23.72C330.68249505 22.439999999999998 330.88249505000005 20.52000000000001 330.88249505000005 20.52000000000001C330.88249505000005 20.360000000000014 330.68249505 20.24000000000001 330.36249505 20.24000000000001C329.24250505000003 20.680000000000007 327.64249505000004 21.039999999999992 324.88249505000005 21.400000000000006C324.80249505 21.640000000000015 324.80249505 22.28 324.96249505000003 22.52000000000001C327.12249505 22.72 327.56249505 23.040009999999995 327.56249505 25.24000000000001 " id="subline" style="font-size:40px;font-style:normal;font-variant:normal;font-weight:normal;font-stretch:normal;fill:#000000;fill-opacity:1;stroke:none;stroke-width:1px;stroke-linecap:butt;stroke-linejoin:miter;stroke-opacity:1;font-family:Sans;-inkscape-font-specification:Sans"></path>
</svg>