<?xml version="1.0" encoding="UTF-8" standalone="no"?>
<svg
	xmlns="http://www.w3.org/2000/svg"
	xmlns:dc="http://purl.org/dc/elements/1.1/"
	xmlns:cc="http://creativecommons.org/ns#"
	xmlns:rdf="http://www.w3.org/1999/02/22-rdf-syntax-ns#"
	xmlns:svg="http://www.w3.org/2000/svg"
	xmlns:xlink="http://www.w3.org/1999/xlink"
	xmlns:sodipodi="http://sodipodi.sourceforge.net/DTD/sodipodi-0.dtd"
	xmlns:inkscape="http://www.inkscape.org/namespaces/inkscape"
	version="1.1"
	viewBox="0 0 116.47471 33.68799000000001">
	<path id="tagline" d="M40.70957 18.31543000000002L38.043554 18.31543000000002L38.043554 19.737310000000008C38.018161 19.978520000000003 37.944105 20.126630000000006 37.821386 20.181640000000016C37.635186 20.164720000000017 37.484958 20.084310000000016 37.370703 19.94043000000002L36.621679 19.000980000000027C36.325454 18.628590000000003 36.177342 18.313320000000004 36.177343 18.055180000000007C36.177342 17.73780000000002 36.348729 17.496590000000026 36.691503 17.331540000000018C36.725356 17.323090000000008 38.06471 17.31886 40.70957 17.318850000000026L40.70957 18.31543000000002M53.46875 10.094240000000013C52.78743299999999 10.094250000000017 52.245767 10.231300000000005 51.84375 10.531740000000013C51.348631999999995 10.904150000000016 51.09375 11.424000000000007 51.09375 12.062990000000013C51.09375 12.955900000000014 51.32682200000001 13.722180000000009 51.75 14.344240000000013L48.34375 14.344240000000013L10 14.344240000000013L10.875 15.219240000000013L12.9375 15.219240000000013C13.212561999999998 15.354660000000024 13.375648000000002 15.471520000000027 13.46875 15.594240000000013C13.629553999999999 15.805830000000014 13.718747 16.155770000000018 13.71875 16.625490000000013C13.718747 17.035980000000023 13.596025999999998 17.342940000000027 13.3125 17.562990000000013C13.071287000000002 17.38103000000001 12.763344 17.281750000000017 12.4375 17.281740000000013C12.014322 17.281750000000017 11.812498999999999 17.595550000000003 11.8125 18.187990000000013C11.812498999999999 18.750820000000004 12.295245999999999 19.67171000000002 13.28125 21.000490000000013C14.047197 22.03304 14.813472999999998 22.947430000000026 15.5625 23.687990000000013L15.84375 23.406740000000013C14.861975000000001 22.34880000000001 13.924150999999998 21.055180000000007 13.03125 19.531740000000013C13.39518 19.366710000000012 13.660153000000001 19.04704000000001 13.8125 18.594240000000013C14.464189000000001 18.966640000000012 15.121089000000001 19.156740000000013 15.78125 19.156740000000013C16.259435 19.156740000000013 16.695958 19.06006000000002 17.09375 18.844240000000013L17.09375 17.656740000000013C16.547846 18.096850000000018 16.060867 18.312990000000013 15.625 18.312990000000013C15.121414999999999 18.312990000000013 14.63346 18.160000000000025 14.21875 17.812990000000013C14.409175999999999 17.30095 14.531246 16.858570000000014 14.53125 16.469240000000013C14.531246 15.999520000000018 14.423499 15.57895000000002 14.25 15.219240000000013L23.75 15.219240000000013L23.75 17.719240000000013C23.297195000000002 16.965990000000005 22.656245 16.557140000000004 21.84375 16.531740000000013C21.027016000000003 16.50212000000002 20.297849 16.803230000000013 19.625 17.437990000000013C19.451497000000003 17.636890000000022 19.321938000000003 17.920420000000007 19.25 18.250490000000013C19.249999000000003 18.889490000000023 19.440102000000003 19.437010000000015 19.8125 19.906740000000013C20.282224999999997 20.494950000000017 20.825516999999998 20.810390000000012 21.46875 20.844240000000013C21.786129000000003 20.861170000000016 22.186518 20.77621000000002 22.65625 20.594240000000013C23.066727 20.43344000000002 23.432611 20.243330000000014 23.75 20.031740000000013L23.75 22.312990000000013L24.875 23.437990000000013L24.875 15.219240000000013L31.6875 15.219240000000013L31.6875 16.875490000000013L29 16.875490000000013C28.551430000000003 16.875500000000017 28.128252000000003 17.000820000000004 27.78125 17.250490000000013C27.413083999999998 17.512860000000018 27.192706 17.85011 27.125 18.281740000000013C27.099608000000003 18.446780000000018 27.093747999999998 18.636890000000022 27.09375 18.844240000000013C27.093749000000003 19.123550000000023 27.197263 19.532400000000024 27.375 20.031740000000013C27.518879 20.438000000000017 27.722327999999997 20.802900000000022 28.03125 21.187990000000013L29.8125 23.406740000000013L30.03125 23.156740000000013L28.40625 20.875490000000013C28.080402 20.422690000000017 27.897782999999997 19.976080000000024 27.90625 19.531740000000013C27.914712 19.015470000000022 28.019854000000002 18.647960000000012 28.21875 18.406740000000013C28.514972 18.042820000000006 29.070959000000002 17.844250000000017 29.875 17.844240000000013L31.6875 17.844240000000013L31.6875 22.375490000000013L32.75 23.437990000000013L32.75 15.219240000000013L48.3125 15.219240000000013L48.3125 17.844240000000013C48.043874 17.457630000000023 47.738473 17.104210000000023 47.40625 16.812990000000013C46.953445 16.423670000000016 46.55143 16.219250000000017 46.1875 16.219240000000013C46.145178 16.219250000000017 46.082025 16.24203 46.03125 16.250490000000013C45.773108 16.292810000000003 45.265949 16.506350000000026 44.5 16.937990000000013L42.875 17.875490000000013L43.75 18.750490000000013C44.304359 18.41195000000002 44.693684 18.161310000000014 44.96875 18.000490000000013C45.777015 17.501150000000024 46.291013 17.250500000000017 46.46875 17.250490000000013C46.815751 17.250500000000017 47.357419 17.636570000000006 48.09375 18.406740000000013L44.90625 20.375490000000013L45.75 21.250490000000013L48.3125 19.437990000000013L48.3125 22.250490000000013L49.5 23.437990000000013L49.5 15.219240000000013L51.71875 15.219240000000013L51.71875 22.375490000000013L52.78125 23.437990000000013L52.78125 15.219240000000013L60.375 15.219240000000013L60.375 17.719240000000013C59.922196 16.965990000000005 59.281242000000006 16.557140000000004 58.46875 16.531740000000013C57.652015000000006 16.50212000000002 56.92284600000001 16.803230000000013 56.25 17.437990000000013C56.076496000000006 17.636890000000022 55.946934999999996 17.920420000000007 55.875 18.250490000000013C55.874999 18.889490000000023 56.0651 19.437010000000015 56.4375 19.906740000000013C56.907224 20.494950000000017 57.450523000000004 20.810390000000012 58.09375 20.844240000000013C58.41113 20.861170000000016 58.811522999999994 20.77621000000002 59.28125 20.594240000000013C59.691727 20.43344000000002 60.057615999999996 20.243330000000014 60.375 20.031740000000013L60.375 22.312990000000013L61.5 23.437990000000013L61.5 15.219240000000013L63.65625 15.219240000000013L62.78125 14.344240000000013L59.1875 14.344240000000013C58.659413 13.014530000000008 57.903141000000005 11.995550000000009 56.9375 11.250490000000013C56.370436999999995 10.814630000000022 55.790034000000006 10.48651000000001 55.21875 10.312990000000013C54.727861000000004 10.160660000000007 54.154292999999996 10.094250000000017 53.46875 10.094240000000013ZM54.0625 11.000490000000013C54.718419999999995 11.000500000000017 55.35676599999999 11.16294000000002 56 11.437990000000013C56.533197 11.66652000000002 57.09765 12.025570000000016 57.65625 12.562990000000013C58.096346999999994 12.986180000000019 58.374667 13.390800000000013 58.53125 13.750490000000013C58.673052 14.04561000000001 58.773697 14.22081 58.84375 14.344240000000013L52.4375 14.344240000000013C52.027016 13.98878000000002 51.812499 13.448750000000018 51.8125 12.750490000000013C51.812499 12.200380000000024 52.067381 11.745290000000011 52.5625 11.406740000000013C52.956052 11.135920000000027 53.457353999999995 11.000500000000017 54.0625 11.000490000000013ZM22.34375 17.562990000000013C23.046219 17.563000000000017 23.489576999999997 17.712740000000025 23.625 18.000490000000013C23.624995 18.26287000000002 23.459304000000003 18.563970000000012 23.125 18.906740000000013C22.460608 19.59229000000002 21.718746000000003 19.937990000000013 20.90625 19.937990000000013C20.258786999999998 19.937990000000013 19.937497 19.74203 19.9375 19.344240000000013C19.937497999999998 19.04379 20.060218 18.725760000000008 20.34375 18.437990000000013C20.927731 17.845550000000003 21.590490000000003 17.563000000000017 22.34375 17.562990000000013ZM59 17.562990000000013C59.702470000000005 17.563000000000017 60.114582 17.712740000000025 60.25 18.000490000000013C60.249995 18.26287000000002 60.084300999999996 18.563970000000012 59.75 18.906740000000013C59.085606999999996 19.59229000000002 58.343743 19.937990000000013 57.53125 19.937990000000013C56.883787 19.937990000000013 56.56250300000001 19.74203 56.5625 19.344240000000013C56.562499 19.04379 56.716474000000005 18.725760000000008 57 18.437990000000013C57.583982000000006 17.845550000000003 58.246745000000004 17.563000000000017 59 17.562990000000013ZM65.59375 14.219240000000013C65.08594 14.227710000000002 64.66537 14.44386 64.34375 14.875490000000013C64.04753 15.269060000000025 63.90624 15.725750000000005 63.90625 16.250490000000013C63.90624 16.74138000000002 64.03744 17.172050000000013 64.3125 17.531740000000013C64.60449 17.921070000000014 64.99479 18.14145000000002 65.46875 18.187990000000013C66.02311 18.188000000000017 66.45964 18.044110000000018 66.78125 17.781740000000013C66.78125 18.793140000000022 66.43131 19.46436 65.75 19.781740000000013C65.75 19.747890000000012 65.71386 19.667160000000024 65.625 19.531740000000013C65.54036 19.396320000000003 65.47558 19.288580000000024 65.4375 19.250490000000013C65.2513 19.064300000000003 65.05697 18.96338 64.875 18.937990000000013C64.92155 18.946460000000002 64.77018 18.969250000000017 64.40625 18.969240000000013C63.97461 19.06235000000001 63.75 19.354990000000015 63.75 19.875490000000013C63.75 20.362150000000014 64.11426 20.691900000000004 64.8125 20.844240000000013C65.15104 20.916180000000026 65.44792 20.881680000000017 65.71875 20.750490000000013L67.5625 23.437990000000013L67.84375 23.219240000000013L66.15625 20.562990000000013C67.12532 19.775890000000004 67.63834 18.78337000000002 67.71875 17.594240000000013C67.73567 17.31495000000001 67.75 17.14079000000001 67.75 17.094240000000013C67.72884 16.510260000000017 67.61783 16.046070000000014 67.40625 15.656740000000013C66.87304 14.687670000000026 66.27506 14.21078 65.59375 14.219240000000013ZM66.96875 14.344240000000013L67.84375 15.219240000000013L73.28125 15.219240000000013L73.28125 17.719240000000013C72.828448 16.965990000000005 72.187492 16.557140000000004 71.375 16.531740000000013C70.558267 16.50212000000002 69.829096 16.803230000000013 69.15625 17.437990000000013C68.982748 17.636890000000022 68.853185 17.920420000000007 68.78125 18.250490000000013C68.781251 18.889490000000023 68.97135 19.437010000000015 69.34375 19.906740000000013C69.813476 20.494950000000017 70.356773 20.810390000000012 71 20.844240000000013C71.317382 20.861170000000016 71.717773 20.77621000000002 72.1875 20.594240000000013C72.597979 20.43344000000002 72.963866 20.243330000000014 73.28125 20.031740000000013L73.28125 22.312990000000013L74.40625 23.437990000000013L74.40625 15.219240000000013L81.8125 15.219240000000013L81.8125 17.937990000000013C81.397781 17.260910000000024 80.795569 16.938000000000017 80 16.937990000000013C79.373695 16.938000000000017 78.84798 17.121260000000007 78.4375 17.531740000000013C78.027017 17.937990000000013 77.812499 18.467940000000027 77.8125 19.094240000000013C77.812499 19.707850000000008 78.037109 20.20655000000002 78.46875 20.625490000000013C78.904621 21.04444000000001 79.448891 21.281740000000013 80.0625 21.281740000000013C80.346025 21.281740000000013 80.644528 21.20687000000001 81 21.062990000000013C81.355464 20.91488000000001 81.630529 20.734860000000026 81.8125 20.531740000000013L81.8125 22.375490000000013L82.875 23.437990000000013L82.875 19.281740000000013C83.150058 18.88819000000001 83.428379 18.552580000000006 83.75 18.281740000000013C84.075839 18.006680000000017 84.369459 17.865410000000026 84.59375 17.844240000000013C85.0677 17.79770000000002 85.400707 17.872570000000024 85.625 18.062990000000013C85.97623 18.36769000000001 86.15624 18.717610000000008 86.15625 19.094240000000013C86.15624 19.513180000000006 85.94856 19.899260000000027 85.5 20.250490000000013C85.296866 20.41130000000001 84.882153 20.627440000000007 84.28125 20.906740000000013L84.75 21.812990000000013C85.346671 21.571780000000018 85.783194 21.266440000000017 86.0625 20.906740000000013C86.43489 20.441240000000022 86.62499 19.931490000000025 86.625 19.406740000000013C86.62499 18.750820000000004 86.39192 18.199060000000003 85.96875 17.750490000000013C85.545564 17.297690000000017 85.022452 17.094240000000013 84.375 17.094240000000013C84.125318 17.094240000000013 83.850254 17.138840000000016 83.5625 17.219240000000013C83.422845 17.257330000000024 83.300124 17.30095 83.15625 17.406740000000013C83.096999 17.449070000000006 83.001947 17.542480000000012 82.875 17.656740000000013L82.875 15.219240000000013L90.03125 15.219240000000013L90.03125 22.375490000000013L91.09375 23.437990000000013L91.09375 15.219240000000013L93.25 15.219240000000013L92.375 14.344240000000013L66.96875 14.344240000000013ZM65.46875 14.687990000000013C65.89192 14.67953 66.19889 14.901540000000011 66.40625 15.375490000000013C66.56282 15.73520000000002 66.625 16.16586000000001 66.625 16.656740000000013C66.625 17.22804000000002 66.472 17.553560000000004 66.125 17.625490000000013C65.58756 17.625500000000017 65.19303 17.334480000000013 64.96875 16.750490000000013C64.84602 16.43311 64.78124 16.10336000000001 64.78125 15.781740000000013C64.78124 15.053890000000024 65.02441 14.696460000000002 65.46875 14.687990000000013ZM71.90625 17.562990000000013C72.608722 17.563000000000017 73.020832 17.712740000000025 73.15625 18.000490000000013C73.156247 18.26287000000002 72.990551 18.563970000000012 72.65625 18.906740000000013C71.991859 19.59229000000002 71.249993 19.937990000000013 70.4375 19.937990000000013C69.790039 19.937990000000013 69.468753 19.74203 69.46875 19.344240000000013C69.468751 19.04379 69.622724 18.725760000000008 69.90625 18.437990000000013C70.490234 17.845550000000003 71.152995 17.563000000000017 71.90625 17.562990000000013ZM80.09375 17.844240000000013C80.230754 17.82916 80.37679 17.844240000000013 80.53125 17.844240000000013C81.013668 17.844250000000017 81.440099 17.982910000000004 81.8125 18.312990000000013L81.8125 18.531740000000013C81.812495 18.971850000000018 81.51562 19.424320000000023 80.90625 19.906740000000013C80.326494 20.363770000000017 79.792314 20.594240000000013 79.34375 20.594240000000013C79.030596 20.594240000000013 78.802733 20.513510000000025 78.625 20.344240000000013C78.409179 20.132650000000012 78.318358 19.847500000000025 78.34375 19.500490000000013C78.386066 18.950360000000018 78.628253 18.518070000000023 79.09375 18.187990000000013C79.347654 18.007080000000002 79.682738 17.889470000000017 80.09375 17.844240000000013ZM90.75761 14.335450000000009C90.4233 13.819180000000017 90.15459 13.425630000000012 89.95146 13.15479000000002C89.10934 12.024920000000009 88.62269 11.388030000000015 88.4915 11.244140000000016C87.74248 10.41473000000002 87.05693 10.000020000000006 86.43486 10C85.9863 10.000020000000006 85.463672 10.088880000000017 84.866989 10.266600000000011L86.02226 11.440920000000006C86.42428 11.38169000000002 86.71627 11.352060000000023 86.89824 11.35205000000002C87.48646 11.352060000000023 88.15508 11.716000000000008 88.9041 12.443850000000026C89.50501 13.027840000000026 89.99589 13.658380000000022 90.37676 14.335450000000009L90.75761 14.335450000000009M95.1875 14.219240000000013C94.67969 14.227710000000002 94.25912 14.44386 93.9375 14.875490000000013C93.64128 15.269060000000025 93.49999 15.725750000000005 93.5 16.250490000000013C93.49999 16.74138000000002 93.63119 17.172050000000013 93.90625 17.531740000000013C94.19824 17.921070000000014 94.58854 18.14145000000002 95.0625 18.187990000000013C95.61686 18.188000000000017 96.05339 18.044110000000018 96.375 17.781740000000013C96.375 18.793140000000022 96.02506 19.46436 95.34375 19.781740000000013C95.34375 19.747890000000012 95.30761 19.667160000000024 95.21875 19.531740000000013C95.13411 19.396320000000003 95.06933 19.288580000000024 95.03125 19.250490000000013C94.84505 19.064300000000003 94.65072 18.96338 94.46875 18.937990000000013C94.5153 18.946460000000002 94.36393 18.969250000000017 94 18.969240000000013C93.56836 19.06235000000001 93.34375 19.354990000000015 93.34375 19.875490000000013C93.34375 20.362150000000014 93.70801 20.691900000000004 94.40625 20.844240000000013C94.74479 20.916180000000026 95.04167 20.881680000000017 95.3125 20.750490000000013L97.15625 23.437990000000013L97.4375 23.219240000000013L95.75 20.562990000000013C96.71907 19.775890000000004 97.23209 18.78337000000002 97.3125 17.594240000000013C97.32942 17.31495000000001 97.34375 17.14079000000001 97.34375 17.094240000000013C97.32259 16.510260000000017 97.21158 16.046070000000014 97 15.656740000000013C96.46679 14.687670000000026 95.86881 14.21078 95.1875 14.219240000000013ZM95.0625 14.687990000000013C95.48567 14.67953 95.79264 14.901540000000011 96 15.375490000000013C96.15657 15.73520000000002 96.21875 16.16586000000001 96.21875 16.656740000000013C96.21875 17.22804000000002 96.06575 17.553560000000004 95.71875 17.625490000000013C95.18131 17.625500000000017 94.78678 17.334480000000013 94.5625 16.750490000000013C94.43977 16.43311 94.37499 16.10336000000001 94.375 15.781740000000013C94.37499 15.053890000000024 94.61816 14.696460000000002 95.0625 14.687990000000013ZM97.24492 15.211430000000007C97.07141 14.872890000000012 96.83866 14.580900000000014 96.54668 14.335450000000009L102.16435 14.335450000000009L103.04668 15.211430000000007L100.85674 15.211430000000007L100.85674 23.437990000000013L99.81572 22.371580000000023L99.81572 15.211430000000007L97.24492 15.211430000000007M106.46836 16.741210000000024L105.54795 17.661620000000028L104.62754 16.741210000000024L105.54795 15.82080000000002L106.46836 16.741210000000024M106.47471 21.35596000000001L105.54795 22.282720000000012L104.62754 21.35596000000001L105.54795 20.435550000000006L106.47471 21.35596000000001 " transform="matrix(0.9543195,0,0,0.9543195,-1.5568064,-9.0312324)" style="font-size:13px;font-style:normal;font-variant:normal;font-weight:normal;font-stretch:normal;letter-spacing:1.20000005;fill:#000000;fill-opacity:1;stroke:none;stroke-width:1px;stroke-linecap:butt;stroke-linejoin:miter;stroke-opacity:1;font-family:Sans;-inkscape-font-specification:Sans"></path>
</svg>