<?xml version="1.0" encoding="UTF-8" standalone="no"?>
<svg
   xmlns:dc="http://purl.org/dc/elements/1.1/"
   xmlns:cc="http://creativecommons.org/ns#"
   xmlns:rdf="http://www.w3.org/1999/02/22-rdf-syntax-ns#"
   xmlns:svg="http://www.w3.org/2000/svg"
   xmlns="http://www.w3.org/2000/svg"
   version="1.0"
   id="svg2047"
   height="43.6875"
   width="330.42188">
  <defs
     id="defs3">
    <linearGradient
       id="linearGradient3525">
      <stop
         id="stop3527"
         offset="0"
         style="stop-color:#006;stop-opacity:1;" />
      <stop
         id="stop3529"
         offset="1"
         style="stop-color:#00004f;stop-opacity:1;" />
    </linearGradient>
    <linearGradient
       id="linearGradient3446">
      <stop
         id="stop3448"
         offset="0"
         style="stop-color:#f4e3ca;stop-opacity:1;" />
      <stop
         id="stop3450"
         offset="1"
         style="stop-color:#e9cc9d;stop-opacity:1;" />
    </linearGradient>
    <linearGradient
       id="linearGradient2917">
      <stop
         id="stop2919"
         offset="0"
         style="stop-color:#d40000;stop-opacity:1;" />
      <stop
         id="stop2921"
         offset="1"
         style="stop-color:#570000;stop-opacity:1;" />
    </linearGradient>
  </defs>
  <metadata
     id="metadata4">
    <rdf:RDF>
      <cc:Work
         rdf:about="">
        <dc:format>image/svg+xml</dc:format>
        <dc:type
           rdf:resource="http://purl.org/dc/dcmitype/StillImage" />
      </cc:Work>
    </rdf:RDF>
  </metadata>
  <g
     transform="translate(-162.86943,-477.664)"
     id="layer1">
    <path
       id="flowRoot3251"
       d="m -465.8125,212.9352 0.28125,-0.86719 h 10.14844 c 4.29685,4e-5 7.48044,0.49222 9.55078,1.47657 2.07028,0.9844 3.72262,2.53518 4.95703,4.65234 1.23434,2.11721 1.85153,4.38674 1.85156,6.80859 -3e-5,2.07815 -0.3555,4.09768 -1.0664,6.0586 -0.71097,1.96095 -1.51566,3.53126 -2.41407,4.71094 -0.89846,1.17969 -2.27737,2.48047 -4.13671,3.90234 -1.8594,1.42188 -3.87503,2.47266 -6.04688,3.15234 -2.17189,0.67969 -4.88283,1.01953 -8.13281,1.01953 h -13.45313 l 0.30469,-0.86718 c 1.23437,-0.0312 2.0625,-0.14063 2.48437,-0.32813 0.625,-0.26562 1.08594,-0.625 1.38282,-1.07812 0.45312,-0.65625 0.96093,-1.97656 1.52344,-3.96094 l 5.625,-19.21875 c 0.43748,-1.5156 0.65623,-2.7031 0.65624,-3.5625 -1e-5,-0.60935 -0.20313,-1.0781 -0.60937,-1.40625 -0.40626,-0.32809 -1.20313,-0.49216 -2.39063,-0.49219 z m 8.32031,0.89063 -6.89062,23.78906 c -0.51564,1.78125 -0.77345,2.88282 -0.77344,3.30469 -10e-6,0.25 0.082,0.49219 0.24609,0.72656 0.16406,0.23438 0.38671,0.39063 0.66797,0.46875 0.40624,0.14063 1.06249,0.21094 1.96875,0.21094 2.45311,0 4.73046,-0.25391 6.83203,-0.76172 2.10155,-0.50781 3.8242,-1.26172 5.16797,-2.26172 1.90623,-1.45312 3.42966,-3.45312 4.57032,-6 1.14059,-2.54686 1.7109,-5.4453 1.71093,-8.69531 -3e-5,-3.67185 -0.87503,-6.40232 -2.625,-8.19141 -1.75002,-1.78903 -4.30471,-2.68356 -7.66406,-2.68359 -0.82814,3e-5 -1.89845,0.0313 -3.21094,0.0937 z m 25.05469,21.1875 c -0.10938,0.78126 -0.16407,1.42969 -0.16406,1.94531 -10e-6,1.39063 0.49218,2.57422 1.47656,3.55078 0.98437,0.97657 2.17968,1.46485 3.58594,1.46484 1.12499,1e-5 2.20702,-0.23046 3.24609,-0.6914 1.03905,-0.46094 2.58202,-1.48047 4.62891,-3.0586 l 0.49218,0.67969 c -3.70314,3.67188 -7.23438,5.50781 -10.59374,5.50781 -2.28126,0 -4.00001,-0.71875 -5.15626,-2.15625 -1.15625,-1.43749 -1.73437,-3.02343 -1.73437,-4.75781 0,-2.32811 0.71875,-4.71092 2.15625,-7.14844 1.43749,-2.43748 3.24218,-4.33201 5.41406,-5.68359 2.17187,-1.35154 4.40624,-2.02732 6.70313,-2.02734 1.65623,2e-5 2.88279,0.33596 3.67969,1.00781 0.79685,0.67189 1.19529,1.46877 1.19531,2.39062 -2e-5,1.2969 -0.51565,2.53908 -1.54688,3.72657 -1.35939,1.54688 -3.35939,2.79688 -6,3.75 -1.75001,0.64063 -4.21094,1.14063 -7.38281,1.5 z m 0.16406,-1.14844 c 2.31249,-0.26562 4.1953,-0.71874 5.64844,-1.35938 1.92186,-0.85936 3.36327,-1.8867 4.32422,-3.08203 0.96092,-1.19529 1.44139,-2.33201 1.4414,-3.41015 -1e-5,-0.65623 -0.20704,-1.18748 -0.62109,-1.59375 -0.41408,-0.40623 -1.00392,-0.60936 -1.76953,-0.60938 -1.59376,2e-5 -3.28517,0.84768 -5.07422,2.54297 -1.78907,1.69533 -3.10547,4.19923 -3.94922,7.51172 z m 25.99219,-11.22656 -3.11719,10.66406 c 2.92187,-4.35936 5.16015,-7.22655 6.71485,-8.60156 1.55467,-1.37498 3.05076,-2.06248 4.48828,-2.0625 0.78123,2e-5 1.42576,0.25783 1.93359,0.77343 0.50779,0.51565 0.7617,1.18752 0.76172,2.01563 -2e-5,0.93752 -0.22658,2.18752 -0.67969,3.75 l -2.85937,9.86719 c -0.32815,1.14063 -0.49221,1.83594 -0.49219,2.08593 -2e-5,0.21876 0.0625,0.40235 0.1875,0.55079 0.12498,0.14844 0.25779,0.22265 0.39844,0.22265 0.18748,0 0.41404,-0.10156 0.67969,-0.30469 0.8281,-0.65624 1.73435,-1.65624 2.71874,-3 l 0.72657,0.44532 c -1.45315,2.07812 -2.82815,3.5625 -4.125,4.45312 -0.90627,0.60938 -1.71877,0.91406 -2.4375,0.91406 -0.57814,0 -1.03908,-0.17578 -1.38281,-0.52734 -0.34377,-0.35156 -0.51564,-0.82422 -0.51563,-1.41797 -10e-6,-0.75 0.26561,-2.03906 0.79687,-3.86719 l 2.71876,-9.42187 c 0.34373,-1.17186 0.5156,-2.08592 0.51562,-2.74219 -2e-5,-0.31248 -0.10158,-0.56639 -0.30469,-0.76172 -0.20314,-0.19529 -0.45314,-0.29295 -0.75,-0.29297 -0.43751,2e-5 -0.96095,0.18752 -1.57031,0.5625 -1.15626,0.70315 -2.35939,1.8633 -3.60938,3.48047 -1.25001,1.6172 -2.57032,3.68361 -3.96093,6.19922 -0.73438,1.32813 -1.34376,2.78126 -1.82813,4.35938 l -1.17187,3.86718 h -3.51563 l 4.26563,-14.67187 c 0.49999,-1.76561 0.74999,-2.82811 0.75,-3.1875 -10e-6,-0.34373 -0.13673,-0.64451 -0.41016,-0.90234 -0.27344,-0.2578 -0.61328,-0.3867 -1.01953,-0.38672 -0.1875,2e-5 -0.51563,0.0313 -0.98438,0.0937 l -0.89062,0.14062 -0.14062,-0.84375 z m 39.63281,0.5625 -0.42187,1.54687 h -3.42188 l -2.57812,10.24219 c -1.14063,4.51563 -2.28907,8.00781 -3.44531,10.47656 -1.64063,3.48437 -3.40626,5.89062 -5.29688,7.21875 -1.4375,1.01562 -2.875,1.52343 -4.3125,1.52344 -0.93749,-1e-5 -1.73437,-0.28126 -2.39062,-0.84375 -0.48437,-0.39063 -0.72656,-0.89845 -0.72657,-1.52344 10e-6,-0.50001 0.19923,-0.9336 0.59766,-1.30078 0.39844,-0.36719 0.88672,-0.55079 1.46484,-0.55078 0.42188,-1e-5 0.77735,0.13281 1.06641,0.39844 0.28907,0.26562 0.4336,0.5703 0.43359,0.91406 10e-6,0.34374 -0.16406,0.66405 -0.49219,0.96094 -0.24999,0.21874 -0.37499,0.3828 -0.375,0.49218 10e-6,0.14062 0.0547,0.25 0.16407,0.32813 0.14063,0.10937 0.35938,0.16405 0.65625,0.16406 0.67188,-1e-5 1.37891,-0.21094 2.12109,-0.63281 0.74219,-0.42188 1.40235,-1.05079 1.98047,-1.88672 0.57813,-0.83594 1.125,-2.04297 1.64062,-3.62109 0.21875,-0.65626 0.80469,-2.82032 1.75782,-6.49219 l 4.07812,-15.86719 h -4.07812 l 0.32812,-1.54687 c 1.29687,2e-5 2.20312,-0.0898 2.71875,-0.26953 0.51562,-0.17967 0.98828,-0.52342 1.41797,-1.03125 0.42968,-0.50779 0.98827,-1.45701 1.67578,-2.84766 0.92187,-1.87497 1.80468,-3.3281 2.64844,-4.35938 1.15624,-1.39059 2.37108,-2.43356 3.64453,-3.1289 1.27342,-0.69528 2.47264,-1.04294 3.59766,-1.04297 1.18748,3e-5 2.1406,0.30081 2.85937,0.90234 0.71873,0.6016 1.0781,1.25394 1.07813,1.95703 -3e-5,0.54691 -0.17971,1.00785 -0.53907,1.38282 -0.35939,0.37503 -0.82033,0.56253 -1.38281,0.5625 -0.48439,3e-5 -0.87892,-0.1406 -1.18359,-0.42188 -0.30471,-0.28122 -0.45705,-0.61716 -0.45703,-1.00781 -2e-5,-0.24997 0.10154,-0.55856 0.30469,-0.92578 0.2031,-0.36716 0.30466,-0.61325 0.30468,-0.73828 -2e-5,-0.21872 -0.0703,-0.38278 -0.21094,-0.49219 -0.20314,-0.15622 -0.50001,-0.23434 -0.89062,-0.23438 -0.98439,4e-5 -1.8672,0.31254 -2.64844,0.9375 -1.04689,0.82816 -1.98439,2.12503 -2.8125,3.89063 -0.42189,0.9219 -1.19532,3.21096 -2.32031,6.86719 z m 1.59375,0.75 8.08594,-1.3125 -3.375,11.39062 c 2.73437,-4.67186 5.21874,-7.93748 7.45313,-9.79687 1.2656,-1.06248 2.29685,-1.59373 3.09374,-1.59375 0.51561,2e-5 0.92186,0.15236 1.21876,0.45703 0.29685,0.30471 0.44529,0.74611 0.44531,1.32422 -2e-5,1.03127 -0.26565,2.01564 -0.79688,2.95312 -0.37502,0.70314 -0.91408,1.05471 -1.61719,1.05469 -0.35939,2e-5 -0.66798,-0.11717 -0.92578,-0.35156 -0.25782,-0.23436 -0.41798,-0.59374 -0.48046,-1.07813 -0.0313,-0.29686 -0.10158,-0.49217 -0.21094,-0.58594 -0.12502,-0.12498 -0.27346,-0.18748 -0.44532,-0.1875 -0.26563,2e-5 -0.51563,0.0625 -0.75,0.1875 -0.40626,0.21877 -1.02345,0.82815 -1.85156,1.82813 -1.29688,1.53126 -2.70313,3.51564 -4.21875,5.95312 -0.65625,1.03126 -1.21875,2.19532 -1.6875,3.49219 -0.65625,1.78126 -1.03125,2.85157 -1.125,3.21094 l -0.75,2.95312 h -3.58593 l 4.33593,-14.55468 c 0.5,-1.68749 0.75,-2.89061 0.75,-3.60938 0,-0.28123 -0.11719,-0.5156 -0.35156,-0.70312 -0.31251,-0.24998 -0.72657,-0.37498 -1.24219,-0.375 -0.32813,2e-5 -0.92969,0.0703 -1.80468,0.21093 z m 26.88281,-10.61719 c 0.65624,3e-5 1.21093,0.22659 1.66407,0.67969 0.45311,0.45315 0.67967,1.00784 0.67969,1.66406 -2e-5,0.64065 -0.23049,1.19143 -0.69141,1.65234 -0.46095,0.46097 -1.01173,0.69144 -1.65235,0.69141 -0.64063,3e-5 -1.19141,-0.23044 -1.65234,-0.69141 -0.46094,-0.46091 -0.69141,-1.01169 -0.6914,-1.65234 -10e-6,-0.65622 0.22655,-1.21091 0.67968,-1.66406 0.45312,-0.4531 1.0078,-0.67966 1.66406,-0.67969 z m 0.30469,9.30469 -4.64062,16.42968 c -0.31251,1.10938 -0.46876,1.77345 -0.46875,1.99219 -10e-6,0.25 0.0742,0.45313 0.22265,0.60938 0.14843,0.15625 0.32422,0.23437 0.52735,0.23437 0.23437,0 0.51562,-0.125 0.84375,-0.375 0.89061,-0.70312 1.78905,-1.70312 2.69531,-3 l 0.82031,0.53906 c -1.06251,1.62501 -2.31251,2.99219 -3.75,4.10157 -1.0625,0.82812 -2.07813,1.24218 -3.04687,1.24218 -0.64063,0 -1.16407,-0.1914 -1.57032,-0.57421 -0.40625,-0.38282 -0.60937,-0.86328 -0.60937,-1.44141 0,-0.57812 0.19531,-1.53906 0.58594,-2.88281 l 3.04687,-10.5 c 0.5,-1.71874 0.75,-2.79686 0.75,-3.23438 0,-0.34373 -0.1211,-0.62498 -0.36328,-0.84375 -0.24219,-0.21873 -0.57422,-0.3281 -0.99609,-0.32812 -0.34376,2e-5 -1.05469,0.0859 -2.13281,0.25781 v -0.91406 z m 7.99219,12.375 c -0.10938,0.78126 -0.16407,1.42969 -0.16406,1.94531 -10e-6,1.39063 0.49218,2.57422 1.47656,3.55078 0.98437,0.97657 2.17968,1.46485 3.58594,1.46484 1.12499,1e-5 2.20702,-0.23046 3.24609,-0.6914 1.03905,-0.46094 2.58202,-1.48047 4.62891,-3.0586 l 0.49218,0.67969 c -3.70314,3.67188 -7.23438,5.50781 -10.59374,5.50781 -2.28126,0 -4.00001,-0.71875 -5.15626,-2.15625 -1.15625,-1.43749 -1.73437,-3.02343 -1.73437,-4.75781 0,-2.32811 0.71875,-4.71092 2.15625,-7.14844 1.43749,-2.43748 3.24218,-4.33201 5.41406,-5.68359 2.17187,-1.35154 4.40624,-2.02732 6.70313,-2.02734 1.65623,2e-5 2.88279,0.33596 3.67969,1.00781 0.79685,0.67189 1.19529,1.46877 1.19531,2.39062 -2e-5,1.2969 -0.51565,2.53908 -1.54688,3.72657 -1.35939,1.54688 -3.35939,2.79688 -6,3.75 -1.75001,0.64063 -4.21094,1.14063 -7.38281,1.5 z m 0.16406,-1.14844 c 2.31249,-0.26562 4.1953,-0.71874 5.64844,-1.35938 1.92186,-0.85936 3.36327,-1.8867 4.32422,-3.08203 0.96092,-1.19529 1.44139,-2.33201 1.4414,-3.41015 -1e-5,-0.65623 -0.20704,-1.18748 -0.62109,-1.59375 -0.41408,-0.40623 -1.00392,-0.60936 -1.76953,-0.60938 -1.59376,2e-5 -3.28517,0.84768 -5.07422,2.54297 -1.78907,1.69533 -3.10547,4.19923 -3.94922,7.51172 z m 49.59375,-3.89063 c -2e-5,2.34377 -0.62111,4.66408 -1.86328,6.96094 -1.24221,2.29688 -2.97267,4.11719 -5.19141,5.46094 -2.21876,1.34375 -4.37501,2.01562 -6.46874,2.01562 -2.14064,0 -3.88673,-0.68359 -5.23829,-2.05078 -1.35156,-1.36718 -2.02734,-3.13671 -2.02734,-5.30859 0,-2.29687 0.66015,-4.60155 1.98047,-6.91406 1.32031,-2.31249 3.08593,-4.14061 5.29687,-5.48438 2.21093,-1.34373 4.34765,-2.0156 6.41016,-2.01562 2.06248,2e-5 3.7617,0.67971 5.09766,2.03906 1.33591,1.35939 2.00388,3.12502 2.0039,5.29687 z m -3.89062,-1.61718 c -2e-5,-1.45311 -0.35549,-2.56639 -1.06641,-3.33985 -0.71095,-0.77341 -1.62892,-1.16013 -2.7539,-1.16015 -2.29689,2e-5 -4.41017,1.64455 -6.33985,4.93359 -1.92969,3.28908 -2.89454,6.5586 -2.89453,9.80859 -10e-6,1.48438 0.37499,2.62891 1.125,3.4336 0.74999,0.80469 1.6953,1.20703 2.83594,1.20703 2.20311,0 4.26952,-1.63672 6.19922,-4.91016 1.92967,-3.27343 2.89451,-6.59764 2.89453,-9.97265 z m 8.20312,-4.40625 8.08594,-1.3125 -3.375,11.39062 c 2.73437,-4.67186 5.21874,-7.93748 7.45313,-9.79687 1.2656,-1.06248 2.29685,-1.59373 3.09374,-1.59375 0.51561,2e-5 0.92186,0.15236 1.21876,0.45703 0.29685,0.30471 0.44529,0.74611 0.44531,1.32422 -2e-5,1.03127 -0.26565,2.01564 -0.79688,2.95312 -0.37502,0.70314 -0.91408,1.05471 -1.61719,1.05469 -0.35939,2e-5 -0.66798,-0.11717 -0.92578,-0.35156 -0.25782,-0.23436 -0.41798,-0.59374 -0.48046,-1.07813 -0.0313,-0.29686 -0.10158,-0.49217 -0.21094,-0.58594 -0.12502,-0.12498 -0.27346,-0.18748 -0.44532,-0.1875 -0.26563,2e-5 -0.51563,0.0625 -0.75,0.1875 -0.40626,0.21877 -1.02345,0.82815 -1.85156,1.82813 -1.29688,1.53126 -2.70313,3.51564 -4.21875,5.95312 -0.65625,1.03126 -1.21875,2.19532 -1.6875,3.49219 -0.65625,1.78126 -1.03125,2.85157 -1.125,3.21094 l -0.75,2.95312 h -3.58593 l 4.33593,-14.55468 c 0.5,-1.68749 0.75,-2.89061 0.75,-3.60938 0,-0.28123 -0.11719,-0.5156 -0.35156,-0.70312 -0.31251,-0.24998 -0.72657,-0.37498 -1.24219,-0.375 -0.32813,2e-5 -0.92969,0.0703 -1.80468,0.21093 z m 42.11719,-13.42969 -8.0625,27.65625 c -0.43752,1.5 -0.65627,2.48438 -0.65625,2.95312 -2e-5,0.15626 0.0664,0.30469 0.19922,0.44532 0.13279,0.14062 0.26951,0.21094 0.41015,0.21093 0.20311,1e-5 0.4453,-0.10156 0.72657,-0.30468 0.53123,-0.375 1.42185,-1.3125 2.67187,-2.8125 l 0.79688,0.49218 c -1.12502,1.56251 -2.26174,2.82813 -3.41016,3.79688 -1.14845,0.96875 -2.22267,1.45312 -3.22266,1.45312 -0.53126,0 -0.96876,-0.1875 -1.3125,-0.5625 -0.34376,-0.37499 -0.51563,-0.90624 -0.51562,-1.59375 -1e-5,-0.89062 0.23436,-2.08593 0.70312,-3.58593 l 0.91407,-2.90625 c -2.26564,3.5 -4.32814,5.92187 -6.1875,7.26562 -1.28126,0.92188 -2.50782,1.38281 -3.67969,1.38281 -1.1875,0 -2.22266,-0.52734 -3.10547,-1.58203 -0.88281,-1.05468 -1.32422,-2.48827 -1.32422,-4.30078 0,-2.32812 0.74219,-4.81249 2.22657,-7.45312 1.48437,-2.64061 3.4453,-4.78905 5.88281,-6.44532 1.92186,-1.3281 3.68748,-1.99216 5.29687,-1.99218 0.84374,2e-5 1.5703,0.17189 2.17969,0.51562 0.60936,0.34377 1.21092,0.91408 1.80469,1.71094 l 2.29687,-8.15625 c 0.17186,-0.5781 0.31248,-1.03903 0.42188,-1.38281 0.18748,-0.62497 0.28123,-1.1406 0.28125,-1.54688 -2e-5,-0.32809 -0.11721,-0.60153 -0.35156,-0.82031 -0.32815,-0.26559 -0.75003,-0.39841 -1.26563,-0.39844 -0.35939,3e-5 -0.95314,0.0547 -1.78125,0.16406 v -0.86718 z m -8.69531,16.64062 c -2e-5,-0.99998 -0.28908,-1.80466 -0.86719,-2.41406 -0.57814,-0.60935 -1.31252,-0.91404 -2.20312,-0.91406 -1.96877,2e-5 -4.01955,1.62502 -6.15235,4.875 -2.13282,3.25001 -3.19922,6.35938 -3.19922,9.32812 0,1.17188 0.25781,2.06641 0.77344,2.6836 0.51562,0.61719 1.13281,0.92578 1.85156,0.92578 1.62499,0 3.66405,-1.75781 6.11719,-5.27344 2.45311,-3.51561 3.67967,-6.58592 3.67969,-9.21094 z m 20.57812,-16.64062 -4.61719,16.19531 c 1.49999,-1.56248 2.80859,-2.63279 3.92579,-3.21094 1.11717,-0.5781 2.28514,-0.86716 3.5039,-0.86718 1.71873,2e-5 3.12498,0.57033 4.21875,1.71093 1.09373,1.14065 1.6406,2.68752 1.64063,4.64063 -3e-5,2.51564 -0.71877,5.01954 -2.15625,7.51172 -1.43752,2.49219 -3.24221,4.4336 -5.41406,5.82422 -2.17189,1.39062 -4.31252,2.08593 -6.42188,2.08593 -2.35938,0 -4.78125,-0.88281 -7.26562,-2.64843 l 7.125,-24.53907 c 0.54686,-1.89059 0.8203,-2.99997 0.82031,-3.32812 -1e-5,-0.40622 -0.12501,-0.71091 -0.375,-0.91406 -0.35939,-0.28122 -0.89064,-0.42185 -1.59375,-0.42188 -0.32813,3e-5 -0.82813,0.0547 -1.5,0.16406 v -0.89062 z m -9.07031,31.5 c 1.56249,0.85938 2.93749,1.28906 4.125,1.28906 1.37499,0 2.80077,-0.5039 4.27734,-1.51172 1.47655,-1.00781 2.7578,-2.70702 3.84375,-5.09765 1.08592,-2.39062 1.62889,-4.80468 1.62891,-7.24219 -2e-5,-1.43748 -0.35549,-2.56248 -1.06641,-3.375 -0.71095,-0.81248 -1.55079,-1.21873 -2.51953,-1.21875 -1.45314,2e-5 -2.87501,0.58205 -4.26562,1.74609 -1.39064,1.16408 -2.38282,2.78517 -2.97656,4.86328 z m 41.41406,-12.04688 c -2e-5,2.34377 -0.62111,4.66408 -1.86328,6.96094 -1.24221,2.29688 -2.97267,4.11719 -5.1914,5.46094 -2.21877,1.34375 -4.37502,2.01562 -6.46876,2.01562 -2.14063,0 -3.88672,-0.68359 -5.23828,-2.05078 -1.35156,-1.36718 -2.02734,-3.13671 -2.02734,-5.30859 0,-2.29687 0.66015,-4.60155 1.98047,-6.91406 1.32031,-2.31249 3.08593,-4.14061 5.29687,-5.48438 2.21093,-1.34373 4.34765,-2.0156 6.41016,-2.01562 2.06248,2e-5 3.7617,0.67971 5.09766,2.03906 1.33591,1.35939 2.00388,3.12502 2.0039,5.29687 z m -3.89062,-1.61718 c -2e-5,-1.45311 -0.35549,-2.56639 -1.06641,-3.33985 -0.71095,-0.77341 -1.62892,-1.16013 -2.75391,-1.16015 -2.29688,2e-5 -4.41016,1.64455 -6.33984,4.93359 -1.92969,3.28908 -2.89454,6.5586 -2.89453,9.80859 -1e-5,1.48438 0.37499,2.62891 1.125,3.4336 0.74999,0.80469 1.6953,1.20703 2.83594,1.20703 2.20311,0 4.26952,-1.63672 6.19922,-4.91016 1.92967,-3.27343 2.89451,-6.59764 2.89453,-9.97265 z m 19.42968,-17.83594 -6.65624,23.03906 2.67187,-2.27344 c 2.92186,-2.46873 4.8203,-4.29685 5.69531,-5.48437 0.28124,-0.39061 0.42186,-0.68748 0.42188,-0.89063 -2e-5,-0.1406 -0.0469,-0.27341 -0.14063,-0.39843 -0.0938,-0.12498 -0.27736,-0.22655 -0.55078,-0.30469 -0.27345,-0.0781 -0.75392,-0.11717 -1.44141,-0.11719 h -0.82031 l 0.25781,-0.89062 h 10.24219 l -0.23437,0.89062 c -1.1719,0.0625 -2.18362,0.24612 -3.03516,0.55078 -0.85158,0.30471 -1.6758,0.75393 -2.47266,1.34766 -1.57814,1.17189 -2.6172,1.98439 -3.11718,2.4375 l -2.01563,1.78125 c 0.34374,1.12501 0.76561,2.69532 1.26563,4.71094 0.84373,3.34375 1.41404,5.32813 1.71094,5.95312 0.29685,0.625 0.60154,0.9375 0.91406,0.9375 0.26561,0 0.57811,-0.13281 0.9375,-0.39844 0.81248,-0.59374 1.67967,-1.53905 2.60156,-2.83593 l 0.82031,0.58593 c -1.70314,2.14063 -3.00783,3.55079 -3.91406,4.23047 -0.90627,0.67969 -1.73439,1.01953 -2.48437,1.01953 -0.65627,0 -1.16408,-0.25781 -1.52344,-0.77343 -0.62501,-0.92188 -1.66408,-4.55469 -3.11719,-10.89844 l -3.21094,2.78906 -2.41406,8.32031 h -3.65625 l 7.78125,-26.74218 0.65625,-2.27344 c 0.0781,-0.3906 0.11718,-0.73435 0.11719,-1.03125 -1e-5,-0.37497 -0.14454,-0.68747 -0.4336,-0.9375 -0.28907,-0.24997 -0.70704,-0.37497 -1.2539,-0.375 -0.35938,3e-5 -0.9297,0.0782 -1.71094,0.23437 v -0.82031 z m 30.07032,12.11719 -4.57032,15.89062 -0.51562,2.13281 c -0.0469,0.20313 -0.0703,0.37501 -0.0703,0.51563 -2e-5,0.25 0.0781,0.46875 0.23437,0.65625 0.12498,0.14063 0.28123,0.21094 0.46875,0.21094 0.20311,0 0.46873,-0.125 0.79688,-0.375 0.60935,-0.45313 1.42185,-1.39062 2.4375,-2.8125 l 0.79687,0.5625 c -1.07814,1.625 -2.18752,2.86328 -3.32812,3.71484 -1.14065,0.85156 -2.19533,1.27734 -3.16406,1.27734 -0.67189,0 -1.1758,-0.16796 -1.51172,-0.5039 -0.33596,-0.33594 -0.50392,-0.82422 -0.50391,-1.46485 -1e-5,-0.76562 0.17186,-1.77343 0.51563,-3.02343 l 0.49218,-1.75782 c -2.04689,2.67188 -3.9297,4.53907 -5.64844,5.60157 -1.23438,0.76562 -2.44531,1.14843 -3.63281,1.14843 -1.14063,0 -2.125,-0.47265 -2.95312,-1.41796 -0.82813,-0.94531 -1.24219,-2.24609 -1.24219,-3.90235 0,-2.48437 0.74609,-5.10546 2.23828,-7.86328 1.49218,-2.7578 3.38671,-4.96483 5.6836,-6.62109 1.79686,-1.31248 3.49217,-1.96873 5.08593,-1.96875 0.95311,2e-5 1.74608,0.25002 2.37891,0.75 0.63279,0.50002 1.11326,1.32814 1.4414,2.48437 l 0.84376,-2.67187 z m -8.34375,1.21875 c -1.00002,2e-5 -2.06251,0.46877 -3.1875,1.40625 -1.59376,1.32814 -3.01173,3.29689 -4.25391,5.90625 -1.24219,2.60938 -1.86328,4.96875 -1.86328,7.07812 0,1.06251 0.26562,1.90235 0.79688,2.51953 0.53124,0.61719 1.14061,0.92579 1.82812,0.92578 1.70312,1e-5 3.55468,-1.2578 5.55469,-3.77343 2.67186,-3.34374 4.00779,-6.77343 4.00781,-10.28907 -2e-5,-1.3281 -0.25783,-2.28904 -0.77344,-2.88281 -0.51564,-0.59373 -1.21876,-0.8906 -2.10937,-0.89062 z"
       style="font-style:italic;font-variant:normal;font-weight:normal;font-stretch:normal;font-size:48px;line-height:100%;font-family:'Times New Roman';-inkscape-font-specification:'Times New Roman Italic';text-align:start;writing-mode:lr-tb;text-anchor:start;fill:#808080;fill-opacity:1;stroke:none;stroke-width:1px;stroke-linecap:butt;stroke-linejoin:miter;stroke-opacity:1"
       transform="translate(637.14287,267.14286)" />
  </g>
</svg>
