<?xml version="1.0" encoding="UTF-8" standalone="no"?>
<svg
   xmlns:dc="http://purl.org/dc/elements/1.1/"
   xmlns:cc="http://creativecommons.org/ns#"
   xmlns:rdf="http://www.w3.org/1999/02/22-rdf-syntax-ns#"
   xmlns:svg="http://www.w3.org/2000/svg"
   xmlns="http://www.w3.org/2000/svg"
   xmlns:xlink="http://www.w3.org/1999/xlink"
   id="svg2047"
   height="34.699219"
   width="367.03125"
   version="1.0">
  <metadata
     id="metadata91">
    <rdf:RDF>
      <cc:Work
         rdf:about="">
        <dc:format>image/svg+xml</dc:format>
        <dc:type
           rdf:resource="http://purl.org/dc/dcmitype/StillImage" />
      </cc:Work>
    </rdf:RDF>
  </metadata>
  <defs
     id="defs3">
    <linearGradient
       id="linearGradient3525">
      <stop
         offset="0"
         style="stop-color:#000066;stop-opacity:1"
         id="stop3527" />
      <stop
         offset="1"
         style="stop-color:#00004f;stop-opacity:1"
         id="stop3529" />
    </linearGradient>
    <linearGradient
       id="linearGradient3446">
      <stop
         offset="0"
         style="stop-color:#f4e3ca;stop-opacity:1"
         id="stop3448" />
      <stop
         offset="1"
         style="stop-color:#e9cc9d;stop-opacity:1"
         id="stop3450" />
    </linearGradient>
    <linearGradient
       id="linearGradient2917">
      <stop
         offset="0"
         style="stop-color:#d40000;stop-opacity:1"
         id="stop2919" />
      <stop
         offset="1"
         style="stop-color:#570000;stop-opacity:1"
         id="stop2921" />
    </linearGradient>
    <linearGradient
       gradientTransform="matrix(0.485989,0.460262,-0.482828,0.469608,235.2216,-80.23556)"
       gradientUnits="userSpaceOnUse"
       xlink:href="#linearGradient3525"
       id="linearGradient3071"
       y2="86.036026"
       x2="270.37161"
       y1="184.23257"
       x1="366.08591" />
    <linearGradient
       gradientTransform="matrix(0.620715,0.136186,-0.132947,0.605953,365.14,10.09319)"
       gradientUnits="userSpaceOnUse"
       xlink:href="#linearGradient3525"
       id="linearGradient3101"
       y2="255.5688"
       x2="95.290253"
       y1="365.66113"
       x1="196.08591" />
    <linearGradient
       gradientTransform="matrix(0.620931,0.304009,-0.292008,0.644049,194.0425,-60.61792)"
       gradientUnits="userSpaceOnUse"
       xlink:href="#linearGradient2917"
       id="linearGradient3103"
       y2="259.17615"
       x2="283.22876"
       y1="344.23257"
       x1="370.37161" />
    <linearGradient
       gradientTransform="matrix(0.492397,0.571556,-0.503799,0.505374,233.6223,-190.7188)"
       gradientUnits="userSpaceOnUse"
       xlink:href="#linearGradient3525"
       id="linearGradient3117"
       y2="434.30499"
       x2="439.24854"
       y1="521.37543"
       x1="536.08594" />
    <linearGradient
       gradientTransform="matrix(0.660096,0.05941423,-0.06000381,0.653611,-116.4365,105.7272)"
       gradientUnits="userSpaceOnUse"
       xlink:href="#linearGradient3525"
       id="linearGradient3125"
       y2="89.025398"
       x2="454.65735"
       y1="185.66115"
       x1="533.22876" />
    <linearGradient
       gradientTransform="translate(-476.4724,-112.8383)"
       gradientUnits="userSpaceOnUse"
       xlink:href="#linearGradient3446"
       id="linearGradient3452"
       y2="230.34946"
       x2="650.84174"
       y1="299.56409"
       x1="715.71844" />
    <linearGradient
       gradientTransform="translate(-419.3421,258.595)"
       gradientUnits="userSpaceOnUse"
       xlink:href="#linearGradient3446"
       id="linearGradient3460"
       y2="-358.38074"
       x2="723.2616"
       y1="-355.92725"
       x1="791.06329" />
    <linearGradient
       gradientTransform="translate(-137.3612,-469.7778)"
       gradientUnits="userSpaceOnUse"
       xlink:href="#linearGradient3446"
       id="linearGradient3474"
       y2="880.65918"
       x2="218.35574"
       y1="955.26855"
       x1="175.47467" />
    <linearGradient
       gradientTransform="translate(-490.353,22.1016)"
       gradientUnits="userSpaceOnUse"
       xlink:href="#linearGradient3446"
       id="linearGradient3482"
       y2="145.09717"
       x2="693.67474"
       y1="200.78854"
       x1="758.90216" />
    <linearGradient
       gradientTransform="translate(-450.4099,198.7519)"
       gradientUnits="userSpaceOnUse"
       xlink:href="#linearGradient3446"
       id="linearGradient3490"
       y2="-169.7764"
       x2="795.29053"
       y1="-140.09358"
       x1="870.85938" />
    <linearGradient
       gradientTransform="translate(-490.3612,21.8953)"
       gradientUnits="userSpaceOnUse"
       xlink:href="#linearGradient3446"
       id="linearGradient3498"
       y2="103.7599"
       x2="901.40399"
       y1="159.7126"
       x1="965.19623" />
    <linearGradient
       gradientTransform="translate(-379.7777,-307.2103)"
       gradientUnits="userSpaceOnUse"
       xlink:href="#linearGradient3446"
       id="linearGradient3506"
       y2="683.20331"
       x2="388.38828"
       y1="743.88672"
       x1="412.31854" />
    <linearGradient
       gradientTransform="translate(-476.4724,-112.8383)"
       gradientUnits="userSpaceOnUse"
       xlink:href="#linearGradient3446"
       id="linearGradient3514"
       y2="450.75146"
       x2="741.84326"
       y1="514.12738"
       x1="805.99457" />
    <linearGradient
       gradientTransform="translate(-489.4263,-30.47642)"
       gradientUnits="userSpaceOnUse"
       xlink:href="#linearGradient3446"
       id="linearGradient3522"
       y2="305.17203"
       x2="909.49103"
       y1="357.18353"
       x1="974.9718" />
    <linearGradient
       gradientTransform="matrix(0.868057,-0.04019387,0.04019387,0.868057,-383.372,26.04062)"
       gradientUnits="userSpaceOnUse"
       xlink:href="#linearGradient3525"
       id="linearGradient3531"
       y2="414.23257"
       x2="947.51447"
       y1="359.94687"
       x1="904.65735" />
    <linearGradient
       gradientTransform="matrix(0.279104,0,0,0.294448,61.36618,240.5454)"
       gradientUnits="userSpaceOnUse"
       xlink:href="#linearGradient3525"
       id="linearGradient3106"
       y2="230.67667"
       x2="897.16919"
       y1="429.67673"
       x1="1090.1083" />
    <linearGradient
       gradientTransform="matrix(0.110956,-0.03855391,0.03807676,0.115717,257.0759,100.5169)"
       gradientUnits="userSpaceOnUse"
       xlink:href="#linearGradient3525"
       id="linearGradient4929"
       y2="-144.08994"
       x2="-514.01392"
       y1="284.21475"
       x1="-190.76511" />
    <linearGradient
       gradientTransform="matrix(5.542162,3.319805,-4.164453,6.008209,1823.515,-2111.824)"
       gradientUnits="userSpaceOnUse"
       xlink:href="#linearGradient3525"
       id="linearGradient2865"
       y2="357.17325"
       x2="14.581494"
       y1="365.39426"
       x1="24.404194" />
  </defs>
  <g
     id="layer1"
     transform="translate(-140.25757,-478.69101)">
    <path
       style="font-style:italic;font-variant:normal;font-weight:normal;font-stretch:normal;font-size:36px;font-family:GothicE;-inkscape-font-specification:'Lucida Bright Italic';text-align:center;text-anchor:middle;fill:#808080;fill-opacity:1;stroke:none;stroke-width:1px;stroke-linecap:butt;stroke-linejoin:miter;stroke-opacity:1"
       id="text2468"
       d="m 169.22632,509.8746 -2.90039,3.19922 c -0.57425,0.15234 -1.06644,0.22851 -1.47656,0.22852 -2.26175,-10e-6 -4.58206,-0.59474 -6.96094,-1.78418 -2.37893,-1.18946 -4.32424,-2.72754 -5.83594,-4.61426 -0.63283,0.10547 -1.26564,0.1582 -1.89844,0.1582 -3.18751,0 -5.63379,-0.83203 -7.33886,-2.49609 -1.70509,-1.66406 -2.55763,-4.04882 -2.55762,-7.1543 -10e-6,-4.74608 1.56445,-8.87107 4.69336,-12.375 3.12889,-3.50388 6.80858,-5.25583 11.03906,-5.25586 2.98826,3e-5 5.31443,0.85843 6.97852,2.5752 1.66403,1.71682 2.49606,4.11623 2.49609,7.19824 -3e-5,3.99611 -1.14261,7.60548 -3.42773,10.82813 -2.28518,3.22265 -5.16213,5.28515 -8.63086,6.1875 3.05857,2.61327 6.79099,3.91991 11.19726,3.91992 1.59372,-1e-5 3.13474,-0.20508 4.62305,-0.61524 z m -25.1543,-12.21679 c -1e-5,2.51953 0.57421,4.50586 1.72266,5.95898 1.14842,1.45313 2.72459,2.17969 4.72851,2.17969 2.85936,0 5.44041,-1.64941 7.74317,-4.94824 2.30271,-3.29882 3.45407,-6.99901 3.4541,-11.10059 -3e-5,-2.69529 -0.57424,-4.8281 -1.72266,-6.39844 -1.14846,-1.57029 -2.70119,-2.35544 -4.6582,-2.35547 -2.9883,3e-5 -5.6133,1.66995 -7.875,5.00977 -2.26173,3.33986 -3.39259,7.22462 -3.39258,11.6543 z m 24.0293,8.78906 2.90039,-14.53711 c 0.18749,-0.96092 0.28124,-1.79295 0.28125,-2.49609 -1e-5,-0.52733 -0.45118,-0.81444 -1.35352,-0.86133 l -1.17773,-0.0879 -0.31641,-0.0176 0.21094,-1.08984 h 6.73242 l -2.90039,14.5371 c -0.18751,0.96095 -0.28126,1.79298 -0.28125,2.4961 -1e-5,0.52734 0.45117,0.81445 1.35352,0.86133 l 1.17773,0.0879 0.31641,0.0176 -0.21094,1.08984 z m 4.48242,-22.55274 0.70313,-3.46289 h 3.46289 l -0.68555,3.46289 z m 3.99023,21.49805 0.86133,-4.35937 h 1.74024 l -0.0352,0.3164 -0.14062,1.07227 c -0.0586,0.41016 -0.0879,0.7207 -0.0879,0.93164 -1e-5,0.6211 0.42773,1.18359 1.2832,1.6875 0.85546,0.50391 1.81054,0.75586 2.86523,0.75586 1.01952,0 1.87206,-0.31934 2.55762,-0.95801 0.68554,-0.63867 1.02831,-1.43261 1.02832,-2.38184 -1e-5,-0.93749 -0.48634,-1.92186 -1.45898,-2.95312 l -1.82813,-1.93359 c -2.13282,-2.23827 -3.19922,-4.0664 -3.19922,-5.48438 0,-1.49998 0.60644,-2.73338 1.81934,-3.70019 1.21288,-0.96678 2.76854,-1.45018 4.66699,-1.4502 1.82811,2e-5 3.58592,0.42775 5.27344,1.2832 l -0.84375,4.23633 h -1.72266 l 0.0352,-0.3164 c 0.0703,-0.56249 0.12889,-0.97851 0.17578,-1.24805 0.0703,-0.36327 0.10545,-0.66209 0.10547,-0.89649 -2e-5,-1.3242 -1.08986,-1.98631 -3.26953,-1.98632 -0.8672,10e-6 -1.59376,0.31056 -2.17969,0.93164 -0.58595,0.62111 -0.87892,1.39454 -0.87891,2.32031 -1e-5,0.91408 0.57421,1.94532 1.72266,3.09375 l 1.82812,1.81055 c 2.0039,1.99219 3.00585,3.8086 3.00586,5.44921 -1e-5,1.58204 -0.63282,2.85645 -1.89843,3.82325 -1.26564,0.96679 -2.94142,1.45019 -5.02735,1.45019 -2.0625,0 -4.19531,-0.49804 -6.39844,-1.49414 z m 16.36524,7.99805 4.27148,-21.48047 c 0.1875,-0.96092 0.28125,-1.79295 0.28125,-2.49609 0,-0.52733 -0.45117,-0.81444 -1.35351,-0.86133 l -1.16016,-0.0879 -0.33398,-0.0176 0.21093,-1.08984 h 6.73243 l -1.59961,8.0332 c 1.44139,-2.56639 3.06151,-4.6201 4.86035,-6.16113 1.79881,-1.541 3.47166,-2.31151 5.01855,-2.31153 1.14842,2e-5 2.06248,0.39846 2.74219,1.19531 0.67967,0.7969 1.01951,1.8633 1.01953,3.19922 -2e-5,3.83205 -1.34475,7.38575 -4.03418,10.66114 -2.68947,3.27539 -5.59864,4.91308 -8.72754,4.91308 -0.59766,0 -1.44727,-0.11133 -2.54882,-0.33398 l -0.52735,-0.10547 -1.38867,6.94336 z m 6.52148,-15.36328 -1.24804,6.09961 c 1.42967,0.70312 2.88866,1.05469 4.37695,1.05468 1.71092,10e-6 3.11717,-0.80273 4.21875,-2.4082 0.85545,-1.24218 1.5908,-2.92382 2.20605,-5.04492 0.61522,-2.12108 0.92284,-4.02538 0.92286,-5.71289 -2e-5,-1.67577 -0.53909,-2.51366 -1.61719,-2.51367 -2.28517,1e-5 -5.2383,2.84181 -8.85938,8.52539 z m 16.80469,8.41992 2.90039,-14.53711 c 0.18749,-0.96092 0.28124,-1.79295 0.28125,-2.49609 -1e-5,-0.52733 -0.45118,-0.81444 -1.35351,-0.86133 l -1.17774,-0.0879 -0.3164,-0.0176 0.21093,-1.08984 h 6.73242 l -2.90039,14.5371 c -0.1875,0.96095 -0.28125,1.79298 -0.28125,2.4961 0,0.52734 0.45117,0.81445 1.35352,0.86133 l 1.17773,0.0879 0.31641,0.0176 -0.21094,1.08984 z m 4.48242,-22.55274 0.70313,-3.46289 h 3.46289 l -0.68555,3.46289 z m 3.99024,21.49805 0.86133,-4.35937 h 1.74023 l -0.0352,0.3164 -0.14062,1.07227 c -0.0586,0.41016 -0.0879,0.7207 -0.0879,0.93164 -1e-5,0.6211 0.42773,1.18359 1.2832,1.6875 0.85546,0.50391 1.81054,0.75586 2.86524,0.75586 1.01952,0 1.87206,-0.31934 2.55761,-0.95801 0.68554,-0.63867 1.02831,-1.43261 1.02832,-2.38184 -1e-5,-0.93749 -0.48634,-1.92186 -1.45898,-2.95312 l -1.82813,-1.93359 c -2.13282,-2.23827 -3.19922,-4.0664 -3.19922,-5.48438 0,-1.49998 0.60644,-2.73338 1.81934,-3.70019 1.21288,-0.96678 2.76855,-1.45018 4.66699,-1.4502 1.82811,2e-5 3.58592,0.42775 5.27344,1.2832 l -0.84375,4.23633 h -1.72266 l 0.0352,-0.3164 c 0.0703,-0.56249 0.12889,-0.97851 0.17578,-1.24805 0.0703,-0.36327 0.10546,-0.66209 0.10547,-0.89649 -1e-5,-1.3242 -1.08986,-1.98631 -3.26953,-1.98632 -0.8672,10e-6 -1.59376,0.31056 -2.17969,0.93164 -0.58594,0.62111 -0.87891,1.39454 -0.8789,2.32031 -1e-5,0.91408 0.5742,1.94532 1.72265,3.09375 l 1.82813,1.81055 c 2.00389,1.99219 3.00584,3.8086 3.00586,5.44921 -2e-5,1.58204 -0.63283,2.85645 -1.89844,3.82325 -1.26564,0.96679 -2.94142,1.45019 -5.02735,1.45019 -2.0625,0 -4.19531,-0.49804 -6.39843,-1.49414 z m 27.54492,7.99805 2.98828,-14.95899 c -1.45314,2.56642 -3.07911,4.61719 -4.87793,6.15235 -1.79884,1.53515 -3.47169,2.30273 -5.01855,2.30273 -1.13673,0 -2.04493,-0.39844 -2.72461,-1.19531 -0.67969,-0.79687 -1.01954,-1.86328 -1.01953,-3.19922 -1e-5,-3.8203 1.33886,-7.36815 4.0166,-10.64355 2.67772,-3.27538 5.58104,-4.91307 8.70996,-4.91309 0.63279,2e-5 1.48826,0.10549 2.5664,0.31641 l 0.54493,0.10547 h 3.46289 l -5.16797,26.0332 z m 3.51562,-17.5957 1.26563,-6.1875 c -1.37111,-0.69139 -2.80666,-1.0371 -4.30664,-1.03711 -1.73439,10e-6 -3.15236,0.80275 -4.25391,2.4082 -0.87891,1.28908 -1.63184,2.98536 -2.25879,5.08887 -0.62696,2.10352 -0.94043,4.01074 -0.94043,5.72168 0,1.67578 0.54492,2.51367 1.63477,2.51367 2.27343,0 5.22655,-2.83593 8.85937,-8.50781 z m 19.45899,10.65234 1.59961,-8.01563 c -1.45314,2.56642 -3.07912,4.61719 -4.87793,6.15235 -1.79884,1.53515 -3.47169,2.30273 -5.01856,2.30273 -1.13672,0 -2.04492,-0.39844 -2.72461,-1.19531 -0.67969,-0.79687 -1.01953,-1.86328 -1.01953,-3.19922 0,-3.8203 1.33887,-7.36815 4.0166,-10.64355 2.67773,-3.27538 5.58105,-4.91307 8.70997,-4.91309 0.63279,2e-5 1.48826,0.10549 2.5664,0.31641 l 0.54492,0.10547 h 3.46289 l -2.88281,14.5371 c -0.19924,0.96095 -0.29885,1.79298 -0.29883,2.4961 -2e-5,0.52734 0.45116,0.81445 1.35352,0.86133 l 1.17773,0.0879 0.31641,0.0176 -0.21094,1.08984 z m 2.12695,-10.65234 1.24805,-6.11719 c -1.35939,-0.70311 -2.8008,-1.05467 -4.32422,-1.05469 -1.74611,2e-5 -3.16407,0.79689 -4.25391,2.39063 -0.86719,1.27735 -1.61133,2.96778 -2.23242,5.07128 -0.6211,2.10353 -0.93165,4.00489 -0.93164,5.70411 -10e-6,1.67578 0.54492,2.51367 1.63477,2.51367 2.27342,0 5.22655,-2.83593 8.85937,-8.50781 z m 19.16016,10.65234 4.62304,-23.20313 c 0.1875,-0.96091 0.28125,-1.7988 0.28125,-2.51367 0,-0.5156 -0.45117,-0.79685 -1.35351,-0.84375 l -1.17774,-0.0879 -0.3164,-0.0176 0.21094,-1.08984 h 6.73242 l -3.41016,17.12109 h 0.26367 c 5.71874,-2.92967 8.57811,-5.39061 8.57813,-7.38281 -2e-5,-0.42186 -0.18166,-0.77928 -0.54492,-1.07226 l 3.51562,-0.21094 c 0.16404,0.31642 0.24607,0.60353 0.2461,0.86133 -3e-5,1.74611 -2.96487,4.17774 -8.89454,7.29492 2.35546,3.87891 4.46483,6.86719 6.32813,8.96484 0.56248,0.64453 1.4531,0.9961 2.67187,1.05469 l 0.38672,0.0176 -0.21093,1.10742 h -5.78321 c -2.33204,-2.82422 -4.48243,-6.11132 -6.45117,-9.86133 h -0.26367 l -1.96875,9.86133 z m 31.79883,0 1.59961,-8.01563 c -1.45314,2.56642 -3.07912,4.61719 -4.87793,6.15235 -1.79884,1.53515 -3.47169,2.30273 -5.01856,2.30273 -1.13672,0 -2.04493,-0.39844 -2.72461,-1.19531 -0.67969,-0.79687 -1.01953,-1.86328 -1.01953,-3.19922 0,-3.8203 1.33886,-7.36815 4.0166,-10.64355 2.67773,-3.27538 5.58104,-4.91307 8.70996,-4.91309 0.6328,2e-5 1.48827,0.10549 2.56641,0.31641 l 0.54492,0.10547 h 3.46289 l -2.88281,14.5371 c -0.19924,0.96095 -0.29885,1.79298 -0.29883,2.4961 -2e-5,0.52734 0.45115,0.81445 1.35352,0.86133 l 1.17773,0.0879 0.31641,0.0176 -0.21094,1.08984 z m 2.12695,-10.65234 1.24805,-6.11719 c -1.3594,-0.70311 -2.8008,-1.05467 -4.32422,-1.05469 -1.74611,2e-5 -3.16408,0.79689 -4.25391,2.39063 -0.8672,1.27735 -1.61134,2.96778 -2.23242,5.07128 -0.6211,2.10353 -0.93165,4.00489 -0.93164,5.70411 -10e-6,1.67578 0.54491,2.51367 1.63476,2.51367 2.27343,0 5.22655,-2.83593 8.85938,-8.50781 z m 18.42187,17.5957 2.98829,-14.95899 c -1.45314,2.56642 -3.07912,4.61719 -4.87793,6.15235 -1.79884,1.53515 -3.47169,2.30273 -5.01856,2.30273 -1.13672,0 -2.04493,-0.39844 -2.72461,-1.19531 -0.67969,-0.79687 -1.01953,-1.86328 -1.01953,-3.19922 0,-3.8203 1.33886,-7.36815 4.0166,-10.64355 2.67773,-3.27538 5.58104,-4.91307 8.70996,-4.91309 0.6328,2e-5 1.48827,0.10549 2.56641,0.31641 l 0.54492,0.10547 h 3.46289 l -5.16797,26.0332 z m 3.51563,-17.5957 1.26562,-6.1875 c -1.37111,-0.69139 -2.80665,-1.0371 -4.30664,-1.03711 -1.73438,10e-6 -3.15235,0.80275 -4.2539,2.4082 -0.87892,1.28908 -1.63185,2.98536 -2.25879,5.08887 -0.62696,2.10352 -0.94044,4.01074 -0.94043,5.72168 -10e-6,1.67578 0.54491,2.51367 1.63476,2.51367 2.27343,0 5.22655,-2.83593 8.85938,-8.50781 z m 17.31445,9.59765 0.86133,-4.35937 h 1.74023 l -0.0351,0.3164 -0.14063,1.07227 c -0.0586,0.41016 -0.0879,0.7207 -0.0879,0.93164 0,0.6211 0.42773,1.18359 1.28321,1.6875 0.85546,0.50391 1.81054,0.75586 2.86523,0.75586 1.01952,0 1.87206,-0.31934 2.55762,-0.95801 0.68553,-0.63867 1.02831,-1.43261 1.02832,-2.38184 -10e-6,-0.93749 -0.48634,-1.92186 -1.45899,-2.95312 l -1.82812,-1.93359 c -2.13282,-2.23827 -3.19923,-4.0664 -3.19922,-5.48438 -10e-6,-1.49998 0.60644,-2.73338 1.81934,-3.70019 1.21288,-0.96678 2.76854,-1.45018 4.66699,-1.4502 1.82811,2e-5 3.58592,0.42775 5.27344,1.2832 l -0.84375,4.23633 h -1.72266 l 0.0352,-0.3164 c 0.0703,-0.56249 0.12889,-0.97851 0.17578,-1.24805 0.0703,-0.36327 0.10545,-0.66209 0.10547,-0.89649 -2e-5,-1.3242 -1.08986,-1.98631 -3.26954,-1.98632 -0.86719,10e-6 -1.59376,0.31056 -2.17968,0.93164 -0.58595,0.62111 -0.87892,1.39454 -0.87891,2.32031 -10e-6,0.91408 0.57421,1.94532 1.72266,3.09375 l 1.82812,1.81055 c 2.00389,1.99219 3.00585,3.8086 3.00586,5.44921 -1e-5,1.58204 -0.63283,2.85645 -1.89844,3.82325 -1.26563,0.96679 -2.94141,1.45019 -5.02734,1.45019 -2.06251,0 -4.19532,-0.49804 -6.39844,-1.49414 z m 17.75391,1.05469 2.90039,-14.53711 c 0.18749,-0.96092 0.28124,-1.79295 0.28125,-2.49609 -10e-6,-0.52733 -0.45118,-0.81444 -1.35352,-0.86133 l -1.17773,-0.0879 -0.31641,-0.0176 0.21094,-1.08984 h 6.73242 l -2.90039,14.5371 c -0.18751,0.96095 -0.28126,1.79298 -0.28125,2.4961 -1e-5,0.52734 0.45117,0.81445 1.35352,0.86133 l 1.17773,0.0879 0.31641,0.0176 -0.21094,1.08984 z m 4.48242,-22.55274 0.70313,-3.46289 h 3.46289 l -0.68555,3.46289 z m 5.92383,22.55274 2.90039,-14.53711 c 0.18749,-0.96092 0.28124,-1.79295 0.28125,-2.49609 -10e-6,-0.52733 -0.45118,-0.81444 -1.35352,-0.86133 l -1.17773,-0.0879 -0.31641,-0.0176 0.21094,-1.08984 h 6.73242 l -1.56445,7.80468 c 3.50389,-5.48436 6.70897,-8.22654 9.61523,-8.22656 1.92186,2e-5 2.88279,1.08986 2.88282,3.26953 -3e-5,0.43361 -0.0528,0.89064 -0.15821,1.3711 l -0.24609,1.16015 -0.49219,2.42578 c 3.69138,-5.49607 6.93747,-8.24412 9.73828,-8.24414 1.89841,2e-5 2.84763,1.1719 2.84766,3.51563 -3e-5,0.56251 -0.1055,1.37111 -0.31641,2.42578 l -1.79297,9.03515 c -0.18753,0.97266 -0.28128,1.80469 -0.28125,2.4961 -3e-5,0.52734 0.45114,0.81445 1.35352,0.86133 l 1.16016,0.0879 0.33398,0.0176 -0.22852,1.08984 h -6.71484 l 2.91797,-14.625 c 0.082,-0.42186 0.12302,-0.74999 0.12305,-0.98438 -3e-5,-0.8906 -0.31644,-1.33592 -0.94922,-1.33593 -0.94925,1e-5 -2.2969,0.82911 -4.04297,2.4873 -1.74612,1.65822 -3.24026,3.52443 -4.48242,5.59863 l -1.79297,8.85938 h -3.48047 l 2.91797,-14.625 c 0.082,-0.43358 0.12303,-0.7617 0.12305,-0.98438 -2e-5,-0.8906 -0.31643,-1.33592 -0.94922,-1.33593 -0.96096,1e-5 -2.30861,0.82618 -4.04297,2.47851 -1.73439,1.65236 -3.25197,3.55079 -4.55274,5.69531 l -1.74023,8.77149 z m 34.03125,0 2.90039,-14.53711 c 0.18749,-0.96092 0.28124,-1.79295 0.28125,-2.49609 -10e-6,-0.52733 -0.45118,-0.81444 -1.35352,-0.86133 l -1.17773,-0.0879 -0.31641,-0.0176 0.21094,-1.08984 h 6.73242 l -2.90039,14.5371 c -0.18751,0.96095 -0.28126,1.79298 -0.28125,2.4961 -1e-5,0.52734 0.45117,0.81445 1.35352,0.86133 l 1.17773,0.0879 0.31641,0.0176 -0.21094,1.08984 z m 4.48242,-22.55274 0.70313,-3.46289 h 3.46289 l -0.68555,3.46289 z m 13.6582,22.3418 c -0.98438,0.43359 -1.91016,0.65039 -2.77734,0.65039 -1.30079,0 -2.35548,-0.38965 -3.16406,-1.16894 -0.8086,-0.7793 -1.2129,-1.7959 -1.21289,-3.04981 -10e-6,-0.49218 0.0703,-1.0957 0.21093,-1.81054 l 2.40821,-12.07618 h -2.93555 l 0.28125,-1.42382 h 2.91797 l 0.70312,-3.4629 3.65625,-0.98437 -0.8789,4.44727 h 4.86914 l -0.29883,1.42382 h -4.85156 l -2.51367,12.56836 c -0.12892,0.64454 -0.19337,1.25391 -0.19336,1.82813 -10e-6,1.39453 0.6621,2.0918 1.98632,2.09179 0.58593,10e-6 1.2832,-0.16406 2.0918,-0.49218 z m 16.24219,0.21094 1.59961,-8.01563 c -1.45314,2.56642 -3.07911,4.61719 -4.87793,6.15235 -1.79884,1.53515 -3.47169,2.30273 -5.01855,2.30273 -1.13673,0 -2.04493,-0.39844 -2.72461,-1.19531 -0.67969,-0.79687 -1.01954,-1.86328 -1.01953,-3.19922 -1e-5,-3.8203 1.33886,-7.36815 4.0166,-10.64355 2.67772,-3.27538 5.58104,-4.91307 8.70996,-4.91309 0.63279,2e-5 1.48826,0.10549 2.5664,0.31641 l 0.54493,0.10547 h 3.46289 l -2.88282,14.5371 c -0.19923,0.96095 -0.29884,1.79298 -0.29882,2.4961 -2e-5,0.52734 0.45115,0.81445 1.35351,0.86133 l 1.17774,0.0879 0.3164,0.0176 -0.21094,1.08984 z m 2.12695,-10.65234 1.24805,-6.11719 c -1.35939,-0.70311 -2.8008,-1.05467 -4.32422,-1.05469 -1.7461,2e-5 -3.16407,0.79689 -4.2539,2.39063 -0.8672,1.27735 -1.61134,2.96778 -2.23243,5.07128 -0.6211,2.10353 -0.93164,4.00489 -0.93164,5.70411 0,1.67578 0.54492,2.51367 1.63477,2.51367 2.27343,0 5.22655,-2.83593 8.85937,-8.50781 z m 18.42188,17.5957 2.98828,-14.95899 c -1.45314,2.56642 -3.07911,4.61719 -4.87793,6.15235 -1.79884,1.53515 -3.47169,2.30273 -5.01855,2.30273 -1.13673,0 -2.04493,-0.39844 -2.72461,-1.19531 -0.67969,-0.79687 -1.01954,-1.86328 -1.01953,-3.19922 -1e-5,-3.8203 1.33886,-7.36815 4.0166,-10.64355 2.67772,-3.27538 5.58104,-4.91307 8.70996,-4.91309 0.63279,2e-5 1.48826,0.10549 2.5664,0.31641 l 0.54493,0.10547 h 3.46289 l -5.16797,26.0332 z m 3.51562,-17.5957 1.26563,-6.1875 c -1.37111,-0.69139 -2.80666,-1.0371 -4.30664,-1.03711 -1.73439,10e-6 -3.15236,0.80275 -4.25391,2.4082 -0.87891,1.28908 -1.63184,2.98536 -2.25879,5.08887 -0.62696,2.10352 -0.94043,4.01074 -0.94043,5.72168 0,1.67578 0.54492,2.51367 1.63477,2.51367 2.27343,0 5.22655,-2.83593 8.85937,-8.50781 z m 8.2793,10.65234 2.90039,-14.53711 c 0.18749,-0.96092 0.28124,-1.79295 0.28125,-2.49609 -1e-5,-0.52733 -0.45118,-0.81444 -1.35351,-0.86133 l -1.17774,-0.0879 -0.3164,-0.0176 0.21093,-1.08984 h 6.73242 l -2.90039,14.5371 c -0.1875,0.96095 -0.28125,1.79298 -0.28125,2.4961 0,0.52734 0.45117,0.81445 1.35352,0.86133 l 1.17773,0.0879 0.31641,0.0176 -0.21094,1.08984 z m 4.48242,-22.55274 0.70313,-3.46289 h 3.46289 l -0.68555,3.46289 z" />
  </g>
</svg>
