<?xml version="1.0" encoding="UTF-8" standalone="no"?>
<svg
   xmlns:dc="http://purl.org/dc/elements/1.1/"
   xmlns:cc="http://creativecommons.org/ns#"
   xmlns:rdf="http://www.w3.org/1999/02/22-rdf-syntax-ns#"
   xmlns:svg="http://www.w3.org/2000/svg"
   xmlns="http://www.w3.org/2000/svg"
   id="svg2"
   height="215.83499"
   width="974.88586"
   version="1.0">
  <metadata
     id="metadata11">
    <rdf:RDF>
      <cc:Work
         rdf:about="">
        <dc:format>image/svg+xml</dc:format>
        <dc:type
           rdf:resource="http://purl.org/dc/dcmitype/StillImage" />
        <dc:contributor>
          <cc:Agent>
            <dc:title>bennylin</dc:title>
          </cc:Agent>
        </dc:contributor>
        <dc:creator>
          <cc:Agent>
            <dc:title />
          </cc:Agent>
        </dc:creator>
      </cc:Work>
    </rdf:RDF>
  </metadata>
  <defs
     id="defs9" />
  <g
     transform="translate(-16.005527,-7.3450031)"
     id="g2968">
    <g
       id="text2995"
       style="font-style:normal;font-variant:normal;font-weight:normal;font-stretch:normal;font-size:86.7154px;line-height:125%;font-family:'Lucida Sans';-inkscape-font-specification:'Lucida Sans';letter-spacing:0px;word-spacing:0px;fill:#808080;fill-opacity:1;stroke:none">
      <path
         id="path3839"
         style="font-size:106.155px;fill:#808080"
         d="m 61.722739,87.376041 c -6.842077,2.073343 -12.699265,3.110013 -17.571582,3.110014 -8.742621,-10e-7 -15.619202,-2.945873 -20.629762,-8.837624 -5.010587,-5.891736 -7.515874,-12.846067 -7.515868,-20.863013 -6e-6,-5.286991 1.105776,-10.314843 3.317348,-15.08357 2.211555,-4.768641 5.105593,-8.310598 8.682124,-10.625883 3.576495,-2.315176 7.783649,-3.472792 12.621475,-3.472849 6.496438,5.7e-5 11.67979,2.332566 15.550072,6.997532 3.870191,4.665068 5.805309,11.645315 5.80536,20.940764 l -0.05183,3.110014 H 26.424078 c 0.552875,4.976045 1.624101,8.811726 3.213681,11.507054 1.589542,2.695358 3.706078,4.794615 6.349613,6.297779 2.643484,1.503181 6.004024,2.254767 10.08163,2.25476 2.073305,7e-6 4.138007,-0.18141 6.194112,-0.544252 2.056021,-0.362828 5.209227,-1.321748 9.459628,-2.876764 z M 26.890577,54.980057 h 24.828282 c -4.2e-5,-5.632541 -1.097185,-9.658278 -3.291432,-12.077222 -2.194324,-2.418852 -5.001973,-3.628301 -8.422956,-3.62835 -3.904822,4.9e-5 -6.95436,1.304526 -9.148626,3.913434 -2.194306,2.609 -3.516061,6.539709 -3.965268,11.792138 z" />
      <path
         id="path3841"
         style="font-size:106.155px;fill:#808080"
         d="M 79.553489,89.190216 V 32.898955 h 10.211214 v 10.574049 c 2.591655,-3.766524 5.606639,-6.67784 9.044958,-8.733957 3.438259,-2.056009 7.006139,-3.08404 10.703629,-3.084098 4.76865,5.8e-5 8.63888,1.511869 11.61072,4.535438 2.97174,3.023675 4.45764,7.213551 4.45769,12.569642 V 89.190216 H 115.37049 V 52.077377 c -5e-5,-3.904755 -0.3456,-6.479153 -1.03667,-7.723202 -0.69116,-1.24396 -1.65872,-2.20288 -2.90268,-2.876764 -1.24405,-0.673788 -2.57444,-1.010706 -3.99119,-1.010754 -2.5226,4.8e-5 -5.24386,0.777551 -8.163787,2.332511 -2.919985,1.555052 -6.090468,4.872397 -9.51146,9.952046 v 36.439002 z" />
      <path
         id="path3843"
         style="font-size:106.155px;fill:#808080"
         d="m 143.41245,87.22054 v -9.381877 c 6.66924,3.317357 12.4746,4.97603 17.41608,4.976023 2.90266,7e-6 5.33019,-0.794774 7.28262,-2.384344 1.95236,-1.589552 2.92856,-3.576504 2.9286,-5.960861 -4e-5,-1.485879 -0.48382,-2.937218 -1.45134,-4.35402 -0.96759,-1.416764 -3.19644,-2.850825 -6.68653,-4.302187 l -5.96086,-2.539845 c -4.59593,-1.900536 -7.94783,-4.1121 -10.05572,-6.634697 -2.1079,-2.487977 -3.16185,-5.546155 -3.16184,-9.174543 -10e-6,-4.526752 1.64138,-8.293322 4.92418,-11.299719 3.28278,-3.006291 8.13785,-4.509463 14.56524,-4.509521 3.14454,5.8e-5 7.03205,0.432004 11.66255,1.29584 l 2.12518,0.414668 v 8.500706 c -5.70173,-1.693181 -10.2458,-2.539795 -13.63223,-2.539845 -3.28282,5e-5 -5.73627,0.708441 -7.36037,2.125177 -1.62414,1.41683 -2.43619,3.092781 -2.43618,5.027856 -1e-5,1.520493 0.55288,2.885442 1.65868,4.094853 1.0712,1.244043 3.00632,2.470769 5.80536,3.680183 l 4.92419,2.073343 c 6.6001,2.799043 10.79862,5.563498 12.59556,8.293372 1.79685,2.729924 2.6953,5.701712 2.69534,8.915375 -4e-5,3.075471 -0.83802,5.926315 -2.51393,8.552539 -1.67599,2.626239 -4.14672,4.682302 -7.4122,6.168196 -3.26554,1.485895 -6.90253,2.228842 -10.91096,2.228843 -4.66505,-10e-7 -10.33218,-1.088505 -17.00142,-3.265515 z" />
      <path
         id="path3845"
         style="font-size:106.155px;fill:#808080"
         d="M 199.60004,89.190216 V 32.898955 h 10.21121 v 56.291261 z m 0,-66.502475 V 12.476527 h 10.21121 v 10.211214 z" />
      <path
         id="path3847"
         style="font-size:106.155px;fill:#808080"
         d="M 230.28553,89.190216 V 7.3450031 h 10.21121 V 60.215248 l 23.84344,-27.316293 h 10.98872 l -22.75494,26.279622 27.4718,30.011639 H 266.9837 L 240.49674,60.318915 v 28.871301 z" />
      <path
         id="path3849"
         style="font-size:106.155px;fill:#808080"
         d="M 292.27846,89.190216 V 7.3450031 h 10.21121 V 89.190216 Z" />
      <path
         id="path3851"
         style="font-size:106.155px;fill:#808080"
         d="m 345.35605,90.486055 c -5.35616,-10e-7 -10.01254,-1.097144 -13.96915,-3.291432 -3.95664,-2.194283 -7.09257,-5.649851 -9.40779,-10.366714 -2.31524,-4.716838 -3.47286,-9.977941 -3.47285,-15.783323 -10e-6,-5.45977 1.05394,-10.530816 3.16185,-15.213154 2.10788,-4.682252 5.1747,-8.21557 9.20046,-10.599966 4.02572,-2.384288 8.85487,-3.576459 14.48748,-3.576517 5.3561,5.8e-5 10.02112,1.088562 13.99507,3.265515 3.97385,2.177063 7.10978,5.632631 9.40779,10.366715 2.2979,4.734172 3.44687,9.986636 3.44693,15.757407 -6e-5,5.528937 -1.07128,10.634539 -3.21368,15.316821 -2.14251,4.682307 -5.20933,8.206987 -9.20046,10.574049 -3.99123,2.367066 -8.80311,3.550598 -14.43565,3.550599 z m 0,-7.671369 c 5.07965,7e-6 9.019,-1.891917 11.81805,-5.675776 2.79897,-3.783835 4.19848,-9.148604 4.19852,-16.094324 -4e-5,-6.98022 -1.40819,-12.344989 -4.22443,-16.094325 -2.81633,-3.749247 -6.74704,-5.623893 -11.79214,-5.623943 -5.04516,5e-5 -8.96723,1.874696 -11.76622,5.623943 -2.79903,3.749336 -4.19854,9.114105 -4.19852,16.094325 -2e-5,6.94572 1.39949,12.310489 4.19852,16.094324 2.79899,3.783859 6.72106,5.675783 11.76622,5.675776 z" />
      <path
         id="path3853"
         style="font-size:106.155px;fill:#808080"
         d="M 388.27425,109.66448 V 32.898955 h 10.21121 v 10.574049 c 2.10788,-3.939302 4.72547,-6.893813 7.85279,-8.863541 3.12726,-1.969619 6.78152,-2.954456 10.9628,-2.954514 6.94565,5.8e-5 12.31906,2.557178 16.12024,7.671369 3.80107,5.114291 5.70163,11.783537 5.70169,20.00776 -6e-5,5.35616 -0.88123,10.453123 -2.64351,15.290904 -1.7624,4.83781 -4.50093,8.690768 -8.21562,11.558887 -3.71478,2.868124 -7.92194,4.302185 -12.62147,4.302186 -1.86605,-10e-7 -4.32814,-0.276446 -7.38629,-0.829337 -3.05821,-0.552891 -6.31508,-2.833566 -9.77063,-6.842032 v 26.849794 z m 10.21121,-33.89916 c 3.49011,3.110025 6.27184,5.062421 8.34521,5.857194 2.07331,0.794789 4.30215,1.192179 6.68653,1.192172 5.01054,7e-6 8.71663,-2.10789 11.1183,-6.323695 2.40157,-4.215781 3.60238,-9.589189 3.60243,-16.120242 -5e-5,-6.081771 -1.06263,-10.902289 -3.18776,-14.461567 -2.12522,-3.559192 -5.41665,-5.338809 -9.8743,-5.338858 -2.8336,4.9e-5 -5.64125,0.768912 -8.42295,2.306594 -2.78176,1.537774 -5.53758,3.861644 -8.26746,6.971616 z" />
      <path
         id="path3855"
         style="font-size:106.155px;fill:#808080"
         d="m 496.29543,87.376041 c -6.84207,2.073343 -12.69926,3.110013 -17.57158,3.110014 -8.74262,-10e-7 -15.6192,-2.945873 -20.62976,-8.837624 -5.01059,-5.891736 -7.51588,-12.846067 -7.51587,-20.863013 -10e-6,-5.286991 1.10578,-10.314843 3.31735,-15.08357 2.21155,-4.768641 5.10559,-8.310598 8.68212,-10.625883 3.5765,-2.315176 7.78365,-3.472792 12.62148,-3.472849 6.49643,5.7e-5 11.67979,2.332566 15.55007,6.997532 3.87019,4.665068 5.80531,11.645315 5.80536,20.940764 l -0.0518,3.110014 h -35.506 c 0.55287,4.976045 1.6241,8.811726 3.21368,11.507054 1.58954,2.695358 3.70608,4.794615 6.34961,6.297779 2.64349,1.503181 6.00403,2.254767 10.08163,2.25476 2.07331,7e-6 4.13801,-0.18141 6.19411,-0.544252 2.05603,-0.362828 5.20923,-1.321748 9.45963,-2.876764 z M 461.46327,54.980057 h 24.82828 c -4e-5,-5.632541 -1.09718,-9.658278 -3.29143,-12.077222 -2.19432,-2.418852 -5.00197,-3.628301 -8.42296,-3.62835 -3.90482,4.9e-5 -6.95436,1.304526 -9.14862,3.913434 -2.19431,2.609 -3.51606,6.539709 -3.96527,11.792138 z" />
      <path
         id="path3857"
         style="font-size:106.155px;fill:#808080"
         d="M 550.25418,89.190216 V 78.616167 c -2.07339,3.939358 -4.6737,6.902508 -7.80095,8.889458 -3.12733,1.986953 -6.7816,2.980429 -10.96281,2.98043 -6.91116,-10e-7 -12.27593,-2.548482 -16.09432,-7.645452 -3.81841,-5.096956 -5.72762,-11.774842 -5.72761,-20.033676 -1e-5,-8.915339 2.14245,-16.336172 6.42736,-22.26252 4.2849,-5.926251 10.14208,-8.8894 17.57159,-8.889458 2.17697,5.8e-5 4.25031,0.259225 6.22002,0.777504 1.96964,0.518392 3.72334,1.2527 5.26111,2.202927 1.53769,0.950336 3.23956,2.51398 5.10561,4.690938 V 7.3450031 h 10.26305 V 89.190216 Z m 0,-42.866365 c -3.52473,-3.109969 -6.3151,-5.053726 -8.37112,-5.831277 -2.0561,-0.777455 -4.27631,-1.166206 -6.66062,-1.166256 -4.97605,5e-5 -8.66487,2.090669 -11.06647,6.271863 -2.40164,4.181281 -3.60245,9.571967 -3.60243,16.172075 -2e-5,6.116383 1.06257,10.9369 3.18777,14.461567 2.12515,3.524692 5.41658,5.287032 9.87429,5.287024 2.83354,8e-6 5.64119,-0.777495 8.42296,-2.332511 2.78169,-1.554995 5.52023,-3.870226 8.21562,-6.945699 z" />
      <path
         id="path3859"
         style="font-size:106.155px;fill:#808080"
         d="M 580.88784,89.190216 V 32.898955 h 10.21121 v 56.291261 z m 0,-66.502475 V 12.476527 h 10.21121 v 10.211214 z" />
      <path
         id="path3861"
         style="font-size:106.155px;fill:#808080"
         d="m 640.60006,82.037183 c -3.04094,2.799017 -6.03864,4.906914 -8.99312,6.323696 -2.95454,1.416784 -5.84858,2.125175 -8.68213,2.125176 -3.97392,-10e-7 -7.67138,-1.313117 -11.09238,-3.939351 -3.42102,-2.626229 -5.13153,-6.46191 -5.13153,-11.507054 0,-5.528894 2.38434,-10.098883 7.15304,-13.70998 4.76867,-3.611041 12.3882,-5.416575 22.8586,-5.416608 h 2.38435 v -6.790198 c -4e-5,-2.695303 -0.36287,-4.656338 -1.08851,-5.883111 -0.7257,-1.226681 -1.8574,-2.185601 -3.3951,-2.876763 -1.53776,-0.691065 -3.44696,-1.036622 -5.72761,-1.036672 -5.28704,5e-5 -11.05784,1.658723 -17.31241,4.976023 v -8.448872 c 6.87657,-2.798957 13.35576,-4.198462 19.43759,-4.19852 3.31732,5.8e-5 6.36686,0.527032 9.14863,1.580924 2.78169,1.054004 5.00189,2.712677 6.66061,4.976023 1.65863,2.263448 2.48796,5.900434 2.48801,10.910968 v 25.502118 c -5e-5,2.83358 0.22457,4.742782 0.67384,5.72761 0.44917,0.984845 1.07981,1.736432 1.89192,2.25476 0.81201,0.518342 1.75365,0.77751 2.82493,0.777504 0.44917,6e-6 1.10573,-0.06911 1.96968,-0.207334 l 0.72567,5.649859 c -2.31529,1.105782 -4.87241,1.658673 -7.67137,1.658674 -1.86605,-10e-7 -3.66295,-0.604725 -5.39069,-1.814175 -1.72783,-1.209448 -2.97183,-3.421012 -3.73202,-6.634697 z m -1.50317,-5.546192 V 61.925756 l -3.26552,-0.103667 c -5.35616,2.8e-5 -9.8484,1.036698 -13.47673,3.110015 -3.62836,2.073365 -5.44254,4.889653 -5.44252,8.448872 -2e-5,2.453469 0.88979,4.52681 2.66943,6.220029 1.7796,1.693238 3.86158,2.539852 6.24594,2.539845 2.14243,7e-6 4.31944,-0.475134 6.53103,-1.425423 2.21154,-0.950273 4.45766,-2.358417 6.73837,-4.224436 z" />
      <path
         id="path3863"
         style="font-size:106.155px;fill:#808080"
         d="M 703.83705,89.812219 V 7.3450031 h 10.21122 V 43.473004 c 2.10787,-3.939302 4.72547,-6.893813 7.85278,-8.863541 3.12727,-1.969619 6.78153,-2.954456 10.96281,-2.954514 6.94565,5.8e-5 12.31906,2.557178 16.12024,7.671369 3.80107,5.114291 5.70163,11.783537 5.70169,20.00776 -6e-5,8.88084 -2.15115,16.293033 -6.45328,22.236603 -4.30224,5.943585 -10.16806,8.915373 -17.5975,8.915374 -2.17704,-10e-7 -4.25038,-0.259168 -6.22003,-0.777503 -1.9697,-0.518336 -3.7234,-1.261283 -5.2611,-2.228844 -1.53776,-0.967557 -3.23963,-2.522563 -5.10561,-4.665022 l -1.24401,6.997533 z M 714.04827,75.76532 c 3.4901,3.110025 6.27183,5.062421 8.3452,5.857194 2.07332,0.794789 4.30216,1.192179 6.68653,1.192172 5.01054,7e-6 8.71664,-2.10789 11.11831,-6.323695 2.40157,-4.215781 3.60238,-9.589189 3.60243,-16.120242 -5e-5,-6.081771 -1.06264,-10.902289 -3.18777,-14.461567 -2.12522,-3.559192 -5.41665,-5.338809 -9.87429,-5.338858 -2.8336,4.9e-5 -5.64125,0.768912 -8.42296,2.306594 -2.78176,1.537774 -5.53757,3.861644 -8.26745,6.971616 z" />
      <path
         id="path3865"
         style="font-size:106.155px;fill:#808080"
         d="m 811.85824,87.376041 c -6.84208,2.073343 -12.69927,3.110013 -17.57158,3.110014 -8.74263,-10e-7 -15.61921,-2.945873 -20.62977,-8.837624 -5.01058,-5.891736 -7.51587,-12.846067 -7.51587,-20.863013 0,-5.286991 1.10578,-10.314843 3.31735,-15.08357 2.21156,-4.768641 5.1056,-8.310598 8.68213,-10.625883 3.57649,-2.315176 7.78365,-3.472792 12.62147,-3.472849 6.49644,5.7e-5 11.67979,2.332566 15.55007,6.997532 3.87019,4.665068 5.80531,11.645315 5.80536,20.940764 l -0.0518,3.110014 h -35.506 c 0.55288,4.976045 1.6241,8.811726 3.21368,11.507054 1.58955,2.695358 3.70608,4.794615 6.34962,6.297779 2.64348,1.503181 6.00402,2.254767 10.08163,2.25476 2.0733,7e-6 4.138,-0.18141 6.19411,-0.544252 2.05602,-0.362828 5.20923,-1.321748 9.45963,-2.876764 z M 777.02608,54.980057 h 24.82828 c -4e-5,-5.632541 -1.09719,-9.658278 -3.29144,-12.077222 -2.19432,-2.418852 -5.00197,-3.628301 -8.42295,-3.62835 -3.90482,4.9e-5 -6.95436,1.304526 -9.14863,3.913434 -2.1943,2.609 -3.51606,6.539709 -3.96526,11.792138 z" />
      <path
         id="path3867"
         style="font-size:106.155px;fill:#808080"
         d="M 829.68898,89.812219 V 7.3450031 H 839.9002 V 43.473004 c 2.10787,-3.939302 4.72547,-6.893813 7.85278,-8.863541 3.12726,-1.969619 6.78153,-2.954456 10.9628,-2.954514 6.94566,5.8e-5 12.31907,2.557178 16.12025,7.671369 3.80107,5.114291 5.70163,11.783537 5.70169,20.00776 -6e-5,8.88084 -2.15115,16.293033 -6.45328,22.236603 -4.30224,5.943585 -10.16806,8.915373 -17.5975,8.915374 -2.17704,-10e-7 -4.25039,-0.259168 -6.22003,-0.777503 -1.9697,-0.518336 -3.7234,-1.261283 -5.26111,-2.228844 -1.53775,-0.967557 -3.23962,-2.522563 -5.1056,-4.665022 l -1.24401,6.997533 z M 839.9002,75.76532 c 3.4901,3.110025 6.27183,5.062421 8.3452,5.857194 2.07331,0.794789 4.30216,1.192179 6.68653,1.192172 5.01054,7e-6 8.71664,-2.10789 11.1183,-6.323695 2.40158,-4.215781 3.60239,-9.589189 3.60244,-16.120242 -5e-5,-6.081771 -1.06264,-10.902289 -3.18777,-14.461567 -2.12522,-3.559192 -5.41665,-5.338809 -9.87429,-5.338858 -2.83361,4.9e-5 -5.64125,0.768912 -8.42296,2.306594 -2.78176,1.537774 -5.53757,3.861644 -8.26745,6.971616 z" />
      <path
         id="path3869"
         style="font-size:106.155px;fill:#808080"
         d="m 925.47744,82.037183 c -3.04094,2.799017 -6.03864,4.906914 -8.99312,6.323696 -2.95454,1.416784 -5.84858,2.125175 -8.68213,2.125176 -3.97392,-10e-7 -7.67138,-1.313117 -11.09238,-3.939351 -3.42102,-2.626229 -5.13153,-6.46191 -5.13153,-11.507054 0,-5.528894 2.38434,-10.098883 7.15304,-13.70998 4.76867,-3.611041 12.3882,-5.416575 22.8586,-5.416608 h 2.38435 v -6.790198 c -4e-5,-2.695303 -0.36287,-4.656338 -1.08851,-5.883111 -0.7257,-1.226681 -1.8574,-2.185601 -3.3951,-2.876763 -1.53776,-0.691065 -3.44696,-1.036622 -5.72761,-1.036672 -5.28704,5e-5 -11.05784,1.658723 -17.31241,4.976023 v -8.448872 c 6.87657,-2.798957 13.35576,-4.198462 19.43759,-4.19852 3.31732,5.8e-5 6.36686,0.527032 9.14863,1.580924 2.78169,1.054004 5.00189,2.712677 6.66061,4.976023 1.65863,2.263448 2.48796,5.900434 2.48801,10.910968 v 25.502118 c -5e-5,2.83358 0.22457,4.742782 0.67384,5.72761 0.44917,0.984845 1.07982,1.736432 1.89192,2.25476 0.81201,0.518342 1.75365,0.77751 2.82493,0.777504 0.44917,6e-6 1.10573,-0.06911 1.96968,-0.207334 l 0.72567,5.649859 c -2.31529,1.105782 -4.87241,1.658673 -7.67137,1.658674 -1.86605,-10e-7 -3.66295,-0.604725 -5.39069,-1.814175 -1.72783,-1.209448 -2.97183,-3.421012 -3.73202,-6.634697 z m -1.50317,-5.546192 V 61.925756 l -3.26552,-0.103667 c -5.35616,2.8e-5 -9.8484,1.036698 -13.47673,3.110015 -3.62836,2.073365 -5.44254,4.889653 -5.44252,8.448872 -2e-5,2.453469 0.88979,4.52681 2.66943,6.220029 1.7796,1.693238 3.86158,2.539852 6.24594,2.539845 2.14243,7e-6 4.31944,-0.475134 6.53103,-1.425423 2.21154,-0.950273 4.45766,-2.358417 6.73837,-4.224436 z" />
      <path
         id="path3871"
         style="font-size:106.155px;fill:#808080"
         d="m 953.0529,87.22054 v -9.381877 c 6.66923,3.317357 12.47459,4.97603 17.41608,4.976023 2.90265,7e-6 5.33018,-0.794774 7.28261,-2.384344 1.95237,-1.589552 2.92856,-3.576504 2.9286,-5.960861 -4e-5,-1.485879 -0.48381,-2.937218 -1.45134,-4.35402 -0.96759,-1.416764 -3.19643,-2.850825 -6.68653,-4.302187 l -5.96086,-2.539845 c -4.59593,-1.900536 -7.94783,-4.1121 -10.05571,-6.634697 -2.10791,-2.487977 -3.16186,-5.546155 -3.16185,-9.174543 -10e-6,-4.526752 1.64138,-8.293322 4.92419,-11.299719 3.28277,-3.006291 8.13785,-4.509463 14.56523,-4.509521 3.14454,5.8e-5 7.03205,0.432004 11.66256,1.29584 l 2.12517,0.414668 v 8.500706 c -5.70173,-1.693181 -10.2458,-2.539795 -13.63223,-2.539845 -3.28282,5e-5 -5.73627,0.708441 -7.36037,2.125177 -1.62413,1.41683 -2.43619,3.092781 -2.43617,5.027856 -2e-5,1.520493 0.55287,2.885442 1.65867,4.094853 1.07121,1.244043 3.00632,2.470769 5.80536,3.680183 l 4.92419,2.073343 c 6.6001,2.799043 10.79862,5.563498 12.59556,8.293372 1.79685,2.729924 2.6953,5.701712 2.69534,8.915375 -4e-5,3.075471 -0.83802,5.926315 -2.51392,8.552539 -1.676,2.626239 -4.14673,4.682302 -7.4122,6.168196 -3.26555,1.485895 -6.90254,2.228842 -10.91097,2.228843 -4.66504,-10e-7 -10.33218,-1.088505 -17.00141,-3.265515 z" />
      <path
         id="path3873"
         style="font-size:106.155px;fill:#808080"
         d="M 154.81584,221.88416 V 165.5929 h 10.21122 v 10.57405 c 2.07332,-3.28274 4.72547,-6.07311 7.95645,-8.37112 3.23093,-2.2979 6.97158,-3.44687 11.22197,-3.44693 2.45341,6e-5 4.59587,0.39745 6.42736,1.19217 1.83141,0.79484 3.49008,1.9179 4.97603,3.36918 1.48584,1.45139 2.81623,3.87029 3.99118,7.2567 2.07329,-3.38641 4.70816,-6.21134 7.90462,-8.47479 3.19634,-2.26334 6.8506,-3.39504 10.9628,-3.3951 4.00839,6e-5 7.61946,1.24407 10.83322,3.73202 3.21359,2.48806 4.82043,6.79025 4.82052,12.90656 v 40.94852 h -10.26305 v -39.34168 c -7e-5,-3.73197 -0.78622,-6.27181 -2.35842,-7.61953 -1.57236,-1.34763 -3.32606,-2.02146 -5.26111,-2.02151 -2.41897,5e-5 -4.9329,0.75163 -7.54179,2.25476 -2.60901,1.50322 -5.64127,4.50092 -9.09679,8.99312 v 37.73484 H 189.337 v -39.34168 c -4e-5,-3.76653 -0.79482,-6.32365 -2.38434,-7.67137 -1.5896,-1.34762 -3.3865,-2.02146 -5.39069,-2.02151 -2.45349,5e-5 -4.93286,0.743 -7.43812,2.22885 -2.50532,1.48594 -5.53758,4.50956 -9.09679,9.07087 v 37.73484 z" />
      <path
         id="path3875"
         style="font-size:106.155px;fill:#808080"
         d="m 289.11663,221.88416 v -10.57404 c -2.62628,3.80113 -5.6499,6.72973 -9.07088,8.78579 -3.42104,2.05606 -6.98028,3.08409 -10.67771,3.08409 -4.73416,0 -8.59575,-1.51181 -11.58481,-4.53543 -2.98908,-3.02362 -4.48361,-7.23078 -4.4836,-12.62148 V 165.5929 h 10.21121 v 37.11284 c -10e-6,3.90481 0.34554,6.47921 1.03668,7.72321 0.69109,1.24401 1.65865,2.21157 2.90268,2.90268 1.24398,0.69112 2.59165,1.03667 4.04302,1.03667 2.48798,0 5.19196,-0.7775 8.11195,-2.33251 2.91992,-1.555 6.0904,-4.87235 9.51146,-9.95205 V 165.5929 h 10.21121 v 56.29126 z" />
      <path
         id="path3877"
         style="font-size:106.155px;fill:#808080"
         d="m 319.85393,221.88416 v -81.84521 h 10.21121 v 81.84521 z" />
      <path
         id="path3879"
         style="font-size:106.155px;fill:#808080"
         d="m 375.62687,221.88416 c -3.14461,0.8639 -5.87451,1.29584 -8.18971,1.29584 -5.04516,0 -9.05361,-1.45997 -12.02539,-4.37993 -2.9718,-2.91995 -4.4577,-7.07528 -4.45769,-12.46598 v -33.06982 h -7.04936 v -7.67137 h 7.04936 v -10.21121 l 10.21122,-0.98484 v 11.19605 h 14.72073 v 7.67137 H 361.1653 v 31.20381 c -2e-5,3.93937 0.7602,6.7643 2.28068,8.47479 1.52042,1.71052 3.93932,2.56577 7.2567,2.56577 1.34764,0 2.98903,-0.22461 4.92419,-0.67384 z" />
      <path
         id="path3881"
         style="font-size:106.155px;fill:#808080"
         d="M 390.34761,221.88416 V 165.5929 h 10.21122 v 56.29126 z m 0,-66.50247 v -10.21121 h 10.21122 v 10.21121 z" />
      <path
         id="path3883"
         style="font-size:106.155px;fill:#808080"
         d="m 421.03307,222.50617 v -82.46722 h 10.21121 v 36.128 c 2.10788,-3.9393 4.72547,-6.89381 7.85279,-8.86354 3.12726,-1.96962 6.78152,-2.95445 10.9628,-2.95451 6.94565,6e-5 12.31906,2.55718 16.12024,7.67137 3.80107,5.11429 5.70163,11.78353 5.70169,20.00776 -6e-5,8.88084 -2.15115,16.29303 -6.45328,22.2366 -4.30223,5.94358 -10.16806,8.91537 -17.59749,8.91537 -2.17705,0 -4.25039,-0.25916 -6.22003,-0.7775 -1.96971,-0.51834 -3.72341,-1.26128 -5.26111,-2.22884 -1.53775,-0.96756 -3.23962,-2.52257 -5.10561,-4.66502 l -1.244,6.99753 z m 10.21121,-14.0469 c 3.49011,3.11002 6.27184,5.06242 8.34521,5.85719 2.07331,0.79479 4.30215,1.19218 6.68653,1.19218 5.01054,0 8.71663,-2.10789 11.1183,-6.3237 2.40157,-4.21578 3.60238,-9.58919 3.60243,-16.12024 -5e-5,-6.08177 -1.06263,-10.90229 -3.18776,-14.46157 -2.12522,-3.55919 -5.41665,-5.33881 -9.8743,-5.33886 -2.8336,5e-5 -5.64125,0.76892 -8.42295,2.3066 -2.78176,1.53777 -5.53758,3.86164 -8.26746,6.97161 z" />
      <path
         id="path3885"
         style="font-size:106.155px;fill:#808080"
         d="m 516.82153,214.73113 c -3.04094,2.79902 -6.03865,4.90692 -8.99313,6.3237 -2.95454,1.41678 -5.84858,2.12517 -8.68212,2.12517 -3.97393,0 -7.67138,-1.31311 -11.09239,-3.93935 -3.42102,-2.62623 -5.13152,-6.46191 -5.13152,-11.50705 0,-5.5289 2.38434,-10.09888 7.15303,-13.70998 4.76868,-3.61104 12.3882,-5.41658 22.85861,-5.41661 h 2.38434 v -6.7902 c -3e-5,-2.6953 -0.36287,-4.65634 -1.0885,-5.88311 -0.72571,-1.22668 -1.85741,-2.1856 -3.3951,-2.87676 -1.53776,-0.69107 -3.44696,-1.03662 -5.72761,-1.03667 -5.28705,5e-5 -11.05785,1.65872 -17.31241,4.97602 v -8.44887 c 6.87657,-2.79896 13.35576,-4.19846 19.43759,-4.19852 3.31731,6e-5 6.36685,0.52703 9.14862,1.58092 2.7817,1.05401 5.0019,2.71268 6.66062,4.97603 1.65862,2.26344 2.48796,5.90043 2.48801,10.91096 v 25.50212 c -5e-5,2.83358 0.22456,4.74278 0.67383,5.72761 0.44918,0.98485 1.07982,1.73643 1.89193,2.25476 0.81201,0.51834 1.75365,0.77751 2.82493,0.7775 0.44917,1e-5 1.10573,-0.0691 1.96968,-0.20733 l 0.72567,5.64986 c -2.31529,1.10578 -4.87241,1.65867 -7.67137,1.65867 -1.86606,0 -3.66295,-0.60472 -5.3907,-1.81417 -1.72782,-1.20945 -2.97183,-3.42101 -3.73201,-6.6347 z m -1.50318,-5.54619 v -14.56523 l -3.26551,-0.10367 c -5.35617,3e-5 -9.8484,1.0367 -13.47673,3.11001 -3.62837,2.07337 -5.44254,4.88966 -5.44253,8.44887 -10e-6,2.45347 0.8898,4.52681 2.66943,6.22003 1.7796,1.69324 3.86158,2.53986 6.24595,2.53985 2.14243,1e-5 4.31943,-0.47513 6.53103,-1.42542 2.21153,-0.95028 4.45765,-2.35842 6.73836,-4.22444 z" />
      <path
         id="path3887"
         style="font-size:106.155px;fill:#808080"
         d="m 546.47029,221.88416 v -81.84521 h 10.21122 v 36.128 c 2.59165,-3.76652 5.60664,-6.67784 9.04496,-8.73395 3.43826,-2.05601 7.00613,-3.08404 10.70363,-3.0841 4.76864,6e-5 8.63888,1.51187 11.61072,4.53544 2.97174,3.02367 4.45763,7.21355 4.45769,12.56964 v 40.43018 h -10.21122 v -37.11283 c -4e-5,-3.90476 -0.3456,-6.47916 -1.03667,-7.72321 -0.69116,-1.24396 -1.65872,-2.20288 -2.90268,-2.87676 -1.24404,-0.67379 -2.57444,-1.01071 -3.99118,-1.01075 -2.52261,4e-5 -5.24387,0.77755 -8.16379,2.33251 -2.91999,1.55505 -6.09047,4.87239 -9.51146,9.95204 v 36.439 z" />
      <path
         id="path3889"
         style="font-size:106.155px;fill:#808080"
         d="m 641.42941,214.73113 c -3.04094,2.79902 -6.03865,4.90692 -8.99313,6.3237 -2.95454,1.41678 -5.84858,2.12517 -8.68212,2.12517 -3.97393,0 -7.67138,-1.31311 -11.09239,-3.93935 -3.42102,-2.62623 -5.13153,-6.46191 -5.13152,-11.50705 -10e-6,-5.5289 2.38434,-10.09888 7.15303,-13.70998 4.76867,-3.61104 12.3882,-5.41658 22.85861,-5.41661 h 2.38434 v -6.7902 c -3e-5,-2.6953 -0.36287,-4.65634 -1.0885,-5.88311 -0.72571,-1.22668 -1.85741,-2.1856 -3.3951,-2.87676 -1.53776,-0.69107 -3.44696,-1.03662 -5.72761,-1.03667 -5.28705,5e-5 -11.05785,1.65872 -17.31241,4.97602 v -8.44887 c 6.87657,-2.79896 13.35576,-4.19846 19.43759,-4.19852 3.31731,6e-5 6.36685,0.52703 9.14862,1.58092 2.7817,1.05401 5.0019,2.71268 6.66062,4.97603 1.65862,2.26344 2.48796,5.90043 2.48801,10.91096 v 25.50212 c -5e-5,2.83358 0.22456,4.74278 0.67383,5.72761 0.44918,0.98485 1.07982,1.73643 1.89193,2.25476 0.81201,0.51834 1.75365,0.77751 2.82493,0.7775 0.44917,1e-5 1.10573,-0.0691 1.96968,-0.20733 l 0.72567,5.64986 c -2.31529,1.10578 -4.87241,1.65867 -7.67137,1.65867 -1.86606,0 -3.66295,-0.60472 -5.3907,-1.81417 -1.72782,-1.20945 -2.97183,-3.42101 -3.73201,-6.6347 z m -1.50318,-5.54619 v -14.56523 l -3.26551,-0.10367 c -5.35617,3e-5 -9.84841,1.0367 -13.47673,3.11001 -3.62837,2.07337 -5.44254,4.88966 -5.44253,8.44887 -10e-6,2.45347 0.8898,4.52681 2.66943,6.22003 1.7796,1.69324 3.86158,2.53986 6.24595,2.53985 2.14243,1e-5 4.31943,-0.47513 6.53103,-1.42542 2.21153,-0.95028 4.45765,-2.35842 6.73836,-4.22444 z" />
      <path
         id="path3891"
         style="font-size:106.155px;fill:#808080"
         d="m 669.00486,219.91449 v -9.38188 c 6.66924,3.31736 12.47459,4.97603 17.41608,4.97603 2.90265,0 5.33019,-0.79478 7.28262,-2.38435 1.95236,-1.58955 2.92856,-3.5765 2.9286,-5.96086 -4e-5,-1.48588 -0.48382,-2.93722 -1.45134,-4.35402 -0.9676,-1.41676 -3.19644,-2.85082 -6.68654,-4.30219 l -5.96086,-2.53984 c -4.59592,-1.90054 -7.94782,-4.1121 -10.05571,-6.6347 -2.10791,-2.48798 -3.16186,-5.54615 -3.16185,-9.17454 -1e-5,-4.52675 1.64139,-8.29332 4.92419,-11.29972 3.28278,-3.00629 8.13785,-4.50946 14.56524,-4.50952 3.14454,6e-5 7.03205,0.432 11.66255,1.29584 l 2.12518,0.41467 v 8.5007 c -5.70173,-1.69318 -10.2458,-2.53979 -13.63223,-2.53984 -3.28282,5e-5 -5.73627,0.70844 -7.36037,2.12517 -1.62414,1.41683 -2.4362,3.09278 -2.43618,5.02786 -2e-5,1.52049 0.55287,2.88544 1.65868,4.09485 1.0712,1.24405 3.00632,2.47077 5.80536,3.68019 l 4.92419,2.07334 c 6.6001,2.79904 10.79862,5.5635 12.59555,8.29337 1.79686,2.72992 2.6953,5.70171 2.69535,8.91538 -5e-5,3.07547 -0.83802,5.92631 -2.51393,8.55254 -1.67599,2.62623 -4.14672,4.6823 -7.4122,6.16819 -3.26555,1.4859 -6.90253,2.22884 -10.91097,2.22884 -4.66504,0 -10.33217,-1.0885 -17.00141,-3.26551 z" />
      <path
         id="path3893"
         style="font-size:106.155px;fill:#808080"
         d="m 754.21926,214.73113 c -3.04094,2.79902 -6.03864,4.90692 -8.99312,6.3237 -2.95454,1.41678 -5.84858,2.12517 -8.68213,2.12517 -3.97392,0 -7.67138,-1.31311 -11.09238,-3.93935 -3.42102,-2.62623 -5.13153,-6.46191 -5.13152,-11.50705 -10e-6,-5.5289 2.38433,-10.09888 7.15303,-13.70998 4.76867,-3.61104 12.3882,-5.41658 22.85861,-5.41661 h 2.38434 v -6.7902 c -4e-5,-2.6953 -0.36287,-4.65634 -1.08851,-5.88311 -0.7257,-1.22668 -1.8574,-2.1856 -3.39509,-2.87676 -1.53777,-0.69107 -3.44697,-1.03662 -5.72761,-1.03667 -5.28705,5e-5 -11.05785,1.65872 -17.31242,4.97602 v -8.44887 c 6.87657,-2.79896 13.35576,-4.19846 19.43759,-4.19852 3.31732,6e-5 6.36686,0.52703 9.14863,1.58092 2.78169,1.05401 5.00189,2.71268 6.66061,4.97603 1.65863,2.26344 2.48797,5.90043 2.48801,10.91096 v 25.50212 c -4e-5,2.83358 0.22457,4.74278 0.67384,5.72761 0.44918,0.98485 1.07982,1.73643 1.89193,2.25476 0.812,0.51834 1.75365,0.77751 2.82493,0.7775 0.44917,1e-5 1.10572,-0.0691 1.96967,-0.20733 l 0.72567,5.64986 c -2.31529,1.10578 -4.87241,1.65867 -7.67137,1.65867 -1.86605,0 -3.66295,-0.60472 -5.39069,-1.81417 -1.72783,-1.20945 -2.97183,-3.42101 -3.73202,-6.6347 z m -1.50317,-5.54619 v -14.56523 l -3.26552,-0.10367 c -5.35616,3e-5 -9.8484,1.0367 -13.47672,3.11001 -3.62837,2.07337 -5.44255,4.88966 -5.44253,8.44887 -2e-5,2.45347 0.88979,4.52681 2.66943,6.22003 1.7796,1.69324 3.86158,2.53986 6.24594,2.53985 2.14243,1e-5 4.31944,-0.47513 6.53103,-1.42542 2.21154,-0.95028 4.45766,-2.35842 6.73837,-4.22444 z" />
    </g>
  </g>
</svg>
