<?xml version="1.0" encoding="UTF-8" standalone="no"?>
<svg
   xmlns:dc="http://purl.org/dc/elements/1.1/"
   xmlns:cc="http://creativecommons.org/ns#"
   xmlns:rdf="http://www.w3.org/1999/02/22-rdf-syntax-ns#"
   xmlns:svg="http://www.w3.org/2000/svg"
   xmlns="http://www.w3.org/2000/svg"
   xmlns:xlink="http://www.w3.org/1999/xlink"
   id="svg2047"
   height="43.797386"
   width="344.07901"
   version="1.0">
  <metadata
     id="metadata62">
    <rdf:RDF>
      <cc:Work
         rdf:about="">
        <dc:format>image/svg+xml</dc:format>
        <dc:type
           rdf:resource="http://purl.org/dc/dcmitype/StillImage" />
      </cc:Work>
    </rdf:RDF>
  </metadata>
  <defs
     id="defs3">
    <linearGradient
       id="linearGradient3525">
      <stop
         offset="0"
         style="stop-color:#000066;stop-opacity:1"
         id="stop3527" />
      <stop
         offset="1"
         style="stop-color:#00004f;stop-opacity:1"
         id="stop3529" />
    </linearGradient>
    <linearGradient
       id="linearGradient3446">
      <stop
         offset="0"
         style="stop-color:#f4e3ca;stop-opacity:1"
         id="stop3448" />
      <stop
         offset="1"
         style="stop-color:#e9cc9d;stop-opacity:1"
         id="stop3450" />
    </linearGradient>
    <linearGradient
       id="linearGradient2917">
      <stop
         offset="0"
         style="stop-color:#d40000;stop-opacity:1"
         id="stop2919" />
      <stop
         offset="1"
         style="stop-color:#570000;stop-opacity:1"
         id="stop2921" />
    </linearGradient>
    <linearGradient
       gradientTransform="matrix(0.485989,0.460262,-0.482828,0.469608,235.2216,-80.23556)"
       gradientUnits="userSpaceOnUse"
       xlink:href="#linearGradient3525"
       id="linearGradient3071"
       y2="86.036026"
       x2="270.37161"
       y1="184.23257"
       x1="366.08591" />
    <linearGradient
       gradientTransform="matrix(0.620715,0.136186,-0.132947,0.605953,365.14,10.09319)"
       gradientUnits="userSpaceOnUse"
       xlink:href="#linearGradient3525"
       id="linearGradient3101"
       y2="255.5688"
       x2="95.290253"
       y1="365.66113"
       x1="196.08591" />
    <linearGradient
       gradientTransform="matrix(0.620931,0.304009,-0.292008,0.644049,194.0425,-60.61792)"
       gradientUnits="userSpaceOnUse"
       xlink:href="#linearGradient2917"
       id="linearGradient3103"
       y2="259.17615"
       x2="283.22876"
       y1="344.23257"
       x1="370.37161" />
    <linearGradient
       gradientTransform="matrix(0.492397,0.571556,-0.503799,0.505374,233.6223,-190.7188)"
       gradientUnits="userSpaceOnUse"
       xlink:href="#linearGradient3525"
       id="linearGradient3117"
       y2="434.30499"
       x2="439.24854"
       y1="521.37543"
       x1="536.08594" />
    <linearGradient
       gradientTransform="matrix(0.660096,0.05941423,-0.06000381,0.653611,-116.4365,105.7272)"
       gradientUnits="userSpaceOnUse"
       xlink:href="#linearGradient3525"
       id="linearGradient3125"
       y2="89.025398"
       x2="454.65735"
       y1="185.66115"
       x1="533.22876" />
    <linearGradient
       gradientTransform="translate(-476.4724,-112.8383)"
       gradientUnits="userSpaceOnUse"
       xlink:href="#linearGradient3446"
       id="linearGradient3452"
       y2="230.34946"
       x2="650.84174"
       y1="299.56409"
       x1="715.71844" />
    <linearGradient
       gradientTransform="translate(-419.3421,258.595)"
       gradientUnits="userSpaceOnUse"
       xlink:href="#linearGradient3446"
       id="linearGradient3460"
       y2="-358.38074"
       x2="723.2616"
       y1="-355.92725"
       x1="791.06329" />
    <linearGradient
       gradientTransform="translate(-137.3612,-469.7778)"
       gradientUnits="userSpaceOnUse"
       xlink:href="#linearGradient3446"
       id="linearGradient3474"
       y2="880.65918"
       x2="218.35574"
       y1="955.26855"
       x1="175.47467" />
    <linearGradient
       gradientTransform="translate(-490.353,22.1016)"
       gradientUnits="userSpaceOnUse"
       xlink:href="#linearGradient3446"
       id="linearGradient3482"
       y2="145.09717"
       x2="693.67474"
       y1="200.78854"
       x1="758.90216" />
    <linearGradient
       gradientTransform="translate(-450.4099,198.7519)"
       gradientUnits="userSpaceOnUse"
       xlink:href="#linearGradient3446"
       id="linearGradient3490"
       y2="-169.7764"
       x2="795.29053"
       y1="-140.09358"
       x1="870.85938" />
    <linearGradient
       gradientTransform="translate(-490.3612,21.8953)"
       gradientUnits="userSpaceOnUse"
       xlink:href="#linearGradient3446"
       id="linearGradient3498"
       y2="103.7599"
       x2="901.40399"
       y1="159.7126"
       x1="965.19623" />
    <linearGradient
       gradientTransform="translate(-379.7777,-307.2103)"
       gradientUnits="userSpaceOnUse"
       xlink:href="#linearGradient3446"
       id="linearGradient3506"
       y2="683.20331"
       x2="388.38828"
       y1="743.88672"
       x1="412.31854" />
    <linearGradient
       gradientTransform="translate(-476.4724,-112.8383)"
       gradientUnits="userSpaceOnUse"
       xlink:href="#linearGradient3446"
       id="linearGradient3514"
       y2="450.75146"
       x2="741.84326"
       y1="514.12738"
       x1="805.99457" />
    <linearGradient
       gradientTransform="translate(-489.4263,-30.47642)"
       gradientUnits="userSpaceOnUse"
       xlink:href="#linearGradient3446"
       id="linearGradient3522"
       y2="305.17203"
       x2="909.49103"
       y1="357.18353"
       x1="974.9718" />
    <linearGradient
       gradientTransform="matrix(0.868057,-0.04019387,0.04019387,0.868057,-383.372,26.04062)"
       gradientUnits="userSpaceOnUse"
       xlink:href="#linearGradient3525"
       id="linearGradient3531"
       y2="414.23257"
       x2="947.51447"
       y1="359.94687"
       x1="904.65735" />
    <linearGradient
       gradientTransform="matrix(0.279104,0,0,0.294448,61.36618,240.5454)"
       gradientUnits="userSpaceOnUse"
       xlink:href="#linearGradient3525"
       id="linearGradient3106"
       y2="230.67667"
       x2="897.16919"
       y1="429.67673"
       x1="1090.1083" />
    <linearGradient
       gradientTransform="matrix(0.110956,-0.03855391,0.03807676,0.115717,257.0759,100.5169)"
       gradientUnits="userSpaceOnUse"
       xlink:href="#linearGradient3525"
       id="linearGradient4929"
       y2="-144.08994"
       x2="-514.01392"
       y1="284.21475"
       x1="-190.76511" />
    <linearGradient
       gradientTransform="matrix(5.542162,3.319805,-4.164453,6.008209,1822.086,-2110.395)"
       gradientUnits="userSpaceOnUse"
       xlink:href="#linearGradient3525"
       id="linearGradient2865"
       y2="357.17325"
       x2="14.581494"
       y1="365.39426"
       x1="24.404194" />
  </defs>
  <path
     style="font-style:normal;font-variant:normal;font-weight:normal;font-stretch:normal;font-size:40px;font-family:'Nimbus Sans L';-inkscape-font-specification:'Nimbus Sans L';fill:#808080;fill-opacity:1;stroke:none;stroke-width:1.10847px;stroke-linecap:butt;stroke-linejoin:miter;stroke-opacity:1"
     id="text2441"
     d="M 0,34.726146 0.25979665,33.383872 0.69279106,33.362257 2.1649721,33.25396 C 3.0020909,33.196209 3.557767,33.059114 3.8320014,32.842619 4.1062258,32.611682 4.3515892,32.084872 4.5680913,31.26218 L 5.1309846,29.118862 9.287731,8.2918333 9.5908265,6.1485041 C 9.6918521,5.3258451 9.6557605,4.7990357 9.4825738,4.5680758 9.309366,4.3371824 8.8114222,4.1928491 7.9887433,4.135087 L 6.5382118,4.0485158 6.1485162,4.0051748 6.4083129,2.6845377 H 16.670281 l 1.796927,-0.021615 1.580429,-0.064956 1.55878,-0.021615 c 5.022708,3.33e-5 8.602125,1.3278754 10.738262,3.9835486 2.150503,2.6557176 2.727829,6.4732847 1.731977,11.4527007 -1.024787,5.167079 -3.218623,9.244438 -6.581515,12.232096 -3.348515,2.987659 -7.397009,4.481483 -12.145493,4.481483 H 0 M 14.678511,4.1351313 9.6774254,29.118906 9.4176288,30.807587 c -0.1876411,0.923718 0.050502,1.565996 0.7144402,1.926824 0.663914,0.346395 1.948463,0.519593 3.853651,0.519593 8.169138,0 13.220735,-4.856753 15.154805,-14.57026 C 30.165247,13.545562 29.811635,9.8362475 28.079688,7.5557899 26.362116,5.2753767 23.035279,4.1351645 18.099167,4.1351313 H 14.678511 M 54.535647,33.665345 c -2.929948,1.068062 -5.513479,1.602087 -7.7506,1.602087 -3.449533,0 -6.025847,-1.161871 -7.728951,-3.485614 -1.688682,-2.323721 -2.157759,-5.340255 -1.407231,-9.049581 0.707218,-3.536105 2.251564,-6.422727 4.63304,-8.659888 2.381458,-2.251549 5.087669,-3.377329 8.118645,-3.377351 2.814444,2.2e-5 4.784567,0.945388 5.910374,2.836109 1.125761,1.890766 1.335042,4.589758 0.627842,8.096999 l -0.0866,0.41134 h -14.35376 c -1.472189,7.375343 0.324736,11.063009 5.39078,11.063009 2.641249,0 5.001066,-0.541242 7.079459,-1.623725 l -0.432994,2.186615 m -11.6692,-12.968218 h 9.742375 l 0.194847,-0.952582 c 1.039166,-5.152614 0.05772,-7.728932 -2.944362,-7.728954 -1.616528,2.2e-5 -3.059841,0.786634 -4.329944,2.359824 -1.255694,1.573234 -2.143333,3.680471 -2.662916,6.321712 m 26.585857,-5.066031 c 2.828882,-3.290736 5.989737,-4.936109 9.482578,-4.936131 2.020617,2.2e-5 3.471146,0.663949 4.351594,1.991769 0.880394,1.327875 1.089675,3.153662 0.627841,5.477383 L 81.7277,29.118873 81.446254,31.262191 c -0.11549,0.822692 -0.08663,1.349502 0.0866,1.580439 0.187606,0.216495 0.692766,0.353612 1.51548,0.411341 l 1.450532,0.108297 0.368045,0.02161 -0.259797,1.342275 H 72.331718 l 0.259796,-1.342275 0.411344,-0.02161 1.493832,-0.108297 c 0.82267,-0.05775 1.371129,-0.194846 1.645379,-0.411341 0.288642,-0.230937 0.541222,-0.757747 0.757739,-1.580439 l 0.562893,-2.143318 2.056724,-10.283613 c 0.404104,-2.020622 0.418538,-3.420637 0.0433,-4.200054 -0.360851,-0.793795 -1.212407,-1.190703 -2.554667,-1.190725 -1.934061,2.2e-5 -4.546457,1.205179 -7.837199,3.615493 l -2.40312,12.058899 c -0.346405,1.703113 -0.44022,2.807256 -0.281446,3.312406 0.158755,0.490729 0.692781,0.764963 1.60208,0.822692 l 1.450531,0.108297 0.389695,0.02161 -0.259796,1.342275 H 57.371758 l 0.259797,-1.342275 0.432994,-0.02161 1.472181,-0.108297 c 0.837119,-0.05775 1.392794,-0.194846 1.667028,-0.411341 0.274226,-0.230937 0.519588,-0.757747 0.736092,-1.580439 l 0.562892,-2.143318 2.446418,-12.297041 0.303097,-2.12167 c 0.101025,-0.82267 0.06494,-1.34948 -0.108253,-1.580428 -0.173207,-0.230916 -0.67115,-0.375238 -1.493832,-0.433 l -1.428881,-0.108298 -0.411345,-0.02162 0.259797,-1.342274 h 8.270194 l -0.88764,4.416537 m 38.363303,-2.53301 h -3.46395 l 0.36804,-1.883527 h 3.46396 l 0.23814,-1.125791 c 0.70722,-3.5649587 1.7897,-6.1340497 3.24746,-7.707295 1.47217,-1.58761112 3.50002,-2.381438830686 6.08357,-2.381472084657 2.02062,3.3253971e-5 3.8392,0.534058774657 5.45573,1.602076584657 l -1.01753,5.0876913 h -2.68457 l 0.0649,-0.4113517 c 0.12987,-0.8659555 0.23812,-1.5370983 0.32474,-2.013417 0.38967,-1.9195855 -0.46188,-2.8793838 -2.55466,-2.8794171 -1.14024,3.33e-5 -1.99901,0.4185899 -2.57632,1.2556811 -0.56291,0.8371576 -1.08972,2.4608825 -1.58043,4.8711857 l -0.73609,3.7021092 h 5.88872 l -0.34639,1.753626 h -5.88873 l -3.2258,16.150689 c -0.34641,1.703113 -0.43301,2.807256 -0.2598,3.312406 0.18762,0.490729 0.77216,0.764963 1.75363,0.822692 l 1.53713,0.108297 0.64949,0.02161 -0.2598,1.342274 H 99.480456 l 0.259796,-1.342274 0.432998,-0.02161 1.47218,-0.108297 c 0.83712,-0.05775 1.39279,-0.194846 1.66703,-0.411341 0.27422,-0.230937 0.51958,-0.757747 0.73609,-1.580439 l 0.56289,-2.143318 3.20416,-16.020788 m 20.74043,4.52479 -2.29487,11.495998 c -0.34641,1.703113 -0.44022,2.807256 -0.28145,3.312406 0.15876,0.490729 0.69279,0.764963 1.60208,0.822692 l 1.45053,0.108297 0.90929,0.02161 -0.25979,1.342274 h -12.81664 l 0.2598,-1.342274 0.43299,-0.02161 1.47218,-0.108297 c 0.83712,-0.05775 1.3928,-0.194846 1.66703,-0.411341 0.27423,-0.230937 0.51959,-0.757747 0.73609,-1.580439 l 0.5629,-2.143318 2.44641,-12.297041 0.3031,-2.12167 c 0.10103,-0.82267 0.065,-1.34948 -0.10825,-1.580429 -0.17321,-0.230915 -0.67115,-0.375237 -1.49383,-0.433 l -1.42889,-0.108297 -0.41134,-0.02161 0.2598,-1.342274 h 8.27019 l -0.88764,4.416537 c 2.61239,-3.290735 5.49179,-4.936108 8.63824,-4.93613 0.43297,2.2e-5 0.90204,0.07937 1.40723,0.238142 l -1.29898,6.429966 h -2.40312 l 0.0433,-0.389692 0.1299,-1.623725 c 0.0866,-0.764941 -0.22373,-1.147417 -0.93093,-1.147439 -2.15056,2.2e-5 -4.14233,1.140234 -5.97533,3.420658 m 20.76208,-6.408317 -3.57221,17.904315 c -0.34639,1.703113 -0.44021,2.807256 -0.28144,3.312406 0.15876,0.490729 0.69278,0.764963 1.60208,0.822692 l 1.45053,0.108297 0.3897,0.02162 -0.2598,1.342274 h -12.29704 l 0.2598,-1.342274 0.43299,-0.02162 1.47219,-0.108297 c 0.83711,-0.05775 1.39278,-0.194846 1.66702,-0.411341 0.27422,-0.230937 0.51959,-0.757747 0.7361,-1.580439 l 0.56289,-2.143318 2.44641,-12.297042 0.3031,-2.121669 c 0.10098,-0.82267 0.065,-1.34948 -0.1083,-1.580429 -0.1732,-0.230915 -0.67115,-0.375237 -1.49383,-0.433 l -1.42888,-0.108297 -0.41134,-0.02162 0.25979,-1.342274 h 8.2702 m -3.39901,-4.2649993 0.84434,-4.2649991 h 4.265 l -0.84434,4.2649991 h -4.265 M 170.5781,33.665273 c -2.92996,1.068062 -5.51348,1.602088 -7.75061,1.602088 -3.44953,0 -6.02584,-1.161872 -7.72895,-3.485615 -1.68868,-2.323721 -2.15775,-5.340255 -1.40723,-9.04958 0.70722,-3.536106 2.25157,-6.422728 4.63304,-8.659889 2.38146,-2.251548 5.08767,-3.377328 8.11865,-3.37735 2.81444,2.2e-5 4.78457,0.945388 5.91037,2.836109 1.12576,1.890765 1.33505,4.589757 0.62785,8.096998 l -0.0866,0.411341 H 158.5409 c -1.47218,7.375342 0.32474,11.063008 5.39078,11.063008 2.64125,0 5.00108,-0.541241 7.07946,-1.623725 l -0.43299,2.186615 m -11.6692,-12.968151 h 9.74238 l 0.19484,-0.952582 c 1.03917,-5.152614 0.0578,-7.728932 -2.94436,-7.728954 -1.61653,2.2e-5 -3.05984,0.786634 -4.32994,2.359824 -1.25569,1.573234 -2.14333,3.680471 -2.66292,6.321712 m 40.31178,14.570272 c -3.3918,0 -5.86708,-1.104143 -7.42586,-3.312417 -1.54435,-2.222695 -1.93404,-5.21757 -1.16907,-8.984624 0.7505,-3.795908 2.34537,-6.790783 4.78458,-8.984636 2.45362,-2.19382 5.41241,-3.290735 8.87638,-3.290757 3.46393,2.2e-5 5.97531,1.096937 7.53411,3.290757 1.57319,2.193853 1.98453,5.174296 1.23403,8.941328 -0.76498,3.853659 -2.37428,6.877398 -4.82789,9.07124 -2.45365,2.179399 -5.45574,3.269109 -9.00628,3.269109 m 0.32475,-1.342285 c 1.97732,0 3.81034,-1.031971 5.49903,-3.095912 1.68866,-2.06393 2.85052,-4.697977 3.4856,-7.902152 0.6206,-3.103105 0.49792,-5.693856 -0.36804,-7.772251 -0.85158,-2.092783 -2.22995,-3.139186 -4.1351,-3.139208 -1.9052,2.2e-5 -3.70212,1.046425 -5.39078,3.139208 -1.68869,2.078395 -2.84334,4.683578 -3.46396,7.815559 -0.63507,3.11756 -0.53403,5.722742 0.3031,7.815548 0.83711,2.092805 2.19382,3.139208 4.07015,3.139208 m 25.82811,-16.302239 -2.29487,11.495998 c -0.3464,1.703113 -0.44021,2.807256 -0.28145,3.312406 0.15876,0.490729 0.69278,0.764963 1.60209,0.822692 l 1.45053,0.108297 0.90928,0.02161 -0.25979,1.342275 h -12.81663 l 0.25979,-1.342275 0.433,-0.02161 1.47217,-0.108297 c 0.83713,-0.05775 1.3928,-0.194846 1.66704,-0.411341 0.27422,-0.230937 0.51958,-0.757747 0.73608,-1.580439 l 0.56289,-2.143318 2.44642,-12.297041 0.3031,-2.12167 c 0.10098,-0.82267 0.065,-1.34948 -0.10819,-1.580428 -0.17321,-0.230916 -0.67115,-0.375238 -1.49383,-0.433 l -1.42888,-0.108298 -0.41135,-0.02162 0.2598,-1.342274 h 8.2702 l -0.88765,4.416537 c 2.61239,-3.290735 5.49179,-4.936108 8.63824,-4.93613 0.43298,2.2e-5 0.90205,0.07937 1.40723,0.238142 l -1.29898,6.429966 h -2.40312 l 0.0433,-0.389692 0.1299,-1.623725 c 0.0866,-0.764941 -0.22373,-1.147417 -0.93093,-1.147439 -2.15056,2.2e-5 -4.14234,1.140234 -5.97533,3.420658 m 26.34771,17.103271 0.88764,-4.416537 c -2.75675,3.30519 -5.83823,4.95779 -9.24443,4.95779 -2.65571,0 -4.56088,-1.046403 -5.71553,-3.139219 -1.15465,-2.107227 -1.37836,-4.928904 -0.67114,-8.465031 0.79382,-3.925809 2.32373,-7.065017 4.58975,-9.417636 2.28042,-2.367006 4.91447,-3.550526 7.90214,-3.550548 2.74228,2.2e-5 4.87838,1.068073 6.40832,3.204153 l 1.55878,-7.7506029 c 0.34637,-1.70308 0.44019,-2.7999955 0.28145,-3.2907576 -0.15879,-0.5051278 -0.6856,-0.7865673 -1.58043,-0.8443294 L 254.68737,1.90511 254.27603,1.883495 254.55748,0.54120956 h 8.29184 L 257.13384,29.118851 c -0.34643,1.703113 -0.44746,2.807256 -0.3031,3.312406 0.15874,0.490729 0.69998,0.764963 1.62372,0.822692 l 1.42888,0.108297 0.38971,0.02162 -0.25981,1.342274 h -8.29184 m 3.832,-19.159996 c -1.89076,-1.659794 -3.88975,-2.489702 -5.99697,-2.489724 -3.95469,2.2e-5 -6.55988,3.13923 -7.81554,9.417635 -1.32787,6.66812 -0.0722,10.002174 3.76704,10.002174 1.18351,0 2.47527,-0.346396 3.87531,-1.039187 1.41442,-0.707223 2.59072,-1.587644 3.5289,-2.641274 l 2.64126,-13.249624 m 8.72484,19.419799 5.75883,-28.8374339 0.30309,-2.1433182 c 0.10099,-0.8226589 0.0578,-1.3422522 -0.1299,-1.5587799 -0.17321,-0.2308934 -0.67115,-0.3752268 -1.49383,-0.4329889 L 267.28755,1.905125 266.87621,1.88351 267.15765,0.54122456 h 8.27019 L 272.39689,15.631073 c 2.78557,-3.290735 5.87427,-4.936108 9.26607,-4.93613 2.65568,2.2e-5 4.56085,1.046425 5.71553,3.139208 1.15462,2.092827 1.37834,4.907288 0.67114,8.443394 -0.77941,3.925819 -2.30933,7.072244 -4.58973,9.439272 -2.28046,2.36704 -4.91451,3.55056 -7.90215,3.55056 -2.75675,0 -4.90007,-1.068062 -6.42997,-3.204164 h -0.2598 l -1.12578,2.922713 h -3.46396 m 5.17429,-4.611394 c 1.93403,1.674249 3.94023,2.511373 6.01861,2.511373 3.94024,0 6.5382,-3.146424 7.7939,-9.439284 1.34226,-6.668097 0.10098,-10.00214 -3.72375,-10.002162 -2.56911,2.2e-5 -5.04439,1.226827 -7.42585,3.680449 l -2.66291,13.249624 m 31.60858,4.892845 c -3.39179,0 -5.86707,-1.104143 -7.42585,-3.312417 -1.54435,-2.222695 -1.93404,-5.21757 -1.16908,-8.984624 0.75051,-3.795908 2.34537,-6.790783 4.78458,-8.984636 2.45363,-2.19382 5.41242,-3.290735 8.87639,-3.290757 3.46393,2.2e-5 5.9753,1.096937 7.5341,3.290757 1.57319,2.193853 1.98453,5.174296 1.23404,8.941328 -0.76499,3.853658 -2.37428,6.877398 -4.82789,9.07124 -2.45366,2.179399 -5.45575,3.269109 -9.00629,3.269109 m 0.32475,-1.342285 c 1.97733,0 3.81034,-1.031971 5.49903,-3.095912 1.68866,-2.06393 2.85052,-4.697977 3.48561,-7.902152 0.62059,-3.103105 0.49792,-5.693856 -0.36805,-7.772251 -0.85158,-2.092783 -2.22994,-3.139186 -4.1351,-3.139208 -1.90519,2.2e-5 -3.70212,1.046425 -5.39077,3.139208 -1.6887,2.078395 -2.84334,4.683578 -3.46396,7.815559 -0.63507,3.117559 -0.53404,5.722742 0.3031,7.815547 0.8371,2.092806 2.19382,3.139209 4.07014,3.139209 m 19.63629,-0.108298 c -1.47217,-0.750519 -2.07837,-1.775274 -1.81857,-3.074263 0.28866,-1.472175 1.94126,-2.893838 4.95779,-4.264988 -2.90107,-1.414435 -3.99077,-3.918592 -3.26911,-7.51246 0.49072,-2.51134 1.68867,-4.517552 3.59385,-6.018614 1.9196,-1.501029 4.22891,-2.251549 6.92791,-2.251571 1.63093,2.2e-5 3.05981,0.303121 4.28665,0.909286 l 8.37845,-0.649495 -1.60209,2.597967 -5.47737,-0.909286 c 1.48658,1.775297 1.99174,3.868102 1.51547,6.278417 -0.47631,2.410347 -1.68869,4.402127 -3.63715,5.975328 -1.93406,1.573223 -4.15676,2.359824 -6.66811,2.359813 -0.95261,1.1e-5 -1.93405,-0.151539 -2.94437,-0.454638 -1.18353,0.793828 -1.8691,1.674249 -2.05672,2.641264 -0.20207,1.024754 0.59897,1.537131 2.40312,1.537131 h 3.74541 c 3.60826,0 6.00416,0.382476 7.1877,1.147428 1.19793,0.764964 1.59484,2.172194 1.19073,4.221703 -0.44745,2.237128 -1.83303,4.034061 -4.15674,5.390779 -2.32376,1.371139 -5.15987,2.056714 -8.50834,2.056725 -3.24747,-1.1e-5 -5.75884,-0.461876 -7.53411,-1.385582 -1.77527,-0.909297 -2.51136,-2.121681 -2.20826,-3.637153 0.38969,-1.948484 2.28765,-3.601073 5.69386,-4.957791 m 4.17841,-15.111502 c -0.96704,4.806252 0.0722,7.209361 3.11756,7.209361 3.0165,0 5.00106,-2.352596 5.95367,-7.057811 0.90926,-4.56086 -0.13714,-6.841296 -3.13921,-6.841318 -3.05984,2.2e-5 -5.03718,2.229945 -5.93202,6.689768 M 322.083,34.184838 c -1.27012,1.039187 -2.06395,2.33096 -2.38147,3.875307 -0.59177,2.973216 1.32062,4.459834 5.73717,4.459834 2.10723,0 3.87529,-0.461864 5.30419,-1.385582 1.44329,-0.923717 2.31649,-2.172182 2.61961,-3.745394 0.43297,-2.136114 -0.85879,-3.204165 -3.8753,-3.204165 h -7.4042" />
</svg>
