<?xml version="1.0" encoding="UTF-8" standalone="no"?>
<svg
   xmlns:dc="http://purl.org/dc/elements/1.1/"
   xmlns:cc="http://creativecommons.org/ns#"
   xmlns:rdf="http://www.w3.org/1999/02/22-rdf-syntax-ns#"
   xmlns:svg="http://www.w3.org/2000/svg"
   xmlns="http://www.w3.org/2000/svg"
   xmlns:xlink="http://www.w3.org/1999/xlink"
   id="svg2047"
   height="35.8125"
   width="337.78125"
   version="1.0">
  <metadata
     id="metadata108">
    <rdf:RDF>
      <cc:Work
         rdf:about="">
        <dc:format>image/svg+xml</dc:format>
        <dc:type
           rdf:resource="http://purl.org/dc/dcmitype/StillImage" />
      </cc:Work>
    </rdf:RDF>
  </metadata>
  <defs
     id="defs3">
    <linearGradient
       id="linearGradient3525">
      <stop
         offset="0"
         style="stop-color:#000066;stop-opacity:1"
         id="stop3527" />
      <stop
         offset="1"
         style="stop-color:#00004f;stop-opacity:1"
         id="stop3529" />
    </linearGradient>
    <linearGradient
       id="linearGradient3446">
      <stop
         offset="0"
         style="stop-color:#f4e3ca;stop-opacity:1"
         id="stop3448" />
      <stop
         offset="1"
         style="stop-color:#e9cc9d;stop-opacity:1"
         id="stop3450" />
    </linearGradient>
    <linearGradient
       id="linearGradient2917">
      <stop
         offset="0"
         style="stop-color:#d40000;stop-opacity:1"
         id="stop2919" />
      <stop
         offset="1"
         style="stop-color:#570000;stop-opacity:1"
         id="stop2921" />
    </linearGradient>
    <linearGradient
       gradientTransform="matrix(5.542162,3.319805,-4.164453,6.008209,1693.6429,-2171.2704)"
       gradientUnits="userSpaceOnUse"
       xlink:href="#linearGradient3525"
       id="linearGradient2249"
       y2="357.17325"
       x2="14.581494"
       y1="365.39426"
       x1="24.404194" />
    <linearGradient
       gradientTransform="matrix(0.110956,-0.03855391,0.03807676,0.115717,128.6328,39.64147)"
       gradientUnits="userSpaceOnUse"
       xlink:href="#linearGradient3525"
       id="linearGradient2252"
       y2="-144.08994"
       x2="-514.01392"
       y1="284.21475"
       x1="-190.76511" />
    <linearGradient
       gradientTransform="matrix(0.279104,0,0,0.294448,-67.07692,179.66997)"
       gradientUnits="userSpaceOnUse"
       xlink:href="#linearGradient3525"
       id="linearGradient2255"
       y2="230.67667"
       x2="897.16919"
       y1="429.67673"
       x1="1090.1083" />
    <linearGradient
       gradientTransform="matrix(0.660096,0.05941423,-0.06000381,0.653611,-244.8796,44.85177)"
       gradientUnits="userSpaceOnUse"
       xlink:href="#linearGradient3525"
       id="linearGradient2258"
       y2="89.025398"
       x2="454.65735"
       y1="185.66115"
       x1="533.22876" />
    <linearGradient
       gradientTransform="matrix(0.620715,0.136186,-0.132947,0.605953,236.6969,-50.78224)"
       gradientUnits="userSpaceOnUse"
       xlink:href="#linearGradient3525"
       id="linearGradient2261"
       y2="255.5688"
       x2="95.290253"
       y1="365.66113"
       x1="196.08591" />
    <linearGradient
       gradientTransform="matrix(0.620931,0.304009,-0.292008,0.644049,65.5994,-121.49335)"
       gradientUnits="userSpaceOnUse"
       xlink:href="#linearGradient2917"
       id="linearGradient2264"
       y2="259.17615"
       x2="283.22876"
       y1="344.23257"
       x1="370.37161" />
    <linearGradient
       gradientTransform="matrix(0.485989,0.460262,-0.482828,0.469608,106.7785,-141.11099)"
       gradientUnits="userSpaceOnUse"
       xlink:href="#linearGradient3525"
       id="linearGradient2267"
       y2="86.036026"
       x2="270.37161"
       y1="184.23257"
       x1="366.08591" />
    <linearGradient
       gradientTransform="matrix(0.492397,0.571556,-0.503799,0.505374,105.1792,-251.59423)"
       gradientUnits="userSpaceOnUse"
       xlink:href="#linearGradient3525"
       id="linearGradient2270"
       y2="434.30499"
       x2="439.24854"
       y1="521.37543"
       x1="536.08594" />
    <linearGradient
       gradientTransform="matrix(0.868057,-0.04019387,0.04019387,0.868057,-511.8151,-34.83481)"
       gradientUnits="userSpaceOnUse"
       xlink:href="#linearGradient3525"
       id="linearGradient2273"
       y2="414.23257"
       x2="947.51447"
       y1="359.94687"
       x1="904.65735" />
    <linearGradient
       gradientTransform="translate(-620.66872,-83.870941)"
       gradientUnits="userSpaceOnUse"
       xlink:href="#linearGradient3446"
       id="linearGradient2276"
       y2="305.17203"
       x2="909.49103"
       y1="357.18353"
       x1="974.9718" />
    <linearGradient
       gradientTransform="translate(-596.59479,-187.73737)"
       gradientUnits="userSpaceOnUse"
       xlink:href="#linearGradient3446"
       id="linearGradient2279"
       y2="450.75146"
       x2="741.84326"
       y1="514.12738"
       x1="805.99457" />
    <linearGradient
       gradientTransform="translate(-455.5473,-426.78058)"
       gradientUnits="userSpaceOnUse"
       xlink:href="#linearGradient3446"
       id="linearGradient2282"
       y2="683.20331"
       x2="388.38828"
       y1="743.88672"
       x1="412.31854" />
    <linearGradient
       gradientTransform="translate(-626.6748,-17.153811)"
       gradientUnits="userSpaceOnUse"
       xlink:href="#linearGradient3446"
       id="linearGradient2285"
       y2="103.7599"
       x2="901.40399"
       y1="159.7126"
       x1="965.19623" />
    <linearGradient
       gradientTransform="translate(-592.04139,212.11021)"
       gradientUnits="userSpaceOnUse"
       xlink:href="#linearGradient3446"
       id="linearGradient2288"
       y2="-169.7764"
       x2="795.29053"
       y1="-140.09358"
       x1="870.85938" />
    <linearGradient
       gradientTransform="translate(-626.6835,-16.890005)"
       gradientUnits="userSpaceOnUse"
       xlink:href="#linearGradient3446"
       id="linearGradient2291"
       y2="145.09717"
       x2="693.67474"
       y1="200.78854"
       x1="758.90216" />
    <linearGradient
       gradientTransform="translate(-131.79167,-611.85816)"
       gradientUnits="userSpaceOnUse"
       xlink:href="#linearGradient3446"
       id="linearGradient2294"
       y2="880.65918"
       x2="218.35574"
       y1="955.26855"
       x1="175.47467" />
    <linearGradient
       gradientTransform="translate(-557.96613,291.29999)"
       gradientUnits="userSpaceOnUse"
       xlink:href="#linearGradient3446"
       id="linearGradient2297"
       y2="-358.38074"
       x2="723.2616"
       y1="-355.92725"
       x1="791.06329" />
    <linearGradient
       gradientTransform="translate(-596.59479,-187.73737)"
       gradientUnits="userSpaceOnUse"
       xlink:href="#linearGradient3446"
       id="linearGradient2300"
       y2="230.34946"
       x2="650.84174"
       y1="299.56409"
       x1="715.71844" />
  </defs>
  <path
     style="font-style:italic;font-weight:normal;font-size:41.9136px;font-family:'Lucida Bright';display:inline;fill:#808080;fill-opacity:1;stroke:none;stroke-width:1px;stroke-linecap:butt;stroke-linejoin:miter;stroke-opacity:1"
     id="text2382"
     d="M 17.625,0 17.40625,1.375 17.75,1.4062 c 1.33793,0.10424 2.112417,0.20831 2.34375,0.3125 0.231317,0.10424 0.343741,0.39866 0.34375,0.875 -9e-6,0.90815 -0.112443,1.96678 -0.3125,3.1875 L 15.21875,35.24995 H 22.375 l 0.25,-1.375 -0.34375,-0.0312 c -1.337946,-0.10421 -2.143683,-0.20829 -2.375,-0.3125 -0.231334,-0.10421 -0.343758,-0.39861 -0.34375,-0.875 -8e-6,-0.90812 0.112426,-1.96673 0.3125,-3.1875 L 24.8125,0 Z m 35.21875,0 -0.25,1.375 0.34375,0.0312 c 1.325413,0.10424 2.106154,0.20831 2.34375,0.3125 0.237557,0.10424 0.374979,0.39866 0.375,0.875 -2.1e-5,0.90815 -0.131201,1.96678 -0.34375,3.1875 l -0.84375,5.21875 C 52.943233,10.64268 51.812709,10.46873 51.125,10.4687 c -3.3261,2e-5 -6.417826,2.08903 -9.28125,6.25 -2.86344,4.161 -4.281257,8.66165 -4.28125,13.5 -3e-6,1.86091 0.331029,3.24959 1,4.1875 0.668964,0.9379 1.662056,1.40625 3,1.40625 1.65053,0 3.430612,-0.97984 5.34375,-2.9375 1.913111,-1.95767 3.668229,-4.56707 5.21875,-7.8125 l -1.71875,10.1875 h 7.15625 l 0.25,-1.375 -0.34375,-0.0312 c -1.325454,-0.10421 -2.106196,-0.20829 -2.34375,-0.3125 -0.237598,-0.10421 -0.37502,-0.39861 -0.375,-0.875 -2e-5,-0.90812 0.131159,-1.96673 0.34375,-3.1875 L 60,0 Z m 185.4375,0 -0.25,1.375 0.34375,0.0312 c 1.33793,0.10424 2.14368,0.20831 2.375,0.3125 0.23132,0.10424 0.34373,0.39866 0.34375,0.875 -1e-5,0.90815 -0.11244,1.96678 -0.3125,3.1875 l -4.9375,29.46875 h 7.1875 l 0.21875,-1.375 -0.34375,-0.0312 c -1.33795,-0.10421 -2.11243,-0.20829 -2.34375,-0.3125 -0.23133,-0.10421 -0.34376,-0.39861 -0.34375,-0.875 -1e-5,-0.90812 0.11241,-1.96673 0.3125,-3.1875 L 245.46875,0 Z m 22.1875,0 -0.21875,1.375 0.34375,0.0312 c 1.32543,0.10424 2.10615,0.20831 2.34375,0.3125 0.23757,0.10424 0.34374,0.38376 0.34375,0.875 -10e-6,0.87838 -0.0999,1.95189 -0.3125,3.1875 l -5,30.03125 2.71875,-1.125 c 0.67521,0.37218 1.38726,0.65767 2.125,0.84375 0.73773,0.18609 1.51224,0.28125 2.3125,0.28125 3.31357,0 6.39279,-2.07411 9.25,-6.25 2.85716,-4.17586 4.28123,-8.67652 4.28125,-13.5 -2e-5,-1.87577 -0.33106,-3.28827 -1,-4.21875 -0.66899,-0.93043 -1.68083,-1.40621 -3.03125,-1.40625 -1.63805,2e-5 -3.42439,1.00365 -5.34375,2.96875 -1.91939,1.96514 -3.64951,4.5671 -5.1875,7.8125 L 267.65625,-5e-5 Z M 5.53125,2.21875 5.3125,3.5625 5.65625,3.625 C 6.981675,3.72924 7.768667,3.83331 8,3.9375 8.231317,4.04174 8.343742,4.30488 8.34375,4.78125 8.343741,5.67451 8.231308,6.76439 8.03125,8 l -3.5625,21.46875 c -0.350119,2.02467 -0.699896,3.23793 -1.03125,3.625 -0.331362,0.38707 -1.280743,0.63091 -2.84375,0.75 L 0.25,33.87495 0,35.24995 h 10.875 l 0.25,-1.375 -0.34375,-0.0312 C 9.443303,33.73954 8.668816,33.63546 8.4375,33.53125 c -0.231335,-0.10421 -0.375009,-0.39861 -0.375,-0.875 -9e-6,-0.90812 0.112425,-1.96673 0.3125,-3.1875 L 11.96875,8 c 0.337597,-2.03952 0.668627,-3.24535 1,-3.625 0.331344,-0.37959 1.280724,-0.63086 2.84375,-0.75 l 0.375,-0.0625 0.21875,-1.34375 z m 61.875,0 -0.75,4.375 H 70.375 l 0.75,-4.375 z m 31.75,0 -0.75,4.375 h 3.71875 l 0.71875,-4.375 z m 98.34375,0 -0.75,4.375 h 3.71875 l 0.75,-4.375 z m 55.46875,0 -0.75,4.375 h 3.6875 l 0.75,-4.375 z m -62.5625,8.21875 c -3.3261,2e-5 -6.79259,3.48664 -10.40625,10.46875 L 181.65625,11 h -7.1875 l -0.21875,1.375 0.34375,0.0312 c 1.33793,0.11912 2.11242,0.23957 2.34375,0.34375 0.23132,0.10423 0.34374,0.39864 0.34375,0.875 -1e-5,0.89326 -0.0812,1.93552 -0.28125,3.15625 l -3.09375,18.46875 h 3.6875 L 179.5,23.93745 c 3.31357,-5.79112 6.15546,-8.68748 8.53125,-8.6875 0.57517,2e-5 1.15605,0.13977 1.71875,0.4375 l 1.5625,-5.0312 c -0.28762,-0.13396 -0.58116,-0.21871 -0.90625,-0.21875 z m 102.75,0 c -3.20106,2e-5 -6.07417,1.73367 -8.625,5.1875 -2.55084,3.45386 -3.81251,7.34042 -3.8125,11.6875 0,2.59039 0.55588,4.65412 1.6875,6.1875 1.13161,1.53339 2.66186,2.3125 4.5625,2.3125 2.86342,0 6.16751,-1.45858 9.90625,-4.40625 l 0.3125,-2 c -2.91347,2.5755 -5.61169,3.875 -8.125,3.875 -1.5005,0 -2.62477,-0.55312 -3.375,-1.625 -0.75025,-1.07188 -1.12501,-2.66872 -1.125,-4.8125 l 0.0312,-1.15625 c 3.87626,-0.2233 6.98672,-1.29083 9.3125,-3.21875 2.32574,-1.92788 3.46872,-4.399 3.46875,-7.40625 -2e-5,-1.33983 -0.38725,-2.44157 -1.1875,-3.3125 -0.80028,-0.87088 -1.81839,-1.31246 -3.03125,-1.3125 z m 24.625,0 c -3.3261,2e-5 -6.79258,3.48664 -10.40625,10.46875 L 309.0625,11 H 301.875 L 301.65625,12.375 302,12.4062 c 1.33793,0.11912 2.11243,0.23957 2.34375,0.34375 0.23132,0.10423 0.34373,0.39864 0.34375,0.875 -10e-6,0.89326 -0.11244,1.93552 -0.3125,3.15625 l -3.09375,18.46875 H 305 l 1.90625,-11.3125 c 3.31357,-5.79112 6.15545,-8.68748 8.53125,-8.6875 0.57517,2e-5 1.12481,0.13977 1.6875,0.4375 l 1.59375,-5.0312 c -0.28762,-0.13396 -0.6124,-0.21871 -0.9375,-0.21875 z M 116.5625,10.46875 c -3.28859,2e-5 -6.18669,1.7084 -8.6875,5.125 -2.50082,3.41664 -3.75001,7.36271 -3.75,11.84375 0,2.78392 0.54965,4.88184 1.625,6.28125 1.07535,1.3994 2.69304,2.09375 4.84375,2.09375 3.32607,0 6.22417,-1.71582 8.75,-5.125 2.5258,-3.40917 3.81248,-7.36414 3.8125,-11.875 -2e-5,-2.7839 -0.56216,-4.85803 -1.65625,-6.25 -1.09413,-1.39193 -2.73679,-2.09372 -4.9375,-2.09375 z m 26.375,0 c -1.63805,2e-5 -3.4119,0.93673 -5.3125,2.8125 -1.90063,1.87581 -3.66823,4.40936 -5.28125,7.625 L 134.03125,11 h -7.1875 l -0.21875,1.375 0.3125,0.0312 c 1.33793,0.11912 2.14367,0.23957 2.375,0.34375 0.23132,0.10423 0.34375,0.39864 0.34375,0.875 -1e-5,0.87837 -0.11244,1.92063 -0.3125,3.15625 L 126.25,35.24995 h 3.71875 l 1.84375,-10.9687 c 4.17635,-6.99699 7.28683,-10.49997 9.3125,-10.5 0.43762,2e-5 0.74992,0.12194 0.96875,0.375 0.2188,0.2531 0.34374,0.63523 0.34375,1.15625 -2e-5,0.46152 -0.0625,1.086 -0.1875,1.875 L 139.21875,35.25 h 7.1875 l 0.21875,-1.375 -0.34375,-0.0312 c -1.33796,-0.10421 -2.11244,-0.20829 -2.34375,-0.3125 -0.23135,-0.10421 -0.34377,-0.39861 -0.34375,-0.875 -2e-5,-0.90812 0.0812,-1.96673 0.28125,-3.1875 l 1.96875,-11.65625 c 0.23755,-1.42916 0.34373,-2.47141 0.34375,-3.15625 -2e-5,-1.39938 -0.2686,-2.46397 -0.8125,-3.15625 -0.54395,-0.69223 -1.34967,-1.03122 -2.4375,-1.03125 z m 20.21875,0 c -3.3261,2e-5 -6.41782,2.08903 -9.28125,6.25 -2.86344,4.161 -4.3125,8.66165 -4.3125,13.5 0,1.86091 0.33102,3.24959 1,4.1875 0.66896,0.9379 1.69331,1.40625 3.03125,1.40625 1.65053,0 3.43061,-0.97984 5.34375,-2.9375 1.91311,-1.95767 3.63697,-4.56707 5.1875,-7.8125 L 162.40625,35.25 h 7.1875 l 0.21875,-1.375 -0.34375,-0.0312 c -1.32545,-0.10421 -2.10619,-0.20829 -2.34375,-0.3125 -0.2376,-0.10421 -0.34377,-0.39861 -0.34375,-0.875 -2e-5,-0.90812 0.0999,-1.96673 0.3125,-3.1875 l 3.0625,-18.46875 h -3.6875 c -0.76277,-0.17862 -1.41859,-0.31692 -1.96875,-0.40625 -0.5502,-0.0893 -0.99365,-0.12497 -1.34375,-0.125 z m 51.75,0 c -3.28859,2e-5 -6.15544,1.7084 -8.65625,5.125 -2.50082,3.41664 -3.78126,7.36271 -3.78125,11.84375 0,2.78392 0.54964,4.88184 1.625,6.28125 1.07535,1.3994 2.69304,2.09375 4.84375,2.09375 3.32607,0 6.25541,-1.71582 8.78125,-5.125 2.5258,-3.40917 3.78123,-7.36414 3.78125,-11.875 -2e-5,-2.7839 -0.53092,-4.85803 -1.625,-6.25 -1.09413,-1.39193 -2.76805,-2.09372 -4.96875,-2.09375 z m 116.3125,0 c -3.28859,2e-5 -6.18669,1.7084 -8.6875,5.125 -2.50082,3.41664 -3.75,7.36271 -3.75,11.84375 0,2.78392 0.51839,4.88184 1.59375,6.28125 1.07535,1.3994 2.69303,2.09375 4.84375,2.09375 3.32607,0 6.2554,-1.71582 8.78125,-5.125 2.5258,-3.40917 3.78123,-7.36414 3.78125,-11.875 -2e-5,-2.7839 -0.53093,-4.85803 -1.625,-6.25 -1.09413,-1.39193 -2.73679,-2.09372 -4.9375,-2.09375 z M 62.46875,11 62.25,12.375 l 0.34375,0.0312 c 1.337931,0.11912 2.112417,0.23957 2.34375,0.34375 0.231318,0.10423 0.343746,0.39864 0.34375,0.875 -7e-6,0.87837 -0.112442,1.92063 -0.3125,3.15625 L 61.875,35.25 h 7.1875 l 0.21875,-1.375 -0.3125,-0.0312 c -1.337947,-0.10421 -2.143685,-0.20829 -2.375,-0.3125 -0.231334,-0.10421 -0.343756,-0.39861 -0.34375,-0.875 -8e-6,-0.90812 0.112425,-1.96673 0.3125,-3.1875 l 3.09375,-18.46875 z m 13.0625,0 -0.9375,5.53125 H 76.5625 L 76.6562,16.125 c 0.15004,-0.65502 0.28746,-1.17687 0.375,-1.59375 0.16254,-0.84855 0.44361,-1.3615 0.84375,-1.5625 0.40012,-0.20096 1.3245,-0.31246 2.8125,-0.3125 h 5.875 L 71.24995,33.59375 70.9687,35.25 h 16.9375 l 0.90625,-5.5 H 86.9687 l -0.0937,0.40625 c -0.18758,0.8188 -0.28751,1.31989 -0.3125,1.46875 -0.20008,0.98256 -0.48115,1.54755 -0.84375,1.71875 -0.36263,0.17121 -1.46191,0.25 -3.3125,0.25 H 75.3125 L 90.875,12.53125 91.125,11 Z m 18.6875,0 -0.25,1.375 0.34375,0.0312 c 1.33793,0.11912 2.11242,0.23957 2.34375,0.34375 0.23132,0.10423 0.37499,0.39864 0.375,0.875 -1e-5,0.87837 -0.11244,1.92063 -0.3125,3.15625 L 93.625,35.24995 h 7.1875 l 0.21875,-1.375 -0.34375,-0.0312 C 99.34955,33.73954 98.57507,33.63546 98.34375,33.53125 98.11242,33.42704 97.99999,33.13264 98,32.65625 c -1e-5,-0.90812 0.0812,-1.96673 0.28125,-3.1875 L 101.375,11 Z m 98.34375,0 -0.21875,1.375 0.34375,0.0312 c 1.33793,0.11912 2.11242,0.23957 2.34375,0.34375 0.23132,0.10423 0.34374,0.39864 0.34375,0.875 -1e-5,0.87837 -0.11244,1.92063 -0.3125,3.15625 l -3.09375,18.46875 h 7.1875 l 0.21875,-1.375 -0.3125,-0.0312 c -1.33795,-0.10421 -2.14368,-0.20829 -2.375,-0.3125 -0.23133,-0.10421 -0.34376,-0.39861 -0.34375,-0.875 -1e-5,-0.90812 0.11243,-1.96673 0.3125,-3.1875 L 199.75,11 Z M 248,11 l -0.21875,1.375 0.34375,0.0312 c 1.33793,0.11912 2.1124,0.23957 2.34375,0.34375 0.23132,0.10423 0.34373,0.39864 0.34375,0.875 -1e-5,0.87837 -0.0812,1.92063 -0.28125,3.15625 l -3.09375,18.46875 h 7.15625 l 0.25,-1.375 -0.34375,-0.0312 c -1.33795,-0.10421 -2.14368,-0.20829 -2.375,-0.3125 -0.23133,-0.10421 -0.34376,-0.39861 -0.34375,-0.875 -1e-5,-0.90812 0.11241,-1.96673 0.3125,-3.1875 L 255.1875,11 Z m -132.40625,1.15625 c 1.16286,2e-5 2.01854,0.52932 2.59375,1.59375 0.57517,1.06446 0.87498,2.68365 0.875,4.8125 -2e-5,4.09401 -0.76828,7.70255 -2.28125,10.84375 -1.51301,3.14121 -3.26186,4.71875 -5.25,4.71875 -0.98783,0 -1.78105,-0.56352 -2.40625,-1.6875 -0.62521,-1.12398 -0.9375,-2.58853 -0.9375,-4.375 -1e-5,-4.16842 0.74951,-7.84685 2.25,-11.0625 1.50048,-3.21563 3.2181,-4.84372 5.15625,-4.84375 z m 98.34375,0 c 1.16286,2e-5 2.04979,0.52932 2.625,1.59375 0.57517,1.06446 0.84373,2.68365 0.84375,4.8125 -2e-5,4.09401 -0.73703,7.70255 -2.25,10.84375 -1.51301,3.14121 -3.26186,4.71875 -5.25,4.71875 -0.98783,0 -1.8123,-0.56352 -2.4375,-1.6875 -0.62521,-1.12398 -0.93751,-2.58853 -0.9375,-4.375 -1e-5,-4.16842 0.74951,-7.84685 2.25,-11.0625 1.50048,-3.21563 3.2181,-4.84372 5.15625,-4.84375 z m 116.28125,0 c 1.16286,2e-5 2.04978,0.52932 2.625,1.59375 0.57517,1.06446 0.84374,2.68365 0.84375,4.8125 -2e-5,4.09401 -0.73704,7.70255 -2.25,10.84375 -1.51301,3.14121 -3.26185,4.71875 -5.25,4.71875 -0.98783,0 -1.81231,-0.56352 -2.4375,-1.6875 -0.62521,-1.12398 -0.93751,-2.58853 -0.9375,-4.375 -10e-6,-4.16842 0.7495,-7.84685 2.25,-11.0625 1.50048,-3.21563 3.21811,-4.84372 5.15625,-4.84375 z m -38.90625,0.25 c 0.82525,2e-5 1.43109,0.31078 1.84375,0.90625 0.41262,0.59551 0.62499,1.4653 0.625,2.65625 -2e-5,2.36709 -0.81825,4.31633 -2.4375,5.8125 -1.61929,1.49618 -3.81782,2.37192 -6.65625,2.625 0.27508,-3.4836 1.03082,-6.36957 2.28125,-8.625 1.2504,-2.2554 2.6932,-3.37497 4.34375,-3.375 z m -241.875,0.125 c 1.588002,2e-5 3.130757,0.46543 4.59375,1.34375 l -1.34375,7.84375 c -3.87628,7.20544 -7.017978,10.81249 -9.40625,10.8125 -0.600204,0 -1.043656,-0.27656 -1.34375,-0.8125 -0.300105,-0.53594 -0.468759,-1.33436 -0.46875,-2.40625 -7e-6,-2.15864 0.331027,-4.57027 1,-7.25 0.66896,-2.67969 1.499685,-4.84602 2.4375,-6.46875 1.175372,-2.03953 2.668128,-3.06248 4.53125,-3.0625 z m 112,0.0937 c 0.81275,2e-5 1.58099,0.12791 2.34375,0.34375 0.76273,0.21589 1.52474,0.52216 2.25,0.96875 l -1.34375,7.78125 c -3.87628,7.20544 -7.01798,10.81249 -9.40625,10.8125 -0.6002,0 -1.04366,-0.27656 -1.34375,-0.8125 -0.30011,-0.53594 -0.4375,-1.33436 -0.4375,-2.40625 -1e-5,-2.14376 0.33728,-4.53903 1,-7.21875 0.66271,-2.67969 1.44968,-4.82965 2.375,-6.4375 1.16287,-2.00976 2.68687,-3.03124 4.5625,-3.03125 z m 111.5,1.09375 c 0.60018,2e-5 1.04988,0.28401 1.34375,0.8125 0.29383,0.52852 0.43748,1.30315 0.4375,2.375 -2e-5,2.14378 -0.34355,4.58668 -1,7.28125 -0.65648,2.6946 -1.43097,4.82822 -2.34375,6.40625 -1.1629,2.03956 -2.68065,3.06252 -4.53125,3.0625 -0.78777,0 -1.56851,-0.12043 -2.34375,-0.34375 -0.77526,-0.22331 -1.54975,-0.55337 -2.3125,-1 l 1.34375,-7.75 c 3.87625,-7.2203 7.01795,-10.84373 9.40625,-10.84375 z" />
</svg>
