<?xml version="1.0" encoding="UTF-8" standalone="no"?>
<svg
   xmlns:dc="http://purl.org/dc/elements/1.1/"
   xmlns:cc="http://creativecommons.org/ns#"
   xmlns:rdf="http://www.w3.org/1999/02/22-rdf-syntax-ns#"
   xmlns:svg="http://www.w3.org/2000/svg"
   xmlns="http://www.w3.org/2000/svg"
   xmlns:xlink="http://www.w3.org/1999/xlink"
   id="svg2047"
   height="31.328131"
   width="268.67188"
   version="1.0">
  <metadata
     id="metadata62">
    <rdf:RDF>
      <cc:Work
         rdf:about="">
        <dc:format>image/svg+xml</dc:format>
        <dc:type
           rdf:resource="http://purl.org/dc/dcmitype/StillImage" />
      </cc:Work>
    </rdf:RDF>
  </metadata>
  <defs
     id="defs3">
    <linearGradient
       id="linearGradient3525">
      <stop
         offset="0"
         style="stop-color:#000066;stop-opacity:1"
         id="stop3527" />
      <stop
         offset="1"
         style="stop-color:#00004f;stop-opacity:1"
         id="stop3529" />
    </linearGradient>
    <linearGradient
       id="linearGradient3446">
      <stop
         offset="0"
         style="stop-color:#f4e3ca;stop-opacity:1"
         id="stop3448" />
      <stop
         offset="1"
         style="stop-color:#e9cc9d;stop-opacity:1"
         id="stop3450" />
    </linearGradient>
    <linearGradient
       id="linearGradient2917">
      <stop
         offset="0"
         style="stop-color:#d40000;stop-opacity:1"
         id="stop2919" />
      <stop
         offset="1"
         style="stop-color:#570000;stop-opacity:1"
         id="stop2921" />
    </linearGradient>
    <linearGradient
       gradientTransform="matrix(0.485989,0.460262,-0.482828,0.469608,235.2216,-80.23556)"
       gradientUnits="userSpaceOnUse"
       xlink:href="#linearGradient3525"
       id="linearGradient3071"
       y2="86.036026"
       x2="270.37161"
       y1="184.23257"
       x1="366.08591" />
    <linearGradient
       gradientTransform="matrix(0.620715,0.136186,-0.132947,0.605953,365.14,10.09319)"
       gradientUnits="userSpaceOnUse"
       xlink:href="#linearGradient3525"
       id="linearGradient3101"
       y2="255.5688"
       x2="95.290253"
       y1="365.66113"
       x1="196.08591" />
    <linearGradient
       gradientTransform="matrix(0.620931,0.304009,-0.292008,0.644049,194.0425,-60.61792)"
       gradientUnits="userSpaceOnUse"
       xlink:href="#linearGradient2917"
       id="linearGradient3103"
       y2="259.17615"
       x2="283.22876"
       y1="344.23257"
       x1="370.37161" />
    <linearGradient
       gradientTransform="matrix(0.492397,0.571556,-0.503799,0.505374,233.6223,-190.7188)"
       gradientUnits="userSpaceOnUse"
       xlink:href="#linearGradient3525"
       id="linearGradient3117"
       y2="434.30499"
       x2="439.24854"
       y1="521.37543"
       x1="536.08594" />
    <linearGradient
       gradientTransform="matrix(0.660096,0.05941423,-0.06000381,0.653611,-116.4365,105.7272)"
       gradientUnits="userSpaceOnUse"
       xlink:href="#linearGradient3525"
       id="linearGradient3125"
       y2="89.025398"
       x2="454.65735"
       y1="185.66115"
       x1="533.22876" />
    <linearGradient
       gradientTransform="translate(-476.4724,-112.8383)"
       gradientUnits="userSpaceOnUse"
       xlink:href="#linearGradient3446"
       id="linearGradient3452"
       y2="230.34946"
       x2="650.84174"
       y1="299.56409"
       x1="715.71844" />
    <linearGradient
       gradientTransform="translate(-419.3421,258.595)"
       gradientUnits="userSpaceOnUse"
       xlink:href="#linearGradient3446"
       id="linearGradient3460"
       y2="-358.38074"
       x2="723.2616"
       y1="-355.92725"
       x1="791.06329" />
    <linearGradient
       gradientTransform="translate(-137.3612,-469.7778)"
       gradientUnits="userSpaceOnUse"
       xlink:href="#linearGradient3446"
       id="linearGradient3474"
       y2="880.65918"
       x2="218.35574"
       y1="955.26855"
       x1="175.47467" />
    <linearGradient
       gradientTransform="translate(-490.353,22.1016)"
       gradientUnits="userSpaceOnUse"
       xlink:href="#linearGradient3446"
       id="linearGradient3482"
       y2="145.09717"
       x2="693.67474"
       y1="200.78854"
       x1="758.90216" />
    <linearGradient
       gradientTransform="translate(-450.4099,198.7519)"
       gradientUnits="userSpaceOnUse"
       xlink:href="#linearGradient3446"
       id="linearGradient3490"
       y2="-169.7764"
       x2="795.29053"
       y1="-140.09358"
       x1="870.85938" />
    <linearGradient
       gradientTransform="translate(-490.3612,21.8953)"
       gradientUnits="userSpaceOnUse"
       xlink:href="#linearGradient3446"
       id="linearGradient3498"
       y2="103.7599"
       x2="901.40399"
       y1="159.7126"
       x1="965.19623" />
    <linearGradient
       gradientTransform="translate(-379.7777,-307.2103)"
       gradientUnits="userSpaceOnUse"
       xlink:href="#linearGradient3446"
       id="linearGradient3506"
       y2="683.20331"
       x2="388.38828"
       y1="743.88672"
       x1="412.31854" />
    <linearGradient
       gradientTransform="translate(-476.4724,-112.8383)"
       gradientUnits="userSpaceOnUse"
       xlink:href="#linearGradient3446"
       id="linearGradient3514"
       y2="450.75146"
       x2="741.84326"
       y1="514.12738"
       x1="805.99457" />
    <linearGradient
       gradientTransform="translate(-489.4263,-30.47642)"
       gradientUnits="userSpaceOnUse"
       xlink:href="#linearGradient3446"
       id="linearGradient3522"
       y2="305.17203"
       x2="909.49103"
       y1="357.18353"
       x1="974.9718" />
    <linearGradient
       gradientTransform="matrix(0.868057,-0.04019387,0.04019387,0.868057,-383.372,26.04062)"
       gradientUnits="userSpaceOnUse"
       xlink:href="#linearGradient3525"
       id="linearGradient3531"
       y2="414.23257"
       x2="947.51447"
       y1="359.94687"
       x1="904.65735" />
    <linearGradient
       gradientTransform="matrix(0.279104,0,0,0.294448,61.36618,240.5454)"
       gradientUnits="userSpaceOnUse"
       xlink:href="#linearGradient3525"
       id="linearGradient3106"
       y2="230.67667"
       x2="897.16919"
       y1="429.67673"
       x1="1090.1083" />
    <linearGradient
       gradientTransform="matrix(0.110956,-0.03855391,0.03807676,0.115717,257.0759,100.5169)"
       gradientUnits="userSpaceOnUse"
       xlink:href="#linearGradient3525"
       id="linearGradient4929"
       y2="-144.08994"
       x2="-514.01392"
       y1="284.21475"
       x1="-190.76511" />
    <linearGradient
       gradientTransform="matrix(5.542162,3.319805,-4.164453,6.008209,1822.086,-2110.395)"
       gradientUnits="userSpaceOnUse"
       xlink:href="#linearGradient3525"
       id="linearGradient2865"
       y2="357.17325"
       x2="14.581494"
       y1="365.39426"
       x1="24.404194" />
  </defs>
  <path
     style="font-style:normal;font-variant:normal;font-weight:normal;font-stretch:normal;font-size:40px;font-family:'Nimbus Sans L';-inkscape-font-specification:'Nimbus Sans L';fill:#808080;fill-opacity:1;stroke:none;stroke-width:1px;stroke-linecap:butt;stroke-linejoin:miter;stroke-opacity:1"
     id="text2478"
     d="M 8.04688,31.21094 2.96875,7.08985 2.34375,4.60938 C 2.20052,3.9844 2.03125,3.60029 1.83594,3.45703 1.64062,3.30081 1.15885,3.20315 0.39063,3.16406 L 0,3.12496 0.23438,1.93356 h 10.48828 l -0.23437,1.1914 H 10.0586 c -2.00522,3e-5 -3.05991,0.26045 -3.16406,0.78125 -0.0391,0.19534 0.1367,1.25654 0.52734,3.1836 L 11.26954,25.29293 21.9336,7.07027 c 1.04164,-1.7708 1.58851,-2.79945 1.64062,-3.08593 0.10414,-0.54685 -0.2995,-0.82029 -1.21093,-0.82032 l -1.44532,-0.0391 h -0.42968 l 0.23437,-1.1914 H 28.1836 L 27.94922,3.12492 27.5,3.16402 c -1.09378,0.0521 -1.86852,0.46227 -2.32421,1.23047 L 23.53516,7.07027 9.375,31.2109 H 8.04688 m 30,-3.28125 c -2.74741,2.26562 -5.2409,3.39844 -7.48047,3.39844 -1.79688,0 -3.1836,-0.56641 -4.16016,-1.69922 -0.96354,-1.14583 -1.27604,-2.57812 -0.9375,-4.29688 0.9375,-4.68749 5.20833,-7.03123 12.8125,-7.03125 h 0.80079 l 0.52734,-2.63672 c 0.67706,-3.34633 -0.25392,-5.01951 -2.79297,-5.01953 -2.52605,2e-5 -4.16668,1.26955 -4.92187,3.8086 l -0.0977,0.37109 h -2.61719 l 0.78125,-3.88672 c 2.9427,-1.18487 5.55988,-1.77732 7.85156,-1.77734 4.6354,2e-5 6.52993,2.1159 5.683598,6.34765 L 41.60153,24.9609 c -0.612,3.07292 -0.26044,4.60938 1.05468,4.60937 0.24738,10e-6 0.605452,-0.0586 1.074223,-0.17578 l -0.175781,1.44532 c -0.989602,0.32552 -1.855492,0.48828 -2.597652,0.48828 -1.88804,0 -2.85809,-1.13282 -2.91016,-3.39844 m -0.80078,-0.42969 1.60156,-7.98828 h -0.89844 c -4.81772,1e-5 -7.57813,1.75782 -8.28125,5.27344 -0.2474,1.22396 -0.0586,2.23958 0.56641,3.04687 0.62499,0.8073 1.52994,1.21094 2.71484,1.21094 1.1328,0 2.56509,-0.51432 4.29688,-1.54297 m 9.980467,3.57422 5.195312,-26.01562 0.273438,-1.9336 C 52.786417,2.3828 52.747357,1.91405 52.578089,1.71871 52.421831,1.51041 51.972613,1.3802 51.230433,1.32809 L 49.941371,1.23039 49.570277,1.21089 49.824183,-5e-5 h 7.460938 l -2.734375,13.61328 c 2.513008,-2.96873 5.299463,-4.4531 8.359375,-4.45312 2.395812,2e-5 4.11456,0.94403 5.15625,2.83203 1.041641,1.88804 1.243464,4.4271 0.605468,7.61719 -0.703148,3.54167 -2.083355,6.38021 -4.140625,8.51562 -2.05731,2.13542 -4.433609,3.20313 -7.128906,3.20313 -2.48699,0 -4.420582,-0.96354 -5.800781,-2.89063 h -0.234375 l -1.015625,2.63672 h -3.125 m 4.667969,-4.16016 c 1.744782,1.51042 3.554676,2.26563 5.429687,2.26563 3.554671,0 5.898419,-2.83854 7.03125,-8.51563 1.210916,-6.0156 0.09113,-9.02341 -3.359375,-9.02343 -2.317723,2e-5 -4.550793,1.10679 -6.699219,3.32031 l -2.402343,11.95312 m 32.324218,1.01563 c -2.747408,2.26562 -5.240895,3.39844 -7.480468,3.39844 -1.796882,0 -3.183599,-0.56641 -4.160157,-1.69922 -0.963544,-1.14583 -1.276044,-2.57812 -0.9375,-4.29688 0.937496,-4.68749 5.208325,-7.03123 12.8125,-7.03125 h 0.800782 l 0.527343,-2.63672 c 0.677066,-3.34633 -0.253923,-5.01951 -2.792968,-5.01953 -2.526054,2e-5 -4.166677,1.26955 -4.921875,3.8086 l -0.09766,0.37109 h -2.617187 l 0.78125,-3.88672 c 2.942698,-1.18487 5.559883,-1.77732 7.851562,-1.77734 4.635397,2e-5 6.529926,2.1159 5.683594,6.34765 l -1.894531,9.45313 c -0.611998,3.07292 -0.260436,4.60938 1.054687,4.60937 0.247376,10e-6 0.605448,-0.0586 1.074219,-0.17578 l -0.175781,1.44532 c -0.989604,0.32552 -1.855488,0.48828 -2.597656,0.48828 -1.888038,0 -2.858089,-1.13282 -2.910157,-3.39844 m -0.800781,-0.42969 1.601563,-7.98828 h -0.898438 c -4.817719,10e-6 -7.578133,1.75782 -8.28125,5.27344 -0.247403,1.22396 -0.0586,2.23958 0.566406,3.04687 0.624992,0.8073 1.529939,1.21094 2.714844,1.21094 1.132801,0 2.565091,-0.51432 4.296875,-1.54297 m 22.01172,2.2461 1.07422,-5.39063 h 2.16797 l -0.0195,0.37109 -0.25391,2.03125 c -0.11719,1.00261 0.23437,1.81641 1.05469,2.44141 0.83332,0.61198 1.97265,0.91797 3.41797,0.91797 1.18488,0 2.22004,-0.35156 3.10547,-1.05469 0.89842,-0.71614 1.45831,-1.63411 1.67968,-2.7539 0.36457,-1.77083 -0.50782,-3.09244 -2.61718,-3.96485 l -1.81641,-0.76172 c -3.71095,-1.54947 -5.29298,-3.71092 -4.74609,-6.48437 0.35155,-1.71873 1.3216,-3.138 2.91015,-4.25781 1.60155,-1.11978 3.46353,-1.67967 5.58594,-1.67969 2.0703,2e-5 4.1341,0.39715 6.19141,1.1914 l -1.01563,5.0586 h -2.16797 l 0.0781,-0.35156 0.17578,-1.77735 c 0.20832,-1.9531 -0.87241,-2.92967 -3.24218,-2.92969 -1.13283,2e-5 -2.14845,0.36461 -3.04688,1.09375 -0.88543,0.71617 -1.43881,1.62763 -1.66016,2.73438 -0.1823,0.91147 -0.0261,1.64715 0.46875,2.20703 0.49479,0.54689 1.57551,1.19142 3.24219,1.93359 l 1.66016,0.74219 c 1.79686,0.8073 2.99477,1.64715 3.59375,2.51953 0.61196,0.85939 0.78123,1.97267 0.50781,3.33985 -0.37762,1.875 -1.43882,3.41146 -3.18359,4.60937 -1.73179,1.19792 -3.78257,1.79688 -6.15235,1.79688 -2.59115,0 -4.92188,-0.52735 -6.99218,-1.58203 m 29.04296,1.58203 c -3.0599,0 -5.29297,-0.9961 -6.69921,-2.98828 -1.39324,-2.00521 -1.7448,-4.70703 -1.05469,-8.10547 0.67708,-3.42447 2.11588,-6.12629 4.3164,-8.10547 2.21353,-1.97915 4.8828,-2.96873 8.00782,-2.96875 3.12498,2e-5 5.3906,0.9896 6.79687,2.96875 1.41925,1.97918 1.79034,4.66798 1.11328,8.0664 -0.69013,3.47657 -2.14195,6.20444 -4.35547,8.1836 -2.21356,1.96614 -4.92189,2.94922 -8.125,2.94922 m 0.29297,-1.21094 c 1.78384,0 3.43749,-0.93099 4.96094,-2.79297 1.52342,-1.86197 2.57159,-4.23827 3.14453,-7.12891 0.55988,-2.79946 0.4492,-5.1367 -0.33203,-7.01171 -0.76825,-1.88801 -2.01174,-2.83202 -3.73047,-2.83204 -1.71876,2e-5 -3.33986,0.94403 -4.86328,2.83204 -1.52345,1.87501 -2.56511,4.22527 -3.125,7.05078 -0.57292,2.8125 -0.48178,5.16276 0.27344,7.05078 0.7552,1.88802 1.97915,2.83203 3.67187,2.83203 M 133.28122,5.7812 c 1.1328,-3.05987 2.92967,-4.58981 5.39062,-4.58984 0.79426,3e-5 1.49738,0.24742 2.10938,0.74219 l 0.58593,0.48828 c 0.61196,0.4818 1.24998,0.72268 1.91407,0.72265 1.30206,3e-5 2.20701,-0.6445 2.71484,-1.93359 h 1.19141 c -1.1068,3.0469 -2.89716,4.57034 -5.3711,4.57031 -0.78126,3e-5 -1.48439,-0.24737 -2.10937,-0.74219 L 139.10153,4.57026 C 138.50256,4.0755 137.87105,3.8281 137.207,3.82808 c -1.21095,2e-5 -2.1159,0.65106 -2.71485,1.95312 h -1.21093 m 25.13672,7.83203 c 2.55207,-2.96873 5.40363,-4.4531 8.55468,-4.45312 1.8229,2e-5 3.13149,0.59898 3.92579,1.79687 0.79424,1.19794 0.98304,2.84507 0.5664,4.94141 l -1.97265,9.88281 -0.25391,1.9336 c -0.10419,0.74219 -0.0781,1.21745 0.0781,1.42578 0.16925,0.19531 0.62498,0.31901 1.36719,0.37109 l 1.30859,0.0977 0.33203,0.0195 -0.23437,1.21094 h -11.07419 l 0.23437,-1.21094 0.3711,-0.0195 1.34765,-0.0977 c 0.74217,-0.0521 1.23697,-0.17578 1.48438,-0.37109 0.2604,-0.20833 0.48826,-0.68359 0.68359,-1.42578 l 0.50782,-1.9336 1.85546,-9.27734 c 0.36457,-1.8229 0.37759,-3.08592 0.0391,-3.78906 -0.32554,-0.71613 -1.09377,-1.0742 -2.30468,-1.07422 -1.74481,2e-5 -4.10158,1.08725 -7.07032,3.26172 l -2.16797,10.8789 c -0.3125,1.53646 -0.39714,2.53256 -0.2539,2.98828 0.14322,0.44271 0.62499,0.69011 1.44531,0.74219 l 1.30859,0.0977 0.35157,0.0195 -0.23438,1.21094 h -11.09374 l 0.23437,-1.21094 0.39063,-0.0195 1.32812,-0.0977 c 0.75521,-0.0521 1.25651,-0.17578 1.50391,-0.37109 0.24739,-0.20833 0.46874,-0.68359 0.66406,-1.42578 l 0.50781,-1.9336 2.20703,-11.09375 0.27344,-1.91406 c 0.0911,-0.74217 0.0586,-1.21743 -0.0977,-1.42578 -0.15626,-0.20832 -0.60547,-0.33852 -1.34766,-0.39063 l -1.28906,-0.0977 -0.37109,-0.0195 0.23437,-1.21094 h 7.46094 l -0.80078,3.98437 m 29.31641,14.31641 c -2.74741,2.26562 -5.2409,3.39844 -7.48047,3.39844 -1.79688,0 -3.1836,-0.56641 -4.16016,-1.69922 -0.96354,-1.14583 -1.27604,-2.57812 -0.9375,-4.29688 0.9375,-4.68749 5.20833,-7.03123 12.8125,-7.03125 h 0.80078 l 0.52735,-2.63672 c 0.67706,-3.34633 -0.25393,-5.01951 -2.79297,-5.01953 -2.52606,2e-5 -4.16668,1.26955 -4.92188,3.8086 l -0.0977,0.37109 h -2.61718 l 0.78125,-3.88672 c 2.94269,-1.18487 5.55988,-1.77732 7.85156,-1.77734 4.6354,2e-5 6.52992,2.1159 5.68359,6.34765 l -1.89453,9.45313 c -0.612,3.07292 -0.26044,4.60938 1.05469,4.60937 0.24737,1e-5 0.60545,-0.0586 1.07422,-0.17578 l -0.17578,1.44532 c -0.98961,0.32552 -1.85549,0.48828 -2.59766,0.48828 -1.88804,0 -2.85809,-1.13282 -2.91016,-3.39844 m -0.80078,-0.42969 1.60156,-7.98828 h -0.89843 c -4.81772,10e-6 -7.57814,1.75782 -8.28125,5.27344 -0.24741,1.22396 -0.0586,2.23958 0.5664,3.04687 0.625,0.8073 1.52994,1.21094 2.71485,1.21094 1.1328,0 2.56509,-0.51432 4.29687,-1.54297 m 9.82422,2.2461 1.07422,-5.39063 H 200 l -0.0195,0.37109 -0.25391,2.03125 c -0.11719,1.00261 0.23437,1.81641 1.05469,2.44141 0.83332,0.61198 1.97265,0.91797 3.41797,0.91797 1.18488,0 2.22004,-0.35156 3.10547,-1.05469 0.89842,-0.71614 1.45832,-1.63411 1.67968,-2.7539 0.36457,-1.77083 -0.50782,-3.09244 -2.61718,-3.96485 l -1.81641,-0.76172 c -3.71094,-1.54947 -5.29297,-3.71092 -4.74609,-6.48437 0.35155,-1.71873 1.3216,-3.138 2.91015,-4.25781 1.60155,-1.11978 3.46353,-1.67967 5.58594,-1.67969 2.0703,2e-5 4.1341,0.39715 6.19141,1.1914 l -1.01563,5.0586 h -2.16797 l 0.0781,-0.35156 0.17578,-1.77735 c 0.20832,-1.9531 -0.87241,-2.92967 -3.24218,-2.92969 -1.13283,2e-5 -2.14845,0.36461 -3.04688,1.09375 -0.88542,0.71617 -1.43881,1.62763 -1.66015,2.73438 -0.18231,0.91147 -0.026,1.64715 0.46875,2.20703 0.49478,0.54689 1.57551,1.19142 3.24218,1.93359 l 1.66016,0.74219 c 1.79686,0.8073 2.99477,1.64715 3.59375,2.51953 0.61196,0.85939 0.78123,1.97267 0.50781,3.33985 -0.37762,1.875 -1.43882,3.41146 -3.18359,4.60937 -1.73179,1.19792 -3.78257,1.79688 -6.15235,1.79688 -2.59115,0 -4.92188,-0.52735 -6.99218,-1.58203 m 31.32812,0.97656 c -1.0547,0.40364 -2.02475,0.60547 -2.91015,0.60547 -2.25262,0 -3.78256,-0.56641 -4.58985,-1.69922 -0.8073,-1.13281 -0.96355,-2.9362 -0.46875,-5.41016 l 2.59766,-13.00781 h -3.125 l 0.3125,-1.58203 h 3.125 l 0.78125,-3.84766 4.04297,-0.95703 -0.95703,4.80469 h 5.89843 l -0.3125,1.58203 h -5.89843 l -2.69532,13.51562 c -0.40365,1.96615 -0.45573,3.30079 -0.15625,4.00391 0.31249,0.69011 1.08723,1.03516 2.32422,1.03516 0.61197,0 1.39322,-0.20183 2.34375,-0.60547 l -0.3125,1.5625 m 14.02344,-21.09375 -3.22266,16.15234 c -0.31251,1.53646 -0.39714,2.53256 -0.2539,2.98828 0.14322,0.44271 0.62499,0.69011 1.44531,0.74219 l 1.30859,0.0977 0.35157,0.0195 -0.23438,1.21094 h -11.09375 l 0.23438,-1.21094 0.39062,-0.0195 1.32813,-0.0977 c 0.7552,-0.0521 1.2565,-0.17578 1.5039,-0.37109 0.24739,-0.20833 0.46875,-0.68359 0.66406,-1.42578 l 0.50782,-1.9336 2.20703,-11.09375 0.27344,-1.91406 c 0.0911,-0.74217 0.0586,-1.21743 -0.0977,-1.42578 -0.15626,-0.20832 -0.60548,-0.33852 -1.34766,-0.39063 l -1.28906,-0.0977 -0.3711,-0.0195 0.23438,-1.21094 h 7.46094 m -3.06641,-3.84766 0.76172,-3.84765 h 3.84766 l -0.76172,3.84765 h -3.84766 m 13.1836,14.62891 -1.07422,5.37109 -0.27344,1.9336 c -0.15626,0.80729 -0.12371,1.30859 0.0977,1.5039 0.23436,0.18229 0.96353,0.3125 2.1875,0.39063 l 0.35156,0.0195 -0.23438,1.21094 h -10.6055 l 0.23437,-1.21094 0.39063,-0.0195 1.32812,-0.0977 c 0.75521,-0.0521 1.25651,-0.17578 1.50391,-0.37109 0.24739,-0.20833 0.46874,-0.68359 0.66406,-1.42578 l 0.50781,-1.9336 4.14063,-20.72265 0.27343,-1.9336 c 0.0911,-0.74216 0.0521,-1.21091 -0.11718,-1.40625 -0.15626,-0.2083 -0.60548,-0.33851 -1.34766,-0.39062 l -1.28906,-0.0977 -0.3711,-0.0195 0.25391,-1.21094 h 7.46094 l -3.88672,19.45313 h 0.91797 l 5.85937,-4.72657 3.45703,-2.96875 c 0.23436,-0.19529 0.36457,-0.35805 0.39063,-0.48828 0.0521,-0.24737 -0.15627,-0.37107 -0.625,-0.37109 l -1.83594,-0.0586 h -0.41015 l 0.23437,-1.21094 h 8.26172 l -0.23438,1.21094 -0.37109,0.0195 c -1.40627,0.0912 -2.32424,0.26043 -2.75391,0.50781 -0.42971,0.23439 -1.87502,1.3672 -4.33593,3.39844 l -4.45313,3.65234 4.88281,7.48047 1.64063,2.30469 c 0.44269,0.63802 0.78774,1.01562 1.03516,1.13281 0.24737,0.11719 0.83331,0.20833 1.75781,0.27344 l 0.35156,0.0195 -0.23437,1.21094 H 260 l -6.85546,-10.42969 h -0.91797" />
</svg>
