<?xml version="1.0" encoding="UTF-8" standalone="no"?>
<svg
   xmlns:dc="http://purl.org/dc/elements/1.1/"
   xmlns:cc="http://creativecommons.org/ns#"
   xmlns:rdf="http://www.w3.org/1999/02/22-rdf-syntax-ns#"
   xmlns:svg="http://www.w3.org/2000/svg"
   xmlns="http://www.w3.org/2000/svg"
   version="1.0"
   id="svg2047"
   height="40.781277"
   width="294.06259">
  <defs
     id="defs3">
    <linearGradient
       id="linearGradient3525">
      <stop
         id="stop3527"
         offset="0"
         style="stop-color:#006;stop-opacity:1;" />
      <stop
         id="stop3529"
         offset="1"
         style="stop-color:#00004f;stop-opacity:1;" />
    </linearGradient>
    <linearGradient
       id="linearGradient3446">
      <stop
         id="stop3448"
         offset="0"
         style="stop-color:#f4e3ca;stop-opacity:1;" />
      <stop
         id="stop3450"
         offset="1"
         style="stop-color:#e9cc9d;stop-opacity:1;" />
    </linearGradient>
    <linearGradient
       id="linearGradient2917">
      <stop
         id="stop2919"
         offset="0"
         style="stop-color:#d40000;stop-opacity:1;" />
      <stop
         id="stop2921"
         offset="1"
         style="stop-color:#570000;stop-opacity:1;" />
    </linearGradient>
  </defs>
  <metadata
     id="metadata4">
    <rdf:RDF>
      <cc:Work
         rdf:about="">
        <dc:format>image/svg+xml</dc:format>
        <dc:type
           rdf:resource="http://purl.org/dc/dcmitype/StillImage" />
      </cc:Work>
    </rdf:RDF>
  </metadata>
  <g
     transform="translate(-176.9118,-483.09416)"
     id="layer1">
    <path
       id="text2905"
       d="m 286.31805,483.09418 c -0.13213,-0.003 -0.19713,0.26416 -0.1875,0.78125 0.01,0.51715 0.11887,1.06066 0.34375,1.625 0.21349,0.46027 0.52475,0.85353 0.90625,1.15625 0.38149,0.30277 0.805,0.52128 1.3125,0.6875 0.65798,0.21877 1.29075,0.43778 1.84375,0.625 0.55298,0.18727 1.134,0.41603 1.75,0.71875 0.85923,0.41652 1.53949,0.92578 2.03125,1.53125 0.49173,0.60551 0.79224,1.31978 0.9375,2.15625 0.0674,0.44714 0.10486,0.94315 0.125,1.4375 0.0201,0.49439 -0.0141,0.9694 -0.0937,1.4375 -0.38501,-0.28873 -0.82252,-0.48348 -1.3125,-0.59375 -0.49001,-0.11023 -0.98902,-0.16148 -1.5,-0.15625 h -0.0312 c -0.52151,0.003 -1.18452,0.11515 -2,0.375 -0.8155,0.25989 -1.66302,0.6394 -2.5625,1.125 -1.64236,0.88463 -3.1159,2.31016 -4.375,4.25 -1.25911,1.93986 -1.90138,4.25717 -1.96875,6.96875 -0.0105,1.74473 0.39951,3.26927 1.25,4.5625 0.85048,1.29323 2.19377,1.9665 4.03125,2.03125 1.1156,-0.0245 2.22288,-0.32551 3.34375,-0.875 1.12085,-0.54949 2.12612,-1.21951 2.96875,-2 1.36409,-1.26261 2.51937,-2.99515 3.46875,-5.25 0.94935,-2.25484 1.42761,-4.75715 1.46875,-7.46875 -0.0149,-1.61959 -0.2164,-3.15738 -0.625,-4.65625 -0.40864,-1.49883 -1.06165,-2.93462 -1.9375,-4.28125 -0.76038,-1.22933 -1.6184,-2.24811 -2.5625,-3.03125 -0.94413,-0.78309 -2.0789,-1.39135 -3.40625,-1.84375 -0.81462,-0.27209 -1.47414,-0.50435 -2,-0.71875 -0.52588,-0.21434 -0.92914,-0.4266 -1.21875,-0.59375 z m -24.5625,0.125 c -0.07,0.0297 -0.16426,0.10002 -0.25,0.1875 -0.31327,0.3474 -0.76753,0.65841 -1.40625,0.9375 -0.63876,0.27915 -1.45228,0.57991 -2.4375,0.90625 -0.68601,0.20915 -1.31502,0.42091 -1.875,0.65625 -0.56001,0.2354 -1.10702,0.50916 -1.625,0.78125 -0.87325,0.43752 -1.79252,1.00828 -2.78125,1.71875 -0.98875,0.71052 -1.98027,1.56829 -2.9375,2.59375 -1.81386,1.932 -3.24914,4.1983 -4.34375,6.78125 -1.09461,2.58298 -1.65863,5.3618 -1.6875,8.34375 -0.009,2.21285 0.43901,4.03815 1.34375,5.46875 0.90473,1.43061 2.29552,2.16887 4.21875,2.21875 0.94848,-0.0149 1.97775,-0.27838 3.03125,-0.75 1.05347,-0.47162 2.0105,-1.06263 2.875,-1.8125 1.47084,-1.29323 2.62237,-2.87927 3.5,-4.75 0.8776,-1.87072 1.35311,-3.82577 1.375,-5.875 -0.008,-1.83746 -0.41815,-3.314 -1.21875,-4.4375 -0.80063,-1.12347 -1.96991,-1.71848 -3.46875,-1.75 h -0.0312 c -1.02113,0.0201 -2.1489,0.36565 -3.40625,1 -1.25737,0.63438 -2.44715,1.4304 -3.53125,2.4375 l -0.125,-0.0625 c 0.37099,-1.57846 0.8565,-2.946 1.4375,-4.0625 0.58098,-1.11646 1.1895,-1.98124 1.8125,-2.59375 0.54861,-0.54247 1.21512,-0.99023 2,-1.34375 0.78485,-0.35347 1.66662,-0.60598 2.65625,-0.8125 0.65535,-0.16097 1.33912,-0.34923 2.03125,-0.53125 0.6921,-0.18197 1.35487,-0.40048 2.03125,-0.6875 1.01847,-0.46197 1.78774,-1.12873 2.28125,-1.96875 0.49347,-0.83996 0.78048,-1.62973 0.875,-2.34375 -0.004,-0.11897 -0.0478,-0.19397 -0.15625,-0.25 -0.0543,-0.028 -0.1175,-0.0297 -0.1875,0 z m -67.40625,2.15625 c -4.97083,0.0639 -9.07918,1.56444 -12.34375,4.5 -3.26459,2.93561 -4.97388,6.92796 -5.09375,11.96875 0.0709,3.94008 1.2504,6.94466 3.5,9 2.24959,2.05535 5.14091,3.08062 8.71875,3.09375 1.52684,-0.0236 2.93837,-0.16738 4.25,-0.40625 1.31159,-0.23887 2.30286,-0.42313 2.96875,-0.59375 0.51885,-0.74986 1.12061,-1.77189 1.78125,-3.0625 0.66059,-1.2906 1.19061,-2.38438 1.5625,-3.28125 l -1.09375,-0.59375 c -1.12263,1.86986 -2.38041,3.41139 -3.78125,4.625 -1.40088,1.21361 -3.15117,1.83213 -5.21875,1.875 -2.82098,-0.0744 -4.95028,-1.1029 -6.40625,-3.125 -1.45599,-2.02209 -2.21176,-4.57891 -2.21875,-7.65625 0.0542,-4.01881 1.20977,-7.46414 3.4375,-10.34375 2.22771,-2.87956 5.21853,-4.39735 8.96875,-4.53125 2.07895,-0.0428 3.65799,0.42566 4.75,1.375 1.09196,0.94939 1.70748,2.63768 1.8125,5.09375 l 1.25,-0.125 c 0.0796,-1.01584 0.1446,-2.06162 0.1875,-3.15625 0.0428,-1.09459 0.0976,-2.20236 0.15625,-3.28125 -0.60377,-0.25985 -1.53704,-0.5261 -2.78125,-0.84375 -1.24426,-0.31759 -2.71054,-0.50235 -4.40625,-0.53125 z m 162.75,6.125 c -0.5005,0.28264 -1.03027,0.6589 -1.59375,1.09375 -0.5635,0.43489 -1.05226,0.87215 -1.46875,1.34375 l -0.46875,1.90625 c -0.7035,0.27651 -1.42151,0.57702 -2.125,0.9375 -0.70349,0.36051 -1.32876,0.75377 -1.90625,1.15625 l 0.28125,1.03125 c 0.48037,-0.25723 1.00338,-0.51349 1.5625,-0.78125 0.55911,-0.26773 1.17438,-0.50349 1.84375,-0.71875 -0.77874,3.63297 -1.55451,7.28356 -2.34375,10.9375 -0.78924,3.65395 -1.56501,7.32504 -2.34375,11 -0.22837,1.23285 -0.58738,2.03912 -1.0625,2.46875 -0.47512,0.42961 -1.33639,0.76487 -2.59375,0.96875 l -0.21875,1.03125 9.6875,-0.5 0.1875,-1.03125 -1.0625,-0.125 c -1.00449,-0.0639 -1.61626,-0.28264 -1.84375,-0.65625 -0.2275,-0.37363 -0.22425,-1.1669 0.0312,-2.34375 l 1.1875,-5.84375 c 0.41036,0.1645 0.83412,0.28425 1.28125,0.34375 0.44711,0.0595 0.84012,0.0972 1.1875,0.0937 1.37022,-0.35 2.74426,-0.95851 4.125,-1.8125 1.38072,-0.85399 2.61125,-1.87251 3.6875,-3.0625 1.19609,-1.38335 2.09512,-2.83964 2.6875,-4.34375 0.59235,-1.5041 0.90711,-2.93938 0.90625,-4.34375 0.0184,-1.87684 -0.45341,-3.32287 -1.40625,-4.3125 -0.95288,-0.98959 -2.51167,-1.49211 -4.65625,-1.5 -0.58538,2e-5 -1.2314,0.041 -1.9375,0.125 -0.70613,0.084 -1.36239,0.20702 -1.96875,0.375 l 0.75,-3.21875 -0.40625,-0.21875 z m -137.5625,2.90625 c -0.37101,0.11027 -0.93853,0.23327 -1.6875,0.375 -0.74901,0.14177 -1.60353,0.26477 -2.5625,0.375 -1.43324,0.16977 -3.03278,0.31002 -4.8125,0.40625 -1.77973,0.0963 -3.31777,0.15452 -4.625,0.15625 -0.252,0.0709 -0.47751,0.33715 -0.6875,0.84375 -0.21,0.50664 -0.39451,0.9374 -0.5625,1.28125 0.65974,-0.0236 1.33951,-0.0541 2.09375,-0.125 0.75423,-0.0709 1.50625,-0.16336 2.25,-0.25 -0.32375,1.49099 -0.82927,3.18279 -1.5625,5.09375 -0.73325,1.91098 -1.61852,3.67503 -2.65625,5.25 -0.77437,1.14536 -1.56439,2.07139 -2.3125,2.8125 -0.74812,0.74112 -1.49664,1.32888 -2.25,1.78125 l -0.0625,0.4375 c 0.13737,0.26687 0.37663,0.49913 0.71875,0.71875 0.34212,0.21962 0.71463,0.34987 1.125,0.34375 0.28787,0.008 0.58163,-0.0949 0.90625,-0.28125 0.32462,-0.18637 0.72138,-0.52488 1.15625,-1 1.6371,-1.97135 3.00763,-4.40141 4.125,-7.3125 1.11735,-2.91108 1.98562,-5.56714 2.59375,-7.9375 1.08323,-0.12773 2.023,-0.22648 2.84375,-0.34375 0.82073,-0.11723 1.43249,-0.22674 1.84375,-0.3125 -0.51888,2.05361 -1.03815,4.24092 -1.59375,6.59375 -0.55563,2.35285 -1.05489,4.52016 -1.46875,6.46875 -0.27913,1.49098 -0.33388,2.54726 -0.15625,3.15625 0.17761,0.60899 0.51287,0.896 0.96875,0.875 0.60198,-0.0175 1.4975,-0.39351 2.6875,-1.125 1.18997,-0.73149 2.3315,-1.73326 3.4375,-2.96875 l -0.46875,-1.03125 c -0.65276,0.61862 -1.26452,1.09688 -1.84375,1.46875 -0.57926,0.37187 -0.98602,0.58413 -1.21875,0.59375 -0.15139,0.0175 -0.24014,-0.12975 -0.28125,-0.40625 -0.0411,-0.27649 0.003,-0.78201 0.125,-1.5625 0.29661,-1.6581 0.60386,-3.35714 0.96875,-5.0625 0.36485,-1.70534 0.75461,-3.42439 1.15625,-5.1875 0.19948,-0.95897 0.40449,-1.63924 0.625,-2.03125 0.22048,-0.39198 0.53874,-0.68274 0.90625,-0.84375 l 0.5,-0.25 z m 13.8125,0.0312 c -0.66413,0.006 -1.39215,0.13265 -2.1875,0.375 -0.79537,0.24239 -1.57465,0.56365 -2.34375,0.96875 -1.79111,0.945 -3.29165,2.40104 -4.5,4.375 -1.20836,1.97399 -1.85813,4.34279 -1.90625,7.09375 -0.0184,1.76136 0.41238,3.28939 1.28125,4.5625 0.86886,1.27311 2.30465,1.93962 4.28125,2 1.1856,-0.0158 2.33063,-0.26176 3.4375,-0.75 1.10685,-0.48824 2.11862,-1.13451 3.03125,-1.90625 1.47347,-1.26348 2.58424,-2.79452 3.34375,-4.625 0.75947,-1.83047 1.15273,-3.67976 1.15625,-5.53125 -0.0149,-2.09208 -0.52441,-3.71237 -1.5,-4.84375 -0.97563,-1.13134 -2.33591,-1.70561 -4.09375,-1.71875 z m 39.375,0 c -0.66413,0.006 -1.39215,0.13265 -2.1875,0.375 -0.79537,0.24239 -1.57465,0.56365 -2.34375,0.96875 -1.79111,0.945 -3.29165,2.40104 -4.5,4.375 -1.20836,1.97399 -1.85813,4.34279 -1.90625,7.09375 -0.0184,1.76136 0.41238,3.28939 1.28125,4.5625 0.86886,1.27311 2.30464,1.93962 4.28125,2 1.1856,-0.0158 2.33063,-0.26176 3.4375,-0.75 1.10685,-0.48824 2.11862,-1.13451 3.03125,-1.90625 1.47347,-1.26348 2.58424,-2.79452 3.34375,-4.625 0.75947,-1.83047 1.15273,-3.67976 1.15625,-5.53125 -0.0149,-2.09208 -0.52441,-3.71237 -1.5,-4.84375 -0.97563,-1.13134 -2.33591,-1.70561 -4.09375,-1.71875 z m 38.78125,0 c -0.90038,0.0114 -1.8539,0.23015 -2.875,0.65625 -1.02112,0.42614 -1.98489,1.0144 -2.90625,1.71875 -1.66161,1.309 -2.93339,2.91504 -3.78125,4.875 -0.84787,1.95998 -1.24738,3.97703 -1.25,6 0.0717,2.4421 0.57726,4.08614 1.5625,4.9375 0.98523,0.85136 1.99351,1.24437 3.03125,1.1875 1.02023,0.049 2.29876,-0.26226 3.8125,-0.90625 1.51372,-0.64399 3.20226,-1.91877 5.0625,-3.84375 l -0.71875,-0.96875 c -1.064,1.03512 -2.12353,1.81764 -3.1875,2.375 -1.064,0.55737 -2.04152,0.86888 -2.9375,0.875 -1.25737,-0.056 -2.11864,-0.57226 -2.59375,-1.53125 -0.47512,-0.95898 -0.71113,-2.02876 -0.6875,-3.21875 -0.002,-0.20824 -0.009,-0.4375 0,-0.65625 0.009,-0.21874 0.0535,-0.43725 0.0937,-0.6875 1.4062,-0.3321 2.95138,-0.8333 4.65625,-1.46875 1.70486,-0.63543 3.18061,-1.45206 4.4375,-2.4375 1.25686,-0.98542 1.93776,-2.14914 2,-3.53125 -0.0149,-0.9301 -0.37065,-1.73362 -1.03125,-2.375 -0.66063,-0.64135 -1.55965,-0.97286 -2.6875,-1 z m 12.53125,0 c -0.623,0.0315 -1.51852,0.43178 -2.6875,1.15625 -1.16899,0.72451 -2.26952,1.58553 -3.3125,2.625 l 0.5625,0.96875 c 0.45499,-0.40073 0.94,-0.77674 1.5,-1.125 0.55999,-0.34823 0.97375,-0.53974 1.21875,-0.5625 0.13037,0.007 0.19862,0.12677 0.21875,0.34375 0.0201,0.21701 -0.0449,0.62377 -0.1875,1.21875 -0.518,2.37123 -1.02351,4.75354 -1.5625,7.15625 -0.539,2.40272 -1.13726,4.82603 -1.78125,7.28125 l 0.25,0.3125 c 1.00798,-0.343 2.02326,-0.66775 3.03125,-0.96875 0.19337,-0.91961 0.47687,-2.24589 0.875,-3.96875 0.39811,-1.72285 0.73287,-3.24388 1.03125,-4.5625 h 7.78125 c -0.19864,0.87587 -0.41039,1.90815 -0.65625,3.09375 -0.24589,1.18561 -0.47864,2.18714 -0.65625,3 -0.22314,1.15236 -0.24339,2.00338 -0.0937,2.5625 0.14961,0.55912 0.44712,0.84637 0.875,0.84375 0.56348,-0.0193 1.4315,-0.39201 2.625,-1.09375 1.19347,-0.70174 2.35924,-1.62801 3.46875,-2.78125 l -0.46875,-1 c -0.63176,0.518 -1.22303,0.96251 -1.78125,1.3125 -0.55826,0.35 -0.94452,0.51725 -1.15625,0.53125 -0.13127,-0.007 -0.21327,-0.137 -0.25,-0.375 -0.0368,-0.23799 0.004,-0.6755 0.125,-1.3125 0.21024,-1.10261 0.52345,-2.63417 0.9375,-4.625 0.41401,-1.99082 0.83453,-3.93224 1.28125,-5.84375 0.44668,-1.91148 0.81672,-3.32286 1.125,-4.1875 h -0.53125 l -2.9375,1.15625 c -0.21701,1.02463 -0.47002,2.16591 -0.75,3.46875 -0.28001,1.30287 -0.55352,2.52665 -0.8125,3.65625 h -7.71875 l 0.875,-4.03125 c 0.31849,-1.40784 0.43449,-2.47787 0.375,-3.1875 -0.0595,-0.7096 -0.33302,-1.06161 -0.8125,-1.0625 z m 56.5625,0 c -0.90038,0.0114 -1.88515,0.23015 -2.90625,0.65625 -1.02112,0.42614 -1.98489,1.0144 -2.90625,1.71875 -1.66161,1.309 -2.90214,2.91504 -3.75,4.875 -0.84787,1.95998 -1.27863,3.97703 -1.28125,6 0.0717,2.4421 0.60851,4.08614 1.59375,4.9375 0.98523,0.85136 1.99351,1.24437 3.03125,1.1875 1.02023,0.049 2.26751,-0.26226 3.78125,-0.90625 1.51372,-0.64399 3.20226,-1.91877 5.0625,-3.84375 l -0.71875,-0.96875 c -1.064,1.03512 -2.12353,1.81764 -3.1875,2.375 -1.064,0.55737 -2.04152,0.86888 -2.9375,0.875 -1.25737,-0.056 -2.11864,-0.57226 -2.59375,-1.53125 -0.47512,-0.95898 -0.71113,-2.02876 -0.6875,-3.21875 -0.002,-0.20824 0.0225,-0.4375 0.0312,-0.65625 0.009,-0.21874 0.0222,-0.43725 0.0625,-0.6875 1.4062,-0.3321 2.95138,-0.8333 4.65625,-1.46875 1.70486,-0.63543 3.21186,-1.45206 4.46875,-2.4375 1.25686,-0.98542 1.90651,-2.14914 1.96875,-3.53125 -0.0149,-0.9301 -0.37065,-1.73362 -1.03125,-2.375 -0.66063,-0.64135 -1.5284,-0.97286 -2.65625,-1 z m 11.9375,0 c -0.76125,0.0359 -1.73552,0.45315 -2.90625,1.21875 -1.17074,0.76563 -2.26802,1.68516 -3.28125,2.75 l 0.5625,1 c 0.67724,-0.59323 1.241,-1.04424 1.71875,-1.375 0.47774,-0.33073 0.816,-0.52598 1.03125,-0.53125 0.13124,0.009 0.21324,0.12527 0.25,0.3125 0.0367,0.18726 -0.004,0.51852 -0.125,1.03125 l -0.9375,3.90625 c -0.37275,1.74999 -0.27025,2.89526 0.3125,3.40625 0.58274,0.511 1.21825,0.74351 1.9375,0.6875 0.93273,0.008 2.10501,-0.37163 3.53125,-1.125 1.42622,-0.75336 2.93726,-1.92214 4.5,-3.53125 h 0.125 l -1.96875,7.9375 c -0.30888,1.27486 -0.41864,2.18363 -0.28125,2.78125 0.13736,0.59762 0.48987,0.91237 1,0.90625 0.6431,-0.0184 1.56588,-0.38763 2.78125,-1.09375 1.21534,-0.70612 2.37387,-1.63914 3.5,-2.8125 l -0.53125,-1 c -0.57664,0.53987 -1.1784,0.97713 -1.78125,1.34375 -0.60288,0.36662 -1.01964,0.54763 -1.28125,0.5625 -0.16801,-0.0184 -0.28127,-0.16163 -0.28125,-0.46875 -2e-5,-0.30712 0.11324,-0.77888 0.28125,-1.40625 0.58448,-2.44909 1.15524,-4.85865 1.71875,-7.25 0.56347,-2.39133 1.13424,-4.82189 1.71875,-7.25 h -0.4375 l -2.96875,1.15625 c -0.22051,1.07888 -0.38452,1.85815 -0.5,2.34375 -0.11551,0.48563 -0.23852,0.85439 -0.375,1.15625 -0.50401,1.0395 -1.48853,2.19828 -2.9375,3.46875 -1.44899,1.27049 -2.74102,1.97826 -3.875,2.09375 -0.51625,0.0236 -0.87176,-0.19187 -1.0625,-0.625 -0.19075,-0.43311 -0.15675,-1.23288 0.125,-2.40625 l 1.0625,-4.3125 c 0.23361,-0.96422 0.28462,-1.68549 0.1875,-2.15625 -0.0971,-0.47073 -0.35314,-0.72048 -0.8125,-0.71875 z m 21.59375,0 c -0.623,0.0315 -1.51852,0.43178 -2.6875,1.15625 -1.16899,0.72451 -2.30077,1.58553 -3.34375,2.625 l 0.5625,0.96875 c 0.45499,-0.40073 0.97125,-0.77674 1.53125,-1.125 0.55999,-0.34823 0.9425,-0.53974 1.1875,-0.5625 0.13037,0.007 0.19862,0.12677 0.21875,0.34375 0.0201,0.21701 -0.0136,0.62377 -0.15625,1.21875 -0.518,2.37123 -1.05476,4.75354 -1.59375,7.15625 -0.539,2.40272 -1.13726,4.82603 -1.78125,7.28125 l 0.25,0.3125 c 1.00798,-0.343 2.02326,-0.66775 3.03125,-0.96875 0.19337,-0.91961 0.47687,-2.24589 0.875,-3.96875 0.39811,-1.72285 0.76412,-3.24388 1.0625,-4.5625 h 7.75 c -0.19864,0.87587 -0.41039,1.90815 -0.65625,3.09375 -0.24589,1.18561 -0.44739,2.18714 -0.625,3 -0.22314,1.15236 -0.27464,2.00338 -0.125,2.5625 0.14961,0.55912 0.44712,0.84637 0.875,0.84375 0.56348,-0.0193 1.4315,-0.39201 2.625,-1.09375 1.19347,-0.70174 2.35924,-1.62801 3.46875,-2.78125 l -0.46875,-1 c -0.63176,0.518 -1.22303,0.96251 -1.78125,1.3125 -0.55826,0.35 -0.94452,0.51725 -1.15625,0.53125 -0.13127,-0.007 -0.21327,-0.137 -0.25,-0.375 -0.0368,-0.23799 0.004,-0.6755 0.125,-1.3125 0.21024,-1.10261 0.52345,-2.63417 0.9375,-4.625 0.41401,-1.99082 0.83453,-3.93224 1.28125,-5.84375 0.44668,-1.91148 0.81672,-3.32286 1.125,-4.1875 h -0.53125 l -2.9375,1.15625 c -0.21701,1.02463 -0.47002,2.16591 -0.75,3.46875 -0.28001,1.30287 -0.55352,2.52665 -0.8125,3.65625 h -7.71875 l 0.875,-4.03125 c 0.31849,-1.40784 0.43449,-2.47787 0.375,-3.1875 -0.0595,-0.7096 -0.30177,-1.06161 -0.78125,-1.0625 z m 22.375,0 c -0.60113,0.0123 -1.4624,0.36778 -2.59375,1.0625 -1.13137,0.69476 -2.31039,1.67603 -3.5625,2.90625 l 0.46875,1 c 0.74724,-0.59673 1.3795,-1.08224 1.90625,-1.4375 0.52674,-0.35523 0.872,-0.52248 1.03125,-0.53125 0.14962,-0.008 0.22112,0.0739 0.25,0.28125 0.0289,0.20739 -0.002,0.57665 -0.125,1.09375 -0.756,3.19897 -1.52526,6.4153 -2.28125,9.65625 -0.49087,2.20672 -0.52137,3.66976 -0.125,4.375 0.39637,0.70524 0.87788,1.03 1.5,0.96875 0.50924,-0.002 1.0735,-0.1215 1.65625,-0.34375 0.58273,-0.22225 1.15675,-0.54701 1.75,-0.96875 1.12698,-0.79449 2.29975,-1.77526 3.46875,-2.96875 1.16897,-1.19348 2.2695,-2.49251 3.3125,-3.875 h 0.0625 c -0.14089,0.6685 -0.26039,1.27001 -0.375,1.8125 -0.11464,0.5425 -0.24439,1.16451 -0.40625,1.875 -0.39638,1.7841 -0.51964,2.98038 -0.34375,3.59375 0.17586,0.61337 0.50412,0.91787 0.96875,0.875 0.69735,-0.0263 1.62712,-0.42601 2.78125,-1.21875 1.15409,-0.79274 2.25812,-1.81826 3.3125,-3.0625 l -0.5625,-1 c -0.59851,0.6055 -1.18278,1.11476 -1.78125,1.53125 -0.59851,0.4165 -0.99827,0.6075 -1.21875,0.625 -0.14964,0.0131 -0.25239,-0.0789 -0.28125,-0.3125 -0.0289,-0.23362 0.0329,-0.67463 0.15625,-1.3125 0.52497,-2.71946 1.04774,-5.28302 1.59375,-7.6875 0.54597,-2.40445 1.08924,-4.72201 1.65625,-6.9375 h -0.4375 l -2.90625,1.09375 c -0.54601,2.55498 -1.03802,4.79379 -1.5,6.71875 -0.57945,1.07255 -1.40867,2.28647 -2.46875,3.625 -1.06011,1.33854 -2.17308,2.50213 -3.3125,3.5 -1.13944,0.99788 -2.12007,1.51195 -2.9375,1.5625 -0.3255,0.0131 -0.54076,-0.17113 -0.65625,-0.59375 -0.1155,-0.42262 -0.0643,-1.14038 0.15625,-2.15625 0.39811,-1.6826 0.80512,-3.37464 1.1875,-5.0625 0.38236,-1.68784 0.74787,-3.36963 1.125,-5.03125 0.33511,-1.38334 0.45461,-2.33686 0.375,-2.875 -0.0796,-0.5381 -0.35989,-0.80486 -0.84375,-0.78125 z m 22.1875,0 c -0.6335,0.0306 -1.51877,0.4274 -2.65625,1.15625 -1.13749,0.72888 -2.24827,1.6279 -3.34375,2.6875 l 0.5625,0.9375 c 0.54949,-0.45585 1.06525,-0.83161 1.59375,-1.15625 0.52849,-0.32461 0.9115,-0.48511 1.125,-0.5 0.14787,0.003 0.22312,0.1664 0.21875,0.53125 -0.004,0.36489 -0.0829,0.89815 -0.25,1.59375 -0.53812,2.44735 -1.07139,4.81966 -1.59375,7.09375 -0.52237,2.2741 -1.08639,4.50241 -1.6875,6.71875 l 0.25,0.3125 c 1.05698,-0.343 2.07876,-0.66775 3.09375,-0.96875 0.25987,-1.24423 0.56762,-2.61827 0.90625,-4.125 0.33861,-1.50672 0.67712,-2.98326 1,-4.4375 0.88285,-0.0271 1.59362,0.14364 2.15625,0.53125 0.56261,0.38763 0.95562,1.03039 1.1875,1.90625 0.20561,0.63962 0.42437,1.29214 0.65625,2 0.23186,0.70787 0.50187,1.52489 0.8125,2.4375 0.33598,0.97386 0.71574,1.66088 1.09375,2.0625 0.37798,0.40162 0.76749,0.60687 1.1875,0.59375 0.75772,-0.0403 1.6155,-0.44376 2.59375,-1.1875 0.97822,-0.74374 1.79499,-1.59826 2.46875,-2.5625 l -0.65625,-0.90625 c -0.49351,0.57662 -0.96502,1.02413 -1.4375,1.375 -0.47251,0.35087 -0.89327,0.52163 -1.21875,0.53125 -0.22401,0.01 -0.42202,-0.10613 -0.625,-0.40625 -0.20301,-0.30012 -0.45277,-0.83713 -0.71875,-1.5625 -0.34476,-0.95898 -0.61452,-1.72125 -0.84375,-2.28125 -0.22926,-0.55999 -0.48927,-1.0655 -0.75,-1.5625 -0.26688,-0.53898 -0.60164,-1.0245 -1.03125,-1.4375 -0.42963,-0.41299 -0.86739,-0.69349 -1.28125,-0.8125 0.64223,-0.49873 1.254,-1.03175 1.84375,-1.625 0.58973,-0.59323 1.23274,-1.24925 1.875,-2 0.60373,-0.67548 1.10599,-1.20199 1.53125,-1.5625 0.42523,-0.36048 0.78399,-0.55898 1.09375,-0.5625 0.33598,0.01 0.61273,0.11939 0.84375,0.28125 0.23098,0.16189 0.43648,0.33264 0.5625,0.53125 0.16098,0.21001 0.36923,0.21001 0.65625,0 0.37447,-0.28086 0.64798,-0.60911 0.8125,-0.96875 0.16448,-0.3596 0.25348,-0.71861 0.25,-1.0625 -0.0123,-0.43398 -0.18327,-0.78574 -0.5,-1.09375 -0.31677,-0.30798 -0.71328,-0.48598 -1.1875,-0.5 -0.51364,-0.014 -1.06415,0.14677 -1.625,0.46875 -0.56088,0.32201 -1.1929,0.89278 -1.9375,1.71875 -0.71138,0.80501 -1.3984,1.59103 -2.0625,2.375 -0.66413,0.784 -1.3204,1.53977 -1.96875,2.21875 -0.70613,0.71838 -1.34189,1.19664 -1.90625,1.46875 -0.56438,0.27213 -1.10789,0.41213 -1.625,0.4375 l 1,-4.34375 c 0.31936,-1.39297 0.43886,-2.47674 0.375,-3.21875 -0.0639,-0.74197 -0.34414,-1.11798 -0.84375,-1.125 z m -226.6875,1.59375 c 0.98698,-0.003 1.77625,0.4179 2.40625,1.25 0.62998,0.83213 0.97898,2.11416 1,3.8125 -0.049,2.74135 -0.52753,5.07216 -1.4375,7.03125 -0.91,1.9591 -1.97328,3.21363 -3.15625,3.75 -0.20826,0.084 -0.40626,0.1455 -0.625,0.1875 -0.21876,0.042 -0.46851,0.0625 -0.71875,0.0625 -1.12087,-0.0175 -1.98214,-0.47551 -2.59375,-1.375 -0.61162,-0.89949 -0.92963,-2.14727 -0.9375,-3.71875 0.0831,-3.22782 0.63363,-5.71614 1.625,-7.46875 0.99135,-1.75259 1.94163,-2.80536 2.84375,-3.15625 0.22924,-0.10761 0.45799,-0.17911 0.71875,-0.25 0.26074,-0.0709 0.56174,-0.12236 0.875,-0.125 z m 39.375,0 c 0.98698,-0.003 1.77625,0.4179 2.40625,1.25 0.62998,0.83213 0.97898,2.11416 1,3.8125 -0.049,2.74135 -0.52753,5.07216 -1.4375,7.03125 -0.91,1.9591 -1.97328,3.21363 -3.15625,3.75 -0.20826,0.084 -0.40626,0.1455 -0.625,0.1875 -0.21876,0.042 -0.46851,0.0625 -0.71875,0.0625 -1.12087,-0.0175 -1.98214,-0.47551 -2.59375,-1.375 -0.61162,-0.89949 -0.92963,-2.14727 -0.9375,-3.71875 0.0831,-3.22782 0.63363,-5.71614 1.625,-7.46875 0.99135,-1.75259 1.94163,-2.80536 2.84375,-3.15625 0.22924,-0.10761 0.45799,-0.17911 0.71875,-0.25 0.26074,-0.0709 0.56174,-0.12236 0.875,-0.125 z m 20.09375,0.0937 h 0.0625 c 0.39286,-0.008 0.81987,0.0744 1.3125,0.21875 0.4926,0.14439 0.96112,0.39015 1.375,0.78125 0.20911,0.18551 0.34911,0.40777 0.4375,0.65625 0.0884,0.24851 0.11561,0.55277 0.0937,0.90625 -0.22314,3.65046 -0.80765,6.53879 -1.75,8.65625 -0.94238,2.11748 -1.90615,3.49851 -2.90625,4.125 -0.30101,0.2065 -0.62576,0.32575 -0.96875,0.40625 -0.343,0.0805 -0.66776,0.1285 -0.96875,0.125 -1.01324,-0.0368 -1.80301,-0.53901 -2.34375,-1.53125 -0.54075,-0.99223 -0.80726,-2.24326 -0.8125,-3.75 0.12337,-3.18845 0.70788,-5.59501 1.75,-7.1875 1.0421,-1.59246 1.92388,-2.52199 2.65625,-2.8125 0.37973,-0.20823 0.74549,-0.37598 1.09375,-0.46875 0.34823,-0.0927 0.67299,-0.12673 0.96875,-0.125 z m 18.5,0.0312 c 0.62036,0.004 1.11587,0.2269 1.5,0.625 0.38411,0.39814 0.58236,0.94815 0.59375,1.6875 0.0516,0.973 -0.4849,1.94402 -1.625,2.875 -1.14012,0.931 -3.20492,1.78877 -6.15625,2.59375 0.40599,-2.32133 1.0075,-4.03713 1.8125,-5.15625 0.80498,-1.11909 1.509,-1.84061 2.125,-2.125 0.23711,-0.14961 0.53837,-0.25186 0.84375,-0.34375 0.30536,-0.0919 0.60612,-0.15361 0.90625,-0.15625 z m 69.0625,0 c 0.62036,0.004 1.11587,0.2269 1.5,0.625 0.38411,0.39814 0.58236,0.94815 0.59375,1.6875 0.0516,0.973 -0.4849,1.94402 -1.625,2.875 -1.14012,0.931 -3.20492,1.78877 -6.15625,2.59375 0.40599,-2.32133 1.03875,-4.03713 1.84375,-5.15625 0.80498,-1.11909 1.509,-1.84061 2.125,-2.125 0.23711,-0.14961 0.50712,-0.25186 0.8125,-0.34375 0.30536,-0.0919 0.60612,-0.15361 0.90625,-0.15625 z m -20.25,0.0937 c 1.24947,-0.0394 2.26425,0.27865 3.09375,0.9375 0.82947,0.65888 1.28098,1.88916 1.3125,3.71875 -0.10764,2.81222 -0.90741,5.31754 -2.40625,7.53125 -1.49887,2.21372 -3.05766,3.407 -4.65625,3.53125 -0.52063,-0.0201 -1.01614,-0.20163 -1.5,-0.5 -0.48388,-0.29837 -0.84613,-0.60238 -1.09375,-0.9375 l 2.84375,-14 c 0.40686,-0.10411 0.82737,-0.17236 1.25,-0.21875 0.42261,-0.0464 0.81237,-0.0634 1.15625,-0.0625 z m -106.46875,0.15625 h 0.0312 c 0.91085,0.007 1.61837,0.40353 2.125,1.1875 0.5066,0.784 0.77336,1.92928 0.78125,3.40625 -0.0744,2.8481 -0.58015,5.19616 -1.53125,7.0625 -0.95113,1.86635 -1.9084,3.05613 -2.84375,3.53125 -0.29138,0.1645 -0.57864,0.253 -0.84375,0.3125 -0.26513,0.0595 -0.51089,0.0972 -0.78125,0.0938 -1.11737,-0.042 -1.97539,-0.59551 -2.5625,-1.6875 -0.58712,-1.09198 -0.87063,-2.45577 -0.875,-4.09375 0.01,-1.36497 0.11887,-2.56475 0.34375,-3.59375 0.22487,-1.02898 0.48787,-1.90075 0.8125,-2.59375 0.73148,-0.99572 1.6205,-1.83999 2.625,-2.53125 1.00448,-0.69122 1.90325,-1.06398 2.71875,-1.09375 z"
       style="font-style:italic;font-variant:normal;font-weight:normal;font-stretch:normal;font-size:42px;line-height:100%;font-family:Vikidemia;-inkscape-font-specification:'Vikidemia Italic';text-align:center;writing-mode:lr-tb;text-anchor:middle;fill:#808080;fill-opacity:1;stroke:none" />
  </g>
</svg>
