<?xml version="1.0" encoding="UTF-8" standalone="no"?>
<svg
   xmlns:dc="http://purl.org/dc/elements/1.1/"
   xmlns:cc="http://creativecommons.org/ns#"
   xmlns:rdf="http://www.w3.org/1999/02/22-rdf-syntax-ns#"
   xmlns:svg="http://www.w3.org/2000/svg"
   xmlns="http://www.w3.org/2000/svg"
   xmlns:xlink="http://www.w3.org/1999/xlink"
   id="svg2047"
   height="27.789089"
   width="340.3981"
   version="1.0">
  <metadata
     id="metadata62">
    <rdf:RDF>
      <cc:Work
         rdf:about="">
        <dc:format>image/svg+xml</dc:format>
        <dc:type
           rdf:resource="http://purl.org/dc/dcmitype/StillImage" />
      </cc:Work>
    </rdf:RDF>
  </metadata>
  <defs
     id="defs3">
    <linearGradient
       id="linearGradient3525">
      <stop
         offset="0"
         style="stop-color:#000066;stop-opacity:1"
         id="stop3527" />
      <stop
         offset="1"
         style="stop-color:#00004f;stop-opacity:1"
         id="stop3529" />
    </linearGradient>
    <linearGradient
       id="linearGradient3446">
      <stop
         offset="0"
         style="stop-color:#f4e3ca;stop-opacity:1"
         id="stop3448" />
      <stop
         offset="1"
         style="stop-color:#e9cc9d;stop-opacity:1"
         id="stop3450" />
    </linearGradient>
    <linearGradient
       id="linearGradient2917">
      <stop
         offset="0"
         style="stop-color:#d40000;stop-opacity:1"
         id="stop2919" />
      <stop
         offset="1"
         style="stop-color:#570000;stop-opacity:1"
         id="stop2921" />
    </linearGradient>
    <linearGradient
       gradientTransform="matrix(0.485989,0.460262,-0.482828,0.469608,235.2216,-80.23556)"
       gradientUnits="userSpaceOnUse"
       xlink:href="#linearGradient3525"
       id="linearGradient3071"
       y2="86.036026"
       x2="270.37161"
       y1="184.23257"
       x1="366.08591" />
    <linearGradient
       gradientTransform="matrix(0.620715,0.136186,-0.132947,0.605953,365.14,10.09319)"
       gradientUnits="userSpaceOnUse"
       xlink:href="#linearGradient3525"
       id="linearGradient3101"
       y2="255.5688"
       x2="95.290253"
       y1="365.66113"
       x1="196.08591" />
    <linearGradient
       gradientTransform="matrix(0.620931,0.304009,-0.292008,0.644049,194.0425,-60.61792)"
       gradientUnits="userSpaceOnUse"
       xlink:href="#linearGradient2917"
       id="linearGradient3103"
       y2="259.17615"
       x2="283.22876"
       y1="344.23257"
       x1="370.37161" />
    <linearGradient
       gradientTransform="matrix(0.492397,0.571556,-0.503799,0.505374,233.6223,-190.7188)"
       gradientUnits="userSpaceOnUse"
       xlink:href="#linearGradient3525"
       id="linearGradient3117"
       y2="434.30499"
       x2="439.24854"
       y1="521.37543"
       x1="536.08594" />
    <linearGradient
       gradientTransform="matrix(0.660096,0.05941423,-0.06000381,0.653611,-116.4365,105.7272)"
       gradientUnits="userSpaceOnUse"
       xlink:href="#linearGradient3525"
       id="linearGradient3125"
       y2="89.025398"
       x2="454.65735"
       y1="185.66115"
       x1="533.22876" />
    <linearGradient
       gradientTransform="translate(-476.4724,-112.8383)"
       gradientUnits="userSpaceOnUse"
       xlink:href="#linearGradient3446"
       id="linearGradient3452"
       y2="230.34946"
       x2="650.84174"
       y1="299.56409"
       x1="715.71844" />
    <linearGradient
       gradientTransform="translate(-419.3421,258.595)"
       gradientUnits="userSpaceOnUse"
       xlink:href="#linearGradient3446"
       id="linearGradient3460"
       y2="-358.38074"
       x2="723.2616"
       y1="-355.92725"
       x1="791.06329" />
    <linearGradient
       gradientTransform="translate(-137.3612,-469.7778)"
       gradientUnits="userSpaceOnUse"
       xlink:href="#linearGradient3446"
       id="linearGradient3474"
       y2="880.65918"
       x2="218.35574"
       y1="955.26855"
       x1="175.47467" />
    <linearGradient
       gradientTransform="translate(-490.353,22.1016)"
       gradientUnits="userSpaceOnUse"
       xlink:href="#linearGradient3446"
       id="linearGradient3482"
       y2="145.09717"
       x2="693.67474"
       y1="200.78854"
       x1="758.90216" />
    <linearGradient
       gradientTransform="translate(-450.4099,198.7519)"
       gradientUnits="userSpaceOnUse"
       xlink:href="#linearGradient3446"
       id="linearGradient3490"
       y2="-169.7764"
       x2="795.29053"
       y1="-140.09358"
       x1="870.85938" />
    <linearGradient
       gradientTransform="translate(-490.3612,21.8953)"
       gradientUnits="userSpaceOnUse"
       xlink:href="#linearGradient3446"
       id="linearGradient3498"
       y2="103.7599"
       x2="901.40399"
       y1="159.7126"
       x1="965.19623" />
    <linearGradient
       gradientTransform="translate(-379.7777,-307.2103)"
       gradientUnits="userSpaceOnUse"
       xlink:href="#linearGradient3446"
       id="linearGradient3506"
       y2="683.20331"
       x2="388.38828"
       y1="743.88672"
       x1="412.31854" />
    <linearGradient
       gradientTransform="translate(-476.4724,-112.8383)"
       gradientUnits="userSpaceOnUse"
       xlink:href="#linearGradient3446"
       id="linearGradient3514"
       y2="450.75146"
       x2="741.84326"
       y1="514.12738"
       x1="805.99457" />
    <linearGradient
       gradientTransform="translate(-489.4263,-30.47642)"
       gradientUnits="userSpaceOnUse"
       xlink:href="#linearGradient3446"
       id="linearGradient3522"
       y2="305.17203"
       x2="909.49103"
       y1="357.18353"
       x1="974.9718" />
    <linearGradient
       gradientTransform="matrix(0.868057,-0.04019387,0.04019387,0.868057,-383.372,26.04062)"
       gradientUnits="userSpaceOnUse"
       xlink:href="#linearGradient3525"
       id="linearGradient3531"
       y2="414.23257"
       x2="947.51447"
       y1="359.94687"
       x1="904.65735" />
    <linearGradient
       gradientTransform="matrix(0.279104,0,0,0.294448,61.36618,240.5454)"
       gradientUnits="userSpaceOnUse"
       xlink:href="#linearGradient3525"
       id="linearGradient3106"
       y2="230.67667"
       x2="897.16919"
       y1="429.67673"
       x1="1090.1083" />
    <linearGradient
       gradientTransform="matrix(0.110956,-0.03855391,0.03807676,0.115717,257.0759,100.5169)"
       gradientUnits="userSpaceOnUse"
       xlink:href="#linearGradient3525"
       id="linearGradient4929"
       y2="-144.08994"
       x2="-514.01392"
       y1="284.21475"
       x1="-190.76511" />
    <linearGradient
       gradientTransform="matrix(5.542162,3.319805,-4.164453,6.008209,1822.086,-2110.395)"
       gradientUnits="userSpaceOnUse"
       xlink:href="#linearGradient3525"
       id="linearGradient2865"
       y2="357.17325"
       x2="14.581494"
       y1="365.39426"
       x1="24.404194" />
  </defs>
  <path
     style="font-style:normal;font-variant:normal;font-weight:normal;font-stretch:normal;font-size:40px;font-family:'Nimbus Sans L';-inkscape-font-specification:'Nimbus Sans L';fill:#808080;fill-opacity:1;stroke:none;stroke-width:0.880446px;stroke-linecap:butt;stroke-linejoin:miter;stroke-opacity:1"
     id="text3484"
     d="M 0.15370774,2.751395 0.36006236,1.7024312 H 10.385458 L 10.179103,2.751395 9.8523751,2.7858205 8.6830322,2.8545833 C 7.949314,2.9119004 7.4391596,3.1412126 7.152569,3.5424321 6.8659529,3.9322321 6.5850817,4.8035131 6.3099545,6.1562573 L 4.1432305,17.041463 c -0.5273592,2.636761 -0.8024987,4.356378 -0.8254185,5.15887 -0.022936,0.802491 0.1662212,1.564852 0.567475,2.287091 0.8254088,1.444487 2.3444069,2.166726 4.5569986,2.166726 2.0749944,0 3.8633994,-0.630532 5.3652204,-1.891586 0.836862,-0.710776 1.444462,-1.496064 1.822799,-2.355881 0.389759,-0.859809 0.8082,-2.396003 1.255323,-4.608582 L 19.207118,6.1562573 19.430669,4.453835 C 19.522358,3.8003941 19.4937,3.3819531 19.344684,3.1985033 19.207091,3.0151063 18.81731,2.9004634 18.175341,2.8545833 L 17.005999,2.7858205 16.713663,2.751395 16.920018,1.7024312 h 8.151007 L 24.86467,2.751395 24.520746,2.78582 23.351403,2.854583 C 22.617671,2.9119 22.107516,3.1412123 21.82094,3.5424318 c -0.275166,0.3898 -0.550306,1.261081 -0.825419,2.6138252 L 18.86319,16.817909 c -0.470053,2.36163 -0.945815,4.092711 -1.427286,5.19326 -0.481516,1.100567 -1.21522,2.126604 -2.201116,3.078128 -1.845746,1.799871 -4.344927,2.699801 -7.4975515,2.699801 -6.2708941,0 -8.72995097,-3.387649 -7.37717766,-10.162966 L 2.6471557,6.1562573 2.8879032,4.453835 C 2.9681471,3.8003941 2.9394798,3.3819531 2.8019188,3.1985033 2.6643411,3.0151063 2.2688288,2.9004634 1.6153791,2.8545833 L 0.46323307,2.7858205 0.1537007,2.751395 m 46.2578283,24.40144 0.705045,-3.508033 c -2.189666,2.625289 -4.637258,3.937937 -7.342785,3.937937 -2.10941,0 -3.622675,-0.83115 -4.539802,-2.49345 -0.917135,-1.673764 -1.094829,-3.915002 -0.533083,-6.723723 0.630524,-3.118242 1.845722,-5.611684 3.645599,-7.480361 1.811325,-1.8800961 3.90353,-2.8201575 6.276619,-2.8201751 2.178172,1.76e-5 3.874864,0.8483629 5.090081,2.5450361 L 50.951331,4.4538262 C 51.226451,3.1010731 51.300967,2.2298009 51.174882,1.8400009 51.048756,1.4387815 50.630315,1.2152273 49.919558,1.1693473 L 48.767411,1.0833277 48.440683,1.066159 48.664234,-8.8044639e-6 h 6.586152 L 50.710584,22.699 c -0.275159,1.352771 -0.355408,2.229783 -0.240747,2.63102 0.126085,0.389783 0.555991,0.607605 1.289716,0.653459 l 1.134951,0.08602 0.309531,0.01717 -0.206354,1.066168 H 46.411536 M 49.455267,11.93418 c -1.50182,-1.318363 -3.089603,-1.9775442 -4.763353,-1.9775618 -3.141186,1.76e-5 -5.210462,2.4934598 -6.207835,7.4803518 -1.054707,5.29644 -0.05733,7.944655 2.992142,7.944655 0.940049,0 1.966089,-0.275139 3.078124,-0.825418 1.123471,-0.561743 2.057798,-1.261055 2.802983,-2.097946 L 49.455267,11.934178 M 64.605136,8.4777391 61.76776,22.699009 c -0.275148,1.35277 -0.349664,2.229783 -0.223551,2.63102 0.126098,0.389783 0.55027,0.607605 1.27252,0.653459 l 1.152147,0.08602 0.309531,0.01717 -0.206354,1.066168 H 54.3046 l 0.206355,-1.066168 0.343924,-0.01717 1.169343,-0.08602 c 0.664918,-0.04587 1.106287,-0.154765 1.32411,-0.326725 0.217814,-0.183424 0.412705,-0.601865 0.584671,-1.255323 l 0.447102,-1.702431 1.943172,-9.767452 0.240747,-1.685228 c 0.08024,-0.653441 0.05158,-1.071882 -0.08598,-1.2553226 C 60.340463,9.8075918 59.94495,9.6929577 59.291501,9.6470776 L 58.15655,9.561146 57.829822,9.5439773 58.036177,8.4778096 h 6.568955 M 61.905326,5.0901512 62.575979,1.7025016 h 3.387655 L 65.292981,5.0901512 H 61.905326 M 66.806248,27.152905 67.012603,26.086738 82.162471,9.5439773 h -6.104657 l -1.650837,0.017169 c -0.745179,1.77e-5 -1.238136,0.08602 -1.478875,0.2579444 -0.240755,0.1605142 -0.424181,0.5445563 -0.550279,1.1521433 -0.09172,0.481507 -0.183434,0.894216 -0.27514,1.238128 l -0.08598,0.361123 H 70.211096 L 71.019318,8.4777832 H 86.306757 L 86.100402,9.5439509 71.139692,25.880352 h 6.826898 l 2.115135,-0.08593 c 0.940044,0 1.490322,-0.41271 1.650837,-1.238128 l 0.257944,-1.289722 0.103177,-0.412709 h 1.805603 l -0.859811,4.299061 h -16.23323 m 20.979386,0 0.206355,-1.066168 15.149864,-16.54276 h -6.104652 l -1.650837,0.017169 c -0.745179,1.76e-5 -1.238137,0.08602 -1.478876,0.2579443 -0.240755,0.1605142 -0.424181,0.5445557 -0.550279,1.1521427 -0.09172,0.481508 -0.183434,0.894217 -0.275139,1.238128 l -0.08598,0.361124 H 91.19048 L 91.998701,8.4778008 H 107.28614 L 107.07979,9.5439685 92.119075,25.88037 h 6.826899 l 2.115136,-0.08593 c 0.94004,0 1.49032,-0.412709 1.65084,-1.238128 l 0.25794,-1.289721 0.10318,-0.41271 h 1.8056 l -0.85981,4.299062 H 87.785628 M 117.36312,8.4778448 114.52575,22.699114 c -0.27515,1.352771 -0.34967,2.229784 -0.22355,2.631021 0.1261,0.389782 0.55027,0.607605 1.27252,0.653458 l 1.15214,0.08602 0.30954,0.01717 -0.20636,1.066167 h -9.76745 l 0.20635,-1.066167 0.34393,-0.01717 1.16934,-0.08602 c 0.66492,-0.04587 1.10629,-0.154765 1.32411,-0.326725 0.21781,-0.183423 0.41271,-0.601864 0.58467,-1.255322 l 0.4471,-1.702432 1.94318,-9.767452 0.24074,-1.685227 c 0.0802,-0.653441 0.0516,-1.071882 -0.086,-1.255323 -0.13758,-0.1834145 -0.53309,-0.2980487 -1.18654,-0.3439287 l -1.13495,-0.085932 -0.32673,-0.017169 0.20636,-1.0661678 h 6.56895 m -2.69981,-3.3876584 0.67066,-3.3876496 h 3.38765 l -0.67065,3.3876496 h -3.38766 m 17.62613,22.0627539 0.70504,-3.508033 c -2.24698,2.625289 -4.7519,3.937937 -7.51474,3.937937 -1.60499,0 -2.76287,-0.527352 -3.47364,-1.582056 -0.69932,-1.066159 -0.86555,-2.522109 -0.49869,-4.367842 l 1.73682,-8.701284 0.24074,-1.685228 c 0.0802,-0.653441 0.0516,-1.071882 -0.086,-1.2553222 -0.13758,-0.1834146 -0.53309,-0.2980487 -1.18654,-0.3439288 l -1.13495,-0.085932 -0.32673,-0.017169 0.20636,-1.0661677 h 6.56895 L 124.9982,21.100011 c -0.57322,2.866038 0.16049,4.299053 2.20111,4.299053 1.86865,0 3.87487,-0.962988 6.01868,-2.888965 l 1.90878,-9.578297 0.24075,-1.685227 c 0.0917,-0.664905 0.063,-1.083345 -0.086,-1.2553235 -0.13759,-0.1834146 -0.5331,-0.2980487 -1.18655,-0.3439288 l -1.15214,-0.085932 -0.30954,-0.017169 0.20636,-1.0661678 h 6.56896 l -2.83738,14.2212701 -0.22355,1.702431 c -0.0917,0.653458 -0.0688,1.071899 0.0688,1.255323 0.14901,0.17196 0.55026,0.280871 1.20374,0.326725 l 1.15214,0.08602 0.30953,0.01717 -0.20635,1.066168 h -6.58615 m 17.45416,-15.167072 c 2.24696,-2.6138077 4.75761,-3.9207159 7.53194,-3.9207335 1.60496,1.76e-5 2.75711,0.5273697 3.45644,1.5820477 0.69929,1.0547218 0.86552,2.5049318 0.49869,4.3506468 l -1.73681,8.701285 -0.22356,1.702431 c -0.0917,0.653458 -0.0688,1.071899 0.0688,1.255323 0.14901,0.17196 0.55026,0.280871 1.20373,0.326724 l 1.15215,0.08602 0.29234,0.01717 -0.20636,1.066167 h -9.75026 l 0.20636,-1.066167 0.32673,-0.01717 1.18654,-0.08602 c 0.65344,-0.04587 1.08908,-0.154764 1.30691,-0.326724 0.22927,-0.183424 0.42989,-0.601865 0.60187,-1.255323 l 0.4471,-1.702431 1.63364,-8.168201 c 0.32098,-1.604966 0.33244,-2.716987 0.0344,-3.336064 -0.28662,-0.630514 -0.96301,-0.945776 -2.02916,-0.945793 -1.53621,1.7e-5 -3.61121,0.957265 -6.22503,2.871769 l -1.90878,9.578289 c -0.27515,1.35277 -0.34966,2.229783 -0.22354,2.63102 0.12609,0.389782 0.55027,0.607605 1.27251,0.653458 l 1.15215,0.08602 0.30953,0.01717 -0.20635,1.066167 h -9.76746 l 0.20636,-1.066167 0.34392,-0.01717 1.16934,-0.08602 c 0.66492,-0.04587 1.10629,-0.154764 1.32411,-0.326724 0.21782,-0.183424 0.41271,-0.601865 0.58467,-1.255323 l 0.44711,-1.702431 1.94317,-9.767453 0.24074,-1.685227 c 0.0802,-0.653441 0.0516,-1.071882 -0.086,-1.255323 -0.13757,-0.1834146 -0.53309,-0.2980488 -1.18654,-0.3439288 L 144,9.5614712 l -0.32672,-0.017169 0.20635,-1.0661678 h 6.56896 L 149.7435,11.98616 m 25.81152,12.604831 c -2.41895,1.994766 -4.61432,2.992144 -6.58615,2.992144 -1.58206,0 -2.80298,-0.498693 -3.66279,-1.496072 -0.84835,-1.008842 -1.12349,-2.269896 -0.82542,-3.783172 0.82541,-4.127084 4.58565,-6.190621 11.28072,-6.190639 h 0.70504 l 0.4643,-2.321491 c 0.59612,-2.946264 -0.22356,-4.4194091 -2.45906,-4.4194267 -2.22405,1.76e-5 -3.66853,1.1177707 -4.33344,3.3532677 l -0.086,0.326725 h -2.30429 l 0.68785,-3.4220483 c 2.59088,-1.0432145 4.89518,-1.564835 6.91288,-1.5648526 4.08121,1.76e-5 5.74924,1.8629365 5.00409,5.5887659 l -1.66803,8.322974 c -0.53883,2.705541 -0.2293,4.058312 0.9286,4.058303 0.21779,9e-6 0.53306,-0.05159 0.94579,-0.154765 l -0.15476,1.272527 c -0.8713,0.286603 -1.63366,0.429904 -2.2871,0.429904 -1.66232,0 -2.5164,-0.997378 -2.56224,-2.992144 m -0.70505,-0.378319 1.41009,-7.033252 h -0.79102 c -4.24174,9e-6 -6.67215,1.547666 -7.2912,4.642981 -0.21783,1.077631 -0.0516,1.971839 0.49869,2.682606 0.55027,0.710784 1.34703,1.066168 2.39028,1.066168 0.99737,0 2.25842,-0.452832 3.78316,-1.358503 m 15.99248,-10.644456 -1.82279,9.131189 c -0.27515,1.352771 -0.34966,2.229783 -0.22355,2.63102 0.1261,0.389783 0.55027,0.607605 1.27252,0.653459 l 1.15214,0.08602 0.72224,0.01717 -0.20635,1.066168 h -10.18016 l 0.20635,-1.066168 0.34393,-0.01717 1.16934,-0.08602 c 0.66492,-0.04587 1.10629,-0.154765 1.32411,-0.326725 0.21781,-0.183423 0.41271,-0.601864 0.58467,-1.255323 l 0.44711,-1.702431 1.94317,-9.767452 0.24074,-1.685228 c 0.0802,-0.65344 0.0516,-1.071881 -0.0859,-1.2553224 -0.13758,-0.1834146 -0.53309,-0.2980487 -1.18654,-0.3439288 l -1.13495,-0.085932 -0.32673,-0.017169 0.20635,-1.0661677 h 6.56896 l -0.70504,3.5080239 c 2.07499,-2.6138073 4.36209,-3.9207156 6.86129,-3.9207332 0.3439,1.76e-5 0.71649,0.06304 1.11775,0.1891551 l -1.03178,5.1072761 h -1.90867 l 0.0344,-0.30953 0.10318,-1.289713 c 0.0688,-0.607588 -0.17771,-0.911386 -0.73944,-0.911403 -1.70817,1.7e-5 -3.29022,0.90568 -4.74616,2.717005 M 207.33378,8.4782058 204.4964,22.699475 c -0.27514,1.352771 -0.34966,2.229784 -0.22355,2.631021 0.1261,0.389782 0.55027,0.607605 1.27252,0.653458 l 1.15215,0.08602 0.30953,0.01717 -0.20636,1.066167 h -9.76745 l 0.20636,-1.066167 0.34392,-0.01717 1.16935,-0.08602 c 0.66491,-0.04587 1.10628,-0.154765 1.32411,-0.326725 0.21781,-0.183423 0.4127,-0.601864 0.58467,-1.255322 l 0.4471,-1.702432 1.94317,-9.767452 0.24075,-1.685227 c 0.0802,-0.653441 0.0516,-1.071882 -0.086,-1.255323 -0.13757,-0.1834146 -0.53309,-0.2980487 -1.18654,-0.3439287 l -1.13495,-0.085932 -0.32673,-0.017169 0.20636,-1.0661678 h 6.56895 m -2.6998,-3.3876584 0.67065,-3.3876496 h 3.38765 l -0.67065,3.3876496 h -3.38765 m 17.62612,22.0627539 0.70505,-3.508033 c -2.24699,2.625289 -4.75191,3.937937 -7.51475,3.937937 -1.60499,0 -2.76286,-0.527352 -3.47364,-1.582056 -0.69931,-1.066159 -0.86555,-2.522109 -0.49869,-4.367842 l 1.73682,-8.701284 0.24075,-1.685228 c 0.0802,-0.653441 0.0516,-1.071882 -0.086,-1.2553222 -0.13758,-0.1834146 -0.53309,-0.2980487 -1.18654,-0.3439288 l -1.13495,-0.085932 -0.32673,-0.017169 0.20635,-1.0661677 h 6.56896 l -2.52784,12.6220267 c -0.57321,2.866038 0.16049,4.299053 2.20112,4.299053 1.86864,0 3.87486,-0.962988 6.01867,-2.888965 l 1.90878,-9.578297 0.24075,-1.685227 c 0.0917,-0.664905 0.063,-1.083346 -0.086,-1.2553235 -0.13759,-0.1834146 -0.5331,-0.2980487 -1.18655,-0.3439288 l -1.15214,-0.085932 -0.30954,-0.017169 0.20636,-1.0661678 h 6.56896 l -2.83738,14.2212701 -0.22355,1.702431 c -0.0917,0.653458 -0.0688,1.071899 0.0688,1.255323 0.14901,0.17196 0.55026,0.280871 1.20374,0.326725 l 1.15214,0.08602 0.30953,0.01717 -0.20635,1.066168 h -6.58615 M 252.85203,6.8674819e-4 248.31222,22.699695 c -0.27514,1.352771 -0.34966,2.229784 -0.22354,2.631021 0.1261,0.389782 0.55027,0.607605 1.27252,0.653458 l 1.15214,0.08602 0.30953,0.01717 -0.20635,1.066167 h -9.76745 l 0.20635,-1.066167 0.34393,-0.01717 1.16934,-0.08602 c 0.66492,-0.04587 1.10628,-0.154764 1.32411,-0.326724 0.21781,-0.183424 0.41271,-0.601865 0.58467,-1.255323 l 0.4471,-1.702432 3.6456,-18.2451821 0.24075,-1.7024312 c 0.0802,-0.6534321 0.0459,-1.0661413 -0.10318,-1.2381277 -0.13758,-0.183397 -0.53309,-0.2980399 -1.18654,-0.34392 l -1.13495,-0.08602 -0.32673,-0.017169 0.22355,-1.06616775627 h 6.56896 M 262.22396,8.4784171 259.38659,22.699687 c -0.27514,1.35277 -0.34967,2.229783 -0.22355,2.63102 0.1261,0.389782 0.55027,0.607605 1.27252,0.653459 l 1.15215,0.08602 0.30953,0.01717 -0.20636,1.066168 h -9.76745 l 0.20636,-1.066168 0.34392,-0.01717 1.16934,-0.08602 c 0.66492,-0.04587 1.10629,-0.154765 1.32412,-0.326725 0.21781,-0.183424 0.4127,-0.601865 0.58467,-1.255323 l 0.4471,-1.702431 1.94317,-9.767453 0.24075,-1.685227 c 0.0802,-0.653441 0.0516,-1.071882 -0.086,-1.2553227 -0.13757,-0.1834146 -0.53309,-0.2980487 -1.18654,-0.3439287 l -1.13495,-0.085932 -0.32673,-0.017169 0.20636,-1.0661678 h 6.56895 m -2.6998,-3.3876584 0.67065,-3.3876496 h 3.38765 l -0.67065,3.3876496 h -3.38765 m 5.27923,22.2691046 4.5742,-22.9053592 0.24075,-1.7024311 c 0.0802,-0.6534321 0.0459,-1.0661414 -0.10318,-1.2381278 -0.13758,-0.183397 -0.53309,-0.2980399 -1.18654,-0.3439199 l -1.13495,-0.08602 -0.32673,-0.017169 0.22355,-1.06616772502 h 6.56895 L 271.25195,11.986503 c 2.21257,-2.6138077 4.66589,-3.9207159 7.35997,-3.9207335 2.1094,1.76e-5 3.62265,0.8311678 4.53981,2.4934505 0.91711,1.662318 1.0948,3.897824 0.53308,6.706528 -0.61909,3.11825 -1.83428,5.617433 -3.64559,7.497547 -1.81135,1.880122 -3.90356,2.820184 -6.27663,2.820184 -2.18966,0 -3.89208,-0.848345 -5.10727,-2.545045 h -0.20635 l -0.89421,2.321491 h -2.7514 m 4.1099,-3.662798 c 1.53619,1.329844 3.12971,1.994766 4.78055,1.994766 3.1297,0 5.19325,-2.499183 6.19064,-7.497556 1.06614,-5.296414 0.0802,-7.944629 -2.95775,-7.944647 -2.04063,1.8e-5 -4.00673,0.97447 -5.89831,2.923355 l -2.11513,10.524082 m 28.45974,0.894208 c -2.41894,1.994765 -4.61433,2.992144 -6.58615,2.992144 -1.58205,0 -2.80299,-0.498694 -3.6628,-1.496072 -0.84834,-1.008842 -1.12348,-2.269897 -0.82541,-3.783173 0.82541,-4.127084 4.58565,-6.190621 11.28071,-6.190639 h 0.70505 l 0.4643,-2.32149 c 0.59612,-2.946264 -0.22357,-4.4194097 -2.45906,-4.4194273 -2.22405,1.76e-5 -3.66854,1.1177703 -4.33345,3.3532683 l -0.0859,0.326725 h -2.3043 l 0.68785,-3.4220489 c 2.59089,-1.0432146 4.89518,-1.564835 6.91288,-1.5648526 4.08122,1.76e-5 5.74925,1.8629365 5.0041,5.5887655 l -1.66803,8.322974 c -0.53883,2.705542 -0.2293,4.058312 0.92859,4.058304 0.21781,8e-6 0.53307,-0.0516 0.9458,-0.154765 l -0.15477,1.272526 c -0.87129,0.286603 -1.63366,0.429905 -2.2871,0.429905 -1.66231,0 -2.51639,-0.997379 -2.56223,-2.992144 m -0.70505,-0.378319 1.41009,-7.033253 h -0.79103 c -4.24174,9e-6 -6.67213,1.547666 -7.29119,4.642981 -0.21782,1.077632 -0.0516,1.971839 0.49869,2.682606 0.55027,0.710785 1.34703,1.066168 2.39027,1.066168 0.99737,0 2.25843,-0.452831 3.78317,-1.358502 m 15.99249,-10.644457 -1.8228,9.131189 c -0.27515,1.352771 -0.34967,2.229784 -0.22356,2.631021 0.1261,0.389782 0.55028,0.607605 1.27252,0.653458 l 1.15216,0.08602 0.72223,0.01717 -0.20635,1.066167 h -10.18017 l 0.20636,-1.066167 0.34392,-0.01717 1.16935,-0.08602 c 0.66491,-0.04587 1.10629,-0.154765 1.32411,-0.326725 0.21782,-0.183423 0.4127,-0.601864 0.58467,-1.255323 l 0.4471,-1.702431 1.94317,-9.767452 0.24075,-1.685227 c 0.0802,-0.653441 0.0516,-1.071882 -0.086,-1.255323 -0.13757,-0.1834146 -0.53308,-0.2980487 -1.18653,-0.3439288 l -1.13496,-0.085932 -0.32672,-0.017169 0.20636,-1.0661677 h 6.56894 l -0.70504,3.5080235 c 2.075,-2.613807 4.36209,-3.9207152 6.86129,-3.9207328 0.34391,1.76e-5 0.71649,0.06304 1.11776,0.1891551 l -1.03177,5.1072757 h -1.90878 l 0.0344,-0.30953 0.10318,-1.289713 c 0.0688,-0.607587 -0.17771,-0.911385 -0.73944,-0.911403 -1.70816,1.8e-5 -3.29022,0.90568 -4.74615,2.717005 m 20.61826,13.585015 0.70505,-3.508033 c -2.24699,2.625289 -4.7519,3.937937 -7.51475,3.937937 -1.60499,0 -2.76286,-0.527352 -3.47364,-1.582056 -0.69931,-1.066159 -0.86555,-2.522109 -0.49869,-4.367842 l 1.73682,-8.701284 0.24075,-1.685228 c 0.0802,-0.653441 0.0516,-1.071882 -0.086,-1.2553223 -0.13758,-0.1834146 -0.53308,-0.2980487 -1.18653,-0.3439288 l -1.13496,-0.085932 -0.32673,-0.017169 0.20635,-1.0661678 h 6.56896 l -2.52784,12.6220259 c -0.57321,2.866038 0.16049,4.299053 2.20112,4.299053 1.86864,0 3.87486,-0.962988 6.01868,-2.888965 l 1.90877,-9.578297 0.24075,-1.685227 c 0.0917,-0.664905 0.063,-1.083346 -0.0859,-1.2553227 -0.13759,-0.1834146 -0.5331,-0.2980487 -1.18655,-0.3439287 l -1.15214,-0.085932 -0.30954,-0.017169 0.20636,-1.0661678 h 6.56896 l -2.83738,14.2212702 -0.22355,1.702431 c -0.0917,0.653458 -0.0688,1.071899 0.0688,1.255323 0.14901,0.17196 0.55026,0.280871 1.20374,0.326725 l 1.15214,0.08602 0.30953,0.01717 -0.20635,1.066168 h -6.58615" />
</svg>
