<svg xmlns="http://www.w3.org/2000/svg" width="748" height="126" viewBox="0 0 748 126">
	<path fill="#696969" d="M0 7.99C2.33 5.19 4.82 2.52 7.45 0c2.43 2.05 4.96 4 7.54 5.87 1.9-1.91 3.78-3.84 5.65-5.78 2.88 2.33 5.95 4.41 9.07 6.42-2.39 2.67-4.42 5.79-7.47 7.79-2.8-1.53-5.28-3.55-7.76-5.53-1.82 1.95-3.59 3.94-5.38 5.91C6.04 12.49 2.98 10.3 0 7.99zm453.85 3.65c9.17-3.19 18.44-6.13 27.81-8.69-.96 4.08-1.94 8.17-3.32 12.14-6.85 1.99-13.39 4.91-20.25 6.88 6.23 7.4 13.13 14.19 19.54 21.42 1.24 1.59 3.48 1.01 5.24 1.21 13.42-.11 26.85.03 40.28-.09-.69-3.98-3.1-7.23-5.28-10.51-1.08-1.1-.26-2.51.16-3.7 1.5-3.68 3.38-7.2 5.52-10.55 3.3 5.21 6.06 10.98 6.66 17.19.41 8.52-1.91 16.87-5.13 24.68-13.73.32-27.46.01-41.19.16-2.59-.02-5.2.15-7.76-.26-2.31-1.91-3.64-4.68-5.21-7.17-.41 0-1.23.01-1.64.02-1.2 2.45-2.42 4.89-3.67 7.31-14.56.17-29.12-.01-43.68.1-1.96 4.44-3.58 9.44-7.51 12.56-5 2.92-10.82 4.26-16.52 4.86-5.65.04-12.27-1.41-15.28-6.7-3.66-6.1-1.84-13.65.9-19.72 2.87-5.48 6.38-11.07 11.92-14.18-3.05 5.34-6.39 10.99-6.07 17.38-.3 4.61 3.08 8.94 7.6 9.85 6.05 1.21 12.29-.01 18.17-1.57-1.37-1.48-2.31-3.67-4.4-4.25-3.52-.97-7.17-1.25-10.76-1.8 1.11-4.7 2.92-9.18 4.9-13.57 19.84-.23 39.68.07 59.52-.15-5.14-5.33-10.13-10.79-15.07-16.29 1.71-5.46 3.35-10.95 4.52-16.56zM195.73 17.1c1.87-3.79 4.76-6.93 7.29-10.27 2.18 6.12.93 12.71 1.58 19.05.64 6.18.83 12.39.79 18.61 22.19.12 44.39.11 66.59 0 1.63-1.27 3.26-2.53 4.9-3.79-5.45-1.69-12.01-3.59-16.9.48-.38.11-1.13.34-1.51.45.33-5.6.7-11.97 5.08-16.05 3.1-3.05 8.15-3.27 11.68-.82 6.22 3.92 13.18 6.75 20.6 7.09-1 3.2-2.12 6.37-3.26 9.52-3.29.33-6.7.82-9.35 2.96 16.78.53 33.58.1 50.37.21-.04-5.74-.53-11.51-1.99-17.08-.76-2.92-2.62-5.43-3.37-8.34 1.19-4.53 4.1-8.32 6.58-12.2.67 6.4 6.62 9.69 10.61 13.98-2.07 3.29-5.05 6.23-6.09 10.03-.38 9.82 1.92 20.19-1.98 29.56-.64 1.82-2.97.98-4.42 1.29-18.21-.1-36.41.07-54.61-.1-.01-4.17-.05-8.33-.36-12.48-3.34 3.92-5.19 8.88-8.79 12.62-23.96-.18-47.91.01-71.87-.1.21-7.27-.95-14.48-.88-21.75 0-7.62-1.6-15.27-.69-22.87zM360.7 9.38c.36.05 1.08.15 1.44.21.1 3.54.29 7.08.69 10.61.88 7.22.29 14.52 1.28 21.73.88 7.78-1.84 15.52-6.61 21.62-.51-11.24-2.23-22.39-3.23-33.59-.06-3.34-.72-6.96.93-10.04 1.79-3.53 3.83-6.94 5.5-10.54zM23.77 20.74c1.3-2.82 2.91-5.5 4.37-8.23 3.48 10.42 3.57 21.59 6.55 32.11 1.97-.04 3.95-.07 5.92-.08-.02 5.73-.03 11.46.01 17.19-3.04.01-6.08.02-9.12.04-1.61-3.6-2.78-7.36-3.55-11.22-1.5 3.44-3.04 6.86-4.75 10.21-5.73-1.62-11.33-3.84-17.28-4.5.63-5.6 1.27-11.34 3.7-16.49 2.96-5.39 8.92-7.93 13.14-12.12.56-2.27-.03-4.76 1.01-6.91m-5.96 20.74c2.58 1.93 5.8 1.87 8.87 1.85-.47-2.87-1.01-5.72-1.48-8.58-2.31 2.4-4.79 4.64-7.39 6.73zM94.76 28.9c3.69-1.73 7.72-4.04 11.93-2.78 4.35.97 7.42 4.87 8.59 9 .8 3.35-1.28 6.4-2.45 9.39 18.09.06 36.19.11 54.28-.02 2.59-8.66 8.44-17.48 17.97-19.14 2.19 6.37 4.28 12.91 4.91 19.65-.58 5.3-3.39 9.99-5.09 14.97-5.76-1.08-9.92-5.55-15.04-8.04-.77 3.23-1.55 6.47-2.14 9.75-20.39.13-40.78.09-61.17.02-.73-1.73-1.46-3.47-2.19-5.18-.92 1.72-1.81 3.46-2.69 5.2-20.11.01-40.22.13-60.32-.06.08-5.69.06-11.38.04-17.07 19.68-.22 39.37.3 59.04-.27-1.34-1.27-2.59-2.65-4.15-3.65-2.01-.51-4.12-.28-6.16-.37 1.58-3.79 3.07-7.61 4.64-11.4m80.71 9.39c2.01 1.27 4.04 2.52 6.11 3.7-.6-2.17-1.29-4.3-2.03-6.41-1.37.88-2.73 1.79-4.08 2.71zm366.07.95c2.65-5.45 5.95-11.01 11.4-14.07 5.98 5.05 8.1 13.24 7.93 20.81.22 7.83-1.67 15.58-4.61 22.79-2.05 4.46-5.25 9.2-10.36 10.3-5.71.92-10.94-2.36-15.15-5.82 11.27-1.37 21.36-9.3 25.44-19.87-.01-.25-.01-.75-.02-1-1.55 2.27-2.8 5.18-5.55 6.21-3.73.51-8.64-.17-10.22-4.14-1.92-4.89-.72-10.48 1.14-15.21m3.76 3.69c2.36 1.05 4.88 1.63 7.47 1.79-.24-2.53-1.01-4.94-2.72-6.86-1.84 1.43-3.5 3.09-4.75 5.07zM267.86 74.1c1.98-3.26 4.4-6.23 6.98-9.04 2.85 2.21 5.91 4.15 8.62 6.53-.61 3.49-4.28 5.61-6.29 8.4-3.26-1.7-6.34-3.72-9.31-5.89zm236.25-3.44c2.71 2.42 5.26 5.25 8.82 6.42 1.35-2.01 2.65-4.07 4.3-5.86 4.05 1.8 7.59 4.53 11.41 6.77-3.95 1.17-5.91 5.1-8.56 7.91-3.02-1.47-5.78-3.45-8.86-4.77-1.91 1.39-3.53 3.14-5.25 4.75-3.04-1.85-6.01-3.82-8.92-5.87 2.27-3.17 4.67-6.26 7.06-9.35zM391.43 81.13c2.54 1.44 4.66 3.54 7.32 4.79 1.67-1.53 3.11-3.29 4.85-4.74 2.87 1.71 5.43 3.89 8.18 5.81-2.13 2.61-4.33 5.17-6.67 7.59-2.4-1.78-4.82-3.52-7.21-5.29-1.52 1.83-3.05 3.64-4.6 5.43-2.33-2.14-6.56-3.18-7.27-6.52 1.24-2.71 3.24-5.04 5.4-7.07z"/>
</svg>
