<?xml version="1.0" encoding="UTF-8" standalone="no"?>
<svg
   xmlns:dc="http://purl.org/dc/elements/1.1/"
   xmlns:cc="http://creativecommons.org/ns#"
   xmlns:rdf="http://www.w3.org/1999/02/22-rdf-syntax-ns#"
   xmlns:svg="http://www.w3.org/2000/svg"
   xmlns="http://www.w3.org/2000/svg"
   xmlns:sodipodi="http://sodipodi.sourceforge.net/DTD/sodipodi-0.dtd"
   xmlns:inkscape="http://www.inkscape.org/namespaces/inkscape"
   style="enable-background:new"
   version="1.1"
   sodipodi:docname="icon.svg"
   height="430.00003"
   width="409.99994"
   inkscape:version="1.1-dev (ddb55ca, 2020-02-02)"
   sodipodi:version="0.32"
   id="svg1325">
  <title
     id="title5657">Neapolitan Wikisource logo</title>
  <metadata
     id="metadata1330">
    <rdf:RDF>
      <cc:Work
         rdf:about="">
        <dc:format>image/svg+xml</dc:format>
        <dc:type
           rdf:resource="http://purl.org/dc/dcmitype/StillImage" />
        <dc:title>Neapolitan Wikisource logo</dc:title>
        <cc:license
           rdf:resource="http://creativecommons.org/licenses/by-sa/3.0/" />
        <dc:creator>
          <cc:Agent>
            <dc:title>Ruthven</dc:title>
          </cc:Agent>
        </dc:creator>
      </cc:Work>
      <cc:License
         rdf:about="http://creativecommons.org/licenses/by-sa/3.0/">
        <cc:permits
           rdf:resource="http://creativecommons.org/ns#Reproduction" />
        <cc:permits
           rdf:resource="http://creativecommons.org/ns#Distribution" />
        <cc:requires
           rdf:resource="http://creativecommons.org/ns#Notice" />
        <cc:requires
           rdf:resource="http://creativecommons.org/ns#Attribution" />
        <cc:permits
           rdf:resource="http://creativecommons.org/ns#DerivativeWorks" />
        <cc:requires
           rdf:resource="http://creativecommons.org/ns#ShareAlike" />
      </cc:License>
    </rdf:RDF>
  </metadata>
  <defs
     id="defs1328">
    <filter
       id="filter4994"
       style="color-interpolation-filters:sRGB"
       inkscape:collect="always">
      <feBlend
         id="feBlend4996"
         in2="BackgroundImage"
         mode="lighten"
         inkscape:collect="always" />
    </filter>
  </defs>
  <sodipodi:namedview
     fit-margin-bottom="0"
     fit-margin-right="0"
     fit-margin-left="0"
     fit-margin-top="0"
     inkscape:window-maximized="0"
     showgrid="false"
     inkscape:guide-bbox="true"
     showguides="true"
     inkscape:current-layer="layer2"
     inkscape:window-y="23"
     inkscape:window-x="22"
     inkscape:cy="337.21036"
     inkscape:cx="240.34525"
     inkscape:zoom="1.4142136"
     id="base"
     pagecolor="#ffffff"
     bordercolor="#666666"
     borderopacity="1.0"
     inkscape:pageopacity="0.0"
     inkscape:pageshadow="2"
     inkscape:window-width="1242"
     inkscape:window-height="682" />
  <g
     id="g2908"
     transform="translate(12.221891,-29.061607)" />
  <text
     id="text4923"
     y="543.31561"
     x="198.04704"
     style="font-style:normal;font-variant:normal;font-weight:normal;font-stretch:normal;line-height:0%;font-family:sans-serif;-inkscape-font-specification:'sans-serif, Normal';text-align:start;letter-spacing:0px;word-spacing:0px;writing-mode:lr-tb;text-anchor:start;fill:#000000;fill-opacity:1;stroke:none;stroke-width:1px;stroke-linecap:butt;stroke-linejoin:miter;stroke-opacity:1"
     xml:space="preserve"><tspan
       style="font-size:22.5px;line-height:1.25"
       y="543.31561"
       x="198.04704"
       id="tspan4925"
       sodipodi:role="line"> </tspan></text>
  <g
     sodipodi:insensitive="true"
     style="display:none;filter:url(#filter4994)"
     inkscape:label="text"
     id="layer1"
     inkscape:groupmode="layer">
    <text
       id="text4913"
       y="511.12555"
       x="193.06706"
       style="font-style:normal;font-variant:normal;font-weight:normal;font-stretch:normal;line-height:0%;font-family:'Hoefler Text';-inkscape-font-specification:'Hoefler Text, Normal';text-align:center;letter-spacing:0px;word-spacing:0px;writing-mode:lr-tb;text-anchor:middle;fill:#000000;fill-opacity:1;stroke:none;stroke-width:1px;stroke-linecap:butt;stroke-linejoin:miter;stroke-opacity:1"
       xml:space="preserve"
       transform="translate(12.221891,-29.061607)"><tspan
         style="font-size:70px;line-height:1.25"
         y="511.12555"
         x="193.06706"
         id="tspan4917"
         sodipodi:role="line"><tspan
           id="tspan4921"
           style="font-style:normal;font-variant:normal;font-weight:normal;font-stretch:normal;font-size:70px;line-height:125%;font-family:'Hoefler Text';-inkscape-font-specification:'Hoefler Text, Normal';text-align:center;writing-mode:lr-tb;text-anchor:middle">W</tspan><tspan
           id="tspan4919"
           style="font-style:normal;font-variant:normal;font-weight:normal;font-stretch:normal;font-size:50px;line-height:125%;font-family:'Hoefler Text';-inkscape-font-specification:'Hoefler Text, Normal';text-align:center;writing-mode:lr-tb;text-anchor:middle">IKISOURCE</tspan></tspan></text>
  </g>
  <g
     inkscape:label="Image"
     id="layer2"
     inkscape:groupmode="layer">
    <g
       transform="matrix(1.005595,0,0,1.000506,-0.94274531,-0.21755622)"
       id="g2492">
      <path
         inkscape:connector-curvature="0"
         style="opacity:1;fill:#608ab4;fill-opacity:1;fill-rule:evenodd;stroke:none;stroke-width:0.564657;stroke-linecap:butt;stroke-linejoin:round;stroke-miterlimit:4;stroke-dasharray:none;stroke-dashoffset:0;stroke-opacity:1"
         d="M 203.5,0.21875 C 135.60706,0.67252098 75.52335,36.174749 38.78125,90.40625 H 370.8125 c -36.97963,-54.5821 -97.56677,-90.1875 -166,-90.1875 -0.43957,0 -0.87358,-0.002934 -1.3125,0 z"
         id="path1334" />
      <path
         inkscape:connector-curvature="0"
         style="opacity:1;fill:#375493;fill-opacity:1;fill-rule:evenodd;stroke:none;stroke-width:0.564657;stroke-linecap:butt;stroke-linejoin:round;stroke-miterlimit:4;stroke-dasharray:none;stroke-dashoffset:0;stroke-opacity:1"
         d="M 27,110 C 10.417835,141.08269 0.9375,176.91683 0.9375,215.09375 0.9375,333.71387 92.282775,430 204.8125,430 317.34222,430 408.65624,333.71387 408.65625,215.09375 408.65625,176.91683 399.20717,141.08269 382.625,110 Z"
         id="path2488" />
      <path
         inkscape:connector-curvature="0"
         style="opacity:1;fill:#d6dde3;fill-opacity:1;fill-rule:evenodd;stroke:none;stroke-width:0.564657;stroke-linecap:butt;stroke-linejoin:round;stroke-miterlimit:4;stroke-dasharray:none;stroke-dashoffset:0;stroke-opacity:1"
         d="M 38.78125,90.40625 C 34.523245,96.691084 30.607797,103.23731 27,110 h 355.625 c -3.6078,-6.76269 -7.5545,-13.308916 -11.8125,-19.59375 z"
         id="path2361" />
      <path
         sodipodi:nodetypes="ccccccsc"
         inkscape:connector-curvature="0"
         style="fill:#7bbce5;fill-opacity:1;fill-rule:evenodd;stroke:none;stroke-width:1px;stroke-linecap:butt;stroke-linejoin:miter;stroke-opacity:1"
         d="m 281.49057,36.648461 c -0.38427,-0.354038 -10.11004,8.294747 -9.59614,14.405095 -1.84851,19.41619 8.33495,34.048277 10.10052,44.233797 0,0 2.84312,-0.0349 2.86232,-0.0305 20.48826,-2.368922 53.83929,3.226892 54.18679,-4.946535 -0.17103,-6.13864 2.69852,-18.231089 -6.29299,-28.849636 -17.33623,-4.557943 -26.58454,-12.661474 -41.10573,-18.969165 -0.69432,-0.301597 -9.00136,-5.362168 -10.15477,-5.843056 z"
         id="path2219" />
      <path
         sodipodi:nodetypes="cscascccsccccccscc"
         inkscape:connector-curvature="0"
         style="fill:#ffffff;fill-opacity:1;fill-rule:evenodd;stroke:none;stroke-width:1px;stroke-linecap:butt;stroke-linejoin:miter;stroke-opacity:1"
         d="m 281.39574,36.646329 c -0.0443,-0.06312 -0.93758,0.497133 -1.03077,0.475318 -0.87981,-0.205962 -3.2927,-0.490163 -3.88328,-0.595138 0.0236,0.004 -7.14872,1.355729 -10.73471,1.083208 -4.49972,-0.341961 -6.55585,-1.812337 -13.11348,-3.379453 -0.33833,-0.08085 -0.70152,0.214239 -1.12332,-0.297979 -1.10192,0.503977 -4.06301,1.363123 -7.00893,3.206326 -13.5656,8.199955 -14.31206,14.522629 -27.39453,20.673198 -1.02784,-0.04308 -1.88717,0.419238 -2.26361,0.168306 -7.18585,-4.790135 -17.87967,-6.395284 -30.39043,-12.986321 -10.58967,5.394906 -8.23745,1.54989 -14.8301,3.091292 -6.85069,1.284503 -27.96334,18.05138 -38.58679,23.192883 -8.65346,4.411087 -31.044662,11.646922 -32.329162,19.097032 15.670922,5.566172 57.997452,5.734586 73.668372,3.59375 8.90588,-2.140836 15.24347,0.873784 24.40625,0.53125 26.23156,1.129974 54.66731,-2.073799 80.40905,0.667121 1.54893,0.164927 3.08741,0.161676 4.80465,0.120232 -0.1159,-10.440606 -13.54483,-51.057808 -0.59921,-58.641025 z"
         id="path2230" />
      <path
         inkscape:connector-curvature="0"
         style="fill:#7bbce5;fill-opacity:1;fill-rule:evenodd;stroke:none;stroke-width:1px;stroke-linecap:butt;stroke-linejoin:miter;stroke-opacity:1"
         d="m 196.27186,53.897897 c 3.34466,10.104747 6.24474,20.209493 5.13801,30.31424 -1.19887,6.251242 1.45577,5.823075 6.42251,3.339705 4.88111,-2.654637 7.45011,-5.566174 14.64332,-7.963911 5.56617,-1.541402 1.62704,-5.651807 -1.0276,-8.477711 -7.93859,-7.551383 -16.57194,-12.32376 -25.17624,-17.212323 z"
         id="path2221"
         sodipodi:nodetypes="cccccc" />
      <path
         inkscape:connector-curvature="0"
         style="fill:#294584;fill-opacity:1;fill-rule:evenodd;stroke:none;stroke-width:1px;stroke-linecap:butt;stroke-linejoin:miter;stroke-opacity:1"
         d="m 224.8125,110 c 5.85125,77.79306 58.1045,87.34975 91,71.625 -16.44821,-16.26544 -10.48224,-49.41573 7.0625,-49.78125 32.4517,-0.78967 23.2119,59.826 23.21875,89.25 C 363.83576,217.48573 362.6738,150.35502 358.90625,110 Z"
         id="path2364" />
      <path
         inkscape:connector-curvature="0"
         style="fill:#e0e9ea;fill-opacity:1;fill-rule:evenodd;stroke:none;stroke-width:1px;stroke-linecap:butt;stroke-linejoin:miter;stroke-opacity:1"
         d="m 56.75,110 c 0.637786,6.69675 1.268466,13.397 1.90625,20.09375 4.292309,7.85858 7.483965,15.70392 6.59375,23.5625 8.479185,-2.08951 13.53165,-3.18248 18.09375,5.5 19.95341,12.42307 38.90595,13.90497 57.5625,12.0625 3.79297,45.14116 2.68676,81.45165 1.09375,135.40625 11.33098,18.82405 22.66902,36.67594 34,55.5 6.50695,11.44438 17.91988,15.05829 26.875,1.53125 7.67583,-3.4724 15.32417,-6.93386 23,-10.40625 0,3.83791 0,7.66209 0,11.5 11.78828,2.96619 23.44762,7.47829 18.09375,19.75 -4.07445,7.92506 -1.78141,11.45136 9.8125,6.15625 10.24127,-4.98823 16.56132,2.74796 21.90625,4.125 -7.62007,-8.11547 -1.06252,-24.09146 -0.8221,-40.59145 10.9342,-0.99882 23.41914,-10.90973 34.35335,-11.90855 22.48217,-21.8205 26.35358,-29.93925 26.3125,-58.125 2.25857,-7.31031 5.50226,-9.2412 3.84375,-21.9375 1.2793,-7.85858 3.06445,-18.14141 4.34375,-26 0.87631,-5.14356 1.71958,-10.17941 2.5625,-15.15625 -0.0609,0.014 -0.12615,0.0188 -0.1875,0.0312 -0.007,-29.424 9.23295,-90.03967 -23.21875,-89.25 -17.54474,0.36552 -23.51071,33.51581 -7.0625,49.78125 -3.81319,1.82279 -7.89404,3.32999 -12.125,4.40625 1.33378,7.67129 -4.208,15.54294 -11.46875,15.875 -7.24483,-0.64799 -17.90106,6.54198 -24.65625,23.03125 -10.79639,22.77148 -20.62101,2.96077 -24.5625,-3.15625 -5.05858,-6.71709 1.15326,-12.96115 -12.71875,-8.90625 -9.14474,2.82738 -20.75177,4.69523 -23.53125,-9.125 -11.6965,-11.87925 -22.89725,-22.30825 -34.59375,-34.1875 -4.66993,-5.55821 -0.78034,-10.1341 -0.75,-12.09375 -1.4e-4,-0.0415 9.2e-4,-0.1093 0,-0.15625 -4.7e-4,-0.007 8.6e-4,-0.0249 0,-0.0312 -0.006,-0.022 -0.0243,-0.0723 -0.0312,-0.0937 -0.006,-0.0237 -0.0229,-0.0712 -0.0312,-0.0937 -0.015,-0.037 -0.0419,-0.0912 -0.0625,-0.125 -0.005,-0.011 -0.0258,-0.0517 -0.0312,-0.0625 -0.008,-0.008 -0.0273,-0.0266 -0.0312,-0.0312 -0.0195,-0.021 -0.0672,-0.0696 -0.0937,-0.0937 -0.0299,-0.0235 -0.0829,-0.0663 -0.125,-0.0937 -0.0167,-0.0102 -0.0472,-0.0235 -0.0625,-0.0312 -0.0541,-0.0259 -0.12293,-0.0414 -0.1875,-0.0625 -4.56211,-2.87918 -10.09399,0.58695 -16.125,3.09375 -15.74335,2.89061 -21.89087,0.10867 -23.59375,-8.21875 C 131.12411,137.714 123.38767,139.14891 110.75,141.0625 74.322432,146.2524 68.431439,133.35895 57.8125,110 Z"
         id="path2370"
         sodipodi:nodetypes="cccccccccccccccccccccccccccccssssssssssscccccc" />
      <path
         inkscape:connector-curvature="0"
         style="fill:#4d8ac0;fill-opacity:1;fill-rule:evenodd;stroke:none;stroke-width:1px;stroke-linecap:butt;stroke-linejoin:miter;stroke-opacity:1"
         d="m 57.8125,110 c 10.618935,23.35895 16.50993,36.2524 52.9375,31.0625 12.63767,-1.91359 20.37411,-3.3485 20.28125,10.40625 1.70288,8.32742 7.8504,11.10936 23.59375,8.21875 6.03101,-2.50681 11.56289,-5.97293 16.125,-3.09375 0.0646,0.0211 0.1334,0.0366 0.1875,0.0625 0.0153,0.008 0.0458,0.021 0.0625,0.0312 0.0421,0.0274 0.0951,0.0703 0.125,0.0937 0.0266,0.0242 0.0743,0.0727 0.0937,0.0937 0.004,0.005 0.023,0.023 0.0312,0.0312 0.005,0.0108 0.0261,0.0515 0.0312,0.0625 0.0206,0.0338 0.0475,0.088 0.0625,0.125 0.008,0.0225 0.0248,0.0701 0.0312,0.0937 0.007,0.0214 0.0254,0.0717 0.0312,0.0937 8.6e-4,0.006 -4.7e-4,0.024 0,0.0312 9.2e-4,0.047 -1.4e-4,0.11479 0,0.15625 -0.0303,1.95966 -3.91993,6.53554 0.75,12.09375 11.6965,11.87925 22.89725,22.30825 34.59375,34.1875 2.77948,13.82023 14.38651,11.95238 23.53125,9.125 13.87201,-4.0549 7.66017,2.18916 12.71875,8.90625 3.94149,6.11702 13.76611,25.92773 24.5625,3.15625 6.75519,-16.48926 17.41142,-23.67924 24.65625,-23.03125 7.26075,-0.33207 12.80253,-8.20371 11.46875,-15.875 -32.26858,8.20836 -73.70202,-7.25583 -78.875,-76.03125 h -167 z"
         id="path2383" />
      <path
         inkscape:connector-curvature="0"
         style="fill:#d6dde3;fill-opacity:1;fill-rule:evenodd;stroke:none;stroke-width:1px;stroke-linecap:butt;stroke-linejoin:miter;stroke-opacity:1"
         d="m 166.9375,199.375 c -10.49836,0.68491 -5.02617,35.78579 -3.875,52.40625 1.55536,16.36112 5.2025,12.50708 16.625,5.375 5.25263,10.65336 2.05871,16.60557 -5.375,23.5 -5.53447,5.23014 -8.70879,13.04221 -3.90625,22.03125 1.46891,2.44818 2.7024,3.48598 4.40625,7.34375 1.14248,2.28497 2.26377,4.59001 3.40625,6.875 1.3181,5.0522 -0.16914,8.20336 -2.375,10.90625 -2.04267,2.9254 -2.43723,5.87483 0.21875,13.96875 1.44914,4.70097 -2.52277,10.3141 3.625,15.25 2.72443,2.11626 5.39313,3.69974 8.125,4.875 -2.37039,-6.89948 -2.44052,-16.85672 -1.28125,-25.40625 0.7831,-8.066 1.32629,-13.08075 8.6875,-18.5625 6.42148,-3.28905 4.63932,-20.663 5.1875,-31 0.0632,0.0553 0.15277,0.10501 0.21875,0.15625 -0.008,-0.0459 0.008,-0.11024 0,-0.15625 13.73591,-2.90054 6.08852,-13.88732 1.875,-24.4375 l -33.59375,-62.875 c -0.66383,-0.18427 -1.27494,-0.27218 -1.84375,-0.25 -0.0417,0.002 -0.0838,-0.003 -0.125,0 z"
         id="path2398" />
      <path
         inkscape:connector-curvature="0"
         style="fill:#608ab4;fill-opacity:1;fill-rule:evenodd;stroke:none;stroke-width:1px;stroke-linecap:butt;stroke-linejoin:miter;stroke-opacity:1"
         d="M 168.90625,199.625 202.5,262.5 c 4.21352,10.55018 11.86091,21.53696 -1.875,24.4375 1.22437,7.3612 10.3286,13.76767 20.4375,12.90625 10.51471,-0.6776 18.16148,7.184 21.625,15.125 0.45746,-8.75698 1.52547,-17.44647 3.65625,-26.03125 1.35764,-4.24351 9.05137,-8.00316 2.65625,-13.65625 -25.89874,-28.51518 -50.86187,-50.93235 -78.875,-75.21875 -0.42571,-0.18465 -0.82773,-0.32896 -1.21875,-0.4375 z"
         id="path2404" />
      <path
         inkscape:connector-curvature="0"
         style="fill:#236798;fill-opacity:1;fill-rule:evenodd;stroke:none;stroke-width:1px;stroke-linecap:butt;stroke-linejoin:miter;stroke-opacity:1"
         d="m 200.40625,286.9375 c -0.54818,10.337 1.23398,27.71095 -5.1875,31 -7.36121,5.48175 -7.9044,10.4965 -8.6875,18.5625 -1.16083,8.56106 -1.09858,18.53699 1.28125,25.4375 2.42956,1.03841 4.91891,1.74207 7.5625,2.1875 4.44626,0.39814 7.24517,1.49751 16.625,-0.21875 8.21255,-0.9471 13.14404,-4.95804 22.53125,-6.375 5.12392,-1.00641 8.59202,-2.96181 8.3125,-10.78125 -0.39106,-10.67921 -0.7069,-21.28098 -0.15625,-31.78125 -3.46352,-7.941 -11.11029,-15.8026 -21.625,-15.125 -9.99044,0.85133 -19.01464,-5.40429 -20.40625,-12.65625 -0.003,-0.0143 0.003,-0.0169 0,-0.0312 -0.005,-0.004 0.005,-0.0268 0,-0.0312 -0.0763,-0.0664 -0.17505,-0.11714 -0.25,-0.1875 z"
         id="path2407" />
      <path
         inkscape:connector-curvature="0"
         style="fill:#608ab4;fill-opacity:1;fill-rule:evenodd;stroke:none;stroke-width:1px;stroke-linecap:butt;stroke-linejoin:miter;stroke-opacity:1"
         d="m 338.46875,276.53125 c -0.86265,2.39216 -1.98114,4.52954 -2.9375,7.625 0.0411,28.18575 -3.83033,36.3045 -26.3125,58.125 -0.20231,0.0507 -6.63094,15.12605 -12.09375,19.0625 -9.21499,6.81242 -8.63968,12.98963 -12.0625,20.4375 -2.47712,3.76457 -5.89789,4.37113 -8.375,3.6875 -1.54662,-1.22101 -3.10963,-1.79977 -4.65625,-3.65625 -0.0978,3.04556 0.11447,5.81876 0.90625,8.25 0.0355,0.0719 0.0584,0.14683 0.0937,0.21875 0.003,0.01 -0.003,0.0217 0,0.0312 0.43389,0.88276 0.84072,1.77349 1.25,2.65625 0.0224,0.0359 0.0397,0.0581 0.0625,0.0937 0.004,0.008 -0.004,0.0228 0,0.0312 0.37182,0.5792 0.8005,1.13855 1.28125,1.65625 -0.14636,-0.039 -0.2896,-0.077 -0.4375,-0.125 9.43846,15.09215 22.76811,19.8126 39.875,13.875 9.2112,-4.01758 14.59632,-7.69594 20.3125,-12.03125 4.97223,-4.71629 10.88806,-13.57043 1.5625,-14.15625 -1.32869,-0.35167 -2.06854,-0.69578 -2.4375,-1.0625 -0.0134,-0.0139 -0.0501,-0.0485 -0.0625,-0.0625 -0.0355,-0.042 -0.0671,-0.11334 -0.0937,-0.15625 -0.0378,-0.0646 -0.0739,-0.15178 -0.0937,-0.21875 -0.004,-0.0149 -0.0281,-0.0474 -0.0312,-0.0625 -0.004,-0.0227 0.002,-0.0707 0,-0.0937 -0.002,-0.0231 2.1e-4,-0.0703 0,-0.0937 0.0185,-1.34464 2.57735,-3.26261 0.625,-7.15625 -1.33563,-5.95557 4.3405,-11.58637 8.40625,-13.09375 -2.79484,-6.11371 -5.61141,-12.23004 -8.40625,-18.34375 0.19315,-4.01451 8.09071,-6.13374 6.8125,-13.625 2.27953,-18.8442 5.36916,-46.81501 -3.1875,-51.8125 z"
         id="path2460"
         sodipodi:nodetypes="ccccccccssssscccccsssssssccccc" />
      <path
         inkscape:connector-curvature="0"
         style="fill:#236798;fill-opacity:1;fill-rule:evenodd;stroke:none;stroke-width:1px;stroke-linecap:butt;stroke-linejoin:miter;stroke-opacity:1"
         d="m 288.03125,202.3125 c -6.75503,1.81778 -14.92738,9.09865 -20.46875,22.625 -2.5304,5.33707 -5.01459,8.33537 -7.375,9.71875 0.23656,23.24892 5.75963,39.80063 17.1875,48.875 -3.3891,13.4505 -6.76776,31.99234 -0.625,43.21875 -10.37915,-3.28318 -6.14737,17.5845 -9.21875,26.375 -5.18958,14.61553 -9.75316,13.97909 -14.625,15.25 4.4482,5.08367 10.17132,10.47896 18.75,13.65625 10e-4,0.0166 -0.003,0.0459 0,0.0625 0.0174,0.075 0.078,0.17412 0.125,0.25 0.63926,0.97085 3.51671,2.028 4.90625,3.125 2.47711,0.68363 5.89788,0.0771 8.375,-3.6875 3.42282,-7.44787 2.84751,-13.62508 12.0625,-20.4375 5.33544,-3.84467 11.61619,-18.34238 12.09375,-19.0625 -18.23428,-10.24798 -26.85326,-29.77735 -23.90625,-48.59375 0.84727,-5.18956 4.24161,-11.00814 -0.3125,-19.375 -5.44577,-22.99329 -1.97762,-49.74506 3.03125,-72 z"
         id="path2468" />
    </g>
  </g>
</svg>
