<?xml version="1.0" encoding="UTF-8" standalone="no"?>
<svg
   xmlns:dc="http://purl.org/dc/elements/1.1/"
   xmlns:cc="http://creativecommons.org/ns#"
   xmlns:rdf="http://www.w3.org/1999/02/22-rdf-syntax-ns#"
   xmlns:svg="http://www.w3.org/2000/svg"
   xmlns="http://www.w3.org/2000/svg"
   xmlns:sodipodi="http://sodipodi.sourceforge.net/DTD/sodipodi-0.dtd"
   xmlns:inkscape="http://www.inkscape.org/namespaces/inkscape"
   height="302.5"
   width="302.5"
   id="svg3023"
   version="1.1"
   inkscape:version="0.48.5 r"
   sodipodi:docname="Wikivoyage-Logo-v3-ar.svg">
  <metadata
     id="metadata3059">
    <rdf:RDF>
      <cc:Work
         rdf:about="">
        <dc:format>image/svg+xml</dc:format>
        <dc:type
           rdf:resource="http://purl.org/dc/dcmitype/StillImage" />
        <dc:title />
      </cc:Work>
    </rdf:RDF>
  </metadata>
  <defs
     id="defs3057" />
  <sodipodi:namedview
     pagecolor="#ffffff"
     bordercolor="#666666"
     borderopacity="1"
     objecttolerance="10"
     gridtolerance="10"
     guidetolerance="10"
     inkscape:pageopacity="0"
     inkscape:pageshadow="2"
     inkscape:window-width="1321"
     inkscape:window-height="744"
     id="namedview3055"
     showgrid="false"
     inkscape:zoom="1.7157025"
     inkscape:cx="35.845377"
     inkscape:cy="127.93593"
     inkscape:window-x="45"
     inkscape:window-y="24"
     inkscape:window-maximized="1"
     inkscape:current-layer="svg3023" />
  <path
     d="m234.53,96.217,38.891-77.782-77.782,38.891c18.98,5.0857,33.805,19.911,38.891,38.891z"
     fill="#900"
     id="path3025" />
  <path
     d="m94.599,84.4-86.806,5.2104,72.571,47.916c-5.0857-18.98,0.34069-39.232,14.235-53.126z"
     fill="#069"
     id="path3027" />
  <path
     d="m154.33,211.49,47.916,72.571,5.2104-86.806c-13.894,13.894-34.146,19.321-53.126,14.235z"
     fill="#396"
     id="path3029" />
  <g
     style="font-size:40px;font-style:normal;font-weight:normal;line-height:125%;letter-spacing:0px;word-spacing:0px;fill:#666666;fill-opacity:1;stroke:none;font-family:Sans"
     id="text3012"
     transform="translate(8.1599228,4.0799614)">
    <path
       d="m 222.25398,161.823 c 0.27343,-1.0742 1.05467,-0.83983 2.34375,0.70312 1.28905,1.52346 2.36326,3.77931 3.22266,6.76758 1.85545,6.71875 0.65428,12.85156 -3.60352,18.39844 -2.46095,3.20311 -5.48829,5.27342 -9.08203,6.21094 -1.34766,0.35154 -2.48047,0.32225 -3.39844,-0.0879 -3.53515,-1.52345 -6.27929,-2.77345 -8.23242,-3.75 -0.68359,-0.33205 -0.9082,-0.7422 -0.67383,-1.23047 0.21485,-0.46876 0.65431,-0.60548 1.31836,-0.41016 2.61719,0.80077 4.77539,0.99608 6.47461,0.58594 1.69922,-0.39064 3.90625,-1.40626 6.6211,-3.04688 4.68748,-2.83203 7.54881,-5.60547 8.58398,-8.32031 0.0391,-0.11718 0.0586,-0.22461 0.0586,-0.32227 -0.37112,-1.87499 -2.0801,-4.39452 -5.12696,-7.55859 -0.29298,-0.31249 -0.38087,-0.70311 -0.26367,-1.17187 l 1.75781,-6.76758"
       style="font-size:60px;font-variant:normal;font-weight:bold;font-stretch:normal;fill:#666666;font-family:Amiri;-inkscape-font-specification:Amiri Bold"
       id="path2998"
       inkscape:connector-curvature="0" />
    <path
       d="m 190.61336,165.25073 c 1.60154,0.72267 3.74021,1.41603 6.41601,2.08008 2.67576,0.66407 5.08786,0.97657 7.23633,0.9375 1.13278,0.0586 1.35739,0.7715 0.67383,2.13867 -3e-5,1e-5 -0.61527,1.20118 -1.8457,3.60352 -0.42972,0.83985 -1.01566,1.22071 -1.75782,1.14258 -2.1094,-0.23437 -4.48244,-0.12695 -7.11914,0.32226 -2.6172,0.44922 -4.95119,1.01563 -7.00195,1.69922 -6.01563,2.01172 -9.79493,3.07617 -11.33789,3.19336 -1.52344,0.13672 -2.79297,0.14648 -3.80859,0.0293 l -0.79102,-0.0879 0,-6.67969 c 0.33203,-1.62109 1.55273,-3.99413 3.66211,-7.11914 2.10937,-3.14452 4.17968,-4.66795 6.21094,-4.57031 1.58202,0.0781 4.73631,1.18165 9.46289,3.31054 m -4.48242,5.47852 c -2.07033,-1.01562 -4.32619,-1.52343 -6.76758,-1.52344 -2.44141,1e-5 -4.29688,1.29884 -5.56641,3.89648 3.20312,-0.15624 7.31444,-0.94725 12.33399,-2.37304"
       style="font-size:60px;font-variant:normal;font-weight:bold;font-stretch:normal;fill:#666666;font-family:Amiri;-inkscape-font-specification:Amiri Bold"
       id="path3000"
       inkscape:connector-curvature="0" />
    <path
       d="m 160.78914,140.14331 1.93359,-2.46094 c 0.91796,-1.17183 1.43554,-0.58589 1.55274,1.75782 0.85936,13.63283 1.81639,22.56837 2.87109,26.80664 1.07421,4.21876 2.60741,6.55274 4.59961,7.00195 1.67967,0.44922 2.30467,2.16797 1.875,5.15625 -0.19533,1.32812 -0.88869,1.99219 -2.08008,1.99219 -3.67188,0 -6.15235,-2.29492 -7.4414,-6.88477 -0.6836,-2.42187 -1.20118,-5.43944 -1.55274,-9.05273 -0.33204,-3.61327 -0.52735,-5.71287 -0.58594,-6.29883 -0.95703,8.76954 -3.41797,15.54688 -7.38281,20.33203 -1.66015,1.99219 -3.75976,3.24219 -6.29883,3.75 -3.35936,0.68359 -6.66014,1.07421 -9.90234,1.17187 -0.70311,0.0195 -1.09373,-0.22461 -1.17188,-0.73242 -0.0976,-0.48828 0.10745,-0.82031 0.61524,-0.99609 9.60938,-3.41797 15.79102,-7.59765 18.54492,-12.53906 1.48437,-2.94921 2.51953,-6.99217 3.10547,-12.12891 0.58593,-5.13669 0.83984,-9.09176 0.76172,-11.86523 -0.0781,-2.7734 0.10742,-4.44332 0.55664,-5.00977"
       style="font-size:60px;font-variant:normal;font-weight:bold;font-stretch:normal;fill:#666666;font-family:Amiri;-inkscape-font-specification:Amiri Bold"
       id="path3002"
       inkscape:connector-curvature="0" />
    <path
       d="m 157.68367,167.50659 c 0.27341,2.48048 0.0976,3.81837 -0.52734,4.01367 -0.56644,0.17579 -1.03519,-0.35155 -1.40625,-1.58203 -1.77737,-5.72264 -5.68362,-10.38084 -11.71875,-13.97461 l -0.70313,1.43555 c -0.64454,1.30861 -1.81642,1.38674 -3.51562,0.23437 l -5.24414,-3.63281 c -1.01563,-0.68357 -1.53321,-1.52341 -1.55274,-2.51953 l -0.11719,-6.41601 c -0.0195,-0.87888 0.29297,-1.50387 0.9375,-1.875 0.64453,-0.39059 1.40625,-0.37106 2.28516,0.0586 13.32029,6.91409 20.50779,15.00002 21.5625,24.25781"
       style="font-size:60px;font-variant:normal;font-weight:bold;font-stretch:normal;fill:#666666;font-family:Amiri;-inkscape-font-specification:Amiri Bold"
       id="path3004"
       inkscape:connector-curvature="0" />
    <path
       d="m 79.929764,175.09448 c -1.97266,-2.4414 -2.294925,-5.55663 -0.966797,-9.3457 0.54687,-1.52342 1.591791,-3.15428 3.134766,-4.89258 0.566398,-0.62498 1.054678,-0.7324 1.464843,-0.32226 0.390616,0.39064 0.322256,0.86915 -0.205078,1.43554 -1.425789,1.52346 -2.031257,2.94924 -1.816406,4.27735 0.761711,4.60938 6.767564,6.91407 18.017578,6.91406 9.53122,0.0195 17.42183,-1.72851 23.67188,-5.24414 -0.33208,-1.46483 -1.22076,-2.82225 -2.66602,-4.07227 -0.37114,-0.33201 -0.45903,-0.80076 -0.26367,-1.40625 l 1.78711,-5.30273 c 0.37104,-1.09373 0.98628,-0.97654 1.8457,0.35156 2.0312,3.14455 2.66596,7.0215 1.9043,11.63086 -0.39068,2.26563 -1.25005,3.81837 -2.57813,4.6582 -6.54301,4.14063 -14.52152,6.46485 -23.935545,6.97266 -9.472672,0.50781 -15.937509,-1.37695 -19.394531,-5.6543 m 23.818356,-26.16211 c 0.23435,-0.332 0.57615,-0.42965 1.02539,-0.29297 1.6406,0.58597 3.10544,1.44535 4.39454,2.57813 0.33199,0.33206 0.39058,0.69339 0.17578,1.08398 l -2.8711,4.54102 c -0.31253,0.41018 -0.66409,0.46877 -1.05468,0.17578 -0.37113,-0.31248 -1.42582,-0.99607 -3.16407,-2.05078 l -2.02148,3.22266 c -0.312527,0.41017 -0.673855,0.459 -1.083986,0.14648 -0.410181,-0.33201 -1.855492,-1.24021 -4.335938,-2.72461 -0.410176,-0.25388 -0.478535,-0.58591 -0.205078,-0.99609 l 2.900391,-4.33594 c 0.234351,-0.332 0.576148,-0.42966 1.02539,-0.29297 1.210913,0.42972 2.324191,1.00589 3.339841,1.72852 l 1.875,-2.78321"
       style="font-size:60px;font-variant:normal;font-weight:bold;font-stretch:normal;fill:#666666;font-family:Amiri;-inkscape-font-specification:Amiri Bold"
       id="path3006"
       inkscape:connector-curvature="0" />
  </g>
  <g
     style="font-size:40px;font-style:normal;font-weight:normal;line-height:125%;letter-spacing:0px;word-spacing:0px;fill:#000000;fill-opacity:1;stroke:none;font-family:Sans"
     id="text3012-1"
     transform="translate(6.4113679,-2.3314065)">
    <path
       d="m 189.27245,110.5568 c 1.3867,-3.86717 3.02733,-5.78123 4.92187,-5.74219 1.1328,2e-5 2.19725,0.8008 3.19336,2.40235 0.99607,1.58204 1.63084,3.36915 1.9043,5.36133 0.27341,1.99219 -0.0391,4.75586 -0.9375,8.29101 -0.87893,3.53515 -2.63674,6.79687 -5.27344,9.78516 -2.6172,2.98827 -4.72657,4.5703 -6.32813,4.74609 -1.58203,0.1953 -3.68164,0.0683 -6.29882,-0.38086 -2.61719,-0.4297 -4.53125,-0.89845 -5.74219,-1.40625 -0.42968,-0.17579 -0.61523,-0.41017 -0.55664,-0.70312 0.0586,-0.29298 0.3125,-0.41017 0.76172,-0.35157 3.14453,0.39062 6.11328,0.26367 8.90625,-0.38086 1.69921,-0.39063 4.14061,-1.99219 7.32422,-4.80468 3.20311,-2.79297 5.1074,-5.13672 5.71289,-7.03125 -0.19533,-1.64062 -0.43947,-2.54883 -0.73243,-2.72461 -1.50392,2.32422 -3.43751,2.89062 -5.80078,1.69922 -2.34376,-1.19141 -2.69532,-4.11132 -1.05468,-8.75977 m 5.41992,2.25586 c -1.15236,-1.87499 -2.39259,-1.96288 -3.72071,-0.26367 1.01562,1.13282 2.25585,1.22071 3.72071,0.26367"
       style="font-size:60px;font-variant:normal;font-stretch:normal;text-align:start;line-height:125%;writing-mode:lr-tb;text-anchor:start;fill:#000000;font-family:Amiri;-inkscape-font-specification:Amiri"
       id="path3009"
       inkscape:connector-curvature="0" />
    <path
       d="m 163.90135,109.53141 1.69922,-3.7207 c 0.35156,-0.7617 0.72265,-0.77147 1.11328,-0.0293 1.58203,2.91017 1.87499,6.42579 0.87891,10.54688 -0.95704,3.92578 -3.37891,5.88867 -7.26563,5.88867 -0.42968,0 -0.84961,-1.01563 -1.25976,-3.04688 -0.3125,-1.62109 0.10742,-2.4121 1.25976,-2.37304 2.36328,0.0977 4.14062,-0.53711 5.33203,-1.9043 0.0586,-0.0781 0.0684,-0.21484 0.0293,-0.41016 -0.23438,-1.15233 -0.77149,-2.31444 -1.61133,-3.48633 -0.35156,-0.48827 -0.41016,-0.97655 -0.17578,-1.46484 m 5.33203,19.45313 c 0.0976,-0.15626 0.26367,-0.19532 0.49805,-0.11719 1.58202,0.54687 2.99803,1.37694 4.24805,2.49023 0.17576,0.15624 0.20506,0.33202 0.0879,0.52735 l -2.8711,4.54101 c -0.11719,0.17577 -0.31251,0.14647 -0.58593,-0.0879 -0.25392,-0.21486 -1.38673,-0.92775 -3.39844,-2.13867 l -2.25586,3.57422 c -0.11719,0.17576 -0.32227,0.14647 -0.61523,-0.0879 -0.27345,-0.23439 -1.66993,-1.1133 -4.18946,-2.63672 -0.15625,-0.0977 -0.18554,-0.21486 -0.0879,-0.35156 l 2.92969,-4.36524 c 0.0976,-0.15626 0.26367,-0.19532 0.49805,-0.11719 1.30858,0.44921 2.50976,1.10351 3.60351,1.96289 l 2.13867,-3.19335"
       style="font-size:60px;font-variant:normal;font-stretch:normal;text-align:start;line-height:125%;writing-mode:lr-tb;text-anchor:start;fill:#000000;font-family:Amiri;-inkscape-font-specification:Amiri"
       id="path3011"
       inkscape:connector-curvature="0" />
    <path
       d="m 164.89745,75.898598 -0.90821,3.457031 c -0.21487,0.859417 -0.81058,1.406291 -1.78711,1.640625 -20.78126,4.980505 -33.73046,9.199251 -38.84765,12.65625 -0.11718,0.09769 -0.0586,0.214872 0.17578,0.351562 6.91406,3.847681 14.04296,8.623064 21.38672,14.326174 6.0742,4.70704 11.21091,7.5293 15.41015,8.4668 1.40622,0.3125 1.93357,1.13281 1.58203,2.46093 -0.52737,1.97266 -1.05471,2.95899 -1.58203,2.95899 -1.66018,0 -4.24807,-1.13281 -7.76367,-3.39844 -3.49611,-2.16796 -6.56251,-4.3457 -9.19922,-6.5332 -0.6836,-0.5664 -2.64649,-1.98241 -5.88867,-4.24805 1.17187,3.5547 1.66991,6.15235 1.49414,7.79297 -0.48829,4.39453 -3.73047,7.41211 -9.72656,9.05273 -0.42969,0.11719 -0.5957,-0.15625 -0.49805,-0.82031 l 0.46875,-3.07617 c 0.0391,-0.29297 0.24414,-0.49805 0.61524,-0.61524 4.84374,-1.8164 7.53905,-3.42773 8.08593,-4.83398 -1.28906,-4.04296 -6.44531,-9.21873 -15.46875,-15.52734 -0.58592,-0.410138 -0.88866,-0.634747 -0.9082,-0.673832 -0.29296,-0.410133 -0.51757,-1.259742 -0.67383,-2.548828 -0.15624,-1.289036 -0.12694,-2.343723 0.0879,-3.164063 0.25392,-0.820283 0.95704,-1.972626 2.10938,-3.457031 1.07422,-1.386685 2.02149,-2.324185 2.8418,-2.8125 5.35156,-3.320274 18.02733,-7.421833 38.02734,-12.304688 0.83981,-0.195265 1.16207,0.08794 0.9668,0.84961"
       style="font-size:60px;font-variant:normal;font-stretch:normal;text-align:start;line-height:125%;writing-mode:lr-tb;text-anchor:start;fill:#000000;font-family:Amiri;-inkscape-font-specification:Amiri"
       id="path3013"
       inkscape:connector-curvature="0" />
    <path
       d="m 129.7412,120.37125 c 8.04684,0.0586 12.61714,1.50391 13.71093,4.33594 0.23434,0.5664 -0.0293,1.79687 -0.79101,3.69141 -0.76176,1.89452 -1.53324,3.18358 -2.31446,3.86719 -2.73441,2.36326 -5.89846,4.34568 -9.49218,5.94726 -3.59378,1.60155 -7.02151,2.52928 -10.28321,2.7832 -5.35157,0.39061 -9.16993,-0.93751 -11.45507,-3.98437 -3.26173,-4.37501 -3.71094,-9.70704 -1.34766,-15.99609 0.68359,-1.81641 1.36718,-3.26172 2.05078,-4.33594 0.23437,-0.37109 0.52734,-0.43945 0.87891,-0.20508 0.35155,0.23438 0.31249,0.70313 -0.11719,1.40625 -0.4297,0.70313 -0.82032,1.64063 -1.17188,2.8125 -1.46484,4.84375 -0.66406,8.61327 2.40235,11.30859 3.06639,2.73437 7.30467,3.59374 12.71484,2.57813 4.33591,-0.82033 8.84763,-2.68556 13.53516,-5.5957 1.5234,-0.93751 2.42184,-1.56251 2.69531,-1.875 -1.64066,-1.23048 -5.49808,-1.97266 -11.57226,-2.22657 -0.41019,-0.0195 -0.58597,-0.29297 -0.52735,-0.82031 l 0.49805,-3.07617 c 0.039,-0.41016 0.23435,-0.61523 0.58594,-0.61524 m -3.28125,25.98633 c 0.0976,-0.15627 0.26364,-0.19533 0.49804,-0.11719 1.58201,0.54686 2.99802,1.37693 4.24805,2.49024 0.17575,0.15622 0.20505,0.332 0.0879,0.52734 l -2.87109,4.54102 c -0.11722,0.17575 -0.31253,0.14645 -0.58594,-0.0879 -0.25393,-0.21488 -1.38674,-0.92777 -3.39844,-2.13867 l -2.25586,3.57421 c -0.1172,0.17575 -0.32228,0.14646 -0.61523,-0.0879 -0.27346,-0.2344 -1.66994,-1.11331 -4.18946,-2.63671 -0.15626,-0.0977 -0.18556,-0.21488 -0.0879,-0.35157 l 2.92969,-4.36523 c 0.0976,-0.15628 0.26366,-0.19534 0.49805,-0.11719 1.30857,0.44919 2.50974,1.10349 3.60351,1.96289 l 2.13868,-3.19336"
       style="font-size:60px;font-variant:normal;font-stretch:normal;text-align:start;line-height:125%;writing-mode:lr-tb;text-anchor:start;fill:#000000;font-family:Amiri;-inkscape-font-specification:Amiri"
       id="path3015"
       inkscape:connector-curvature="0" />
  </g>
</svg>
