<svg xmlns="http://www.w3.org/2000/svg" height="302.5" width="302.5"> <path fill="#900" d="m67.968,96.217-38.891-77.782,77.782,38.891c-18.98,5.0857-33.805,19.911-38.891,38.891z"/> <path fill="#069" d="m207.9,84.4,86.806,5.2104-72.571,47.916c5.0857-18.98-0.34069-39.232-14.235-53.126z"/> <path fill="#396" d="m148.17,211.49-47.916,72.571-5.2104-86.806c13.894,13.894,34.146,19.321,53.126,14.235z"/> <g fill="#484848">  <path d="m196.48,107.57c1.0208,0.00001,2.0417-0.11457,3.0625-0.34375-0.0625-1.6666-0.78126-3.0312-2.1562-4.0938-0.97917-0.91665-1.9688-1.375-2.9688-1.375-0.29167,0.00002-0.59376,0.0833-0.90625,0.25-0.3125,0.16669-0.59896,0.38544-0.85937,0.65625-0.26043,0.27085-0.47397,0.56773-0.64063,0.89063-0.16667,0.32293-0.25,0.63022-0.25,0.92187,0,1.1667,0.40625,1.974,1.2188,2.4219,0.81249,0.44793,1.9792,0.67188,3.5,0.67187zm11.438,4.4375c-0.00002,5.7083-2.75,11-8.25,15.875-2.0833,1.7917-4.375,3.4114-6.875,4.8594-2.5,1.4479-5.2292,2.7656-8.1875,3.9531l-3.3438-6.6875c2.4167-1.1875,4.4062-2.1979,5.9688-3.0312,1.5625-0.83334,2.6979-1.4792,3.4062-1.9375,2.625-1.625,4.6979-3.3229,6.2188-5.0938,1.5208-1.7708,2.4896-3.5104,2.9062-5.2188-0.72918,0.22917-1.474,0.41146-2.2344,0.54688-0.76043,0.13542-1.474,0.20313-2.1406,0.20312-1.6042,0.00001-3.0521-0.27604-4.3438-0.82812s-2.3906-1.3229-3.2969-2.3125c-0.90625-0.98958-1.599-2.1719-2.0781-3.5469-0.47916-1.375-0.71875-2.8958-0.71875-4.5625,0-1.3333,0.23438-2.5989,0.70313-3.7969,0.46875-1.1979,1.1094-2.25,1.9219-3.1563,0.8125-0.90622,1.776-1.6302,2.8906-2.1719,1.1146-0.54164,2.3177-0.81247,3.6094-0.8125,2.9167,0.000027,5.7396,1.3021,8.4688,3.9062,1.7292,1.6667,3.0573,3.6719,3.9844,6.0156,0.92706,2.3438,1.3906,4.9427,1.3906,7.7969z"/>  <path d="m168.67,130.16-6.7188,0,0-6.8125,6.7188,0zm8.2188,0-6.7188,0,0-6.8125,6.7188,0zm-8.7188-19.719c1.7292,0.00001,2.5938-0.64582,2.5938-1.9375,0-0.54165-0.16667-1.1146-0.5-1.7188-0.60417-1.0625-1.1979-2.1458-1.7812-3.25-0.58333-1.1042-1.1771-2.1771-1.7812-3.2188l6.6562-4.5c3.6042,5.9584,5.4062,10.24,5.4062,12.844-0.00001,6.8542-3,10.281-9,10.281h-7.3125v-8.5z"/>  <path d="m129.32,118.94,0-8.5,6.8125,0c2.5417,0.00001,3.8125-0.78124,3.8125-2.3438-0.00001-0.37499-0.0521-0.76561-0.15625-1.1719-0.10417-0.40624-0.27084-0.84895-0.5-1.3281-0.10417-0.22915-0.30209-0.63019-0.59375-1.2031-0.29167-0.5729-0.63021-1.2396-1.0156-2-0.38542-0.7604-0.78647-1.5677-1.2031-2.4219-0.41667-0.85414-0.81771-1.6562-1.2031-2.4062-0.38542-0.74998-0.72396-1.4166-1.0156-2-0.29167-0.58331-0.48958-0.97914-0.59375-1.1875-0.41667-0.85414-0.72396-1.6302-0.92187-2.3281-0.19792-0.69789-0.29688-1.3802-0.29688-2.0469,0-2.5416,1.4479-4.25,4.3438-5.125,1.5417-0.47913,3.1302-0.98434,4.7656-1.5156,1.6354-0.53121,3.2708-1.0677,4.9062-1.6094,1.6354-0.54163,3.2708-1.0677,4.9062-1.5781,1.6354-0.51038,3.2239-0.99475,4.7656-1.4531l3.0312,6.4375-17,4.8125c-1.0833,0.25003-1.625,0.7292-1.625,1.4375-0.00001,0.33336,0.16666,0.81253,0.5,1.4375l5.4375,10.531c0.58332,1.125,1.276,2.1198,2.0781,2.9844,0.80206,0.86459,1.7448,1.6094,2.8281,2.2344h-0.0312c0.54165,0.31251,1.3281,0.58335,2.3594,0.8125,1.0312,0.22918,2.125,0.42189,3.2812,0.57813,1.1562,0.15626,2.276,0.27084,3.3594,0.34375,1.0833,0.0729,1.9375,0.10938,2.5625,0.10937h1.3438v8.5h-1.875c-0.79169,0-1.6667-0.0573-2.625-0.17187-0.95836-0.11459-1.9427-0.28125-2.9531-0.5s-2.0209-0.48438-3.0312-0.79688c-1.0104-0.3125-1.9584-0.67187-2.8438-1.0781-0.88544-0.40625-1.6771-0.85417-2.375-1.3438-0.69794-0.48958-1.2344-1.026-1.6094-1.6094-1.9167,3.6667-5.5208,5.5-10.812,5.5z"/>  <path d="m131.13,118.94-6.125,0c0.24996,0.9375,0.37496,1.8229,0.375,2.6562-0.00004,1.5417-0.37504,2.974-1.125,4.2969-0.75004,1.3229-1.7604,2.526-3.0312,3.6094-1.2709,1.0833-2.7396,2.0364-4.4062,2.8594-1.6667,0.82291-3.4115,1.5156-5.2344,2.0781-1.8229,0.56248-3.6667,0.98957-5.5312,1.2812-1.8646,0.29165-3.6302,0.43748-5.2969,0.4375-11.333-0.00002-17-6.1042-17-18.312,0-2.7292,0.64584-5.9167,1.9375-9.5625l6.5938,2.0625c-0.35417,1.2292-0.6198,2.4219-0.79687,3.5781-0.17709,1.1562-0.26563,2.276-0.26563,3.3594,0,7.1042,3.5625,10.656,10.688,10.656,7.75-0.00001,13.073-1.7188,15.969-5.1562,0.22914-0.29167,0.34372-0.60417,0.34375-0.9375-0.00003-0.41667-0.28128-0.71875-0.84375-0.90625-0.83336-0.29167-2.3646-0.73437-4.5938-1.3281-2.2292-0.59375-5.1771-1.3594-8.8438-2.2969l1.9688-6.875h25.219z" fill="#484848"/> </g> <g fill="#666">  <path d="m190.82,150.54c-0.00003,8.5417,1.927,12.813,5.7812,12.812,2.2916,0.00001,3.4375-0.98957,3.4375-2.9688-0.00004-1.9166-1.073-4.8333-3.2188-8.75l6.1875-3.6875c3.2083,5.2292,4.8124,9.4063,4.8125,12.531-0.00005,1.75-0.22921,3.3229-0.6875,4.7188-0.45838,1.3958-1.1146,2.5781-1.9688,3.5469-0.85421,0.96876-1.8907,1.7136-3.1094,2.2344-1.2188,0.52083-2.599,0.78125-4.1406,0.78125-2.0209,0-3.8021-0.40625-5.3438-1.2188-1.5417-0.8125-2.8542-2.0104-3.9375-3.5938-1.8125,3.4583-4.5521,5.1875-8.2188,5.1875-0.75002,0-1.5156-0.11979-2.2969-0.35938-0.78126-0.23958-1.5208-0.57291-2.2188-1-0.69793-0.42708-1.3438-0.9427-1.9375-1.5469-0.59376-0.60416-1.0781-1.2708-1.4531-2-0.93751,1.625-2.1354,2.849-3.5938,3.6719-1.4583,0.82292-3.2083,1.2344-5.25,1.2344h-1.9062v-8.5h1.3125c0.72916,0.00001,1.3698-0.0677,1.9219-0.20313,0.55208-0.1354,1.0104-0.3854,1.375-0.75,0.36458-0.36457,0.63542-0.85936,0.8125-1.4844,0.17708-0.62499,0.26562-1.4271,0.26563-2.4062v-8.2812h7.4375c-0.00001,2.3958,0.0937,4.4115,0.28125,6.0469,0.18749,1.6354,0.49478,2.9584,0.92187,3.9688,0.42707,1.0104,0.98436,1.7344,1.6719,2.1719,0.68748,0.43751,1.5208,0.65626,2.5,0.65625,1.1458,0.00001,2.0729-0.57291,2.7812-1.7188v0.0312c0.27081-0.47916,0.47914-0.99999,0.625-1.5625,0.14581-0.56249,0.21873-1.1458,0.21875-1.75v-7.8125z"/>  <path d="m152.73,156.51c-0.00002-0.47915-0.10419-0.89061-0.3125-1.2344-0.20835-0.34373-0.48439-0.63019-0.82813-0.85937-0.34376-0.22915-0.73439-0.40102-1.1719-0.51563-0.43752-0.11456-0.89585-0.17185-1.375-0.17187-2.3958,0.00002-3.5938,0.9271-3.5938,2.7812-0.00001,0.45835,0.12499,0.91668,0.375,1.375,0.24999,0.45835,0.55728,0.89064,0.92187,1.2969,0.36457,0.40627,0.7552,0.76564,1.1719,1.0781,0.41665,0.31251,0.79165,0.5521,1.125,0.71875,0.41665-0.12499,0.84373-0.34895,1.2812-0.67188,0.43748-0.3229,0.83332-0.68748,1.1875-1.0938,0.35415-0.40623,0.64581-0.84894,0.875-1.3281,0.22915-0.47915,0.34373-0.93748,0.34375-1.375zm0.0625-13.656-7.6562,0,0-7.5312,7.6562,0zm-18.531,29.281,0-8.5,8.125,0c-2.3125-2.1875-3.4688-4.6458-3.4688-7.375-0.00001-1.5625,0.23958-2.9375,0.71875-4.125,0.47916-1.1875,1.1614-2.1823,2.0469-2.9844,0.88541-0.80206,1.9479-1.4062,3.1875-1.8125,1.2396-0.40622,2.6198-0.60935,4.1406-0.60938,6.875,0.00003,10.312,3.1771,10.312,9.5313-0.00003,0.62502-0.10419,1.3125-0.3125,2.0625-0.20836,0.75001-0.4844,1.4792-0.82813,2.1875-0.34377,0.70834-0.73439,1.3438-1.1719,1.9062-0.43752,0.56251-0.89586,0.96876-1.375,1.2188h7.9375v8.5h-5c-0.52086,0-1.2344-0.11979-2.1406-0.35938-0.90627-0.23958-1.8386-0.54166-2.7969-0.90625-0.95835-0.36458-1.8594-0.76562-2.7031-1.2031-0.84376-0.4375-1.474-0.85416-1.8906-1.25-0.50002,0.45834-1.1823,0.91146-2.0469,1.3594-0.86459,0.44792-1.776,0.84897-2.7344,1.2031-0.95834,0.35417-1.901,0.63542-2.8281,0.84375-0.92709,0.20833-1.7031,0.3125-2.3281,0.3125z"/>  <path d="m134.07,172.13c-3.4167,0-6.1771-1.3125-8.2812-3.9375-0.0417,0.35417-0.22919,0.86459-0.5625,1.5312-0.33336,0.66667-0.77086,1.4688-1.3125,2.4062-2.3125,3.9583-9.6146,9.4271-21.906,16.406l-3.8125-6.75c1.4792-0.83334,2.9062-1.6667,4.2812-2.5,1.375-0.83334,2.7188-1.6458,4.0312-2.4375,2.8125-1.8542,5.1823-3.6042,7.1094-5.25s3.2969-3.0833,4.1094-4.3125c0.22915-0.43749,0.41144-0.92187,0.54687-1.4531,0.13541-0.53124,0.20311-1.099,0.20313-1.7031-0.00002-1.0625-0.18752-2-0.5625-2.8125-0.64585-1.75-1.9584-4.4687-3.9375-8.1562l6.7812-4.1562,4.25,8.5c0.91664,1.8334,1.7812,3.125,2.5938,3.875,1.5,1.5,3.6458,2.25,6.4375,2.25h2.0312v8.5z"/> </g></svg>