<?xml version="1.0" encoding="UTF-8" standalone="no"?>
<svg id="svg2" xmlns:rdf="http://www.w3.org/1999/02/22-rdf-syntax-ns#" xmlns="http://www.w3.org/2000/svg" height="302.5" width="302.5" version="1.1" xmlns:cc="http://creativecommons.org/ns#" xmlns:dc="http://purl.org/dc/elements/1.1/">
 <metadata id="metadata38">
  <rdf:RDF>
   <cc:Work rdf:about="">
    <dc:format>image/svg+xml</dc:format>
    <dc:type rdf:resource="http://purl.org/dc/dcmitype/StillImage"/>
    <dc:title/>
   </cc:Work>
  </rdf:RDF>
 </metadata>
 <path id="path4" d="m234.53 96.217 38.891-77.782-77.782 38.891c18.98 5.0857 33.805 19.911 38.891 38.891z" fill="#900"/>
 <path id="path6" d="m94.599 84.4-86.806 5.2104 72.571 47.916c-5.0857-18.98.34069-39.232 14.235-53.126z" fill="#069"/>
 <path id="path8" d="m154.33 211.49 47.916 72.571 5.2104-86.806c-13.894 13.894-34.146 19.321-53.126 14.235z" fill="#396"/>
 <g id="g4203">
  <path id="path4268" style="color-rendering:auto;text-decoration-color:#000000;color:#000000;shape-rendering:auto;solid-color:#000000;text-decoration-line:none;fill:#474747;mix-blend-mode:normal;block-progression:tb;text-indent:0;image-rendering:auto;white-space:normal;text-decoration-style:solid;isolation:auto;text-transform:none" d="m221.62 100.53c-2.43 0-4.49 1.53-5.94 4.18-1.24 2.27-1.87 4.75-1.87 7.4 0 2.93 1.07 5.25 3.18 6.61 1.51.97 3.67 1.4 6.21 1.56-1.35 1.77-2.66 3.47-3.45 4.33-2.03 2.22-4.04 3.89-6.02 5.03-2.54 1.45-5.2 2.16-8.04 2.16-1.11 0-2.4-.17-3.86-.52a.85009 .85009 0 0 0 -.01 0c-1.49-.34-2.92-.67-4.28-.99a.85009 .85009 0 0 0 -.96 .45l-.62 1.29a.85009 .85009 0 0 0 .49 1.17c1.58.54 3.16 1.09 4.75 1.65a.85009 .85009 0 0 0 .01 0c2.02.67 3.67 1.14 4.96 1.42 1.77.38 3.49.57 5.16.57 4.64 0 8.76-2.42 12.18-7.01 3.06-4.09 4.64-8.28 4.64-12.52v-4.18c0-3.5-.36-6.27-1.16-8.35-.50-1.33-1.18-2.4-2.1-3.14-.91-.73-2.04-1.11-3.27-1.11zm-.99 7.6c.72 0 1.24.24 1.77.87.47.56.97 1.79 1.42 3.38-1.68-.10-3.01-.33-3.68-.71-.86-.52-1.18-1.08-1.18-2.01 0-.48.12-.76.45-1.06.37-.34.73-.47 1.22-.47z"/>
  <path id="path4260" style="color-rendering:auto;text-decoration-color:#000000;color:#000000;shape-rendering:auto;solid-color:#000000;text-decoration-line:none;fill:#474747;mix-blend-mode:normal;block-progression:tb;text-indent:0;image-rendering:auto;white-space:normal;text-decoration-style:solid;isolation:auto;text-transform:none" d="m163.87 74.357a.85009 .85009 0 0 0 -.28125 .0625l.01-.01563-10.328 4.0293c-4.7318 1.7847-8.131 3.7954-10.186 6.166a.85009 .85009 0 0 0 -.002 .0039c-2.2108 2.5792-3.2812 6.1038-3.2812 10.441 0 .65727.30404 1.2169.74219 1.7891.43816.57220 1.0454 1.1684 1.832 1.8281a.85009 .85009 0 0 0 .0312 .02539l4.3203 3.2949a.85009 .85009 0 0 0 1.0976 -.0566l.73047-.68555c1.3244.73539 2.4549 1.4242 2.8613 1.8145a.85009 .85009 0 0 0 .006 .006c1.0461.98208 1.5273 2.0912 1.5273 3.5195 0 .88102-.29011 1.6031-.95312 2.3125-.66301.70936-1.7298 1.3795-3.2246 1.9473-2.5068.95137-5.6664 1.4453-9.4746 1.4453h-1.3555-2.5996-3.8086c-2.1288 0-4.1673.29235-6.1055.8789a.85009 .85009 0 0 0 -.004 .002c-2.5774.79109-4.6847 2.0227-6.2656 3.709a.85009 .85009 0 0 0 -.006 .006c-1.9326 2.0914-2.8984 4.8155-2.8984 8.0098 0 1.0372.51507 2.0032 1.3848 2.5508a.85009 .85009 0 0 0 .0195 .0117c.90894.53863 2.1204.70508 3.7305.70508.37654 0 1.3021.0473 2.6875.14453a.85009 .85009 0 0 0 .0156 .002c1.4086.0728 2.4396.14564 3.0625.21484a.85009 .85009 0 0 0 .0937 .004c.78131 0 1.2754.13869 1.3926.20898a.85009 .85009 0 0 0 .0371 .0215c.14593.0778.10156.003.10156.16601 0 .16959-.10423.41509-.78906.79297-.68484.37788-1.8485.76185-3.4375 1.082-2.5907.52288-5.6131.79102-9.0606.79102-5.119 0-9.0851-.74371-11.887-2.1445-2.9302-1.4651-4.2187-3.3798-4.2187-6.0879 0-1.4744.63365-3.5725 1.9844-6.1836.89948-1.5558 1.8108-3.1234 2.7344-4.7031a.85009 .85009 0 0 0 -.35351 -1.1895l-1.4648-.73242a.85009 .85009 0 0 0 -1.0976 .30274c-2.3974 3.7674-3.8686 6.1989-4.4785 7.4453-1.6059 3.2628-2.4297 6.3932-2.4297 9.3809 0 3.7812 1.875 6.8494 5.3672 8.8672a.85009 .85009 0 0 0 .002 0c3.2805 1.8856 7.6042 2.7852 12.949 2.7852 7.6282 0 13.182-1.1103 16.705-3.5547 3.2428-2.241 4.8711-5.9084 4.8711-10.66 0-1.1245-.55778-2.1627-1.5195-2.6602a.85009 .85009 0 0 0 -.01 -.004c-.6413-.32066-1.4819-.48334-2.6934-.63477a.85009 .85009 0 0 0 -.0117 -.002c-1.98-.22002-3.2574-.35335-3.8691-.4043-.62658-.0522-1.4349-.0742-2.4492-.0742-1.0849 0-1.8701-.1121-2.2695-.25391-.0676-.024-.0596-.0305-.10352-.0527.33103-.13729.97884-.28584 1.873-.37891 1.8478-.18951 4.6651-.28906 8.4102-.28906h3.8086 2.5996 1.1719c5.8663 0 10.419-1.3365 13.531-4.1348a.85009 .85009 0 0 0 0 -.002c2.462-2.218 3.8157-5.2494 4.1856-8.875.4927.50899 1.1387 1.1344 1.4434 1.5a.85009 .85009 0 0 0 .004 .004c.23322.27563.97906 1.2197 2.1738 2.7559 1.989 2.5782 3.5193 4.3769 4.668 5.4473 2.2914 2.1386 4.5867 3.3047 6.8789 3.3047h2.0156 2.4902 18.383a.85009 .85009 0 0 0 .84961 -.84961v-8.9355c0-4.3886-.30827-7.5462-1.0352-9.6192a.85009 .85009 0 0 0 -.002 -.002c-.50511-1.4312-1.6473-3.1901-3.4316-5.4453a.85009 .85009 0 0 0 -1.4336 .16016l-2.8555 5.9688a.85009 .85009 0 0 0 .14453 .94531c1.8043 1.9487 2.9104 3.4542 3.2871 4.3066a.85009 .85009 0 0 0 .002 .006c.531 1.1758.82229 3.0506.89258 5.3926h-14.801-2.4902-2.3086c-.77703 0-1.9234-.49119-3.332-1.668-1.0486-.88548-2.1379-2.0057-3.2578-3.3633l-.004-.006c-1.7815-2.1963-3.0772-3.7466-3.9023-4.6719l-.002-.004c-1.3133-1.4865-2.725-2.9229-4.2344-4.3086-1.7551-1.6067-3.7146-3.2335-5.8809-4.8828a.85009 .85009 0 0 0 -.0137 -.0098c-.99842-.73056-1.9853-1.4611-2.959-2.1914-.75504-.56629-1.3072-1.0521-1.6367-1.418-.28595-.31749-.3058-.45618-.31836-.4375.081-.08681.22939-.22292.47265-.38672.52199-.35147 1.3878-.80268 2.5586-1.3164a.85009 .85009 0 0 0 .002 -.002c1.8397-.81233 4.2854-1.7194 7.3203-2.7148a.85009 .85009 0 0 0 .004 -.002l7.6543-2.5645a.85009 .85009 0 0 0 .58008 -.80664v-6.3359a.85009 .85009 0 0 0 -.88672 -.83789z"/>
  <path id="path4256" style="color-rendering:auto;text-decoration-color:#000000;color:#000000;shape-rendering:auto;solid-color:#000000;text-decoration-line:none;fill:#474747;mix-blend-mode:normal;block-progression:tb;text-indent:0;image-rendering:auto;white-space:normal;text-decoration-style:solid;isolation:auto;text-transform:none" d="m188.64 122.87a.85009 .85009 0 0 0 -.73047 .45508l-2.748 5.2363a.85009 .85009 0 0 0 -.0156 .0312l-4.4844-2.2969a.85009 .85009 0 0 0 -1.1445 .36914l-2.7109 5.3106a.85009 .85009 0 0 0 .36719 1.1406l5.9336 3.0762a.85009 .85009 0 0 0 1.1426 -.35938l2.7832-5.3106a.85009 .85009 0 0 0 .004 -.008l4.4121 2.3418a.85009 .85009 0 0 0 1.1465 -.3457l2.8555-5.2734a.85009 .85009 0 0 0 -.35937 -1.1602l-6.041-3.1133a.85009 .85009 0 0 0 -.41015 -.0937z"/>
  <path id="path4250" style="color-rendering:auto;text-decoration-color:#000000;color:#000000;shape-rendering:auto;solid-color:#000000;text-decoration-line:none;fill:#474747;mix-blend-mode:normal;block-progression:tb;text-indent:0;image-rendering:auto;white-space:normal;text-decoration-style:solid;isolation:auto;text-transform:none" d="m111.03 139.24a.85009 .85009 0 0 0 -.60937 .25195l-3.4062 3.4434a.85009 .85009 0 0 0 .16015 1.3223l4.248 2.5996a.85009 .85009 0 0 0 1.0273 -.10742l2.5332-2.3926 3.9356 2.4941a.85009 .85009 0 0 0 1.0312 -.0937l3.4043-3.1484a.85009 .85009 0 0 0 -.0937 -1.3262l-4.2109-2.8945a.85009 .85009 0 0 0 -1.0957 .11328l-2.5078 2.6191-3.9375-2.7305a.85009 .85009 0 0 0 -.47852 -.15039z"/>
  <path id="path4230" style="color-rendering:auto;text-decoration-color:#000000;color:#000000;shape-rendering:auto;solid-color:#000000;text-decoration-line:none;fill:#666666;mix-blend-mode:normal;block-progression:tb;text-indent:0;image-rendering:auto;white-space:normal;text-decoration-style:solid;isolation:auto;text-transform:none" d="m160.95 138.88a.85009 .85009 0 0 0 -.70117 .41601l-3.0391 5.127a.85009 .85009 0 0 0 .25 1.1348l5.127 3.5156a.85009 .85009 0 0 0 1.2051 -.25782l3.2227-5.2734a.85009 .85009 0 0 0 -.26954 -1.1602l-5.3105-3.3691a.85009 .85009 0 0 0 -.48438 -.13281z"/>
  <path id="path4226" style="color-rendering:auto;text-decoration-color:#000000;color:#000000;shape-rendering:auto;solid-color:#000000;text-decoration-line:none;fill:#666666;mix-blend-mode:normal;block-progression:tb;text-indent:0;image-rendering:auto;white-space:normal;text-decoration-style:solid;isolation:auto;text-transform:none" d="m162.26 154.85c-2.51 0-4.66 1.54-6.27 4.26-1.41 2.39-2.13 4.97-2.13 7.68 0 3.2 1.69 5.69 4.72 7.01a.85009 .85009 0 0 0 .01 0c.70.30 2.73.58 4.04.86-.85.05-1.72.11-2.86.11h-9.11v-1.68c0-2.71-.57-5.19-1.71-7.42-1.01-1.97-2.55-3.9-4.61-5.8a.85009 .85009 0 0 0 -1.38 .33l-2.08 5.75a.85009 .85009 0 0 0 .16 .86c1.6 1.77 2.83 3.47 3.69 5.1 1.08 2.03 1.59 3.92 1.59 5.69 0 1.97-.98 4.34-3.08 7.06-2.11 2.7-4.65 4.93-7.64 6.71-3.29 1.94-6.4 2.88-9.34 2.88-1.35 0-2.88-.16-4.6-.50a.85009 .85009 0 0 0 -.01 0c-1.73-.31-3.4-.63-5.01-.95a.85009 .85009 0 0 0 -.94 .50l-.62 1.47a.85009 .85009 0 0 0 .47 1.12c1.74.66 3.49 1.32 5.25 1.98 2.09.79 3.9 1.38 5.43 1.75 2.01.51 3.9.76 5.67.76 2.1 0 4.54-.96 7.44-2.76 3.05-1.88 5.62-4.13 7.69-6.75 2.15-2.7 3.23-5.38 3.45-8.03h18.99 4.58c2.24 0 3.87-.14 5.02-.52a.85009 .85009 0 0 0 .02 0c.94-.33 1.93-.96 2.96-1.68 1.02.59 1.98 1.11 2.75 1.41 1.36.52 2.74.79 4.12.79h2.38c2.23 0 4.01-.22 5.41-.71.83-.29 1.76-.91 2.72-1.62.86.65 1.76 1.25 2.76 1.65a.85009 .85009 0 0 0 .02 0c1.24.46 2.68.68 4.32.68h2.82a.85009 .85009 0 0 0 .85 -.85v-8.79c0-2.81-.26-5.1-.84-6.89a.85009 .85009 0 0 0 -.01 -.01c-.40-1.21-1.12-2.56-2.14-4.11a.85009 .85009 0 0 0 -1.44 .03l-2.39 3.99a.85009 .85009 0 0 0 .06 .95c1.02 1.34 1.63 2.15 1.77 2.35.93 1.41 1.35 2.68 1.35 3.84 0 .45-.11.71-.37.97-.22.22-.49.34-.98.34-1.23 0-2.06-.36-2.73-1.11a.85009 .85009 0 0 0 -.01 -.01c-.77-.85-1.57-2.62-2.21-5.25v-.01h-.01l-.76-3.43a.85009 .85009 0 0 0 -1.53 -.30l-1.54 2.19a.85009 .85009 0 0 0 -.13 .66c.17.82.30 1.57.39 2.25.09.67.14 1.37.14 2.09 0 1.19-.34 1.84-1.08 2.32-.65.42-1.86.71-3.6.71h-2.45c-1.37 0-2.46-.45-3.44-1.41-.81-.79-1.62-2.04-2.38-3.76-.41-.97-.97-2.59-1.65-4.81a.85009 .85009 0 0 0 -1.51 -.24l-1.5 2.2a.85009 .85009 0 0 0 -.13 .66c.19.86.32 1.62.38 2.29.08.68.11 1.36.11 2.04 0 1.44-.44 2.12-1.59 2.57a.85009 .85009 0 0 0 0 .01c-.64.25-2 .45-3.93.45h-3.73v-5.41c0-3.51-.52-6.58-1.6-9.22-.68-1.68-1.54-2.99-2.63-3.91-1.09-.91-2.41-1.38-3.83-1.38zm-1.32 8.1c1.05 0 1.96.63 2.88 2.31.32.60.70 1.8 1.07 2.92-1.4-.16-2.95-.33-3.28-.44-.85-.28-1.41-.66-1.77-1.12-.35-.46-.54-1.02-.54-1.81 0-.54.15-.93.51-1.33.36-.39.67-.53 1.13-.53z"/>
 </g>
</svg>
