<?xml version="1.0" encoding="UTF-8" standalone="no"?>
<!-- Created with Inkscape (http://www.inkscape.org/) -->

<svg
   xmlns:dc="http://purl.org/dc/elements/1.1/"
   xmlns:cc="http://creativecommons.org/ns#"
   xmlns:rdf="http://www.w3.org/1999/02/22-rdf-syntax-ns#"
   xmlns:svg="http://www.w3.org/2000/svg"
   xmlns="http://www.w3.org/2000/svg"
   version="1.1"
   width="302.5"
   height="302.5"
   id="plwikivoyage-logo">
  <g
     transform="translate(-448.75,-446.82648)"
     id="layer1">
    <g
       transform="translate(-509.71234,-3818.9586)"
       id="g-plwikivoyage-logo">
      <g
         transform="translate(-780.10496,0)"
         id="g-arrows">
        <path
           d="m 1892.0122,4477.2785 47.9155,72.5714 5.2104,-86.8064 c -13.8944,13.8944 -34.1459,19.3207 -53.1259,14.235 z"
           id="p-green-triangle"
           style="fill:#339966;fill-opacity:1;stroke:none" />
        <path
           d="m 1972.2121,4362.0021 38.8909,-77.7817 -77.7818,38.8908 c 18.9801,5.0857 33.8052,19.9109 38.8909,38.8909 z"
           id="p-red-triangle"
           style="fill:#990000;fill-opacity:1;stroke:none" />
        <path
           d="m 1832.2798,4350.1852 -86.8064,5.2104 72.5714,47.9155 c -5.0857,-18.98 0.3407,-39.2315 14.235,-53.1259 z"
           id="p-blue-triangle"
           style="fill:#006699;fill-opacity:1;stroke:none" />
      </g>
      <g
         transform="translate(-780.10496,0)"
         id="g-wiki">
        <path
           d="m 1846.9706,4401.6912 -14.6908,-34.5853 0,0 4.3082,0 4.0436,0 0,0 7.9085,20.0823 0,0 0,0 8.1528,-20.5776 2.5306,0 2.5171,0 8.0849,20.4712 0,0 0,0 7.9402,-19.9759 0,0 4.0572,0 4.3082,0 0,0 -14.8469,34.5853 -1.5243,0 -1.5378,0 -9.1094,-22.0317 0,0 0,0 -9.0777,22.0317 -1.5266,0 z"
           id="p-wiki-w"
           style="fill:#484848;fill-opacity:1;stroke:none" />
        <path
           d="m 1890.5139,4400.47 0,-33.3641 0,0 4.0232,0 4.0255,0 0,0 0,34.0878 0,0 -4.0255,0 -2.4311,0 z m 4.0232,-47.3765 c 1.3192,1e-4 2.4323,0.4534 3.3392,1.3602 0.9068,0.907 1.3602,1.9959 1.3603,3.2668 -10e-5,1.2771 -0.4516,2.3671 -1.3547,3.2702 -0.9031,0.9031 -2.018,1.3547 -3.3448,1.3546 -1.3343,1e-4 -2.4511,-0.4496 -3.3504,-1.349 -0.8994,-0.8992 -1.349,-1.9912 -1.349,-3.2758 0,-1.2785 0.4515,-2.3693 1.3546,-3.2724 0.9031,-0.903 2.0181,-1.3545 3.3448,-1.3546 z"
           id="p-wiki-first-i"
           style="fill:#484848;fill-opacity:1;stroke:none" />
        <path
           d="m 1914.5968,4350.9088 0,50.2849 0,0 -4.0232,0 -4.0256,0 0,0 0,-51.0085 0,0 4.0256,0 4.0232,0 z m 15.367,49.5612 -16.638,-16.2851 0,0 15.0391,-17.079 0,0 4.3104,0 4.7357,0 0,0 -14.3335,16.9093 0,0 16.8868,17.1785 0,0 -4.9821,0 -3.4263,0 z"
           id="p-wiki-k"
           style="fill:#484848;fill-opacity:1;stroke:none" />
        <path
           d="m 1942.4745,4400.47 0,-33.3641 0,0 4.0233,0 4.0255,0 0,0 0,34.0878 0,0 -4.0255,0 -2.4311,0 z m 4.0233,-47.3765 c 1.3191,1e-4 2.4322,0.4534 3.3391,1.3602 0.9068,0.907 1.3603,1.9959 1.3603,3.2668 0,1.2771 -0.4515,2.3671 -1.3547,3.2702 -0.903,0.9031 -2.018,1.3547 -3.3447,1.3546 -1.3343,1e-4 -2.4512,-0.4496 -3.3504,-1.349 -0.8994,-0.8992 -1.349,-1.9912 -1.349,-3.2758 0,-1.2785 0.4515,-2.3693 1.3546,-3.2724 0.9031,-0.903 2.018,-1.3545 3.3448,-1.3546 z"
           id="p-wiki-second-i"
           style="fill:#484848;fill-opacity:1;stroke:none" />
      </g>
      <g
         transform="translate(-9.0870142,0)"
         id="g-podroze">
        <path
           d="m 1022.1348,4423.0328 0,0 11.2285,0 c 6.5161,1e-4 11.4647,1.467 14.8457,4.4009 3.3809,2.934 5.0714,7.2429 5.0714,12.9269 0,5.2452 -1.5959,9.4324 -4.7876,12.5615 -3.1918,3.1292 -7.4902,4.6938 -12.8952,4.6938 -2.4786,0 -4.2825,-0.4252 -5.4118,-1.2755 l 0,0 0,17.3843 0,0 -4.0255,0 -4.0255,0 0,0 z m 13.9604,27.2128 c 2.4997,0 4.618,-0.9396 6.3548,-2.8189 1.7368,-1.8794 2.6053,-4.2347 2.6053,-7.0661 0,-3.1089 -0.8225,-5.5453 -2.4673,-7.3093 -1.6449,-1.7639 -3.8808,-2.6459 -6.7077,-2.6459 -2.4635,0 -4.4763,0.071 -6.0382,0.2125 l 0.3437,-0.032 0,0 0,18.7208 0,0 0.027,0.011 c 1.4745,0.6182 3.4352,0.9272 5.8822,0.9272 z"
           id="p-podroze-p"
           style="fill:#666666;fill-opacity:1;stroke:none" />
        <path
           d="m 1075.4953,4457.4751 c -5.607,0.2412 -10.3981,-1.5225 -13.7987,-4.8492 -3.4006,-3.3267 -5.1008,-7.581 -5.1008,-12.7629 0,-5.1969 1.7018,-9.4667 5.1053,-12.8092 3.4036,-3.3425 7.7732,-5.0137 13.1089,-5.0138 5.3281,1e-4 9.7023,1.6732 13.1224,5.0195 3.4202,3.3463 5.1303,7.6141 5.1303,12.8035 0,5.1759 -1.7082,9.4287 -5.1246,12.7584 -3.4164,3.3297 -7.6155,4.8619 -12.4204,4.8619 z m 0.1104,-6.944 c 2.6822,-0.2413 4.5595,-0.9862 6.4276,-2.9529 1.868,-1.9668 2.802,-4.5385 2.802,-7.7152 0,-3.2008 -0.9344,-5.7902 -2.8031,-7.7683 -1.8688,-1.978 -4.2762,-2.9671 -7.2222,-2.9671 -2.952,0 -5.3549,0.9872 -7.2086,2.9615 -1.8537,1.9743 -2.7805,4.5656 -2.7805,7.7739 0,3.1933 0.9249,5.7692 2.7749,7.7276 1.8499,1.9585 4.52,2.9377 8.0103,2.9377 z"
           id="p-podroze-o"
           style="fill:#666666;fill-opacity:1;stroke:none" />
        <path
           d="m 1112.3697,4456.8719 c -4.7718,0 -8.6104,-1.6016 -11.5157,-4.8046 -2.9053,-3.2031 -4.3579,-7.4008 -4.3579,-12.5933 0,-5.316 1.5145,-9.5507 4.5434,-12.704 3.0289,-3.1533 7.1132,-4.7299 12.2529,-4.73 2.9067,1e-4 5.0182,0.4493 6.3345,1.3479 l 0,0 0,-17.5245 0,0 4.0255,0 4.0232,0 0,0 0,51.0085 z M 1113.86,4429.2 c -2.6837,0 -4.8777,0.9498 -6.5821,2.8495 -1.7045,1.8997 -2.5567,4.3979 -2.5567,7.4946 0,3.3908 0.7512,5.9509 2.2536,7.6801 1.5024,1.7294 3.6791,2.594 6.5302,2.594 l 6.1219,0 0,0 0,-19.6028 0,0 c 0.087,0.1071 0.08,0.1417 -0.023,0.104 -1.4746,-0.7462 -3.3893,-1.1194 -5.7443,-1.1194 z"
           id="p-podroze-d"
           style="fill:#666666;fill-opacity:1;stroke:none" />
        <path
           d="m 1133.53,4456.1482 0,-33.3641 0,0 4.0255,0 4.0232,0 0,0 0,7.5579 0,0 0,0 c -0.3392,-1.099 0.043,-2.3293 1.1466,-3.6908 2.3113,-3.0741 4.9158,-4.6111 7.8135,-4.6112 3.1134,1e-4 5.9214,1.5341 8.4242,4.6022 l -4.2765,6.7438 -0.7463,-0.3799 c -1.8816,-2.2539 -3.5122,-3.3809 -4.8917,-3.381 -2.1801,1e-4 -3.9154,0.7532 -5.206,2.2593 -1.2906,1.5062 -2.0452,3.7217 -2.2638,6.6466 l 0,0 0,18.3409 0,0 -4.0232,0 -2.4334,0 z"
           id="p-podroze-r"
           style="fill:#666666;fill-opacity:1;stroke:none" />
        <path
           d="m 1177.3403,4457.4885 c -5.607,0.2412 -10.1577,-1.5359 -13.5583,-4.8626 -3.4005,-3.3267 -5.1008,-7.581 -5.1008,-12.7629 0,-5.1969 1.7018,-9.4667 5.1053,-12.8092 3.4036,-3.3425 7.7732,-5.0137 13.1089,-5.0138 5.3281,1e-4 9.7023,1.6732 13.1225,5.0195 3.4201,3.3463 5.1302,7.6141 5.1302,12.8035 0,5.1759 -1.7082,9.4287 -5.1246,12.7584 -3.4164,3.3297 -7.8552,4.9007 -12.6601,4.9007 z m 0.3594,-6.9421 c 2.6822,-0.2413 4.551,-1.0015 6.419,-2.9682 1.868,-1.9668 2.802,-4.5385 2.802,-7.7152 0,-3.2008 -0.9344,-5.7902 -2.8031,-7.7683 -1.8688,-1.978 -4.2762,-2.9671 -7.2222,-2.9671 -2.952,0 -5.3549,0.9872 -7.2086,2.9615 -1.8537,1.9743 -2.7805,4.5656 -2.7805,7.7739 0,3.1933 0.925,5.7692 2.7749,7.7276 1.8499,1.9585 4.52,2.9377 8.0103,2.9377 z m -6.5304,-30.293 5.1155,-12.375 8.6096,0 -8.5304,12.375 z"
           id="p-podroze-oacute"
           style="fill:#666666;fill-opacity:1;stroke:none" />
        <path
           d="m 1245.16,4457.6159 c -5.2363,0 -9.5162,-1.6618 -12.8397,-4.9855 -3.3237,-3.3237 -4.9855,-7.5795 -4.9855,-12.7674 0,-5.1758 1.4402,-9.4403 4.3206,-12.7934 2.8804,-3.353 6.601,-5.0295 11.1617,-5.0296 4.9557,1e-4 8.7814,1.5665 11.4772,4.6994 2.6957,3.133 4.0435,7.5075 4.0436,13.1236 l 0,1.8952 0,0 -22.7056,0 0,0 c 0.2382,1.9539 0.9423,3.6712 2.1122,5.1517 2.2223,2.058 4.7884,3.087 7.6982,3.087 2.1334,0 4.1148,-0.3758 5.9444,-1.1274 1.8296,-0.7516 4.1465,-2.0312 6.9508,-3.8389 l 0,7.8791 c -2.2977,1.7353 -4.456,2.9535 -6.4747,3.6546 -2.0188,0.7011 -4.2532,1.0516 -6.7032,1.0516 z m 5.4118,-21.5975 0,0 c -0.2699,-1.6177 -0.8586,-3.0424 -1.7662,-4.2742 -1.2755,-1.7444 -3.1533,-2.6166 -5.6334,-2.6166 -2.2013,0 -4.0135,0.9469 -5.4367,2.8405 -0.9755,1.2725 -1.6298,2.6226 -1.963,4.0503 l 0,0 z"
           id="p-podroze-e"
           style="fill:#666666;fill-opacity:1;stroke:none" />
        <g
           transform="translate(-778.69662,0)"
           id="g-podroze-zabovedot">
          <path
             d="m 1973.563,4456.1482 17.3842,-25.9554 0,0 -16.2851,0 0,0 0,-3.7044 0,-3.7043 0,0 29.0175,0 0,0 -17.3142,26.679 0,0 17.3843,0 0,0 0,3.7044 0,3.7044 0,0 -28.5946,0 z"
             id="p-podroze-zabovedot-z"
             style="fill:#666666;fill-opacity:1;stroke:none" />
          <path
             d="m 1988.6561,4411.6871 c 1.3192,1e-4 2.4322,0.4534 3.3391,1.3602 0.9069,0.907 1.3603,1.9959 1.3603,3.2668 0,1.2771 -0.4515,2.3671 -1.3546,3.2702 -0.9031,0.9031 -2.018,1.3547 -3.3448,1.3546 -1.3343,1e-4 -2.4511,-0.4496 -3.3504,-1.349 -0.8994,-0.8992 -1.349,-1.9912 -1.349,-3.2758 0,-1.2785 0.4515,-2.3693 1.3547,-3.2724 0.903,-0.903 2.0179,-1.3545 3.3447,-1.3546 z"
             id="p-podroze-zabovedot-dot"
             style="fill:#666666;fill-opacity:1;stroke:none" />
        </g>
      </g>
    </g>
  </g>
</svg>
