<?xml version="1.0" encoding="UTF-8" standalone="no"?>
<svg
   xmlns:dc="http://purl.org/dc/elements/1.1/"
   xmlns:cc="http://creativecommons.org/ns#"
   xmlns:rdf="http://www.w3.org/1999/02/22-rdf-syntax-ns#"
   xmlns:svg="http://www.w3.org/2000/svg"
   xmlns="http://www.w3.org/2000/svg"
   xmlns:sodipodi="http://sodipodi.sourceforge.net/DTD/sodipodi-0.dtd"
   xmlns:inkscape="http://www.inkscape.org/namespaces/inkscape"
   height="1000"
   width="1000"
   id="svg2"
   version="1.1"
   inkscape:version="0.91 r13725"
   sodipodi:docname="Wikivoyage-Logo-v3-hi.svg">
  <metadata
     id="metadata38">
    <rdf:RDF>
      <cc:Work
         rdf:about="">
        <dc:format>image/svg+xml</dc:format>
        <dc:type
           rdf:resource="http://purl.org/dc/dcmitype/StillImage" />
        <dc:title></dc:title>
      </cc:Work>
    </rdf:RDF>
  </metadata>
  <defs
     id="defs36" />
  <sodipodi:namedview
     pagecolor="#ffffff"
     bordercolor="#666666"
     borderopacity="1"
     objecttolerance="10"
     gridtolerance="10"
     guidetolerance="10"
     inkscape:pageopacity="0"
     inkscape:pageshadow="2"
     inkscape:window-width="1920"
     inkscape:window-height="1018"
     id="namedview34"
     showgrid="false"
     inkscape:zoom="0.27278396"
     inkscape:cx="-912.57987"
     inkscape:cy="1014.6308"
     inkscape:window-x="-8"
     inkscape:window-y="-8"
     inkscape:window-maximized="1"
     inkscape:current-layer="svg2" />
  <g
     id="g8779"
     transform="translate(16,-2)">
    <path
       style="fill:#990000"
       inkscape:connector-curvature="0"
       id="path4"
       d="M 832.20674,300.56187 973.61407,17.747199 690.7994,159.15453 c 69.01112,18.49156 122.91469,72.39622 141.40734,141.40734 z" />
    <path
       style="fill:#006699"
       inkscape:connector-curvature="0"
       id="path6"
       d="M 323.41885,257.59536 7.793,276.54033 271.66052,450.76248 c -18.49156,-69.01111 1.23874,-142.6472 51.75833,-193.16567 z" />
    <path
       style="fill:#339966"
       inkscape:connector-curvature="0"
       id="path8"
       d="M 540.60024,719.69348 714.8224,983.561 733.76737,667.93515 c -50.51846,50.51846 -124.15456,70.25098 -193.16567,51.75833 z" />
    <g
       transform="matrix(3.6359912,0,0,3.6359912,-20.542279,-49.282299)"
       style="fill:#484848"
       id="g10">
      <g
         id="text8098"
         style="font-style:normal;font-weight:normal;font-size:40px;line-height:125%;font-family:sans-serif;letter-spacing:0px;word-spacing:0px;fill:#000000;fill-opacity:1;stroke:none;stroke-width:1px;stroke-linecap:butt;stroke-linejoin:miter;stroke-opacity:1" />
      <g
         id="text8102"
         style="font-style:normal;font-variant:normal;font-weight:normal;font-stretch:normal;font-size:56.21500015px;line-height:125%;font-family:Mangal;-inkscape-font-specification:'Mangal, Normal';text-align:start;letter-spacing:0px;word-spacing:0px;writing-mode:lr-tb;text-anchor:start;fill:#484848;fill-opacity:1;stroke:none;stroke-width:1px;stroke-linecap:butt;stroke-linejoin:miter;stroke-opacity:1">
        <path
           inkscape:connector-curvature="0"
           id="path8120"
           style="font-style:normal;font-variant:normal;font-weight:normal;font-stretch:normal;font-size:56.21500015px;line-height:125%;font-family:Mangal;-inkscape-font-specification:'Mangal, Normal';text-align:start;writing-mode:lr-tb;text-anchor:start;fill:#484848;fill-opacity:1"
           d="m 120.98679,90.788452 0,0 z m 25.99395,7.877786 -1.61948,3.129152 q -16.82607,-13.834157 -29.15055,-14.108645 -3.54088,0 -5.84658,1.235193 -2.88211,1.564578 -2.88211,4.830977 0,2.744873 2.30569,4.034963 l 10.7599,0 0,4.391802 -8.31696,0 0,31.84052 -4.83098,0 0,-31.84052 -6.39555,0 0,-4.391802 2.82722,0 q -0.93326,-2.031206 -0.93326,-4.282002 0,-5.242707 3.78792,-7.932683 3.34875,-2.388039 8.7836,-2.388039 8.23462,0 17.34759,5.132912 5.59955,3.23895 14.16355,10.348172 z m -25.99395,32.993372 0,0 z" />
        <path
           inkscape:connector-curvature="0"
           id="path8122"
           style="font-style:normal;font-variant:normal;font-weight:normal;font-stretch:normal;font-size:56.21500015px;line-height:125%;font-family:Mangal;-inkscape-font-specification:'Mangal, Normal';text-align:start;writing-mode:lr-tb;text-anchor:start;fill:#484848;fill-opacity:1"
           d="m 154.25465,102.17968 -8.37186,0 0,31.84052 -4.83098,0 0,-8.20717 q -1.15284,0.87836 -2.30569,1.45478 -1.15285,0.57643 -2.33314,0.93326 -1.1803,0.32939 -2.38804,0.46663 -1.1803,0.13724 -2.38804,0.13724 -2.22335,0 -4.17221,-0.85091 -1.94886,-0.85091 -3.37619,-2.30569 -1.42733,-1.48223 -2.2508,-3.43109 -0.82346,-1.97631 -0.82346,-4.22711 0,-2.30569 0.90581,-4.19965 0.90581,-1.92141 2.49783,-3.29385 1.59203,-1.37244 3.76048,-2.11355 2.1959,-0.76857 4.74863,-0.76857 1.39989,0 2.60763,0.21959 1.23519,0.21959 2.2508,0.54898 1.04305,0.30193 1.86651,0.65877 0.82346,0.35683 1.39988,0.65877 l 0,-7.52095 -22.48051,0 0,-4.391802 35.68335,0 0,4.391802 z m -13.20284,11.8304 q -0.74111,-0.41173 -1.70182,-0.82346 -0.9607,-0.41173 -2.0312,-0.76857 -1.04305,-0.35683 -2.141,-0.57642 -1.09795,-0.21959 -2.08611,-0.21959 -2.66252,0 -4.19965,0.74111 -1.53713,0.74112 -2.33315,1.78417 -0.76856,1.04305 -0.98815,2.16845 -0.19214,1.1254 -0.19214,1.92141 0,1.34499 0.52153,2.52529 0.52152,1.15284 1.42733,2.0312 0.90581,0.85091 2.141,1.34499 1.23519,0.49408 2.63508,0.49408 1.83906,0 3.34874,-0.49408 1.53713,-0.52153 2.68998,-1.1803 1.15285,-0.68621 1.89396,-1.34498 0.74112,-0.68622 1.0156,-1.01561 l 0,-6.58769 z" />
        <path
           inkscape:connector-curvature="0"
           id="path8124"
           style="font-style:normal;font-variant:normal;font-weight:normal;font-stretch:normal;font-size:56.21500015px;line-height:125%;font-family:Mangal;-inkscape-font-specification:'Mangal, Normal';text-align:start;writing-mode:lr-tb;text-anchor:start;fill:#484848;fill-opacity:1"
           d="m 168.74759,90.788452 0,0 z m 26.73506,7.905234 -1.67437,3.293844 q -8.6738,-6.83473 -11.9951,-9.250218 -7.6033,-5.215259 -13.06559,-5.215259 -4.14476,0 -6.97198,1.94886 -3.04681,2.086103 -3.04681,5.489746 0,1.784168 1.53713,2.827219 l 11.55591,0 0,4.391802 -8.31696,0 0,31.84052 -4.83098,0 0,-31.84052 -6.39555,0 0,-4.391802 2.60763,0 q -0.65877,-1.619475 -0.65877,-3.184052 0,-5.18781 4.50159,-8.536556 4.14476,-3.046809 9.6345,-3.046809 7.08178,0 14.30079,5.434849 3.10171,2.250796 12.81856,10.238376 z m -26.73506,32.965924 0,0 z" />
        <path
           inkscape:connector-curvature="0"
           id="path8126"
           style="font-style:normal;font-variant:normal;font-weight:normal;font-stretch:normal;font-size:56.21500015px;line-height:125%;font-family:Mangal;-inkscape-font-specification:'Mangal, Normal';text-align:start;writing-mode:lr-tb;text-anchor:start;fill:#484848;fill-opacity:1"
           d="m 215.79471,97.787878 0,4.391802 -21.54726,0 0,11.66571 q 1.01561,-0.87836 1.92141,-1.48224 0.90581,-0.60387 1.78417,-0.98815 0.90581,-0.38428 1.81162,-0.54897 0.93325,-0.1647 1.97631,-0.1647 2.00375,0 3.62323,0.68622 1.64692,0.65877 2.77232,1.89396 1.1254,1.2352 1.72927,2.99192 0.63132,1.72927 0.63132,3.87027 0,1.45478 -0.35683,2.90956 -0.32939,1.42734 -0.93326,2.79977 -0.57642,1.34499 -1.37244,2.55273 -0.76856,1.20775 -1.61947,2.14101 l -2.99191,-3.70558 q 0.52152,-0.54898 1.04305,-1.37244 0.52153,-0.85091 0.93326,-1.75672 0.41173,-0.93326 0.65877,-1.89396 0.27448,-0.96071 0.27448,-1.75672 0,-1.39989 -0.49407,-2.36059 -0.49408,-0.98816 -1.2352,-1.59203 -0.71366,-0.60387 -1.53713,-0.85091 -0.79601,-0.27449 -1.42733,-0.27449 -1.1254,0 -2.03121,0.32939 -0.9058,0.30194 -1.75671,0.87836 -0.82347,0.54897 -1.64693,1.34499 -0.82346,0.76856 -1.75672,1.70182 l 0,14.82231 -4.83097,0 0,-11.66571 q -0.65877,0.46663 -1.59203,1.04305 -0.93326,0.54898 -2.03121,1.04306 -1.0705,0.46662 -2.27824,0.79601 -1.20775,0.30193 -2.41549,0.30193 -2.68997,0 -4.52904,-0.82346 -1.81162,-0.82346 -2.93701,-2.11355 -1.1254,-1.29009 -1.61948,-2.85467 -0.49408,-1.56457 -0.49408,-3.04681 0,-1.92141 0.71367,-3.51343 0.74112,-1.59203 2.05866,-2.74488 1.31753,-1.15284 3.1566,-1.78416 1.83906,-0.65877 4.03496,-0.65877 1.48223,0 2.68998,0.24703 1.23519,0.24704 2.22335,0.57643 0.98815,0.32938 1.72927,0.68622 0.76856,0.35683 1.29009,0.57642 l 0,-7.90523 -19.57095,0 0,-4.391802 45.94918,0 z m -26.37823,17.155452 q -0.49408,-0.27448 -1.2352,-0.71366 -0.71366,-0.43918 -1.70182,-0.82346 -0.98815,-0.41173 -2.22335,-0.68622 -1.23519,-0.30194 -2.77232,-0.30194 -5.21526,0 -5.21526,3.98007 0,2.30569 1.31754,3.51344 1.34499,1.18029 3.51344,1.18029 1.0705,0 2.2508,-0.43918 1.20774,-0.43918 2.30569,-1.04305 1.1254,-0.63132 2.11355,-1.31754 0.98816,-0.71367 1.64693,-1.20774 l 0,-2.14101 z" />
      </g>
      <g
         id="text8106"
         style="font-style:normal;font-variant:normal;font-weight:normal;font-stretch:normal;font-size:79.12749481px;line-height:125%;font-family:Mangal;-inkscape-font-specification:'Mangal, Normal';text-align:start;letter-spacing:0px;word-spacing:0px;writing-mode:lr-tb;text-anchor:start;fill:#666666;fill-opacity:1;stroke:none;stroke-width:1px;stroke-linecap:butt;stroke-linejoin:miter;stroke-opacity:1">
        <path
           inkscape:connector-curvature="0"
           id="path8111"
           style="font-style:normal;font-variant:normal;font-weight:normal;font-stretch:normal;font-size:79.12749481px;line-height:125%;font-family:Mangal;-inkscape-font-specification:'Mangal, Normal';text-align:start;writing-mode:lr-tb;text-anchor:start;fill:#666666;fill-opacity:1"
           d="m 163.80907,147.55236 -11.78412,0 0,44.81831 -6.80002,0 0,-13.75459 q -6.10456,3.90229 -13.44549,3.90229 -12.01595,0 -21.09552,-14.99096 1.08182,-1.66136 2.8591,-4.17273 2.12501,0.81136 4.13411,0.81136 3.94092,0 6.29774,-2.20228 2.35682,-2.24091 2.35682,-6.02729 0,-2.43409 -1.89318,-5.29319 -2.04774,-3.09092 -4.28865,-3.09092 l -12.75004,0 0,-6.18184 56.40925,0 0,6.18184 z m -29.51826,41.49557 0,0 z m 0,-44.85694 0,0 z m 10.93412,26.58189 0,-23.22052 -15.37732,0 q 3.43865,3.51592 3.43865,8.46139 0,5.60228 -3.97956,9.65911 -3.97955,4.0182 -9.65911,4.0182 1.54545,2.4341 5.21592,4.25001 3.67046,1.77728 6.9932,1.77728 7.14775,0 13.36822,-4.94547 z m 3.40001,-26.58189 0,0 z m 0,44.85694 0,0 z" />
        <path
           inkscape:connector-curvature="0"
           id="path8113"
           style="font-style:normal;font-variant:normal;font-weight:normal;font-stretch:normal;font-size:79.12749481px;line-height:125%;font-family:Mangal;-inkscape-font-specification:'Mangal, Normal';text-align:start;writing-mode:lr-tb;text-anchor:start;fill:#666666;fill-opacity:1"
           d="m 156.27496,144.19099 0,0 z m 28.16599,3.36137 -11.78413,0 0,44.81831 -6.80002,0 0,-44.81831 -4.82955,0 0,-6.18184 23.4137,0 0,6.18184 z m -28.16599,41.49557 0,0 z m 12.47958,-44.85694 0,0 z" />
        <path
           inkscape:connector-curvature="0"
           id="path8115"
           style="font-style:normal;font-variant:normal;font-weight:normal;font-stretch:normal;font-size:79.12749481px;line-height:125%;font-family:Mangal;-inkscape-font-specification:'Mangal, Normal';text-align:start;writing-mode:lr-tb;text-anchor:start;fill:#666666;fill-opacity:1"
           d="m 217.51377,147.55236 -35.77738,0 0,-6.18184 35.77738,0 0,6.18184 z m -1.77728,28.05008 -22.37052,9.65912 -2.35682,-5.67957 19.39551,-7.95911 q -5.7182,-7.22502 -13.09777,-7.22502 -4.52046,0 -6.9932,3.05228 l -2.35682,-6.02729 q 4.32728,-3.51592 9.69775,-3.51592 4.59774,0 10.89549,4.55911 5.17728,3.74773 7.18638,6.83865 l 0,6.29775 z m -11.24321,-31.41145 0,0 z m 0,44.8183 0,0 z m 25.38416,-41.45693 -11.78413,0 0,44.81831 -6.80001,0 0,-44.81831 -0.69546,0 0,-6.18184 19.2796,0 0,6.18184 z m -15.18413,41.49557 0,0 z m 0,-44.85694 0,0 z" />
        <path
           inkscape:connector-curvature="0"
           id="path8117"
           style="font-style:normal;font-variant:normal;font-weight:normal;font-stretch:normal;font-size:79.12749481px;line-height:125%;font-family:Mangal;-inkscape-font-specification:'Mangal, Normal';text-align:start;writing-mode:lr-tb;text-anchor:start;fill:#666666;fill-opacity:1"
           d="m 222.4206,144.19099 0,0 z m 28.16599,3.36137 -11.78412,0 0,44.81831 -6.80002,0 0,-44.81831 -4.82956,0 0,-6.18184 23.4137,0 0,6.18184 z m -28.16599,41.49557 0,0 z m 12.47958,-44.85694 0,0 z" />
      </g>
    </g>
  </g>
</svg>
