<?xml version="1.0" encoding="UTF-8" standalone="no"?>
<!-- Created with Inkscape (http://www.inkscape.org/) -->

<svg
   xmlns:dc="http://purl.org/dc/elements/1.1/"
   xmlns:cc="http://creativecommons.org/ns#"
   xmlns:rdf="http://www.w3.org/1999/02/22-rdf-syntax-ns#"
   xmlns:svg="http://www.w3.org/2000/svg"
   xmlns="http://www.w3.org/2000/svg"
   xmlns:sodipodi="http://sodipodi.sourceforge.net/DTD/sodipodi-0.dtd"
   xmlns:inkscape="http://www.inkscape.org/namespaces/inkscape"
   width="302.5"
   height="302.5"
   id="svg10464"
   version="1.1"
   inkscape:version="0.48.4 r9939"
   sodipodi:docname="Wikivoyage-Logo-v3-zhtp.svg">
  <defs
     id="defs10466" />
  <sodipodi:namedview
     id="base"
     pagecolor="#ffffff"
     bordercolor="#666666"
     borderopacity="1.0"
     inkscape:pageopacity="0.0"
     inkscape:pageshadow="2"
     inkscape:zoom="0.99999999"
     inkscape:cx="196.48019"
     inkscape:cy="133.83281"
     inkscape:document-units="px"
     inkscape:current-layer="layer1"
     showgrid="false"
     fit-margin-top="0"
     fit-margin-left="0"
     fit-margin-right="0"
     fit-margin-bottom="0"
     inkscape:window-width="1366"
     inkscape:window-height="706"
     inkscape:window-x="-8"
     inkscape:window-y="-8"
     inkscape:window-maximized="1"
     showguides="false">
    <inkscape:grid
       type="xygrid"
       id="grid3045" />
  </sodipodi:namedview>
  <metadata
     id="metadata10469">
    <rdf:RDF>
      <cc:Work
         rdf:about="">
        <dc:format>image/svg+xml</dc:format>
        <dc:type
           rdf:resource="http://purl.org/dc/dcmitype/StillImage" />
        <dc:title />
      </cc:Work>
    </rdf:RDF>
  </metadata>
  <g
     inkscape:label="Ebene 1"
     inkscape:groupmode="layer"
     id="layer1"
     transform="translate(-139.64285,-443.07648)">
    <g
       id="g3085">
      <path
         inkscape:connector-curvature="0"
         id="path10356"
         d="m 293.97457,654.5699 47.91553,72.5714 5.21035,-86.8064 c -13.89437,13.8944 -34.14587,19.3207 -53.12588,14.235 z"
         style="fill:#339966;fill-opacity:1;stroke:none" />
      <path
         style="fill:#990000;fill-opacity:1;stroke:none"
         d="m 374.17446,539.2935 38.89087,-77.7817 -77.78173,38.8908 c 18.98007,5.0857 33.8052,19.9109 38.89086,38.8909 z"
         id="path10358"
         inkscape:connector-curvature="0" />
      <path
         inkscape:connector-curvature="0"
         id="path10360"
         d="m 234.24215,527.4766 -86.80641,5.2104 72.57138,47.9155 c -5.08569,-18.98 0.34069,-39.2315 14.23503,-53.1259 z"
         style="fill:#006699;fill-opacity:1;stroke:none" />
      <g
         id="flowRoot3029"
         style="font-size:56px;font-style:normal;font-variant:normal;font-weight:normal;font-stretch:normal;line-height:125%;letter-spacing:6px;word-spacing:0.01px;fill:#484848;fill-opacity:1;stroke:none;font-family:WenQuanYi Micro Hei;-inkscape-font-specification:WenQuanYi Micro Hei"
         transform="translate(146.64285,442.07648)">
        <path
           id="path3847"
           style="font-weight:bold;letter-spacing:7.19999981px;word-spacing:0px;fill:#484848;font-family:WenQuanYi Micro Hei;-inkscape-font-specification:WenQuanYi Micro Hei Bold"
           d="m 121.87427,133.85986 0,3.64526 -5.49268,0 0,-34.3164 c -0.18232,0.90692 -0.9599,1.90782 -2.33276,3.00268 l -2.60108,-4.47241 c 3.90216,-4.566372 6.76129,-9.516725 8.5774,-14.851075 l 5.28076,1.734619 c -1.02315,2.76176 -2.16703,5.267128 -3.43164,7.516113 l 0,-0.242676 7.37597,0 c -0.84427,-2.236452 -1.91694,-4.577758 -3.21801,-7.023926 l 4.95263,-1.770507 c 1.74996,2.925823 3.09208,5.857298 4.02637,8.794433 l 8.31079,0 0,5.167969 -9.65234,0 0,5.98486 8.36548,0 0,4.73902 -8.36548,0 0,6.19848 8.36548,0 0,4.95435 -8.36548,0 0,5.98486 10.0813,0 0,4.95435 z m 0,-32.81592 0,5.98486 6.51806,0 0,-5.98486 z m 0,10.72388 0,6.19848 6.51806,0 0,-6.19848 z m 0,11.15283 0,5.98486 6.51806,0 0,-5.98486 z M 98.924316,102.95288 c 1.792144,-0.13214 3.453274,-0.39019 4.983394,-0.77417 1.19514,-2.254692 2.51561,-4.856333 3.96143,-7.804936 l 4.99707,1.75 c -3.77573,8.547226 -7.85109,14.970156 -12.22607,19.268796 2.65461,-0.70294 5.11326,-1.35805 7.37597,-1.96533 -0.40561,-1.19171 -0.97755,-2.65061 -1.71582,-4.37671 l 4.10498,-1.8081 c 1.90037,3.66864 3.43561,7.72975 4.60572,12.18335 l -4.68946,2.208 c -0.38283,-1.70099 -0.72178,-3.05906 -1.01684,-4.07422 -3.88511,1.55178 -8.6845,2.83864 -14.398196,3.8606 l -1.474853,-4.31689 c 2.941725,-3.14452 5.658438,-6.56704 8.150149,-10.26758 -1.957369,0.56968 -4.489512,1.06985 -7.596438,1.50049 l -0.982666,-4.51685 c 3.16959,-4.213183 5.802562,-9.792441 7.898924,-16.737792 l 5.53027,1.476562 c -2.04623,6.560259 -4.54875,11.358513 -7.507564,14.39478 z m 13.075444,19.08935 c 1.28171,3.43165 2.21368,7.16692 2.79589,11.20581 l -4.9646,1.46973 c -0.63804,-4.17904 -1.45721,-7.98323 -2.45751,-11.4126 z m -16.782231,0.42896 4.993651,1.22876 c -0.437508,4.91732 -1.452074,9.51904 -3.0437,13.80517 l -4.807373,-2.20972 c 1.434404,-4.26106 2.386877,-8.5358 2.857422,-12.82421 z m 10.412841,0.21362 c 1.10627,4.20411 1.65941,8.5529 1.65942,13.04639 l -5.27905,0.48706 c -1e-5,-4.74984 -0.35719,-9.00862 -1.07153,-12.77637 z"
           inkscape:connector-curvature="0" />
        <path
           id="path3849"
           style="font-weight:bold;letter-spacing:7.19999981px;word-spacing:0px;fill:#484848;font-family:WenQuanYi Micro Hei;-inkscape-font-specification:WenQuanYi Micro Hei Bold"
           d="m 156.72051,90.72851 8.79272,0 0,-3.646972 5.06372,0 0,3.646972 19.1731,0 0,-3.646972 5.27734,0 0,3.646972 9.00806,0 0,4.954346 -9.00806,0 0,16.922364 10.93921,0 0,4.95434 -12.65503,0 c 3.10461,2.32082 7.39416,4.31805 12.86866,5.9917 l -2.67286,5.37476 c -7.02397,-2.63753 -12.51208,-6.42634 -16.46435,-11.36646 l -13.3335,0 c -3.65838,4.50262 -9.20175,8.29143 -16.63012,11.36646 l -2.719,-4.43481 c 6.30273,-2.7093 10.66405,-5.01985 13.08399,-6.93165 l -12.4397,0 0,-4.95434 10.50854,0 0,-16.922364 -8.79272,0 z m 13.85644,7.076905 19.1731,0 0,-2.122559 -19.1731,0 z m 0,7.292235 19.1731,0 0,-2.55151 -19.1731,0 z m 0,7.50757 19.1731,0 0,-2.76685 -19.1731,0 z m -3.56152,10.07959 10.29492,0 0,-4.71851 5.49268,0 0,4.71851 10.29492,0 0,4.95434 -10.29492,0 0,3.41114 18.87402,0 0,4.95434 -42.38281,0 0,-4.95434 18.01611,0 0,-3.41114 -10.29492,0 z"
           inkscape:connector-curvature="0" />
      </g>
      <g
         id="g3081">
        <path
           sodipodi:nodetypes="ccccccccccccccccccccccccccccccccccccccccccccccccccsccsscccccccccccccccccccsccsccccaccca"
           inkscape:connector-curvature="0"
           id="path3073"
           style="font-size:56px;font-style:normal;font-variant:normal;font-weight:bold;font-stretch:normal;line-height:125%;letter-spacing:0px;word-spacing:0px;fill:#666666;fill-opacity:1;stroke:none;font-family:WenQuanYi Micro Hei;-inkscape-font-specification:WenQuanYi Micro Hei Bold"
           d="m 278.01544,584.72848 c 1.35686,0.89416 3.14501,2.59305 4.01067,3.61955 -0.80595,0.60015 -1.14786,0.82466 -1.68865,1.31433 l 11.10034,0 c 1.56653,-1.43779 3.01518,-3.08242 4.34595,-4.93388 l 4.44678,2.55667 -2.36011,2.37721 7.29224,0 0,4.52544 -16.50025,0 -0.87158,1.26466 14.36914,0 0,19.32539 -30.15674,0 0,-19.32539 10.45728,0 0.69556,-1.26466 -14.15552,0 0,-4.52544 8.06328,0 c -0.95271,-0.99236 -1.41402,-1.39239 -2.716,-2.5259 z m -0.51953,16.30045 19.38672,0 0,-1.26466 -19.38672,0 z m 0,4.71856 19.38672,0 0,-1.26466 -19.38672,0 z m 0,4.71855 19.38672,0 0,-1.26467 -19.38672,0 z m -17.26559,-23.94116 c 1.38239,0.57796 4.69159,2.61145 7.45511,4.86046 l -2.89581,3.26763 c -3.09083,-2.22849 -4.59276,-3.54249 -7.15724,-4.99744 z m -3.02689,9.03055 11.3554,0 0,4.526 -5.225,5.245 5.225,0 0,4.326 c -0.17708,0.70281 -0.66401,2.53902 -1.52859,3.86683 1.73419,0.98701 3.02599,1.40446 5.44309,1.88809 2.41705,0.48366 9.08481,0.85048 17.50329,0.85047 l 16.68823,0 -1.93115,4.52544 -17.97339,0 c -6.49644,10e-6 -12.28453,-0.40936 -14.983,-0.99327 -2.6985,-0.58391 -4.64217,-1.58642 -6.71231,-2.99237 -1.57114,1.56204 -2.77768,2.90288 -5.36963,4.77252 l -3.13452,-4.31597 c 2.34586,-1.33187 6.70976,-3.95814 7.80498,-7.60174 l -6.625,0 0,-4.326 5.225,-5.245 -5.7624,0 z m -0.64258,26.70784 34.95898,0 0,-1.23184 5.49268,0 0,1.23184 9.22339,0 0,4.73906 -9.22339,0 0,3.52909 c -4e-5,1.98586 -0.37488,3.3955 -1.12451,4.22893 -0.74972,0.83341 -2.14823,1.25013 -4.19556,1.25013 -2.50996,0 -4.97261,-0.40219 -7.38794,-1.20655 l -0.93481,-4.60576 c 2.75485,0.7155 5.3149,1.07325 7.68017,1.07325 0.31328,0 0.46994,-0.60441 0.46997,-1.81326 l 0,-2.45583 -34.95898,0 z m 11.95776,4.71856 c 3.18895,1.03907 6.03839,2.40114 8.54834,4.08622 l -3.31543,3.65556 c -2.39829,-1.61559 -4.98284,-3.00443 -7.75366,-4.16656 z" />
        <path
           sodipodi:nodetypes="cccccccccccccsccsscccccccccccccccccccccccccccccsccccccccccccccccccccccccccccccccccc"
           inkscape:connector-curvature="0"
           id="path3075"
           style="font-size:56px;font-style:normal;font-variant:normal;font-weight:bold;font-stretch:normal;line-height:125%;letter-spacing:0px;word-spacing:0px;fill:#666666;fill-opacity:1;stroke:none;font-family:WenQuanYi Micro Hei;-inkscape-font-specification:WenQuanYi Micro Hei Bold"
           d="m 321.2901,586.44432 c 3.2049,1.96311 6.0139,4.3597 8.427,7.18976 l -3.59912,4.19902 c -2.71616,-2.95768 -5.49211,-5.46762 -8.32788,-7.52986 z m -4.14258,14.30311 12.12731,0 0,5.168 -5.575,7.567 5.575,0 0,4.868 c -0.43277,2.21286 -0.66633,4.12391 -1.50441,6.27427 1.49933,1.12338 4.9259,2.91101 7.31774,3.20126 2.56858,0.55543 8.35785,0.65637 17.19105,0.65636 l 15.61499,0 -2.34472,5.81232 -17.55982,0 c -6.37226,0 -11.02012,-0.43864 -13.9436,-1.31593 -2.92352,-0.87729 -6.12191,-2.22437 -8.0371,-4.04389 -0.65945,1.21565 -2.92505,3.85306 -5.57325,6.21774 l -3.50342,-5.22271 c 4.07675,-2.47596 6.44461,-6.98172 7.52454,-11.57942 l -6.55,0 0,-4.868 5.375,-7.567 -6.13421,0 z m 13.08228,-8.94027 6.64965,0 c -0.41473,-1.51983 -1.05845,-3.39517 -1.93115,-5.62603 l 5.03467,-1.0237 c 1.14271,2.39265 1.96929,4.60922 2.47974,6.64973 l 5.2705,0 0,4.73906 -9.22168,0 0,4.26909 8.15015,0 c -3e-5,11.70668 -0.38085,18.85485 -1.14246,21.44454 -0.76166,2.58972 -2.51195,3.88457 -5.25085,3.88456 -0.90807,10e-6 -2.14936,-0.0866 -3.72388,-0.25976 l -0.9519,-4.90825 c 1.80808,0.14242 3.22369,0.21363 4.24682,0.21362 0.27342,10e-6 0.56366,-0.45971 0.87073,-1.37916 0.30702,-0.91943 0.53118,-5.67159 0.67249,-14.25649 l -2.89673,0 c -0.27688,8.44818 -1.9739,15.52628 -5.09107,21.23434 l -4.23657,-2.95999 c 2.85969,-5.7616 4.28953,-12.82148 4.28955,-21.17965 l 0,-6.10285 -3.21801,0 z m 21.35888,-6.64973 4.93897,1.25271 c -0.45691,1.94488 -0.95764,3.38614 -1.5022,4.32377 l 12.01074,0 0,4.74077 -13.70947,0 c -0.92289,2.10894 -2.16304,4.11075 -3.72046,6.00543 l -3.71875,-2.79422 c 2.87904,-4.35335 4.77942,-8.86284 5.70117,-13.52846 z m -4.4143,24.02173 7.93481,0 0,-2.90018 c 1.69983,-1.54491 3.05847,-2.64436 4.07593,-3.29837 l -7.93653,0 0,-4.73906 13.85816,0 0,4.78862 c -1.51763,2.12374 -3.16224,4.00308 -4.93384,5.638 l 0,0.51099 6.86328,0 0,4.95439 -6.86328,0 0,8.46127 c -4e-5,1.46747 -0.53097,2.56892 -1.59277,3.30435 -1.06189,0.73545 -2.51852,1.10317 -4.36988,1.10316 -1.06986,10e-6 -2.17899,-0.0951 -3.32739,-0.2854 l -0.70581,-4.88261 c 1.13245,0.14242 2.1191,0.21363 2.95996,0.21362 1.31474,10e-6 1.97213,-0.0319 1.97217,-0.0957 l 0,-7.81869 -7.93481,0 z" />
      </g>
    </g>
  </g>
</svg>
