<?xml version="1.0" encoding="UTF-8" standalone="no"?>
<svg
   xmlns:dc="http://purl.org/dc/elements/1.1/"
   xmlns:cc="http://creativecommons.org/ns#"
   xmlns:rdf="http://www.w3.org/1999/02/22-rdf-syntax-ns#"
   xmlns:svg="http://www.w3.org/2000/svg"
   xmlns="http://www.w3.org/2000/svg"
   xmlns:xlink="http://www.w3.org/1999/xlink"
   version="1.1"
   x="0px"
   y="0px"
   width="118.86119"
   height="17.792999"
   viewBox="0 0 118.86119 17.792999"
   enable-background="new 0 0 135 155"
   xml:space="preserve"
   id="svg3857"><metadata
     id="metadata677"><rdf:RDF><cc:Work
         rdf:about=""><dc:format>image/svg+xml</dc:format><dc:type
           rdf:resource="http://purl.org/dc/dcmitype/StillImage" /></cc:Work></rdf:RDF></metadata><defs
     id="defs4850"><radialGradient
       id="SVGID_1_-9"
       cx="244.5713"
       cy="-427.13919"
       r="68.686798"
       gradientTransform="matrix(1.0143335,0,0,-1.0027573,-201.58843,-373.19215)"
       gradientUnits="userSpaceOnUse"><stop
         offset="0"
         stop-color="#FFF"
         id="stop8452" /><stop
         offset=".4835"
         stop-color="#EAEAEB"
         id="stop8454" /><stop
         offset=".9451"
         stop-color="#A9ABAE"
         id="stop8456" /><stop
         offset="1"
         stop-color="#999B9E"
         id="stop8458" /></radialGradient><radialGradient
       id="SVGID_2_-3"
       cx="197.6416"
       cy="-371.8613"
       r="0"
       gradientTransform="matrix(1,0,0,-1,-329.94669,-369.18718)"
       gradientUnits="userSpaceOnUse"><stop
         offset="0"
         stop-color="#FFF"
         id="stop8463" /><stop
         offset=".4835"
         stop-color="#EAEAEB"
         id="stop8465" /><stop
         offset=".9451"
         stop-color="#A9ABAE"
         id="stop8467" /><stop
         offset="1"
         stop-color="#999B9E"
         id="stop8469" /></radialGradient><linearGradient
       id="SVGID_3_-1"
       gradientUnits="userSpaceOnUse"
       x1="456.27441"
       y1="510.16019"
       x2="502.7757"
       y2="582.91217"
       gradientTransform="matrix(1.0143335,0,0,1.0027573,-396.74661,-487.32429)"><stop
         offset="0"
         stop-color="#8A8A8A"
         id="stop8474" /><stop
         offset=".5687"
         stop-color="#606060"
         id="stop8476" /><stop
         offset=".5914"
         stop-color="#FFF"
         id="stop8478" /><stop
         offset=".6116"
         stop-color="#585858"
         id="stop8480" /><stop
         offset="1"
         stop-color="#303030"
         id="stop8482" /></linearGradient><linearGradient
       id="SVGID_4_-8"
       gradientUnits="userSpaceOnUse"
       x1="425.2861"
       y1="502.9512"
       x2="445.7861"
       y2="598.66058"
       gradientTransform="matrix(1.0143335,0,0,1.0027573,-396.74661,-487.32429)"><stop
         offset="0"
         stop-color="#A8A9AB"
         id="stop8487" /><stop
         offset="1"
         stop-color="#636668"
         id="stop8489" /></linearGradient><linearGradient
       id="SVGID_5_-1"
       gradientUnits="userSpaceOnUse"
       x1="421.06839"
       y1="504.37009"
       x2="441.06799"
       y2="597.74329"
       gradientTransform="matrix(1.0143335,0,0,1.0027573,-396.74661,-487.32429)"><stop
         offset="0"
         stop-color="#A8A9AB"
         id="stop8494" /><stop
         offset="1"
         stop-color="#636668"
         id="stop8496" /></linearGradient><linearGradient
       id="SVGID_6_-0"
       gradientUnits="userSpaceOnUse"
       x1="444.7598"
       y1="550.81451"
       x2="473.8418"
       y2="550.81451"
       gradientTransform="matrix(1.0143335,0,0,1.0027573,-396.74661,-487.32429)"><stop
         offset="0"
         stop-color="#231F20"
         id="stop8501" /><stop
         offset="1"
         stop-color="#474747"
         id="stop8503" /></linearGradient><linearGradient
       id="SVGID_7_-3"
       gradientUnits="userSpaceOnUse"
       x1="266.49219"
       y1="-395.27829"
       x2="295.96439"
       y2="-485.03491"
       gradientTransform="matrix(1.0143335,0,0,-1.0027573,-201.58843,-373.19215)"><stop
         offset="0"
         stop-color="#FFF"
         id="stop8528" /><stop
         offset=".0094"
         stop-color="#FCFCFC"
         id="stop8530" /><stop
         offset=".0655"
         stop-color="#EEEEEE"
         id="stop8532" /><stop
         offset=".1342"
         stop-color="#E5E5E5"
         id="stop8534" /><stop
         offset=".2515"
         stop-color="#E3E3E3"
         id="stop8536" /><stop
         offset=".3357"
         stop-color="#8A8A8A"
         id="stop8538" /><stop
         offset=".4422"
         stop-color="#B8B8B8"
         id="stop8540" /><stop
         offset="1"
         stop-color="#3B3B3B"
         id="stop8542" /></linearGradient><linearGradient
       id="SVGID_8_-9"
       gradientUnits="userSpaceOnUse"
       x1="460.46289"
       y1="512.55573"
       x2="509.58841"
       y2="573.30621"
       gradientTransform="matrix(1.0143335,0,0,1.0027573,-396.74661,-487.32429)"><stop
         offset="0"
         stop-color="#EFF0F0"
         id="stop8547" /><stop
         offset=".5914"
         stop-color="#F0F1F2"
         id="stop8549" /><stop
         offset=".599"
         stop-color="#787878"
         id="stop8551" /><stop
         offset=".6456"
         stop-color="#EEEFF0"
         id="stop8553" /><stop
         offset="1"
         stop-color="#D8D9DB"
         id="stop8555" /></linearGradient><linearGradient
       id="SVGID_9_-0"
       gradientUnits="userSpaceOnUse"
       x1="272.8721"
       y1="-392.82571"
       x2="302.46991"
       y2="-482.9646"
       gradientTransform="matrix(1.0143335,0,0,-1.0027573,-201.58843,-373.19215)"><stop
         offset="0"
         stop-color="#FFF"
         id="stop8560" /><stop
         offset="1"
         stop-color="#E4E5E6"
         id="stop8562" /></linearGradient><linearGradient
       id="SVGID_10_-2"
       gradientUnits="userSpaceOnUse"
       x1="444.69431"
       y1="510.95609"
       x2="469.72461"
       y2="592.06989"
       gradientTransform="matrix(1.0143335,0,0,1.0027573,-396.74661,-487.32429)"><stop
         offset="0"
         stop-color="#FFF"
         id="stop8567" /><stop
         offset=".7473"
         stop-color="#F9F9F9"
         id="stop8569" /><stop
         offset="1"
         stop-color="#D5D7D8"
         id="stop8571" /></linearGradient><linearGradient
       id="SVGID_11_-1"
       gradientUnits="userSpaceOnUse"
       x1="390.04199"
       y1="485.67969"
       x2="390.04199"
       y2="485.67969"
       gradientTransform="translate(-390.0421,-485.6793)"><stop
         offset="0"
         stop-color="#FFF"
         id="stop8576" /><stop
         offset=".7473"
         stop-color="#F9F9F9"
         id="stop8578" /><stop
         offset="1"
         stop-color="#D5D7D8"
         id="stop8580" /></linearGradient><linearGradient
       id="SVGID_13_-3"
       gradientUnits="userSpaceOnUse"
       x1="274.53421"
       y1="-396.15771"
       x2="255.20911"
       y2="-490.1944"
       gradientTransform="matrix(1.0143335,0,0,-1.0027573,-201.58843,-373.19215)"><stop
         offset="0"
         stop-color="#FFF"
         id="stop8602" /><stop
         offset="1"
         stop-color="#E4E5E6"
         id="stop8604" /></linearGradient><linearGradient
       id="SVGID_14_-6"
       gradientUnits="userSpaceOnUse"
       x1="422.55859"
       y1="518.75677"
       x2="427.28781"
       y2="578.17682"
       gradientTransform="matrix(1.0143335,0,0,1.0027573,-396.74661,-487.32429)"><stop
         offset=".2198"
         stop-color="#989A9C"
         id="stop8609" /><stop
         offset=".2527"
         stop-color="#FFF"
         id="stop8611" /></linearGradient><linearGradient
       id="SVGID_15_-4"
       gradientUnits="userSpaceOnUse"
       x1="237.3721"
       y1="-388.36041"
       x2="218.8474"
       y2="-478.50229"
       gradientTransform="matrix(1.0143335,0,0,-1.0027573,-201.58843,-373.19215)"><stop
         offset="0"
         stop-color="#FFF"
         id="stop8616" /><stop
         offset="1"
         stop-color="#E4E5E6"
         id="stop8618" /></linearGradient><linearGradient
       id="SVGID_16_-9"
       gradientUnits="userSpaceOnUse"
       x1="259.90631"
       y1="-479.33789"
       x2="259.89871"
       y2="-479.37521"
       gradientTransform="matrix(1.0143335,0,0,-1.0027573,-201.58843,-373.19215)"><stop
         offset="0"
         stop-color="#FFF"
         id="stop8623" /><stop
         offset="1"
         stop-color="#E4E5E6"
         id="stop8625" /></linearGradient><linearGradient
       id="SVGID_17_-1"
       gradientUnits="userSpaceOnUse"
       x1="268.90329"
       y1="-394.63821"
       x2="249.4966"
       y2="-489.07251"
       gradientTransform="matrix(1.0143335,0,0,-1.0027573,-201.58843,-373.19215)"><stop
         offset="0"
         stop-color="#FFF"
         id="stop8634" /><stop
         offset="1"
         stop-color="#E4E5E6"
         id="stop8636" /></linearGradient><linearGradient
       id="SVGID_18_-9"
       gradientUnits="userSpaceOnUse"
       x1="254.4561"
       y1="-391.59909"
       x2="235.03371"
       y2="-486.11041"
       gradientTransform="matrix(1.0143335,0,0,-1.0027573,-201.58843,-373.19215)"><stop
         offset="0"
         stop-color="#FFF"
         id="stop8641" /><stop
         offset="1"
         stop-color="#E4E5E6"
         id="stop8643" /></linearGradient><linearGradient
       id="SVGID_19_-7"
       gradientUnits="userSpaceOnUse"
       x1="262.6514"
       y1="-392.96921"
       x2="243.1559"
       y2="-487.83551"
       gradientTransform="matrix(1.0143335,0,0,-1.0027573,-201.58843,-373.19215)"><stop
         offset="0"
         stop-color="#FFF"
         id="stop8648" /><stop
         offset="1"
         stop-color="#E4E5E6"
         id="stop8650" /></linearGradient><linearGradient
       id="SVGID_20_-6"
       gradientUnits="userSpaceOnUse"
       x1="271.54791"
       y1="-390.95749"
       x2="251.1904"
       y2="-490.01761"
       gradientTransform="matrix(1.0143335,0,0,-1.0027573,-201.58843,-373.19215)"><stop
         offset="0"
         stop-color="#FFF"
         id="stop8655" /><stop
         offset="1"
         stop-color="#E4E5E6"
         id="stop8657" /></linearGradient><linearGradient
       id="SVGID_21_-1"
       gradientUnits="userSpaceOnUse"
       x1="274.6582"
       y1="-395.84421"
       x2="255.25591"
       y2="-490.2569"
       gradientTransform="matrix(1.0143335,0,0,-1.0027573,-201.58843,-373.19215)"><stop
         offset="0"
         stop-color="#FFF"
         id="stop8662" /><stop
         offset="1"
         stop-color="#E4E5E6"
         id="stop8664" /></linearGradient><linearGradient
       id="SVGID_22_-0"
       gradientUnits="userSpaceOnUse"
       x1="221.1826"
       y1="-454.56491"
       x2="221.373"
       y2="-454.56491"
       gradientTransform="matrix(1.0143335,0,0,-1.0027573,-201.58843,-373.19215)"><stop
         offset="0"
         stop-color="#808080"
         id="stop8693" /><stop
         offset=".0868"
         stop-color="#7A7A7A"
         id="stop8695" /><stop
         offset=".36"
         stop-color="#6B6B6B"
         id="stop8697" /><stop
         offset=".5192"
         stop-color="#686868"
         id="stop8699" /><stop
         offset=".6377"
         stop-color="#5F5F5F"
         id="stop8701" /><stop
         offset=".7431"
         stop-color="#4E4E4E"
         id="stop8703" /><stop
         offset=".8408"
         stop-color="#383838"
         id="stop8705" /><stop
         offset=".9324"
         stop-color="#1B1B1B"
         id="stop8707" /><stop
         offset="1"
         stop-color="#000"
         id="stop8709" /></linearGradient><linearGradient
       id="SVGID_23_-1"
       gradientUnits="userSpaceOnUse"
       x1="221.4043"
       y1="-449.8027"
       x2="316.02539"
       y2="-449.8027"
       gradientTransform="matrix(1.0143335,0,0,-1.0027573,-201.58843,-373.19215)"><stop
         offset="0"
         stop-color="#808080"
         id="stop8714" /><stop
         offset=".0868"
         stop-color="#7A7A7A"
         id="stop8716" /><stop
         offset=".3817"
         stop-color="#828282"
         id="stop8718" /><stop
         offset=".5185"
         stop-color="#808080"
         id="stop8720" /><stop
         offset=".5677"
         stop-color="#797979"
         id="stop8722" /><stop
         offset=".6027"
         stop-color="#6E6E6E"
         id="stop8724" /><stop
         offset=".608"
         stop-color="#6B6B6B"
         id="stop8726" /><stop
         offset="1"
         stop-color="#4E4E4E"
         id="stop8728" /></linearGradient><linearGradient
       id="SVGID_24_-5"
       gradientUnits="userSpaceOnUse"
       x1="214.5928"
       y1="-431.35599"
       x2="314.4043"
       y2="-431.35599"
       gradientTransform="matrix(1.0143335,0,0,-1.0027573,-201.58843,-373.19215)"><stop
         offset="0"
         stop-color="#555555"
         id="stop8733" /><stop
         offset="1"
         stop-color="#231F20"
         id="stop8735" /></linearGradient><linearGradient
       id="SVGID_25_-5"
       gradientUnits="userSpaceOnUse"
       x1="214.8965"
       y1="-410.88181"
       x2="306.50101"
       y2="-410.88181"
       gradientTransform="matrix(1.0143335,0,0,-1.0027573,-201.58843,-373.19215)"><stop
         offset="0"
         stop-color="#A0A0A0"
         id="stop8740" /><stop
         offset=".0769"
         stop-color="#656767"
         id="stop8742" /><stop
         offset="1"
         stop-color="#717375"
         id="stop8744" /></linearGradient><linearGradient
       id="SVGID_26_-5"
       gradientUnits="userSpaceOnUse"
       x1="217.6563"
       y1="-436.75101"
       x2="217.6563"
       y2="-436.75101"
       gradientTransform="matrix(1.0143335,0,0,-1.0027573,-201.58843,-373.19215)"><stop
         offset="0"
         stop-color="#FFF"
         id="stop8759" /><stop
         offset=".078"
         stop-color="#F4F4F4"
         id="stop8761" /><stop
         offset=".3807"
         stop-color="#CECECE"
         id="stop8763" /><stop
         offset=".5396"
         stop-color="#BFBFBF"
         id="stop8765" /><stop
         offset=".8357"
         stop-color="#7C7C7C"
         id="stop8767" /><stop
         offset=".8996"
         stop-color="#A8A8A8"
         id="stop8769" /><stop
         offset=".9093"
         stop-color="#9A9A9A"
         id="stop8771" /><stop
         offset=".9327"
         stop-color="#7D7D7D"
         id="stop8773" /><stop
         offset=".9558"
         stop-color="#686868"
         id="stop8775" /><stop
         offset=".9785"
         stop-color="#5B5B5B"
         id="stop8777" /><stop
         offset="1"
         stop-color="#575757"
         id="stop8779" /></linearGradient><linearGradient
       id="SVGID_27_-4"
       gradientUnits="userSpaceOnUse"
       x1="214.3262"
       y1="-436.51071"
       x2="322.8717"
       y2="-424.48511"
       gradientTransform="matrix(1.0143335,0,0,-1.0027573,-201.58843,-373.19215)"><stop
         offset="0"
         stop-color="#FFF"
         id="stop8784" /><stop
         offset=".078"
         stop-color="#F4F4F4"
         id="stop8786" /><stop
         offset=".3807"
         stop-color="#CECECE"
         id="stop8788" /><stop
         offset=".5396"
         stop-color="#BFBFBF"
         id="stop8790" /><stop
         offset=".8357"
         stop-color="#7C7C7C"
         id="stop8792" /><stop
         offset=".8996"
         stop-color="#A8A8A8"
         id="stop8794" /><stop
         offset=".9093"
         stop-color="#9A9A9A"
         id="stop8796" /><stop
         offset=".9327"
         stop-color="#7D7D7D"
         id="stop8798" /><stop
         offset=".9558"
         stop-color="#686868"
         id="stop8800" /><stop
         offset=".9785"
         stop-color="#5B5B5B"
         id="stop8802" /><stop
         offset="1"
         stop-color="#575757"
         id="stop8804" /></linearGradient><linearGradient
       id="SVGID_28_-8"
       gradientUnits="userSpaceOnUse"
       x1="213.8887"
       y1="-436.47711"
       x2="336.8819"
       y2="-422.85101"
       gradientTransform="matrix(1.0143335,0,0,-1.0027573,-201.58843,-373.19215)"><stop
         offset="0"
         stop-color="#FFF"
         id="stop8809" /><stop
         offset=".078"
         stop-color="#F4F4F4"
         id="stop8811" /><stop
         offset=".3807"
         stop-color="#CECECE"
         id="stop8813" /><stop
         offset=".5396"
         stop-color="#BFBFBF"
         id="stop8815" /><stop
         offset=".8357"
         stop-color="#7C7C7C"
         id="stop8817" /><stop
         offset=".8996"
         stop-color="#A8A8A8"
         id="stop8819" /><stop
         offset=".9093"
         stop-color="#9A9A9A"
         id="stop8821" /><stop
         offset=".9327"
         stop-color="#7D7D7D"
         id="stop8823" /><stop
         offset=".9558"
         stop-color="#686868"
         id="stop8825" /><stop
         offset=".9785"
         stop-color="#5B5B5B"
         id="stop8827" /><stop
         offset="1"
         stop-color="#575757"
         id="stop8829" /></linearGradient><linearGradient
       id="SVGID_29_-6"
       gradientUnits="userSpaceOnUse"
       x1="411.25391"
       y1="557.00201"
       x2="507.2363"
       y2="537.62769"
       gradientTransform="matrix(1.0143335,0,0,1.0027573,-396.74661,-487.32429)"><stop
         offset="0"
         stop-color="#EDEDEE"
         id="stop8834" /><stop
         offset=".4176"
         stop-color="#FFF"
         id="stop8836" /><stop
         offset=".6264"
         stop-color="#F8F9F9"
         id="stop8838" /><stop
         offset="1"
         stop-color="#BFC0C2"
         id="stop8840" /></linearGradient><linearGradient
       id="SVGID_30_-2"
       gradientUnits="userSpaceOnUse"
       x1="413.5137"
       y1="516.41211"
       x2="417.99899"
       y2="516.41211"
       gradientTransform="matrix(1.0143335,0,0,1.0027573,-396.74661,-487.32429)"><stop
         offset="0"
         stop-color="#E2E3E4"
         id="stop8851" /><stop
         offset=".5055"
         stop-color="#FFF"
         id="stop8853" /></linearGradient><linearGradient
       id="SVGID_31_-1"
       gradientUnits="userSpaceOnUse"
       x1="414.24509"
       y1="568.26562"
       x2="509.00549"
       y2="545.72729"
       gradientTransform="matrix(1.0143335,0,0,1.0027573,-396.74661,-487.32429)"><stop
         offset="0"
         stop-color="#EDEDEE"
         id="stop9208" /><stop
         offset=".4176"
         stop-color="#FFF"
         id="stop9210" /><stop
         offset=".6264"
         stop-color="#F8F9F9"
         id="stop9212" /><stop
         offset=".9505"
         stop-color="#B2B4B6"
         id="stop9214" /></linearGradient><linearGradient
       id="SVGID_32_-5"
       gradientUnits="userSpaceOnUse"
       x1="416.69919"
       y1="578.56451"
       x2="511.82281"
       y2="555.93982"
       gradientTransform="matrix(1.0143335,0,0,1.0027573,-396.74661,-487.32429)"><stop
         offset="0"
         stop-color="#EDEDEE"
         id="stop9219" /><stop
         offset=".4176"
         stop-color="#FFF"
         id="stop9221" /><stop
         offset=".6264"
         stop-color="#F8F9F9"
         id="stop9223" /><stop
         offset=".9505"
         stop-color="#B2B4B6"
         id="stop9225" /></linearGradient><linearGradient
       id="SVGID_33_-6"
       gradientUnits="userSpaceOnUse"
       x1="415.4736"
       y1="573.41992"
       x2="510.58691"
       y2="550.79773"
       gradientTransform="matrix(1.0143335,0,0,1.0027573,-396.74661,-487.32429)"><stop
         offset="0"
         stop-color="#EDEDEE"
         id="stop9230" /><stop
         offset=".4176"
         stop-color="#FFF"
         id="stop9232" /><stop
         offset=".6264"
         stop-color="#F8F9F9"
         id="stop9234" /><stop
         offset=".9505"
         stop-color="#B2B4B6"
         id="stop9236" /></linearGradient><linearGradient
       id="SVGID_34_-3"
       gradientUnits="userSpaceOnUse"
       x1="414.77539"
       y1="570.47852"
       x2="509.86969"
       y2="547.86102"
       gradientTransform="matrix(1.0143335,0,0,1.0027573,-396.74661,-487.32429)"><stop
         offset="0"
         stop-color="#EDEDEE"
         id="stop9241" /><stop
         offset=".4176"
         stop-color="#FFF"
         id="stop9243" /><stop
         offset=".6264"
         stop-color="#F8F9F9"
         id="stop9245" /><stop
         offset=".9505"
         stop-color="#B2B4B6"
         id="stop9247" /></linearGradient><linearGradient
       id="SVGID_35_-1"
       gradientUnits="userSpaceOnUse"
       x1="414.91501"
       y1="571.06641"
       x2="510.04001"
       y2="548.44153"
       gradientTransform="matrix(1.0143335,0,0,1.0027573,-396.74661,-487.32429)"><stop
         offset="0"
         stop-color="#EDEDEE"
         id="stop9252" /><stop
         offset=".4176"
         stop-color="#FFF"
         id="stop9254" /><stop
         offset=".6264"
         stop-color="#F8F9F9"
         id="stop9256" /><stop
         offset=".9505"
         stop-color="#B2B4B6"
         id="stop9258" /></linearGradient><linearGradient
       id="SVGID_36_-6"
       gradientUnits="userSpaceOnUse"
       x1="416.10349"
       y1="576.06543"
       x2="511.22861"
       y2="553.44049"
       gradientTransform="matrix(1.0143335,0,0,1.0027573,-396.74661,-487.32429)"><stop
         offset="0"
         stop-color="#EDEDEE"
         id="stop9263" /><stop
         offset=".4176"
         stop-color="#FFF"
         id="stop9265" /><stop
         offset=".6264"
         stop-color="#F8F9F9"
         id="stop9267" /><stop
         offset=".9505"
         stop-color="#B2B4B6"
         id="stop9269" /></linearGradient><linearGradient
       id="SVGID_37_-0"
       gradientUnits="userSpaceOnUse"
       x1="412.6152"
       y1="535.39941"
       x2="501.58649"
       y2="514.88458"
       gradientTransform="matrix(1.0143335,0,0,1.0027573,-396.74661,-487.32429)"><stop
         offset="0"
         stop-color="#FFF"
         id="stop9276" /><stop
         offset=".6538"
         stop-color="#FFF"
         id="stop9278" /><stop
         offset="1"
         stop-color="#CBCCCE"
         id="stop9280" /></linearGradient><linearGradient
       id="SVGID_38_-6"
       gradientUnits="userSpaceOnUse"
       x1="390.04199"
       y1="485.67969"
       x2="390.04199"
       y2="485.67969"
       gradientTransform="translate(-522.34709,-483.00548)"><stop
         offset="0"
         stop-color="#FFF"
         id="stop9285" /><stop
         offset=".6538"
         stop-color="#FFF"
         id="stop9287" /><stop
         offset="1"
         stop-color="#CBCCCE"
         id="stop9289" /></linearGradient><linearGradient
       id="SVGID_39_-2"
       gradientUnits="userSpaceOnUse"
       x1="231.23241"
       y1="-407.87109"
       x2="263.61911"
       y2="-407.87109"
       gradientTransform="matrix(1.0143335,0,0,-1.0027573,-201.58843,-373.19215)"><stop
         offset="0"
         stop-color="#696969"
         id="stop9306" /><stop
         offset=".3702"
         stop-color="#2E2E2E"
         id="stop9308" /><stop
         offset=".4554"
         stop-color="#424242"
         id="stop9310" /><stop
         offset=".6014"
         stop-color="#303030"
         id="stop9312" /><stop
         offset=".6947"
         stop-color="#4A4A4A"
         id="stop9314" /><stop
         offset="1"
         stop-color="#666666"
         id="stop9316" /></linearGradient><linearGradient
       id="SVGID_40_"
       gradientUnits="userSpaceOnUse"
       x1="231.623"
       y1="-407.06299"
       x2="263.49411"
       y2="-407.06299"
       gradientTransform="matrix(1.0143335,0,0,-1.0027573,-201.58843,-373.19215)"><stop
         offset="0"
         stop-color="#525252"
         id="stop9321" /><stop
         offset=".1856"
         stop-color="#333333"
         id="stop9323" /><stop
         offset=".354"
         stop-color="#AEAEAE"
         id="stop9325" /><stop
         offset=".4199"
         stop-color="#ADADAD"
         id="stop9327" /><stop
         offset=".4276"
         stop-color="#9D9D9D"
         id="stop9329" /><stop
         offset=".4433"
         stop-color="#818181"
         id="stop9331" /><stop
         offset=".4611"
         stop-color="#6A6A6A"
         id="stop9333" /><stop
         offset=".4814"
         stop-color="#585858"
         id="stop9335" /><stop
         offset=".506"
         stop-color="#4C4C4C"
         id="stop9337" /><stop
         offset=".539"
         stop-color="#444444"
         id="stop9339" /><stop
         offset=".6166"
         stop-color="#424242"
         id="stop9341" /><stop
         offset=".6684"
         stop-color="#454545"
         id="stop9343" /><stop
         offset="1"
         stop-color="#BDBDBD"
         id="stop9345" /></linearGradient><linearGradient
       id="SVGID_41_"
       gradientUnits="userSpaceOnUse"
       x1="236.91701"
       y1="-417.33301"
       x2="235.8882"
       y2="-410.52719"
       gradientTransform="matrix(1.0143335,0,0,-1.0027573,-201.58843,-373.19215)"><stop
         offset="0"
         stop-color="#969696"
         id="stop9350" /><stop
         offset="1"
         stop-color="#000"
         id="stop9352" /></linearGradient><linearGradient
       id="SVGID_42_"
       gradientUnits="userSpaceOnUse"
       x1="428.7803"
       y1="532.05267"
       x2="429.5303"
       y2="524.46918"
       gradientTransform="matrix(1.0143335,0,0,1.0027573,-396.74661,-487.32429)"><stop
         offset="0"
         stop-color="#333333"
         id="stop9361" /><stop
         offset=".431"
         stop-color="#000"
         id="stop9363" /><stop
         offset="1"
         stop-color="#2E2E2E"
         id="stop9365" /></linearGradient><radialGradient
       id="SVGID_43_-6"
       cx="251.80859"
       cy="-408.3613"
       r="72.7509"
       gradientTransform="matrix(1.0143335,0,0,-1.0027573,-201.58843,-373.19215)"
       gradientUnits="userSpaceOnUse"><stop
         offset="0"
         stop-color="#000"
         stop-opacity="0"
         id="stop9376-1" /><stop
         offset=".8022"
         stop-color="#000"
         stop-opacity=".08"
         id="stop9378-5" /><stop
         offset="1"
         stop-color="#000"
         stop-opacity=".3882"
         id="stop9380-0" /></radialGradient><linearGradient
       xlink:href="#SVGID_11_-1"
       id="linearGradient14595"
       gradientUnits="userSpaceOnUse"
       gradientTransform="translate(-522.34709,-483.00548)"
       x1="390.04199"
       y1="485.67969"
       x2="390.04199"
       y2="485.67969" /><linearGradient
       xlink:href="#SVGID_11_-1"
       id="linearGradient14597"
       gradientUnits="userSpaceOnUse"
       gradientTransform="translate(-522.34709,-483.00548)"
       x1="390.04199"
       y1="485.67969"
       x2="390.04199"
       y2="485.67969" /></defs><g
     transform="translate(-8.0068127,-115)"
     id="Wikipedia"><path
       d="m 23.559651,115.891 c 1.160999,0.162 1.025999,0.756 0.216,2.322 l -1.431,2.7 -0.135,-0.135 -1.323,-2.727 c -0.728999,-1.539 -0.836999,-1.998 0.297,-2.16 0.162,-0.162 0.162,-0.729 0,-0.891 -0.971999,0.027 -1.404001,0.054 -2.457,0.054 -1.079999,0 -1.539001,-0.027 -2.403,-0.054 -0.161999,0.162 -0.134999,0.729 0.027,0.891 1.160999,0.162 1.377001,0.54 2.268,2.457 l 2.268,4.833 -2.997,6.129 h -0.135 l -4.940999,-11.259 c -0.675,-1.539 -0.593999,-1.971 1.107,-2.16 0.161999,-0.162 0.161999,-0.729 0,-0.891 -1.268999,0.027 -1.944001,0.054 -2.997,0.054 -1.0799984,0 -1.5390014,-0.027 -2.8079994,-0.054 -0.162,0.162 -0.135,0.729 0.027,0.891 1.538998,0.135 1.593,0.54 2.4029994,2.457 l 5.885999,13.824 c 0.162,0.405 0.351,0.621 0.621,0.621 0.297,0 0.486,-0.216 0.648,-0.621 l 3.969,-7.83 3.645,7.83 c 0.135,0.405 0.351,0.621 0.621,0.621 0.297,0 0.459,-0.216 0.648,-0.621 l 6.372,-13.77 c 0.566999,-1.242 0.891002,-2.295 2.673,-2.511 0.162,-0.162 0.162,-0.729 0,-0.891 -1.079999,0.027 -1.755001,0.054 -2.376,0.054 -0.620999,0 -1.404001,-0.027 -2.673,-0.054 -0.162,0.162 -0.162,0.729 0,0.891 1.754998,0.135 1.781999,0.864 1.161,2.322 l -5.13,11.097 h -0.135 l -3.456,-7.128 1.971,-3.78 c 0.674999,-1.242 1.269001,-2.295 2.673,-2.511 0.162,-0.162 0.162,-0.729 0,-0.891 -0.674999,0.027 -1.350001,0.054 -1.971,0.054 -0.620999,0 -1.134001,-0.027 -2.133,-0.054 -0.162,0.162 -0.162,0.729 0,0.891"
       id="path3417" /><path
       id="path3904"
       d="m 37.592,130.77 c 0,0.572 0.26,0.91 1.092,0.988 l 0.546,0.053 c 0.078,0 0.156,0.051 0.156,0.155 v 0.546 l -0.026,0.053 c 0,0 -1.976,-0.053 -2.782,-0.053 -0.728,0 -2.756,0.053 -2.756,0.053 l -0.052,-0.053 v -0.546 c 0,-0.104 0.078,-0.155 0.182,-0.155 l 0.52,-0.053 c 0.858,-0.078 1.118,-0.494 1.118,-0.988 v -8.658 c 0,-0.571 -0.313,-0.729 -1.118,-0.805 l -0.52,-0.054 c -0.104,0 -0.182,-0.024 -0.182,-0.104 v -0.599 l 0.026,-0.052 c 0,0 2.054,0.052 2.86,0.052 0.702,0 2.704,-0.052 2.704,-0.052 l 0.026,0.052 v 0.572 c 0,0.078 -0.052,0.13 -0.156,0.13 l -0.546,0.053 c -0.806,0.077 -1.092,0.286 -1.092,0.807 z" /><path
       id="path3906"
       d="m 45.265,130.77 c 0,0.572 0.338,0.858 1.092,0.988 l 0.286,0.053 c 0.078,0.025 0.156,0.051 0.156,0.155 v 0.546 l -0.026,0.053 c 0,0 -1.638,-0.053 -2.418,-0.053 -0.728,0 -2.86,0.053 -2.86,0.053 l -0.052,-0.053 v -0.546 c 0,-0.104 0.078,-0.155 0.182,-0.155 l 0.52,-0.053 c 0.78,-0.078 1.118,-0.494 1.118,-0.988 v -8.658 c 0,-0.571 -0.286,-0.729 -1.118,-0.805 l -0.52,-0.054 c -0.104,0 -0.182,-0.024 -0.182,-0.104 v -0.599 l 0.026,-0.052 c 0,0 2.132,0.052 2.938,0.052 0.729,0 2.366,-0.052 2.366,-0.052 l 0.026,0.052 v 0.572 c 0,0.078 -0.052,0.104 -0.156,0.13 l -0.286,0.053 c -0.806,0.155 -1.092,0.286 -1.092,0.807 v 3.926 c 0.858,0 1.352,-0.441 2.496,-1.664 1.04,-1.145 1.846,-2.105 1.846,-2.6 0,-0.209 -0.234,-0.442 -0.754,-0.521 -0.104,-0.025 -0.156,-0.052 -0.156,-0.13 v -0.599 l 0.026,-0.025 c 0,0 2.106,0.052 2.86,0.052 0.676,0 1.82,-0.052 1.82,-0.052 l 0.078,0.025 v 0.599 c 0,0.078 -0.078,0.13 -0.208,0.13 -1.014,0.078 -1.716,0.13 -2.652,1.196 l -2.236,2.573 c -0.442,0.469 -0.598,0.754 -0.598,0.963 0,0.156 0.104,0.285 0.234,0.441 l 3.926,4.732 c 0.312,0.363 0.936,0.52 1.456,0.623 l 0.13,0.025 c 0.078,0.026 0.182,0.078 0.182,0.156 v 0.546 l -0.078,0.026 c 0,0 -1.378,-0.026 -2.106,-0.026 -0.65,0 -1.586,0.026 -1.586,0.026 l -0.026,-0.026 v -0.312 c 0,-0.339 -0.026,-0.623 -0.39,-1.039 l -2.886,-3.589 c -0.39,-0.521 -0.806,-0.649 -1.378,-0.649 z" /><path
       id="path3908"
       d="m 59.282,130.77 c 0,0.572 0.26,0.91 1.092,0.988 l 0.546,0.053 c 0.078,0 0.156,0.051 0.156,0.155 v 0.546 l -0.026,0.053 c 0,0 -1.976,-0.053 -2.782,-0.053 -0.728,0 -2.756,0.053 -2.756,0.053 l -0.052,-0.053 v -0.546 c 0,-0.104 0.078,-0.155 0.182,-0.155 l 0.52,-0.053 c 0.858,-0.078 1.118,-0.494 1.118,-0.988 v -8.658 c 0,-0.571 -0.312,-0.729 -1.118,-0.805 l -0.52,-0.054 c -0.104,0 -0.182,-0.024 -0.182,-0.104 v -0.599 l 0.026,-0.052 c 0,0 2.054,0.052 2.86,0.052 0.702,0 2.704,-0.052 2.704,-0.052 l 0.026,0.052 v 0.572 c 0,0.078 -0.052,0.13 -0.156,0.13 l -0.546,0.053 c -0.806,0.077 -1.092,0.286 -1.092,0.807 z" /><path
       id="path3910"
       d="m 64.9,122.163 c 0,-0.806 -0.338,-0.832 -1.56,-0.91 -0.156,0 -0.182,-0.077 -0.182,-0.13 v -0.598 l 0.052,-0.026 c 0.39,0 1.924,0.052 2.678,0.052 0.728,0 1.768,-0.052 2.73,-0.052 3.69,0 4.366,1.819 4.366,3.173 0,1.561 -0.754,4.004 -4.444,4.004 -0.65,0 -1.17,-0.053 -1.639,-0.26 v 3.482 c 0,0.572 0.312,0.703 1.145,0.832 l 0.521,0.078 c 0.104,0.026 0.182,0.053 0.182,0.156 v 0.546 l -0.025,0.052 c 0,0 -2.08,-0.052 -2.886,-0.052 -0.728,0 -2.678,0.052 -2.678,0.052 l -0.026,-0.052 v -0.546 c 0,-0.104 0.052,-0.13 0.156,-0.156 l 0.546,-0.078 c 0.806,-0.104 1.066,-0.338 1.066,-0.832 z m 2.002,4.525 c 0.52,0.209 1.17,0.234 1.69,0.234 1.561,0 2.312,-0.938 2.312,-2.938 0,-2.236 -1.014,-2.73 -2.442,-2.73 -1.249,0 -1.561,0.234 -1.561,0.91 z" /><path
       id="path3912"
       d="m 77.462,132.512 c -0.78,0 -2.573,0.053 -2.573,0.053 l -0.027,-0.053 v -0.572 c 0,-0.051 0.027,-0.129 0.156,-0.129 l 0.599,-0.053 c 0.807,-0.078 1.041,-0.598 1.041,-1.117 v -8.58 c 0,-0.6 -0.313,-0.703 -1.041,-0.754 l -0.599,-0.054 c -0.156,-0.024 -0.156,-0.077 -0.156,-0.104 v -0.599 l 0.027,-0.052 c 0,0 2.027,0.052 2.807,0.052 h 3.822 c 0.78,0 2.627,-0.052 2.627,-0.052 l 0.053,0.052 c 0.025,1.118 0.207,2.134 0.39,3.121 l -0.649,0.104 c -0.285,-0.963 -0.779,-2.34 -2.443,-2.34 h -2.08 c -0.494,0 -0.754,0.182 -0.754,0.623 v 3.771 h 1.949 c 0.729,0 0.91,-0.312 1.015,-0.832 l 0.155,-0.546 c 0,-0.078 0.053,-0.131 0.156,-0.131 h 0.441 c 0.053,0 0.053,0.027 0.053,0.078 -0.053,0.572 -0.156,1.301 -0.156,1.925 0,0.649 0.104,1.196 0.156,1.794 l -0.053,0.053 h -0.441 c -0.129,0 -0.183,-0.053 -0.183,-0.131 l -0.13,-0.571 c -0.104,-0.521 -0.338,-0.807 -1.016,-0.807 H 78.66 v 3.979 c 0,0.493 0.284,0.987 0.754,0.987 h 2.47 c 1.326,0 2.055,-0.832 2.366,-2.185 l 0.649,0.078 -0.521,2.989 -0.052,0.052 c 0,0 -1.534,-0.052 -2.314,-0.052 z" /><path
       id="path3914"
       d="m 87.24,131.811 0.598,-0.053 c 0.781,-0.078 1.041,-0.312 1.041,-1.117 v -8.58 c 0,-0.678 -0.184,-0.678 -1.041,-0.754 l -0.57,-0.054 c -0.104,0 -0.184,-0.052 -0.184,-0.13 v -0.572 l 0.025,-0.052 c 0,0 2.289,0.052 2.758,0.052 0.492,0 2.756,-0.052 3.432,-0.052 4.342,0 6.475,2.704 6.475,6.162 0,4.551 -3.225,5.901 -6.11,5.901 -2.08,0 -2.989,-0.052 -3.795,-0.052 -0.781,0 -2.757,0.052 -2.757,0.052 l -0.026,-0.052 v -0.546 c -0.002,-0.075 0.051,-0.153 0.154,-0.153 z m 5.799,0 c 2.859,0 4.473,-1.065 4.473,-4.707 0,-2.703 -0.599,-5.851 -4.967,-5.851 -1.014,0 -1.664,0.156 -1.664,0.808 v 8.58 c 0,0.726 0.181,1.17 2.158,1.17 z" /><path
       id="path3916"
       d="m 105.912,130.77 c 0,0.572 0.26,0.91 1.092,0.988 l 0.546,0.053 c 0.078,0 0.156,0.051 0.156,0.155 v 0.546 l -0.026,0.053 c 0,0 -1.976,-0.053 -2.781,-0.053 -0.729,0 -2.756,0.053 -2.756,0.053 l -0.053,-0.053 v -0.546 c 0,-0.104 0.078,-0.155 0.182,-0.155 l 0.521,-0.053 c 0.857,-0.078 1.118,-0.494 1.118,-0.988 v -8.658 c 0,-0.571 -0.313,-0.729 -1.118,-0.805 l -0.521,-0.054 c -0.104,0 -0.182,-0.024 -0.182,-0.104 v -0.599 l 0.026,-0.052 c 0,0 2.054,0.052 2.858,0.052 0.702,0 2.705,-0.052 2.705,-0.052 l 0.025,0.052 v 0.572 c 0,0.078 -0.053,0.13 -0.156,0.13 l -0.546,0.053 c -0.806,0.077 -1.092,0.286 -1.092,0.807 z" /><path
       id="path3918"
       d="m 113.922,131.758 0.754,0.053 c 0.104,0 0.208,0.078 0.208,0.207 v 0.494 l -0.052,0.053 c 0,0 -2.834,-0.053 -3.458,-0.053 -0.677,0 -2.341,0.053 -2.341,0.053 l -0.053,-0.053 v -0.494 c 0,-0.129 0.078,-0.207 0.209,-0.207 1.145,-0.078 1.793,-0.287 2.521,-1.951 l 5.771,-13.521 c 0.285,-0.676 0.494,-0.937 0.885,-0.937 0.363,0 0.494,0.261 0.701,0.781 l 5.33,14.092 c 0.365,1.015 0.885,1.404 1.925,1.508 l 0.286,0.025 c 0.13,0 0.26,0.078 0.26,0.209 v 0.493 l -0.078,0.052 c 0,0 -2.002,-0.052 -3.016,-0.052 -0.91,0 -3.459,0.052 -3.459,0.052 l -0.025,-0.052 v -0.493 c 0,-0.131 0.052,-0.209 0.184,-0.209 l 0.728,-0.052 c 0.987,-0.077 1.353,-0.391 1.092,-1.118 l -1.586,-4.395 H 115.3 c -0.624,0 -0.78,0.104 -0.909,0.441 l -1.509,3.771 c -0.26,0.652 0.078,1.225 1.04,1.303 z m 6.37,-6.606 -2.522,-6.941 h -0.052 l -2.6,6.604 c -0.104,0.261 0.077,0.338 0.649,0.338 h 4.525 z" /></g></svg>
