<?xml version="1.0" encoding="UTF-8" standalone="no"?>
<svg
   xmlns:dc="http://purl.org/dc/elements/1.1/"
   xmlns:cc="http://creativecommons.org/ns#"
   xmlns:rdf="http://www.w3.org/1999/02/22-rdf-syntax-ns#"
   xmlns:svg="http://www.w3.org/2000/svg"
   xmlns="http://www.w3.org/2000/svg"
   xml:space="preserve"
   enable-background="new 0 0 135 155"
   viewBox="0 0 71.60006 26.999914"
   height="26.999914"
   width="71.60006"
   y="0px"
   x="0px"
   id="svg3857"
   version="1.1"><metadata
     id="metadata698"><rdf:RDF><cc:Work
         rdf:about=""><dc:format>image/svg+xml</dc:format><dc:type
           rdf:resource="http://purl.org/dc/dcmitype/StillImage" /></cc:Work></rdf:RDF></metadata><defs
     id="defs3" /><path
     id="Wikipedia"
     d="m 69.459662,11.011426 c 1.255003,1.5043 1.968467,2.7765 2.140395,3.816607 -9e-6,0.154731 -9e-6,0.32665 0,0.515757 -9e-6,2.303718 -0.111755,3.713455 -0.335243,4.229213 -0.979947,2.097411 -1.925501,3.554426 -2.836667,4.371047 -1.934094,1.573052 -3.438386,2.591672 -4.512879,3.055863 0.05157,-0.644705 0.214898,-1.504301 0.489969,-2.578788 2.338098,-1.177651 4.044395,-3.107443 5.118895,-5.789379 0.07736,-0.541547 0.0043,-0.928364 -0.219197,-1.160456 l -0.386817,0.03868 c -0.257885,0.103152 -0.550147,0.154728 -0.876788,0.154728 -0.498572,0 -1.022924,-0.12464 -1.573062,-0.373924 0.04298,-0.988535 0.421199,-2.063029 1.134667,-3.223486 l 1.856727,-3.055864 m -0.747847,2.656151 c -0.618915,0.825216 -0.92837,1.375357 -0.928364,1.650424 -6e-6,0.223499 0.451283,0.318054 1.353863,0.283668 0.214893,-0.214896 0.322343,-0.438391 0.322348,-0.670485 -5e-6,-0.326643 -0.249289,-0.747844 -0.747847,-1.263607 m -10.534352,4.499987 h -1.534378 v -2.140395 h 1.611743 c 0.361028,2e-6 0.812315,-0.275067 1.353863,-0.825213 -0.283669,-0.438389 -0.425503,-0.704865 -0.4255,-0.799423 -3e-6,-1.065895 0.232089,-1.848127 0.696272,-2.346698 0.24928,-0.01718 0.378219,-0.0086 0.386819,0.02579 0.223492,0.696277 0.683375,1.538681 1.379653,2.527212 -0.618915,2.372485 -1.77507,3.558728 -3.468472,3.558728 m 3.584517,1.405439 c -6e-6,-2e-6 0.528645,0.532948 1.585955,1.598849 l -1.650425,1.727787 -1.495697,-1.585953 1.560167,-1.740683 m -3.481365,-0.01289 c -2e-6,-1e-6 0.528649,0.532948 1.585955,1.598849 l -1.650425,1.727787 -1.495697,-1.585955 1.560167,-1.740681 m -8.574471,-3.068759 c -1.332379,0.756447 -2.630368,1.315183 -3.893969,1.676214 h -1.959879 v -2.140395 h 0.477075 c 1.108876,-0.08596 2.028643,-0.434093 2.759302,-1.044409 -0.128942,-0.395411 -0.59742,-1.147557 -1.405439,-2.25644 -0.739254,-1.014317 -1.220626,-1.848124 -1.444121,-2.501424 0.05158,-0.7220536 0.313751,-1.5386689 0.78653,-2.44985 0.567331,-1.2034217 0.915468,-1.9985485 1.04441,-2.3853787 1.108875,-0.266461 2.79798,-0.9326475 5.067319,-1.9985613 2.484223,-1.1260553 4.052984,-2.0372255 4.706288,-2.73351525 0.171907,1.761e-5 0.257866,0.10316896 0.257879,0.3094546 -1.3e-5,0.25789585 -0.171932,0.72637525 -0.515758,1.40543875 l -0.657591,1.315183 c -1.108889,0.6447108 -2.024358,1.1389781 -2.746409,1.4828037 -1.014331,0.4985786 -3.154722,1.4441324 -6.421182,2.8366671 0.283664,1.0315245 0.90687,2.2306591 1.869621,3.5974081 0.954147,1.495703 1.723485,2.497131 2.308016,3.00429 1.091679,0.945557 2.488521,1.418334 4.19053,1.418333 h 2.810879 v 2.140395 h -2.810879 c -0.653302,0 -1.607453,-0.171919 -2.862456,-0.515758 -0.558743,-0.137535 -1.078798,-0.524353 -1.560166,-1.160456 m -9.657562,-3.532939 c 0.876785,-0.128934 1.33237,-0.09885 1.366757,0.09026 0.146127,0.593126 0.348132,1.220632 0.606016,1.882516 0.26647,0.661892 0.528646,1.027219 0.78653,1.095985 h 1.237818 v 2.140395 h -1.160454 c -0.103157,0 -0.373929,-0.10745 -0.812318,-0.32235 -0.636105,-0.335242 -1.035818,-0.674782 -1.199136,-1.01862 l -0.219197,0.244983 c -0.03439,0.163325 -0.270778,0.399715 -0.709167,0.709168 -0.386821,0.257878 -0.597423,0.386819 -0.631803,0.386819 H 37.09587 v -2.140395 h 1.598849 c 0.206301,1e-6 0.657588,-1.022917 1.353863,-3.068758 m 2.166183,6.782213 c -6e-6,-2e-6 0.528645,0.532947 1.585955,1.598848 l -1.650425,1.727789 -1.495697,-1.585955 1.560167,-1.740682 m -3.481366,-0.01289 c -10e-7,-2e-6 0.52865,0.532948 1.585956,1.598849 l -1.650425,1.727787 -1.495697,-1.585953 1.560166,-1.740683 m -5.544393,-6.769319 c 0.876784,-0.128935 1.332369,-0.09885 1.366756,0.09026 0.146127,0.593126 0.348132,1.220632 0.606016,1.882517 0.26647,0.661892 0.528646,1.027219 0.78653,1.095984 h 1.237818 v 2.140396 h -1.160453 c -0.103157,0 -0.37393,-0.10745 -0.812319,-0.32235 -0.636105,-0.335242 -1.035818,-0.674782 -1.199136,-1.01862 l -0.219197,0.244983 c -0.03439,0.163324 -0.270778,0.399715 -0.709167,0.709167 -0.386821,0.257879 -0.597422,0.38682 -0.631803,0.38682 h -2.217758 v -2.140396 h 1.598849 c 0.206301,2e-6 0.657588,-1.022916 1.353864,-3.068757 m 0.438393,9.154698 c -4e-6,-4e-6 0.528647,0.532946 1.585955,1.598848 l -1.650425,1.72779 -1.495697,-1.585956 1.560167,-1.740682 m 1.766471,-2.862454 c -6e-6,-2e-6 0.528646,0.532947 1.585953,1.598848 l -1.650424,1.727788 -1.495697,-1.585956 1.560168,-1.74068 m -3.481365,-0.01289 c -2e-6,0 0.528649,0.53295 1.585955,1.598849 l -1.650424,1.727789 -1.495698,-1.585955 1.560167,-1.740683 m -5.634652,-6.279348 c 0.876784,-0.128935 1.332369,-0.09885 1.366757,0.09026 0.146127,0.593126 0.348131,1.220632 0.606016,1.882516 0.26647,0.661892 0.528645,1.027219 0.786529,1.095985 h 1.237819 v 2.140395 H 29.11452 c -0.103157,0 -0.373929,-0.10745 -0.812319,-0.32235 -0.636104,-0.335241 -1.035817,-0.674781 -1.199136,-1.01862 l -0.219196,0.244984 c -0.03439,0.163324 -0.270778,0.399714 -0.709168,0.709167 -0.386821,0.257879 -0.597422,0.386819 -0.631802,0.386819 H 23.32514 v -2.140395 h 1.59885 c 0.206301,2e-6 0.657587,-1.022917 1.353863,-3.068757 m -1.134667,6.292243 c -2e-6,-2e-6 0.528649,0.532948 1.585955,1.598849 l -1.650424,1.727787 -1.495698,-1.585955 1.560167,-1.740681 m 0,3.558728 c -2e-6,-5e-6 0.528649,0.532944 1.585955,1.598849 l -1.650424,1.727787 -1.495698,-1.585955 1.560167,-1.740681 M 13.977032,19.908245 c -2e-6,-0.515758 0.146129,-0.95845 0.438394,-1.328075 0.300856,-0.36103 0.67478,-0.541546 1.121773,-0.541546 0.421198,0 0.782228,0.180516 1.083091,0.541546 0.309449,0.369625 0.464177,0.812317 0.464182,1.328075 -5e-6,0.515755 -0.154733,0.95415 -0.464182,1.315183 -0.300863,0.361026 -0.661893,0.541542 -1.083091,0.541544 -0.446993,-2e-6 -0.820917,-0.180518 -1.121773,-0.541544 C 14.123161,20.862395 13.97703,20.424 13.977032,19.908245 m 2.101713,0.07736 c -5e-6,-0.171921 -0.05588,-0.326648 -0.167621,-0.464182 -0.111752,-0.12894 -0.236394,-0.193409 -0.373925,-0.193409 -0.146135,0 -0.279372,0.06447 -0.399712,0.193409 -0.111751,0.137534 -0.167625,0.292261 -0.167621,0.464182 -4e-6,0.163321 0.05587,0.313751 0.167621,0.451289 0.12034,0.137531 0.253577,0.206299 0.399712,0.206303 0.137531,-4e-6 0.262173,-0.06877 0.373925,-0.206303 0.111742,-0.137538 0.167616,-0.287968 0.167621,-0.451289 M 18.464124,5.9698944 c 0.1977,-0.017183 0.468472,0.5243655 0.812318,1.6246375 0.326639,1.0831003 0.76933,2.9613161 1.328076,5.6346521 0.429789,1.36676 1.022909,2.299423 1.779364,2.797985 h 1.160455 v 2.140395 h -1.147561 c -0.722071,0 -1.340979,-0.365329 -1.856727,-1.095986 -0.214908,-0.292261 -0.528661,-0.924064 -0.941258,-1.895409 -0.704876,1.358164 -1.267911,2.075925 -1.689106,2.153287 -0.404017,0.08596 -1.551576,0.434097 -3.442683,1.044411 -1.005729,0.292261 -1.787961,0.760741 -2.346697,1.405439 -0.137536,-0.154729 -0.206304,-0.373926 -0.206303,-0.657591 -10e-7,-0.206303 0.04298,-0.498566 0.128939,-0.876788 0.120343,-0.455585 0.18911,-0.756443 0.206303,-0.902575 1.04011,-0.876787 2.071624,-1.379651 3.094546,-1.508593 1.925489,-0.300856 3.167605,-0.687673 3.726349,-1.160454 0.04297,-1.375348 -0.524361,-3.541528 -1.702,-6.4985461 L 18.464124,5.9698944 M 6.137516,18.167564 H 4.603137 v -2.140395 h 1.6117427 c 0.3610284,2e-6 0.8123159,-0.275067 1.3538638,-0.825213 -0.2836694,-0.438389 -0.4255026,-0.704865 -0.4255,-0.799423 -2.6e-6,-1.065895 0.2320881,-1.848127 0.6962729,-2.346698 0.2492794,-0.01718 0.3782186,-0.0086 0.3868182,0.02579 0.2234912,0.696277 0.6833746,1.538681 1.3796517,2.527212 -0.6189136,2.372485 -1.7750692,3.558728 -3.4684703,3.558728 m 3.5845158,1.405439 c -5.1e-6,-2e-6 0.5286462,0.532948 1.5859552,1.598849 L 9.657562,22.89964 8.1618648,21.313687 9.7220318,19.573004 m -3.4813642,-0.01289 c -1.7e-6,-10e-7 0.5286494,0.532948 1.5859547,1.598849 L 6.1761979,22.886747 4.6805007,21.300792 6.2406676,19.560111 m -1.5085912,-3.53294 v 2.140395 H 4.3581521 c -1.4183368,0 -2.3466996,-0.202005 -2.7850912,-0.606016 -0.8252134,-0.799423 -1.23781916,-1.959877 -1.23781842,-3.481365 -7.4e-7,-0.627499 -7.4e-7,-1.727782 0,-3.300849 -7.4e-7,-1.5730508 -7.4e-7,-2.7936755 0,-3.6618794 C 0.33524174,3.8767949 0.22349425,1.9813869 0,1.4312292 L 1.9469851,1.833805e-6 C 2.2908209,0.86821113 2.5014217,2.1876899 2.5787883,3.9584414 c 0.1289363,1.7793777 0.1547242,3.06877 0.077364,3.8681824 -0.051579,0.7994345 -0.073069,2.037251 -0.06447,3.7134552 0.042977,1.951288 0.1418304,3.111741 0.2965608,3.481365 0.1891076,0.481376 0.3739205,0.752148 0.5544394,0.812317 0.4469857,0.128942 0.752142,0.193411 0.9154698,0.19341 h 0.3739243"
     style="font-style:normal;font-variant:normal;font-weight:normal;font-stretch:normal;font-size:144px;font-family:'Linux Libertine O';-inkscape-font-specification:'Linux Libertine O';fill:#000000;fill-opacity:1;stroke:none;stroke-width:0.18338px;stroke-linecap:butt;stroke-linejoin:miter;stroke-opacity:1" /></svg>
