<?xml version="1.0" encoding="UTF-8" standalone="no"?>
<svg
   xmlns:dc="http://purl.org/dc/elements/1.1/"
   xmlns:cc="http://creativecommons.org/ns#"
   xmlns:rdf="http://www.w3.org/1999/02/22-rdf-syntax-ns#"
   xmlns:svg="http://www.w3.org/2000/svg"
   xmlns="http://www.w3.org/2000/svg"
   id="svg3857"
   xml:space="preserve"
   enable-background="new 0 0 135 155"
   viewBox="0 0 106.25486 24.311441"
   height="24.311441"
   width="106.25486"
   y="0px"
   x="0px"
   version="1.1"><metadata
   id="metadata4852"><rdf:RDF><cc:Work
       rdf:about=""><dc:format>image/svg+xml</dc:format><dc:type
         rdf:resource="http://purl.org/dc/dcmitype/StillImage" /><dc:title /></cc:Work></rdf:RDF></metadata><defs
   id="defs4850"><radialGradient
     id="SVGID_1_"
     cx="-145.4702"
     cy="87.823196"
     r="68.686401"
     gradientTransform="matrix(1,0,0,-1,192.3999,143.0996)"
     gradientUnits="userSpaceOnUse">
		<stop
   offset="0"
   style="stop-color:#FFFFFF"
   id="stop3922" />
		<stop
   offset="0.4835"
   style="stop-color:#EAEAEB"
   id="stop3924" />
		<stop
   offset="0.9451"
   style="stop-color:#A9ABAE"
   id="stop3926" />
		<stop
   offset="1"
   style="stop-color:#999B9E"
   id="stop3928" />
	</radialGradient><linearGradient
     id="SVGID_2_"
     gradientUnits="userSpaceOnUse"
     x1="66.232399"
     y1="24.481001"
     x2="112.7331"
     y2="97.232101">
		<stop
   offset="0"
   style="stop-color:#8A8A8A"
   id="stop3935" />
		<stop
   offset="0.5687"
   style="stop-color:#606060"
   id="stop3937" />
		<stop
   offset="0.5914"
   style="stop-color:#FFFFFF"
   id="stop3939" />
		<stop
   offset="0.6116"
   style="stop-color:#585858"
   id="stop3941" />
		<stop
   offset="1"
   style="stop-color:#303030"
   id="stop3943" />
	</linearGradient><linearGradient
     id="SVGID_5_"
     gradientUnits="userSpaceOnUse"
     x1="54.715801"
     y1="65.136703"
     x2="83.798798"
     y2="65.136703">
		<stop
   offset="0"
   style="stop-color:#231F20"
   id="stop3964" />
		<stop
   offset="1"
   style="stop-color:#474747"
   id="stop3966" />
	</linearGradient><linearGradient
     id="SVGID_6_"
     gradientUnits="userSpaceOnUse"
     x1="-123.5898"
     y1="119.8076"
     x2="-94.069099"
     y2="29.9035"
     gradientTransform="matrix(1,0,0,-1,192.3999,143.0996)">
		<stop
   offset="0"
   style="stop-color:#FFFFFF"
   id="stop3997" />
		<stop
   offset="0.0094"
   style="stop-color:#FCFCFC"
   id="stop3999" />
		<stop
   offset="0.0655"
   style="stop-color:#EEEEEE"
   id="stop4001" />
		<stop
   offset="0.1342"
   style="stop-color:#E5E5E5"
   id="stop4003" />
		<stop
   offset="0.2515"
   style="stop-color:#E3E3E3"
   id="stop4005" />
		<stop
   offset="0.3357"
   style="stop-color:#8A8A8A"
   id="stop4007" />
		<stop
   offset="0.4422"
   style="stop-color:#B8B8B8"
   id="stop4009" />
		<stop
   offset="1"
   style="stop-color:#3B3B3B"
   id="stop4011" />
	</linearGradient><linearGradient
     id="SVGID_7_"
     gradientUnits="userSpaceOnUse"
     x1="70.421898"
     y1="26.876499"
     x2="119.5471"
     y2="87.626701">
		<stop
   offset="0"
   style="stop-color:#EFF0F0"
   id="stop4016" />
		<stop
   offset="0.5914"
   style="stop-color:#F0F1F2"
   id="stop4018" />
		<stop
   offset="0.599"
   style="stop-color:#787878"
   id="stop4020" />
		<stop
   offset="0.6456"
   style="stop-color:#EEEFF0"
   id="stop4022" />
		<stop
   offset="1"
   style="stop-color:#D8D9DB"
   id="stop4024" />
	</linearGradient><linearGradient
     id="SVGID_8_"
     gradientUnits="userSpaceOnUse"
     x1="-117.166"
     y1="122.1328"
     x2="-87.569702"
     y2="31.998501"
     gradientTransform="matrix(1,0,0,-1,192.3999,143.0996)">
		<stop
   offset="0"
   style="stop-color:#FFFFFF"
   id="stop4029" />
		<stop
   offset="1"
   style="stop-color:#E4E5E6"
   id="stop4031" />
	</linearGradient><linearGradient
     id="SVGID_9_"
     gradientUnits="userSpaceOnUse"
     x1="54.653301"
     y1="25.2764"
     x2="79.683601"
     y2="106.3903">
		<stop
   offset="0"
   style="stop-color:#FFFFFF"
   id="stop4036" />
		<stop
   offset="0.7473"
   style="stop-color:#F9F9F9"
   id="stop4038" />
		<stop
   offset="1"
   style="stop-color:#D5D7D8"
   id="stop4040" />
	</linearGradient><linearGradient
     id="SVGID_10_"
     gradientUnits="userSpaceOnUse"
     x1="-115.3369"
     y1="119.6328"
     x2="-134.85719"
     y2="24.6462"
     gradientTransform="matrix(1,0,0,-1,192.3999,143.0996)">
		<stop
   offset="0"
   style="stop-color:#FFFFFF"
   id="stop4061" />
		<stop
   offset="1"
   style="stop-color:#E4E5E6"
   id="stop4063" />
	</linearGradient><linearGradient
     id="SVGID_11_"
     gradientUnits="userSpaceOnUse"
     x1="32.519001"
     y1="33.077099"
     x2="37.2481"
     y2="92.496101">
		<stop
   offset="0.2198"
   style="stop-color:#989A9C"
   id="stop4068" />
		<stop
   offset="0.2527"
   style="stop-color:#FFFFFF"
   id="stop4070" />
	</linearGradient><linearGradient
     id="SVGID_12_"
     gradientUnits="userSpaceOnUse"
     x1="-152.6201"
     y1="126.8398"
     x2="-171.9462"
     y2="32.797901"
     gradientTransform="matrix(1,0,0,-1,192.3999,143.0996)">
		<stop
   offset="0"
   style="stop-color:#FFFFFF"
   id="stop4075" />
		<stop
   offset="1"
   style="stop-color:#E4E5E6"
   id="stop4077" />
	</linearGradient><linearGradient
     id="SVGID_13_"
     gradientUnits="userSpaceOnUse"
     x1="-130.1348"
     y1="35.625"
     x2="-130.14281"
     y2="35.585701"
     gradientTransform="matrix(1,0,0,-1,192.3999,143.0996)">
		<stop
   offset="0"
   style="stop-color:#FFFFFF"
   id="stop4082" />
		<stop
   offset="1"
   style="stop-color:#E4E5E6"
   id="stop4084" />
	</linearGradient><linearGradient
     id="SVGID_14_"
     gradientUnits="userSpaceOnUse"
     x1="-121.1382"
     y1="120.3223"
     x2="-140.54491"
     y2="25.888"
     gradientTransform="matrix(1,0,0,-1,192.3999,143.0996)">
		<stop
   offset="0"
   style="stop-color:#FFFFFF"
   id="stop4093" />
		<stop
   offset="1"
   style="stop-color:#E4E5E6"
   id="stop4095" />
	</linearGradient><linearGradient
     id="SVGID_15_"
     gradientUnits="userSpaceOnUse"
     x1="-135.58591"
     y1="123.3525"
     x2="-155.006"
     y2="28.8524"
     gradientTransform="matrix(1,0,0,-1,192.3999,143.0996)">
		<stop
   offset="0"
   style="stop-color:#FFFFFF"
   id="stop4100" />
		<stop
   offset="1"
   style="stop-color:#E4E5E6"
   id="stop4102" />
	</linearGradient><linearGradient
     id="SVGID_16_"
     gradientUnits="userSpaceOnUse"
     x1="-127.4014"
     y1="121.9365"
     x2="-146.8837"
     y2="27.1346"
     gradientTransform="matrix(1,0,0,-1,192.3999,143.0996)">
		<stop
   offset="0"
   style="stop-color:#FFFFFF"
   id="stop4107" />
		<stop
   offset="1"
   style="stop-color:#E4E5E6"
   id="stop4109" />
	</linearGradient><linearGradient
     id="SVGID_17_"
     gradientUnits="userSpaceOnUse"
     x1="-118.4946"
     y1="124.0039"
     x2="-138.85201"
     y2="24.9438"
     gradientTransform="matrix(1,0,0,-1,192.3999,143.0996)">
		<stop
   offset="0"
   style="stop-color:#FFFFFF"
   id="stop4114" />
		<stop
   offset="1"
   style="stop-color:#E4E5E6"
   id="stop4116" />
	</linearGradient><linearGradient
     id="SVGID_18_"
     gradientUnits="userSpaceOnUse"
     x1="-115.3716"
     y1="119.1758"
     x2="-134.7878"
     y2="24.695299"
     gradientTransform="matrix(1,0,0,-1,192.3999,143.0996)">
		<stop
   offset="0"
   style="stop-color:#FFFFFF"
   id="stop4121" />
		<stop
   offset="1"
   style="stop-color:#E4E5E6"
   id="stop4123" />
	</linearGradient><linearGradient
     id="SVGID_21_"
     gradientUnits="userSpaceOnUse"
     x1="-175.4424"
     y1="83.6045"
     x2="-75.6362"
     y2="83.6045"
     gradientTransform="matrix(1,0,0,-1,192.3999,143.0996)">
		<stop
   offset="0"
   style="stop-color:#555555"
   id="stop4198" />
		<stop
   offset="1"
   style="stop-color:#231F20"
   id="stop4200" />
	</linearGradient><linearGradient
     id="SVGID_22_"
     gradientUnits="userSpaceOnUse"
     x1="-175.14211"
     y1="104.0801"
     x2="-83.541"
     y2="104.0801"
     gradientTransform="matrix(1,0,0,-1,192.3999,143.0996)">
		<stop
   offset="0"
   style="stop-color:#A0A0A0"
   id="stop4205" />
		<stop
   offset="0.0769"
   style="stop-color:#656767"
   id="stop4207" />
		<stop
   offset="1"
   style="stop-color:#717375"
   id="stop4209" />
	</linearGradient><linearGradient
     id="SVGID_23_"
     gradientUnits="userSpaceOnUse"
     x1="-172.3853"
     y1="78.209"
     x2="-172.3853"
     y2="78.209"
     gradientTransform="matrix(1,0,0,-1,192.3999,143.0996)">
		<stop
   offset="0"
   style="stop-color:#FFFFFF"
   id="stop4224" />
		<stop
   offset="0.078"
   style="stop-color:#F4F4F4"
   id="stop4226" />
		<stop
   offset="0.3807"
   style="stop-color:#CECECE"
   id="stop4228" />
		<stop
   offset="0.5396"
   style="stop-color:#BFBFBF"
   id="stop4230" />
		<stop
   offset="0.8357"
   style="stop-color:#7C7C7C"
   id="stop4232" />
		<stop
   offset="0.8996"
   style="stop-color:#A8A8A8"
   id="stop4234" />
		<stop
   offset="0.9093"
   style="stop-color:#9A9A9A"
   id="stop4236" />
		<stop
   offset="0.9327"
   style="stop-color:#7D7D7D"
   id="stop4238" />
		<stop
   offset="0.9558"
   style="stop-color:#686868"
   id="stop4240" />
		<stop
   offset="0.9785"
   style="stop-color:#5B5B5B"
   id="stop4242" />
		<stop
   offset="1"
   style="stop-color:#575757"
   id="stop4244" />
	</linearGradient><linearGradient
     id="SVGID_24_"
     gradientUnits="userSpaceOnUse"
     x1="-175.7173"
     y1="78.449203"
     x2="-67.153198"
     y2="90.476799"
     gradientTransform="matrix(1,0,0,-1,192.3999,143.0996)">
		<stop
   offset="0"
   style="stop-color:#FFFFFF"
   id="stop4249" />
		<stop
   offset="0.078"
   style="stop-color:#F4F4F4"
   id="stop4251" />
		<stop
   offset="0.3807"
   style="stop-color:#CECECE"
   id="stop4253" />
		<stop
   offset="0.5396"
   style="stop-color:#BFBFBF"
   id="stop4255" />
		<stop
   offset="0.8357"
   style="stop-color:#7C7C7C"
   id="stop4257" />
		<stop
   offset="0.8996"
   style="stop-color:#A8A8A8"
   id="stop4259" />
		<stop
   offset="0.9093"
   style="stop-color:#9A9A9A"
   id="stop4261" />
		<stop
   offset="0.9327"
   style="stop-color:#7D7D7D"
   id="stop4263" />
		<stop
   offset="0.9558"
   style="stop-color:#686868"
   id="stop4265" />
		<stop
   offset="0.9785"
   style="stop-color:#5B5B5B"
   id="stop4267" />
		<stop
   offset="1"
   style="stop-color:#575757"
   id="stop4269" />
	</linearGradient><linearGradient
     id="SVGID_25_"
     gradientUnits="userSpaceOnUse"
     x1="-176.1851"
     y1="78.4795"
     x2="-52.131699"
     y2="92.223099"
     gradientTransform="matrix(1,0,0,-1,192.3999,143.0996)">
		<stop
   offset="0"
   style="stop-color:#FFFFFF"
   id="stop4274" />
		<stop
   offset="0.078"
   style="stop-color:#F4F4F4"
   id="stop4276" />
		<stop
   offset="0.3807"
   style="stop-color:#CECECE"
   id="stop4278" />
		<stop
   offset="0.5396"
   style="stop-color:#BFBFBF"
   id="stop4280" />
		<stop
   offset="0.8357"
   style="stop-color:#7C7C7C"
   id="stop4282" />
		<stop
   offset="0.8996"
   style="stop-color:#A8A8A8"
   id="stop4284" />
		<stop
   offset="0.9093"
   style="stop-color:#9A9A9A"
   id="stop4286" />
		<stop
   offset="0.9327"
   style="stop-color:#7D7D7D"
   id="stop4288" />
		<stop
   offset="0.9558"
   style="stop-color:#686868"
   id="stop4290" />
		<stop
   offset="0.9785"
   style="stop-color:#5B5B5B"
   id="stop4292" />
		<stop
   offset="1"
   style="stop-color:#575757"
   id="stop4294" />
	</linearGradient><linearGradient
     id="SVGID_26_"
     gradientUnits="userSpaceOnUse"
     x1="21.2129"
     y1="71.326698"
     x2="117.1948"
     y2="51.952599">
		<stop
   offset="0"
   style="stop-color:#EDEDEE"
   id="stop4299" />
		<stop
   offset="0.4176"
   style="stop-color:#FFFFFF"
   id="stop4301" />
		<stop
   offset="0.6264"
   style="stop-color:#F8F9F9"
   id="stop4303" />
		<stop
   offset="1"
   style="stop-color:#BFC0C2"
   id="stop4305" />
	</linearGradient><linearGradient
     id="SVGID_27_"
     gradientUnits="userSpaceOnUse"
     x1="23.471201"
     y1="30.732401"
     x2="27.9561"
     y2="30.732401">
		<stop
   offset="0"
   style="stop-color:#E2E3E4"
   id="stop4316" />
		<stop
   offset="0.5055"
   style="stop-color:#FFFFFF"
   id="stop4318" />
	</linearGradient><linearGradient
     id="SVGID_34_"
     gradientUnits="userSpaceOnUse"
     x1="22.5742"
     y1="49.7188"
     x2="111.5455"
     y2="29.204">
		<stop
   offset="0"
   style="stop-color:#FFFFFF"
   id="stop4743" />
		<stop
   offset="0.6538"
   style="stop-color:#FFFFFF"
   id="stop4745" />
		<stop
   offset="1"
   style="stop-color:#CBCCCE"
   id="stop4747" />
	</linearGradient><linearGradient
     id="SVGID_35_"
     gradientUnits="userSpaceOnUse"
     x1="-158.8101"
     y1="107.0898"
     x2="-126.4229"
     y2="107.0898"
     gradientTransform="matrix(1,0,0,-1,192.3999,143.0996)">
		<stop
   offset="0"
   style="stop-color:#696969"
   id="stop4770" />
		<stop
   offset="0.3702"
   style="stop-color:#2E2E2E"
   id="stop4772" />
		<stop
   offset="0.4554"
   style="stop-color:#424242"
   id="stop4774" />
		<stop
   offset="0.6014"
   style="stop-color:#303030"
   id="stop4776" />
		<stop
   offset="0.6947"
   style="stop-color:#4A4A4A"
   id="stop4778" />
		<stop
   offset="1"
   style="stop-color:#666666"
   id="stop4780" />
	</linearGradient><linearGradient
     id="SVGID_36_"
     gradientUnits="userSpaceOnUse"
     x1="-158.4185"
     y1="107.8965"
     x2="-126.5454"
     y2="107.8965"
     gradientTransform="matrix(1,0,0,-1,192.3999,143.0996)">
		<stop
   offset="0"
   style="stop-color:#525252"
   id="stop4785" />
		<stop
   offset="0.1856"
   style="stop-color:#333333"
   id="stop4787" />
		<stop
   offset="0.354"
   style="stop-color:#AEAEAE"
   id="stop4789" />
		<stop
   offset="0.4199"
   style="stop-color:#ADADAD"
   id="stop4791" />
		<stop
   offset="0.4276"
   style="stop-color:#9D9D9D"
   id="stop4793" />
		<stop
   offset="0.4433"
   style="stop-color:#818181"
   id="stop4795" />
		<stop
   offset="0.4611"
   style="stop-color:#6A6A6A"
   id="stop4797" />
		<stop
   offset="0.4814"
   style="stop-color:#585858"
   id="stop4799" />
		<stop
   offset="0.506"
   style="stop-color:#4C4C4C"
   id="stop4801" />
		<stop
   offset="0.539"
   style="stop-color:#444444"
   id="stop4803" />
		<stop
   offset="0.6166"
   style="stop-color:#424242"
   id="stop4805" />
		<stop
   offset="0.6684"
   style="stop-color:#454545"
   id="stop4807" />
		<stop
   offset="1"
   style="stop-color:#BDBDBD"
   id="stop4809" />
	</linearGradient><linearGradient
     id="SVGID_37_"
     gradientUnits="userSpaceOnUse"
     x1="-153.1255"
     y1="97.627899"
     x2="-154.15421"
     y2="104.4332"
     gradientTransform="matrix(1,0,0,-1,192.3999,143.0996)">
		<stop
   offset="0"
   style="stop-color:#969696"
   id="stop4814" />
		<stop
   offset="1"
   style="stop-color:#000000"
   id="stop4816" />
	</linearGradient><linearGradient
     id="SVGID_38_"
     gradientUnits="userSpaceOnUse"
     x1="38.737301"
     y1="46.373001"
     x2="39.487301"
     y2="38.790001">
		<stop
   offset="0"
   style="stop-color:#333333"
   id="stop4825" />
		<stop
   offset="0.431"
   style="stop-color:#000000"
   id="stop4827" />
		<stop
   offset="1"
   style="stop-color:#2E2E2E"
   id="stop4829" />
	</linearGradient><radialGradient
     id="SVGID_39_"
     cx="-138.2334"
     cy="106.5996"
     r="72.751701"
     gradientTransform="matrix(1,0,0,-1,192.3999,143.0996)"
     gradientUnits="userSpaceOnUse">
		<stop
   offset="0"
   style="stop-color:#000000;stop-opacity:0;"
   id="stop4840" />
		<stop
   offset="0.80220002"
   style="stop-color:#000000;stop-opacity:0.08;"
   id="stop4842" />
		<stop
   offset="1"
   style="stop-color:#000000;stop-opacity:0.3882353;"
   id="stop4844" />
	</radialGradient></defs>
<g
   id="wikipedia"
   transform="matrix(1.0163844,0,0,0.98387972,-14.372577,-112.26858)"><path
     id="path3420"
     d="m 23.465322,117.94141 c 0.777024,10e-6 1.579961,0.20722 2.408813,0.62163 0.05179,0.0345 0.09496,0.0605 0.129506,0.0777 1.277778,0.72525 1.959843,1.74403 2.046196,3.05634 0.01725,0.12089 0.02588,0.25039 0.0259,0.38852 -1.6e-5,0.69071 -0.267662,1.38141 -0.802938,2.0721 -1.036062,1.38141 -2.546965,2.07211 -4.532713,2.0721 -1.709489,1e-5 -3.099519,-0.48348 -4.170095,-1.45047 -0.846112,-0.75976 -1.269165,-1.7181 -1.26916,-2.87504 -5e-6,-1.51952 0.966973,-2.69371 2.900936,-3.52256 0.276271,-0.12086 0.561185,-0.22446 0.85474,-0.31082 l 0.751136,-0.20721 c 0.155397,-0.0863 0.233101,-0.18992 0.233111,-0.31081 -10e-6,-0.15539 -0.164051,-0.3885 -0.492124,-0.69933 -0.172684,-0.15539 -0.259021,-0.27627 -0.259012,-0.36262 -9e-6,-0.13812 0.138131,-0.20719 0.41442,-0.20721 0.483479,2e-5 1.036038,0.13816 1.657678,0.41442 0.32807,0.15542 0.492111,0.31083 0.492123,0.46622 -1.2e-5,0.10362 -0.129518,0.36264 -0.388518,0.77704 m -1.113753,1.34686 c -0.94972,2e-5 -1.692221,0.38853 -2.227504,1.16556 -0.293555,0.44896 -0.440329,0.93245 -0.440321,1.45046 -8e-6,0.94973 0.440313,1.68359 1.320962,2.20161 0.48348,0.29355 0.99287,0.44033 1.528172,0.44032 1.277781,10e-6 2.20159,-0.41441 2.77143,-1.24326 0.276266,-0.41441 0.414406,-0.88926 0.414419,-1.42457 -1.3e-5,-1.39865 -0.794316,-2.23612 -2.382912,-2.51242 -0.310825,-0.0518 -0.638907,-0.0777 -0.984246,-0.0777 m 9.376241,7.69266 v -8.5733 c -2e-5,-0.74249 -0.05182,-1.25188 -0.155408,-1.52817 -0.103624,-0.259 -0.656183,-0.69932 -1.657678,-1.32096 -0.621646,-0.37987 -0.93246,-0.63025 -0.932443,-0.75114 -1.7e-5,-0.29353 0.379867,-0.4403 1.139653,-0.44032 1.03603,2e-5 2.037542,0.18133 3.004541,0.54393 0.846085,0.3281 1.243236,0.72525 1.191456,1.19145 -0.103627,1.08787 -0.155429,1.64906 -0.155407,1.68358 v 14.8932 c -2.2e-5,2.45198 -0.259034,4.23053 -0.777037,5.33565 -0.155428,0.29354 -0.319469,0.50075 -0.492123,0.62163 -0.13816,0.12087 -0.293567,0.1813 -0.466222,0.18131 -0.172695,-1e-5 -0.319468,-0.12088 -0.44032,-0.36262 -0.155427,-0.31082 -0.241765,-1.32096 -0.259012,-3.03044 l -0.0259,-7.38185 c -1.623161,0.4835 -4.066506,0.98425 -7.330044,1.50227 l 0.0259,2.1239 c -1.2e-5,3.14268 -0.379896,5.08527 -1.139653,5.82778 -0.189953,0.18994 -0.397163,0.28491 -0.621629,0.28491 -0.587105,0 -0.828849,-1.17419 -0.725234,-3.52257 -0.01728,-0.82883 -0.02591,-2.07209 -0.0259,-3.72977 l -0.0259,-0.33672 v -0.0259 -0.36262 c -1.346872,0.12088 -2.098006,0.19859 -2.253406,0.23312 l -0.310814,0.0777 -1.320962,0.56983 -0.284914,0.0259 c -0.518029,0 -1.26053,-0.31081 -2.227504,-0.93245 -0.880644,-0.56982 -1.320964,-1.05331 -1.320962,-1.45046 -2e-6,-0.20721 0.18994,-0.30218 0.569826,-0.28492 0.0518,1e-5 0.103602,1e-5 0.155408,0 1.502266,0.12088 2.797325,0.18132 3.885182,0.18131 3.971509,1e-5 8.297008,-0.41441 12.97651,-1.24326" /><path
     id="path3422"
     d="m 50.076068,124.88293 c -0.379895,0.13815 -1.562716,0.44033 -3.548467,0.90655 l -0.751135,0.1813 -1.346863,0.59573 -0.259013,0.0259 c -0.362621,1e-5 -1.018785,-0.27627 -1.968492,-0.82884 -0.707969,-0.41441 -1.061952,-0.73385 -1.06195,-0.95834 -2e-6,-0.13813 0.12087,-0.2072 0.362617,-0.20721 l 2.797331,0.10361 c 1.692206,0 3.729767,-0.25901 6.112688,-0.77704 0.138128,-0.0345 0.448942,-0.82883 0.932443,-2.38291 0.138128,-0.43168 0.207198,-0.69932 0.20721,-0.80294 -1.2e-5,-0.27627 -0.207222,-0.40577 -0.621629,-0.38852 -1.830363,0.0691 -2.780073,0.11225 -2.849134,0.12951 -0.431695,0.0518 -0.802946,0.12088 -1.113752,0.20721 l -1.06195,0.41442 -0.155407,0.0259 c -0.397159,10e-6 -1.053322,-0.27627 -1.968493,-0.82884 -0.673436,-0.39714 -1.010151,-0.71659 -1.010147,-0.95835 -4e-6,-0.0863 0.0518,-0.14676 0.155407,-0.18131 l 2.719628,0.23312 c 0.138133,1e-5 0.267639,1e-5 0.388518,0 2.60738,-0.0518 3.919707,-0.0777 3.936985,-0.0777 0.189931,-0.0173 0.768391,-0.14676 1.735381,-0.38852 0.259,-0.0691 0.466209,-0.10359 0.62163,-0.1036 l 0.64753,0.1036 1.502271,0.15541 c 0.483473,0.12089 0.725217,0.31946 0.725234,0.59573 v 0.1036 l -2.616023,5.28385 c -1.329608,2.45199 -2.900947,4.42912 -4.714022,5.93138 -0.32809,0.29355 -0.673439,0.56983 -1.036048,0.82884 -1.467742,1.03605 -2.780069,1.76128 -3.936985,2.1757 -0.379888,0.13814 -0.690702,0.20721 -0.932444,0.20721 -0.06907,0 -0.138143,-0.0173 -0.20721,-0.0518 -0.03454,-0.0345 -0.05181,-0.0604 -0.0518,-0.0777 -3e-6,-0.0863 0.155404,-0.24175 0.466222,-0.46623 2.262034,-1.70947 3.902443,-3.14267 4.921231,-4.2996 0.75976,-0.8461 1.459092,-1.79581 2.097998,-2.84913 0.483479,-0.7943 0.777026,-1.32095 0.880642,-1.57998 m 6.863822,-10.54179 c 1.053297,2e-5 2.072078,0.18133 3.056344,0.54392 0.846084,0.31084 1.269137,0.69072 1.269159,1.13966 l -0.129506,1.70948 v 0.0259 l -0.0259,15.0227 c -2.2e-5,1.91669 -0.207232,3.49667 -0.621629,4.73993 -0.276301,0.86337 -0.630284,1.29505 -1.06195,1.29506 -0.448974,-0.15541 -0.699353,-0.94108 -0.751135,-2.35701 v -12.7434 -5.75007 c -2e-5,-0.63888 -0.07772,-1.06193 -0.233111,-1.26916 -0.103624,-0.13812 -0.613015,-0.50074 -1.528172,-1.08785 l -0.777037,-0.54393 c -0.120889,-0.12085 -0.181325,-0.22446 -0.181308,-0.31081 -1.7e-5,-0.25899 0.328065,-0.39713 0.984246,-0.41442" /><path
     id="path3424"
     d="m 76.738616,121.77479 v -1.45047 c -10e-6,-0.60435 -0.448964,-1.22598 -1.346863,-1.86489 l -0.518024,-0.41442 c -0.01728,-0.0345 -0.02591,-0.0691 -0.0259,-0.1036 -9e-6,-0.22446 0.466212,-0.3367 1.398665,-0.33672 0.794293,2e-5 1.571329,0.16406 2.33111,0.49212 0.379871,0.1727 0.612982,0.354 0.699333,0.54393 l 0.0518,0.46622 v 0.0518 c -0.08635,0.86339 -0.129519,1.39868 -0.129506,1.60588 -1.3e-5,1e-5 -1.3e-5,1.31234 0,3.93699 -1.3e-5,1.76129 -0.29356,2.95274 -0.880641,3.57436 l -0.336716,0.28492 -0.440321,0.1036 h -0.0518 c -0.362628,1e-5 -0.587105,-0.22447 -0.673432,-0.67343 -0.06908,-0.37988 -0.181319,-0.58709 -0.336716,-0.62163 -2.123908,1e-5 -3.488037,0.0518 -4.092392,0.15541 -0.03454,0.0345 -0.21585,0.31945 -0.543925,0.85474 -0.276286,0.43169 -0.5871,0.64753 -0.932444,0.64753 -0.621634,0 -0.932448,-1.06195 -0.932444,-3.18585 l 0.0518,-2.92684 v -0.0259 c -4e-6,-1.19144 -0.06907,-1.92531 -0.207209,-2.2016 -0.08634,-0.17266 -0.492127,-0.49211 -1.217358,-0.95835 -0.397154,-0.259 -0.59573,-0.4403 -0.595727,-0.54392 -3e-6,-0.27627 0.388515,-0.41441 1.165554,-0.41442 1.036045,10e-6 1.916685,0.17269 2.641924,0.51802 0.448948,0.22449 0.673425,0.49214 0.673432,0.80294 l -0.0518,1.78718 4.299601,-0.1036 m -0.0259,1.13965 -4.195997,0.12951 c -0.03454,1e-5 -0.06044,1e-5 -0.0777,0 v 3.28945 l 4.299601,-0.1036 v -2.66783 l -0.0259,-0.62163 v -0.0259 m 9.609352,6.73432 c 1.450446,0 2.175679,0.25038 2.175702,0.75113 -2.3e-5,0.12088 -0.09499,0.55257 -0.284914,1.29506 -0.06909,0.29355 -0.103627,0.55257 -0.103604,0.77704 l 0.0518,1.68358 v 0.0259 c -2.2e-5,2.46925 -0.414441,3.96288 -1.243258,4.48091 l -0.388519,0.15541 h -0.181308 c -0.466242,-1e-5 -0.699353,-0.54393 -0.699333,-1.63178 v -5.38745 c -2e-5,-0.44895 -0.189962,-0.67343 -0.569827,-0.67343 -0.05182,0 -0.103624,0 -0.155407,0 -0.638915,0.0518 -2.529702,0.14677 -5.672367,0.28491 -0.621641,0.0345 -1.079229,0.11224 -1.372764,0.23311 l -0.958345,0.44032 c -0.05181,0.0173 -0.103616,0.0259 -0.155407,0.0259 -0.41443,10e-6 -1.06196,-0.28491 -1.942592,-0.85474 -0.707974,-0.44895 -1.061957,-0.8202 -1.061949,-1.11375 -8e-6,-0.1554 0.1813,-0.23311 0.543925,-0.23311 0.120864,0 0.45758,0.0432 1.010148,0.12951 0.759759,0.1036 1.545428,0.15541 2.35701,0.1554 h 2.745529 c 2.400163,1e-5 3.893798,-0.0777 4.480911,-0.23311 0.742482,-0.2072 1.217337,-0.31081 1.424567,-0.31081 m -0.103605,-6.94153 v -4.97303 c -2.1e-5,-0.84609 -0.500777,-1.60586 -1.502271,-2.27931 l -0.880641,-0.59573 c -0.12089,-0.12085 -0.181326,-0.23309 -0.181309,-0.33671 -1.7e-5,-0.27626 0.345332,-0.4144 1.036049,-0.41442 0.828819,2e-5 1.743995,0.18133 2.745529,0.54392 0.966956,0.36264 1.424544,0.76842 1.372764,1.21736 -0.120895,0.98426 -0.189965,1.58863 -0.207209,1.81309 -2.3e-5,1e-5 -2.3e-5,1.68359 0,5.05073 -2.3e-5,2.38292 -0.138163,4.0406 -0.41442,4.97304 -0.293569,1.00152 -0.751157,1.50227 -1.372764,1.50227 -0.431708,0 -0.630283,-1.01878 -0.595728,-3.05635 v -2.1498 h -2.1239 c -1.8e-5,1.93397 -0.138158,3.25493 -0.41442,3.96289 -0.241762,0.56983 -0.569843,0.89791 -0.984246,0.98424 l -0.207209,0.0259 c -0.431703,-0.1036 -0.664814,-0.89791 -0.699333,-2.38292 v -7.58905 c -1.6e-5,-0.44894 -0.03455,-0.77702 -0.103605,-0.98425 -0.120888,-0.3626 -0.569842,-0.80292 -1.346863,-1.32096 l -0.595728,-0.46622 c -0.08635,-0.10359 -0.12952,-0.18993 -0.129506,-0.25901 -1.4e-5,-0.27627 0.336701,-0.41441 1.010147,-0.41442 0.777021,10e-6 1.614493,0.18996 2.512418,0.56982 0.777019,0.3281 1.148269,0.70799 1.113752,1.13966 -0.103623,1.13967 -0.155425,1.73539 -0.155407,1.78718 v 3.65207 h 2.1239" /><path
     id="path3426"
     d="m 107.00143,118.53714 c 0.96697,1e-5 1.70083,0.12952 2.20161,0.38851 0.20719,0.10362 0.31079,0.21586 0.31081,0.33672 -2e-5,0.20722 -0.12952,0.58711 -0.38852,1.13965 -0.0864,0.20723 -0.14679,0.38854 -0.18131,0.54393 -0.3799,2.19298 -0.78568,3.78159 -1.21735,4.76582 -0.0173,0.0691 -0.0432,0.13815 -0.0777,0.20721 -0.5353,1.1742 -1.05333,1.9426 -1.55407,2.30521 -0.13815,0.10361 -0.25903,0.15541 -0.36262,0.15541 -0.15542,0 -0.23312,-0.095 -0.23311,-0.28492 l 0.10361,-0.56982 0.41442,-2.74553 v -0.0259 c 0.10359,-0.72523 0.18993,-2.09799 0.25901,-4.1183 -0.15542,-0.37987 -0.44034,-0.58708 -0.85474,-0.62163 -1e-5,2e-5 -0.23313,0.0259 -0.69933,0.0777 l -3.41897,0.1295 -0.59572,0.0777 -1.657681,0.49212 c -0.08634,0.0173 -0.172681,0.0259 -0.259012,0.0259 -0.431693,2e-5 -1.079222,-0.27626 -1.942592,-0.82884 -0.673434,-0.4144 -1.01015,-0.75112 -1.010147,-1.01014 -3e-6,-0.1554 0.112236,-0.2331 0.336716,-0.23311 l 1.036049,0.1554 c 1.12238,0.0864 1.804445,0.12952 2.046196,0.12951 h 4.040591 c 1.17418,1e-5 2.02028,-0.0691 2.53832,-0.20721 l 1.01015,-0.28491 h 0.1554 m 4.32551,10.6972 v -11.26703 c -2e-5,-0.51801 -0.0518,-0.88926 -0.15541,-1.11375 -0.10362,-0.24173 -0.64755,-0.66478 -1.63178,-1.26916 -0.62164,-0.39714 -0.93246,-0.65615 -0.93244,-0.77704 -2e-5,-0.29353 0.37123,-0.4403 1.11375,-0.44032 0.91516,2e-5 1.88214,0.17269 2.90094,0.51802 0.94969,0.32811 1.39864,0.70799 1.34686,1.13966 -0.1727,1.72676 -0.23313,4.7054 -0.18131,8.93592 v 1.89079 c -2e-5,0.22448 0.009,0.38852 0.0259,0.49212 0.0345,0.0345 0.14675,0.0518 0.33672,0.0518 0.31079,1e-5 0.78565,-0.16403 1.42457,-0.49212 0.48346,-0.24174 0.92378,-0.36261 1.32096,-0.36262 1.05329,1e-5 1.64038,0.26765 1.76128,0.80294 0.0172,0.0691 0.0259,0.12951 0.0259,0.18131 -2e-5,0.67344 -0.8893,1.00152 -2.66782,0.98424 h -0.44032 l -1.78719,0.0518 v 4.76582 c -2e-5,2.31384 -0.28493,3.93698 -0.85474,4.86943 l -0.31081,0.38852 -0.33672,0.20721 c -0.0864,0.0173 -0.17269,0.0259 -0.25901,0.0259 -0.44897,-1e-5 -0.68209,-0.613 -0.69933,-1.83899 v -6.86382 c -3.52258,1.10512 -7.18329,1.95986 -10.98212,2.56422 -0.500764,0.0863 -0.802945,0.14677 -0.906543,0.18131 l -1.036049,0.46622 c -0.08634,0.0173 -0.17268,0.0259 -0.259012,0.0259 -0.431691,0 -1.19146,-0.33671 -2.279307,-1.01015 -0.984248,-0.60436 -1.476371,-1.07058 -1.476369,-1.39866 -2e-6,-0.17267 0.431685,-0.24174 1.295061,-0.20721 l 3.652071,0.1295 h 0.0259 c 0.259006,1e-5 0.647528,-0.0173 1.165558,-0.0518 v -3.44486 c -1e-5,-0.58709 -0.39716,-1.11374 -1.191459,-1.57997 -0.466228,-0.27627 -0.707972,-0.47485 -0.725234,-0.59573 -5e-6,-0.259 0.353977,-0.38851 1.06195,-0.38852 2.365633,1e-5 3.513923,0.37126 3.444863,1.11375 -0.0863,0.69071 -0.12952,1.13103 -0.12951,1.32096 v 3.28946 c 1.41593,-0.12087 4.05785,-0.52665 7.92578,-1.21736 0.13812,-0.0345 0.27626,-0.0604 0.41442,-0.0777" /></g></svg>
