<?xml version="1.0" encoding="UTF-8" standalone="no"?>
<svg
   xmlns:dc="http://purl.org/dc/elements/1.1/"
   xmlns:cc="http://creativecommons.org/ns#"
   xmlns:rdf="http://www.w3.org/1999/02/22-rdf-syntax-ns#"
   xmlns:svg="http://www.w3.org/2000/svg"
   xmlns="http://www.w3.org/2000/svg"
   xml:space="preserve"
   enable-background="new 0 0 135 155"
   viewBox="0 0 113.78909 17.877609"
   height="17.877609"
   width="113.78909"
   y="0px"
   x="0px"
   id="svg3857"
   version="1.1"><metadata
   id="metadata698"><rdf:RDF><cc:Work
       rdf:about=""><dc:format>image/svg+xml</dc:format><dc:type
         rdf:resource="http://purl.org/dc/dcmitype/StillImage" /><dc:title /></cc:Work></rdf:RDF></metadata><defs
   id="defs4" />

 <g
   transform="translate(-10.643,-114.94791)"
   id="Wikipedia"
   style="font-style:normal;font-variant:normal;font-weight:normal;font-stretch:normal;font-size:26.6667px;line-height:1.25;font-family:'Linux Libertine';-inkscape-font-specification:'Linux Libertine';letter-spacing:0px;word-spacing:0px;fill:#000000;fill-opacity:1;stroke:none"
   aria-label="VicipediA"><path
     id="path1046"
     d="m 22.570083,116.13281 q -0.104166,-0.10416 -0.117187,-0.42968 0,-0.32553 0.117187,-0.45573 2.1875,0.0521 2.903646,0.0521 0.742188,0 2.34375,-0.0521 0.130208,0.1302 0.130208,0.45573 0,0.3125 -0.130208,0.42968 -0.598958,0.0651 -1.028646,0.26042 -0.429687,0.19531 -0.729166,0.59896 -0.29948,0.39062 -0.45573,0.70312 -0.15625,0.29948 -0.403645,0.91146 l -5.520834,13.59375 q -0.234375,0.61198 -0.63802,0.625 -0.377605,0 -0.61198,-0.625 L 13.169042,118.55469 Q 12.596125,117.08333 12.2055,116.65365 11.827896,116.22396 10.773209,116.13281 10.643,116.0026 10.643,115.6901 q 0,-0.3125 0.104167,-0.4427 1.757812,0.0521 2.773437,0.0521 1.09375,0 3.229167,-0.0521 0.104167,0.1302 0.104167,0.45573 0,0.3125 -0.104167,0.42968 -1.341146,0.14323 -1.588542,0.54688 -0.247395,0.39062 0.234375,1.57552 l 4.244792,10.85937 h 0.130208 l 4.205729,-10.6901 q 0.507813,-1.09375 0.234375,-1.64063 -0.260416,-0.54687 -1.640625,-0.65104 z" /><path
     id="path1048"
     style="font-style:normal;font-variant:normal;font-weight:normal;font-stretch:normal;font-size:26.6667px;font-family:'Linux Libertine';-inkscape-font-specification:'Linux Libertine, Normal';font-variant-ligatures:normal;font-variant-caps:small-caps;font-variant-numeric:normal;font-feature-settings:normal;text-align:start;writing-mode:lr-tb;text-anchor:start"
     d="m 33.208103,123.48958 v 5.75521 q 0,1.60156 0.325521,1.97917 0.325521,0.36458 1.601562,0.45573 0.130209,0.13021 0.130209,0.45573 0,0.3125 -0.130209,0.41666 -1.861979,-0.0521 -2.96875,-0.0521 -1.015625,0 -2.98177,0.0521 -0.104167,-0.10416 -0.104167,-0.41666 0,-0.32552 0.104167,-0.45573 1.276041,-0.10417 1.601562,-0.46875 0.325521,-0.36459 0.325521,-1.96615 v -5.75521 q 0,-1.60156 -0.325521,-1.96614 -0.325521,-0.37761 -1.601562,-0.46875 -0.104167,-0.13021 -0.104167,-0.44271 0,-0.32552 0.104167,-0.42969 2.083333,0.0521 2.955729,0.0521 0.963541,0 2.994791,-0.0521 0.130209,0.10417 0.130209,0.42969 0,0.3125 -0.130209,0.44271 -1.276041,0.10416 -1.601562,0.46875 -0.325521,0.36458 -0.325521,1.96614 z" /><path
     id="path1050"
     style="font-style:normal;font-variant:normal;font-weight:normal;font-stretch:normal;font-size:26.6667px;font-family:'Linux Libertine';-inkscape-font-specification:'Linux Libertine, Normal';font-variant-ligatures:normal;font-variant-caps:small-caps;font-variant-numeric:normal;font-feature-settings:normal;text-align:start;writing-mode:lr-tb;text-anchor:start"
     d="m 43.650811,132.76042 q -2.877604,0 -4.53125,-1.51042 -1.835937,-1.70573 -1.835937,-4.72656 0,-2.87761 1.783854,-4.71354 1.783854,-1.84896 4.453125,-1.84896 1.197917,0 2.578125,0.22135 1.393229,0.20834 1.770833,0.20834 0.299479,1.41927 0.3125,3.41145 -0.351562,0.20834 -0.794271,0.0781 -0.234375,-1.44531 -1.184895,-2.23958 -0.950521,-0.79428 -2.526042,-0.79428 -4.075521,0 -4.075521,5.41667 0,2.13542 1.158854,3.81511 1.158855,1.67968 3.020834,1.67968 1.302083,0 2.161458,-0.44271 0.859375,-0.4427 1.796875,-1.53645 0.15625,0.0521 0.3125,0.23437 0.15625,0.16927 0.221354,0.29948 -0.963542,1.27604 -2.03125,1.86198 -1.067708,0.58594 -2.591146,0.58594 z" /><path
     id="path1052"
     style="font-style:normal;font-variant:normal;font-weight:normal;font-stretch:normal;font-size:26.6667px;font-family:'Linux Libertine';-inkscape-font-specification:'Linux Libertine, Normal';font-variant-ligatures:normal;font-variant-caps:small-caps;font-variant-numeric:normal;font-feature-settings:normal;text-align:start;writing-mode:lr-tb;text-anchor:start"
     d="m 54.614353,123.48958 v 5.75521 q 0,1.60156 0.325521,1.97917 0.325521,0.36458 1.601562,0.45573 0.130209,0.13021 0.130209,0.45573 0,0.3125 -0.130209,0.41666 -1.861979,-0.0521 -2.96875,-0.0521 -1.015625,0 -2.98177,0.0521 -0.104167,-0.10416 -0.104167,-0.41666 0,-0.32552 0.104167,-0.45573 1.276041,-0.10417 1.601562,-0.46875 0.325521,-0.36459 0.325521,-1.96615 v -5.75521 q 0,-1.60156 -0.325521,-1.96614 -0.325521,-0.37761 -1.601562,-0.46875 -0.104167,-0.13021 -0.104167,-0.44271 0,-0.32552 0.104167,-0.42969 2.083333,0.0521 2.955729,0.0521 0.963541,0 2.994791,-0.0521 0.130209,0.10417 0.130209,0.42969 0,0.3125 -0.130209,0.44271 -1.276041,0.10416 -1.601562,0.46875 -0.325521,0.36458 -0.325521,1.96614 z" /><path
     id="path1054"
     style="font-style:normal;font-variant:normal;font-weight:normal;font-stretch:normal;font-size:26.6667px;font-family:'Linux Libertine';-inkscape-font-specification:'Linux Libertine, Normal';font-variant-ligatures:normal;font-variant-caps:small-caps;font-variant-numeric:normal;font-feature-settings:normal;text-align:start;writing-mode:lr-tb;text-anchor:start"
     d="m 62.739353,122.26563 v 4.15364 q 0.742188,0.29948 1.731771,0.29948 2.291666,0 2.291666,-2.96875 0,-2.69531 -2.421874,-2.69531 -0.9375,0 -1.276042,0.27344 -0.325521,0.27343 -0.325521,0.9375 z m 0,6.97916 q 0,1.60156 0.3125,1.97917 0.325521,0.36458 1.614583,0.45573 0.130209,0.13021 0.130209,0.45573 0,0.3125 -0.130209,0.41666 -1.757812,-0.0521 -2.96875,-0.0521 -1.223958,0 -2.98177,0.0521 -0.104167,-0.10416 -0.104167,-0.41666 0,-0.32552 0.104167,-0.45573 1.276041,-0.10417 1.588541,-0.46875 0.325521,-0.36459 0.325521,-1.96615 v -5.75521 q 0,-1.60156 -0.325521,-1.96614 -0.3125,-0.37761 -1.588541,-0.46875 -0.104167,-0.13021 -0.104167,-0.44271 0,-0.32552 0.104167,-0.42969 2.135416,0.0521 2.955729,0.0521 0.325521,0 1.302083,-0.026 0.989583,-0.026 1.523438,-0.026 2.565104,0 3.567708,0.97656 1.015625,0.96355 1.015625,2.27865 0,1.52344 -1.132813,2.83854 -1.132812,1.31511 -3.528645,1.31511 -0.963542,0 -1.679688,-0.3125 z" /><path
     id="path1056"
     style="font-style:normal;font-variant:normal;font-weight:normal;font-stretch:normal;font-size:26.6667px;font-family:'Linux Libertine';-inkscape-font-specification:'Linux Libertine, Normal';font-variant-ligatures:normal;font-variant-caps:small-caps;font-variant-numeric:normal;font-feature-settings:normal;text-align:start;writing-mode:lr-tb;text-anchor:start"
     d="m 76.606542,126.4974 h -1.523438 v 3.99739 q 0,0.66406 0.273438,0.92448 0.286458,0.26042 1.119791,0.26042 h 1.145834 q 1.523437,0 2.278646,-0.76823 0.755208,-0.78125 1.132812,-2.14844 0.377604,-0.10417 0.742188,0.10417 -0.377605,2.1875 -0.794271,3.68489 Q 79.223729,132.5 78.156021,132.5 h -4.114583 q -1.067709,0 -2.981771,0.0521 -0.104167,-0.10416 -0.104167,-0.41666 0,-0.32552 0.104167,-0.45573 1.276042,-0.10417 1.588542,-0.46875 0.32552,-0.36459 0.32552,-1.96615 v -5.75521 q 0,-1.60156 -0.32552,-1.96614 -0.3125,-0.37761 -1.588542,-0.46875 Q 70.9555,120.9245 70.9555,120.612 q 0,-0.32552 0.104167,-0.42969 1.914062,0.0521 2.955729,0.0521 h 5.520833 q 0.611979,0 1.09375,-0.10417 0.07813,0 0.07813,0.0781 0.182292,0.63802 0.481771,3.17709 -0.351562,0.15625 -0.716146,0.13021 -0.299479,-0.91146 -0.520833,-1.32813 -0.221354,-0.42969 -0.846354,-0.74219 -0.611979,-0.32552 -1.653646,-0.32552 h -1.510417 q -0.377604,0 -0.625,0.19531 -0.234375,0.19532 -0.234375,0.54688 v 3.78906 h 1.523438 q 1.223958,0 1.497396,-0.26041 0.286458,-0.27344 0.338541,-1.23698 0.104167,-0.10417 0.364584,-0.10417 0.273437,0 0.390625,0.10417 -0.05208,1.32812 -0.06511,1.88802 0,0.71614 0.06511,1.95312 -0.104167,0.10417 -0.377605,0.10417 -0.273437,0 -0.377604,-0.10417 -0.02604,-0.45573 -0.0651,-0.66406 -0.03906,-0.22135 -0.221354,-0.44271 -0.169271,-0.23437 -0.546875,-0.3125 -0.364583,-0.0781 -1.002604,-0.0781 z" /><path
     id="path1058"
     style="font-style:normal;font-variant:normal;font-weight:normal;font-stretch:normal;font-size:26.6667px;font-family:'Linux Libertine';-inkscape-font-specification:'Linux Libertine, Normal';font-variant-ligatures:normal;font-variant-caps:small-caps;font-variant-numeric:normal;font-feature-settings:normal;text-align:start;writing-mode:lr-tb;text-anchor:start"
     d="m 87.713308,130.46875 q 0,0.63802 0.390625,0.92448 0.403645,0.28646 1.822916,0.28646 2.34375,0 3.463542,-1.02865 1.119791,-1.02864 1.119791,-3.69791 0,-1.19792 -0.16927,-2.10938 -0.169271,-0.92448 -0.677084,-1.84896 -0.507812,-0.92448 -1.575521,-1.43229 -1.067708,-0.50781 -2.66927,-0.50781 -1.705729,0 -1.705729,0.83333 z m -1.067709,-10.23437 q 0.260417,0 1.380209,-0.026 1.132812,-0.026 2.161458,-0.026 3.229166,0 4.934896,1.75781 1.705729,1.75782 1.705729,4.5573 0,1.67968 -0.546875,2.91666 -0.546875,1.22396 -1.497396,1.875 -0.9375,0.65104 -1.979167,0.96354 -1.041666,0.29948 -2.239583,0.29948 -1.25,0 -2.5,-0.026 -1.236979,-0.026 -1.393229,-0.026 -0.963542,0 -2.981771,0.0521 -0.130208,-0.10416 -0.130208,-0.41666 0,-0.32552 0.130208,-0.45573 1.276042,-0.10417 1.588542,-0.46875 0.325521,-0.36459 0.325521,-1.96615 v -5.75521 q 0,-1.60156 -0.325521,-1.96614 -0.3125,-0.37761 -1.588542,-0.46875 -0.130208,-0.13021 -0.130208,-0.44271 0,-0.32552 0.130208,-0.42969 2.070313,0.0521 2.955729,0.0521 z" /><path
     id="path1060"
     style="font-style:normal;font-variant:normal;font-weight:normal;font-stretch:normal;font-size:26.6667px;font-family:'Linux Libertine';-inkscape-font-specification:'Linux Libertine, Normal';font-variant-ligatures:normal;font-variant-caps:small-caps;font-variant-numeric:normal;font-feature-settings:normal;text-align:start;writing-mode:lr-tb;text-anchor:start"
     d="m 102.94769,123.48958 v 5.75521 q 0,1.60156 0.32552,1.97917 0.32552,0.36458 1.60156,0.45573 0.13021,0.13021 0.13021,0.45573 0,0.3125 -0.13021,0.41666 -1.86198,-0.0521 -2.96875,-0.0521 -1.01563,0 -2.981772,0.0521 -0.104167,-0.10416 -0.104167,-0.41666 0,-0.32552 0.104167,-0.45573 1.276042,-0.10417 1.601562,-0.46875 0.32552,-0.36459 0.32552,-1.96615 v -5.75521 q 0,-1.60156 -0.32552,-1.96614 -0.32552,-0.37761 -1.601562,-0.46875 -0.104167,-0.13021 -0.104167,-0.44271 0,-0.32552 0.104167,-0.42969 2.083332,0.0521 2.955732,0.0521 0.96354,0 2.99479,-0.0521 0.13021,0.10417 0.13021,0.42969 0,0.3125 -0.13021,0.44271 -1.27604,0.10416 -1.60156,0.46875 -0.32552,0.36458 -0.32552,1.96614 z" /><path
     id="path1062"
     d="m 113.05185,124.94792 h 4.71354 l -2.5,-7.25261 h -0.16927 l -2.72135,6.90104 q -0.0781,0.20834 0.0781,0.28646 0.15625,0.0651 0.59896,0.0651 z m -2.89062,5.44271 q -0.026,0.26041 -0.0781,0.46875 -0.0521,0.19531 0.14323,0.33854 0.20833,0.13021 0.32552,0.20833 0.11719,0.0781 0.44271,0.14323 0.32552,0.0651 0.50781,0.0781 0.18229,0.013 0.50782,0.0521 0.10416,0.13021 0.10416,0.45573 0,0.3125 -0.10416,0.41666 -1.97917,-0.0521 -3.41146,-0.0521 -0.98959,0 -2.38282,0.0521 -0.1302,-0.10416 -0.1302,-0.41666 0,-0.32552 0.1302,-0.45573 1.01563,-0.0781 1.60157,-0.41667 0.58593,-0.33854 1.06771,-1.48437 l 6.05468,-14.29688 q 0.58594,0 1.47136,-0.53385 l 5.49479,15.26041 q 0.20833,0.61198 0.61198,0.9375 0.41666,0.3125 0.76823,0.39063 0.35156,0.0781 1.01562,0.14323 0.13021,0.13021 0.13021,0.45573 0,0.3125 -0.13021,0.41666 -1.86198,-0.0521 -3.04687,-0.0521 -1.52344,0 -3.48959,0.0521 -0.10416,-0.10416 -0.10416,-0.41666 0,-0.32552 0.10416,-0.45573 0.23438,-0.026 0.36459,-0.026 0.14323,-0.013 0.35156,-0.0391 0.22135,-0.026 0.33854,-0.0521 0.11719,-0.026 0.27344,-0.0521 0.16927,-0.026 0.26041,-0.0651 0.0911,-0.0391 0.19532,-0.10416 0.11718,-0.0651 0.15625,-0.13021 0.0391,-0.0651 0.0781,-0.15625 0.0391,-0.10417 0.026,-0.22136 -0.013,-0.11718 -0.0651,-0.24739 l -1.54948,-4.51823 h -5.625 q -0.48177,0 -0.66406,0.10417 -0.16927,0.0911 -0.27344,0.35156 z" /></g></svg>
