<?xml version="1.0" encoding="UTF-8" standalone="no"?>
<svg
   xmlns:dc="http://purl.org/dc/elements/1.1/"
   xmlns:cc="http://creativecommons.org/ns#"
   xmlns:rdf="http://www.w3.org/1999/02/22-rdf-syntax-ns#"
   xmlns:svg="http://www.w3.org/2000/svg"
   xmlns="http://www.w3.org/2000/svg"
   id="svg3857"
   xml:space="preserve"
   enable-background="new 0 0 135 155"
   viewBox="0 0 118.71846 17.82159"
   height="17.82159"
   width="118.71846"
   y="0px"
   x="0px"
   version="1.1"><metadata
     id="metadata4852"><rdf:RDF><cc:Work
         rdf:about=""><dc:format>image/svg+xml</dc:format><dc:type
           rdf:resource="http://purl.org/dc/dcmitype/StillImage" /></cc:Work></rdf:RDF></metadata><defs
     id="defs4850"><radialGradient
       id="SVGID_1_"
       cx="-145.4702"
       cy="87.823196"
       r="68.686401"
       gradientTransform="matrix(1,0,0,-1,192.3999,143.0996)"
       gradientUnits="userSpaceOnUse">
		<stop
   offset="0"
   style="stop-color:#FFFFFF"
   id="stop3922" />
		<stop
   offset="0.4835"
   style="stop-color:#EAEAEB"
   id="stop3924" />
		<stop
   offset="0.9451"
   style="stop-color:#A9ABAE"
   id="stop3926" />
		<stop
   offset="1"
   style="stop-color:#999B9E"
   id="stop3928" />
	</radialGradient><linearGradient
       id="SVGID_2_"
       gradientUnits="userSpaceOnUse"
       x1="66.232399"
       y1="24.481001"
       x2="112.7331"
       y2="97.232101">
		<stop
   offset="0"
   style="stop-color:#8A8A8A"
   id="stop3935" />
		<stop
   offset="0.5687"
   style="stop-color:#606060"
   id="stop3937" />
		<stop
   offset="0.5914"
   style="stop-color:#FFFFFF"
   id="stop3939" />
		<stop
   offset="0.6116"
   style="stop-color:#585858"
   id="stop3941" />
		<stop
   offset="1"
   style="stop-color:#303030"
   id="stop3943" />
	</linearGradient><linearGradient
       id="SVGID_5_"
       gradientUnits="userSpaceOnUse"
       x1="54.715801"
       y1="65.136703"
       x2="83.798798"
       y2="65.136703">
		<stop
   offset="0"
   style="stop-color:#231F20"
   id="stop3964" />
		<stop
   offset="1"
   style="stop-color:#474747"
   id="stop3966" />
	</linearGradient><linearGradient
       id="SVGID_6_"
       gradientUnits="userSpaceOnUse"
       x1="-123.5898"
       y1="119.8076"
       x2="-94.069099"
       y2="29.9035"
       gradientTransform="matrix(1,0,0,-1,192.3999,143.0996)">
		<stop
   offset="0"
   style="stop-color:#FFFFFF"
   id="stop3997" />
		<stop
   offset="0.0094"
   style="stop-color:#FCFCFC"
   id="stop3999" />
		<stop
   offset="0.0655"
   style="stop-color:#EEEEEE"
   id="stop4001" />
		<stop
   offset="0.1342"
   style="stop-color:#E5E5E5"
   id="stop4003" />
		<stop
   offset="0.2515"
   style="stop-color:#E3E3E3"
   id="stop4005" />
		<stop
   offset="0.3357"
   style="stop-color:#8A8A8A"
   id="stop4007" />
		<stop
   offset="0.4422"
   style="stop-color:#B8B8B8"
   id="stop4009" />
		<stop
   offset="1"
   style="stop-color:#3B3B3B"
   id="stop4011" />
	</linearGradient><linearGradient
       id="SVGID_7_"
       gradientUnits="userSpaceOnUse"
       x1="70.421898"
       y1="26.876499"
       x2="119.5471"
       y2="87.626701">
		<stop
   offset="0"
   style="stop-color:#EFF0F0"
   id="stop4016" />
		<stop
   offset="0.5914"
   style="stop-color:#F0F1F2"
   id="stop4018" />
		<stop
   offset="0.599"
   style="stop-color:#787878"
   id="stop4020" />
		<stop
   offset="0.6456"
   style="stop-color:#EEEFF0"
   id="stop4022" />
		<stop
   offset="1"
   style="stop-color:#D8D9DB"
   id="stop4024" />
	</linearGradient><linearGradient
       id="SVGID_8_"
       gradientUnits="userSpaceOnUse"
       x1="-117.166"
       y1="122.1328"
       x2="-87.569702"
       y2="31.998501"
       gradientTransform="matrix(1,0,0,-1,192.3999,143.0996)">
		<stop
   offset="0"
   style="stop-color:#FFFFFF"
   id="stop4029" />
		<stop
   offset="1"
   style="stop-color:#E4E5E6"
   id="stop4031" />
	</linearGradient><linearGradient
       id="SVGID_9_"
       gradientUnits="userSpaceOnUse"
       x1="54.653301"
       y1="25.2764"
       x2="79.683601"
       y2="106.3903">
		<stop
   offset="0"
   style="stop-color:#FFFFFF"
   id="stop4036" />
		<stop
   offset="0.7473"
   style="stop-color:#F9F9F9"
   id="stop4038" />
		<stop
   offset="1"
   style="stop-color:#D5D7D8"
   id="stop4040" />
	</linearGradient><linearGradient
       id="SVGID_10_"
       gradientUnits="userSpaceOnUse"
       x1="-115.3369"
       y1="119.6328"
       x2="-134.85719"
       y2="24.6462"
       gradientTransform="matrix(1,0,0,-1,192.3999,143.0996)">
		<stop
   offset="0"
   style="stop-color:#FFFFFF"
   id="stop4061" />
		<stop
   offset="1"
   style="stop-color:#E4E5E6"
   id="stop4063" />
	</linearGradient><linearGradient
       id="SVGID_11_"
       gradientUnits="userSpaceOnUse"
       x1="32.519001"
       y1="33.077099"
       x2="37.2481"
       y2="92.496101">
		<stop
   offset="0.2198"
   style="stop-color:#989A9C"
   id="stop4068" />
		<stop
   offset="0.2527"
   style="stop-color:#FFFFFF"
   id="stop4070" />
	</linearGradient><linearGradient
       id="SVGID_12_"
       gradientUnits="userSpaceOnUse"
       x1="-152.6201"
       y1="126.8398"
       x2="-171.9462"
       y2="32.797901"
       gradientTransform="matrix(1,0,0,-1,192.3999,143.0996)">
		<stop
   offset="0"
   style="stop-color:#FFFFFF"
   id="stop4075" />
		<stop
   offset="1"
   style="stop-color:#E4E5E6"
   id="stop4077" />
	</linearGradient><linearGradient
       id="SVGID_13_"
       gradientUnits="userSpaceOnUse"
       x1="-130.1348"
       y1="35.625"
       x2="-130.14281"
       y2="35.585701"
       gradientTransform="matrix(1,0,0,-1,192.3999,143.0996)">
		<stop
   offset="0"
   style="stop-color:#FFFFFF"
   id="stop4082" />
		<stop
   offset="1"
   style="stop-color:#E4E5E6"
   id="stop4084" />
	</linearGradient><linearGradient
       id="SVGID_14_"
       gradientUnits="userSpaceOnUse"
       x1="-121.1382"
       y1="120.3223"
       x2="-140.54491"
       y2="25.888"
       gradientTransform="matrix(1,0,0,-1,192.3999,143.0996)">
		<stop
   offset="0"
   style="stop-color:#FFFFFF"
   id="stop4093" />
		<stop
   offset="1"
   style="stop-color:#E4E5E6"
   id="stop4095" />
	</linearGradient><linearGradient
       id="SVGID_15_"
       gradientUnits="userSpaceOnUse"
       x1="-135.58591"
       y1="123.3525"
       x2="-155.006"
       y2="28.8524"
       gradientTransform="matrix(1,0,0,-1,192.3999,143.0996)">
		<stop
   offset="0"
   style="stop-color:#FFFFFF"
   id="stop4100" />
		<stop
   offset="1"
   style="stop-color:#E4E5E6"
   id="stop4102" />
	</linearGradient><linearGradient
       id="SVGID_16_"
       gradientUnits="userSpaceOnUse"
       x1="-127.4014"
       y1="121.9365"
       x2="-146.8837"
       y2="27.1346"
       gradientTransform="matrix(1,0,0,-1,192.3999,143.0996)">
		<stop
   offset="0"
   style="stop-color:#FFFFFF"
   id="stop4107" />
		<stop
   offset="1"
   style="stop-color:#E4E5E6"
   id="stop4109" />
	</linearGradient><linearGradient
       id="SVGID_17_"
       gradientUnits="userSpaceOnUse"
       x1="-118.4946"
       y1="124.0039"
       x2="-138.85201"
       y2="24.9438"
       gradientTransform="matrix(1,0,0,-1,192.3999,143.0996)">
		<stop
   offset="0"
   style="stop-color:#FFFFFF"
   id="stop4114" />
		<stop
   offset="1"
   style="stop-color:#E4E5E6"
   id="stop4116" />
	</linearGradient><linearGradient
       id="SVGID_18_"
       gradientUnits="userSpaceOnUse"
       x1="-115.3716"
       y1="119.1758"
       x2="-134.7878"
       y2="24.695299"
       gradientTransform="matrix(1,0,0,-1,192.3999,143.0996)">
		<stop
   offset="0"
   style="stop-color:#FFFFFF"
   id="stop4121" />
		<stop
   offset="1"
   style="stop-color:#E4E5E6"
   id="stop4123" />
	</linearGradient><linearGradient
       id="SVGID_21_"
       gradientUnits="userSpaceOnUse"
       x1="-175.4424"
       y1="83.6045"
       x2="-75.6362"
       y2="83.6045"
       gradientTransform="matrix(1,0,0,-1,192.3999,143.0996)">
		<stop
   offset="0"
   style="stop-color:#555555"
   id="stop4198" />
		<stop
   offset="1"
   style="stop-color:#231F20"
   id="stop4200" />
	</linearGradient><linearGradient
       id="SVGID_22_"
       gradientUnits="userSpaceOnUse"
       x1="-175.14211"
       y1="104.0801"
       x2="-83.541"
       y2="104.0801"
       gradientTransform="matrix(1,0,0,-1,192.3999,143.0996)">
		<stop
   offset="0"
   style="stop-color:#A0A0A0"
   id="stop4205" />
		<stop
   offset="0.0769"
   style="stop-color:#656767"
   id="stop4207" />
		<stop
   offset="1"
   style="stop-color:#717375"
   id="stop4209" />
	</linearGradient><linearGradient
       id="SVGID_23_"
       gradientUnits="userSpaceOnUse"
       x1="-172.3853"
       y1="78.209"
       x2="-172.3853"
       y2="78.209"
       gradientTransform="matrix(1,0,0,-1,192.3999,143.0996)">
		<stop
   offset="0"
   style="stop-color:#FFFFFF"
   id="stop4224" />
		<stop
   offset="0.078"
   style="stop-color:#F4F4F4"
   id="stop4226" />
		<stop
   offset="0.3807"
   style="stop-color:#CECECE"
   id="stop4228" />
		<stop
   offset="0.5396"
   style="stop-color:#BFBFBF"
   id="stop4230" />
		<stop
   offset="0.8357"
   style="stop-color:#7C7C7C"
   id="stop4232" />
		<stop
   offset="0.8996"
   style="stop-color:#A8A8A8"
   id="stop4234" />
		<stop
   offset="0.9093"
   style="stop-color:#9A9A9A"
   id="stop4236" />
		<stop
   offset="0.9327"
   style="stop-color:#7D7D7D"
   id="stop4238" />
		<stop
   offset="0.9558"
   style="stop-color:#686868"
   id="stop4240" />
		<stop
   offset="0.9785"
   style="stop-color:#5B5B5B"
   id="stop4242" />
		<stop
   offset="1"
   style="stop-color:#575757"
   id="stop4244" />
	</linearGradient><linearGradient
       id="SVGID_24_"
       gradientUnits="userSpaceOnUse"
       x1="-175.7173"
       y1="78.449203"
       x2="-67.153198"
       y2="90.476799"
       gradientTransform="matrix(1,0,0,-1,192.3999,143.0996)">
		<stop
   offset="0"
   style="stop-color:#FFFFFF"
   id="stop4249" />
		<stop
   offset="0.078"
   style="stop-color:#F4F4F4"
   id="stop4251" />
		<stop
   offset="0.3807"
   style="stop-color:#CECECE"
   id="stop4253" />
		<stop
   offset="0.5396"
   style="stop-color:#BFBFBF"
   id="stop4255" />
		<stop
   offset="0.8357"
   style="stop-color:#7C7C7C"
   id="stop4257" />
		<stop
   offset="0.8996"
   style="stop-color:#A8A8A8"
   id="stop4259" />
		<stop
   offset="0.9093"
   style="stop-color:#9A9A9A"
   id="stop4261" />
		<stop
   offset="0.9327"
   style="stop-color:#7D7D7D"
   id="stop4263" />
		<stop
   offset="0.9558"
   style="stop-color:#686868"
   id="stop4265" />
		<stop
   offset="0.9785"
   style="stop-color:#5B5B5B"
   id="stop4267" />
		<stop
   offset="1"
   style="stop-color:#575757"
   id="stop4269" />
	</linearGradient><linearGradient
       id="SVGID_25_"
       gradientUnits="userSpaceOnUse"
       x1="-176.1851"
       y1="78.4795"
       x2="-52.131699"
       y2="92.223099"
       gradientTransform="matrix(1,0,0,-1,192.3999,143.0996)">
		<stop
   offset="0"
   style="stop-color:#FFFFFF"
   id="stop4274" />
		<stop
   offset="0.078"
   style="stop-color:#F4F4F4"
   id="stop4276" />
		<stop
   offset="0.3807"
   style="stop-color:#CECECE"
   id="stop4278" />
		<stop
   offset="0.5396"
   style="stop-color:#BFBFBF"
   id="stop4280" />
		<stop
   offset="0.8357"
   style="stop-color:#7C7C7C"
   id="stop4282" />
		<stop
   offset="0.8996"
   style="stop-color:#A8A8A8"
   id="stop4284" />
		<stop
   offset="0.9093"
   style="stop-color:#9A9A9A"
   id="stop4286" />
		<stop
   offset="0.9327"
   style="stop-color:#7D7D7D"
   id="stop4288" />
		<stop
   offset="0.9558"
   style="stop-color:#686868"
   id="stop4290" />
		<stop
   offset="0.9785"
   style="stop-color:#5B5B5B"
   id="stop4292" />
		<stop
   offset="1"
   style="stop-color:#575757"
   id="stop4294" />
	</linearGradient><linearGradient
       id="SVGID_26_"
       gradientUnits="userSpaceOnUse"
       x1="21.2129"
       y1="71.326698"
       x2="117.1948"
       y2="51.952599">
		<stop
   offset="0"
   style="stop-color:#EDEDEE"
   id="stop4299" />
		<stop
   offset="0.4176"
   style="stop-color:#FFFFFF"
   id="stop4301" />
		<stop
   offset="0.6264"
   style="stop-color:#F8F9F9"
   id="stop4303" />
		<stop
   offset="1"
   style="stop-color:#BFC0C2"
   id="stop4305" />
	</linearGradient><linearGradient
       id="SVGID_27_"
       gradientUnits="userSpaceOnUse"
       x1="23.471201"
       y1="30.732401"
       x2="27.9561"
       y2="30.732401">
		<stop
   offset="0"
   style="stop-color:#E2E3E4"
   id="stop4316" />
		<stop
   offset="0.5055"
   style="stop-color:#FFFFFF"
   id="stop4318" />
	</linearGradient><linearGradient
       id="SVGID_34_"
       gradientUnits="userSpaceOnUse"
       x1="22.5742"
       y1="49.7188"
       x2="111.5455"
       y2="29.204">
		<stop
   offset="0"
   style="stop-color:#FFFFFF"
   id="stop4743" />
		<stop
   offset="0.6538"
   style="stop-color:#FFFFFF"
   id="stop4745" />
		<stop
   offset="1"
   style="stop-color:#CBCCCE"
   id="stop4747" />
	</linearGradient><linearGradient
       id="SVGID_35_"
       gradientUnits="userSpaceOnUse"
       x1="-158.8101"
       y1="107.0898"
       x2="-126.4229"
       y2="107.0898"
       gradientTransform="matrix(1,0,0,-1,192.3999,143.0996)">
		<stop
   offset="0"
   style="stop-color:#696969"
   id="stop4770" />
		<stop
   offset="0.3702"
   style="stop-color:#2E2E2E"
   id="stop4772" />
		<stop
   offset="0.4554"
   style="stop-color:#424242"
   id="stop4774" />
		<stop
   offset="0.6014"
   style="stop-color:#303030"
   id="stop4776" />
		<stop
   offset="0.6947"
   style="stop-color:#4A4A4A"
   id="stop4778" />
		<stop
   offset="1"
   style="stop-color:#666666"
   id="stop4780" />
	</linearGradient><linearGradient
       id="SVGID_36_"
       gradientUnits="userSpaceOnUse"
       x1="-158.4185"
       y1="107.8965"
       x2="-126.5454"
       y2="107.8965"
       gradientTransform="matrix(1,0,0,-1,192.3999,143.0996)">
		<stop
   offset="0"
   style="stop-color:#525252"
   id="stop4785" />
		<stop
   offset="0.1856"
   style="stop-color:#333333"
   id="stop4787" />
		<stop
   offset="0.354"
   style="stop-color:#AEAEAE"
   id="stop4789" />
		<stop
   offset="0.4199"
   style="stop-color:#ADADAD"
   id="stop4791" />
		<stop
   offset="0.4276"
   style="stop-color:#9D9D9D"
   id="stop4793" />
		<stop
   offset="0.4433"
   style="stop-color:#818181"
   id="stop4795" />
		<stop
   offset="0.4611"
   style="stop-color:#6A6A6A"
   id="stop4797" />
		<stop
   offset="0.4814"
   style="stop-color:#585858"
   id="stop4799" />
		<stop
   offset="0.506"
   style="stop-color:#4C4C4C"
   id="stop4801" />
		<stop
   offset="0.539"
   style="stop-color:#444444"
   id="stop4803" />
		<stop
   offset="0.6166"
   style="stop-color:#424242"
   id="stop4805" />
		<stop
   offset="0.6684"
   style="stop-color:#454545"
   id="stop4807" />
		<stop
   offset="1"
   style="stop-color:#BDBDBD"
   id="stop4809" />
	</linearGradient><linearGradient
       id="SVGID_37_"
       gradientUnits="userSpaceOnUse"
       x1="-153.1255"
       y1="97.627899"
       x2="-154.15421"
       y2="104.4332"
       gradientTransform="matrix(1,0,0,-1,192.3999,143.0996)">
		<stop
   offset="0"
   style="stop-color:#969696"
   id="stop4814" />
		<stop
   offset="1"
   style="stop-color:#000000"
   id="stop4816" />
	</linearGradient><linearGradient
       id="SVGID_38_"
       gradientUnits="userSpaceOnUse"
       x1="38.737301"
       y1="46.373001"
       x2="39.487301"
       y2="38.790001">
		<stop
   offset="0"
   style="stop-color:#333333"
   id="stop4825" />
		<stop
   offset="0.431"
   style="stop-color:#000000"
   id="stop4827" />
		<stop
   offset="1"
   style="stop-color:#2E2E2E"
   id="stop4829" />
	</linearGradient><radialGradient
       id="SVGID_39_"
       cx="-138.2334"
       cy="106.5996"
       r="72.751701"
       gradientTransform="matrix(1,0,0,-1,192.3999,143.0996)"
       gradientUnits="userSpaceOnUse">
		<stop
   offset="0"
   style="stop-color:#000000;stop-opacity:0;"
   id="stop4840" />
		<stop
   offset="0.80220002"
   style="stop-color:#000000;stop-opacity:0.08;"
   id="stop4842" />
		<stop
   offset="1"
   style="stop-color:#000000;stop-opacity:0.3882353;"
   id="stop4844" />
	</radialGradient></defs><g
     transform="translate(-8.7500029,-115)"
     id="Wikipedia">
		
		
		
		
		
		
		
		
		
		
		
	<path
   id="text3523"
   d="m 38.370843,115 c -0.318831,2e-5 -0.569843,0.0648 -0.806009,0.1876 -0.236171,0.12282 -0.369425,0.27091 -0.369421,0.42879 v 6.61944 c -1e-6,0.10528 0.05167,0.22657 0.134335,0.402 0.08266,0.1579 0.174196,0.2412 0.268669,0.24119 h 3.123286 c 0.247973,1e-5 0.369416,0.18512 0.369421,0.53599 v 2.22435 c -5e-6,0.10526 -0.05168,0.21633 -0.134334,0.32159 -0.07086,0.0877 -0.11885,0.134 -0.201503,0.134 h -3.123286 c -0.16532,0 -0.306693,0.11107 -0.436588,0.32159 -0.118086,0.21054 -0.201501,0.43363 -0.201503,0.69678 v 4.90429 c -10e-7,0.14035 0.131413,0.27089 0.403005,0.42879 0.283401,0.14035 0.577967,0.2144 0.873177,0.2144 0.307017,0 0.611546,-0.0565 0.90676,-0.2144 0.295208,-0.1579 0.436582,-0.32449 0.436589,-0.48239 v -3.29632 c -4e-6,-0.24561 0.07345,-0.47797 0.167918,-0.72359 0.106272,-0.26315 0.227719,-0.40199 0.369421,-0.40199 h 2.921784 c 0.118077,1e-5 0.217745,-0.11106 0.335837,-0.32159 0.118077,-0.22806 0.167911,-0.45116 0.167919,-0.69678 v -4.6363 c -8e-6,-0.15788 -0.02991,-0.29671 -0.100751,-0.40199 -0.05905,-0.1228 -0.140624,-0.18759 -0.235086,-0.18759 h -3.257621 c -0.10628,0 -0.207792,-0.0648 -0.302254,-0.1876 -0.08266,-0.1228 -0.100758,-0.23483 -0.100751,-0.37519 v -5.11868 c -3e-6,-0.15788 -0.121445,-0.30597 -0.369421,-0.42879 -0.236172,-0.12279 -0.532574,-0.18758 -0.839593,-0.1876 z m -26.262468,0.37519 c -0.590428,2e-5 -1.147811,0.18513 -1.679186,0.53599 -0.5195751,0.3509 -0.9355726,0.83315 -1.2425977,1.44717 -0.3070251,0.5965 -0.4365884,1.25461 -0.4365884,1.95635 0,0.82457 0.061644,1.55672 0.1679186,2.17075 0.1180858,0.61405 0.2912058,1.13332 0.5037558,1.55437 0.2243608,0.42106 0.4989843,0.72746 0.8060097,0.93797 0.307014,0.19299 0.629644,0.29481 1.007511,0.2948 0.118086,1e-5 0.351001,-0.037 0.705259,-0.1072 0.389678,0.14036 0.604496,0.53006 0.604507,1.17917 0,0.71931 -0.103352,1.33114 -0.26867,1.82236 0,1.64913 0.336267,2.94781 0.973928,3.91271 0.649461,0.94737 1.602916,1.42037 2.854616,1.42037 0.401479,0 0.807514,-0.11203 1.209014,-0.37519 0.401479,-0.2807 0.734071,-0.66944 1.041096,-1.12558 0.307003,-0.45613 0.561702,-0.93935 0.738841,-1.50076 0.188929,-0.5614 0.26866,-1.13621 0.26867,-1.71516 0.0236,-0.38596 0.03357,-0.67289 0.03358,-0.83078 -1.1e-5,-0.35087 -0.0081,-0.76834 -0.06717,-1.25957 -1.1e-5,-0.0351 -0.01,-0.0906 -0.03358,-0.1608 -0.01182,-0.0877 -0.03359,-0.17101 -0.03358,-0.2412 -1.1e-5,-0.28069 0.05166,-0.54081 0.134335,-0.80398 0.08264,-0.26315 0.192282,-0.42049 0.369421,-0.45559 0.425089,0.19299 0.759519,0.29481 1.007512,0.2948 0.4369,1e-5 0.832973,-0.17585 1.17543,-0.50919 0.342425,-0.33333 0.617059,-0.77856 0.806009,-1.33997 0.188918,-0.57894 0.268649,-1.18248 0.26867,-1.84916 -1.1e-5,-1.17542 -0.12146,-2.15844 -0.369421,-2.94793 -0.247993,-0.78946 -0.570612,-1.37353 -1.007512,-1.74196 -0.436921,-0.36841 -0.964406,-0.56277 -1.578435,-0.56279 -0.968307,2e-5 -1.678874,0.42674 -2.115774,1.28637 -0.436922,0.84212 -0.638102,1.92695 -0.638091,3.24273 -1.1e-5,1.43861 0.272786,3.29358 0.839593,5.57427 0.0118,0.14036 -10e-6,0.27919 0,0.40199 -10e-6,0.10527 -10e-6,0.26262 0,0.45559 -10e-6,1.21054 -0.131422,2.13802 -0.403004,2.78714 -0.259793,0.64913 -0.70571,0.96478 -1.343349,0.96478 -0.578618,0 -1.024524,-0.20459 -1.343349,-0.64319 -0.307025,-0.43859 -0.470172,-1.10595 -0.470172,-1.98315 -1.1e-5,-0.61403 0.143211,-1.55078 0.403004,-2.81394 0.177118,-1.35087 0.268659,-2.58379 0.26867,-3.67152 -1.1e-5,-0.82454 -0.04984,-1.55766 -0.167918,-2.22435 -0.106286,-0.68419 -0.289369,-1.28677 -0.53734,-1.79555 -0.247982,-0.50876 -0.572449,-0.8892 -0.973928,-1.15238 -0.401489,-0.28068 -0.910887,-0.42877 -1.477684,-0.42879 z m 13.433489,0.0268 c -0.259782,2e-5 -0.460962,0.11108 -0.638091,0.32159 -0.165317,0.21055 -0.268669,0.4429 -0.268669,0.72359 0,0.21054 0.09339,0.46044 0.235086,0.72358 l 2.686698,4.5559 v 0.29479 c 0,0.24562 -0.04984,0.45021 -0.167919,0.64318 -0.118086,0.17545 -0.319266,0.34205 -0.638091,0.48239 -0.614039,0.49124 -1.05182,1.11233 -1.276181,1.84916 -0.21255,0.71931 -0.302254,1.60051 -0.302254,2.65314 0,1.08772 0.231078,2.02447 0.738842,2.81394 0.519564,0.78947 1.168499,1.39205 1.947853,1.79556 0.779357,0.38596 1.56153,0.56278 2.317277,0.56278 0.578607,0 1.167729,-0.11106 1.746353,-0.32159 0.578605,-0.22807 1.104244,-0.55298 1.612019,-0.99158 0.507754,-0.43859 0.901981,-0.99489 1.209014,-1.66156 0.307009,-0.66667 0.470158,-1.39053 0.470172,-2.19755 -1.1e-5,-1.07017 -0.08971,-1.96063 -0.302254,-2.67994 -0.212562,-0.71928 -0.638534,-1.33112 -1.276181,-1.82236 -0.637665,-0.29823 -0.973939,-0.67868 -0.973928,-1.15237 -8e-6,-0.0175 0.02177,-0.0546 0.03358,-0.1072 0.0118,-0.0526 -7e-6,-0.0989 0,-0.13399 l 2.283693,-4.7435 c 0.188924,-0.38594 0.302238,-0.7016 0.302253,-0.96477 -10e-6,-0.21051 -0.08343,-0.37712 -0.201502,-0.48239 -0.106287,-0.10525 -0.245823,-0.16078 -0.470172,-0.1608 z m 19.982312,0 c -0.259788,2e-5 -0.494547,0.11108 -0.671675,0.32159 -0.165319,0.21055 -0.235087,0.4429 -0.235086,0.72359 -1e-6,0.21054 0.0598,0.46044 0.201503,0.72358 l 2.720281,4.5559 v 0.29479 c -3e-6,0.24562 -0.08342,0.45021 -0.201502,0.64318 -0.118088,0.17545 -0.319266,0.34205 -0.638091,0.48239 -0.614042,0.49124 -1.05182,1.11233 -1.276181,1.84916 -0.212554,0.71931 -0.302256,1.60051 -0.302254,2.65314 -10e-7,1.08772 0.264661,2.02447 0.772426,2.81394 0.519568,0.78947 1.168491,1.39205 1.947856,1.79556 0.779353,0.38596 1.527948,0.56278 2.283693,0.56278 0.578607,0 1.167733,-0.11106 1.746353,-0.32159 0.578605,-0.22807 1.104248,-0.55298 1.612019,-0.99158 0.507754,-0.43859 0.935569,-0.99489 1.242598,-1.66156 0.307009,-0.66667 0.470162,-1.39053 0.470172,-2.19755 -1.1e-5,-1.07017 -0.123299,-1.96063 -0.335837,-2.67994 -0.212563,-0.71928 -0.638538,-1.33112 -1.276182,-1.82236 -0.637665,-0.29823 -0.940351,-0.67868 -0.940344,-1.15237 -9e-6,-0.0175 -0.01182,-0.0546 0,-0.1072 0.0118,-0.0526 0.03357,-0.0989 0.03358,-0.13399 l 2.283693,-4.7435 c 0.188924,-0.38594 0.268659,-0.7016 0.26867,-0.96477 -1.1e-5,-0.21051 -0.04984,-0.37712 -0.167919,-0.48239 -0.106287,-0.10525 -0.27941,-0.16078 -0.503756,-0.1608 z m 13.366321,0 c -0.224363,2e-5 -0.439191,0.12959 -0.604507,0.37519 -0.16532,0.24563 -0.23509,0.57054 -0.235086,0.99158 v 4.79709 c -2e-6,0.21054 -0.03987,0.39564 -0.134335,0.53599 -0.09447,0.14036 -0.215913,0.1876 -0.369421,0.18759 h -0.873176 c -0.129894,1e-5 -0.219597,0.1481 -0.302254,0.42879 -0.08266,0.28072 -0.134338,0.5954 -0.134335,0.91118 0,0.35089 0.05167,0.64803 0.134335,0.91118 0.08266,0.24562 0.172362,0.3752 0.302254,0.37519 h 0.90676 c 0.153508,1e-5 0.253173,0.0833 0.335837,0.2412 0.08266,0.1579 0.134331,0.33472 0.134335,0.56278 v 5.94947 c -2e-6,0.22807 0.109637,0.44095 0.369421,0.61638 0.259783,0.1579 0.576119,0.2144 0.906761,0.2144 0.330632,0 0.583488,-0.0472 0.772425,-0.1876 0.188931,-0.15789 0.268666,-0.37076 0.26867,-0.61638 v -13.53369 c -4e-6,-0.28069 0.123278,-0.49453 0.335837,-0.66999 0.224356,-0.17542 0.405597,-0.26797 0.570924,-0.26799 0.177121,2e-5 0.352084,0.20363 0.470172,0.58959 0.118078,0.36843 0.167915,0.85994 0.167918,1.47396 v 0.34839 c -5e-6,0.82458 0.101508,1.64929 0.302254,2.43875 0.212546,0.78948 0.507112,1.43005 0.873177,1.95635 0.366054,0.50878 0.760289,0.77719 1.209014,0.77719 0.342436,0 0.688671,-0.1666 1.007511,-0.48239 0.318819,-0.33333 0.569831,-0.7693 0.80601,-1.31317 0.236158,-0.5614 0.441023,-1.19174 0.570923,-1.87596 0.141691,-0.70174 0.201491,-1.4071 0.201502,-2.14395 0.0118,-0.1228 0.03358,-0.26163 0.03358,-0.40199 0.0118,-0.14034 -1.4e-5,-0.2514 0,-0.32159 -1.1e-5,-1.05262 -0.173129,-1.77648 -0.503756,-2.19755 -0.318838,-0.43859 -0.762903,-0.66997 -1.376933,-0.66999 z m 32.240374,0 c -0.743939,2e-5 -1.404676,0.20364 -1.947856,0.58959 -0.543194,0.36843 -0.959201,0.87845 -1.242598,1.52756 -0.283407,0.64914 -0.436592,1.34524 -0.436588,2.11715 -0.03543,0.29826 -0.03359,0.49262 -0.03358,0.56279 -4e-6,0.35089 0.0716,0.90719 0.201502,1.66156 0.05904,0.17546 0.06716,0.34302 0.06717,0.53599 -5e-6,0.64913 -0.527488,0.99159 -1.578435,0.99158 -0.40149,1e-5 -0.765819,0.21385 -1.108263,0.66998 -0.330638,0.45615 -0.605268,1.03096 -0.806009,1.71516 -0.188936,0.66668 -0.26867,1.31553 -0.26867,1.92956 -10e-7,0.84211 0.121442,1.63076 0.369421,2.38515 0.259784,0.73684 0.625954,1.33016 1.074679,1.76875 0.460527,0.4386 0.966235,0.64319 1.544851,0.64319 0.625844,0 1.175103,-0.13055 1.612019,-0.42879 0.448715,-0.31579 0.761371,-0.78879 0.973928,-1.42037 0.224354,-0.63157 0.335831,-1.43777 0.335837,-2.38514 -6e-6,-0.5614 -0.05168,-1.1742 -0.134335,-1.87596 -0.08267,-0.70175 -0.1923,-1.50794 -0.369421,-2.38515 -0.177133,-0.87718 -0.411895,-1.78616 -0.671674,-2.73353 -6e-6,-0.0526 0.0118,-0.12667 0,-0.2144 -6e-6,-0.0877 -0.02178,-0.17101 -0.03358,-0.24119 -5e-6,-0.0877 0.0118,-0.15347 0,-0.2412 -5e-6,-0.57893 0.09154,-1.10747 0.26867,-1.58116 0.177121,-0.49121 0.420006,-0.8624 0.738842,-1.12558 0.318821,-0.26314 0.673184,-0.40197 1.074679,-0.40199 0.531372,2e-5 0.925603,0.27865 1.209014,0.85758 0.283394,0.57897 0.436577,1.37591 0.436588,2.35835 -8e-6,0.52632 -0.05168,1.06508 -0.134335,1.66156 -0.08267,0.57895 -0.182335,1.18153 -0.335837,1.79556 -0.200752,1.19299 -0.302263,2.23155 -0.302253,3.10873 -9e-6,0.78948 0.0716,1.53088 0.201502,2.19755 0.141693,0.64913 0.354681,1.18788 0.638091,1.66156 0.283392,0.45614 0.617824,0.82637 1.007511,1.07198 0.401477,0.24561 0.847382,0.34839 1.343349,0.34839 0.637644,0 1.153317,-0.075 1.578435,-0.26799 0.436899,-0.19299 0.781294,-0.50767 1.041096,-0.91118 0.27158,-0.40351 0.486406,-0.90428 0.604507,-1.50077 0.129878,-0.61403 0.201489,-1.35641 0.201502,-2.25115 -1.5e-5,-0.78947 -0.08159,-1.46608 -0.235086,-2.00995 -0.153525,-0.5614 -0.346578,-1.00663 -0.570923,-1.33997 -0.224375,-0.33333 -0.479071,-0.56568 -0.738842,-0.72358 -0.2598,-0.15789 -0.492721,-0.24119 -0.705259,-0.2412 -0.330648,1e-5 -0.583503,-0.0278 -0.772425,-0.0804 -0.177138,-0.0702 -0.330324,-0.209 -0.436589,-0.40199 -0.106287,-0.21052 -0.167931,-0.50766 -0.167918,-0.91118 -1.2e-5,-0.31578 0.05166,-0.8258 0.134335,-1.52756 v -0.0536 c -1.2e-5,-0.61402 -0.06978,-1.22585 -0.235086,-1.82236 -0.153521,-0.59647 -0.376474,-1.12501 -0.671675,-1.58116 -0.295222,-0.45612 -0.703101,-0.8088 -1.17543,-1.07198 -0.460539,-0.28069 -0.954438,-0.42877 -1.544851,-0.42879 z m 11.317719,0 c -0.56681,0.0176 -1.10426,0.1749 -1.61202,0.45559 -0.49596,0.28072 -0.89019,0.68893 -1.209018,1.23277 -0.307019,0.52633 -0.470172,1.16593 -0.470172,1.90276 0,0.61404 0.101508,1.20833 0.302254,1.82236 0.200742,0.61404 0.475371,1.13332 0.806006,1.55436 0.33064,0.42106 0.65326,0.68947 1.00751,0.77718 0.48415,1e-5 0.83038,-0.0185 1.00752,-0.0536 0.18893,-0.0351 0.40191,-0.15541 0.63809,-0.3484 0.0827,-0.0526 0.18416,-0.0804 0.30225,-0.0804 0.12989,1e-5 0.24136,0.0741 0.33584,0.2144 0.10627,0.14036 0.16791,0.2977 0.16792,0.45559 -1e-5,0.12281 -0.0417,0.27187 -0.10075,0.48239 l -2.98896,7.12864 c -0.10627,0.29824 -0.13433,0.5306 -0.13433,0.72358 0,0.26316 0.0698,0.48529 0.23509,0.64318 0.16531,0.14036 0.33659,0.1876 0.53733,0.1876 h 8.59744 c 0.20073,0 0.35024,-0.0472 0.50375,-0.1876 0.16531,-0.15789 0.26866,-0.38002 0.26867,-0.64318 -1e-5,-0.24561 -0.0399,-0.47796 -0.13433,-0.72358 l -2.95537,-7.12864 c -0.0709,-0.21052 -0.13434,-0.35958 -0.13433,-0.48239 -1e-5,-0.15789 0.0734,-0.31523 0.16791,-0.45559 0.0945,-0.14034 0.20595,-0.21439 0.33584,-0.2144 0.1417,1e-5 0.25316,0.0278 0.33584,0.0804 0.23616,0.19299 0.42737,0.31331 0.60451,0.3484 0.18892,0.0351 0.53515,0.0536 1.00751,0.0536 0.36604,-0.0877 0.71045,-0.35612 1.04109,-0.77718 0.33063,-0.42104 0.57167,-0.94032 0.77243,-1.55436 0.20073,-0.61402 0.30224,-1.20832 0.30225,-1.82236 -1e-5,-0.73683 -0.15136,-1.37643 -0.47017,-1.90276 -0.30704,-0.54384 -0.70126,-0.95205 -1.20901,-1.23277 -0.49597,-0.28069 -1.04523,-0.43803 -1.61202,-0.45559 z m -27.001318,0.0268 c -0.838406,2e-5 -1.284314,0.0741 -1.343349,0.2144 l -5.474146,15.00765 c -0.02362,0.0702 -0.04171,0.18124 -0.100751,0.32159 -0.04724,0.14036 -0.09892,0.25239 -0.134335,0.3752 -0.03543,0.1228 -0.03359,0.21536 -0.03358,0.26799 -10e-7,0.36843 0.129564,0.62758 0.436588,0.75038 0.307018,0.10526 0.742959,0.134 1.309766,0.134 h 10.612456 c 0.5786,0 1.002731,-0.0287 1.309765,-0.134 0.307005,-0.1228 0.470157,-0.38196 0.470172,-0.75038 0.01179,-0.0877 -1.3e-5,-0.18027 0,-0.26799 -1.5e-5,-0.0877 -0.01,-0.18028 -0.03358,-0.268 -0.02363,-0.10526 -0.07346,-0.18027 -0.167918,-0.26799 l -5.541314,-15.16845 c -0.02363,-0.0702 -0.188618,-0.1257 -0.436589,-0.1608 -0.247985,-0.0351 -0.53074,-0.0536 -0.873177,-0.0536 z m 44.935018,0 c -0.83841,2e-5 -1.28431,0.0741 -1.34335,0.2144 l -5.44056,15.00765 c -0.0236,0.0702 -0.0753,0.18124 -0.13433,0.32159 -0.0472,0.14036 -0.0989,0.25239 -0.13434,0.3752 -0.0354,0.1228 -0.0336,0.21536 -0.0336,0.26799 0,0.36843 0.12956,0.62758 0.43659,0.75038 0.30701,0.10526 0.74295,0.134 1.30976,0.134 h 10.61246 c 0.57859,0 1.00273,-0.0287 1.30976,-0.134 0.30701,-0.1228 0.47016,-0.38196 0.47017,-0.75038 0.0118,-0.0877 0.0336,-0.18027 0.0336,-0.26799 -1e-5,-0.0877 -0.01,-0.18028 -0.0336,-0.268 -0.0236,-0.10526 -0.10704,-0.18027 -0.2015,-0.26799 l -5.54131,-15.16845 c -0.0236,-0.0702 -0.15504,-0.1257 -0.40301,-0.1608 -0.24798,-0.0351 -0.56432,-0.0536 -0.90676,-0.0536 z m -91.817894,1.28637 h 3.123286 c 0.118077,2e-5 0.229557,0.0555 0.335837,0.1608 0.106268,0.0877 0.134329,0.23581 0.134335,0.42879 -8e-6,0.10527 -0.01994,0.25336 -0.06717,0.42879 l -1.108263,2.49234 c -0.177129,0.43861 -0.42999,0.64319 -0.772426,0.64319 -0.330646,0 -0.615243,-0.20458 -0.839593,-0.64319 l -1.209014,-2.30475 c -0.05904,-0.17542 -0.06718,-0.29671 -0.06717,-0.40199 0,-0.21051 0.03986,-0.40487 0.134335,-0.56278 0.106275,-0.15789 0.205941,-0.24118 0.335837,-0.2412 z m 19.982315,0 h 3.089702 c 0.118077,2e-5 0.229553,0.0555 0.335837,0.1608 0.106268,0.0877 0.167908,0.23581 0.167919,0.42879 -9e-6,0.10527 -0.01994,0.25336 -0.06717,0.42879 l -1.108263,2.49234 c -0.177134,0.43861 -0.463573,0.64319 -0.80601,0.64319 -0.330642,0 -0.58165,-0.20458 -0.806009,-0.64319 l -1.209014,-2.30475 c -0.05905,-0.17542 -0.100753,-0.29671 -0.100751,-0.40199 -4e-6,-0.21051 0.03986,-0.40487 0.134335,-0.56278 0.106272,-0.15789 0.239521,-0.24118 0.369421,-0.2412 z m 56.622159,0.0268 h 0.83959 c 0.54318,2e-5 0.806,0.34247 0.80601,0.99158 -1e-5,0.29826 -0.0698,0.62317 -0.23509,0.99157 -0.16532,0.36844 -0.36834,0.65633 -0.6045,0.88438 -0.10629,0.193 -0.23954,0.29481 -0.36942,0.2948 -0.0827,1e-5 -0.15244,-0.037 -0.23509,-0.1072 -0.0709,-0.0702 -0.1325,-0.13495 -0.16792,-0.1876 -0.24798,-0.22805 -0.47278,-0.50669 -0.63809,-0.85758 -0.16532,-0.3684 -0.23509,-0.70257 -0.23509,-1.01837 0,-0.28069 0.0598,-0.52133 0.20151,-0.69679 0.14169,-0.19296 0.36649,-0.29477 0.63809,-0.29479 z m -92.858992,0.134 c 0.495953,10e-6 0.840345,0.33321 1.041095,0.96478 0.200739,0.63159 0.302243,1.3462 0.302253,2.17075 -10e-6,0.66667 -0.143222,1.26 -0.403004,1.76876 -0.247982,0.50878 -0.580574,0.75039 -1.041096,0.75038 -0.956485,1e-5 -1.4441,-0.77014 -1.4441,-2.33155 0,-1.03507 0.109628,-1.83298 0.369421,-2.41194 0.259782,-0.59648 0.667666,-0.91117 1.175431,-0.91118 z m 89.937202,0.13399 c 0.41329,0.193 0.71598,0.55494 0.94035,1.09878 0.23616,0.54387 0.36941,1.10942 0.36942,1.68836 -1e-5,0.42106 -0.0598,0.76448 -0.2015,1.04518 -0.14171,0.28071 -0.3547,0.4288 -0.6381,0.42879 -0.4251,10e-6 -0.83114,-0.23235 -1.20901,-0.72359 -0.37787,-0.50876 -0.57092,-1.02804 -0.57092,-1.55436 0,-0.71929 0.1015,-1.22931 0.30225,-1.52757 0.20074,-0.29823 0.53517,-0.45557 1.00751,-0.45559 z m 6.68316,0 c 0.47233,2e-5 0.80675,0.15736 1.00752,0.45559 0.20072,0.29826 0.30224,0.80828 0.30225,1.52757 -1e-5,0.33335 -0.0915,0.67677 -0.26867,1.04517 -0.17714,0.35089 -0.42187,0.63878 -0.70526,0.88438 -0.2716,0.22809 -0.53443,0.34841 -0.80601,0.3484 -0.29522,10e-6 -0.51818,-0.13883 -0.67167,-0.40199 -0.14171,-0.28069 -0.20152,-0.63337 -0.20151,-1.07198 -1e-5,-0.56139 0.0997,-1.12695 0.33584,-1.68836 0.24797,-0.56139 0.5942,-0.92332 1.00751,-1.09878 z m -45.170103,0.0536 c 0.377863,2e-5 0.682391,0.20364 0.906761,0.58959 0.236159,0.38598 0.369412,0.96175 0.36942,1.76876 v 0.134 c -8e-6,0.42106 -0.07346,0.85704 -0.167918,1.31317 -0.08267,0.43861 -0.204111,0.84584 -0.369421,1.17917 -0.153518,0.3158 -0.303021,0.47411 -0.503756,0.50919 -0.28341,1e-5 -0.579815,-0.36193 -0.839593,-1.09878 -0.259793,-0.73683 -0.369425,-1.45973 -0.369421,-2.14395 -6e-6,-0.61402 0.07973,-1.11575 0.26867,-1.55436 0.188927,-0.45612 0.421851,-0.69677 0.705258,-0.69679 z m -43.860338,0.268 c 0.22435,1e-5 0.415557,0.12959 0.604507,0.37519 0.200728,0.24563 0.385659,0.57979 0.503756,1.01837 0.118075,0.42107 0.167897,0.88481 0.167918,1.39357 -10e-6,0.82458 -0.133271,1.5197 -0.369421,2.06356 -0.236182,0.52632 -0.570611,0.77719 -1.007511,0.77718 -0.436922,1e-5 -0.781324,-0.29714 -1.041096,-0.91118 -0.247993,-0.61403 -0.369431,-1.28139 -0.369421,-1.98316 -10e-6,-0.73682 0.143212,-1.38568 0.403005,-1.92955 0.271582,-0.54384 0.635909,-0.80397 1.108263,-0.80398 z m 55.480306,1.98315 c 0.16531,1e-5 0.288595,0.0288 0.335837,0.134 l 1.141847,3.29632 c 0.177117,0.40352 0.268661,0.74695 0.268669,1.04518 -9e-6,0.26316 -0.09155,0.402 -0.268669,0.40199 h -2.921784 c -0.153516,1e-5 -0.235092,-0.12957 -0.235086,-0.37519 -7e-6,-0.21052 0.05167,-0.40585 0.134335,-0.61639 l 1.209014,-3.75191 c 0.05903,-0.10525 0.170512,-0.13399 0.335837,-0.134 z m 44.968605,0 c 0.16531,1e-5 0.25501,0.0288 0.30225,0.134 l 1.14185,3.29632 c 0.17712,0.40352 0.26866,0.74695 0.26867,1.04518 -1e-5,0.26316 -0.0915,0.402 -0.26867,0.40199 h -2.92178 c -0.15352,1e-5 -0.2351,-0.12957 -0.23509,-0.37519 -1e-5,-0.21052 0.0517,-0.40585 0.13433,-0.61639 l 1.2426,-3.75191 c 0.059,-0.10525 0.17051,-0.13399 0.33584,-0.134 z m -91.784314,3.96631 c 0.141696,0.0877 0.294881,0.20902 0.436588,0.40199 0.141697,0.17545 0.311131,0.45311 0.570924,0.80398 0.271593,0.33334 0.47461,0.57495 0.604507,0.75039 0.413289,-0.5614 0.727786,-0.96036 0.940344,-1.20598 0.212545,-0.2456 0.44731,-0.42242 0.671674,-0.56278 0.31882,0.26316 0.591608,0.68989 0.839593,1.28637 0.247969,0.57895 0.391186,1.16301 0.403005,1.74196 -9e-6,0.49123 -0.103365,1.01976 -0.26867,1.58116 -0.165326,0.56141 -0.38828,1.05389 -0.671674,1.52757 -0.271603,0.47368 -0.564323,0.87167 -0.906761,1.15237 -0.342446,0.26316 -0.676886,0.37519 -1.007511,0.37519 -0.448722,0 -0.906438,-0.2231 -1.343349,-0.69678 -0.436922,-0.47369 -0.791276,-1.08552 -1.074676,-1.82236 -0.271593,-0.73684 -0.403005,-1.43294 -0.403005,-2.11715 0.03542,-0.54385 0.178644,-1.13717 0.403005,-1.76876 0.224357,-0.63158 0.48717,-1.11383 0.806006,-1.44717 z m 19.948731,0 c 0.141696,0.0877 0.29488,0.20902 0.436588,0.40199 0.141697,0.17545 0.344718,0.45311 0.604507,0.80398 0.271589,0.33334 0.474605,0.57495 0.604507,0.75039 0.41329,-0.5614 0.727783,-0.96036 0.940345,-1.20598 0.212544,-0.2456 0.413722,-0.42242 0.63809,-0.56278 0.31882,0.26316 0.625189,0.68989 0.873177,1.28637 0.247968,0.57895 0.357606,1.16301 0.369421,1.74196 -8e-6,0.49123 -0.06978,1.01976 -0.235086,1.58116 -0.165326,0.56141 -0.388276,1.05389 -0.671674,1.52757 -0.271603,0.47368 -0.59791,0.87167 -0.940345,1.15237 -0.342451,0.26316 -0.67688,0.37519 -1.007511,0.37519 -0.448727,0 -0.872856,-0.2231 -1.309765,-0.69678 -0.436918,-0.47369 -0.791283,-1.08552 -1.07468,-1.82236 -0.271597,-0.73684 -0.436594,-1.43294 -0.436588,-2.11715 0.03542,-0.54385 0.178644,-1.13717 0.403005,-1.76876 0.224356,-0.63158 0.487181,-1.11383 0.806009,-1.44717 z m 57.058743,0.96478 c 0.0827,1e-5 0.14245,0.0555 0.2015,0.16079 0.0709,0.0877 0.1443,0.22656 0.16792,0.402 l 1.34335,4.42189 c 0.0354,0.1579 0.0336,0.29771 0.0336,0.45559 -1e-5,0.24562 -0.0399,0.4585 -0.13433,0.61639 -0.0945,0.14035 -0.20595,0.2144 -0.33584,0.2144 h -2.55236 c -0.10628,0 -0.22957,-0.074 -0.33584,-0.2144 -0.0945,-0.15789 -0.13434,-0.37077 -0.13433,-0.61639 -1e-5,-0.1228 0.0199,-0.2626 0.0672,-0.45559 l 1.30976,-4.3415 c 0.0945,-0.42104 0.21591,-0.64317 0.36942,-0.64318 z m -18.303127,0.58959 c 0.484142,0 0.816728,0.18608 1.041095,0.58958 0.236164,0.38597 0.369415,1.0811 0.369421,2.06355 v 0.1072 c -5e-6,0.73685 -0.101513,1.3857 -0.302254,1.92956 -0.200747,0.52631 -0.546985,0.77718 -1.007511,0.77718 -0.33064,0 -0.635169,-0.27863 -0.906761,-0.85758 -0.271597,-0.57894 -0.403007,-1.25557 -0.403004,-2.00995 -4e-6,-0.73684 0.111472,-1.35793 0.335837,-1.84916 0.236166,-0.50877 0.542537,-0.75038 0.873177,-0.75038 z m 7.623505,0.0536 c 0.425092,1e-5 0.779457,0.19534 1.074679,0.61639 0.295198,0.40352 0.436573,1.00609 0.436588,1.79556 -1.3e-5,1.00001 -0.109647,1.7794 -0.369421,2.35834 -0.259798,0.57896 -0.625968,0.88438 -1.074679,0.88438 -0.531391,0 -0.905689,-0.35171 -1.141846,-1.01837 -0.23618,-0.66667 -0.369433,-1.54787 -0.369421,-2.65314 0.0118,-0.49122 0.153175,-0.94572 0.436588,-1.36677 0.2952,-0.42105 0.641438,-0.61638 1.007512,-0.61639 z m -21.527166,0.2144 h 0.604507 c 0.200737,0.0526 0.352081,0.18318 0.470172,0.42879 0.118077,0.24562 0.167912,0.50477 0.167918,0.75038 v 3.10873 c -7e-6,0.19298 -0.06978,0.36981 -0.235086,0.56279 -0.153517,0.19298 -0.378309,0.29479 -0.63809,0.29479 h -1.209014 c -0.259791,0 -0.431067,-0.009 -0.53734,-0.0268 -0.09447,-0.0175 -0.187857,-0.0638 -0.235086,-0.13399 -0.03543,-0.0702 -0.03359,-0.1905 -0.03358,-0.3484 -4e-6,-0.28069 0.01809,-0.56858 0.100751,-0.88438 l 0.772426,-2.43874 c 0.271589,-0.87719 0.512633,-1.31316 0.772426,-1.31317 z m 3.459123,0 h 0.604507 c 0.2952,1e-5 0.567988,0.50174 0.839593,1.55436 l 0.772426,2.25115 c 0.02361,0.12282 0.03357,0.34592 0.03358,0.69679 -1.1e-5,0.42105 -0.27464,0.64318 -0.806009,0.64318 h -1.209014 c -0.271604,0 -0.506365,-0.10181 -0.671674,-0.29479 -0.153519,-0.19298 -0.201511,-0.36981 -0.201503,-0.56279 v -0.0536 -3.05513 c -8e-6,-0.22806 0.04982,-0.47796 0.167919,-0.72358 0.118075,-0.26315 0.281226,-0.40295 0.470172,-0.45559 z m 41.475895,0 h 0.60451 c 0.20074,0.0526 0.35209,0.18318 0.47017,0.42879 0.11808,0.24562 0.16791,0.50477 0.16792,0.75038 v 3.10873 c -1e-5,0.19298 -0.0698,0.36981 -0.23509,0.56279 -0.15351,0.19298 -0.34472,0.29479 -0.6045,0.29479 h -1.2426 c -0.25979,0 -0.43107,-0.009 -0.53734,-0.0268 -0.0945,-0.0175 -0.18785,-0.0638 -0.23509,-0.13399 -0.0354,-0.0702 -0.0336,-0.1905 -0.0336,-0.3484 0,-0.28069 0.0517,-0.56858 0.13433,-0.88438 l 0.73885,-2.43874 c 0.27159,-0.87719 0.51263,-1.31316 0.77242,-1.31317 z m 3.45913,0 h 0.6045 c 0.29521,1e-5 0.56799,0.50174 0.8396,1.55436 l 0.77242,2.25115 c 0.0236,0.12282 0.0336,0.34592 0.0336,0.69679 -1e-5,0.42105 -0.27464,0.64318 -0.806,0.64318 h -1.20902 c -0.2716,0 -0.47278,-0.10181 -0.63809,-0.29479 -0.15352,-0.19298 -0.2351,-0.36981 -0.23509,-0.56279 v -0.0536 -3.05513 c -1e-5,-0.22806 0.0834,-0.47796 0.20151,-0.72358 0.11807,-0.26315 0.24765,-0.40295 0.43659,-0.45559 z"
   style="font-style:normal;font-weight:normal;font-size:12.1355px;line-height:125%;font-family:'Bitstream Vera Sans';fill:#000000;fill-opacity:1;stroke:none;stroke-width:1px;stroke-linecap:butt;stroke-linejoin:miter;stroke-opacity:1" /></g></svg>
