<?xml version="1.0" encoding="UTF-8" standalone="no"?>
<svg
   xmlns:dc="http://purl.org/dc/elements/1.1/"
   xmlns:cc="http://creativecommons.org/ns#"
   xmlns:rdf="http://www.w3.org/1999/02/22-rdf-syntax-ns#"
   xmlns:svg="http://www.w3.org/2000/svg"
   xmlns="http://www.w3.org/2000/svg"
   xml:space="preserve"
   enable-background="new 0 0 135 155"
   viewBox="0 0 59.141022 27.000448"
   height="27.000448"
   width="59.141022"
   y="0px"
   x="0px"
   id="svg3857"
   version="1.1"><metadata
     id="metadata698"><rdf:RDF><cc:Work
         rdf:about=""><dc:format>image/svg+xml</dc:format><dc:type
           rdf:resource="http://purl.org/dc/dcmitype/StillImage" /></cc:Work></rdf:RDF></metadata><defs
     id="defs3" /><path
     id="Wikipedia"
     d="m 57.179503,12.348126 c 1.150122,1.378583 1.803961,2.544467 1.96152,3.497651 -7e-6,0.141799 -7e-6,0.29935 0,0.472656 -7e-6,2.111195 -0.102415,3.403118 -0.307226,3.875775 -0.898052,1.922129 -1.764585,3.257379 -2.599605,4.005755 -1.772461,1.441593 -3.151039,2.375086 -4.135737,2.800485 0.04727,-0.590827 0.196941,-1.378586 0.449024,-2.363278 2.142701,-1.079236 3.706402,-2.847752 4.691105,-5.305559 0.07089,-0.496288 0.0039,-0.850779 -0.200878,-1.063475 l -0.354492,0.03545 c -0.236331,0.09453 -0.504169,0.141797 -0.803515,0.141797 -0.456903,0 -0.937436,-0.114226 -1.441598,-0.342677 0.03938,-0.90592 0.385999,-1.890619 1.039842,-2.954096 l 1.70156,-2.800484 m -0.685351,2.434175 c -0.56719,0.756253 -0.850784,1.260419 -0.85078,1.512498 -4e-6,0.204821 0.41357,0.291474 1.240722,0.259962 0.196934,-0.196938 0.295404,-0.401755 0.295409,-0.614453 -5e-6,-0.299345 -0.228456,-0.685348 -0.685351,-1.158007 m -16.294799,2.1624 c 0.905921,-0.07877 1.721251,-0.397816 2.445992,-0.957127 -0.133922,-0.362366 -0.567189,-1.051655 -1.299802,-2.067868 -0.669596,-0.929551 -1.106802,-1.693676 -1.31162,-2.29238 0.01575,-0.66171 0.248144,-1.41008 0.697167,-2.2451137 0.51992,-1.1028523 0.835024,-1.8315288 0.945312,-2.1860319 1.031962,-0.2441934 2.591723,-0.8547061 4.679289,-1.8315401 2.268738,-1.0319501 3.690643,-1.8669741 4.265716,-2.5050743 0.173297,1.59e-5 0.25995,0.094547 0.259961,0.2835933 -1.1e-5,0.2363432 -0.157563,0.6656716 -0.472655,1.2879862 l -0.602636,1.2052716 c -1.016219,0.5908322 -1.866997,1.0437933 -2.55234,1.3588848 -0.898052,0.4569117 -2.843815,1.323446 -5.837297,2.5996054 0.362368,1.2446677 0.917738,2.3435907 1.666112,3.2967727 1.158002,1.512502 1.926065,2.402669 2.304195,2.670504 -0.02364,0.307229 -0.110292,0.909863 -0.25996,1.807907 -1.221031,0.693228 -2.410547,1.205272 -3.56855,1.53613 h -1.796091 v -1.96152 h 0.437207 M 36.276313,14.1324 c 0.803511,-0.118158 1.221022,-0.09059 1.252536,0.08272 0.133915,0.543558 0.319038,1.118621 0.555371,1.725193 0.244201,0.606577 0.484466,0.941374 0.720799,1.004393 h 1.134373 v 1.96152 h -1.063474 c -0.09454,0 -0.342682,-0.09847 -0.744433,-0.29541 -0.582945,-0.307225 -0.949254,-0.618389 -1.098924,-0.933495 l -0.200879,0.224512 c -0.03151,0.149675 -0.248148,0.366308 -0.649901,0.649902 -0.354494,0.236328 -0.547495,0.354491 -0.579004,0.354491 h -2.032419 v -1.96152 h 1.465232 c 0.189061,2e-6 0.602635,-0.937431 1.240723,-2.812301 m 1.985153,6.215421 c -5e-6,-2e-6 0.484466,0.488409 1.453414,1.465232 l -1.512497,1.583395 -1.370701,-1.453414 1.429784,-1.595213 m -3.190426,-0.01181 c -2e-6,-2e-6 0.48447,0.488407 1.453416,1.465232 l -1.512497,1.583395 -1.370701,-1.453416 1.429782,-1.595211 M 29.989994,14.1324 c 0.803511,-0.118158 1.221023,-0.09059 1.252536,0.08272 0.133915,0.543558 0.319038,1.118621 0.555371,1.725193 0.244201,0.606577 0.484466,0.941374 0.720799,1.004393 h 1.134373 v 1.96152 h -1.063474 c -0.09454,0 -0.342681,-0.09847 -0.744432,-0.29541 -0.582946,-0.307225 -0.949254,-0.618389 -1.098924,-0.933495 l -0.20088,0.224512 c -0.03151,0.149675 -0.248147,0.366308 -0.6499,0.649902 -0.354494,0.236328 -0.547496,0.354491 -0.579004,0.354491 H 27.28404 v -1.96152 h 1.465232 c 0.18906,2e-6 0.602634,-0.937431 1.240722,-2.812301 m 0.401756,8.389636 c -3e-6,-3e-6 0.484468,0.488406 1.453417,1.465232 l -1.512498,1.583396 -1.370701,-1.453415 1.429782,-1.595213 m 1.618845,-2.623239 c -3e-6,0 0.484468,0.488409 1.453416,1.465232 l -1.512497,1.583397 -1.370701,-1.453416 1.429782,-1.595213 m -3.190424,-0.01181 c -2e-6,0 0.48447,0.488409 1.453416,1.465232 l -1.512497,1.583397 -1.370701,-1.453416 1.429782,-1.595213 M 23.798207,14.13241 c 0.803511,-0.118158 1.221022,-0.09059 1.252536,0.08272 0.133915,0.543558 0.319038,1.118621 0.55537,1.725193 0.244202,0.606577 0.484467,0.941374 0.7208,1.004393 h 1.134373 v 1.961519 h -1.063474 c -0.09454,0 -0.342682,-0.09847 -0.744433,-0.295409 -0.582945,-0.307225 -0.949254,-0.61839 -1.098924,-0.933495 l -0.20088,0.224512 c -0.03151,0.149675 -0.248147,0.366308 -0.6499,0.649901 -0.354494,0.236328 -0.547495,0.354491 -0.579004,0.354491 h -2.032418 v -1.961519 h 1.465232 c 0.189061,1e-6 0.602634,-0.937431 1.240722,-2.812302 m 1.985153,6.215421 c -5e-6,-1e-6 0.484466,0.48841 1.453414,1.465233 l -1.512497,1.583395 -1.370702,-1.453415 1.429785,-1.595213 m -3.190426,-0.01181 c -1e-6,-1e-6 0.48447,0.488408 1.453416,1.465232 l -1.512498,1.583396 -1.370701,-1.453417 1.429783,-1.595211 M 16.223901,0 h 0.03545 c 0.378118,0.41753087 0.567181,0.95714535 0.567187,1.6188451 -6e-6,0.1733242 -0.01182,0.4293457 -0.03545,0.7680653 -0.02364,0.330875 -0.03546,0.5711413 -0.03545,0.7207996 -7e-6,0.4332831 0.0512,0.811407 0.153613,1.1343733 0.244198,-0.1890472 0.53173,-0.4608239 0.862596,-0.8153307 0.181177,-0.1732914 0.326912,-0.2599449 0.437206,-0.2599605 0.06301,1.56e-5 0.512036,0.2363432 1.347069,0.7089833 -0.196949,0.9059372 -0.799584,1.4810007 -1.807908,1.7251926 -0.315111,0.118177 -0.901991,0.2442183 -1.760642,0.3781245 -1.228908,-0.2520699 -1.84336,-0.5317241 -1.843356,-0.8389637 -4e-6,-0.023619 0.0039,-0.043313 0.01182,-0.059082 0.102404,0.031524 0.594754,0.047279 1.477048,0.047265 0.110281,-0.08664 0.165424,-0.4253758 0.16543,-1.0162094 -6e-6,-0.6380695 -0.0039,-1.2682764 -0.01182,-1.8906221 C 15.786688,1.5912902 15.735484,1.197411 15.63308,1.0398415 16.20814,0.60659292 16.40508,0.2599792 16.223901,0 m 1.524314,4.2066342 c -0.307233,0.3860163 -0.535683,0.6696093 -0.68535,0.85078 0.551424,-0.1339051 0.964997,-0.2835792 1.24072,-0.4490228 -0.165437,-0.165415 -0.35056,-0.2993339 -0.55537,-0.4017572 m -0.827147,3.5212837 c 0.181178,-0.015743 0.429322,0.4805437 0.744432,1.488865 0.299341,0.9925851 0.705037,2.7138371 1.217088,5.1637621 0.393871,1.25254 0.937424,2.107257 1.630662,2.564156 h 1.063475 v 1.96152 h -1.051659 c -0.661727,0 -1.228913,-0.334797 -1.70156,-1.004393 -0.196948,-0.267836 -0.484479,-0.846839 -0.862596,-1.73701 -0.645969,1.244662 -1.161951,1.90244 -1.547947,1.973338 -0.370252,0.07878 -1.42191,0.397819 -3.154976,0.957127 -0.92168,0.267838 -1.63854,0.697167 -2.150582,1.287987 -0.126042,-0.141798 -0.189063,-0.342676 -0.189062,-0.602636 -10e-7,-0.189064 0.03939,-0.4569 0.118163,-0.803514 0.110286,-0.417512 0.173307,-0.693228 0.189063,-0.827148 0.953187,-0.803513 1.898497,-1.264351 2.835933,-1.382517 1.764575,-0.275713 2.902886,-0.630204 3.414936,-1.063474 0.03938,-1.260412 -0.48054,-3.245562 -1.559763,-5.9554608 L 16.921068,7.7279179 M 5.6246007,18.906221 H 4.2184504 v -1.96152 H 5.695499 c 0.330857,2e-6 0.7444302,-0.252081 1.2407208,-0.756249 -0.2599631,-0.401755 -0.3899432,-0.645959 -0.3899409,-0.732617 -2.3e-6,-0.976816 0.2126925,-1.693676 0.638085,-2.150582 0.228447,-0.01575 0.3466107,-0.0079 0.3544917,0.02363 0.2048138,0.63809 0.6262646,1.410093 1.2643534,2.316011 -0.5671905,2.174218 -1.6267256,3.261324 -3.1786083,3.261324 m 3.2849559,1.287987 c -4.7e-6,-2e-6 0.4844668,0.488409 1.4534154,1.465232 l -1.5124974,1.583395 -1.370701,-1.453416 1.429783,-1.595211 m -3.1904248,-0.01181 c -1.6e-6,0 0.4844699,0.488409 1.4534157,1.465232 L 5.6600498,23.231023 4.2893487,21.777607 5.7191318,20.182394 m -1.3825176,-3.23769 v 1.96152 H 3.9939391 c -1.2998058,0 -2.1505849,-0.185123 -2.5523399,-0.555369 -0.75624986,-0.732615 -1.13437394,-1.796089 -1.13437327,-3.190426 -6.7e-7,-0.57506 -6.7e-7,-1.58339 0,-3.024995 -6.7e-7,-1.441591 -6.7e-7,-2.560208 0,-3.3558542 C 0.30722526,5.8097406 0.20481672,4.0727333 -1.680553e-7,3.5685526 L 1.7842744,2.2569334 c 0.3151013,0.7956528 0.5081021,2.004862 0.5790031,3.6276313 0.118161,1.630673 0.1417938,2.8123107 0.070898,3.5449165 -0.047268,0.7326248 -0.066962,1.8669968 -0.059082,3.4031198 0.039385,1.788218 0.1299775,2.851692 0.271777,3.190424 0.1733038,0.441149 0.342672,0.689292 0.5081046,0.744433 0.4096309,0.118166 0.6892852,0.177248 0.8389637,0.177246 h 0.3426751"
     style="font-style:normal;font-variant:normal;font-weight:normal;font-stretch:normal;font-size:144px;font-family:'Linux Libertine O';-inkscape-font-specification:'Linux Libertine O';fill:#000000;fill-opacity:1;stroke:none;stroke-width:0.168055px;stroke-linecap:butt;stroke-linejoin:miter;stroke-opacity:1" /></svg>
