<?xml version="1.0" encoding="UTF-8" standalone="no"?>
<svg
   xmlns:dc="http://purl.org/dc/elements/1.1/"
   xmlns:cc="http://creativecommons.org/ns#"
   xmlns:rdf="http://www.w3.org/1999/02/22-rdf-syntax-ns#"
   xmlns:svg="http://www.w3.org/2000/svg"
   xmlns="http://www.w3.org/2000/svg"
   xml:space="preserve"
   enable-background="new 0 0 135 155"
   viewBox="0 0 128.9715 20.468"
   height="20.468"
   width="128.9715"
   y="0px"
   x="0px"
   id="svg3857"
   version="1.1"><metadata
     id="metadata714"><rdf:RDF><cc:Work
         rdf:about=""><dc:format>image/svg+xml</dc:format><dc:type
           rdf:resource="http://purl.org/dc/dcmitype/StillImage" /></cc:Work></rdf:RDF></metadata><defs
     id="defs3" /><g
     transform="translate(-2.4645,-115.123)"
     id="Wikipedia">
		<path
   d="m 9.441,115.123 c 5.021,0 5.804,2.382 5.804,4.218 0,1.487 -1.212,2.895 -2.564,3.59 v 0.055 c 2.349,0.686 4.157,2.19 4.157,4.822 0,2.354 -1.431,5.096 -6.802,5.096 -2.402,0 -2.78,-0.057 -3.941,-0.057 -1.376,0 -2.186,0.028 -3.509,0.057 -0.162,-0.165 -0.162,-0.741 0,-0.906 1.89,-0.081 2.348,-0.218 2.348,-2.491 V 118.52 c 0,-2.273 -0.458,-2.411 -2.348,-2.493 -0.162,-0.163 -0.162,-0.739 0,-0.903 1.35,0.026 2.132,0.055 3.482,0.055 1.16,-0.001 2.428,-0.056 3.373,-0.056 z m -2.213,7.698 h 1.998 c 2.24,0 3.833,-0.823 3.833,-3.148 0,-2.796 -1.971,-3.617 -3.482,-3.617 -2.349,0 -2.349,0.272 -2.349,1.177 z m 0,7.34 c 0,0.905 0.351,1.836 2.241,1.836 4.103,0 4.858,-1.669 4.858,-3.671 0,-2.464 -1.539,-4.574 -5.236,-4.574 H 7.228 Z"
   id="path696" />
		<path
   d="m 31.819,132.245 c 0.121,0.114 0.121,0.525 0,0.642 -1.013,-0.02 -1.6,-0.04 -2.612,-0.04 -1.033,0 -1.64,0.021 -2.632,0.04 -0.122,-0.116 -0.122,-0.527 0,-0.642 1.417,-0.06 1.762,-0.155 1.762,-1.771 v -6.925 c -0.152,0.049 -0.255,0.137 -0.354,0.252 l -5.53,6.615 c -0.237,0.291 -0.439,0.447 -0.579,0.909 0.144,0.804 0.595,0.873 1.705,0.92 0.122,0.116 0.122,0.525 0,0.642 -1.013,-0.021 -1.6,-0.04 -2.612,-0.04 -1.033,0 -1.64,0.021 -2.632,0.04 -0.121,-0.116 -0.121,-0.525 0,-0.642 1.417,-0.059 1.762,-0.155 1.762,-1.771 v -7.801 c 0,-1.613 -0.344,-1.713 -1.762,-1.771 -0.121,-0.115 -0.121,-0.525 0,-0.64 1.013,0.019 1.6,0.037 2.612,0.037 1.033,0 1.64,-0.02 2.632,-0.037 0.122,0.114 0.122,0.524 0,0.64 -1.417,0.059 -1.762,0.157 -1.762,1.771 v 6.924 c 0.093,-0.005 0.21,-0.071 0.358,-0.213 l 5.564,-6.653 c 0.229,-0.276 0.417,-0.629 0.534,-0.944 -0.15,-0.77 -0.605,-0.84 -1.699,-0.884 -0.122,-0.116 -0.122,-0.526 0,-0.642 1.013,0.02 1.6,0.039 2.612,0.039 1.032,0 1.64,-0.021 2.632,-0.039 0.121,0.115 0.121,0.525 0,0.642 -1.417,0.058 -1.762,0.155 -1.762,1.771 v 7.8 c 10e-4,1.616 0.345,1.714 1.763,1.771 z"
   id="path698" />
		<path
   d="m 33.175,132.477 c 0,-0.097 0.061,-0.154 0.142,-0.154 l 0.546,-0.037 c 0.851,-0.062 1.094,-0.274 1.094,-0.817 v -9.785 c 0,-0.584 -0.304,-0.759 -1.094,-0.818 l -0.526,-0.038 c -0.081,0 -0.162,-0.059 -0.162,-0.154 v -0.37 l 0.041,-0.037 c 1.013,0.019 1.62,0.037 2.632,0.037 1.013,0 1.6,-0.02 2.592,-0.037 l 0.041,0.037 v 0.37 c 0,0.098 -0.061,0.154 -0.162,0.154 l -0.526,0.038 c -0.81,0.062 -1.114,0.273 -1.114,0.818 v 4.045 c 0.729,0 1.64,-0.019 2.126,-0.291 1.194,-0.623 1.478,-1.867 1.66,-2.956 0.203,-1.204 0.77,-2.296 2.369,-2.296 1.073,0 1.438,0.563 1.438,1.011 0,0.564 -0.465,0.779 -0.891,0.779 -0.263,0 -0.547,-0.097 -0.75,-0.292 -0.223,-0.215 -0.385,-0.312 -0.648,-0.312 -0.607,0 -0.747,0.643 -0.85,1.205 -0.223,1.207 -0.648,2.878 -2.187,3.424 v 0.098 c 1.397,0 2.187,0.835 2.733,2.199 1.055,2.624 2.086,3.948 2.794,4.006 l 0.324,0.02 c 0.102,0 0.162,0.058 0.162,0.153 v 0.37 l -0.02,0.04 -1.6,-0.021 c -1.58,-0.02 -2.309,-1.596 -3.179,-3.735 -0.792,-1.943 -1.174,-2.586 -3.483,-2.586 v 4.922 c 0,0.581 0.304,0.755 1.114,0.817 l 0.526,0.036 c 0.081,0 0.162,0.06 0.162,0.155 v 0.371 l -0.041,0.039 c -0.972,-0.039 -1.559,-0.039 -2.571,-0.039 -1.013,0 -1.661,0 -2.653,0.039 l -0.041,-0.039 v -0.369 z"
   id="path700" />
		<path
   d="m 59.701,132.245 c 0.121,0.114 0.121,0.525 0,0.642 -1.012,-0.02 -1.6,-0.04 -2.611,-0.04 -1.033,0 -1.641,0.021 -2.632,0.04 -0.122,-0.116 -0.122,-0.527 0,-0.642 1.417,-0.06 1.762,-0.155 1.762,-1.771 v -6.925 c -0.151,0.049 -0.255,0.137 -0.354,0.252 l -5.529,6.615 c -0.237,0.291 -0.439,0.447 -0.579,0.909 0.144,0.804 0.595,0.873 1.705,0.92 0.122,0.116 0.122,0.525 0,0.642 -1.013,-0.021 -1.601,-0.04 -2.612,-0.04 -1.033,0 -1.64,0.021 -2.632,0.04 -0.122,-0.116 -0.122,-0.525 0,-0.642 1.417,-0.059 1.762,-0.155 1.762,-1.771 v -7.801 c 0,-1.613 -0.344,-1.713 -1.762,-1.771 -0.122,-0.115 -0.122,-0.525 0,-0.64 1.013,0.019 1.6,0.037 2.612,0.037 1.033,0 1.64,-0.02 2.632,-0.037 0.122,0.114 0.122,0.524 0,0.64 -1.417,0.059 -1.763,0.157 -1.763,1.771 v 6.924 c 0.094,-0.005 0.211,-0.071 0.359,-0.213 l 5.563,-6.653 c 0.229,-0.276 0.417,-0.629 0.534,-0.944 -0.15,-0.77 -0.605,-0.84 -1.699,-0.884 -0.122,-0.116 -0.122,-0.526 0,-0.642 1.013,0.02 1.6,0.039 2.611,0.039 1.033,0 1.641,-0.021 2.633,-0.039 0.121,0.115 0.121,0.525 0,0.642 -1.418,0.058 -1.762,0.155 -1.762,1.771 v 7.8 c 0,1.616 0.344,1.714 1.762,1.771 z"
   id="path702" />
		<path
   d="m 74.058,120.265 c 0.121,0.114 0.121,0.524 0,0.64 -1.418,0.059 -1.762,0.156 -1.762,1.771 v 7.801 c 0,1.615 0.344,1.712 1.762,1.771 0.121,0.116 0.121,0.525 0,0.642 -0.992,-0.021 -1.6,-0.04 -2.633,-0.04 -1.012,0 -1.6,0.021 -2.611,0.04 -0.121,-0.116 -0.121,-0.525 0,-0.642 1.417,-0.059 1.762,-0.155 1.762,-1.771 v -7.956 c 0,-1.205 -0.445,-1.438 -0.932,-1.438 h -3.989 c -0.485,0 -0.932,0.231 -0.932,1.438 v 7.956 c 0,1.615 0.344,1.712 1.762,1.771 0.123,0.116 0.123,0.525 0,0.642 -1.012,-0.021 -1.6,-0.04 -2.611,-0.04 -1.033,0 -1.641,0.021 -2.633,0.04 -0.121,-0.116 -0.121,-0.525 0,-0.642 1.418,-0.059 1.762,-0.155 1.762,-1.771 v -7.801 c 0,-1.613 -0.344,-1.713 -1.762,-1.771 -0.121,-0.115 -0.121,-0.525 0,-0.64 1.013,0.019 2.146,0.037 2.613,0.037 h 7.592 c 0.546,0 1.6,-0.02 2.612,-0.037 z"
   id="path704" />
		<path
   d="m 82.866,124.502 c 0.122,-0.116 0.547,-0.116 0.669,0 -0.021,0.586 -0.041,1.011 -0.041,1.674 0,0.66 0.021,1.029 0.041,1.713 -0.122,0.113 -0.547,0.113 -0.669,0 -0.061,-0.876 -0.121,-1.326 -1.842,-1.326 H 79.18 v 4.688 c 0,0.526 0.283,0.838 0.729,0.838 h 2.755 c 1.538,0 2.248,-1.149 2.651,-2.549 0.267,-0.063 0.498,-0.021 0.709,0.097 -0.162,0.992 -0.466,2.276 -0.749,3.249 0,0 -1.62,-0.04 -2.592,-0.04 h -4.354 c 0,0 -1.641,0.021 -2.633,0.04 -0.121,-0.116 -0.121,-0.526 0,-0.643 1.418,-0.058 1.762,-0.154 1.762,-1.77 v -7.801 c 0,-1.614 -0.344,-1.712 -1.762,-1.771 -0.121,-0.115 -0.121,-0.525 0,-0.64 1.014,0.019 2.612,0.037 2.612,0.037 h 5.163 c 0.486,0 0.648,-0.02 0.992,-0.078 0.062,0 0.08,0.021 0.08,0.06 0.041,0.155 0.346,2.021 0.445,2.818 -0.197,0.094 -0.417,0.134 -0.668,0.1 -0.445,-1.342 -0.77,-2.12 -2.288,-2.12 h -2.126 c -0.484,0 -0.729,0.388 -0.729,0.854 v 3.89 h 1.843 c 1.725,0.002 1.786,-0.249 1.846,-1.32 z"
   id="path706" />
		<path
   d="m 91.027,126.992 c 0.444,-2.217 0.688,-4.22 0.688,-5.446 0,-0.408 -0.183,-0.609 -0.709,-0.66 l -0.607,-0.06 c -0.102,0 -0.161,-0.038 -0.161,-0.117 v -0.407 l 0.04,-0.037 c 0,0 1.417,0.037 2.023,0.037 h 5.285 c 0.607,0 2.207,-0.037 2.207,-0.037 l 0.041,0.037 v 0.37 c 0,0.116 -0.08,0.148 -0.162,0.154 l -0.588,0.038 c -0.65,0.043 -0.748,0.292 -0.748,0.994 v 9.472 c 0,0.719 0.455,0.934 0.811,0.992 0.439,0.073 0.595,0.138 0.607,0.37 l 0.142,2.878 c -0.547,0 -0.547,0.021 -0.547,0.021 -0.243,-1.089 -0.972,-2.743 -2.593,-2.743 h -5.871 c -1.682,0 -2.207,1.732 -2.43,2.743 l -0.548,-0.021 0.142,-2.878 c 0.014,-0.232 0.226,-0.341 0.427,-0.37 0.396,-0.059 0.719,-0.106 1.012,-0.389 0.53,-0.506 0.892,-1.907 1.539,-4.941 z m 2.349,-5.913 c -0.545,0 -0.748,0.273 -0.789,0.759 -0.164,1.964 -0.485,3.986 -0.729,5.31 -0.445,2.275 -0.951,4.202 -0.951,4.609 0,0.233 0.264,0.332 0.547,0.332 h 4.434 c 0.486,0 0.729,-0.06 0.729,-0.779 v -9.474 c 0,-0.603 -0.122,-0.757 -0.749,-0.757 z"
   id="path708" />
		<path
   d="m 115.326,132.245 c 0.122,0.114 0.122,0.525 0,0.642 -1.013,-0.02 -1.6,-0.04 -2.612,-0.04 -1.031,0 -1.64,0.021 -2.631,0.04 -0.121,-0.116 -0.121,-0.527 0,-0.642 1.416,-0.06 1.762,-0.155 1.762,-1.771 v -6.925 c -0.152,0.049 -0.256,0.137 -0.354,0.252 l -5.53,6.615 c -0.235,0.291 -0.438,0.447 -0.578,0.909 0.145,0.804 0.596,0.873 1.705,0.92 0.121,0.116 0.121,0.525 0,0.642 -1.013,-0.021 -1.601,-0.04 -2.611,-0.04 -1.033,0 -1.641,0.021 -2.633,0.04 -0.121,-0.116 -0.121,-0.525 0,-0.642 1.418,-0.059 1.762,-0.155 1.762,-1.771 v -7.801 c 0,-1.613 -0.344,-1.713 -1.762,-1.771 -0.121,-0.115 -0.121,-0.525 0,-0.64 1.013,0.019 1.6,0.037 2.611,0.037 1.032,0 1.641,-0.02 2.633,-0.037 0.121,0.114 0.121,0.524 0,0.64 -1.418,0.059 -1.763,0.157 -1.763,1.771 v 6.924 c 0.095,-0.005 0.211,-0.071 0.358,-0.213 l 5.564,-6.653 c 0.229,-0.276 0.416,-0.629 0.534,-0.944 -0.149,-0.77 -0.604,-0.84 -1.698,-0.884 -0.121,-0.116 -0.121,-0.526 0,-0.642 1.012,0.02 1.6,0.039 2.611,0.039 1.032,0 1.641,-0.021 2.632,-0.039 0.122,0.115 0.122,0.525 0,0.642 -1.417,0.058 -1.762,0.155 -1.762,1.771 v 7.8 c 0,1.616 0.345,1.714 1.762,1.771 z"
   id="path710" />
		<path
   d="m 116.4,132.326 c 0,-0.137 0.081,-0.218 0.188,-0.218 l 0.242,-0.028 c 0.864,-0.108 2.203,-1.6 3.592,-5.261 0.674,-1.78 1.483,-2.466 2.213,-2.903 v -0.081 c -1.836,-0.274 -4.021,-1.644 -4.021,-4.439 0,-1.891 0.917,-4.246 5.938,-4.246 0.945,0 2.537,0.027 3.429,0.027 0.837,0 3.455,-0.027 3.455,-0.027 v 0.575 c 0,0.109 -0.054,0.189 -0.188,0.189 l -0.811,0.057 c -1.135,0.082 -1.432,0.275 -1.432,1.205 v 13.67 c 0,0.823 0.353,1.124 1.459,1.205 l 0.729,0.058 c 0.107,0 0.216,0.081 0.216,0.218 v 0.521 l -0.054,0.057 c 0,0 -2.35,-0.057 -3.401,-0.057 -0.972,0 -3.481,0.057 -3.481,0.057 l -0.055,-0.057 v -0.521 c 0,-0.137 0.082,-0.218 0.217,-0.218 l 0.701,-0.058 c 1.135,-0.086 1.484,-0.437 1.484,-1.205 v -6.875 c -2.861,0 -3.4,0.794 -4.534,3.7 -1.161,2.971 -2.159,5.174 -4.075,5.204 l -1.781,0.025 -0.027,-0.055 z m 8.314,-9.395 h 2.105 v -5.834 c 0,-0.907 -0.107,-0.988 -2.456,-0.988 -1.512,0 -3.563,0.438 -3.563,2.985 0,2.904 1.674,3.837 3.914,3.837 z"
   id="path712" />
	</g></svg>
