<?xml version="1.0" encoding="UTF-8" standalone="no"?>
<svg
   xmlns:dc="http://purl.org/dc/elements/1.1/"
   xmlns:cc="http://creativecommons.org/ns#"
   xmlns:rdf="http://www.w3.org/1999/02/22-rdf-syntax-ns#"
   xmlns:svg="http://www.w3.org/2000/svg"
   xmlns="http://www.w3.org/2000/svg"
   xml:space="preserve"
   enable-background="new 0 0 135 155"
   viewBox="0 0 66.968666 17.499571"
   height="17.499571"
   width="66.968666"
   y="0px"
   x="0px"
   id="svg3857"
   version="1.1"><metadata
     id="metadata698"><rdf:RDF><cc:Work
         rdf:about=""><dc:format>image/svg+xml</dc:format><dc:type
           rdf:resource="http://purl.org/dc/dcmitype/StillImage" /></cc:Work></rdf:RDF></metadata><defs
     id="defs3" /><path
     id="Wikipedia"
     d="m 2.3604082,14.162435 c -0.3858676,1.5e-5 -0.5787998,0.192938 -0.5787974,0.578798 -2.4e-6,0.385874 0.1929298,0.578812 0.5787974,0.578797 0.3858615,1.5e-5 0.5787939,-0.192923 0.5787975,-0.578797 -3.6e-6,-0.38586 -0.192936,-0.578783 -0.5787975,-0.578798 M 0.55166638,9.9842519 C 0.79885954,7.9042 2.3121721,6.864174 5.0916086,6.864174 c 3.014561,0 4.5218445,0.8953302 4.5218548,2.6859762 v 5.2815248 c -1.03e-5,1.766539 -1.4409733,2.649802 -4.3228931,2.649802 -1.5434643,0 -2.7583348,-0.235123 -3.6446151,-0.705399 -0.88025587,-0.476302 -1.32038269,-1.145542 -1.32038155,-2.007704 -1.14e-6,-1.266117 0.69033475,-1.899182 2.07100955,-1.899182 1.3324354,0 1.9986546,0.648139 1.9986598,1.944403 -5.2e-6,0.36778 -0.2080104,0.77172 -0.624016,1.211849 0.1507238,0.0483 0.657171,0.07238 1.5193433,0.07238 1.7243262,0 2.5864923,-0.651145 2.5865008,-1.953436 v -4.08776 C 7.8770626,8.8266855 6.948576,8.2117142 5.0916086,8.2117142 c -1.7786003,0 -2.7402471,0.6421125 -2.8849433,1.9263088 L 0.55166638,9.9842804 M 1.7183048,3.0296643 c 9.3e-6,1.1274618 0.8832775,1.6911855 2.649807,1.6911713 V 5.8603505 C 1.4560469,5.8603505 1.111291e-5,4.8987134 0,2.9753963 1.111291e-5,1.0581485 1.6580229,0.09951754 4.9740404,0.09950329 8.0850794,0.09951754 9.6405959,1.0581485 9.6405945,2.9753963 9.6405959,4.8987134 8.2870554,5.8603505 5.579969,5.8603505 V 4.7208356 C 7.1294617,4.7208498 7.9102345,4.1571261 7.9222897,3.0296643 7.9222928,1.8419364 6.9395439,1.2480653 4.9740404,1.2480511 2.8035582,1.2480653 1.7183141,1.8419364 1.7183048,3.0296643 M 14.26193,15.066841 c -0.379839,0 -0.569756,0.192937 -0.569754,0.578798 -2e-6,0.38586 0.189915,0.578797 0.569754,0.578797 0.391891,0 0.587837,-0.192937 0.587841,-0.578797 -4e-6,-0.385861 -0.19595,-0.578798 -0.587841,-0.578798 m 0,-7.0088697 c -0.379839,0 -0.569756,0.1929372 -0.569754,0.5787974 -2e-6,0.3858745 0.189915,0.5787974 0.569754,0.5787974 0.391891,0 0.587837,-0.1929229 0.587841,-0.5787974 -4e-6,-0.3858602 -0.19595,-0.5787974 -0.587841,-0.5787974 m 2.251884,7.5153197 c -6e-6,1.235969 -0.750633,1.853961 -2.251884,1.853961 -1.386704,0 -2.080054,-0.605925 -2.080053,-1.817787 -10e-7,-1.254064 0.889296,-1.881088 2.667894,-1.881088 v -3.328089 c -0.259256,0.0483 -0.455203,0.07238 -0.587841,0.07238 -1.386704,1.5e-5 -2.080054,-0.6511308 -2.080053,-1.9534357 -10e-7,-1.1033268 0.693349,-1.6549973 2.080053,-1.6549973 1.012891,0 1.651979,0.2441849 1.917267,0.7325403 0.458209,-0.4883554 1.257069,-0.7325403 2.396583,-0.7325403 2.44782,0 3.671734,0.9706985 3.671746,2.912067 v 7.461066 h -1.664043 v -7.46107 c -9e-6,-1.0249381 -0.681302,-1.5374142 -2.043878,-1.5374284 -0.825999,1.42e-5 -1.501262,0.428075 -2.025791,1.2842107 V 15.573319 M 14.144362,2.930218 c 9e-6,1.1274618 0.883277,1.6911855 2.649807,1.6911713 V 5.76089 C 13.882104,5.7609042 12.426068,4.7992528 12.426057,2.87595 12.426068,0.95870223 14.08408,7.1236605e-5 17.400097,5.6989284e-5 20.511136,7.1236605e-5 22.066653,0.95870223 22.066652,2.87595 c 10e-7,1.9233028 -1.35354,2.8849542 -4.060626,2.88494 V 4.6213893 c 1.549493,1.42e-5 2.330265,-0.5637095 2.342321,-1.6911713 3e-6,-1.1877279 -0.982746,-1.781599 -2.94825,-1.7816132 -2.170482,1.42e-5 -3.255726,0.5938853 -3.255735,1.7816132 m 12.489363,5.4623944 c -0.217053,1.42e-5 -0.367781,0.048298 -0.452186,0.1446958 -0.08442,0.096454 -0.126616,0.2411786 -0.126616,0.4341016 -3e-6,0.2230846 0.04823,0.3768274 0.1447,0.4612285 0.09647,0.07836 0.241162,0.1175404 0.434097,0.1175404 0.223075,1.43e-5 0.373803,-0.05129 0.452186,-0.1537428 0.0844,-0.1024383 0.126616,-0.2441706 0.126616,-0.4250546 -3e-6,-0.2230703 -0.04824,-0.3737927 -0.144699,-0.4521815 -0.09647,-0.084344 -0.24117,-0.1266586 -0.434098,-0.1266586 m 0.87724,7.6419348 c 0.988774,0 1.483163,-0.503429 1.483167,-1.510301 V 11.73871 h 1.664043 v 2.794512 c -7e-6,1.018926 0.488353,1.528381 1.465082,1.528381 0.934506,0 1.401764,-0.512476 1.401774,-1.537428 V 7.1535514 h 1.664043 v 7.3706236 c -1.1e-5,1.911235 -1.034008,2.86686 -3.101992,2.86686 -0.892321,0 -1.645962,-0.223084 -2.260927,-0.669239 -0.621008,0.446155 -1.474131,0.669239 -2.559371,0.669239 -1.941384,0 -2.912075,-0.955625 -2.912074,-2.86686 -1e-6,-1.446986 0.461227,-2.670903 1.383687,-3.671748 -0.825992,-0.223071 -1.238988,-0.810915 -1.238988,-1.7635195 0,-1.4952136 0.69335,-2.2428276 2.080053,-2.2428418 1.422873,1.42e-5 2.13431,0.6632128 2.134316,1.9896241 -6e-6,0.8259885 -0.699385,2.0559312 -2.09814,3.6898282 -0.397927,0.464249 -0.596888,1.130468 -0.596885,1.998657 -3e-6,1.006872 0.4974,1.510301 1.492212,1.510301 M 26.850774,3.0748426 c 9e-6,1.1274617 0.883277,1.6911855 2.649807,1.6911712 v 1.1395008 c -2.912065,1.42e-5 -4.368101,-0.961623 -4.368112,-2.8849401 1.1e-5,-1.9172477 1.658023,-2.87587871 4.97404,-2.87589296 3.111039,1.425e-5 4.666556,0.95864526 4.666555,2.87589296 1e-6,0.7174809 -0.186902,1.2992987 -0.560711,1.7454393 H 36.12962 V 5.9055146 H 30.712438 V 4.7660138 c 1.555522,1.43e-5 2.336295,-0.5637095 2.342321,-1.6911712 0.006,-1.1877279 -0.976717,-1.781599 -2.94825,-1.7816133 -2.170482,1.43e-5 -3.255726,0.5938854 -3.255735,1.7816133 m 15.21152,12.6973694 c -0.006,0.675266 -0.211026,1.130453 -0.614973,1.365591 -0.403957,0.241165 -1.073191,0.361754 -2.007704,0.361754 -1.459052,0 -2.188578,-0.982752 -2.188576,-2.948255 V 8.9261176 c -2e-6,-1.3746385 0.699378,-2.0619578 2.09814,-2.0619578 1.22994,0 2.164456,0.2230845 2.803549,0.6692252 L 41.51967,8.600552 C 41.037334,8.3292403 40.386188,8.1935916 39.56623,8.1935773 c -0.434101,1.43e-5 -0.651151,0.2381582 -0.651148,0.7144604 v 6.6471163 c 0.06632,-0.307472 0.217047,-0.599898 0.452186,-0.877236 0.241163,-0.283365 0.605924,-0.425055 1.094289,-0.425055 1.073181,0 1.606759,0.50645 1.600737,1.519349 m -1.627868,0.642098 c 0.217044,0 0.364759,-0.0483 0.443142,-0.144696 0.0844,-0.09645 0.129622,-0.241164 0.135649,-0.434101 -6e-6,-0.217044 -0.05125,-0.367781 -0.153745,-0.452182 -0.09647,-0.08434 -0.238155,-0.126659 -0.425053,-0.126659 -0.223083,0 -0.376826,0.0483 -0.46123,0.144696 -0.07837,0.09646 -0.117569,0.241179 -0.117569,0.434102 -0.006,0.217058 0.03918,0.36778 0.135649,0.452181 0.102495,0.08434 0.250206,0.126659 0.443143,0.126659 m 6.466252,-1.302291 c -0.385869,0 -0.5788,0.192938 -0.578797,0.578798 -3e-6,0.38586 0.192928,0.578797 0.578797,0.578797 0.38586,0 0.578793,-0.192937 0.578798,-0.578797 -5e-6,-0.38586 -0.192938,-0.578798 -0.578798,-0.578798 m 5.489531,2.125273 v -7.225927 c -8e-6,-1.193755 -0.985772,-1.7906465 -2.957292,-1.7906608 -1.995651,1.43e-5 -2.993472,0.5969058 -2.993469,1.7906608 v 3.906886 c 1.694183,0 2.541278,0.59085 2.541283,1.772566 -5e-6,1.205822 -0.693355,1.80874 -2.080053,1.80874 -1.41685,0 -2.125274,-0.602918 -2.125271,-1.80874 V 9.7762267 c -3e-6,-1.2299285 0.431081,-2.0227634 1.293249,-2.3784905 0.868193,-0.3557128 1.989611,-0.5335764 3.364261,-0.5335764 1.290228,0 2.381501,0.1778636 3.273822,0.5335764 0.898332,0.3557271 1.347502,1.148562 1.347513,2.3784905 v 7.4610653 h -1.664043 m 7.50628,-8.2930803 c 0.217043,0 0.367773,-0.048298 0.452186,-0.1447101 0.0844,-0.096454 0.126601,-0.2411501 0.126615,-0.4340873 -5e-6,-0.2170437 -0.05125,-0.36476 -0.153742,-0.4431487 -0.09647,-0.084344 -0.238156,-0.1296506 -0.425055,-0.1356345 -0.223083,-0.0057 -0.376826,0.042172 -0.46123,0.1446958 -0.07837,0.096454 -0.117569,0.2411786 -0.117569,0.4341016 -4e-6,0.2170579 0.04823,0.3677803 0.144699,0.4521815 0.09647,0.084344 0.241161,0.1266587 0.434099,0.1266587 m -3.355217,5.5709163 c 0,-0.862163 0.497402,-1.552488 1.492213,-2.071005 -1.000839,-0.657172 -1.498243,-1.691171 -1.492213,-3.1019979 0.006,-1.8147525 1.106345,-2.7191297 3.300954,-2.7131031 1.326406,0.0057 1.98961,0.5607176 1.989616,1.6640443 -6e-6,1.1937688 -0.666225,1.7966867 -1.99866,1.8087397 -0.777763,0.0057 -1.329427,-0.4009334 -1.654999,-1.2209094 0.01211,1.1395154 0.289396,1.9233024 0.832023,2.3513634 0.391889,0.313527 1.021934,0.434116 1.890135,0.361754 v 1.456033 l -1.275164,0.208011 c -0.886286,0.144696 -1.329428,0.554677 -1.329425,1.229943 -3e-6,1.012899 1.190751,1.537428 3.572265,1.573602 2.291065,0.03619 3.436599,-1.290223 3.436609,-3.979234 V 6.8822966 h 1.664043 v 5.2001294 c -1.1e-5,3.545147 -1.700227,5.314693 -5.100652,5.308666 -3.551166,-0.0057 -5.326745,-0.964658 -5.326745,-2.875907"
     style="font-style:normal;font-variant:normal;font-weight:normal;font-stretch:normal;font-size:13px;font-family:Sans;-inkscape-font-specification:Sans;fill:#000000;fill-opacity:1;stroke:none;stroke-width:1.42473px;stroke-linecap:butt;stroke-linejoin:miter;stroke-opacity:1" /></svg>
