<?xml version="1.0" encoding="UTF-8" standalone="no"?>
<svg
   xmlns:dc="http://purl.org/dc/elements/1.1/"
   xmlns:cc="http://creativecommons.org/ns#"
   xmlns:rdf="http://www.w3.org/1999/02/22-rdf-syntax-ns#"
   xmlns:svg="http://www.w3.org/2000/svg"
   xmlns="http://www.w3.org/2000/svg"
   x="0px"
   y="0px"
   version="1.1"
   width="118.86"
   viewBox="4.94 11.473 118.86 17.445196"
   height="17.445196"
   xml:space="preserve"
   enable-background="new 4.94 11.473 125 125"
   id="svg3857"><metadata
     id="metadata679"><rdf:RDF><cc:Work
         rdf:about=""><dc:format>image/svg+xml</dc:format><dc:type
           rdf:resource="http://purl.org/dc/dcmitype/StillImage" /><dc:title /></cc:Work></rdf:RDF></metadata><defs
     id="defs3"><radialGradient
       r="68.686996"
       gradientTransform="matrix(1,0,0,-1,-213.76,-386.5)"
       cx="244.57001"
       cy="-427.14001"
       gradientUnits="userSpaceOnUse"
       id="SVGID_1_"><stop
         offset="0"
         stop-color="#FFF"
         id="stop7" /><stop
         offset=".4835"
         stop-color="#EAEAEB"
         id="stop9" /><stop
         offset=".9451"
         stop-color="#A9ABAE"
         id="stop11" /><stop
         offset="1"
         stop-color="#999B9E"
         id="stop13" /></radialGradient><linearGradient
       x1="456.26999"
       y1="510.16"
       gradientTransform="translate(-406.16,-500.32)"
       x2="502.78"
       gradientUnits="userSpaceOnUse"
       y2="582.90997"
       id="SVGID_3_"><stop
         offset="0"
         stop-color="#8A8A8A"
         id="stop29" /><stop
         offset=".5687"
         stop-color="#606060"
         id="stop31-3" /><stop
         offset=".5914"
         stop-color="#FFF"
         id="stop33-6" /><stop
         offset=".6116"
         stop-color="#585858"
         id="stop35-7" /><stop
         offset="1"
         stop-color="#303030"
         id="stop37-5" /></linearGradient><linearGradient
       x1="425.29001"
       y1="502.95001"
       gradientTransform="translate(-406.16,-500.32)"
       x2="445.79001"
       gradientUnits="userSpaceOnUse"
       y2="598.65997"
       id="SVGID_4_"><stop
         offset="0"
         stop-color="#A8A9AB"
         id="stop42-3" /><stop
         offset="1"
         stop-color="#636668"
         id="stop44-5" /></linearGradient><linearGradient
       x1="421.07001"
       y1="504.37"
       gradientTransform="translate(-406.16,-500.32)"
       x2="441.07001"
       gradientUnits="userSpaceOnUse"
       y2="597.73999"
       id="SVGID_5_"><stop
         offset="0"
         stop-color="#A8A9AB"
         id="stop49" /><stop
         offset="1"
         stop-color="#636668"
         id="stop51" /></linearGradient><linearGradient
       x1="444.76001"
       y1="550.81"
       gradientTransform="translate(-406.16,-500.32)"
       x2="473.84"
       gradientUnits="userSpaceOnUse"
       y2="550.81"
       id="SVGID_6_"><stop
         offset="0"
         stop-color="#231F20"
         id="stop56" /><stop
         offset="1"
         stop-color="#474747"
         id="stop58" /></linearGradient><linearGradient
       x1="266.48999"
       y1="-395.28"
       gradientTransform="matrix(1,0,0,-1,-213.76,-386.5)"
       x2="295.95999"
       gradientUnits="userSpaceOnUse"
       y2="-485.03"
       id="SVGID_7_"><stop
         offset="0"
         stop-color="#FFF"
         id="stop83" /><stop
         offset=".0094"
         stop-color="#FCFCFC"
         id="stop85" /><stop
         offset=".0655"
         stop-color="#EEEEEE"
         id="stop87" /><stop
         offset=".1342"
         stop-color="#E5E5E5"
         id="stop89" /><stop
         offset=".2515"
         stop-color="#E3E3E3"
         id="stop91" /><stop
         offset=".3357"
         stop-color="#8A8A8A"
         id="stop93" /><stop
         offset=".4422"
         stop-color="#B8B8B8"
         id="stop95" /><stop
         offset="1"
         stop-color="#3B3B3B"
         id="stop97" /></linearGradient><linearGradient
       x1="460.45999"
       y1="512.56"
       gradientTransform="translate(-406.16,-500.32)"
       x2="509.59"
       gradientUnits="userSpaceOnUse"
       y2="573.31"
       id="SVGID_8_"><stop
         offset="0"
         stop-color="#EFF0F0"
         id="stop102" /><stop
         offset=".5914"
         stop-color="#F0F1F2"
         id="stop104-6" /><stop
         offset=".599"
         stop-color="#787878"
         id="stop106-2" /><stop
         offset=".6456"
         stop-color="#EEEFF0"
         id="stop108-9" /><stop
         offset="1"
         stop-color="#D8D9DB"
         id="stop110-1" /></linearGradient><linearGradient
       x1="272.87"
       y1="-392.82999"
       gradientTransform="matrix(1,0,0,-1,-213.76,-386.5)"
       x2="302.47"
       gradientUnits="userSpaceOnUse"
       y2="-482.95999"
       id="SVGID_9_"><stop
         offset="0"
         stop-color="#FFF"
         id="stop115" /><stop
         offset="1"
         stop-color="#E4E5E6"
         id="stop117" /></linearGradient><linearGradient
       x1="444.69"
       y1="510.95999"
       gradientTransform="translate(-406.16,-500.32)"
       x2="469.72"
       gradientUnits="userSpaceOnUse"
       y2="592.07001"
       id="SVGID_10_"><stop
         offset="0"
         stop-color="#FFF"
         id="stop122-2" /><stop
         offset=".7473"
         stop-color="#F9F9F9"
         id="stop124-7" /><stop
         offset="1"
         stop-color="#D5D7D8"
         id="stop126-0" /></linearGradient><linearGradient
       x1="274.53"
       y1="-396.16"
       gradientTransform="matrix(1,0,0,-1,-213.76,-386.5)"
       x2="255.21001"
       gradientUnits="userSpaceOnUse"
       y2="-490.19"
       id="SVGID_13_"><stop
         offset="0"
         stop-color="#FFF"
         id="stop157" /><stop
         offset="1"
         stop-color="#E4E5E6"
         id="stop159" /></linearGradient><linearGradient
       x1="422.56"
       y1="518.76001"
       gradientTransform="translate(-406.16,-500.32)"
       x2="427.29001"
       gradientUnits="userSpaceOnUse"
       y2="578.17999"
       id="SVGID_14_"><stop
         offset=".2198"
         stop-color="#989A9C"
         id="stop164-9" /><stop
         offset=".2527"
         stop-color="#FFF"
         id="stop166-3" /></linearGradient><linearGradient
       x1="237.37"
       y1="-388.35999"
       gradientTransform="matrix(1,0,0,-1,-213.76,-386.5)"
       x2="218.85001"
       gradientUnits="userSpaceOnUse"
       y2="-478.5"
       id="SVGID_15_"><stop
         offset="0"
         stop-color="#FFF"
         id="stop171" /><stop
         offset="1"
         stop-color="#E4E5E6"
         id="stop173" /></linearGradient><linearGradient
       x1="259.91"
       y1="-479.34"
       gradientTransform="matrix(1,0,0,-1,-213.76,-386.5)"
       x2="259.89999"
       gradientUnits="userSpaceOnUse"
       y2="-479.38"
       id="SVGID_16_"><stop
         offset="0"
         stop-color="#FFF"
         id="stop178-6" /><stop
         offset="1"
         stop-color="#E4E5E6"
         id="stop180" /></linearGradient><linearGradient
       x1="268.89999"
       y1="-394.64001"
       gradientTransform="matrix(1,0,0,-1,-213.76,-386.5)"
       x2="249.5"
       gradientUnits="userSpaceOnUse"
       y2="-489.07001"
       id="SVGID_17_"><stop
         offset="0"
         stop-color="#FFF"
         id="stop189" /><stop
         offset="1"
         stop-color="#E4E5E6"
         id="stop191" /></linearGradient><linearGradient
       x1="254.46001"
       y1="-391.60001"
       gradientTransform="matrix(1,0,0,-1,-213.76,-386.5)"
       x2="235.03"
       gradientUnits="userSpaceOnUse"
       y2="-486.10999"
       id="SVGID_18_"><stop
         offset="0"
         stop-color="#FFF"
         id="stop196" /><stop
         offset="1"
         stop-color="#E4E5E6"
         id="stop198" /></linearGradient><linearGradient
       x1="262.64999"
       y1="-392.97"
       gradientTransform="matrix(1,0,0,-1,-213.76,-386.5)"
       x2="243.16"
       gradientUnits="userSpaceOnUse"
       y2="-487.84"
       id="SVGID_19_"><stop
         offset="0"
         stop-color="#FFF"
         id="stop203" /><stop
         offset="1"
         stop-color="#E4E5E6"
         id="stop205" /></linearGradient><linearGradient
       x1="271.54999"
       y1="-390.95999"
       gradientTransform="matrix(1,0,0,-1,-213.76,-386.5)"
       x2="251.19"
       gradientUnits="userSpaceOnUse"
       y2="-490.01999"
       id="SVGID_20_"><stop
         offset="0"
         stop-color="#FFF"
         id="stop210" /><stop
         offset="1"
         stop-color="#E4E5E6"
         id="stop212" /></linearGradient><linearGradient
       x1="274.66"
       y1="-395.84"
       gradientTransform="matrix(1,0,0,-1,-213.76,-386.5)"
       x2="255.25999"
       gradientUnits="userSpaceOnUse"
       y2="-490.26001"
       id="SVGID_21_"><stop
         offset="0"
         stop-color="#FFF"
         id="stop217-0" /><stop
         offset="1"
         stop-color="#E4E5E6"
         id="stop219-6" /></linearGradient><linearGradient
       x1="221.17999"
       y1="-454.56"
       gradientTransform="matrix(1,0,0,-1,-213.76,-386.5)"
       x2="221.37"
       gradientUnits="userSpaceOnUse"
       y2="-454.56"
       id="SVGID_22_"><stop
         offset="0"
         stop-color="#808080"
         id="stop248" /><stop
         offset=".0868"
         stop-color="#7A7A7A"
         id="stop250" /><stop
         offset=".36"
         stop-color="#6B6B6B"
         id="stop252" /><stop
         offset=".5192"
         stop-color="#686868"
         id="stop254" /><stop
         offset=".6377"
         stop-color="#5F5F5F"
         id="stop256" /><stop
         offset=".7431"
         stop-color="#4E4E4E"
         id="stop258" /><stop
         offset=".8408"
         stop-color="#383838"
         id="stop260" /><stop
         offset=".9324"
         stop-color="#1B1B1B"
         id="stop262" /><stop
         offset="1"
         id="stop264" /></linearGradient><linearGradient
       x1="221.39999"
       y1="-449.79999"
       gradientTransform="matrix(1,0,0,-1,-213.76,-386.5)"
       x2="316.03"
       gradientUnits="userSpaceOnUse"
       y2="-449.79999"
       id="SVGID_23_"><stop
         offset="0"
         stop-color="#808080"
         id="stop269" /><stop
         offset=".0868"
         stop-color="#7A7A7A"
         id="stop271" /><stop
         offset=".3817"
         stop-color="#828282"
         id="stop273" /><stop
         offset=".5185"
         stop-color="#808080"
         id="stop275" /><stop
         offset=".5677"
         stop-color="#797979"
         id="stop277" /><stop
         offset=".6027"
         stop-color="#6E6E6E"
         id="stop279" /><stop
         offset=".608"
         stop-color="#6B6B6B"
         id="stop281" /><stop
         offset="1"
         stop-color="#4E4E4E"
         id="stop283" /></linearGradient><linearGradient
       x1="214.59"
       y1="-431.35999"
       gradientTransform="matrix(1,0,0,-1,-213.76,-386.5)"
       x2="314.39999"
       gradientUnits="userSpaceOnUse"
       y2="-431.35999"
       id="SVGID_24_"><stop
         offset="0"
         stop-color="#555555"
         id="stop288" /><stop
         offset="1"
         stop-color="#231F20"
         id="stop290-2" /></linearGradient><linearGradient
       x1="214.89999"
       y1="-410.88"
       gradientTransform="matrix(1,0,0,-1,-213.76,-386.5)"
       x2="306.5"
       gradientUnits="userSpaceOnUse"
       y2="-410.88"
       id="SVGID_25_"><stop
         offset="0"
         stop-color="#A0A0A0"
         id="stop295" /><stop
         offset=".0769"
         stop-color="#656767"
         id="stop297" /><stop
         offset="1"
         stop-color="#717375"
         id="stop299" /></linearGradient><linearGradient
       x1="217.66"
       y1="-436.75"
       gradientTransform="matrix(1,0,0,-1,-213.76,-386.5)"
       x2="217.66"
       gradientUnits="userSpaceOnUse"
       y2="-436.75"
       id="SVGID_26_"><stop
         offset="0"
         stop-color="#FFF"
         id="stop314-6" /><stop
         offset=".078"
         stop-color="#F4F4F4"
         id="stop316-1" /><stop
         offset=".3807"
         stop-color="#CECECE"
         id="stop318-8" /><stop
         offset=".5396"
         stop-color="#BFBFBF"
         id="stop320-7" /><stop
         offset=".8357"
         stop-color="#7C7C7C"
         id="stop322-9" /><stop
         offset=".8996"
         stop-color="#A8A8A8"
         id="stop324-2" /><stop
         offset=".9093"
         stop-color="#9A9A9A"
         id="stop326-0" /><stop
         offset=".9327"
         stop-color="#7D7D7D"
         id="stop328-2" /><stop
         offset=".9558"
         stop-color="#686868"
         id="stop330-3" /><stop
         offset=".9785"
         stop-color="#5B5B5B"
         id="stop332-7" /><stop
         offset="1"
         stop-color="#575757"
         id="stop334-5" /></linearGradient><linearGradient
       x1="214.33"
       y1="-436.51001"
       gradientTransform="matrix(1,0,0,-1,-213.76,-386.5)"
       x2="322.87"
       gradientUnits="userSpaceOnUse"
       y2="-424.48999"
       id="SVGID_27_"><stop
         offset="0"
         stop-color="#FFF"
         id="stop339" /><stop
         offset=".078"
         stop-color="#F4F4F4"
         id="stop341" /><stop
         offset=".3807"
         stop-color="#CECECE"
         id="stop343" /><stop
         offset=".5396"
         stop-color="#BFBFBF"
         id="stop345" /><stop
         offset=".8357"
         stop-color="#7C7C7C"
         id="stop347" /><stop
         offset=".8996"
         stop-color="#A8A8A8"
         id="stop349" /><stop
         offset=".9093"
         stop-color="#9A9A9A"
         id="stop351-9" /><stop
         offset=".9327"
         stop-color="#7D7D7D"
         id="stop353-2" /><stop
         offset=".9558"
         stop-color="#686868"
         id="stop355" /><stop
         offset=".9785"
         stop-color="#5B5B5B"
         id="stop357" /><stop
         offset="1"
         stop-color="#575757"
         id="stop359" /></linearGradient><linearGradient
       x1="213.89"
       y1="-436.48001"
       gradientTransform="matrix(1,0,0,-1,-213.76,-386.5)"
       x2="336.88"
       gradientUnits="userSpaceOnUse"
       y2="-422.85001"
       id="SVGID_28_"><stop
         offset="0"
         stop-color="#FFF"
         id="stop364" /><stop
         offset=".078"
         stop-color="#F4F4F4"
         id="stop366" /><stop
         offset=".3807"
         stop-color="#CECECE"
         id="stop368" /><stop
         offset=".5396"
         stop-color="#BFBFBF"
         id="stop370" /><stop
         offset=".8357"
         stop-color="#7C7C7C"
         id="stop372" /><stop
         offset=".8996"
         stop-color="#A8A8A8"
         id="stop374" /><stop
         offset=".9093"
         stop-color="#9A9A9A"
         id="stop376" /><stop
         offset=".9327"
         stop-color="#7D7D7D"
         id="stop378" /><stop
         offset=".9558"
         stop-color="#686868"
         id="stop380" /><stop
         offset=".9785"
         stop-color="#5B5B5B"
         id="stop382" /><stop
         offset="1"
         stop-color="#575757"
         id="stop384" /></linearGradient><linearGradient
       x1="411.25"
       y1="557"
       gradientTransform="translate(-406.16,-500.32)"
       x2="507.23999"
       gradientUnits="userSpaceOnUse"
       y2="537.63"
       id="SVGID_29_"><stop
         offset="0"
         stop-color="#EDEDEE"
         id="stop389" /><stop
         offset=".4176"
         stop-color="#FFF"
         id="stop391" /><stop
         offset=".6264"
         stop-color="#F8F9F9"
         id="stop393" /><stop
         offset="1"
         stop-color="#BFC0C2"
         id="stop395" /></linearGradient><linearGradient
       x1="413.51001"
       y1="516.40997"
       gradientTransform="translate(-406.16,-500.32)"
       x2="418"
       gradientUnits="userSpaceOnUse"
       y2="516.40997"
       id="SVGID_30_"><stop
         offset="0"
         stop-color="#E2E3E4"
         id="stop406" /><stop
         offset=".5055"
         stop-color="#FFF"
         id="stop408" /></linearGradient><linearGradient
       x1="414.25"
       y1="568.27002"
       gradientTransform="translate(-406.16,-500.32)"
       x2="509.01001"
       gradientUnits="userSpaceOnUse"
       y2="545.72998"
       id="SVGID_31_"><stop
         offset="0"
         stop-color="#EDEDEE"
         id="stop763" /><stop
         offset=".4176"
         stop-color="#FFF"
         id="stop765" /><stop
         offset=".6264"
         stop-color="#F8F9F9"
         id="stop767" /><stop
         offset=".9505"
         stop-color="#B2B4B6"
         id="stop769" /></linearGradient><linearGradient
       x1="416.70001"
       y1="578.56"
       gradientTransform="translate(-406.16,-500.32)"
       x2="511.82001"
       gradientUnits="userSpaceOnUse"
       y2="555.94"
       id="SVGID_32_"><stop
         offset="0"
         stop-color="#EDEDEE"
         id="stop774" /><stop
         offset=".4176"
         stop-color="#FFF"
         id="stop776" /><stop
         offset=".6264"
         stop-color="#F8F9F9"
         id="stop778" /><stop
         offset=".9505"
         stop-color="#B2B4B6"
         id="stop780" /></linearGradient><linearGradient
       x1="415.47"
       y1="573.41998"
       gradientTransform="translate(-406.16,-500.32)"
       x2="510.59"
       gradientUnits="userSpaceOnUse"
       y2="550.79999"
       id="SVGID_33_"><stop
         offset="0"
         stop-color="#EDEDEE"
         id="stop785" /><stop
         offset=".4176"
         stop-color="#FFF"
         id="stop787" /><stop
         offset=".6264"
         stop-color="#F8F9F9"
         id="stop789" /><stop
         offset=".9505"
         stop-color="#B2B4B6"
         id="stop791" /></linearGradient><linearGradient
       x1="414.78"
       y1="570.47998"
       gradientTransform="translate(-406.16,-500.32)"
       x2="509.87"
       gradientUnits="userSpaceOnUse"
       y2="547.85999"
       id="SVGID_34_"><stop
         offset="0"
         stop-color="#EDEDEE"
         id="stop796" /><stop
         offset=".4176"
         stop-color="#FFF"
         id="stop798" /><stop
         offset=".6264"
         stop-color="#F8F9F9"
         id="stop800" /><stop
         offset=".9505"
         stop-color="#B2B4B6"
         id="stop802" /></linearGradient><linearGradient
       x1="414.92001"
       y1="571.07001"
       gradientTransform="translate(-406.16,-500.32)"
       x2="510.04001"
       gradientUnits="userSpaceOnUse"
       y2="548.44"
       id="SVGID_35_"><stop
         offset="0"
         stop-color="#EDEDEE"
         id="stop807" /><stop
         offset=".4176"
         stop-color="#FFF"
         id="stop809" /><stop
         offset=".6264"
         stop-color="#F8F9F9"
         id="stop811" /><stop
         offset=".9505"
         stop-color="#B2B4B6"
         id="stop813" /></linearGradient><linearGradient
       x1="416.10001"
       y1="576.07001"
       gradientTransform="translate(-406.16,-500.32)"
       x2="511.23001"
       gradientUnits="userSpaceOnUse"
       y2="553.44"
       id="SVGID_36_"><stop
         offset="0"
         stop-color="#EDEDEE"
         id="stop818" /><stop
         offset=".4176"
         stop-color="#FFF"
         id="stop820" /><stop
         offset=".6264"
         stop-color="#F8F9F9"
         id="stop822" /><stop
         offset=".9505"
         stop-color="#B2B4B6"
         id="stop824" /></linearGradient><linearGradient
       x1="412.62"
       y1="535.40002"
       gradientTransform="translate(-406.16,-500.32)"
       x2="501.59"
       gradientUnits="userSpaceOnUse"
       y2="514.88"
       id="SVGID_37_"><stop
         offset="0"
         stop-color="#FFF"
         id="stop831" /><stop
         offset=".6538"
         stop-color="#FFF"
         id="stop833" /><stop
         offset="1"
         stop-color="#CBCCCE"
         id="stop835" /></linearGradient><linearGradient
       x1="231.23"
       y1="-407.87"
       gradientTransform="matrix(1,0,0,-1,-213.76,-386.5)"
       x2="263.62"
       gradientUnits="userSpaceOnUse"
       y2="-407.87"
       id="SVGID_39_"><stop
         offset="0"
         stop-color="#696969"
         id="stop861" /><stop
         offset=".3702"
         stop-color="#2E2E2E"
         id="stop863" /><stop
         offset=".4554"
         stop-color="#424242"
         id="stop865" /><stop
         offset=".6014"
         stop-color="#303030"
         id="stop867" /><stop
         offset=".6947"
         stop-color="#4A4A4A"
         id="stop869" /><stop
         offset="1"
         stop-color="#666666"
         id="stop871" /></linearGradient><linearGradient
       x1="231.62"
       y1="-407.06"
       gradientTransform="matrix(1,0,0,-1,-213.76,-386.5)"
       x2="263.48999"
       gradientUnits="userSpaceOnUse"
       y2="-407.06"
       id="SVGID_40_"><stop
         offset="0"
         stop-color="#525252"
         id="stop876" /><stop
         offset=".1856"
         stop-color="#333333"
         id="stop878" /><stop
         offset=".354"
         stop-color="#AEAEAE"
         id="stop880" /><stop
         offset=".4199"
         stop-color="#ADADAD"
         id="stop882" /><stop
         offset=".4276"
         stop-color="#9D9D9D"
         id="stop884" /><stop
         offset=".4433"
         stop-color="#818181"
         id="stop886" /><stop
         offset=".4611"
         stop-color="#6A6A6A"
         id="stop888" /><stop
         offset=".4814"
         stop-color="#585858"
         id="stop890" /><stop
         offset=".506"
         stop-color="#4C4C4C"
         id="stop892" /><stop
         offset=".539"
         stop-color="#444444"
         id="stop894" /><stop
         offset=".6166"
         stop-color="#424242"
         id="stop896" /><stop
         offset=".6684"
         stop-color="#454545"
         id="stop898" /><stop
         offset="1"
         stop-color="#BDBDBD"
         id="stop900" /></linearGradient><linearGradient
       x1="236.92"
       y1="-417.32999"
       gradientTransform="matrix(1,0,0,-1,-213.76,-386.5)"
       x2="235.89"
       gradientUnits="userSpaceOnUse"
       y2="-410.53"
       id="SVGID_41_"><stop
         offset="0"
         stop-color="#969696"
         id="stop905" /><stop
         offset="1"
         id="stop907" /></linearGradient><linearGradient
       x1="428.78"
       y1="532.04999"
       gradientTransform="translate(-406.16,-500.32)"
       x2="429.53"
       gradientUnits="userSpaceOnUse"
       y2="524.46997"
       id="SVGID_42_"><stop
         offset="0"
         stop-color="#333333"
         id="stop916" /><stop
         offset=".431"
         id="stop918" /><stop
         offset="1"
         stop-color="#2E2E2E"
         id="stop920" /></linearGradient><radialGradient
       r="72.750999"
       gradientTransform="matrix(1,0,0,-1,-213.76,-386.5)"
       cx="251.81"
       cy="-408.35999"
       gradientUnits="userSpaceOnUse"
       id="SVGID_43_"><stop
         offset="0"
         stop-opacity="0"
         id="stop931" /><stop
         offset=".8022"
         stop-opacity=".08"
         id="stop933" /><stop
         offset="1"
         stop-opacity=".3882"
         id="stop935" /></radialGradient></defs><g
     transform="translate(-3.069,-103.804)"
     id="Wikipedia"><path
       d="m 18.757,118.89 c 0,0 -0.366,-0.746 -0.491,-0.994 -0.834,-1.649 -0.816,-1.737 -1.659,-1.853 -0.236,-0.03 -0.358,-0.061 -0.358,-0.178 v -0.522 l 0.071,-0.052 c 1.522,-0.002 4.912,-0.002 4.912,-0.002 l 0.13,0.043 v 0.521 c 0,0.119 -0.085,0.18 -0.258,0.18 l -0.356,0.051 c -0.899,0.07 -0.753,0.438 -0.155,1.629 l 5.678,11.615 0.193,0.053 5.04,-11.961 c 0.176,-0.481 0.148,-0.823 -0.077,-1.024 -0.226,-0.192 -0.385,-0.312 -0.969,-0.336 l -0.473,-0.021 c -0.059,0 -0.113,-0.021 -0.166,-0.062 -0.052,-0.037 -0.079,-0.086 -0.079,-0.145 v -0.498 l 0.072,-0.051 h 5.693 l 0.059,0.051 v 0.498 c 0,0.135 -0.077,0.203 -0.229,0.203 -0.746,0.032 -1.299,0.194 -1.657,0.483 -0.358,0.291 -0.639,0.688 -0.84,1.213 0,0 -4.635,10.606 -6.221,14.136 -0.607,1.155 -1.204,1.049 -1.729,-0.033 -1.109,-2.285 -4.232,-9.213 -4.232,-9.213 l -1.899,-3.74 z"
       id="path3898" /><path
       d="m 27.853,115.29 c 0,0 -3.203,-0.01 -4.629,0 l -0.071,0.051 v 0.496 c 0,0.062 0.026,0.109 0.078,0.146 0.053,0.039 0.106,0.059 0.165,0.059 l 0.229,0.025 c 0.583,0.021 0.852,0.178 0.932,0.271 0.139,0.17 0.208,0.354 -0.13,1.088 l -5.979,11.931 -0.157,-0.041 c 0,0 -4.283,-9.03 -5.522,-12.056 -0.129,-0.312 -0.188,-0.545 -0.188,-0.688 0,-0.307 0.277,-0.473 0.831,-0.494 l 0.646,-0.027 c 0.171,0 0.258,-0.065 0.258,-0.203 v -0.495 l -0.059,-0.052 c 0,0 -5.13,-0.006 -6.189,0 l -0.059,0.052 v 0.521 c 0,0.094 0.119,0.15 0.358,0.178 0.651,0.035 1.079,0.142 1.285,0.312 0.205,0.176 0.422,0.617 0.71,1.307 1.557,3.74 4.865,10.414 6.476,14.215 0.464,1.039 1.047,1.199 1.755,-0.03 1.227,-2.272 4.551,-9.22 4.551,-9.22 l 2.618,-4.896 c 0.305,-0.519 0.599,-0.979 0.747,-1.19 0.273,-0.396 0.427,-0.467 1.173,-0.502 0.151,0 0.229,-0.066 0.229,-0.205 v -0.496 l -0.058,-0.07 z"
       id="path3900" /><path
       d="m 37.592,130.77 c 0,0.571 0.261,0.91 1.093,0.987 l 0.546,0.054 c 0.078,0 0.156,0.051 0.156,0.155 v 0.546 l -0.026,0.053 c 0,0 -1.977,-0.053 -2.782,-0.053 -0.728,0 -2.756,0.053 -2.756,0.053 l -0.052,-0.053 v -0.546 c 0,-0.104 0.078,-0.155 0.182,-0.155 l 0.521,-0.054 c 0.857,-0.077 1.117,-0.493 1.117,-0.987 v -8.658 c 0,-0.567 -0.312,-0.729 -1.117,-0.805 l -0.521,-0.054 c -0.104,0 -0.182,-0.024 -0.182,-0.104 v -0.599 l 0.025,-0.053 c 0,0 2.055,0.053 2.86,0.053 0.702,0 2.704,-0.053 2.704,-0.053 l 0.026,0.053 v 0.572 c 0,0.078 -0.053,0.129 -0.156,0.129 l -0.546,0.054 c -0.807,0.077 -1.093,0.286 -1.093,0.807 v 8.66 z"
       id="path3904" /><path
       d="m 45.265,130.77 c 0,0.571 0.338,0.858 1.092,0.987 l 0.286,0.054 c 0.078,0.024 0.155,0.051 0.155,0.155 v 0.546 l -0.025,0.053 c 0,0 -1.639,-0.053 -2.418,-0.053 -0.729,0 -2.86,0.053 -2.86,0.053 l -0.052,-0.053 v -0.546 c 0,-0.104 0.078,-0.155 0.182,-0.155 l 0.521,-0.054 c 0.779,-0.077 1.118,-0.493 1.118,-0.987 v -8.658 c 0,-0.567 -0.286,-0.729 -1.118,-0.805 l -0.521,-0.054 c -0.104,0 -0.182,-0.024 -0.182,-0.104 v -0.599 l 0.026,-0.053 c 0,0 2.132,0.053 2.938,0.053 0.729,0 2.366,-0.053 2.366,-0.053 l 0.025,0.053 v 0.572 c 0,0.078 -0.052,0.104 -0.155,0.129 l -0.286,0.054 c -0.807,0.155 -1.092,0.286 -1.092,0.807 v 3.929 c 0.857,0 1.352,-0.438 2.496,-1.664 1.039,-1.146 1.846,-2.104 1.846,-2.603 0,-0.209 -0.234,-0.438 -0.754,-0.521 -0.104,-0.024 -0.156,-0.053 -0.156,-0.131 v -0.6 l 0.026,-0.023 c 0,0 2.105,0.051 2.859,0.051 0.676,0 1.82,-0.051 1.82,-0.051 l 0.078,0.023 v 0.6 c 0,0.078 -0.078,0.131 -0.208,0.131 -1.015,0.078 -1.716,0.129 -2.652,1.195 l -2.236,2.572 c -0.441,0.471 -0.598,0.754 -0.598,0.963 0,0.156 0.104,0.285 0.234,0.439 l 3.926,4.732 c 0.312,0.36 0.936,0.52 1.456,0.622 l 0.13,0.022 c 0.078,0.025 0.182,0.078 0.182,0.156 v 0.545 l -0.077,0.026 c 0,0 -1.379,-0.026 -2.106,-0.026 -0.65,0 -1.586,0.026 -1.586,0.026 l -0.026,-0.026 v -0.312 c 0,-0.338 -0.025,-0.623 -0.39,-1.037 l -2.886,-3.59 c -0.391,-0.521 -0.807,-0.647 -1.378,-0.647 v 3.86 z"
       id="path3906" /><path
       d="m 59.282,130.77 c 0,0.571 0.26,0.91 1.092,0.987 l 0.546,0.054 c 0.078,0 0.156,0.051 0.156,0.155 v 0.546 l -0.026,0.053 c 0,0 -1.976,-0.053 -2.781,-0.053 -0.729,0 -2.756,0.053 -2.756,0.053 l -0.053,-0.053 v -0.546 c 0,-0.104 0.078,-0.155 0.183,-0.155 l 0.52,-0.054 c 0.858,-0.077 1.118,-0.493 1.118,-0.987 v -8.658 c 0,-0.567 -0.312,-0.729 -1.118,-0.805 l -0.52,-0.054 c -0.104,0 -0.183,-0.024 -0.183,-0.104 v -0.599 l 0.026,-0.053 c 0,0 2.054,0.053 2.86,0.053 0.701,0 2.703,-0.053 2.703,-0.053 l 0.026,0.053 v 0.572 c 0,0.078 -0.052,0.129 -0.156,0.129 l -0.546,0.054 c -0.806,0.077 -1.092,0.286 -1.092,0.807 v 8.66 z"
       id="path3908" /><path
       d="m 64.9,122.16 c 0,-0.807 -0.338,-0.832 -1.561,-0.91 -0.155,0 -0.182,-0.078 -0.182,-0.131 v -0.598 l 0.052,-0.025 c 0.391,0 1.924,0.051 2.68,0.051 0.728,0 1.768,-0.051 2.729,-0.051 3.69,0 4.366,1.818 4.366,3.172 0,1.562 -0.754,4.004 -4.444,4.004 -0.648,0 -1.17,-0.053 -1.64,-0.26 v 3.482 c 0,0.568 0.312,0.703 1.146,0.832 l 0.521,0.078 c 0.104,0.023 0.185,0.053 0.185,0.152 v 0.547 l -0.021,0.055 c 0,0 -2.082,-0.055 -2.89,-0.055 -0.728,0 -2.678,0.055 -2.678,0.055 l -0.025,-0.055 v -0.547 c 0,-0.104 0.052,-0.129 0.155,-0.152 l 0.546,-0.078 c 0.807,-0.104 1.066,-0.338 1.066,-0.832 l -0.005,-8.73 z m 2.002,4.53 c 0.52,0.209 1.17,0.233 1.688,0.233 1.562,0 2.312,-0.938 2.312,-2.938 0,-2.236 -1.014,-2.73 -2.442,-2.73 -1.249,0 -1.562,0.234 -1.562,0.91 l 0.004,4.53 z"
       id="path3910" /><path
       d="m 77.462,132.51 c -0.779,0 -2.572,0.054 -2.572,0.054 l -0.027,-0.054 v -0.571 c 0,-0.051 0.027,-0.129 0.156,-0.129 l 0.602,-0.054 c 0.807,-0.077 1.041,-0.598 1.041,-1.116 v -8.58 c 0,-0.601 -0.312,-0.703 -1.041,-0.754 l -0.602,-0.054 c -0.156,-0.024 -0.156,-0.078 -0.156,-0.104 v -0.599 l 0.027,-0.053 c 0,0 2.026,0.053 2.807,0.053 h 3.822 c 0.779,0 2.627,-0.053 2.627,-0.053 l 0.056,0.053 c 0.022,1.117 0.204,2.134 0.39,3.121 l -0.646,0.104 c -0.285,-0.963 -0.779,-2.34 -2.443,-2.34 h -2.08 c -0.493,0 -0.754,0.182 -0.754,0.623 v 3.771 h 1.949 c 0.729,0 0.91,-0.312 1.015,-0.832 l 0.155,-0.547 c 0,-0.078 0.053,-0.131 0.156,-0.131 h 0.438 c 0.057,0 0.057,0.027 0.057,0.078 -0.057,0.568 -0.156,1.301 -0.156,1.926 0,0.648 0.104,1.195 0.156,1.793 l -0.057,0.053 h -0.438 c -0.129,0 -0.187,-0.053 -0.187,-0.131 l -0.13,-0.57 c -0.104,-0.521 -0.338,-0.807 -1.019,-0.807 H 78.66 v 3.979 c 0,0.49 0.283,0.984 0.754,0.984 h 2.47 c 1.326,0 2.057,-0.832 2.366,-2.188 l 0.648,0.078 -0.521,2.989 -0.052,0.052 c 0,0 -1.534,-0.052 -2.312,-0.052 l -4.551,0.01 z"
       id="path3912" /><path
       d="m 87.24,131.81 0.598,-0.054 c 0.781,-0.077 1.041,-0.311 1.041,-1.116 v -8.58 c 0,-0.679 -0.184,-0.679 -1.041,-0.754 l -0.569,-0.054 c -0.104,0 -0.185,-0.053 -0.185,-0.131 v -0.572 l 0.025,-0.051 c 0,0 2.289,0.051 2.758,0.051 0.492,0 2.756,-0.051 3.432,-0.051 4.343,0 6.476,2.703 6.476,6.162 0,4.551 -3.226,5.9 -6.107,5.9 -2.08,0 -2.988,-0.055 -3.795,-0.055 -0.781,0 -2.76,0.055 -2.76,0.055 l -0.023,-0.055 v -0.547 c -0.006,-0.08 0.047,-0.16 0.15,-0.16 z m 5.799,0 c 2.859,0 4.474,-1.062 4.474,-4.707 0,-2.703 -0.6,-5.851 -4.968,-5.851 -1.014,0 -1.664,0.156 -1.664,0.808 v 8.58 c 0,0.73 0.181,1.17 2.158,1.17 z"
       id="path3914" /><path
       d="m 105.91,130.77 c 0,0.571 0.26,0.91 1.092,0.987 l 0.546,0.054 c 0.078,0 0.156,0.051 0.156,0.155 v 0.546 l -0.025,0.053 c 0,0 -1.977,-0.053 -2.781,-0.053 -0.729,0 -2.756,0.053 -2.756,0.053 l -0.054,-0.053 v -0.546 c 0,-0.104 0.078,-0.155 0.183,-0.155 l 0.521,-0.054 c 0.857,-0.077 1.118,-0.493 1.118,-0.987 v -8.658 c 0,-0.567 -0.312,-0.729 -1.118,-0.805 l -0.521,-0.054 c -0.104,0 -0.183,-0.024 -0.183,-0.104 v -0.599 l 0.026,-0.053 c 0,0 2.054,0.053 2.858,0.053 0.698,0 2.705,-0.053 2.705,-0.053 l 0.021,0.053 v 0.572 c 0,0.078 -0.056,0.129 -0.156,0.129 l -0.54,0.05 c -0.809,0.077 -1.092,0.286 -1.092,0.807 v 8.66 z"
       id="path3916" /><path
       d="m 113.92,131.76 0.754,0.054 c 0.104,0 0.208,0.078 0.208,0.207 v 0.493 l -0.052,0.054 c 0,0 -2.834,-0.054 -3.458,-0.054 -0.677,0 -2.341,0.054 -2.341,0.054 l -0.053,-0.054 v -0.493 c 0,-0.129 0.078,-0.207 0.209,-0.207 1.145,-0.078 1.793,-0.287 2.521,-1.951 l 5.771,-13.521 c 0.285,-0.676 0.494,-0.938 0.888,-0.938 0.36,0 0.491,0.262 0.698,0.781 l 5.33,14.092 c 0.365,1.016 0.888,1.404 1.928,1.508 l 0.283,0.025 c 0.131,0 0.263,0.074 0.263,0.209 v 0.49 l -0.078,0.055 c 0,0 -2.002,-0.055 -3.019,-0.055 -0.91,0 -3.459,0.055 -3.459,0.055 l -0.022,-0.055 v -0.49 c 0,-0.135 0.053,-0.209 0.188,-0.209 l 0.728,-0.055 c 0.987,-0.078 1.354,-0.392 1.092,-1.115 l -1.586,-4.396 h -5.409 c -0.624,0 -0.78,0.104 -0.909,0.439 l -1.51,3.771 c -0.26,0.68 0.08,1.25 1.04,1.33 z m 6.37,-6.61 -2.521,-6.941 h -0.053 l -2.6,6.604 c -0.104,0.265 0.077,0.338 0.649,0.338 h 4.52 z"
       id="path3918" /></g></svg>
