<?xml version="1.0" encoding="UTF-8" standalone="no"?>
<svg
   xmlns:dc="http://purl.org/dc/elements/1.1/"
   xmlns:cc="http://creativecommons.org/ns#"
   xmlns:rdf="http://www.w3.org/1999/02/22-rdf-syntax-ns#"
   xmlns:svg="http://www.w3.org/2000/svg"
   xmlns="http://www.w3.org/2000/svg"
   viewBox="0 0 118.858 17.437561"
   version="1.1"
   width="118.858"
   height="17.437561"
   id="svg5793">
  <defs
     id="defs5795">
    <radialGradient
       r="68.686996"
       gradientTransform="matrix(1,0,0,-1,-213.76,-386.5)"
       cx="244.57001"
       cy="-427.14001"
       gradientUnits="userSpaceOnUse"
       id="SVGID_1_">
      <stop
         offset="0"
         stop-color="#FFF"
         id="stop6126" />
      <stop
         offset=".4835"
         stop-color="#EAEAEB"
         id="stop6128" />
      <stop
         offset=".9451"
         stop-color="#A9ABAE"
         id="stop6130" />
      <stop
         offset="1"
         stop-color="#999B9E"
         id="stop6132" />
    </radialGradient>
    <linearGradient
       x1="456.26999"
       y1="510.16"
       gradientTransform="translate(-406.16,-500.32)"
       x2="502.78"
       gradientUnits="userSpaceOnUse"
       y2="582.90997"
       id="SVGID_3_">
      <stop
         offset="0"
         stop-color="#8A8A8A"
         id="stop6148" />
      <stop
         offset=".5687"
         stop-color="#606060"
         id="stop6150" />
      <stop
         offset=".5914"
         stop-color="#FFF"
         id="stop6152" />
      <stop
         offset=".6116"
         stop-color="#585858"
         id="stop6154" />
      <stop
         offset="1"
         stop-color="#303030"
         id="stop6156" />
    </linearGradient>
    <linearGradient
       x1="425.29001"
       y1="502.95001"
       gradientTransform="translate(-406.16,-500.32)"
       x2="445.79001"
       gradientUnits="userSpaceOnUse"
       y2="598.65997"
       id="SVGID_4_">
      <stop
         offset="0"
         stop-color="#A8A9AB"
         id="stop6161" />
      <stop
         offset="1"
         stop-color="#636668"
         id="stop6163" />
    </linearGradient>
    <linearGradient
       x1="421.07001"
       y1="504.37"
       gradientTransform="translate(-406.16,-500.32)"
       x2="441.07001"
       gradientUnits="userSpaceOnUse"
       y2="597.73999"
       id="SVGID_5_">
      <stop
         offset="0"
         stop-color="#A8A9AB"
         id="stop6168" />
      <stop
         offset="1"
         stop-color="#636668"
         id="stop6170" />
    </linearGradient>
    <linearGradient
       x1="444.76001"
       y1="550.81"
       gradientTransform="translate(-406.16,-500.32)"
       x2="473.84"
       gradientUnits="userSpaceOnUse"
       y2="550.81"
       id="SVGID_6_">
      <stop
         offset="0"
         stop-color="#231F20"
         id="stop6175" />
      <stop
         offset="1"
         stop-color="#474747"
         id="stop6177" />
    </linearGradient>
    <linearGradient
       x1="266.48999"
       y1="-395.28"
       gradientTransform="matrix(1,0,0,-1,-213.76,-386.5)"
       x2="295.95999"
       gradientUnits="userSpaceOnUse"
       y2="-485.03"
       id="SVGID_7_">
      <stop
         offset="0"
         stop-color="#FFF"
         id="stop6202" />
      <stop
         offset=".0094"
         stop-color="#FCFCFC"
         id="stop6204" />
      <stop
         offset=".0655"
         stop-color="#EEEEEE"
         id="stop6206" />
      <stop
         offset=".1342"
         stop-color="#E5E5E5"
         id="stop6208" />
      <stop
         offset=".2515"
         stop-color="#E3E3E3"
         id="stop6210" />
      <stop
         offset=".3357"
         stop-color="#8A8A8A"
         id="stop6212" />
      <stop
         offset=".4422"
         stop-color="#B8B8B8"
         id="stop6214" />
      <stop
         offset="1"
         stop-color="#3B3B3B"
         id="stop6216" />
    </linearGradient>
    <linearGradient
       x1="460.45999"
       y1="512.56"
       gradientTransform="translate(-406.16,-500.32)"
       x2="509.59"
       gradientUnits="userSpaceOnUse"
       y2="573.31"
       id="SVGID_8_">
      <stop
         offset="0"
         stop-color="#EFF0F0"
         id="stop6221" />
      <stop
         offset=".5914"
         stop-color="#F0F1F2"
         id="stop6223" />
      <stop
         offset=".599"
         stop-color="#787878"
         id="stop6225" />
      <stop
         offset=".6456"
         stop-color="#EEEFF0"
         id="stop6227" />
      <stop
         offset="1"
         stop-color="#D8D9DB"
         id="stop6229" />
    </linearGradient>
    <linearGradient
       x1="272.87"
       y1="-392.82999"
       gradientTransform="matrix(1,0,0,-1,-213.76,-386.5)"
       x2="302.47"
       gradientUnits="userSpaceOnUse"
       y2="-482.95999"
       id="SVGID_9_">
      <stop
         offset="0"
         stop-color="#FFF"
         id="stop6234" />
      <stop
         offset="1"
         stop-color="#E4E5E6"
         id="stop6236" />
    </linearGradient>
    <linearGradient
       x1="444.69"
       y1="510.95999"
       gradientTransform="translate(-406.16,-500.32)"
       x2="469.72"
       gradientUnits="userSpaceOnUse"
       y2="592.07001"
       id="SVGID_10_">
      <stop
         offset="0"
         stop-color="#FFF"
         id="stop6241" />
      <stop
         offset=".7473"
         stop-color="#F9F9F9"
         id="stop6243" />
      <stop
         offset="1"
         stop-color="#D5D7D8"
         id="stop6245" />
    </linearGradient>
    <linearGradient
       x1="274.53"
       y1="-396.16"
       gradientTransform="matrix(1,0,0,-1,-213.76,-386.5)"
       x2="255.21001"
       gradientUnits="userSpaceOnUse"
       y2="-490.19"
       id="SVGID_13_">
      <stop
         offset="0"
         stop-color="#FFF"
         id="stop6276" />
      <stop
         offset="1"
         stop-color="#E4E5E6"
         id="stop6278" />
    </linearGradient>
    <linearGradient
       x1="422.56"
       y1="518.76001"
       gradientTransform="translate(-406.16,-500.32)"
       x2="427.29001"
       gradientUnits="userSpaceOnUse"
       y2="578.17999"
       id="SVGID_14_">
      <stop
         offset=".2198"
         stop-color="#989A9C"
         id="stop6283" />
      <stop
         offset=".2527"
         stop-color="#FFF"
         id="stop6285" />
    </linearGradient>
    <linearGradient
       x1="237.37"
       y1="-388.35999"
       gradientTransform="matrix(1,0,0,-1,-213.76,-386.5)"
       x2="218.85001"
       gradientUnits="userSpaceOnUse"
       y2="-478.5"
       id="SVGID_15_">
      <stop
         offset="0"
         stop-color="#FFF"
         id="stop6290" />
      <stop
         offset="1"
         stop-color="#E4E5E6"
         id="stop6292" />
    </linearGradient>
    <linearGradient
       x1="259.91"
       y1="-479.34"
       gradientTransform="matrix(1,0,0,-1,-213.76,-386.5)"
       x2="259.89999"
       gradientUnits="userSpaceOnUse"
       y2="-479.38"
       id="SVGID_16_">
      <stop
         offset="0"
         stop-color="#FFF"
         id="stop6297" />
      <stop
         offset="1"
         stop-color="#E4E5E6"
         id="stop6299" />
    </linearGradient>
    <linearGradient
       x1="268.89999"
       y1="-394.64001"
       gradientTransform="matrix(1,0,0,-1,-213.76,-386.5)"
       x2="249.5"
       gradientUnits="userSpaceOnUse"
       y2="-489.07001"
       id="SVGID_17_">
      <stop
         offset="0"
         stop-color="#FFF"
         id="stop6308" />
      <stop
         offset="1"
         stop-color="#E4E5E6"
         id="stop6310" />
    </linearGradient>
    <linearGradient
       x1="254.46001"
       y1="-391.60001"
       gradientTransform="matrix(1,0,0,-1,-213.76,-386.5)"
       x2="235.03"
       gradientUnits="userSpaceOnUse"
       y2="-486.10999"
       id="SVGID_18_">
      <stop
         offset="0"
         stop-color="#FFF"
         id="stop6315" />
      <stop
         offset="1"
         stop-color="#E4E5E6"
         id="stop6317" />
    </linearGradient>
    <linearGradient
       x1="262.64999"
       y1="-392.97"
       gradientTransform="matrix(1,0,0,-1,-213.76,-386.5)"
       x2="243.16"
       gradientUnits="userSpaceOnUse"
       y2="-487.84"
       id="SVGID_19_">
      <stop
         offset="0"
         stop-color="#FFF"
         id="stop6322" />
      <stop
         offset="1"
         stop-color="#E4E5E6"
         id="stop6324" />
    </linearGradient>
    <linearGradient
       x1="271.54999"
       y1="-390.95999"
       gradientTransform="matrix(1,0,0,-1,-213.76,-386.5)"
       x2="251.19"
       gradientUnits="userSpaceOnUse"
       y2="-490.01999"
       id="SVGID_20_">
      <stop
         offset="0"
         stop-color="#FFF"
         id="stop6329" />
      <stop
         offset="1"
         stop-color="#E4E5E6"
         id="stop6331" />
    </linearGradient>
    <linearGradient
       x1="274.66"
       y1="-395.84"
       gradientTransform="matrix(1,0,0,-1,-213.76,-386.5)"
       x2="255.25999"
       gradientUnits="userSpaceOnUse"
       y2="-490.26001"
       id="SVGID_21_">
      <stop
         offset="0"
         stop-color="#FFF"
         id="stop6336" />
      <stop
         offset="1"
         stop-color="#E4E5E6"
         id="stop6338" />
    </linearGradient>
    <linearGradient
       x1="221.17999"
       y1="-454.56"
       gradientTransform="matrix(1,0,0,-1,-213.76,-386.5)"
       x2="221.37"
       gradientUnits="userSpaceOnUse"
       y2="-454.56"
       id="SVGID_22_">
      <stop
         offset="0"
         stop-color="#808080"
         id="stop6367" />
      <stop
         offset=".0868"
         stop-color="#7A7A7A"
         id="stop6369" />
      <stop
         offset=".36"
         stop-color="#6B6B6B"
         id="stop6371" />
      <stop
         offset=".5192"
         stop-color="#686868"
         id="stop6373" />
      <stop
         offset=".6377"
         stop-color="#5F5F5F"
         id="stop6375" />
      <stop
         offset=".7431"
         stop-color="#4E4E4E"
         id="stop6377" />
      <stop
         offset=".8408"
         stop-color="#383838"
         id="stop6379" />
      <stop
         offset=".9324"
         stop-color="#1B1B1B"
         id="stop6381" />
      <stop
         offset="1"
         id="stop6383" />
    </linearGradient>
    <linearGradient
       x1="221.39999"
       y1="-449.79999"
       gradientTransform="matrix(1,0,0,-1,-213.76,-386.5)"
       x2="316.03"
       gradientUnits="userSpaceOnUse"
       y2="-449.79999"
       id="SVGID_23_">
      <stop
         offset="0"
         stop-color="#808080"
         id="stop6388" />
      <stop
         offset=".0868"
         stop-color="#7A7A7A"
         id="stop6390" />
      <stop
         offset=".3817"
         stop-color="#828282"
         id="stop6392" />
      <stop
         offset=".5185"
         stop-color="#808080"
         id="stop6394" />
      <stop
         offset=".5677"
         stop-color="#797979"
         id="stop6396" />
      <stop
         offset=".6027"
         stop-color="#6E6E6E"
         id="stop6398" />
      <stop
         offset=".608"
         stop-color="#6B6B6B"
         id="stop6400" />
      <stop
         offset="1"
         stop-color="#4E4E4E"
         id="stop6402" />
    </linearGradient>
    <linearGradient
       x1="214.59"
       y1="-431.35999"
       gradientTransform="matrix(1,0,0,-1,-213.76,-386.5)"
       x2="314.39999"
       gradientUnits="userSpaceOnUse"
       y2="-431.35999"
       id="SVGID_24_">
      <stop
         offset="0"
         stop-color="#555555"
         id="stop6407" />
      <stop
         offset="1"
         stop-color="#231F20"
         id="stop6409" />
    </linearGradient>
    <linearGradient
       x1="214.89999"
       y1="-410.88"
       gradientTransform="matrix(1,0,0,-1,-213.76,-386.5)"
       x2="306.5"
       gradientUnits="userSpaceOnUse"
       y2="-410.88"
       id="SVGID_25_">
      <stop
         offset="0"
         stop-color="#A0A0A0"
         id="stop6414" />
      <stop
         offset=".0769"
         stop-color="#656767"
         id="stop6416" />
      <stop
         offset="1"
         stop-color="#717375"
         id="stop6418" />
    </linearGradient>
    <linearGradient
       x1="217.66"
       y1="-436.75"
       gradientTransform="matrix(1,0,0,-1,-213.76,-386.5)"
       x2="217.66"
       gradientUnits="userSpaceOnUse"
       y2="-436.75"
       id="SVGID_26_">
      <stop
         offset="0"
         stop-color="#FFF"
         id="stop6433" />
      <stop
         offset=".078"
         stop-color="#F4F4F4"
         id="stop6435" />
      <stop
         offset=".3807"
         stop-color="#CECECE"
         id="stop6437" />
      <stop
         offset=".5396"
         stop-color="#BFBFBF"
         id="stop6439" />
      <stop
         offset=".8357"
         stop-color="#7C7C7C"
         id="stop6441" />
      <stop
         offset=".8996"
         stop-color="#A8A8A8"
         id="stop6443" />
      <stop
         offset=".9093"
         stop-color="#9A9A9A"
         id="stop6445" />
      <stop
         offset=".9327"
         stop-color="#7D7D7D"
         id="stop6447" />
      <stop
         offset=".9558"
         stop-color="#686868"
         id="stop6449" />
      <stop
         offset=".9785"
         stop-color="#5B5B5B"
         id="stop6451" />
      <stop
         offset="1"
         stop-color="#575757"
         id="stop6453" />
    </linearGradient>
    <linearGradient
       x1="214.33"
       y1="-436.51001"
       gradientTransform="matrix(1,0,0,-1,-213.76,-386.5)"
       x2="322.87"
       gradientUnits="userSpaceOnUse"
       y2="-424.48999"
       id="SVGID_27_">
      <stop
         offset="0"
         stop-color="#FFF"
         id="stop6458" />
      <stop
         offset=".078"
         stop-color="#F4F4F4"
         id="stop6460" />
      <stop
         offset=".3807"
         stop-color="#CECECE"
         id="stop6462" />
      <stop
         offset=".5396"
         stop-color="#BFBFBF"
         id="stop6464" />
      <stop
         offset=".8357"
         stop-color="#7C7C7C"
         id="stop6466" />
      <stop
         offset=".8996"
         stop-color="#A8A8A8"
         id="stop6468" />
      <stop
         offset=".9093"
         stop-color="#9A9A9A"
         id="stop6470" />
      <stop
         offset=".9327"
         stop-color="#7D7D7D"
         id="stop6472" />
      <stop
         offset=".9558"
         stop-color="#686868"
         id="stop6474" />
      <stop
         offset=".9785"
         stop-color="#5B5B5B"
         id="stop6476" />
      <stop
         offset="1"
         stop-color="#575757"
         id="stop6478" />
    </linearGradient>
    <linearGradient
       x1="213.89"
       y1="-436.48001"
       gradientTransform="matrix(1,0,0,-1,-213.76,-386.5)"
       x2="336.88"
       gradientUnits="userSpaceOnUse"
       y2="-422.85001"
       id="SVGID_28_">
      <stop
         offset="0"
         stop-color="#FFF"
         id="stop6483" />
      <stop
         offset=".078"
         stop-color="#F4F4F4"
         id="stop6485" />
      <stop
         offset=".3807"
         stop-color="#CECECE"
         id="stop6487" />
      <stop
         offset=".5396"
         stop-color="#BFBFBF"
         id="stop6489" />
      <stop
         offset=".8357"
         stop-color="#7C7C7C"
         id="stop6491" />
      <stop
         offset=".8996"
         stop-color="#A8A8A8"
         id="stop6493" />
      <stop
         offset=".9093"
         stop-color="#9A9A9A"
         id="stop6495" />
      <stop
         offset=".9327"
         stop-color="#7D7D7D"
         id="stop6497" />
      <stop
         offset=".9558"
         stop-color="#686868"
         id="stop6499" />
      <stop
         offset=".9785"
         stop-color="#5B5B5B"
         id="stop6501" />
      <stop
         offset="1"
         stop-color="#575757"
         id="stop6503" />
    </linearGradient>
    <linearGradient
       x1="411.25"
       y1="557"
       gradientTransform="translate(-406.16,-500.32)"
       x2="507.23999"
       gradientUnits="userSpaceOnUse"
       y2="537.63"
       id="SVGID_29_">
      <stop
         offset="0"
         stop-color="#EDEDEE"
         id="stop6508" />
      <stop
         offset=".4176"
         stop-color="#FFF"
         id="stop6510" />
      <stop
         offset=".6264"
         stop-color="#F8F9F9"
         id="stop6512" />
      <stop
         offset="1"
         stop-color="#BFC0C2"
         id="stop6514" />
    </linearGradient>
    <linearGradient
       x1="413.51001"
       y1="516.40997"
       gradientTransform="translate(-406.16,-500.32)"
       x2="418"
       gradientUnits="userSpaceOnUse"
       y2="516.40997"
       id="SVGID_30_">
      <stop
         offset="0"
         stop-color="#E2E3E4"
         id="stop6525" />
      <stop
         offset=".5055"
         stop-color="#FFF"
         id="stop6527" />
    </linearGradient>
    <linearGradient
       x1="414.25"
       y1="568.27002"
       gradientTransform="translate(-406.16,-500.32)"
       x2="509.01001"
       gradientUnits="userSpaceOnUse"
       y2="545.72998"
       id="SVGID_31_">
      <stop
         offset="0"
         stop-color="#EDEDEE"
         id="stop6882" />
      <stop
         offset=".4176"
         stop-color="#FFF"
         id="stop6884" />
      <stop
         offset=".6264"
         stop-color="#F8F9F9"
         id="stop6886" />
      <stop
         offset=".9505"
         stop-color="#B2B4B6"
         id="stop6888" />
    </linearGradient>
    <linearGradient
       x1="416.70001"
       y1="578.56"
       gradientTransform="translate(-406.16,-500.32)"
       x2="511.82001"
       gradientUnits="userSpaceOnUse"
       y2="555.94"
       id="SVGID_32_">
      <stop
         offset="0"
         stop-color="#EDEDEE"
         id="stop6893" />
      <stop
         offset=".4176"
         stop-color="#FFF"
         id="stop6895" />
      <stop
         offset=".6264"
         stop-color="#F8F9F9"
         id="stop6897" />
      <stop
         offset=".9505"
         stop-color="#B2B4B6"
         id="stop6899" />
    </linearGradient>
    <linearGradient
       x1="415.47"
       y1="573.41998"
       gradientTransform="translate(-406.16,-500.32)"
       x2="510.59"
       gradientUnits="userSpaceOnUse"
       y2="550.79999"
       id="SVGID_33_">
      <stop
         offset="0"
         stop-color="#EDEDEE"
         id="stop6904" />
      <stop
         offset=".4176"
         stop-color="#FFF"
         id="stop6906" />
      <stop
         offset=".6264"
         stop-color="#F8F9F9"
         id="stop6908" />
      <stop
         offset=".9505"
         stop-color="#B2B4B6"
         id="stop6910" />
    </linearGradient>
    <linearGradient
       x1="414.78"
       y1="570.47998"
       gradientTransform="translate(-406.16,-500.32)"
       x2="509.87"
       gradientUnits="userSpaceOnUse"
       y2="547.85999"
       id="SVGID_34_">
      <stop
         offset="0"
         stop-color="#EDEDEE"
         id="stop6915" />
      <stop
         offset=".4176"
         stop-color="#FFF"
         id="stop6917" />
      <stop
         offset=".6264"
         stop-color="#F8F9F9"
         id="stop6919" />
      <stop
         offset=".9505"
         stop-color="#B2B4B6"
         id="stop6921" />
    </linearGradient>
    <linearGradient
       x1="414.92001"
       y1="571.07001"
       gradientTransform="translate(-406.16,-500.32)"
       x2="510.04001"
       gradientUnits="userSpaceOnUse"
       y2="548.44"
       id="SVGID_35_">
      <stop
         offset="0"
         stop-color="#EDEDEE"
         id="stop6926" />
      <stop
         offset=".4176"
         stop-color="#FFF"
         id="stop6928" />
      <stop
         offset=".6264"
         stop-color="#F8F9F9"
         id="stop6930" />
      <stop
         offset=".9505"
         stop-color="#B2B4B6"
         id="stop6932" />
    </linearGradient>
    <linearGradient
       x1="416.10001"
       y1="576.07001"
       gradientTransform="translate(-406.16,-500.32)"
       x2="511.23001"
       gradientUnits="userSpaceOnUse"
       y2="553.44"
       id="SVGID_36_">
      <stop
         offset="0"
         stop-color="#EDEDEE"
         id="stop6937" />
      <stop
         offset=".4176"
         stop-color="#FFF"
         id="stop6939" />
      <stop
         offset=".6264"
         stop-color="#F8F9F9"
         id="stop6941" />
      <stop
         offset=".9505"
         stop-color="#B2B4B6"
         id="stop6943" />
    </linearGradient>
    <linearGradient
       x1="412.62"
       y1="535.40002"
       gradientTransform="translate(-406.16,-500.32)"
       x2="501.59"
       gradientUnits="userSpaceOnUse"
       y2="514.88"
       id="SVGID_37_">
      <stop
         offset="0"
         stop-color="#FFF"
         id="stop6950" />
      <stop
         offset=".6538"
         stop-color="#FFF"
         id="stop6952" />
      <stop
         offset="1"
         stop-color="#CBCCCE"
         id="stop6954" />
    </linearGradient>
    <linearGradient
       x1="231.23"
       y1="-407.87"
       gradientTransform="matrix(1,0,0,-1,-213.76,-386.5)"
       x2="263.62"
       gradientUnits="userSpaceOnUse"
       y2="-407.87"
       id="SVGID_39_">
      <stop
         offset="0"
         stop-color="#696969"
         id="stop6980" />
      <stop
         offset=".3702"
         stop-color="#2E2E2E"
         id="stop6982" />
      <stop
         offset=".4554"
         stop-color="#424242"
         id="stop6984" />
      <stop
         offset=".6014"
         stop-color="#303030"
         id="stop6986" />
      <stop
         offset=".6947"
         stop-color="#4A4A4A"
         id="stop6988" />
      <stop
         offset="1"
         stop-color="#666666"
         id="stop6990" />
    </linearGradient>
    <linearGradient
       x1="231.62"
       y1="-407.06"
       gradientTransform="matrix(1,0,0,-1,-213.76,-386.5)"
       x2="263.48999"
       gradientUnits="userSpaceOnUse"
       y2="-407.06"
       id="SVGID_40_">
      <stop
         offset="0"
         stop-color="#525252"
         id="stop6995" />
      <stop
         offset=".1856"
         stop-color="#333333"
         id="stop6997" />
      <stop
         offset=".354"
         stop-color="#AEAEAE"
         id="stop6999" />
      <stop
         offset=".4199"
         stop-color="#ADADAD"
         id="stop7001" />
      <stop
         offset=".4276"
         stop-color="#9D9D9D"
         id="stop7003" />
      <stop
         offset=".4433"
         stop-color="#818181"
         id="stop7005" />
      <stop
         offset=".4611"
         stop-color="#6A6A6A"
         id="stop7007" />
      <stop
         offset=".4814"
         stop-color="#585858"
         id="stop7009" />
      <stop
         offset=".506"
         stop-color="#4C4C4C"
         id="stop7011" />
      <stop
         offset=".539"
         stop-color="#444444"
         id="stop7013" />
      <stop
         offset=".6166"
         stop-color="#424242"
         id="stop7015" />
      <stop
         offset=".6684"
         stop-color="#454545"
         id="stop7017" />
      <stop
         offset="1"
         stop-color="#BDBDBD"
         id="stop7019" />
    </linearGradient>
    <linearGradient
       x1="236.92"
       y1="-417.32999"
       gradientTransform="matrix(1,0,0,-1,-213.76,-386.5)"
       x2="235.89"
       gradientUnits="userSpaceOnUse"
       y2="-410.53"
       id="SVGID_41_">
      <stop
         offset="0"
         stop-color="#969696"
         id="stop7024" />
      <stop
         offset="1"
         id="stop7026" />
    </linearGradient>
    <linearGradient
       x1="428.78"
       y1="532.04999"
       gradientTransform="translate(-406.16,-500.32)"
       x2="429.53"
       gradientUnits="userSpaceOnUse"
       y2="524.46997"
       id="SVGID_42_">
      <stop
         offset="0"
         stop-color="#333333"
         id="stop7035" />
      <stop
         offset=".431"
         id="stop7037" />
      <stop
         offset="1"
         stop-color="#2E2E2E"
         id="stop7039" />
    </linearGradient>
    <radialGradient
       r="72.750999"
       gradientTransform="matrix(1,0,0,-1,-213.76,-386.5)"
       cx="251.81"
       cy="-408.35999"
       gradientUnits="userSpaceOnUse"
       id="SVGID_43_">
      <stop
         offset="0"
         stop-opacity="0"
         id="stop7050" />
      <stop
         offset=".8022"
         stop-opacity=".08"
         id="stop7052" />
      <stop
         offset="1"
         stop-opacity=".3882"
         id="stop7054" />
    </radialGradient>
  </defs>
  <metadata
     id="metadata5798">
    <rdf:RDF>
      <cc:Work
         rdf:about="">
        <dc:format>image/svg+xml</dc:format>
        <dc:type
           rdf:resource="http://purl.org/dc/dcmitype/StillImage" />
        <dc:title />
      </cc:Work>
    </rdf:RDF>
  </metadata>
  <g
     transform="translate(-8.009,-1012.642)"
     style="display:none"
     id="layer1">
    <g
       transform="translate(0,897.36)"
       style="display:inline"
       id="Wikipedia">
      <path
         d="m 18.757,118.89 c 0,0 -0.367,-0.746 -0.492,-0.994 -0.834,-1.652 -0.816,-1.74 -1.659,-1.852 -0.236,-0.031 -0.358,-0.061 -0.358,-0.178 v -0.523 l 0.071,-0.051 c 1.523,-0.002 4.912,-0.002 4.912,-0.002 l 0.13,0.043 v 0.521 c 0,0.119 -0.085,0.18 -0.258,0.18 l -0.356,0.051 c -0.9,0.07 -0.753,0.438 -0.155,1.629 l 5.677,11.615 0.194,0.053 5.04,-11.961 c 0.175,-0.482 0.148,-0.824 -0.077,-1.025 -0.226,-0.195 -0.385,-0.312 -0.969,-0.336 l -0.473,-0.023 c -0.058,0 -0.113,-0.021 -0.166,-0.061 -0.052,-0.037 -0.079,-0.086 -0.079,-0.145 v -0.498 l 0.072,-0.051 h 5.694 l 0.058,0.051 v 0.498 c 0,0.135 -0.077,0.203 -0.229,0.203 -0.746,0.033 -1.299,0.195 -1.657,0.484 -0.359,0.291 -0.639,0.691 -0.84,1.213 0,0 -4.635,10.608 -6.221,14.135 -0.607,1.156 -1.204,1.05 -1.729,-0.033 -1.109,-2.284 -4.232,-9.213 -4.232,-9.213 z"
         id="path3898" />
      <path
         d="m 27.853,115.29 c 0,0 -3.203,-0.01 -4.629,0 l -0.071,0.051 v 0.496 c 0,0.061 0.026,0.109 0.078,0.146 0.053,0.039 0.107,0.059 0.165,0.059 l 0.229,0.025 c 0.583,0.023 0.851,0.177 0.931,0.272 0.139,0.17 0.208,0.354 -0.129,1.089 l -5.98,11.928 -0.157,-0.041 c 0,0 -4.283,-9.031 -5.523,-12.053 -0.129,-0.312 -0.187,-0.545 -0.187,-0.688 0,-0.307 0.277,-0.473 0.831,-0.496 l 0.646,-0.027 c 0.171,0 0.258,-0.066 0.258,-0.203 v -0.496 l -0.058,-0.051 c 0,0 -5.13,-0.006 -6.19,0 l -0.058,0.051 v 0.521 c 0,0.094 0.119,0.152 0.358,0.178 0.651,0.035 1.079,0.139 1.285,0.312 0.205,0.175 0.422,0.617 0.71,1.306 1.557,3.74 4.865,10.414 6.476,14.215 0.464,1.038 1.047,1.199 1.755,-0.032 1.226,-2.273 4.55,-9.218 4.55,-9.218 l 2.618,-4.896 c 0.305,-0.518 0.599,-0.979 0.748,-1.193 0.273,-0.393 0.426,-0.467 1.172,-0.502 0.152,0 0.229,-0.068 0.229,-0.205 v -0.496 z"
         id="path3900" />
      <path
         d="m 37.592,130.77 c 0,0.572 0.26,0.91 1.092,0.988 l 0.546,0.053 c 0.078,0 0.156,0.051 0.156,0.155 v 0.546 l -0.026,0.053 c 0,0 -1.976,-0.053 -2.782,-0.053 -0.728,0 -2.756,0.053 -2.756,0.053 l -0.052,-0.053 v -0.546 c 0,-0.104 0.078,-0.155 0.182,-0.155 l 0.52,-0.053 c 0.858,-0.078 1.118,-0.494 1.118,-0.988 v -8.658 c 0,-0.57 -0.313,-0.729 -1.118,-0.805 l -0.52,-0.054 c -0.104,0 -0.182,-0.024 -0.182,-0.104 v -0.599 l 0.026,-0.052 c 0,0 2.054,0.052 2.86,0.052 0.702,0 2.704,-0.052 2.704,-0.052 l 0.026,0.052 v 0.572 c 0,0.078 -0.052,0.13 -0.156,0.13 l -0.546,0.053 c -0.806,0.077 -1.092,0.286 -1.092,0.807 z"
         id="path3904" />
      <path
         d="m 45.265,130.77 c 0,0.572 0.338,0.858 1.092,0.988 l 0.286,0.053 c 0.078,0.025 0.156,0.051 0.156,0.155 v 0.546 l -0.026,0.053 c 0,0 -1.638,-0.053 -2.418,-0.053 -0.728,0 -2.86,0.053 -2.86,0.053 l -0.052,-0.053 v -0.546 c 0,-0.104 0.078,-0.155 0.182,-0.155 l 0.52,-0.053 c 0.78,-0.078 1.118,-0.494 1.118,-0.988 v -8.658 c 0,-0.57 -0.286,-0.729 -1.118,-0.805 l -0.52,-0.054 c -0.104,0 -0.182,-0.024 -0.182,-0.104 v -0.599 l 0.026,-0.052 c 0,0 2.132,0.052 2.938,0.052 0.729,0 2.366,-0.052 2.366,-0.052 l 0.026,0.052 v 0.572 c 0,0.078 -0.052,0.104 -0.156,0.13 l -0.286,0.053 c -0.806,0.155 -1.092,0.286 -1.092,0.807 v 3.927 c 0.858,0 1.352,-0.44 2.496,-1.664 1.04,-1.146 1.846,-2.104 1.846,-2.601 0,-0.209 -0.234,-0.441 -0.754,-0.521 -0.104,-0.024 -0.156,-0.052 -0.156,-0.13 v -0.6 l 0.026,-0.024 c 0,0 2.106,0.052 2.86,0.052 0.676,0 1.82,-0.052 1.82,-0.052 l 0.078,0.024 v 0.6 c 0,0.078 -0.078,0.13 -0.208,0.13 -1.014,0.078 -1.716,0.13 -2.652,1.196 l -2.236,2.572 c -0.442,0.47 -0.598,0.754 -0.598,0.963 0,0.156 0.104,0.285 0.234,0.441 l 3.926,4.732 c 0.312,0.363 0.936,0.52 1.456,0.623 l 0.13,0.025 c 0.078,0.025 0.182,0.077 0.182,0.155 v 0.546 l -0.078,0.026 c 0,0 -1.378,-0.026 -2.106,-0.026 -0.65,0 -1.586,0.026 -1.586,0.026 l -0.026,-0.026 v -0.312 c 0,-0.339 -0.026,-0.623 -0.39,-1.039 l -2.886,-3.589 c -0.39,-0.521 -0.806,-0.649 -1.378,-0.649 z"
         id="path3906" />
      <path
         d="m 59.282,130.77 c 0,0.572 0.26,0.91 1.092,0.988 l 0.546,0.053 c 0.078,0 0.156,0.051 0.156,0.155 v 0.546 l -0.026,0.053 c 0,0 -1.976,-0.053 -2.782,-0.053 -0.728,0 -2.756,0.053 -2.756,0.053 l -0.052,-0.053 v -0.546 c 0,-0.104 0.078,-0.155 0.182,-0.155 l 0.52,-0.053 c 0.858,-0.078 1.118,-0.494 1.118,-0.988 v -8.658 c 0,-0.57 -0.312,-0.729 -1.118,-0.805 l -0.52,-0.054 c -0.104,0 -0.182,-0.024 -0.182,-0.104 v -0.599 l 0.026,-0.052 c 0,0 2.054,0.052 2.86,0.052 0.702,0 2.704,-0.052 2.704,-0.052 l 0.026,0.052 v 0.572 c 0,0.078 -0.052,0.13 -0.156,0.13 l -0.546,0.053 c -0.806,0.077 -1.092,0.286 -1.092,0.807 z"
         id="path3908" />
      <path
         d="m 64.9,122.16 c 0,-0.806 -0.338,-0.832 -1.56,-0.91 -0.156,0 -0.182,-0.077 -0.182,-0.13 v -0.598 l 0.052,-0.026 c 0.39,0 1.924,0.052 2.678,0.052 0.728,0 1.768,-0.052 2.73,-0.052 3.69,0 4.366,1.819 4.366,3.173 0,1.561 -0.754,4.004 -4.444,4.004 -0.65,0 -1.17,-0.053 -1.639,-0.26 v 3.482 c 0,0.571 0.312,0.703 1.145,0.832 l 0.521,0.078 c 0.104,0.025 0.183,0.053 0.183,0.155 v 0.546 l -0.024,0.053 c 0,0 -2.081,-0.053 -2.887,-0.053 -0.728,0 -2.678,0.053 -2.678,0.053 l -0.026,-0.053 v -0.546 c 0,-0.104 0.052,-0.13 0.156,-0.155 l 0.546,-0.078 c 0.806,-0.104 1.066,-0.338 1.066,-0.832 z m 2.002,4.525 c 0.52,0.209 1.17,0.234 1.69,0.234 1.561,0 2.312,-0.938 2.312,-2.938 0,-2.236 -1.014,-2.73 -2.442,-2.73 -1.249,0 -1.561,0.234 -1.561,0.91 z"
         id="path3910" />
      <path
         d="m 77.462,132.51 c -0.78,0 -2.573,0.053 -2.573,0.053 l -0.027,-0.053 v -0.572 c 0,-0.051 0.027,-0.129 0.156,-0.129 l 0.6,-0.053 c 0.807,-0.078 1.041,-0.598 1.041,-1.117 v -8.58 c 0,-0.6 -0.312,-0.703 -1.041,-0.754 l -0.6,-0.054 c -0.156,-0.024 -0.156,-0.077 -0.156,-0.104 v -0.599 l 0.027,-0.052 c 0,0 2.027,0.052 2.807,0.052 h 3.822 c 0.78,0 2.627,-0.052 2.627,-0.052 l 0.054,0.052 c 0.024,1.118 0.206,2.134 0.39,3.121 l -0.648,0.104 c -0.285,-0.963 -0.779,-2.34 -2.443,-2.34 h -2.08 c -0.494,0 -0.754,0.182 -0.754,0.623 v 3.771 h 1.949 c 0.729,0 0.91,-0.312 1.015,-0.832 l 0.155,-0.546 c 0,-0.078 0.053,-0.131 0.156,-0.131 h 0.44 c 0.054,0 0.054,0.027 0.054,0.078 -0.054,0.571 -0.156,1.301 -0.156,1.925 0,0.649 0.104,1.196 0.156,1.794 l -0.054,0.053 h -0.44 c -0.129,0 -0.184,-0.053 -0.184,-0.131 l -0.13,-0.571 c -0.104,-0.521 -0.338,-0.807 -1.017,-0.807 H 78.66 v 3.979 c 0,0.492 0.283,0.986 0.754,0.986 h 2.47 c 1.326,0 2.056,-0.832 2.366,-2.186 l 0.648,0.078 -0.521,2.989 -0.052,0.052 c 0,0 -1.534,-0.052 -2.314,-0.052 z"
         id="path3912" />
      <path
         d="m 87.24,131.81 0.598,-0.053 c 0.781,-0.078 1.041,-0.312 1.041,-1.117 v -8.58 c 0,-0.678 -0.184,-0.678 -1.041,-0.754 l -0.57,-0.054 c -0.104,0 -0.184,-0.052 -0.184,-0.13 v -0.572 l 0.025,-0.052 c 0,0 2.289,0.052 2.758,0.052 0.492,0 2.756,-0.052 3.432,-0.052 4.342,0 6.475,2.704 6.475,6.162 0,4.551 -3.225,5.901 -6.109,5.901 -2.08,0 -2.989,-0.053 -3.795,-0.053 -0.781,0 -2.758,0.053 -2.758,0.053 l -0.025,-0.053 v -0.546 c -0.003,-0.074 0.05,-0.152 0.153,-0.152 z m 5.799,0 c 2.859,0 4.473,-1.064 4.473,-4.707 0,-2.703 -0.599,-5.851 -4.967,-5.851 -1.014,0 -1.664,0.156 -1.664,0.808 v 8.58 c 0,0.726 0.181,1.17 2.158,1.17 z"
         id="path3914" />
      <path
         d="m 105.91,130.77 c 0,0.572 0.26,0.91 1.092,0.988 l 0.546,0.053 c 0.078,0 0.156,0.051 0.156,0.155 v 0.546 l -0.026,0.053 c 0,0 -1.976,-0.053 -2.781,-0.053 -0.729,0 -2.756,0.053 -2.756,0.053 l -0.053,-0.053 v -0.546 c 0,-0.104 0.078,-0.155 0.182,-0.155 l 0.521,-0.053 c 0.857,-0.078 1.118,-0.494 1.118,-0.988 v -8.658 c 0,-0.57 -0.313,-0.729 -1.118,-0.805 l -0.521,-0.054 c -0.104,0 -0.182,-0.024 -0.182,-0.104 v -0.599 l 0.026,-0.052 c 0,0 2.054,0.052 2.858,0.052 0.701,0 2.705,-0.052 2.705,-0.052 l 0.024,0.052 v 0.572 c 0,0.078 -0.054,0.13 -0.156,0.13 l -0.546,0.053 c -0.807,0.077 -1.092,0.286 -1.092,0.807 z"
         id="path3916" />
      <path
         d="m 113.92,131.76 0.754,0.053 c 0.104,0 0.208,0.078 0.208,0.207 v 0.494 l -0.052,0.053 c 0,0 -2.834,-0.053 -3.458,-0.053 -0.677,0 -2.341,0.053 -2.341,0.053 l -0.053,-0.053 v -0.494 c 0,-0.129 0.078,-0.207 0.209,-0.207 1.145,-0.078 1.793,-0.287 2.521,-1.951 l 5.771,-13.521 c 0.285,-0.676 0.494,-0.937 0.886,-0.937 0.362,0 0.493,0.261 0.7,0.781 l 5.33,14.092 c 0.365,1.015 0.886,1.404 1.926,1.508 l 0.285,0.025 c 0.131,0 0.261,0.077 0.261,0.209 v 0.492 l -0.078,0.053 c 0,0 -2.002,-0.053 -3.017,-0.053 -0.91,0 -3.459,0.053 -3.459,0.053 l -0.024,-0.053 v -0.492 c 0,-0.132 0.052,-0.209 0.185,-0.209 l 0.728,-0.053 c 0.987,-0.077 1.353,-0.391 1.092,-1.117 l -1.586,-4.396 h -5.41 c -0.624,0 -0.78,0.104 -0.909,0.44 l -1.509,3.771 c -0.26,0.654 0.078,1.227 1.04,1.305 z m 6.37,-6.606 -2.522,-6.941 h -0.052 l -2.6,6.604 c -0.104,0.262 0.077,0.338 0.649,0.338 h 4.525 z"
         id="path3918" />
    </g>
  </g>
</svg>
