<?xml version="1.0" encoding="UTF-8" standalone="no"?>
<svg
   xmlns:dc="http://purl.org/dc/elements/1.1/"
   xmlns:cc="http://creativecommons.org/ns#"
   xmlns:rdf="http://www.w3.org/1999/02/22-rdf-syntax-ns#"
   xmlns:svg="http://www.w3.org/2000/svg"
   xmlns="http://www.w3.org/2000/svg"
   id="svg3857"
   xml:space="preserve"
   enable-background="new 0 0 135 155"
   viewBox="0 0 124.75813 22.495117"
   height="22.495117"
   width="124.75813"
   y="0px"
   x="0px"
   version="1.1"><metadata
     id="metadata4852"><rdf:RDF><cc:Work
         rdf:about=""><dc:format>image/svg+xml</dc:format><dc:type
           rdf:resource="http://purl.org/dc/dcmitype/StillImage" /><dc:title /></cc:Work></rdf:RDF></metadata><defs
     id="defs4850"><radialGradient
       id="SVGID_1_"
       cx="-145.4702"
       cy="87.823196"
       r="68.686401"
       gradientTransform="matrix(1,0,0,-1,192.3999,143.0996)"
       gradientUnits="userSpaceOnUse">
		<stop
   offset="0"
   style="stop-color:#FFFFFF"
   id="stop3922" />
		<stop
   offset="0.4835"
   style="stop-color:#EAEAEB"
   id="stop3924" />
		<stop
   offset="0.9451"
   style="stop-color:#A9ABAE"
   id="stop3926" />
		<stop
   offset="1"
   style="stop-color:#999B9E"
   id="stop3928" />
	</radialGradient><linearGradient
       id="SVGID_2_"
       gradientUnits="userSpaceOnUse"
       x1="66.232399"
       y1="24.481001"
       x2="112.7331"
       y2="97.232101">
		<stop
   offset="0"
   style="stop-color:#8A8A8A"
   id="stop3935" />
		<stop
   offset="0.5687"
   style="stop-color:#606060"
   id="stop3937" />
		<stop
   offset="0.5914"
   style="stop-color:#FFFFFF"
   id="stop3939" />
		<stop
   offset="0.6116"
   style="stop-color:#585858"
   id="stop3941" />
		<stop
   offset="1"
   style="stop-color:#303030"
   id="stop3943" />
	</linearGradient><linearGradient
       id="SVGID_5_"
       gradientUnits="userSpaceOnUse"
       x1="54.715801"
       y1="65.136703"
       x2="83.798798"
       y2="65.136703">
		<stop
   offset="0"
   style="stop-color:#231F20"
   id="stop3964" />
		<stop
   offset="1"
   style="stop-color:#474747"
   id="stop3966" />
	</linearGradient><linearGradient
       id="SVGID_6_"
       gradientUnits="userSpaceOnUse"
       x1="-123.5898"
       y1="119.8076"
       x2="-94.069099"
       y2="29.9035"
       gradientTransform="matrix(1,0,0,-1,192.3999,143.0996)">
		<stop
   offset="0"
   style="stop-color:#FFFFFF"
   id="stop3997" />
		<stop
   offset="0.0094"
   style="stop-color:#FCFCFC"
   id="stop3999" />
		<stop
   offset="0.0655"
   style="stop-color:#EEEEEE"
   id="stop4001" />
		<stop
   offset="0.1342"
   style="stop-color:#E5E5E5"
   id="stop4003" />
		<stop
   offset="0.2515"
   style="stop-color:#E3E3E3"
   id="stop4005" />
		<stop
   offset="0.3357"
   style="stop-color:#8A8A8A"
   id="stop4007" />
		<stop
   offset="0.4422"
   style="stop-color:#B8B8B8"
   id="stop4009" />
		<stop
   offset="1"
   style="stop-color:#3B3B3B"
   id="stop4011" />
	</linearGradient><linearGradient
       id="SVGID_7_"
       gradientUnits="userSpaceOnUse"
       x1="70.421898"
       y1="26.876499"
       x2="119.5471"
       y2="87.626701">
		<stop
   offset="0"
   style="stop-color:#EFF0F0"
   id="stop4016" />
		<stop
   offset="0.5914"
   style="stop-color:#F0F1F2"
   id="stop4018" />
		<stop
   offset="0.599"
   style="stop-color:#787878"
   id="stop4020" />
		<stop
   offset="0.6456"
   style="stop-color:#EEEFF0"
   id="stop4022" />
		<stop
   offset="1"
   style="stop-color:#D8D9DB"
   id="stop4024" />
	</linearGradient><linearGradient
       id="SVGID_8_"
       gradientUnits="userSpaceOnUse"
       x1="-117.166"
       y1="122.1328"
       x2="-87.569702"
       y2="31.998501"
       gradientTransform="matrix(1,0,0,-1,192.3999,143.0996)">
		<stop
   offset="0"
   style="stop-color:#FFFFFF"
   id="stop4029" />
		<stop
   offset="1"
   style="stop-color:#E4E5E6"
   id="stop4031" />
	</linearGradient><linearGradient
       id="SVGID_9_"
       gradientUnits="userSpaceOnUse"
       x1="54.653301"
       y1="25.2764"
       x2="79.683601"
       y2="106.3903">
		<stop
   offset="0"
   style="stop-color:#FFFFFF"
   id="stop4036" />
		<stop
   offset="0.7473"
   style="stop-color:#F9F9F9"
   id="stop4038" />
		<stop
   offset="1"
   style="stop-color:#D5D7D8"
   id="stop4040" />
	</linearGradient><linearGradient
       id="SVGID_10_"
       gradientUnits="userSpaceOnUse"
       x1="-115.3369"
       y1="119.6328"
       x2="-134.85719"
       y2="24.6462"
       gradientTransform="matrix(1,0,0,-1,192.3999,143.0996)">
		<stop
   offset="0"
   style="stop-color:#FFFFFF"
   id="stop4061" />
		<stop
   offset="1"
   style="stop-color:#E4E5E6"
   id="stop4063" />
	</linearGradient><linearGradient
       id="SVGID_11_"
       gradientUnits="userSpaceOnUse"
       x1="32.519001"
       y1="33.077099"
       x2="37.2481"
       y2="92.496101">
		<stop
   offset="0.2198"
   style="stop-color:#989A9C"
   id="stop4068" />
		<stop
   offset="0.2527"
   style="stop-color:#FFFFFF"
   id="stop4070" />
	</linearGradient><linearGradient
       id="SVGID_12_"
       gradientUnits="userSpaceOnUse"
       x1="-152.6201"
       y1="126.8398"
       x2="-171.9462"
       y2="32.797901"
       gradientTransform="matrix(1,0,0,-1,192.3999,143.0996)">
		<stop
   offset="0"
   style="stop-color:#FFFFFF"
   id="stop4075" />
		<stop
   offset="1"
   style="stop-color:#E4E5E6"
   id="stop4077" />
	</linearGradient><linearGradient
       id="SVGID_13_"
       gradientUnits="userSpaceOnUse"
       x1="-130.1348"
       y1="35.625"
       x2="-130.14281"
       y2="35.585701"
       gradientTransform="matrix(1,0,0,-1,192.3999,143.0996)">
		<stop
   offset="0"
   style="stop-color:#FFFFFF"
   id="stop4082" />
		<stop
   offset="1"
   style="stop-color:#E4E5E6"
   id="stop4084" />
	</linearGradient><linearGradient
       id="SVGID_14_"
       gradientUnits="userSpaceOnUse"
       x1="-121.1382"
       y1="120.3223"
       x2="-140.54491"
       y2="25.888"
       gradientTransform="matrix(1,0,0,-1,192.3999,143.0996)">
		<stop
   offset="0"
   style="stop-color:#FFFFFF"
   id="stop4093" />
		<stop
   offset="1"
   style="stop-color:#E4E5E6"
   id="stop4095" />
	</linearGradient><linearGradient
       id="SVGID_15_"
       gradientUnits="userSpaceOnUse"
       x1="-135.58591"
       y1="123.3525"
       x2="-155.006"
       y2="28.8524"
       gradientTransform="matrix(1,0,0,-1,192.3999,143.0996)">
		<stop
   offset="0"
   style="stop-color:#FFFFFF"
   id="stop4100" />
		<stop
   offset="1"
   style="stop-color:#E4E5E6"
   id="stop4102" />
	</linearGradient><linearGradient
       id="SVGID_16_"
       gradientUnits="userSpaceOnUse"
       x1="-127.4014"
       y1="121.9365"
       x2="-146.8837"
       y2="27.1346"
       gradientTransform="matrix(1,0,0,-1,192.3999,143.0996)">
		<stop
   offset="0"
   style="stop-color:#FFFFFF"
   id="stop4107" />
		<stop
   offset="1"
   style="stop-color:#E4E5E6"
   id="stop4109" />
	</linearGradient><linearGradient
       id="SVGID_17_"
       gradientUnits="userSpaceOnUse"
       x1="-118.4946"
       y1="124.0039"
       x2="-138.85201"
       y2="24.9438"
       gradientTransform="matrix(1,0,0,-1,192.3999,143.0996)">
		<stop
   offset="0"
   style="stop-color:#FFFFFF"
   id="stop4114" />
		<stop
   offset="1"
   style="stop-color:#E4E5E6"
   id="stop4116" />
	</linearGradient><linearGradient
       id="SVGID_18_"
       gradientUnits="userSpaceOnUse"
       x1="-115.3716"
       y1="119.1758"
       x2="-134.7878"
       y2="24.695299"
       gradientTransform="matrix(1,0,0,-1,192.3999,143.0996)">
		<stop
   offset="0"
   style="stop-color:#FFFFFF"
   id="stop4121" />
		<stop
   offset="1"
   style="stop-color:#E4E5E6"
   id="stop4123" />
	</linearGradient><linearGradient
       id="SVGID_21_"
       gradientUnits="userSpaceOnUse"
       x1="-175.4424"
       y1="83.6045"
       x2="-75.6362"
       y2="83.6045"
       gradientTransform="matrix(1,0,0,-1,192.3999,143.0996)">
		<stop
   offset="0"
   style="stop-color:#555555"
   id="stop4198" />
		<stop
   offset="1"
   style="stop-color:#231F20"
   id="stop4200" />
	</linearGradient><linearGradient
       id="SVGID_22_"
       gradientUnits="userSpaceOnUse"
       x1="-175.14211"
       y1="104.0801"
       x2="-83.541"
       y2="104.0801"
       gradientTransform="matrix(1,0,0,-1,192.3999,143.0996)">
		<stop
   offset="0"
   style="stop-color:#A0A0A0"
   id="stop4205" />
		<stop
   offset="0.0769"
   style="stop-color:#656767"
   id="stop4207" />
		<stop
   offset="1"
   style="stop-color:#717375"
   id="stop4209" />
	</linearGradient><linearGradient
       id="SVGID_23_"
       gradientUnits="userSpaceOnUse"
       x1="-172.3853"
       y1="78.209"
       x2="-172.3853"
       y2="78.209"
       gradientTransform="matrix(1,0,0,-1,192.3999,143.0996)">
		<stop
   offset="0"
   style="stop-color:#FFFFFF"
   id="stop4224" />
		<stop
   offset="0.078"
   style="stop-color:#F4F4F4"
   id="stop4226" />
		<stop
   offset="0.3807"
   style="stop-color:#CECECE"
   id="stop4228" />
		<stop
   offset="0.5396"
   style="stop-color:#BFBFBF"
   id="stop4230" />
		<stop
   offset="0.8357"
   style="stop-color:#7C7C7C"
   id="stop4232" />
		<stop
   offset="0.8996"
   style="stop-color:#A8A8A8"
   id="stop4234" />
		<stop
   offset="0.9093"
   style="stop-color:#9A9A9A"
   id="stop4236" />
		<stop
   offset="0.9327"
   style="stop-color:#7D7D7D"
   id="stop4238" />
		<stop
   offset="0.9558"
   style="stop-color:#686868"
   id="stop4240" />
		<stop
   offset="0.9785"
   style="stop-color:#5B5B5B"
   id="stop4242" />
		<stop
   offset="1"
   style="stop-color:#575757"
   id="stop4244" />
	</linearGradient><linearGradient
       id="SVGID_24_"
       gradientUnits="userSpaceOnUse"
       x1="-175.7173"
       y1="78.449203"
       x2="-67.153198"
       y2="90.476799"
       gradientTransform="matrix(1,0,0,-1,192.3999,143.0996)">
		<stop
   offset="0"
   style="stop-color:#FFFFFF"
   id="stop4249" />
		<stop
   offset="0.078"
   style="stop-color:#F4F4F4"
   id="stop4251" />
		<stop
   offset="0.3807"
   style="stop-color:#CECECE"
   id="stop4253" />
		<stop
   offset="0.5396"
   style="stop-color:#BFBFBF"
   id="stop4255" />
		<stop
   offset="0.8357"
   style="stop-color:#7C7C7C"
   id="stop4257" />
		<stop
   offset="0.8996"
   style="stop-color:#A8A8A8"
   id="stop4259" />
		<stop
   offset="0.9093"
   style="stop-color:#9A9A9A"
   id="stop4261" />
		<stop
   offset="0.9327"
   style="stop-color:#7D7D7D"
   id="stop4263" />
		<stop
   offset="0.9558"
   style="stop-color:#686868"
   id="stop4265" />
		<stop
   offset="0.9785"
   style="stop-color:#5B5B5B"
   id="stop4267" />
		<stop
   offset="1"
   style="stop-color:#575757"
   id="stop4269" />
	</linearGradient><linearGradient
       id="SVGID_25_"
       gradientUnits="userSpaceOnUse"
       x1="-176.1851"
       y1="78.4795"
       x2="-52.131699"
       y2="92.223099"
       gradientTransform="matrix(1,0,0,-1,192.3999,143.0996)">
		<stop
   offset="0"
   style="stop-color:#FFFFFF"
   id="stop4274" />
		<stop
   offset="0.078"
   style="stop-color:#F4F4F4"
   id="stop4276" />
		<stop
   offset="0.3807"
   style="stop-color:#CECECE"
   id="stop4278" />
		<stop
   offset="0.5396"
   style="stop-color:#BFBFBF"
   id="stop4280" />
		<stop
   offset="0.8357"
   style="stop-color:#7C7C7C"
   id="stop4282" />
		<stop
   offset="0.8996"
   style="stop-color:#A8A8A8"
   id="stop4284" />
		<stop
   offset="0.9093"
   style="stop-color:#9A9A9A"
   id="stop4286" />
		<stop
   offset="0.9327"
   style="stop-color:#7D7D7D"
   id="stop4288" />
		<stop
   offset="0.9558"
   style="stop-color:#686868"
   id="stop4290" />
		<stop
   offset="0.9785"
   style="stop-color:#5B5B5B"
   id="stop4292" />
		<stop
   offset="1"
   style="stop-color:#575757"
   id="stop4294" />
	</linearGradient><linearGradient
       id="SVGID_26_"
       gradientUnits="userSpaceOnUse"
       x1="21.2129"
       y1="71.326698"
       x2="117.1948"
       y2="51.952599">
		<stop
   offset="0"
   style="stop-color:#EDEDEE"
   id="stop4299" />
		<stop
   offset="0.4176"
   style="stop-color:#FFFFFF"
   id="stop4301" />
		<stop
   offset="0.6264"
   style="stop-color:#F8F9F9"
   id="stop4303" />
		<stop
   offset="1"
   style="stop-color:#BFC0C2"
   id="stop4305" />
	</linearGradient><linearGradient
       id="SVGID_27_"
       gradientUnits="userSpaceOnUse"
       x1="23.471201"
       y1="30.732401"
       x2="27.9561"
       y2="30.732401">
		<stop
   offset="0"
   style="stop-color:#E2E3E4"
   id="stop4316" />
		<stop
   offset="0.5055"
   style="stop-color:#FFFFFF"
   id="stop4318" />
	</linearGradient><linearGradient
       id="SVGID_34_"
       gradientUnits="userSpaceOnUse"
       x1="22.5742"
       y1="49.7188"
       x2="111.5455"
       y2="29.204">
		<stop
   offset="0"
   style="stop-color:#FFFFFF"
   id="stop4743" />
		<stop
   offset="0.6538"
   style="stop-color:#FFFFFF"
   id="stop4745" />
		<stop
   offset="1"
   style="stop-color:#CBCCCE"
   id="stop4747" />
	</linearGradient><linearGradient
       id="SVGID_35_"
       gradientUnits="userSpaceOnUse"
       x1="-158.8101"
       y1="107.0898"
       x2="-126.4229"
       y2="107.0898"
       gradientTransform="matrix(1,0,0,-1,192.3999,143.0996)">
		<stop
   offset="0"
   style="stop-color:#696969"
   id="stop4770" />
		<stop
   offset="0.3702"
   style="stop-color:#2E2E2E"
   id="stop4772" />
		<stop
   offset="0.4554"
   style="stop-color:#424242"
   id="stop4774" />
		<stop
   offset="0.6014"
   style="stop-color:#303030"
   id="stop4776" />
		<stop
   offset="0.6947"
   style="stop-color:#4A4A4A"
   id="stop4778" />
		<stop
   offset="1"
   style="stop-color:#666666"
   id="stop4780" />
	</linearGradient><linearGradient
       id="SVGID_36_"
       gradientUnits="userSpaceOnUse"
       x1="-158.4185"
       y1="107.8965"
       x2="-126.5454"
       y2="107.8965"
       gradientTransform="matrix(1,0,0,-1,192.3999,143.0996)">
		<stop
   offset="0"
   style="stop-color:#525252"
   id="stop4785" />
		<stop
   offset="0.1856"
   style="stop-color:#333333"
   id="stop4787" />
		<stop
   offset="0.354"
   style="stop-color:#AEAEAE"
   id="stop4789" />
		<stop
   offset="0.4199"
   style="stop-color:#ADADAD"
   id="stop4791" />
		<stop
   offset="0.4276"
   style="stop-color:#9D9D9D"
   id="stop4793" />
		<stop
   offset="0.4433"
   style="stop-color:#818181"
   id="stop4795" />
		<stop
   offset="0.4611"
   style="stop-color:#6A6A6A"
   id="stop4797" />
		<stop
   offset="0.4814"
   style="stop-color:#585858"
   id="stop4799" />
		<stop
   offset="0.506"
   style="stop-color:#4C4C4C"
   id="stop4801" />
		<stop
   offset="0.539"
   style="stop-color:#444444"
   id="stop4803" />
		<stop
   offset="0.6166"
   style="stop-color:#424242"
   id="stop4805" />
		<stop
   offset="0.6684"
   style="stop-color:#454545"
   id="stop4807" />
		<stop
   offset="1"
   style="stop-color:#BDBDBD"
   id="stop4809" />
	</linearGradient><linearGradient
       id="SVGID_37_"
       gradientUnits="userSpaceOnUse"
       x1="-153.1255"
       y1="97.627899"
       x2="-154.15421"
       y2="104.4332"
       gradientTransform="matrix(1,0,0,-1,192.3999,143.0996)">
		<stop
   offset="0"
   style="stop-color:#969696"
   id="stop4814" />
		<stop
   offset="1"
   style="stop-color:#000000"
   id="stop4816" />
	</linearGradient><linearGradient
       id="SVGID_38_"
       gradientUnits="userSpaceOnUse"
       x1="38.737301"
       y1="46.373001"
       x2="39.487301"
       y2="38.790001">
		<stop
   offset="0"
   style="stop-color:#333333"
   id="stop4825" />
		<stop
   offset="0.431"
   style="stop-color:#000000"
   id="stop4827" />
		<stop
   offset="1"
   style="stop-color:#2E2E2E"
   id="stop4829" />
	</linearGradient><radialGradient
       id="SVGID_39_"
       cx="-138.2334"
       cy="106.5996"
       r="72.751701"
       gradientTransform="matrix(1,0,0,-1,192.3999,143.0996)"
       gradientUnits="userSpaceOnUse">
		<stop
   offset="0"
   style="stop-color:#000000;stop-opacity:0;"
   id="stop4840" />
		<stop
   offset="0.80220002"
   style="stop-color:#000000;stop-opacity:0.08;"
   id="stop4842" />
		<stop
   offset="1"
   style="stop-color:#000000;stop-opacity:0.3882353;"
   id="stop4844" />
	</radialGradient></defs><g
     id="Wikipedia"
     transform="matrix(0.964734,0,0,1.03656,-5.1239483,-119.23463)"><path
       id="path8475"
       d="m 9.7395439,117.34755 c -0.047216,-0.42272 0.047206,-0.71684 0.2832661,-0.88236 0.23605,-0.1655 0.897005,-0.24472 1.982865,-0.23769 0.780331,-0.0239 1.531366,0.21274 2.253107,0.7098 0.721721,0.49709 1.108092,1.39789 1.159113,2.70243 -0.02117,1.09346 -0.376071,1.86945 -1.064691,2.32799 -0.688639,0.45855 -1.58402,0.68104 -2.686146,0.66747 H 9.7395439 Z m 0,6.17325 H 12.05777 c 1.524311,0.0347 2.669314,0.46669 3.435011,1.29586 0.765676,0.82919 1.148791,1.84721 1.149346,3.05407 0.04991,0.97624 -0.245292,1.79131 -0.885615,2.44521 -0.640344,0.6539 -1.925352,0.9936 -3.855027,1.0191 -0.887792,0.004 -1.47603,-0.0884 -1.764717,-0.27675 -0.2886982,-0.1883 -0.421106,-0.49544 -0.3972241,-0.92143 z m -4.428072,8.15286 v 0.4949 l 0.052095,0.0521 c 0.056436,-0.002 0.4449773,-0.0109 1.1656252,-0.026 0.7206446,-0.0152 1.4347789,-0.0239 2.142405,-0.026 0.6484692,0.002 1.1618212,0.0109 1.5400579,0.026 0.378225,0.0152 1.106469,0.0239 2.184732,0.026 2.541247,-0.0619 4.283171,-0.58932 5.225775,-1.58239 0.94258,-0.99305 1.388643,-2.08053 1.33819,-3.26244 -0.02335,-1.24431 -0.399951,-2.23954 -1.129809,-2.9857 -0.729885,-0.74614 -1.67302,-1.27903 -2.829408,-1.59866 0.682108,-0.33969 1.251896,-0.8194 1.709366,-1.43912 0.457446,-0.6197 0.695129,-1.29477 0.71305,-2.02519 0.06945,-0.92956 -0.258316,-1.81192 -0.983292,-2.64708 -0.725,-0.83513 -2.26397,-1.28119 -4.616917,-1.33819 -0.453667,10e-4 -0.939886,0.005 -1.458659,0.013 -0.5187832,0.008 -1.0831447,0.012 -1.6930859,0.013 -0.7076266,-0.001 -1.4217613,-0.005 -2.1424062,-0.013 -0.7206482,-0.008 -1.1091891,-0.0119 -1.165624,-0.013 l -0.052095,0.026 v 0.52095 c -5.428e-4,0.0532 0.013567,0.0966 0.042328,0.13024 0.02876,0.0337 0.075429,0.051 0.1400046,0.0521 l 0.7814245,0.0521 c 0.5464522,0.0244 0.9122019,0.10583 1.0972499,0.24419 0.1850431,0.13839 0.2707827,0.42166 0.2572191,0.8498 v 13.10188 c 0.011935,0.43956 -0.07706,0.72608 -0.2669871,0.85957 -0.1899319,0.13349 -0.5524255,0.21164 -1.0874819,0.23443 l -0.7814245,0.0521 c -0.1258969,0.004 -0.1866743,0.0738 -0.1823324,0.20838 z" /><path
       id="path8477"
       d="m 22.815412,120.18672 c -0.608321,-0.002 -1.221522,-0.0108 -1.839604,-0.026 -0.618087,-0.0152 -0.951277,-0.0239 -0.999572,-0.026 l -0.07814,0.0521 v 0.59909 c -10e-7,0.0738 0.05209,0.10855 0.156285,0.10419 l 0.781424,0.0521 c 0.451487,0.008 0.733668,0.0961 0.846543,0.26373 0.112869,0.16769 0.160623,0.52259 0.143261,1.06469 v 7.94448 c 0.01736,0.44552 -0.03039,0.75267 -0.143261,0.92143 -0.112875,0.16877 -0.395056,0.26102 -0.846543,0.27676 l -0.807472,0.0521 c -0.08249,0.004 -0.125897,0.0478 -0.130237,0.13024 v 0.57304 l 0.02605,0.0521 c 0.05047,-0.002 0.392339,-0.0109 1.02562,-0.026 0.633276,-0.0152 1.25516,-0.0239 1.865651,-0.026 0.45257,0.002 0.908401,0.0109 1.367492,0.026 0.459081,0.0152 0.706532,0.0239 0.742354,0.026 l 0.02605,-0.0521 v -0.54699 c -6e-6,-0.10419 -0.0521,-0.15629 -0.156285,-0.15629 -0.427618,0.004 -0.698946,-0.0624 -0.813984,-0.19861 -0.115048,-0.13621 -0.164972,-0.36521 -0.149773,-0.687 v -0.0521 l 5.365782,-7.26724 v 6.90258 c 0.0141,0.44769 -0.04668,0.76352 -0.182333,0.94747 -0.135674,0.18397 -0.430878,0.2849 -0.885614,0.30281 l -0.807472,0.0521 c -0.08249,0.004 -0.125905,0.0478 -0.130237,0.13024 v 0.57304 0.0521 c 0.04992,-0.002 0.392874,-0.0109 1.028875,-0.026 0.635982,-0.0152 1.265463,-0.0239 1.888443,-0.026 0.637608,0.002 1.283368,0.0109 1.93728,0.026 0.653887,0.0152 1.006613,0.0239 1.05818,0.026 l 0.02605,-0.0521 v -0.54699 c -1.4e-5,-0.10419 -0.05211,-0.15629 -0.156284,-0.15629 l -0.781425,-0.0521 c -0.452588,-0.0146 -0.73911,-0.10908 -0.859567,-0.28327 -0.120482,-0.17419 -0.172577,-0.49653 -0.156285,-0.96701 v -7.94448 c -0.01955,-0.51552 0.02604,-0.85196 0.13675,-1.00934 0.110689,-0.15736 0.403723,-0.24636 0.879102,-0.26699 L 32.97393,120.89 c 0.104175,-0.004 0.15627,-0.0477 0.156284,-0.13023 v -0.57305 l -0.02605,-0.0521 c -0.05157,0.002 -0.404292,0.0109 -1.058179,0.026 -0.653913,0.0152 -1.299673,0.0239 -1.937281,0.026 -0.39832,-0.002 -0.806397,-0.0108 -1.224232,-0.026 -0.417855,-0.0152 -0.6436,-0.0239 -0.677235,-0.026 l -0.05209,0.0521 v 0.59909 c 0.0043,0.0738 0.04774,0.10855 0.130238,0.10419 0.425432,0.008 0.688077,0.11614 0.787936,0.3256 0.09984,0.20947 0.14108,0.47429 0.123726,0.79445 l -5.365782,7.29329 v -7.05887 c -0.01737,-0.52799 0.0369,-0.87203 0.162797,-1.03213 0.125891,-0.16007 0.427608,-0.25015 0.90515,-0.27024 l 0.781425,-0.0521 c 0.104183,-0.004 0.156278,-0.0477 0.156285,-0.13023 v -0.57305 l -0.05209,-0.0521 c -0.0521,0.002 -0.403743,0.0109 -1.054924,0.026 -0.651192,0.0152 -1.289355,0.0239 -1.914489,0.026 z" /><path
       id="path8479"
       d="m 37.566862,126.04741 c 0.945301,0.15846 1.620364,0.54483 2.025192,1.15911 0.404814,0.61429 0.728237,1.28718 0.970268,2.01868 0.216512,0.58824 0.525826,1.20904 0.927942,1.86239 0.402099,0.65336 0.926304,1.01368 1.572617,1.08097 l 1.901466,0.026 0.0521,-0.0521 v -0.49491 c -0.0054,-0.0884 -0.04017,-0.14597 -0.10419,-0.17256 -0.06405,-0.0266 -0.124823,-0.0385 -0.182333,-0.0358 h -0.208379 c -0.497085,-0.0781 -0.96811,-0.51443 -1.413077,-1.30888 -0.444987,-0.79445 -0.772751,-1.47819 -0.983292,-2.05124 -0.275135,-0.66149 -0.662591,-1.23345 -1.162369,-1.71588 -0.499794,-0.48241 -1.102141,-0.73529 -1.807044,-0.75863 0.656064,-0.1514 1.173757,-0.49978 1.553081,-1.04516 0.379308,-0.54536 0.669086,-1.08259 0.869335,-1.61168 0.132942,-0.31636 0.277289,-0.60831 0.43304,-0.87585 0.155733,-0.26752 0.306591,-0.4097 0.452575,-0.42653 0.10635,-5.3e-4 0.212711,0.007 0.319081,0.0228 0.106351,0.0157 0.199688,0.0429 0.280011,0.0814 0.09495,0.0554 0.211082,0.10746 0.348384,0.15629 0.137282,0.0488 0.272946,0.0749 0.406993,0.0781 0.280542,-0.009 0.513883,-0.10852 0.700025,-0.29955 0.186119,-0.191 0.282712,-0.42109 0.289779,-0.69026 0.0011,-0.33372 -0.118311,-0.61047 -0.358153,-0.83026 -0.239865,-0.21976 -0.6067,-0.33372 -1.100506,-0.34187 -0.615381,0.0353 -1.110283,0.32289 -1.484707,0.86282 -0.374441,0.53995 -0.687011,1.1206 -0.937709,1.74193 -0.262111,0.67127 -0.636544,1.2823 -1.123298,1.83309 -0.486769,0.5508 -1.232377,0.84275 -2.236827,0.87584 v -3.38617 c -0.0049,-0.25666 0.07651,-0.44659 0.244195,-0.56979 0.167675,-0.12317 0.450941,-0.2024 0.849799,-0.23768 l 0.546997,-0.0521 c 0.104184,-0.004 0.156279,-0.0477 0.156285,-0.13023 v -0.57305 l -0.02605,-0.0521 c -0.06892,0.002 -0.432503,0.0109 -1.090738,0.026 -0.658247,0.0152 -1.197646,0.0239 -1.6182,0.026 -0.472657,-0.002 -1.051128,-0.0108 -1.735414,-0.026 -0.684291,-0.0152 -1.060893,-0.0239 -1.129809,-0.026 l -0.02605,0.0521 v 0.59909 c 0.0011,0.0385 0.01845,0.0657 0.0521,0.0814 0.03364,0.0157 0.07706,0.0233 0.130237,0.0228 l 0.52095,0.0521 c 0.399936,0.032 0.687543,0.10474 0.862823,0.21815 0.175275,0.11342 0.261014,0.30986 0.257219,0.58932 v 8.67381 c 0.0071,0.25288 -0.07218,0.46994 -0.237684,0.65119 -0.165513,0.18125 -0.459632,0.29412 -0.882358,0.33862 l -0.52095,0.0521 c -0.05318,0 -0.09659,0.013 -0.130237,0.0391 -0.03365,0.026 -0.05101,0.0651 -0.0521,0.11722 v 0.54699 l 0.0521,0.0521 c 0.06946,-0.002 0.438465,-0.0109 1.107018,-0.026 0.668549,-0.0152 1.219887,-0.0239 1.654015,-0.026 0.469393,0.002 1.03484,0.0109 1.696342,0.026 0.661492,0.0152 1.025071,0.0239 1.090739,0.026 l 0.02605,-0.0521 v -0.54699 c -0.0016,-0.0521 -0.01791,-0.0912 -0.04884,-0.11722 -0.03094,-0.026 -0.06675,-0.0391 -0.107446,-0.0391 l -0.546997,-0.0521 c -0.410253,-0.0396 -0.696775,-0.14272 -0.859567,-0.30932 -0.162801,-0.16659 -0.240944,-0.39342 -0.234427,-0.68049 z" /><path
       id="path8481"
       d="m 48.358253,120.18672 c -0.608321,-0.002 -1.221522,-0.0108 -1.839604,-0.026 -0.618087,-0.0152 -0.951277,-0.0239 -0.999572,-0.026 l -0.07814,0.0521 v 0.59909 c -10e-7,0.0738 0.05209,0.10855 0.156285,0.10419 l 0.781424,0.0521 c 0.451487,0.008 0.733668,0.0961 0.846543,0.26373 0.112869,0.16769 0.160623,0.52259 0.143261,1.06469 v 7.94448 c 0.01736,0.44552 -0.03039,0.75267 -0.143261,0.92143 -0.112875,0.16877 -0.395056,0.26102 -0.846543,0.27676 l -0.807472,0.0521 c -0.08248,0.004 -0.125897,0.0478 -0.130237,0.13024 v 0.57304 l 0.02605,0.0521 c 0.05047,-0.002 0.392339,-0.0109 1.02562,-0.026 0.633276,-0.0152 1.255159,-0.0239 1.865651,-0.026 0.45257,0.002 0.908401,0.0109 1.367492,0.026 0.459081,0.0152 0.706532,0.0239 0.742354,0.026 l 0.02605,-0.0521 v -0.54699 c -6e-6,-0.10419 -0.0521,-0.15629 -0.156285,-0.15629 -0.427618,0.004 -0.698946,-0.0624 -0.813984,-0.19861 -0.115048,-0.13621 -0.164972,-0.36521 -0.149773,-0.687 v -0.0521 l 5.365782,-7.26724 v 6.90258 c 0.0141,0.44769 -0.04668,0.76352 -0.182333,0.94747 -0.135674,0.18397 -0.430878,0.2849 -0.885614,0.30281 l -0.807472,0.0521 c -0.08249,0.004 -0.125905,0.0478 -0.130237,0.13024 v 0.57304 0.0521 c 0.04992,-0.002 0.392874,-0.0109 1.028875,-0.026 0.635982,-0.0152 1.265463,-0.0239 1.888443,-0.026 0.637608,0.002 1.283368,0.0109 1.93728,0.026 0.653887,0.0152 1.006613,0.0239 1.05818,0.026 l 0.02605,-0.0521 v -0.54699 c -1.4e-5,-0.10419 -0.05211,-0.15629 -0.156284,-0.15629 l -0.781425,-0.0521 c -0.452588,-0.0146 -0.73911,-0.10908 -0.859567,-0.28327 -0.120482,-0.17419 -0.172577,-0.49653 -0.156285,-0.96701 v -7.94448 c -0.01955,-0.51552 0.02604,-0.85196 0.13675,-1.00934 0.110689,-0.15736 0.403723,-0.24636 0.879102,-0.26699 l 0.781425,-0.0521 c 0.104175,-0.004 0.15627,-0.0477 0.156284,-0.13023 v -0.57305 l -0.02605,-0.0521 c -0.05157,0.002 -0.404292,0.0109 -1.058179,0.026 -0.653913,0.0152 -1.299673,0.0239 -1.937281,0.026 -0.39832,-0.002 -0.806397,-0.0108 -1.224232,-0.026 -0.417855,-0.0152 -0.6436,-0.0239 -0.677235,-0.026 l -0.0521,0.0521 v 0.59909 c 0.0043,0.0738 0.04774,0.10855 0.130238,0.10419 0.425432,0.008 0.688077,0.11614 0.787936,0.3256 0.09984,0.20947 0.14108,0.47429 0.123726,0.79445 l -5.365782,7.29329 v -7.05887 c -0.01737,-0.52799 0.0369,-0.87203 0.162797,-1.03213 0.125891,-0.16007 0.427608,-0.25015 0.90515,-0.27024 l 0.781425,-0.0521 c 0.104183,-0.004 0.156278,-0.0477 0.156284,-0.13023 v -0.57305 l -0.05209,-0.0521 c -0.0521,0.002 -0.403743,0.0109 -1.054924,0.026 -0.651192,0.0152 -1.289355,0.0239 -1.914489,0.026 z" /><path
       id="path8483"
       d="m 61.234282,122.16633 v 8.10077 c 0.01953,0.44335 -0.02605,0.74181 -0.136749,0.89538 -0.110705,0.15357 -0.403739,0.23714 -0.879103,0.25071 l -0.807471,0.0521 c -0.08248,0.004 -0.125898,0.0478 -0.130238,0.13024 v 0.57304 l 0.02605,0.0521 c 0.07163,-0.002 0.455829,-0.0109 1.152601,-0.026 0.696767,-0.0152 1.276323,-0.0239 1.738669,-0.026 0.461253,0.002 1.036468,0.0109 1.725645,0.026 0.689167,0.0152 1.069026,0.0239 1.139578,0.026 l 0.0521,-0.0521 v -0.54699 c -7e-6,-0.10419 -0.0521,-0.15629 -0.156285,-0.15629 l -0.677234,-0.0521 c -0.430875,-0.0201 -0.715226,-0.0971 -0.853056,-0.23117 -0.137839,-0.13404 -0.200787,-0.43901 -0.188844,-0.91492 v -8.07472 c 0.01085,-0.44117 0.11938,-0.72444 0.325594,-0.8498 0.206203,-0.12534 0.444972,-0.18069 0.716306,-0.16605 h 3.177792 c 0.270234,-0.0163 0.504661,0.0358 0.703282,0.15628 0.198603,0.12048 0.302792,0.407 0.31257,0.85957 v 8.07472 c 0.01953,0.44172 -0.02606,0.73693 -0.136749,0.88561 -0.110712,0.14869 -0.403746,0.23552 -0.879103,0.26048 l -0.703282,0.0521 c -0.104198,0.004 -0.156293,0.0478 -0.156284,0.13024 v 0.57304 l 0.05209,0.0521 c 0.0662,-0.002 0.428689,-0.0109 1.087482,-0.026 0.658775,-0.0152 1.216624,-0.0239 1.673551,-0.026 0.478068,0.002 1.078244,0.0109 1.800532,0.026 0.722261,0.0152 1.12057,0.0239 1.194928,0.026 l 0.05209,-0.0521 v -0.54699 c -1.4e-5,-0.10419 -0.05211,-0.15629 -0.156285,-0.15629 l -0.807472,-0.0521 c -0.441192,-0.009 -0.724458,-0.0825 -0.8498,-0.22141 -0.125365,-0.13892 -0.180716,-0.44714 -0.166052,-0.92468 v -8.12682 c -0.01792,-0.52528 0.03092,-0.85521 0.146518,-0.9898 0.115574,-0.13457 0.405351,-0.20403 0.869334,-0.20838 l 0.807472,-0.0521 c 0.104176,-0.004 0.156271,-0.0477 0.156285,-0.13023 v -0.57305 l -0.05209,-0.0521 c -0.07599,0.002 -0.477551,0.0109 -1.204696,0.026 -0.727171,0.0152 -1.324092,0.0239 -1.790764,0.026 h -7.189105 c -0.462347,-0.002 -1.041903,-0.0108 -1.73867,-0.026 -0.696772,-0.0152 -1.080971,-0.0239 -1.152601,-0.026 l -0.0521,0.0521 v 0.59909 c -10e-7,0.0738 0.05209,0.10855 0.156285,0.10419 l 0.781424,0.0521 c 0.452573,0.004 0.739095,0.0744 0.859567,0.21163 0.120467,0.13731 0.172562,0.47484 0.156285,1.0126 z" /><path
       id="path8485"
       d="m 80.283569,132.16856 c 0.438458,0.002 0.922506,0.0109 1.452147,0.026 0.529622,0.0152 0.818315,0.0239 0.866079,0.026 l 0.0521,-0.0521 0.520949,-2.99546 -0.651187,-0.0781 c -0.152496,0.68375 -0.420568,1.21772 -0.804215,1.60192 -0.383667,0.3842 -0.905702,0.57956 -1.566105,0.58607 h -2.474511 c -0.236604,-0.0103 -0.421107,-0.11341 -0.55351,-0.30931 -0.132413,-0.1959 -0.199702,-0.42273 -0.201867,-0.68049 v -3.98527 h 1.953561 c 0.332098,10e-4 0.573037,0.0705 0.722818,0.20838 0.149765,0.13784 0.247443,0.33754 0.293034,0.59909 l 0.130237,0.57305 c -0.0043,0.0825 0.05643,0.1259 0.182333,0.13023 h 0.442807 l 0.05209,-0.0521 c -0.02931,-0.29629 -0.06187,-0.58932 -0.09768,-0.8791 -0.03582,-0.28978 -0.05536,-0.59583 -0.05861,-0.91818 0.0032,-0.31799 0.02278,-0.64575 0.05861,-0.98329 0.03581,-0.33752 0.06837,-0.65226 0.09768,-0.94422 0.0011,-0.026 -0.0011,-0.0456 -0.0065,-0.0586 -0.0054,-0.013 -0.02063,-0.0195 -0.04558,-0.0195 h -0.442807 c -0.104198,0.004 -0.156293,0.0478 -0.156285,0.13023 l -0.156285,0.547 c -0.04234,0.26265 -0.133501,0.46669 -0.273499,0.61212 -0.140013,0.14544 -0.387463,0.21924 -0.742353,0.2214 h -1.953561 v -3.77688 c 5.38e-4,-0.21977 0.06457,-0.37931 0.1921,-0.47863 0.127519,-0.0993 0.315278,-0.14813 0.563277,-0.14651 h 2.083798 c 0.813434,0.0375 1.394075,0.30769 1.741926,0.81072 0.347832,0.50306 0.583345,1.01424 0.706538,1.53355 l 0.651187,-0.10419 c -0.09443,-0.49327 -0.179087,-0.99793 -0.253964,-1.51401 -0.0749,-0.51606 -0.120479,-1.05328 -0.136749,-1.61169 l -0.05209,-0.0521 c -0.06079,0.002 -0.401576,0.0109 -1.022365,0.026 -0.620807,0.0152 -1.15695,0.0239 -1.608431,0.026 h -3.82898 c -0.459091,-0.002 -1.025623,-0.0108 -1.699599,-0.026 -0.67398,-0.0152 -1.045156,-0.0239 -1.113529,-0.026 l -0.02605,0.0521 v 0.59909 c -0.0033,0.0141 0.0033,0.0315 0.01954,0.0521 0.01628,0.0206 0.06186,0.038 0.136749,0.0521 l 0.599092,0.0521 c 0.362493,0.0168 0.627308,0.0744 0.794448,0.17256 0.167135,0.0982 0.249619,0.29251 0.247452,0.58282 v 8.59567 c 0.0071,0.2697 -0.06566,0.51172 -0.218148,0.72607 -0.152489,0.21435 -0.427072,0.34567 -0.823752,0.39397 l -0.599092,0.0521 c -0.06349,0.002 -0.105819,0.0174 -0.126981,0.0456 -0.02117,0.0282 -0.03093,0.0564 -0.0293,0.0846 v 0.57304 l 0.02605,0.0521 c 0.05861,-0.002 0.390711,-0.0109 0.996316,-0.026 0.605602,-0.0152 1.133062,-0.0239 1.582385,-0.026 z" /><path
       id="path8487"
       d="m 86.77182,130.84014 c 0.01953,-0.19698 0.143257,-1.00771 0.371177,-2.43218 0.227911,-1.42447 0.442803,-3.6092 0.644675,-6.5542 -0.0076,-0.0738 0.04015,-0.19969 0.143261,-0.37769 0.103099,-0.17798 0.307138,-0.27783 0.612116,-0.29954 h 2.656843 c 0.465048,-0.003 0.759167,0.0944 0.882358,0.29303 0.123174,0.19862 0.176354,0.5177 0.159541,0.95725 v 7.44958 c 0.01681,0.42924 -0.03637,0.7494 -0.159541,0.9605 -0.123192,0.21109 -0.417311,0.31637 -0.882358,0.31582 h -3.93317 c -0.134583,0.005 -0.249626,-0.0114 -0.34513,-0.0488 -0.09551,-0.0374 -0.145435,-0.12535 -0.149772,-0.26373 z m 0.442807,1.32842 h 4.922974 c 1.280115,0.0445 2.158131,0.41134 2.634052,1.10051 0.475897,0.68917 0.761334,1.43369 0.856311,2.23357 h 0.651187 l -0.156285,-3.51641 c -0.01141,-0.16822 -0.07978,-0.29412 -0.205124,-0.37769 -0.125366,-0.0836 -0.239324,-0.13132 -0.341873,-0.14326 l -0.442807,-0.0521 c -0.392352,-0.0402 -0.649571,-0.14869 -0.771657,-0.3256 -0.122109,-0.1769 -0.17746,-0.49381 -0.166053,-0.95073 v -8.02262 c -0.01032,-0.42815 0.06891,-0.71793 0.237684,-0.86934 0.168755,-0.15139 0.488921,-0.25232 0.960501,-0.3028 l 0.416759,-0.0521 c 0.05425,-0.003 0.102007,-0.0233 0.143261,-0.0619 0.04123,-0.0385 0.06293,-0.0787 0.06512,-0.12047 v -0.57304 c -0.381499,0.002 -0.829733,0.0109 -1.344701,0.026 -0.514992,0.0152 -0.995785,0.0239 -1.442379,0.026 h -6.016969 c -0.391801,-0.002 -0.799878,-0.0108 -1.224231,-0.026 -0.42436,-0.0152 -0.858484,-0.0239 -1.302374,-0.026 v 0.62514 c -2e-6,0.0825 0.05209,0.1259 0.156284,0.13023 l 0.703282,0.0521 c 0.466138,0.051 0.764599,0.1704 0.895382,0.35815 0.130777,0.18777 0.188299,0.37227 0.172565,0.55351 -0.0081,1.57154 -0.102565,3.09749 -0.283266,4.57785 -0.180708,1.48037 -0.398855,2.78491 -0.654443,3.91363 -0.09117,0.3473 -0.247454,0.60343 -0.468855,0.7684 -0.221405,0.16497 -0.507927,0.26482 -0.859567,0.29955 l -0.416759,0.0521 c -0.109618,0.0119 -0.209467,0.0597 -0.299547,0.14326 -0.09008,0.0836 -0.137835,0.20947 -0.143261,0.37769 l -0.156285,3.51641 h 0.651188 c 0.01411,-0.57196 0.233341,-1.25137 0.657698,-2.03821 0.424355,-0.78686 1.281751,-1.21881 2.572189,-1.29587 z" /><path
       id="path8489"
       d="m 99.698306,120.18672 c -0.60832,-0.002 -1.221521,-0.0108 -1.839604,-0.026 -0.618086,-0.0152 -0.951277,-0.0239 -0.999571,-0.026 l -0.07814,0.0521 v 0.59909 c -10e-7,0.0738 0.05209,0.10855 0.156285,0.10419 l 0.781425,0.0521 c 0.451487,0.008 0.733668,0.0961 0.846542,0.26373 0.11287,0.16769 0.160624,0.52259 0.143262,1.06469 v 7.94448 c 0.01736,0.44552 -0.03039,0.75267 -0.143262,0.92143 -0.112875,0.16877 -0.395056,0.26102 -0.846542,0.27676 l -0.807472,0.0521 c -0.08249,0.004 -0.125898,0.0478 -0.130238,0.13024 v 0.57304 l 0.02605,0.0521 c 0.05047,-0.002 0.392338,-0.0109 1.025619,-0.026 0.633277,-0.0152 1.25516,-0.0239 1.865651,-0.026 0.452579,0.002 0.908409,0.0109 1.367489,0.026 0.45908,0.0152 0.70653,0.0239 0.74236,0.026 l 0.026,-0.0521 v -0.54699 c -1e-5,-0.10419 -0.0521,-0.15629 -0.15629,-0.15629 -0.42761,0.004 -0.69893,-0.0624 -0.81398,-0.19861 -0.11504,-0.13621 -0.16496,-0.36521 -0.14977,-0.687 v -0.0521 l 5.36578,-7.26724 v 6.90258 c 0.0141,0.44769 -0.0467,0.76352 -0.18232,0.94747 -0.13568,0.18397 -0.43089,0.2849 -0.88563,0.30281 l -0.80746,0.0521 c -0.0825,0.004 -0.1259,0.0478 -0.13024,0.13024 v 0.57304 0.0521 c 0.0499,-0.002 0.39288,-0.0109 1.02888,-0.026 0.63598,-0.0152 1.26546,-0.0239 1.88844,-0.026 0.63761,0.002 1.28337,0.0109 1.93728,0.026 0.65389,0.0152 1.00661,0.0239 1.05818,0.026 l 0.026,-0.0521 v -0.54699 c -2e-5,-0.10419 -0.0521,-0.15629 -0.15629,-0.15629 l -0.78141,-0.0521 c -0.45259,-0.0146 -0.73911,-0.10908 -0.85958,-0.28327 -0.12048,-0.17419 -0.17256,-0.49653 -0.15627,-0.96701 v -7.94448 c -0.0195,-0.51552 0.026,-0.85196 0.13675,-1.00934 0.11069,-0.15736 0.40372,-0.24636 0.8791,-0.26699 l 0.78141,-0.0521 c 0.10418,-0.004 0.15628,-0.0477 0.15629,-0.13023 v -0.57305 l -0.026,-0.0521 c -0.0516,0.002 -0.4043,0.0109 -1.05818,0.026 -0.65391,0.0152 -1.29967,0.0239 -1.93728,0.026 -0.39832,-0.002 -0.8064,-0.0108 -1.22423,-0.026 -0.41787,-0.0152 -0.64361,-0.0239 -0.67724,-0.026 l -0.0521,0.0521 v 0.59909 c 0.004,0.0738 0.0477,0.10855 0.13024,0.10419 0.42543,0.008 0.68807,0.11614 0.78793,0.3256 0.0998,0.20947 0.14108,0.47429 0.12373,0.79445 l -5.36578,7.29329 v -7.05887 c -0.0174,-0.52799 0.0369,-0.87203 0.16279,-1.03213 0.1259,-0.16007 0.42761,-0.25015 0.90515,-0.27024 l 0.78143,-0.0521 c 0.10418,-0.004 0.15628,-0.0477 0.15628,-0.13023 v -0.57305 l -0.0521,-0.0521 c -0.0521,0.002 -0.40374,0.0109 -1.05492,0.026 -0.6512,0.0152 -1.28936,0.0239 -1.914499,0.026 z" /><path
       id="path8491"
       d="m 115.17908,129.66801 v -7.94449 c -0.004,-0.25232 0.0819,-0.4314 0.25722,-0.53723 0.17527,-0.1058 0.46288,-0.1872 0.86282,-0.24419 l 0.33862,-0.0521 c 0.0532,-0.0119 0.0966,-0.0271 0.13024,-0.0456 0.0336,-0.0184 0.051,-0.0467 0.0521,-0.0846 v -0.57305 l -0.0521,-0.0521 c -0.0608,0.002 -0.39506,0.0109 -1.00283,0.026 -0.60778,0.0152 -1.12439,0.0239 -1.54983,0.026 -0.46777,-0.002 -1.06903,-0.0108 -1.80379,-0.026 -0.73475,-0.0152 -1.14066,-0.0239 -1.21771,-0.026 l -0.026,0.0521 v 0.57305 c 0.002,0.0396 0.0179,0.0711 0.0488,0.0944 0.0309,0.0233 0.0667,0.0353 0.10744,0.0358 l 0.72933,0.0521 c 0.39994,0.0196 0.68754,0.0847 0.86283,0.19535 0.17527,0.11072 0.26101,0.30607 0.25721,0.58607 v 8.49148 c -0.0212,2.27699 -0.20675,3.76603 -0.55676,4.46715 -0.35002,0.7011 -0.73747,1.01801 -1.16237,0.95073 -0.16497,-0.002 -0.29738,-0.0434 -0.39722,-0.12373 -0.0998,-0.0803 -0.19319,-0.18667 -0.28001,-0.31908 -0.10908,-0.16388 -0.2556,-0.31148 -0.43956,-0.44281 -0.18396,-0.13132 -0.4542,-0.20078 -0.81072,-0.20838 -0.18722,0.003 -0.38583,0.0819 -0.59584,0.23769 -0.21001,0.15574 -0.32396,0.37171 -0.34187,0.64793 0.0309,0.43032 0.22303,0.75483 0.5763,0.97352 0.35327,0.21869 0.68212,0.32831 0.98655,0.32885 0.30877,0.0179 0.70708,-0.0244 1.19492,-0.12698 0.48785,-0.10256 1.00988,-0.37281 1.56611,-0.81073 0.70979,-0.53994 1.2633,-1.28989 1.66053,-2.24985 0.39722,-0.95996 0.59908,-2.25039 0.6056,-3.8713 z" /><path
       id="path8493"
       d="m 123.5077,124.79713 c -0.28436,0.002 -0.47754,-0.0217 -0.57955,-0.0716 -0.10203,-0.0499 -0.12591,-0.13892 -0.0716,-0.26699 l 2.60474,-6.61606 h 0.0521 l 2.52661,6.95468 z m -2.89127,5.31368 1.51076,-3.77688 c 0.0559,-0.16659 0.14597,-0.28272 0.27024,-0.34839 0.12426,-0.0657 0.33807,-0.0971 0.64142,-0.0944 h 5.41788 l 1.58889,4.40203 c 0.13023,0.36086 0.10418,0.62894 -0.0781,0.80421 -0.18235,0.17528 -0.52096,0.28055 -1.01585,0.31583 l -0.72933,0.0521 c -0.12591,0.004 -0.18669,0.0738 -0.18233,0.20838 v 0.4949 l 0.026,0.0521 c 0.0259,-6.4e-4 0.25773,-0.005 0.69557,-0.0135 0.43781,-0.008 0.92628,-0.0167 1.46541,-0.0251 0.5391,-0.008 0.97355,-0.0129 1.30334,-0.0135 0.57031,0.002 1.20088,0.0109 1.8917,0.026 0.69078,0.0152 1.06738,0.0239 1.12981,0.026 l 0.0781,-0.0521 v -0.4949 c -0.003,-0.0657 -0.0299,-0.11667 -0.0814,-0.15303 -0.0516,-0.0363 -0.11126,-0.0548 -0.17908,-0.0554 l -0.28652,-0.026 c -0.51337,-0.045 -0.91927,-0.18287 -1.21772,-0.4135 -0.29848,-0.23063 -0.53507,-0.59638 -0.70979,-1.09725 l -5.33974,-14.11773 c -0.0977,-0.26046 -0.19536,-0.45582 -0.29303,-0.58607 -0.0977,-0.13022 -0.23444,-0.19534 -0.41025,-0.19536 -0.18994,-0.003 -0.35056,0.0684 -0.48188,0.21489 -0.13133,0.14654 -0.26591,0.38748 -0.40373,0.72282 l -5.78254,13.54469 c -0.35273,0.80585 -0.72174,1.33005 -1.10702,1.57262 -0.38529,0.24257 -0.85848,0.36955 -1.41959,0.38094 -0.13458,0.004 -0.20404,0.0738 -0.20838,0.20838 v 0.4949 l 0.0521,0.0521 c 0.0554,-0.002 0.3614,-0.0109 0.91817,-0.026 0.55676,-0.0152 1.03213,-0.0239 1.4261,-0.026 0.23957,6.5e-4 0.63157,0.005 1.17599,0.0135 0.54442,0.008 1.05412,0.0167 1.52909,0.0251 0.47496,0.008 0.72804,0.0129 0.75923,0.0135 l 0.0521,-0.0521 v -0.4949 c -0.002,-0.0657 -0.0239,-0.11667 -0.0651,-0.15303 -0.0413,-0.0363 -0.089,-0.0548 -0.14326,-0.0554 l -0.75538,-0.0521 c -0.48134,-0.0478 -0.80802,-0.19319 -0.98003,-0.4363 -0.17203,-0.24311 -0.19265,-0.5318 -0.0619,-0.86608 z" /></g></svg>
