<?xml version="1.0" encoding="UTF-8" standalone="no"?>
<svg
   xmlns:dc="http://purl.org/dc/elements/1.1/"
   xmlns:cc="http://creativecommons.org/ns#"
   xmlns:rdf="http://www.w3.org/1999/02/22-rdf-syntax-ns#"
   xmlns:svg="http://www.w3.org/2000/svg"
   xmlns="http://www.w3.org/2000/svg"
   xml:space="preserve"
   enable-background="new 0 0 135 155"
   viewBox="0 0 128.89999 18.436522"
   height="18.436522"
   width="128.89999"
   y="0px"
   x="0px"
   id="svg3857"
   version="1.1"><metadata
     id="metadata714"><rdf:RDF><cc:Work
         rdf:about=""><dc:format>image/svg+xml</dc:format><dc:type
           rdf:resource="http://purl.org/dc/dcmitype/StillImage" /></cc:Work></rdf:RDF></metadata><defs
     id="defs3" /><g
     transform="matrix(0.5941276,0,0,0.5941276,-28.183928,-104.17656)"
     id="Wikipedia"><path
       style="font-style:normal;font-variant:normal;font-weight:normal;font-stretch:normal;font-size:40px;font-family:Sans;-inkscape-font-specification:Sans;letter-spacing:-0.7;fill:#000000;fill-opacity:1;stroke:none;stroke-width:1px;stroke-linecap:butt;stroke-linejoin:miter;stroke-opacity:1"
       d="m 256.875,175.34375 c -0.13021,0.13023 -0.1875,0.36201 -0.1875,0.6875 0,0.32555 0.0573,0.52086 0.1875,0.625 1.4974,0.0521 2.47135,0.29689 2.875,0.6875 0.41667,0.37762 0.62499,1.36721 0.625,2.96875 v 16.03125 c 0,1.60157 -0.20834,2.57813 -0.625,2.96875 -0.40364,0.39063 -1.37761,0.63541 -2.875,0.6875 -0.13021,0.1302 -0.1875,0.33073 -0.1875,0.65625 0,0.3125 0.0573,0.52083 0.1875,0.625 2.60417,-0.0521 4.35936,-0.0625 5.21875,-0.0625 0.3776,0 0.96613,0.005 1.8125,0.0312 0.85937,0.026 1.55467,0.0312 2.0625,0.0312 3.86718,0 6.69789,-0.57292 8.46875,-1.71875 1.77082,-1.14583 2.65622,-3.01302 2.65625,-5.65625 -2e-5,-0.66406 -0.0469,-1.27864 -0.125,-1.8125 -0.0781,-0.53384 -0.2344,-1.12499 -0.46875,-1.75 -0.22138,-0.62499 -0.56252,-1.13801 -1.03125,-1.59375 -0.46877,-0.45572 -1.05991,-0.87239 -1.75,-1.25 -0.69012,-0.39062 -1.56252,-0.71092 -2.65625,-0.90625 -1.09377,-0.20832 -2.36199,-0.31249 -3.78125,-0.3125 H 263.75 v -5.96875 c -10e-6,-1.60154 0.22135,-2.59113 0.625,-2.96875 0.41666,-0.39061 1.37759,-0.63539 2.875,-0.6875 0.10416,-0.11716 0.15623,-0.31247 0.15625,-0.625 -10e-6,-0.32549 -0.0521,-0.55727 -0.15625,-0.6875 -2.60417,0.0521 -4.35939,0.0625 -5.21875,0.0625 -0.76823,3e-5 -2.48699,-0.0104 -5.15625,-0.0625 z m 6.875,12.5625 h 3.03125 c 2.29166,1e-5 3.94529,0.60678 5,1.84375 1.05467,1.23699 1.59373,2.63282 1.59375,4.15625 -2e-5,0.69011 -0.10419,1.34897 -0.3125,2 -0.19533,0.63803 -0.5547,1.28646 -1.0625,1.9375 -0.50783,0.65104 -1.26565,1.17187 -2.28125,1.5625 C 268.71614,199.79687 267.5078,200 266.0625,200 c -1.52345,0 -2.31252,-0.92187 -2.3125,-2.71875 z"
       id="text2886"
       transform="translate(-12.6995)" /><path
       style="font-style:normal;font-variant:normal;font-weight:normal;font-stretch:normal;font-size:40px;font-family:Sans;-inkscape-font-specification:Sans;letter-spacing:-0.7;fill:#000000;fill-opacity:1;stroke:none;stroke-width:1px;stroke-linecap:butt;stroke-linejoin:miter;stroke-opacity:1"
       d="m 181.03125,183.96875 -0.15625,0.0937 v 1.03125 c 0,0.13023 0.10415,0.21876 0.3125,0.21875 l 1.1875,0.0625 c 1.14582,0.0781 1.71874,0.47658 1.71875,1.21875 -1e-5,3.45053 -0.52084,7.41667 -1.5625,11.84375 -0.1823,0.88541 -1.03386,1.40625 -2.53125,1.5625 -0.76824,0.10416 -1.16146,0.44531 -1.1875,1.03125 l -0.25,5.3125 1.09375,0.0312 c 0.82031,-3.4375 2.49218,-5.15625 5.03125,-5.15625 h 6.90625 c 0.8203,0 1.56769,0.17969 2.21875,0.53125 0.66404,0.36458 1.18488,0.83854 1.5625,1.4375 0.39061,0.59896 0.67966,1.16145 0.875,1.65625 0.20831,0.49478 0.36456,0.99218 0.46875,1.5 h 1.0625 l -0.21875,-5.375 c -2e-5,-0.5599 -0.34637,-0.86459 -1.0625,-0.96875 -0.32554,-0.0651 -0.60419,-0.15364 -0.8125,-0.21875 -0.19533,-0.0651 -0.38543,-0.22656 -0.59375,-0.5 -0.20835,-0.28646 -0.31252,-0.66927 -0.3125,-1.125 v -11.0625 c -2e-5,-0.66405 0.11456,-1.12759 0.375,-1.375 0.27341,-0.2604 0.79425,-0.42186 1.5625,-0.5 l 0.75,-0.0625 c 0.18228,-0.013 0.28122,-0.1302 0.28125,-0.3125 v -0.78125 l -0.0312,-0.0937 c -3.00783,0.0521 -4.50002,0.0938 -4.5,0.0937 h -8.125 c -0.48178,1e-5 -1.84897,-0.0417 -4.0625,-0.0937 z m 5.8125,1.59375 h 3.09375 c 0.74217,2e-5 1.19269,0.13283 1.375,0.40625 0.1953,0.27345 0.28123,0.79428 0.28125,1.5625 v 10.15625 c -2e-5,0.74219 -0.0859,1.27604 -0.28125,1.5625 -0.18231,0.27344 -0.63283,0.40626 -1.375,0.40625 h -5.15625 c -0.53386,0.013 -0.81251,-0.14322 -0.8125,-0.46875 -1e-5,-0.0781 0.099,-0.54167 0.28125,-1.375 0.18228,-0.83333 0.40103,-2.23958 0.6875,-4.21875 0.28645,-1.99218 0.53645,-4.33072 0.71875,-7 -1e-5,-0.0781 0.0104,-0.16926 0.0625,-0.3125 0.0521,-0.14322 0.17967,-0.31249 0.375,-0.46875 0.1953,-0.16926 0.4505,-0.24998 0.75,-0.25 z"
       id="path2905"
       transform="translate(-8.2005)" /><path
       style="font-style:normal;font-variant:normal;font-weight:normal;font-stretch:normal;font-size:40px;font-family:Sans;-inkscape-font-specification:Sans;letter-spacing:-0.7;fill:#000000;fill-opacity:1;stroke:none;stroke-width:1px;stroke-linecap:butt;stroke-linejoin:miter;stroke-opacity:1"
       d="m 47.625,175.34375 c -0.130209,0.13023 -0.187501,0.36201 -0.1875,0.6875 -10e-7,0.32555 0.05729,0.52086 0.1875,0.625 1.497394,0.0521 2.47135,0.29689 2.875,0.6875 0.416662,0.37762 0.624995,1.36721 0.625,2.96875 v 16.03125 c -5e-6,1.60157 -0.208338,2.57813 -0.625,2.96875 -0.40365,0.39063 -1.377606,0.63541 -2.875,0.6875 -0.130209,0.1302 -0.187501,0.33073 -0.1875,0.65625 -10e-7,0.3125 0.05729,0.52083 0.1875,0.625 2.604163,-0.0521 4.359369,-0.0625 5.21875,-0.0625 0.429681,0 1.182285,0.005 2.25,0.0312 1.067699,0.026 2.265615,0.0312 3.59375,0.0312 1.901028,0 3.507797,-0.19531 4.875,-0.625 1.38019,-0.44271 2.440089,-1.03906 3.15625,-1.78125 0.716126,-0.7552 1.218733,-1.55468 1.53125,-2.375 0.325499,-0.83333 0.499982,-1.71874 0.5,-2.65625 -2.2e-5,-1.80988 -0.567734,-3.29687 -1.6875,-4.46875 -1.119811,-1.17187 -2.606789,-2.02863 -4.46875,-2.5625 V 186.75 c 1.067691,-0.53384 1.95832,-1.28644 2.6875,-2.25 0.729148,-0.96352 1.093735,-1.95831 1.09375,-3 -1.9e-5,-4.10154 -2.8646,-6.15623 -8.59375,-6.15625 -0.45574,2e-5 -1.229176,0.005 -2.375,0.0312 -1.14584,0.0261 -2.039069,0.0313 -2.625,0.0312 -0.768234,3e-5 -2.486983,-0.0104 -5.15625,-0.0625 z m 10.375,1.375 c 1.367175,2e-5 2.552069,0.40367 3.59375,1.25 1.041651,0.83335 1.562483,2.16409 1.5625,4 -1.7e-5,3.05991 -1.898452,4.59376 -5.6875,4.59375 H 54.5 v -8.125 c -8e-6,-0.50779 0.0651,-0.86717 0.15625,-1.0625 0.104159,-0.20831 0.393221,-0.38279 0.875,-0.5 0.494783,-0.11717 1.322906,-0.15623 2.46875,-0.15625 z m -3.5,11.21875 h 2.78125 c 2.591133,2e-5 4.523422,0.62502 5.8125,1.875 1.302066,1.25001 1.937478,2.85939 1.9375,4.8125 -1.8e-5,1.67969 -0.497414,2.98699 -1.5,3.9375 C 62.52863,199.51303 60.643215,200 57.84375,200 55.630199,199.987 54.499992,199.06511 54.5,197.28125 Z"
       id="path2917" /><path
       style="font-style:normal;font-variant:normal;font-weight:normal;font-stretch:normal;font-size:40px;font-family:Sans;-inkscape-font-specification:Sans;letter-spacing:-0.7;fill:#000000;fill-opacity:1;stroke:none;stroke-width:1px;stroke-linecap:butt;stroke-linejoin:miter;stroke-opacity:1"
       d="m 75.806679,184.04955 c -6e-6,1e-5 1.614575,-0.026 4.84375,-0.0781 l 0.117187,0.0781 v 1.01562 c -1.1e-5,0.15627 -0.09116,0.23439 -0.273437,0.23438 l -1.289063,0.0781 c -0.820321,0.0521 -1.321623,0.18231 -1.503906,0.39063 -0.169279,0.19532 -0.253914,0.70314 -0.253906,1.52343 v 9.53125 l 8.808594,-9.92187 c -1.7e-5,-0.55988 -0.08465,-0.95051 -0.253907,-1.17188 -0.156266,-0.23436 -0.566422,-0.37759 -1.230468,-0.42968 -0.130224,1e-5 -0.195328,-0.0651 -0.195313,-0.19532 v -1.05468 l 0.07813,-0.0781 c 1.276025,0.0521 2.317691,0.0781 3.125,0.0781 l 4.84375,-0.0781 0.03906,0.0781 v 1.01562 c -2.3e-5,0.15627 -0.08466,0.23439 -0.253907,0.23438 l -1.269531,0.0781 c -0.76825,0.0521 -1.25002,0.18231 -1.445312,0.39063 -0.182312,0.19532 -0.273458,0.70314 -0.273438,1.52343 v 10.76172 c -2e-5,0.74219 0.09764,1.23047 0.292969,1.46485 0.195292,0.22135 0.670552,0.34505 1.425781,0.37109 l 1.269531,0.0977 c 0.156227,0 0.240863,0.0781 0.253907,0.23437 v 0.99609 l -0.03906,0.0781 c -2.291687,-0.0521 -3.906269,-0.0781 -4.84375,-0.0781 -0.859392,0 -2.434911,0.026 -4.726562,0.0781 l -0.07813,-0.0781 v -1.03515 c -1.4e-5,-0.13021 0.06509,-0.19531 0.195312,-0.19531 l 1.328125,-0.0977 c 0.768214,-0.026 1.249984,-0.15625 1.445313,-0.39063 0.208316,-0.23437 0.312483,-0.71614 0.3125,-1.44531 v -9.43359 l -8.808594,9.92187 v 0.0781 c -8e-6,0.50781 0.09114,0.84635 0.273437,1.01562 0.195305,0.16928 0.638012,0.28646 1.328125,0.35157 0.156241,0 0.240876,0.0781 0.253907,0.23437 v 0.99609 l -0.05859,0.0781 -3.4375,-0.0781 c -0.85938,0 -2.428389,0.026 -4.707031,0.0781 l -0.03906,-0.0781 v -1.03515 c -10e-7,-0.13021 0.0651,-0.19531 0.195313,-0.19531 l 1.367187,-0.0977 c 0.768225,-0.026 1.236975,-0.14323 1.40625,-0.35156 0.182287,-0.20833 0.273433,-0.67708 0.273438,-1.40625 V 187.3308 c -5e-6,-0.85936 -0.08464,-1.38671 -0.253907,-1.58204 -0.156254,-0.19529 -0.631514,-0.31899 -1.425781,-0.37109 l -1.289062,-0.0781 c -0.182294,1e-5 -0.273439,-0.0651 -0.273438,-0.19532 v -1.05468 l 0.117188,-0.0781 c 1.888017,0.0521 3.430984,0.0781 4.628906,0.0781"
       id="path2915"
       transform="translate(-2.199585)" /><path
       style="font-style:normal;font-variant:normal;font-weight:normal;font-stretch:normal;font-size:40px;font-family:Sans;-inkscape-font-specification:Sans;letter-spacing:-0.7;fill:#000000;fill-opacity:1;stroke:none;stroke-width:1px;stroke-linecap:butt;stroke-linejoin:miter;stroke-opacity:1"
       d="m 94.813709,201.21751 v -0.91796 c -10e-7,-0.15625 0.104165,-0.26042 0.3125,-0.3125 l 0.800782,-0.0977 c 0.716142,-0.0781 1.191402,-0.22786 1.425781,-0.44922 0.247391,-0.23437 0.371089,-0.64453 0.371094,-1.23047 v -11.07422 c -5e-6,-0.55988 -0.136723,-0.97654 -0.410157,-1.25 -0.26042,-0.28644 -0.722659,-0.45571 -1.386718,-0.50781 l -0.800782,-0.0781 c -0.208335,-0.0521 -0.312501,-0.15624 -0.3125,-0.3125 v -0.9375 l 0.07813,-0.0781 c 1.914059,0.0521 3.365881,0.0781 4.355469,0.0781 l 4.003912,-0.0781 0.0781,0.0781 v 0.83984 c -10e-6,0.26043 -0.1237,0.39715 -0.37109,0.41016 -0.71615,0.0781 -1.2435,0.22788 -1.58203,0.44921 -0.32553,0.20835 -0.48829,0.64455 -0.48828,1.3086 v 4.39453 c 1.32811,10e-6 2.35676,-0.31249 3.08594,-0.9375 0.74217,-0.62499 1.35415,-1.54947 1.83593,-2.77344 1.09374,-2.69529 2.48046,-4.04295 4.16016,-4.04297 1.44529,2e-5 2.16144,0.59898 2.14844,1.79688 -3e-5,0.40366 -0.16278,0.76173 -0.48828,1.07422 -0.31253,0.29949 -0.68363,0.44923 -1.1133,0.44922 -0.41668,1e-5 -0.80079,-0.11718 -1.15233,-0.35157 -0.2995,-0.18227 -0.60548,-0.27993 -0.91797,-0.29297 -0.2344,2e-5 -0.52085,0.20835 -0.85937,0.625 -0.33856,0.41668 -0.62503,0.91799 -0.85938,1.50391 -0.69012,1.86199 -1.7448,2.9948 -3.16407,3.39844 v 0.15625 c 2.3177,1e-5 3.88019,0.94402 4.6875,2.83203 1.49739,3.30729 2.79946,5.04557 3.90625,5.21484 l 0.37109,0.0391 c 0.29946,0 0.44269,0.11718 0.42969,0.35156 v 0.72265 l -0.11719,0.0781 -3.02734,-0.0391 c -1.60158,-0.0261 -2.94923,-1.54297 -4.04296,-4.55078 -0.45575,-1.25 -1.01565,-2.18099 -1.67969,-2.79297 -0.66407,-0.625 -1.73178,-0.97656 -3.20312,-1.05469 v 5.42969 c -10e-6,0.9375 0.73567,1.5039 2.20703,1.69922 0.20832,0.0521 0.31249,0.15625 0.3125,0.3125 v 0.91796 l -0.0781,0.0781 c -1.62761,-0.0521 -2.98828,-0.0781 -4.082032,-0.0781 l -4.355469,0.0781 -0.07813,-0.0781"
       id="path2913"
       transform="translate(-3.499709)" /><path
       style="font-style:normal;font-variant:normal;font-weight:normal;font-stretch:normal;font-size:40px;font-family:Sans;-inkscape-font-specification:Sans;letter-spacing:-0.7;fill:#000000;fill-opacity:1;stroke:none;stroke-width:1px;stroke-linecap:butt;stroke-linejoin:miter;stroke-opacity:1"
       d="m 118.93793,184.04955 c -10e-6,1e-5 1.61458,-0.026 4.84375,-0.0781 l 0.11719,0.0781 v 1.01562 c -1e-5,0.15627 -0.0912,0.23439 -0.27344,0.23438 l -1.28906,0.0781 c -0.82032,0.0521 -1.32162,0.18231 -1.50391,0.39063 -0.16928,0.19532 -0.25391,0.70314 -0.2539,1.52343 v 9.53125 l 8.80859,-9.92187 c -2e-5,-0.55988 -0.0846,-0.95051 -0.25391,-1.17188 -0.15626,-0.23436 -0.56642,-0.37759 -1.23047,-0.42968 -0.13022,1e-5 -0.19532,-0.0651 -0.19531,-0.19532 v -1.05468 l 0.0781,-0.0781 c 1.27602,0.0521 2.31769,0.0781 3.125,0.0781 l 4.84375,-0.0781 0.0391,0.0781 v 1.01562 c -2e-5,0.15627 -0.0847,0.23439 -0.25391,0.23438 l -1.26953,0.0781 c -0.76825,0.0521 -1.25002,0.18231 -1.44531,0.39063 -0.18231,0.19532 -0.27346,0.70314 -0.27344,1.52343 v 10.76172 c -2e-5,0.74219 0.0976,1.23047 0.29297,1.46485 0.19529,0.22135 0.67055,0.34505 1.42578,0.37109 l 1.26953,0.0977 c 0.15623,0 0.24087,0.0781 0.25391,0.23437 v 0.99609 l -0.0391,0.0781 c -2.29169,-0.0521 -3.90627,-0.0781 -4.84375,-0.0781 -0.85939,0 -2.43491,0.026 -4.72657,0.0781 l -0.0781,-0.0781 v -1.03515 c -1e-5,-0.13021 0.0651,-0.19531 0.19531,-0.19531 l 1.32813,-0.0977 c 0.76821,-0.026 1.24998,-0.15625 1.44531,-0.39063 0.20832,-0.23437 0.31248,-0.71614 0.3125,-1.44531 v -9.43359 l -8.80859,9.92187 v 0.0781 c -1e-5,0.50781 0.0911,0.84635 0.27343,1.01562 0.19531,0.16928 0.63802,0.28646 1.32813,0.35157 0.15624,0 0.24087,0.0781 0.2539,0.23437 v 0.99609 l -0.0586,0.0781 -3.4375,-0.0781 c -0.85938,0 -2.42839,0.026 -4.70703,0.0781 l -0.0391,-0.0781 v -1.03515 c 0,-0.13021 0.0651,-0.19531 0.19531,-0.19531 l 1.36719,-0.0977 c 0.76822,-0.026 1.23697,-0.14323 1.40625,-0.35156 0.18228,-0.20833 0.27343,-0.67708 0.27343,-1.40625 V 187.3308 c 0,-0.85936 -0.0846,-1.38671 -0.2539,-1.58204 -0.15626,-0.19529 -0.63152,-0.31899 -1.42578,-0.37109 l -1.28907,-0.0781 c -0.18229,1e-5 -0.27343,-0.0651 -0.27343,-0.19532 v -1.05468 l 0.11718,-0.0781 c 1.88802,0.0521 3.43099,0.0781 4.62891,0.0781"
       id="path2911"
       transform="translate(-3.99984)" /><path
       style="font-style:normal;font-variant:normal;font-weight:normal;font-stretch:normal;font-size:40px;font-family:Sans;-inkscape-font-specification:Sans;letter-spacing:-0.7;fill:#000000;fill-opacity:1;stroke:none;stroke-width:1px;stroke-linecap:butt;stroke-linejoin:miter;stroke-opacity:1"
       d="m 141.05043,187.3308 c -1e-5,-0.8203 -0.0911,-1.33462 -0.27344,-1.54297 -0.1823,-0.22134 -0.66407,-0.35806 -1.44531,-0.41016 l -1.26953,-0.0781 c -0.13021,1e-5 -0.19532,-0.0651 -0.19532,-0.19532 v -1.05468 l 0.0781,-0.0781 4.6289,0.0781 h 11.67969 l 4.84375,-0.0781 0.0391,0.0781 v 1.01562 c -2e-5,0.15627 -0.0781,0.23439 -0.23437,0.23438 l -1.28906,0.0781 c -0.79429,0.0521 -1.28258,0.18231 -1.46485,0.39063 -0.16929,0.19532 -0.25392,0.70314 -0.2539,1.52343 v 10.72266 c -2e-5,0.76823 0.0976,1.26953 0.29297,1.50391 0.20831,0.22135 0.68357,0.34505 1.42578,0.37109 l 1.28906,0.0977 c 0.15623,0 0.23435,0.0781 0.23437,0.23437 v 0.99609 l -0.0391,0.0781 c -1.91408,-0.0521 -3.4896,-0.0781 -4.72656,-0.0781 l -4.62891,0.0781 -0.0391,-0.0781 v -1.03515 c -1e-5,-0.13021 0.0651,-0.19531 0.19531,-0.19531 l 1.15235,-0.0977 c 0.74217,-0.0521 1.21092,-0.19531 1.40625,-0.42969 0.20831,-0.24739 0.31248,-0.72916 0.3125,-1.44531 v -10.83984 c -2e-5,-0.66405 -0.15627,-1.08723 -0.46875,-1.26954 -0.2995,-0.19529 -0.71616,-0.29295 -1.25,-0.29296 h -5.11719 c -0.53386,1e-5 -0.95704,0.10418 -1.26953,0.3125 -0.29949,0.19532 -0.44923,0.61199 -0.44922,1.25 v 10.83984 c -1e-5,0.76823 0.0976,1.26953 0.29297,1.50391 0.20832,0.22135 0.67056,0.34505 1.38672,0.37109 l 1.17187,0.0977 c 0.1302,0 0.1953,0.0781 0.19531,0.23437 v 0.99609 l -0.0391,0.0781 c -1.86199,-0.0521 -3.39844,-0.0781 -4.60937,-0.0781 l -4.70703,0.0781 -0.0977,-0.0781 v -1.03515 c 0,-0.13021 0.0846,-0.19531 0.25391,-0.19531 l 1.26953,-0.0977 c 0.74218,-0.026 1.21093,-0.16276 1.40625,-0.41016 0.20833,-0.26041 0.31249,-0.74869 0.3125,-1.46484 V 187.3308"
       id="path2909"
       transform="translate(-5.00024)" /><path
       style="font-style:normal;font-variant:normal;font-weight:normal;font-stretch:normal;font-size:40px;font-family:Sans;-inkscape-font-specification:Sans;letter-spacing:-0.7;fill:#000000;fill-opacity:1;stroke:none;stroke-width:1px;stroke-linecap:butt;stroke-linejoin:miter;stroke-opacity:1"
       d="m 169.43246,192.21361 h -2.28516 v 5.99609 c 0,0.40365 0.12369,0.80078 0.3711,1.19141 0.26041,0.39062 0.5664,0.58594 0.91797,0.58594 h 3.32031 c 2.08332,0 3.52212,-1.45834 4.31641,-4.375 0.37758,-0.10417 0.74868,-0.0521 1.11328,0.15625 -0.37762,2.1875 -0.77476,4.02994 -1.19141,5.52734 -1.75783,-0.0521 -3.17059,-0.0781 -4.23828,-0.0781 h -6.17188 c -1.86198,0.026 -3.35286,0.0521 -4.47265,0.0781 -0.13021,-0.10417 -0.19532,-0.3125 -0.19531,-0.625 -1e-5,-0.32552 0.0651,-0.55339 0.19531,-0.68359 1.27604,-0.10417 2.07031,-0.33854 2.38281,-0.70313 0.32552,-0.36458 0.48828,-1.34765 0.48828,-2.94922 v -8.63281 c 0,-1.60155 -0.16276,-2.58462 -0.48828,-2.94922 -0.3125,-0.37759 -1.10677,-0.61196 -2.38281,-0.70312 -0.13021,-0.1302 -0.19532,-0.35155 -0.19531,-0.66407 -1e-5,-0.3255 0.0651,-0.54034 0.19531,-0.64453 l 4.43359,0.0781 h 8.28125 c 0.35155,1e-5 0.89842,-0.0521 1.64063,-0.15625 0.0781,2e-5 0.11717,0.0391 0.11718,0.11718 0.18228,0.63804 0.42317,2.22658 0.72266,4.76563 -0.35158,0.15626 -0.70965,0.22137 -1.07422,0.19531 -0.4297,-1.32811 -0.87241,-2.2591 -1.32812,-2.79297 -0.45575,-0.53383 -1.25653,-0.80076 -2.40235,-0.80078 h -3.0664 c -0.37762,2e-5 -0.69012,0.0977 -0.9375,0.29297 -0.23439,0.19533 -0.35157,0.46877 -0.35157,0.82031 v 5.6836 h 2.28516 c 0.58593,1e-5 1.03515,-0.0326 1.34766,-0.0977 0.32551,-0.0781 0.58592,-0.13671 0.78125,-0.17578 0.20832,-0.0391 0.35155,-0.18879 0.42968,-0.44922 0.0781,-0.27343 0.12369,-0.46874 0.13672,-0.58594 0.013,-0.11717 0.0325,-0.42967 0.0586,-0.9375 0.10415,-0.10415 0.28644,-0.15623 0.54687,-0.15625 0.27343,2e-5 0.46223,0.0521 0.56641,0.15625 -0.0521,1.32814 -0.0781,2.27215 -0.0781,2.83203 -1e-5,0.40366 0.026,1.38022 0.0781,2.92969 -0.10418,0.10417 -0.29298,0.15626 -0.56641,0.15625 -0.26043,1e-5 -0.44272,-0.0521 -0.54687,-0.15625 -0.0521,-0.91145 -0.16929,-1.47785 -0.35157,-1.69922 -0.33855,-0.36457 -1.13933,-0.54686 -2.40234,-0.54687"
       id="path2907"
       transform="matrix(0.9312462,0,0,0.9312462,5.0638042,13.839841)" /><path
       style="font-style:normal;font-variant:normal;font-weight:normal;font-stretch:normal;font-size:40px;font-family:Sans;-inkscape-font-specification:Sans;letter-spacing:-0.7;fill:#000000;fill-opacity:1;stroke:none;stroke-width:1px;stroke-linecap:butt;stroke-linejoin:miter;stroke-opacity:1"
       d="m 204.41919,184.04955 c -10e-6,1e-5 1.61457,-0.026 4.84375,-0.0781 l 0.11718,0.0781 v 1.01562 c -1e-5,0.15627 -0.0911,0.23439 -0.27343,0.23438 l -1.28907,0.0781 c -0.82032,0.0521 -1.32162,0.18231 -1.5039,0.39063 -0.16928,0.19532 -0.25392,0.70314 -0.25391,1.52343 v 9.53125 l 8.80859,-9.92187 c -1e-5,-0.55988 -0.0847,-0.95051 -0.2539,-1.17188 -0.15627,-0.23436 -0.56642,-0.37759 -1.23047,-0.42968 -0.13022,1e-5 -0.19533,-0.0651 -0.19531,-0.19532 v -1.05468 l 0.0781,-0.0781 c 1.27603,0.0521 2.31769,0.0781 3.125,0.0781 l 4.84375,-0.0781 0.0391,0.0781 v 1.01562 c -2e-5,0.15627 -0.0847,0.23439 -0.2539,0.23438 l -1.26953,0.0781 c -0.76825,0.0521 -1.25002,0.18231 -1.44532,0.39063 -0.18231,0.19532 -0.27345,0.70314 -0.27343,1.52343 v 10.76172 c -2e-5,0.74219 0.0976,1.23047 0.29297,1.46485 0.19529,0.22135 0.67055,0.34505 1.42578,0.37109 l 1.26953,0.0977 c 0.15623,0 0.24086,0.0781 0.2539,0.23437 v 0.99609 l -0.0391,0.0781 c -2.29169,-0.0521 -3.90627,-0.0781 -4.84375,-0.0781 -0.85939,0 -2.43491,0.026 -4.72656,0.0781 l -0.0781,-0.0781 v -1.03515 c -1e-5,-0.13021 0.0651,-0.19531 0.19532,-0.19531 l 1.32812,-0.0977 c 0.76822,-0.026 1.24999,-0.15625 1.44531,-0.39063 0.20832,-0.23437 0.31249,-0.71614 0.3125,-1.44531 v -9.43359 l -8.80859,9.92187 v 0.0781 c -1e-5,0.50781 0.0911,0.84635 0.27344,1.01562 0.1953,0.16928 0.63801,0.28646 1.32812,0.35157 0.15624,0 0.24088,0.0781 0.25391,0.23437 v 0.99609 l -0.0586,0.0781 -3.4375,-0.0781 c -0.85938,0 -2.42839,0.026 -4.70704,0.0781 l -0.0391,-0.0781 v -1.03515 c 0,-0.13021 0.0651,-0.19531 0.19531,-0.19531 l 1.36719,-0.0977 c 0.76823,-0.026 1.23698,-0.14323 1.40625,-0.35156 0.18229,-0.20833 0.27343,-0.67708 0.27344,-1.40625 V 187.3308 c -1e-5,-0.85936 -0.0846,-1.38671 -0.25391,-1.58204 -0.15625,-0.19529 -0.63151,-0.31899 -1.42578,-0.37109 l -1.28906,-0.0781 c -0.18229,1e-5 -0.27344,-0.0651 -0.27344,-0.19532 v -1.05468 l 0.11719,-0.0781 c 1.88802,0.0521 3.43098,0.0781 4.62891,0.0781"
       id="path2901"
       transform="translate(-9.20009)" /><path
       style="font-style:normal;font-variant:normal;font-weight:normal;font-stretch:normal;font-size:40px;font-family:Sans;-inkscape-font-specification:Sans;letter-spacing:-0.7;fill:#000000;fill-opacity:1;stroke:none;stroke-width:1px;stroke-linecap:butt;stroke-linejoin:miter;stroke-opacity:1"
       d="m 232.0625,183.96875 c -1.35418,2e-5 -2.52865,0.13283 -3.53125,0.40625 -1.00261,0.26043 -1.77345,0.57293 -2.28125,0.9375 -0.50782,0.3646 -0.88803,0.8047 -1.1875,1.3125 -0.28646,0.49481 -0.47917,0.89324 -0.53125,1.21875 -0.0521,0.31251 -0.0625,0.64324 -0.0625,0.96875 0,1.30209 0.55468,2.32553 1.6875,3.09375 1.13281,0.75522 2.35936,1.15626 3.6875,1.15625 v 0.0937 c -0.63803,0.11719 -1.2448,0.44271 -1.84375,0.9375 -0.59897,0.4948 -1.08595,1.10678 -1.4375,1.875 -0.41667,0.95052 -0.91407,1.87761 -1.5,2.75 -0.58594,0.8724 -1.11717,1.32292 -1.625,1.375 l -0.375,0.0625 c -0.26042,0 -0.40625,0.10416 -0.40625,0.3125 v 0.75 l 0.125,0.0625 2.625,-0.0312 c 0.66406,-0.026 1.33072,-0.38542 1.96875,-1.0625 0.63801,-0.67708 1.15884,-1.51563 1.5625,-2.53125 1.09374,-2.85156 2.37759,-4.28124 3.875,-4.28125 h 1.03125 v 4.59375 c -1e-5,0.83333 -0.0807,1.3724 -0.25,1.59375 -0.15627,0.22135 -0.5547,0.34896 -1.21875,0.375 L 231.78125,200 c -0.19532,0 -0.28126,0.0677 -0.28125,0.25 v 1.03125 l 3.90625,-0.0625 c 0.98957,0 2.263,0.0104 3.8125,0.0625 v -0.9375 C 239.20571,200.10937 239.0729,200 238.8125,200 l -0.90625,-0.0625 c -0.58595,-0.026 -0.875,-0.69271 -0.875,-1.96875 V 186.5625 c -1e-5,-0.76822 0.34113,-1.16144 1.03125,-1.1875 l 1.03125,-0.0625 c 0.0911,1e-5 0.12498,-0.0469 0.125,-0.125 v -1.125 l -0.0937,-0.0937 -3.59375,0.0937 c -0.28647,1e-5 -0.62762,-0.0364 -1.03125,-0.0625 -0.40365,-0.026 -1.21356,-0.0312 -2.4375,-0.0312 z m -0.125,1.34375 c 0.8203,1e-5 1.34113,0.0807 1.5625,0.25 0.23436,0.15627 0.34373,0.54949 0.34375,1.1875 v 5.28125 h -2.78125 c -1.14584,0 -1.98959,-0.35416 -2.5625,-1.03125 -0.57292,-0.67707 -0.87501,-1.55728 -0.875,-2.625 0,-1.04165 0.28906,-1.80467 0.875,-2.3125 0.58593,-0.50779 1.73176,-0.74999 3.4375,-0.75 z"
       id="path2899"
       transform="translate(-10.20025)" /><path
       style="font-style:normal;font-variant:normal;font-weight:normal;font-stretch:normal;font-size:40px;font-family:Sans;-inkscape-font-specification:Sans;letter-spacing:-0.7;fill:#000000;fill-opacity:1;stroke:none;stroke-width:1px;stroke-linecap:butt;stroke-linejoin:miter;stroke-opacity:1"
       d="m 255.71449,197.5847 c -0.93752,1.54948 -1.9271,2.61068 -2.96875,3.1836 -1.02866,0.55989 -2.21355,0.83984 -3.55469,0.83984 -2.47396,0 -4.41407,-0.78776 -5.82031,-2.36328 -1.39323,-1.58854 -2.08985,-3.70442 -2.08984,-6.34766 -1e-5,-2.6953 0.83984,-4.90884 2.51953,-6.64062 1.67968,-1.73176 3.57421,-2.59764 5.68359,-2.59766 1.88801,2e-5 3.37889,0.35158 4.47266,1.05469 1.09373,0.70314 1.64061,1.6146 1.64062,2.73437 -1e-5,0.55991 -0.20835,0.99611 -0.625,1.3086 -0.41668,0.31251 -0.85939,0.46876 -1.32812,0.46875 -0.91147,10e-6 -1.41929,-0.48176 -1.52344,-1.44532 -0.0521,-0.58592 -0.14324,-1.04165 -0.27344,-1.36718 -0.1172,-0.33853 -0.39064,-0.65754 -0.82031,-0.95703 -0.41668,-0.31249 -1.00262,-0.46874 -1.75781,-0.46875 -1.32814,1e-5 -2.42189,0.63152 -3.28125,1.89453 -0.84636,1.26303 -1.26954,2.97527 -1.26953,5.13672 -1e-5,2.29167 0.52082,4.14063 1.5625,5.54687 1.04165,1.39323 2.30467,2.08985 3.78906,2.08984 1.83592,1e-5 3.43748,-0.8789 4.80469,-2.63671 0.42967,0.0521 0.70961,0.24088 0.83984,0.5664"
       id="path2895"
       transform="translate(-11.6999)" /></g></svg>
