<?xml version="1.0" encoding="UTF-8" standalone="no"?>
<svg
   xmlns:dc="http://purl.org/dc/elements/1.1/"
   xmlns:cc="http://creativecommons.org/ns#"
   xmlns:rdf="http://www.w3.org/1999/02/22-rdf-syntax-ns#"
   xmlns:svg="http://www.w3.org/2000/svg"
   xmlns="http://www.w3.org/2000/svg"
   id="svg3857"
   xml:space="preserve"
   enable-background="new 0 0 135 155"
   viewBox="0 0 134.00003 18.034519"
   height="18.034519"
   width="134.00003"
   y="0px"
   x="0px"
   version="1.1"><metadata
     id="metadata4852"><rdf:RDF><cc:Work
         rdf:about=""><dc:format>image/svg+xml</dc:format><dc:type
           rdf:resource="http://purl.org/dc/dcmitype/StillImage" /><dc:title /></cc:Work></rdf:RDF></metadata><defs
     id="defs4850"><radialGradient
       id="SVGID_1_"
       cx="-145.4702"
       cy="87.823196"
       r="68.686401"
       gradientTransform="matrix(1,0,0,-1,192.3999,143.0996)"
       gradientUnits="userSpaceOnUse">
		<stop
   offset="0"
   style="stop-color:#FFFFFF"
   id="stop3922" />
		<stop
   offset="0.4835"
   style="stop-color:#EAEAEB"
   id="stop3924" />
		<stop
   offset="0.9451"
   style="stop-color:#A9ABAE"
   id="stop3926" />
		<stop
   offset="1"
   style="stop-color:#999B9E"
   id="stop3928" />
	</radialGradient><linearGradient
       id="SVGID_2_"
       gradientUnits="userSpaceOnUse"
       x1="66.232399"
       y1="24.481001"
       x2="112.7331"
       y2="97.232101">
		<stop
   offset="0"
   style="stop-color:#8A8A8A"
   id="stop3935" />
		<stop
   offset="0.5687"
   style="stop-color:#606060"
   id="stop3937" />
		<stop
   offset="0.5914"
   style="stop-color:#FFFFFF"
   id="stop3939" />
		<stop
   offset="0.6116"
   style="stop-color:#585858"
   id="stop3941" />
		<stop
   offset="1"
   style="stop-color:#303030"
   id="stop3943" />
	</linearGradient><linearGradient
       id="SVGID_5_"
       gradientUnits="userSpaceOnUse"
       x1="54.715801"
       y1="65.136703"
       x2="83.798798"
       y2="65.136703">
		<stop
   offset="0"
   style="stop-color:#231F20"
   id="stop3964" />
		<stop
   offset="1"
   style="stop-color:#474747"
   id="stop3966" />
	</linearGradient><linearGradient
       id="SVGID_6_"
       gradientUnits="userSpaceOnUse"
       x1="-123.5898"
       y1="119.8076"
       x2="-94.069099"
       y2="29.9035"
       gradientTransform="matrix(1,0,0,-1,192.3999,143.0996)">
		<stop
   offset="0"
   style="stop-color:#FFFFFF"
   id="stop3997" />
		<stop
   offset="0.0094"
   style="stop-color:#FCFCFC"
   id="stop3999" />
		<stop
   offset="0.0655"
   style="stop-color:#EEEEEE"
   id="stop4001" />
		<stop
   offset="0.1342"
   style="stop-color:#E5E5E5"
   id="stop4003" />
		<stop
   offset="0.2515"
   style="stop-color:#E3E3E3"
   id="stop4005" />
		<stop
   offset="0.3357"
   style="stop-color:#8A8A8A"
   id="stop4007" />
		<stop
   offset="0.4422"
   style="stop-color:#B8B8B8"
   id="stop4009" />
		<stop
   offset="1"
   style="stop-color:#3B3B3B"
   id="stop4011" />
	</linearGradient><linearGradient
       id="SVGID_7_"
       gradientUnits="userSpaceOnUse"
       x1="70.421898"
       y1="26.876499"
       x2="119.5471"
       y2="87.626701">
		<stop
   offset="0"
   style="stop-color:#EFF0F0"
   id="stop4016" />
		<stop
   offset="0.5914"
   style="stop-color:#F0F1F2"
   id="stop4018" />
		<stop
   offset="0.599"
   style="stop-color:#787878"
   id="stop4020" />
		<stop
   offset="0.6456"
   style="stop-color:#EEEFF0"
   id="stop4022" />
		<stop
   offset="1"
   style="stop-color:#D8D9DB"
   id="stop4024" />
	</linearGradient><linearGradient
       id="SVGID_8_"
       gradientUnits="userSpaceOnUse"
       x1="-117.166"
       y1="122.1328"
       x2="-87.569702"
       y2="31.998501"
       gradientTransform="matrix(1,0,0,-1,192.3999,143.0996)">
		<stop
   offset="0"
   style="stop-color:#FFFFFF"
   id="stop4029" />
		<stop
   offset="1"
   style="stop-color:#E4E5E6"
   id="stop4031" />
	</linearGradient><linearGradient
       id="SVGID_9_"
       gradientUnits="userSpaceOnUse"
       x1="54.653301"
       y1="25.2764"
       x2="79.683601"
       y2="106.3903">
		<stop
   offset="0"
   style="stop-color:#FFFFFF"
   id="stop4036" />
		<stop
   offset="0.7473"
   style="stop-color:#F9F9F9"
   id="stop4038" />
		<stop
   offset="1"
   style="stop-color:#D5D7D8"
   id="stop4040" />
	</linearGradient><linearGradient
       id="SVGID_10_"
       gradientUnits="userSpaceOnUse"
       x1="-115.3369"
       y1="119.6328"
       x2="-134.85719"
       y2="24.6462"
       gradientTransform="matrix(1,0,0,-1,192.3999,143.0996)">
		<stop
   offset="0"
   style="stop-color:#FFFFFF"
   id="stop4061" />
		<stop
   offset="1"
   style="stop-color:#E4E5E6"
   id="stop4063" />
	</linearGradient><linearGradient
       id="SVGID_11_"
       gradientUnits="userSpaceOnUse"
       x1="32.519001"
       y1="33.077099"
       x2="37.2481"
       y2="92.496101">
		<stop
   offset="0.2198"
   style="stop-color:#989A9C"
   id="stop4068" />
		<stop
   offset="0.2527"
   style="stop-color:#FFFFFF"
   id="stop4070" />
	</linearGradient><linearGradient
       id="SVGID_12_"
       gradientUnits="userSpaceOnUse"
       x1="-152.6201"
       y1="126.8398"
       x2="-171.9462"
       y2="32.797901"
       gradientTransform="matrix(1,0,0,-1,192.3999,143.0996)">
		<stop
   offset="0"
   style="stop-color:#FFFFFF"
   id="stop4075" />
		<stop
   offset="1"
   style="stop-color:#E4E5E6"
   id="stop4077" />
	</linearGradient><linearGradient
       id="SVGID_13_"
       gradientUnits="userSpaceOnUse"
       x1="-130.1348"
       y1="35.625"
       x2="-130.14281"
       y2="35.585701"
       gradientTransform="matrix(1,0,0,-1,192.3999,143.0996)">
		<stop
   offset="0"
   style="stop-color:#FFFFFF"
   id="stop4082" />
		<stop
   offset="1"
   style="stop-color:#E4E5E6"
   id="stop4084" />
	</linearGradient><linearGradient
       id="SVGID_14_"
       gradientUnits="userSpaceOnUse"
       x1="-121.1382"
       y1="120.3223"
       x2="-140.54491"
       y2="25.888"
       gradientTransform="matrix(1,0,0,-1,192.3999,143.0996)">
		<stop
   offset="0"
   style="stop-color:#FFFFFF"
   id="stop4093" />
		<stop
   offset="1"
   style="stop-color:#E4E5E6"
   id="stop4095" />
	</linearGradient><linearGradient
       id="SVGID_15_"
       gradientUnits="userSpaceOnUse"
       x1="-135.58591"
       y1="123.3525"
       x2="-155.006"
       y2="28.8524"
       gradientTransform="matrix(1,0,0,-1,192.3999,143.0996)">
		<stop
   offset="0"
   style="stop-color:#FFFFFF"
   id="stop4100" />
		<stop
   offset="1"
   style="stop-color:#E4E5E6"
   id="stop4102" />
	</linearGradient><linearGradient
       id="SVGID_16_"
       gradientUnits="userSpaceOnUse"
       x1="-127.4014"
       y1="121.9365"
       x2="-146.8837"
       y2="27.1346"
       gradientTransform="matrix(1,0,0,-1,192.3999,143.0996)">
		<stop
   offset="0"
   style="stop-color:#FFFFFF"
   id="stop4107" />
		<stop
   offset="1"
   style="stop-color:#E4E5E6"
   id="stop4109" />
	</linearGradient><linearGradient
       id="SVGID_17_"
       gradientUnits="userSpaceOnUse"
       x1="-118.4946"
       y1="124.0039"
       x2="-138.85201"
       y2="24.9438"
       gradientTransform="matrix(1,0,0,-1,192.3999,143.0996)">
		<stop
   offset="0"
   style="stop-color:#FFFFFF"
   id="stop4114" />
		<stop
   offset="1"
   style="stop-color:#E4E5E6"
   id="stop4116" />
	</linearGradient><linearGradient
       id="SVGID_18_"
       gradientUnits="userSpaceOnUse"
       x1="-115.3716"
       y1="119.1758"
       x2="-134.7878"
       y2="24.695299"
       gradientTransform="matrix(1,0,0,-1,192.3999,143.0996)">
		<stop
   offset="0"
   style="stop-color:#FFFFFF"
   id="stop4121" />
		<stop
   offset="1"
   style="stop-color:#E4E5E6"
   id="stop4123" />
	</linearGradient><linearGradient
       id="SVGID_21_"
       gradientUnits="userSpaceOnUse"
       x1="-175.4424"
       y1="83.6045"
       x2="-75.6362"
       y2="83.6045"
       gradientTransform="matrix(1,0,0,-1,192.3999,143.0996)">
		<stop
   offset="0"
   style="stop-color:#555555"
   id="stop4198" />
		<stop
   offset="1"
   style="stop-color:#231F20"
   id="stop4200" />
	</linearGradient><linearGradient
       id="SVGID_22_"
       gradientUnits="userSpaceOnUse"
       x1="-175.14211"
       y1="104.0801"
       x2="-83.541"
       y2="104.0801"
       gradientTransform="matrix(1,0,0,-1,192.3999,143.0996)">
		<stop
   offset="0"
   style="stop-color:#A0A0A0"
   id="stop4205" />
		<stop
   offset="0.0769"
   style="stop-color:#656767"
   id="stop4207" />
		<stop
   offset="1"
   style="stop-color:#717375"
   id="stop4209" />
	</linearGradient><linearGradient
       id="SVGID_23_"
       gradientUnits="userSpaceOnUse"
       x1="-172.3853"
       y1="78.209"
       x2="-172.3853"
       y2="78.209"
       gradientTransform="matrix(1,0,0,-1,192.3999,143.0996)">
		<stop
   offset="0"
   style="stop-color:#FFFFFF"
   id="stop4224" />
		<stop
   offset="0.078"
   style="stop-color:#F4F4F4"
   id="stop4226" />
		<stop
   offset="0.3807"
   style="stop-color:#CECECE"
   id="stop4228" />
		<stop
   offset="0.5396"
   style="stop-color:#BFBFBF"
   id="stop4230" />
		<stop
   offset="0.8357"
   style="stop-color:#7C7C7C"
   id="stop4232" />
		<stop
   offset="0.8996"
   style="stop-color:#A8A8A8"
   id="stop4234" />
		<stop
   offset="0.9093"
   style="stop-color:#9A9A9A"
   id="stop4236" />
		<stop
   offset="0.9327"
   style="stop-color:#7D7D7D"
   id="stop4238" />
		<stop
   offset="0.9558"
   style="stop-color:#686868"
   id="stop4240" />
		<stop
   offset="0.9785"
   style="stop-color:#5B5B5B"
   id="stop4242" />
		<stop
   offset="1"
   style="stop-color:#575757"
   id="stop4244" />
	</linearGradient><linearGradient
       id="SVGID_24_"
       gradientUnits="userSpaceOnUse"
       x1="-175.7173"
       y1="78.449203"
       x2="-67.153198"
       y2="90.476799"
       gradientTransform="matrix(1,0,0,-1,192.3999,143.0996)">
		<stop
   offset="0"
   style="stop-color:#FFFFFF"
   id="stop4249" />
		<stop
   offset="0.078"
   style="stop-color:#F4F4F4"
   id="stop4251" />
		<stop
   offset="0.3807"
   style="stop-color:#CECECE"
   id="stop4253" />
		<stop
   offset="0.5396"
   style="stop-color:#BFBFBF"
   id="stop4255" />
		<stop
   offset="0.8357"
   style="stop-color:#7C7C7C"
   id="stop4257" />
		<stop
   offset="0.8996"
   style="stop-color:#A8A8A8"
   id="stop4259" />
		<stop
   offset="0.9093"
   style="stop-color:#9A9A9A"
   id="stop4261" />
		<stop
   offset="0.9327"
   style="stop-color:#7D7D7D"
   id="stop4263" />
		<stop
   offset="0.9558"
   style="stop-color:#686868"
   id="stop4265" />
		<stop
   offset="0.9785"
   style="stop-color:#5B5B5B"
   id="stop4267" />
		<stop
   offset="1"
   style="stop-color:#575757"
   id="stop4269" />
	</linearGradient><linearGradient
       id="SVGID_25_"
       gradientUnits="userSpaceOnUse"
       x1="-176.1851"
       y1="78.4795"
       x2="-52.131699"
       y2="92.223099"
       gradientTransform="matrix(1,0,0,-1,192.3999,143.0996)">
		<stop
   offset="0"
   style="stop-color:#FFFFFF"
   id="stop4274" />
		<stop
   offset="0.078"
   style="stop-color:#F4F4F4"
   id="stop4276" />
		<stop
   offset="0.3807"
   style="stop-color:#CECECE"
   id="stop4278" />
		<stop
   offset="0.5396"
   style="stop-color:#BFBFBF"
   id="stop4280" />
		<stop
   offset="0.8357"
   style="stop-color:#7C7C7C"
   id="stop4282" />
		<stop
   offset="0.8996"
   style="stop-color:#A8A8A8"
   id="stop4284" />
		<stop
   offset="0.9093"
   style="stop-color:#9A9A9A"
   id="stop4286" />
		<stop
   offset="0.9327"
   style="stop-color:#7D7D7D"
   id="stop4288" />
		<stop
   offset="0.9558"
   style="stop-color:#686868"
   id="stop4290" />
		<stop
   offset="0.9785"
   style="stop-color:#5B5B5B"
   id="stop4292" />
		<stop
   offset="1"
   style="stop-color:#575757"
   id="stop4294" />
	</linearGradient><linearGradient
       id="SVGID_26_"
       gradientUnits="userSpaceOnUse"
       x1="21.2129"
       y1="71.326698"
       x2="117.1948"
       y2="51.952599">
		<stop
   offset="0"
   style="stop-color:#EDEDEE"
   id="stop4299" />
		<stop
   offset="0.4176"
   style="stop-color:#FFFFFF"
   id="stop4301" />
		<stop
   offset="0.6264"
   style="stop-color:#F8F9F9"
   id="stop4303" />
		<stop
   offset="1"
   style="stop-color:#BFC0C2"
   id="stop4305" />
	</linearGradient><linearGradient
       id="SVGID_27_"
       gradientUnits="userSpaceOnUse"
       x1="23.471201"
       y1="30.732401"
       x2="27.9561"
       y2="30.732401">
		<stop
   offset="0"
   style="stop-color:#E2E3E4"
   id="stop4316" />
		<stop
   offset="0.5055"
   style="stop-color:#FFFFFF"
   id="stop4318" />
	</linearGradient><linearGradient
       id="SVGID_34_"
       gradientUnits="userSpaceOnUse"
       x1="22.5742"
       y1="49.7188"
       x2="111.5455"
       y2="29.204">
		<stop
   offset="0"
   style="stop-color:#FFFFFF"
   id="stop4743" />
		<stop
   offset="0.6538"
   style="stop-color:#FFFFFF"
   id="stop4745" />
		<stop
   offset="1"
   style="stop-color:#CBCCCE"
   id="stop4747" />
	</linearGradient><linearGradient
       id="SVGID_35_"
       gradientUnits="userSpaceOnUse"
       x1="-158.8101"
       y1="107.0898"
       x2="-126.4229"
       y2="107.0898"
       gradientTransform="matrix(1,0,0,-1,192.3999,143.0996)">
		<stop
   offset="0"
   style="stop-color:#696969"
   id="stop4770" />
		<stop
   offset="0.3702"
   style="stop-color:#2E2E2E"
   id="stop4772" />
		<stop
   offset="0.4554"
   style="stop-color:#424242"
   id="stop4774" />
		<stop
   offset="0.6014"
   style="stop-color:#303030"
   id="stop4776" />
		<stop
   offset="0.6947"
   style="stop-color:#4A4A4A"
   id="stop4778" />
		<stop
   offset="1"
   style="stop-color:#666666"
   id="stop4780" />
	</linearGradient><linearGradient
       id="SVGID_36_"
       gradientUnits="userSpaceOnUse"
       x1="-158.4185"
       y1="107.8965"
       x2="-126.5454"
       y2="107.8965"
       gradientTransform="matrix(1,0,0,-1,192.3999,143.0996)">
		<stop
   offset="0"
   style="stop-color:#525252"
   id="stop4785" />
		<stop
   offset="0.1856"
   style="stop-color:#333333"
   id="stop4787" />
		<stop
   offset="0.354"
   style="stop-color:#AEAEAE"
   id="stop4789" />
		<stop
   offset="0.4199"
   style="stop-color:#ADADAD"
   id="stop4791" />
		<stop
   offset="0.4276"
   style="stop-color:#9D9D9D"
   id="stop4793" />
		<stop
   offset="0.4433"
   style="stop-color:#818181"
   id="stop4795" />
		<stop
   offset="0.4611"
   style="stop-color:#6A6A6A"
   id="stop4797" />
		<stop
   offset="0.4814"
   style="stop-color:#585858"
   id="stop4799" />
		<stop
   offset="0.506"
   style="stop-color:#4C4C4C"
   id="stop4801" />
		<stop
   offset="0.539"
   style="stop-color:#444444"
   id="stop4803" />
		<stop
   offset="0.6166"
   style="stop-color:#424242"
   id="stop4805" />
		<stop
   offset="0.6684"
   style="stop-color:#454545"
   id="stop4807" />
		<stop
   offset="1"
   style="stop-color:#BDBDBD"
   id="stop4809" />
	</linearGradient><linearGradient
       id="SVGID_37_"
       gradientUnits="userSpaceOnUse"
       x1="-153.1255"
       y1="97.627899"
       x2="-154.15421"
       y2="104.4332"
       gradientTransform="matrix(1,0,0,-1,192.3999,143.0996)">
		<stop
   offset="0"
   style="stop-color:#969696"
   id="stop4814" />
		<stop
   offset="1"
   style="stop-color:#000000"
   id="stop4816" />
	</linearGradient><linearGradient
       id="SVGID_38_"
       gradientUnits="userSpaceOnUse"
       x1="38.737301"
       y1="46.373001"
       x2="39.487301"
       y2="38.790001">
		<stop
   offset="0"
   style="stop-color:#333333"
   id="stop4825" />
		<stop
   offset="0.431"
   style="stop-color:#000000"
   id="stop4827" />
		<stop
   offset="1"
   style="stop-color:#2E2E2E"
   id="stop4829" />
	</linearGradient><radialGradient
       id="SVGID_39_"
       cx="-138.2334"
       cy="106.5996"
       r="72.751701"
       gradientTransform="matrix(1,0,0,-1,192.3999,143.0996)"
       gradientUnits="userSpaceOnUse">
		<stop
   offset="0"
   style="stop-color:#000000;stop-opacity:0;"
   id="stop4840" />
		<stop
   offset="0.80220002"
   style="stop-color:#000000;stop-opacity:0.08;"
   id="stop4842" />
		<stop
   offset="1"
   style="stop-color:#000000;stop-opacity:0.3882353;"
   id="stop4844" />
	</radialGradient></defs><g
     transform="translate(-0.49999956,-114.78465)"
     id="Wikipedia"><path
       id="path3505"
       style="font-style:normal;font-variant:normal;font-weight:normal;font-stretch:normal;font-size:25px;line-height:100%;font-family:'Linux Libertine O';-inkscape-font-specification:'Linux Libertine O';text-align:start;letter-spacing:-1;writing-mode:lr-tb;text-anchor:start;fill:#000000;fill-opacity:1;stroke:none"
       d="m 15.531736,115.96902 c 1.122099,0.1615 0.991622,0.75368 0.208763,2.31487 l -1.383054,2.69172 -0.130477,-0.13458 -1.278672,-2.71864 c -0.704574,-1.53428 -0.808955,-1.99187 0.287049,-2.15337 0.156572,-0.16151 0.156572,-0.72677 0,-0.88827 -0.939432,0.0269 -1.35696,0.0538 -2.374678,0.0538 -1.0438128,0 -1.4874359,-0.0269 -2.3224862,-0.0538 -0.1565721,0.1615 -0.1304768,0.72676 0.026095,0.88827 1.1220993,0.1615 1.3308642,0.53834 2.1920102,2.44946 l 2.19201,4.81817 -2.896585,6.1102 H 9.9212343 l -4.77545,-11.22446 c -0.6523831,-1.53428 -0.5740961,-1.96495 1.0699096,-2.15337 0.156572,-0.16151 0.156572,-0.72677 0,-0.88827 -1.2264804,0.0269 -1.8788665,0.0538 -2.8965844,0.0538 -1.0438132,0 -1.4874364,-0.0269 -2.71391694,-0.0538 -0.15657192,0.1615 -0.13047656,0.72676 0.0260954,0.88827 1.48743374,0.13458 1.53962674,0.53834 2.32248654,2.44946 l 5.6887874,13.78159 c 0.1565721,0.40376 0.3392396,0.6191 0.6001932,0.6191 0.2870489,0 0.4697164,-0.21534 0.6262885,-0.6191 l 3.8360174,-7.80598 3.522873,7.80598 c 0.130477,0.40376 0.33924,0.6191 0.600193,0.6191 0.287049,0 0.443621,-0.21534 0.626289,-0.6191 l 6.158503,-13.72776 c 0.548003,-1.23819 0.861149,-2.28796 2.583441,-2.50329 0.156572,-0.16151 0.156572,-0.72677 0,-0.88827 -1.043814,0.0269 -1.6962,0.0538 -2.296392,0.0538 -0.600192,0 -1.356959,-0.0269 -2.58344,-0.0538 -0.156572,0.1615 -0.156572,0.72676 0,0.88827 1.696196,0.13458 1.722293,0.86135 1.1221,2.31487 l -4.958117,11.06296 h -0.130477 l -3.340205,-7.10613 1.904961,-3.76841 c 0.652383,-1.23819 1.226482,-2.28796 2.58344,-2.50329 0.156572,-0.16151 0.156572,-0.72677 0,-0.88827 -0.652383,0.0269 -1.304769,0.0538 -1.904961,0.0538 -0.600192,0 -1.096006,-0.0269 -2.061533,-0.0538 -0.156572,0.1615 -0.156572,0.72676 0,0.88827" /><path
       style="font-style:normal;font-variant:normal;font-weight:normal;font-stretch:normal;font-size:25px;line-height:100%;font-family:'Linux Libertine O C';-inkscape-font-specification:'Linux Libertine O C';text-align:start;letter-spacing:-1;writing-mode:lr-tb;text-anchor:start;fill:#000000;fill-opacity:1;stroke:none"
       id="path3484"
       d="m 31.682673,121.72929 c 0,-0.53834 0.28705,-0.7806 1.096005,-0.86135 l 0.548002,-0.0538 c 0.104382,0 0.156573,-0.0538 0.156573,-0.13459 v -0.56526 l -0.0261,-0.0538 c 0,0 -2.009342,0.0538 -2.713917,0.0538 -0.808955,0 -2.870489,-0.0538 -2.870489,-0.0538 l -0.0261,0.0538 v 0.59218 c 0,0.0807 0.07829,0.10767 0.182667,0.10767 l 0.521907,0.0538 c 0.808956,0.0807 1.122101,0.26917 1.122101,0.86135 v 8.96342 c 0,0.51143 -0.260954,0.9421 -1.122101,1.02286 l -0.521907,0.0538 c -0.104381,0 -0.182667,0.0538 -0.182667,0.1615 v 0.56526 l 0.05219,0.0538 c 0,0 2.035438,-0.0538 2.766107,-0.0538 0.808956,0 2.792203,0.0538 2.792203,0.0538 l 0.0261,-0.0538 v -0.56526 c 0,-0.10767 -0.07829,-0.1615 -0.156573,-0.1615 l -0.548002,-0.0538 c -0.83505,-0.0808 -1.096005,-0.43068 -1.096005,-1.02286 v -8.96342 m -0.234858,-4.68359 c 0,0.67293 0.548003,1.23819 1.200386,1.23819 0.652384,0 1.174291,-0.56526 1.174291,-1.23819 0,-0.67293 -0.521907,-1.21127 -1.174291,-1.21127 -0.652383,0 -1.200386,0.53834 -1.200386,1.21127 m -4.175257,0 c 0,0.67293 0.521908,1.23819 1.174291,1.23819 0.652384,0 1.200386,-0.56526 1.200386,-1.23819 0,-0.67293 -0.548002,-1.21127 -1.200386,-1.21127 -0.652383,0 -1.174291,0.53834 -1.174291,1.21127" /><path
       style="font-style:normal;font-variant:normal;font-weight:normal;font-stretch:normal;font-size:25px;line-height:100%;font-family:'Linux Libertine O C';-inkscape-font-specification:'Linux Libertine O C';text-align:start;letter-spacing:-1;writing-mode:lr-tb;text-anchor:start;fill:#000000;fill-opacity:1;stroke:none"
       id="path3486"
       d="m 37.92721,126.70897 c 0.574098,0 0.991625,0.13459 1.383054,0.67293 l 2.896584,3.71457 c 0.365335,0.43068 0.391431,0.72676 0.391431,1.07669 v 0.323 l 0.0261,0.0269 c 0,0 0.939434,-0.0269 1.591817,-0.0269 0.73067,0 2.113723,0.0269 2.113723,0.0269 l 0.07829,-0.0269 v -0.56526 c 0,-0.0807 -0.104381,-0.13458 -0.182667,-0.1615 l -0.130477,-0.0269 c -0.521906,-0.10767 -1.148195,-0.26917 -1.46134,-0.64601 l -3.940398,-4.89893 c -0.130477,-0.1615 -0.234858,-0.29608 -0.234858,-0.45759 0,-0.21534 0.156573,-0.51142 0.600193,-0.99593 l 2.2442,-2.6648 c 0.939432,-1.10361 1.644009,-1.15744 2.661726,-1.23819 0.130477,0 0.208763,-0.0538 0.208763,-0.13459 v -0.6191 l -0.07829,-0.0269 c 0,0 -1.148195,0.0538 -1.826675,0.0538 -0.756764,0 -2.870489,-0.0538 -2.870489,-0.0538 l -0.02609,0.0269 v 0.6191 c 0,0.0807 0.05219,0.10767 0.156572,0.13459 0.521907,0.0807 0.756765,0.323 0.756765,0.53834 0,0.51143 -0.808957,1.50736 -1.85277,2.69172 -1.148194,1.2651 -1.644008,1.7227 -2.505154,1.7227 v -4.0645 c 0,-0.53834 0.28705,-0.67293 1.096005,-0.83443 l 0.287049,-0.0538 c 0.104381,-0.0269 0.156572,-0.0538 0.156572,-0.13459 v -0.59218 l -0.02609,-0.0538 c 0,0 -1.644008,0.0538 -2.374678,0.0538 -0.808955,0 -2.948775,-0.0538 -2.948775,-0.0538 l -0.0261,0.0538 v 0.6191 c 0,0.0807 0.07829,0.10767 0.182667,0.10767 l 0.521907,0.0538 c 0.835051,0.0808 1.122101,0.24225 1.122101,0.83443 v 8.96342 c 0,0.51143 -0.33924,0.9421 -1.122101,1.02286 l -0.521907,0.0538 c -0.104381,0 -0.182667,0.0538 -0.182667,0.1615 v 0.56526 l 0.05219,0.0538 c 0,0 2.13982,-0.0538 2.870489,-0.0538 0.78286,0 2.426868,0.0538 2.426868,0.0538 l 0.02609,-0.0538 v -0.56526 c 0,-0.10767 -0.07829,-0.13458 -0.156572,-0.1615 l -0.287049,-0.0538 c -0.756764,-0.13459 -1.096005,-0.43068 -1.096005,-1.02286 v -3.98374" /><path
       style="font-style:normal;font-variant:normal;font-weight:normal;font-stretch:normal;font-size:25px;line-height:100%;font-family:'Linux Libertine O C';-inkscape-font-specification:'Linux Libertine O C';text-align:start;letter-spacing:-1;writing-mode:lr-tb;text-anchor:start;fill:#000000;fill-opacity:1;stroke:none"
       id="path3488"
       d="m 50.542684,121.72929 c 0,-0.53834 0.28705,-0.7806 1.096005,-0.86135 l 0.548002,-0.0538 c 0.104382,0 0.156572,-0.0538 0.156572,-0.13459 v -0.56526 l -0.02609,-0.0538 c 0,0 -2.009343,0.0538 -2.713917,0.0538 -0.808955,0 -2.870489,-0.0538 -2.870489,-0.0538 l -0.02609,0.0538 v 0.59218 c 0,0.0807 0.07829,0.10767 0.182667,0.10767 l 0.521907,0.0538 c 0.808955,0.0807 1.1221,0.26917 1.1221,0.86135 v 8.96342 c 0,0.51143 -0.260954,0.9421 -1.1221,1.02286 l -0.521907,0.0538 c -0.104381,0 -0.182667,0.0538 -0.182667,0.1615 v 0.56526 l 0.05219,0.0538 c 0,0 2.035438,-0.0538 2.766108,-0.0538 0.808955,0 2.792203,0.0538 2.792203,0.0538 l 0.02609,-0.0538 v -0.56526 c 0,-0.10767 -0.07829,-0.1615 -0.156572,-0.1615 l -0.548002,-0.0538 c -0.835051,-0.0808 -1.096005,-0.43068 -1.096005,-1.02286 v -8.96342 m -0.234858,-4.68359 c 0,0.67293 0.548002,1.23819 1.200386,1.23819 0.652383,0 1.174291,-0.56526 1.174291,-1.23819 0,-0.67293 -0.521908,-1.21127 -1.174291,-1.21127 -0.652384,0 -1.200386,0.53834 -1.200386,1.21127 m -4.175257,0 c 0,0.67293 0.521907,1.23819 1.174291,1.23819 0.652383,0 1.200386,-0.56526 1.200386,-1.23819 0,-0.67293 -0.548003,-1.21127 -1.200386,-1.21127 -0.652384,0 -1.174291,0.53834 -1.174291,1.21127" /><path
       style="font-style:normal;font-variant:normal;font-weight:normal;font-stretch:normal;font-size:25px;line-height:100%;font-family:'Linux Libertine O C';-inkscape-font-specification:'Linux Libertine O C';text-align:start;letter-spacing:-1;writing-mode:lr-tb;text-anchor:start;fill:#000000;fill-opacity:1;stroke:none"
       id="path3490"
       d="m 56.73503,121.78313 c 0,-0.69985 0.313145,-0.9421 1.565721,-0.9421 1.435243,0 2.452964,0.51142 2.452964,2.8263 0,2.07262 -0.756768,3.04164 -2.322487,3.04164 -0.521907,0 -1.174292,-0.0269 -1.696198,-0.24225 v -4.68359 m -2.009342,9.04417 c 0,0.51143 -0.260955,0.75368 -1.06991,0.86135 l -0.548002,0.0807 c -0.104382,0.0269 -0.156572,0.0538 -0.156572,0.1615 v 0.56526 l 0.0261,0.0538 c 0,0 1.957152,-0.0538 2.687822,-0.0538 0.808955,0 2.896584,0.0538 2.896584,0.0538 l 0.02609,-0.0538 v -0.56526 c 0,-0.10767 -0.07829,-0.13458 -0.182667,-0.1615 l -0.521907,-0.0807 c -0.835052,-0.13459 -1.148196,-0.26917 -1.148196,-0.86135 v -3.6069 c 0.469715,0.21533 0.991624,0.26917 1.644007,0.26917 3.705537,0 4.462306,-2.53022 4.462306,-4.14525 0,-1.39969 -0.678483,-3.28389 -4.384019,-3.28389 -0.965528,0 -2.009344,0.0538 -2.740013,0.0538 -0.756765,0 -2.296392,-0.0538 -2.687821,-0.0538 l -0.05219,0.0269 v 0.6191 c 0,0.0538 0.02609,0.13459 0.182667,0.13459 1.22648,0.0807 1.565722,0.10766 1.565722,0.9421 v 9.04417" /><path
       style="font-style:normal;font-variant:normal;font-weight:normal;font-stretch:normal;font-size:25px;line-height:100%;font-family:'Linux Libertine O C';-inkscape-font-specification:'Linux Libertine O C';text-align:start;letter-spacing:-1;writing-mode:lr-tb;text-anchor:start;fill:#000000;fill-opacity:1;stroke:none"
       id="path3492"
       d="m 72.641372,120.11426 h -4.853736 -1.878865 l -2.609536,-0.0538 -0.0261,0.0538 v 0.59218 c 0,0.0269 0,0.0807 0.156572,0.10767 l 0.600193,0.0538 c 0.730669,0.0538 1.043814,0.21534 1.043814,0.83444 v 9.17875 c 0,0.53835 -0.234859,0.75368 -1.043814,0.83444 l -0.600193,0.0538 c -0.130477,0 -0.156572,0.0808 -0.156572,0.13459 v 0.59217 l 0.0261,0.0538 2.58344,-0.0538 h 6.889174 c 0.05219,-0.86135 0.234858,-1.96495 0.548003,-3.28389 l -0.652384,-0.0807 c -0.417526,1.37277 -0.991626,2.44946 -2.58344,2.44946 h -2.244201 c -0.469716,0 -0.756765,-0.13459 -0.756765,-0.64601 v -4.49517 h 1.957151 c 0.678479,0 0.913338,0.29609 1.017719,0.83443 l 0.130477,0.59218 c 0,0.0807 0.05219,0.13459 0.182667,0.13459 h 0.443621 l 0.05219,-0.0538 c -0.05219,-0.61909 -0.156572,-1.18436 -0.156572,-1.85728 0,-0.64602 0.104381,-1.3997 0.156572,-1.99188 0,-0.0538 -1e-6,-0.0807 -0.05219,-0.0807 h -0.443621 c -0.104381,0 -0.156572,0.0538 -0.156572,0.13459 l -0.156572,0.56526 c -0.104381,0.53834 -0.28705,0.86135 -1.017719,0.86135 h -1.957151 v -3.98374 c 0,-0.4576 0.260953,-0.56526 0.756765,-0.56526 h 2.087628 c 1.670101,0 2.165915,1.42661 2.426868,2.39562 l 0.652384,-0.0808 c -0.182667,-1.02285 -0.33924,-2.07262 -0.365335,-3.23006 M 69.483834,115 h -1.304767 c -0.756766,1.23819 -1.74839,2.39563 -2.687822,3.47231 l 0.521907,0.37684 c 0.991623,-0.72676 1.826675,-1.39969 2.792203,-2.42254 0.887241,0.96902 1.748389,1.64195 2.766108,2.42254 l 0.548002,-0.37684 C 71.180032,117.39563 70.240599,116.26511 69.483834,115" /><path
       style="font-style:normal;font-variant:normal;font-weight:normal;font-stretch:normal;font-size:25px;line-height:100%;font-family:'Linux Libertine O C';-inkscape-font-specification:'Linux Libertine O C';text-align:start;letter-spacing:-1;writing-mode:lr-tb;text-anchor:start;fill:#000000;fill-opacity:1;stroke:none"
       id="path3494"
       d="m 74.053783,131.9309 v 0.56526 l 0.0261,0.0538 c 0,0 1.983247,-0.0538 2.766107,-0.0538 0.808955,0 1.722296,0.0538 3.809922,0.0538 2.896582,0 6.132409,-1.3997 6.132409,-6.1102 0,-3.57999 -2.139825,-6.37937 -6.497744,-6.37937 -0.678479,0 -2.948776,0.0538 -3.444587,0.0538 -0.469716,0 -2.766107,-0.0538 -2.766107,-0.0538 l -0.0261,0.0538 v 0.59218 c 0,0.0807 0.07829,0.13459 0.182668,0.13459 l 0.574098,0.0538 c 0.861145,0.0808 1.043814,0.0808 1.043814,0.7806 v 8.88267 c 0,0.83443 -0.260955,1.07668 -1.043814,1.15744 l -0.600193,0.0538 c -0.104382,0 -0.156573,0.0808 -0.156573,0.1615 m 3.809922,-1.37277 v -8.88267 c 0,-0.67293 0.652384,-0.83443 1.670103,-0.83443 4.384014,0 4.984213,3.25697 4.984213,6.05636 0,3.76841 -1.617915,4.87201 -4.488401,4.87201 -1.983246,0 -2.165915,-0.45759 -2.165915,-1.21127" /><path
       style="font-style:normal;font-variant:normal;font-weight:normal;font-stretch:normal;font-size:25px;line-height:100%;font-family:'Linux Libertine O C';-inkscape-font-specification:'Linux Libertine O C';text-align:start;letter-spacing:-1;writing-mode:lr-tb;text-anchor:start;fill:#000000;fill-opacity:1;stroke:none"
       id="path3496"
       d="m 91.473655,121.72929 c 0,-0.53834 0.28705,-0.7806 1.096005,-0.86135 l 0.548003,-0.0538 c 0.104381,0 0.156572,-0.0538 0.156572,-0.13459 v -0.56526 l -0.0261,-0.0538 c 0,0 -2.009342,0.0538 -2.713917,0.0538 -0.808955,0 -2.870489,-0.0538 -2.870489,-0.0538 l -0.02609,0.0538 v 0.59218 c 0,0.0807 0.07829,0.10767 0.182667,0.10767 l 0.521908,0.0538 c 0.808956,0.0807 1.1221,0.26917 1.1221,0.86135 v 8.96342 c 0,0.51143 -0.260954,0.9421 -1.1221,1.02286 l -0.521908,0.0538 c -0.104381,0 -0.182667,0.0538 -0.182667,0.1615 v 0.56526 l 0.05219,0.0538 c 0,0 2.035438,-0.0538 2.766107,-0.0538 0.808956,0 2.792203,0.0538 2.792203,0.0538 l 0.0261,-0.0538 v -0.56526 c 0,-0.10767 -0.07829,-0.1615 -0.156572,-0.1615 l -0.548003,-0.0538 c -0.83505,-0.0808 -1.096005,-0.43068 -1.096005,-1.02286 v -8.96342 m -0.234858,-4.68359 c 0,0.67293 0.548003,1.23819 1.200386,1.23819 0.652384,0 1.174291,-0.56526 1.174291,-1.23819 0,-0.67293 -0.521907,-1.21127 -1.174291,-1.21127 -0.652383,0 -1.200386,0.53834 -1.200386,1.21127 m -4.175257,0 c 0,0.67293 0.521908,1.23819 1.174291,1.23819 0.652384,0 1.200386,-0.56526 1.200386,-1.23819 0,-0.67293 -0.548002,-1.21127 -1.200386,-1.21127 -0.652383,0 -1.174291,0.53834 -1.174291,1.21127" /><path
       style="font-style:normal;font-variant:normal;font-weight:normal;font-stretch:normal;font-size:25px;line-height:100%;font-family:'Linux Libertine O C';-inkscape-font-specification:'Linux Libertine O C';text-align:start;letter-spacing:-1;writing-mode:lr-tb;text-anchor:start;fill:#000000;fill-opacity:1;stroke:none"
       id="path3498"
       d="m 98.370576,130.85422 c 0,0.53834 -0.313145,0.78059 -1.1221,0.86135 l -0.521907,0.0538 c -0.104382,0 -0.182668,0.0808 -0.182668,0.1615 v 0.56526 l 0.05219,0.0538 c 0,0 2.035439,-0.0538 2.766108,-0.0538 0.808951,0 2.792201,0.0538 2.792201,0.0538 l 0.0522,-0.0538 v -0.56526 c 0,-0.0807 -0.0783,-0.1615 -0.18267,-0.1615 l -0.548,-0.0538 c -0.80895,-0.0808 -1.096,-0.26918 -1.096,-0.86135 v -3.74149 l 2.87049,-5.22193 c 0.39143,-0.72677 0.5219,-0.88827 1.35695,-0.99594 l 0.44362,-0.0538 c 0.18267,-0.0269 0.18267,-0.0808 0.18267,-0.13459 v -0.59218 l -0.0261,-0.0538 c -0.39143,0.0269 -1.59182,0.0538 -1.77449,0.0538 -0.26095,0 -1.72229,-0.0538 -2.00934,-0.0538 l -0.0522,0.0269 v 0.6191 c 0,0.0538 0.0261,0.13459 0.10438,0.13459 l 0.60019,0.0538 c 0.62629,0.0538 0.62629,0.0808 0.28705,0.72676 l -2.426864,4.44134 h -0.05219 l -2.635631,-4.44134 c -0.260953,-0.43067 -0.365334,-0.67293 0.260953,-0.72676 l 0.574098,-0.0538 c 0.07829,0 0.130477,-0.0808 0.130477,-0.13459 v -0.6191 l -0.02609,-0.0269 c -0.313144,0.0269 -2.505154,0.0538 -2.635631,0.0538 -0.287048,0 -1.904961,-0.0538 -2.139819,-0.0538 l -0.05219,0.0538 v 0.59218 c 0,0.10767 0.130477,0.13459 0.208763,0.13459 0.756765,0.0807 1.174292,0.24225 1.51353,0.80751 l 3.288015,5.57186 v 3.63382" /><path
       style="font-style:normal;font-variant:normal;font-weight:normal;font-stretch:normal;font-size:25px;line-height:100%;font-family:'Linux Libertine O C';-inkscape-font-specification:'Linux Libertine O C';text-align:start;letter-spacing:-1;writing-mode:lr-tb;text-anchor:start;fill:#000000;fill-opacity:1;stroke:none"
       id="path3500"
       d="m 107.72332,128.08175 c 0.0522,-0.18842 0.23485,-0.29609 0.57409,-0.29609 h 4.46231 l 1.17429,3.12239 c 0.0261,0.10767 0.0522,0.21534 0.0522,0.29609 0,0.34992 -0.44362,0.43067 -1.04381,0.51143 l -0.46972,0.0538 c -0.10438,0 -0.18267,0.0808 -0.18267,0.1615 v 0.56526 l 0.0522,0.0538 c 0,0 2.19201,-0.0538 2.92268,-0.0538 0.78286,0 2.16592,0.0538 2.16592,0.0538 l 0.0783,-0.0538 v -0.56526 c 0,-0.0807 -0.0261,-0.13458 -0.20876,-0.1615 -0.86115,-0.0807 -1.17429,-0.24225 -1.61791,-1.31894 l -3.80992,-10.04011 c -0.18267,-0.45759 -0.49581,-0.67293 -1.04382,-0.67293 -0.23485,0 -0.65238,0.26917 -0.83505,0.69985 l -4.59278,10.17469 c -0.44362,0.96902 -1.01772,1.07669 -1.6701,1.15744 -0.0783,0 -0.15658,0.0808 -0.15658,0.1615 v 0.56526 l 0.0522,0.0538 c 0,0 1.17429,-0.0538 1.69619,-0.0538 0.49582,0 2.66173,0.0538 2.66173,0.0538 l 0.0522,-0.0538 v -0.56526 c 0,-0.0807 -0.0783,-0.1615 -0.15657,-0.1615 l -0.33924,-0.0269 c -0.65239,-0.0538 -1.06991,-0.13458 -1.06991,-0.48451 0,-0.0807 0.0522,-0.21533 0.10438,-0.34992 l 1.1482,-2.8263 m 4.72326,-1.07669 h -3.54897 c -0.52191,0 -0.52191,-0.24226 -0.52191,-0.37684 l 1.98325,-4.92584 h 0.0261 l 2.06154,5.30268 m -0.52191,-9.93244 c 0,0.67293 0.548,1.23819 1.20038,1.23819 0.65239,0 1.1743,-0.56526 1.1743,-1.23819 0,-0.67293 -0.52191,-1.21127 -1.1743,-1.21127 -0.65238,0 -1.20038,0.53834 -1.20038,1.21127 m -4.17526,0 c 0,0.67293 0.52191,1.23819 1.17429,1.23819 0.65239,0 1.20039,-0.56526 1.20039,-1.23819 0,-0.67293 -0.548,-1.21127 -1.20039,-1.21127 -0.65238,0 -1.17429,0.53834 -1.17429,1.21127" /><path
       style="font-style:normal;font-variant:normal;font-weight:normal;font-stretch:normal;font-size:25px;line-height:100%;font-family:'Linux Libertine O C';-inkscape-font-specification:'Linux Libertine O C';text-align:start;letter-spacing:-1;writing-mode:lr-tb;text-anchor:start;fill:#000000;fill-opacity:1;stroke:none"
       id="path3502"
       d="m 123.35728,124.8786 c -0.57409,0 -0.75676,-0.0808 -0.65238,-0.34992 l 2.60954,-6.83696 h 0.0522 l 2.53125,7.18688 h -4.5406 m -2.89658,5.49111 1.51353,-3.90299 c 0.13048,-0.34993 0.28705,-0.4576 0.91334,-0.4576 h 5.42783 l 1.59182,4.54901 c 0.26095,0.75368 -0.10438,1.07668 -1.09601,1.15744 l -0.73067,0.0538 c -0.13047,0 -0.18266,0.0808 -0.18266,0.21534 v 0.51142 l 0.0261,0.0538 c 0,0 2.55735,-0.0538 3.47068,-0.0538 1.01772,0 3.02706,0.0538 3.02706,0.0538 l 0.0783,-0.0538 v -0.51142 c 0,-0.13459 -0.13048,-0.21534 -0.26095,-0.21534 l -0.28705,-0.0269 c -1.04382,-0.10767 -1.56572,-0.51142 -1.93106,-1.56119 l -5.34955,-14.58911 c -0.20876,-0.53835 -0.33924,-0.80752 -0.70457,-0.80752 -0.39143,0 -0.60019,0.26917 -0.88724,0.96902 l -5.79317,13.99693 c -0.73067,1.7227 -1.38306,1.93804 -2.53125,2.01879 -0.13048,0 -0.20876,0.0808 -0.20876,0.21534 v 0.51142 l 0.0522,0.0538 c 0,0 1.6701,-0.0538 2.34858,-0.0538 0.62629,0 3.47068,0.0538 3.47068,0.0538 l 0.0522,-0.0538 v -0.51142 c 0,-0.13459 -0.10438,-0.21534 -0.20876,-0.21534 l -0.75677,-0.0538 c -0.96552,-0.0808 -1.30476,-0.67293 -1.04381,-1.34586" /></g></svg>
