<?xml version="1.0" encoding="UTF-8" standalone="no"?>
<svg
   xmlns:dc="http://purl.org/dc/elements/1.1/"
   xmlns:cc="http://creativecommons.org/ns#"
   xmlns:rdf="http://www.w3.org/1999/02/22-rdf-syntax-ns#"
   xmlns:svg="http://www.w3.org/2000/svg"
   xmlns="http://www.w3.org/2000/svg"
   x="0px"
   y="0px"
   version="1.1"
   width="114.861"
   viewBox="0 0 114.861 17.436947"
   height="17.436947"
   xml:space="preserve"
   enable-background="new 0 0 135 155"
   id="svg3857"><metadata
   id="metadata698"><rdf:RDF><cc:Work
       rdf:about=""><dc:format>image/svg+xml</dc:format><dc:type
         rdf:resource="http://purl.org/dc/dcmitype/StillImage" /><dc:title /></cc:Work></rdf:RDF></metadata>
<defs
   id="defs3" />

<g
   transform="translate(-10.009,-115.28)"
   id="Wikipedia">
	<path
   d="m 20.757,118.89 c 0,0 -0.367,-0.74 -0.492,-0.99 -0.834,-1.65 -0.816,-1.74 -1.659,-1.85 -0.236,-0.03 -0.358,-0.06 -0.358,-0.18 v -0.52 l 0.071,-0.05 c 1.523,-0.01 4.912,-0.01 4.912,-0.01 l 0.13,0.05 v 0.52 c 0,0.12 -0.085,0.18 -0.258,0.18 l -0.356,0.05 c -0.9,0.07 -0.753,0.44 -0.155,1.63 l 5.677,11.61 0.194,0.05 5.04,-11.96 c 0.175,-0.48 0.148,-0.82 -0.077,-1.02 -0.226,-0.2 -0.385,-0.31 -0.969,-0.34 l -0.473,-0.02 c -0.058,0 -0.113,-0.02 -0.166,-0.06 -0.052,-0.04 -0.079,-0.09 -0.079,-0.15 v -0.49 l 0.072,-0.06 h 5.694 l 0.058,0.06 v 0.49 c 0,0.14 -0.077,0.21 -0.229,0.21 -0.746,0.03 -1.299,0.19 -1.657,0.48 -0.359,0.29 -0.639,0.69 -0.84,1.21 0,0 -4.635,10.61 -6.221,14.14 -0.607,1.15 -1.204,1.05 -1.729,-0.03 -1.109,-2.29 -4.232,-9.22 -4.232,-9.22 z"
   id="path3898" />
	<path
   d="m 29.853,115.29 c 0,0 -3.203,-0.01 -4.629,0 l -0.071,0.05 v 0.49 c 0,0.07 0.026,0.11 0.078,0.15 0.053,0.04 0.107,0.06 0.165,0.06 l 0.229,0.02 c 0.583,0.03 0.851,0.18 0.931,0.28 0.139,0.17 0.208,0.35 -0.129,1.08 l -5.98,11.93 -0.157,-0.04 c 0,0 -4.283,-9.03 -5.523,-12.05 -0.129,-0.31 -0.187,-0.55 -0.187,-0.69 0,-0.31 0.277,-0.47 0.831,-0.49 l 0.646,-0.03 c 0.171,0 0.258,-0.07 0.258,-0.21 v -0.49 l -0.058,-0.05 c 0,0 -5.13,-0.01 -6.19,0 l -0.058,0.05 v 0.52 c 0,0.09 0.119,0.15 0.358,0.18 0.651,0.03 1.079,0.14 1.285,0.31 0.205,0.18 0.422,0.62 0.71,1.31 1.557,3.74 4.865,10.41 6.476,14.21 0.464,1.04 1.047,1.2 1.755,-0.03 1.226,-2.27 4.55,-9.22 4.55,-9.22 l 2.618,-4.89 c 0.305,-0.52 0.599,-0.98 0.748,-1.2 0.273,-0.39 0.426,-0.46 1.172,-0.5 0.152,0 0.229,-0.07 0.229,-0.2 v -0.5 z"
   id="path3900" />
	<path
   d="m 111.92,131.76 0.76,0.05 c 0.1,0 0.2,0.08 0.2,0.21 v 0.49 l -0.05,0.05 c 0,0 -2.83,-0.05 -3.46,-0.05 -0.67,0 -2.34,0.05 -2.34,0.05 l -0.05,-0.05 v -0.49 c 0,-0.13 0.08,-0.21 0.21,-0.21 1.14,-0.08 1.79,-0.29 2.52,-1.95 l 5.77,-13.52 c 0.29,-0.68 0.5,-0.94 0.89,-0.94 0.36,0 0.49,0.26 0.7,0.78 l 5.33,14.1 c 0.36,1.01 0.88,1.4 1.92,1.5 l 0.29,0.03 c 0.13,0 0.26,0.07 0.26,0.21 v 0.49 l -0.08,0.05 c 0,0 -2,-0.05 -3.02,-0.05 -0.91,0 -3.45,0.05 -3.45,0.05 l -0.03,-0.05 v -0.49 c 0,-0.14 0.05,-0.21 0.19,-0.21 l 0.72,-0.05 c 0.99,-0.08 1.36,-0.4 1.1,-1.12 l -1.59,-4.4 h -5.41 c -0.62,0 -0.78,0.11 -0.91,0.44 l -1.51,3.77 c -0.26,0.66 0.08,1.23 1.04,1.31 z m 6.37,-6.61 -2.52,-6.94 h -0.05 l -2.6,6.61 c -0.11,0.26 0.08,0.33 0.65,0.33 z"
   id="path3918" />
<path
   d="m 41.466,132.31 c 0,0.17 -0.048,0.25 -0.144,0.25 -0.408,0 -0.885,-0.01 -1.431,-0.05 -0.534,-0.04 -0.981,-0.05 -1.341,-0.05 -0.366,0 -0.813,0.01 -1.341,0.05 -0.558,0.04 -1.041,0.05 -1.449,0.05 -0.096,0 -0.144,-0.08 -0.144,-0.25 0,-0.15 0.048,-0.24 0.144,-0.24 0.72,-0.08 1.212,-0.21 1.476,-0.41 0.264,-0.19 0.396,-0.56 0.396,-1.11 v -8.47 c 0,-0.42 -0.054,-0.71 -0.162,-0.88 -0.102,-0.18 -0.285,-0.31 -0.549,-0.41 -0.264,-0.1 -0.651,-0.18 -1.161,-0.24 -0.096,0 -0.144,-0.09 -0.144,-0.25 0,-0.17 0.048,-0.26 0.144,-0.26 0.408,0 0.891,0.02 1.449,0.06 0.528,0.03 0.975,0.05 1.341,0.05 0.36,0 0.807,-0.02 1.341,-0.05 0.546,-0.04 1.023,-0.06 1.431,-0.06 0.096,0 0.144,0.09 0.144,0.26 0,0.16 -0.048,0.25 -0.144,0.25 -0.51,0.06 -0.894,0.15 -1.152,0.24 -0.276,0.1 -0.459,0.24 -0.549,0.4 -0.102,0.17 -0.153,0.47 -0.153,0.89 v 8.47 c 0,0.41 0.051,0.71 0.153,0.88 0.102,0.17 0.283,0.3 0.544,0.4 0.261,0.1 0.644,0.18 1.148,0.24 0.102,0.01 0.153,0.09 0.153,0.24 z m 15.226,0 c 0,0.17 -0.048,0.25 -0.144,0.25 -0.402,0 -0.882,-0.01 -1.44,-0.05 -0.534,-0.04 -0.984,-0.05 -1.35,-0.05 -0.36,0 -0.849,0.01 -1.467,0.05 -0.66,0.04 -1.188,0.05 -1.584,0.05 -0.096,0 -0.144,-0.08 -0.144,-0.25 0,-0.15 0.042,-0.23 0.126,-0.24 0.811,-0.1 1.216,-0.29 1.216,-0.59 0,-0.16 -0.132,-0.38 -0.397,-0.64 l -3.573,-3.64 c -0.186,-0.19 -0.354,-0.31 -0.504,-0.38 -0.126,-0.06 -0.318,-0.09 -0.576,-0.09 v 3.82 c 0,0.41 0.051,0.71 0.153,0.88 0.109,0.17 0.294,0.3 0.558,0.4 0.264,0.1 0.648,0.18 1.153,0.24 0.101,0.01 0.152,0.09 0.152,0.24 0,0.17 -0.048,0.25 -0.144,0.25 -0.402,0 -0.882,-0.01 -1.439,-0.05 -0.535,-0.04 -0.985,-0.05 -1.351,-0.05 -0.36,0 -0.804,0.01 -1.332,0.05 -0.558,0.04 -1.038,0.05 -1.44,0.05 -0.095,0 -0.143,-0.08 -0.143,-0.25 0,-0.15 0.048,-0.24 0.143,-0.24 0.72,-0.08 1.212,-0.21 1.476,-0.41 0.265,-0.19 0.397,-0.56 0.397,-1.11 v -8.47 c 0,-0.42 -0.054,-0.71 -0.163,-0.88 -0.102,-0.18 -0.285,-0.31 -0.549,-0.41 -0.264,-0.1 -0.651,-0.18 -1.161,-0.24 -0.095,0 -0.143,-0.09 -0.143,-0.25 0,-0.17 0.048,-0.26 0.143,-0.26 0.402,0 0.882,0.02 1.44,0.06 0.528,0.03 0.972,0.05 1.332,0.05 0.366,0 0.816,-0.02 1.351,-0.05 0.557,-0.04 1.037,-0.06 1.439,-0.06 0.096,0 0.144,0.09 0.144,0.26 0,0.16 -0.048,0.25 -0.144,0.25 -0.516,0.06 -0.903,0.15 -1.161,0.24 -0.264,0.1 -0.449,0.24 -0.558,0.41 -0.102,0.17 -0.153,0.46 -0.153,0.88 v 4.08 c 0.114,0 0.216,-0.01 0.306,-0.02 0.09,-0.01 0.176,-0.04 0.257,-0.07 0.081,-0.04 0.162,-0.09 0.243,-0.15 0.081,-0.06 0.172,-0.14 0.274,-0.23 l 3.951,-3.9 c 0.324,-0.31 0.486,-0.53 0.486,-0.66 0,-0.16 -0.078,-0.28 -0.234,-0.37 -0.156,-0.07 -0.462,-0.15 -0.918,-0.21 -0.096,0 -0.144,-0.09 -0.144,-0.25 0,-0.17 0.054,-0.26 0.162,-0.26 0.282,0 0.654,0.02 1.116,0.06 0.492,0.03 0.9,0.05 1.224,0.05 0.162,0 0.333,0 0.513,-0.01 0.18,-0.01 0.369,-0.03 0.567,-0.05 0.168,-0.01 0.321,-0.02 0.459,-0.03 0.138,-0.01 0.267,-0.02 0.387,-0.02 0.084,0 0.126,0.09 0.126,0.26 0,0.16 -0.048,0.25 -0.144,0.25 -0.57,0.07 -1.023,0.19 -1.359,0.35 -0.342,0.17 -0.738,0.47 -1.188,0.9 l -4.103,3.91 5.102,5.18 c 0.348,0.37 0.696,0.64 1.044,0.81 0.36,0.17 0.876,0.29 1.548,0.37 0.108,0.01 0.162,0.09 0.162,0.24 z m 6.922,0 c 0,0.17 -0.048,0.25 -0.144,0.25 -0.408,0 -0.885,-0.01 -1.431,-0.05 -0.534,-0.04 -0.98,-0.05 -1.34,-0.05 -0.367,0 -0.814,0.01 -1.341,0.05 -0.558,0.04 -1.041,0.05 -1.449,0.05 -0.096,0 -0.144,-0.08 -0.144,-0.25 0,-0.15 0.048,-0.24 0.144,-0.24 0.72,-0.08 1.212,-0.21 1.476,-0.41 0.264,-0.19 0.396,-0.56 0.396,-1.11 v -8.47 c 0,-0.42 -0.054,-0.71 -0.162,-0.88 -0.103,-0.18 -0.286,-0.31 -0.55,-0.41 -0.264,-0.1 -0.651,-0.18 -1.16,-0.24 -0.096,0 -0.144,-0.09 -0.144,-0.25 0,-0.17 0.048,-0.26 0.144,-0.26 0.408,0 0.891,0.02 1.449,0.06 0.527,0.03 0.974,0.05 1.341,0.05 0.36,0 0.806,-0.02 1.34,-0.05 0.546,-0.04 1.023,-0.06 1.431,-0.06 0.096,0 0.144,0.09 0.144,0.26 0,0.16 -0.048,0.25 -0.144,0.25 -0.51,0.06 -0.894,0.15 -1.152,0.24 -0.276,0.1 -0.459,0.24 -0.549,0.4 -0.102,0.17 -0.153,0.47 -0.153,0.89 v 8.47 c 0,0.41 0.051,0.71 0.153,0.88 0.102,0.17 0.284,0.3 0.545,0.4 0.261,0.1 0.643,0.18 1.148,0.24 0.101,0.01 0.152,0.09 0.152,0.24 z m 9.773,-8.59 c 0,-0.97 -0.237,-1.72 -0.711,-2.25 -0.468,-0.54 -1.092,-0.81 -1.872,-0.81 -0.468,0 -0.831,0.03 -1.09,0.1 -0.251,0.08 -0.431,0.19 -0.54,0.36 -0.101,0.16 -0.152,0.48 -0.152,0.96 v 4.13 c 0,0.26 0.081,0.43 0.243,0.52 0.168,0.09 0.519,0.13 1.053,0.13 0.486,0 0.919,-0.07 1.3,-0.22 0.381,-0.14 0.702,-0.35 0.963,-0.62 0.261,-0.27 0.46,-0.6 0.599,-0.99 0.138,-0.39 0.207,-0.83 0.207,-1.31 z m 1.998,0 c 0,1.05 -0.408,1.94 -1.224,2.66 -0.816,0.71 -1.821,1.07 -3.016,1.07 -0.36,0 -0.717,-0.01 -1.07,-0.02 -0.354,-0.02 -0.705,-0.04 -1.053,-0.07 v 3.19 c 0,0.41 0.051,0.71 0.152,0.88 0.109,0.17 0.293,0.3 0.554,0.4 0.261,0.1 0.644,0.18 1.148,0.24 0.096,0 0.144,0.09 0.144,0.24 0,0.17 -0.048,0.25 -0.144,0.25 -0.408,0 -0.885,-0.01 -1.431,-0.05 -0.534,-0.04 -0.981,-0.05 -1.341,-0.05 -0.372,0 -0.822,0.01 -1.35,0.05 -0.558,0.04 -1.038,0.05 -1.44,0.05 -0.096,0 -0.144,-0.08 -0.144,-0.25 0,-0.15 0.048,-0.24 0.144,-0.24 0.72,-0.08 1.212,-0.21 1.476,-0.41 0.264,-0.19 0.396,-0.56 0.396,-1.11 v -8.47 c 0,-0.42 -0.054,-0.71 -0.162,-0.88 -0.102,-0.18 -0.285,-0.31 -0.549,-0.41 -0.264,-0.1 -0.651,-0.18 -1.161,-0.24 -0.096,0 -0.144,-0.09 -0.144,-0.25 0,-0.17 0.048,-0.26 0.144,-0.26 0.402,0 0.882,0.02 1.44,0.06 0.528,0.03 0.978,0.05 1.35,0.05 0.36,0 0.807,-0.02 1.341,-0.05 0.546,-0.04 1.023,-0.06 1.431,-0.06 1.488,0 2.611,0.32 3.37,0.94 0.759,0.62 1.139,1.53 1.139,2.74 z m 7.46,8.59 c 0,0.17 -0.048,0.25 -0.144,0.25 -0.408,0 -0.885,-0.01 -1.431,-0.05 -0.534,-0.04 -0.981,-0.05 -1.341,-0.05 -0.366,0 -0.813,0.01 -1.341,0.05 -0.558,0.04 -1.041,0.05 -1.449,0.05 -0.096,0 -0.144,-0.08 -0.144,-0.25 0,-0.15 0.048,-0.24 0.144,-0.24 0.72,-0.08 1.212,-0.21 1.476,-0.41 0.264,-0.19 0.396,-0.56 0.396,-1.11 v -8.47 c 0,-0.42 -0.054,-0.71 -0.162,-0.88 -0.102,-0.18 -0.285,-0.31 -0.549,-0.41 -0.264,-0.1 -0.651,-0.18 -1.161,-0.24 -0.096,0 -0.144,-0.09 -0.144,-0.25 0,-0.17 0.048,-0.26 0.144,-0.26 0.408,0 0.891,0.02 1.449,0.06 0.528,0.03 0.975,0.05 1.341,0.05 0.36,0 0.807,-0.02 1.341,-0.05 0.546,-0.04 1.023,-0.06 1.431,-0.06 0.096,0 0.144,0.09 0.144,0.26 0,0.16 -0.048,0.25 -0.144,0.25 -0.51,0.06 -0.894,0.15 -1.152,0.24 -0.276,0.1 -0.459,0.24 -0.549,0.4 -0.102,0.17 -0.153,0.47 -0.153,0.89 v 8.47 c 0,0.41 0.051,0.71 0.153,0.88 0.102,0.17 0.283,0.3 0.544,0.4 0.261,0.1 0.644,0.18 1.148,0.24 0.102,0.01 0.153,0.09 0.153,0.24 z m 13.12,-5.92 c 0,-1.63 -0.468,-2.99 -1.404,-4.07 -0.924,-1.08 -2.091,-1.63 -3.501,-1.63 h -0.054 l -1.692,0.04 c -0.708,0.02 -1.062,0.37 -1.062,1.04 v 9.12 c 0,0.68 0.354,1.03 1.062,1.03 l 1.692,0.05 c 1.398,0 2.574,-0.53 3.528,-1.59 0.954,-1.07 1.431,-2.4 1.431,-3.99 z m 1.98,0 c 0,1.85 -0.618,3.34 -1.854,4.47 -1.236,1.14 -2.907,1.7 -5.013,1.7 -0.132,0 -0.331,0 -0.598,-0.01 -0.267,0 -0.602,-0.01 -1.004,-0.02 -0.414,-0.01 -0.759,-0.02 -1.035,-0.03 -0.276,0 -0.483,-0.01 -0.621,-0.01 -0.564,0 -1.116,0.01 -1.656,0.02 -0.54,0.01 -1.074,0.03 -1.602,0.05 -0.096,0 -0.144,-0.08 -0.144,-0.25 0,-0.15 0.048,-0.24 0.144,-0.24 0.252,-0.03 0.473,-0.07 0.662,-0.1 0.189,-0.04 0.349,-0.09 0.481,-0.13 0.27,-0.11 0.453,-0.24 0.549,-0.41 0.108,-0.17 0.162,-0.46 0.162,-0.88 v -8.44 c 0,-0.4 -0.051,-0.69 -0.153,-0.87 -0.096,-0.17 -0.276,-0.31 -0.54,-0.41 -0.264,-0.1 -0.651,-0.19 -1.161,-0.24 -0.096,0 -0.144,-0.09 -0.144,-0.26 0,-0.17 0.048,-0.25 0.144,-0.25 0.354,0.02 0.801,0.04 1.341,0.05 0.54,0.02 1.179,0.02 1.917,0.02 0.276,0 0.828,-0.01 1.656,-0.02 0.798,-0.02 1.332,-0.03 1.602,-0.03 2.058,0 3.714,0.59 4.968,1.76 1.266,1.17 1.899,2.68 1.899,4.53 z m 7.715,5.92 c 0,0.17 -0.05,0.25 -0.14,0.25 -0.41,0 -0.89,-0.01 -1.43,-0.05 -0.54,-0.04 -0.98,-0.05 -1.34,-0.05 -0.37,0 -0.82,0.01 -1.35,0.05 -0.55,0.04 -1.04,0.05 -1.445,0.05 -0.096,0 -0.143,-0.08 -0.143,-0.25 0,-0.15 0.047,-0.24 0.143,-0.24 0.725,-0.08 1.215,-0.21 1.475,-0.41 0.27,-0.19 0.4,-0.56 0.4,-1.11 v -8.47 c 0,-0.42 -0.06,-0.71 -0.16,-0.88 -0.11,-0.18 -0.29,-0.31 -0.55,-0.41 -0.27,-0.1 -0.65,-0.18 -1.165,-0.24 -0.096,0 -0.143,-0.09 -0.143,-0.25 0,-0.17 0.047,-0.26 0.143,-0.26 0.405,0 0.895,0.02 1.445,0.06 0.53,0.03 0.98,0.05 1.35,0.05 0.36,0 0.8,-0.02 1.34,-0.05 0.54,-0.04 1.02,-0.06 1.43,-0.06 0.09,0 0.14,0.09 0.14,0.26 0,0.16 -0.05,0.25 -0.14,0.25 -0.51,0.06 -0.9,0.15 -1.15,0.24 -0.28,0.1 -0.46,0.24 -0.55,0.4 -0.11,0.17 -0.16,0.47 -0.16,0.89 v 8.47 c 0,0.41 0.05,0.71 0.16,0.88 0.1,0.17 0.28,0.3 0.54,0.4 0.26,0.1 0.64,0.18 1.15,0.24 0.1,0.01 0.15,0.09 0.15,0.24 z"
   fill="#000000"
   id="text3071" /></g>

</svg>
