<?xml version="1.0" encoding="UTF-8" standalone="no"?>
<svg
   xmlns:dc="http://purl.org/dc/elements/1.1/"
   xmlns:cc="http://creativecommons.org/ns#"
   xmlns:rdf="http://www.w3.org/1999/02/22-rdf-syntax-ns#"
   xmlns:svg="http://www.w3.org/2000/svg"
   xmlns="http://www.w3.org/2000/svg"
   xml:space="preserve"
   enable-background="new 0 0 135 155"
   viewBox="0 0 118.99772 21.586693"
   height="21.586693"
   width="118.99772"
   y="0px"
   x="0px"
   id="svg3857"
   version="1.1"><metadata
   id="metadata698"><rdf:RDF><cc:Work
       rdf:about=""><dc:format>image/svg+xml</dc:format><dc:type
         rdf:resource="http://purl.org/dc/dcmitype/StillImage" /></cc:Work></rdf:RDF></metadata>
<defs
   id="defs3" />




<path
   id="Wikipedia"
   d="m 114.93418,0.21387173 c 0.8935,0.59885107 1.83928,1.29749487 2.83735,2.09593127 0.81746,0.6653917 1.22618,1.549393 1.22619,2.6520037 -1e-5,0.9505418 -0.009,2.4476367 -0.0285,4.4912845 -0.019,2.0341578 -0.0285,3.6833358 -0.0285,4.9475418 -0.63687,0.845983 -1.28323,1.506607 -1.93909,1.981875 -1e-5,-0.560818 -0.019,-1.905829 -0.057,-4.035034 -0.0285,-2.129191 -0.0428,-3.7403504 -0.0428,-4.8334783 -1e-5,-0.960032 -0.0713,-1.6301615 -0.21387,-2.0103884 -0.14259,-0.3897025 -0.47053,-0.7651698 -0.98381,-1.1263799 -0.33269,-0.2376264 -0.77469,-0.5180314 -1.326,-0.8412298 -0.55131,-0.332674 -0.96955,-0.6035743 -1.25471,-0.8127082 0.57033,-0.95052 1.17391,-1.7869974 1.81078,-2.50941767 m -8.38374,0 c 0.8935,0.59885107 1.83929,1.29749487 2.83735,2.09593127 0.81745,0.6653917 1.22619,1.549393 1.2262,2.6520037 -1e-5,0.9505418 -0.009,2.4476367 -0.0285,4.4912845 -0.019,2.0341578 -0.0285,3.6833358 -0.0285,4.9475418 -0.63686,0.845983 -1.28323,1.506607 -1.9391,1.981875 0,-0.560818 -0.019,-1.905829 -0.057,-4.035034 -0.0285,-2.129191 -0.0428,-3.7403504 -0.0428,-4.8334783 0,-0.960032 -0.0713,-1.6301615 -0.21386,-2.0103884 -0.14259,-0.3897025 -0.47053,-0.7651698 -0.98381,-1.1263799 -0.33269,-0.2376264 -0.77469,-0.5180314 -1.326,-0.8412298 -0.55132,-0.332674 -0.96955,-0.6035743 -1.25471,-0.8127082 0.57032,-0.95052 1.17391,-1.7869974 1.81077,-2.50941767 m -8.112831,0.14257872 c 0.779434,0.59885838 1.858301,1.51137385 3.236571,2.73754655 0.59884,0.5133082 0.89826,1.2024399 0.89826,2.067417 0,0.3897317 -0.0713,0.7699514 -0.21387,1.1406443 -0.61785,1.4638355 -1.4068,2.7755802 -2.366831,3.9352267 -0.712908,0.475275 -1.506607,0.826973 -2.381096,1.055094 1.169159,-2.0531523 1.96285,-3.6025233 2.381096,-4.6481273 0.08554,-0.2091048 0.128311,-0.3802051 0.128321,-0.5132864 -1e-5,-0.4467456 -0.261402,-0.8839866 -0.784193,-1.3117446 C 98.385245,4.0207842 97.444215,3.3554071 96.51269,2.8230967 96.997462,1.9866411 97.639078,1.1644209 98.437529,0.35645045 M 81.912442,5.8172863 c 0,2.2527818 0.0998,4.6718967 0.299422,7.2573527 0.209112,2.585463 0.313672,4.652873 0.313679,6.202251 -0.389731,0.788946 -0.955294,1.558876 -1.696709,2.309803 -7e-6,-1.939095 -0.142586,-4.168101 -0.427744,-6.687023 -0.285164,-2.518923 -0.427743,-4.600597 -0.427743,-6.2450299 0.389717,-0.7223984 1.036085,-1.6681805 1.939095,-2.8373538 M 78.533288,3.963741 C 79.407777,2.4999275 80.382074,1.1786853 81.456185,0 c 0,0.02854348 0.0051,0.0998219 0.01423,0.21387173 0.01898,0.10457428 0.03329,0.18061967 0.04278,0.22812888 0.0095,0.0380336 0.02372,0.10457427 0.04278,0.19961459 0.01898,0.0950695 0.03803,0.16635522 0.05701,0.21387173 0.01898,0.0475238 0.04278,0.10932666 0.07132,0.18535017 0.03803,0.066577 0.07604,0.1188314 0.114065,0.1568431 0.04752,0.028544 0.0998,0.057014 0.156843,0.085543 0.0665,0.019053 0.137819,0.028543 0.213864,0.028543 h 8.412255 c 0.941015,1.46e-5 1.66818,0.2328958 2.181481,0.6986437 0.513279,0.4657772 0.769922,1.2974949 0.769937,2.4951605 -1.5e-5,1.4733403 -0.356465,3.0369684 -1.069352,4.6908991 -0.70341,1.6539385 -1.596916,3.0227115 -2.680518,4.1063205 -0.684393,0.684386 -1.601661,1.302232 -2.751803,1.853545 -1.150157,0.541808 -2.238525,0.864992 -3.265097,0.969551 0.313671,-1.083615 0.784186,-2.081674 1.411552,-2.994197 0.513279,-0.123562 0.960032,-0.242378 1.340259,-0.35645 0.389709,-0.114057 0.788931,-0.251891 1.197672,-0.413479 0.40872,-0.161588 0.755666,-0.337441 1.040838,-0.527551 0.294654,-0.190102 0.579819,-0.413479 0.855486,-0.670129 0.285143,-0.256636 0.518025,-0.546553 0.698644,-0.869744 0.190095,-0.3231773 0.356436,-0.6891325 0.499029,-1.0978665 0.152077,-0.4087266 0.261389,-0.8697368 0.327937,-1.3830304 0.0665,-0.5227911 0.09979,-1.0978656 0.09981,-1.7252237 -1e-5,-0.6748741 -0.156846,-1.1976652 -0.47051,-1.5683874 C 90.453003,4.1491277 90.025267,3.9637775 89.483474,3.9637629 H 78.533288 M 71.632386,0.35647236 c 0.779434,0.59885837 1.858297,1.51137384 3.236575,2.73754654 0.598837,0.5133082 0.898252,1.2024399 0.898259,2.067417 -7e-6,0.3897317 -0.07132,0.7699514 -0.213872,1.1406443 -0.617853,1.4638355 -1.4068,2.7755802 -2.366832,3.9352268 -0.712908,0.475275 -1.506606,0.826973 -2.381096,1.055094 1.169159,-2.0531524 1.96285,-3.6025234 2.381096,-4.6481274 0.08554,-0.2091048 0.128315,-0.3802051 0.128322,-0.5132864 -7e-6,-0.4467456 -0.261403,-0.8839866 -0.784194,-1.3117446 C 71.580102,4.0208061 70.639073,3.355429 69.707547,2.8231186 70.19232,1.986663 70.833935,1.1644428 71.632386,0.35647236 m -11.876959,0 c 0.07604,0.0285435 0.251886,0.0903171 0.527548,0.18535744 0.275649,0.0950695 0.461004,0.16160285 0.556064,0.19961459 0.09505,0.0285435 0.270895,0.0903171 0.527548,0.18535015 0.266143,0.0855648 0.45625,0.15210536 0.570322,0.19961456 0.123562,0.047524 0.304164,0.1188315 0.541806,0.2138718 0.247131,0.095069 0.441991,0.17586 0.584581,0.242386 0.152076,0.066577 0.342183,0.1520981 0.570322,0.2566431 0.228119,0.1045743 0.427731,0.2043816 0.598838,0.2994219 0.180591,0.09507 0.375451,0.2043816 0.58458,0.3279362 0.209107,0.114079 0.413472,0.2328959 0.613097,0.3564505 0.636847,0.3992364 1.107363,0.8459894 1.411547,1.3402589 0.304158,0.4942914 0.456244,1.1644136 0.456258,2.0103812 -1.4e-5,0.731925 -0.02853,1.8297906 -0.08555,3.2936115 -0.05704,1.4638358 -0.08556,2.6139848 -0.08555,3.4504478 -0.17111,0.541815 -0.418249,1.097873 -0.741419,1.668195 -0.323194,0.570322 -0.689151,1.012323 -1.09787,1.326002 H 54.864995 c 0.456256,-0.788947 1.074104,-1.672948 1.853546,-2.652004 h 7.685092 c 0.26614,7e-6 0.48001,-0.0903 0.641612,-0.2709 0.16158,-0.190103 0.242376,-0.418232 0.242388,-0.684387 V 10.565243 C 65.287621,10.194536 65.263856,9.6432302 65.21634,8.9113052 65.178306,8.179402 65.159296,7.6566037 65.159304,7.3429246 65.159293,6.7916193 65.040476,6.3401139 64.802853,5.9884085 64.565208,5.627213 64.175488,5.2850197 63.633692,4.9618286 62.502545,4.2774493 61.067235,3.7166318 59.32776,3.2793763 c -0.608349,0.6368701 -0.91252,1.3687879 -0.912516,2.1957386 -4e-6,0.285172 0.05228,0.5418152 0.156839,0.7699368 0.171091,0.418246 0.769929,0.9172752 1.796514,1.4970948 -0.465769,0.9505419 -0.945789,1.7347358 -1.440063,2.3525815 -1.596906,-0.6368552 -2.504667,-1.4638206 -2.723289,-2.4809031 -0.04753,-0.2376263 -0.07129,-0.4657552 -0.07129,-0.6843866 -2e-6,-1.1406371 0.456255,-2.3715767 1.368774,-3.6928334 0.817457,-1.1691514 1.56838,-2.1291907 2.252773,-2.88013254 m 1.340256,8.32670394 c 0.418229,-0.5703149 0.912508,-1.0645917 1.482838,-1.4828377 0.560808,0.4277508 1.055086,0.9220276 1.482838,1.4828377 C 63.605164,9.244001 63.110885,9.7382778 62.578593,10.166014 62.027274,9.7382778 61.532995,9.244001 61.095755,8.6831763 M 42.132552,0.3707076 c 0.760425,1.4638428 1.316489,2.6139919 1.668192,3.4504547 0.351693,0.82698 0.689133,1.7775145 1.012322,2.8516109 0.190101,0.6748892 0.480015,1.7775072 0.869741,3.3078687 0.399219,1.5208641 0.660616,2.5141701 0.784193,2.9799321 1.226184,-0.7129 1.986612,-1.183415 2.281289,-1.411552 0.760418,-0.589324 1.178655,-1.254701 1.254709,-1.9961235 0.0095,-0.095048 0.01424,-0.1948549 0.01426,-0.2994219 -1.1e-5,-1.1406371 -0.123581,-2.3097958 -0.37071,-3.507476 -0.237644,-1.2071704 -0.494289,-2.1957313 -0.769934,-2.9656754 0.67487,-0.8459675 1.454309,-1.649171 2.338321,-2.4096176 0.598825,1.5969167 0.898244,3.3601668 0.898257,5.2897428 -1.3e-5,1.6634501 -0.232895,3.1557853 -0.698645,4.4770276 -0.171109,0.475274 -0.365969,0.917275 -0.58458,1.326002 -0.218635,0.408734 -0.446764,0.788946 -0.684387,1.140644 -0.237645,0.351698 -0.537064,0.698644 -0.898257,1.040837 -0.361214,0.342193 -0.70816,0.65112 -1.040838,0.926773 -0.323192,0.266148 -0.74618,0.560817 -1.268967,0.884001 -0.522803,0.313672 -1.007576,0.589332 -1.454322,0.826965 -0.437253,0.247139 -1.012327,0.537056 -1.725224,0.869744 -0.712907,0.332682 -1.359271,0.627351 -1.939095,0.883994 -0.570325,0.266148 -1.316496,0.598837 -2.238515,0.998066 0.294665,-1.00757 0.717654,-2.091179 1.268967,-3.250833 1.920081,-0.855487 3.288852,-1.520864 4.10632,-1.996131 C 44.271254,11.620323 43.567857,9.7335035 42.845453,8.1270893 42.132547,6.5111923 41.205775,4.7004184 40.065133,2.6947751 40.692486,1.8202932 41.381624,1.0456041 42.132551,0.3707076 M 24.167402,3.963741 C 25.032389,2.5284417 26.049462,1.2071996 27.218626,0 c -5e-6,0.02854348 0.0047,0.09031713 0.01426,0.18535745 0.01901,0.0855648 0.02851,0.15209808 0.02851,0.19961459 0.0095,0.0380336 0.01901,0.0998219 0.02851,0.18535015 0.01901,0.0855648 0.03802,0.15210538 0.05704,0.19961459 0.01901,0.0380336 0.03802,0.0903171 0.05704,0.15683586 0.02851,0.0665771 0.05703,0.11883146 0.08555,0.15684316 0.03802,0.038034 0.07604,0.076053 0.114064,0.1140644 0.03802,0.038034 0.08079,0.066577 0.128322,0.085543 0.05703,0.019053 0.118813,0.028543 0.185355,0.028543 h 5.603416 C 33.986441,0.76046852 34.437945,0.32322029 34.875204,2.1900372e-5 34.913215,0.29470601 34.932225,0.73195423 34.93224,1.3117666 h 2.766063 C 37.441643,2.1672608 37.013902,3.051262 36.415077,3.9637629 H 34.93224 V 14.457691 c -0.427753,0.617853 -1.145408,1.306985 -2.152966,2.067417 V 3.963741 H 24.167403 M 17.451859,0.35645045 c 0.779436,0.59885838 1.858295,1.51137385 3.236579,2.73754655 0.59883,0.5133082 0.898249,1.2024399 0.898257,2.067417 -8e-6,0.3897317 -0.0713,0.7699514 -0.213871,1.1406443 -0.617855,1.4638355 -1.406801,2.7755802 -2.366837,3.9352267 -0.712907,0.475275 -1.506604,0.826973 -2.381096,1.055094 1.169158,-2.0531523 1.962856,-3.6025233 2.381096,-4.6481273 0.08554,-0.2091048 0.128318,-0.3802051 0.128322,-0.5132864 -4e-6,-0.4467456 -0.261402,-0.8839866 -0.784192,-1.3117446 C 17.399576,4.0207842 16.458546,3.3554071 15.527021,2.8230967 16.011793,1.9866411 16.653406,1.1644209 17.451859,0.35645045 M 2.552192,0.3706857 c 0.7604255,1.4638428 1.3164891,2.6139919 1.6681923,3.4504547 0.3516929,0.82698 0.6891331,1.7775145 1.012322,2.8516109 0.1901011,0.6748892 0.4800146,1.7775072 0.8697412,3.3078687 0.3992182,1.520864 0.6606152,2.51417 0.7841932,2.979933 1.2261835,-0.712901 1.9866119,-1.183416 2.2812887,-1.411552 0.7604182,-0.589325 1.1786546,-1.254702 1.2547086,-1.9961244 0.0095,-0.095048 0.01425,-0.1948549 0.01426,-0.2994219 C 10.436884,8.1128176 10.313314,6.9436589 10.066186,5.7459787 9.828541,4.5388083 9.5718964,3.5502474 9.296251,2.7803033 c 0.6748702,-0.8459675 1.45431,-1.649171 2.338321,-2.4096176 0.598825,1.5969167 0.898244,3.3601668 0.898258,5.2897428 -1.4e-5,1.6634501 -0.232896,3.1557853 -0.698646,4.4770275 -0.171109,0.475274 -0.365969,0.917275 -0.58458,1.326002 -0.218635,0.408734 -0.446764,0.788946 -0.684386,1.140644 -0.237646,0.351698 -0.537065,0.698644 -0.8982579,1.040837 -0.3612138,0.342193 -0.7081595,0.65112 -1.0408379,0.926773 C 8.3029304,14.83786 7.8799423,15.132529 7.3571556,15.455713 6.8343521,15.769385 6.3495793,16.045045 5.9028336,16.282678 5.4655803,16.529817 4.8905064,16.819734 4.1776092,17.152422 3.4647024,17.485104 2.8183378,17.779773 2.2385137,18.036416 1.6681891,18.302564 0.92201829,18.635253 -7.300124e-7,19.034482 0.29466454,18.026912 0.71765307,16.943303 1.2689661,15.783649 3.1890468,14.928162 4.5578186,14.262785 5.3752858,13.787518 4.690894,11.620301 3.9874972,9.7334816 3.2650937,8.1270674 2.5521877,6.5111704 1.625415,4.7003965 0.48477313,2.6947532 1.1121256,1.8202713 1.8012641,1.0455822 2.5521913,0.3706857"
   style="font-style:normal;font-variant:normal;font-weight:normal;font-stretch:normal;font-size:40px;font-family:Sans;-inkscape-font-specification:Sans;fill:#000000;fill-opacity:1;stroke:none;stroke-width:0.730012px;stroke-linecap:butt;stroke-linejoin:miter;stroke-opacity:1" /></svg>
