<?xml version="1.0" encoding="UTF-8" standalone="no"?>
<svg
   xmlns:dc="http://purl.org/dc/elements/1.1/"
   xmlns:cc="http://creativecommons.org/ns#"
   xmlns:rdf="http://www.w3.org/1999/02/22-rdf-syntax-ns#"
   xmlns:svg="http://www.w3.org/2000/svg"
   xmlns="http://www.w3.org/2000/svg"
   id="svg3857"
   xml:space="preserve"
   enable-background="new 0 0 135 155"
   viewBox="0 0 122.8798 20.924999"
   height="20.924999"
   width="122.8798"
   y="0px"
   x="0px"
   version="1.1"><metadata
     id="metadata4852"><rdf:RDF><cc:Work
         rdf:about=""><dc:format>image/svg+xml</dc:format><dc:type
           rdf:resource="http://purl.org/dc/dcmitype/StillImage" /><dc:title /></cc:Work></rdf:RDF></metadata><defs
     id="defs4850"><radialGradient
       id="SVGID_1_"
       cx="-145.4702"
       cy="87.823196"
       r="68.686401"
       gradientTransform="matrix(1,0,0,-1,192.3999,143.0996)"
       gradientUnits="userSpaceOnUse">
		<stop
   offset="0"
   style="stop-color:#FFFFFF"
   id="stop3922" />
		<stop
   offset="0.4835"
   style="stop-color:#EAEAEB"
   id="stop3924" />
		<stop
   offset="0.9451"
   style="stop-color:#A9ABAE"
   id="stop3926" />
		<stop
   offset="1"
   style="stop-color:#999B9E"
   id="stop3928" />
	</radialGradient><linearGradient
       id="SVGID_2_"
       gradientUnits="userSpaceOnUse"
       x1="66.232399"
       y1="24.481001"
       x2="112.7331"
       y2="97.232101">
		<stop
   offset="0"
   style="stop-color:#8A8A8A"
   id="stop3935" />
		<stop
   offset="0.5687"
   style="stop-color:#606060"
   id="stop3937" />
		<stop
   offset="0.5914"
   style="stop-color:#FFFFFF"
   id="stop3939" />
		<stop
   offset="0.6116"
   style="stop-color:#585858"
   id="stop3941" />
		<stop
   offset="1"
   style="stop-color:#303030"
   id="stop3943" />
	</linearGradient><linearGradient
       id="SVGID_5_"
       gradientUnits="userSpaceOnUse"
       x1="54.715801"
       y1="65.136703"
       x2="83.798798"
       y2="65.136703">
		<stop
   offset="0"
   style="stop-color:#231F20"
   id="stop3964" />
		<stop
   offset="1"
   style="stop-color:#474747"
   id="stop3966" />
	</linearGradient><linearGradient
       id="SVGID_6_"
       gradientUnits="userSpaceOnUse"
       x1="-123.5898"
       y1="119.8076"
       x2="-94.069099"
       y2="29.9035"
       gradientTransform="matrix(1,0,0,-1,192.3999,143.0996)">
		<stop
   offset="0"
   style="stop-color:#FFFFFF"
   id="stop3997" />
		<stop
   offset="0.0094"
   style="stop-color:#FCFCFC"
   id="stop3999" />
		<stop
   offset="0.0655"
   style="stop-color:#EEEEEE"
   id="stop4001" />
		<stop
   offset="0.1342"
   style="stop-color:#E5E5E5"
   id="stop4003" />
		<stop
   offset="0.2515"
   style="stop-color:#E3E3E3"
   id="stop4005" />
		<stop
   offset="0.3357"
   style="stop-color:#8A8A8A"
   id="stop4007" />
		<stop
   offset="0.4422"
   style="stop-color:#B8B8B8"
   id="stop4009" />
		<stop
   offset="1"
   style="stop-color:#3B3B3B"
   id="stop4011" />
	</linearGradient><linearGradient
       id="SVGID_7_"
       gradientUnits="userSpaceOnUse"
       x1="70.421898"
       y1="26.876499"
       x2="119.5471"
       y2="87.626701">
		<stop
   offset="0"
   style="stop-color:#EFF0F0"
   id="stop4016" />
		<stop
   offset="0.5914"
   style="stop-color:#F0F1F2"
   id="stop4018" />
		<stop
   offset="0.599"
   style="stop-color:#787878"
   id="stop4020" />
		<stop
   offset="0.6456"
   style="stop-color:#EEEFF0"
   id="stop4022" />
		<stop
   offset="1"
   style="stop-color:#D8D9DB"
   id="stop4024" />
	</linearGradient><linearGradient
       id="SVGID_8_"
       gradientUnits="userSpaceOnUse"
       x1="-117.166"
       y1="122.1328"
       x2="-87.569702"
       y2="31.998501"
       gradientTransform="matrix(1,0,0,-1,192.3999,143.0996)">
		<stop
   offset="0"
   style="stop-color:#FFFFFF"
   id="stop4029" />
		<stop
   offset="1"
   style="stop-color:#E4E5E6"
   id="stop4031" />
	</linearGradient><linearGradient
       id="SVGID_9_"
       gradientUnits="userSpaceOnUse"
       x1="54.653301"
       y1="25.2764"
       x2="79.683601"
       y2="106.3903">
		<stop
   offset="0"
   style="stop-color:#FFFFFF"
   id="stop4036" />
		<stop
   offset="0.7473"
   style="stop-color:#F9F9F9"
   id="stop4038" />
		<stop
   offset="1"
   style="stop-color:#D5D7D8"
   id="stop4040" />
	</linearGradient><linearGradient
       id="SVGID_10_"
       gradientUnits="userSpaceOnUse"
       x1="-115.3369"
       y1="119.6328"
       x2="-134.85719"
       y2="24.6462"
       gradientTransform="matrix(1,0,0,-1,192.3999,143.0996)">
		<stop
   offset="0"
   style="stop-color:#FFFFFF"
   id="stop4061" />
		<stop
   offset="1"
   style="stop-color:#E4E5E6"
   id="stop4063" />
	</linearGradient><linearGradient
       id="SVGID_11_"
       gradientUnits="userSpaceOnUse"
       x1="32.519001"
       y1="33.077099"
       x2="37.2481"
       y2="92.496101">
		<stop
   offset="0.2198"
   style="stop-color:#989A9C"
   id="stop4068" />
		<stop
   offset="0.2527"
   style="stop-color:#FFFFFF"
   id="stop4070" />
	</linearGradient><linearGradient
       id="SVGID_12_"
       gradientUnits="userSpaceOnUse"
       x1="-152.6201"
       y1="126.8398"
       x2="-171.9462"
       y2="32.797901"
       gradientTransform="matrix(1,0,0,-1,192.3999,143.0996)">
		<stop
   offset="0"
   style="stop-color:#FFFFFF"
   id="stop4075" />
		<stop
   offset="1"
   style="stop-color:#E4E5E6"
   id="stop4077" />
	</linearGradient><linearGradient
       id="SVGID_13_"
       gradientUnits="userSpaceOnUse"
       x1="-130.1348"
       y1="35.625"
       x2="-130.14281"
       y2="35.585701"
       gradientTransform="matrix(1,0,0,-1,192.3999,143.0996)">
		<stop
   offset="0"
   style="stop-color:#FFFFFF"
   id="stop4082" />
		<stop
   offset="1"
   style="stop-color:#E4E5E6"
   id="stop4084" />
	</linearGradient><linearGradient
       id="SVGID_14_"
       gradientUnits="userSpaceOnUse"
       x1="-121.1382"
       y1="120.3223"
       x2="-140.54491"
       y2="25.888"
       gradientTransform="matrix(1,0,0,-1,192.3999,143.0996)">
		<stop
   offset="0"
   style="stop-color:#FFFFFF"
   id="stop4093" />
		<stop
   offset="1"
   style="stop-color:#E4E5E6"
   id="stop4095" />
	</linearGradient><linearGradient
       id="SVGID_15_"
       gradientUnits="userSpaceOnUse"
       x1="-135.58591"
       y1="123.3525"
       x2="-155.006"
       y2="28.8524"
       gradientTransform="matrix(1,0,0,-1,192.3999,143.0996)">
		<stop
   offset="0"
   style="stop-color:#FFFFFF"
   id="stop4100" />
		<stop
   offset="1"
   style="stop-color:#E4E5E6"
   id="stop4102" />
	</linearGradient><linearGradient
       id="SVGID_16_"
       gradientUnits="userSpaceOnUse"
       x1="-127.4014"
       y1="121.9365"
       x2="-146.8837"
       y2="27.1346"
       gradientTransform="matrix(1,0,0,-1,192.3999,143.0996)">
		<stop
   offset="0"
   style="stop-color:#FFFFFF"
   id="stop4107" />
		<stop
   offset="1"
   style="stop-color:#E4E5E6"
   id="stop4109" />
	</linearGradient><linearGradient
       id="SVGID_17_"
       gradientUnits="userSpaceOnUse"
       x1="-118.4946"
       y1="124.0039"
       x2="-138.85201"
       y2="24.9438"
       gradientTransform="matrix(1,0,0,-1,192.3999,143.0996)">
		<stop
   offset="0"
   style="stop-color:#FFFFFF"
   id="stop4114" />
		<stop
   offset="1"
   style="stop-color:#E4E5E6"
   id="stop4116" />
	</linearGradient><linearGradient
       id="SVGID_18_"
       gradientUnits="userSpaceOnUse"
       x1="-115.3716"
       y1="119.1758"
       x2="-134.7878"
       y2="24.695299"
       gradientTransform="matrix(1,0,0,-1,192.3999,143.0996)">
		<stop
   offset="0"
   style="stop-color:#FFFFFF"
   id="stop4121" />
		<stop
   offset="1"
   style="stop-color:#E4E5E6"
   id="stop4123" />
	</linearGradient><linearGradient
       id="SVGID_21_"
       gradientUnits="userSpaceOnUse"
       x1="-175.4424"
       y1="83.6045"
       x2="-75.6362"
       y2="83.6045"
       gradientTransform="matrix(1,0,0,-1,192.3999,143.0996)">
		<stop
   offset="0"
   style="stop-color:#555555"
   id="stop4198" />
		<stop
   offset="1"
   style="stop-color:#231F20"
   id="stop4200" />
	</linearGradient><linearGradient
       id="SVGID_22_"
       gradientUnits="userSpaceOnUse"
       x1="-175.14211"
       y1="104.0801"
       x2="-83.541"
       y2="104.0801"
       gradientTransform="matrix(1,0,0,-1,192.3999,143.0996)">
		<stop
   offset="0"
   style="stop-color:#A0A0A0"
   id="stop4205" />
		<stop
   offset="0.0769"
   style="stop-color:#656767"
   id="stop4207" />
		<stop
   offset="1"
   style="stop-color:#717375"
   id="stop4209" />
	</linearGradient><linearGradient
       id="SVGID_23_"
       gradientUnits="userSpaceOnUse"
       x1="-172.3853"
       y1="78.209"
       x2="-172.3853"
       y2="78.209"
       gradientTransform="matrix(1,0,0,-1,192.3999,143.0996)">
		<stop
   offset="0"
   style="stop-color:#FFFFFF"
   id="stop4224" />
		<stop
   offset="0.078"
   style="stop-color:#F4F4F4"
   id="stop4226" />
		<stop
   offset="0.3807"
   style="stop-color:#CECECE"
   id="stop4228" />
		<stop
   offset="0.5396"
   style="stop-color:#BFBFBF"
   id="stop4230" />
		<stop
   offset="0.8357"
   style="stop-color:#7C7C7C"
   id="stop4232" />
		<stop
   offset="0.8996"
   style="stop-color:#A8A8A8"
   id="stop4234" />
		<stop
   offset="0.9093"
   style="stop-color:#9A9A9A"
   id="stop4236" />
		<stop
   offset="0.9327"
   style="stop-color:#7D7D7D"
   id="stop4238" />
		<stop
   offset="0.9558"
   style="stop-color:#686868"
   id="stop4240" />
		<stop
   offset="0.9785"
   style="stop-color:#5B5B5B"
   id="stop4242" />
		<stop
   offset="1"
   style="stop-color:#575757"
   id="stop4244" />
	</linearGradient><linearGradient
       id="SVGID_24_"
       gradientUnits="userSpaceOnUse"
       x1="-175.7173"
       y1="78.449203"
       x2="-67.153198"
       y2="90.476799"
       gradientTransform="matrix(1,0,0,-1,192.3999,143.0996)">
		<stop
   offset="0"
   style="stop-color:#FFFFFF"
   id="stop4249" />
		<stop
   offset="0.078"
   style="stop-color:#F4F4F4"
   id="stop4251" />
		<stop
   offset="0.3807"
   style="stop-color:#CECECE"
   id="stop4253" />
		<stop
   offset="0.5396"
   style="stop-color:#BFBFBF"
   id="stop4255" />
		<stop
   offset="0.8357"
   style="stop-color:#7C7C7C"
   id="stop4257" />
		<stop
   offset="0.8996"
   style="stop-color:#A8A8A8"
   id="stop4259" />
		<stop
   offset="0.9093"
   style="stop-color:#9A9A9A"
   id="stop4261" />
		<stop
   offset="0.9327"
   style="stop-color:#7D7D7D"
   id="stop4263" />
		<stop
   offset="0.9558"
   style="stop-color:#686868"
   id="stop4265" />
		<stop
   offset="0.9785"
   style="stop-color:#5B5B5B"
   id="stop4267" />
		<stop
   offset="1"
   style="stop-color:#575757"
   id="stop4269" />
	</linearGradient><linearGradient
       id="SVGID_25_"
       gradientUnits="userSpaceOnUse"
       x1="-176.1851"
       y1="78.4795"
       x2="-52.131699"
       y2="92.223099"
       gradientTransform="matrix(1,0,0,-1,192.3999,143.0996)">
		<stop
   offset="0"
   style="stop-color:#FFFFFF"
   id="stop4274" />
		<stop
   offset="0.078"
   style="stop-color:#F4F4F4"
   id="stop4276" />
		<stop
   offset="0.3807"
   style="stop-color:#CECECE"
   id="stop4278" />
		<stop
   offset="0.5396"
   style="stop-color:#BFBFBF"
   id="stop4280" />
		<stop
   offset="0.8357"
   style="stop-color:#7C7C7C"
   id="stop4282" />
		<stop
   offset="0.8996"
   style="stop-color:#A8A8A8"
   id="stop4284" />
		<stop
   offset="0.9093"
   style="stop-color:#9A9A9A"
   id="stop4286" />
		<stop
   offset="0.9327"
   style="stop-color:#7D7D7D"
   id="stop4288" />
		<stop
   offset="0.9558"
   style="stop-color:#686868"
   id="stop4290" />
		<stop
   offset="0.9785"
   style="stop-color:#5B5B5B"
   id="stop4292" />
		<stop
   offset="1"
   style="stop-color:#575757"
   id="stop4294" />
	</linearGradient><linearGradient
       id="SVGID_26_"
       gradientUnits="userSpaceOnUse"
       x1="21.2129"
       y1="71.326698"
       x2="117.1948"
       y2="51.952599">
		<stop
   offset="0"
   style="stop-color:#EDEDEE"
   id="stop4299" />
		<stop
   offset="0.4176"
   style="stop-color:#FFFFFF"
   id="stop4301" />
		<stop
   offset="0.6264"
   style="stop-color:#F8F9F9"
   id="stop4303" />
		<stop
   offset="1"
   style="stop-color:#BFC0C2"
   id="stop4305" />
	</linearGradient><linearGradient
       id="SVGID_27_"
       gradientUnits="userSpaceOnUse"
       x1="23.471201"
       y1="30.732401"
       x2="27.9561"
       y2="30.732401">
		<stop
   offset="0"
   style="stop-color:#E2E3E4"
   id="stop4316" />
		<stop
   offset="0.5055"
   style="stop-color:#FFFFFF"
   id="stop4318" />
	</linearGradient><linearGradient
       id="SVGID_34_"
       gradientUnits="userSpaceOnUse"
       x1="22.5742"
       y1="49.7188"
       x2="111.5455"
       y2="29.204">
		<stop
   offset="0"
   style="stop-color:#FFFFFF"
   id="stop4743" />
		<stop
   offset="0.6538"
   style="stop-color:#FFFFFF"
   id="stop4745" />
		<stop
   offset="1"
   style="stop-color:#CBCCCE"
   id="stop4747" />
	</linearGradient><linearGradient
       id="SVGID_35_"
       gradientUnits="userSpaceOnUse"
       x1="-158.8101"
       y1="107.0898"
       x2="-126.4229"
       y2="107.0898"
       gradientTransform="matrix(1,0,0,-1,192.3999,143.0996)">
		<stop
   offset="0"
   style="stop-color:#696969"
   id="stop4770" />
		<stop
   offset="0.3702"
   style="stop-color:#2E2E2E"
   id="stop4772" />
		<stop
   offset="0.4554"
   style="stop-color:#424242"
   id="stop4774" />
		<stop
   offset="0.6014"
   style="stop-color:#303030"
   id="stop4776" />
		<stop
   offset="0.6947"
   style="stop-color:#4A4A4A"
   id="stop4778" />
		<stop
   offset="1"
   style="stop-color:#666666"
   id="stop4780" />
	</linearGradient><linearGradient
       id="SVGID_36_"
       gradientUnits="userSpaceOnUse"
       x1="-158.4185"
       y1="107.8965"
       x2="-126.5454"
       y2="107.8965"
       gradientTransform="matrix(1,0,0,-1,192.3999,143.0996)">
		<stop
   offset="0"
   style="stop-color:#525252"
   id="stop4785" />
		<stop
   offset="0.1856"
   style="stop-color:#333333"
   id="stop4787" />
		<stop
   offset="0.354"
   style="stop-color:#AEAEAE"
   id="stop4789" />
		<stop
   offset="0.4199"
   style="stop-color:#ADADAD"
   id="stop4791" />
		<stop
   offset="0.4276"
   style="stop-color:#9D9D9D"
   id="stop4793" />
		<stop
   offset="0.4433"
   style="stop-color:#818181"
   id="stop4795" />
		<stop
   offset="0.4611"
   style="stop-color:#6A6A6A"
   id="stop4797" />
		<stop
   offset="0.4814"
   style="stop-color:#585858"
   id="stop4799" />
		<stop
   offset="0.506"
   style="stop-color:#4C4C4C"
   id="stop4801" />
		<stop
   offset="0.539"
   style="stop-color:#444444"
   id="stop4803" />
		<stop
   offset="0.6166"
   style="stop-color:#424242"
   id="stop4805" />
		<stop
   offset="0.6684"
   style="stop-color:#454545"
   id="stop4807" />
		<stop
   offset="1"
   style="stop-color:#BDBDBD"
   id="stop4809" />
	</linearGradient><linearGradient
       id="SVGID_37_"
       gradientUnits="userSpaceOnUse"
       x1="-153.1255"
       y1="97.627899"
       x2="-154.15421"
       y2="104.4332"
       gradientTransform="matrix(1,0,0,-1,192.3999,143.0996)">
		<stop
   offset="0"
   style="stop-color:#969696"
   id="stop4814" />
		<stop
   offset="1"
   style="stop-color:#000000"
   id="stop4816" />
	</linearGradient><linearGradient
       id="SVGID_38_"
       gradientUnits="userSpaceOnUse"
       x1="38.737301"
       y1="46.373001"
       x2="39.487301"
       y2="38.790001">
		<stop
   offset="0"
   style="stop-color:#333333"
   id="stop4825" />
		<stop
   offset="0.431"
   style="stop-color:#000000"
   id="stop4827" />
		<stop
   offset="1"
   style="stop-color:#2E2E2E"
   id="stop4829" />
	</linearGradient><radialGradient
       id="SVGID_39_"
       cx="-138.2334"
       cy="106.5996"
       r="72.751701"
       gradientTransform="matrix(1,0,0,-1,192.3999,143.0996)"
       gradientUnits="userSpaceOnUse">
		<stop
   offset="0"
   style="stop-color:#000000;stop-opacity:0;"
   id="stop4840" />
		<stop
   offset="0.80220002"
   style="stop-color:#000000;stop-opacity:0.08;"
   id="stop4842" />
		<stop
   offset="1"
   style="stop-color:#000000;stop-opacity:0.3882353;"
   id="stop4844" />
	</radialGradient></defs><g
     transform="translate(-6.0601025,-115.058)"
     title="УикипедиЯ"
     id="wikipedia"
     style="font-style:normal;font-variant:normal;font-weight:normal;font-size:27px;line-height:125%;font-family:'Linux Libertine O';-inkscape-font-specification:'Linux Libertine O';text-align:start;letter-spacing:-0.8;writing-mode:lr-tb;text-anchor:start;fill:#000000;fill-opacity:1;stroke:none"><path
       id="path3452"
       d="m 11.325102,131.42 c -0.377999,0 -0.783,-0.297 -0.972,-0.54 -0.269999,-0.324 -0.8639999,-0.513 -1.2419995,-0.513 -0.8639992,0 -1.269,0.486 -1.269,1.242 0,0.864 1.2420011,1.485 2.3759995,1.485 2.429998,0 3.915002,-1.998 5.076,-4.941 l 4.239,-10.935 c 0.405,-1.08 0.675002,-1.323 1.917,-1.404 0.108,0 0.297,-0.054 0.297,-0.216 v -0.513 l -0.054,-0.027 c 0,0 -1.296,0.027 -2.16,0.027 -1.133998,0 -2.916,-0.027 -2.916,-0.027 l -0.027,0.027 v 0.54 c 0,0.108 0.054,0.189 0.162,0.189 l 0.783,0.054 c 1.079999,0.081 1.242,0.162 0.891,1.107 l -3.483,9.342 h -0.054 l -4.239,-9.342 c -0.323999,-0.702 -0.269999,-1.053 0.594,-1.107 l 1.026,-0.054 c 0.135,0 0.189,-0.081 0.189,-0.216 v -0.513 l -0.054,-0.027 c 0,0 -2.160001,0.027 -3.5099995,0.027 -1.1069989,0 -2.808,-0.027 -2.808,-0.027 l -0.027,0.027 v 0.54 c 0,0.108 0.1080001,0.189 0.27,0.189 1.2959987,0.081 1.8630002,1.053 2.106,1.593 l 5.2649995,11.421 c -0.836999,2.025 -1.512,2.592 -2.376,2.592" /><path
       id="path3454"
       d="m 23.491852,120.917 c -1.160999,0 -2.943,-0.054 -2.943,-0.054 l -0.081,0.054 v 0.594 c 0,0.108 0.054,0.135 0.162,0.135 l 0.81,0.054 c 1.025999,0.081 1.08,0.297 1.08,1.431 v 7.29 c 0,0.945 -0.054,1.242 -1.08,1.296 l -0.837,0.054 c -0.081,0 -0.135,0.054 -0.135,0.135 v 0.594 l 0.027,0.054 c 0,0 1.836001,-0.054 2.997,-0.054 0.863999,0 2.187,0.054 2.187,0.054 l 0.027,-0.054 v -0.567 c 0,-0.108 -0.054,-0.162 -0.162,-0.162 -0.917999,-0.081 -0.999,-0.378 -0.999,-1.026 v -0.054 l 5.562,-6.696 v 6.372 c 0,0.945 -0.081,1.296 -1.107,1.35 l -0.837,0.054 c -0.081,0 -0.135,0.054 -0.135,0.135 v 0.594 0.054 c 0,0 1.836001,-0.054 3.024,-0.054 1.214999,0 3.105,0.054 3.105,0.054 l 0.027,-0.054 v -0.567 c 0,-0.108 -0.054,-0.162 -0.162,-0.162 l -0.81,-0.054 c -0.944999,-0.054 -1.08,-0.351 -1.08,-1.35 v -7.263 c 0,-1.134 0.081,-1.35 1.08,-1.404 l 0.81,-0.054 c 0.108,0 0.162,-0.054 0.162,-0.162 v -0.567 l -0.027,-0.054 c 0,0 -1.890001,0.054 -3.105,0.054 -0.755999,0 -1.971,-0.054 -1.971,-0.054 l -0.054,0.054 v 0.594 c 0,0.108 0.054,0.135 0.135,0.135 0.917999,0.081 0.945,0.54 0.945,1.188 l -5.562,6.696 v -6.426 c 0,-1.107 0.081,-1.323 1.107,-1.404 l 0.81,-0.054 c 0.108,0 0.162,-0.054 0.162,-0.162 v -0.567 l -0.054,-0.054 c 0,0 -1.890001,0.054 -3.078,0.054" /><path
       id="path3456"
       d="m 39.112493,130.637 v -3.78 c 2.024998,0.135 2.619,1.107 3.132,2.592 0.404999,1.188 1.242001,3.051 2.592,3.078 l 1.944,0.027 0.081,-0.054 v -0.486 c 0,-0.189 -0.189,-0.243 -0.297,-0.243 l -0.216,-0.027 c -0.971999,-0.135 -2.079001,-2.484 -2.511,-3.51 -0.54,-1.323 -1.593002,-1.863 -3.051,-1.863 1.160999,-0.189 1.782,-1.296 2.187,-2.457 0.296999,-0.837 0.702,-1.431 0.972,-1.431 0.242999,0 0.432,0.081 0.54,0.189 0.162,0.162 0.54,0.27 0.81,0.27 0.485999,0 1.026,-0.513 1.026,-1.053 0,-0.648 -0.297001,-1.215 -1.404,-1.215 -1.295999,0 -2.160001,1.458 -2.646,2.727 -0.567,1.485 -1.350002,2.511 -3.159,2.511 v -3.078 c 0,-0.972 0.567,-1.107 1.35,-1.188 0.108,0 0.216,-0.135 0.216,-0.27 v -0.459 l -0.054,-0.054 c 0,0 -1.512001,0.054 -2.565,0.054 -0.944999,0 -2.781,-0.054 -2.781,-0.054 l -0.054,0.054 v 0.513 c 0,0.135 0.081,0.189 0.216,0.216 l 0.513,0.054 c 0.863999,0.081 1.134,0.432 1.134,1.188 v 7.695 c 0,0.756 -0.189001,1.026 -1.134,1.134 l -0.513,0.054 c -0.135,0.027 -0.216,0.081 -0.216,0.216 v 0.513 l 0.054,0.054 c 0,0 1.836001,-0.054 2.781,-0.054 1.052999,0 2.619,0.054 2.619,0.054 l 0.054,-0.054 v -0.513 c 0,-0.135 -0.108,-0.189 -0.216,-0.216 -0.594,-0.081 -1.404,-0.243 -1.404,-1.134" /><path
       id="path3458"
       d="m 50.315679,120.917 c -1.160999,0 -2.943,-0.054 -2.943,-0.054 l -0.081,0.054 v 0.594 c 0,0.108 0.054,0.135 0.162,0.135 l 0.81,0.054 c 1.025999,0.081 1.08,0.297 1.08,1.431 v 7.29 c 0,0.945 -0.054,1.242 -1.08,1.296 l -0.837,0.054 c -0.081,0 -0.135,0.054 -0.135,0.135 v 0.594 l 0.027,0.054 c 0,0 1.836001,-0.054 2.997,-0.054 0.863999,0 2.187,0.054 2.187,0.054 l 0.027,-0.054 v -0.567 c 0,-0.108 -0.054,-0.162 -0.162,-0.162 -0.917999,-0.081 -0.999,-0.378 -0.999,-1.026 v -0.054 l 5.562,-6.696 v 6.372 c 0,0.945 -0.081,1.296 -1.107,1.35 l -0.837,0.054 c -0.081,0 -0.135,0.054 -0.135,0.135 v 0.594 0.054 c 0,0 1.836001,-0.054 3.024,-0.054 1.214999,0 3.105,0.054 3.105,0.054 l 0.027,-0.054 v -0.567 c 0,-0.108 -0.054,-0.162 -0.162,-0.162 l -0.81,-0.054 c -0.944999,-0.054 -1.08,-0.351 -1.08,-1.35 v -7.263 c 0,-1.134 0.081,-1.35 1.08,-1.404 l 0.81,-0.054 c 0.108,0 0.162,-0.054 0.162,-0.162 v -0.567 l -0.027,-0.054 c 0,0 -1.890001,0.054 -3.105,0.054 -0.755999,0 -1.971,-0.054 -1.971,-0.054 l -0.054,0.054 v 0.594 c 0,0.108 0.054,0.135 0.135,0.135 0.917999,0.081 0.945,0.54 0.945,1.188 l -5.562,6.696 v -6.426 c 0,-1.107 0.081,-1.323 1.107,-1.404 l 0.81,-0.054 c 0.108,0 0.162,-0.054 0.162,-0.162 v -0.567 l -0.054,-0.054 c 0,0 -1.890001,0.054 -3.078,0.054" /><path
       id="path3460"
       d="m 64.04632,123.023 v 7.425 c 0,0.945 -0.135001,1.215 -1.107,1.269 l -0.81,0.054 c -0.107999,0 -0.162,0.054 -0.162,0.135 v 0.594 l 0.054,0.054 c 0,0 1.836002,-0.054 3.024,-0.054 1.160999,0 2.943,0.054 2.943,0.054 l 0.027,-0.054 v -0.567 c 0,-0.108 -0.054,-0.162 -0.135,-0.162 l -0.729,-0.054 c -0.917999,-0.054 -1.08,-0.243 -1.08,-1.269 v -7.425 c 0,-0.945 0.540001,-1.053 1.107,-1.053 h 3.267 c 0.54,0 1.107,0.054 1.107,1.053 v 7.425 c 0,0.945 -0.135001,1.188 -1.107,1.269 l -0.729,0.054 c -0.081,0 -0.135,0.054 -0.135,0.135 v 0.594 l 0.027,0.054 c 0,0 1.809002,-0.054 2.97,-0.054 1.187999,0 3.024,0.054 3.024,0.054 l 0.027,-0.054 v -0.567 c 0,-0.108 -0.054,-0.162 -0.162,-0.162 l -0.81,-0.054 c -0.944999,-0.054 -1.107,-0.243 -1.107,-1.269 v -7.452 c 0,-1.107 0.081,-1.215 1.107,-1.296 l 0.81,-0.054 c 0.108,0 0.162,-0.054 0.162,-0.162 v -0.567 l -0.027,-0.054 c 0,0 -1.890001,0.054 -3.105,0.054 h -7.479 c -1.160998,0 -2.97,-0.054 -2.97,-0.054 l -0.054,0.054 v 0.594 c 0,0.108 0.054,0.135 0.135,0.135 l 0.81,0.054 c 0.971999,0.054 1.107,0.189 1.107,1.323" /><path
       id="path3462"
       d="m 78.783556,124.751 c 0.485999,-3.051 2.484,-3.186 3.105,-3.186 0.971999,0 2.241,0.54 2.241,2.808 0,0.243 -0.108001,0.378 -0.378,0.378 h -4.968 m 7.128,5.184 c -0.944999,1.026 -1.890002,1.512 -3.375,1.512 -1.511999,0 -3.834,-1.62 -3.834,-5.643 h 7.101 c 0.296999,0 0.486,-0.162 0.486,-0.459 0,-2.268 -0.837004,-4.698 -4.401,-4.698 -2.564998,0 -5.346,2.376 -5.346,6.48 0,3.105 1.647003,5.643 5.346,5.643 1.943998,0 3.537001,-0.999 4.563,-2.403 -0.081,-0.27 -0.243001,-0.405 -0.54,-0.432" /><path
       id="path3464"
       d="m 90.450381,131.123 c 0,-0.459 0.675,-2.32201 1.053,-8.478 0,-0.108 0.135,-0.702 0.756,-0.702 h 2.187 c 0.998999,0 1.08,0.405 1.08,1.323 v 6.858 c 0,0.891 -0.081,1.323 -1.08,1.323 h -3.483 c -0.27,0 -0.513,-0.027 -0.513,-0.324 m 0.459,1.377 h 4.644 c 2.240997,0 3.024,2.376 3.24,3.456 h 0.675 l -0.162,-3.618 c 0,-0.378 -0.189001,-0.486 -0.675,-0.567 -0.459,-0.081 -1.08,-0.324 -1.08,-1.323 v -7.479 c 0,-0.918 0.270001,-1.161 1.242,-1.269 l 0.459,-0.054 c 0.081,0 0.189,-0.081 0.189,-0.189 v -0.54 l -0.027,-0.054 c 0,0 -1.971001,0.054 -2.862,0.054 h -5.643 c -0.459,0 -2.565,-0.054 -2.565,-0.054 l -0.081,0.054 v 0.594 c 0,0.108 0.081,0.135 0.189,0.135 l 0.729,0.054 c 0.944999,0.081 1.107,0.621 1.107,0.945 0,3.213 -0.486001,5.67 -0.999,7.965 -0.162,0.729 -0.648001,1.08 -1.35,1.161 -0.378,0.054 -0.729,0.108 -0.756,0.594 l -0.162,3.591 0.702,0.027 c 0.215999,-0.999 0.918002,-3.483 3.186,-3.483" /><path
       id="path3466"
       d="m 103.38326,120.917 c -1.161,0 -2.943,-0.054 -2.943,-0.054 l -0.081,0.054 v 0.594 c 0,0.108 0.054,0.135 0.162,0.135 l 0.81,0.054 c 1.026,0.081 1.08,0.297 1.08,1.431 v 7.29 c 0,0.945 -0.054,1.242 -1.08,1.296 l -0.837,0.054 c -0.081,0 -0.135,0.054 -0.135,0.135 v 0.594 l 0.027,0.054 c 0,0 1.836,-0.054 2.997,-0.054 0.864,0 2.187,0.054 2.187,0.054 l 0.027,-0.054 v -0.567 c 0,-0.108 -0.054,-0.162 -0.162,-0.162 -0.918,-0.081 -0.999,-0.378 -0.999,-1.026 v -0.054 l 5.562,-6.696 v 6.372 c 0,0.945 -0.081,1.296 -1.107,1.35 l -0.837,0.054 c -0.081,0 -0.135,0.054 -0.135,0.135 v 0.594 0.054 c 0,0 1.836,-0.054 3.024,-0.054 1.215,0 3.105,0.054 3.105,0.054 l 0.027,-0.054 v -0.567 c 0,-0.108 -0.054,-0.162 -0.162,-0.162 l -0.81,-0.054 c -0.945,-0.054 -1.08,-0.351 -1.08,-1.35 v -7.263 c 0,-1.134 0.081,-1.35 1.08,-1.404 l 0.81,-0.054 c 0.108,0 0.162,-0.054 0.162,-0.162 v -0.567 l -0.027,-0.054 c 0,0 -1.89,0.054 -3.105,0.054 -0.756,0 -1.971,-0.054 -1.971,-0.054 l -0.054,0.054 v 0.594 c 0,0.108 0.054,0.135 0.135,0.135 0.918,0.081 0.945,0.54 0.945,1.188 l -5.562,6.696 v -6.426 c 0,-1.107 0.081,-1.323 1.107,-1.404 l 0.81,-0.054 c 0.108,0 0.162,-0.054 0.162,-0.162 v -0.567 l -0.054,-0.054 c 0,0 -1.89,0.054 -3.078,0.054" /><path
       id="path3468"
       d="m 124.3229,123.779 v 6.75 c 0,0.756 -0.351,1.107 -1.485,1.188 l -0.702,0.054 c -0.135,0 -0.216,0.081 -0.216,0.216 v 0.513 l 0.054,0.054 c 0,0 2.511,-0.054 3.483,-0.054 1.053,0 3.402,0.054 3.402,0.054 l 0.054,-0.054 v -0.513 c 0,-0.135 -0.108,-0.216 -0.216,-0.216 l -0.729,-0.054 c -1.107,-0.081 -1.458,-0.378 -1.458,-1.188 v -13.473 c 0,-0.918 0.297,-1.107 1.431,-1.188 l 0.81,-0.054 c 0.135,0 0.189,-0.081 0.189,-0.189 v -0.567 c 0,0 -2.619,0.027 -3.456,0.027 -0.891,0 -2.484,-0.027 -3.429,-0.027 -5.022,0 -5.94,2.43 -5.94,4.293 0,2.754 2.187,3.996 4.023,4.266 -0.702,0.486 -1.08,1.404 -1.512,2.511 -1.431,3.591 -2.808,5.508 -3.672,5.616 l -0.243,0.027 c -0.108,0 -0.189,0.081 -0.189,0.216 v 0.513 l 0.027,0.054 1.782,-0.027 c 1.917,-0.027 2.7,-1.917 3.753,-4.887 0.972,-2.754 1.377,-3.861 4.239,-3.861 m 0,-6.804 v 5.751 h -2.106 c -2.241,0 -3.915,-0.918 -3.915,-3.78 0,-2.511 2.052,-2.943 3.564,-2.943 2.349,0 2.457,0.081 2.457,0.972" /></g></svg>
