<?xml version="1.0" encoding="UTF-8" standalone="no"?>
<svg
   xmlns:dc="http://purl.org/dc/elements/1.1/"
   xmlns:cc="http://creativecommons.org/ns#"
   xmlns:rdf="http://www.w3.org/1999/02/22-rdf-syntax-ns#"
   xmlns:svg="http://www.w3.org/2000/svg"
   xmlns="http://www.w3.org/2000/svg"
   version="1.1"
   id="svg2"
   height="24.045071"
   width="106.45142">
  <defs
     id="defs4">
    <radialGradient
       gradientUnits="userSpaceOnUse"
       gradientTransform="matrix(1,0,0,-1,192.3999,143.0996)"
       r="72.751701"
       cy="106.5996"
       cx="-138.2334"
       id="SVGID_39_-8">
      <stop
         id="stop4840-1"
         style="stop-color:#000000;stop-opacity:0;"
         offset="0" />
      <stop
         id="stop4842-8"
         style="stop-color:#000000;stop-opacity:0.08;"
         offset="0.80220002" />
      <stop
         id="stop4844-2"
         style="stop-color:#000000;stop-opacity:0.3882353;"
         offset="1" />
    </radialGradient>
    <linearGradient
       y2="38.790001"
       x2="39.487301"
       y1="46.373001"
       x1="38.737301"
       gradientUnits="userSpaceOnUse"
       id="SVGID_38_-3">
      <stop
         id="stop4825-5"
         style="stop-color:#333333"
         offset="0" />
      <stop
         id="stop4827-9"
         style="stop-color:#000000"
         offset="0.431" />
      <stop
         id="stop4829-9"
         style="stop-color:#2E2E2E"
         offset="1" />
    </linearGradient>
    <linearGradient
       gradientTransform="matrix(1,0,0,-1,192.3999,143.0996)"
       y2="104.4332"
       x2="-154.15421"
       y1="97.627899"
       x1="-153.1255"
       gradientUnits="userSpaceOnUse"
       id="SVGID_37_-7">
      <stop
         id="stop4814-7"
         style="stop-color:#969696"
         offset="0" />
      <stop
         id="stop4816-3"
         style="stop-color:#000000"
         offset="1" />
    </linearGradient>
    <linearGradient
       gradientTransform="matrix(1,0,0,-1,192.3999,143.0996)"
       y2="107.8965"
       x2="-126.5454"
       y1="107.8965"
       x1="-158.4185"
       gradientUnits="userSpaceOnUse"
       id="SVGID_36_-5">
      <stop
         id="stop4785-4"
         style="stop-color:#525252"
         offset="0" />
      <stop
         id="stop4787-1"
         style="stop-color:#333333"
         offset="0.1856" />
      <stop
         id="stop4789-2"
         style="stop-color:#AEAEAE"
         offset="0.354" />
      <stop
         id="stop4791-0"
         style="stop-color:#ADADAD"
         offset="0.4199" />
      <stop
         id="stop4793-0"
         style="stop-color:#9D9D9D"
         offset="0.4276" />
      <stop
         id="stop4795-1"
         style="stop-color:#818181"
         offset="0.4433" />
      <stop
         id="stop4797-4"
         style="stop-color:#6A6A6A"
         offset="0.4611" />
      <stop
         id="stop4799-6"
         style="stop-color:#585858"
         offset="0.4814" />
      <stop
         id="stop4801-0"
         style="stop-color:#4C4C4C"
         offset="0.506" />
      <stop
         id="stop4803-7"
         style="stop-color:#444444"
         offset="0.539" />
      <stop
         id="stop4805-1"
         style="stop-color:#424242"
         offset="0.6166" />
      <stop
         id="stop4807-7"
         style="stop-color:#454545"
         offset="0.6684" />
      <stop
         id="stop4809-7"
         style="stop-color:#BDBDBD"
         offset="1" />
    </linearGradient>
    <linearGradient
       gradientTransform="matrix(1,0,0,-1,192.3999,143.0996)"
       y2="107.0898"
       x2="-126.4229"
       y1="107.0898"
       x1="-158.8101"
       gradientUnits="userSpaceOnUse"
       id="SVGID_35_-2">
      <stop
         id="stop4770-6"
         style="stop-color:#696969"
         offset="0" />
      <stop
         id="stop4772-0"
         style="stop-color:#2E2E2E"
         offset="0.3702" />
      <stop
         id="stop4774-1"
         style="stop-color:#424242"
         offset="0.4554" />
      <stop
         id="stop4776-6"
         style="stop-color:#303030"
         offset="0.6014" />
      <stop
         id="stop4778-5"
         style="stop-color:#4A4A4A"
         offset="0.6947" />
      <stop
         id="stop4780-7"
         style="stop-color:#666666"
         offset="1" />
    </linearGradient>
    <linearGradient
       y2="29.204"
       x2="111.5455"
       y1="49.7188"
       x1="22.5742"
       gradientUnits="userSpaceOnUse"
       id="SVGID_34_-9">
      <stop
         id="stop4743-7"
         style="stop-color:#FFFFFF"
         offset="0" />
      <stop
         id="stop4745-3"
         style="stop-color:#FFFFFF"
         offset="0.6538" />
      <stop
         id="stop4747-7"
         style="stop-color:#CBCCCE"
         offset="1" />
    </linearGradient>
    <linearGradient
       y2="30.732401"
       x2="27.9561"
       y1="30.732401"
       x1="23.471201"
       gradientUnits="userSpaceOnUse"
       id="SVGID_27_-4">
      <stop
         id="stop4316-2"
         style="stop-color:#E2E3E4"
         offset="0" />
      <stop
         id="stop4318-0"
         style="stop-color:#FFFFFF"
         offset="0.5055" />
    </linearGradient>
    <linearGradient
       y2="51.952599"
       x2="117.1948"
       y1="71.326698"
       x1="21.2129"
       gradientUnits="userSpaceOnUse"
       id="SVGID_26_-6">
      <stop
         id="stop4299-3"
         style="stop-color:#EDEDEE"
         offset="0" />
      <stop
         id="stop4301-6"
         style="stop-color:#FFFFFF"
         offset="0.4176" />
      <stop
         id="stop4303-1"
         style="stop-color:#F8F9F9"
         offset="0.6264" />
      <stop
         id="stop4305-5"
         style="stop-color:#BFC0C2"
         offset="1" />
    </linearGradient>
    <linearGradient
       gradientTransform="matrix(1,0,0,-1,192.3999,143.0996)"
       y2="92.223099"
       x2="-52.131699"
       y1="78.4795"
       x1="-176.1851"
       gradientUnits="userSpaceOnUse"
       id="SVGID_25_-8">
      <stop
         id="stop4274-8"
         style="stop-color:#FFFFFF"
         offset="0" />
      <stop
         id="stop4276-2"
         style="stop-color:#F4F4F4"
         offset="0.078" />
      <stop
         id="stop4278-9"
         style="stop-color:#CECECE"
         offset="0.3807" />
      <stop
         id="stop4280-1"
         style="stop-color:#BFBFBF"
         offset="0.5396" />
      <stop
         id="stop4282-3"
         style="stop-color:#7C7C7C"
         offset="0.8357" />
      <stop
         id="stop4284-5"
         style="stop-color:#A8A8A8"
         offset="0.8996" />
      <stop
         id="stop4286-9"
         style="stop-color:#9A9A9A"
         offset="0.9093" />
      <stop
         id="stop4288-8"
         style="stop-color:#7D7D7D"
         offset="0.9327" />
      <stop
         id="stop4290-4"
         style="stop-color:#686868"
         offset="0.9558" />
      <stop
         id="stop4292-0"
         style="stop-color:#5B5B5B"
         offset="0.9785" />
      <stop
         id="stop4294-7"
         style="stop-color:#575757"
         offset="1" />
    </linearGradient>
    <linearGradient
       gradientTransform="matrix(1,0,0,-1,192.3999,143.0996)"
       y2="90.476799"
       x2="-67.153198"
       y1="78.449203"
       x1="-175.7173"
       gradientUnits="userSpaceOnUse"
       id="SVGID_24_-4">
      <stop
         id="stop4249-6"
         style="stop-color:#FFFFFF"
         offset="0" />
      <stop
         id="stop4251-0"
         style="stop-color:#F4F4F4"
         offset="0.078" />
      <stop
         id="stop4253-6"
         style="stop-color:#CECECE"
         offset="0.3807" />
      <stop
         id="stop4255-6"
         style="stop-color:#BFBFBF"
         offset="0.5396" />
      <stop
         id="stop4257-1"
         style="stop-color:#7C7C7C"
         offset="0.8357" />
      <stop
         id="stop4259-8"
         style="stop-color:#A8A8A8"
         offset="0.8996" />
      <stop
         id="stop4261-4"
         style="stop-color:#9A9A9A"
         offset="0.9093" />
      <stop
         id="stop4263-9"
         style="stop-color:#7D7D7D"
         offset="0.9327" />
      <stop
         id="stop4265-6"
         style="stop-color:#686868"
         offset="0.9558" />
      <stop
         id="stop4267-3"
         style="stop-color:#5B5B5B"
         offset="0.9785" />
      <stop
         id="stop4269-7"
         style="stop-color:#575757"
         offset="1" />
    </linearGradient>
    <linearGradient
       gradientTransform="matrix(1,0,0,-1,192.3999,143.0996)"
       y2="78.209"
       x2="-172.3853"
       y1="78.209"
       x1="-172.3853"
       gradientUnits="userSpaceOnUse"
       id="SVGID_23_-5">
      <stop
         id="stop4224-0"
         style="stop-color:#FFFFFF"
         offset="0" />
      <stop
         id="stop4226-9"
         style="stop-color:#F4F4F4"
         offset="0.078" />
      <stop
         id="stop4228-0"
         style="stop-color:#CECECE"
         offset="0.3807" />
      <stop
         id="stop4230-0"
         style="stop-color:#BFBFBF"
         offset="0.5396" />
      <stop
         id="stop4232-6"
         style="stop-color:#7C7C7C"
         offset="0.8357" />
      <stop
         id="stop4234-1"
         style="stop-color:#A8A8A8"
         offset="0.8996" />
      <stop
         id="stop4236-3"
         style="stop-color:#9A9A9A"
         offset="0.9093" />
      <stop
         id="stop4238-8"
         style="stop-color:#7D7D7D"
         offset="0.9327" />
      <stop
         id="stop4240-9"
         style="stop-color:#686868"
         offset="0.9558" />
      <stop
         id="stop4242-3"
         style="stop-color:#5B5B5B"
         offset="0.9785" />
      <stop
         id="stop4244-4"
         style="stop-color:#575757"
         offset="1" />
    </linearGradient>
    <linearGradient
       gradientTransform="matrix(1,0,0,-1,192.3999,143.0996)"
       y2="104.0801"
       x2="-83.541"
       y1="104.0801"
       x1="-175.14211"
       gradientUnits="userSpaceOnUse"
       id="SVGID_22_-2">
      <stop
         id="stop4205-4"
         style="stop-color:#A0A0A0"
         offset="0" />
      <stop
         id="stop4207-8"
         style="stop-color:#656767"
         offset="0.0769" />
      <stop
         id="stop4209-6"
         style="stop-color:#717375"
         offset="1" />
    </linearGradient>
    <linearGradient
       gradientTransform="matrix(1,0,0,-1,192.3999,143.0996)"
       y2="83.6045"
       x2="-75.6362"
       y1="83.6045"
       x1="-175.4424"
       gradientUnits="userSpaceOnUse"
       id="SVGID_21_-8">
      <stop
         id="stop4198-6"
         style="stop-color:#555555"
         offset="0" />
      <stop
         id="stop4200-0"
         style="stop-color:#231F20"
         offset="1" />
    </linearGradient>
    <linearGradient
       gradientTransform="matrix(1,0,0,-1,192.3999,143.0996)"
       y2="24.695299"
       x2="-134.7878"
       y1="119.1758"
       x1="-115.3716"
       gradientUnits="userSpaceOnUse"
       id="SVGID_18_-5">
      <stop
         id="stop4121-0"
         style="stop-color:#FFFFFF"
         offset="0" />
      <stop
         id="stop4123-2"
         style="stop-color:#E4E5E6"
         offset="1" />
    </linearGradient>
    <linearGradient
       gradientTransform="matrix(1,0,0,-1,192.3999,143.0996)"
       y2="24.9438"
       x2="-138.85201"
       y1="124.0039"
       x1="-118.4946"
       gradientUnits="userSpaceOnUse"
       id="SVGID_17_-9">
      <stop
         id="stop4114-8"
         style="stop-color:#FFFFFF"
         offset="0" />
      <stop
         id="stop4116-6"
         style="stop-color:#E4E5E6"
         offset="1" />
    </linearGradient>
    <linearGradient
       gradientTransform="matrix(1,0,0,-1,192.3999,143.0996)"
       y2="27.1346"
       x2="-146.8837"
       y1="121.9365"
       x1="-127.4014"
       gradientUnits="userSpaceOnUse"
       id="SVGID_16_-9">
      <stop
         id="stop4107-3"
         style="stop-color:#FFFFFF"
         offset="0" />
      <stop
         id="stop4109-1"
         style="stop-color:#E4E5E6"
         offset="1" />
    </linearGradient>
    <linearGradient
       gradientTransform="matrix(1,0,0,-1,192.3999,143.0996)"
       y2="28.8524"
       x2="-155.006"
       y1="123.3525"
       x1="-135.58591"
       gradientUnits="userSpaceOnUse"
       id="SVGID_15_-2">
      <stop
         id="stop4100-7"
         style="stop-color:#FFFFFF"
         offset="0" />
      <stop
         id="stop4102-7"
         style="stop-color:#E4E5E6"
         offset="1" />
    </linearGradient>
    <linearGradient
       gradientTransform="matrix(1,0,0,-1,192.3999,143.0996)"
       y2="25.888"
       x2="-140.54491"
       y1="120.3223"
       x1="-121.1382"
       gradientUnits="userSpaceOnUse"
       id="SVGID_14_-8">
      <stop
         id="stop4093-7"
         style="stop-color:#FFFFFF"
         offset="0" />
      <stop
         id="stop4095-4"
         style="stop-color:#E4E5E6"
         offset="1" />
    </linearGradient>
    <linearGradient
       gradientTransform="matrix(1,0,0,-1,192.3999,143.0996)"
       y2="35.585701"
       x2="-130.14281"
       y1="35.625"
       x1="-130.1348"
       gradientUnits="userSpaceOnUse"
       id="SVGID_13_-1">
      <stop
         id="stop4082-1"
         style="stop-color:#FFFFFF"
         offset="0" />
      <stop
         id="stop4084-3"
         style="stop-color:#E4E5E6"
         offset="1" />
    </linearGradient>
    <linearGradient
       gradientTransform="matrix(1,0,0,-1,192.3999,143.0996)"
       y2="32.797901"
       x2="-171.9462"
       y1="126.8398"
       x1="-152.6201"
       gradientUnits="userSpaceOnUse"
       id="SVGID_12_-3">
      <stop
         id="stop4075-3"
         style="stop-color:#FFFFFF"
         offset="0" />
      <stop
         id="stop4077-4"
         style="stop-color:#E4E5E6"
         offset="1" />
    </linearGradient>
    <linearGradient
       y2="92.496101"
       x2="37.2481"
       y1="33.077099"
       x1="32.519001"
       gradientUnits="userSpaceOnUse"
       id="SVGID_11_-3">
      <stop
         id="stop4068-1"
         style="stop-color:#989A9C"
         offset="0.2198" />
      <stop
         id="stop4070-2"
         style="stop-color:#FFFFFF"
         offset="0.2527" />
    </linearGradient>
    <linearGradient
       gradientTransform="matrix(1,0,0,-1,192.3999,143.0996)"
       y2="24.6462"
       x2="-134.85719"
       y1="119.6328"
       x1="-115.3369"
       gradientUnits="userSpaceOnUse"
       id="SVGID_10_-9">
      <stop
         id="stop4061-5"
         style="stop-color:#FFFFFF"
         offset="0" />
      <stop
         id="stop4063-4"
         style="stop-color:#E4E5E6"
         offset="1" />
    </linearGradient>
    <linearGradient
       y2="106.3903"
       x2="79.683601"
       y1="25.2764"
       x1="54.653301"
       gradientUnits="userSpaceOnUse"
       id="SVGID_9_-8">
      <stop
         id="stop4036-9"
         style="stop-color:#FFFFFF"
         offset="0" />
      <stop
         id="stop4038-2"
         style="stop-color:#F9F9F9"
         offset="0.7473" />
      <stop
         id="stop4040-7"
         style="stop-color:#D5D7D8"
         offset="1" />
    </linearGradient>
    <linearGradient
       gradientTransform="matrix(1,0,0,-1,192.3999,143.0996)"
       y2="31.998501"
       x2="-87.569702"
       y1="122.1328"
       x1="-117.166"
       gradientUnits="userSpaceOnUse"
       id="SVGID_8_-7">
      <stop
         id="stop4029-6"
         style="stop-color:#FFFFFF"
         offset="0" />
      <stop
         id="stop4031-1"
         style="stop-color:#E4E5E6"
         offset="1" />
    </linearGradient>
    <linearGradient
       y2="87.626701"
       x2="119.5471"
       y1="26.876499"
       x1="70.421898"
       gradientUnits="userSpaceOnUse"
       id="SVGID_7_-2">
      <stop
         id="stop4016-2"
         style="stop-color:#EFF0F0"
         offset="0" />
      <stop
         id="stop4018-1"
         style="stop-color:#F0F1F2"
         offset="0.5914" />
      <stop
         id="stop4020-6"
         style="stop-color:#787878"
         offset="0.599" />
      <stop
         id="stop4022-8"
         style="stop-color:#EEEFF0"
         offset="0.6456" />
      <stop
         id="stop4024-5"
         style="stop-color:#D8D9DB"
         offset="1" />
    </linearGradient>
    <linearGradient
       gradientTransform="matrix(1,0,0,-1,192.3999,143.0996)"
       y2="29.9035"
       x2="-94.069099"
       y1="119.8076"
       x1="-123.5898"
       gradientUnits="userSpaceOnUse"
       id="SVGID_6_-1">
      <stop
         id="stop3997-5"
         style="stop-color:#FFFFFF"
         offset="0" />
      <stop
         id="stop3999-2"
         style="stop-color:#FCFCFC"
         offset="0.0094" />
      <stop
         id="stop4001-7"
         style="stop-color:#EEEEEE"
         offset="0.0655" />
      <stop
         id="stop4003-6"
         style="stop-color:#E5E5E5"
         offset="0.1342" />
      <stop
         id="stop4005-1"
         style="stop-color:#E3E3E3"
         offset="0.2515" />
      <stop
         id="stop4007-4"
         style="stop-color:#8A8A8A"
         offset="0.3357" />
      <stop
         id="stop4009-2"
         style="stop-color:#B8B8B8"
         offset="0.4422" />
      <stop
         id="stop4011-3"
         style="stop-color:#3B3B3B"
         offset="1" />
    </linearGradient>
    <linearGradient
       y2="65.136703"
       x2="83.798798"
       y1="65.136703"
       x1="54.715801"
       gradientUnits="userSpaceOnUse"
       id="SVGID_5_-1">
      <stop
         id="stop3964-7"
         style="stop-color:#231F20"
         offset="0" />
      <stop
         id="stop3966-1"
         style="stop-color:#474747"
         offset="1" />
    </linearGradient>
    <linearGradient
       y2="97.232101"
       x2="112.7331"
       y1="24.481001"
       x1="66.232399"
       gradientUnits="userSpaceOnUse"
       id="SVGID_2_-8">
      <stop
         id="stop3935-8"
         style="stop-color:#8A8A8A"
         offset="0" />
      <stop
         id="stop3937-2"
         style="stop-color:#606060"
         offset="0.5687" />
      <stop
         id="stop3939-4"
         style="stop-color:#FFFFFF"
         offset="0.5914" />
      <stop
         id="stop3941-5"
         style="stop-color:#585858"
         offset="0.6116" />
      <stop
         id="stop3943-5"
         style="stop-color:#303030"
         offset="1" />
    </linearGradient>
    <radialGradient
       gradientUnits="userSpaceOnUse"
       gradientTransform="matrix(1,0,0,-1,192.3999,143.0996)"
       r="68.686401"
       cy="87.823196"
       cx="-145.4702"
       id="SVGID_1_-7">
      <stop
         id="stop3922-4"
         style="stop-color:#FFFFFF"
         offset="0" />
      <stop
         id="stop3924-0"
         style="stop-color:#EAEAEB"
         offset="0.4835" />
      <stop
         id="stop3926-9"
         style="stop-color:#A9ABAE"
         offset="0.9451" />
      <stop
         id="stop3928-4"
         style="stop-color:#999B9E"
         offset="1" />
    </radialGradient>
  </defs>
  <metadata
     id="metadata7">
    <rdf:RDF>
      <cc:Work
         rdf:about="">
        <dc:format>image/svg+xml</dc:format>
        <dc:type
           rdf:resource="http://purl.org/dc/dcmitype/StillImage" />
        <dc:title />
      </cc:Work>
    </rdf:RDF>
  </metadata>
  <g
     transform="translate(-411.34129,-661.2617)"
     id="layer1">
    <g
       transform="translate(397.067,549.69582)"
       id="g4273">
      <g
         style="font-style:normal;font-variant:normal;font-weight:normal;font-stretch:normal;font-size:23.2944px;line-height:125%;font-family:Kalimati;-inkscape-font-specification:Kalimati;text-align:start;writing-mode:lr-tb;text-anchor:start;fill:#000000;fill-opacity:1;stroke:none"
         id="wikipedia">
        <path
           d="m 17.550069,120.85862 h -1.683386 l -1.592392,-1.56964 h 3.298526 c -0.758282,-1.11466 -1.137423,-2.47198 -1.137423,-4.07197 0,-1.14499 0.443594,-2.05114 1.330785,-2.71845 0.720366,-0.53835 1.690966,-0.80754 2.911803,-0.80757 1.228411,3e-5 2.282422,0.13652 3.162036,0.40948 1.023672,0.31092 2.04356,0.85688 3.059668,1.63789 1.759201,1.35734 3.112733,3.25684 4.0606,5.69848 H 30.3802 c -0.12134,-0.2123 -0.322284,-0.6104 -0.602834,-1.19429 -0.280578,-0.64452 -0.815166,-1.34593 -1.603767,-2.10423 -1.000943,-0.963 -1.979126,-1.64924 -2.934551,-2.05874 -1.152597,-0.49286 -2.316558,-0.7393 -3.491888,-0.73932 -1.084348,2e-5 -1.97912,0.24267 -2.684318,0.72795 -0.887193,0.60664 -1.330787,1.40284 -1.330785,2.38859 -2e-6,1.25118 0.367764,2.19524 1.1033,2.83218 H 21.1557 l 1.592392,1.56964 h -3.309901 v 14.741 l -1.888122,-1.88812 v -12.85288"
           id="path3551" />
        <path
           d="m 28.583072,133.7115 v 0 m 0,-13.66045 v 0 m 3.309901,0 v 0 m 0,13.66045 v 0 m -10.748647,-12.85288 -1.546895,-1.56964 h 15.639565 l 1.535521,1.56964 h -3.833115 v 14.741 l -2.024613,-2.02461 v -4.08335 c -0.568721,0.37915 -1.220843,0.71279 -1.956368,1.00094 -0.8417,0.32606 -1.546901,0.47393 -2.115606,0.44359 -1.152593,-0.0607 -2.149733,-0.61799 -2.991423,-1.67201 -0.66729,-0.84169 -1.000934,-1.83504 -1.000932,-2.98005 0.128906,-0.59145 0.348808,-1.06538 0.659705,-1.42178 1.205665,-1.13741 2.54024,-1.67958 4.003729,-1.62651 1.455894,0.0455 2.589524,0.74313 3.400895,2.09286 v -4.47008 h -9.770463 m 9.531604,4.98192 c -0.242659,-0.51563 -0.993358,-0.77344 -2.252097,-0.77345 -1.349748,1e-5 -2.547832,0.53081 -3.594257,1.59239 -0.508052,0.51564 -0.762076,1.04265 -0.762073,1.58102 -3e-6,0.71279 0.580082,1.06918 1.740257,1.06918 1.455895,0 2.779096,-0.61421 3.969606,-1.84263 0.599033,-0.6142 0.898555,-1.15637 0.898564,-1.62651"
           id="path3553" />
        <path
           d="m 36.88626,120.85862 h -1.683386 l -1.592392,-1.56964 h 3.298527 c -0.758283,-1.11466 -1.137424,-2.47198 -1.137423,-4.07197 -10e-7,-1.14499 0.443594,-2.05114 1.330785,-2.71845 0.720365,-0.53835 1.690965,-0.80754 2.911802,-0.80757 1.228411,3e-5 2.282422,0.13652 3.162036,0.40948 1.023672,0.31092 2.04356,0.85688 3.059668,1.63789 1.759201,1.35734 3.112733,3.25684 4.0606,5.69848 h -0.580086 c -0.121339,-0.2123 -0.322284,-0.6104 -0.602834,-1.19429 -0.280578,-0.64452 -0.815166,-1.34593 -1.603766,-2.10423 -1.000944,-0.963 -1.979127,-1.64924 -2.934552,-2.05874 -1.152596,-0.49286 -2.316558,-0.7393 -3.491888,-0.73932 -1.084348,2e-5 -1.97912,0.24267 -2.684318,0.72795 -0.887193,0.60664 -1.330787,1.40284 -1.330785,2.38859 -2e-6,1.25118 0.367764,2.19524 1.1033,2.83218 h 2.320343 l 1.592392,1.56964 h -3.309901 v 14.741 L 36.88626,133.7115 v -12.85288"
           id="path3555" />
        <path
           d="m 50.808318,120.27854 v 0 m 0,13.5467 v 0 m -10.327801,-12.96662 -1.558269,-1.56964 h 21.258435 l 1.558269,1.56964 H 51.21779 v 4.37908 c 0.227474,-0.20472 0.394296,-0.34501 0.500466,-0.42084 0.257805,-0.18956 0.511829,-0.31847 0.762074,-0.38673 0.515619,-0.14406 0.997127,-0.2161 1.444527,-0.21611 1.160157,10e-6 2.119382,0.40569 2.87768,1.21704 0.758265,0.80379 1.137405,1.79335 1.137423,2.96868 -1.8e-5,0.94027 -0.333661,1.82746 -1.000932,2.66157 -0.500482,0.64454 -1.285304,1.18292 -2.354466,1.61514 l -0.830319,-1.61514 c 1.076746,-0.50046 1.797113,-0.89477 2.161104,-1.18292 0.803763,-0.62937 1.205652,-1.31941 1.205668,-2.07011 -1.6e-5,-0.67487 -0.314703,-1.28528 -0.944061,-1.83125 -0.401905,-0.34122 -1.027487,-0.47013 -1.876748,-0.38673 -0.401903,0.0379 -0.894785,0.30333 -1.47865,0.7962 -0.576306,0.48531 -1.110894,1.08056 -1.603766,1.78575 v 7.42737 l -1.888122,-1.91087 v -3.3099 c -0.32607,0.36398 -0.807578,0.67867 -1.444527,0.94406 -0.636964,0.25782 -1.209466,0.38673 -1.717509,0.38673 -1.099513,0 -2.039782,-0.37535 -2.820809,-1.12605 -0.773449,-0.75069 -1.160173,-1.6758 -1.160171,-2.77531 -2e-6,-1.12225 0.367765,-2.04735 1.1033,-2.77531 0.73553,-0.73553 1.664425,-1.10329 2.786686,-1.1033 1.425563,1e-5 2.509906,0.60663 3.25303,1.81987 v 0.69383 c -0.667296,-0.59145 -1.43316,-0.88718 -2.297594,-0.88719 -1.107098,1e-5 -1.963955,0.21612 -2.570576,0.64833 -0.834114,0.59147 -1.289082,1.38008 -1.364908,2.36584 -0.0455,0.6218 0.125114,1.12226 0.511841,1.5014 0.318474,0.30332 0.758278,0.45497 1.31941,0.45497 0.803774,0 1.725085,-0.40947 2.763938,-1.22842 1.091918,-0.86443 1.63788,-1.69096 1.637889,-2.47958 v -5.9601 h -8.849151"
           id="path3557" />
        <path
           d="m 66.504755,133.82524 v 0 m 0,-13.66044 v 0 m 3.309901,0 v 0 m 0,13.66044 v 0 M 60.22618,120.85862 58.667911,119.28898 H 73.21555 l 1.581018,1.56964 h -3.855864 v 14.741 l -1.956367,-1.96774 v -4.69755 c -0.6218,0.37156 -1.546903,0.55734 -2.775312,0.55733 -1.205673,-0.12132 -2.22177,-0.66728 -3.048294,-1.63789 -0.818946,-0.94784 -1.228418,-2.03218 -1.228416,-3.25303 v -3.74212 H 60.22618 m 3.423643,4.72031 c -3e-6,0.65213 0.178193,1.24359 0.534589,1.77438 0.409468,0.60663 0.921308,0.90994 1.535521,0.90994 0.659699,0 1.235993,-0.18198 1.728883,-0.54597 0.166814,-0.10615 0.470127,-0.37155 0.909938,-0.79619 0.174397,-0.19715 0.382924,-0.53458 0.625583,-1.01231 v -5.05016 h -5.334514 v 4.72031"
           id="path3559" />
        <path
           d="m 70.758716,117.68521 v 0 m 0,16.93623 v 0 m 4.595189,-14.57039 v 0 m -0.477718,0.80757 h -1.69476 l -1.558269,-1.56964 h 3.560134 c -0.363977,-1.06916 -0.887191,-2.10421 -1.569644,-3.10517 -0.894772,-1.3118 -1.747839,-1.96772 -2.559202,-1.96774 -0.796193,2e-5 -1.429358,0.32609 -1.899496,0.97819 -0.424633,0.58389 -0.636952,1.2891 -0.636957,2.1156 5e-6,0.51565 0.163035,1.12228 0.489092,1.81988 H 67.16446 c -0.25781,-0.68244 -0.386718,-1.38764 -0.386724,-2.11561 6e-6,-1.3573 0.28057,-2.43027 0.841693,-3.2189 0.652127,-0.90234 1.63031,-1.35351 2.934551,-1.35354 1.39524,3e-5 2.616073,0.83034 3.662502,2.49096 0.538379,0.85688 1.186709,2.30899 1.944993,4.35633 h 2.934552 l 1.558269,1.56964 H 76.76431 v 14.71826 l -1.888123,-1.88813 v -12.83013"
           id="path3561" />
        <path
           d="m 80.74529,120.85862 h -1.683386 l -1.592392,-1.56964 h 3.298526 c -0.758283,-1.11466 -1.137423,-2.47198 -1.137423,-4.07197 0,-1.17532 0.51184,-2.10042 1.535521,-2.77532 0.887187,-0.58385 1.952572,-0.87579 3.196159,-0.87581 2.358249,2e-5 4.549682,0.78105 6.574305,2.34309 2.335494,1.80473 3.977173,3.64735 4.925041,5.52787 h -0.580086 c -1.213266,-1.78952 -2.60092,-3.19613 -4.162968,-4.21983 -1.66823,-1.09191 -3.598056,-1.69474 -5.789483,-1.80851 -1.266335,-0.0682 -2.305181,0.15926 -3.116538,0.68246 -0.856861,0.56115 -1.28529,1.34976 -1.285288,2.36584 -2e-6,1.25118 0.367764,2.19524 1.1033,2.83218 h 2.377214 l 1.592392,1.56964 h -3.366772 v 14.741 l -1.888122,-1.87674 v -12.86426"
           id="path3563" />
        <path
           d="M 94.360241,120.85862 H 84.339545 l -1.558269,-1.56964 h 16.16278 l 1.581014,1.56964 h -4.470068 v 4.95917 l -5.32314,-0.0228 c -1.433158,-0.008 -2.149733,0.33365 -2.149729,1.02368 -4e-6,0.40948 0.113738,0.75829 0.341227,1.04643 0.242645,0.3109 0.564915,0.46635 0.966809,0.46634 0.318473,1e-5 0.792399,-0.0493 1.421779,-0.14786 0.629366,-0.10615 1.103292,-0.15923 1.421779,-0.15924 1.091916,1e-5 2.028394,0.46256 2.809434,1.38765 0.750688,0.87962 1.126037,1.87676 1.126049,2.99143 -1.2e-5,0.88719 -0.443607,1.65684 -1.330785,2.30896 -0.811372,0.59905 -1.679604,0.89857 -2.604698,0.89857 -1.721307,0 -3.351612,-0.78103 -4.890919,-2.34309 -1.038849,-1.05401 -2.1194,-2.58195 -3.241655,-4.58382 l 0.693828,-0.39809 c 0.727949,1.38007 1.611346,2.56678 2.650195,3.56013 1.311823,1.25875 2.593318,1.88812 3.84449,1.88812 0.826519,0 1.573426,-0.26919 2.240723,-0.80757 0.720357,-0.56871 1.080541,-1.25495 1.080552,-2.05873 -1.1e-5,-0.33364 -0.113753,-0.618 -0.341227,-0.85307 -0.227495,-0.23506 -0.504268,-0.3526 -0.830319,-0.3526 -0.341236,0 -0.830328,0.1327 -1.467276,0.39809 -0.629381,0.25783 -1.11089,0.38673 -1.444527,0.38673 -0.864447,0 -1.62652,-0.44738 -2.28622,-1.34216 -0.20474,-0.26539 -0.659709,-1.08054 -1.364907,-2.44546 -0.280568,-0.53837 -0.42085,-0.97438 -0.420847,-1.30804 -3e-6,-0.64452 0.345015,-1.07295 1.035055,-1.28528 0.38672,-0.12132 0.997136,-0.18198 1.831251,-0.18199 h 4.538317 v -3.02555"
           id="path3565" />
        <path
           d="m 105.81409,133.82524 v 0 m 0,-13.66044 v 0 m 4.21984,0 v 0 m 0,13.66044 v 0 m -11.089877,-12.96662 -1.55827,-1.56964 h 15.889797 l 1.58102,1.56964 h -3.87861 v 14.741 l -1.854,-1.87674 v -4.12885 c -0.91753,1.05402 -2.09287,1.58102 -3.52601,1.58102 -1.7668,0 -3.11655,-0.67487 -4.04923,-2.02461 -0.60663,-0.8796 -0.90994,-1.88053 -0.90994,-3.0028 0.68245,1e-5 1.29287,-0.1744 1.83125,-0.52321 0.59904,-0.38672 0.95164,-0.89856 1.05781,-1.53553 0.0455,-0.15164 0.0682,-0.41325 0.0682,-0.78482 0,-1.10708 -0.41706,-1.92223 -1.25116,-2.44546 h -3.400897 m 5.163897,5.58475 c -0.43222,0.45498 -0.81895,0.77346 -1.16017,0.95544 -0.24265,0.12891 -0.59146,0.25403 -1.04643,0.37534 0.35639,1.11469 1.11467,1.84264 2.27485,2.18386 0.42463,0.0834 0.69761,0.12512 0.81894,0.12511 1.44073,1e-5 2.62744,-0.88718 3.56014,-2.66157 0.3488,-0.66728 0.5232,-1.42935 0.52321,-2.28622 v -4.27671 h -4.66343 c 0.57629,0.7583 0.86443,1.67203 0.86444,2.74119 -1e-5,1.06919 -0.39052,2.01704 -1.17155,2.84356"
           id="path3567" />
        <path
           d="m 111.96755,120.05105 v 0 m -0.79619,14.57039 v 0 m 4.60656,-14.57039 v 0 m -0.80757,0.80757 h -1.69476 l -1.56965,-1.56964 h 7.4615 l 1.55827,1.56964 h -3.88999 v 14.741 l -1.86537,-1.88812 v -12.85288"
           id="path3569" />
      </g>
    </g>
  </g>
</svg>
