<?xml version="1.0" encoding="UTF-8" standalone="no"?>
<svg
	xmlns="http://www.w3.org/2000/svg"
	xmlns:dc="http://purl.org/dc/elements/1.1/"
	xmlns:cc="http://creativecommons.org/ns#"
	xmlns:rdf="http://www.w3.org/1999/02/22-rdf-syntax-ns#"
	xmlns:svg="http://www.w3.org/2000/svg"
	xmlns:xlink="http://www.w3.org/1999/xlink"
	xmlns:sodipodi="http://sodipodi.sourceforge.net/DTD/sodipodi-0.dtd"
	xmlns:inkscape="http://www.inkscape.org/namespaces/inkscape"
	version="1.1"
	viewBox="0 0 58.73762770376076 34.28255671315837">
	<path transform="matrix(1.8903511,0,0,1.8903511,-33.488736,-113.11447)" d="M46.48632800000001 17.99803666841028C46.625975000000004 18.17577666841028 46.748696 18.313306668410277 46.854492 18.410636668410277C46.964515999999996 18.507966668410276 47.072426 18.57356666841028 47.178222 18.60741666841028C47.284014000000006 18.637036668410275 47.39404 18.63915666841028 47.508300999999996 18.61376666841028C47.622555999999996 18.588376668410277 47.755856 18.543936668410282 47.90820300000001 18.480466668410273C47.827796 18.336586668410277 47.734698 18.205396668410273 47.62890600000001 18.08690666841028C47.523109 17.964186668410278 47.406736 17.873206668410276 47.279785 17.813956668410285C47.157061000000006 17.754716668410282 47.027993 17.735676668410278 46.89257800000001 17.756826668410284C46.761390999999996 17.77798666841028 46.625975000000004 17.85839666841028 46.48632800000001 17.99803666841028M45.85791 18.66454666841028C45.879068 18.491046668410277 45.919270000000004 18.300616668410285 45.97851500000001 18.093256668410277C46.037759 17.885896668410282 46.116047 17.684896668410275 46.213378999999996 17.490226668410273C46.310708 17.29133666841028 46.424966000000005 17.11148666841028 46.556152000000004 16.95067666841028C46.687335 16.785636668410277 46.83333100000001 16.66503666841028 46.99414000000001 16.588856668410273C47.15917700000001 16.512696668410285 47.33902700000001 16.491536668410276 47.533691 16.525386668410277C47.732582 16.555006668410286 47.94417000000001 16.662916668410276 48.168457 16.849116668410275C48.346188000000005 17.026856668410275 48.479487999999996 17.240556668410278 48.56835900000001 17.490226668410273C48.65722300000001 17.739906668410285 48.710119999999996 18.002276668410275 48.727050999999996 18.277336668410285C48.748206 18.552406668410285 48.737626 18.829586668410286 48.69531200000001 19.108876668410275C48.65299100000001 19.38817666841028 48.587399 19.64631666841028 48.498535 19.883296668410267C48.439287 20.035636668410277 48.367347 20.20490666841029 48.282715 20.391106668410274C48.19807600000001 20.577306668410287 48.102861 20.76561666841029 47.99707 20.95604666841028C47.89550500000001 21.146476668410273 47.783363 21.332676668410286 47.660644 21.514646668410293C47.53792000000001 21.700836668410275 47.408852 21.86799666841027 47.27343700000001 22.016106668410274C47.13801800000001 22.164216668410276 46.994138 22.28693666841029 46.84179700000001 22.38426666841029C46.693683 22.48582666841027 46.541339 22.549306668410267 46.38476500000001 22.574696668410283C46.194335 22.58316666841027 45.99967300000001 22.597976668410283 45.80078100000001 22.61913666841029C45.606119 22.64452666841028 45.409342 22.66356666841027 45.210449000000004 22.676266668410292C45.01578800000001 22.688956668410285 44.821126 22.688956668410285 44.626465 22.676266668410292C44.43180400000001 22.667796668410276 44.239258 22.631826668410284 44.04882800000001 22.56835666841029C43.917644 22.52603666841027 43.860515 22.487946668410288 43.877441 22.454096668410287C43.890138 22.42446666841029 43.95361400000001 22.403316668410284 44.067871000000004 22.39061666841029C44.46989 22.33560666841028 44.842285 22.248856668410284 45.185058000000005 22.130366668410275C45.532063 22.016106668410274 45.845214000000006 21.882806668410282 46.124512 21.730466668410273C46.40803900000001 21.582346668410267 46.65982900000001 21.42365666841029 46.879883 21.254386668410277C47.104164000000004 21.085116668410294 47.29671 20.92007666841029 47.457519 20.75926666841029C47.61832400000001 20.602696668410275 47.74739300000001 20.454586668410272 47.844726 20.314936668410283C47.94628600000001 20.179516668410272 48.016110000000005 20.06737666841029 48.054199000000004 19.978506668410276C48.096514000000006 19.89387666841027 48.12402000000001 19.792316668410265 48.13671900000001 19.673826668410285C48.153642 19.551096668410267 48.157874 19.432606668410287 48.149414 19.31835666841029C48.145179000000006 19.19986666841028 48.128251999999996 19.096186668410283 48.098633 19.007316668410283C48.07323900000001 18.918456668410286 48.041501000000004 18.863436668410273 48.003418 18.84227666841028C47.978024 18.901526668410284 47.94628600000001 18.986156668410274 47.90820300000001 19.096186668410283C47.87434600000001 19.206216668410278 47.82144900000001 19.31623666841027 47.749512 19.426266668410292C47.6818 19.536286668410284 47.59081700000001 19.633616668410284 47.47656200000001 19.71825666841029C47.36230200000001 19.79865666841029 47.21419000000001 19.840976668410278 47.032226 19.845206668410285C46.88411200000001 19.845206668410285 46.73811700000001 19.811356668410284 46.594238 19.74364666841028C46.45458800000001 19.671706668410266 46.32975100000001 19.580726668410293 46.219726 19.47069666841027C46.109699 19.360666668410275 46.020832000000006 19.235836668410272 45.95312500000001 19.096186668410283C45.889647000000004 18.952306668410273 45.857909 18.808426668410277 45.85791 18.66454666841028M40.151367 22.276356668410287C40.06673200000001 22.21288666841029 40.045573 22.14094666841028 40.08789000000001 22.06053666841028C40.19368500000001 21.916656668410283 40.29736400000001 21.772776668410287 40.398925999999996 21.62889666841029C40.500488 21.489246668410274 40.604167 21.34748666841027 40.709961 21.203606668410274C40.743815000000005 21.16551666841029 40.77132100000001 21.148596668410292 40.792480000000005 21.15282666841027C40.817871000000004 21.157056668410277 40.845377000000006 21.169756668410272 40.87500000000001 21.19091666841028C40.946940000000005 21.24592666841029 41.020996000000004 21.30516666841028 41.097168 21.36864666841028C41.17757100000001 21.432116668410274 41.25585900000001 21.491366668410294 41.33203100000001 21.546376668410275C41.408201999999996 21.605626668410267 41.48014200000001 21.65640666841027 41.547851 21.698726668410288C41.619791 21.745276668410284 41.68115100000001 21.777006668410266 41.731933000000005 21.793936668410268C41.778482000000004 21.81086666841027 41.805988000000006 21.815096668410277 41.81445300000001 21.80663666841029C41.822915 21.798166668410275 41.84619 21.77066666841027 41.884277000000004 21.724116668410275C41.926594 21.67756666841028 41.98795400000001 21.603506668410276 42.06835900000001 21.50194666841027C42.152993 21.40038666841029 42.271482999999996 21.258616668410284 42.42382800000001 21.07665666841028C42.45768 21.042796668410276 42.485187 21.030106668410284 42.506347 21.03856666841027C42.531736 21.051266668410292 42.552895 21.063956668410285 42.569824000000004 21.07665666841028C42.77294700000001 21.241696668410285 42.929522 21.36864666841028 43.039550999999996 21.457516668410292C43.153805999999996 21.546376668410275 43.236325 21.61196666841029 43.28710900000001 21.65428666841028C43.34212 21.69660666841027 43.373858000000006 21.721996668410284 43.382324000000004 21.730466668410273C43.395017 21.738926668410286 43.40348000000001 21.745276668410284 43.407715 21.74950666841029C43.43310300000001 21.76642666841029 43.447914000000004 21.78758666841027 43.452148 21.81298666841029C43.460609 21.838366668410274 43.45426100000001 21.86375666841029 43.433105000000005 21.88915666841028C43.32730800000001 22.024566668410287 43.221514000000006 22.15786666841028 43.115722 22.289056668410282C43.014158 22.42446666841029 42.912595 22.55988666841027 42.811035 22.695306668410282C42.77294700000001 22.74185666841028 42.741209000000005 22.763016668410287 42.71582 22.75878666841028C42.690428000000004 22.75454666841027 42.665037000000005 22.743966668410266 42.639648 22.727046668410267C42.49153400000001 22.633946668410275 42.354002 22.530266668410277 42.227050999999996 22.416006668410276C42.100096 22.30597666841028 41.968911 22.183256668410266 41.833496000000004 22.047846668410287C41.723469 22.183256668410266 41.617675 22.318676668410276 41.516113 22.454096668410287C41.41455 22.589506668410266 41.310871999999996 22.722806668410286 41.20507800000001 22.85399666841029C41.16276 22.904776668410292 41.107746999999996 22.917466668410285 41.040039 22.892086668410272C40.97656200000001 22.86668666841028 40.92366500000001 22.839186668410278 40.881347 22.809566668410284C40.805175999999996 22.767246668410266 40.739583 22.727046668410267 40.68457 22.688956668410285C40.629557 22.655106668410284 40.574543999999996 22.617016668410272 40.51953100000001 22.574696668410283C40.464518000000005 22.536616668410275 40.409505 22.492176668410266 40.354492 22.44139666841029C40.29524800000001 22.394846668410267 40.227539 22.339836668410285 40.151367 22.276356668410287M41.960449000000004 18.51854666841028C41.96468000000001 18.353506668410276 41.941404999999996 18.186356668410284 41.89062500000001 18.017086668410286C41.844074 17.847816668410275 41.78482900000001 17.68065666841028 41.71289000000001 17.515616668410274C41.640949 17.346346668410277 41.564778 17.181316668410275 41.48437500000001 17.020506668410277C41.408201999999996 16.855466668410273 41.344726 16.69677666841028 41.293945 16.54442666841028C41.25585900000001 16.472486668410284 41.25585900000001 16.400546668410286 41.293945 16.328606668410274C41.365885 16.163576668410286 41.43994 16.000646668410283 41.516113 15.839836668410285C41.592284 15.674806668410284 41.66634 15.507646668410274 41.73828100000001 15.338376668410277C41.750975000000004 15.308756668410282 41.770018 15.296056668410273 41.79541 15.30028666841028C41.820799 15.304526668410276 41.83772700000001 15.317216668410282 41.846191 15.338376668410277C41.896971 15.444166668410276 41.96468000000001 15.594396668410283 42.049316 15.789056668410282C42.13818200000001 15.979486668410274 42.222817 16.191076668410275 42.303222 16.423826668410285C42.387856000000006 16.652336668410285 42.459796000000004 16.889316668410274 42.519043 17.134756668410276C42.578286 17.38020666841028 42.605792 17.60871666841028 42.60156200000001 17.820306668410282C42.60156 17.985346668410273 42.586749000000005 18.137686668410282 42.557128999999996 18.277336668410285C42.527505 18.41275666841028 42.485187 18.55028666841028 42.430175999999996 18.689936668410283C42.375161 18.829586668410286 42.309569 18.977696668410275 42.233398 19.134266668410277C42.157225000000004 19.290846668410282 42.07259 19.47069666841027 41.979492 19.673826668410285C41.894855 19.71613666841027 41.786944999999996 19.752106668410292 41.655762 19.78173666841029C41.528808000000005 19.811356668410284 41.395507 19.83462666841028 41.25585900000001 19.851556668410282C41.11621 19.868486668410284 40.97867800000001 19.881176668410276 40.843262 19.889646668410293C40.712077 19.89387666841027 40.59781900000001 19.89387666841027 40.500488 19.889646668410293L40.500488 18.620106668410273C40.59781900000001 18.620116668410276 40.712077 18.620116668410276 40.843262 18.620106668410273C40.97444600000001 18.61587666841028 41.107746999999996 18.609536668410286 41.243164 18.601066668410283C41.37858000000001 18.592606668410284 41.50976500000001 18.58202666841028 41.63671900000001 18.569326668410284C41.76367100000001 18.556636668410277 41.871581 18.539706668410275 41.960449000000004 18.51854666841028M34.216308000000005 18.620106668410273C34.533691000000005 18.61587666841028 34.851074000000004 18.611646668410273 35.168457000000004 18.60741666841028C35.485839000000006 18.59895666841028 35.788410000000006 18.586256668410286 36.076172 18.569326668410284C36.36393 18.552406668410285 36.628416 18.527016668410283 36.869629 18.49315666841028C37.110837000000004 18.459306668410278 37.316078000000005 18.41275666841028 37.485351 18.353506668410276C37.417640000000006 18.180006668410286 37.320309 18.000156668410284 37.193359 17.813956668410285C37.070635 17.627766668410274 36.930987 17.441566668410275 36.774414 17.255366668410275C36.617836000000004 17.069166668410276 36.448565 16.88508666841028 36.266601 16.703116668410274C36.088865000000006 16.521156668410285 35.909015000000004 16.345536668410276 35.727051 16.17626666841028C35.549315 16.002766668410274 35.373697 15.837726668410284 35.200195 15.681146668410278C35.030924000000006 15.524576668410276 34.876464000000006 15.38069666841028 34.736816000000005 15.249506668410277C34.719889 15.363766668410278 34.705078 15.456866668410285 34.692383 15.528806668410283C34.679687 15.600746668410281 34.654296 15.64094666841028 34.616211 15.649406668410279C34.569661 15.662106668410274 34.506185 15.624016668410277 34.425781 15.535146668410277C34.349609 15.44628666841028 34.273437 15.338376668410277 34.197265 15.21141666841028C34.116862000000005 15.084466668410286 34.047038 14.953286668410286 33.987793 14.817866668410275C33.924317 14.682456668410282 33.886231 14.57665666841028 33.873535000000004 14.500486668410275C33.865072000000005 14.432776668410284 33.875651000000005 14.341796668410282 33.905273 14.22753666841028C33.934896 14.109046668410286 33.972982 13.990556668410278 34.019531 13.872066668410284C34.066081000000004 13.753576668410275 34.116862000000005 13.645666668410286 34.171875 13.548336668410286C34.222656 13.451006668410272 34.271322000000005 13.385416668410286 34.317871000000004 13.351556668410282C34.377116 13.317706668410281 34.442708 13.279626668410273 34.514648 13.23729666841028C34.586588000000006 13.190756668410273 34.692382 13.131506668410282 34.832031 13.059566668410284C34.971679 12.987626668410286 35.157877000000006 12.898766668410275 35.390625 12.792966668410273C35.623371000000006 12.682946668410281 35.928058 12.551756668410277 36.304687 12.399406668410279C36.681313 12.242836668410277 37.144691 12.058756668410282 37.694824000000004 11.847166668410281C38.24495 11.63557666841028 38.907222000000004 11.388026668410276 39.68164 11.104486668410274C39.732416 11.079106668410276 39.770502 11.074876668410283 39.795898 11.091786668410279C39.821283 11.104496668410277 39.810704 11.140466668410284 39.764160000000004 11.199696668410283C39.738764 11.225096668410274 39.685867 11.282226668410274 39.605469 11.371086668410285C39.52506 11.459966668410274 39.438309000000004 11.553066668410281 39.345215 11.650386668410277C39.256343 11.74772666841028 39.173823000000006 11.834476668410275 39.097656 11.910636668410277C39.021480000000004 11.986816668410285 38.97493 12.024906668410281 38.958008 12.024896668410278C38.623694 12.181476668410284 38.312659000000004 12.323246668410277 38.024902000000004 12.450186668410282C37.737138 12.572916668410286 37.438799 12.701986668410285 37.129883 12.837396668410278C36.825193000000006 12.968586668410282 36.490883000000004 13.114586668410283 36.126953 13.275386668410277C35.767251 13.431966668410283 35.344074000000006 13.622396668410275 34.857422 13.846676668410282C35.200194 14.176756668410277 35.492186000000004 14.458166668410286 35.733398 14.690916668410281C35.978839 14.923666668410277 36.188312 15.124676668410274 36.361816000000005 15.293936668410282C36.535317000000006 15.458986668410276 36.681313 15.602866668410286 36.799804 15.725576668410284C36.922523000000005 15.844076668410281 37.032549 15.954096668410273 37.129883 16.05565666841028C37.231442 16.157226668410274 37.326657000000004 16.260906668410286 37.415527000000004 16.366696668410285C37.508623 16.468256668410277 37.612301 16.586746668410285 37.726562 16.72216666841028C37.845048000000006 16.853346668410282 37.980465 17.012036668410275 38.132812 17.198236668410274C38.289384000000005 17.38020666841028 38.479813 17.602376668410272 38.704101 17.864736668410274C38.919917000000005 18.114416668410286 39.182287 18.300616668410285 39.491211 18.423336668410286C39.800125 18.54182666841028 40.11539100000001 18.601066668410283 40.437012 18.601066668410283L40.69726500000001 18.601066668410283L40.817871000000004 18.601066668410283C40.889805 18.601066668410283 40.92789 18.603186668410274 40.932128999999996 18.60741666841028C40.932122 18.662426668410276 40.930006 18.747066668410284 40.92578100000001 18.861326668410285C40.92577500000001 18.971346668410277 40.92365900000001 19.089836668410285 40.919433000000005 19.21678666841028C40.919427000000006 19.343746668410276 40.917311000000005 19.46646666841029 40.913086 19.58495666841027C40.913079 19.699216668410273 40.913079 19.788076668410284 40.913086 19.851556668410282C40.777663 19.87694666841027 40.64647800000001 19.889646668410293 40.51953100000001 19.889646668410293C40.350254 19.889646668410293 40.174636 19.887526668410274 39.992675999999996 19.883296668410267C39.810704 19.87906666841029 39.63297 19.85790666841028 39.459472000000005 19.81981666841027C39.290197000000006 19.78173666841029 39.12939 19.72248666841027 38.977051 19.642086668410272C38.828934000000004 19.56167666841027 38.701981 19.445306668410282 38.596191000000005 19.292966668410273C38.481929 19.140616668410274 38.369788 18.986156668410274 38.259765 18.829586668410286C38.149736000000004 18.67300666841028 38.037594000000006 18.514316668410274 37.92334 18.353506668410276C37.876787 18.531246668410276 37.806963 18.711096668410278 37.713867 18.89305666841028C37.620765000000006 19.07079666841028 37.495928 19.25699666841028 37.339355000000005 19.45165666841028C37.284339 19.515126668410275 37.189125000000004 19.57014666841029 37.053711 19.616696668410285C36.922523000000005 19.66324666841028 36.768064 19.70344666841028 36.590332000000004 19.73729666841028C36.412595 19.766916668410275 36.22005 19.792316668410265 36.012695 19.81346666841027C35.809569 19.83462666841028 35.610676000000005 19.851556668410282 35.416015 19.864256668410277C35.221353 19.87271666841029 35.039387000000005 19.87906666841029 34.870117 19.883296668410267C34.705078 19.887526668410274 34.569661 19.889646668410293 34.463867 19.889646668410293L34.197265 19.889646668410293C34.201497 19.669586668410275 34.205729000000005 19.458006668410277 34.209961 19.25487666841029C34.209961 19.051756668410277 34.212077 18.840166668410276 34.216308000000005 18.620106668410273M30.166504000000003 22.047846668410287C30.081868 21.98436666841029 30.06071 21.912426668410276 30.103027000000004 21.83202666841028C30.208821 21.688146668410283 30.3125 21.544266668410287 30.414062 21.40038666841029C30.515624000000003 21.260736668410274 30.619303000000002 21.118966668410266 30.725097000000005 20.97508666841027C30.758951000000003 20.93700666841029 30.786458000000003 20.92007666841029 30.807617 20.924306668410267C30.833007000000002 20.928536668410274 30.860513000000005 20.94123666841027 30.890137000000003 20.96239666841028C30.962076000000003 21.01740666841029 31.036132000000002 21.07665666841028 31.112304 21.140126668410275C31.192707000000006 21.203606668410274 31.270995 21.26284666841029 31.347168000000003 21.317866668410275C31.423338 21.377106668410292 31.495278000000006 21.427886668410267 31.562988000000004 21.470206668410285C31.634927000000005 21.51675666841028 31.696287000000005 21.548496668410266 31.74707 21.565426668410268C31.793618000000002 21.582346668410267 31.821124000000005 21.586576668410274 31.829590000000003 21.57811666841029C31.838052000000005 21.569656668410275 31.861326000000005 21.54214666841027 31.899414 21.495596668410272C31.94173 21.449046668410276 32.00309 21.374996668410276 32.083496000000004 21.273426668410266C32.168129 21.17186666841029 32.286619 21.030106668410284 32.438965 20.848136668410277C32.472817000000006 20.814286668410276 32.500323 20.80158666841028 32.521484 20.81005666841027C32.546872 20.82274666841029 32.568031000000005 20.835446668410285 32.584961 20.848136668410277C32.788083 21.01317666841028 32.944658000000004 21.140126668410275 33.054687 21.22899666841029C33.168942 21.317866668410275 33.251462000000004 21.38345666841029 33.302246000000004 21.42577666841028C33.357256 21.468086668410265 33.388994000000004 21.493486668410284 33.397461 21.50194666841027C33.410153 21.510406668410283 33.418616 21.51675666841028 33.422851 21.520986668410288C33.448239 21.53791666841029 33.46305 21.55907666841027 33.467285000000004 21.584466668410286C33.475745 21.609856668410274 33.469398000000005 21.63524666841029 33.448242 21.660636668410277C33.342445000000005 21.796056668410287 33.236650000000004 21.92935666841028 33.130859 22.06053666841028C33.029294 22.19595666841029 32.927731 22.33137666841027 32.826172 22.46678666841028C32.788083 22.513336668410275 32.756345 22.534496668410284 32.730957000000004 22.530266668410277C32.705564 22.52603666841027 32.680173 22.515456668410266 32.654785000000004 22.498526668410292C32.506671000000004 22.40542666841027 32.369138 22.301746668410274 32.242187 22.187496668410276C32.115232000000006 22.07746666841028 31.984047000000004 21.954746668410266 31.848633 21.819326668410284C31.738605 21.954746668410266 31.632811000000004 22.090156668410273 31.53125 22.225576668410284C31.429686000000004 22.360996668410266 31.326008 22.494296668410286 31.220215000000003 22.62548666841029C31.177896000000004 22.67625666841029 31.122883 22.688956668410285 31.055176000000003 22.66356666841027C30.991698 22.63817666841028 30.938801000000005 22.610666668410275 30.896484 22.58104666841028C30.820312 22.53872666841029 30.754719 22.498526668410292 30.699707000000004 22.460446668410285C30.644693000000004 22.42658666841028 30.58968 22.38849666841027 30.534668000000003 22.346186668410283C30.479654000000004 22.308096668410272 30.422526000000005 22.263666668410266 30.363281 22.21288666841029C30.308268000000005 22.166336668410267 30.242676000000003 22.111316668410282 30.166504000000003 22.047846668410287M32.305664 18.499506668410277C32.191404000000006 18.719556668410277 32.047524 18.918456668410286 31.874023 19.096186668410283C31.704751 19.269686668410273 31.516437000000003 19.417796668410276 31.309082000000004 19.54051666841029C31.105956000000006 19.65900666841027 30.885904000000004 19.749996668410276 30.648926000000003 19.81346666841027C30.416178000000002 19.87694666841027 30.179199000000004 19.906566668410292 29.937988000000004 19.902336668410285L29.937988000000004 18.601066668410283C30.022624 18.609536668410286 30.094564000000005 18.61376666841028 30.153808000000005 18.61376666841028C30.213053000000002 18.609536668410286 30.265950000000004 18.60741666841028 30.3125 18.60741666841028C30.519856000000004 18.60741666841028 30.733560000000004 18.57356666841028 30.953613000000004 18.505856668410274C31.177896000000004 18.438146668410283 31.391600000000004 18.351396668410274 31.594726 18.245596668410286C31.802081 18.13557666841028 31.994627 18.01285666841028 32.172363000000004 17.877436668410283C32.354327000000005 17.73778666841028 32.508787000000005 17.598136668410277 32.635742 17.458486668410274C32.673825 17.416176668410273 32.703448 17.401366668410276 32.724609 17.414056668410282C32.745765000000006 17.426756668410277 32.756345 17.45214666841028 32.756347000000005 17.490226668410273C32.739418 17.68912666841028 32.777504 17.854166668410286 32.870605000000005 17.985346668410273C32.963701 18.11229666841028 33.082191 18.215976668410278 33.226074000000004 18.296376668410275C33.374183 18.376786668410276 33.53499 18.438146668410283 33.708496000000004 18.480466668410273C33.881995 18.51854666841028 34.03857 18.55028666841028 34.178222000000005 18.57567666841028C34.250158000000006 18.588376668410277 34.326330000000006 18.596836668410276 34.406738000000004 18.601066668410283C34.487137000000004 18.605296668410276 34.569657 18.60741666841028 34.654297 18.60741666841028C34.654292000000005 18.662426668410276 34.652176000000004 18.747066668410284 34.647949000000004 18.861326668410285C34.647945 18.971346668410277 34.645829000000006 19.089836668410285 34.641601 19.21678666841028C34.641597000000004 19.343746668410276 34.639481 19.46646666841029 34.635254 19.58495666841027C34.635249 19.699216668410273 34.635249 19.788076668410284 34.635254 19.851556668410282C34.245927 19.902336668410285 33.97721 19.906566668410292 33.829101 19.864256668410277C33.647132000000006 19.84309666841027 33.467282000000004 19.802886668410267 33.289551 19.74364666841028C33.116045 19.68016666841028 32.95947 19.595536668410276 32.819824000000004 19.489736668410288C32.680173 19.379716668410268 32.563799 19.244296668410286 32.470703 19.083486668410274C32.377602 18.918456668410286 32.322589 18.723786668410284 32.305664 18.499506668410277M25.996094 21.83202666841028C25.911458000000003 21.76854666841028 25.890299000000006 21.69660666841027 25.932617 21.61620666841027C26.038411000000004 21.472326668410275 26.142089000000006 21.32844666841028 26.243652000000004 21.184566668410284C26.345214000000006 21.040686668410288 26.448892 20.89891666841028 26.554687 20.75926666841029C26.588541 20.721186668410283 26.616047000000002 20.70213666841029 26.637207000000004 20.702146668410293C26.662597000000005 20.70637666841027 26.690103 20.719066668410292 26.719726 20.740226668410273C26.791666 20.799476668410293 26.865721 20.860836668410272 26.941894000000005 20.924306668410267C27.022297000000002 20.987786668410266 27.100585000000002 21.047026668410282 27.176758 21.102046668410267C27.252928000000004 21.161286668410284 27.324868000000002 21.212066668410287 27.392578 21.254386668410277C27.464516000000003 21.300936668410273 27.525877 21.332676668410286 27.576660000000004 21.34960666841029C27.623208000000005 21.366526668410287 27.650714 21.370756668410266 27.659179 21.36229666841028C27.667641000000003 21.353836668410267 27.690916 21.32420666841027 27.729004000000003 21.273426668410266C27.771320000000003 21.22687666841027 27.832680000000003 21.15282666841027 27.913086 21.051266668410292C27.997719000000004 20.95392666841029 28.116209000000005 20.814286668410276 28.268554 20.63231666841027C28.302406000000005 20.594226668410286 28.329913000000005 20.579416668410275 28.351074000000004 20.58788666841029C28.376462000000004 20.600576668410284 28.397621 20.615386668410267 28.414551000000003 20.63231666841027C28.566892000000003 20.755036668410284 28.691729000000002 20.85659666841029 28.789062 20.93700666841029C28.890622 21.01740666841029 28.971025000000004 21.080886668410287 29.030273 21.127436668410283C29.093747 21.178216668410286 29.140296 21.214186668410278 29.169922 21.235346668410287C29.199541000000004 21.260736668410274 29.2207 21.277666668410276 29.233398 21.28612666841029C29.241858 21.28612666841029 29.254554000000006 21.296706668410266 29.271484 21.317866668410275C29.292640000000006 21.339026668410284 29.303219000000006 21.36017666841029 29.303222000000005 21.38133666841027C29.303219000000006 21.406726668410286 29.294756 21.427886668410267 29.277832000000004 21.44481666841027C29.172034000000004 21.58023666841028 29.06624 21.71353666841027 28.960449000000004 21.84471666841027C28.858884000000003 21.98013666841028 28.755205000000004 22.11554666841029 28.649414 22.25096666841027C28.615557000000003 22.29328666841029 28.585935 22.31232666841028 28.560547 22.308096668410272C28.535153 22.303866668410294 28.509763 22.29540666841028 28.484375 22.282706668410285C28.336260000000003 22.189606668410292 28.198728000000003 22.085926668410266 28.071777000000004 21.971676668410268C27.944822000000002 21.861646668410273 27.813637 21.738926668410286 27.678222000000005 21.603506668410276C27.568195000000003 21.73469666841028 27.462401 21.86799666841027 27.360840000000003 22.00341666841028C27.259276 22.13882666841029 27.155598000000005 22.27424666841027 27.049804 22.40966666841028C27.007486 22.46043666841028 26.952473000000005 22.471016668410286 26.884765 22.44139666841029C26.821288000000003 22.416006668410276 26.768391 22.39061666841029 26.726074000000004 22.365226668410273C26.649901 22.322906668410283 26.584309000000005 22.282706668410285 26.529297 22.244626668410277C26.474283 22.210766668410272 26.419270000000004 22.17267666841029 26.364258 22.130366668410275C26.309244 22.092276668410292 26.252115000000003 22.047846668410287 26.192871000000004 21.997066668410284C26.137858 21.950516668410287 26.072265 21.895496668410274 25.996094 21.83202666841028M27.068847000000005 23.139646668410293C27.090005000000005 23.110016668410267 27.128091000000005 23.059236668410293 27.183105000000005 22.98729666841028C27.242349000000004 22.919586668410275 27.303709000000005 22.84764666841029 27.367187 22.771476668410273C27.430662000000005 22.695306668410282 27.489907000000002 22.62124666841028 27.544922 22.549306668410267C27.604165000000002 22.48159666841029 27.644367000000003 22.435046668410266 27.665527000000004 22.40966666841028C27.699380000000005 22.367346668410292 27.729002 22.346186668410283 27.754394000000005 22.346186668410283C27.784015000000004 22.35041666841029 27.809405000000005 22.363106668410282 27.830566000000005 22.38426666841029C27.982908000000002 22.515456668410266 28.137367000000005 22.64028666841027 28.293945 22.75878666841028C28.450518000000002 22.877266668410286 28.577471000000003 22.98940666841027 28.674804 23.095206668410285C28.700192 23.116366668410294 28.710772000000006 23.135406668410283 28.706543000000003 23.152336668410285C28.702308000000002 23.173496668410266 28.689613 23.19676666841029 28.668457000000004 23.22216666841028C28.575355000000002 23.361806668410267 28.478025000000002 23.49087666841028 28.376465000000003 23.60936666841029C28.274900000000002 23.732086668410275 28.175453000000005 23.86115666841029 28.078125 23.99657666841027C28.031573 24.364736668410288 27.974444000000005 24.37742666841028 27.906738000000004 24.03466666841028C27.851723 24.005036668410284 27.781899000000003 23.958486668410288 27.697265 23.895016668410292C27.616860000000003 23.831536668410266 27.534341000000005 23.76382666841029 27.449707000000004 23.691886668410277C27.365070000000003 23.619946668410293 27.286782000000002 23.54800666841028 27.214844 23.47606666841027C27.142902 23.408356668410292 27.090005000000005 23.35122666841029 27.056152000000004 23.304676668410266C27.034992000000003 23.270826668410265 27.026529000000004 23.243316668410287 27.030762000000003 23.22216666841028C27.034992000000003 23.20099666841027 27.047687000000003 23.173496668410266 27.068847000000005 23.139646668410293M28.040039 18.499506668410277C27.925779000000006 18.719556668410277 27.781899000000003 18.918456668410286 27.608398 19.096186668410283C27.439126 19.269686668410273 27.250812000000003 19.417796668410276 27.043457000000004 19.54051666841029C26.840331000000006 19.65900666841027 26.620279000000004 19.749996668410276 26.383301000000003 19.81346666841027C26.150553000000002 19.87694666841027 25.913574000000004 19.906566668410292 25.672363000000004 19.902336668410285L25.672363000000004 18.601066668410283C25.756999 18.609536668410286 25.828939000000005 18.61376666841028 25.888183000000005 18.61376666841028C25.947428000000002 18.609536668410286 26.000325000000004 18.60741666841028 26.046875 18.60741666841028C26.254231000000004 18.60741666841028 26.467935000000004 18.57356666841028 26.687988000000004 18.505856668410274C26.912271000000004 18.438146668410283 27.125975000000004 18.351396668410274 27.329101 18.245596668410286C27.536456 18.13557666841028 27.729002 18.01285666841028 27.906738000000004 17.877436668410283C28.088702000000005 17.73778666841028 28.243162000000005 17.598136668410277 28.370117 17.458486668410274C28.4082 17.416176668410273 28.437823 17.401366668410276 28.458984 17.414056668410282C28.480140000000006 17.426756668410277 28.490720000000003 17.45214666841028 28.490722000000005 17.490226668410273C28.473793 17.68912666841028 28.511879 17.854166668410286 28.604980000000005 17.985346668410273C28.698076 18.11229666841028 28.816566 18.215976668410278 28.960449000000004 18.296376668410275C29.108558000000002 18.376786668410276 29.269365 18.438146668410283 29.442871000000004 18.480466668410273C29.616370000000003 18.51854666841028 29.772945 18.55028666841028 29.912597000000005 18.57567666841028C29.984533000000006 18.588376668410277 30.060705000000006 18.596836668410276 30.141113000000004 18.601066668410283C30.221512000000004 18.605296668410276 30.304032 18.60741666841028 30.388672 18.60741666841028C30.388667000000005 18.662426668410276 30.386551000000004 18.747066668410284 30.382324000000004 18.861326668410285C30.38232 18.971346668410277 30.380204000000006 19.089836668410285 30.375976 19.21678666841028C30.375972000000004 19.343746668410276 30.373856000000004 19.46646666841029 30.369629000000003 19.58495666841027C30.369624 19.699216668410273 30.369624 19.788076668410284 30.369629000000003 19.851556668410282C29.980302000000002 19.902336668410285 29.711585 19.906566668410292 29.563476 19.864256668410277C29.381507000000006 19.84309666841027 29.201657000000004 19.802886668410267 29.023926000000003 19.74364666841028C28.85042 19.68016666841028 28.693845000000003 19.595536668410276 28.554199000000004 19.489736668410288C28.414548000000003 19.379716668410268 28.298174000000003 19.244296668410286 28.205078 19.083486668410274C28.111977000000003 18.918456668410286 28.056964 18.723786668410284 28.040039 18.499506668410277M21.635254000000003 22.047846668410287C21.550618 21.98436666841029 21.52946 21.912426668410276 21.571777000000004 21.83202666841028C21.677571 21.688146668410283 21.78125 21.544266668410287 21.882812 21.40038666841029C21.984374000000003 21.260736668410274 22.088053000000002 21.118966668410266 22.193847000000005 20.97508666841027C22.227701000000003 20.93700666841029 22.255208000000003 20.92007666841029 22.276367 20.924306668410267C22.301757000000002 20.928536668410274 22.329263000000005 20.94123666841027 22.358887000000003 20.96239666841028C22.430826000000003 21.01740666841029 22.504882000000002 21.07665666841028 22.581054 21.140126668410275C22.661457000000006 21.203606668410274 22.739745 21.26284666841029 22.815918000000003 21.317866668410275C22.892088 21.377106668410292 22.964028000000006 21.427886668410267 23.031738000000004 21.470206668410285C23.103677000000005 21.51675666841028 23.165037000000005 21.548496668410266 23.21582 21.565426668410268C23.262368000000002 21.582346668410267 23.289874000000005 21.586576668410274 23.298340000000003 21.57811666841029C23.306802000000005 21.569656668410275 23.330076000000005 21.54214666841027 23.368164 21.495596668410272C23.41048 21.449046668410276 23.47184 21.374996668410276 23.552246000000004 21.273426668410266C23.636879 21.17186666841029 23.755369 21.030106668410284 23.907715000000003 20.848136668410277C23.941567000000006 20.814286668410276 23.969073 20.80158666841028 23.990234 20.81005666841027C24.015622 20.82274666841029 24.036781000000005 20.835446668410285 24.053711 20.848136668410277C24.256833 21.01317666841028 24.413408000000004 21.140126668410275 24.523437 21.22899666841029C24.637692 21.317866668410275 24.720212000000004 21.38345666841029 24.770996000000004 21.42577666841028C24.826006 21.468086668410265 24.857744000000004 21.493486668410284 24.866211 21.50194666841027C24.878903 21.510406668410283 24.887366 21.51675666841028 24.891601 21.520986668410288C24.916989 21.53791666841029 24.931800000000003 21.55907666841027 24.936035000000004 21.584466668410286C24.944495000000003 21.609856668410274 24.938148000000005 21.63524666841029 24.916992 21.660636668410277C24.811195000000005 21.796056668410287 24.705400000000004 21.92935666841028 24.599609 22.06053666841028C24.498044 22.19595666841029 24.396481 22.33137666841027 24.294922 22.46678666841028C24.256833 22.513336668410275 24.225095000000003 22.534496668410284 24.199707000000004 22.530266668410277C24.174314000000003 22.52603666841027 24.148923000000003 22.515456668410266 24.123535000000004 22.498526668410292C23.975421000000004 22.40542666841027 23.837888 22.301746668410274 23.710937 22.187496668410276C23.583982000000006 22.07746666841028 23.452797000000004 21.954746668410266 23.317383 21.819326668410284C23.207355 21.954746668410266 23.101561000000004 22.090156668410273 23 22.225576668410284C22.898436000000004 22.360996668410266 22.794758 22.494296668410286 22.688965000000003 22.62548666841029C22.646646000000004 22.67625666841029 22.591633 22.688956668410285 22.523926000000003 22.66356666841027C22.460448 22.63817666841028 22.407551000000005 22.610666668410275 22.365234 22.58104666841028C22.289062 22.53872666841029 22.223469 22.498526668410292 22.168457000000004 22.460446668410285C22.113443000000004 22.42658666841028 22.05843 22.38849666841027 22.003418000000003 22.346186668410283C21.948404000000004 22.308096668410272 21.891276000000005 22.263666668410266 21.832031 22.21288666841029C21.777018000000005 22.166336668410267 21.711426000000003 22.111316668410282 21.635254000000003 22.047846668410287M23.774414 18.499506668410277C23.660154000000006 18.719556668410277 23.516274000000003 18.918456668410286 23.342773 19.096186668410283C23.173501 19.269686668410273 22.985187000000003 19.417796668410276 22.777832000000004 19.54051666841029C22.574706000000006 19.65900666841027 22.354654000000004 19.749996668410276 22.117676000000003 19.81346666841027C21.884928000000002 19.87694666841027 21.647949000000004 19.906566668410292 21.406738000000004 19.902336668410285L21.406738000000004 18.601066668410283C21.491374 18.609536668410286 21.563314000000005 18.61376666841028 21.622558000000005 18.61376666841028C21.681803000000002 18.609536668410286 21.734700000000004 18.60741666841028 21.78125 18.60741666841028C21.988606000000004 18.60741666841028 22.202310000000004 18.57356666841028 22.422363000000004 18.505856668410274C22.646646000000004 18.438146668410283 22.860350000000004 18.351396668410274 23.063476 18.245596668410286C23.270831 18.13557666841028 23.463377 18.01285666841028 23.641113000000004 17.877436668410283C23.823077000000005 17.73778666841028 23.977537000000005 17.598136668410277 24.104492 17.458486668410274C24.142575 17.416176668410273 24.172198 17.401366668410276 24.193359 17.414056668410282C24.214515000000006 17.426756668410277 24.225095000000003 17.45214666841028 24.225097000000005 17.490226668410273C24.208168 17.68912666841028 24.246254 17.854166668410286 24.339355000000005 17.985346668410273C24.432451 18.11229666841028 24.550941 18.215976668410278 24.694824000000004 18.296376668410275C24.842933000000002 18.376786668410276 25.00374 18.438146668410283 25.177246000000004 18.480466668410273C25.350745000000003 18.51854666841028 25.50732 18.55028666841028 25.646972000000005 18.57567666841028C25.718908000000006 18.588376668410277 25.795080000000006 18.596836668410276 25.875488000000004 18.601066668410283C25.955887000000004 18.605296668410276 26.038407 18.60741666841028 26.123047 18.60741666841028C26.123042000000005 18.662426668410276 26.120926000000004 18.747066668410284 26.116699000000004 18.861326668410285C26.116695 18.971346668410277 26.114579000000006 19.089836668410285 26.110351 19.21678666841028C26.110347000000004 19.343746668410276 26.108231000000004 19.46646666841029 26.104004000000003 19.58495666841027C26.103999 19.699216668410273 26.103999 19.788076668410284 26.104004000000003 19.851556668410282C25.714677000000002 19.902336668410285 25.44596 19.906566668410292 25.297851 19.864256668410277C25.115882000000006 19.84309666841027 24.936032000000004 19.802886668410267 24.758301000000003 19.74364666841028C24.584795 19.68016666841028 24.428220000000003 19.595536668410276 24.288574000000004 19.489736668410288C24.148923000000003 19.379716668410268 24.032549000000003 19.244296668410286 23.939453 19.083486668410274C23.846352000000003 18.918456668410286 23.791339 18.723786668410284 23.774414 18.499506668410277M18.854980000000005 12.19628666841028C18.770341000000002 12.19628666841028 18.685706000000003 12.215336668410274 18.601074000000004 12.253416668410281C18.520667000000003 12.287276668410286 18.442379000000003 12.331706668410277 18.366211 12.386716668410273C18.290036 12.437496668410276 18.218096000000003 12.494626668410277 18.15039 12.558096668410286C18.082679000000006 12.617346668410278 18.023434 12.672366668410277 17.972656 12.723136668410277C18.031898000000005 12.718916668410273 18.108070000000005 12.718916668410273 18.201172 12.723136668410277C18.294268000000002 12.72314666841028 18.397946000000005 12.721026668410275 18.512207000000004 12.716786668410279C18.626461000000006 12.708336668410283 18.747067 12.69140666841028 18.874023 12.666006668410276C19.005204000000006 12.640626668410277 19.136389 12.596196668410286 19.267578 12.532706668410285C19.242183000000004 12.418456668410286 19.185054 12.333826668410282 19.096191000000005 12.278806668410283C19.011552000000002 12.21956666841028 18.931148 12.192056668410274 18.854980000000005 12.19628666841028M17.74414 12.685056668410283C17.803383000000004 12.608886668410278 17.860511000000002 12.526366668410276 17.915527000000004 12.437496668410276C17.970537 12.344406668410286 18.014971000000003 12.25130666841028 18.048828 12.158196668410284C18.048825 11.929686668410284 18.044593000000006 11.705406668410276 18.036133 11.485346668410273C18.027666000000004 11.265306668410275 18.027666000000004 11.041016668410279 18.036133 10.812496668410276C18.002276000000002 10.753256668410273 17.964190000000002 10.702476668410284 17.921875 10.660146668410277C17.883786 10.61784666841028 17.864743000000004 10.562826668410281 17.864746000000004 10.495106668410273C17.907061000000006 10.418946668410285 17.949379 10.34277666841028 17.991699000000004 10.266596668410273C18.038246 10.190436668410285 18.084795 10.116376668410282 18.131347000000005 10.044426668410281C18.144040000000004 10.031746668410278 18.160967 10.019046668410283 18.182129000000003 10.006336668410285C18.203285 9.993656668410281 18.220212000000004 10.000006668410279 18.232910000000004 10.025386668410277C18.258298000000003 10.12272666841028 18.306963000000003 10.213706668410282 18.378906 10.298336668410286C18.455075 10.38297666841028 18.533362000000004 10.46338666841028 18.613769000000005 10.539546668410281C18.575680000000006 10.649576668410276 18.533362000000004 10.746906668410276 18.486816000000005 10.83153666841028C18.444495000000003 10.916176668410273 18.402178 10.986006668410283 18.359863000000004 11.041006668410276C18.364092 11.24414666841028 18.364092 11.409186668410285 18.359863000000004 11.536126668410276C18.355628000000003 11.65885666841028 18.34928 11.75618666841028 18.34082 11.828116668410274C18.332353000000005 11.895836668410283 18.323890000000006 11.944496668410281 18.315429 11.974116668410275C18.311195000000005 12.003746668410272 18.309079000000004 12.024906668410281 18.309082000000004 12.037586668410285C18.410641000000005 11.948736668410277 18.522783000000004 11.861976668410279 18.645508 11.777336668410285C18.772457000000003 11.692706668410281 18.907874 11.65039666841028 19.051758 11.650386668410277C19.254879000000003 11.65039666841028 19.417802000000002 11.713866668410276 19.540527000000004 11.840816668410284C19.663244000000006 11.96777666841028 19.720373000000002 12.132816668410285 19.711914 12.33592666841028C19.669592 12.395186668410275 19.606115000000003 12.486166668410277 19.521484 12.608876668410275C19.436845000000005 12.73160666841028 19.337398 12.843746668410276 19.223144000000005 12.945306668410282C19.117346000000005 13.00878666841028 18.996741 13.061686668410275 18.861328 13.103996668410275C18.730139 13.146326668410282 18.592607 13.180176668410283 18.448730000000005 13.205556668410281C18.309079000000004 13.230956668410286 18.169430000000006 13.249996668410276 18.029785000000004 13.262686668410282C17.890134000000003 13.271156668410285 17.761065000000002 13.275386668410277 17.642578 13.275386668410277C17.591794 13.275386668410277 17.551592 13.273276668410276 17.521972000000005 13.26903666841028C17.492348 13.264816668410276 17.452146000000006 13.252116668410281 17.401367 13.230946668410283C17.350584000000005 13.205566668410285 17.276528000000006 13.165366668410286 17.179199000000004 13.110346668410273C17.081866000000005 13.055336668410277 16.940102000000003 12.977046668410281 16.753906 12.875486668410275C16.698892 12.850096668410274 16.675617000000003 12.828936668410279 16.684082000000004 12.812006668410277C16.696776 12.795086668410278 16.730630000000005 12.784506668410273 16.785644000000005 12.780266668410277C16.87451 12.771806668410278 16.967609000000003 12.769696668410276 17.064941000000005 12.77391666841028C17.166502 12.773926668410283 17.261716 12.773926668410283 17.350586 12.77391666841028C17.443682000000003 12.773926668410283 17.524086000000004 12.769696668410276 17.591797 12.761226668410274C17.663734000000005 12.748536668410281 17.714515000000006 12.72314666841028 17.74414 12.685056668410283M19.470703 17.978996668410275C19.453772 18.01285666841028 19.430497000000003 18.06998666841028 19.400879000000003 18.150386668410277C19.375484 18.226556668410282 19.333166000000006 18.366206668410285 19.273926000000003 18.569326668410284C19.218909000000004 18.734366668410274 19.136389 18.880366668410275 19.026367 19.007316668410283C18.920569 19.13427666841028 18.795732 19.244296668410286 18.651855000000005 19.33739666841028C18.512204000000004 19.43049666841027 18.359860000000005 19.51089666841027 18.194824000000004 19.578606668410274C18.029782000000004 19.642086668410272 17.862627000000003 19.69497666841029 17.693359 19.73729666841028C17.524086000000004 19.77538666841029 17.356931000000003 19.802886668410267 17.191894000000005 19.81981666841027C17.026853000000003 19.83674666841027 16.876626 19.845206668410285 16.741211 19.845206668410285C16.571939 19.845206668410285 16.415363 19.81770666841028 16.271484 19.762686668410268C16.131835000000002 19.707676668410286 16.011229 19.631506668410267 15.909668000000003 19.534176668410268C15.812336000000002 19.432606668410287 15.738280000000003 19.31412666841028 15.6875 19.17870666841027C15.636718000000002 19.039056668410282 15.617675000000006 18.888826668410275 15.630371000000004 18.728016668410277C15.634602000000001 18.66454666841028 15.638834000000003 18.592606668410284 15.643066000000005 18.512196668410283C15.651529000000004 18.431796668410286 15.657877000000006 18.349276668410283 15.662109000000001 18.26464666841028C15.670572 18.180006668410286 15.676920000000003 18.097486668410284 15.681152000000004 18.017086668410286C15.689615000000003 17.93244666841028 15.698079 17.85839666841028 15.706543000000003 17.79491666841028C15.736165 17.676426668410286 15.774251 17.617186668410284 15.820801000000003 17.61717666841028C15.880045000000003 17.617186668410284 15.905435000000004 17.684896668410275 15.896972000000005 17.820306668410282C15.892740000000003 17.913406668410275 15.894856000000004 17.98957666841028 15.90332 18.048826668410285C15.916015000000002 18.108066668410274 15.935058000000005 18.158846668410277 15.960449000000004 18.20116666841028C15.985839000000006 18.243486668410284 16.015461000000002 18.281566668410278 16.049316000000005 18.315426668410282C16.087401 18.345046668410276 16.127603 18.37890666841028 16.169922 18.416986668410274C16.224934000000005 18.463536668410285 16.288410000000006 18.50162666841028 16.360351 18.531246668410276C16.436522000000004 18.556636668410277 16.514810000000004 18.577796668410286 16.595215000000003 18.594716668410285C16.679849000000004 18.60741666841028 16.764484000000003 18.61587666841028 16.849121000000004 18.620106668410273C16.933755000000005 18.624346668410283 17.014158000000002 18.626456668410285 17.090332000000004 18.626456668410285C17.166502 18.626456668410285 17.274412000000005 18.617996668410285 17.414062 18.601066668410283C17.553708 18.584146668410284 17.701820000000005 18.558756668410282 17.858398 18.52489666841028C18.019203000000005 18.491046668410277 18.182126000000004 18.448726668410274 18.347168000000003 18.397946668410285C18.512204000000004 18.342936668410275 18.660315000000004 18.281566668410278 18.791504000000003 18.213856668410273C18.922685 18.141926668410278 19.028479000000004 18.061516668410277 19.108887000000003 17.972646668410277C19.189286000000003 17.88378666841028 19.225256 17.784336668410276 19.216797 17.67430666841028C19.208329000000006 17.60660666841028 19.19775 17.52619666841028 19.185058000000005 17.433096668410286C19.176591000000002 17.340006668410282 19.144853000000005 17.20881666841028 19.089844 17.03954666841028C19.034827 16.866046668410277 18.948075000000003 16.63964666841028 18.829590000000003 16.360346668410273C18.715328 16.076816668410274 18.550289 15.708656668410285 18.334472000000005 15.255856668410274L18.569336 14.13866666841028C18.577796 14.113276668410279 18.588375 14.09635666841028 18.601074000000004 14.087886668410277C18.617998 14.079426668410278 18.632809 14.087886668410277 18.645508 14.113276668410279C18.704749 14.248696668410275 18.770341000000002 14.384116668410286 18.842285000000004 14.519526668410279C18.914221000000005 14.650716668410283 18.988277000000004 14.790366668410286 19.064453 14.938466668410285C19.212561 15.196616668410286 19.356441000000004 15.475906668410275 19.496094 15.776356668410273C19.635738000000003 16.076816668410274 19.743648 16.392086668410286 19.819824000000004 16.72216666841028C19.862137000000004 16.92528666841028 19.908686000000003 17.12841666841028 19.959472000000005 17.33153666841028C20.014481000000004 17.530436668410275 20.088537000000002 17.716626668410285 20.18164 17.890126668410275C20.274734000000002 18.059406668410276 20.395340000000004 18.205396668410273 20.543457000000004 18.328116668410274C20.691563000000002 18.45084666841028 20.884109000000002 18.533356668410278 21.121094 18.57567666841028C21.180332 18.588376668410277 21.228998000000004 18.596836668410276 21.267090000000003 18.601066668410283C21.309401 18.605296668410276 21.355951000000005 18.60741666841028 21.406738000000004 18.60741666841028L21.540039 18.60741666841028L21.838379000000003 18.60741666841028L21.838379000000003 19.07714666841028L21.838379000000003 19.40721666841027C21.838372 19.500316668410292 21.836256000000006 19.580726668410293 21.832031 19.648426668410266C21.827793 19.71613666841027 21.821445000000004 19.78173666841029 21.812988000000004 19.845206668410285C21.741041000000003 19.85790666841028 21.675449 19.868486668410284 21.616211 19.87694666841027C21.561191 19.885406668410283 21.504062000000005 19.889646668410293 21.444824000000004 19.889646668410293C21.279779000000005 19.889646668410293 21.121088 19.881176668410276 20.96875 19.864256668410277C20.820632000000003 19.847326668410275 20.680984000000002 19.81558666841029 20.549804 19.769036668410266C20.418614000000005 19.72248666841027 20.298009 19.65900666841027 20.187988000000004 19.578606668410274C20.077957000000005 19.498206668410276 19.980627000000005 19.39452666841028 19.895996000000004 19.267576668410285C19.760575000000003 19.060216668410277 19.661128000000005 18.84227666841028 19.597656 18.61376666841028C19.538407 18.385246668410275 19.496089000000005 18.173656668410274 19.470703 17.978996668410275M12.272461 22.276356668410287C12.187826000000001 22.21288666841029 12.166667000000004 22.14094666841028 12.208984000000001 22.06053666841028C12.314779000000001 21.916656668410283 12.418457000000004 21.772776668410287 12.520019000000005 21.62889666841029C12.621582000000004 21.489246668410274 12.725260000000006 21.34748666841027 12.831054000000002 21.203606668410274C12.864909000000004 21.16551666841029 12.892415 21.148596668410292 12.913574000000004 21.15282666841027C12.938965000000003 21.157056668410277 12.966471000000006 21.169756668410272 12.996094 21.19091666841028C13.068033 21.24592666841029 13.142089000000006 21.30516666841028 13.218262000000003 21.36864666841028C13.298665 21.432116668410274 13.376952000000003 21.491366668410294 13.453125 21.546376668410275C13.529296000000002 21.605626668410267 13.601236 21.65640666841027 13.668945 21.698726668410288C13.740884000000001 21.745276668410284 13.802245 21.777006668410266 13.853027000000004 21.793936668410268C13.899576000000003 21.81086666841027 13.927082000000006 21.815096668410277 13.935547 21.80663666841029C13.944009000000001 21.798166668410275 13.967284 21.77066666841027 14.005371000000004 21.724116668410275C14.047687000000003 21.67756666841028 14.109048000000001 21.603506668410276 14.189453 21.50194666841027C14.274087000000002 21.40038666841029 14.392576000000005 21.258616668410284 14.544922 21.07665666841028C14.578774000000003 21.042796668410276 14.606281000000003 21.030106668410284 14.627441000000005 21.03856666841027C14.652830000000002 21.051266668410292 14.673989000000006 21.063956668410285 14.690918000000003 21.07665666841028C14.894041000000001 21.241696668410285 15.050616000000005 21.36864666841028 15.160644000000005 21.457516668410292C15.274900000000002 21.546376668410275 15.357419 21.61196666841029 15.408203 21.65428666841028C15.463213000000003 21.69660666841027 15.494952000000005 21.721996668410284 15.503418000000003 21.730466668410273C15.516110000000005 21.738926668410286 15.524574000000001 21.745276668410284 15.528808000000005 21.74950666841029C15.554196000000005 21.76642666841029 15.569007000000006 21.78758666841027 15.573242 21.81298666841029C15.581703000000005 21.838366668410274 15.575355000000002 21.86375666841029 15.554199000000004 21.88915666841028C15.448402000000002 22.024566668410287 15.342608000000006 22.15786666841028 15.236816000000005 22.289056668410282C15.135251000000004 22.42446666841029 15.033689000000003 22.55988666841027 14.932129000000003 22.695306668410282C14.894041000000001 22.74185666841028 14.862302 22.763016668410287 14.836914 22.75878666841028C14.811521000000006 22.75454666841027 14.786131000000005 22.743966668410266 14.760742 22.727046668410267C14.612628 22.633946668410275 14.475096 22.530266668410277 14.348144000000005 22.416006668410276C14.22119 22.30597666841028 14.090005000000005 22.183256668410266 13.954590000000003 22.047846668410287C13.844563 22.183256668410266 13.738768 22.318676668410276 13.637207000000004 22.454096668410287C13.535644000000005 22.589506668410266 13.431965000000005 22.722806668410286 13.326172 22.85399666841029C13.283854000000005 22.904776668410292 13.228841000000003 22.917466668410285 13.161133 22.892086668410272C13.097656 22.86668666841028 13.044759000000006 22.839186668410278 13.002441000000005 22.809566668410284C12.926269000000005 22.767246668410266 12.860677000000003 22.727046668410267 12.805664 22.688956668410285C12.750651000000005 22.655106668410284 12.695638000000002 22.617016668410272 12.640625 22.574696668410283C12.585612000000005 22.536616668410275 12.530599000000002 22.492176668410266 12.475586 22.44139666841029C12.416341000000003 22.394846668410267 12.348633 22.339836668410285 12.272461 22.276356668410287M14.081543000000003 18.51854666841028C14.085773000000003 18.353506668410276 14.062499000000003 18.186356668410284 14.011719 18.017086668410286C13.965168000000006 17.847816668410275 13.905923000000001 17.68065666841028 13.833984000000001 17.515616668410274C13.762043000000006 17.346346668410277 13.685871000000006 17.181316668410275 13.605469 17.020506668410277C13.529296000000002 16.855466668410273 13.465819000000003 16.69677666841028 13.415039 16.54442666841028C13.376952000000003 16.472486668410284 13.376952000000003 16.400546668410286 13.415039 16.328606668410274C13.486978 16.163576668410286 13.561034 16.000646668410283 13.637207000000004 15.839836668410285C13.713378000000006 15.674806668410284 13.787434000000005 15.507646668410274 13.859375 15.338376668410277C13.872069000000003 15.308756668410282 13.891112 15.296056668410273 13.916504000000003 15.30028666841028C13.941893 15.304526668410276 13.958820000000003 15.317216668410282 13.967285000000004 15.338376668410277C14.018065 15.444166668410276 14.085773000000003 15.594396668410283 14.170410000000004 15.789056668410282C14.259276 15.979486668410274 14.343911000000006 16.191076668410275 14.424316000000005 16.423826668410285C14.508950000000006 16.652336668410285 14.580890000000004 16.889316668410274 14.640137000000003 17.134756668410276C14.699379 17.38020666841028 14.726886 17.60871666841028 14.722656 17.820306668410282C14.722654000000006 17.985346668410273 14.707843000000004 18.137686668410282 14.678222000000005 18.277336668410285C14.648598 18.41275666841028 14.606281000000003 18.55028666841028 14.551269000000005 18.689936668410283C14.496255000000005 18.829586668410286 14.430662000000005 18.977696668410275 14.354492 19.134266668410277C14.278319000000003 19.290846668410282 14.193683 19.47069666841027 14.100586 19.673826668410285C14.015949000000006 19.71613666841027 13.908039000000002 19.752106668410292 13.776855000000005 19.78173666841029C13.649901 19.811356668410284 13.516601000000001 19.83462666841028 13.376953 19.851556668410282C13.237304000000002 19.868486668410284 13.099772000000002 19.881176668410276 12.964355000000005 19.889646668410293C12.833170000000003 19.89387666841027 12.718913 19.89387666841027 12.621582000000004 19.889646668410293L12.621582000000004 18.620106668410273C12.718913 18.620116668410276 12.833170000000003 18.620116668410276 12.964355000000005 18.620106668410273C13.09554 18.61587666841028 13.228841000000003 18.609536668410286 13.364258 18.601066668410283C13.499674000000006 18.592606668410284 13.630858000000003 18.58202666841028 13.757812000000001 18.569326668410284C13.884764000000004 18.556636668410277 13.992674000000001 18.539706668410275 14.081543000000003 18.51854666841028M11.091797 16.874506668410277C11.155271000000006 17.462726668410284 11.345701000000005 17.900716668410283 11.663086 18.188466668410285C11.984698000000002 18.471996668410284 12.452308000000002 18.611646668410273 13.065918000000003 18.60741666841028C13.065914 18.662426668410276 13.063798000000006 18.747066668410284 13.05957 18.861326668410285C13.059566000000004 18.971346668410277 13.057451 19.089836668410285 13.053222000000005 19.21678666841028C13.053219000000006 19.343746668410276 13.051103000000005 19.46646666841029 13.046875 19.58495666841027C13.046871000000003 19.699216668410273 13.046871000000003 19.788076668410284 13.046875 19.851556668410282C12.742184000000002 19.906566668410292 12.44596 19.906566668410292 12.158203 19.851556668410282C11.870440000000002 19.792316668410265 11.612302 19.678056668410292 11.383789 19.50878666841028C11.155271000000006 19.33951666841027 10.966958000000005 19.113116668410285 10.818847000000005 18.829586668410286C10.670734000000003 18.546056668410273 10.583983000000003 18.20751666841028 10.558594 17.813956668410285C10.469725000000004 16.984536668410286 10.380858000000003 16.16991666841028 10.291992 15.370106668410273C10.203124000000003 14.566076668410275 10.105793000000006 13.747236668410281 10 12.913566668410283L10.463379000000003 11.745596668410286C10.484536000000006 11.686366668410272 10.501464000000006 11.663086668410273 10.514160000000004 11.675776668410279C10.526854 11.688476668410274 10.535318000000004 11.713866668410276 10.539551000000003 11.751946668410284C10.607258000000002 12.179366668410282 10.664387000000005 12.606776668410276 10.710937000000001 13.034176668410282C10.761717000000004 13.461586668410277 10.806151 13.888996668410286 10.844238000000004 14.316396668410277C10.886554000000004 14.739586668410283 10.926756000000005 15.164876668410272 10.964844 15.592276668410278C11.002928000000004 16.019696668410276 11.045246000000006 16.447096668410282 11.091797 16.874506668410277 " id="Wikipedia" style="font-size:13px;font-style:normal;font-variant:normal;font-weight:normal;font-stretch:normal;fill:#000000;fill-opacity:1;stroke:none;stroke-width:1px;stroke-linecap:butt;stroke-linejoin:miter;stroke-opacity:1;font-family:Sans;-inkscape-font-specification:Sans"></path>
</svg>