<?xml version="1.0" encoding="UTF-8" standalone="no"?>
<svg
	xmlns="http://www.w3.org/2000/svg"
	xmlns:dc="http://purl.org/dc/elements/1.1/"
	xmlns:cc="http://creativecommons.org/ns#"
	xmlns:rdf="http://www.w3.org/1999/02/22-rdf-syntax-ns#"
	xmlns:svg="http://www.w3.org/2000/svg"
	xmlns:xlink="http://www.w3.org/1999/xlink"
	xmlns:sodipodi="http://sodipodi.sourceforge.net/DTD/sodipodi-0.dtd"
	xmlns:inkscape="http://www.inkscape.org/namespaces/inkscape"
	version="1.1"
	viewBox="0 0 133.4121838838832 37.793000000000006">
	<g id="Wikipedia"><path d="M25.55283888388317 10.891000000000005C26.713837883883173 11.053000000000011 26.578837883883168 11.647000000000006 25.76883888388317 13.213000000000008L24.337838883883173 15.913000000000011L24.202838883883167 15.778000000000006L22.879838883883167 13.051000000000002C22.150839883883165 11.512 22.04283988388317 11.052999999999997 23.17683888388317 10.891000000000005C23.33883888388317 10.729 23.33883888388317 10.162000000000006 23.17683888388317 10C22.204839883883167 10.027000000000001 21.77283788388317 10.054000000000002 20.71983888388317 10.054000000000002C19.63983988388317 10.054000000000002 19.18083788388317 10.027000000000001 18.31683888388317 10C18.15483988388317 10.162000000000006 18.18183988388317 10.729 18.343838883883173 10.891000000000005C19.50483788388317 11.053000000000011 19.720839883883173 11.431000000000012 20.611838883883173 13.347999999999999L22.879838883883174 18.180999999999997L19.882838883883174 24.310000000000002L19.74783888388317 24.310000000000002L14.806839883883171 13.051000000000002C14.13183988388317 11.512 14.212840883883171 11.079999999999998 15.913839883883172 10.891000000000005C16.075838883883172 10.729 16.075838883883172 10.162000000000006 15.913839883883172 10C14.644840883883171 10.027000000000001 13.969838883883172 10.054000000000002 12.916839883883172 10.054000000000002C11.836840883883172 10.054000000000002 11.377837883883172 10.027000000000001 10.108839883883173 10C9.946839883883172 10.162000000000006 9.973839883883173 10.729 10.135839883883172 10.891000000000005C11.674837883883171 11.02600000000001 11.728839883883172 11.431000000000012 12.538839883883172 13.347999999999999L18.42483888388317 27.171999999999997C18.586838883883168 27.576999999999998 18.775838883883168 27.793000000000006 19.04583888388317 27.793000000000006C19.342838883883168 27.793000000000006 19.531838883883168 27.576999999999998 19.693838883883167 27.171999999999997L23.66283888388317 19.342L27.30783888388317 27.171999999999997C27.44283888388317 27.576999999999998 27.65883888388317 27.793000000000006 27.928838883883166 27.793000000000006C28.22583888388317 27.793000000000006 28.38783888388317 27.576999999999998 28.57683888388317 27.171999999999997L34.94883888388317 13.402000000000001C35.51583788388317 12.159999999999997 35.83984088388317 11.107 37.62183888388317 10.891000000000005C37.78383888388317 10.729 37.78383888388317 10.162000000000006 37.62183888388317 10C36.54183988388317 10.027000000000001 35.86683788388317 10.054000000000002 35.245838883883174 10.054000000000002C34.624839883883176 10.054000000000002 33.84183788388317 10.027000000000001 32.57283888388317 10C32.41083888388317 10.162000000000006 32.41083888388317 10.729 32.57283888388317 10.891000000000005C34.32783688388317 11.02600000000001 34.35483788388317 11.75500000000001 33.73383888388317 13.213000000000008L28.603838883883178 24.310000000000002L28.468838883883173 24.310000000000002L25.012838883883177 17.182000000000002L26.983838883883173 13.402000000000001C27.658837883883173 12.159999999999997 28.252839883883176 11.107 29.656838883883175 10.891000000000005C29.818838883883174 10.729 29.818838883883174 10.162000000000006 29.656838883883175 10C28.981839883883175 10.027000000000001 28.306837883883176 10.054000000000002 27.68583888388318 10.054000000000002C27.064839883883174 10.054000000000002 26.551837883883174 10.027000000000001 25.552838883883176 10C25.390838883883177 10.162000000000006 25.390838883883177 10.729 25.552838883883176 10.891000000000005 " id="path3417"></path><path d="M41.97618988388317 16.700000000000003C41.97618988388317 16.159999999999997 42.27318988388317 15.944000000000003 43.11018988388317 15.863L43.67718988388317 15.808999999999997C43.78518888388317 15.808999999999997 43.83918988388317 15.754999999999995 43.83918988388317 15.673999999999992L43.83918988388317 15.079999999999998L43.81218988388317 15.025999999999996C43.81218988388317 15.025999999999996 41.73318888388317 15.079999999999998 41.00418988388317 15.079999999999998C40.16718988388317 15.079999999999998 38.03418988388317 15.025999999999996 38.03418988388317 15.025999999999996L38.00718988388317 15.079999999999998L38.00718988388317 15.700999999999993C38.00718988388317 15.781999999999996 38.088189883883175 15.808999999999997 38.19618988388317 15.808999999999997L38.73618988388317 15.863C39.57318888388317 15.944000000000003 39.89718988388317 16.105999999999995 39.89718988388317 16.700000000000003L39.89718988388317 25.691000000000003C39.89718988388317 26.204000000000008 39.62718888388317 26.635999999999996 38.73618988388317 26.717000000000013L38.19618988388317 26.771000000000015C38.088189883883175 26.771000000000015 38.00718988388317 26.825000000000017 38.00718988388317 26.93300000000002L38.00718988388317 27.50000000000003L38.06118988388317 27.55400000000003C38.06118988388317 27.55400000000003 40.167189883883175 27.50000000000003 40.923189883883175 27.50000000000003C41.760188883883174 27.50000000000003 43.81218988388318 27.55400000000003 43.81218988388318 27.55400000000003L43.83918988388318 27.50000000000003L43.83918988388318 26.93300000000002C43.83918988388318 26.825000000000017 43.758189883883176 26.771000000000015 43.67718988388318 26.771000000000015L43.11018988388318 26.717000000000013C42.24618988388318 26.636000000000024 41.97618988388318 26.285000000000025 41.97618988388318 25.691000000000003L41.97618988388318 16.700000000000003 " id="path31880"></path><path d="M50.26720488388317 21.694999999999993C50.86120488388317 21.694999999999993 51.29320588388317 21.83 51.698204883883164 22.36999999999999L54.695204883883164 26.096000000000004C55.073204883883164 26.52799999999999 55.100204883883166 26.825000000000017 55.100204883883166 27.176000000000016L55.100204883883166 27.50000000000003L55.12720488388317 27.527000000000015C55.12720488388317 27.527000000000015 56.099205883883165 27.50000000000003 56.774204883883165 27.50000000000003C57.53020388388317 27.50000000000003 58.96120488388316 27.527000000000015 58.96120488388316 27.527000000000015L59.042204883883166 27.50000000000003L59.042204883883166 26.93300000000002C59.042204883883166 26.852000000000032 58.93420488388317 26.79800000000003 58.853204883883166 26.771000000000015L58.71820488388317 26.744000000000028C58.178205883883166 26.636000000000024 57.530204883883165 26.474000000000018 57.20620488388317 26.096000000000032L53.12920488388317 21.18200000000003C52.99420488388317 21.020000000000024 52.88620488388317 20.885000000000034 52.88620488388317 20.723000000000027C52.88620488388317 20.507000000000033 53.04820588388316 20.210000000000022 53.50720488388317 19.724000000000032L55.82920488388317 17.05100000000003C56.80120388388317 15.944000000000031 57.53020588388317 15.890000000000029 58.58320488388317 15.809000000000026C58.71820488388317 15.809000000000026 58.79920488388317 15.755000000000024 58.79920488388317 15.67400000000002L58.79920488388317 15.053000000000026L58.71820488388317 15.026000000000025C58.71820488388317 15.026000000000025 57.53020388388317 15.080000000000027 56.82820488388317 15.080000000000027C56.04520588388317 15.080000000000027 53.85820488388317 15.026000000000025 53.85820488388317 15.026000000000025L53.83120488388317 15.053000000000026L53.83120488388317 15.67400000000002C53.83120488388317 15.755000000000024 53.88520488388317 15.782000000000025 53.993204883883166 15.809000000000026C54.533204883883165 15.890000000000029 54.77620488388317 16.133000000000024 54.77620488388317 16.349000000000032C54.77620488388317 16.862000000000037 53.93920388388317 17.861000000000033 52.859204883883166 19.049000000000035C51.67120588388317 20.31800000000004 51.15820388388317 20.77700000000003 50.26720488388317 20.77700000000003L50.26720488388317 16.70000000000003C50.26720488388317 16.160000000000025 50.56420588388317 16.025000000000034 51.40120488388317 15.863000000000028L51.698204883883164 15.809000000000026C51.80620488388316 15.782000000000025 51.86020488388316 15.755000000000024 51.86020488388316 15.67400000000002L51.86020488388316 15.080000000000027L51.83320488388316 15.026000000000025C51.83320488388316 15.026000000000025 50.132203883883165 15.080000000000027 49.37620488388316 15.080000000000027C48.53920588388316 15.080000000000027 46.32520488388316 15.026000000000025 46.32520488388316 15.026000000000025L46.29820488388316 15.080000000000027L46.29820488388316 15.701000000000022C46.29820488388316 15.782000000000025 46.37920488388316 15.809000000000026 46.48720488388316 15.809000000000026L47.02720488388316 15.863000000000028C47.89120388388316 15.944000000000031 48.18820488388316 16.106000000000023 48.18820488388316 16.70000000000003L48.18820488388316 25.69100000000003C48.18820488388316 26.204000000000036 47.83720388388316 26.636000000000024 47.02720488388316 26.71700000000004L46.48720488388316 26.771000000000043C46.37920488388316 26.771000000000043 46.29820488388316 26.825000000000045 46.29820488388316 26.93300000000005L46.29820488388316 27.500000000000057L46.35220488388316 27.55400000000006C46.35220488388316 27.55400000000006 48.566205883883164 27.500000000000057 49.32220488388316 27.500000000000057C50.13220388388316 27.500000000000057 51.83320488388316 27.55400000000006 51.83320488388316 27.55400000000006L51.86020488388316 27.500000000000057L51.86020488388316 26.93300000000005C51.86020488388316 26.825000000000045 51.77920488388316 26.79800000000006 51.698204883883164 26.771000000000043L51.40120488388317 26.71700000000004C50.61820588388317 26.58200000000005 50.26720488388317 26.285000000000053 50.26720488388317 25.69100000000003L50.26720488388317 21.695000000000036 " id="path31882"></path><path d="M65.15001788388317 16.700000000000003C65.15001788388317 16.159999999999997 65.44701788388316 15.944000000000003 66.28401788388317 15.863L66.85101788388316 15.808999999999997C66.95901788388316 15.808999999999997 67.01301788388317 15.754999999999995 67.01301788388317 15.673999999999992L67.01301788388317 15.079999999999998L66.98601788388316 15.025999999999996C66.98601788388316 15.025999999999996 64.90701688388316 15.079999999999998 64.17801788388317 15.079999999999998C63.34101788388317 15.079999999999998 61.20801788388317 15.025999999999996 61.20801788388317 15.025999999999996L61.18101788388317 15.079999999999998L61.18101788388317 15.700999999999993C61.18101788388317 15.781999999999996 61.262017883883175 15.808999999999997 61.37001788388317 15.808999999999997L61.91001788388317 15.863C62.74701688388317 15.944000000000003 63.07101788388317 16.105999999999995 63.07101788388317 16.700000000000003L63.07101788388317 25.691000000000003C63.07101788388317 26.204000000000008 62.80101688388317 26.635999999999996 61.91001788388317 26.717000000000013L61.37001788388317 26.771000000000015C61.262017883883175 26.771000000000015 61.18101788388317 26.825000000000017 61.18101788388317 26.93300000000002L61.18101788388317 27.50000000000003L61.235017883883174 27.55400000000003C61.235017883883174 27.55400000000003 63.34101788388317 27.50000000000003 64.09701788388317 27.50000000000003C64.93401688388317 27.50000000000003 66.98601788388316 27.55400000000003 66.98601788388316 27.55400000000003L67.01301788388317 27.50000000000003L67.01301788388317 26.93300000000002C67.01301788388317 26.825000000000017 66.93201788388316 26.771000000000015 66.85101788388316 26.771000000000015L66.28401788388317 26.717000000000013C65.42001888388316 26.636000000000024 65.15001788388317 26.285000000000025 65.15001788388317 25.691000000000003L65.15001788388317 16.700000000000003 " id="path31884"></path><path d="M89.40679888388317 27.5C90.21679788388317 27.5 91.80979888388318 27.554000000000002 91.80979888388318 27.554000000000002L91.86379888388318 27.5L92.40379888388318 24.39500000000001L91.72879888388319 24.31400000000002C91.40479888388319 25.718000000000018 90.64879788388319 26.582000000000022 89.27179888388319 26.582000000000022L86.7067988838832 26.582000000000022C86.22079888388319 26.582000000000022 85.9237988838832 26.069000000000017 85.9237988838832 25.55600000000001L85.9237988838832 21.42500000000001L87.9487988838832 21.42500000000001C88.6507978838832 21.42500000000001 88.89379888388319 21.72200000000001 89.0017988838832 22.262000000000015L89.1367988838832 22.85600000000001C89.1367988838832 22.937000000000012 89.1907988838832 22.991000000000014 89.3257988838832 22.991000000000014L89.7847988838832 22.991000000000014L89.8387988838832 22.937000000000012C89.7847988838832 22.316000000000017 89.6767988838832 21.74900000000001 89.6767988838832 21.074000000000012C89.6767988838832 20.426000000000016 89.7847988838832 19.670000000000016 89.8387988838832 19.076000000000008C89.8387988838832 19.022000000000006 89.8387988838832 18.995000000000005 89.7847988838832 18.995000000000005L89.3257988838832 18.995000000000005C89.21779888388319 18.995000000000005 89.16379888388319 19.049000000000007 89.16379888388319 19.13000000000001L89.00179888388318 19.697000000000003C88.89379888388318 20.23700000000001 88.70479788388319 20.561000000000007 87.94879888388319 20.561000000000007L85.92379888388318 20.561000000000007L85.92379888388318 16.646C85.92379888388318 16.186999999999998 86.19379888388318 15.998000000000005 86.70679888388318 15.998000000000005L88.86679888388318 15.998000000000005C90.59479688388318 15.998000000000005 91.10779888388318 17.429000000000002 91.40479888388317 18.42800000000001L92.07979888388317 18.320000000000007C91.89079888388318 17.29400000000001 91.70179888388317 16.241000000000014 91.67479888388317 15.080000000000013L91.62079888388317 15.02600000000001C91.62079888388317 15.02600000000001 89.70379788388317 15.080000000000013 88.89379888388316 15.080000000000013L84.92479888388317 15.080000000000013C84.11479988388317 15.080000000000013 82.00879888388317 15.02600000000001 82.00879888388317 15.02600000000001L81.98179888388317 15.080000000000013L81.98179888388317 15.701000000000008C81.98179888388317 15.728000000000009 81.98179888388317 15.78200000000001 82.14379888388318 15.809000000000012L82.76479888388317 15.863000000000014C83.52079788388318 15.917000000000016 83.84479888388317 16.02500000000002 83.84479888388317 16.646000000000015L83.84479888388317 25.55600000000001C83.84479888388317 26.096000000000004 83.60179788388317 26.636000000000024 82.76479888388317 26.717000000000013L82.14379888388318 26.771000000000015C82.00879888388317 26.771000000000015 81.98179888388317 26.852000000000004 81.98179888388317 26.906000000000006L81.98179888388317 27.5L82.00879888388317 27.554000000000002C82.00879888388317 27.554000000000002 83.87179988388317 27.5 84.68179888388318 27.5L89.40679888388317 27.5 " id="path31888"></path><path d="M73.38703288388317 16.754000000000005C73.38703288388317 16.052000000000007 73.71103488388316 15.809000000000012 75.00703288388317 15.809000000000012C76.49203188388317 15.809000000000012 77.54503288388317 16.322000000000017 77.54503288388317 18.644000000000005C77.54503288388317 20.723 76.76203188388317 21.695000000000007 75.14203288388316 21.695000000000007C74.60203388388317 21.695000000000007 73.92703288388316 21.668000000000006 73.38703288388317 21.452000000000012L73.38703288388317 16.75400000000002M71.30803288388317 25.826000000000022C71.30803288388317 26.339000000000027 71.03803188388318 26.582000000000022 70.20103288388317 26.690000000000026L69.63403288388318 26.771000000000015C69.52603288388318 26.798000000000002 69.47203288388317 26.825000000000017 69.47203288388317 26.93300000000002L69.47203288388317 27.50000000000003L69.49903288388317 27.55400000000003C69.49903288388317 27.55400000000003 71.52403388388318 27.50000000000003 72.28003288388318 27.50000000000003C73.11703188388319 27.50000000000003 75.27703288388318 27.55400000000003 75.27703288388318 27.55400000000003L75.30403288388318 27.50000000000003L75.30403288388318 26.93300000000002C75.30403288388318 26.825000000000017 75.22303288388318 26.79800000000003 75.11503288388319 26.771000000000015L74.57503288388318 26.690000000000026C73.71103388388318 26.555000000000035 73.38703288388318 26.420000000000016 73.38703288388318 25.826000000000022L73.38703288388318 22.208000000000027C73.87303288388318 22.42400000000002 74.41303388388317 22.478000000000023 75.08803288388317 22.478000000000023C78.92202888388317 22.478000000000023 79.70503288388318 19.940000000000026 79.70503288388318 18.32000000000002C79.70503288388318 16.916000000000025 79.00302888388318 15.026000000000025 75.16903288388318 15.026000000000025C74.17003388388318 15.026000000000025 73.09003288388318 15.080000000000027 72.33403288388318 15.080000000000027C71.55103388388318 15.080000000000027 69.95803288388318 15.026000000000025 69.55303288388318 15.026000000000025L69.49903288388317 15.053000000000026L69.49903288388317 15.67400000000002C69.49903288388317 15.728000000000023 69.52603288388318 15.809000000000026 69.68803288388317 15.809000000000026C70.95703188388316 15.890000000000029 71.30803288388317 15.91700000000003 71.30803288388317 16.75400000000002L71.30803288388317 25.826000000000022 " id="path31886"></path><path d="M94.96617388388317 26.932999999999993L94.96617388388317 27.5L94.99317388388317 27.554000000000002C94.99317388388317 27.554000000000002 97.04517488388318 27.5 97.85517388388317 27.5C98.69217288388317 27.5 99.63717388388316 27.554000000000002 101.79717388388318 27.554000000000002C104.79416388388317 27.554000000000002 108.14217388388317 26.150000000000006 108.14217388388317 21.424999999999997C108.14217388388317 17.834000000000003 105.92816388388317 15.025999999999996 101.41917388388318 15.025999999999996C100.71717388388318 15.025999999999996 98.36817288388318 15.079999999999998 97.85517388388317 15.079999999999998C97.36917388388316 15.079999999999998 94.99317388388317 15.025999999999996 94.99317388388317 15.025999999999996L94.96617388388317 15.079999999999998L94.96617388388317 15.673999999999992C94.96617388388317 15.754999999999995 95.04717388388318 15.808999999999997 95.15517388388317 15.808999999999997L95.74917388388316 15.863C96.64017288388315 15.944000000000003 96.82917388388316 15.944000000000003 96.82917388388316 16.646L96.82917388388316 25.55600000000001C96.82917388388316 26.393 96.55917288388316 26.636000000000024 95.74917388388316 26.717000000000013L95.12817388388316 26.771000000000015C95.02017388388316 26.771000000000015 94.96617388388316 26.852000000000004 94.96617388388316 26.93300000000002M98.90817388388317 25.55600000000001L98.90817388388317 16.646000000000015C98.90817388388317 15.971000000000018 99.58317388388316 15.809000000000012 100.63617388388316 15.809000000000012C105.17216388388316 15.809000000000012 105.79317388388316 19.076000000000008 105.79317388388316 21.884000000000015C105.79317388388316 25.664000000000016 104.11916388388316 26.771000000000015 101.14917388388315 26.771000000000015C99.09717588388315 26.771000000000015 98.90817388388315 26.312000000000012 98.90817388388315 25.55600000000001 " id="path31890"></path><path d="M114.74518388388317 25.55600000000001C114.74518388388317 26.312000000000012 114.36718388388317 26.771000000000015 113.26018388388317 26.771000000000015L112.55818388388317 26.771000000000015C112.42318388388317 26.771000000000015 112.34218388388318 26.852000000000004 112.34218388388318 26.987000000000023L112.34218388388318 27.50000000000003L112.39618388388318 27.55400000000003C112.39618388388318 27.55400000000003 114.90718388388318 27.50000000000003 115.87918388388319 27.50000000000003C116.93218388388318 27.50000000000003 119.28118388388319 27.55400000000003 119.28118388388319 27.55400000000003L119.33518388388319 27.50000000000003L119.33518388388319 26.987000000000023C119.33518388388319 26.852000000000032 119.22718388388319 26.771000000000015 119.1191838838832 26.771000000000015L118.3901838838832 26.771000000000015C117.3371838838832 26.771000000000015 116.9051838838832 26.39300000000003 116.9051838838832 25.55600000000001L116.9051838838832 20.26400000000001C116.9051838838832 19.778000000000006 116.9591838838832 19.427000000000007 117.09418388388319 19.13000000000001L120.90118388388319 12.245000000000005C121.3601838838832 11.435000000000002 121.63018388388319 10.948999999999998 122.5751838838832 10.86800000000001L123.14218388388319 10.814000000000007C123.3041838838832 10.787000000000006 123.41218388388319 10.760000000000005 123.41218388388319 10.625000000000014L123.41218388388319 10.085000000000008L123.35818388388319 10.031000000000006C123.35818388388319 10.031000000000006 121.25218388388319 10.085000000000008 121.00918388388318 10.085000000000008C120.65818388388318 10.085000000000008 118.55218388388319 10.031000000000006 118.55218388388319 10.031000000000006L118.49818388388319 10.085000000000008L118.49818388388319 10.625000000000014C118.49818388388319 10.706000000000017 118.52518388388319 10.814000000000007 118.63318388388319 10.814000000000007L119.4431838838832 10.86800000000001C120.03718388388319 10.89500000000001 120.2801838838832 11.111000000000004 119.8211838838832 11.948000000000008L116.36518388388319 18.455000000000013L116.31118388388319 18.455000000000013L112.61218388388319 11.948000000000008C112.20718388388319 11.24600000000001 112.0181838838832 10.86800000000001 112.96318388388319 10.841000000000008L113.74618388388319 10.814000000000007C113.8541838838832 10.814000000000007 113.9081838838832 10.706000000000003 113.9081838838832 10.598000000000013L113.9081838838832 10.085000000000008L113.8541838838832 10.031000000000006C113.8541838838832 10.031000000000006 110.9381838838832 10.085000000000008 110.77618388388319 10.085000000000008C110.4251838838832 10.085000000000008 107.9411838838832 10.031000000000006 107.9411838838832 10.031000000000006L107.8871838838832 10.085000000000008L107.8871838838832 10.625000000000014C107.8871838838832 10.78700000000002 108.07618388388319 10.814000000000007 108.15718388388319 10.814000000000007L108.48118388388319 10.841000000000008C109.45318388388318 10.922000000000011 109.7231838838832 11.300000000000011 110.58718388388318 12.731000000000009L114.50218388388319 19.346000000000004C114.6641838838832 19.589 114.74518388388319 20.210000000000008 114.74518388388319 20.507000000000005L114.74518388388319 25.55600000000001 " id="path31892"></path></g>
</svg>