<?xml version="1.0" encoding="UTF-8" standalone="no"?>
<svg
	xmlns="http://www.w3.org/2000/svg"
	xmlns:dc="http://purl.org/dc/elements/1.1/"
	xmlns:cc="http://creativecommons.org/ns#"
	xmlns:rdf="http://www.w3.org/1999/02/22-rdf-syntax-ns#"
	xmlns:svg="http://www.w3.org/2000/svg"
	xmlns:xlink="http://www.w3.org/1999/xlink"
	xmlns:sodipodi="http://sodipodi.sourceforge.net/DTD/sodipodi-0.dtd"
	xmlns:inkscape="http://www.inkscape.org/namespaces/inkscape"
	version="1.1"
	viewBox="0 0 95.28435169253027 48.82489370559722">
	<path transform="translate(-1.953125e-2,-5.5287933e-2)" d="M81.06934007408275 25.490750000000006C81.64713007408274 23.87942000000001 82.33072007408273 23.081900000000005 83.12012007408273 23.09817000000001C83.59212007408274 23.09817000000001 84.03564007408274 23.4298 84.45068007408274 24.093040000000002C84.86572007408274 24.756290000000007 85.13020007408274 25.50296 85.24414007408274 26.333030000000008C85.35806007408274 27.163110000000003 85.22994007408273 28.314639999999997 84.85962007408274 29.787620000000004C84.48933007408274 31.26060000000001 83.75691007408274 32.61965000000001 82.66235007408274 33.86476999999999C81.56779007408274 35.109880000000004 80.68888007408275 35.77109999999999 80.02563507408274 35.84841C79.36238407408274 35.92571000000001 78.48551307408275 35.872810000000015 77.39502007408274 35.689719999999994C76.30452607408274 35.506609999999995 75.50700007408274 35.309259999999995 75.00244207408274 35.09768C74.82340707408274 35.02438000000001 74.74609607408274 34.92678000000001 74.77050807408274 34.80471C74.79492807408273 34.68263999999999 74.90071807408275 34.63381000000001 75.08789107408273 34.65823C76.39811307408274 34.82097999999999 77.63509107408274 34.76809 78.79882907408275 34.49952999999999C79.50683407408275 34.33677 80.52612007408274 33.671490000000006 81.85669007408274 32.503690000000006C83.18725007408274 31.335880000000003 83.97867007408274 30.357280000000003 84.23096007408274 29.567890000000006C84.14956007408274 28.88430000000001 84.04784007408274 28.505880000000005 83.92578007408274 28.432640000000006C83.29915007408275 29.401070000000004 82.49552007408273 29.637069999999994 81.51489007408274 29.140649999999994C80.53426007408274 28.644230000000007 80.38574007408273 27.427599999999998 81.06934007408275 25.490750000000006L81.06934007408275 25.490750000000006ZM83.32764007408274 26.43069C82.84749007408274 25.64944 82.33072007408273 25.61282 81.77734007408274 26.320819999999998C82.20052007408275 26.79283000000001 82.71728007408274 26.82945000000001 83.32764007408274 26.43069ZM70.47363307408274 25.063500000000005L71.18164107408273 23.51321C71.32812307408274 23.19583 71.48274507408274 23.191760000000002 71.64550807408274 23.501010000000008C72.30468507408274 24.713580000000007 72.42675507408273 26.178420000000003 72.01171907408273 27.895539999999997C71.61295307408274 29.53128000000001 70.60384007408274 30.34915000000001 68.98437507408273 30.34915000000001C68.80533907408274 30.34915000000001 68.63037207408274 29.92598000000001 68.45947307408274 29.079620000000006C68.32926507408274 28.404170000000008 68.50423307408273 28.074579999999997 68.98437507408273 28.090850000000003C69.96907507408274 28.131550000000004 70.70963407408274 27.86706000000001 71.20605507408274 27.29740000000001C71.23046507408274 27.264800000000008 71.23453507408274 27.20790000000001 71.21826507408274 27.126500000000007C71.12060507408275 26.64636 70.89681107408273 26.162149999999997 70.54687807408274 25.673860000000005C70.40039307408274 25.470420000000004 70.37597907408274 25.26697 70.47363807408274 25.063510000000008L70.47363307408274 25.063500000000005ZM72.70752007408274 33.15675999999999C72.74821007408273 33.09165999999999 72.81737907408274 33.07536000000002 72.91503907408274 33.10795999999999C73.57421507408274 33.33582000000001 74.16422007408273 33.68169 74.68505907408274 34.14556000000002C74.75829907408274 34.21065999999999 74.77049907408274 34.28390000000002 74.72167907408274 34.365290000000016L73.52539007408274 36.25738000000001C73.47656007408274 36.33058 73.39517707408274 36.31837999999999 73.28124907408274 36.22077999999999C73.17545107408274 36.131280000000004 72.70344607408273 35.83421000000001 71.86523407408274 35.32965999999999L70.92529207408273 36.81891999999999C70.87646207408274 36.892120000000006 70.79304807408273 36.87992 70.67504807408274 36.78232C70.55704507408274 36.684619999999995 69.97314307408274 36.31845000000001 68.92333907408273 35.68369000000001C68.85823907408275 35.64299 68.84602907408274 35.59419 68.88671907408273 35.53720000000001L70.10742207408273 33.718350000000015C70.14811207408275 33.653250000000014 70.21728407408274 33.63695000000001 70.31494207408274 33.669550000000015C70.86018707408275 33.856719999999996 71.36067507408274 34.12934000000001 71.81640707408275 34.487420000000014L72.70752007408274 33.15675999999999ZM54.10400407408274 28.078640000000007C54.144694074082736 28.078640000000007 54.323731074082744 28.09894 54.641114074082736 28.13964C54.958496074082746 28.18034 55.48543207408274 28.200640000000007 56.221924074082736 28.200640000000007C56.958412074082744 28.200640000000007 57.757972074082744 28.035840000000007 58.620606074082744 27.706249999999997C59.48323107408274 27.376670000000004 60.195307074082734 26.886350000000007 60.75683607408274 26.23530000000001C60.36620507408274 24.729780000000005 58.64501607408275 23.260869999999997 55.593262074082745 21.82857C55.25146407408273 21.600710000000007 55.03987607408274 21.051389999999998 54.958496074082746 20.180620000000005C54.88525607408275 19.20407 54.97070607408274 18.54489000000001 55.214844074082734 18.20308C57.143552074082734 15.460580000000007 61.350905074082746 12.75469000000001 67.83691407408274 10.085400000000007C67.97524707408274 10.028500000000008 68.08917907408274 10 68.17871107408274 10C68.33332007408274 10.000020000000006 68.40656207408274 10.08550000000001 68.39843807408273 10.256349999999998C68.39842407408274 10.32965 68.39023807408275 10.402860000000004 68.37402807408274 10.47608000000001L68.00781707408274 12.06299C67.95897707408274 12.26646000000001 67.82876707408273 12.421080000000003 67.61719207408274 12.52686C61.822913074082734 15.37518 57.92887407408274 17.759619999999998 55.935063074082734 19.680180000000007C59.33675107408274 21.405450000000002 62.246090074082744 23.366709999999998 64.66309007408275 25.563969999999998C66.40461507408274 27.150890000000004 67.82876707408273 27.997240000000005 68.93555107408274 28.103030000000004C69.33429907408274 28.143730000000005 69.53368007408274 28.396 69.53369607408274 28.85987C69.53368007408274 29.128420000000006 69.47467607408274 29.447840000000014 69.35669407408274 29.818119999999993C69.23867807408274 30.1884 69.09829707408274 30.369470000000007 68.93555107408274 30.36133000000001C67.78807707408274 30.36133000000001 66.04654207408274 29.205730000000017 63.71094207408274 26.894530000000003C62.937821074082734 26.129559999999998 62.14029607408274 25.441900000000004 61.31836407408274 24.831550000000007C61.36718407408274 25.49887000000001 61.35091407408274 26.121430000000004 61.26953407408274 26.699219999999997C60.895178074082736 29.238290000000006 58.946124074082746 30.50782000000001 55.422366074082746 30.50782000000001C54.844566074082735 30.50782000000001 54.388837074082744 30.469120000000004 54.05517807408275 30.391850000000005C53.72152007408275 30.314549999999997 53.55469107408274 29.803879999999992 53.55469007408274 28.85987C53.55469107408274 28.339039999999997 53.73779607408274 28.07862 54.10400607408275 28.07862L54.10400407408274 28.078640000000007ZM49.59961007408273 30.349140000000006C49.453126074082746 30.341139999999996 49.347331074082746 30.21486999999999 49.28222707408274 29.970730000000003L48.964844074082734 28.88430000000001C48.82649907408273 28.330920000000006 49.03808407408275 28.066429999999997 49.59961007408273 28.09084C50.37272107408273 28.13154 51.14583207408273 28.151840000000007 51.91894607408274 28.151840000000007C52.692055074082745 28.151840000000007 53.465166074082745 28.13154 54.23828207408275 28.09084C54.79980007408274 28.06644 55.011388074082745 28.330920000000006 54.873047074082734 28.88430000000001L54.55566407408274 29.970730000000003C54.49055407408274 30.21486999999999 54.384761074082746 30.34101000000001 54.23828207408275 30.349140000000006C53.465166074082745 30.397940000000006 52.692055074082745 30.422439999999995 51.91894607408274 30.422439999999995C51.14583207408273 30.422439999999995 50.37272107408273 30.39804000000001 49.59961007408273 30.349140000000006ZM49.59961007408273 28.09084C49.876296074082745 28.15594 50.030918074082734 28.25361000000001 50.06347707408274 28.383809999999997C50.09601707408274 28.514020000000002 50.09601707408274 28.70933000000001 50.06347707408274 28.969750000000005C49.941400074082736 29.889350000000007 49.78677807408275 30.349140000000006 49.59961007408273 30.349140000000006C48.70442207408274 30.357140000000015 47.80110307408275 29.852730000000008 46.88964907408274 28.83547C46.149086074082746 29.738789999999995 45.01790307408274 30.243349999999992 43.49609407408275 30.349140000000006C43.341472074082745 30.357140000000015 43.23567807408274 30.23114000000001 43.17871107408274 29.970730000000003L42.95898507408275 28.933130000000006C42.91829507408275 28.762230000000002 42.952885074082744 28.583200000000005 43.06274507408274 28.396020000000007C43.172608074082746 28.208849999999998 43.31705807408274 28.10712000000001 43.49609407408275 28.09084C45.35156107408274 27.9525 46.588539074082746 27.407250000000005 47.20703207408275 26.4551C47.29654207408274 26.316760000000002 47.41047807408275 26.247590000000002 47.54882907408275 26.24758C47.68717107408274 26.247590000000002 47.76244707408274 26.324880000000007 47.774659074082734 26.479520000000008C47.78685907408274 26.634140000000002 47.80516907408274 26.735870000000006 47.82958907408273 26.784689999999998C48.37483207408275 27.533389999999997 48.964838074082735 27.96878000000001 49.599609074082736 28.09084L49.59961007408273 28.09084ZM47.70752007408274 31.936059999999998C47.748210074082735 31.870959999999997 47.81737907408274 31.854659999999996 47.91503907408274 31.887259999999998C48.57421407408275 32.11511999999999 49.164220074082735 32.46099000000001 49.685059074082744 32.924859999999995C49.75829907408274 32.989959999999996 49.770499074082736 33.063199999999995 49.72167907408274 33.14457999999999L48.525390074082736 35.036670000000015C48.47656007408274 35.10987 48.39517707408274 35.097669999999994 48.28124907408274 35.000069999999994C48.17545007408275 34.91057000000001 47.703446074082734 34.61350999999999 46.865234074082736 34.108959999999996L45.92529207408273 35.59822C45.87646207408274 35.67142000000001 45.793047074082736 35.659220000000005 45.67504807408274 35.561620000000005C45.55704507408274 35.46392 44.973142074082745 35.097740000000016 43.92333907408275 34.462980000000016C43.858239074082746 34.42228 43.84602907408275 34.37348 43.88671907408275 34.31649999999999L45.107422074082734 32.49764999999999C45.148112074082746 32.43254999999999 45.21728407408274 32.41624999999999 45.31494207408274 32.44884999999999C45.860187074082745 32.636030000000005 46.360675074082735 32.908649999999994 46.81640707408275 33.26671999999999L47.70752007408274 31.936059999999998ZM39.60205107408274 22.65871C39.577631074082745 22.512240000000006 39.65494107408274 22.264030000000005 39.83398507408275 21.91409C40.01301907408275 21.56416 40.143227074082745 21.340360000000004 40.22461007408275 21.2427C40.387367074082746 21.063670000000002 40.50536807408274 21.14500000000001 40.57861407408275 21.48684C40.65185407408275 21.828640000000007 40.78206107408275 22.439000000000007 40.96923907408275 23.317890000000006C41.38427407408274 25.271020000000007 41.70572507408275 26.491730000000004 41.93359407408275 26.980000000000004C42.25097207408274 27.647320000000008 42.77180507408275 28.0176 43.49609407408275 28.09084C43.69140007408275 28.10714 43.83788507408275 28.208849999999998 43.93554707408275 28.396020000000007C44.03319707408275 28.583200000000005 44.04947307408274 28.831400000000002 43.984377074082744 29.140649999999994C43.837887074082744 29.95445000000001 43.67512607408274 30.357280000000003 43.49609607408274 30.349140000000006C42.08007607408274 30.316540000000003 41.09130707408275 29.254580000000004 40.529788074082745 27.163110000000003C40.49722807408274 27.08171 40.46874807408274 27.07771000000001 40.44433807408274 27.15091000000001C39.71191407408274 29.152870000000007 38.69466307408274 30.218950000000007 37.39258107408274 30.34915000000001C37.23795807408274 30.36545000000001 37.12809507408275 30.265749999999997 37.062991074082746 30.05008000000001C36.997891074082744 29.834419999999994 36.92464507408275 29.45804000000001 36.84326407408274 28.92093C36.761884074082744 28.38382 36.94499007408274 28.107129999999998 37.39258107408274 28.090850000000003C38.78418107408274 28.03385 39.75667307408274 27.525260000000003 40.31006107408274 26.564970000000002C40.34261107408274 26.50797 40.29582107408274 26.229290000000006 40.16968007408275 25.728790000000004C40.04353807408275 25.228310000000008 39.85432907408274 24.20495000000001 39.60205307408275 22.658720000000002L39.60205107408274 22.65871ZM41.76269607408274 38.75979000000001C41.72200607408274 38.82489000000001 41.65282807408275 38.84119000000001 41.55517607408274 38.80859000000001C40.89599307408274 38.58071000000001 40.30598707408275 38.234849999999994 39.78515707408275 37.77099000000001C39.711907074082745 37.70589000000001 39.69970707408274 37.63264000000001 39.74853707408275 37.55126000000001L40.94482607408274 35.65917000000002C40.99364607408275 35.58597 41.07706507408274 35.59817000000001 41.19507007408275 35.69577000000001C41.31306707408274 35.79347000000001 41.896970074082745 36.159639999999996 42.94677907408274 36.79441C43.01187907408274 36.835110000000014 43.02408907408274 36.883910000000014 42.98339907408274 36.940889999999996L41.76269607408274 38.75979000000001ZM40.04150407408274 36.15969000000001C40.00081407408274 36.22479000000001 39.93163807408274 36.241090000000014 39.83398507408275 36.20849000000001C39.174803074082746 35.980620000000016 38.58479707408274 35.63475 38.063965074082745 35.170890000000014C37.99072507408275 35.10579000000001 37.97851507408275 35.03254000000001 38.027345074082746 34.951160000000016L39.22363407408274 33.059079999999994C39.27246407408275 32.985780000000005 39.35384107408274 32.998080000000016 39.46777507408274 33.095680000000016C39.56542507408274 33.17708000000002 39.97639907408275 33.43746999999999 40.70068507408274 33.876930000000016L41.57959107408274 32.48532C41.62841107408275 32.412120000000016 41.71183007408274 32.424319999999994 41.82983507408274 32.521919999999994C41.94783207408274 32.61962 42.53173507408275 32.985780000000005 43.58154407408274 33.62055000000001C43.646644074082744 33.661249999999995 43.65885407408274 33.710049999999995 43.61816407408274 33.767030000000005L42.39746107408274 35.58588C42.356771074082744 35.650980000000004 42.28759307408275 35.667280000000005 42.18994207408274 35.63468C41.70979407408274 35.47191000000001 41.26627307408275 35.244050000000016 40.85937507408275 34.95107999999999L40.04150407408274 36.15969000000001ZM37.39257907408275 28.09084C37.669265074082745 28.15594 37.82388707408275 28.25361000000001 37.85644607408274 28.383809999999997C37.88898607408274 28.514020000000002 37.88898607408274 28.70933000000001 37.85644607408274 28.969750000000005C37.73436907408275 29.889350000000007 37.579747074082746 30.349140000000006 37.39257907408275 30.349140000000006C36.49739107408274 30.357140000000015 35.594072074082746 29.852730000000008 34.68261807408274 28.83547C33.942055074082745 29.738789999999995 32.81087107408274 30.243349999999992 31.289063074082744 30.349140000000006C31.13444107408274 30.357140000000015 31.02864607408274 30.23114000000001 30.971680074082744 29.970730000000003L30.751954074082743 28.933130000000006C30.711264074082745 28.762230000000002 30.745854074082747 28.583200000000005 30.855713074082747 28.396020000000007C30.96557707408274 28.208849999999998 31.11002707408274 28.10712000000001 31.289063074082744 28.09084C33.14453007408274 27.9525 34.381508074082745 27.407250000000005 35.00000007408275 26.4551C35.08951007408274 26.316760000000002 35.203447074082746 26.247590000000002 35.34179707408275 26.24758C35.48013907408274 26.247590000000002 35.55541607408274 26.324880000000007 35.56762707408275 26.479520000000008C35.57982707408274 26.634140000000002 35.59813707408274 26.735870000000006 35.62255707408275 26.784689999999998C36.16779907408274 27.533389999999997 36.75780507408274 27.96878000000001 37.39257707408274 28.09084L37.39257907408275 28.09084ZM35.50048907408275 31.936059999999998C35.54117907408275 31.870959999999997 35.61034807408274 31.854659999999996 35.70800807408274 31.887259999999998C36.367183074082746 32.11511999999999 36.95718907408275 32.46099000000001 37.478028074082744 32.924859999999995C37.55126807408274 32.989959999999996 37.56346807408275 33.063199999999995 37.51464807408274 33.14457999999999L36.31835907408275 35.036670000000015C36.26952907408274 35.10987 36.18814607408274 35.097669999999994 36.07421807408274 35.000069999999994C35.968419074082746 34.91057000000001 35.49641407408275 34.61350999999999 34.65820307408275 34.108959999999996L33.71826107408275 35.59822C33.66943107408274 35.67142000000001 33.58601607408275 35.659220000000005 33.46801707408274 35.561620000000005C33.35001407408275 35.46392 32.766111074082744 35.097740000000016 31.716308074082743 34.462980000000016C31.651208074082742 34.42228 31.638998074082746 34.37348 31.679688074082744 34.31649999999999L32.90039107408275 32.49764999999999C32.941081074082746 32.43254999999999 33.01025307408274 32.41624999999999 33.10791107408275 32.44884999999999C33.653156074082744 32.636030000000005 34.15364307408274 32.908649999999994 34.60937507408275 33.26671999999999L35.50048907408275 31.936059999999998ZM31.30127007408274 28.09084C31.553537074082744 28.15594 31.720366074082744 28.377710000000008 31.801758074082745 28.75613C31.883128074082745 29.13454999999999 31.872958074082742 29.49669 31.771238074082742 29.842550000000017C31.669500074082745 30.188420000000008 31.512843074082742 30.357280000000003 31.30126707408274 30.349140000000006C30.20262307408274 30.284040000000005 29.457995074082742 29.37258 29.067380074082745 27.614770000000007C28.94530007408274 27.061390000000003 28.880196074082743 26.780630000000002 28.872068074082744 26.77248C28.823228074082746 26.64228 28.774398074082743 26.650419999999997 28.725583074082746 26.79688C28.204741074082744 28.204760000000007 27.537424074082747 29.075530000000015 26.723630074082745 29.409179999999992C25.690095074082745 29.824219999999997 24.286288074082744 29.97478000000001 22.512204074082742 29.860839999999996C21.12873907408274 29.77134000000001 20.774736074082742 28.672690000000003 21.450193074082744 26.564940000000007C21.523433074082742 26.33708 21.645503074082743 26.206879999999998 21.816404074082744 26.17432000000001C21.987300074082743 26.141720000000007 22.105301074082742 26.251620000000003 22.17040807408274 26.503910000000005C22.308751074082746 26.98406 22.536615074082743 27.26075 22.854001074082742 27.33399C24.449048074082743 27.675790000000006 25.90168407408274 27.58627 27.211911074082746 27.065430000000006C27.86294507408274 26.80502 28.29019007408274 26.345219999999998 28.49365007408274 25.686040000000006C28.526190074082745 25.57211000000001 28.414300074082742 24.67286 28.157956074082744 22.988280000000003C27.90160007408274 21.30372 27.753082074082744 20.276300000000006 27.71240007408274 19.90601000000001C27.671700074082747 19.535740000000004 27.696120074082746 19.25294000000001 27.785640074082746 19.05762C28.062324074082742 18.479830000000007 28.253567074082742 18.056660000000008 28.359370074082744 17.788089999999997C28.408190074082743 17.666030000000006 28.49567307408274 17.613129999999998 28.621822074082747 17.629400000000004C28.747952074082743 17.645700000000005 28.819159074082744 17.727100000000007 28.835445074082745 17.873540000000006C29.242336074082747 21.3729 29.68585807408274 24.160170000000008 30.166011074082743 26.235349999999997C30.418279074082744 27.342129999999997 30.796696074082742 27.960620000000006 31.301265074082746 28.090820000000008L31.30127007408274 28.09084ZM16.225586074082745 25.063500000000005L16.933594074082745 23.51321C17.080076074082744 23.19583 17.234698074082747 23.191760000000002 17.397461074082745 23.501010000000008C18.056638074082745 24.713580000000007 18.178708074082746 26.178420000000003 17.763672074082745 27.895539999999997C17.36490707408274 29.53128000000001 16.355793074082744 30.34915000000001 14.736329074082743 30.34915000000001C14.557292074082742 30.34915000000001 14.382325074082747 29.92598000000001 14.211426074082741 29.079620000000006C14.081218074082745 28.404170000000008 14.256186074082745 28.074579999999997 14.736329074082743 28.090850000000003C15.721028074082742 28.131550000000004 16.461587074082747 27.86706000000001 16.958008074082745 27.29740000000001C16.98241807408274 27.264800000000008 16.986488074082747 27.20790000000001 16.97021807408274 27.126500000000007C16.872558074082743 26.64636 16.648764074082745 26.162149999999997 16.298832074082743 25.673860000000005C16.152346074082747 25.470420000000004 16.127932074082747 25.26697 16.225592074082744 25.063510000000008L16.225586074082745 25.063500000000005ZM18.45947307408274 33.15675999999999C18.500163074082746 33.09165999999999 18.56933207408274 33.07536000000002 18.666993074082743 33.10795999999999C19.32616807408274 33.33582000000001 19.916174074082743 33.68169 20.43701207408274 34.14556000000002C20.510252074082747 34.21065999999999 20.522452074082747 34.28390000000002 20.47363207408274 34.365290000000016L19.27734307408274 36.25738000000001C19.228513074082745 36.33058 19.147130074082742 36.31837999999999 19.033203074082746 36.22077999999999C18.92740407408274 36.131280000000004 18.455399074082745 35.83421000000001 17.617187074082747 35.32965999999999L16.677245074082744 36.81891999999999C16.628415074082742 36.892120000000006 16.545001074082744 36.87992 16.427001074082742 36.78232C16.30899807408274 36.684619999999995 15.725096074082746 36.31845000000001 14.675292074082744 35.68369000000001C14.610192074082743 35.64299 14.597982074082747 35.59419 14.638672074082745 35.53720000000001L15.859375074082745 33.718350000000015C15.900065074082743 33.653250000000014 15.969237074082745 33.63695000000001 16.06689507408274 33.669550000000015C16.612140074082742 33.856719999999996 17.112628074082746 34.12934000000001 17.568360074082744 34.487420000000014L18.45947307408274 33.15675999999999ZM10.891114074082743 12.343770000000006C11.070148074082745 12.050820000000002 11.196287074082743 12.176960000000008 11.269532074082743 12.722189999999998C11.578774074082745 15.301960000000008 11.778155074082743 17.511430000000004 11.867676074082745 19.350610000000003C12.038572074082744 22.825550000000007 12.152504074082742 24.921090000000007 12.209473074082744 25.637230000000002C12.331540074082742 27.18346000000001 13.165686074082746 28.00133000000001 14.711914074082745 28.09084C15.143223074082744 28.11524 15.310053074082742 28.42044 15.21240307408274 29.006370000000004C15.05777407408274 29.901550000000015 14.89094507408274 30.349140000000006 14.711914074082745 30.349140000000006C12.522783074082742 30.349140000000006 11.350909074082743 29.33596 11.196289074082742 27.30959C11.066079074082744 25.600610000000003 10.976561074082742 23.881460000000004 10.927735074082744 22.15212000000001C10.878905074082745 20.42280000000001 10.779214074082745 19.023070000000004 10.628662074082744 17.9529C10.478108074082744 16.882770000000008 10.276692074082742 15.660030000000006 10.024414074082742 14.284689999999998C9.975584074082743 14.01615000000001 10.000004074082742 13.8005 10.097654074082744 13.637720000000002L10.891114074082743 12.343770000000006Z " id="Wikipedia" style="font-size:25px;font-style:normal;font-variant:normal;font-weight:normal;font-stretch:normal;text-align:center;line-height:125.99999905%;letter-spacing:0px;word-spacing:0px;writing-mode:lr-tb;text-anchor:middle;fill:#000000;fill-opacity:1;font-family:Amiri;-inkscape-font-specification:Amiri"></path>
</svg>