<?xml version="1.0" encoding="UTF-8" standalone="no"?>
<svg
	xmlns="http://www.w3.org/2000/svg"
	xmlns:dc="http://purl.org/dc/elements/1.1/"
	xmlns:cc="http://creativecommons.org/ns#"
	xmlns:rdf="http://www.w3.org/1999/02/22-rdf-syntax-ns#"
	xmlns:svg="http://www.w3.org/2000/svg"
	xmlns:xlink="http://www.w3.org/1999/xlink"
	xmlns:sodipodi="http://sodipodi.sourceforge.net/DTD/sodipodi-0.dtd"
	xmlns:inkscape="http://www.inkscape.org/namespaces/inkscape"
	version="1.1"
	viewBox="0 0 148.7 37.43400554165592">
	<g id="Wikipedia"><path transform="translate(-4.859,0)" id="path3898" d="M25.607 13.610444444444113C25.607 13.610444444444113 25.24 12.864444444444118 25.115 12.616444444444113C24.281 10.964444444444112 24.299 10.876444444444118 23.456 10.76444444444411C23.22 10.733444444444117 23.098 10.703444444444116 23.098 10.586444444444112L23.098 10.063444444444116L23.168999999999997 10.012444444444114C24.691999999999997 10.010444444444119 28.081 10.010444444444119 28.081 10.010444444444119L28.211 10.05344444444411L28.211 10.574444444444111C28.211 10.693444444444111 28.125999999999998 10.754444444444118 27.953 10.754444444444118L27.596999999999998 10.805444444444106C26.697 10.875444444444113 26.843999999999998 11.243444444444108 27.441999999999997 12.434444444444111L33.119 24.049444444444106L33.313 24.102444444444103L38.352999999999994 12.141444444444119C38.528 11.659444444444105 38.501 11.317444444444106 38.275999999999996 11.116444444444113C38.05 10.921444444444106 37.891 10.804444444444115 37.307 10.780444444444115L36.834 10.757444444444118C36.775999999999996 10.757444444444118 36.721 10.736444444444118 36.668 10.696444444444111C36.616 10.659444444444105 36.589 10.610444444444113 36.589 10.551444444444115L36.589 10.05344444444411L36.661 10.002444444444109C38.081 10.002444444444109 42.355000000000004 10.002444444444109 42.355000000000004 10.002444444444109L42.413 10.05344444444411L42.413 10.551444444444115C42.413 10.686444444444106 42.336 10.754444444444118 42.184 10.754444444444118C41.438 10.787444444444105 40.88499999999999 10.949444444444111 40.527 11.238444444444113C40.16799999999999 11.52944444444411 39.88799999999999 11.929444444444115 39.687 12.451444444444107C39.687 12.451444444444107 35.052 23.059444444444125 33.465999999999994 26.586444444444112C32.858999999999995 27.742444444444118 32.262 27.636444444444123 31.737 26.553444444444125C30.627999999999997 24.269444444444105 27.505 17.340444444444117 27.505 17.340444444444117L25.607 13.610444444444113Z "></path><path transform="translate(-4.859,0)" id="path3900" d="M34.703 10.004444444444118C34.703 10.004444444444118 31.5 9.994444444444113 30.073999999999998 10.004444444444118L30.003 10.055444444444106L30.003 10.551444444444115C30.003 10.612444444444108 30.028999999999996 10.66044444444411 30.081000000000003 10.697444444444116C30.134 10.736444444444118 30.188000000000002 10.756444444444114 30.246000000000002 10.756444444444114L30.475 10.781444444444105C31.058 10.804444444444115 31.326 10.958444444444112 31.406 11.05344444444411C31.545 11.223444444444112 31.613999999999997 11.40744444444411 31.277 12.14244444444411L25.296999999999997 24.07044444444412L25.14 24.029444444444124C25.14 24.029444444444124 20.857 14.998444444444118 19.616999999999997 11.976444444444112C19.488 11.664444444444115 19.43 11.43144444444411 19.43 11.28844444444411C19.43 10.981444444444108 19.707 10.815444444444111 20.261 10.792444444444115L20.907 10.765444444444114C21.078 10.765444444444114 21.165 10.699444444444111 21.165 10.562444444444111L21.165 10.066444444444116L21.107 10.015444444444114C21.107 10.015444444444114 15.977 10.009444444444114 14.917 10.015444444444114L14.859 10.066444444444116L14.859 10.587444444444117C14.859 10.68144444444411 14.978 10.739444444444118 15.217 10.765444444444114C15.868 10.80044444444411 16.296 10.90444444444411 16.502 11.077444444444112C16.707 11.252444444444109 16.924 11.694444444444116 17.212 12.383444444444109C18.769 16.123444444444118 22.076999999999998 22.797444444444125 23.688000000000002 26.598444444444112C24.152 27.636444444444123 24.735 27.797444444444125 25.442999999999998 26.5664444444441C26.668999999999997 24.293444444444106 29.993000000000002 17.348444444444112 29.993000000000002 17.348444444444112L32.611 12.452444444444112C32.916 11.934444444444111 33.21 11.473444444444112 33.359 11.259444444444114C33.632 10.866444444444113 33.785 10.792444444444115 34.531 10.757444444444118C34.683 10.757444444444118 34.76 10.689444444444106 34.76 10.552444444444106L34.76 10.05644444444411L34.703 10.004444444444118Z "></path><path transform="translate(-5.869,-2.4414063e-6)" id="path3904" d="M44.442 25.487444444444122C44.442 26.059444444444125 44.702 26.39744444444412 45.534 26.475444444444122L46.08 26.52844444444412C46.158 26.52844444444412 46.236000000000004 26.579444444444107 46.236000000000004 26.68344444444412L46.236000000000004 27.229444444444113L46.21 27.28244444444411C46.21 27.28244444444411 44.234 27.229444444444113 43.428000000000004 27.229444444444113C42.7 27.229444444444113 40.672000000000004 27.28244444444411 40.672000000000004 27.28244444444411L40.620000000000005 27.229444444444113L40.620000000000005 26.68344444444412C40.620000000000005 26.579444444444107 40.698 26.52844444444412 40.802 26.52844444444412L41.322 26.475444444444122C42.18 26.39744444444412 42.440000000000005 25.981444444444122 42.440000000000005 25.487444444444122L42.440000000000005 16.829444444444107C42.440000000000005 16.259444444444114 42.127 16.100444444444108 41.322 16.024444444444114L40.802 15.970444444444112C40.698 15.970444444444112 40.620000000000005 15.946444444444111 40.620000000000005 15.866444444444113L40.620000000000005 15.26744444444411L40.646 15.215444444444117C40.646 15.215444444444117 42.7 15.26744444444411 43.506 15.26744444444411C44.208 15.26744444444411 46.21 15.215444444444117 46.21 15.215444444444117L46.236000000000004 15.26744444444411L46.236000000000004 15.839444444444112C46.236000000000004 15.917444444444115 46.184000000000005 15.969444444444107 46.08 15.969444444444107L45.534 16.02244444444412C44.728 16.099444444444117 44.442 16.308444444444106 44.442 16.829444444444107L44.442 25.487444444444122Z "></path><path transform="translate(-7.282,-2.4414063e-6)" id="path3906" d="M52.115 25.487444444444122C52.115 26.059444444444125 52.453 26.345444444444098 53.207 26.475444444444122L53.493 26.52844444444412C53.571 26.553444444444125 53.649 26.579444444444107 53.649 26.68344444444412L53.649 27.229444444444113L53.623000000000005 27.28244444444411C53.623000000000005 27.28244444444411 51.985 27.229444444444113 51.205 27.229444444444113C50.477000000000004 27.229444444444113 48.345 27.28244444444411 48.345 27.28244444444411L48.293 27.229444444444113L48.293 26.68344444444412C48.293 26.579444444444107 48.371 26.52844444444412 48.475 26.52844444444412L48.995000000000005 26.475444444444122C49.775 26.39744444444412 50.113 25.981444444444122 50.113 25.487444444444122L50.113 16.829444444444107C50.113 16.259444444444114 49.827 16.100444444444108 48.995000000000005 16.024444444444114L48.475 15.970444444444112C48.371 15.970444444444112 48.293 15.946444444444111 48.293 15.866444444444113L48.293 15.26744444444411L48.319 15.215444444444117C48.319 15.215444444444117 50.451 15.26744444444411 51.257 15.26744444444411C51.986000000000004 15.26744444444411 53.623000000000005 15.215444444444117 53.623000000000005 15.215444444444117L53.649 15.26744444444411L53.649 15.839444444444112C53.649 15.917444444444115 53.597 15.943444444444111 53.493 15.969444444444107L53.207 16.02244444444412C52.401 16.177444444444106 52.115 16.308444444444106 52.115 16.829444444444107L52.115 20.756444444444114C52.973 20.756444444444114 53.467 20.316444444444116 54.611000000000004 19.092444444444112C55.651 17.94644444444411 56.457 16.988444444444113 56.457 16.491444444444113C56.457 16.28244444444411 56.223 16.05044444444411 55.703 15.970444444444112C55.599000000000004 15.946444444444111 55.547000000000004 15.918444444444106 55.547000000000004 15.840444444444117L55.547000000000004 15.240444444444108L55.573 15.216444444444107C55.573 15.216444444444107 57.679 15.268444444444114 58.433 15.268444444444114C59.109 15.268444444444114 60.253 15.216444444444107 60.253 15.216444444444107L60.331 15.240444444444108L60.331 15.840444444444117C60.331 15.918444444444106 60.253 15.970444444444112 60.123000000000005 15.970444444444112C59.109 16.048444444444115 58.407000000000004 16.100444444444108 57.471000000000004 17.16644444444411L55.235 19.738444444444113C54.793 20.208444444444112 54.637 20.492444444444118 54.637 20.701444444444107C54.637 20.857444444444113 54.741 20.986444444444118 54.871 21.14244444444411L58.797000000000004 25.874444444444123C59.109 26.237444444444122 59.733000000000004 26.394444444444105 60.253 26.497444444444113L60.383 26.52244444444412C60.461 26.547444444444125 60.565000000000005 26.599444444444117 60.565000000000005 26.67744444444412L60.565000000000005 27.223444444444112L60.487 27.249444444444123C60.487 27.249444444444123 59.109 27.223444444444112 58.381 27.223444444444112C57.731 27.223444444444112 56.795 27.249444444444123 56.795 27.249444444444123L56.769 27.223444444444112L56.769 26.9114444444441C56.769 26.572444444444102 56.743 26.28844444444411 56.379000000000005 25.872444444444113L53.493 22.283444444444115C53.103 21.762444444444114 52.687000000000005 21.634444444444114 52.115 21.634444444444114L52.115 25.487444444444122L52.115 25.487444444444122Z "></path><path transform="translate(-8.382,-2.4414063e-6)" id="path3908" d="M66.132 25.487444444444122C66.132 26.059444444444125 66.392 26.39744444444412 67.224 26.475444444444122L67.77000000000001 26.52844444444412C67.848 26.52844444444412 67.926 26.579444444444107 67.926 26.68344444444412L67.926 27.229444444444113L67.9 27.28244444444411C67.9 27.28244444444411 65.924 27.229444444444113 65.118 27.229444444444113C64.39 27.229444444444113 62.362 27.28244444444411 62.362 27.28244444444411L62.31 27.229444444444113L62.31 26.68344444444412C62.31 26.579444444444107 62.388 26.52844444444412 62.492000000000004 26.52844444444412L63.012 26.475444444444122C63.870000000000005 26.39744444444412 64.13 25.981444444444122 64.13 25.487444444444122L64.13 16.829444444444107C64.13 16.259444444444114 63.818000000000005 16.100444444444108 63.012 16.024444444444114L62.492000000000004 15.970444444444112C62.388 15.970444444444112 62.31 15.946444444444111 62.31 15.866444444444113L62.31 15.26744444444411L62.336 15.215444444444117C62.336 15.215444444444117 64.39 15.26744444444411 65.196 15.26744444444411C65.898 15.26744444444411 67.9 15.215444444444117 67.9 15.215444444444117L67.926 15.26744444444411L67.926 15.839444444444112C67.926 15.917444444444115 67.874 15.969444444444107 67.77000000000001 15.969444444444107L67.224 16.02244444444412C66.418 16.099444444444117 66.132 16.308444444444106 66.132 16.829444444444107L66.132 25.487444444444122Z "></path><path transform="translate(-9.794,-2.4414063e-6)" id="path3910" d="M71.75 16.88044444444411C71.75 16.07444444444411 71.412 16.048444444444115 70.19 15.970444444444112C70.03399999999999 15.970444444444112 70.00800000000001 15.893444444444114 70.00800000000001 15.840444444444117L70.00800000000001 15.242444444444118L70.06 15.216444444444107C70.45 15.216444444444107 71.98400000000001 15.268444444444114 72.738 15.268444444444114C73.46600000000001 15.268444444444114 74.506 15.216444444444107 75.46799999999999 15.216444444444107C79.15800000000002 15.216444444444107 79.834 17.03544444444411 79.834 18.38944444444411C79.834 19.950444444444116 79.08000000000001 22.393444444444114 75.39000000000001 22.393444444444114C74.74000000000001 22.393444444444114 74.22 22.340444444444117 73.751 22.13344444444411L73.751 25.61544444444411C73.751 26.186444444444106 74.06299999999999 26.31844444444411 74.89600000000002 26.447444444444102L75.417 26.525444444444105C75.52100000000002 26.55044444444411 75.6 26.578444444444102 75.6 26.680444444444106L75.6 27.2264444444441L75.576 27.279444444444124C75.576 27.279444444444124 73.495 27.2264444444441 72.689 27.2264444444441C71.96100000000001 27.2264444444441 70.011 27.279444444444124 70.011 27.279444444444124L69.985 27.2264444444441L69.985 26.680444444444106C69.985 26.57644444444412 70.037 26.55044444444411 70.14099999999999 26.525444444444105L70.68700000000001 26.447444444444102C71.493 26.343444444444117 71.75300000000001 26.109444444444108 71.75300000000001 25.61544444444411L71.75 16.88044444444411L71.75 16.88044444444411L71.75 16.88044444444411ZM73.75200000000001 21.405444444444115C74.27199999999999 21.614444444444118 74.922 21.63944444444411 75.44200000000001 21.63944444444411C77.00300000000001 21.63944444444411 77.75399999999999 20.701444444444107 77.75399999999999 18.701444444444107C77.75399999999999 16.465444444444117 76.74000000000001 15.971444444444117 75.31200000000001 15.971444444444117C74.06299999999999 15.971444444444117 73.751 16.20544444444411 73.751 16.881444444444114L73.75200000000001 21.405444444444115L73.75200000000001 21.405444444444115Z "></path><path transform="translate(-17.104,2.9975586e-3)" id="path3914" d="M94.08999999999999 26.52844444444412L94.68799999999999 26.475444444444122C95.469 26.39744444444412 95.729 26.16344444444411 95.729 25.358444444444103L95.729 16.77844444444412C95.729 16.100444444444108 95.54499999999999 16.100444444444108 94.68799999999999 16.024444444444114L94.118 15.970444444444112C94.014 15.970444444444112 93.934 15.918444444444106 93.934 15.840444444444117L93.934 15.268444444444114L93.95899999999999 15.216444444444107C93.95899999999999 15.216444444444107 96.24799999999999 15.268444444444114 96.717 15.268444444444114C97.20899999999999 15.268444444444114 99.473 15.216444444444107 100.149 15.216444444444107C104.491 15.216444444444107 106.624 17.920444444444115 106.624 21.378444444444114C106.624 25.9294444444441 103.399 27.279444444444124 100.515 27.279444444444124C98.43499999999999 27.279444444444124 97.526 27.2264444444441 96.72 27.2264444444441C95.939 27.2264444444441 93.96199999999999 27.279444444444124 93.96199999999999 27.279444444444124L93.937 27.2264444444441L93.937 26.680444444444106C93.934 26.606444444444122 93.987 26.52844444444412 94.08999999999999 26.52844444444412ZM99.889 26.52844444444412C102.74799999999999 26.52844444444412 104.362 25.464444444444126 104.362 21.82144444444411C104.362 19.11844444444411 103.76299999999999 15.970444444444112 99.395 15.970444444444112C98.381 15.970444444444112 97.731 16.126444444444118 97.731 16.77844444444412L97.731 25.358444444444103C97.731 26.084444444444102 97.91199999999999 26.52844444444412 99.889 26.52844444444412Z "></path><path transform="translate(-4.459,-2.4414063e-6)" id="path3916" d="M112.762 25.487444444444122C112.762 26.059444444444125 113.02199999999999 26.39744444444412 113.854 26.475444444444122L114.39999999999999 26.52844444444412C114.478 26.52844444444412 114.556 26.579444444444107 114.556 26.68344444444412L114.556 27.229444444444113L114.53 27.28244444444411C114.53 27.28244444444411 112.55399999999999 27.229444444444113 111.749 27.229444444444113C111.02 27.229444444444113 108.993 27.28244444444411 108.993 27.28244444444411L108.94 27.229444444444113L108.94 26.68344444444412C108.94 26.579444444444107 109.018 26.52844444444412 109.122 26.52844444444412L109.643 26.475444444444122C110.5 26.39744444444412 110.761 25.981444444444122 110.761 25.487444444444122L110.761 16.829444444444107C110.761 16.259444444444114 110.448 16.100444444444108 109.643 16.024444444444114L109.122 15.970444444444112C109.018 15.970444444444112 108.94 15.946444444444111 108.94 15.866444444444113L108.94 15.26744444444411L108.966 15.215444444444117C108.966 15.215444444444117 111.02 15.26744444444411 111.824 15.26744444444411C112.52499999999999 15.26744444444411 114.529 15.215444444444117 114.529 15.215444444444117L114.553 15.26744444444411L114.553 15.839444444444112C114.553 15.917444444444115 114.499 15.969444444444107 114.39699999999999 15.969444444444107L113.851 16.02244444444412C113.044 16.099444444444117 112.759 16.308444444444106 112.759 16.829444444444107L112.762 25.487444444444122L112.762 25.487444444444122L112.762 25.487444444444122Z "></path><path transform="translate(4.981,-2.4414063e-6)" id="path3918" d="M120.77199999999999 26.475444444444122L121.526 26.52844444444412C121.63 26.52844444444412 121.734 26.606444444444122 121.734 26.735444444444113L121.734 27.229444444444113L121.68199999999999 27.28244444444411C121.68199999999999 27.28244444444411 118.848 27.229444444444113 118.22399999999999 27.229444444444113C117.547 27.229444444444113 115.883 27.28244444444411 115.883 27.28244444444411L115.83 27.229444444444113L115.83 26.735444444444113C115.83 26.606444444444122 115.908 26.52844444444412 116.03899999999999 26.52844444444412C117.184 26.450444444444116 117.832 26.241444444444113 118.55999999999999 24.577444444444126L124.33099999999999 11.05644444444411C124.616 10.380444444444109 124.82499999999999 10.119444444444113 125.217 10.119444444444113C125.579 10.119444444444113 125.71 10.380444444444109 125.91699999999999 10.900444444444119L131.247 24.992444444444118C131.612 26.007444444444104 132.13299999999998 26.396444444444114 133.173 26.5004444444441L133.458 26.525444444444105C133.589 26.525444444444105 133.719 26.602444444444103 133.719 26.734444444444108L133.719 27.2264444444441L133.641 27.279444444444124C133.641 27.279444444444124 131.639 27.2264444444441 130.624 27.2264444444441C129.714 27.2264444444441 127.16499999999999 27.279444444444124 127.16499999999999 27.279444444444124L127.14099999999999 27.2264444444441L127.14099999999999 26.734444444444108C127.14099999999999 26.602444444444103 127.193 26.525444444444105 127.326 26.525444444444105L128.05399999999997 26.472444444444108C129.041 26.39544444444411 129.40699999999998 26.081444444444116 129.14600000000002 25.355444444444117L127.55999999999999 20.959444444444117L122.14999999999999 20.959444444444117C121.526 20.959444444444117 121.36999999999999 21.063444444444116 121.241 21.399444444444114L119.732 25.170444444444115C119.472 25.82444444444411 119.80999999999999 26.39744444444412 120.77199999999999 26.475444444444122ZM127.142 19.869444444444113L124.61999999999999 12.92844444444411L124.568 12.92844444444411L121.96799999999999 19.53244444444411C121.86399999999999 19.79444444444411 122.04499999999999 19.870444444444118 122.61699999999999 19.870444444444118L127.142 19.870444444444118L127.142 19.869444444444113Z "></path><path transform="matrix(1.0867964,0,0,1.0867964,-2.0798044,-58.47943)" id="path6529" d="M111.4109384970028 70.20403815351997C111.73043849700281 69.62737815351997 111.8239584970028 69.22993815351998 111.69148849700281 69.01172815351998C111.5667884970028 68.78574815351996 111.1771484970028 68.64547815351997 110.5225584970028 68.59091815351997C110.4446184970028 68.51299815351999 110.4056584970028 68.38051815351997 110.40566849700281 68.19347815351998C110.4056584970028 67.99866815351999 110.4446184970028 67.87008815351999 110.5225584970028 67.80773815351998C111.7070584970028 67.83891815351998 112.4746584970028 67.85450815351999 112.8253484970028 67.85448815351998C113.17600849700281 67.85450815351999 113.70202849700281 67.83891815351998 114.40339849700281 67.80773815351998C114.48130849700281 67.87008815351999 114.5202784970028 67.99866815351999 114.52028849700281 68.19347815351998C114.5202784970028 68.38051815351997 114.48130849700281 68.51299815351999 114.40339849700281 68.59091815351997C114.21635849700282 68.60650815351997 114.04880849700281 68.63378815351999 113.90075849700281 68.67273815351999C113.7526784970028 68.70391815351996 113.6163084970028 68.75846815351997 113.49162849700281 68.83638815351998C113.3747284970028 68.91432815351996 113.27731849700281 68.98056815351998 113.1993984970028 69.03510815351999C113.1214584970028 69.08187815351997 113.03573849700281 69.17148815351999 112.9422384970028 69.30395815351997C112.8487084970028 69.43644815351996 112.78247849700281 69.53385815351999 112.74351849700281 69.59618815351996C112.7045484970028 69.65854815351997 112.63050849700281 69.78322815351999 112.52141849700281 69.97024815351998C112.42010849700281 70.15728815351997 112.3499684970028 70.28976815351999 112.3110184970028 70.36768815351996L110.21863849700281 74.07317815351996L110.21863849700281 75.94345815351997C110.21862849700281 76.90198815351997 110.31214849700281 77.49423815351997 110.49917849700282 77.72022815351997C110.69399849700281 77.93842815351996 111.17324849700282 78.07480815351997 111.9369584970028 78.12935815351997C111.99929849700281 78.20728815351998 112.03046849700281 78.34365815351998 112.0304784970028 78.53847815351997C112.03046849700281 78.72550815351997 111.99929849700281 78.85019815351998 111.9369584970028 78.91253815351996C110.5654084970028 78.88136815351999 109.68092849700281 78.86577815351998 109.28349849700281 78.86577815351998C108.83929849700282 78.86577815351998 107.94701849700282 78.88136815351999 106.60665849700281 78.91253815351996C106.52872849700282 78.85019815351998 106.48585849700281 78.72550815351997 106.47807849700281 78.53847815351997C106.47806849700281 78.34365815351998 106.52092849700281 78.20728815351998 106.60665849700281 78.12935815351997C107.37034849700281 78.06700815351996 107.8457084970028 77.92673815351998 108.03274849700281 77.70853815351998C108.2275584970028 77.49034815351996 108.32496849700281 76.90198815351997 108.3249784970028 75.94345815351997L108.3249784970028 74.17838815351996L105.98712449700281 70.34430815351996C105.9091934970028 70.21962815351998 105.79230149700281 70.02870815351997 105.63644649700281 69.77152815351997C105.48838049700281 69.51437815351997 105.38707349700282 69.35072815351998 105.3325254970028 69.28058815351997C105.27797449700282 69.21045815351997 105.18056349700281 69.11304815351997 105.0402944970028 68.98834815351998C104.90002149700281 68.85587815351997 104.74026849700282 68.76626815351997 104.56103449700281 68.71949815351996C104.38959049700281 68.67274815351996 104.1674954970028 68.62988815351997 103.89474649700281 68.59091815351997C103.83240349700282 68.51299815351999 103.80123249700281 68.38051815351997 103.80123249700281 68.19347815351998C103.80123249700281 67.99866815351999 103.83240349700282 67.87008815351999 103.89474649700281 67.80773815351998C105.07925649700282 67.83891815351998 105.78061149700281 67.85450815351999 105.99881349700281 67.85448815351998C106.51313849700281 67.85450815351999 107.3586584970028 67.83891815351998 108.53538849700281 67.80773815351998C108.59771849700282 67.87008815351999 108.6288884970028 67.99866815351999 108.62889849700281 68.19347815351998C108.63668849700281 68.38051815351997 108.6055184970028 68.51299815351999 108.53538849700281 68.59091815351997C107.8418184970028 68.65326815351997 107.4755484970028 68.80912815351996 107.43658849700282 69.05848815351996C107.39762849700281 69.30786815351996 107.5729684970028 69.68971815351998 107.9626084970028 70.20403815351997L109.7393784970028 73.14972815351999L109.78613849700281 73.14972815351999L111.4109384970028 70.20403815351997 " style="font-size:144px;font-style:normal;font-variant:normal;font-weight:normal;font-stretch:normal;fill:#000000;fill-opacity:1;stroke:none;stroke-width:1px;stroke-linecap:butt;stroke-linejoin:miter;stroke-opacity:1;font-family:Linux Libertine Capitals;-inkscape-font-specification:Linux Libertine Capitals"></path><path transform="translate(-38.359,-2.4414063e-6)" id="path7906" d="M112.762 25.487444444444122C112.762 26.059444444444125 113.02199999999999 26.39744444444412 113.854 26.475444444444122L114.39999999999999 26.52844444444412C114.478 26.52844444444412 114.556 26.579444444444107 114.556 26.68344444444412L114.556 27.229444444444113L114.53 27.28244444444411C114.53 27.28244444444411 112.55399999999999 27.229444444444113 111.749 27.229444444444113C111.02 27.229444444444113 108.993 27.28244444444411 108.993 27.28244444444411L108.94 27.229444444444113L108.94 26.68344444444412C108.94 26.579444444444107 109.018 26.52844444444412 109.122 26.52844444444412L109.643 26.475444444444122C110.5 26.39744444444412 110.761 25.981444444444122 110.761 25.487444444444122L110.761 16.829444444444107C110.761 16.259444444444114 110.448 16.100444444444108 109.643 16.024444444444114L109.122 15.970444444444112C109.018 15.970444444444112 108.94 15.946444444444111 108.94 15.866444444444113L108.94 15.26744444444411L108.966 15.215444444444117C108.966 15.215444444444117 111.02 15.26744444444411 111.824 15.26744444444411C112.52499999999999 15.26744444444411 114.529 15.215444444444117 114.529 15.215444444444117L114.553 15.26744444444411L114.553 15.839444444444112C114.553 15.917444444444115 114.499 15.969444444444107 114.39699999999999 15.969444444444107L113.851 16.02244444444412C113.044 16.099444444444117 112.759 16.308444444444106 112.759 16.829444444444107L112.762 25.487444444444122L112.762 25.487444444444122L112.762 25.487444444444122Z "></path><path id="text7908" d="M140.16291231200324 -455.2998931906349L140.16291231200324 -424.22176319063493C140.16284231200325 -418.4561331906349 140.72534231200325 -414.8936331906349 141.85041231200324 -413.53426319063493C143.02221231200326 -412.22176319063493 145.90502231200327 -411.4014531906349 150.49885231200327 -411.0733331906349C150.87377231200327 -410.60457319063494 151.06127231200327 -409.78426319063493 151.06135231200327 -408.6123931906349C151.10814231200328 -407.4873931906349 150.92064231200328 -406.7373931906349 150.49885231200327 -406.3623931906349C142.24878231200324 -406.5498931906349 136.92847131200324 -406.6436431906349 134.53791531200326 -406.6436431906349C131.86597631200326 -406.6436431906349 126.49879431200326 -406.5498931906349 118.43635231200327 -406.3623931906349C117.96755231200326 -406.7373931906349 117.73317731200326 -407.4873931906349 117.73322731200327 -408.6123931906349C117.73317731200326 -409.78426319063493 117.96755231200326 -410.60457319063494 118.43635231200327 -411.0733331906349C123.03004731200326 -411.44832319063494 125.88941931200326 -412.29207319063494 127.01447731200327 -413.6045831906349C128.18629231200327 -414.91707319063494 128.77222931200328 -418.4561331906349 128.77229031200326 -424.22176319063493L128.77229031200326 -438.2139531906349L95.51447731200327 -438.2139531906349L95.51447731200327 -424.22176319063493C95.51445031200326 -418.4561331906349 96.07694931200325 -414.8936331906349 97.20197731200327 -413.53426319063493C98.37382231200326 -412.22176319063493 101.28006931200326 -411.4014531906349 105.92072731200327 -411.0733331906349C106.29568931200326 -410.60457319063494 106.48318931200326 -409.78426319063493 106.48322731200327 -408.6123931906349C106.48318931200326 -407.4873931906349 106.29568931200326 -406.7373931906349 105.92072731200327 -406.3623931906349C97.67069831200325 -406.5498931906349 92.32695331200327 -406.6436431906349 89.88947731200327 -406.6436431906349C87.21758331200326 -406.6436431906349 81.85040131200326 -406.5498931906349 73.78791531200326 -406.3623931906349C73.31915931200325 -406.7373931906349 73.08478531200326 -407.4873931906349 73.08479031200326 -408.6123931906349C73.08478531200326 -409.78426319063493 73.31915931200325 -410.60457319063494 73.78791531200326 -411.0733331906349C78.38165431200326 -411.44832319063494 81.24102631200326 -412.29207319063494 82.36604031200326 -413.6045831906349C83.53789931200326 -414.91707319063494 84.12383631200326 -418.4561331906349 84.12385231200327 -424.22176319063493L84.12385231200327 -455.2998931906349C84.12383631200326 -461.0654631906349 83.53789931200326 -464.60452319063495 82.36604031200326 -465.9170831906349C81.24102631200326 -467.2763931906349 78.38165431200326 -468.1201431906349 73.78791531200326 -468.4483331906349C73.31915931200325 -468.9170131906349 73.08478531200326 -469.7138931906349 73.08479031200326 -470.8389531906349C73.08478531200326 -472.0107631906349 73.31915931200325 -472.7842031906349 73.78791531200326 -473.15926319063493C82.03790131200326 -472.9717031906349 87.35820831200326 -472.8779531906349 89.74885231200327 -472.87801319063493C92.42070331200327 -472.8779531906349 97.81132231200326 -472.9717031906349 105.92072731200327 -473.15926319063493C106.29568931200326 -472.7842031906349 106.48318931200326 -472.0107631906349 106.48322731200327 -470.8389531906349C106.48318931200326 -469.7138931906349 106.29568931200326 -468.9170131906349 105.92072731200327 -468.4483331906349C101.32694431200326 -468.07327319063495 98.44413431200326 -467.22952319063495 97.27229031200326 -465.9170831906349C96.10038731200326 -464.60452319063495 95.51445031200326 -461.0654631906349 95.51447731200327 -455.2998931906349L95.51447731200327 -442.9248931906349L128.77229031200326 -442.9248931906349L128.77229031200326 -455.2998931906349C128.77222931200328 -461.0654631906349 128.18629231200327 -464.60452319063495 127.01447731200327 -465.9170831906349C125.88941931200326 -467.2763931906349 123.03004731200326 -468.1201431906349 118.43635231200327 -468.4483331906349C117.96755231200326 -468.9170131906349 117.73317731200326 -469.7138931906349 117.73322731200327 -470.8389531906349C117.73317731200326 -472.0107631906349 117.96755231200326 -472.7842031906349 118.43635231200327 -473.15926319063493C126.68629431200326 -472.9717031906349 132.00660131200326 -472.8779531906349 134.39729031200326 -472.87801319063493C137.06909631200324 -472.8779531906349 142.43628231200324 -472.9717031906349 150.49885231200327 -473.15926319063493C150.87377231200327 -472.7842031906349 151.06127231200327 -472.0107631906349 151.06135231200327 -470.8389531906349C151.10814231200328 -469.7138931906349 150.92064231200328 -468.9170131906349 150.49885231200327 -468.4483331906349C145.90502231200327 -468.07327319063495 143.02221231200326 -467.22952319063495 141.85041231200324 -465.9170831906349C140.72534231200325 -464.60452319063495 140.16284231200325 -461.0654631906349 140.16291231200324 -455.2998931906349 " transform="matrix(0.1807013,0,0,0.1807013,76.544483,100.71266)" style="font-size:144px;font-style:normal;font-variant:normal;font-weight:normal;font-stretch:normal;fill:#000000;fill-opacity:1;stroke:none;stroke-width:1px;stroke-linecap:butt;stroke-linejoin:miter;stroke-opacity:1;font-family:Linux Libertine O;-inkscape-font-specification:Linux Libertine O"></path></g>
</svg>