<?xml version="1.0" encoding="UTF-8" standalone="no"?>
<svg
	xmlns="http://www.w3.org/2000/svg"
	xmlns:dc="http://purl.org/dc/elements/1.1/"
	xmlns:cc="http://creativecommons.org/ns#"
	xmlns:rdf="http://www.w3.org/1999/02/22-rdf-syntax-ns#"
	xmlns:svg="http://www.w3.org/2000/svg"
	xmlns:xlink="http://www.w3.org/1999/xlink"
	xmlns:sodipodi="http://sodipodi.sourceforge.net/DTD/sodipodi-0.dtd"
	xmlns:inkscape="http://www.inkscape.org/namespaces/inkscape"
	version="1.1"
	viewBox="0 0 138.69826752918317 41.147444209691514">
	<g id="Wikipedia" transform="translate(-2.4004426,0)"><path d="M24.564267529183162 10.298000000000002C25.500267529183162 10.323999999999998 25.980267529183166 10.352000000000004 26.561267529183162 10.352000000000004C27.143267529183163 10.352000000000004 27.77526752918316 10.325000000000003 28.407267529183166 10.298000000000002C28.558267529183162 10.459000000000003 28.558267529183162 11.027000000000001 28.407267529183166 11.189000000000007C27.09226752918316 11.405000000000001 26.54326752918316 12.433000000000007 25.92126752918316 13.698999999999998L24.073267529183163 17.454000000000008L27.307267529183164 24.604000000000013L27.423267529183164 24.604000000000013L32.225267529183164 13.510000000000005C32.82426752918316 12.049000000000007 32.78126752918316 11.323000000000008 31.13826752918316 11.189000000000007C30.986267529183166 11.027000000000001 30.986267529183166 10.460000000000008 31.13826752918316 10.298000000000002C32.32626752918316 10.323999999999998 33.05926752918317 10.352000000000004 33.64126752918316 10.352000000000004C34.22326752918316 10.352000000000004 34.85526752918316 10.325000000000003 35.86626752918316 10.298000000000002C36.01826752918316 10.459000000000003 36.01826752918316 11.027000000000001 35.86626752918316 11.189000000000007C34.197267529183165 11.405000000000001 33.907267529183166 12.436000000000007 33.38126752918316 13.698999999999998L27.396267529183163 27.466000000000008C27.219267529183163 27.87100000000001 27.067267529183162 28.08699999999999 26.79026752918316 28.08699999999999C26.53726752918316 28.08699999999999 26.34226752918316 27.867999999999995 26.20826752918316 27.466000000000008L22.807267529183164 19.629999999999995L19.078267529183165 27.466000000000008C18.927267529183162 27.87100000000001 18.749267529183165 28.08699999999999 18.471267529183166 28.08699999999999C18.219267529183163 28.08699999999999 18.041267529183166 27.87100000000001 17.890267529183163 27.466000000000008L12.390267529183163 13.646C11.619267529183164 11.729 11.568267529183164 11.325000000000003 10.127267529183163 11.189999999999998C9.975267529183164 11.028000000000006 9.950267529183163 10.460999999999999 10.102267529183164 10.299000000000007C11.290267529183163 10.325000000000003 11.720267529183163 10.353000000000009 12.731267529183164 10.353000000000009C13.717267529183163 10.353000000000009 14.349267529183164 10.326000000000008 15.538267529183164 10.299000000000007C15.690267529183163 10.460000000000008 15.690267529183163 11.028000000000006 15.538267529183164 11.189999999999998C13.945267529183164 11.378 13.877267529183163 11.805000000000007 14.512267529183164 13.349000000000004L19.14126752918316 24.60499999999999L19.25726752918316 24.60499999999999L22.081267529183165 18.47200000000001L19.950267529183165 13.646C19.103267529183164 11.729 18.901267529183166 11.352000000000004 17.813267529183165 11.189999999999998C17.66226752918316 11.028000000000006 17.636267529183165 10.460999999999999 17.788267529183166 10.299000000000007C18.597267529183164 10.325000000000003 19.027267529183163 10.353000000000009 20.038267529183166 10.353000000000009C21.024267529183163 10.353000000000009 21.429267529183164 10.326000000000008 22.33926752918316 10.299000000000007C22.491267529183162 10.460000000000008 22.491267529183162 11.028000000000006 22.33926752918316 11.189999999999998C21.277267529183163 11.352000000000004 21.378267529183162 11.810000000000002 22.07126752918316 13.349000000000004L23.315267529183167 16.076000000000008L23.426267529183164 16.197000000000003L24.76626752918316 13.510999999999996C25.547267529183166 11.945999999999998 25.651267529183166 11.352000000000004 24.564267529183162 11.189999999999998C24.41226752918316 11.025999999999996 24.41226752918316 10.459000000000003 24.564267529183162 10.298000000000002L24.564267529183162 10.298000000000002Z " id="path4906"></path><path d="M116.92726752918317 26.92500000000001C117.07926752918317 27.08699999999999 117.07926752918317 27.653999999999996 116.92726752918317 27.816000000000003C115.99126752918316 27.789999999999992 114.72826752918317 27.762 113.69126752918316 27.762C112.70626752918317 27.762 112.37726752918317 27.789000000000016 111.44126752918316 27.816000000000003C111.29026752918317 27.653999999999996 111.29026752918317 27.08699999999999 111.44126752918316 26.92500000000001C112.54126752918317 26.843999999999994 113.30226752918317 26.676999999999992 113.97026752918318 25.009000000000015L119.59026752918317 10.963999999999999C119.87826752918316 10.240000000000009 120.06926752918316 10 120.44326752918317 10C120.79726752918317 10 120.94126752918316 10.289000000000001 121.12526752918316 10.811000000000007L126.30926752918317 25.441000000000003C126.77726752918316 26.83099999999999 127.60426752918318 26.83099999999999 128.58426752918317 26.92500000000001C128.73626752918318 27.08699999999999 128.73626752918318 27.653999999999996 128.58426752918317 27.816000000000003C127.64826752918317 27.789999999999992 126.73826752918318 27.762 125.70126752918317 27.762C124.71626752918317 27.762 123.32526752918317 27.789000000000016 122.38926752918317 27.816000000000003C122.23826752918318 27.653999999999996 122.23826752918318 27.08699999999999 122.38926752918317 26.92500000000001C123.59326752918317 26.833 124.63626752918317 26.93100000000001 124.26026752918317 25.81899999999999L122.71826752918317 21.257000000000005L117.45826752918317 21.257000000000005C116.85226752918317 21.257000000000005 116.70026752918317 21.364000000000004 116.57326752918317 21.716000000000008L115.18226752918316 25.62899999999999C114.78926752918316 26.738 115.97726752918317 26.854000000000013 116.92726752918317 26.92500000000001L116.92726752918317 26.92500000000001ZM122.31326752918316 20.12299999999999L119.86126752918317 12.915999999999997L119.81026752918316 12.915999999999997L117.27726752918316 19.76400000000001C117.17126752918317 20.05600000000001 117.35326752918317 20.12299999999999 117.91426752918316 20.12299999999999L122.31326752918316 20.12299999999999L122.31326752918316 20.12299999999999Z " id="path4922"></path><path transform="translate(0,5.72187e-2)" d="M37.27251752918316 24.468999999999994C37.27251752918316 26.709000000000003 37.55051752918317 26.818000000000012 39.09251752918317 26.92500000000001C39.24451752918317 27.08699999999999 39.24451752918317 27.653999999999996 39.09251752918317 27.816000000000003C38.005517529183166 27.789999999999992 37.37351752918316 27.762 36.28651752918317 27.762C35.17351752918317 27.762 34.51651752918316 27.789000000000016 33.454517529183164 27.816000000000003C33.30351752918317 27.653999999999996 33.30351752918317 27.08699999999999 33.454517529183164 26.92500000000001C34.996517529183166 26.789999999999992 35.27551752918316 26.709000000000003 35.27551752918316 24.468999999999994L35.27551752918316 18.638000000000005C35.27551752918316 16.397999999999996 34.99751752918317 16.290000000000006 33.454517529183164 16.182000000000002C33.30351752918317 16.019999999999996 33.30351752918317 15.453000000000003 33.454517529183164 15.290999999999997C34.54151752918317 15.317999999999998 35.17351752918317 15.344999999999999 36.261517529183166 15.344999999999999C37.37351752918316 15.344999999999999 38.03151752918316 15.319000000000003 39.09351752918316 15.290999999999997C39.24551752918316 15.453000000000003 39.24551752918316 16.019999999999996 39.09351752918316 16.182000000000002C37.55151752918317 16.317000000000007 37.27351752918317 16.397999999999996 37.27351752918317 18.638000000000005L37.27351752918317 24.468999999999994L37.27251752918316 24.468999999999994Z " id="path4908"></path><path transform="translate(0,5.72187e-2)" d="M39.59376752918316 16.182000000000002C39.442767529183165 16.019999999999996 39.442767529183165 15.453000000000003 39.59376752918316 15.290999999999997C40.65576752918316 15.317999999999998 41.31276752918316 15.344999999999999 42.42576752918316 15.344999999999999C43.36176752918316 15.344999999999999 43.765767529183165 15.319000000000003 44.85276752918316 15.290999999999997C45.003767529183165 15.453000000000003 45.003767529183165 16.019999999999996 44.85276752918316 16.182000000000002C43.63876752918316 16.317000000000007 43.41176752918316 16.397999999999996 43.41176752918316 18.638000000000005L43.41176752918316 21.039999999999992C44.24576752918316 21.039999999999992 44.98676752918316 20.614000000000004 46.06676752918316 19.312000000000012C48.01376752918316 16.964 48.26676752918316 16.262 47.00276752918316 16.180999999999997C46.85076752918316 16.019000000000005 46.85076752918316 15.451999999999998 47.00276752918316 15.290000000000006C48.08976752918316 15.317000000000007 49.05076752918316 15.344000000000008 49.78376752918316 15.344000000000008C50.44076752918316 15.344000000000008 50.87076752918316 15.317999999999998 51.55376752918316 15.290000000000006C51.704767529183165 15.451999999999998 51.704767529183165 16.019000000000005 51.55376752918316 16.180999999999997C50.54276752918316 16.235 49.61476752918316 16.372 48.84776752918316 17.314999999999998L46.67376752918316 19.986999999999995C46.24376752918316 20.473000000000013 46.09176752918316 20.77000000000001 46.09176752918316 20.98599999999999C46.09176752918316 21.147999999999996 46.192767529183165 21.283000000000015 46.31976752918316 21.444999999999993L50.061767529183165 26.141999999999996C50.39276752918316 26.551999999999992 50.997767529183164 26.84299999999999 51.67976752918316 26.924000000000007C51.83076752918316 27.086000000000013 51.83076752918316 27.626000000000005 51.67976752918316 27.78800000000001C51.67976752918316 27.78800000000001 50.44076752918316 27.760999999999996 49.732767529183164 27.760999999999996C49.07476752918316 27.760999999999996 48.442767529183165 27.78800000000001 48.16476752918316 27.814999999999998L48.16476752918316 27.437000000000012C48.16476752918316 27.086000000000013 48.13976752918316 26.789999999999992 47.78576752918316 26.358000000000004L44.979767529183164 22.632000000000005C44.60076752918316 22.092000000000013 43.96776752918316 21.956999999999994 43.41176752918316 21.956999999999994L43.41176752918316 24.46799999999999C43.41176752918316 26.708 43.63976752918316 26.789000000000016 44.85276752918316 26.924000000000007C45.003767529183165 27.086000000000013 45.003767529183165 27.65299999999999 44.85276752918316 27.814999999999998C43.765767529183165 27.789000000000016 43.360767529183164 27.760999999999996 42.42576752918316 27.760999999999996C41.31276752918316 27.760999999999996 40.65576752918316 27.78800000000001 39.59376752918316 27.814999999999998C39.442767529183165 27.65299999999999 39.442767529183165 27.086000000000013 39.59376752918316 26.924000000000007C41.13576752918316 26.789000000000016 41.41376752918316 26.708 41.41376752918316 24.46799999999999L41.41376752918316 18.637C41.41376752918316 16.397000000000006 41.13576752918316 16.316000000000003 39.59376752918316 16.182000000000002L39.59376752918316 16.182000000000002Z " id="path4910"></path><path transform="translate(0,5.72187e-2)" d="M55.915767529183164 24.468999999999994C55.915767529183164 26.709000000000003 56.19376752918316 26.818000000000012 57.735767529183164 26.92500000000001C57.887767529183165 27.08699999999999 57.887767529183165 27.653999999999996 57.735767529183164 27.816000000000003C56.64876752918316 27.789999999999992 56.01676752918316 27.762 54.92976752918316 27.762C53.81676752918316 27.762 53.15976752918316 27.789000000000016 52.09776752918316 27.816000000000003C51.94676752918316 27.653999999999996 51.94676752918316 27.08699999999999 52.09776752918316 26.92500000000001C53.63976752918316 26.789999999999992 53.91776752918316 26.709000000000003 53.91776752918316 24.468999999999994L53.91776752918316 18.638000000000005C53.91776752918316 16.397999999999996 53.63976752918316 16.290000000000006 52.09776752918316 16.182000000000002C51.94676752918316 16.019999999999996 51.94676752918316 15.453000000000003 52.09776752918316 15.290999999999997C53.18476752918316 15.317999999999998 53.81676752918316 15.344999999999999 54.90476752918316 15.344999999999999C56.01676752918316 15.344999999999999 56.674767529183164 15.319000000000003 57.73676752918316 15.290999999999997C57.88876752918316 15.453000000000003 57.88876752918316 16.019999999999996 57.73676752918316 16.182000000000002C56.19476752918316 16.317000000000007 55.91676752918316 16.397999999999996 55.91676752918316 18.638000000000005L55.91676752918316 24.468999999999994L55.915767529183164 24.468999999999994Z " id="path4912"></path><path transform="translate(0,5.72187e-2)" d="M63.850517529183165 26.92500000000001C64.00151752918316 27.08699999999999 64.00151752918316 27.653999999999996 63.850517529183165 27.816000000000003C62.762517529183164 27.789999999999992 62.13051752918316 27.762 61.04351752918316 27.762C59.93151752918316 27.762 59.27351752918316 27.789000000000016 58.21151752918316 27.816000000000003C58.05951752918316 27.653999999999996 58.05951752918316 27.08699999999999 58.21151752918316 26.92500000000001C59.75351752918316 26.789999999999992 60.03151752918316 26.709000000000003 60.03151752918316 24.468999999999994L60.03151752918316 18.638000000000005C60.03151752918316 16.397999999999996 59.75351752918316 16.290000000000006 58.21151752918316 16.182000000000002C58.05951752918316 16.019999999999996 58.05951752918316 15.453000000000003 58.21151752918316 15.290999999999997C59.298517529183165 15.317999999999998 59.93051752918316 15.344999999999999 61.01751752918316 15.344999999999999C61.70051752918316 15.344999999999999 62.762517529183164 15.290999999999997 63.69751752918316 15.290999999999997C67.28751752918316 15.290999999999997 68.04751752918315 17.180999999999997 68.04751752918315 18.584000000000003C68.04751752918315 20.204000000000008 67.01051752918318 22.795000000000016 63.62151752918316 22.795000000000016C62.98951752918316 22.795000000000016 62.484517529183165 22.688000000000017 62.02951752918316 22.471000000000004L62.02951752918316 24.468999999999994C62.02951752918316 26.709000000000003 62.30751752918316 26.817000000000007 63.850517529183165 26.92500000000001L63.850517529183165 26.92500000000001ZM62.02951752918316 21.607C62.53451752918316 21.823000000000008 63.16651752918316 21.903999999999996 63.67251752918316 21.903999999999996C65.19051752918315 21.903999999999996 65.84751752918316 20.854000000000013 65.84751752918316 18.908000000000015C65.84751752918316 17.015 65.03751752918316 16.180999999999997 63.54651752918316 16.180999999999997C62.332517529183164 16.180999999999997 62.02951752918316 16.531999999999996 62.02951752918316 17.396L62.02951752918316 21.607L62.02951752918316 21.607Z " id="path4914"></path><path transform="translate(0,5.72187e-2)" d="M72.28376752918317 21.688000000000017L72.28376752918317 25.736999999999995C72.28376752918317 26.25 72.63776752918317 26.92500000000001 73.09276752918316 26.92500000000001L75.19276752918317 26.92500000000001C76.78476752918317 26.92500000000001 77.51876752918317 25.57499999999999 77.92276752918318 23.983000000000004C78.19976752918316 23.902000000000015 78.40276752918317 23.956999999999994 78.62976752918317 24.091000000000008C78.45276752918316 25.224999999999994 78.17476752918317 26.709000000000003 77.87176752918317 27.816000000000003C77.87176752918317 27.816000000000003 76.20276752918316 27.762 75.19176752918317 27.762L71.29676752918317 27.762C71.29676752918317 27.762 69.52676752918318 27.789000000000016 68.46476752918316 27.816000000000003C68.31376752918317 27.653999999999996 68.31376752918317 27.08699999999999 68.46476752918316 26.92500000000001C70.00776752918317 26.789999999999992 70.28476752918317 26.709000000000003 70.28476752918317 24.468999999999994L70.28476752918317 18.638000000000005C70.28476752918317 16.397999999999996 70.00776752918317 16.290000000000006 68.46476752918316 16.182000000000002C68.31376752918317 16.019999999999996 68.31376752918317 15.453000000000003 68.46476752918316 15.290999999999997C69.55276752918317 15.317999999999998 71.27176752918317 15.344999999999999 71.27176752918317 15.344999999999999L76.50576752918317 15.344999999999999C77.01176752918317 15.344999999999999 77.18776752918316 15.290999999999997 77.54176752918318 15.238C77.59276752918316 15.238 77.61776752918317 15.263999999999996 77.61776752918317 15.319000000000003C77.66776752918317 15.507000000000005 77.97176752918317 17.613 78.07276752918317 18.531000000000006C77.87076752918317 18.638000000000005 77.64276752918317 18.692999999999998 77.38976752918317 18.665999999999997C76.93476752918316 17.128 76.60576752918317 16.236000000000004 75.03776752918317 16.236000000000004L73.09076752918317 16.236000000000004C72.61076752918316 16.236000000000004 72.28176752918317 16.533 72.28176752918317 16.992000000000004L72.28176752918317 20.82499999999999L73.72276752918317 20.82499999999999C75.49276752918317 20.799000000000007 75.41576752918317 20.52799999999999 75.46676752918317 19.313000000000017C75.59376752918317 19.177999999999997 76.04876752918317 19.177999999999997 76.17476752918317 19.313000000000017C76.14976752918317 19.988 76.12476752918317 20.47399999999999 76.12476752918317 21.22999999999999C76.12476752918317 21.98599999999999 76.14876752918317 22.418000000000006 76.17476752918317 23.200999999999993C76.04876752918317 23.336000000000013 75.59376752918317 23.336000000000013 75.46676752918317 23.200999999999993C75.41576752918317 22.201999999999998 75.51776752918317 21.688999999999993 73.72276752918317 21.688999999999993L72.28376752918317 21.688999999999993L72.28376752918317 21.688000000000017Z " id="path4916"></path><path transform="translate(0,5.72187e-2)" d="M85.09626752918317 15.290999999999997C89.31826752918317 15.290999999999997 91.39126752918317 18.099000000000004 91.39126752918317 21.688000000000017C91.39126752918317 26.412000000000006 88.25626752918316 27.814999999999998 85.45026752918317 27.814999999999998C83.42726752918317 27.814999999999998 82.51626752918317 27.760999999999996 81.75926752918316 27.760999999999996C80.64626752918316 27.760999999999996 79.98926752918317 27.78800000000001 78.92726752918317 27.814999999999998C78.77526752918317 27.65299999999999 78.77526752918317 27.086000000000013 78.92726752918317 26.924000000000007C80.47026752918318 26.789000000000016 80.74726752918316 26.708 80.74726752918316 24.46799999999999L80.74726752918316 18.637C80.74726752918316 16.397000000000006 80.47026752918318 16.289 78.92726752918317 16.180999999999997C78.77526752918317 16.019000000000005 78.77526752918317 15.451999999999998 78.92726752918317 15.290000000000006C80.01426752918317 15.317000000000007 80.64626752918316 15.344000000000008 81.73426752918317 15.344000000000008C82.21426752918318 15.344999999999999 84.43826752918316 15.290999999999997 85.09626752918317 15.290999999999997L85.09626752918317 15.290999999999997ZM84.84226752918318 26.92500000000001C87.62326752918317 26.92500000000001 89.19226752918317 25.926000000000016 89.19226752918317 22.147999999999996C89.19226752918317 19.340000000000003 88.61026752918318 16.182000000000002 84.36226752918317 16.182000000000002C83.37626752918317 16.182000000000002 82.74526752918317 16.34400000000001 82.74526752918317 17.019000000000005L82.74526752918317 25.710000000000008C82.74526752918317 26.466000000000008 82.92126752918317 26.92500000000001 84.84226752918318 26.92500000000001L84.84226752918318 26.92500000000001Z " id="path4918"></path><path transform="translate(0,5.72187e-2)" d="M95.62951752918318 24.468999999999994C95.62951752918318 26.709000000000003 95.90651752918316 26.818000000000012 97.44951752918317 26.92500000000001C97.60051752918316 27.08699999999999 97.60051752918316 27.653999999999996 97.44951752918317 27.816000000000003C96.36151752918317 27.789999999999992 95.72951752918317 27.762 94.64251752918317 27.762C93.52951752918317 27.762 92.87251752918317 27.789000000000016 91.81051752918317 27.816000000000003C91.65951752918316 27.653999999999996 91.65951752918316 27.08699999999999 91.81051752918317 26.92500000000001C93.35351752918316 26.789999999999992 93.63051752918317 26.709000000000003 93.63051752918317 24.468999999999994L93.63051752918317 18.638000000000005C93.63051752918317 16.397999999999996 93.35351752918316 16.290000000000006 91.81051752918317 16.182000000000002C91.65951752918316 16.019999999999996 91.65951752918316 15.453000000000003 91.81051752918317 15.290999999999997C92.89851752918317 15.317999999999998 93.52951752918317 15.344999999999999 94.61751752918317 15.344999999999999C95.72951752918317 15.344999999999999 96.38751752918317 15.319000000000003 97.44951752918317 15.290999999999997C97.60051752918316 15.453000000000003 97.60051752918316 16.019999999999996 97.44951752918317 16.182000000000002C95.90651752918316 16.317000000000007 95.62951752918318 16.397999999999996 95.62951752918318 18.638000000000005L95.62951752918318 24.468999999999994Z " id="path4920"></path><path transform="translate(0,5.72187e-2)" d="M105.23685752918317 31.01567C104.72849752918317 30.856799999999993 104.22700752918317 30.428020000000004 104.16538752918316 30.099559999999997C104.06608752918316 29.57041000000001 104.79887752918317 28.890469999999993 105.34232752918317 29.007440000000003C105.62314752918317 29.06783999999999 105.75872752918318 29.165840000000003 106.01759752918316 29.49534C106.37832752918317 29.954499999999996 106.67710752918317 30.054450000000003 107.10628752918316 29.859520000000003C107.22189752918317 29.807019999999994 107.40089752918317 29.66104999999999 107.50406752918317 29.535140000000013C107.91719752918317 29.030969999999996 108.08624752918317 28.40252000000001 108.15947752918316 27.09863999999999C108.21667752918317 26.08017000000001 108.21987752918317 17.915260000000004 108.16347752918317 17.21354000000001C108.12447752918317 16.729780000000005 108.11377752918317 16.69502 107.96196752918317 16.559359999999998C107.77501752918317 16.39231000000001 107.60477752918317 16.341220000000007 106.87484752918317 16.23312C106.57980752918317 16.18942 106.32484752918317 16.140119999999996 106.30827752918317 16.123530000000002C106.26167752918317 16.076930000000004 106.27267752918317 15.44641 106.32107752918317 15.398060000000001C106.34467752918317 15.37446 107.56527752918316 15.348560000000006 109.03356752918317 15.340559999999996L111.70317752918317 15.32596000000001L111.74057752918317 15.495109999999997C111.79557752918316 15.743769999999998 111.78007752918317 15.940539999999999 111.69507752918317 16.070189999999997C111.63557752918317 16.160989999999998 111.53579752918317 16.198000000000008 111.21714752918317 16.24754C110.68324752918316 16.33054 110.47513752918317 16.437640000000002 110.34878752918317 16.69439C110.25458752918317 16.88575 110.24484752918318 17.05811 110.21146752918317 19.115200000000016C110.19166752918316 20.33332999999999 110.17266752918317 22.30346 110.16926752918317 23.493259999999992C110.15926752918317 26.94914 110.09396752918317 27.58932999999999 109.66498752918316 28.437520000000006C109.21034752918317 29.336510000000004 108.21921752918317 30.332490000000007 107.33403752918316 30.77985000000001C106.77192752918317 31.063950000000006 105.75664752918317 31.17815999999999 105.23700752918317 31.015749999999997L105.23700752918317 31.015749999999997L105.23685752918317 31.01567Z " id="path5459" style="fill:#000000;fill-opacity:1;fill-rule:nonzero;stroke:#000000;stroke-width:0.001;stroke-linecap:butt;stroke-linejoin:miter;stroke-miterlimit:4;stroke-dasharray:none;stroke-opacity:1"></path><path transform="translate(0,5.72187e-2)" id="path5461" d="M101.92951752918317 24.468999999999994C101.92951752918317 26.709000000000003 102.20651752918317 26.818000000000012 103.74951752918317 26.92500000000001C103.90051752918316 27.08699999999999 103.90051752918316 27.653999999999996 103.74951752918317 27.816000000000003C102.66151752918317 27.789999999999992 102.02951752918317 27.762 100.94251752918316 27.762C99.82951752918316 27.762 99.17251752918317 27.789000000000016 98.11051752918317 27.816000000000003C97.95951752918317 27.653999999999996 97.95951752918317 27.08699999999999 98.11051752918317 26.92500000000001C99.65351752918316 26.789999999999992 99.93051752918316 26.709000000000003 99.93051752918316 24.468999999999994L99.93051752918316 18.638000000000005C99.93051752918316 16.397999999999996 99.65351752918316 16.290000000000006 98.11051752918317 16.182000000000002C97.95951752918317 16.019999999999996 97.95951752918317 15.453000000000003 98.11051752918317 15.290999999999997C99.19851752918316 15.317999999999998 99.82951752918316 15.344999999999999 100.91751752918317 15.344999999999999C102.02951752918317 15.344999999999999 102.68751752918317 15.319000000000003 103.74951752918317 15.290999999999997C103.90051752918316 15.453000000000003 103.90051752918316 16.019999999999996 103.74951752918317 16.182000000000002C102.20651752918317 16.317000000000007 101.92951752918317 16.397999999999996 101.92951752918317 18.638000000000005L101.92951752918317 24.468999999999994Z "></path></g>
</svg>