<?xml version="1.0" encoding="UTF-8" standalone="no"?>
<svg
	xmlns="http://www.w3.org/2000/svg"
	xmlns:dc="http://purl.org/dc/elements/1.1/"
	xmlns:cc="http://creativecommons.org/ns#"
	xmlns:rdf="http://www.w3.org/1999/02/22-rdf-syntax-ns#"
	xmlns:svg="http://www.w3.org/2000/svg"
	xmlns:xlink="http://www.w3.org/1999/xlink"
	xmlns:sodipodi="http://sodipodi.sourceforge.net/DTD/sodipodi-0.dtd"
	xmlns:inkscape="http://www.inkscape.org/namespaces/inkscape"
	version="1.1"
	viewBox="0 0 147.42818728388318 38.05900000000001">
	<g id="Wikipedia" transform="translate(-4.2209064,0)" style="font-size:27px;font-style:normal;font-variant:normal;font-weight:normal;font-stretch:normal;text-align:start;line-height:100%;letter-spacing:-0.60000002;writing-mode:lr-tb;text-anchor:start;fill:#000000;fill-opacity:1;stroke:none;font-family:Linux Libertine O C;-inkscape-font-specification:Linux Libertine O C"><path d="M25.552838283883172 11.15700000000001C26.713837283883173 11.319000000000017 26.57883728388317 11.913000000000011 25.768838283883174 13.479000000000013L24.337838283883173 16.179000000000016L24.20283828388317 16.04400000000001L22.87983828388317 13.317000000000007C22.150839283883172 11.778000000000006 22.042839283883172 11.319000000000003 23.17683828388317 11.15700000000001C23.33883828388317 10.995000000000005 23.33883828388317 10.428000000000011 23.17683828388317 10.266000000000005C22.20483928388317 10.293000000000006 21.77283728388317 10.320000000000007 20.71983828388317 10.320000000000007C19.63983928388317 10.320000000000007 19.18083728388317 10.293000000000006 18.316838283883172 10.266000000000005C18.15483928388317 10.428000000000011 18.18183928388317 10.995000000000005 18.343838283883173 11.15700000000001C19.504837283883173 11.319000000000017 19.720839283883173 11.697000000000017 20.611838283883174 13.614000000000004L22.879838283883174 18.447000000000003L19.882838283883174 24.576000000000008L19.747838283883173 24.576000000000008L14.806839283883173 13.317000000000007C14.131839283883172 11.778000000000006 14.212840283883173 11.346000000000004 15.913839283883172 11.15700000000001C16.075838283883172 10.995000000000005 16.075838283883172 10.428000000000011 15.913839283883172 10.266000000000005C14.644840283883173 10.293000000000006 13.969838283883172 10.320000000000007 12.916839283883172 10.320000000000007C11.836840883883173 10.320000000000007 11.377837883883172 10.293000000000006 10.108839883883173 10.266000000000005C9.946839883883172 10.428000000000011 9.973839883883173 10.995000000000005 10.135839883883172 11.15700000000001C11.674837883883171 11.292000000000016 11.728839883883172 11.697000000000017 12.538839283883172 13.614000000000004L18.424838283883172 27.438000000000002C18.58683828388317 27.843000000000004 18.77583828388317 28.05900000000001 19.04583828388317 28.05900000000001C19.34283828388317 28.05900000000001 19.53183828388317 27.843000000000004 19.69383828388317 27.438000000000002L23.662838283883172 19.608000000000004L27.30783828388317 27.438000000000002C27.442838283883173 27.843000000000004 27.65883828388317 28.05900000000001 27.92883828388317 28.05900000000001C28.22583828388317 28.05900000000001 28.38783828388317 27.843000000000004 28.57683828388317 27.438000000000002L34.94883828388317 13.668000000000006C35.51583728388317 12.426000000000002 35.83984028388317 11.373000000000005 37.62183828388317 11.15700000000001C37.78383828388317 10.995000000000005 37.78383828388317 10.428000000000011 37.62183828388317 10.266000000000005C36.54183928388317 10.293000000000006 35.86683728388317 10.320000000000007 35.245838283883174 10.320000000000007C34.624839283883176 10.320000000000007 33.84183728388317 10.293000000000006 32.57283828388317 10.266000000000005C32.41083828388317 10.428000000000011 32.41083828388317 10.995000000000005 32.57283828388317 11.15700000000001C34.32783628388317 11.292000000000016 34.35483728388317 12.021000000000015 33.73383828388317 13.479000000000013L28.603838283883174 24.576000000000008L28.468838283883173 24.576000000000008L25.012838283883173 17.448000000000008L26.983838283883173 13.668000000000006C27.658837283883173 12.426000000000002 28.252839283883173 11.373000000000005 29.656838283883175 11.15700000000001C29.818838283883174 10.995000000000005 29.818838283883174 10.428000000000011 29.656838283883175 10.266000000000005C28.981839283883176 10.293000000000006 28.306837283883176 10.320000000000007 27.685838283883175 10.320000000000007C27.064839283883174 10.320000000000007 26.551837283883174 10.293000000000006 25.552838283883176 10.266000000000005C25.390838283883177 10.428000000000011 25.390838283883177 10.995000000000005 25.552838283883176 11.15700000000001 " id="path3417"></path><path d="M41.82618728388317 16.966000000000008C41.82618728388317 16.426000000000002 42.123188283883174 16.183000000000007 42.96018728388317 16.102000000000004L43.52718728388317 16.048000000000002C43.63518728388317 16.048000000000002 43.68918728388317 15.994 43.68918728388317 15.912999999999997L43.68918728388317 15.346000000000004L43.66218728388317 15.292000000000002C43.66218728388317 15.292000000000002 41.58318628388317 15.346000000000004 40.85418728388317 15.346000000000004C40.01718828388317 15.346000000000004 37.88418728388317 15.292000000000002 37.88418728388317 15.292000000000002L37.85718728388317 15.346000000000004L37.85718728388317 15.939999999999998C37.85718728388317 16.021 37.938187283883174 16.048000000000002 38.04618728388317 16.048000000000002L38.58618728388317 16.102000000000004C39.42318628388317 16.183000000000007 39.74718728388317 16.372 39.74718728388317 16.966000000000008L39.74718728388317 25.957000000000008C39.74718728388317 26.470000000000013 39.47718628388317 26.902 38.58618728388317 26.98300000000002L38.04618728388317 27.03700000000002C37.938187283883174 27.03700000000002 37.85718728388317 27.091000000000022 37.85718728388317 27.199000000000026L37.85718728388317 27.766000000000034L37.91118728388317 27.820000000000036C37.91118728388317 27.820000000000036 40.01718828388317 27.766000000000034 40.773187283883175 27.766000000000034C41.61018628388317 27.766000000000034 43.66218728388318 27.820000000000036 43.66218728388318 27.820000000000036L43.68918728388318 27.766000000000034L43.68918728388318 27.199000000000026C43.68918728388318 27.091000000000022 43.608187283883176 27.03700000000002 43.52718728388318 27.03700000000002L42.96018728388318 26.98300000000002C42.09618828388318 26.90200000000003 41.82618728388318 26.55100000000003 41.82618728388318 25.957000000000008L41.82618728388318 16.966000000000008 " id="path5668" sodipodi:nodetypes="ccccccsccccccccccccsccccccc"></path><path d="M48.76720328388318 21.961C49.36120228388317 21.961 49.79320328388318 22.096000000000004 50.198203283883174 22.635999999999996L53.195203283883174 26.36200000000001C53.57320228388318 26.793999999999997 53.600203283883175 27.091000000000022 53.600203283883175 27.44200000000002L53.600203283883175 27.766000000000034L53.627203283883176 27.79300000000002C53.627203283883176 27.79300000000002 54.59920328388318 27.766000000000034 55.274203283883175 27.766000000000034C56.03020228388318 27.766000000000034 57.46120328388317 27.79300000000002 57.46120328388317 27.79300000000002L57.542203283883175 27.766000000000034L57.542203283883175 27.199000000000026C57.542203283883175 27.118000000000038 57.43420328388318 27.064000000000036 57.353203283883175 27.03700000000002L57.21820328388318 27.010000000000034C56.67820328388318 26.90200000000003 56.03020228388318 26.740000000000023 55.70620328388318 26.362000000000037L51.62920328388318 21.448000000000036C51.49420328388318 21.28600000000003 51.38620328388318 21.15100000000004 51.38620328388318 20.989000000000033C51.38620328388318 20.77300000000004 51.548203283883176 20.476000000000028 52.00720328388318 19.990000000000038L54.32920328388318 17.317000000000036C55.30120228388318 16.210000000000036 56.03020428388318 16.156000000000034 57.08320328388318 16.07500000000003C57.21820328388318 16.07500000000003 57.29920328388318 16.02100000000003 57.29920328388318 15.940000000000026L57.29920328388318 15.319000000000031L57.21820328388318 15.29200000000003C57.21820328388318 15.29200000000003 56.03020228388318 15.346000000000032 55.32820328388318 15.346000000000032C54.54520428388318 15.346000000000032 52.35820328388318 15.29200000000003 52.35820328388318 15.29200000000003L52.33120328388318 15.319000000000031L52.33120328388318 15.940000000000026C52.33120328388318 16.02100000000003 52.38520328388318 16.04800000000003 52.493203283883176 16.07500000000003C53.03320228388318 16.156000000000034 53.27620328388318 16.39900000000003 53.27620328388318 16.615000000000038C53.27620328388318 17.128000000000043 52.439202283883176 18.127000000000038 51.359203283883176 19.31500000000004C50.17120428388318 20.584000000000046 49.65820228388318 21.043000000000035 48.76720328388318 21.043000000000035L48.76720328388318 16.966000000000037C48.76720328388318 16.42600000000003 49.06420428388318 16.29100000000004 49.90120328388318 16.129000000000033L50.198203283883174 16.07500000000003C50.30620328388317 16.04800000000003 50.36020328388317 16.02100000000003 50.36020328388317 15.940000000000026L50.36020328388317 15.346000000000032L50.33320328388317 15.29200000000003C50.33320328388317 15.29200000000003 48.632202283883174 15.346000000000032 47.87620328388317 15.346000000000032C47.03920428388317 15.346000000000032 44.82520328388317 15.29200000000003 44.82520328388317 15.29200000000003L44.79820328388317 15.346000000000032L44.79820328388317 15.967000000000027C44.79820328388317 16.04800000000003 44.87920328388317 16.07500000000003 44.98720328388317 16.07500000000003L45.52720328388317 16.129000000000033C46.39120228388317 16.210000000000036 46.68820328388317 16.37200000000003 46.68820328388317 16.966000000000037L46.68820328388317 25.957000000000036C46.68820328388317 26.47000000000004 46.33720228388317 26.90200000000003 45.52720328388317 26.983000000000047L44.98720328388317 27.03700000000005C44.87920328388317 27.03700000000005 44.79820328388317 27.09100000000005 44.79820328388317 27.199000000000055L44.79820328388317 27.766000000000062L44.85220328388317 27.820000000000064C44.85220328388317 27.820000000000064 47.06620328388317 27.766000000000062 47.82220328388317 27.766000000000062C48.63220228388317 27.766000000000062 50.33320328388317 27.820000000000064 50.33320328388317 27.820000000000064L50.36020328388317 27.766000000000062L50.36020328388317 27.199000000000055C50.36020328388317 27.09100000000005 50.27920328388317 27.064000000000064 50.198203283883174 27.03700000000005L49.90120328388318 26.983000000000047C49.11820428388318 26.848000000000056 48.76720328388318 26.55100000000006 48.76720328388318 25.957000000000036L48.76720328388318 21.96100000000004 " id="path5670"></path><path d="M62.30001428388317 16.966000000000008C62.30001428388317 16.426000000000002 62.597015283883174 16.183000000000007 63.43401428388317 16.102000000000004L64.00101428388317 16.048000000000002C64.10901428388317 16.048000000000002 64.16301428388317 15.994 64.16301428388317 15.912999999999997L64.16301428388317 15.346000000000004L64.13601428388317 15.292000000000002C64.13601428388317 15.292000000000002 62.05701428388317 15.346000000000004 61.32801428388317 15.346000000000004C60.49101528388317 15.346000000000004 58.35801428388317 15.292000000000002 58.35801428388317 15.292000000000002L58.33101428388317 15.346000000000004L58.33101428388317 15.939999999999998C58.33101428388317 16.021 58.412014283883174 16.048000000000002 58.52001428388317 16.048000000000002L59.06001428388317 16.102000000000004C59.89701428388317 16.183000000000007 60.22101428388317 16.372 60.22101428388317 16.966000000000008L60.22101428388317 25.957000000000008C60.22101428388317 26.470000000000013 59.95101328388317 26.902 59.06001428388317 26.98300000000002L58.52001428388317 27.03700000000002C58.412014283883174 27.03700000000002 58.33101428388317 27.091000000000022 58.33101428388317 27.199000000000026L58.33101428388317 27.766000000000034L58.38501428388317 27.820000000000036C58.38501428388317 27.820000000000036 60.49101528388317 27.766000000000034 61.247014283883175 27.766000000000034C62.08401428388318 27.766000000000034 64.13601428388318 27.820000000000036 64.13601428388318 27.820000000000036L64.16301428388317 27.766000000000034L64.16301428388317 27.199000000000026C64.16301428388317 27.091000000000022 64.08201428388318 27.03700000000002 64.00101428388318 27.03700000000002L63.43401428388318 26.98300000000002C62.57001528388318 26.90200000000003 62.30001428388318 26.55100000000003 62.30001428388318 25.957000000000008L62.30001428388318 16.966000000000008 " id="path5672" sodipodi:nodetypes="ccccccsccccccccccccsccccccc"></path><path d="M69.18703228388317 17.02000000000001C69.18703228388317 16.318000000000012 69.51103328388317 16.075000000000017 70.80703228388317 16.075000000000017C72.29203028388318 16.075000000000017 73.34503228388317 16.588000000000022 73.34503228388317 18.91000000000001C73.34503228388317 20.989000000000004 72.56203028388317 21.961000000000013 70.94203228388317 21.961000000000013C70.40203228388316 21.961000000000013 69.72703128388316 21.93400000000001 69.18703228388317 21.718000000000018L69.18703228388317 17.020000000000024M67.10803228388318 26.092000000000027C67.10803228388318 26.605000000000032 66.83803128388318 26.848000000000027 66.00103228388318 26.95600000000003L65.43403228388317 27.03700000000002C65.32603228388318 27.064000000000007 65.27203228388318 27.091000000000022 65.27203228388318 27.199000000000026L65.27203228388318 27.766000000000034L65.29903228388318 27.820000000000036C65.29903228388318 27.820000000000036 67.32403228388318 27.766000000000034 68.08003228388318 27.766000000000034C68.91703128388319 27.766000000000034 71.07703228388318 27.820000000000036 71.07703228388318 27.820000000000036L71.10403228388319 27.766000000000034L71.10403228388319 27.199000000000026C71.10403228388319 27.091000000000022 71.02303228388318 27.064000000000036 70.91503228388319 27.03700000000002L70.37503228388319 26.95600000000003C69.51103228388318 26.82100000000004 69.18703228388318 26.68600000000002 69.18703228388318 26.092000000000027L69.18703228388318 22.474000000000032C69.67303128388319 22.690000000000026 70.21303228388318 22.744000000000028 70.88803228388318 22.744000000000028C74.72202828388318 22.744000000000028 75.50503228388318 20.20600000000003 75.50503228388318 18.586000000000027C75.50503228388318 17.18200000000003 74.80302828388318 15.29200000000003 70.96903228388318 15.29200000000003C69.97003328388318 15.29200000000003 68.89003128388318 15.346000000000032 68.13403228388319 15.346000000000032C67.35103228388319 15.346000000000032 65.75803128388318 15.29200000000003 65.35303228388318 15.29200000000003L65.29903228388318 15.319000000000031L65.29903228388318 15.940000000000026C65.29903228388318 15.994000000000028 65.3260322838832 16.07500000000003 65.48803228388319 16.07500000000003C66.75703028388318 16.156000000000034 67.10803228388319 16.183000000000035 67.10803228388319 17.020000000000024L67.10803228388319 26.092000000000027 " id="path5674"></path><path d="M83.85679528388317 27.766000000000005C84.66679428388318 27.766000000000005 86.25979528388318 27.820000000000007 86.25979528388318 27.820000000000007L86.31379528388318 27.766000000000005L86.85379528388319 24.661000000000016L86.17879528388319 24.580000000000027C85.85479528388319 25.984000000000023 85.0987932838832 26.848000000000027 83.7217952838832 26.848000000000027L81.1567952838832 26.848000000000027C80.6707952838832 26.848000000000027 80.3737952838832 26.335000000000022 80.3737952838832 25.822000000000017L80.3737952838832 21.691000000000017L82.3987952838832 21.691000000000017C83.1007942838832 21.691000000000017 83.3437952838832 21.988000000000014 83.4517952838832 22.52800000000002L83.5867952838832 23.122000000000014C83.5867952838832 23.203000000000017 83.64079528388321 23.25700000000002 83.7757952838832 23.25700000000002L84.2347952838832 23.25700000000002L84.2887952838832 23.203000000000017C84.2347952838832 22.582000000000022 84.1267952838832 22.015000000000015 84.1267952838832 21.340000000000018C84.1267952838832 20.69200000000002 84.2347952838832 19.93600000000002 84.2887952838832 19.342000000000013C84.2887952838832 19.28800000000001 84.2887952838832 19.26100000000001 84.2347952838832 19.26100000000001L83.7757952838832 19.26100000000001C83.6677952838832 19.26100000000001 83.61379528388319 19.315000000000012 83.61379528388319 19.396000000000015L83.45179528388319 19.963000000000008C83.34379528388318 20.503000000000014 83.15479428388319 20.827000000000012 82.39879528388319 20.827000000000012L80.37379528388318 20.827000000000012L80.37379528388318 16.912000000000006C80.37379528388318 16.453000000000003 80.64379528388318 16.26400000000001 81.15679528388318 16.26400000000001L83.31679528388318 16.26400000000001C85.04479328388318 16.26400000000001 85.55779528388318 17.695000000000007 85.85479528388318 18.694000000000017L86.52979528388317 18.586000000000013C86.34079528388318 17.560000000000016 86.15179528388317 16.50700000000002 86.12479528388317 15.346000000000018L86.07079528388317 15.292000000000016C86.07079528388317 15.292000000000016 84.15379428388317 15.346000000000018 83.34379528388317 15.346000000000018L79.37479528388317 15.346000000000018C78.56479628388317 15.346000000000018 76.45879528388318 15.292000000000016 76.45879528388318 15.292000000000016L76.43179528388318 15.346000000000018L76.43179528388318 15.967000000000013C76.43179528388318 15.994000000000014 76.43179528388318 16.048000000000016 76.59379528388318 16.075000000000017L77.21479528388318 16.12900000000002C77.97079428388318 16.18300000000002 78.29479528388318 16.291000000000025 78.29479528388318 16.91200000000002L78.29479528388318 25.822000000000017C78.29479528388318 26.36200000000001 78.05179428388317 26.90200000000003 77.21479528388318 26.98300000000002L76.59379528388318 27.03700000000002C76.45879528388318 27.03700000000002 76.43179528388318 27.11800000000001 76.43179528388318 27.17200000000001L76.43179528388318 27.766000000000005L76.45879528388318 27.820000000000007C76.45879528388318 27.820000000000007 78.32179628388317 27.766000000000005 79.13179528388318 27.766000000000005L83.85679528388317 27.766000000000005 " id="path5676"></path><path d="M88.06617128388318 27.198999999999998L88.06617128388318 27.766000000000005L88.09317128388318 27.820000000000007C88.09317128388318 27.820000000000007 90.14517228388318 27.766000000000005 90.95517128388317 27.766000000000005C91.79217128388318 27.766000000000005 92.73717428388318 27.820000000000007 94.89717128388318 27.820000000000007C97.89416828388318 27.820000000000007 101.24217128388318 26.41600000000001 101.24217128388318 21.691000000000003C101.24217128388318 18.10000000000001 99.02816728388318 15.292000000000002 94.51917128388318 15.292000000000002C93.81717228388318 15.292000000000002 91.46817128388318 15.346000000000004 90.95517128388317 15.346000000000004C90.46917228388317 15.346000000000004 88.09317128388318 15.292000000000002 88.09317128388318 15.292000000000002L88.06617128388318 15.346000000000004L88.06617128388318 15.939999999999998C88.06617128388318 16.021 88.14717128388318 16.075000000000003 88.25517128388317 16.075000000000003L88.84917128388317 16.129000000000005C89.74017028388316 16.210000000000008 89.92917128388316 16.210000000000008 89.92917128388316 16.912000000000006L89.92917128388316 25.822000000000017C89.92917128388316 26.659000000000006 89.65917128388317 26.90200000000003 88.84917128388317 26.98300000000002L88.22817128388317 27.03700000000002C88.12017128388317 27.03700000000002 88.06617128388316 27.11800000000001 88.06617128388316 27.199000000000026M92.00817128388317 25.822000000000017L92.00817128388317 16.91200000000002C92.00817128388317 16.237000000000023 92.68317228388317 16.075000000000017 93.73617128388317 16.075000000000017C98.27216728388316 16.075000000000017 98.89317128388316 19.342000000000013 98.89317128388316 22.15000000000002C98.89317128388316 25.93000000000002 97.21916828388316 27.03700000000002 94.24917128388316 27.03700000000002C92.19717328388316 27.03700000000002 92.00817128388316 26.578000000000017 92.00817128388316 25.822000000000017 " id="path5678"></path><path d="M106.56993728388318 16.966000000000008C106.56993728388318 16.426000000000002 106.86693728388317 16.183000000000007 107.70393728388318 16.102000000000004L108.27093728388317 16.048000000000002C108.37893728388318 16.048000000000002 108.43293728388318 15.994 108.43293728388318 15.912999999999997L108.43293728388318 15.346000000000004L108.40593728388318 15.292000000000002C108.40593728388318 15.292000000000002 106.32693728388318 15.346000000000004 105.59793728388317 15.346000000000004C104.76093728388317 15.346000000000004 102.62793728388317 15.292000000000002 102.62793728388317 15.292000000000002L102.60093728388317 15.346000000000004L102.60093728388317 15.939999999999998C102.60093728388317 16.021 102.68193728388317 16.048000000000002 102.78993728388316 16.048000000000002L103.32993728388317 16.102000000000004C104.16693728388317 16.183000000000007 104.49093728388317 16.372 104.49093728388317 16.966000000000008L104.49093728388317 25.957000000000008C104.49093728388317 26.470000000000013 104.22093728388317 26.902 103.32993728388317 26.98300000000002L102.78993728388316 27.03700000000002C102.68193728388316 27.03700000000002 102.60093728388317 27.091000000000022 102.60093728388317 27.199000000000026L102.60093728388317 27.766000000000034L102.65493728388317 27.820000000000036C102.65493728388317 27.820000000000036 104.76093728388317 27.766000000000034 105.51693728388317 27.766000000000034C106.35393728388317 27.766000000000034 108.40593728388316 27.820000000000036 108.40593728388316 27.820000000000036L108.43293728388316 27.766000000000034L108.43293728388316 27.199000000000026C108.43293728388316 27.091000000000022 108.35193728388316 27.03700000000002 108.27093728388316 27.03700000000002L107.70393728388316 26.98300000000002C106.83993728388316 26.90200000000003 106.56993728388316 26.55100000000003 106.56993728388316 25.957000000000008L106.56993728388316 16.966000000000008 " id="path5680" sodipodi:nodetypes="ccccccsccccccccccccsccccccc"></path><path d="M114.18595728388317 26.119000000000014C114.18595728388317 26.659000000000006 113.86195728388317 26.902 113.02495728388317 26.98300000000002L112.48495728388316 27.03700000000002C112.37695728388316 27.03700000000002 112.29595728388317 27.11800000000001 112.29595728388317 27.199000000000026L112.29595728388317 27.766000000000034L112.34995728388317 27.820000000000036C112.34995728388317 27.820000000000036 114.45595728388317 27.766000000000034 115.21195728388317 27.766000000000034C116.04895728388317 27.766000000000034 118.10095728388316 27.820000000000036 118.10095728388316 27.820000000000036L118.15495728388316 27.766000000000034L118.15495728388316 27.199000000000026C118.15495728388316 27.118000000000038 118.07395728388316 27.03700000000002 117.96595728388317 27.03700000000002L117.39895728388318 26.98300000000002C116.56195728388317 26.90200000000003 116.26495728388318 26.713000000000008 116.26495728388318 26.119000000000014L116.26495728388318 22.366000000000014L119.23495728388318 17.128000000000014C119.63995728388318 16.399000000000015 119.77495728388318 16.23700000000001 120.63895728388317 16.12900000000002L121.09795728388318 16.075000000000017C121.28695728388317 16.048000000000016 121.28695728388317 15.994000000000014 121.28695728388317 15.940000000000012L121.28695728388317 15.346000000000018L121.25995728388317 15.292000000000016C120.85495728388317 15.319000000000017 119.61295728388316 15.346000000000018 119.42395728388317 15.346000000000018C119.15395728388317 15.346000000000018 117.64195728388317 15.292000000000016 117.34495728388318 15.292000000000016L117.29095728388317 15.319000000000017L117.29095728388317 15.940000000000012C117.29095728388317 15.994000000000014 117.31795728388317 16.075000000000017 117.39895728388318 16.075000000000017L118.01995728388317 16.12900000000002C118.66795728388317 16.18300000000002 118.66795728388317 16.210000000000022 118.31695728388317 16.85800000000002L115.80595728388317 21.313000000000017L115.75195728388317 21.313000000000017L113.02495728388317 16.85800000000002C112.75495728388317 16.426000000000016 112.64695728388317 16.18300000000002 113.29495728388316 16.12900000000002L113.88895728388316 16.075000000000017C113.96995728388316 16.075000000000017 114.02395728388316 15.994000000000014 114.02395728388316 15.940000000000012L114.02395728388316 15.319000000000017L113.99695728388316 15.292000000000016C113.67295728388316 15.319000000000017 111.40495728388316 15.346000000000018 111.26995728388316 15.346000000000018C110.97295728388316 15.346000000000018 109.29895728388315 15.292000000000016 109.05595728388316 15.292000000000016L109.00195728388316 15.346000000000018L109.00195728388316 15.940000000000012C109.00195728388316 16.048000000000016 109.13695728388316 16.075000000000017 109.21795728388315 16.075000000000017C110.00095728388315 16.15600000000002 110.43295728388316 16.318000000000012 110.78395728388315 16.88500000000002L114.18595728388316 22.474000000000018L114.18595728388316 26.119000000000014 " id="path5682"></path><path d="M125.89918728388318 20.125C125.30519728388317 20.125 125.11618728388318 20.043999999999997 125.22418728388318 19.774L127.92418728388319 12.915999999999997L127.97818728388319 12.915999999999997L130.5971872838832 20.125L125.89918728388318 20.125M122.90218728388318 25.632999999999996L124.46818728388318 21.71799999999999C124.60318728388319 21.36699999999999 124.76519728388318 21.258999999999986 125.41318728388318 21.258999999999986L131.02918728388318 21.258999999999986L132.67618728388317 25.82199999999999C132.94618728388318 26.57799999999999 132.56818728388316 26.902 131.54218728388318 26.98299999999999L130.78618728388318 27.036999999999992C130.6511872838832 27.036999999999992 130.5971872838832 27.11799999999998 130.5971872838832 27.253L130.5971872838832 27.766000000000005L130.62418728388317 27.820000000000007C130.62418728388317 27.820000000000007 133.27019728388316 27.766000000000005 134.21518728388318 27.766000000000005C135.26818728388318 27.766000000000005 137.3471872838832 27.820000000000007 137.3471872838832 27.820000000000007L137.42818728388318 27.766000000000005L137.42818728388318 27.253C137.42818728388318 27.11800000000001 137.29318728388319 27.036999999999992 137.15818728388317 27.036999999999992L136.86118728388317 27.010000000000005C135.78119728388316 26.902 135.24118728388316 26.497 134.86318728388318 25.444000000000003L129.32818728388318 10.810000000000002C129.1121872838832 10.269999999999996 128.97718728388318 10 128.59918728388317 10C128.1941872838832 10 127.97818728388319 10.269999999999996 127.68118728388318 10.971999999999994L121.68718728388318 25.011999999999986C120.93119728388318 26.739999999999995 120.25618728388318 26.955999999999975 119.06818728388318 27.036999999999992C118.93318728388317 27.036999999999992 118.85218728388318 27.11799999999998 118.85218728388318 27.253L118.85218728388318 27.766000000000005L118.90618728388318 27.820000000000007C118.90618728388318 27.820000000000007 120.63419728388318 27.766000000000005 121.33618728388319 27.766000000000005C121.98418728388319 27.766000000000005 124.92718728388319 27.820000000000007 124.92718728388319 27.820000000000007L124.98118728388319 27.766000000000005L124.98118728388319 27.253C124.98118728388319 27.11800000000001 124.87318728388318 27.036999999999992 124.7651872838832 27.036999999999992L123.98218728388319 26.98299999999999C122.98319728388319 26.902 122.6321872838832 26.30799999999998 122.9021872838832 25.632999999999996 " id="path5684"></path></g>
</svg>