<?xml version="1.0" encoding="UTF-8" standalone="no"?>
<svg
	xmlns="http://www.w3.org/2000/svg"
	xmlns:dc="http://purl.org/dc/elements/1.1/"
	xmlns:cc="http://creativecommons.org/ns#"
	xmlns:rdf="http://www.w3.org/1999/02/22-rdf-syntax-ns#"
	xmlns:svg="http://www.w3.org/2000/svg"
	xmlns:xlink="http://www.w3.org/1999/xlink"
	xmlns:sodipodi="http://sodipodi.sourceforge.net/DTD/sodipodi-0.dtd"
	xmlns:inkscape="http://www.inkscape.org/namespaces/inkscape"
	version="1.1"
	viewBox="0 0 138.99099999999999 41.71848612182089">
	<path id="Wikipedia" d="M29.844 10.287000000000006C29.844 10.287000000000006 26.641 10.277000000000001 25.215 10.287000000000006L25.144 10.337999999999994L25.144 10.834000000000003C25.144 10.894999999999996 25.169999999999998 10.942999999999998 25.222 10.980000000000004C25.275 11.019000000000005 25.329 11.039000000000001 25.387 11.039000000000001L25.616 11.063999999999993C26.198999999999998 11.087999999999994 26.467 11.241 26.547 11.337000000000003C26.686 11.507000000000005 26.755 11.691000000000003 26.418 12.426000000000002L20.438 24.35300000000001L20.281 24.312000000000012C20.281 24.312000000000012 15.998 15.281000000000006 14.758 12.260000000000005C14.629 11.947000000000003 14.571 11.715000000000003 14.571 11.572000000000003C14.571 11.265 14.847999999999999 11.099000000000004 15.402 11.075999999999993L16.048000000000002 11.049000000000007C16.219 11.049000000000007 16.305999999999997 10.983000000000004 16.305999999999997 10.846000000000004L16.305999999999997 10.349999999999994L16.247999999999998 10.299000000000007C16.247999999999998 10.299000000000007 11.118 10.293000000000006 10.058 10.299000000000007L10 10.349999999999994L10 10.870999999999995C10 10.965000000000003 10.119 11.022999999999996 10.358 11.049000000000007C11.009 11.084000000000003 11.437 11.188000000000002 11.642999999999999 11.361000000000004C11.847999999999999 11.536000000000001 12.065 11.977999999999994 12.353 12.667000000000002C13.91 16.406999999999996 17.218 23.08099999999999 18.829 26.882000000000005C19.293 27.919999999999987 19.876 28.08099999999999 20.584 26.849999999999994C21.81 24.575999999999993 25.134 17.632000000000005 25.134 17.632000000000005L27.752 12.736000000000004C28.057 12.218999999999994 28.351 11.757999999999996 28.5 11.543000000000006C28.773 11.150000000000006 28.926 11.075999999999993 29.672 11.040999999999997C29.823999999999998 11.040999999999997 29.901 10.972999999999999 29.901 10.835999999999999L29.901 10.340000000000003L29.844 10.287000000000006L29.844 10.287000000000006ZM122.16599 17.68732L119.65152 17.68732L119.65152 12.348910000000004C119.65151 12.019710000000003 119.73441 11.743899999999996 119.9002 11.521439999999998C120.06599 11.299040000000005 120.31467 11.183359999999993 120.64626 11.174440000000004L123.54757 11.174440000000004C124.54633 11.180580000000006 125.24978 11.435280000000006 125.65794 11.938509999999994C126.06607 12.441770000000005 126.4034 13.15692 126.66994 14.083889999999997C127.0098 14.126170000000002 127.31375 14.081680000000006 127.58179 13.950429999999997C127.49945 13.32374 127.38777 12.568560000000005 127.24675 11.684929999999994C127.1057 10.801329999999993 127.01475 10.266390000000001 126.97389 10.080079999999995C126.97848 10.026719999999997 126.94164 10.000029999999995 126.86336 10C126.64287 10.039510000000007 126.44139 10.06729 126.25892 10.08341C126.07643 10.099559999999997 125.82659 10.107330000000005 125.50941 10.106769999999997L118.46336 10.106769999999997C118.40118 10.10624 117.9798 10.100660000000005 117.19921 10.090090000000004C116.41862 10.079539999999994 115.65183999999999 10.06729 114.89888 10.053389999999993C114.81599 10.150149999999996 114.77454 10.296949999999995 114.77454 10.493809999999996C114.77454 10.690669999999997 114.81599 10.83748 114.89888 10.934209999999993C115.84526 10.932019999999994 116.4877 11.069909999999993 116.82619 11.347939999999994C117.16467 11.626000000000005 117.32355 12.29777 117.30283 13.363200000000006L117.30283 24.066730000000007C117.32355 25.13219000000001 117.16467 25.80395999999999 116.82619 26.081979999999987C116.4877 26.360039999999998 115.84526 26.497929999999997 114.89888 26.495720000000006C114.81599 26.592479999999995 114.77454 26.73929000000001 114.77454 26.936139999999995C114.77454 27.13300000000001 114.81599 27.279809999999998 114.89888 27.376569999999987C115.6409 27.362660000000005 116.40883 27.35041000000001 117.20267 27.33986999999999C117.9965 27.32929999999999 118.42594 27.32372000000001 118.49099 27.323180000000008L124.43178 27.323180000000008C125.1594 27.325400000000002 125.91467 27.33429000000001 126.69757 27.349880000000013C127.48046 27.365440000000007 127.90414 27.374329999999986 127.96863 27.376569999999987C128.16664 26.69201000000001 128.35775999999998 25.95241999999999 128.54198 25.157790000000006C128.72618 24.36312000000001 128.87585 23.616860000000003 128.99099999999999 22.918980000000005C128.70592 22.75304 128.38355 22.708569999999995 128.02389 22.785520000000005C127.76253 23.772019999999998 127.35266 24.59503000000001 126.79428 25.254549999999995C126.23588 25.914060000000006 125.43917 26.256609999999995 124.40415 26.28218000000001L120.64626 26.28218000000001C120.33885 26.27940000000001 120.09707 26.178179999999998 119.92092 25.978550000000013C119.74477 25.77892 119.65496 25.49754999999999 119.65152 25.13443000000001L119.65152 18.701629999999994L122.16599 18.701629999999994C123.29312 18.70219 123.99542 18.854550000000003 124.27289999999999 19.158739999999995C124.55036 19.462900000000005 124.68621 19.915580000000006 124.68047 20.516689999999997C124.78062 20.596770000000006 124.9326 20.636809999999997 125.13639 20.636809999999997C125.34016 20.636809999999997 125.49213 20.596770000000006 125.59231 20.516689999999997C125.57791 20.066820000000007 125.56524 19.67201 125.55432 19.332210000000003C125.54337 18.992469999999997 125.53761 18.604309999999998 125.53705 18.167779999999993C125.53761 17.725139999999996 125.54337 17.329210000000003 125.55432 16.97999C125.56525 16.63078 125.57791 16.261539999999997 125.59231 15.872259999999997C125.49213 15.792209999999997 125.34016 15.752170000000007 125.13639 15.752139999999997C124.9326 15.752170000000007 124.78062 15.792209999999997 124.68047 15.872259999999997C124.68621 16.590180000000004 124.55036 17.076189999999997 124.27289999999999 17.330309999999997C123.99542 17.58444 123.29312 17.703469999999996 122.16599 17.68732L122.16599 17.68732ZM32.226995 24.732249999999993L32.226995 16.268590000000003C32.211059 15.426119999999997 32.333203 14.894930000000002 32.593426 14.675060000000002C32.85364 14.455219999999997 33.347525000000005 14.346180000000004 34.075082 14.347909999999999C34.138802 14.271420000000006 34.170666 14.155330000000006 34.170671999999996 13.999669999999995C34.170666 13.844009999999997 34.138803 13.727919999999997 34.075082 13.651409999999998C33.572339 13.662409999999994 33.117399 13.6721 32.710259 13.680430000000001C32.303109 13.688789999999997 31.837547999999998 13.693200000000004 31.313572999999998 13.693619999999996C30.801098 13.693200000000004 30.344387 13.688789999999997 29.943438999999998 13.680430000000001C29.542488 13.6721 29.085777 13.662409999999994 28.573306 13.651409999999998C28.509578 13.727919999999997 28.477715 13.844009999999997 28.477715 13.999669999999995C28.477715 14.155330000000006 28.509579 14.271420000000006 28.573306 14.347909999999999C29.300857 14.346180000000004 29.794741 14.455219999999997 30.054962 14.675060000000002C30.315179 14.894930000000002 30.437321999999998 15.426119999999997 30.421393 16.268590000000003L30.421393 24.732249999999993C30.437321999999998 25.574749999999995 30.315179 26.105940000000004 30.054962 26.32578000000001C29.794741 26.545649999999995 29.300856 26.654689999999988 28.573306 26.65294C28.509578 26.729450000000014 28.477715 26.845529999999997 28.477715 27.00120000000001C28.477715 27.156859999999995 28.509579 27.272940000000006 28.573306 27.349459999999993C29.076041 27.338459999999998 29.530981999999998 27.32876999999999 29.938129 27.320429999999988C30.345272 27.31208000000001 30.810834 27.30766 31.334815 27.307240000000007C31.847284 27.30766 32.303994 27.31208000000001 32.704948 27.320429999999988C33.105892999999995 27.32876999999999 33.562604 27.338459999999998 34.075082 27.349459999999993C34.138802 27.272940000000006 34.170666 27.156859999999995 34.170671999999996 27.00120000000001C34.170666 26.845529999999997 34.138803 26.729450000000014 34.075082 26.65294C33.347525000000005 26.654689999999988 32.85364 26.545649999999995 32.593424999999996 26.32578000000001C32.333202 26.105940000000004 32.211059 25.574749999999995 32.226995 24.732249999999993L32.226995 24.732249999999993ZM41.507339 14.136859999999999C42.98279 14.138639999999995 44.190064 14.69444 45.129164 15.804270000000002C46.068242 16.914119999999997 46.553276 18.567440000000005 46.584267 20.764269999999996C46.558587 22.668679999999995 46.153211 24.146989999999988 45.36814 25.199240000000003C44.583047 26.251470000000012 43.572265 26.785300000000007 42.335792 26.80068C41.010792 26.78748999999999 39.853084 26.228170000000006 38.862663 25.12272999999999C37.872233 24.017290000000003 37.351796 22.444860000000006 37.301349 20.405450000000002C37.35578 18.205129999999997 37.815146 16.606319999999997 38.679448 15.609030000000004C39.543742 14.611760000000004 40.486371 14.121030000000005 41.507339 14.136859999999999L41.507339 14.136859999999999ZM37.428803 30.536519999999996L38.257255 30.95863C38.48782 30.481979999999993 38.759545 30.153070000000014 39.072432 29.97191000000001C39.385309 29.790760000000006 39.630481 29.704559999999987 39.807949 29.713359999999994C40.453737 29.73812000000001 41.06688 29.911399999999986 41.647381 30.233190000000008C42.227866999999996 30.55501000000001 42.852025 30.87682000000001 43.519857 31.19863000000001C44.187671 31.52042 44.975474 31.69371000000001 45.883268 31.718469999999996C46.544425 31.720220000000012 47.117969 31.579499999999996 47.603901 31.296339999999987C48.089807 31.013149999999996 48.535896 30.576960000000014 48.94217 29.987740000000002L48.58105 29.734460000000013C48.338076 30.016320000000007 48.048649 30.217700000000008 47.712768 30.338639999999998C47.37686 30.45956000000001 47.050259 30.518470000000008 46.732963 30.515410000000003C46.114563 30.49403000000001 45.498534 30.34447 44.884877 30.066699999999997C44.271198 29.78891999999999 43.631567 29.51115999999999 42.965982 29.233390000000014C42.300379 28.955610000000007 41.580499 28.80605 40.80634 28.784690000000012C40.678171999999996 28.784690000000012 40.537265 28.795240000000007 40.383618 28.81635C40.913077 28.437119999999993 41.419176 28.133909999999986 41.901916 27.906650000000013C42.384641 27.679419999999993 42.802584 27.517590000000013 43.155748 27.4212C44.848223 27.126589999999993 46.177995 26.354469999999992 47.145065 25.104780000000005C48.112111 23.855099999999993 48.604933 22.274590000000003 48.623535 20.363240000000005C48.570857 18.24557 47.895527 16.56586 46.597543 15.324089999999998C45.299534 14.082350000000005 43.694852 13.447389999999999 41.78349 13.419240000000002C39.848214999999996 13.466750000000005 38.286017 14.1738 37.09689 15.54043C35.907758 16.907070000000004 35.296155999999996 18.648349999999994 35.26208 20.764269999999996C35.299962 22.69211 35.85722 24.23964000000001 36.933856 25.406859999999995C38.010486 26.574099999999987 39.379202 27.261020000000002 41.040007 27.467630000000014C40.26461 27.880840000000006 39.559983 28.364620000000002 38.926124 28.91897C38.292257 29.473309999999998 37.79315 30.01249999999999 37.428803 30.536519999999996L37.428803 30.536519999999996ZM55.233756 10.04222C54.87294 10.165580000000006 54.561651 10.307779999999994 54.299888 10.468819999999994C54.038116 10.629909999999995 53.811265 10.804310000000001 53.619336 10.992019999999997L56.890662 12.321709999999996C57.113256 12.415379999999999 57.300011 12.481340000000003 57.450929 12.519589999999994C57.60183 12.557850000000002 57.719548 12.576319999999996 57.804084 12.57499C57.8917 12.57235 57.966048 12.540689999999998 58.027128 12.480009999999993C58.088191 12.419330000000002 58.120055 12.345460000000003 58.122719 12.258390000000006C58.124038 12.185850000000002 58.100141 12.114609999999999 58.051026 12.044690000000003C58.001894 11.974779999999996 57.919579999999996 11.898269999999997 57.804084 11.815150000000003L55.233756 10.04222ZM53.024549 16.268590000000003C53.003746 15.426119999999997 53.125004 14.894930000000002 53.388325 14.675060000000002C53.651638 14.455219999999997 54.181810999999996 14.346180000000004 54.978848 14.347909999999999C55.042569 14.271420000000006 55.074432 14.155330000000006 55.074438 13.999669999999995C55.074433 13.844009999999997 55.042569 13.727919999999997 54.978848 13.651409999999998C54.474336 13.662409999999994 54.007005 13.6721 53.576851 13.680430000000001C53.146689 13.688789999999997 52.658115 13.693200000000004 52.111126999999996 13.693619999999996C51.644677 13.693200000000004 51.233992 13.688789999999997 50.879069 13.680430000000001C50.524143 13.6721 50.092216 13.662409999999994 49.583284 13.651409999999998C49.519557 13.727919999999997 49.487693 13.844009999999997 49.487693 13.999669999999995C49.487693 14.155330000000006 49.519557 14.271420000000006 49.583284 14.347909999999999C50.209049 14.346180000000004 50.640977 14.455219999999997 50.879069 14.675060000000002C51.117159 14.894930000000002 51.230451 15.426119999999997 51.218947 16.268590000000003L51.218947 22.326139999999995C51.244908 23.74573000000001 51.53286 24.83232000000001 52.082803 25.585890000000006C52.632741 26.339460000000003 53.288894 26.853829999999988 54.051263999999996 27.12899999999999C54.813624 27.40415999999999 55.526423 27.533929999999998 56.189663 27.518290000000007C58.319645 27.484880000000004 59.763239999999996 26.881580000000014 60.520452 25.708439999999996C61.277643 24.535259999999994 61.632567 22.99275 61.585226 21.080839999999995L61.585226 16.268590000000003C61.573707999999996 15.431399999999996 61.687001 14.910759999999996 61.925105 14.706720000000004C62.163183 14.502709999999993 62.595111 14.383110000000002 63.220889 14.347909999999999C63.284602 14.271420000000006 63.316466 14.155330000000006 63.31648 13.999669999999995C63.316466 13.844009999999997 63.284603 13.727919999999997 63.220889 13.651409999999998C62.728318 13.662409999999994 62.3433 13.6721 62.065835 13.680430000000001C61.788344 13.688789999999997 61.451122 13.693200000000004 61.054167 13.693619999999996C60.599658 13.693200000000004 60.202249 13.688789999999997 59.861939 13.680430000000001C59.521608 13.6721 59.097646 13.662409999999994 58.590052 13.651409999999998C58.526315 13.727919999999997 58.494451 13.844009999999997 58.494461 13.999669999999995C58.494452 14.155330000000006 58.526315 14.271420000000006 58.590052 14.347909999999999C59.368486 14.383110000000002 59.893349 14.502709999999993 60.164643 14.706720000000004C60.435914 14.910759999999996 60.562483 15.431399999999996 60.54435 16.268590000000003L60.54435 21.460759999999993C60.605852999999996 22.711330000000004 60.403166 23.872179999999986 59.936287 24.94332C59.469387 26.014460000000014 58.36921 26.584339999999997 56.635753 26.65294C56.124292 26.64708999999999 55.655456 26.547449999999998 55.229242 26.35401999999999C54.803017 26.16058000000001 54.42924 25.90845999999999 54.10791 25.59763000000001C53.607383 25.084039999999987 53.296713 24.470190000000002 53.175901 23.75609C53.055081 23.04199 53.004630999999996 22.333169999999996 53.024549 21.629620000000003L53.024549 16.268590000000003ZM67.451622 24.732249999999993L67.451622 16.268590000000003C67.435686 15.426119999999997 67.55783 14.894930000000002 67.818053 14.675060000000002C68.078267 14.455219999999997 68.572152 14.346180000000004 69.299709 14.347909999999999C69.363429 14.271420000000006 69.395293 14.155330000000006 69.395299 13.999669999999995C69.395293 13.844009999999997 69.36343 13.727919999999997 69.299709 13.651409999999998C68.796966 13.662409999999994 68.342026 13.6721 67.934886 13.680430000000001C67.527736 13.688789999999997 67.062175 13.693200000000004 66.5382 13.693619999999996C66.025724 13.693200000000004 65.56901400000001 13.688789999999997 65.16806600000001 13.680430000000001C64.76711499999999 13.6721 64.310405 13.662409999999994 63.797933 13.651409999999998C63.734205 13.727919999999997 63.702342 13.844009999999997 63.702342 13.999669999999995C63.702342 14.155330000000006 63.734206 14.271420000000006 63.797933 14.347909999999999C64.525484 14.346180000000004 65.019368 14.455219999999997 65.279589 14.675060000000002C65.539806 14.894930000000002 65.66194899999999 15.426119999999997 65.64602 16.268590000000003L65.64602 24.732249999999993C65.66194899999999 25.574749999999995 65.539806 26.105940000000004 65.279589 26.32578000000001C65.019368 26.545649999999995 64.52548300000001 26.654689999999988 63.797933 26.65294C63.734205 26.729450000000014 63.702342 26.845529999999997 63.702342 27.00120000000001C63.702342 27.156859999999995 63.734206 27.272940000000006 63.797933 27.349459999999993C64.300668 27.338459999999998 64.755608 27.32876999999999 65.162756 27.320429999999988C65.56989899999999 27.31208000000001 66.035461 27.30766 66.559442 27.307240000000007C67.071911 27.30766 67.528621 27.31208000000001 67.929575 27.320429999999988C68.33051999999999 27.32876999999999 68.787231 27.338459999999998 69.299709 27.349459999999993C69.363429 27.272940000000006 69.395293 27.156859999999995 69.395299 27.00120000000001C69.395293 26.845529999999997 69.36343 26.729450000000014 69.299709 26.65294C68.572152 26.654689999999988 68.078267 26.545649999999995 67.818053 26.32578000000001C67.557829 26.105940000000004 67.435686 25.574749999999995 67.451622 24.732249999999993L67.451622 24.732249999999993ZM73.715549 15.614310000000003C73.696957 15.290239999999997 73.81379 14.988600000000005 74.066048 14.709360000000004C74.318296 14.43016 74.817492 14.281530000000004 75.563636 14.263499999999993C76.327026 14.227900000000005 76.998815 14.420490000000001 77.579005 14.841279999999998C78.159179 15.262100000000004 78.464538 16.124809999999997 78.495083 17.429460000000006C78.491975 18.560419999999993 78.222022 19.380030000000005 77.685218 19.88834C77.148397 20.396649999999994 76.363315 20.646429999999995 75.329969 20.63763C75.044963 20.63718 74.738718 20.627520000000004 74.411237 20.608599999999996C74.083745 20.589690000000004 73.85185 20.5642 73.715549 20.532089999999997L73.715549 15.614310000000003ZM71.909947 16.268590000000003L71.909947 24.732249999999993C71.925877 25.574749999999995 71.803732 26.105940000000004 71.543515 26.32578000000001C71.283295 26.545649999999995 70.78941 26.654689999999988 70.06186 26.65294C69.998132 26.729450000000014 69.966268 26.845529999999997 69.966268 27.00120000000001C69.966268 27.156859999999995 69.998132 27.272940000000006 70.06186 27.349459999999993C70.564595 27.338459999999998 71.019536 27.32876999999999 71.426683 27.320429999999988C71.833826 27.31208000000001 72.299388 27.30766 72.823368 27.307240000000007C73.404875 27.30766 73.930624 27.31208000000001 74.400616 27.320429999999988C74.870599 27.32876999999999 75.364482 27.338459999999998 75.882271 27.349459999999993C75.945991 27.272940000000006 75.977855 27.156859999999995 75.977861 27.00120000000001C75.977855 26.845529999999997 75.945991 26.729450000000014 75.882271 26.65294C75.067089 26.645460000000014 74.498857 26.533770000000004 74.17757 26.31787C73.856275 26.101969999999994 73.702268 25.573440000000005 73.715549 24.732249999999993L73.715549 21.14416C73.945228 21.217619999999997 74.197481 21.271249999999995 74.472307 21.305099999999996C74.747126 21.338980000000006 75.068417 21.355670000000003 75.43618 21.355230000000006C77.337365 21.287959999999998 78.659703 20.794600000000003 79.403194 19.875150000000005C80.146667 18.95572 80.502477 18.013840000000002 80.470624 17.049539999999993C80.517965 16.358760000000004 80.216148 15.619140000000002 79.565167 14.83072C78.914169 14.042330000000007 77.629891 13.614050000000006 75.712332 13.545879999999997C75.40254 13.552040000000005 74.954681 13.576669999999993 74.368752 13.619749999999996C73.782811 13.662850000000006 73.260603 13.687479999999994 72.802125 13.693619999999996C72.289651 13.693200000000004 71.83294 13.688789999999997 71.431994 13.680430000000001C71.031041 13.6721 70.57433 13.662409999999994 70.06186 13.651409999999998C69.998132 13.727919999999997 69.966268 13.844009999999997 69.966268 13.999669999999995C69.966268 14.155330000000006 69.998132 14.271420000000006 70.06186 14.347909999999999C70.78941 14.346180000000004 71.283295 14.455219999999997 71.543515 14.675060000000002C71.803732 14.894930000000002 71.925877 15.426119999999997 71.909947 16.268590000000003L71.909947 16.268590000000003ZM88.420728 10L85.786673 11.815150000000003C85.652577 11.907520000000005 85.564951 11.986670000000004 85.5238 12.052599999999998C85.482638 12.118579999999994 85.464051 12.187179999999998 85.46803799999999 12.258390000000006C85.469361 12.345460000000003 85.49857 12.419330000000002 85.555664 12.480009999999993C85.612747 12.540689999999998 85.689752 12.57235 85.786673 12.57499C85.879604 12.576319999999996 85.996436 12.557850000000002 86.137173 12.519589999999994C86.277899 12.481340000000003 86.458459 12.415379999999999 86.678854 12.321709999999996L89.73775499999999 11.097530000000006C89.467614 10.647279999999995 89.028605 10.281440000000003 88.420728 10L88.420728 10ZM86.785065 19.687830000000005L84.85200999999999 19.687830000000005L84.85200999999999 15.466560000000001C84.852005 15.206249999999997 84.915733 14.988159999999993 85.043191 14.812259999999995C85.170641 14.636390000000006 85.361823 14.544920000000005 85.616734 14.537869999999998L87.847185 14.537869999999998C88.615 14.542720000000003 89.155796 14.744119999999995 89.469571 15.142049999999998C89.783329 15.539990000000003 90.042664 16.10548 90.247572 16.83847C90.508844 16.87191 90.742509 16.83672 90.948571 16.73294C90.885277 16.237399999999994 90.79942199999999 15.640249999999995 90.691006 14.94153C90.582573 14.242840000000001 90.512651 13.81984 90.481239 13.672520000000006C90.48477 13.63033 90.456447 13.609219999999993 90.396269 13.609200000000001C90.226763 13.640439999999998 90.071872 13.662409999999994 89.931592 13.675160000000005C89.791295 13.687929999999994 89.599228 13.694069999999996 89.355394 13.693619999999996L83.938586 13.693619999999996C83.890788 13.693200000000004 83.566842 13.688789999999997 82.966748 13.680430000000001C82.366649 13.6721 81.777174 13.662409999999994 81.19832099999999 13.651409999999998C81.134593 13.727919999999997 81.102729 13.844009999999997 81.102729 13.999669999999995C81.102729 14.155330000000006 81.134593 14.271420000000006 81.19832099999999 14.347909999999999C81.925871 14.346180000000004 82.419756 14.455219999999997 82.679976 14.675060000000002C82.940192 14.894930000000002 83.062338 15.426119999999997 83.046408 16.268590000000003L83.046408 24.732249999999993C83.062338 25.574749999999995 82.940192 26.105940000000004 82.679976 26.32578000000001C82.419756 26.545649999999995 81.925871 26.654689999999988 81.19832099999999 26.65294C81.134593 26.729450000000014 81.102729 26.845529999999997 81.102729 27.00120000000001C81.102729 27.156859999999995 81.134593 27.272940000000006 81.19832099999999 27.349459999999993C81.768767 27.338459999999998 82.359125 27.32876999999999 82.969403 27.320429999999988C83.579677 27.31208000000001 83.909817 27.30766 83.959829 27.307240000000007L88.526941 27.307240000000007C89.086315 27.308989999999994 89.666938 27.31602000000001 90.268815 27.32835C90.870672 27.34065000000001 91.196388 27.347679999999997 91.245964 27.349459999999993C91.398191 26.808150000000012 91.545118 26.223330000000004 91.68674299999999 25.594989999999996C91.828348 24.966620000000006 91.943411 24.37652 92.031931 23.824690000000004C91.812771 23.692409999999995 91.564944 23.657250000000005 91.288449 23.719150000000013C91.08752199999999 24.499210000000005 90.772427 25.150000000000006 90.343162 25.67150000000001C89.91388 26.193000000000012 89.301393 26.46386000000001 88.505698 26.484080000000006L85.616734 26.484080000000006C85.380408 26.481889999999993 85.194539 26.401849999999996 85.059121 26.244C84.923697 26.08614 84.854661 25.863650000000007 84.85200999999999 25.576519999999988L84.85200999999999 20.48988L86.785065 20.48988C87.65157 20.490319999999997 88.191479 20.610799999999998 88.404796 20.851330000000004C88.618098 21.091840000000005 88.722539 21.449789999999993 88.718121 21.925110000000004C88.795117 21.988429999999994 88.91194899999999 22.020089999999996 89.06862 22.020089999999996C89.225274 22.020089999999996 89.342109 21.988429999999994 89.41912 21.925110000000004C89.408048 21.569379999999995 89.39831 21.257189999999994 89.389911 20.988500000000002C89.381495 20.719859999999997 89.37707 20.412930000000003 89.376634 20.067750000000004C89.37707 19.717740000000006 89.381495 19.404660000000007 89.38991299999999 19.128519999999995C89.398312 18.852379999999997 89.408048 18.560419999999993 89.41912 18.2526C89.342109 18.189300000000003 89.225274 18.15764 89.06862 18.157619999999994C88.91194899999999 18.15764 88.795117 18.189300000000003 88.718121 18.2526C88.722539 18.820279999999997 88.618098 19.204589999999996 88.404796 19.40553C88.191479 19.606480000000005 87.65157 19.700599999999994 86.785065 19.687830000000005L86.785065 19.687830000000005ZM96.701754 25.555409999999995L96.701754 15.403239999999997C96.711043 15.036959999999993 96.878327 14.772260000000003 97.203605 14.609099999999998C97.528875 14.445989999999995 97.956377 14.365960000000001 98.486113 14.369020000000006C100.005855 14.394580000000005 101.212473 14.753900000000002 102.10597 15.447019999999995C102.99945 16.140140000000002 103.63803 17.013850000000005 104.02172 18.0681C104.40538 19.1224 104.59237 20.204030000000003 104.58267 21.313019999999995C104.53797 23.39992000000001 103.98478 24.819320000000005 102.92311 25.57123999999999C101.861428 26.32315 100.559449 26.676680000000005 99.017173 26.631830000000008C98.009925 26.629189999999994 97.36380199999999 26.53421 97.078805 26.346890000000002C96.793798 26.159570000000002 96.668116 25.89573999999999 96.701754 25.555409999999995L96.701754 25.555409999999995ZM95.788331 13.693619999999996C95.275856 13.693200000000004 94.819145 13.688789999999997 94.418199 13.680430000000001C94.017246 13.6721 93.560535 13.662409999999994 93.048065 13.651409999999998C92.984337 13.727919999999997 92.952473 13.844009999999997 92.952473 13.999669999999995C92.952473 14.155330000000006 92.984337 14.271420000000006 93.048065 14.347909999999999C93.775615 14.346180000000004 94.2695 14.455219999999997 94.529721 14.675060000000002C94.789937 14.894930000000002 94.912082 15.426119999999997 94.896152 16.268590000000003L94.896152 24.732249999999993C94.912082 25.574749999999995 94.789937 26.105940000000004 94.529721 26.32578000000001C94.2695 26.545649999999995 93.775615 26.654689999999988 93.048065 26.65294C92.984337 26.729450000000014 92.952473 26.845529999999997 92.952473 27.00120000000001C92.952473 27.156859999999995 92.984337 27.272940000000006 93.048065 27.349459999999993C93.5508 27.338459999999998 94.005741 27.32876999999999 94.412888 27.320429999999988C94.820031 27.31208000000001 95.285594 27.30766 95.809573 27.307240000000007C96.177772 27.308989999999994 96.646874 27.31602000000001 97.216882 27.32835C97.786879 27.34065000000001 98.60648 27.347679999999997 99.675687 27.349459999999993C100.70436 27.36482000000001 101.748383 27.18397999999999 102.80776 26.806929999999994C103.86711 26.429879999999997 104.76007 25.76438999999999 105.48666 24.810429999999997C106.21321 23.85647 106.59164 22.521820000000005 106.62194 20.806479999999993C106.57148 18.790819999999997 105.85986 17.10758 104.48708 15.756780000000006C103.11429 14.405969999999996 101.383033 13.704179999999994 99.293323 13.651409999999998C98.604269 13.653180000000006 97.953721 13.660210000000006 97.34168 13.672520000000006C96.729631 13.684839999999994 96.211847 13.691869999999994 95.788331 13.693619999999996L95.788331 13.693619999999996ZM111.5965 24.732249999999993L111.5965 16.268590000000003C111.58057 15.426119999999997 111.70271 14.894930000000002 111.96293 14.675060000000002C112.22315 14.455219999999997 112.71703 14.346180000000004 113.44459 14.347909999999999C113.50831 14.271420000000006 113.54017 14.155330000000006 113.54018 13.999669999999995C113.54017 13.844009999999997 113.50831 13.727919999999997 113.44459 13.651409999999998C112.94185 13.662409999999994 112.48691 13.6721 112.07977 13.680430000000001C111.67262 13.688789999999997 111.20705 13.693200000000004 110.68308 13.693619999999996C110.1706 13.693200000000004 109.71389 13.688789999999997 109.31295 13.680430000000001C108.91199 13.6721 108.45528 13.662409999999994 107.94281 13.651409999999998C107.87909 13.727919999999997 107.84722 13.844009999999997 107.84722 13.999669999999995C107.84722 14.155330000000006 107.87909 14.271420000000006 107.94281 14.347909999999999C108.67036 14.346180000000004 109.16425 14.455219999999997 109.42447 14.675060000000002C109.68469 14.894930000000002 109.80683 15.426119999999997 109.7909 16.268590000000003L109.7909 24.732249999999993C109.80683 25.574749999999995 109.68469 26.105940000000004 109.42447 26.32578000000001C109.16425 26.545649999999995 108.67036 26.654689999999988 107.94281 26.65294C107.87909 26.729450000000014 107.84722 26.845529999999997 107.84722 27.00120000000001C107.84722 27.156859999999995 107.87909 27.272940000000006 107.94281 27.349459999999993C108.44555 27.338459999999998 108.90049 27.32876999999999 109.30763 27.320429999999988C109.71478 27.31208000000001 110.18034 27.30766 110.70432 27.307240000000007C111.21679 27.30766 111.6735 27.31208000000001 112.07446 27.320429999999988C112.4754 27.32876999999999 112.93211 27.338459999999998 113.44459 27.349459999999993C113.50831 27.272940000000006 113.54017 27.156859999999995 113.54018 27.00120000000001C113.54017 26.845529999999997 113.50831 26.729450000000014 113.44459 26.65294C112.71703 26.654689999999988 112.22315 26.545649999999995 111.96293 26.32578000000001C111.70271 26.105940000000004 111.58057 25.574749999999995 111.5965 24.732249999999993L111.5965 24.732249999999993Z "></path>
</svg>