<?xml version="1.0" encoding="UTF-8" standalone="no"?>
<svg
	xmlns="http://www.w3.org/2000/svg"
	xmlns:dc="http://purl.org/dc/elements/1.1/"
	xmlns:cc="http://creativecommons.org/ns#"
	xmlns:rdf="http://www.w3.org/1999/02/22-rdf-syntax-ns#"
	xmlns:svg="http://www.w3.org/2000/svg"
	xmlns:xlink="http://www.w3.org/1999/xlink"
	xmlns:sodipodi="http://sodipodi.sourceforge.net/DTD/sodipodi-0.dtd"
	xmlns:inkscape="http://www.inkscape.org/namespaces/inkscape"
	version="1.1"
	viewBox="0 0 138.859 37.435005541655926">
	<g id="Wikipedia">
		<path id="path3898" d="M20.748 13.610444444444113C20.748 13.610444444444113 20.381 12.864444444444118 20.256 12.616444444444113C19.422 10.963444444444107 19.44 10.875444444444113 18.597 10.76444444444411C18.361 10.733444444444103 18.239 10.703444444444102 18.239 10.586444444444112V10.063444444444116L18.310000000000002 10.012444444444114C19.833000000000002 10.010444444444119 23.222 10.010444444444119 23.222 10.010444444444119L23.352 10.053444444444125V10.574444444444126C23.352 10.693444444444125 23.267 10.754444444444133 23.094 10.754444444444133L22.738 10.805444444444134C21.838 10.875444444444128 21.985 11.243444444444137 22.583 12.43444444444414L28.259999999999998 24.049444444444134L28.453999999999997 24.10244444444413L33.494 12.141444444444133C33.669 11.659444444444134 33.641999999999996 11.317444444444135 33.416999999999994 11.116444444444127C33.190999999999995 10.92044444444413 33.032 10.80444444444413 32.44799999999999 10.780444444444129L31.974999999999994 10.756444444444128C31.916999999999994 10.756444444444128 31.861999999999995 10.735444444444127 31.808999999999994 10.696444444444126C31.756999999999994 10.65944444444412 31.729999999999993 10.610444444444127 31.729999999999993 10.55144444444413V10.053444444444125L31.801999999999992 10.002444444444123C33.221999999999994 10.002444444444123 37.495999999999995 10.002444444444123 37.495999999999995 10.002444444444123L37.553999999999995 10.053444444444125V10.55144444444413C37.553999999999995 10.686444444444135 37.477 10.754444444444133 37.324999999999996 10.754444444444133C36.57899999999999 10.787444444444134 36.025999999999996 10.949444444444126 35.66799999999999 11.238444444444127C35.30899999999999 11.529444444444124 35.02899999999999 11.93044444444412 34.82799999999999 12.451444444444121C34.82799999999999 12.451444444444121 30.19299999999999 23.06044444444413 28.60699999999999 26.586444444444112C27.99999999999999 27.742444444444118 27.402999999999988 27.636444444444123 26.87799999999999 26.553444444444125C25.76899999999999 24.269444444444133 22.64599999999999 17.34044444444413 22.64599999999999 17.34044444444413L20.74799999999999 13.610444444444127Z "></path>
		<path id="path3900" d="M29.844 10.004444444444118C29.844 10.004444444444118 26.641000000000002 9.994444444444113 25.215000000000003 10.004444444444118L25.144000000000002 10.05544444444412V10.551444444444115C25.144000000000002 10.612444444444122 25.17 10.66044444444411 25.222 10.697444444444116C25.275000000000002 10.736444444444118 25.329 10.756444444444114 25.387 10.756444444444114L25.616 10.78144444444412C26.198999999999998 10.80544444444412 26.467 10.958444444444126 26.547 11.054444444444115C26.686 11.224444444444117 26.755 11.408444444444115 26.418 12.143444444444114L20.438 24.07044444444412L20.281 24.029444444444124C20.281 24.029444444444124 15.997999999999998 14.998444444444118 14.758 11.977444444444131C14.629 11.664444444444129 14.571 11.43244444444413 14.571 11.289444444444129C14.571 10.982444444444127 14.847999999999999 10.81644444444413 15.402 10.793444444444134L16.048000000000002 10.766444444444133C16.219 10.766444444444133 16.306 10.70044444444413 16.306 10.56344444444413V10.067444444444135L16.248 10.016444444444133C16.248 10.016444444444133 11.118000000000002 10.010444444444133 10.058 10.016444444444133L10 10.067444444444135V10.588444444444136C10 10.68244444444413 10.119 10.740444444444137 10.358 10.766444444444133C11.009 10.80144444444413 11.437000000000001 10.905444444444129 11.643 11.07844444444413C11.848 11.253444444444128 12.065000000000001 11.695444444444135 12.353000000000002 12.384444444444128C13.910000000000002 16.124444444444123 17.218000000000004 22.79844444444413 18.829 26.599444444444117C19.293 27.637444444444128 19.876 27.79844444444413 20.584 26.567444444444106C21.81 24.293444444444106 25.134 17.349444444444103 25.134 17.349444444444103L27.752 12.453444444444102C28.057 11.936444444444106 28.351 11.475444444444108 28.5 11.260444444444104C28.773 10.867444444444104 28.926 10.793444444444106 29.672 10.758444444444109C29.824 10.758444444444109 29.901 10.690444444444111 29.901 10.55344444444411V10.057444444444116L29.844 10.004444444444118Z "></path>
		<path id="path3902" d="M23.526 21.406444444444105C23.506 21.472444444444108 23.714 21.69944444444411 23.779 21.719444444444107L23.934 21.62144444444411C23.998 21.641444444444105 24.137 21.58044444444411 24.157 21.516444444444105L24.184 21.25244444444411L23.905 19.948444444444107C23.854000000000003 19.881444444444114 23.815 19.930444444444106 23.798000000000002 19.991444444444113L23.526000000000003 21.40644444444412Z " style="fill:#ffffff"></path>
		<path id="path3904" d="M39.583 25.487444444444122C39.583 26.059444444444125 39.842999999999996 26.39744444444412 40.675 26.475444444444122L41.221 26.52844444444412C41.299 26.52844444444412 41.376999999999995 26.579444444444107 41.376999999999995 26.68344444444412V27.229444444444113L41.35099999999999 27.28244444444411C41.35099999999999 27.28244444444411 39.37499999999999 27.229444444444113 38.56899999999999 27.229444444444113C37.84099999999999 27.229444444444113 35.81299999999999 27.28244444444411 35.81299999999999 27.28244444444411L35.76099999999999 27.229444444444113V26.68344444444412C35.76099999999999 26.579444444444107 35.83899999999999 26.52844444444412 35.94299999999999 26.52844444444412L36.462999999999994 26.475444444444122C37.32099999999999 26.39744444444412 37.580999999999996 25.981444444444122 37.580999999999996 25.487444444444122V16.82944444444412C37.580999999999996 16.258444444444123 37.267999999999994 16.100444444444122 36.462999999999994 16.024444444444114L35.94299999999999 15.970444444444112C35.83899999999999 15.970444444444112 35.76099999999999 15.946444444444111 35.76099999999999 15.866444444444113V15.26744444444411L35.78699999999999 15.215444444444103C35.78699999999999 15.215444444444103 37.840999999999994 15.26744444444411 38.64699999999999 15.26744444444411C39.34899999999999 15.26744444444411 41.35099999999999 15.215444444444103 41.35099999999999 15.215444444444103L41.376999999999995 15.26744444444411V15.839444444444112C41.376999999999995 15.917444444444115 41.324999999999996 15.969444444444107 41.221 15.969444444444107L40.675 16.022444444444105C39.869 16.099444444444103 39.583 16.308444444444106 39.583 16.829444444444107V25.487444444444094Z "></path>
		<path id="path3906" d="M47.256 25.487444444444122C47.256 26.059444444444125 47.594 26.345444444444126 48.348 26.475444444444122L48.634 26.52844444444412C48.712 26.553444444444125 48.79 26.579444444444107 48.79 26.68344444444412V27.229444444444113L48.763999999999996 27.28244444444411C48.763999999999996 27.28244444444411 47.126 27.229444444444113 46.346 27.229444444444113C45.617999999999995 27.229444444444113 43.486 27.28244444444411 43.486 27.28244444444411L43.434 27.229444444444113V26.68344444444412C43.434 26.579444444444107 43.512 26.52844444444412 43.616 26.52844444444412L44.136 26.475444444444122C44.916000000000004 26.39744444444412 45.254000000000005 25.981444444444122 45.254000000000005 25.487444444444122V16.82944444444412C45.254000000000005 16.258444444444123 44.968 16.100444444444122 44.136 16.024444444444114L43.616 15.970444444444112C43.512 15.970444444444112 43.434 15.946444444444111 43.434 15.866444444444113V15.26744444444411L43.46 15.215444444444103C43.46 15.215444444444103 45.592 15.26744444444411 46.398 15.26744444444411C47.127 15.26744444444411 48.764 15.215444444444103 48.764 15.215444444444103L48.790000000000006 15.26744444444411V15.839444444444112C48.790000000000006 15.917444444444115 48.73800000000001 15.943444444444111 48.63400000000001 15.969444444444107L48.348000000000006 16.022444444444105C47.54200000000001 16.177444444444106 47.25600000000001 16.308444444444106 47.25600000000001 16.829444444444107V20.75544444444411C48.114000000000004 20.75544444444411 48.608000000000004 20.314444444444106 49.75200000000001 19.091444444444107C50.79200000000001 17.94644444444411 51.59800000000001 16.986444444444103 51.59800000000001 16.491444444444113C51.59800000000001 16.28244444444411 51.36400000000001 16.04944444444412 50.844000000000015 15.970444444444112C50.740000000000016 15.945444444444107 50.68800000000002 15.918444444444106 50.68800000000002 15.840444444444117V15.241444444444113L50.71400000000002 15.216444444444107C50.71400000000002 15.216444444444107 52.82000000000002 15.268444444444114 53.57400000000002 15.268444444444114C54.25000000000002 15.268444444444114 55.39400000000002 15.216444444444107 55.39400000000002 15.216444444444107L55.47200000000002 15.241444444444113V15.840444444444117C55.47200000000002 15.91844444444412 55.39400000000002 15.970444444444112 55.264000000000024 15.970444444444112C54.25000000000002 16.048444444444115 53.54800000000002 16.100444444444108 52.61200000000002 17.16644444444411L50.376000000000026 19.739444444444104C49.934000000000026 20.208444444444098 49.77800000000003 20.49344444444411 49.77800000000003 20.702444444444097C49.77800000000003 20.858444444444103 49.882000000000026 20.987444444444094 50.01200000000003 21.1434444444441L53.93800000000003 25.8754444444441C54.25000000000003 26.2384444444441 54.87400000000003 26.39544444444411 55.394000000000034 26.49844444444409L55.524000000000036 26.523444444444095C55.60200000000004 26.549444444444106 55.70600000000004 26.6014444444441 55.70600000000004 26.6794444444441V27.225444444444094L55.628000000000036 27.251444444444104C55.628000000000036 27.251444444444104 54.250000000000036 27.225444444444094 53.522000000000034 27.225444444444094C52.872000000000035 27.225444444444094 51.936000000000035 27.251444444444104 51.936000000000035 27.251444444444104L51.91000000000003 27.225444444444094V26.91344444444408C51.91000000000003 26.574444444444083 51.88400000000003 26.29044444444409 51.52000000000003 25.874444444444094L48.63400000000003 22.285444444444096C48.24400000000003 21.764444444444095 47.82800000000003 21.636444444444095 47.25600000000003 21.636444444444095V25.487444444444094L47.25600000000003 25.487444444444094Z "></path>
		<path id="path3908" d="M61.272999999999996 25.487444444444122C61.272999999999996 26.059444444444125 61.532999999999994 26.39744444444412 62.364999999999995 26.475444444444122L62.910999999999994 26.52844444444412C62.989 26.52844444444412 63.06699999999999 26.579444444444107 63.06699999999999 26.68344444444412V27.229444444444113L63.04099999999999 27.28244444444411C63.04099999999999 27.28244444444411 61.06499999999999 27.229444444444113 60.258999999999986 27.229444444444113C59.530999999999985 27.229444444444113 57.502999999999986 27.28244444444411 57.502999999999986 27.28244444444411L57.450999999999986 27.229444444444113V26.68344444444412C57.450999999999986 26.579444444444107 57.52899999999999 26.52844444444412 57.63299999999999 26.52844444444412L58.15299999999999 26.475444444444122C59.01099999999999 26.39744444444412 59.270999999999994 25.981444444444122 59.270999999999994 25.487444444444122V16.82944444444412C59.270999999999994 16.258444444444123 58.958999999999996 16.100444444444122 58.15299999999999 16.024444444444114L57.63299999999999 15.970444444444112C57.52899999999999 15.970444444444112 57.450999999999986 15.946444444444111 57.450999999999986 15.866444444444113V15.26744444444411L57.47699999999999 15.215444444444103C57.47699999999999 15.215444444444103 59.53099999999999 15.26744444444411 60.33699999999999 15.26744444444411C61.03899999999999 15.26744444444411 63.04099999999999 15.215444444444103 63.04099999999999 15.215444444444103L63.06699999999999 15.26744444444411V15.839444444444112C63.06699999999999 15.917444444444115 63.01499999999999 15.969444444444107 62.910999999999994 15.969444444444107L62.364999999999995 16.022444444444105C61.559 16.099444444444103 61.272999999999996 16.308444444444106 61.272999999999996 16.829444444444107V25.487444444444094Z "></path>
		<path id="path3910" d="M66.89099999999999 16.88044444444411C66.89099999999999 16.07444444444411 66.553 16.048444444444115 65.33099999999999 15.970444444444112C65.175 15.970444444444112 65.149 15.893444444444114 65.149 15.840444444444117V15.242444444444118L65.201 15.216444444444122C65.591 15.216444444444122 67.125 15.268444444444128 67.87899999999999 15.268444444444128C68.607 15.268444444444128 69.64699999999999 15.216444444444122 70.60900000000001 15.216444444444122C74.299 15.216444444444122 74.975 17.035444444444124 74.975 18.389444444444123C74.975 19.950444444444116 74.221 22.39344444444413 70.531 22.39344444444413C69.881 22.39344444444413 69.36099999999999 22.34044444444413 68.892 22.133444444444123V25.615444444444137C68.892 26.18744444444414 69.20400000000001 26.31844444444414 70.037 26.44744444444413L70.55799999999999 26.525444444444133C70.662 26.551444444444144 70.74000000000001 26.57844444444413 70.74000000000001 26.68144444444414V27.22744444444413L70.715 27.279444444444124C70.715 27.279444444444124 68.63499999999999 27.22744444444413 67.82900000000001 27.22744444444413C67.101 27.22744444444413 65.15100000000001 27.279444444444124 65.15100000000001 27.279444444444124L65.125 27.22744444444413V26.68144444444414C65.125 26.577444444444126 65.17699999999999 26.551444444444144 65.281 26.525444444444133L65.827 26.44744444444413C66.63300000000001 26.343444444444117 66.893 26.109444444444136 66.893 25.615444444444137L66.89099999999999 16.880444444444137L66.89099999999999 16.880444444444137ZM68.893 21.405444444444115C69.41299999999998 21.614444444444118 70.06299999999999 21.63944444444411 70.583 21.63944444444411C72.14399999999998 21.63944444444411 72.89499999999998 20.701444444444107 72.89499999999998 18.701444444444107C72.89499999999998 16.465444444444103 71.881 15.971444444444103 70.45299999999997 15.971444444444103C69.20399999999998 15.971444444444103 68.89199999999997 16.205444444444097 68.89199999999997 16.8814444444441L68.89299999999997 21.4054444444441L68.89299999999997 21.4054444444441Z "></path>
		<path id="path3912" d="M79.453 27.229444444444113C78.673 27.229444444444113 76.88000000000001 27.28244444444411 76.88000000000001 27.28244444444411L76.85300000000001 27.229444444444113V26.65744444444411C76.85300000000001 26.606444444444122 76.88000000000001 26.52844444444412 77.00900000000001 26.52844444444412L77.60800000000002 26.475444444444122C78.41500000000002 26.39744444444412 78.64900000000002 25.87744444444411 78.64900000000002 25.35844444444413V16.778444444444133C78.64900000000002 16.17844444444414 78.33600000000001 16.07544444444413 77.60800000000002 16.02444444444413L77.00900000000001 15.970444444444126C76.85300000000001 15.946444444444126 76.85300000000001 15.893444444444128 76.85300000000001 15.866444444444127V15.267444444444124L76.88000000000001 15.215444444444117C76.88000000000001 15.215444444444117 78.90700000000001 15.267444444444124 79.68700000000001 15.267444444444124H83.50900000000001C84.28900000000002 15.267444444444124 86.13600000000001 15.215444444444117 86.13600000000001 15.215444444444117L86.18900000000001 15.267444444444124C86.21400000000001 16.38544444444412 86.396 17.401444444444124 86.57900000000001 18.38844444444412L85.93 18.492444444444118C85.64500000000001 17.529444444444124 85.15100000000001 16.152444444444114 83.48700000000001 16.152444444444114H81.40700000000001C80.91300000000001 16.152444444444114 80.653 16.334444444444117 80.653 16.77544444444412V20.54644444444412H82.602C83.331 20.54644444444412 83.512 20.234444444444122 83.617 19.714444444444126L83.772 19.16844444444412C83.772 19.090444444444117 83.825 19.03744444444412 83.92800000000001 19.03744444444412H84.36900000000001C84.42200000000001 19.03744444444412 84.42200000000001 19.06444444444412 84.42200000000001 19.115444444444122C84.36900000000001 19.687444444444125 84.266 20.416444444444124 84.266 21.04044444444412C84.266 21.68944444444412 84.37 22.236444444444118 84.42200000000001 22.83444444444413L84.36900000000001 22.887444444444128H83.92800000000001C83.799 22.887444444444128 83.745 22.83444444444413 83.745 22.756444444444128L83.61500000000001 22.18544444444413C83.51100000000001 21.66444444444413 83.27700000000002 21.378444444444128 82.599 21.378444444444128H80.651V25.357444444444127C80.651 25.850444444444122 80.935 26.34444444444412 81.405 26.34444444444412H83.875C85.201 26.34444444444412 85.93 25.512444444444128 86.241 24.15944444444412L86.89 24.237444444444122L86.369 27.226444444444127L86.317 27.27844444444412C86.317 27.27844444444412 84.78299999999999 27.226444444444127 84.003 27.226444444444127L79.453 27.229444444444113L79.453 27.229444444444113Z "></path>
		<path id="path3914" d="M89.231 26.52844444444412L89.829 26.475444444444122C90.61 26.39744444444412 90.86999999999999 26.16344444444411 90.86999999999999 25.35844444444413V16.778444444444133C90.86999999999999 16.100444444444136 90.68599999999999 16.100444444444136 89.829 16.02444444444413L89.259 15.970444444444126C89.155 15.970444444444126 89.075 15.91844444444412 89.075 15.840444444444131V15.268444444444128L89.10000000000001 15.216444444444122C89.10000000000001 15.216444444444122 91.38900000000001 15.268444444444128 91.858 15.268444444444128C92.35000000000001 15.268444444444128 94.614 15.216444444444122 95.29 15.216444444444122C99.632 15.216444444444122 101.765 17.920444444444115 101.765 21.378444444444128C101.765 25.92944444444413 98.54 27.279444444444124 95.655 27.279444444444124C93.575 27.279444444444124 92.666 27.22744444444413 91.86 27.22744444444413C91.079 27.22744444444413 89.103 27.279444444444124 89.103 27.279444444444124L89.077 27.22744444444413V26.68144444444414C89.075 26.60644444444415 89.128 26.528444444444148 89.231 26.528444444444148ZM95.03 26.52844444444412C97.889 26.52844444444412 99.503 25.46344444444412 99.503 21.821444444444126C99.503 19.118444444444123 98.904 15.970444444444126 94.536 15.970444444444126C93.522 15.970444444444126 92.872 16.126444444444132 92.872 16.778444444444133V25.35844444444413C92.872 26.08444444444413 93.053 26.52844444444412 95.03 26.52844444444412Z "></path>
		<path id="path3916" d="M107.903 25.487444444444122C107.903 26.059444444444125 108.16300000000001 26.39744444444412 108.995 26.475444444444122L109.54100000000001 26.52844444444412C109.61900000000001 26.52844444444412 109.69700000000002 26.579444444444107 109.69700000000002 26.68344444444412V27.229444444444113L109.67100000000002 27.28244444444411C109.67100000000002 27.28244444444411 107.69500000000002 27.229444444444113 106.89000000000001 27.229444444444113C106.16100000000002 27.229444444444113 104.13400000000001 27.28244444444411 104.13400000000001 27.28244444444411L104.08100000000002 27.229444444444113V26.68344444444412C104.08100000000002 26.579444444444107 104.15900000000002 26.52844444444412 104.26300000000002 26.52844444444412L104.78400000000002 26.475444444444122C105.64100000000002 26.39744444444412 105.90200000000002 25.981444444444122 105.90200000000002 25.487444444444122V16.82944444444412C105.90200000000002 16.258444444444123 105.58900000000001 16.100444444444122 104.78400000000002 16.024444444444114L104.26300000000002 15.970444444444112C104.15900000000002 15.970444444444112 104.08100000000002 15.946444444444111 104.08100000000002 15.866444444444113V15.26744444444411L104.10700000000001 15.215444444444103C104.10700000000001 15.215444444444103 106.16100000000002 15.26744444444411 106.96500000000002 15.26744444444411C107.66700000000002 15.26744444444411 109.67000000000002 15.215444444444103 109.67000000000002 15.215444444444103L109.69500000000002 15.26744444444411V15.839444444444112C109.69500000000002 15.917444444444115 109.64200000000002 15.969444444444107 109.53900000000002 15.969444444444107L108.99300000000001 16.022444444444105C108.18700000000001 16.099444444444103 107.90100000000001 16.308444444444106 107.90100000000001 16.829444444444107L107.903 25.487444444444094L107.903 25.487444444444094Z "></path>
		<path id="path3918" d="M115.913 26.475444444444122L116.667 26.52844444444412C116.771 26.52844444444412 116.875 26.606444444444122 116.875 26.735444444444113V27.229444444444113L116.823 27.28244444444411C116.823 27.28244444444411 113.98899999999999 27.229444444444113 113.365 27.229444444444113C112.68799999999999 27.229444444444113 111.024 27.28244444444411 111.024 27.28244444444411L110.971 27.229444444444113V26.735444444444113C110.971 26.606444444444122 111.049 26.52844444444412 111.18 26.52844444444412C112.325 26.450444444444116 112.97300000000001 26.241444444444113 113.70100000000001 24.577444444444126L119.47200000000001 11.056444444444125C119.757 10.380444444444123 119.96600000000001 10.119444444444127 120.35700000000001 10.119444444444127C120.72000000000001 10.119444444444127 120.85100000000001 10.380444444444123 121.058 10.900444444444133L126.388 24.992444444444146C126.753 26.007444444444133 127.27300000000001 26.396444444444143 128.313 26.500444444444156L128.599 26.52544444444416C128.72899999999998 26.52544444444416 128.859 26.603444444444165 128.859 26.734444444444165V27.22744444444416L128.781 27.279444444444152C128.781 27.279444444444152 126.77900000000001 27.22744444444416 125.765 27.22744444444416C124.855 27.22744444444416 122.306 27.279444444444152 122.306 27.279444444444152L122.28099999999999 27.22744444444416V26.734444444444165C122.28099999999999 26.603444444444165 122.333 26.52544444444416 122.46499999999999 26.52544444444416L123.19299999999998 26.47344444444417C124.17999999999998 26.39644444444417 124.54599999999998 26.082444444444178 124.28499999999998 25.355444444444174L122.69899999999998 20.960444444444178H117.291C116.667 20.960444444444178 116.511 21.064444444444177 116.38199999999999 21.40144444444418L114.87299999999999 25.17244444444418C114.61299999999999 25.82444444444417 114.951 26.397444444444176 115.913 26.47544444444418ZM122.283 19.869444444444127L119.761 12.928444444444125H119.70899999999999L117.109 19.532444444444124C117.005 19.79344444444412 117.18599999999999 19.870444444444118 117.758 19.870444444444118H122.283Z "></path>
	</g>
</svg>