<?xml version="1.0" encoding="UTF-8" standalone="no"?>
<svg
	xmlns="http://www.w3.org/2000/svg"
	xmlns:dc="http://purl.org/dc/elements/1.1/"
	xmlns:cc="http://creativecommons.org/ns#"
	xmlns:rdf="http://www.w3.org/1999/02/22-rdf-syntax-ns#"
	xmlns:svg="http://www.w3.org/2000/svg"
	xmlns:xlink="http://www.w3.org/1999/xlink"
	xmlns:sodipodi="http://sodipodi.sourceforge.net/DTD/sodipodi-0.dtd"
	xmlns:inkscape="http://www.inkscape.org/namespaces/inkscape"
	version="1.1"
	viewBox="0 0 150.16199999999998 40.942999999999984">
	<g id="Wikipedia"><path transform="translate(-137.718,-5.382)" d="M154.254 15.382000000000005C158.957 15.382000000000005 159.69 17.730000000000004 159.69 19.537999999999997C159.69 21.004000000000005 158.55499999999998 22.388999999999996 157.28799999999998 23.073000000000008L157.28799999999998 23.127999999999986C159.488 23.802999999999997 161.182 25.28800000000001 161.182 27.87899999999999C161.182 30.19999999999999 159.84199999999998 32.900000000000006 154.81 32.900000000000006C152.56 32.900000000000006 152.206 32.846000000000004 151.119 32.846000000000004C149.82999999999998 32.846000000000004 149.071 32.87299999999999 147.832 32.900000000000006C147.67999999999998 32.738 147.67999999999998 32.17099999999999 147.832 32.008999999999986C149.60199999999998 31.927999999999997 150.03199999999998 31.793000000000006 150.03199999999998 29.552999999999997L150.03199999999998 18.730000000000004C150.03199999999998 16.489999999999995 149.60199999999998 16.355000000000004 147.832 16.272999999999996C147.67999999999998 16.111000000000004 147.67999999999998 15.543999999999997 147.832 15.382000000000005C149.09599999999998 15.406999999999996 149.82999999999998 15.436999999999998 151.094 15.436999999999998C152.18099999999998 15.435000000000002 153.36999999999998 15.382000000000005 154.254 15.382000000000005L154.254 15.382000000000005L154.254 15.382000000000005ZM152.18099999999998 22.967L154.052 22.967C156.15099999999998 22.967 157.642 22.155 157.642 19.863C157.642 17.111000000000004 155.796 16.299999999999997 154.38 16.299999999999997C152.17999999999998 16.299999999999997 152.17999999999998 16.570999999999998 152.17999999999998 17.461L152.18099999999998 22.967L152.18099999999998 22.967L152.18099999999998 22.967ZM152.18099999999998 30.19999999999999C152.18099999999998 31.091000000000008 152.51 32.008999999999986 154.28 32.008999999999986C158.123 32.008999999999986 158.831 30.363 158.831 28.391999999999996C158.831 25.962999999999994 157.39 23.883999999999986 153.926 23.883999999999986L152.18099999999998 23.883999999999986L152.18099999999998 30.19999999999999Z " id="path2098"></path><path transform="translate(-137.718,-5.382)" d="M169.12699999999998 21.212000000000003L169.177 21.266000000000005L169.177 21.833C169.177 21.939999999999998 169.12699999999998 21.985 169.02499999999998 21.992999999999995L168.267 22.049000000000007C167.30599999999998 22.116 167.23 22.346000000000004 167.23 23.451999999999998L167.23 29.87700000000001L172.438 23.182999999999993C172.438 22.534999999999997 172.41299999999998 22.075999999999993 171.553 21.995000000000005C171.47699999999998 21.986999999999995 171.427 21.968999999999994 171.427 21.86L171.427 21.263999999999996L171.47699999999998 21.209999999999994C171.47699999999998 21.209999999999994 172.61499999999998 21.263999999999996 173.32299999999998 21.263999999999996C174.46099999999998 21.263999999999996 176.231 21.209999999999994 176.231 21.209999999999994L176.256 21.263999999999996L176.256 21.831000000000003C176.256 21.936999999999998 176.20499999999998 21.982 176.10399999999998 21.989999999999995L175.34599999999998 22.046999999999997C174.41299999999998 22.113 174.33499999999998 22.317999999999998 174.33499999999998 23.449000000000012L174.33499999999998 30.711000000000013C174.33499999999998 31.710000000000008 174.46599999999998 31.998999999999995 175.34599999999998 32.06299999999999L176.10399999999998 32.117999999999995C176.20499999999998 32.126000000000005 176.256 32.172 176.256 32.28L176.256 32.843999999999994L176.231 32.899C175.22 32.873999999999995 174.46099999999998 32.843999999999994 173.32299999999998 32.843999999999994C172.236 32.843999999999994 171.553 32.87100000000001 170.542 32.899L170.492 32.843999999999994L170.492 32.25C170.492 32.16900000000001 170.542 32.120000000000005 170.618 32.113L171.402 32.05799999999999C172.35799999999998 31.995000000000005 172.439 31.653999999999996 172.439 30.708L172.439 24.337999999999994L167.231 31.03200000000001L167.231 31.086000000000013C167.231 31.733000000000004 167.307 32.03 168.167 32.111999999999995C168.268 32.12299999999999 168.319 32.166 168.319 32.274L168.319 32.837999999999994L168.29399999999998 32.893C167.283 32.867999999999995 167.05499999999998 32.837999999999994 166.24599999999998 32.837999999999994C165.159 32.837999999999994 164.451 32.86500000000001 163.439 32.893L163.414 32.837999999999994L163.414 32.244C163.414 32.16300000000001 163.46499999999997 32.113 163.54 32.107L164.32399999999998 32.05199999999999C165.277 31.989000000000004 165.33499999999998 31.700999999999993 165.33499999999998 30.757000000000005L165.33499999999998 23.47C165.33499999999998 22.334999999999994 165.277 22.107 164.32399999999998 22.037999999999997L163.566 21.983000000000004C163.46499999999997 21.974999999999994 163.414 21.956999999999994 163.414 21.848L163.414 21.251999999999995L163.48999999999998 21.197999999999993C163.48999999999998 21.197999999999993 165.159 21.251999999999995 166.24599999999998 21.251999999999995C167.357 21.265 169.12699999999998 21.212000000000003 169.12699999999998 21.212000000000003L169.12699999999998 21.212000000000003Z " id="path2100"></path><path transform="translate(-137.718,-5.382)" d="M178.891 32.333C178.891 32.19800000000001 178.96699999999998 32.144000000000005 179.093 32.116000000000014L179.57299999999998 32.06C180.458 31.955000000000013 180.635 31.681999999999988 180.635 30.926999999999992L180.635 23.235000000000014C180.635 22.479 180.38199999999998 22.129999999999995 179.57299999999998 22.046999999999997L179.093 21.991C178.96699999999998 21.965999999999994 178.891 21.911 178.891 21.774L178.891 21.260999999999996L178.94199999999998 21.206999999999994C178.94199999999998 21.206999999999994 180.661 21.260999999999996 181.546 21.260999999999996C182.53199999999998 21.260999999999996 183.94799999999998 21.206999999999994 183.94799999999998 21.206999999999994L183.999 21.260999999999996L183.999 21.72C183.999 21.855999999999995 183.898 21.991 183.797 21.991C183.064 22.070999999999998 182.53199999999998 22.209000000000003 182.53199999999998 23.179000000000002L182.53199999999998 26.256C184.226 26.256 184.957 25.230999999999995 185.48999999999998 23.745000000000005C185.945 22.474000000000004 186.754 21.016999999999996 187.968 21.016999999999996C189.005 21.016999999999996 189.283 21.583 189.283 22.232C189.283 22.771 188.85299999999998 23.257000000000005 188.322 23.257000000000005C188.01899999999998 23.257000000000005 187.791 23.150000000000006 187.61399999999998 23.01400000000001C187.462 22.906000000000006 187.285 22.825999999999993 187.057 22.825999999999993C186.80499999999998 22.825999999999993 186.32399999999998 23.420999999999992 186.046 24.25800000000001C185.68699999999998 25.335000000000008 185.08499999999998 26.256 184.14999999999998 26.552999999999997L184.14999999999998 26.657999999999987C185.516 26.657999999999987 186.451 27.25399999999999 186.957 28.575999999999993C187.362 29.601 188.398 31.949000000000012 189.309 32.08600000000001L189.511 32.11099999999999C189.612 32.11099999999999 189.789 32.167 189.789 32.35300000000001L189.789 32.839L189.713 32.894000000000005L187.893 32.86699999999999C186.629 32.84200000000001 185.85 30.97399999999999 185.46599999999998 29.792C184.986 28.306999999999988 184.429 27.335000000000008 182.533 27.199000000000012L182.533 30.97800000000001C182.533 31.870000000000005 183.292 32.031000000000006 183.84799999999998 32.11099999999999C183.94899999999998 32.137 184.04999999999998 32.19300000000001 184.04999999999998 32.32900000000001L184.04999999999998 32.84200000000001L184 32.89699999999999C184 32.89699999999999 182.533 32.84200000000001 181.547 32.84200000000001C180.66199999999998 32.84200000000001 178.94299999999998 32.89699999999999 178.94299999999998 32.89699999999999L178.892 32.84200000000001L178.891 32.333L178.891 32.333L178.891 32.333Z " id="path2102"></path><path transform="translate(-137.718,-5.382)" d="M197.04999999999998 21.212000000000003L197.1 21.266000000000005L197.1 21.833C197.1 21.939999999999998 197.04999999999998 21.985 196.94799999999998 21.992999999999995L196.19 22.049000000000007C195.22899999999998 22.116 195.153 22.346000000000004 195.153 23.451999999999998L195.153 29.87700000000001L200.361 23.182999999999993C200.361 22.534999999999997 200.33599999999998 22.075999999999993 199.476 21.995000000000005C199.39999999999998 21.986999999999995 199.35 21.968999999999994 199.35 21.86L199.35 21.263999999999996L199.39999999999998 21.209999999999994C199.39999999999998 21.209999999999994 200.53799999999998 21.263999999999996 201.24599999999998 21.263999999999996C202.384 21.263999999999996 204.154 21.209999999999994 204.154 21.209999999999994L204.179 21.263999999999996L204.179 21.831000000000003C204.179 21.936999999999998 204.128 21.982 204.027 21.989999999999995L203.26899999999998 22.046999999999997C202.33599999999998 22.113 202.25699999999998 22.317999999999998 202.25699999999998 23.449000000000012L202.25699999999998 30.711000000000013C202.25699999999998 31.710000000000008 202.38899999999998 31.998999999999995 203.26899999999998 32.06299999999999L204.027 32.117999999999995C204.128 32.126000000000005 204.179 32.172 204.179 32.28L204.179 32.843999999999994L204.154 32.899C203.143 32.873999999999995 202.384 32.843999999999994 201.24599999999998 32.843999999999994C200.159 32.843999999999994 199.476 32.87100000000001 198.46499999999997 32.899L198.415 32.843999999999994L198.415 32.25C198.415 32.16900000000001 198.46499999999997 32.120000000000005 198.541 32.113L199.325 32.05799999999999C200.28099999999998 31.995000000000005 200.362 31.653999999999996 200.362 30.708L200.362 24.337999999999994L195.154 31.03200000000001L195.154 31.086000000000013C195.154 31.733000000000004 195.23 32.03 196.08999999999997 32.111999999999995C196.191 32.12299999999999 196.242 32.166 196.242 32.274L196.242 32.837999999999994L196.21699999999998 32.893C195.206 32.867999999999995 194.97799999999998 32.837999999999994 194.16899999999998 32.837999999999994C193.082 32.837999999999994 192.374 32.86500000000001 191.363 32.893L191.338 32.837999999999994L191.338 32.244C191.338 32.16300000000001 191.38899999999998 32.113 191.464 32.107L192.248 32.05199999999999C193.201 31.989000000000004 193.259 31.700999999999993 193.259 30.757000000000005L193.259 23.47C193.259 22.334999999999994 193.201 22.107 192.248 22.037999999999997L191.48999999999998 21.983000000000004C191.38899999999998 21.974999999999994 191.338 21.956999999999994 191.338 21.848L191.338 21.251999999999995L191.414 21.197999999999993C191.414 21.197999999999993 193.083 21.251999999999995 194.17 21.251999999999995C195.28 21.265 197.04999999999998 21.212000000000003 197.04999999999998 21.212000000000003L197.04999999999998 21.212000000000003L197.04999999999998 21.212000000000003Z " id="path2104"></path><path transform="translate(-137.718,-5.382)" d="M207.14399999999998 22.049000000000007L206.385 21.992999999999995C206.309 21.989000000000004 206.259 21.968000000000004 206.259 21.858000000000004L206.259 21.263000000000005L206.31 21.209000000000003C206.31 21.209000000000003 208.00699999999998 21.263000000000005 209.09099999999998 21.263000000000005L216.095 21.263000000000005C217.23399999999998 21.263000000000005 219.00099999999998 21.209000000000003 219.00099999999998 21.209000000000003L219.02599999999998 21.263000000000005L219.02599999999998 21.83C219.02599999999998 21.935000000000002 218.975 21.982 218.87599999999998 21.989999999999995L218.11599999999999 22.046000000000006C217.159 22.111000000000004 217.07899999999998 22.233999999999995 217.07899999999998 23.341000000000008L217.07899999999998 30.790999999999997C217.07899999999998 31.816000000000003 217.23899999999998 31.99799999999999 218.11599999999999 32.06L218.87599999999998 32.116000000000014C218.97799999999998 32.125 219.02599999999998 32.17099999999999 219.02599999999998 32.27799999999999L219.02599999999998 32.84299999999999L219.00099999999998 32.899C219.00099999999998 32.899 217.274 32.84299999999999 216.16899999999998 32.84299999999999C215.08499999999998 32.84299999999999 213.38899999999998 32.899 213.38899999999998 32.899L213.36399999999998 32.84299999999999L213.36399999999998 32.248999999999995C213.36399999999998 32.168000000000006 213.415 32.11699999999999 213.49099999999999 32.113L214.173 32.05699999999999C215.075 31.988 215.20999999999998 31.73400000000001 215.20999999999998 30.78800000000001L215.20999999999998 23.364000000000004C215.20999999999998 22.366 214.67999999999998 22.311000000000007 214.173 22.311000000000007L211.11399999999998 22.311000000000007C210.583 22.311000000000007 210.077 22.418000000000006 210.077 23.364000000000004L210.077 30.78800000000001C210.077 31.812999999999988 210.237 31.989000000000004 211.089 32.05699999999999L211.772 32.113C211.84799999999998 32.119 211.898 32.168000000000006 211.898 32.275000000000006L211.898 32.84L211.873 32.894000000000005C211.873 32.894000000000005 210.191 32.84 209.117 32.84C208.012 32.84 206.285 32.894000000000005 206.285 32.894000000000005L206.23499999999999 32.84L206.23499999999999 32.24600000000001C206.23499999999999 32.16499999999999 206.285 32.119 206.386 32.110000000000014L207.14499999999998 32.054C208.047 31.991000000000014 208.182 31.733000000000004 208.182 30.784999999999997L208.182 23.36099999999999C208.17999999999998 22.236999999999995 208.046 22.111999999999995 207.14399999999998 22.049000000000007L207.14399999999998 22.049000000000007Z " id="path2106"></path><path transform="translate(-137.718,-5.382)" d="M225.101 27.10900000000001L225.101 30.932999999999993C225.101 31.417 225.46499999999997 32.05500000000001 225.935 32.05500000000001L228.101 32.05500000000001C229.74699999999999 32.05500000000001 230.50099999999998 30.781000000000006 230.917 29.276999999999987C231.20399999999998 29.199000000000012 231.41299999999998 29.252999999999986 231.647 29.379999999999995C231.464 30.449000000000012 231.177 31.854000000000013 230.86599999999999 32.90100000000001C230.86599999999999 32.90100000000001 229.143 32.84800000000001 228.09799999999998 32.84800000000001L224.081 32.84800000000001C224.081 32.84800000000001 222.255 32.872000000000014 221.159 32.90100000000001C221.003 32.748999999999995 221.003 32.212999999999994 221.159 32.05799999999999C222.75099999999998 31.930000000000007 223.03799999999998 31.854000000000013 223.03799999999998 29.739000000000004L223.03799999999998 24.230999999999995C223.03799999999998 22.116 222.75099999999998 22.012 221.159 21.911C221.003 21.759 221.003 21.223 221.159 21.069000000000003C222.28 21.093999999999994 224.05499999999998 21.122 224.05499999999998 21.122L229.45499999999998 21.122C229.97699999999998 21.122 230.159 21.069000000000003 230.524 21.018C230.578 21.018 230.60199999999998 21.043000000000006 230.60199999999998 21.095C230.655 21.272999999999996 230.96699999999998 23.262 231.07299999999998 24.12899999999999C230.86399999999998 24.232 230.629 24.28 230.368 24.256C229.897 22.802999999999997 229.559 21.961 227.94 21.961L225.93099999999998 21.961C225.43599999999998 21.961 225.09599999999998 22.239000000000004 225.09599999999998 22.674999999999997L225.09599999999998 26.295999999999992L226.582 26.295999999999992C228.408 26.270999999999987 228.32999999999998 26.01599999999999 228.384 24.866000000000014C228.51399999999998 24.739000000000004 228.98499999999999 24.739000000000004 229.113 24.866000000000014C229.088 25.504999999999995 229.06 25.964 229.06 26.679000000000002C229.06 27.393 229.08399999999997 27.80000000000001 229.113 28.53800000000001C228.982 28.667 228.511 28.667 228.384 28.53800000000001C228.32999999999998 27.596000000000004 228.43599999999998 27.110000000000014 226.582 27.110000000000014L225.101 27.110000000000014L225.101 27.10900000000001Z " id="path2108"></path><path transform="translate(-137.718,-5.382)" d="M233.928 32.71100000000001C233.952 32.224999999999994 234.28199999999998 32.17099999999999 234.636 32.116000000000014C235.292 32.036 235.976 31.681999999999988 236.12599999999998 30.95599999999999C236.605 28.661 237.064 26.205000000000013 237.064 22.992999999999995C237.064 22.668999999999997 236.91299999999998 22.129999999999995 236.027 22.049000000000007L235.344 21.992999999999995C235.24099999999999 21.992999999999995 235.165 21.968000000000004 235.165 21.858000000000004L235.165 21.263000000000005L235.24099999999999 21.209000000000003C235.24099999999999 21.209000000000003 237.21499999999997 21.263000000000005 237.643 21.263000000000005L242.44799999999998 21.263000000000005C243.28199999999998 21.263000000000005 245.128 21.209000000000003 245.128 21.209000000000003L245.15099999999998 21.263000000000005L245.15099999999998 21.802999999999997C245.15099999999998 21.909999999999997 245.04999999999998 21.991 244.975 21.991L244.54399999999998 22.046999999999997C243.634 22.159000000000006 243.381 22.400000000000006 243.381 23.318000000000012L243.381 30.794999999999987C243.381 31.79400000000001 243.962 32.037000000000006 244.393 32.11699999999999C244.84699999999998 32.203 245.02599999999998 32.30500000000001 245.02599999999998 32.68199999999999L245.176 36.29900000000001L244.54399999999998 36.29900000000001C244.34199999999998 35.218999999999994 243.607 32.843999999999994 241.51 32.843999999999994L237.41299999999998 32.843999999999994C235.29 32.843999999999994 234.63299999999998 35.32499999999999 234.43099999999998 36.32499999999999L233.774 36.29900000000001L233.928 32.71100000000001L233.928 32.71100000000001ZM237.46699999999998 31.793000000000006L240.476 31.793000000000006C241.41299999999998 31.793000000000006 241.488 31.360000000000014 241.488 30.471000000000004L241.488 23.61500000000001C241.488 22.697000000000003 241.41299999999998 22.295 240.476 22.295L238.68099999999998 22.295C238.101 22.295 237.97299999999998 22.888999999999996 237.97299999999998 22.994C237.619 29.147999999999996 236.988 31.013000000000005 236.988 31.47200000000001C236.987 31.764999999999986 237.21499999999997 31.793000000000006 237.46699999999998 31.793000000000006L237.46699999999998 31.793000000000006Z " id="path2110"></path><path transform="translate(-137.718,-5.382)" d="M253.37599999999998 21.212000000000003L253.427 21.266000000000005L253.427 21.833C253.427 21.939999999999998 253.37599999999998 21.985 253.27499999999998 21.992999999999995L252.517 22.049000000000007C251.55599999999998 22.116 251.48 22.346000000000004 251.48 23.451999999999998L251.48 29.87700000000001L256.68899999999996 23.182999999999993C256.68899999999996 22.534999999999997 256.66499999999996 22.075999999999993 255.803 21.995000000000005C255.72799999999998 21.986999999999995 255.677 21.968999999999994 255.677 21.86L255.677 21.263999999999996L255.72799999999998 21.209999999999994C255.72799999999998 21.209999999999994 256.86699999999996 21.263999999999996 257.57399999999996 21.263999999999996C258.714 21.263999999999996 260.48199999999997 21.209999999999994 260.48199999999997 21.209999999999994L260.505 21.263999999999996L260.505 21.831000000000003C260.505 21.936999999999998 260.45399999999995 21.982 260.355 21.989999999999995L259.596 22.046999999999997C258.663 22.113 258.58299999999997 22.317999999999998 258.58299999999997 23.449000000000012L258.58299999999997 30.711000000000013C258.58299999999997 31.710000000000008 258.716 31.998999999999995 259.596 32.06299999999999L260.355 32.117999999999995C260.45799999999997 32.126000000000005 260.505 32.172 260.505 32.28L260.505 32.843999999999994L260.48199999999997 32.899C259.469 32.875 258.711 32.845 257.57399999999996 32.845C256.486 32.845 255.803 32.872000000000014 254.79399999999998 32.899L254.742 32.845L254.742 32.251000000000005C254.742 32.16999999999999 254.79399999999998 32.12100000000001 254.869 32.11500000000001L255.652 32.059C256.609 31.99600000000001 256.68899999999996 31.656000000000006 256.68899999999996 30.709000000000003L256.68899999999996 24.339L251.48 31.03200000000001L251.48 31.08699999999999C251.48 31.733000000000004 251.55599999999998 32.03 252.417 32.111999999999995C252.51999999999998 32.123999999999995 252.56799999999998 32.167 252.56799999999998 32.274L252.56799999999998 32.839L252.54399999999998 32.893C251.53099999999998 32.869 251.30599999999998 32.839 250.494 32.839C249.408 32.839 248.69899999999998 32.86500000000001 247.68699999999998 32.893L247.665 32.839L247.665 32.245000000000005C247.665 32.16399999999999 247.714 32.11500000000001 247.79 32.10900000000001L248.57399999999998 32.053C249.527 31.99000000000001 249.58499999999998 31.701999999999998 249.58499999999998 30.75800000000001L249.58499999999998 23.471000000000004C249.58499999999998 22.336 249.527 22.108999999999995 248.57399999999998 22.039L247.814 21.983000000000004C247.712 21.974999999999994 247.665 21.958 247.665 21.848L247.665 21.253L247.738 21.198999999999998C247.738 21.198999999999998 249.408 21.253 250.49499999999998 21.253C251.607 21.265 253.37599999999998 21.212000000000003 253.37599999999998 21.212000000000003L253.37599999999998 21.212000000000003L253.37599999999998 21.212000000000003Z " id="path2112"></path><path transform="translate(-137.718,-5.382)" d="M262.49699999999996 32.333C262.49699999999996 32.19800000000001 262.58099999999996 32.116000000000014 262.68999999999994 32.116000000000014L262.938 32.09C263.823 31.98400000000001 265.19199999999995 30.51400000000001 266.61199999999997 26.90700000000001C267.301 25.15100000000001 268.13199999999995 24.474999999999994 268.878 24.045999999999992L268.878 23.965000000000003C266.99899999999997 23.69399999999999 264.763 22.346000000000004 264.763 19.592C264.763 17.730000000000004 265.70099999999996 15.406999999999996 270.83899999999994 15.406999999999996C271.80499999999995 15.406999999999996 273.43499999999995 15.433000000000007 274.34599999999995 15.433000000000007C275.20199999999994 15.433000000000007 277.87999999999994 15.406999999999996 277.87999999999994 15.406999999999996L277.87999999999994 15.972999999999999C277.87999999999994 16.08 277.825 16.161 277.68899999999996 16.161L276.86099999999993 16.215999999999994C275.70099999999996 16.296999999999997 275.39599999999996 16.486999999999995 275.39599999999996 17.403999999999996L275.39599999999996 30.873999999999995C275.39599999999996 31.683999999999997 275.75499999999994 31.97999999999999 276.88699999999994 32.06200000000001L277.633 32.117999999999995C277.74299999999994 32.117999999999995 277.85499999999996 32.19999999999999 277.85499999999996 32.33500000000001L277.85499999999996 32.84800000000001L277.79799999999994 32.90199999999999C277.79799999999994 32.90199999999999 275.39599999999996 32.84800000000001 274.31899999999996 32.84800000000001C273.325 32.84800000000001 270.756 32.90199999999999 270.756 32.90199999999999L270.7 32.84800000000001L270.7 32.33500000000001C270.7 32.19999999999999 270.782 32.117999999999995 270.92099999999994 32.117999999999995L271.64 32.06200000000001C272.79999999999995 31.976 273.15999999999997 31.629999999999995 273.15999999999997 30.873999999999995L273.15999999999997 24.09899999999999C270.23199999999997 24.09899999999999 269.681 24.882000000000005 268.51899999999995 27.745000000000005C267.33099999999996 30.67500000000001 266.30999999999995 32.845 264.34899999999993 32.875L262.52699999999993 32.90100000000001L262.501 32.845L262.501 32.333L262.49699999999996 32.333L262.49699999999996 32.333L262.49699999999996 32.333ZM271.003 23.073000000000008L273.157 23.073000000000008L273.157 17.325000000000003C273.157 16.430999999999997 273.04599999999994 16.351 270.643 16.351C269.09499999999997 16.351 266.99699999999996 16.784000000000006 266.99699999999996 19.292C266.99899999999997 22.155 268.71 23.073000000000008 271.003 23.073000000000008Z " id="path2114"></path></g>
</svg>