<?xml version="1.0" encoding="UTF-8" standalone="no"?>
<svg
	xmlns="http://www.w3.org/2000/svg"
	xmlns:dc="http://purl.org/dc/elements/1.1/"
	xmlns:cc="http://creativecommons.org/ns#"
	xmlns:rdf="http://www.w3.org/1999/02/22-rdf-syntax-ns#"
	xmlns:svg="http://www.w3.org/2000/svg"
	xmlns:xlink="http://www.w3.org/1999/xlink"
	xmlns:sodipodi="http://sodipodi.sourceforge.net/DTD/sodipodi-0.dtd"
	xmlns:inkscape="http://www.inkscape.org/namespaces/inkscape"
	version="1.1"
	viewBox="0 0 138.54217131960266 41.81449592550396">
	<g id="Wikipedia" inkscape:label="#Wikipedia" transform="translate(-39.90124,-39.602395)"><path id="path3272" d="M52.713595285279126 15.00157304625057C50.858740285279126 15.076723046250578 49.35785628527913 15.906923046250569 48.276095285279126 17.43907304625057C46.65799528527913 19.730863046250562 46.57945728527913 23.256033046250565 48.088595285279126 25.43907304625057C48.409781285279124 25.903683046250563 49.13176028527913 26.62045304625056 49.619845285279126 26.93907304625057C50.30052828527913 27.38343304625056 51.07928828527912 27.695203046250583 51.807345285279126 27.81407304625057C51.99104028527913 27.84407304625057 52.176846285279126 27.895923046250573 52.213595285279126 27.90782304625057C52.250345285279124 27.91970304625056 52.05744028527913 28.05135304625057 51.776095285279126 28.22032304625057C51.16070728527913 28.58992304625056 50.53919628527913 29.073873046250583 49.994845285279126 29.59532304625057C49.64674328527913 29.92877304625057 49.12747328527912 30.511313046250564 49.026095285279126 30.68907304625057C49.00601628527913 30.724283046250576 49.112827285279124 30.79903304625057 49.307345285279126 30.90782304625057C49.47963828527912 31.00420304625058 49.63762528527913 31.09532304625057 49.651095285279126 31.09532304625057C49.66456628527912 31.09532304625057 49.75781228527913 30.976613046250577 49.838595285279126 30.84532304625057C50.055601285279124 30.492643046250578 50.29875228527912 30.26020304625058 50.651095285279126 30.09532304625057C50.93473928527912 29.962573046250583 50.98206128527913 29.942823046250567 51.276095285279126 29.97032304625057C51.87233028527912 30.025993046250562 52.18594428527912 30.15071304625056 53.494845285279126 30.81407304625057C54.82576128527913 31.488583046250568 55.21817328527912 31.64549304625058 55.901095285279126 31.75157304625057C57.08624628527913 31.935683046250574 58.00539028527912 31.718493046250558 58.713595285279126 31.06407304625057C59.01374028527913 30.786723046250557 59.40109828527913 30.32508304625057 59.401095285279126 30.25157304625057C59.401095285279126 30.230223046250558 59.344196285279125 30.171183046250576 59.276095285279126 30.12657304625057C59.155525285279126 30.047583046250566 59.16031328527913 30.051933046250582 58.963595285279126 30.22032304625057C58.43351328527913 30.67439304625057 57.66048728527913 30.855873046250565 56.807345285279126 30.68907304625057C56.32883928527913 30.595523046250577 56.08491228527913 30.50163304625056 54.963595285279126 30.00157304625057C53.521874285279125 29.358613046250582 52.93544328527912 29.198073046250556 52.088595285279126 29.18907304625057C51.65053528527913 29.18447304625056 51.62840228527912 29.18012304625057 51.713595285279126 29.09532304625057C51.86939328527913 28.940243046250572 52.82569828527913 28.36905304625057 53.307345285279126 28.15782304625057C53.56393328527912 28.045293046250578 54.06849728527912 27.874413046250567 54.432345285279126 27.78282304625057C55.70401328527913 27.462543046250573 56.46017628527913 27.083373046250557 57.244845285279126 26.31407304625057C58.34329228527912 25.237143046250566 58.94757328527912 23.909603046250567 59.119845285279126 22.09532304625057C59.26717128527913 20.54377304625058 58.86206028527913 18.796803046250574 58.088595285279126 17.65782304625057C56.88474828527913 15.885083046250571 54.89792828527912 14.913083046250563 52.713595285279126 15.00157304625057ZM52.557345285279126 15.59532304625057C52.74308328527913 15.588603046250569 52.94432228527913 15.603823046250568 53.151095285279126 15.62657304625057C53.76982928527913 15.694653046250579 54.18595228527913 15.806393046250577 54.744845285279126 16.09532304625057C55.10174728527913 16.279823046250584 55.28276628527912 16.417323046250573 55.682345285279126 16.81407304625057C56.20777428527913 17.335783046250583 56.466421285279125 17.71429304625056 56.744845285279126 18.37657304625057C57.44971428527913 20.05324304625057 57.51085428527912 22.755863046250568 56.901095285279126 24.50157304625057C56.36227328527913 26.04419304625057 55.33222728527913 27.01497304625056 54.026095285279126 27.25157304625057C52.00774528527913 27.61717304625057 49.97319628527913 26.193653046250574 49.213595285279126 23.90782304625057C48.69986428527912 22.361933046250556 48.69865828527912 20.30807304625057 49.213595285279126 18.62657304625057C49.56178928527913 17.48957304625057 50.15695428527913 16.644163046250583 51.057345285279126 16.06407304625057C51.53909428527912 15.75372304625057 52.00013028527913 15.615483046250574 52.557345285279126 15.59532304625057Z " style="fill:#000000;fill-opacity:1;fill-rule:nonzero;stroke:none"></path><path id="path3268" d="M17.669811285279124 27.739743046250567C16.14264028527913 27.54706304625057 14.653836285279127 26.986783046250565 13.495818285279128 26.168933046250572C12.90151328527913 25.749203046250557 11.953003285279124 24.800813046250568 11.532494285279128 24.205863046250556C10.407383285279124 22.613993046250556 9.871883285279125 20.654673046250565 10.025961285279124 18.69364304625057C10.171611285279127 16.83989304625058 10.616942285279123 15.47826304625056 11.520232285279128 14.12481304625058C12.650130285279126 12.431823046250571 14.238365285279123 11.213203046250584 16.186897285279123 10.54419304625057C17.315560285279126 10.156673046250575 18.272068285279126 10.018503046250572 19.500510285279127 10.065543046250582C20.901675285279126 10.119243046250574 21.743529285279124 10.280983046250583 22.812096285279125 10.701963046250569C23.533424285279125 10.986133046250558 24.132532285279126 11.152563046250577 24.613335285279128 11.202333046250573C24.969593285279124 11.239233046250575 24.914229285279127 11.08502304625057 25.06670728527913 12.46498304625058C25.15756728527913 13.287263046250558 25.392899285279128 14.831253046250566 25.48068528527913 15.18101304625057C25.512455285279124 15.30759304625056 25.508635285279126 15.30959304625057 25.085835285279124 15.388023046250566C24.851023285279126 15.431623046250564 24.656325285279124 15.461723046250569 24.653172285279126 15.455023046250574C24.649972285279127 15.448023046250569 24.587522285279128 15.253973046250564 24.514280285279128 15.023083046250576C24.16897328527913 13.934503046250569 23.404645285279123 12.75515304625057 22.630739285279127 12.116803046250567C21.328819285279124 11.042913046250561 18.746629285279127 10.676573046250581 16.87847028527913 11.300713046250564C14.726437285279125 12.019703046250584 13.13156828527913 14.03142304625058 12.594011285279123 16.705023046250574C12.146620285279127 18.93017304625056 12.391880285279129 20.90723304625058 13.353849285279125 22.830153046250558C13.766642285279126 23.655293046250563 14.209850285279124 24.27999304625058 14.813921285279129 24.88809304625056C16.192248285279128 26.27560304625058 17.71269628527913 26.90737304625057 19.671375285279126 26.90642304625058C21.086568285279128 26.90573304625056 22.34874828527913 26.536173046250582 23.24875328527913 25.85899304625056L23.506465285279127 25.665083046250572L23.492845285279124 23.43427304625058C23.477565285279127 20.931113046250573 23.480545285279128 20.952663046250564 23.116515285279128 20.71176304625058C22.884812285279125 20.558423046250567 22.290526285279128 20.40940304625056 21.747213285279123 20.368383046250557C21.318052285279123 20.33598304625056 21.31083128527913 20.333283046250557 21.260375285279125 20.188583046250557C21.197695285279124 20.00877304625058 21.194095285279126 19.711663046250578 21.252775285279128 19.557423046250562L21.296355285279127 19.44280304625056L24.142752285279123 19.45080304625057C27.363463285279124 19.46080304625056 27.057216285279125 19.41630304625056 27.06400228527913 19.87045304625056C27.068502285279123 20.168793046250556 26.986262285279125 20.34872304625057 26.84552028527912 20.34872304625057C26.650071285279125 20.34872304625057 26.24802928527913 20.50485304625056 26.07392528527913 20.64836304625058C25.758419285279125 20.908433046250565 25.744124285279128 21.02091304625057 25.759838285279123 23.11973304625056L25.773738285279123 24.976583046250568L25.93502828527913 25.17722304625056C26.023738285279123 25.28757304625057 26.08285328527913 25.39964304625056 26.066399285279132 25.42627304625057C26.007809285279123 25.521073046250564 25.259970285279124 26.06467304625056 24.81265728527913 26.33762304625057C23.55588928527913 27.104473046250575 22.199167285279124 27.562333046250558 20.64488328527913 27.744153046250574C19.870248285279125 27.83475304625057 18.407658285279126 27.832353046250574 17.669846285279128 27.73915304625058L17.669846285279128 27.73915304625058L17.669811285279124 27.739743046250567Z " style="fill:#000000;fill-opacity:1;fill-rule:nonzero;stroke:none"></path><path id="path3266" d="M33.75986028527913 27.908653046250578C33.054267285279124 27.84875304625058 32.29426228527913 27.61218304625058 31.722354285279124 27.274333046250575C31.360439285279128 27.060533046250583 30.74816828527912 26.45862304625058 30.499036285279132 26.07171304625058C30.22865528527913 25.65179304625056 30.027999285279122 25.15036304625056 29.898582285279133 24.57118304625058C29.792925285279125 24.098353046250566 29.78874128527913 23.973163046250562 29.75827928527913 20.373593046250562C29.73696928527913 17.855643046250577 29.70943928527913 16.61308304625058 29.67259928527912 16.50685304625057C29.51351428527913 16.048113046250563 29.29023828527913 15.893863046250573 28.65807328527913 15.805933046250573C28.444245285279123 15.776233046250582 28.252475285279132 15.741433046250563 28.231916285279127 15.728733046250568C28.190006285279125 15.70283304625056 28.180956285279123 15.364243046250579 28.21948628527913 15.263823046250565C28.23977628527912 15.21092304625057 28.623835285279128 15.200223046250557 30.276489285279126 15.20662304625057C32.46848228527912 15.21462304625058 32.39064528527912 15.205623046250565 32.39219628527913 15.475503046250566C32.393396285279124 15.691813046250559 32.34348628527913 15.756623046250581 32.131626285279125 15.813563046250579C31.865075285279133 15.885263046250572 31.59120528527913 16.175953046250584 31.48050228527913 16.50479304625057C31.40197228527913 16.738063046250574 31.39290228527912 17.063943046250557 31.379105285279124 20.146143046250558C31.36264528527913 23.824843046250578 31.38934528527912 24.34559304625057 31.628226285279126 25.003683046250558C31.93565728527912 25.850653046250557 32.53404428527912 26.49572304625056 33.37910928527913 26.891183046250575C33.86165828527912 27.11699304625057 34.32471228527912 27.19892304625057 34.931512285279126 27.165863046250564C36.152857285279126 27.09926304625057 37.09467028527912 26.651663046250576 37.56923028527913 25.91212304625057C37.76421628527913 25.608263046250556 38.01553828527912 24.903953046250564 38.16118028527913 24.253233046250557C38.27530528527913 23.743323046250566 38.27558828527913 23.733463046250563 38.27558828527913 20.27593304625057C38.27558828527913 17.491323046250557 38.26236828527912 16.758303046250575 38.20834828527913 16.547873046250572C38.122238285279124 16.21244304625057 37.82206228527913 15.882103046250563 37.55870928527912 15.83293304625056C37.254324285279125 15.776133046250578 37.08240128527913 15.464433046250576 37.25837528527913 15.288453046250567C37.341995285279125 15.204853046250577 37.45958928527912 15.199053046250583 39.00354828527912 15.202253046250576L40.65905728527913 15.205253046250562L40.70303728527912 15.32386304625058C40.72722728527913 15.389063046250584 40.734207285279126 15.511013046250582 40.71854728527913 15.594773046250566C40.690327285279125 15.745703046250583 40.686387285279125 15.747533046250567 40.272983285279125 15.800893046250565C39.74069828527912 15.869593046250571 39.50900628527913 15.994883046250578 39.36180328527912 16.293593046250578C39.25200728527912 16.516393046250556 39.25194428527912 16.518023046250562 39.22253528527912 19.909393046250557C39.19799528527912 22.73963304625056 39.179695285279124 23.383243046250584 39.11217728527913 23.790473046250582C38.86529128527913 25.27963304625058 38.34777428527913 26.358103046250562 37.56973828527913 27.00479304625057C37.274716285279126 27.250013046250558 36.561877285279124 27.588623046250575 36.078746285279124 27.71303304625056C35.39125628527913 27.89006304625056 34.46494728527912 27.968033046250582 33.75986128527913 27.908223046250583L33.75986128527913 27.908223046250583L33.75986028527913 27.908653046250578Z " style="fill:#000000;fill-opacity:1;fill-rule:nonzero;stroke:none"></path><path id="path3264" d="M33.03579628527913 14.776753046250576C32.71905928527913 14.619973046250578 32.563582285279125 14.354703046250563 32.56468928527913 13.972963046250584C32.56546428527912 13.705593046250584 32.58418928527912 13.64487304625058 32.71632128527912 13.481403046250563C32.92754328527913 13.220073046250576 33.13191028527913 13.112763046250564 33.41838428527913 13.112763046250564C34.068822285279126 13.112763046250564 34.49841928527913 13.807023046250578 34.20442328527912 14.38305304625058C34.090239285279125 14.606773046250566 33.97934028527912 14.709513046250578 33.74743728527913 14.806413046250583C33.500829285279124 14.909453046250576 33.285777285279124 14.90051304625058 33.03579628527913 14.776713046250563L33.03579628527913 14.776753046250576Z " style="fill:#000000;fill-opacity:1;fill-rule:nonzero;stroke:none"></path><path id="path3262" d="M35.98110828527912 14.84645304625056C35.83394928527913 14.810653046250565 35.56912228527912 14.595833046250561 35.46870928527913 14.430723046250563C35.16948328527913 13.93868304625056 35.42844928527913 13.291123046250561 35.98050128527913 13.150953046250578C36.57781428527913 12.999283046250582 37.09079328527913 13.39218304625058 37.09079328527913 14.001343046250582C37.09079328527913 14.570893046250575 36.548098285279124 14.98420304625057 35.98110828527912 14.84645304625056L35.98110828527912 14.84645304625056L35.98110828527912 14.84645304625056Z " style="fill:#000000;fill-opacity:1;fill-rule:nonzero;stroke:none"></path><path id="path3260" d="M41.33296528527913 27.737073046250572C41.28912528527913 27.693273046250567 41.292835285279125 27.31944304625057 41.33776528527913 27.252123046250574C41.35749528527913 27.222523046250558 41.55168628527913 27.183923046250584 41.76930928527912 27.16612304625056C42.47934528527912 27.108223046250572 42.81792328527912 26.91027304625058 42.96842828527913 26.46504304625057C43.04762828527913 26.23074304625058 43.08915028527913 17.282933046250577 43.01330828527912 16.79335304625056C42.900758285279124 16.066833046250565 42.68892228527912 15.90970304625057 41.64213728527912 15.776263046250563C41.32639628527913 15.736063046250564 41.32473728527913 15.734963046250584 41.30901428527913 15.570403046250561C41.30031428527913 15.479403046250582 41.30481428527912 15.358593046250576 41.31908428527913 15.301903046250573L41.34495428527913 15.198813046250564L43.849042285279126 15.198813046250564C45.46197728527913 15.198813046250564 46.365894285279126 15.216213046250573 46.38899628527912 15.247613046250564C46.40872628527913 15.274413046250572 46.42486628527912 15.373323046250562 46.42486628527912 15.467293046250575C46.42486628527912 15.561293046250569 46.40872628527913 15.66337304625057 46.38899628527912 15.694183046250572C46.369266285279124 15.724983046250571 46.14741128527912 15.775183046250561 45.89597728527913 15.805703046250557C45.16317028527912 15.894703046250584 44.930938285279126 16.03145304625056 44.780323285279124 16.462883046250568C44.699113285279125 16.69552304625057 44.693293285279125 17.03336304625057 44.693293285279125 21.520803046250563L44.693293285279125 26.32944304625056L44.82945728527913 26.606713046250576C44.93807128527912 26.82789304625058 45.00755928527913 26.904293046250558 45.17289428527913 26.984333046250583C45.41670328527913 27.10236304625056 45.80937328527912 27.18376304625056 46.13488328527913 27.18376304625056C46.38572228527913 27.18376304625056 46.42635428527913 27.22456304625058 46.42635428527913 27.476673046250568C46.42635428527913 27.791083046250577 46.61421628527913 27.769593046250577 43.86629028527912 27.769593046250577C42.49085028527912 27.769593046250577 41.35084428527912 27.754893046250572 41.332944285279126 27.736993046250575L41.332944285279126 27.736993046250575L41.33296528527913 27.737073046250572Z " style="fill:#000000;fill-opacity:1;fill-rule:nonzero;stroke:none"></path><path id="path3258" d="M65.46868528527912 27.91072304625058C64.71453528527913 27.842123046250578 63.88799528527913 27.57511304625058 63.34469528527913 27.224583046250558C62.71047528527913 26.815403046250566 62.11413528527913 26.08243304625057 61.84191828527912 25.37750304625058C61.49305228527912 24.47408304625057 61.44875228527913 23.86958304625057 61.44824028527913 20.00551304625057C61.44780028527913 16.690133046250565 61.43576028527913 16.48581304625057 61.221538285279124 16.15842304625056C61.11627928527912 15.997563046250576 60.764613285279125 15.855253046250567 60.32983328527912 15.797573046250562C60.12579428527913 15.770473046250572 59.94271428527912 15.723573046250578 59.92298828527913 15.693273046250567C59.88162828527912 15.629773046250563 59.87381828527913 15.359623046250562 59.91057828527913 15.263843046250571C59.93092828527912 15.210843046250574 60.39201928527913 15.199443046250565 62.40993528527913 15.202243046250572L64.88433528527912 15.205243046250558L64.91932528527913 15.336083046250565C64.93857528527913 15.408083046250567 64.93834528527913 15.527343046250564 64.91881528527912 15.601183046250583C64.88584528527913 15.72587304625057 64.85918528527912 15.738243046250574 64.54469528527913 15.774813046250557C64.05888528527913 15.831313046250557 63.61963528527913 15.93728304625057 63.47296528527913 16.033383046250577C63.28748528527913 16.154913046250556 63.16119528527912 16.44149304625057 63.10319528527913 16.87245304625057C63.07009528527912 17.118443046250576 63.05885528527912 18.414263046250568 63.07131528527913 20.545913046250575C63.09192528527913 24.06867304625058 63.10696528527913 24.30622304625058 63.35666528527912 25.051733046250575C63.622125285279125 25.844293046250584 64.20262528527913 26.473323046250556 65.03770528527913 26.87332304625056C65.54096528527913 27.114373046250563 66.00178528527913 27.19933304625056 66.62259528527913 27.165503046250564C67.84393528527913 27.09890304625057 68.78575528527912 26.651303046250575 69.26031528527912 25.91176304625057C69.45542528527912 25.60771304625058 69.71418528527913 24.882563046250567 69.85562528527913 24.243463046250582C69.96542528527912 23.747313046250582 69.96666528527912 23.702603046250573 69.96666528527912 20.251163046250582C69.96666528527912 17.474633046250574 69.95328528527912 16.71629304625057 69.90126528527912 16.54389304625056C69.76955528527913 16.107373046250558 69.38331528527912 15.885393046250556 68.64856528527913 15.823933046250573C68.19323528527913 15.78583304625056 68.13596528527913 15.75163304625056 68.13596528527913 15.518033046250565C68.13596528527913 15.174333046250581 67.97442528527912 15.197953046250575 70.28927528527913 15.203233046250574C72.59034528527913 15.20823304625057 72.47860528527913 15.193233046250583 72.48008528527913 15.500063046250574C72.48107528527913 15.706583046250557 72.36882528527913 15.808663046250558 72.14075528527913 15.808663046250558C71.84804528527913 15.808663046250558 71.34614528527912 15.984173046250561 71.20188528527913 16.136973046250574C70.92855528527913 16.426463046250575 70.91869528527913 16.545473046250578 70.91790528527913 19.564353046250574C70.91712528527913 22.55061304625056 70.87890528527913 23.443453046250568 70.71877528527912 24.21617304625056C70.48148528527912 25.361303046250583 70.11191528527912 26.131453046250584 69.50289528527912 26.749983046250577C69.14943528527913 27.108953046250576 69.01919528527912 27.204453046250563 68.62415528527913 27.394353046250558C67.76697528527913 27.80640304625058 66.53702528527913 28.007523046250583 65.46868528527912 27.91033304625057L65.46868528527912 27.91033304625057L65.46868528527912 27.91072304625058Z " style="fill:#000000;fill-opacity:1;fill-rule:nonzero;stroke:none"></path><path id="path3256" d="M73.02438528527912 27.737503046250566C72.98020528527913 27.693303046250577 72.98358528527913 27.31980304625057 73.02878528527913 27.252123046250574C73.04851528527912 27.222523046250558 73.24270528527913 27.183923046250584 73.46032528527913 27.16612304625056C74.17035528527913 27.108223046250572 74.50891528527913 26.91029304625056 74.65945528527912 26.46504304625057C74.74054528527913 26.225233046250565 74.77987528527913 17.170343046250565 74.70166528527912 16.747283046250573C74.57321528527913 16.052423046250567 74.37035528527913 15.90848304625058 73.33315528527913 15.776263046250563C73.01741528527913 15.736063046250564 73.01575528527913 15.734963046250584 73.00002528527912 15.570403046250561C72.99132528527913 15.479403046250582 72.99583528527913 15.358593046250576 73.01009528527912 15.301903046250573L73.03596528527913 15.198813046250564L75.55439528527913 15.198813046250564L78.07281528527912 15.198813046250564L78.09868528527913 15.301903046250573C78.11292528527913 15.358603046250579 78.11744528527913 15.47942304625056 78.10875528527913 15.570403046250561C78.09304528527913 15.734993046250565 78.09138528527913 15.73602304625058 77.77563528527912 15.776263046250563C76.74601528527913 15.907513046250557 76.53467528527912 16.057293046250578 76.40736528527913 16.745983046250558C76.32893528527913 17.170253046250565 76.36803528527912 26.22459304625056 76.44933528527913 26.46504304625057C76.60096528527913 26.91352304625056 76.94411528527912 27.11176304625056 77.66463528527913 27.167143046250573C78.11375528527913 27.20164304625058 78.14234528527912 27.228243046250583 78.10876528527912 27.579783046250583L78.09296528527912 27.745203046250566L75.57517528527913 27.757803046250558C74.19038528527912 27.764803046250563 73.04253528527913 27.755803046250577 73.02439528527913 27.737403046250563L73.02439528527913 27.737403046250563L73.02438528527912 27.737503046250566Z " style="fill:#000000;fill-opacity:1;fill-rule:nonzero;stroke:none"></path><path id="path3254" d="M84.02609528527913 15.09532304625057C83.69914528527913 15.09132304625058 83.31859528527913 15.117623046250571 82.71359528527913 15.15782304625057C81.77720528527912 15.22002304625056 81.13518528527912 15.242523046250568 80.11984528527913 15.22032304625057C78.92289528527913 15.194223046250556 78.77082528527913 15.183873046250568 78.74484528527913 15.25157304625057C78.70435528527912 15.357193046250558 78.70098528527913 15.620073046250582 78.74484528527913 15.68907304625057C78.76479528527912 15.720463046250558 78.99266528527913 15.785983046250578 79.24484528527913 15.81407304625057C79.99973528527913 15.89836304625058 80.28545528527913 16.118583046250563 80.40109528527913 16.65782304625057C80.43641528527912 16.82254304625056 80.46359528527913 18.404683046250568 80.46359528527913 21.50157304625057C80.46359528527913 26.43800304625057 80.45848528527912 26.438903046250573 80.21359528527913 26.78282304625057C80.08140528527913 26.968463046250577 79.67257528527912 27.120923046250567 79.18234528527913 27.15782304625057C78.96493528527913 27.17412304625057 78.76456528527913 27.222073046250557 78.74484528527913 27.25157304625057C78.70105528527912 27.316983046250584 78.70403528527913 27.582723046250578 78.74484528527913 27.68907304625057C78.77166528527913 27.759073046250563 79.03364528527912 27.762873046250576 81.43234528527913 27.75157304625057L84.08859528527913 27.75157304625057L84.11984528527913 27.62657304625057C84.13605528527913 27.55944304625058 84.13589528527913 27.42582304625057 84.11984528527913 27.34532304625057C84.09071528527913 27.199173046250564 84.08770528527913 27.19381304625057 83.65109528527913 27.15782304625057C83.04648528527913 27.10795304625057 82.63328528527913 26.990133046250577 82.43234528527913 26.78282304625057C82.12614528527912 26.46689304625056 82.10870528527913 26.35863304625056 82.08859528527913 24.09532304625057C82.07863528527912 22.974333046250564 82.09786528527913 22.063113046250578 82.11984528527913 22.06407304625057C82.14182528527913 22.065073046250575 82.27124528527912 22.08807304625057 82.43234528527913 22.12657304625057C83.42869528527913 22.364713046250557 85.03186528527912 22.22489304625057 86.08859528527913 21.78282304625057C86.83604528527913 21.470133046250567 87.45196528527913 20.809083046250578 87.86984528527913 19.93907304625057C88.14772528527912 19.360503046250557 88.24044528527912 19.004183046250574 88.24484528527913 18.34532304625057C88.24808528527913 17.85580304625057 88.23159528527913 17.74661304625056 88.11984528527913 17.43907304625057C87.95804528527913 16.993773046250567 87.51012528527913 16.327513046250573 87.18234528527913 16.03282304625057C86.72540528527912 15.621993046250566 85.92239528527912 15.316033046250567 84.99484528527913 15.18907304625057C84.61317528527913 15.136873046250571 84.35304528527912 15.09932304625056 84.02609528527913 15.09532304625057ZM83.74484528527913 15.72032304625057C84.44438528527913 15.694843046250583 84.75818528527913 15.746603046250584 85.27609528527913 16.00157304625057C86.00808528527912 16.361933046250556 86.34165528527913 16.969623046250575 86.46359528527913 18.15782304625057C86.55815528527913 19.079273046250563 86.38730528527913 20.03243304625056 86.02609528527913 20.59532304625057C85.72462528527913 21.065123046250562 85.21137528527913 21.379983046250572 84.52609528527913 21.53282304625057C84.08010528527913 21.63272304625056 82.62916528527913 21.63132304625057 82.18234528527913 21.53282304625057L82.05734528527913 21.53282304625057L82.08859528527913 19.06407304625057C82.10155528527913 16.782123046250575 82.09774528527913 16.59810304625057 82.18234528527913 16.43907304625057C82.45517528527913 15.92621304625058 82.84731528527912 15.753023046250576 83.74484528527913 15.72032304625057Z " style="fill:#000000;fill-opacity:1;fill-rule:nonzero;stroke:none"></path><path id="path3250" d="M88.71857528527913 27.692403046250575C88.68047528527913 27.593103046250576 88.68047528527913 27.36031304625058 88.71857528527913 27.261013046250582C88.73984528527913 27.205613046250562 88.81370528527913 27.183813046250577 88.98041528527912 27.183813046250577C89.30926528527912 27.183813046250577 89.69928528527913 27.102113046250565 89.95034528527913 26.980543046250574C90.12627528527912 26.89534304625056 90.18897528527913 26.82643304625057 90.29378528527911 26.602923046250567L90.42200528527911 26.329493046250576L90.43771528527913 21.69172304625056C90.45429528527913 16.794773046250583 90.44541528527913 16.555463046250566 90.23458528527914 16.237113046250556C90.08103528527911 16.00521304625056 89.76565528527912 15.870333046250579 89.22594528527912 15.805753046250572C88.97087528527912 15.775253046250583 88.74603528527912 15.725053046250565 88.72630528527912 15.69423304625056C88.67986528527912 15.621733046250569 88.67986528527912 15.311053046250578 88.72630528527912 15.247033046250579C88.75002528527912 15.214333046250573 90.11829528527912 15.197833046250565 92.76529528527914 15.198233046250579C94.96701528527913 15.198583046250576 96.86728528527914 15.187833046250574 96.98811528527912 15.174433046250556L97.20779528527913 15.15003304625057L97.38568528527912 16.29727304625058C97.48352528527911 16.928253046250575 97.57782528527912 17.56953304625057 97.59525528527914 17.722343046250558L97.62694528527913 18.00017304625058L97.44177528527914 18.05157304625058C97.07312528527913 18.153953046250564 97.06445528527914 18.14767304625056 96.89262528527914 17.65197304625056C96.58390528527912 16.76139304625056 96.23574528527914 16.29584304625058 95.72733528527914 16.093753046250583C95.46635528527912 15.99002304625057 95.36839528527912 15.982703046250577 94.03458528527912 15.967293046250575C92.42852528527914 15.948693046250582 92.37444528527914 15.959293046250565 92.18193528527914 16.32613304625056C92.08616528527912 16.50868304625058 92.08124528527912 16.608443046250557 92.06813528527911 18.632223046250573L92.05442528527914 20.747503046250557L93.48386528527914 20.731403046250563C94.82818528527912 20.716303046250573 94.92693528527911 20.709003046250558 95.14211528527912 20.609583046250577C95.43670528527912 20.47345304625057 95.57734528527914 20.215113046250565 95.61083528527914 19.74858304625056C95.63315528527912 19.43758304625058 95.64277528527913 19.41486304625056 95.76217528527911 19.390983046250568L95.91409528527913 19.360583046250582C95.92751528527913 19.357583046250568 96.00440528527912 19.368583046250563 96.08495528527914 19.384983046250568L96.23141528527913 19.414283046250574L96.23141528527913 21.08998304625058C96.23141528527913 22.150653046250568 96.21349528527912 22.778843046250557 96.18259528527912 22.801543046250572C96.12325528527913 22.84514304625057 95.80510528527913 22.85024304625057 95.69840528527914 22.80954304625058C95.64468528527914 22.78894304625058 95.62118528527913 22.716543046250564 95.62118528527913 22.57159304625057C95.62118528527913 22.31222304625058 95.50569528527913 21.97614304625057 95.36323528527913 21.820953046250565C95.30372528527911 21.756153046250574 95.15618528527912 21.65669304625058 95.03535528527914 21.599993046250574C94.83106528527912 21.504093046250574 94.71894528527912 21.495763046250573 93.43486528527913 21.48059304625056L92.05406528527914 21.46429304625056L92.06795528527914 23.99464304625056C92.08128528527914 26.423933046250568 92.08574528527913 26.53160304625058 92.17947528527912 26.690333046250572C92.23317528527912 26.781233046250577 92.35399528527913 26.897543046250576 92.44797528527911 26.948693046250582C92.60837528527912 27.03599304625058 92.72049528527913 27.040693046250567 94.27867528527912 27.02479304625058C96.11423528527914 27.006093046250584 96.15354528527914 27.00019304625056 96.68060528527911 26.665893046250574C97.13159528527913 26.379813046250575 97.59250528527912 25.68143304625056 97.86342528527913 24.873663046250556C98.01261528527914 24.428823046250557 98.06621528527913 24.392073046250573 98.41390528527913 24.496243046250584C98.54426528527912 24.535343046250574 98.59912528527911 24.579343046250557 98.59912528527911 24.644943046250575C98.59912528527911 24.871153046250583 98.24409528527912 26.505293046250557 97.95999528527912 27.58678304625056L97.91190528527912 27.769853046250574L93.33005528527912 27.769853046250574C89.19704528527913 27.769853046250574 88.74530528527913 27.761853046250565 88.71857528527913 27.69265304625057L88.71857528527913 27.692403046250575Z " style="fill:#000000;fill-opacity:1;fill-rule:nonzero;stroke:none"></path><path id="path3248" d="M102.09228528527913 27.69280304625056C102.05147528527914 27.58646304625057 102.05608528527912 27.317643046250566 102.10027528527914 27.25223304625058C102.11998528527911 27.222733046250568 102.33386528527913 27.18483304625056 102.57551528527912 27.16803304625057C103.15202528527914 27.127833046250572 103.50664528527912 27.019143046250576 103.70359528527914 26.82219304625056C103.98019528527914 26.54559304625056 103.99124528527912 26.443173046250564 103.99124528527912 24.15707304625056L103.99124528527912 22.08228304625058L103.87469528527913 21.862593046250566C103.70833528527913 21.54903304625057 100.95542528527912 16.902623046250568 100.77980528527914 16.639003046250565C100.55292528527912 16.298393046250567 100.20578528527912 15.96250304625056 100.01490528527913 15.898863046250568C99.91962528527912 15.867063046250564 99.69959528527912 15.817463046250566 99.52594528527914 15.788483046250576C99.21613528527914 15.736883046250568 99.20943528527911 15.732483046250564 99.16788528527911 15.55583304625057C99.08240528527912 15.192403046250575 98.96811528527914 15.210993046250564 101.30894528527912 15.207523046250571L103.39989528527911 15.204523046250557L103.43509528527912 15.335993046250564C103.45438528527913 15.408293046250577 103.45429528527913 15.527863046250559 103.43473528527912 15.601703046250577C103.40093528527913 15.729323046250556 103.38002528527912 15.737853046250564 103.01178528527913 15.774353046250582C102.79871528527912 15.795453046250572 102.54748528527912 15.828653046250565 102.45349528527913 15.848053046250584C102.12934528527913 15.915053046250563 102.16763528527912 16.00545304625058 103.57436528527913 18.494603046250575C104.27983528527912 19.742913046250578 104.91060528527913 20.848003046250568 104.97607528527914 20.950363046250573C105.19853528527912 21.298153046250576 105.20420528527913 21.290843046250558 106.27315528527913 19.275283046250564C107.98741528527913 16.04303304625057 107.98079528527913 16.05756304625058 107.80324528527913 15.910203046250558C107.74824528527913 15.86460304625058 107.09005528527913 15.76539304625058 106.81444528527913 15.76121304625056C106.73925528527911 15.760213046250584 106.68720528527913 15.513853046250574 106.72794528527913 15.351653046250561L106.76015528527913 15.223343046250562L108.45828528527912 15.223343046250562C110.31554528527911 15.223343046250562 110.21665528527913 15.207343046250571 110.21494528527913 15.508043046250577C110.21393528527912 15.729613046250563 110.15323528527912 15.76724304625057 109.72171528527912 15.81547304625056C109.20812528527912 15.872873046250561 108.96620528527913 15.988843046250565 108.74351528527913 16.284353046250573C108.64712528527912 16.412323046250577 107.91185528527913 17.703323046250574 107.10966528527914 19.153243046250566L105.65114528527911 21.789443046250568L105.65114528527911 23.986283046250577C105.65114528527911 26.406683046250578 105.66303528527914 26.52315304625057 105.94027528527911 26.817103046250566C106.13226528527912 27.02067304625058 106.48201528527912 27.128503046250557 107.08001528527913 27.168493046250575C107.58168528527912 27.20199304625058 107.60508528527913 27.22169304625058 107.57087528527913 27.579903046250564L107.55507528527912 27.745323046250576L104.83880528527914 27.757923046250568C102.39357528527913 27.769323046250577 102.11957528527913 27.762923046250563 102.09276528527911 27.69292304625057L102.09228528527913 27.69280304625056Z " style="fill:#000000;fill-opacity:1;fill-rule:nonzero;stroke:none"></path><path id="path3246" d="M119.83859528527913 10.00157304625057C119.57657528527912 9.979173046250565 119.28950528527912 10.196933046250564 119.08859528527913 10.59532304625057C119.02687528527912 10.717713046250566 117.62090528527912 14.001113046250566 115.96359528527913 17.90782304625057C114.30628528527913 21.814533046250574 112.86980528527911 25.15737304625057 112.77609528527913 25.34532304625057C112.55286528527913 25.792963046250577 112.24476528527913 26.24103304625058 112.02609528527913 26.40782304625057C111.65616528527912 26.689983046250575 110.92644528527913 26.937063046250557 110.43234528527913 26.93907304625057C110.24914528527913 26.93984304625056 110.23075528527912 26.956403046250557 110.18234528527913 27.09532304625057C110.11585528527914 27.286893046250583 110.11843528527913 27.47444304625057 110.18234528527913 27.65782304625057L110.24484528527913 27.78282304625057L113.15109528527913 27.78282304625057C116.43186528527912 27.771263046250567 116.15108528527912 27.805273046250562 116.15109528527913 27.37657304625057C116.15109528527913 26.99861304625057 116.09182528527913 26.944613046250566 115.65109528527913 26.90782304625057C115.23228528527912 26.872893046250567 114.63763528527912 26.74784304625058 114.43234528527913 26.62657304625057C114.23866528527913 26.51214304625057 114.11984528527913 26.286693046250576 114.11984528527913 26.00157304625057C114.11984528527913 25.795813046250572 114.27345528527911 25.374713046250577 114.93234528527913 23.62657304625057C115.46607528527912 22.21050304625058 115.77028528527913 21.46373304625058 115.83859528527913 21.40782304625057C115.89519528527913 21.361543046250574 116.02134528527912 21.31022304625057 116.11984528527913 21.28282304625057C116.23244528527911 21.251623046250558 117.41557528527912 21.220523046250577 119.27609528527913 21.22032304625057C122.05052528527912 21.220123046250563 122.24488528527914 21.233973046250583 122.27609528527913 21.31407304625057C122.64793528527912 22.26655304625058 123.93235528527913 26.06783304625057 123.93234528527913 26.18907304625057C123.93234528527913 26.42462304625056 123.86258528527912 26.59147304625057 123.71359528527913 26.68907304625057C123.54394528527914 26.800243046250557 123.07920528527913 26.866433046250563 122.43234528527913 26.90782304625057C122.07569528527912 26.93062304625056 121.87720528527913 26.986313046250558 121.83859528527913 27.03282304625057C121.76900528527912 27.11657304625058 121.77078528527912 27.652523046250565 121.83859528527913 27.72032304625057C121.87008528527912 27.751823046250564 123.04127528527911 27.775813046250562 125.15109528527913 27.78282304625057L128.43234528527913 27.78282304625057L128.49484528527913 27.68907304625057C128.55853528527913 27.54816304625058 128.55735528527913 27.228403046250577 128.49484528527913 27.06407304625057C128.45405528527914 26.956813046250574 128.42366528527913 26.939633046250577 128.24484528527913 26.93907304625057C127.89632528527912 26.93800304625057 127.13653528527914 26.77172304625057 126.86984528527913 26.62657304625057C126.58310528527912 26.470513046250574 126.42035528527913 26.267523046250574 126.21359528527913 25.87657304625057C126.13428528527913 25.72665304625056 124.77559528527914 22.191693046250577 123.21359528527913 18.03282304625057C121.65160528527912 13.873953046250563 120.33877528527913 10.382223046250573 120.27609528527913 10.28282304625057C120.16184528527913 10.101833046250562 119.99580528527912 10.015013046250573 119.83859528527913 10.00157304625057ZM119.18234528527913 12.87657304625057C119.21201528527914 12.906253046250583 121.80710528527914 20.073483046250573 121.80734528527913 20.12657304625057C121.80756528527914 20.174273046250562 116.85034528527913 20.14292304625056 116.65109528527913 20.09532304625057C116.44376528527911 20.04575304625058 116.36984528527913 20.01103304625056 116.36984528527913 19.90782304625057C116.36984528527913 19.807133046250584 119.05313528527913 12.977823046250563 119.11984528527913 12.90782304625057C119.14373528527912 12.883223046250578 119.16863528527912 12.86287304625057 119.18234528527913 12.87657304625057Z " style="fill:#000000;fill-opacity:1;fill-rule:nonzero;stroke:none"></path></g>
</svg>