<?xml version="1.0" encoding="UTF-8" standalone="no"?>
<svg
	xmlns="http://www.w3.org/2000/svg"
	xmlns:dc="http://purl.org/dc/elements/1.1/"
	xmlns:cc="http://creativecommons.org/ns#"
	xmlns:rdf="http://www.w3.org/1999/02/22-rdf-syntax-ns#"
	xmlns:svg="http://www.w3.org/2000/svg"
	xmlns:xlink="http://www.w3.org/1999/xlink"
	xmlns:sodipodi="http://sodipodi.sourceforge.net/DTD/sodipodi-0.dtd"
	xmlns:inkscape="http://www.inkscape.org/namespaces/inkscape"
	version="1.1"
	viewBox="0 0 138.85899999999998 37.573704444444104">
	<g id="Wikipedia" transform="translate(-9e-3,-0.285)">
		<path id="path3898" d="M20.748 13.610444444444113C20.748 13.610444444444113 20.381 12.864444444444118 20.256 12.616444444444113C19.422 10.963444444444107 19.44 10.875444444444113 18.597 10.76444444444411C18.361 10.733444444444117 18.239 10.703444444444116 18.239 10.586444444444112L18.239 10.063444444444116L18.31 10.012444444444114C19.833 10.010444444444119 23.222 10.010444444444119 23.222 10.010444444444119L23.352 10.05344444444411L23.352 10.574444444444111C23.352 10.693444444444111 23.267 10.754444444444118 23.094 10.754444444444118L22.738 10.805444444444106C21.838 10.875444444444113 21.985 11.243444444444108 22.583 12.434444444444111L28.259999999999998 24.049444444444106L28.454 24.102444444444103L33.494 12.141444444444119C33.669 11.659444444444105 33.641999999999996 11.317444444444106 33.417 11.116444444444113C33.191 10.920444444444115 33.032 10.804444444444115 32.448 10.780444444444115L31.975 10.756444444444114C31.916999999999998 10.756444444444114 31.862 10.735444444444113 31.809 10.696444444444111C31.756999999999998 10.659444444444105 31.73 10.610444444444113 31.73 10.551444444444115L31.73 10.05344444444411L31.802 10.002444444444109C33.222 10.002444444444109 37.496 10.002444444444109 37.496 10.002444444444109L37.554 10.05344444444411L37.554 10.551444444444115C37.554 10.686444444444106 37.477 10.754444444444118 37.325 10.754444444444118C36.579 10.787444444444105 36.025999999999996 10.949444444444111 35.668 11.238444444444113C35.309 11.52944444444411 35.028999999999996 11.930444444444106 34.828 12.451444444444107C34.828 12.451444444444107 30.193 23.0604444444441 28.607 26.586444444444112C28 27.742444444444118 27.403 27.636444444444123 26.878 26.553444444444125C25.769 24.269444444444105 22.646 17.340444444444117 22.646 17.340444444444117L20.748 13.610444444444113L20.748 13.610444444444113Z "></path>
		<path id="path3900" d="M29.844 10.004444444444118C29.844 10.004444444444118 26.641 9.994444444444113 25.215 10.004444444444118L25.144 10.055444444444106L25.144 10.551444444444115C25.144 10.612444444444108 25.169999999999998 10.66044444444411 25.222 10.697444444444116C25.275 10.736444444444118 25.329 10.756444444444114 25.387 10.756444444444114L25.616 10.781444444444105C26.198999999999998 10.805444444444106 26.467 10.958444444444112 26.547 11.054444444444115C26.686 11.224444444444117 26.755 11.408444444444115 26.418 12.143444444444114L20.438 24.07044444444412L20.281 24.029444444444124C20.281 24.029444444444124 15.998 14.998444444444118 14.758 11.977444444444117C14.629 11.664444444444115 14.571 11.432444444444116 14.571 11.289444444444115C14.571 10.982444444444113 14.847999999999999 10.816444444444116 15.402 10.793444444444106L16.048000000000002 10.766444444444119C16.219 10.766444444444119 16.305999999999997 10.700444444444116 16.305999999999997 10.563444444444116L16.305999999999997 10.067444444444106L16.247999999999998 10.016444444444119C16.247999999999998 10.016444444444119 11.118 10.010444444444119 10.058 10.016444444444119L10 10.067444444444106L10 10.588444444444107C10 10.682444444444116 10.119 10.740444444444108 10.358 10.766444444444119C11.009 10.801444444444115 11.437 10.905444444444115 11.642999999999999 11.078444444444116C11.847999999999999 11.253444444444114 12.065 11.695444444444107 12.353 12.384444444444114C13.91 16.12444444444411 17.218 22.7984444444441 18.829 26.599444444444117C19.293 27.6374444444441 19.876 27.7984444444441 20.584 26.567444444444106C21.81 24.293444444444106 25.134 17.349444444444117 25.134 17.349444444444117L27.752 12.453444444444116C28.057 11.936444444444106 28.351 11.475444444444108 28.5 11.260444444444119C28.773 10.867444444444118 28.926 10.793444444444106 29.672 10.758444444444109C29.823999999999998 10.758444444444109 29.901 10.690444444444111 29.901 10.55344444444411L29.901 10.057444444444116L29.844 10.004444444444118L29.844 10.004444444444118Z "></path>
		
		<path id="path3904" d="M39.387201 25.70744444444412C39.387201 26.279444444444124 39.633881 26.617444444444118 40.423258 26.69544444444412L40.941287 26.748444444444118C41.015291 26.748444444444118 41.089294 26.799444444444106 41.089294 26.90344444444412L41.089294 27.44944444444411L41.064627 27.50244444444411C41.064627 27.50244444444411 39.189856 27.44944444444411 38.425148 27.44944444444411C37.734442 27.44944444444411 35.810337 27.50244444444411 35.810337 27.50244444444411L35.761 27.44944444444411L35.761 26.90344444444412C35.761 26.799444444444106 35.835004 26.748444444444118 35.933676 26.748444444444118L36.427037 26.69544444444412C37.241082 26.617444444444118 37.487763 26.20144444444412 37.487763 25.70744444444412L37.487763 17.049444444444106C37.487763 16.478444444444108 37.190796999999996 16.320444444444107 36.427037 16.244444444444113L35.933676 16.19044444444411C35.835004 16.19044444444411 35.761 16.16644444444411 35.761 16.086444444444112L35.761 15.487444444444108L35.785668 15.435444444444116C35.785668 15.435444444444116 37.734442 15.487444444444108 38.499152 15.487444444444108C39.165189 15.487444444444108 41.064627 15.435444444444116 41.064627 15.435444444444116L41.089294 15.487444444444108L41.089294 16.05944444444411C41.089294 16.137444444444114 41.039959 16.189444444444106 40.941287 16.189444444444106L40.423258 16.242444444444118C39.658549 16.319444444444116 39.387201 16.52844444444412 39.387201 17.049444444444106L39.387201 25.70744444444412L39.387201 25.70744444444412Z "></path>
		<path id="path3906" d="M46.667116 25.70744444444412C46.667116 26.279444444444124 46.987801 26.565444444444125 47.703173 26.69544444444412L47.974521 26.748444444444118C48.048526 26.773444444444124 48.12253 26.799444444444106 48.12253 26.90344444444412L48.12253 27.44944444444411L48.097862 27.50244444444411C48.097862 27.50244444444411 46.543776 27.44944444444411 45.803735 27.44944444444411C45.113031 27.44944444444411 43.090252 27.50244444444411 43.090252 27.50244444444411L43.040915 27.44944444444411L43.040915 26.90344444444412C43.040915 26.799444444444106 43.11492 26.748444444444118 43.213592 26.748444444444118L43.706952 26.69544444444412C44.446993 26.617444444444118 44.767678 26.20144444444412 44.767678 25.70744444444412L44.767678 17.049444444444106C44.767678 16.478444444444108 44.49633 16.320444444444107 43.706952 16.244444444444113L43.213592 16.19044444444411C43.11492 16.19044444444411 43.040915 16.16644444444411 43.040915 16.086444444444112L43.040915 15.487444444444108L43.065583 15.435444444444116C43.065583 15.435444444444116 45.088362 15.487444444444108 45.853072 15.487444444444108C46.544725 15.487444444444108 48.097862 15.435444444444116 48.097862 15.435444444444116L48.12253 15.487444444444108L48.12253 16.05944444444411C48.12253 16.137444444444114 48.073194 16.16344444444411 47.974521 16.189444444444106L47.703173 16.242444444444118C46.938463999999996 16.39744444444412 46.667116 16.52844444444412 46.667116 17.049444444444106L46.667116 20.975444444444108C47.481161 20.975444444444108 47.949854 20.534444444444105 49.035247 19.311444444444106C50.021968 18.16644444444411 50.786678 17.206444444444116 50.786678 16.711444444444112C50.786678 16.50244444444411 50.564665 16.26944444444412 50.071305 16.19044444444411C49.972632 16.165444444444105 49.923296 16.13844444444412 49.923296 16.060444444444116L49.923296 15.461444444444112L49.947964999999996 15.436444444444106C49.947964999999996 15.436444444444106 51.946075 15.488444444444113 52.661448 15.488444444444113C53.302817 15.488444444444113 54.38821 15.436444444444106 54.38821 15.436444444444106L54.462214 15.461444444444112L54.462214 16.060444444444116C54.462214 16.13844444444412 54.38821 16.19044444444411 54.26487 16.19044444444411C53.302817 16.268444444444114 52.63678 16.320444444444107 51.748731 17.38644444444411L49.62728 19.959444444444117C49.207924 20.42844444444411 49.059915 20.713444444444107 49.059915 20.92244444444411C49.059915 21.078444444444116 49.158587 21.207444444444107 49.281928 21.363444444444113L53.006801 26.095444444444098C53.302817 26.458444444444126 53.894849 26.61544444444411 54.38821 26.718444444444117L54.51155 26.743444444444123C54.585555 26.769444444444105 54.684227 26.821444444444126 54.684227 26.8994444444441L54.684227 27.44544444444412L54.610222 27.471444444444103C54.610222 27.471444444444103 53.302817 27.44544444444412 52.612111 27.44544444444412C51.995411 27.44544444444412 51.107362 27.471444444444103 51.107362 27.471444444444103L51.082694 27.44544444444412L51.082694 27.13344444444411C51.082694 26.79444444444411 51.058026 26.51044444444412 50.712673 26.09444444444412L47.974521 22.50544444444411C47.604501 21.984444444444108 47.209813 21.856444444444108 46.667116 21.856444444444108L46.667116 25.70744444444412L46.667116 25.70744444444412L46.667116 25.70744444444412Z "></path>
		<path id="path3908" d="M59.966031 25.70744444444412C59.966031 26.279444444444124 60.212711999999996 26.617444444444118 61.002089 26.69544444444412L61.520117 26.748444444444118C61.594122 26.748444444444118 61.668126 26.799444444444106 61.668126 26.90344444444412L61.668126 27.44944444444411L61.643458 27.50244444444411C61.643458 27.50244444444411 59.768687 27.44944444444411 59.003978 27.44944444444411C58.313274 27.44944444444411 56.389167 27.50244444444411 56.389167 27.50244444444411L56.33983 27.44944444444411L56.33983 26.90344444444412C56.33983 26.799444444444106 56.413835 26.748444444444118 56.512507 26.748444444444118L57.005867 26.69544444444412C57.819912 26.617444444444118 58.066593 26.20144444444412 58.066593 25.70744444444412L58.066593 17.049444444444106C58.066593 16.478444444444108 57.770577 16.320444444444107 57.005867 16.244444444444113L56.512507 16.19044444444411C56.413835 16.19044444444411 56.33983 16.16644444444411 56.33983 16.086444444444112L56.33983 15.487444444444108L56.364499 15.435444444444116C56.364499 15.435444444444116 58.313274 15.487444444444108 59.077982 15.487444444444108C59.744019 15.487444444444108 61.643458 15.435444444444116 61.643458 15.435444444444116L61.668126 15.487444444444108L61.668126 16.05944444444411C61.668126 16.137444444444114 61.618789 16.189444444444106 61.520117 16.189444444444106L61.002089 16.242444444444118C60.237379 16.319444444444116 59.966031 16.52844444444412 59.966031 17.049444444444106L59.966031 25.70744444444412L59.966031 25.70744444444412Z "></path>
		<path id="path3910" d="M65.296223 17.100444444444108C65.296223 16.29444444444411 64.975539 16.268444444444114 63.816141 16.19044444444411C63.668134 16.19044444444411 63.643466 16.113444444444113 63.643466 16.060444444444116L63.643466 15.462444444444117L63.692802 15.436444444444106C64.062822 15.436444444444106 65.518236 15.488444444444113 66.233608 15.488444444444113C66.924314 15.488444444444113 67.911036 15.436444444444106 68.823752 15.436444444444106C72.324715 15.436444444444106 72.966084 17.25544444444411 72.966084 18.609444444444108C72.966084 20.170444444444115 72.250711 22.613444444444113 68.749749 22.613444444444113C68.133047 22.613444444444113 67.639687 22.560444444444116 67.194714 22.353444444444108L67.194714 25.835444444444107C67.194714 26.40744444444411 67.49073 26.53844444444411 68.281056 26.6674444444441L68.775365 26.745444444444104C68.874037 26.771444444444114 68.948041 26.7984444444441 68.948041 26.90144444444411L68.948041 27.447444444444102L68.924322 27.499444444444123C68.924322 27.499444444444123 66.95088 27.447444444444102 66.18617 27.447444444444102C65.495466 27.447444444444102 63.645362999999996 27.499444444444123 63.645362999999996 27.499444444444123L63.620695 27.447444444444102L63.620695 26.90144444444411C63.620695 26.797444444444125 63.670031 26.771444444444114 63.768703 26.745444444444104L64.286732 26.6674444444441C65.051441 26.563444444444116 65.29812100000001 26.329444444444107 65.29812100000001 25.835444444444107L65.296223 17.100444444444108L65.296223 17.100444444444108L65.296223 17.100444444444108ZM67.195662 21.625444444444113C67.689023 21.834444444444117 68.305724 21.859444444444108 68.799084 21.859444444444108C70.280115 21.859444444444108 70.992641 20.921444444444106 70.992641 18.921444444444106C70.992641 16.685444444444116 70.030588 16.191444444444116 68.675744 16.191444444444116C67.49073 16.191444444444116 67.194714 16.42544444444411 67.194714 17.101444444444112L67.195662 21.625444444444113L67.195662 21.625444444444113L67.195662 21.625444444444113Z "></path>
		
		<path id="path3914" d="M80.56193999999999 26.7384444444441L81.129305 26.6854444444441C81.870294 26.6074444444441 82.116975 26.373444444444118 82.116975 25.56844444444411L82.116975 16.988444444444113C82.116975 16.310444444444116 81.942401 16.310444444444116 81.129305 16.234444444444108L80.588506 16.180444444444106C80.489834 16.180444444444106 80.413931 16.128444444444114 80.413931 16.05044444444411L80.413931 15.478444444444108L80.437651 15.426444444444115C80.437651 15.426444444444115 82.609387 15.478444444444108 83.05436 15.478444444444108C83.521155 15.478444444444108 85.669171 15.426444444444115 86.31054 15.426444444444115C90.430102 15.426444444444115 92.453829 18.13044444444411 92.453829 21.588444444444107C92.453829 26.13944444444411 89.394045 27.489444444444104 86.656841 27.489444444444104C84.683399 27.489444444444104 83.820967 27.43744444444411 83.056258 27.43744444444411C82.315267 27.43744444444411 80.440497 27.489444444444104 80.440497 27.489444444444104L80.415829 27.43744444444411L80.415829 26.89144444444412C80.413931 26.8164444444441 80.464217 26.7384444444441 80.56193999999999 26.7384444444441L80.56193999999999 26.7384444444441ZM86.06386 26.7384444444441C88.776395 26.7384444444441 90.30771 25.6734444444441 90.30771 22.031444444444105C90.30771 19.328444444444116 89.739396 16.180444444444106 85.595168 16.180444444444106C84.633114 16.180444444444106 84.016414 16.336444444444112 84.016414 16.988444444444113L84.016414 25.56844444444411C84.016414 26.29444444444411 84.188141 26.7384444444441 86.06386 26.7384444444441Z "></path>
		<path id="path3916" d="M77.404432 25.69544444444412C77.404432 26.267444444444124 77.651113 26.605444444444117 78.440489 26.68344444444412L78.958518 26.736444444444118C79.032523 26.736444444444118 79.106526 26.787444444444105 79.106526 26.89144444444412L79.106526 27.43744444444411L79.081858 27.49044444444411C79.081858 27.49044444444411 77.207088 27.43744444444411 76.443328 27.43744444444411C75.751674 27.43744444444411 73.828517 27.49044444444411 73.828517 27.49044444444411L73.778232 27.43744444444411L73.778232 26.89144444444412C73.778232 26.787444444444105 73.852236 26.736444444444118 73.950908 26.736444444444118L74.445217 26.68344444444412C75.258313 26.605444444444117 75.505943 26.18944444444412 75.505943 25.69544444444412L75.505943 17.037444444444105C75.505943 16.466444444444107 75.208977 16.308444444444106 74.445217 16.232444444444113L73.950908 16.17844444444411C73.852236 16.17844444444411 73.778232 16.15444444444411 73.778232 16.07444444444411L73.778232 15.475444444444108L73.802899 15.423444444444115C73.802899 15.423444444444115 75.751674 15.475444444444108 76.514485 15.475444444444108C77.180522 15.475444444444108 79.08091 15.423444444444115 79.08091 15.423444444444115L79.104629 15.475444444444108L79.104629 16.04744444444411C79.104629 16.125444444444113 79.054344 16.177444444444106 78.95662 16.177444444444106L78.438592 16.230444444444117C77.673882 16.307444444444116 77.402535 16.51644444444412 77.402535 17.037444444444105L77.404432 25.69544444444412L77.404432 25.69544444444412L77.404432 25.69544444444412Z "></path>
		<path id="path3918" d="M115.913 26.748444444444118L116.667 26.801444444444115C116.771 26.801444444444115 116.875 26.87944444444412 116.875 27.00844444444411L116.875 27.50244444444411L116.823 27.555444444444106C116.823 27.555444444444106 113.989 27.50244444444411 113.365 27.50244444444411C112.688 27.50244444444411 111.024 27.555444444444106 111.024 27.555444444444106L110.971 27.50244444444411L110.971 27.00844444444411C110.971 26.87944444444412 111.049 26.801444444444115 111.17999999999999 26.801444444444115C112.325 26.723444444444112 112.973 26.51444444444411 113.701 24.850444444444122L119.472 11.329444444444107C119.757 10.65344444444412 119.966 10.39244444444411 120.357 10.39244444444411C120.72 10.39244444444411 120.851 10.65344444444412 121.05799999999999 11.173444444444115L126.388 25.265444444444114C126.753 26.2804444444441 127.273 26.66944444444411 128.313 26.773444444444124L128.599 26.7984444444441C128.72899999999998 26.7984444444441 128.85899999999998 26.876444444444104 128.85899999999998 27.007444444444104L128.85899999999998 27.5004444444441L128.781 27.55244444444412C128.781 27.55244444444412 126.779 27.5004444444441 125.765 27.5004444444441C124.855 27.5004444444441 122.306 27.55244444444412 122.306 27.55244444444412L122.281 27.5004444444441L122.281 27.007444444444104C122.281 26.876444444444104 122.333 26.7984444444441 122.465 26.7984444444441L123.193 26.74644444444411C124.17999999999999 26.66944444444411 124.546 26.355444444444117 124.285 25.628444444444114L122.699 21.233444444444117L117.291 21.233444444444117C116.667 21.233444444444117 116.511 21.337444444444117 116.382 21.674444444444106L114.873 25.44544444444412C114.613 26.097444444444108 114.951 26.670444444444115 115.913 26.748444444444118L115.913 26.748444444444118ZM122.283 20.14244444444411L119.761 13.201444444444107L119.709 13.201444444444107L117.109 19.805444444444106C117.005 20.066444444444116 117.18599999999999 20.143444444444114 117.758 20.143444444444114L122.283 20.143444444444114L122.283 20.14244444444411Z "></path>
	<path d="M97.068865 25.286214444444113L97.068865 17.888794444444116C97.05174 17.152444444444114 97.18299999999999 16.688194444444107 97.462647 16.496014444444114C97.742284 16.303854444444113 98.273033 16.208544444444115 99.054896 16.210084444444107C99.123373 16.14320444444411 99.15761499999999 16.04175444444411 99.157622 15.905694444444109C99.15761499999999 15.769654444444114 99.123373 15.668194444444111 99.054896 15.601314444444114C98.514629 15.610924444444109 98.02573 15.619384444444108 97.588201 15.626674444444106C97.150661 15.633994444444113 96.650349 15.637844444444113 96.087262 15.63819444444411C95.536536 15.637844444444113 95.045735 15.633994444444113 94.61486 15.626674444444106C94.183981 15.619384444444108 93.693181 15.610924444444109 93.142458 15.601314444444114C93.073973 15.668194444444111 93.039731 15.769654444444114 93.039732 15.905694444444109C93.039731 16.04175444444411 93.07397399999999 16.14320444444411 93.142458 16.210084444444107C93.924313 16.208544444444115 94.455064 16.303854444444113 94.734707 16.496014444444114C95.014347 16.688194444444107 95.145607 17.152444444444114 95.12849 17.888794444444116L95.12849 25.286214444444113C95.145607 26.022584444444107 95.014347 26.486824444444125 94.734707 26.6789944444441C94.455062 26.8711544444441 93.924313 26.966464444444114 93.142458 26.964924444444108C93.073973 27.031804444444106 93.039731 27.13326444444411 93.039732 27.26931444444412C93.039731 27.405364444444103 93.07397399999999 27.506824444444106 93.142458 27.573704444444104C93.682718 27.56408444444412 94.171616 27.55563444444411 94.609154 27.548334444444123C95.046687 27.541024444444105 95.546999 27.537184444444108 96.110091 27.5368044444441C96.660811 27.537184444444108 97.151611 27.541024444444105 97.582493 27.548334444444123C98.013365 27.55563444444411 98.504166 27.564094444444123 99.054896 27.573704444444104C99.123373 27.506824444444106 99.15761499999999 27.405364444444103 99.157622 27.26931444444412C99.15761499999999 27.13326444444411 99.123373 27.031804444444106 99.054896 26.964924444444108C98.273033 26.966464444444114 97.742284 26.8711544444441 97.462646 26.6789944444441C97.18299999999999 26.486824444444125 97.051739 26.022584444444107 97.068865 25.286214444444113L97.068865 25.286214444444113ZM107.17888 25.286214444444113L107.17888 22.598424444444106C107.16669 22.268334444444108 107.17564 22.056864444444116 107.2057 21.964064444444105C107.23575 21.871254444444105 107.35998 21.675014444444116 107.57837 21.375364444444116L110.49349 17.114004444444106C110.79192 16.67212444444411 111.07451 16.41447444444411 111.34128 16.34105444444411C111.60801 16.267664444444108 111.98591 16.224004444444105 112.47496 16.210084444444107C112.54343 16.143994444444118 112.57767 16.045594444444106 112.57769 15.914904444444119C112.57768 15.78426444444412 112.54343 15.68587444444411 112.47496 15.619754444444112C112.12921 15.62861444444411 111.79344 15.633994444444113 111.46768 15.635904444444108C111.14189999999999 15.637844444444113 110.84608 15.638604444444113 110.58024 15.63819444444411C110.32104 15.638604444444113 110.02332 15.637844444444113 109.6871 15.635904444444108C109.35085 15.633994444444113 108.95612 15.62861444444411 108.5029 15.619754444444112C108.43441 15.68587444444411 108.40017 15.78426444444412 108.40018 15.914904444444119C108.40017 16.045594444444106 108.43441 16.143994444444118 108.5029 16.210084444444107C109.02185 16.21497444444411 109.39071 16.24165444444411 109.60949 16.29008444444412C109.82825 16.338574444444106 109.81702 16.545554444444107 109.57581 16.911084444444114L106.85929 21.043304444444118C106.76121 21.19742444444411 106.67771 21.267364444444112 106.60876 21.253134444444115C106.53979 21.238934444444112 106.45741 21.156674444444107 106.36164 21.006404444444115L103.48076 16.911084444444114C103.20292 16.541524444444107 103.14908 16.333374444444118 103.31924 16.28663444444412C103.48941 16.239904444444107 103.89327 16.21439444444411 104.53084 16.210084444444107C104.59932 16.14320444444411 104.63356 16.04175444444411 104.63357 15.905694444444109C104.63356 15.769654444444114 104.59932 15.668194444444111 104.53084 15.601314444444114C104.07998 15.610924444444109 103.64625 15.619384444444108 103.22965 15.626674444444106C102.81304 15.633994444444113 102.3793 15.637844444444113 101.928454 15.63819444444411C101.484729 15.637844444444113 101.070974 15.633994444444113 100.68718199999999 15.626674444444106C100.303385 15.619384444444108 99.940992 15.610924444444109 99.600001 15.601314444444114C99.532467 15.668194444444111 99.502031 15.769654444444114 99.508689 15.905694444444109C99.515347 16.04175444444411 99.553394 16.14320444444411 99.622829 16.210084444444107C100.07349 16.206934444444116 100.433981 16.26211444444411 100.704302 16.375644444444106C100.974617 16.489184444444106 101.327119 16.845984444444113 101.761813 17.44606444444412L104.75912 21.522934444444118C104.95386 21.76986444444411 105.08369 21.95857444444411 105.14862 22.08903444444411C105.21353 22.21952444444412 105.24349 22.442824444444113 105.23851 22.758914444444116L105.23851 25.286214444444113C105.26038 26.022584444444107 105.1196 26.486824444444125 104.81619 26.6789944444441C104.51276 26.8711544444441 103.91543 26.966464444444114 103.02419 26.964924444444108C102.95571 27.031804444444106 102.92147 27.13326444444411 102.92147 27.26931444444412C102.92147 27.405364444444103 102.95571 27.506824444444106 103.02419 27.573704444444104C103.56826 27.56408444444412 104.08379 27.55563444444411 104.57078 27.548334444444123C105.05778 27.541024444444105 105.60755 27.537184444444108 106.2201 27.5368044444441C106.82029 27.537184444444108 107.36055 27.541024444444105 107.8409 27.548334444444123C108.32122 27.55563444444411 108.83865 27.564094444444123 109.39319 27.573704444444104C109.46167 27.506824444444106 109.49591 27.405364444444103 109.49592 27.26931444444412C109.49591 27.13326444444411 109.46167 27.031804444444106 109.39319 26.964924444444108C108.50194 26.966464444444114 107.90461 26.8711544444441 107.6012 26.6789944444441C107.29777 26.486824444444125 107.157 26.022584444444107 107.17888 25.286214444444113L107.17888 25.286214444444113Z " id="text4136" style="font-size:7.63022041px;font-style:normal;font-weight:normal;fill:#000000;fill-opacity:1;stroke:none;stroke-width:1px;stroke-linecap:butt;stroke-linejoin:miter;stroke-opacity:1;font-family:Linux Libertine O"></path></g>
</svg>