<?xml version="1.0" encoding="UTF-8" standalone="no"?>
<svg
	xmlns="http://www.w3.org/2000/svg"
	xmlns:dc="http://purl.org/dc/elements/1.1/"
	xmlns:cc="http://creativecommons.org/ns#"
	xmlns:rdf="http://www.w3.org/1999/02/22-rdf-syntax-ns#"
	xmlns:svg="http://www.w3.org/2000/svg"
	xmlns:xlink="http://www.w3.org/1999/xlink"
	xmlns:sodipodi="http://sodipodi.sourceforge.net/DTD/sodipodi-0.dtd"
	xmlns:inkscape="http://www.inkscape.org/namespaces/inkscape"
	version="1.1"
	viewBox="0 0 135.15787519999998 33.720000000000084">
	<g aria-label="ᱣᱤᱠᱤᱯᱤᱰᱤᱭᱟ" id="Wikipedia" transform="translate(0.684072,-0.18667)" style="font-style:normal;font-variant:normal;font-weight:normal;font-stretch:normal;font-size:26.66666603px;line-height:1.25;font-family:'Linux Libertine';-inkscape-font-specification:'Linux Libertine';letter-spacing:0px;word-spacing:0px;fill:#000000;fill-opacity:1;stroke:none"><path d="M15.3573332 23.720000000000056Q13.9013332 23.720000000000056 12.6880002 22.880000000000052Q11.4746662 22.04000000000005 10.7466662 20.341330000000056Q10.0186666 18.642660000000063 10.0186666 16.104000000000056Q10.2053332 16.29066000000006 10.5600002 16.60800000000006Q10.9146662 16.90666000000006 11.3626662 17.242660000000058Q11.8106662 17.56000000000006 12.2773332 17.784000000000063Q12.7626662 18.008000000000067 13.210666199999999 18.008000000000067Q13.826666199999998 18.008000000000067 14.256000199999999 17.746660000000062Q14.7040002 17.48533000000006 14.9280002 16.813330000000065Q15.1520002 16.122660000000067 15.1520002 14.83466000000007Q15.1520002 13.266660000000073 14.6293332 12.333330000000075Q14.1253332 11.400000000000077 13.2480002 11.400000000000077Q12.4826662 11.400000000000077 11.9600002 12.09066000000007Q11.4373332 12.781330000000068 11.4373332 13.789330000000064H10Q10.056 12.912000000000063 10.3920002 12.03466000000006Q10.7466662 11.157330000000059 11.4373332 10.578660000000056Q12.146666199999999 10.000000000000057 13.2480002 10.000000000000057Q14.256000199999999 10.000000000000057 14.9280002 10.485330000000062Q15.6000002 10.952000000000055 15.973333199999999 11.69866000000006Q16.346666199999998 12.426660000000055 16.496000199999997 13.266660000000059Q16.664000199999997 14.106660000000062 16.664000199999997 14.834660000000056Q16.664000199999997 16.440000000000055 16.290666199999997 17.44800000000005Q15.917333199999996 18.456000000000046 15.301333199999997 18.94133000000005Q14.704000199999996 19.408000000000044 13.994666199999998 19.408000000000044Q13.266666199999998 19.408000000000044 12.706666199999997 19.184000000000054Q12.146666199999997 18.94133000000005 11.848000199999998 18.73600000000006Q11.922670199999997 19.520000000000067 12.277333199999998 20.192000000000064Q12.650666199999998 20.845330000000075 13.173333199999998 21.33066000000005Q13.696000199999999 21.797330000000045 14.274666199999999 22.05866000000006Q14.853333199999998 22.32000000000005 15.3573332 22.32000000000005Q16.328000199999998 22.32000000000005 17.0933332 21.610660000000053Q17.8773332 20.90133000000006 18.3066662 19.688000000000045Q18.7546662 18.456000000000046 18.7546662 16.944000000000045Q18.7546662 15.693330000000046 18.5306662 14.610660000000038Q18.3066662 13.509330000000034 17.989333199999997 12.650660000000045Q17.672000199999996 11.773330000000044 17.354666199999997 11.157330000000044Q17.056000199999996 10.522660000000045 16.888000199999997 10.186660000000046H18.698666199999998Q18.9413332 10.765330000000048 19.3333332 11.68000000000005Q19.743999199999998 12.594660000000047 20.0613332 13.901330000000044Q20.3973332 15.208000000000041 20.3973332 16.944000000000045Q20.3973332 18.32533000000005 20.0426662 19.557330000000036Q19.7066662 20.77066000000005 19.0346662 21.722660000000047Q18.3813332 22.656000000000034 17.4480002 23.19733000000005Q16.533333199999998 23.720000000000056 15.3573332 23.720000000000056Z " id="path1327" inkscape:connector-curvature="0" style="font-style:normal;font-variant:normal;font-weight:normal;font-stretch:normal;font-size:18.66666603px;font-family:'Noto Sans Ol Chiki';-inkscape-font-specification:'Noto Sans Ol Chiki, Normal';font-variant-ligatures:normal;font-variant-caps:normal;font-variant-numeric:normal;font-feature-settings:normal;text-align:start;writing-mode:lr-tb;text-anchor:start"></path><path d="M23.0722072 23.533330000000063L21.858874200000002 22.656000000000063L29.157541200000004 12.370660000000058Q29.101541200000003 12.29596000000005 28.802874200000005 12.07200000000006Q28.504207200000003 11.829330000000056 28.000207200000006 11.624000000000066Q27.496207200000004 11.400000000000063 26.805541200000004 11.400000000000063Q26.133541200000003 11.400000000000063 25.554874200000004 11.69866000000006Q24.994874200000005 11.978660000000062 24.565541200000006 12.370660000000058Q24.136207200000005 12.744000000000057 23.893541200000005 13.061330000000055Q23.650874200000004 13.360000000000056 23.613541200000004 13.397330000000053L22.568207200000003 12.389330000000058Q22.717541200000003 12.221330000000052 23.053541200000005 11.829330000000056Q23.408207200000007 11.43733000000006 23.930874200000005 11.02666000000005Q24.472207200000007 10.597330000000056 25.181541200000005 10.298660000000055Q25.909541200000007 10.000000000000057 26.805541200000004 10.000000000000057Q27.738874200000005 10.000000000000057 28.466874200000003 10.298660000000055Q29.2135412 10.578660000000056 29.736207200000003 10.989330000000052Q30.2775412 11.381330000000048 30.613541200000004 11.754660000000058Q30.949541200000002 12.109330000000057 31.061541200000004 12.258660000000063L30.128207200000006 13.58400000000006V23.533330000000063H28.709541200000004V15.581330000000065Z " id="path1329" inkscape:connector-curvature="0" style="font-style:normal;font-variant:normal;font-weight:normal;font-stretch:normal;font-size:18.66666603px;font-family:'Noto Sans Ol Chiki';-inkscape-font-specification:'Noto Sans Ol Chiki, Normal';font-variant-ligatures:normal;font-variant-caps:normal;font-variant-numeric:normal;font-feature-settings:normal;text-align:start;writing-mode:lr-tb;text-anchor:start"></path><path d="M37.1010822 23.720000000000056L33.2557482 20.248000000000047V10.186660000000046H34.8610822V14.536000000000044L37.1010822 12.482660000000038Q37.9224152 12.744000000000042 38.7437482 13.248000000000033Q39.5837482 13.733330000000038 40.2744152 14.442660000000032Q40.9650822 15.15200000000003 41.3944152 16.066660000000027Q41.8237482 16.98133000000003 41.8237482 18.101330000000033Q41.8237482 19.221330000000023 41.3944152 20.136000000000024Q40.9650822 21.050660000000022 40.2744152 21.76000000000002Q39.5837482 22.469330000000014 38.7437482 22.973330000000033Q37.922415199999996 23.458660000000037 37.1010822 23.720000000000027ZM37.2130822 22.05866000000006Q37.847748200000005 21.87200000000007 38.5197482 21.368000000000052Q39.2104152 20.86400000000006 39.6770822 20.061330000000055Q40.1624152 19.240000000000066 40.1624152 18.10133000000006Q40.1624152 16.962660000000056 39.6770822 16.141330000000067Q39.1917482 15.301330000000064 38.4824152 14.797330000000073Q37.7730822 14.274660000000068 37.1010822 14.069330000000079L34.8610822 16.12266000000008V19.94933000000009Z " id="path1331" inkscape:connector-curvature="0" style="font-style:normal;font-variant:normal;font-weight:normal;font-stretch:normal;font-size:18.66666603px;font-family:'Noto Sans Ol Chiki';-inkscape-font-specification:'Noto Sans Ol Chiki, Normal';font-variant-ligatures:normal;font-variant-caps:normal;font-variant-numeric:normal;font-feature-settings:normal;text-align:start;writing-mode:lr-tb;text-anchor:start"></path><path d="M44.3274162 23.533330000000063L43.1140832 22.656000000000063L50.412750200000005 12.370660000000058Q50.35675020000001 12.29596000000005 50.058083200000006 12.07200000000006Q49.759416200000004 11.829330000000056 49.255416200000006 11.624000000000066Q48.75141620000001 11.400000000000063 48.06075020000001 11.400000000000063Q47.38875020000001 11.400000000000063 46.81008320000001 11.69866000000006Q46.250083200000006 11.978660000000062 45.820750200000006 12.370660000000058Q45.39141620000001 12.744000000000057 45.14875020000001 13.061330000000055Q44.90608320000001 13.360000000000056 44.86875020000001 13.397330000000053L43.82341620000001 12.389330000000058Q43.972750200000014 12.221330000000052 44.30875020000001 11.829330000000056Q44.663416200000015 11.43733000000006 45.18608320000001 11.02666000000005Q45.727416200000015 10.597330000000056 46.43675020000001 10.298660000000055Q47.164750200000015 10.000000000000057 48.060750200000015 10.000000000000057Q48.99408320000001 10.000000000000057 49.722083200000014 10.298660000000055Q50.46875020000002 10.578660000000056 50.99141620000002 10.989330000000052Q51.53275020000002 11.381330000000048 51.86874920000002 11.754660000000058Q52.204749200000016 12.109330000000057 52.31674920000002 12.258660000000063L51.38341620000002 13.58400000000006V23.533330000000063H49.96475020000002V15.581330000000065Z " id="path1333" inkscape:connector-curvature="0" style="font-style:normal;font-variant:normal;font-weight:normal;font-stretch:normal;font-size:18.66666603px;font-family:'Noto Sans Ol Chiki';-inkscape-font-specification:'Noto Sans Ol Chiki, Normal';font-variant-ligatures:normal;font-variant-caps:normal;font-variant-numeric:normal;font-feature-settings:normal;text-align:start;writing-mode:lr-tb;text-anchor:start"></path><path d="M59.6442892 23.720000000000056Q58.057622200000004 23.720000000000056 56.806955200000004 23.272000000000048Q55.5562892 22.805330000000055 54.5296222 21.853330000000057L56.1536222 18.680000000000064V12.557330000000064Q55.6869562 12.893330000000063 55.2576222 13.32266000000007Q54.8469562 13.752000000000066 54.4922892 14.274660000000068L53.5776222 13.154660000000064Q54.7722892 11.43733000000006 56.3216222 10.728000000000065Q57.8709552 10.000000000000071 59.9802892 10.000000000000071Q61.5669552 10.000000000000071 62.8176222 10.466660000000076Q64.0682892 10.914660000000069 65.0949552 11.866660000000081L63.4709552 15.040000000000077V21.181330000000088Q63.9376222 20.845330000000075 64.3482892 20.416000000000082Q64.7589552 19.986660000000086 65.1322892 19.44533000000007L66.0469552 20.565330000000074Q64.8522892 22.282660000000078 63.3029552 23.010660000000087Q61.7536222 23.720000000000084 59.6442892 23.720000000000084ZM59.6442892 22.32000000000005Q60.2416222 22.32000000000005 60.7829552 22.245300000000043Q61.342955200000006 22.170600000000036 61.865622200000004 22.00263000000004V14.66663000000004L63.0976222 12.239970000000042Q62.42562220000001 11.829300000000046 61.6602892 11.623970000000043Q60.8949552 11.399970000000039 59.9802892 11.399970000000039Q58.7669552 11.399970000000039 57.7589552 11.735970000000037V19.053330000000074L56.5269552 21.480000000000075Q57.1989552 21.890660000000082 57.9642892 22.11466000000007Q58.7296222 22.32000000000008 59.6442892 22.32000000000008Z " id="path1335" inkscape:connector-curvature="0" style="font-style:normal;font-variant:normal;font-weight:normal;font-stretch:normal;font-size:18.66666603px;font-family:'Noto Sans Ol Chiki';-inkscape-font-specification:'Noto Sans Ol Chiki, Normal';font-variant-ligatures:normal;font-variant-caps:normal;font-variant-numeric:normal;font-feature-settings:normal;text-align:start;writing-mode:lr-tb;text-anchor:start"></path><path d="M68.3899132 23.533330000000063L67.17657919999999 22.656000000000063L74.47524619999999 12.370660000000058Q74.41924619999999 12.29596000000005 74.12057919999998 12.07200000000006Q73.82191219999999 11.829330000000056 73.31791219999998 11.624000000000066Q72.81391219999998 11.400000000000063 72.12324619999998 11.400000000000063Q71.45124619999999 11.400000000000063 70.87257919999998 11.69866000000006Q70.31257919999997 11.978660000000062 69.88324619999997 12.370660000000058Q69.45391319999997 12.744000000000057 69.21124619999998 13.061330000000055Q68.96857919999998 13.360000000000056 68.93124619999998 13.397330000000053L67.88591319999998 12.389330000000058Q68.03524619999997 12.221330000000052 68.37124619999997 11.829330000000056Q68.72591319999998 11.43733000000006 69.24857919999997 11.02666000000005Q69.78991319999997 10.597330000000056 70.49924619999997 10.298660000000055Q71.22724619999997 10.000000000000057 72.12324619999997 10.000000000000057Q73.05657919999997 10.000000000000057 73.78457919999997 10.298660000000055Q74.53124619999997 10.578660000000056 75.05391219999997 10.989330000000052Q75.59524619999998 11.381330000000048 75.93124619999998 11.754660000000058Q76.26724619999997 12.109330000000057 76.37924619999997 12.258660000000063L75.44591219999997 13.58400000000006V23.533330000000063H74.02724619999996V15.581330000000065Z " id="path1337" inkscape:connector-curvature="0" style="font-style:normal;font-variant:normal;font-weight:normal;font-stretch:normal;font-size:18.66666603px;font-family:'Noto Sans Ol Chiki';-inkscape-font-specification:'Noto Sans Ol Chiki, Normal';font-variant-ligatures:normal;font-variant-caps:normal;font-variant-numeric:normal;font-feature-settings:normal;text-align:start;writing-mode:lr-tb;text-anchor:start"></path><path d="M82.9787892 23.533330000000063Q82.3627892 23.365330000000057 81.5041222 22.880000000000052Q80.6641222 22.37600000000006 79.86145619999999 21.55466000000004Q79.05878919999999 20.714660000000038 78.5174562 19.557330000000036Q77.9947892 18.381330000000034 77.9947892 16.832000000000036Q77.9947892 15.730660000000043 78.2747892 14.816000000000031Q78.5734562 13.90133000000003 79.0214562 13.173330000000036Q79.4694562 12.445330000000041 79.95478920000001 11.922660000000036Q80.4401222 11.400000000000034 80.8321222 11.101330000000033Q81.2427892 10.784000000000034 81.4107892 10.690660000000037L82.13878919999999 12.072000000000031Q81.97078919999998 12.146700000000038 81.5601222 12.501330000000024Q81.1681222 12.856000000000023 80.72012219999999 13.472000000000023Q80.2721222 14.088000000000022 79.9547892 14.928000000000026Q79.63745619999999 15.768000000000029 79.63745619999999 16.832000000000022Q79.63745619999999 17.914660000000026 79.9547892 18.773330000000016Q80.29078919999999 19.61333000000002 80.81345519999999 20.24800000000002Q81.33612219999999 20.882660000000016 81.8961222 21.312000000000012Q82.47478919999999 21.72266000000002 82.9787892 21.928000000000026V10.20533000000006H84.5841222Q85.2001222 10.373330000000067 86.0401222 10.877330000000057Q86.8987892 11.362660000000062 87.7014552 12.202660000000051Q88.5041222 13.024000000000058 89.0267892 14.200000000000045Q89.56812219999999 15.357330000000047 89.56812219999999 16.906660000000045Q89.56812219999999 18.008000000000038 89.2694552 18.92266000000005Q88.9894552 19.837330000000037 88.5414552 20.565330000000046Q88.09345520000001 21.293330000000054 87.6081222 21.81600000000006Q87.1227892 22.33866000000006 86.7121222 22.656000000000063Q86.3201222 22.954660000000075 86.1521222 23.04800000000006L85.4241222 21.666660000000064Q85.5921222 21.591960000000057 85.9841222 21.23733000000007Q86.3947892 20.882660000000072 86.8427892 20.26666000000006Q87.29078919999999 19.650660000000045 87.6081222 18.810660000000055Q87.9254552 17.970660000000052 87.9254552 16.90666000000006Q87.9254552 15.842660000000052 87.5894552 14.984000000000066Q87.2721222 14.125330000000062 86.7494552 13.509330000000062Q86.2267892 12.874660000000063 85.6481222 12.464000000000055Q85.06945520000001 12.03466000000006 84.58412220000001 11.829330000000056V23.533330000000063Z " id="path1339" inkscape:connector-curvature="0" style="font-style:normal;font-variant:normal;font-weight:normal;font-stretch:normal;font-size:18.66666603px;font-family:'Noto Sans Ol Chiki';-inkscape-font-specification:'Noto Sans Ol Chiki, Normal';font-variant-ligatures:normal;font-variant-caps:normal;font-variant-numeric:normal;font-feature-settings:normal;text-align:start;writing-mode:lr-tb;text-anchor:start"></path><path d="M92.2701202 23.533330000000063L91.05678619999999 22.656000000000063L98.35545319999999 12.370660000000058Q98.29945319999999 12.29596000000005 98.00078619999998 12.07200000000006Q97.70211919999998 11.829330000000056 97.19811919999998 11.624000000000066Q96.69412019999999 11.400000000000063 96.00345319999998 11.400000000000063Q95.33145319999998 11.400000000000063 94.75278619999999 11.69866000000006Q94.19278619999999 11.978660000000062 93.76345319999999 12.370660000000058Q93.33412019999999 12.744000000000057 93.09145319999999 13.061330000000055Q92.84878619999999 13.360000000000056 92.81145319999999 13.397330000000053L91.76612019999999 12.389330000000058Q91.91545319999999 12.221330000000052 92.25145319999999 11.829330000000056Q92.60612019999999 11.43733000000006 93.12878619999998 11.02666000000005Q93.67012019999999 10.597330000000056 94.37945319999999 10.298660000000055Q95.10745319999998 10.000000000000057 96.00345319999998 10.000000000000057Q96.93678619999999 10.000000000000057 97.66478619999998 10.298660000000055Q98.41145319999998 10.578660000000056 98.93411919999998 10.989330000000052Q99.47545319999999 11.381330000000048 99.81145319999999 11.754660000000058Q100.14745519999998 12.109330000000057 100.25945519999999 12.258660000000063L99.3261192 13.58400000000006V23.533330000000063H97.90745319999999V15.581330000000065Z " id="path1341" inkscape:connector-curvature="0" style="font-style:normal;font-variant:normal;font-weight:normal;font-stretch:normal;font-size:18.66666603px;font-family:'Noto Sans Ol Chiki';-inkscape-font-specification:'Noto Sans Ol Chiki, Normal';font-variant-ligatures:normal;font-variant-caps:normal;font-variant-numeric:normal;font-feature-settings:normal;text-align:start;writing-mode:lr-tb;text-anchor:start"></path><path d="M109.02432519999999 23.720000000000056Q108.0163252 23.720000000000056 107.34432519999999 23.253330000000062Q106.67232519999999 22.768000000000058 106.29899519999998 22.04000000000005Q105.92565519999998 21.293330000000054 105.75765519999997 20.45333000000005Q105.60832519999997 19.613330000000047 105.60832519999997 18.885330000000053Q105.60832519999997 17.280000000000058 105.98165519999996 16.272000000000048Q106.35499519999996 15.264000000000053 106.95232519999996 14.797330000000045Q107.56832519999996 14.31200000000004 108.27765519999996 14.31200000000004Q109.00565519999995 14.31200000000004 109.54699519999996 14.554660000000041Q110.10699519999996 14.797330000000045 110.42432519999996 14.984000000000037Q110.34962519999995 14.200000000000031 109.97632519999996 13.546660000000031Q109.62165519999996 12.874660000000034 109.09899519999996 12.40800000000003Q108.57632519999996 11.922660000000036 107.99765519999997 11.661330000000035Q107.41899519999997 11.400000000000034 106.91499519999996 11.400000000000034Q105.92565519999997 11.400000000000034 105.16032519999996 12.109330000000028Q104.39499519999995 12.818660000000023 103.94699519999996 14.032000000000025Q103.51765519999996 15.245330000000024 103.51765519999996 16.776000000000025Q103.51765519999996 18.04533000000002 103.74165519999997 19.128000000000014Q103.96565519999997 20.21066000000002 104.28299519999997 21.088000000000022Q104.60032519999997 21.94666000000001 104.89899519999997 22.58133000000001Q105.21632519999997 23.197330000000022 105.38432519999998 23.533330000000007H103.57365519999998Q103.33099519999998 22.973330000000004 102.92032519999998 22.058660000000003Q102.52832519999998 21.12532999999999 102.19232519999998 19.818659999999994Q101.87499519999999 18.49333 101.87499519999999 16.775999999999996Q101.87499519999999 15.394660000000002 102.21099519999999 14.181330000000003Q102.56565519999998 12.949330000000003 103.21899519999998 12.016000000000005Q103.89099519999998 11.064000000000007 104.80565519999998 10.541330000000002Q105.73899519999998 10 106.91499519999998 10Q108.38965519999998 10 109.58432519999998 10.840000000000003Q110.79765519999998 11.680000000000007 111.52565519999997 13.378659999999996Q112.25365519999997 15.058660000000003 112.25365519999997 17.616Q112.06699519999997 17.429329999999993 111.71232519999997 17.130660000000006Q111.35765519999997 16.813330000000008 110.90965519999996 16.49600000000001Q110.46165519999997 16.16000000000001 109.97632519999996 15.936000000000007Q109.50965519999997 15.712000000000003 109.06165519999996 15.712000000000003Q108.42699519999996 15.712000000000003 107.99765519999995 15.973330000000004Q107.56832519999996 16.234660000000005 107.34432519999996 16.925330000000002Q107.12032519999995 17.59733 107.12032519999995 18.885329999999996Q107.12032519999995 20.453329999999994 107.62432519999996 21.386660000000006Q108.14699519999996 22.319999999999993 109.02432519999996 22.319999999999993Q109.78965519999997 22.319999999999993 110.31232519999996 21.62932999999998Q110.83499519999997 20.93865999999997 110.83499519999997 19.93065999999999H112.27232519999997Q112.23502519999997 20.807999999999993 111.88032519999997 21.685329999999993Q111.52565519999997 22.562659999999994 110.81632519999998 23.141329999999982Q110.10699519999999 23.71999999999997 109.02432519999998 23.71999999999997Z " id="path1343" inkscape:connector-curvature="0" style="font-style:normal;font-variant:normal;font-weight:normal;font-stretch:normal;font-size:18.66666603px;font-family:'Noto Sans Ol Chiki';-inkscape-font-specification:'Noto Sans Ol Chiki, Normal';font-variant-ligatures:normal;font-variant-caps:normal;font-variant-numeric:normal;font-feature-settings:normal;text-align:start;writing-mode:lr-tb;text-anchor:start"></path><path d="M117.4485352 23.720000000000056Q116.5525352 23.720000000000056 115.78720519999999 23.32800000000006Q115.0405352 22.936000000000064 114.57387519999999 22.32000000000005Q114.1258752 21.68533000000005 114.1258752 20.99466000000004L119.35253519999999 13.136000000000038Q118.88587519999999 12.370660000000044 118.26987519999999 11.885330000000039Q117.65387519999999 11.400000000000034 117.00053519999999 11.400000000000034Q116.60853519999999 11.400000000000034 116.38453519999999 11.53066000000004Q116.16053519999998 11.661330000000035 116.12320519999999 11.698660000000046L116.88853519999999 13.67733000000004Q117.0565352 14.088000000000036 117.0565352 14.480000000000047Q117.0565352 15.021330000000049 116.7205352 15.394660000000044Q116.3845352 15.768000000000043 115.6938752 15.768000000000043H114.3498752L114.0512052 14.330660000000037H115.6192052L114.3498752 11.064000000000036Q114.4431752 10.989300000000028 114.77920519999999 10.746660000000034Q115.11520519999999 10.485330000000033 115.6752052 10.24266000000003Q116.2538752 10.000000000000028 117.01920519999999 10.000000000000028Q117.95253519999999 10.000000000000028 118.75520519999999 10.52266000000003Q119.5578752 11.026660000000035 120.2112052 11.829330000000027L121.4245352 10.000000000000028Q122.41387519999999 10.485330000000033 123.12320519999999 11.269330000000025Q123.83253519999998 12.053330000000031 124.28053519999999 13.02400000000003Q124.72853519999998 13.994660000000025 124.93387519999999 15.021330000000034Q125.15787519999999 16.04800000000003 125.15787519999999 17.00000000000003Q125.15787519999999 18.43733000000003 124.89653519999999 19.594660000000033Q124.63520519999999 20.752000000000038 124.28053519999999 21.59200000000004Q123.9258752 22.432000000000045 123.60853519999999 22.936000000000035Q123.2912052 23.42133000000004 123.1792052 23.533330000000035H121.3685352Q121.49920519999999 23.36533000000003 121.83520519999999 22.842660000000024Q122.18987519999999 22.301330000000036 122.58187519999998 21.461330000000032Q122.97387519999998 20.602660000000043 123.23520519999998 19.48266000000004Q123.51520519999998 18.344000000000037 123.51520519999998 17.000000000000043Q123.51520519999998 16.029330000000044 123.25387519999998 15.077330000000046Q123.01120519999998 14.125330000000048 122.60053519999998 13.360000000000042Q122.20853519999999 12.594660000000047 121.77920519999998 12.14666000000004L121.06987519999998 13.210660000000047Q121.14457519999999 13.341330000000042 121.36853519999998 13.882660000000044Q121.61120519999999 14.405330000000049 121.81653519999998 15.226660000000038Q122.04053519999998 16.029330000000044 122.04053519999998 17.000000000000043Q122.04053519999998 18.941330000000036 121.61120519999999 20.248000000000047Q121.1818752 21.536000000000058 120.49120519999998 22.301330000000036Q119.80053519999998 23.06666000000004 118.99787519999998 23.402660000000026Q118.19520519999998 23.720000000000027 117.44853519999998 23.720000000000027ZM117.4485352 22.32000000000005Q118.21387519999999 22.32000000000005 118.73653519999999 21.946660000000037Q119.2778752 21.55466000000004 119.6138752 20.938660000000027Q119.9498752 20.322660000000013 120.1365352 19.61333000000002Q120.3232052 18.885330000000025 120.3978752 18.213330000000013Q120.47257520000001 17.522660000000016 120.47257520000001 17.000000000000014Q120.47257520000001 16.066660000000013 120.2859152 15.450660000000013Q120.1179152 14.834660000000014 120.0805752 14.704000000000008L115.69391519999999 21.256Q115.74991519999999 21.424000000000007 115.99257519999999 21.685329999999993Q116.2539152 21.927999999999997 116.62724519999999 22.13333Q117.01924519999999 22.319999999999993 117.4485752 22.319999999999993Z " id="path1345" inkscape:connector-curvature="0" style="font-style:normal;font-variant:normal;font-weight:normal;font-stretch:normal;font-size:18.66666603px;font-family:'Noto Sans Ol Chiki';-inkscape-font-specification:'Noto Sans Ol Chiki, Normal';font-variant-ligatures:normal;font-variant-caps:normal;font-variant-numeric:normal;font-feature-settings:normal;text-align:start;writing-mode:lr-tb;text-anchor:start"></path></g>
</svg>