<?xml version="1.0" encoding="UTF-8" standalone="no"?>
<svg
	xmlns="http://www.w3.org/2000/svg"
	xmlns:dc="http://purl.org/dc/elements/1.1/"
	xmlns:cc="http://creativecommons.org/ns#"
	xmlns:rdf="http://www.w3.org/1999/02/22-rdf-syntax-ns#"
	xmlns:svg="http://www.w3.org/2000/svg"
	xmlns:xlink="http://www.w3.org/1999/xlink"
	xmlns:sodipodi="http://sodipodi.sourceforge.net/DTD/sodipodi-0.dtd"
	xmlns:inkscape="http://www.inkscape.org/namespaces/inkscape"
	version="1.1"
	viewBox="0 0 138.86118728388317 37.793000000000006">
	<g id="Wikipedia"><path id="path3417" d="M25.552838283883172 10.891000000000005C26.713837283883173 11.053000000000011 26.57883728388317 11.647000000000006 25.768838283883174 13.213000000000008L24.337838283883173 15.913000000000011L24.20283828388317 15.778000000000006L22.87983828388317 13.051000000000002C22.150839283883172 11.512 22.042839283883172 11.052999999999997 23.17683828388317 10.891000000000005C23.33883828388317 10.729 23.33883828388317 10.162000000000006 23.17683828388317 10C22.20483928388317 10.027000000000001 21.77283728388317 10.054000000000002 20.71983828388317 10.054000000000002C19.63983928388317 10.054000000000002 19.18083728388317 10.027000000000001 18.316838283883172 10C18.15483928388317 10.162000000000006 18.18183928388317 10.729 18.343838283883173 10.891000000000005C19.504837283883173 11.053000000000011 19.720839283883173 11.431000000000012 20.611838283883174 13.347999999999999L22.879838283883174 18.180999999999997L19.882838283883174 24.310000000000002L19.747838283883173 24.310000000000002L14.806839283883173 13.051000000000002C14.131839283883172 11.512 14.212840283883173 11.079999999999998 15.913839283883172 10.891000000000005C16.075838283883172 10.729 16.075838283883172 10.162000000000006 15.913839283883172 10C14.644840283883173 10.027000000000001 13.969838283883172 10.054000000000002 12.916839283883172 10.054000000000002C11.836840883883173 10.054000000000002 11.377837883883172 10.027000000000001 10.108839883883173 10C9.946839883883172 10.162000000000006 9.973839883883173 10.729 10.135839883883172 10.891000000000005C11.674837883883171 11.02600000000001 11.728839883883172 11.431000000000012 12.538839283883172 13.347999999999999L18.424838283883172 27.171999999999997C18.58683828388317 27.576999999999998 18.77583828388317 27.793000000000006 19.04583828388317 27.793000000000006C19.34283828388317 27.793000000000006 19.53183828388317 27.576999999999998 19.69383828388317 27.171999999999997L23.662838283883172 19.342L27.30783828388317 27.171999999999997C27.442838283883173 27.576999999999998 27.65883828388317 27.793000000000006 27.92883828388317 27.793000000000006C28.22583828388317 27.793000000000006 28.38783828388317 27.576999999999998 28.57683828388317 27.171999999999997L34.94883828388317 13.402000000000001C35.51583728388317 12.159999999999997 35.83984028388317 11.107 37.62183828388317 10.891000000000005C37.78383828388317 10.729 37.78383828388317 10.162000000000006 37.62183828388317 10C36.54183928388317 10.027000000000001 35.86683728388317 10.054000000000002 35.245838283883174 10.054000000000002C34.624839283883176 10.054000000000002 33.84183728388317 10.027000000000001 32.57283828388317 10C32.41083828388317 10.162000000000006 32.41083828388317 10.729 32.57283828388317 10.891000000000005C34.32783628388317 11.02600000000001 34.35483728388317 11.75500000000001 33.73383828388317 13.213000000000008L28.603838283883174 24.310000000000002L28.468838283883173 24.310000000000002L25.012838283883173 17.182000000000002L26.983838283883173 13.402000000000001C27.658837283883173 12.159999999999997 28.252839283883173 11.107 29.656838283883175 10.891000000000005C29.818838283883174 10.729 29.818838283883174 10.162000000000006 29.656838283883175 10C28.981839283883176 10.027000000000001 28.306837283883176 10.054000000000002 27.685838283883175 10.054000000000002C27.064839283883174 10.054000000000002 26.551837283883174 10.027000000000001 25.552838283883176 10C25.390838283883177 10.162000000000006 25.390838283883177 10.729 25.552838283883176 10.891000000000005 "></path><path d="M39.58518728388317 25.77000000000001C39.58518728388317 26.342000000000013 39.84518728388317 26.680000000000007 40.67718728388317 26.75800000000001L41.22318728388317 26.811000000000007C41.30118728388317 26.811000000000007 41.37918728388317 26.861999999999995 41.37918728388317 26.966000000000008V27.512L41.353187283883166 27.564999999999998C41.353187283883166 27.564999999999998 39.37718728388317 27.512 38.57118728388316 27.512C37.84318728388316 27.512 35.81518728388316 27.564999999999998 35.81518728388316 27.564999999999998L35.76318728388316 27.512V26.966000000000008C35.76318728388316 26.861999999999995 35.841187283883166 26.811000000000007 35.945187283883165 26.811000000000007L36.46518728388317 26.75800000000001C37.323187283883165 26.680000000000007 37.58318728388317 26.26400000000001 37.58318728388317 25.77000000000001V17.11200000000001C37.58318728388317 16.54100000000001 37.27018728388317 16.38300000000001 36.46518728388317 16.307000000000002L35.945187283883165 16.253C35.841187283883166 16.253 35.76318728388316 16.229 35.76318728388316 16.149V15.549999999999997L35.789187283883166 15.49799999999999C35.789187283883166 15.49799999999999 37.84318728388317 15.549999999999997 38.649187283883165 15.549999999999997C39.351187283883164 15.549999999999997 41.353187283883166 15.49799999999999 41.353187283883166 15.49799999999999L41.37918728388317 15.549999999999997V16.122C41.37918728388317 16.200000000000003 41.32718728388317 16.251999999999995 41.22318728388317 16.251999999999995L40.67718728388317 16.304999999999993C39.871187283883174 16.38199999999999 39.58518728388317 16.590999999999994 39.58518728388317 17.111999999999995V25.769999999999982Z " id="path3904"></path><path d="M47.258187283883174 25.77000000000001C47.258187283883174 26.342000000000013 47.596187283883175 26.628000000000014 48.35018728388317 26.75800000000001L48.636187283883174 26.811000000000007C48.71418728388318 26.836000000000013 48.79218728388317 26.861999999999995 48.79218728388317 26.966000000000008V27.512L48.76618728388317 27.564999999999998C48.76618728388317 27.564999999999998 47.12818728388317 27.512 46.34818728388317 27.512C45.62018728388317 27.512 43.48818728388317 27.564999999999998 43.48818728388317 27.564999999999998L43.43618728388317 27.512V26.966000000000008C43.43618728388317 26.861999999999995 43.514187283883174 26.811000000000007 43.618187283883174 26.811000000000007L44.13818728388318 26.75800000000001C44.91818728388318 26.680000000000007 45.25618728388318 26.26400000000001 45.25618728388318 25.77000000000001V17.11200000000001C45.25618728388318 16.54100000000001 44.97018728388318 16.38300000000001 44.13818728388318 16.307000000000002L43.618187283883174 16.253C43.514187283883174 16.253 43.43618728388317 16.229 43.43618728388317 16.149V15.549999999999997L43.462187283883175 15.49799999999999C43.462187283883175 15.49799999999999 45.59418728388317 15.549999999999997 46.40018728388318 15.549999999999997C47.12918728388318 15.549999999999997 48.76618728388318 15.49799999999999 48.76618728388318 15.49799999999999L48.79218728388318 15.549999999999997V16.122C48.79218728388318 16.200000000000003 48.74018728388318 16.226 48.63618728388318 16.251999999999995L48.35018728388318 16.304999999999993C47.54418728388318 16.459999999999994 47.25818728388318 16.590999999999994 47.25818728388318 17.111999999999995V21.037999999999997C48.11618728388318 21.037999999999997 48.61018728388318 20.596999999999994 49.754187283883184 19.373999999999995C50.79418728388318 18.229 51.60018728388319 17.26899999999999 51.60018728388319 16.774C51.60018728388319 16.564999999999998 51.366187283883185 16.332000000000008 50.84618728388319 16.253C50.74218728388319 16.227999999999994 50.69018728388319 16.200999999999993 50.69018728388319 16.123000000000005V15.524000000000001L50.716187283883194 15.498999999999995C50.716187283883194 15.498999999999995 52.822187283883196 15.551000000000002 53.57618728388319 15.551000000000002C54.252187283883195 15.551000000000002 55.396187283883194 15.498999999999995 55.396187283883194 15.498999999999995L55.4741872838832 15.524000000000001V16.123000000000005C55.4741872838832 16.201000000000008 55.396187283883194 16.253 55.2661872838832 16.253C54.252187283883195 16.331000000000003 53.5501872838832 16.382999999999996 52.6141872838832 17.448999999999998L50.3781872838832 20.02199999999999C49.9361872838832 20.490999999999985 49.7801872838832 20.775999999999996 49.7801872838832 20.984999999999985C49.7801872838832 21.14099999999999 49.8841872838832 21.269999999999982 50.0141872838832 21.425999999999988L53.940187283883205 26.157999999999987C54.2521872838832 26.520999999999987 54.876187283883205 26.677999999999997 55.39618728388321 26.780999999999977L55.52618728388321 26.805999999999983C55.60418728388321 26.831999999999994 55.70818728388321 26.883999999999986 55.70818728388321 26.96199999999999V27.50799999999998L55.63018728388321 27.533999999999992C55.63018728388321 27.533999999999992 54.25218728388321 27.50799999999998 53.52418728388321 27.50799999999998C52.87418728388321 27.50799999999998 51.93818728388321 27.533999999999992 51.93818728388321 27.533999999999992L51.912187283883206 27.50799999999998V27.19599999999997C51.912187283883206 26.85699999999997 51.8861872838832 26.57299999999998 51.522187283883206 26.156999999999982L48.6361872838832 22.567999999999984C48.2461872838832 22.046999999999983 47.830187283883205 21.918999999999983 47.2581872838832 21.918999999999983V25.769999999999982L47.2581872838832 25.769999999999982Z " id="path3906"></path><path d="M61.27518728388317 25.77000000000001C61.27518728388317 26.342000000000013 61.53518728388317 26.680000000000007 62.36718728388317 26.75800000000001L62.91318728388317 26.811000000000007C62.99118728388317 26.811000000000007 63.06918728388317 26.861999999999995 63.06918728388317 26.966000000000008V27.512L63.043187283883164 27.564999999999998C63.043187283883164 27.564999999999998 61.067187283883165 27.512 60.26118728388316 27.512C59.53318728388316 27.512 57.50518728388316 27.564999999999998 57.50518728388316 27.564999999999998L57.45318728388316 27.512V26.966000000000008C57.45318728388316 26.861999999999995 57.53118728388316 26.811000000000007 57.63518728388316 26.811000000000007L58.155187283883166 26.75800000000001C59.01318728388316 26.680000000000007 59.27318728388317 26.26400000000001 59.27318728388317 25.77000000000001V17.11200000000001C59.27318728388317 16.54100000000001 58.96118728388317 16.38300000000001 58.155187283883166 16.307000000000002L57.63518728388316 16.253C57.53118728388316 16.253 57.45318728388316 16.229 57.45318728388316 16.149V15.549999999999997L57.479187283883164 15.49799999999999C57.479187283883164 15.49799999999999 59.533187283883166 15.549999999999997 60.33918728388316 15.549999999999997C61.04118728388316 15.549999999999997 63.043187283883164 15.49799999999999 63.043187283883164 15.49799999999999L63.06918728388317 15.549999999999997V16.122C63.06918728388317 16.200000000000003 63.01718728388317 16.251999999999995 62.91318728388317 16.251999999999995L62.36718728388317 16.304999999999993C61.56118728388317 16.38199999999999 61.27518728388317 16.590999999999994 61.27518728388317 17.111999999999995V25.769999999999982Z " id="path3908"></path><path d="M66.89318728388318 17.162999999999997C66.89318728388318 16.357 66.55518728388319 16.331000000000003 65.33318728388318 16.253C65.17718728388319 16.253 65.15118728388319 16.176000000000002 65.15118728388319 16.123000000000005V15.525000000000006L65.20318728388318 15.49900000000001C65.59318728388318 15.49900000000001 67.12718728388319 15.551000000000016 67.88118728388318 15.551000000000016C68.60918728388319 15.551000000000016 69.64918728388318 15.49900000000001 70.6111872838832 15.49900000000001C74.3011872838832 15.49900000000001 74.97718728388318 17.318000000000012 74.97718728388318 18.67200000000001C74.97718728388318 20.233000000000004 74.22318728388319 22.676000000000016 70.5331872838832 22.676000000000016C69.88318728388319 22.676000000000016 69.36318728388318 22.62300000000002 68.89418728388318 22.41600000000001V25.898000000000025C68.89418728388318 26.470000000000027 69.2061872838832 26.601000000000028 70.0391872838832 26.730000000000018L70.56018728388318 26.80800000000002C70.6641872838832 26.83400000000003 70.7421872838832 26.86100000000002 70.7421872838832 26.964000000000027V27.51000000000002L70.71718728388319 27.562000000000012C70.71718728388319 27.562000000000012 68.63718728388318 27.51000000000002 67.8311872838832 27.51000000000002C67.10318728388319 27.51000000000002 65.1531872838832 27.562000000000012 65.1531872838832 27.562000000000012L65.12718728388319 27.51000000000002V26.964000000000027C65.12718728388319 26.860000000000014 65.17918728388318 26.83400000000003 65.2831872838832 26.80800000000002L65.82918728388319 26.730000000000018C66.6351872838832 26.626000000000005 66.89518728388319 26.392000000000024 66.89518728388319 25.898000000000025L66.89318728388318 17.163000000000025L66.89318728388318 17.163000000000025ZM68.89518728388319 21.688000000000002C69.41518728388317 21.897000000000006 70.06518728388318 21.921999999999997 70.58518728388319 21.921999999999997C72.14618728388317 21.921999999999997 72.89718728388317 20.983999999999995 72.89718728388317 18.983999999999995C72.89718728388317 16.74799999999999 71.88318728388319 16.25399999999999 70.45518728388316 16.25399999999999C69.20618728388317 16.25399999999999 68.89418728388316 16.487999999999985 68.89418728388316 17.163999999999987L68.89518728388316 21.687999999999988L68.89518728388316 21.687999999999988Z " id="path3910"></path><path d="M79.45518728388318 27.512C78.67518728388318 27.512 76.88218728388318 27.564999999999998 76.88218728388318 27.564999999999998L76.85518728388318 27.512V26.939999999999998C76.85518728388318 26.88900000000001 76.88218728388318 26.811000000000007 77.01118728388319 26.811000000000007L77.61018728388319 26.75800000000001C78.4171872838832 26.680000000000007 78.65118728388319 26.159999999999997 78.65118728388319 25.64100000000002V17.06100000000002C78.65118728388319 16.461000000000027 78.33818728388319 16.35800000000002 77.61018728388319 16.307000000000016L77.01118728388319 16.253000000000014C76.85518728388318 16.229000000000013 76.85518728388318 16.176000000000016 76.85518728388318 16.149000000000015V15.550000000000011L76.88218728388318 15.498000000000005C76.88218728388318 15.498000000000005 78.90918728388318 15.550000000000011 79.68918728388319 15.550000000000011H83.51118728388319C84.29118728388319 15.550000000000011 86.13818728388318 15.498000000000005 86.13818728388318 15.498000000000005L86.19118728388318 15.550000000000011C86.21618728388319 16.668000000000006 86.39818728388317 17.68400000000001 86.58118728388318 18.671000000000006L85.93218728388318 18.775000000000006C85.64718728388318 17.812000000000012 85.15318728388318 16.435000000000002 83.48918728388318 16.435000000000002H81.40918728388318C80.91518728388318 16.435000000000002 80.65518728388318 16.617000000000004 80.65518728388318 17.058000000000007V20.829000000000008H82.60418728388318C83.33318728388318 20.829000000000008 83.51418728388317 20.51700000000001 83.61918728388318 19.997000000000014L83.77418728388318 19.451000000000008C83.77418728388318 19.373000000000005 83.82718728388318 19.320000000000007 83.93018728388319 19.320000000000007H84.37118728388319C84.42418728388319 19.320000000000007 84.42418728388319 19.34700000000001 84.42418728388319 19.39800000000001C84.37118728388319 19.970000000000013 84.26818728388318 20.699000000000012 84.26818728388318 21.323000000000008C84.26818728388318 21.97200000000001 84.37218728388318 22.519000000000005 84.42418728388319 23.11700000000002L84.37118728388319 23.170000000000016H83.93018728388319C83.80118728388318 23.170000000000016 83.74718728388318 23.11700000000002 83.74718728388318 23.039000000000016L83.61718728388318 22.468000000000018C83.51318728388318 21.947000000000017 83.27918728388319 21.661000000000016 82.60118728388318 21.661000000000016H80.65318728388317V25.640000000000015C80.65318728388317 26.13300000000001 80.93718728388318 26.62700000000001 81.40718728388318 26.62700000000001H83.87718728388317C85.20318728388317 26.62700000000001 85.93218728388318 25.795000000000016 86.24318728388317 24.442000000000007L86.89218728388317 24.52000000000001L86.37118728388317 27.509000000000015L86.31918728388317 27.561000000000007C86.31918728388317 27.561000000000007 84.78518728388316 27.509000000000015 84.00518728388317 27.509000000000015L79.45518728388318 27.512L79.45518728388318 27.512Z " id="path3912"></path><path d="M89.23318728388317 26.811000000000007L89.83118728388317 26.75800000000001C90.61218728388317 26.680000000000007 90.87218728388316 26.445999999999998 90.87218728388316 25.64100000000002V17.06100000000002C90.87218728388316 16.383000000000024 90.68818728388317 16.383000000000024 89.83118728388317 16.307000000000016L89.26118728388317 16.253000000000014C89.15718728388318 16.253000000000014 89.07718728388318 16.201000000000008 89.07718728388318 16.12300000000002V15.551000000000016L89.10218728388318 15.49900000000001C89.10218728388318 15.49900000000001 91.39118728388318 15.551000000000016 91.86018728388318 15.551000000000016C92.35218728388318 15.551000000000016 94.61618728388318 15.49900000000001 95.29218728388318 15.49900000000001C99.63418728388318 15.49900000000001 101.76718728388317 18.203000000000003 101.76718728388317 21.661000000000016C101.76718728388317 26.212000000000018 98.54218728388318 27.562000000000012 95.65718728388318 27.562000000000012C93.57718728388318 27.562000000000012 92.66818728388317 27.51000000000002 91.86218728388317 27.51000000000002C91.08118728388317 27.51000000000002 89.10518728388317 27.562000000000012 89.10518728388317 27.562000000000012L89.07918728388317 27.51000000000002V26.964000000000027C89.07718728388318 26.88900000000004 89.13018728388317 26.811000000000035 89.23318728388317 26.811000000000035ZM95.03218728388318 26.811000000000007C97.89118728388317 26.811000000000007 99.50518728388317 25.74600000000001 99.50518728388317 22.104000000000013C99.50518728388317 19.40100000000001 98.90618728388317 16.253000000000014 94.53818728388318 16.253000000000014C93.52418728388318 16.253000000000014 92.87418728388317 16.40900000000002 92.87418728388317 17.06100000000002V25.64100000000002C92.87418728388317 26.36700000000002 93.05518728388317 26.811000000000007 95.03218728388318 26.811000000000007Z " id="path3914"></path><path d="M107.90518728388318 25.77000000000001C107.90518728388318 26.342000000000013 108.16518728388318 26.680000000000007 108.99718728388318 26.75800000000001L109.54318728388319 26.811000000000007C109.62118728388319 26.811000000000007 109.69918728388319 26.861999999999995 109.69918728388319 26.966000000000008V27.512L109.6731872838832 27.564999999999998C109.6731872838832 27.564999999999998 107.6971872838832 27.512 106.89218728388319 27.512C106.16318728388319 27.512 104.13618728388319 27.564999999999998 104.13618728388319 27.564999999999998L104.08318728388319 27.512V26.966000000000008C104.08318728388319 26.861999999999995 104.1611872838832 26.811000000000007 104.2651872838832 26.811000000000007L104.7861872838832 26.75800000000001C105.6431872838832 26.680000000000007 105.90418728388319 26.26400000000001 105.90418728388319 25.77000000000001V17.11200000000001C105.90418728388319 16.54100000000001 105.59118728388319 16.38300000000001 104.7861872838832 16.307000000000002L104.2651872838832 16.253C104.1611872838832 16.253 104.08318728388319 16.229 104.08318728388319 16.149V15.549999999999997L104.10918728388319 15.49799999999999C104.10918728388319 15.49799999999999 106.16318728388319 15.549999999999997 106.96718728388319 15.549999999999997C107.66918728388319 15.549999999999997 109.67218728388319 15.49799999999999 109.67218728388319 15.49799999999999L109.6971872838832 15.549999999999997V16.122C109.6971872838832 16.200000000000003 109.6441872838832 16.251999999999995 109.54118728388319 16.251999999999995L108.99518728388318 16.304999999999993C108.18918728388319 16.38199999999999 107.90318728388318 16.590999999999994 107.90318728388318 17.111999999999995L107.90518728388318 25.769999999999982L107.90518728388318 25.769999999999982Z " id="path3916"></path><path d="M115.91518728388317 26.75800000000001L116.66918728388318 26.811000000000007C116.77318728388317 26.811000000000007 116.87718728388317 26.88900000000001 116.87718728388317 27.018V27.512L116.82518728388317 27.564999999999998C116.82518728388317 27.564999999999998 113.99118728388316 27.512 113.36718728388317 27.512C112.69018728388316 27.512 111.02618728388317 27.564999999999998 111.02618728388317 27.564999999999998L110.97318728388318 27.512V27.018C110.97318728388318 26.88900000000001 111.05118728388318 26.811000000000007 111.18218728388318 26.811000000000007C112.32718728388318 26.733000000000004 112.97518728388319 26.524 113.70318728388318 24.860000000000014L119.47418728388318 11.339000000000013C119.75918728388318 10.663000000000011 119.96818728388318 10.402000000000015 120.35918728388319 10.402000000000015C120.72218728388319 10.402000000000015 120.85318728388319 10.663000000000011 121.06018728388318 11.183000000000021L126.39018728388318 25.275000000000034C126.75518728388317 26.29000000000002 127.27518728388318 26.67900000000003 128.31518728388318 26.783000000000044L128.60118728388318 26.80800000000005C128.73118728388317 26.80800000000005 128.86118728388317 26.886000000000053 128.86118728388317 27.017000000000053V27.510000000000048L128.7831872838832 27.56200000000004C128.7831872838832 27.56200000000004 126.78118728388318 27.510000000000048 125.76718728388317 27.510000000000048C124.85718728388318 27.510000000000048 122.30818728388317 27.56200000000004 122.30818728388317 27.56200000000004L122.28318728388317 27.510000000000048V27.017000000000053C122.28318728388317 26.886000000000053 122.33518728388317 26.80800000000005 122.46718728388316 26.80800000000005L123.19518728388316 26.756000000000057C124.18218728388315 26.67900000000006 124.54818728388315 26.365000000000066 124.28718728388316 25.638000000000062L122.70118728388316 21.243000000000066H117.29318728388317C116.66918728388318 21.243000000000066 116.51318728388317 21.347000000000065 116.38418728388316 21.68400000000007L114.87518728388316 25.45500000000007C114.61518728388316 26.107000000000056 114.95318728388317 26.680000000000064 115.91518728388317 26.758000000000067ZM122.28518728388318 20.152000000000015L119.76318728388317 13.211000000000013H119.71118728388316L117.11118728388317 19.815000000000012C117.00718728388317 20.076000000000008 117.18818728388317 20.153000000000006 117.76018728388317 20.153000000000006H122.28518728388318Z " id="path3918"></path></g>
</svg>