<?xml version="1.0" encoding="UTF-8" standalone="no"?>
<svg
	xmlns="http://www.w3.org/2000/svg"
	xmlns:dc="http://purl.org/dc/elements/1.1/"
	xmlns:cc="http://creativecommons.org/ns#"
	xmlns:rdf="http://www.w3.org/1999/02/22-rdf-syntax-ns#"
	xmlns:svg="http://www.w3.org/2000/svg"
	xmlns:xlink="http://www.w3.org/1999/xlink"
	xmlns:sodipodi="http://sodipodi.sourceforge.net/DTD/sodipodi-0.dtd"
	xmlns:inkscape="http://www.inkscape.org/namespaces/inkscape"
	version="1.1"
	viewBox="0 0 138.859 37.435005541655926">
	<g id="Wikipedia" style="font-size:27">
		<path id="path3898" d="M20.748 13.610444444444113C20.748 13.610444444444113 20.381 12.864444444444118 20.256 12.616444444444113C19.422 10.963444444444107 19.44 10.875444444444113 18.597 10.76444444444411C18.361 10.733444444444103 18.239 10.703444444444102 18.239 10.586444444444112V10.063444444444116L18.310000000000002 10.012444444444114C19.833000000000002 10.010444444444119 23.222 10.010444444444119 23.222 10.010444444444119L23.352 10.053444444444125V10.574444444444126C23.352 10.693444444444125 23.267 10.754444444444133 23.094 10.754444444444133L22.738 10.805444444444134C21.838 10.875444444444128 21.985 11.243444444444137 22.583 12.43444444444414L28.259999999999998 24.049444444444134L28.453999999999997 24.10244444444413L33.494 12.141444444444133C33.669 11.659444444444134 33.641999999999996 11.317444444444135 33.416999999999994 11.116444444444127C33.190999999999995 10.92044444444413 33.032 10.80444444444413 32.44799999999999 10.780444444444129L31.974999999999994 10.756444444444128C31.916999999999994 10.756444444444128 31.861999999999995 10.735444444444127 31.808999999999994 10.696444444444126C31.756999999999994 10.65944444444412 31.729999999999993 10.610444444444127 31.729999999999993 10.55144444444413V10.053444444444125L31.801999999999992 10.002444444444123C33.221999999999994 10.002444444444123 37.495999999999995 10.002444444444123 37.495999999999995 10.002444444444123L37.553999999999995 10.053444444444125V10.55144444444413C37.553999999999995 10.686444444444135 37.477 10.754444444444133 37.324999999999996 10.754444444444133C36.57899999999999 10.787444444444134 36.025999999999996 10.949444444444126 35.66799999999999 11.238444444444127C35.30899999999999 11.529444444444124 35.02899999999999 11.93044444444412 34.82799999999999 12.451444444444121C34.82799999999999 12.451444444444121 30.19299999999999 23.06044444444413 28.60699999999999 26.586444444444112C27.99999999999999 27.742444444444118 27.402999999999988 27.636444444444123 26.87799999999999 26.553444444444125C25.76899999999999 24.269444444444133 22.64599999999999 17.34044444444413 22.64599999999999 17.34044444444413L20.74799999999999 13.610444444444127Z " style="font-size:27"></path>
		<path id="path3900" d="M29.844 10.004444444444118C29.844 10.004444444444118 26.641000000000002 9.994444444444113 25.215000000000003 10.004444444444118L25.144000000000002 10.05544444444412V10.551444444444115C25.144000000000002 10.612444444444122 25.17 10.66044444444411 25.222 10.697444444444116C25.275000000000002 10.736444444444118 25.329 10.756444444444114 25.387 10.756444444444114L25.616 10.78144444444412C26.198999999999998 10.80544444444412 26.467 10.958444444444126 26.547 11.054444444444115C26.686 11.224444444444117 26.755 11.408444444444115 26.418 12.143444444444114L20.438 24.07044444444412L20.281 24.029444444444124C20.281 24.029444444444124 15.997999999999998 14.998444444444118 14.758 11.977444444444131C14.629 11.664444444444129 14.571 11.43244444444413 14.571 11.289444444444129C14.571 10.982444444444127 14.847999999999999 10.81644444444413 15.402 10.793444444444134L16.048000000000002 10.766444444444133C16.219 10.766444444444133 16.306 10.70044444444413 16.306 10.56344444444413V10.067444444444135L16.248 10.016444444444133C16.248 10.016444444444133 11.118000000000002 10.010444444444133 10.058 10.016444444444133L10 10.067444444444135V10.588444444444136C10 10.68244444444413 10.119 10.740444444444137 10.358 10.766444444444133C11.009 10.80144444444413 11.437000000000001 10.905444444444129 11.643 11.07844444444413C11.848 11.253444444444128 12.065000000000001 11.695444444444135 12.353000000000002 12.384444444444128C13.910000000000002 16.124444444444123 17.218000000000004 22.79844444444413 18.829 26.599444444444117C19.293 27.637444444444128 19.876 27.79844444444413 20.584 26.567444444444106C21.81 24.293444444444106 25.134 17.349444444444103 25.134 17.349444444444103L27.752 12.453444444444102C28.057 11.936444444444106 28.351 11.475444444444108 28.5 11.260444444444104C28.773 10.867444444444104 28.926 10.793444444444106 29.672 10.758444444444109C29.824 10.758444444444109 29.901 10.690444444444111 29.901 10.55344444444411V10.057444444444116L29.844 10.004444444444118Z " style="font-size:27"></path>
		<path id="path3902" d="M23.526 21.406444444444105C23.506 21.472444444444108 23.714 21.69944444444411 23.779 21.719444444444107L23.934 21.62144444444411C23.998 21.641444444444105 24.137 21.58044444444411 24.157 21.516444444444105L24.184 21.25244444444411L23.905 19.948444444444107C23.854000000000003 19.881444444444114 23.815 19.930444444444106 23.798000000000002 19.991444444444113L23.526000000000003 21.40644444444412Z " style="fill:#ffffff;font-size:27"></path>
		<path d="M38.844 16.417444444444115C38.844 15.877444444444109 39.141001 15.661444444444115 39.978 15.580444444444112L40.545 15.52644444444411C40.653 15.52644444444411 40.707 15.472444444444108 40.707 15.391444444444105L40.707 14.79744444444411L40.68 14.743444444444108C40.68 14.743444444444108 38.601 14.79744444444411 37.872 14.79744444444411C37.035001 14.79744444444411 34.902 14.743444444444108 34.902 14.743444444444108L34.875 14.79744444444411L34.875 15.418444444444106C34.875 15.499444444444109 34.956 15.52644444444411 35.064 15.52644444444411L35.604 15.580444444444112C36.441 15.661444444444115 36.765 15.823444444444107 36.765 16.417444444444115L36.765 25.408444444444115C36.765 25.92144444444412 36.495 26.353444444444108 35.604 26.434444444444125L35.064 26.488444444444127C34.956001 26.488444444444127 34.875 26.54244444444413 34.875 26.650444444444133L34.875 27.21744444444414L34.929 27.271444444444143C34.929 27.271444444444143 37.035001 27.21744444444414 37.791000000000004 27.21744444444414C38.62800000000001 27.21744444444414 40.68000000000001 27.271444444444143 40.68000000000001 27.271444444444143L40.70700000000001 27.21744444444414L40.70700000000001 26.650444444444133C40.70700000000001 26.54244444444413 40.626000000000005 26.488444444444127 40.54500000000001 26.488444444444127L39.97800000000001 26.434444444444125C39.11400100000001 26.353444444444136 38.84400000000001 26.002444444444137 38.84400000000001 25.408444444444115L38.84400000000001 16.417444444444115 " id="path3477"></path><path d="M46.085016 21.412444444444105C46.679015 21.412444444444105 47.111016000000006 21.54744444444411 47.516016 22.087444444444102L50.513016 25.813444444444116C50.891016 26.245444444444104 50.918016 26.54244444444413 50.918016 26.89344444444413L50.918016 27.21744444444414L50.945016 27.244444444444127C50.945016 27.244444444444127 51.917017 27.21744444444414 52.592016 27.21744444444414C53.348015000000004 27.21744444444414 54.779016 27.244444444444127 54.779016 27.244444444444127L54.860016 27.21744444444414L54.860016 26.650444444444133C54.860016 26.569444444444144 54.752016000000005 26.515444444444142 54.671016 26.488444444444127L54.536016000000004 26.46144444444414C53.996016000000004 26.353444444444136 53.348016 26.19144444444413 53.024016 25.813444444444144L48.947016000000005 20.899444444444143C48.81201600000001 20.737444444444137 48.704016 20.602444444444146 48.704016 20.44044444444414C48.704016 20.224444444444146 48.866016 19.927444444444134 49.325016000000005 19.441444444444144L51.64701600000001 16.768444444444143C52.619015000000005 15.661444444444143 53.348017000000006 15.607444444444141 54.401016000000006 15.526444444444138C54.536016000000004 15.526444444444138 54.61701600000001 15.472444444444136 54.61701600000001 15.391444444444133L54.61701600000001 14.770444444444138L54.536016000000004 14.743444444444137C54.536016000000004 14.743444444444137 53.348015000000004 14.797444444444139 52.646016 14.797444444444139C51.863017000000006 14.797444444444139 49.676016000000004 14.743444444444137 49.676016000000004 14.743444444444137L49.649016 14.770444444444138L49.649016 15.391444444444133C49.649016 15.472444444444136 49.703016000000005 15.499444444444137 49.811016 15.526444444444138C50.351015000000004 15.607444444444141 50.594016 15.850444444444136 50.594016 16.066444444444144C50.594016 16.57944444444415 49.757015 17.578444444444145 48.677016 18.766444444444147C47.489017000000004 20.035444444444153 46.976015000000004 20.49444444444414 46.085016 20.49444444444414L46.085016 16.417444444444143C46.085016 15.877444444444137 46.382017000000005 15.742444444444146 47.219016 15.58044444444414L47.516016 15.526444444444138C47.624016 15.499444444444137 47.678016 15.472444444444136 47.678016 15.391444444444133L47.678016 14.797444444444139L47.651016 14.743444444444137C47.651016 14.743444444444137 45.950015 14.797444444444139 45.194016 14.797444444444139C44.357017 14.797444444444139 42.143015999999996 14.743444444444137 42.143015999999996 14.743444444444137L42.116015999999995 14.797444444444139L42.116015999999995 15.418444444444134C42.116015999999995 15.499444444444137 42.197016 15.526444444444138 42.305015999999995 15.526444444444138L42.845015999999994 15.58044444444414C43.709014999999994 15.661444444444143 44.006015999999995 15.823444444444135 44.006015999999995 16.417444444444143L44.006015999999995 25.408444444444143C44.006015999999995 25.92144444444415 43.655015 26.353444444444136 42.845015999999994 26.434444444444154L42.305015999999995 26.488444444444156C42.197016 26.488444444444156 42.116015999999995 26.542444444444158 42.116015999999995 26.65044444444416L42.116015999999995 27.21744444444417L42.170016 27.27144444444417C42.170016 27.27144444444417 44.384017 27.21744444444417 45.140015999999996 27.21744444444417C45.95001499999999 27.21744444444417 47.651016 27.27144444444417 47.651016 27.27144444444417L47.678016 27.21744444444417L47.678016 26.65044444444416C47.678016 26.542444444444158 47.597015999999996 26.51544444444417 47.516016 26.488444444444156L47.219016 26.434444444444154C46.43601700000001 26.299444444444163 46.085016 26.002444444444166 46.085016 25.408444444444143L46.085016 21.412444444444148 " id="path3479"></path><path d="M59.917828 16.417444444444115C59.917828 15.877444444444109 60.214829 15.661444444444115 61.051828 15.580444444444112L61.618828 15.52644444444411C61.726828 15.52644444444411 61.780828 15.472444444444108 61.780828 15.391444444444105L61.780828 14.79744444444411L61.753828 14.743444444444108C61.753828 14.743444444444108 59.674827 14.79744444444411 58.945828 14.79744444444411C58.108829 14.79744444444411 55.975828 14.743444444444108 55.975828 14.743444444444108L55.948828 14.79744444444411L55.948828 15.418444444444106C55.948828 15.499444444444109 56.029828 15.52644444444411 56.137828 15.52644444444411L56.677828 15.580444444444112C57.514827 15.661444444444115 57.838828 15.823444444444107 57.838828 16.417444444444115L57.838828 25.408444444444115C57.838828 25.92144444444412 57.568827 26.353444444444108 56.677828 26.434444444444125L56.137828 26.488444444444127C56.029828 26.488444444444127 55.948828 26.54244444444413 55.948828 26.650444444444133L55.948828 27.21744444444414L56.002828 27.271444444444143C56.002828 27.271444444444143 58.108829 27.21744444444414 58.864828 27.21744444444414C59.701827 27.21744444444414 61.753828000000006 27.271444444444143 61.753828000000006 27.271444444444143L61.78082800000001 27.21744444444414L61.78082800000001 26.650444444444133C61.78082800000001 26.54244444444413 61.699828000000004 26.488444444444127 61.61882800000001 26.488444444444127L61.05182800000001 26.434444444444125C60.18782900000001 26.353444444444136 59.91782800000001 26.002444444444137 59.91782800000001 25.408444444444115L59.91782800000001 16.417444444444115 " id="path3481"></path><path d="M67.104845 16.471444444444117C67.104845 15.769444444444119 67.428846 15.526444444444124 68.724845 15.526444444444124C70.209843 15.526444444444124 71.262845 16.03944444444413 71.262845 18.361444444444118C71.262845 20.44044444444411 70.479843 21.41244444444412 68.85984499999999 21.41244444444412C68.31984499999999 21.41244444444412 67.64484399999999 21.38544444444412 67.104845 21.169444444444125L67.104845 16.47144444444413M65.025845 25.543444444444134C65.025845 26.05644444444414 64.755844 26.299444444444134 63.918845 26.40744444444414L63.351845 26.488444444444127C63.243845 26.515444444444114 63.189845 26.54244444444413 63.189845 26.650444444444133L63.189845 27.21744444444414L63.216845 27.271444444444143C63.216845 27.271444444444143 65.241845 27.21744444444414 65.997845 27.21744444444414C66.834844 27.21744444444414 68.994845 27.271444444444143 68.994845 27.271444444444143L69.021845 27.21744444444414L69.021845 26.650444444444133C69.021845 26.54244444444413 68.940845 26.515444444444142 68.832845 26.488444444444127L68.292845 26.40744444444414C67.428845 26.272444444444147 67.104845 26.137444444444128 67.104845 25.543444444444134L67.104845 21.92544444444414C67.590844 22.141444444444133 68.130845 22.195444444444135 68.80584499999999 22.195444444444135C72.63984099999999 22.195444444444135 73.422845 19.65744444444414 73.422845 18.037444444444134C73.422845 16.633444444444137 72.720841 14.743444444444137 68.886845 14.743444444444137C67.887846 14.743444444444137 66.80784399999999 14.797444444444139 66.051845 14.797444444444139C65.268845 14.797444444444139 63.675844 14.743444444444137 63.270845 14.743444444444137L63.216845 14.770444444444138L63.216845 15.391444444444133C63.216845 15.445444444444135 63.243845 15.526444444444138 63.405845 15.526444444444138C64.67484300000001 15.607444444444141 65.025845 15.634444444444142 65.025845 16.47144444444413L65.025845 25.543444444444134 " id="path3483"></path><path d="M82.074609 27.217444444444112C82.884608 27.217444444444112 84.477609 27.271444444444114 84.477609 27.271444444444114L84.531609 27.217444444444112L85.07160900000001 24.112444444444122L84.39660900000001 24.031444444444134C84.07260900000001 25.43544444444413 83.31660800000002 26.299444444444134 81.93960900000002 26.299444444444134L79.37460900000002 26.299444444444134C78.88861000000001 26.299444444444134 78.59160900000002 25.78644444444413 78.59160900000002 25.273444444444124L78.59160900000002 21.142444444444124L80.61660900000003 21.142444444444124C81.31860800000003 21.142444444444124 81.56160900000002 21.43944444444412 81.66960900000002 21.979444444444127L81.80460900000003 22.57344444444412C81.80460900000003 22.654444444444124 81.85860900000003 22.708444444444126 81.99360900000002 22.708444444444126L82.45260900000002 22.708444444444126L82.50660900000003 22.654444444444124C82.45260900000002 22.03344444444413 82.34460900000002 21.46644444444412 82.34460900000002 20.791444444444124C82.34460900000002 20.14344444444413 82.45260900000002 19.387444444444128 82.50660900000003 18.79344444444412C82.50660900000003 18.739444444444118 82.50660900000003 18.712444444444117 82.45260900000002 18.712444444444117L81.99360900000002 18.712444444444117C81.88560900000002 18.712444444444117 81.83160900000001 18.76644444444412 81.83160900000001 18.847444444444122L81.66960900000001 19.414444444444115C81.561609 19.95444444444412 81.37260800000001 20.27844444444412 80.61660900000001 20.27844444444412L78.591609 20.27844444444412L78.591609 16.363444444444113C78.591609 15.90444444444411 78.86161 15.715444444444117 79.374609 15.715444444444117L81.534609 15.715444444444117C83.262607 15.715444444444117 83.775609 17.146444444444114 84.072609 18.145444444444124L84.747609 18.03744444444412C84.558609 17.011444444444123 84.369609 15.958444444444126 84.342609 14.797444444444125L84.288609 14.743444444444123C84.288609 14.743444444444123 82.371608 14.797444444444125 81.56160899999999 14.797444444444125L77.592609 14.797444444444125C76.78260999999999 14.797444444444125 74.676609 14.743444444444123 74.676609 14.743444444444123L74.649609 14.797444444444125L74.649609 15.41844444444412C74.649609 15.44544444444412 74.649609 15.499444444444123 74.811609 15.526444444444124L75.432609 15.580444444444126C76.188608 15.634444444444128 76.512609 15.742444444444132 76.512609 16.363444444444127L76.512609 25.273444444444124C76.512609 25.813444444444116 76.26960799999999 26.353444444444136 75.432609 26.434444444444125L74.811609 26.488444444444127C74.676609 26.488444444444127 74.649609 26.569444444444116 74.649609 26.623444444444118L74.649609 27.217444444444112L74.676609 27.271444444444114C74.676609 27.271444444444114 76.53961 27.217444444444112 77.349609 27.217444444444112L82.074609 27.217444444444112 " id="path3485"></path><path d="M86.583985 26.650444444444105L86.583985 27.217444444444112L86.610985 27.271444444444114C86.610985 27.271444444444114 88.662986 27.217444444444112 89.472985 27.217444444444112C90.309984 27.217444444444112 91.254987 27.271444444444114 93.41498499999999 27.271444444444114C96.41198199999998 27.271444444444114 99.75998499999999 25.867444444444118 99.75998499999999 21.14244444444411C99.75998499999999 17.551444444444115 97.54597999999999 14.743444444444108 93.03698499999999 14.743444444444108C92.33498599999999 14.743444444444108 89.98598399999999 14.79744444444411 89.47298499999998 14.79744444444411C88.98698499999998 14.79744444444411 86.61098499999999 14.743444444444108 86.61098499999999 14.743444444444108L86.58398499999998 14.79744444444411L86.58398499999998 15.391444444444105C86.58398499999998 15.472444444444108 86.66498499999999 15.52644444444411 86.77298499999998 15.52644444444411L87.36698499999997 15.580444444444112C88.25798399999996 15.661444444444115 88.44698499999997 15.661444444444115 88.44698499999997 16.363444444444113L88.44698499999997 25.273444444444124C88.44698499999997 26.110444444444113 88.17698399999998 26.353444444444136 87.36698499999997 26.434444444444125L86.74598499999998 26.488444444444127C86.63798499999997 26.488444444444127 86.58398499999997 26.569444444444116 86.58398499999997 26.650444444444133M90.52598499999998 25.273444444444124L90.52598499999998 16.363444444444127C90.52598499999998 15.68844444444413 91.20098599999997 15.526444444444124 92.25398499999997 15.526444444444124C96.78997999999997 15.526444444444124 97.41098499999997 18.79344444444412 97.41098499999997 21.601444444444127C97.41098499999997 25.381444444444128 95.73698199999997 26.488444444444127 92.76698499999996 26.488444444444127C90.71498699999997 26.488444444444127 90.52598499999996 26.029444444444124 90.52598499999996 25.273444444444124 " id="path3487"></path><path d="M105.74634 25.57044444444412C105.74634 26.110444444444113 105.42234 26.353444444444108 104.58534 26.434444444444125L104.04534 26.488444444444127C103.93733999999999 26.488444444444127 103.85634 26.569444444444116 103.85634 26.650444444444133L103.85634 27.21744444444414L103.91034 27.271444444444143C103.91034 27.271444444444143 106.01634 27.21744444444414 106.77234 27.21744444444414C107.60934 27.21744444444414 109.66134 27.271444444444143 109.66134 27.271444444444143L109.71534 27.21744444444414L109.71534 26.650444444444133C109.71534 26.569444444444144 109.63434 26.488444444444127 109.52634 26.488444444444127L108.95934000000001 26.434444444444125C108.12234000000001 26.353444444444136 107.82534000000001 26.164444444444115 107.82534000000001 25.57044444444412L107.82534000000001 21.81744444444412L110.79534000000001 16.57944444444412C111.20034000000001 15.850444444444122 111.33534000000002 15.688444444444116 112.19934 15.580444444444126L112.65834000000001 15.526444444444124C112.84734 15.499444444444123 112.84734 15.44544444444412 112.84734 15.391444444444119L112.84734 14.797444444444125L112.82034 14.743444444444123C112.41534 14.770444444444124 111.17334 14.797444444444125 110.98434 14.797444444444125C110.71434 14.797444444444125 109.20234 14.743444444444123 108.90534000000001 14.743444444444123L108.85134000000001 14.770444444444124L108.85134000000001 15.391444444444119C108.85134000000001 15.44544444444412 108.87834000000001 15.526444444444124 108.95934000000001 15.526444444444124L109.58034 15.580444444444126C110.22834 15.634444444444128 110.22834 15.661444444444129 109.87734 16.309444444444125L107.36634000000001 20.764444444444123L107.31234 20.764444444444123L104.58534 16.309444444444125C104.31534 15.877444444444123 104.20734 15.634444444444128 104.85534 15.580444444444126L105.44933999999999 15.526444444444124C105.53034 15.526444444444124 105.58434 15.44544444444412 105.58434 15.391444444444119L105.58434 14.770444444444124L105.55734 14.743444444444123C105.23334 14.770444444444124 102.96534 14.797444444444125 102.83033999999999 14.797444444444125C102.53334 14.797444444444125 100.85934099999999 14.743444444444123 100.61634099999999 14.743444444444123L100.56234099999999 14.797444444444125L100.56234099999999 15.391444444444119C100.56234099999999 15.499444444444123 100.697341 15.526444444444124 100.77834099999998 15.526444444444124C101.56133999999999 15.607444444444127 101.99333999999999 15.769444444444119 102.34433999999999 16.336444444444126L105.74633999999999 21.925444444444125L105.74633999999999 25.57044444444412 " id="path3489"></path>
		<path id="path3918" d="M115.913 26.475444444444122L116.667 26.52844444444412C116.771 26.52844444444412 116.875 26.606444444444122 116.875 26.735444444444113V27.229444444444113L116.823 27.28244444444411C116.823 27.28244444444411 113.98899999999999 27.229444444444113 113.365 27.229444444444113C112.68799999999999 27.229444444444113 111.024 27.28244444444411 111.024 27.28244444444411L110.971 27.229444444444113V26.735444444444113C110.971 26.606444444444122 111.049 26.52844444444412 111.18 26.52844444444412C112.325 26.450444444444116 112.97300000000001 26.241444444444113 113.70100000000001 24.577444444444126L119.47200000000001 11.056444444444125C119.757 10.380444444444123 119.96600000000001 10.119444444444127 120.35700000000001 10.119444444444127C120.72000000000001 10.119444444444127 120.85100000000001 10.380444444444123 121.058 10.900444444444133L126.388 24.992444444444146C126.753 26.007444444444133 127.27300000000001 26.396444444444143 128.313 26.500444444444156L128.599 26.52544444444416C128.72899999999998 26.52544444444416 128.859 26.603444444444165 128.859 26.734444444444165V27.22744444444416L128.781 27.279444444444152C128.781 27.279444444444152 126.77900000000001 27.22744444444416 125.765 27.22744444444416C124.855 27.22744444444416 122.306 27.279444444444152 122.306 27.279444444444152L122.28099999999999 27.22744444444416V26.734444444444165C122.28099999999999 26.603444444444165 122.333 26.52544444444416 122.46499999999999 26.52544444444416L123.19299999999998 26.47344444444417C124.17999999999998 26.39644444444417 124.54599999999998 26.082444444444178 124.28499999999998 25.355444444444174L122.69899999999998 20.960444444444178H117.291C116.667 20.960444444444178 116.511 21.064444444444177 116.38199999999999 21.40144444444418L114.87299999999999 25.17244444444418C114.61299999999999 25.82444444444417 114.951 26.397444444444176 115.913 26.47544444444418ZM122.283 19.869444444444127L119.761 12.928444444444125H119.70899999999999L117.109 19.532444444444124C117.005 19.79344444444412 117.18599999999999 19.870444444444118 117.758 19.870444444444118H122.283Z " style="font-size:27"></path>
	</g>
</svg>