<?xml version="1.0" encoding="UTF-8" standalone="no"?>
<svg
	xmlns="http://www.w3.org/2000/svg"
	xmlns:dc="http://purl.org/dc/elements/1.1/"
	xmlns:cc="http://creativecommons.org/ns#"
	xmlns:rdf="http://www.w3.org/1999/02/22-rdf-syntax-ns#"
	xmlns:svg="http://www.w3.org/2000/svg"
	xmlns:xlink="http://www.w3.org/1999/xlink"
	xmlns:sodipodi="http://sodipodi.sourceforge.net/DTD/sodipodi-0.dtd"
	xmlns:inkscape="http://www.inkscape.org/namespaces/inkscape"
	version="1.1"
	viewBox="0 0 134.3479565996 37.38222694100003">
	<g id="Wikipedia"><path transform="matrix(0.9608749,0,0,0.9608749,2.8437201,4.8727483)" id="path23930" d="M20.5156707633845 7.847024179630466L16.303670763384496 19.67302417963046L16.1956707633845 19.67302417963046L11.929670763384495 7.658024179630459C11.632670763384496 6.848024179630457 11.848670763384495 6.632024179630463 13.117670763384496 6.470024179630457L13.576670763384495 6.416024179630455C13.711670763384495 6.389024179630468 13.792670763384496 6.335024179630466 13.792670763384496 6.200024179630461L13.792670763384496 5.6870241796304555L13.738670763384496 5.633024179630468C13.738670763384496 5.633024179630468 11.605669763384496 5.6870241796304555 10.660670763384495 5.6870241796304555C9.607671763384495 5.6870241796304555 7.501670763384496 5.633024179630468 7.501670763384496 5.633024179630468L7.447670763384496 5.6870241796304555L7.447670763384496 6.200024179630461C7.447670763384496 6.335024179630466 7.555670863384496 6.416024179630455 7.663670763384495 6.416024179630455C9.067669363384496 6.55102417963046 9.310671163384496 6.956024179630461 9.715670763384496 8.090024179630461L14.953670763384496 22.805024179630465C15.088670763384496 23.210024179630466 15.304670763384495 23.426024179630474 15.574670763384495 23.426024179630474C15.871670763384495 23.426024179630474 16.060670763384493 23.210024179630466 16.222670763384492 22.805024179630465L21.703670763384494 8.198024179630465C22.081670763384494 7.226024179630457 22.540671763384495 6.497024179630458 24.025670763384497 6.416024179630455C24.160670763384495 6.416024179630455 24.241670763384498 6.335024179630466 24.241670763384498 6.200024179630461L24.241670763384498 5.6870241796304555L24.187670763384496 5.633024179630468C24.187670763384496 5.633024179630468 22.648669763384497 5.6870241796304555 21.703670763384494 5.6870241796304555C20.650671763384494 5.6870241796304555 18.733670763384495 5.633024179630468 18.733670763384495 5.633024179630468L18.679670763384493 5.6870241796304555L18.679670763384493 6.200024179630461C18.679670763384493 6.335024179630466 18.787670763384497 6.416024179630455 18.895670763384494 6.416024179630455L19.327670763384496 6.443024179630456C20.326669763384494 6.497024179630458 20.8936707633845 6.821024179630456 20.5156707633845 7.847024179630466 " inkscape:connector-curvature="0" style="font-size:27px;font-style:normal;font-variant:normal;font-weight:normal;font-stretch:normal;text-align:start;line-height:125%;letter-spacing:-0.40000001;writing-mode:lr-tb;text-anchor:start;fill:#000000;fill-opacity:1;font-family:Linux LIbertine O C;-inkscape-font-specification:Linux LIbertine O C"></path><path transform="matrix(0.9608749,0,0,0.9608749,2.8437201,4.8727483)" id="path23932" d="M26.220202763384496 6.983024179630462C26.220202763384496 7.68502417963046 26.787202763384492 8.252024179630467 27.516202763384495 8.252024179630467C28.218201763384492 8.252024179630467 28.812202763384494 7.68502417963046 28.812202763384494 6.983024179630462C28.812202763384494 6.254024179630463 28.218201763384492 5.6870241796304555 27.516202763384495 5.6870241796304555C26.787202763384492 5.6870241796304555 26.220202763384496 6.254024179630463 26.220202763384496 6.983024179630462M28.650202763384495 12.302024179630465C28.650202763384495 11.762024179630458 28.947202763384492 11.546024179630464 29.784202763384492 11.465024179630461L30.351202763384492 11.41102417963046C30.459202763384493 11.41102417963046 30.513202763384495 11.357024179630457 30.513202763384495 11.276024179630468L30.513202763384495 10.68202417963046L30.486202763384494 10.628024179630458C30.486202763384494 10.628024179630458 28.407201763384492 10.68202417963046 27.678202763384494 10.68202417963046C26.841202763384494 10.68202417963046 24.708202763384495 10.628024179630458 24.708202763384495 10.628024179630458L24.681202763384494 10.68202417963046L24.681202763384494 11.303024179630455C24.681202763384494 11.384024179630458 24.762202763384494 11.41102417963046 24.870202763384494 11.41102417963046L25.410202763384493 11.465024179630461C26.247201763384496 11.546024179630464 26.571202763384495 11.708024179630456 26.571202763384495 12.302024179630465L26.571202763384495 21.293024179630464C26.571202763384495 21.80602417963047 26.301201763384494 22.238024179630457 25.410202763384493 22.319024179630475L24.870202763384494 22.37302417963045C24.762202763384494 22.37302417963045 24.681202763384494 22.42702417963045 24.681202763384494 22.535024179630454L24.681202763384494 23.10202417963046L24.735202763384493 23.156024179630464C24.735202763384493 23.156024179630464 26.841202763384494 23.10202417963046 27.597202763384495 23.10202417963046C28.434201763384493 23.10202417963046 30.486202763384494 23.156024179630464 30.486202763384494 23.156024179630464L30.513202763384495 23.10202417963046L30.513202763384495 22.535024179630454C30.513202763384495 22.42702417963045 30.432202763384495 22.37302417963045 30.351202763384492 22.37302417963045L29.784202763384492 22.319024179630475C28.920202763384495 22.238024179630457 28.650202763384495 21.88702417963046 28.650202763384495 21.293024179630464L28.650202763384495 12.302024179630465 " inkscape:connector-curvature="0" style="font-size:27px;font-style:normal;font-variant:normal;font-weight:normal;font-stretch:normal;text-align:start;line-height:125%;letter-spacing:-0.40000001;writing-mode:lr-tb;text-anchor:start;fill:#000000;fill-opacity:1;font-family:Linux LIbertine O C;-inkscape-font-specification:Linux LIbertine O C"></path><path transform="matrix(0.9608749,0,0,0.9608749,2.8437201,4.8727483)" id="path23934" d="M35.79121876338449 17.297024179630455C36.385217763384496 17.297024179630455 36.817218763384496 17.43202417963046 37.2222187633845 17.972024179630466L40.2192187633845 21.698024179630465C40.59721776338449 22.130024179630453 40.62421876338449 22.42702417963045 40.62421876338449 22.77802417963045L40.62421876338449 23.10202417963046L40.65121876338449 23.12902417963045C40.65121876338449 23.12902417963045 41.62321876338449 23.10202417963046 42.2982187633845 23.10202417963046C43.05421776338449 23.10202417963046 44.485218763384495 23.12902417963045 44.485218763384495 23.12902417963045L44.56621876338449 23.10202417963046L44.56621876338449 22.535024179630454C44.56621876338449 22.454024179630466 44.458218763384494 22.400024179630464 44.37721876338449 22.37302417963045L44.24221876338449 22.34602417963046C43.702218763384494 22.238024179630457 43.05421776338449 22.07602417963045 42.73021876338449 21.698024179630465L38.653218763384494 16.784024179630464C38.518218763384496 16.622024179630458 38.41021876338449 16.487024179630467 38.41021876338449 16.32502417963046C38.41021876338449 16.109024179630467 38.57221876338449 15.812024179630455 39.031218763384494 15.326024179630465L41.3532187633845 12.653024179630464C42.325217763384494 11.546024179630464 43.054219763384495 11.492024179630462 44.107218763384495 11.41102417963046C44.24221876338449 11.41102417963046 44.323218763384496 11.357024179630457 44.323218763384496 11.276024179630468L44.323218763384496 10.655024179630459L44.24221876338449 10.628024179630458C44.24221876338449 10.628024179630458 43.05421776338449 10.68202417963046 42.35221876338449 10.68202417963046C41.56921876338449 10.68202417963046 39.38221876338449 10.628024179630458 39.38221876338449 10.628024179630458L39.35521876338449 10.655024179630459L39.35521876338449 11.276024179630468C39.35521876338449 11.357024179630457 39.409218763384494 11.384024179630458 39.51721876338449 11.41102417963046C40.05721776338449 11.492024179630462 40.30021876338449 11.735024179630457 40.30021876338449 11.951024179630465C40.30021876338449 12.464024179630457 39.46321776338449 13.463024179630466 38.38321876338449 14.651024179630468C37.19521976338449 15.92002417963046 36.68221776338449 16.379024179630463 35.79121876338449 16.379024179630463L35.79121876338449 12.302024179630465C35.79121876338449 11.762024179630458 36.088218763384496 11.627024179630467 36.92521876338449 11.465024179630461L37.2222187633845 11.41102417963046C37.330218763384494 11.384024179630458 37.384218763384496 11.357024179630457 37.384218763384496 11.276024179630468L37.384218763384496 10.68202417963046L37.357218763384495 10.628024179630458C37.357218763384495 10.628024179630458 35.6562177633845 10.68202417963046 34.900218763384494 10.68202417963046C34.06321876338449 10.68202417963046 31.849218763384492 10.628024179630458 31.849218763384492 10.628024179630458L31.82221876338449 10.68202417963046L31.82221876338449 11.303024179630455C31.82221876338449 11.384024179630458 31.903218763384494 11.41102417963046 32.01121876338449 11.41102417963046L32.5512187633845 11.465024179630461C33.4152177633845 11.546024179630464 33.71221876338449 11.708024179630456 33.71221876338449 12.302024179630465L33.71221876338449 21.293024179630464C33.71221876338449 21.80602417963047 33.361217763384495 22.238024179630457 32.5512187633845 22.319024179630475L32.01121876338449 22.37302417963045C31.903218763384494 22.37302417963045 31.82221876338449 22.42702417963045 31.82221876338449 22.535024179630454L31.82221876338449 23.10202417963046L31.876218763384493 23.156024179630464C31.876218763384493 23.156024179630464 34.09021876338449 23.10202417963046 34.84621876338449 23.10202417963046C35.6562177633845 23.10202417963046 37.357218763384495 23.156024179630464 37.357218763384495 23.156024179630464L37.384218763384496 23.10202417963046L37.384218763384496 22.535024179630454C37.384218763384496 22.42702417963045 37.30321876338449 22.400024179630464 37.2222187633845 22.37302417963045L36.92521876338449 22.319024179630475C36.14221876338449 22.184024179630455 35.79121876338449 21.88702417963046 35.79121876338449 21.293024179630464L35.79121876338449 17.297024179630455 " inkscape:connector-curvature="0" style="font-size:27px;font-style:normal;font-variant:normal;font-weight:normal;font-stretch:normal;text-align:start;line-height:125%;letter-spacing:-0.40000001;writing-mode:lr-tb;text-anchor:start;fill:#000000;fill-opacity:1;font-family:Linux LIbertine O C;-inkscape-font-specification:Linux LIbertine O C"></path><path transform="matrix(0.9608749,0,0,0.9608749,2.8437201,4.8727483)" id="path23936" d="M47.09402976338449 6.983024179630462C47.09402976338449 7.68502417963046 47.66102976338449 8.252024179630467 48.3900297633845 8.252024179630467C49.09202876338449 8.252024179630467 49.6860297633845 7.68502417963046 49.6860297633845 6.983024179630462C49.6860297633845 6.254024179630463 49.09202876338449 5.6870241796304555 48.3900297633845 5.6870241796304555C47.66102976338449 5.6870241796304555 47.09402976338449 6.254024179630463 47.09402976338449 6.983024179630462M49.52402976338449 12.302024179630465C49.52402976338449 11.762024179630458 49.821029763384495 11.546024179630464 50.65802976338449 11.465024179630461L51.22502976338449 11.41102417963046C51.333029763384495 11.41102417963046 51.3870297633845 11.357024179630457 51.3870297633845 11.276024179630468L51.3870297633845 10.68202417963046L51.360029763384496 10.628024179630458C51.360029763384496 10.628024179630458 49.28102876338449 10.68202417963046 48.552029763384496 10.68202417963046C47.71502976338449 10.68202417963046 45.5820297633845 10.628024179630458 45.5820297633845 10.628024179630458L45.555029763384496 10.68202417963046L45.555029763384496 11.303024179630455C45.555029763384496 11.384024179630458 45.63602976338449 11.41102417963046 45.744029763384496 11.41102417963046L46.284029763384495 11.465024179630461C47.121028763384494 11.546024179630464 47.4450297633845 11.708024179630456 47.4450297633845 12.302024179630465L47.4450297633845 21.293024179630464C47.4450297633845 21.80602417963047 47.175028763384496 22.238024179630457 46.284029763384495 22.319024179630475L45.744029763384496 22.37302417963045C45.63602976338449 22.37302417963045 45.555029763384496 22.42702417963045 45.555029763384496 22.535024179630454L45.555029763384496 23.10202417963046L45.60902976338449 23.156024179630464C45.60902976338449 23.156024179630464 47.71502976338449 23.10202417963046 48.47102976338449 23.10202417963046C49.30802876338449 23.10202417963046 51.360029763384496 23.156024179630464 51.360029763384496 23.156024179630464L51.3870297633845 23.10202417963046L51.3870297633845 22.535024179630454C51.3870297633845 22.42702417963045 51.306029763384494 22.37302417963045 51.22502976338449 22.37302417963045L50.65802976338449 22.319024179630475C49.79402976338449 22.238024179630457 49.52402976338449 21.88702417963046 49.52402976338449 21.293024179630464L49.52402976338449 12.302024179630465 " inkscape:connector-curvature="0" style="font-size:27px;font-style:normal;font-variant:normal;font-weight:normal;font-stretch:normal;text-align:start;line-height:125%;letter-spacing:-0.40000001;writing-mode:lr-tb;text-anchor:start;fill:#000000;fill-opacity:1;font-family:Linux LIbertine O C;-inkscape-font-specification:Linux LIbertine O C"></path><path transform="matrix(0.9608749,0,0,0.9608749,2.8437201,4.8727483)" id="path23938" d="M56.61104776338449 12.356024179630467C56.61104776338449 11.654024179630468 56.93504876338449 11.41102417963046 58.231047763384495 11.41102417963046C59.71604576338449 11.41102417963046 60.76904776338449 11.924024179630464 60.76904776338449 14.246024179630467C60.76904776338449 16.32502417963046 59.986045763384496 17.297024179630455 58.36604776338449 17.297024179630455C57.826047763384494 17.297024179630455 57.15104676338449 17.270024179630468 56.61104776338449 17.05402417963046L56.61104776338449 12.356024179630467M54.5320477633845 21.428024179630455C54.5320477633845 21.94102417963046 54.2620467633845 22.184024179630455 53.42504776338449 22.29202417963046L52.85804776338449 22.37302417963045C52.750047763384494 22.400024179630464 52.69604776338449 22.42702417963045 52.69604776338449 22.535024179630454L52.69604776338449 23.10202417963046L52.72304776338449 23.156024179630464C52.72304776338449 23.156024179630464 54.74804776338449 23.10202417963046 55.50404776338449 23.10202417963046C56.3410467633845 23.10202417963046 58.50104776338449 23.156024179630464 58.50104776338449 23.156024179630464L58.52804776338449 23.10202417963046L58.52804776338449 22.535024179630454C58.52804776338449 22.42702417963045 58.4470477633845 22.400024179630464 58.33904776338449 22.37302417963045L57.79904776338449 22.29202417963046C56.935047763384496 22.15702417963047 56.61104776338449 22.02202417963045 56.61104776338449 21.428024179630455L56.61104776338449 17.81002417963046C57.09704676338449 18.02602417963047 57.637047763384494 18.080024179630456 58.31204776338449 18.080024179630456C62.14604376338449 18.080024179630456 62.929047763384496 15.54202417963046 62.929047763384496 13.922024179630455C62.929047763384496 12.518024179630459 62.22704376338449 10.628024179630458 58.393047763384494 10.628024179630458C57.3940487633845 10.628024179630458 56.314046763384496 10.68202417963046 55.558047763384494 10.68202417963046C54.77504776338449 10.68202417963046 53.18204676338449 10.628024179630458 52.777047763384495 10.628024179630458L52.72304776338449 10.655024179630459L52.72304776338449 11.276024179630468C52.72304776338449 11.330024179630456 52.750047763384494 11.41102417963046 52.91204776338449 11.41102417963046C54.181045763384496 11.492024179630462 54.5320477633845 11.519024179630463 54.5320477633845 12.356024179630467L54.5320477633845 21.428024179630455 " inkscape:connector-curvature="0" style="font-size:27px;font-style:normal;font-variant:normal;font-weight:normal;font-stretch:normal;text-align:start;line-height:125%;letter-spacing:-0.40000001;writing-mode:lr-tb;text-anchor:start;fill:#000000;fill-opacity:1;font-family:Linux LIbertine O C;-inkscape-font-specification:Linux LIbertine O C"></path><path transform="matrix(0.9608749,0,0,0.9608749,2.8437201,4.8727483)" id="path23940" d="M71.4808117633845 23.10202417963046C72.2908107633845 23.10202417963046 73.8838117633845 23.156024179630464 73.8838117633845 23.156024179630464L73.93781176338449 23.10202417963046L74.4778117633845 19.997024179630472L73.8028117633845 19.916024179630455C73.4788117633845 21.32002417963045 72.72280976338449 22.184024179630455 71.34581176338449 22.184024179630455L68.78081176338449 22.184024179630455C68.29481176338449 22.184024179630455 67.99781176338449 21.67102417963045 67.99781176338449 21.158024179630473L67.99781176338449 17.02702417963046L70.0228117633845 17.02702417963046C70.7248107633845 17.02702417963046 70.96781176338449 17.324024179630456 71.0758117633845 17.864024179630462L71.2108117633845 18.458024179630456C71.2108117633845 18.53902417963046 71.2648117633845 18.59302417963046 71.39981176338449 18.59302417963046L71.8588117633845 18.59302417963046L71.9128117633845 18.53902417963046C71.8588117633845 17.918024179630464 71.75081176338449 17.351024179630457 71.75081176338449 16.67602417963046C71.75081176338449 16.028024179630464 71.8588117633845 15.272024179630463 71.9128117633845 14.678024179630455C71.9128117633845 14.624024179630467 71.9128117633845 14.597024179630466 71.8588117633845 14.597024179630466L71.39981176338449 14.597024179630466C71.29181176338449 14.597024179630466 71.2378117633845 14.651024179630468 71.2378117633845 14.732024179630457L71.0758117633845 15.299024179630464C70.96781176338449 15.839024179630457 70.7788107633845 16.16302417963047 70.0228117633845 16.16302417963047L67.99781176338449 16.16302417963047L67.99781176338449 12.248024179630463C67.99781176338449 11.78902417963046 68.2678117633845 11.600024179630466 68.78081176338449 11.600024179630466L70.94081176338449 11.600024179630466C72.66880976338449 11.600024179630466 73.18181176338449 13.031024179630464 73.4788117633845 14.030024179630459L74.1538117633845 13.922024179630455C73.96481176338449 12.896024179630459 73.7758117633845 11.843024179630461 73.7488117633845 10.68202417963046L73.6948117633845 10.628024179630458C73.6948117633845 10.628024179630458 71.7778107633845 10.68202417963046 70.96781176338449 10.68202417963046L66.9988117633845 10.68202417963046C66.18881176338449 10.68202417963046 64.0828117633845 10.628024179630458 64.0828117633845 10.628024179630458L64.0558117633845 10.68202417963046L64.0558117633845 11.303024179630455C64.0558117633845 11.330024179630456 64.0558117633845 11.384024179630458 64.21781176338449 11.41102417963046L64.8388117633845 11.465024179630461C65.59481076338449 11.519024179630463 65.9188117633845 11.627024179630467 65.9188117633845 12.248024179630463L65.9188117633845 21.158024179630473C65.9188117633845 21.698024179630465 65.67581076338449 22.238024179630457 64.8388117633845 22.319024179630475L64.21781176338449 22.37302417963045C64.0828117633845 22.37302417963045 64.0558117633845 22.454024179630466 64.0558117633845 22.508024179630468L64.0558117633845 23.10202417963046L64.0828117633845 23.156024179630464C64.0828117633845 23.156024179630464 65.9458117633845 23.10202417963046 66.7558117633845 23.10202417963046L71.4808117633845 23.10202417963046 " inkscape:connector-curvature="0" style="font-size:27px;font-style:normal;font-variant:normal;font-weight:normal;font-stretch:normal;text-align:start;line-height:125%;letter-spacing:-0.40000001;writing-mode:lr-tb;text-anchor:start;fill:#000000;fill-opacity:1;font-family:Linux LIbertine O C;-inkscape-font-specification:Linux LIbertine O C"></path><path transform="matrix(0.9608749,0,0,0.9608749,2.8437201,4.8727483)" id="path23942" d="M75.8901847633845 22.535024179630454L75.8901847633845 23.10202417963046L75.9171847633845 23.156024179630464C75.9171847633845 23.156024179630464 77.96918576338449 23.10202417963046 78.77918476338449 23.10202417963046C79.6161837633845 23.10202417963046 80.5611867633845 23.156024179630464 82.7211847633845 23.156024179630464C85.7181817633845 23.156024179630464 89.0661847633845 21.752024179630467 89.0661847633845 17.02702417963046C89.0661847633845 13.436024179630465 86.8521807633845 10.628024179630458 82.3431847633845 10.628024179630458C81.6411857633845 10.628024179630458 79.2921847633845 10.68202417963046 78.77918476338449 10.68202417963046C78.2931857633845 10.68202417963046 75.9171847633845 10.628024179630458 75.9171847633845 10.628024179630458L75.8901847633845 10.68202417963046L75.8901847633845 11.276024179630468C75.8901847633845 11.357024179630457 75.9711847633845 11.41102417963046 76.07918476338449 11.41102417963046L76.6731847633845 11.465024179630461C77.56418376338449 11.546024179630464 77.7531847633845 11.546024179630464 77.7531847633845 12.248024179630463L77.7531847633845 21.158024179630473C77.7531847633845 21.995024179630462 77.48318376338449 22.238024179630457 76.6731847633845 22.319024179630475L76.05218476338449 22.37302417963045C75.9441847633845 22.37302417963045 75.8901847633845 22.454024179630466 75.8901847633845 22.535024179630454M79.83218476338449 21.158024179630473L79.83218476338449 12.248024179630463C79.83218476338449 11.573024179630465 80.5071857633845 11.41102417963046 81.5601847633845 11.41102417963046C86.0961807633845 11.41102417963046 86.7171847633845 14.678024179630455 86.7171847633845 17.486024179630462C86.7171847633845 21.26602417963045 85.0431817633845 22.37302417963045 82.07318476338449 22.37302417963045C80.02118676338449 22.37302417963045 79.83218476338449 21.914024179630474 79.83218476338449 21.158024179630473 " inkscape:connector-curvature="0" style="font-size:27px;font-style:normal;font-variant:normal;font-weight:normal;font-stretch:normal;text-align:start;line-height:125%;letter-spacing:-0.40000001;writing-mode:lr-tb;text-anchor:start;fill:#000000;fill-opacity:1;font-family:Linux LIbertine O C;-inkscape-font-specification:Linux LIbertine O C"></path><path transform="matrix(0.9608749,0,0,0.9608749,2.8437201,4.8727483)" id="path23944" d="M92.1639487633845 6.983024179630462C92.1639487633845 7.68502417963046 92.73094976338449 8.252024179630467 93.45994876338449 8.252024179630467C94.16194776338449 8.252024179630467 94.7559487633845 7.68502417963046 94.7559487633845 6.983024179630462C94.7559487633845 6.254024179630463 94.16194776338449 5.6870241796304555 93.45994876338449 5.6870241796304555C92.73094976338449 5.6870241796304555 92.1639487633845 6.254024179630463 92.1639487633845 6.983024179630462M94.59394876338449 12.302024179630465C94.59394876338449 11.762024179630458 94.8909497633845 11.546024179630464 95.72794876338449 11.465024179630461L96.2949487633845 11.41102417963046C96.4029487633845 11.41102417963046 96.45694876338449 11.357024179630457 96.45694876338449 11.276024179630468L96.45694876338449 10.68202417963046L96.42994876338449 10.628024179630458C96.42994876338449 10.628024179630458 94.3509477633845 10.68202417963046 93.6219487633845 10.68202417963046C92.78494976338449 10.68202417963046 90.6519487633845 10.628024179630458 90.6519487633845 10.628024179630458L90.6249487633845 10.68202417963046L90.6249487633845 11.303024179630455C90.6249487633845 11.384024179630458 90.7059487633845 11.41102417963046 90.81394876338449 11.41102417963046L91.3539487633845 11.465024179630461C92.1909477633845 11.546024179630464 92.5149487633845 11.708024179630456 92.5149487633845 12.302024179630465L92.5149487633845 21.293024179630464C92.5149487633845 21.80602417963047 92.24494776338449 22.238024179630457 91.3539487633845 22.319024179630475L90.81394876338449 22.37302417963045C90.7059487633845 22.37302417963045 90.6249487633845 22.42702417963045 90.6249487633845 22.535024179630454L90.6249487633845 23.10202417963046L90.6789487633845 23.156024179630464C90.6789487633845 23.156024179630464 92.78494976338449 23.10202417963046 93.54094876338449 23.10202417963046C94.3779477633845 23.10202417963046 96.42994876338449 23.156024179630464 96.42994876338449 23.156024179630464L96.45694876338449 23.10202417963046L96.45694876338449 22.535024179630454C96.45694876338449 22.42702417963045 96.3759487633845 22.37302417963045 96.2949487633845 22.37302417963045L95.72794876338449 22.319024179630475C94.8639497633845 22.238024179630457 94.59394876338449 21.88702417963046 94.59394876338449 21.293024179630464L94.59394876338449 12.302024179630465 " inkscape:connector-curvature="0" style="font-size:27px;font-style:normal;font-variant:normal;font-weight:normal;font-stretch:normal;text-align:start;line-height:125%;letter-spacing:-0.40000001;writing-mode:lr-tb;text-anchor:start;fill:#000000;fill-opacity:1;font-family:Linux LIbertine O C;-inkscape-font-specification:Linux LIbertine O C"></path><path transform="matrix(0.9608749,0,0,0.9608749,2.8437201,4.8727483)" id="path23946" d="M102.4099707633845 21.45502417963047C102.4099707633845 21.995024179630462 102.0859707633845 22.238024179630457 101.24897076338449 22.319024179630475L100.7089707633845 22.37302417963045C100.6009707633845 22.37302417963045 100.51997076338449 22.454024179630466 100.51997076338449 22.535024179630454L100.51997076338449 23.10202417963046L100.5739707633845 23.156024179630464C100.5739707633845 23.156024179630464 102.67997076338449 23.10202417963046 103.43597076338449 23.10202417963046C104.27297076338449 23.10202417963046 106.3249707633845 23.156024179630464 106.3249707633845 23.156024179630464L106.37897076338449 23.10202417963046L106.37897076338449 22.535024179630454C106.37897076338449 22.454024179630466 106.2979707633845 22.37302417963045 106.1899707633845 22.37302417963045L105.62297076338449 22.319024179630475C104.7859707633845 22.238024179630457 104.4889707633845 22.049024179630464 104.4889707633845 21.45502417963047L104.4889707633845 17.702024179630456L107.4589707633845 12.464024179630457C107.8639707633845 11.735024179630457 107.99897076338449 11.573024179630465 108.8629707633845 11.465024179630461L109.3219707633845 11.41102417963046C109.51097076338449 11.384024179630458 109.51097076338449 11.330024179630456 109.51097076338449 11.276024179630468L109.51097076338449 10.68202417963046L109.48397076338449 10.628024179630458C109.07897076338449 10.655024179630459 107.8369707633845 10.68202417963046 107.64797076338449 10.68202417963046C107.3779707633845 10.68202417963046 105.8659707633845 10.628024179630458 105.5689707633845 10.628024179630458L105.5149707633845 10.655024179630459L105.5149707633845 11.276024179630468C105.5149707633845 11.330024179630456 105.5419707633845 11.41102417963046 105.62297076338449 11.41102417963046L106.2439707633845 11.465024179630461C106.89197076338449 11.519024179630463 106.89197076338449 11.546024179630464 106.5409707633845 12.19402417963046L104.0299707633845 16.64902417963046L103.9759707633845 16.64902417963046L101.24897076338449 12.19402417963046C100.9789707633845 11.762024179630458 100.87097076338449 11.519024179630463 101.51897076338449 11.465024179630461L102.1129707633845 11.41102417963046C102.1939707633845 11.41102417963046 102.24797076338449 11.330024179630456 102.24797076338449 11.276024179630468L102.24797076338449 10.655024179630459L102.2209707633845 10.628024179630458C101.89697076338449 10.655024179630459 99.62897076338449 10.68202417963046 99.4939707633845 10.68202417963046C99.1969707633845 10.68202417963046 97.52297076338449 10.628024179630458 97.2799707633845 10.628024179630458L97.2259707633845 10.68202417963046L97.2259707633845 11.276024179630468C97.2259707633845 11.384024179630458 97.3609707633845 11.41102417963046 97.44197076338449 11.41102417963046C98.2249697633845 11.492024179630462 98.65697076338449 11.654024179630468 99.00797076338449 12.221024179630462L102.4099707633845 17.81002417963046L102.4099707633845 21.45502417963047 " inkscape:connector-curvature="0" style="font-size:27px;font-style:normal;font-variant:normal;font-weight:normal;font-stretch:normal;text-align:start;line-height:125%;letter-spacing:-0.40000001;writing-mode:lr-tb;text-anchor:start;fill:#000000;fill-opacity:1;font-family:Linux LIbertine O C;-inkscape-font-specification:Linux LIbertine O C"></path><path transform="matrix(0.9608749,0,0,0.9608749,2.8437201,4.8727483)" id="path23948" d="M114.92267076338449 15.461024179630456C114.3286707633845 15.461024179630456 114.13967076338449 15.380024179630468 114.24767076338449 15.110024179630457L116.9476707633845 8.252024179630467L117.0016707633845 8.252024179630467L119.6206707633845 15.461024179630456L114.92267076338449 15.461024179630456M111.92567076338449 20.969024179630452L113.49167076338449 17.05402417963046C113.6266707633845 16.70302417963046 113.78867076338449 16.595024179630457 114.4366707633845 16.595024179630457L120.0526707633845 16.595024179630457L121.69967076338449 21.158024179630473C121.9696707633845 21.914024179630474 121.5916707633845 22.238024179630457 120.56567076338449 22.319024179630475L119.80967076338449 22.37302417963045C119.6746707633845 22.37302417963045 119.6206707633845 22.454024179630466 119.6206707633845 22.589024179630457L119.6206707633845 23.10202417963046L119.6476707633845 23.156024179630464C119.6476707633845 23.156024179630464 122.2936707633845 23.10202417963046 123.23867076338449 23.10202417963046C124.29167076338449 23.10202417963046 126.3706707633845 23.156024179630464 126.3706707633845 23.156024179630464L126.4516707633845 23.10202417963046L126.4516707633845 22.589024179630457C126.4516707633845 22.454024179630466 126.3166707633845 22.37302417963045 126.18167076338449 22.37302417963045L125.88467076338449 22.34602417963046C124.8046707633845 22.238024179630457 124.26467076338449 21.833024179630456 123.88667076338449 20.78002417963046L118.35167076338449 6.146024179630459C118.1356707633845 5.606024179630467 118.00067076338449 5.336024179630456 117.62267076338449 5.336024179630456C117.21767076338449 5.336024179630456 117.0016707633845 5.606024179630467 116.7046707633845 6.308024179630465L110.7106707633845 20.34802417963047C109.9546707633845 22.07602417963045 109.27967076338449 22.29202417963046 108.0916707633845 22.37302417963045C107.9566707633845 22.37302417963045 107.87567076338449 22.454024179630466 107.87567076338449 22.589024179630457L107.87567076338449 23.10202417963046L107.9296707633845 23.156024179630464C107.9296707633845 23.156024179630464 109.65767076338449 23.10202417963046 110.3596707633845 23.10202417963046C111.0076707633845 23.10202417963046 113.9506707633845 23.156024179630464 113.9506707633845 23.156024179630464L114.0046707633845 23.10202417963046L114.0046707633845 22.589024179630457C114.0046707633845 22.454024179630466 113.89667076338449 22.37302417963045 113.78867076338449 22.37302417963045L113.0056707633845 22.319024179630475C112.00667076338449 22.238024179630457 111.65567076338449 21.644024179630463 111.92567076338449 20.969024179630452 " inkscape:connector-curvature="0" style="font-size:27px;font-style:normal;font-variant:normal;font-weight:normal;font-stretch:normal;text-align:start;line-height:125%;letter-spacing:-0.40000001;writing-mode:lr-tb;text-anchor:start;fill:#000000;fill-opacity:1;font-family:Linux LIbertine O C;-inkscape-font-specification:Linux LIbertine O C"></path></g>
</svg>