<?xml version="1.0" encoding="UTF-8" standalone="no"?>
<svg
	xmlns="http://www.w3.org/2000/svg"
	xmlns:dc="http://purl.org/dc/elements/1.1/"
	xmlns:cc="http://creativecommons.org/ns#"
	xmlns:rdf="http://www.w3.org/1999/02/22-rdf-syntax-ns#"
	xmlns:svg="http://www.w3.org/2000/svg"
	xmlns:xlink="http://www.w3.org/1999/xlink"
	xmlns:sodipodi="http://sodipodi.sourceforge.net/DTD/sodipodi-0.dtd"
	xmlns:inkscape="http://www.inkscape.org/namespaces/inkscape"
	version="1.1"
	viewBox="0 0 236.95675000001282 51.03125">
	<g id="Wikipedia" transform="matrix(0.5941276,0,0,0.5941276,-25.68393,11.749917)"><path transform="translate(-12.6995,0)" id="text2886" d="M219.43750000001282 10C219.30729000001284 10.130230000000012 219.25000000001282 10.362009999999998 219.25000000001282 10.6875C219.25000000001282 11.013049999999993 219.3072800000128 11.208359999999999 219.43750000001282 11.3125C220.93490000001285 11.364609999999999 221.9088500000128 11.60938999999999 222.31250000001282 12C222.72917000001283 12.377620000000007 222.93749000001284 13.36721 222.93750000001282 14.96875L222.93750000001282 31C222.93750000001282 32.60157000000001 222.7291600000128 33.57812999999999 222.31250000001282 33.96875C221.90886000001282 34.35937999999999 220.9348900000128 34.60416000000001 219.43750000001282 34.65625C219.30729000001284 34.78645 219.25000000001282 34.98697999999999 219.25000000001282 35.3125C219.25000000001282 35.625 219.3072800000128 35.83332999999999 219.43750000001282 35.9375C222.04167000001283 35.88542000000001 223.7968600000128 35.875 224.65625000001282 35.875C225.0338500000128 35.875 225.62238000001284 35.8802 226.46875000001282 35.90625C227.32812000001283 35.932289999999995 228.0234200000128 35.9375 228.53125000001282 35.9375C232.39843000001284 35.9375 235.2291400000128 35.36457999999999 237.00000000001282 34.21875C238.77082000001283 33.07292000000001 239.65622000001284 31.20572999999999 239.65625000001282 28.5625C239.6562300000128 27.898439999999994 239.60935000001282 27.283860000000004 239.53125000001282 26.75C239.45310000001282 26.216160000000002 239.29685000001282 25.625010000000003 239.06250000001282 25C238.8411200000128 24.375010000000003 238.4999800000128 23.86198999999999 238.03125000001282 23.40625C237.5624800000128 22.950529999999986 236.97134000001282 22.533860000000004 236.28125000001282 22.15625C235.59113000001284 21.765629999999987 234.7187300000128 21.445330000000013 233.62500000001282 21.25C232.5312300000128 21.041680000000014 231.26301000001283 20.937510000000003 229.84375000001282 20.9375L226.31250000001282 20.9375L226.31250000001282 14.96875C226.31249000001284 13.36721 226.5338500000128 12.377620000000007 226.93750000001282 12C227.3541600000128 11.60938999999999 228.31509000001282 11.364609999999999 229.81250000001282 11.3125C229.9166600000128 11.195339999999987 229.9687300000128 11.00003000000001 229.96875000001282 10.6875C229.96874000001284 10.362009999999998 229.91665000001282 10.130230000000012 229.81250000001282 10C227.2083300000128 10.052109999999999 225.4531100000128 10.06253000000001 224.59375000001282 10.0625C223.8255200000128 10.06253000000001 222.10676000001283 10.052109999999999 219.43750000001282 10ZM226.31250000001282 22.5625L229.34375000001282 22.5625C231.6354100000128 22.562510000000003 233.28904000001282 23.169279999999986 234.34375000001282 24.40625C235.3984200000128 25.64323999999999 235.9374800000128 27.03907000000001 235.93750000001282 28.5625C235.9374800000128 29.252610000000004 235.8333100000128 29.91147000000001 235.62500000001282 30.5625C235.4296700000128 31.200529999999986 235.0703000000128 31.848960000000005 234.56250000001282 32.5C234.0546700000128 33.151039999999995 233.29685000001282 33.67187000000001 232.28125000001282 34.0625C231.2786400000128 34.45312000000001 230.0703000000128 34.65625 228.62500000001282 34.65625C227.1015500000128 34.65625 226.3124800000128 33.73437999999999 226.31250000001282 31.9375L226.31250000001282 22.5625Z " style="font-size:40px;font-style:normal;font-variant:normal;font-weight:normal;font-stretch:normal;letter-spacing:-0.69999999;fill:#000000;fill-opacity:1;stroke:none;stroke-width:1px;stroke-linecap:butt;stroke-linejoin:miter;stroke-opacity:1;font-family:Sans;-inkscape-font-specification:Sans"></path><path transform="translate(-8.2005,0)" id="path2905" d="M143.59375000001282 18.625L143.43750000001282 18.71875L143.43750000001282 19.75C143.43750000001282 19.88023000000001 143.54165000001282 19.968760000000003 143.75000000001282 19.96875L144.93750000001282 20.03125C146.0833200000128 20.10938999999999 146.65624000001282 20.507830000000013 146.65625000001282 21.25C146.65624000001282 24.700529999999986 146.13541000001283 28.66667000000001 145.09375000001282 33.09375C144.91145000001282 33.97916000000001 144.0598900000128 34.5 142.56250000001282 34.65625C141.79426000001283 34.76041000000001 141.4010400000128 35.101560000000006 141.37500000001282 35.6875L141.12500000001282 41L142.21875000001282 41.03125C143.03906000001282 37.59375 144.7109300000128 35.875 147.25000000001282 35.875L154.15625000001282 35.875C154.97655000001282 35.875 155.72394000001282 36.054689999999994 156.37500000001282 36.40625C157.03904000001282 36.77082999999999 157.5598800000128 37.244789999999995 157.93750000001282 37.84375C158.32811000001283 38.442710000000005 158.61716000001283 39.0052 158.81250000001282 39.5C159.02081000001283 39.99477999999999 159.17706000001283 40.49217999999999 159.28125000001282 41L160.34375000001282 41L160.12500000001282 35.625C160.1249800000128 35.0651 159.7786300000128 34.76041000000001 159.06250000001282 34.65625C158.73696000001283 34.591139999999996 158.45831000001283 34.502610000000004 158.25000000001282 34.4375C158.0546700000128 34.3724 157.8645700000128 34.210939999999994 157.65625000001282 33.9375C157.44790000001282 33.651039999999995 157.3437300000128 33.26822999999999 157.34375000001282 32.8125L157.34375000001282 21.75C157.3437300000128 21.085949999999997 157.45831000001283 20.622410000000002 157.71875000001282 20.375C157.99216000001283 20.114599999999996 158.51300000001282 19.95313999999999 159.28125000001282 19.875L160.03125000001282 19.8125C160.2135300000128 19.79948999999999 160.3124700000128 19.682299999999998 160.31250000001282 19.5L160.31250000001282 18.71875L160.28125000001282 18.625C157.2734200000128 18.677099999999996 155.7812300000128 18.718760000000003 155.78125000001282 18.71875L147.65625000001282 18.71875C147.17447000001283 18.718760000000003 145.8072800000128 18.677099999999996 143.59375000001282 18.625ZM149.40625000001282 20.21875L152.50000000001282 20.21875C153.2421700000128 20.218770000000006 153.69269000001282 20.351580000000013 153.87500000001282 20.625C154.07030000001282 20.898449999999997 154.1562300000128 21.419279999999986 154.15625000001282 22.1875L154.15625000001282 32.34375C154.1562300000128 33.085939999999994 154.07030000001282 33.619789999999995 153.87500000001282 33.90625C153.69269000001282 34.179689999999994 153.2421700000128 34.31251 152.50000000001282 34.3125L147.34375000001282 34.3125C146.8098900000128 34.325529999999986 146.53124000001282 34.169279999999986 146.53125000001282 33.84375C146.53124000001282 33.76562999999999 146.63020000001282 33.30207999999999 146.81250000001282 32.46875C146.9947800000128 31.63542000000001 147.2135300000128 30.22917000000001 147.50000000001282 28.25C147.78645000001282 26.25782000000001 148.03645000001282 23.919279999999986 148.21875000001282 21.25C148.21874000001282 21.17188999999999 148.22915000001282 21.08073999999999 148.28125000001282 20.9375C148.3333300000128 20.794279999999986 148.4609200000128 20.625010000000003 148.65625000001282 20.46875C148.85155000001282 20.29948999999999 149.10675000001282 20.218770000000006 149.40625000001282 20.21875Z " style="font-size:40px;font-style:normal;font-variant:normal;font-weight:normal;font-stretch:normal;letter-spacing:-0.69999999;fill:#000000;fill-opacity:1;stroke:none;stroke-width:1px;stroke-linecap:butt;stroke-linejoin:miter;stroke-opacity:1;font-family:Sans;-inkscape-font-specification:Sans"></path><path id="path2917" d="M10.187500000012811 10C10.05729100001281 10.130230000000012 9.999999000012814 10.362009999999998 10.000000000012811 10.6875C9.999999000012814 11.013049999999993 10.05729100001281 11.208359999999999 10.187500000012811 11.3125C11.684894000012811 11.364609999999999 12.658850000012812 11.60938999999999 13.062500000012811 12C13.479162000012813 12.377620000000007 13.68749500001281 13.36721 13.687500000012811 14.96875L13.687500000012811 31C13.68749500001281 32.60157000000001 13.479162000012813 33.57812999999999 13.062500000012811 33.96875C12.658850000012812 34.35937999999999 11.684894000012811 34.60416000000001 10.187500000012811 34.65625C10.05729100001281 34.78645 9.999999000012814 34.98697999999999 10.000000000012811 35.3125C9.999999000012814 35.625 10.05729100001281 35.83332999999999 10.187500000012811 35.9375C12.79166300001281 35.88542000000001 14.546869000012812 35.875 15.406250000012811 35.875C15.835931000012813 35.875 16.58853500001281 35.8802 17.65625000001281 35.90625C18.72394900001281 35.932289999999995 19.921865000012808 35.9375 21.25000000001281 35.9375C23.151028000012808 35.9375 24.757797000012808 35.742189999999994 26.12500000001281 35.3125C27.50519000001281 34.869789999999995 28.56508900001281 34.273439999999994 29.28125000001281 33.53125C29.997376000012814 32.77605 30.49998300001281 31.97657000000001 30.81250000001281 31.15625C31.137999000012805 30.32292000000001 31.312482000012814 29.437510000000003 31.31250000001281 28.5C31.31247800001281 26.690120000000007 30.74476600001281 25.203129999999987 29.62500000001281 24.03125C28.505189000012813 22.859379999999987 27.018211000012805 22.002620000000007 25.15625000001281 21.46875L25.15625000001281 21.40625C26.223941000012815 20.872410000000002 27.11457000001281 20.11981 27.84375000001281 19.15625C28.572898000012806 18.19273000000001 28.937485000012806 17.19793999999999 28.93750000001281 16.15625C28.937481000012816 12.05471 26.072900000012808 10.000020000000006 20.34375000001281 10C19.888010000012812 10.000020000000006 19.11457400001281 10.005230000000012 17.96875000001281 10.03125C16.82291000001281 10.057320000000004 15.929681000012813 10.06253000000001 15.343750000012811 10.0625C14.575516000012811 10.06253000000001 12.856767000012809 10.052109999999999 10.187500000012811 10ZM20.56250000001281 11.375C21.929675000012814 11.375020000000006 23.114569000012814 11.778670000000005 24.15625000001281 12.625C25.197901000012813 13.458349999999996 25.71873300001281 14.789089999999987 25.71875000001281 16.625C25.71873300001281 19.684910000000002 23.820298000012812 21.218760000000003 20.03125000001281 21.21875L17.06250000001281 21.21875L17.06250000001281 13.09375C17.06249200001281 12.58596 17.127596000012808 12.226580000000013 17.21875000001281 12.03125C17.322909000012814 11.822939999999988 17.611971000012808 11.64846 18.09375000001281 11.53125C18.58853300001281 11.414080000000013 19.416656000012814 11.375020000000006 20.56250000001281 11.375ZM17.06250000001281 22.59375L19.84375000001281 22.59375C22.43488300001281 22.593770000000006 24.367172000012808 23.218770000000006 25.65625000001281 24.46875C26.958316000012807 25.718760000000003 27.59372800001281 27.32813999999999 27.59375000001281 29.28125C27.593732000012814 30.960939999999994 27.096336000012805 32.26823999999999 26.09375000001281 33.21875C25.09113000001281 34.169279999999986 23.20571500001281 34.65625 20.40625000001281 34.65625C18.19269900001281 34.64322999999999 17.06249200001281 33.721360000000004 17.06250000001281 31.9375L17.06250000001281 22.59375Z " style="font-size:40px;font-style:normal;font-variant:normal;font-weight:normal;font-stretch:normal;letter-spacing:-0.69999999;fill:#000000;fill-opacity:1;stroke:none;stroke-width:1px;stroke-linecap:butt;stroke-linejoin:miter;stroke-opacity:1;font-family:Sans;-inkscape-font-specification:Sans"></path><path transform="translate(-2.199585,0)" id="path2915" d="M38.369179000012814 18.70580000000001C38.369173000012815 18.705810000000014 39.983754000012816 18.67976999999999 43.212929000012814 18.627669999999995L43.330116000012815 18.70580000000001L43.330116000012815 19.721419999999995C43.330105000012814 19.87769 43.238959000012805 19.955810000000014 43.056679000012814 19.95580000000001L41.767616000012815 20.033919999999995C40.94729500001281 20.08601999999999 40.44599300001281 20.216229999999996 40.263710000012814 20.42455000000001C40.09443100001281 20.61986999999999 40.009796000012805 21.12769 40.009804000012814 21.94798L40.009804000012814 31.47923L48.81839800001281 21.55735999999999C48.81838100001281 20.997479999999996 48.73374600001281 20.60685000000001 48.564491000012815 20.38548C48.40822500001281 20.15111999999999 47.99806900001281 20.007890000000003 47.33402300001281 19.95580000000001C47.203799000012815 19.955810000000014 47.13869500001281 19.890710000000013 47.138710000012814 19.76048L47.138710000012814 18.70580000000001L47.216835000012814 18.627669999999995C48.492860000012804 18.67976999999999 49.53452600001281 18.705810000000014 50.341835000012814 18.70580000000001L55.185585000012814 18.627669999999995L55.22464800001281 18.70580000000001L55.22464800001281 19.721419999999995C55.224625000012814 19.87769 55.13998900001281 19.955810000000014 54.970741000012815 19.95580000000001L53.701210000012814 20.033919999999995C52.932960000012805 20.08601999999999 52.45119000001281 20.216229999999996 52.25589800001281 20.42455000000001C52.07358600001282 20.61986999999999 51.98244000001281 21.12769 51.982460000012814 21.94798L51.982460000012814 32.7097C51.98244000001281 33.45188999999999 52.08009600001281 33.940169999999995 52.275429000012814 34.17455000000001C52.47072100001281 34.39590000000001 52.945981000012814 34.5196 53.701210000012814 34.54563999999999L54.970741000012815 34.64330000000001C55.126968000012816 34.64330000000001 55.211604000012805 34.721419999999995 55.22464800001281 34.877669999999995L55.22464800001281 35.873760000000004L55.185585000012814 35.95188999999999C52.893898000012804 35.89981 51.279316000012805 35.873760000000004 50.341835000012814 35.873760000000004C49.482443000012815 35.873760000000004 47.906924000012815 35.89981 45.61527300001281 35.95188999999999L45.53714800001281 35.873760000000004L45.53714800001281 34.83860999999999C45.537134000012806 34.70840000000001 45.60223800001281 34.64330000000001 45.732460000012814 34.64330000000001L47.060585000012814 34.54563999999999C47.828799000012815 34.5196 48.31056900001281 34.38938999999999 48.50589800001281 34.155010000000004C48.71421400001281 33.92063999999999 48.81838100001281 33.43887000000001 48.81839800001281 32.7097L48.81839800001281 23.27610999999999L40.009804000012814 33.19798L40.009804000012814 33.27610999999999C40.009796000012805 33.783919999999995 40.100942000012815 34.12245999999999 40.283241000012815 34.29173C40.478546000012805 34.46100999999999 40.921253000012804 34.578190000000006 41.611366000012815 34.64330000000001C41.76760700001281 34.64330000000001 41.852242000012815 34.721419999999995 41.86527300001281 34.877669999999995L41.86527300001281 35.873760000000004L41.806679000012814 35.95188999999999L38.369179000012814 35.873760000000004C37.50979900001281 35.873760000000004 35.94079000001282 35.89981 33.66214800001281 35.95188999999999L33.623085000012814 35.873760000000004L33.623085000012814 34.83860999999999C33.62308400001282 34.70840000000001 33.68818800001281 34.64330000000001 33.81839800001281 34.64330000000001L35.185585000012814 34.54563999999999C35.953810000012815 34.5196 36.422560000012815 34.40241 36.591835000012814 34.194080000000014C36.77412200001282 33.985749999999996 36.86526800001281 33.516999999999996 36.86527300001281 32.787830000000014L36.86527300001281 21.98705000000001C36.86526800001281 21.12769 36.780633000012806 20.60033999999999 36.611366000012815 20.405010000000004C36.45511200001281 20.209720000000004 35.979852000012805 20.08601999999999 35.185585000012814 20.033919999999995L33.89652300001281 19.95580000000001C33.714229000012814 19.955810000000014 33.62308400001282 19.890710000000013 33.623085000012814 19.76048L33.623085000012814 18.70580000000001L33.74027300001281 18.627669999999995C35.62829000001282 18.67976999999999 37.17125700001281 18.705810000000014 38.369179000012814 18.70580000000001 " style="font-size:40px;font-style:normal;font-variant:normal;font-weight:normal;font-stretch:normal;letter-spacing:-0.69999999;fill:#000000;fill-opacity:1;stroke:none;stroke-width:1px;stroke-linecap:butt;stroke-linejoin:miter;stroke-opacity:1;font-family:Sans;-inkscape-font-specification:Sans"></path><path transform="translate(-3.499709,0)" id="path2913" d="M57.376209000012814 35.873760000000004L57.376209000012814 34.95580000000001C57.37620800001282 34.79955000000001 57.48037400001281 34.69538 57.688709000012814 34.64330000000001L58.48949100001281 34.54563999999999C59.20563300001282 34.46752000000001 59.68089300001281 34.31778 59.91527200001281 34.096419999999995C60.162663000012806 33.86205000000001 60.28636100001281 33.45188999999999 60.28636600001281 32.86595L60.28636600001281 21.79173C60.28636100001281 21.23185000000001 60.14964300001281 20.81519 59.876209000012814 20.54173C59.61578900001282 20.255290000000002 59.15355000001281 20.08601999999999 58.48949100001281 20.033919999999995L57.688709000012814 19.95580000000001C57.48037400001281 19.903729999999996 57.37620800001282 19.799560000000014 57.376209000012814 19.64330000000001L57.376209000012814 18.70580000000001L57.454334000012814 18.627669999999995C59.36839300001281 18.67976999999999 60.820215000012816 18.705810000000014 61.80980300001281 18.70580000000001L65.8137100000128 18.627669999999995L65.89183000001282 18.70580000000001L65.89183000001282 19.54563999999999C65.89182000001281 19.806070000000005 65.7681300000128 19.942790000000002 65.52074000001281 19.95580000000001C64.80459000001281 20.03394 64.27724000001282 20.18368000000001 63.93871000001281 20.405010000000004C63.61318000001281 20.61336 63.450420000012805 21.049560000000014 63.45043000001281 21.71360999999999L63.45043000001281 26.10813999999999C64.77854000001281 26.108149999999995 65.80719000001281 25.795649999999995 66.53637000001282 25.17063999999999C67.27854000001281 24.545649999999995 67.8905200000128 23.621170000000006 68.37230000001281 22.397199999999998C69.46604000001281 19.701909999999998 70.85276000001281 18.354250000000008 72.5324600000128 18.35423C73.9777500000128 18.354250000000008 74.6939000000128 18.953210000000013 74.6809000000128 20.15110999999999C74.68088000001282 20.55476999999999 74.5181200000128 20.91283999999999 74.19262000001282 21.225330000000014C73.88010000001282 21.524820000000005 73.5090000000128 21.674560000000014 73.07933000001282 21.67455000000001C72.6626500000128 21.674560000000014 72.27854000001281 21.55736999999999 71.92699000001281 21.32298C71.62750000001282 21.140710000000013 71.32151000001281 21.043049999999994 71.00902000001281 21.030010000000004C70.77463000001282 21.03003000000001 70.48817000001281 21.23836 70.1496500000128 21.655010000000004C69.8110900000128 22.07168999999999 69.52463000001282 22.573000000000008 69.29027000001281 23.158919999999995C68.6001600000128 25.020909999999986 67.54547000001281 26.153719999999993 66.1262100000128 26.55735999999999L66.1262100000128 26.71360999999999C68.4439100000128 26.71361999999999 70.0064000000128 27.65763000000001 70.8137100000128 29.54563999999999C72.3110900000128 32.852929999999986 73.61317000001281 34.59120999999999 74.7199600000128 34.76048L75.09105000001281 34.79955000000001C75.39051000001282 34.79955000000001 75.53374000001281 34.91673 75.52074000001281 35.15110999999999L75.52074000001281 35.873760000000004L75.40355000001281 35.95188999999999L72.3762100000128 35.912830000000014C70.77463000001282 35.88677999999999 69.4269800000128 34.36985999999999 68.33324000001281 31.36205000000001C67.87750000001282 30.11205000000001 67.31760000001282 29.181060000000002 66.65355000001281 28.569080000000014C65.9894800000128 27.944080000000014 64.9217700000128 27.592520000000007 63.45043000001281 27.51438999999999L63.45043000001281 32.944080000000014C63.450420000012805 33.881580000000014 64.1861000000128 34.44798 65.6574600000128 34.64330000000001C65.86578000001282 34.69538 65.9699500000128 34.79955000000001 65.9699600000128 34.95580000000001L65.9699600000128 35.873760000000004L65.89183000001282 35.95188999999999C64.26422000001281 35.89981 62.90355000001281 35.873760000000004 61.80980300001281 35.873760000000004L57.454334000012814 35.95188999999999L57.376209000012814 35.873760000000004 " style="font-size:40px;font-style:normal;font-variant:normal;font-weight:normal;font-stretch:normal;letter-spacing:-0.69999999;fill:#000000;fill-opacity:1;stroke:none;stroke-width:1px;stroke-linecap:butt;stroke-linejoin:miter;stroke-opacity:1;font-family:Sans;-inkscape-font-specification:Sans"></path><path transform="translate(-3.99984,0)" id="path2911" d="M81.5004300000128 18.70580000000001C81.50042000001281 18.705810000000014 83.1150100000128 18.67976999999999 86.3441800000128 18.627669999999995L86.4613700000128 18.70580000000001L86.4613700000128 19.721419999999995C86.4613600000128 19.87769 86.3702100000128 19.955810000000014 86.1879300000128 19.95580000000001L84.8988700000128 20.033919999999995C84.07855000001281 20.08601999999999 83.57725000001281 20.216229999999996 83.3949600000128 20.42455000000001C83.2256800000128 20.61986999999999 83.14105000001281 21.12769 83.1410600000128 21.94798L83.1410600000128 31.47923L91.9496500000128 21.55735999999999C91.94963000001282 20.997479999999996 91.86500000001281 20.60685000000001 91.6957400000128 20.38548C91.5394800000128 20.15111999999999 91.12932000001281 20.007890000000003 90.46527000001281 19.95580000000001C90.3350500000128 19.955810000000014 90.2699500000128 19.890710000000013 90.2699600000128 19.76048L90.2699600000128 18.70580000000001L90.3480900000128 18.627669999999995C91.6241100000128 18.67976999999999 92.66578000001282 18.705810000000014 93.47309000001282 18.70580000000001L98.31684000001282 18.627669999999995L98.3559000000128 18.70580000000001L98.3559000000128 19.721419999999995C98.35588000001282 19.87769 98.27124000001281 19.955810000000014 98.1019900000128 19.95580000000001L96.8324600000128 20.033919999999995C96.0642100000128 20.08601999999999 95.5824400000128 20.216229999999996 95.3871500000128 20.42455000000001C95.2048400000128 20.61986999999999 95.1136900000128 21.12769 95.1137100000128 21.94798L95.1137100000128 32.7097C95.1136900000128 33.45188999999999 95.21135000001281 33.940169999999995 95.4066800000128 34.17455000000001C95.6019700000128 34.39590000000001 96.07723000001279 34.5196 96.8324600000128 34.54563999999999L98.1019900000128 34.64330000000001C98.2582200000128 34.64330000000001 98.3428600000128 34.721419999999995 98.3559000000128 34.877669999999995L98.3559000000128 35.873760000000004L98.31684000001282 35.95188999999999C96.0251500000128 35.89981 94.41057000001281 35.873760000000004 93.47309000001282 35.873760000000004C92.6137000000128 35.873760000000004 91.03818000001282 35.89981 88.74652000001281 35.95188999999999L88.66840000001281 35.873760000000004L88.66840000001281 34.83860999999999C88.6683900000128 34.70840000000001 88.73349000001281 34.64330000000001 88.8637100000128 34.64330000000001L90.1918400000128 34.54563999999999C90.9600500000128 34.5196 91.44182000001281 34.38938999999999 91.6371500000128 34.155010000000004C91.84547000001281 33.92063999999999 91.94963000001282 33.43887000000001 91.9496500000128 32.7097L91.9496500000128 23.27610999999999L83.1410600000128 33.19798L83.1410600000128 33.27610999999999C83.14105000001281 33.783919999999995 83.2321900000128 34.12245999999999 83.4144900000128 34.29173C83.60980000001281 34.46100999999999 84.0525100000128 34.578190000000006 84.7426200000128 34.64330000000001C84.8988600000128 34.64330000000001 84.98349000001281 34.721419999999995 84.99652000001281 34.877669999999995L84.99652000001281 35.873760000000004L84.9379300000128 35.95188999999999L81.5004300000128 35.873760000000004C80.64105000001281 35.873760000000004 79.0720400000128 35.89981 76.79340000001281 35.95188999999999L76.7543400000128 35.873760000000004L76.7543400000128 34.83860999999999C76.7543400000128 34.70840000000001 76.8194400000128 34.64330000000001 76.94965000001281 34.64330000000001L78.3168400000128 34.54563999999999C79.0850600000128 34.5196 79.5538100000128 34.40241 79.7230900000128 34.194080000000014C79.90537000001281 33.985749999999996 79.99652000001281 33.516999999999996 79.99652000001281 32.787830000000014L79.99652000001281 21.98705000000001C79.99652000001281 21.12769 79.9118800000128 20.60033999999999 79.7426200000128 20.405010000000004C79.5863600000128 20.209720000000004 79.1111000000128 20.08601999999999 78.3168400000128 20.033919999999995L77.02777000001281 19.95580000000001C76.8454800000128 19.955810000000014 76.7543400000128 19.890710000000013 76.7543400000128 19.76048L76.7543400000128 18.70580000000001L76.87152000001281 18.627669999999995C78.7595400000128 18.67976999999999 80.3025100000128 18.705810000000014 81.5004300000128 18.70580000000001 " style="font-size:40px;font-style:normal;font-variant:normal;font-weight:normal;font-stretch:normal;letter-spacing:-0.69999999;fill:#000000;fill-opacity:1;stroke:none;stroke-width:1px;stroke-linecap:butt;stroke-linejoin:miter;stroke-opacity:1;font-family:Sans;-inkscape-font-specification:Sans"></path><path transform="translate(-5.00024,0)" id="path2909" d="M103.61293000001282 21.98705000000001C103.61292000001282 21.166750000000008 103.52178000001282 20.65243000000001 103.33949000001283 20.444080000000014C103.15719000001283 20.222739999999988 102.67542000001282 20.08601999999999 101.89418000001282 20.033919999999995L100.62465000001282 19.95580000000001C100.49444000001282 19.955810000000014 100.42933000001281 19.890710000000013 100.42933000001281 19.76048L100.42933000001281 18.70580000000001L100.50746000001283 18.627669999999995L105.13636000001281 18.70580000000001L116.81605000001281 18.70580000000001L121.65980000001281 18.627669999999995L121.69886000001281 18.70580000000001L121.69886000001281 19.721419999999995C121.69884000001281 19.87769 121.62072000001282 19.955810000000014 121.46449000001283 19.95580000000001L120.17543000001282 20.033919999999995C119.3811400000128 20.08601999999999 118.89285000001283 20.216229999999996 118.71058000001281 20.42455000000001C118.54129000001282 20.61986999999999 118.45666000001282 21.12769 118.45668000001282 21.94798L118.45668000001282 32.67063999999999C118.45666000001282 33.43887000000001 118.5543100000128 33.940169999999995 118.74965000001282 34.17455000000001C118.95796000001283 34.39590000000001 119.43322000001282 34.5196 120.17543000001282 34.54563999999999L121.46449000001283 34.64330000000001C121.62072000001282 34.64330000000001 121.69884000001281 34.721419999999995 121.69886000001281 34.877669999999995L121.69886000001281 35.873760000000004L121.65980000001281 35.95188999999999C119.74572000001282 35.89981 118.17020000001281 35.873760000000004 116.93324000001283 35.873760000000004L112.30433000001281 35.95188999999999L112.2652700000128 35.873760000000004L112.2652700000128 34.83860999999999C112.26526000001283 34.70840000000001 112.33036000001283 34.64330000000001 112.46058000001281 34.64330000000001L113.61293000001282 34.54563999999999C114.35510000001281 34.49356 114.82385000001281 34.350330000000014 115.01918000001282 34.11595C115.2274900000128 33.86856 115.33166000001282 33.38678999999999 115.33168000001282 32.67063999999999L115.33168000001282 21.83080000000001C115.33166000001282 21.166750000000008 115.17541000001282 20.743570000000005 114.86293000001282 20.561260000000004C114.56343000001283 20.365970000000004 114.14677000001282 20.268310000000014 113.61293000001282 20.26830000000001L108.49574000001283 20.26830000000001C107.96188000001283 20.268310000000014 107.53870000001282 20.372479999999996 107.22621000001283 20.58080000000001C106.9267200000128 20.77611999999999 106.77698000001283 21.192790000000002 106.77699000001283 21.83080000000001L106.77699000001283 32.67063999999999C106.77698000001283 33.43887000000001 106.87464000001282 33.940169999999995 107.06996000001283 34.17455000000001C107.27828000001281 34.39590000000001 107.74052000001282 34.5196 108.45668000001282 34.54563999999999L109.62855000001281 34.64330000000001C109.75875000001281 34.64330000000001 109.82385000001281 34.721419999999995 109.82386000001281 34.877669999999995L109.82386000001281 35.873760000000004L109.78480000001281 35.95188999999999C107.92281000001282 35.89981 106.38636000001281 35.873760000000004 105.17543000001282 35.873760000000004L100.46840000001282 35.95188999999999L100.37074000001283 35.873760000000004L100.37074000001283 34.83860999999999C100.37074000001283 34.70840000000001 100.4553700000128 34.64330000000001 100.62465000001282 34.64330000000001L101.89418000001282 34.54563999999999C102.63636000001281 34.5196 103.10511000001281 34.38288 103.30043000001282 34.13548C103.50876000001281 33.875069999999994 103.61292000001282 33.38678999999999 103.61293000001282 32.67063999999999L103.61293000001282 21.98705000000001 " style="font-size:40px;font-style:normal;font-variant:normal;font-weight:normal;font-stretch:normal;letter-spacing:-0.69999999;fill:#000000;fill-opacity:1;stroke:none;stroke-width:1px;stroke-linecap:butt;stroke-linejoin:miter;stroke-opacity:1;font-family:Sans;-inkscape-font-specification:Sans"></path><path transform="matrix(0.9312462,0,0,0.9312462,5.0638042,13.839841)" id="path2907" d="M129.23095367440405 14.66254992587568L126.94579367440406 14.66254992587568L126.94579367440406 20.65863992587569C126.94579367440406 21.06228992587569 127.06948367440407 21.459419925875693 127.31689367440407 21.85004992587568C127.57730367440405 22.240669925875693 127.88329367440406 22.435989925875703 128.23486367440407 22.435989925875703L131.55517367440405 22.435989925875703C133.63849367440406 22.435989925875703 135.07729367440405 20.97764992587568 135.87158367440406 18.060989925875703C136.24916367440406 17.956819925875692 136.62026367440404 18.008909925875685 136.98486367440407 18.217239925875703C136.60724367440406 20.404739925875703 136.21010367440405 22.247179925875685 135.79345367440405 23.744579925875684C134.03562367440406 23.692499925875694 132.62286367440404 23.666449925875696 131.55517367440405 23.666449925875696L125.38329367440406 23.666449925875696C123.52131367440407 23.692499925875694 122.03043367440407 23.71853992587569 120.91064367440407 23.744579925875684C120.78043367440407 23.6404099258757 120.71532367440406 23.432079925875684 120.71533367440406 23.119579925875684C120.71532367440406 22.7940599258757 120.78043367440407 22.566189925875705 120.91064367440407 22.435989925875703C122.18668367440407 22.331819925875692 122.98095367440405 22.09744992587568 123.29345367440405 21.732859925875687C123.61897367440406 21.368279925875697 123.78173367440405 20.3852099258757 123.78173367440405 18.78363992587569L123.78173367440405 10.150829925875684C123.78173367440405 8.54927992587568 123.61897367440406 7.5662099258756825 123.29345367440405 7.201609925875687C122.98095367440405 6.824019925875689 122.18668367440407 6.589649925875705 120.91064367440407 6.4984899258757025C120.78043367440407 6.3682899258757 120.71532367440406 6.146939925875699 120.71533367440406 5.834419925875693C120.71532367440406 5.508919925875688 120.78043367440407 5.294079925875678 120.91064367440407 5.18988992587569L125.34423367440405 5.268019925875706L133.62548367440405 5.268019925875706C133.97703367440405 5.26802992587568 134.52390367440407 5.215949925875691 135.26611367440407 5.111769925875706C135.34422367440405 5.111789925875684 135.38328367440405 5.15084992587569 135.38329367440406 5.228949925875696C135.56557367440405 5.866989925875686 135.80646367440406 7.45552992587568 136.10595367440405 9.994579925875684C135.75437367440406 10.150839925875687 135.39630367440407 10.215949925875691 135.03173367440405 10.18988992587569C134.60203367440405 8.86177992587568 134.15932367440405 7.9307899258757 133.70361367440407 7.396919925875693C133.24786367440404 6.863089925875698 132.44708367440407 6.596159925875696 131.30126367440405 6.59613992587569L128.23486367440407 6.59613992587569C127.85724367440406 6.596159925875696 127.54474367440406 6.693809925875684 127.29736367440407 6.889109925875687C127.06297367440405 7.084439925875699 126.94579367440406 7.357879925875693 126.94579367440406 7.709419925875693L126.94579367440406 13.393019925875706L129.23095367440405 13.393019925875706C129.81688367440407 13.39302992587568 130.26610367440406 13.360469925875691 130.57861367440407 13.295359925875687C130.90412367440405 13.217249925875706 131.16453367440405 13.158649925875693 131.35986367440407 13.119579925875684C131.56818367440405 13.08052992587568 131.71141367440407 12.9307899258757 131.78954367440406 12.670359925875687C131.86766367440407 12.396929925875696 131.91323367440407 12.20161992587569 131.92626367440405 12.084419925875693C131.93927367440406 11.967249925875706 131.95880367440407 11.654749925875706 131.98486367440407 11.146919925875693C132.08901367440404 11.042769925875689 132.27130367440407 10.9906899258757 132.53173367440405 10.990669925875693C132.80516367440407 10.9906899258757 132.99396367440406 11.042769925875689 133.09814367440407 11.146919925875693C133.04604367440405 12.475059925875684 133.02000367440405 13.419069925875704 133.02001367440405 13.978949925875696C133.02000367440405 14.382609925875698 133.04604367440405 15.359169925875705 133.09814367440407 16.90863992587569C132.99396367440406 17.0128099258757 132.80516367440407 17.064899925875693 132.53173367440405 17.06488992587569C132.27130367440407 17.064899925875693 132.08901367440404 17.0128099258757 131.98486367440407 16.90863992587569C131.93276367440404 15.997189925875688 131.81557367440405 15.4307899258757 131.63329367440406 15.209419925875693C131.29474367440406 14.844849925875678 130.49396367440406 14.662559925875684 129.23095367440405 14.66254992587568 " style="font-size:40px;font-style:normal;font-variant:normal;font-weight:normal;font-stretch:normal;letter-spacing:-0.69999999;fill:#000000;fill-opacity:1;stroke:none;stroke-width:1px;stroke-linecap:butt;stroke-linejoin:miter;stroke-opacity:1;font-family:Sans;-inkscape-font-specification:Sans"></path><path transform="translate(-9.20009,0)" id="path2901" d="M166.9816900000128 18.70580000000001C166.98168000001283 18.705810000000014 168.59626000001282 18.67976999999999 171.8254400000128 18.627669999999995L171.94262000001282 18.70580000000001L171.94262000001282 19.721419999999995C171.94261000001282 19.87769 171.85147000001282 19.955810000000014 171.6691900000128 19.95580000000001L170.38012000001282 20.033919999999995C169.5598000000128 20.08601999999999 169.05850000001283 20.216229999999996 168.8762200000128 20.42455000000001C168.70694000001282 20.61986999999999 168.6223000000128 21.12769 168.62231000001282 21.94798L168.62231000001282 31.47923L177.43090000001283 21.55735999999999C177.43089000001282 20.997479999999996 177.34625000001282 20.60685000000001 177.1770000000128 20.38548C177.0207300000128 20.15111999999999 176.61058000001282 20.007890000000003 175.9465300000128 19.95580000000001C175.8163100000128 19.955810000000014 175.75120000001283 19.890710000000013 175.7512200000128 19.76048L175.7512200000128 18.70580000000001L175.82934000001282 18.627669999999995C177.1053700000128 18.67976999999999 178.14703000001282 18.705810000000014 178.95434000001282 18.70580000000001L183.79809000001282 18.627669999999995L183.83715000001283 18.70580000000001L183.83715000001283 19.721419999999995C183.83713000001282 19.87769 183.75250000001282 19.955810000000014 183.5832500000128 19.95580000000001L182.3137200000128 20.033919999999995C181.5454700000128 20.08601999999999 181.06370000001283 20.216229999999996 180.86840000001283 20.42455000000001C180.68609000001283 20.61986999999999 180.59495000001283 21.12769 180.5949700000128 21.94798L180.5949700000128 32.7097C180.59495000001283 33.45188999999999 180.69260000001282 33.940169999999995 180.8879400000128 34.17455000000001C181.0832300000128 34.39590000000001 181.55849000001282 34.5196 182.3137200000128 34.54563999999999L183.5832500000128 34.64330000000001C183.7394800000128 34.64330000000001 183.8241100000128 34.721419999999995 183.83715000001283 34.877669999999995L183.83715000001283 35.873760000000004L183.79809000001282 35.95188999999999C181.50640000001283 35.89981 179.8918200000128 35.873760000000004 178.95434000001282 35.873760000000004C178.09495000001283 35.873760000000004 176.51943000001282 35.89981 174.2277800000128 35.95188999999999L174.14965000001283 35.873760000000004L174.14965000001283 34.83860999999999C174.14964000001282 34.70840000000001 174.21475000001283 34.64330000000001 174.3449700000128 34.64330000000001L175.67309000001282 34.54563999999999C176.4413100000128 34.5196 176.92308000001282 34.38938999999999 177.11840000001283 34.155010000000004C177.3267200000128 33.92063999999999 177.43089000001282 33.43887000000001 177.43090000001283 32.7097L177.43090000001283 23.27610999999999L168.62231000001282 33.19798L168.62231000001282 33.27610999999999C168.6223000000128 33.783919999999995 168.7134500000128 34.12245999999999 168.8957500000128 34.29173C169.0910500000128 34.46100999999999 169.53376000001282 34.578190000000006 170.22387000001282 34.64330000000001C170.38011000001282 34.64330000000001 170.46475000001283 34.721419999999995 170.4777800000128 34.877669999999995L170.4777800000128 35.873760000000004L170.4191900000128 35.95188999999999L166.9816900000128 35.873760000000004C166.12231000001282 35.873760000000004 164.55330000001283 35.89981 162.27465000001283 35.95188999999999L162.23559000001282 35.873760000000004L162.23559000001282 34.83860999999999C162.23559000001282 34.70840000000001 162.30069000001282 34.64330000000001 162.43090000001283 34.64330000000001L163.79809000001282 34.54563999999999C164.5663200000128 34.5196 165.0350700000128 34.40241 165.20434000001282 34.194080000000014C165.38663000001281 33.985749999999996 165.4777700000128 33.516999999999996 165.4777800000128 32.787830000000014L165.4777800000128 21.98705000000001C165.4777700000128 21.12769 165.3931400000128 20.60033999999999 165.22387000001282 20.405010000000004C165.06762000001282 20.209720000000004 164.59236000001283 20.08601999999999 163.79809000001282 20.033919999999995L162.5090300000128 19.95580000000001C162.32674000001282 19.955810000000014 162.23559000001282 19.890710000000013 162.23559000001282 19.76048L162.23559000001282 18.70580000000001L162.3527800000128 18.627669999999995C164.24080000001283 18.67976999999999 165.78376000001282 18.705810000000014 166.9816900000128 18.70580000000001 " style="font-size:40px;font-style:normal;font-variant:normal;font-weight:normal;font-stretch:normal;letter-spacing:-0.69999999;fill:#000000;fill-opacity:1;stroke:none;stroke-width:1px;stroke-linecap:butt;stroke-linejoin:miter;stroke-opacity:1;font-family:Sans;-inkscape-font-specification:Sans"></path><path transform="translate(-10.20025,0)" id="path2899" d="M194.6250000000128 18.625C193.27082000001278 18.625020000000006 192.0963500000128 18.757830000000013 191.0937500000128 19.03125C190.09114000001279 19.291680000000014 189.3203000000128 19.604180000000014 188.8125000000128 19.96875C188.30468000001278 20.333349999999996 187.9244700000128 20.773449999999997 187.6250000000128 21.28125C187.33854000001278 21.77606 187.14583000001278 22.17448999999999 187.0937500000128 22.5C187.0416600000128 22.812510000000003 187.0312500000128 23.14323999999999 187.0312500000128 23.46875C187.0312500000128 24.770839999999993 187.58593000001278 25.794279999999986 188.7187500000128 26.5625C189.8515600000128 27.31772000000001 191.0781100000128 27.718760000000003 192.4062500000128 27.71875L192.4062500000128 27.8125C191.7682200000128 27.929689999999994 191.1614500000128 28.255210000000005 190.5625000000128 28.75C189.96353000001278 29.244799999999998 189.4765500000128 29.856779999999986 189.1250000000128 30.625C188.70833000001278 31.57552000000001 188.21093000001278 32.502610000000004 187.6250000000128 33.375C187.0390600000128 34.2474 186.5078300000128 34.69792000000001 186.0000000000128 34.75L185.6250000000128 34.8125C185.36458000001278 34.8125 185.2187500000128 34.91666000000001 185.2187500000128 35.125L185.2187500000128 35.875L185.3437500000128 35.9375L187.9687500000128 35.90625C188.6328100000128 35.8802 189.2994700000128 35.52082999999999 189.9375000000128 34.84375C190.5755100000128 34.16667000000001 191.0963400000128 33.32812000000001 191.5000000000128 32.3125C192.5937400000128 29.460939999999994 193.8775900000128 28.031260000000003 195.3750000000128 28.03125L196.4062500000128 28.03125L196.4062500000128 32.625C196.4062400000128 33.45832999999999 196.3255100000128 33.9974 196.1562500000128 34.21875C195.99998000001278 34.4401 195.6015500000128 34.567710000000005 194.9375000000128 34.59375L194.3437500000128 34.65625C194.14843000001278 34.65625 194.0624900000128 34.723960000000005 194.0625000000128 34.90625L194.0625000000128 35.9375L197.9687500000128 35.875C198.95832000001278 35.875 200.2317500000128 35.88542000000001 201.7812500000128 35.9375L201.7812500000128 35C201.7682100000128 34.76562000000001 201.6354000000128 34.65625 201.3750000000128 34.65625L200.4687500000128 34.59375C199.8828000000128 34.567710000000005 199.5937500000128 33.901039999999995 199.5937500000128 32.625L199.5937500000128 21.21875C199.5937400000128 20.450529999999986 199.93488000001278 20.05731 200.6250000000128 20.03125L201.6562500000128 19.96875C201.74738000001278 19.968760000000003 201.78123000001278 19.92188999999999 201.7812500000128 19.84375L201.7812500000128 18.71875L201.6875000000128 18.625L198.0937500000128 18.71875C197.80728000001278 18.718760000000003 197.46613000001278 18.68231 197.0625000000128 18.65625C196.6588500000128 18.63023000000001 195.8489400000128 18.625020000000006 194.6250000000128 18.625ZM194.5000000000128 19.96875C195.3203000000128 19.968760000000003 195.84113000001278 20.049499999999995 196.0625000000128 20.21875C196.2968600000128 20.375020000000006 196.40623000001278 20.76823999999999 196.4062500000128 21.40625L196.4062500000128 26.6875L193.6250000000128 26.6875C192.4791600000128 26.6875 191.6354100000128 26.333339999999993 191.0625000000128 25.65625C190.48958000001278 24.979180000000014 190.1874900000128 24.09897000000001 190.1875000000128 23.03125C190.1875000000128 21.989599999999996 190.4765600000128 21.226580000000013 191.0625000000128 20.71875C191.64843000001278 20.21096 192.7942600000128 19.968760000000003 194.5000000000128 19.96875Z " style="font-size:40px;font-style:normal;font-variant:normal;font-weight:normal;font-stretch:normal;letter-spacing:-0.69999999;fill:#000000;fill-opacity:1;stroke:none;stroke-width:1px;stroke-linecap:butt;stroke-linejoin:miter;stroke-opacity:1;font-family:Sans;-inkscape-font-specification:Sans"></path><path transform="translate(-11.6999,0)" id="path2895" d="M218.27699000001283 32.24095C217.33947000001282 33.790429999999986 216.3498900000128 34.85163 215.30824000001283 35.42455000000001C214.27958000001283 35.984440000000006 213.09469000001283 36.26438999999999 211.7535500000128 36.26438999999999C209.27959000001283 36.26438999999999 207.33948000001283 35.47663 205.93324000001283 33.90110999999999C204.5400100000128 32.312569999999994 203.84339000001282 30.19668999999999 203.84340000001282 27.553449999999998C203.84339000001282 24.858149999999995 204.68324000001283 22.64461 206.36293000001282 20.912830000000014C208.04261000001281 19.181070000000005 209.93714000001282 18.31519 212.0465200000128 18.315169999999995C213.9345300000128 18.31519 215.42541000001282 18.666750000000008 216.51918000001282 19.36985999999999C217.61291000001282 20.073000000000008 218.1597900000128 20.984460000000013 218.1598000000128 22.10423C218.1597900000128 22.664140000000003 217.9514500000128 23.10033999999999 217.5348000000128 23.412830000000014C217.11812000001282 23.72533999999999 216.67541000001282 23.88158999999999 216.20668000001282 23.881580000000014C215.29521000001282 23.88158999999999 214.7873900000128 23.399820000000005 214.68324000001283 22.436260000000004C214.6311400000128 21.85033999999999 214.5400000000128 21.39461 214.4098000000128 21.069080000000014C214.2926000000128 20.730549999999994 214.01916000001282 20.411540000000002 213.58949000001283 20.11205000000001C213.17281000001282 19.799560000000014 212.58687000001282 19.643310000000014 211.83168000001282 19.64330000000001C210.5035400000128 19.643310000000014 209.4097900000128 20.274820000000005 208.55043000001282 21.537830000000014C207.70407000001282 22.80086 207.28089000001282 24.51310000000001 207.28090000001282 26.67455000000001C207.28089000001282 28.966219999999993 207.8017200000128 30.815179999999998 208.84340000001282 32.221419999999995C209.88505000001282 33.61465000000001 211.1480700000128 34.31127000000001 212.63246000001283 34.311260000000004C214.46838000001281 34.31127000000001 216.06994000001282 33.43235999999999 217.43715000001282 31.67455000000001C217.8668200000128 31.72663 218.14676000001282 31.915429999999986 218.27699000001283 32.24095 " style="font-size:40px;font-style:normal;font-variant:normal;font-weight:normal;font-stretch:normal;letter-spacing:-0.69999999;fill:#000000;fill-opacity:1;stroke:none;stroke-width:1px;stroke-linecap:butt;stroke-linejoin:miter;stroke-opacity:1;font-family:Sans;-inkscape-font-specification:Sans"></path></g>
</svg>