<?xml version="1.0" encoding="UTF-8" standalone="no"?>
<svg
	xmlns="http://www.w3.org/2000/svg"
	xmlns:dc="http://purl.org/dc/elements/1.1/"
	xmlns:cc="http://creativecommons.org/ns#"
	xmlns:rdf="http://www.w3.org/1999/02/22-rdf-syntax-ns#"
	xmlns:svg="http://www.w3.org/2000/svg"
	xmlns:xlink="http://www.w3.org/1999/xlink"
	xmlns:sodipodi="http://sodipodi.sourceforge.net/DTD/sodipodi-0.dtd"
	xmlns:inkscape="http://www.inkscape.org/namespaces/inkscape"
	version="1.1"
	viewBox="0 0 410.44531700000005 167.234375">
	<path transform="matrix(0.1833805,0,0,0.1833805,37.687301,95.136503)" d="M388.773437 70.04687500000001C395.61714700000005 78.25003500000001 399.507767 85.18752500000001 400.44531700000005 90.85937500000001C400.445267 91.70314499999999 400.445267 92.64064499999999 400.44531700000005 93.67187500000001C400.445267 106.23437500000001 399.83589700000005 113.92187500000001 398.617187 116.73437500000001C393.27339700000005 128.171855 388.117157 136.117165 383.148437 140.570315C372.60154700000004 149.148395 364.398427 154.703075 358.53906700000005 157.234375C358.820307 153.718705 359.710937 149.031205 361.210937 143.171875C373.960917 136.749975 383.265597 126.226545 389.124997 111.60156500000001C389.54683700000004 108.64843499999999 389.148407 106.53906500000001 387.929687 105.27343499999999L385.82031700000005 105.48437500000001C384.414037 106.04687500000001 382.820287 106.32812500000001 381.03906700000005 106.32812500000001C378.320287 106.32812500000001 375.460917 105.648445 372.460937 104.28906500000001C372.69529700000004 98.898445 374.75779700000004 93.03907500000001 378.648437 86.71093499999999L388.773437 70.04687500000001M384.69531700000005 84.531245C381.320287 89.031265 379.632787 92.031265 379.63281700000005 93.531245C379.632787 94.750015 382.093727 95.26563499999999 387.015627 95.07812500000001C388.187467 93.906265 388.773407 92.687515 388.773437 91.42187500000001C388.773407 89.64064499999999 387.41402700000003 87.34377500000001 384.69531700000005 84.531245M327.249997 109.07031500000001L318.88281700000005 109.07031500000001L318.88281700000005 97.39843499999999L327.671877 97.39843499999999C329.640617 97.398445 332.10154700000004 95.898455 335.054687 92.89843499999999C333.50779700000004 90.50783500000001 332.73435700000005 89.054705 332.734377 88.53906500000001C332.73435700000005 82.72658500000001 333.99998700000003 78.460965 336.531247 75.74218499999999C337.89060700000005 75.648475 338.593727 75.69534499999999 338.640627 75.88281500000001C339.85935700000005 79.679715 342.367167 84.273465 346.16406700000005 89.66406500000001C342.789037 102.60156500000001 336.48435700000005 109.07031500000001 327.249997 109.07031500000001M346.796877 116.73437500000001C346.796847 116.73436500000001 349.679657 119.64061500000001 355.44531700000005 125.45312500000001L346.44531700000005 134.874995L338.28906700000005 126.22656500000001L346.796877 116.73437500000001M327.812497 116.66406500000001C327.81248700000003 116.664055 330.69529700000004 119.570305 336.460937 125.38281500000001L327.460937 134.804685L319.304687 126.156245L327.812497 116.66406500000001M281.054687 99.92968499999999C273.789037 104.054695 266.710917 107.10156500000001 259.820317 109.07031500000001L249.132817 109.07031500000001L249.132817 97.39843499999999L251.734377 97.39843499999999C257.78123700000003 96.929695 262.796857 95.031265 266.781247 91.70312500000001C266.078107 89.54689499999999 263.523427 85.44533500000001 259.117187 79.39843499999999C255.085927 73.867225 252.460937 69.32035499999999 251.242187 65.75781500000001C251.523437 61.82035499999999 252.953117 57.36723500000001 255.531247 52.39843499999999C258.62498700000003 45.836005 260.523427 41.500065000000006 261.226567 39.390625C267.273417 37.937574999999995 276.484347 34.304765 288.859377 28.492185000000006C302.406197 22.351645000000005 310.96087700000004 17.382903999999996 314.523437 13.585937000000001C315.460867 13.586033 315.929617 14.148532000000003 315.929687 15.273437000000001C315.929617 16.679779999999994 314.992117 19.234465 313.117187 22.937495L309.531247 30.109375C303.48431700000003 33.625074999999995 298.492137 36.320385 294.554687 38.19531500000001C289.023397 40.914135 277.351537 46.070375 259.539067 53.66406500000001C261.085927 59.289114999999995 264.484357 65.828165 269.734377 73.281245C274.937477 81.43752500000001 279.132787 86.898455 282.320317 89.66406500000001C288.273397 94.82032500000001 295.890577 97.398445 305.171877 97.39843499999999L320.499997 97.39843499999999L320.499997 109.07031500000001L305.171877 109.07031500000001C301.609327 109.07031500000001 296.406207 108.13281500000001 289.562497 106.25781500000001C286.515587 105.50781500000001 283.679657 103.398445 281.054687 99.92968499999999M228.390627 80.66406500000001C233.171857 79.960965 235.656227 80.12502500000001 235.843747 81.156245C236.64059699999999 84.39064499999999 237.742157 87.81252500000001 239.148437 91.42187500000001C240.601537 95.031265 242.031217 97.023445 243.437497 97.39843499999999L250.187497 97.39843499999999L250.187497 109.07031500000001L243.859377 109.07031500000001C243.29684699999999 109.07031500000001 241.820287 108.48437500000001 239.429687 107.312495C235.960917 105.48437500000001 233.781227 103.63281500000001 232.890627 101.75781500000001L231.695317 103.093745C231.50779699999998 103.98437500000001 230.218727 105.273445 227.828127 106.96093499999999C225.718737 108.36718499999999 224.57029699999998 109.07031500000001 224.382817 109.07031500000001L212.289067 109.07031500000001L212.289067 97.39843499999999L221.007817 97.39843499999999C222.13280699999999 97.398445 224.593737 91.82032500000001 228.390627 80.66406500000001M240.203127 117.64843499999999C240.20309699999999 117.64842499999999 243.085907 120.55467499999999 248.851567 126.36718499999999L239.851567 135.789065L231.695317 127.14062500000001L240.203127 117.64843499999999M221.218747 117.57812500000001C221.218737 117.57811500000001 224.10154699999998 120.48436500000001 229.867187 126.29687500000001L220.867187 135.718745L212.710937 127.07031500000001L221.218747 117.57812500000001M190.984377 80.66406500000001C195.765607 79.960965 198.249977 80.12502500000001 198.437497 81.156245C199.23434699999999 84.39064499999999 200.335907 87.81252500000001 201.742187 91.42187500000001C203.195287 95.031265 204.624967 97.023445 206.031247 97.39843499999999L212.781247 97.39843499999999L212.781247 109.07031500000001L206.453127 109.07031500000001C205.89059699999999 109.07031500000001 204.414037 108.48437500000001 202.023437 107.312495C198.554667 105.48437500000001 196.374977 103.63281500000001 195.484377 101.75781500000001L194.289067 103.093745C194.10154699999998 103.98437500000001 192.812477 105.273445 190.421877 106.96093499999999C188.312487 108.36718499999999 187.16404699999998 109.07031500000001 186.976567 109.07031500000001L174.882817 109.07031500000001L174.882817 97.39843499999999L183.601567 97.39843499999999C184.72655699999999 97.398445 187.187487 91.82032500000001 190.984377 80.66406500000001M193.374997 130.585935C193.374977 130.585915 196.257787 133.492165 202.023437 139.304685L193.023437 148.726565L184.867187 140.078125L193.374997 130.585935M203.007817 114.97656500000001C203.007787 114.976555 205.89059699999999 117.882805 211.656247 123.69531500000001L202.656247 133.117185L194.499997 124.468745L203.007817 114.97656500000001M184.023437 114.906245C184.023427 114.906245 186.906237 117.812495 192.671877 123.624995L183.671877 133.046875L175.515627 124.39843499999999L184.023437 114.906245M153.296877 80.66406500000001C158.078107 79.960965 160.562477 80.12502500000001 160.749997 81.156245C161.546847 84.39064499999999 162.648407 87.81252500000001 164.054687 91.42187500000001C165.507787 95.031265 166.937467 97.023445 168.343747 97.39843499999999L175.093747 97.39843499999999L175.093747 109.07031500000001L168.765627 109.07031500000001C168.203097 109.07031500000001 166.726537 108.48437500000001 164.335937 107.312495C160.867167 105.48437500000001 158.687477 103.63281500000001 157.796877 101.75781500000001L156.601567 103.093745C156.414047 103.98437500000001 155.124977 105.273445 152.734377 106.96093499999999C150.624987 108.36718499999999 149.476547 109.07031500000001 149.289067 109.07031500000001L137.195312 109.07031500000001L137.195312 97.39843499999999L145.914067 97.39843499999999C147.039057 97.398445 149.499987 91.82032500000001 153.296877 80.66406500000001M147.109377 114.97656500000001C147.109367 114.976555 149.992177 117.882805 155.757817 123.69531500000001L146.757817 133.117185L138.601562 124.468745L147.109377 114.97656500000001M147.109377 134.382815C147.109367 134.382785 149.992177 137.289035 155.757817 143.101565L146.757817 152.523435L138.601562 143.874995L147.109377 134.382815M86.21875 118.562495C86.21873500000001 115.749995 87.01561000000001 113.33593499999999 88.609375 111.32031500000001C90.24998099999999 109.35156500000001 92.289042 108.36718499999999 94.726562 108.36718499999999C97.02341200000001 108.36718499999999 98.99216 109.35156500000001 100.632812 111.32031500000001C102.32028199999999 113.33593499999999 103.164031 115.749995 103.164062 118.562495C103.164031 121.374985 102.32028199999999 123.76561500000001 100.632812 125.73437500000001C98.99216 127.70310500000001 97.02341200000001 128.68748499999998 94.726562 128.687495C92.289042 128.68748499999998 90.24998099999999 127.70310500000001 88.609375 125.73437500000001C87.01561000000001 123.76561500000001 86.21873500000001 121.374985 86.21875 118.562495M97.679687 118.98437500000001C97.67966100000001 118.04686500000001 97.37497400000001 117.20311500000001 96.765625 116.45312500000001C96.156225 115.749995 95.476539 115.39843499999999 94.726562 115.39843499999999C93.929665 115.39843499999999 93.203103 115.749995 92.546875 116.45312500000001C91.93748 117.20311500000001 91.632792 118.04686500000001 91.632812 118.98437500000001C91.632792 119.874985 91.93748 120.695305 92.546875 121.44531500000001C93.203103 122.195295 93.929665 122.570295 94.726562 122.57031500000001C95.476539 122.570295 96.156225 122.195295 96.765625 121.44531500000001C97.37497400000001 120.695305 97.67966100000001 119.874985 97.679687 118.98437500000001M110.6875 42.554685000000006C111.76558499999999 42.461005 113.24214599999999 45.414125 115.117187 51.41406500000001C116.898392 57.320364999999995 119.31245200000001 67.56254500000001 122.359375 82.14062500000001C124.70307199999999 89.593765 127.937444 94.679705 132.0625 97.39843499999999L138.390625 97.39843499999999L138.390625 109.07031500000001L132.132812 109.07031500000001C128.195256 109.07031500000001 124.820259 107.07812500000001 122.007812 103.093745C120.83588800000001 101.500005 119.12495200000001 98.054695 116.875 92.75781500000001C113.03120899999999 100.16407500000001 109.96089900000001 104.07812500000001 107.664062 104.499995C105.460904 104.968755 99.203097 106.86718499999999 88.890625 110.19531500000001C83.406238 111.789055 79.14061699999999 114.343745 76.09375 117.85937500000001C75.34374600000001 117.01561500000001 74.96874700000001 115.820305 74.96875 114.27343499999999C74.96874700000001 113.14843499999999 75.20312100000001 111.55468499999999 75.671875 109.49218499999999C76.32812 107.00781500000001 76.70312 105.367195 76.796875 104.57031500000001C82.468739 99.78907500000001 88.093733 97.04688499999999 93.671875 96.343745C104.171842 94.70313499999999 110.94527300000001 92.593765 113.992187 90.01562500000001C114.22652 82.515655 111.13277300000001 70.703165 104.710937 54.578125000000014L110.6875 42.554685000000006M43.46874961 109.07031500000001L35.1015621 109.07031500000001L35.1015621 97.39843499999999L43.8906246 97.39843499999999C45.8593639 97.398445 48.3202989 95.898455 51.2734371 92.89843499999999C49.7265475 90.50783500000001 48.953110800000005 89.054705 48.9531246 88.53906500000001C48.953110800000005 82.72658500000001 50.218734500000004 78.460965 52.75 75.74218499999999C54.109356000000005 75.648475 54.81248 75.69534499999999 54.859375 75.88281500000001C56.078104 79.679715 58.585914 84.273465 62.382812 89.66406500000001C59.007788000000005 102.60156500000001 52.703107 109.07031500000001 43.46874961 109.07031500000001M63.015625 116.73437500000001C63.015597 116.73436500000001 65.898406 119.64061500000001 71.664062 125.45312500000001L62.664062 134.874995L54.507812 126.22656500000001L63.015625 116.73437500000001M44.0312496 116.66406500000001C44.0312407 116.664055 46.9140503 119.570305 52.679687 125.38281500000001L43.6796871 134.804685L35.5234371 126.156245L44.0312496 116.66406500000001M35.8046871 97.39843499999999L35.8046871 109.07031500000001L33.7656246 109.07031500000001C26.031232 109.07031500000001 20.968737 107.968755 18.578125 105.76562500000001C14.078119000000001 101.406255 11.828121 95.07813499999999 11.828125 86.781245C11.828121 83.359405 11.828121 77.359405 11.828125 68.781245C11.828121 60.203175 11.828121 53.546935000000005 11.828125 48.812495C11.828121 31.140704999999997 11.218746 20.804775000000006 10 17.804687L20.617187 10C22.492173 14.734469000000004 23.640609 21.929775000000006 24.0625 31.585935000000006C24.765608 41.289135 24.906233 48.320375 24.484375 52.67968499999999C24.203109 57.039114999999995 24.085921000000003 63.78910499999999 24.132812 72.92968499999999C24.367171000000003 83.57033500000001 24.906233 89.898455 25.75 91.91406500000001C26.781231000000002 94.53907500000001 27.789042000000002 96.01563499999999 28.773437 96.343745C31.210914000000002 97.04688499999999 32.874974800000004 97.398445 33.7656246 97.39843499999999L35.8046871 97.39843499999999 " id="Wikipedia" style="font-size:144px;font-style:normal;font-variant:normal;font-weight:normal;font-stretch:normal;fill:#000000;fill-opacity:1;stroke:none;stroke-width:1px;stroke-linecap:butt;stroke-linejoin:miter;stroke-opacity:1;font-family:Linux Libertine O;-inkscape-font-specification:Linux Libertine O"></path>
</svg>