<?xml version="1.0" encoding="UTF-8" standalone="no"?>
<svg xmlns="http://www.w3.org/2000/svg" width="359" height="48" version="1.0">
	<path fill="#4d4d4d" d="M14.845 47.803L5.537 11.458 4.477 7.57c-.314-1.355-1.021-2.033-2.12-2.033l-1.738-.03L0 5.45V3.652h15.61V5.45h-.56l-1.59.059c-1.865 0-2.798.52-2.798 1.56 0 .669.285 2.131.854 4.39l6.45 25.36L28.012 4.181h2.061L40.116 37.73l7.54-26.243c.844-2.906 1.267-4.565 1.267-4.978 0-.667-.855-1.001-2.563-1.001l-2.032-.06h-.53V3.653h11.987V5.45l-.53.059-1.767.059c-1.178.059-1.954.677-2.327 1.855l-1.266 4.036-10.663 36.346H37.26L26.98 14.257 16.878 47.804h-2.032m53.34-32.546v24.358c0 2.317.177 3.82.53 4.507.354.667 1.15 1.04 2.386 1.119l2.003.147.56.03v1.826h-16.73v-1.826l.56-.03 1.973-.147c1.139-.079 1.856-.265 2.15-.56.314-.314.51-1.03.59-2.15l.176-2.916v-16.73L62.206 20c-.078-1.12-.275-1.836-.589-2.15-.294-.314-1.011-.51-2.15-.59l-1.973-.146-.56-.03v-1.826h11.251m-5.802-5.802V3.652h5.802v5.803h-5.802m24.3 22.06v8.1l.176 2.916c0 1.218.196 1.974.59 2.268.412.275 1.55.472 3.416.59l.56.029v1.826H75.43v-1.826l.56-.03 1.973-.147c1.139-.079 1.856-.265 2.15-.56.314-.314.51-1.03.59-2.15l.176-2.916V8.365l-.177-2.916c-.078-1.12-.275-1.826-.589-2.12-.294-.315-1.011-.511-2.15-.59l-1.973-.147-.56-.03V.737h11.251v29.336h1.385l7.422-7.127 4.33-4.477c.294-.295.442-.54.442-.737 0-.373-.354-.56-1.06-.56l-2.799-.088h-.618v-1.826h12.459v1.826l-.56.03c-2.081.137-3.417.392-4.006.765-.57.354-2.405 2.062-5.508 5.125l-5.596 5.508 9.602 11.281 3.181 3.476c.864.962 1.492 1.531 1.885 1.708.412.177 1.326.314 2.74.412l.559.03v1.826h-8.983l-13.49-15.729h-1.385m36.17-16.258v24.358c0 2.317.176 3.82.53 4.507.353.667 1.148 1.04 2.386 1.119l2.002.147.56.03v1.826H111.6v-1.826l.56-.03 1.973-.147c1.14-.079 1.856-.265 2.15-.56.315-.314.511-1.03.59-2.15l.176-2.916v-16.73L116.873 20c-.079-1.12-.275-1.836-.59-2.15-.294-.314-1.01-.51-2.15-.59l-1.973-.146-.56-.03v-1.826h11.252m-5.803-5.802V3.652h5.803v5.803h-5.803m16.053 36.14v-8.13h3.269l.059.56.235 3.063c.138 1.512.923 2.74 2.357 3.682 1.433.923 3.24 1.384 5.42 1.384 1.786 0 3.24-.53 4.358-1.59 1.14-1.08 1.709-2.465 1.709-4.153 0-2.67-1.718-4.664-5.155-5.98l-2.975-1.148c-6.067-2.337-9.1-5.596-9.1-9.779 0-2.592 1.03-4.732 3.092-6.42 2.081-1.69 4.722-2.534 7.923-2.534 3.122 0 6.352.6 9.69 1.797v7.628h-3.27v-.53l-.264-2.68c-.275-2.945-2.2-4.418-5.773-4.418-1.708 0-3.132.55-4.27 1.65-1.12 1.08-1.68 2.454-1.68 4.123 0 1.374.452 2.484 1.355 3.328.923.825 2.759 1.797 5.508 2.916l2.71 1.12c2.965 1.217 5.026 2.483 6.185 3.799 1.178 1.296 1.767 2.975 1.767 5.036 0 2.828-1.129 5.145-3.387 6.951-2.258 1.807-5.174 2.71-8.748 2.71-3.907 0-7.58-.795-11.015-2.386M172.658.736V18.32l6.568-3.77v2.504l-6.568 3.77v18.791c0 2.317.177 3.82.53 4.507.354.667 1.149 1.04 2.386 1.119l2.003.147.56.03v1.826h-16.73v-1.826l.56-.03 1.973-.147c1.138-.079 1.855-.265 2.15-.56.314-.314.51-1.03.589-2.15l.177-2.916V24.182l-6.54 3.77v-2.504l6.54-3.77V8.365l-.177-2.916c-.079-1.12-.275-1.826-.59-2.12-.294-.315-1.01-.511-2.15-.59l-1.973-.147-.56-.03V.736h11.252m25.095 47.244c-4.615 0-8.277-1.502-10.987-4.506-2.71-3.024-4.064-7.099-4.064-12.224 0-5.164 1.364-9.238 4.094-12.223 2.73-2.985 6.45-4.477 11.163-4.477 4.712 0 8.433 1.492 11.163 4.477 2.729 2.985 4.094 7.04 4.094 12.165 0 5.242-1.375 9.356-4.124 12.34-2.73 2.966-6.51 4.448-11.34 4.448m.089-1.826c2.69 0 4.9-1.404 6.627-4.212 1.728-2.808 2.592-6.391 2.592-10.75 0-4.222-.874-7.747-2.621-10.574-1.728-2.848-3.888-4.271-6.48-4.271-2.592 0-4.752 1.423-6.48 4.27-1.728 2.828-2.592 6.372-2.592 10.633 0 4.242.854 7.786 2.562 10.633 1.709 2.847 3.84 4.271 6.392 4.271m30.72 1.443l-7.864-24.711c-.805-2.475-1.433-4.036-1.885-4.684-.432-.667-1.11-1.03-2.032-1.09l-.56-.029v-1.826h14.344v1.826h-.618l-2.121.06c-1.59 0-2.386.421-2.386 1.266 0 .883.334 2.376 1.002 4.477l4.977 15.993 9.278-23.445h1.767l9.455 24.034 5.773-16.582c.805-2.337 1.208-3.82 1.208-4.448 0-.883-.992-1.325-2.975-1.325l-1.59-.03h-.649v-1.826h10.456v1.826l-.648.03c-.864.059-1.482.373-1.855.942-.373.55-1.031 2.16-1.974 4.83l-8.688 24.712h-1.62l-9.69-24.328-9.308 24.328h-1.797m53.547.383c-4.614 0-8.276-1.502-10.986-4.506-2.71-3.024-4.065-7.099-4.065-12.223 0-5.165 1.365-9.24 4.094-12.224 2.73-2.984 6.45-4.477 11.163-4.477s8.434 1.493 11.163 4.477c2.73 2.985 4.094 7.04 4.094 12.165 0 5.242-1.374 9.356-4.123 12.34-2.73 2.966-6.51 4.448-11.34 4.448m.089-1.826c2.69 0 4.899-1.404 6.627-4.212 1.728-2.808 2.592-6.391 2.592-10.75 0-4.222-.874-7.747-2.622-10.574-1.728-2.847-3.888-4.271-6.48-4.271-2.592 0-4.751 1.424-6.48 4.27-1.727 2.828-2.591 6.373-2.591 10.634 0 4.24.854 7.785 2.562 10.632 1.708 2.848 3.839 4.271 6.392 4.271m-10.221-36.7L279.074 0h6.54l7.068 9.455h-2.533l-7.805-6.539-7.835 6.539h-2.533m40.911 14.52v15.64c0 2.317.177 3.82.53 4.507.354.667 1.15 1.04 2.386 1.12l2.003.146 1.267.03v1.826h-17.437v-1.826l.56-.03 1.973-.147c1.139-.079 1.856-.265 2.15-.56.314-.314.51-1.03.59-2.15l.176-2.916v-16.73L306.908 20c-.078-1.119-.275-1.836-.589-2.15-.294-.314-1.011-.51-2.15-.589l-1.973-.147-.56-.03v-1.826h11.251v6.009c2.651-4.477 6.117-6.716 10.398-6.716.589 0 1.246.108 1.973.324v8.748h-3.27l-.058-.53-.266-2.21c-.098-1.04-.628-1.56-1.59-1.56-2.926 0-5.321 1.551-7.187 4.654m18.173 23.268v-1.826l20.264-28.335h-10.456l-2.827.03c-1.277 0-2.091.147-2.445.442-.353.275-.53.932-.53 1.973 0 .825-.02 1.532-.06 2.12l-.028.62h-3.093v-7.01h26.184v1.825l-20.028 27.981h11.693l3.593-.147c1.61 0 2.415-.707 2.415-2.12v-2.21l.03-.706h3.092v7.363H331.06" font-family="Nimbus Sans L" font-size="40" font-weight="400" style="-inkscape-font-specification:'Nimbus Sans L'"/>
</svg>
