<?xml version="1.0" encoding="UTF-8" standalone="no"?>
<svg xmlns="http://www.w3.org/2000/svg" width="361" height="64" version="1.0">
	<path fill="#4d4d4d" d="M16.765 51.79L6.255 11.798c-.998-3.673-1.641-5.682-1.93-6.028-.289-.347-1.497-.52-3.625-.52L0 5.186V3.209h17.63v1.977h-.632c-2.15 0-3.515.108-4.091.324-.577.216-.865.713-.865 1.49 0 .714.321 2.312.965 4.797l7.285 27.905 11.343-35.91h2.328l11.344 36.914 8.516-28.876c.953-3.285 1.43-5.121 1.43-5.51 0-.756-1.73-1.134-5.19-1.134h-.598V3.209h13.539v1.977l-.6.064c-2.372.13-3.686.335-3.941.616-.255.281-.96 2.258-2.112 5.931L44.309 51.791H42.08L30.47 14.876 19.06 51.791zm60.243-35.812V42.78c0 2.938.244 4.688.732 5.25.488.562 2.096.93 4.823 1.102l.632.032v2.01H64.301v-2.01l.632-.032c2.683-.173 4.275-.546 4.774-1.118.499-.573.748-2.317.748-5.234V24.372c0-2.917-.25-4.656-.748-5.218-.5-.562-2.09-.94-4.774-1.134l-.632-.033v-2.01zm-6.553-6.385V3.21h6.553v6.384zm27.444 24.275v8.913c0 2.895.227 4.64.681 5.234.455.594 1.802.967 4.042 1.118l.632.032v2.01H85.191v-2.01l.632-.032c2.684-.173 4.275-.546 4.774-1.118.499-.573.748-2.317.748-5.234V8.394c0-2.917-.25-4.661-.748-5.234-.5-.573-2.09-.945-4.774-1.118l-.632-.033V0H97.9v32.28h1.563l8.383-7.843c3.592-3.565 5.389-5.477 5.389-5.737 0-.41-.61-.632-1.83-.664-1.22-.032-2.062-.049-2.528-.049h-.699v-2.01h14.071v2.01l-.632.033c-2.35.151-3.853.427-4.507.826-.654.4-2.733 2.285-6.237 5.656l-6.32 6.06 10.844 12.413c2.75 3.025 4.474 4.78 5.173 5.267.698.486 1.912.783 3.642.891l.632.032v2.01h-10.146L99.462 33.868zm50.895 17.112c-1.663.67-3.25 1.005-4.757 1.005-3.837 0-6.636-.94-8.4-2.82-1.763-1.88-2.644-4.872-2.644-8.977V18.603h-5.322v-2.625h5.322V9.593l6.586-1.588v7.973h10.046v2.625H139.58v22.428c0 3.024.41 5.174 1.231 6.45.82 1.274 2.218 1.911 4.192 1.911 1.042 0 2.306-.335 3.792-1.004zm16.699-35.002V42.78c0 2.938.244 4.688.732 5.25.487.562 2.095.93 4.823 1.102l.632.032v2.01h-18.894v-2.01l.632-.032c2.683-.173 4.274-.546 4.773-1.118.5-.573.749-2.317.749-5.234V24.372c0-2.917-.25-4.656-.749-5.218-.499-.562-2.09-.94-4.773-1.134l-.632-.033v-2.01zm-6.553-6.385V3.21h6.553v6.384zm34.03 42.392c-5.323 0-9.525-1.647-12.608-4.942-3.082-3.295-4.624-7.784-4.624-13.467 0-5.682 1.542-10.165 4.624-13.45 3.083-3.284 7.285-4.926 12.608-4.926 5.344 0 9.552 1.642 12.624 4.926 3.071 3.285 4.607 7.768 4.607 13.45 0 5.683-1.542 10.172-4.624 13.467-3.083 3.295-7.285 4.942-12.607 4.942zm0-2.01c2.949 0 5.4-1.55 7.351-4.65 1.952-3.1 2.927-7.017 2.927-11.749 0-4.688-.975-8.594-2.927-11.716-1.951-3.122-4.402-4.683-7.351-4.683-2.928 0-5.367 1.561-7.319 4.683-1.951 3.122-2.927 7.028-2.927 11.716 0 4.732.97 8.648 2.91 11.749 1.941 3.1 4.386 4.65 7.336 4.65zm34.528-27.386c1.664-2.463 3.582-4.31 5.755-5.542 2.174-1.231 4.602-1.847 7.285-1.847 3.105 0 5.544.994 7.319 2.982 1.752 1.988 2.627 4.72 2.628 8.2V42.78c.155 3.22.41 5.034.765 5.445.354.41 1.951.713 4.79.907l.599.032v2.01h-18.862v-2.01l.6-.032c2.838-.194 4.434-.497 4.79-.907.354-.411.61-2.226.764-5.445V27.386c0-3.025-.404-5.126-1.214-6.304-.81-1.177-2.256-1.766-4.34-1.766-1.465 0-3.106.448-4.924 1.345-1.819.897-3.803 2.253-5.955 4.068V42.78c0 2.938.244 4.688.732 5.25.488.562 2.096.93 4.824 1.102l.632.032v2.01H214.79v-2.01l.632-.032c2.684-.173 4.275-.546 4.774-1.118.499-.573.748-2.317.748-5.234V24.372c0-2.917-.25-4.656-.748-5.218-.5-.562-2.09-.94-4.774-1.134l-.632-.033v-2.01h12.707zm54.788 23.757c-3.903 3.76-7.762 5.639-11.576 5.639-3.06 0-5.611-.945-7.651-2.836-2.04-1.89-3.06-4.262-3.06-7.114 0-3.327 1.33-6.028 3.991-8.102 3.038-2.377 8.183-3.565 15.435-3.565h1.364v-4.375c0-5.553-2.162-8.33-6.487-8.33-2.018 0-3.803.605-5.355 1.815-.91.735-1.486 2.236-1.73 4.505l-.034.616h-4.457v-6.45c4.613-1.966 8.893-2.949 12.84-2.949 7.85 0 11.776 3.511 11.776 10.533V41.42c0 2.81.25 4.786.748 5.931.5 1.146 1.37 1.718 2.612 1.718.443 0 1.03-.097 1.763-.292l.2 2.399c-1.575.54-2.983.81-4.225.81-3.238 0-5.29-1.88-6.154-5.64zm-1.497-.713V32.377h-1.53c-3.86 0-6.875.778-9.048 2.334-2.174 1.555-3.26 3.694-3.26 6.417 0 2.03.676 3.716 2.029 5.056 1.353 1.34 3.038 2.01 5.056 2.01 1.907 0 4.158-.854 6.753-2.561zM307.6 25.57v17.21c0 2.917.26 4.667.782 5.25.521.583 2.112.95 4.774 1.102l1.43.032v2.01h-19.693v-2.01l.632-.032c2.684-.173 4.275-.546 4.774-1.118.499-.573.748-2.317.748-5.234V24.372c0-2.917-.25-4.656-.748-5.218-.5-.562-2.09-.94-4.774-1.134l-.632-.033v-2.01H307.6v6.613c2.994-4.927 6.908-7.39 11.743-7.39.665 0 1.408.119 2.229.357v9.625h-3.693l-.033-.583c-.244-2.01-.46-3.203-.649-3.581-.188-.378-.693-.567-1.513-.568-3.283 0-5.977 1.707-8.084 5.121zm21.523 38.406l11.842-12.802-11.377-26.673c-1.197-2.852-2.084-4.63-2.66-5.332-.577-.702-1.464-1.085-2.662-1.15l-.665-.033v-2.01h16.5v2.01h-.7c-3.016 0-4.524.39-4.523 1.167 0 .389.632 2.172 1.896 5.348l8.083 18.894 8.616-18.992c1.264-2.787 1.896-4.461 1.896-5.023 0-.93-1.342-1.394-4.025-1.394h-.899v-2.01h10.712v2.01l-.632.033c-1.375.086-2.55 1.307-3.526 3.662-.178.41-.6 1.34-1.264 2.787l-18.33 39.508z" font-family="Lucida Bright" font-size="56"/>
</svg>
