<?xml version="1.0" encoding="UTF-8" standalone="no"?>
<svg xmlns="http://www.w3.org/2000/svg" width="131" height="164">
	<g fill-rule="evenodd">
		<path fill="#608ab4" d="M64.943 0c-21.767.145-41.03 11.422-52.81 28.649h106.45C106.729 11.31 87.304 0 65.364 0h-.42z"/>
		<path fill="#375493" d="M8.356 34.873C3.04 44.746 0 56.129 0 68.256c0 37.68 29.286 68.266 65.363 68.266 36.078 0 65.354-30.586 65.354-68.266 0-12.127-3.03-23.51-8.346-33.383z"/>
		<path fill="#d6dde3" d="M12.133 28.649a68.814 68.814 0 00-3.777 6.224H122.37a68.878 68.878 0 00-3.787-6.224z"/>
		<path fill="#7bbce5" d="M93.276 7.654a3.23 3.23 0 00-.872.159c-2.911 4.628-2.902 19.961-2.865 23.278.006.001.014-.002.02 0 4.31.952 10.017-.141 10.209-4.249.33-5.413.659-10.663-2.224-14.036-2.636 1.197-2.135-3.647-3.206-4.735-.267-.304-.64-.424-1.062-.417z"/>
		<path fill="#fff" d="M92.404 7.813c-1.535.467-3.404 1.854-4.328 2.303-.804.085-2.295.023-3.407.307-2.39.611-4.565 2.065-5.82 4.348-1.622-4.689-5.102 1.078-9.228 4.398-2.286-1.714-6.89-5.133-11.111-7.336-3.395 1.714-6.953 7.501-9.067 7.99-2.196.41-5.292.168-6.583 1.718-2.14 2.204-2.804 4.731-3.216 7.098 5.025 1.768 10.295 1.821 15.32 1.141 2.854-.68 4.886.278 7.824.17 8.916.38 18.573-.703 26.75 1.14-.037-3.316-.046-18.65 2.866-23.277z"/>
		<path fill="#7bbce5" d="M62.625 17.052c1.072 3.21 2.002 6.42 1.647 9.63-.384 1.985.467 1.849 2.06 1.06 1.564-.843 2.388-1.768 4.694-2.53 1.785-.49.522-1.795-.33-2.693-2.544-2.398-5.312-3.914-8.07-5.467z"/>
		<path fill="#294584" d="M71.775 34.873c1.876 24.711 18.629 27.747 29.176 22.752-5.274-5.167-3.361-15.697 2.264-15.814 10.404-.25 7.442 19.004 7.444 28.35 5.688-1.145 5.315-22.47 4.108-35.288z"/>
		<path fill="#e0e9ea" d="M17.894 34.873l.611 6.383c1.376 2.496 2.4 4.988 2.114 7.484 2.718-.663 4.338-1.01 5.8 1.747 6.398 3.947 12.474 4.417 18.456 3.832 1.216 14.34.861 25.873.35 43.012 3.633 5.98 7.268 11.65 10.901 17.63 2.086 3.635 5.745 4.783 8.616.486l7.374-3.305v3.653c3.78.942 7.518 2.375 5.801 6.273-1.306 2.518-.571 3.638 3.146 1.956 3.283-1.585 5.31.873 7.023 1.31-2.443-2.578-.34-7.652-.263-12.894 3.505-.317 7.508-3.465 11.014-3.782 7.208-6.932 8.449-9.51 8.435-18.464.725-2.322 1.764-2.936 1.233-6.969.41-2.496.982-5.762 1.392-8.259.281-1.633.552-3.233.822-4.814l-.06.01c-.003-9.347 2.96-28.601-7.444-28.35-5.625.116-7.538 10.646-2.264 15.813a21.243 21.243 0 01-3.888 1.4c.428 2.436-1.349 4.937-3.677 5.042-2.322-.206-5.739 2.078-7.905 7.316-3.461 7.233-6.61.94-7.874-1.003-1.622-2.133.37-4.117-4.078-2.829-2.932.898-6.653 1.492-7.544-2.898-3.75-3.774-7.341-7.086-11.091-10.86-1.498-1.766-.25-3.22-.24-3.842v-.06a.486.486 0 00-.02-.06.316.316 0 00-.021-.038l-.01-.02-.01-.01a.722.722 0 00-.03-.03l-.04-.03-.02-.01c-.017-.008-.04-.013-.06-.02-1.463-.914-3.236.187-5.17.983-5.047.918-7.018.035-7.564-2.61.03-4.37-2.45-3.914-6.503-3.306-11.678 1.648-13.567-2.447-16.972-9.867z"/>
		<path fill="#4d8ac0" d="M18.234 34.873c3.405 7.42 5.294 11.515 16.972 9.867 4.052-.608 6.533-1.064 6.503 3.305.546 2.646 2.517 3.53 7.564 2.611 1.934-.796 3.707-1.897 5.17-.983.02.007.043.012.06.02l.02.01.04.03a.722.722 0 01.03.03l.01.01.01.02a.316.316 0 01.03.07l.01.029v.06c-.01.622-1.257 2.075.24 3.841 3.75 3.774 7.342 7.086 11.092 10.86.89 4.39 4.612 3.796 7.544 2.898 4.447-1.288 2.456.696 4.078 2.83 1.263 1.942 4.413 8.235 7.874 1.002 2.166-5.238 5.583-7.522 7.905-7.316 2.328-.105 4.105-2.606 3.677-5.043-10.345 2.608-23.629-2.305-25.288-24.151z"/>
		<path fill="#d6dde3" d="M53.22 63.263c-3.365.218-1.61 11.367-1.242 16.647.499 5.197 1.668 3.973 5.33 1.707 1.684 3.384.66 5.275-1.723 7.465-1.774 1.662-2.792 4.143-1.252 6.998.47.778.866 1.108 1.412 2.333.366.726.726 1.458 1.092 2.184.423 1.605-.054 2.606-.761 3.464-.655.93-.781 1.867.07 4.438.465 1.493-.809 3.276 1.162 4.844a11.89 11.89 0 002.605 1.548c-.76-2.191-.782-5.354-.41-8.07.25-2.562.425-4.155 2.785-5.896 2.058-1.045 1.487-6.564 1.663-9.848.02.018.049.034.07.05-.003-.015.002-.035 0-.05 4.404-.92 1.952-4.41.601-7.762l-10.77-19.973a1.95 1.95 0 00-.591-.079h-.04z"/>
		<path fill="#608ab4" d="M53.852 63.342l10.77 19.973c1.35 3.351 3.803 6.841-.601 7.762.392 2.339 3.311 4.374 6.552 4.1 3.371-.215 5.823 2.282 6.933 4.805.147-2.782.49-5.542 1.172-8.27.436-1.347 2.902-2.541.852-4.337-8.303-9.058-16.307-16.18-25.288-23.894a3.009 3.009 0 00-.39-.139z"/>
		<path fill="#236798" d="M63.95 91.077c-.175 3.284.396 8.803-1.662 9.848-2.36 1.741-2.535 3.334-2.786 5.896-.372 2.72-.352 5.888.411 8.08.78.33 1.577.554 2.425.695 1.425.127 2.323.476 5.33-.07 2.633-.3 4.214-1.574 7.223-2.024 1.643-.32 2.755-.941 2.665-3.425-.125-3.392-.226-6.76-.05-10.095-1.11-2.523-3.562-5.02-6.933-4.805-3.203.27-6.096-1.717-6.542-4.02v-.01c-.002-.001.002-.009 0-.01-.025-.021-.056-.037-.08-.06z"/>
		<path fill="#608ab4" d="M108.215 87.772c-.277.76-.635 1.439-.942 2.422.013 8.953-1.228 11.532-8.436 18.464-.065.016-2.126 4.804-3.877 6.055-2.955 2.164-2.77 4.126-3.868 6.492-.794 1.196-1.89 1.388-2.685 1.171-.496-.388-.997-.572-1.493-1.161-.03.967.037 1.848.291 2.62.01.023.019.047.03.07v.01c.14.28.27.563.4.843.008.012.014.019.02.03.002.002 0 .007 0 .01.12.183.258.361.412.526-.047-.013-.093-.025-.14-.04 3.025 4.794 7.299 6.293 12.784 4.407 2.953-1.276 4.68-2.444 6.512-3.821 1.594-1.499 3.49-4.311.5-4.497-.425-.112-.662-.221-.78-.338a.095.095 0 01-.02-.02c-.013-.013-.022-.036-.03-.05a.34.34 0 01-.03-.069c-.002-.004-.01-.015-.01-.02-.002-.007 0-.022 0-.03v-.029c.006-.427.826-1.036.2-2.273-.428-1.892 1.391-3.68 2.695-4.16-.896-1.942-1.8-3.884-2.695-5.827.062-1.275 2.594-1.948 2.184-4.327.73-5.986 1.721-14.871-1.022-16.459z"/>
		<path fill="#236798" d="M92.044 64.196c-2.166.578-4.786 2.89-6.562 7.187-.811 1.695-1.608 2.648-2.365 3.087.076 7.385 1.847 12.643 5.51 15.525-1.086 4.273-2.17 10.163-.2 13.729-3.327-1.043-1.97 5.586-2.955 8.378-1.664 4.643-3.127 4.44-4.689 4.844 1.426 1.615 3.261 3.329 6.011 4.338v.02a.333.333 0 00.04.08c.205.308 1.128.644 1.573.992.795.217 1.891.025 2.685-1.171 1.098-2.366.913-4.328 3.868-6.492 1.71-1.221 3.724-5.827 3.877-6.055-5.846-3.256-8.61-9.46-7.664-15.436.271-1.649 1.36-3.497-.1-6.155-1.747-7.304-.635-15.802.971-22.87z"/>
	</g>
	<g style="line-height:125%">
		<path style="-inkscape-font-specification:'TH Sarabun New'" d="M32.56 159.314c0 1.05-.345 1.912-1.035 2.587-.69.675-1.545 1.012-2.566 1.012-.96 0-1.77-.33-2.43-.99a3.25 3.25 0 01-.99-2.384c0-.96.33-1.77.99-2.43.66-.66 1.47-.99 2.43-.99.33 0 .6.014.81.044v-6.615c0-1.92-1.38-2.88-4.139-2.88-1.14 0-2.108.353-2.903 1.058-.795.705-1.192 1.642-1.192 2.812h-2.7c.09-1.98.742-3.518 1.957-4.613 1.215-1.094 2.828-1.642 4.838-1.642 1.98 0 3.57.39 4.77 1.17 1.44.93 2.16 2.355 2.16 4.275zm-2.07.18c0-.42-.15-.78-.45-1.08-.3-.3-.66-.45-1.081-.45-.42 0-.78.15-1.08.45-.3.3-.45.66-.45 1.08 0 .42.15.78.45 1.08.3.3.66.45 1.08.45.42 0 .78-.15 1.08-.45.301-.3.451-.66.451-1.08zm2.155-17.146c-3.72-1.2-7.125-1.799-10.215-1.799-1.41 0-2.835.09-4.275.27.36-4.02 2.55-6.03 6.57-6.03 2.31 0 4.14.697 5.49 2.092 1.35 1.395 2.16 3.218 2.43 5.467zm-2.88-2.655c-.18-.75-.719-1.454-1.619-2.114-.9-.66-1.92-.99-3.061-.99-1.08 0-2.01.217-2.79.652-.78.435-1.275 1.012-1.485 1.733.51-.12 1.305-.18 2.385-.18 2.22 0 4.41.3 6.57.9z" font-family="TH Sarabun New" font-size="45" font-weight="400" letter-spacing="0" word-spacing="0"/>
	</g>
	<path d="M48.637 162.642h-1.984v-8.48c0-.875-.266-1.568-.8-2.08-.533-.512-1.237-.768-2.112-.768-1.28 0-2.25.543-2.912 1.631 1.003.192 1.717.673 2.144 1.44-1.088.64-1.632 1.409-1.632 2.304v5.953h-1.985v-6.08c0-.896.438-1.6 1.313-2.113-.533-.362-1.184-.49-1.952-.384.043-1.322.555-2.41 1.536-3.263.896-.79 2.037-1.185 3.424-1.185 1.536 0 2.746.411 3.632 1.233.885.821 1.328 1.936 1.328 3.343zm.052-14.401c-2.646-.853-5.067-1.279-7.264-1.279-1.003 0-2.016.064-3.04.191.256-2.858 1.813-4.288 4.672-4.288 1.642 0 2.944.496 3.903 1.489.96.992 1.536 2.288 1.729 3.887zm-2.048-1.887c-.128-.534-.512-1.035-1.152-1.504a3.588 3.588 0 00-2.176-.704c-.768 0-1.43.154-1.984.463-.555.31-.907.72-1.057 1.233.363-.085.929-.128 1.697-.128 1.579 0 3.136.213 4.672.64z" font-family="Sans" font-size="32" font-weight="400" letter-spacing="0" word-spacing="0"/>
	<g style="line-height:125%">
		<path style="-inkscape-font-specification:'TH Sarabun New'" d="M65.634 159.993c0 1.064-.326 1.884-.977 2.46-.65.576-1.509.863-2.575.863-1.067 0-1.926-.287-2.577-.863-.65-.576-.976-1.396-.976-2.46v-1.467c0-.695.357-1.613 1.072-2.753.715-1.14 1.073-2.037 1.073-2.689-.107-.825-.449-1.401-1.025-1.727l-1.183 1.238-1.409-1.303c-.213.13-.443.363-.688.7-.245.337-.378.636-.4.896a3.97 3.97 0 01.672-.097c.64 0 1.184.228 1.632.684.448.456.672 1.01.672 1.662 0 .651-.219 1.206-.656 1.662-.437.456-.986.685-1.648.685-.746 0-1.354-.315-1.824-.946-.47-.63-.704-1.314-.704-2.053 0-1.151.304-2.2.912-3.145.608-.945 1.392-1.46 2.353-1.548l1.055 1.11.993-1.141c1.92.434 2.88 1.585 2.88 3.453 0 .674-.3 1.532-.897 2.575-.597 1.043-.896 1.868-.896 2.476v2.184c0 .37.166.652.497.847.33.195.688.293 1.072.293.405 0 .767-.103 1.087-.31.32-.206.48-.482.48-.83v-5.377c0-.804-.31-1.304-.928-1.499a2.95 2.95 0 00.033-1.14c1.088-.413 1.631-1.456 1.631-3.129h1.985c-.15 1.673-.715 2.9-1.696 3.683.64.52.96 1.205.96 2.052zm-8-4.856a.983.983 0 00-.289-.717.95.95 0 00-.704-.293.95.95 0 00-.704.293.983.983 0 00-.288.717c0 .282.096.521.288.717a.949.949 0 00.704.293.949.949 0 00.704-.293.985.985 0 00.289-.717z" font-family="TH Sarabun New" font-size="32.292" font-weight="400" letter-spacing="0" word-spacing="0"/>
	</g>
	<path d="M81.561 160.15c0 1.18-.522 2.052-1.566 2.619-.844.476-1.932.714-3.265.714-1.333 0-2.41-.238-3.232-.714-1-.567-1.5-1.44-1.5-2.618v-3.435c0-.815.223-1.5.667-2.056.444-.556 1.077-.833 1.899-.833.711 0 1.311.243 1.8.73.489.488.733 1.094.733 1.82a2.48 2.48 0 01-.733 1.801 2.422 2.422 0 01-1.8.748c-.2 0-.366-.022-.5-.067v1.054c0 1.178.9 1.767 2.7 1.767 1.821 0 2.732-.6 2.732-1.801v-6.529c0-.747-.345-1.314-1.033-1.7-.578-.317-1.289-.475-2.133-.476-2.11 0-3.254.556-3.432 1.667H70.9c.29-2.29 2.044-3.446 5.265-3.469 1.488 0 2.71.284 3.664.851 1.155.725 1.733 1.813 1.733 3.263zm-5.864-3.773c0-.317-.111-.59-.333-.816a1.08 1.08 0 00-.8-.34 1.08 1.08 0 00-.8.34 1.124 1.124 0 00-.333.816c0 .317.111.589.333.816.222.226.489.34.8.34.311 0 .578-.114.8-.34.222-.227.333-.5.333-.816z" font-family="Sans" font-size="33.658" font-weight="400" letter-spacing="0" word-spacing="0"/>
	<path d="M94.851 160.512c0 .682-.24 1.252-.72 1.711a2.432 2.432 0 01-1.744.688 2.402 2.402 0 01-1.744-.704 2.323 2.323 0 01-.72-1.728c0-.683.24-1.259.72-1.728a2.402 2.402 0 011.744-.704c.256 0 .416.01.48.032v-2.752c0-.341-.709-.677-2.128-1.008a62.289 62.289 0 00-3.855-.784c.042-1.173.351-2.117.927-2.832.576-.715 1.408-1.072 2.496-1.072.448 0 1.062.101 1.84.304.779.203 1.339.304 1.68.304.363 0 .566-.235.608-.704l1.569.416c-.384 1.302-1.089 1.952-2.113 1.952-.384 0-.933-.096-1.648-.288-.714-.192-1.253-.288-1.615-.288-.94 0-1.473.363-1.6 1.088 1.642.342 3.023.705 4.143 1.088 1.12.384 1.68 1.045 1.68 1.984zm-1.376-.033c0-.298-.106-.554-.32-.768a1.047 1.047 0 00-.768-.32 1.05 1.05 0 00-.768.32 1.05 1.05 0 00-.32.768c0 .3.107.555.32.769.214.213.47.32.768.32.3 0 .555-.107.768-.32.214-.214.32-.47.32-.769zm2.885-19.168c-.086.896-.374 1.541-.865 1.936-.49.395-1.152.71-1.984.944.342.17.614.422.816.752.203.331.305.699.305 1.104 0 .576-.203 1.067-.608 1.472a2.005 2.005 0 01-1.473.608 2.005 2.005 0 01-1.472-.608c-.405-.405-.608-.906-.608-1.503 0-1.537.79-2.53 2.369-2.977.895-.234 1.466-.533 1.711-.896.246-.362.369-.64.369-.832zm-2.88 4.736a.858.858 0 00-.273-.624.858.858 0 00-.623-.272.859.859 0 00-.625.272.858.858 0 00-.272.624c0 .235.09.443.272.624.182.182.39.272.625.272.234 0 .442-.09.623-.272a.859.859 0 00.272-.624zm18.133 13.51c0 1.045-.325 1.85-.976 2.416-.65.565-1.51.848-2.576.848-1.067 0-1.925-.283-2.576-.848-.65-.566-.976-1.371-.976-2.416v-1.44c0-.683.357-1.584 1.072-2.704.715-1.12 1.072-2 1.072-2.64-.106-.81-.448-1.376-1.024-1.696l-1.184 1.215-1.408-1.279c-.213.128-.443.357-.688.688-.245.33-.378.624-.4.88.32-.064.544-.096.672-.096.64 0 1.184.224 1.632.672.448.448.672.992.672 1.632 0 .64-.219 1.184-.656 1.632-.437.448-.986.672-1.648.672-.747 0-1.355-.31-1.824-.928-.47-.619-.704-1.29-.704-2.016 0-1.131.304-2.16.912-3.089.608-.928 1.392-1.434 2.352-1.52l1.056 1.09.992-1.12c1.92.426 2.88 1.556 2.88 3.39 0 .662-.299 1.505-.896 2.53-.597 1.023-.896 1.834-.896 2.43v2.145c0 .363.165.64.496.832.33.192.688.287 1.072.287a1.99 1.99 0 001.088-.303c.32-.203.48-.475.48-.816v-5.28c0-.79-.31-1.28-.928-1.472.085-.384.096-.757.032-1.12 1.088-.405 1.632-1.43 1.632-3.072h1.985c-.15 1.643-.716 2.848-1.697 3.616.64.512.96 1.184.96 2.016zm-8-4.769a.956.956 0 00-.288-.703.959.959 0 00-.704-.288.959.959 0 00-.704.288.956.956 0 00-.288.703c0 .278.096.513.288.705a.958.958 0 00.704.288.958.958 0 00.704-.288.958.958 0 00.288-.705z" font-family="Sans" font-size="32" font-weight="400" letter-spacing="0" word-spacing="0"/>
</svg>
