<?xml version="1.0" encoding="UTF-8" standalone="no"?>
<svg xmlns="http://www.w3.org/2000/svg" width="115" height="18" viewBox="0 0 115 18">
	<path d="M10.748 3.61l-.492-.99C9.422.97 9.44.88 8.597.77 8.361.74 8.239.71 8.239.59V.07L8.31.02C9.833.01 13.222.01 13.222.01l.13.05v.52c0 .12-.085.18-.258.18l-.356.05c-.9.07-.753.44-.155 1.63l5.677 11.61.194.05 5.04-11.96c.175-.48.148-.82-.077-1.02-.226-.2-.385-.31-.969-.34l-.473-.02a.271.271 0 01-.166-.06.183.183 0 01-.079-.15V.06l.072-.06h5.694l.058.06v.49c0 .14-.077.21-.229.21-.746.03-1.299.19-1.657.48-.359.29-.639.69-.84 1.21 0 0-4.635 10.61-6.221 14.14-.607 1.15-1.204 1.05-1.729-.03-1.109-2.29-4.232-9.22-4.232-9.22z"/>
	<path d="M19.844.01s-3.203-.01-4.629 0l-.071.05v.49c0 .07.026.11.078.15.053.04.107.06.165.06l.229.02c.583.03.851.18.931.28.139.17.208.35-.129 1.08l-5.98 11.93-.157-.04S5.998 5 4.758 1.98c-.129-.31-.187-.55-.187-.69 0-.31.277-.47.831-.49l.646-.03c.171 0 .258-.07.258-.21V.07L6.248.02S1.118.01.058.02L0 .07v.52c0 .09.119.15.358.18.651.03 1.079.14 1.285.31.205.18.422.62.71 1.31C3.91 6.13 7.218 12.8 8.829 16.6c.464 1.04 1.047 1.2 1.755-.03 1.226-2.27 4.55-9.22 4.55-9.22l2.618-4.89c.305-.52.599-.98.748-1.2.273-.39.426-.46 1.172-.5.152 0 .229-.07.229-.2v-.5zm82.067 16.47l.76.05c.1 0 .2.08.2.21v.49l-.05.05s-2.83-.05-3.46-.05c-.67 0-2.34.05-2.34.05l-.05-.05v-.49c0-.13.08-.21.21-.21 1.14-.08 1.79-.29 2.52-1.95l5.77-13.52c.29-.68.5-.94.89-.94.36 0 .49.26.7.78l5.33 14.1c.36 1.01.88 1.4 1.92 1.5l.29.03c.13 0 .26.07.26.21v.49l-.08.05s-2-.05-3.02-.05c-.91 0-3.45.05-3.45.05l-.03-.05v-.49c0-.14.05-.21.19-.21l.72-.05c.99-.08 1.36-.4 1.1-1.12l-1.59-4.4h-5.41c-.62 0-.78.11-.91.44l-1.51 3.77c-.26.66.08 1.23 1.04 1.31zm6.37-6.61l-2.52-6.94h-.05l-2.6 6.61c-.11.26.08.33.65.33zm-76.824 7.16c0 .17-.048.25-.144.25-.408 0-.885-.01-1.431-.05a17.758 17.758 0 00-2.682 0c-.558.04-1.041.05-1.449.05-.096 0-.144-.08-.144-.25 0-.15.048-.24.144-.24.72-.08 1.212-.21 1.476-.41.264-.19.396-.56.396-1.11V6.8c0-.42-.054-.71-.162-.88-.102-.18-.285-.31-.549-.41-.264-.1-.651-.18-1.161-.24-.096 0-.144-.09-.144-.25 0-.17.048-.26.144-.26.408 0 .891.02 1.449.06.528.03.975.05 1.341.05.36 0 .807-.02 1.341-.05.546-.04 1.023-.06 1.431-.06.096 0 .144.09.144.26 0 .16-.048.25-.144.25-.51.06-.894.15-1.152.24-.276.1-.459.24-.549.4-.102.17-.153.47-.153.89v8.47c0 .41.051.71.153.88.102.17.283.3.544.4.261.1.644.18 1.148.24.102.01.153.09.153.24zm15.226 0c0 .17-.048.25-.144.25-.402 0-.882-.01-1.44-.05a17.87 17.87 0 00-1.35-.05c-.36 0-.849.01-1.467.05-.66.04-1.188.05-1.584.05-.096 0-.144-.08-.144-.25 0-.15.042-.23.126-.24.811-.1 1.216-.29 1.216-.59 0-.16-.132-.38-.397-.64l-3.573-3.64a1.78 1.78 0 00-.504-.38c-.126-.06-.318-.09-.576-.09v3.82c0 .41.051.71.153.88.109.17.294.3.558.4.264.1.648.18 1.153.24.101.01.152.09.152.24 0 .17-.048.25-.144.25-.402 0-.882-.01-1.439-.05a17.911 17.911 0 00-2.683 0c-.558.04-1.038.05-1.44.05-.095 0-.143-.08-.143-.25 0-.15.048-.24.143-.24.72-.08 1.212-.21 1.476-.41.265-.19.397-.56.397-1.11V6.8c0-.42-.054-.71-.163-.88-.102-.18-.285-.31-.549-.41-.264-.1-.651-.18-1.161-.24-.095 0-.143-.09-.143-.25 0-.17.048-.26.143-.26.402 0 .882.02 1.44.06.528.03.972.05 1.332.05.366 0 .816-.02 1.351-.05.557-.04 1.037-.06 1.439-.06.096 0 .144.09.144.26 0 .16-.048.25-.144.25-.516.06-.903.15-1.161.24-.264.1-.449.24-.558.41-.102.17-.153.46-.153.88v4.08c.114 0 .216-.01.306-.02s.176-.04.257-.07a1.6 1.6 0 00.243-.15c.081-.06.172-.14.274-.23l3.951-3.9c.324-.31.486-.53.486-.66 0-.16-.078-.28-.234-.37-.156-.07-.462-.15-.918-.21-.096 0-.144-.09-.144-.25 0-.17.054-.26.162-.26.282 0 .654.02 1.116.06.492.03.9.05 1.224.05.162 0 .333 0 .513-.01s.369-.03.567-.05l.459-.03c.138-.01.267-.02.387-.02.084 0 .126.09.126.26 0 .16-.048.25-.144.25-.57.07-1.023.19-1.359.35-.342.17-.738.47-1.188.9l-4.103 3.91 5.102 5.18c.348.37.696.64 1.044.81.36.17.876.29 1.548.37.108.01.162.09.162.24zm6.922 0c0 .17-.048.25-.144.25-.408 0-.885-.01-1.431-.05a17.734 17.734 0 00-2.681 0c-.558.04-1.041.05-1.449.05-.096 0-.144-.08-.144-.25 0-.15.048-.24.144-.24.72-.08 1.212-.21 1.476-.41.264-.19.396-.56.396-1.11V6.8c0-.42-.054-.71-.162-.88-.103-.18-.286-.31-.55-.41-.264-.1-.651-.18-1.16-.24-.096 0-.144-.09-.144-.25 0-.17.048-.26.144-.26.408 0 .891.02 1.449.06.527.03.974.05 1.341.05.36 0 .806-.02 1.34-.05.546-.04 1.023-.06 1.431-.06.096 0 .144.09.144.26 0 .16-.048.25-.144.25-.51.06-.894.15-1.152.24-.276.1-.459.24-.549.4-.102.17-.153.47-.153.89v8.47c0 .41.051.71.153.88.102.17.284.3.545.4.261.1.643.18 1.148.24.101.01.152.09.152.24zm9.773-8.59c0-.97-.237-1.72-.711-2.25-.468-.54-1.092-.81-1.872-.81-.468 0-.831.03-1.09.1-.251.08-.431.19-.54.36-.101.16-.152.48-.152.96v4.13c0 .26.081.43.243.52.168.09.519.13 1.053.13.486 0 .919-.07 1.3-.22.381-.14.702-.35.963-.62s.46-.6.599-.99c.138-.39.207-.83.207-1.31zm1.998 0c0 1.05-.408 1.94-1.224 2.66-.816.71-1.821 1.07-3.016 1.07-.36 0-.717-.01-1.07-.02a35.78 35.78 0 01-1.053-.07v3.19c0 .41.051.71.152.88.109.17.293.3.554.4.261.1.644.18 1.148.24.096 0 .144.09.144.24 0 .17-.048.25-.144.25-.408 0-.885-.01-1.431-.05a17.758 17.758 0 00-2.691 0c-.558.04-1.038.05-1.44.05-.096 0-.144-.08-.144-.25 0-.15.048-.24.144-.24.72-.08 1.212-.21 1.476-.41.264-.19.396-.56.396-1.11V6.8c0-.42-.054-.71-.162-.88-.102-.18-.285-.31-.549-.41-.264-.1-.651-.18-1.161-.24-.096 0-.144-.09-.144-.25 0-.17.048-.26.144-.26.402 0 .882.02 1.44.06.528.03.978.05 1.35.05.36 0 .807-.02 1.341-.05.546-.04 1.023-.06 1.431-.06 1.488 0 2.611.32 3.37.94.759.62 1.139 1.53 1.139 2.74zm7.46 8.59c0 .17-.048.25-.144.25-.408 0-.885-.01-1.431-.05a17.758 17.758 0 00-2.682 0c-.558.04-1.041.05-1.449.05-.096 0-.144-.08-.144-.25 0-.15.048-.24.144-.24.72-.08 1.212-.21 1.476-.41.264-.19.396-.56.396-1.11V6.8c0-.42-.054-.71-.162-.88-.102-.18-.285-.31-.549-.41-.264-.1-.651-.18-1.161-.24-.096 0-.144-.09-.144-.25 0-.17.048-.26.144-.26.408 0 .891.02 1.449.06.528.03.975.05 1.341.05.36 0 .807-.02 1.341-.05.546-.04 1.023-.06 1.431-.06.096 0 .144.09.144.26 0 .16-.048.25-.144.25-.51.06-.894.15-1.152.24-.276.1-.459.24-.549.4-.102.17-.153.47-.153.89v8.47c0 .41.051.71.153.88.102.17.283.3.544.4.261.1.644.18 1.148.24.102.01.153.09.153.24zm13.12-5.92c0-1.63-.468-2.99-1.404-4.07-.924-1.08-2.091-1.63-3.501-1.63h-.054l-1.692.04c-.708.02-1.062.37-1.062 1.04v9.12c0 .68.354 1.03 1.062 1.03l1.692.05c1.398 0 2.574-.53 3.528-1.59.954-1.07 1.431-2.4 1.431-3.99zm1.98 0c0 1.85-.618 3.34-1.854 4.47-1.236 1.14-2.907 1.7-5.013 1.7-.132 0-.331 0-.598-.01-.267 0-.602-.01-1.004-.02a88.49 88.49 0 01-1.035-.03c-.276 0-.483-.01-.621-.01a88.847 88.847 0 00-3.258.07c-.096 0-.144-.08-.144-.25 0-.15.048-.24.144-.24.252-.03.473-.07.662-.1.189-.04.349-.09.481-.13.27-.11.453-.24.549-.41.108-.17.162-.46.162-.88V6.83c0-.4-.051-.69-.153-.87-.096-.17-.276-.31-.54-.41-.264-.1-.651-.19-1.161-.24-.096 0-.144-.09-.144-.26s.048-.25.144-.25c.354.02.801.04 1.341.05.54.02 1.179.02 1.917.02.276 0 .828-.01 1.656-.02.798-.02 1.332-.03 1.602-.03 2.058 0 3.714.59 4.968 1.76 1.266 1.17 1.899 2.68 1.899 4.53zm7.715 5.92c0 .17-.05.25-.14.25-.41 0-.89-.01-1.43-.05a17.841 17.841 0 00-2.69 0c-.55.04-1.04.05-1.445.05-.096 0-.143-.08-.143-.25 0-.15.047-.24.143-.24.725-.08 1.215-.21 1.475-.41.27-.19.4-.56.4-1.11V6.8c0-.42-.06-.71-.16-.88-.11-.18-.29-.31-.55-.41-.27-.1-.65-.18-1.165-.24-.096 0-.143-.09-.143-.25 0-.17.047-.26.143-.26.405 0 .895.02 1.445.06.53.03.98.05 1.35.05.36 0 .8-.02 1.34-.05.54-.04 1.02-.06 1.43-.06.09 0 .14.09.14.26 0 .16-.05.25-.14.25-.51.06-.9.15-1.15.24-.28.1-.46.24-.55.4-.11.17-.16.47-.16.89v8.47c0 .41.05.71.16.88.1.17.28.3.54.4.26.1.64.18 1.15.24.1.01.15.09.15.24z"/>
</svg>
