<?xml version="1.0" encoding="UTF-8" standalone="no"?>
<svg xmlns="http://www.w3.org/2000/svg" width="131" height="21" viewBox="0 0 131 21">
	<path d="M6.536 0c4.703 0 5.436 2.348 5.436 4.156 0 1.466-1.135 2.851-2.402 3.535v.055c2.2.675 3.894 2.16 3.894 4.751 0 2.321-1.34 5.021-6.372 5.021-2.25 0-2.604-.054-3.691-.054-1.289 0-2.048.027-3.287.054-.152-.162-.152-.729 0-.891 1.77-.081 2.2-.216 2.2-2.456V3.348c0-2.24-.43-2.375-2.2-2.457C-.038.729-.038.162.114 0c1.264.025 1.998.055 3.262.055C4.463.053 5.652 0 6.536 0zM4.463 7.585h1.871c2.099 0 3.59-.812 3.59-3.104 0-2.752-1.846-3.563-3.262-3.563-2.2 0-2.2.271-2.2 1.161l.001 5.506zm0 7.233c0 .891.329 1.809 2.099 1.809 3.843 0 4.551-1.646 4.551-3.617 0-2.429-1.441-4.508-4.905-4.508H4.463zM21.409 5.83l.05.054v.567c0 .107-.05.152-.152.16l-.758.056c-.961.067-1.037.297-1.037 1.403v6.425l5.208-6.694c0-.648-.025-1.107-.885-1.188-.076-.008-.126-.026-.126-.135v-.596l.05-.054s1.138.054 1.846.054c1.138 0 2.908-.054 2.908-.054l.025.054v.567c0 .106-.051.151-.152.159l-.758.057c-.933.066-1.011.271-1.011 1.402v7.262c0 .999.131 1.288 1.011 1.352l.758.055c.101.008.152.054.152.162v.564l-.025.055c-1.011-.025-1.77-.055-2.908-.055-1.087 0-1.77.027-2.781.055l-.05-.055v-.594c0-.081.05-.13.126-.137l.784-.055c.956-.063 1.037-.404 1.037-1.35v-6.37l-5.208 6.694v.054c0 .647.076.944.936 1.026.101.011.152.054.152.162v.564l-.025.055c-1.011-.025-1.239-.055-2.048-.055-1.087 0-1.795.027-2.807.055l-.025-.055v-.594c0-.081.051-.131.126-.137l.784-.055c.953-.063 1.011-.351 1.011-1.295V8.088c0-1.135-.058-1.363-1.011-1.432l-.758-.055c-.101-.008-.152-.026-.152-.135V5.87l.076-.054s1.669.054 2.756.054a89.23 89.23 0 002.881-.04zm9.764 11.121c0-.135.076-.189.202-.217l.48-.056c.885-.105 1.062-.378 1.062-1.133V7.853c0-.756-.253-1.105-1.062-1.188l-.48-.056c-.126-.025-.202-.08-.202-.217v-.513l.051-.054s1.719.054 2.604.054c.986 0 2.402-.054 2.402-.054l.051.054v.459c0 .136-.101.271-.202.271-.733.08-1.265.218-1.265 1.188v3.077c1.694 0 2.425-1.025 2.958-2.511.455-1.271 1.264-2.728 2.478-2.728 1.037 0 1.315.566 1.315 1.215 0 .539-.43 1.025-.961 1.025-.303 0-.531-.107-.708-.243a.931.931 0 00-.557-.188c-.252 0-.733.595-1.011 1.432-.359 1.077-.961 1.998-1.896 2.295v.105c1.366 0 2.301.596 2.807 1.918.405 1.025 1.441 3.373 2.352 3.51l.202.025c.101 0 .278.056.278.242v.486l-.076.055-1.82-.027c-1.264-.025-2.043-1.893-2.427-3.075-.48-1.485-1.037-2.457-2.933-2.593v3.779c0 .892.759 1.053 1.315 1.133.101.026.202.082.202.218v.513l-.05.055s-1.467-.055-2.453-.055c-.885 0-2.604.055-2.604.055l-.051-.055-.001-.509zM49.332 5.83l.05.054v.567c0 .107-.05.152-.152.16l-.758.056c-.961.067-1.037.297-1.037 1.403v6.425l5.208-6.694c0-.648-.025-1.107-.885-1.188-.076-.008-.126-.026-.126-.135v-.596l.05-.054s1.138.054 1.846.054c1.138 0 2.908-.054 2.908-.054l.025.054v.567c0 .106-.051.151-.152.159l-.758.057c-.933.066-1.012.271-1.012 1.402v7.262c0 .999.132 1.288 1.012 1.352l.758.055c.101.008.152.054.152.162v.564l-.025.055c-1.011-.025-1.77-.055-2.908-.055-1.087 0-1.77.027-2.781.055l-.05-.055v-.594c0-.081.05-.13.126-.137l.784-.055c.956-.063 1.037-.404 1.037-1.35v-6.37l-5.208 6.694v.054c0 .647.076.944.936 1.026.101.011.152.054.152.162v.564l-.025.055c-1.011-.025-1.239-.055-2.048-.055-1.087 0-1.795.027-2.806.055l-.025-.055v-.594c0-.081.051-.131.126-.137l.784-.055c.953-.063 1.011-.351 1.011-1.295V8.088c0-1.135-.058-1.363-1.011-1.432l-.758-.055c-.101-.008-.152-.026-.152-.135V5.87l.076-.054s1.669.054 2.756.054c1.11.013 2.88-.04 2.88-.04zm10.094.837l-.759-.056c-.076-.004-.126-.025-.126-.135v-.595l.051-.054s1.697.054 2.781.054h7.004c1.139 0 2.906-.054 2.906-.054l.025.054v.567c0 .105-.051.152-.15.16l-.76.056c-.957.065-1.037.188-1.037 1.295v7.45c0 1.025.16 1.207 1.037 1.269l.76.056c.102.009.15.055.15.162v.565l-.025.056s-1.727-.056-2.832-.056c-1.084 0-2.78.056-2.78.056l-.025-.056v-.594c0-.081.051-.132.127-.136l.682-.056c.902-.069 1.037-.323 1.037-1.269V7.982c0-.998-.53-1.053-1.037-1.053h-3.059c-.531 0-1.037.107-1.037 1.053v7.424c0 1.025.16 1.201 1.012 1.269l.683.056c.076.006.126.055.126.162v.565l-.025.054s-1.682-.054-2.756-.054c-1.105 0-2.832.054-2.832.054l-.05-.054v-.594c0-.081.05-.127.151-.136l.759-.056c.902-.063 1.037-.321 1.037-1.269V7.979c-.002-1.124-.136-1.249-1.038-1.312zm17.957 5.06v3.824c0 .484.364 1.122.834 1.122h2.166c1.646 0 2.4-1.274 2.816-2.778.287-.078.496-.024.73.103-.183 1.069-.47 2.474-.781 3.521 0 0-1.723-.053-2.768-.053h-4.017s-1.826.024-2.922.053c-.156-.152-.156-.688 0-.843 1.592-.128 1.879-.204 1.879-2.319V8.849c0-2.115-.287-2.219-1.879-2.32-.156-.152-.156-.688 0-.842 1.121.025 2.896.053 2.896.053h5.4c.522 0 .704-.053 1.069-.104.054 0 .078.025.078.077.053.178.365 2.167.471 3.034a1.299 1.299 0 01-.705.127c-.471-1.453-.809-2.295-2.428-2.295h-2.009c-.495 0-.835.278-.835.714v3.621h1.486c1.826-.025 1.748-.28 1.802-1.43.13-.127.601-.127.729 0-.025.639-.053 1.098-.053 1.813 0 .714.024 1.121.053 1.859-.131.129-.602.129-.729 0-.054-.942.052-1.428-1.802-1.428h-1.481zm8.827 5.602c.024-.486.354-.54.708-.595.656-.08 1.34-.434 1.49-1.16.479-2.295.938-4.751.938-7.963 0-.324-.151-.863-1.037-.944l-.683-.056c-.103 0-.179-.025-.179-.135v-.595l.076-.054s1.974.054 2.402.054h4.805c.834 0 2.68-.054 2.68-.054l.023.054v.54c0 .107-.101.188-.176.188l-.431.056c-.91.112-1.163.353-1.163 1.271v7.477c0 .999.581 1.242 1.012 1.322.454.086.633.188.633.565l.15 3.617h-.632c-.202-1.08-.937-3.455-3.034-3.455h-4.097c-2.123 0-2.78 2.481-2.982 3.481l-.657-.026zm3.539-.918h3.009c.937 0 1.012-.433 1.012-1.322V8.233c0-.918-.075-1.32-1.012-1.32h-1.795c-.58 0-.708.594-.708.699-.354 6.154-.985 8.019-.985 8.478-.001.293.227.321.479.321zM105.658 5.83l.051.054v.567c0 .107-.051.152-.152.16l-.758.056c-.961.067-1.037.297-1.037 1.403v6.425l5.209-6.694c0-.648-.024-1.107-.886-1.188-.075-.008-.126-.026-.126-.135v-.596l.051-.054s1.139.054 1.846.054c1.14 0 2.908-.054 2.908-.054l.023.054v.567c0 .106-.051.151-.15.159l-.759.057c-.933.066-1.013.271-1.013 1.402v7.262c0 .999.133 1.288 1.013 1.352l.759.055c.103.008.15.054.15.162v.564l-.023.055c-1.013-.024-1.771-.054-2.908-.054-1.088 0-1.771.027-2.78.054l-.052-.054v-.594c0-.081.052-.13.127-.136l.783-.056c.957-.063 1.037-.403 1.037-1.35v-6.37l-5.209 6.693v.055c0 .646.076.943.937 1.025.103.012.151.055.151.162v.565l-.024.054c-1.013-.024-1.238-.054-2.05-.054-1.086 0-1.795.026-2.807.054l-.022-.054v-.594c0-.081.049-.13.125-.136l.784-.056c.953-.063 1.011-.351 1.011-1.295V8.089c0-1.135-.058-1.362-1.011-1.432l-.76-.056c-.102-.008-.149-.025-.149-.135v-.595l.073-.054s1.67.054 2.757.054c1.112.012 2.881-.041 2.881-.041zm9.121 11.121c0-.135.084-.217.193-.217l.248-.026c.885-.106 2.254-1.576 3.674-5.183.689-1.756 1.52-2.432 2.266-2.861v-.081c-1.879-.271-4.115-1.619-4.115-4.373 0-1.862.938-4.185 6.076-4.185.966 0 2.596.026 3.507.026.856 0 3.534-.026 3.534-.026v.566c0 .107-.055.188-.191.188l-.828.055c-1.16.081-1.465.271-1.465 1.188v13.47c0 .81.359 1.106 1.491 1.188l.746.056c.11 0 .222.082.222.217v.513l-.057.054s-2.402-.054-3.479-.054c-.994 0-3.563.054-3.563.054l-.056-.054v-.513c0-.135.082-.217.221-.217l.719-.056c1.16-.086 1.52-.432 1.52-1.188V8.717c-2.928 0-3.479.783-4.641 3.646-1.188 2.93-2.209 5.1-4.17 5.13l-1.822.026-.026-.056v-.512h-.004zm8.506-9.26h2.154V1.943c0-.894-.111-.974-2.514-.974-1.548 0-3.646.433-3.646 2.941.002 2.863 1.713 3.781 4.006 3.781z"/>
</svg>
