<?xml version="1.0" encoding="UTF-8" standalone="no"?>
<svg xmlns="http://www.w3.org/2000/svg" width="315" height="42" version="1.0">
	<g font-family="DejaVu Sans" font-size="56" font-weight="700">
		<path fill="#0b2645" d="M0 0h10.09l7.055 29.668 7-29.668h10.144l7 29.668L48.344 0h10.008l-9.625 40.824H36.586L29.176 9.79l-7.328 31.035H9.707zm65.27 0h10.527v40.824H65.27zm20.89 0h10.528v14.902L111.863 0h12.223l-19.66 19.332 21.683 21.492h-13.18l-16.24-16.078v16.078H86.16zm43.422 0h10.527v40.824h-10.527z"/>
		<path fill="#0a4e98" d="M163.773 16.038c1.66 0 2.917-.365 3.774-1.094.857-.73 1.285-1.805 1.285-3.227 0-1.403-.428-2.474-1.285-3.213-.857-.738-2.115-1.107-3.774-1.107h-5.824v8.64zm.356 17.855c2.114 0 3.705-.447 4.771-1.34 1.067-.893 1.6-2.242 1.6-4.047 0-1.768-.529-3.094-1.586-3.978-1.057-.884-2.652-1.326-4.785-1.326h-6.18v10.691zm9.789-14.683c2.26.656 4.01 1.868 5.25 3.636 1.24 1.768 1.86 3.938 1.86 6.508 0 3.938-1.332 6.872-3.993 8.805-2.661 1.932-6.708 2.898-12.14 2.898h-17.473V.233h15.804c5.67 0 9.776.857 12.319 2.57 2.543 1.714 3.814 4.457 3.814 8.23 0 1.988-.465 3.678-1.394 5.073-.93 1.395-2.279 2.43-4.047 3.104zM190.078.233h10.527v24.473c0 3.372.552 5.783 1.655 7.232 1.103 1.45 2.903 2.174 5.4 2.174 2.516 0 4.325-.725 5.428-2.174 1.103-1.45 1.654-3.86 1.654-7.232V.233h10.527v24.473c0 5.778-1.449 10.08-4.347 12.906-2.899 2.825-7.32 4.238-13.262 4.238-5.924 0-10.336-1.413-13.234-4.238-2.899-2.826-4.348-7.128-4.348-12.906zm45.5 0h10.527v14.902L261.281.233h12.223l-19.66 19.332 21.683 21.492h-13.18L246.106 24.98v16.078h-10.527zm43.422 0h10.527v24.473c0 3.372.552 5.783 1.655 7.232 1.102 1.45 2.903 2.174 5.4 2.174 2.516 0 4.325-.725 5.428-2.174 1.103-1.45 1.654-3.86 1.654-7.232V.233h10.527v24.473c0 5.778-1.449 10.08-4.347 12.906-2.899 2.825-7.32 4.238-13.262 4.238-5.925 0-10.336-1.413-13.234-4.238-2.899-2.826-4.348-7.128-4.348-12.906z"/>
	</g>
</svg>
