<?xml version="1.0" encoding="UTF-8" standalone="no"?>
<svg xmlns="http://www.w3.org/2000/svg" width="496" height="73">
	<g font-weight="400" letter-spacing="0" text-anchor="middle" word-spacing="0">
		<text style="line-height:0%;-inkscape-font-specification:OpenSymbol;text-align:center" x="142.533" y="512.55" font-family="OpenSymbol" transform="translate(-98.326 -460.075)">
			
		</text>
		<g style="line-height:125%;-inkscape-font-specification:'Sans Italic';text-align:center">
			<path style="-inkscape-font-specification:FreeSerif" d="M463.705 54.84c0 4.461.826 7.853 2.477 10.173 1.695 2.276 4.707 3.414 9.036 3.414 2.008 0 3.793-1.116 5.354-3.347 1.607-2.276 2.41-4.395 2.41-6.359 0-2.454-.357-4.016-1.07-4.685-.67-.67-2.321-1.116-4.954-1.339v-1.272H495.9v1.272c-2.588.223-4.328.759-5.22 1.607-.848.847-1.272 2.32-1.272 4.417 0 3.258-1.54 6.18-4.619 8.769-3.079 2.588-6.782 3.882-11.11 3.882-5.712 0-9.952-1.384-12.718-4.15-2.722-2.811-4.083-7.117-4.083-12.918v-25.1h-4.82c-1.427 0-3.123-.224-5.086-.67-1.964-.446-3.592-.915-4.886-1.406-1.295-.535-1.942-.914-1.942-1.137 0-.58.781-1.317 2.343-2.21 1.607-.936 3.08-1.405 4.418-1.405.223 0 .58.402 1.07 1.205.492.759 1.16 1.54 2.009 2.343.848.758 1.852 1.138 3.012 1.138h10.71v27.777m-39.42 11.714c.937-.268 1.785-.402 2.544-.402 1.428 0 3.123.223 5.087.67 1.963.445 3.592.936 4.886 1.472 1.294.49 1.941.848 1.941 1.07 0 .58-.803 1.317-2.41 2.21-1.561.937-3.012 1.405-4.35 1.405-.223 0-.58-.401-1.071-1.205-.491-.758-1.16-1.517-2.008-2.275-.848-.804-1.852-1.205-3.012-1.205a7.21 7.21 0 00-3.012.67c-.982.4-1.874.847-2.678 1.338-.803.49-2.097.937-3.882 1.338-1.74.447-3.815.67-6.225.67-5.711 0-9.95-1.383-12.717-4.15-2.722-2.811-4.083-7.117-4.083-12.918V34.357c0-2.454-.357-4.016-1.07-4.685-.67-.67-2.321-1.116-4.954-1.339v-1.271h18.942v1.271c-2.677.223-4.373.692-5.087 1.406-.67.67-1.004 2.209-1.004 4.618v21.42c0 4.417.826 7.786 2.477 10.106 1.65 2.32 4.462 3.48 8.433 3.48 2.9 0 5.199-1.293 6.895-3.881 1.74-2.589 2.61-5.824 2.61-9.706V34.357c0-2.41-.357-3.949-1.07-4.618-.67-.714-2.344-1.183-5.02-1.406v-1.271h18.941v1.271c-2.632.223-4.306.67-5.02 1.339-.67.67-1.004 2.231-1.004 4.685v20.884c0 5.131-1.026 8.902-3.079 11.312m-71.226-2.477c0 2.41.335 3.971 1.004 4.685.714.67 2.41 1.116 5.087 1.339v1.272H340.21V70.1c2.633-.223 4.284-.67 4.953-1.339.714-.669 1.071-2.23 1.071-4.685V43.193c0-5.801 1.361-10.085 4.083-12.852 2.767-2.81 7.006-4.216 12.718-4.217 4.328 0 8.032 1.295 11.11 3.883 3.08 2.588 4.619 5.51 4.619 8.768 0 2.097.424 3.57 1.272 4.418.892.847 2.632 1.383 5.22 1.606v1.272h-18.942v-1.272c2.633-.223 4.284-.67 4.953-1.339.714-.669 1.071-2.23 1.071-4.685 0-1.963-.803-4.06-2.41-6.292-1.561-2.276-3.346-3.413-5.354-3.413-4.328 0-7.34 1.16-9.036 3.48-1.651 2.276-2.477 5.645-2.477 10.107v21.419m-29.044 2.477c.937-.268 1.785-.402 2.544-.402 1.428 0 3.123.223 5.087.67 1.963.445 3.592.936 4.886 1.472 1.294.49 1.941.848 1.941 1.07 0 .58-.803 1.317-2.41 2.21-1.561.937-3.012 1.405-4.35 1.405-.223 0-.58-.401-1.071-1.205-.491-.758-1.16-1.517-2.008-2.275-.848-.804-1.852-1.205-3.012-1.205a7.21 7.21 0 00-3.012.67 18.72 18.72 0 00-2.678 1.338c-.803.49-2.097.937-3.882 1.338-1.74.447-3.815.67-6.225.67-5.711 0-9.95-1.383-12.717-4.15-2.722-2.811-4.083-7.117-4.083-12.918V34.357c0-2.454-.357-4.016-1.071-4.685-.67-.67-2.32-1.116-4.953-1.339v-1.271h18.942v1.271c-2.677.223-4.373.692-5.087 1.406-.67.67-1.004 2.209-1.004 4.618v21.42c0 4.417.826 7.786 2.477 10.106 1.65 2.32 4.462 3.48 8.433 3.48 2.9 0 5.199-1.293 6.895-3.881 1.74-2.589 2.61-5.824 2.61-9.706V34.357c0-2.41-.357-3.949-1.07-4.618-.67-.714-2.344-1.183-5.02-1.406v-1.271h18.941v1.271c-2.632.223-4.306.67-5.02 1.339-.67.67-1.004 2.231-1.004 4.685v20.884c0 5.131-1.026 8.902-3.079 11.312M261.8 64.076V42.657c0-4.462-.848-7.831-2.543-10.107-1.651-2.32-4.641-3.48-8.97-3.48-2.007 0-3.815 1.137-5.421 3.413-1.562 2.231-2.343 4.329-2.343 6.292 0 2.454.335 4.016 1.004 4.685.714.67 2.388 1.116 5.02 1.339v1.272h-18.942v-1.272c2.588-.223 4.306-.759 5.154-1.606.892-.848 1.339-2.32 1.339-4.418 0-3.257 1.54-6.18 4.618-8.768 3.08-2.588 6.783-3.882 11.111-3.883 5.712 0 9.929 1.406 12.65 4.217 2.767 2.767 4.15 7.05 4.15 12.852v9.036h4.82c1.428 0 3.123.223 5.087.669 1.963.446 3.592.937 4.886 1.473 1.294.49 1.941.847 1.941 1.07 0 .58-.803 1.34-2.41 2.276-1.561.893-3.012 1.339-4.35 1.339-.223 0-.58-.38-1.071-1.138-.491-.803-1.16-1.584-2.008-2.343-.848-.803-1.852-1.204-3.012-1.204h-3.882v9.705c0 2.454.334 4.016 1.004 4.685.713.67 2.387 1.116 5.02 1.339v1.272h-18.943V70.1c2.678-.223 4.351-.67 5.02-1.339.714-.714 1.071-2.275 1.071-4.685m-66.193-9.572v9.572c0 2.454.402 4.06 1.205 4.82.803.713 2.588 1.115 5.354 1.204v1.272h-19.879V70.1c2.811-.09 4.596-.49 5.355-1.205.758-.714 1.138-2.32 1.138-4.819V34.357c0-2.454-.38-4.016-1.138-4.685-.714-.714-2.5-1.16-5.355-1.339v-1.271h19.88v1.271c-2.812.134-4.619.558-5.422 1.272-.759.714-1.138 2.298-1.138 4.752v5.757c2.588-1.428 5.912-2.142 9.973-2.142 4.328 0 8.032 1.294 11.111 3.882 3.079 2.588 4.618 5.51 4.619 8.768 0 2.098.423 3.57 1.271 4.418.893.848 2.633 1.383 5.221 1.606v1.272H208.86v-1.272c2.633-.178 4.284-.602 4.953-1.271.714-.714 1.07-2.298 1.07-4.753 0-1.963-.802-4.06-2.409-6.292-1.562-2.275-3.346-3.413-5.354-3.413-4.329 0-7.34 1.16-9.037 3.48-1.65 2.276-2.476 5.645-2.476 10.107M160.58 52.23c3.302 0 5.778-1.071 7.43-3.213 1.695-2.142 2.543-5.087 2.543-8.835 0-2.722-.781-5.244-2.343-7.564-1.562-2.365-3.369-3.547-5.422-3.547-4.328 0-7.34 1.16-9.036 3.48-1.65 2.276-2.476 5.645-2.476 10.107 0 2.633.892 4.886 2.677 6.76 1.83 1.875 4.039 2.812 6.627 2.812m-18.876 9.906c-1.428 0-3.123-.223-5.087-.67-1.963-.446-3.592-.914-4.886-1.405-1.294-.536-1.94-.915-1.94-1.138 0-.58.78-1.316 2.342-2.209 1.606-.937 3.079-1.405 4.417-1.405.224 0 .58.401 1.071 1.204.491.759 1.16 1.54 2.008 2.343.848.759 1.852 1.138 3.012 1.138h1.808v-16.8c0-5.801 1.36-10.085 4.083-12.852 2.766-2.81 7.005-4.216 12.717-4.217 4.507 0 8.322 1.34 11.446 4.017 3.123 2.677 4.685 6.024 4.685 10.04 0 4.328-1.562 7.786-4.685 10.374-3.124 2.544-6.94 3.816-11.446 3.816-4.64 0-7.965-1.696-9.973-5.087v10.709h17.47c1.427 0 3.123.223 5.087.67 1.963.446 3.592.936 4.886 1.472 1.294.49 1.94.848 1.94 1.07 0 .58-.802 1.34-2.409 2.277-1.562.892-3.012 1.338-4.35 1.338-.224 0-.58-.379-1.071-1.138-.491-.803-1.16-1.584-2.008-2.342-.848-.803-1.852-1.205-3.012-1.205h-16.533v1.941c0 2.41.335 3.971 1.004 4.685.714.67 2.41 1.116 5.087 1.339v1.272h-18.942V70.1c2.632-.223 4.283-.67 4.953-1.339.714-.669 1.07-2.23 1.07-4.685v-1.941h-2.744m-45.845-7.63v9.571c0 2.454.401 4.06 1.205 4.82.803.713 2.588 1.115 5.354 1.204v1.272H82.54V70.1c2.811-.09 4.596-.49 5.355-1.205.758-.714 1.138-2.32 1.138-4.819V34.357c0-2.454-.38-4.016-1.138-4.685-.714-.714-2.5-1.16-5.355-1.339v-1.271h19.88v1.271c-2.812.134-4.62.558-5.422 1.272-.759.714-1.138 2.298-1.138 4.752v5.757c2.588-1.428 5.912-2.142 9.973-2.142 4.328 0 8.032 1.294 11.111 3.882 3.079 2.588 4.618 5.51 4.618 8.768 0 2.098.424 3.57 1.272 4.418.893.848 2.633 1.383 5.221 1.606v1.272h-18.942v-1.272c2.632-.178 4.283-.602 4.953-1.271.714-.714 1.07-2.298 1.07-4.753 0-1.963-.802-4.06-2.409-6.292-1.562-2.275-3.347-3.413-5.355-3.413-4.328 0-7.34 1.16-9.036 3.48-1.65 2.276-2.476 5.645-2.476 10.107" font-family="FreeSerif" font-size="66.934"/>
		</g>
		<g style="line-height:125%;-inkscape-font-specification:'Sans Italic';text-align:center">
			<path style="-inkscape-font-specification:FreeSerif" d="M54.27 61.715h8.522c2.09 0 4.571.326 7.445.98 2.873.652 5.257 1.37 7.151 2.154 1.894.719 2.84 1.241 2.84 1.568 0 .849-1.175 1.926-3.526 3.232-2.285 1.372-4.408 2.057-6.367 2.057-.327 0-.85-.587-1.567-1.763-.719-1.11-1.698-2.253-2.94-3.428-1.24-1.11-2.71-1.666-4.407-1.666H44.278V45.943c-4.702 3.984-9.764 5.976-15.184 5.976-6.661 0-11.755-1.666-15.282-4.996-3.461-3.396-5.192-8-5.192-13.813v-1.959c0-3.526-.49-5.78-1.469-6.76-.98-1.044-3.363-1.73-7.151-2.056v-1.861h27.233v1.86c-3.788.327-6.172 1.013-7.151 2.058-.98.98-1.47 3.233-1.47 6.76v2.056c0 9.6 3.396 14.4 10.188 14.4 5.355 0 10.514-1.991 15.478-5.975V10.678c0-3.527-.49-5.78-1.47-6.76-.98-1.044-3.363-1.73-7.15-2.057V0H62.89v1.861c-3.788.327-6.171 1.013-7.151 2.057-.98.98-1.47 3.233-1.47 6.76v51.037" font-family="FreeSerif" font-size="97.96"/>
		</g>
	</g>
</svg>
