<?xml version="1.0" encoding="UTF-8" standalone="no"?>
<svg xmlns="http://www.w3.org/2000/svg" width="128" height="19" viewBox="0 0 128 19">
	<path d="M15.553 1.157c1.16.162 1.026.756.216 2.322l-1.431 2.7-.135-.135-1.323-2.727c-.73-1.539-.837-1.998.297-2.16.162-.162.162-.729 0-.891-.972.027-1.404.054-2.457.054C9.64.32 9.18.293 8.317.266c-.162.162-.135.729.027.891 1.16.162 1.377.54 2.268 2.457l2.268 4.833-2.997 6.129h-.135L4.807 3.317c-.675-1.539-.594-1.971 1.107-2.16.162-.162.162-.729 0-.891C4.644.293 3.97.32 2.917.32 1.837.32 1.377.293.109.266c-.162.162-.135.729.027.891 1.539.135 1.593.54 2.403 2.457l5.886 13.824c.162.405.35.621.62.621.298 0 .487-.216.649-.621l3.969-7.83 3.645 7.83c.135.405.35.621.62.621.298 0 .46-.216.649-.621l6.372-13.77c.567-1.242.89-2.295 2.673-2.511.162-.162.162-.729 0-.891-1.08.027-1.755.054-2.376.054S23.842.293 22.573.266c-.162.162-.162.729 0 .891 1.755.135 1.782.864 1.16 2.322l-5.13 11.097h-.134l-3.456-7.128 1.97-3.78c.676-1.242 1.27-2.295 2.674-2.511.162-.162.162-.729 0-.891-.675.027-1.35.054-1.971.054S16.552.293 15.553.266c-.162.162-.162.729 0 .891m16.273 5.809c0-.54.297-.783 1.134-.864l.567-.054c.108 0 .162-.054.162-.135v-.567l-.027-.054s-2.079.054-2.808.054c-.837 0-2.97-.054-2.97-.054l-.027.054v.594c0 .081.081.108.19.108l.54.054c.836.081 1.16.27 1.16.864v8.991c0 .513-.27.945-1.16 1.026l-.54.054c-.109 0-.19.054-.19.162v.567l.054.054s2.106-.054 2.862-.054c.837 0 2.89.054 2.89.054l.026-.054v-.567c0-.108-.08-.162-.162-.162l-.567-.054c-.864-.081-1.134-.432-1.134-1.026V6.966m6.941 4.995c.594 0 1.026.135 1.431.675l2.997 3.726c.378.432.405.729.405 1.08v.324l.027.027s.972-.027 1.647-.027c.756 0 2.187.027 2.187.027l.081-.027v-.567c0-.081-.108-.135-.189-.162l-.135-.027c-.54-.108-1.188-.27-1.512-.648l-4.077-4.914c-.135-.162-.243-.297-.243-.459 0-.216.162-.513.621-.999l2.322-2.673c.972-1.107 1.701-1.161 2.754-1.242.135 0 .216-.054.216-.135v-.621l-.08-.027s-1.189.054-1.89.054c-.784 0-2.97-.054-2.97-.054l-.028.027v.621c0 .081.054.108.162.135.54.081.783.324.783.54 0 .513-.837 1.512-1.917 2.7-1.188 1.269-1.7 1.728-2.592 1.728V6.966c0-.54.297-.675 1.134-.837l.297-.054c.108-.027.162-.054.162-.135v-.594l-.027-.054s-1.7.054-2.457.054c-.837 0-3.05-.054-3.05-.054l-.028.054v.621c0 .081.081.108.19.108l.54.054c.863.081 1.16.243 1.16.837v8.991c0 .513-.35.945-1.16 1.026l-.54.054c-.109 0-.19.054-.19.162v.567l.054.054s2.214-.054 2.97-.054c.81 0 2.511.054 2.511.054l.027-.054v-.567c0-.108-.08-.135-.162-.162l-.297-.054c-.783-.135-1.134-.432-1.134-1.026v-3.996M52.3 6.966c0-.54.297-.783 1.134-.864l.567-.054c.108 0 .162-.054.162-.135v-.567l-.027-.054s-2.079.054-2.808.054c-.837 0-2.97-.054-2.97-.054l-.027.054v.594c0 .081.081.108.189.108l.54.054c.837.081 1.161.27 1.161.864v8.991c0 .513-.27.945-1.161 1.026l-.54.054c-.108 0-.189.054-.189.162v.567l.054.054s2.106-.054 2.862-.054c.837 0 2.889.054 2.889.054l.027-.054v-.567c0-.108-.081-.162-.162-.162l-.567-.054c-.864-.081-1.134-.432-1.134-1.026V6.966m6.887.054c0-.702.324-.945 1.62-.945 1.485 0 2.538.513 2.538 2.835 0 2.079-.783 3.051-2.403 3.051-.54 0-1.215-.027-1.755-.243V7.02m-2.079 9.072c0 .513-.27.756-1.107.864l-.567.081c-.108.027-.162.054-.162.162v.567l.027.054s2.025-.054 2.781-.054c.837 0 2.997.054 2.997.054l.027-.054v-.567c0-.108-.081-.135-.189-.162l-.54-.081c-.864-.135-1.188-.27-1.188-.864v-3.618c.486.216 1.026.27 1.701.27 3.834 0 4.617-2.538 4.617-4.158 0-1.404-.702-3.294-4.536-3.294-.999 0-2.079.054-2.835.054-.783 0-2.376-.054-2.781-.054l-.054.027v.621c0 .054.027.135.189.135 1.269.081 1.62.108 1.62.945v9.072m16.749 1.674c.81 0 2.403.054 2.403.054l.054-.054.54-3.105-.675-.081c-.324 1.404-1.08 2.268-2.457 2.268h-2.565c-.486 0-.783-.513-.783-1.026v-4.131h2.025c.702 0 .945.297 1.053.837l.135.594c0 .081.054.135.189.135h.459l.054-.054c-.054-.621-.162-1.188-.162-1.863 0-.648.108-1.404.162-1.998 0-.054 0-.081-.054-.081h-.46c-.107 0-.161.054-.161.135l-.162.567c-.108.54-.297.864-1.053.864h-2.025V6.912c0-.459.27-.648.783-.648h2.16c1.728 0 2.24 1.431 2.538 2.43l.675-.108c-.19-1.026-.378-2.079-.405-3.24l-.054-.054s-1.917.054-2.727.054h-3.97c-.81 0-2.915-.054-2.915-.054l-.027.054v.621c0 .027 0 .081.162.108l.62.054c.757.054 1.08.162 1.08.783v8.91c0 .54-.242 1.08-1.08 1.161l-.62.054c-.135 0-.162.081-.162.135v.594l.027.054s1.863-.054 2.673-.054h4.725m4.209-.567v.567l.027.054s2.052-.054 2.862-.054c.837 0 1.782.054 3.942.054 2.997 0 6.345-1.404 6.345-6.129 0-3.591-2.214-6.399-6.723-6.399-.702 0-3.05.054-3.564.054-.486 0-2.862-.054-2.862-.054l-.027.054v.594c0 .081.081.135.19.135l.593.054c.891.081 1.08.081 1.08.783v8.91c0 .837-.27 1.08-1.08 1.161l-.62.054c-.109 0-.163.081-.163.162m3.942-1.377v-8.91c0-.675.675-.837 1.728-.837 4.536 0 5.157 3.267 5.157 6.075 0 3.78-1.674 4.887-4.644 4.887-2.052 0-2.24-.459-2.24-1.215M96.57 6.966c0-.54.297-.783 1.134-.864l.567-.054c.108 0 .162-.054.162-.135v-.567l-.027-.054s-2.08.054-2.808.054c-.837 0-2.97-.054-2.97-.054l-.027.054v.594c0 .081.08.108.189.108l.54.054c.837.081 1.16.27 1.16.864v8.991c0 .513-.27.945-1.16 1.026l-.54.054c-.108 0-.19.054-.19.162v.567l.055.054s2.106-.054 2.862-.054c.837 0 2.889.054 2.889.054l.027-.054v-.567c0-.108-.081-.162-.162-.162l-.567-.054c-.864-.081-1.134-.432-1.134-1.026V6.966m7.616 9.153c0 .54-.324.783-1.161.864l-.54.054c-.108 0-.189.081-.189.162v.567l.054.054s2.106-.054 2.862-.054c.837 0 2.889.054 2.889.054l.054-.054v-.567c0-.081-.081-.162-.189-.162l-.567-.054c-.837-.081-1.134-.27-1.134-.864v-3.753l2.97-5.238c.405-.729.54-.891 1.404-.999l.459-.054c.189-.027.189-.081.189-.135v-.594l-.027-.054c-.405.027-1.647.054-1.836.054-.27 0-1.782-.054-2.079-.054l-.054.027v.621c0 .054.027.135.108.135l.621.054c.648.054.648.081.297.729l-2.511 4.455h-.054l-2.727-4.455c-.27-.432-.378-.675.27-.729l.594-.054c.081 0 .135-.081.135-.135v-.621l-.027-.027c-.324.027-2.592.054-2.727.054-.297 0-1.971-.054-2.214-.054l-.054.054v.594c0 .108.135.135.216.135.783.081 1.215.243 1.566.81l3.402 5.589v3.645m11.714-5.994c-.595 0-.784-.081-.676-.351l2.7-6.858h.054l2.62 7.209h-4.699m-2.997 5.508l1.566-3.915c.135-.351.297-.459.945-.459h5.616l1.647 4.563c.27.756-.108 1.08-1.134 1.161l-.756.054c-.135 0-.189.081-.189.216v.513l.027.054s2.646-.054 3.591-.054c1.053 0 3.132.054 3.132.054l.081-.054v-.513c0-.135-.135-.216-.27-.216l-.297-.027c-1.08-.108-1.62-.513-1.998-1.566L119.328.81c-.216-.54-.35-.81-.729-.81-.405 0-.62.27-.918.972l-5.994 14.04c-.756 1.728-1.43 1.944-2.619 2.025-.135 0-.216.081-.216.216v.513l.054.054s1.728-.054 2.43-.054c.648 0 3.591.054 3.591.054l.054-.054v-.513a.213.213 0 00-.216-.216l-.783-.054c-.999-.081-1.35-.675-1.08-1.35" font-family="Linux Libertine O C" font-size="27" font-weight="400" letter-spacing="-.6"/>
</svg>
