<?xml version="1.0" encoding="UTF-8" standalone="no"?>
<svg xmlns="http://www.w3.org/2000/svg" width="308" height="394" overflow="visible" viewBox="0 0 308 394">
	<switch>
		<g>
			<path fill="#598cb5" d="M152.784 0C101.52.36 56.232 27 28.512 67.68h250.416C251.064 26.712 205.344 0 153.72 0h-.936z"/>
			<path fill="#2f5b97" d="M19.656 82.368C7.128 105.696 0 132.552 0 161.208c0 89.063 68.904 161.28 153.72 161.28 84.888 0 153.792-72.217 153.792-161.28 0-28.656-7.128-55.512-19.655-78.84z"/>
			<path fill="#ccd5dc" d="M28.512 67.68c-3.168 4.68-6.12 9.648-8.856 14.688h268.2c-2.736-5.04-5.688-10.008-8.929-14.688z"/>
			<path fill="#6cb7de" d="M219.384 18.072c-.647 0-1.296.144-2.016.36-6.84 10.944-6.84 47.16-6.768 55.008h.071c10.152 2.232 23.544-.36 23.977-10.008.792-12.816 1.584-25.2-5.185-33.192-6.191 2.808-5.04-8.64-7.56-11.16-.647-.72-1.51-1.008-2.519-1.008z"/>
			<path fill="#fff" d="M217.368 18.432c-3.6 1.152-7.992 4.392-10.224 5.472-1.872.216-5.4.072-7.992.72-5.616 1.44-10.729 4.896-13.68 10.296-3.816-11.088-12.024 2.52-21.744 10.368-5.328-4.032-16.2-12.168-26.136-17.352-7.92 4.032-16.344 17.712-21.312 18.864-5.184 1.008-12.456.432-15.48 4.104-5.04 5.184-6.552 11.16-7.56 16.776 11.808 4.176 24.192 4.248 36.072 2.664 6.696-1.584 11.448.648 18.36.432 21.024.864 43.704-1.728 62.928 2.664-.072-7.848-.072-44.064 6.768-55.008z"/>
			<path fill="#6cb7de" d="M147.312 40.248c2.52 7.632 4.68 15.192 3.888 22.752-.936 4.68 1.08 4.392 4.824 2.52 3.672-2.016 5.616-4.176 11.016-5.976 4.248-1.152 1.224-4.248-.72-6.336-6.048-5.688-12.528-9.288-19.008-12.96z"/>
			<path fill="#2a4c8a" d="M168.84 82.368c4.393 58.392 43.776 65.52 68.616 53.784-12.384-12.24-7.92-37.08 5.328-37.368 24.479-.648 17.496 44.856 17.496 66.96 13.392-2.736 12.528-53.064 9.647-83.376z"/>
			<path fill="#d8e2e5" d="M42.048 82.368c.504 5.04 1.008 10.08 1.44 15.048 3.24 5.904 5.688 11.808 4.968 17.712 6.408-1.584 10.224-2.376 13.68 4.104 15.048 9.36 29.304 10.44 43.416 9.072 2.88 33.912 2.016 61.128.792 101.592 8.568 14.111 17.136 27.576 25.704 41.688 4.896 8.568 13.464 11.305 20.232 1.152 5.76-2.664 11.592-5.256 17.352-7.848v8.641c8.856 2.23 17.712 5.615 13.608 14.83-3.024 5.904-1.296 8.568 7.416 4.609 7.776-3.744 12.528 2.088 16.56 3.096-5.76-6.119-.792-18.072-.647-30.457 8.28-.719 17.64-8.207 25.92-8.928 16.92-16.416 19.872-22.463 19.872-43.631 1.656-5.473 4.104-6.912 2.88-16.489.936-5.832 2.304-13.608 3.24-19.439.72-3.888 1.296-7.704 1.943-11.376h-.144c0-22.104 6.983-67.608-17.496-66.96-13.248.288-17.712 25.128-5.328 37.368-2.88 1.368-5.976 2.448-9.144 3.24 1.008 5.76-3.168 11.664-8.641 11.952-5.472-.504-13.536 4.896-18.576 17.28-8.136 17.064-15.552 2.232-18.575-2.376-3.816-5.04.863-9.72-9.576-6.696-6.912 2.16-15.624 3.528-17.712-6.84-8.856-8.928-17.28-16.704-26.136-25.632-3.528-4.176-.576-7.632-.576-9.072v-.288c0-.072-.072-.072-.072-.072v-.072h-.072c0-.072 0-.072-.072-.072 0-.072 0-.072-.072-.072 0 0 0-.072-.072-.072h-.072c-3.456-2.16-7.632.432-12.168 2.304-11.88 2.16-16.56.072-17.856-6.192.072-10.296-5.76-9.216-15.264-7.776-27.504 3.888-31.896-5.76-39.888-23.328z"/>
			<path fill="#3f8cbf" d="M42.912 82.368c7.992 17.568 12.384 27.216 39.888 23.328 9.504-1.44 15.336-2.52 15.264 7.776 1.296 6.264 5.976 8.352 17.856 6.192 4.536-1.872 8.712-4.464 12.168-2.304h.072c.072 0 .072.072.072.072.072 0 .072 0 .072.072.072 0 .072 0 .072.072h.072v.072s.072 0 .072.072v.288c0 1.44-2.952 4.896.576 9.072 8.856 8.928 17.28 16.704 26.136 25.632 2.088 10.368 10.8 9 17.712 6.84 10.439-3.024 5.76 1.656 9.576 6.696 3.023 4.608 10.439 19.44 18.575 2.376 5.04-12.384 13.104-17.784 18.576-17.28 5.473-.288 9.648-6.192 8.641-11.952-24.336 6.192-55.584-5.4-59.473-57.024z"/>
			<path fill="#ccd5dc" d="M125.208 149.472c-7.92.504-3.816 26.784-2.952 39.312 1.152 12.239 3.96 9.36 12.528 4.032 3.96 7.993 1.584 12.456-4.032 17.641-4.176 3.887-6.552 9.791-2.952 16.488 1.08 1.871 2.016 2.662 3.312 5.543a322.684 322.684 0 002.592 5.111c1.008 3.816-.144 6.193-1.8 8.209-1.584 2.232-1.872 4.393.144 10.512 1.08 3.527-1.872 7.703 2.736 11.447 2.088 1.584 4.104 2.736 6.12 3.602-1.8-5.113-1.8-12.602-.936-19.01.576-6.047 1.008-9.863 6.552-13.967 4.824-2.447 3.456-15.48 3.888-23.256.072.072.144.072.144.145 0-.072.072-.072 0-.145 10.368-2.16 4.608-10.439 1.44-18.361l-25.344-47.16c-.504-.144-.936-.216-1.368-.144l-.072.001z"/>
			<path fill="#598cb5" d="M126.648 149.616l25.344 47.16c3.168 7.921 8.928 16.201-1.44 18.361.936 5.543 7.848 10.367 15.48 9.719 7.92-.504 13.68 5.328 16.271 11.305.36-6.553 1.152-13.104 2.736-19.512 1.08-3.168 6.84-5.977 2.017-10.225-19.513-21.456-38.376-38.231-59.473-56.447a4.902 4.902 0 00-.935-.361z"/>
			<path fill="#216c9d" d="M150.408 215.136c-.432 7.775.936 20.809-3.888 23.256-5.544 4.104-5.976 7.92-6.552 13.967-.864 6.408-.864 13.896.936 19.08 1.872.793 3.744 1.297 5.688 1.656 3.384.289 5.472 1.08 12.6-.215 6.191-.721 9.864-3.672 16.992-4.752 3.815-.793 6.479-2.232 6.264-8.137-.288-7.992-.576-15.912-.145-23.832-2.592-5.977-8.352-11.809-16.271-11.305-7.56.576-14.4-4.104-15.408-9.504v-.07c-.072-.072-.144-.072-.216-.144z"/>
			<path fill="#598cb5" d="M254.521 207.359c-.648 1.801-1.44 3.385-2.16 5.689 0 21.168-2.952 27.215-19.872 43.631-.145 0-4.968 11.377-9.145 14.328-6.911 5.113-6.479 9.721-9.071 15.336-1.872 2.809-4.464 3.24-6.336 2.736-1.152-.936-2.305-1.367-3.528-2.736-.072 2.305.144 4.393.72 6.193 0 .07.072.07.072.143.288.721.648 1.369.936 2.018 0 .07 0 .07.072.07.288.434.576.865.937 1.297-.072-.072-.217-.072-.288-.145 7.056 11.377 17.136 14.904 30.023 10.439 6.984-3.023 11.017-5.76 15.336-9 3.744-3.6 8.208-10.223 1.152-10.654-1.008-.289-1.512-.504-1.8-.793 0 0-.072 0-.072-.072l-.072-.072c0-.07-.071-.143-.071-.215v-.144c0-1.008 1.943-2.447.432-5.4-1.008-4.463 3.312-8.639 6.336-9.791-2.088-4.609-4.176-9.217-6.336-13.752.144-3.025 6.12-4.609 5.184-10.225 1.726-14.184 4.03-35.137-2.449-38.881z"/>
			<path fill="#216c9d" d="M216.504 151.632c-5.111 1.368-11.231 6.84-15.408 16.992-1.943 4.032-3.815 6.264-5.615 7.272.216 17.496 4.392 29.879 12.96 36.721-2.521 10.08-5.04 23.975-.433 32.398-7.848-2.447-4.68 13.176-6.983 19.801-3.889 10.943-7.345 10.512-11.017 11.447 3.385 3.816 7.704 7.85 14.185 10.225 0 0-.072.072 0 .072 0 .072 0 .145.071.145.505.791 2.664 1.584 3.673 2.375 1.872.504 4.464.072 6.336-2.736 2.592-5.615 2.16-10.223 9.071-15.336 4.032-2.951 8.784-13.824 9.145-14.328-13.752-7.703-20.232-22.32-18-36.504.576-3.887 3.168-8.207-.288-14.471-4.105-17.281-1.441-37.369 2.303-54.073z"/>
			<path fill="#1f1a17" d="M27.144 370.511c0-.646-.144-1.223-.504-1.871-.36-.648-.792-.936-1.296-.936-1.008 0-1.728.576-2.016 1.799.072 2.305.72 3.529 1.944 3.529 1.224.001 1.872-.865 1.872-2.521zm19.8-8.783a21.62 21.62 0 01.216 3.096c0 3.313-.576 5.977-1.8 7.848h3.6v-10.367c-.144 0-.36-.072-.648-.145-.576-.073-1.008-.287-1.368-.432zm-6.696-10.152v-.217c0-3.672 1.512-6.768 4.392-9.287 2.88-2.375 6.264-3.527 10.08-3.385 3.744.072 6.984 1.297 9.72 3.744 2.736 2.377 4.104 5.4 4.104 8.928v28.945h-8.208v-27c0-4.537-1.872-6.768-5.76-6.768-4.32 0-6.48 1.512-6.48 4.535 0 1.297.288 2.305.864 3.096v-2.951h8.784v29.088H34.776v-7.633h2.016a3.535 3.535 0 001.8-2.375c.216-.793.288-2.232.288-4.32 0-2.232-.504-4.248-1.584-5.904-1.152-1.943-2.664-2.881-4.464-2.881-4.248 0-7.128 1.656-8.712 5.113 1.296-.793 2.52-1.225 3.672-1.225 2.592 0 4.536 1.152 5.76 3.385.792 1.439 1.152 3.168 1.152 5.111 0 3.24-.792 5.977-2.448 8.209-1.872 2.447-4.392 3.672-7.416 3.672-3.096 0-5.472-1.369-7.272-4.248-1.728-2.664-2.592-6.049-2.592-10.225 0-5.184 1.584-9.359 4.752-12.455 3.168-3.17 7.488-4.754 12.96-4.754 2.88.001 5.4.577 7.56 1.802zm57.096-7.057c0 1.369-.576 2.594-1.728 3.602-1.152 1.008-2.376 1.512-3.816 1.512-1.512 0-2.736-.432-3.744-1.297-1.008-.863-1.512-1.943-1.512-3.313 0-1.727.504-3.096 1.512-4.248 1.08-1.078 2.304-1.654 3.816-1.654 1.584 0 2.88.432 3.888 1.367 1.08.935 1.584 2.304 1.584 4.031zm12.312 25.488c0 3.816-1.08 6.625-3.312 8.352-1.512 1.297-3.672 2.09-6.408 2.377-1.296.145-2.664.287-4.032.432v-7.631c2.592.287 3.96-.434 3.96-2.16 0-1.369-1.368-2.088-3.96-2.088v1.871c0 2.953-1.08 5.256-3.24 6.984-2.16 1.729-5.04 2.592-8.64 2.592-4.968 0-8.28-1.152-9.936-3.527-1.152-1.512-1.656-4.176-1.656-7.992 0-3.529 1.584-5.977 4.752-7.201v-10.727h27.504v7.703h-8.784v2.305h4.896c5.904-.001 8.856 2.951 8.856 8.71zm-22.824-8.711v-2.305h-2.088v2.305zm0 9.287v-1.295h-3.24c-1.8 0-2.736.646-2.736 1.871 0 1.512.936 2.305 2.664 2.305 2.16 0 3.312-.935 3.312-2.881zm63.504-.214c0 3.744-1.152 6.551-3.384 8.424-1.512 1.223-3.672 2.016-6.48 2.303-1.368.145-2.736.217-4.104.361v-7.705c2.664.145 4.032-.504 4.032-2.016 0-1.225-.504-1.943-1.512-2.16-.144-.072-1.08-.072-2.808-.072v2.088c0 2.881-1.152 5.113-3.456 6.84-2.304 1.729-5.256 2.592-9 2.592-4.536 0-7.704-1.15-9.504-3.455-1.368-1.801-2.088-4.465-2.088-8.137 0-3.455 1.728-5.902 5.184-7.199V351.29h11.232v-1.801c0-2.736.936-4.896 2.88-6.48 1.944-1.656 4.536-2.447 7.848-2.447 3.24 0 5.832.791 7.776 2.305 1.944 1.512 2.88 3.672 2.88 6.336v11.664h-8.136v-10.514c0-1.584-.936-2.375-2.736-2.375-1.44 0-2.232.721-2.232 2.232v1.08h3.888v7.631h-4.536v2.592h5.328c2.808 0 4.968.721 6.552 2.305 1.584 1.51 2.376 3.67 2.376 6.551zm-23.328-8.641v-2.592h-2.16v2.592zm0 9.145v-1.369h-3.24c-1.8 0-2.664.721-2.664 2.016 0 1.441.792 2.16 2.52 2.16 2.232-.001 3.384-.936 3.384-2.807zm84.528-5.832c0 5.975-1.656 10.295-4.968 12.887-2.232 1.729-4.968 2.592-8.28 2.664-.792 4.033-3.6 7.273-8.28 9.648-4.248 2.232-9.144 3.385-14.688 3.385-6.48 0-11.809-2.018-15.912-5.904-4.32-4.104-6.48-9.576-6.48-16.488 0-4.248.936-7.775 2.736-10.656 2.304-3.527 5.616-5.328 9.937-5.328 2.376 0 4.319.721 5.832 2.16 1.728 1.512 2.52 3.672 2.52 6.336 0 2.592-.792 4.68-2.52 6.408-1.656 1.656-3.816 2.52-6.553 2.52-1.512 0-2.808-.215-3.815-.576.288 5.328 2.52 9.145 6.695 11.521 2.521 1.512 5.04 2.23 7.561 2.23 6.983 0 11.448-1.727 13.176-5.256h-13.68v-29.375h8.928v21.096h4.968v-21.096h13.032c2.88 0 5.256 1.439 7.128 4.32 1.799 2.734 2.663 5.832 2.663 9.504zm-45.143-1.008c0-1.297-.576-1.945-1.656-1.945-1.152 0-1.944.648-2.521 1.945.433 1.439 1.225 2.158 2.305 2.158 1.223 0 1.872-.719 1.872-2.158zm36.287 1.511c0-4.248-1.584-6.408-4.68-6.408v13.176c3.096 0 4.68-2.232 4.68-6.768zm50.76-1.08c0 5.039-1.152 9.072-3.456 12.096-2.305 3.096-5.473 4.607-9.576 4.607-2.232 0-4.176-.648-5.832-1.871-1.728-1.369-2.592-3.096-2.592-5.184v-12.24c0-1.225-.433-2.232-1.296-2.953a3.924 3.924 0 00-2.809-1.152c-2.592 0-4.68 1.441-6.191 4.248 1.008-.719 2.16-1.08 3.456-1.08 1.872 0 3.384.938 4.392 2.881.792 1.656 1.224 3.672 1.224 6.049 0 2.951-.863 5.471-2.447 7.631-1.801 2.305-3.96 3.457-6.696 3.457-5.4 0-8.064-4.32-8.064-13.033 0-11.52 5.185-17.279 15.696-17.279 3.528 0 6.192.791 8.064 2.447 1.8 1.584 2.735 3.816 2.735 6.697v11.16c0 1.15.576 1.727 1.729 1.727 2.16 0 3.24-2.303 3.24-6.912 0-1.295-.288-2.664-.721-3.959-.432-1.369-1.008-2.016-1.655-2.016h-1.584v-8.568h3.312c2.736 0 4.968 1.439 6.696 4.248 1.583 2.591 2.375 5.615 2.375 8.999zm-29.304 6.84c0-2.232-.504-3.313-1.584-3.313-.863 0-1.439.072-1.8.217-.144 1.799-.144 2.951 0 3.6.145 1.08.576 1.656 1.368 1.656.504 0 1.008-.217 1.44-.721.36-.431.576-.935.576-1.439zm56.952-28.08c0 1.584-.504 2.879-1.655 4.031-1.08 1.08-2.448 1.656-4.032 1.656-1.513 0-2.88-.576-3.96-1.656-1.152-1.152-1.729-2.447-1.729-4.031 0-1.439.576-2.736 1.729-3.889 1.151-1.223 2.447-1.799 3.96-1.799 1.584 0 2.952.576 4.032 1.654 1.151 1.081 1.655 2.45 1.655 4.034zm13.032 21.24c0 6.119-1.728 10.584-5.184 13.248-2.305 1.727-5.112 2.664-8.425 2.664h-23.184v-29.232h9v20.809h5.04v-20.664l12.744-.072c3.023 0 5.472 1.439 7.416 4.176 1.729 2.591 2.593 5.614 2.593 9.071zm-9.36 0c0-3.24-1.296-5.113-3.96-5.689v13.178c2.664-.145 3.96-2.594 3.96-7.489z"/>
		</g>
	</switch>
</svg>
