<?xml version="1.0" encoding="UTF-8" standalone="no"?>
<svg xmlns="http://www.w3.org/2000/svg" width="347" height="43" version="1.0">
	<g font-family="DejaVu Sans" font-size="56" font-weight="700">
		<path fill="#282828" d="M0 .766h10.09l7.055 29.668 7-29.668h10.144l7 29.668L48.344.766h10.008L48.727 41.59H36.586l-7.41-31.035-7.328 31.035H9.707zm65.27 0h10.527V41.59H65.27zm20.89 0h10.528v14.902L111.863.766h12.223l-19.66 19.332 21.683 21.492h-13.18l-16.24-16.078V41.59H86.16zm43.422 0h10.527V41.59h-10.527z"/>
		<path fill="#515151" d="M166.351 16.543c1.659 0 2.917-.365 3.774-1.094.856-.729 1.285-1.804 1.285-3.226 0-1.404-.429-2.475-1.285-3.213-.857-.738-2.115-1.108-3.774-1.108h-5.824v8.641zm.356 17.855c2.114 0 3.705-.446 4.771-1.34 1.067-.893 1.6-2.242 1.6-4.046 0-1.768-.529-3.095-1.586-3.979-1.057-.884-2.653-1.326-4.785-1.326h-6.18v10.691zm9.789-14.683c2.26.656 4.01 1.868 5.25 3.637 1.24 1.768 1.86 3.937 1.86 6.507 0 3.938-1.332 6.873-3.993 8.805-2.662 1.932-6.708 2.899-12.14 2.899H150V.738h15.804c5.67 0 9.776.857 12.319 2.57 2.543 1.714 3.814 4.458 3.814 8.231 0 1.987-.465 3.678-1.394 5.072-.93 1.395-2.28 2.43-4.047 3.104zm30.808-12.086c-3.208 0-5.696 1.185-7.465 3.555-1.768 2.37-2.652 5.705-2.652 10.007 0 4.284.884 7.611 2.652 9.98 1.769 2.37 4.257 3.556 7.465 3.556 3.227 0 5.724-1.185 7.493-3.555 1.768-2.37 2.652-5.697 2.652-9.98 0-4.303-.884-7.639-2.652-10.008-1.769-2.37-4.266-3.555-7.493-3.555zm0-7.629c6.563 0 11.703 1.878 15.422 5.633 3.719 3.755 5.578 8.941 5.578 15.558 0 6.6-1.86 11.776-5.578 15.532-3.719 3.755-8.86 5.632-15.422 5.632-6.544 0-11.68-1.877-15.408-5.632-3.728-3.756-5.592-8.933-5.592-15.532 0-6.617 1.864-11.803 5.592-15.558C195.624 1.878 200.76 0 207.304 0zm43.578 7.629c-3.208 0-5.696 1.185-7.464 3.555-1.769 2.37-2.653 5.705-2.653 10.007 0 4.284.884 7.611 2.653 9.98 1.768 2.37 4.256 3.556 7.464 3.556 3.227 0 5.724-1.185 7.493-3.555 1.768-2.37 2.652-5.697 2.652-9.98 0-4.303-.884-7.639-2.652-10.008-1.769-2.37-4.266-3.555-7.493-3.555zm0-7.629c6.563 0 11.704 1.878 15.422 5.633 3.719 3.755 5.578 8.941 5.578 15.558 0 6.6-1.859 11.776-5.578 15.532-3.718 3.755-8.86 5.632-15.422 5.632-6.544 0-11.68-1.877-15.408-5.632-3.728-3.756-5.592-8.933-5.592-15.532 0-6.617 1.864-11.803 5.592-15.558C239.202 1.878 244.338 0 250.882 0zm24.93.738h10.527v14.903L301.515.738h12.223l-19.66 19.332 19.683 21.493h-11.18L286.34 25.484v16.079h-10.527zm67.832 1.285v8.641c-2.242-1.003-4.43-1.759-6.562-2.27-2.133-.51-4.147-.765-6.043-.765-2.516 0-4.375.346-5.578 1.039-1.204.693-1.805 1.768-1.805 3.227 0 1.093.405 1.946 1.217 2.556.81.61 2.283 1.135 4.416 1.572l4.484.903c4.54.911 7.766 2.297 9.68 4.156 1.914 1.86 2.87 4.503 2.87 7.93 0 4.502-1.334 7.852-4.005 10.049-2.67 2.196-6.75 3.294-12.236 3.294a41.92 41.92 0 01-7.793-.738 48.235 48.235 0 01-7.82-2.187v-8.887c2.606 1.385 5.126 2.429 7.56 3.13 2.434.703 4.78 1.054 7.041 1.054 2.297 0 4.056-.383 5.277-1.149 1.222-.765 1.832-1.86 1.832-3.281 0-1.276-.414-2.26-1.244-2.953-.83-.693-2.484-1.313-4.963-1.86l-4.074-.902c-4.083-.875-7.068-2.27-8.955-4.184-1.887-1.914-2.83-4.493-2.83-7.738 0-4.065 1.312-7.191 3.937-9.379C320.675 1.094 324.45 0 329.37 0c2.243 0 4.549.169 6.919.506a63.32 63.32 0 017.355 1.517z"/>
	</g>
</svg>
