<?xml version="1.0" encoding="UTF-8" standalone="no"?>
<svg xmlns="http://www.w3.org/2000/svg" width="197" height="86" version="1.0">
	<g font-family="Lohit Telugu" font-weight="400" letter-spacing="0" word-spacing="0">
		<g font-size="48" style="line-height:125%;-inkscape-font-specification:'Lohit Telugu';text-align:start">
			<path d="M38.865 20.719c0 .844.297 1.578.89 2.203.594.594 1.328.89 2.203.89.844 0 1.547-.296 2.11-.89.594-.625.89-1.36.89-2.203 0-.844-.296-1.563-.89-2.157a2.72 2.72 0 00-2.11-.937c-.875 0-1.609.313-2.203.938a2.937 2.937 0 00-.89 2.156m-3 16.968c0 .844.297 1.579.89 2.204.594.593 1.328.89 2.203.89.844 0 1.547-.297 2.11-.89.594-.625.89-1.36.89-2.204 0-.874-.296-1.593-.89-2.156-.563-.593-1.266-.89-2.11-.89-.875 0-1.609.297-2.203.89-.593.563-.89 1.282-.89 2.157m-2.485 0c0-1.5.547-2.782 1.641-3.844 1.094-1.094 2.406-1.64 3.937-1.64 1.188 0 2.297.437 3.329 1.312 1.062.843 1.859 1.984 2.39 3.421a4.74 4.74 0 001.781 2.344 5.185 5.185 0 002.86.844c1.531 0 2.844-.938 3.937-2.813 1.094-1.906 1.64-4.218 1.641-6.937 0-2.875-.734-5.375-2.203-7.5-1.469-2.125-3.313-3.39-5.531-3.797l-.141.234c.156.25.266.5.328.75.094.25.14.47.14.657 0 1.5-.546 2.797-1.64 3.89-1.094 1.063-2.39 1.594-3.89 1.594-1.532 0-2.844-.531-3.938-1.594-1.063-1.093-1.594-2.39-1.594-3.89 0-1.531.625-2.828 1.875-3.89 1.281-1.095 2.813-1.641 4.594-1.642 4.125 0 7.656 1.485 10.594 4.454 2.937 2.968 4.406 6.547 4.406 10.734 0 3.563-.844 6.594-2.531 9.094-1.657 2.5-3.672 3.75-6.047 3.75a6.063 6.063 0 01-3.094-.844 6.735 6.735 0 01-2.25-2.344l-.14.094c-.344.906-.97 1.656-1.876 2.25-.875.562-1.875.844-3 .844-1.53 0-2.843-.547-3.937-1.64-1.094-1.095-1.64-2.392-1.64-3.892m32.015-11.062c0 .938.594 1.734 1.781 2.39 1.188.657 2.64.985 4.36.985 2.53 0 4.703.64 6.515 1.922 1.813 1.25 2.719 2.765 2.719 4.547 0 1.875-.938 3.468-2.813 4.781-1.843 1.313-4.093 1.969-6.75 1.969a14.34 14.34 0 01-5.953-1.266 13.182 13.182 0 01-4.687-3.562l2.11-2.11a10.793 10.793 0 003.796 2.86c1.5.656 3.078.984 4.734.984 1.813 0 3.344-.344 4.594-1.031 1.281-.719 1.922-1.594 1.922-2.625 0-1.094-.703-2.032-2.11-2.813-1.374-.781-3.03-1.172-4.968-1.172-2.313 0-4.281-.562-5.906-1.687-1.594-1.156-2.39-2.547-2.39-4.172 0-.937.312-1.844.937-2.719.656-.875 1.546-1.593 2.671-2.156a9.243 9.243 0 01-.703-.234 3.58 3.58 0 01-.75-.516l1.453-2.531c.625.469 1.375.844 2.25 1.125.907.25 1.891.375 2.954.375 1.406 0 2.609-.422 3.609-1.266 1-.844 1.5-1.875 1.5-3.094l-.281-.234c-.532.563-1.219 1-2.063 1.312-.812.313-1.734.47-2.765.47-1.97 0-3.657-.485-5.063-1.454-1.406-.969-2.11-2.125-2.11-3.469 0-.812.298-1.562.891-2.25.594-.718 1.391-1.218 2.391-1.5V8.25a3.427 3.427 0 01-1.828-1.266 3.591 3.591 0 01-.656-2.109c0-1.344.625-2.484 1.875-3.422C67.912.484 69.412 0 71.162 0c1.937 0 3.562.563 4.875 1.688 1.343 1.093 1.937 2.375 1.78 3.843h-3.28c0-.843-.344-1.562-1.032-2.156-.656-.594-1.437-.89-2.343-.89-.875 0-1.625.234-2.25.703-.625.468-.938 1.03-.938 1.687 0 .594.313 1.14.938 1.64.625.47 1.406.766 2.343.891 2.25.313 4.11 1.172 5.578 2.578 1.5 1.375 2.25 2.954 2.25 4.735a7.993 7.993 0 01-.89 3.703 7.827 7.827 0 01-2.485 2.86c.75.25 1.47.562 2.157.937a10.8 10.8 0 011.968 1.312l-1.5 2.719a10.619 10.619 0 00-3.468-1.969 10.992 10.992 0 00-3.89-.703c-1.532 0-2.845.297-3.938.89-1.094.595-1.641 1.313-1.641 2.157m1.734-14.39c0 .687.391 1.265 1.172 1.734.813.437 1.766.656 2.86.656.968 0 1.796-.219 2.484-.656.719-.469 1.078-1.047 1.078-1.735 0-.656-.36-1.218-1.078-1.687-.688-.5-1.516-.75-2.484-.75-1.094 0-2.047.25-2.86.75-.781.469-1.172 1.031-1.172 1.687m32.625 27.891c1.688 0 3.14-.984 4.36-2.953 1.218-1.969 1.828-4.36 1.828-7.172 0-.719-.078-1.437-.235-2.156a11.16 11.16 0 00-.609-2.157h-5.86c-.843 0-1.562.297-2.156.891-.562.594-.843 1.313-.843 2.156h-2.11c0-.843-.28-1.562-.843-2.156-.532-.594-1.172-.89-1.922-.89h-2.203c-.563 0-1.063.234-1.5.703-.407.468-.61 1.047-.61 1.734h-3.14c.25-1.406.828-2.562 1.734-3.469.906-.937 1.937-1.406 3.094-1.406h2.718c.875 0 1.641.14 2.297.422.657.25 1.11.61 1.36 1.078h.187c.25-.469.688-.828 1.313-1.078.625-.281 1.375-.422 2.25-.422h4.968c-1.312-1.875-3.046-3.344-5.203-4.406-2.125-1.094-4.422-1.64-6.89-1.64V14.53c3.281 0 6.297.782 9.047 2.344 2.75 1.563 4.843 3.688 6.28 6.375h4.782l2.016.14.187-.187a3.077 3.077 0 01-.844-1.078 3.093 3.093 0 01-.28-1.313c0-1.374.484-2.53 1.452-3.468.97-.969 2.125-1.453 3.47-1.453 1.5 0 2.75.547 3.75 1.64 1.03 1.094 1.483 2.39 1.358 3.89h-2.53c0-.843-.25-1.562-.75-2.155-.5-.594-1.11-.891-1.829-.891-.687 0-1.281.234-1.781.703-.469.469-.703 1.047-.703 1.734 0 .563.25 1.079.75 1.547.5.47 1.125.766 1.875.891 1.53.281 2.797.953 3.797 2.016 1.03 1.03 1.546 2.187 1.546 3.468 0 1.5-.546 2.797-1.64 3.891-1.063 1.063-2.344 1.594-3.844 1.594-1.531 0-2.844-.532-3.937-1.594-1.063-1.094-1.594-2.39-1.594-3.89 0-.688.078-1.297.234-1.829.188-.531.438-.937.75-1.218l-.047-.188-2.11.188H108.1c.188.625.328 1.28.422 1.968.094.657.14 1.344.14 2.063 0 3.719-.874 6.906-2.624 9.562-1.72 2.625-3.813 3.938-6.282 3.938-1.53 0-2.906-.532-4.125-1.594-1.187-1.063-1.922-2.406-2.203-4.031-.219-1.219-.656-2.219-1.312-3-.625-.813-1.328-1.219-2.11-1.219-.875 0-1.625.406-2.25 1.219-.593.781-.89 1.718-.89 2.812 0 .719.187 1.5.562 2.344.375.844.938 1.703 1.688 2.578l-2.813 1.36c-.812-.97-1.437-1.985-1.875-3.047-.406-1.094-.61-2.172-.61-3.235 0-1.875.595-3.468 1.782-4.781 1.219-1.312 2.688-1.969 4.406-1.969 1.407 0 2.64.5 3.703 1.5 1.094 1 1.782 2.266 2.063 3.797.219 1.219.703 2.219 1.453 3 .75.781 1.594 1.172 2.531 1.172m15.047-11.39c0 .843.297 1.578.89 2.202a2.94 2.94 0 002.157.891c.844 0 1.563-.297 2.156-.89.594-.625.89-1.36.89-2.204 0-.843-.296-1.562-.89-2.156a2.937 2.937 0 00-2.156-.89c-.844 0-1.562.296-2.156.89a2.937 2.937 0 00-.89 2.156m14.201 3.142c0 2.281.782 4.234 2.344 5.86 1.563 1.593 3.453 2.39 5.672 2.39 2.187 0 4.047-.797 5.578-2.39 1.563-1.626 2.344-3.579 2.344-5.86 0-2.312-.781-4.266-2.344-5.86-1.531-1.624-3.39-2.437-5.578-2.437-2.219 0-4.11.813-5.672 2.438-1.562 1.593-2.344 3.547-2.344 5.859m-3.047 0c0-1.906.47-3.687 1.407-5.344a10.81 10.81 0 013.89-3.984 4.246 4.246 0 01-2.015-1.688c-.5-.78-.75-1.656-.75-2.625 0-.656.187-1.265.562-1.828.406-.562.938-1 1.594-1.312a4.684 4.684 0 01-2.063-1.828 5 5 0 01-.75-2.672c0-1.438.547-2.672 1.641-3.703 1.094-1.032 2.406-1.547 3.938-1.547h15.75v3.093h-15.75c-.688 0-1.282.25-1.782.75a2.301 2.301 0 00-.703 1.688c0 .688.235 1.266.703 1.734.5.47 1.094.704 1.782.704h9.609v3.046h-9.61c-.5 0-.937.188-1.312.563-.344.344-.516.781-.516 1.312 0 .5.172.938.516 1.313.375.344.813.516 1.313.515h6.89v1.407c2.313.687 4.188 2.031 5.625 4.031 1.438 2 2.156 4.234 2.156 6.703 0 3.031-1.093 5.625-3.28 7.781-2.157 2.157-4.75 3.235-7.782 3.235-3.063 0-5.672-1.11-7.828-3.328-2.156-2.22-3.235-4.891-3.235-8.016"/>
			<path d="M140.443 52.688c0-1.72.547-3.188 1.64-4.407 1.063-1.187 2.36-1.781 3.891-1.781 1.25 0 2.39.437 3.422 1.313 1 .874 1.687 1.984 2.062 3.328.282 1.156.829 2.093 1.641 2.812.813.75 1.719 1.125 2.719 1.125 1.5 0 2.781-1.312 3.844-3.937 1.062-2.594 1.593-5.75 1.593-9.47 0-4.187-1.078-7.765-3.234-10.734-2.156-3-4.766-4.5-7.828-4.5l1.078-3.421c3.594 0 6.656 1.828 9.187 5.484 2.563 3.625 3.844 8 3.844 13.125 0 4.562-.86 8.453-2.578 11.672-1.719 3.219-3.812 4.828-6.281 4.828-1.469 0-2.797-.484-3.985-1.453-1.156-.969-1.953-2.235-2.39-3.797-.25-.969-.656-1.766-1.219-2.39-.594-.594-1.219-.891-1.875-.891-.687 0-1.266.297-1.734.89-.5.594-.75 1.328-.75 2.203 0 .75.203 1.5.61 2.25.374.75.905 1.438 1.593 2.063l-2.344 1.828a7.892 7.892 0 01-2.156-2.812 7.727 7.727 0 01-.75-3.329"/>
		</g>
		<g font-size="22" style="line-height:125%;-inkscape-font-specification:'Lohit Telugu'">
			<path d="M8.766 75.121c.616 0 1.145-.35 1.59-1.052.443-.717.665-1.576.665-2.579 0-1.117-.329-2.07-.988-2.857-.659-.788-1.454-1.182-2.385-1.182l.58-1.439c1.16 0 2.142.537 2.944 1.611.816 1.06 1.224 2.35 1.224 3.867 0 1.39-.358 2.579-1.074 3.567-.702.988-1.554 1.482-2.556 1.482-.845 0-1.576-.265-2.192-.795-.616-.53-.96-1.181-1.031-1.955-.043-.487-.2-.902-.473-1.246-.272-.344-.58-.515-.924-.515-.444 0-.816.2-1.117.601-.3.387-.45.852-.45 1.397 0 .286.085.616.257.988.172.358.422.73.752 1.117l-1.29.623a5.63 5.63 0 01-.859-1.353 3.74 3.74 0 01-.279-1.375c0-.931.287-1.726.86-2.385.587-.659 1.296-.988 2.126-.988.688 0 1.282.243 1.784.73.515.487.809 1.096.88 1.826a2.12 2.12 0 00.624 1.375c.386.358.83.537 1.332.537M3.05 66.98v-1.397h1.912c.23 0 .422-.093.58-.279.172-.2.258-.437.258-.709a.948.948 0 00-.258-.666.793.793 0 00-.623-.3H0V62.23h2.385l.773.043.022-.108a1.523 1.523 0 01-.451-.558 1.61 1.61 0 01-.15-.688c0-.616.228-1.138.687-1.568a2.392 2.392 0 011.697-.666c.687 0 1.26.265 1.719.795.458.53.666 1.16.623 1.89H6.166a1.249 1.249 0 00-.322-.966 1.079 1.079 0 00-.881-.43c-.344 0-.637.093-.881.28-.243.171-.365.379-.365.622 0 .373.122.695.365.967.244.258.537.387.88.387.66 0 1.218.229 1.677.687.472.459.709 1.017.709 1.676s-.23 1.225-.688 1.697a2.255 2.255 0 01-1.654.688H3.05m8.186 13.3c0 .4.136.73.409.988.272.272.601.408.988.408s.716-.136.988-.408c.272-.258.408-.587.408-.988 0-.387-.136-.717-.408-.989a1.346 1.346 0 00-.988-.408c-.387 0-.716.136-.988.408a1.346 1.346 0 00-.409.989m-1.138 0c0-.688.25-1.282.752-1.784a2.391 2.391 0 011.783-.752 2.81 2.81 0 011.611.495c.487.343.838.794 1.053 1.353.243.63.58 1.132 1.01 1.504.444.387.902.58 1.375.58.63 0 1.16-.23 1.59-.687.443-.459.665-1.01.666-1.655 0-.515-.28-1.146-.838-1.89-.545-.745-1.325-1.547-2.342-2.407-.917-.759-1.633-1.56-2.149-2.406-.5-.86-.752-1.683-.752-2.47 0-.932.33-1.726.989-2.385a3.25 3.25 0 012.384-.989c.817 0 1.526.316 2.127.946.616.63.967 1.403 1.053 2.32l-1.01.258c-.171-.63-.458-1.139-.859-1.526-.401-.4-.838-.601-1.31-.601a2.1 2.1 0 00-1.483.58 1.87 1.87 0 00-.602 1.396c0 .573.251 1.232.752 1.977.502.73 1.21 1.475 2.127 2.234 1.046.888 1.855 1.748 2.428 2.579.587.845.881 1.597.881 2.255 0 1.003-.358 1.848-1.074 2.536-.702.701-1.561 1.052-2.578 1.052-.502 0-.989-.15-1.461-.45a3.285 3.285 0 01-1.117-1.183l-.13.022a2.266 2.266 0 01-.902 1.16c-.43.3-.91.451-1.44.451-.701 0-1.295-.25-1.782-.752a2.367 2.367 0 01-.752-1.761M29.95 76.54a2.33 2.33 0 01-1.247-.344 1.905 1.905 0 01-.773-.946l-.108.043c-.143.373-.408.673-.795.903a2.37 2.37 0 01-1.267.343c-.788 0-1.454-.272-1.998-.816a2.692 2.692 0 01-.817-1.977c0-.229.036-.45.108-.666.071-.229.179-.43.322-.601l-.15-.15h-2.256v-1.397h4.49v.967c-.33.129-.602.358-.816.687-.2.33-.301.716-.301 1.16 0 .387.136.717.408.989a1.46 1.46 0 001.01.386c.386 0 .716-.129.988-.386.272-.272.408-.602.408-.989v-.859h1.397v.86c0 .386.136.716.408.988.272.257.601.386.988.386.66 0 1.225-.343 1.697-1.03.473-.688.71-1.52.71-2.493 0-1.117-.38-2.098-1.14-2.943a4.332 4.332 0 00-2.814-1.461h-5.37v-1.418h14.265c.86 0 1.59.279 2.191.838.602.544.903 1.203.903 1.976 0 .702-.251 1.304-.752 1.805a2.367 2.367 0 01-1.762.752 2.46 2.46 0 01-1.805-.752 2.461 2.461 0 01-.752-1.805c0-.286.036-.544.108-.773.086-.244.2-.451.343-.623l-.064-.15-1.096.15h-3.093a5.51 5.51 0 011.632 1.955c.401.773.602 1.59.602 2.449 0 1.375-.373 2.542-1.117 3.502-.73.96-1.626 1.44-2.686 1.44m6.531-7.95c0 .401.136.738.409 1.01.272.258.601.387.988.387s.716-.13.988-.387c.272-.272.408-.609.408-1.01 0-.387-.136-.716-.408-.988a1.346 1.346 0 00-.988-.408c-.387 0-.716.136-.988.408a1.346 1.346 0 00-.409.988m1.204 9.647h4.06c-.673.558-1.189 1.131-1.547 1.718-.372.588-.558 1.132-.558 1.633 0 .315.114.58.343.795.215.23.48.344.795.344.473 0 .874-.222 1.203-.666.344-.444.516-.974.516-1.59h1.031c0 .616.172 1.146.516 1.59.344.444.76.666 1.246.666.616 0 1.139-.609 1.568-1.826.444-1.203.666-2.657.666-4.362 0-2.32-.63-4.304-1.89-5.95-1.26-1.648-2.779-2.472-4.555-2.472l.494-1.546c2.02 0 3.746.974 5.178 2.921 1.447 1.948 2.17 4.297 2.17 7.047 0 2.091-.358 3.882-1.074 5.371-.702 1.49-1.554 2.235-2.557 2.235-.243 0-.508-.086-.795-.258a4 4 0 01-.88-.688l-.13.065.387 1.998h-1.676l.409-1.977-.13-.021c-.2.272-.45.487-.751.644a2.01 2.01 0 01-.946.237 2.39 2.39 0 01-1.783-.752 2.461 2.461 0 01-.752-1.805c0-.401.072-.795.215-1.182.143-.372.358-.73.645-1.074l-.086-.086-.666.086h-.666v-1.095M54.7 66.227c0 .387.135.723.407 1.01.273.272.61.408 1.01.408.387 0 .71-.136.967-.408.272-.287.408-.623.408-1.01s-.136-.716-.408-.988a1.247 1.247 0 00-.967-.43c-.4 0-.737.143-1.01.43a1.346 1.346 0 00-.408.988m-1.375 7.777c0 .387.136.723.408 1.01.273.272.61.408 1.01.408.387 0 .71-.136.967-.408a1.42 1.42 0 00.408-1.01c0-.4-.136-.73-.408-.988a1.277 1.277 0 00-.967-.408c-.4 0-.737.136-1.01.408-.272.258-.408.587-.408.988m-1.138 0c0-.687.25-1.275.752-1.762a2.461 2.461 0 011.804-.752c.544 0 1.053.201 1.526.602.487.387.852.91 1.095 1.568.158.444.43.802.817 1.075.4.257.838.386 1.31.386.702 0 1.304-.43 1.805-1.289.501-.873.752-1.933.752-3.18 0-1.317-.337-2.463-1.01-3.437-.673-.974-1.518-1.554-2.535-1.74l-.065.107a1.2 1.2 0 01.15.344.875.875 0 01.065.3c0 .688-.25 1.283-.752 1.784a2.472 2.472 0 01-1.783.73 2.498 2.498 0 01-2.535-2.513c0-.702.286-1.296.86-1.783.587-.502 1.288-.752 2.105-.752 1.89 0 3.509.68 4.855 2.04 1.347 1.361 2.02 3.001 2.02 4.92 0 1.633-.387 3.023-1.16 4.169-.76 1.145-1.683 1.718-2.772 1.718-.501 0-.974-.129-1.418-.386a3.087 3.087 0 01-1.031-1.075l-.064.043c-.158.416-.445.76-.86 1.032-.4.257-.86.386-1.375.386a2.46 2.46 0 01-1.805-.752c-.5-.5-.752-1.095-.752-1.783m13.106-.558c0-.63.222-1.218.666-1.762.458-.559 1.053-.967 1.783-1.225.616-.229 1.11-.501 1.483-.816.372-.33.558-.652.558-.967 0-.315-.15-.58-.45-.795-.302-.23-.667-.344-1.097-.344-.415 0-.78.115-1.095.344-.301.215-.452.48-.451.795 0 .186.043.38.128.58.086.186.2.365.344.537l-1.203.43a2.35 2.35 0 01-.494-.71 2.14 2.14 0 01-.172-.837c0-.687.272-1.282.816-1.783.559-.501 1.232-.752 2.02-.752.659 0 1.239.136 1.74.408.516.272.86.637 1.031 1.096.573.673 1.204 1.203 1.891 1.59.688.372 1.375.558 2.063.558.257 0 .48-.129.666-.387.186-.257.279-.565.279-.923 0-.301-.079-.573-.236-.817a1.069 1.069 0 00-.623-.472h-2.922v-1.268h8.765c.86 0 1.59.265 2.192.795.601.516.902 1.139.902 1.87 0 .7-.25 1.302-.752 1.804a2.461 2.461 0 01-1.805.752c-.687 0-1.282-.25-1.783-.752a2.498 2.498 0 01-.73-1.805c0-.33.05-.616.15-.86.1-.257.236-.436.408-.536l-.043-.086-.924.086H77c.115.186.2.393.258.623.057.214.086.437.086.666 0 .744-.244 1.382-.73 1.912-.488.53-1.075.795-1.763.795-.658 0-1.317-.172-1.976-.516a6.196 6.196 0 01-1.783-1.482h-.108c-.071.472-.308.916-.709 1.332-.4.4-.91.709-1.525.924-.63.229-1.132.53-1.504.902-.372.358-.559.723-.559 1.096 0 .472.165.873.495 1.203.329.315.73.472 1.203.472.644 0 1.188-.272 1.633-.816.458-.544.687-1.203.687-1.977h1.01c0 .774.222 1.433.666 1.977.444.544.98.816 1.611.816.473 0 .874-.157 1.203-.472.33-.33.494-.73.494-1.203 0-.301-.043-.595-.129-.881a3.512 3.512 0 00-.3-.795h1.482c.115.344.2.651.258.924.057.272.086.522.086.752 0 .859-.301 1.59-.903 2.191a2.984 2.984 0 01-2.19.902 3.205 3.205 0 01-1.59-.408 3.037 3.037 0 01-1.118-1.096h-.193c-.258.459-.63.824-1.117 1.096a3.205 3.205 0 01-1.59.408c-.86 0-1.59-.3-2.192-.902a2.983 2.983 0 01-.902-2.191m14.63-4.856c0 .401.137.738.409 1.01.272.258.602.387.988.387.387 0 .716-.13.989-.387a1.34 1.34 0 00.43-1.01c0-.387-.144-.716-.43-.988a1.346 1.346 0 00-.989-.408c-.386 0-.716.136-.988.408a1.346 1.346 0 00-.408.988m-6.51 14.438c0 .229.158.422.473.58.315.157.702.236 1.16.236.687 0 1.275-.065 1.762-.193.487-.13.845-.315 1.074-.559v-.129c-.23-.243-.587-.437-1.074-.58-.502-.143-1.089-.215-1.762-.215-.458 0-.845.086-1.16.258-.315.172-.473.372-.473.602m-2.492-3.395c0-.687.258-1.282.773-1.783a2.498 2.498 0 011.805-.73c.344 0 .666.085.967.257.3.186.551.437.752.752h.129c.2-.315.458-.566.773-.752.3-.172.616-.258.945-.258.66 0 1.247.208 1.762.623.516.43.874.974 1.074 1.633h1.204V76.84h.923v2.535h.881v1.096h-2.685v.58c0 .33-.05.659-.15.988a4.55 4.55 0 01-.495.989v.15c.215.315.38.673.494 1.074.115.416.172.845.172 1.29h-1.139a6.31 6.31 0 00-.064-.968c-.057-.272-.129-.472-.215-.601-.4.4-.93.716-1.59.945-.659.23-1.389.344-2.191.344-.802 0-1.49-.222-2.063-.666-.573-.43-.859-.953-.859-1.568 0-.63.286-1.168.86-1.612.572-.43 1.26-.644 2.062-.644a6.31 6.31 0 012.127.343c.63.23 1.153.552 1.568.967.115-.143.208-.308.28-.494a1.83 1.83 0 00.085-.537c0-.687-.2-1.282-.601-1.783-.401-.487-.881-.73-1.44-.73-.343 0-.651.128-.923.386a1.734 1.734 0 00-.495 1.01h-.966c-.058-.401-.194-.738-.409-1.01-.229-.258-.487-.387-.773-.387-.315 0-.587.1-.816.301-.23.215-.344.48-.344.795 0 .143.028.272.086.387.057.114.129.2.215.258l-.795.902a1.855 1.855 0 01-.666-.666 1.62 1.62 0 01-.258-.88m21.893-4.513c.673 0 1.238-.365 1.697-1.095.472-.745.709-1.64.709-2.686 0-1.146-.451-2.12-1.354-2.922-.902-.816-1.99-1.224-3.265-1.224h-1.912a2.95 2.95 0 01-2.192-.924 3.128 3.128 0 01-.902-2.235h1.117c0 .573.2 1.06.602 1.461.4.401.873.602 1.417.602.201 0 .416-.065.645-.193.243-.13.487-.316.73-.56l3.545-3.372.71.709-3.374 3.33c1.576.086 2.908.644 3.996 1.676 1.089 1.017 1.633 2.234 1.633 3.652 0 1.432-.372 2.657-1.117 3.674-.73 1.017-1.626 1.525-2.685 1.525-.803 0-1.504-.243-2.106-.73-.602-.501-.967-1.125-1.096-1.87-.1-.544-.322-.995-.666-1.353-.343-.372-.737-.558-1.181-.558-.387 0-.724.2-1.01.601-.272.387-.408.852-.408 1.397 0 .214.071.5.215.859.143.344.35.76.623 1.246l-1.246.451c-.33-.558-.58-1.052-.752-1.482-.172-.444-.258-.802-.258-1.074 0-.931.279-1.726.838-2.385.558-.659 1.224-.988 1.998-.988.773 0 1.44.243 1.998.73.573.487.895 1.096.967 1.826a2.06 2.06 0 002.084 1.912m8.378-1.117c0 .387.136.723.409 1.01a1.37 1.37 0 001.01.408c.386 0 .708-.136.966-.408a1.42 1.42 0 00.408-1.01c0-.4-.136-.73-.408-.988a1.277 1.277 0 00-.967-.408c-.4 0-.737.136-1.01.408-.272.258-.408.587-.408.988m-1.138 0c0-.687.25-1.275.752-1.762a2.461 2.461 0 011.804-.752c.588 0 1.118.201 1.59.602.473.387.788.895.946 1.525.114.444.38.81.794 1.096a2.53 2.53 0 001.418.408c.674 0 1.24-.358 1.698-1.074.458-.716.687-1.583.687-2.6 0-1.188-.394-2.198-1.181-3.029-.774-.845-1.72-1.267-2.836-1.267h-1.526c-.83 0-1.547-.301-2.148-.903a3.055 3.055 0 01-.903-2.213h1.118c0 .573.2 1.06.601 1.461.401.401.874.602 1.418.602.2 0 .416-.065.645-.193.243-.13.487-.316.73-.56l3.545-3.372.71.709-3.395 3.373c1.332.186 2.434.795 3.308 1.826.888 1.017 1.332 2.206 1.332 3.567l-.043.666c.315.902.824 1.632 1.526 2.19.716.545 1.496.817 2.341.817.788 0 1.454-.358 1.998-1.074.545-.716.817-1.583.817-2.6 0-1.102-.344-2.04-1.031-2.814-.674-.788-1.483-1.182-2.428-1.182l.322-1.396c1.318.115 2.428.695 3.33 1.74.902 1.046 1.354 2.278 1.354 3.695 0 1.39-.444 2.579-1.332 3.567-.874.988-1.934 1.482-3.18 1.482-.816 0-1.59-.236-2.32-.709-.73-.487-1.31-1.146-1.74-1.976-.287.802-.745 1.454-1.376 1.955-.63.487-1.31.73-2.04.73-.502 0-.975-.129-1.419-.386a3.087 3.087 0 01-1.03-1.075l-.065.043c-.158.416-.444.76-.86 1.032-.4.257-.86.386-1.375.386-.702 0-1.303-.25-1.804-.752-.502-.5-.752-1.095-.752-1.783"/>
			<path d="M131.248 68.397c0 .386.136.716.408.988.272.272.602.408.989.408.386 0 .716-.136.988-.408.286-.272.43-.602.43-.988 0-.387-.144-.716-.43-.989a1.313 1.313 0 00-.988-.43c-.387 0-.717.144-.989.43a1.346 1.346 0 00-.408.989m-8.916-2.815h9.775c.86 0 1.59.272 2.192.817.601.544.902 1.21.902 1.998 0 .702-.25 1.303-.752 1.804a2.498 2.498 0 01-1.804.73 2.426 2.426 0 01-1.784-.73 2.498 2.498 0 01-.73-1.804c0-.23.05-.466.15-.71.1-.243.244-.48.43-.708l-.065-.086-.966.086h-3.653l-.73-.086-.065.086c.545.386.967.98 1.268 1.783.3.788.451 1.697.451 2.728 0 1.39-.422 2.579-1.267 3.567s-1.87 1.482-3.073 1.482a3.903 3.903 0 01-2.6-.945 3.908 3.908 0 01-1.396-2.385v-1.482a4.022 4.022 0 001.397 2.449c.759.63 1.625.945 2.6.945.859 0 1.59-.35 2.19-1.052.602-.717.903-1.576.903-2.579 0-1.274-.33-2.363-.988-3.265-.66-.902-1.454-1.354-2.385-1.354v-1.289m16.628 3.094c0 .401.137.738.41 1.01.271.258.6.387.987.387s.717-.13.989-.387c.272-.272.408-.609.408-1.01 0-.387-.136-.716-.408-.988a1.346 1.346 0 00-.989-.408c-.386 0-.716.136-.988.408a1.346 1.346 0 00-.408.988m3.094 6.445c1.146 0 2.134-.408 2.965-1.224.83-.817 1.246-1.805 1.246-2.965 0-.817-.215-1.547-.645-2.192-.43-.644-.988-1.095-1.676-1.353l.473-1.375c.974.358 1.755.988 2.342 1.89a5.34 5.34 0 01.902 3.03c0 1.547-.551 2.872-1.654 3.974-1.089 1.089-2.406 1.633-3.953 1.633-1.562 0-2.894-.544-3.996-1.633-1.103-1.102-1.655-2.427-1.655-3.974 0-1.332.387-2.464 1.16-3.395.774-.93 1.705-1.396 2.793-1.396.702 0 1.304.25 1.805.752.501.501.752 1.096.752 1.783 0 .688-.25 1.282-.752 1.783a2.498 2.498 0 01-1.805.73 2.402 2.402 0 01-1.503-.493 2.037 2.037 0 01-.774-1.29h-.086c-.057.144-.1.344-.129.602a8.53 8.53 0 00-.043.924c0 1.16.408 2.148 1.225 2.965.83.816 1.833 1.224 3.008 1.224m7.992-1.117c0 .387.136.723.408 1.01.272.272.609.408 1.01.408.387 0 .709-.136.967-.408a1.42 1.42 0 00.408-1.01c0-.4-.136-.73-.408-.988a1.277 1.277 0 00-.967-.408c-.401 0-.738.136-1.01.408-.272.258-.408.587-.408.988m-1.139 0c0-.687.25-1.275.752-1.762a2.461 2.461 0 011.805-.752c.587 0 1.117.201 1.59.602.472.387.787.895.945 1.525.115.444.38.81.795 1.096a2.53 2.53 0 001.418.408c.673 0 1.239-.358 1.697-1.074.458-.716.688-1.583.688-2.6 0-1.188-.394-2.198-1.182-3.029-.773-.845-1.719-1.267-2.836-1.267h-1.525c-.831 0-1.547-.301-2.149-.903a3.055 3.055 0 01-.902-2.213h1.117c0 .573.2 1.06.602 1.461.4.401.873.602 1.418.602.2 0 .415-.065.644-.193.244-.13.487-.316.73-.56l3.546-3.372.709.709-3.395 3.373c1.332.186 2.435.795 3.309 1.826.888 1.017 1.332 2.206 1.332 3.567l-.043.666c.315.902.823 1.632 1.525 2.19.716.545 1.497.817 2.342.817.788 0 1.454-.358 1.998-1.074.544-.716.816-1.583.816-2.6 0-1.102-.343-2.04-1.031-2.814-.673-.788-1.482-1.182-2.428-1.182l.323-1.396c1.317.115 2.427.695 3.33 1.74.902 1.046 1.353 2.278 1.353 3.695 0 1.39-.444 2.579-1.332 3.567-.874.988-1.933 1.482-3.18 1.482-.816 0-1.59-.236-2.32-.709-.73-.487-1.31-1.146-1.74-1.976-.287.802-.745 1.454-1.375 1.955-.63.487-1.31.73-2.041.73-.501 0-.974-.129-1.418-.386a3.087 3.087 0 01-1.031-1.075l-.065.043c-.157.416-.444.76-.86 1.032-.4.257-.859.386-1.374.386-.702 0-1.304-.25-1.805-.752-.501-.5-.752-1.095-.752-1.783"/>
			<path d="M167.47 73.489l.301-1.762c.258 1.002.76 1.819 1.504 2.449.745.63 1.576.945 2.493.945.773 0 1.432-.358 1.976-1.074.544-.716.817-1.583.817-2.6 0-1.102-.337-2.04-1.01-2.814-.673-.788-1.49-1.182-2.45-1.182l.323-1.396c1.303 0 2.406.53 3.308 1.59.917 1.06 1.375 2.342 1.375 3.845 0 1.39-.436 2.579-1.31 3.567-.874.988-1.94 1.482-3.201 1.482a4.363 4.363 0 01-2.621-.838 4.016 4.016 0 01-1.504-2.212m12.697-4.813c0 .401.136.738.408 1.01.272.258.602.387.988.387.387 0 .717-.13.989-.387.272-.272.408-.609.408-1.01 0-.387-.136-.716-.408-.988a1.346 1.346 0 00-.989-.408c-.386 0-.716.136-.988.408a1.346 1.346 0 00-.408.988m3.094 6.445c1.146 0 2.134-.408 2.965-1.224.83-.817 1.246-1.805 1.246-2.965 0-.817-.215-1.547-.645-2.192-.43-.644-.988-1.095-1.676-1.353l.473-1.375c.974.358 1.755.988 2.342 1.89a5.34 5.34 0 01.902 3.03c0 1.547-.551 2.872-1.654 3.974-1.089 1.089-2.406 1.633-3.953 1.633-1.561 0-2.894-.544-3.996-1.633-1.103-1.102-1.655-2.427-1.655-3.974 0-1.332.387-2.464 1.16-3.395.774-.93 1.705-1.396 2.793-1.396.702 0 1.304.25 1.805.752.501.501.752 1.096.752 1.783 0 .688-.25 1.282-.752 1.783a2.498 2.498 0 01-1.805.73 2.402 2.402 0 01-1.503-.493 2.037 2.037 0 01-.774-1.29h-.086c-.057.144-.1.344-.129.602a8.53 8.53 0 00-.043.924c0 1.16.409 2.148 1.225 2.965.83.816 1.833 1.224 3.008 1.224"/>
			<path d="M188.139 73.489l.3-1.762c.258 1.002.76 1.819 1.504 2.449.745.63 1.576.945 2.493.945.773 0 1.432-.358 1.976-1.074.544-.716.817-1.583.817-2.6 0-1.102-.337-2.04-1.01-2.814-.673-.788-1.49-1.182-2.45-1.182l.323-1.396c1.303 0 2.406.53 3.308 1.59.917 1.06 1.375 2.342 1.375 3.845 0 1.39-.436 2.579-1.31 3.567-.874.988-1.94 1.482-3.201 1.482a4.363 4.363 0 01-2.621-.838 4.016 4.016 0 01-1.504-2.212"/>
		</g>
	</g>
</svg>
