<?xml version="1.0" encoding="UTF-8" standalone="no"?>
<svg xmlns="http://www.w3.org/2000/svg" id="svg2728" width="347" height="43" x="0" y="0" version="1.1" viewBox="0 0 347 43" xml:space="preserve">
	<style id="style2" type="text/css"/>
	<g id="g2700" transform="translate(-20 -315.5)">
		<path id="text2420" fill="#0b2645" d="M158 193.4h10.1l7.1 29.7 7-29.7h10.1l7 29.7 7.1-29.7h10l-9.6 40.8h-12.1l-7.4-31-7.3 31h-12.1zm65.3 0h10.5v40.8h-10.5zm20.9 0h10.5v14.9l15.2-14.9h12.2l-19.7 19.3 21.7 21.5h-13.2l-16.2-16.1v16.1h-10.5zm43.4 0h10.5v40.8h-10.5z"/>
		<path id="text3194" fill="#0a4e98" d="M324.4 209.2c1.7 0 2.9-.4 3.8-1.1.9-.7 1.3-1.8 1.3-3.2 0-1.4-.4-2.5-1.3-3.2-.9-.7-2.1-1.1-3.8-1.1h-5.8v8.6zm.3 17.8c2.1 0 3.7-.4 4.8-1.3 1.1-.9 1.6-2.2 1.6-4 0-1.8-.5-3.1-1.6-4-1.1-.9-2.7-1.3-4.8-1.3h-6.2V227zm9.8-14.6c2.3.7 4 1.9 5.3 3.6 1.2 1.8 1.9 3.9 1.9 6.5 0 3.9-1.3 6.9-4 8.8-2.7 1.9-6.7 2.9-12.1 2.9H308v-40.8h15.8c5.7 0 9.8.9 12.3 2.6 2.5 1.7 3.8 4.5 3.8 8.2 0 2-.5 3.7-1.4 5.1-.9 1.4-2.2 2.4-4 3.1zm30.8-12.1c-3.2 0-5.7 1.2-7.5 3.6-1.8 2.4-2.7 5.7-2.7 10s.9 7.6 2.7 10c1.8 2.4 4.3 3.6 7.5 3.6s5.7-1.2 7.5-3.6c1.8-2.4 2.7-5.7 2.7-10s-.9-7.6-2.7-10c-1.8-2.4-4.3-3.6-7.5-3.6zm0-7.7c6.6 0 11.7 1.9 15.4 5.6 3.7 3.8 5.6 8.9 5.6 15.6 0 6.6-1.9 11.8-5.6 15.5-3.7 3.8-8.9 5.6-15.4 5.6s-11.7-1.9-15.4-5.6c-3.7-3.8-5.6-8.9-5.6-15.5s1.9-11.8 5.6-15.6c3.7-3.7 8.9-5.6 15.4-5.6zm43.6 7.7c-3.2 0-5.7 1.2-7.5 3.6-1.8 2.4-2.7 5.7-2.7 10s.9 7.6 2.7 10c1.8 2.4 4.3 3.6 7.5 3.6s5.7-1.2 7.5-3.6c1.8-2.4 2.7-5.7 2.7-10s-.9-7.6-2.7-10c-1.8-2.4-4.3-3.6-7.5-3.6zm0-7.7c6.6 0 11.7 1.9 15.4 5.6 3.7 3.8 5.6 8.9 5.6 15.6 0 6.6-1.9 11.8-5.6 15.5-3.7 3.8-8.9 5.6-15.4 5.6s-11.7-1.9-15.4-5.6c-3.7-3.8-5.6-8.9-5.6-15.5s1.9-11.8 5.6-15.6c3.7-3.7 8.8-5.6 15.4-5.6zm24.9.8h10.5v14.9l15.2-14.9h12.2L452 212.7l19.7 21.5h-11.2l-16.2-16.1v16.1h-10.5zm67.8 1.3v8.6c-2.2-1-4.4-1.8-6.6-2.3-2.1-.5-4.1-.8-6-.8-2.5 0-4.4.3-5.6 1-1.2.7-1.8 1.8-1.8 3.2 0 1.1.4 1.9 1.2 2.6.8.6 2.3 1.1 4.4 1.6l4.5.9c4.5.9 7.8 2.3 9.7 4.2 1.9 1.9 2.9 4.5 2.9 7.9 0 4.5-1.3 7.9-4 10-2.7 2.2-6.7 3.3-12.2 3.3-2.6 0-5.2-.2-7.8-.7-2.6-.5-5.2-1.2-7.8-2.2v-8.9c2.6 1.4 5.1 2.4 7.6 3.1 2.4.7 4.8 1.1 7 1.1 2.3 0 4.1-.4 5.3-1.1 1.2-.8 1.8-1.9 1.8-3.3 0-1.3-.4-2.3-1.2-3-.8-.7-2.5-1.3-5-1.9l-4.1-.9c-4.1-.9-7.1-2.3-9-4.2-1.9-1.9-2.8-4.5-2.8-7.7 0-4.1 1.3-7.2 3.9-9.4 2.6-2.2 6.4-3.3 11.3-3.3 2.2 0 4.5.2 6.9.5 2.5.5 4.9 1 7.4 1.7z"/>
	</g>
</svg>
