<?xml version="1.0" encoding="UTF-8" standalone="no"?>
<svg xmlns="http://www.w3.org/2000/svg" width="116" height="17" viewBox="0 0 116 17">
	<path d="M1.25 4.243l-.716-.702q.379-.35.716-.688.323-.35.674-.575.337-.239.744-.239.323 0 .52.084.196.084.463.31l.716.575q.098.07.182.14.098.056.253.056.182 0 .477-.266.295-.267.913-.913l.716.702q-.38.351-.716.702-.323.337-.66.576-.337.224-.744.224-.309 0-.506-.084-.196-.084-.477-.309l-.716-.575q-.098-.07-.183-.127-.098-.07-.266-.07-.183 0-.478.267-.294.267-.912.912zm2.4 9.21q-1.08 0-1.909-.448-.814-.464-1.278-1.306Q0 10.842 0 9.69q0-1.095.491-1.937.506-.843 1.334-1.32.843-.478 1.868-.478 1.123 0 1.937.492.814.477 1.25 1.306.449.814.449 1.839 0 .702-.197 1.306-.182.603-.52 1.095.408.365 1.138.365h1.025v1.095h-.969q-.66 0-1.01-.21-.352-.225-.73-.66-.478.42-1.096.645-.604.225-1.32.225zm.029-1.094q.744 0 1.263-.351.534-.365.815-.969.294-.618.294-1.362 0-1.165-.631-1.895-.618-.744-1.755-.744-.702 0-1.236.35-.533.338-.842.955-.31.604-.31 1.418 0 .632.24 1.236.252.59.772.983.533.379 1.39.379zm4.832 1.095q-.127 0-.351-.07-.225-.07-.337-.155v-.87h3.51V4.524H9.002V3.43h5.91v1.095h-2.33v7.287q0 .857-.491 1.25-.492.393-1.222.393zm15.11 2.58q-.323 0-.548-.197-.239-.196-.239-.646 0-.449.239-.645.225-.197.548-.197.308 0 .547.197.239.196.239.645 0 .45-.239.646-.239.2-.548.2zm-3.918-2.584l3.286-7.202h1.25l2.78 6.107h1.418v1.095h-2.261l-1.713-3.776q-.239-.534-.45-1.053-.21-.534-.406-1.11-.408 1.166-.899 2.247l-1.657 3.692zm8.469 0q-.127 0-.351-.07-.225-.07-.337-.154v-.87h5.63V4.52h-1.896q-.52 0-.716.309-.196.309-.196.828v2.106h-1.25V5.56q0-2.134 2.26-2.134h3.047v8.13q.365.8 1.446.8h.267v1.094H35.6q-.534 0-.829-.196-.294-.197-.59-.59-.21.407-.617.604-.407.182-.913.182zm6.906-11.232l-.716-.702q.38-.35.716-.688.323-.35.674-.575.337-.239.744-.239.323 0 .52.084.196.085.463.31l.716.575q.099.07.183.14.098.056.252.056.183 0 .478-.266.295-.267.912-.913l.717.702q-.38.351-.717.702-.322.337-.66.576-.336.224-.744.224-.308 0-.505-.084t-.477-.309l-.716-.575q-.099-.07-.183-.127-.098-.07-.267-.07-.182 0-.477.267t-.913.912zm.744 11.232q-.126 0-.35-.07-.225-.07-.338-.154v-.87h1.713v-8.93h1.25v8.129q.351.8 1.446.8h.267v1.095h-.478q-.533 0-.828-.196-.295-.197-.59-.59-.21.407-.617.604-.408.182-.913.182zm3.73 0q-.127 0-.351-.07-.225-.07-.337-.154v-.87h4.675V8.493h-.575q-1.503 0-2.247-.73-.73-.73-.73-1.853 0-.786.323-1.334.323-.561.885-.856.561-.295 1.263-.295 1.151 0 1.741.702.59.702.59 1.797v1.474h2.12v1.095h-2.12v3.061q.365.8 1.446.8h1.699v1.096H46.29q-.632 0-.983-.197-.337-.21-.702-.604-.21.407-.617.604-.394.197-.913.197zm3.454-6.05h.533V5.826q0-.618-.28-.955-.267-.351-.815-.351-.533 0-.87.365-.337.351-.337.969 0 .702.42 1.123.422.421 1.349.421zm5.014-5.182l-.716-.702q.379-.35.716-.688.323-.35.674-.575.337-.239.744-.239.323 0 .52.084.196.084.463.31l.716.575q.098.07.182.14.099.056.253.056.183 0 .477-.266.295-.267.913-.913l.716.702q-.379.351-.716.702-.323.337-.66.576-.337.224-.744.224-.309 0-.505-.084-.197-.084-.478-.309l-.716-.575q-.098-.07-.182-.127-.099-.07-.267-.07-.183 0-.478.267-.294.267-.912.912zm-.351 11.232q-.127 0-.351-.07-.225-.07-.337-.154v-.87h2.92v-3.82l-2.387-5.11h1.236l1.207 2.625q.14.31.295.674.155.351.267.674.112-.323.253-.66.154-.35.295-.646l1.235-2.667h1.236l-2.387 5.11v3.019q.35.8 1.446.8h1.474v1.095h-1.417q-.632 0-.983-.196-.337-.21-.702-.604-.21.407-.617.604-.394.196-.913.196zm6.142 0q-.126 0-.35-.07-.225-.07-.338-.154v-.87h1.713v-8.93h3.693V4.52h-2.443v2.892h2.443v1.095h-2.443v3.047q.35.8 1.446.8h2.429v1.095h-2.373q-.632 0-.983-.196-.337-.211-.702-.604-.21.407-.617.604-.393.196-.913.196zm5.896 0q-.126 0-.35-.07-.225-.07-.338-.154v-.87h1.713v-8.93h1.25v8.129q.35.8 1.446.8h.267v1.095h-.478q-.533 0-.828-.196-.295-.197-.59-.59-.21.407-.618.604-.407.182-.912.182zm3.73 0q-.127 0-.351-.07-.225-.07-.337-.154v-.87h4.675V8.493h-.576q-1.502 0-2.246-.73-.73-.73-.73-1.853 0-.786.323-1.334.323-.562.884-.856.562-.295 1.264-.295 1.151 0 1.74.702.59.702.59 1.797v1.474h2.12v1.095h-2.118v3.314q0 .856-.492 1.25-.491.392-1.221.392zM66.89 7.4h.534V5.826q0-.618-.28-.955-.268-.351-.815-.351-.534 0-.87.365-.338.35-.338.969 0 .702.422 1.123.42.421 1.348.421zm9.56-3.319v-.997h5.364v.997zm-.224 9.37V6.247h1.25v6.107h3.355V6.248h1.25v5.335q.364.772 1.432.772h.266v1.095h-.477q-.534 0-.828-.196-.295-.197-.59-.59-.21.407-.618.604-.407.182-.913.182zm7.284 0q-.127 0-.351-.07-.225-.07-.337-.155v-.87h5.63V7.342h-2.808v2.092h-1.25V4.423h1.25v1.825h2.808V3.426h1.25v8.13q.364.8 1.445.8h.267v1.095h-.477q-.534 0-.828-.197-.295-.197-.59-.59-.21.407-.618.604-.407.183-.913.183zm7.65 0q-.126 0-.35-.07-.225-.07-.338-.155v-.87h2.387q-.449-.492-.702-1.166-.238-.674-.238-1.502 0-1.095.491-1.938.505-.842 1.334-1.32.842-.477 1.867-.477 1.123 0 1.938.491.814.478 1.25 1.306.449.814.449 1.84 0 .701-.197 1.305-.183.604-.52 1.095.408.365 1.138.365h1.025v1.095h-.97q-.659 0-1.01-.21-.351-.225-.73-.66-.477.421-1.095.646-.604.224-1.32.224zm4.437-1.096q.744 0 1.264-.35.533-.366.814-.97.295-.617.295-1.361 0-1.166-.632-1.896-.618-.744-1.755-.744-.702 0-1.235.351-.534.337-.843.955-.309.604-.309 1.418 0 .632.239 1.235.253.59.772.983.534.38 1.39.38zm4.832 1.095q-.126 0-.35-.07-.225-.07-.338-.154v-.87h1.713v-2.27q0-1.615.59-2.387.59-.787 1.642-.787.576 0 1.011.239.436.225.632.59.225-.702.786-1.152.562-.449 1.404-.449 1.208 0 1.896.772.688.758.688 2.36v2.274q.365.8 1.446.8h.562v1.095h-.773q-.533 0-.828-.197-.295-.196-.59-.59-.21.408-.618.604-.407.183-.912.183zm5.686-1.095h2.738V9.126q0-.884-.323-1.376-.309-.505-1.025-.505t-1.053.547q-.337.534-.337 1.432zm-3.411 0h2.162V9.912q0-.87-.239-1.376-.224-.519-.842-.519-.45 0-.688.267-.225.252-.31.702-.083.449-.083 1.025zm8.859 1.095q-.127 0-.351-.07-.225-.07-.337-.154v-.87h3.875V8.507h-2.443V7.413h2.443V4.521h-2.443V3.426h3.68v8.382q0 .856-.492 1.25-.491.393-1.221.393z"/>
</svg>
