<?xml version="1.0" encoding="UTF-8" standalone="no"?>
<svg xmlns="http://www.w3.org/2000/svg" width="82" height="27" viewBox="0 0 82 27">
	<path style="-inkscape-font-specification:'Linux Libertine O'" d="M78.177 10.652c1.283 1.538 2.012 2.839 2.188 3.902v.528c0 2.355-.114 3.796-.343 4.324-1.001 2.144-1.968 3.634-2.9 4.469-1.977 1.608-3.515 2.65-4.614 3.124.053-.659.22-1.538.501-2.636 2.39-1.204 4.135-3.177 5.234-5.92.079-.553.004-.949-.224-1.186l-.396.04a2.397 2.397 0 01-.896.158c-.51 0-1.046-.128-1.609-.383.044-1.01.431-2.109 1.16-3.295l1.899-3.125m-.765 2.716c-.633.844-.949 1.406-.949 1.687 0 .229.461.325 1.384.29.22-.22.33-.448.33-.685 0-.334-.255-.765-.765-1.292m2.505-8.134l1.622 1.634-1.688 1.767-1.53-1.621 1.596-1.78m-3.56-.013l1.622 1.634-1.687 1.767L74.762 7l1.596-1.78m1.78-3.216l1.62 1.635-1.687 1.766-1.529-1.621 1.595-1.78M67.933 17.903h-1.568v-2.189h1.648c.369 0 .83-.28 1.384-.843-.29-.448-.435-.72-.435-.818 0-1.09.237-1.89.712-2.399.254-.018.386-.009.395.026.229.712.699 1.574 1.41 2.584-.632 2.426-1.814 3.639-3.546 3.639m-8.556-1.714c-1.362.773-2.689 1.345-3.98 1.714h-2.005v-2.189h.488c1.134-.087 2.074-.443 2.821-1.067-.132-.405-.61-1.174-1.437-2.307-.756-1.038-1.248-1.89-1.476-2.558.053-.738.32-1.573.804-2.505.58-1.23.936-2.043 1.068-2.439 1.134-.272 2.86-.953 5.18-2.043C63.38 1.644 64.986.712 65.654 0c.175 0 .263.105.263.316 0 .264-.175.743-.527 1.437l-.672 1.345c-1.134.66-2.07 1.165-2.808 1.516-1.037.51-3.226 1.477-6.566 2.9.29 1.055.928 2.281 1.912 3.679.976 1.529 1.762 2.553 2.36 3.071 1.116.967 2.544 1.45 4.284 1.45h2.874v2.189H63.9c-.668 0-1.643-.176-2.926-.527-.572-.141-1.103-.537-1.596-1.187m-9.927-3.612c.897-.132 1.363-.101 1.398.092.15.607.356 1.248.62 1.925.272.677.54 1.05.804 1.12h1.265v2.189h-1.186c-.106 0-.383-.11-.83-.33-.651-.342-1.06-.69-1.227-1.041l-.224.25c-.035.167-.277.409-.725.725-.395.264-.61.396-.646.396h-2.267v-2.189h1.634c.211 0 .673-1.045 1.384-3.137m-7.013 0c.896-.132 1.362-.101 1.397.092.15.607.356 1.248.62 1.925.272.677.54 1.05.804 1.12h1.266v2.189h-1.187c-.105 0-.382-.11-.83-.33-.65-.342-1.06-.69-1.226-1.041l-.224.25c-.036.167-.277.409-.725.725-.396.264-.611.396-.646.396h-2.268v-2.189h1.635c.21 0 .672-1.045 1.384-3.137m.448 9.36l1.622 1.635-1.688 1.766-1.529-1.621 1.595-1.78m1.806-2.927l1.622 1.635-1.688 1.767-1.529-1.622 1.595-1.78m-3.56-.013l1.622 1.635-1.687 1.766-1.53-1.621 1.596-1.78m-5.761-6.42c.896-.132 1.362-.101 1.397.092.15.607.356 1.248.62 1.925.272.677.54 1.05.804 1.12h1.266v2.189H38.27c-.105 0-.382-.11-.83-.33-.65-.342-1.06-.69-1.227-1.041l-.224.25c-.035.167-.277.409-.725.725-.395.264-.61.396-.646.396h-2.267v-2.189h1.634c.211 0 .673-1.045 1.385-3.137m-1.16 6.433l1.621 1.635-1.687 1.767-1.53-1.622 1.596-1.78m0 3.639l1.621 1.635-1.687 1.766-1.53-1.621 1.596-1.78M27.38 5.432c.203-.018.48.536.831 1.66.334 1.108.787 3.028 1.358 5.762.44 1.397 1.046 2.35 1.82 2.86h1.186v2.189h-1.173c-.739 0-1.372-.374-1.899-1.12-.22-.3-.54-.945-.962-1.939-.72 1.389-1.297 2.123-1.727 2.202-.413.088-1.587.444-3.52 1.068-1.028.299-1.828.778-2.4 1.437-.14-.158-.21-.383-.21-.673 0-.21.044-.51.131-.896.123-.466.194-.773.211-.923 1.064-.896 2.118-1.41 3.164-1.542 1.969-.308 3.239-.703 3.81-1.187.044-1.406-.536-3.62-1.74-6.644l1.12-2.254m-11.179 12.47h-1.569v-2.188h1.648c.37 0 .83-.28 1.385-.843-.29-.448-.435-.72-.435-.818 0-1.09.237-1.89.711-2.399.255-.018.387-.009.396.026.228.712.699 1.574 1.41 2.584-.632 2.426-1.814 3.639-3.546 3.639m-5.458-5.326c.897-.132 1.363-.101 1.398.092.15.607.356 1.248.62 1.925.272.677.54 1.05.804 1.12h1.265v2.189h-1.186c-.106 0-.383-.11-.83-.33-.651-.342-1.06-.69-1.227-1.041l-.224.25c-.035.167-.277.409-.725.725-.396.264-.61.396-.646.396H7.725v-2.189H9.36c.211 0 .672-1.045 1.384-3.137m2.215 6.934l1.622 1.635-1.688 1.767-1.529-1.622 1.595-1.78m-3.56-.013l1.622 1.635-1.687 1.766-1.53-1.621 1.596-1.78m-4.364-3.836c-.545.896-1.38 1.344-2.505 1.344a3.59 3.59 0 01-1.345-.263C.396 16.426 0 15.793 0 14.844c0-.536.132-1.063.395-1.582 1.117-.246 2.07-.73 2.861-1.45.897-.773 1.345-1.643 1.345-2.61a3.66 3.66 0 00-.013-.303c.624.15.936.879.936 2.188v.54l-.013.515c0 1.09.11 1.845.33 2.267.421.695.79 1.13 1.107 1.305h1.2v2.189H6.67c-.018 0-.255-.14-.712-.422-.615-.387-.923-.993-.923-1.82m-3.032-.896c.422.238.79.356 1.107.356.36 0 .668-.136.923-.408.167-.247.25-.559.25-.936 0-.22-.03-.453-.092-.7-.175.484-.905 1.047-2.188 1.688" font-family="Linux Libertine O" font-size="144" font-weight="400"/>
</svg>
