<?xml version="1.0" encoding="UTF-8" standalone="no"?>
<svg xmlns="http://www.w3.org/2000/svg" width="121" height="59">
	<path fill="#555" d="M.279 58.32c-.277-.137-.312-.194-.257-.41a91.35 91.35 0 00.436-2.15c.267-1.367.357-2.046.32-2.418-.03-.32.066-1.345.254-2.693.25-1.798.3-2.444.284-3.722-.01-.851.015-1.962.055-2.469.047-.585.03-1.36-.048-2.127-.067-.664-.13-2.077-.14-3.14-.011-1.064-.072-2.377-.135-2.919-.087-.737-.089-1.15-.008-1.644.063-.389.081-1.056.045-1.626-.034-.532-.015-2.431.042-4.22.073-2.258.075-3.916.006-5.415-.172-3.781-.093-6.887.25-9.801.274-2.323.54-2.932 1.89-4.316 1.4-1.438 1.943-1.576 2.792-.71.407.414.429.465.463 1.086.025.444-.027.899-.162 1.426a40.762 40.762 0 00-.444 2.109c-.135.735-.3 1.431-.367 1.547-.08.14-.137.858-.17 2.145-.026 1.064-.091 2-.144 2.08-.053.08-.103.536-.11 1.015-.015.975-.184 3.724-.272 4.416-.032.249-.079 1.772-.105 3.385-.026 1.613-.083 3.259-.127 3.657-.105.96-.03 12.014.083 12.127.18.18 1.427-1.046 1.587-1.56.037-.117.269-.487.516-.821.57-.774 1.125-2.035 1.752-3.992.41-1.282.57-1.645.932-2.122.24-.316.48-.75.533-.967.054-.216.23-.641.391-.946.218-.41.31-.738.352-1.257.05-.592.132-.841.521-1.574.254-.478.536-1.174.626-1.547.09-.372.246-.812.345-.978.099-.166.18-.384.181-.484.006-.775 1.709-4.096 2.474-4.823.224-.213.596-.608.827-.878.76-.888 1.144-1.17 1.688-1.245l.494-.067.062.587.122 1.148c.054.5.028.623-.245 1.164-.168.333-.63 1.55-1.026 2.704-.397 1.154-.784 2.23-.861 2.389-.077.16-.21.79-.297 1.402a56.508 56.508 0 01-.491 2.756c-.185.904-.51 2.753-.723 4.11-.213 1.356-.495 2.848-.626 3.316a5.836 5.836 0 00-.239 1.668c0 .948-.316 3.855-.53 4.871-.166.79-.188 1.995-.047 2.57.052.213.142.91.199 1.547a310.233 310.233 0 00.274 2.925c.004.067.054.121.11.121.223 0 .476-.89.674-2.37.176-1.308.26-1.658.546-2.271.264-.566.338-.85.34-1.29 0-.504-.03-.577.468-1.317l.467-.753-.108-.63c-.103-.604-.095-.663.193-1.392.165-.418.353-.967.416-1.219.095-.377.154-.458.334-.458.12 0 .35-.026.51-.059.395-.078.473.18.225.744-.103.235-.218.6-.255.814a2.45 2.45 0 01-.237.677c-.093.16-.199.483-.235.72-.035.237-.11.485-.165.552-.071.086-.053.202.064.4.155.262.155.32.006.916-.088.35-.248.89-.356 1.2-.376 1.082-.724 2.418-.606 2.88.103.402.006.7-.102 1.107-.116.436-.165.872-.098 1.155.093.395.013.57-.095.828-.085.203-.154.485-.154.626 0 .141-.09.582-.2.98-.233.842-.509 1.182-1.146 1.41-.244.086-.762.292-1.15.456-.766.324-.827.31-.943-.225-.029-.133-.162-.476-.295-.764-.21-.449-.234-.604-.18-1.112.05-.472.023-.69-.136-1.092-.27-.683-.592-1.972-.592-2.366 0-.253-.073-.38-.338-.592l-.339-.27v-1.326c.001-1.39.175-3.69.452-5.96.15-1.22.19-1.376.437-1.657.266-.303.27-.324.151-.787-.141-.553-.076-2.243.116-2.927.153-.548.124-.497.256-.248.059.112.135.303.135.446 0 .319.23.891.321.8.178-.178-.202-3.028-.415-2.842-.175.152-.284.355.01-.279.104-.225.078-.452-.014-.884-.067-.315-.154-.573-.194-.573-.04 0-.298.663-.573 1.474-.276.811-.755 2.15-1.066 2.974a78.65 78.65 0 00-1.112 3.225 48.28 48.28 0 01-1.333 3.566c-.875 2.052-.94 2.13-1.867 2.247-.766.095-.892.242-1.161 1.356-.228.94-.23.976-.076 1.732.282 1.392.014 2.813-.662 3.511-.22.226-.281.348-.201.398.084.051.05.184-.122.489a1.744 1.744 0 00-.237.852c0 .6-.24 1.048-.794 1.487-.712.562-1.32.694-1.896.41zm11.49-18.14c0-.12-.11-.246-.194-.338-.19-.206-.194-.097-.194.102 0 .22.203.44.31.455.085.013.077-.098.077-.218zm20.002 1.291c-.201-.163-.227-.263-.222-.846.006-.542.087-.872.451-1.83.245-.643.475-1.372.512-1.619.081-.538-.013-1.128-.179-1.128-.065 0-.4.287-.745.638-.82.837-2.185 1.896-2.848 2.21-1.004.475-1.938.416-2.226-.141-.078-.152-.206-.7-.284-1.22-.248-1.648-.606-1.825-1.967-.973-.464.29-.99.601-1.168.692l-.325.164.221-.394c.122-.216.563-.774.98-1.24.964-1.076 1.38-1.697 1.79-2.677.181-.43.608-1.355.948-2.056.808-1.661 1.378-2.223 2.72-2.68.44-.15.477-.15.59.006.181.247.163.35-.355 1.972-.795 2.491-.795 2.492-.844 4.442-.04 1.593-.026 1.826.13 2.127.155.299.218.337.532.328.315-.01.49-.134 1.473-1.052.614-.573 1.287-1.265 1.495-1.537.224-.292.964-1.763 1.805-3.589l1.995-4.327c.313-.679.7-1.614.862-2.08.162-.465.73-1.942 1.264-3.282 1.23-3.089 1.442-3.34 2.938-3.48.5-.047.63-.03.675.088.082.212-2.984 7.7-3.827 9.349-.568 1.11-.658 1.46-.433 1.686.2.2.361.2 1.024.007.73-.212 1.399-.604 2.697-1.58 1.466-1.102 4.253-2.994 4.982-3.383.61-.325 1.14-.372 1.187-.105.014.08-.062.288-.17.464-.156.254-.455.442-1.475.927-1.455.691-3.074 1.698-5.726 3.558-2.21 1.55-2.298 1.661-2.25 2.835.036.87.252 1.487.954 2.723.782 1.377 1.812 2.176 3.164 2.457.543.113 2.49.076 2.892-.055.17-.056.218-.034.218.1 0 .11.11.019.306-.255.169-.234.584-.73.924-1.102.806-.884 1.24-1.547 1.643-2.506.18-.43.607-1.355.947-2.056.808-1.661 1.378-2.223 2.72-2.68.44-.15.477-.15.59.006.181.247.163.35-.355 1.972-.795 2.491-.795 2.492-.844 4.442-.04 1.593-.026 1.826.13 2.127.157.302.216.337.546.327.3-.01.459-.095.822-.444.522-.499.973-.85 1.093-.85.179 0 .073.647-.161.992-.307.453-1.81 1.622-2.51 1.953-1.004.475-1.938.416-2.226-.141-.078-.152-.206-.7-.284-1.22-.248-1.649-.606-1.826-1.967-.97-1.963 1.234-2.925 1.624-4.796 1.946-1.15.198-1.789.186-2.476-.045-.824-.278-1.275-.594-2.55-1.791-.621-.584-1.167-1.075-1.213-1.09-.12-.042-.18.165-.3 1.061-.156 1.149-.999 3.674-1.366 4.092-.316.36-1.34.918-1.684.918-.119 0-.318-.083-.444-.185zm23.059-4.94c-37.692 19.182-18.846 9.591 0 0zM17.896 39.58c-.087-.226.429-2.468.655-2.85.152-.255.217-.564.253-1.213.042-.748.094-.957.374-1.49.18-.34.326-.71.326-.824 0-.113.06-.422.135-.687.238-.844 1.498-5.092 1.764-5.943.141-.452.45-1.497.686-2.321.498-1.738.664-2.114.984-2.238.355-.137.481.055.22.333-.142.152-.211.347-.211.6 0 .338-.67 2.263-.878 2.52-.046.057-.113.361-.15.677-.036.315-.24 1.009-.453 1.54-.213.532-.445 1.301-.516 1.71a7.384 7.384 0 01-.468 1.486c-.187.41-.34.873-.34 1.029 0 .464-.2 1.119-.396 1.296-.148.134-.184.302-.184.871 0 .6-.05.816-.338 1.448-.186.408-.339.88-.339 1.048 0 .169-.087.477-.193.686-.106.208-.193.446-.193.528 0 .253-.528 1.937-.608 1.937-.041 0-.1-.064-.13-.143zm12.61-16.362c-.256-.164-.559-.74-.559-1.063 0-.25.438-.93.745-1.155.434-.32 1.211-.69 1.601-.763.33-.062.357-.049.418.21.035.151.239.457.452.678.493.513.45.739-.242 1.291-1.021.815-1.925 1.115-2.416.802zm22.337 0c-.256-.164-.558-.74-.558-1.063 0-.25.437-.93.744-1.155.434-.32 1.212-.69 1.601-.763.33-.062.358-.049.418.21.036.151.239.457.452.678.493.513.45.739-.242 1.291-1.02.815-1.925 1.115-2.415.802zm-29.665-1.772c0-.272.434-1.583 1.039-3.141.793-2.043 1.88-5.403 1.808-5.59-.045-.118.329-.866.763-1.527.09-.139.335-.758.543-1.376.266-.792.648-1.604 1.29-2.746 1.6-2.84 2.006-3.751 2.15-4.812.087-.644.262-.967.851-1.572.422-.434.547-.508.856-.508.199 0 .477-.053.618-.117.415-.189.547.085.509 1.055-.03.732-.054.816-.331 1.112-.268.286-.29.352-.205.628.084.275.057.36-.243.773-.185.256-.368.596-.406.755-.038.16-.19.421-.336.58-.148.16-.391.508-.541.774-.15.266-.462.75-.693 1.076-.23.326-.42.688-.42.805 0 .116-.26.577-.577 1.025a14.12 14.12 0 00-.91 1.473c-.184.363-.405.72-.493.793-.5.415-2.188 3.78-2.611 5.205-.037.124-.187.363-.334.532-.147.17-.298.439-.334.598-.037.16-.109.484-.16.72-.051.236-.176.519-.278.628-.102.11-.253.463-.336.786-.199.772-.786 2.035-.982 2.11-.21.08-.237.076-.237-.039z"/>
	<path fill="#555" d="M-247.712 386.712c1.22-5.91 5.65-16.53 12.56-23.51 7.69-7.76 14.025-12.026 16.075-9.986 2.03 2.02 2.438 1.285 2.458 10.925.015 5.285-4.072 22.401-4.072 22.401s8.664-8.191 11.564-11.976c7.06-9.25 11.92-14.369 18.94-28.709 12.24-25.01 17.55-40.456 17.55-40.456s-12.045.14-17.9.408c-5.856.268-6.296 1.37-6.614.246-.311-1.103 2.853-3.876 4.59-6.374 1.738-2.498 2.05-4.72 3.421-4.72 5.447-.933 11.63 1.241 16.566 1.11 4.937-.133 5.396-.493 5.396-.493s4.904-13.298 6.614-13.298c1.16 0 6.74-3.294 6.74-3.294l-3.958 17.194s2.559-.747 14.977.176l23.525-1.61c2.135-.147-4.226 5.286-7.689 6.702-4.868 1.096-4.196.114-10.132.633-2.968.26-4.76 1.702-7.298 2.236-2.539.533-13.44.62-15.702.936l-19.1 52.532c-7.82 23.57-7.243 24.95-8.563 32.86-.67 4.03-.359 6.097 1.971 6.097 1.67 0 16.786-16.111 19.766-19.421 6.238-10.124 12.647-19.446 22.968-25.056 1.96-.41 5.971-2.015 8.392-1.262.988 2.137 1.487 6.515.722 9.676-1.391 3.748-6.48 10.487-20.072 20.074-1.22 1.941-.333 7.11-.333 9.326 0 2.245 2.362 3.28 6.056 2 1.847-.64 4.68-1.368 7.064-3.302 2.384-1.934 2.85-4.911 5.515-8.416 2.111-.87 2.663-.58 3.9.94-2.242 2.841-4.312 5.454-6.697 7.774-2.386 2.32-3.618 4.185-5.817 5.857-4.397 3.346-8.09 5.27-9.76 5.27-9.853-1.652-13.268-9.014-11.554-18.616 0 0-6.986 5.735-14.432 15.774-4.695 3.63-6.279 5.401-9.281 6.491-3.002 1.09-7.423 1.5-8.558.56-1.149-11.857 14.343-47.92 9.652-50.44 0 0-13.752 17.811-18.93 22.691-5.178 4.88-10.373 8.985-13.96 12.502-3.115 5.892-12.392 14.647-14.622 14.662-8.983-.13-14.097-5.036-12.142-15.133m100.272-28.057c-2.843.531-7.158 10.677-6.128 15.094.302 1.296 8.359-6.715 7.486-7.107 2.646-2.148.756-9.485-1.358-7.987zm-102.811 30.596c-3.204 3.44-12.799 9.298-15.951 9.453-5.159-1.187-1.89-17.522-6.649-13.293-5.23 4.65-8.787 11.593-17.008 12.382-.8 0-2.55-.854-4.31-3.604-2.084-3.255-3.632-15.995-3.632-15.995s-9.254 9.019-12.57 12.119c-4.23 3.96-8.642 5.652-8.642 8.832 0 2.06 3.037 4.294 4.207 6.944 1.76 3.99 4.338 8.127 3.888 14.097-.64 8.53-5.11 22.15-9.85 30.04-4.19 6.98-10.58 14.38-12.42 14.38-.77 0-2.08-1.33-2.92-2.96-1.99-3.85-1.498-11.773.542-27.293.815-6.225 3.127-18.704 2.216-22.312-.91-3.608-5.273-.883-6.268-2.088 1.217-3.098 4.798-4.166 6.046-7.083-1.204-5.831-1.572-13.958-1.572-13.958s-5.522 2.625-11.4 6.766c-10.85 7.292-7.34-11.467-6.75-17.593 0 0-10.931 9.317-17.811 16.887-5.81 6.4-8.216 8.179-8.216 6.219 0-3.3 19.599-25.106 34.489-39.246 8.89-8.43 14.028-16.36 19.349-17.857 4.709-1.325 8.922-1.5 11.03-.504 2.818 1.33-.205 8.459-5.063 28.505-1.88 7.18-1.574 22.129-1.574 23.059 3.146-.646 14.41-13.907 19.038-19.066 4.627-5.159 2.617-3.6 5.062-8.765 2.134-7.244 5.905-18.733 12.085-16.675 0 0-5.382 31.749 1.501 37.718 3.28.47 8.807-3.44 12.845-21 9.75-19.52 13.184-15.23 13.184-15.23s-3.001 38.123-.071 38.123c1.2 0 2.718-.11 4.121-.597 1.818-.63 2.636-3.065 3.509-2.617zm-76.184 63.653c4.95-7.84 9.911-18.188 9.941-33.254-2.268-9.17-8.965-13.411-11.905-6.381-2.19 5.25-4.019 26.787-4.819 33.037-3.006 16.988 2.433 13.488 6.783 6.598zm102.209-83.49c-1.84-1.81-11.48-6.706-12.022 1.535-1.089 16.538-.223 20.642 2.782 20.513 7.064 2.723 12.439-22.383 9.24-22.049zm-111.296 12.964c.546-4.558 7.237-17.864 8.798-23.354.553-1.947 1.291-4.798-.833-5.034-4.75-.529-14.379 14.657-14.379 23.229 0 2.82-1.035 9.773 1.005 9.773 1.51 0 3.37-2.294 5.41-4.614z" clip-path="url(#clipPath2723-3)" transform="translate(150.085 -61.049) scale(.2519)"/>
</svg>
