<?xml version="1.0" encoding="UTF-8" standalone="no"?>
<svg xmlns="http://www.w3.org/2000/svg" width="105" height="18" viewBox="0 0 105 18">
	<path stroke="#000" stroke-width="105" d="M.12 17.349V4.97h2.148v10.496h5.767V4.97h2.147v9.17q.627 1.326 2.461 1.326h.459v1.882h-.82q-.918 0-1.424-.337-.507-.338-1.014-1.014-.362.7-1.061 1.038-.7.313-1.569.313zm12.519 0q-.218 0-.604-.121-.386-.12-.579-.266v-1.496h9.676V6.853h-4.826v3.595H14.16V1.834h2.147V4.97h4.826V.12h2.147v13.97q.628 1.376 2.485 1.376h.459v1.882h-.82q-.916 0-1.423-.338-.506-.338-1.013-1.013-.362.7-1.062 1.037-.7.314-1.568.314zm13.148 0q-.218 0-.604-.121-.386-.12-.579-.266v-1.496h4.102q-.772-.844-1.206-2.002-.41-1.158-.41-2.582 0-1.882.844-3.33.869-1.447 2.292-2.268 1.448-.82 3.21-.82 1.93 0 3.33.844 1.398.82 2.146 2.244.773 1.4.773 3.161 0 1.206-.338 2.244-.314 1.037-.893 1.882.7.627 1.954.627h1.762v1.882h-1.665q-1.134 0-1.737-.362-.604-.386-1.255-1.134-.82.724-1.882 1.11-1.038.386-2.268.386zm7.624-1.882q1.279 0 2.172-.604.917-.627 1.4-1.665.506-1.061.506-2.34 0-2.003-1.086-3.257-1.061-1.28-3.016-1.28-1.206 0-2.123.604-.917.58-1.448 1.64-.53 1.038-.53 2.438 0 1.086.41 2.123.434 1.013 1.327 1.689.916.651 2.388.651zm8.304 1.882q-.217 0-.603-.121-.386-.12-.579-.266v-1.496h2.944v-3.884q0-2.775 1.013-4.102 1.013-1.351 2.823-1.351.99 0 1.737.41.748.386 1.086 1.013.386-1.206 1.351-1.978t2.413-.772q2.075 0 3.257 1.327 1.183 1.303 1.183 4.053v3.91q.627 1.375 2.485 1.375h.965v1.882h-1.327q-.917 0-1.424-.338-.506-.338-1.013-1.014-.362.7-1.062 1.038-.7.313-1.568.313zm9.772-1.882h4.705v-5.55q0-1.52-.555-2.365-.53-.868-1.761-.868-1.23 0-1.81.94-.579.918-.579 2.462zm-5.863 0h3.716v-4.199q0-1.496-.41-2.365-.386-.892-1.448-.892-.772 0-1.182.458-.386.435-.531 1.207-.145.772-.145 1.761zm15.224 1.882q-.217 0-.603-.121-.386-.12-.58-.266v-1.496h6.66v-6.61h-4.198V6.972h4.198v-4.97h-4.198V.12h6.346v13.97q.603 1.375 2.485 1.375h.458v1.882h-.82q-.917 0-1.424-.338-.506-.338-1.013-1.013-.362.7-1.062 1.037-.7.314-1.568.314zm10.132 0q-.217 0-.603-.121-.386-.12-.58-.266v-1.496h5.02V8.904L70.714.12h2.123l2.075 4.512q.241.53.507 1.158.265.603.458 1.158.193-.555.434-1.134.266-.603.507-1.11L78.942.121h2.124l-4.102 8.783v5.187q.603 1.376 2.485 1.376h2.534v1.882h-2.437q-1.086 0-1.69-.338-.578-.362-1.206-1.038-.362.7-1.061 1.038-.676.338-1.569.338zm10.556 0q-.217 0-.603-.121-.386-.12-.58-.266v-1.496h9.676V6.853h-4.825v3.595h-2.148V1.834h2.148V4.97h4.825V.12h2.148v13.97q.627 1.376 2.485 1.376h.458v1.882h-.82q-.917 0-1.424-.338-.506-.338-1.013-1.013-.362.7-1.062 1.037-.7.314-1.568.314zm13.148 0q-.217 0-.603-.121-.386-.12-.58-.266v-1.496h2.944v-4.85q0-3.667 3.885-3.667h2.389V2.003h-6.032V.12h8.18v14.405q0 1.472-.845 2.147-.845.676-2.1.676zm3.909-6.563v4.68h4.126V8.832h-2.558q-.893 0-1.23.531-.338.507-.338 1.424z"/>
</svg>
