<?xml version="1.0" encoding="UTF-8" standalone="no"?>
<svg xmlns="http://www.w3.org/2000/svg" width="129" height="21" viewBox="0 0 129 21">
	<path d="M6.977 0c5.02 0 5.804 2.382 5.804 4.218 0 1.487-1.213 2.895-2.565 3.59v.055c2.35.686 4.158 2.19 4.158 4.822 0 2.354-1.432 5.096-6.803 5.096-2.401 0-2.78-.057-3.94-.057-1.376 0-2.186.028-3.51.057-.161-.165-.161-.741 0-.906 1.89-.081 2.349-.218 2.349-2.491V3.397C2.47 1.124 2.012.986.122.904-.04.741-.04.165.122.001c1.35.026 2.132.055 3.482.055C4.764.055 6.032 0 6.977 0zM4.764 7.698h1.998c2.24 0 3.833-.823 3.833-3.148 0-2.796-1.972-3.617-3.483-3.617-2.349 0-2.349.272-2.349 1.177zm0 7.34c0 .905.35 1.836 2.24 1.836 4.104 0 4.859-1.669 4.859-3.671 0-2.464-1.54-4.574-5.236-4.574H4.763zm24.59 2.084c.121.114.121.525 0 .642-1.013-.02-1.6-.04-2.612-.04-1.033 0-1.64.021-2.632.04-.122-.116-.122-.527 0-.642 1.417-.06 1.762-.155 1.762-1.771V8.426a.76.76 0 00-.354.252l-5.53 6.615c-.237.291-.439.447-.579.909.144.804.595.873 1.705.92.122.116.122.525 0 .642-1.013-.021-1.6-.04-2.612-.04-1.033 0-1.64.021-2.632.04-.12-.116-.12-.525 0-.642 1.417-.059 1.762-.155 1.762-1.771V7.55c0-1.613-.344-1.713-1.762-1.771-.12-.115-.12-.525 0-.64 1.013.019 1.6.037 2.612.037 1.033 0 1.64-.02 2.632-.037.122.114.122.524 0 .64-1.417.059-1.762.157-1.762 1.771v6.924c.093-.005.21-.071.358-.213l5.564-6.653c.23-.276.417-.629.534-.944-.15-.77-.605-.84-1.699-.884-.122-.116-.122-.526 0-.642 1.013.02 1.6.039 2.612.039 1.032 0 1.64-.021 2.632-.039.121.115.121.525 0 .642-1.417.058-1.762.155-1.762 1.771v7.8c.001 1.616.345 1.714 1.763 1.771zm1.356.232c0-.097.061-.154.142-.154l.546-.037c.851-.062 1.094-.274 1.094-.817V6.561c0-.584-.304-.759-1.094-.818l-.526-.038c-.08 0-.162-.059-.162-.154v-.37l.041-.037c1.013.019 1.62.037 2.632.037 1.013 0 1.6-.02 2.592-.037l.041.037v.37c0 .098-.06.154-.162.154l-.526.038c-.81.062-1.114.273-1.114.818v4.045c.73 0 1.64-.019 2.126-.291 1.194-.623 1.478-1.867 1.66-2.956.203-1.204.77-2.296 2.37-2.296 1.072 0 1.437.563 1.437 1.011 0 .564-.465.779-.89.779a1.1 1.1 0 01-.75-.292c-.224-.215-.386-.312-.649-.312-.607 0-.747.643-.85 1.205-.223 1.207-.648 2.878-2.187 3.424v.098c1.397 0 2.187.835 2.733 2.199 1.055 2.624 2.086 3.948 2.794 4.006l.324.02c.102 0 .162.058.162.153v.37l-.02.04-1.6-.021c-1.58-.02-2.309-1.596-3.179-3.735-.792-1.943-1.174-2.586-3.483-2.586v4.922c0 .581.304.755 1.114.817l.526.036c.081 0 .162.06.162.155v.371l-.04.039c-.973-.039-1.56-.039-2.572-.039-1.013 0-1.66 0-2.653.039l-.04-.039v-.369zm26.526-.232c.122.114.122.525 0 .642-1.011-.02-1.6-.04-2.61-.04-1.033 0-1.641.021-2.632.04-.122-.116-.122-.527 0-.642 1.417-.06 1.762-.155 1.762-1.771V8.426a.766.766 0 00-.354.252l-5.53 6.615c-.236.291-.438.447-.578.909.144.804.595.873 1.705.92.121.116.121.525 0 .642-1.014-.021-1.602-.04-2.613-.04-1.033 0-1.64.021-2.632.04-.121-.116-.121-.525 0-.642 1.418-.059 1.763-.155 1.763-1.771V7.55c0-1.613-.345-1.713-1.763-1.771-.121-.115-.121-.525 0-.64 1.014.019 1.6.037 2.613.037 1.033 0 1.64-.02 2.632-.037.121.114.121.524 0 .64-1.418.059-1.764.157-1.764 1.771v6.924c.095-.005.212-.071.36-.213l5.563-6.653c.229-.276.417-.629.534-.944-.15-.77-.605-.84-1.7-.884-.121-.116-.121-.526 0-.642 1.014.02 1.6.039 2.612.039 1.033 0 1.64-.021 2.633-.039.12.115.12.525 0 .642-1.418.058-1.762.155-1.762 1.771v7.8c0 1.616.344 1.714 1.762 1.771zm14.358-11.98c.12.114.12.524 0 .64-1.418.059-1.762.156-1.762 1.771v7.801c0 1.615.344 1.712 1.762 1.771.12.116.12.525 0 .642-.992-.021-1.6-.04-2.633-.04-1.012 0-1.6.021-2.611.04-.121-.116-.121-.525 0-.642 1.417-.059 1.762-.155 1.762-1.771V7.398c0-1.205-.445-1.438-.932-1.438h-3.99c-.484 0-.931.231-.931 1.438v7.956c0 1.615.344 1.712 1.762 1.771.122.116.122.525 0 .642-1.013-.021-1.6-.04-2.612-.04-1.032 0-1.64.021-2.632.04-.122-.116-.122-.525 0-.642 1.417-.059 1.761-.155 1.761-1.771V7.553c0-1.613-.343-1.713-1.761-1.771-.122-.115-.122-.525 0-.64 1.012.019 2.145.037 2.612.037h7.592c.547 0 1.6-.02 2.613-.037zm8.807 4.237c.123-.116.548-.116.67 0-.022.586-.042 1.011-.042 1.674 0 .66.022 1.029.042 1.713-.123.113-.548.113-.67 0-.06-.876-.12-1.326-1.841-1.326h-1.844v4.688c0 .526.283.838.729.838H80.2c1.537 0 2.247-1.149 2.65-2.549a.947.947 0 01.71.097 30.353 30.353 0 01-.75 3.249s-1.62-.04-2.591-.04h-4.354s-1.641.021-2.633.04c-.121-.116-.121-.526 0-.643 1.418-.058 1.762-.154 1.762-1.77V7.549c0-1.614-.344-1.712-1.762-1.771-.121-.115-.121-.525 0-.64 1.014.019 2.612.037 2.612.037h5.163c.485 0 .647-.02.991-.078.063 0 .08.021.08.06.042.155.347 2.021.446 2.818a1.154 1.154 0 01-.669.1c-.445-1.342-.77-2.12-2.288-2.12h-2.125c-.485 0-.73.388-.73.854v3.89h1.843c1.725.002 1.786-.249 1.846-1.32zm8.162 2.49c.443-2.217.687-4.22.687-5.446 0-.408-.182-.609-.708-.66l-.608-.06c-.101 0-.16-.038-.16-.117v-.407l.04-.037s1.417.037 2.023.037h5.284c.608 0 2.208-.037 2.208-.037l.04.037v.37c0 .116-.08.148-.162.154l-.588.038c-.65.043-.748.292-.748.994v9.472c0 .719.455.934.811.992.44.073.595.138.607.37l.142 2.878c-.547 0-.547.021-.547.021-.243-1.089-.972-2.743-2.593-2.743h-5.87c-1.683 0-2.208 1.732-2.43 2.743l-.549-.021.142-2.878c.014-.232.226-.341.427-.37.396-.059.72-.106 1.012-.389.53-.506.892-1.907 1.54-4.941zm2.348-5.913c-.544 0-.747.273-.788.759-.165 1.964-.486 3.986-.73 5.31-.444 2.275-.95 4.202-.95 4.609 0 .233.264.332.547.332h4.434c.485 0 .728-.06.728-.779V6.713c0-.603-.121-.757-.748-.757zm21.95 11.166c.122.114.122.525 0 .642-1.013-.02-1.6-.04-2.612-.04-1.03 0-1.64.021-2.63.04-.122-.116-.122-.527 0-.642 1.415-.06 1.761-.155 1.761-1.771V8.426a.756.756 0 00-.353.252l-5.53 6.615c-.236.291-.439.447-.579.909.145.804.596.873 1.705.92.121.116.121.525 0 .642-1.013-.021-1.6-.04-2.61-.04-1.034 0-1.642.021-2.634.04-.12-.116-.12-.525 0-.642 1.418-.059 1.762-.155 1.762-1.771V7.55c0-1.613-.344-1.713-1.762-1.771-.12-.115-.12-.525 0-.64 1.013.019 1.6.037 2.611.037 1.033 0 1.642-.02 2.634-.037.12.114.12.524 0 .64-1.419.059-1.764.157-1.764 1.771v6.924c.095-.005.211-.071.358-.213l5.564-6.653c.23-.276.417-.629.535-.944-.15-.77-.604-.84-1.698-.884-.121-.116-.121-.526 0-.642 1.012.02 1.6.039 2.61.039 1.033 0 1.642-.021 2.633-.039.122.115.122.525 0 .642-1.417.058-1.762.155-1.762 1.771v7.8c0 1.616.345 1.714 1.762 1.771zm1.075.081c0-.137.08-.218.187-.218l.243-.028c.864-.108 2.203-1.6 3.592-5.261.674-1.78 1.483-2.466 2.213-2.903v-.081c-1.837-.274-4.022-1.644-4.022-4.439 0-1.891.918-4.246 5.939-4.246.945 0 2.537.027 3.429.027.837 0 3.455-.027 3.455-.027v.575c0 .109-.054.189-.188.189l-.811.057c-1.135.082-1.432.275-1.432 1.205v13.67c0 .823.353 1.124 1.459 1.205l.729.058c.107 0 .216.081.216.218v.521l-.054.057s-2.35-.057-3.401-.057c-.972 0-3.481.057-3.481.057l-.055-.057v-.521c0-.137.082-.218.217-.218l.7-.058c1.136-.086 1.485-.437 1.485-1.205V8.848c-2.861 0-3.4.794-4.534 3.7-1.161 2.971-2.16 5.174-4.075 5.204l-1.781.025-.027-.055zm8.313-9.395h2.106V1.974c0-.907-.107-.988-2.456-.988-1.512 0-3.563.438-3.563 2.985 0 2.904 1.674 3.837 3.914 3.837z"/>
</svg>
