<?xml version="1.0" encoding="UTF-8" standalone="no"?>
<svg xmlns="http://www.w3.org/2000/svg" width="395" height="55" viewBox="0 0 395 55">
	<path d="M104.522 51.625c.383.355.383 1.603 0 1.959-3.196-.06-5.05-.119-8.246-.119-3.26 0-5.177.06-8.31.119-.383-.356-.383-1.604 0-1.959 4.475-.179 5.561-.475 5.561-5.401V22.421c0-4.926-1.086-5.223-5.561-5.401-.383-.355-.383-1.603 0-1.958 3.196.059 5.05.118 8.246.118 3.26 0 5.178-.06 8.31-.118.383.355.383 1.603 0 1.958-4.475.179-5.561.476-5.561 5.401v23.803c0 4.926 1.087 5.222 5.561 5.401zm20.515 0c.383.355.383 1.603 0 1.959-3.196-.06-5.05-.119-8.246-.119-3.26 0-5.177.06-8.31.119-.383-.356-.383-1.604 0-1.959 4.475-.179 5.561-.475 5.561-5.401V22.421c0-4.926-1.086-5.223-5.561-5.401-.383-.355-.383-1.603 0-1.958 3.196.059 5.05.118 8.246.118 3.26 0 5.178-.06 8.31-.118.383.355.383 1.603 0 1.958-4.475.179-5.561.476-5.561 5.401v10.43c2.237-.179 3.573-1.051 4.858-2.298l10.738-10.446c3.075-3.17.518-2.885-1.79-3.087-.384-.355-.384-1.603 0-1.958 3.004.059 4.666.118 7.223.118 2.557 0 3.068-.06 6.072-.118.384.355.384 1.603 0 1.958-2.557.297-5.369.416-8.309 3.324l-8.949 8.963c-2.09 2.096-2.365 2.493-2.365 2.908 0 .476.192.891.767 1.484l13.998 15.433c2.148 2.469 4.481 2.339 5.625 2.493.384.355.384 1.603 0 1.959-3.004-.06-3.963-.119-6.456-.119-1.917 0-3.004.06-4.283.119-.256 0-.32-.179-.32-.356 0-1.08-.006-2.659-1.278-4.096l-10.418-11.753c-1.279-1.525-2.966-2.19-5.114-2.249v11.094c.001 4.926 1.088 5.222 5.562 5.401zm43.076 0c.383.355.383 1.603 0 1.959-3.196-.06-5.05-.119-8.246-.119-3.26 0-5.177.06-8.31.119-.383-.356-.383-1.604 0-1.959 4.475-.179 5.561-.475 5.561-5.401V22.421c0-4.926-1.086-5.223-5.561-5.401-.383-.355-.383-1.603 0-1.958 3.196.059 5.05.118 8.246.118 3.26 0 5.178-.06 8.31-.118.383.355.383 1.603 0 1.958-4.474.179-5.561.476-5.561 5.401v23.803c0 4.926 1.087 5.222 5.561 5.401zm14.379-17.332v11.931c0 4.927 1.086 5.223 5.561 5.401.383.355.383 1.603 0 1.959-3.196-.06-5.05-.119-8.246-.119-3.26 0-5.178.06-8.31.119-.383-.356-.383-1.604 0-1.959 4.474-.179 5.561-.475 5.561-5.401V22.421c0-4.926-1.087-5.223-5.561-5.401-.383-.355-.383-1.603 0-1.958 3.196.059 8.246.118 8.246.118h16.318c1.515 0 1.886-.035 3.004-.237.154 0 .23.042.256.178.09.451 1.055 6.174 1.388 8.607l-1.981.296c-1.407-4.095-2.429-6.47-7.223-6.47h-6.711c-1.534 0-2.301.594-2.301 2.019v12.465h5.944c5.433 0 5.625-.771 5.817-4.036.383-.356 1.726-.356 2.109 0-.064 1.78-.128 3.086-.128 5.104 0 2.018.064 3.146.128 5.224-.384.355-1.726.355-2.109 0-.192-2.671-.384-4.036-5.817-4.036h-5.945zm41.224 19.765c-10.994 0-20.007-7.301-20.007-18.994 0-11.634 8.182-20.656 19.623-20.656 11.186 0 20.582 7.775 20.582 19.528 0 11.871-7.99 20.122-20.198 20.122zm-13.871-20.003c0 11.396 7.479 17.984 15.149 17.984 7.286 0 12.783-6.351 12.783-16.976 0-12.347-6.583-18.639-15.276-18.639-5.816.002-12.656 5.166-12.656 17.631zm54.007 17.57c.384.355.384 1.603 0 1.959-3.196-.06-5.05-.119-8.245-.119-3.261 0-5.178.06-8.31.119-.384-.356-.384-1.604 0-1.959 4.474-.179 5.561-.475 5.561-5.401V22.421c0-4.926-1.087-5.223-5.561-5.401-.384-.355-.384-1.603 0-1.958 3.195.059 5.049.118 8.245.118 2.429 0 6.392-.415 7.99-.415 4.026 0 7.989.178 11.058 2.849 2.301 2.019 3.388 4.452 3.388 7.42 0 6.232-5.753 9.318-8.501 10.149l8.054 12.465c1.662 2.576 3.26 4.571 6.137 4.571.255.475.287 1.015.063 1.424-.64.297-1.726.416-2.685.416-3.835 0-6.603-2.517-8.438-5.283l-6.838-10.329c-.914-1.383-2.109-2.255-7.479-2.255v10.031c0 4.927 1.086 5.223 5.561 5.402zm-5.561-31.044v13.593h3.067c6.2 0 10.739-1.662 10.739-9.081 0-7.005-4.603-8.311-8.502-8.311-4.537 0-5.304 2.078-5.304 3.799zm43.076 31.044c.384.355.384 1.603 0 1.959-3.196-.06-5.05-.119-8.245-.119-3.261 0-5.178.06-8.31.119-.384-.356-.384-1.604 0-1.959 4.474-.179 5.561-.475 5.561-5.401V22.421c0-4.926-1.087-5.223-5.561-5.401-.384-.355-.384-1.603 0-1.958 3.195.059 5.049.118 8.245.118 2.429 0 6.392-.415 7.99-.415 4.026 0 7.989.178 11.058 2.849 2.301 2.019 3.388 4.452 3.388 7.42 0 6.232-5.753 9.318-8.501 10.149l8.054 12.465c1.662 2.576 3.26 4.571 6.137 4.571.255.475.287 1.015.063 1.424-.64.297-1.726.416-2.685.416-3.835 0-6.603-2.517-8.438-5.283l-6.838-10.329c-.914-1.383-2.109-2.255-7.479-2.255v10.031c.001 4.927 1.087 5.223 5.561 5.402zm-5.56-31.044v13.593h3.067c6.2 0 10.739-1.662 10.739-9.081 0-7.005-4.603-8.311-8.502-8.311-4.538 0-5.304 2.078-5.304 3.799z"/>
	<path d="M335.559 51.625c.384.355.384 1.603 0 1.959-2.364-.06-5.561-.119-8.182-.119-2.492 0-3.323.06-5.688.119-.384-.356-.384-1.604 0-1.959 2.78-.179 4.705-.546 6.392-4.215l14.21-30.883c.729-1.591 1.214-2.119 2.153-2.119.896 0 1.26.635 1.727 1.78l13.104 32.172c1.182 3.057 3.272 3.057 5.752 3.265.384.355.384 1.603 0 1.959-2.364-.06-4.666-.119-7.286-.119-2.493 0-6.009.06-8.374.119-.383-.356-.383-1.604 0-1.959 3.043-.202 5.683.012 4.73-2.434l-3.899-10.031h-13.295c-1.534 0-1.918.237-2.237 1.009l-3.516 8.606c-.999 2.44 2.005 2.695 4.409 2.85zm13.615-14.958l-6.2-15.849h-.128l-6.404 15.06c-.269.641.191.789 1.61.789zm2.684-28.788l-9.204 3.442c-1.343.534-2.109.713-2.685.713-.576 0-.959-.416-.959-.891 0-.415.128-.712.959-1.246l7.926-5.105c1.829.79 3.152 1.822 3.963 3.087zm40.168 15.789c-.575.415-1.342.344-2.077.355-1.278-3.917-3.26-7.598-9.466-7.598-4.085 0-7 3.027-7 6.648 0 5.817 8.668 7.906 11.794 9.141 4.608 1.828 8.763 4.678 8.763 10.328 0 6.055-6.175 11.516-13.896 11.516-5.67 0-7.453-1.365-11.48-1.365-.767-2.908-1.022-4.452-1.278-9.022.614-.303 1.291-.415 2.077-.178 1.406 5.905 5.255 8.429 11.225 8.429 5.101 0 7.983-2.493 7.983-7.301 0-6.814-6.494-7.931-10.521-9.557-4.954-2.001-9.23-4.861-9.23-10.388 0-6.292 6.328-10.269 12.17-10.269 6.239 0 6.099 1.128 9.793 1.603.665 3.146.92 4.808 1.143 7.658zM85.258.913c0 .304-.102.582-.304.835-.177.253-.38.381-.607.381-1.871.176-3.402.783-4.591 1.82-1.189 1.012-2.416 2.959-3.679 5.843L56.725 53.389c-.126.405-.48.606-1.062.606-.455 0-.81-.201-1.063-.606L43.749 30.7 31.266 53.389c-.253.405-.607.606-1.062.606-.557 0-.924-.201-1.101-.606L10.094 9.792c-1.189-2.707-2.441-4.59-3.756-5.653-1.316-1.088-3.15-1.757-5.502-2.01-.202 0-.392-.102-.569-.305A1.198 1.198 0 010 1.065C0 .356.202.002.607.002c1.695 0 3.466.076 5.312.229 1.72.151 3.339.227 4.857.226C12.319.458 14.14.383 16.24.231c2.2-.152 4.148-.229 5.843-.229.404 0 .606.354.606 1.063 0 .708-.126 1.063-.379 1.063-1.695.125-3.035.555-4.022 1.289-.961.733-1.441 1.694-1.441 2.883 0 .607.202 1.366.606 2.277l15.708 35.477 8.916-16.847-8.309-17.416c-1.492-3.111-2.719-5.109-3.68-5.995-.961-.909-2.416-1.467-4.364-1.668-.176 0-.354-.104-.531-.305a1.344 1.344 0 01-.228-.759c0-.709.178-1.063.531-1.063 1.695 0 3.25.076 4.667.229 1.366.151 2.82.226 4.363.226 1.518 0 3.124-.076 4.819-.226a59.454 59.454 0 015.16-.229c.406 0 .608.354.608 1.063 0 .708-.126 1.063-.379 1.063-3.39.226-5.084 1.188-5.084 2.882 0 .76.392 1.936 1.176 3.529l5.5 11.155 5.465-10.207c.758-1.441 1.138-2.656 1.138-3.642 0-2.327-1.695-3.567-5.084-3.718-.303 0-.455-.355-.455-1.063 0-.252.076-.493.228-.722.151-.228.303-.341.455-.341 1.215 0 2.706.076 4.477.229 1.696.151 3.087.226 4.174.226.784 0 1.935-.063 3.453-.188C62.099.088 63.705 0 64.996 0c.303 0 .455.305.455.91 0 .81-.278 1.216-.834 1.216-1.973.201-3.567.745-4.782 1.63-1.189.886-2.681 2.896-4.477 6.033l-7.285 13.47 9.865 20.109 14.57-33.883c.506-1.238.759-2.378.759-3.416 0-2.478-1.696-3.793-5.083-3.943-.304 0-.457-.355-.457-1.063 0-.709.228-1.063.684-1.063 1.239 0 2.706.076 4.401.229 1.568.151 2.884.226 3.945.226 1.114 0 2.403-.076 3.87-.226A41.582 41.582 0 0184.726 0c.354.003.532.307.532.913"/>
</svg>
