<?xml version="1.0" encoding="UTF-8" standalone="no"?>
<svg xmlns="http://www.w3.org/2000/svg" width="405" height="403" viewBox="0 0 405 403">
	<path d="M98.382 400.171c.369.342.369 1.542 0 1.885-3.076-.057-4.86-.114-7.937-.114-3.138 0-4.983.058-7.998.114-.369-.343-.369-1.543 0-1.885 4.307-.172 5.353-.457 5.353-5.199v-22.908c0-4.742-1.046-5.027-5.353-5.199-.369-.343-.369-1.543 0-1.885 3.076.057 4.86.113 7.937.113 3.138 0 4.983-.057 7.998-.113.369.342.369 1.542 0 1.885-4.307.172-5.353.457-5.353 5.199v22.908c.001 4.742 1.047 5.027 5.353 5.199zm19.747 0c.369.342.369 1.542 0 1.885-3.076-.057-4.86-.114-7.937-.114-3.138 0-4.983.058-7.998.114-.369-.343-.369-1.543 0-1.885 4.307-.172 5.353-.457 5.353-5.199v-22.908c0-4.742-1.046-5.027-5.353-5.199-.369-.343-.369-1.543 0-1.885 3.076.057 4.86.113 7.937.113 3.138 0 4.983-.057 7.998-.113.369.342.369 1.542 0 1.885-4.307.172-5.353.457-5.353 5.199v10.037c2.153-.172 3.439-1.012 4.676-2.211l10.336-10.055c2.959-3.051.499-2.776-1.723-2.971-.369-.343-.369-1.543 0-1.885 2.892.057 4.491.113 6.952.113 2.461 0 2.953-.057 5.845-.113.369.342.369 1.542 0 1.885-2.461.285-5.168.4-7.998 3.199l-8.613 8.627c-2.012 2.017-2.276 2.398-2.276 2.799 0 .457.185.857.738 1.428l13.474 14.854c2.067 2.377 4.313 2.251 5.414 2.4.369.342.369 1.542 0 1.885-2.892-.057-3.814-.114-6.214-.114-1.846 0-2.892.058-4.122.114-.246 0-.308-.172-.308-.343 0-1.04-.006-2.56-1.23-3.942l-10.028-11.311c-1.23-1.469-2.854-2.108-4.922-2.166v10.678c-.001 4.742 1.045 5.027 5.352 5.199zm41.462 0c.369.342.369 1.542 0 1.885-3.076-.057-4.86-.114-7.937-.114-3.138 0-4.983.058-7.998.114-.369-.343-.369-1.543 0-1.885 4.307-.172 5.353-.457 5.353-5.199v-22.908c0-4.742-1.046-5.027-5.353-5.199-.369-.343-.369-1.543 0-1.885 3.076.057 4.86.113 7.937.113 3.138 0 4.983-.057 7.998-.113.369.342.369 1.542 0 1.885-4.307.172-5.353.457-5.353 5.199v22.908c0 4.742 1.046 5.027 5.353 5.199zm46.016 0c.369.342.369 1.542 0 1.885-3.076-.057-4.86-.114-7.937-.114-3.138 0-4.983.058-7.998.114-.369-.343-.369-1.543 0-1.885 4.307-.172 5.353-.457 5.353-5.199v-11.369h-21.041v11.369c0 4.742 1.046 5.027 5.353 5.199.369.342.369 1.542 0 1.885-3.076-.057-4.86-.114-7.937-.114-3.138 0-4.983.058-7.998.114-.369-.343-.369-1.543 0-1.885 4.307-.172 5.353-.457 5.353-5.199v-22.908c0-4.742-1.046-5.027-5.353-5.199-.369-.343-.369-1.543 0-1.885 3.076.057 4.86.113 7.937.113 3.138 0 4.983-.057 7.998-.113.369.342.369 1.542 0 1.885-4.307.172-5.353.457-5.353 5.199v9.141h21.041v-9.141c0-4.742-1.046-5.027-5.353-5.199-.369-.343-.369-1.543 0-1.885 3.076.057 4.86.113 7.937.113 3.138 0 4.983-.057 7.998-.113.369.342.369 1.542 0 1.885-4.307.172-5.353.457-5.353 5.199v22.908c.001 4.742 1.047 5.027 5.353 5.199zm25.405-22.738c.369-.342 1.661-.342 2.03 0-.062 1.715-.123 2.971-.123 4.914 0 1.941.062 3.027.123 5.027-.369.342-1.661.342-2.03 0-.185-2.571-.369-3.885-5.599-3.885h-5.599v13.768c0 1.543.861 2.457 2.215 2.457h8.367c4.676 0 6.829-3.371 8.06-7.484a3.023 3.023 0 012.153.285c-.492 2.914-1.415 6.685-2.276 9.541 0 0-4.922-.114-7.875-.114H217.23s-4.983.058-7.998.114c-.369-.343-.369-1.543 0-1.885 4.307-.172 5.353-.457 5.353-5.199v-22.908c0-4.742-1.046-5.027-5.353-5.199-.369-.343-.369-1.543 0-1.885 3.076.057 7.937.113 7.937.113h15.688c1.477 0 1.969-.057 3.015-.229.185 0 .246.058.246.172.123.457 1.046 5.941 1.354 8.283a3.655 3.655 0 01-2.03.286c-1.354-3.942-2.338-6.228-6.952-6.228h-6.46c-1.477 0-2.215 1.143-2.215 2.514v11.426h5.599c5.229.001 5.413-.742 5.598-3.884zm28.482 22.738c.369.342.369 1.542 0 1.885-3.076-.057-4.86-.114-7.937-.114-3.138 0-4.983.058-7.998.114-.369-.343-.369-1.543 0-1.885 4.307-.172 5.353-.457 5.353-5.199v-22.908c0-4.742-1.046-5.027-5.353-5.199-.369-.343-.369-1.543 0-1.885 3.076.057 4.86.113 7.937.113 3.138 0 4.983-.057 7.998-.113.369.342.369 1.542 0 1.885-4.307.172-5.353.457-5.353 5.199v22.908c.001 4.742 1.047 5.027 5.353 5.199zm40.358-28.736h-.123l-13.843 30.221c-.246.457-.492.629-.861.629s-.751-.223-.923-.629l-12.735-29.649h-.123l-2.338 22.909c-.326 3.216 0 4.97 4.061 5.256.369.342.369 1.542 0 1.885a223.892 223.892 0 00-5.783-.114c-1.476 0-3.445.058-5.291.114-.369-.343-.369-1.543 0-1.885 3.507-.286 4.245-1.72 4.608-5.143l2.467-23.537c.431-4.284.062-4.398-4.184-4.627-.369-.343-.369-1.543 0-1.885l8.921.113 12.612 29.021c.246.515.308.743.492.743.123 0 .308-.229.554-.8l13.043-28.965 8.06-.113c.369.342.369 1.542 0 1.885-4.184.229-4.461 1.028-4.227 4.113l1.833 24.051c.363 4.73.548 4.971 4.731 5.143.369.342.369 1.542 0 1.885-2.043-.057-4.86-.114-6.706-.114s-3.691.058-6.583.114c-.369-.343-.369-1.543 0-1.885 3.999-.172 4.227-.229 3.919-4.856zm29.526 28.736c.369.342.369 1.542 0 1.885-3.076-.057-4.86-.114-7.937-.114-3.138 0-4.983.058-7.998.114-.369-.343-.369-1.543 0-1.885 4.307-.172 5.353-.457 5.353-5.199v-22.908c0-4.742-1.046-5.027-5.353-5.199-.369-.343-.369-1.543 0-1.885 3.076.057 4.86.113 7.937.113 3.138 0 4.983-.057 7.998-.113.369.342.369 1.542 0 1.885-4.307.172-5.353.457-5.353 5.199v22.908c0 4.742 1.046 5.027 5.353 5.199zm3.688 1.885c-.369-.343-.369-1.543 0-1.885 4.307-.172 5.353-.457 5.353-5.199v-22.908c0-4.742-1.046-5.027-5.353-5.199-.369-.343-.369-1.543 0-1.885 3.076.057 4.86.113 7.937.113 3.138 0 4.983-.057 7.998-.113.369.342.369 1.542 0 1.885-4.307.172-5.353.457-5.353 5.199v24.793c0 1.771 1.107 2.857 2.892 2.857h6.952c4.676 0 6.337-3.371 7.567-7.484a3.67 3.67 0 012.03.285c-.369 2.971-.984 6.685-1.6 9.541 0 0-5.66-.114-7.34-.114h-13.086c.001 0-4.982.057-7.997.114zm50.57-37.076c11.813 0 21.226 8.74 21.226 19.366 0 14.054-11.443 17.71-20.118 17.71-6.337 0-8.921-.114-11.197-.114-3.138 0-4.983.058-7.998.114-.369-.343-.369-1.543 0-1.885 4.307-.172 5.353-.457 5.353-5.199v-22.908c0-4.742-1.046-5.027-5.353-5.199-.369-.343-.369-1.543 0-1.885 3.076.057 4.86.113 7.937.113 2.398 0 6.212-.113 10.15-.113zm-.8 35.133c8.675 0 16.119-2.856 16.119-14.396 0-8.798-4.368-18.796-17.657-18.796-3.015 0-5.168.801-5.168 2.8V397.2c0 1.828.677 2.913 6.706 2.913zM84.742 345.191c0 .327-.102.626-.302.897-.176.271-.377.408-.604.408-1.859.189-3.381.841-4.563 1.955-1.181 1.088-2.401 3.18-3.657 6.277L56.381 401.56c-.125.436-.478.652-1.056.652-.453 0-.805-.217-1.057-.652l-10.785-24.373-12.407 24.373c-.251.436-.604.652-1.056.652-.554 0-.918-.217-1.094-.652l-18.895-46.831c-1.182-2.907-2.426-4.931-3.733-6.072-1.308-1.169-3.13-1.889-5.469-2.16-.2 0-.389-.109-.565-.327a1.37 1.37 0 01-.264-.815c0-.761.201-1.142.604-1.142 1.685 0 3.444.081 5.28.245a50.64 50.64 0 004.827.243c1.534.001 3.344-.08 5.431-.243 2.187-.164 4.123-.245 5.808-.245.402 0 .603.381.603 1.142 0 .76-.125 1.142-.377 1.142-1.685.135-3.017.597-3.998 1.385-.956.788-1.433 1.821-1.433 3.098 0 .652.201 1.467.603 2.446l15.613 38.108 8.862-18.097-8.259-18.708c-1.483-3.342-2.703-5.488-3.658-6.439-.956-.979-2.401-1.576-4.337-1.793-.175 0-.352-.11-.528-.327a1.513 1.513 0 01-.226-.814c0-.761.176-1.142.528-1.142 1.685 0 3.231.081 4.639.245 1.357.163 2.803.243 4.336.243 1.509 0 3.105-.081 4.79-.243a54.45 54.45 0 015.128-.245c.403 0 .604.381.604 1.142 0 .76-.125 1.142-.377 1.142-3.369.243-5.054 1.276-5.054 3.097 0 .815.39 2.079 1.169 3.791l5.467 11.983 5.432-10.965c.754-1.549 1.132-2.853 1.132-3.912 0-2.5-1.685-3.831-5.054-3.994-.301 0-.452-.382-.452-1.142 0-.271.075-.53.227-.775.15-.244.301-.366.452-.366 1.208 0 2.689.081 4.45.245 1.686.163 3.068.243 4.149.243.779 0 1.923-.067 3.432-.202 1.911-.191 3.507-.286 4.79-.286.301 0 .452.327.452.978 0 .87-.276 1.306-.829 1.306-1.961.217-3.545.801-4.753 1.752-1.181.951-2.665 3.111-4.45 6.48L47.782 369.2l9.805 21.603 14.482-36.397c.503-1.331.754-2.554.754-3.669 0-2.663-1.686-4.074-5.053-4.237-.302 0-.454-.382-.454-1.142 0-.761.227-1.142.68-1.142 1.232 0 2.689.081 4.374.245 1.559.163 2.867.243 3.922.243 1.107 0 2.388-.081 3.847-.243a38.042 38.042 0 014.073-.245c.353-.003.53.324.53.975"/>
	<path fill="none" d="M54.56 0h405v403h-405z"/>
</svg>
