<svg xmlns="http://www.w3.org/2000/svg" width="779.935" height="73.884" version="1.0">
	<path fill="#999" d="M232.037 1.288h18.13l22.897 48.843V1.288h15.39V72.5h-18.131l-22.896-48.843V72.5h-15.39V1.288m110.558 58.239H317.21l-4.006 12.974h-16.318l23.318-71.213h19.354L362.876 72.5h-16.318l-3.963-12.974m-21.336-13.212h17.245l-8.601-28.333-8.644 28.333m72.988-13.451c3.402 0 5.833-.716 7.295-2.147 1.49-1.43 2.235-3.784 2.235-7.059 0-3.243-.745-5.565-2.235-6.964-1.462-1.399-3.893-2.098-7.295-2.098h-6.83v18.268h6.83m-6.83 12.688V72.5h-16.234V1.288h24.793c8.293 0 14.364 1.574 18.216 4.722 3.879 3.148 5.818 8.125 5.818 14.93 0 4.706-1.012 8.57-3.036 11.59-1.995 3.02-5.017 5.247-9.065 6.678 2.22.572 4.202 1.876 5.945 3.91 1.771 2.004 3.556 5.057 5.355 9.159l8.813 20.224h-17.288l-7.674-17.696c-1.546-3.561-3.12-5.994-4.723-7.298-1.574-1.304-3.682-1.955-6.325-1.955h-4.596m50.22-44.264h16.233V72.5h-16.233V1.288m82.138 67.302a38.597 38.597 0 01-9.319 3.959c-3.232.89-6.606 1.335-10.12 1.335-10.485 0-18.791-3.307-24.92-9.921-6.127-6.646-9.191-15.645-9.191-26.997 0-11.384 3.064-20.383 9.192-26.997C481.544 3.323 489.85 0 500.336 0c3.513 0 6.887.445 10.12 1.336 3.232.89 6.338 2.21 9.318 3.958v14.74c-3.008-2.322-5.974-4.023-8.897-5.105-2.924-1.08-6.002-1.621-9.234-1.621-5.791 0-10.345 2.098-13.662 6.296-3.317 4.197-4.975 9.985-4.975 17.362 0 7.345 1.658 13.117 4.975 17.314 3.317 4.198 7.871 6.296 13.662 6.296 3.232 0 6.31-.54 9.234-1.621 2.923-1.081 5.889-2.783 8.897-5.104V68.59m13.493-67.302H549.5v27.14h23.95V1.288h16.233V72.5H573.45V42.308H549.5v30.193h-16.234V1.288m64.85 0h58.02v13.88h-20.872V72.5H619.03V15.168h-20.914V1.288m66.369 0h43.81v13.88H680.72v13.26h25.931v13.88H680.72v16.313h28.503V72.5h-44.737V1.288m59.031 0h18.132l22.895 48.843V1.288h15.39V72.5h-18.13l-22.896-48.843V72.5h-15.39V1.288" font-family="Bitstream Vera Sans" font-size="91.846" font-weight="700" style="line-height:125%;text-align:start"/>
	<path fill="#4d4d4d" d="M0 1.288h15.56L26.437 53.04 37.232 1.288h15.644L63.67 53.04 74.549 1.288H89.98L75.14 72.5H56.417L44.991 18.364 33.69 72.5H14.968L0 1.288m100.649 0h16.234V72.5h-16.234V1.288m32.214 0h16.234v25.995L172.5 1.288h18.848L161.03 35.01l33.437 37.49h-20.324l-25.046-28.046v28.047h-16.234V1.288m66.96 0h16.233V72.5h-16.234V1.288" font-family="Bitstream Vera Sans" font-size="91.846" font-weight="700" style="line-height:125%;text-align:start"/>
</svg>
