<svg xmlns="http://www.w3.org/2000/svg" width="936" height="89">
	<path fill="#696969" d="M50.247 87.627H31.926L0 1.287h18.873l17.77 55.456q.859 2.757 1.655 5.637.797 2.88 1.471 5.27.735 2.819 1.41 5.393.612-2.513 1.286-5.27.613-2.329 1.41-5.209.858-2.941 1.715-5.821L63.3 1.287h18.69zm41.118 0V1.287h18.076v86.34zm94.551 0L154.909 47.98l-10.662 8.15v31.497H126.17V1.287h18.077v39.156l38.911-39.156h21.08l-36.89 36.521 39.892 49.819zm30.944 0V1.287h18.078v86.34zm77.517 0h-18.322l-31.926-86.34h18.874l17.77 55.456q.858 2.757 1.655 5.637.796 2.88 1.47 5.27l1.41 5.393q.612-2.513 1.286-5.27.613-2.329 1.41-5.209.858-2.941 1.716-5.821l17.709-55.456h18.69zm41.117 0V1.287h67.895v13.971h-49.818V36.95h46.08v13.972h-46.08v22.733h52.33v13.972zm143.144 0L458.6 54.843h-21.202v32.784h-18.077V1.287h43.14q8.088 0 14.093 1.838 6.067 1.777 10.111 5.147 4.045 3.31 6.005 8.09 2.023 4.717 2.023 10.661 0 4.841-1.471 8.886-1.41 3.983-3.983 7.108-2.513 3.125-6.005 5.27-3.493 2.083-7.599 3.063l23.347 36.277zm-2.145-59.868q0-6.312-4.167-9.376-4.105-3.064-11.765-3.064h-23.163v25.492h23.653q4.045 0 6.925-.92 2.94-.98 4.78-2.696 1.899-1.777 2.818-4.166.92-2.39.92-5.27zM580.42 62.748q0 5.883-2.145 10.724-2.145 4.78-6.68 8.21-4.473 3.432-11.52 5.332-6.985 1.838-16.667 1.838-8.579 0-15.135-1.532-6.557-1.532-11.275-4.534-4.658-3.003-7.599-7.415-2.88-4.473-4.167-10.233l17.464-2.88q.736 2.88 2.145 5.27 1.41 2.39 3.86 4.167 2.513 1.715 6.19 2.696 3.737.919 9.007.919 9.192 0 14.033-2.758 4.902-2.818 4.902-8.762 0-3.554-1.96-5.822-1.962-2.267-5.21-3.737-3.247-1.471-7.475-2.452-4.228-.98-8.824-1.9-3.677-.857-7.354-1.776-3.676-.92-7.046-2.206-3.31-1.287-6.19-3.064-2.88-1.777-5.024-4.35-2.084-2.636-3.31-6.129-1.163-3.492-1.163-8.21 0-6.435 2.573-11.03 2.574-4.596 7.108-7.476 4.596-2.942 10.908-4.29Q536.177 0 543.653 0q8.456 0 14.462 1.348 6.066 1.287 10.11 3.983 4.106 2.696 6.435 6.802 2.39 4.044 3.492 9.498l-17.525 2.39q-1.348-5.577-5.515-8.395-4.106-2.819-11.826-2.819-4.78 0-7.967.858-3.125.796-5.024 2.206-1.839 1.41-2.635 3.309-.797 1.838-.797 3.922 0 3.186 1.532 5.27 1.532 2.022 4.29 3.431 2.757 1.348 6.556 2.329 3.86.919 8.456 1.9 4.045.857 8.028 1.837 3.983.92 7.598 2.206 3.616 1.287 6.74 3.126 3.126 1.838 5.393 4.534 2.329 2.635 3.616 6.312 1.348 3.676 1.348 8.701zm13.42 24.879V1.287h18.076v86.34zm73.777-72.369v72.369h-18.076V15.258h-27.882V1.287h73.9v13.971zm89.465 72.369l-7.66-22.06h-32.905l-7.66 22.06H690.78l31.497-86.34H743.6l31.374 86.34zm-20.221-60.481l-1.47-4.29q-.675-2.206-1.226-3.983-.49-1.838-.858-3.002-.307-1.164-.368-1.287-.061.184-.368 1.348-.306 1.164-.857 2.941-.49 1.777-1.226 3.983-.674 2.145-1.41 4.29l-8.517 24.817h24.817zm79.538-11.888v72.369h-18.077V15.258h-27.881V1.287h73.9v13.971zm119.491 28.8q0 10.111-3.003 18.384-3.002 8.272-8.64 14.155-5.637 5.882-13.787 9.069-8.089 3.186-18.322 3.186-10.846 0-18.996-3.309-8.089-3.37-13.542-9.314-5.454-6.005-8.212-14.216-2.696-8.211-2.696-17.955 0-10.11 2.819-18.26 2.88-8.15 8.395-13.849 5.576-5.76 13.665-8.824Q881.72 0 892.26 0q10.54 0 18.628 3.125 8.15 3.125 13.665 8.885 5.576 5.76 8.456 13.91 2.88 8.089 2.88 18.138zm-18.445 0q0-6.801-1.654-12.255-1.593-5.515-4.78-9.437-3.186-3.922-7.905-6.005-4.657-2.145-10.846-2.145-6.311 0-11.09 2.145-4.72 2.083-7.906 6.005-3.186 3.922-4.78 9.437-1.592 5.454-1.592 12.255 0 6.741 1.593 12.378 1.654 5.577 4.84 9.621 3.187 4.044 7.905 6.312 4.719 2.267 10.908 2.267 6.618 0 11.397-2.267 4.78-2.329 7.844-6.373 3.125-4.106 4.596-9.682 1.47-5.638 1.47-12.256z" font-family="Liberation Sans" font-size="125.496" font-weight="700" letter-spacing="0" word-spacing="0"/>
</svg>
