<?xml version="1.0" encoding="UTF-8" standalone="no"?>
<svg xmlns="http://www.w3.org/2000/svg" width="383" height="36" version="1.0">
	<g font-family="DejaVu Sans" font-size="48" font-weight="700">
		<path style="line-height:125%;-inkscape-font-specification:'DejaVu Sans Bold';text-align:start" fill="#0b2645" d="M0 .34h8.648l6.047 25.43 6-25.43h8.696l6 25.43L41.437.34h8.579l-8.25 34.992H31.359L25.008 8.73l-6.281 26.602H8.32L0 .34m55.945 0h9.024v34.992h-9.024V.34m17.907 0h9.023v12.773L95.883.34h10.476L89.508 16.91l18.586 18.422H96.797L82.875 21.551v13.781h-9.023V.34m37.218 0h9.024v34.992h-9.024V.34"/>
		<path style="line-height:125%;-inkscape-font-specification:'DejaVu Sans Bold';text-align:start" fill="#0a4e98" d="M126.845 0h11.485l7.968 18.727L154.314 0h11.461v34.992h-8.531V9.398l-8.063 18.868h-5.718L135.4 9.398v25.594h-8.555V0m69.047 28.617h-14.11l-2.226 6.375h-9.07L183.446 0h10.759l12.96 34.992h-9.07l-2.203-6.375m-11.86-6.492h9.587l-4.781-13.922-4.805 13.922M211.783 0h10.078l12.727 24V0h8.554v34.992h-10.078l-12.726-24v24h-8.555V0m40.219 0h9.023v20.977c0 2.89.469 4.96 1.406 6.21.953 1.235 2.5 1.852 4.64 1.852 2.157 0 3.704-.617 4.642-1.852.953-1.25 1.43-3.32 1.43-6.21V0h9.023v20.977c0 4.953-1.243 8.64-3.727 11.062-2.484 2.422-6.273 3.633-11.367 3.633-5.078 0-8.86-1.211-11.344-3.633-2.484-2.422-3.726-6.11-3.726-11.062V0m58.734 28.617h-14.11l-2.226 6.375h-9.07L298.29 0h10.758l12.961 34.992h-9.07l-2.203-6.375m-11.86-6.492h9.587L303.68 8.203l-4.804 13.922M326.627 0h9.023v28.172h15.844v6.82h-24.867V0m30.562 0h24.352v6.82h-15.328v6.516h14.414v6.82h-14.414v8.016h15.843v6.82H357.19V0"/>
	</g>
</svg>
