<svg xmlns="http://www.w3.org/2000/svg" width="733.381" height="98.405" version="1.0">
	<g font-family="Bitstream Vera Sans" font-weight="400">
		<path fill="#e8e8e8" d="M14.375 9.11c-6.354.612-4.823 8.365-2.988 12.352 6.946 25.262 13.486 50.648 20.27 75.96 5.925 2.522 13.702-.406 14.5-7.313 5.497-23.39 13.01-46.373 18.75-69.75 6.93 25.715 14.147 51.354 21.218 77.032 5.327 2.506 12.288.075 13.438-6.032 6.568-27.116 14.724-54.016 21.844-81.062-4.745-2.545-11.672-1.171-12.969 4.594-5.318 22.773-11.01 45.959-16.625 68.437-2.257-2.917-1.007-7.997-2.688-11.5-4.643-21.024-11.29-41.391-16.906-62.125-5.406-.112-14.072-1.789-15.906 5.188-5.748 23.13-12.794 46.183-18.875 69.343C31.826 59.48 26.237 34.72 20.407 10.016c-1.98-.48-3.968-1.07-6.032-.907zm125.47 0c-7.076.782-5.831 9.682-5.47 14.718v73.438c4.816 2.695 12.225.547 11.844-5.782-.392-27.088-.095-54.233-.187-81.343-2.02-.546-4.063-1.266-6.188-1.032zm31.655 0c-7.075.782-5.83 9.682-5.468 14.718v73.438c4.815 2.695 12.225.547 11.843-5.782.289-8.21-.971-16.518.22-24.687 4.655-4.553 9.328-9.088 14-13.625 10.427 14.822 20.848 29.65 31.28 44.469 3.976.222 12.234 2.04 12.313-4.032-2.36-5.442-7.735-9.081-10.546-14.425l-24.86-33.825a18431.48 18431.48 0 0036.437-35.218c-7.52-1.295-17.576-1.794-21.781 6l-37.25 37.187V10.141c-2.02-.546-4.063-1.266-6.188-1.032zm84.625 0c-7.075.782-5.83 9.682-5.468 14.718v73.438c4.815 2.695 12.225.547 11.843-5.782-.392-27.088-.095-54.233-.187-81.343-2.02-.546-4.063-1.266-6.188-1.032z" font-size="123" style="line-height:125%;text-align:start"/>
		<path fill="#595959" d="M23.363 90.676L0 2.63h11.952c5.67 25.252 12.124 50.339 17.116 75.734C35.085 52.887 42.89 27.877 49.788 2.63h14.054c6.445 23.979 14.463 47.587 18.892 72.055 1.146 7.477 3.133-11.462 4.952-15.48L101.499 2.63h11.711L89.067 90.677H77.836c-7.09-25.81-14.373-51.568-21.32-77.415-6.599 25.932-14.224 51.597-21.262 77.415H23.363zm102.64 0V2.631h11.651v88.045h-11.651zm31.65 0V2.631h11.652v43.662l43.723-43.662h15.795l-36.936 35.674 38.558 52.371H215.07l-31.35-44.563-14.415 14.054v30.51h-11.651zm84.623 0V2.631h11.652v88.045h-11.652z" font-size="123" style="line-height:125%;text-align:start"/>
		<text style="line-height:0%;text-align:start" x="303.53" y="560.298" fill="#e6e6e6" transform="translate(-28.156 -463.596)">
			<tspan x="303.53" y="560.298" font-size="123" style="line-height:1.25">BERITA</tspan>
		</text>
		<text style="line-height:0%;text-align:start" x="297.129" y="553.023" fill="#8c8c8c" transform="translate(-28.156 -463.596)">
			<tspan x="297.129" y="553.023" font-size="123" style="line-height:1.25">BERITA</tspan>
		</text>
	</g>
</svg>
