<?xml version="1.0" encoding="UTF-8" standalone="no"?>
<svg xmlns="http://www.w3.org/2000/svg" width="87.969" height="21" viewBox="0 0 87.969 21">
	<title>
		wiki voyage
	</title>
	<path fill="#54595d" fill-rule="evenodd" d="M87.41 6.644l-7.276-.4-.098.166c1 1.337 1.331 2.847 1.136 4.677l6.316-4.239zm-8.678 6.664c-1.537.162-2.945-.15-4.16-1.183l-.174.113.409 7.088.175.05 3.83-5.878zm-5.281-4.227c.823-1.712 1.96-2.89 3.643-3.516l.03-.202-7.01-3.572-.163.147z" opacity=".5"/>
	<text x="33.745" y="19.045" font-family="Siyam Rupali" font-weight="400" letter-spacing="0" text-anchor="middle" word-spacing="0" style="line-height:0%;-inkscape-font-specification:'Siyam Rupali';text-align:center">
		
	</text>
	<g fill="#54595d" font-family="Arial" font-weight="400" letter-spacing="0" word-spacing="0">
		<path style="line-height:1;-inkscape-font-specification:Arial" d="M63.988 14.115q0 1.907-1.41 3.79-1.572 2.104-3.629 2.104-.763 0-1.572-.173-.589-.128-1.537-.44-.75-.265-1.502-.52l.196-.404 1.353.312q.716.173 1.282.173 1.41 0 2.67-.716.983-.567 1.965-1.642.497-.543 1.41-1.768-1.56 0-2.335-.497-.878-.566-.878-1.86 0-1.19.555-2.208.647-1.179 1.64-1.179 1.006 0 1.446 1.168.346.913.346 2.542zm-.728-1.26q-.254-1.11-.612-1.537-.312-.37-.763-.37-.324 0-.566.22-.232.208-.232.531 0 .566.509.867.508.289 1.664.289zm-9.5 1.953h-6.588v-2.01h5.744q0-1.365-.323-2.081-.22-.497-1.087-1.433l.902-1.884q.832 1.052 1.04 1.641.312.89.312 2.947zm-.104 2.288l-.855 1.676-1.896-.97.879-1.676zm-2.635 1.075l-.867 1.653-1.907-.982.902-1.665z"/>
		<path style="line-height:1;-inkscape-font-specification:Arial" d="M44.156 11.11q.543.659 1.063 1.098.705.59 1.225.59h1.514v2.01h-1.421q-.948 0-1.988-.97-.509-.475-1.445-1.688-.566-.728-.693-.878-.29-.347-.879-.913 0 2.057-1.283 3.212-1.375 1.237-4.09 1.237h-1.191v-2.01h1.248q1.838 0 3.086-.475 1.49-.566 1.49-1.595 0-.774-.566-1.306-.289-.277-1.12-.716l-.382.358-1.364-1.04q-.716-.601-.716-.936 0-1.988.97-3.12.902-1.04 3.11-1.873L43.982.824v2l-2.416.808q-1.445.474-2.335.867-1.132.497-1.132.763t.74.82q.462.347.936.694 1.017.774 1.837 1.525.705.648 1.318 1.341.381.428 1.225 1.468z"/>
		<path style="line-height:1;-inkscape-font-specification:Arial" d="M35.777 14.808h-6.588v-2.01h5.744q0-1.365-.323-2.081-.22-.497-1.087-1.433l.902-1.884q.832 1.052 1.04 1.641.312.89.312 2.947zm-.104 2.288l-.855 1.676-1.896-.97.879-1.676zm-2.635 1.075l-.867 1.653-1.907-.982.901-1.665z"/>
		<path style="line-height:1;-inkscape-font-specification:Arial" d="M29.987 14.808h-.89q-.74 0-1.272-.196-.531-.208-.97-.578-.544.427-.948.566-.59.208-1.618.208h-.751q-.601 0-1.202-.231-.393-.15-.971-.497-.555.416-1.017.578-.463.15-1.503.15h-2.23v-2.01h2.23q.936 0 1.341-.163.67-.265.67-1.063 0-.335-.034-.67-.035-.335-.127-.751l.473-.694q.324 1.063.532 1.549.37.843.809 1.271.532.52 1.271.52h.775q.866 0 1.283-.266.462-.3.462-.959 0-.358-.046-.693-.047-.336-.128-.728l.486-.694.243 1.086q.312 1.283.762 1.78.393.44 1.064.44.312 0 .497-.185.196-.197.196-.497 0-.648-.474-1.364-.08-.116-.566-.751l.751-1.26q.474.716.647 1.236.255.786.255 2.092z"/>
		<path style="line-height:1;-inkscape-font-specification:Arial" d="M17.4 14.808h-7.026v-2.01h3.964q.717 0 1.213-.047.509-.058 1.098-.231-1.987-.29-2.577-.543-1.329-.578-1.329-1.965 0-1.214.636-2.289.716-1.213 1.745-1.213 1.179 0 1.791 1.502.486 1.19.486 2.809zm-1.04-4.033q-.265-.925-.508-1.376-.474-.867-1.144-.867-.324 0-.555.255-.231.254-.231.6 0 .88.913 1.18.324.104 1.526.208zm.012-8.275l-.901 1.675-1.873-.97.856-1.688z"/>
		<path style="line-height:1;-inkscape-font-specification:Arial" d="M11.194 14.808q0 1.271-1.086 2.635-.948 1.202-2.358 2.069-1.34.832-2.207.832-.798 0-1.722-.231-.705-.173-1.688-.543-.832-.312-1.652-.624l.196-.463q.763.15 1.584.3.832.163 1.502.163 1.48 0 3.086-.948 1.456-.867 2.485-2.184 1.028-1.33 1.028-2.393 0-.913-.531-1.918-.428-.81-1.202-1.665l.658-1.814q.948.878 1.399 1.757.508.994.508 2.219z"/>
	</g>
</svg>
