<?xml version="1.0" encoding="UTF-8" standalone="no"?>
<svg xmlns="http://www.w3.org/2000/svg" width="105" height="23" viewBox="0 0 105 23">
	<path d="M20.299 17.933l2.478 1.864c-.191.306-.5.4-1.168.4h-8.72v1.086c0 .212-.738.873-1.953.873h-.429V7.786a19.29 19.29 0 01-1.882 2.006c.691.637.977 1.274.977 1.794 0 .825-.62 1.391-1.263 1.391-.357 0-.715-.141-1-.519 0-.472-.072-1.038-.215-1.581l-1.048.307v10.334c0 .141-.739.66-1.906.66h-.405v-7.503a1.38 1.38 0 01-.525.095c-.643 2.24-1.596 4.317-2.859 5.568L0 20.149c.62-1.51 1.072-4.058 1.239-6.441l2.526.52v-2.43a59.02 59.02 0 01-2.216.566.917.917 0 01-.644.519l-.857-2.454c.595 0 1.5 0 2.597-.024 1.286-2.36 2.668-5.356 3.549-7.526l3.12 1.274c-.096.19-.262.306-.596.306-.095 0-.214-.023-.357-.046-1.192 1.722-3.05 4.034-4.86 5.97 1.049-.024 2.216-.048 3.43-.095-.238-.637-.524-1.227-.858-1.675l.239-.14c.762.305 1.358.612 1.834.943 1.406-2.314 2.836-5.923 3.716-9.391l3.263 1.062c-.095.283-.334.472-.93.424-.571 1.298-1.19 2.55-1.905 3.704l.905.354h2.192c.334-1.416.882-3.68 1.215-5.285l3.478.684c-.072.377-.31.542-.977.542a82.289 82.289 0 01-2.788 4.058h2.454l1.31-1.721 2.455 1.768c-.215.307-.524.402-1.144.402h-3.525v4.104h.786l1.215-1.651 2.288 1.699c-.191.306-.5.424-1.12.424h-3.168v4.271h.786l1.215-1.652 2.288 1.7c-.19.305-.5.424-1.12.424h-3.168v4.412h1.096zM.242 3.988c.786.165 1.43.378 1.93.615C2.6 3.327 3.1 1.559 3.482 0l3.215 1.086c-.095.283-.333.424-.905.424-.905 1.228-1.954 2.502-2.954 3.47.714.494 1 1.084 1 1.58 0 .684-.524 1.25-1.143 1.25-.31 0-.62-.142-.906-.426C1.622 6.301.86 4.955.05 4.177zm6.432 9.746c2.168 1.132 2.882 2.407 2.882 3.35 0 .872-.595 1.486-1.238 1.486-.334 0-.668-.165-.954-.543.072-1.298-.357-3.091-.953-4.175zm8.837-7.715H12.89v4.104h2.62zm0 8.847v-4.271H12.89v4.271zm-2.62.472v4.412h2.62v-4.412zm37.023-3.209c-.166.307-.476.425-1.143.425h-6.003c1.953 1.604 4.907 2.525 7.408 2.879l-.023.236c-1.096.494-1.478 1.486-1.573 2.643-2.645-1.039-5.05-2.949-6.503-5.757h-5.86c-1.716 2.737-4.812 4.696-8.72 5.97l-.19-.378c2.502-1.368 4.454-3.398 5.622-5.592h-5.312l-.12-.472h5.122V3.73h-4.192l-.12-.472h4.312V.049l3.574.33c-.024.354-.286.519-1 .613v2.266H42.1V.049l3.621.33c-.024.354-.262.519-1 .613v2.266h.69l1.335-1.769 2.43 1.84c-.167.283-.477.4-1.144.4H44.72v8.354h1.287l1.382-1.91zm-5.574 8.753l1.573-1.958 2.883 2.006c-.191.306-.5.424-1.168.424H28.903l-.143-.472h8.553v-3.61h-4.788l-.12-.472h4.908v-3.137l3.549.329c-.048.332-.239.472-.93.566V16.8h1.335l1.31-1.675 2.383 1.747c-.167.283-.477.4-1.096.4h-3.93v3.61zM42.1 3.729h-6.908v2.454h6.909zm-6.908 2.926v2.454h6.909V6.655zm0 5.427h6.909V9.557h-6.909zM74.29.473l2.882 1.982c-.19.284-.476.4-1.143.4h-8.006c-.976 1.582-2.24 3.492-3.263 4.744h6.027l1.048-1.391L74.6 8.212c-.143.19-.476.4-.953.495v12.412c0 .046-.715.73-2.62.73v-1.863h-9.982v1.203c0 .07-.31.99-2.573.99V6.467L61.235 7.6h2.812c.118-1.274.285-3.233.403-4.744h-9.29l-.142-.447H72.74zm-3.265 7.598h-9.98v5.215h9.98zm-9.98 11.467h9.98v-5.78h-9.98zm27.59-11.656v2.69c2.739.897 3.62 2.194 3.62 3.162 0 .755-.571 1.321-1.215 1.321-.308 0-.667-.142-.975-.495-.072-1.109-.691-2.572-1.43-3.563V21.45c-.024.166-.811.732-2.05.732h-.428v-8.66a19.6 19.6 0 01-3.693 4.46l-.334-.306c1.811-2.666 3.003-6.346 3.646-9.792h-3.312l-.118-.472h3.811v-3.75a62.159 62.159 0 01-3.884.73l-.095-.307C84.704 3 87.991 1.183 89.633.027l2.908 2.336c-.144.142-.357.211-.667.211-.24 0-.5-.046-.834-.14-.69.211-1.5.424-2.405.636v4.34h.667l1.214-1.699 2.24 1.769c-.19.307-.5.401-1.12.401h-3.001zm14.15 3.822l2.215 1.7c-.095.259-.31.424-.786.494l-2.977.542v6.818c0 .049-.382.898-2.478.898v-7.244l-7.074 1.298-.215-.426 7.29-1.367V0l3.43.33c-.048.33-.239.496-.953.59v13.025l.548-.095zM92.588 8.661c3.62.189 4.813 1.533 4.813 2.595 0 .755-.596 1.37-1.31 1.37-.31 0-.644-.118-.976-.378-.358-1.204-1.479-2.62-2.645-3.375zm.739-6.253c3.407.447 4.525 1.817 4.525 2.856 0 .777-.595 1.39-1.286 1.39-.334 0-.667-.117-1.001-.424-.26-1.274-1.287-2.785-2.383-3.633z"/>
</svg>
