<?xml version="1.0" encoding="UTF-8" standalone="no"?>
<svg xmlns="http://www.w3.org/2000/svg" width="146" height="55">
	<g fill="#555">
		<path d="M24.172 34.19c-.04-.254-.027-.456-.122-.79a14.042 14.042 0 00-.817-2.056c-.053-.132-.203-.346-.348-.538a9.94 9.94 0 00-.425-.53c-.2-.258-.445-.557-.718-.86-.305-.313-.491-.574-.986-.927-.876-.66-1.833-1.12-2.38-1.31-.524-.265-1.29-.48-2.143-.592a8.728 8.728 0 00-1.303-.061c.112-.335.864-.69 1.556-1.002.2-.165.525-.38.706-.51.361-.26.373-.327.28-.616-.047-.146-.005-.241.106-.24.02-.049.174-.144.33-.241.077-.203.338-.313.47-.37.13-.058.304-.218.458-.33.057-.16.335-.345.486-.468.51-.215.49-.486-.09-.665-.206-.022-.487-.14-.58-.18-.28-.117-.39-.1-.576.114-.15.113-.474.446-.752.6-.56.303-.568.35-.634.773l-.072.413-.73.15c-.74.107-.754.137-.893.43-.124.242-.306.34-.786.373-.388.124-.607.235-1.139.581.045-.285.088-.575.13-.864.229-1.628.503-3.098.6-3.308.16-.657.675-3.373.81-4.337.064-.443.203-.95.278-1.013.011-.074.202-.952.413-1.977.177-1.258.347-1.988.434-2.125.076-.062.312-.778.547-1.496.16-.655.492-1.582.687-2.004.138-.507.266-.94.33-1.383.017-.605.027-.68-.25-1.108-.664-1.03-1.146-.964-2.593.22-1.381 1.196-1.662 1.754-2.248 4.004-.669 2.841-1.162 5.867-1.561 9.669-.143 1.492-.372 3.122-.75 5.333a105.782 105.782 0 00-.507 3.153c-.698.249-1.133.447-1.486.68-.372.254-.518.422-.819.854l-.352.516c-.079.119-.15.212-.23.292-.16.16-.346.255-.662.383-.781.302-1.026.366-1.86 1.905-.17.321-.356.764-.308.757.02.052.073.088.152.12.099.183.56-.186 1.01-.273.28-.02.936-.223 1.133-.074.39.275 1.184-.94 2.42-1.291.158-.05.296-.092.436-.134-.013.154-.025.321-.035.507-.006.532-.184 1.79-.34 2.902-.08 1.048-.278 2.456-.295 3.06-.05.827-.036 2.79-.185 3.372 0 .003.004.004.003.006-.001.005-.006.007-.006.012-.002.053.001.048-.001.106-.016.51-.016 1.121-.016 1.675 0 1.275 0 1.875-.266 3.675-.133 1.35-.2 2.4-.2 2.7.03.165.016.402-.02.714-.16.028-.327.06-.548.122-.164.019-.35.07-.4.136-.026.034-.318.033-.715-.052-.448-.02-.6-.011-.95.237-.214.268-.405.315-.686.273-.391-.094-1.827.28-1.837.472l.11.25c.076.097 1.346-.056 1.422-.158.028-.035.197-.047.453.028.169-.013.37-.062.425-.13.08-.102.413-.13.812-.04.595.035.665-.068.876-.342.18-.239.31-.22.542-.123.107.028.255.032.401.017-.043.286-.093.606-.15.996-.2 1.05-.4 2.025-.4 2.175-.067.225 0 .3.2.45.532.225 1.065.15 1.73-.45.466-.45.666-.9.666-1.5 0-.225.067-.525.2-.825.2-.3.2-.45.133-.525-.067 0 0-.15.2-.375a2.21 2.21 0 00.386-.678 4.11 4.11 0 01.44-.068c.433-.04.47.028.545-.113.055-.106.212-.146.452-.091.475.109.304-.09-.242-.329-.297-.154-.528-.167-1.016-.071a6.78 6.78 0 00.034-2.175c-.133-.75-.133-.75.067-1.725l-.003.006c.183-1.006.485-4.255.387-5.846l.015-.081c-.09-.073.716-6.26 1.206-9.727l.217-.107c.23-.113.632-.285 1.072-.431.337-.11.664-.192.978-.25l.463-.072a7.157 7.157 0 012.607.212 7.4 7.4 0 011.83.87c.276.182.64.43.817.63.202.207.405.433.606.682.935 1.105 1.185 2.091 1.426 3.291.02.493.021 1.032-.01 1.607-.088.487-.242.94-.396 1.46-.508 1.487-1.03 1.15-1.26 2.062-.186.648-.415 1.25-.505 1.406-.554.75-1.06 1.424-.93 1.525.067.044-.254.845-.834 1.654-.58.819-1.418 1.625-2.105 2.205-.31.254-.71.614-1.146 1.083-1.001.66-2.173 1.163-2.216 1.268-.012.035-.027.072.32.157.268.117 1.856-.54 2.666-1.235.215-.204.385-.38.478-.484.152-.188.426-.404.55-.434.25-.06.502-.174.537-.391.142-.141.284-.338.298-.446.131-.09.39-.274.63-.355.242-.08.502-.283.504-.343.398-.502 1.257-1.434 1.985-2.562.743-1.09 1.354-2.228 1.704-2.572.095-.105.363-.5.602-1 .125-.457.585-1.418.856-2.108.261-.712.338-1.488.305-1.577-.022-.103-.062-1.05-.095-1.858"/>
		<path d="M4.401 9.416c.33-.635.718-1.187 1.472-1.883.76-.69 1.857-1.548 3.747-2.585 1.436-.848 2.48-1.42 3.51-2.004.75-.42 1.565-.76 1.79-.813 1.075-.151 2.198-.213 2.325-.413.04-.097 1.334-.457 2.872-.195 1.568.217 2.243 1.096 2.976 2.023 1.175 1.5 1.625 2.754 1.808 2.948.047.044.856.085.945-.27.064-.151.059-.389-.144-.858a6.464 6.464 0 00-.369-.755 6.973 6.973 0 00-.399-.596 2.392 2.392 0 01-.144-.199l-.07-.107-.03-.054c-.032-.022.048.014-.074-.057l-.02-.027c-.106-.138-.187-.266-.206-.335-.074-.268-.226-.598-.553-.711-.216-.187-.53-.401-.7-.451-.15-.149-.48-.436-.645-.693-.155-.268-.553-.51-.657-.516A10.61 10.61 0 0019.837.22c-.835-.195-1.794-.247-2.724-.207-1.875.086-3.45.593-3.95.547-.144 0-.701.096-1.318.319-.544.291-1.668.696-2.382 1.009-.726.308-1.335.713-1.397.813-.13.202-.657.5-1.14.728-.528.317-1.192.701-1.56.996-.328.196-.916.495-1.097.65a2.095 2.095 0 00-.809.573c-.09.206-.531.473-.879.797-.57.339-.7.403-.765.865-.06.463-.097.564-.485.758-.517.266-.56.36-.998 1.43-.222.726-.34 1.255-.333 1.627 0 .103.01.184.03.248.03.03.071.03.115.048.097.003.19.125.365.049.233-.1.615.029.807.091.384.132.618.012 1.377-.442 1.01-.57 1.313-.865 1.707-1.703m22.227.877c.087-.18.155-.737.103-1.29-.038-.554-.192-1.095-.27-1.202-.129-.146-.183-.37-.133-.633.1-.54-.913-.253-1.15.255-.113.188-.15.39-.115.732.04.333.12.431.16 1.196.09.702-.038 1.597-.123 1.949-.045.356-.289 1.358-.744 2.206a7.496 7.496 0 01-1.19 1.694c-.12.09-.24.205-.249.274-.002.021-.28.379-.645.662-.397.449-.532.594-.773 1.254-.119.533-.274.774-.526.98-.366.26-1.501 1.904-1.466 2.083.079.093.95.378.95.378.099.054 1.143-1.135 1.19-1.34.015-.065.157-.227.397-.362.142-.166.303-.394.331-.53.045-.201.327-.546.693-.805.52-.519.56-.7.679-1.291.102-.507.237-.664.45-.714.211-.059.568-.326.595-.65.017-.086.218-.339.535-.575.204-.286.488-.765.563-1.041.073-.323.293-.893.5-1.36.203-.455.245-1.037.249-1.292-.089-.276-.1-.527-.011-.578m39.736 22.159c-.067 0-.466.375-.932.9-.333.3-.466.375-.733.45-.094 0-.163-.007-.221-.02-.195-.13-.37-.334-.384-.65-.118-2.526.295-8.489.295-8.489s-.8-1.05-2.996 3.9c-.81 4.144-1.907 5.015-2.427 5.224a1.553 1.553 0 01-.104.035c-.333 0-.333-.075-.466-.375-.2-.3-.2-.525-.134-2.1 0-1.95 0-1.95.733-4.425.466-1.65.466-1.725.333-2.025-.134-.15-.134-.15-.533 0-1.198.45-1.731 1.05-2.397 2.7a24.24 24.24 0 00-.865 2.025c-.333.975-.733 1.65-1.465 2.55-.266.375-.666.825-.799 1.125-.2.225-.266.3-.266.225 0-.15-.067-.15-.2-.075-.4.075-2.064.15-2.597 0-1.198-.225-2.064-1.05-2.796-2.4-.6-1.275-.799-1.875-.865-2.775 0-1.125.066-1.275 1.997-2.85 2.397-1.8 3.795-2.85 5.126-3.525.866-.45 1.132-.675 1.265-.9.134-.225.2-.375.2-.525-.066-.225-.532-.15-1.065.15-.666.375-3.13 2.25-4.46 3.375-1.133.975-1.732 1.35-2.398 1.575-.532.225-.732.225-.865 0-.2-.225-.133-.6.4-1.725.732-1.65 3.461-9.075 3.395-9.3-.067-.15-.2-.15-.6-.075-1.331.15-1.53.375-2.663 3.45a95.146 95.146 0 00-1.065 3.3c-.2.45-.532 1.35-.799 2.1-.266.675-1.065 2.625-1.797 4.275-.733 1.875-1.399 3.3-1.598 3.6-.133.3-.733.975-1.332 1.575-.865.9-1.582 1.416-1.849 1.491-.598 0 .067-9.6.067-9.6s-.798-1.05-2.996 3.9c-.561 2.873-1.26 4.168-1.81 4.765a3.357 3.357 0 01-.394.342 1.315 1.315 0 01-.32.152c-.267 0-.333-.075-.466-.375-.134-.3-.2-.525-.134-2.1.067-1.95.067-1.95.733-4.425.466-1.65.466-1.725.333-2.025-.134-.15-.134-.15-.533 0-1.198.45-1.664 1.05-2.397 2.7-.333.675-.666 1.65-.865 2.025-.333.975-.733 1.65-1.598 2.7a19.87 19.87 0 00-.866 1.275l-.2.375.333-.15c.134-.075.6-.45 1-.75 1.197-.825 1.53-.675 1.73.975.067.525.2 1.125.266 1.275.267.525 1.132.6 1.998.15.599-.375 1.797-1.425 2.53-2.25a2.24 2.24 0 01.38-.415l.053-.039c.753.218.094 3.37 1.227 3.67.435-.045 1.364-.57 2.2-1.175l.001.004c.031-.02.07-.055.104-.077l.04-.03c.178-.124.37-.28.573-.46a6.47 6.47 0 00.409-.375c.351-.342.712-.722 1.05-1.103.267-.375.6-.6.666-.6.133 0 .2.6.133 1.125 0 .225-.2.975-.466 1.575-.266.975-.4 1.275-.4 1.875 0 .525.067.675.2.825.134.075.333.15.4.15.333 0 1.198-.525 1.531-.9.333-.375 1.066-2.925 1.199-4.05.133-.9.133-1.125.266-1.125.067.075.533.525 1.065 1.125 1.132 1.2 1.532 1.5 2.264 1.8.6.225 1.198.225 2.197 0 1.665-.3 2.53-.675 4.261-1.875 1.199-.9 1.531-.75 1.731.9.067.525.2 1.125.266 1.275.267.525 1.066.6 1.998.15.466-.291 1.37-1.034 1.875-1.562.24-.234.472-.47.667-.688.131-.185.31-.33.45-.432.708.29.087 3.352 1.203 3.648.3-.031.916-.416 1.643-.966.599-.375 1.93-1.5 2.197-1.95.2-.375.333-1.05.133-1.05m55.362-4.382c-.333 1.35-1.719 3.069-1.785 4.194-.466.6-.932 1.125-1.265 1.125-.466 0-.628-2.431-.64-3.106-.07-3.925 2.425-3.638 3.49-3.488.467 0 .333.75.2 1.275m-40.693 13.6c0 3.825-1.131 6.45-2.197 8.4-.998 1.725-2.197 2.625-1.531-1.65.2-1.575.6-7.05 1.065-8.325.666-1.8 2.197-.75 2.663 1.575m61.444-7.465c-.6 0 .066-9.6.066-9.6s-.799-1.05-2.996 3.9c-.864 4.421-2.055 5.118-2.523 5.259-.266-1.878.238-9.159.238-9.159s-.798-1.05-2.996 3.9c-.562 2.874-1.261 4.169-1.81 4.765a3.538 3.538 0 01-.393.343 1.246 1.246 0 01-.322.15c-.266 0-.333-.074-.466-.374s-.2-.525-.133-2.1c.066-1.95.066-1.95.732-4.425.466-1.65.466-1.725.333-2.025-.133-.15-.133-.15-.533 0-1.198.45-1.664 1.05-2.397 2.7-.332.675-.665 1.65-.865 2.025-.333.975-.914 1.851-1.436 2.734-.288.487-.48.756-.817 1.143l-.355.458a.685.685 0 01-.238.166c-.333.15-.667.123-.932.15-1.82.193-.908-4.692-.402-6.915.724-3.02.789-2.874.224-3.129-.466-.3-1.373-.07-2.463.075-1.036.138-1.814.004-2.759.433-1.413.592-3.105 2.406-3.455 3.761-.533 1.35-.636 1.778-.924 2.548 0 0-.551 1.783-1.367 2.732-.118.143-.257.305-.441.374-.267.15-.666.15-.932.15-.6 0 .066-9.6.066-9.6s-.799-1.05-2.996 3.9c-.864 4.421-2.055 5.117-2.523 5.259-.267-1.878.238-9.16.238-9.16s-.799-1.05-2.996 3.9c-.562 2.875-1.26 4.17-1.81 4.767a3.585 3.585 0 01-.393.341 1.246 1.246 0 01-.322.152c-.267 0-.333-.075-.466-.375s-.2-.525-.133-2.1c.066-1.95.066-1.95.732-4.425.466-1.65.466-1.725.333-2.025-.133-.15-.133-.15-.533 0-1.198.45-1.664 1.05-2.397 2.7-.333.675-.665 1.65-.865 2.025-.333.975-.913 1.85-1.436 2.733a6.8 6.8 0 01-.816 1.145l-.173.199c-.125.15-.276.339-.477.415-.266.15-.666.15-.932.15-.6 0 .067-9.6.067-9.6s-.8-1.05-2.996 3.9c-.866 4.425-2.131 5.4-2.863 5.25-1.532-1.5-.333-9.525-.333-9.525-1.398-.525-2.197 2.4-2.663 4.2-.6 1.35-.134.975-1.132 2.25-1.065 1.275-3.595 4.65-4.261 4.8-.301-2.786.998-10.875.998-10.875s-.799-1.05-2.996 3.9c-.865 4.425-2.13 5.098-2.863 4.948-1.53-1.5.17-9.223.17-9.223-1.398-.525-2.197 2.4-2.663 4.2-.6 1.349-.134.976-1.13 2.248h-.003c-2.424 2.887-4.563 5.726-4.563 6.302 0 .525.533.075 1.865-1.575 1.53-1.875 3.994-4.2 3.994-4.2-.133 1.5-.932 6.225 1.465 4.425 1.332-1.05 2.53-1.725 2.53-1.725s.133 2.025.4 3.525c-.267.75-1.066.975-1.399 1.8.267.3 1.199-.375 1.465.525.2.9-.333 4.05-.533 5.625-.466 3.9-.532 5.85-.133 6.825.2.45.466.75.666.75.4 0 1.864-1.875 2.796-3.6 1.066-2.025 2.064-5.4 2.197-7.575.067-1.5-.466-2.55-.865-3.525-.266-.675-.932-1.275-.932-1.8 0-.75.998-1.2 1.93-2.175.733-.825 2.797-3.075 2.797-3.075s.333 3.225.799 4.05c.4.675.799.9.999.9 1.797-.225 2.596-1.95 3.794-3.15 1.066-1.05.333 3.075 1.465 3.375.733-.075 2.863-1.5 3.595-2.4.405-.564.91-.941.943-.969 1.036-.812 1.427-.673 1.626.977.067.525.2 1.125.267 1.275.266.525 1.131.6 1.997.15.6-.375 1.798-1.425 2.53-2.25.124-.174.262-.313.38-.415l.053-.038c.754.218.095 3.369 1.227 3.669.732-.075 2.863-1.5 3.595-2.4.49-.636.46-1.269.46-1.269.753.218.094 3.369 1.226 3.669.732-.075 2.863-1.5 3.595-2.4.732-.825 1.8-2.804 1.8-2.804s.333 3.225.799 4.05c.4.675.799.9.999.9 1.797-.225 2.596-1.95 3.794-3.15 1.066-1.05.333 3.075 1.465 3.375.733-.075 2.863-1.5 3.595-2.4.405-.564.92-.951.954-.977 1.035-.814 1.427-.674 1.626.976.067.525.2 1.125.267 1.275.266.525 1.132.6 1.997.15.6-.375 1.798-1.425 2.53-2.25.124-.175.26-.313.38-.415l.053-.039c.753.218.095 3.37 1.227 3.67.732-.075 2.863-1.5 3.595-2.4.49-.636.459-1.27.459-1.27.754.218.095 3.37 1.227 3.67.732-.075 2.863-1.5 3.595-2.4l.067-.525c-.2-.15-.4.45-.8.6-.266.15-.665.15-.931.15M111.79 21.188c.435-.186 1.572-.601 2.13-.977.616-.418 1.288-.722 1.308-.844-.019-.256-11.959.654-12.266.652-.307-.001-1.005.085-1.35.349-.289.223-.548.511-1.011.826-.566.383-1.081.757-.874.99.317.32 11.083-.576 12.062-.996m21.535-1.208c-.307 0-1.005.085-1.35.35-.29.222-.548.51-1.012.824-.565.384-1.08.758-.873.991.317.32 11.081-.577 12.062-.996.436-.187 1.573-.601 2.13-.977.617-.418 1.29-.722 1.31-.844-.02-.256-11.96.654-12.267.652"/>
	</g>
</svg>
