<?xml version="1.0" encoding="UTF-8" standalone="no"?>
<svg xmlns="http://www.w3.org/2000/svg" width="392" height="54" version="1.0" viewBox="0 0 392 54">
	<path d="M91.8 51.379c.395.365.395 1.645 0 2.01-3.278-.06-5.18-.121-8.46-.121-3.346 0-5.314.062-8.528.121-.393-.365-.393-1.645 0-2.01 4.592-.183 5.707-.487 5.707-5.544V24.149c-.492.151-.826.425-1.147.791L61.458 45.652c-.768.907-1.424 1.4-1.877 2.844.466 2.516 1.928 2.74 5.523 2.88.393.366.393 1.646 0 2.01-3.279-.06-5.182-.12-8.462-.12-3.345 0-5.312.061-8.526.12-.395-.364-.395-1.644 0-2.01 4.591-.182 5.707-.487 5.707-5.543V21.405c0-5.055-1.116-5.36-5.707-5.544-.395-.365-.395-1.645 0-2.01 3.279.062 5.181.121 8.461.121 3.346 0 5.313-.06 8.527-.121.393.365.393 1.645 0 2.01-4.592.183-5.707.489-5.707 5.544v21.687c.302-.019.682-.225 1.161-.67l18.025-20.834c.742-.866 1.351-1.968 1.732-2.954-.485-2.412-1.962-2.633-5.504-2.773-.393-.365-.393-1.645 0-2.01 3.28.062 5.183.121 8.462.121 3.345 0 5.313-.06 8.527-.121.394.365.394 1.645 0 2.01-4.592.183-5.707.489-5.707 5.544v24.428c.002 5.06 1.117 5.363 5.708 5.546zm4.392.732c0-.304.196-.488.46-.488l1.77-.122c2.755-.188 3.542-.853 3.542-2.558v-30.64c0-1.828-.984-2.376-3.542-2.559l-1.706-.121c-.261 0-.524-.183-.524-.487v-1.158l.131-.121c3.28.061 5.248.12 8.527.12 3.28 0 5.181-.06 8.397-.12l.131.12v1.159c0 .304-.197.487-.524.487l-1.706.121c-2.624.189-3.608.854-3.608 2.558v12.671c2.361 0 5.312-.062 6.887-.913 3.87-1.95 4.788-5.848 5.379-9.259.656-3.777 2.493-7.188 7.674-7.188 3.477 0 4.657 1.766 4.657 3.167 0 1.766-1.509 2.437-2.886 2.437-.852 0-1.77-.305-2.426-.913-.722-.67-1.247-.975-2.1-.975-1.967 0-2.42 2.01-2.754 3.776-.722 3.777-2.099 9.016-7.085 10.723v.304c4.527 0 7.085 2.62 8.856 6.884 3.417 8.224 6.756 12.366 9.052 12.55l1.05.06c.328 0 .525.183.525.488v1.157l-.066.121-5.182-.06c-5.116-.062-7.478-4.995-10.298-11.696-2.565-6.092-3.804-8.102-11.282-8.102v15.411c0 1.829.983 2.37 3.608 2.559l1.706.12c.262 0 .524.184.524.49v1.156l-.131.121c-3.15-.12-5.052-.12-8.33-.12-3.28 0-5.38 0-8.593.12l-.131-.12v-1.16zm85.924-.732c.394.365.394 1.645 0 2.01-3.279-.06-5.181-.121-8.462-.121-3.345 0-5.312.062-8.528.121-.394-.365-.394-1.645 0-2.01 4.592-.183 5.707-.487 5.707-5.544V24.149c-.491.151-.826.425-1.147.791l-17.914 20.712c-.768.907-1.424 1.4-1.877 2.844.466 2.516 1.928 2.74 5.523 2.88.394.366.394 1.646 0 2.01-3.28-.06-5.182-.12-8.462-.12-3.345 0-5.312.061-8.526.12-.395-.364-.395-1.644 0-2.01 4.592-.182 5.707-.487 5.707-5.543V21.405c0-5.055-1.115-5.36-5.707-5.544-.395-.365-.395-1.645 0-2.01 3.279.062 5.181.121 8.461.121 3.346 0 5.313-.06 8.528-.121.394.365.394 1.645 0 2.01-4.592.183-5.707.489-5.707 5.544v21.687c.302-.019.682-.225 1.161-.67L168.9 21.588c.74-.866 1.35-1.968 1.731-2.954-.485-2.412-1.962-2.633-5.504-2.773-.394-.365-.394-1.645 0-2.01 3.28.062 5.183.121 8.462.121 3.345 0 5.313-.06 8.527-.121.394.365.394 1.645 0 2.01-4.592.183-5.707.489-5.707 5.544v24.428c0 5.06 1.116 5.363 5.708 5.546zm48.141 0c.394.365.394 1.645 0 2.01-3.28-.06-5.182-.121-8.461-.121-3.346 0-5.313.062-8.528.121-.394-.365-.394-1.645 0-2.01 4.592-.183 5.707-.487 5.707-5.544V24.149c-.492.151-.827.425-1.148.791l-17.914 20.712c-.767.907-1.424 1.4-1.875 2.844.465 2.516 1.928 2.74 5.523 2.88.394.366.394 1.646 0 2.01-3.28-.06-5.182-.12-8.462-.12-3.345 0-5.313.061-8.527.12-.394-.364-.394-1.644 0-2.01 4.59-.182 5.707-.487 5.707-5.543V21.405c0-5.055-1.115-5.36-5.707-5.544-.394-.365-.394-1.645 0-2.01 3.28.062 5.183.121 8.462.121 3.345 0 5.313-.06 8.528-.121.394.365.394 1.645 0 2.01-4.592.183-5.707.489-5.707 5.544v21.687c.302-.019.681-.225 1.16-.67l18.026-20.834c.741-.866 1.351-1.968 1.732-2.954-.485-2.412-1.961-2.633-5.503-2.773-.394-.365-.394-1.645 0-2.01 3.28.062 5.181.121 8.462.121 3.345 0 5.313-.06 8.528-.121.393.365.393 1.645 0 2.01-4.592.183-5.707.489-5.707 5.544v24.428c-.002 5.06 1.113 5.363 5.704 5.546zm6.688-7.553c1.836 0 2.82 1.583 3.673 3.168 1.64 2.862 4.985 4.812 10.101 4.812 6.495 0 10.364-3.716 10.364-9.26 0-4.446-2.427-8.955-10.364-8.955-2.165 0-4.066.366-5.837.366-.787 0-1.902-.304-1.902-1.523 0-1.218 1.115-1.462 1.902-1.462 1.771 0 4.133.365 5.904.365 6.952 0 8.724-4.203 8.724-8.406 0-4.265-2.558-7.675-8.199-7.675-7.478 0-11.282 4.385-12.987 9.746l-1.969-.121 1.575-9.746c4.656-.427 8.986-1.95 13.906-1.95 9.117 0 13.447 4.326 13.447 9.32 0 5.118-4 8.103-8.593 9.322v.365c6.166.913 10.43 5.117 10.43 10.294 0 7.98-8.003 11.514-16.333 11.514-6.56 0-11.014-1.469-12.988-3.107-1.764-1.47-3.017-2.62-3.017-4.63-.001-1.463.85-2.437 2.163-2.437zm50.766-29.972c12.2 0 14.103 5.3 14.103 9.382 0 3.308-2.945 6.433-6.232 7.98v.121c5.707 1.523 10.1 4.874 10.1 10.721 0 5.239-3.476 11.331-16.528 11.331-5.839 0-6.757-.121-9.577-.121-3.346 0-5.313.062-8.528.121-.393-.365-.393-1.645 0-2.01 4.592-.183 5.707-.487 5.707-5.544V21.408c0-5.056-1.115-5.36-5.707-5.545-.393-.365-.393-1.645 0-2.01 3.28.062 5.182.121 8.462.121 2.82.002 5.904-.12 8.2-.12zm-5.38 17.12h4.854c5.445 0 9.315-1.83 9.315-7.006 0-6.214-4.79-8.04-8.461-8.04-5.707 0-5.707.608-5.707 2.618zm0 16.324c0 2.01.854 4.082 5.446 4.082 9.97 0 11.807-3.716 11.807-8.163 0-5.482-3.738-10.174-12.726-10.174h-4.525v14.255zm48.996 6.578c-11.281 0-20.53-7.492-20.53-19.492 0-11.94 8.397-21.199 20.139-21.199 11.479 0 21.12 7.98 21.12 20.042 0 12.182-8.198 20.65-20.728 20.65zm-14.232-20.528c0 11.696 7.674 18.459 15.546 18.459 7.477 0 13.12-6.52 13.12-17.423 0-12.67-6.758-19.127-15.678-19.127-5.97-.001-12.988 5.298-12.988 18.091zM20.905.202c15.04 0 17.384 7.036 17.384 12.453 0 4.39-3.63 8.54-7.682 10.593v.163c7.036 2.021 12.453 6.468 12.453 14.232 0 6.953-4.285 15.04-20.378 15.04-7.196 0-8.33-.162-11.806-.162-4.123 0-6.55.08-10.512.162-.485-.485-.485-2.182 0-2.668 5.66-.243 7.035-.647 7.035-7.36V10.23C7.4 3.517 6.025 3.113.364 2.87-.121 2.385-.121.687.364.202c4.043.08 6.387.162 10.431.162 3.48 0 7.28-.162 10.11-.162zm-6.63 22.723h5.983c6.712 0 11.482-2.426 11.482-9.299 0-8.248-5.902-10.674-10.431-10.674-7.035 0-7.035.809-7.035 3.477zm0 21.67c0 2.668 1.05 5.417 6.71 5.417 12.291 0 14.555-4.933 14.555-10.834 0-7.277-4.608-13.504-15.687-13.504h-5.579zM351.407 3.072c-.485-.485-.485-2.183 0-2.668 4.045.081 6.388.162 10.431.162 3.235 0 8.977-.566 11.078-.566 14.96 0 18.113 8.653 18.113 13.423 0 6.874-4.446 16.496-19.163 16.496-2.83 0-4.77-.243-6.549-.809v13.745c0 6.713 1.94 7.036 8.247 7.36.485.486.485 2.182 0 2.668-4.042-.08-7.115-.162-11.644-.162-4.124 0-6.55.08-10.512.162-.485-.486-.485-2.182 0-2.669 5.66-.242 7.036-.646 7.036-7.359V10.431c0-6.712-1.376-7.116-7.037-7.359zm13.91 23.693c.888.243 4.124.405 6.146.405 7.843 0 12.049-3.558 12.049-12.292 0-10.27-5.58-12.129-11.16-12.129-5.822 0-7.035 2.831-7.035 5.175z"/>
</svg>
