<?xml version="1.0" encoding="UTF-8" standalone="no"?>
<svg xmlns="http://www.w3.org/2000/svg" width="103" height="14" viewBox="0 0 103 14">
	<path d="M8.396 1.814l1.428 1.07c-.1.115-.328.244-.628.3v9.64c0 .027-.343.398-1.186.398v-.87H1.156v.528c0 .028-.114.458-1.156.458V1.972l1.256.57h2.056c.2-.757.4-1.8.486-2.542l1.956.427c-.043.158-.186.229-.529.229a12.512 12.512 0 01-1.541 1.885h4.169zM8.01 2.856H1.156v2.77H8.01zm0 3.099H1.156v2.842H8.01zm-6.854 6.068H8.01V9.11H1.156zm23.14-9.21l1.528 1.129c-.114.157-.4.284-.757.357v8.509c0 .028-.343.385-1.17.385v-.97h-8.753v.67c0 .015-.129.458-1.142.458V3.028l1.257.557h3.626V.07L20.7.244c-.015.214-.172.327-.643.385v2.956h3.67zM18.884 3.9h-3.74v3.74h3.74zm-3.74 4.055v3.94h3.74v-3.94zM23.896 3.9h-3.842v3.74h3.842zm-3.84 7.996h3.842V7.954h-3.842zM33 2.086l1.358.984c-.1.116-.329.229-.615.3v7.967c0 .029-.314.373-1.1.373v-1.129H29.96v1.243c0 .015-.115.428-1.072.428V2.229l1.142.514h.357c.172-.7.399-1.785.543-2.57L32.715.5c-.043.215-.2.3-.57.315-.3.557-.8 1.357-1.171 1.927h1.528zm-.357.97H29.96v3.3h2.683zm-2.684 7.197h2.683V6.668h-2.683zm10.323-8.21l1.357 1.07c-.114.129-.3.215-.614.243-.115 5.483-.315 8.667-1.03 9.381-.456.428-.885.628-1.812.642 0-.642-.1-.97-1.742-1.199l.014-.228c.656.028 1.628.057 2.056.057.286 0 .386-.027.543-.172.529-.527.715-3.754.815-8.752H36.37c-.615 1.456-1.356 2.741-2.213 3.655l-.215-.129c.843-1.485 1.628-4.084 2.042-6.554l1.727.428c-.057.185-.157.272-.528.285a21.94 21.94 0 01-.686 2h3.213zm-4.583 3.755c2.028.77 2.655 1.8 2.655 2.499 0 .471-.271.786-.614.786-.157 0-.343-.086-.514-.258-.129-.957-.9-2.2-1.642-2.913zM55.37.371l1.527 1.058c-.116.185-.286.285-.7.285h-5.112c-.443.928-1.042 2.056-1.514 2.812h3.855l.529-.7 1.399 1.029c-.085.114-.3.242-.6.299v7.654c0 .028-.328.385-1.185.385v-1.057h-6.654v.77c0 .03-.128.458-1.171.458V3.968l1.271.557h2.128c.1-.77.257-1.927.357-2.812h-5.754l-.086-.328h10.91zm-1.8 4.47h-6.655v3.17h6.654zm-6.654 6.97h6.654V8.324h-6.654zm15.715-7.013V6.51c1.642.6 2.157 1.414 2.157 1.97 0 .386-.243.643-.528.643-.157 0-.315-.072-.457-.215-.129-.67-.657-1.57-1.17-2.142v6.24c-.016.085-.386.357-.943.357h-.2V7.496a11.689 11.689 0 01-2.385 3.254l-.2-.2c1.128-1.57 1.885-3.684 2.313-5.755h-2.1l-.084-.327h2.456V2.055c-.815.215-1.67.4-2.47.543l-.072-.215C60.533 1.798 62.56.77 63.56.07l1.414 1.13a.459.459 0 01-.328.114 1.64 1.64 0 01-.472-.086c-.427.158-.957.329-1.541.5V4.47h.627l.643-.884 1.214.927c-.1.2-.272.285-.657.285h-1.829zm8.595 2.413l1.257.914c-.057.186-.2.286-.486.328l-1.913.357v4.112c0 .043-.157.443-1.127.443v-4.34l-4.37.814-.142-.3 4.512-.843V.057l1.727.157c-.027.2-.157.315-.6.357v7.912l.6-.115zm-6.097-1.956c2.142.186 2.842 1.029 2.842 1.627 0 .359-.257.643-.586.643a.727.727 0 01-.441-.157c-.3-.7-1.13-1.527-1.886-1.97zm.486-3.784c2.013.358 2.642 1.2 2.642 1.8 0 .385-.257.67-.585.67a.736.736 0 01-.457-.185c-.229-.743-.986-1.67-1.685-2.157zm8.547 4.855c2.4-1.47 4.998-4.212 5.698-6.269L81.944.5c-.043.171-.228.243-.628.285 1.513 1.713 4.184 3.284 6.554 4.212l-.015.215c-.57.142-.984.642-1.099 1.128-2.343-1.2-4.54-3.328-5.682-5.397-1.229 2.056-4.07 4.31-6.812 5.568zM85.2 12.552l.77-1 1.47 1.043c-.113.185-.285.271-.7.271H74.806l-.1-.314h5.626v-3.17h-4.083l-.086-.314h4.17V6.184h-3.756l-.086-.315h6.883l.7-.871 1.327.9c-.114.214-.285.286-.685.286h-3.17v2.884h2.4l.742-.9 1.385.928c-.1.214-.272.285-.67.285h-3.855v3.17H85.2zm15.514-7.554c-.014.1-.557.343-.943.343H99.6v-.5h-2.728v1.2h3.17l.671-.828 1.27.87c-.1.2-.271.285-.67.285h-4.44v1.243h3.997l.686-.87 1.313.899c-.114.2-.271.285-.67.285H89.862l-.084-.314h5.954V6.368h-4.827l-.085-.327h4.912v-1.2H91.52l-.1-.328h4.312V3.256h-5.954l-.086-.327h6.04V1.686h-4.127l-.1-.315h4.227V.057l1.784.157c-.014.229-.185.329-.642.386v.77h2.584l.486-.627 1.356.956c-.085.115-.314.228-.585.286v.943h.458l.627-.83 1.2.871c-.114.2-.271.286-.67.286h-1.613v1.743zM99.487 9.04l.5-.657 1.413.984c-.1.116-.314.243-.599.3v3.285c0 .014-.357.314-1.17.314v-.742h-6.626v.428c0 .028-.157.414-1.141.414V8.512l1.241.528zm.143.313h-6.626v1.227h6.626zm-6.627 2.856h6.625V10.91h-6.625zm3.87-10.523v1.243H99.6V1.686zm0 2.827H99.6V3.256h-2.728z"/>
</svg>
