<?xml version="1.0" encoding="UTF-8" standalone="no"?>
<svg xmlns="http://www.w3.org/2000/svg" width="502" height="71" version="1.0">
	<g font-family="SolaimanLipi" font-weight="400">
		<text style="line-height:0%;-inkscape-font-specification:SolaimanLipi;text-align:start" x="546.185" y="306.827" transform="translate(-45.075 -301.938)">
			
		</text>
		<path fill="#0b2645" d="M117.133 1.054c-2.537.272-4.792.661-6.756 1.168-1.963.507-3.684 1.22-5.169 2.147a13.402 13.402 0 00-3.786 3.552c-1.036 1.434-1.875 3.202-2.525 5.304 0 .816.217 1.39.65 1.736l4.219 3.568H88.559l.084-.963a7.417 7.417 0 00-1.021-3.773c-.681-1.174-1.62-2.2-2.825-3.078-1.206-.878-2.646-1.56-4.316-2.068-1.67-.507-3.49-.774-5.47-.774-4.731.223-8.242.384-10.53.458-2.288.075-3.568.11-3.847.11-1.546 0-2.847-.091-3.882-.252-1.036-.16-1.875-.375-2.525-.647-.65-.272-1.116-.592-1.394-.963a1.923 1.923 0 01-.409-1.184c0-.593.213-1.223.661-1.879.448-.655 1.031-1.292 1.743-1.91a2.838 2.838 0 00-.553-.094 8.507 8.507 0 00-.553-.016c-.804 0-1.461.131-1.971.379-.51.247-.912.567-1.19.963-.279.395-.47.82-.577 1.278a5.926 5.926 0 00-.169 1.358c0 1.458.467 2.706 1.395 3.757.928 1.052 2.108 1.928 3.546 2.62 1.438.693 3.011 1.198 4.712 1.532 1.701.334 3.324.505 4.869.505l10.951-.521h1.154c.217 0 .428.02.613.032.186.012.385.023.601.047.464 0 1.104.036 1.924.11.82.075 1.636.206 2.44.38.804.173 1.492.4 2.08.71.587.309.889.691.889 1.136 0 .323-.125.635-.373.932-.248.296-.54.55-.865.773a5.356 5.356 0 01-1.046.553c-.371.148-.662.244-.878.268l-3.149.221H42.999a2.53 2.53 0 00.097-.552v-.6c0-1.41-.393-2.686-1.166-3.836-.774-1.15-1.786-2.136-3.054-2.952-1.268-.816-2.724-1.452-4.363-1.91a18.554 18.554 0 00-5.013-.68l-13.308.585c-1.081 0-2.18-.065-3.293-.19-1.114-.124-2.12-.338-3.018-.647-.897-.309-1.628-.731-2.2-1.263-.571-.531-.865-1.204-.865-2.02.155-.594.363-1.092.625-1.5.262-.408.698-.76 1.286-1.058l-2.284-.773c-.185 0-.419.112-.697.347-.278.235-.525.551-.757.947a7.037 7.037 0 00-.601 1.374 5.09 5.09 0 00-.253 1.594c0 1.36.424 2.564 1.274 3.615.85 1.052 1.949 1.939 3.294 2.668 1.346.73 2.841 1.287 4.496 1.657 1.655.371 3.285.553 4.893.553a61.5 61.5 0 005.614-.253 61.623 61.623 0 015.613-.268c1.36 0 2.615.07 3.775.205 1.16.136 2.166.344 3.017.616s1.517.6 1.996.994c.479.396.721.854.721 1.374l-1.166.742-3.702 1.231H0v3.82h20.965V36.7c0 .792.151 1.563.445 2.305.293.741.7 1.404 1.226 1.973a5.894 5.894 0 001.947 1.373c.773.347 1.655.521 2.645.521 1.299 0 2.647-.27 4.039-.79a22.19 22.19 0 003.919-1.91 22.007 22.007 0 003.293-2.462c.975-.89 1.688-1.705 2.152-2.447.742.792 1.286 1.603 1.611 2.431.325.829.48 1.653.48 2.494 0 1.236-.35 2.43-1.045 3.568-.696 1.138-1.626 2.153-2.8 3.031-1.176.878-2.576 1.584-4.184 2.115-1.609.532-3.304.79-5.097.79-2.444 0-4.648-.386-6.612-1.153-1.963-.767-3.71-1.789-5.24-3.062a20.677 20.677 0 01-3.968-4.389 34.209 34.209 0 01-2.849-5.146c-.788-1.768-1.414-3.513-1.863-5.257a38.987 38.987 0 01-.95-4.846L5.29 24.607c.309 2.2.685 4.521 1.118 6.946a56.193 56.193 0 001.755 7.135 40.838 40.838 0 002.79 6.677c1.113 2.115 2.5 3.981 4.17 5.589 1.67 1.607 3.676 2.88 6.011 3.82s5.062 1.405 8.186 1.405c2.97 0 5.538-.39 7.718-1.168 2.18-.78 3.995-1.812 5.433-3.11 1.438-1.299 2.502-2.812 3.198-4.53a14.112 14.112 0 001.046-5.352c0-.644-.073-1.404-.229-2.258a17.092 17.092 0 00-.72-2.652 18.604 18.604 0 00-1.227-2.715 11.66 11.66 0 00-1.743-2.415 8.365 8.365 0 00-2.248-1.705c-.835-.433-1.768-.647-2.789-.647-.371 0-.795.175-1.274.52a14.5 14.5 0 00-1.527 1.295 47.239 47.239 0 00-1.67 1.69 68.474 68.474 0 01-1.648 1.688 16.16 16.16 0 01-1.466 1.295c-.449.346-.821.52-1.13.52-.526 0-.984-.098-1.37-.284a3.333 3.333 0 01-.998-.726 3.38 3.38 0 01-.65-.978 3.407 3.407 0 01-.276-1.058v-11.24h41.052l1.72 1.184c.433.347.705.692.829 1.026.123.334.267.52.42.569-1.422.37-2.762.829-4.015 1.373-1.252.544-2.359 1.184-3.318 1.926-.958.742-1.724 1.582-2.296 2.51-.571.927-.87 1.957-.901 3.094.278 1.088.919 1.866 1.923 2.336 1.005.47 2.094.71 3.27.71a10.44 10.44 0 003.198-.52 11.246 11.246 0 002.969-1.453c.896-.618 1.628-1.337 2.2-2.178.571-.841.865-1.758.865-2.747.742-.272 1.407-.41 1.996-.41.772 0 1.555.148 2.344.457a7.494 7.494 0 013.666 3.063c.418.693.647 1.428.71 2.194-.31 1.51-1.04 2.745-2.2 3.71a13.652 13.652 0 01-3.967 2.289 20.865 20.865 0 01-4.568 1.136c-1.562.21-2.885.316-3.967.316a31.49 31.49 0 01-7.02-.79c-2.335-.53-4.432-1.263-6.288-2.178l5.698 9.504c3.278.519 6.59 1.33 9.93 2.43a80.958 80.958 0 019.725 3.916 79.267 79.267 0 018.92 5.004c2.813 1.83 5.35 3.73 7.609 5.683l-1.479-5.194a122.668 122.668 0 00-4.688-3.583 103.679 103.679 0 00-4.472-3.063c-1.53-.99-3.169-1.982-4.917-2.983a355.102 355.102 0 00-6.01-3.363c1.916-.445 3.695-.986 5.35-1.642 1.654-.655 3.094-1.456 4.315-2.383 1.221-.928 2.21-1.99 2.97-3.189.757-1.2 1.198-2.57 1.321-4.104 0-1.138-.281-2.302-.853-3.49a13.31 13.31 0 00-2.272-3.298 15.673 15.673 0 00-3.198-2.637c-1.19-.742-2.404-1.214-3.642-1.436-.65-.099-1.307-.24-1.972-.426a9.12 9.12 0 01-1.839-.727 5.372 5.372 0 01-1.43-1.089 2.885 2.885 0 01-.746-1.547h30.667v35.692l4.772 3.552V22.35h34.981v2.936c-4.885 1.113-9.494 2.673-13.824 4.689a145.615 145.615 0 00-12.767 6.725l6.552 6.456c3.216.273 6.035.872 8.463 1.8 2.427.927 4.546 2.117 6.37 3.552a23.84 23.84 0 014.713 4.91 38.19 38.19 0 013.462 5.919l1.803 1.373V30.4c.247-.05.44-.079.565-.079h.553c1.577 0 3.134.25 4.664.758a16.284 16.284 0 014.148 2.052c1.236.853 2.235 1.843 2.993 2.968s1.13 2.322 1.13 3.583v.474c0 .124-.022.291-.084.49a4.41 4.41 0 00-1.924-1.437 6.641 6.641 0 00-2.44-.458c-.712 0-1.42.08-2.116.252a6.458 6.458 0 00-1.85.758 4.715 4.715 0 00-1.323 1.2c-.34.458-.505.985-.505 1.579 0 .716.173 1.39.529 2.02.356.63.831 1.168 1.418 1.626a7.194 7.194 0 001.924 1.074 5.95 5.95 0 002.103.394 9.158 9.158 0 003.09-.52 7.863 7.863 0 002.548-1.469 7.002 7.002 0 001.72-2.226c.417-.853.624-1.78.624-2.794 0-1.979-.506-3.907-1.526-5.762-1.02-1.855-2.361-3.49-4.015-4.925-1.654-1.435-3.553-2.592-5.686-3.457a17.25 17.25 0 00-6.54-1.294v-2.858h22.215v-3.82H106.41l-1.803-3.268c.525-1.335 1.282-2.604 2.272-3.804a16.55 16.55 0 013.547-3.189 18.213 18.213 0 014.568-2.21c1.67-.544 3.467-.805 5.385-.805 3.37 0 6.548.367 9.533 1.12 2.984.755 5.73 1.807 8.234 3.142l7.97 4.925-1.058-2.446a34.066 34.066 0 00-5.866-4.405 43.426 43.426 0 00-6.828-3.299 49.616 49.616 0 00-7.465-2.194 51.96 51.96 0 00-7.766-1.042zm25.978 29.425v19.875c-1.545-1.954-2.96-3.576-4.244-4.863a27.843 27.843 0 00-3.834-3.236 24.487 24.487 0 00-4.027-2.273 67.273 67.273 0 00-4.88-1.91c2.69-1.584 5.395-3.03 8.101-4.341 2.707-1.31 5.669-2.386 8.884-3.252z" font-size="144.547" style="line-height:125%;-inkscape-font-specification:SolaimanLipi;text-align:start"/>
		<path fill="#0a4e98" d="M230.082 0l-1.938.188-.875.25c-.73.516-1.225 1.073-1.469 1.656a2.348 2.348 0 00-.468.906c-.105.37-.157.837-.157 1.375 0 .494.118.993.344 1.531a7.53 7.53 0 00.938 1.625c.4.528.853 1.01 1.375 1.469.521.46 1.096.842 1.687 1.156 2.017 1.212 4.381 2.07 7.094 2.563 2.712.493 5.44.75 8.187.75h1.813a6.06 6.06 0 01.969-.125c.434-.023.992-.031 1.687-.031l3.188-.313h3.906l5.375-.094c1.113 0 2.283.076 3.5.188s2.439.31 3.656.625c2.504.606 3.75 1.207 3.75 1.812l-.562.844c-1.113 1.1-2.387 1.75-3.813 1.906l-2.969.094-1.312.125h-99.219l6.25 4.188H212.3v2.78l-6.156 1.313-5.219 1.406-11.062 3.5-8.031 3.063-7.72 3.406 8.188 7.5c1.357 0 2.679.064 4 .188a32.41 32.41 0 013.97.625l1.937.593 2.187.688 2.188.75c.73.247 1.353.446 1.875.625 1.738.628 3.22 1.22 4.437 1.781 1.217.561 2.194 1.072 2.906 1.532.713.46 1.478 1.045 2.313 1.718a33.011 33.011 0 012.656 2.407l1.531 1.718 1.563 1.907 1.344 2.093 3.406 3.032V22.687h29.344l2.312 1.282c1.426.92 1.997 1.547 1.719 1.906-.14.202-.918.44-2.344.688-1.739.403-3.127.768-4.187 1.093-1.061.326-1.805.588-2.188.813l-2.281 1.718-1.563 1.407c-1.53 1.57-2.104 2.848-1.687 3.812.382 1.212 1.189 2.07 2.406 2.563.835.269 1.666.45 2.5.562.835.112 1.641.157 2.406.157 2.504 0 4.817-.5 6.938-1.532l3.062-2c1.461-1.099 2.22-2.42 2.22-3.968a8.185 8.185 0 011.374-.282c.47-.056.95-.093 1.438-.093 1.043 0 2.341.265 3.906.78 1.67.405 2.915 1.236 3.75 2.47.452.538.777 1.084.969 1.656.19.572.28 1.118.28 1.656 0 .875-.338 1.613-1 2.219-1.425.942-2.633 1.72-3.624 2.281-.991.56-1.784.94-2.375 1.188l-5.938 1.5c-.73.224-1.64.379-2.718.468-1.078.09-2.321.125-3.782.125l-4.75-.25-4.75-.593a52.966 52.966 0 01-4.687-1.094c-1.46-.415-2.866-.85-4.188-1.344l7.72 10.313c3.094.538 5.742 1.02 7.968 1.468 2.226.449 4.074.869 5.5 1.25 1.46.36 3.202.86 5.219 1.5 2.017.64 4.325 1.442 6.968 2.407 4.556 1.705 8.78 3.539 12.657 5.468 3.877 1.93 7.37 4.024 10.5 6.313L285.737 65l-9.812-5.781c-1.53-.943-3.544-2.001-6.03-3.156-2.487-1.156-5.437-2.396-8.845-3.72l-2.437-1.405c2.99-.561 5.615-1.262 7.875-2.125 2.26-.864 4.171-1.823 5.719-2.844 1.547-1.021 2.703-2.066 3.468-3.188.765-1.121 1.157-2.244 1.157-3.343l.156-.813c0-2.423-1.302-4.81-3.875-7.187-2.539-2.49-5.578-4.069-9.125-4.72l-2.469-.405-2.812-.782-1.594-.968-1.219-1.875h37.25l-6.406-4.188h-9.406l.125-1.031c0-2.02-.859-3.845-2.563-5.438-1.39-1.368-3.236-2.442-5.531-3.25-2.434-1.099-5.893-1.656-10.344-1.656l-11.406.25-9.094.5-1.812-.094-4.063-.843c-2.225-.718-3.395-1.266-3.5-1.625l-.375-1.75c0-1.481 1.014-2.639 3.031-3.47L231.082 0zM212.3 32.094v21.75a39.854 39.854 0 00-2.875-2.719 25.67 25.67 0 00-2.656-2l-4.187-2.656a119.746 119.746 0 00-3.5-1.844 44.746 44.746 0 00-3.594-1.563 70.977 70.977 0 00-3.969-1.468 66.112 66.112 0 00-3.937-1.219l4.718-1.969 5.907-2.281a91.273 91.273 0 017.093-2.281 118.613 118.613 0 017-1.75z" font-size="85.806" style="line-height:125%;-inkscape-font-specification:SolaimanLipi;text-align:start"/>
	</g>
</svg>
