<?xml version="1.0" encoding="UTF-8" standalone="no"?>
<svg xmlns="http://www.w3.org/2000/svg" width="121" height="18" viewBox="0 0 121 18">
	<path d="M10.942 3.675s-.374-.759-.501-1.011C9.59.982 9.61.892 8.75.778 8.51.747 8.386.716 8.386.597V.065L8.46.013c1.55-.002 5-.002 5-.002l.132.043v.53c0 .122-.086.184-.262.184l-.363.052c-.916.071-.766.446-.157 1.658l5.779 11.824.197.054L23.917 2.18c.178-.49.15-.839-.078-1.043-.23-.199-.392-.318-.987-.343l-.481-.023A.277.277 0 0122.2.71a.175.175 0 01-.08-.148V.054l.074-.052h5.796l.06.052v.507c0 .138-.08.207-.234.207-.76.034-1.322.199-1.687.493-.365.296-.65.703-.855 1.235 0 0-4.718 10.799-6.333 14.39-.618 1.176-1.226 1.068-1.76-.035-1.13-2.325-4.308-9.378-4.308-9.378z"/>
	<path d="M20.201.005s-3.26-.01-4.712 0l-.072.051v.505c0 .062.026.111.08.149.053.04.108.06.167.06l.233.026c.594.023.866.18.948.276.141.173.212.36-.131 1.109l-6.088 12.143-.16-.042s-4.36-9.194-5.622-12.27c-.132-.318-.19-.555-.19-.7 0-.313.281-.482.845-.505l.658-.028c.174 0 .263-.067.263-.206V.068L6.36.016S1.138.01.06.016L0 .068v.53c0 .096.121.155.364.181.663.036 1.099.142 1.309.318.208.178.43.628.722 1.33 1.585 3.807 4.953 10.6 6.593 14.47.472 1.057 1.066 1.22 1.787-.032 1.248-2.314 4.631-9.384 4.631-9.384l2.666-4.984c.31-.528.61-.997.761-1.215.278-.4.434-.475 1.193-.51.155 0 .233-.07.233-.21V.057zm9.915 15.761c0 .583.264.927 1.111 1.006l.556.054c.08 0 .159.052.159.158v.556l-.027.054s-2.011-.054-2.832-.054c-.74 0-2.805.054-2.805.054l-.053-.054v-.556c0-.106.08-.158.185-.158l.53-.054c.873-.08 1.138-.503 1.138-1.006V6.952c0-.58-.32-.742-1.139-.82l-.529-.054c-.106 0-.185-.024-.185-.106v-.61l.026-.053s2.091.053 2.912.053c.714 0 2.752-.053 2.752-.053l.027.053v.583c0 .079-.053.132-.159.132l-.556.054c-.82.078-1.111.291-1.111.821zm7.811 0c0 .583.344.874 1.111 1.006l.292.054c.079.025.158.052.158.158v.556l-.026.054S37.794 17.54 37 17.54c-.74 0-2.911.054-2.911.054l-.053-.054v-.556c0-.106.08-.158.185-.158l.53-.054c.794-.08 1.138-.503 1.138-1.006V6.952c0-.58-.291-.742-1.138-.82l-.53-.054c-.106 0-.185-.024-.185-.106v-.61l.026-.053s2.17.053 2.991.053c.742 0 2.409-.053 2.409-.053l.026.053v.583c0 .079-.053.105-.158.132l-.292.054c-.82.158-1.111.291-1.111.821v3.998c.873 0 1.376-.448 2.54-1.694 1.06-1.166 1.88-2.142 1.88-2.648 0-.212-.238-.449-.768-.53-.106-.024-.158-.053-.158-.132v-.611l.026-.025s2.144.053 2.912.053c.688 0 1.852-.053 1.852-.053l.08.025v.61c0 .08-.08.133-.212.133-1.032.08-1.747.132-2.7 1.217l-2.276 2.619c-.45.478-.609.767-.609.98 0 .159.106.29.238.45l3.997 4.816c.318.37.953.53 1.482.634l.133.026c.079.025.185.078.185.158v.556l-.08.026s-1.402-.026-2.143-.026c-.662 0-1.615.026-1.615.026l-.026-.026v-.318c0-.345-.027-.634-.397-1.058l-2.938-3.653c-.397-.53-.82-.661-1.403-.661zm14.269 0c0 .583.265.927 1.112 1.006l.556.054c.079 0 .158.052.158.158v.556l-.026.054s-2.012-.054-2.832-.054c-.741 0-2.806.054-2.806.054l-.053-.054v-.556c0-.106.08-.158.186-.158l.529-.054c.873-.08 1.138-.503 1.138-1.006V6.952c0-.58-.318-.742-1.138-.82l-.53-.054c-.105 0-.185-.024-.185-.106v-.61l.027-.053s2.09.053 2.911.053c.715 0 2.753-.053 2.753-.053l.026.053v.583c0 .079-.053.132-.158.132l-.556.054c-.82.078-1.112.291-1.112.821zm5.719-8.762c0-.82-.344-.847-1.588-.926-.159 0-.185-.078-.185-.132v-.61l.053-.026c.397 0 1.958.053 2.726.053.741 0 1.8-.053 2.78-.053 3.756 0 4.444 1.852 4.444 3.23 0 1.59-.768 4.077-4.524 4.077-.662 0-1.191-.054-1.669-.265v3.545c0 .58.318.715 1.166.847l.53.079c.106.025.187.054.187.158v.556l-.025.054s-2.118-.054-2.939-.054c-.74 0-2.726.054-2.726.054l-.026-.054v-.556c0-.106.052-.133.158-.158l.556-.08c.82-.105 1.085-.344 1.085-.846l-.003-8.893zm2.038 4.607c.53.213 1.191.238 1.72.238 1.59 0 2.354-.955 2.354-2.99 0-2.277-1.032-2.78-2.486-2.78-1.271 0-1.589.238-1.589.926zm10.75 5.929c-.794 0-2.619.054-2.619.054l-.027-.054v-.583c0-.052.027-.131.158-.131l.611-.054c.822-.08 1.06-.609 1.06-1.137V6.9c0-.61-.318-.715-1.06-.767l-.61-.055c-.16-.024-.16-.078-.16-.106v-.61l.028-.053s2.064.053 2.858.053h3.89c.795 0 2.675-.053 2.675-.053l.055.053c.024 1.138.21 2.173.397 3.177l-.66.106c-.29-.98-.793-2.382-2.487-2.382h-2.117c-.503 0-.768.185-.768.634v3.84h1.984c.742 0 .927-.318 1.033-.848l.158-.555c0-.08.054-.134.16-.134h.447c.055 0 .055.028.055.08-.055.58-.159 1.324-.159 1.96 0 .66.106 1.217.159 1.826l-.055.053h-.448c-.131 0-.187-.053-.187-.133l-.133-.581c-.105-.53-.344-.822-1.035-.822h-1.983v4.05c0 .502.288 1.005.768 1.005h2.514c1.35 0 2.093-.847 2.409-2.226l.66.08-.531 3.043-.053.052s-1.562-.052-2.356-.052l-4.63.005zm9.954-.714l.61-.054c.794-.08 1.059-.318 1.059-1.137V6.9c0-.69-.187-.69-1.06-.767l-.58-.055c-.106 0-.187-.053-.187-.132v-.583l.025-.053s2.33.053 2.808.053c.5 0 2.805-.053 3.494-.053 4.42 0 6.591 2.753 6.591 6.273 0 4.633-3.283 6.008-6.219 6.008-2.117 0-3.043-.054-3.863-.054-.795 0-2.808.054-2.808.054l-.025-.054v-.556a.148.148 0 01.155-.155zm5.904 0c2.91 0 4.553-1.083 4.553-4.792 0-2.751-.61-5.956-5.056-5.956-1.032 0-1.694.159-1.694.822v8.735c0 .739.184 1.191 2.197 1.191zm13.105-1.06c0 .583.264.927 1.111 1.006l.556.054c.08 0 .159.052.159.158v.556l-.026.054s-2.012-.054-2.832-.054c-.742 0-2.805.054-2.805.054l-.054-.054v-.556c0-.106.08-.158.185-.158l.53-.054c.873-.08 1.139-.503 1.139-1.006V6.952c0-.58-.319-.742-1.138-.82l-.53-.054c-.107 0-.186-.024-.186-.106v-.61l.026-.053s2.091.053 2.91.053c.713 0 2.753-.053 2.753-.053l.025.053v.583c0 .079-.055.132-.159.132l-.556.054c-.821.078-1.111.291-1.111.821l.003 8.814zm8.154 1.006l.767.054c.106 0 .212.08.212.21v.504l-.053.054s-2.885-.054-3.52-.054c-.69 0-2.383.054-2.383.054l-.054-.054v-.503c0-.132.08-.211.213-.211 1.165-.08 1.825-.292 2.566-1.986l5.875-13.765c.29-.688.503-.953.902-.953.368 0 .502.265.713.795l5.425 14.345c.372 1.034.902 1.43 1.961 1.536l.29.025c.134 0 .266.078.266.213v.5l-.08.055s-2.037-.054-3.07-.054c-.927 0-3.522.054-3.522.054l-.024-.054v-.501c0-.135.052-.213.188-.213l.741-.054c1.005-.078 1.377-.398 1.112-1.137l-1.615-4.475h-5.507c-.636 0-.794.106-.926.448l-1.536 3.839c-.265.665.08 1.249 1.059 1.328zm6.485-6.725l-2.568-7.066h-.053l-2.647 6.723c-.105.267.079.344.661.344h4.607z"/>
</svg>
