<?xml version="1.0" encoding="UTF-8" standalone="no"?>
<svg xmlns="http://www.w3.org/2000/svg" width="391" height="48" version="1.0">
	<g font-family="DejaVu Sans" font-size="56" font-weight="700">
		<path fill="#0b2645" d="M0 9.85h8.804l6.156 26.954L21.067 9.85h8.852l6.108 26.954L42.182 9.85h8.733l-8.398 37.09H31.923l-6.466-28.197-6.394 28.197H8.47zm56.951 0h9.186v37.09H56.95zm18.228 0h9.186v13.54L97.607 9.85h10.665L91.117 27.414l18.92 19.526h-11.5L84.365 32.332V46.94h-9.186zm37.888 0h9.186v37.09h-9.186z"/>
		<path fill="#0a4e98" d="M128.633 10.061h9.186v13.54l13.242-13.54h10.665L144.57 27.625l18.92 19.527h-11.5l-14.17-14.608v14.608h-9.186zm54.16 6.26c-2.8 0-4.97 1.077-6.514 3.23-1.542 2.153-2.314 5.184-2.314 9.093 0 3.892.772 6.914 2.314 9.067 1.543 2.153 3.714 3.23 6.514 3.23 2.815 0 4.994-1.077 6.537-3.23 1.543-2.153 2.315-5.175 2.315-9.067 0-3.909-.772-6.94-2.315-9.093-1.543-2.153-3.722-3.23-6.537-3.23zm0-6.93c5.726 0 10.211 1.705 13.456 5.117 3.245 3.412 4.868 8.124 4.868 14.136 0 5.995-1.623 10.699-4.868 14.11-3.245 3.412-7.73 5.118-13.456 5.118-5.71 0-10.192-1.706-13.445-5.117-3.252-3.412-4.879-8.116-4.879-14.111 0-6.012 1.627-10.724 4.88-14.136 3.252-3.412 7.734-5.117 13.444-5.117zM175.325 0h5.607v6.111h-5.607zm9.424 0h5.607v6.111h-5.607zm23.287 10.061h10.259l12.955 25.44V10.06h8.709v37.09h-10.26l-12.955-25.438v25.439h-8.708zm35.979 0h10.044l8.112 13.217 8.112-13.217h10.069l-13.576 21.465v15.626h-9.186V31.526zm36.122 0h9.234l9.448 27.377 9.424-27.377h9.233l-13.194 37.09h-10.95zm42.04 0h24.789v7.23h-15.604v6.906h14.673v7.23h-14.673v8.495h16.129v7.23h-25.315zm33.402 0h9.186v13.54l13.241-13.54h10.665l-17.154 17.564 18.92 19.527h-11.5l-14.172-14.608v14.608h-9.186z"/>
	</g>
</svg>
