<?xml version="1.0" encoding="UTF-8" standalone="no"?>
<svg xmlns="http://www.w3.org/2000/svg" width="363" height="58" version="1.0">
	<path fill="#4d4d4d" d="M14.766 46.816L5.508 10.664c-.88-3.32-1.445-5.137-1.7-5.45-.253-.312-1.318-.468-3.193-.468L0 4.687V2.9h15.527v1.787h-.556c-1.895 0-3.096.098-3.604.293-.508.196-.762.645-.762 1.348 0 .645.284 2.09.85 4.336l6.416 25.225 9.99-32.461h2.051l9.99 33.369 7.5-26.104c.84-2.968 1.26-4.629 1.26-4.98 0-.684-1.523-1.025-4.57-1.026h-.528V2.9h11.924v1.787l-.527.06c-2.09.116-3.247.302-3.472.556-.224.254-.845 2.04-1.86 5.361L39.023 46.816h-1.962L26.836 13.447l-10.049 33.37zm53.056-32.373v24.229c0 2.656.215 4.238.645 4.746.43.508 1.845.84 4.248.996l.556.03v1.816h-16.64v-1.817l.557-.029c2.363-.156 3.764-.493 4.204-1.01.44-.518.659-2.095.659-4.732v-16.64c0-2.637-.22-4.21-.66-4.718-.439-.507-1.84-.85-4.203-1.025l-.557-.03v-1.816zm-5.771-5.771V2.9h5.771v5.772zm24.17 21.943v8.057c0 2.617.2 4.194.6 4.731.4.537 1.587.874 3.56 1.011l.557.03v1.816H75.029v-1.817l.557-.029c2.363-.156 3.765-.493 4.204-1.01.44-.518.66-2.095.66-4.732V7.588c0-2.637-.22-4.214-.66-4.732-.44-.517-1.84-.854-4.204-1.01l-.557-.03V0h11.192v29.18h1.377l7.382-7.09c3.165-3.223 4.747-4.951 4.747-5.186 0-.37-.538-.571-1.612-.6a96.921 96.921 0 00-2.226-.044h-.616v-1.817h12.393v1.817l-.557.03c-2.07.136-3.393.385-3.97.746-.576.362-2.407 2.066-5.493 5.112l-5.566 5.479 9.55 11.22c2.423 2.735 3.941 4.322 4.557 4.761.615.44 1.684.708 3.208.806l.556.03v1.816h-8.935L87.598 30.615zm35.976-16.172v24.229c0 2.656.215 4.238.645 4.746.43.508 1.845.84 4.248.996l.556.03v1.816h-16.64v-1.817l.557-.029c2.363-.156 3.764-.493 4.204-1.01.44-.518.659-2.095.659-4.732v-16.64c0-2.637-.22-4.21-.66-4.718-.439-.507-1.84-.85-4.203-1.025l-.557-.03v-1.816zm-5.771-5.771V2.9h5.771v5.772zm15.967 35.947v-8.086h3.252l.058.557c.254 2.91.444 4.556.571 4.936.127.381.64.865 1.539 1.45 1.757 1.133 3.72 1.7 5.888 1.7 1.758 0 3.198-.532 4.321-1.597 1.123-1.064 1.685-2.436 1.685-4.116 0-1.484-.371-2.666-1.113-3.545-.762-.86-2.1-1.66-4.014-2.402l-2.959-1.143c-3.184-1.23-5.488-2.617-6.914-4.16-1.426-1.524-2.139-3.379-2.139-5.567 0-2.578 1.03-4.707 3.091-6.386 2.06-1.68 4.683-2.52 7.866-2.52 3.106 0 6.319.596 9.64 1.787v7.588h-3.253v-.527c-.117-1.914-.273-3.237-.469-3.97-.195-.732-.507-1.274-.937-1.626-1.27-.996-2.803-1.494-4.6-1.494-1.699 0-3.11.547-4.233 1.64-1.123 1.094-1.685 2.471-1.685 4.132 0 1.367.46 2.46 1.377 3.28.899.84 2.715 1.817 5.45 2.93l2.695 1.114c2.949 1.21 5.01 2.46 6.181 3.75 1.153 1.308 1.729 2.988 1.729 5.039 0 2.832-1.128 5.141-3.384 6.929-2.256 1.787-5.19 2.68-8.804 2.68-3.808 0-7.421-.79-10.84-2.373zm38.437-30.176v24.229c0 2.656.215 4.238.645 4.746.43.508 1.845.84 4.248.996l.556.03v1.816h-16.64v-1.817l.556-.029c2.364-.156 3.765-.493 4.204-1.01.44-.518.66-2.095.66-4.732v-16.64c0-2.637-.22-4.21-.66-4.718-.439-.507-1.84-.85-4.204-1.025l-.556-.03v-1.816zm-5.771-5.771V2.9h5.771v5.772zm24.17 11.748c1.68-2.227 3.432-3.897 5.258-5.01s3.736-1.67 5.728-1.67c2.324 0 4.17.557 5.537 1.67s2.246 2.783 2.637 5.01c1.855-2.227 3.73-3.897 5.625-5.01 1.894-1.113 3.798-1.67 5.713-1.67 5.703 0 8.554 3.125 8.554 9.375v15.557c0 2.656.21 4.233.63 4.731.42.498 1.831.835 4.234 1.011l.556.03v1.816h-16.64v-1.817l.556-.029c2.402-.176 3.814-.513 4.234-1.01.42-.499.63-2.076.63-4.732V24.17c0-2.52-.328-4.263-.982-5.23-.654-.966-1.821-1.45-3.5-1.45-1.407 0-2.877.41-4.41 1.23-1.533.821-3.14 2.052-4.82 3.692v16.26c0 2.637.215 4.214.645 4.731.43.518 1.836.855 4.219 1.011l.556.03v1.816h-16.64v-1.817l.556-.029c2.403-.156 3.814-.488 4.234-.996.42-.508.63-2.09.63-4.746V24.17c0-2.48-.323-4.214-.967-5.2-.645-.987-1.777-1.48-3.398-1.48-1.524 0-3.067.41-4.63 1.23-1.562.821-3.144 2.052-4.745 3.692v16.26c0 2.656.214 4.238.644 4.746.43.508 1.846.84 4.248.996l.557.03v1.816h-16.64v-1.817l.556-.029c2.363-.156 3.764-.493 4.204-1.01.44-.518.659-2.095.659-4.732v-16.64c0-2.637-.22-4.21-.66-4.718-.439-.507-1.84-.85-4.203-1.025l-.557-.03v-1.816h11.192zm56.718-5.977v24.229c0 2.656.215 4.238.645 4.746.43.508 1.845.84 4.248.996l.556.03v1.816h-16.64v-1.817l.557-.029c2.363-.156 3.764-.493 4.204-1.01.44-.518.659-2.095.659-4.732v-16.64c0-2.637-.22-4.21-.66-4.718-.439-.507-1.84-.85-4.203-1.025l-.557-.03v-1.816zm-5.771-5.771V2.9h5.771v5.772zm33.017 37.412c-1.464.605-2.861.908-4.19.908-3.378 0-5.844-.85-7.397-2.549-1.552-1.699-2.329-4.404-2.329-8.115V16.816h-4.687v-2.373h4.687V8.672l5.801-1.436v7.207h8.848v2.373h-8.848V37.09c0 2.734.361 4.678 1.084 5.83.723 1.152 1.953 1.728 3.692 1.728.917 0 2.03-.302 3.34-.908zm24.99-4.19c-3.437 3.399-6.835 5.098-10.195 5.098-2.695 0-4.941-.854-6.738-2.563-1.797-1.71-2.695-3.853-2.695-6.431 0-3.008 1.172-5.45 3.515-7.324 2.676-2.149 7.207-3.223 13.594-3.223h1.201v-3.955c0-5.02-1.904-7.53-5.713-7.53-1.777 0-3.35.548-4.716 1.641-.801.665-1.309 2.022-1.524 4.073l-.03.556h-3.925v-5.83c4.063-1.777 7.832-2.666 11.309-2.666 6.914 0 10.37 3.174 10.37 9.522v14.18c0 2.538.22 4.326.66 5.36.44 1.036 1.206 1.553 2.3 1.553.39 0 .908-.087 1.552-.263l.176 2.168c-1.387.488-2.627.732-3.72.732-2.852 0-4.659-1.699-5.42-5.097zm-1.318-.644V29.268h-1.347c-3.399 0-6.055.703-7.97 2.109-1.913 1.406-2.87 3.34-2.87 5.8 0 1.837.595 3.36 1.787 4.571 1.191 1.211 2.676 1.816 4.453 1.816 1.68 0 3.662-.771 5.947-2.314zm37.53-.967c-1.407 2.227-3.042 3.902-4.908 5.025-1.865 1.123-3.95 1.684-6.255 1.684-3.593 0-6.455-1.42-8.584-4.263-2.128-2.841-3.193-6.655-3.193-11.44 0-5.312 1.22-9.565 3.662-12.759 2.442-3.193 5.684-4.79 9.727-4.79 1.855 0 3.579.362 5.17 1.084 1.592.723 3.052 1.807 4.38 3.252v-3.633h5.801v35.801c0 2.656.21 4.234.63 4.732.42.498 1.831.835 4.234 1.01l.556.03v1.816h-16.64v-1.816l.556-.03c2.403-.175 3.814-.512 4.234-1.01.42-.498.63-2.076.63-4.732zm0-19.951c-1.504-1.133-2.989-1.977-4.454-2.534-1.464-.557-2.91-.835-4.336-.835-2.675 0-4.682 1.06-6.02 3.179-1.338 2.119-2.007 5.307-2.007 9.565 0 4.512.65 7.896 1.948 10.151 1.3 2.256 3.247 3.384 5.845 3.384 1.777 0 3.418-.415 4.922-1.245 1.504-.83 2.871-2.075 4.102-3.735zm23.115-5.889v24.229c0 2.656.215 4.238.644 4.746.43.508 1.846.84 4.248.996l.557.03v1.816h-16.64v-1.817l.556-.029c2.363-.156 3.765-.493 4.204-1.01.44-.518.66-2.095.66-4.732v-16.64c0-2.637-.22-4.21-.66-4.718-.44-.507-1.84-.85-4.204-1.025l-.557-.03v-1.816zm-5.772-5.771V2.9h5.772v5.772z" font-family="GothicE" font-size="20" font-weight="400" text-anchor="middle" style="-inkscape-font-specification:GothicE;text-align:center"/>
</svg>
