<?xml version="1.0" encoding="UTF-8" standalone="no"?>
<svg xmlns="http://www.w3.org/2000/svg" width="350" height="30" version="1.0">
	<g style="-inkscape-font-specification:'Nimbus Sans L'">
		<path style="-inkscape-font-specification:'Lucida Bright Italic'" fill="gray" d="M19.897 29.445H0l.393-1.157.361-.018c1.538-.1 2.502-.314 2.894-.644.392-.33.872-1.333 1.443-3.011l6.096-17.94c.575-1.69.778-2.697.608-3.02-.17-.323-.99-.535-2.46-.634l-.342-.037.387-1.138h18.87l-1.642 4.83h-2.07l.084-.354c.483-1.716.67-2.642.562-2.779-.11-.137-1.083-.205-2.923-.205h-6.023l-3.752 11.04 5.06-.02c1.118 0 1.825-.058 2.12-.176.295-.119.646-.706 1.055-1.763l.133-.335h1.492l-2.065 6.079H18.79l.095-.336c.271-.945.31-1.507.117-1.687-.194-.18-.85-.27-1.969-.27H11.98l-2.973 8.745c-.49 1.442-.624 2.34-.402 2.694.221.355 1.047.532 2.476.532h2.947c2.188 0 3.47-.109 3.85-.326.378-.218.89-1.147 1.534-2.788l.133-.336h2.07zM38.65 0l-8.366 24.615c-.575 1.69-.78 2.698-.616 3.02.163.324.993.535 2.489.635l.347.018-.393 1.157H21.52l.393-1.157.361-.018c1.538-.1 2.503-.314 2.894-.644.392-.329.873-1.333 1.443-3.011L33.335 4.83c.57-1.678.771-2.682.604-3.012-.168-.33-.988-.544-2.458-.643l-.348-.019L31.526 0zm22.495 29.445l1.293-3.805c-1.377 1.418-2.78 2.484-4.21 3.199-1.43.714-2.879 1.072-4.346 1.072-2.287 0-3.801-.905-4.542-2.713-.74-1.81-.593-4.237.443-7.282 1.15-3.382 2.846-6.089 5.091-8.121 2.245-2.033 4.654-3.05 7.227-3.05 1.181 0 2.2.23 3.057.69.856.46 1.551 1.15 2.084 2.07l2.27-6.675c.577-1.703.787-2.713.627-3.03-.159-.317-.986-.526-2.482-.625l-.347-.019L67.702 0h7.142L66.48 24.615c-.575 1.69-.783 2.697-.626 3.02.158.324.984.535 2.48.635l.347.018-.393 1.157zm5.609-16.504c-.712-.72-1.474-1.258-2.286-1.613a6.38 6.38 0 00-2.579-.531c-1.703 0-3.21.674-4.52 2.023-1.31 1.35-2.425 3.379-3.347 6.089-.976 2.871-1.294 5.025-.956 6.461.34 1.436 1.335 2.154 2.989 2.154 1.118 0 2.246-.264 3.383-.793 1.137-.528 2.282-1.32 3.437-2.377zM83.71 9.193l-5.24 15.422c-.574 1.69-.78 2.698-.616 3.02.164.324.993.535 2.489.635l.347.018-.393 1.157H69.705l.392-1.157.362-.018c1.537-.1 2.502-.314 2.894-.644.391-.329.872-1.333 1.442-3.011l3.6-10.592c.57-1.678.771-2.679.601-3.002-.17-.323-.987-.541-2.453-.653l-.349-.019.393-1.156zM81.285 5.52l1.25-3.674h3.673l-1.25 3.674zm17.166 23.235c-2.201.77-4.228 1.156-6.08 1.156-2.959 0-5.022-.989-6.19-2.965-1.169-1.977-1.214-4.55-.136-7.72 1.077-3.17 2.825-5.71 5.245-7.618 2.42-1.908 5.104-2.862 8.05-2.862 1.505 0 3.371.304 5.6.913l-1.64 4.83h-2.294l.095-.335c.947-2.785.195-4.177-2.254-4.178-1.777 0-3.466.809-5.066 2.425-1.6 1.616-2.869 3.804-3.806 6.564-.96 2.822-1.094 5.047-.404 6.675.69 1.629 2.103 2.443 4.242 2.443 1.84 0 3.567-.31 5.184-.932zm19.469 0c-2.202.77-4.229 1.156-6.081 1.156-2.959 0-5.022-.989-6.19-2.965-1.169-1.977-1.214-4.55-.136-7.72 1.077-3.17 2.825-5.71 5.245-7.618 2.42-1.908 5.104-2.862 8.05-2.862 1.505 0 3.371.304 5.6.913l-1.64 4.83h-2.294l.095-.335c.947-2.785.195-4.177-2.254-4.178-1.777 0-3.466.809-5.066 2.425-1.6 1.616-2.868 3.804-3.806 6.564-.96 2.822-1.094 5.047-.404 6.675.69 1.629 2.103 2.443 4.242 2.443 1.84 0 3.567-.31 5.184-.932zm16.437-19.562l-5.241 15.422c-.574 1.69-.78 2.698-.616 3.02.163.324.993.535 2.489.635l.347.018-.393 1.157h-10.591l.392-1.157.362-.018c1.537-.1 2.502-.314 2.893-.644.392-.329.873-1.333 1.443-3.011l3.6-10.592c.57-1.678.771-2.679.601-3.002-.17-.323-.988-.541-2.454-.653l-.348-.019.393-1.156zm-2.425-3.673l1.249-3.674h3.674l-1.25 3.674zm10.788 24.39c-2.984 0-5.018-.947-6.101-2.843-1.084-1.896-1.07-4.479.041-7.748 1.111-3.27 2.852-5.85 5.222-7.739 2.37-1.89 5.047-2.834 8.03-2.834 2.997 0 5.034.945 6.114 2.834 1.08 1.89 1.064 4.47-.047 7.739-1.111 3.27-2.853 5.852-5.225 7.748-2.373 1.896-5.051 2.844-8.035 2.844zm.392-1.155c1.653 0 3.33-.892 5.03-2.676 1.701-1.784 3.014-4.038 3.94-6.76.916-2.698 1.133-4.945.65-6.741-.484-1.797-1.553-2.695-3.206-2.695-1.641 0-3.314.898-5.018 2.695-1.705 1.796-3.015 4.043-3.932 6.74-.925 2.723-1.147 4.977-.666 6.76.481 1.785 1.549 2.677 3.202 2.677zm24.712-15.758c1.414-1.417 2.85-2.48 4.31-3.188 1.459-.709 2.94-1.063 4.445-1.063 1.74 0 2.913.572 3.518 1.715.594 1.144.55 2.717-.13 4.718l-3.207 9.436c-.542 1.852-.754 2.896-.635 3.133.12.236.955.41 2.508.522l.329.018-.393 1.157h-10.573l.393-1.157.343-.018c1.629-.112 2.583-.286 2.862-.522.279-.237.776-1.28 1.493-3.133l3.01-8.858c.592-1.74.776-2.95.552-3.627-.223-.677-.92-1.016-2.088-1.016-.82 0-1.828.258-3.022.774-1.195.516-2.573 1.296-4.134 2.34l-3.53 10.387c-.574 1.69-.78 2.698-.616 3.02.164.324.993.535 2.489.635l.347.018-.393 1.157h-10.591l.392-1.157.362-.018c1.537-.1 2.502-.314 2.894-.644.391-.329.872-1.333 1.442-3.011l3.6-10.592c.57-1.678.771-2.679.601-3.002-.17-.323-.987-.541-2.454-.653l-.348-.018.393-1.157h7.123zm26.066 13.669c-2.922 2.163-5.453 3.245-7.591 3.245-1.716 0-2.96-.544-3.734-1.632-.774-1.088-.883-2.452-.326-4.093.651-1.915 1.926-3.468 3.823-4.662 2.168-1.367 5.284-2.051 9.35-2.051h.764l.856-2.518c1.085-3.195.416-4.792-2.009-4.792-1.13 0-2.25.348-3.356 1.044-.654.423-1.27 1.287-1.85 2.592l-.14.355h-2.498l1.26-3.711c2.971-1.132 5.563-1.697 7.776-1.697 4.4 0 5.914 2.02 4.54 6.06l-3.066 9.026c-.55 1.616-.796 2.753-.74 3.412.055.659.43.988 1.127.988.248 0 .597-.055 1.045-.167l-.356 1.38c-.989.31-1.831.466-2.527.466-1.815 0-2.598-1.082-2.347-3.245zm-.699-.41l2.592-7.627h-.857c-2.164 0-4.006.448-5.529 1.343-1.522.895-2.55 2.125-3.082 3.692-.397 1.168-.348 2.138.149 2.909.496.77 1.31 1.156 2.44 1.156 1.07 0 2.499-.491 4.287-1.473zm18.953-11.543l-3.366 9.902c-.57 1.678-.766 2.685-.588 3.02.179.336.999.548 2.461.635l.795.018-.393 1.157h-11.039l.393-1.157.361-.018c1.538-.1 2.502-.314 2.894-.644.392-.329.872-1.333 1.443-3.011l3.6-10.592c.57-1.678.77-2.679.6-3.002-.17-.323-.987-.541-2.453-.653l-.349-.019.393-1.156h7.123l-1.292 3.804c2.642-2.834 5.318-4.251 8.028-4.251.373 0 .766.068 1.18.205l-1.883 5.538h-2.07l.096-.335c.255-1.157.367-1.843.336-2.061-.032-.217-.277-.326-.737-.326-1.84 0-3.684.982-5.533 2.946zm18.658-5.52l-5.24 15.422c-.575 1.69-.78 2.698-.617 3.02.164.324.993.535 2.49.635l.346.018-.392 1.157h-10.592l.393-1.157.36-.018c1.539-.1 2.503-.314 2.895-.644.391-.329.872-1.333 1.443-3.011l3.6-10.592c.57-1.678.77-2.679.6-3.002-.17-.323-.987-.541-2.453-.653l-.349-.019.393-1.156zm-2.425-3.673l1.25-3.674h3.673l-1.25 3.674zm10.788 24.39c-2.984 0-5.018-.947-6.101-2.843-1.084-1.896-1.07-4.479.041-7.748 1.111-3.27 2.852-5.85 5.222-7.739 2.37-1.89 5.047-2.834 8.03-2.834 2.997 0 5.035.945 6.114 2.834 1.08 1.89 1.064 4.47-.047 7.739-1.11 3.27-2.853 5.852-5.225 7.748-2.373 1.896-5.05 2.844-8.034 2.844zm.392-1.155c1.654 0 3.33-.892 5.031-2.676 1.7-1.784 3.013-4.038 3.939-6.76.917-2.698 1.133-4.945.65-6.741-.484-1.797-1.553-2.695-3.206-2.695-1.641 0-3.314.898-5.018 2.695-1.704 1.796-3.015 4.043-3.932 6.74-.925 2.723-1.147 4.977-.666 6.76.482 1.785 1.549 2.677 3.202 2.677zM280.322 0l-8.366 24.615c-.574 1.69-.78 2.698-.616 3.02.164.324.994.535 2.49.635l.347.018-.393 1.157h-10.592l.393-1.157.361-.018c1.538-.1 2.502-.314 2.894-.644.392-.329.872-1.333 1.443-3.011l6.725-19.785c.57-1.678.771-2.682.603-3.012-.168-.33-.987-.544-2.458-.643l-.347-.019.393-1.156zm8.885 9.193l-5.242 15.422c-.574 1.69-.78 2.698-.616 3.02.164.324.994.535 2.49.635l.347.018-.393 1.157H275.2l.393-1.157.361-.018c1.538-.1 2.502-.314 2.894-.644.392-.329.873-1.333 1.443-3.011l3.6-10.592c.57-1.678.77-2.679.6-3.002-.169-.323-.987-.541-2.453-.653l-.349-.019.393-1.156zM286.78 5.52l1.25-3.674h3.673l-1.25 3.674zm2.35 24.148l8.44-24.838c.57-1.678.772-2.682.604-3.012-.168-.33-.987-.544-2.458-.643l-.347-.019.392-1.156h7.124l-4.417 12.997c1.401-1.417 2.816-2.48 4.244-3.188 1.428-.709 2.87-1.063 4.324-1.063 2.288 0 3.802.901 4.545 2.704.742 1.802.596 4.226-.439 7.272-1.15 3.382-2.847 6.092-5.094 8.13-2.247 2.04-4.657 3.059-7.23 3.059-1.182 0-2.204-.23-3.067-.69-.863-.46-1.561-1.15-2.093-2.07h-.224l-1.322 2.517zm5.023-3.972c.737.721 1.51 1.262 2.32 1.623.81.36 1.662.54 2.557.54 1.703 0 3.208-.677 4.514-2.032s2.42-3.388 3.34-6.098c.976-2.872 1.298-5.025.965-6.461-.332-1.436-1.325-2.154-2.979-2.154-1.106 0-2.228.264-3.364.793-1.137.528-2.295 1.32-3.475 2.377zm28.236-10.983l-3.366 9.902c-.57 1.678-.766 2.685-.588 3.02.178.336.998.548 2.46.635l.796.018-.393 1.157h-11.04l.393-1.157.362-.018c1.537-.1 2.502-.314 2.893-.644.392-.329.873-1.333 1.443-3.011l3.6-10.592c.57-1.678.771-2.679.601-3.002-.17-.323-.988-.541-2.454-.653l-.348-.019.393-1.156h7.123l-1.293 3.804c2.642-2.834 5.318-4.251 8.028-4.251.373 0 .766.068 1.18.205l-1.883 5.538h-2.07l.096-.335c.256-1.157.368-1.843.336-2.061-.031-.217-.277-.326-.737-.326-1.84 0-3.684.982-5.532 2.946zm22.547 13.817c-2.65.92-4.938 1.38-6.865 1.38-2.97 0-5.046-1-6.224-3.001-1.178-2.002-1.225-4.6-.14-7.795 1.032-3.034 2.71-5.52 5.035-7.46 2.325-1.939 4.793-2.908 7.404-2.908 2.412 0 3.99.814 4.736 2.443.745 1.628.605 3.953-.422 6.974l-.12.354h-12.364c-1.069 3.145-1.325 5.52-.77 7.123.555 1.604 1.914 2.406 4.077 2.406 2.275 0 4.373-.466 6.294-1.399zm-8.492-11.17h8.392l.297-.82c.798-2.35 1.07-4.046.816-5.09-.254-1.045-1.071-1.567-2.451-1.567-1.38 0-2.707.678-3.982 2.033-1.275 1.355-2.299 3.17-3.072 5.445z" font-family="Lucida Bright" font-size="38.19" font-style="italic" font-weight="400"/>
	</g>
</svg>
