<?xml version="1.0" encoding="UTF-8" standalone="no"?>
<svg xmlns="http://www.w3.org/2000/svg" width="331" height="44" version="1.0">
	<path fill="gray" d="M8.46 2.414l.282-.867h10.149c4.296 0 7.48.492 9.55 1.476 2.07.985 3.723 2.536 4.957 4.653 1.235 2.117 1.852 4.387 1.852 6.808a17.64 17.64 0 01-1.066 6.059c-.711 1.96-1.516 3.531-2.414 4.71-.899 1.18-2.278 2.481-4.137 3.903a19.463 19.463 0 01-6.047 3.153c-2.172.68-4.883 1.02-8.133 1.02H0l.305-.868c1.234-.031 2.062-.14 2.484-.328.625-.266 1.086-.625 1.383-1.078.453-.657.96-1.977 1.523-3.961L11.32 7.875c.438-1.516.657-2.703.657-3.562 0-.61-.204-1.079-.61-1.407-.406-.328-1.203-.492-2.39-.492zm8.321.89l-6.89 23.79c-.516 1.781-.774 2.883-.774 3.304 0 .25.082.493.246.727.164.234.387.39.668.469.406.14 1.063.21 1.969.21 2.453 0 4.73-.253 6.832-.761 2.102-.508 3.824-1.262 5.168-2.262 1.906-1.453 3.43-3.453 4.57-6 1.14-2.547 1.711-5.445 1.711-8.695 0-3.672-.875-6.402-2.625-8.191-1.75-1.79-4.304-2.684-7.664-2.684-.828 0-1.898.031-3.21.094zm25.055 21.188c-.11.781-.164 1.43-.164 1.946 0 1.39.492 2.574 1.476 3.55.985.977 2.18 1.465 3.586 1.465a7.92 7.92 0 003.246-.691c1.04-.461 2.582-1.48 4.63-3.059l.492.68c-3.704 3.672-7.235 5.508-10.594 5.508-2.281 0-4-.72-5.156-2.157-1.157-1.437-1.735-3.023-1.735-4.757 0-2.329.719-4.711 2.156-7.149 1.438-2.437 3.243-4.332 5.415-5.683 2.171-1.352 4.406-2.028 6.703-2.028 1.656 0 2.882.336 3.68 1.008.796.672 1.195 1.469 1.195 2.39 0 1.298-.516 2.54-1.547 3.727-1.36 1.547-3.36 2.797-6 3.75-1.75.64-4.211 1.14-7.383 1.5zM42 23.344c2.312-.266 4.195-.719 5.648-1.36 1.922-.859 3.364-1.886 4.325-3.082.96-1.195 1.441-2.332 1.441-3.41 0-.656-.207-1.187-.621-1.594-.414-.406-1.004-.609-1.77-.609-1.593 0-3.285.848-5.074 2.543-1.789 1.695-3.105 4.2-3.949 7.512zm25.992-11.227l-3.117 10.664c2.922-4.36 5.16-7.226 6.715-8.601 1.555-1.375 3.05-2.063 4.488-2.063.781 0 1.426.258 1.934.774.508.515.761 1.187.761 2.015 0 .938-.226 2.188-.68 3.75l-2.859 9.867c-.328 1.141-.492 1.836-.492 2.086 0 .22.063.403.188.551.125.149.257.223.398.223.188 0 .414-.102.68-.305.828-.656 1.734-1.656 2.719-3l.726.445c-1.453 2.079-2.828 3.563-4.125 4.454-.906.609-1.719.914-2.437.914-.579 0-1.04-.176-1.383-.528-.344-.351-.516-.824-.516-1.418 0-.75.266-2.039.797-3.867l2.719-9.422c.344-1.172.515-2.086.515-2.742 0-.312-.101-.566-.304-.762a1.04 1.04 0 00-.75-.293c-.438 0-.961.188-1.57.563-1.157.703-2.36 1.863-3.61 3.48-1.25 1.618-2.57 3.684-3.96 6.2A22.814 22.814 0 0063 29.46l-1.172 3.867h-3.515l4.265-14.672c.5-1.765.75-2.828.75-3.187 0-.344-.137-.645-.41-.903-.273-.257-.613-.386-1.02-.386a8.77 8.77 0 00-.984.093l-.89.141-.141-.844zm39.633.563l-.422 1.547h-3.422l-2.578 10.242c-1.14 4.515-2.289 8.008-3.445 10.476-1.64 3.485-3.406 5.89-5.297 7.22-1.438 1.015-2.875 1.522-4.313 1.523-.937 0-1.734-.282-2.39-.844a1.866 1.866 0 01-.727-1.524c0-.5.2-.933.598-1.3.398-.368.887-.551 1.465-.551.422 0 .777.133 1.066.398.29.266.434.57.434.914 0 .344-.164.664-.492.961-.25.219-.375.383-.375.492 0 .141.054.25.164.328.14.11.359.165.656.165.672 0 1.379-.211 2.121-.633.742-.422 1.402-1.051 1.98-1.887.579-.836 1.125-2.043 1.641-3.621.219-.656.805-2.82 1.758-6.492l4.078-15.867h-4.078l.328-1.547c1.297 0 2.203-.09 2.719-.27.515-.18.988-.523 1.418-1.031.43-.508.988-1.457 1.676-2.848.921-1.875 1.804-3.328 2.648-4.36 1.156-1.39 2.371-2.433 3.644-3.128C109.754.348 110.953 0 112.078 0c1.188 0 2.14.3 2.86.902.718.602 1.078 1.254 1.078 1.957 0 .547-.18 1.008-.54 1.383-.359.375-.82.563-1.382.563-.485 0-.88-.14-1.184-.422-.305-.281-.457-.617-.457-1.008 0-.25.102-.559.305-.926s.304-.613.305-.738c0-.219-.07-.383-.211-.492-.204-.156-.5-.235-.891-.235-.984 0-1.867.313-2.648.938-1.047.828-1.985 2.125-2.813 3.89-.422.922-1.195 3.211-2.32 6.868zm1.594.75l8.086-1.313-3.375 11.39c2.734-4.671 5.218-7.937 7.453-9.796 1.265-1.063 2.297-1.594 3.094-1.594.515 0 .921.153 1.218.457.297.305.446.746.446 1.324a5.904 5.904 0 01-.797 2.954c-.375.703-.914 1.054-1.617 1.054a1.33 1.33 0 01-.926-.351c-.258-.235-.418-.594-.48-1.078-.032-.297-.102-.493-.212-.586a.609.609 0 00-.445-.188 1.57 1.57 0 00-.75.188c-.406.218-1.023.828-1.851 1.828-1.297 1.531-2.704 3.515-4.22 5.953a17.74 17.74 0 00-1.687 3.492c-.656 1.781-1.031 2.852-1.125 3.211l-.75 2.953h-3.586l4.336-14.555c.5-1.687.75-2.89.75-3.609a.866.866 0 00-.351-.703c-.313-.25-.727-.375-1.242-.375-.329 0-.93.07-1.805.21zm26.883-10.617c.656 0 1.21.226 1.664.68a2.26 2.26 0 01.68 1.663c0 .64-.231 1.192-.692 1.653a2.255 2.255 0 01-1.652.691c-.641 0-1.192-.23-1.653-.691a2.255 2.255 0 01-.691-1.653c0-.656.226-1.21.68-1.664a2.263 2.263 0 011.664-.68zm.304 9.304l-4.64 16.43c-.313 1.11-.47 1.773-.47 1.992 0 .25.075.453.224.61a.704.704 0 00.527.234c.234 0 .516-.125.844-.375.89-.703 1.789-1.703 2.695-3l.82.539c-1.062 1.625-2.312 2.992-3.75 4.101-1.062.829-2.078 1.243-3.047 1.243-.64 0-1.164-.192-1.57-.575-.406-.382-.61-.863-.61-1.441 0-.578.196-1.54.587-2.883l3.047-10.5c.5-1.719.75-2.797.75-3.234 0-.344-.122-.625-.364-.844-.242-.219-.574-.328-.996-.328-.344 0-1.055.086-2.133.258v-.914zm7.992 12.375c-.109.781-.164 1.43-.164 1.946 0 1.39.493 2.574 1.477 3.55.984.977 2.18 1.465 3.586 1.465a7.92 7.92 0 003.246-.691c1.039-.461 2.582-1.48 4.629-3.059l.492.68c-3.703 3.672-7.234 5.508-10.594 5.508-2.28 0-4-.72-5.156-2.157-1.156-1.437-1.734-3.023-1.734-4.757 0-2.329.718-4.711 2.156-7.149 1.437-2.437 3.242-4.332 5.414-5.683 2.172-1.352 4.406-2.028 6.703-2.028 1.656 0 2.883.336 3.68 1.008.797.672 1.195 1.469 1.195 2.39 0 1.298-.516 2.54-1.547 3.727-1.36 1.547-3.36 2.797-6 3.75-1.75.64-4.21 1.14-7.383 1.5zm.165-1.148c2.312-.266 4.195-.719 5.648-1.36 1.922-.859 3.363-1.886 4.324-3.082.961-1.195 1.442-2.332 1.442-3.41 0-.656-.207-1.187-.622-1.594-.414-.406-1.003-.609-1.77-.609-1.593 0-3.284.848-5.073 2.543-1.79 1.695-3.106 4.2-3.95 7.512zm49.593-3.89c0 2.343-.62 4.663-1.863 6.96a14.125 14.125 0 01-5.191 5.461c-2.22 1.344-4.375 2.016-6.47 2.016-2.14 0-3.886-.684-5.237-2.051-1.352-1.367-2.028-3.137-2.028-5.309 0-2.297.66-4.601 1.98-6.914 1.321-2.312 3.087-4.14 5.298-5.484 2.21-1.344 4.347-2.016 6.41-2.016 2.062 0 3.761.68 5.097 2.04 1.336 1.359 2.004 3.124 2.004 5.296zm-3.89-1.618c0-1.453-.356-2.566-1.067-3.34-.71-.773-1.629-1.16-2.754-1.16-2.297 0-4.41 1.644-6.34 4.934-1.93 3.289-2.894 6.558-2.894 9.808 0 1.485.375 2.629 1.125 3.434.75.804 1.695 1.207 2.836 1.207 2.203 0 4.27-1.637 6.2-4.91 1.929-3.274 2.894-6.598 2.894-9.973zm8.203-4.406l8.086-1.313-3.375 11.39c2.734-4.671 5.218-7.937 7.453-9.796 1.265-1.063 2.297-1.594 3.094-1.594.515 0 .921.153 1.218.457.297.305.446.746.446 1.324a5.904 5.904 0 01-.797 2.954c-.375.703-.914 1.054-1.617 1.054a1.33 1.33 0 01-.926-.351c-.258-.235-.418-.594-.48-1.078-.032-.297-.102-.493-.212-.586a.609.609 0 00-.445-.188 1.57 1.57 0 00-.75.188c-.406.218-1.023.828-1.851 1.828-1.297 1.531-2.704 3.515-4.22 5.953a17.74 17.74 0 00-1.687 3.492c-.656 1.781-1.031 2.852-1.125 3.211l-.75 2.953h-3.586l4.336-14.555c.5-1.687.75-2.89.75-3.609a.866.866 0 00-.351-.703c-.313-.25-.727-.375-1.242-.375-.329 0-.93.07-1.805.21zM240.586 0l-8.063 27.656c-.437 1.5-.656 2.485-.656 2.953 0 .157.067.305.2.446.132.14.269.21.41.21.203 0 .445-.1.726-.304.531-.375 1.422-1.313 2.672-2.813l.797.493c-1.125 1.562-2.262 2.828-3.41 3.797-1.149.968-2.223 1.453-3.223 1.453-.531 0-.969-.188-1.312-.563-.344-.375-.516-.906-.516-1.594 0-.89.234-2.086.703-3.586l.914-2.906c-2.266 3.5-4.328 5.922-6.187 7.266-1.282.922-2.508 1.383-3.68 1.383-1.188 0-2.223-.528-3.106-1.582-.882-1.055-1.324-2.489-1.324-4.301 0-2.328.742-4.813 2.227-7.453 1.484-2.64 3.445-4.79 5.883-6.446 1.921-1.328 3.687-1.992 5.297-1.992.843 0 1.57.172 2.18.516.609.344 1.21.914 1.804 1.71l2.297-8.155c.172-.579.312-1.04.422-1.383.187-.625.28-1.14.28-1.547 0-.328-.116-.602-.35-.82-.329-.266-.75-.399-1.266-.399-.36 0-.953.055-1.782.164v-.867zm-8.695 16.64c0-1-.29-1.804-.868-2.413-.578-.61-1.312-.914-2.203-.914-1.968 0-4.02 1.625-6.152 4.875-2.133 3.25-3.2 6.359-3.2 9.328 0 1.172.259 2.066.774 2.683.516.617 1.133.926 1.852.926 1.625 0 3.664-1.758 6.117-5.273 2.453-3.516 3.68-6.586 3.68-9.211zM252.469 0l-4.617 16.195c1.5-1.562 2.808-2.632 3.925-3.21a7.526 7.526 0 013.504-.868c1.719 0 3.125.57 4.219 1.711 1.094 1.14 1.64 2.688 1.64 4.64 0 2.516-.718 5.02-2.156 7.512-1.437 2.493-3.242 4.434-5.414 5.825-2.172 1.39-4.312 2.086-6.422 2.086-2.359 0-4.78-.883-7.265-2.649l7.125-24.539c.547-1.89.82-3 .82-3.328 0-.406-.125-.71-.375-.914-.36-.281-.89-.422-1.594-.422-.328 0-.828.055-1.5.164v-.89zm-9.07 31.5c1.562.86 2.937 1.29 4.124 1.29 1.375 0 2.801-.505 4.278-1.513 1.476-1.007 2.758-2.707 3.844-5.097 1.085-2.39 1.628-4.805 1.628-7.242 0-1.438-.355-2.563-1.066-3.375-.71-.813-1.55-1.22-2.52-1.22-1.453 0-2.875.583-4.265 1.747-1.39 1.164-2.383 2.785-2.977 4.863zm41.414-12.047c0 2.344-.622 4.664-1.864 6.961a14.125 14.125 0 01-5.191 5.461c-2.219 1.344-4.375 2.016-6.469 2.016-2.14 0-3.887-.684-5.238-2.051-1.352-1.367-2.028-3.137-2.028-5.309 0-2.297.66-4.601 1.98-6.914 1.321-2.312 3.087-4.14 5.298-5.484 2.21-1.344 4.347-2.016 6.41-2.016 2.062 0 3.762.68 5.098 2.04 1.336 1.359 2.003 3.124 2.004 5.296zm-3.891-1.617c0-1.453-.356-2.566-1.067-3.34-.71-.773-1.628-1.16-2.753-1.16-2.297 0-4.41 1.644-6.34 4.934-1.93 3.289-2.895 6.558-2.895 9.808 0 1.485.375 2.629 1.125 3.434.75.804 1.695 1.207 2.836 1.207 2.203 0 4.27-1.637 6.2-4.91 1.929-3.274 2.894-6.598 2.894-9.973zM300.352 0l-6.657 23.04 2.672-2.274c2.922-2.47 4.82-4.297 5.696-5.485.28-.39.421-.687.421-.89a.653.653 0 00-.14-.399c-.094-.125-.278-.226-.551-.304-.273-.079-.754-.118-1.441-.118h-.82l.257-.89h10.242l-.234.89c-1.172.063-2.184.246-3.035.551a9.49 9.49 0 00-2.473 1.348c-1.578 1.172-2.617 1.984-3.117 2.437l-2.016 1.782c.344 1.125.766 2.695 1.266 4.71.844 3.344 1.414 5.329 1.71 5.954.298.625.602.937.915.937.265 0 .578-.133.937-.398.813-.594 1.68-1.54 2.602-2.836l.82.586c-1.703 2.14-3.008 3.55-3.914 4.23-.906.68-1.734 1.02-2.484 1.02-.656 0-1.164-.258-1.524-.774-.625-.922-1.664-4.554-3.117-10.898l-3.21 2.789-2.415 8.32h-3.656l7.781-26.742.656-2.274a5.27 5.27 0 00.118-1.03c0-.376-.145-.688-.434-.938-.289-.25-.707-.375-1.254-.375-.36 0-.93.078-1.71.234v-.82zm30.07 12.117l-4.57 15.89-.516 2.134c-.047.203-.07.375-.07.515 0 .25.078.469.234.657.125.14.281.21.469.21.203 0 .468-.125.797-.375.609-.453 1.421-1.39 2.437-2.812l.797.562c-1.078 1.625-2.188 2.864-3.328 3.715-1.14.852-2.195 1.278-3.164 1.278-.672 0-1.176-.168-1.512-.504-.336-.336-.504-.824-.504-1.465 0-.766.172-1.774.516-3.024l.492-1.757c-2.047 2.672-3.93 4.539-5.648 5.601-1.235.766-2.446 1.149-3.633 1.149-1.14 0-2.125-.473-2.953-1.418-.828-.946-1.243-2.246-1.243-3.903 0-2.484.747-5.105 2.239-7.863s3.386-4.965 5.683-6.621c1.797-1.313 3.493-1.969 5.086-1.969.953 0 1.746.25 2.38.75.632.5 1.112 1.328 1.44 2.485l.844-2.672zm-8.344 1.219c-1 0-2.062.469-3.187 1.406-1.594 1.328-3.012 3.297-4.254 5.906-1.242 2.61-1.864 4.97-1.864 7.079 0 1.062.266 1.902.797 2.52.532.616 1.14.925 1.828.925 1.704 0 3.555-1.258 5.555-3.774 2.672-3.343 4.008-6.773 4.008-10.289 0-1.328-.258-2.289-.773-2.882-.516-.594-1.22-.891-2.11-.891z" font-family="Times New Roman" font-size="48" font-style="italic" font-weight="400" style="line-height:100%;-inkscape-font-specification:'Times New Roman Italic';text-align:start"/>
</svg>
