<?xml version="1.0" encoding="UTF-8" standalone="no"?>
<svg xmlns="http://www.w3.org/2000/svg" width="368" height="50" version="1.0">
	<path style="line-height:125%;-inkscape-font-specification:'Lucida Bright';text-align:start" fill="#4d4d4d" d="M10.21 49.388L3.808 11.25C3.201 7.747 2.81 5.83 2.634 5.5c-.176-.33-.912-.494-2.209-.494L0 4.945V3.06h10.737v1.885h-.385c-1.31 0-2.14.103-2.492.31-.351.205-.527.68-.527 1.42 0 .68.196 2.205.588 4.575l4.436 26.61 6.908-34.244h1.418l6.908 35.202 5.186-27.537c.581-3.132.871-4.883.871-5.254 0-.721-1.053-1.082-3.16-1.082h-.364V3.06h8.245v1.885l-.365.062c-1.445.123-2.245.32-2.4.587-.156.268-.585 2.153-1.287 5.656l-7.333 38.138h-1.358l-7.07-35.202-6.948 35.202zm36.687-34.151v25.56c0 2.801.149 4.47.446 5.006.297.536 1.276.886 2.937 1.05l.385.032V48.8H39.16v-1.916l.385-.031c1.634-.165 2.603-.52 2.907-1.066.303-.546.455-2.21.455-4.992V23.242c0-2.782-.152-4.44-.455-4.976-.304-.536-1.273-.897-2.907-1.082l-.385-.031v-1.916zm-3.99-6.089V3.06h3.99v6.088zm16.712 23.15v8.498c0 2.761.139 4.425.415 4.992.277.566 1.098.922 2.462 1.066l.385.03v1.917h-11v-1.916l.385-.031c1.634-.165 2.603-.52 2.907-1.066.303-.546.455-2.21.455-4.992V8.005c0-2.782-.152-4.446-.455-4.992-.304-.546-1.273-.901-2.907-1.066l-.385-.03V0h7.738v30.783h.952l5.105-7.48c2.188-3.4 3.282-5.223 3.282-5.47 0-.392-.371-.603-1.114-.634a44.045 44.045 0 00-1.54-.046h-.425v-1.916h8.57v1.916l-.386.03c-1.431.145-2.346.408-2.745.789-.398.381-1.664 2.179-3.798 5.393l-3.85 5.78 6.605 11.837c1.675 2.884 2.725 4.558 3.15 5.022.425.464 1.165.747 2.218.85l.385.03v1.917H69.85l-9.278-16.504zm24.877-17.061v25.56c0 2.801.149 4.47.446 5.006.297.536 1.276.886 2.937 1.05l.385.032V48.8H76.757v-1.916l.385-.031c1.634-.165 2.604-.52 2.907-1.066.304-.546.456-2.21.456-4.992V23.242c0-2.782-.152-4.44-.456-4.976-.303-.536-1.273-.897-2.907-1.082l-.385-.031v-1.916zm-3.99-6.089V3.06h3.99v6.088zm18.434 40.24L92.538 11.25c-.607-3.503-.999-5.419-1.175-5.749-.175-.33-.911-.494-2.208-.494l-.425-.062V3.06h10.737v1.885h-.385c-1.31 0-2.14.103-2.492.31-.351.205-.527.68-.527 1.42 0 .68.196 2.205.588 4.575l4.436 26.61 6.908-34.244h1.418l6.908 35.202 5.186-27.537c.581-3.132.871-4.883.871-5.254 0-.721-1.053-1.082-3.16-1.082h-.364V3.06h8.245v1.885l-.365.062c-1.445.123-2.245.32-2.4.587-.156.268-.585 2.153-1.287 5.656l-7.333 38.138h-1.358l-7.07-35.202-6.948 35.202zm40.698.186c-3.241 0-5.8-1.571-7.678-4.714-1.877-3.142-2.815-7.422-2.815-12.841s.938-9.694 2.815-12.826c1.878-3.132 4.437-4.698 7.678-4.698 3.255 0 5.818 1.566 7.688 4.698 1.87 3.132 2.806 7.407 2.806 12.826 0 5.419-.939 9.7-2.816 12.841-1.877 3.143-4.437 4.714-7.678 4.714zm0-1.917c1.796 0 3.289-1.478 4.477-4.435 1.189-2.956 1.783-6.69 1.783-11.203 0-4.471-.594-8.195-1.783-11.173-1.188-2.977-2.68-4.466-4.477-4.466-1.783 0-3.268 1.489-4.457 4.466-1.188 2.978-1.782 6.702-1.782 11.173 0 4.512.59 8.247 1.772 11.203 1.182 2.957 2.671 4.435 4.467 4.435zm25.04 1.917c-3.242 0-5.801-1.571-7.679-4.714-1.877-3.142-2.816-7.422-2.816-12.841s.939-9.694 2.816-12.826c1.878-3.132 4.437-4.698 7.678-4.698 3.255 0 5.817 1.566 7.688 4.698 1.87 3.132 2.806 7.407 2.806 12.826 0 5.419-.939 9.7-2.816 12.841-1.877 3.143-4.437 4.714-7.678 4.714zm0-1.917c1.795 0 3.288-1.478 4.476-4.435 1.189-2.956 1.783-6.69 1.783-11.203 0-4.471-.594-8.195-1.783-11.173-1.188-2.977-2.68-4.466-4.477-4.466-1.783 0-3.268 1.489-4.457 4.466-1.188 2.978-1.782 6.702-1.782 11.173 0 4.512.59 8.247 1.772 11.203 1.182 2.957 2.67 4.435 4.467 4.435zm21.027-23.272v16.411c0 2.782.159 4.45.476 5.007.317.556 1.286.907 2.907 1.05l.871.032V48.8h-11.993v-1.916l.385-.031c1.634-.165 2.603-.52 2.907-1.066.304-.546.456-2.21.456-4.992V23.242c0-2.782-.152-4.44-.456-4.976-.304-.536-1.273-.897-2.907-1.082l-.385-.031v-1.916h7.739v6.305c1.823-4.698 4.207-7.047 7.15-7.047.406 0 .858.113 1.358.34v9.18h-2.248l-.02-.557c-.15-1.916-.28-3.055-.396-3.415-.115-.36-.422-.541-.921-.541-2 0-3.64 1.628-4.923 4.883zm27.855 24.416v-6.305c-.973 2.349-2.104 4.116-3.394 5.3-1.29 1.185-2.731 1.778-4.325 1.778-2.485 0-4.463-1.5-5.935-4.497-1.472-2.998-2.208-7.021-2.208-12.07 0-5.603.844-10.09 2.532-13.459 1.688-3.369 3.93-5.053 6.725-5.053 1.283 0 2.475.381 3.576 1.144 1.1.762 2.11 1.905 3.029 3.43V8.005c0-2.823-.146-4.497-.436-5.023-.29-.525-1.266-.87-2.927-1.035l-.385-.03V0h7.759v40.796c0 2.802.145 4.471.435 5.007.29.536 1.266.886 2.927 1.05l.385.032V48.8zm0-27.352c-1.04-1.195-2.067-2.086-3.08-2.673-1.013-.588-2.012-.881-2.998-.881-1.85 0-3.238 1.118-4.163 3.353-.925 2.236-1.388 5.6-1.388 10.091 0 4.76.45 8.33 1.348 10.709.898 2.38 2.245 3.57 4.041 3.57 1.216 0 2.343-.438 3.383-1.314 1.04-.876 1.992-2.189 2.857-3.94zm28.401 25.838c-2.539 1.524-4.855 2.287-6.948 2.287-3.228 0-5.851-1.659-7.87-4.976-2.02-3.318-3.029-7.624-3.029-12.92 0-5.026.905-9.147 2.715-12.362 1.81-3.214 4.132-4.82 6.968-4.821 2.62 0 4.636 1.35 6.047 4.049 1.412 2.699 2.117 6.552 2.117 11.559v.587h-13.43c0 5.213.597 9.148 1.792 11.806 1.195 2.658 2.968 3.987 5.318 3.987 2.471 0 4.578-.773 6.32-2.318zm-13.35-18.513h9.116l.02-1.36c0-3.894-.33-6.707-.992-8.438-.662-1.73-1.742-2.596-3.241-2.596-1.5 0-2.691 1.123-3.576 3.37-.884 2.245-1.327 5.253-1.327 9.024zm23.945-7.232c1.013-2.35 2.181-4.11 3.505-5.285 1.323-1.175 2.802-1.762 4.436-1.762 1.891 0 3.377.948 4.457 2.843 1.067 1.896 1.6 4.502 1.6 7.82v15.638c.095 3.07.25 4.801.466 5.193.216.391 1.189.68 2.917.865l.365.03v1.917h-11.486v-1.916l.365-.031c1.728-.186 2.7-.474 2.917-.865.216-.392.371-2.123.466-5.193v-14.68c0-2.885-.247-4.889-.74-6.011-.493-1.123-1.374-1.685-2.643-1.685-.892 0-1.891.428-2.999 1.283-1.107.855-2.316 2.148-3.626 3.878v17.215c0 2.802.149 4.471.446 5.007.297.536 1.276.886 2.937 1.05l.385.032V48.8h-11.506v-1.916l.385-.031c1.634-.165 2.603-.52 2.907-1.066.303-.546.455-2.21.455-4.992V23.242c0-2.782-.152-4.44-.455-4.976-.304-.536-1.273-.897-2.907-1.082l-.385-.031v-1.916h7.738zm21.008 27.63V8.005c0-2.782-.152-4.446-.456-4.992-.304-.546-1.273-.901-2.907-1.066l-.385-.03V0h7.738v21.542c1-2.35 2.144-4.11 3.434-5.285 1.29-1.175 2.725-1.762 4.305-1.762 2.485 0 4.464 1.494 5.936 4.481 1.472 2.988 2.208 7.006 2.208 12.054 0 5.604-.844 10.096-2.532 13.475-1.689 3.38-3.93 5.069-6.726 5.069-1.283 0-2.478-.381-3.586-1.144-1.107-.762-2.12-1.906-3.039-3.43h-.243l-.506 4.172zm3.99-6.583c1.067 1.195 2.107 2.091 3.12 2.689 1.013.597 2.006.896 2.978.896 1.85 0 3.235-1.123 4.153-3.369.918-2.246 1.378-5.614 1.378-10.106 0-4.76-.446-8.33-1.337-10.71-.892-2.379-2.236-3.569-4.032-3.569-1.202 0-2.323.438-3.363 1.314-1.04.875-2.005 2.189-2.897 3.94zm30.63 6.985c-3.24 0-5.8-1.571-7.677-4.714-1.877-3.142-2.816-7.422-2.816-12.841s.939-9.694 2.816-12.826c1.877-3.132 4.436-4.698 7.678-4.698 3.254 0 5.817 1.566 7.687 4.698 1.87 3.132 2.806 7.407 2.806 12.826 0 5.419-.938 9.7-2.816 12.841-1.877 3.143-4.436 4.714-7.677 4.714zm0-1.917c1.797 0 3.29-1.478 4.478-4.435 1.188-2.956 1.782-6.69 1.782-11.203 0-4.471-.594-8.195-1.782-11.173-1.189-2.977-2.681-4.466-4.477-4.466-1.783 0-3.269 1.489-4.457 4.466-1.189 2.978-1.783 6.702-1.783 11.173 0 4.512.59 8.247 1.773 11.203 1.181 2.957 2.67 4.435 4.467 4.435zm32.393-.37c-2.539 1.524-4.855 2.287-6.948 2.287-3.228 0-5.852-1.659-7.87-4.976-2.02-3.318-3.03-7.624-3.03-12.92 0-5.026.906-9.147 2.715-12.362 1.81-3.214 4.133-4.82 6.97-4.821 2.62 0 4.635 1.35 6.046 4.049 1.411 2.699 2.117 6.552 2.117 11.559v.587h-13.431c0 5.213.598 9.148 1.793 11.806 1.195 2.658 2.968 3.987 5.318 3.987 2.471 0 4.578-.773 6.32-2.318zm-13.35-18.513h9.116l.02-1.36c0-3.894-.33-6.707-.992-8.438-.662-1.73-1.742-2.596-3.242-2.596-1.499 0-2.69 1.123-3.575 3.37-.885 2.245-1.327 5.253-1.327 9.024zm23.945 3.523v8.5c0 2.76.138 4.424.415 4.99.277.567 1.098.923 2.462 1.067l.384.03v1.917h-11v-1.916l.385-.031c1.634-.165 2.603-.52 2.907-1.066.304-.546.456-2.21.456-4.992V8.005c0-2.782-.152-4.446-.456-4.992-.304-.546-1.273-.901-2.907-1.066l-.385-.03V0h7.739v30.783h.952l5.105-7.48c2.188-3.4 3.282-5.223 3.282-5.47 0-.392-.372-.603-1.114-.634a44.045 44.045 0 00-1.54-.046h-.425v-1.916H366v1.916l-.385.03c-1.432.145-2.347.408-2.745.789-.398.381-1.665 2.179-3.798 5.393l-3.85 5.78 6.605 11.837c1.674 2.884 2.724 4.558 3.15 5.022.425.464 1.165.747 2.218.85l.385.03v1.917h-6.179l-9.278-16.504z" font-family="Lucida Bright" font-size="51.245" font-weight="400"/>
</svg>
