<?xml version="1.0" encoding="UTF-8" standalone="no"?>
<svg
   xmlns:dc="http://purl.org/dc/elements/1.1/"
   xmlns:cc="http://creativecommons.org/ns#"
   xmlns:rdf="http://www.w3.org/1999/02/22-rdf-syntax-ns#"
   xmlns:svg="http://www.w3.org/2000/svg"
   xmlns="http://www.w3.org/2000/svg"
   id="svg2728"
   height="54.332012"
   width="344.04901"
   version="1.0">
  <metadata
     id="metadata18">
    <rdf:RDF>
      <cc:Work
         rdf:about="">
        <dc:format>image/svg+xml</dc:format>
        <dc:type
           rdf:resource="http://purl.org/dc/dcmitype/StillImage" />
        <dc:title />
      </cc:Work>
    </rdf:RDF>
  </metadata>
  <defs
     id="defs2731" />
  <g
     transform="matrix(1.0295333,0,0,1.0295333,-34.638134,-325.98946)"
     id="g2700">
    <g
       id="text2410"
       style="font-style:normal;font-variant:normal;font-weight:bold;font-stretch:normal;font-size:56px;font-family:'DejaVu Sans';fill:#0a4e98;fill-opacity:1;stroke:none">
      <path
         id="path3708"
         d="m 167.42175,317.37637 h 10.52735 v 32.86719 h 18.48437 v 7.95703 h -29.01172 z" />
      <path
         id="path3710"
         d="m 203.078,317.37637 h 10.52735 v 40.82422 H 203.078 Z" />
      <path
         id="path3712"
         d="m 240.32019,333.18106 c 1.65883,3e-5 2.91664,-0.36456 3.77344,-1.09375 0.85674,-0.72914 1.28513,-1.80466 1.28515,-3.22656 -2e-5,-1.40362 -0.42841,-2.47458 -1.28515,-3.21289 -0.8568,-0.73825 -2.11461,-1.10739 -3.77344,-1.10742 h -5.82422 v 8.64062 z m 0.35547,17.85547 c 2.11456,10e-6 3.70505,-0.44661 4.77148,-1.33984 1.06638,-0.89322 1.59958,-2.24218 1.59961,-4.04688 -3e-5,-1.76821 -0.52867,-3.09438 -1.58593,-3.97851 -1.05732,-0.8841 -2.65237,-1.32616 -4.78516,-1.32618 h -6.17969 v 10.69141 z m 9.78906,-14.68359 c 2.26038,0.65627 4.01038,1.86851 5.25,3.63671 1.23955,1.76825 1.85934,3.93752 1.85938,6.50782 -4e-5,3.9375 -1.33077,6.8724 -3.99219,8.80468 -2.66149,1.9323 -6.70836,2.89844 -12.14063,2.89844 h -17.47265 v -40.82422 h 15.80469 c 5.66924,4e-5 9.77536,0.85681 12.31835,2.57032 2.54294,1.71357 3.81442,4.45706 3.81446,8.23046 -4e-5,1.98701 -0.46488,3.67777 -1.39453,5.07227 -0.92973,1.39455 -2.27868,2.42906 -4.04688,3.10352 z" />
      <path
         id="path3714"
         d="m 281.58191,335.47794 c 2.20571,2e-5 3.78708,-0.41014 4.74414,-1.23047 0.95701,-0.82029 1.43552,-2.16925 1.43555,-4.04688 -3e-5,-1.85934 -0.47854,-3.19007 -1.43555,-3.99219 -0.95706,-0.80205 -2.53843,-1.20309 -4.74414,-1.20312 h -4.42969 v 10.47266 z m -4.42969,7.27343 v 15.44922 H 266.62488 V 317.37637 H 282.703 c 5.37758,4e-5 9.31963,0.90239 11.82617,2.70703 2.50648,1.80473 3.75973,4.65759 3.75977,8.5586 -4e-5,2.69794 -0.65173,4.91278 -1.95508,6.64453 -1.30342,1.73179 -3.26761,3.00783 -5.89258,3.82812 1.44008,0.32815 2.72979,1.07099 3.86914,2.22852 1.13929,1.15757 2.29229,2.91212 3.45899,5.26367 l 5.71484,11.59375 h -11.21093 l -4.97657,-10.14453 c -1.00263,-2.04165 -2.0189,-3.43618 -3.04883,-4.18359 -1.02996,-0.74738 -2.40171,-1.12108 -4.11523,-1.1211 z" />
      <path
         id="path3716"
         d="m 328.36707,324.267 c -3.20836,3e-5 -5.69664,1.18493 -7.46485,3.55469 -1.76824,2.36982 -2.65236,5.70575 -2.65234,10.00781 -2e-5,4.28387 0.8841,7.61069 2.65234,9.98047 1.76821,2.3698 4.25649,3.55469 7.46485,3.55468 3.22653,1e-5 5.72392,-1.18488 7.49218,-3.55468 1.7682,-2.36978 2.65231,-5.6966 2.65235,-9.98047 -4e-5,-4.30206 -0.88415,-7.63799 -2.65235,-10.00781 -1.76826,-2.36976 -4.26565,-3.55466 -7.49218,-3.55469 z m 0,-7.62891 c 6.56247,4e-5 11.70308,1.87765 15.42187,5.63281 3.71871,3.75525 5.57808,8.94144 5.57813,15.5586 -5e-5,6.59897 -1.85942,11.77605 -5.57813,15.53125 -3.71879,3.75521 -8.8594,5.63281 -15.42187,5.63281 -6.54429,0 -11.68036,-1.8776 -15.40821,-5.63281 -3.72787,-3.7552 -5.5918,-8.93228 -5.59179,-15.53125 -1e-5,-6.61716 1.86392,-11.80335 5.59179,-15.5586 3.72785,-3.75516 8.86392,-5.63277 15.40821,-5.63281 z" />
      <path
         id="path3718"
         d="m 357.29675,317.37637 h 10.52735 v 36.85938 c -2e-5,5.08593 -1.38088,8.88671 -4.14258,11.40234 -2.76173,2.51562 -6.94076,3.77343 -12.53711,3.77344 h -2.13281 v -7.95703 h 1.64062 c 2.1875,0 3.8418,-0.61068 4.96289,-1.83203 1.12109,-1.22136 1.68164,-3.01693 1.68164,-5.38672 z" />
    </g>
    <g
       id="text3493"
       style="font-style:normal;font-variant:normal;font-weight:bold;font-stretch:normal;font-size:56px;font-family:'DejaVu Sans';text-align:center;text-anchor:middle;fill:#0b2645;fill-opacity:1;stroke:none">
      <path
         id="path3721"
         d="m 33.644501,317.37637 h 10.582031 l 10.828125,30.13282 10.800781,-30.13282 H 76.437469 L 61.316376,358.20059 H 48.765594 Z" />
      <path
         id="path3723"
         d="m 81.824188,317.37637 h 10.527344 v 40.82422 H 81.824188 Z" />
      <path
         id="path3725"
         d="m 102.71481,317.37637 h 10.52735 v 14.90235 l 15.17578,-14.90235 h 12.22265 l -19.66015,19.33203 21.68359,21.49219 h -13.17969 l -16.24218,-16.07812 v 16.07812 h -10.52735 z" />
      <path
         id="path3727"
         d="m 146.13669,317.37637 h 10.52734 v 40.82422 h -10.52734 z" />
    </g>
  </g>
</svg>
