<?xml version="1.0" encoding="UTF-8" standalone="no"?>
<svg
   xmlns:dc="http://purl.org/dc/elements/1.1/"
   xmlns:cc="http://creativecommons.org/ns#"
   xmlns:rdf="http://www.w3.org/1999/02/22-rdf-syntax-ns#"
   xmlns:svg="http://www.w3.org/2000/svg"
   xmlns="http://www.w3.org/2000/svg"
   id="svg2728"
   height="70.59375"
   width="501.1102"
   version="1.0">
  <metadata
     id="metadata18">
    <rdf:RDF>
      <cc:Work
         rdf:about="">
        <dc:format>image/svg+xml</dc:format>
        <dc:type
           rdf:resource="http://purl.org/dc/dcmitype/StillImage" />
      </cc:Work>
    </rdf:RDF>
  </metadata>
  <defs
     id="defs2731" />
  <g
     transform="translate(-38.236462,-301.9375)"
     id="g2700">
    <text
       transform="translate(-6.8381)"
       id="text2399"
       y="306.8273"
       x="546.18475"
       style="font-style:normal;font-variant:normal;font-weight:normal;font-stretch:normal;line-height:0%;font-family:SolaimanLipi;-inkscape-font-specification:SolaimanLipi;text-align:start;writing-mode:lr-tb;text-anchor:start;fill:#000000;fill-opacity:1;stroke:none;stroke-width:1px;stroke-linecap:butt;stroke-linejoin:miter;stroke-opacity:1"
       xml:space="preserve"><tspan
         style="font-size:10px;line-height:1.25"
         y="306.8273"
         x="546.18475"
         id="tspan2401"> </tspan></text>
    <path
       id="text2470"
       d="m 155.36977,302.99138 c -2.53685,0.27249 -4.79235,0.66161 -6.75584,1.16816 -1.96351,0.50667 -3.68464,1.21953 -5.16906,2.1469 -1.48442,0.92749 -2.75089,2.11725 -3.78664,3.55186 -1.03574,1.43469 -1.87499,3.20231 -2.52442,5.3041 0,0.8162 0.21715,1.38987 0.64915,1.73645 l 4.21938,3.56765 h -2.72878 -6.17883 -6.29903 l 0.0842,-0.96296 c -4e-5,-1.33547 -0.34122,-2.59844 -1.02179,-3.77285 -0.68064,-1.17433 -1.61891,-2.20006 -2.82495,-3.07828 -1.20613,-0.87811 -2.64563,-1.56071 -4.31557,-2.06796 -1.67,-0.50715 -3.49087,-0.77347 -5.46958,-0.77351 -4.73159,0.22263 -8.24225,0.38363 -10.53047,0.45779 -2.28824,0.0743 -3.568426,0.11056 -3.846738,0.1105 -1.54675,5e-5 -2.847047,-0.092 -3.882803,-0.25258 -1.035756,-0.16051 -1.874992,-0.37531 -2.524428,-0.64722 -0.649425,-0.27181 -1.116112,-0.59193 -1.394445,-0.96294 -0.278322,-0.37093 -0.408722,-0.76309 -0.408711,-1.18395 0,-0.59352 0.213218,-1.2229 0.661152,-1.87854 0.447933,-0.65554 1.031294,-1.29214 1.743055,-1.91012 -0.185551,-0.0498 -0.36742,-0.0825 -0.55296,-0.0947 -0.185564,-0.0121 -0.367421,-0.0157 -0.552972,-0.0158 -0.804543,7e-5 -1.461187,0.13142 -1.971457,0.37887 -0.51027,0.24756 -0.911751,0.5677 -1.190084,0.96294 -0.278322,0.39538 -0.469013,0.82079 -0.577012,1.27867 -0.107998,0.45798 -0.168302,0.91248 -0.168302,1.3576 1.2e-5,1.45846 0.466687,2.70564 1.394457,3.75708 0.927758,1.05153 2.108182,1.92842 3.546211,2.62046 1.438016,0.69217 3.011122,1.19743 4.712255,1.53125 1.701132,0.33393 3.323232,0.5052 4.868532,0.50515 l 10.9512,-0.52094 h 1.15403 c 0.21741,5e-5 0.42749,0.0194 0.61306,0.0316 0.18554,0.0122 0.38505,0.0231 0.60107,0.0474 0.46385,4e-5 1.10358,0.0363 1.92336,0.1105 0.81974,0.0742 1.63644,0.20558 2.44028,0.37886 0.80378,0.17337 1.49179,0.40148 2.07964,0.71038 0.5878,0.30899 0.88953,0.69147 0.88956,1.13658 -3e-5,0.32234 -0.12479,0.63465 -0.37265,0.93138 -0.24791,0.29683 -0.54083,0.55098 -0.86551,0.77351 -0.32474,0.22264 -0.67477,0.40418 -1.04584,0.55252 -0.37113,0.14843 -0.66157,0.24406 -0.87754,0.26836 l -3.14953,0.22101 H 92.836183 89.0255 81.235844 c 0.06229,-0.24689 0.09613,-0.42843 0.09617,-0.55252 v -0.59987 c -4.5e-5,-1.40967 -0.392714,-2.68592 -1.166044,-3.836 -0.77342,-1.14998 -1.785701,-2.13579 -3.053361,-2.95199 -1.267727,-0.81609 -2.724158,-1.45212 -4.363644,-1.9101 -1.639553,-0.45788 -3.31241,-0.67876 -5.012786,-0.6788 l -13.307324,0.58408 c -1.08144,5e-5 -2.180471,-0.0653 -3.293782,-0.18943 -1.113321,-0.12399 -2.119965,-0.33822 -3.017278,-0.64722 -0.897336,-0.3089 -1.627986,-0.73128 -2.199868,-1.26288 -0.571884,-0.53149 -0.865524,-1.20441 -0.865513,-2.02062 0.155107,-0.5935 0.36271,-1.09154 0.625092,-1.49967 0.262381,-0.40801 0.697697,-0.76082 1.286253,-1.05766 l -2.283996,-0.77351 c -0.185552,5e-5 -0.4189,0.11259 -0.697222,0.34729 -0.278333,0.23482 -0.525386,0.55132 -0.757333,0.94715 -0.231937,0.39597 -0.431441,0.85408 -0.601052,1.3734 -0.169612,0.51942 -0.252441,1.05071 -0.252441,1.59439 0,1.35991 0.42403,2.56355 1.274235,3.61499 0.850204,1.05154 1.948512,1.93868 3.293781,2.66784 1.345235,0.72925 2.841115,1.28658 4.495874,1.65752 1.654737,0.37103 3.284936,0.55256 4.892576,0.55251 1.855494,5e-5 3.727132,-0.0798 5.613839,-0.25257 1.886661,-0.1727 3.758298,-0.2683 5.613837,-0.26837 1.35973,5e-5 2.614895,0.0696 3.774624,0.20522 1.159661,0.13569 2.166328,0.34328 3.01729,0.61566 0.850894,0.27249 1.516361,0.59926 1.995496,0.99452 0.479057,0.39537 0.721229,0.85406 0.721262,1.37338 l -1.166043,0.74194 -3.702493,1.23132 H 38.236462 v 3.82021 h 20.96476 v 14.34948 c -2.2e-5,0.79183 0.151198,1.56283 0.444771,2.30477 0.293539,0.74197 0.700633,1.40461 1.226154,1.97324 0.525464,0.56866 1.17402,1.02677 1.947416,1.37339 0.773342,0.34664 1.654512,0.52096 2.64464,0.52094 1.298839,2e-5 2.647407,-0.2699 4.039073,-0.78931 1.391609,-0.51935 2.697531,-1.15539 3.918861,-1.91011 1.221274,-0.75468 2.319605,-1.57225 3.293782,-2.46261 0.974109,-0.89033 1.68786,-1.70486 2.151778,-2.44683 0.742162,0.79183 1.286062,1.60275 1.610814,2.43104 0.324673,0.82835 0.480808,1.65256 0.480852,2.49419 -4.4e-5,1.23584 -0.350056,2.42981 -1.045833,3.56764 -0.695867,1.13788 -1.626031,2.15274 -2.80092,3.03092 -1.174957,0.87819 -2.575005,1.58379 -4.183323,2.11532 -1.608385,0.53155 -3.303791,0.78932 -5.096937,0.78931 -2.444096,0 -4.6481,-0.3855 -6.611591,-1.15239 -1.963538,-0.76687 -3.710401,-1.78897 -5.241188,-3.06248 -1.530821,-1.27348 -2.853654,-2.73126 -3.966953,-4.38851 -1.113321,-1.65721 -2.060408,-3.37827 -2.848988,-5.14624 -0.788615,-1.76792 -1.414622,-3.51314 -1.863267,-5.25675 -0.448668,-1.74356 -0.764123,-3.36235 -0.949674,-4.8463 l -2.824949,-1.23131 c 0.308767,2.2004 0.684524,4.52179 1.117965,6.94584 0.433427,2.42414 1.012857,4.79812 1.755075,7.13529 0.742195,2.33718 1.675556,4.5629 2.788889,6.67747 1.113299,2.11459 2.501338,3.98089 4.171302,5.58826 1.669954,1.60738 3.675901,2.88061 6.010542,3.8202 2.334595,0.93964 5.062379,1.40498 8.186345,1.40497 2.968804,0 5.537257,-0.38912 7.717537,-1.16818 2.180189,-0.77904 3.995455,-1.8114 5.433528,-3.10983 1.437972,-1.29842 2.501733,-2.8119 3.1976,-4.53059 0.695777,-1.71866 1.045788,-3.49655 1.045833,-5.35146 -4.5e-5,-0.6434 -0.07334,-1.40411 -0.2284,-2.2574 -0.155163,-0.85322 -0.3966,-1.73735 -0.721274,-2.65205 -0.324751,-0.91467 -0.73187,-1.81207 -1.226143,-2.71519 -0.494364,-0.90308 -1.077725,-1.71039 -1.743056,-2.41527 -0.665421,-0.70482 -1.412994,-1.27242 -2.247937,-1.70488 -0.835022,-0.43239 -1.768383,-0.64721 -2.788889,-0.64723 -0.371149,4e-5 -0.795167,0.17493 -1.274234,0.52094 -0.479136,0.34609 -0.985271,0.7751 -1.526676,1.29445 -0.541471,0.51939 -1.099086,1.0834 -1.670936,1.68911 -0.571905,0.60576 -1.121432,1.16976 -1.646884,1.6891 -0.525522,0.51939 -1.017931,0.94784 -1.466565,1.29445 -0.44869,0.34665 -0.82124,0.52096 -1.129984,0.52094 -0.526243,3e-5 -0.984107,-0.0987 -1.370404,-0.28414 -0.386343,-0.18548 -0.719444,-0.42937 -0.997744,-0.72616 -0.278355,-0.29676 -0.494046,-0.61991 -0.649142,-0.97873 -0.155129,-0.35879 -0.246058,-0.71102 -0.27648,-1.05767 v -11.2397 H 89.0255 92.836183 105.03756 l 1.71901,1.18395 c 0.43342,0.34667 0.70551,0.69224 0.82946,1.02609 0.12392,0.33392 0.26706,0.51965 0.42074,0.5683 -1.4221,0.37101 -2.76257,0.82911 -4.01504,1.37337 -1.25249,0.54433 -2.3589,1.18398 -3.31781,1.9259 -0.958939,0.74199 -1.724158,1.58258 -2.296029,2.50998 -0.571884,0.92747 -0.871139,1.9568 -0.901584,3.09406 0.278322,1.08861 0.918777,1.86625 1.923375,2.33632 1.004578,0.47013 2.094078,0.71042 3.269738,0.71038 1.05096,3e-5 2.1147,-0.17427 3.1976,-0.52094 1.08286,-0.34661 2.07259,-0.83439 2.96921,-1.45232 0.89656,-0.61788 1.62795,-1.33735 2.19985,-2.17846 0.57185,-0.84105 0.86549,-1.75785 0.86551,-2.74677 0.7422,-0.27241 1.40694,-0.41041 1.9955,-0.41044 0.77262,3e-5 1.55549,0.14886 2.34411,0.4578 0.78857,0.30898 1.48539,0.72776 2.10369,1.24709 0.61824,0.51941 1.14522,1.12272 1.56274,1.81539 0.41745,0.69271 0.64688,1.42799 0.70924,2.19426 -0.3088,1.50945 -1.04019,2.7452 -2.19985,3.70971 -1.15974,0.96456 -2.48257,1.73253 -3.96696,2.28898 -1.48443,0.55648 -3.00605,0.92678 -4.568,1.13659 -1.562,0.20985 -2.8841,0.31573 -3.96695,0.31571 -2.34986,2e-5 -4.6857,-0.25772 -7.020307,-0.78929 -2.334629,-0.53152 -4.431516,-1.26377 -6.287032,-2.17847 l 5.698,9.50317 c 3.277579,0.51939 6.589449,1.33032 9.929389,2.43106 3.33992,1.10076 6.58587,2.40667 9.72505,3.91493 3.13913,1.50825 6.10589,3.17361 8.91964,5.00416 2.81367,1.83055 5.35077,3.72952 7.60933,5.68297 l -1.4786,-5.1936 c -1.67,-1.33552 -3.23502,-2.53251 -4.68821,-3.58343 -1.45329,-1.0509 -2.94105,-2.073 -4.47183,-3.06248 -1.53085,-0.98946 -3.16912,-1.98192 -4.91662,-2.98356 -1.74754,-1.00163 -3.75349,-2.12659 -6.01054,-3.36242 1.91638,-0.44516 3.6946,-0.98615 5.34938,-1.64175 1.65472,-0.65556 3.09424,-1.45621 4.31557,-2.38369 1.22127,-0.92743 2.21101,-1.98946 2.96921,-3.18877 0.7581,-1.19928 1.19905,-2.57057 1.32231,-4.10436 -4e-5,-1.13726 -0.28165,-2.30155 -0.8535,-3.48872 -0.57191,-1.18709 -1.32832,-2.28483 -2.27198,-3.29927 -0.94373,-1.01436 -2.00749,-1.89427 -3.1976,-2.63626 -1.19017,-0.74192 -2.40443,-1.21389 -3.6424,-1.43653 -0.64946,-0.0985 -1.30682,-0.2407 -1.97145,-0.42622 -0.66468,-0.18545 -1.28259,-0.42934 -1.83923,-0.72616 -0.55666,-0.29674 -1.02825,-0.6562 -1.4305,-1.08923 -0.40229,-0.43296 -0.65255,-0.95345 -0.7453,-1.54703 h 22.16684 6.17883 2.32007 v 35.69217 l 4.77236,3.55185 v -39.24402 h 5.19311 5.61384 24.17439 v 2.93619 c -4.88526,1.11298 -9.49424,2.67303 -13.82424,4.68845 -4.33004,2.01548 -8.59147,4.25206 -12.76639,6.72484 l 6.55148,6.45648 c 3.21671,0.27246 6.03544,0.87219 8.46285,1.79961 2.42738,0.92746 4.54608,2.11723 6.37118,3.55185 1.82504,1.43465 3.39815,3.06732 4.71225,4.90945 1.31406,1.84215 2.47195,3.81677 3.46207,5.91975 l 1.80316,1.37339 v -30.30914 c 0.24641,-0.0498 0.44029,-0.0789 0.56499,-0.0789 h 0.55297 c 1.57714,3e-5 3.13332,0.25054 4.66418,0.75772 1.53076,0.50723 2.91071,1.19897 4.14727,2.05219 1.23648,0.85327 2.23505,1.84267 2.99324,2.96777 0.75811,1.12512 1.12993,2.32212 1.12998,3.58342 v 0.47359 c -5e-5,0.12406 -0.0219,0.29112 -0.0842,0.48936 -0.49437,-0.6434 -1.13481,-1.12754 -1.92337,-1.43653 -0.78863,-0.30894 -1.60533,-0.45776 -2.44027,-0.45779 -0.71181,2e-5 -1.41995,0.0799 -2.11572,0.25258 -0.69585,0.17275 -1.30985,0.42388 -1.85124,0.75772 -0.54147,0.3339 -0.9824,0.74184 -1.32231,1.19974 -0.33998,0.45794 -0.50491,0.98506 -0.50489,1.5786 -4e-5,0.71646 0.17301,1.38997 0.52893,2.02061 0.35584,0.63068 0.83134,1.16804 1.41848,1.62596 0.58706,0.45793 1.22751,0.81377 1.92337,1.07344 0.69578,0.25971 1.39189,0.39466 2.10369,0.39466 1.08283,10e-6 2.11521,-0.1743 3.08942,-0.52093 0.9741,-0.34663 1.82215,-0.83744 2.54846,-1.46811 0.72622,-0.63065 1.30147,-1.37255 1.71901,-2.22583 0.41745,-0.85324 0.62505,-1.78088 0.6251,-2.79412 -4e-5,-1.97892 -0.50619,-3.90697 -1.52667,-5.7619 -1.02059,-1.85486 -2.36106,-3.49057 -4.01504,-4.92523 -1.65407,-1.43461 -3.55218,-2.59169 -5.68596,-3.45715 -2.13389,-0.86538 -4.31289,-1.29439 -6.53947,-1.29444 v -2.85727 h 22.21493 v -3.82021 h -51.16168 -5.61384 -6.91212 l -1.80316,-3.26771 c 0.52476,-1.33548 1.28187,-2.60451 2.27198,-3.80443 0.99009,-1.19983 2.17051,-2.26128 3.54622,-3.18878 1.37568,-0.92739 2.89803,-1.66627 4.56801,-2.21004 1.66994,-0.54365 3.46757,-0.80504 5.38543,-0.80509 3.37036,6e-5 6.54793,0.36672 9.53273,1.12081 2.98474,0.75419 5.72945,1.80597 8.23443,3.14142 l 7.96997,4.92524 -1.05786,-2.44684 c -1.76278,-1.65659 -3.71725,-3.118 -5.86627,-4.40429 -2.14911,-1.28619 -4.43107,-2.38452 -6.82797,-3.29928 -2.397,-0.91464 -4.88334,-1.64989 -7.4651,-2.19426 -2.58181,-0.54423 -5.16792,-0.89343 -7.76562,-1.04187 z m 25.97756,29.42513 v 19.87459 c -1.54534,-1.95342 -2.95983,-3.57581 -4.24344,-4.8621 -1.28368,-1.28623 -2.56704,-2.35794 -3.83473,-3.23613 -1.26771,-0.87816 -2.60427,-1.64251 -4.02706,-2.27319 -1.42281,-0.63064 -3.05549,-1.26781 -4.88056,-1.9101 2.6905,-1.58359 5.39575,-3.03053 8.10221,-4.34116 2.70642,-1.31056 5.66827,-2.38588 8.88358,-3.25191 z"
       style="font-style:normal;font-variant:normal;font-weight:normal;font-stretch:normal;font-size:144.547px;line-height:125%;font-family:SolaimanLipi;-inkscape-font-specification:SolaimanLipi;text-align:start;writing-mode:lr-tb;text-anchor:start;fill:#0b2645;fill-opacity:1;stroke:none;stroke-width:1px;stroke-linecap:butt;stroke-linejoin:miter;stroke-opacity:1" />
    <path
       id="text2474"
       transform="translate(-6.8381)"
       d="m 275.15625,301.9375 -1.9375,0.1875 -0.875,0.25 c -0.73027,0.51606 -1.22531,1.07301 -1.46875,1.65625 -0.20865,0.24684 -0.36442,0.53613 -0.46875,0.90625 -0.10432,0.37023 -0.15624,0.83661 -0.15625,1.375 0,0.49362 0.11773,0.99286 0.34375,1.53125 0.22604,0.53849 0.5376,1.09782 0.9375,1.625 0.39991,0.52727 0.85336,1.00889 1.375,1.46875 0.52163,0.45996 1.09633,0.8422 1.6875,1.15625 2.01695,1.21153 4.38128,2.06898 7.09375,2.5625 2.71244,0.49361 5.44026,0.75004 8.1875,0.75 h 1.8125 c 0.20863,-0.0448 0.53403,-0.1025 0.96875,-0.125 0.43467,-0.0224 0.99197,-0.0312 1.6875,-0.0312 l 3.1875,-0.3125 h 3.90625 l 5.375,-0.0937 c 1.11277,5e-5 2.28284,0.0754 3.5,0.1875 1.21709,0.11222 2.4391,0.31097 3.65625,0.625 2.50376,0.60579 3.74996,1.2068 3.75,1.8125 l -0.5625,0.84375 c -1.11284,1.09935 -2.38676,1.74924 -3.8125,1.90625 l -2.96875,0.0937 -1.3125,0.125 h -39.75 -2.25 -57.21875 l 6.25,4.1875 H 257.375 v 2.78125 l -6.15625,1.3125 -5.21875,1.4062 -11.0625,3.5 -8.03125,3.0625 -7.71875,3.40625 8.1875,7.5 c 1.35621,2e-5 2.67854,0.0641 4,0.1875 1.32144,0.12341 2.64728,0.33337 3.96875,0.625 l 1.9375,0.59375 2.1875,0.6875 2.1875,0.75 c 0.73025,0.2468 1.35334,0.44553 1.875,0.625 1.73872,0.62819 3.22035,1.22038 4.4375,1.78125 1.21709,0.56088 2.19334,1.07135 2.90625,1.53125 0.71285,0.45992 1.47786,1.04572 2.3125,1.71875 0.83456,0.67305 1.71728,1.46398 2.65625,2.40625 l 1.53125,1.71875 1.5625,1.90625 1.34375,2.09375 3.40625,3.03125 v -42.625 h 9.625 2.25 17.46875 l 2.3125,1.28125 c 1.42575,0.91986 1.99693,1.54733 1.71875,1.90625 -0.13912,0.20195 -0.91798,0.44077 -2.34375,0.6875 -1.73877,0.40386 -3.12689,0.76847 -4.1875,1.09375 -1.06065,0.32534 -1.80498,0.58819 -2.1875,0.8125 l -2.28125,1.71875 -1.5625,1.40625 c -1.53011,1.57046 -2.10482,2.84784 -1.6875,3.8125 0.38252,1.2115 1.1891,2.06895 2.40625,2.5625 0.83459,0.26924 1.66539,0.45034 2.5,0.5625 0.83459,0.1122 1.64119,0.15628 2.40625,0.15625 2.50378,2e-5 4.81621,-0.49921 6.9375,-1.53125 l 3.0625,-2 c 1.46052,-1.09928 2.21872,-2.42072 2.21875,-3.96875 0.45205,-0.13458 0.90552,-0.22513 1.375,-0.28125 0.46943,-0.0561 0.95062,-0.0937 1.4375,-0.0937 1.04322,3e-5 2.34133,0.26527 3.90625,0.78125 1.66916,0.40386 2.91535,1.23486 3.75,2.46875 0.45204,0.53846 0.77745,1.08419 0.96875,1.65625 0.19122,0.57211 0.28121,1.11785 0.28125,1.65625 -4e-5,0.87498 -0.33932,1.61302 -1,2.21875 -1.42581,0.94228 -2.63394,1.72041 -3.625,2.28125 -0.99112,0.56089 -1.78387,0.94074 -2.375,1.1875 l -5.9375,1.5 c -0.7303,0.22436 -1.64075,0.37902 -2.71875,0.46875 -1.07805,0.0898 -2.32072,0.12503 -3.78125,0.125 l -4.75,-0.25 -4.75,-0.59375 c -1.66921,-0.31407 -3.22694,-0.67868 -4.6875,-1.09375 -1.46056,-0.41502 -2.86604,-0.85015 -4.1875,-1.34375 l 7.71875,10.3125 c 3.09496,0.53844 5.74312,1.02007 7.96875,1.46875 2.22558,0.4487 4.0742,0.8686 5.5,1.25 1.46053,0.35896 3.20178,0.86063 5.21875,1.5 2.01692,0.6394 4.3258,1.44157 6.96875,2.40625 4.55549,1.70504 8.77878,3.53936 12.65625,5.46875 3.87736,1.92939 7.3702,4.02416 10.5,6.3125 L 330.8125,366.9375 321,361.15625 c -1.53015,-0.94226 -3.54488,-2.00085 -6.03125,-3.15625 -2.48645,-1.15538 -5.43583,-2.39508 -8.84375,-3.71875 l -2.4375,-1.40625 c 2.99062,-0.56086 5.6146,-1.26125 7.875,-2.125 2.26034,-0.86373 4.17121,-1.82295 5.71875,-2.84375 1.54744,-1.02077 2.70364,-2.06575 3.46875,-3.1875 0.765,-1.12172 1.15621,-2.24442 1.15625,-3.34375 l 0.15625,-0.8125 c -5e-5,-2.42293 -1.30171,-4.80938 -3.875,-7.1875 -2.53862,-2.49023 -5.57799,-4.06811 -9.125,-4.71875 l -2.46875,-0.40625 -2.8125,-0.78125 -1.59375,-0.96875 -1.21875,-1.875 h 37.25 l -6.40625,-4.1875 h -9.40625 l 0.125,-1.03125 c -5e-5,-2.01908 -0.85858,-3.8446 -2.5625,-5.4375 -1.39105,-1.36847 -3.23615,-2.44229 -5.53125,-3.25 -2.43429,-1.09925 -5.89259,-1.65619 -10.34375,-1.65625 l -11.40625,0.25 -9.09375,0.5 -1.8125,-0.0937 -4.0625,-0.84375 c -2.2256,-0.71786 -3.39567,-1.266 -3.5,-1.625 l -0.375,-1.75 c 0,-1.48064 1.01428,-2.6386 3.03125,-3.46875 l -0.71875,-0.0937 z M 257.375,334.03125 v 21.75 c -0.97374,-1.00956 -1.93611,-1.9223 -2.875,-2.71875 -0.93896,-0.79642 -1.82168,-1.46156 -2.65625,-2 l -4.1875,-2.65625 c -1.28671,-0.69546 -2.43939,-1.3165 -3.5,-1.84375 -1.06067,-0.5272 -2.27233,-1.04648 -3.59375,-1.5625 -1.32147,-0.53842 -2.64732,-1.02004 -3.96875,-1.46875 -1.32147,-0.44868 -2.61607,-0.85977 -3.9375,-1.21875 l 4.71875,-1.96875 5.90625,-2.28125 c 2.36467,-0.87493 4.72902,-1.61939 7.09375,-2.28125 2.36467,-0.6618 4.70482,-1.2564 7,-1.75 z"
       style="font-style:normal;font-variant:normal;font-weight:normal;font-stretch:normal;font-size:85.8057px;line-height:125%;font-family:SolaimanLipi;-inkscape-font-specification:SolaimanLipi;text-align:start;writing-mode:lr-tb;text-anchor:start;fill:#0a4e98;fill-opacity:1;stroke:none;stroke-width:1px;stroke-linecap:butt;stroke-linejoin:miter;stroke-opacity:1" />
  </g>
</svg>
